  0
SECTION
  2
HEADER
  9
$ACADVER
  1
AC1021
  9
$ACADMAINTVER
 70
    25
  9
$DWGCODEPAGE
  3
ANSI_1252
  9
$INSBASE
 10
0.0
 20
0.0
 30
0.0
  9
$EXTMIN
 10
-16.17822
 20
-20.52826
 30
0.0
  9
$EXTMAX
 10
-4.82178
 20
-9.17182
 30
0.0
  9
$LIMMIN
 10
0.0
 20
0.0
  9
$LIMMAX
 10
12.0
 20
9.0
  9
$ORTHOMODE
 70
     0
  9
$REGENMODE
 70
     1
  9
$FILLMODE
 70
     1
  9
$QTEXTMODE
 70
     0
  9
$MIRRTEXT
 70
     1
  9
$LTSCALE
 40
1.0
  9
$ATTMODE
 70
     1
  9
$TEXTSIZE
 40
0.2
  9
$TRACEWID
 40
0.05
  9
$TEXTSTYLE
  7
Standard
  9
$CLAYER
  8
0
  9
$CELTYPE
  6
ByLayer
  9
$CECOLOR
 62
   256
  9
$CELTSCALE
 40
1.0
  9
$DISPSILH
 70
     0
  9
$DIMSCALE
 40
1.0
  9
$DIMASZ
 40
0.18
  9
$DIMEXO
 40
0.0625
  9
$DIMDLI
 40
0.38
  9
$DIMRND
 40
0.0
  9
$DIMDLE
 40
0.0
  9
$DIMEXE
 40
0.18
  9
$DIMTP
 40
0.0
  9
$DIMTM
 40
0.0
  9
$DIMTXT
 40
0.18
  9
$DIMCEN
 40
0.09
  9
$DIMTSZ
 40
0.0
  9
$DIMTOL
 70
     0
  9
$DIMLIM
 70
     0
  9
$DIMTIH
 70
     1
  9
$DIMTOH
 70
     1
  9
$DIMSE1
 70
     0
  9
$DIMSE2
 70
     0
  9
$DIMTAD
 70
     0
  9
$DIMZIN
 70
     0
  9
$DIMBLK
  1

  9
$DIMASO
 70
     1
  9
$DIMSHO
 70
     1
  9
$DIMPOST
  1

  9
$DIMAPOST
  1

  9
$DIMALT
 70
     0
  9
$DIMALTD
 70
     2
  9
$DIMALTF
 40
25.4
  9
$DIMLFAC
 40
1.0
  9
$DIMTOFL
 70
     0
  9
$DIMTVP
 40
0.0
  9
$DIMTIX
 70
     0
  9
$DIMSOXD
 70
     0
  9
$DIMSAH
 70
     0
  9
$DIMBLK1
  1

  9
$DIMBLK2
  1

  9
$DIMSTYLE
  2
Standard
  9
$DIMCLRD
 70
     0
  9
$DIMCLRE
 70
     0
  9
$DIMCLRT
 70
     0
  9
$DIMTFAC
 40
1.0
  9
$DIMGAP
 40
0.09
  9
$DIMJUST
 70
     0
  9
$DIMSD1
 70
     0
  9
$DIMSD2
 70
     0
  9
$DIMTOLJ
 70
     1
  9
$DIMTZIN
 70
     0
  9
$DIMALTZ
 70
     0
  9
$DIMALTTZ
 70
     0
  9
$DIMUPT
 70
     0
  9
$DIMDEC
 70
     4
  9
$DIMTDEC
 70
     4
  9
$DIMALTU
 70
     2
  9
$DIMALTTD
 70
     2
  9
$DIMTXSTY
  7
Standard
  9
$DIMAUNIT
 70
     0
  9
$DIMADEC
 70
     0
  9
$DIMALTRND
 40
0.0
  9
$DIMAZIN
 70
     0
  9
$DIMDSEP
 70
    46
  9
$DIMATFIT
 70
     3
  9
$DIMFRAC
 70
     0
  9
$DIMLDRBLK
  1

  9
$DIMLUNIT
 70
     2
  9
$DIMLWD
 70
    -2
  9
$DIMLWE
 70
    -2
  9
$DIMTMOVE
 70
     0
  9
$DIMFXL
 40
1.0
  9
$DIMFXLON
 70
     0
  9
$DIMJOGANG
 40
0.7853981633974483
  9
$DIMTFILL
 70
     0
  9
$DIMTFILLCLR
 70
     0
  9
$DIMARCSYM
 70
     0
  9
$DIMLTYPE
  6

  9
$DIMLTEX1
  6

  9
$DIMLTEX2
  6

  9
$LUNITS
 70
     2
  9
$LUPREC
 70
     4
  9
$SKETCHINC
 40
0.1
  9
$FILLETRAD
 40
0.5
  9
$AUNITS
 70
     0
  9
$AUPREC
 70
     0
  9
$MENU
  1
.
  9
$ELEVATION
 40
0.0
  9
$PELEVATION
 40
0.0
  9
$THICKNESS
 40
0.0
  9
$LIMCHECK
 70
     0
  9
$CHAMFERA
 40
0.5
  9
$CHAMFERB
 40
0.5
  9
$CHAMFERC
 40
1.0
  9
$CHAMFERD
 40
0.0
  9
$SKPOLY
 70
     0
  9
$TDCREATE
 40
2456972.761157986
  9
$TDUCREATE
 40
2456972.761157986
  9
$TDUPDATE
 40
2456972.761157998
  9
$TDUUPDATE
 40
2456972.761157998
  9
$TDINDWG
 40
0.0000000116
  9
$TDUSRTIMER
 40
0.0000000116
  9
$USRTIMER
 70
     1
  9
$ANGBASE
 50
0.0
  9
$ANGDIR
 70
     0
  9
$PDMODE
 70
     0
  9
$PDSIZE
 40
0.0
  9
$PLINEWID
 40
0.0
  9
$SPLFRAME
 70
     0
  9
$SPLINETYPE
 70
     6
  9
$SPLINESEGS
 70
     8
  9
$HANDSEED
  5
B9
  9
$SURFTAB1
 70
     6
  9
$SURFTAB2
 70
     6
  9
$SURFTYPE
 70
     6
  9
$SURFU
 70
     6
  9
$SURFV
 70
     6
  9
$UCSBASE
  2

  9
$UCSNAME
  2

  9
$UCSORG
 10
0.0
 20
0.0
 30
0.0
  9
$UCSXDIR
 10
1.0
 20
0.0
 30
0.0
  9
$UCSYDIR
 10
0.0
 20
1.0
 30
0.0
  9
$UCSORTHOREF
  2

  9
$UCSORTHOVIEW
 70
     0
  9
$UCSORGTOP
 10
0.0
 20
0.0
 30
0.0
  9
$UCSORGBOTTOM
 10
0.0
 20
0.0
 30
0.0
  9
$UCSORGLEFT
 10
0.0
 20
0.0
 30
0.0
  9
$UCSORGRIGHT
 10
0.0
 20
0.0
 30
0.0
  9
$UCSORGFRONT
 10
0.0
 20
0.0
 30
0.0
  9
$UCSORGBACK
 10
0.0
 20
0.0
 30
0.0
  9
$PUCSBASE
  2

  9
$PUCSNAME
  2

  9
$PUCSORG
 10
0.0
 20
0.0
 30
0.0
  9
$PUCSXDIR
 10
1.0
 20
0.0
 30
0.0
  9
$PUCSYDIR
 10
0.0
 20
1.0
 30
0.0
  9
$PUCSORTHOREF
  2

  9
$PUCSORTHOVIEW
 70
     0
  9
$PUCSORGTOP
 10
0.0
 20
0.0
 30
0.0
  9
$PUCSORGBOTTOM
 10
0.0
 20
0.0
 30
0.0
  9
$PUCSORGLEFT
 10
0.0
 20
0.0
 30
0.0
  9
$PUCSORGRIGHT
 10
0.0
 20
0.0
 30
0.0
  9
$PUCSORGFRONT
 10
0.0
 20
0.0
 30
0.0
  9
$PUCSORGBACK
 10
0.0
 20
0.0
 30
0.0
  9
$USERI1
 70
     0
  9
$USERI2
 70
     0
  9
$USERI3
 70
     0
  9
$USERI4
 70
     0
  9
$USERI5
 70
     0
  9
$USERR1
 40
0.0
  9
$USERR2
 40
0.0
  9
$USERR3
 40
0.0
  9
$USERR4
 40
0.0
  9
$USERR5
 40
0.0
  9
$WORLDVIEW
 70
     1
  9
$SHADEDGE
 70
     3
  9
$SHADEDIF
 70
    70
  9
$TILEMODE
 70
     1
  9
$MAXACTVP
 70
    64
  9
$PINSBASE
 10
0.0
 20
0.0
 30
0.0
  9
$PLIMCHECK
 70
     0
  9
$PEXTMIN
 10
1.000000000000000E+20
 20
1.000000000000000E+20
 30
1.000000000000000E+20
  9
$PEXTMAX
 10
-1.000000000000000E+20
 20
-1.000000000000000E+20
 30
-1.000000000000000E+20
  9
$PLIMMIN
 10
0.0
 20
0.0
  9
$PLIMMAX
 10
12.0
 20
9.0
  9
$UNITMODE
 70
     0
  9
$VISRETAIN
 70
     1
  9
$PLINEGEN
 70
     0
  9
$PSLTSCALE
 70
     1
  9
$TREEDEPTH
 70
  3020
  9
$CMLSTYLE
  2
Standard
  9
$CMLJUST
 70
     0
  9
$CMLSCALE
 40
1.0
  9
$PROXYGRAPHICS
 70
     1
  9
$MEASUREMENT
 70
     0
  9
$CELWEIGHT
370
    -1
  9
$ENDCAPS
280
     0
  9
$JOINSTYLE
280
     0
  9
$LWDISPLAY
290
     0
  9
$INSUNITS
 70
     5
  9
$HYPERLINKBASE
  1

  9
$STYLESHEET
  1

  9
$XEDIT
290
     1
  9
$CEPSNTYPE
380
     0
  9
$PSTYLEMODE
290
     1
  9
$FINGERPRINTGUID
  2
{14560684-4AC8-4726-B7EB-A0C8C17EE54C}
  9
$VERSIONGUID
  2
{FAEB1C32-E019-11D5-929B-00C0DF256EC4}
  9
$EXTNAMES
290
     1
  9
$PSVPSCALE
 40
0.0
  9
$OLESTARTUP
290
     0
  9
$SORTENTS
280
   127
  9
$INDEXCTL
280
     0
  9
$HIDETEXT
280
     1
  9
$XCLIPFRAME
290
     0
  9
$HALOGAP
280
     0
  9
$OBSCOLOR
 70
   257
  9
$OBSLTYPE
280
     0
  9
$INTERSECTIONDISPLAY
280
     0
  9
$INTERSECTIONCOLOR
 70
   257
  9
$DIMASSOC
280
     2
  9
$PROJECTNAME
  1

  9
$CAMERADISPLAY
290
     0
  9
$LENSLENGTH
 40
50.0
  9
$CAMERAHEIGHT
 40
0.0
  9
$STEPSPERSEC
 40
2.0
  9
$STEPSIZE
 40
6.0
  9
$3DDWFPREC
 40
2.0
  9
$PSOLWIDTH
 40
0.25
  9
$PSOLHEIGHT
 40
4.0
  9
$LOFTANG1
 40
1.570796326794897
  9
$LOFTANG2
 40
1.570796326794897
  9
$LOFTMAG1
 40
0.0
  9
$LOFTMAG2
 40
0.0
  9
$LOFTPARAM
 70
     7
  9
$LOFTNORMALS
280
     1
  9
$LATITUDE
 40
37.795
  9
$LONGITUDE
 40
-122.394
  9
$NORTHDIRECTION
 40
0.0
  9
$TIMEZONE
 70
 -8000
  9
$LIGHTGLYPHDISPLAY
280
     1
  9
$TILEMODELIGHTSYNCH
280
     1
  9
$SOLIDHIST
280
     1
  9
$SHOWHIST
280
     1
  9
$DWFFRAME
280
     2
  9
$DGNFRAME
280
     2
  9
$REALWORLDSCALE
290
     1
  9
$INTERFERECOLOR
 62
   256
  9
$CSHADOW
280
     0
  9
$SHADOWPLANELOCATION
 40
0.0
  0
ENDSEC
  0
SECTION
  2
CLASSES
  0
CLASS
  1
ACDBDICTIONARYWDFLT
  2
AcDbDictionaryWithDefault
  3
ObjectDBX Classes
 90
        0
 91
        3
280
     0
281
     0
  0
CLASS
  1
VISUALSTYLE
  2
AcDbVisualStyle
  3
ObjectDBX Classes
 90
     4095
 91
        3
280
     0
281
     0
  0
CLASS
  1
SCALE
  2
AcDbScale
  3
ObjectDBX Classes
 90
     1153
 91
        3
280
     0
281
     0
  0
ENDSEC
  0
SECTION
  2
TABLES
  0
TABLE
  2
VPORT
  5
8
330
0
100
AcDbSymbolTable
 70
     1
  0
VPORT
  5
29
330
8
100
AcDbSymbolTableRecord
100
AcDbViewportTableRecord
  2
*Active
 70
     0
 10
0.0
 20
0.0
 11
1.0
 21
1.0
 12
10.42990654205607
 22
4.5
 13
0.0
 23
0.0
 14
0.5
 24
0.5
 15
0.5
 25
0.5
 16
0.0
 26
0.0
 36
1.0
 17
0.0
 27
0.0
 37
0.0
 40
9.0
 41
1.972972972850329
 42
50.0
 43
0.0
 44
0.0
 50
0.0
 51
0.0
 71
     0
 72
   100
 73
     1
 74
     3
 75
     0
 76
     0
 77
     0
 78
     0
281
     0
 65
     1
110
0.0
120
0.0
130
0.0
111
1.0
121
0.0
131
0.0
112
0.0
122
1.0
132
0.0
 79
     0
146
0.0
 60
     3
 61
     5
292
     1
282
     1
141
0.0
142
0.0
 63
   256
  0
ENDTAB
  0
TABLE
  2
LTYPE
  5
5
330
0
100
AcDbSymbolTable
 70
     1
  0
LTYPE
  5
14
330
5
100
AcDbSymbolTableRecord
100
AcDbLinetypeTableRecord
  2
ByBlock
 70
     0
  3

 72
    65
 73
     0
 40
0.0
  0
LTYPE
  5
15
330
5
100
AcDbSymbolTableRecord
100
AcDbLinetypeTableRecord
  2
ByLayer
 70
     0
  3

 72
    65
 73
     0
 40
0.0
  0
LTYPE
  5
16
330
5
100
AcDbSymbolTableRecord
100
AcDbLinetypeTableRecord
  2
Continuous
 70
     0
  3
Solid line
 72
    65
 73
     0
 40
0.0
  0
ENDTAB
  0
TABLE
  2
LAYER
  5
2
330
0
100
AcDbSymbolTable
 70
     2
  0
LAYER
  5
10
330
2
100
AcDbSymbolTableRecord
100
AcDbLayerTableRecord
  2
0
 70
     0
 62
     7
  6
Continuous
370
    -3
390
F
347
0
  0
LAYER
  5
5E
330
2
100
AcDbSymbolTableRecord
100
AcDbLayerTableRecord
  2
Layer 1
 70
     0
 62
     7
  6
Continuous
370
    -3
390
F
347
0
  0
ENDTAB
  0
TABLE
  2
STYLE
  5
3
330
0
100
AcDbSymbolTable
 70
     1
  0
STYLE
  5
11
330
3
100
AcDbSymbolTableRecord
100
AcDbTextStyleTableRecord
  2
Standard
 70
     0
 40
0.0
 41
1.0
 50
0.0
 71
     0
 42
0.2
  3
txt
  4

  0
ENDTAB
  0
TABLE
  2
VIEW
  5
6
330
0
100
AcDbSymbolTable
 70
     0
  0
ENDTAB
  0
TABLE
  2
UCS
  5
7
330
0
100
AcDbSymbolTable
 70
     0
  0
ENDTAB
  0
TABLE
  2
APPID
  5
9
330
0
100
AcDbSymbolTable
 70
     2
  0
APPID
  5
12
330
9
100
AcDbSymbolTableRecord
100
AcDbRegAppTableRecord
  2
ACAD
 70
     0
  0
APPID
  5
5D
330
9
100
AcDbSymbolTableRecord
100
AcDbRegAppTableRecord
  2
ODA
 70
     0
  0
ENDTAB
  0
TABLE
  2
DIMSTYLE
  5
A
330
0
100
AcDbSymbolTable
 70
     1
100
AcDbDimStyleTable
  0
DIMSTYLE
105
27
330
A
100
AcDbSymbolTableRecord
100
AcDbDimStyleTableRecord
  2
Standard
 70
     0
340
11
  0
ENDTAB
  0
TABLE
  2
BLOCK_RECORD
  5
1
330
0
100
AcDbSymbolTable
 70
     1
  0
BLOCK_RECORD
  5
1F
330
1
100
AcDbSymbolTableRecord
100
AcDbBlockTableRecord
  2
*Model_Space
340
22
 70
     0
280
     1
281
     0
  0
BLOCK_RECORD
  5
1B
330
1
100
AcDbSymbolTableRecord
100
AcDbBlockTableRecord
  2
*Paper_Space
340
1E
 70
     0
280
     1
281
     0
  0
BLOCK_RECORD
  5
23
330
1
100
AcDbSymbolTableRecord
100
AcDbBlockTableRecord
  2
*Paper_Space0
340
26
 70
     0
280
     1
281
     0
  0
ENDTAB
  0
ENDSEC
  0
SECTION
  2
BLOCKS
  0
BLOCK
  5
20
330
1F
100
AcDbEntity
  8
0
100
AcDbBlockBegin
  2
*Model_Space
 70
     0
 10
0.0
 20
0.0
 30
0.0
  3
*Model_Space
  1

  0
ENDBLK
  5
21
330
1F
100
AcDbEntity
  8
0
100
AcDbBlockEnd
  0
BLOCK
  5
1C
330
1B
100
AcDbEntity
 67
     1
  8
0
100
AcDbBlockBegin
  2
*Paper_Space
 70
     0
 10
0.0
 20
0.0
 30
0.0
  3
*Paper_Space
  1

  0
ENDBLK
  5
1D
330
1B
100
AcDbEntity
 67
     1
  8
0
100
AcDbBlockEnd
  0
BLOCK
  5
24
330
23
100
AcDbEntity
  8
0
100
AcDbBlockBegin
  2
*Paper_Space0
 70
     0
 10
0.0
 20
0.0
 30
0.0
  3
*Paper_Space0
  1

  0
ENDBLK
  5
25
330
23
100
AcDbEntity
  8
0
100
AcDbBlockEnd
  0
ENDSEC
  0
SECTION
  2
ENTITIES
  0
ELLIPSE
  5
5F
330
1F
100
AcDbEntity
  8
Layer 1
 62
   250
370
    53
100
AcDbEllipse
 10
-10.5
 20
-14.85003
 30
0.0
 11
0.0
 21
5.65
 31
0.0
210
0.0
220
0.0
230
1.0
 40
1.0
 41
0.0
 42
6.283185307179586
  0
SPLINE
  5
60
330
1F
100
AcDbEntity
  8
Layer 1
370
    53
100
AcDbSpline
210
0.0
220
0.0
230
1.0
 70
    11
 71
     3
 72
    20
 73
    16
 74
     0
 42
0.0000000001
 43
0.0000000001
 40
0.0
 40
0.0
 40
0.0
 40
0.0
 40
0.25
 40
0.25
 40
0.25
 40
0.25
 40
0.5
 40
0.5
 40
0.5
 40
0.5
 40
0.75
 40
0.75
 40
0.75
 40
0.75
 40
1.0
 40
1.0
 40
1.0
 40
1.0
 10
-14.1999
 20
-16.85007
 30
0.0
 10
-14.1999
 20
-17.0157
 30
0.0
 10
-14.33427
 20
-17.15008
 30
0.0
 10
-14.4999
 20
-17.15008
 30
0.0
 10
-14.4999
 20
-17.15008
 30
0.0
 10
-14.66567
 20
-17.15008
 30
0.0
 10
-14.7999
 20
-17.0157
 30
0.0
 10
-14.7999
 20
-16.85007
 30
0.0
 10
-14.7999
 20
-16.85007
 30
0.0
 10
-14.7999
 20
-16.6843
 30
0.0
 10
-14.66567
 20
-16.55007
 30
0.0
 10
-14.4999
 20
-16.55007
 30
0.0
 10
-14.4999
 20
-16.55007
 30
0.0
 10
-14.33427
 20
-16.55007
 30
0.0
 10
-14.1999
 20
-16.6843
 30
0.0
 10
-14.1999
 20
-16.85007
 30
0.0
  0
SPLINE
  5
61
330
1F
100
AcDbEntity
  8
Layer 1
370
    53
100
AcDbSpline
210
0.0
220
0.0
230
1.0
 70
    11
 71
     3
 72
    20
 73
    16
 74
     0
 42
0.0000000001
 43
0.0000000001
 40
0.0
 40
0.0
 40
0.0
 40
0.0
 40
0.25
 40
0.25
 40
0.25
 40
0.25
 40
0.5
 40
0.5
 40
0.5
 40
0.5
 40
0.75
 40
0.75
 40
0.75
 40
0.75
 40
1.0
 40
1.0
 40
1.0
 40
1.0
 10
-14.1999
 20
-14.85
 30
0.0
 10
-14.1999
 20
-15.01577
 30
0.0
 10
-14.33427
 20
-15.15
 30
0.0
 10
-14.4999
 20
-15.15
 30
0.0
 10
-14.4999
 20
-15.15
 30
0.0
 10
-14.66567
 20
-15.15
 30
0.0
 10
-14.7999
 20
-15.01577
 30
0.0
 10
-14.7999
 20
-14.85
 30
0.0
 10
-14.7999
 20
-14.85
 30
0.0
 10
-14.7999
 20
-14.68434
 30
0.0
 10
-14.66567
 20
-14.55
 30
0.0
 10
-14.4999
 20
-14.55
 30
0.0
 10
-14.4999
 20
-14.55
 30
0.0
 10
-14.33427
 20
-14.55
 30
0.0
 10
-14.1999
 20
-14.68434
 30
0.0
 10
-14.1999
 20
-14.85
 30
0.0
  0
SPLINE
  5
62
330
1F
100
AcDbEntity
  8
Layer 1
370
    53
100
AcDbSpline
210
0.0
220
0.0
230
1.0
 70
    11
 71
     3
 72
    20
 73
    16
 74
     0
 42
0.0000000001
 43
0.0000000001
 40
0.0
 40
0.0
 40
0.0
 40
0.0
 40
0.25
 40
0.25
 40
0.25
 40
0.25
 40
0.5
 40
0.5
 40
0.5
 40
0.5
 40
0.75
 40
0.75
 40
0.75
 40
0.75
 40
1.0
 40
1.0
 40
1.0
 40
1.0
 10
-14.1999
 20
-12.85003
 30
0.0
 10
-14.1999
 20
-13.0157
 30
0.0
 10
-14.33427
 20
-13.15003
 30
0.0
 10
-14.4999
 20
-13.15003
 30
0.0
 10
-14.4999
 20
-13.15003
 30
0.0
 10
-14.66567
 20
-13.15003
 30
0.0
 10
-14.7999
 20
-13.0157
 30
0.0
 10
-14.7999
 20
-12.85003
 30
0.0
 10
-14.7999
 20
-12.85003
 30
0.0
 10
-14.7999
 20
-12.6844
 30
0.0
 10
-14.66567
 20
-12.55003
 30
0.0
 10
-14.4999
 20
-12.55003
 30
0.0
 10
-14.4999
 20
-12.55003
 30
0.0
 10
-14.33427
 20
-12.55003
 30
0.0
 10
-14.1999
 20
-12.6844
 30
0.0
 10
-14.1999
 20
-12.85003
 30
0.0
  0
SPLINE
  5
63
330
1F
100
AcDbEntity
  8
Layer 1
370
    53
100
AcDbSpline
210
0.0
220
0.0
230
1.0
 70
    11
 71
     3
 72
    20
 73
    16
 74
     0
 42
0.0000000001
 43
0.0000000001
 40
0.0
 40
0.0
 40
0.0
 40
0.0
 40
0.25
 40
0.25
 40
0.25
 40
0.25
 40
0.5
 40
0.5
 40
0.5
 40
0.5
 40
0.75
 40
0.75
 40
0.75
 40
0.75
 40
1.0
 40
1.0
 40
1.0
 40
1.0
 10
-12.19997
 20
-18.85004
 30
0.0
 10
-12.19997
 20
-19.01567
 30
0.0
 10
-12.3343
 20
-19.15001
 30
0.0
 10
-12.49997
 20
-19.15001
 30
0.0
 10
-12.49997
 20
-19.15001
 30
0.0
 10
-12.6656
 20
-19.15001
 30
0.0
 10
-12.79997
 20
-19.01567
 30
0.0
 10
-12.79997
 20
-18.85004
 30
0.0
 10
-12.79997
 20
-18.85004
 30
0.0
 10
-12.79997
 20
-18.68438
 30
0.0
 10
-12.6656
 20
-18.55004
 30
0.0
 10
-12.49997
 20
-18.55004
 30
0.0
 10
-12.49997
 20
-18.55004
 30
0.0
 10
-12.3343
 20
-18.55004
 30
0.0
 10
-12.19997
 20
-18.68438
 30
0.0
 10
-12.19997
 20
-18.85004
 30
0.0
  0
SPLINE
  5
64
330
1F
100
AcDbEntity
  8
Layer 1
370
    53
100
AcDbSpline
210
0.0
220
0.0
230
1.0
 70
    11
 71
     3
 72
    20
 73
    16
 74
     0
 42
0.0000000001
 43
0.0000000001
 40
0.0
 40
0.0
 40
0.0
 40
0.0
 40
0.25
 40
0.25
 40
0.25
 40
0.25
 40
0.5
 40
0.5
 40
0.5
 40
0.5
 40
0.75
 40
0.75
 40
0.75
 40
0.75
 40
1.0
 40
1.0
 40
1.0
 40
1.0
 10
-12.19997
 20
-16.85007
 30
0.0
 10
-12.19997
 20
-17.0157
 30
0.0
 10
-12.3343
 20
-17.15008
 30
0.0
 10
-12.49997
 20
-17.15008
 30
0.0
 10
-12.49997
 20
-17.15008
 30
0.0
 10
-12.6656
 20
-17.15008
 30
0.0
 10
-12.79997
 20
-17.0157
 30
0.0
 10
-12.79997
 20
-16.85007
 30
0.0
 10
-12.79997
 20
-16.85007
 30
0.0
 10
-12.79997
 20
-16.6843
 30
0.0
 10
-12.6656
 20
-16.55007
 30
0.0
 10
-12.49997
 20
-16.55007
 30
0.0
 10
-12.49997
 20
-16.55007
 30
0.0
 10
-12.3343
 20
-16.55007
 30
0.0
 10
-12.19997
 20
-16.6843
 30
0.0
 10
-12.19997
 20
-16.85007
 30
0.0
  0
SPLINE
  5
65
330
1F
100
AcDbEntity
  8
Layer 1
370
    53
100
AcDbSpline
210
0.0
220
0.0
230
1.0
 70
    11
 71
     3
 72
    20
 73
    16
 74
     0
 42
0.0000000001
 43
0.0000000001
 40
0.0
 40
0.0
 40
0.0
 40
0.0
 40
0.25
 40
0.25
 40
0.25
 40
0.25
 40
0.5
 40
0.5
 40
0.5
 40
0.5
 40
0.75
 40
0.75
 40
0.75
 40
0.75
 40
1.0
 40
1.0
 40
1.0
 40
1.0
 10
-12.19997
 20
-14.85
 30
0.0
 10
-12.19997
 20
-15.01577
 30
0.0
 10
-12.3343
 20
-15.15
 30
0.0
 10
-12.49997
 20
-15.15
 30
0.0
 10
-12.49997
 20
-15.15
 30
0.0
 10
-12.6656
 20
-15.15
 30
0.0
 10
-12.79997
 20
-15.01577
 30
0.0
 10
-12.79997
 20
-14.85
 30
0.0
 10
-12.79997
 20
-14.85
 30
0.0
 10
-12.79997
 20
-14.68434
 30
0.0
 10
-12.6656
 20
-14.55
 30
0.0
 10
-12.49997
 20
-14.55
 30
0.0
 10
-12.49997
 20
-14.55
 30
0.0
 10
-12.3343
 20
-14.55
 30
0.0
 10
-12.19997
 20
-14.68434
 30
0.0
 10
-12.19997
 20
-14.85
 30
0.0
  0
SPLINE
  5
66
330
1F
100
AcDbEntity
  8
Layer 1
370
    53
100
AcDbSpline
210
0.0
220
0.0
230
1.0
 70
    11
 71
     3
 72
    20
 73
    16
 74
     0
 42
0.0000000001
 43
0.0000000001
 40
0.0
 40
0.0
 40
0.0
 40
0.0
 40
0.25
 40
0.25
 40
0.25
 40
0.25
 40
0.5
 40
0.5
 40
0.5
 40
0.5
 40
0.75
 40
0.75
 40
0.75
 40
0.75
 40
1.0
 40
1.0
 40
1.0
 40
1.0
 10
-12.19997
 20
-12.85003
 30
0.0
 10
-12.19997
 20
-13.0157
 30
0.0
 10
-12.3343
 20
-13.15003
 30
0.0
 10
-12.49997
 20
-13.15003
 30
0.0
 10
-12.49997
 20
-13.15003
 30
0.0
 10
-12.6656
 20
-13.15003
 30
0.0
 10
-12.79997
 20
-13.0157
 30
0.0
 10
-12.79997
 20
-12.85003
 30
0.0
 10
-12.79997
 20
-12.85003
 30
0.0
 10
-12.79997
 20
-12.6844
 30
0.0
 10
-12.6656
 20
-12.55003
 30
0.0
 10
-12.49997
 20
-12.55003
 30
0.0
 10
-12.49997
 20
-12.55003
 30
0.0
 10
-12.3343
 20
-12.55003
 30
0.0
 10
-12.19997
 20
-12.6844
 30
0.0
 10
-12.19997
 20
-12.85003
 30
0.0
  0
SPLINE
  5
67
330
1F
100
AcDbEntity
  8
Layer 1
370
    53
100
AcDbSpline
210
0.0
220
0.0
230
1.0
 70
    11
 71
     3
 72
    20
 73
    16
 74
     0
 42
0.0000000001
 43
0.0000000001
 40
0.0
 40
0.0
 40
0.0
 40
0.0
 40
0.25
 40
0.25
 40
0.25
 40
0.25
 40
0.5
 40
0.5
 40
0.5
 40
0.5
 40
0.75
 40
0.75
 40
0.75
 40
0.75
 40
1.0
 40
1.0
 40
1.0
 40
1.0
 10
-12.19997
 20
-10.8501
 30
0.0
 10
-12.19997
 20
-11.01573
 30
0.0
 10
-12.3343
 20
-11.1501
 30
0.0
 10
-12.49997
 20
-11.1501
 30
0.0
 10
-12.49997
 20
-11.1501
 30
0.0
 10
-12.6656
 20
-11.1501
 30
0.0
 10
-12.79997
 20
-11.01573
 30
0.0
 10
-12.79997
 20
-10.8501
 30
0.0
 10
-12.79997
 20
-10.8501
 30
0.0
 10
-12.79997
 20
-10.68433
 30
0.0
 10
-12.6656
 20
-10.5501
 30
0.0
 10
-12.49997
 20
-10.5501
 30
0.0
 10
-12.49997
 20
-10.5501
 30
0.0
 10
-12.3343
 20
-10.5501
 30
0.0
 10
-12.19997
 20
-10.68433
 30
0.0
 10
-12.19997
 20
-10.8501
 30
0.0
  0
SPLINE
  5
68
330
1F
100
AcDbEntity
  8
Layer 1
370
    53
100
AcDbSpline
210
0.0
220
0.0
230
1.0
 70
    11
 71
     3
 72
    20
 73
    16
 74
     0
 42
0.0000000001
 43
0.0000000001
 40
0.0
 40
0.0
 40
0.0
 40
0.0
 40
0.25
 40
0.25
 40
0.25
 40
0.25
 40
0.5
 40
0.5
 40
0.5
 40
0.5
 40
0.75
 40
0.75
 40
0.75
 40
0.75
 40
1.0
 40
1.0
 40
1.0
 40
1.0
 10
-10.2
 20
-18.85004
 30
0.0
 10
-10.2
 20
-19.01567
 30
0.0
 10
-10.33423
 20
-19.15001
 30
0.0
 10
-10.5
 20
-19.15001
 30
0.0
 10
-10.5
 20
-19.15001
 30
0.0
 10
-10.66567
 20
-19.15001
 30
0.0
 10
-10.8
 20
-19.01567
 30
0.0
 10
-10.8
 20
-18.85004
 30
0.0
 10
-10.8
 20
-18.85004
 30
0.0
 10
-10.8
 20
-18.68438
 30
0.0
 10
-10.66567
 20
-18.55004
 30
0.0
 10
-10.5
 20
-18.55004
 30
0.0
 10
-10.5
 20
-18.55004
 30
0.0
 10
-10.33423
 20
-18.55004
 30
0.0
 10
-10.2
 20
-18.68438
 30
0.0
 10
-10.2
 20
-18.85004
 30
0.0
  0
SPLINE
  5
69
330
1F
100
AcDbEntity
  8
Layer 1
370
    53
100
AcDbSpline
210
0.0
220
0.0
230
1.0
 70
    11
 71
     3
 72
    20
 73
    16
 74
     0
 42
0.0000000001
 43
0.0000000001
 40
0.0
 40
0.0
 40
0.0
 40
0.0
 40
0.25
 40
0.25
 40
0.25
 40
0.25
 40
0.5
 40
0.5
 40
0.5
 40
0.5
 40
0.75
 40
0.75
 40
0.75
 40
0.75
 40
1.0
 40
1.0
 40
1.0
 40
1.0
 10
-10.2
 20
-16.85007
 30
0.0
 10
-10.2
 20
-17.0157
 30
0.0
 10
-10.33423
 20
-17.15008
 30
0.0
 10
-10.5
 20
-17.15008
 30
0.0
 10
-10.5
 20
-17.15008
 30
0.0
 10
-10.66567
 20
-17.15008
 30
0.0
 10
-10.8
 20
-17.0157
 30
0.0
 10
-10.8
 20
-16.85007
 30
0.0
 10
-10.8
 20
-16.85007
 30
0.0
 10
-10.8
 20
-16.6843
 30
0.0
 10
-10.66567
 20
-16.55007
 30
0.0
 10
-10.5
 20
-16.55007
 30
0.0
 10
-10.5
 20
-16.55007
 30
0.0
 10
-10.33423
 20
-16.55007
 30
0.0
 10
-10.2
 20
-16.6843
 30
0.0
 10
-10.2
 20
-16.85007
 30
0.0
  0
SPLINE
  5
6A
330
1F
100
AcDbEntity
  8
Layer 1
370
    53
100
AcDbSpline
210
0.0
220
0.0
230
1.0
 70
    11
 71
     3
 72
    20
 73
    16
 74
     0
 42
0.0000000001
 43
0.0000000001
 40
0.0
 40
0.0
 40
0.0
 40
0.0
 40
0.25
 40
0.25
 40
0.25
 40
0.25
 40
0.5
 40
0.5
 40
0.5
 40
0.5
 40
0.75
 40
0.75
 40
0.75
 40
0.75
 40
1.0
 40
1.0
 40
1.0
 40
1.0
 10
-10.2
 20
-12.85003
 30
0.0
 10
-10.2
 20
-13.0157
 30
0.0
 10
-10.33423
 20
-13.15003
 30
0.0
 10
-10.5
 20
-13.15003
 30
0.0
 10
-10.5
 20
-13.15003
 30
0.0
 10
-10.66567
 20
-13.15003
 30
0.0
 10
-10.8
 20
-13.0157
 30
0.0
 10
-10.8
 20
-12.85003
 30
0.0
 10
-10.8
 20
-12.85003
 30
0.0
 10
-10.8
 20
-12.6844
 30
0.0
 10
-10.66567
 20
-12.55003
 30
0.0
 10
-10.5
 20
-12.55003
 30
0.0
 10
-10.5
 20
-12.55003
 30
0.0
 10
-10.33423
 20
-12.55003
 30
0.0
 10
-10.2
 20
-12.6844
 30
0.0
 10
-10.2
 20
-12.85003
 30
0.0
  0
SPLINE
  5
6B
330
1F
100
AcDbEntity
  8
Layer 1
370
    53
100
AcDbSpline
210
0.0
220
0.0
230
1.0
 70
    11
 71
     3
 72
    20
 73
    16
 74
     0
 42
0.0000000001
 43
0.0000000001
 40
0.0
 40
0.0
 40
0.0
 40
0.0
 40
0.25
 40
0.25
 40
0.25
 40
0.25
 40
0.5
 40
0.5
 40
0.5
 40
0.5
 40
0.75
 40
0.75
 40
0.75
 40
0.75
 40
1.0
 40
1.0
 40
1.0
 40
1.0
 10
-10.2
 20
-10.8501
 30
0.0
 10
-10.2
 20
-11.01573
 30
0.0
 10
-10.33423
 20
-11.1501
 30
0.0
 10
-10.5
 20
-11.1501
 30
0.0
 10
-10.5
 20
-11.1501
 30
0.0
 10
-10.66567
 20
-11.1501
 30
0.0
 10
-10.8
 20
-11.01573
 30
0.0
 10
-10.8
 20
-10.8501
 30
0.0
 10
-10.8
 20
-10.8501
 30
0.0
 10
-10.8
 20
-10.68433
 30
0.0
 10
-10.66567
 20
-10.5501
 30
0.0
 10
-10.5
 20
-10.5501
 30
0.0
 10
-10.5
 20
-10.5501
 30
0.0
 10
-10.33423
 20
-10.5501
 30
0.0
 10
-10.2
 20
-10.68433
 30
0.0
 10
-10.2
 20
-10.8501
 30
0.0
  0
SPLINE
  5
6C
330
1F
100
AcDbEntity
  8
Layer 1
370
    53
100
AcDbSpline
210
0.0
220
0.0
230
1.0
 70
    11
 71
     3
 72
    20
 73
    16
 74
     0
 42
0.0000000001
 43
0.0000000001
 40
0.0
 40
0.0
 40
0.0
 40
0.0
 40
0.25
 40
0.25
 40
0.25
 40
0.25
 40
0.5
 40
0.5
 40
0.5
 40
0.5
 40
0.75
 40
0.75
 40
0.75
 40
0.75
 40
1.0
 40
1.0
 40
1.0
 40
1.0
 10
-8.19993
 20
-18.85004
 30
0.0
 10
-8.19993
 20
-19.01567
 30
0.0
 10
-8.3343
 20
-19.15001
 30
0.0
 10
-8.49993
 20
-19.15001
 30
0.0
 10
-8.49993
 20
-19.15001
 30
0.0
 10
-8.6657
 20
-19.15001
 30
0.0
 10
-8.79993
 20
-19.01567
 30
0.0
 10
-8.79993
 20
-18.85004
 30
0.0
 10
-8.79993
 20
-18.85004
 30
0.0
 10
-8.79993
 20
-18.68438
 30
0.0
 10
-8.6657
 20
-18.55004
 30
0.0
 10
-8.49993
 20
-18.55004
 30
0.0
 10
-8.49993
 20
-18.55004
 30
0.0
 10
-8.3343
 20
-18.55004
 30
0.0
 10
-8.19993
 20
-18.68438
 30
0.0
 10
-8.19993
 20
-18.85004
 30
0.0
  0
SPLINE
  5
6D
330
1F
100
AcDbEntity
  8
Layer 1
370
    53
100
AcDbSpline
210
0.0
220
0.0
230
1.0
 70
    11
 71
     3
 72
    20
 73
    16
 74
     0
 42
0.0000000001
 43
0.0000000001
 40
0.0
 40
0.0
 40
0.0
 40
0.0
 40
0.25
 40
0.25
 40
0.25
 40
0.25
 40
0.5
 40
0.5
 40
0.5
 40
0.5
 40
0.75
 40
0.75
 40
0.75
 40
0.75
 40
1.0
 40
1.0
 40
1.0
 40
1.0
 10
-8.19993
 20
-16.85007
 30
0.0
 10
-8.19993
 20
-17.0157
 30
0.0
 10
-8.3343
 20
-17.15008
 30
0.0
 10
-8.49993
 20
-17.15008
 30
0.0
 10
-8.49993
 20
-17.15008
 30
0.0
 10
-8.6657
 20
-17.15008
 30
0.0
 10
-8.79993
 20
-17.0157
 30
0.0
 10
-8.79993
 20
-16.85007
 30
0.0
 10
-8.79993
 20
-16.85007
 30
0.0
 10
-8.79993
 20
-16.6843
 30
0.0
 10
-8.6657
 20
-16.55007
 30
0.0
 10
-8.49993
 20
-16.55007
 30
0.0
 10
-8.49993
 20
-16.55007
 30
0.0
 10
-8.3343
 20
-16.55007
 30
0.0
 10
-8.19993
 20
-16.6843
 30
0.0
 10
-8.19993
 20
-16.85007
 30
0.0
  0
SPLINE
  5
6E
330
1F
100
AcDbEntity
  8
Layer 1
370
    53
100
AcDbSpline
210
0.0
220
0.0
230
1.0
 70
    11
 71
     3
 72
    20
 73
    16
 74
     0
 42
0.0000000001
 43
0.0000000001
 40
0.0
 40
0.0
 40
0.0
 40
0.0
 40
0.25
 40
0.25
 40
0.25
 40
0.25
 40
0.5
 40
0.5
 40
0.5
 40
0.5
 40
0.75
 40
0.75
 40
0.75
 40
0.75
 40
1.0
 40
1.0
 40
1.0
 40
1.0
 10
-8.19993
 20
-14.85
 30
0.0
 10
-8.19993
 20
-15.01577
 30
0.0
 10
-8.3343
 20
-15.15
 30
0.0
 10
-8.49993
 20
-15.15
 30
0.0
 10
-8.49993
 20
-15.15
 30
0.0
 10
-8.6657
 20
-15.15
 30
0.0
 10
-8.79993
 20
-15.01577
 30
0.0
 10
-8.79993
 20
-14.85
 30
0.0
 10
-8.79993
 20
-14.85
 30
0.0
 10
-8.79993
 20
-14.68434
 30
0.0
 10
-8.6657
 20
-14.55
 30
0.0
 10
-8.49993
 20
-14.55
 30
0.0
 10
-8.49993
 20
-14.55
 30
0.0
 10
-8.3343
 20
-14.55
 30
0.0
 10
-8.19993
 20
-14.68434
 30
0.0
 10
-8.19993
 20
-14.85
 30
0.0
  0
SPLINE
  5
6F
330
1F
100
AcDbEntity
  8
Layer 1
370
    53
100
AcDbSpline
210
0.0
220
0.0
230
1.0
 70
    11
 71
     3
 72
    20
 73
    16
 74
     0
 42
0.0000000001
 43
0.0000000001
 40
0.0
 40
0.0
 40
0.0
 40
0.0
 40
0.25
 40
0.25
 40
0.25
 40
0.25
 40
0.5
 40
0.5
 40
0.5
 40
0.5
 40
0.75
 40
0.75
 40
0.75
 40
0.75
 40
1.0
 40
1.0
 40
1.0
 40
1.0
 10
-8.19993
 20
-12.85003
 30
0.0
 10
-8.19993
 20
-13.0157
 30
0.0
 10
-8.3343
 20
-13.15003
 30
0.0
 10
-8.49993
 20
-13.15003
 30
0.0
 10
-8.49993
 20
-13.15003
 30
0.0
 10
-8.6657
 20
-13.15003
 30
0.0
 10
-8.79993
 20
-13.0157
 30
0.0
 10
-8.79993
 20
-12.85003
 30
0.0
 10
-8.79993
 20
-12.85003
 30
0.0
 10
-8.79993
 20
-12.6844
 30
0.0
 10
-8.6657
 20
-12.55003
 30
0.0
 10
-8.49993
 20
-12.55003
 30
0.0
 10
-8.49993
 20
-12.55003
 30
0.0
 10
-8.3343
 20
-12.55003
 30
0.0
 10
-8.19993
 20
-12.6844
 30
0.0
 10
-8.19993
 20
-12.85003
 30
0.0
  0
SPLINE
  5
70
330
1F
100
AcDbEntity
  8
Layer 1
370
    53
100
AcDbSpline
210
0.0
220
0.0
230
1.0
 70
    11
 71
     3
 72
    20
 73
    16
 74
     0
 42
0.0000000001
 43
0.0000000001
 40
0.0
 40
0.0
 40
0.0
 40
0.0
 40
0.25
 40
0.25
 40
0.25
 40
0.25
 40
0.5
 40
0.5
 40
0.5
 40
0.5
 40
0.75
 40
0.75
 40
0.75
 40
0.75
 40
1.0
 40
1.0
 40
1.0
 40
1.0
 10
-8.19993
 20
-10.8501
 30
0.0
 10
-8.19993
 20
-11.01573
 30
0.0
 10
-8.3343
 20
-11.1501
 30
0.0
 10
-8.49993
 20
-11.1501
 30
0.0
 10
-8.49993
 20
-11.1501
 30
0.0
 10
-8.6657
 20
-11.1501
 30
0.0
 10
-8.79993
 20
-11.01573
 30
0.0
 10
-8.79993
 20
-10.8501
 30
0.0
 10
-8.79993
 20
-10.8501
 30
0.0
 10
-8.79993
 20
-10.68433
 30
0.0
 10
-8.6657
 20
-10.5501
 30
0.0
 10
-8.49993
 20
-10.5501
 30
0.0
 10
-8.49993
 20
-10.5501
 30
0.0
 10
-8.3343
 20
-10.5501
 30
0.0
 10
-8.19993
 20
-10.68433
 30
0.0
 10
-8.19993
 20
-10.8501
 30
0.0
  0
SPLINE
  5
71
330
1F
100
AcDbEntity
  8
Layer 1
370
    53
100
AcDbSpline
210
0.0
220
0.0
230
1.0
 70
    11
 71
     3
 72
    20
 73
    16
 74
     0
 42
0.0000000001
 43
0.0000000001
 40
0.0
 40
0.0
 40
0.0
 40
0.0
 40
0.25
 40
0.25
 40
0.25
 40
0.25
 40
0.5
 40
0.5
 40
0.5
 40
0.5
 40
0.75
 40
0.75
 40
0.75
 40
0.75
 40
1.0
 40
1.0
 40
1.0
 40
1.0
 10
-6.19999
 20
-16.85007
 30
0.0
 10
-6.19999
 20
-17.0157
 30
0.0
 10
-6.33433
 20
-17.15008
 30
0.0
 10
-6.49996
 20
-17.15008
 30
0.0
 10
-6.49996
 20
-17.15008
 30
0.0
 10
-6.66562
 20
-17.15008
 30
0.0
 10
-6.79996
 20
-17.0157
 30
0.0
 10
-6.79996
 20
-16.85007
 30
0.0
 10
-6.79996
 20
-16.85007
 30
0.0
 10
-6.79996
 20
-16.6843
 30
0.0
 10
-6.66562
 20
-16.55007
 30
0.0
 10
-6.49996
 20
-16.55007
 30
0.0
 10
-6.49996
 20
-16.55007
 30
0.0
 10
-6.33433
 20
-16.55007
 30
0.0
 10
-6.19999
 20
-16.6843
 30
0.0
 10
-6.19999
 20
-16.85007
 30
0.0
  0
SPLINE
  5
72
330
1F
100
AcDbEntity
  8
Layer 1
370
    53
100
AcDbSpline
210
0.0
220
0.0
230
1.0
 70
    11
 71
     3
 72
    20
 73
    16
 74
     0
 42
0.0000000001
 43
0.0000000001
 40
0.0
 40
0.0
 40
0.0
 40
0.0
 40
0.25
 40
0.25
 40
0.25
 40
0.25
 40
0.5
 40
0.5
 40
0.5
 40
0.5
 40
0.75
 40
0.75
 40
0.75
 40
0.75
 40
1.0
 40
1.0
 40
1.0
 40
1.0
 10
-6.19999
 20
-14.85
 30
0.0
 10
-6.19999
 20
-15.01577
 30
0.0
 10
-6.33433
 20
-15.15
 30
0.0
 10
-6.49996
 20
-15.15
 30
0.0
 10
-6.49996
 20
-15.15
 30
0.0
 10
-6.66562
 20
-15.15
 30
0.0
 10
-6.79996
 20
-15.01577
 30
0.0
 10
-6.79996
 20
-14.85
 30
0.0
 10
-6.79996
 20
-14.85
 30
0.0
 10
-6.79996
 20
-14.68434
 30
0.0
 10
-6.66562
 20
-14.55
 30
0.0
 10
-6.49996
 20
-14.55
 30
0.0
 10
-6.49996
 20
-14.55
 30
0.0
 10
-6.33433
 20
-14.55
 30
0.0
 10
-6.19999
 20
-14.68434
 30
0.0
 10
-6.19999
 20
-14.85
 30
0.0
  0
SPLINE
  5
73
330
1F
100
AcDbEntity
  8
Layer 1
370
    53
100
AcDbSpline
210
0.0
220
0.0
230
1.0
 70
    11
 71
     3
 72
    20
 73
    16
 74
     0
 42
0.0000000001
 43
0.0000000001
 40
0.0
 40
0.0
 40
0.0
 40
0.0
 40
0.25
 40
0.25
 40
0.25
 40
0.25
 40
0.5
 40
0.5
 40
0.5
 40
0.5
 40
0.75
 40
0.75
 40
0.75
 40
0.75
 40
1.0
 40
1.0
 40
1.0
 40
1.0
 10
-6.19999
 20
-12.85003
 30
0.0
 10
-6.19999
 20
-13.0157
 30
0.0
 10
-6.33433
 20
-13.15003
 30
0.0
 10
-6.49996
 20
-13.15003
 30
0.0
 10
-6.49996
 20
-13.15003
 30
0.0
 10
-6.66562
 20
-13.15003
 30
0.0
 10
-6.79996
 20
-13.0157
 30
0.0
 10
-6.79996
 20
-12.85003
 30
0.0
 10
-6.79996
 20
-12.85003
 30
0.0
 10
-6.79996
 20
-12.6844
 30
0.0
 10
-6.66562
 20
-12.55003
 30
0.0
 10
-6.49996
 20
-12.55003
 30
0.0
 10
-6.49996
 20
-12.55003
 30
0.0
 10
-6.33433
 20
-12.55003
 30
0.0
 10
-6.19999
 20
-12.6844
 30
0.0
 10
-6.19999
 20
-12.85003
 30
0.0
  0
SPLINE
  5
74
330
1F
100
AcDbEntity
  8
Layer 1
370
    53
100
AcDbSpline
210
0.0
220
0.0
230
1.0
 70
    11
 71
     3
 72
    20
 73
    16
 74
     0
 42
0.0000000001
 43
0.0000000001
 40
0.0
 40
0.0
 40
0.0
 40
0.0
 40
0.25
 40
0.25
 40
0.25
 40
0.25
 40
0.5
 40
0.5
 40
0.5
 40
0.5
 40
0.75
 40
0.75
 40
0.75
 40
0.75
 40
1.0
 40
1.0
 40
1.0
 40
1.0
 10
-14.64997
 20
-17.54998
 30
0.0
 10
-14.64997
 20
-17.54998
 30
0.0
 10
-14.34997
 20
-17.54998
 30
0.0
 10
-14.34997
 20
-17.54998
 30
0.0
 10
-14.34997
 20
-17.54998
 30
0.0
 10
-14.34997
 20
-17.54998
 30
0.0
 10
-14.34997
 20
-18.14999
 30
0.0
 10
-14.34997
 20
-18.14999
 30
0.0
 10
-14.34997
 20
-18.14999
 30
0.0
 10
-14.34997
 20
-18.14999
 30
0.0
 10
-14.64997
 20
-18.14999
 30
0.0
 10
-14.64997
 20
-18.14999
 30
0.0
 10
-14.64997
 20
-18.14999
 30
0.0
 10
-14.64997
 20
-18.14999
 30
0.0
 10
-14.64997
 20
-17.54998
 30
0.0
 10
-14.64997
 20
-17.54998
 30
0.0
  0
SPLINE
  5
75
330
1F
100
AcDbEntity
  8
Layer 1
370
    53
100
AcDbSpline
210
0.0
220
0.0
230
1.0
 70
    11
 71
     3
 72
    20
 73
    16
 74
     0
 42
0.0000000001
 43
0.0000000001
 40
0.0
 40
0.0
 40
0.0
 40
0.0
 40
0.25
 40
0.25
 40
0.25
 40
0.25
 40
0.5
 40
0.5
 40
0.5
 40
0.5
 40
0.75
 40
0.75
 40
0.75
 40
0.75
 40
1.0
 40
1.0
 40
1.0
 40
1.0
 10
-14.64997
 20
-15.55005
 30
0.0
 10
-14.64997
 20
-15.55005
 30
0.0
 10
-14.34997
 20
-15.55005
 30
0.0
 10
-14.34997
 20
-15.55005
 30
0.0
 10
-14.34997
 20
-15.55005
 30
0.0
 10
-14.34997
 20
-15.55005
 30
0.0
 10
-14.34997
 20
-16.15006
 30
0.0
 10
-14.34997
 20
-16.15006
 30
0.0
 10
-14.34997
 20
-16.15006
 30
0.0
 10
-14.34997
 20
-16.15006
 30
0.0
 10
-14.64997
 20
-16.15006
 30
0.0
 10
-14.64997
 20
-16.15006
 30
0.0
 10
-14.64997
 20
-16.15006
 30
0.0
 10
-14.64997
 20
-16.15006
 30
0.0
 10
-14.64997
 20
-15.55005
 30
0.0
 10
-14.64997
 20
-15.55005
 30
0.0
  0
SPLINE
  5
76
330
1F
100
AcDbEntity
  8
Layer 1
370
    53
100
AcDbSpline
210
0.0
220
0.0
230
1.0
 70
    11
 71
     3
 72
    20
 73
    16
 74
     0
 42
0.0000000001
 43
0.0000000001
 40
0.0
 40
0.0
 40
0.0
 40
0.0
 40
0.25
 40
0.25
 40
0.25
 40
0.25
 40
0.5
 40
0.5
 40
0.5
 40
0.5
 40
0.75
 40
0.75
 40
0.75
 40
0.75
 40
1.0
 40
1.0
 40
1.0
 40
1.0
 10
-14.64997
 20
-13.55008
 30
0.0
 10
-14.64997
 20
-13.55008
 30
0.0
 10
-14.34997
 20
-13.55008
 30
0.0
 10
-14.34997
 20
-13.55008
 30
0.0
 10
-14.34997
 20
-13.55008
 30
0.0
 10
-14.34997
 20
-13.55008
 30
0.0
 10
-14.34997
 20
-14.15009
 30
0.0
 10
-14.34997
 20
-14.15009
 30
0.0
 10
-14.34997
 20
-14.15009
 30
0.0
 10
-14.34997
 20
-14.15009
 30
0.0
 10
-14.64997
 20
-14.15009
 30
0.0
 10
-14.64997
 20
-14.15009
 30
0.0
 10
-14.64997
 20
-14.15009
 30
0.0
 10
-14.64997
 20
-14.15009
 30
0.0
 10
-14.64997
 20
-13.55008
 30
0.0
 10
-14.64997
 20
-13.55008
 30
0.0
  0
SPLINE
  5
77
330
1F
100
AcDbEntity
  8
Layer 1
370
    53
100
AcDbSpline
210
0.0
220
0.0
230
1.0
 70
    11
 71
     3
 72
    20
 73
    16
 74
     0
 42
0.0000000001
 43
0.0000000001
 40
0.0
 40
0.0
 40
0.0
 40
0.0
 40
0.25
 40
0.25
 40
0.25
 40
0.25
 40
0.5
 40
0.5
 40
0.5
 40
0.5
 40
0.75
 40
0.75
 40
0.75
 40
0.75
 40
1.0
 40
1.0
 40
1.0
 40
1.0
 10
-14.64997
 20
-11.55001
 30
0.0
 10
-14.64997
 20
-11.55001
 30
0.0
 10
-14.34997
 20
-11.55001
 30
0.0
 10
-14.34997
 20
-11.55001
 30
0.0
 10
-14.34997
 20
-11.55001
 30
0.0
 10
-14.34997
 20
-11.55001
 30
0.0
 10
-14.34997
 20
-12.15001
 30
0.0
 10
-14.34997
 20
-12.15001
 30
0.0
 10
-14.34997
 20
-12.15001
 30
0.0
 10
-14.34997
 20
-12.15001
 30
0.0
 10
-14.64997
 20
-12.15001
 30
0.0
 10
-14.64997
 20
-12.15001
 30
0.0
 10
-14.64997
 20
-12.15001
 30
0.0
 10
-14.64997
 20
-12.15001
 30
0.0
 10
-14.64997
 20
-11.55001
 30
0.0
 10
-14.64997
 20
-11.55001
 30
0.0
  0
SPLINE
  5
78
330
1F
100
AcDbEntity
  8
Layer 1
370
    53
100
AcDbSpline
210
0.0
220
0.0
230
1.0
 70
    11
 71
     3
 72
    20
 73
    16
 74
     0
 42
0.0000000001
 43
0.0000000001
 40
0.0
 40
0.0
 40
0.0
 40
0.0
 40
0.25
 40
0.25
 40
0.25
 40
0.25
 40
0.5
 40
0.5
 40
0.5
 40
0.5
 40
0.75
 40
0.75
 40
0.75
 40
0.75
 40
1.0
 40
1.0
 40
1.0
 40
1.0
 10
-12.65004
 20
-17.54998
 30
0.0
 10
-12.65004
 20
-17.54998
 30
0.0
 10
-12.35004
 20
-17.54998
 30
0.0
 10
-12.35004
 20
-17.54998
 30
0.0
 10
-12.35004
 20
-17.54998
 30
0.0
 10
-12.35004
 20
-17.54998
 30
0.0
 10
-12.35004
 20
-18.14999
 30
0.0
 10
-12.35004
 20
-18.14999
 30
0.0
 10
-12.35004
 20
-18.14999
 30
0.0
 10
-12.35004
 20
-18.14999
 30
0.0
 10
-12.65004
 20
-18.14999
 30
0.0
 10
-12.65004
 20
-18.14999
 30
0.0
 10
-12.65004
 20
-18.14999
 30
0.0
 10
-12.65004
 20
-18.14999
 30
0.0
 10
-12.65004
 20
-17.54998
 30
0.0
 10
-12.65004
 20
-17.54998
 30
0.0
  0
SPLINE
  5
79
330
1F
100
AcDbEntity
  8
Layer 1
370
    53
100
AcDbSpline
210
0.0
220
0.0
230
1.0
 70
    11
 71
     3
 72
    20
 73
    16
 74
     0
 42
0.0000000001
 43
0.0000000001
 40
0.0
 40
0.0
 40
0.0
 40
0.0
 40
0.25
 40
0.25
 40
0.25
 40
0.25
 40
0.5
 40
0.5
 40
0.5
 40
0.5
 40
0.75
 40
0.75
 40
0.75
 40
0.75
 40
1.0
 40
1.0
 40
1.0
 40
1.0
 10
-12.65004
 20
-15.55005
 30
0.0
 10
-12.65004
 20
-15.55005
 30
0.0
 10
-12.35004
 20
-15.55005
 30
0.0
 10
-12.35004
 20
-15.55005
 30
0.0
 10
-12.35004
 20
-15.55005
 30
0.0
 10
-12.35004
 20
-15.55005
 30
0.0
 10
-12.35004
 20
-16.15006
 30
0.0
 10
-12.35004
 20
-16.15006
 30
0.0
 10
-12.35004
 20
-16.15006
 30
0.0
 10
-12.35004
 20
-16.15006
 30
0.0
 10
-12.65004
 20
-16.15006
 30
0.0
 10
-12.65004
 20
-16.15006
 30
0.0
 10
-12.65004
 20
-16.15006
 30
0.0
 10
-12.65004
 20
-16.15006
 30
0.0
 10
-12.65004
 20
-15.55005
 30
0.0
 10
-12.65004
 20
-15.55005
 30
0.0
  0
SPLINE
  5
7A
330
1F
100
AcDbEntity
  8
Layer 1
370
    53
100
AcDbSpline
210
0.0
220
0.0
230
1.0
 70
    11
 71
     3
 72
    20
 73
    16
 74
     0
 42
0.0000000001
 43
0.0000000001
 40
0.0
 40
0.0
 40
0.0
 40
0.0
 40
0.25
 40
0.25
 40
0.25
 40
0.25
 40
0.5
 40
0.5
 40
0.5
 40
0.5
 40
0.75
 40
0.75
 40
0.75
 40
0.75
 40
1.0
 40
1.0
 40
1.0
 40
1.0
 10
-12.65004
 20
-13.55008
 30
0.0
 10
-12.65004
 20
-13.55008
 30
0.0
 10
-12.35004
 20
-13.55008
 30
0.0
 10
-12.35004
 20
-13.55008
 30
0.0
 10
-12.35004
 20
-13.55008
 30
0.0
 10
-12.35004
 20
-13.55008
 30
0.0
 10
-12.35004
 20
-14.15009
 30
0.0
 10
-12.35004
 20
-14.15009
 30
0.0
 10
-12.35004
 20
-14.15009
 30
0.0
 10
-12.35004
 20
-14.15009
 30
0.0
 10
-12.65004
 20
-14.15009
 30
0.0
 10
-12.65004
 20
-14.15009
 30
0.0
 10
-12.65004
 20
-14.15009
 30
0.0
 10
-12.65004
 20
-14.15009
 30
0.0
 10
-12.65004
 20
-13.55008
 30
0.0
 10
-12.65004
 20
-13.55008
 30
0.0
  0
SPLINE
  5
7B
330
1F
100
AcDbEntity
  8
Layer 1
370
    53
100
AcDbSpline
210
0.0
220
0.0
230
1.0
 70
    11
 71
     3
 72
    20
 73
    16
 74
     0
 42
0.0000000001
 43
0.0000000001
 40
0.0
 40
0.0
 40
0.0
 40
0.0
 40
0.25
 40
0.25
 40
0.25
 40
0.25
 40
0.5
 40
0.5
 40
0.5
 40
0.5
 40
0.75
 40
0.75
 40
0.75
 40
0.75
 40
1.0
 40
1.0
 40
1.0
 40
1.0
 10
-12.65004
 20
-11.55001
 30
0.0
 10
-12.65004
 20
-11.55001
 30
0.0
 10
-12.35004
 20
-11.55001
 30
0.0
 10
-12.35004
 20
-11.55001
 30
0.0
 10
-12.35004
 20
-11.55001
 30
0.0
 10
-12.35004
 20
-11.55001
 30
0.0
 10
-12.35004
 20
-12.15001
 30
0.0
 10
-12.35004
 20
-12.15001
 30
0.0
 10
-12.35004
 20
-12.15001
 30
0.0
 10
-12.35004
 20
-12.15001
 30
0.0
 10
-12.65004
 20
-12.15001
 30
0.0
 10
-12.65004
 20
-12.15001
 30
0.0
 10
-12.65004
 20
-12.15001
 30
0.0
 10
-12.65004
 20
-12.15001
 30
0.0
 10
-12.65004
 20
-11.55001
 30
0.0
 10
-12.65004
 20
-11.55001
 30
0.0
  0
SPLINE
  5
7C
330
1F
100
AcDbEntity
  8
Layer 1
370
    53
100
AcDbSpline
210
0.0
220
0.0
230
1.0
 70
    11
 71
     3
 72
    20
 73
    16
 74
     0
 42
0.0000000001
 43
0.0000000001
 40
0.0
 40
0.0
 40
0.0
 40
0.0
 40
0.25
 40
0.25
 40
0.25
 40
0.25
 40
0.5
 40
0.5
 40
0.5
 40
0.5
 40
0.75
 40
0.75
 40
0.75
 40
0.75
 40
1.0
 40
1.0
 40
1.0
 40
1.0
 10
-10.64993
 20
-19.55006
 30
0.0
 10
-10.64993
 20
-19.55006
 30
0.0
 10
-10.34993
 20
-19.55006
 30
0.0
 10
-10.34993
 20
-19.55006
 30
0.0
 10
-10.34993
 20
-19.55006
 30
0.0
 10
-10.34993
 20
-19.55006
 30
0.0
 10
-10.34993
 20
-20.15006
 30
0.0
 10
-10.34993
 20
-20.15006
 30
0.0
 10
-10.34993
 20
-20.15006
 30
0.0
 10
-10.34993
 20
-20.15006
 30
0.0
 10
-10.64993
 20
-20.15006
 30
0.0
 10
-10.64993
 20
-20.15006
 30
0.0
 10
-10.64993
 20
-20.15006
 30
0.0
 10
-10.64993
 20
-20.15006
 30
0.0
 10
-10.64993
 20
-19.55006
 30
0.0
 10
-10.64993
 20
-19.55006
 30
0.0
  0
SPLINE
  5
7D
330
1F
100
AcDbEntity
  8
Layer 1
370
    53
100
AcDbSpline
210
0.0
220
0.0
230
1.0
 70
    11
 71
     3
 72
    20
 73
    16
 74
     0
 42
0.0000000001
 43
0.0000000001
 40
0.0
 40
0.0
 40
0.0
 40
0.0
 40
0.25
 40
0.25
 40
0.25
 40
0.25
 40
0.5
 40
0.5
 40
0.5
 40
0.5
 40
0.75
 40
0.75
 40
0.75
 40
0.75
 40
1.0
 40
1.0
 40
1.0
 40
1.0
 10
-10.64993
 20
-17.54998
 30
0.0
 10
-10.64993
 20
-17.54998
 30
0.0
 10
-10.34993
 20
-17.54998
 30
0.0
 10
-10.34993
 20
-17.54998
 30
0.0
 10
-10.34993
 20
-17.54998
 30
0.0
 10
-10.34993
 20
-17.54998
 30
0.0
 10
-10.34993
 20
-18.14999
 30
0.0
 10
-10.34993
 20
-18.14999
 30
0.0
 10
-10.34993
 20
-18.14999
 30
0.0
 10
-10.34993
 20
-18.14999
 30
0.0
 10
-10.64993
 20
-18.14999
 30
0.0
 10
-10.64993
 20
-18.14999
 30
0.0
 10
-10.64993
 20
-18.14999
 30
0.0
 10
-10.64993
 20
-18.14999
 30
0.0
 10
-10.64993
 20
-17.54998
 30
0.0
 10
-10.64993
 20
-17.54998
 30
0.0
  0
SPLINE
  5
7E
330
1F
100
AcDbEntity
  8
Layer 1
370
    53
100
AcDbSpline
210
0.0
220
0.0
230
1.0
 70
    11
 71
     3
 72
    20
 73
    16
 74
     0
 42
0.0000000001
 43
0.0000000001
 40
0.0
 40
0.0
 40
0.0
 40
0.0
 40
0.25
 40
0.25
 40
0.25
 40
0.25
 40
0.5
 40
0.5
 40
0.5
 40
0.5
 40
0.75
 40
0.75
 40
0.75
 40
0.75
 40
1.0
 40
1.0
 40
1.0
 40
1.0
 10
-10.64993
 20
-15.55005
 30
0.0
 10
-10.64993
 20
-15.55005
 30
0.0
 10
-10.34993
 20
-15.55005
 30
0.0
 10
-10.34993
 20
-15.55005
 30
0.0
 10
-10.34993
 20
-15.55005
 30
0.0
 10
-10.34993
 20
-15.55005
 30
0.0
 10
-10.34993
 20
-16.15006
 30
0.0
 10
-10.34993
 20
-16.15006
 30
0.0
 10
-10.34993
 20
-16.15006
 30
0.0
 10
-10.34993
 20
-16.15006
 30
0.0
 10
-10.64993
 20
-16.15006
 30
0.0
 10
-10.64993
 20
-16.15006
 30
0.0
 10
-10.64993
 20
-16.15006
 30
0.0
 10
-10.64993
 20
-16.15006
 30
0.0
 10
-10.64993
 20
-15.55005
 30
0.0
 10
-10.64993
 20
-15.55005
 30
0.0
  0
SPLINE
  5
7F
330
1F
100
AcDbEntity
  8
Layer 1
370
    53
100
AcDbSpline
210
0.0
220
0.0
230
1.0
 70
    11
 71
     3
 72
    20
 73
    16
 74
     0
 42
0.0000000001
 43
0.0000000001
 40
0.0
 40
0.0
 40
0.0
 40
0.0
 40
0.25
 40
0.25
 40
0.25
 40
0.25
 40
0.5
 40
0.5
 40
0.5
 40
0.5
 40
0.75
 40
0.75
 40
0.75
 40
0.75
 40
1.0
 40
1.0
 40
1.0
 40
1.0
 10
-10.64993
 20
-13.55008
 30
0.0
 10
-10.64993
 20
-13.55008
 30
0.0
 10
-10.34993
 20
-13.55008
 30
0.0
 10
-10.34993
 20
-13.55008
 30
0.0
 10
-10.34993
 20
-13.55008
 30
0.0
 10
-10.34993
 20
-13.55008
 30
0.0
 10
-10.34993
 20
-14.15009
 30
0.0
 10
-10.34993
 20
-14.15009
 30
0.0
 10
-10.34993
 20
-14.15009
 30
0.0
 10
-10.34993
 20
-14.15009
 30
0.0
 10
-10.64993
 20
-14.15009
 30
0.0
 10
-10.64993
 20
-14.15009
 30
0.0
 10
-10.64993
 20
-14.15009
 30
0.0
 10
-10.64993
 20
-14.15009
 30
0.0
 10
-10.64993
 20
-13.55008
 30
0.0
 10
-10.64993
 20
-13.55008
 30
0.0
  0
SPLINE
  5
80
330
1F
100
AcDbEntity
  8
Layer 1
370
    53
100
AcDbSpline
210
0.0
220
0.0
230
1.0
 70
    11
 71
     3
 72
    20
 73
    16
 74
     0
 42
0.0000000001
 43
0.0000000001
 40
0.0
 40
0.0
 40
0.0
 40
0.0
 40
0.25
 40
0.25
 40
0.25
 40
0.25
 40
0.5
 40
0.5
 40
0.5
 40
0.5
 40
0.75
 40
0.75
 40
0.75
 40
0.75
 40
1.0
 40
1.0
 40
1.0
 40
1.0
 10
-10.64993
 20
-11.55001
 30
0.0
 10
-10.64993
 20
-11.55001
 30
0.0
 10
-10.34993
 20
-11.55001
 30
0.0
 10
-10.34993
 20
-11.55001
 30
0.0
 10
-10.34993
 20
-11.55001
 30
0.0
 10
-10.34993
 20
-11.55001
 30
0.0
 10
-10.34993
 20
-12.15001
 30
0.0
 10
-10.34993
 20
-12.15001
 30
0.0
 10
-10.34993
 20
-12.15001
 30
0.0
 10
-10.34993
 20
-12.15001
 30
0.0
 10
-10.64993
 20
-12.15001
 30
0.0
 10
-10.64993
 20
-12.15001
 30
0.0
 10
-10.64993
 20
-12.15001
 30
0.0
 10
-10.64993
 20
-12.15001
 30
0.0
 10
-10.64993
 20
-11.55001
 30
0.0
 10
-10.64993
 20
-11.55001
 30
0.0
  0
SPLINE
  5
81
330
1F
100
AcDbEntity
  8
Layer 1
370
    53
100
AcDbSpline
210
0.0
220
0.0
230
1.0
 70
    11
 71
     3
 72
    20
 73
    16
 74
     0
 42
0.0000000001
 43
0.0000000001
 40
0.0
 40
0.0
 40
0.0
 40
0.0
 40
0.25
 40
0.25
 40
0.25
 40
0.25
 40
0.5
 40
0.5
 40
0.5
 40
0.5
 40
0.75
 40
0.75
 40
0.75
 40
0.75
 40
1.0
 40
1.0
 40
1.0
 40
1.0
 10
-10.64993
 20
-9.55004
 30
0.0
 10
-10.64993
 20
-9.55004
 30
0.0
 10
-10.34993
 20
-9.55004
 30
0.0
 10
-10.34993
 20
-9.55004
 30
0.0
 10
-10.34993
 20
-9.55004
 30
0.0
 10
-10.34993
 20
-9.55004
 30
0.0
 10
-10.34993
 20
-10.15005
 30
0.0
 10
-10.34993
 20
-10.15005
 30
0.0
 10
-10.34993
 20
-10.15005
 30
0.0
 10
-10.34993
 20
-10.15005
 30
0.0
 10
-10.64993
 20
-10.15005
 30
0.0
 10
-10.64993
 20
-10.15005
 30
0.0
 10
-10.64993
 20
-10.15005
 30
0.0
 10
-10.64993
 20
-10.15005
 30
0.0
 10
-10.64993
 20
-9.55004
 30
0.0
 10
-10.64993
 20
-9.55004
 30
0.0
  0
SPLINE
  5
82
330
1F
100
AcDbEntity
  8
Layer 1
370
    53
100
AcDbSpline
210
0.0
220
0.0
230
1.0
 70
    11
 71
     3
 72
    20
 73
    16
 74
     0
 42
0.0000000001
 43
0.0000000001
 40
0.0
 40
0.0
 40
0.0
 40
0.0
 40
0.25
 40
0.25
 40
0.25
 40
0.25
 40
0.5
 40
0.5
 40
0.5
 40
0.5
 40
0.75
 40
0.75
 40
0.75
 40
0.75
 40
1.0
 40
1.0
 40
1.0
 40
1.0
 10
-8.65
 20
-17.54998
 30
0.0
 10
-8.65
 20
-17.54998
 30
0.0
 10
-8.35
 20
-17.54998
 30
0.0
 10
-8.35
 20
-17.54998
 30
0.0
 10
-8.35
 20
-17.54998
 30
0.0
 10
-8.35
 20
-17.54998
 30
0.0
 10
-8.35
 20
-18.14999
 30
0.0
 10
-8.35
 20
-18.14999
 30
0.0
 10
-8.35
 20
-18.14999
 30
0.0
 10
-8.35
 20
-18.14999
 30
0.0
 10
-8.65
 20
-18.14999
 30
0.0
 10
-8.65
 20
-18.14999
 30
0.0
 10
-8.65
 20
-18.14999
 30
0.0
 10
-8.65
 20
-18.14999
 30
0.0
 10
-8.65
 20
-17.54998
 30
0.0
 10
-8.65
 20
-17.54998
 30
0.0
  0
SPLINE
  5
83
330
1F
100
AcDbEntity
  8
Layer 1
370
    53
100
AcDbSpline
210
0.0
220
0.0
230
1.0
 70
    11
 71
     3
 72
    20
 73
    16
 74
     0
 42
0.0000000001
 43
0.0000000001
 40
0.0
 40
0.0
 40
0.0
 40
0.0
 40
0.25
 40
0.25
 40
0.25
 40
0.25
 40
0.5
 40
0.5
 40
0.5
 40
0.5
 40
0.75
 40
0.75
 40
0.75
 40
0.75
 40
1.0
 40
1.0
 40
1.0
 40
1.0
 10
-8.65
 20
-15.55005
 30
0.0
 10
-8.65
 20
-15.55005
 30
0.0
 10
-8.35
 20
-15.55005
 30
0.0
 10
-8.35
 20
-15.55005
 30
0.0
 10
-8.35
 20
-15.55005
 30
0.0
 10
-8.35
 20
-15.55005
 30
0.0
 10
-8.35
 20
-16.15006
 30
0.0
 10
-8.35
 20
-16.15006
 30
0.0
 10
-8.35
 20
-16.15006
 30
0.0
 10
-8.35
 20
-16.15006
 30
0.0
 10
-8.65
 20
-16.15006
 30
0.0
 10
-8.65
 20
-16.15006
 30
0.0
 10
-8.65
 20
-16.15006
 30
0.0
 10
-8.65
 20
-16.15006
 30
0.0
 10
-8.65
 20
-15.55005
 30
0.0
 10
-8.65
 20
-15.55005
 30
0.0
  0
SPLINE
  5
84
330
1F
100
AcDbEntity
  8
Layer 1
370
    53
100
AcDbSpline
210
0.0
220
0.0
230
1.0
 70
    11
 71
     3
 72
    20
 73
    16
 74
     0
 42
0.0000000001
 43
0.0000000001
 40
0.0
 40
0.0
 40
0.0
 40
0.0
 40
0.25
 40
0.25
 40
0.25
 40
0.25
 40
0.5
 40
0.5
 40
0.5
 40
0.5
 40
0.75
 40
0.75
 40
0.75
 40
0.75
 40
1.0
 40
1.0
 40
1.0
 40
1.0
 10
-8.65
 20
-13.55008
 30
0.0
 10
-8.65
 20
-13.55008
 30
0.0
 10
-8.35
 20
-13.55008
 30
0.0
 10
-8.35
 20
-13.55008
 30
0.0
 10
-8.35
 20
-13.55008
 30
0.0
 10
-8.35
 20
-13.55008
 30
0.0
 10
-8.35
 20
-14.15009
 30
0.0
 10
-8.35
 20
-14.15009
 30
0.0
 10
-8.35
 20
-14.15009
 30
0.0
 10
-8.35
 20
-14.15009
 30
0.0
 10
-8.65
 20
-14.15009
 30
0.0
 10
-8.65
 20
-14.15009
 30
0.0
 10
-8.65
 20
-14.15009
 30
0.0
 10
-8.65
 20
-14.15009
 30
0.0
 10
-8.65
 20
-13.55008
 30
0.0
 10
-8.65
 20
-13.55008
 30
0.0
  0
SPLINE
  5
85
330
1F
100
AcDbEntity
  8
Layer 1
370
    53
100
AcDbSpline
210
0.0
220
0.0
230
1.0
 70
    11
 71
     3
 72
    20
 73
    16
 74
     0
 42
0.0000000001
 43
0.0000000001
 40
0.0
 40
0.0
 40
0.0
 40
0.0
 40
0.25
 40
0.25
 40
0.25
 40
0.25
 40
0.5
 40
0.5
 40
0.5
 40
0.5
 40
0.75
 40
0.75
 40
0.75
 40
0.75
 40
1.0
 40
1.0
 40
1.0
 40
1.0
 10
-8.65
 20
-11.55001
 30
0.0
 10
-8.65
 20
-11.55001
 30
0.0
 10
-8.35
 20
-11.55001
 30
0.0
 10
-8.35
 20
-11.55001
 30
0.0
 10
-8.35
 20
-11.55001
 30
0.0
 10
-8.35
 20
-11.55001
 30
0.0
 10
-8.35
 20
-12.15001
 30
0.0
 10
-8.35
 20
-12.15001
 30
0.0
 10
-8.35
 20
-12.15001
 30
0.0
 10
-8.35
 20
-12.15001
 30
0.0
 10
-8.65
 20
-12.15001
 30
0.0
 10
-8.65
 20
-12.15001
 30
0.0
 10
-8.65
 20
-12.15001
 30
0.0
 10
-8.65
 20
-12.15001
 30
0.0
 10
-8.65
 20
-11.55001
 30
0.0
 10
-8.65
 20
-11.55001
 30
0.0
  0
SPLINE
  5
86
330
1F
100
AcDbEntity
  8
Layer 1
370
    53
100
AcDbSpline
210
0.0
220
0.0
230
1.0
 70
    11
 71
     3
 72
    20
 73
    16
 74
     0
 42
0.0000000001
 43
0.0000000001
 40
0.0
 40
0.0
 40
0.0
 40
0.0
 40
0.25
 40
0.25
 40
0.25
 40
0.25
 40
0.5
 40
0.5
 40
0.5
 40
0.5
 40
0.75
 40
0.75
 40
0.75
 40
0.75
 40
1.0
 40
1.0
 40
1.0
 40
1.0
 10
-6.64989
 20
-17.54998
 30
0.0
 10
-6.64989
 20
-17.54998
 30
0.0
 10
-6.34989
 20
-17.54998
 30
0.0
 10
-6.34989
 20
-17.54998
 30
0.0
 10
-6.34989
 20
-17.54998
 30
0.0
 10
-6.34989
 20
-17.54998
 30
0.0
 10
-6.34989
 20
-18.14999
 30
0.0
 10
-6.34989
 20
-18.14999
 30
0.0
 10
-6.34989
 20
-18.14999
 30
0.0
 10
-6.34989
 20
-18.14999
 30
0.0
 10
-6.64989
 20
-18.14999
 30
0.0
 10
-6.64989
 20
-18.14999
 30
0.0
 10
-6.64989
 20
-18.14999
 30
0.0
 10
-6.64989
 20
-18.14999
 30
0.0
 10
-6.64989
 20
-17.54998
 30
0.0
 10
-6.64989
 20
-17.54998
 30
0.0
  0
SPLINE
  5
87
330
1F
100
AcDbEntity
  8
Layer 1
370
    53
100
AcDbSpline
210
0.0
220
0.0
230
1.0
 70
    11
 71
     3
 72
    20
 73
    16
 74
     0
 42
0.0000000001
 43
0.0000000001
 40
0.0
 40
0.0
 40
0.0
 40
0.0
 40
0.25
 40
0.25
 40
0.25
 40
0.25
 40
0.5
 40
0.5
 40
0.5
 40
0.5
 40
0.75
 40
0.75
 40
0.75
 40
0.75
 40
1.0
 40
1.0
 40
1.0
 40
1.0
 10
-6.64989
 20
-15.55005
 30
0.0
 10
-6.64989
 20
-15.55005
 30
0.0
 10
-6.34989
 20
-15.55005
 30
0.0
 10
-6.34989
 20
-15.55005
 30
0.0
 10
-6.34989
 20
-15.55005
 30
0.0
 10
-6.34989
 20
-15.55005
 30
0.0
 10
-6.34989
 20
-16.15006
 30
0.0
 10
-6.34989
 20
-16.15006
 30
0.0
 10
-6.34989
 20
-16.15006
 30
0.0
 10
-6.34989
 20
-16.15006
 30
0.0
 10
-6.64989
 20
-16.15006
 30
0.0
 10
-6.64989
 20
-16.15006
 30
0.0
 10
-6.64989
 20
-16.15006
 30
0.0
 10
-6.64989
 20
-16.15006
 30
0.0
 10
-6.64989
 20
-15.55005
 30
0.0
 10
-6.64989
 20
-15.55005
 30
0.0
  0
SPLINE
  5
88
330
1F
100
AcDbEntity
  8
Layer 1
370
    53
100
AcDbSpline
210
0.0
220
0.0
230
1.0
 70
    11
 71
     3
 72
    20
 73
    16
 74
     0
 42
0.0000000001
 43
0.0000000001
 40
0.0
 40
0.0
 40
0.0
 40
0.0
 40
0.25
 40
0.25
 40
0.25
 40
0.25
 40
0.5
 40
0.5
 40
0.5
 40
0.5
 40
0.75
 40
0.75
 40
0.75
 40
0.75
 40
1.0
 40
1.0
 40
1.0
 40
1.0
 10
-6.64989
 20
-13.55008
 30
0.0
 10
-6.64989
 20
-13.55008
 30
0.0
 10
-6.34989
 20
-13.55008
 30
0.0
 10
-6.34989
 20
-13.55008
 30
0.0
 10
-6.34989
 20
-13.55008
 30
0.0
 10
-6.34989
 20
-13.55008
 30
0.0
 10
-6.34989
 20
-14.15009
 30
0.0
 10
-6.34989
 20
-14.15009
 30
0.0
 10
-6.34989
 20
-14.15009
 30
0.0
 10
-6.34989
 20
-14.15009
 30
0.0
 10
-6.64989
 20
-14.15009
 30
0.0
 10
-6.64989
 20
-14.15009
 30
0.0
 10
-6.64989
 20
-14.15009
 30
0.0
 10
-6.64989
 20
-14.15009
 30
0.0
 10
-6.64989
 20
-13.55008
 30
0.0
 10
-6.64989
 20
-13.55008
 30
0.0
  0
SPLINE
  5
89
330
1F
100
AcDbEntity
  8
Layer 1
370
    53
100
AcDbSpline
210
0.0
220
0.0
230
1.0
 70
    11
 71
     3
 72
    20
 73
    16
 74
     0
 42
0.0000000001
 43
0.0000000001
 40
0.0
 40
0.0
 40
0.0
 40
0.0
 40
0.25
 40
0.25
 40
0.25
 40
0.25
 40
0.5
 40
0.5
 40
0.5
 40
0.5
 40
0.75
 40
0.75
 40
0.75
 40
0.75
 40
1.0
 40
1.0
 40
1.0
 40
1.0
 10
-15.79996
 20
-14.70007
 30
0.0
 10
-15.79996
 20
-14.70007
 30
0.0
 10
-15.19995
 20
-14.70007
 30
0.0
 10
-15.19995
 20
-14.70007
 30
0.0
 10
-15.19995
 20
-14.70007
 30
0.0
 10
-15.19995
 20
-14.70007
 30
0.0
 10
-15.19995
 20
-15.00007
 30
0.0
 10
-15.19995
 20
-15.00007
 30
0.0
 10
-15.19995
 20
-15.00007
 30
0.0
 10
-15.19995
 20
-15.00007
 30
0.0
 10
-15.79996
 20
-15.00007
 30
0.0
 10
-15.79996
 20
-15.00007
 30
0.0
 10
-15.79996
 20
-15.00007
 30
0.0
 10
-15.79996
 20
-15.00007
 30
0.0
 10
-15.79996
 20
-14.70007
 30
0.0
 10
-15.79996
 20
-14.70007
 30
0.0
  0
SPLINE
  5
8A
330
1F
100
AcDbEntity
  8
Layer 1
370
    53
100
AcDbSpline
210
0.0
220
0.0
230
1.0
 70
    11
 71
     3
 72
    20
 73
    16
 74
     0
 42
0.0000000001
 43
0.0000000001
 40
0.0
 40
0.0
 40
0.0
 40
0.0
 40
0.25
 40
0.25
 40
0.25
 40
0.25
 40
0.5
 40
0.5
 40
0.5
 40
0.5
 40
0.75
 40
0.75
 40
0.75
 40
0.75
 40
1.0
 40
1.0
 40
1.0
 40
1.0
 10
-13.79999
 20
-18.70011
 30
0.0
 10
-13.79999
 20
-18.70011
 30
0.0
 10
-13.19999
 20
-18.70011
 30
0.0
 10
-13.19999
 20
-18.70011
 30
0.0
 10
-13.19999
 20
-18.70011
 30
0.0
 10
-13.19999
 20
-18.70011
 30
0.0
 10
-13.19999
 20
-19.00011
 30
0.0
 10
-13.19999
 20
-19.00011
 30
0.0
 10
-13.19999
 20
-19.00011
 30
0.0
 10
-13.19999
 20
-19.00011
 30
0.0
 10
-13.79999
 20
-19.00011
 30
0.0
 10
-13.79999
 20
-19.00011
 30
0.0
 10
-13.79999
 20
-19.00011
 30
0.0
 10
-13.79999
 20
-19.00011
 30
0.0
 10
-13.79999
 20
-18.70011
 30
0.0
 10
-13.79999
 20
-18.70011
 30
0.0
  0
SPLINE
  5
8B
330
1F
100
AcDbEntity
  8
Layer 1
370
    53
100
AcDbSpline
210
0.0
220
0.0
230
1.0
 70
    11
 71
     3
 72
    20
 73
    16
 74
     0
 42
0.0000000001
 43
0.0000000001
 40
0.0
 40
0.0
 40
0.0
 40
0.0
 40
0.25
 40
0.25
 40
0.25
 40
0.25
 40
0.5
 40
0.5
 40
0.5
 40
0.5
 40
0.75
 40
0.75
 40
0.75
 40
0.75
 40
1.0
 40
1.0
 40
1.0
 40
1.0
 10
-13.79999
 20
-16.7
 30
0.0
 10
-13.79999
 20
-16.7
 30
0.0
 10
-13.19999
 20
-16.7
 30
0.0
 10
-13.19999
 20
-16.7
 30
0.0
 10
-13.19999
 20
-16.7
 30
0.0
 10
-13.19999
 20
-16.7
 30
0.0
 10
-13.19999
 20
-17.0
 30
0.0
 10
-13.19999
 20
-17.0
 30
0.0
 10
-13.19999
 20
-17.0
 30
0.0
 10
-13.19999
 20
-17.0
 30
0.0
 10
-13.79999
 20
-17.0
 30
0.0
 10
-13.79999
 20
-17.0
 30
0.0
 10
-13.79999
 20
-17.0
 30
0.0
 10
-13.79999
 20
-17.0
 30
0.0
 10
-13.79999
 20
-16.7
 30
0.0
 10
-13.79999
 20
-16.7
 30
0.0
  0
SPLINE
  5
8C
330
1F
100
AcDbEntity
  8
Layer 1
370
    53
100
AcDbSpline
210
0.0
220
0.0
230
1.0
 70
    11
 71
     3
 72
    20
 73
    16
 74
     0
 42
0.0000000001
 43
0.0000000001
 40
0.0
 40
0.0
 40
0.0
 40
0.0
 40
0.25
 40
0.25
 40
0.25
 40
0.25
 40
0.5
 40
0.5
 40
0.5
 40
0.5
 40
0.75
 40
0.75
 40
0.75
 40
0.75
 40
1.0
 40
1.0
 40
1.0
 40
1.0
 10
-13.79999
 20
-14.70007
 30
0.0
 10
-13.79999
 20
-14.70007
 30
0.0
 10
-13.19999
 20
-14.70007
 30
0.0
 10
-13.19999
 20
-14.70007
 30
0.0
 10
-13.19999
 20
-14.70007
 30
0.0
 10
-13.19999
 20
-14.70007
 30
0.0
 10
-13.19999
 20
-15.00007
 30
0.0
 10
-13.19999
 20
-15.00007
 30
0.0
 10
-13.19999
 20
-15.00007
 30
0.0
 10
-13.19999
 20
-15.00007
 30
0.0
 10
-13.79999
 20
-15.00007
 30
0.0
 10
-13.79999
 20
-15.00007
 30
0.0
 10
-13.79999
 20
-15.00007
 30
0.0
 10
-13.79999
 20
-15.00007
 30
0.0
 10
-13.79999
 20
-14.70007
 30
0.0
 10
-13.79999
 20
-14.70007
 30
0.0
  0
SPLINE
  5
8D
330
1F
100
AcDbEntity
  8
Layer 1
370
    53
100
AcDbSpline
210
0.0
220
0.0
230
1.0
 70
    11
 71
     3
 72
    20
 73
    16
 74
     0
 42
0.0000000001
 43
0.0000000001
 40
0.0
 40
0.0
 40
0.0
 40
0.0
 40
0.25
 40
0.25
 40
0.25
 40
0.25
 40
0.5
 40
0.5
 40
0.5
 40
0.5
 40
0.75
 40
0.75
 40
0.75
 40
0.75
 40
1.0
 40
1.0
 40
1.0
 40
1.0
 10
-13.79999
 20
-12.69996
 30
0.0
 10
-13.79999
 20
-12.69996
 30
0.0
 10
-13.19999
 20
-12.69996
 30
0.0
 10
-13.19999
 20
-12.69996
 30
0.0
 10
-13.19999
 20
-12.69996
 30
0.0
 10
-13.19999
 20
-12.69996
 30
0.0
 10
-13.19999
 20
-12.99996
 30
0.0
 10
-13.19999
 20
-12.99996
 30
0.0
 10
-13.19999
 20
-12.99996
 30
0.0
 10
-13.19999
 20
-12.99996
 30
0.0
 10
-13.79999
 20
-12.99996
 30
0.0
 10
-13.79999
 20
-12.99996
 30
0.0
 10
-13.79999
 20
-12.99996
 30
0.0
 10
-13.79999
 20
-12.99996
 30
0.0
 10
-13.79999
 20
-12.69996
 30
0.0
 10
-13.79999
 20
-12.69996
 30
0.0
  0
SPLINE
  5
8E
330
1F
100
AcDbEntity
  8
Layer 1
370
    53
100
AcDbSpline
210
0.0
220
0.0
230
1.0
 70
    11
 71
     3
 72
    20
 73
    16
 74
     0
 42
0.0000000001
 43
0.0000000001
 40
0.0
 40
0.0
 40
0.0
 40
0.0
 40
0.25
 40
0.25
 40
0.25
 40
0.25
 40
0.5
 40
0.5
 40
0.5
 40
0.5
 40
0.75
 40
0.75
 40
0.75
 40
0.75
 40
1.0
 40
1.0
 40
1.0
 40
1.0
 10
-13.79999
 20
-10.70003
 30
0.0
 10
-13.79999
 20
-10.70003
 30
0.0
 10
-13.19999
 20
-10.70003
 30
0.0
 10
-13.19999
 20
-10.70003
 30
0.0
 10
-13.19999
 20
-10.70003
 30
0.0
 10
-13.19999
 20
-10.70003
 30
0.0
 10
-13.19999
 20
-11.00003
 30
0.0
 10
-13.19999
 20
-11.00003
 30
0.0
 10
-13.19999
 20
-11.00003
 30
0.0
 10
-13.19999
 20
-11.00003
 30
0.0
 10
-13.79999
 20
-11.00003
 30
0.0
 10
-13.79999
 20
-11.00003
 30
0.0
 10
-13.79999
 20
-11.00003
 30
0.0
 10
-13.79999
 20
-11.00003
 30
0.0
 10
-13.79999
 20
-10.70003
 30
0.0
 10
-13.79999
 20
-10.70003
 30
0.0
  0
SPLINE
  5
8F
330
1F
100
AcDbEntity
  8
Layer 1
370
    53
100
AcDbSpline
210
0.0
220
0.0
230
1.0
 70
    11
 71
     3
 72
    20
 73
    16
 74
     0
 42
0.0000000001
 43
0.0000000001
 40
0.0
 40
0.0
 40
0.0
 40
0.0
 40
0.25
 40
0.25
 40
0.25
 40
0.25
 40
0.5
 40
0.5
 40
0.5
 40
0.5
 40
0.75
 40
0.75
 40
0.75
 40
0.75
 40
1.0
 40
1.0
 40
1.0
 40
1.0
 10
-11.79992
 20
-18.70011
 30
0.0
 10
-11.79992
 20
-18.70011
 30
0.0
 10
-11.19991
 20
-18.70011
 30
0.0
 10
-11.19991
 20
-18.70011
 30
0.0
 10
-11.19991
 20
-18.70011
 30
0.0
 10
-11.19991
 20
-18.70011
 30
0.0
 10
-11.19991
 20
-19.00011
 30
0.0
 10
-11.19991
 20
-19.00011
 30
0.0
 10
-11.19991
 20
-19.00011
 30
0.0
 10
-11.19991
 20
-19.00011
 30
0.0
 10
-11.79992
 20
-19.00011
 30
0.0
 10
-11.79992
 20
-19.00011
 30
0.0
 10
-11.79992
 20
-19.00011
 30
0.0
 10
-11.79992
 20
-19.00011
 30
0.0
 10
-11.79992
 20
-18.70011
 30
0.0
 10
-11.79992
 20
-18.70011
 30
0.0
  0
SPLINE
  5
90
330
1F
100
AcDbEntity
  8
Layer 1
370
    53
100
AcDbSpline
210
0.0
220
0.0
230
1.0
 70
    11
 71
     3
 72
    20
 73
    16
 74
     0
 42
0.0000000001
 43
0.0000000001
 40
0.0
 40
0.0
 40
0.0
 40
0.0
 40
0.25
 40
0.25
 40
0.25
 40
0.25
 40
0.5
 40
0.5
 40
0.5
 40
0.5
 40
0.75
 40
0.75
 40
0.75
 40
0.75
 40
1.0
 40
1.0
 40
1.0
 40
1.0
 10
-11.79992
 20
-16.7
 30
0.0
 10
-11.79992
 20
-16.7
 30
0.0
 10
-11.19991
 20
-16.7
 30
0.0
 10
-11.19991
 20
-16.7
 30
0.0
 10
-11.19991
 20
-16.7
 30
0.0
 10
-11.19991
 20
-16.7
 30
0.0
 10
-11.19991
 20
-17.0
 30
0.0
 10
-11.19991
 20
-17.0
 30
0.0
 10
-11.19991
 20
-17.0
 30
0.0
 10
-11.19991
 20
-17.0
 30
0.0
 10
-11.79992
 20
-17.0
 30
0.0
 10
-11.79992
 20
-17.0
 30
0.0
 10
-11.79992
 20
-17.0
 30
0.0
 10
-11.79992
 20
-17.0
 30
0.0
 10
-11.79992
 20
-16.7
 30
0.0
 10
-11.79992
 20
-16.7
 30
0.0
  0
SPLINE
  5
91
330
1F
100
AcDbEntity
  8
Layer 1
370
    53
100
AcDbSpline
210
0.0
220
0.0
230
1.0
 70
    11
 71
     3
 72
    20
 73
    16
 74
     0
 42
0.0000000001
 43
0.0000000001
 40
0.0
 40
0.0
 40
0.0
 40
0.0
 40
0.25
 40
0.25
 40
0.25
 40
0.25
 40
0.5
 40
0.5
 40
0.5
 40
0.5
 40
0.75
 40
0.75
 40
0.75
 40
0.75
 40
1.0
 40
1.0
 40
1.0
 40
1.0
 10
-11.79992
 20
-14.70007
 30
0.0
 10
-11.79992
 20
-14.70007
 30
0.0
 10
-11.19991
 20
-14.70007
 30
0.0
 10
-11.19991
 20
-14.70007
 30
0.0
 10
-11.19991
 20
-14.70007
 30
0.0
 10
-11.19991
 20
-14.70007
 30
0.0
 10
-11.19991
 20
-15.00007
 30
0.0
 10
-11.19991
 20
-15.00007
 30
0.0
 10
-11.19991
 20
-15.00007
 30
0.0
 10
-11.19991
 20
-15.00007
 30
0.0
 10
-11.79992
 20
-15.00007
 30
0.0
 10
-11.79992
 20
-15.00007
 30
0.0
 10
-11.79992
 20
-15.00007
 30
0.0
 10
-11.79992
 20
-15.00007
 30
0.0
 10
-11.79992
 20
-14.70007
 30
0.0
 10
-11.79992
 20
-14.70007
 30
0.0
  0
SPLINE
  5
92
330
1F
100
AcDbEntity
  8
Layer 1
370
    53
100
AcDbSpline
210
0.0
220
0.0
230
1.0
 70
    11
 71
     3
 72
    20
 73
    16
 74
     0
 42
0.0000000001
 43
0.0000000001
 40
0.0
 40
0.0
 40
0.0
 40
0.0
 40
0.25
 40
0.25
 40
0.25
 40
0.25
 40
0.5
 40
0.5
 40
0.5
 40
0.5
 40
0.75
 40
0.75
 40
0.75
 40
0.75
 40
1.0
 40
1.0
 40
1.0
 40
1.0
 10
-11.79992
 20
-12.69996
 30
0.0
 10
-11.79992
 20
-12.69996
 30
0.0
 10
-11.19991
 20
-12.69996
 30
0.0
 10
-11.19991
 20
-12.69996
 30
0.0
 10
-11.19991
 20
-12.69996
 30
0.0
 10
-11.19991
 20
-12.69996
 30
0.0
 10
-11.19991
 20
-12.99996
 30
0.0
 10
-11.19991
 20
-12.99996
 30
0.0
 10
-11.19991
 20
-12.99996
 30
0.0
 10
-11.19991
 20
-12.99996
 30
0.0
 10
-11.79992
 20
-12.99996
 30
0.0
 10
-11.79992
 20
-12.99996
 30
0.0
 10
-11.79992
 20
-12.99996
 30
0.0
 10
-11.79992
 20
-12.99996
 30
0.0
 10
-11.79992
 20
-12.69996
 30
0.0
 10
-11.79992
 20
-12.69996
 30
0.0
  0
SPLINE
  5
93
330
1F
100
AcDbEntity
  8
Layer 1
370
    53
100
AcDbSpline
210
0.0
220
0.0
230
1.0
 70
    11
 71
     3
 72
    20
 73
    16
 74
     0
 42
0.0000000001
 43
0.0000000001
 40
0.0
 40
0.0
 40
0.0
 40
0.0
 40
0.25
 40
0.25
 40
0.25
 40
0.25
 40
0.5
 40
0.5
 40
0.5
 40
0.5
 40
0.75
 40
0.75
 40
0.75
 40
0.75
 40
1.0
 40
1.0
 40
1.0
 40
1.0
 10
-11.79992
 20
-10.70003
 30
0.0
 10
-11.79992
 20
-10.70003
 30
0.0
 10
-11.19991
 20
-10.70003
 30
0.0
 10
-11.19991
 20
-10.70003
 30
0.0
 10
-11.19991
 20
-10.70003
 30
0.0
 10
-11.19991
 20
-10.70003
 30
0.0
 10
-11.19991
 20
-11.00003
 30
0.0
 10
-11.19991
 20
-11.00003
 30
0.0
 10
-11.19991
 20
-11.00003
 30
0.0
 10
-11.19991
 20
-11.00003
 30
0.0
 10
-11.79992
 20
-11.00003
 30
0.0
 10
-11.79992
 20
-11.00003
 30
0.0
 10
-11.79992
 20
-11.00003
 30
0.0
 10
-11.79992
 20
-11.00003
 30
0.0
 10
-11.79992
 20
-10.70003
 30
0.0
 10
-11.79992
 20
-10.70003
 30
0.0
  0
SPLINE
  5
94
330
1F
100
AcDbEntity
  8
Layer 1
370
    53
100
AcDbSpline
210
0.0
220
0.0
230
1.0
 70
    11
 71
     3
 72
    20
 73
    16
 74
     0
 42
0.0000000001
 43
0.0000000001
 40
0.0
 40
0.0
 40
0.0
 40
0.0
 40
0.25
 40
0.25
 40
0.25
 40
0.25
 40
0.5
 40
0.5
 40
0.5
 40
0.5
 40
0.75
 40
0.75
 40
0.75
 40
0.75
 40
1.0
 40
1.0
 40
1.0
 40
1.0
 10
-9.79995
 20
-18.70011
 30
0.0
 10
-9.79995
 20
-18.70011
 30
0.0
 10
-9.19994
 20
-18.70011
 30
0.0
 10
-9.19994
 20
-18.70011
 30
0.0
 10
-9.19994
 20
-18.70011
 30
0.0
 10
-9.19994
 20
-18.70011
 30
0.0
 10
-9.19994
 20
-19.00011
 30
0.0
 10
-9.19994
 20
-19.00011
 30
0.0
 10
-9.19994
 20
-19.00011
 30
0.0
 10
-9.19994
 20
-19.00011
 30
0.0
 10
-9.79995
 20
-19.00011
 30
0.0
 10
-9.79995
 20
-19.00011
 30
0.0
 10
-9.79995
 20
-19.00011
 30
0.0
 10
-9.79995
 20
-19.00011
 30
0.0
 10
-9.79995
 20
-18.70011
 30
0.0
 10
-9.79995
 20
-18.70011
 30
0.0
  0
SPLINE
  5
95
330
1F
100
AcDbEntity
  8
Layer 1
370
    53
100
AcDbSpline
210
0.0
220
0.0
230
1.0
 70
    11
 71
     3
 72
    20
 73
    16
 74
     0
 42
0.0000000001
 43
0.0000000001
 40
0.0
 40
0.0
 40
0.0
 40
0.0
 40
0.25
 40
0.25
 40
0.25
 40
0.25
 40
0.5
 40
0.5
 40
0.5
 40
0.5
 40
0.75
 40
0.75
 40
0.75
 40
0.75
 40
1.0
 40
1.0
 40
1.0
 40
1.0
 10
-9.79995
 20
-16.7
 30
0.0
 10
-9.79995
 20
-16.7
 30
0.0
 10
-9.19994
 20
-16.7
 30
0.0
 10
-9.19994
 20
-16.7
 30
0.0
 10
-9.19994
 20
-16.7
 30
0.0
 10
-9.19994
 20
-16.7
 30
0.0
 10
-9.19994
 20
-17.0
 30
0.0
 10
-9.19994
 20
-17.0
 30
0.0
 10
-9.19994
 20
-17.0
 30
0.0
 10
-9.19994
 20
-17.0
 30
0.0
 10
-9.79995
 20
-17.0
 30
0.0
 10
-9.79995
 20
-17.0
 30
0.0
 10
-9.79995
 20
-17.0
 30
0.0
 10
-9.79995
 20
-17.0
 30
0.0
 10
-9.79995
 20
-16.7
 30
0.0
 10
-9.79995
 20
-16.7
 30
0.0
  0
SPLINE
  5
96
330
1F
100
AcDbEntity
  8
Layer 1
370
    53
100
AcDbSpline
210
0.0
220
0.0
230
1.0
 70
    11
 71
     3
 72
    20
 73
    16
 74
     0
 42
0.0000000001
 43
0.0000000001
 40
0.0
 40
0.0
 40
0.0
 40
0.0
 40
0.25
 40
0.25
 40
0.25
 40
0.25
 40
0.5
 40
0.5
 40
0.5
 40
0.5
 40
0.75
 40
0.75
 40
0.75
 40
0.75
 40
1.0
 40
1.0
 40
1.0
 40
1.0
 10
-9.79995
 20
-14.70007
 30
0.0
 10
-9.79995
 20
-14.70007
 30
0.0
 10
-9.19994
 20
-14.70007
 30
0.0
 10
-9.19994
 20
-14.70007
 30
0.0
 10
-9.19994
 20
-14.70007
 30
0.0
 10
-9.19994
 20
-14.70007
 30
0.0
 10
-9.19994
 20
-15.00007
 30
0.0
 10
-9.19994
 20
-15.00007
 30
0.0
 10
-9.19994
 20
-15.00007
 30
0.0
 10
-9.19994
 20
-15.00007
 30
0.0
 10
-9.79995
 20
-15.00007
 30
0.0
 10
-9.79995
 20
-15.00007
 30
0.0
 10
-9.79995
 20
-15.00007
 30
0.0
 10
-9.79995
 20
-15.00007
 30
0.0
 10
-9.79995
 20
-14.70007
 30
0.0
 10
-9.79995
 20
-14.70007
 30
0.0
  0
SPLINE
  5
97
330
1F
100
AcDbEntity
  8
Layer 1
370
    53
100
AcDbSpline
210
0.0
220
0.0
230
1.0
 70
    11
 71
     3
 72
    20
 73
    16
 74
     0
 42
0.0000000001
 43
0.0000000001
 40
0.0
 40
0.0
 40
0.0
 40
0.0
 40
0.25
 40
0.25
 40
0.25
 40
0.25
 40
0.5
 40
0.5
 40
0.5
 40
0.5
 40
0.75
 40
0.75
 40
0.75
 40
0.75
 40
1.0
 40
1.0
 40
1.0
 40
1.0
 10
-9.79995
 20
-12.69996
 30
0.0
 10
-9.79995
 20
-12.69996
 30
0.0
 10
-9.19994
 20
-12.69996
 30
0.0
 10
-9.19994
 20
-12.69996
 30
0.0
 10
-9.19994
 20
-12.69996
 30
0.0
 10
-9.19994
 20
-12.69996
 30
0.0
 10
-9.19994
 20
-12.99996
 30
0.0
 10
-9.19994
 20
-12.99996
 30
0.0
 10
-9.19994
 20
-12.99996
 30
0.0
 10
-9.19994
 20
-12.99996
 30
0.0
 10
-9.79995
 20
-12.99996
 30
0.0
 10
-9.79995
 20
-12.99996
 30
0.0
 10
-9.79995
 20
-12.99996
 30
0.0
 10
-9.79995
 20
-12.99996
 30
0.0
 10
-9.79995
 20
-12.69996
 30
0.0
 10
-9.79995
 20
-12.69996
 30
0.0
  0
SPLINE
  5
98
330
1F
100
AcDbEntity
  8
Layer 1
370
    53
100
AcDbSpline
210
0.0
220
0.0
230
1.0
 70
    11
 71
     3
 72
    20
 73
    16
 74
     0
 42
0.0000000001
 43
0.0000000001
 40
0.0
 40
0.0
 40
0.0
 40
0.0
 40
0.25
 40
0.25
 40
0.25
 40
0.25
 40
0.5
 40
0.5
 40
0.5
 40
0.5
 40
0.75
 40
0.75
 40
0.75
 40
0.75
 40
1.0
 40
1.0
 40
1.0
 40
1.0
 10
-9.79995
 20
-10.70003
 30
0.0
 10
-9.79995
 20
-10.70003
 30
0.0
 10
-9.19994
 20
-10.70003
 30
0.0
 10
-9.19994
 20
-10.70003
 30
0.0
 10
-9.19994
 20
-10.70003
 30
0.0
 10
-9.19994
 20
-10.70003
 30
0.0
 10
-9.19994
 20
-11.00003
 30
0.0
 10
-9.19994
 20
-11.00003
 30
0.0
 10
-9.19994
 20
-11.00003
 30
0.0
 10
-9.19994
 20
-11.00003
 30
0.0
 10
-9.79995
 20
-11.00003
 30
0.0
 10
-9.79995
 20
-11.00003
 30
0.0
 10
-9.79995
 20
-11.00003
 30
0.0
 10
-9.79995
 20
-11.00003
 30
0.0
 10
-9.79995
 20
-10.70003
 30
0.0
 10
-9.79995
 20
-10.70003
 30
0.0
  0
SPLINE
  5
99
330
1F
100
AcDbEntity
  8
Layer 1
370
    53
100
AcDbSpline
210
0.0
220
0.0
230
1.0
 70
    11
 71
     3
 72
    20
 73
    16
 74
     0
 42
0.0000000001
 43
0.0000000001
 40
0.0
 40
0.0
 40
0.0
 40
0.0
 40
0.25
 40
0.25
 40
0.25
 40
0.25
 40
0.5
 40
0.5
 40
0.5
 40
0.5
 40
0.75
 40
0.75
 40
0.75
 40
0.75
 40
1.0
 40
1.0
 40
1.0
 40
1.0
 10
-7.80002
 20
-18.70011
 30
0.0
 10
-7.80002
 20
-18.70011
 30
0.0
 10
-7.20001
 20
-18.70011
 30
0.0
 10
-7.20001
 20
-18.70011
 30
0.0
 10
-7.20001
 20
-18.70011
 30
0.0
 10
-7.20001
 20
-18.70011
 30
0.0
 10
-7.20001
 20
-19.00011
 30
0.0
 10
-7.20001
 20
-19.00011
 30
0.0
 10
-7.20001
 20
-19.00011
 30
0.0
 10
-7.20001
 20
-19.00011
 30
0.0
 10
-7.80002
 20
-19.00011
 30
0.0
 10
-7.80002
 20
-19.00011
 30
0.0
 10
-7.80002
 20
-19.00011
 30
0.0
 10
-7.80002
 20
-19.00011
 30
0.0
 10
-7.80002
 20
-18.70011
 30
0.0
 10
-7.80002
 20
-18.70011
 30
0.0
  0
SPLINE
  5
9A
330
1F
100
AcDbEntity
  8
Layer 1
370
    53
100
AcDbSpline
210
0.0
220
0.0
230
1.0
 70
    11
 71
     3
 72
    20
 73
    16
 74
     0
 42
0.0000000001
 43
0.0000000001
 40
0.0
 40
0.0
 40
0.0
 40
0.0
 40
0.25
 40
0.25
 40
0.25
 40
0.25
 40
0.5
 40
0.5
 40
0.5
 40
0.5
 40
0.75
 40
0.75
 40
0.75
 40
0.75
 40
1.0
 40
1.0
 40
1.0
 40
1.0
 10
-7.80002
 20
-16.7
 30
0.0
 10
-7.80002
 20
-16.7
 30
0.0
 10
-7.20001
 20
-16.7
 30
0.0
 10
-7.20001
 20
-16.7
 30
0.0
 10
-7.20001
 20
-16.7
 30
0.0
 10
-7.20001
 20
-16.7
 30
0.0
 10
-7.20001
 20
-17.0
 30
0.0
 10
-7.20001
 20
-17.0
 30
0.0
 10
-7.20001
 20
-17.0
 30
0.0
 10
-7.20001
 20
-17.0
 30
0.0
 10
-7.80002
 20
-17.0
 30
0.0
 10
-7.80002
 20
-17.0
 30
0.0
 10
-7.80002
 20
-17.0
 30
0.0
 10
-7.80002
 20
-17.0
 30
0.0
 10
-7.80002
 20
-16.7
 30
0.0
 10
-7.80002
 20
-16.7
 30
0.0
  0
SPLINE
  5
9B
330
1F
100
AcDbEntity
  8
Layer 1
370
    53
100
AcDbSpline
210
0.0
220
0.0
230
1.0
 70
    11
 71
     3
 72
    20
 73
    16
 74
     0
 42
0.0000000001
 43
0.0000000001
 40
0.0
 40
0.0
 40
0.0
 40
0.0
 40
0.25
 40
0.25
 40
0.25
 40
0.25
 40
0.5
 40
0.5
 40
0.5
 40
0.5
 40
0.75
 40
0.75
 40
0.75
 40
0.75
 40
1.0
 40
1.0
 40
1.0
 40
1.0
 10
-7.80002
 20
-14.70007
 30
0.0
 10
-7.80002
 20
-14.70007
 30
0.0
 10
-7.20001
 20
-14.70007
 30
0.0
 10
-7.20001
 20
-14.70007
 30
0.0
 10
-7.20001
 20
-14.70007
 30
0.0
 10
-7.20001
 20
-14.70007
 30
0.0
 10
-7.20001
 20
-15.00007
 30
0.0
 10
-7.20001
 20
-15.00007
 30
0.0
 10
-7.20001
 20
-15.00007
 30
0.0
 10
-7.20001
 20
-15.00007
 30
0.0
 10
-7.80002
 20
-15.00007
 30
0.0
 10
-7.80002
 20
-15.00007
 30
0.0
 10
-7.80002
 20
-15.00007
 30
0.0
 10
-7.80002
 20
-15.00007
 30
0.0
 10
-7.80002
 20
-14.70007
 30
0.0
 10
-7.80002
 20
-14.70007
 30
0.0
  0
SPLINE
  5
9C
330
1F
100
AcDbEntity
  8
Layer 1
370
    53
100
AcDbSpline
210
0.0
220
0.0
230
1.0
 70
    11
 71
     3
 72
    20
 73
    16
 74
     0
 42
0.0000000001
 43
0.0000000001
 40
0.0
 40
0.0
 40
0.0
 40
0.0
 40
0.25
 40
0.25
 40
0.25
 40
0.25
 40
0.5
 40
0.5
 40
0.5
 40
0.5
 40
0.75
 40
0.75
 40
0.75
 40
0.75
 40
1.0
 40
1.0
 40
1.0
 40
1.0
 10
-7.80002
 20
-12.69996
 30
0.0
 10
-7.80002
 20
-12.69996
 30
0.0
 10
-7.20001
 20
-12.69996
 30
0.0
 10
-7.20001
 20
-12.69996
 30
0.0
 10
-7.20001
 20
-12.69996
 30
0.0
 10
-7.20001
 20
-12.69996
 30
0.0
 10
-7.20001
 20
-12.99996
 30
0.0
 10
-7.20001
 20
-12.99996
 30
0.0
 10
-7.20001
 20
-12.99996
 30
0.0
 10
-7.20001
 20
-12.99996
 30
0.0
 10
-7.80002
 20
-12.99996
 30
0.0
 10
-7.80002
 20
-12.99996
 30
0.0
 10
-7.80002
 20
-12.99996
 30
0.0
 10
-7.80002
 20
-12.99996
 30
0.0
 10
-7.80002
 20
-12.69996
 30
0.0
 10
-7.80002
 20
-12.69996
 30
0.0
  0
SPLINE
  5
9D
330
1F
100
AcDbEntity
  8
Layer 1
370
    53
100
AcDbSpline
210
0.0
220
0.0
230
1.0
 70
    11
 71
     3
 72
    20
 73
    16
 74
     0
 42
0.0000000001
 43
0.0000000001
 40
0.0
 40
0.0
 40
0.0
 40
0.0
 40
0.25
 40
0.25
 40
0.25
 40
0.25
 40
0.5
 40
0.5
 40
0.5
 40
0.5
 40
0.75
 40
0.75
 40
0.75
 40
0.75
 40
1.0
 40
1.0
 40
1.0
 40
1.0
 10
-7.80002
 20
-10.70003
 30
0.0
 10
-7.80002
 20
-10.70003
 30
0.0
 10
-7.20001
 20
-10.70003
 30
0.0
 10
-7.20001
 20
-10.70003
 30
0.0
 10
-7.20001
 20
-10.70003
 30
0.0
 10
-7.20001
 20
-10.70003
 30
0.0
 10
-7.20001
 20
-11.00003
 30
0.0
 10
-7.20001
 20
-11.00003
 30
0.0
 10
-7.20001
 20
-11.00003
 30
0.0
 10
-7.20001
 20
-11.00003
 30
0.0
 10
-7.80002
 20
-11.00003
 30
0.0
 10
-7.80002
 20
-11.00003
 30
0.0
 10
-7.80002
 20
-11.00003
 30
0.0
 10
-7.80002
 20
-11.00003
 30
0.0
 10
-7.80002
 20
-10.70003
 30
0.0
 10
-7.80002
 20
-10.70003
 30
0.0
  0
SPLINE
  5
9E
330
1F
100
AcDbEntity
  8
Layer 1
370
    53
100
AcDbSpline
210
0.0
220
0.0
230
1.0
 70
    11
 71
     3
 72
    20
 73
    16
 74
     0
 42
0.0000000001
 43
0.0000000001
 40
0.0
 40
0.0
 40
0.0
 40
0.0
 40
0.25
 40
0.25
 40
0.25
 40
0.25
 40
0.5
 40
0.5
 40
0.5
 40
0.5
 40
0.75
 40
0.75
 40
0.75
 40
0.75
 40
1.0
 40
1.0
 40
1.0
 40
1.0
 10
-5.79994
 20
-14.70007
 30
0.0
 10
-5.79994
 20
-14.70007
 30
0.0
 10
-5.19994
 20
-14.70007
 30
0.0
 10
-5.19994
 20
-14.70007
 30
0.0
 10
-5.19994
 20
-14.70007
 30
0.0
 10
-5.19994
 20
-14.70007
 30
0.0
 10
-5.19994
 20
-15.00007
 30
0.0
 10
-5.19994
 20
-15.00007
 30
0.0
 10
-5.19994
 20
-15.00007
 30
0.0
 10
-5.19994
 20
-15.00007
 30
0.0
 10
-5.79994
 20
-15.00007
 30
0.0
 10
-5.79994
 20
-15.00007
 30
0.0
 10
-5.79994
 20
-15.00007
 30
0.0
 10
-5.79994
 20
-15.00007
 30
0.0
 10
-5.79994
 20
-14.70007
 30
0.0
 10
-5.79994
 20
-14.70007
 30
0.0
  0
SPLINE
  5
9F
330
1F
100
AcDbEntity
  8
Layer 1
370
    53
100
AcDbSpline
210
0.0
220
0.0
230
1.0
 70
    11
 71
     3
 72
    20
 73
    16
 74
     0
 42
0.0000000001
 43
0.0000000001
 40
0.0
 40
0.0
 40
0.0
 40
0.0
 40
0.25
 40
0.25
 40
0.25
 40
0.25
 40
0.5
 40
0.5
 40
0.5
 40
0.5
 40
0.75
 40
0.75
 40
0.75
 40
0.75
 40
1.0
 40
1.0
 40
1.0
 40
1.0
 10
-6.65
 20
-11.55001
 30
0.0
 10
-6.65
 20
-11.55001
 30
0.0
 10
-6.35
 20
-11.55001
 30
0.0
 10
-6.35
 20
-11.55001
 30
0.0
 10
-6.35
 20
-11.55001
 30
0.0
 10
-6.35
 20
-11.55001
 30
0.0
 10
-6.35
 20
-12.15001
 30
0.0
 10
-6.35
 20
-12.15001
 30
0.0
 10
-6.35
 20
-12.15001
 30
0.0
 10
-6.35
 20
-12.15001
 30
0.0
 10
-6.65
 20
-12.15001
 30
0.0
 10
-6.65
 20
-12.15001
 30
0.0
 10
-6.65
 20
-12.15001
 30
0.0
 10
-6.65
 20
-12.15001
 30
0.0
 10
-6.65
 20
-11.55001
 30
0.0
 10
-6.65
 20
-11.55001
 30
0.0
  0
SPLINE
  5
A0
330
1F
100
AcDbEntity
  8
Layer 1
 62
    30
370
    53
100
AcDbSpline
210
0.0
220
0.0
230
1.0
 70
    11
 71
     3
 72
    92
 73
    88
 74
     0
 42
0.0000000001
 43
0.0000000001
 40
0.0
 40
0.0
 40
0.0
 40
0.0
 40
0.0454545454545455
 40
0.0454545454545455
 40
0.0454545454545455
 40
0.0454545454545455
 40
0.0909090909090909
 40
0.0909090909090909
 40
0.0909090909090909
 40
0.0909090909090909
 40
0.1363636363636364
 40
0.1363636363636364
 40
0.1363636363636364
 40
0.1363636363636364
 40
0.1818181818181818
 40
0.1818181818181818
 40
0.1818181818181818
 40
0.1818181818181818
 40
0.2272727272727273
 40
0.2272727272727273
 40
0.2272727272727273
 40
0.2272727272727273
 40
0.2727272727272728
 40
0.2727272727272728
 40
0.2727272727272728
 40
0.2727272727272728
 40
0.3181818181818182
 40
0.3181818181818182
 40
0.3181818181818182
 40
0.3181818181818182
 40
0.3636363636363637
 40
0.3636363636363637
 40
0.3636363636363637
 40
0.3636363636363637
 40
0.4090909090909092
 40
0.4090909090909092
 40
0.4090909090909092
 40
0.4090909090909092
 40
0.4545454545454546
 40
0.4545454545454546
 40
0.4545454545454546
 40
0.4545454545454546
 40
0.5000000000000001
 40
0.5000000000000001
 40
0.5000000000000001
 40
0.5000000000000001
 40
0.5454545454545455
 40
0.5454545454545455
 40
0.5454545454545455
 40
0.5454545454545455
 40
0.5909090909090909
 40
0.5909090909090909
 40
0.5909090909090909
 40
0.5909090909090909
 40
0.6363636363636364
 40
0.6363636363636364
 40
0.6363636363636364
 40
0.6363636363636364
 40
0.6818181818181818
 40
0.6818181818181818
 40
0.6818181818181818
 40
0.6818181818181818
 40
0.7272727272727272
 40
0.7272727272727272
 40
0.7272727272727272
 40
0.7272727272727272
 40
0.7727272727272726
 40
0.7727272727272726
 40
0.7727272727272726
 40
0.7727272727272726
 40
0.818181818181818
 40
0.818181818181818
 40
0.818181818181818
 40
0.818181818181818
 40
0.8636363636363634
 40
0.8636363636363634
 40
0.8636363636363634
 40
0.8636363636363634
 40
0.9090909090909088
 40
0.9090909090909088
 40
0.9090909090909088
 40
0.9090909090909088
 40
0.9545454545454543
 40
0.9545454545454543
 40
0.9545454545454543
 40
0.9545454545454543
 40
1.0
 40
1.0
 40
1.0
 40
1.0
 10
-13.84755
 20
-13.90037
 30
0.0
 10
-13.85207
 20
-13.92457
 30
0.0
 10
-13.85997
 20
-13.94454
 30
0.0
 10
-13.87105
 20
-13.9602
 30
0.0
 10
-13.87105
 20
-13.9602
 30
0.0
 10
-13.88219
 20
-13.9758
 30
0.0
 10
-13.89645
 20
-13.98737
 30
0.0
 10
-13.9138
 20
-13.99492
 30
0.0
 10
-13.9138
 20
-13.99492
 30
0.0
 10
-13.93109
 20
-14.00247
 30
0.0
 10
-13.95141
 20
-14.00628
 30
0.0
 10
-13.97455
 20
-14.00621
 30
0.0
 10
-13.97455
 20
-14.00621
 30
0.0
 10
-14.0027
 20
-14.00628
 30
0.0
 10
-14.02662
 20
-14.00084
 30
0.0
 10
-14.04624
 20
-13.98977
 30
0.0
 10
-14.04624
 20
-13.98977
 30
0.0
 10
-14.06585
 20
-13.97876
 30
0.0
 10
-14.08081
 20
-13.96176
 30
0.0
 10
-14.09111
 20
-13.93869
 30
0.0
 10
-14.09111
 20
-13.93869
 30
0.0
 10
-14.10141
 20
-13.91561
 30
0.0
 10
-14.10656
 20
-13.88605
 30
0.0
 10
-14.10663
 20
-13.85
 30
0.0
 10
-14.10663
 20
-13.85
 30
0.0
 10
-14.10656
 20
-13.81409
 30
0.0
 10
-14.10141
 20
-13.78459
 30
0.0
 10
-14.09111
 20
-13.76152
 30
0.0
 10
-14.09111
 20
-13.76152
 30
0.0
 10
-14.08081
 20
-13.73845
 30
0.0
 10
-14.06585
 20
-13.72138
 30
0.0
 10
-14.04624
 20
-13.7103
 30
0.0
 10
-14.04624
 20
-13.7103
 30
0.0
 10
-14.02662
 20
-13.69922
 30
0.0
 10
-14.0027
 20
-13.69372
 30
0.0
 10
-13.97455
 20
-13.69379
 30
0.0
 10
-13.97455
 20
-13.69379
 30
0.0
 10
-13.94442
 20
-13.69372
 30
0.0
 10
-13.91917
 20
-13.70014
 30
0.0
 10
-13.89885
 20
-13.71305
 30
0.0
 10
-13.89885
 20
-13.71305
 30
0.0
 10
-13.8786
 20
-13.72596
 30
0.0
 10
-13.86371
 20
-13.74593
 30
0.0
 10
-13.85433
 20
-13.77295
 30
0.0
 10
-13.85433
 20
-13.77295
 30
0.0
 10
-13.86371
 20
-13.74593
 30
0.0
 10
-13.8786
 20
-13.72596
 30
0.0
 10
-13.89885
 20
-13.71305
 30
0.0
 10
-13.89885
 20
-13.71305
 30
0.0
 10
-13.91917
 20
-13.70014
 30
0.0
 10
-13.94442
 20
-13.69372
 30
0.0
 10
-13.97455
 20
-13.69379
 30
0.0
 10
-13.97455
 20
-13.69379
 30
0.0
 10
-14.0027
 20
-13.69372
 30
0.0
 10
-14.02662
 20
-13.69922
 30
0.0
 10
-14.04624
 20
-13.7103
 30
0.0
 10
-14.04624
 20
-13.7103
 30
0.0
 10
-14.06585
 20
-13.72138
 30
0.0
 10
-14.08081
 20
-13.73845
 30
0.0
 10
-14.09111
 20
-13.76152
 30
0.0
 10
-14.09111
 20
-13.76152
 30
0.0
 10
-14.10141
 20
-13.78459
 30
0.0
 10
-14.10656
 20
-13.81409
 30
0.0
 10
-14.10663
 20
-13.85
 30
0.0
 10
-14.10663
 20
-13.85
 30
0.0
 10
-14.10656
 20
-13.88605
 30
0.0
 10
-14.10141
 20
-13.91561
 30
0.0
 10
-14.09111
 20
-13.93869
 30
0.0
 10
-14.09111
 20
-13.93869
 30
0.0
 10
-14.08081
 20
-13.96176
 30
0.0
 10
-14.06585
 20
-13.97876
 30
0.0
 10
-14.04624
 20
-13.98977
 30
0.0
 10
-14.04624
 20
-13.98977
 30
0.0
 10
-14.02662
 20
-14.00084
 30
0.0
 10
-14.0027
 20
-14.00628
 30
0.0
 10
-13.97455
 20
-14.00621
 30
0.0
 10
-13.97455
 20
-14.00621
 30
0.0
 10
-13.95141
 20
-14.00628
 30
0.0
 10
-13.93109
 20
-14.00247
 30
0.0
 10
-13.9138
 20
-13.99492
 30
0.0
 10
-13.9138
 20
-13.99492
 30
0.0
 10
-13.89645
 20
-13.98737
 30
0.0
 10
-13.88219
 20
-13.9758
 30
0.0
 10
-13.87105
 20
-13.9602
 30
0.0
 10
-13.87105
 20
-13.9602
 30
0.0
 10
-13.85997
 20
-13.94454
 30
0.0
 10
-13.85207
 20
-13.92457
 30
0.0
 10
-13.84755
 20
-13.90037
 30
0.0
  0
SPLINE
  5
A1
330
1F
100
AcDbEntity
  8
Layer 1
 62
    30
370
    53
100
AcDbSpline
210
0.0
220
0.0
230
1.0
 70
    27
 71
     3
 72
    12
 73
     8
 74
     0
 42
0.0000000001
 43
0.0000000001
 40
0.0
 40
0.0
 40
0.0
 40
0.0
 40
0.5
 40
0.5
 40
0.5
 40
0.5
 40
1.0
 40
1.0
 40
1.0
 40
1.0
 10
-13.69769
 20
-14.00282
 30
0.0
 10
-13.69769
 20
-14.00282
 30
0.0
 10
-13.69769
 20
-13.6976
 30
0.0
 10
-13.69769
 20
-13.6976
 30
0.0
 10
-13.69769
 20
-13.6976
 30
0.0
 10
-13.69769
 20
-13.6976
 30
0.0
 10
-13.69769
 20
-14.00282
 30
0.0
 10
-13.69769
 20
-14.00282
 30
0.0
  0
SPLINE
  5
A2
330
1F
100
AcDbEntity
  8
Layer 1
 62
    30
370
    53
100
AcDbSpline
210
0.0
220
0.0
230
1.0
 70
    27
 71
     3
 72
    12
 73
     8
 74
     0
 42
0.0000000001
 43
0.0000000001
 40
0.0
 40
0.0
 40
0.0
 40
0.0
 40
0.5
 40
0.5
 40
0.5
 40
0.5
 40
1.0
 40
1.0
 40
1.0
 40
1.0
 10
-13.55672
 20
-13.84322
 30
0.0
 10
-13.55672
 20
-13.84322
 30
0.0
 10
-13.43353
 20
-13.84322
 30
0.0
 10
-13.43353
 20
-13.84322
 30
0.0
 10
-13.43353
 20
-13.84322
 30
0.0
 10
-13.43353
 20
-13.84322
 30
0.0
 10
-13.55672
 20
-13.84322
 30
0.0
 10
-13.55672
 20
-13.84322
 30
0.0
  0
SPLINE
  5
A3
330
1F
100
AcDbEntity
  8
Layer 1
 62
    30
370
    53
100
AcDbSpline
210
0.0
220
0.0
230
1.0
 70
    11
 71
     3
 72
    84
 73
    80
 74
     0
 42
0.0000000001
 43
0.0000000001
 40
0.0
 40
0.0
 40
0.0
 40
0.0
 40
0.05
 40
0.05
 40
0.05
 40
0.05
 40
0.1
 40
0.1
 40
0.1
 40
0.1
 40
0.15
 40
0.15
 40
0.15
 40
0.15
 40
0.2
 40
0.2
 40
0.2
 40
0.2
 40
0.25
 40
0.25
 40
0.25
 40
0.25
 40
0.3
 40
0.3
 40
0.3
 40
0.3
 40
0.35
 40
0.35
 40
0.35
 40
0.35
 40
0.4
 40
0.4
 40
0.4
 40
0.4
 40
0.45
 40
0.45
 40
0.45
 40
0.45
 40
0.4999999999999999
 40
0.4999999999999999
 40
0.4999999999999999
 40
0.4999999999999999
 40
0.5499999999999999
 40
0.5499999999999999
 40
0.5499999999999999
 40
0.5499999999999999
 40
0.6
 40
0.6
 40
0.6
 40
0.6
 40
0.65
 40
0.65
 40
0.65
 40
0.65
 40
0.7000000000000001
 40
0.7000000000000001
 40
0.7000000000000001
 40
0.7000000000000001
 40
0.7500000000000001
 40
0.7500000000000001
 40
0.7500000000000001
 40
0.7500000000000001
 40
0.8000000000000002
 40
0.8000000000000002
 40
0.8000000000000002
 40
0.8000000000000002
 40
0.8500000000000002
 40
0.8500000000000002
 40
0.8500000000000002
 40
0.8500000000000002
 40
0.9000000000000002
 40
0.9000000000000002
 40
0.9000000000000002
 40
0.9000000000000002
 40
0.9500000000000003
 40
0.9500000000000003
 40
0.9500000000000003
 40
0.9500000000000003
 40
1.0
 40
1.0
 40
1.0
 40
1.0
 10
-13.2443
 20
-14.00282
 30
0.0
 10
-13.22949
 20
-14.00275
 30
0.0
 10
-13.21672
 20
-14.00014
 30
0.0
 10
-13.20606
 20
-13.99506
 30
0.0
 10
-13.20606
 20
-13.99506
 30
0.0
 10
-13.19548
 20
-13.98998
 30
0.0
 10
-13.18666
 20
-13.98271
 30
0.0
 10
-13.17961
 20
-13.97347
 30
0.0
 10
-13.17961
 20
-13.97347
 30
0.0
 10
-13.17262
 20
-13.96416
 30
0.0
 10
-13.16712
 20
-13.95315
 30
0.0
 10
-13.16303
 20
-13.94045
 30
0.0
 10
-13.16303
 20
-13.94045
 30
0.0
 10
-13.159
 20
-13.92775
 30
0.0
 10
-13.15611
 20
-13.91385
 30
0.0
 10
-13.15449
 20
-13.89861
 30
0.0
 10
-13.15449
 20
-13.89861
 30
0.0
 10
-13.15279
 20
-13.88337
 30
0.0
 10
-13.15195
 20
-13.86735
 30
0.0
 10
-13.15202
 20
-13.85042
 30
0.0
 10
-13.15202
 20
-13.85042
 30
0.0
 10
-13.15195
 20
-13.83356
 30
0.0
 10
-13.15279
 20
-13.81754
 30
0.0
 10
-13.15449
 20
-13.80237
 30
0.0
 10
-13.15449
 20
-13.80237
 30
0.0
 10
-13.15611
 20
-13.7872
 30
0.0
 10
-13.159
 20
-13.77323
 30
0.0
 10
-13.16303
 20
-13.76053
 30
0.0
 10
-13.16303
 20
-13.76053
 30
0.0
 10
-13.16712
 20
-13.7479
 30
0.0
 10
-13.17262
 20
-13.7369
 30
0.0
 10
-13.17961
 20
-13.72751
 30
0.0
 10
-13.17961
 20
-13.72751
 30
0.0
 10
-13.18666
 20
-13.7182
 30
0.0
 10
-13.19548
 20
-13.71093
 30
0.0
 10
-13.20606
 20
-13.70585
 30
0.0
 10
-13.20606
 20
-13.70585
 30
0.0
 10
-13.21672
 20
-13.7007
 30
0.0
 10
-13.22949
 20
-13.69809
 30
0.0
 10
-13.2443
 20
-13.69802
 30
0.0
 10
-13.2443
 20
-13.69802
 30
0.0
 10
-13.25912
 20
-13.69809
 30
0.0
 10
-13.27189
 20
-13.7007
 30
0.0
 10
-13.28255
 20
-13.70585
 30
0.0
 10
-13.28255
 20
-13.70585
 30
0.0
 10
-13.29313
 20
-13.71093
 30
0.0
 10
-13.30195
 20
-13.7182
 30
0.0
 10
-13.309
 20
-13.72751
 30
0.0
 10
-13.309
 20
-13.72751
 30
0.0
 10
-13.31599
 20
-13.7369
 30
0.0
 10
-13.32149
 20
-13.7479
 30
0.0
 10
-13.32558
 20
-13.76053
 30
0.0
 10
-13.32558
 20
-13.76053
 30
0.0
 10
-13.32961
 20
-13.77323
 30
0.0
 10
-13.3325
 20
-13.7872
 30
0.0
 10
-13.33412
 20
-13.80237
 30
0.0
 10
-13.33412
 20
-13.80237
 30
0.0
 10
-13.33581
 20
-13.81754
 30
0.0
 10
-13.33666
 20
-13.83356
 30
0.0
 10
-13.33659
 20
-13.85042
 30
0.0
 10
-13.33659
 20
-13.85042
 30
0.0
 10
-13.33666
 20
-13.86735
 30
0.0
 10
-13.33581
 20
-13.88337
 30
0.0
 10
-13.33412
 20
-13.89861
 30
0.0
 10
-13.33412
 20
-13.89861
 30
0.0
 10
-13.3325
 20
-13.91385
 30
0.0
 10
-13.32961
 20
-13.92775
 30
0.0
 10
-13.32558
 20
-13.94045
 30
0.0
 10
-13.32558
 20
-13.94045
 30
0.0
 10
-13.32149
 20
-13.95315
 30
0.0
 10
-13.31599
 20
-13.96416
 30
0.0
 10
-13.309
 20
-13.97347
 30
0.0
 10
-13.309
 20
-13.97347
 30
0.0
 10
-13.30195
 20
-13.98271
 30
0.0
 10
-13.29313
 20
-13.98998
 30
0.0
 10
-13.28255
 20
-13.99506
 30
0.0
 10
-13.28255
 20
-13.99506
 30
0.0
 10
-13.27189
 20
-14.00014
 30
0.0
 10
-13.25912
 20
-14.00275
 30
0.0
 10
-13.2443
 20
-14.00282
 30
0.0
  0
SPLINE
  5
A4
330
1F
100
AcDbEntity
  8
Layer 1
 62
    30
370
    53
100
AcDbSpline
210
0.0
220
0.0
230
1.0
 70
    11
 71
     3
 72
    84
 73
    80
 74
     0
 42
0.0000000001
 43
0.0000000001
 40
0.0
 40
0.0
 40
0.0
 40
0.0
 40
0.05
 40
0.05
 40
0.05
 40
0.05
 40
0.1
 40
0.1
 40
0.1
 40
0.1
 40
0.15
 40
0.15
 40
0.15
 40
0.15
 40
0.2
 40
0.2
 40
0.2
 40
0.2
 40
0.25
 40
0.25
 40
0.25
 40
0.25
 40
0.3
 40
0.3
 40
0.3
 40
0.3
 40
0.35
 40
0.35
 40
0.35
 40
0.35
 40
0.4
 40
0.4
 40
0.4
 40
0.4
 40
0.45
 40
0.45
 40
0.45
 40
0.45
 40
0.4999999999999999
 40
0.4999999999999999
 40
0.4999999999999999
 40
0.4999999999999999
 40
0.5499999999999999
 40
0.5499999999999999
 40
0.5499999999999999
 40
0.5499999999999999
 40
0.6
 40
0.6
 40
0.6
 40
0.6
 40
0.65
 40
0.65
 40
0.65
 40
0.65
 40
0.7000000000000001
 40
0.7000000000000001
 40
0.7000000000000001
 40
0.7000000000000001
 40
0.7500000000000001
 40
0.7500000000000001
 40
0.7500000000000001
 40
0.7500000000000001
 40
0.8000000000000002
 40
0.8000000000000002
 40
0.8000000000000002
 40
0.8000000000000002
 40
0.8500000000000002
 40
0.8500000000000002
 40
0.8500000000000002
 40
0.8500000000000002
 40
0.9000000000000002
 40
0.9000000000000002
 40
0.9000000000000002
 40
0.9000000000000002
 40
0.9500000000000003
 40
0.9500000000000003
 40
0.9500000000000003
 40
0.9500000000000003
 40
1.0
 40
1.0
 40
1.0
 40
1.0
 10
-13.2443
 20
-14.00282
 30
0.0
 10
-13.22949
 20
-14.00275
 30
0.0
 10
-13.21672
 20
-14.00014
 30
0.0
 10
-13.20606
 20
-13.99506
 30
0.0
 10
-13.20606
 20
-13.99506
 30
0.0
 10
-13.19548
 20
-13.98998
 30
0.0
 10
-13.18666
 20
-13.98271
 30
0.0
 10
-13.17961
 20
-13.97347
 30
0.0
 10
-13.17961
 20
-13.97347
 30
0.0
 10
-13.17262
 20
-13.96416
 30
0.0
 10
-13.16712
 20
-13.95315
 30
0.0
 10
-13.16303
 20
-13.94045
 30
0.0
 10
-13.16303
 20
-13.94045
 30
0.0
 10
-13.159
 20
-13.92775
 30
0.0
 10
-13.15611
 20
-13.91385
 30
0.0
 10
-13.15449
 20
-13.89861
 30
0.0
 10
-13.15449
 20
-13.89861
 30
0.0
 10
-13.15279
 20
-13.88337
 30
0.0
 10
-13.15195
 20
-13.86735
 30
0.0
 10
-13.15202
 20
-13.85042
 30
0.0
 10
-13.15202
 20
-13.85042
 30
0.0
 10
-13.15195
 20
-13.83356
 30
0.0
 10
-13.15279
 20
-13.81754
 30
0.0
 10
-13.15449
 20
-13.80237
 30
0.0
 10
-13.15449
 20
-13.80237
 30
0.0
 10
-13.15611
 20
-13.7872
 30
0.0
 10
-13.159
 20
-13.77323
 30
0.0
 10
-13.16303
 20
-13.76053
 30
0.0
 10
-13.16303
 20
-13.76053
 30
0.0
 10
-13.16712
 20
-13.7479
 30
0.0
 10
-13.17262
 20
-13.7369
 30
0.0
 10
-13.17961
 20
-13.72751
 30
0.0
 10
-13.17961
 20
-13.72751
 30
0.0
 10
-13.18666
 20
-13.7182
 30
0.0
 10
-13.19548
 20
-13.71093
 30
0.0
 10
-13.20606
 20
-13.70585
 30
0.0
 10
-13.20606
 20
-13.70585
 30
0.0
 10
-13.21672
 20
-13.7007
 30
0.0
 10
-13.22949
 20
-13.69809
 30
0.0
 10
-13.2443
 20
-13.69802
 30
0.0
 10
-13.2443
 20
-13.69802
 30
0.0
 10
-13.25912
 20
-13.69809
 30
0.0
 10
-13.27189
 20
-13.7007
 30
0.0
 10
-13.28255
 20
-13.70585
 30
0.0
 10
-13.28255
 20
-13.70585
 30
0.0
 10
-13.29313
 20
-13.71093
 30
0.0
 10
-13.30195
 20
-13.7182
 30
0.0
 10
-13.309
 20
-13.72751
 30
0.0
 10
-13.309
 20
-13.72751
 30
0.0
 10
-13.31599
 20
-13.7369
 30
0.0
 10
-13.32149
 20
-13.7479
 30
0.0
 10
-13.32558
 20
-13.76053
 30
0.0
 10
-13.32558
 20
-13.76053
 30
0.0
 10
-13.32961
 20
-13.77323
 30
0.0
 10
-13.3325
 20
-13.7872
 30
0.0
 10
-13.33412
 20
-13.80237
 30
0.0
 10
-13.33412
 20
-13.80237
 30
0.0
 10
-13.33581
 20
-13.81754
 30
0.0
 10
-13.33666
 20
-13.83356
 30
0.0
 10
-13.33659
 20
-13.85042
 30
0.0
 10
-13.33659
 20
-13.85042
 30
0.0
 10
-13.33666
 20
-13.86735
 30
0.0
 10
-13.33581
 20
-13.88337
 30
0.0
 10
-13.33412
 20
-13.89861
 30
0.0
 10
-13.33412
 20
-13.89861
 30
0.0
 10
-13.3325
 20
-13.91385
 30
0.0
 10
-13.32961
 20
-13.92775
 30
0.0
 10
-13.32558
 20
-13.94045
 30
0.0
 10
-13.32558
 20
-13.94045
 30
0.0
 10
-13.32149
 20
-13.95315
 30
0.0
 10
-13.31599
 20
-13.96416
 30
0.0
 10
-13.309
 20
-13.97347
 30
0.0
 10
-13.309
 20
-13.97347
 30
0.0
 10
-13.30195
 20
-13.98271
 30
0.0
 10
-13.29313
 20
-13.98998
 30
0.0
 10
-13.28255
 20
-13.99506
 30
0.0
 10
-13.28255
 20
-13.99506
 30
0.0
 10
-13.27189
 20
-14.00014
 30
0.0
 10
-13.25912
 20
-14.00275
 30
0.0
 10
-13.2443
 20
-14.00282
 30
0.0
  0
SPLINE
  5
A5
330
1F
100
AcDbEntity
  8
Layer 1
 62
    30
370
    53
100
AcDbSpline
210
0.0
220
0.0
230
1.0
 70
    11
 71
     3
 72
   236
 73
   232
 74
     0
 42
0.0000000001
 43
0.0000000001
 40
0.0
 40
0.0
 40
0.0
 40
0.0
 40
0.0172413793103448
 40
0.0172413793103448
 40
0.0172413793103448
 40
0.0172413793103448
 40
0.0344827586206897
 40
0.0344827586206897
 40
0.0344827586206897
 40
0.0344827586206897
 40
0.0517241379310345
 40
0.0517241379310345
 40
0.0517241379310345
 40
0.0517241379310345
 40
0.0689655172413793
 40
0.0689655172413793
 40
0.0689655172413793
 40
0.0689655172413793
 40
0.0862068965517241
 40
0.0862068965517241
 40
0.0862068965517241
 40
0.0862068965517241
 40
0.103448275862069
 40
0.103448275862069
 40
0.103448275862069
 40
0.103448275862069
 40
0.1206896551724138
 40
0.1206896551724138
 40
0.1206896551724138
 40
0.1206896551724138
 40
0.1379310344827586
 40
0.1379310344827586
 40
0.1379310344827586
 40
0.1379310344827586
 40
0.1551724137931035
 40
0.1551724137931035
 40
0.1551724137931035
 40
0.1551724137931035
 40
0.1724137931034483
 40
0.1724137931034483
 40
0.1724137931034483
 40
0.1724137931034483
 40
0.1896551724137931
 40
0.1896551724137931
 40
0.1896551724137931
 40
0.1896551724137931
 40
0.206896551724138
 40
0.206896551724138
 40
0.206896551724138
 40
0.206896551724138
 40
0.2241379310344828
 40
0.2241379310344828
 40
0.2241379310344828
 40
0.2241379310344828
 40
0.2413793103448277
 40
0.2413793103448277
 40
0.2413793103448277
 40
0.2413793103448277
 40
0.2586206896551725
 40
0.2586206896551725
 40
0.2586206896551725
 40
0.2586206896551725
 40
0.2758620689655173
 40
0.2758620689655173
 40
0.2758620689655173
 40
0.2758620689655173
 40
0.2931034482758621
 40
0.2931034482758621
 40
0.2931034482758621
 40
0.2931034482758621
 40
0.3103448275862069
 40
0.3103448275862069
 40
0.3103448275862069
 40
0.3103448275862069
 40
0.3275862068965517
 40
0.3275862068965517
 40
0.3275862068965517
 40
0.3275862068965517
 40
0.3448275862068965
 40
0.3448275862068965
 40
0.3448275862068965
 40
0.3448275862068965
 40
0.3620689655172413
 40
0.3620689655172413
 40
0.3620689655172413
 40
0.3620689655172413
 40
0.3793103448275861
 40
0.3793103448275861
 40
0.3793103448275861
 40
0.3793103448275861
 40
0.3965517241379309
 40
0.3965517241379309
 40
0.3965517241379309
 40
0.3965517241379309
 40
0.4137931034482757
 40
0.4137931034482757
 40
0.4137931034482757
 40
0.4137931034482757
 40
0.4310344827586206
 40
0.4310344827586206
 40
0.4310344827586206
 40
0.4310344827586206
 40
0.4482758620689654
 40
0.4482758620689654
 40
0.4482758620689654
 40
0.4482758620689654
 40
0.4655172413793102
 40
0.4655172413793102
 40
0.4655172413793102
 40
0.4655172413793102
 40
0.482758620689655
 40
0.482758620689655
 40
0.482758620689655
 40
0.482758620689655
 40
0.4999999999999998
 40
0.4999999999999998
 40
0.4999999999999998
 40
0.4999999999999998
 40
0.5172413793103446
 40
0.5172413793103446
 40
0.5172413793103446
 40
0.5172413793103446
 40
0.5344827586206895
 40
0.5344827586206895
 40
0.5344827586206895
 40
0.5344827586206895
 40
0.5517241379310344
 40
0.5517241379310344
 40
0.5517241379310344
 40
0.5517241379310344
 40
0.5689655172413792
 40
0.5689655172413792
 40
0.5689655172413792
 40
0.5689655172413792
 40
0.5862068965517241
 40
0.5862068965517241
 40
0.5862068965517241
 40
0.5862068965517241
 40
0.603448275862069
 40
0.603448275862069
 40
0.603448275862069
 40
0.603448275862069
 40
0.6206896551724138
 40
0.6206896551724138
 40
0.6206896551724138
 40
0.6206896551724138
 40
0.6379310344827587
 40
0.6379310344827587
 40
0.6379310344827587
 40
0.6379310344827587
 40
0.6551724137931035
 40
0.6551724137931035
 40
0.6551724137931035
 40
0.6551724137931035
 40
0.6724137931034484
 40
0.6724137931034484
 40
0.6724137931034484
 40
0.6724137931034484
 40
0.6896551724137933
 40
0.6896551724137933
 40
0.6896551724137933
 40
0.6896551724137933
 40
0.7068965517241381
 40
0.7068965517241381
 40
0.7068965517241381
 40
0.7068965517241381
 40
0.724137931034483
 40
0.724137931034483
 40
0.724137931034483
 40
0.724137931034483
 40
0.7413793103448278
 40
0.7413793103448278
 40
0.7413793103448278
 40
0.7413793103448278
 40
0.7586206896551727
 40
0.7586206896551727
 40
0.7586206896551727
 40
0.7586206896551727
 40
0.7758620689655176
 40
0.7758620689655176
 40
0.7758620689655176
 40
0.7758620689655176
 40
0.7931034482758624
 40
0.7931034482758624
 40
0.7931034482758624
 40
0.7931034482758624
 40
0.8103448275862073
 40
0.8103448275862073
 40
0.8103448275862073
 40
0.8103448275862073
 40
0.8275862068965522
 40
0.8275862068965522
 40
0.8275862068965522
 40
0.8275862068965522
 40
0.844827586206897
 40
0.844827586206897
 40
0.844827586206897
 40
0.844827586206897
 40
0.8620689655172419
 40
0.8620689655172419
 40
0.8620689655172419
 40
0.8620689655172419
 40
0.8793103448275867
 40
0.8793103448275867
 40
0.8793103448275867
 40
0.8793103448275867
 40
0.8965517241379316
 40
0.8965517241379316
 40
0.8965517241379316
 40
0.8965517241379316
 40
0.9137931034482765
 40
0.9137931034482765
 40
0.9137931034482765
 40
0.9137931034482765
 40
0.9310344827586213
 40
0.9310344827586213
 40
0.9310344827586213
 40
0.9310344827586213
 40
0.9482758620689662
 40
0.9482758620689662
 40
0.9482758620689662
 40
0.9482758620689662
 40
0.965517241379311
 40
0.965517241379311
 40
0.965517241379311
 40
0.965517241379311
 40
0.9827586206896559
 40
0.9827586206896559
 40
0.9827586206896559
 40
0.9827586206896559
 40
1.0
 40
1.0
 40
1.0
 40
1.0
 10
-13.03179
 20
-13.91096
 30
0.0
 10
-13.03172
 20
-13.89713
 30
0.0
 10
-13.02947
 20
-13.88464
 30
0.0
 10
-13.02495
 20
-13.87335
 30
0.0
 10
-13.02495
 20
-13.87335
 30
0.0
 10
-13.02051
 20
-13.86213
 30
0.0
 10
-13.01423
 20
-13.85247
 30
0.0
 10
-13.00611
 20
-13.84435
 30
0.0
 10
-13.00611
 20
-13.84435
 30
0.0
 10
-12.99807
 20
-13.83631
 30
0.0
 10
-12.98854
 20
-13.8301
 30
0.0
 10
-12.97768
 20
-13.82573
 30
0.0
 10
-12.97768
 20
-13.82573
 30
0.0
 10
-12.96681
 20
-13.82135
 30
0.0
 10
-12.95489
 20
-13.81917
 30
0.0
 10
-12.94205
 20
-13.81909
 30
0.0
 10
-12.94205
 20
-13.81909
 30
0.0
 10
-12.92914
 20
-13.81902
 30
0.0
 10
-12.91707
 20
-13.82065
 30
0.0
 10
-12.90585
 20
-13.82389
 30
0.0
 10
-12.90585
 20
-13.82389
 30
0.0
 10
-12.89463
 20
-13.82707
 30
0.0
 10
-12.88483
 20
-13.83229
 30
0.0
 10
-12.87629
 20
-13.83949
 30
0.0
 10
-12.87629
 20
-13.83949
 30
0.0
 10
-12.86775
 20
-13.84661
 30
0.0
 10
-12.86105
 20
-13.85607
 30
0.0
 10
-12.85625
 20
-13.86785
 30
0.0
 10
-12.85625
 20
-13.86785
 30
0.0
 10
-12.85146
 20
-13.87963
 30
0.0
 10
-12.84899
 20
-13.89395
 30
0.0
 10
-12.84892
 20
-13.91096
 30
0.0
 10
-12.84892
 20
-13.91096
 30
0.0
 10
-12.84899
 20
-13.92796
 30
0.0
 10
-12.85146
 20
-13.94228
 30
0.0
 10
-12.85625
 20
-13.95407
 30
0.0
 10
-12.85625
 20
-13.95407
 30
0.0
 10
-12.86105
 20
-13.96585
 30
0.0
 10
-12.86775
 20
-13.9753
 30
0.0
 10
-12.87629
 20
-13.98243
 30
0.0
 10
-12.87629
 20
-13.98243
 30
0.0
 10
-12.88483
 20
-13.98963
 30
0.0
 10
-12.89463
 20
-13.99485
 30
0.0
 10
-12.90585
 20
-13.99802
 30
0.0
 10
-12.90585
 20
-13.99802
 30
0.0
 10
-12.91707
 20
-14.00127
 30
0.0
 10
-12.92914
 20
-14.00289
 30
0.0
 10
-12.94205
 20
-14.00282
 30
0.0
 10
-12.94205
 20
-14.00282
 30
0.0
 10
-12.95489
 20
-14.00275
 30
0.0
 10
-12.96667
 20
-14.00056
 30
0.0
 10
-12.97747
 20
-13.99619
 30
0.0
 10
-12.97747
 20
-13.99619
 30
0.0
 10
-12.98819
 20
-13.99181
 30
0.0
 10
-12.9975
 20
-13.9856
 30
0.0
 10
-13.00548
 20
-13.97749
 30
0.0
 10
-13.00548
 20
-13.97749
 30
0.0
 10
-13.01345
 20
-13.96945
 30
0.0
 10
-13.01973
 20
-13.95978
 30
0.0
 10
-13.02424
 20
-13.94849
 30
0.0
 10
-13.02424
 20
-13.94849
 30
0.0
 10
-13.02883
 20
-13.93727
 30
0.0
 10
-13.0313
 20
-13.92479
 30
0.0
 10
-13.03179
 20
-13.91096
 30
0.0
 10
-13.03179
 20
-13.91096
 30
0.0
 10
-13.03208
 20
-13.90397
 30
0.0
 10
-13.03243
 20
-13.89565
 30
0.0
 10
-13.03292
 20
-13.88598
 30
0.0
 10
-13.03292
 20
-13.88598
 30
0.0
 10
-13.03342
 20
-13.87624
 30
0.0
 10
-13.0337
 20
-13.86566
 30
0.0
 10
-13.03377
 20
-13.8543
 30
0.0
 10
-13.03377
 20
-13.8543
 30
0.0
 10
-13.03384
 20
-13.84287
 30
0.0
 10
-13.03349
 20
-13.83109
 30
0.0
 10
-13.03257
 20
-13.81902
 30
0.0
 10
-13.03257
 20
-13.81902
 30
0.0
 10
-13.03172
 20
-13.80689
 30
0.0
 10
-13.03003
 20
-13.79496
 30
0.0
 10
-13.02756
 20
-13.78318
 30
0.0
 10
-13.02756
 20
-13.78318
 30
0.0
 10
-13.02509
 20
-13.77147
 30
0.0
 10
-13.02156
 20
-13.76039
 30
0.0
 10
-13.01691
 20
-13.75002
 30
0.0
 10
-13.01691
 20
-13.75002
 30
0.0
 10
-13.01225
 20
-13.73965
 30
0.0
 10
-13.00625
 20
-13.73048
 30
0.0
 10
-12.99884
 20
-13.7225
 30
0.0
 10
-12.99884
 20
-13.7225
 30
0.0
 10
-12.99137
 20
-13.71453
 30
0.0
 10
-12.98226
 20
-13.70825
 30
0.0
 10
-12.97147
 20
-13.70367
 30
0.0
 10
-12.97147
 20
-13.70367
 30
0.0
 10
-12.96067
 20
-13.69915
 30
0.0
 10
-12.9479
 20
-13.69682
 30
0.0
 10
-12.93316
 20
-13.69675
 30
0.0
 10
-12.93316
 20
-13.69675
 30
0.0
 10
-12.92032
 20
-13.69682
 30
0.0
 10
-12.90945
 20
-13.69809
 30
0.0
 10
-12.90042
 20
-13.70056
 30
0.0
 10
-12.90042
 20
-13.70056
 30
0.0
 10
-12.89139
 20
-13.70303
 30
0.0
 10
-12.88398
 20
-13.70635
 30
0.0
 10
-12.87805
 20
-13.71044
 30
0.0
 10
-12.87805
 20
-13.71044
 30
0.0
 10
-12.8722
 20
-13.7146
 30
0.0
 10
-12.86754
 20
-13.71912
 30
0.0
 10
-12.86416
 20
-13.72413
 30
0.0
 10
-12.86416
 20
-13.72413
 30
0.0
 10
-12.86077
 20
-13.72907
 30
0.0
 10
-12.85823
 20
-13.73408
 30
0.0
 10
-12.85668
 20
-13.73909
 30
0.0
 10
-12.85668
 20
-13.73909
 30
0.0
 10
-12.85505
 20
-13.74409
 30
0.0
 10
-12.854
 20
-13.74875
 30
0.0
 10
-12.85357
 20
-13.75306
 30
0.0
 10
-12.85357
 20
-13.75306
 30
0.0
 10
-12.854
 20
-13.74875
 30
0.0
 10
-12.85505
 20
-13.74409
 30
0.0
 10
-12.85668
 20
-13.73909
 30
0.0
 10
-12.85668
 20
-13.73909
 30
0.0
 10
-12.85823
 20
-13.73408
 30
0.0
 10
-12.86077
 20
-13.72907
 30
0.0
 10
-12.86416
 20
-13.72413
 30
0.0
 10
-12.86416
 20
-13.72413
 30
0.0
 10
-12.86754
 20
-13.71912
 30
0.0
 10
-12.8722
 20
-13.7146
 30
0.0
 10
-12.87805
 20
-13.71044
 30
0.0
 10
-12.87805
 20
-13.71044
 30
0.0
 10
-12.88398
 20
-13.70635
 30
0.0
 10
-12.89139
 20
-13.70303
 30
0.0
 10
-12.90042
 20
-13.70056
 30
0.0
 10
-12.90042
 20
-13.70056
 30
0.0
 10
-12.90945
 20
-13.69809
 30
0.0
 10
-12.92032
 20
-13.69682
 30
0.0
 10
-12.93316
 20
-13.69675
 30
0.0
 10
-12.93316
 20
-13.69675
 30
0.0
 10
-12.9479
 20
-13.69682
 30
0.0
 10
-12.96067
 20
-13.69915
 30
0.0
 10
-12.97147
 20
-13.70367
 30
0.0
 10
-12.97147
 20
-13.70367
 30
0.0
 10
-12.98226
 20
-13.70825
 30
0.0
 10
-12.99137
 20
-13.71453
 30
0.0
 10
-12.99884
 20
-13.7225
 30
0.0
 10
-12.99884
 20
-13.7225
 30
0.0
 10
-13.00625
 20
-13.73048
 30
0.0
 10
-13.01225
 20
-13.73965
 30
0.0
 10
-13.01691
 20
-13.75002
 30
0.0
 10
-13.01691
 20
-13.75002
 30
0.0
 10
-13.02156
 20
-13.76039
 30
0.0
 10
-13.02509
 20
-13.77147
 30
0.0
 10
-13.02756
 20
-13.78318
 30
0.0
 10
-13.02756
 20
-13.78318
 30
0.0
 10
-13.03003
 20
-13.79496
 30
0.0
 10
-13.03172
 20
-13.80689
 30
0.0
 10
-13.03257
 20
-13.81902
 30
0.0
 10
-13.03257
 20
-13.81902
 30
0.0
 10
-13.03349
 20
-13.83109
 30
0.0
 10
-13.03384
 20
-13.84287
 30
0.0
 10
-13.03377
 20
-13.8543
 30
0.0
 10
-13.03377
 20
-13.8543
 30
0.0
 10
-13.0337
 20
-13.86566
 30
0.0
 10
-13.03342
 20
-13.87624
 30
0.0
 10
-13.03292
 20
-13.88598
 30
0.0
 10
-13.03292
 20
-13.88598
 30
0.0
 10
-13.03243
 20
-13.89565
 30
0.0
 10
-13.03208
 20
-13.90397
 30
0.0
 10
-13.03179
 20
-13.91096
 30
0.0
 10
-13.03179
 20
-13.91096
 30
0.0
 10
-13.0313
 20
-13.92479
 30
0.0
 10
-13.02883
 20
-13.93727
 30
0.0
 10
-13.02424
 20
-13.94849
 30
0.0
 10
-13.02424
 20
-13.94849
 30
0.0
 10
-13.01973
 20
-13.95978
 30
0.0
 10
-13.01345
 20
-13.96945
 30
0.0
 10
-13.00548
 20
-13.97749
 30
0.0
 10
-13.00548
 20
-13.97749
 30
0.0
 10
-12.9975
 20
-13.9856
 30
0.0
 10
-12.98819
 20
-13.99181
 30
0.0
 10
-12.97747
 20
-13.99619
 30
0.0
 10
-12.97747
 20
-13.99619
 30
0.0
 10
-12.96667
 20
-14.00056
 30
0.0
 10
-12.95489
 20
-14.00275
 30
0.0
 10
-12.94205
 20
-14.00282
 30
0.0
 10
-12.94205
 20
-14.00282
 30
0.0
 10
-12.92914
 20
-14.00289
 30
0.0
 10
-12.91707
 20
-14.00127
 30
0.0
 10
-12.90585
 20
-13.99802
 30
0.0
 10
-12.90585
 20
-13.99802
 30
0.0
 10
-12.89463
 20
-13.99485
 30
0.0
 10
-12.88483
 20
-13.98963
 30
0.0
 10
-12.87629
 20
-13.98243
 30
0.0
 10
-12.87629
 20
-13.98243
 30
0.0
 10
-12.86775
 20
-13.9753
 30
0.0
 10
-12.86105
 20
-13.96585
 30
0.0
 10
-12.85625
 20
-13.95407
 30
0.0
 10
-12.85625
 20
-13.95407
 30
0.0
 10
-12.85146
 20
-13.94228
 30
0.0
 10
-12.84899
 20
-13.92796
 30
0.0
 10
-12.84892
 20
-13.91096
 30
0.0
 10
-12.84892
 20
-13.91096
 30
0.0
 10
-12.84899
 20
-13.89395
 30
0.0
 10
-12.85146
 20
-13.87963
 30
0.0
 10
-12.85625
 20
-13.86785
 30
0.0
 10
-12.85625
 20
-13.86785
 30
0.0
 10
-12.86105
 20
-13.85607
 30
0.0
 10
-12.86775
 20
-13.84661
 30
0.0
 10
-12.87629
 20
-13.83949
 30
0.0
 10
-12.87629
 20
-13.83949
 30
0.0
 10
-12.88483
 20
-13.83229
 30
0.0
 10
-12.89463
 20
-13.82707
 30
0.0
 10
-12.90585
 20
-13.82389
 30
0.0
 10
-12.90585
 20
-13.82389
 30
0.0
 10
-12.91707
 20
-13.82065
 30
0.0
 10
-12.92914
 20
-13.81902
 30
0.0
 10
-12.94205
 20
-13.81909
 30
0.0
 10
-12.94205
 20
-13.81909
 30
0.0
 10
-12.95489
 20
-13.81917
 30
0.0
 10
-12.96681
 20
-13.82135
 30
0.0
 10
-12.97768
 20
-13.82573
 30
0.0
 10
-12.97768
 20
-13.82573
 30
0.0
 10
-12.98854
 20
-13.8301
 30
0.0
 10
-12.99807
 20
-13.83631
 30
0.0
 10
-13.00611
 20
-13.84435
 30
0.0
 10
-13.00611
 20
-13.84435
 30
0.0
 10
-13.01423
 20
-13.85247
 30
0.0
 10
-13.02051
 20
-13.86213
 30
0.0
 10
-13.02495
 20
-13.87335
 30
0.0
 10
-13.02495
 20
-13.87335
 30
0.0
 10
-13.02947
 20
-13.88464
 30
0.0
 10
-13.03172
 20
-13.89713
 30
0.0
 10
-13.03179
 20
-13.91096
 30
0.0
  0
SPLINE
  5
A6
330
1F
100
AcDbEntity
  8
Layer 1
 62
   250
370
    53
100
AcDbSpline
210
0.0
220
0.0
230
1.0
 70
    11
 71
     3
 72
    20
 73
    16
 74
     0
 42
0.0000000001
 43
0.0000000001
 40
0.0
 40
0.0
 40
0.0
 40
0.0
 40
0.25
 40
0.25
 40
0.25
 40
0.25
 40
0.5
 40
0.5
 40
0.5
 40
0.5
 40
0.75
 40
0.75
 40
0.75
 40
0.75
 40
1.0
 40
1.0
 40
1.0
 40
1.0
 10
-9.84592
 20
-15.61014
 30
0.0
 10
-9.8752
 20
-15.58086
 30
0.0
 10
-9.8752
 20
-15.53335
 30
0.0
 10
-9.84592
 20
-15.50407
 30
0.0
 10
-9.84592
 20
-15.50407
 30
0.0
 10
-9.81664
 20
-15.47479
 30
0.0
 10
-9.76913
 20
-15.47479
 30
0.0
 10
-9.73985
 20
-15.50407
 30
0.0
 10
-9.73985
 20
-15.50407
 30
0.0
 10
-9.71057
 20
-15.53335
 30
0.0
 10
-9.71057
 20
-15.58086
 30
0.0
 10
-9.73985
 20
-15.61014
 30
0.0
 10
-9.73985
 20
-15.61014
 30
0.0
 10
-9.76913
 20
-15.63942
 30
0.0
 10
-9.81664
 20
-15.63942
 30
0.0
 10
-9.84592
 20
-15.61014
 30
0.0
  0
SPLINE
  5
A7
330
1F
100
AcDbEntity
  8
Layer 1
 62
   250
370
    53
100
AcDbSpline
210
0.0
220
0.0
230
1.0
 70
    11
 71
     3
 72
    20
 73
    16
 74
     0
 42
0.0000000001
 43
0.0000000001
 40
0.0
 40
0.0
 40
0.0
 40
0.0
 40
0.25
 40
0.25
 40
0.25
 40
0.25
 40
0.5
 40
0.5
 40
0.5
 40
0.5
 40
0.75
 40
0.75
 40
0.75
 40
0.75
 40
1.0
 40
1.0
 40
1.0
 40
1.0
 10
-9.84592
 20
-15.61014
 30
0.0
 10
-9.8752
 20
-15.58086
 30
0.0
 10
-9.8752
 20
-15.53335
 30
0.0
 10
-9.84592
 20
-15.50407
 30
0.0
 10
-9.84592
 20
-15.50407
 30
0.0
 10
-9.81664
 20
-15.47479
 30
0.0
 10
-9.76913
 20
-15.47479
 30
0.0
 10
-9.73985
 20
-15.50407
 30
0.0
 10
-9.73985
 20
-15.50407
 30
0.0
 10
-9.71057
 20
-15.53335
 30
0.0
 10
-9.71057
 20
-15.58086
 30
0.0
 10
-9.73985
 20
-15.61014
 30
0.0
 10
-9.73985
 20
-15.61014
 30
0.0
 10
-9.76913
 20
-15.63942
 30
0.0
 10
-9.81664
 20
-15.63942
 30
0.0
 10
-9.84592
 20
-15.61014
 30
0.0
  0
SPLINE
  5
A8
330
1F
100
AcDbEntity
  8
Layer 1
 62
   250
370
    53
100
AcDbSpline
210
0.0
220
0.0
230
1.0
 70
    11
 71
     3
 72
    20
 73
    16
 74
     0
 42
0.0000000001
 43
0.0000000001
 40
0.0
 40
0.0
 40
0.0
 40
0.0
 40
0.25
 40
0.25
 40
0.25
 40
0.25
 40
0.5
 40
0.5
 40
0.5
 40
0.5
 40
0.75
 40
0.75
 40
0.75
 40
0.75
 40
1.0
 40
1.0
 40
1.0
 40
1.0
 10
-11.15407
 20
-14.08986
 30
0.0
 10
-11.12479
 20
-14.11914
 30
0.0
 10
-11.12479
 20
-14.16665
 30
0.0
 10
-11.15407
 20
-14.19593
 30
0.0
 10
-11.15407
 20
-14.19593
 30
0.0
 10
-11.18335
 20
-14.22521
 30
0.0
 10
-11.23085
 20
-14.22521
 30
0.0
 10
-11.26013
 20
-14.19593
 30
0.0
 10
-11.26013
 20
-14.19593
 30
0.0
 10
-11.28941
 20
-14.16665
 30
0.0
 10
-11.28941
 20
-14.11914
 30
0.0
 10
-11.26013
 20
-14.08986
 30
0.0
 10
-11.26013
 20
-14.08986
 30
0.0
 10
-11.23085
 20
-14.06058
 30
0.0
 10
-11.18335
 20
-14.06058
 30
0.0
 10
-11.15407
 20
-14.08986
 30
0.0
  0
SPLINE
  5
A9
330
1F
100
AcDbEntity
  8
Layer 1
 62
   250
370
    53
100
AcDbSpline
210
0.0
220
0.0
230
1.0
 70
    11
 71
     3
 72
    20
 73
    16
 74
     0
 42
0.0000000001
 43
0.0000000001
 40
0.0
 40
0.0
 40
0.0
 40
0.0
 40
0.25
 40
0.25
 40
0.25
 40
0.25
 40
0.5
 40
0.5
 40
0.5
 40
0.5
 40
0.75
 40
0.75
 40
0.75
 40
0.75
 40
1.0
 40
1.0
 40
1.0
 40
1.0
 10
-11.15407
 20
-14.08986
 30
0.0
 10
-11.12479
 20
-14.11914
 30
0.0
 10
-11.12479
 20
-14.16665
 30
0.0
 10
-11.15407
 20
-14.19593
 30
0.0
 10
-11.15407
 20
-14.19593
 30
0.0
 10
-11.18335
 20
-14.22521
 30
0.0
 10
-11.23085
 20
-14.22521
 30
0.0
 10
-11.26013
 20
-14.19593
 30
0.0
 10
-11.26013
 20
-14.19593
 30
0.0
 10
-11.28941
 20
-14.16665
 30
0.0
 10
-11.28941
 20
-14.11914
 30
0.0
 10
-11.26013
 20
-14.08986
 30
0.0
 10
-11.26013
 20
-14.08986
 30
0.0
 10
-11.23085
 20
-14.06058
 30
0.0
 10
-11.18335
 20
-14.06058
 30
0.0
 10
-11.15407
 20
-14.08986
 30
0.0
  0
SPLINE
  5
AA
330
1F
100
AcDbEntity
  8
Layer 1
 62
   250
370
    53
100
AcDbSpline
210
0.0
220
0.0
230
1.0
 70
    11
 71
     3
 72
    20
 73
    16
 74
     0
 42
0.0000000001
 43
0.0000000001
 40
0.0
 40
0.0
 40
0.0
 40
0.0
 40
0.25
 40
0.25
 40
0.25
 40
0.25
 40
0.5
 40
0.5
 40
0.5
 40
0.5
 40
0.75
 40
0.75
 40
0.75
 40
0.75
 40
1.0
 40
1.0
 40
1.0
 40
1.0
 10
-9.31559
 20
-13.77166
 30
0.0
 10
-9.34487
 20
-13.80094
 30
0.0
 10
-9.39238
 20
-13.80094
 30
0.0
 10
-9.42166
 20
-13.77166
 30
0.0
 10
-9.42166
 20
-13.77166
 30
0.0
 10
-9.45094
 20
-13.74238
 30
0.0
 10
-9.45094
 20
-13.69488
 30
0.0
 10
-9.42166
 20
-13.6656
 30
0.0
 10
-9.42166
 20
-13.6656
 30
0.0
 10
-9.39238
 20
-13.63632
 30
0.0
 10
-9.34487
 20
-13.63632
 30
0.0
 10
-9.31559
 20
-13.6656
 30
0.0
 10
-9.31559
 20
-13.6656
 30
0.0
 10
-9.28631
 20
-13.69488
 30
0.0
 10
-9.28631
 20
-13.74238
 30
0.0
 10
-9.31559
 20
-13.77166
 30
0.0
  0
SPLINE
  5
AB
330
1F
100
AcDbEntity
  8
Layer 1
 62
   250
370
    53
100
AcDbSpline
210
0.0
220
0.0
230
1.0
 70
    11
 71
     3
 72
    20
 73
    16
 74
     0
 42
0.0000000001
 43
0.0000000001
 40
0.0
 40
0.0
 40
0.0
 40
0.0
 40
0.25
 40
0.25
 40
0.25
 40
0.25
 40
0.5
 40
0.5
 40
0.5
 40
0.5
 40
0.75
 40
0.75
 40
0.75
 40
0.75
 40
1.0
 40
1.0
 40
1.0
 40
1.0
 10
-9.52772
 20
-13.98379
 30
0.0
 10
-9.557
 20
-14.01307
 30
0.0
 10
-9.60451
 20
-14.01307
 30
0.0
 10
-9.63379
 20
-13.98379
 30
0.0
 10
-9.63379
 20
-13.98379
 30
0.0
 10
-9.66307
 20
-13.95451
 30
0.0
 10
-9.66307
 20
-13.90701
 30
0.0
 10
-9.63379
 20
-13.87773
 30
0.0
 10
-9.63379
 20
-13.87773
 30
0.0
 10
-9.60451
 20
-13.84845
 30
0.0
 10
-9.557
 20
-13.84845
 30
0.0
 10
-9.52772
 20
-13.87773
 30
0.0
 10
-9.52772
 20
-13.87773
 30
0.0
 10
-9.49844
 20
-13.90701
 30
0.0
 10
-9.49844
 20
-13.95451
 30
0.0
 10
-9.52772
 20
-13.98379
 30
0.0
  0
SPLINE
  5
AC
330
1F
100
AcDbEntity
  8
Layer 1
 62
   250
370
    53
100
AcDbSpline
210
0.0
220
0.0
230
1.0
 70
    11
 71
     3
 72
    20
 73
    16
 74
     0
 42
0.0000000001
 43
0.0000000001
 40
0.0
 40
0.0
 40
0.0
 40
0.0
 40
0.25
 40
0.25
 40
0.25
 40
0.25
 40
0.5
 40
0.5
 40
0.5
 40
0.5
 40
0.75
 40
0.75
 40
0.75
 40
0.75
 40
1.0
 40
1.0
 40
1.0
 40
1.0
 10
-9.73985
 20
-14.19593
 30
0.0
 10
-9.76913
 20
-14.22521
 30
0.0
 10
-9.81664
 20
-14.22521
 30
0.0
 10
-9.84592
 20
-14.19593
 30
0.0
 10
-9.84592
 20
-14.19593
 30
0.0
 10
-9.8752
 20
-14.16665
 30
0.0
 10
-9.8752
 20
-14.11914
 30
0.0
 10
-9.84592
 20
-14.08986
 30
0.0
 10
-9.84592
 20
-14.08986
 30
0.0
 10
-9.81664
 20
-14.06058
 30
0.0
 10
-9.76913
 20
-14.06058
 30
0.0
 10
-9.73985
 20
-14.08986
 30
0.0
 10
-9.73985
 20
-14.08986
 30
0.0
 10
-9.71057
 20
-14.11914
 30
0.0
 10
-9.71057
 20
-14.16665
 30
0.0
 10
-9.73985
 20
-14.19593
 30
0.0
  0
SPLINE
  5
AD
330
1F
100
AcDbEntity
  8
Layer 1
 62
   250
370
    53
100
AcDbSpline
210
0.0
220
0.0
230
1.0
 70
    11
 71
     3
 72
    20
 73
    16
 74
     0
 42
0.0000000001
 43
0.0000000001
 40
0.0
 40
0.0
 40
0.0
 40
0.0
 40
0.25
 40
0.25
 40
0.25
 40
0.25
 40
0.5
 40
0.5
 40
0.5
 40
0.5
 40
0.75
 40
0.75
 40
0.75
 40
0.75
 40
1.0
 40
1.0
 40
1.0
 40
1.0
 10
-9.73985
 20
-14.19593
 30
0.0
 10
-9.76913
 20
-14.22521
 30
0.0
 10
-9.81664
 20
-14.22521
 30
0.0
 10
-9.84592
 20
-14.19593
 30
0.0
 10
-9.84592
 20
-14.19593
 30
0.0
 10
-9.8752
 20
-14.16665
 30
0.0
 10
-9.8752
 20
-14.11914
 30
0.0
 10
-9.84592
 20
-14.08986
 30
0.0
 10
-9.84592
 20
-14.08986
 30
0.0
 10
-9.81664
 20
-14.06058
 30
0.0
 10
-9.76913
 20
-14.06058
 30
0.0
 10
-9.73985
 20
-14.08986
 30
0.0
 10
-9.73985
 20
-14.08986
 30
0.0
 10
-9.71057
 20
-14.11914
 30
0.0
 10
-9.71057
 20
-14.16665
 30
0.0
 10
-9.73985
 20
-14.19593
 30
0.0
  0
SPLINE
  5
AE
330
1F
100
AcDbEntity
  8
Layer 1
 62
   250
370
    53
100
AcDbSpline
210
0.0
220
0.0
230
1.0
 70
    11
 71
     3
 72
    20
 73
    16
 74
     0
 42
0.0000000001
 43
0.0000000001
 40
0.0
 40
0.0
 40
0.0
 40
0.0
 40
0.25
 40
0.25
 40
0.25
 40
0.25
 40
0.5
 40
0.5
 40
0.5
 40
0.5
 40
0.75
 40
0.75
 40
0.75
 40
0.75
 40
1.0
 40
1.0
 40
1.0
 40
1.0
 10
-9.91663
 20
-14.3727
 30
0.0
 10
-9.94591
 20
-14.40198
 30
0.0
 10
-9.99342
 20
-14.40198
 30
0.0
 10
-10.0227
 20
-14.3727
 30
0.0
 10
-10.0227
 20
-14.3727
 30
0.0
 10
-10.05198
 20
-14.34342
 30
0.0
 10
-10.05198
 20
-14.29592
 30
0.0
 10
-10.0227
 20
-14.26664
 30
0.0
 10
-10.0227
 20
-14.26664
 30
0.0
 10
-9.99342
 20
-14.23736
 30
0.0
 10
-9.94591
 20
-14.23736
 30
0.0
 10
-9.91663
 20
-14.26664
 30
0.0
 10
-9.91663
 20
-14.26664
 30
0.0
 10
-9.88735
 20
-14.29592
 30
0.0
 10
-9.88735
 20
-14.34342
 30
0.0
 10
-9.91663
 20
-14.3727
 30
0.0
  0
SPLINE
  5
AF
330
1F
100
AcDbEntity
  8
Layer 1
 62
   250
370
    53
100
AcDbSpline
210
0.0
220
0.0
230
1.0
 70
    11
 71
     3
 72
    20
 73
    16
 74
     0
 42
0.0000000001
 43
0.0000000001
 40
0.0
 40
0.0
 40
0.0
 40
0.0
 40
0.25
 40
0.25
 40
0.25
 40
0.25
 40
0.5
 40
0.5
 40
0.5
 40
0.5
 40
0.75
 40
0.75
 40
0.75
 40
0.75
 40
1.0
 40
1.0
 40
1.0
 40
1.0
 10
-11.6844
 20
-15.92834
 30
0.0
 10
-11.65512
 20
-15.89906
 30
0.0
 10
-11.60761
 20
-15.89906
 30
0.0
 10
-11.57833
 20
-15.92834
 30
0.0
 10
-11.57833
 20
-15.92834
 30
0.0
 10
-11.54905
 20
-15.95762
 30
0.0
 10
-11.54905
 20
-16.00512
 30
0.0
 10
-11.57833
 20
-16.0344
 30
0.0
 10
-11.57833
 20
-16.0344
 30
0.0
 10
-11.60761
 20
-16.06368
 30
0.0
 10
-11.65512
 20
-16.06368
 30
0.0
 10
-11.6844
 20
-16.0344
 30
0.0
 10
-11.6844
 20
-16.0344
 30
0.0
 10
-11.71368
 20
-16.00512
 30
0.0
 10
-11.71368
 20
-15.95762
 30
0.0
 10
-11.6844
 20
-15.92834
 30
0.0
  0
SPLINE
  5
B0
330
1F
100
AcDbEntity
  8
Layer 1
 62
   250
370
    53
100
AcDbSpline
210
0.0
220
0.0
230
1.0
 70
    11
 71
     3
 72
    20
 73
    16
 74
     0
 42
0.0000000001
 43
0.0000000001
 40
0.0
 40
0.0
 40
0.0
 40
0.0
 40
0.25
 40
0.25
 40
0.25
 40
0.25
 40
0.5
 40
0.5
 40
0.5
 40
0.5
 40
0.75
 40
0.75
 40
0.75
 40
0.75
 40
1.0
 40
1.0
 40
1.0
 40
1.0
 10
-11.47227
 20
-15.71621
 30
0.0
 10
-11.44299
 20
-15.68693
 30
0.0
 10
-11.39548
 20
-15.68693
 30
0.0
 10
-11.3662
 20
-15.71621
 30
0.0
 10
-11.3662
 20
-15.71621
 30
0.0
 10
-11.33692
 20
-15.74549
 30
0.0
 10
-11.33692
 20
-15.79299
 30
0.0
 10
-11.3662
 20
-15.82227
 30
0.0
 10
-11.3662
 20
-15.82227
 30
0.0
 10
-11.39548
 20
-15.85155
 30
0.0
 10
-11.44299
 20
-15.85155
 30
0.0
 10
-11.47227
 20
-15.82227
 30
0.0
 10
-11.47227
 20
-15.82227
 30
0.0
 10
-11.50155
 20
-15.79299
 30
0.0
 10
-11.50155
 20
-15.74549
 30
0.0
 10
-11.47227
 20
-15.71621
 30
0.0
  0
SPLINE
  5
B1
330
1F
100
AcDbEntity
  8
Layer 1
 62
   250
370
    53
100
AcDbSpline
210
0.0
220
0.0
230
1.0
 70
    11
 71
     3
 72
    20
 73
    16
 74
     0
 42
0.0000000001
 43
0.0000000001
 40
0.0
 40
0.0
 40
0.0
 40
0.0
 40
0.25
 40
0.25
 40
0.25
 40
0.25
 40
0.5
 40
0.5
 40
0.5
 40
0.5
 40
0.75
 40
0.75
 40
0.75
 40
0.75
 40
1.0
 40
1.0
 40
1.0
 40
1.0
 10
-11.26013
 20
-15.50407
 30
0.0
 10
-11.23085
 20
-15.47479
 30
0.0
 10
-11.18335
 20
-15.47479
 30
0.0
 10
-11.15407
 20
-15.50407
 30
0.0
 10
-11.15407
 20
-15.50407
 30
0.0
 10
-11.12479
 20
-15.53335
 30
0.0
 10
-11.12479
 20
-15.58086
 30
0.0
 10
-11.15407
 20
-15.61014
 30
0.0
 10
-11.15407
 20
-15.61014
 30
0.0
 10
-11.18335
 20
-15.63942
 30
0.0
 10
-11.23085
 20
-15.63942
 30
0.0
 10
-11.26013
 20
-15.61014
 30
0.0
 10
-11.26013
 20
-15.61014
 30
0.0
 10
-11.28941
 20
-15.58086
 30
0.0
 10
-11.28941
 20
-15.53335
 30
0.0
 10
-11.26013
 20
-15.50407
 30
0.0
  0
SPLINE
  5
B2
330
1F
100
AcDbEntity
  8
Layer 1
 62
   250
370
    53
100
AcDbSpline
210
0.0
220
0.0
230
1.0
 70
    11
 71
     3
 72
    20
 73
    16
 74
     0
 42
0.0000000001
 43
0.0000000001
 40
0.0
 40
0.0
 40
0.0
 40
0.0
 40
0.25
 40
0.25
 40
0.25
 40
0.25
 40
0.5
 40
0.5
 40
0.5
 40
0.5
 40
0.75
 40
0.75
 40
0.75
 40
0.75
 40
1.0
 40
1.0
 40
1.0
 40
1.0
 10
-11.26013
 20
-15.50407
 30
0.0
 10
-11.23085
 20
-15.47479
 30
0.0
 10
-11.18335
 20
-15.47479
 30
0.0
 10
-11.15407
 20
-15.50407
 30
0.0
 10
-11.15407
 20
-15.50407
 30
0.0
 10
-11.12479
 20
-15.53335
 30
0.0
 10
-11.12479
 20
-15.58086
 30
0.0
 10
-11.15407
 20
-15.61014
 30
0.0
 10
-11.15407
 20
-15.61014
 30
0.0
 10
-11.18335
 20
-15.63942
 30
0.0
 10
-11.23085
 20
-15.63942
 30
0.0
 10
-11.26013
 20
-15.61014
 30
0.0
 10
-11.26013
 20
-15.61014
 30
0.0
 10
-11.28941
 20
-15.58086
 30
0.0
 10
-11.28941
 20
-15.53335
 30
0.0
 10
-11.26013
 20
-15.50407
 30
0.0
  0
SPLINE
  5
B3
330
1F
100
AcDbEntity
  8
Layer 1
 62
   250
370
    53
100
AcDbSpline
210
0.0
220
0.0
230
1.0
 70
    11
 71
     3
 72
    20
 73
    16
 74
     0
 42
0.0000000001
 43
0.0000000001
 40
0.0
 40
0.0
 40
0.0
 40
0.0
 40
0.25
 40
0.25
 40
0.25
 40
0.25
 40
0.5
 40
0.5
 40
0.5
 40
0.5
 40
0.75
 40
0.75
 40
0.75
 40
0.75
 40
1.0
 40
1.0
 40
1.0
 40
1.0
 10
-11.08336
 20
-15.3273
 30
0.0
 10
-11.05408
 20
-15.29802
 30
0.0
 10
-11.00657
 20
-15.29802
 30
0.0
 10
-10.97729
 20
-15.3273
 30
0.0
 10
-10.97729
 20
-15.3273
 30
0.0
 10
-10.94801
 20
-15.35658
 30
0.0
 10
-10.94801
 20
-15.40408
 30
0.0
 10
-10.97729
 20
-15.43336
 30
0.0
 10
-10.97729
 20
-15.43336
 30
0.0
 10
-11.00657
 20
-15.46264
 30
0.0
 10
-11.05408
 20
-15.46264
 30
0.0
 10
-11.08336
 20
-15.43336
 30
0.0
 10
-11.08336
 20
-15.43336
 30
0.0
 10
-11.11264
 20
-15.40408
 30
0.0
 10
-11.11264
 20
-15.35658
 30
0.0
 10
-11.08336
 20
-15.3273
 30
0.0
  0
SPLINE
  5
B4
330
1F
100
AcDbEntity
  8
Layer 1
 62
    30
370
    53
100
AcDbSpline
210
0.0
220
0.0
230
1.0
 70
    11
 71
     3
 72
    44
 73
    40
 74
     0
 42
0.0000000001
 43
0.0000000001
 40
0.0
 40
0.0
 40
0.0
 40
0.0
 40
0.1
 40
0.1
 40
0.1
 40
0.1
 40
0.2
 40
0.2
 40
0.2
 40
0.2
 40
0.3
 40
0.3
 40
0.3
 40
0.3
 40
0.4
 40
0.4
 40
0.4
 40
0.4
 40
0.5
 40
0.5
 40
0.5
 40
0.5
 40
0.6
 40
0.6
 40
0.6
 40
0.6
 40
0.7
 40
0.7
 40
0.7
 40
0.7
 40
0.7999999999999999
 40
0.7999999999999999
 40
0.7999999999999999
 40
0.7999999999999999
 40
0.8999999999999999
 40
0.8999999999999999
 40
0.8999999999999999
 40
0.8999999999999999
 40
1.0
 40
1.0
 40
1.0
 40
1.0
 10
-10.57955
 20
-15.19471
 30
0.0
 10
-10.57955
 20
-15.19471
 30
0.0
 10
-10.84471
 20
-14.92955
 30
0.0
 10
-10.84471
 20
-14.92955
 30
0.0
 10
-10.84471
 20
-14.92955
 30
0.0
 10
-10.84471
 20
-14.92955
 30
0.0
 10
-11.77279
 20
-13.87773
 30
0.0
 10
-11.77279
 20
-13.87773
 30
0.0
 10
-11.77279
 20
-13.87773
 30
0.0
 10
-11.85555
 20
-13.79497
 30
0.0
 10
-11.85555
 20
-13.65997
 30
0.0
 10
-11.77279
 20
-13.57721
 30
0.0
 10
-11.77279
 20
-13.57721
 30
0.0
 10
-11.69003
 20
-13.49445
 30
0.0
 10
-11.55503
 20
-13.49445
 30
0.0
 10
-11.47227
 20
-13.57721
 30
0.0
 10
-11.47227
 20
-13.57721
 30
0.0
 10
-11.47227
 20
-13.57721
 30
0.0
 10
-10.42045
 20
-14.50529
 30
0.0
 10
-10.42045
 20
-14.50529
 30
0.0
 10
-10.42045
 20
-14.50529
 30
0.0
 10
-10.42045
 20
-14.50529
 30
0.0
 10
-10.15529
 20
-14.77045
 30
0.0
 10
-10.15529
 20
-14.77045
 30
0.0
 10
-10.15529
 20
-14.77045
 30
0.0
 10
-10.15529
 20
-14.77045
 30
0.0
 10
-9.22721
 20
-15.82227
 30
0.0
 10
-9.22721
 20
-15.82227
 30
0.0
 10
-9.22721
 20
-15.82227
 30
0.0
 10
-9.14445
 20
-15.90503
 30
0.0
 10
-9.14445
 20
-16.04003
 30
0.0
 10
-9.22721
 20
-16.12279
 30
0.0
 10
-9.22721
 20
-16.12279
 30
0.0
 10
-9.30997
 20
-16.20555
 30
0.0
 10
-9.44497
 20
-16.20555
 30
0.0
 10
-9.52773
 20
-16.12279
 30
0.0
 10
-9.52773
 20
-16.12279
 30
0.0
 10
-9.52773
 20
-16.12279
 30
0.0
 10
-10.57955
 20
-15.19471
 30
0.0
 10
-10.57955
 20
-15.19471
 30
0.0
  0
SPLINE
  5
B5
330
1F
100
AcDbEntity
  8
Layer 1
 62
    30
370
    53
100
AcDbSpline
210
0.0
220
0.0
230
1.0
 70
    11
 71
     3
 72
   468
 73
   464
 74
     0
 42
0.0000000001
 43
0.0000000001
 40
0.0
 40
0.0
 40
0.0
 40
0.0
 40
0.0086206896551724
 40
0.0086206896551724
 40
0.0086206896551724
 40
0.0086206896551724
 40
0.0172413793103448
 40
0.0172413793103448
 40
0.0172413793103448
 40
0.0172413793103448
 40
0.0258620689655172
 40
0.0258620689655172
 40
0.0258620689655172
 40
0.0258620689655172
 40
0.0344827586206897
 40
0.0344827586206897
 40
0.0344827586206897
 40
0.0344827586206897
 40
0.0431034482758621
 40
0.0431034482758621
 40
0.0431034482758621
 40
0.0431034482758621
 40
0.0517241379310345
 40
0.0517241379310345
 40
0.0517241379310345
 40
0.0517241379310345
 40
0.0603448275862069
 40
0.0603448275862069
 40
0.0603448275862069
 40
0.0603448275862069
 40
0.0689655172413793
 40
0.0689655172413793
 40
0.0689655172413793
 40
0.0689655172413793
 40
0.0775862068965517
 40
0.0775862068965517
 40
0.0775862068965517
 40
0.0775862068965517
 40
0.0862068965517242
 40
0.0862068965517242
 40
0.0862068965517242
 40
0.0862068965517242
 40
0.0948275862068966
 40
0.0948275862068966
 40
0.0948275862068966
 40
0.0948275862068966
 40
0.103448275862069
 40
0.103448275862069
 40
0.103448275862069
 40
0.103448275862069
 40
0.1120689655172414
 40
0.1120689655172414
 40
0.1120689655172414
 40
0.1120689655172414
 40
0.1206896551724138
 40
0.1206896551724138
 40
0.1206896551724138
 40
0.1206896551724138
 40
0.1293103448275862
 40
0.1293103448275862
 40
0.1293103448275862
 40
0.1293103448275862
 40
0.1379310344827586
 40
0.1379310344827586
 40
0.1379310344827586
 40
0.1379310344827586
 40
0.146551724137931
 40
0.146551724137931
 40
0.146551724137931
 40
0.146551724137931
 40
0.1551724137931035
 40
0.1551724137931035
 40
0.1551724137931035
 40
0.1551724137931035
 40
0.1637931034482759
 40
0.1637931034482759
 40
0.1637931034482759
 40
0.1637931034482759
 40
0.1724137931034483
 40
0.1724137931034483
 40
0.1724137931034483
 40
0.1724137931034483
 40
0.1810344827586207
 40
0.1810344827586207
 40
0.1810344827586207
 40
0.1810344827586207
 40
0.1896551724137931
 40
0.1896551724137931
 40
0.1896551724137931
 40
0.1896551724137931
 40
0.1982758620689655
 40
0.1982758620689655
 40
0.1982758620689655
 40
0.1982758620689655
 40
0.2068965517241379
 40
0.2068965517241379
 40
0.2068965517241379
 40
0.2068965517241379
 40
0.2155172413793103
 40
0.2155172413793103
 40
0.2155172413793103
 40
0.2155172413793103
 40
0.2241379310344827
 40
0.2241379310344827
 40
0.2241379310344827
 40
0.2241379310344827
 40
0.2327586206896551
 40
0.2327586206896551
 40
0.2327586206896551
 40
0.2327586206896551
 40
0.2413793103448275
 40
0.2413793103448275
 40
0.2413793103448275
 40
0.2413793103448275
 40
0.2499999999999999
 40
0.2499999999999999
 40
0.2499999999999999
 40
0.2499999999999999
 40
0.2586206896551723
 40
0.2586206896551723
 40
0.2586206896551723
 40
0.2586206896551723
 40
0.2672413793103448
 40
0.2672413793103448
 40
0.2672413793103448
 40
0.2672413793103448
 40
0.2758620689655172
 40
0.2758620689655172
 40
0.2758620689655172
 40
0.2758620689655172
 40
0.2844827586206896
 40
0.2844827586206896
 40
0.2844827586206896
 40
0.2844827586206896
 40
0.293103448275862
 40
0.293103448275862
 40
0.293103448275862
 40
0.293103448275862
 40
0.3017241379310345
 40
0.3017241379310345
 40
0.3017241379310345
 40
0.3017241379310345
 40
0.3103448275862069
 40
0.3103448275862069
 40
0.3103448275862069
 40
0.3103448275862069
 40
0.3189655172413793
 40
0.3189655172413793
 40
0.3189655172413793
 40
0.3189655172413793
 40
0.3275862068965518
 40
0.3275862068965518
 40
0.3275862068965518
 40
0.3275862068965518
 40
0.3362068965517242
 40
0.3362068965517242
 40
0.3362068965517242
 40
0.3362068965517242
 40
0.3448275862068966
 40
0.3448275862068966
 40
0.3448275862068966
 40
0.3448275862068966
 40
0.3534482758620691
 40
0.3534482758620691
 40
0.3534482758620691
 40
0.3534482758620691
 40
0.3620689655172415
 40
0.3620689655172415
 40
0.3620689655172415
 40
0.3620689655172415
 40
0.3706896551724139
 40
0.3706896551724139
 40
0.3706896551724139
 40
0.3706896551724139
 40
0.3793103448275864
 40
0.3793103448275864
 40
0.3793103448275864
 40
0.3793103448275864
 40
0.3879310344827588
 40
0.3879310344827588
 40
0.3879310344827588
 40
0.3879310344827588
 40
0.3965517241379312
 40
0.3965517241379312
 40
0.3965517241379312
 40
0.3965517241379312
 40
0.4051724137931036
 40
0.4051724137931036
 40
0.4051724137931036
 40
0.4051724137931036
 40
0.4137931034482761
 40
0.4137931034482761
 40
0.4137931034482761
 40
0.4137931034482761
 40
0.4224137931034485
 40
0.4224137931034485
 40
0.4224137931034485
 40
0.4224137931034485
 40
0.4310344827586209
 40
0.4310344827586209
 40
0.4310344827586209
 40
0.4310344827586209
 40
0.4396551724137934
 40
0.4396551724137934
 40
0.4396551724137934
 40
0.4396551724137934
 40
0.4482758620689658
 40
0.4482758620689658
 40
0.4482758620689658
 40
0.4482758620689658
 40
0.4568965517241382
 40
0.4568965517241382
 40
0.4568965517241382
 40
0.4568965517241382
 40
0.4655172413793107
 40
0.4655172413793107
 40
0.4655172413793107
 40
0.4655172413793107
 40
0.4741379310344831
 40
0.4741379310344831
 40
0.4741379310344831
 40
0.4741379310344831
 40
0.4827586206896555
 40
0.4827586206896555
 40
0.4827586206896555
 40
0.4827586206896555
 40
0.491379310344828
 40
0.491379310344828
 40
0.491379310344828
 40
0.491379310344828
 40
0.5000000000000003
 40
0.5000000000000003
 40
0.5000000000000003
 40
0.5000000000000003
 40
0.5086206896551727
 40
0.5086206896551727
 40
0.5086206896551727
 40
0.5086206896551727
 40
0.5172413793103451
 40
0.5172413793103451
 40
0.5172413793103451
 40
0.5172413793103451
 40
0.5258620689655175
 40
0.5258620689655175
 40
0.5258620689655175
 40
0.5258620689655175
 40
0.5344827586206898
 40
0.5344827586206898
 40
0.5344827586206898
 40
0.5344827586206898
 40
0.5431034482758622
 40
0.5431034482758622
 40
0.5431034482758622
 40
0.5431034482758622
 40
0.5517241379310346
 40
0.5517241379310346
 40
0.5517241379310346
 40
0.5517241379310346
 40
0.560344827586207
 40
0.560344827586207
 40
0.560344827586207
 40
0.560344827586207
 40
0.5689655172413793
 40
0.5689655172413793
 40
0.5689655172413793
 40
0.5689655172413793
 40
0.5775862068965517
 40
0.5775862068965517
 40
0.5775862068965517
 40
0.5775862068965517
 40
0.5862068965517241
 40
0.5862068965517241
 40
0.5862068965517241
 40
0.5862068965517241
 40
0.5948275862068965
 40
0.5948275862068965
 40
0.5948275862068965
 40
0.5948275862068965
 40
0.6034482758620688
 40
0.6034482758620688
 40
0.6034482758620688
 40
0.6034482758620688
 40
0.6120689655172412
 40
0.6120689655172412
 40
0.6120689655172412
 40
0.6120689655172412
 40
0.6206896551724136
 40
0.6206896551724136
 40
0.6206896551724136
 40
0.6206896551724136
 40
0.629310344827586
 40
0.629310344827586
 40
0.629310344827586
 40
0.629310344827586
 40
0.6379310344827583
 40
0.6379310344827583
 40
0.6379310344827583
 40
0.6379310344827583
 40
0.6465517241379307
 40
0.6465517241379307
 40
0.6465517241379307
 40
0.6465517241379307
 40
0.6551724137931031
 40
0.6551724137931031
 40
0.6551724137931031
 40
0.6551724137931031
 40
0.6637931034482755
 40
0.6637931034482755
 40
0.6637931034482755
 40
0.6637931034482755
 40
0.6724137931034478
 40
0.6724137931034478
 40
0.6724137931034478
 40
0.6724137931034478
 40
0.6810344827586202
 40
0.6810344827586202
 40
0.6810344827586202
 40
0.6810344827586202
 40
0.6896551724137926
 40
0.6896551724137926
 40
0.6896551724137926
 40
0.6896551724137926
 40
0.698275862068965
 40
0.698275862068965
 40
0.698275862068965
 40
0.698275862068965
 40
0.7068965517241373
 40
0.7068965517241373
 40
0.7068965517241373
 40
0.7068965517241373
 40
0.7155172413793097
 40
0.7155172413793097
 40
0.7155172413793097
 40
0.7155172413793097
 40
0.7241379310344821
 40
0.7241379310344821
 40
0.7241379310344821
 40
0.7241379310344821
 40
0.7327586206896545
 40
0.7327586206896545
 40
0.7327586206896545
 40
0.7327586206896545
 40
0.7413793103448268
 40
0.7413793103448268
 40
0.7413793103448268
 40
0.7413793103448268
 40
0.7499999999999992
 40
0.7499999999999992
 40
0.7499999999999992
 40
0.7499999999999992
 40
0.7586206896551716
 40
0.7586206896551716
 40
0.7586206896551716
 40
0.7586206896551716
 40
0.767241379310344
 40
0.767241379310344
 40
0.767241379310344
 40
0.767241379310344
 40
0.7758620689655163
 40
0.7758620689655163
 40
0.7758620689655163
 40
0.7758620689655163
 40
0.7844827586206887
 40
0.7844827586206887
 40
0.7844827586206887
 40
0.7844827586206887
 40
0.7931034482758611
 40
0.7931034482758611
 40
0.7931034482758611
 40
0.7931034482758611
 40
0.8017241379310335
 40
0.8017241379310335
 40
0.8017241379310335
 40
0.8017241379310335
 40
0.8103448275862059
 40
0.8103448275862059
 40
0.8103448275862059
 40
0.8103448275862059
 40
0.8189655172413782
 40
0.8189655172413782
 40
0.8189655172413782
 40
0.8189655172413782
 40
0.8275862068965506
 40
0.8275862068965506
 40
0.8275862068965506
 40
0.8275862068965506
 40
0.836206896551723
 40
0.836206896551723
 40
0.836206896551723
 40
0.836206896551723
 40
0.8448275862068954
 40
0.8448275862068954
 40
0.8448275862068954
 40
0.8448275862068954
 40
0.8534482758620677
 40
0.8534482758620677
 40
0.8534482758620677
 40
0.8534482758620677
 40
0.8620689655172401
 40
0.8620689655172401
 40
0.8620689655172401
 40
0.8620689655172401
 40
0.8706896551724125
 40
0.8706896551724125
 40
0.8706896551724125
 40
0.8706896551724125
 40
0.8793103448275849
 40
0.8793103448275849
 40
0.8793103448275849
 40
0.8793103448275849
 40
0.8879310344827572
 40
0.8879310344827572
 40
0.8879310344827572
 40
0.8879310344827572
 40
0.8965517241379296
 40
0.8965517241379296
 40
0.8965517241379296
 40
0.8965517241379296
 40
0.905172413793102
 40
0.905172413793102
 40
0.905172413793102
 40
0.905172413793102
 40
0.9137931034482744
 40
0.9137931034482744
 40
0.9137931034482744
 40
0.9137931034482744
 40
0.9224137931034467
 40
0.9224137931034467
 40
0.9224137931034467
 40
0.9224137931034467
 40
0.9310344827586191
 40
0.9310344827586191
 40
0.9310344827586191
 40
0.9310344827586191
 40
0.9396551724137915
 40
0.9396551724137915
 40
0.9396551724137915
 40
0.9396551724137915
 40
0.9482758620689639
 40
0.9482758620689639
 40
0.9482758620689639
 40
0.9482758620689639
 40
0.9568965517241362
 40
0.9568965517241362
 40
0.9568965517241362
 40
0.9568965517241362
 40
0.9655172413793086
 40
0.9655172413793086
 40
0.9655172413793086
 40
0.9655172413793086
 40
0.974137931034481
 40
0.974137931034481
 40
0.974137931034481
 40
0.974137931034481
 40
0.9827586206896534
 40
0.9827586206896534
 40
0.9827586206896534
 40
0.9827586206896534
 40
0.9913793103448257
 40
0.9913793103448257
 40
0.9913793103448257
 40
0.9913793103448257
 40
1.0
 40
1.0
 40
1.0
 40
1.0
 10
-11.54126
 20
-13.4598
 30
0.0
 10
-11.54126
 20
-13.4598
 30
0.0
 10
-10.67532
 20
-14.08937
 30
0.0
 10
-10.67532
 20
-14.08937
 30
0.0
 10
-10.67532
 20
-14.08937
 30
0.0
 10
-10.67532
 20
-14.08937
 30
0.0
 10
-10.64843
 20
-14.11738
 30
0.0
 10
-10.64843
 20
-14.11738
 30
0.0
 10
-10.64843
 20
-14.11738
 30
0.0
 10
-10.64843
 20
-14.11738
 30
0.0
 10
-10.62435
 20
-14.14819
 30
0.0
 10
-10.62435
 20
-14.14819
 30
0.0
 10
-10.62435
 20
-14.14819
 30
0.0
 10
-10.62435
 20
-14.14819
 30
0.0
 10
-10.5941
 20
-14.17283
 30
0.0
 10
-10.5941
 20
-14.17283
 30
0.0
 10
-10.5941
 20
-14.17283
 30
0.0
 10
-10.5941
 20
-14.17283
 30
0.0
 10
-10.55882
 20
-14.19019
 30
0.0
 10
-10.55882
 20
-14.19019
 30
0.0
 10
-10.55882
 20
-14.19019
 30
0.0
 10
-10.55882
 20
-14.19019
 30
0.0
 10
-10.5196
 20
-14.19916
 30
0.0
 10
-10.5196
 20
-14.19916
 30
0.0
 10
-10.5196
 20
-14.19916
 30
0.0
 10
-10.5196
 20
-14.19916
 30
0.0
 10
-10.48039
 20
-14.19915
 30
0.0
 10
-10.48039
 20
-14.19915
 30
0.0
 10
-10.48039
 20
-14.19915
 30
0.0
 10
-10.48039
 20
-14.19915
 30
0.0
 10
-10.44231
 20
-14.19019
 30
0.0
 10
-10.44231
 20
-14.19019
 30
0.0
 10
-10.44231
 20
-14.19019
 30
0.0
 10
-10.44231
 20
-14.19019
 30
0.0
 10
-10.40646
 20
-14.17338
 30
0.0
 10
-10.40646
 20
-14.17338
 30
0.0
 10
-10.40646
 20
-14.17338
 30
0.0
 10
-10.40646
 20
-14.17338
 30
0.0
 10
-10.37565
 20
-14.14818
 30
0.0
 10
-10.37565
 20
-14.14818
 30
0.0
 10
-10.37565
 20
-14.14818
 30
0.0
 10
-10.37565
 20
-14.14818
 30
0.0
 10
-10.35158
 20
-14.11738
 30
0.0
 10
-10.35158
 20
-14.11738
 30
0.0
 10
-10.35158
 20
-14.11738
 30
0.0
 10
-10.35158
 20
-14.11738
 30
0.0
 10
-10.32525
 20
-14.08881
 30
0.0
 10
-10.32525
 20
-14.08881
 30
0.0
 10
-10.32525
 20
-14.08881
 30
0.0
 10
-10.32525
 20
-14.08881
 30
0.0
 10
-9.4593
 20
-13.46036
 30
0.0
 10
-9.4593
 20
-13.46036
 30
0.0
 10
-9.4593
 20
-13.46036
 30
0.0
 10
-9.4593
 20
-13.46036
 30
0.0
 10
-9.42177
 20
-13.43739
 30
0.0
 10
-9.42177
 20
-13.43739
 30
0.0
 10
-9.42177
 20
-13.43739
 30
0.0
 10
-9.42177
 20
-13.43739
 30
0.0
 10
-9.38089
 20
-13.42228
 30
0.0
 10
-9.38089
 20
-13.42228
 30
0.0
 10
-9.38089
 20
-13.42228
 30
0.0
 10
-9.38089
 20
-13.42228
 30
0.0
 10
-9.33775
 20
-13.41387
 30
0.0
 10
-9.33775
 20
-13.41387
 30
0.0
 10
-9.33775
 20
-13.41387
 30
0.0
 10
-9.33775
 20
-13.41387
 30
0.0
 10
-9.29351
 20
-13.41331
 30
0.0
 10
-9.29351
 20
-13.41331
 30
0.0
 10
-9.29351
 20
-13.41331
 30
0.0
 10
-9.29351
 20
-13.41331
 30
0.0
 10
-9.24982
 20
-13.42115
 30
0.0
 10
-9.24982
 20
-13.42115
 30
0.0
 10
-9.24982
 20
-13.42115
 30
0.0
 10
-9.24982
 20
-13.42115
 30
0.0
 10
-9.20837
 20
-13.43572
 30
0.0
 10
-9.20837
 20
-13.43572
 30
0.0
 10
-9.20837
 20
-13.43572
 30
0.0
 10
-9.20837
 20
-13.43572
 30
0.0
 10
-9.16973
 20
-13.45756
 30
0.0
 10
-9.16973
 20
-13.45756
 30
0.0
 10
-9.16973
 20
-13.45756
 30
0.0
 10
-9.16973
 20
-13.45756
 30
0.0
 10
-9.13612
 20
-13.48556
 30
0.0
 10
-9.13612
 20
-13.48556
 30
0.0
 10
-9.13612
 20
-13.48556
 30
0.0
 10
-9.13612
 20
-13.48556
 30
0.0
 10
-9.10755
 20
-13.51973
 30
0.0
 10
-9.10755
 20
-13.51973
 30
0.0
 10
-9.10755
 20
-13.51973
 30
0.0
 10
-9.10755
 20
-13.51973
 30
0.0
 10
-9.08571
 20
-13.55838
 30
0.0
 10
-9.08571
 20
-13.55838
 30
0.0
 10
-9.08571
 20
-13.55838
 30
0.0
 10
-9.08571
 20
-13.55838
 30
0.0
 10
-9.07114
 20
-13.59982
 30
0.0
 10
-9.07114
 20
-13.59982
 30
0.0
 10
-9.07114
 20
-13.59982
 30
0.0
 10
-9.07114
 20
-13.59982
 30
0.0
 10
-9.06386
 20
-13.64296
 30
0.0
 10
-9.06386
 20
-13.64296
 30
0.0
 10
-9.06386
 20
-13.64296
 30
0.0
 10
-9.06386
 20
-13.64296
 30
0.0
 10
-9.06442
 20
-13.6872
 30
0.0
 10
-9.06442
 20
-13.6872
 30
0.0
 10
-9.06442
 20
-13.6872
 30
0.0
 10
-9.06442
 20
-13.6872
 30
0.0
 10
-9.07227
 20
-13.7309
 30
0.0
 10
-9.07227
 20
-13.7309
 30
0.0
 10
-9.07227
 20
-13.7309
 30
0.0
 10
-9.07227
 20
-13.7309
 30
0.0
 10
-9.08738
 20
-13.77178
 30
0.0
 10
-9.08738
 20
-13.77178
 30
0.0
 10
-9.08738
 20
-13.77178
 30
0.0
 10
-9.08738
 20
-13.77178
 30
0.0
 10
-9.11035
 20
-13.80931
 30
0.0
 10
-9.11035
 20
-13.80931
 30
0.0
 10
-9.11035
 20
-13.80931
 30
0.0
 10
-9.11035
 20
-13.80931
 30
0.0
 10
-9.73936
 20
-14.6747
 30
0.0
 10
-9.73936
 20
-14.6747
 30
0.0
 10
-9.73936
 20
-14.6747
 30
0.0
 10
-9.73936
 20
-14.6747
 30
0.0
 10
-9.76738
 20
-14.70158
 30
0.0
 10
-9.76738
 20
-14.70158
 30
0.0
 10
-9.76738
 20
-14.70158
 30
0.0
 10
-9.76738
 20
-14.70158
 30
0.0
 10
-9.79817
 20
-14.72566
 30
0.0
 10
-9.79817
 20
-14.72566
 30
0.0
 10
-9.79817
 20
-14.72566
 30
0.0
 10
-9.79817
 20
-14.72566
 30
0.0
 10
-9.82337
 20
-14.75647
 30
0.0
 10
-9.82337
 20
-14.75647
 30
0.0
 10
-9.82337
 20
-14.75647
 30
0.0
 10
-9.82337
 20
-14.75647
 30
0.0
 10
-9.84018
 20
-14.79232
 30
0.0
 10
-9.84018
 20
-14.79232
 30
0.0
 10
-9.84018
 20
-14.79232
 30
0.0
 10
-9.84018
 20
-14.79232
 30
0.0
 10
-9.84914
 20
-14.83039
 30
0.0
 10
-9.84914
 20
-14.83039
 30
0.0
 10
-9.84914
 20
-14.83039
 30
0.0
 10
-9.84914
 20
-14.83039
 30
0.0
 10
-9.84915
 20
-14.86961
 30
0.0
 10
-9.84915
 20
-14.86961
 30
0.0
 10
-9.84915
 20
-14.86961
 30
0.0
 10
-9.84915
 20
-14.86961
 30
0.0
 10
-9.84075
 20
-14.90826
 30
0.0
 10
-9.84075
 20
-14.90826
 30
0.0
 10
-9.84075
 20
-14.90826
 30
0.0
 10
-9.84075
 20
-14.90826
 30
0.0
 10
-9.82338
 20
-14.94355
 30
0.0
 10
-9.82338
 20
-14.94355
 30
0.0
 10
-9.82338
 20
-14.94355
 30
0.0
 10
-9.82338
 20
-14.94355
 30
0.0
 10
-9.79818
 20
-14.97436
 30
0.0
 10
-9.79818
 20
-14.97436
 30
0.0
 10
-9.79818
 20
-14.97436
 30
0.0
 10
-9.79818
 20
-14.97436
 30
0.0
 10
-9.76737
 20
-14.99844
 30
0.0
 10
-9.76737
 20
-14.99844
 30
0.0
 10
-9.76737
 20
-14.99844
 30
0.0
 10
-9.76737
 20
-14.99844
 30
0.0
 10
-9.73936
 20
-15.02532
 30
0.0
 10
-9.73936
 20
-15.02532
 30
0.0
 10
-9.73936
 20
-15.02532
 30
0.0
 10
-9.73936
 20
-15.02532
 30
0.0
 10
-9.11036
 20
-15.8907
 30
0.0
 10
-9.11036
 20
-15.8907
 30
0.0
 10
-9.11036
 20
-15.8907
 30
0.0
 10
-9.11036
 20
-15.8907
 30
0.0
 10
-9.0874
 20
-15.92822
 30
0.0
 10
-9.0874
 20
-15.92822
 30
0.0
 10
-9.0874
 20
-15.92822
 30
0.0
 10
-9.0874
 20
-15.92822
 30
0.0
 10
-9.07171
 20
-15.96966
 30
0.0
 10
-9.07171
 20
-15.96966
 30
0.0
 10
-9.07171
 20
-15.96966
 30
0.0
 10
-9.07171
 20
-15.96966
 30
0.0
 10
-9.06388
 20
-16.01336
 30
0.0
 10
-9.06388
 20
-16.01336
 30
0.0
 10
-9.06388
 20
-16.01336
 30
0.0
 10
-9.06388
 20
-16.01336
 30
0.0
 10
-9.06332
 20
-16.0576
 30
0.0
 10
-9.06332
 20
-16.0576
 30
0.0
 10
-9.06332
 20
-16.0576
 30
0.0
 10
-9.06332
 20
-16.0576
 30
0.0
 10
-9.07059
 20
-16.10073
 30
0.0
 10
-9.07059
 20
-16.10073
 30
0.0
 10
-9.07059
 20
-16.10073
 30
0.0
 10
-9.07059
 20
-16.10073
 30
0.0
 10
-9.08516
 20
-16.14218
 30
0.0
 10
-9.08516
 20
-16.14218
 30
0.0
 10
-9.08516
 20
-16.14218
 30
0.0
 10
-9.08516
 20
-16.14218
 30
0.0
 10
-9.107
 20
-16.18083
 30
0.0
 10
-9.107
 20
-16.18083
 30
0.0
 10
-9.107
 20
-16.18083
 30
0.0
 10
-9.107
 20
-16.18083
 30
0.0
 10
-9.135
 20
-16.21444
 30
0.0
 10
-9.135
 20
-16.21444
 30
0.0
 10
-9.135
 20
-16.21444
 30
0.0
 10
-9.135
 20
-16.21444
 30
0.0
 10
-9.16917
 20
-16.243
 30
0.0
 10
-9.16917
 20
-16.243
 30
0.0
 10
-9.16917
 20
-16.243
 30
0.0
 10
-9.16917
 20
-16.243
 30
0.0
 10
-9.20783
 20
-16.26485
 30
0.0
 10
-9.20783
 20
-16.26485
 30
0.0
 10
-9.20783
 20
-16.26485
 30
0.0
 10
-9.20783
 20
-16.26485
 30
0.0
 10
-9.24928
 20
-16.27942
 30
0.0
 10
-9.24928
 20
-16.27942
 30
0.0
 10
-9.24928
 20
-16.27942
 30
0.0
 10
-9.24928
 20
-16.27942
 30
0.0
 10
-9.2924
 20
-16.28669
 30
0.0
 10
-9.2924
 20
-16.28669
 30
0.0
 10
-9.2924
 20
-16.28669
 30
0.0
 10
-9.2924
 20
-16.28669
 30
0.0
 10
-9.33665
 20
-16.28613
 30
0.0
 10
-9.33665
 20
-16.28613
 30
0.0
 10
-9.33665
 20
-16.28613
 30
0.0
 10
-9.33665
 20
-16.28613
 30
0.0
 10
-9.38034
 20
-16.2783
 30
0.0
 10
-9.38034
 20
-16.2783
 30
0.0
 10
-9.38034
 20
-16.2783
 30
0.0
 10
-9.38034
 20
-16.2783
 30
0.0
 10
-9.42179
 20
-16.26261
 30
0.0
 10
-9.42179
 20
-16.26261
 30
0.0
 10
-9.42179
 20
-16.26261
 30
0.0
 10
-9.42179
 20
-16.26261
 30
0.0
 10
-9.45931
 20
-16.23965
 30
0.0
 10
-9.45931
 20
-16.23965
 30
0.0
 10
-9.45931
 20
-16.23965
 30
0.0
 10
-9.45931
 20
-16.23965
 30
0.0
 10
-10.32468
 20
-15.61064
 30
0.0
 10
-10.32468
 20
-15.61064
 30
0.0
 10
-10.32468
 20
-15.61064
 30
0.0
 10
-10.32468
 20
-15.61064
 30
0.0
 10
-10.35157
 20
-15.58264
 30
0.0
 10
-10.35157
 20
-15.58264
 30
0.0
 10
-10.35157
 20
-15.58264
 30
0.0
 10
-10.35157
 20
-15.58264
 30
0.0
 10
-10.37565
 20
-15.55183
 30
0.0
 10
-10.37565
 20
-15.55183
 30
0.0
 10
-10.37565
 20
-15.55183
 30
0.0
 10
-10.37565
 20
-15.55183
 30
0.0
 10
-10.40646
 20
-15.52663
 30
0.0
 10
-10.40646
 20
-15.52663
 30
0.0
 10
-10.40646
 20
-15.52663
 30
0.0
 10
-10.40646
 20
-15.52663
 30
0.0
 10
-10.44175
 20
-15.50926
 30
0.0
 10
-10.44175
 20
-15.50926
 30
0.0
 10
-10.44175
 20
-15.50926
 30
0.0
 10
-10.44175
 20
-15.50926
 30
0.0
 10
-10.4804
 20
-15.50086
 30
0.0
 10
-10.4804
 20
-15.50086
 30
0.0
 10
-10.4804
 20
-15.50086
 30
0.0
 10
-10.4804
 20
-15.50086
 30
0.0
 10
-10.51961
 20
-15.50086
 30
0.0
 10
-10.51961
 20
-15.50086
 30
0.0
 10
-10.51961
 20
-15.50086
 30
0.0
 10
-10.51961
 20
-15.50086
 30
0.0
 10
-10.55769
 20
-15.50983
 30
0.0
 10
-10.55769
 20
-15.50983
 30
0.0
 10
-10.55769
 20
-15.50983
 30
0.0
 10
-10.55769
 20
-15.50983
 30
0.0
 10
-10.59354
 20
-15.52663
 30
0.0
 10
-10.59354
 20
-15.52663
 30
0.0
 10
-10.59354
 20
-15.52663
 30
0.0
 10
-10.59354
 20
-15.52663
 30
0.0
 10
-10.62435
 20
-15.55184
 30
0.0
 10
-10.62435
 20
-15.55184
 30
0.0
 10
-10.62435
 20
-15.55184
 30
0.0
 10
-10.62435
 20
-15.55184
 30
0.0
 10
-10.64843
 20
-15.58264
 30
0.0
 10
-10.64843
 20
-15.58264
 30
0.0
 10
-10.64843
 20
-15.58264
 30
0.0
 10
-10.64843
 20
-15.58264
 30
0.0
 10
-10.67475
 20
-15.61009
 30
0.0
 10
-10.67475
 20
-15.61009
 30
0.0
 10
-10.67475
 20
-15.61009
 30
0.0
 10
-10.67475
 20
-15.61009
 30
0.0
 10
-11.54069
 20
-16.23965
 30
0.0
 10
-11.54069
 20
-16.23965
 30
0.0
 10
-11.54069
 20
-16.23965
 30
0.0
 10
-11.54069
 20
-16.23965
 30
0.0
 10
-11.57821
 20
-16.26261
 30
0.0
 10
-11.57821
 20
-16.26261
 30
0.0
 10
-11.57821
 20
-16.26261
 30
0.0
 10
-11.57821
 20
-16.26261
 30
0.0
 10
-11.61911
 20
-16.27774
 30
0.0
 10
-11.61911
 20
-16.27774
 30
0.0
 10
-11.61911
 20
-16.27774
 30
0.0
 10
-11.61911
 20
-16.27774
 30
0.0
 10
-11.6628
 20
-16.28557
 30
0.0
 10
-11.6628
 20
-16.28557
 30
0.0
 10
-11.6628
 20
-16.28557
 30
0.0
 10
-11.6628
 20
-16.28557
 30
0.0
 10
-11.70704
 20
-16.28614
 30
0.0
 10
-11.70704
 20
-16.28614
 30
0.0
 10
-11.70704
 20
-16.28614
 30
0.0
 10
-11.70704
 20
-16.28614
 30
0.0
 10
-11.75017
 20
-16.27886
 30
0.0
 10
-11.75017
 20
-16.27886
 30
0.0
 10
-11.75017
 20
-16.27886
 30
0.0
 10
-11.75017
 20
-16.27886
 30
0.0
 10
-11.79161
 20
-16.26429
 30
0.0
 10
-11.79161
 20
-16.26429
 30
0.0
 10
-11.79161
 20
-16.26429
 30
0.0
 10
-11.79161
 20
-16.26429
 30
0.0
 10
-11.83027
 20
-16.24245
 30
0.0
 10
-11.83027
 20
-16.24245
 30
0.0
 10
-11.83027
 20
-16.24245
 30
0.0
 10
-11.83027
 20
-16.24245
 30
0.0
 10
-11.86444
 20
-16.21388
 30
0.0
 10
-11.86444
 20
-16.21388
 30
0.0
 10
-11.86444
 20
-16.21388
 30
0.0
 10
-11.86444
 20
-16.21388
 30
0.0
 10
-11.89244
 20
-16.18027
 30
0.0
 10
-11.89244
 20
-16.18027
 30
0.0
 10
-11.89244
 20
-16.18027
 30
0.0
 10
-11.89244
 20
-16.18027
 30
0.0
 10
-11.91427
 20
-16.14163
 30
0.0
 10
-11.91427
 20
-16.14163
 30
0.0
 10
-11.91427
 20
-16.14163
 30
0.0
 10
-11.91427
 20
-16.14163
 30
0.0
 10
-11.92885
 20
-16.10018
 30
0.0
 10
-11.92885
 20
-16.10018
 30
0.0
 10
-11.92885
 20
-16.10018
 30
0.0
 10
-11.92885
 20
-16.10018
 30
0.0
 10
-11.93669
 20
-16.05649
 30
0.0
 10
-11.93669
 20
-16.05649
 30
0.0
 10
-11.93669
 20
-16.05649
 30
0.0
 10
-11.93669
 20
-16.05649
 30
0.0
 10
-11.93613
 20
-16.01224
 30
0.0
 10
-11.93613
 20
-16.01224
 30
0.0
 10
-11.93613
 20
-16.01224
 30
0.0
 10
-11.93613
 20
-16.01224
 30
0.0
 10
-11.92773
 20
-15.96912
 30
0.0
 10
-11.92773
 20
-15.96912
 30
0.0
 10
-11.92773
 20
-15.96912
 30
0.0
 10
-11.92773
 20
-15.96912
 30
0.0
 10
-11.9126
 20
-15.92822
 30
0.0
 10
-11.9126
 20
-15.92822
 30
0.0
 10
-11.9126
 20
-15.92822
 30
0.0
 10
-11.9126
 20
-15.92822
 30
0.0
 10
-11.88964
 20
-15.8907
 30
0.0
 10
-11.88964
 20
-15.8907
 30
0.0
 10
-11.88964
 20
-15.8907
 30
0.0
 10
-11.88964
 20
-15.8907
 30
0.0
 10
-11.26064
 20
-15.0242
 30
0.0
 10
-11.26064
 20
-15.0242
 30
0.0
 10
-11.26064
 20
-15.0242
 30
0.0
 10
-11.26064
 20
-15.0242
 30
0.0
 10
-11.23263
 20
-14.99844
 30
0.0
 10
-11.23263
 20
-14.99844
 30
0.0
 10
-11.23263
 20
-14.99844
 30
0.0
 10
-11.23263
 20
-14.99844
 30
0.0
 10
-11.20183
 20
-14.97436
 30
0.0
 10
-11.20183
 20
-14.97436
 30
0.0
 10
-11.20183
 20
-14.97436
 30
0.0
 10
-11.20183
 20
-14.97436
 30
0.0
 10
-11.17662
 20
-14.94355
 30
0.0
 10
-11.17662
 20
-14.94355
 30
0.0
 10
-11.17662
 20
-14.94355
 30
0.0
 10
-11.17662
 20
-14.94355
 30
0.0
 10
-11.15982
 20
-14.9077
 30
0.0
 10
-11.15982
 20
-14.9077
 30
0.0
 10
-11.15982
 20
-14.9077
 30
0.0
 10
-11.15982
 20
-14.9077
 30
0.0
 10
-11.15086
 20
-14.86961
 30
0.0
 10
-11.15086
 20
-14.86961
 30
0.0
 10
-11.15086
 20
-14.86961
 30
0.0
 10
-11.15086
 20
-14.86961
 30
0.0
 10
-11.15085
 20
-14.83041
 30
0.0
 10
-11.15085
 20
-14.83041
 30
0.0
 10
-11.15085
 20
-14.83041
 30
0.0
 10
-11.15085
 20
-14.83041
 30
0.0
 10
-11.15982
 20
-14.79119
 30
0.0
 10
-11.15982
 20
-14.79119
 30
0.0
 10
-11.15982
 20
-14.79119
 30
0.0
 10
-11.15982
 20
-14.79119
 30
0.0
 10
-11.17718
 20
-14.75591
 30
0.0
 10
-11.17718
 20
-14.75591
 30
0.0
 10
-11.17718
 20
-14.75591
 30
0.0
 10
-11.17718
 20
-14.75591
 30
0.0
 10
-11.20182
 20
-14.72567
 30
0.0
 10
-11.20182
 20
-14.72567
 30
0.0
 10
-11.20182
 20
-14.72567
 30
0.0
 10
-11.20182
 20
-14.72567
 30
0.0
 10
-11.23263
 20
-14.70158
 30
0.0
 10
-11.23263
 20
-14.70158
 30
0.0
 10
-11.23263
 20
-14.70158
 30
0.0
 10
-11.23263
 20
-14.70158
 30
0.0
 10
-11.26064
 20
-14.67469
 30
0.0
 10
-11.26064
 20
-14.67469
 30
0.0
 10
-11.26064
 20
-14.67469
 30
0.0
 10
-11.26064
 20
-14.67469
 30
0.0
 10
-11.89021
 20
-13.80875
 30
0.0
 10
-11.89021
 20
-13.80875
 30
0.0
 10
-11.89021
 20
-13.80875
 30
0.0
 10
-11.89021
 20
-13.80875
 30
0.0
 10
-11.91317
 20
-13.77123
 30
0.0
 10
-11.91317
 20
-13.77123
 30
0.0
 10
-11.91317
 20
-13.77123
 30
0.0
 10
-11.91317
 20
-13.77123
 30
0.0
 10
-11.92886
 20
-13.72978
 30
0.0
 10
-11.92886
 20
-13.72978
 30
0.0
 10
-11.92886
 20
-13.72978
 30
0.0
 10
-11.92886
 20
-13.72978
 30
0.0
 10
-11.93669
 20
-13.68609
 30
0.0
 10
-11.93669
 20
-13.68609
 30
0.0
 10
-11.93669
 20
-13.68609
 30
0.0
 10
-11.93669
 20
-13.68609
 30
0.0
 10
-11.9367
 20
-13.6424
 30
0.0
 10
-11.9367
 20
-13.6424
 30
0.0
 10
-11.9367
 20
-13.6424
 30
0.0
 10
-11.9367
 20
-13.6424
 30
0.0
 10
-11.92998
 20
-13.59872
 30
0.0
 10
-11.92998
 20
-13.59872
 30
0.0
 10
-11.92998
 20
-13.59872
 30
0.0
 10
-11.92998
 20
-13.59872
 30
0.0
 10
-11.91485
 20
-13.55783
 30
0.0
 10
-11.91485
 20
-13.55783
 30
0.0
 10
-11.91485
 20
-13.55783
 30
0.0
 10
-11.91485
 20
-13.55783
 30
0.0
 10
-11.893
 20
-13.51917
 30
0.0
 10
-11.893
 20
-13.51917
 30
0.0
 10
-11.893
 20
-13.51917
 30
0.0
 10
-11.893
 20
-13.51917
 30
0.0
 10
-11.86444
 20
-13.485
 30
0.0
 10
-11.86444
 20
-13.485
 30
0.0
 10
-11.86444
 20
-13.485
 30
0.0
 10
-11.86444
 20
-13.485
 30
0.0
 10
-11.83083
 20
-13.457
 30
0.0
 10
-11.83083
 20
-13.457
 30
0.0
 10
-11.83083
 20
-13.457
 30
0.0
 10
-11.83083
 20
-13.457
 30
0.0
 10
-11.79218
 20
-13.43516
 30
0.0
 10
-11.79218
 20
-13.43516
 30
0.0
 10
-11.79218
 20
-13.43516
 30
0.0
 10
-11.79218
 20
-13.43516
 30
0.0
 10
-11.75129
 20
-13.42003
 30
0.0
 10
-11.75129
 20
-13.42003
 30
0.0
 10
-11.75129
 20
-13.42003
 30
0.0
 10
-11.75129
 20
-13.42003
 30
0.0
 10
-11.70761
 20
-13.41331
 30
0.0
 10
-11.70761
 20
-13.41331
 30
0.0
 10
-11.70761
 20
-13.41331
 30
0.0
 10
-11.70761
 20
-13.41331
 30
0.0
 10
-11.66392
 20
-13.41332
 30
0.0
 10
-11.66392
 20
-13.41332
 30
0.0
 10
-11.66392
 20
-13.41332
 30
0.0
 10
-11.66392
 20
-13.41332
 30
0.0
 10
-11.62022
 20
-13.42115
 30
0.0
 10
-11.62022
 20
-13.42115
 30
0.0
 10
-11.62022
 20
-13.42115
 30
0.0
 10
-11.62022
 20
-13.42115
 30
0.0
 10
-11.57878
 20
-13.43684
 30
0.0
 10
-11.57878
 20
-13.43684
 30
0.0
 10
-11.57878
 20
-13.43684
 30
0.0
 10
-11.57878
 20
-13.43684
 30
0.0
 10
-11.54126
 20
-13.4598
 30
0.0
 10
-11.54126
 20
-13.4598
 30
0.0
  0
SPLINE
  5
B6
330
1F
100
AcDbEntity
  8
Layer 1
 62
   250
370
    53
100
AcDbSpline
210
0.0
220
0.0
230
1.0
 70
    11
 71
     3
 72
    20
 73
    16
 74
     0
 42
0.0000000001
 43
0.0000000001
 40
0.0
 40
0.0
 40
0.0
 40
0.0
 40
0.25
 40
0.25
 40
0.25
 40
0.25
 40
0.5
 40
0.5
 40
0.5
 40
0.5
 40
0.75
 40
0.75
 40
0.75
 40
0.75
 40
1.0
 40
1.0
 40
1.0
 40
1.0
 10
-10.78284
 20
-14.56716
 30
0.0
 10
-10.62666
 20
-14.41097
 30
0.0
 10
-10.37334
 20
-14.41097
 30
0.0
 10
-10.21716
 20
-14.56716
 30
0.0
 10
-10.21716
 20
-14.56716
 30
0.0
 10
-10.06097
 20
-14.72334
 30
0.0
 10
-10.06097
 20
-14.97666
 30
0.0
 10
-10.21716
 20
-15.13284
 30
0.0
 10
-10.21716
 20
-15.13284
 30
0.0
 10
-10.37334
 20
-15.28903
 30
0.0
 10
-10.62666
 20
-15.28903
 30
0.0
 10
-10.78284
 20
-15.13284
 30
0.0
 10
-10.78284
 20
-15.13284
 30
0.0
 10
-10.93903
 20
-14.97666
 30
0.0
 10
-10.93903
 20
-14.72334
 30
0.0
 10
-10.78284
 20
-14.56716
 30
0.0
  0
ENDSEC
  0
SECTION
  2
OBJECTS
  0
DICTIONARY
  5
C
330
0
100
AcDbDictionary
281
     1
  3
ACAD_GROUP
350
D
  3
ACAD_LAYOUT
350
1A
  3
ACAD_MLEADERSTYLE
350
B8
  3
ACAD_MLINESTYLE
350
17
  3
ACAD_PLOTSETTINGS
350
19
  3
ACAD_PLOTSTYLENAME
350
E
  3
ACAD_SCALELIST
350
3B
  3
ACAD_TABLESTYLE
350
B7
  3
ACAD_VISUALSTYLE
350
2A
  0
DICTIONARY
  5
D
102
{ACAD_REACTORS
330
C
102
}
330
C
100
AcDbDictionary
281
     1
  0
DICTIONARY
  5
1A
102
{ACAD_REACTORS
330
C
102
}
330
C
100
AcDbDictionary
281
     1
  3
Layout1
350
1E
  3
Layout2
350
26
  3
Model
350
22
  0
DICTIONARY
  5
B8
102
{ACAD_REACTORS
330
C
102
}
330
C
100
AcDbDictionary
281
     1
  0
DICTIONARY
  5
17
102
{ACAD_REACTORS
330
C
102
}
330
C
100
AcDbDictionary
281
     1
  3
Standard
350
18
  0
DICTIONARY
  5
19
102
{ACAD_REACTORS
330
C
102
}
330
C
100
AcDbDictionary
281
     1
  0
ACDBDICTIONARYWDFLT
  5
E
102
{ACAD_REACTORS
330
C
102
}
330
C
100
AcDbDictionary
281
     1
  3
Normal
350
F
100
AcDbDictionaryWithDefault
340
F
  0
DICTIONARY
  5
3B
102
{ACAD_REACTORS
330
C
102
}
330
C
100
AcDbDictionary
281
     1
  3
A0
350
3C
  3
A1
350
3D
  3
A2
350
3E
  3
A3
350
3F
  3
A4
350
40
  3
A5
350
41
  3
A6
350
42
  3
A7
350
43
  3
A8
350
44
  3
A9
350
45
  3
B0
350
46
  3
B1
350
47
  3
B2
350
48
  3
B3
350
49
  3
B4
350
4A
  3
B5
350
4B
  3
B6
350
4C
  3
B7
350
4D
  3
B8
350
4E
  3
B9
350
4F
  3
C0
350
50
  3
C1
350
51
  3
C2
350
52
  3
C3
350
53
  3
C4
350
54
  3
C5
350
55
  3
C6
350
56
  3
C7
350
57
  3
C8
350
58
  3
C9
350
59
  3
D0
350
5A
  3
D1
350
5B
  3
D2
350
5C
  0
DICTIONARY
  5
B7
102
{ACAD_REACTORS
330
C
102
}
330
C
100
AcDbDictionary
281
     1
  0
DICTIONARY
  5
2A
102
{ACAD_REACTORS
330
C
102
}
330
C
100
AcDbDictionary
281
     1
  3
2dWireframe
350
2F
  3
3D Hidden
350
31
  3
3dWireframe
350
30
  3
Basic
350
32
  3
Brighten
350
36
  3
ColorChange
350
3A
  3
Conceptual
350
34
  3
Dim
350
35
  3
Facepattern
350
39
  3
Flat
350
2B
  3
FlatWithEdges
350
2C
  3
Gouraud
350
2D
  3
GouraudWithEdges
350
2E
  3
Linepattern
350
38
  3
Realistic
350
33
  3
Thicken
350
37
  0
LAYOUT
  5
1E
102
{ACAD_REACTORS
330
1A
102
}
330
1A
100
AcDbPlotSettings
  1

  2
none_device
  4

  6

 40
0.0
 41
0.0
 42
0.0
 43
0.0
 44
0.0
 45
0.0
 46
0.0
 47
0.0
 48
0.0
 49
0.0
140
0.0
141
0.0
142
1.0
143
1.0
 70
   688
 72
     0
 73
     0
 74
     5
  7

 75
    16
 76
     0
 77
     2
 78
   300
147
1.0
148
0.0
149
0.0
100
AcDbLayout
  1
Layout1
 70
     1
 71
     1
 10
0.0
 20
0.0
 11
12.0
 21
9.0
 12
0.0
 22
0.0
 32
0.0
 14
1.000000000000000E+20
 24
1.000000000000000E+20
 34
1.000000000000000E+20
 15
-1.000000000000000E+20
 25
-1.000000000000000E+20
 35
-1.000000000000000E+20
146
0.0
 13
0.0
 23
0.0
 33
0.0
 16
1.0
 26
0.0
 36
0.0
 17
0.0
 27
1.0
 37
0.0
 76
     0
330
1B
  0
LAYOUT
  5
26
102
{ACAD_REACTORS
330
1A
102
}
330
1A
100
AcDbPlotSettings
  1

  2
none_device
  4

  6

 40
0.0
 41
0.0
 42
0.0
 43
0.0
 44
0.0
 45
0.0
 46
0.0
 47
0.0
 48
0.0
 49
0.0
140
0.0
141
0.0
142
1.0
143
1.0
 70
   688
 72
     0
 73
     0
 74
     5
  7

 75
    16
 76
     0
 77
     2
 78
   300
147
1.0
148
0.0
149
0.0
100
AcDbLayout
  1
Layout2
 70
     1
 71
     2
 10
0.0
 20
0.0
 11
0.0
 21
0.0
 12
0.0
 22
0.0
 32
0.0
 14
0.0
 24
0.0
 34
0.0
 15
0.0
 25
0.0
 35
0.0
146
0.0
 13
0.0
 23
0.0
 33
0.0
 16
1.0
 26
0.0
 36
0.0
 17
0.0
 27
1.0
 37
0.0
 76
     0
330
23
  0
LAYOUT
  5
22
102
{ACAD_REACTORS
330
1A
102
}
330
1A
100
AcDbPlotSettings
  1

  2
none_device
  4

  6

 40
0.0
 41
0.0
 42
0.0
 43
0.0
 44
0.0
 45
0.0
 46
0.0
 47
0.0
 48
0.0
 49
0.0
140
0.0
141
0.0
142
1.0
143
1.0
 70
  1712
 72
     0
 73
     0
 74
     0
  7

 75
     0
 76
     0
 77
     2
 78
   300
147
1.0
148
0.0
149
0.0
100
AcDbLayout
  1
Model
 70
     1
 71
     0
 10
0.0
 20
0.0
 11
12.0
 21
9.0
 12
0.0
 22
0.0
 32
0.0
 14
-16.17822
 24
-20.52826
 34
0.0
 15
-4.82178
 25
-9.17182
 35
0.0
146
0.0
 13
0.0
 23
0.0
 33
0.0
 16
1.0
 26
0.0
 36
0.0
 17
0.0
 27
1.0
 37
0.0
 76
     0
330
1F
331
29
  0
MLINESTYLE
  5
18
102
{ACAD_REACTORS
330
17
102
}
330
17
100
AcDbMlineStyle
  2
Standard
 70
     0
  3

 62
   256
 51
90.0
 52
90.0
 71
     2
 49
0.5
 62
   256
  6
BYLAYER
 49
-0.5
 62
   256
  6
BYLAYER
  0
ACDBPLACEHOLDER
  5
F
102
{ACAD_REACTORS
330
E
102
}
330
E
  0
SCALE
  5
3C
102
{ACAD_REACTORS
330
3B
102
}
330
3B
100
AcDbScale
 70
     0
300
1:1
140
1.0
141
1.0
290
     1
  0
SCALE
  5
3D
102
{ACAD_REACTORS
330
3B
102
}
330
3B
100
AcDbScale
 70
     0
300
1:2
140
1.0
141
2.0
290
     0
  0
SCALE
  5
3E
102
{ACAD_REACTORS
330
3B
102
}
330
3B
100
AcDbScale
 70
     0
300
1:4
140
1.0
141
4.0
290
     0
  0
SCALE
  5
3F
102
{ACAD_REACTORS
330
3B
102
}
330
3B
100
AcDbScale
 70
     0
300
1:5
140
1.0
141
5.0
290
     0
  0
SCALE
  5
40
102
{ACAD_REACTORS
330
3B
102
}
330
3B
100
AcDbScale
 70
     0
300
1:8
140
1.0
141
8.0
290
     0
  0
SCALE
  5
41
102
{ACAD_REACTORS
330
3B
102
}
330
3B
100
AcDbScale
 70
     0
300
1:10
140
1.0
141
10.0
290
     0
  0
SCALE
  5
42
102
{ACAD_REACTORS
330
3B
102
}
330
3B
100
AcDbScale
 70
     0
300
1:16
140
1.0
141
16.0
290
     0
  0
SCALE
  5
43
102
{ACAD_REACTORS
330
3B
102
}
330
3B
100
AcDbScale
 70
     0
300
1:20
140
1.0
141
20.0
290
     0
  0
SCALE
  5
44
102
{ACAD_REACTORS
330
3B
102
}
330
3B
100
AcDbScale
 70
     0
300
1:30
140
1.0
141
30.0
290
     0
  0
SCALE
  5
45
102
{ACAD_REACTORS
330
3B
102
}
330
3B
100
AcDbScale
 70
     0
300
1:40
140
1.0
141
40.0
290
     0
  0
SCALE
  5
46
102
{ACAD_REACTORS
330
3B
102
}
330
3B
100
AcDbScale
 70
     0
300
1:50
140
1.0
141
50.0
290
     0
  0
SCALE
  5
47
102
{ACAD_REACTORS
330
3B
102
}
330
3B
100
AcDbScale
 70
     0
300
1:100
140
1.0
141
100.0
290
     0
  0
SCALE
  5
48
102
{ACAD_REACTORS
330
3B
102
}
330
3B
100
AcDbScale
 70
     0
300
2:1
140
2.0
141
1.0
290
     0
  0
SCALE
  5
49
102
{ACAD_REACTORS
330
3B
102
}
330
3B
100
AcDbScale
 70
     0
300
4:1
140
4.0
141
1.0
290
     0
  0
SCALE
  5
4A
102
{ACAD_REACTORS
330
3B
102
}
330
3B
100
AcDbScale
 70
     0
300
8:1
140
8.0
141
1.0
290
     0
  0
SCALE
  5
4B
102
{ACAD_REACTORS
330
3B
102
}
330
3B
100
AcDbScale
 70
     0
300
10:1
140
10.0
141
1.0
290
     0
  0
SCALE
  5
4C
102
{ACAD_REACTORS
330
3B
102
}
330
3B
100
AcDbScale
 70
     0
300
100:1
140
100.0
141
1.0
290
     0
  0
SCALE
  5
4D
102
{ACAD_REACTORS
330
3B
102
}
330
3B
100
AcDbScale
 70
     0
300
1/128" = 1'-0"
140
0.0078125
141
12.0
290
     0
  0
SCALE
  5
4E
102
{ACAD_REACTORS
330
3B
102
}
330
3B
100
AcDbScale
 70
     0
300
1/64" = 1'-0"
140
0.015625
141
12.0
290
     0
  0
SCALE
  5
4F
102
{ACAD_REACTORS
330
3B
102
}
330
3B
100
AcDbScale
 70
     0
300
1/32" = 1'-0"
140
0.03125
141
12.0
290
     0
  0
SCALE
  5
50
102
{ACAD_REACTORS
330
3B
102
}
330
3B
100
AcDbScale
 70
     0
300
1/16" = 1'-0"
140
0.0625
141
12.0
290
     0
  0
SCALE
  5
51
102
{ACAD_REACTORS
330
3B
102
}
330
3B
100
AcDbScale
 70
     0
300
3/32" = 1'-0"
140
0.09375
141
12.0
290
     0
  0
SCALE
  5
52
102
{ACAD_REACTORS
330
3B
102
}
330
3B
100
AcDbScale
 70
     0
300
1/8" = 1'-0"
140
0.125
141
12.0
290
     0
  0
SCALE
  5
53
102
{ACAD_REACTORS
330
3B
102
}
330
3B
100
AcDbScale
 70
     0
300
3/16" = 1'-0"
140
0.1875
141
12.0
290
     0
  0
SCALE
  5
54
102
{ACAD_REACTORS
330
3B
102
}
330
3B
100
AcDbScale
 70
     0
300
1/4" = 1'-0"
140
0.25
141
12.0
290
     0
  0
SCALE
  5
55
102
{ACAD_REACTORS
330
3B
102
}
330
3B
100
AcDbScale
 70
     0
300
3/8" = 1'-0"
140
0.375
141
12.0
290
     0
  0
SCALE
  5
56
102
{ACAD_REACTORS
330
3B
102
}
330
3B
100
AcDbScale
 70
     0
300
1/2" = 1'-0"
140
0.5
141
12.0
290
     0
  0
SCALE
  5
57
102
{ACAD_REACTORS
330
3B
102
}
330
3B
100
AcDbScale
 70
     0
300
3/4" = 1'-0"
140
0.75
141
12.0
290
     0
  0
SCALE
  5
58
102
{ACAD_REACTORS
330
3B
102
}
330
3B
100
AcDbScale
 70
     0
300
1" = 1'-0"
140
1.0
141
12.0
290
     0
  0
SCALE
  5
59
102
{ACAD_REACTORS
330
3B
102
}
330
3B
100
AcDbScale
 70
     0
300
1-1/2" = 1'-0"
140
1.5
141
12.0
290
     0
  0
SCALE
  5
5A
102
{ACAD_REACTORS
330
3B
102
}
330
3B
100
AcDbScale
 70
     0
300
3" = 1'-0"
140
3.0
141
12.0
290
     0
  0
SCALE
  5
5B
102
{ACAD_REACTORS
330
3B
102
}
330
3B
100
AcDbScale
 70
     0
300
6" = 1'-0"
140
6.0
141
12.0
290
     0
  0
SCALE
  5
5C
102
{ACAD_REACTORS
330
3B
102
}
330
3B
100
AcDbScale
 70
     0
300
1'-0" = 1'-0"
140
12.0
141
12.0
290
     0
  0
VISUALSTYLE
  5
2F
102
{ACAD_REACTORS
330
2A
102
}
330
2A
100
AcDbVisualStyle
  2
2dWireframe
 70
     4
 71
     0
 72
     2
 73
     0
 90
        0
 40
-0.6
 41
-30.0
 62
     5
 63
     7
421
 16777215
 74
     1
 91
        4
 64
     7
 65
   257
 75
     1
175
     1
 42
1.0
 92
        0
 66
   257
 43
1.0
 76
     1
 77
     6
 78
     2
 67
     7
 79
     5
170
     0
171
     0
290
     0
174
     0
 93
        1
 44
0.0
173
     0
291
     0
 45
0.0
  0
VISUALSTYLE
  5
31
102
{ACAD_REACTORS
330
2A
102
}
330
2A
100
AcDbVisualStyle
  2
3D Hidden
 70
     6
 71
     1
 72
     2
 73
     2
 90
        0
 40
-0.6
 41
-30.0
 62
     5
 63
     7
421
 16777215
 74
     2
 91
        2
 64
     7
 65
   257
 75
     2
175
     1
 42
40.0
 92
        0
 66
   257
 43
1.0
 76
     1
 77
     6
 78
     2
 67
     7
 79
     3
170
     0
171
     0
290
     0
174
     0
 93
        1
 44
0.0
173
     0
291
     0
 45
0.0
  0
VISUALSTYLE
  5
30
102
{ACAD_REACTORS
330
2A
102
}
330
2A
100
AcDbVisualStyle
  2
3dWireframe
 70
     5
 71
     0
 72
     2
 73
     0
 90
        0
 40
-0.6
 41
-30.0
 62
     5
 63
     7
421
 16777215
 74
     1
 91
        4
 64
     7
 65
   257
 75
     1
175
     1
 42
1.0
 92
        0
 66
   257
 43
1.0
 76
     1
 77
     6
 78
     2
 67
     7
 79
     5
170
     0
171
     0
290
     0
174
     0
 93
        1
 44
0.0
173
     0
291
     0
 45
0.0
  0
VISUALSTYLE
  5
32
102
{ACAD_REACTORS
330
2A
102
}
330
2A
100
AcDbVisualStyle
  2
Basic
 70
     7
 71
     1
 72
     0
 73
     1
 90
        0
 40
-0.6
 41
-30.0
 62
     5
 63
     7
421
 16777215
 74
     0
 91
        4
 64
     7
 65
   257
 75
     1
175
     1
 42
1.0
 92
        8
 66
     7
 43
1.0
 76
     1
 77
     6
 78
     2
 67
     7
 79
     5
170
     0
171
     0
290
     0
174
     0
 93
        1
 44
0.0
173
     0
291
     1
 45
0.0
  0
VISUALSTYLE
  5
36
102
{ACAD_REACTORS
330
2A
102
}
330
2A
100
AcDbVisualStyle
  2
Brighten
 70
    12
 71
     2
 72
     2
 73
     0
 90
        0
 40
-0.6
 41
-30.0
 62
     5
 63
     7
421
 16777215
 74
     1
 91
        4
 64
     7
 65
   257
 75
     1
175
     1
 42
1.0
 92
        8
 66
     7
 43
1.0
 76
     1
 77
     6
 78
     2
 67
     7
 79
     5
170
     0
171
     0
290
     0
174
     0
 93
        1
 44
50.0
173
     0
291
     1
 45
0.0
  0
VISUALSTYLE
  5
3A
102
{ACAD_REACTORS
330
2A
102
}
330
2A
100
AcDbVisualStyle
  2
ColorChange
 70
    16
 71
     2
 72
     2
 73
     3
 90
        0
 40
-0.6
 41
-30.0
 62
     5
 63
     8
421
  8421504
 74
     1
 91
        4
 64
     7
 65
   257
 75
     1
175
     1
 42
1.0
 92
        8
 66
     8
424
  8421504
 43
1.0
 76
     1
 77
     6
 78
     2
 67
     7
 79
     5
170
     0
171
     0
290
     0
174
     0
 93
        1
 44
0.0
173
     0
291
     1
 45
0.0
  0
VISUALSTYLE
  5
34
102
{ACAD_REACTORS
330
2A
102
}
330
2A
100
AcDbVisualStyle
  2
Conceptual
 70
     9
 71
     3
 72
     2
 73
     0
 90
        0
 40
-0.6
 41
-30.0
 62
     5
 63
     7
421
 16777215
 74
     2
 91
        2
 64
     7
 65
   257
 75
     1
175
     1
 42
40.0
 92
        8
 66
     7
 43
1.0
 76
     1
 77
     6
 78
     2
 67
     7
 79
     3
170
     0
171
     0
290
     0
174
     0
 93
        1
 44
0.0
173
     0
291
     0
 45
0.0
  0
VISUALSTYLE
  5
35
102
{ACAD_REACTORS
330
2A
102
}
330
2A
100
AcDbVisualStyle
  2
Dim
 70
    11
 71
     2
 72
     2
 73
     0
 90
        0
 40
-0.6
 41
-30.0
 62
     5
 63
     7
421
 16777215
 74
     1
 91
        4
 64
     7
 65
   257
 75
     1
175
     1
 42
1.0
 92
        8
 66
     7
 43
1.0
 76
     1
 77
     6
 78
     2
 67
     7
 79
     5
170
     0
171
     0
290
     0
174
     0
 93
        1
 44
-50.0
173
     0
291
     1
 45
0.0
  0
VISUALSTYLE
  5
39
102
{ACAD_REACTORS
330
2A
102
}
330
2A
100
AcDbVisualStyle
  2
Facepattern
 70
    15
 71
     2
 72
     2
 73
     0
 90
        0
 40
-0.6
 41
-30.0
 62
     5
 63
     7
421
 16777215
 74
     1
 91
        4
 64
     7
 65
   257
 75
     1
175
     1
 42
1.0
 92
        8
 66
     7
 43
1.0
 76
     1
 77
     6
 78
     2
 67
     7
 79
     5
170
     0
171
     0
290
     0
174
     0
 93
        1
 44
0.0
173
     0
291
     1
 45
0.0
  0
VISUALSTYLE
  5
2B
102
{ACAD_REACTORS
330
2A
102
}
330
2A
100
AcDbVisualStyle
  2
Flat
 70
     0
 71
     2
 72
     1
 73
     1
 90
        2
 40
-0.6
 41
30.0
 62
     5
 63
     7
421
 16777215
 74
     0
 91
        4
 64
     7
 65
   257
 75
     1
175
     1
 42
1.0
 92
        8
 66
     7
 43
1.0
 76
     1
 77
     6
 78
     2
 67
     7
 79
     5
170
     0
171
     0
290
     0
174
     0
 93
       13
 44
0.0
173
     0
291
     1
 45
0.0
  0
VISUALSTYLE
  5
2C
102
{ACAD_REACTORS
330
2A
102
}
330
2A
100
AcDbVisualStyle
  2
FlatWithEdges
 70
     1
 71
     2
 72
     1
 73
     1
 90
        2
 40
-0.6
 41
30.0
 62
     5
 63
     7
421
 16777215
 74
     1
 91
        4
 64
     7
 65
   257
 75
     1
175
     1
 42
1.0
 92
        0
 66
   257
 43
1.0
 76
     1
 77
     6
 78
     2
 67
     7
 79
     5
170
     0
171
     0
290
     0
174
     0
 93
       13
 44
0.0
173
     0
291
     1
 45
0.0
  0
VISUALSTYLE
  5
2D
102
{ACAD_REACTORS
330
2A
102
}
330
2A
100
AcDbVisualStyle
  2
Gouraud
 70
     2
 71
     2
 72
     2
 73
     1
 90
        2
 40
-0.6
 41
30.0
 62
     5
 63
     7
421
 16777215
 74
     0
 91
        4
 64
     7
 65
   257
 75
     1
175
     1
 42
1.0
 92
        0
 66
     7
 43
1.0
 76
     1
 77
     6
 78
     2
 67
     7
 79
     5
170
     0
171
     0
290
     0
174
     0
 93
       13
 44
0.0
173
     0
291
     1
 45
0.0
  0
VISUALSTYLE
  5
2E
102
{ACAD_REACTORS
330
2A
102
}
330
2A
100
AcDbVisualStyle
  2
GouraudWithEdges
 70
     3
 71
     2
 72
     2
 73
     1
 90
        2
 40
-0.6
 41
30.0
 62
     5
 63
     7
421
 16777215
 74
     1
 91
        4
 64
     7
 65
   257
 75
     1
175
     1
 42
1.0
 92
        0
 66
   257
 43
1.0
 76
     1
 77
     6
 78
     2
 67
     7
 79
     5
170
     0
171
     0
290
     0
174
     0
 93
       13
 44
0.0
173
     0
291
     1
 45
0.0
  0
VISUALSTYLE
  5
38
102
{ACAD_REACTORS
330
2A
102
}
330
2A
100
AcDbVisualStyle
  2
Linepattern
 70
    14
 71
     2
 72
     2
 73
     0
 90
        0
 40
-0.6
 41
-30.0
 62
     5
 63
     7
421
 16777215
 74
     1
 91
        4
 64
     7
 65
   257
 75
     7
175
     7
 42
1.0
 92
        8
 66
     7
 43
1.0
 76
     1
 77
     6
 78
     2
 67
     7
 79
     5
170
     0
171
     0
290
     0
174
     0
 93
        1
 44
0.0
173
     0
291
     1
 45
0.0
  0
VISUALSTYLE
  5
33
102
{ACAD_REACTORS
330
2A
102
}
330
2A
100
AcDbVisualStyle
  2
Realistic
 70
     8
 71
     2
 72
     2
 73
     0
 90
        0
 40
-0.6
 41
-30.0
 62
     5
 63
     7
421
 16777215
 74
     1
 91
        0
 64
     7
 65
   257
 75
     1
175
     1
 42
1.0
 92
        8
 66
     8
424
  7895160
 43
1.0
 76
     1
 77
     6
 78
     2
 67
     7
 79
     5
170
     0
171
     0
290
     0
174
     0
 93
       13
 44
0.0
173
     0
291
     0
 45
0.0
  0
VISUALSTYLE
  5
37
102
{ACAD_REACTORS
330
2A
102
}
330
2A
100
AcDbVisualStyle
  2
Thicken
 70
    13
 71
     2
 72
     2
 73
     0
 90
        0
 40
-0.6
 41
-30.0
 62
     5
 63
     7
421
 16777215
 74
     1
 91
        4
 64
     7
 65
   257
 75
     1
175
     1
 42
1.0
 92
       12
 66
     7
 43
1.0
 76
     1
 77
     6
 78
     2
 67
     7
 79
     5
170
     0
171
     0
290
     0
174
     0
 93
        1
 44
0.0
173
     0
291
     1
 45
0.0
  0
ENDSEC
  0
EOF
