  0
SECTION
  2
BLOCKS
  0
ENDSEC
  0
SECTION
  2
ENTITIES
  0
LINE
  8
0
 10
-2.39999
 20
-3.17705
 11
-1.70311
 21
-3.61929
  0
LINE
  8
0
 10
-1.70311
 20
-3.61929
 11
-0.749512
 21
-3.92914
  0
LINE
  8
0
 10
-0.749512
 20
-3.92914
 11
0.25116
 21
-3.9921
  0
LINE
  8
0
 10
0.25116
 20
-3.9921
 11
1.23605
 21
-3.80421
  0
LINE
  8
0
 10
1.23605
 20
-3.80421
 11
2.1433
 21
-3.3773
  0
LINE
  8
0
 10
2.1433
 20
-3.3773
 11
2.91586
 21
-2.73817
  0
LINE
  8
0
 10
2.91586
 20
-2.73817
 11
3.50522
 21
-1.927
  0
LINE
  8
0
 10
3.50522
 20
-1.927
 11
3.87433
 21
-0.994751
  0
LINE
  8
0
 10
3.87433
 20
-0.994751
 11
3.93683
 21
-0.5
  0
LINE
  8
0
 10
3.93683
 20
-0.5
 11
1
 21
-0.5
  0
LINE
  8
0
 10
1
 20
-0.5
 11
1
 21
-1.1685
  0
LINE
  8
0
 10
1
 20
-1.1685
 11
0.830521
 21
-1.3087
  0
LINE
  8
0
 10
0.830521
 20
-1.3087
 11
0.478973
 21
-1.47414
  0
LINE
  8
0
 10
0.478973
 20
-1.47414
 11
0.0973206
 21
-1.54694
  0
LINE
  8
0
 10
0.0973206
 20
-1.54694
 11
-0.290436
 21
-1.52254
  0
LINE
  8
0
 10
-0.290436
 20
-1.52254
 11
-0.659958
 21
-1.40248
  0
LINE
  8
0
 10
-0.659958
 20
-1.40248
 11
-0.988007
 21
-1.19429
  0
LINE
  8
0
 10
-0.988007
 20
-1.19429
 11
-1.25397
 21
-0.911057
  0
LINE
  8
0
 10
-1.25397
 20
-0.911057
 11
-1.44115
 21
-0.570587
  0
LINE
  8
0
 10
-1.44115
 20
-0.570587
 11
-1.53777
 21
-0.19426
  0
LINE
  8
0
 10
-1.53777
 20
-0.19426
 11
-1.53777
 21
0.19426
  0
LINE
  8
0
 10
-1.53777
 20
0.19426
 11
-1.44115
 21
0.570587
  0
LINE
  8
0
 10
-1.44115
 20
0.570587
 11
-1.25397
 21
0.911057
  0
LINE
  8
0
 10
-1.25397
 20
0.911057
 11
-0.988007
 21
1.19429
  0
LINE
  8
0
 10
-0.988007
 20
1.19429
 11
-0.659958
 21
1.40248
  0
LINE
  8
0
 10
-0.659958
 20
1.40248
 11
-0.290436
 21
1.52254
  0
LINE
  8
0
 10
-0.290436
 20
1.52254
 11
0.0973206
 21
1.54694
  0
LINE
  8
0
 10
0.0973206
 20
1.54694
 11
0.478973
 21
1.47414
  0
LINE
  8
0
 10
0.478973
 20
1.47414
 11
0.830521
 21
1.3087
  0
LINE
  8
0
 10
0.830521
 20
1.3087
 11
1
 21
1.1685
  0
LINE
  8
0
 10
1
 20
1.1685
 11
1
 21
0.5
  0
LINE
  8
0
 10
1
 20
0.5
 11
3.93683
 21
0.5
  0
LINE
  8
0
 10
3.93683
 20
0.5
 11
3.87433
 21
0.994751
  0
LINE
  8
0
 10
3.87433
 20
0.994751
 11
3.50522
 21
1.927
  0
LINE
  8
0
 10
3.50522
 20
1.927
 11
2.91586
 21
2.73817
  0
LINE
  8
0
 10
2.91586
 20
2.73817
 11
2.1433
 21
3.3773
  0
LINE
  8
0
 10
2.1433
 20
3.3773
 11
1.23605
 21
3.80421
  0
LINE
  8
0
 10
1.23605
 20
3.80421
 11
0.25116
 21
3.9921
  0
LINE
  8
0
 10
0.25116
 20
3.9921
 11
-0.749512
 21
3.92914
  0
LINE
  8
0
 10
-0.749512
 20
3.92914
 11
-1.70311
 21
3.61929
  0
LINE
  8
0
 10
-1.70311
 20
3.61929
 11
-2.39999
 21
3.17705
  0
LINE
  8
0
 10
-2.39999
 20
3.17705
 11
-2.39999
 21
4.35208
  0
LINE
  8
0
 10
-2.39999
 20
4.35208
 11
-3.18712
 21
3.85255
  0
LINE
  8
0
 10
-3.18712
 20
3.85255
 11
-4.04507
 21
2.93892
  0
LINE
  8
0
 10
-4.04507
 20
2.93892
 11
-4.64888
 21
1.84062
  0
LINE
  8
0
 10
-4.64888
 20
1.84062
 11
-4.96057
 21
0.626663
  0
LINE
  8
0
 10
-4.96057
 20
0.626663
 11
-4.96057
 21
-0.626663
  0
LINE
  8
0
 10
-4.96057
 20
-0.626663
 11
-4.64888
 21
-1.84062
  0
LINE
  8
0
 10
-4.64888
 20
-1.84062
 11
-4.04507
 21
-2.93892
  0
LINE
  8
0
 10
-4.04507
 20
-2.93892
 11
-3.18712
 21
-3.85255
  0
LINE
  8
0
 10
-3.18712
 20
-3.85255
 11
-2.39999
 21
-4.35208
  0
LINE
  8
0
 10
-2.39999
 20
-4.35208
 11
-2.39999
 21
-3.17705
  0
ENDSEC
  0
SECTION
  2
OBJECTS
  0
DICTIONARY
  0
ENDSEC
  0
EOF
