solid OpenSCAD_Model
  facet normal 0.0628004 0.998026 -0
    outer loop
      vertex 0.0973244 -1.54694 0.4
      vertex -0.290441 -1.52254 15
      vertex 0.0973244 -1.54694 15
    endloop
  endfacet
  facet normal 0.0628004 0.998026 0
    outer loop
      vertex -0.290441 -1.52254 15
      vertex 0.0973244 -1.54694 0.4
      vertex -0.290441 -1.52254 0.4
    endloop
  endfacet
  facet normal -0.637432 0.770506 0
    outer loop
      vertex 1 -1.16851 0.4
      vertex 0.830531 -1.30871 15
      vertex 1 -1.16851 15
    endloop
  endfacet
  facet normal -0.637432 0.770506 0
    outer loop
      vertex 0.830531 -1.30871 15
      vertex 1 -1.16851 0.4
      vertex 0.830531 -1.30871 0.4
    endloop
  endfacet
  facet normal -0.425781 -0.904826 0
    outer loop
      vertex 0.478976 1.47414 0.4
      vertex 0.830531 1.30871 15
      vertex 0.478976 1.47414 15
    endloop
  endfacet
  facet normal -0.425781 -0.904826 -0
    outer loop
      vertex 0.830531 1.30871 15
      vertex 0.478976 1.47414 0.4
      vertex 0.830531 1.30871 0.4
    endloop
  endfacet
  facet normal 0.309009 -0.951059 0
    outer loop
      vertex -0.659958 1.40248 0.4
      vertex -0.290441 1.52254 15
      vertex -0.659958 1.40248 15
    endloop
  endfacet
  facet normal 0.309009 -0.951059 0
    outer loop
      vertex -0.290441 1.52254 15
      vertex -0.659958 1.40248 0.4
      vertex -0.290441 1.52254 0.4
    endloop
  endfacet
  facet normal 0.96858 0.248704 0
    outer loop
      vertex -1.44115 -0.570593 15
      vertex -1.53778 -0.194266 0.4
      vertex -1.53778 -0.194266 15
    endloop
  endfacet
  facet normal 0.96858 0.248704 0
    outer loop
      vertex -1.53778 -0.194266 0.4
      vertex -1.44115 -0.570593 15
      vertex -1.44115 -0.570593 0.4
    endloop
  endfacet
  facet normal 0.876314 0.48174 0
    outer loop
      vertex -1.25398 -0.911067 15
      vertex -1.44115 -0.570593 0.4
      vertex -1.44115 -0.570593 15
    endloop
  endfacet
  facet normal 0.876314 0.48174 0
    outer loop
      vertex -1.44115 -0.570593 0.4
      vertex -1.25398 -0.911067 15
      vertex -1.25398 -0.911067 0.4
    endloop
  endfacet
  facet normal 0.309009 0.951059 -0
    outer loop
      vertex -0.290441 -1.52254 0.4
      vertex -0.659958 -1.40248 15
      vertex -0.290441 -1.52254 15
    endloop
  endfacet
  facet normal 0.309009 0.951059 0
    outer loop
      vertex -0.659958 -1.40248 15
      vertex -0.290441 -1.52254 0.4
      vertex -0.659958 -1.40248 0.4
    endloop
  endfacet
  facet normal -0.425781 0.904826 0
    outer loop
      vertex 0.830531 -1.30871 0.4
      vertex 0.478976 -1.47414 15
      vertex 0.830531 -1.30871 15
    endloop
  endfacet
  facet normal -0.425781 0.904826 0
    outer loop
      vertex 0.478976 -1.47414 15
      vertex 0.830531 -1.30871 0.4
      vertex 0.478976 -1.47414 0.4
    endloop
  endfacet
  facet normal 1 -0 0
    outer loop
      vertex -1.53778 -0.194266 15
      vertex -1.53778 0.194266 0.4
      vertex -1.53778 0.194266 15
    endloop
  endfacet
  facet normal 1 0 0
    outer loop
      vertex -1.53778 0.194266 0.4
      vertex -1.53778 -0.194266 15
      vertex -1.53778 -0.194266 0.4
    endloop
  endfacet
  facet normal 0.96858 -0.248704 0
    outer loop
      vertex -1.53778 0.194266 15
      vertex -1.44115 0.570593 0.4
      vertex -1.44115 0.570593 15
    endloop
  endfacet
  facet normal 0.96858 -0.248704 0
    outer loop
      vertex -1.44115 0.570593 0.4
      vertex -1.53778 0.194266 15
      vertex -1.53778 0.194266 0.4
    endloop
  endfacet
  facet normal 0.876314 -0.48174 0
    outer loop
      vertex -1.44115 0.570593 15
      vertex -1.25398 0.911067 0.4
      vertex -1.25398 0.911067 15
    endloop
  endfacet
  facet normal 0.876314 -0.48174 0
    outer loop
      vertex -1.25398 0.911067 0.4
      vertex -1.44115 0.570593 15
      vertex -1.44115 0.570593 0.4
    endloop
  endfacet
  facet normal -0.637432 -0.770506 0
    outer loop
      vertex 0.830531 1.30871 0.4
      vertex 1 1.16851 15
      vertex 0.830531 1.30871 15
    endloop
  endfacet
  facet normal -0.637432 -0.770506 -0
    outer loop
      vertex 1 1.16851 15
      vertex 0.830531 1.30871 0.4
      vertex 1 1.16851 0.4
    endloop
  endfacet
  facet normal 0.535834 -0.844324 0
    outer loop
      vertex -0.988007 1.19429 0.4
      vertex -0.659958 1.40248 15
      vertex -0.988007 1.19429 15
    endloop
  endfacet
  facet normal 0.535834 -0.844324 0
    outer loop
      vertex -0.659958 1.40248 15
      vertex -0.988007 1.19429 0.4
      vertex -0.659958 1.40248 0.4
    endloop
  endfacet
  facet normal 0.728957 0.684559 0
    outer loop
      vertex -0.988007 -1.19429 15
      vertex -1.25398 -0.911067 0.4
      vertex -1.25398 -0.911067 15
    endloop
  endfacet
  facet normal 0.728957 0.684559 0
    outer loop
      vertex -1.25398 -0.911067 0.4
      vertex -0.988007 -1.19429 15
      vertex -0.988007 -1.19429 0.4
    endloop
  endfacet
  facet normal 0.535834 0.844324 -0
    outer loop
      vertex -0.659958 -1.40248 0.4
      vertex -0.988007 -1.19429 15
      vertex -0.659958 -1.40248 15
    endloop
  endfacet
  facet normal 0.535834 0.844324 0
    outer loop
      vertex -0.988007 -1.19429 15
      vertex -0.659958 -1.40248 0.4
      vertex -0.988007 -1.19429 0.4
    endloop
  endfacet
  facet normal -0.187372 0.982289 0
    outer loop
      vertex 0.478976 -1.47414 0.4
      vertex 0.0973244 -1.54694 15
      vertex 0.478976 -1.47414 15
    endloop
  endfacet
  facet normal -0.187372 0.982289 0
    outer loop
      vertex 0.0973244 -1.54694 15
      vertex 0.478976 -1.47414 0.4
      vertex 0.0973244 -1.54694 0.4
    endloop
  endfacet
  facet normal 0.0628004 -0.998026 0
    outer loop
      vertex -0.290441 1.52254 0.4
      vertex 0.0973244 1.54694 15
      vertex -0.290441 1.52254 15
    endloop
  endfacet
  facet normal 0.0628004 -0.998026 0
    outer loop
      vertex 0.0973244 1.54694 15
      vertex -0.290441 1.52254 0.4
      vertex 0.0973244 1.54694 0.4
    endloop
  endfacet
  facet normal -0.187372 -0.982289 0
    outer loop
      vertex 0.0973244 1.54694 0.4
      vertex 0.478976 1.47414 15
      vertex 0.0973244 1.54694 15
    endloop
  endfacet
  facet normal -0.187372 -0.982289 -0
    outer loop
      vertex 0.478976 1.47414 15
      vertex 0.0973244 1.54694 0.4
      vertex 0.478976 1.47414 0.4
    endloop
  endfacet
  facet normal 0.728957 -0.684559 0
    outer loop
      vertex -1.25398 0.911067 15
      vertex -0.988007 1.19429 0.4
      vertex -0.988007 1.19429 15
    endloop
  endfacet
  facet normal 0.728957 -0.684559 0
    outer loop
      vertex -0.988007 1.19429 0.4
      vertex -1.25398 0.911067 15
      vertex -1.25398 0.911067 0.4
    endloop
  endfacet
  facet normal -1 0 0
    outer loop
      vertex 1 -1.16851 0.4
      vertex 1 -0.5 15
      vertex 1 -0.5 0.4
    endloop
  endfacet
  facet normal -1 -0 0
    outer loop
      vertex 1 -0.5 15
      vertex 1 -1.16851 0.4
      vertex 1 -1.16851 15
    endloop
  endfacet
  facet normal -1 0 0
    outer loop
      vertex 1 0.5 0.4
      vertex 1 1.16851 15
      vertex 1 1.16851 0.4
    endloop
  endfacet
  facet normal -1 -0 0
    outer loop
      vertex 1 1.16851 15
      vertex 1 0.5 0.4
      vertex 1 0.5 15
    endloop
  endfacet
  facet normal -0.535826 -0.844329 0
    outer loop
      vertex -3.18712 -3.85257 0.4
      vertex -2.4 -4.35209 15
      vertex -3.18712 -3.85257 15
    endloop
  endfacet
  facet normal -0.535826 -0.844329 -0
    outer loop
      vertex -2.4 -4.35209 15
      vertex -3.18712 -3.85257 0.4
      vertex -2.4 -4.35209 0.4
    endloop
  endfacet
  facet normal -0.535826 0.844329 0
    outer loop
      vertex -2.4 4.35209 0.4
      vertex -3.18712 3.85257 15
      vertex -2.4 4.35209 15
    endloop
  endfacet
  facet normal -0.535826 0.844329 0
    outer loop
      vertex -3.18712 3.85257 15
      vertex -2.4 4.35209 0.4
      vertex -3.18712 3.85257 0.4
    endloop
  endfacet
  facet normal 0.929778 -0.368121 0
    outer loop
      vertex 3.50523 -1.92701 15
      vertex 3.87433 -0.994759 0.4
      vertex 3.87433 -0.994759 15
    endloop
  endfacet
  facet normal 0.929778 -0.368121 0
    outer loop
      vertex 3.87433 -0.994759 0.4
      vertex 3.50523 -1.92701 15
      vertex 3.50523 -1.92701 0.4
    endloop
  endfacet
  facet normal 0.992113 -0.125348 0
    outer loop
      vertex 3.87433 -0.994759 15
      vertex 3.93684 -0.5 0.4
      vertex 3.93684 -0.5 15
    endloop
  endfacet
  facet normal 0.992113 -0.125348 0
    outer loop
      vertex 3.93684 -0.5 0.4
      vertex 3.87433 -0.994759 15
      vertex 3.87433 -0.994759 0.4
    endloop
  endfacet
  facet normal 0.992113 0.125348 0
    outer loop
      vertex 3.93684 0.5 15
      vertex 3.87433 0.994759 0.4
      vertex 3.87433 0.994759 15
    endloop
  endfacet
  facet normal 0.992113 0.125348 0
    outer loop
      vertex 3.87433 0.994759 0.4
      vertex 3.93684 0.5 15
      vertex 3.93684 0.5 0.4
    endloop
  endfacet
  facet normal 0.637426 -0.770512 0
    outer loop
      vertex 2.14331 -3.37731 0.4
      vertex 2.91587 -2.73819 15
      vertex 2.14331 -3.37731 15
    endloop
  endfacet
  facet normal 0.637426 -0.770512 0
    outer loop
      vertex 2.91587 -2.73819 15
      vertex 2.14331 -3.37731 0.4
      vertex 2.91587 -2.73819 0.4
    endloop
  endfacet
  facet normal -0.309015 -0.951057 0
    outer loop
      vertex -1.70312 -3.61931 0.4
      vertex -0.749525 -3.92915 15
      vertex -1.70312 -3.61931 15
    endloop
  endfacet
  facet normal -0.309015 -0.951057 -0
    outer loop
      vertex -0.749525 -3.92915 15
      vertex -1.70312 -3.61931 0.4
      vertex -0.749525 -3.92915 0.4
    endloop
  endfacet
  facet normal -0.0627926 -0.998027 0
    outer loop
      vertex -0.749525 -3.92915 0.4
      vertex 0.251162 -3.99211 15
      vertex -0.749525 -3.92915 15
    endloop
  endfacet
  facet normal -0.0627926 -0.998027 -0
    outer loop
      vertex 0.251162 -3.99211 15
      vertex -0.749525 -3.92915 0.4
      vertex 0.251162 -3.99211 0.4
    endloop
  endfacet
  facet normal 0.425784 -0.904825 0
    outer loop
      vertex 1.23607 -3.80423 0.4
      vertex 2.14331 -3.37731 15
      vertex 1.23607 -3.80423 15
    endloop
  endfacet
  facet normal 0.425784 -0.904825 0
    outer loop
      vertex 2.14331 -3.37731 15
      vertex 1.23607 -3.80423 0.4
      vertex 2.14331 -3.37731 0.4
    endloop
  endfacet
  facet normal 0.809015 -0.587787 0
    outer loop
      vertex 2.91587 -2.73819 15
      vertex 3.50523 -1.92701 0.4
      vertex 3.50523 -1.92701 15
    endloop
  endfacet
  facet normal 0.809015 -0.587787 0
    outer loop
      vertex 3.50523 -1.92701 0.4
      vertex 2.91587 -2.73819 15
      vertex 2.91587 -2.73819 0.4
    endloop
  endfacet
  facet normal -0.309015 0.951057 0
    outer loop
      vertex -0.749525 3.92915 0.4
      vertex -1.70312 3.61931 15
      vertex -0.749525 3.92915 15
    endloop
  endfacet
  facet normal -0.309015 0.951057 0
    outer loop
      vertex -1.70312 3.61931 15
      vertex -0.749525 3.92915 0.4
      vertex -1.70312 3.61931 0.4
    endloop
  endfacet
  facet normal 0.637426 0.770512 -0
    outer loop
      vertex 2.91587 2.73819 0.4
      vertex 2.14331 3.37731 15
      vertex 2.91587 2.73819 15
    endloop
  endfacet
  facet normal 0.637426 0.770512 0
    outer loop
      vertex 2.14331 3.37731 15
      vertex 2.91587 2.73819 0.4
      vertex 2.14331 3.37731 0.4
    endloop
  endfacet
  facet normal -0.535832 -0.844324 0
    outer loop
      vertex -2.4 -3.17705 0.4
      vertex -1.70312 -3.61931 15
      vertex -2.4 -3.17705 15
    endloop
  endfacet
  facet normal -0.535832 -0.844324 -0
    outer loop
      vertex -1.70312 -3.61931 15
      vertex -2.4 -3.17705 0.4
      vertex -1.70312 -3.61931 0.4
    endloop
  endfacet
  facet normal 0.18738 -0.982287 0
    outer loop
      vertex 0.251162 -3.99211 0.4
      vertex 1.23607 -3.80423 15
      vertex 0.251162 -3.99211 15
    endloop
  endfacet
  facet normal 0.18738 -0.982287 0
    outer loop
      vertex 1.23607 -3.80423 15
      vertex 0.251162 -3.99211 0.4
      vertex 1.23607 -3.80423 0.4
    endloop
  endfacet
  facet normal -0.535832 0.844324 0
    outer loop
      vertex -1.70312 3.61931 0.4
      vertex -2.4 3.17705 15
      vertex -1.70312 3.61931 15
    endloop
  endfacet
  facet normal -0.535832 0.844324 0
    outer loop
      vertex -2.4 3.17705 15
      vertex -1.70312 3.61931 0.4
      vertex -2.4 3.17705 0.4
    endloop
  endfacet
  facet normal 0.425784 0.904825 -0
    outer loop
      vertex 2.14331 3.37731 0.4
      vertex 1.23607 3.80423 15
      vertex 2.14331 3.37731 15
    endloop
  endfacet
  facet normal 0.425784 0.904825 0
    outer loop
      vertex 1.23607 3.80423 15
      vertex 2.14331 3.37731 0.4
      vertex 1.23607 3.80423 0.4
    endloop
  endfacet
  facet normal 0.809015 0.587787 0
    outer loop
      vertex 3.50523 1.92701 15
      vertex 2.91587 2.73819 0.4
      vertex 2.91587 2.73819 15
    endloop
  endfacet
  facet normal 0.809015 0.587787 0
    outer loop
      vertex 2.91587 2.73819 0.4
      vertex 3.50523 1.92701 15
      vertex 3.50523 1.92701 0.4
    endloop
  endfacet
  facet normal 0.929778 0.368121 0
    outer loop
      vertex 3.87433 0.994759 15
      vertex 3.50523 1.92701 0.4
      vertex 3.50523 1.92701 15
    endloop
  endfacet
  facet normal 0.929778 0.368121 0
    outer loop
      vertex 3.50523 1.92701 0.4
      vertex 3.87433 0.994759 15
      vertex 3.87433 0.994759 0.4
    endloop
  endfacet
  facet normal -0.0627926 0.998027 0
    outer loop
      vertex 0.251162 3.99211 0.4
      vertex -0.749525 3.92915 15
      vertex 0.251162 3.99211 15
    endloop
  endfacet
  facet normal -0.0627926 0.998027 0
    outer loop
      vertex -0.749525 3.92915 15
      vertex 0.251162 3.99211 0.4
      vertex -0.749525 3.92915 0.4
    endloop
  endfacet
  facet normal 0.18738 0.982287 -0
    outer loop
      vertex 1.23607 3.80423 0.4
      vertex 0.251162 3.99211 15
      vertex 1.23607 3.80423 15
    endloop
  endfacet
  facet normal 0.18738 0.982287 0
    outer loop
      vertex 0.251162 3.99211 15
      vertex 1.23607 3.80423 0.4
      vertex 0.251162 3.99211 0.4
    endloop
  endfacet
  facet normal 1 -0 0
    outer loop
      vertex -2.4 -4.35209 15
      vertex -2.4 -3.17705 0.4
      vertex -2.4 -3.17705 15
    endloop
  endfacet
  facet normal 1 0 0
    outer loop
      vertex -2.4 -3.17705 0.4
      vertex -2.4 -4.35209 15
      vertex -2.4 -4.35209 0.4
    endloop
  endfacet
  facet normal 1 -0 0
    outer loop
      vertex -2.4 3.17705 15
      vertex -2.4 4.35209 0.4
      vertex -2.4 4.35209 15
    endloop
  endfacet
  facet normal 1 0 0
    outer loop
      vertex -2.4 4.35209 0.4
      vertex -2.4 3.17705 15
      vertex -2.4 3.17705 0.4
    endloop
  endfacet
  facet normal 0 1 -0
    outer loop
      vertex 3.93684 -0.5 0.4
      vertex 1 -0.5 15
      vertex 3.93684 -0.5 15
    endloop
  endfacet
  facet normal 0 1 0
    outer loop
      vertex 1 -0.5 15
      vertex 3.93684 -0.5 0.4
      vertex 1 -0.5 0.4
    endloop
  endfacet
  facet normal 0 -1 0
    outer loop
      vertex 1 0.5 0.4
      vertex 3.93684 0.5 15
      vertex 1 0.5 15
    endloop
  endfacet
  facet normal 0 -1 -0
    outer loop
      vertex 3.93684 0.5 15
      vertex 1 0.5 0.4
      vertex 3.93684 0.5 0.4
    endloop
  endfacet
  facet normal -0.968583 0.24869 0
    outer loop
      vertex -4.96057 0.626666 0.4
      vertex -4.64888 1.84062 15
      vertex -4.64888 1.84062 0.4
    endloop
  endfacet
  facet normal -0.968583 0.24869 0
    outer loop
      vertex -4.64888 1.84062 15
      vertex -4.96057 0.626666 0.4
      vertex -4.96057 0.626666 15
    endloop
  endfacet
  facet normal 0 0 1
    outer loop
      vertex 2.14331 3.37731 15
      vertex 0.830531 1.30871 15
      vertex 1 1.16851 15
    endloop
  endfacet
  facet normal 0 0 1
    outer loop
      vertex 1.23607 3.80423 15
      vertex 0.478976 1.47414 15
      vertex 0.830531 1.30871 15
    endloop
  endfacet
  facet normal 0 0 1
    outer loop
      vertex 0.251162 3.99211 15
      vertex 0.478976 1.47414 15
      vertex 1.23607 3.80423 15
    endloop
  endfacet
  facet normal 0 0 1
    outer loop
      vertex 0.251162 3.99211 15
      vertex 0.0973244 1.54694 15
      vertex 0.478976 1.47414 15
    endloop
  endfacet
  facet normal 0 0 1
    outer loop
      vertex 0.251162 3.99211 15
      vertex -0.290441 1.52254 15
      vertex 0.0973244 1.54694 15
    endloop
  endfacet
  facet normal -0 0 1
    outer loop
      vertex -0.749525 3.92915 15
      vertex -0.290441 1.52254 15
      vertex 0.251162 3.99211 15
    endloop
  endfacet
  facet normal 0 0 1
    outer loop
      vertex -0.290441 1.52254 15
      vertex -0.749525 3.92915 15
      vertex -0.659958 1.40248 15
    endloop
  endfacet
  facet normal -0 0 1
    outer loop
      vertex -1.70312 3.61931 15
      vertex -0.659958 1.40248 15
      vertex -0.749525 3.92915 15
    endloop
  endfacet
  facet normal -0 0 1
    outer loop
      vertex -2.4 3.17705 15
      vertex -0.659958 1.40248 15
      vertex -1.70312 3.61931 15
    endloop
  endfacet
  facet normal 0 0 1
    outer loop
      vertex -0.659958 1.40248 15
      vertex -2.4 3.17705 15
      vertex -0.988007 1.19429 15
    endloop
  endfacet
  facet normal 0 0 1
    outer loop
      vertex -0.988007 1.19429 15
      vertex -2.4 3.17705 15
      vertex -1.25398 0.911067 15
    endloop
  endfacet
  facet normal -0 0 1
    outer loop
      vertex -4.64888 1.84062 15
      vertex -1.44115 0.570593 15
      vertex -2.4 3.17705 15
    endloop
  endfacet
  facet normal 0 0 1
    outer loop
      vertex -1.25398 0.911067 15
      vertex -2.4 3.17705 15
      vertex -1.44115 0.570593 15
    endloop
  endfacet
  facet normal -0 0 1
    outer loop
      vertex 1 1.16851 15
      vertex 3.87433 0.994759 15
      vertex 3.50523 1.92701 15
    endloop
  endfacet
  facet normal 0 0 1
    outer loop
      vertex 1 1.16851 15
      vertex 3.50523 1.92701 15
      vertex 2.91587 2.73819 15
    endloop
  endfacet
  facet normal 0 0 1
    outer loop
      vertex 1 1.16851 15
      vertex 2.91587 2.73819 15
      vertex 2.14331 3.37731 15
    endloop
  endfacet
  facet normal 0 0 1
    outer loop
      vertex 0.830531 1.30871 15
      vertex 2.14331 3.37731 15
      vertex 1.23607 3.80423 15
    endloop
  endfacet
  facet normal 0 0 1
    outer loop
      vertex 1 0.5 15
      vertex 3.87433 0.994759 15
      vertex 1 1.16851 15
    endloop
  endfacet
  facet normal 0 0 1
    outer loop
      vertex 3.87433 0.994759 15
      vertex 1 0.5 15
      vertex 3.93684 0.5 15
    endloop
  endfacet
  facet normal -0 0 1
    outer loop
      vertex 1 -0.5 15
      vertex 3.87433 -0.994759 15
      vertex 3.93684 -0.5 15
    endloop
  endfacet
  facet normal 0 0 1
    outer loop
      vertex 3.87433 -0.994759 15
      vertex 1 -1.16851 15
      vertex 3.50523 -1.92701 15
    endloop
  endfacet
  facet normal 0 0 1
    outer loop
      vertex 3.50523 -1.92701 15
      vertex 1 -1.16851 15
      vertex 2.91587 -2.73819 15
    endloop
  endfacet
  facet normal 0 0 1
    outer loop
      vertex 2.91587 -2.73819 15
      vertex 1 -1.16851 15
      vertex 2.14331 -3.37731 15
    endloop
  endfacet
  facet normal 0 0 1
    outer loop
      vertex 3.87433 -0.994759 15
      vertex 1 -0.5 15
      vertex 1 -1.16851 15
    endloop
  endfacet
  facet normal -0 0 1
    outer loop
      vertex 0.830531 -1.30871 15
      vertex 2.14331 -3.37731 15
      vertex 1 -1.16851 15
    endloop
  endfacet
  facet normal 0 0 1
    outer loop
      vertex 2.14331 -3.37731 15
      vertex 0.830531 -1.30871 15
      vertex 1.23607 -3.80423 15
    endloop
  endfacet
  facet normal -0 0 1
    outer loop
      vertex 0.478976 -1.47414 15
      vertex 1.23607 -3.80423 15
      vertex 0.830531 -1.30871 15
    endloop
  endfacet
  facet normal 0 0 1
    outer loop
      vertex 0.478976 -1.47414 15
      vertex 0.251162 -3.99211 15
      vertex 1.23607 -3.80423 15
    endloop
  endfacet
  facet normal -0 0 1
    outer loop
      vertex 0.0973244 -1.54694 15
      vertex 0.251162 -3.99211 15
      vertex 0.478976 -1.47414 15
    endloop
  endfacet
  facet normal 0 0 1
    outer loop
      vertex -0.290441 -1.52254 15
      vertex 0.251162 -3.99211 15
      vertex 0.0973244 -1.54694 15
    endloop
  endfacet
  facet normal 0 0 1
    outer loop
      vertex -0.749525 -3.92915 15
      vertex -0.290441 -1.52254 15
      vertex -0.659958 -1.40248 15
    endloop
  endfacet
  facet normal 0 0 1
    outer loop
      vertex -0.290441 -1.52254 15
      vertex -0.749525 -3.92915 15
      vertex 0.251162 -3.99211 15
    endloop
  endfacet
  facet normal 0 0 1
    outer loop
      vertex -2.4 -3.17705 15
      vertex -0.659958 -1.40248 15
      vertex -0.988007 -1.19429 15
    endloop
  endfacet
  facet normal 0 0 1
    outer loop
      vertex -2.4 -3.17705 15
      vertex -0.988007 -1.19429 15
      vertex -1.25398 -0.911067 15
    endloop
  endfacet
  facet normal 0 0 1
    outer loop
      vertex -2.4 -3.17705 15
      vertex -1.25398 -0.911067 15
      vertex -1.44115 -0.570593 15
    endloop
  endfacet
  facet normal 0 0 1
    outer loop
      vertex -4.64888 -1.84062 15
      vertex -1.44115 -0.570593 15
      vertex -1.53778 -0.194266 15
    endloop
  endfacet
  facet normal 0 0 1
    outer loop
      vertex -0.659958 -1.40248 15
      vertex -1.70312 -3.61931 15
      vertex -0.749525 -3.92915 15
    endloop
  endfacet
  facet normal 0 0 1
    outer loop
      vertex -1.44115 0.570593 15
      vertex -4.64888 1.84062 15
      vertex -1.53778 0.194266 15
    endloop
  endfacet
  facet normal -0 0 1
    outer loop
      vertex -4.96057 0.626666 15
      vertex -1.53778 0.194266 15
      vertex -4.64888 1.84062 15
    endloop
  endfacet
  facet normal 0 0 1
    outer loop
      vertex -0.659958 -1.40248 15
      vertex -2.4 -3.17705 15
      vertex -1.70312 -3.61931 15
    endloop
  endfacet
  facet normal -0 0 1
    outer loop
      vertex -3.18712 3.85257 15
      vertex -2.4 3.17705 15
      vertex -2.4 4.35209 15
    endloop
  endfacet
  facet normal 0 0 1
    outer loop
      vertex -4.04508 2.93893 15
      vertex -2.4 3.17705 15
      vertex -3.18712 3.85257 15
    endloop
  endfacet
  facet normal 0 0 1
    outer loop
      vertex -4.64888 1.84062 15
      vertex -2.4 3.17705 15
      vertex -4.04508 2.93893 15
    endloop
  endfacet
  facet normal 0 0 1
    outer loop
      vertex -1.53778 0.194266 15
      vertex -4.96057 0.626666 15
      vertex -1.53778 -0.194266 15
    endloop
  endfacet
  facet normal 0 0 1
    outer loop
      vertex -4.96057 -0.626666 15
      vertex -1.53778 -0.194266 15
      vertex -4.96057 0.626666 15
    endloop
  endfacet
  facet normal 0 0 1
    outer loop
      vertex -2.4 -3.17705 15
      vertex -3.18712 -3.85257 15
      vertex -2.4 -4.35209 15
    endloop
  endfacet
  facet normal -0 -0 1
    outer loop
      vertex -4.04508 -2.93893 15
      vertex -2.4 -3.17705 15
      vertex -4.64888 -1.84062 15
    endloop
  endfacet
  facet normal 0 -0 1
    outer loop
      vertex -3.18712 -3.85257 15
      vertex -2.4 -3.17705 15
      vertex -4.04508 -2.93893 15
    endloop
  endfacet
  facet normal 0 -0 1
    outer loop
      vertex -4.64888 -1.84062 15
      vertex -1.53778 -0.194266 15
      vertex -4.96057 -0.626666 15
    endloop
  endfacet
  facet normal 0 0 1
    outer loop
      vertex -1.44115 -0.570593 15
      vertex -4.64888 -1.84062 15
      vertex -2.4 -3.17705 15
    endloop
  endfacet
  facet normal -1 0 0
    outer loop
      vertex -4.96057 -0.626666 0.4
      vertex -4.96057 0.626666 15
      vertex -4.96057 0.626666 0.4
    endloop
  endfacet
  facet normal -1 -0 0
    outer loop
      vertex -4.96057 0.626666 15
      vertex -4.96057 -0.626666 0.4
      vertex -4.96057 -0.626666 15
    endloop
  endfacet
  facet normal -0.728971 -0.684545 0
    outer loop
      vertex -3.18712 -3.85257 0.4
      vertex -4.04508 -2.93893 15
      vertex -4.04508 -2.93893 0.4
    endloop
  endfacet
  facet normal -0.728971 -0.684545 0
    outer loop
      vertex -4.04508 -2.93893 15
      vertex -3.18712 -3.85257 0.4
      vertex -3.18712 -3.85257 15
    endloop
  endfacet
  facet normal -0.876307 0.481753 0
    outer loop
      vertex -4.64888 1.84062 0.4
      vertex -4.04508 2.93893 15
      vertex -4.04508 2.93893 0.4
    endloop
  endfacet
  facet normal -0.876307 0.481753 0
    outer loop
      vertex -4.04508 2.93893 15
      vertex -4.64888 1.84062 0.4
      vertex -4.64888 1.84062 15
    endloop
  endfacet
  facet normal -0.876307 -0.481753 0
    outer loop
      vertex -4.04508 -2.93893 0.4
      vertex -4.64888 -1.84062 15
      vertex -4.64888 -1.84062 0.4
    endloop
  endfacet
  facet normal -0.876307 -0.481753 0
    outer loop
      vertex -4.64888 -1.84062 15
      vertex -4.04508 -2.93893 0.4
      vertex -4.04508 -2.93893 15
    endloop
  endfacet
  facet normal -0.968583 -0.24869 0
    outer loop
      vertex -4.64888 -1.84062 0.4
      vertex -4.96057 -0.626666 15
      vertex -4.96057 -0.626666 0.4
    endloop
  endfacet
  facet normal -0.968583 -0.24869 0
    outer loop
      vertex -4.96057 -0.626666 15
      vertex -4.64888 -1.84062 0.4
      vertex -4.64888 -1.84062 15
    endloop
  endfacet
  facet normal -0.728971 0.684545 0
    outer loop
      vertex -4.04508 2.93893 0.4
      vertex -3.18712 3.85257 15
      vertex -3.18712 3.85257 0.4
    endloop
  endfacet
  facet normal -0.728971 0.684545 0
    outer loop
      vertex -3.18712 3.85257 15
      vertex -4.04508 2.93893 0.4
      vertex -4.04508 2.93893 15
    endloop
  endfacet
  facet normal 0 0 -1
    outer loop
      vertex 0.830531 -1.30871 0.4
      vertex 1.0536 -1.57838 0.4
      vertex 0.979553 -1.62538 0.4
    endloop
  endfacet
  facet normal 0 0 -1
    outer loop
      vertex 1.0536 -1.57838 0.4
      vertex 0.830531 -1.30871 0.4
      vertex 1 -1.16851 0.4
    endloop
  endfacet
  facet normal 0 0 -1
    outer loop
      vertex 0.628006 -1.79082 0.4
      vertex 0.830531 -1.30871 0.4
      vertex 0.979553 -1.62538 0.4
    endloop
  endfacet
  facet normal 0 0 -1
    outer loop
      vertex 0.478976 -1.47414 0.4
      vertex 0.628006 -1.79082 0.4
      vertex 0.544556 -1.81793 0.4
    endloop
  endfacet
  facet normal 0 0 -1
    outer loop
      vertex 0.628006 -1.79082 0.4
      vertex 0.478976 -1.47414 0.4
      vertex 0.830531 -1.30871 0.4
    endloop
  endfacet
  facet normal 0 0 -1
    outer loop
      vertex 0.162903 -1.89073 0.4
      vertex 0.478976 -1.47414 0.4
      vertex 0.544556 -1.81793 0.4
    endloop
  endfacet
  facet normal 0 0 -1
    outer loop
      vertex 0.162903 -1.89073 0.4
      vertex 0.0973244 -1.54694 0.4
      vertex 0.478976 -1.47414 0.4
    endloop
  endfacet
  facet normal 0 0 -1
    outer loop
      vertex 0.0753479 -1.89624 0.4
      vertex 0.0973244 -1.54694 0.4
      vertex 0.162903 -1.89073 0.4
    endloop
  endfacet
  facet normal 0 0 -1
    outer loop
      vertex 0.0753479 -1.89624 0.4
      vertex -0.290441 -1.52254 0.4
      vertex 0.0973244 -1.54694 0.4
    endloop
  endfacet
  facet normal 0 0 -1
    outer loop
      vertex -0.312408 -1.87184 0.4
      vertex -0.290441 -1.52254 0.4
      vertex 0.0753479 -1.89624 0.4
    endloop
  endfacet
  facet normal 0 0 -1
    outer loop
      vertex -0.39859 -1.85541 0.4
      vertex -0.290441 -1.52254 0.4
      vertex -0.312408 -1.87184 0.4
    endloop
  endfacet
  facet normal 0 0 -1
    outer loop
      vertex -0.39859 -1.85541 0.4
      vertex -0.659958 -1.40248 0.4
      vertex -0.290441 -1.52254 0.4
    endloop
  endfacet
  facet normal 0 0 -1
    outer loop
      vertex -0.768112 -1.73535 0.4
      vertex -0.659958 -1.40248 0.4
      vertex -0.39859 -1.85541 0.4
    endloop
  endfacet
  facet normal 0 0 -1
    outer loop
      vertex -0.847504 -1.698 0.4
      vertex -0.659958 -1.40248 0.4
      vertex -0.768112 -1.73535 0.4
    endloop
  endfacet
  facet normal 0 0 -1
    outer loop
      vertex -0.847504 -1.698 0.4
      vertex -0.988007 -1.19429 0.4
      vertex -0.659958 -1.40248 0.4
    endloop
  endfacet
  facet normal 0 0 -1
    outer loop
      vertex -1.17555 -1.48981 0.4
      vertex -0.988007 -1.19429 0.4
      vertex -0.847504 -1.698 0.4
    endloop
  endfacet
  facet normal 0 0 -1
    outer loop
      vertex -1.24315 -1.43387 0.4
      vertex -0.988007 -1.19429 0.4
      vertex -1.17555 -1.48981 0.4
    endloop
  endfacet
  facet normal 0 0 -1
    outer loop
      vertex -1.24315 -1.43387 0.4
      vertex -1.25398 -0.911067 0.4
      vertex -0.988007 -1.19429 0.4
    endloop
  endfacet
  facet normal 0 0 -1
    outer loop
      vertex -1.50911 -1.15063 0.4
      vertex -1.25398 -0.911067 0.4
      vertex -1.24315 -1.43387 0.4
    endloop
  endfacet
  facet normal 0 0 -1
    outer loop
      vertex -1.56067 -1.07967 0.4
      vertex -1.25398 -0.911067 0.4
      vertex -1.50911 -1.15063 0.4
    endloop
  endfacet
  facet normal -0 0 -1
    outer loop
      vertex -1.25398 -0.911067 0.4
      vertex -1.56067 -1.07967 0.4
      vertex -1.44115 -0.570593 0.4
    endloop
  endfacet
  facet normal 0 0 -1
    outer loop
      vertex -1.78015 -0.657623 0.4
      vertex -1.44115 -0.570593 0.4
      vertex -1.74785 -0.739197 0.4
    endloop
  endfacet
  facet normal 0 0 -1
    outer loop
      vertex -1.74785 -0.739197 0.4
      vertex -1.44115 -0.570593 0.4
      vertex -1.56067 -1.07967 0.4
    endloop
  endfacet
  facet normal 0 0 -1
    outer loop
      vertex 3.93684 0.5 0.4
      vertex 3.53983 0.850006 0.4
      vertex 3.87433 0.994759 0.4
    endloop
  endfacet
  facet normal 0 0 -1
    outer loop
      vertex 1 0.5 0.4
      vertex 3.53983 0.850006 0.4
      vertex 3.93684 0.5 0.4
    endloop
  endfacet
  facet normal 0 0 -1
    outer loop
      vertex 1 1.16851 0.4
      vertex 1.35001 1.1685 0.4
      vertex 1.35001 0.850006 0.4
    endloop
  endfacet
  facet normal 0 0 -1
    outer loop
      vertex 1.35001 1.1685 0.4
      vertex 1 1.16851 0.4
      vertex 1.34724 1.21237 0.4
    endloop
  endfacet
  facet normal -0 0 -1
    outer loop
      vertex 1.34724 1.21237 0.4
      vertex 1 1.16851 0.4
      vertex 1.32542 1.29735 0.4
    endloop
  endfacet
  facet normal -0 0 -1
    outer loop
      vertex 1.32542 1.29735 0.4
      vertex 1 1.16851 0.4
      vertex 1.28316 1.37424 0.4
    endloop
  endfacet
  facet normal -0 0 -1
    outer loop
      vertex 1.28316 1.37424 0.4
      vertex 1 1.16851 0.4
      vertex 1.22308 1.43819 0.4
    endloop
  endfacet
  facet normal -0 0 -1
    outer loop
      vertex 3.53983 0.850006 0.4
      vertex 1 0.5 0.4
      vertex 1.35001 0.850006 0.4
    endloop
  endfacet
  facet normal 0 0 -1
    outer loop
      vertex 1 1.16851 0.4
      vertex 1.35001 0.850006 0.4
      vertex 1 0.5 0.4
    endloop
  endfacet
  facet normal -0 0 -1
    outer loop
      vertex 1.22308 1.43819 0.4
      vertex 1 1.16851 0.4
      vertex 1.0536 1.57838 0.4
    endloop
  endfacet
  facet normal 0 0 -1
    outer loop
      vertex 0.830531 1.30871 0.4
      vertex 1.0536 1.57838 0.4
      vertex 1 1.16851 0.4
    endloop
  endfacet
  facet normal -0 0 -1
    outer loop
      vertex 1.0536 1.57838 0.4
      vertex 0.830531 1.30871 0.4
      vertex 0.979553 1.62538 0.4
    endloop
  endfacet
  facet normal 0 0 -1
    outer loop
      vertex 0.830531 1.30871 0.4
      vertex 0.628006 1.79082 0.4
      vertex 0.979553 1.62538 0.4
    endloop
  endfacet
  facet normal 0 0 -1
    outer loop
      vertex 0.478976 1.47414 0.4
      vertex 0.628006 1.79082 0.4
      vertex 0.830531 1.30871 0.4
    endloop
  endfacet
  facet normal -0 0 -1
    outer loop
      vertex 0.628006 1.79082 0.4
      vertex 0.478976 1.47414 0.4
      vertex 0.544556 1.81793 0.4
    endloop
  endfacet
  facet normal 0 0 -1
    outer loop
      vertex 0.478976 1.47414 0.4
      vertex 0.162903 1.89073 0.4
      vertex 0.544556 1.81793 0.4
    endloop
  endfacet
  facet normal 0 0 -1
    outer loop
      vertex 0.0973244 1.54694 0.4
      vertex 0.162903 1.89073 0.4
      vertex 0.478976 1.47414 0.4
    endloop
  endfacet
  facet normal 0 0 -1
    outer loop
      vertex 0.0973244 1.54694 0.4
      vertex 0.0753479 1.89624 0.4
      vertex 0.162903 1.89073 0.4
    endloop
  endfacet
  facet normal 0 0 -1
    outer loop
      vertex -0.290441 1.52254 0.4
      vertex 0.0753479 1.89624 0.4
      vertex 0.0973244 1.54694 0.4
    endloop
  endfacet
  facet normal 0 0 -1
    outer loop
      vertex -0.290441 1.52254 0.4
      vertex -0.312408 1.87184 0.4
      vertex 0.0753479 1.89624 0.4
    endloop
  endfacet
  facet normal 0 0 -1
    outer loop
      vertex -0.290441 1.52254 0.4
      vertex -0.39859 1.85541 0.4
      vertex -0.312408 1.87184 0.4
    endloop
  endfacet
  facet normal 0 0 -1
    outer loop
      vertex -0.659958 1.40248 0.4
      vertex -0.39859 1.85541 0.4
      vertex -0.290441 1.52254 0.4
    endloop
  endfacet
  facet normal 0 0 -1
    outer loop
      vertex -0.659958 1.40248 0.4
      vertex -0.768112 1.73535 0.4
      vertex -0.39859 1.85541 0.4
    endloop
  endfacet
  facet normal 0 0 -1
    outer loop
      vertex -0.659958 1.40248 0.4
      vertex -0.847504 1.698 0.4
      vertex -0.768112 1.73535 0.4
    endloop
  endfacet
  facet normal 0 0 -1
    outer loop
      vertex -0.988007 1.19429 0.4
      vertex -0.847504 1.698 0.4
      vertex -0.659958 1.40248 0.4
    endloop
  endfacet
  facet normal 0 0 -1
    outer loop
      vertex -0.988007 1.19429 0.4
      vertex -1.17555 1.48981 0.4
      vertex -0.847504 1.698 0.4
    endloop
  endfacet
  facet normal 0 0 -1
    outer loop
      vertex -0.988007 1.19429 0.4
      vertex -1.24315 1.43387 0.4
      vertex -1.17555 1.48981 0.4
    endloop
  endfacet
  facet normal 0 0 -1
    outer loop
      vertex -1.25398 0.911067 0.4
      vertex -1.24315 1.43387 0.4
      vertex -0.988007 1.19429 0.4
    endloop
  endfacet
  facet normal 0 0 -1
    outer loop
      vertex -1.56067 1.07967 0.4
      vertex -1.25398 0.911067 0.4
      vertex -1.44115 0.570593 0.4
    endloop
  endfacet
  facet normal 0 0 -1
    outer loop
      vertex -1.25398 0.911067 0.4
      vertex -1.50911 1.15063 0.4
      vertex -1.24315 1.43387 0.4
    endloop
  endfacet
  facet normal 0 0 -1
    outer loop
      vertex -1.78015 0.657623 0.4
      vertex -1.44115 0.570593 0.4
      vertex -1.53778 0.194266 0.4
    endloop
  endfacet
  facet normal 0 0 -1
    outer loop
      vertex -1.25398 0.911067 0.4
      vertex -1.56067 1.07967 0.4
      vertex -1.50911 1.15063 0.4
    endloop
  endfacet
  facet normal -0 0 -1
    outer loop
      vertex -1.44115 -0.570593 0.4
      vertex -1.78015 -0.657623 0.4
      vertex -1.53778 -0.194266 0.4
    endloop
  endfacet
  facet normal 0 0 -1
    outer loop
      vertex -1.87677 -0.281296 0.4
      vertex -1.53778 -0.194266 0.4
      vertex -1.78015 -0.657623 0.4
    endloop
  endfacet
  facet normal 0 0 -1
    outer loop
      vertex -1.44115 0.570593 0.4
      vertex -1.74785 0.739197 0.4
      vertex -1.56067 1.07967 0.4
    endloop
  endfacet
  facet normal 0 0 -1
    outer loop
      vertex -1.88777 -0.19426 0.4
      vertex -1.53778 -0.194266 0.4
      vertex -1.87677 -0.281296 0.4
    endloop
  endfacet
  facet normal 0 0 -1
    outer loop
      vertex -1.44115 0.570593 0.4
      vertex -1.78015 0.657623 0.4
      vertex -1.74785 0.739197 0.4
    endloop
  endfacet
  facet normal 0 0 -1
    outer loop
      vertex -1.53778 -0.194266 0.4
      vertex -1.88777 -0.19426 0.4
      vertex -1.53778 0.194266 0.4
    endloop
  endfacet
  facet normal 0 0 -1
    outer loop
      vertex -1.53778 0.194266 0.4
      vertex -1.87677 0.281296 0.4
      vertex -1.78015 0.657623 0.4
    endloop
  endfacet
  facet normal 0 0 -1
    outer loop
      vertex -1.88777 0.19426 0.4
      vertex -1.53778 0.194266 0.4
      vertex -1.88777 -0.19426 0.4
    endloop
  endfacet
  facet normal -0 0 -1
    outer loop
      vertex -1.53778 0.194266 0.4
      vertex -1.88777 0.19426 0.4
      vertex -1.87677 0.281296 0.4
    endloop
  endfacet
  facet normal 0 0 -1
    outer loop
      vertex 3.53262 0.907028 0.4
      vertex 3.87433 0.994759 0.4
      vertex 3.53983 0.850006 0.4
    endloop
  endfacet
  facet normal 0 0 -1
    outer loop
      vertex 3.53262 0.907028 0.4
      vertex 3.50523 1.92701 0.4
      vertex 3.87433 0.994759 0.4
    endloop
  endfacet
  facet normal 0 0 -1
    outer loop
      vertex 3.19606 1.75706 0.4
      vertex 3.50523 1.92701 0.4
      vertex 3.53262 0.907028 0.4
    endloop
  endfacet
  facet normal 0 0 -1
    outer loop
      vertex 3.19606 1.75706 0.4
      vertex 2.91587 2.73819 0.4
      vertex 3.50523 1.92701 0.4
    endloop
  endfacet
  facet normal 0 0 -1
    outer loop
      vertex 2.65871 2.49666 0.4
      vertex 2.91587 2.73819 0.4
      vertex 3.19606 1.75706 0.4
    endloop
  endfacet
  facet normal 0 0 -1
    outer loop
      vertex 2.65871 2.49666 0.4
      vertex 2.14331 3.37731 0.4
      vertex 2.91587 2.73819 0.4
    endloop
  endfacet
  facet normal 0 0 -1
    outer loop
      vertex 1.95427 3.07944 0.4
      vertex 2.14331 3.37731 0.4
      vertex 2.65871 2.49666 0.4
    endloop
  endfacet
  facet normal 0 0 -1
    outer loop
      vertex 1.95427 3.07944 0.4
      vertex 1.23607 3.80423 0.4
      vertex 2.14331 3.37731 0.4
    endloop
  endfacet
  facet normal 0 0 -1
    outer loop
      vertex 1.127 3.4687 0.4
      vertex 1.23607 3.80423 0.4
      vertex 1.95427 3.07944 0.4
    endloop
  endfacet
  facet normal 0 0 -1
    outer loop
      vertex 1.127 3.4687 0.4
      vertex 0.251162 3.99211 0.4
      vertex 1.23607 3.80423 0.4
    endloop
  endfacet
  facet normal 0 0 -1
    outer loop
      vertex 0.229004 3.64001 0.4
      vertex 0.251162 3.99211 0.4
      vertex 1.127 3.4687 0.4
    endloop
  endfacet
  facet normal 0 0 -1
    outer loop
      vertex -0.68338 3.58261 0.4
      vertex 0.251162 3.99211 0.4
      vertex 0.229004 3.64001 0.4
    endloop
  endfacet
  facet normal 0 0 -1
    outer loop
      vertex -0.68338 3.58261 0.4
      vertex -0.749525 3.92915 0.4
      vertex 0.251162 3.99211 0.4
    endloop
  endfacet
  facet normal 0 0 -1
    outer loop
      vertex -1.55292 3.30008 0.4
      vertex -0.749525 3.92915 0.4
      vertex -0.68338 3.58261 0.4
    endloop
  endfacet
  facet normal 0 0 -1
    outer loop
      vertex -1.55292 3.30008 0.4
      vertex -1.70312 3.61931 0.4
      vertex -0.749525 3.92915 0.4
    endloop
  endfacet
  facet normal 0 0 -1
    outer loop
      vertex -2.4 3.17705 0.4
      vertex -1.55292 3.30008 0.4
      vertex -2.21246 2.88153 0.4
    endloop
  endfacet
  facet normal 0 0 -1
    outer loop
      vertex -2.4 3.17705 0.4
      vertex -2.21246 2.88153 0.4
      vertex -2.29184 2.84418 0.4
    endloop
  endfacet
  facet normal 0 0 -1
    outer loop
      vertex -2.4 3.17705 0.4
      vertex -2.29184 2.84418 0.4
      vertex -2.37802 2.82774 0.4
    endloop
  endfacet
  facet normal -0 0 -1
    outer loop
      vertex -1.55292 3.30008 0.4
      vertex -2.4 3.17705 0.4
      vertex -1.70312 3.61931 0.4
    endloop
  endfacet
  facet normal 0 0 -1
    outer loop
      vertex -2.46558 2.83325 0.4
      vertex -2.4 3.17705 0.4
      vertex -2.37802 2.82774 0.4
    endloop
  endfacet
  facet normal 0 0 -1
    outer loop
      vertex -2.54903 2.86037 0.4
      vertex -2.4 3.17705 0.4
      vertex -2.46558 2.83325 0.4
    endloop
  endfacet
  facet normal 0 0 -1
    outer loop
      vertex -2.62309 2.90736 0.4
      vertex -2.4 3.17705 0.4
      vertex -2.54903 2.86037 0.4
    endloop
  endfacet
  facet normal 0 0 -1
    outer loop
      vertex -2.68315 2.97133 0.4
      vertex -2.4 3.17705 0.4
      vertex -2.62309 2.90736 0.4
    endloop
  endfacet
  facet normal 0 0 -1
    outer loop
      vertex -2.72542 3.0482 0.4
      vertex -2.4 3.17705 0.4
      vertex -2.68315 2.97133 0.4
    endloop
  endfacet
  facet normal -0 0 -1
    outer loop
      vertex -2.4 3.17705 0.4
      vertex -2.72542 3.0482 0.4
      vertex -2.75 3.17705 0.4
    endloop
  endfacet
  facet normal 0 0 -1
    outer loop
      vertex -2.4 3.17705 0.4
      vertex -2.75 3.17705 0.4
      vertex -2.75 3.71542 0.4
    endloop
  endfacet
  facet normal 0 0 -1
    outer loop
      vertex -2.4 3.17705 0.4
      vertex -2.75 3.71542 0.4
      vertex -2.4 4.35209 0.4
    endloop
  endfacet
  facet normal 0 0 -1
    outer loop
      vertex -3.18712 3.85257 0.4
      vertex -2.75 3.71542 0.4
      vertex -2.96225 3.58072 0.4
    endloop
  endfacet
  facet normal 0 0 -1
    outer loop
      vertex -2.75 3.71542 0.4
      vertex -3.18712 3.85257 0.4
      vertex -2.4 4.35209 0.4
    endloop
  endfacet
  facet normal 0 0 -1
    outer loop
      vertex -3.75969 2.73152 0.4
      vertex -3.18712 3.85257 0.4
      vertex -2.96225 3.58072 0.4
    endloop
  endfacet
  facet normal 0 0 -1
    outer loop
      vertex -3.75969 2.73152 0.4
      vertex -4.04508 2.93893 0.4
      vertex -3.18712 3.85257 0.4
    endloop
  endfacet
  facet normal 0 0 -1
    outer loop
      vertex -4.32086 1.71077 0.4
      vertex -4.04508 2.93893 0.4
      vertex -3.75969 2.73152 0.4
    endloop
  endfacet
  facet normal 0 0 -1
    outer loop
      vertex -4.64888 1.84062 0.4
      vertex -4.32086 1.71077 0.4
      vertex -4.61057 0.582474 0.4
    endloop
  endfacet
  facet normal 0 0 -1
    outer loop
      vertex -4.32086 1.71077 0.4
      vertex -4.64888 1.84062 0.4
      vertex -4.04508 2.93893 0.4
    endloop
  endfacet
  facet normal -0 0 -1
    outer loop
      vertex -4.61057 -0.582474 0.4
      vertex -4.96057 -0.626666 0.4
      vertex -4.61057 0.582474 0.4
    endloop
  endfacet
  facet normal 0 0 -1
    outer loop
      vertex -4.96057 0.626666 0.4
      vertex -4.61057 0.582474 0.4
      vertex -4.96057 -0.626666 0.4
    endloop
  endfacet
  facet normal 0 0 -1
    outer loop
      vertex -4.61057 0.582474 0.4
      vertex -4.96057 0.626666 0.4
      vertex -4.64888 1.84062 0.4
    endloop
  endfacet
  facet normal 0 0 -1
    outer loop
      vertex -2.75 -3.71542 0.4
      vertex -2.4 -3.17705 0.4
      vertex -2.4 -4.35209 0.4
    endloop
  endfacet
  facet normal 0 0 -1
    outer loop
      vertex -2.75 -3.17705 0.4
      vertex -2.4 -3.17705 0.4
      vertex -2.75 -3.71542 0.4
    endloop
  endfacet
  facet normal 0 -0 -1
    outer loop
      vertex -2.739 -3.09001 0.4
      vertex -2.4 -3.17705 0.4
      vertex -2.75 -3.17705 0.4
    endloop
  endfacet
  facet normal 0 0 -1
    outer loop
      vertex -2.4 -3.17705 0.4
      vertex -2.50815 -2.84418 0.4
      vertex -2.42197 -2.82774 0.4
    endloop
  endfacet
  facet normal 0 0 -1
    outer loop
      vertex -2.4 -3.17705 0.4
      vertex -2.58754 -2.88153 0.4
      vertex -2.50815 -2.84418 0.4
    endloop
  endfacet
  facet normal 0 0 -1
    outer loop
      vertex -2.4 -3.17705 0.4
      vertex -2.7067 -3.00844 0.4
      vertex -2.65514 -2.93745 0.4
    endloop
  endfacet
  facet normal 0 0 -1
    outer loop
      vertex -2.4 -3.17705 0.4
      vertex -2.65514 -2.93745 0.4
      vertex -2.58754 -2.88153 0.4
    endloop
  endfacet
  facet normal 0 0 -1
    outer loop
      vertex -3.18712 -3.85257 0.4
      vertex -2.75 -3.71542 0.4
      vertex -2.4 -4.35209 0.4
    endloop
  endfacet
  facet normal -0 0 -1
    outer loop
      vertex -2.75 -3.71542 0.4
      vertex -3.18712 -3.85257 0.4
      vertex -2.96225 -3.58072 0.4
    endloop
  endfacet
  facet normal 0 0 -1
    outer loop
      vertex -3.18712 -3.85257 0.4
      vertex -3.75969 -2.73152 0.4
      vertex -2.96225 -3.58072 0.4
    endloop
  endfacet
  facet normal 0 0 -1
    outer loop
      vertex -4.04508 -2.93893 0.4
      vertex -3.75969 -2.73152 0.4
      vertex -3.18712 -3.85257 0.4
    endloop
  endfacet
  facet normal 0 0 -1
    outer loop
      vertex -4.04508 -2.93893 0.4
      vertex -4.32086 -1.71077 0.4
      vertex -3.75969 -2.73152 0.4
    endloop
  endfacet
  facet normal 0 0 -1
    outer loop
      vertex -4.64888 -1.84062 0.4
      vertex -4.32086 -1.71077 0.4
      vertex -4.04508 -2.93893 0.4
    endloop
  endfacet
  facet normal 0 0 -1
    outer loop
      vertex -4.96057 -0.626666 0.4
      vertex -4.61057 -0.582474 0.4
      vertex -4.64888 -1.84062 0.4
    endloop
  endfacet
  facet normal -0 0 -1
    outer loop
      vertex -4.32086 -1.71077 0.4
      vertex -4.64888 -1.84062 0.4
      vertex -4.61057 -0.582474 0.4
    endloop
  endfacet
  facet normal 0 0 -1
    outer loop
      vertex -2.4 -3.17705 0.4
      vertex -2.739 -3.09001 0.4
      vertex -2.7067 -3.00844 0.4
    endloop
  endfacet
  facet normal 0 0 -1
    outer loop
      vertex 1 -1.16851 0.4
      vertex 1.35001 -1.1685 0.4
      vertex 1.339 -1.25554 0.4
    endloop
  endfacet
  facet normal 0 0 -1
    outer loop
      vertex 3.87433 -0.994759 0.4
      vertex 3.53262 -0.907028 0.4
      vertex 3.53983 -0.850006 0.4
    endloop
  endfacet
  facet normal 0 0 -1
    outer loop
      vertex 3.50523 -1.92701 0.4
      vertex 3.53262 -0.907028 0.4
      vertex 3.87433 -0.994759 0.4
    endloop
  endfacet
  facet normal 0 0 -1
    outer loop
      vertex 3.50523 -1.92701 0.4
      vertex 3.19606 -1.75706 0.4
      vertex 3.53262 -0.907028 0.4
    endloop
  endfacet
  facet normal 0 0 -1
    outer loop
      vertex 2.91587 -2.73819 0.4
      vertex 3.19606 -1.75706 0.4
      vertex 3.50523 -1.92701 0.4
    endloop
  endfacet
  facet normal 0 0 -1
    outer loop
      vertex 2.91587 -2.73819 0.4
      vertex 2.65871 -2.49666 0.4
      vertex 3.19606 -1.75706 0.4
    endloop
  endfacet
  facet normal 0 0 -1
    outer loop
      vertex 2.14331 -3.37731 0.4
      vertex 2.65871 -2.49666 0.4
      vertex 2.91587 -2.73819 0.4
    endloop
  endfacet
  facet normal 0 0 -1
    outer loop
      vertex 2.14331 -3.37731 0.4
      vertex 1.95427 -3.07944 0.4
      vertex 2.65871 -2.49666 0.4
    endloop
  endfacet
  facet normal 0 0 -1
    outer loop
      vertex 1.23607 -3.80423 0.4
      vertex 1.95427 -3.07944 0.4
      vertex 2.14331 -3.37731 0.4
    endloop
  endfacet
  facet normal 0 0 -1
    outer loop
      vertex 1.23607 -3.80423 0.4
      vertex 1.127 -3.4687 0.4
      vertex 1.95427 -3.07944 0.4
    endloop
  endfacet
  facet normal 0 0 -1
    outer loop
      vertex 0.251162 -3.99211 0.4
      vertex 1.127 -3.4687 0.4
      vertex 1.23607 -3.80423 0.4
    endloop
  endfacet
  facet normal 0 0 -1
    outer loop
      vertex 0.251162 -3.99211 0.4
      vertex 0.229004 -3.64001 0.4
      vertex 1.127 -3.4687 0.4
    endloop
  endfacet
  facet normal 0 0 -1
    outer loop
      vertex 0.251162 -3.99211 0.4
      vertex -0.68338 -3.58261 0.4
      vertex 0.229004 -3.64001 0.4
    endloop
  endfacet
  facet normal 0 0 -1
    outer loop
      vertex -0.749525 -3.92915 0.4
      vertex -0.68338 -3.58261 0.4
      vertex 0.251162 -3.99211 0.4
    endloop
  endfacet
  facet normal 0 0 -1
    outer loop
      vertex -0.749525 -3.92915 0.4
      vertex -1.55292 -3.30008 0.4
      vertex -0.68338 -3.58261 0.4
    endloop
  endfacet
  facet normal 0 0 -1
    outer loop
      vertex -1.70312 -3.61931 0.4
      vertex -1.55292 -3.30008 0.4
      vertex -0.749525 -3.92915 0.4
    endloop
  endfacet
  facet normal 0 0 -1
    outer loop
      vertex -2.4 -3.17705 0.4
      vertex -1.55292 -3.30008 0.4
      vertex -1.70312 -3.61931 0.4
    endloop
  endfacet
  facet normal 0 0 -1
    outer loop
      vertex -1.55292 -3.30008 0.4
      vertex -2.4 -3.17705 0.4
      vertex -2.21246 -2.88153 0.4
    endloop
  endfacet
  facet normal -0 0 -1
    outer loop
      vertex -2.21246 -2.88153 0.4
      vertex -2.4 -3.17705 0.4
      vertex -2.33441 -2.83325 0.4
    endloop
  endfacet
  facet normal -0 0 -1
    outer loop
      vertex -2.33441 -2.83325 0.4
      vertex -2.4 -3.17705 0.4
      vertex -2.42197 -2.82774 0.4
    endloop
  endfacet
  facet normal 0 0 -1
    outer loop
      vertex 3.53983 -0.850006 0.4
      vertex 3.93684 -0.5 0.4
      vertex 3.87433 -0.994759 0.4
    endloop
  endfacet
  facet normal 0 0 -1
    outer loop
      vertex 1 -0.5 0.4
      vertex 3.53983 -0.850006 0.4
      vertex 1.35001 -0.850006 0.4
    endloop
  endfacet
  facet normal 0 0 -1
    outer loop
      vertex 1 -1.16851 0.4
      vertex 1.339 -1.25554 0.4
      vertex 1.3067 -1.33711 0.4
    endloop
  endfacet
  facet normal 0 0 -1
    outer loop
      vertex 1 -1.16851 0.4
      vertex 1.3067 -1.33711 0.4
      vertex 1.25514 -1.4081 0.4
    endloop
  endfacet
  facet normal 0 0 -1
    outer loop
      vertex 1 -1.16851 0.4
      vertex 1.25514 -1.4081 0.4
      vertex 1.22308 -1.43819 0.4
    endloop
  endfacet
  facet normal 0 0 -1
    outer loop
      vertex 1 -1.16851 0.4
      vertex 1.22308 -1.43819 0.4
      vertex 1.0536 -1.57838 0.4
    endloop
  endfacet
  facet normal -0 0 -1
    outer loop
      vertex 1.35001 -1.1685 0.4
      vertex 1 -1.16851 0.4
      vertex 1.35001 -0.850006 0.4
    endloop
  endfacet
  facet normal 0 0 -1
    outer loop
      vertex 3.53983 -0.850006 0.4
      vertex 1 -0.5 0.4
      vertex 3.93684 -0.5 0.4
    endloop
  endfacet
  facet normal 0 0 -1
    outer loop
      vertex 1 -0.5 0.4
      vertex 1.35001 -0.850006 0.4
      vertex 1 -1.16851 0.4
    endloop
  endfacet
  facet normal 0 0 -1
    outer loop
      vertex 3.19606 -1.75706 0
      vertex 1.339 -1.25554 0
      vertex 1.35001 -1.1685 0
    endloop
  endfacet
  facet normal 0 0 -1
    outer loop
      vertex 2.65871 -2.49666 0
      vertex 1.3067 -1.33711 0
      vertex 1.339 -1.25554 0
    endloop
  endfacet
  facet normal 0 0 -1
    outer loop
      vertex 2.65871 -2.49666 0
      vertex 1.25514 -1.4081 0
      vertex 1.3067 -1.33711 0
    endloop
  endfacet
  facet normal 0 0 -1
    outer loop
      vertex 2.65871 -2.49666 0
      vertex 1.22308 -1.43819 0
      vertex 1.25514 -1.4081 0
    endloop
  endfacet
  facet normal 0 0 -1
    outer loop
      vertex 0.979553 -1.62538 0
      vertex 1.95427 -3.07944 0
      vertex 1.127 -3.4687 0
    endloop
  endfacet
  facet normal 0 0 -1
    outer loop
      vertex 1.95427 -3.07944 0
      vertex 1.0536 -1.57838 0
      vertex 1.22308 -1.43819 0
    endloop
  endfacet
  facet normal 0 0 -1
    outer loop
      vertex 1.95427 -3.07944 0
      vertex 0.979553 -1.62538 0
      vertex 1.0536 -1.57838 0
    endloop
  endfacet
  facet normal 0 0 -1
    outer loop
      vertex 1.127 -3.4687 0
      vertex 0.628006 -1.79082 0
      vertex 0.979553 -1.62538 0
    endloop
  endfacet
  facet normal 0 0 -1
    outer loop
      vertex 1.127 -3.4687 0
      vertex 0.544556 -1.81793 0
      vertex 0.628006 -1.79082 0
    endloop
  endfacet
  facet normal 0 0 -1
    outer loop
      vertex 0.229004 -3.64001 0
      vertex 0.544556 -1.81793 0
      vertex 1.127 -3.4687 0
    endloop
  endfacet
  facet normal 0 0 -1
    outer loop
      vertex 0.229004 -3.64001 0
      vertex 0.162903 -1.89073 0
      vertex 0.544556 -1.81793 0
    endloop
  endfacet
  facet normal 0 0 -1
    outer loop
      vertex 0.229004 -3.64001 0
      vertex 0.0753479 -1.89624 0
      vertex 0.162903 -1.89073 0
    endloop
  endfacet
  facet normal 0 0 -1
    outer loop
      vertex 0.229004 -3.64001 0
      vertex -0.312408 -1.87184 0
      vertex 0.0753479 -1.89624 0
    endloop
  endfacet
  facet normal 0 0 -1
    outer loop
      vertex -0.68338 -3.58261 0
      vertex -0.312408 -1.87184 0
      vertex 0.229004 -3.64001 0
    endloop
  endfacet
  facet normal -0 0 -1
    outer loop
      vertex -0.312408 -1.87184 0
      vertex -0.68338 -3.58261 0
      vertex -0.39859 -1.85541 0
    endloop
  endfacet
  facet normal 0 0 -1
    outer loop
      vertex -0.68338 -3.58261 0
      vertex -0.768112 -1.73535 0
      vertex -0.39859 -1.85541 0
    endloop
  endfacet
  facet normal 0 0 -1
    outer loop
      vertex -1.55292 -3.30008 0
      vertex -0.768112 -1.73535 0
      vertex -0.68338 -3.58261 0
    endloop
  endfacet
  facet normal -0 0 -1
    outer loop
      vertex -0.768112 -1.73535 0
      vertex -1.55292 -3.30008 0
      vertex -0.847504 -1.698 0
    endloop
  endfacet
  facet normal 0 0 -1
    outer loop
      vertex -2.21246 -2.88153 0
      vertex -0.847504 -1.698 0
      vertex -1.55292 -3.30008 0
    endloop
  endfacet
  facet normal -0 0 -1
    outer loop
      vertex -0.847504 -1.698 0
      vertex -2.21246 -2.88153 0
      vertex -1.17555 -1.48981 0
    endloop
  endfacet
  facet normal -0 0 -1
    outer loop
      vertex -1.17555 -1.48981 0
      vertex -2.21246 -2.88153 0
      vertex -1.24315 -1.43387 0
    endloop
  endfacet
  facet normal 0 0 -1
    outer loop
      vertex -2.33441 -2.83325 0
      vertex -1.24315 -1.43387 0
      vertex -2.21246 -2.88153 0
    endloop
  endfacet
  facet normal -0 0 -1
    outer loop
      vertex -1.24315 -1.43387 0
      vertex -2.33441 -2.83325 0
      vertex -1.50911 -1.15063 0
    endloop
  endfacet
  facet normal 0 0 -1
    outer loop
      vertex -2.42197 -2.82774 0
      vertex -1.50911 -1.15063 0
      vertex -2.33441 -2.83325 0
    endloop
  endfacet
  facet normal -0 0 -1
    outer loop
      vertex -1.50911 -1.15063 0
      vertex -2.42197 -2.82774 0
      vertex -1.56067 -1.07967 0
    endloop
  endfacet
  facet normal 0 0 -1
    outer loop
      vertex -2.50815 -2.84418 0
      vertex -1.56067 -1.07967 0
      vertex -2.42197 -2.82774 0
    endloop
  endfacet
  facet normal 0 0 -1
    outer loop
      vertex -4.32086 -1.71077 0
      vertex -1.74785 -0.739197 0
      vertex -2.50815 -2.84418 0
    endloop
  endfacet
  facet normal -0 0 -1
    outer loop
      vertex -1.56067 -1.07967 0
      vertex -2.50815 -2.84418 0
      vertex -1.74785 -0.739197 0
    endloop
  endfacet
  facet normal 0 0 -1
    outer loop
      vertex 1.35001 -0.850006 0
      vertex 3.53262 -0.907028 0
      vertex 3.19606 -1.75706 0
    endloop
  endfacet
  facet normal 0 0 -1
    outer loop
      vertex 1.339 -1.25554 0
      vertex 3.19606 -1.75706 0
      vertex 2.65871 -2.49666 0
    endloop
  endfacet
  facet normal 0 0 -1
    outer loop
      vertex 1.22308 -1.43819 0
      vertex 2.65871 -2.49666 0
      vertex 1.95427 -3.07944 0
    endloop
  endfacet
  facet normal 0 0 -1
    outer loop
      vertex 1.35001 -0.850006 0
      vertex 3.19606 -1.75706 0
      vertex 1.35001 -1.1685 0
    endloop
  endfacet
  facet normal 0 0 -1
    outer loop
      vertex 3.53262 -0.907028 0
      vertex 1.35001 -0.850006 0
      vertex 3.53983 -0.850006 0
    endloop
  endfacet
  facet normal 0 0 -1
    outer loop
      vertex 1.35001 0.850006 0
      vertex 3.53262 0.907028 0
      vertex 3.53983 0.850006 0
    endloop
  endfacet
  facet normal -0 0 -1
    outer loop
      vertex 3.53262 0.907028 0
      vertex 1.35001 0.850006 0
      vertex 3.19606 1.75706 0
    endloop
  endfacet
  facet normal 0 0 -1
    outer loop
      vertex 1.32542 1.29735 0
      vertex 3.19606 1.75706 0
      vertex 1.34724 1.21237 0
    endloop
  endfacet
  facet normal 0 0 -1
    outer loop
      vertex 3.19606 1.75706 0
      vertex 1.35001 0.850006 0
      vertex 1.35001 1.1685 0
    endloop
  endfacet
  facet normal 0 0 -1
    outer loop
      vertex 3.19606 1.75706 0
      vertex 1.35001 1.1685 0
      vertex 1.34724 1.21237 0
    endloop
  endfacet
  facet normal -0 0 -1
    outer loop
      vertex 3.19606 1.75706 0
      vertex 1.32542 1.29735 0
      vertex 2.65871 2.49666 0
    endloop
  endfacet
  facet normal 0 0 -1
    outer loop
      vertex 1.28316 1.37424 0
      vertex 2.65871 2.49666 0
      vertex 1.32542 1.29735 0
    endloop
  endfacet
  facet normal 0 0 -1
    outer loop
      vertex 1.22308 1.43819 0
      vertex 2.65871 2.49666 0
      vertex 1.28316 1.37424 0
    endloop
  endfacet
  facet normal -0 0 -1
    outer loop
      vertex 2.65871 2.49666 0
      vertex 1.22308 1.43819 0
      vertex 1.95427 3.07944 0
    endloop
  endfacet
  facet normal 0 0 -1
    outer loop
      vertex 1.0536 1.57838 0
      vertex 1.95427 3.07944 0
      vertex 1.22308 1.43819 0
    endloop
  endfacet
  facet normal 0 0 -1
    outer loop
      vertex 0.979553 1.62538 0
      vertex 1.95427 3.07944 0
      vertex 1.0536 1.57838 0
    endloop
  endfacet
  facet normal -0 0 -1
    outer loop
      vertex 1.95427 3.07944 0
      vertex 0.979553 1.62538 0
      vertex 1.127 3.4687 0
    endloop
  endfacet
  facet normal 0 0 -1
    outer loop
      vertex 0.628006 1.79082 0
      vertex 1.127 3.4687 0
      vertex 0.979553 1.62538 0
    endloop
  endfacet
  facet normal 0 0 -1
    outer loop
      vertex 0.544556 1.81793 0
      vertex 1.127 3.4687 0
      vertex 0.628006 1.79082 0
    endloop
  endfacet
  facet normal 0 0 -1
    outer loop
      vertex 0.544556 1.81793 0
      vertex 0.229004 3.64001 0
      vertex 1.127 3.4687 0
    endloop
  endfacet
  facet normal 0 0 -1
    outer loop
      vertex 0.162903 1.89073 0
      vertex 0.229004 3.64001 0
      vertex 0.544556 1.81793 0
    endloop
  endfacet
  facet normal 0 0 -1
    outer loop
      vertex 0.0753479 1.89624 0
      vertex 0.229004 3.64001 0
      vertex 0.162903 1.89073 0
    endloop
  endfacet
  facet normal 0 0 -1
    outer loop
      vertex -0.312408 1.87184 0
      vertex 0.229004 3.64001 0
      vertex 0.0753479 1.89624 0
    endloop
  endfacet
  facet normal 0 0 -1
    outer loop
      vertex -0.68338 3.58261 0
      vertex -0.312408 1.87184 0
      vertex -0.39859 1.85541 0
    endloop
  endfacet
  facet normal 0 0 -1
    outer loop
      vertex -0.312408 1.87184 0
      vertex -0.68338 3.58261 0
      vertex 0.229004 3.64001 0
    endloop
  endfacet
  facet normal 0 0 -1
    outer loop
      vertex -0.768112 1.73535 0
      vertex -0.68338 3.58261 0
      vertex -0.39859 1.85541 0
    endloop
  endfacet
  facet normal 0 0 -1
    outer loop
      vertex -1.55292 3.30008 0
      vertex -0.768112 1.73535 0
      vertex -0.847504 1.698 0
    endloop
  endfacet
  facet normal 0 0 -1
    outer loop
      vertex -2.21246 2.88153 0
      vertex -0.847504 1.698 0
      vertex -1.17555 1.48981 0
    endloop
  endfacet
  facet normal 0 0 -1
    outer loop
      vertex -2.21246 2.88153 0
      vertex -1.17555 1.48981 0
      vertex -1.24315 1.43387 0
    endloop
  endfacet
  facet normal 0 0 -1
    outer loop
      vertex -2.29184 2.84418 0
      vertex -1.24315 1.43387 0
      vertex -1.50911 1.15063 0
    endloop
  endfacet
  facet normal 0 0 -1
    outer loop
      vertex -0.768112 1.73535 0
      vertex -1.55292 3.30008 0
      vertex -0.68338 3.58261 0
    endloop
  endfacet
  facet normal 0 0 -1
    outer loop
      vertex -2.37802 2.82774 0
      vertex -1.50911 1.15063 0
      vertex -1.56067 1.07967 0
    endloop
  endfacet
  facet normal 0 0 -1
    outer loop
      vertex -2.46558 2.83325 0
      vertex -1.56067 1.07967 0
      vertex -1.74785 0.739197 0
    endloop
  endfacet
  facet normal 0 0 -1
    outer loop
      vertex -4.32086 1.71077 0
      vertex -1.74785 0.739197 0
      vertex -1.78015 0.657623 0
    endloop
  endfacet
  facet normal 0 0 -1
    outer loop
      vertex -4.32086 1.71077 0
      vertex -1.78015 0.657623 0
      vertex -1.87677 0.281296 0
    endloop
  endfacet
  facet normal 0 0 -1
    outer loop
      vertex -4.61057 0.582474 0
      vertex -1.87677 0.281296 0
      vertex -1.88777 0.19426 0
    endloop
  endfacet
  facet normal 0 0 -1
    outer loop
      vertex -0.847504 1.698 0
      vertex -2.21246 2.88153 0
      vertex -1.55292 3.30008 0
    endloop
  endfacet
  facet normal -0 0 -1
    outer loop
      vertex -1.74785 -0.739197 0
      vertex -4.32086 -1.71077 0
      vertex -1.78015 -0.657623 0
    endloop
  endfacet
  facet normal 0 0 -1
    outer loop
      vertex -1.24315 1.43387 0
      vertex -2.29184 2.84418 0
      vertex -2.21246 2.88153 0
    endloop
  endfacet
  facet normal -0 0 -1
    outer loop
      vertex -1.78015 -0.657623 0
      vertex -4.32086 -1.71077 0
      vertex -1.87677 -0.281296 0
    endloop
  endfacet
  facet normal 0 0 -1
    outer loop
      vertex -1.50911 1.15063 0
      vertex -2.37802 2.82774 0
      vertex -2.29184 2.84418 0
    endloop
  endfacet
  facet normal -0 0 -1
    outer loop
      vertex -1.87677 -0.281296 0
      vertex -4.61057 -0.582474 0
      vertex -1.88777 -0.19426 0
    endloop
  endfacet
  facet normal 0 0 -1
    outer loop
      vertex -4.61057 0.582474 0
      vertex -1.88777 0.19426 0
      vertex -4.61057 -0.582474 0
    endloop
  endfacet
  facet normal 0 0 -1
    outer loop
      vertex -4.61057 -0.582474 0
      vertex -1.87677 -0.281296 0
      vertex -4.32086 -1.71077 0
    endloop
  endfacet
  facet normal 0 0 -1
    outer loop
      vertex -1.87677 0.281296 0
      vertex -4.61057 0.582474 0
      vertex -4.32086 1.71077 0
    endloop
  endfacet
  facet normal 0 0 -1
    outer loop
      vertex -3.75969 -2.73152 0
      vertex -2.50815 -2.84418 0
      vertex -2.58754 -2.88153 0
    endloop
  endfacet
  facet normal 0 0 -1
    outer loop
      vertex -1.74785 0.739197 0
      vertex -4.32086 1.71077 0
      vertex -2.46558 2.83325 0
    endloop
  endfacet
  facet normal 0 0 -1
    outer loop
      vertex -3.75969 -2.73152 0
      vertex -2.58754 -2.88153 0
      vertex -2.65514 -2.93745 0
    endloop
  endfacet
  facet normal 0 0 -1
    outer loop
      vertex -1.56067 1.07967 0
      vertex -2.46558 2.83325 0
      vertex -2.37802 2.82774 0
    endloop
  endfacet
  facet normal 0 0 -1
    outer loop
      vertex -3.75969 -2.73152 0
      vertex -2.65514 -2.93745 0
      vertex -2.7067 -3.00844 0
    endloop
  endfacet
  facet normal -0 0 -1
    outer loop
      vertex -2.46558 2.83325 0
      vertex -4.32086 1.71077 0
      vertex -2.54903 2.86037 0
    endloop
  endfacet
  facet normal 0 0 -1
    outer loop
      vertex -3.75969 -2.73152 0
      vertex -2.7067 -3.00844 0
      vertex -2.739 -3.09001 0
    endloop
  endfacet
  facet normal 0 0 -1
    outer loop
      vertex -3.75969 -2.73152 0
      vertex -2.739 -3.09001 0
      vertex -2.75 -3.17705 0
    endloop
  endfacet
  facet normal 0 -0 -1
    outer loop
      vertex -3.75969 2.73152 0
      vertex -2.54903 2.86037 0
      vertex -4.32086 1.71077 0
    endloop
  endfacet
  facet normal 0 0 -1
    outer loop
      vertex -2.96225 -3.58072 0
      vertex -2.75 -3.17705 0
      vertex -2.75 -3.71542 0
    endloop
  endfacet
  facet normal 0 0 -1
    outer loop
      vertex -2.50815 -2.84418 0
      vertex -3.75969 -2.73152 0
      vertex -4.32086 -1.71077 0
    endloop
  endfacet
  facet normal -0 0 -1
    outer loop
      vertex -2.75 -3.17705 0
      vertex -2.96225 -3.58072 0
      vertex -3.75969 -2.73152 0
    endloop
  endfacet
  facet normal -0 0 -1
    outer loop
      vertex -1.88777 -0.19426 0
      vertex -4.61057 -0.582474 0
      vertex -1.88777 0.19426 0
    endloop
  endfacet
  facet normal -0 0 -1
    outer loop
      vertex -2.54903 2.86037 0
      vertex -3.75969 2.73152 0
      vertex -2.62309 2.90736 0
    endloop
  endfacet
  facet normal 0 0 -1
    outer loop
      vertex -2.75 3.17705 0
      vertex -2.96225 3.58072 0
      vertex -2.75 3.71542 0
    endloop
  endfacet
  facet normal -0 0 -1
    outer loop
      vertex -2.72542 3.0482 0
      vertex -3.75969 2.73152 0
      vertex -2.75 3.17705 0
    endloop
  endfacet
  facet normal 0 -0 -1
    outer loop
      vertex -2.96225 3.58072 0
      vertex -2.75 3.17705 0
      vertex -3.75969 2.73152 0
    endloop
  endfacet
  facet normal -0 0 -1
    outer loop
      vertex -2.62309 2.90736 0
      vertex -3.75969 2.73152 0
      vertex -2.68315 2.97133 0
    endloop
  endfacet
  facet normal -0 0 -1
    outer loop
      vertex -2.68315 2.97133 0
      vertex -3.75969 2.73152 0
      vertex -2.72542 3.0482 0
    endloop
  endfacet
  facet normal 0.992109 -0.125381 0
    outer loop
      vertex -2.75 -3.17705 0.4
      vertex -2.739 -3.09001 0
      vertex -2.739 -3.09001 0.4
    endloop
  endfacet
  facet normal 0.992109 -0.125381 0
    outer loop
      vertex -2.739 -3.09001 0
      vertex -2.75 -3.17705 0.4
      vertex -2.75 -3.17705 0
    endloop
  endfacet
  facet normal 0.92976 -0.368165 0
    outer loop
      vertex -2.739 -3.09001 0.4
      vertex -2.7067 -3.00844 0
      vertex -2.7067 -3.00844 0.4
    endloop
  endfacet
  facet normal 0.92976 -0.368165 0
    outer loop
      vertex -2.7067 -3.00844 0
      vertex -2.739 -3.09001 0.4
      vertex -2.739 -3.09001 0
    endloop
  endfacet
  facet normal 0.80911 -0.587657 0
    outer loop
      vertex -2.7067 -3.00844 0.4
      vertex -2.65514 -2.93745 0
      vertex -2.65514 -2.93745 0.4
    endloop
  endfacet
  facet normal 0.80911 -0.587657 0
    outer loop
      vertex -2.65514 -2.93745 0
      vertex -2.7067 -3.00844 0.4
      vertex -2.7067 -3.00844 0
    endloop
  endfacet
  facet normal 0.6374 -0.770533 0
    outer loop
      vertex -2.65514 -2.93745 0
      vertex -2.58754 -2.88153 0.4
      vertex -2.65514 -2.93745 0.4
    endloop
  endfacet
  facet normal 0.6374 -0.770533 0
    outer loop
      vertex -2.58754 -2.88153 0.4
      vertex -2.65514 -2.93745 0
      vertex -2.58754 -2.88153 0
    endloop
  endfacet
  facet normal 0.425704 -0.904863 0
    outer loop
      vertex -2.58754 -2.88153 0
      vertex -2.50815 -2.84418 0.4
      vertex -2.58754 -2.88153 0.4
    endloop
  endfacet
  facet normal 0.425704 -0.904863 0
    outer loop
      vertex -2.50815 -2.84418 0.4
      vertex -2.58754 -2.88153 0
      vertex -2.50815 -2.84418 0
    endloop
  endfacet
  facet normal 0.187384 -0.982287 0
    outer loop
      vertex -2.50815 -2.84418 0
      vertex -2.42197 -2.82774 0.4
      vertex -2.50815 -2.84418 0.4
    endloop
  endfacet
  facet normal 0.187384 -0.982287 0
    outer loop
      vertex -2.42197 -2.82774 0.4
      vertex -2.50815 -2.84418 0
      vertex -2.42197 -2.82774 0
    endloop
  endfacet
  facet normal -0.062804 -0.998026 0
    outer loop
      vertex -2.42197 -2.82774 0
      vertex -2.33441 -2.83325 0.4
      vertex -2.42197 -2.82774 0.4
    endloop
  endfacet
  facet normal -0.062804 -0.998026 -0
    outer loop
      vertex -2.33441 -2.83325 0.4
      vertex -2.42197 -2.82774 0
      vertex -2.33441 -2.83325 0
    endloop
  endfacet
  facet normal -0.368102 -0.929785 0
    outer loop
      vertex -2.33441 -2.83325 0
      vertex -2.21246 -2.88153 0.4
      vertex -2.33441 -2.83325 0.4
    endloop
  endfacet
  facet normal -0.368102 -0.929785 -0
    outer loop
      vertex -2.21246 -2.88153 0.4
      vertex -2.33441 -2.83325 0
      vertex -2.21246 -2.88153 0
    endloop
  endfacet
  facet normal -0.535821 -0.844332 0
    outer loop
      vertex -2.21246 -2.88153 0
      vertex -1.55292 -3.30008 0.4
      vertex -2.21246 -2.88153 0.4
    endloop
  endfacet
  facet normal -0.535821 -0.844332 -0
    outer loop
      vertex -1.55292 -3.30008 0.4
      vertex -2.21246 -2.88153 0
      vertex -1.55292 -3.30008 0
    endloop
  endfacet
  facet normal -0.309016 -0.951057 0
    outer loop
      vertex -1.55292 -3.30008 0
      vertex -0.68338 -3.58261 0.4
      vertex -1.55292 -3.30008 0.4
    endloop
  endfacet
  facet normal -0.309016 -0.951057 -0
    outer loop
      vertex -0.68338 -3.58261 0.4
      vertex -1.55292 -3.30008 0
      vertex -0.68338 -3.58261 0
    endloop
  endfacet
  facet normal -0.062788 -0.998027 0
    outer loop
      vertex -0.68338 -3.58261 0
      vertex 0.229004 -3.64001 0.4
      vertex -0.68338 -3.58261 0.4
    endloop
  endfacet
  facet normal -0.062788 -0.998027 -0
    outer loop
      vertex 0.229004 -3.64001 0.4
      vertex -0.68338 -3.58261 0
      vertex 0.229004 -3.64001 0
    endloop
  endfacet
  facet normal 0.18739 -0.982286 0
    outer loop
      vertex 0.229004 -3.64001 0
      vertex 1.127 -3.4687 0.4
      vertex 0.229004 -3.64001 0.4
    endloop
  endfacet
  facet normal 0.18739 -0.982286 0
    outer loop
      vertex 1.127 -3.4687 0.4
      vertex 0.229004 -3.64001 0
      vertex 1.127 -3.4687 0
    endloop
  endfacet
  facet normal 0.425758 -0.904837 0
    outer loop
      vertex 1.127 -3.4687 0
      vertex 1.95427 -3.07944 0.4
      vertex 1.127 -3.4687 0.4
    endloop
  endfacet
  facet normal 0.425758 -0.904837 0
    outer loop
      vertex 1.95427 -3.07944 0.4
      vertex 1.127 -3.4687 0
      vertex 1.95427 -3.07944 0
    endloop
  endfacet
  facet normal 0.637435 -0.770504 0
    outer loop
      vertex 1.95427 -3.07944 0
      vertex 2.65871 -2.49666 0.4
      vertex 1.95427 -3.07944 0.4
    endloop
  endfacet
  facet normal 0.637435 -0.770504 0
    outer loop
      vertex 2.65871 -2.49666 0.4
      vertex 1.95427 -3.07944 0
      vertex 2.65871 -2.49666 0
    endloop
  endfacet
  facet normal 0.809017 -0.587785 0
    outer loop
      vertex 2.65871 -2.49666 0.4
      vertex 3.19606 -1.75706 0
      vertex 3.19606 -1.75706 0.4
    endloop
  endfacet
  facet normal 0.809017 -0.587785 0
    outer loop
      vertex 3.19606 -1.75706 0
      vertex 2.65871 -2.49666 0.4
      vertex 2.65871 -2.49666 0
    endloop
  endfacet
  facet normal 0.929773 -0.368133 0
    outer loop
      vertex 3.19606 -1.75706 0.4
      vertex 3.53262 -0.907028 0
      vertex 3.53262 -0.907028 0.4
    endloop
  endfacet
  facet normal 0.929773 -0.368133 0
    outer loop
      vertex 3.53262 -0.907028 0
      vertex 3.19606 -1.75706 0.4
      vertex 3.19606 -1.75706 0
    endloop
  endfacet
  facet normal 0.992101 -0.125444 0
    outer loop
      vertex 3.53262 -0.907028 0.4
      vertex 3.53983 -0.850006 0
      vertex 3.53983 -0.850006 0.4
    endloop
  endfacet
  facet normal 0.992101 -0.125444 0
    outer loop
      vertex 3.53983 -0.850006 0
      vertex 3.53262 -0.907028 0.4
      vertex 3.53262 -0.907028 0
    endloop
  endfacet
  facet normal 0 1 -0
    outer loop
      vertex 3.53983 -0.850006 0
      vertex 1.35001 -0.850006 0.4
      vertex 3.53983 -0.850006 0.4
    endloop
  endfacet
  facet normal 0 1 0
    outer loop
      vertex 1.35001 -0.850006 0.4
      vertex 3.53983 -0.850006 0
      vertex 1.35001 -0.850006 0
    endloop
  endfacet
  facet normal -1 0 0
    outer loop
      vertex 1.35001 -1.1685 0
      vertex 1.35001 -0.850006 0.4
      vertex 1.35001 -0.850006 0
    endloop
  endfacet
  facet normal -1 -0 0
    outer loop
      vertex 1.35001 -0.850006 0.4
      vertex 1.35001 -1.1685 0
      vertex 1.35001 -1.1685 0.4
    endloop
  endfacet
  facet normal -0.992094 0.125494 0
    outer loop
      vertex 1.339 -1.25554 0
      vertex 1.35001 -1.1685 0.4
      vertex 1.35001 -1.1685 0
    endloop
  endfacet
  facet normal -0.992094 0.125494 0
    outer loop
      vertex 1.35001 -1.1685 0.4
      vertex 1.339 -1.25554 0
      vertex 1.339 -1.25554 0.4
    endloop
  endfacet
  facet normal -0.92976 0.368165 0
    outer loop
      vertex 1.3067 -1.33711 0
      vertex 1.339 -1.25554 0.4
      vertex 1.339 -1.25554 0
    endloop
  endfacet
  facet normal -0.92976 0.368165 0
    outer loop
      vertex 1.339 -1.25554 0.4
      vertex 1.3067 -1.33711 0
      vertex 1.3067 -1.33711 0.4
    endloop
  endfacet
  facet normal -0.80911 0.587657 0
    outer loop
      vertex 1.25514 -1.4081 0
      vertex 1.3067 -1.33711 0.4
      vertex 1.3067 -1.33711 0
    endloop
  endfacet
  facet normal -0.80911 0.587657 0
    outer loop
      vertex 1.3067 -1.33711 0.4
      vertex 1.25514 -1.4081 0
      vertex 1.25514 -1.4081 0.4
    endloop
  endfacet
  facet normal -0.68435 0.729154 0
    outer loop
      vertex 1.25514 -1.4081 0
      vertex 1.22308 -1.43819 0.4
      vertex 1.25514 -1.4081 0.4
    endloop
  endfacet
  facet normal -0.68435 0.729154 0
    outer loop
      vertex 1.22308 -1.43819 0.4
      vertex 1.25514 -1.4081 0
      vertex 1.22308 -1.43819 0
    endloop
  endfacet
  facet normal -0.637381 0.770549 0
    outer loop
      vertex 1.22308 -1.43819 0
      vertex 1.0536 -1.57838 0.4
      vertex 1.22308 -1.43819 0.4
    endloop
  endfacet
  facet normal -0.637381 0.770549 0
    outer loop
      vertex 1.0536 -1.57838 0.4
      vertex 1.22308 -1.43819 0
      vertex 1.0536 -1.57838 0
    endloop
  endfacet
  facet normal -0.535895 0.844285 0
    outer loop
      vertex 1.0536 -1.57838 0
      vertex 0.979553 -1.62538 0.4
      vertex 1.0536 -1.57838 0.4
    endloop
  endfacet
  facet normal -0.535895 0.844285 0
    outer loop
      vertex 0.979553 -1.62538 0.4
      vertex 1.0536 -1.57838 0
      vertex 0.979553 -1.62538 0
    endloop
  endfacet
  facet normal -0.42581 0.904813 0
    outer loop
      vertex 0.979553 -1.62538 0
      vertex 0.628006 -1.79082 0.4
      vertex 0.979553 -1.62538 0.4
    endloop
  endfacet
  facet normal -0.42581 0.904813 0
    outer loop
      vertex 0.628006 -1.79082 0.4
      vertex 0.979553 -1.62538 0
      vertex 0.628006 -1.79082 0
    endloop
  endfacet
  facet normal -0.30897 0.951072 0
    outer loop
      vertex 0.628006 -1.79082 0
      vertex 0.544556 -1.81793 0.4
      vertex 0.628006 -1.79082 0.4
    endloop
  endfacet
  facet normal -0.30897 0.951072 0
    outer loop
      vertex 0.544556 -1.81793 0.4
      vertex 0.628006 -1.79082 0
      vertex 0.544556 -1.81793 0
    endloop
  endfacet
  facet normal -0.187371 0.982289 0
    outer loop
      vertex 0.544556 -1.81793 0
      vertex 0.162903 -1.89073 0.4
      vertex 0.544556 -1.81793 0.4
    endloop
  endfacet
  facet normal -0.187371 0.982289 0
    outer loop
      vertex 0.162903 -1.89073 0.4
      vertex 0.544556 -1.81793 0
      vertex 0.162903 -1.89073 0
    endloop
  endfacet
  facet normal -0.0628076 0.998026 0
    outer loop
      vertex 0.162903 -1.89073 0
      vertex 0.0753479 -1.89624 0.4
      vertex 0.162903 -1.89073 0.4
    endloop
  endfacet
  facet normal -0.0628076 0.998026 0
    outer loop
      vertex 0.0753479 -1.89624 0.4
      vertex 0.162903 -1.89073 0
      vertex 0.0753479 -1.89624 0
    endloop
  endfacet
  facet normal 0.062802 0.998026 -0
    outer loop
      vertex 0.0753479 -1.89624 0
      vertex -0.312408 -1.87184 0.4
      vertex 0.0753479 -1.89624 0.4
    endloop
  endfacet
  facet normal 0.062802 0.998026 0
    outer loop
      vertex -0.312408 -1.87184 0.4
      vertex 0.0753479 -1.89624 0
      vertex -0.312408 -1.87184 0
    endloop
  endfacet
  facet normal 0.18727 0.982308 -0
    outer loop
      vertex -0.312408 -1.87184 0
      vertex -0.39859 -1.85541 0.4
      vertex -0.312408 -1.87184 0.4
    endloop
  endfacet
  facet normal 0.18727 0.982308 0
    outer loop
      vertex -0.39859 -1.85541 0.4
      vertex -0.312408 -1.87184 0
      vertex -0.39859 -1.85541 0
    endloop
  endfacet
  facet normal 0.309005 0.95106 -0
    outer loop
      vertex -0.39859 -1.85541 0
      vertex -0.768112 -1.73535 0.4
      vertex -0.39859 -1.85541 0.4
    endloop
  endfacet
  facet normal 0.309005 0.95106 0
    outer loop
      vertex -0.768112 -1.73535 0.4
      vertex -0.39859 -1.85541 0
      vertex -0.768112 -1.73535 0
    endloop
  endfacet
  facet normal 0.425695 0.904867 -0
    outer loop
      vertex -0.768112 -1.73535 0
      vertex -0.847504 -1.698 0.4
      vertex -0.768112 -1.73535 0.4
    endloop
  endfacet
  facet normal 0.425695 0.904867 0
    outer loop
      vertex -0.847504 -1.698 0.4
      vertex -0.768112 -1.73535 0
      vertex -0.847504 -1.698 0
    endloop
  endfacet
  facet normal 0.535837 0.844321 -0
    outer loop
      vertex -0.847504 -1.698 0
      vertex -1.17555 -1.48981 0.4
      vertex -0.847504 -1.698 0.4
    endloop
  endfacet
  facet normal 0.535837 0.844321 0
    outer loop
      vertex -1.17555 -1.48981 0.4
      vertex -0.847504 -1.698 0
      vertex -1.17555 -1.48981 0
    endloop
  endfacet
  facet normal 0.637535 0.770421 -0
    outer loop
      vertex -1.17555 -1.48981 0
      vertex -1.24315 -1.43387 0.4
      vertex -1.17555 -1.48981 0.4
    endloop
  endfacet
  facet normal 0.637535 0.770421 0
    outer loop
      vertex -1.24315 -1.43387 0.4
      vertex -1.17555 -1.48981 0
      vertex -1.24315 -1.43387 0
    endloop
  endfacet
  facet normal 0.728994 0.68452 0
    outer loop
      vertex -1.24315 -1.43387 0.4
      vertex -1.50911 -1.15063 0
      vertex -1.50911 -1.15063 0.4
    endloop
  endfacet
  facet normal 0.728994 0.68452 0
    outer loop
      vertex -1.50911 -1.15063 0
      vertex -1.24315 -1.43387 0.4
      vertex -1.24315 -1.43387 0
    endloop
  endfacet
  facet normal 0.808992 0.587819 0
    outer loop
      vertex -1.50911 -1.15063 0.4
      vertex -1.56067 -1.07967 0
      vertex -1.56067 -1.07967 0.4
    endloop
  endfacet
  facet normal 0.808992 0.587819 0
    outer loop
      vertex -1.56067 -1.07967 0
      vertex -1.50911 -1.15063 0.4
      vertex -1.50911 -1.15063 0
    endloop
  endfacet
  facet normal 0.876303 0.48176 0
    outer loop
      vertex -1.56067 -1.07967 0.4
      vertex -1.74785 -0.739197 0
      vertex -1.74785 -0.739197 0.4
    endloop
  endfacet
  facet normal 0.876303 0.48176 0
    outer loop
      vertex -1.74785 -0.739197 0
      vertex -1.56067 -1.07967 0.4
      vertex -1.56067 -1.07967 0
    endloop
  endfacet
  facet normal 0.929766 0.36815 0
    outer loop
      vertex -1.74785 -0.739197 0.4
      vertex -1.78015 -0.657623 0
      vertex -1.78015 -0.657623 0.4
    endloop
  endfacet
  facet normal 0.929766 0.36815 0
    outer loop
      vertex -1.78015 -0.657623 0
      vertex -1.74785 -0.739197 0.4
      vertex -1.74785 -0.739197 0
    endloop
  endfacet
  facet normal 0.968586 0.248679 0
    outer loop
      vertex -1.78015 -0.657623 0.4
      vertex -1.87677 -0.281296 0
      vertex -1.87677 -0.281296 0.4
    endloop
  endfacet
  facet normal 0.968586 0.248679 0
    outer loop
      vertex -1.87677 -0.281296 0
      vertex -1.78015 -0.657623 0.4
      vertex -1.78015 -0.657623 0
    endloop
  endfacet
  facet normal 0.992108 0.125387 0
    outer loop
      vertex -1.87677 -0.281296 0.4
      vertex -1.88777 -0.19426 0
      vertex -1.88777 -0.19426 0.4
    endloop
  endfacet
  facet normal 0.992108 0.125387 0
    outer loop
      vertex -1.88777 -0.19426 0
      vertex -1.87677 -0.281296 0.4
      vertex -1.87677 -0.281296 0
    endloop
  endfacet
  facet normal 1 -0 0
    outer loop
      vertex -1.88777 -0.19426 0.4
      vertex -1.88777 0.19426 0
      vertex -1.88777 0.19426 0.4
    endloop
  endfacet
  facet normal 1 0 0
    outer loop
      vertex -1.88777 0.19426 0
      vertex -1.88777 -0.19426 0.4
      vertex -1.88777 -0.19426 0
    endloop
  endfacet
  facet normal 0.992108 -0.125387 0
    outer loop
      vertex -1.88777 0.19426 0.4
      vertex -1.87677 0.281296 0
      vertex -1.87677 0.281296 0.4
    endloop
  endfacet
  facet normal 0.992108 -0.125387 0
    outer loop
      vertex -1.87677 0.281296 0
      vertex -1.88777 0.19426 0.4
      vertex -1.88777 0.19426 0
    endloop
  endfacet
  facet normal 0.968586 -0.248679 0
    outer loop
      vertex -1.87677 0.281296 0.4
      vertex -1.78015 0.657623 0
      vertex -1.78015 0.657623 0.4
    endloop
  endfacet
  facet normal 0.968586 -0.248679 0
    outer loop
      vertex -1.78015 0.657623 0
      vertex -1.87677 0.281296 0.4
      vertex -1.87677 0.281296 0
    endloop
  endfacet
  facet normal 0.929766 -0.36815 0
    outer loop
      vertex -1.78015 0.657623 0.4
      vertex -1.74785 0.739197 0
      vertex -1.74785 0.739197 0.4
    endloop
  endfacet
  facet normal 0.929766 -0.36815 0
    outer loop
      vertex -1.74785 0.739197 0
      vertex -1.78015 0.657623 0.4
      vertex -1.78015 0.657623 0
    endloop
  endfacet
  facet normal 0.876303 -0.48176 0
    outer loop
      vertex -1.74785 0.739197 0.4
      vertex -1.56067 1.07967 0
      vertex -1.56067 1.07967 0.4
    endloop
  endfacet
  facet normal 0.876303 -0.48176 0
    outer loop
      vertex -1.56067 1.07967 0
      vertex -1.74785 0.739197 0.4
      vertex -1.74785 0.739197 0
    endloop
  endfacet
  facet normal 0.808992 -0.587819 0
    outer loop
      vertex -1.56067 1.07967 0.4
      vertex -1.50911 1.15063 0
      vertex -1.50911 1.15063 0.4
    endloop
  endfacet
  facet normal 0.808992 -0.587819 0
    outer loop
      vertex -1.50911 1.15063 0
      vertex -1.56067 1.07967 0.4
      vertex -1.56067 1.07967 0
    endloop
  endfacet
  facet normal 0.728994 -0.68452 0
    outer loop
      vertex -1.50911 1.15063 0.4
      vertex -1.24315 1.43387 0
      vertex -1.24315 1.43387 0.4
    endloop
  endfacet
  facet normal 0.728994 -0.68452 0
    outer loop
      vertex -1.24315 1.43387 0
      vertex -1.50911 1.15063 0.4
      vertex -1.50911 1.15063 0
    endloop
  endfacet
  facet normal 0.637535 -0.770421 0
    outer loop
      vertex -1.24315 1.43387 0
      vertex -1.17555 1.48981 0.4
      vertex -1.24315 1.43387 0.4
    endloop
  endfacet
  facet normal 0.637535 -0.770421 0
    outer loop
      vertex -1.17555 1.48981 0.4
      vertex -1.24315 1.43387 0
      vertex -1.17555 1.48981 0
    endloop
  endfacet
  facet normal 0.535837 -0.844321 0
    outer loop
      vertex -1.17555 1.48981 0
      vertex -0.847504 1.698 0.4
      vertex -1.17555 1.48981 0.4
    endloop
  endfacet
  facet normal 0.535837 -0.844321 0
    outer loop
      vertex -0.847504 1.698 0.4
      vertex -1.17555 1.48981 0
      vertex -0.847504 1.698 0
    endloop
  endfacet
  facet normal 0.425695 -0.904867 0
    outer loop
      vertex -0.847504 1.698 0
      vertex -0.768112 1.73535 0.4
      vertex -0.847504 1.698 0.4
    endloop
  endfacet
  facet normal 0.425695 -0.904867 0
    outer loop
      vertex -0.768112 1.73535 0.4
      vertex -0.847504 1.698 0
      vertex -0.768112 1.73535 0
    endloop
  endfacet
  facet normal 0.309005 -0.95106 0
    outer loop
      vertex -0.768112 1.73535 0
      vertex -0.39859 1.85541 0.4
      vertex -0.768112 1.73535 0.4
    endloop
  endfacet
  facet normal 0.309005 -0.95106 0
    outer loop
      vertex -0.39859 1.85541 0.4
      vertex -0.768112 1.73535 0
      vertex -0.39859 1.85541 0
    endloop
  endfacet
  facet normal 0.18727 -0.982308 0
    outer loop
      vertex -0.39859 1.85541 0
      vertex -0.312408 1.87184 0.4
      vertex -0.39859 1.85541 0.4
    endloop
  endfacet
  facet normal 0.18727 -0.982308 0
    outer loop
      vertex -0.312408 1.87184 0.4
      vertex -0.39859 1.85541 0
      vertex -0.312408 1.87184 0
    endloop
  endfacet
  facet normal 0.062802 -0.998026 0
    outer loop
      vertex -0.312408 1.87184 0
      vertex 0.0753479 1.89624 0.4
      vertex -0.312408 1.87184 0.4
    endloop
  endfacet
  facet normal 0.062802 -0.998026 0
    outer loop
      vertex 0.0753479 1.89624 0.4
      vertex -0.312408 1.87184 0
      vertex 0.0753479 1.89624 0
    endloop
  endfacet
  facet normal -0.0628076 -0.998026 0
    outer loop
      vertex 0.0753479 1.89624 0
      vertex 0.162903 1.89073 0.4
      vertex 0.0753479 1.89624 0.4
    endloop
  endfacet
  facet normal -0.0628076 -0.998026 -0
    outer loop
      vertex 0.162903 1.89073 0.4
      vertex 0.0753479 1.89624 0
      vertex 0.162903 1.89073 0
    endloop
  endfacet
  facet normal -0.187371 -0.982289 0
    outer loop
      vertex 0.162903 1.89073 0
      vertex 0.544556 1.81793 0.4
      vertex 0.162903 1.89073 0.4
    endloop
  endfacet
  facet normal -0.187371 -0.982289 -0
    outer loop
      vertex 0.544556 1.81793 0.4
      vertex 0.162903 1.89073 0
      vertex 0.544556 1.81793 0
    endloop
  endfacet
  facet normal -0.30897 -0.951072 0
    outer loop
      vertex 0.544556 1.81793 0
      vertex 0.628006 1.79082 0.4
      vertex 0.544556 1.81793 0.4
    endloop
  endfacet
  facet normal -0.30897 -0.951072 -0
    outer loop
      vertex 0.628006 1.79082 0.4
      vertex 0.544556 1.81793 0
      vertex 0.628006 1.79082 0
    endloop
  endfacet
  facet normal -0.42581 -0.904813 0
    outer loop
      vertex 0.628006 1.79082 0
      vertex 0.979553 1.62538 0.4
      vertex 0.628006 1.79082 0.4
    endloop
  endfacet
  facet normal -0.42581 -0.904813 -0
    outer loop
      vertex 0.979553 1.62538 0.4
      vertex 0.628006 1.79082 0
      vertex 0.979553 1.62538 0
    endloop
  endfacet
  facet normal -0.535895 -0.844285 0
    outer loop
      vertex 0.979553 1.62538 0
      vertex 1.0536 1.57838 0.4
      vertex 0.979553 1.62538 0.4
    endloop
  endfacet
  facet normal -0.535895 -0.844285 -0
    outer loop
      vertex 1.0536 1.57838 0.4
      vertex 0.979553 1.62538 0
      vertex 1.0536 1.57838 0
    endloop
  endfacet
  facet normal -0.637381 -0.770549 0
    outer loop
      vertex 1.0536 1.57838 0
      vertex 1.22308 1.43819 0.4
      vertex 1.0536 1.57838 0.4
    endloop
  endfacet
  facet normal -0.637381 -0.770549 -0
    outer loop
      vertex 1.22308 1.43819 0.4
      vertex 1.0536 1.57838 0
      vertex 1.22308 1.43819 0
    endloop
  endfacet
  facet normal -0.728815 -0.68471 0
    outer loop
      vertex 1.28316 1.37424 0
      vertex 1.22308 1.43819 0.4
      vertex 1.22308 1.43819 0
    endloop
  endfacet
  facet normal -0.728815 -0.68471 0
    outer loop
      vertex 1.22308 1.43819 0.4
      vertex 1.28316 1.37424 0
      vertex 1.28316 1.37424 0.4
    endloop
  endfacet
  facet normal -0.876358 -0.481661 0
    outer loop
      vertex 1.32542 1.29735 0
      vertex 1.28316 1.37424 0.4
      vertex 1.28316 1.37424 0
    endloop
  endfacet
  facet normal -0.876358 -0.481661 0
    outer loop
      vertex 1.28316 1.37424 0.4
      vertex 1.32542 1.29735 0
      vertex 1.32542 1.29735 0.4
    endloop
  endfacet
  facet normal -0.968581 -0.248699 0
    outer loop
      vertex 1.34724 1.21237 0
      vertex 1.32542 1.29735 0.4
      vertex 1.32542 1.29735 0
    endloop
  endfacet
  facet normal -0.968581 -0.248699 0
    outer loop
      vertex 1.32542 1.29735 0.4
      vertex 1.34724 1.21237 0
      vertex 1.34724 1.21237 0.4
    endloop
  endfacet
  facet normal -0.998013 -0.0630156 0
    outer loop
      vertex 1.35001 1.1685 0
      vertex 1.34724 1.21237 0.4
      vertex 1.34724 1.21237 0
    endloop
  endfacet
  facet normal -0.998013 -0.0630156 0
    outer loop
      vertex 1.34724 1.21237 0.4
      vertex 1.35001 1.1685 0
      vertex 1.35001 1.1685 0.4
    endloop
  endfacet
  facet normal -1 0 0
    outer loop
      vertex 1.35001 0.850006 0
      vertex 1.35001 1.1685 0.4
      vertex 1.35001 1.1685 0
    endloop
  endfacet
  facet normal -1 -0 0
    outer loop
      vertex 1.35001 1.1685 0.4
      vertex 1.35001 0.850006 0
      vertex 1.35001 0.850006 0.4
    endloop
  endfacet
  facet normal 0 -1 0
    outer loop
      vertex 1.35001 0.850006 0
      vertex 3.53983 0.850006 0.4
      vertex 1.35001 0.850006 0.4
    endloop
  endfacet
  facet normal 0 -1 -0
    outer loop
      vertex 3.53983 0.850006 0.4
      vertex 1.35001 0.850006 0
      vertex 3.53983 0.850006 0
    endloop
  endfacet
  facet normal 0.992101 0.125444 0
    outer loop
      vertex 3.53983 0.850006 0.4
      vertex 3.53262 0.907028 0
      vertex 3.53262 0.907028 0.4
    endloop
  endfacet
  facet normal 0.992101 0.125444 0
    outer loop
      vertex 3.53262 0.907028 0
      vertex 3.53983 0.850006 0.4
      vertex 3.53983 0.850006 0
    endloop
  endfacet
  facet normal 0.929773 0.368133 0
    outer loop
      vertex 3.53262 0.907028 0.4
      vertex 3.19606 1.75706 0
      vertex 3.19606 1.75706 0.4
    endloop
  endfacet
  facet normal 0.929773 0.368133 0
    outer loop
      vertex 3.19606 1.75706 0
      vertex 3.53262 0.907028 0.4
      vertex 3.53262 0.907028 0
    endloop
  endfacet
  facet normal 0.809017 0.587785 0
    outer loop
      vertex 3.19606 1.75706 0.4
      vertex 2.65871 2.49666 0
      vertex 2.65871 2.49666 0.4
    endloop
  endfacet
  facet normal 0.809017 0.587785 0
    outer loop
      vertex 2.65871 2.49666 0
      vertex 3.19606 1.75706 0.4
      vertex 3.19606 1.75706 0
    endloop
  endfacet
  facet normal 0.637435 0.770504 -0
    outer loop
      vertex 2.65871 2.49666 0
      vertex 1.95427 3.07944 0.4
      vertex 2.65871 2.49666 0.4
    endloop
  endfacet
  facet normal 0.637435 0.770504 0
    outer loop
      vertex 1.95427 3.07944 0.4
      vertex 2.65871 2.49666 0
      vertex 1.95427 3.07944 0
    endloop
  endfacet
  facet normal 0.425758 0.904837 -0
    outer loop
      vertex 1.95427 3.07944 0
      vertex 1.127 3.4687 0.4
      vertex 1.95427 3.07944 0.4
    endloop
  endfacet
  facet normal 0.425758 0.904837 0
    outer loop
      vertex 1.127 3.4687 0.4
      vertex 1.95427 3.07944 0
      vertex 1.127 3.4687 0
    endloop
  endfacet
  facet normal 0.18739 0.982286 -0
    outer loop
      vertex 1.127 3.4687 0
      vertex 0.229004 3.64001 0.4
      vertex 1.127 3.4687 0.4
    endloop
  endfacet
  facet normal 0.18739 0.982286 0
    outer loop
      vertex 0.229004 3.64001 0.4
      vertex 1.127 3.4687 0
      vertex 0.229004 3.64001 0
    endloop
  endfacet
  facet normal -0.062788 0.998027 0
    outer loop
      vertex 0.229004 3.64001 0
      vertex -0.68338 3.58261 0.4
      vertex 0.229004 3.64001 0.4
    endloop
  endfacet
  facet normal -0.062788 0.998027 0
    outer loop
      vertex -0.68338 3.58261 0.4
      vertex 0.229004 3.64001 0
      vertex -0.68338 3.58261 0
    endloop
  endfacet
  facet normal -0.309016 0.951057 0
    outer loop
      vertex -0.68338 3.58261 0
      vertex -1.55292 3.30008 0.4
      vertex -0.68338 3.58261 0.4
    endloop
  endfacet
  facet normal -0.309016 0.951057 0
    outer loop
      vertex -1.55292 3.30008 0.4
      vertex -0.68338 3.58261 0
      vertex -1.55292 3.30008 0
    endloop
  endfacet
  facet normal -0.535821 0.844332 0
    outer loop
      vertex -1.55292 3.30008 0
      vertex -2.21246 2.88153 0.4
      vertex -1.55292 3.30008 0.4
    endloop
  endfacet
  facet normal -0.535821 0.844332 0
    outer loop
      vertex -2.21246 2.88153 0.4
      vertex -1.55292 3.30008 0
      vertex -2.21246 2.88153 0
    endloop
  endfacet
  facet normal -0.425748 0.904842 0
    outer loop
      vertex -2.21246 2.88153 0
      vertex -2.29184 2.84418 0.4
      vertex -2.21246 2.88153 0.4
    endloop
  endfacet
  facet normal -0.425748 0.904842 0
    outer loop
      vertex -2.29184 2.84418 0.4
      vertex -2.21246 2.88153 0
      vertex -2.29184 2.84418 0
    endloop
  endfacet
  facet normal -0.187384 0.982287 0
    outer loop
      vertex -2.29184 2.84418 0
      vertex -2.37802 2.82774 0.4
      vertex -2.29184 2.84418 0.4
    endloop
  endfacet
  facet normal -0.187384 0.982287 0
    outer loop
      vertex -2.37802 2.82774 0.4
      vertex -2.29184 2.84418 0
      vertex -2.37802 2.82774 0
    endloop
  endfacet
  facet normal 0.062804 0.998026 -0
    outer loop
      vertex -2.37802 2.82774 0
      vertex -2.46558 2.83325 0.4
      vertex -2.37802 2.82774 0.4
    endloop
  endfacet
  facet normal 0.062804 0.998026 0
    outer loop
      vertex -2.46558 2.83325 0.4
      vertex -2.37802 2.82774 0
      vertex -2.46558 2.83325 0
    endloop
  endfacet
  facet normal 0.309073 0.951038 -0
    outer loop
      vertex -2.46558 2.83325 0
      vertex -2.54903 2.86037 0.4
      vertex -2.46558 2.83325 0.4
    endloop
  endfacet
  facet normal 0.309073 0.951038 0
    outer loop
      vertex -2.54903 2.86037 0.4
      vertex -2.46558 2.83325 0
      vertex -2.54903 2.86037 0
    endloop
  endfacet
  facet normal 0.535746 0.844379 -0
    outer loop
      vertex -2.54903 2.86037 0
      vertex -2.62309 2.90736 0.4
      vertex -2.54903 2.86037 0.4
    endloop
  endfacet
  facet normal 0.535746 0.844379 0
    outer loop
      vertex -2.62309 2.90736 0.4
      vertex -2.54903 2.86037 0
      vertex -2.62309 2.90736 0
    endloop
  endfacet
  facet normal 0.729036 0.684475 0
    outer loop
      vertex -2.62309 2.90736 0.4
      vertex -2.68315 2.97133 0
      vertex -2.68315 2.97133 0.4
    endloop
  endfacet
  facet normal 0.729036 0.684475 0
    outer loop
      vertex -2.68315 2.97133 0
      vertex -2.62309 2.90736 0.4
      vertex -2.62309 2.90736 0
    endloop
  endfacet
  facet normal 0.876257 0.481844 0
    outer loop
      vertex -2.68315 2.97133 0.4
      vertex -2.72542 3.0482 0
      vertex -2.72542 3.0482 0.4
    endloop
  endfacet
  facet normal 0.876257 0.481844 0
    outer loop
      vertex -2.72542 3.0482 0
      vertex -2.68315 2.97133 0.4
      vertex -2.68315 2.97133 0
    endloop
  endfacet
  facet normal 0.982286 0.187385 0
    outer loop
      vertex -2.72542 3.0482 0.4
      vertex -2.75 3.17705 0
      vertex -2.75 3.17705 0.4
    endloop
  endfacet
  facet normal 0.982286 0.187385 0
    outer loop
      vertex -2.75 3.17705 0
      vertex -2.72542 3.0482 0.4
      vertex -2.72542 3.0482 0
    endloop
  endfacet
  facet normal 1 -0 0
    outer loop
      vertex -2.75 3.17705 0.4
      vertex -2.75 3.71542 0
      vertex -2.75 3.71542 0.4
    endloop
  endfacet
  facet normal 1 0 0
    outer loop
      vertex -2.75 3.71542 0
      vertex -2.75 3.17705 0.4
      vertex -2.75 3.17705 0
    endloop
  endfacet
  facet normal -0.535833 0.844324 0
    outer loop
      vertex -2.75 3.71542 0
      vertex -2.96225 3.58072 0.4
      vertex -2.75 3.71542 0.4
    endloop
  endfacet
  facet normal -0.535833 0.844324 0
    outer loop
      vertex -2.96225 3.58072 0.4
      vertex -2.75 3.71542 0
      vertex -2.96225 3.58072 0
    endloop
  endfacet
  facet normal -0.728974 0.684542 0
    outer loop
      vertex -3.75969 2.73152 0
      vertex -2.96225 3.58072 0.4
      vertex -2.96225 3.58072 0
    endloop
  endfacet
  facet normal -0.728974 0.684542 0
    outer loop
      vertex -2.96225 3.58072 0.4
      vertex -3.75969 2.73152 0
      vertex -3.75969 2.73152 0.4
    endloop
  endfacet
  facet normal -0.876304 0.481759 0
    outer loop
      vertex -4.32086 1.71077 0
      vertex -3.75969 2.73152 0.4
      vertex -3.75969 2.73152 0
    endloop
  endfacet
  facet normal -0.876304 0.481759 0
    outer loop
      vertex -3.75969 2.73152 0.4
      vertex -4.32086 1.71077 0
      vertex -4.32086 1.71077 0.4
    endloop
  endfacet
  facet normal -0.968581 0.2487 0
    outer loop
      vertex -4.61057 0.582474 0
      vertex -4.32086 1.71077 0.4
      vertex -4.32086 1.71077 0
    endloop
  endfacet
  facet normal -0.968581 0.2487 0
    outer loop
      vertex -4.32086 1.71077 0.4
      vertex -4.61057 0.582474 0
      vertex -4.61057 0.582474 0.4
    endloop
  endfacet
  facet normal -1 0 0
    outer loop
      vertex -4.61057 -0.582474 0
      vertex -4.61057 0.582474 0.4
      vertex -4.61057 0.582474 0
    endloop
  endfacet
  facet normal -1 -0 0
    outer loop
      vertex -4.61057 0.582474 0.4
      vertex -4.61057 -0.582474 0
      vertex -4.61057 -0.582474 0.4
    endloop
  endfacet
  facet normal -0.968581 -0.2487 0
    outer loop
      vertex -4.32086 -1.71077 0
      vertex -4.61057 -0.582474 0.4
      vertex -4.61057 -0.582474 0
    endloop
  endfacet
  facet normal -0.968581 -0.2487 0
    outer loop
      vertex -4.61057 -0.582474 0.4
      vertex -4.32086 -1.71077 0
      vertex -4.32086 -1.71077 0.4
    endloop
  endfacet
  facet normal -0.876304 -0.481759 0
    outer loop
      vertex -3.75969 -2.73152 0
      vertex -4.32086 -1.71077 0.4
      vertex -4.32086 -1.71077 0
    endloop
  endfacet
  facet normal -0.876304 -0.481759 0
    outer loop
      vertex -4.32086 -1.71077 0.4
      vertex -3.75969 -2.73152 0
      vertex -3.75969 -2.73152 0.4
    endloop
  endfacet
  facet normal -0.728974 -0.684542 0
    outer loop
      vertex -2.96225 -3.58072 0
      vertex -3.75969 -2.73152 0.4
      vertex -3.75969 -2.73152 0
    endloop
  endfacet
  facet normal -0.728974 -0.684542 0
    outer loop
      vertex -3.75969 -2.73152 0.4
      vertex -2.96225 -3.58072 0
      vertex -2.96225 -3.58072 0.4
    endloop
  endfacet
  facet normal -0.535833 -0.844324 0
    outer loop
      vertex -2.96225 -3.58072 0
      vertex -2.75 -3.71542 0.4
      vertex -2.96225 -3.58072 0.4
    endloop
  endfacet
  facet normal -0.535833 -0.844324 -0
    outer loop
      vertex -2.75 -3.71542 0.4
      vertex -2.96225 -3.58072 0
      vertex -2.75 -3.71542 0
    endloop
  endfacet
  facet normal 1 -0 0
    outer loop
      vertex -2.75 -3.71542 0.4
      vertex -2.75 -3.17705 0
      vertex -2.75 -3.17705 0.4
    endloop
  endfacet
  facet normal 1 0 0
    outer loop
      vertex -2.75 -3.17705 0
      vertex -2.75 -3.71542 0.4
      vertex -2.75 -3.71542 0
    endloop
  endfacet
endsolid OpenSCAD_Model
