<?xml version="1.0" standalone="no"?>
<!DOCTYPE svg PUBLIC "-//W3C//DTD SVG 1.1//EN" "http://www.w3.org/Graphics/SVG/1.1/DTD/svg11.dtd">
<svg width="42mm" height="42mm" viewBox="-21 -21 42 42" xmlns="http://www.w3.org/2000/svg" version="1.1">
<title>OpenSCAD Model</title>
<path d="
M 1.31859,20.9586 L 3.935,20.628 L 6.48935,19.9722 L 8.94136,19.0014 L 11.2523,17.7309 L 13.3859,16.1808
 L 15.3083,14.3755 L 16.9893,12.3435 L 18.4024,10.1168 L 19.5253,7.73061 L 20.3402,5.22247 L 20.8344,2.63199
 L 21,-0 L 20.8344,-2.63199 L 20.3402,-5.22247 L 19.5253,-7.73061 L 18.4024,-10.1168 L 16.9893,-12.3435
 L 15.3083,-14.3755 L 13.3859,-16.1808 L 11.2523,-17.7309 L 8.94136,-19.0014 L 6.48935,-19.9722 L 3.935,-20.628
 L 1.31859,-20.9586 L -1.31859,-20.9586 L -3.935,-20.628 L -6.48935,-19.9722 L -8.94136,-19.0014 L -11.2523,-17.7309
 L -13.3859,-16.1808 L -15.3083,-14.3755 L -16.9893,-12.3435 L -18.4024,-10.1168 L -19.5253,-7.73061 L -20.3402,-5.22247
 L -20.8344,-2.63199 L -21,-0 L -20.8344,2.63199 L -20.3402,5.22247 L -19.5253,7.73061 L -18.4024,10.1168
 L -16.9893,12.3435 L -15.3083,14.3755 L -13.3859,16.1808 L -11.2523,17.7309 L -8.94136,19.0014 L -6.48935,19.9722
 L -3.935,20.628 L -1.31859,20.9586 z
M -0.18837,-12.0059 L -0.562134,-12.0531 L -0.927048,-12.1468 L -1.27733,-12.2855 L -1.60747,-12.467 L -1.91226,-12.6884
 L -2.1869,-12.9464 L -2.42705,-13.2366 L -2.62891,-13.5547 L -2.78932,-13.8956 L -2.90575,-14.2539 L -2.97633,-14.624
 L -3,-15 L -2.97633,-15.376 L -2.90575,-15.7461 L -2.78932,-16.1044 L -2.62891,-16.4453 L -2.42705,-16.7634
 L -2.1869,-17.0536 L -1.91226,-17.3115 L -1.60747,-17.533 L -1.27733,-17.7145 L -0.927048,-17.8532 L -0.562134,-17.9469
 L -0.18837,-17.9941 L 0.18837,-17.9941 L 0.562134,-17.9469 L 0.927048,-17.8532 L 1.27733,-17.7145 L 1.60747,-17.533
 L 1.91226,-17.3115 L 2.1869,-17.0536 L 2.42705,-16.7634 L 2.62891,-16.4453 L 2.78932,-16.1044 L 2.90575,-15.7461
 L 2.97633,-15.376 L 3,-15 L 2.97633,-14.624 L 2.90575,-14.2539 L 2.78932,-13.8956 L 2.62891,-13.5547
 L 2.42705,-13.2366 L 2.1869,-12.9464 L 1.91226,-12.6884 L 1.60747,-12.467 L 1.27733,-12.2855 L 0.927048,-12.1468
 L 0.562134,-12.0531 L 0.18837,-12.0059 z
M -11.0759,-7.64352 L -11.4436,-7.72571 L -11.798,-7.85333 L -12.1337,-8.02437 L -12.4453,-8.23613 L -12.7279,-8.48528
 L -12.9771,-8.76787 L -13.1888,-9.07947 L -13.3599,-9.41515 L -13.4875,-9.76962 L -13.5697,-10.1373 L -13.6051,-10.5124
 L -13.5933,-10.8889 L -13.5343,-11.261 L -13.4292,-11.6228 L -13.2796,-11.9686 L -13.0878,-12.2928 L -12.8569,-12.5905
 L -12.5905,-12.8569 L -12.2928,-13.0878 L -11.9686,-13.2796 L -11.6228,-13.4292 L -11.261,-13.5343 L -10.8889,-13.5933
 L -10.5124,-13.6051 L -10.1373,-13.5697 L -9.76962,-13.4875 L -9.41515,-13.3599 L -9.07947,-13.1888 L -8.76787,-12.9771
 L -8.48528,-12.7279 L -8.23613,-12.4453 L -8.02437,-12.1337 L -7.85333,-11.798 L -7.72571,-11.4436 L -7.64352,-11.0759
 L -7.60808,-10.7008 L -7.6199,-10.3243 L -7.67885,-9.95216 L -7.78395,-9.59038 L -7.93358,-9.24463 L -8.12535,-8.92035
 L -8.35626,-8.62267 L -8.62267,-8.35626 L -8.92035,-8.12535 L -9.24463,-7.93358 L -9.59038,-7.78395 L -9.95216,-7.67885
 L -10.3243,-7.6199 L -10.7008,-7.60808 z
M 10.1373,-7.64352 L 9.76962,-7.72571 L 9.41515,-7.85333 L 9.07947,-8.02437 L 8.76787,-8.23613 L 8.48528,-8.48528
 L 8.23613,-8.76787 L 8.02437,-9.07947 L 7.85333,-9.41515 L 7.72571,-9.76962 L 7.64352,-10.1373 L 7.60808,-10.5124
 L 7.6199,-10.8889 L 7.67885,-11.261 L 7.78395,-11.6228 L 7.93358,-11.9686 L 8.12535,-12.2928 L 8.35626,-12.5905
 L 8.62267,-12.8569 L 8.92035,-13.0878 L 9.24463,-13.2796 L 9.59038,-13.4292 L 9.95216,-13.5343 L 10.3243,-13.5933
 L 10.7008,-13.6051 L 11.0759,-13.5697 L 11.4436,-13.4875 L 11.798,-13.3599 L 12.1337,-13.1888 L 12.4453,-12.9771
 L 12.7279,-12.7279 L 12.9771,-12.4453 L 13.1888,-12.1337 L 13.3599,-11.798 L 13.4875,-11.4436 L 13.5697,-11.0759
 L 13.6051,-10.7008 L 13.5933,-10.3243 L 13.5343,-9.95216 L 13.4292,-9.59038 L 13.2796,-9.24463 L 13.0878,-8.92035
 L 12.8569,-8.62267 L 12.5905,-8.35626 L 12.2928,-8.12535 L 11.9686,-7.93358 L 11.6228,-7.78395 L 11.261,-7.67885
 L 10.8889,-7.6199 L 10.5124,-7.60808 z
M -0.31395,4.99013 L -0.936905,4.91142 L -1.54507,4.75528 L -2.12889,4.52412 L -2.39999,4.37509 L -2.39999,3.19081
 L -2.1433,3.3773 L -1.70311,3.61929 L -1.23605,3.80421 L -0.749512,3.92914 L -0.25116,3.9921 L 0.25116,3.9921
 L 0.749512,3.92914 L 1.23605,3.80421 L 1.70311,3.61929 L 2.1433,3.3773 L 2.54968,3.08205 L 2.91586,2.73817
 L 3.23605,2.35114 L 3.50522,1.927 L 3.7191,1.47249 L 3.87433,0.994751 L 3.96844,0.501328 L 3.96854,0.5
 L 1,0.5 L 1,1.18303 L 0.988007,1.19429 L 0.830521,1.3087 L 0.659958,1.40248 L 0.478973,1.47414
 L 0.290436,1.52254 L 0.0973206,1.54694 L -0.0973206,1.54694 L -0.290436,1.52254 L -0.478973,1.47414 L -0.659958,1.40248
 L -0.830521,1.3087 L -0.988007,1.19429 L -1.1299,1.06104 L -1.25397,0.911057 L -1.35826,0.746704 L -1.44115,0.570587
 L -1.5013,0.385468 L -1.53777,0.19426 L -1.54999,-0 L -1.53777,-0.19426 L -1.5013,-0.385468 L -1.44115,-0.570587
 L -1.35826,-0.746704 L -1.25397,-0.911057 L -1.1299,-1.06104 L -0.988007,-1.19429 L -0.830521,-1.3087 L -0.659958,-1.40248
 L -0.478973,-1.47414 L -0.290436,-1.52254 L -0.0973206,-1.54694 L 0.0973206,-1.54694 L 0.290436,-1.52254 L 0.478973,-1.47414
 L 0.659958,-1.40248 L 0.830521,-1.3087 L 0.988007,-1.19429 L 1,-1.18303 L 1,-0.5 L 3.96854,-0.5
 L 3.96844,-0.501328 L 3.87433,-0.994751 L 3.7191,-1.47249 L 3.50522,-1.927 L 3.23605,-2.35114 L 2.91586,-2.73817
 L 2.54968,-3.08205 L 2.1433,-3.3773 L 1.70311,-3.61929 L 1.23605,-3.80421 L 0.749512,-3.92914 L 0.25116,-3.9921
 L -0.25116,-3.9921 L -0.749512,-3.92914 L -1.23605,-3.80421 L -1.70311,-3.61929 L -2.1433,-3.3773 L -2.39999,-3.19081
 L -2.39999,-4.37509 L -2.12889,-4.52412 L -1.54507,-4.75528 L -0.936905,-4.91142 L -0.31395,-4.99013 L 0.31395,-4.99013
 L 0.936905,-4.91142 L 1.54507,-4.75528 L 2.12889,-4.52412 L 2.67912,-4.22163 L 3.18712,-3.85255 L 3.64484,-3.42273
 L 4.04507,-2.93892 L 4.38153,-2.40877 L 4.64888,-1.84062 L 4.84291,-1.24344 L 4.96057,-0.626663 L 4.96854,-0.5
 L 5,-0.5 L 5,0.5 L 4.96854,0.5 L 4.96057,0.626663 L 4.84291,1.24344 L 4.64888,1.84062
 L 4.38153,2.40877 L 4.04507,2.93892 L 3.64484,3.42273 L 3.18712,3.85255 L 2.67912,4.22163 L 2.12889,4.52412
 L 1.54507,4.75528 L 0.936905,4.91142 L 0.31395,4.99013 z
M 14.8116,2.99408 L 14.4379,2.94685 L 14.0729,2.85316 L 13.7227,2.71448 L 13.3925,2.53297 L 13.0877,2.31154
 L 12.8131,2.05363 L 12.5729,1.76335 L 12.3711,1.44525 L 12.2107,1.10437 L 12.0942,0.746063 L 12.0237,0.375992
 L 12,-0 L 12.0237,-0.375992 L 12.0942,-0.746063 L 12.2107,-1.10437 L 12.3711,-1.44525 L 12.5729,-1.76335
 L 12.8131,-2.05363 L 13.0877,-2.31154 L 13.3925,-2.53297 L 13.7227,-2.71448 L 14.0729,-2.85316 L 14.4379,-2.94685
 L 14.8116,-2.99408 L 15.1884,-2.99408 L 15.5621,-2.94685 L 15.927,-2.85316 L 16.2773,-2.71448 L 16.6075,-2.53297
 L 16.9123,-2.31154 L 17.1869,-2.05363 L 17.427,-1.76335 L 17.6289,-1.44525 L 17.7893,-1.10437 L 17.9057,-0.746063
 L 17.9763,-0.375992 L 18,-0 L 17.9763,0.375992 L 17.9057,0.746063 L 17.7893,1.10437 L 17.6289,1.44525
 L 17.427,1.76335 L 17.1869,2.05363 L 16.9123,2.31154 L 16.6075,2.53297 L 16.2773,2.71448 L 15.927,2.85316
 L 15.5621,2.94685 L 15.1884,2.99408 z
M -15.1884,2.99408 L -15.5621,2.94685 L -15.927,2.85316 L -16.2773,2.71448 L -16.6075,2.53297 L -16.9123,2.31154
 L -17.1869,2.05363 L -17.427,1.76335 L -17.6289,1.44525 L -17.7893,1.10437 L -17.9057,0.746063 L -17.9763,0.375992
 L -18,-0 L -17.9763,-0.375992 L -17.9057,-0.746063 L -17.7893,-1.10437 L -17.6289,-1.44525 L -17.427,-1.76335
 L -17.1869,-2.05363 L -16.9123,-2.31154 L -16.6075,-2.53297 L -16.2773,-2.71448 L -15.927,-2.85316 L -15.5621,-2.94685
 L -15.1884,-2.99408 L -14.8116,-2.99408 L -14.4379,-2.94685 L -14.0729,-2.85316 L -13.7227,-2.71448 L -13.3925,-2.53297
 L -13.0877,-2.31154 L -12.8131,-2.05363 L -12.5729,-1.76335 L -12.3711,-1.44525 L -12.2107,-1.10437 L -12.0942,-0.746063
 L -12.0237,-0.375992 L -12,-0 L -12.0237,0.375992 L -12.0942,0.746063 L -12.2107,1.10437 L -12.3711,1.44525
 L -12.5729,1.76335 L -12.8131,2.05363 L -13.0877,2.31154 L -13.3925,2.53297 L -13.7227,2.71448 L -14.0729,2.85316
 L -14.4379,2.94685 L -14.8116,2.99408 z
M 10.1373,13.5697 L 9.76962,13.4875 L 9.41515,13.3599 L 9.07947,13.1888 L 8.76787,12.9771 L 8.48528,12.7279
 L 8.23613,12.4453 L 8.02437,12.1337 L 7.85333,11.798 L 7.72571,11.4436 L 7.64352,11.0759 L 7.60808,10.7008
 L 7.6199,10.3243 L 7.67885,9.95216 L 7.78395,9.59038 L 7.93358,9.24463 L 8.12535,8.92035 L 8.35626,8.62267
 L 8.62267,8.35626 L 8.92035,8.12535 L 9.24463,7.93358 L 9.59038,7.78395 L 9.95216,7.67885 L 10.3243,7.6199
 L 10.7008,7.60808 L 11.0759,7.64352 L 11.4436,7.72571 L 11.798,7.85333 L 12.1337,8.02437 L 12.4453,8.23613
 L 12.7279,8.48528 L 12.9771,8.76787 L 13.1888,9.07947 L 13.3599,9.41515 L 13.4875,9.76962 L 13.5697,10.1373
 L 13.6051,10.5124 L 13.5933,10.8889 L 13.5343,11.261 L 13.4292,11.6228 L 13.2796,11.9686 L 13.0878,12.2928
 L 12.8569,12.5905 L 12.5905,12.8569 L 12.2928,13.0878 L 11.9686,13.2796 L 11.6228,13.4292 L 11.261,13.5343
 L 10.8889,13.5933 L 10.5124,13.6051 z
M -11.0759,13.5697 L -11.4436,13.4875 L -11.798,13.3599 L -12.1337,13.1888 L -12.4453,12.9771 L -12.7279,12.7279
 L -12.9771,12.4453 L -13.1888,12.1337 L -13.3599,11.798 L -13.4875,11.4436 L -13.5697,11.0759 L -13.6051,10.7008
 L -13.5933,10.3243 L -13.5343,9.95216 L -13.4292,9.59038 L -13.2796,9.24463 L -13.0878,8.92035 L -12.8569,8.62267
 L -12.5905,8.35626 L -12.2928,8.12535 L -11.9686,7.93358 L -11.6228,7.78395 L -11.261,7.67885 L -10.8889,7.6199
 L -10.5124,7.60808 L -10.1373,7.64352 L -9.76962,7.72571 L -9.41515,7.85333 L -9.07947,8.02437 L -8.76787,8.23613
 L -8.48528,8.48528 L -8.23613,8.76787 L -8.02437,9.07947 L -7.85333,9.41515 L -7.72571,9.76962 L -7.64352,10.1373
 L -7.60808,10.5124 L -7.6199,10.8889 L -7.67885,11.261 L -7.78395,11.6228 L -7.93358,11.9686 L -8.12535,12.2928
 L -8.35626,12.5905 L -8.62267,12.8569 L -8.92035,13.0878 L -9.24463,13.2796 L -9.59038,13.4292 L -9.95216,13.5343
 L -10.3243,13.5933 L -10.7008,13.6051 z
M -0.18837,17.9941 L -0.562134,17.9469 L -0.927048,17.8532 L -1.27733,17.7145 L -1.60747,17.533 L -1.91226,17.3115
 L -2.1869,17.0536 L -2.42705,16.7634 L -2.62891,16.4453 L -2.78932,16.1044 L -2.90575,15.7461 L -2.97633,15.376
 L -3,15 L -2.97633,14.624 L -2.90575,14.2539 L -2.78932,13.8956 L -2.62891,13.5547 L -2.42705,13.2366
 L -2.1869,12.9464 L -1.91226,12.6884 L -1.60747,12.467 L -1.27733,12.2855 L -0.927048,12.1468 L -0.562134,12.0531
 L -0.18837,12.0059 L 0.18837,12.0059 L 0.562134,12.0531 L 0.927048,12.1468 L 1.27733,12.2855 L 1.60747,12.467
 L 1.91226,12.6884 L 2.1869,12.9464 L 2.42705,13.2366 L 2.62891,13.5547 L 2.78932,13.8956 L 2.90575,14.2539
 L 2.97633,14.624 L 3,15 L 2.97633,15.376 L 2.90575,15.7461 L 2.78932,16.1044 L 2.62891,16.4453
 L 2.42705,16.7634 L 2.1869,17.0536 L 1.91226,17.3115 L 1.60747,17.533 L 1.27733,17.7145 L 0.927048,17.8532
 L 0.562134,17.9469 L 0.18837,17.9941 z
" stroke="black" fill="lightgray" stroke-width="0.5"/>
</svg>
