  0
SECTION
  2
BLOCKS
  0
ENDSEC
  0
SECTION
  2
ENTITIES
  0
LINE
  8
0
 10
76
 20
9.00986
 11
76.3139
 21
9.00986
  0
LINE
  8
0
 10
76.3139
 20
9.00986
 11
76.9369
 21
9.08856
  0
LINE
  8
0
 10
76.9369
 20
9.08856
 11
77.5451
 21
9.24471
  0
LINE
  8
0
 10
77.5451
 20
9.24471
 11
78.1289
 21
9.47586
  0
LINE
  8
0
 10
78.1289
 20
9.47586
 11
78.6791
 21
9.77835
  0
LINE
  8
0
 10
78.6791
 20
9.77835
 11
79.1871
 21
10.1474
  0
LINE
  8
0
 10
79.1871
 20
10.1474
 11
79.6448
 21
10.5773
  0
LINE
  8
0
 10
79.6448
 20
10.5773
 11
80.0451
 21
11.0611
  0
LINE
  8
0
 10
80.0451
 20
11.0611
 11
80.3815
 21
11.5912
  0
LINE
  8
0
 10
80.3815
 20
11.5912
 11
80.6489
 21
12.1594
  0
LINE
  8
0
 10
80.6489
 20
12.1594
 11
80.8429
 21
12.7565
  0
LINE
  8
0
 10
80.8429
 20
12.7565
 11
80.9606
 21
13.3733
  0
LINE
  8
0
 10
80.9606
 20
13.3733
 11
81
 21
14
  0
LINE
  8
0
 10
81
 20
14
 11
81
 21
16
  0
LINE
  8
0
 10
81
 20
16
 11
80.9606
 21
16.6267
  0
LINE
  8
0
 10
80.9606
 20
16.6267
 11
80.8429
 21
17.2434
  0
LINE
  8
0
 10
80.8429
 20
17.2434
 11
80.6489
 21
17.8406
  0
LINE
  8
0
 10
80.6489
 20
17.8406
 11
80.3815
 21
18.4088
  0
LINE
  8
0
 10
80.3815
 20
18.4088
 11
80.0451
 21
18.9389
  0
LINE
  8
0
 10
80.0451
 20
18.9389
 11
79.6448
 21
19.4227
  0
LINE
  8
0
 10
79.6448
 20
19.4227
 11
79.1871
 21
19.8526
  0
LINE
  8
0
 10
79.1871
 20
19.8526
 11
78.6791
 21
20.2216
  0
LINE
  8
0
 10
78.6791
 20
20.2216
 11
78.1289
 21
20.5241
  0
LINE
  8
0
 10
78.1289
 20
20.5241
 11
77.5451
 21
20.7553
  0
LINE
  8
0
 10
77.5451
 20
20.7553
 11
76.9369
 21
20.9114
  0
LINE
  8
0
 10
76.9369
 20
20.9114
 11
76.3139
 21
20.9901
  0
LINE
  8
0
 10
76.3139
 20
20.9901
 11
76
 21
20.9901
  0
LINE
  8
0
 10
76
 20
20.9901
 11
76
 21
21
  0
LINE
  8
0
 10
76
 20
21
 11
14
 21
21
  0
LINE
  8
0
 10
14
 20
21
 11
14
 21
20.9901
  0
LINE
  8
0
 10
14
 20
20.9901
 11
13.686
 21
20.9901
  0
LINE
  8
0
 10
13.686
 20
20.9901
 11
13.0631
 21
20.9114
  0
LINE
  8
0
 10
13.0631
 20
20.9114
 11
12.4549
 21
20.7553
  0
LINE
  8
0
 10
12.4549
 20
20.7553
 11
11.8711
 21
20.5241
  0
LINE
  8
0
 10
11.8711
 20
20.5241
 11
11.3209
 21
20.2216
  0
LINE
  8
0
 10
11.3209
 20
20.2216
 11
10.8129
 21
19.8526
  0
LINE
  8
0
 10
10.8129
 20
19.8526
 11
10.3551
 21
19.4227
  0
LINE
  8
0
 10
10.3551
 20
19.4227
 11
9.95491
 21
18.9389
  0
LINE
  8
0
 10
9.95491
 20
18.9389
 11
9.61845
 21
18.4088
  0
LINE
  8
0
 10
9.61845
 20
18.4088
 11
9.3511
 21
17.8406
  0
LINE
  8
0
 10
9.3511
 20
17.8406
 11
9.15707
 21
17.2434
  0
LINE
  8
0
 10
9.15707
 20
17.2434
 11
9.03941
 21
16.6267
  0
LINE
  8
0
 10
9.03941
 20
16.6267
 11
9
 21
16
  0
LINE
  8
0
 10
9
 20
16
 11
9
 21
14
  0
LINE
  8
0
 10
9
 20
14
 11
9.03941
 21
13.3733
  0
LINE
  8
0
 10
9.03941
 20
13.3733
 11
9.15707
 21
12.7565
  0
LINE
  8
0
 10
9.15707
 20
12.7565
 11
9.3511
 21
12.1594
  0
LINE
  8
0
 10
9.3511
 20
12.1594
 11
9.61845
 21
11.5912
  0
LINE
  8
0
 10
9.61845
 20
11.5912
 11
9.95491
 21
11.0611
  0
LINE
  8
0
 10
9.95491
 20
11.0611
 11
10.3551
 21
10.5773
  0
LINE
  8
0
 10
10.3551
 20
10.5773
 11
10.8129
 21
10.1474
  0
LINE
  8
0
 10
10.8129
 20
10.1474
 11
11.3209
 21
9.77835
  0
LINE
  8
0
 10
11.3209
 20
9.77835
 11
11.8711
 21
9.47586
  0
LINE
  8
0
 10
11.8711
 20
9.47586
 11
12.4549
 21
9.24471
  0
LINE
  8
0
 10
12.4549
 20
9.24471
 11
13.0631
 21
9.08856
  0
LINE
  8
0
 10
13.0631
 20
9.08856
 11
13.686
 21
9.00986
  0
LINE
  8
0
 10
13.686
 20
9.00986
 11
14
 21
9.00986
  0
LINE
  8
0
 10
14
 20
9.00986
 11
14
 21
9
  0
LINE
  8
0
 10
14
 20
9
 11
76
 21
9
  0
LINE
  8
0
 10
76
 20
9
 11
76
 21
9.00986
  0
LINE
  8
0
 10
14.7959
 20
11.7564
 11
14.391
 21
11.8076
  0
LINE
  8
0
 10
14.391
 20
11.8076
 11
13.9957
 21
11.9091
  0
LINE
  8
0
 10
13.9957
 20
11.9091
 11
13.6162
 21
12.0593
  0
LINE
  8
0
 10
13.6162
 20
12.0593
 11
13.2586
 21
12.2559
  0
LINE
  8
0
 10
13.2586
 20
12.2559
 11
12.9284
 21
12.4958
  0
LINE
  8
0
 10
12.9284
 20
12.4958
 11
12.6308
 21
12.7752
  0
LINE
  8
0
 10
12.6308
 20
12.7752
 11
12.3707
 21
13.0897
  0
LINE
  8
0
 10
12.3707
 20
13.0897
 11
12.152
 21
13.4343
  0
LINE
  8
0
 10
12.152
 20
13.4343
 11
11.9782
 21
13.8036
  0
LINE
  8
0
 10
11.9782
 20
13.8036
 11
11.8521
 21
14.1918
  0
LINE
  8
0
 10
11.8521
 20
14.1918
 11
11.7756
 21
14.5927
  0
LINE
  8
0
 10
11.7756
 20
14.5927
 11
11.75
 21
15
  0
LINE
  8
0
 10
11.75
 20
15
 11
11.7756
 21
15.4073
  0
LINE
  8
0
 10
11.7756
 20
15.4073
 11
11.8521
 21
15.8082
  0
LINE
  8
0
 10
11.8521
 20
15.8082
 11
11.9782
 21
16.1964
  0
LINE
  8
0
 10
11.9782
 20
16.1964
 11
12.152
 21
16.5657
  0
LINE
  8
0
 10
12.152
 20
16.5657
 11
12.3707
 21
16.9103
  0
LINE
  8
0
 10
12.3707
 20
16.9103
 11
12.6308
 21
17.2248
  0
LINE
  8
0
 10
12.6308
 20
17.2248
 11
12.9284
 21
17.5042
  0
LINE
  8
0
 10
12.9284
 20
17.5042
 11
13.2586
 21
17.7441
  0
LINE
  8
0
 10
13.2586
 20
17.7441
 11
13.6162
 21
17.9407
  0
LINE
  8
0
 10
13.6162
 20
17.9407
 11
13.9957
 21
18.0909
  0
LINE
  8
0
 10
13.9957
 20
18.0909
 11
14.391
 21
18.1924
  0
LINE
  8
0
 10
14.391
 20
18.1924
 11
14.7959
 21
18.2436
  0
LINE
  8
0
 10
14.7959
 20
18.2436
 11
15.2041
 21
18.2436
  0
LINE
  8
0
 10
15.2041
 20
18.2436
 11
15.609
 21
18.1924
  0
LINE
  8
0
 10
15.609
 20
18.1924
 11
16.0043
 21
18.0909
  0
LINE
  8
0
 10
16.0043
 20
18.0909
 11
16.3838
 21
17.9407
  0
LINE
  8
0
 10
16.3838
 20
17.9407
 11
16.7414
 21
17.7441
  0
LINE
  8
0
 10
16.7414
 20
17.7441
 11
17.0716
 21
17.5042
  0
LINE
  8
0
 10
17.0716
 20
17.5042
 11
17.3691
 21
17.2248
  0
LINE
  8
0
 10
17.3691
 20
17.2248
 11
17.6293
 21
16.9103
  0
LINE
  8
0
 10
17.6293
 20
16.9103
 11
17.848
 21
16.5657
  0
LINE
  8
0
 10
17.848
 20
16.5657
 11
18.0218
 21
16.1964
  0
LINE
  8
0
 10
18.0218
 20
16.1964
 11
18.1479
 21
15.8082
  0
LINE
  8
0
 10
18.1479
 20
15.8082
 11
18.2244
 21
15.4073
  0
LINE
  8
0
 10
18.2244
 20
15.4073
 11
18.25
 21
15
  0
LINE
  8
0
 10
18.25
 20
15
 11
18.2244
 21
14.5927
  0
LINE
  8
0
 10
18.2244
 20
14.5927
 11
18.1479
 21
14.1918
  0
LINE
  8
0
 10
18.1479
 20
14.1918
 11
18.0218
 21
13.8036
  0
LINE
  8
0
 10
18.0218
 20
13.8036
 11
17.848
 21
13.4343
  0
LINE
  8
0
 10
17.848
 20
13.4343
 11
17.6293
 21
13.0897
  0
LINE
  8
0
 10
17.6293
 20
13.0897
 11
17.3691
 21
12.7752
  0
LINE
  8
0
 10
17.3691
 20
12.7752
 11
17.0716
 21
12.4958
  0
LINE
  8
0
 10
17.0716
 20
12.4958
 11
16.7414
 21
12.2559
  0
LINE
  8
0
 10
16.7414
 20
12.2559
 11
16.3838
 21
12.0593
  0
LINE
  8
0
 10
16.3838
 20
12.0593
 11
16.0043
 21
11.9091
  0
LINE
  8
0
 10
16.0043
 20
11.9091
 11
15.609
 21
11.8076
  0
LINE
  8
0
 10
15.609
 20
11.8076
 11
15.2041
 21
11.7564
  0
LINE
  8
0
 10
15.2041
 20
11.7564
 11
14.7959
 21
11.7564
  0
LINE
  8
0
 10
29.7959
 20
11.7564
 11
29.391
 21
11.8076
  0
LINE
  8
0
 10
29.391
 20
11.8076
 11
28.9957
 21
11.9091
  0
LINE
  8
0
 10
28.9957
 20
11.9091
 11
28.6162
 21
12.0593
  0
LINE
  8
0
 10
28.6162
 20
12.0593
 11
28.2586
 21
12.2559
  0
LINE
  8
0
 10
28.2586
 20
12.2559
 11
27.9284
 21
12.4958
  0
LINE
  8
0
 10
27.9284
 20
12.4958
 11
27.6308
 21
12.7752
  0
LINE
  8
0
 10
27.6308
 20
12.7752
 11
27.3707
 21
13.0897
  0
LINE
  8
0
 10
27.3707
 20
13.0897
 11
27.152
 21
13.4343
  0
LINE
  8
0
 10
27.152
 20
13.4343
 11
26.9782
 21
13.8036
  0
LINE
  8
0
 10
26.9782
 20
13.8036
 11
26.8521
 21
14.1918
  0
LINE
  8
0
 10
26.8521
 20
14.1918
 11
26.7756
 21
14.5927
  0
LINE
  8
0
 10
26.7756
 20
14.5927
 11
26.75
 21
15
  0
LINE
  8
0
 10
26.75
 20
15
 11
26.7756
 21
15.4073
  0
LINE
  8
0
 10
26.7756
 20
15.4073
 11
26.8521
 21
15.8082
  0
LINE
  8
0
 10
26.8521
 20
15.8082
 11
26.9782
 21
16.1964
  0
LINE
  8
0
 10
26.9782
 20
16.1964
 11
27.152
 21
16.5657
  0
LINE
  8
0
 10
27.152
 20
16.5657
 11
27.3707
 21
16.9103
  0
LINE
  8
0
 10
27.3707
 20
16.9103
 11
27.6308
 21
17.2248
  0
LINE
  8
0
 10
27.6308
 20
17.2248
 11
27.9284
 21
17.5042
  0
LINE
  8
0
 10
27.9284
 20
17.5042
 11
28.2586
 21
17.7441
  0
LINE
  8
0
 10
28.2586
 20
17.7441
 11
28.6162
 21
17.9407
  0
LINE
  8
0
 10
28.6162
 20
17.9407
 11
28.9957
 21
18.0909
  0
LINE
  8
0
 10
28.9957
 20
18.0909
 11
29.391
 21
18.1924
  0
LINE
  8
0
 10
29.391
 20
18.1924
 11
29.7959
 21
18.2436
  0
LINE
  8
0
 10
29.7959
 20
18.2436
 11
30.2041
 21
18.2436
  0
LINE
  8
0
 10
30.2041
 20
18.2436
 11
30.609
 21
18.1924
  0
LINE
  8
0
 10
30.609
 20
18.1924
 11
31.0043
 21
18.0909
  0
LINE
  8
0
 10
31.0043
 20
18.0909
 11
31.3838
 21
17.9407
  0
LINE
  8
0
 10
31.3838
 20
17.9407
 11
31.7414
 21
17.7441
  0
LINE
  8
0
 10
31.7414
 20
17.7441
 11
32.0716
 21
17.5042
  0
LINE
  8
0
 10
32.0716
 20
17.5042
 11
32.3691
 21
17.2248
  0
LINE
  8
0
 10
32.3691
 20
17.2248
 11
32.6293
 21
16.9103
  0
LINE
  8
0
 10
32.6293
 20
16.9103
 11
32.848
 21
16.5657
  0
LINE
  8
0
 10
32.848
 20
16.5657
 11
33.0218
 21
16.1964
  0
LINE
  8
0
 10
33.0218
 20
16.1964
 11
33.1479
 21
15.8082
  0
LINE
  8
0
 10
33.1479
 20
15.8082
 11
33.2244
 21
15.4073
  0
LINE
  8
0
 10
33.2244
 20
15.4073
 11
33.25
 21
15
  0
LINE
  8
0
 10
33.25
 20
15
 11
33.2244
 21
14.5927
  0
LINE
  8
0
 10
33.2244
 20
14.5927
 11
33.1479
 21
14.1918
  0
LINE
  8
0
 10
33.1479
 20
14.1918
 11
33.0218
 21
13.8036
  0
LINE
  8
0
 10
33.0218
 20
13.8036
 11
32.848
 21
13.4343
  0
LINE
  8
0
 10
32.848
 20
13.4343
 11
32.6293
 21
13.0897
  0
LINE
  8
0
 10
32.6293
 20
13.0897
 11
32.3691
 21
12.7752
  0
LINE
  8
0
 10
32.3691
 20
12.7752
 11
32.0716
 21
12.4958
  0
LINE
  8
0
 10
32.0716
 20
12.4958
 11
31.7414
 21
12.2559
  0
LINE
  8
0
 10
31.7414
 20
12.2559
 11
31.3838
 21
12.0593
  0
LINE
  8
0
 10
31.3838
 20
12.0593
 11
31.0043
 21
11.9091
  0
LINE
  8
0
 10
31.0043
 20
11.9091
 11
30.609
 21
11.8076
  0
LINE
  8
0
 10
30.609
 20
11.8076
 11
30.2041
 21
11.7564
  0
LINE
  8
0
 10
30.2041
 20
11.7564
 11
29.7959
 21
11.7564
  0
LINE
  8
0
 10
44.7959
 20
11.7564
 11
44.391
 21
11.8076
  0
LINE
  8
0
 10
44.391
 20
11.8076
 11
43.9957
 21
11.9091
  0
LINE
  8
0
 10
43.9957
 20
11.9091
 11
43.6162
 21
12.0593
  0
LINE
  8
0
 10
43.6162
 20
12.0593
 11
43.2586
 21
12.2559
  0
LINE
  8
0
 10
43.2586
 20
12.2559
 11
42.9284
 21
12.4958
  0
LINE
  8
0
 10
42.9284
 20
12.4958
 11
42.6308
 21
12.7752
  0
LINE
  8
0
 10
42.6308
 20
12.7752
 11
42.3707
 21
13.0897
  0
LINE
  8
0
 10
42.3707
 20
13.0897
 11
42.152
 21
13.4343
  0
LINE
  8
0
 10
42.152
 20
13.4343
 11
41.9782
 21
13.8036
  0
LINE
  8
0
 10
41.9782
 20
13.8036
 11
41.8521
 21
14.1918
  0
LINE
  8
0
 10
41.8521
 20
14.1918
 11
41.7756
 21
14.5927
  0
LINE
  8
0
 10
41.7756
 20
14.5927
 11
41.75
 21
15
  0
LINE
  8
0
 10
41.75
 20
15
 11
41.7756
 21
15.4073
  0
LINE
  8
0
 10
41.7756
 20
15.4073
 11
41.8521
 21
15.8082
  0
LINE
  8
0
 10
41.8521
 20
15.8082
 11
41.9782
 21
16.1964
  0
LINE
  8
0
 10
41.9782
 20
16.1964
 11
42.152
 21
16.5657
  0
LINE
  8
0
 10
42.152
 20
16.5657
 11
42.3707
 21
16.9103
  0
LINE
  8
0
 10
42.3707
 20
16.9103
 11
42.6308
 21
17.2248
  0
LINE
  8
0
 10
42.6308
 20
17.2248
 11
42.9284
 21
17.5042
  0
LINE
  8
0
 10
42.9284
 20
17.5042
 11
43.2586
 21
17.7441
  0
LINE
  8
0
 10
43.2586
 20
17.7441
 11
43.6162
 21
17.9407
  0
LINE
  8
0
 10
43.6162
 20
17.9407
 11
43.9957
 21
18.0909
  0
LINE
  8
0
 10
43.9957
 20
18.0909
 11
44.391
 21
18.1924
  0
LINE
  8
0
 10
44.391
 20
18.1924
 11
44.7959
 21
18.2436
  0
LINE
  8
0
 10
44.7959
 20
18.2436
 11
45.2041
 21
18.2436
  0
LINE
  8
0
 10
45.2041
 20
18.2436
 11
45.609
 21
18.1924
  0
LINE
  8
0
 10
45.609
 20
18.1924
 11
46.0043
 21
18.0909
  0
LINE
  8
0
 10
46.0043
 20
18.0909
 11
46.3838
 21
17.9407
  0
LINE
  8
0
 10
46.3838
 20
17.9407
 11
46.7414
 21
17.7441
  0
LINE
  8
0
 10
46.7414
 20
17.7441
 11
47.0716
 21
17.5042
  0
LINE
  8
0
 10
47.0716
 20
17.5042
 11
47.3691
 21
17.2248
  0
LINE
  8
0
 10
47.3691
 20
17.2248
 11
47.6293
 21
16.9103
  0
LINE
  8
0
 10
47.6293
 20
16.9103
 11
47.848
 21
16.5657
  0
LINE
  8
0
 10
47.848
 20
16.5657
 11
48.0218
 21
16.1964
  0
LINE
  8
0
 10
48.0218
 20
16.1964
 11
48.1479
 21
15.8082
  0
LINE
  8
0
 10
48.1479
 20
15.8082
 11
48.2244
 21
15.4073
  0
LINE
  8
0
 10
48.2244
 20
15.4073
 11
48.25
 21
15
  0
LINE
  8
0
 10
48.25
 20
15
 11
48.2244
 21
14.5927
  0
LINE
  8
0
 10
48.2244
 20
14.5927
 11
48.1479
 21
14.1918
  0
LINE
  8
0
 10
48.1479
 20
14.1918
 11
48.0218
 21
13.8036
  0
LINE
  8
0
 10
48.0218
 20
13.8036
 11
47.848
 21
13.4343
  0
LINE
  8
0
 10
47.848
 20
13.4343
 11
47.6293
 21
13.0897
  0
LINE
  8
0
 10
47.6293
 20
13.0897
 11
47.3691
 21
12.7752
  0
LINE
  8
0
 10
47.3691
 20
12.7752
 11
47.0716
 21
12.4958
  0
LINE
  8
0
 10
47.0716
 20
12.4958
 11
46.7414
 21
12.2559
  0
LINE
  8
0
 10
46.7414
 20
12.2559
 11
46.3838
 21
12.0593
  0
LINE
  8
0
 10
46.3838
 20
12.0593
 11
46.0043
 21
11.9091
  0
LINE
  8
0
 10
46.0043
 20
11.9091
 11
45.609
 21
11.8076
  0
LINE
  8
0
 10
45.609
 20
11.8076
 11
45.2041
 21
11.7564
  0
LINE
  8
0
 10
45.2041
 20
11.7564
 11
44.7959
 21
11.7564
  0
LINE
  8
0
 10
59.7959
 20
11.7564
 11
59.391
 21
11.8076
  0
LINE
  8
0
 10
59.391
 20
11.8076
 11
58.9957
 21
11.9091
  0
LINE
  8
0
 10
58.9957
 20
11.9091
 11
58.6162
 21
12.0593
  0
LINE
  8
0
 10
58.6162
 20
12.0593
 11
58.2586
 21
12.2559
  0
LINE
  8
0
 10
58.2586
 20
12.2559
 11
57.9284
 21
12.4958
  0
LINE
  8
0
 10
57.9284
 20
12.4958
 11
57.6308
 21
12.7752
  0
LINE
  8
0
 10
57.6308
 20
12.7752
 11
57.3707
 21
13.0897
  0
LINE
  8
0
 10
57.3707
 20
13.0897
 11
57.152
 21
13.4343
  0
LINE
  8
0
 10
57.152
 20
13.4343
 11
56.9782
 21
13.8036
  0
LINE
  8
0
 10
56.9782
 20
13.8036
 11
56.8521
 21
14.1918
  0
LINE
  8
0
 10
56.8521
 20
14.1918
 11
56.7756
 21
14.5927
  0
LINE
  8
0
 10
56.7756
 20
14.5927
 11
56.75
 21
15
  0
LINE
  8
0
 10
56.75
 20
15
 11
56.7756
 21
15.4073
  0
LINE
  8
0
 10
56.7756
 20
15.4073
 11
56.8521
 21
15.8082
  0
LINE
  8
0
 10
56.8521
 20
15.8082
 11
56.9782
 21
16.1964
  0
LINE
  8
0
 10
56.9782
 20
16.1964
 11
57.152
 21
16.5657
  0
LINE
  8
0
 10
57.152
 20
16.5657
 11
57.3707
 21
16.9103
  0
LINE
  8
0
 10
57.3707
 20
16.9103
 11
57.6308
 21
17.2248
  0
LINE
  8
0
 10
57.6308
 20
17.2248
 11
57.9284
 21
17.5042
  0
LINE
  8
0
 10
57.9284
 20
17.5042
 11
58.2586
 21
17.7441
  0
LINE
  8
0
 10
58.2586
 20
17.7441
 11
58.6162
 21
17.9407
  0
LINE
  8
0
 10
58.6162
 20
17.9407
 11
58.9957
 21
18.0909
  0
LINE
  8
0
 10
58.9957
 20
18.0909
 11
59.391
 21
18.1924
  0
LINE
  8
0
 10
59.391
 20
18.1924
 11
59.7959
 21
18.2436
  0
LINE
  8
0
 10
59.7959
 20
18.2436
 11
60.2041
 21
18.2436
  0
LINE
  8
0
 10
60.2041
 20
18.2436
 11
60.609
 21
18.1924
  0
LINE
  8
0
 10
60.609
 20
18.1924
 11
61.0043
 21
18.0909
  0
LINE
  8
0
 10
61.0043
 20
18.0909
 11
61.3838
 21
17.9407
  0
LINE
  8
0
 10
61.3838
 20
17.9407
 11
61.7414
 21
17.7441
  0
LINE
  8
0
 10
61.7414
 20
17.7441
 11
62.0716
 21
17.5042
  0
LINE
  8
0
 10
62.0716
 20
17.5042
 11
62.3691
 21
17.2248
  0
LINE
  8
0
 10
62.3691
 20
17.2248
 11
62.6293
 21
16.9103
  0
LINE
  8
0
 10
62.6293
 20
16.9103
 11
62.848
 21
16.5657
  0
LINE
  8
0
 10
62.848
 20
16.5657
 11
63.0218
 21
16.1964
  0
LINE
  8
0
 10
63.0218
 20
16.1964
 11
63.1479
 21
15.8082
  0
LINE
  8
0
 10
63.1479
 20
15.8082
 11
63.2244
 21
15.4073
  0
LINE
  8
0
 10
63.2244
 20
15.4073
 11
63.25
 21
15
  0
LINE
  8
0
 10
63.25
 20
15
 11
63.2244
 21
14.5927
  0
LINE
  8
0
 10
63.2244
 20
14.5927
 11
63.1479
 21
14.1918
  0
LINE
  8
0
 10
63.1479
 20
14.1918
 11
63.0218
 21
13.8036
  0
LINE
  8
0
 10
63.0218
 20
13.8036
 11
62.848
 21
13.4343
  0
LINE
  8
0
 10
62.848
 20
13.4343
 11
62.6293
 21
13.0897
  0
LINE
  8
0
 10
62.6293
 20
13.0897
 11
62.3691
 21
12.7752
  0
LINE
  8
0
 10
62.3691
 20
12.7752
 11
62.0716
 21
12.4958
  0
LINE
  8
0
 10
62.0716
 20
12.4958
 11
61.7414
 21
12.2559
  0
LINE
  8
0
 10
61.7414
 20
12.2559
 11
61.3838
 21
12.0593
  0
LINE
  8
0
 10
61.3838
 20
12.0593
 11
61.0043
 21
11.9091
  0
LINE
  8
0
 10
61.0043
 20
11.9091
 11
60.609
 21
11.8076
  0
LINE
  8
0
 10
60.609
 20
11.8076
 11
60.2041
 21
11.7564
  0
LINE
  8
0
 10
60.2041
 20
11.7564
 11
59.7959
 21
11.7564
  0
LINE
  8
0
 10
74.7959
 20
11.7564
 11
74.391
 21
11.8076
  0
LINE
  8
0
 10
74.391
 20
11.8076
 11
73.9957
 21
11.9091
  0
LINE
  8
0
 10
73.9957
 20
11.9091
 11
73.6162
 21
12.0593
  0
LINE
  8
0
 10
73.6162
 20
12.0593
 11
73.2586
 21
12.2559
  0
LINE
  8
0
 10
73.2586
 20
12.2559
 11
72.9284
 21
12.4958
  0
LINE
  8
0
 10
72.9284
 20
12.4958
 11
72.6308
 21
12.7752
  0
LINE
  8
0
 10
72.6308
 20
12.7752
 11
72.3707
 21
13.0897
  0
LINE
  8
0
 10
72.3707
 20
13.0897
 11
72.152
 21
13.4343
  0
LINE
  8
0
 10
72.152
 20
13.4343
 11
71.9782
 21
13.8036
  0
LINE
  8
0
 10
71.9782
 20
13.8036
 11
71.8521
 21
14.1918
  0
LINE
  8
0
 10
71.8521
 20
14.1918
 11
71.7756
 21
14.5927
  0
LINE
  8
0
 10
71.7756
 20
14.5927
 11
71.75
 21
15
  0
LINE
  8
0
 10
71.75
 20
15
 11
71.7756
 21
15.4073
  0
LINE
  8
0
 10
71.7756
 20
15.4073
 11
71.8521
 21
15.8082
  0
LINE
  8
0
 10
71.8521
 20
15.8082
 11
71.9782
 21
16.1964
  0
LINE
  8
0
 10
71.9782
 20
16.1964
 11
72.152
 21
16.5657
  0
LINE
  8
0
 10
72.152
 20
16.5657
 11
72.3707
 21
16.9103
  0
LINE
  8
0
 10
72.3707
 20
16.9103
 11
72.6308
 21
17.2248
  0
LINE
  8
0
 10
72.6308
 20
17.2248
 11
72.9284
 21
17.5042
  0
LINE
  8
0
 10
72.9284
 20
17.5042
 11
73.2586
 21
17.7441
  0
LINE
  8
0
 10
73.2586
 20
17.7441
 11
73.6162
 21
17.9407
  0
LINE
  8
0
 10
73.6162
 20
17.9407
 11
73.9957
 21
18.0909
  0
LINE
  8
0
 10
73.9957
 20
18.0909
 11
74.391
 21
18.1924
  0
LINE
  8
0
 10
74.391
 20
18.1924
 11
74.7959
 21
18.2436
  0
LINE
  8
0
 10
74.7959
 20
18.2436
 11
75.2041
 21
18.2436
  0
LINE
  8
0
 10
75.2041
 20
18.2436
 11
75.609
 21
18.1924
  0
LINE
  8
0
 10
75.609
 20
18.1924
 11
76.0043
 21
18.0909
  0
LINE
  8
0
 10
76.0043
 20
18.0909
 11
76.3838
 21
17.9407
  0
LINE
  8
0
 10
76.3838
 20
17.9407
 11
76.7414
 21
17.7441
  0
LINE
  8
0
 10
76.7414
 20
17.7441
 11
77.0716
 21
17.5042
  0
LINE
  8
0
 10
77.0716
 20
17.5042
 11
77.3691
 21
17.2248
  0
LINE
  8
0
 10
77.3691
 20
17.2248
 11
77.6293
 21
16.9103
  0
LINE
  8
0
 10
77.6293
 20
16.9103
 11
77.848
 21
16.5657
  0
LINE
  8
0
 10
77.848
 20
16.5657
 11
78.0218
 21
16.1964
  0
LINE
  8
0
 10
78.0218
 20
16.1964
 11
78.1479
 21
15.8082
  0
LINE
  8
0
 10
78.1479
 20
15.8082
 11
78.2244
 21
15.4073
  0
LINE
  8
0
 10
78.2244
 20
15.4073
 11
78.25
 21
15
  0
LINE
  8
0
 10
78.25
 20
15
 11
78.2244
 21
14.5927
  0
LINE
  8
0
 10
78.2244
 20
14.5927
 11
78.1479
 21
14.1918
  0
LINE
  8
0
 10
78.1479
 20
14.1918
 11
78.0218
 21
13.8036
  0
LINE
  8
0
 10
78.0218
 20
13.8036
 11
77.848
 21
13.4343
  0
LINE
  8
0
 10
77.848
 20
13.4343
 11
77.6293
 21
13.0897
  0
LINE
  8
0
 10
77.6293
 20
13.0897
 11
77.3691
 21
12.7752
  0
LINE
  8
0
 10
77.3691
 20
12.7752
 11
77.0716
 21
12.4958
  0
LINE
  8
0
 10
77.0716
 20
12.4958
 11
76.7414
 21
12.2559
  0
LINE
  8
0
 10
76.7414
 20
12.2559
 11
76.3838
 21
12.0593
  0
LINE
  8
0
 10
76.3838
 20
12.0593
 11
76.0043
 21
11.9091
  0
LINE
  8
0
 10
76.0043
 20
11.9091
 11
75.609
 21
11.8076
  0
LINE
  8
0
 10
75.609
 20
11.8076
 11
75.2041
 21
11.7564
  0
LINE
  8
0
 10
75.2041
 20
11.7564
 11
74.7959
 21
11.7564
  0
ENDSEC
  0
SECTION
  2
OBJECTS
  0
DICTIONARY
  0
ENDSEC
  0
EOF
