solid OpenSCAD_Model
  facet normal 0 0 -1
    outer loop
      vertex 3.87433 8.99476 -250
      vertex 4 8 -250
      vertex 3.87433 7.00524 -250
    endloop
  endfacet
  facet normal 0 0 -1
    outer loop
      vertex 3.87433 8.99476 -250
      vertex 1.23607 11.8042 -250
      vertex 2.91587 10.7382 -250
    endloop
  endfacet
  facet normal 0 0 -1
    outer loop
      vertex 3.87433 8.99476 -250
      vertex 2.91587 10.7382 -250
      vertex 3.50523 9.92701 -250
    endloop
  endfacet
  facet normal 0 0 -1
    outer loop
      vertex 2.91587 10.7382 -250
      vertex 1.23607 11.8042 -250
      vertex 2.14331 11.3773 -250
    endloop
  endfacet
  facet normal 0 0 -1
    outer loop
      vertex 1.23607 4.19577 -250
      vertex -1.70312 4.38069 -250
      vertex 1.23607 11.8042 -250
    endloop
  endfacet
  facet normal 0 0 -1
    outer loop
      vertex -1.70312 11.6193 -250
      vertex -0.749525 11.9291 -250
      vertex 0.251162 11.9921 -250
    endloop
  endfacet
  facet normal -0 0 -1
    outer loop
      vertex 1.23607 11.8042 -250
      vertex -1.70312 11.6193 -250
      vertex 0.251162 11.9921 -250
    endloop
  endfacet
  facet normal 0 0 -1
    outer loop
      vertex 1.23607 11.8042 -250
      vertex -1.70312 4.38069 -250
      vertex -1.70312 11.6193 -250
    endloop
  endfacet
  facet normal 0 0 -1
    outer loop
      vertex -1.70312 11.6193 -250
      vertex -3.23607 10.3511 -250
      vertex -2.5497 11.0821 -250
    endloop
  endfacet
  facet normal 0 0 -1
    outer loop
      vertex -1.70312 11.6193 -250
      vertex -3.71911 9.4725 -250
      vertex -3.23607 10.3511 -250
    endloop
  endfacet
  facet normal 0 0 -1
    outer loop
      vertex -1.70312 11.6193 -250
      vertex -3.96846 8.50133 -250
      vertex -3.71911 9.4725 -250
    endloop
  endfacet
  facet normal 0 0 -1
    outer loop
      vertex -1.70312 4.38069 -250
      vertex -3.96846 7.49867 -250
      vertex -3.96846 8.50133 -250
    endloop
  endfacet
  facet normal 0 0 -1
    outer loop
      vertex -1.70312 4.38069 -250
      vertex -3.71911 6.5275 -250
      vertex -3.96846 7.49867 -250
    endloop
  endfacet
  facet normal 0 -0 -1
    outer loop
      vertex -1.70312 11.6193 -250
      vertex -1.70312 4.38069 -250
      vertex -3.96846 8.50133 -250
    endloop
  endfacet
  facet normal 0 0 -1
    outer loop
      vertex -3.71911 6.5275 -250
      vertex -1.70312 4.38069 -250
      vertex -3.23607 5.64886 -250
    endloop
  endfacet
  facet normal 0 0 -1
    outer loop
      vertex -3.23607 5.64886 -250
      vertex -1.70312 4.38069 -250
      vertex -2.5497 4.91795 -250
    endloop
  endfacet
  facet normal -0 0 -1
    outer loop
      vertex 3.87433 8.99476 -250
      vertex 1.23607 4.19577 -250
      vertex 1.23607 11.8042 -250
    endloop
  endfacet
  facet normal 0 0 -1
    outer loop
      vertex -1.70312 4.38069 -250
      vertex 1.23607 4.19577 -250
      vertex -0.749525 4.07085 -250
    endloop
  endfacet
  facet normal 0 0 -1
    outer loop
      vertex -0.749525 4.07085 -250
      vertex 1.23607 4.19577 -250
      vertex 0.251162 4.00789 -250
    endloop
  endfacet
  facet normal 0 -0 -1
    outer loop
      vertex 3.87433 8.99476 -250
      vertex 3.87433 7.00524 -250
      vertex 1.23607 4.19577 -250
    endloop
  endfacet
  facet normal 0 0 -1
    outer loop
      vertex 1.23607 4.19577 -250
      vertex 3.87433 7.00524 -250
      vertex 2.14331 4.62269 -250
    endloop
  endfacet
  facet normal 0 0 -1
    outer loop
      vertex 2.14331 4.62269 -250
      vertex 3.87433 7.00524 -250
      vertex 2.91587 5.26181 -250
    endloop
  endfacet
  facet normal 0 0 -1
    outer loop
      vertex 2.91587 5.26181 -250
      vertex 3.87433 7.00524 -250
      vertex 3.50523 6.07299 -250
    endloop
  endfacet
  facet normal 0 0 1
    outer loop
      vertex 3.87433 7.00524 250
      vertex 4 8 250
      vertex 3.87433 8.99476 250
    endloop
  endfacet
  facet normal 0 0 1
    outer loop
      vertex 2.91587 10.7382 250
      vertex 1.23607 11.8042 250
      vertex 3.87433 8.99476 250
    endloop
  endfacet
  facet normal 0 0 1
    outer loop
      vertex 3.50523 9.92701 250
      vertex 2.91587 10.7382 250
      vertex 3.87433 8.99476 250
    endloop
  endfacet
  facet normal 0 0 1
    outer loop
      vertex 2.14331 11.3773 250
      vertex 1.23607 11.8042 250
      vertex 2.91587 10.7382 250
    endloop
  endfacet
  facet normal 0 0 1
    outer loop
      vertex 1.23607 11.8042 250
      vertex -1.70312 4.38069 250
      vertex 1.23607 4.19577 250
    endloop
  endfacet
  facet normal 0 0 1
    outer loop
      vertex 0.251162 11.9921 250
      vertex -0.749525 11.9291 250
      vertex -1.70312 11.6193 250
    endloop
  endfacet
  facet normal 0 0 1
    outer loop
      vertex 0.251162 11.9921 250
      vertex -1.70312 11.6193 250
      vertex 1.23607 11.8042 250
    endloop
  endfacet
  facet normal -0 0 1
    outer loop
      vertex -1.70312 11.6193 250
      vertex -1.70312 4.38069 250
      vertex 1.23607 11.8042 250
    endloop
  endfacet
  facet normal -0 0 1
    outer loop
      vertex -2.5497 11.0821 250
      vertex -3.23607 10.3511 250
      vertex -1.70312 11.6193 250
    endloop
  endfacet
  facet normal -0 0 1
    outer loop
      vertex -3.23607 10.3511 250
      vertex -3.71911 9.4725 250
      vertex -1.70312 11.6193 250
    endloop
  endfacet
  facet normal -0 0 1
    outer loop
      vertex -3.71911 9.4725 250
      vertex -3.96846 8.50133 250
      vertex -1.70312 11.6193 250
    endloop
  endfacet
  facet normal 0 0 1
    outer loop
      vertex -3.96846 8.50133 250
      vertex -3.96846 7.49867 250
      vertex -1.70312 4.38069 250
    endloop
  endfacet
  facet normal 0 0 1
    outer loop
      vertex -3.96846 7.49867 250
      vertex -3.71911 6.5275 250
      vertex -1.70312 4.38069 250
    endloop
  endfacet
  facet normal -0 0 1
    outer loop
      vertex -3.96846 8.50133 250
      vertex -1.70312 4.38069 250
      vertex -1.70312 11.6193 250
    endloop
  endfacet
  facet normal -0 -0 1
    outer loop
      vertex -3.23607 5.64886 250
      vertex -1.70312 4.38069 250
      vertex -3.71911 6.5275 250
    endloop
  endfacet
  facet normal -0 -0 1
    outer loop
      vertex -2.5497 4.91795 250
      vertex -1.70312 4.38069 250
      vertex -3.23607 5.64886 250
    endloop
  endfacet
  facet normal 0 0 1
    outer loop
      vertex 1.23607 11.8042 250
      vertex 1.23607 4.19577 250
      vertex 3.87433 8.99476 250
    endloop
  endfacet
  facet normal 0 -0 1
    outer loop
      vertex -0.749525 4.07085 250
      vertex 1.23607 4.19577 250
      vertex -1.70312 4.38069 250
    endloop
  endfacet
  facet normal 0 -0 1
    outer loop
      vertex 0.251162 4.00789 250
      vertex 1.23607 4.19577 250
      vertex -0.749525 4.07085 250
    endloop
  endfacet
  facet normal 0 0 1
    outer loop
      vertex 1.23607 4.19577 250
      vertex 3.87433 7.00524 250
      vertex 3.87433 8.99476 250
    endloop
  endfacet
  facet normal 0 -0 1
    outer loop
      vertex 2.14331 4.62269 250
      vertex 3.87433 7.00524 250
      vertex 1.23607 4.19577 250
    endloop
  endfacet
  facet normal 0 -0 1
    outer loop
      vertex 2.91587 5.26181 250
      vertex 3.87433 7.00524 250
      vertex 2.14331 4.62269 250
    endloop
  endfacet
  facet normal 0 -0 1
    outer loop
      vertex 3.50523 6.07299 250
      vertex 3.87433 7.00524 250
      vertex 2.91587 5.26181 250
    endloop
  endfacet
  facet normal 0.992114 0.125336 0
    outer loop
      vertex 3.87433 8.99476 -250
      vertex 4 8 250
      vertex 4 8 -250
    endloop
  endfacet
  facet normal 0.992114 0.125336 -0
    outer loop
      vertex 3.87433 8.99476 -250
      vertex 3.87433 8.99476 250
      vertex 4 8 250
    endloop
  endfacet
  facet normal 0.929778 0.368121 0
    outer loop
      vertex 3.50523 9.92701 -250
      vertex 3.87433 8.99476 250
      vertex 3.87433 8.99476 -250
    endloop
  endfacet
  facet normal 0.929778 0.368121 -0
    outer loop
      vertex 3.50523 9.92701 -250
      vertex 3.50523 9.92701 250
      vertex 3.87433 8.99476 250
    endloop
  endfacet
  facet normal 0.809019 0.587783 0
    outer loop
      vertex 2.91587 10.7382 -250
      vertex 3.50523 9.92701 250
      vertex 3.50523 9.92701 -250
    endloop
  endfacet
  facet normal 0.809019 0.587783 -0
    outer loop
      vertex 2.91587 10.7382 -250
      vertex 2.91587 10.7382 250
      vertex 3.50523 9.92701 250
    endloop
  endfacet
  facet normal 0.637414 0.770522 0
    outer loop
      vertex 2.14331 11.3773 -250
      vertex 2.91587 10.7382 250
      vertex 2.91587 10.7382 -250
    endloop
  endfacet
  facet normal 0.637414 0.770522 -0
    outer loop
      vertex 2.14331 11.3773 -250
      vertex 2.14331 11.3773 250
      vertex 2.91587 10.7382 250
    endloop
  endfacet
  facet normal 0.425767 0.904833 0
    outer loop
      vertex 1.23607 11.8042 -250
      vertex 2.14331 11.3773 250
      vertex 2.14331 11.3773 -250
    endloop
  endfacet
  facet normal 0.425767 0.904833 -0
    outer loop
      vertex 1.23607 11.8042 -250
      vertex 1.23607 11.8042 250
      vertex 2.14331 11.3773 250
    endloop
  endfacet
  facet normal 0.187399 0.982284 0
    outer loop
      vertex 0.251162 11.9921 -250
      vertex 1.23607 11.8042 250
      vertex 1.23607 11.8042 -250
    endloop
  endfacet
  facet normal 0.187399 0.982284 -0
    outer loop
      vertex 0.251162 11.9921 -250
      vertex 0.251162 11.9921 250
      vertex 1.23607 11.8042 250
    endloop
  endfacet
  facet normal -0.0628324 0.998024 0
    outer loop
      vertex -0.749525 11.9291 -250
      vertex 0.251162 11.9921 250
      vertex 0.251162 11.9921 -250
    endloop
  endfacet
  facet normal -0.0628324 0.998024 0
    outer loop
      vertex -0.749525 11.9291 -250
      vertex -0.749525 11.9291 250
      vertex 0.251162 11.9921 250
    endloop
  endfacet
  facet normal -0.308979 0.951069 0
    outer loop
      vertex -1.70312 11.6193 -250
      vertex -0.749525 11.9291 250
      vertex -0.749525 11.9291 -250
    endloop
  endfacet
  facet normal -0.308979 0.951069 0
    outer loop
      vertex -1.70312 11.6193 -250
      vertex -1.70312 11.6193 250
      vertex -0.749525 11.9291 250
    endloop
  endfacet
  facet normal -0.535787 0.844353 0
    outer loop
      vertex -2.5497 11.0821 -250
      vertex -1.70312 11.6193 250
      vertex -1.70312 11.6193 -250
    endloop
  endfacet
  facet normal -0.535787 0.844353 0
    outer loop
      vertex -2.5497 11.0821 -250
      vertex -2.5497 11.0821 250
      vertex -1.70312 11.6193 250
    endloop
  endfacet
  facet normal -0.729011 0.684502 0
    outer loop
      vertex -3.23607 10.3511 -250
      vertex -2.5497 11.0821 250
      vertex -2.5497 11.0821 -250
    endloop
  endfacet
  facet normal -0.729011 0.684502 0
    outer loop
      vertex -3.23607 10.3511 -250
      vertex -3.23607 10.3511 250
      vertex -2.5497 11.0821 250
    endloop
  endfacet
  facet normal -0.876296 0.481773 0
    outer loop
      vertex -3.71911 9.4725 -250
      vertex -3.23607 10.3511 250
      vertex -3.23607 10.3511 -250
    endloop
  endfacet
  facet normal -0.876296 0.481773 0
    outer loop
      vertex -3.71911 9.4725 -250
      vertex -3.71911 9.4725 250
      vertex -3.23607 10.3511 250
    endloop
  endfacet
  facet normal -0.968584 0.248686 0
    outer loop
      vertex -3.96846 8.50133 -250
      vertex -3.71911 9.4725 250
      vertex -3.71911 9.4725 -250
    endloop
  endfacet
  facet normal -0.968584 0.248686 0
    outer loop
      vertex -3.96846 8.50133 -250
      vertex -3.96846 8.50133 250
      vertex -3.71911 9.4725 250
    endloop
  endfacet
  facet normal -1 0 0
    outer loop
      vertex -3.96846 7.49867 -250
      vertex -3.96846 8.50133 250
      vertex -3.96846 8.50133 -250
    endloop
  endfacet
  facet normal -1 0 0
    outer loop
      vertex -3.96846 7.49867 -250
      vertex -3.96846 7.49867 250
      vertex -3.96846 8.50133 250
    endloop
  endfacet
  facet normal -0.968584 -0.248686 0
    outer loop
      vertex -3.71911 6.5275 -250
      vertex -3.96846 7.49867 250
      vertex -3.96846 7.49867 -250
    endloop
  endfacet
  facet normal -0.968584 -0.248686 0
    outer loop
      vertex -3.71911 6.5275 -250
      vertex -3.71911 6.5275 250
      vertex -3.96846 7.49867 250
    endloop
  endfacet
  facet normal -0.876305 -0.481756 0
    outer loop
      vertex -3.23607 5.64886 -250
      vertex -3.71911 6.5275 250
      vertex -3.71911 6.5275 -250
    endloop
  endfacet
  facet normal -0.876305 -0.481756 0
    outer loop
      vertex -3.23607 5.64886 -250
      vertex -3.23607 5.64886 250
      vertex -3.71911 6.5275 250
    endloop
  endfacet
  facet normal -0.728969 -0.684547 0
    outer loop
      vertex -2.5497 4.91795 -250
      vertex -3.23607 5.64886 250
      vertex -3.23607 5.64886 -250
    endloop
  endfacet
  facet normal -0.728969 -0.684547 0
    outer loop
      vertex -2.5497 4.91795 -250
      vertex -2.5497 4.91795 250
      vertex -3.23607 5.64886 250
    endloop
  endfacet
  facet normal -0.53583 -0.844326 0
    outer loop
      vertex -1.70312 4.38069 -250
      vertex -2.5497 4.91795 250
      vertex -2.5497 4.91795 -250
    endloop
  endfacet
  facet normal -0.53583 -0.844326 0
    outer loop
      vertex -1.70312 4.38069 -250
      vertex -1.70312 4.38069 250
      vertex -2.5497 4.91795 250
    endloop
  endfacet
  facet normal -0.309015 -0.951057 0
    outer loop
      vertex -0.749525 4.07085 -250
      vertex -1.70312 4.38069 250
      vertex -1.70312 4.38069 -250
    endloop
  endfacet
  facet normal -0.309015 -0.951057 0
    outer loop
      vertex -0.749525 4.07085 -250
      vertex -0.749525 4.07085 250
      vertex -1.70312 4.38069 250
    endloop
  endfacet
  facet normal -0.0627926 -0.998027 0
    outer loop
      vertex 0.251162 4.00789 -250
      vertex -0.749525 4.07085 250
      vertex -0.749525 4.07085 -250
    endloop
  endfacet
  facet normal -0.0627926 -0.998027 0
    outer loop
      vertex 0.251162 4.00789 -250
      vertex 0.251162 4.00789 250
      vertex -0.749525 4.07085 250
    endloop
  endfacet
  facet normal 0.18738 -0.982287 0
    outer loop
      vertex 1.23607 4.19577 -250
      vertex 0.251162 4.00789 250
      vertex 0.251162 4.00789 -250
    endloop
  endfacet
  facet normal 0.18738 -0.982287 0
    outer loop
      vertex 1.23607 4.19577 -250
      vertex 1.23607 4.19577 250
      vertex 0.251162 4.00789 250
    endloop
  endfacet
  facet normal 0.425784 -0.904825 0
    outer loop
      vertex 2.14331 4.62269 -250
      vertex 1.23607 4.19577 250
      vertex 1.23607 4.19577 -250
    endloop
  endfacet
  facet normal 0.425784 -0.904825 0
    outer loop
      vertex 2.14331 4.62269 -250
      vertex 2.14331 4.62269 250
      vertex 1.23607 4.19577 250
    endloop
  endfacet
  facet normal 0.637426 -0.770512 0
    outer loop
      vertex 2.91587 5.26181 -250
      vertex 2.14331 4.62269 250
      vertex 2.14331 4.62269 -250
    endloop
  endfacet
  facet normal 0.637426 -0.770512 0
    outer loop
      vertex 2.91587 5.26181 -250
      vertex 2.91587 5.26181 250
      vertex 2.14331 4.62269 250
    endloop
  endfacet
  facet normal 0.809015 -0.587787 0
    outer loop
      vertex 3.50523 6.07299 -250
      vertex 2.91587 5.26181 250
      vertex 2.91587 5.26181 -250
    endloop
  endfacet
  facet normal 0.809015 -0.587787 0
    outer loop
      vertex 3.50523 6.07299 -250
      vertex 3.50523 6.07299 250
      vertex 2.91587 5.26181 250
    endloop
  endfacet
  facet normal 0.929778 -0.368121 0
    outer loop
      vertex 3.87433 7.00524 -250
      vertex 3.50523 6.07299 250
      vertex 3.50523 6.07299 -250
    endloop
  endfacet
  facet normal 0.929778 -0.368121 0
    outer loop
      vertex 3.87433 7.00524 -250
      vertex 3.87433 7.00524 250
      vertex 3.50523 6.07299 250
    endloop
  endfacet
  facet normal 0.992114 -0.125336 0
    outer loop
      vertex 4 8 -250
      vertex 3.87433 7.00524 250
      vertex 3.87433 7.00524 -250
    endloop
  endfacet
  facet normal 0.992114 -0.125336 0
    outer loop
      vertex 4 8 -250
      vertex 4 8 250
      vertex 3.87433 7.00524 250
    endloop
  endfacet
endsolid OpenSCAD_Model
