solid OpenSCAD_Model
  facet normal 0.929776 -0.368127 0
    outer loop
      vertex 3.76812 5.92846 0
      vertex 4.16491 6.93063 -250
      vertex 4.16491 6.93063 0
    endloop
  endfacet
  facet normal 0.929776 -0.368127 0
    outer loop
      vertex 4.16491 6.93063 -250
      vertex 3.76812 5.92846 0
      vertex 3.76812 5.92846 -250
    endloop
  endfacet
  facet normal 0.929776 -0.368127 0
    outer loop
      vertex 3.76812 5.92846 250
      vertex 4.16491 6.93063 0.4
      vertex 4.16491 6.93063 250
    endloop
  endfacet
  facet normal 0.929776 -0.368127 0
    outer loop
      vertex 4.16491 6.93063 0.4
      vertex 3.76812 5.92846 250
      vertex 3.76812 5.92846 0.4
    endloop
  endfacet
  facet normal 0.992115 -0.125331 0
    outer loop
      vertex 4.16491 6.93063 0
      vertex 4.3 8 -250
      vertex 4.3 8 0
    endloop
  endfacet
  facet normal 0.992115 -0.125331 0
    outer loop
      vertex 4.3 8 -250
      vertex 4.16491 6.93063 0
      vertex 4.16491 6.93063 -250
    endloop
  endfacet
  facet normal 0.992115 -0.125331 0
    outer loop
      vertex 4.16491 6.93063 250
      vertex 4.3 8 0.4
      vertex 4.3 8 250
    endloop
  endfacet
  facet normal 0.992115 -0.125331 0
    outer loop
      vertex 4.3 8 0.4
      vertex 4.16491 6.93063 250
      vertex 4.16491 6.93063 0.4
    endloop
  endfacet
  facet normal 0.992115 0.125331 0
    outer loop
      vertex 4.3 8 0
      vertex 4.16491 9.06937 -250
      vertex 4.16491 9.06937 0
    endloop
  endfacet
  facet normal 0.992115 0.125331 0
    outer loop
      vertex 4.16491 9.06937 -250
      vertex 4.3 8 0
      vertex 4.3 8 -250
    endloop
  endfacet
  facet normal 0.992115 0.125331 0
    outer loop
      vertex 4.3 8 250
      vertex 4.16491 9.06937 0.4
      vertex 4.16491 9.06937 250
    endloop
  endfacet
  facet normal 0.992115 0.125331 0
    outer loop
      vertex 4.16491 9.06937 0.4
      vertex 4.3 8 250
      vertex 4.3 8 0.4
    endloop
  endfacet
  facet normal -1 0 0
    outer loop
      vertex -4.26609 7.46107 0.4
      vertex -4.26609 8.53893 250
      vertex -4.26609 8.53893 0.4
    endloop
  endfacet
  facet normal -1 -0 0
    outer loop
      vertex -4.26609 8.53893 250
      vertex -4.26609 7.46107 0.4
      vertex -4.26609 7.46107 250
    endloop
  endfacet
  facet normal -1 0 0
    outer loop
      vertex -4.26609 7.46107 -250
      vertex -4.26609 8.53893 0
      vertex -4.26609 8.53893 -250
    endloop
  endfacet
  facet normal -1 -0 0
    outer loop
      vertex -4.26609 8.53893 0
      vertex -4.26609 7.46107 -250
      vertex -4.26609 7.46107 0
    endloop
  endfacet
  facet normal -0.0628093 0.998026 0
    outer loop
      vertex 0.269999 12.2915 -250
      vertex -0.805739 12.2238 0
      vertex 0.269999 12.2915 0
    endloop
  endfacet
  facet normal -0.0628093 0.998026 0
    outer loop
      vertex -0.805739 12.2238 0
      vertex 0.269999 12.2915 -250
      vertex -0.805739 12.2238 -250
    endloop
  endfacet
  facet normal -0.0628093 0.998026 0
    outer loop
      vertex 0.269999 12.2915 0.4
      vertex -0.805739 12.2238 250
      vertex 0.269999 12.2915 250
    endloop
  endfacet
  facet normal -0.0628093 0.998026 0
    outer loop
      vertex -0.805739 12.2238 250
      vertex 0.269999 12.2915 0.4
      vertex -0.805739 12.2238 0.4
    endloop
  endfacet
  facet normal -0.968585 -0.248684 0
    outer loop
      vertex -3.99804 6.41706 0.4
      vertex -4.26609 7.46107 250
      vertex -4.26609 7.46107 0.4
    endloop
  endfacet
  facet normal -0.968585 -0.248684 0
    outer loop
      vertex -4.26609 7.46107 250
      vertex -3.99804 6.41706 0.4
      vertex -3.99804 6.41706 250
    endloop
  endfacet
  facet normal -0.968585 -0.248684 0
    outer loop
      vertex -3.99804 6.41706 -250
      vertex -4.26609 7.46107 0
      vertex -4.26609 7.46107 -250
    endloop
  endfacet
  facet normal -0.968585 -0.248684 0
    outer loop
      vertex -4.26609 7.46107 0
      vertex -3.99804 6.41706 -250
      vertex -3.99804 6.41706 0
    endloop
  endfacet
  facet normal 0 0 1
    outer loop
      vertex 4.16491 9.06937 250
      vertex 4.16491 6.93063 250
      vertex 4.3 8 250
    endloop
  endfacet
  facet normal 0 0 1
    outer loop
      vertex 3.76812 10.0715 250
      vertex 4.16491 6.93063 250
      vertex 4.16491 9.06937 250
    endloop
  endfacet
  facet normal 0 0 1
    outer loop
      vertex 3.76812 10.0715 250
      vertex 3.76812 5.92846 250
      vertex 4.16491 6.93063 250
    endloop
  endfacet
  facet normal 0 0 1
    outer loop
      vertex 3.13456 10.9436 250
      vertex 3.76812 5.92846 250
      vertex 3.76812 10.0715 250
    endloop
  endfacet
  facet normal 0 0 1
    outer loop
      vertex 3.13456 10.9436 250
      vertex 3.13456 5.05645 250
      vertex 3.76812 5.92846 250
    endloop
  endfacet
  facet normal 0 0 1
    outer loop
      vertex 2.30406 11.6306 250
      vertex 3.13456 5.05645 250
      vertex 3.13456 10.9436 250
    endloop
  endfacet
  facet normal 0 0 1
    outer loop
      vertex 2.30406 11.6306 250
      vertex 2.30406 4.36939 250
      vertex 3.13456 5.05645 250
    endloop
  endfacet
  facet normal 0 0 1
    outer loop
      vertex 1.32877 12.0895 250
      vertex 2.30406 4.36939 250
      vertex 2.30406 11.6306 250
    endloop
  endfacet
  facet normal 0 0 1
    outer loop
      vertex 1.32877 12.0895 250
      vertex 1.32877 3.91046 250
      vertex 2.30406 4.36939 250
    endloop
  endfacet
  facet normal 0 0 1
    outer loop
      vertex 0.269999 12.2915 250
      vertex 1.32877 3.91046 250
      vertex 1.32877 12.0895 250
    endloop
  endfacet
  facet normal 0 0 1
    outer loop
      vertex 0.269999 12.2915 250
      vertex 0.269999 3.70848 250
      vertex 1.32877 3.91046 250
    endloop
  endfacet
  facet normal -0 0 1
    outer loop
      vertex -0.805739 12.2238 250
      vertex 0.269999 3.70848 250
      vertex 0.269999 12.2915 250
    endloop
  endfacet
  facet normal 0 0 1
    outer loop
      vertex -0.805739 12.2238 250
      vertex -0.805739 3.77616 250
      vertex 0.269999 3.70848 250
    endloop
  endfacet
  facet normal -0 0 1
    outer loop
      vertex -1.83085 11.8908 250
      vertex -0.805739 3.77616 250
      vertex -0.805739 12.2238 250
    endloop
  endfacet
  facet normal 0 0 1
    outer loop
      vertex -1.83085 11.8908 250
      vertex -1.83085 4.10924 250
      vertex -0.805739 3.77616 250
    endloop
  endfacet
  facet normal -0 0 1
    outer loop
      vertex -2.74092 11.3132 250
      vertex -1.83085 4.10924 250
      vertex -1.83085 11.8908 250
    endloop
  endfacet
  facet normal 0 0 1
    outer loop
      vertex -2.74092 11.3132 250
      vertex -2.74092 4.68679 250
      vertex -1.83085 4.10924 250
    endloop
  endfacet
  facet normal -0 0 1
    outer loop
      vertex -3.47877 10.5275 250
      vertex -2.74092 4.68679 250
      vertex -2.74092 11.3132 250
    endloop
  endfacet
  facet normal 0 0 1
    outer loop
      vertex -3.47877 10.5275 250
      vertex -3.47877 5.47252 250
      vertex -2.74092 4.68679 250
    endloop
  endfacet
  facet normal -0 0 1
    outer loop
      vertex -3.99804 9.58294 250
      vertex -3.47877 5.47252 250
      vertex -3.47877 10.5275 250
    endloop
  endfacet
  facet normal 0 0 1
    outer loop
      vertex -3.99804 9.58294 250
      vertex -3.99804 6.41706 250
      vertex -3.47877 5.47252 250
    endloop
  endfacet
  facet normal -0 0 1
    outer loop
      vertex -4.26609 8.53893 250
      vertex -3.99804 6.41706 250
      vertex -3.99804 9.58294 250
    endloop
  endfacet
  facet normal 0 0 1
    outer loop
      vertex -3.99804 6.41706 250
      vertex -4.26609 8.53893 250
      vertex -4.26609 7.46107 250
    endloop
  endfacet
  facet normal -0.535828 -0.844327 0
    outer loop
      vertex -2.74092 4.68679 -250
      vertex -1.83085 4.10924 0
      vertex -2.74092 4.68679 0
    endloop
  endfacet
  facet normal -0.535828 -0.844327 -0
    outer loop
      vertex -1.83085 4.10924 0
      vertex -2.74092 4.68679 -250
      vertex -1.83085 4.10924 -250
    endloop
  endfacet
  facet normal -0.535828 -0.844327 0
    outer loop
      vertex -2.74092 4.68679 0.4
      vertex -1.83085 4.10924 250
      vertex -2.74092 4.68679 250
    endloop
  endfacet
  facet normal -0.535828 -0.844327 -0
    outer loop
      vertex -1.83085 4.10924 250
      vertex -2.74092 4.68679 0.4
      vertex -1.83085 4.10924 0.4
    endloop
  endfacet
  facet normal 0 0 -1
    outer loop
      vertex 4.16491 6.93063 -250
      vertex 4.16491 9.06937 -250
      vertex 4.3 8 -250
    endloop
  endfacet
  facet normal 0 0 -1
    outer loop
      vertex 3.76812 5.92846 -250
      vertex 4.16491 9.06937 -250
      vertex 4.16491 6.93063 -250
    endloop
  endfacet
  facet normal 0 0 -1
    outer loop
      vertex 3.76812 5.92846 -250
      vertex 3.76812 10.0715 -250
      vertex 4.16491 9.06937 -250
    endloop
  endfacet
  facet normal 0 0 -1
    outer loop
      vertex 3.13456 5.05645 -250
      vertex 3.76812 10.0715 -250
      vertex 3.76812 5.92846 -250
    endloop
  endfacet
  facet normal 0 0 -1
    outer loop
      vertex 3.13456 5.05645 -250
      vertex 3.13456 10.9436 -250
      vertex 3.76812 10.0715 -250
    endloop
  endfacet
  facet normal 0 0 -1
    outer loop
      vertex 2.30406 4.36939 -250
      vertex 3.13456 10.9436 -250
      vertex 3.13456 5.05645 -250
    endloop
  endfacet
  facet normal 0 0 -1
    outer loop
      vertex 2.30406 4.36939 -250
      vertex 2.30406 11.6306 -250
      vertex 3.13456 10.9436 -250
    endloop
  endfacet
  facet normal 0 0 -1
    outer loop
      vertex 1.32877 3.91046 -250
      vertex 2.30406 11.6306 -250
      vertex 2.30406 4.36939 -250
    endloop
  endfacet
  facet normal 0 0 -1
    outer loop
      vertex 1.32877 3.91046 -250
      vertex 1.32877 12.0895 -250
      vertex 2.30406 11.6306 -250
    endloop
  endfacet
  facet normal 0 0 -1
    outer loop
      vertex 0.269999 3.70848 -250
      vertex 1.32877 12.0895 -250
      vertex 1.32877 3.91046 -250
    endloop
  endfacet
  facet normal 0 0 -1
    outer loop
      vertex 0.269999 3.70848 -250
      vertex 0.269999 12.2915 -250
      vertex 1.32877 12.0895 -250
    endloop
  endfacet
  facet normal 0 0 -1
    outer loop
      vertex -0.805739 3.77616 -250
      vertex 0.269999 12.2915 -250
      vertex 0.269999 3.70848 -250
    endloop
  endfacet
  facet normal 0 0 -1
    outer loop
      vertex -0.805739 3.77616 -250
      vertex -0.805739 12.2238 -250
      vertex 0.269999 12.2915 -250
    endloop
  endfacet
  facet normal 0 0 -1
    outer loop
      vertex -1.83085 4.10924 -250
      vertex -0.805739 12.2238 -250
      vertex -0.805739 3.77616 -250
    endloop
  endfacet
  facet normal 0 0 -1
    outer loop
      vertex -1.83085 4.10924 -250
      vertex -1.83085 11.8908 -250
      vertex -0.805739 12.2238 -250
    endloop
  endfacet
  facet normal 0 0 -1
    outer loop
      vertex -2.74092 4.68679 -250
      vertex -1.83085 11.8908 -250
      vertex -1.83085 4.10924 -250
    endloop
  endfacet
  facet normal 0 0 -1
    outer loop
      vertex -2.74092 4.68679 -250
      vertex -2.74092 11.3132 -250
      vertex -1.83085 11.8908 -250
    endloop
  endfacet
  facet normal 0 0 -1
    outer loop
      vertex -3.47877 5.47252 -250
      vertex -2.74092 11.3132 -250
      vertex -2.74092 4.68679 -250
    endloop
  endfacet
  facet normal 0 0 -1
    outer loop
      vertex -3.47877 5.47252 -250
      vertex -3.47877 10.5275 -250
      vertex -2.74092 11.3132 -250
    endloop
  endfacet
  facet normal 0 0 -1
    outer loop
      vertex -3.99804 6.41706 -250
      vertex -3.47877 10.5275 -250
      vertex -3.47877 5.47252 -250
    endloop
  endfacet
  facet normal 0 0 -1
    outer loop
      vertex -3.99804 6.41706 -250
      vertex -3.99804 9.58294 -250
      vertex -3.47877 10.5275 -250
    endloop
  endfacet
  facet normal 0 0 -1
    outer loop
      vertex -4.26609 7.46107 -250
      vertex -3.99804 9.58294 -250
      vertex -3.99804 6.41706 -250
    endloop
  endfacet
  facet normal 0 0 -1
    outer loop
      vertex -3.99804 9.58294 -250
      vertex -4.26609 7.46107 -250
      vertex -4.26609 8.53893 -250
    endloop
  endfacet
  facet normal 0.425774 -0.904829 0
    outer loop
      vertex 1.32877 3.91046 -250
      vertex 2.30406 4.36939 0
      vertex 1.32877 3.91046 0
    endloop
  endfacet
  facet normal 0.425774 -0.904829 0
    outer loop
      vertex 2.30406 4.36939 0
      vertex 1.32877 3.91046 -250
      vertex 2.30406 4.36939 -250
    endloop
  endfacet
  facet normal 0.425774 -0.904829 0
    outer loop
      vertex 1.32877 3.91046 0.4
      vertex 2.30406 4.36939 250
      vertex 1.32877 3.91046 250
    endloop
  endfacet
  facet normal 0.425774 -0.904829 0
    outer loop
      vertex 2.30406 4.36939 250
      vertex 1.32877 3.91046 0.4
      vertex 2.30406 4.36939 0.4
    endloop
  endfacet
  facet normal 0.63743 -0.770508 0
    outer loop
      vertex 2.30406 4.36939 -250
      vertex 3.13456 5.05645 0
      vertex 2.30406 4.36939 0
    endloop
  endfacet
  facet normal 0.63743 -0.770508 0
    outer loop
      vertex 3.13456 5.05645 0
      vertex 2.30406 4.36939 -250
      vertex 3.13456 5.05645 -250
    endloop
  endfacet
  facet normal 0.63743 -0.770508 0
    outer loop
      vertex 2.30406 4.36939 0.4
      vertex 3.13456 5.05645 250
      vertex 2.30406 4.36939 250
    endloop
  endfacet
  facet normal 0.63743 -0.770508 0
    outer loop
      vertex 3.13456 5.05645 250
      vertex 2.30406 4.36939 0.4
      vertex 3.13456 5.05645 0.4
    endloop
  endfacet
  facet normal 0.809014 -0.58779 0
    outer loop
      vertex 3.13456 5.05645 250
      vertex 3.76812 5.92846 0.4
      vertex 3.76812 5.92846 250
    endloop
  endfacet
  facet normal 0.809014 -0.58779 0
    outer loop
      vertex 3.76812 5.92846 0.4
      vertex 3.13456 5.05645 250
      vertex 3.13456 5.05645 0.4
    endloop
  endfacet
  facet normal 0.809014 -0.58779 0
    outer loop
      vertex 3.13456 5.05645 0
      vertex 3.76812 5.92846 -250
      vertex 3.76812 5.92846 0
    endloop
  endfacet
  facet normal 0.809014 -0.58779 0
    outer loop
      vertex 3.76812 5.92846 -250
      vertex 3.13456 5.05645 0
      vertex 3.13456 5.05645 -250
    endloop
  endfacet
  facet normal -0.968585 0.248684 0
    outer loop
      vertex -4.26609 8.53893 0.4
      vertex -3.99804 9.58294 250
      vertex -3.99804 9.58294 0.4
    endloop
  endfacet
  facet normal -0.968585 0.248684 0
    outer loop
      vertex -3.99804 9.58294 250
      vertex -4.26609 8.53893 0.4
      vertex -4.26609 8.53893 250
    endloop
  endfacet
  facet normal -0.968585 0.248684 0
    outer loop
      vertex -4.26609 8.53893 -250
      vertex -3.99804 9.58294 0
      vertex -3.99804 9.58294 -250
    endloop
  endfacet
  facet normal -0.968585 0.248684 0
    outer loop
      vertex -3.99804 9.58294 0
      vertex -4.26609 8.53893 -250
      vertex -4.26609 8.53893 0
    endloop
  endfacet
  facet normal 0.809042 0.58775 0
    outer loop
      vertex 3.76812 10.0715 0
      vertex 3.13456 10.9436 -250
      vertex 3.13456 10.9436 0
    endloop
  endfacet
  facet normal 0.809042 0.58775 0
    outer loop
      vertex 3.13456 10.9436 -250
      vertex 3.76812 10.0715 0
      vertex 3.76812 10.0715 -250
    endloop
  endfacet
  facet normal 0.809042 0.58775 0
    outer loop
      vertex 3.76812 10.0715 250
      vertex 3.13456 10.9436 0.4
      vertex 3.13456 10.9436 250
    endloop
  endfacet
  facet normal 0.809042 0.58775 0
    outer loop
      vertex 3.13456 10.9436 0.4
      vertex 3.76812 10.0715 250
      vertex 3.76812 10.0715 0.4
    endloop
  endfacet
  facet normal -0.728955 0.684561 0
    outer loop
      vertex -3.47877 10.5275 -250
      vertex -2.74092 11.3132 0
      vertex -2.74092 11.3132 -250
    endloop
  endfacet
  facet normal -0.728955 0.684561 0
    outer loop
      vertex -2.74092 11.3132 0
      vertex -3.47877 10.5275 -250
      vertex -3.47877 10.5275 0
    endloop
  endfacet
  facet normal -0.728955 0.684561 0
    outer loop
      vertex -3.47877 10.5275 0.4
      vertex -2.74092 11.3132 250
      vertex -2.74092 11.3132 0.4
    endloop
  endfacet
  facet normal -0.728955 0.684561 0
    outer loop
      vertex -2.74092 11.3132 250
      vertex -3.47877 10.5275 0.4
      vertex -3.47877 10.5275 250
    endloop
  endfacet
  facet normal -0.876309 0.481749 0
    outer loop
      vertex -3.99804 9.58294 -250
      vertex -3.47877 10.5275 0
      vertex -3.47877 10.5275 -250
    endloop
  endfacet
  facet normal -0.876309 0.481749 0
    outer loop
      vertex -3.47877 10.5275 0
      vertex -3.99804 9.58294 -250
      vertex -3.99804 9.58294 0
    endloop
  endfacet
  facet normal -0.876309 0.481749 0
    outer loop
      vertex -3.99804 9.58294 0.4
      vertex -3.47877 10.5275 250
      vertex -3.47877 10.5275 0.4
    endloop
  endfacet
  facet normal -0.876309 0.481749 0
    outer loop
      vertex -3.47877 10.5275 250
      vertex -3.99804 9.58294 0.4
      vertex -3.99804 9.58294 250
    endloop
  endfacet
  facet normal -0.728968 -0.684547 0
    outer loop
      vertex -2.74092 4.68679 -250
      vertex -3.47877 5.47252 0
      vertex -3.47877 5.47252 -250
    endloop
  endfacet
  facet normal -0.728968 -0.684547 0
    outer loop
      vertex -3.47877 5.47252 0
      vertex -2.74092 4.68679 -250
      vertex -2.74092 4.68679 0
    endloop
  endfacet
  facet normal -0.728968 -0.684547 0
    outer loop
      vertex -2.74092 4.68679 0.4
      vertex -3.47877 5.47252 250
      vertex -3.47877 5.47252 0.4
    endloop
  endfacet
  facet normal -0.728968 -0.684547 0
    outer loop
      vertex -3.47877 5.47252 250
      vertex -2.74092 4.68679 0.4
      vertex -2.74092 4.68679 250
    endloop
  endfacet
  facet normal -0.876305 -0.481757 0
    outer loop
      vertex -3.47877 5.47252 0.4
      vertex -3.99804 6.41706 250
      vertex -3.99804 6.41706 0.4
    endloop
  endfacet
  facet normal -0.876305 -0.481757 0
    outer loop
      vertex -3.99804 6.41706 250
      vertex -3.47877 5.47252 0.4
      vertex -3.47877 5.47252 250
    endloop
  endfacet
  facet normal -0.876305 -0.481757 0
    outer loop
      vertex -3.47877 5.47252 -250
      vertex -3.99804 6.41706 0
      vertex -3.99804 6.41706 -250
    endloop
  endfacet
  facet normal -0.876305 -0.481757 0
    outer loop
      vertex -3.99804 6.41706 0
      vertex -3.47877 5.47252 -250
      vertex -3.47877 5.47252 0
    endloop
  endfacet
  facet normal -0.309018 -0.951056 0
    outer loop
      vertex -1.83085 4.10924 -250
      vertex -0.805739 3.77616 0
      vertex -1.83085 4.10924 0
    endloop
  endfacet
  facet normal -0.309018 -0.951056 -0
    outer loop
      vertex -0.805739 3.77616 0
      vertex -1.83085 4.10924 -250
      vertex -0.805739 3.77616 -250
    endloop
  endfacet
  facet normal -0.309018 -0.951056 0
    outer loop
      vertex -1.83085 4.10924 0.4
      vertex -0.805739 3.77616 250
      vertex -1.83085 4.10924 250
    endloop
  endfacet
  facet normal -0.309018 -0.951056 -0
    outer loop
      vertex -0.805739 3.77616 250
      vertex -1.83085 4.10924 0.4
      vertex -0.805739 3.77616 0.4
    endloop
  endfacet
  facet normal 0.187407 0.982282 -0
    outer loop
      vertex 1.32877 12.0895 -250
      vertex 0.269999 12.2915 0
      vertex 1.32877 12.0895 0
    endloop
  endfacet
  facet normal 0.187407 0.982282 0
    outer loop
      vertex 0.269999 12.2915 0
      vertex 1.32877 12.0895 -250
      vertex 0.269999 12.2915 -250
    endloop
  endfacet
  facet normal 0.187407 0.982282 -0
    outer loop
      vertex 1.32877 12.0895 0.4
      vertex 0.269999 12.2915 250
      vertex 1.32877 12.0895 250
    endloop
  endfacet
  facet normal 0.187407 0.982282 0
    outer loop
      vertex 0.269999 12.2915 250
      vertex 1.32877 12.0895 0.4
      vertex 0.269999 12.2915 0.4
    endloop
  endfacet
  facet normal 0.425751 0.90484 -0
    outer loop
      vertex 2.30406 11.6306 0.4
      vertex 1.32877 12.0895 250
      vertex 2.30406 11.6306 250
    endloop
  endfacet
  facet normal 0.425751 0.90484 0
    outer loop
      vertex 1.32877 12.0895 250
      vertex 2.30406 11.6306 0.4
      vertex 1.32877 12.0895 0.4
    endloop
  endfacet
  facet normal 0.425751 0.90484 -0
    outer loop
      vertex 2.30406 11.6306 -250
      vertex 1.32877 12.0895 0
      vertex 2.30406 11.6306 0
    endloop
  endfacet
  facet normal 0.425751 0.90484 0
    outer loop
      vertex 1.32877 12.0895 0
      vertex 2.30406 11.6306 -250
      vertex 1.32877 12.0895 -250
    endloop
  endfacet
  facet normal 0.187389 -0.982286 0
    outer loop
      vertex 0.269999 3.70848 -250
      vertex 1.32877 3.91046 0
      vertex 0.269999 3.70848 0
    endloop
  endfacet
  facet normal 0.187389 -0.982286 0
    outer loop
      vertex 1.32877 3.91046 0
      vertex 0.269999 3.70848 -250
      vertex 1.32877 3.91046 -250
    endloop
  endfacet
  facet normal 0.187389 -0.982286 0
    outer loop
      vertex 0.269999 3.70848 0.4
      vertex 1.32877 3.91046 250
      vertex 0.269999 3.70848 250
    endloop
  endfacet
  facet normal 0.187389 -0.982286 0
    outer loop
      vertex 1.32877 3.91046 250
      vertex 0.269999 3.70848 0.4
      vertex 1.32877 3.91046 0.4
    endloop
  endfacet
  facet normal -0.0627908 -0.998027 0
    outer loop
      vertex -0.805739 3.77616 -250
      vertex 0.269999 3.70848 0
      vertex -0.805739 3.77616 0
    endloop
  endfacet
  facet normal -0.0627908 -0.998027 -0
    outer loop
      vertex 0.269999 3.70848 0
      vertex -0.805739 3.77616 -250
      vertex 0.269999 3.70848 -250
    endloop
  endfacet
  facet normal -0.0627908 -0.998027 0
    outer loop
      vertex -0.805739 3.77616 0.4
      vertex 0.269999 3.70848 250
      vertex -0.805739 3.77616 250
    endloop
  endfacet
  facet normal -0.0627908 -0.998027 -0
    outer loop
      vertex 0.269999 3.70848 250
      vertex -0.805739 3.77616 0.4
      vertex 0.269999 3.70848 0.4
    endloop
  endfacet
  facet normal 0.637397 0.770536 -0
    outer loop
      vertex 3.13456 10.9436 0.4
      vertex 2.30406 11.6306 250
      vertex 3.13456 10.9436 250
    endloop
  endfacet
  facet normal 0.637397 0.770536 0
    outer loop
      vertex 2.30406 11.6306 250
      vertex 3.13456 10.9436 0.4
      vertex 2.30406 11.6306 0.4
    endloop
  endfacet
  facet normal 0.637397 0.770536 -0
    outer loop
      vertex 3.13456 10.9436 -250
      vertex 2.30406 11.6306 0
      vertex 3.13456 10.9436 0
    endloop
  endfacet
  facet normal 0.637397 0.770536 0
    outer loop
      vertex 2.30406 11.6306 0
      vertex 3.13456 10.9436 -250
      vertex 2.30406 11.6306 -250
    endloop
  endfacet
  facet normal -0.535861 0.844306 0
    outer loop
      vertex -1.83085 11.8908 0.4
      vertex -2.74092 11.3132 250
      vertex -1.83085 11.8908 250
    endloop
  endfacet
  facet normal -0.535861 0.844306 0
    outer loop
      vertex -2.74092 11.3132 250
      vertex -1.83085 11.8908 0.4
      vertex -2.74092 11.3132 0.4
    endloop
  endfacet
  facet normal -0.535861 0.844306 0
    outer loop
      vertex -1.83085 11.8908 -250
      vertex -2.74092 11.3132 0
      vertex -1.83085 11.8908 0
    endloop
  endfacet
  facet normal -0.535861 0.844306 0
    outer loop
      vertex -2.74092 11.3132 0
      vertex -1.83085 11.8908 -250
      vertex -2.74092 11.3132 -250
    endloop
  endfacet
  facet normal -0.308951 0.951078 0
    outer loop
      vertex -0.805739 12.2238 -250
      vertex -1.83085 11.8908 0
      vertex -0.805739 12.2238 0
    endloop
  endfacet
  facet normal -0.308951 0.951078 0
    outer loop
      vertex -1.83085 11.8908 0
      vertex -0.805739 12.2238 -250
      vertex -1.83085 11.8908 -250
    endloop
  endfacet
  facet normal -0.308951 0.951078 0
    outer loop
      vertex -0.805739 12.2238 0.4
      vertex -1.83085 11.8908 250
      vertex -0.805739 12.2238 250
    endloop
  endfacet
  facet normal -0.308951 0.951078 0
    outer loop
      vertex -1.83085 11.8908 250
      vertex -0.805739 12.2238 0.4
      vertex -1.83085 11.8908 0.4
    endloop
  endfacet
  facet normal 0.929771 0.36814 0
    outer loop
      vertex 4.16491 9.06937 0
      vertex 3.76812 10.0715 -250
      vertex 3.76812 10.0715 0
    endloop
  endfacet
  facet normal 0.929771 0.36814 0
    outer loop
      vertex 3.76812 10.0715 -250
      vertex 4.16491 9.06937 0
      vertex 4.16491 9.06937 -250
    endloop
  endfacet
  facet normal 0.929771 0.36814 0
    outer loop
      vertex 4.16491 9.06937 250
      vertex 3.76812 10.0715 0.4
      vertex 3.76812 10.0715 250
    endloop
  endfacet
  facet normal 0.929771 0.36814 0
    outer loop
      vertex 3.76812 10.0715 0.4
      vertex 4.16491 9.06937 250
      vertex 4.16491 9.06937 0.4
    endloop
  endfacet
  facet normal 0 0 1
    outer loop
      vertex 3.9472 8 0
      vertex 4.3 8 0
      vertex 4.16491 9.06937 0
    endloop
  endfacet
  facet normal 0 0 1
    outer loop
      vertex 4.3 8 0
      vertex 3.9472 8 0
      vertex 4.16491 6.93063 0
    endloop
  endfacet
  facet normal 0 0 1
    outer loop
      vertex 4.16491 9.06937 0
      vertex 3.8232 8.98164 0
      vertex 3.9472 8 0
    endloop
  endfacet
  facet normal 0 0 1
    outer loop
      vertex 3.76812 10.0715 0
      vertex 3.8232 8.98164 0
      vertex 4.16491 9.06937 0
    endloop
  endfacet
  facet normal 0 0 1
    outer loop
      vertex 3.76812 10.0715 0
      vertex 3.45895 9.9016 0
      vertex 3.8232 8.98164 0
    endloop
  endfacet
  facet normal 0 0 1
    outer loop
      vertex 3.13456 10.9436 0
      vertex 3.45895 9.9016 0
      vertex 3.76812 10.0715 0
    endloop
  endfacet
  facet normal 0 0 1
    outer loop
      vertex 3.13456 10.9436 0
      vertex 2.8774 10.702 0
      vertex 3.45895 9.9016 0
    endloop
  endfacet
  facet normal 0 0 1
    outer loop
      vertex 2.30406 11.6306 0
      vertex 2.8774 10.702 0
      vertex 3.13456 10.9436 0
    endloop
  endfacet
  facet normal 0 0 1
    outer loop
      vertex 2.30406 11.6306 0
      vertex 2.11502 11.3327 0
      vertex 2.8774 10.702 0
    endloop
  endfacet
  facet normal 0 0 1
    outer loop
      vertex 1.32877 12.0895 0
      vertex 2.11502 11.3327 0
      vertex 2.30406 11.6306 0
    endloop
  endfacet
  facet normal 0 0 1
    outer loop
      vertex 1.32877 12.0895 0
      vertex 1.21971 11.754 0
      vertex 2.11502 11.3327 0
    endloop
  endfacet
  facet normal 0 0 1
    outer loop
      vertex 0.269999 12.2915 0
      vertex 1.21971 11.754 0
      vertex 1.32877 12.0895 0
    endloop
  endfacet
  facet normal 0 0 1
    outer loop
      vertex 0.269999 12.2915 0
      vertex 0.247833 11.9394 0
      vertex 1.21971 11.754 0
    endloop
  endfacet
  facet normal 0 0 1
    outer loop
      vertex 0.269999 12.2915 0
      vertex -0.739594 11.8773 0
      vertex 0.247833 11.9394 0
    endloop
  endfacet
  facet normal -0 0 1
    outer loop
      vertex -0.805739 12.2238 0
      vertex -0.739594 11.8773 0
      vertex 0.269999 12.2915 0
    endloop
  endfacet
  facet normal 0 0 1
    outer loop
      vertex -0.805739 12.2238 0
      vertex -1.68065 11.5715 0
      vertex -0.739594 11.8773 0
    endloop
  endfacet
  facet normal -0 0 1
    outer loop
      vertex -1.83085 11.8908 0
      vertex -1.68065 11.5715 0
      vertex -0.805739 12.2238 0
    endloop
  endfacet
  facet normal 0 0 1
    outer loop
      vertex -1.83085 11.8908 0
      vertex -2.51602 11.0414 0
      vertex -1.68065 11.5715 0
    endloop
  endfacet
  facet normal -0 0 1
    outer loop
      vertex -2.74092 11.3132 0
      vertex -2.51602 11.0414 0
      vertex -1.83085 11.8908 0
    endloop
  endfacet
  facet normal 0 0 1
    outer loop
      vertex -2.74092 11.3132 0
      vertex -3.19337 10.3201 0
      vertex -2.51602 11.0414 0
    endloop
  endfacet
  facet normal -0 0 1
    outer loop
      vertex -3.47877 10.5275 0
      vertex -3.19337 10.3201 0
      vertex -2.74092 11.3132 0
    endloop
  endfacet
  facet normal 0 0 1
    outer loop
      vertex -3.47877 10.5275 0
      vertex -3.67001 9.45309 0
      vertex -3.19337 10.3201 0
    endloop
  endfacet
  facet normal -0 0 1
    outer loop
      vertex -3.99804 9.58294 0
      vertex -3.67001 9.45309 0
      vertex -3.47877 10.5275 0
    endloop
  endfacet
  facet normal -0 0 1
    outer loop
      vertex -4.26609 8.53893 0
      vertex -3.91608 8.49474 0
      vertex -3.99804 9.58294 0
    endloop
  endfacet
  facet normal 0 0 1
    outer loop
      vertex -3.67001 9.45309 0
      vertex -3.99804 9.58294 0
      vertex -3.91608 8.49474 0
    endloop
  endfacet
  facet normal -0 0 1
    outer loop
      vertex 3.8232 7.01834 0
      vertex 4.16491 6.93063 0
      vertex 3.9472 8 0
    endloop
  endfacet
  facet normal 0 0 1
    outer loop
      vertex 3.8232 7.01834 0
      vertex 3.76812 5.92846 0
      vertex 4.16491 6.93063 0
    endloop
  endfacet
  facet normal -0 0 1
    outer loop
      vertex 3.45895 6.09839 0
      vertex 3.76812 5.92846 0
      vertex 3.8232 7.01834 0
    endloop
  endfacet
  facet normal 0 0 1
    outer loop
      vertex 3.45895 6.09839 0
      vertex 3.13456 5.05645 0
      vertex 3.76812 5.92846 0
    endloop
  endfacet
  facet normal -0 0 1
    outer loop
      vertex 2.8774 5.29796 0
      vertex 3.13456 5.05645 0
      vertex 3.45895 6.09839 0
    endloop
  endfacet
  facet normal 0 0 1
    outer loop
      vertex 2.8774 5.29796 0
      vertex 2.30406 4.36939 0
      vertex 3.13456 5.05645 0
    endloop
  endfacet
  facet normal -0 0 1
    outer loop
      vertex 2.11502 4.66725 0
      vertex 2.30406 4.36939 0
      vertex 2.8774 5.29796 0
    endloop
  endfacet
  facet normal 0 0 1
    outer loop
      vertex 2.11502 4.66725 0
      vertex 1.32877 3.91046 0
      vertex 2.30406 4.36939 0
    endloop
  endfacet
  facet normal -0 0 1
    outer loop
      vertex 1.21971 4.24596 0
      vertex 1.32877 3.91046 0
      vertex 2.11502 4.66725 0
    endloop
  endfacet
  facet normal 0 0 1
    outer loop
      vertex 1.21971 4.24596 0
      vertex 0.269999 3.70848 0
      vertex 1.32877 3.91046 0
    endloop
  endfacet
  facet normal -0 0 1
    outer loop
      vertex 0.247833 4.06056 0
      vertex 0.269999 3.70848 0
      vertex 1.21971 4.24596 0
    endloop
  endfacet
  facet normal 0 0 1
    outer loop
      vertex -0.739594 4.12268 0
      vertex 0.269999 3.70848 0
      vertex 0.247833 4.06056 0
    endloop
  endfacet
  facet normal 0 0 1
    outer loop
      vertex -0.739594 4.12268 0
      vertex -0.805739 3.77616 0
      vertex 0.269999 3.70848 0
    endloop
  endfacet
  facet normal 0 0 1
    outer loop
      vertex -1.68065 4.42845 0
      vertex -0.805739 3.77616 0
      vertex -0.739594 4.12268 0
    endloop
  endfacet
  facet normal 0 0 1
    outer loop
      vertex -1.68065 4.42845 0
      vertex -1.83085 4.10924 0
      vertex -0.805739 3.77616 0
    endloop
  endfacet
  facet normal 0 0 1
    outer loop
      vertex -2.51602 4.95859 0
      vertex -1.83085 4.10924 0
      vertex -1.68065 4.42845 0
    endloop
  endfacet
  facet normal 0 0 1
    outer loop
      vertex -2.51602 4.95859 0
      vertex -2.74092 4.68679 0
      vertex -1.83085 4.10924 0
    endloop
  endfacet
  facet normal 0 0 1
    outer loop
      vertex -3.19337 5.67992 0
      vertex -2.74092 4.68679 0
      vertex -2.51602 4.95859 0
    endloop
  endfacet
  facet normal 0 0 1
    outer loop
      vertex -3.19337 5.67992 0
      vertex -3.47877 5.47252 0
      vertex -2.74092 4.68679 0
    endloop
  endfacet
  facet normal 0 0 1
    outer loop
      vertex -3.67001 6.54689 0
      vertex -3.47877 5.47252 0
      vertex -3.19337 5.67992 0
    endloop
  endfacet
  facet normal 0 0 1
    outer loop
      vertex -3.99804 6.41706 0
      vertex -3.67001 6.54689 0
      vertex -3.91608 7.50525 0
    endloop
  endfacet
  facet normal 0 0 1
    outer loop
      vertex -3.67001 6.54689 0
      vertex -3.99804 6.41706 0
      vertex -3.47877 5.47252 0
    endloop
  endfacet
  facet normal 0 0 1
    outer loop
      vertex -3.91608 8.49474 0
      vertex -4.26609 8.53893 0
      vertex -3.91608 7.50525 0
    endloop
  endfacet
  facet normal 0 0 1
    outer loop
      vertex -4.26609 7.46107 0
      vertex -3.91608 7.50525 0
      vertex -4.26609 8.53893 0
    endloop
  endfacet
  facet normal 0 0 1
    outer loop
      vertex -3.91608 7.50525 0
      vertex -4.26609 7.46107 0
      vertex -3.99804 6.41706 0
    endloop
  endfacet
  facet normal 0 0 -1
    outer loop
      vertex 3.9472 8 0.4
      vertex 4.3 8 0.4
      vertex 4.16491 6.93063 0.4
    endloop
  endfacet
  facet normal 0 0 -1
    outer loop
      vertex 4.3 8 0.4
      vertex 3.9472 8 0.4
      vertex 4.16491 9.06937 0.4
    endloop
  endfacet
  facet normal 0 0 -1
    outer loop
      vertex 4.16491 6.93063 0.4
      vertex 3.8232 7.01834 0.4
      vertex 3.9472 8 0.4
    endloop
  endfacet
  facet normal 0 0 -1
    outer loop
      vertex 3.76812 5.92846 0.4
      vertex 3.8232 7.01834 0.4
      vertex 4.16491 6.93063 0.4
    endloop
  endfacet
  facet normal 0 0 -1
    outer loop
      vertex 3.76812 5.92846 0.4
      vertex 3.45895 6.09839 0.4
      vertex 3.8232 7.01834 0.4
    endloop
  endfacet
  facet normal 0 0 -1
    outer loop
      vertex 3.13456 5.05645 0.4
      vertex 3.45895 6.09839 0.4
      vertex 3.76812 5.92846 0.4
    endloop
  endfacet
  facet normal 0 0 -1
    outer loop
      vertex 3.13456 5.05645 0.4
      vertex 2.8774 5.29796 0.4
      vertex 3.45895 6.09839 0.4
    endloop
  endfacet
  facet normal 0 0 -1
    outer loop
      vertex 2.30406 4.36939 0.4
      vertex 2.8774 5.29796 0.4
      vertex 3.13456 5.05645 0.4
    endloop
  endfacet
  facet normal 0 0 -1
    outer loop
      vertex 2.30406 4.36939 0.4
      vertex 2.11502 4.66725 0.4
      vertex 2.8774 5.29796 0.4
    endloop
  endfacet
  facet normal 0 0 -1
    outer loop
      vertex 1.32877 3.91046 0.4
      vertex 2.11502 4.66725 0.4
      vertex 2.30406 4.36939 0.4
    endloop
  endfacet
  facet normal 0 0 -1
    outer loop
      vertex 1.32877 3.91046 0.4
      vertex 1.21971 4.24596 0.4
      vertex 2.11502 4.66725 0.4
    endloop
  endfacet
  facet normal 0 0 -1
    outer loop
      vertex 0.269999 3.70848 0.4
      vertex 1.21971 4.24596 0.4
      vertex 1.32877 3.91046 0.4
    endloop
  endfacet
  facet normal 0 0 -1
    outer loop
      vertex 0.269999 3.70848 0.4
      vertex 0.247833 4.06056 0.4
      vertex 1.21971 4.24596 0.4
    endloop
  endfacet
  facet normal 0 0 -1
    outer loop
      vertex 0.269999 3.70848 0.4
      vertex -0.739594 4.12268 0.4
      vertex 0.247833 4.06056 0.4
    endloop
  endfacet
  facet normal 0 0 -1
    outer loop
      vertex -0.805739 3.77616 0.4
      vertex -0.739594 4.12268 0.4
      vertex 0.269999 3.70848 0.4
    endloop
  endfacet
  facet normal 0 0 -1
    outer loop
      vertex -0.805739 3.77616 0.4
      vertex -1.68065 4.42845 0.4
      vertex -0.739594 4.12268 0.4
    endloop
  endfacet
  facet normal 0 0 -1
    outer loop
      vertex -1.83085 4.10924 0.4
      vertex -1.68065 4.42845 0.4
      vertex -0.805739 3.77616 0.4
    endloop
  endfacet
  facet normal 0 0 -1
    outer loop
      vertex -1.83085 4.10924 0.4
      vertex -2.51602 4.95859 0.4
      vertex -1.68065 4.42845 0.4
    endloop
  endfacet
  facet normal 0 0 -1
    outer loop
      vertex -2.74092 4.68679 0.4
      vertex -2.51602 4.95859 0.4
      vertex -1.83085 4.10924 0.4
    endloop
  endfacet
  facet normal 0 0 -1
    outer loop
      vertex -2.74092 4.68679 0.4
      vertex -3.19337 5.67992 0.4
      vertex -2.51602 4.95859 0.4
    endloop
  endfacet
  facet normal 0 0 -1
    outer loop
      vertex -3.47877 5.47252 0.4
      vertex -3.19337 5.67992 0.4
      vertex -2.74092 4.68679 0.4
    endloop
  endfacet
  facet normal 0 0 -1
    outer loop
      vertex -3.47877 5.47252 0.4
      vertex -3.67001 6.54689 0.4
      vertex -3.19337 5.67992 0.4
    endloop
  endfacet
  facet normal 0 0 -1
    outer loop
      vertex -3.99804 6.41706 0.4
      vertex -3.67001 6.54689 0.4
      vertex -3.47877 5.47252 0.4
    endloop
  endfacet
  facet normal 0 0 -1
    outer loop
      vertex -4.26609 7.46107 0.4
      vertex -3.91608 7.50525 0.4
      vertex -3.99804 6.41706 0.4
    endloop
  endfacet
  facet normal -0 0 -1
    outer loop
      vertex -3.67001 6.54689 0.4
      vertex -3.99804 6.41706 0.4
      vertex -3.91608 7.50525 0.4
    endloop
  endfacet
  facet normal 0 0 -1
    outer loop
      vertex 3.8232 8.98164 0.4
      vertex 4.16491 9.06937 0.4
      vertex 3.9472 8 0.4
    endloop
  endfacet
  facet normal 0 0 -1
    outer loop
      vertex 3.8232 8.98164 0.4
      vertex 3.76812 10.0715 0.4
      vertex 4.16491 9.06937 0.4
    endloop
  endfacet
  facet normal 0 0 -1
    outer loop
      vertex 3.45895 9.9016 0.4
      vertex 3.76812 10.0715 0.4
      vertex 3.8232 8.98164 0.4
    endloop
  endfacet
  facet normal 0 0 -1
    outer loop
      vertex 3.45895 9.9016 0.4
      vertex 3.13456 10.9436 0.4
      vertex 3.76812 10.0715 0.4
    endloop
  endfacet
  facet normal 0 0 -1
    outer loop
      vertex 2.8774 10.702 0.4
      vertex 3.13456 10.9436 0.4
      vertex 3.45895 9.9016 0.4
    endloop
  endfacet
  facet normal 0 0 -1
    outer loop
      vertex 2.8774 10.702 0.4
      vertex 2.30406 11.6306 0.4
      vertex 3.13456 10.9436 0.4
    endloop
  endfacet
  facet normal 0 0 -1
    outer loop
      vertex 2.11502 11.3327 0.4
      vertex 2.30406 11.6306 0.4
      vertex 2.8774 10.702 0.4
    endloop
  endfacet
  facet normal 0 0 -1
    outer loop
      vertex 2.11502 11.3327 0.4
      vertex 1.32877 12.0895 0.4
      vertex 2.30406 11.6306 0.4
    endloop
  endfacet
  facet normal 0 0 -1
    outer loop
      vertex 1.21971 11.754 0.4
      vertex 1.32877 12.0895 0.4
      vertex 2.11502 11.3327 0.4
    endloop
  endfacet
  facet normal 0 0 -1
    outer loop
      vertex 1.21971 11.754 0.4
      vertex 0.269999 12.2915 0.4
      vertex 1.32877 12.0895 0.4
    endloop
  endfacet
  facet normal 0 0 -1
    outer loop
      vertex 0.247833 11.9394 0.4
      vertex 0.269999 12.2915 0.4
      vertex 1.21971 11.754 0.4
    endloop
  endfacet
  facet normal 0 0 -1
    outer loop
      vertex -0.739594 11.8773 0.4
      vertex 0.269999 12.2915 0.4
      vertex 0.247833 11.9394 0.4
    endloop
  endfacet
  facet normal 0 0 -1
    outer loop
      vertex -0.739594 11.8773 0.4
      vertex -0.805739 12.2238 0.4
      vertex 0.269999 12.2915 0.4
    endloop
  endfacet
  facet normal 0 0 -1
    outer loop
      vertex -1.68065 11.5715 0.4
      vertex -0.805739 12.2238 0.4
      vertex -0.739594 11.8773 0.4
    endloop
  endfacet
  facet normal 0 0 -1
    outer loop
      vertex -1.68065 11.5715 0.4
      vertex -1.83085 11.8908 0.4
      vertex -0.805739 12.2238 0.4
    endloop
  endfacet
  facet normal 0 0 -1
    outer loop
      vertex -2.51602 11.0414 0.4
      vertex -1.83085 11.8908 0.4
      vertex -1.68065 11.5715 0.4
    endloop
  endfacet
  facet normal 0 0 -1
    outer loop
      vertex -2.51602 11.0414 0.4
      vertex -2.74092 11.3132 0.4
      vertex -1.83085 11.8908 0.4
    endloop
  endfacet
  facet normal 0 0 -1
    outer loop
      vertex -3.19337 10.3201 0.4
      vertex -2.74092 11.3132 0.4
      vertex -2.51602 11.0414 0.4
    endloop
  endfacet
  facet normal 0 0 -1
    outer loop
      vertex -3.19337 10.3201 0.4
      vertex -3.47877 10.5275 0.4
      vertex -2.74092 11.3132 0.4
    endloop
  endfacet
  facet normal 0 0 -1
    outer loop
      vertex -3.67001 9.45309 0.4
      vertex -3.47877 10.5275 0.4
      vertex -3.19337 10.3201 0.4
    endloop
  endfacet
  facet normal 0 0 -1
    outer loop
      vertex -3.99804 9.58294 0.4
      vertex -3.67001 9.45309 0.4
      vertex -3.91608 8.49474 0.4
    endloop
  endfacet
  facet normal 0 0 -1
    outer loop
      vertex -3.67001 9.45309 0.4
      vertex -3.99804 9.58294 0.4
      vertex -3.47877 10.5275 0.4
    endloop
  endfacet
  facet normal -0 0 -1
    outer loop
      vertex -3.91608 7.50525 0.4
      vertex -4.26609 7.46107 0.4
      vertex -3.91608 8.49474 0.4
    endloop
  endfacet
  facet normal 0 0 -1
    outer loop
      vertex -4.26609 8.53893 0.4
      vertex -3.91608 8.49474 0.4
      vertex -4.26609 7.46107 0.4
    endloop
  endfacet
  facet normal 0 0 -1
    outer loop
      vertex -3.91608 8.49474 0.4
      vertex -4.26609 8.53893 0.4
      vertex -3.99804 9.58294 0.4
    endloop
  endfacet
  facet normal 0.637433 -0.770506 0
    outer loop
      vertex 2.11502 4.66725 0
      vertex 2.8774 5.29796 0.4
      vertex 2.11502 4.66725 0.4
    endloop
  endfacet
  facet normal 0.637433 -0.770506 0
    outer loop
      vertex 2.8774 5.29796 0.4
      vertex 2.11502 4.66725 0
      vertex 2.8774 5.29796 0
    endloop
  endfacet
  facet normal 0.187386 -0.982286 0
    outer loop
      vertex 0.247833 4.06056 0
      vertex 1.21971 4.24596 0.4
      vertex 0.247833 4.06056 0.4
    endloop
  endfacet
  facet normal 0.187386 -0.982286 0
    outer loop
      vertex 1.21971 4.24596 0.4
      vertex 0.247833 4.06056 0
      vertex 1.21971 4.24596 0
    endloop
  endfacet
  facet normal -0.535797 0.844347 0
    outer loop
      vertex -1.68065 11.5715 0
      vertex -2.51602 11.0414 0.4
      vertex -1.68065 11.5715 0.4
    endloop
  endfacet
  facet normal -0.535797 0.844347 0
    outer loop
      vertex -2.51602 11.0414 0.4
      vertex -1.68065 11.5715 0
      vertex -2.51602 11.0414 0
    endloop
  endfacet
  facet normal 0.42577 -0.904831 0
    outer loop
      vertex 1.21971 4.24596 0
      vertex 2.11502 4.66725 0.4
      vertex 1.21971 4.24596 0.4
    endloop
  endfacet
  facet normal 0.42577 -0.904831 0
    outer loop
      vertex 2.11502 4.66725 0.4
      vertex 1.21971 4.24596 0
      vertex 2.11502 4.66725 0
    endloop
  endfacet
  facet normal 0.809005 0.587802 0
    outer loop
      vertex 3.45895 9.9016 0.4
      vertex 2.8774 10.702 0
      vertex 2.8774 10.702 0.4
    endloop
  endfacet
  facet normal 0.809005 0.587802 0
    outer loop
      vertex 2.8774 10.702 0
      vertex 3.45895 9.9016 0.4
      vertex 3.45895 9.9016 0
    endloop
  endfacet
  facet normal -0.876308 0.481752 0
    outer loop
      vertex -3.67001 9.45309 0
      vertex -3.19337 10.3201 0.4
      vertex -3.19337 10.3201 0
    endloop
  endfacet
  facet normal -0.876308 0.481752 0
    outer loop
      vertex -3.19337 10.3201 0.4
      vertex -3.67001 9.45309 0
      vertex -3.67001 9.45309 0.4
    endloop
  endfacet
  facet normal -0.728967 0.684549 0
    outer loop
      vertex -3.19337 10.3201 0
      vertex -2.51602 11.0414 0.4
      vertex -2.51602 11.0414 0
    endloop
  endfacet
  facet normal -0.728967 0.684549 0
    outer loop
      vertex -2.51602 11.0414 0.4
      vertex -3.19337 10.3201 0
      vertex -3.19337 10.3201 0.4
    endloop
  endfacet
  facet normal -0.968581 0.248697 0
    outer loop
      vertex -3.91608 8.49474 0
      vertex -3.67001 9.45309 0.4
      vertex -3.67001 9.45309 0
    endloop
  endfacet
  facet normal -0.968581 0.248697 0
    outer loop
      vertex -3.67001 9.45309 0.4
      vertex -3.91608 8.49474 0
      vertex -3.91608 8.49474 0.4
    endloop
  endfacet
  facet normal -0.309019 -0.951056 0
    outer loop
      vertex -1.68065 4.42845 0
      vertex -0.739594 4.12268 0.4
      vertex -1.68065 4.42845 0.4
    endloop
  endfacet
  facet normal -0.309019 -0.951056 -0
    outer loop
      vertex -0.739594 4.12268 0.4
      vertex -1.68065 4.42845 0
      vertex -0.739594 4.12268 0
    endloop
  endfacet
  facet normal 0.187386 0.982286 -0
    outer loop
      vertex 1.21971 11.754 0
      vertex 0.247833 11.9394 0.4
      vertex 1.21971 11.754 0.4
    endloop
  endfacet
  facet normal 0.187386 0.982286 0
    outer loop
      vertex 0.247833 11.9394 0.4
      vertex 1.21971 11.754 0
      vertex 0.247833 11.9394 0
    endloop
  endfacet
  facet normal 0.637427 0.770511 -0
    outer loop
      vertex 2.8774 10.702 0
      vertex 2.11502 11.3327 0.4
      vertex 2.8774 10.702 0.4
    endloop
  endfacet
  facet normal 0.637427 0.770511 0
    outer loop
      vertex 2.11502 11.3327 0.4
      vertex 2.8774 10.702 0
      vertex 2.11502 11.3327 0
    endloop
  endfacet
  facet normal -0.0627667 0.998028 0
    outer loop
      vertex 0.247833 11.9394 0
      vertex -0.739594 11.8773 0.4
      vertex 0.247833 11.9394 0.4
    endloop
  endfacet
  facet normal -0.0627667 0.998028 0
    outer loop
      vertex -0.739594 11.8773 0.4
      vertex 0.247833 11.9394 0
      vertex -0.739594 11.8773 0
    endloop
  endfacet
  facet normal 0.992116 0.125323 0
    outer loop
      vertex 3.9472 8 0.4
      vertex 3.8232 8.98164 0
      vertex 3.8232 8.98164 0.4
    endloop
  endfacet
  facet normal 0.992116 0.125323 0
    outer loop
      vertex 3.8232 8.98164 0
      vertex 3.9472 8 0.4
      vertex 3.9472 8 0
    endloop
  endfacet
  facet normal -1 0 0
    outer loop
      vertex -3.91608 7.50525 0
      vertex -3.91608 8.49474 0.4
      vertex -3.91608 8.49474 0
    endloop
  endfacet
  facet normal -1 -0 0
    outer loop
      vertex -3.91608 8.49474 0.4
      vertex -3.91608 7.50525 0
      vertex -3.91608 7.50525 0.4
    endloop
  endfacet
  facet normal -0.876298 -0.481769 0
    outer loop
      vertex -3.19337 5.67992 0
      vertex -3.67001 6.54689 0.4
      vertex -3.67001 6.54689 0
    endloop
  endfacet
  facet normal -0.876298 -0.481769 0
    outer loop
      vertex -3.67001 6.54689 0.4
      vertex -3.19337 5.67992 0
      vertex -3.19337 5.67992 0.4
    endloop
  endfacet
  facet normal -0.535825 -0.844329 0
    outer loop
      vertex -2.51602 4.95859 0
      vertex -1.68065 4.42845 0.4
      vertex -2.51602 4.95859 0.4
    endloop
  endfacet
  facet normal -0.535825 -0.844329 -0
    outer loop
      vertex -1.68065 4.42845 0.4
      vertex -2.51602 4.95859 0
      vertex -1.68065 4.42845 0
    endloop
  endfacet
  facet normal -0.0627869 -0.998027 0
    outer loop
      vertex -0.739594 4.12268 0
      vertex 0.247833 4.06056 0.4
      vertex -0.739594 4.12268 0.4
    endloop
  endfacet
  facet normal -0.0627869 -0.998027 -0
    outer loop
      vertex 0.247833 4.06056 0.4
      vertex -0.739594 4.12268 0
      vertex 0.247833 4.06056 0
    endloop
  endfacet
  facet normal 0.425779 0.904827 -0
    outer loop
      vertex 2.11502 11.3327 0
      vertex 1.21971 11.754 0.4
      vertex 2.11502 11.3327 0.4
    endloop
  endfacet
  facet normal 0.425779 0.904827 0
    outer loop
      vertex 1.21971 11.754 0.4
      vertex 2.11502 11.3327 0
      vertex 1.21971 11.754 0
    endloop
  endfacet
  facet normal -0.309047 0.951047 0
    outer loop
      vertex -0.739594 11.8773 0
      vertex -1.68065 11.5715 0.4
      vertex -0.739594 11.8773 0.4
    endloop
  endfacet
  facet normal -0.309047 0.951047 0
    outer loop
      vertex -1.68065 11.5715 0.4
      vertex -0.739594 11.8773 0
      vertex -1.68065 11.5715 0
    endloop
  endfacet
  facet normal 0.929772 0.368135 0
    outer loop
      vertex 3.8232 8.98164 0.4
      vertex 3.45895 9.9016 0
      vertex 3.45895 9.9016 0.4
    endloop
  endfacet
  facet normal 0.929772 0.368135 0
    outer loop
      vertex 3.45895 9.9016 0
      vertex 3.8232 8.98164 0.4
      vertex 3.8232 8.98164 0
    endloop
  endfacet
  facet normal 0.992116 -0.125321 0
    outer loop
      vertex 3.8232 7.01834 0.4
      vertex 3.9472 8 0
      vertex 3.9472 8 0.4
    endloop
  endfacet
  facet normal 0.992116 -0.125321 0
    outer loop
      vertex 3.9472 8 0
      vertex 3.8232 7.01834 0.4
      vertex 3.8232 7.01834 0
    endloop
  endfacet
  facet normal 0.809015 -0.587788 0
    outer loop
      vertex 2.8774 5.29796 0.4
      vertex 3.45895 6.09839 0
      vertex 3.45895 6.09839 0.4
    endloop
  endfacet
  facet normal 0.809015 -0.587788 0
    outer loop
      vertex 3.45895 6.09839 0
      vertex 2.8774 5.29796 0.4
      vertex 2.8774 5.29796 0
    endloop
  endfacet
  facet normal -0.968582 -0.248695 0
    outer loop
      vertex -3.67001 6.54689 0
      vertex -3.91608 7.50525 0.4
      vertex -3.91608 7.50525 0
    endloop
  endfacet
  facet normal -0.968582 -0.248695 0
    outer loop
      vertex -3.91608 7.50525 0.4
      vertex -3.67001 6.54689 0
      vertex -3.67001 6.54689 0.4
    endloop
  endfacet
  facet normal -0.728981 -0.684534 0
    outer loop
      vertex -2.51602 4.95859 0
      vertex -3.19337 5.67992 0.4
      vertex -3.19337 5.67992 0
    endloop
  endfacet
  facet normal -0.728981 -0.684534 0
    outer loop
      vertex -3.19337 5.67992 0.4
      vertex -2.51602 4.95859 0
      vertex -2.51602 4.95859 0.4
    endloop
  endfacet
  facet normal 0.929771 -0.368139 0
    outer loop
      vertex 3.45895 6.09839 0.4
      vertex 3.8232 7.01834 0
      vertex 3.8232 7.01834 0.4
    endloop
  endfacet
  facet normal 0.929771 -0.368139 0
    outer loop
      vertex 3.8232 7.01834 0
      vertex 3.45895 6.09839 0.4
      vertex 3.45895 6.09839 0
    endloop
  endfacet
endsolid OpenSCAD_Model
