  0
SECTION
  2
HEADER
  9
$ACADVER
  1
AC1021
  9
$ACADMAINTVER
 70
    25
  9
$DWGCODEPAGE
  3
ANSI_1252
  9
$INSBASE
 10
0.0
 20
0.0
 30
0.0
  9
$EXTMIN
 10
-16.17824
 20
-17.52825
 30
0.0
  9
$EXTMAX
 10
-4.82176
 20
-12.17175
 30
0.0
  9
$LIMMIN
 10
0.0
 20
0.0
  9
$LIMMAX
 10
12.0
 20
9.0
  9
$ORTHOMODE
 70
     0
  9
$REGENMODE
 70
     1
  9
$FILLMODE
 70
     1
  9
$QTEXTMODE
 70
     0
  9
$MIRRTEXT
 70
     1
  9
$LTSCALE
 40
1.0
  9
$ATTMODE
 70
     1
  9
$TEXTSIZE
 40
0.2
  9
$TRACEWID
 40
0.05
  9
$TEXTSTYLE
  7
Standard
  9
$CLAYER
  8
0
  9
$CELTYPE
  6
ByLayer
  9
$CECOLOR
 62
   256
  9
$CELTSCALE
 40
1.0
  9
$DISPSILH
 70
     0
  9
$DIMSCALE
 40
1.0
  9
$DIMASZ
 40
0.18
  9
$DIMEXO
 40
0.0625
  9
$DIMDLI
 40
0.38
  9
$DIMRND
 40
0.0
  9
$DIMDLE
 40
0.0
  9
$DIMEXE
 40
0.18
  9
$DIMTP
 40
0.0
  9
$DIMTM
 40
0.0
  9
$DIMTXT
 40
0.18
  9
$DIMCEN
 40
0.09
  9
$DIMTSZ
 40
0.0
  9
$DIMTOL
 70
     0
  9
$DIMLIM
 70
     0
  9
$DIMTIH
 70
     1
  9
$DIMTOH
 70
     1
  9
$DIMSE1
 70
     0
  9
$DIMSE2
 70
     0
  9
$DIMTAD
 70
     0
  9
$DIMZIN
 70
     0
  9
$DIMBLK
  1

  9
$DIMASO
 70
     1
  9
$DIMSHO
 70
     1
  9
$DIMPOST
  1

  9
$DIMAPOST
  1

  9
$DIMALT
 70
     0
  9
$DIMALTD
 70
     2
  9
$DIMALTF
 40
25.4
  9
$DIMLFAC
 40
1.0
  9
$DIMTOFL
 70
     0
  9
$DIMTVP
 40
0.0
  9
$DIMTIX
 70
     0
  9
$DIMSOXD
 70
     0
  9
$DIMSAH
 70
     0
  9
$DIMBLK1
  1

  9
$DIMBLK2
  1

  9
$DIMSTYLE
  2
Standard
  9
$DIMCLRD
 70
     0
  9
$DIMCLRE
 70
     0
  9
$DIMCLRT
 70
     0
  9
$DIMTFAC
 40
1.0
  9
$DIMGAP
 40
0.09
  9
$DIMJUST
 70
     0
  9
$DIMSD1
 70
     0
  9
$DIMSD2
 70
     0
  9
$DIMTOLJ
 70
     1
  9
$DIMTZIN
 70
     0
  9
$DIMALTZ
 70
     0
  9
$DIMALTTZ
 70
     0
  9
$DIMUPT
 70
     0
  9
$DIMDEC
 70
     4
  9
$DIMTDEC
 70
     4
  9
$DIMALTU
 70
     2
  9
$DIMALTTD
 70
     2
  9
$DIMTXSTY
  7
Standard
  9
$DIMAUNIT
 70
     0
  9
$DIMADEC
 70
     0
  9
$DIMALTRND
 40
0.0
  9
$DIMAZIN
 70
     0
  9
$DIMDSEP
 70
    46
  9
$DIMATFIT
 70
     3
  9
$DIMFRAC
 70
     0
  9
$DIMLDRBLK
  1

  9
$DIMLUNIT
 70
     2
  9
$DIMLWD
 70
    -2
  9
$DIMLWE
 70
    -2
  9
$DIMTMOVE
 70
     0
  9
$DIMFXL
 40
1.0
  9
$DIMFXLON
 70
     0
  9
$DIMJOGANG
 40
0.7853981633974483
  9
$DIMTFILL
 70
     0
  9
$DIMTFILLCLR
 70
     0
  9
$DIMARCSYM
 70
     0
  9
$DIMLTYPE
  6

  9
$DIMLTEX1
  6

  9
$DIMLTEX2
  6

  9
$LUNITS
 70
     2
  9
$LUPREC
 70
     4
  9
$SKETCHINC
 40
0.1
  9
$FILLETRAD
 40
0.5
  9
$AUNITS
 70
     0
  9
$AUPREC
 70
     0
  9
$MENU
  1
.
  9
$ELEVATION
 40
0.0
  9
$PELEVATION
 40
0.0
  9
$THICKNESS
 40
0.0
  9
$LIMCHECK
 70
     0
  9
$CHAMFERA
 40
0.5
  9
$CHAMFERB
 40
0.5
  9
$CHAMFERC
 40
1.0
  9
$CHAMFERD
 40
0.0
  9
$SKPOLY
 70
     0
  9
$TDCREATE
 40
2456972.959126794
  9
$TDUCREATE
 40
2456972.959126794
  9
$TDUPDATE
 40
2456972.959126805
  9
$TDUUPDATE
 40
2456972.959126805
  9
$TDINDWG
 40
0.0000000116
  9
$TDUSRTIMER
 40
0.0000000116
  9
$USRTIMER
 70
     1
  9
$ANGBASE
 50
0.0
  9
$ANGDIR
 70
     0
  9
$PDMODE
 70
     0
  9
$PDSIZE
 40
0.0
  9
$PLINEWID
 40
0.0
  9
$SPLFRAME
 70
     0
  9
$SPLINETYPE
 70
     6
  9
$SPLINESEGS
 70
     8
  9
$HANDSEED
  5
84
  9
$SURFTAB1
 70
     6
  9
$SURFTAB2
 70
     6
  9
$SURFTYPE
 70
     6
  9
$SURFU
 70
     6
  9
$SURFV
 70
     6
  9
$UCSBASE
  2

  9
$UCSNAME
  2

  9
$UCSORG
 10
0.0
 20
0.0
 30
0.0
  9
$UCSXDIR
 10
1.0
 20
0.0
 30
0.0
  9
$UCSYDIR
 10
0.0
 20
1.0
 30
0.0
  9
$UCSORTHOREF
  2

  9
$UCSORTHOVIEW
 70
     0
  9
$UCSORGTOP
 10
0.0
 20
0.0
 30
0.0
  9
$UCSORGBOTTOM
 10
0.0
 20
0.0
 30
0.0
  9
$UCSORGLEFT
 10
0.0
 20
0.0
 30
0.0
  9
$UCSORGRIGHT
 10
0.0
 20
0.0
 30
0.0
  9
$UCSORGFRONT
 10
0.0
 20
0.0
 30
0.0
  9
$UCSORGBACK
 10
0.0
 20
0.0
 30
0.0
  9
$PUCSBASE
  2

  9
$PUCSNAME
  2

  9
$PUCSORG
 10
0.0
 20
0.0
 30
0.0
  9
$PUCSXDIR
 10
1.0
 20
0.0
 30
0.0
  9
$PUCSYDIR
 10
0.0
 20
1.0
 30
0.0
  9
$PUCSORTHOREF
  2

  9
$PUCSORTHOVIEW
 70
     0
  9
$PUCSORGTOP
 10
0.0
 20
0.0
 30
0.0
  9
$PUCSORGBOTTOM
 10
0.0
 20
0.0
 30
0.0
  9
$PUCSORGLEFT
 10
0.0
 20
0.0
 30
0.0
  9
$PUCSORGRIGHT
 10
0.0
 20
0.0
 30
0.0
  9
$PUCSORGFRONT
 10
0.0
 20
0.0
 30
0.0
  9
$PUCSORGBACK
 10
0.0
 20
0.0
 30
0.0
  9
$USERI1
 70
     0
  9
$USERI2
 70
     0
  9
$USERI3
 70
     0
  9
$USERI4
 70
     0
  9
$USERI5
 70
     0
  9
$USERR1
 40
0.0
  9
$USERR2
 40
0.0
  9
$USERR3
 40
0.0
  9
$USERR4
 40
0.0
  9
$USERR5
 40
0.0
  9
$WORLDVIEW
 70
     1
  9
$SHADEDGE
 70
     3
  9
$SHADEDIF
 70
    70
  9
$TILEMODE
 70
     1
  9
$MAXACTVP
 70
    64
  9
$PINSBASE
 10
0.0
 20
0.0
 30
0.0
  9
$PLIMCHECK
 70
     0
  9
$PEXTMIN
 10
1.000000000000000E+20
 20
1.000000000000000E+20
 30
1.000000000000000E+20
  9
$PEXTMAX
 10
-1.000000000000000E+20
 20
-1.000000000000000E+20
 30
-1.000000000000000E+20
  9
$PLIMMIN
 10
0.0
 20
0.0
  9
$PLIMMAX
 10
12.0
 20
9.0
  9
$UNITMODE
 70
     0
  9
$VISRETAIN
 70
     1
  9
$PLINEGEN
 70
     0
  9
$PSLTSCALE
 70
     1
  9
$TREEDEPTH
 70
  3020
  9
$CMLSTYLE
  2
Standard
  9
$CMLJUST
 70
     0
  9
$CMLSCALE
 40
1.0
  9
$PROXYGRAPHICS
 70
     1
  9
$MEASUREMENT
 70
     0
  9
$CELWEIGHT
370
    -1
  9
$ENDCAPS
280
     0
  9
$JOINSTYLE
280
     0
  9
$LWDISPLAY
290
     0
  9
$INSUNITS
 70
     5
  9
$HYPERLINKBASE
  1

  9
$STYLESHEET
  1

  9
$XEDIT
290
     1
  9
$CEPSNTYPE
380
     0
  9
$PSTYLEMODE
290
     1
  9
$FINGERPRINTGUID
  2
{FE2D2EF1-54D7-40CC-AEAB-EADFE031B315}
  9
$VERSIONGUID
  2
{FAEB1C32-E019-11D5-929B-00C0DF256EC4}
  9
$EXTNAMES
290
     1
  9
$PSVPSCALE
 40
0.0
  9
$OLESTARTUP
290
     0
  9
$SORTENTS
280
   127
  9
$INDEXCTL
280
     0
  9
$HIDETEXT
280
     1
  9
$XCLIPFRAME
290
     0
  9
$HALOGAP
280
     0
  9
$OBSCOLOR
 70
   257
  9
$OBSLTYPE
280
     0
  9
$INTERSECTIONDISPLAY
280
     0
  9
$INTERSECTIONCOLOR
 70
   257
  9
$DIMASSOC
280
     2
  9
$PROJECTNAME
  1

  9
$CAMERADISPLAY
290
     0
  9
$LENSLENGTH
 40
50.0
  9
$CAMERAHEIGHT
 40
0.0
  9
$STEPSPERSEC
 40
2.0
  9
$STEPSIZE
 40
6.0
  9
$3DDWFPREC
 40
2.0
  9
$PSOLWIDTH
 40
0.25
  9
$PSOLHEIGHT
 40
4.0
  9
$LOFTANG1
 40
1.570796326794897
  9
$LOFTANG2
 40
1.570796326794897
  9
$LOFTMAG1
 40
0.0
  9
$LOFTMAG2
 40
0.0
  9
$LOFTPARAM
 70
     7
  9
$LOFTNORMALS
280
     1
  9
$LATITUDE
 40
37.795
  9
$LONGITUDE
 40
-122.394
  9
$NORTHDIRECTION
 40
0.0
  9
$TIMEZONE
 70
 -8000
  9
$LIGHTGLYPHDISPLAY
280
     1
  9
$TILEMODELIGHTSYNCH
280
     1
  9
$SOLIDHIST
280
     1
  9
$SHOWHIST
280
     1
  9
$DWFFRAME
280
     2
  9
$DGNFRAME
280
     2
  9
$REALWORLDSCALE
290
     1
  9
$INTERFERECOLOR
 62
   256
  9
$CSHADOW
280
     0
  9
$SHADOWPLANELOCATION
 40
0.0
  0
ENDSEC
  0
SECTION
  2
CLASSES
  0
CLASS
  1
ACDBDICTIONARYWDFLT
  2
AcDbDictionaryWithDefault
  3
ObjectDBX Classes
 90
        0
 91
        3
280
     0
281
     0
  0
CLASS
  1
VISUALSTYLE
  2
AcDbVisualStyle
  3
ObjectDBX Classes
 90
     4095
 91
        3
280
     0
281
     0
  0
CLASS
  1
SCALE
  2
AcDbScale
  3
ObjectDBX Classes
 90
     1153
 91
        3
280
     0
281
     0
  0
ENDSEC
  0
SECTION
  2
TABLES
  0
TABLE
  2
VPORT
  5
8
330
0
100
AcDbSymbolTable
 70
     1
  0
VPORT
  5
29
330
8
100
AcDbSymbolTableRecord
100
AcDbViewportTableRecord
  2
*Active
 70
     0
 10
0.0
 20
0.0
 11
1.0
 21
1.0
 12
10.42990654205607
 22
4.5
 13
0.0
 23
0.0
 14
0.5
 24
0.5
 15
0.5
 25
0.5
 16
0.0
 26
0.0
 36
1.0
 17
0.0
 27
0.0
 37
0.0
 40
9.0
 41
1.972972972850329
 42
50.0
 43
0.0
 44
0.0
 50
0.0
 51
0.0
 71
     0
 72
   100
 73
     1
 74
     3
 75
     0
 76
     0
 77
     0
 78
     0
281
     0
 65
     1
110
0.0
120
0.0
130
0.0
111
1.0
121
0.0
131
0.0
112
0.0
122
1.0
132
0.0
 79
     0
146
0.0
 60
     3
 61
     5
292
     1
282
     1
141
0.0
142
0.0
 63
   256
  0
ENDTAB
  0
TABLE
  2
LTYPE
  5
5
330
0
100
AcDbSymbolTable
 70
     1
  0
LTYPE
  5
14
330
5
100
AcDbSymbolTableRecord
100
AcDbLinetypeTableRecord
  2
ByBlock
 70
     0
  3

 72
    65
 73
     0
 40
0.0
  0
LTYPE
  5
15
330
5
100
AcDbSymbolTableRecord
100
AcDbLinetypeTableRecord
  2
ByLayer
 70
     0
  3

 72
    65
 73
     0
 40
0.0
  0
LTYPE
  5
16
330
5
100
AcDbSymbolTableRecord
100
AcDbLinetypeTableRecord
  2
Continuous
 70
     0
  3
Solid line
 72
    65
 73
     0
 40
0.0
  0
ENDTAB
  0
TABLE
  2
LAYER
  5
2
330
0
100
AcDbSymbolTable
 70
     2
  0
LAYER
  5
10
330
2
100
AcDbSymbolTableRecord
100
AcDbLayerTableRecord
  2
0
 70
     0
 62
     7
  6
Continuous
370
    -3
390
F
347
0
  0
LAYER
  5
5E
330
2
100
AcDbSymbolTableRecord
100
AcDbLayerTableRecord
  2
Layer 1
 70
     0
 62
     7
  6
Continuous
370
    -3
390
F
347
0
  0
ENDTAB
  0
TABLE
  2
STYLE
  5
3
330
0
100
AcDbSymbolTable
 70
     1
  0
STYLE
  5
11
330
3
100
AcDbSymbolTableRecord
100
AcDbTextStyleTableRecord
  2
Standard
 70
     0
 40
0.0
 41
1.0
 50
0.0
 71
     0
 42
0.2
  3
txt
  4

  0
ENDTAB
  0
TABLE
  2
VIEW
  5
6
330
0
100
AcDbSymbolTable
 70
     0
  0
ENDTAB
  0
TABLE
  2
UCS
  5
7
330
0
100
AcDbSymbolTable
 70
     0
  0
ENDTAB
  0
TABLE
  2
APPID
  5
9
330
0
100
AcDbSymbolTable
 70
     2
  0
APPID
  5
12
330
9
100
AcDbSymbolTableRecord
100
AcDbRegAppTableRecord
  2
ACAD
 70
     0
  0
APPID
  5
5D
330
9
100
AcDbSymbolTableRecord
100
AcDbRegAppTableRecord
  2
ODA
 70
     0
  0
ENDTAB
  0
TABLE
  2
DIMSTYLE
  5
A
330
0
100
AcDbSymbolTable
 70
     1
100
AcDbDimStyleTable
  0
DIMSTYLE
105
27
330
A
100
AcDbSymbolTableRecord
100
AcDbDimStyleTableRecord
  2
Standard
 70
     0
340
11
  0
ENDTAB
  0
TABLE
  2
BLOCK_RECORD
  5
1
330
0
100
AcDbSymbolTable
 70
     1
  0
BLOCK_RECORD
  5
1F
330
1
100
AcDbSymbolTableRecord
100
AcDbBlockTableRecord
  2
*Model_Space
340
22
 70
     0
280
     1
281
     0
  0
BLOCK_RECORD
  5
1B
330
1
100
AcDbSymbolTableRecord
100
AcDbBlockTableRecord
  2
*Paper_Space
340
1E
 70
     0
280
     1
281
     0
  0
BLOCK_RECORD
  5
23
330
1
100
AcDbSymbolTableRecord
100
AcDbBlockTableRecord
  2
*Paper_Space0
340
26
 70
     0
280
     1
281
     0
  0
ENDTAB
  0
ENDSEC
  0
SECTION
  2
BLOCKS
  0
BLOCK
  5
20
330
1F
100
AcDbEntity
  8
0
100
AcDbBlockBegin
  2
*Model_Space
 70
     0
 10
0.0
 20
0.0
 30
0.0
  3
*Model_Space
  1

  0
ENDBLK
  5
21
330
1F
100
AcDbEntity
  8
0
100
AcDbBlockEnd
  0
BLOCK
  5
1C
330
1B
100
AcDbEntity
 67
     1
  8
0
100
AcDbBlockBegin
  2
*Paper_Space
 70
     0
 10
0.0
 20
0.0
 30
0.0
  3
*Paper_Space
  1

  0
ENDBLK
  5
1D
330
1B
100
AcDbEntity
 67
     1
  8
0
100
AcDbBlockEnd
  0
BLOCK
  5
24
330
23
100
AcDbEntity
  8
0
100
AcDbBlockBegin
  2
*Paper_Space0
 70
     0
 10
0.0
 20
0.0
 30
0.0
  3
*Paper_Space0
  1

  0
ENDBLK
  5
25
330
23
100
AcDbEntity
  8
0
100
AcDbBlockEnd
  0
ENDSEC
  0
SECTION
  2
ENTITIES
  0
SPLINE
  5
5F
330
1F
100
AcDbEntity
  8
Layer 1
370
    53
100
AcDbSpline
210
0.0
220
0.0
230
1.0
 70
    11
 71
     3
 72
    36
 73
    32
 74
     0
 42
0.0000000001
 43
0.0000000001
 40
0.0
 40
0.0
 40
0.0
 40
0.0
 40
0.125
 40
0.125
 40
0.125
 40
0.125
 40
0.25
 40
0.25
 40
0.25
 40
0.25
 40
0.375
 40
0.375
 40
0.375
 40
0.375
 40
0.5
 40
0.5
 40
0.5
 40
0.5
 40
0.625
 40
0.625
 40
0.625
 40
0.625
 40
0.75
 40
0.75
 40
0.75
 40
0.75
 40
0.875
 40
0.875
 40
0.875
 40
0.875
 40
1.0
 40
1.0
 40
1.0
 40
1.0
 10
-15.64992
 20
-12.19997
 30
0.0
 10
-15.64992
 20
-12.19997
 30
0.0
 10
-5.34994
 20
-12.19997
 30
0.0
 10
-5.34994
 20
-12.19997
 30
0.0
 10
-5.34994
 20
-12.19997
 30
0.0
 10
-5.07294
 20
-12.19997
 30
0.0
 10
-4.84998
 20
-12.42306
 30
0.0
 10
-4.84998
 20
-12.70006
 30
0.0
 10
-4.84998
 20
-12.70006
 30
0.0
 10
-4.84998
 20
-12.70006
 30
0.0
 10
-4.84998
 20
-16.99993
 30
0.0
 10
-4.84998
 20
-16.99993
 30
0.0
 10
-4.84998
 20
-16.99993
 30
0.0
 10
-4.84998
 20
-17.27707
 30
0.0
 10
-5.07294
 20
-17.50003
 30
0.0
 10
-5.34994
 20
-17.50003
 30
0.0
 10
-5.34994
 20
-17.50003
 30
0.0
 10
-5.34994
 20
-17.50003
 30
0.0
 10
-15.64992
 20
-17.50003
 30
0.0
 10
-15.64992
 20
-17.50003
 30
0.0
 10
-15.64992
 20
-17.50003
 30
0.0
 10
-15.92692
 20
-17.50003
 30
0.0
 10
-16.15002
 20
-17.27707
 30
0.0
 10
-16.15002
 20
-16.99993
 30
0.0
 10
-16.15002
 20
-16.99993
 30
0.0
 10
-16.15002
 20
-16.99993
 30
0.0
 10
-16.15002
 20
-12.70006
 30
0.0
 10
-16.15002
 20
-12.70006
 30
0.0
 10
-16.15002
 20
-12.70006
 30
0.0
 10
-16.15002
 20
-12.42306
 30
0.0
 10
-15.92692
 20
-12.19997
 30
0.0
 10
-15.64992
 20
-12.19997
 30
0.0
  0
SPLINE
  5
60
330
1F
100
AcDbEntity
  8
Layer 1
370
    53
100
AcDbSpline
210
0.0
220
0.0
230
1.0
 70
    11
 71
     3
 72
    20
 73
    16
 74
     0
 42
0.0000000001
 43
0.0000000001
 40
0.0
 40
0.0
 40
0.0
 40
0.0
 40
0.25
 40
0.25
 40
0.25
 40
0.25
 40
0.5
 40
0.5
 40
0.5
 40
0.5
 40
0.75
 40
0.75
 40
0.75
 40
0.75
 40
1.0
 40
1.0
 40
1.0
 40
1.0
 10
-15.19999
 20
-16.85
 30
0.0
 10
-15.19999
 20
-17.01567
 30
0.0
 10
-15.33422
 20
-17.15
 30
0.0
 10
-15.49999
 20
-17.15
 30
0.0
 10
-15.49999
 20
-17.15
 30
0.0
 10
-15.66565
 20
-17.15
 30
0.0
 10
-15.79999
 20
-17.01567
 30
0.0
 10
-15.79999
 20
-16.85
 30
0.0
 10
-15.79999
 20
-16.85
 30
0.0
 10
-15.79999
 20
-16.68437
 30
0.0
 10
-15.66565
 20
-16.55
 30
0.0
 10
-15.49999
 20
-16.55
 30
0.0
 10
-15.49999
 20
-16.55
 30
0.0
 10
-15.33422
 20
-16.55
 30
0.0
 10
-15.19999
 20
-16.68437
 30
0.0
 10
-15.19999
 20
-16.85
 30
0.0
  0
SPLINE
  5
61
330
1F
100
AcDbEntity
  8
Layer 1
370
    53
100
AcDbSpline
210
0.0
220
0.0
230
1.0
 70
    11
 71
     3
 72
    20
 73
    16
 74
     0
 42
0.0000000001
 43
0.0000000001
 40
0.0
 40
0.0
 40
0.0
 40
0.0
 40
0.25
 40
0.25
 40
0.25
 40
0.25
 40
0.5
 40
0.5
 40
0.5
 40
0.5
 40
0.75
 40
0.75
 40
0.75
 40
0.75
 40
1.0
 40
1.0
 40
1.0
 40
1.0
 10
-15.19999
 20
-14.85007
 30
0.0
 10
-15.19999
 20
-15.0157
 30
0.0
 10
-15.33422
 20
-15.15007
 30
0.0
 10
-15.49999
 20
-15.15007
 30
0.0
 10
-15.49999
 20
-15.15007
 30
0.0
 10
-15.66565
 20
-15.15007
 30
0.0
 10
-15.79999
 20
-15.0157
 30
0.0
 10
-15.79999
 20
-14.85007
 30
0.0
 10
-15.79999
 20
-14.85007
 30
0.0
 10
-15.79999
 20
-14.6843
 30
0.0
 10
-15.66565
 20
-14.55007
 30
0.0
 10
-15.49999
 20
-14.55007
 30
0.0
 10
-15.49999
 20
-14.55007
 30
0.0
 10
-15.33422
 20
-14.55007
 30
0.0
 10
-15.19999
 20
-14.6843
 30
0.0
 10
-15.19999
 20
-14.85007
 30
0.0
  0
SPLINE
  5
62
330
1F
100
AcDbEntity
  8
Layer 1
370
    53
100
AcDbSpline
210
0.0
220
0.0
230
1.0
 70
    11
 71
     3
 72
    20
 73
    16
 74
     0
 42
0.0000000001
 43
0.0000000001
 40
0.0
 40
0.0
 40
0.0
 40
0.0
 40
0.25
 40
0.25
 40
0.25
 40
0.25
 40
0.5
 40
0.5
 40
0.5
 40
0.5
 40
0.75
 40
0.75
 40
0.75
 40
0.75
 40
1.0
 40
1.0
 40
1.0
 40
1.0
 10
-15.19999
 20
-12.85
 30
0.0
 10
-15.19999
 20
-13.01577
 30
0.0
 10
-15.33422
 20
-13.15
 30
0.0
 10
-15.49999
 20
-13.15
 30
0.0
 10
-15.49999
 20
-13.15
 30
0.0
 10
-15.66565
 20
-13.15
 30
0.0
 10
-15.79999
 20
-13.01577
 30
0.0
 10
-15.79999
 20
-12.85
 30
0.0
 10
-15.79999
 20
-12.85
 30
0.0
 10
-15.79999
 20
-12.68433
 30
0.0
 10
-15.66565
 20
-12.54999
 30
0.0
 10
-15.49999
 20
-12.54999
 30
0.0
 10
-15.49999
 20
-12.54999
 30
0.0
 10
-15.33422
 20
-12.54999
 30
0.0
 10
-15.19999
 20
-12.68433
 30
0.0
 10
-15.19999
 20
-12.85
 30
0.0
  0
SPLINE
  5
63
330
1F
100
AcDbEntity
  8
Layer 1
370
    53
100
AcDbSpline
210
0.0
220
0.0
230
1.0
 70
    11
 71
     3
 72
    20
 73
    16
 74
     0
 42
0.0000000001
 43
0.0000000001
 40
0.0
 40
0.0
 40
0.0
 40
0.0
 40
0.25
 40
0.25
 40
0.25
 40
0.25
 40
0.5
 40
0.5
 40
0.5
 40
0.5
 40
0.75
 40
0.75
 40
0.75
 40
0.75
 40
1.0
 40
1.0
 40
1.0
 40
1.0
 10
-5.20001
 20
-16.85
 30
0.0
 10
-5.20001
 20
-17.01567
 30
0.0
 10
-5.33435
 20
-17.15
 30
0.0
 10
-5.49997
 20
-17.15
 30
0.0
 10
-5.49997
 20
-17.15
 30
0.0
 10
-5.66564
 20
-17.15
 30
0.0
 10
-5.79998
 20
-17.01567
 30
0.0
 10
-5.79998
 20
-16.85
 30
0.0
 10
-5.79998
 20
-16.85
 30
0.0
 10
-5.79998
 20
-16.68437
 30
0.0
 10
-5.66564
 20
-16.55
 30
0.0
 10
-5.49997
 20
-16.55
 30
0.0
 10
-5.49997
 20
-16.55
 30
0.0
 10
-5.33435
 20
-16.55
 30
0.0
 10
-5.20001
 20
-16.68437
 30
0.0
 10
-5.20001
 20
-16.85
 30
0.0
  0
SPLINE
  5
64
330
1F
100
AcDbEntity
  8
Layer 1
370
    53
100
AcDbSpline
210
0.0
220
0.0
230
1.0
 70
    11
 71
     3
 72
    20
 73
    16
 74
     0
 42
0.0000000001
 43
0.0000000001
 40
0.0
 40
0.0
 40
0.0
 40
0.0
 40
0.25
 40
0.25
 40
0.25
 40
0.25
 40
0.5
 40
0.5
 40
0.5
 40
0.5
 40
0.75
 40
0.75
 40
0.75
 40
0.75
 40
1.0
 40
1.0
 40
1.0
 40
1.0
 10
-5.20001
 20
-14.85007
 30
0.0
 10
-5.20001
 20
-15.0157
 30
0.0
 10
-5.33435
 20
-15.15007
 30
0.0
 10
-5.49997
 20
-15.15007
 30
0.0
 10
-5.49997
 20
-15.15007
 30
0.0
 10
-5.66564
 20
-15.15007
 30
0.0
 10
-5.79998
 20
-15.0157
 30
0.0
 10
-5.79998
 20
-14.85007
 30
0.0
 10
-5.79998
 20
-14.85007
 30
0.0
 10
-5.79998
 20
-14.6843
 30
0.0
 10
-5.66564
 20
-14.55007
 30
0.0
 10
-5.49997
 20
-14.55007
 30
0.0
 10
-5.49997
 20
-14.55007
 30
0.0
 10
-5.33435
 20
-14.55007
 30
0.0
 10
-5.20001
 20
-14.6843
 30
0.0
 10
-5.20001
 20
-14.85007
 30
0.0
  0
SPLINE
  5
65
330
1F
100
AcDbEntity
  8
Layer 1
370
    53
100
AcDbSpline
210
0.0
220
0.0
230
1.0
 70
    11
 71
     3
 72
    20
 73
    16
 74
     0
 42
0.0000000001
 43
0.0000000001
 40
0.0
 40
0.0
 40
0.0
 40
0.0
 40
0.25
 40
0.25
 40
0.25
 40
0.25
 40
0.5
 40
0.5
 40
0.5
 40
0.5
 40
0.75
 40
0.75
 40
0.75
 40
0.75
 40
1.0
 40
1.0
 40
1.0
 40
1.0
 10
-5.20001
 20
-12.85
 30
0.0
 10
-5.20001
 20
-13.01577
 30
0.0
 10
-5.33435
 20
-13.15
 30
0.0
 10
-5.49997
 20
-13.15
 30
0.0
 10
-5.49997
 20
-13.15
 30
0.0
 10
-5.66564
 20
-13.15
 30
0.0
 10
-5.79998
 20
-13.01577
 30
0.0
 10
-5.79998
 20
-12.85
 30
0.0
 10
-5.79998
 20
-12.85
 30
0.0
 10
-5.79998
 20
-12.68433
 30
0.0
 10
-5.66564
 20
-12.54999
 30
0.0
 10
-5.49997
 20
-12.54999
 30
0.0
 10
-5.49997
 20
-12.54999
 30
0.0
 10
-5.33435
 20
-12.54999
 30
0.0
 10
-5.20001
 20
-12.68433
 30
0.0
 10
-5.20001
 20
-12.85
 30
0.0
  0
SPLINE
  5
66
330
1F
100
AcDbEntity
  8
Layer 1
370
    53
100
AcDbSpline
210
0.0
220
0.0
230
1.0
 70
    11
 71
     3
 72
    20
 73
    16
 74
     0
 42
0.0000000001
 43
0.0000000001
 40
0.0
 40
0.0
 40
0.0
 40
0.0
 40
0.25
 40
0.25
 40
0.25
 40
0.25
 40
0.5
 40
0.5
 40
0.5
 40
0.5
 40
0.75
 40
0.75
 40
0.75
 40
0.75
 40
1.0
 40
1.0
 40
1.0
 40
1.0
 10
-15.64992
 20
-15.54998
 30
0.0
 10
-15.64992
 20
-15.54998
 30
0.0
 10
-15.34992
 20
-15.54998
 30
0.0
 10
-15.34992
 20
-15.54998
 30
0.0
 10
-15.34992
 20
-15.54998
 30
0.0
 10
-15.34992
 20
-15.54998
 30
0.0
 10
-15.34992
 20
-16.14998
 30
0.0
 10
-15.34992
 20
-16.14998
 30
0.0
 10
-15.34992
 20
-16.14998
 30
0.0
 10
-15.34992
 20
-16.14998
 30
0.0
 10
-15.64992
 20
-16.14998
 30
0.0
 10
-15.64992
 20
-16.14998
 30
0.0
 10
-15.64992
 20
-16.14998
 30
0.0
 10
-15.64992
 20
-16.14998
 30
0.0
 10
-15.64992
 20
-15.54998
 30
0.0
 10
-15.64992
 20
-15.54998
 30
0.0
  0
SPLINE
  5
67
330
1F
100
AcDbEntity
  8
Layer 1
370
    53
100
AcDbSpline
210
0.0
220
0.0
230
1.0
 70
    11
 71
     3
 72
    20
 73
    16
 74
     0
 42
0.0000000001
 43
0.0000000001
 40
0.0
 40
0.0
 40
0.0
 40
0.0
 40
0.25
 40
0.25
 40
0.25
 40
0.25
 40
0.5
 40
0.5
 40
0.5
 40
0.5
 40
0.75
 40
0.75
 40
0.75
 40
0.75
 40
1.0
 40
1.0
 40
1.0
 40
1.0
 10
-15.64992
 20
-13.55001
 30
0.0
 10
-15.64992
 20
-13.55001
 30
0.0
 10
-15.34992
 20
-13.55001
 30
0.0
 10
-15.34992
 20
-13.55001
 30
0.0
 10
-15.34992
 20
-13.55001
 30
0.0
 10
-15.34992
 20
-13.55001
 30
0.0
 10
-15.34992
 20
-14.15002
 30
0.0
 10
-15.34992
 20
-14.15002
 30
0.0
 10
-15.34992
 20
-14.15002
 30
0.0
 10
-15.34992
 20
-14.15002
 30
0.0
 10
-15.64992
 20
-14.15002
 30
0.0
 10
-15.64992
 20
-14.15002
 30
0.0
 10
-15.64992
 20
-14.15002
 30
0.0
 10
-15.64992
 20
-14.15002
 30
0.0
 10
-15.64992
 20
-13.55001
 30
0.0
 10
-15.64992
 20
-13.55001
 30
0.0
  0
SPLINE
  5
68
330
1F
100
AcDbEntity
  8
Layer 1
370
    53
100
AcDbSpline
210
0.0
220
0.0
230
1.0
 70
    11
 71
     3
 72
    20
 73
    16
 74
     0
 42
0.0000000001
 43
0.0000000001
 40
0.0
 40
0.0
 40
0.0
 40
0.0
 40
0.25
 40
0.25
 40
0.25
 40
0.25
 40
0.5
 40
0.5
 40
0.5
 40
0.5
 40
0.75
 40
0.75
 40
0.75
 40
0.75
 40
1.0
 40
1.0
 40
1.0
 40
1.0
 10
-5.64991
 20
-15.54998
 30
0.0
 10
-5.64991
 20
-15.54998
 30
0.0
 10
-5.3499
 20
-15.54998
 30
0.0
 10
-5.3499
 20
-15.54998
 30
0.0
 10
-5.3499
 20
-15.54998
 30
0.0
 10
-5.3499
 20
-15.54998
 30
0.0
 10
-5.3499
 20
-16.14998
 30
0.0
 10
-5.3499
 20
-16.14998
 30
0.0
 10
-5.3499
 20
-16.14998
 30
0.0
 10
-5.3499
 20
-16.14998
 30
0.0
 10
-5.64991
 20
-16.14998
 30
0.0
 10
-5.64991
 20
-16.14998
 30
0.0
 10
-5.64991
 20
-16.14998
 30
0.0
 10
-5.64991
 20
-16.14998
 30
0.0
 10
-5.64991
 20
-15.54998
 30
0.0
 10
-5.64991
 20
-15.54998
 30
0.0
  0
SPLINE
  5
69
330
1F
100
AcDbEntity
  8
Layer 1
370
    53
100
AcDbSpline
210
0.0
220
0.0
230
1.0
 70
    11
 71
     3
 72
    20
 73
    16
 74
     0
 42
0.0000000001
 43
0.0000000001
 40
0.0
 40
0.0
 40
0.0
 40
0.0
 40
0.25
 40
0.25
 40
0.25
 40
0.25
 40
0.5
 40
0.5
 40
0.5
 40
0.5
 40
0.75
 40
0.75
 40
0.75
 40
0.75
 40
1.0
 40
1.0
 40
1.0
 40
1.0
 10
-5.64991
 20
-13.55001
 30
0.0
 10
-5.64991
 20
-13.55001
 30
0.0
 10
-5.3499
 20
-13.55001
 30
0.0
 10
-5.3499
 20
-13.55001
 30
0.0
 10
-5.3499
 20
-13.55001
 30
0.0
 10
-5.3499
 20
-13.55001
 30
0.0
 10
-5.3499
 20
-14.15002
 30
0.0
 10
-5.3499
 20
-14.15002
 30
0.0
 10
-5.3499
 20
-14.15002
 30
0.0
 10
-5.3499
 20
-14.15002
 30
0.0
 10
-5.64991
 20
-14.15002
 30
0.0
 10
-5.64991
 20
-14.15002
 30
0.0
 10
-5.64991
 20
-14.15002
 30
0.0
 10
-5.64991
 20
-14.15002
 30
0.0
 10
-5.64991
 20
-13.55001
 30
0.0
 10
-5.64991
 20
-13.55001
 30
0.0
  0
ELLIPSE
  5
6A
330
1F
100
AcDbEntity
  8
Layer 1
 62
   250
370
    53
100
AcDbEllipse
 10
-6.75
 20
-13.3
 30
0.0
 11
0.0
 21
0.15
 31
0.0
210
0.0
220
0.0
230
1.0
 40
1.0
 41
0.0
 42
6.283185307179586
  0
ELLIPSE
  5
6B
330
1F
100
AcDbEntity
  8
Layer 1
 62
   250
370
    53
100
AcDbEllipse
 10
-14.25
 20
-13.3
 30
0.0
 11
0.0
 21
0.15
 31
0.0
210
0.0
220
0.0
230
1.0
 40
1.0
 41
0.0
 42
6.283185307179586
  0
ELLIPSE
  5
6C
330
1F
100
AcDbEntity
  8
Layer 1
 62
   250
370
    53
100
AcDbEllipse
 10
-6.75
 20
-16.4
 30
0.0
 11
0.0
 21
0.15
 31
0.0
210
0.0
220
0.0
230
1.0
 40
1.0
 41
0.0
 42
6.283185307179586
  0
ELLIPSE
  5
6D
330
1F
100
AcDbEntity
  8
Layer 1
 62
   250
370
    53
100
AcDbEllipse
 10
-14.25
 20
-16.4
 30
0.0
 11
0.0
 21
0.15
 31
0.0
210
0.0
220
0.0
230
1.0
 40
1.0
 41
0.0
 42
6.283185307179586
  0
LWPOLYLINE
  5
6E
330
1F
100
AcDbEntity
  8
Layer 1
 62
   250
370
    53
100
AcDbPolyline
 90
        5
 70
     1
 43
0.0
 10
-14.05002
 20
-16.10001
 10
-6.95002
 20
-16.10001
 10
-6.95002
 20
-13.60001
 10
-14.05002
 20
-13.60001
 10
-14.05002
 20
-16.10001
  0
SPLINE
  5
6F
330
1F
100
AcDbEntity
  8
Layer 1
 62
    30
370
     9
100
AcDbSpline
210
0.0
220
0.0
230
1.0
 70
    11
 71
     3
 72
    36
 73
    32
 74
     0
 42
0.0000000001
 43
0.0000000001
 40
0.0
 40
0.0
 40
0.0
 40
0.0
 40
0.125
 40
0.125
 40
0.125
 40
0.125
 40
0.25
 40
0.25
 40
0.25
 40
0.25
 40
0.375
 40
0.375
 40
0.375
 40
0.375
 40
0.5
 40
0.5
 40
0.5
 40
0.5
 40
0.625
 40
0.625
 40
0.625
 40
0.625
 40
0.75
 40
0.75
 40
0.75
 40
0.75
 40
0.875
 40
0.875
 40
0.875
 40
0.875
 40
1.0
 40
1.0
 40
1.0
 40
1.0
 10
-14.91538
 20
-17.00282
 30
0.0
 10
-14.91538
 20
-17.00282
 30
0.0
 10
-14.91538
 20
-16.6976
 30
0.0
 10
-14.91538
 20
-16.6976
 30
0.0
 10
-14.91538
 20
-16.6976
 30
0.0
 10
-14.91538
 20
-16.6976
 30
0.0
 10
-14.78415
 20
-17.00282
 30
0.0
 10
-14.78415
 20
-17.00282
 30
0.0
 10
-14.78415
 20
-17.00282
 30
0.0
 10
-14.78415
 20
-17.00282
 30
0.0
 10
-14.65249
 20
-16.6976
 30
0.0
 10
-14.65249
 20
-16.6976
 30
0.0
 10
-14.65249
 20
-16.6976
 30
0.0
 10
-14.65249
 20
-16.6976
 30
0.0
 10
-14.65249
 20
-17.00282
 30
0.0
 10
-14.65249
 20
-17.00282
 30
0.0
 10
-14.65249
 20
-17.00282
 30
0.0
 10
-14.65249
 20
-17.00282
 30
0.0
 10
-14.65249
 20
-16.6976
 30
0.0
 10
-14.65249
 20
-16.6976
 30
0.0
 10
-14.65249
 20
-16.6976
 30
0.0
 10
-14.65249
 20
-16.6976
 30
0.0
 10
-14.78415
 20
-17.00282
 30
0.0
 10
-14.78415
 20
-17.00282
 30
0.0
 10
-14.78415
 20
-17.00282
 30
0.0
 10
-14.78415
 20
-17.00282
 30
0.0
 10
-14.91538
 20
-16.6976
 30
0.0
 10
-14.91538
 20
-16.6976
 30
0.0
 10
-14.91538
 20
-16.6976
 30
0.0
 10
-14.91538
 20
-16.6976
 30
0.0
 10
-14.91538
 20
-17.00282
 30
0.0
 10
-14.91538
 20
-17.00282
 30
0.0
  0
SPLINE
  5
70
330
1F
100
AcDbEntity
  8
Layer 1
 62
    30
370
     9
100
AcDbSpline
210
0.0
220
0.0
230
1.0
 70
    11
 71
     3
 72
    92
 73
    88
 74
     0
 42
0.0000000001
 43
0.0000000001
 40
0.0
 40
0.0
 40
0.0
 40
0.0
 40
0.0454545454545455
 40
0.0454545454545455
 40
0.0454545454545455
 40
0.0454545454545455
 40
0.0909090909090909
 40
0.0909090909090909
 40
0.0909090909090909
 40
0.0909090909090909
 40
0.1363636363636364
 40
0.1363636363636364
 40
0.1363636363636364
 40
0.1363636363636364
 40
0.1818181818181818
 40
0.1818181818181818
 40
0.1818181818181818
 40
0.1818181818181818
 40
0.2272727272727273
 40
0.2272727272727273
 40
0.2272727272727273
 40
0.2272727272727273
 40
0.2727272727272728
 40
0.2727272727272728
 40
0.2727272727272728
 40
0.2727272727272728
 40
0.3181818181818182
 40
0.3181818181818182
 40
0.3181818181818182
 40
0.3181818181818182
 40
0.3636363636363637
 40
0.3636363636363637
 40
0.3636363636363637
 40
0.3636363636363637
 40
0.4090909090909092
 40
0.4090909090909092
 40
0.4090909090909092
 40
0.4090909090909092
 40
0.4545454545454546
 40
0.4545454545454546
 40
0.4545454545454546
 40
0.4545454545454546
 40
0.5000000000000001
 40
0.5000000000000001
 40
0.5000000000000001
 40
0.5000000000000001
 40
0.5454545454545455
 40
0.5454545454545455
 40
0.5454545454545455
 40
0.5454545454545455
 40
0.5909090909090909
 40
0.5909090909090909
 40
0.5909090909090909
 40
0.5909090909090909
 40
0.6363636363636364
 40
0.6363636363636364
 40
0.6363636363636364
 40
0.6363636363636364
 40
0.6818181818181818
 40
0.6818181818181818
 40
0.6818181818181818
 40
0.6818181818181818
 40
0.7272727272727272
 40
0.7272727272727272
 40
0.7272727272727272
 40
0.7272727272727272
 40
0.7727272727272726
 40
0.7727272727272726
 40
0.7727272727272726
 40
0.7727272727272726
 40
0.818181818181818
 40
0.818181818181818
 40
0.818181818181818
 40
0.818181818181818
 40
0.8636363636363634
 40
0.8636363636363634
 40
0.8636363636363634
 40
0.8636363636363634
 40
0.9090909090909088
 40
0.9090909090909088
 40
0.9090909090909088
 40
0.9090909090909088
 40
0.9545454545454543
 40
0.9545454545454543
 40
0.9545454545454543
 40
0.9545454545454543
 40
1.0
 40
1.0
 40
1.0
 40
1.0
 10
-14.45268
 20
-17.00282
 30
0.0
 10
-14.45268
 20
-17.00282
 30
0.0
 10
-14.45268
 20
-16.6976
 30
0.0
 10
-14.45268
 20
-16.6976
 30
0.0
 10
-14.45268
 20
-16.6976
 30
0.0
 10
-14.45268
 20
-16.6976
 30
0.0
 10
-14.35531
 20
-16.6976
 30
0.0
 10
-14.35531
 20
-16.6976
 30
0.0
 10
-14.35531
 20
-16.6976
 30
0.0
 10
-14.33584
 20
-16.69767
 30
0.0
 10
-14.31983
 20
-16.69986
 30
0.0
 10
-14.3072
 20
-16.70409
 30
0.0
 10
-14.3072
 20
-16.70409
 30
0.0
 10
-14.29464
 20
-16.70825
 30
0.0
 10
-14.28476
 20
-16.71404
 30
0.0
 10
-14.27763
 20
-16.72138
 30
0.0
 10
-14.27763
 20
-16.72138
 30
0.0
 10
-14.27051
 20
-16.72864
 30
0.0
 10
-14.26543
 20
-16.73697
 30
0.0
 10
-14.26232
 20
-16.74635
 30
0.0
 10
-14.26232
 20
-16.74635
 30
0.0
 10
-14.25929
 20
-16.75574
 30
0.0
 10
-14.25753
 20
-16.76554
 30
0.0
 10
-14.2571
 20
-16.77592
 30
0.0
 10
-14.2571
 20
-16.77592
 30
0.0
 10
-14.25661
 20
-16.78629
 30
0.0
 10
-14.25781
 20
-16.79645
 30
0.0
 10
-14.26063
 20
-16.80632
 30
0.0
 10
-14.26063
 20
-16.80632
 30
0.0
 10
-14.26352
 20
-16.8162
 30
0.0
 10
-14.26839
 20
-16.82516
 30
0.0
 10
-14.27538
 20
-16.83321
 30
0.0
 10
-14.27538
 20
-16.83321
 30
0.0
 10
-14.28229
 20
-16.84125
 30
0.0
 10
-14.29167
 20
-16.84767
 30
0.0
 10
-14.30346
 20
-16.8524
 30
0.0
 10
-14.30346
 20
-16.8524
 30
0.0
 10
-14.31524
 20
-16.85719
 30
0.0
 10
-14.32984
 20
-16.85959
 30
0.0
 10
-14.34727
 20
-16.85973
 30
0.0
 10
-14.34727
 20
-16.85973
 30
0.0
 10
-14.34727
 20
-16.85973
 30
0.0
 10
-14.45268
 20
-16.85973
 30
0.0
 10
-14.45268
 20
-16.85973
 30
0.0
 10
-14.45268
 20
-16.85973
 30
0.0
 10
-14.45268
 20
-16.85973
 30
0.0
 10
-14.34727
 20
-16.85973
 30
0.0
 10
-14.34727
 20
-16.85973
 30
0.0
 10
-14.34727
 20
-16.85973
 30
0.0
 10
-14.3302
 20
-16.85959
 30
0.0
 10
-14.31573
 20
-16.85719
 30
0.0
 10
-14.30402
 20
-16.8524
 30
0.0
 10
-14.30402
 20
-16.8524
 30
0.0
 10
-14.29224
 20
-16.84767
 30
0.0
 10
-14.28285
 20
-16.84125
 30
0.0
 10
-14.2758
 20
-16.83321
 30
0.0
 10
-14.2758
 20
-16.83321
 30
0.0
 10
-14.26881
 20
-16.82516
 30
0.0
 10
-14.2638
 20
-16.8162
 30
0.0
 10
-14.26084
 20
-16.80632
 30
0.0
 10
-14.26084
 20
-16.80632
 30
0.0
 10
-14.25788
 20
-16.79645
 30
0.0
 10
-14.25661
 20
-16.78629
 30
0.0
 10
-14.2571
 20
-16.77592
 30
0.0
 10
-14.2571
 20
-16.77592
 30
0.0
 10
-14.25753
 20
-16.76554
 30
0.0
 10
-14.25929
 20
-16.75574
 30
0.0
 10
-14.26246
 20
-16.74635
 30
0.0
 10
-14.26246
 20
-16.74635
 30
0.0
 10
-14.26557
 20
-16.73697
 30
0.0
 10
-14.27079
 20
-16.72864
 30
0.0
 10
-14.27792
 20
-16.72138
 30
0.0
 10
-14.27792
 20
-16.72138
 30
0.0
 10
-14.28511
 20
-16.71404
 30
0.0
 10
-14.29499
 20
-16.70825
 30
0.0
 10
-14.30755
 20
-16.70409
 30
0.0
 10
-14.30755
 20
-16.70409
 30
0.0
 10
-14.32018
 20
-16.69986
 30
0.0
 10
-14.33605
 20
-16.69767
 30
0.0
 10
-14.35531
 20
-16.6976
 30
0.0
 10
-14.35531
 20
-16.6976
 30
0.0
 10
-14.35531
 20
-16.6976
 30
0.0
 10
-14.45268
 20
-16.6976
 30
0.0
 10
-14.45268
 20
-16.6976
 30
0.0
 10
-14.45268
 20
-16.6976
 30
0.0
 10
-14.45268
 20
-16.6976
 30
0.0
 10
-14.45268
 20
-17.00282
 30
0.0
 10
-14.45268
 20
-17.00282
 30
0.0
  0
SPLINE
  5
71
330
1F
100
AcDbEntity
  8
Layer 1
 62
    30
370
     9
100
AcDbSpline
210
0.0
220
0.0
230
1.0
 70
    27
 71
     3
 72
    12
 73
     8
 74
     0
 42
0.0000000001
 43
0.0000000001
 40
0.0
 40
0.0
 40
0.0
 40
0.0
 40
0.5
 40
0.5
 40
0.5
 40
0.5
 40
1.0
 40
1.0
 40
1.0
 40
1.0
 10
-14.15212
 20
-16.84322
 30
0.0
 10
-14.15212
 20
-16.84322
 30
0.0
 10
-14.02893
 20
-16.84322
 30
0.0
 10
-14.02893
 20
-16.84322
 30
0.0
 10
-14.02893
 20
-16.84322
 30
0.0
 10
-14.02893
 20
-16.84322
 30
0.0
 10
-14.15212
 20
-16.84322
 30
0.0
 10
-14.15212
 20
-16.84322
 30
0.0
  0
SPLINE
  5
72
330
1F
100
AcDbEntity
  8
Layer 1
 62
    30
370
     9
100
AcDbSpline
210
0.0
220
0.0
230
1.0
 70
    11
 71
     3
 72
    20
 73
    16
 74
     0
 42
0.0000000001
 43
0.0000000001
 40
0.0
 40
0.0
 40
0.0
 40
0.0
 40
0.25
 40
0.25
 40
0.25
 40
0.25
 40
0.5
 40
0.5
 40
0.5
 40
0.5
 40
0.75
 40
0.75
 40
0.75
 40
0.75
 40
1.0
 40
1.0
 40
1.0
 40
1.0
 10
-13.70805
 20
-17.00282
 30
0.0
 10
-13.70805
 20
-17.00282
 30
0.0
 10
-13.88627
 20
-17.00282
 30
0.0
 10
-13.88627
 20
-17.00282
 30
0.0
 10
-13.88627
 20
-17.00282
 30
0.0
 10
-13.88627
 20
-17.00282
 30
0.0
 10
-13.88627
 20
-16.6976
 30
0.0
 10
-13.88627
 20
-16.6976
 30
0.0
 10
-13.88627
 20
-16.6976
 30
0.0
 10
-13.88627
 20
-16.6976
 30
0.0
 10
-13.88627
 20
-17.00282
 30
0.0
 10
-13.88627
 20
-17.00282
 30
0.0
 10
-13.88627
 20
-17.00282
 30
0.0
 10
-13.88627
 20
-17.00282
 30
0.0
 10
-13.70805
 20
-17.00282
 30
0.0
 10
-13.70805
 20
-17.00282
 30
0.0
  0
SPLINE
  5
73
330
1F
100
AcDbEntity
  8
Layer 1
 62
    30
370
     9
100
AcDbSpline
210
0.0
220
0.0
230
1.0
 70
    11
 71
     3
 72
    92
 73
    88
 74
     0
 42
0.0000000001
 43
0.0000000001
 40
0.0
 40
0.0
 40
0.0
 40
0.0
 40
0.0454545454545455
 40
0.0454545454545455
 40
0.0454545454545455
 40
0.0454545454545455
 40
0.0909090909090909
 40
0.0909090909090909
 40
0.0909090909090909
 40
0.0909090909090909
 40
0.1363636363636364
 40
0.1363636363636364
 40
0.1363636363636364
 40
0.1363636363636364
 40
0.1818181818181818
 40
0.1818181818181818
 40
0.1818181818181818
 40
0.1818181818181818
 40
0.2272727272727273
 40
0.2272727272727273
 40
0.2272727272727273
 40
0.2272727272727273
 40
0.2727272727272728
 40
0.2727272727272728
 40
0.2727272727272728
 40
0.2727272727272728
 40
0.3181818181818182
 40
0.3181818181818182
 40
0.3181818181818182
 40
0.3181818181818182
 40
0.3636363636363637
 40
0.3636363636363637
 40
0.3636363636363637
 40
0.3636363636363637
 40
0.4090909090909092
 40
0.4090909090909092
 40
0.4090909090909092
 40
0.4090909090909092
 40
0.4545454545454546
 40
0.4545454545454546
 40
0.4545454545454546
 40
0.4545454545454546
 40
0.5000000000000001
 40
0.5000000000000001
 40
0.5000000000000001
 40
0.5000000000000001
 40
0.5454545454545455
 40
0.5454545454545455
 40
0.5454545454545455
 40
0.5454545454545455
 40
0.5909090909090909
 40
0.5909090909090909
 40
0.5909090909090909
 40
0.5909090909090909
 40
0.6363636363636364
 40
0.6363636363636364
 40
0.6363636363636364
 40
0.6363636363636364
 40
0.6818181818181818
 40
0.6818181818181818
 40
0.6818181818181818
 40
0.6818181818181818
 40
0.7272727272727272
 40
0.7272727272727272
 40
0.7272727272727272
 40
0.7272727272727272
 40
0.7727272727272726
 40
0.7727272727272726
 40
0.7727272727272726
 40
0.7727272727272726
 40
0.818181818181818
 40
0.818181818181818
 40
0.818181818181818
 40
0.818181818181818
 40
0.8636363636363634
 40
0.8636363636363634
 40
0.8636363636363634
 40
0.8636363636363634
 40
0.9090909090909088
 40
0.9090909090909088
 40
0.9090909090909088
 40
0.9090909090909088
 40
0.9545454545454543
 40
0.9545454545454543
 40
0.9545454545454543
 40
0.9545454545454543
 40
1.0
 40
1.0
 40
1.0
 40
1.0
 10
-13.34695
 20
-16.90037
 30
0.0
 10
-13.35147
 20
-16.92457
 30
0.0
 10
-13.35937
 20
-16.94454
 30
0.0
 10
-13.37045
 20
-16.9602
 30
0.0
 10
-13.37045
 20
-16.9602
 30
0.0
 10
-13.38159
 20
-16.9758
 30
0.0
 10
-13.39585
 20
-16.98737
 30
0.0
 10
-13.4132
 20
-16.99492
 30
0.0
 10
-13.4132
 20
-16.99492
 30
0.0
 10
-13.43049
 20
-17.00247
 30
0.0
 10
-13.45081
 20
-17.00628
 30
0.0
 10
-13.47395
 20
-17.00621
 30
0.0
 10
-13.47395
 20
-17.00621
 30
0.0
 10
-13.5021
 20
-17.00628
 30
0.0
 10
-13.52602
 20
-17.00084
 30
0.0
 10
-13.54564
 20
-16.98977
 30
0.0
 10
-13.54564
 20
-16.98977
 30
0.0
 10
-13.56525
 20
-16.97876
 30
0.0
 10
-13.58021
 20
-16.96176
 30
0.0
 10
-13.59051
 20
-16.93869
 30
0.0
 10
-13.59051
 20
-16.93869
 30
0.0
 10
-13.60081
 20
-16.91561
 30
0.0
 10
-13.60596
 20
-16.88605
 30
0.0
 10
-13.60603
 20
-16.85
 30
0.0
 10
-13.60603
 20
-16.85
 30
0.0
 10
-13.60596
 20
-16.81409
 30
0.0
 10
-13.60081
 20
-16.78459
 30
0.0
 10
-13.59051
 20
-16.76152
 30
0.0
 10
-13.59051
 20
-16.76152
 30
0.0
 10
-13.58021
 20
-16.73845
 30
0.0
 10
-13.56525
 20
-16.72138
 30
0.0
 10
-13.54564
 20
-16.7103
 30
0.0
 10
-13.54564
 20
-16.7103
 30
0.0
 10
-13.52602
 20
-16.69922
 30
0.0
 10
-13.5021
 20
-16.69372
 30
0.0
 10
-13.47395
 20
-16.69379
 30
0.0
 10
-13.47395
 20
-16.69379
 30
0.0
 10
-13.44382
 20
-16.69372
 30
0.0
 10
-13.41857
 20
-16.70014
 30
0.0
 10
-13.39825
 20
-16.71305
 30
0.0
 10
-13.39825
 20
-16.71305
 30
0.0
 10
-13.378
 20
-16.72596
 30
0.0
 10
-13.36311
 20
-16.74593
 30
0.0
 10
-13.35373
 20
-16.77295
 30
0.0
 10
-13.35373
 20
-16.77295
 30
0.0
 10
-13.36311
 20
-16.74593
 30
0.0
 10
-13.378
 20
-16.72596
 30
0.0
 10
-13.39825
 20
-16.71305
 30
0.0
 10
-13.39825
 20
-16.71305
 30
0.0
 10
-13.41857
 20
-16.70014
 30
0.0
 10
-13.44382
 20
-16.69372
 30
0.0
 10
-13.47395
 20
-16.69379
 30
0.0
 10
-13.47395
 20
-16.69379
 30
0.0
 10
-13.5021
 20
-16.69372
 30
0.0
 10
-13.52602
 20
-16.69922
 30
0.0
 10
-13.54564
 20
-16.7103
 30
0.0
 10
-13.54564
 20
-16.7103
 30
0.0
 10
-13.56525
 20
-16.72138
 30
0.0
 10
-13.58021
 20
-16.73845
 30
0.0
 10
-13.59051
 20
-16.76152
 30
0.0
 10
-13.59051
 20
-16.76152
 30
0.0
 10
-13.60081
 20
-16.78459
 30
0.0
 10
-13.60596
 20
-16.81409
 30
0.0
 10
-13.60603
 20
-16.85
 30
0.0
 10
-13.60603
 20
-16.85
 30
0.0
 10
-13.60596
 20
-16.88605
 30
0.0
 10
-13.60081
 20
-16.91561
 30
0.0
 10
-13.59051
 20
-16.93869
 30
0.0
 10
-13.59051
 20
-16.93869
 30
0.0
 10
-13.58021
 20
-16.96176
 30
0.0
 10
-13.56525
 20
-16.97876
 30
0.0
 10
-13.54564
 20
-16.98977
 30
0.0
 10
-13.54564
 20
-16.98977
 30
0.0
 10
-13.52602
 20
-17.00084
 30
0.0
 10
-13.5021
 20
-17.00628
 30
0.0
 10
-13.47395
 20
-17.00621
 30
0.0
 10
-13.47395
 20
-17.00621
 30
0.0
 10
-13.45081
 20
-17.00628
 30
0.0
 10
-13.43049
 20
-17.00247
 30
0.0
 10
-13.4132
 20
-16.99492
 30
0.0
 10
-13.4132
 20
-16.99492
 30
0.0
 10
-13.39585
 20
-16.98737
 30
0.0
 10
-13.38159
 20
-16.9758
 30
0.0
 10
-13.37045
 20
-16.9602
 30
0.0
 10
-13.37045
 20
-16.9602
 30
0.0
 10
-13.35937
 20
-16.94454
 30
0.0
 10
-13.35147
 20
-16.92457
 30
0.0
 10
-13.34695
 20
-16.90037
 30
0.0
  0
SPLINE
  5
74
330
1F
100
AcDbEntity
  8
Layer 1
 62
    30
370
     9
100
AcDbSpline
210
0.0
220
0.0
230
1.0
 70
    11
 71
     3
 72
    64
 73
    60
 74
     0
 42
0.0000000001
 43
0.0000000001
 40
0.0
 40
0.0
 40
0.0
 40
0.0
 40
0.0666666666666667
 40
0.0666666666666667
 40
0.0666666666666667
 40
0.0666666666666667
 40
0.1333333333333333
 40
0.1333333333333333
 40
0.1333333333333333
 40
0.1333333333333333
 40
0.2
 40
0.2
 40
0.2
 40
0.2
 40
0.2666666666666667
 40
0.2666666666666667
 40
0.2666666666666667
 40
0.2666666666666667
 40
0.3333333333333333
 40
0.3333333333333333
 40
0.3333333333333333
 40
0.3333333333333333
 40
0.4
 40
0.4
 40
0.4
 40
0.4
 40
0.4666666666666666
 40
0.4666666666666666
 40
0.4666666666666666
 40
0.4666666666666666
 40
0.5333333333333333
 40
0.5333333333333333
 40
0.5333333333333333
 40
0.5333333333333333
 40
0.6
 40
0.6
 40
0.6
 40
0.6
 40
0.6666666666666666
 40
0.6666666666666666
 40
0.6666666666666666
 40
0.6666666666666666
 40
0.7333333333333333
 40
0.7333333333333333
 40
0.7333333333333333
 40
0.7333333333333333
 40
0.7999999999999999
 40
0.7999999999999999
 40
0.7999999999999999
 40
0.7999999999999999
 40
0.8666666666666666
 40
0.8666666666666666
 40
0.8666666666666666
 40
0.8666666666666666
 40
0.9333333333333332
 40
0.9333333333333332
 40
0.9333333333333332
 40
0.9333333333333332
 40
1.0
 40
1.0
 40
1.0
 40
1.0
 10
-13.19709
 20
-17.00282
 30
0.0
 10
-13.19709
 20
-17.00282
 30
0.0
 10
-13.19709
 20
-16.6976
 30
0.0
 10
-13.19709
 20
-16.6976
 30
0.0
 10
-13.19709
 20
-16.6976
 30
0.0
 10
-13.19709
 20
-16.6976
 30
0.0
 10
-13.08702
 20
-16.6976
 30
0.0
 10
-13.08702
 20
-16.6976
 30
0.0
 10
-13.08702
 20
-16.6976
 30
0.0
 10
-13.0703
 20
-16.69767
 30
0.0
 10
-13.05584
 20
-16.69986
 30
0.0
 10
-13.04363
 20
-16.70416
 30
0.0
 10
-13.04363
 20
-16.70416
 30
0.0
 10
-13.0315
 20
-16.70846
 30
0.0
 10
-13.0212
 20
-16.71439
 30
0.0
 10
-13.01287
 20
-16.72187
 30
0.0
 10
-13.01287
 20
-16.72187
 30
0.0
 10
-13.00448
 20
-16.72942
 30
0.0
 10
-12.9977
 20
-16.7381
 30
0.0
 10
-12.99241
 20
-16.74783
 30
0.0
 10
-12.99241
 20
-16.74783
 30
0.0
 10
-12.98712
 20
-16.75764
 30
0.0
 10
-12.98303
 20
-16.76808
 30
0.0
 10
-12.98013
 20
-16.77916
 30
0.0
 10
-12.98013
 20
-16.77916
 30
0.0
 10
-12.97724
 20
-16.79017
 30
0.0
 10
-12.9752
 20
-16.80139
 30
0.0
 10
-12.97393
 20
-16.81274
 30
0.0
 10
-12.97393
 20
-16.81274
 30
0.0
 10
-12.97266
 20
-16.8241
 30
0.0
 10
-12.97181
 20
-16.83511
 30
0.0
 10
-12.97146
 20
-16.84576
 30
0.0
 10
-12.97146
 20
-16.84576
 30
0.0
 10
-12.97096
 20
-16.85642
 30
0.0
 10
-12.97131
 20
-16.86764
 30
0.0
 10
-12.97244
 20
-16.87942
 30
0.0
 10
-12.97244
 20
-16.87942
 30
0.0
 10
-12.97357
 20
-16.8912
 30
0.0
 10
-12.97569
 20
-16.90298
 30
0.0
 10
-12.97886
 20
-16.9147
 30
0.0
 10
-12.97886
 20
-16.9147
 30
0.0
 10
-12.98197
 20
-16.92641
 30
0.0
 10
-12.98641
 20
-16.93756
 30
0.0
 10
-12.99213
 20
-16.94807
 30
0.0
 10
-12.99213
 20
-16.94807
 30
0.0
 10
-12.99777
 20
-16.95865
 30
0.0
 10
-13.00497
 20
-16.96804
 30
0.0
 10
-13.01358
 20
-16.97622
 30
0.0
 10
-13.01358
 20
-16.97622
 30
0.0
 10
-13.02226
 20
-16.98441
 30
0.0
 10
-13.03263
 20
-16.9909
 30
0.0
 10
-13.04476
 20
-16.99562
 30
0.0
 10
-13.04476
 20
-16.99562
 30
0.0
 10
-13.0569
 20
-17.00035
 30
0.0
 10
-13.07101
 20
-17.00275
 30
0.0
 10
-13.08702
 20
-17.00282
 30
0.0
 10
-13.08702
 20
-17.00282
 30
0.0
 10
-13.08702
 20
-17.00282
 30
0.0
 10
-13.19709
 20
-17.00282
 30
0.0
 10
-13.19709
 20
-17.00282
 30
0.0
  0
SPLINE
  5
75
330
1F
100
AcDbEntity
  8
Layer 1
 62
    30
370
     9
100
AcDbSpline
210
0.0
220
0.0
230
1.0
 70
    11
 71
     3
 72
    64
 73
    60
 74
     0
 42
0.0000000001
 43
0.0000000001
 40
0.0
 40
0.0
 40
0.0
 40
0.0
 40
0.0666666666666667
 40
0.0666666666666667
 40
0.0666666666666667
 40
0.0666666666666667
 40
0.1333333333333333
 40
0.1333333333333333
 40
0.1333333333333333
 40
0.1333333333333333
 40
0.2
 40
0.2
 40
0.2
 40
0.2
 40
0.2666666666666667
 40
0.2666666666666667
 40
0.2666666666666667
 40
0.2666666666666667
 40
0.3333333333333333
 40
0.3333333333333333
 40
0.3333333333333333
 40
0.3333333333333333
 40
0.4
 40
0.4
 40
0.4
 40
0.4
 40
0.4666666666666666
 40
0.4666666666666666
 40
0.4666666666666666
 40
0.4666666666666666
 40
0.5333333333333333
 40
0.5333333333333333
 40
0.5333333333333333
 40
0.5333333333333333
 40
0.6
 40
0.6
 40
0.6
 40
0.6
 40
0.6666666666666666
 40
0.6666666666666666
 40
0.6666666666666666
 40
0.6666666666666666
 40
0.7333333333333333
 40
0.7333333333333333
 40
0.7333333333333333
 40
0.7333333333333333
 40
0.7999999999999999
 40
0.7999999999999999
 40
0.7999999999999999
 40
0.7999999999999999
 40
0.8666666666666666
 40
0.8666666666666666
 40
0.8666666666666666
 40
0.8666666666666666
 40
0.9333333333333332
 40
0.9333333333333332
 40
0.9333333333333332
 40
0.9333333333333332
 40
1.0
 40
1.0
 40
1.0
 40
1.0
 10
-13.19709
 20
-17.00282
 30
0.0
 10
-13.19709
 20
-17.00282
 30
0.0
 10
-13.19709
 20
-16.6976
 30
0.0
 10
-13.19709
 20
-16.6976
 30
0.0
 10
-13.19709
 20
-16.6976
 30
0.0
 10
-13.19709
 20
-16.6976
 30
0.0
 10
-13.08702
 20
-16.6976
 30
0.0
 10
-13.08702
 20
-16.6976
 30
0.0
 10
-13.08702
 20
-16.6976
 30
0.0
 10
-13.0703
 20
-16.69767
 30
0.0
 10
-13.05584
 20
-16.69986
 30
0.0
 10
-13.04363
 20
-16.70416
 30
0.0
 10
-13.04363
 20
-16.70416
 30
0.0
 10
-13.0315
 20
-16.70846
 30
0.0
 10
-13.0212
 20
-16.71439
 30
0.0
 10
-13.01287
 20
-16.72187
 30
0.0
 10
-13.01287
 20
-16.72187
 30
0.0
 10
-13.00448
 20
-16.72942
 30
0.0
 10
-12.9977
 20
-16.7381
 30
0.0
 10
-12.99241
 20
-16.74783
 30
0.0
 10
-12.99241
 20
-16.74783
 30
0.0
 10
-12.98712
 20
-16.75764
 30
0.0
 10
-12.98303
 20
-16.76808
 30
0.0
 10
-12.98013
 20
-16.77916
 30
0.0
 10
-12.98013
 20
-16.77916
 30
0.0
 10
-12.97724
 20
-16.79017
 30
0.0
 10
-12.9752
 20
-16.80139
 30
0.0
 10
-12.97393
 20
-16.81274
 30
0.0
 10
-12.97393
 20
-16.81274
 30
0.0
 10
-12.97266
 20
-16.8241
 30
0.0
 10
-12.97181
 20
-16.83511
 30
0.0
 10
-12.97146
 20
-16.84576
 30
0.0
 10
-12.97146
 20
-16.84576
 30
0.0
 10
-12.97096
 20
-16.85642
 30
0.0
 10
-12.97131
 20
-16.86764
 30
0.0
 10
-12.97244
 20
-16.87942
 30
0.0
 10
-12.97244
 20
-16.87942
 30
0.0
 10
-12.97357
 20
-16.8912
 30
0.0
 10
-12.97569
 20
-16.90298
 30
0.0
 10
-12.97886
 20
-16.9147
 30
0.0
 10
-12.97886
 20
-16.9147
 30
0.0
 10
-12.98197
 20
-16.92641
 30
0.0
 10
-12.98641
 20
-16.93756
 30
0.0
 10
-12.99213
 20
-16.94807
 30
0.0
 10
-12.99213
 20
-16.94807
 30
0.0
 10
-12.99777
 20
-16.95865
 30
0.0
 10
-13.00497
 20
-16.96804
 30
0.0
 10
-13.01358
 20
-16.97622
 30
0.0
 10
-13.01358
 20
-16.97622
 30
0.0
 10
-13.02226
 20
-16.98441
 30
0.0
 10
-13.03263
 20
-16.9909
 30
0.0
 10
-13.04476
 20
-16.99562
 30
0.0
 10
-13.04476
 20
-16.99562
 30
0.0
 10
-13.0569
 20
-17.00035
 30
0.0
 10
-13.07101
 20
-17.00275
 30
0.0
 10
-13.08702
 20
-17.00282
 30
0.0
 10
-13.08702
 20
-17.00282
 30
0.0
 10
-13.08702
 20
-17.00282
 30
0.0
 10
-13.19709
 20
-17.00282
 30
0.0
 10
-13.19709
 20
-17.00282
 30
0.0
  0
SPLINE
  5
76
330
1F
100
AcDbEntity
  8
Layer 1
 62
    30
370
     9
100
AcDbSpline
210
0.0
220
0.0
230
1.0
 70
    11
 71
     3
 72
    64
 73
    60
 74
     0
 42
0.0000000001
 43
0.0000000001
 40
0.0
 40
0.0
 40
0.0
 40
0.0
 40
0.0666666666666667
 40
0.0666666666666667
 40
0.0666666666666667
 40
0.0666666666666667
 40
0.1333333333333333
 40
0.1333333333333333
 40
0.1333333333333333
 40
0.1333333333333333
 40
0.2
 40
0.2
 40
0.2
 40
0.2
 40
0.2666666666666667
 40
0.2666666666666667
 40
0.2666666666666667
 40
0.2666666666666667
 40
0.3333333333333333
 40
0.3333333333333333
 40
0.3333333333333333
 40
0.3333333333333333
 40
0.4
 40
0.4
 40
0.4
 40
0.4
 40
0.4666666666666666
 40
0.4666666666666666
 40
0.4666666666666666
 40
0.4666666666666666
 40
0.5333333333333333
 40
0.5333333333333333
 40
0.5333333333333333
 40
0.5333333333333333
 40
0.6
 40
0.6
 40
0.6
 40
0.6
 40
0.6666666666666666
 40
0.6666666666666666
 40
0.6666666666666666
 40
0.6666666666666666
 40
0.7333333333333333
 40
0.7333333333333333
 40
0.7333333333333333
 40
0.7333333333333333
 40
0.7999999999999999
 40
0.7999999999999999
 40
0.7999999999999999
 40
0.7999999999999999
 40
0.8666666666666666
 40
0.8666666666666666
 40
0.8666666666666666
 40
0.8666666666666666
 40
0.9333333333333332
 40
0.9333333333333332
 40
0.9333333333333332
 40
0.9333333333333332
 40
1.0
 40
1.0
 40
1.0
 40
1.0
 10
-12.81863
 20
-17.00282
 30
0.0
 10
-12.81863
 20
-17.00282
 30
0.0
 10
-12.81863
 20
-16.6976
 30
0.0
 10
-12.81863
 20
-16.6976
 30
0.0
 10
-12.81863
 20
-16.6976
 30
0.0
 10
-12.81863
 20
-16.6976
 30
0.0
 10
-12.70856
 20
-16.6976
 30
0.0
 10
-12.70856
 20
-16.6976
 30
0.0
 10
-12.70856
 20
-16.6976
 30
0.0
 10
-12.69184
 20
-16.69767
 30
0.0
 10
-12.67738
 20
-16.69986
 30
0.0
 10
-12.66517
 20
-16.70416
 30
0.0
 10
-12.66517
 20
-16.70416
 30
0.0
 10
-12.65304
 20
-16.70846
 30
0.0
 10
-12.64274
 20
-16.71439
 30
0.0
 10
-12.63441
 20
-16.72187
 30
0.0
 10
-12.63441
 20
-16.72187
 30
0.0
 10
-12.62602
 20
-16.72942
 30
0.0
 10
-12.61924
 20
-16.7381
 30
0.0
 10
-12.61395
 20
-16.74783
 30
0.0
 10
-12.61395
 20
-16.74783
 30
0.0
 10
-12.60866
 20
-16.75764
 30
0.0
 10
-12.60457
 20
-16.76808
 30
0.0
 10
-12.60167
 20
-16.77916
 30
0.0
 10
-12.60167
 20
-16.77916
 30
0.0
 10
-12.59878
 20
-16.79017
 30
0.0
 10
-12.59674
 20
-16.80139
 30
0.0
 10
-12.59547
 20
-16.81274
 30
0.0
 10
-12.59547
 20
-16.81274
 30
0.0
 10
-12.5942
 20
-16.8241
 30
0.0
 10
-12.59335
 20
-16.83511
 30
0.0
 10
-12.593
 20
-16.84576
 30
0.0
 10
-12.593
 20
-16.84576
 30
0.0
 10
-12.5925
 20
-16.85642
 30
0.0
 10
-12.59285
 20
-16.86764
 30
0.0
 10
-12.59398
 20
-16.87942
 30
0.0
 10
-12.59398
 20
-16.87942
 30
0.0
 10
-12.59511
 20
-16.8912
 30
0.0
 10
-12.59723
 20
-16.90298
 30
0.0
 10
-12.6004
 20
-16.9147
 30
0.0
 10
-12.6004
 20
-16.9147
 30
0.0
 10
-12.60351
 20
-16.92641
 30
0.0
 10
-12.60795
 20
-16.93756
 30
0.0
 10
-12.61367
 20
-16.94807
 30
0.0
 10
-12.61367
 20
-16.94807
 30
0.0
 10
-12.61931
 20
-16.95865
 30
0.0
 10
-12.62651
 20
-16.96804
 30
0.0
 10
-12.63512
 20
-16.97622
 30
0.0
 10
-12.63512
 20
-16.97622
 30
0.0
 10
-12.6438
 20
-16.98441
 30
0.0
 10
-12.65417
 20
-16.9909
 30
0.0
 10
-12.6663
 20
-16.99562
 30
0.0
 10
-12.6663
 20
-16.99562
 30
0.0
 10
-12.67844
 20
-17.00035
 30
0.0
 10
-12.69255
 20
-17.00275
 30
0.0
 10
-12.70856
 20
-17.00282
 30
0.0
 10
-12.70856
 20
-17.00282
 30
0.0
 10
-12.70856
 20
-17.00282
 30
0.0
 10
-12.81863
 20
-17.00282
 30
0.0
 10
-12.81863
 20
-17.00282
 30
0.0
  0
SPLINE
  5
77
330
1F
100
AcDbEntity
  8
Layer 1
 62
    30
370
     9
100
AcDbSpline
210
0.0
220
0.0
230
1.0
 70
    11
 71
     3
 72
    64
 73
    60
 74
     0
 42
0.0000000001
 43
0.0000000001
 40
0.0
 40
0.0
 40
0.0
 40
0.0
 40
0.0666666666666667
 40
0.0666666666666667
 40
0.0666666666666667
 40
0.0666666666666667
 40
0.1333333333333333
 40
0.1333333333333333
 40
0.1333333333333333
 40
0.1333333333333333
 40
0.2
 40
0.2
 40
0.2
 40
0.2
 40
0.2666666666666667
 40
0.2666666666666667
 40
0.2666666666666667
 40
0.2666666666666667
 40
0.3333333333333333
 40
0.3333333333333333
 40
0.3333333333333333
 40
0.3333333333333333
 40
0.4
 40
0.4
 40
0.4
 40
0.4
 40
0.4666666666666666
 40
0.4666666666666666
 40
0.4666666666666666
 40
0.4666666666666666
 40
0.5333333333333333
 40
0.5333333333333333
 40
0.5333333333333333
 40
0.5333333333333333
 40
0.6
 40
0.6
 40
0.6
 40
0.6
 40
0.6666666666666666
 40
0.6666666666666666
 40
0.6666666666666666
 40
0.6666666666666666
 40
0.7333333333333333
 40
0.7333333333333333
 40
0.7333333333333333
 40
0.7333333333333333
 40
0.7999999999999999
 40
0.7999999999999999
 40
0.7999999999999999
 40
0.7999999999999999
 40
0.8666666666666666
 40
0.8666666666666666
 40
0.8666666666666666
 40
0.8666666666666666
 40
0.9333333333333332
 40
0.9333333333333332
 40
0.9333333333333332
 40
0.9333333333333332
 40
1.0
 40
1.0
 40
1.0
 40
1.0
 10
-12.81863
 20
-17.00282
 30
0.0
 10
-12.81863
 20
-17.00282
 30
0.0
 10
-12.81863
 20
-16.6976
 30
0.0
 10
-12.81863
 20
-16.6976
 30
0.0
 10
-12.81863
 20
-16.6976
 30
0.0
 10
-12.81863
 20
-16.6976
 30
0.0
 10
-12.70856
 20
-16.6976
 30
0.0
 10
-12.70856
 20
-16.6976
 30
0.0
 10
-12.70856
 20
-16.6976
 30
0.0
 10
-12.69184
 20
-16.69767
 30
0.0
 10
-12.67738
 20
-16.69986
 30
0.0
 10
-12.66517
 20
-16.70416
 30
0.0
 10
-12.66517
 20
-16.70416
 30
0.0
 10
-12.65304
 20
-16.70846
 30
0.0
 10
-12.64274
 20
-16.71439
 30
0.0
 10
-12.63441
 20
-16.72187
 30
0.0
 10
-12.63441
 20
-16.72187
 30
0.0
 10
-12.62602
 20
-16.72942
 30
0.0
 10
-12.61924
 20
-16.7381
 30
0.0
 10
-12.61395
 20
-16.74783
 30
0.0
 10
-12.61395
 20
-16.74783
 30
0.0
 10
-12.60866
 20
-16.75764
 30
0.0
 10
-12.60457
 20
-16.76808
 30
0.0
 10
-12.60167
 20
-16.77916
 30
0.0
 10
-12.60167
 20
-16.77916
 30
0.0
 10
-12.59878
 20
-16.79017
 30
0.0
 10
-12.59674
 20
-16.80139
 30
0.0
 10
-12.59547
 20
-16.81274
 30
0.0
 10
-12.59547
 20
-16.81274
 30
0.0
 10
-12.5942
 20
-16.8241
 30
0.0
 10
-12.59335
 20
-16.83511
 30
0.0
 10
-12.593
 20
-16.84576
 30
0.0
 10
-12.593
 20
-16.84576
 30
0.0
 10
-12.5925
 20
-16.85642
 30
0.0
 10
-12.59285
 20
-16.86764
 30
0.0
 10
-12.59398
 20
-16.87942
 30
0.0
 10
-12.59398
 20
-16.87942
 30
0.0
 10
-12.59511
 20
-16.8912
 30
0.0
 10
-12.59723
 20
-16.90298
 30
0.0
 10
-12.6004
 20
-16.9147
 30
0.0
 10
-12.6004
 20
-16.9147
 30
0.0
 10
-12.60351
 20
-16.92641
 30
0.0
 10
-12.60795
 20
-16.93756
 30
0.0
 10
-12.61367
 20
-16.94807
 30
0.0
 10
-12.61367
 20
-16.94807
 30
0.0
 10
-12.61931
 20
-16.95865
 30
0.0
 10
-12.62651
 20
-16.96804
 30
0.0
 10
-12.63512
 20
-16.97622
 30
0.0
 10
-12.63512
 20
-16.97622
 30
0.0
 10
-12.6438
 20
-16.98441
 30
0.0
 10
-12.65417
 20
-16.9909
 30
0.0
 10
-12.6663
 20
-16.99562
 30
0.0
 10
-12.6663
 20
-16.99562
 30
0.0
 10
-12.67844
 20
-17.00035
 30
0.0
 10
-12.69255
 20
-17.00275
 30
0.0
 10
-12.70856
 20
-17.00282
 30
0.0
 10
-12.70856
 20
-17.00282
 30
0.0
 10
-12.70856
 20
-17.00282
 30
0.0
 10
-12.81863
 20
-17.00282
 30
0.0
 10
-12.81863
 20
-17.00282
 30
0.0
  0
SPLINE
  5
78
330
1F
100
AcDbEntity
  8
Layer 1
 62
    30
370
     9
100
AcDbSpline
210
0.0
220
0.0
230
1.0
 70
    27
 71
     3
 72
    12
 73
     8
 74
     0
 42
0.0000000001
 43
0.0000000001
 40
0.0
 40
0.0
 40
0.0
 40
0.0
 40
0.5
 40
0.5
 40
0.5
 40
0.5
 40
1.0
 40
1.0
 40
1.0
 40
1.0
 10
-12.48589
 20
-16.84322
 30
0.0
 10
-12.48589
 20
-16.84322
 30
0.0
 10
-12.3627
 20
-16.84322
 30
0.0
 10
-12.3627
 20
-16.84322
 30
0.0
 10
-12.3627
 20
-16.84322
 30
0.0
 10
-12.3627
 20
-16.84322
 30
0.0
 10
-12.48589
 20
-16.84322
 30
0.0
 10
-12.48589
 20
-16.84322
 30
0.0
  0
SPLINE
  5
79
330
1F
100
AcDbEntity
  8
Layer 1
 62
    30
370
     9
100
AcDbSpline
210
0.0
220
0.0
230
1.0
 70
    11
 71
     3
 72
    84
 73
    80
 74
     0
 42
0.0000000001
 43
0.0000000001
 40
0.0
 40
0.0
 40
0.0
 40
0.0
 40
0.05
 40
0.05
 40
0.05
 40
0.05
 40
0.1
 40
0.1
 40
0.1
 40
0.1
 40
0.15
 40
0.15
 40
0.15
 40
0.15
 40
0.2
 40
0.2
 40
0.2
 40
0.2
 40
0.25
 40
0.25
 40
0.25
 40
0.25
 40
0.3
 40
0.3
 40
0.3
 40
0.3
 40
0.35
 40
0.35
 40
0.35
 40
0.35
 40
0.4
 40
0.4
 40
0.4
 40
0.4
 40
0.45
 40
0.45
 40
0.45
 40
0.45
 40
0.4999999999999999
 40
0.4999999999999999
 40
0.4999999999999999
 40
0.4999999999999999
 40
0.5499999999999999
 40
0.5499999999999999
 40
0.5499999999999999
 40
0.5499999999999999
 40
0.6
 40
0.6
 40
0.6
 40
0.6
 40
0.65
 40
0.65
 40
0.65
 40
0.65
 40
0.7000000000000001
 40
0.7000000000000001
 40
0.7000000000000001
 40
0.7000000000000001
 40
0.7500000000000001
 40
0.7500000000000001
 40
0.7500000000000001
 40
0.7500000000000001
 40
0.8000000000000002
 40
0.8000000000000002
 40
0.8000000000000002
 40
0.8000000000000002
 40
0.8500000000000002
 40
0.8500000000000002
 40
0.8500000000000002
 40
0.8500000000000002
 40
0.9000000000000002
 40
0.9000000000000002
 40
0.9000000000000002
 40
0.9000000000000002
 40
0.9500000000000003
 40
0.9500000000000003
 40
0.9500000000000003
 40
0.9500000000000003
 40
1.0
 40
1.0
 40
1.0
 40
1.0
 10
-12.17347
 20
-17.00282
 30
0.0
 10
-12.15866
 20
-17.00275
 30
0.0
 10
-12.14589
 20
-17.00014
 30
0.0
 10
-12.13523
 20
-16.99506
 30
0.0
 10
-12.13523
 20
-16.99506
 30
0.0
 10
-12.12465
 20
-16.98998
 30
0.0
 10
-12.11583
 20
-16.98271
 30
0.0
 10
-12.10878
 20
-16.97347
 30
0.0
 10
-12.10878
 20
-16.97347
 30
0.0
 10
-12.10179
 20
-16.96416
 30
0.0
 10
-12.09629
 20
-16.95315
 30
0.0
 10
-12.0922
 20
-16.94045
 30
0.0
 10
-12.0922
 20
-16.94045
 30
0.0
 10
-12.08817
 20
-16.92775
 30
0.0
 10
-12.08528
 20
-16.91385
 30
0.0
 10
-12.08366
 20
-16.89861
 30
0.0
 10
-12.08366
 20
-16.89861
 30
0.0
 10
-12.08196
 20
-16.88337
 30
0.0
 10
-12.08112
 20
-16.86735
 30
0.0
 10
-12.08119
 20
-16.85042
 30
0.0
 10
-12.08119
 20
-16.85042
 30
0.0
 10
-12.08112
 20
-16.83356
 30
0.0
 10
-12.08196
 20
-16.81754
 30
0.0
 10
-12.08366
 20
-16.80237
 30
0.0
 10
-12.08366
 20
-16.80237
 30
0.0
 10
-12.08528
 20
-16.7872
 30
0.0
 10
-12.08817
 20
-16.77323
 30
0.0
 10
-12.0922
 20
-16.76053
 30
0.0
 10
-12.0922
 20
-16.76053
 30
0.0
 10
-12.09629
 20
-16.7479
 30
0.0
 10
-12.10179
 20
-16.7369
 30
0.0
 10
-12.10878
 20
-16.72751
 30
0.0
 10
-12.10878
 20
-16.72751
 30
0.0
 10
-12.11583
 20
-16.7182
 30
0.0
 10
-12.12465
 20
-16.71093
 30
0.0
 10
-12.13523
 20
-16.70585
 30
0.0
 10
-12.13523
 20
-16.70585
 30
0.0
 10
-12.14589
 20
-16.7007
 30
0.0
 10
-12.15866
 20
-16.69809
 30
0.0
 10
-12.17347
 20
-16.69802
 30
0.0
 10
-12.17347
 20
-16.69802
 30
0.0
 10
-12.18829
 20
-16.69809
 30
0.0
 10
-12.20106
 20
-16.7007
 30
0.0
 10
-12.21172
 20
-16.70585
 30
0.0
 10
-12.21172
 20
-16.70585
 30
0.0
 10
-12.2223
 20
-16.71093
 30
0.0
 10
-12.23112
 20
-16.7182
 30
0.0
 10
-12.23817
 20
-16.72751
 30
0.0
 10
-12.23817
 20
-16.72751
 30
0.0
 10
-12.24516
 20
-16.7369
 30
0.0
 10
-12.25066
 20
-16.7479
 30
0.0
 10
-12.25475
 20
-16.76053
 30
0.0
 10
-12.25475
 20
-16.76053
 30
0.0
 10
-12.25878
 20
-16.77323
 30
0.0
 10
-12.26167
 20
-16.7872
 30
0.0
 10
-12.26329
 20
-16.80237
 30
0.0
 10
-12.26329
 20
-16.80237
 30
0.0
 10
-12.26498
 20
-16.81754
 30
0.0
 10
-12.26583
 20
-16.83356
 30
0.0
 10
-12.26576
 20
-16.85042
 30
0.0
 10
-12.26576
 20
-16.85042
 30
0.0
 10
-12.26583
 20
-16.86735
 30
0.0
 10
-12.26498
 20
-16.88337
 30
0.0
 10
-12.26329
 20
-16.89861
 30
0.0
 10
-12.26329
 20
-16.89861
 30
0.0
 10
-12.26167
 20
-16.91385
 30
0.0
 10
-12.25878
 20
-16.92775
 30
0.0
 10
-12.25475
 20
-16.94045
 30
0.0
 10
-12.25475
 20
-16.94045
 30
0.0
 10
-12.25066
 20
-16.95315
 30
0.0
 10
-12.24516
 20
-16.96416
 30
0.0
 10
-12.23817
 20
-16.97347
 30
0.0
 10
-12.23817
 20
-16.97347
 30
0.0
 10
-12.23112
 20
-16.98271
 30
0.0
 10
-12.2223
 20
-16.98998
 30
0.0
 10
-12.21172
 20
-16.99506
 30
0.0
 10
-12.21172
 20
-16.99506
 30
0.0
 10
-12.20106
 20
-17.00014
 30
0.0
 10
-12.18829
 20
-17.00275
 30
0.0
 10
-12.17347
 20
-17.00282
 30
0.0
  0
SPLINE
  5
7A
330
1F
100
AcDbEntity
  8
Layer 1
 62
    30
370
     9
100
AcDbSpline
210
0.0
220
0.0
230
1.0
 70
    11
 71
     3
 72
    84
 73
    80
 74
     0
 42
0.0000000001
 43
0.0000000001
 40
0.0
 40
0.0
 40
0.0
 40
0.0
 40
0.05
 40
0.05
 40
0.05
 40
0.05
 40
0.1
 40
0.1
 40
0.1
 40
0.1
 40
0.15
 40
0.15
 40
0.15
 40
0.15
 40
0.2
 40
0.2
 40
0.2
 40
0.2
 40
0.25
 40
0.25
 40
0.25
 40
0.25
 40
0.3
 40
0.3
 40
0.3
 40
0.3
 40
0.35
 40
0.35
 40
0.35
 40
0.35
 40
0.4
 40
0.4
 40
0.4
 40
0.4
 40
0.45
 40
0.45
 40
0.45
 40
0.45
 40
0.4999999999999999
 40
0.4999999999999999
 40
0.4999999999999999
 40
0.4999999999999999
 40
0.5499999999999999
 40
0.5499999999999999
 40
0.5499999999999999
 40
0.5499999999999999
 40
0.6
 40
0.6
 40
0.6
 40
0.6
 40
0.65
 40
0.65
 40
0.65
 40
0.65
 40
0.7000000000000001
 40
0.7000000000000001
 40
0.7000000000000001
 40
0.7000000000000001
 40
0.7500000000000001
 40
0.7500000000000001
 40
0.7500000000000001
 40
0.7500000000000001
 40
0.8000000000000002
 40
0.8000000000000002
 40
0.8000000000000002
 40
0.8000000000000002
 40
0.8500000000000002
 40
0.8500000000000002
 40
0.8500000000000002
 40
0.8500000000000002
 40
0.9000000000000002
 40
0.9000000000000002
 40
0.9000000000000002
 40
0.9000000000000002
 40
0.9500000000000003
 40
0.9500000000000003
 40
0.9500000000000003
 40
0.9500000000000003
 40
1.0
 40
1.0
 40
1.0
 40
1.0
 10
-12.17347
 20
-17.00282
 30
0.0
 10
-12.15866
 20
-17.00275
 30
0.0
 10
-12.14589
 20
-17.00014
 30
0.0
 10
-12.13523
 20
-16.99506
 30
0.0
 10
-12.13523
 20
-16.99506
 30
0.0
 10
-12.12465
 20
-16.98998
 30
0.0
 10
-12.11583
 20
-16.98271
 30
0.0
 10
-12.10878
 20
-16.97347
 30
0.0
 10
-12.10878
 20
-16.97347
 30
0.0
 10
-12.10179
 20
-16.96416
 30
0.0
 10
-12.09629
 20
-16.95315
 30
0.0
 10
-12.0922
 20
-16.94045
 30
0.0
 10
-12.0922
 20
-16.94045
 30
0.0
 10
-12.08817
 20
-16.92775
 30
0.0
 10
-12.08528
 20
-16.91385
 30
0.0
 10
-12.08366
 20
-16.89861
 30
0.0
 10
-12.08366
 20
-16.89861
 30
0.0
 10
-12.08196
 20
-16.88337
 30
0.0
 10
-12.08112
 20
-16.86735
 30
0.0
 10
-12.08119
 20
-16.85042
 30
0.0
 10
-12.08119
 20
-16.85042
 30
0.0
 10
-12.08112
 20
-16.83356
 30
0.0
 10
-12.08196
 20
-16.81754
 30
0.0
 10
-12.08366
 20
-16.80237
 30
0.0
 10
-12.08366
 20
-16.80237
 30
0.0
 10
-12.08528
 20
-16.7872
 30
0.0
 10
-12.08817
 20
-16.77323
 30
0.0
 10
-12.0922
 20
-16.76053
 30
0.0
 10
-12.0922
 20
-16.76053
 30
0.0
 10
-12.09629
 20
-16.7479
 30
0.0
 10
-12.10179
 20
-16.7369
 30
0.0
 10
-12.10878
 20
-16.72751
 30
0.0
 10
-12.10878
 20
-16.72751
 30
0.0
 10
-12.11583
 20
-16.7182
 30
0.0
 10
-12.12465
 20
-16.71093
 30
0.0
 10
-12.13523
 20
-16.70585
 30
0.0
 10
-12.13523
 20
-16.70585
 30
0.0
 10
-12.14589
 20
-16.7007
 30
0.0
 10
-12.15866
 20
-16.69809
 30
0.0
 10
-12.17347
 20
-16.69802
 30
0.0
 10
-12.17347
 20
-16.69802
 30
0.0
 10
-12.18829
 20
-16.69809
 30
0.0
 10
-12.20106
 20
-16.7007
 30
0.0
 10
-12.21172
 20
-16.70585
 30
0.0
 10
-12.21172
 20
-16.70585
 30
0.0
 10
-12.2223
 20
-16.71093
 30
0.0
 10
-12.23112
 20
-16.7182
 30
0.0
 10
-12.23817
 20
-16.72751
 30
0.0
 10
-12.23817
 20
-16.72751
 30
0.0
 10
-12.24516
 20
-16.7369
 30
0.0
 10
-12.25066
 20
-16.7479
 30
0.0
 10
-12.25475
 20
-16.76053
 30
0.0
 10
-12.25475
 20
-16.76053
 30
0.0
 10
-12.25878
 20
-16.77323
 30
0.0
 10
-12.26167
 20
-16.7872
 30
0.0
 10
-12.26329
 20
-16.80237
 30
0.0
 10
-12.26329
 20
-16.80237
 30
0.0
 10
-12.26498
 20
-16.81754
 30
0.0
 10
-12.26583
 20
-16.83356
 30
0.0
 10
-12.26576
 20
-16.85042
 30
0.0
 10
-12.26576
 20
-16.85042
 30
0.0
 10
-12.26583
 20
-16.86735
 30
0.0
 10
-12.26498
 20
-16.88337
 30
0.0
 10
-12.26329
 20
-16.89861
 30
0.0
 10
-12.26329
 20
-16.89861
 30
0.0
 10
-12.26167
 20
-16.91385
 30
0.0
 10
-12.25878
 20
-16.92775
 30
0.0
 10
-12.25475
 20
-16.94045
 30
0.0
 10
-12.25475
 20
-16.94045
 30
0.0
 10
-12.25066
 20
-16.95315
 30
0.0
 10
-12.24516
 20
-16.96416
 30
0.0
 10
-12.23817
 20
-16.97347
 30
0.0
 10
-12.23817
 20
-16.97347
 30
0.0
 10
-12.23112
 20
-16.98271
 30
0.0
 10
-12.2223
 20
-16.98998
 30
0.0
 10
-12.21172
 20
-16.99506
 30
0.0
 10
-12.21172
 20
-16.99506
 30
0.0
 10
-12.20106
 20
-17.00014
 30
0.0
 10
-12.18829
 20
-17.00275
 30
0.0
 10
-12.17347
 20
-17.00282
 30
0.0
  0
SPLINE
  5
7B
330
1F
100
AcDbEntity
  8
Layer 1
 62
    30
370
     9
100
AcDbSpline
210
0.0
220
0.0
230
1.0
 70
    11
 71
     3
 72
   236
 73
   232
 74
     0
 42
0.0000000001
 43
0.0000000001
 40
0.0
 40
0.0
 40
0.0
 40
0.0
 40
0.0172413793103448
 40
0.0172413793103448
 40
0.0172413793103448
 40
0.0172413793103448
 40
0.0344827586206897
 40
0.0344827586206897
 40
0.0344827586206897
 40
0.0344827586206897
 40
0.0517241379310345
 40
0.0517241379310345
 40
0.0517241379310345
 40
0.0517241379310345
 40
0.0689655172413793
 40
0.0689655172413793
 40
0.0689655172413793
 40
0.0689655172413793
 40
0.0862068965517241
 40
0.0862068965517241
 40
0.0862068965517241
 40
0.0862068965517241
 40
0.103448275862069
 40
0.103448275862069
 40
0.103448275862069
 40
0.103448275862069
 40
0.1206896551724138
 40
0.1206896551724138
 40
0.1206896551724138
 40
0.1206896551724138
 40
0.1379310344827586
 40
0.1379310344827586
 40
0.1379310344827586
 40
0.1379310344827586
 40
0.1551724137931035
 40
0.1551724137931035
 40
0.1551724137931035
 40
0.1551724137931035
 40
0.1724137931034483
 40
0.1724137931034483
 40
0.1724137931034483
 40
0.1724137931034483
 40
0.1896551724137931
 40
0.1896551724137931
 40
0.1896551724137931
 40
0.1896551724137931
 40
0.206896551724138
 40
0.206896551724138
 40
0.206896551724138
 40
0.206896551724138
 40
0.2241379310344828
 40
0.2241379310344828
 40
0.2241379310344828
 40
0.2241379310344828
 40
0.2413793103448277
 40
0.2413793103448277
 40
0.2413793103448277
 40
0.2413793103448277
 40
0.2586206896551725
 40
0.2586206896551725
 40
0.2586206896551725
 40
0.2586206896551725
 40
0.2758620689655173
 40
0.2758620689655173
 40
0.2758620689655173
 40
0.2758620689655173
 40
0.2931034482758621
 40
0.2931034482758621
 40
0.2931034482758621
 40
0.2931034482758621
 40
0.3103448275862069
 40
0.3103448275862069
 40
0.3103448275862069
 40
0.3103448275862069
 40
0.3275862068965517
 40
0.3275862068965517
 40
0.3275862068965517
 40
0.3275862068965517
 40
0.3448275862068965
 40
0.3448275862068965
 40
0.3448275862068965
 40
0.3448275862068965
 40
0.3620689655172413
 40
0.3620689655172413
 40
0.3620689655172413
 40
0.3620689655172413
 40
0.3793103448275861
 40
0.3793103448275861
 40
0.3793103448275861
 40
0.3793103448275861
 40
0.3965517241379309
 40
0.3965517241379309
 40
0.3965517241379309
 40
0.3965517241379309
 40
0.4137931034482757
 40
0.4137931034482757
 40
0.4137931034482757
 40
0.4137931034482757
 40
0.4310344827586206
 40
0.4310344827586206
 40
0.4310344827586206
 40
0.4310344827586206
 40
0.4482758620689654
 40
0.4482758620689654
 40
0.4482758620689654
 40
0.4482758620689654
 40
0.4655172413793102
 40
0.4655172413793102
 40
0.4655172413793102
 40
0.4655172413793102
 40
0.482758620689655
 40
0.482758620689655
 40
0.482758620689655
 40
0.482758620689655
 40
0.4999999999999998
 40
0.4999999999999998
 40
0.4999999999999998
 40
0.4999999999999998
 40
0.5172413793103446
 40
0.5172413793103446
 40
0.5172413793103446
 40
0.5172413793103446
 40
0.5344827586206895
 40
0.5344827586206895
 40
0.5344827586206895
 40
0.5344827586206895
 40
0.5517241379310344
 40
0.5517241379310344
 40
0.5517241379310344
 40
0.5517241379310344
 40
0.5689655172413792
 40
0.5689655172413792
 40
0.5689655172413792
 40
0.5689655172413792
 40
0.5862068965517241
 40
0.5862068965517241
 40
0.5862068965517241
 40
0.5862068965517241
 40
0.603448275862069
 40
0.603448275862069
 40
0.603448275862069
 40
0.603448275862069
 40
0.6206896551724138
 40
0.6206896551724138
 40
0.6206896551724138
 40
0.6206896551724138
 40
0.6379310344827587
 40
0.6379310344827587
 40
0.6379310344827587
 40
0.6379310344827587
 40
0.6551724137931035
 40
0.6551724137931035
 40
0.6551724137931035
 40
0.6551724137931035
 40
0.6724137931034484
 40
0.6724137931034484
 40
0.6724137931034484
 40
0.6724137931034484
 40
0.6896551724137933
 40
0.6896551724137933
 40
0.6896551724137933
 40
0.6896551724137933
 40
0.7068965517241381
 40
0.7068965517241381
 40
0.7068965517241381
 40
0.7068965517241381
 40
0.724137931034483
 40
0.724137931034483
 40
0.724137931034483
 40
0.724137931034483
 40
0.7413793103448278
 40
0.7413793103448278
 40
0.7413793103448278
 40
0.7413793103448278
 40
0.7586206896551727
 40
0.7586206896551727
 40
0.7586206896551727
 40
0.7586206896551727
 40
0.7758620689655176
 40
0.7758620689655176
 40
0.7758620689655176
 40
0.7758620689655176
 40
0.7931034482758624
 40
0.7931034482758624
 40
0.7931034482758624
 40
0.7931034482758624
 40
0.8103448275862073
 40
0.8103448275862073
 40
0.8103448275862073
 40
0.8103448275862073
 40
0.8275862068965522
 40
0.8275862068965522
 40
0.8275862068965522
 40
0.8275862068965522
 40
0.844827586206897
 40
0.844827586206897
 40
0.844827586206897
 40
0.844827586206897
 40
0.8620689655172419
 40
0.8620689655172419
 40
0.8620689655172419
 40
0.8620689655172419
 40
0.8793103448275867
 40
0.8793103448275867
 40
0.8793103448275867
 40
0.8793103448275867
 40
0.8965517241379316
 40
0.8965517241379316
 40
0.8965517241379316
 40
0.8965517241379316
 40
0.9137931034482765
 40
0.9137931034482765
 40
0.9137931034482765
 40
0.9137931034482765
 40
0.9310344827586213
 40
0.9310344827586213
 40
0.9310344827586213
 40
0.9310344827586213
 40
0.9482758620689662
 40
0.9482758620689662
 40
0.9482758620689662
 40
0.9482758620689662
 40
0.965517241379311
 40
0.965517241379311
 40
0.965517241379311
 40
0.965517241379311
 40
0.9827586206896559
 40
0.9827586206896559
 40
0.9827586206896559
 40
0.9827586206896559
 40
1.0
 40
1.0
 40
1.0
 40
1.0
 10
-11.96096
 20
-16.91096
 30
0.0
 10
-11.96089
 20
-16.89713
 30
0.0
 10
-11.95864
 20
-16.88464
 30
0.0
 10
-11.95412
 20
-16.87335
 30
0.0
 10
-11.95412
 20
-16.87335
 30
0.0
 10
-11.94968
 20
-16.86213
 30
0.0
 10
-11.9434
 20
-16.85247
 30
0.0
 10
-11.93528
 20
-16.84435
 30
0.0
 10
-11.93528
 20
-16.84435
 30
0.0
 10
-11.92724
 20
-16.83631
 30
0.0
 10
-11.91771
 20
-16.8301
 30
0.0
 10
-11.90685
 20
-16.82573
 30
0.0
 10
-11.90685
 20
-16.82573
 30
0.0
 10
-11.89598
 20
-16.82135
 30
0.0
 10
-11.88406
 20
-16.81917
 30
0.0
 10
-11.87122
 20
-16.81909
 30
0.0
 10
-11.87122
 20
-16.81909
 30
0.0
 10
-11.85831
 20
-16.81902
 30
0.0
 10
-11.84624
 20
-16.82065
 30
0.0
 10
-11.83502
 20
-16.82389
 30
0.0
 10
-11.83502
 20
-16.82389
 30
0.0
 10
-11.8238
 20
-16.82707
 30
0.0
 10
-11.814
 20
-16.83229
 30
0.0
 10
-11.80546
 20
-16.83949
 30
0.0
 10
-11.80546
 20
-16.83949
 30
0.0
 10
-11.79692
 20
-16.84661
 30
0.0
 10
-11.79022
 20
-16.85607
 30
0.0
 10
-11.78542
 20
-16.86785
 30
0.0
 10
-11.78542
 20
-16.86785
 30
0.0
 10
-11.78063
 20
-16.87963
 30
0.0
 10
-11.77816
 20
-16.89395
 30
0.0
 10
-11.77809
 20
-16.91096
 30
0.0
 10
-11.77809
 20
-16.91096
 30
0.0
 10
-11.77816
 20
-16.92796
 30
0.0
 10
-11.78063
 20
-16.94228
 30
0.0
 10
-11.78542
 20
-16.95407
 30
0.0
 10
-11.78542
 20
-16.95407
 30
0.0
 10
-11.79022
 20
-16.96585
 30
0.0
 10
-11.79692
 20
-16.9753
 30
0.0
 10
-11.80546
 20
-16.98243
 30
0.0
 10
-11.80546
 20
-16.98243
 30
0.0
 10
-11.814
 20
-16.98963
 30
0.0
 10
-11.8238
 20
-16.99485
 30
0.0
 10
-11.83502
 20
-16.99802
 30
0.0
 10
-11.83502
 20
-16.99802
 30
0.0
 10
-11.84624
 20
-17.00127
 30
0.0
 10
-11.85831
 20
-17.00289
 30
0.0
 10
-11.87122
 20
-17.00282
 30
0.0
 10
-11.87122
 20
-17.00282
 30
0.0
 10
-11.88406
 20
-17.00275
 30
0.0
 10
-11.89584
 20
-17.00056
 30
0.0
 10
-11.90664
 20
-16.99619
 30
0.0
 10
-11.90664
 20
-16.99619
 30
0.0
 10
-11.91736
 20
-16.99181
 30
0.0
 10
-11.92667
 20
-16.9856
 30
0.0
 10
-11.93465
 20
-16.97749
 30
0.0
 10
-11.93465
 20
-16.97749
 30
0.0
 10
-11.94262
 20
-16.96945
 30
0.0
 10
-11.9489
 20
-16.95978
 30
0.0
 10
-11.95341
 20
-16.94849
 30
0.0
 10
-11.95341
 20
-16.94849
 30
0.0
 10
-11.958
 20
-16.93727
 30
0.0
 10
-11.96047
 20
-16.92479
 30
0.0
 10
-11.96096
 20
-16.91096
 30
0.0
 10
-11.96096
 20
-16.91096
 30
0.0
 10
-11.96125
 20
-16.90397
 30
0.0
 10
-11.9616
 20
-16.89565
 30
0.0
 10
-11.96209
 20
-16.88598
 30
0.0
 10
-11.96209
 20
-16.88598
 30
0.0
 10
-11.96259
 20
-16.87624
 30
0.0
 10
-11.96287
 20
-16.86566
 30
0.0
 10
-11.96294
 20
-16.8543
 30
0.0
 10
-11.96294
 20
-16.8543
 30
0.0
 10
-11.96301
 20
-16.84287
 30
0.0
 10
-11.96266
 20
-16.83109
 30
0.0
 10
-11.96174
 20
-16.81902
 30
0.0
 10
-11.96174
 20
-16.81902
 30
0.0
 10
-11.96089
 20
-16.80689
 30
0.0
 10
-11.9592
 20
-16.79496
 30
0.0
 10
-11.95673
 20
-16.78318
 30
0.0
 10
-11.95673
 20
-16.78318
 30
0.0
 10
-11.95426
 20
-16.77147
 30
0.0
 10
-11.95073
 20
-16.76039
 30
0.0
 10
-11.94608
 20
-16.75002
 30
0.0
 10
-11.94608
 20
-16.75002
 30
0.0
 10
-11.94142
 20
-16.73965
 30
0.0
 10
-11.93542
 20
-16.73048
 30
0.0
 10
-11.92801
 20
-16.7225
 30
0.0
 10
-11.92801
 20
-16.7225
 30
0.0
 10
-11.92054
 20
-16.71453
 30
0.0
 10
-11.91143
 20
-16.70825
 30
0.0
 10
-11.90064
 20
-16.70367
 30
0.0
 10
-11.90064
 20
-16.70367
 30
0.0
 10
-11.88984
 20
-16.69915
 30
0.0
 10
-11.87707
 20
-16.69682
 30
0.0
 10
-11.86233
 20
-16.69675
 30
0.0
 10
-11.86233
 20
-16.69675
 30
0.0
 10
-11.84949
 20
-16.69682
 30
0.0
 10
-11.83862
 20
-16.69809
 30
0.0
 10
-11.82959
 20
-16.70056
 30
0.0
 10
-11.82959
 20
-16.70056
 30
0.0
 10
-11.82056
 20
-16.70303
 30
0.0
 10
-11.81315
 20
-16.70635
 30
0.0
 10
-11.80722
 20
-16.71044
 30
0.0
 10
-11.80722
 20
-16.71044
 30
0.0
 10
-11.80137
 20
-16.7146
 30
0.0
 10
-11.79671
 20
-16.71912
 30
0.0
 10
-11.79333
 20
-16.72413
 30
0.0
 10
-11.79333
 20
-16.72413
 30
0.0
 10
-11.78994
 20
-16.72907
 30
0.0
 10
-11.7874
 20
-16.73408
 30
0.0
 10
-11.78585
 20
-16.73909
 30
0.0
 10
-11.78585
 20
-16.73909
 30
0.0
 10
-11.78422
 20
-16.74409
 30
0.0
 10
-11.78317
 20
-16.74875
 30
0.0
 10
-11.78274
 20
-16.75306
 30
0.0
 10
-11.78274
 20
-16.75306
 30
0.0
 10
-11.78317
 20
-16.74875
 30
0.0
 10
-11.78422
 20
-16.74409
 30
0.0
 10
-11.78585
 20
-16.73909
 30
0.0
 10
-11.78585
 20
-16.73909
 30
0.0
 10
-11.7874
 20
-16.73408
 30
0.0
 10
-11.78994
 20
-16.72907
 30
0.0
 10
-11.79333
 20
-16.72413
 30
0.0
 10
-11.79333
 20
-16.72413
 30
0.0
 10
-11.79671
 20
-16.71912
 30
0.0
 10
-11.80137
 20
-16.7146
 30
0.0
 10
-11.80722
 20
-16.71044
 30
0.0
 10
-11.80722
 20
-16.71044
 30
0.0
 10
-11.81315
 20
-16.70635
 30
0.0
 10
-11.82056
 20
-16.70303
 30
0.0
 10
-11.82959
 20
-16.70056
 30
0.0
 10
-11.82959
 20
-16.70056
 30
0.0
 10
-11.83862
 20
-16.69809
 30
0.0
 10
-11.84949
 20
-16.69682
 30
0.0
 10
-11.86233
 20
-16.69675
 30
0.0
 10
-11.86233
 20
-16.69675
 30
0.0
 10
-11.87707
 20
-16.69682
 30
0.0
 10
-11.88984
 20
-16.69915
 30
0.0
 10
-11.90064
 20
-16.70367
 30
0.0
 10
-11.90064
 20
-16.70367
 30
0.0
 10
-11.91143
 20
-16.70825
 30
0.0
 10
-11.92054
 20
-16.71453
 30
0.0
 10
-11.92801
 20
-16.7225
 30
0.0
 10
-11.92801
 20
-16.7225
 30
0.0
 10
-11.93542
 20
-16.73048
 30
0.0
 10
-11.94142
 20
-16.73965
 30
0.0
 10
-11.94608
 20
-16.75002
 30
0.0
 10
-11.94608
 20
-16.75002
 30
0.0
 10
-11.95073
 20
-16.76039
 30
0.0
 10
-11.95426
 20
-16.77147
 30
0.0
 10
-11.95673
 20
-16.78318
 30
0.0
 10
-11.95673
 20
-16.78318
 30
0.0
 10
-11.9592
 20
-16.79496
 30
0.0
 10
-11.96089
 20
-16.80689
 30
0.0
 10
-11.96174
 20
-16.81902
 30
0.0
 10
-11.96174
 20
-16.81902
 30
0.0
 10
-11.96266
 20
-16.83109
 30
0.0
 10
-11.96301
 20
-16.84287
 30
0.0
 10
-11.96294
 20
-16.8543
 30
0.0
 10
-11.96294
 20
-16.8543
 30
0.0
 10
-11.96287
 20
-16.86566
 30
0.0
 10
-11.96259
 20
-16.87624
 30
0.0
 10
-11.96209
 20
-16.88598
 30
0.0
 10
-11.96209
 20
-16.88598
 30
0.0
 10
-11.9616
 20
-16.89565
 30
0.0
 10
-11.96125
 20
-16.90397
 30
0.0
 10
-11.96096
 20
-16.91096
 30
0.0
 10
-11.96096
 20
-16.91096
 30
0.0
 10
-11.96047
 20
-16.92479
 30
0.0
 10
-11.958
 20
-16.93727
 30
0.0
 10
-11.95341
 20
-16.94849
 30
0.0
 10
-11.95341
 20
-16.94849
 30
0.0
 10
-11.9489
 20
-16.95978
 30
0.0
 10
-11.94262
 20
-16.96945
 30
0.0
 10
-11.93465
 20
-16.97749
 30
0.0
 10
-11.93465
 20
-16.97749
 30
0.0
 10
-11.92667
 20
-16.9856
 30
0.0
 10
-11.91736
 20
-16.99181
 30
0.0
 10
-11.90664
 20
-16.99619
 30
0.0
 10
-11.90664
 20
-16.99619
 30
0.0
 10
-11.89584
 20
-17.00056
 30
0.0
 10
-11.88406
 20
-17.00275
 30
0.0
 10
-11.87122
 20
-17.00282
 30
0.0
 10
-11.87122
 20
-17.00282
 30
0.0
 10
-11.85831
 20
-17.00289
 30
0.0
 10
-11.84624
 20
-17.00127
 30
0.0
 10
-11.83502
 20
-16.99802
 30
0.0
 10
-11.83502
 20
-16.99802
 30
0.0
 10
-11.8238
 20
-16.99485
 30
0.0
 10
-11.814
 20
-16.98963
 30
0.0
 10
-11.80546
 20
-16.98243
 30
0.0
 10
-11.80546
 20
-16.98243
 30
0.0
 10
-11.79692
 20
-16.9753
 30
0.0
 10
-11.79022
 20
-16.96585
 30
0.0
 10
-11.78542
 20
-16.95407
 30
0.0
 10
-11.78542
 20
-16.95407
 30
0.0
 10
-11.78063
 20
-16.94228
 30
0.0
 10
-11.77816
 20
-16.92796
 30
0.0
 10
-11.77809
 20
-16.91096
 30
0.0
 10
-11.77809
 20
-16.91096
 30
0.0
 10
-11.77816
 20
-16.89395
 30
0.0
 10
-11.78063
 20
-16.87963
 30
0.0
 10
-11.78542
 20
-16.86785
 30
0.0
 10
-11.78542
 20
-16.86785
 30
0.0
 10
-11.79022
 20
-16.85607
 30
0.0
 10
-11.79692
 20
-16.84661
 30
0.0
 10
-11.80546
 20
-16.83949
 30
0.0
 10
-11.80546
 20
-16.83949
 30
0.0
 10
-11.814
 20
-16.83229
 30
0.0
 10
-11.8238
 20
-16.82707
 30
0.0
 10
-11.83502
 20
-16.82389
 30
0.0
 10
-11.83502
 20
-16.82389
 30
0.0
 10
-11.84624
 20
-16.82065
 30
0.0
 10
-11.85831
 20
-16.81902
 30
0.0
 10
-11.87122
 20
-16.81909
 30
0.0
 10
-11.87122
 20
-16.81909
 30
0.0
 10
-11.88406
 20
-16.81917
 30
0.0
 10
-11.89598
 20
-16.82135
 30
0.0
 10
-11.90685
 20
-16.82573
 30
0.0
 10
-11.90685
 20
-16.82573
 30
0.0
 10
-11.91771
 20
-16.8301
 30
0.0
 10
-11.92724
 20
-16.83631
 30
0.0
 10
-11.93528
 20
-16.84435
 30
0.0
 10
-11.93528
 20
-16.84435
 30
0.0
 10
-11.9434
 20
-16.85247
 30
0.0
 10
-11.94968
 20
-16.86213
 30
0.0
 10
-11.95412
 20
-16.87335
 30
0.0
 10
-11.95412
 20
-16.87335
 30
0.0
 10
-11.95864
 20
-16.88464
 30
0.0
 10
-11.96089
 20
-16.89713
 30
0.0
 10
-11.96096
 20
-16.91096
 30
0.0
  0
SPLINE
  5
7C
330
1F
100
AcDbEntity
  8
Layer 1
 62
    30
370
     9
100
AcDbSpline
210
0.0
220
0.0
230
1.0
 70
    27
 71
     3
 72
    12
 73
     8
 74
     0
 42
0.0000000001
 43
0.0000000001
 40
0.0
 40
0.0
 40
0.0
 40
0.0
 40
0.5
 40
0.5
 40
0.5
 40
0.5
 40
1.0
 40
1.0
 40
1.0
 40
1.0
 10
-11.67691
 20
-16.84322
 30
0.0
 10
-11.67691
 20
-16.84322
 30
0.0
 10
-11.55372
 20
-16.84322
 30
0.0
 10
-11.55372
 20
-16.84322
 30
0.0
 10
-11.55372
 20
-16.84322
 30
0.0
 10
-11.55372
 20
-16.84322
 30
0.0
 10
-11.67691
 20
-16.84322
 30
0.0
 10
-11.67691
 20
-16.84322
 30
0.0
  0
SPLINE
  5
7D
330
1F
100
AcDbEntity
  8
Layer 1
 62
    30
370
     9
100
AcDbSpline
210
0.0
220
0.0
230
1.0
 70
    11
 71
     3
 72
    84
 73
    80
 74
     0
 42
0.0000000001
 43
0.0000000001
 40
0.0
 40
0.0
 40
0.0
 40
0.0
 40
0.05
 40
0.05
 40
0.05
 40
0.05
 40
0.1
 40
0.1
 40
0.1
 40
0.1
 40
0.15
 40
0.15
 40
0.15
 40
0.15
 40
0.2
 40
0.2
 40
0.2
 40
0.2
 40
0.25
 40
0.25
 40
0.25
 40
0.25
 40
0.3
 40
0.3
 40
0.3
 40
0.3
 40
0.35
 40
0.35
 40
0.35
 40
0.35
 40
0.4
 40
0.4
 40
0.4
 40
0.4
 40
0.45
 40
0.45
 40
0.45
 40
0.45
 40
0.4999999999999999
 40
0.4999999999999999
 40
0.4999999999999999
 40
0.4999999999999999
 40
0.5499999999999999
 40
0.5499999999999999
 40
0.5499999999999999
 40
0.5499999999999999
 40
0.6
 40
0.6
 40
0.6
 40
0.6
 40
0.65
 40
0.65
 40
0.65
 40
0.65
 40
0.7000000000000001
 40
0.7000000000000001
 40
0.7000000000000001
 40
0.7000000000000001
 40
0.7500000000000001
 40
0.7500000000000001
 40
0.7500000000000001
 40
0.7500000000000001
 40
0.8000000000000002
 40
0.8000000000000002
 40
0.8000000000000002
 40
0.8000000000000002
 40
0.8500000000000002
 40
0.8500000000000002
 40
0.8500000000000002
 40
0.8500000000000002
 40
0.9000000000000002
 40
0.9000000000000002
 40
0.9000000000000002
 40
0.9000000000000002
 40
0.9500000000000003
 40
0.9500000000000003
 40
0.9500000000000003
 40
0.9500000000000003
 40
1.0
 40
1.0
 40
1.0
 40
1.0
 10
-11.36449
 20
-17.00282
 30
0.0
 10
-11.34968
 20
-17.00275
 30
0.0
 10
-11.33691
 20
-17.00014
 30
0.0
 10
-11.32625
 20
-16.99506
 30
0.0
 10
-11.32625
 20
-16.99506
 30
0.0
 10
-11.31567
 20
-16.98998
 30
0.0
 10
-11.30685
 20
-16.98271
 30
0.0
 10
-11.2998
 20
-16.97347
 30
0.0
 10
-11.2998
 20
-16.97347
 30
0.0
 10
-11.29281
 20
-16.96416
 30
0.0
 10
-11.28731
 20
-16.95315
 30
0.0
 10
-11.28322
 20
-16.94045
 30
0.0
 10
-11.28322
 20
-16.94045
 30
0.0
 10
-11.27919
 20
-16.92775
 30
0.0
 10
-11.2763
 20
-16.91385
 30
0.0
 10
-11.27468
 20
-16.89861
 30
0.0
 10
-11.27468
 20
-16.89861
 30
0.0
 10
-11.27298
 20
-16.88337
 30
0.0
 10
-11.27214
 20
-16.86735
 30
0.0
 10
-11.27221
 20
-16.85042
 30
0.0
 10
-11.27221
 20
-16.85042
 30
0.0
 10
-11.27214
 20
-16.83356
 30
0.0
 10
-11.27298
 20
-16.81754
 30
0.0
 10
-11.27468
 20
-16.80237
 30
0.0
 10
-11.27468
 20
-16.80237
 30
0.0
 10
-11.2763
 20
-16.7872
 30
0.0
 10
-11.27919
 20
-16.77323
 30
0.0
 10
-11.28322
 20
-16.76053
 30
0.0
 10
-11.28322
 20
-16.76053
 30
0.0
 10
-11.28731
 20
-16.7479
 30
0.0
 10
-11.29281
 20
-16.7369
 30
0.0
 10
-11.2998
 20
-16.72751
 30
0.0
 10
-11.2998
 20
-16.72751
 30
0.0
 10
-11.30685
 20
-16.7182
 30
0.0
 10
-11.31567
 20
-16.71093
 30
0.0
 10
-11.32625
 20
-16.70585
 30
0.0
 10
-11.32625
 20
-16.70585
 30
0.0
 10
-11.33691
 20
-16.7007
 30
0.0
 10
-11.34968
 20
-16.69809
 30
0.0
 10
-11.36449
 20
-16.69802
 30
0.0
 10
-11.36449
 20
-16.69802
 30
0.0
 10
-11.37931
 20
-16.69809
 30
0.0
 10
-11.39208
 20
-16.7007
 30
0.0
 10
-11.40274
 20
-16.70585
 30
0.0
 10
-11.40274
 20
-16.70585
 30
0.0
 10
-11.41332
 20
-16.71093
 30
0.0
 10
-11.42214
 20
-16.7182
 30
0.0
 10
-11.42919
 20
-16.72751
 30
0.0
 10
-11.42919
 20
-16.72751
 30
0.0
 10
-11.43618
 20
-16.7369
 30
0.0
 10
-11.44168
 20
-16.7479
 30
0.0
 10
-11.44577
 20
-16.76053
 30
0.0
 10
-11.44577
 20
-16.76053
 30
0.0
 10
-11.4498
 20
-16.77323
 30
0.0
 10
-11.45269
 20
-16.7872
 30
0.0
 10
-11.45431
 20
-16.80237
 30
0.0
 10
-11.45431
 20
-16.80237
 30
0.0
 10
-11.456
 20
-16.81754
 30
0.0
 10
-11.45685
 20
-16.83356
 30
0.0
 10
-11.45678
 20
-16.85042
 30
0.0
 10
-11.45678
 20
-16.85042
 30
0.0
 10
-11.45685
 20
-16.86735
 30
0.0
 10
-11.456
 20
-16.88337
 30
0.0
 10
-11.45431
 20
-16.89861
 30
0.0
 10
-11.45431
 20
-16.89861
 30
0.0
 10
-11.45269
 20
-16.91385
 30
0.0
 10
-11.4498
 20
-16.92775
 30
0.0
 10
-11.44577
 20
-16.94045
 30
0.0
 10
-11.44577
 20
-16.94045
 30
0.0
 10
-11.44168
 20
-16.95315
 30
0.0
 10
-11.43618
 20
-16.96416
 30
0.0
 10
-11.42919
 20
-16.97347
 30
0.0
 10
-11.42919
 20
-16.97347
 30
0.0
 10
-11.42214
 20
-16.98271
 30
0.0
 10
-11.41332
 20
-16.98998
 30
0.0
 10
-11.40274
 20
-16.99506
 30
0.0
 10
-11.40274
 20
-16.99506
 30
0.0
 10
-11.39208
 20
-17.00014
 30
0.0
 10
-11.37931
 20
-17.00275
 30
0.0
 10
-11.36449
 20
-17.00282
 30
0.0
  0
SPLINE
  5
7E
330
1F
100
AcDbEntity
  8
Layer 1
 62
    30
370
     9
100
AcDbSpline
210
0.0
220
0.0
230
1.0
 70
    11
 71
     3
 72
    84
 73
    80
 74
     0
 42
0.0000000001
 43
0.0000000001
 40
0.0
 40
0.0
 40
0.0
 40
0.0
 40
0.05
 40
0.05
 40
0.05
 40
0.05
 40
0.1
 40
0.1
 40
0.1
 40
0.1
 40
0.15
 40
0.15
 40
0.15
 40
0.15
 40
0.2
 40
0.2
 40
0.2
 40
0.2
 40
0.25
 40
0.25
 40
0.25
 40
0.25
 40
0.3
 40
0.3
 40
0.3
 40
0.3
 40
0.35
 40
0.35
 40
0.35
 40
0.35
 40
0.4
 40
0.4
 40
0.4
 40
0.4
 40
0.45
 40
0.45
 40
0.45
 40
0.45
 40
0.4999999999999999
 40
0.4999999999999999
 40
0.4999999999999999
 40
0.4999999999999999
 40
0.5499999999999999
 40
0.5499999999999999
 40
0.5499999999999999
 40
0.5499999999999999
 40
0.6
 40
0.6
 40
0.6
 40
0.6
 40
0.65
 40
0.65
 40
0.65
 40
0.65
 40
0.7000000000000001
 40
0.7000000000000001
 40
0.7000000000000001
 40
0.7000000000000001
 40
0.7500000000000001
 40
0.7500000000000001
 40
0.7500000000000001
 40
0.7500000000000001
 40
0.8000000000000002
 40
0.8000000000000002
 40
0.8000000000000002
 40
0.8000000000000002
 40
0.8500000000000002
 40
0.8500000000000002
 40
0.8500000000000002
 40
0.8500000000000002
 40
0.9000000000000002
 40
0.9000000000000002
 40
0.9000000000000002
 40
0.9000000000000002
 40
0.9500000000000003
 40
0.9500000000000003
 40
0.9500000000000003
 40
0.9500000000000003
 40
1.0
 40
1.0
 40
1.0
 40
1.0
 10
-11.36449
 20
-17.00282
 30
0.0
 10
-11.34968
 20
-17.00275
 30
0.0
 10
-11.33691
 20
-17.00014
 30
0.0
 10
-11.32625
 20
-16.99506
 30
0.0
 10
-11.32625
 20
-16.99506
 30
0.0
 10
-11.31567
 20
-16.98998
 30
0.0
 10
-11.30685
 20
-16.98271
 30
0.0
 10
-11.2998
 20
-16.97347
 30
0.0
 10
-11.2998
 20
-16.97347
 30
0.0
 10
-11.29281
 20
-16.96416
 30
0.0
 10
-11.28731
 20
-16.95315
 30
0.0
 10
-11.28322
 20
-16.94045
 30
0.0
 10
-11.28322
 20
-16.94045
 30
0.0
 10
-11.27919
 20
-16.92775
 30
0.0
 10
-11.2763
 20
-16.91385
 30
0.0
 10
-11.27468
 20
-16.89861
 30
0.0
 10
-11.27468
 20
-16.89861
 30
0.0
 10
-11.27298
 20
-16.88337
 30
0.0
 10
-11.27214
 20
-16.86735
 30
0.0
 10
-11.27221
 20
-16.85042
 30
0.0
 10
-11.27221
 20
-16.85042
 30
0.0
 10
-11.27214
 20
-16.83356
 30
0.0
 10
-11.27298
 20
-16.81754
 30
0.0
 10
-11.27468
 20
-16.80237
 30
0.0
 10
-11.27468
 20
-16.80237
 30
0.0
 10
-11.2763
 20
-16.7872
 30
0.0
 10
-11.27919
 20
-16.77323
 30
0.0
 10
-11.28322
 20
-16.76053
 30
0.0
 10
-11.28322
 20
-16.76053
 30
0.0
 10
-11.28731
 20
-16.7479
 30
0.0
 10
-11.29281
 20
-16.7369
 30
0.0
 10
-11.2998
 20
-16.72751
 30
0.0
 10
-11.2998
 20
-16.72751
 30
0.0
 10
-11.30685
 20
-16.7182
 30
0.0
 10
-11.31567
 20
-16.71093
 30
0.0
 10
-11.32625
 20
-16.70585
 30
0.0
 10
-11.32625
 20
-16.70585
 30
0.0
 10
-11.33691
 20
-16.7007
 30
0.0
 10
-11.34968
 20
-16.69809
 30
0.0
 10
-11.36449
 20
-16.69802
 30
0.0
 10
-11.36449
 20
-16.69802
 30
0.0
 10
-11.37931
 20
-16.69809
 30
0.0
 10
-11.39208
 20
-16.7007
 30
0.0
 10
-11.40274
 20
-16.70585
 30
0.0
 10
-11.40274
 20
-16.70585
 30
0.0
 10
-11.41332
 20
-16.71093
 30
0.0
 10
-11.42214
 20
-16.7182
 30
0.0
 10
-11.42919
 20
-16.72751
 30
0.0
 10
-11.42919
 20
-16.72751
 30
0.0
 10
-11.43618
 20
-16.7369
 30
0.0
 10
-11.44168
 20
-16.7479
 30
0.0
 10
-11.44577
 20
-16.76053
 30
0.0
 10
-11.44577
 20
-16.76053
 30
0.0
 10
-11.4498
 20
-16.77323
 30
0.0
 10
-11.45269
 20
-16.7872
 30
0.0
 10
-11.45431
 20
-16.80237
 30
0.0
 10
-11.45431
 20
-16.80237
 30
0.0
 10
-11.456
 20
-16.81754
 30
0.0
 10
-11.45685
 20
-16.83356
 30
0.0
 10
-11.45678
 20
-16.85042
 30
0.0
 10
-11.45678
 20
-16.85042
 30
0.0
 10
-11.45685
 20
-16.86735
 30
0.0
 10
-11.456
 20
-16.88337
 30
0.0
 10
-11.45431
 20
-16.89861
 30
0.0
 10
-11.45431
 20
-16.89861
 30
0.0
 10
-11.45269
 20
-16.91385
 30
0.0
 10
-11.4498
 20
-16.92775
 30
0.0
 10
-11.44577
 20
-16.94045
 30
0.0
 10
-11.44577
 20
-16.94045
 30
0.0
 10
-11.44168
 20
-16.95315
 30
0.0
 10
-11.43618
 20
-16.96416
 30
0.0
 10
-11.42919
 20
-16.97347
 30
0.0
 10
-11.42919
 20
-16.97347
 30
0.0
 10
-11.42214
 20
-16.98271
 30
0.0
 10
-11.41332
 20
-16.98998
 30
0.0
 10
-11.40274
 20
-16.99506
 30
0.0
 10
-11.40274
 20
-16.99506
 30
0.0
 10
-11.39208
 20
-17.00014
 30
0.0
 10
-11.37931
 20
-17.00275
 30
0.0
 10
-11.36449
 20
-17.00282
 30
0.0
  0
SPLINE
  5
7F
330
1F
100
AcDbEntity
  8
Layer 1
 62
    30
370
     9
100
AcDbSpline
210
0.0
220
0.0
230
1.0
 70
    11
 71
     3
 72
   180
 73
   176
 74
     0
 42
0.0000000001
 43
0.0000000001
 40
0.0
 40
0.0
 40
0.0
 40
0.0
 40
0.0227272727272727
 40
0.0227272727272727
 40
0.0227272727272727
 40
0.0227272727272727
 40
0.0454545454545455
 40
0.0454545454545455
 40
0.0454545454545455
 40
0.0454545454545455
 40
0.0681818181818182
 40
0.0681818181818182
 40
0.0681818181818182
 40
0.0681818181818182
 40
0.0909090909090909
 40
0.0909090909090909
 40
0.0909090909090909
 40
0.0909090909090909
 40
0.1136363636363636
 40
0.1136363636363636
 40
0.1136363636363636
 40
0.1136363636363636
 40
0.1363636363636364
 40
0.1363636363636364
 40
0.1363636363636364
 40
0.1363636363636364
 40
0.1590909090909091
 40
0.1590909090909091
 40
0.1590909090909091
 40
0.1590909090909091
 40
0.1818181818181819
 40
0.1818181818181819
 40
0.1818181818181819
 40
0.1818181818181819
 40
0.2045454545454546
 40
0.2045454545454546
 40
0.2045454545454546
 40
0.2045454545454546
 40
0.2272727272727273
 40
0.2272727272727273
 40
0.2272727272727273
 40
0.2272727272727273
 40
0.2500000000000001
 40
0.2500000000000001
 40
0.2500000000000001
 40
0.2500000000000001
 40
0.2727272727272728
 40
0.2727272727272728
 40
0.2727272727272728
 40
0.2727272727272728
 40
0.2954545454545455
 40
0.2954545454545455
 40
0.2954545454545455
 40
0.2954545454545455
 40
0.3181818181818182
 40
0.3181818181818182
 40
0.3181818181818182
 40
0.3181818181818182
 40
0.3409090909090909
 40
0.3409090909090909
 40
0.3409090909090909
 40
0.3409090909090909
 40
0.3636363636363636
 40
0.3636363636363636
 40
0.3636363636363636
 40
0.3636363636363636
 40
0.3863636363636363
 40
0.3863636363636363
 40
0.3863636363636363
 40
0.3863636363636363
 40
0.409090909090909
 40
0.409090909090909
 40
0.409090909090909
 40
0.409090909090909
 40
0.4318181818181817
 40
0.4318181818181817
 40
0.4318181818181817
 40
0.4318181818181817
 40
0.4545454545454544
 40
0.4545454545454544
 40
0.4545454545454544
 40
0.4545454545454544
 40
0.4772727272727271
 40
0.4772727272727271
 40
0.4772727272727271
 40
0.4772727272727271
 40
0.4999999999999998
 40
0.4999999999999998
 40
0.4999999999999998
 40
0.4999999999999998
 40
0.5227272727272726
 40
0.5227272727272726
 40
0.5227272727272726
 40
0.5227272727272726
 40
0.5454545454545453
 40
0.5454545454545453
 40
0.5454545454545453
 40
0.5454545454545453
 40
0.568181818181818
 40
0.568181818181818
 40
0.568181818181818
 40
0.568181818181818
 40
0.5909090909090907
 40
0.5909090909090907
 40
0.5909090909090907
 40
0.5909090909090907
 40
0.6136363636363634
 40
0.6136363636363634
 40
0.6136363636363634
 40
0.6136363636363634
 40
0.6363636363636361
 40
0.6363636363636361
 40
0.6363636363636361
 40
0.6363636363636361
 40
0.6590909090909088
 40
0.6590909090909088
 40
0.6590909090909088
 40
0.6590909090909088
 40
0.6818181818181815
 40
0.6818181818181815
 40
0.6818181818181815
 40
0.6818181818181815
 40
0.7045454545454543
 40
0.7045454545454543
 40
0.7045454545454543
 40
0.7045454545454543
 40
0.727272727272727
 40
0.727272727272727
 40
0.727272727272727
 40
0.727272727272727
 40
0.7499999999999997
 40
0.7499999999999997
 40
0.7499999999999997
 40
0.7499999999999997
 40
0.7727272727272724
 40
0.7727272727272724
 40
0.7727272727272724
 40
0.7727272727272724
 40
0.7954545454545451
 40
0.7954545454545451
 40
0.7954545454545451
 40
0.7954545454545451
 40
0.8181818181818178
 40
0.8181818181818178
 40
0.8181818181818178
 40
0.8181818181818178
 40
0.8409090909090905
 40
0.8409090909090905
 40
0.8409090909090905
 40
0.8409090909090905
 40
0.8636363636363632
 40
0.8636363636363632
 40
0.8636363636363632
 40
0.8636363636363632
 40
0.8863636363636359
 40
0.8863636363636359
 40
0.8863636363636359
 40
0.8863636363636359
 40
0.9090909090909086
 40
0.9090909090909086
 40
0.9090909090909086
 40
0.9090909090909086
 40
0.9318181818181813
 40
0.9318181818181813
 40
0.9318181818181813
 40
0.9318181818181813
 40
0.954545454545454
 40
0.954545454545454
 40
0.954545454545454
 40
0.954545454545454
 40
0.9772727272727267
 40
0.9772727272727267
 40
0.9772727272727267
 40
0.9772727272727267
 40
1.0
 40
1.0
 40
1.0
 40
1.0
 10
-11.17188
 20
-16.9262
 30
0.0
 10
-11.17181
 20
-16.94144
 30
0.0
 10
-11.16828
 20
-16.9547
 30
0.0
 10
-11.1613
 20
-16.9662
 30
0.0
 10
-11.1613
 20
-16.9662
 30
0.0
 10
-11.15431
 20
-16.97763
 30
0.0
 10
-11.14436
 20
-16.98659
 30
0.0
 10
-11.13138
 20
-16.99301
 30
0.0
 10
-11.13138
 20
-16.99301
 30
0.0
 10
-11.1184
 20
-16.99943
 30
0.0
 10
-11.10281
 20
-17.00268
 30
0.0
 10
-11.08467
 20
-17.00282
 30
0.0
 10
-11.08467
 20
-17.00282
 30
0.0
 10
-11.07106
 20
-17.00282
 30
0.0
 10
-11.05871
 20
-17.00141
 30
0.0
 10
-11.04749
 20
-16.99845
 30
0.0
 10
-11.04749
 20
-16.99845
 30
0.0
 10
-11.03634
 20
-16.99548
 30
0.0
 10
-11.02675
 20
-16.9909
 30
0.0
 10
-11.01863
 20
-16.98462
 30
0.0
 10
-11.01863
 20
-16.98462
 30
0.0
 10
-11.01052
 20
-16.97834
 30
0.0
 10
-11.00431
 20
-16.97022
 30
0.0
 10
-10.99987
 20
-16.96035
 30
0.0
 10
-10.99987
 20
-16.96035
 30
0.0
 10
-10.99549
 20
-16.9504
 30
0.0
 10
-10.99331
 20
-16.93847
 30
0.0
 10
-10.99324
 20
-16.9245
 30
0.0
 10
-10.99324
 20
-16.9245
 30
0.0
 10
-10.99316
 20
-16.90588
 30
0.0
 10
-10.99697
 20
-16.89014
 30
0.0
 10
-11.00452
 20
-16.87737
 30
0.0
 10
-11.00452
 20
-16.87737
 30
0.0
 10
-11.01207
 20
-16.8646
 30
0.0
 10
-11.02379
 20
-16.85501
 30
0.0
 10
-11.03952
 20
-16.84845
 30
0.0
 10
-11.03952
 20
-16.84845
 30
0.0
 10
-11.05525
 20
-16.84188
 30
0.0
 10
-11.07543
 20
-16.83857
 30
0.0
 10
-11.09991
 20
-16.83857
 30
0.0
 10
-11.09991
 20
-16.83857
 30
0.0
 10
-11.08164
 20
-16.83864
 30
0.0
 10
-11.06633
 20
-16.83695
 30
0.0
 10
-11.05384
 20
-16.83349
 30
0.0
 10
-11.05384
 20
-16.83349
 30
0.0
 10
-11.04142
 20
-16.83003
 30
0.0
 10
-11.03148
 20
-16.82516
 30
0.0
 10
-11.024
 20
-16.81881
 30
0.0
 10
-11.024
 20
-16.81881
 30
0.0
 10
-11.01652
 20
-16.81253
 30
0.0
 10
-11.01109
 20
-16.80505
 30
0.0
 10
-11.00784
 20
-16.79645
 30
0.0
 10
-11.00784
 20
-16.79645
 30
0.0
 10
-11.00452
 20
-16.78791
 30
0.0
 10
-11.0029
 20
-16.77853
 30
0.0
 10
-11.00297
 20
-16.7683
 30
0.0
 10
-11.00297
 20
-16.7683
 30
0.0
 10
-11.0029
 20
-16.75806
 30
0.0
 10
-11.00431
 20
-16.74861
 30
0.0
 10
-11.00713
 20
-16.73986
 30
0.0
 10
-11.00713
 20
-16.73986
 30
0.0
 10
-11.00989
 20
-16.73111
 30
0.0
 10
-11.0144
 20
-16.72342
 30
0.0
 10
-11.02054
 20
-16.71686
 30
0.0
 10
-11.02054
 20
-16.71686
 30
0.0
 10
-11.02668
 20
-16.7103
 30
0.0
 10
-11.03479
 20
-16.70515
 30
0.0
 10
-11.04474
 20
-16.70148
 30
0.0
 10
-11.04474
 20
-16.70148
 30
0.0
 10
-11.05476
 20
-16.69781
 30
0.0
 10
-11.06697
 20
-16.69598
 30
0.0
 10
-11.08129
 20
-16.69591
 30
0.0
 10
-11.08129
 20
-16.69591
 30
0.0
 10
-11.09554
 20
-16.69598
 30
0.0
 10
-11.10803
 20
-16.69809
 30
0.0
 10
-11.11861
 20
-16.70219
 30
0.0
 10
-11.11861
 20
-16.70219
 30
0.0
 10
-11.12927
 20
-16.70628
 30
0.0
 10
-11.13801
 20
-16.71185
 30
0.0
 10
-11.14507
 20
-16.71898
 30
0.0
 10
-11.14507
 20
-16.71898
 30
0.0
 10
-11.15205
 20
-16.7261
 30
0.0
 10
-11.15728
 20
-16.73422
 30
0.0
 10
-11.16073
 20
-16.74339
 30
0.0
 10
-11.16073
 20
-16.74339
 30
0.0
 10
-11.16426
 20
-16.75256
 30
0.0
 10
-11.16595
 20
-16.7623
 30
0.0
 10
-11.16595
 20
-16.77253
 30
0.0
 10
-11.16595
 20
-16.77253
 30
0.0
 10
-11.16595
 20
-16.7623
 30
0.0
 10
-11.16426
 20
-16.75256
 30
0.0
 10
-11.16073
 20
-16.74339
 30
0.0
 10
-11.16073
 20
-16.74339
 30
0.0
 10
-11.15728
 20
-16.73422
 30
0.0
 10
-11.15205
 20
-16.7261
 30
0.0
 10
-11.14507
 20
-16.71898
 30
0.0
 10
-11.14507
 20
-16.71898
 30
0.0
 10
-11.13801
 20
-16.71185
 30
0.0
 10
-11.12927
 20
-16.70628
 30
0.0
 10
-11.11861
 20
-16.70219
 30
0.0
 10
-11.11861
 20
-16.70219
 30
0.0
 10
-11.10803
 20
-16.69809
 30
0.0
 10
-11.09554
 20
-16.69598
 30
0.0
 10
-11.08129
 20
-16.69591
 30
0.0
 10
-11.08129
 20
-16.69591
 30
0.0
 10
-11.06697
 20
-16.69598
 30
0.0
 10
-11.05476
 20
-16.69781
 30
0.0
 10
-11.04474
 20
-16.70148
 30
0.0
 10
-11.04474
 20
-16.70148
 30
0.0
 10
-11.03479
 20
-16.70515
 30
0.0
 10
-11.02668
 20
-16.7103
 30
0.0
 10
-11.02054
 20
-16.71686
 30
0.0
 10
-11.02054
 20
-16.71686
 30
0.0
 10
-11.0144
 20
-16.72342
 30
0.0
 10
-11.00989
 20
-16.73111
 30
0.0
 10
-11.00713
 20
-16.73986
 30
0.0
 10
-11.00713
 20
-16.73986
 30
0.0
 10
-11.00431
 20
-16.74861
 30
0.0
 10
-11.0029
 20
-16.75806
 30
0.0
 10
-11.00297
 20
-16.7683
 30
0.0
 10
-11.00297
 20
-16.7683
 30
0.0
 10
-11.0029
 20
-16.77853
 30
0.0
 10
-11.00452
 20
-16.78791
 30
0.0
 10
-11.00784
 20
-16.79645
 30
0.0
 10
-11.00784
 20
-16.79645
 30
0.0
 10
-11.01109
 20
-16.80505
 30
0.0
 10
-11.01652
 20
-16.81253
 30
0.0
 10
-11.024
 20
-16.81881
 30
0.0
 10
-11.024
 20
-16.81881
 30
0.0
 10
-11.03148
 20
-16.82516
 30
0.0
 10
-11.04142
 20
-16.83003
 30
0.0
 10
-11.05384
 20
-16.83349
 30
0.0
 10
-11.05384
 20
-16.83349
 30
0.0
 10
-11.06633
 20
-16.83695
 30
0.0
 10
-11.08164
 20
-16.83864
 30
0.0
 10
-11.09991
 20
-16.83857
 30
0.0
 10
-11.09991
 20
-16.83857
 30
0.0
 10
-11.07543
 20
-16.83857
 30
0.0
 10
-11.05525
 20
-16.84188
 30
0.0
 10
-11.03952
 20
-16.84845
 30
0.0
 10
-11.03952
 20
-16.84845
 30
0.0
 10
-11.02379
 20
-16.85501
 30
0.0
 10
-11.01207
 20
-16.8646
 30
0.0
 10
-11.00452
 20
-16.87737
 30
0.0
 10
-11.00452
 20
-16.87737
 30
0.0
 10
-10.99697
 20
-16.89014
 30
0.0
 10
-10.99316
 20
-16.90588
 30
0.0
 10
-10.99324
 20
-16.9245
 30
0.0
 10
-10.99324
 20
-16.9245
 30
0.0
 10
-10.99331
 20
-16.93847
 30
0.0
 10
-10.99549
 20
-16.9504
 30
0.0
 10
-10.99987
 20
-16.96035
 30
0.0
 10
-10.99987
 20
-16.96035
 30
0.0
 10
-11.00431
 20
-16.97022
 30
0.0
 10
-11.01052
 20
-16.97834
 30
0.0
 10
-11.01863
 20
-16.98462
 30
0.0
 10
-11.01863
 20
-16.98462
 30
0.0
 10
-11.02675
 20
-16.9909
 30
0.0
 10
-11.03634
 20
-16.99548
 30
0.0
 10
-11.04749
 20
-16.99845
 30
0.0
 10
-11.04749
 20
-16.99845
 30
0.0
 10
-11.05871
 20
-17.00141
 30
0.0
 10
-11.07106
 20
-17.00282
 30
0.0
 10
-11.08467
 20
-17.00282
 30
0.0
 10
-11.08467
 20
-17.00282
 30
0.0
 10
-11.10281
 20
-17.00268
 30
0.0
 10
-11.1184
 20
-16.99943
 30
0.0
 10
-11.13138
 20
-16.99301
 30
0.0
 10
-11.13138
 20
-16.99301
 30
0.0
 10
-11.14436
 20
-16.98659
 30
0.0
 10
-11.15431
 20
-16.97763
 30
0.0
 10
-11.1613
 20
-16.9662
 30
0.0
 10
-11.1613
 20
-16.9662
 30
0.0
 10
-11.16828
 20
-16.9547
 30
0.0
 10
-11.17181
 20
-16.94144
 30
0.0
 10
-11.17188
 20
-16.9262
 30
0.0
  0
ELLIPSE
  5
80
330
1F
100
AcDbEntity
  8
Layer 1
 62
   250
370
    53
100
AcDbEllipse
 10
-14.25
 20
-13.3
 30
0.0
 11
0.0
 21
0.15
 31
0.0
210
0.0
220
0.0
230
1.0
 40
1.0
 41
0.0
 42
6.283185307179586
  0
ELLIPSE
  5
81
330
1F
100
AcDbEntity
  8
Layer 1
 62
   250
370
    53
100
AcDbEllipse
 10
-14.25
 20
-16.4
 30
0.0
 11
0.0
 21
0.15
 31
0.0
210
0.0
220
0.0
230
1.0
 40
1.0
 41
0.0
 42
6.283185307179586
  0
ENDSEC
  0
SECTION
  2
OBJECTS
  0
DICTIONARY
  5
C
330
0
100
AcDbDictionary
281
     1
  3
ACAD_GROUP
350
D
  3
ACAD_LAYOUT
350
1A
  3
ACAD_MLEADERSTYLE
350
83
  3
ACAD_MLINESTYLE
350
17
  3
ACAD_PLOTSETTINGS
350
19
  3
ACAD_PLOTSTYLENAME
350
E
  3
ACAD_SCALELIST
350
3B
  3
ACAD_TABLESTYLE
350
82
  3
ACAD_VISUALSTYLE
350
2A
  0
DICTIONARY
  5
D
102
{ACAD_REACTORS
330
C
102
}
330
C
100
AcDbDictionary
281
     1
  0
DICTIONARY
  5
1A
102
{ACAD_REACTORS
330
C
102
}
330
C
100
AcDbDictionary
281
     1
  3
Layout1
350
1E
  3
Layout2
350
26
  3
Model
350
22
  0
DICTIONARY
  5
83
102
{ACAD_REACTORS
330
C
102
}
330
C
100
AcDbDictionary
281
     1
  0
DICTIONARY
  5
17
102
{ACAD_REACTORS
330
C
102
}
330
C
100
AcDbDictionary
281
     1
  3
Standard
350
18
  0
DICTIONARY
  5
19
102
{ACAD_REACTORS
330
C
102
}
330
C
100
AcDbDictionary
281
     1
  0
ACDBDICTIONARYWDFLT
  5
E
102
{ACAD_REACTORS
330
C
102
}
330
C
100
AcDbDictionary
281
     1
  3
Normal
350
F
100
AcDbDictionaryWithDefault
340
F
  0
DICTIONARY
  5
3B
102
{ACAD_REACTORS
330
C
102
}
330
C
100
AcDbDictionary
281
     1
  3
A0
350
3C
  3
A1
350
3D
  3
A2
350
3E
  3
A3
350
3F
  3
A4
350
40
  3
A5
350
41
  3
A6
350
42
  3
A7
350
43
  3
A8
350
44
  3
A9
350
45
  3
B0
350
46
  3
B1
350
47
  3
B2
350
48
  3
B3
350
49
  3
B4
350
4A
  3
B5
350
4B
  3
B6
350
4C
  3
B7
350
4D
  3
B8
350
4E
  3
B9
350
4F
  3
C0
350
50
  3
C1
350
51
  3
C2
350
52
  3
C3
350
53
  3
C4
350
54
  3
C5
350
55
  3
C6
350
56
  3
C7
350
57
  3
C8
350
58
  3
C9
350
59
  3
D0
350
5A
  3
D1
350
5B
  3
D2
350
5C
  0
DICTIONARY
  5
82
102
{ACAD_REACTORS
330
C
102
}
330
C
100
AcDbDictionary
281
     1
  0
DICTIONARY
  5
2A
102
{ACAD_REACTORS
330
C
102
}
330
C
100
AcDbDictionary
281
     1
  3
2dWireframe
350
2F
  3
3D Hidden
350
31
  3
3dWireframe
350
30
  3
Basic
350
32
  3
Brighten
350
36
  3
ColorChange
350
3A
  3
Conceptual
350
34
  3
Dim
350
35
  3
Facepattern
350
39
  3
Flat
350
2B
  3
FlatWithEdges
350
2C
  3
Gouraud
350
2D
  3
GouraudWithEdges
350
2E
  3
Linepattern
350
38
  3
Realistic
350
33
  3
Thicken
350
37
  0
LAYOUT
  5
1E
102
{ACAD_REACTORS
330
1A
102
}
330
1A
100
AcDbPlotSettings
  1

  2
none_device
  4

  6

 40
0.0
 41
0.0
 42
0.0
 43
0.0
 44
0.0
 45
0.0
 46
0.0
 47
0.0
 48
0.0
 49
0.0
140
0.0
141
0.0
142
1.0
143
1.0
 70
   688
 72
     0
 73
     0
 74
     5
  7

 75
    16
 76
     0
 77
     2
 78
   300
147
1.0
148
0.0
149
0.0
100
AcDbLayout
  1
Layout1
 70
     1
 71
     1
 10
0.0
 20
0.0
 11
12.0
 21
9.0
 12
0.0
 22
0.0
 32
0.0
 14
1.000000000000000E+20
 24
1.000000000000000E+20
 34
1.000000000000000E+20
 15
-1.000000000000000E+20
 25
-1.000000000000000E+20
 35
-1.000000000000000E+20
146
0.0
 13
0.0
 23
0.0
 33
0.0
 16
1.0
 26
0.0
 36
0.0
 17
0.0
 27
1.0
 37
0.0
 76
     0
330
1B
  0
LAYOUT
  5
26
102
{ACAD_REACTORS
330
1A
102
}
330
1A
100
AcDbPlotSettings
  1

  2
none_device
  4

  6

 40
0.0
 41
0.0
 42
0.0
 43
0.0
 44
0.0
 45
0.0
 46
0.0
 47
0.0
 48
0.0
 49
0.0
140
0.0
141
0.0
142
1.0
143
1.0
 70
   688
 72
     0
 73
     0
 74
     5
  7

 75
    16
 76
     0
 77
     2
 78
   300
147
1.0
148
0.0
149
0.0
100
AcDbLayout
  1
Layout2
 70
     1
 71
     2
 10
0.0
 20
0.0
 11
0.0
 21
0.0
 12
0.0
 22
0.0
 32
0.0
 14
0.0
 24
0.0
 34
0.0
 15
0.0
 25
0.0
 35
0.0
146
0.0
 13
0.0
 23
0.0
 33
0.0
 16
1.0
 26
0.0
 36
0.0
 17
0.0
 27
1.0
 37
0.0
 76
     0
330
23
  0
LAYOUT
  5
22
102
{ACAD_REACTORS
330
1A
102
}
330
1A
100
AcDbPlotSettings
  1

  2
none_device
  4

  6

 40
0.0
 41
0.0
 42
0.0
 43
0.0
 44
0.0
 45
0.0
 46
0.0
 47
0.0
 48
0.0
 49
0.0
140
0.0
141
0.0
142
1.0
143
1.0
 70
  1712
 72
     0
 73
     0
 74
     0
  7

 75
     0
 76
     0
 77
     2
 78
   300
147
1.0
148
0.0
149
0.0
100
AcDbLayout
  1
Model
 70
     1
 71
     0
 10
0.0
 20
0.0
 11
12.0
 21
9.0
 12
0.0
 22
0.0
 32
0.0
 14
-16.17824
 24
-17.52825
 34
0.0
 15
-4.82176
 25
-12.17175
 35
0.0
146
0.0
 13
0.0
 23
0.0
 33
0.0
 16
1.0
 26
0.0
 36
0.0
 17
0.0
 27
1.0
 37
0.0
 76
     0
330
1F
331
29
  0
MLINESTYLE
  5
18
102
{ACAD_REACTORS
330
17
102
}
330
17
100
AcDbMlineStyle
  2
Standard
 70
     0
  3

 62
   256
 51
90.0
 52
90.0
 71
     2
 49
0.5
 62
   256
  6
BYLAYER
 49
-0.5
 62
   256
  6
BYLAYER
  0
ACDBPLACEHOLDER
  5
F
102
{ACAD_REACTORS
330
E
102
}
330
E
  0
SCALE
  5
3C
102
{ACAD_REACTORS
330
3B
102
}
330
3B
100
AcDbScale
 70
     0
300
1:1
140
1.0
141
1.0
290
     1
  0
SCALE
  5
3D
102
{ACAD_REACTORS
330
3B
102
}
330
3B
100
AcDbScale
 70
     0
300
1:2
140
1.0
141
2.0
290
     0
  0
SCALE
  5
3E
102
{ACAD_REACTORS
330
3B
102
}
330
3B
100
AcDbScale
 70
     0
300
1:4
140
1.0
141
4.0
290
     0
  0
SCALE
  5
3F
102
{ACAD_REACTORS
330
3B
102
}
330
3B
100
AcDbScale
 70
     0
300
1:5
140
1.0
141
5.0
290
     0
  0
SCALE
  5
40
102
{ACAD_REACTORS
330
3B
102
}
330
3B
100
AcDbScale
 70
     0
300
1:8
140
1.0
141
8.0
290
     0
  0
SCALE
  5
41
102
{ACAD_REACTORS
330
3B
102
}
330
3B
100
AcDbScale
 70
     0
300
1:10
140
1.0
141
10.0
290
     0
  0
SCALE
  5
42
102
{ACAD_REACTORS
330
3B
102
}
330
3B
100
AcDbScale
 70
     0
300
1:16
140
1.0
141
16.0
290
     0
  0
SCALE
  5
43
102
{ACAD_REACTORS
330
3B
102
}
330
3B
100
AcDbScale
 70
     0
300
1:20
140
1.0
141
20.0
290
     0
  0
SCALE
  5
44
102
{ACAD_REACTORS
330
3B
102
}
330
3B
100
AcDbScale
 70
     0
300
1:30
140
1.0
141
30.0
290
     0
  0
SCALE
  5
45
102
{ACAD_REACTORS
330
3B
102
}
330
3B
100
AcDbScale
 70
     0
300
1:40
140
1.0
141
40.0
290
     0
  0
SCALE
  5
46
102
{ACAD_REACTORS
330
3B
102
}
330
3B
100
AcDbScale
 70
     0
300
1:50
140
1.0
141
50.0
290
     0
  0
SCALE
  5
47
102
{ACAD_REACTORS
330
3B
102
}
330
3B
100
AcDbScale
 70
     0
300
1:100
140
1.0
141
100.0
290
     0
  0
SCALE
  5
48
102
{ACAD_REACTORS
330
3B
102
}
330
3B
100
AcDbScale
 70
     0
300
2:1
140
2.0
141
1.0
290
     0
  0
SCALE
  5
49
102
{ACAD_REACTORS
330
3B
102
}
330
3B
100
AcDbScale
 70
     0
300
4:1
140
4.0
141
1.0
290
     0
  0
SCALE
  5
4A
102
{ACAD_REACTORS
330
3B
102
}
330
3B
100
AcDbScale
 70
     0
300
8:1
140
8.0
141
1.0
290
     0
  0
SCALE
  5
4B
102
{ACAD_REACTORS
330
3B
102
}
330
3B
100
AcDbScale
 70
     0
300
10:1
140
10.0
141
1.0
290
     0
  0
SCALE
  5
4C
102
{ACAD_REACTORS
330
3B
102
}
330
3B
100
AcDbScale
 70
     0
300
100:1
140
100.0
141
1.0
290
     0
  0
SCALE
  5
4D
102
{ACAD_REACTORS
330
3B
102
}
330
3B
100
AcDbScale
 70
     0
300
1/128" = 1'-0"
140
0.0078125
141
12.0
290
     0
  0
SCALE
  5
4E
102
{ACAD_REACTORS
330
3B
102
}
330
3B
100
AcDbScale
 70
     0
300
1/64" = 1'-0"
140
0.015625
141
12.0
290
     0
  0
SCALE
  5
4F
102
{ACAD_REACTORS
330
3B
102
}
330
3B
100
AcDbScale
 70
     0
300
1/32" = 1'-0"
140
0.03125
141
12.0
290
     0
  0
SCALE
  5
50
102
{ACAD_REACTORS
330
3B
102
}
330
3B
100
AcDbScale
 70
     0
300
1/16" = 1'-0"
140
0.0625
141
12.0
290
     0
  0
SCALE
  5
51
102
{ACAD_REACTORS
330
3B
102
}
330
3B
100
AcDbScale
 70
     0
300
3/32" = 1'-0"
140
0.09375
141
12.0
290
     0
  0
SCALE
  5
52
102
{ACAD_REACTORS
330
3B
102
}
330
3B
100
AcDbScale
 70
     0
300
1/8" = 1'-0"
140
0.125
141
12.0
290
     0
  0
SCALE
  5
53
102
{ACAD_REACTORS
330
3B
102
}
330
3B
100
AcDbScale
 70
     0
300
3/16" = 1'-0"
140
0.1875
141
12.0
290
     0
  0
SCALE
  5
54
102
{ACAD_REACTORS
330
3B
102
}
330
3B
100
AcDbScale
 70
     0
300
1/4" = 1'-0"
140
0.25
141
12.0
290
     0
  0
SCALE
  5
55
102
{ACAD_REACTORS
330
3B
102
}
330
3B
100
AcDbScale
 70
     0
300
3/8" = 1'-0"
140
0.375
141
12.0
290
     0
  0
SCALE
  5
56
102
{ACAD_REACTORS
330
3B
102
}
330
3B
100
AcDbScale
 70
     0
300
1/2" = 1'-0"
140
0.5
141
12.0
290
     0
  0
SCALE
  5
57
102
{ACAD_REACTORS
330
3B
102
}
330
3B
100
AcDbScale
 70
     0
300
3/4" = 1'-0"
140
0.75
141
12.0
290
     0
  0
SCALE
  5
58
102
{ACAD_REACTORS
330
3B
102
}
330
3B
100
AcDbScale
 70
     0
300
1" = 1'-0"
140
1.0
141
12.0
290
     0
  0
SCALE
  5
59
102
{ACAD_REACTORS
330
3B
102
}
330
3B
100
AcDbScale
 70
     0
300
1-1/2" = 1'-0"
140
1.5
141
12.0
290
     0
  0
SCALE
  5
5A
102
{ACAD_REACTORS
330
3B
102
}
330
3B
100
AcDbScale
 70
     0
300
3" = 1'-0"
140
3.0
141
12.0
290
     0
  0
SCALE
  5
5B
102
{ACAD_REACTORS
330
3B
102
}
330
3B
100
AcDbScale
 70
     0
300
6" = 1'-0"
140
6.0
141
12.0
290
     0
  0
SCALE
  5
5C
102
{ACAD_REACTORS
330
3B
102
}
330
3B
100
AcDbScale
 70
     0
300
1'-0" = 1'-0"
140
12.0
141
12.0
290
     0
  0
VISUALSTYLE
  5
2F
102
{ACAD_REACTORS
330
2A
102
}
330
2A
100
AcDbVisualStyle
  2
2dWireframe
 70
     4
 71
     0
 72
     2
 73
     0
 90
        0
 40
-0.6
 41
-30.0
 62
     5
 63
     7
421
 16777215
 74
     1
 91
        4
 64
     7
 65
   257
 75
     1
175
     1
 42
1.0
 92
        0
 66
   257
 43
1.0
 76
     1
 77
     6
 78
     2
 67
     7
 79
     5
170
     0
171
     0
290
     0
174
     0
 93
        1
 44
0.0
173
     0
291
     0
 45
0.0
  0
VISUALSTYLE
  5
31
102
{ACAD_REACTORS
330
2A
102
}
330
2A
100
AcDbVisualStyle
  2
3D Hidden
 70
     6
 71
     1
 72
     2
 73
     2
 90
        0
 40
-0.6
 41
-30.0
 62
     5
 63
     7
421
 16777215
 74
     2
 91
        2
 64
     7
 65
   257
 75
     2
175
     1
 42
40.0
 92
        0
 66
   257
 43
1.0
 76
     1
 77
     6
 78
     2
 67
     7
 79
     3
170
     0
171
     0
290
     0
174
     0
 93
        1
 44
0.0
173
     0
291
     0
 45
0.0
  0
VISUALSTYLE
  5
30
102
{ACAD_REACTORS
330
2A
102
}
330
2A
100
AcDbVisualStyle
  2
3dWireframe
 70
     5
 71
     0
 72
     2
 73
     0
 90
        0
 40
-0.6
 41
-30.0
 62
     5
 63
     7
421
 16777215
 74
     1
 91
        4
 64
     7
 65
   257
 75
     1
175
     1
 42
1.0
 92
        0
 66
   257
 43
1.0
 76
     1
 77
     6
 78
     2
 67
     7
 79
     5
170
     0
171
     0
290
     0
174
     0
 93
        1
 44
0.0
173
     0
291
     0
 45
0.0
  0
VISUALSTYLE
  5
32
102
{ACAD_REACTORS
330
2A
102
}
330
2A
100
AcDbVisualStyle
  2
Basic
 70
     7
 71
     1
 72
     0
 73
     1
 90
        0
 40
-0.6
 41
-30.0
 62
     5
 63
     7
421
 16777215
 74
     0
 91
        4
 64
     7
 65
   257
 75
     1
175
     1
 42
1.0
 92
        8
 66
     7
 43
1.0
 76
     1
 77
     6
 78
     2
 67
     7
 79
     5
170
     0
171
     0
290
     0
174
     0
 93
        1
 44
0.0
173
     0
291
     1
 45
0.0
  0
VISUALSTYLE
  5
36
102
{ACAD_REACTORS
330
2A
102
}
330
2A
100
AcDbVisualStyle
  2
Brighten
 70
    12
 71
     2
 72
     2
 73
     0
 90
        0
 40
-0.6
 41
-30.0
 62
     5
 63
     7
421
 16777215
 74
     1
 91
        4
 64
     7
 65
   257
 75
     1
175
     1
 42
1.0
 92
        8
 66
     7
 43
1.0
 76
     1
 77
     6
 78
     2
 67
     7
 79
     5
170
     0
171
     0
290
     0
174
     0
 93
        1
 44
50.0
173
     0
291
     1
 45
0.0
  0
VISUALSTYLE
  5
3A
102
{ACAD_REACTORS
330
2A
102
}
330
2A
100
AcDbVisualStyle
  2
ColorChange
 70
    16
 71
     2
 72
     2
 73
     3
 90
        0
 40
-0.6
 41
-30.0
 62
     5
 63
     8
421
  8421504
 74
     1
 91
        4
 64
     7
 65
   257
 75
     1
175
     1
 42
1.0
 92
        8
 66
     8
424
  8421504
 43
1.0
 76
     1
 77
     6
 78
     2
 67
     7
 79
     5
170
     0
171
     0
290
     0
174
     0
 93
        1
 44
0.0
173
     0
291
     1
 45
0.0
  0
VISUALSTYLE
  5
34
102
{ACAD_REACTORS
330
2A
102
}
330
2A
100
AcDbVisualStyle
  2
Conceptual
 70
     9
 71
     3
 72
     2
 73
     0
 90
        0
 40
-0.6
 41
-30.0
 62
     5
 63
     7
421
 16777215
 74
     2
 91
        2
 64
     7
 65
   257
 75
     1
175
     1
 42
40.0
 92
        8
 66
     7
 43
1.0
 76
     1
 77
     6
 78
     2
 67
     7
 79
     3
170
     0
171
     0
290
     0
174
     0
 93
        1
 44
0.0
173
     0
291
     0
 45
0.0
  0
VISUALSTYLE
  5
35
102
{ACAD_REACTORS
330
2A
102
}
330
2A
100
AcDbVisualStyle
  2
Dim
 70
    11
 71
     2
 72
     2
 73
     0
 90
        0
 40
-0.6
 41
-30.0
 62
     5
 63
     7
421
 16777215
 74
     1
 91
        4
 64
     7
 65
   257
 75
     1
175
     1
 42
1.0
 92
        8
 66
     7
 43
1.0
 76
     1
 77
     6
 78
     2
 67
     7
 79
     5
170
     0
171
     0
290
     0
174
     0
 93
        1
 44
-50.0
173
     0
291
     1
 45
0.0
  0
VISUALSTYLE
  5
39
102
{ACAD_REACTORS
330
2A
102
}
330
2A
100
AcDbVisualStyle
  2
Facepattern
 70
    15
 71
     2
 72
     2
 73
     0
 90
        0
 40
-0.6
 41
-30.0
 62
     5
 63
     7
421
 16777215
 74
     1
 91
        4
 64
     7
 65
   257
 75
     1
175
     1
 42
1.0
 92
        8
 66
     7
 43
1.0
 76
     1
 77
     6
 78
     2
 67
     7
 79
     5
170
     0
171
     0
290
     0
174
     0
 93
        1
 44
0.0
173
     0
291
     1
 45
0.0
  0
VISUALSTYLE
  5
2B
102
{ACAD_REACTORS
330
2A
102
}
330
2A
100
AcDbVisualStyle
  2
Flat
 70
     0
 71
     2
 72
     1
 73
     1
 90
        2
 40
-0.6
 41
30.0
 62
     5
 63
     7
421
 16777215
 74
     0
 91
        4
 64
     7
 65
   257
 75
     1
175
     1
 42
1.0
 92
        8
 66
     7
 43
1.0
 76
     1
 77
     6
 78
     2
 67
     7
 79
     5
170
     0
171
     0
290
     0
174
     0
 93
       13
 44
0.0
173
     0
291
     1
 45
0.0
  0
VISUALSTYLE
  5
2C
102
{ACAD_REACTORS
330
2A
102
}
330
2A
100
AcDbVisualStyle
  2
FlatWithEdges
 70
     1
 71
     2
 72
     1
 73
     1
 90
        2
 40
-0.6
 41
30.0
 62
     5
 63
     7
421
 16777215
 74
     1
 91
        4
 64
     7
 65
   257
 75
     1
175
     1
 42
1.0
 92
        0
 66
   257
 43
1.0
 76
     1
 77
     6
 78
     2
 67
     7
 79
     5
170
     0
171
     0
290
     0
174
     0
 93
       13
 44
0.0
173
     0
291
     1
 45
0.0
  0
VISUALSTYLE
  5
2D
102
{ACAD_REACTORS
330
2A
102
}
330
2A
100
AcDbVisualStyle
  2
Gouraud
 70
     2
 71
     2
 72
     2
 73
     1
 90
        2
 40
-0.6
 41
30.0
 62
     5
 63
     7
421
 16777215
 74
     0
 91
        4
 64
     7
 65
   257
 75
     1
175
     1
 42
1.0
 92
        0
 66
     7
 43
1.0
 76
     1
 77
     6
 78
     2
 67
     7
 79
     5
170
     0
171
     0
290
     0
174
     0
 93
       13
 44
0.0
173
     0
291
     1
 45
0.0
  0
VISUALSTYLE
  5
2E
102
{ACAD_REACTORS
330
2A
102
}
330
2A
100
AcDbVisualStyle
  2
GouraudWithEdges
 70
     3
 71
     2
 72
     2
 73
     1
 90
        2
 40
-0.6
 41
30.0
 62
     5
 63
     7
421
 16777215
 74
     1
 91
        4
 64
     7
 65
   257
 75
     1
175
     1
 42
1.0
 92
        0
 66
   257
 43
1.0
 76
     1
 77
     6
 78
     2
 67
     7
 79
     5
170
     0
171
     0
290
     0
174
     0
 93
       13
 44
0.0
173
     0
291
     1
 45
0.0
  0
VISUALSTYLE
  5
38
102
{ACAD_REACTORS
330
2A
102
}
330
2A
100
AcDbVisualStyle
  2
Linepattern
 70
    14
 71
     2
 72
     2
 73
     0
 90
        0
 40
-0.6
 41
-30.0
 62
     5
 63
     7
421
 16777215
 74
     1
 91
        4
 64
     7
 65
   257
 75
     7
175
     7
 42
1.0
 92
        8
 66
     7
 43
1.0
 76
     1
 77
     6
 78
     2
 67
     7
 79
     5
170
     0
171
     0
290
     0
174
     0
 93
        1
 44
0.0
173
     0
291
     1
 45
0.0
  0
VISUALSTYLE
  5
33
102
{ACAD_REACTORS
330
2A
102
}
330
2A
100
AcDbVisualStyle
  2
Realistic
 70
     8
 71
     2
 72
     2
 73
     0
 90
        0
 40
-0.6
 41
-30.0
 62
     5
 63
     7
421
 16777215
 74
     1
 91
        0
 64
     7
 65
   257
 75
     1
175
     1
 42
1.0
 92
        8
 66
     8
424
  7895160
 43
1.0
 76
     1
 77
     6
 78
     2
 67
     7
 79
     5
170
     0
171
     0
290
     0
174
     0
 93
       13
 44
0.0
173
     0
291
     0
 45
0.0
  0
VISUALSTYLE
  5
37
102
{ACAD_REACTORS
330
2A
102
}
330
2A
100
AcDbVisualStyle
  2
Thicken
 70
    13
 71
     2
 72
     2
 73
     0
 90
        0
 40
-0.6
 41
-30.0
 62
     5
 63
     7
421
 16777215
 74
     1
 91
        4
 64
     7
 65
   257
 75
     1
175
     1
 42
1.0
 92
       12
 66
     7
 43
1.0
 76
     1
 77
     6
 78
     2
 67
     7
 79
     5
170
     0
171
     0
290
     0
174
     0
 93
        1
 44
0.0
173
     0
291
     1
 45
0.0
  0
ENDSEC
  0
EOF
