<?xml version="1.0" encoding="UTF-8"?>
<!DOCTYPE svg PUBLIC "-//W3C//DTD SVG 1.1//EN" "http://www.w3.org/Graphics/SVG/1.1/DTD/svg11.dtd">
<!-- Creator: CorelDRAW -->
<svg xmlns="http://www.w3.org/2000/svg" xml:space="preserve" width="53.5292mm" height="13.5292mm" style="shape-rendering:geometricPrecision; text-rendering:geometricPrecision; image-rendering:optimizeQuality; fill-rule:evenodd; clip-rule:evenodd"
viewBox="0 0 10.8731 2.74811"
 xmlns:xlink="http://www.w3.org/1999/xlink">
 <defs>
  <style type="text/css">
   <![CDATA[
    .str2 {stroke:#1F1A17;stroke-width:0.107493}
    .str1 {stroke:#1F1A17;stroke-width:0.107493;stroke-linecap:round;stroke-linejoin:round}
    .str0 {stroke:black;stroke-width:0.107493;stroke-linecap:round;stroke-linejoin:round}
    .fil0 {fill:none}
   ]]>
  </style>
 </defs>
 <g id="Layer_x0020_1">
  <metadata id="CorelCorpID_0Corel-Layer"/>
  <path class="fil0 str0" d="M0.764682 1.06937l0.0815544 0c0.0535233,-0.0924825 0.13065,-0.169609 0.223132,-0.223132l0 -0.0815544 0.304687 0 0.304687 0 0 0.0815544c0.0924825,0.0535233 0.169609,0.13065 0.223132,0.223132l0.0815544 0 0 0.304687 0 0.304687 -0.0815544 0c-0.0535233,0.0924825 -0.13065,0.169609 -0.223132,0.223132l0 0.0815544 -0.304687 0 -0.304687 0 0 -0.0815544c-0.0924825,-0.0535233 -0.169609,-0.13065 -0.223132,-0.223132l-0.0815544 0 0 -0.304687 0 -0.304687z"/>
  <path class="fil0 str0" d="M4.82717 1.06937l0.0815544 0c0.0535233,-0.0924825 0.13065,-0.169609 0.223132,-0.223132l0 -0.0815544 0.304687 0 0.304687 0 0 0.0815544c0.0924825,0.0535233 0.169609,0.13065 0.223132,0.223132l0.0815544 0 0 0.304687 0 0.304687 -0.0815544 0c-0.0535233,0.0924825 -0.13065,0.169609 -0.223132,0.223132l0 0.0815544 -0.304687 0 -0.304687 0 0 -0.0815544c-0.0924825,-0.0535233 -0.169609,-0.13065 -0.223132,-0.223132l-0.0815544 0 0 -0.304687 0 -0.304687z"/>
  <path class="fil0 str0" d="M8.88966 1.06937l0.0815544 0c0.0535233,-0.0924825 0.13065,-0.169609 0.223132,-0.223132l0 -0.0815544 0.304687 0 0.304687 0 0 0.0815544c0.0924825,0.0535233 0.169609,0.13065 0.223132,0.223132l0.0815544 0 0 0.304687 0 0.304687 -0.0815544 0c-0.0535233,0.0924825 -0.13065,0.169609 -0.223132,0.223132l0 0.0815544 -0.304687 0 -0.304687 0 0 -0.0815544c-0.0924825,-0.0535233 -0.169609,-0.13065 -0.223132,-0.223132l-0.0815544 0 0 -0.304687 0 -0.304687z"/>
  <rect class="fil0 str1" x="2.79593" y="1.06937" width="1.21875" height="0.609373"/>
  <rect class="fil0 str1" x="6.85841" y="1.06937" width="1.21875" height="0.609373"/>
  <path class="fil0 str2" d="M0.0537467 1.67874l0 -0.609373c0,-0.560806 0.454816,-1.01562 1.01562,-1.01562l8.73435 0c0.560806,0 1.01562,0.454816 1.01562,1.01562l0 0.609373c0,0.560806 -0.454816,1.01562 -1.01562,1.01562l-8.73435 0c-0.560806,0 -1.01562,-0.454816 -1.01562,-1.01562z"/>
 </g>
</svg>
