solid OpenSCAD_Model
  facet normal 0 0 -1
    outer loop
      vertex 51.5355 1.46446 0
      vertex 49.5 5 0
      vertex 52.6194 3.08658 0
    endloop
  endfacet
  facet normal 0 0 -1
    outer loop
      vertex 52.6194 3.08658 0
      vertex 49.5 5 0
      vertex 53 5 0
    endloop
  endfacet
  facet normal 0 0 -1
    outer loop
      vertex 49.9134 0.3806 0
      vertex 48 3.5 0
      vertex 51.5355 1.46446 0
    endloop
  endfacet
  facet normal 0 0 -1
    outer loop
      vertex 48 9.5 0
      vertex 48.927 8.26335 0
      vertex 48 8.93689 0
    endloop
  endfacet
  facet normal -0 0 -1
    outer loop
      vertex 44.073 8.26335 0
      vertex 43.5 8 0
      vertex 45 9.5 0
    endloop
  endfacet
  facet normal 0 -0 -1
    outer loop
      vertex 49.9134 12.6194 0
      vertex 51.5355 11.5355 0
      vertex 48 9.5 0
    endloop
  endfacet
  facet normal 0 0 -1
    outer loop
      vertex 51.5355 11.5355 0
      vertex 49.5 8 0
      vertex 48.927 8.26335 0
    endloop
  endfacet
  facet normal 0 0 -1
    outer loop
      vertex 8.92705 8.26335 0
      vertex 8 9.5 0
      vertex 9.5 8 0
    endloop
  endfacet
  facet normal 0 0 -1
    outer loop
      vertex 3.5 5 0
      vertex 0 5 0
      vertex 0 8 0
    endloop
  endfacet
  facet normal -0 -0 -1
    outer loop
      vertex 3.5 8 0
      vertex 3.5 5 0
      vertex 0 8 0
    endloop
  endfacet
  facet normal 0 0 -1
    outer loop
      vertex 4.07295 4.73665 0
      vertex 5 4.06311 0
      vertex 5 3.5 0
    endloop
  endfacet
  facet normal 0 -0 -1
    outer loop
      vertex 5 3.5 0
      vertex 5 0 0
      vertex 3.08658 0.3806 0
    endloop
  endfacet
  facet normal 0 0 -1
    outer loop
      vertex 1.46446 1.46446 0
      vertex 5 3.5 0
      vertex 3.08658 0.3806 0
    endloop
  endfacet
  facet normal 0 0 -1
    outer loop
      vertex 5 0 0
      vertex 5 3.5 0
      vertex 8 3.5 0
    endloop
  endfacet
  facet normal 0 -0 -1
    outer loop
      vertex 3.5 5 0
      vertex 4.07295 4.73665 0
      vertex 1.46446 1.46446 0
    endloop
  endfacet
  facet normal 0 0 -1
    outer loop
      vertex 8.92705 8.26335 0
      vertex 8 8.93689 0
      vertex 8 9.5 0
    endloop
  endfacet
  facet normal 0 -0 -1
    outer loop
      vertex 28 3.5 0
      vertex 48 0 0
      vertex 5 0 0
    endloop
  endfacet
  facet normal 0 -0 -1
    outer loop
      vertex 4.07295 4.73665 0
      vertex 5 3.5 0
      vertex 1.46446 1.46446 0
    endloop
  endfacet
  facet normal -0 0 -1
    outer loop
      vertex 5 8.93689 0
      vertex 4.07295 8.26335 0
      vertex 5 9.5 0
    endloop
  endfacet
  facet normal 0 0 -1
    outer loop
      vertex 3.98738 8 0
      vertex 3.5 8 0
      vertex 4.07295 8.26335 0
    endloop
  endfacet
  facet normal 0 -0 -1
    outer loop
      vertex 0.3806 9.91341 0
      vertex 3.5 8 0
      vertex 0 8 0
    endloop
  endfacet
  facet normal 0 0 -1
    outer loop
      vertex 1.46446 1.46446 0
      vertex 0.3806 3.08658 0
      vertex 3.5 5 0
    endloop
  endfacet
  facet normal 0 0 -1
    outer loop
      vertex 4.07295 4.73665 0
      vertex 3.5 5 0
      vertex 3.98738 5 0
    endloop
  endfacet
  facet normal 0 0 -1
    outer loop
      vertex 0.3806 9.91341 0
      vertex 1.46446 11.5355 0
      vertex 3.5 8 0
    endloop
  endfacet
  facet normal -0 0 -1
    outer loop
      vertex 3.5 5 0
      vertex 0.3806 3.08658 0
      vertex 0 5 0
    endloop
  endfacet
  facet normal 0 0 -1
    outer loop
      vertex 3.5 8 0
      vertex 1.46446 11.5355 0
      vertex 4.07295 8.26335 0
    endloop
  endfacet
  facet normal -0 0 -1
    outer loop
      vertex 5 9.5 0
      vertex 4.07295 8.26335 0
      vertex 1.46446 11.5355 0
    endloop
  endfacet
  facet normal 0 0 -1
    outer loop
      vertex 3.08658 12.6194 0
      vertex 5 13 0
      vertex 5 9.5 0
    endloop
  endfacet
  facet normal 0 -0 -1
    outer loop
      vertex 3.08658 12.6194 0
      vertex 5 9.5 0
      vertex 1.46446 11.5355 0
    endloop
  endfacet
  facet normal 0 0 -1
    outer loop
      vertex 5 0 0
      vertex 19.5 5 0
      vertex 25 3.5 0
    endloop
  endfacet
  facet normal -0 -0 -1
    outer loop
      vertex 23.9874 5 0
      vertex 24.073 4.73665 0
      vertex 23.5 5 0
    endloop
  endfacet
  facet normal 0 0 -1
    outer loop
      vertex 8 9.5 0
      vertex 5 9.5 0
      vertex 5 13 0
    endloop
  endfacet
  facet normal 0 0 -1
    outer loop
      vertex 9.01262 8 0
      vertex 8.92705 8.26335 0
      vertex 9.5 8 0
    endloop
  endfacet
  facet normal 0 0 -1
    outer loop
      vertex 23.5 5 0
      vertex 19.5 5 0
      vertex 19.5 8 0
    endloop
  endfacet
  facet normal -0 -0 -1
    outer loop
      vertex 24.073 4.73665 0
      vertex 25 3.5 0
      vertex 23.5 5 0
    endloop
  endfacet
  facet normal 0 0 -1
    outer loop
      vertex 19.5 5 0
      vertex 23.5 5 0
      vertex 25 3.5 0
    endloop
  endfacet
  facet normal 0 0 -1
    outer loop
      vertex 8 3.5 0
      vertex 8.92705 4.73665 0
      vertex 9.5 5 0
    endloop
  endfacet
  facet normal 0 0 -1
    outer loop
      vertex 8.92705 4.73665 0
      vertex 9.01262 5 0
      vertex 9.5 5 0
    endloop
  endfacet
  facet normal 0 0 -1
    outer loop
      vertex 8 4.06311 0
      vertex 8.92705 4.73665 0
      vertex 8 3.5 0
    endloop
  endfacet
  facet normal 0 0 -1
    outer loop
      vertex 28 8.93689 0
      vertex 28 9.5 0
      vertex 28.927 8.26335 0
    endloop
  endfacet
  facet normal 0 0 -1
    outer loop
      vertex 25 3.5 0
      vertex 24.073 4.73665 0
      vertex 25 4.06311 0
    endloop
  endfacet
  facet normal 0 0 -1
    outer loop
      vertex 5 0 0
      vertex 25 3.5 0
      vertex 28 3.5 0
    endloop
  endfacet
  facet normal 0 0 -1
    outer loop
      vertex 13.5 5 0
      vertex 9.5 5 0
      vertex 9.5 8 0
    endloop
  endfacet
  facet normal 0 0 -1
    outer loop
      vertex 5 13 0
      vertex 28 9.5 0
      vertex 25 9.5 0
    endloop
  endfacet
  facet normal 0 -0 -1
    outer loop
      vertex 29.0126 5 0
      vertex 29.5 5 0
      vertex 28.927 4.73665 0
    endloop
  endfacet
  facet normal 0 0 -1
    outer loop
      vertex 8 9.5 0
      vertex 13.5 8 0
      vertex 9.5 8 0
    endloop
  endfacet
  facet normal 0 0 -1
    outer loop
      vertex 5 13 0
      vertex 19.5 8 0
      vertex 13.5 8 0
    endloop
  endfacet
  facet normal 0 0 -1
    outer loop
      vertex 5 0 0
      vertex 13.5 5 0
      vertex 19.5 5 0
    endloop
  endfacet
  facet normal 0 0 -1
    outer loop
      vertex 23.5 8 0
      vertex 24.073 8.26335 0
      vertex 23.9874 8 0
    endloop
  endfacet
  facet normal 0 0 -1
    outer loop
      vertex 5 13 0
      vertex 48 13 0
      vertex 28 9.5 0
    endloop
  endfacet
  facet normal -0 0 -1
    outer loop
      vertex 25 8.93689 0
      vertex 24.073 8.26335 0
      vertex 25 9.5 0
    endloop
  endfacet
  facet normal 0 0 -1
    outer loop
      vertex 25 9.5 0
      vertex 24.073 8.26335 0
      vertex 23.5 8 0
    endloop
  endfacet
  facet normal 0 0 -1
    outer loop
      vertex 5 13 0
      vertex 13.5 8 0
      vertex 8 9.5 0
    endloop
  endfacet
  facet normal 0 0 -1
    outer loop
      vertex 48 0 0
      vertex 39.5 5 0
      vertex 45 3.5 0
    endloop
  endfacet
  facet normal 0 0 -1
    outer loop
      vertex 29.5 8 0
      vertex 28.927 8.26335 0
      vertex 28 9.5 0
    endloop
  endfacet
  facet normal 0 0 -1
    outer loop
      vertex 29.0126 8 0
      vertex 28.927 8.26335 0
      vertex 29.5 8 0
    endloop
  endfacet
  facet normal 0 0 -1
    outer loop
      vertex 44.073 4.73665 0
      vertex 45 4.06311 0
      vertex 45 3.5 0
    endloop
  endfacet
  facet normal 0 0 -1
    outer loop
      vertex 29.5 8 0
      vertex 28 9.5 0
      vertex 33.5 8 0
    endloop
  endfacet
  facet normal 0 0 -1
    outer loop
      vertex 39.5 5 0
      vertex 43.5 5 0
      vertex 45 3.5 0
    endloop
  endfacet
  facet normal 0 -0 -1
    outer loop
      vertex 28.927 4.73665 0
      vertex 29.5 5 0
      vertex 28 3.5 0
    endloop
  endfacet
  facet normal 0 0 -1
    outer loop
      vertex 28 4.06311 0
      vertex 28.927 4.73665 0
      vertex 28 3.5 0
    endloop
  endfacet
  facet normal 0 0 -1
    outer loop
      vertex 48 0 0
      vertex 48 3.5 0
      vertex 49.9134 0.3806 0
    endloop
  endfacet
  facet normal 0 0 -1
    outer loop
      vertex 43.5 5 0
      vertex 44.073 4.73665 0
      vertex 45 3.5 0
    endloop
  endfacet
  facet normal 0 0 -1
    outer loop
      vertex 48 0 0
      vertex 45 3.5 0
      vertex 48 3.5 0
    endloop
  endfacet
  facet normal -0 0 -1
    outer loop
      vertex 49.9134 12.6194 0
      vertex 48 9.5 0
      vertex 48 13 0
    endloop
  endfacet
  facet normal 0 0 -1
    outer loop
      vertex 43.5 5 0
      vertex 43.9874 5 0
      vertex 44.073 4.73665 0
    endloop
  endfacet
  facet normal 0 -0 -1
    outer loop
      vertex 49.0126 5 0
      vertex 49.5 5 0
      vertex 48.927 4.73665 0
    endloop
  endfacet
  facet normal 0 0 -1
    outer loop
      vertex 29.5 5 0
      vertex 29.5 8 0
      vertex 33.5 5 0
    endloop
  endfacet
  facet normal 0 0 -1
    outer loop
      vertex 33.5 5 0
      vertex 29.5 8 0
      vertex 33.5 8 0
    endloop
  endfacet
  facet normal -0 -0 -1
    outer loop
      vertex 39.5 5 0
      vertex 48 0 0
      vertex 33.5 5 0
    endloop
  endfacet
  facet normal 0 0 -1
    outer loop
      vertex 33.5 8 0
      vertex 48 13 0
      vertex 39.5 8 0
    endloop
  endfacet
  facet normal -0 0 -1
    outer loop
      vertex 45 8.93689 0
      vertex 44.073 8.26335 0
      vertex 45 9.5 0
    endloop
  endfacet
  facet normal 0 0 -1
    outer loop
      vertex 44.073 8.26335 0
      vertex 43.9874 8 0
      vertex 43.5 8 0
    endloop
  endfacet
  facet normal 0 0 -1
    outer loop
      vertex 48 9.5 0
      vertex 45 9.5 0
      vertex 48 13 0
    endloop
  endfacet
  facet normal 0 0 -1
    outer loop
      vertex 33.5 8 0
      vertex 28 9.5 0
      vertex 48 13 0
    endloop
  endfacet
  facet normal 0 0 -1
    outer loop
      vertex 48 9.5 0
      vertex 51.5355 11.5355 0
      vertex 48.927 8.26335 0
    endloop
  endfacet
  facet normal -0 -0 -1
    outer loop
      vertex 53 8 0
      vertex 53 5 0
      vertex 49.5 8 0
    endloop
  endfacet
  facet normal 0 0 -1
    outer loop
      vertex 49.0126 8 0
      vertex 48.927 8.26335 0
      vertex 49.5 8 0
    endloop
  endfacet
  facet normal 0 0 -1
    outer loop
      vertex 49.5 8 0
      vertex 53 5 0
      vertex 49.5 5 0
    endloop
  endfacet
  facet normal 0 0 -1
    outer loop
      vertex 53 8 0
      vertex 49.5 8 0
      vertex 52.6194 9.91341 0
    endloop
  endfacet
  facet normal 0 0 -1
    outer loop
      vertex 49.5 8 0
      vertex 51.5355 11.5355 0
      vertex 52.6194 9.91341 0
    endloop
  endfacet
  facet normal 0 -0 -1
    outer loop
      vertex 49.5 5 0
      vertex 51.5355 1.46446 0
      vertex 48.927 4.73665 0
    endloop
  endfacet
  facet normal 0 -0 -1
    outer loop
      vertex 48.927 4.73665 0
      vertex 51.5355 1.46446 0
      vertex 48 3.5 0
    endloop
  endfacet
  facet normal 0 0 -1
    outer loop
      vertex 48 4.06311 0
      vertex 48.927 4.73665 0
      vertex 48 3.5 0
    endloop
  endfacet
  facet normal 0 0 -1
    outer loop
      vertex 23.5 5 0
      vertex 19.5 8 0
      vertex 23.5 8 0
    endloop
  endfacet
  facet normal 0 0 -1
    outer loop
      vertex 5 0 0
      vertex 8 3.5 0
      vertex 13.5 5 0
    endloop
  endfacet
  facet normal -0 0 -1
    outer loop
      vertex 13.5 5 0
      vertex 8 3.5 0
      vertex 9.5 5 0
    endloop
  endfacet
  facet normal 0 0 -1
    outer loop
      vertex 19.5 8 0
      vertex 5 13 0
      vertex 25 9.5 0
    endloop
  endfacet
  facet normal -0 -0 -1
    outer loop
      vertex 13.5 8 0
      vertex 13.5 5 0
      vertex 9.5 8 0
    endloop
  endfacet
  facet normal 0 0 -1
    outer loop
      vertex 23.5 8 0
      vertex 19.5 8 0
      vertex 25 9.5 0
    endloop
  endfacet
  facet normal 0 -0 -1
    outer loop
      vertex 33.5 5 0
      vertex 48 0 0
      vertex 28 3.5 0
    endloop
  endfacet
  facet normal 0 0 -1
    outer loop
      vertex 39.5 8 0
      vertex 43.5 8 0
      vertex 43.5 5 0
    endloop
  endfacet
  facet normal 0 -0 -1
    outer loop
      vertex 29.5 5 0
      vertex 33.5 5 0
      vertex 28 3.5 0
    endloop
  endfacet
  facet normal 0 0 -1
    outer loop
      vertex 48 13 0
      vertex 45 9.5 0
      vertex 39.5 8 0
    endloop
  endfacet
  facet normal 0 0 -1
    outer loop
      vertex 39.5 5 0
      vertex 39.5 8 0
      vertex 43.5 5 0
    endloop
  endfacet
  facet normal 0 0 -1
    outer loop
      vertex 39.5 8 0
      vertex 45 9.5 0
      vertex 43.5 8 0
    endloop
  endfacet
  facet normal 0 0 1
    outer loop
      vertex 52.6194 3.08658 3
      vertex 49.5 5 3
      vertex 51.5355 1.46446 3
    endloop
  endfacet
  facet normal 0 0 1
    outer loop
      vertex 53 5 3
      vertex 49.5 5 3
      vertex 52.6194 3.08658 3
    endloop
  endfacet
  facet normal 0 0 1
    outer loop
      vertex 51.5355 1.46446 3
      vertex 48 3.5 3
      vertex 49.9134 0.3806 3
    endloop
  endfacet
  facet normal -0 0 1
    outer loop
      vertex 48 8.93689 3
      vertex 48.927 8.26335 3
      vertex 48 9.5 3
    endloop
  endfacet
  facet normal 0 0 1
    outer loop
      vertex 45 9.5 3
      vertex 43.5 8 3
      vertex 44.073 8.26335 3
    endloop
  endfacet
  facet normal 0 0 1
    outer loop
      vertex 48 9.5 3
      vertex 51.5355 11.5355 3
      vertex 49.9134 12.6194 3
    endloop
  endfacet
  facet normal -0 0 1
    outer loop
      vertex 48.927 8.26335 3
      vertex 49.5 8 3
      vertex 51.5355 11.5355 3
    endloop
  endfacet
  facet normal 0 0 1
    outer loop
      vertex 9.5 8 3
      vertex 8 9.5 3
      vertex 8.92705 8.26335 3
    endloop
  endfacet
  facet normal 0 0 1
    outer loop
      vertex 0 8 3
      vertex 0 5 3
      vertex 3.5 5 3
    endloop
  endfacet
  facet normal -0 0 1
    outer loop
      vertex 0 8 3
      vertex 3.5 5 3
      vertex 3.5 8 3
    endloop
  endfacet
  facet normal 0 -0 1
    outer loop
      vertex 5 3.5 3
      vertex 5 4.06311 3
      vertex 4.07295 4.73665 3
    endloop
  endfacet
  facet normal -0 0 1
    outer loop
      vertex 3.08658 0.3806 3
      vertex 5 0 3
      vertex 5 3.5 3
    endloop
  endfacet
  facet normal 0 -0 1
    outer loop
      vertex 3.08658 0.3806 3
      vertex 5 3.5 3
      vertex 1.46446 1.46446 3
    endloop
  endfacet
  facet normal 0 0 1
    outer loop
      vertex 8 3.5 3
      vertex 5 3.5 3
      vertex 5 0 3
    endloop
  endfacet
  facet normal 0 0 1
    outer loop
      vertex 1.46446 1.46446 3
      vertex 4.07295 4.73665 3
      vertex 3.5 5 3
    endloop
  endfacet
  facet normal 0 0 1
    outer loop
      vertex 8 9.5 3
      vertex 8 8.93689 3
      vertex 8.92705 8.26335 3
    endloop
  endfacet
  facet normal 0 0 1
    outer loop
      vertex 5 0 3
      vertex 48 0 3
      vertex 28 3.5 3
    endloop
  endfacet
  facet normal 0 0 1
    outer loop
      vertex 1.46446 1.46446 3
      vertex 5 3.5 3
      vertex 4.07295 4.73665 3
    endloop
  endfacet
  facet normal 0 0 1
    outer loop
      vertex 5 9.5 3
      vertex 4.07295 8.26335 3
      vertex 5 8.93689 3
    endloop
  endfacet
  facet normal 0 0 1
    outer loop
      vertex 4.07295 8.26335 3
      vertex 3.5 8 3
      vertex 3.98738 8 3
    endloop
  endfacet
  facet normal 0 0 1
    outer loop
      vertex 0 8 3
      vertex 3.5 8 3
      vertex 0.3806 9.91341 3
    endloop
  endfacet
  facet normal 0 0 1
    outer loop
      vertex 3.5 5 3
      vertex 0.3806 3.08658 3
      vertex 1.46446 1.46446 3
    endloop
  endfacet
  facet normal 0 0 1
    outer loop
      vertex 3.98738 5 3
      vertex 3.5 5 3
      vertex 4.07295 4.73665 3
    endloop
  endfacet
  facet normal 0 0 1
    outer loop
      vertex 3.5 8 3
      vertex 1.46446 11.5355 3
      vertex 0.3806 9.91341 3
    endloop
  endfacet
  facet normal -0 0 1
    outer loop
      vertex 0 5 3
      vertex 0.3806 3.08658 3
      vertex 3.5 5 3
    endloop
  endfacet
  facet normal 0 0 1
    outer loop
      vertex 4.07295 8.26335 3
      vertex 1.46446 11.5355 3
      vertex 3.5 8 3
    endloop
  endfacet
  facet normal 0 0 1
    outer loop
      vertex 1.46446 11.5355 3
      vertex 4.07295 8.26335 3
      vertex 5 9.5 3
    endloop
  endfacet
  facet normal 0 -0 1
    outer loop
      vertex 5 9.5 3
      vertex 5 13 3
      vertex 3.08658 12.6194 3
    endloop
  endfacet
  facet normal -0 0 1
    outer loop
      vertex 1.46446 11.5355 3
      vertex 5 9.5 3
      vertex 3.08658 12.6194 3
    endloop
  endfacet
  facet normal 0 0 1
    outer loop
      vertex 25 3.5 3
      vertex 19.5 5 3
      vertex 5 0 3
    endloop
  endfacet
  facet normal -0 0 1
    outer loop
      vertex 23.5 5 3
      vertex 24.073 4.73665 3
      vertex 23.9874 5 3
    endloop
  endfacet
  facet normal 0 0 1
    outer loop
      vertex 5 13 3
      vertex 5 9.5 3
      vertex 8 9.5 3
    endloop
  endfacet
  facet normal 0 0 1
    outer loop
      vertex 9.5 8 3
      vertex 8.92705 8.26335 3
      vertex 9.01262 8 3
    endloop
  endfacet
  facet normal 0 0 1
    outer loop
      vertex 19.5 8 3
      vertex 19.5 5 3
      vertex 23.5 5 3
    endloop
  endfacet
  facet normal 0 0 1
    outer loop
      vertex 23.5 5 3
      vertex 25 3.5 3
      vertex 24.073 4.73665 3
    endloop
  endfacet
  facet normal 0 0 1
    outer loop
      vertex 25 3.5 3
      vertex 23.5 5 3
      vertex 19.5 5 3
    endloop
  endfacet
  facet normal 0 0 1
    outer loop
      vertex 9.5 5 3
      vertex 8.92705 4.73665 3
      vertex 8 3.5 3
    endloop
  endfacet
  facet normal 0 0 1
    outer loop
      vertex 9.5 5 3
      vertex 9.01262 5 3
      vertex 8.92705 4.73665 3
    endloop
  endfacet
  facet normal 0 0 1
    outer loop
      vertex 8 3.5 3
      vertex 8.92705 4.73665 3
      vertex 8 4.06311 3
    endloop
  endfacet
  facet normal 0 0 1
    outer loop
      vertex 28.927 8.26335 3
      vertex 28 9.5 3
      vertex 28 8.93689 3
    endloop
  endfacet
  facet normal 0 0 1
    outer loop
      vertex 25 4.06311 3
      vertex 24.073 4.73665 3
      vertex 25 3.5 3
    endloop
  endfacet
  facet normal 0 0 1
    outer loop
      vertex 28 3.5 3
      vertex 25 3.5 3
      vertex 5 0 3
    endloop
  endfacet
  facet normal 0 0 1
    outer loop
      vertex 9.5 8 3
      vertex 9.5 5 3
      vertex 13.5 5 3
    endloop
  endfacet
  facet normal 0 -0 1
    outer loop
      vertex 25 9.5 3
      vertex 28 9.5 3
      vertex 5 13 3
    endloop
  endfacet
  facet normal 0 0 1
    outer loop
      vertex 28.927 4.73665 3
      vertex 29.5 5 3
      vertex 29.0126 5 3
    endloop
  endfacet
  facet normal 0 -0 1
    outer loop
      vertex 9.5 8 3
      vertex 13.5 8 3
      vertex 8 9.5 3
    endloop
  endfacet
  facet normal 0 -0 1
    outer loop
      vertex 13.5 8 3
      vertex 19.5 8 3
      vertex 5 13 3
    endloop
  endfacet
  facet normal 0 0 1
    outer loop
      vertex 19.5 5 3
      vertex 13.5 5 3
      vertex 5 0 3
    endloop
  endfacet
  facet normal 0 -0 1
    outer loop
      vertex 23.9874 8 3
      vertex 24.073 8.26335 3
      vertex 23.5 8 3
    endloop
  endfacet
  facet normal 0 -0 1
    outer loop
      vertex 28 9.5 3
      vertex 48 13 3
      vertex 5 13 3
    endloop
  endfacet
  facet normal 0 0 1
    outer loop
      vertex 25 9.5 3
      vertex 24.073 8.26335 3
      vertex 25 8.93689 3
    endloop
  endfacet
  facet normal 0 0 1
    outer loop
      vertex 23.5 8 3
      vertex 24.073 8.26335 3
      vertex 25 9.5 3
    endloop
  endfacet
  facet normal -0 -0 1
    outer loop
      vertex 8 9.5 3
      vertex 13.5 8 3
      vertex 5 13 3
    endloop
  endfacet
  facet normal 0 0 1
    outer loop
      vertex 45 3.5 3
      vertex 39.5 5 3
      vertex 48 0 3
    endloop
  endfacet
  facet normal 0 0 1
    outer loop
      vertex 28 9.5 3
      vertex 28.927 8.26335 3
      vertex 29.5 8 3
    endloop
  endfacet
  facet normal 0 0 1
    outer loop
      vertex 29.5 8 3
      vertex 28.927 8.26335 3
      vertex 29.0126 8 3
    endloop
  endfacet
  facet normal 0 -0 1
    outer loop
      vertex 45 3.5 3
      vertex 45 4.06311 3
      vertex 44.073 4.73665 3
    endloop
  endfacet
  facet normal 0 0 1
    outer loop
      vertex 33.5 8 3
      vertex 28 9.5 3
      vertex 29.5 8 3
    endloop
  endfacet
  facet normal 0 0 1
    outer loop
      vertex 45 3.5 3
      vertex 43.5 5 3
      vertex 39.5 5 3
    endloop
  endfacet
  facet normal 0 0 1
    outer loop
      vertex 28 3.5 3
      vertex 29.5 5 3
      vertex 28.927 4.73665 3
    endloop
  endfacet
  facet normal 0 0 1
    outer loop
      vertex 28 3.5 3
      vertex 28.927 4.73665 3
      vertex 28 4.06311 3
    endloop
  endfacet
  facet normal 0 0 1
    outer loop
      vertex 49.9134 0.3806 3
      vertex 48 3.5 3
      vertex 48 0 3
    endloop
  endfacet
  facet normal 0 0 1
    outer loop
      vertex 45 3.5 3
      vertex 44.073 4.73665 3
      vertex 43.5 5 3
    endloop
  endfacet
  facet normal 0 0 1
    outer loop
      vertex 48 3.5 3
      vertex 45 3.5 3
      vertex 48 0 3
    endloop
  endfacet
  facet normal 0 0 1
    outer loop
      vertex 48 13 3
      vertex 48 9.5 3
      vertex 49.9134 12.6194 3
    endloop
  endfacet
  facet normal 0 0 1
    outer loop
      vertex 44.073 4.73665 3
      vertex 43.9874 5 3
      vertex 43.5 5 3
    endloop
  endfacet
  facet normal 0 0 1
    outer loop
      vertex 48.927 4.73665 3
      vertex 49.5 5 3
      vertex 49.0126 5 3
    endloop
  endfacet
  facet normal 0 0 1
    outer loop
      vertex 33.5 5 3
      vertex 29.5 8 3
      vertex 29.5 5 3
    endloop
  endfacet
  facet normal 0 0 1
    outer loop
      vertex 33.5 8 3
      vertex 29.5 8 3
      vertex 33.5 5 3
    endloop
  endfacet
  facet normal -0 0 1
    outer loop
      vertex 33.5 5 3
      vertex 48 0 3
      vertex 39.5 5 3
    endloop
  endfacet
  facet normal 0 -0 1
    outer loop
      vertex 39.5 8 3
      vertex 48 13 3
      vertex 33.5 8 3
    endloop
  endfacet
  facet normal 0 0 1
    outer loop
      vertex 45 9.5 3
      vertex 44.073 8.26335 3
      vertex 45 8.93689 3
    endloop
  endfacet
  facet normal 0 0 1
    outer loop
      vertex 43.5 8 3
      vertex 43.9874 8 3
      vertex 44.073 8.26335 3
    endloop
  endfacet
  facet normal 0 0 1
    outer loop
      vertex 48 13 3
      vertex 45 9.5 3
      vertex 48 9.5 3
    endloop
  endfacet
  facet normal 0 0 1
    outer loop
      vertex 48 13 3
      vertex 28 9.5 3
      vertex 33.5 8 3
    endloop
  endfacet
  facet normal 0 -0 1
    outer loop
      vertex 48.927 8.26335 3
      vertex 51.5355 11.5355 3
      vertex 48 9.5 3
    endloop
  endfacet
  facet normal -0 0 1
    outer loop
      vertex 49.5 8 3
      vertex 53 5 3
      vertex 53 8 3
    endloop
  endfacet
  facet normal 0 0 1
    outer loop
      vertex 49.5 8 3
      vertex 48.927 8.26335 3
      vertex 49.0126 8 3
    endloop
  endfacet
  facet normal 0 0 1
    outer loop
      vertex 49.5 5 3
      vertex 53 5 3
      vertex 49.5 8 3
    endloop
  endfacet
  facet normal 0 0 1
    outer loop
      vertex 52.6194 9.91341 3
      vertex 49.5 8 3
      vertex 53 8 3
    endloop
  endfacet
  facet normal 0 0 1
    outer loop
      vertex 52.6194 9.91341 3
      vertex 51.5355 11.5355 3
      vertex 49.5 8 3
    endloop
  endfacet
  facet normal -0 0 1
    outer loop
      vertex 48.927 4.73665 3
      vertex 51.5355 1.46446 3
      vertex 49.5 5 3
    endloop
  endfacet
  facet normal -0 0 1
    outer loop
      vertex 48 3.5 3
      vertex 51.5355 1.46446 3
      vertex 48.927 4.73665 3
    endloop
  endfacet
  facet normal 0 0 1
    outer loop
      vertex 48 3.5 3
      vertex 48.927 4.73665 3
      vertex 48 4.06311 3
    endloop
  endfacet
  facet normal 0 0 1
    outer loop
      vertex 23.5 8 3
      vertex 19.5 8 3
      vertex 23.5 5 3
    endloop
  endfacet
  facet normal 0 0 1
    outer loop
      vertex 13.5 5 3
      vertex 8 3.5 3
      vertex 5 0 3
    endloop
  endfacet
  facet normal -0 0 1
    outer loop
      vertex 9.5 5 3
      vertex 8 3.5 3
      vertex 13.5 5 3
    endloop
  endfacet
  facet normal 0 0 1
    outer loop
      vertex 25 9.5 3
      vertex 5 13 3
      vertex 19.5 8 3
    endloop
  endfacet
  facet normal -0 0 1
    outer loop
      vertex 9.5 8 3
      vertex 13.5 5 3
      vertex 13.5 8 3
    endloop
  endfacet
  facet normal 0 0 1
    outer loop
      vertex 25 9.5 3
      vertex 19.5 8 3
      vertex 23.5 8 3
    endloop
  endfacet
  facet normal -0 0 1
    outer loop
      vertex 28 3.5 3
      vertex 48 0 3
      vertex 33.5 5 3
    endloop
  endfacet
  facet normal 0 -0 1
    outer loop
      vertex 43.5 5 3
      vertex 43.5 8 3
      vertex 39.5 8 3
    endloop
  endfacet
  facet normal 0 0 1
    outer loop
      vertex 28 3.5 3
      vertex 33.5 5 3
      vertex 29.5 5 3
    endloop
  endfacet
  facet normal 0 0 1
    outer loop
      vertex 39.5 8 3
      vertex 45 9.5 3
      vertex 48 13 3
    endloop
  endfacet
  facet normal 0 0 1
    outer loop
      vertex 43.5 5 3
      vertex 39.5 8 3
      vertex 39.5 5 3
    endloop
  endfacet
  facet normal 0 -0 1
    outer loop
      vertex 43.5 8 3
      vertex 45 9.5 3
      vertex 39.5 8 3
    endloop
  endfacet
  facet normal 0.555573 -0.831468 0
    outer loop
      vertex 51.5355 1.46446 0
      vertex 49.9134 0.3806 3
      vertex 49.9134 0.3806 0
    endloop
  endfacet
  facet normal 0.555573 -0.831468 0
    outer loop
      vertex 51.5355 1.46446 0
      vertex 51.5355 1.46446 3
      vertex 49.9134 0.3806 3
    endloop
  endfacet
  facet normal 0.831462 -0.555582 0
    outer loop
      vertex 52.6194 3.08658 0
      vertex 51.5355 1.46446 3
      vertex 51.5355 1.46446 0
    endloop
  endfacet
  facet normal 0.831462 -0.555582 0
    outer loop
      vertex 52.6194 3.08658 0
      vertex 52.6194 3.08658 3
      vertex 51.5355 1.46446 3
    endloop
  endfacet
  facet normal 0.980786 -0.195089 0
    outer loop
      vertex 53 5 0
      vertex 52.6194 3.08658 3
      vertex 52.6194 3.08658 0
    endloop
  endfacet
  facet normal 0.980786 -0.195089 0
    outer loop
      vertex 53 5 0
      vertex 53 5 3
      vertex 52.6194 3.08658 3
    endloop
  endfacet
  facet normal 1 0 0
    outer loop
      vertex 53 8 0
      vertex 53 5 3
      vertex 53 5 0
    endloop
  endfacet
  facet normal 1 0 -0
    outer loop
      vertex 53 8 0
      vertex 53 8 3
      vertex 53 5 3
    endloop
  endfacet
  facet normal 0.980785 0.19509 0
    outer loop
      vertex 52.6194 9.91341 0
      vertex 53 8 3
      vertex 53 8 0
    endloop
  endfacet
  facet normal 0.980785 0.19509 -0
    outer loop
      vertex 52.6194 9.91341 0
      vertex 52.6194 9.91341 3
      vertex 53 8 3
    endloop
  endfacet
  facet normal 0.831457 0.555589 0
    outer loop
      vertex 51.5355 11.5355 0
      vertex 52.6194 9.91341 3
      vertex 52.6194 9.91341 0
    endloop
  endfacet
  facet normal 0.831457 0.555589 -0
    outer loop
      vertex 51.5355 11.5355 0
      vertex 51.5355 11.5355 3
      vertex 52.6194 9.91341 3
    endloop
  endfacet
  facet normal 0.555587 0.831458 0
    outer loop
      vertex 49.9134 12.6194 0
      vertex 51.5355 11.5355 3
      vertex 51.5355 11.5355 0
    endloop
  endfacet
  facet normal 0.555587 0.831458 -0
    outer loop
      vertex 49.9134 12.6194 0
      vertex 49.9134 12.6194 3
      vertex 51.5355 11.5355 3
    endloop
  endfacet
  facet normal 0.195091 0.980785 0
    outer loop
      vertex 48 13 0
      vertex 49.9134 12.6194 3
      vertex 49.9134 12.6194 0
    endloop
  endfacet
  facet normal 0.195091 0.980785 -0
    outer loop
      vertex 48 13 0
      vertex 48 13 3
      vertex 49.9134 12.6194 3
    endloop
  endfacet
  facet normal 0 1 0
    outer loop
      vertex 5 13 0
      vertex 48 13 3
      vertex 48 13 0
    endloop
  endfacet
  facet normal 0 1 0
    outer loop
      vertex 5 13 0
      vertex 5 13 3
      vertex 48 13 3
    endloop
  endfacet
  facet normal -0.195089 0.980786 0
    outer loop
      vertex 3.08658 12.6194 0
      vertex 5 13 3
      vertex 5 13 0
    endloop
  endfacet
  facet normal -0.195089 0.980786 0
    outer loop
      vertex 3.08658 12.6194 0
      vertex 3.08658 12.6194 3
      vertex 5 13 3
    endloop
  endfacet
  facet normal -0.555582 0.831462 0
    outer loop
      vertex 1.46446 11.5355 0
      vertex 3.08658 12.6194 3
      vertex 3.08658 12.6194 0
    endloop
  endfacet
  facet normal -0.555582 0.831462 0
    outer loop
      vertex 1.46446 11.5355 0
      vertex 1.46446 11.5355 3
      vertex 3.08658 12.6194 3
    endloop
  endfacet
  facet normal -0.831466 0.555575 0
    outer loop
      vertex 0.3806 9.91341 0
      vertex 1.46446 11.5355 3
      vertex 1.46446 11.5355 0
    endloop
  endfacet
  facet normal -0.831466 0.555575 0
    outer loop
      vertex 0.3806 9.91341 0
      vertex 0.3806 9.91341 3
      vertex 1.46446 11.5355 3
    endloop
  endfacet
  facet normal -0.980785 0.19509 0
    outer loop
      vertex 0 8 0
      vertex 0.3806 9.91341 3
      vertex 0.3806 9.91341 0
    endloop
  endfacet
  facet normal -0.980785 0.19509 0
    outer loop
      vertex 0 8 0
      vertex 0 8 3
      vertex 0.3806 9.91341 3
    endloop
  endfacet
  facet normal -1 0 0
    outer loop
      vertex 0 5 0
      vertex 0 8 3
      vertex 0 8 0
    endloop
  endfacet
  facet normal -1 0 0
    outer loop
      vertex 0 5 0
      vertex 0 5 3
      vertex 0 8 3
    endloop
  endfacet
  facet normal -0.980786 -0.195089 0
    outer loop
      vertex 0.3806 3.08658 0
      vertex 0 5 3
      vertex 0 5 0
    endloop
  endfacet
  facet normal -0.980786 -0.195089 0
    outer loop
      vertex 0.3806 3.08658 0
      vertex 0.3806 3.08658 3
      vertex 0 5 3
    endloop
  endfacet
  facet normal -0.831471 -0.555568 0
    outer loop
      vertex 1.46446 1.46446 0
      vertex 0.3806 3.08658 3
      vertex 0.3806 3.08658 0
    endloop
  endfacet
  facet normal -0.831471 -0.555568 0
    outer loop
      vertex 1.46446 1.46446 0
      vertex 1.46446 1.46446 3
      vertex 0.3806 3.08658 3
    endloop
  endfacet
  facet normal -0.555568 -0.831471 0
    outer loop
      vertex 3.08658 0.3806 0
      vertex 1.46446 1.46446 3
      vertex 1.46446 1.46446 0
    endloop
  endfacet
  facet normal -0.555568 -0.831471 0
    outer loop
      vertex 3.08658 0.3806 0
      vertex 3.08658 0.3806 3
      vertex 1.46446 1.46446 3
    endloop
  endfacet
  facet normal -0.195089 -0.980786 0
    outer loop
      vertex 5 0 0
      vertex 3.08658 0.3806 3
      vertex 3.08658 0.3806 0
    endloop
  endfacet
  facet normal -0.195089 -0.980786 0
    outer loop
      vertex 5 0 0
      vertex 5 0 3
      vertex 3.08658 0.3806 3
    endloop
  endfacet
  facet normal 0 -1 0
    outer loop
      vertex 48 0 0
      vertex 5 0 3
      vertex 5 0 0
    endloop
  endfacet
  facet normal 0 -1 0
    outer loop
      vertex 48 0 0
      vertex 48 0 3
      vertex 5 0 3
    endloop
  endfacet
  facet normal 0.195091 -0.980785 0
    outer loop
      vertex 49.9134 0.3806 0
      vertex 48 0 3
      vertex 48 0 0
    endloop
  endfacet
  facet normal 0.195091 -0.980785 0
    outer loop
      vertex 49.9134 0.3806 0
      vertex 49.9134 0.3806 3
      vertex 48 0 3
    endloop
  endfacet
  facet normal 1 0 -0
    outer loop
      vertex 5 4.06311 0
      vertex 5 4.06311 3
      vertex 5 3.5 0
    endloop
  endfacet
  facet normal 1 -0 0
    outer loop
      vertex 5 3.5 3
      vertex 5 3.5 0
      vertex 5 4.06311 3
    endloop
  endfacet
  facet normal 0.587785 0.809018 -0
    outer loop
      vertex 4.07295 4.73665 0
      vertex 4.07295 4.73665 3
      vertex 5 4.06311 0
    endloop
  endfacet
  facet normal 0.587785 0.809018 0
    outer loop
      vertex 5 4.06311 3
      vertex 5 4.06311 0
      vertex 4.07295 4.73665 3
    endloop
  endfacet
  facet normal 0.951054 0.309025 -0
    outer loop
      vertex 3.98738 5 0
      vertex 3.98738 5 3
      vertex 4.07295 4.73665 0
    endloop
  endfacet
  facet normal 0.951054 0.309025 0
    outer loop
      vertex 4.07295 4.73665 3
      vertex 4.07295 4.73665 0
      vertex 3.98738 5 3
    endloop
  endfacet
  facet normal 0 1 0
    outer loop
      vertex 3.5 5 0
      vertex 3.5 5 3
      vertex 3.98738 5 0
    endloop
  endfacet
  facet normal 0 1 0
    outer loop
      vertex 3.98738 5 3
      vertex 3.98738 5 0
      vertex 3.5 5 3
    endloop
  endfacet
  facet normal 1 0 -0
    outer loop
      vertex 3.5 8 0
      vertex 3.5 8 3
      vertex 3.5 5 0
    endloop
  endfacet
  facet normal 1 -0 0
    outer loop
      vertex 3.5 5 3
      vertex 3.5 5 0
      vertex 3.5 8 3
    endloop
  endfacet
  facet normal 0 -1 0
    outer loop
      vertex 3.98738 8 0
      vertex 3.98738 8 3
      vertex 3.5 8 0
    endloop
  endfacet
  facet normal 0 -1 0
    outer loop
      vertex 3.5 8 3
      vertex 3.5 8 0
      vertex 3.98738 8 3
    endloop
  endfacet
  facet normal 0.951054 -0.309025 0
    outer loop
      vertex 4.07295 8.26335 0
      vertex 4.07295 8.26335 3
      vertex 3.98738 8 0
    endloop
  endfacet
  facet normal 0.951054 -0.309025 0
    outer loop
      vertex 3.98738 8 3
      vertex 3.98738 8 0
      vertex 4.07295 8.26335 3
    endloop
  endfacet
  facet normal 0.587785 -0.809018 0
    outer loop
      vertex 5 8.93689 0
      vertex 5 8.93689 3
      vertex 4.07295 8.26335 0
    endloop
  endfacet
  facet normal 0.587785 -0.809018 0
    outer loop
      vertex 4.07295 8.26335 3
      vertex 4.07295 8.26335 0
      vertex 5 8.93689 3
    endloop
  endfacet
  facet normal 1 0 -0
    outer loop
      vertex 5 9.5 0
      vertex 5 9.5 3
      vertex 5 8.93689 0
    endloop
  endfacet
  facet normal 1 -0 0
    outer loop
      vertex 5 8.93689 3
      vertex 5 8.93689 0
      vertex 5 9.5 3
    endloop
  endfacet
  facet normal 0 -1 0
    outer loop
      vertex 8 9.5 0
      vertex 8 9.5 3
      vertex 5 9.5 0
    endloop
  endfacet
  facet normal 0 -1 0
    outer loop
      vertex 5 9.5 3
      vertex 5 9.5 0
      vertex 8 9.5 3
    endloop
  endfacet
  facet normal -1 0 0
    outer loop
      vertex 8 8.93689 0
      vertex 8 8.93689 3
      vertex 8 9.5 0
    endloop
  endfacet
  facet normal -1 -0 -0
    outer loop
      vertex 8 9.5 3
      vertex 8 9.5 0
      vertex 8 8.93689 3
    endloop
  endfacet
  facet normal -0.587785 -0.809018 0
    outer loop
      vertex 8.92705 8.26335 0
      vertex 8.92705 8.26335 3
      vertex 8 8.93689 0
    endloop
  endfacet
  facet normal -0.587785 -0.809018 -0
    outer loop
      vertex 8 8.93689 3
      vertex 8 8.93689 0
      vertex 8.92705 8.26335 3
    endloop
  endfacet
  facet normal -0.951054 -0.309025 0
    outer loop
      vertex 9.01262 8 0
      vertex 9.01262 8 3
      vertex 8.92705 8.26335 0
    endloop
  endfacet
  facet normal -0.951054 -0.309025 -0
    outer loop
      vertex 8.92705 8.26335 3
      vertex 8.92705 8.26335 0
      vertex 9.01262 8 3
    endloop
  endfacet
  facet normal 0 -1 0
    outer loop
      vertex 9.5 8 0
      vertex 9.5 8 3
      vertex 9.01262 8 0
    endloop
  endfacet
  facet normal 0 -1 0
    outer loop
      vertex 9.01262 8 3
      vertex 9.01262 8 0
      vertex 9.5 8 3
    endloop
  endfacet
  facet normal -1 0 0
    outer loop
      vertex 9.5 5 0
      vertex 9.5 5 3
      vertex 9.5 8 0
    endloop
  endfacet
  facet normal -1 -0 -0
    outer loop
      vertex 9.5 8 3
      vertex 9.5 8 0
      vertex 9.5 5 3
    endloop
  endfacet
  facet normal 0 1 0
    outer loop
      vertex 9.01262 5 0
      vertex 9.01262 5 3
      vertex 9.5 5 0
    endloop
  endfacet
  facet normal 0 1 0
    outer loop
      vertex 9.5 5 3
      vertex 9.5 5 0
      vertex 9.01262 5 3
    endloop
  endfacet
  facet normal -0.951054 0.309025 0
    outer loop
      vertex 8.92705 4.73665 0
      vertex 8.92705 4.73665 3
      vertex 9.01262 5 0
    endloop
  endfacet
  facet normal -0.951054 0.309025 0
    outer loop
      vertex 9.01262 5 3
      vertex 9.01262 5 0
      vertex 8.92705 4.73665 3
    endloop
  endfacet
  facet normal -0.587785 0.809018 0
    outer loop
      vertex 8 4.06311 0
      vertex 8 4.06311 3
      vertex 8.92705 4.73665 0
    endloop
  endfacet
  facet normal -0.587785 0.809018 0
    outer loop
      vertex 8.92705 4.73665 3
      vertex 8.92705 4.73665 0
      vertex 8 4.06311 3
    endloop
  endfacet
  facet normal -1 0 0
    outer loop
      vertex 8 3.5 0
      vertex 8 3.5 3
      vertex 8 4.06311 0
    endloop
  endfacet
  facet normal -1 -0 -0
    outer loop
      vertex 8 4.06311 3
      vertex 8 4.06311 0
      vertex 8 3.5 3
    endloop
  endfacet
  facet normal 0 1 0
    outer loop
      vertex 5 3.5 0
      vertex 5 3.5 3
      vertex 8 3.5 0
    endloop
  endfacet
  facet normal 0 1 0
    outer loop
      vertex 8 3.5 3
      vertex 8 3.5 0
      vertex 5 3.5 3
    endloop
  endfacet
  facet normal 1 0 -0
    outer loop
      vertex 25 4.06311 0
      vertex 25 4.06311 3
      vertex 25 3.5 0
    endloop
  endfacet
  facet normal 1 -0 0
    outer loop
      vertex 25 3.5 3
      vertex 25 3.5 0
      vertex 25 4.06311 3
    endloop
  endfacet
  facet normal 0.587805 0.809002 -0
    outer loop
      vertex 24.073 4.73665 0
      vertex 24.073 4.73665 3
      vertex 25 4.06311 0
    endloop
  endfacet
  facet normal 0.587805 0.809002 0
    outer loop
      vertex 25 4.06311 3
      vertex 25 4.06311 0
      vertex 24.073 4.73665 3
    endloop
  endfacet
  facet normal 0.951022 0.309123 -0
    outer loop
      vertex 23.9874 5 0
      vertex 23.9874 5 3
      vertex 24.073 4.73665 0
    endloop
  endfacet
  facet normal 0.951022 0.309123 0
    outer loop
      vertex 24.073 4.73665 3
      vertex 24.073 4.73665 0
      vertex 23.9874 5 3
    endloop
  endfacet
  facet normal 0 1 0
    outer loop
      vertex 23.5 5 0
      vertex 23.5 5 3
      vertex 23.9874 5 0
    endloop
  endfacet
  facet normal 0 1 0
    outer loop
      vertex 23.9874 5 3
      vertex 23.9874 5 0
      vertex 23.5 5 3
    endloop
  endfacet
  facet normal 1 0 -0
    outer loop
      vertex 23.5 8 0
      vertex 23.5 8 3
      vertex 23.5 5 0
    endloop
  endfacet
  facet normal 1 -0 0
    outer loop
      vertex 23.5 5 3
      vertex 23.5 5 0
      vertex 23.5 8 3
    endloop
  endfacet
  facet normal 0 -1 0
    outer loop
      vertex 23.9874 8 0
      vertex 23.9874 8 3
      vertex 23.5 8 0
    endloop
  endfacet
  facet normal 0 -1 0
    outer loop
      vertex 23.5 8 3
      vertex 23.5 8 0
      vertex 23.9874 8 3
    endloop
  endfacet
  facet normal 0.951022 -0.309123 0
    outer loop
      vertex 24.073 8.26335 0
      vertex 24.073 8.26335 3
      vertex 23.9874 8 0
    endloop
  endfacet
  facet normal 0.951022 -0.309123 0
    outer loop
      vertex 23.9874 8 3
      vertex 23.9874 8 0
      vertex 24.073 8.26335 3
    endloop
  endfacet
  facet normal 0.587805 -0.809002 0
    outer loop
      vertex 25 8.93689 0
      vertex 25 8.93689 3
      vertex 24.073 8.26335 0
    endloop
  endfacet
  facet normal 0.587805 -0.809002 0
    outer loop
      vertex 24.073 8.26335 3
      vertex 24.073 8.26335 0
      vertex 25 8.93689 3
    endloop
  endfacet
  facet normal 1 0 -0
    outer loop
      vertex 25 9.5 0
      vertex 25 9.5 3
      vertex 25 8.93689 0
    endloop
  endfacet
  facet normal 1 -0 0
    outer loop
      vertex 25 8.93689 3
      vertex 25 8.93689 0
      vertex 25 9.5 3
    endloop
  endfacet
  facet normal 0 -1 0
    outer loop
      vertex 28 9.5 0
      vertex 28 9.5 3
      vertex 25 9.5 0
    endloop
  endfacet
  facet normal 0 -1 0
    outer loop
      vertex 25 9.5 3
      vertex 25 9.5 0
      vertex 28 9.5 3
    endloop
  endfacet
  facet normal -1 0 0
    outer loop
      vertex 28 8.93689 0
      vertex 28 8.93689 3
      vertex 28 9.5 0
    endloop
  endfacet
  facet normal -1 -0 -0
    outer loop
      vertex 28 9.5 3
      vertex 28 9.5 0
      vertex 28 8.93689 3
    endloop
  endfacet
  facet normal -0.587805 -0.809002 0
    outer loop
      vertex 28.927 8.26335 0
      vertex 28.927 8.26335 3
      vertex 28 8.93689 0
    endloop
  endfacet
  facet normal -0.587805 -0.809002 -0
    outer loop
      vertex 28 8.93689 3
      vertex 28 8.93689 0
      vertex 28.927 8.26335 3
    endloop
  endfacet
  facet normal -0.951022 -0.309123 0
    outer loop
      vertex 29.0126 8 0
      vertex 29.0126 8 3
      vertex 28.927 8.26335 0
    endloop
  endfacet
  facet normal -0.951022 -0.309123 -0
    outer loop
      vertex 28.927 8.26335 3
      vertex 28.927 8.26335 0
      vertex 29.0126 8 3
    endloop
  endfacet
  facet normal 0 -1 0
    outer loop
      vertex 29.5 8 0
      vertex 29.5 8 3
      vertex 29.0126 8 0
    endloop
  endfacet
  facet normal 0 -1 0
    outer loop
      vertex 29.0126 8 3
      vertex 29.0126 8 0
      vertex 29.5 8 3
    endloop
  endfacet
  facet normal -1 0 0
    outer loop
      vertex 29.5 5 0
      vertex 29.5 5 3
      vertex 29.5 8 0
    endloop
  endfacet
  facet normal -1 -0 -0
    outer loop
      vertex 29.5 8 3
      vertex 29.5 8 0
      vertex 29.5 5 3
    endloop
  endfacet
  facet normal 0 1 0
    outer loop
      vertex 29.0126 5 0
      vertex 29.0126 5 3
      vertex 29.5 5 0
    endloop
  endfacet
  facet normal 0 1 0
    outer loop
      vertex 29.5 5 3
      vertex 29.5 5 0
      vertex 29.0126 5 3
    endloop
  endfacet
  facet normal -0.951022 0.309123 0
    outer loop
      vertex 28.927 4.73665 0
      vertex 28.927 4.73665 3
      vertex 29.0126 5 0
    endloop
  endfacet
  facet normal -0.951022 0.309123 0
    outer loop
      vertex 29.0126 5 3
      vertex 29.0126 5 0
      vertex 28.927 4.73665 3
    endloop
  endfacet
  facet normal -0.587805 0.809002 0
    outer loop
      vertex 28 4.06311 0
      vertex 28 4.06311 3
      vertex 28.927 4.73665 0
    endloop
  endfacet
  facet normal -0.587805 0.809002 0
    outer loop
      vertex 28.927 4.73665 3
      vertex 28.927 4.73665 0
      vertex 28 4.06311 3
    endloop
  endfacet
  facet normal -1 0 0
    outer loop
      vertex 28 3.5 0
      vertex 28 3.5 3
      vertex 28 4.06311 0
    endloop
  endfacet
  facet normal -1 -0 -0
    outer loop
      vertex 28 4.06311 3
      vertex 28 4.06311 0
      vertex 28 3.5 3
    endloop
  endfacet
  facet normal 0 1 0
    outer loop
      vertex 25 3.5 0
      vertex 25 3.5 3
      vertex 28 3.5 0
    endloop
  endfacet
  facet normal 0 1 0
    outer loop
      vertex 28 3.5 3
      vertex 28 3.5 0
      vertex 25 3.5 3
    endloop
  endfacet
  facet normal 1 0 -0
    outer loop
      vertex 45 4.06311 0
      vertex 45 4.06311 3
      vertex 45 3.5 0
    endloop
  endfacet
  facet normal 1 -0 0
    outer loop
      vertex 45 3.5 3
      vertex 45 3.5 0
      vertex 45 4.06311 3
    endloop
  endfacet
  facet normal 0.587805 0.809002 -0
    outer loop
      vertex 44.073 4.73665 0
      vertex 44.073 4.73665 3
      vertex 45 4.06311 0
    endloop
  endfacet
  facet normal 0.587805 0.809002 0
    outer loop
      vertex 45 4.06311 3
      vertex 45 4.06311 0
      vertex 44.073 4.73665 3
    endloop
  endfacet
  facet normal 0.951022 0.309123 -0
    outer loop
      vertex 43.9874 5 0
      vertex 43.9874 5 3
      vertex 44.073 4.73665 0
    endloop
  endfacet
  facet normal 0.951022 0.309123 0
    outer loop
      vertex 44.073 4.73665 3
      vertex 44.073 4.73665 0
      vertex 43.9874 5 3
    endloop
  endfacet
  facet normal 0 1 0
    outer loop
      vertex 43.5 5 0
      vertex 43.5 5 3
      vertex 43.9874 5 0
    endloop
  endfacet
  facet normal 0 1 0
    outer loop
      vertex 43.9874 5 3
      vertex 43.9874 5 0
      vertex 43.5 5 3
    endloop
  endfacet
  facet normal 1 0 -0
    outer loop
      vertex 43.5 8 0
      vertex 43.5 8 3
      vertex 43.5 5 0
    endloop
  endfacet
  facet normal 1 -0 0
    outer loop
      vertex 43.5 5 3
      vertex 43.5 5 0
      vertex 43.5 8 3
    endloop
  endfacet
  facet normal 0 -1 0
    outer loop
      vertex 43.9874 8 0
      vertex 43.9874 8 3
      vertex 43.5 8 0
    endloop
  endfacet
  facet normal 0 -1 0
    outer loop
      vertex 43.5 8 3
      vertex 43.5 8 0
      vertex 43.9874 8 3
    endloop
  endfacet
  facet normal 0.951022 -0.309123 0
    outer loop
      vertex 44.073 8.26335 0
      vertex 44.073 8.26335 3
      vertex 43.9874 8 0
    endloop
  endfacet
  facet normal 0.951022 -0.309123 0
    outer loop
      vertex 43.9874 8 3
      vertex 43.9874 8 0
      vertex 44.073 8.26335 3
    endloop
  endfacet
  facet normal 0.587805 -0.809002 0
    outer loop
      vertex 45 8.93689 0
      vertex 45 8.93689 3
      vertex 44.073 8.26335 0
    endloop
  endfacet
  facet normal 0.587805 -0.809002 0
    outer loop
      vertex 44.073 8.26335 3
      vertex 44.073 8.26335 0
      vertex 45 8.93689 3
    endloop
  endfacet
  facet normal 1 0 -0
    outer loop
      vertex 45 9.5 0
      vertex 45 9.5 3
      vertex 45 8.93689 0
    endloop
  endfacet
  facet normal 1 -0 0
    outer loop
      vertex 45 8.93689 3
      vertex 45 8.93689 0
      vertex 45 9.5 3
    endloop
  endfacet
  facet normal 0 -1 0
    outer loop
      vertex 48 9.5 0
      vertex 48 9.5 3
      vertex 45 9.5 0
    endloop
  endfacet
  facet normal 0 -1 0
    outer loop
      vertex 45 9.5 3
      vertex 45 9.5 0
      vertex 48 9.5 3
    endloop
  endfacet
  facet normal -1 0 0
    outer loop
      vertex 48 8.93689 0
      vertex 48 8.93689 3
      vertex 48 9.5 0
    endloop
  endfacet
  facet normal -1 -0 -0
    outer loop
      vertex 48 9.5 3
      vertex 48 9.5 0
      vertex 48 8.93689 3
    endloop
  endfacet
  facet normal -0.587805 -0.809002 0
    outer loop
      vertex 48.927 8.26335 0
      vertex 48.927 8.26335 3
      vertex 48 8.93689 0
    endloop
  endfacet
  facet normal -0.587805 -0.809002 -0
    outer loop
      vertex 48 8.93689 3
      vertex 48 8.93689 0
      vertex 48.927 8.26335 3
    endloop
  endfacet
  facet normal -0.951022 -0.309123 0
    outer loop
      vertex 49.0126 8 0
      vertex 49.0126 8 3
      vertex 48.927 8.26335 0
    endloop
  endfacet
  facet normal -0.951022 -0.309123 -0
    outer loop
      vertex 48.927 8.26335 3
      vertex 48.927 8.26335 0
      vertex 49.0126 8 3
    endloop
  endfacet
  facet normal 0 -1 0
    outer loop
      vertex 49.5 8 0
      vertex 49.5 8 3
      vertex 49.0126 8 0
    endloop
  endfacet
  facet normal 0 -1 0
    outer loop
      vertex 49.0126 8 3
      vertex 49.0126 8 0
      vertex 49.5 8 3
    endloop
  endfacet
  facet normal -1 0 0
    outer loop
      vertex 49.5 5 0
      vertex 49.5 5 3
      vertex 49.5 8 0
    endloop
  endfacet
  facet normal -1 -0 -0
    outer loop
      vertex 49.5 8 3
      vertex 49.5 8 0
      vertex 49.5 5 3
    endloop
  endfacet
  facet normal 0 1 0
    outer loop
      vertex 49.0126 5 0
      vertex 49.0126 5 3
      vertex 49.5 5 0
    endloop
  endfacet
  facet normal 0 1 0
    outer loop
      vertex 49.5 5 3
      vertex 49.5 5 0
      vertex 49.0126 5 3
    endloop
  endfacet
  facet normal -0.951022 0.309123 0
    outer loop
      vertex 48.927 4.73665 0
      vertex 48.927 4.73665 3
      vertex 49.0126 5 0
    endloop
  endfacet
  facet normal -0.951022 0.309123 0
    outer loop
      vertex 49.0126 5 3
      vertex 49.0126 5 0
      vertex 48.927 4.73665 3
    endloop
  endfacet
  facet normal -0.587805 0.809002 0
    outer loop
      vertex 48 4.06311 0
      vertex 48 4.06311 3
      vertex 48.927 4.73665 0
    endloop
  endfacet
  facet normal -0.587805 0.809002 0
    outer loop
      vertex 48.927 4.73665 3
      vertex 48.927 4.73665 0
      vertex 48 4.06311 3
    endloop
  endfacet
  facet normal -1 0 0
    outer loop
      vertex 48 3.5 0
      vertex 48 3.5 3
      vertex 48 4.06311 0
    endloop
  endfacet
  facet normal -1 -0 -0
    outer loop
      vertex 48 4.06311 3
      vertex 48 4.06311 0
      vertex 48 3.5 3
    endloop
  endfacet
  facet normal 0 1 0
    outer loop
      vertex 45 3.5 0
      vertex 45 3.5 3
      vertex 48 3.5 0
    endloop
  endfacet
  facet normal 0 1 0
    outer loop
      vertex 48 3.5 3
      vertex 48 3.5 0
      vertex 45 3.5 3
    endloop
  endfacet
  facet normal 1 0 -0
    outer loop
      vertex 13.5 8 0
      vertex 13.5 8 3
      vertex 13.5 5 0
    endloop
  endfacet
  facet normal 1 -0 0
    outer loop
      vertex 13.5 5 3
      vertex 13.5 5 0
      vertex 13.5 8 3
    endloop
  endfacet
  facet normal 0 -1 0
    outer loop
      vertex 19.5 8 0
      vertex 19.5 8 3
      vertex 13.5 8 0
    endloop
  endfacet
  facet normal 0 -1 0
    outer loop
      vertex 13.5 8 3
      vertex 13.5 8 0
      vertex 19.5 8 3
    endloop
  endfacet
  facet normal -1 0 0
    outer loop
      vertex 19.5 5 0
      vertex 19.5 5 3
      vertex 19.5 8 0
    endloop
  endfacet
  facet normal -1 -0 -0
    outer loop
      vertex 19.5 8 3
      vertex 19.5 8 0
      vertex 19.5 5 3
    endloop
  endfacet
  facet normal 0 1 0
    outer loop
      vertex 13.5 5 0
      vertex 13.5 5 3
      vertex 19.5 5 0
    endloop
  endfacet
  facet normal 0 1 0
    outer loop
      vertex 19.5 5 3
      vertex 19.5 5 0
      vertex 13.5 5 3
    endloop
  endfacet
  facet normal 1 0 -0
    outer loop
      vertex 33.5 8 0
      vertex 33.5 8 3
      vertex 33.5 5 0
    endloop
  endfacet
  facet normal 1 -0 0
    outer loop
      vertex 33.5 5 3
      vertex 33.5 5 0
      vertex 33.5 8 3
    endloop
  endfacet
  facet normal 0 -1 0
    outer loop
      vertex 39.5 8 0
      vertex 39.5 8 3
      vertex 33.5 8 0
    endloop
  endfacet
  facet normal 0 -1 0
    outer loop
      vertex 33.5 8 3
      vertex 33.5 8 0
      vertex 39.5 8 3
    endloop
  endfacet
  facet normal -1 0 0
    outer loop
      vertex 39.5 5 0
      vertex 39.5 5 3
      vertex 39.5 8 0
    endloop
  endfacet
  facet normal -1 -0 -0
    outer loop
      vertex 39.5 8 3
      vertex 39.5 8 0
      vertex 39.5 5 3
    endloop
  endfacet
  facet normal 0 1 0
    outer loop
      vertex 33.5 5 0
      vertex 33.5 5 3
      vertex 39.5 5 0
    endloop
  endfacet
  facet normal 0 1 0
    outer loop
      vertex 39.5 5 3
      vertex 39.5 5 0
      vertex 33.5 5 3
    endloop
  endfacet
endsolid OpenSCAD_Model
