solid OpenSCAD_Model
  facet normal -0.980738 -0.195327 0
    outer loop
      vertex 0 5 0
      vertex 0.381 3.087 0
      vertex 0 5 3
    endloop
  endfacet
  facet normal -0.980738 -0.195327 0
    outer loop
      vertex 0 5 3
      vertex 0.381 3.087 0
      vertex 0.381 3.087 3
    endloop
  endfacet
  facet normal 0 0 -1
    outer loop
      vertex 0 5 0
      vertex 0 8 0
      vertex 0.381 3.087 0
    endloop
  endfacet
  facet normal 0 0 -1
    outer loop
      vertex 0.381 3.087 0
      vertex 0 8 0
      vertex 0.381 9.913 0
    endloop
  endfacet
  facet normal 0 0 -1
    outer loop
      vertex 0.381 3.087 0
      vertex 0.381 9.913 0
      vertex 1.464 11.536 0
    endloop
  endfacet
  facet normal 0 0 -1
    outer loop
      vertex 0.381 3.087 0
      vertex 1.464 11.536 0
      vertex 3.087 12.619 0
    endloop
  endfacet
  facet normal 0 0 -1
    outer loop
      vertex 0.381 3.087 0
      vertex 3.087 12.619 0
      vertex 5 13 0
    endloop
  endfacet
  facet normal 0 0 -1
    outer loop
      vertex 8 9.5 0
      vertex 5 13 0
      vertex 48 13 0
    endloop
  endfacet
  facet normal 0 0 -1
    outer loop
      vertex 29.5 8 0
      vertex 49.913 12.619 0
      vertex 51.536 11.536 0
    endloop
  endfacet
  facet normal 0 0 -1
    outer loop
      vertex 48 9.5 0
      vertex 51.536 11.536 0
      vertex 52.619 9.913 0
    endloop
  endfacet
  facet normal 0 0 -1
    outer loop
      vertex 48.927 8.263 0
      vertex 52.619 9.913 0
      vertex 49.012 8 0
    endloop
  endfacet
  facet normal 0 0 -1
    outer loop
      vertex 48 4.063 0
      vertex 53 5 0
      vertex 52.619 3.087 0
    endloop
  endfacet
  facet normal 0 0 -1
    outer loop
      vertex 0.381 3.087 0
      vertex 52.619 3.087 0
      vertex 51.536 1.464 0
    endloop
  endfacet
  facet normal 0 0 -1
    outer loop
      vertex 0.381 3.087 0
      vertex 51.536 1.464 0
      vertex 49.913 0.381 0
    endloop
  endfacet
  facet normal 0 0 -1
    outer loop
      vertex 0.381 3.087 0
      vertex 49.913 0.381 0
      vertex 48 0 0
    endloop
  endfacet
  facet normal 0 0 -1
    outer loop
      vertex 0.381 3.087 0
      vertex 48 0 0
      vertex 5 0 0
    endloop
  endfacet
  facet normal 0 0 -1
    outer loop
      vertex 0.381 3.087 0
      vertex 5 0 0
      vertex 3.087 0.381 0
    endloop
  endfacet
  facet normal 0 0 -1
    outer loop
      vertex 0.381 3.087 0
      vertex 3.087 0.381 0
      vertex 1.464 1.464 0
    endloop
  endfacet
  facet normal 0 0 -1
    outer loop
      vertex 0.381 3.087 0
      vertex 5 13 0
      vertex 3.5 8 0
    endloop
  endfacet
  facet normal 0 0 -1
    outer loop
      vertex 0.381 3.087 0
      vertex 3.5 8 0
      vertex 3.5 5 0
    endloop
  endfacet
  facet normal 0 0 -1
    outer loop
      vertex 0.381 3.087 0
      vertex 3.5 5 0
      vertex 3.988 5 0
    endloop
  endfacet
  facet normal 0 0 -1
    outer loop
      vertex 0.381 3.087 0
      vertex 3.988 5 0
      vertex 4.073 4.737 0
    endloop
  endfacet
  facet normal 0 0 -1
    outer loop
      vertex 0.381 3.087 0
      vertex 4.073 4.737 0
      vertex 5 4.063 0
    endloop
  endfacet
  facet normal 0 0 -1
    outer loop
      vertex 28 8.937 0
      vertex 49.913 12.619 0
      vertex 28.927 8.263 0
    endloop
  endfacet
  facet normal 0 0 -1
    outer loop
      vertex 25 4.063 0
      vertex 8 3.5 0
      vertex 8 4.063 0
    endloop
  endfacet
  facet normal 0 0 -1
    outer loop
      vertex 0.381 3.087 0
      vertex 5 3.5 0
      vertex 8 3.5 0
    endloop
  endfacet
  facet normal 0 0 -1
    outer loop
      vertex 25 3.5 0
      vertex 0.381 3.087 0
      vertex 25 4.063 0
    endloop
  endfacet
  facet normal 0 0 -1
    outer loop
      vertex 8 4.063 0
      vertex 23.988 5 0
      vertex 24.073 4.737 0
    endloop
  endfacet
  facet normal 0 0 -1
    outer loop
      vertex 8 4.063 0
      vertex 23.5 5 0
      vertex 23.988 5 0
    endloop
  endfacet
  facet normal 0 0 -1
    outer loop
      vertex 29.5 8 0
      vertex 44.073 8.263 0
      vertex 43.5 8 0
    endloop
  endfacet
  facet normal 0 0 -1
    outer loop
      vertex 23.988 8 0
      vertex 23.5 8 0
      vertex 24.073 8.263 0
    endloop
  endfacet
  facet normal 0 0 -1
    outer loop
      vertex 25 9.5 0
      vertex 9.5 8 0
      vertex 48 13 0
    endloop
  endfacet
  facet normal 0 0 -1
    outer loop
      vertex 9.5 8 0
      vertex 9.012 8 0
      vertex 48 13 0
    endloop
  endfacet
  facet normal 0 0 -1
    outer loop
      vertex 9.012 8 0
      vertex 8.927 8.263 0
      vertex 48 13 0
    endloop
  endfacet
  facet normal 0 0 -1
    outer loop
      vertex 3.988 8 0
      vertex 3.5 8 0
      vertex 4.073 8.263 0
    endloop
  endfacet
  facet normal 0 0 -1
    outer loop
      vertex 5 9.5 0
      vertex 5 13 0
      vertex 8 9.5 0
    endloop
  endfacet
  facet normal 0 0 -1
    outer loop
      vertex 8 8.937 0
      vertex 8 9.5 0
      vertex 48 13 0
    endloop
  endfacet
  facet normal 0 0 -1
    outer loop
      vertex 3.5 8 0
      vertex 5 13 0
      vertex 5 9.5 0
    endloop
  endfacet
  facet normal 0 0 -1
    outer loop
      vertex 3.5 8 0
      vertex 5 9.5 0
      vertex 5 8.937 0
    endloop
  endfacet
  facet normal 0 0 -1
    outer loop
      vertex 3.5 8 0
      vertex 5 8.937 0
      vertex 4.073 8.263 0
    endloop
  endfacet
  facet normal 0 0 -1
    outer loop
      vertex 23.5 5 0
      vertex 9.5 5 0
      vertex 23.5 8 0
    endloop
  endfacet
  facet normal 0 0 -1
    outer loop
      vertex 29.5 8 0
      vertex 45 8.937 0
      vertex 44.073 8.263 0
    endloop
  endfacet
  facet normal 0 0 -1
    outer loop
      vertex 29.5 8 0
      vertex 51.536 11.536 0
      vertex 45 9.5 0
    endloop
  endfacet
  facet normal 0 0 -1
    outer loop
      vertex 0.381 3.087 0
      vertex 8 3.5 0
      vertex 25 4.063 0
    endloop
  endfacet
  facet normal 0 0 -1
    outer loop
      vertex 0.381 3.087 0
      vertex 25 3.5 0
      vertex 52.619 3.087 0
    endloop
  endfacet
  facet normal 0 0 -1
    outer loop
      vertex 28.927 4.737 0
      vertex 44.073 4.737 0
      vertex 28 4.063 0
    endloop
  endfacet
  facet normal 0 0 -1
    outer loop
      vertex 25 3.5 0
      vertex 28 3.5 0
      vertex 52.619 3.087 0
    endloop
  endfacet
  facet normal 0 0 -1
    outer loop
      vertex 45 4.063 0
      vertex 28 3.5 0
      vertex 28 4.063 0
    endloop
  endfacet
  facet normal 0 0 -1
    outer loop
      vertex 44.073 4.737 0
      vertex 28.927 4.737 0
      vertex 43.988 5 0
    endloop
  endfacet
  facet normal 0 0 -1
    outer loop
      vertex 29.012 8 0
      vertex 49.913 12.619 0
      vertex 29.5 8 0
    endloop
  endfacet
  facet normal 0 0 -1
    outer loop
      vertex 28.927 8.263 0
      vertex 49.913 12.619 0
      vertex 29.012 8 0
    endloop
  endfacet
  facet normal 0 0 -1
    outer loop
      vertex 43.988 8 0
      vertex 43.5 8 0
      vertex 44.073 8.263 0
    endloop
  endfacet
  facet normal 0 0 -1
    outer loop
      vertex 28 9.5 0
      vertex 48 13 0
      vertex 28 8.937 0
    endloop
  endfacet
  facet normal 0 0 -1
    outer loop
      vertex 8 8.937 0
      vertex 48 13 0
      vertex 8.927 8.263 0
    endloop
  endfacet
  facet normal 0 0 -1
    outer loop
      vertex 25 8.937 0
      vertex 9.5 8 0
      vertex 25 9.5 0
    endloop
  endfacet
  facet normal 0 0 -1
    outer loop
      vertex 28 9.5 0
      vertex 25 9.5 0
      vertex 48 13 0
    endloop
  endfacet
  facet normal 0 0 -1
    outer loop
      vertex 43.5 5 0
      vertex 29.5 5 0
      vertex 43.5 8 0
    endloop
  endfacet
  facet normal 0 0 -1
    outer loop
      vertex 48 9.5 0
      vertex 52.619 9.913 0
      vertex 48 8.937 0
    endloop
  endfacet
  facet normal 0 0 -1
    outer loop
      vertex 49.5 8 0
      vertex 52.619 9.913 0
      vertex 53 8 0
    endloop
  endfacet
  facet normal 0 0 -1
    outer loop
      vertex 49.5 8 0
      vertex 53 8 0
      vertex 49.5 5 0
    endloop
  endfacet
  facet normal 0 0 -1
    outer loop
      vertex 49.5 5 0
      vertex 53 5 0
      vertex 48.927 4.737 0
    endloop
  endfacet
  facet normal 0 0 -1
    outer loop
      vertex 28 3.5 0
      vertex 45 4.063 0
      vertex 45 3.5 0
    endloop
  endfacet
  facet normal 0 0 -1
    outer loop
      vertex 28 3.5 0
      vertex 45 3.5 0
      vertex 52.619 3.087 0
    endloop
  endfacet
  facet normal 0 0 -1
    outer loop
      vertex 45 3.5 0
      vertex 48 3.5 0
      vertex 52.619 3.087 0
    endloop
  endfacet
  facet normal 0 0 -1
    outer loop
      vertex 49.012 5 0
      vertex 49.5 5 0
      vertex 48.927 4.737 0
    endloop
  endfacet
  facet normal 0 0 -1
    outer loop
      vertex 48.927 4.737 0
      vertex 53 5 0
      vertex 48 4.063 0
    endloop
  endfacet
  facet normal 0 0 -1
    outer loop
      vertex 48 4.063 0
      vertex 52.619 3.087 0
      vertex 48 3.5 0
    endloop
  endfacet
  facet normal 0 0 -1
    outer loop
      vertex 49.5 5 0
      vertex 53 8 0
      vertex 53 5 0
    endloop
  endfacet
  facet normal 0 0 -1
    outer loop
      vertex 29.5 8 0
      vertex 43.5 8 0
      vertex 29.5 5 0
    endloop
  endfacet
  facet normal 0 0 -1
    outer loop
      vertex 49.012 8 0
      vertex 52.619 9.913 0
      vertex 49.5 8 0
    endloop
  endfacet
  facet normal 0 0 -1
    outer loop
      vertex 25 4.063 0
      vertex 8 4.063 0
      vertex 24.073 4.737 0
    endloop
  endfacet
  facet normal 0 0 -1
    outer loop
      vertex 48 8.937 0
      vertex 52.619 9.913 0
      vertex 48.927 8.263 0
    endloop
  endfacet
  facet normal 0 0 -1
    outer loop
      vertex 45 9.5 0
      vertex 51.536 11.536 0
      vertex 48 9.5 0
    endloop
  endfacet
  facet normal 0 0 -1
    outer loop
      vertex 45 8.937 0
      vertex 29.5 8 0
      vertex 45 9.5 0
    endloop
  endfacet
  facet normal 0 0 -1
    outer loop
      vertex 43.5 5 0
      vertex 43.988 5 0
      vertex 28.927 4.737 0
    endloop
  endfacet
  facet normal 0 0 -1
    outer loop
      vertex 29.5 5 0
      vertex 43.5 5 0
      vertex 28.927 4.737 0
    endloop
  endfacet
  facet normal 0 0 -1
    outer loop
      vertex 29.012 5 0
      vertex 29.5 5 0
      vertex 28.927 4.737 0
    endloop
  endfacet
  facet normal 0 0 -1
    outer loop
      vertex 45 4.063 0
      vertex 28 4.063 0
      vertex 44.073 4.737 0
    endloop
  endfacet
  facet normal 0 0 -1
    outer loop
      vertex 5 3.5 0
      vertex 0.381 3.087 0
      vertex 5 4.063 0
    endloop
  endfacet
  facet normal 0 0 -1
    outer loop
      vertex 9.5 8 0
      vertex 25 8.937 0
      vertex 24.073 8.263 0
    endloop
  endfacet
  facet normal 0 0 -1
    outer loop
      vertex 23.5 5 0
      vertex 8.927 4.737 0
      vertex 9.5 5 0
    endloop
  endfacet
  facet normal 0 0 -1
    outer loop
      vertex 9.012 5 0
      vertex 9.5 5 0
      vertex 8.927 4.737 0
    endloop
  endfacet
  facet normal 0 0 -1
    outer loop
      vertex 9.5 8 0
      vertex 24.073 8.263 0
      vertex 23.5 8 0
    endloop
  endfacet
  facet normal 0 0 -1
    outer loop
      vertex 23.5 5 0
      vertex 8 4.063 0
      vertex 8.927 4.737 0
    endloop
  endfacet
  facet normal 0 0 -1
    outer loop
      vertex 9.5 8 0
      vertex 23.5 8 0
      vertex 9.5 5 0
    endloop
  endfacet
  facet normal 0 0 -1
    outer loop
      vertex 28 8.937 0
      vertex 48 13 0
      vertex 49.913 12.619 0
    endloop
  endfacet
  facet normal -1 0 0
    outer loop
      vertex 0 5 0
      vertex 0 5 3
      vertex 0 8 0
    endloop
  endfacet
  facet normal -1 0 0
    outer loop
      vertex 0 8 0
      vertex 0 5 3
      vertex 0 8 3
    endloop
  endfacet
  facet normal 0 0 1
    outer loop
      vertex 0 8 3
      vertex 0 5 3
      vertex 0.381 3.087 3
    endloop
  endfacet
  facet normal 0 0 1
    outer loop
      vertex 3.087 0.381 3
      vertex 0 8 3
      vertex 1.464 1.464 3
    endloop
  endfacet
  facet normal 0 0 1
    outer loop
      vertex 1.464 1.464 3
      vertex 0 8 3
      vertex 0.381 3.087 3
    endloop
  endfacet
  facet normal 0 0 1
    outer loop
      vertex 5 0 3
      vertex 0 8 3
      vertex 3.087 0.381 3
    endloop
  endfacet
  facet normal 0 0 1
    outer loop
      vertex 3.5 5 3
      vertex 0 8 3
      vertex 5 0 3
    endloop
  endfacet
  facet normal 0 0 1
    outer loop
      vertex 24.073 4.737 3
      vertex 23.988 5 3
      vertex 23.5 5 3
    endloop
  endfacet
  facet normal 0 0 1
    outer loop
      vertex 24.073 8.263 3
      vertex 9.012 8 3
      vertex 9.5 8 3
    endloop
  endfacet
  facet normal 0 0 1
    outer loop
      vertex 53 8 3
      vertex 49.5 8 3
      vertex 53 5 3
    endloop
  endfacet
  facet normal 0 0 1
    outer loop
      vertex 8 8.937 3
      vertex 51.536 11.536 3
      vertex 49.913 12.619 3
    endloop
  endfacet
  facet normal 0 0 1
    outer loop
      vertex 28 9.5 3
      vertex 28 8.937 3
      vertex 52.619 9.913 3
    endloop
  endfacet
  facet normal 0 0 1
    outer loop
      vertex 8 9.5 3
      vertex 8 8.937 3
      vertex 48 13 3
    endloop
  endfacet
  facet normal 0 0 1
    outer loop
      vertex 3.087 12.619 3
      vertex 0 8 3
      vertex 5 13 3
    endloop
  endfacet
  facet normal 0 0 1
    outer loop
      vertex 1.464 11.536 3
      vertex 0 8 3
      vertex 3.087 12.619 3
    endloop
  endfacet
  facet normal 0 0 1
    outer loop
      vertex 0.381 9.913 3
      vertex 0 8 3
      vertex 1.464 11.536 3
    endloop
  endfacet
  facet normal 0 0 1
    outer loop
      vertex 5 3.5 3
      vertex 3.5 5 3
      vertex 5 0 3
    endloop
  endfacet
  facet normal 0 0 1
    outer loop
      vertex 8 8.937 3
      vertex 8.927 8.263 3
      vertex 25 8.937 3
    endloop
  endfacet
  facet normal 0 0 1
    outer loop
      vertex 25 8.937 3
      vertex 25 9.5 3
      vertex 8 8.937 3
    endloop
  endfacet
  facet normal 0 0 1
    outer loop
      vertex 5 13 3
      vertex 5 9.5 3
      vertex 48 13 3
    endloop
  endfacet
  facet normal 0 0 1
    outer loop
      vertex 5 9.5 3
      vertex 0 8 3
      vertex 5 8.937 3
    endloop
  endfacet
  facet normal 0 0 1
    outer loop
      vertex 5 13 3
      vertex 0 8 3
      vertex 5 9.5 3
    endloop
  endfacet
  facet normal 0 0 1
    outer loop
      vertex 8 8.937 3
      vertex 25 9.5 3
      vertex 51.536 11.536 3
    endloop
  endfacet
  facet normal 0 0 1
    outer loop
      vertex 48 13 3
      vertex 5 9.5 3
      vertex 8 9.5 3
    endloop
  endfacet
  facet normal 0 0 1
    outer loop
      vertex 4.073 8.263 3
      vertex 5 8.937 3
      vertex 0 8 3
    endloop
  endfacet
  facet normal 0 0 1
    outer loop
      vertex 48 0 3
      vertex 9.5 5 3
      vertex 9.012 5 3
    endloop
  endfacet
  facet normal 0 0 1
    outer loop
      vertex 9.5 8 3
      vertex 9.5 5 3
      vertex 25 3.5 3
    endloop
  endfacet
  facet normal 0 0 1
    outer loop
      vertex 8 3.5 3
      vertex 5 3.5 3
      vertex 5 0 3
    endloop
  endfacet
  facet normal 0 0 1
    outer loop
      vertex 48 0 3
      vertex 9.012 5 3
      vertex 8.927 4.737 3
    endloop
  endfacet
  facet normal 0 0 1
    outer loop
      vertex 48 0 3
      vertex 8 3.5 3
      vertex 5 0 3
    endloop
  endfacet
  facet normal 0 0 1
    outer loop
      vertex 48 0 3
      vertex 8 4.063 3
      vertex 8 3.5 3
    endloop
  endfacet
  facet normal 0 0 1
    outer loop
      vertex 5 4.063 3
      vertex 3.5 5 3
      vertex 5 3.5 3
    endloop
  endfacet
  facet normal 0 0 1
    outer loop
      vertex 4.073 4.737 3
      vertex 3.5 5 3
      vertex 5 4.063 3
    endloop
  endfacet
  facet normal 0 0 1
    outer loop
      vertex 43.5 5 3
      vertex 43.5 8 3
      vertex 29.5 8 3
    endloop
  endfacet
  facet normal 0 0 1
    outer loop
      vertex 28 4.063 3
      vertex 28 3.5 3
      vertex 49.913 0.381 3
    endloop
  endfacet
  facet normal 0 0 1
    outer loop
      vertex 24.073 8.263 3
      vertex 9.5 8 3
      vertex 23.5 8 3
    endloop
  endfacet
  facet normal 0 0 1
    outer loop
      vertex 28 8.937 3
      vertex 45 9.5 3
      vertex 52.619 9.913 3
    endloop
  endfacet
  facet normal 0 0 1
    outer loop
      vertex 8 8.937 3
      vertex 49.913 12.619 3
      vertex 48 13 3
    endloop
  endfacet
  facet normal 0 0 1
    outer loop
      vertex 51.536 11.536 3
      vertex 25 9.5 3
      vertex 52.619 9.913 3
    endloop
  endfacet
  facet normal 0 0 1
    outer loop
      vertex 25 9.5 3
      vertex 28 9.5 3
      vertex 52.619 9.913 3
    endloop
  endfacet
  facet normal 0 0 1
    outer loop
      vertex 23.988 8 3
      vertex 24.073 8.263 3
      vertex 23.5 8 3
    endloop
  endfacet
  facet normal 0 0 1
    outer loop
      vertex 28 8.937 3
      vertex 28.927 8.263 3
      vertex 45 9.5 3
    endloop
  endfacet
  facet normal 0 0 1
    outer loop
      vertex 45 9.5 3
      vertex 48 9.5 3
      vertex 52.619 9.913 3
    endloop
  endfacet
  facet normal 0 0 1
    outer loop
      vertex 28.927 8.263 3
      vertex 29.012 8 3
      vertex 29.5 8 3
    endloop
  endfacet
  facet normal 0 0 1
    outer loop
      vertex 45 3.5 3
      vertex 29.5 5 3
      vertex 51.536 1.464 3
    endloop
  endfacet
  facet normal 0 0 1
    outer loop
      vertex 24.073 8.263 3
      vertex 25 8.937 3
      vertex 8.927 8.263 3
    endloop
  endfacet
  facet normal 0 0 1
    outer loop
      vertex 29.5 5 3
      vertex 29.012 5 3
      vertex 51.536 1.464 3
    endloop
  endfacet
  facet normal 0 0 1
    outer loop
      vertex 29.5 8 3
      vertex 45 4.063 3
      vertex 43.5 5 3
    endloop
  endfacet
  facet normal 0 0 1
    outer loop
      vertex 29.012 5 3
      vertex 28.927 4.737 3
      vertex 51.536 1.464 3
    endloop
  endfacet
  facet normal 0 0 1
    outer loop
      vertex 9.5 8 3
      vertex 24.073 4.737 3
      vertex 23.5 5 3
    endloop
  endfacet
  facet normal 0 0 1
    outer loop
      vertex 49.913 0.381 3
      vertex 28 3.5 3
      vertex 48 0 3
    endloop
  endfacet
  facet normal 0 0 1
    outer loop
      vertex 9.5 8 3
      vertex 25 4.063 3
      vertex 24.073 4.737 3
    endloop
  endfacet
  facet normal 0 0 1
    outer loop
      vertex 48 0 3
      vertex 25 3.5 3
      vertex 9.5 5 3
    endloop
  endfacet
  facet normal 0 0 1
    outer loop
      vertex 9.5 8 3
      vertex 25 3.5 3
      vertex 25 4.063 3
    endloop
  endfacet
  facet normal 0 0 1
    outer loop
      vertex 29.5 8 3
      vertex 29.5 5 3
      vertex 45 4.063 3
    endloop
  endfacet
  facet normal 0 0 1
    outer loop
      vertex 53 5 3
      vertex 49.5 5 3
      vertex 52.619 3.087 3
    endloop
  endfacet
  facet normal 0 0 1
    outer loop
      vertex 3.5 8 3
      vertex 4.073 8.263 3
      vertex 0 8 3
    endloop
  endfacet
  facet normal 0 0 1
    outer loop
      vertex 28.927 8.263 3
      vertex 29.5 8 3
      vertex 43.5 8 3
    endloop
  endfacet
  facet normal 0 0 1
    outer loop
      vertex 28.927 8.263 3
      vertex 43.5 8 3
      vertex 43.988 8 3
    endloop
  endfacet
  facet normal 0 0 1
    outer loop
      vertex 45 8.937 3
      vertex 28.927 8.263 3
      vertex 44.073 8.263 3
    endloop
  endfacet
  facet normal 0 0 1
    outer loop
      vertex 48.927 8.263 3
      vertex 49.5 8 3
      vertex 53 8 3
    endloop
  endfacet
  facet normal 0 0 1
    outer loop
      vertex 48 9.5 3
      vertex 48 8.937 3
      vertex 52.619 9.913 3
    endloop
  endfacet
  facet normal 0 0 1
    outer loop
      vertex 43.988 8 3
      vertex 44.073 8.263 3
      vertex 28.927 8.263 3
    endloop
  endfacet
  facet normal 0 0 1
    outer loop
      vertex 48.927 8.263 3
      vertex 49.012 8 3
      vertex 49.5 8 3
    endloop
  endfacet
  facet normal 0 0 1
    outer loop
      vertex 52.619 9.913 3
      vertex 48 8.937 3
      vertex 53 8 3
    endloop
  endfacet
  facet normal 0 0 1
    outer loop
      vertex 48 8.937 3
      vertex 48.927 8.263 3
      vertex 53 8 3
    endloop
  endfacet
  facet normal 0 0 1
    outer loop
      vertex 48 4.063 3
      vertex 48 3.5 3
      vertex 52.619 3.087 3
    endloop
  endfacet
  facet normal 0 0 1
    outer loop
      vertex 49.5 8 3
      vertex 49.5 5 3
      vertex 53 5 3
    endloop
  endfacet
  facet normal 0 0 1
    outer loop
      vertex 45 8.937 3
      vertex 45 9.5 3
      vertex 28.927 8.263 3
    endloop
  endfacet
  facet normal 0 0 1
    outer loop
      vertex 52.619 3.087 3
      vertex 49.5 5 3
      vertex 49.012 5 3
    endloop
  endfacet
  facet normal 0 0 1
    outer loop
      vertex 52.619 3.087 3
      vertex 49.012 5 3
      vertex 48.927 4.737 3
    endloop
  endfacet
  facet normal 0 0 1
    outer loop
      vertex 44.073 4.737 3
      vertex 43.988 5 3
      vertex 43.5 5 3
    endloop
  endfacet
  facet normal 0 0 1
    outer loop
      vertex 52.619 3.087 3
      vertex 48.927 4.737 3
      vertex 48 4.063 3
    endloop
  endfacet
  facet normal 0 0 1
    outer loop
      vertex 45 3.5 3
      vertex 45 4.063 3
      vertex 29.5 5 3
    endloop
  endfacet
  facet normal 0 0 1
    outer loop
      vertex 24.073 8.263 3
      vertex 8.927 8.263 3
      vertex 9.012 8 3
    endloop
  endfacet
  facet normal 0 0 1
    outer loop
      vertex 52.619 3.087 3
      vertex 45 3.5 3
      vertex 51.536 1.464 3
    endloop
  endfacet
  facet normal 0 0 1
    outer loop
      vertex 48 3.5 3
      vertex 45 3.5 3
      vertex 52.619 3.087 3
    endloop
  endfacet
  facet normal 0 0 1
    outer loop
      vertex 3.988 8 3
      vertex 4.073 8.263 3
      vertex 3.5 8 3
    endloop
  endfacet
  facet normal 0 0 1
    outer loop
      vertex 43.5 5 3
      vertex 45 4.063 3
      vertex 44.073 4.737 3
    endloop
  endfacet
  facet normal 0 0 1
    outer loop
      vertex 23.5 5 3
      vertex 23.5 8 3
      vertex 9.5 8 3
    endloop
  endfacet
  facet normal 0 0 1
    outer loop
      vertex 28.927 4.737 3
      vertex 49.913 0.381 3
      vertex 51.536 1.464 3
    endloop
  endfacet
  facet normal 0 0 1
    outer loop
      vertex 28.927 4.737 3
      vertex 28 4.063 3
      vertex 49.913 0.381 3
    endloop
  endfacet
  facet normal 0 0 1
    outer loop
      vertex 4.073 4.737 3
      vertex 3.988 5 3
      vertex 3.5 5 3
    endloop
  endfacet
  facet normal 0 0 1
    outer loop
      vertex 28 3.5 3
      vertex 25 3.5 3
      vertex 48 0 3
    endloop
  endfacet
  facet normal 0 0 1
    outer loop
      vertex 8.927 4.737 3
      vertex 8 4.063 3
      vertex 48 0 3
    endloop
  endfacet
  facet normal 0 0 1
    outer loop
      vertex 3.5 5 3
      vertex 3.5 8 3
      vertex 0 8 3
    endloop
  endfacet
  facet normal -0.831814 -0.555055 0
    outer loop
      vertex 0.381 3.087 0
      vertex 1.464 1.464 0
      vertex 0.381 3.087 3
    endloop
  endfacet
  facet normal -0.831814 -0.555055 0
    outer loop
      vertex 0.381 3.087 3
      vertex 1.464 1.464 0
      vertex 1.464 1.464 3
    endloop
  endfacet
  facet normal -0.555055 -0.831814 0
    outer loop
      vertex 1.464 1.464 3
      vertex 1.464 1.464 0
      vertex 3.087 0.381 0
    endloop
  endfacet
  facet normal -0.555055 -0.831814 0
    outer loop
      vertex 3.087 0.381 3
      vertex 1.464 1.464 3
      vertex 3.087 0.381 0
    endloop
  endfacet
  facet normal -0.195327 -0.980738 0
    outer loop
      vertex 3.087 0.381 3
      vertex 3.087 0.381 0
      vertex 5 0 0
    endloop
  endfacet
  facet normal -0.195327 -0.980738 0
    outer loop
      vertex 5 0 3
      vertex 3.087 0.381 3
      vertex 5 0 0
    endloop
  endfacet
  facet normal 0 -1 0
    outer loop
      vertex 5 0 3
      vertex 5 0 0
      vertex 48 0 0
    endloop
  endfacet
  facet normal 0 -1 0
    outer loop
      vertex 48 0 3
      vertex 5 0 3
      vertex 48 0 0
    endloop
  endfacet
  facet normal 0.195327 -0.980738 0
    outer loop
      vertex 48 0 3
      vertex 48 0 0
      vertex 49.913 0.381 0
    endloop
  endfacet
  facet normal 0.195327 -0.980738 0
    outer loop
      vertex 49.913 0.381 3
      vertex 48 0 3
      vertex 49.913 0.381 0
    endloop
  endfacet
  facet normal 0.555055 -0.831814 0
    outer loop
      vertex 49.913 0.381 3
      vertex 49.913 0.381 0
      vertex 51.536 1.464 0
    endloop
  endfacet
  facet normal 0.555055 -0.831814 0
    outer loop
      vertex 51.536 1.464 3
      vertex 49.913 0.381 3
      vertex 51.536 1.464 0
    endloop
  endfacet
  facet normal 0.831814 -0.555055 0
    outer loop
      vertex 51.536 1.464 3
      vertex 51.536 1.464 0
      vertex 52.619 3.087 0
    endloop
  endfacet
  facet normal 0.831814 -0.555055 0
    outer loop
      vertex 52.619 3.087 3
      vertex 51.536 1.464 3
      vertex 52.619 3.087 0
    endloop
  endfacet
  facet normal 0.980738 -0.195327 0
    outer loop
      vertex 52.619 3.087 3
      vertex 52.619 3.087 0
      vertex 53 5 0
    endloop
  endfacet
  facet normal 0.980738 -0.195327 0
    outer loop
      vertex 53 5 3
      vertex 52.619 3.087 3
      vertex 53 5 0
    endloop
  endfacet
  facet normal 1 0 0
    outer loop
      vertex 53 5 3
      vertex 53 5 0
      vertex 53 8 0
    endloop
  endfacet
  facet normal 1 0 0
    outer loop
      vertex 53 8 3
      vertex 53 5 3
      vertex 53 8 0
    endloop
  endfacet
  facet normal 0.980738 0.195327 0
    outer loop
      vertex 53 8 0
      vertex 52.619 9.913 0
      vertex 52.619 9.913 3
    endloop
  endfacet
  facet normal 0.980738 0.195327 0
    outer loop
      vertex 53 8 3
      vertex 53 8 0
      vertex 52.619 9.913 3
    endloop
  endfacet
  facet normal 0.831814 0.555055 0
    outer loop
      vertex 52.619 9.913 0
      vertex 51.536 11.536 0
      vertex 51.536 11.536 3
    endloop
  endfacet
  facet normal 0.831814 0.555055 0
    outer loop
      vertex 52.619 9.913 3
      vertex 52.619 9.913 0
      vertex 51.536 11.536 3
    endloop
  endfacet
  facet normal 0.555055 0.831814 0
    outer loop
      vertex 49.913 12.619 0
      vertex 49.913 12.619 3
      vertex 51.536 11.536 0
    endloop
  endfacet
  facet normal 0.555055 0.831814 0
    outer loop
      vertex 51.536 11.536 0
      vertex 49.913 12.619 3
      vertex 51.536 11.536 3
    endloop
  endfacet
  facet normal 0.195327 0.980738 0
    outer loop
      vertex 48 13 0
      vertex 48 13 3
      vertex 49.913 12.619 0
    endloop
  endfacet
  facet normal 0.195327 0.980738 0
    outer loop
      vertex 49.913 12.619 0
      vertex 48 13 3
      vertex 49.913 12.619 3
    endloop
  endfacet
  facet normal 0 1 0
    outer loop
      vertex 5 13 0
      vertex 5 13 3
      vertex 48 13 0
    endloop
  endfacet
  facet normal 0 1 0
    outer loop
      vertex 48 13 0
      vertex 5 13 3
      vertex 48 13 3
    endloop
  endfacet
  facet normal -0.195327 0.980738 0
    outer loop
      vertex 3.087 12.619 0
      vertex 3.087 12.619 3
      vertex 5 13 0
    endloop
  endfacet
  facet normal -0.195327 0.980738 0
    outer loop
      vertex 5 13 0
      vertex 3.087 12.619 3
      vertex 5 13 3
    endloop
  endfacet
  facet normal -0.555055 0.831814 0
    outer loop
      vertex 1.464 11.536 0
      vertex 1.464 11.536 3
      vertex 3.087 12.619 0
    endloop
  endfacet
  facet normal -0.555055 0.831814 0
    outer loop
      vertex 3.087 12.619 0
      vertex 1.464 11.536 3
      vertex 3.087 12.619 3
    endloop
  endfacet
  facet normal -0.831814 0.555055 0
    outer loop
      vertex 0.381 9.913 0
      vertex 0.381 9.913 3
      vertex 1.464 11.536 0
    endloop
  endfacet
  facet normal -0.831814 0.555055 0
    outer loop
      vertex 1.464 11.536 0
      vertex 0.381 9.913 3
      vertex 1.464 11.536 3
    endloop
  endfacet
  facet normal -0.980738 0.195327 0
    outer loop
      vertex 0 8 0
      vertex 0 8 3
      vertex 0.381 9.913 0
    endloop
  endfacet
  facet normal -0.980738 0.195327 0
    outer loop
      vertex 0.381 9.913 0
      vertex 0 8 3
      vertex 0.381 9.913 3
    endloop
  endfacet
  facet normal 0 -1 0
    outer loop
      vertex 3.988 8 0
      vertex 3.988 8 3
      vertex 3.5 8 3
    endloop
  endfacet
  facet normal 0 -1 0
    outer loop
      vertex 3.5 8 0
      vertex 3.988 8 0
      vertex 3.5 8 3
    endloop
  endfacet
  facet normal 1 0 0
    outer loop
      vertex 3.5 8 0
      vertex 3.5 8 3
      vertex 3.5 5 3
    endloop
  endfacet
  facet normal 1 0 0
    outer loop
      vertex 3.5 5 0
      vertex 3.5 8 0
      vertex 3.5 5 3
    endloop
  endfacet
  facet normal 0.951538 -0.307531 0
    outer loop
      vertex 4.073 8.263 0
      vertex 4.073 8.263 3
      vertex 3.988 8 3
    endloop
  endfacet
  facet normal 0.951538 -0.307531 0
    outer loop
      vertex 3.988 8 0
      vertex 4.073 8.263 0
      vertex 3.988 8 3
    endloop
  endfacet
  facet normal 0.588068 -0.808812 0
    outer loop
      vertex 5 8.937 0
      vertex 5 8.937 3
      vertex 4.073 8.263 3
    endloop
  endfacet
  facet normal 0.588068 -0.808812 0
    outer loop
      vertex 4.073 8.263 0
      vertex 5 8.937 0
      vertex 4.073 8.263 3
    endloop
  endfacet
  facet normal 1 0 0
    outer loop
      vertex 5 9.5 0
      vertex 5 9.5 3
      vertex 5 8.937 3
    endloop
  endfacet
  facet normal 1 0 0
    outer loop
      vertex 5 8.937 0
      vertex 5 9.5 0
      vertex 5 8.937 3
    endloop
  endfacet
  facet normal 0 -1 0
    outer loop
      vertex 8 9.5 0
      vertex 8 9.5 3
      vertex 5 9.5 3
    endloop
  endfacet
  facet normal 0 -1 0
    outer loop
      vertex 5 9.5 0
      vertex 8 9.5 0
      vertex 5 9.5 3
    endloop
  endfacet
  facet normal -1 0 0
    outer loop
      vertex 8 9.5 3
      vertex 8 9.5 0
      vertex 8 8.937 3
    endloop
  endfacet
  facet normal -1 0 0
    outer loop
      vertex 8 8.937 3
      vertex 8 9.5 0
      vertex 8 8.937 0
    endloop
  endfacet
  facet normal -0.588068 -0.808812 0
    outer loop
      vertex 8.927 8.263 0
      vertex 8.927 8.263 3
      vertex 8 8.937 3
    endloop
  endfacet
  facet normal -0.588068 -0.808812 0
    outer loop
      vertex 8 8.937 0
      vertex 8.927 8.263 0
      vertex 8 8.937 3
    endloop
  endfacet
  facet normal -0.951538 -0.307531 0
    outer loop
      vertex 9.012 8 3
      vertex 8.927 8.263 3
      vertex 9.012 8 0
    endloop
  endfacet
  facet normal -0.951538 -0.307531 0
    outer loop
      vertex 9.012 8 0
      vertex 8.927 8.263 3
      vertex 8.927 8.263 0
    endloop
  endfacet
  facet normal 0 -1 0
    outer loop
      vertex 9.5 8 0
      vertex 9.5 8 3
      vertex 9.012 8 3
    endloop
  endfacet
  facet normal 0 -1 0
    outer loop
      vertex 9.012 8 0
      vertex 9.5 8 0
      vertex 9.012 8 3
    endloop
  endfacet
  facet normal -1 0 0
    outer loop
      vertex 9.5 8 3
      vertex 9.5 8 0
      vertex 9.5 5 3
    endloop
  endfacet
  facet normal -1 0 0
    outer loop
      vertex 9.5 5 3
      vertex 9.5 8 0
      vertex 9.5 5 0
    endloop
  endfacet
  facet normal 0 1 0
    outer loop
      vertex 9.5 5 3
      vertex 9.5 5 0
      vertex 9.012 5 3
    endloop
  endfacet
  facet normal 0 1 0
    outer loop
      vertex 9.012 5 3
      vertex 9.5 5 0
      vertex 9.012 5 0
    endloop
  endfacet
  facet normal -0.951538 0.307531 0
    outer loop
      vertex 9.012 5 3
      vertex 9.012 5 0
      vertex 8.927 4.737 3
    endloop
  endfacet
  facet normal -0.951538 0.307531 0
    outer loop
      vertex 8.927 4.737 3
      vertex 9.012 5 0
      vertex 8.927 4.737 0
    endloop
  endfacet
  facet normal -0.588068 0.808812 0
    outer loop
      vertex 8.927 4.737 3
      vertex 8.927 4.737 0
      vertex 8 4.063 3
    endloop
  endfacet
  facet normal -0.588068 0.808812 0
    outer loop
      vertex 8 4.063 3
      vertex 8.927 4.737 0
      vertex 8 4.063 0
    endloop
  endfacet
  facet normal -1 0 0
    outer loop
      vertex 8 4.063 3
      vertex 8 4.063 0
      vertex 8 3.5 3
    endloop
  endfacet
  facet normal -1 0 0
    outer loop
      vertex 8 3.5 3
      vertex 8 4.063 0
      vertex 8 3.5 0
    endloop
  endfacet
  facet normal 0 1 0
    outer loop
      vertex 8 3.5 3
      vertex 8 3.5 0
      vertex 5 3.5 3
    endloop
  endfacet
  facet normal 0 1 0
    outer loop
      vertex 5 3.5 3
      vertex 8 3.5 0
      vertex 5 3.5 0
    endloop
  endfacet
  facet normal 1 0 0
    outer loop
      vertex 5 4.063 0
      vertex 5 4.063 3
      vertex 5 3.5 3
    endloop
  endfacet
  facet normal 1 0 0
    outer loop
      vertex 5 3.5 0
      vertex 5 4.063 0
      vertex 5 3.5 3
    endloop
  endfacet
  facet normal 0.588068 0.808812 0
    outer loop
      vertex 5 4.063 3
      vertex 5 4.063 0
      vertex 4.073 4.737 3
    endloop
  endfacet
  facet normal 0.588068 0.808812 0
    outer loop
      vertex 4.073 4.737 3
      vertex 5 4.063 0
      vertex 4.073 4.737 0
    endloop
  endfacet
  facet normal 0.951538 0.307531 0
    outer loop
      vertex 3.988 5 3
      vertex 4.073 4.737 3
      vertex 4.073 4.737 0
    endloop
  endfacet
  facet normal 0.951538 0.307531 0
    outer loop
      vertex 3.988 5 0
      vertex 3.988 5 3
      vertex 4.073 4.737 0
    endloop
  endfacet
  facet normal 0 1 0
    outer loop
      vertex 3.988 5 3
      vertex 3.988 5 0
      vertex 3.5 5 3
    endloop
  endfacet
  facet normal 0 1 0
    outer loop
      vertex 3.5 5 3
      vertex 3.988 5 0
      vertex 3.5 5 0
    endloop
  endfacet
  facet normal 0 -1 0
    outer loop
      vertex 23.988 8 0
      vertex 23.988 8 3
      vertex 23.5 8 3
    endloop
  endfacet
  facet normal 0 -1 0
    outer loop
      vertex 23.5 8 0
      vertex 23.988 8 0
      vertex 23.5 8 3
    endloop
  endfacet
  facet normal 1 0 0
    outer loop
      vertex 23.5 8 0
      vertex 23.5 8 3
      vertex 23.5 5 3
    endloop
  endfacet
  facet normal 1 0 0
    outer loop
      vertex 23.5 5 0
      vertex 23.5 8 0
      vertex 23.5 5 3
    endloop
  endfacet
  facet normal 0.951538 -0.307531 0
    outer loop
      vertex 24.073 8.263 0
      vertex 24.073 8.263 3
      vertex 23.988 8 3
    endloop
  endfacet
  facet normal 0.951538 -0.307531 0
    outer loop
      vertex 23.988 8 0
      vertex 24.073 8.263 0
      vertex 23.988 8 3
    endloop
  endfacet
  facet normal 0.588068 -0.808812 0
    outer loop
      vertex 25 8.937 0
      vertex 25 8.937 3
      vertex 24.073 8.263 3
    endloop
  endfacet
  facet normal 0.588068 -0.808812 0
    outer loop
      vertex 24.073 8.263 0
      vertex 25 8.937 0
      vertex 24.073 8.263 3
    endloop
  endfacet
  facet normal 1 0 0
    outer loop
      vertex 25 9.5 0
      vertex 25 9.5 3
      vertex 25 8.937 3
    endloop
  endfacet
  facet normal 1 0 0
    outer loop
      vertex 25 8.937 0
      vertex 25 9.5 0
      vertex 25 8.937 3
    endloop
  endfacet
  facet normal 0 -1 0
    outer loop
      vertex 28 9.5 0
      vertex 28 9.5 3
      vertex 25 9.5 3
    endloop
  endfacet
  facet normal 0 -1 0
    outer loop
      vertex 25 9.5 0
      vertex 28 9.5 0
      vertex 25 9.5 3
    endloop
  endfacet
  facet normal -1 0 0
    outer loop
      vertex 28 9.5 3
      vertex 28 9.5 0
      vertex 28 8.937 3
    endloop
  endfacet
  facet normal -1 0 0
    outer loop
      vertex 28 8.937 3
      vertex 28 9.5 0
      vertex 28 8.937 0
    endloop
  endfacet
  facet normal -0.588068 -0.808812 0
    outer loop
      vertex 28.927 8.263 0
      vertex 28.927 8.263 3
      vertex 28 8.937 3
    endloop
  endfacet
  facet normal -0.588068 -0.808812 0
    outer loop
      vertex 28 8.937 0
      vertex 28.927 8.263 0
      vertex 28 8.937 3
    endloop
  endfacet
  facet normal -0.951538 -0.307531 0
    outer loop
      vertex 29.012 8 3
      vertex 28.927 8.263 3
      vertex 29.012 8 0
    endloop
  endfacet
  facet normal -0.951538 -0.307531 0
    outer loop
      vertex 29.012 8 0
      vertex 28.927 8.263 3
      vertex 28.927 8.263 0
    endloop
  endfacet
  facet normal 0 -1 0
    outer loop
      vertex 29.5 8 0
      vertex 29.5 8 3
      vertex 29.012 8 3
    endloop
  endfacet
  facet normal 0 -1 0
    outer loop
      vertex 29.012 8 0
      vertex 29.5 8 0
      vertex 29.012 8 3
    endloop
  endfacet
  facet normal -1 0 0
    outer loop
      vertex 29.5 8 3
      vertex 29.5 8 0
      vertex 29.5 5 3
    endloop
  endfacet
  facet normal -1 0 0
    outer loop
      vertex 29.5 5 3
      vertex 29.5 8 0
      vertex 29.5 5 0
    endloop
  endfacet
  facet normal 0 1 0
    outer loop
      vertex 29.5 5 3
      vertex 29.5 5 0
      vertex 29.012 5 3
    endloop
  endfacet
  facet normal 0 1 0
    outer loop
      vertex 29.012 5 3
      vertex 29.5 5 0
      vertex 29.012 5 0
    endloop
  endfacet
  facet normal -0.951538 0.307531 0
    outer loop
      vertex 29.012 5 3
      vertex 29.012 5 0
      vertex 28.927 4.737 3
    endloop
  endfacet
  facet normal -0.951538 0.307531 0
    outer loop
      vertex 28.927 4.737 3
      vertex 29.012 5 0
      vertex 28.927 4.737 0
    endloop
  endfacet
  facet normal -0.588068 0.808812 0
    outer loop
      vertex 28.927 4.737 3
      vertex 28.927 4.737 0
      vertex 28 4.063 3
    endloop
  endfacet
  facet normal -0.588068 0.808812 0
    outer loop
      vertex 28 4.063 3
      vertex 28.927 4.737 0
      vertex 28 4.063 0
    endloop
  endfacet
  facet normal -1 0 0
    outer loop
      vertex 28 4.063 3
      vertex 28 4.063 0
      vertex 28 3.5 3
    endloop
  endfacet
  facet normal -1 0 0
    outer loop
      vertex 28 3.5 3
      vertex 28 4.063 0
      vertex 28 3.5 0
    endloop
  endfacet
  facet normal 0 1 0
    outer loop
      vertex 28 3.5 3
      vertex 28 3.5 0
      vertex 25 3.5 3
    endloop
  endfacet
  facet normal 0 1 0
    outer loop
      vertex 25 3.5 3
      vertex 28 3.5 0
      vertex 25 3.5 0
    endloop
  endfacet
  facet normal 1 0 0
    outer loop
      vertex 25 4.063 0
      vertex 25 4.063 3
      vertex 25 3.5 3
    endloop
  endfacet
  facet normal 1 0 0
    outer loop
      vertex 25 3.5 0
      vertex 25 4.063 0
      vertex 25 3.5 3
    endloop
  endfacet
  facet normal 0.588068 0.808812 0
    outer loop
      vertex 25 4.063 3
      vertex 25 4.063 0
      vertex 24.073 4.737 3
    endloop
  endfacet
  facet normal 0.588068 0.808812 0
    outer loop
      vertex 24.073 4.737 3
      vertex 25 4.063 0
      vertex 24.073 4.737 0
    endloop
  endfacet
  facet normal 0.951538 0.307531 0
    outer loop
      vertex 23.988 5 3
      vertex 24.073 4.737 3
      vertex 24.073 4.737 0
    endloop
  endfacet
  facet normal 0.951538 0.307531 0
    outer loop
      vertex 23.988 5 0
      vertex 23.988 5 3
      vertex 24.073 4.737 0
    endloop
  endfacet
  facet normal 0 1 0
    outer loop
      vertex 23.988 5 3
      vertex 23.988 5 0
      vertex 23.5 5 3
    endloop
  endfacet
  facet normal 0 1 0
    outer loop
      vertex 23.5 5 3
      vertex 23.988 5 0
      vertex 23.5 5 0
    endloop
  endfacet
  facet normal 0 -1 0
    outer loop
      vertex 43.988 8 0
      vertex 43.988 8 3
      vertex 43.5 8 3
    endloop
  endfacet
  facet normal 0 -1 0
    outer loop
      vertex 43.5 8 0
      vertex 43.988 8 0
      vertex 43.5 8 3
    endloop
  endfacet
  facet normal 1 0 0
    outer loop
      vertex 43.5 8 0
      vertex 43.5 8 3
      vertex 43.5 5 3
    endloop
  endfacet
  facet normal 1 0 0
    outer loop
      vertex 43.5 5 0
      vertex 43.5 8 0
      vertex 43.5 5 3
    endloop
  endfacet
  facet normal 0.951538 -0.307531 0
    outer loop
      vertex 44.073 8.263 0
      vertex 44.073 8.263 3
      vertex 43.988 8 3
    endloop
  endfacet
  facet normal 0.951538 -0.307531 0
    outer loop
      vertex 43.988 8 0
      vertex 44.073 8.263 0
      vertex 43.988 8 3
    endloop
  endfacet
  facet normal 0.588068 -0.808812 0
    outer loop
      vertex 45 8.937 0
      vertex 45 8.937 3
      vertex 44.073 8.263 3
    endloop
  endfacet
  facet normal 0.588068 -0.808812 0
    outer loop
      vertex 44.073 8.263 0
      vertex 45 8.937 0
      vertex 44.073 8.263 3
    endloop
  endfacet
  facet normal 1 0 0
    outer loop
      vertex 45 9.5 0
      vertex 45 9.5 3
      vertex 45 8.937 3
    endloop
  endfacet
  facet normal 1 0 0
    outer loop
      vertex 45 8.937 0
      vertex 45 9.5 0
      vertex 45 8.937 3
    endloop
  endfacet
  facet normal 0 -1 0
    outer loop
      vertex 48 9.5 0
      vertex 48 9.5 3
      vertex 45 9.5 3
    endloop
  endfacet
  facet normal 0 -1 0
    outer loop
      vertex 45 9.5 0
      vertex 48 9.5 0
      vertex 45 9.5 3
    endloop
  endfacet
  facet normal -1 0 0
    outer loop
      vertex 48 9.5 3
      vertex 48 9.5 0
      vertex 48 8.937 3
    endloop
  endfacet
  facet normal -1 0 0
    outer loop
      vertex 48 8.937 3
      vertex 48 9.5 0
      vertex 48 8.937 0
    endloop
  endfacet
  facet normal -0.588068 -0.808812 0
    outer loop
      vertex 48.927 8.263 0
      vertex 48.927 8.263 3
      vertex 48 8.937 3
    endloop
  endfacet
  facet normal -0.588068 -0.808812 0
    outer loop
      vertex 48 8.937 0
      vertex 48.927 8.263 0
      vertex 48 8.937 3
    endloop
  endfacet
  facet normal -0.951538 -0.307531 0
    outer loop
      vertex 49.012 8 3
      vertex 48.927 8.263 3
      vertex 49.012 8 0
    endloop
  endfacet
  facet normal -0.951538 -0.307531 0
    outer loop
      vertex 49.012 8 0
      vertex 48.927 8.263 3
      vertex 48.927 8.263 0
    endloop
  endfacet
  facet normal 0 -1 0
    outer loop
      vertex 49.5 8 0
      vertex 49.5 8 3
      vertex 49.012 8 3
    endloop
  endfacet
  facet normal 0 -1 0
    outer loop
      vertex 49.012 8 0
      vertex 49.5 8 0
      vertex 49.012 8 3
    endloop
  endfacet
  facet normal -1 0 0
    outer loop
      vertex 49.5 8 3
      vertex 49.5 8 0
      vertex 49.5 5 3
    endloop
  endfacet
  facet normal -1 0 0
    outer loop
      vertex 49.5 5 3
      vertex 49.5 8 0
      vertex 49.5 5 0
    endloop
  endfacet
  facet normal 0 1 0
    outer loop
      vertex 49.5 5 3
      vertex 49.5 5 0
      vertex 49.012 5 3
    endloop
  endfacet
  facet normal 0 1 0
    outer loop
      vertex 49.012 5 3
      vertex 49.5 5 0
      vertex 49.012 5 0
    endloop
  endfacet
  facet normal -0.951538 0.307531 0
    outer loop
      vertex 49.012 5 3
      vertex 49.012 5 0
      vertex 48.927 4.737 3
    endloop
  endfacet
  facet normal -0.951538 0.307531 0
    outer loop
      vertex 48.927 4.737 3
      vertex 49.012 5 0
      vertex 48.927 4.737 0
    endloop
  endfacet
  facet normal -0.588068 0.808812 0
    outer loop
      vertex 48.927 4.737 3
      vertex 48.927 4.737 0
      vertex 48 4.063 3
    endloop
  endfacet
  facet normal -0.588068 0.808812 0
    outer loop
      vertex 48 4.063 3
      vertex 48.927 4.737 0
      vertex 48 4.063 0
    endloop
  endfacet
  facet normal -1 0 0
    outer loop
      vertex 48 4.063 3
      vertex 48 4.063 0
      vertex 48 3.5 3
    endloop
  endfacet
  facet normal -1 0 0
    outer loop
      vertex 48 3.5 3
      vertex 48 4.063 0
      vertex 48 3.5 0
    endloop
  endfacet
  facet normal 0 1 0
    outer loop
      vertex 48 3.5 3
      vertex 48 3.5 0
      vertex 45 3.5 3
    endloop
  endfacet
  facet normal 0 1 0
    outer loop
      vertex 45 3.5 3
      vertex 48 3.5 0
      vertex 45 3.5 0
    endloop
  endfacet
  facet normal 1 0 0
    outer loop
      vertex 45 4.063 0
      vertex 45 4.063 3
      vertex 45 3.5 3
    endloop
  endfacet
  facet normal 1 0 0
    outer loop
      vertex 45 3.5 0
      vertex 45 4.063 0
      vertex 45 3.5 3
    endloop
  endfacet
  facet normal 0.588068 0.808812 0
    outer loop
      vertex 45 4.063 3
      vertex 45 4.063 0
      vertex 44.073 4.737 3
    endloop
  endfacet
  facet normal 0.588068 0.808812 0
    outer loop
      vertex 44.073 4.737 3
      vertex 45 4.063 0
      vertex 44.073 4.737 0
    endloop
  endfacet
  facet normal 0.951538 0.307531 0
    outer loop
      vertex 43.988 5 3
      vertex 44.073 4.737 3
      vertex 44.073 4.737 0
    endloop
  endfacet
  facet normal 0.951538 0.307531 0
    outer loop
      vertex 43.988 5 0
      vertex 43.988 5 3
      vertex 44.073 4.737 0
    endloop
  endfacet
  facet normal 0 1 0
    outer loop
      vertex 43.988 5 3
      vertex 43.988 5 0
      vertex 43.5 5 3
    endloop
  endfacet
  facet normal 0 1 0
    outer loop
      vertex 43.5 5 3
      vertex 43.988 5 0
      vertex 43.5 5 0
    endloop
  endfacet
endsolid OpenSCAD_Model
