solid OpenSCAD_Model
  facet normal 0 0 -1
    outer loop
      vertex 4.96057 -0.626663 0
      vertex 4.96057 0.626663 0
      vertex 5 0 0
    endloop
  endfacet
  facet normal 0 0 -1
    outer loop
      vertex 4.84291 -1.24344 0
      vertex 4.96057 0.626663 0
      vertex 4.96057 -0.626663 0
    endloop
  endfacet
  facet normal 0 0 -1
    outer loop
      vertex 4.84291 -1.24344 0
      vertex 4.84291 1.24344 0
      vertex 4.96057 0.626663 0
    endloop
  endfacet
  facet normal 0 0 -1
    outer loop
      vertex 4.64888 -1.84062 0
      vertex 4.84291 1.24344 0
      vertex 4.84291 -1.24344 0
    endloop
  endfacet
  facet normal 0 0 -1
    outer loop
      vertex 4.64888 -1.84062 0
      vertex 4.64888 1.84062 0
      vertex 4.84291 1.24344 0
    endloop
  endfacet
  facet normal 0 0 -1
    outer loop
      vertex 4.38153 -2.40877 0
      vertex 4.64888 1.84062 0
      vertex 4.64888 -1.84062 0
    endloop
  endfacet
  facet normal 0 0 -1
    outer loop
      vertex 4.38153 -2.40877 0
      vertex 4.38153 2.40877 0
      vertex 4.64888 1.84062 0
    endloop
  endfacet
  facet normal 0 0 -1
    outer loop
      vertex 4.04507 -2.93892 0
      vertex 4.38153 2.40877 0
      vertex 4.38153 -2.40877 0
    endloop
  endfacet
  facet normal 0 0 -1
    outer loop
      vertex 4.04507 -2.93892 0
      vertex 4.04507 2.93892 0
      vertex 4.38153 2.40877 0
    endloop
  endfacet
  facet normal 0 0 -1
    outer loop
      vertex 3.64484 -3.42273 0
      vertex 4.04507 2.93892 0
      vertex 4.04507 -2.93892 0
    endloop
  endfacet
  facet normal 0 0 -1
    outer loop
      vertex 3.64484 -3.42273 0
      vertex 3.64484 3.42273 0
      vertex 4.04507 2.93892 0
    endloop
  endfacet
  facet normal 0 0 -1
    outer loop
      vertex 3.18712 -3.85255 0
      vertex 3.64484 3.42273 0
      vertex 3.64484 -3.42273 0
    endloop
  endfacet
  facet normal 0 0 -1
    outer loop
      vertex 3.18712 -3.85255 0
      vertex 3.18712 3.85255 0
      vertex 3.64484 3.42273 0
    endloop
  endfacet
  facet normal 0 0 -1
    outer loop
      vertex 2.67912 -4.22163 0
      vertex 3.18712 3.85255 0
      vertex 3.18712 -3.85255 0
    endloop
  endfacet
  facet normal 0 0 -1
    outer loop
      vertex 2.67912 -4.22163 0
      vertex 2.67912 4.22163 0
      vertex 3.18712 3.85255 0
    endloop
  endfacet
  facet normal 0 0 -1
    outer loop
      vertex 2.12889 -4.52412 0
      vertex 2.67912 4.22163 0
      vertex 2.67912 -4.22163 0
    endloop
  endfacet
  facet normal 0 0 -1
    outer loop
      vertex 2.12889 -4.52412 0
      vertex 2.12889 4.52412 0
      vertex 2.67912 4.22163 0
    endloop
  endfacet
  facet normal 0 0 -1
    outer loop
      vertex 1.54507 -4.75528 0
      vertex 2.12889 4.52412 0
      vertex 2.12889 -4.52412 0
    endloop
  endfacet
  facet normal 0 0 -1
    outer loop
      vertex 1.54507 -4.75528 0
      vertex 1.54507 4.75528 0
      vertex 2.12889 4.52412 0
    endloop
  endfacet
  facet normal 0 0 -1
    outer loop
      vertex 0.936905 -4.91142 0
      vertex 1.54507 4.75528 0
      vertex 1.54507 -4.75528 0
    endloop
  endfacet
  facet normal 0 0 -1
    outer loop
      vertex 0.936905 -4.91142 0
      vertex 0.936905 4.91142 0
      vertex 1.54507 4.75528 0
    endloop
  endfacet
  facet normal 0 0 -1
    outer loop
      vertex 0.31395 -4.99013 0
      vertex 0.936905 4.91142 0
      vertex 0.936905 -4.91142 0
    endloop
  endfacet
  facet normal 0 0 -1
    outer loop
      vertex 0.31395 -4.99013 0
      vertex 0.31395 4.99013 0
      vertex 0.936905 4.91142 0
    endloop
  endfacet
  facet normal 0 0 -1
    outer loop
      vertex -0.31395 -4.99013 0
      vertex 0.31395 4.99013 0
      vertex 0.31395 -4.99013 0
    endloop
  endfacet
  facet normal 0 0 -1
    outer loop
      vertex -0.31395 -4.99013 0
      vertex -0.31395 4.99013 0
      vertex 0.31395 4.99013 0
    endloop
  endfacet
  facet normal 0 0 -1
    outer loop
      vertex -0.936905 -4.91142 0
      vertex -0.31395 4.99013 0
      vertex -0.31395 -4.99013 0
    endloop
  endfacet
  facet normal 0 0 -1
    outer loop
      vertex -0.936905 -4.91142 0
      vertex -0.936905 4.91142 0
      vertex -0.31395 4.99013 0
    endloop
  endfacet
  facet normal 0 0 -1
    outer loop
      vertex -1.54507 -4.75528 0
      vertex -0.936905 4.91142 0
      vertex -0.936905 -4.91142 0
    endloop
  endfacet
  facet normal 0 0 -1
    outer loop
      vertex -1.54507 -4.75528 0
      vertex -1.54507 4.75528 0
      vertex -0.936905 4.91142 0
    endloop
  endfacet
  facet normal 0 0 -1
    outer loop
      vertex -2.12889 -4.52412 0
      vertex -1.54507 4.75528 0
      vertex -1.54507 -4.75528 0
    endloop
  endfacet
  facet normal 0 0 -1
    outer loop
      vertex -2.12889 -4.52412 0
      vertex -2.12889 4.52412 0
      vertex -1.54507 4.75528 0
    endloop
  endfacet
  facet normal 0 0 -1
    outer loop
      vertex -2.67912 -4.22163 0
      vertex -2.12889 4.52412 0
      vertex -2.12889 -4.52412 0
    endloop
  endfacet
  facet normal 0 0 -1
    outer loop
      vertex -2.67912 -4.22163 0
      vertex -2.67912 4.22163 0
      vertex -2.12889 4.52412 0
    endloop
  endfacet
  facet normal 0 0 -1
    outer loop
      vertex -3.18712 -3.85255 0
      vertex -2.67912 4.22163 0
      vertex -2.67912 -4.22163 0
    endloop
  endfacet
  facet normal 0 0 -1
    outer loop
      vertex -3.18712 -3.85255 0
      vertex -3.18712 3.85255 0
      vertex -2.67912 4.22163 0
    endloop
  endfacet
  facet normal 0 0 -1
    outer loop
      vertex -3.64484 -3.42273 0
      vertex -3.18712 3.85255 0
      vertex -3.18712 -3.85255 0
    endloop
  endfacet
  facet normal 0 0 -1
    outer loop
      vertex -3.64484 -3.42273 0
      vertex -3.64484 3.42273 0
      vertex -3.18712 3.85255 0
    endloop
  endfacet
  facet normal 0 0 -1
    outer loop
      vertex -4.04507 -2.93892 0
      vertex -3.64484 3.42273 0
      vertex -3.64484 -3.42273 0
    endloop
  endfacet
  facet normal 0 0 -1
    outer loop
      vertex -4.04507 -2.93892 0
      vertex -4.04507 2.93892 0
      vertex -3.64484 3.42273 0
    endloop
  endfacet
  facet normal 0 0 -1
    outer loop
      vertex -4.38153 -2.40877 0
      vertex -4.04507 2.93892 0
      vertex -4.04507 -2.93892 0
    endloop
  endfacet
  facet normal 0 0 -1
    outer loop
      vertex -4.38153 -2.40877 0
      vertex -4.38153 2.40877 0
      vertex -4.04507 2.93892 0
    endloop
  endfacet
  facet normal 0 0 -1
    outer loop
      vertex -4.64888 -1.84062 0
      vertex -4.38153 2.40877 0
      vertex -4.38153 -2.40877 0
    endloop
  endfacet
  facet normal 0 0 -1
    outer loop
      vertex -4.64888 -1.84062 0
      vertex -4.64888 1.84062 0
      vertex -4.38153 2.40877 0
    endloop
  endfacet
  facet normal 0 0 -1
    outer loop
      vertex -4.84291 -1.24344 0
      vertex -4.64888 1.84062 0
      vertex -4.64888 -1.84062 0
    endloop
  endfacet
  facet normal 0 0 -1
    outer loop
      vertex -4.84291 -1.24344 0
      vertex -4.84291 1.24344 0
      vertex -4.64888 1.84062 0
    endloop
  endfacet
  facet normal 0 0 -1
    outer loop
      vertex -4.96057 -0.626663 0
      vertex -4.84291 1.24344 0
      vertex -4.84291 -1.24344 0
    endloop
  endfacet
  facet normal 0 0 -1
    outer loop
      vertex -4.96057 -0.626663 0
      vertex -4.96057 0.626663 0
      vertex -4.84291 1.24344 0
    endloop
  endfacet
  facet normal 0 -0 -1
    outer loop
      vertex -4.96057 0.626663 0
      vertex -4.96057 -0.626663 0
      vertex -5 0 0
    endloop
  endfacet
  facet normal 0 0 1
    outer loop
      vertex 4.96057 0.626663 12
      vertex 4.96057 -0.626663 12
      vertex 5 0 12
    endloop
  endfacet
  facet normal 0 0 1
    outer loop
      vertex 4.84291 1.24344 12
      vertex 4.96057 -0.626663 12
      vertex 4.96057 0.626663 12
    endloop
  endfacet
  facet normal 0 0 1
    outer loop
      vertex 4.84291 1.24344 12
      vertex 4.84291 -1.24344 12
      vertex 4.96057 -0.626663 12
    endloop
  endfacet
  facet normal 0 0 1
    outer loop
      vertex 4.64888 1.84062 12
      vertex 4.84291 -1.24344 12
      vertex 4.84291 1.24344 12
    endloop
  endfacet
  facet normal 0 0 1
    outer loop
      vertex 4.64888 1.84062 12
      vertex 4.64888 -1.84062 12
      vertex 4.84291 -1.24344 12
    endloop
  endfacet
  facet normal 0 0 1
    outer loop
      vertex 4.38153 2.40877 12
      vertex 4.64888 -1.84062 12
      vertex 4.64888 1.84062 12
    endloop
  endfacet
  facet normal 0 0 1
    outer loop
      vertex 4.38153 2.40877 12
      vertex 4.38153 -2.40877 12
      vertex 4.64888 -1.84062 12
    endloop
  endfacet
  facet normal 0 0 1
    outer loop
      vertex 4.04507 2.93892 12
      vertex 4.38153 -2.40877 12
      vertex 4.38153 2.40877 12
    endloop
  endfacet
  facet normal 0 0 1
    outer loop
      vertex 4.04507 2.93892 12
      vertex 4.04507 -2.93892 12
      vertex 4.38153 -2.40877 12
    endloop
  endfacet
  facet normal 0 0 1
    outer loop
      vertex 3.64484 3.42273 12
      vertex 4.04507 -2.93892 12
      vertex 4.04507 2.93892 12
    endloop
  endfacet
  facet normal 0 0 1
    outer loop
      vertex 3.64484 3.42273 12
      vertex 3.64484 -3.42273 12
      vertex 4.04507 -2.93892 12
    endloop
  endfacet
  facet normal 0 0 1
    outer loop
      vertex 3.18712 3.85255 12
      vertex 3.64484 -3.42273 12
      vertex 3.64484 3.42273 12
    endloop
  endfacet
  facet normal 0 0 1
    outer loop
      vertex 3.18712 3.85255 12
      vertex 3.18712 -3.85255 12
      vertex 3.64484 -3.42273 12
    endloop
  endfacet
  facet normal 0 0 1
    outer loop
      vertex 2.67912 4.22163 12
      vertex 3.18712 -3.85255 12
      vertex 3.18712 3.85255 12
    endloop
  endfacet
  facet normal 0 0 1
    outer loop
      vertex 2.67912 4.22163 12
      vertex 2.67912 -4.22163 12
      vertex 3.18712 -3.85255 12
    endloop
  endfacet
  facet normal 0 0 1
    outer loop
      vertex 2.12889 4.52412 12
      vertex 2.67912 -4.22163 12
      vertex 2.67912 4.22163 12
    endloop
  endfacet
  facet normal 0 0 1
    outer loop
      vertex 2.12889 4.52412 12
      vertex 2.12889 -4.52412 12
      vertex 2.67912 -4.22163 12
    endloop
  endfacet
  facet normal 0 0 1
    outer loop
      vertex 1.54507 4.75528 12
      vertex 2.12889 -4.52412 12
      vertex 2.12889 4.52412 12
    endloop
  endfacet
  facet normal 0 0 1
    outer loop
      vertex 1.54507 4.75528 12
      vertex 1.54507 -4.75528 12
      vertex 2.12889 -4.52412 12
    endloop
  endfacet
  facet normal 0 0 1
    outer loop
      vertex 0.936905 4.91142 12
      vertex 1.54507 -4.75528 12
      vertex 1.54507 4.75528 12
    endloop
  endfacet
  facet normal 0 0 1
    outer loop
      vertex 0.936905 4.91142 12
      vertex 0.936905 -4.91142 12
      vertex 1.54507 -4.75528 12
    endloop
  endfacet
  facet normal 0 0 1
    outer loop
      vertex 0.31395 4.99013 12
      vertex 0.936905 -4.91142 12
      vertex 0.936905 4.91142 12
    endloop
  endfacet
  facet normal 0 0 1
    outer loop
      vertex 0.31395 4.99013 12
      vertex 0.31395 -4.99013 12
      vertex 0.936905 -4.91142 12
    endloop
  endfacet
  facet normal -0 0 1
    outer loop
      vertex -0.31395 4.99013 12
      vertex 0.31395 -4.99013 12
      vertex 0.31395 4.99013 12
    endloop
  endfacet
  facet normal 0 0 1
    outer loop
      vertex -0.31395 4.99013 12
      vertex -0.31395 -4.99013 12
      vertex 0.31395 -4.99013 12
    endloop
  endfacet
  facet normal -0 0 1
    outer loop
      vertex -0.936905 4.91142 12
      vertex -0.31395 -4.99013 12
      vertex -0.31395 4.99013 12
    endloop
  endfacet
  facet normal 0 0 1
    outer loop
      vertex -0.936905 4.91142 12
      vertex -0.936905 -4.91142 12
      vertex -0.31395 -4.99013 12
    endloop
  endfacet
  facet normal -0 0 1
    outer loop
      vertex -1.54507 4.75528 12
      vertex -0.936905 -4.91142 12
      vertex -0.936905 4.91142 12
    endloop
  endfacet
  facet normal 0 0 1
    outer loop
      vertex -1.54507 4.75528 12
      vertex -1.54507 -4.75528 12
      vertex -0.936905 -4.91142 12
    endloop
  endfacet
  facet normal -0 0 1
    outer loop
      vertex -2.12889 4.52412 12
      vertex -1.54507 -4.75528 12
      vertex -1.54507 4.75528 12
    endloop
  endfacet
  facet normal 0 0 1
    outer loop
      vertex -2.12889 4.52412 12
      vertex -2.12889 -4.52412 12
      vertex -1.54507 -4.75528 12
    endloop
  endfacet
  facet normal -0 0 1
    outer loop
      vertex -2.67912 4.22163 12
      vertex -2.12889 -4.52412 12
      vertex -2.12889 4.52412 12
    endloop
  endfacet
  facet normal 0 0 1
    outer loop
      vertex -2.67912 4.22163 12
      vertex -2.67912 -4.22163 12
      vertex -2.12889 -4.52412 12
    endloop
  endfacet
  facet normal -0 0 1
    outer loop
      vertex -3.18712 3.85255 12
      vertex -2.67912 -4.22163 12
      vertex -2.67912 4.22163 12
    endloop
  endfacet
  facet normal 0 0 1
    outer loop
      vertex -3.18712 3.85255 12
      vertex -3.18712 -3.85255 12
      vertex -2.67912 -4.22163 12
    endloop
  endfacet
  facet normal -0 0 1
    outer loop
      vertex -3.64484 3.42273 12
      vertex -3.18712 -3.85255 12
      vertex -3.18712 3.85255 12
    endloop
  endfacet
  facet normal 0 0 1
    outer loop
      vertex -3.64484 3.42273 12
      vertex -3.64484 -3.42273 12
      vertex -3.18712 -3.85255 12
    endloop
  endfacet
  facet normal -0 0 1
    outer loop
      vertex -4.04507 2.93892 12
      vertex -3.64484 -3.42273 12
      vertex -3.64484 3.42273 12
    endloop
  endfacet
  facet normal 0 0 1
    outer loop
      vertex -4.04507 2.93892 12
      vertex -4.04507 -2.93892 12
      vertex -3.64484 -3.42273 12
    endloop
  endfacet
  facet normal -0 0 1
    outer loop
      vertex -4.38153 2.40877 12
      vertex -4.04507 -2.93892 12
      vertex -4.04507 2.93892 12
    endloop
  endfacet
  facet normal 0 0 1
    outer loop
      vertex -4.38153 2.40877 12
      vertex -4.38153 -2.40877 12
      vertex -4.04507 -2.93892 12
    endloop
  endfacet
  facet normal -0 0 1
    outer loop
      vertex -4.64888 1.84062 12
      vertex -4.38153 -2.40877 12
      vertex -4.38153 2.40877 12
    endloop
  endfacet
  facet normal 0 0 1
    outer loop
      vertex -4.64888 1.84062 12
      vertex -4.64888 -1.84062 12
      vertex -4.38153 -2.40877 12
    endloop
  endfacet
  facet normal -0 0 1
    outer loop
      vertex -4.84291 1.24344 12
      vertex -4.64888 -1.84062 12
      vertex -4.64888 1.84062 12
    endloop
  endfacet
  facet normal 0 0 1
    outer loop
      vertex -4.84291 1.24344 12
      vertex -4.84291 -1.24344 12
      vertex -4.64888 -1.84062 12
    endloop
  endfacet
  facet normal -0 0 1
    outer loop
      vertex -4.96057 0.626663 12
      vertex -4.84291 -1.24344 12
      vertex -4.84291 1.24344 12
    endloop
  endfacet
  facet normal 0 0 1
    outer loop
      vertex -4.96057 0.626663 12
      vertex -4.96057 -0.626663 12
      vertex -4.84291 -1.24344 12
    endloop
  endfacet
  facet normal 0 -0 1
    outer loop
      vertex -4.96057 -0.626663 12
      vertex -4.96057 0.626663 12
      vertex -5 0 12
    endloop
  endfacet
  facet normal 0.248675 -0.968587 0
    outer loop
      vertex 0.936905 -4.91142 0
      vertex 1.54507 -4.75528 12
      vertex 0.936905 -4.91142 12
    endloop
  endfacet
  facet normal 0.248675 -0.968587 0
    outer loop
      vertex 1.54507 -4.75528 12
      vertex 0.936905 -4.91142 0
      vertex 1.54507 -4.75528 0
    endloop
  endfacet
  facet normal 0.368137 -0.929771 0
    outer loop
      vertex 1.54507 -4.75528 0
      vertex 2.12889 -4.52412 12
      vertex 1.54507 -4.75528 12
    endloop
  endfacet
  facet normal 0.368137 -0.929771 0
    outer loop
      vertex 2.12889 -4.52412 12
      vertex 1.54507 -4.75528 0
      vertex 2.12889 -4.52412 0
    endloop
  endfacet
  facet normal 0.481752 -0.876308 0
    outer loop
      vertex 2.12889 -4.52412 0
      vertex 2.67912 -4.22163 12
      vertex 2.12889 -4.52412 12
    endloop
  endfacet
  facet normal 0.481752 -0.876308 0
    outer loop
      vertex 2.67912 -4.22163 12
      vertex 2.12889 -4.52412 0
      vertex 2.67912 -4.22163 0
    endloop
  endfacet
  facet normal 0.587781 -0.80902 0
    outer loop
      vertex 2.67912 -4.22163 0
      vertex 3.18712 -3.85255 12
      vertex 2.67912 -4.22163 12
    endloop
  endfacet
  facet normal 0.587781 -0.80902 0
    outer loop
      vertex 3.18712 -3.85255 12
      vertex 2.67912 -4.22163 0
      vertex 3.18712 -3.85255 0
    endloop
  endfacet
  facet normal 0.684541 -0.728975 0
    outer loop
      vertex 3.18712 -3.85255 0
      vertex 3.64484 -3.42273 12
      vertex 3.18712 -3.85255 12
    endloop
  endfacet
  facet normal 0.684541 -0.728975 0
    outer loop
      vertex 3.64484 -3.42273 12
      vertex 3.18712 -3.85255 0
      vertex 3.64484 -3.42273 0
    endloop
  endfacet
  facet normal 0.770523 -0.637412 0
    outer loop
      vertex 3.64484 -3.42273 12
      vertex 4.04507 -2.93892 0
      vertex 4.04507 -2.93892 12
    endloop
  endfacet
  facet normal 0.770523 -0.637412 0
    outer loop
      vertex 4.04507 -2.93892 0
      vertex 3.64484 -3.42273 12
      vertex 3.64484 -3.42273 0
    endloop
  endfacet
  facet normal 0.844316 -0.535846 0
    outer loop
      vertex 4.04507 -2.93892 12
      vertex 4.38153 -2.40877 0
      vertex 4.38153 -2.40877 12
    endloop
  endfacet
  facet normal 0.844316 -0.535846 0
    outer loop
      vertex 4.38153 -2.40877 0
      vertex 4.04507 -2.93892 12
      vertex 4.04507 -2.93892 0
    endloop
  endfacet
  facet normal 0.904828 -0.425778 0
    outer loop
      vertex 4.38153 -2.40877 12
      vertex 4.64888 -1.84062 0
      vertex 4.64888 -1.84062 12
    endloop
  endfacet
  facet normal 0.904828 -0.425778 0
    outer loop
      vertex 4.64888 -1.84062 0
      vertex 4.38153 -2.40877 12
      vertex 4.38153 -2.40877 0
    endloop
  endfacet
  facet normal 0.951059 -0.309009 0
    outer loop
      vertex 4.64888 -1.84062 12
      vertex 4.84291 -1.24344 0
      vertex 4.84291 -1.24344 12
    endloop
  endfacet
  facet normal 0.951059 -0.309009 0
    outer loop
      vertex 4.84291 -1.24344 0
      vertex 4.64888 -1.84062 12
      vertex 4.64888 -1.84062 0
    endloop
  endfacet
  facet normal 0.982286 -0.187387 0
    outer loop
      vertex 4.84291 -1.24344 12
      vertex 4.96057 -0.626663 0
      vertex 4.96057 -0.626663 12
    endloop
  endfacet
  facet normal 0.982286 -0.187387 0
    outer loop
      vertex 4.96057 -0.626663 0
      vertex 4.84291 -1.24344 12
      vertex 4.84291 -1.24344 0
    endloop
  endfacet
  facet normal 0.998026 -0.0627964 0
    outer loop
      vertex 4.96057 -0.626663 12
      vertex 5 0 0
      vertex 5 0 12
    endloop
  endfacet
  facet normal 0.998026 -0.0627964 0
    outer loop
      vertex 5 0 0
      vertex 4.96057 -0.626663 12
      vertex 4.96057 -0.626663 0
    endloop
  endfacet
  facet normal 0.998026 0.0627964 0
    outer loop
      vertex 5 0 12
      vertex 4.96057 0.626663 0
      vertex 4.96057 0.626663 12
    endloop
  endfacet
  facet normal 0.998026 0.0627964 0
    outer loop
      vertex 4.96057 0.626663 0
      vertex 5 0 12
      vertex 5 0 0
    endloop
  endfacet
  facet normal 0.982286 0.187387 0
    outer loop
      vertex 4.96057 0.626663 12
      vertex 4.84291 1.24344 0
      vertex 4.84291 1.24344 12
    endloop
  endfacet
  facet normal 0.982286 0.187387 0
    outer loop
      vertex 4.84291 1.24344 0
      vertex 4.96057 0.626663 12
      vertex 4.96057 0.626663 0
    endloop
  endfacet
  facet normal 0.951059 0.309009 0
    outer loop
      vertex 4.84291 1.24344 12
      vertex 4.64888 1.84062 0
      vertex 4.64888 1.84062 12
    endloop
  endfacet
  facet normal 0.951059 0.309009 0
    outer loop
      vertex 4.64888 1.84062 0
      vertex 4.84291 1.24344 12
      vertex 4.84291 1.24344 0
    endloop
  endfacet
  facet normal 0.904828 0.425778 0
    outer loop
      vertex 4.64888 1.84062 12
      vertex 4.38153 2.40877 0
      vertex 4.38153 2.40877 12
    endloop
  endfacet
  facet normal 0.904828 0.425778 0
    outer loop
      vertex 4.38153 2.40877 0
      vertex 4.64888 1.84062 12
      vertex 4.64888 1.84062 0
    endloop
  endfacet
  facet normal 0.844316 0.535846 0
    outer loop
      vertex 4.38153 2.40877 12
      vertex 4.04507 2.93892 0
      vertex 4.04507 2.93892 12
    endloop
  endfacet
  facet normal 0.844316 0.535846 0
    outer loop
      vertex 4.04507 2.93892 0
      vertex 4.38153 2.40877 12
      vertex 4.38153 2.40877 0
    endloop
  endfacet
  facet normal 0.770523 0.637412 0
    outer loop
      vertex 4.04507 2.93892 12
      vertex 3.64484 3.42273 0
      vertex 3.64484 3.42273 12
    endloop
  endfacet
  facet normal 0.770523 0.637412 0
    outer loop
      vertex 3.64484 3.42273 0
      vertex 4.04507 2.93892 12
      vertex 4.04507 2.93892 0
    endloop
  endfacet
  facet normal 0.684541 0.728975 -0
    outer loop
      vertex 3.64484 3.42273 0
      vertex 3.18712 3.85255 12
      vertex 3.64484 3.42273 12
    endloop
  endfacet
  facet normal 0.684541 0.728975 0
    outer loop
      vertex 3.18712 3.85255 12
      vertex 3.64484 3.42273 0
      vertex 3.18712 3.85255 0
    endloop
  endfacet
  facet normal 0.587781 0.80902 -0
    outer loop
      vertex 3.18712 3.85255 0
      vertex 2.67912 4.22163 12
      vertex 3.18712 3.85255 12
    endloop
  endfacet
  facet normal 0.587781 0.80902 0
    outer loop
      vertex 2.67912 4.22163 12
      vertex 3.18712 3.85255 0
      vertex 2.67912 4.22163 0
    endloop
  endfacet
  facet normal 0.481752 0.876308 -0
    outer loop
      vertex 2.67912 4.22163 0
      vertex 2.12889 4.52412 12
      vertex 2.67912 4.22163 12
    endloop
  endfacet
  facet normal 0.481752 0.876308 0
    outer loop
      vertex 2.12889 4.52412 12
      vertex 2.67912 4.22163 0
      vertex 2.12889 4.52412 0
    endloop
  endfacet
  facet normal 0.368137 0.929771 -0
    outer loop
      vertex 2.12889 4.52412 0
      vertex 1.54507 4.75528 12
      vertex 2.12889 4.52412 12
    endloop
  endfacet
  facet normal 0.368137 0.929771 0
    outer loop
      vertex 1.54507 4.75528 12
      vertex 2.12889 4.52412 0
      vertex 1.54507 4.75528 0
    endloop
  endfacet
  facet normal 0.248675 0.968587 -0
    outer loop
      vertex 1.54507 4.75528 0
      vertex 0.936905 4.91142 12
      vertex 1.54507 4.75528 12
    endloop
  endfacet
  facet normal 0.248675 0.968587 0
    outer loop
      vertex 0.936905 4.91142 12
      vertex 1.54507 4.75528 0
      vertex 0.936905 4.91142 0
    endloop
  endfacet
  facet normal 0.125353 0.992112 -0
    outer loop
      vertex 0.936905 4.91142 0
      vertex 0.31395 4.99013 12
      vertex 0.936905 4.91142 12
    endloop
  endfacet
  facet normal 0.125353 0.992112 0
    outer loop
      vertex 0.31395 4.99013 12
      vertex 0.936905 4.91142 0
      vertex 0.31395 4.99013 0
    endloop
  endfacet
  facet normal 0 1 -0
    outer loop
      vertex 0.31395 4.99013 0
      vertex -0.31395 4.99013 12
      vertex 0.31395 4.99013 12
    endloop
  endfacet
  facet normal 0 1 0
    outer loop
      vertex -0.31395 4.99013 12
      vertex 0.31395 4.99013 0
      vertex -0.31395 4.99013 0
    endloop
  endfacet
  facet normal -0.125353 0.992112 0
    outer loop
      vertex -0.31395 4.99013 0
      vertex -0.936905 4.91142 12
      vertex -0.31395 4.99013 12
    endloop
  endfacet
  facet normal -0.125353 0.992112 0
    outer loop
      vertex -0.936905 4.91142 12
      vertex -0.31395 4.99013 0
      vertex -0.936905 4.91142 0
    endloop
  endfacet
  facet normal -0.248675 0.968587 0
    outer loop
      vertex -0.936905 4.91142 0
      vertex -1.54507 4.75528 12
      vertex -0.936905 4.91142 12
    endloop
  endfacet
  facet normal -0.248675 0.968587 0
    outer loop
      vertex -1.54507 4.75528 12
      vertex -0.936905 4.91142 0
      vertex -1.54507 4.75528 0
    endloop
  endfacet
  facet normal -0.368137 0.929771 0
    outer loop
      vertex -1.54507 4.75528 0
      vertex -2.12889 4.52412 12
      vertex -1.54507 4.75528 12
    endloop
  endfacet
  facet normal -0.368137 0.929771 0
    outer loop
      vertex -2.12889 4.52412 12
      vertex -1.54507 4.75528 0
      vertex -2.12889 4.52412 0
    endloop
  endfacet
  facet normal -0.481752 0.876308 0
    outer loop
      vertex -2.12889 4.52412 0
      vertex -2.67912 4.22163 12
      vertex -2.12889 4.52412 12
    endloop
  endfacet
  facet normal -0.481752 0.876308 0
    outer loop
      vertex -2.67912 4.22163 12
      vertex -2.12889 4.52412 0
      vertex -2.67912 4.22163 0
    endloop
  endfacet
  facet normal -0.587781 0.80902 0
    outer loop
      vertex -2.67912 4.22163 0
      vertex -3.18712 3.85255 12
      vertex -2.67912 4.22163 12
    endloop
  endfacet
  facet normal -0.587781 0.80902 0
    outer loop
      vertex -3.18712 3.85255 12
      vertex -2.67912 4.22163 0
      vertex -3.18712 3.85255 0
    endloop
  endfacet
  facet normal -0.684541 0.728975 0
    outer loop
      vertex -3.18712 3.85255 0
      vertex -3.64484 3.42273 12
      vertex -3.18712 3.85255 12
    endloop
  endfacet
  facet normal -0.684541 0.728975 0
    outer loop
      vertex -3.64484 3.42273 12
      vertex -3.18712 3.85255 0
      vertex -3.64484 3.42273 0
    endloop
  endfacet
  facet normal -0.770523 0.637412 0
    outer loop
      vertex -4.04507 2.93892 0
      vertex -3.64484 3.42273 12
      vertex -3.64484 3.42273 0
    endloop
  endfacet
  facet normal -0.770523 0.637412 0
    outer loop
      vertex -3.64484 3.42273 12
      vertex -4.04507 2.93892 0
      vertex -4.04507 2.93892 12
    endloop
  endfacet
  facet normal -0.844316 0.535846 0
    outer loop
      vertex -4.38153 2.40877 0
      vertex -4.04507 2.93892 12
      vertex -4.04507 2.93892 0
    endloop
  endfacet
  facet normal -0.844316 0.535846 0
    outer loop
      vertex -4.04507 2.93892 12
      vertex -4.38153 2.40877 0
      vertex -4.38153 2.40877 12
    endloop
  endfacet
  facet normal -0.904828 0.425778 0
    outer loop
      vertex -4.64888 1.84062 0
      vertex -4.38153 2.40877 12
      vertex -4.38153 2.40877 0
    endloop
  endfacet
  facet normal -0.904828 0.425778 0
    outer loop
      vertex -4.38153 2.40877 12
      vertex -4.64888 1.84062 0
      vertex -4.64888 1.84062 12
    endloop
  endfacet
  facet normal -0.951059 0.309009 0
    outer loop
      vertex -4.84291 1.24344 0
      vertex -4.64888 1.84062 12
      vertex -4.64888 1.84062 0
    endloop
  endfacet
  facet normal -0.951059 0.309009 0
    outer loop
      vertex -4.64888 1.84062 12
      vertex -4.84291 1.24344 0
      vertex -4.84291 1.24344 12
    endloop
  endfacet
  facet normal -0.982286 0.187387 0
    outer loop
      vertex -4.96057 0.626663 0
      vertex -4.84291 1.24344 12
      vertex -4.84291 1.24344 0
    endloop
  endfacet
  facet normal -0.982286 0.187387 0
    outer loop
      vertex -4.84291 1.24344 12
      vertex -4.96057 0.626663 0
      vertex -4.96057 0.626663 12
    endloop
  endfacet
  facet normal -0.998026 0.0627964 0
    outer loop
      vertex -5 0 0
      vertex -4.96057 0.626663 12
      vertex -4.96057 0.626663 0
    endloop
  endfacet
  facet normal -0.998026 0.0627964 0
    outer loop
      vertex -4.96057 0.626663 12
      vertex -5 0 0
      vertex -5 0 12
    endloop
  endfacet
  facet normal -0.998026 -0.0627964 0
    outer loop
      vertex -4.96057 -0.626663 0
      vertex -5 0 12
      vertex -5 0 0
    endloop
  endfacet
  facet normal -0.998026 -0.0627964 0
    outer loop
      vertex -5 0 12
      vertex -4.96057 -0.626663 0
      vertex -4.96057 -0.626663 12
    endloop
  endfacet
  facet normal -0.982286 -0.187387 0
    outer loop
      vertex -4.84291 -1.24344 0
      vertex -4.96057 -0.626663 12
      vertex -4.96057 -0.626663 0
    endloop
  endfacet
  facet normal -0.982286 -0.187387 0
    outer loop
      vertex -4.96057 -0.626663 12
      vertex -4.84291 -1.24344 0
      vertex -4.84291 -1.24344 12
    endloop
  endfacet
  facet normal -0.951059 -0.309009 0
    outer loop
      vertex -4.64888 -1.84062 0
      vertex -4.84291 -1.24344 12
      vertex -4.84291 -1.24344 0
    endloop
  endfacet
  facet normal -0.951059 -0.309009 0
    outer loop
      vertex -4.84291 -1.24344 12
      vertex -4.64888 -1.84062 0
      vertex -4.64888 -1.84062 12
    endloop
  endfacet
  facet normal -0.904828 -0.425778 0
    outer loop
      vertex -4.38153 -2.40877 0
      vertex -4.64888 -1.84062 12
      vertex -4.64888 -1.84062 0
    endloop
  endfacet
  facet normal -0.904828 -0.425778 0
    outer loop
      vertex -4.64888 -1.84062 12
      vertex -4.38153 -2.40877 0
      vertex -4.38153 -2.40877 12
    endloop
  endfacet
  facet normal -0.844316 -0.535846 0
    outer loop
      vertex -4.04507 -2.93892 0
      vertex -4.38153 -2.40877 12
      vertex -4.38153 -2.40877 0
    endloop
  endfacet
  facet normal -0.844316 -0.535846 0
    outer loop
      vertex -4.38153 -2.40877 12
      vertex -4.04507 -2.93892 0
      vertex -4.04507 -2.93892 12
    endloop
  endfacet
  facet normal -0.770523 -0.637412 0
    outer loop
      vertex -3.64484 -3.42273 0
      vertex -4.04507 -2.93892 12
      vertex -4.04507 -2.93892 0
    endloop
  endfacet
  facet normal -0.770523 -0.637412 0
    outer loop
      vertex -4.04507 -2.93892 12
      vertex -3.64484 -3.42273 0
      vertex -3.64484 -3.42273 12
    endloop
  endfacet
  facet normal -0.684541 -0.728975 0
    outer loop
      vertex -3.64484 -3.42273 0
      vertex -3.18712 -3.85255 12
      vertex -3.64484 -3.42273 12
    endloop
  endfacet
  facet normal -0.684541 -0.728975 -0
    outer loop
      vertex -3.18712 -3.85255 12
      vertex -3.64484 -3.42273 0
      vertex -3.18712 -3.85255 0
    endloop
  endfacet
  facet normal -0.587781 -0.80902 0
    outer loop
      vertex -3.18712 -3.85255 0
      vertex -2.67912 -4.22163 12
      vertex -3.18712 -3.85255 12
    endloop
  endfacet
  facet normal -0.587781 -0.80902 -0
    outer loop
      vertex -2.67912 -4.22163 12
      vertex -3.18712 -3.85255 0
      vertex -2.67912 -4.22163 0
    endloop
  endfacet
  facet normal -0.481752 -0.876308 0
    outer loop
      vertex -2.67912 -4.22163 0
      vertex -2.12889 -4.52412 12
      vertex -2.67912 -4.22163 12
    endloop
  endfacet
  facet normal -0.481752 -0.876308 -0
    outer loop
      vertex -2.12889 -4.52412 12
      vertex -2.67912 -4.22163 0
      vertex -2.12889 -4.52412 0
    endloop
  endfacet
  facet normal -0.368137 -0.929771 0
    outer loop
      vertex -2.12889 -4.52412 0
      vertex -1.54507 -4.75528 12
      vertex -2.12889 -4.52412 12
    endloop
  endfacet
  facet normal -0.368137 -0.929771 -0
    outer loop
      vertex -1.54507 -4.75528 12
      vertex -2.12889 -4.52412 0
      vertex -1.54507 -4.75528 0
    endloop
  endfacet
  facet normal -0.248675 -0.968587 0
    outer loop
      vertex -1.54507 -4.75528 0
      vertex -0.936905 -4.91142 12
      vertex -1.54507 -4.75528 12
    endloop
  endfacet
  facet normal -0.248675 -0.968587 -0
    outer loop
      vertex -0.936905 -4.91142 12
      vertex -1.54507 -4.75528 0
      vertex -0.936905 -4.91142 0
    endloop
  endfacet
  facet normal -0.125353 -0.992112 0
    outer loop
      vertex -0.936905 -4.91142 0
      vertex -0.31395 -4.99013 12
      vertex -0.936905 -4.91142 12
    endloop
  endfacet
  facet normal -0.125353 -0.992112 -0
    outer loop
      vertex -0.31395 -4.99013 12
      vertex -0.936905 -4.91142 0
      vertex -0.31395 -4.99013 0
    endloop
  endfacet
  facet normal 0 -1 0
    outer loop
      vertex -0.31395 -4.99013 0
      vertex 0.31395 -4.99013 12
      vertex -0.31395 -4.99013 12
    endloop
  endfacet
  facet normal 0 -1 -0
    outer loop
      vertex 0.31395 -4.99013 12
      vertex -0.31395 -4.99013 0
      vertex 0.31395 -4.99013 0
    endloop
  endfacet
  facet normal 0.125353 -0.992112 0
    outer loop
      vertex 0.31395 -4.99013 0
      vertex 0.936905 -4.91142 12
      vertex 0.31395 -4.99013 12
    endloop
  endfacet
  facet normal 0.125353 -0.992112 0
    outer loop
      vertex 0.936905 -4.91142 12
      vertex 0.31395 -4.99013 0
      vertex 0.936905 -4.91142 0
    endloop
  endfacet
endsolid OpenSCAD_Model
