solid OpenSCAD_Model
  facet normal 0 0 -1
    outer loop
      vertex 4.84291 -1.24344 0
      vertex 4.84291 1.24344 0
      vertex 5 0 0
    endloop
  endfacet
  facet normal 0 0 -1
    outer loop
      vertex 4.38153 -2.40877 0
      vertex 4.84291 1.24344 0
      vertex 4.84291 -1.24344 0
    endloop
  endfacet
  facet normal 0 0 -1
    outer loop
      vertex 4.38153 -2.40877 0
      vertex 4.38153 2.40877 0
      vertex 4.84291 1.24344 0
    endloop
  endfacet
  facet normal 0 0 -1
    outer loop
      vertex 3.64484 -3.42273 0
      vertex 4.38153 2.40877 0
      vertex 4.38153 -2.40877 0
    endloop
  endfacet
  facet normal 0 0 -1
    outer loop
      vertex 3.64484 -3.42273 0
      vertex 3.64484 3.42273 0
      vertex 4.38153 2.40877 0
    endloop
  endfacet
  facet normal 0 0 -1
    outer loop
      vertex 2.67912 -4.22163 0
      vertex 3.64484 3.42273 0
      vertex 3.64484 -3.42273 0
    endloop
  endfacet
  facet normal 0 0 -1
    outer loop
      vertex 2.67912 -4.22163 0
      vertex 2.67912 4.22163 0
      vertex 3.64484 3.42273 0
    endloop
  endfacet
  facet normal 0 0 -1
    outer loop
      vertex 1.54507 -4.75528 0
      vertex 2.67912 4.22163 0
      vertex 2.67912 -4.22163 0
    endloop
  endfacet
  facet normal 0 0 -1
    outer loop
      vertex 1.54507 -4.75528 0
      vertex 1.54507 4.75528 0
      vertex 2.67912 4.22163 0
    endloop
  endfacet
  facet normal 0 0 -1
    outer loop
      vertex 0.31395 -4.99013 0
      vertex 1.54507 4.75528 0
      vertex 1.54507 -4.75528 0
    endloop
  endfacet
  facet normal 0 0 -1
    outer loop
      vertex 0.31395 -4.99013 0
      vertex 0.31395 4.99013 0
      vertex 1.54507 4.75528 0
    endloop
  endfacet
  facet normal 0 0 -1
    outer loop
      vertex -0.936905 -4.91142 0
      vertex 0.31395 4.99013 0
      vertex 0.31395 -4.99013 0
    endloop
  endfacet
  facet normal 0 0 -1
    outer loop
      vertex -0.936905 -4.91142 0
      vertex -0.936905 4.91142 0
      vertex 0.31395 4.99013 0
    endloop
  endfacet
  facet normal 0 0 -1
    outer loop
      vertex -2.12889 -4.52412 0
      vertex -0.936905 4.91142 0
      vertex -0.936905 -4.91142 0
    endloop
  endfacet
  facet normal 0 0 -1
    outer loop
      vertex -2.12889 -4.52412 0
      vertex -2.12889 4.52412 0
      vertex -0.936905 4.91142 0
    endloop
  endfacet
  facet normal 0 0 -1
    outer loop
      vertex -3.18712 -3.85255 0
      vertex -2.12889 4.52412 0
      vertex -2.12889 -4.52412 0
    endloop
  endfacet
  facet normal 0 0 -1
    outer loop
      vertex -3.18712 -3.85255 0
      vertex -3.18712 3.85255 0
      vertex -2.12889 4.52412 0
    endloop
  endfacet
  facet normal 0 0 -1
    outer loop
      vertex -4.04507 -2.93892 0
      vertex -3.18712 3.85255 0
      vertex -3.18712 -3.85255 0
    endloop
  endfacet
  facet normal 0 0 -1
    outer loop
      vertex -4.04507 -2.93892 0
      vertex -4.04507 2.93892 0
      vertex -3.18712 3.85255 0
    endloop
  endfacet
  facet normal 0 0 -1
    outer loop
      vertex -4.64888 -1.84062 0
      vertex -4.04507 2.93892 0
      vertex -4.04507 -2.93892 0
    endloop
  endfacet
  facet normal 0 0 -1
    outer loop
      vertex -4.64888 -1.84062 0
      vertex -4.64888 1.84062 0
      vertex -4.04507 2.93892 0
    endloop
  endfacet
  facet normal 0 0 -1
    outer loop
      vertex -4.96057 -0.626663 0
      vertex -4.64888 1.84062 0
      vertex -4.64888 -1.84062 0
    endloop
  endfacet
  facet normal 0 0 -1
    outer loop
      vertex -4.64888 1.84062 0
      vertex -4.96057 -0.626663 0
      vertex -4.96057 0.626663 0
    endloop
  endfacet
  facet normal 0 0 1
    outer loop
      vertex 4.84291 1.24344 12
      vertex 4.84291 -1.24344 12
      vertex 5 0 12
    endloop
  endfacet
  facet normal 0 0 1
    outer loop
      vertex 4.38153 2.40877 12
      vertex 4.84291 -1.24344 12
      vertex 4.84291 1.24344 12
    endloop
  endfacet
  facet normal 0 0 1
    outer loop
      vertex 4.38153 2.40877 12
      vertex 4.38153 -2.40877 12
      vertex 4.84291 -1.24344 12
    endloop
  endfacet
  facet normal 0 0 1
    outer loop
      vertex 3.64484 3.42273 12
      vertex 4.38153 -2.40877 12
      vertex 4.38153 2.40877 12
    endloop
  endfacet
  facet normal 0 0 1
    outer loop
      vertex 3.64484 3.42273 12
      vertex 3.64484 -3.42273 12
      vertex 4.38153 -2.40877 12
    endloop
  endfacet
  facet normal 0 0 1
    outer loop
      vertex 2.67912 4.22163 12
      vertex 3.64484 -3.42273 12
      vertex 3.64484 3.42273 12
    endloop
  endfacet
  facet normal 0 0 1
    outer loop
      vertex 2.67912 4.22163 12
      vertex 2.67912 -4.22163 12
      vertex 3.64484 -3.42273 12
    endloop
  endfacet
  facet normal 0 0 1
    outer loop
      vertex 1.54507 4.75528 12
      vertex 2.67912 -4.22163 12
      vertex 2.67912 4.22163 12
    endloop
  endfacet
  facet normal 0 0 1
    outer loop
      vertex 1.54507 4.75528 12
      vertex 1.54507 -4.75528 12
      vertex 2.67912 -4.22163 12
    endloop
  endfacet
  facet normal 0 0 1
    outer loop
      vertex 0.31395 4.99013 12
      vertex 1.54507 -4.75528 12
      vertex 1.54507 4.75528 12
    endloop
  endfacet
  facet normal 0 0 1
    outer loop
      vertex 0.31395 4.99013 12
      vertex 0.31395 -4.99013 12
      vertex 1.54507 -4.75528 12
    endloop
  endfacet
  facet normal -0 0 1
    outer loop
      vertex -0.936905 4.91142 12
      vertex 0.31395 -4.99013 12
      vertex 0.31395 4.99013 12
    endloop
  endfacet
  facet normal 0 0 1
    outer loop
      vertex -0.936905 4.91142 12
      vertex -0.936905 -4.91142 12
      vertex 0.31395 -4.99013 12
    endloop
  endfacet
  facet normal -0 0 1
    outer loop
      vertex -2.12889 4.52412 12
      vertex -0.936905 -4.91142 12
      vertex -0.936905 4.91142 12
    endloop
  endfacet
  facet normal 0 0 1
    outer loop
      vertex -2.12889 4.52412 12
      vertex -2.12889 -4.52412 12
      vertex -0.936905 -4.91142 12
    endloop
  endfacet
  facet normal -0 0 1
    outer loop
      vertex -3.18712 3.85255 12
      vertex -2.12889 -4.52412 12
      vertex -2.12889 4.52412 12
    endloop
  endfacet
  facet normal 0 0 1
    outer loop
      vertex -3.18712 3.85255 12
      vertex -3.18712 -3.85255 12
      vertex -2.12889 -4.52412 12
    endloop
  endfacet
  facet normal -0 0 1
    outer loop
      vertex -4.04507 2.93892 12
      vertex -3.18712 -3.85255 12
      vertex -3.18712 3.85255 12
    endloop
  endfacet
  facet normal 0 0 1
    outer loop
      vertex -4.04507 2.93892 12
      vertex -4.04507 -2.93892 12
      vertex -3.18712 -3.85255 12
    endloop
  endfacet
  facet normal -0 0 1
    outer loop
      vertex -4.64888 1.84062 12
      vertex -4.04507 -2.93892 12
      vertex -4.04507 2.93892 12
    endloop
  endfacet
  facet normal 0 0 1
    outer loop
      vertex -4.64888 1.84062 12
      vertex -4.64888 -1.84062 12
      vertex -4.04507 -2.93892 12
    endloop
  endfacet
  facet normal -0 0 1
    outer loop
      vertex -4.96057 0.626663 12
      vertex -4.64888 -1.84062 12
      vertex -4.64888 1.84062 12
    endloop
  endfacet
  facet normal 0 0 1
    outer loop
      vertex -4.64888 -1.84062 12
      vertex -4.96057 0.626663 12
      vertex -4.96057 -0.626663 12
    endloop
  endfacet
  facet normal 0.425784 -0.904825 0
    outer loop
      vertex 1.54507 -4.75528 0
      vertex 2.67912 -4.22163 12
      vertex 1.54507 -4.75528 12
    endloop
  endfacet
  facet normal 0.425784 -0.904825 0
    outer loop
      vertex 2.67912 -4.22163 12
      vertex 1.54507 -4.75528 0
      vertex 2.67912 -4.22163 0
    endloop
  endfacet
  facet normal 0.637418 -0.770518 0
    outer loop
      vertex 2.67912 -4.22163 0
      vertex 3.64484 -3.42273 12
      vertex 2.67912 -4.22163 12
    endloop
  endfacet
  facet normal 0.637418 -0.770518 0
    outer loop
      vertex 3.64484 -3.42273 12
      vertex 2.67912 -4.22163 0
      vertex 3.64484 -3.42273 0
    endloop
  endfacet
  facet normal 0.809015 -0.587788 0
    outer loop
      vertex 3.64484 -3.42273 12
      vertex 4.38153 -2.40877 0
      vertex 4.38153 -2.40877 12
    endloop
  endfacet
  facet normal 0.809015 -0.587788 0
    outer loop
      vertex 4.38153 -2.40877 0
      vertex 3.64484 -3.42273 12
      vertex 3.64484 -3.42273 0
    endloop
  endfacet
  facet normal 0.929778 -0.36812 0
    outer loop
      vertex 4.38153 -2.40877 12
      vertex 4.84291 -1.24344 0
      vertex 4.84291 -1.24344 12
    endloop
  endfacet
  facet normal 0.929778 -0.36812 0
    outer loop
      vertex 4.84291 -1.24344 0
      vertex 4.38153 -2.40877 12
      vertex 4.38153 -2.40877 0
    endloop
  endfacet
  facet normal 0.992114 -0.125339 0
    outer loop
      vertex 4.84291 -1.24344 12
      vertex 5 0 0
      vertex 5 0 12
    endloop
  endfacet
  facet normal 0.992114 -0.125339 0
    outer loop
      vertex 5 0 0
      vertex 4.84291 -1.24344 12
      vertex 4.84291 -1.24344 0
    endloop
  endfacet
  facet normal 0.992114 0.125339 0
    outer loop
      vertex 5 0 12
      vertex 4.84291 1.24344 0
      vertex 4.84291 1.24344 12
    endloop
  endfacet
  facet normal 0.992114 0.125339 0
    outer loop
      vertex 4.84291 1.24344 0
      vertex 5 0 12
      vertex 5 0 0
    endloop
  endfacet
  facet normal 0.929778 0.36812 0
    outer loop
      vertex 4.84291 1.24344 12
      vertex 4.38153 2.40877 0
      vertex 4.38153 2.40877 12
    endloop
  endfacet
  facet normal 0.929778 0.36812 0
    outer loop
      vertex 4.38153 2.40877 0
      vertex 4.84291 1.24344 12
      vertex 4.84291 1.24344 0
    endloop
  endfacet
  facet normal 0.809015 0.587788 0
    outer loop
      vertex 4.38153 2.40877 12
      vertex 3.64484 3.42273 0
      vertex 3.64484 3.42273 12
    endloop
  endfacet
  facet normal 0.809015 0.587788 0
    outer loop
      vertex 3.64484 3.42273 0
      vertex 4.38153 2.40877 12
      vertex 4.38153 2.40877 0
    endloop
  endfacet
  facet normal 0.637418 0.770518 -0
    outer loop
      vertex 3.64484 3.42273 0
      vertex 2.67912 4.22163 12
      vertex 3.64484 3.42273 12
    endloop
  endfacet
  facet normal 0.637418 0.770518 0
    outer loop
      vertex 2.67912 4.22163 12
      vertex 3.64484 3.42273 0
      vertex 2.67912 4.22163 0
    endloop
  endfacet
  facet normal 0.425784 0.904825 -0
    outer loop
      vertex 2.67912 4.22163 0
      vertex 1.54507 4.75528 12
      vertex 2.67912 4.22163 12
    endloop
  endfacet
  facet normal 0.425784 0.904825 0
    outer loop
      vertex 1.54507 4.75528 12
      vertex 2.67912 4.22163 0
      vertex 1.54507 4.75528 0
    endloop
  endfacet
  facet normal 0.187382 0.982287 -0
    outer loop
      vertex 1.54507 4.75528 0
      vertex 0.31395 4.99013 12
      vertex 1.54507 4.75528 12
    endloop
  endfacet
  facet normal 0.187382 0.982287 0
    outer loop
      vertex 0.31395 4.99013 12
      vertex 1.54507 4.75528 0
      vertex 0.31395 4.99013 0
    endloop
  endfacet
  facet normal -0.0628008 0.998026 0
    outer loop
      vertex 0.31395 4.99013 0
      vertex -0.936905 4.91142 12
      vertex 0.31395 4.99013 12
    endloop
  endfacet
  facet normal -0.0628008 0.998026 0
    outer loop
      vertex -0.936905 4.91142 12
      vertex 0.31395 4.99013 0
      vertex -0.936905 4.91142 0
    endloop
  endfacet
  facet normal -0.309017 0.951056 0
    outer loop
      vertex -0.936905 4.91142 0
      vertex -2.12889 4.52412 12
      vertex -0.936905 4.91142 12
    endloop
  endfacet
  facet normal -0.309017 0.951056 0
    outer loop
      vertex -2.12889 4.52412 12
      vertex -0.936905 4.91142 0
      vertex -2.12889 4.52412 0
    endloop
  endfacet
  facet normal -0.535825 0.844329 0
    outer loop
      vertex -2.12889 4.52412 0
      vertex -3.18712 3.85255 12
      vertex -2.12889 4.52412 12
    endloop
  endfacet
  facet normal -0.535825 0.844329 0
    outer loop
      vertex -3.18712 3.85255 12
      vertex -2.12889 4.52412 0
      vertex -3.18712 3.85255 0
    endloop
  endfacet
  facet normal -0.728971 0.684545 0
    outer loop
      vertex -4.04507 2.93892 0
      vertex -3.18712 3.85255 12
      vertex -3.18712 3.85255 0
    endloop
  endfacet
  facet normal -0.728971 0.684545 0
    outer loop
      vertex -3.18712 3.85255 12
      vertex -4.04507 2.93892 0
      vertex -4.04507 2.93892 12
    endloop
  endfacet
  facet normal -0.876302 0.481763 0
    outer loop
      vertex -4.64888 1.84062 0
      vertex -4.04507 2.93892 12
      vertex -4.04507 2.93892 0
    endloop
  endfacet
  facet normal -0.876302 0.481763 0
    outer loop
      vertex -4.04507 2.93892 12
      vertex -4.64888 1.84062 0
      vertex -4.64888 1.84062 12
    endloop
  endfacet
  facet normal -0.968583 0.248689 0
    outer loop
      vertex -4.96057 0.626663 0
      vertex -4.64888 1.84062 12
      vertex -4.64888 1.84062 0
    endloop
  endfacet
  facet normal -0.968583 0.248689 0
    outer loop
      vertex -4.64888 1.84062 12
      vertex -4.96057 0.626663 0
      vertex -4.96057 0.626663 12
    endloop
  endfacet
  facet normal -1 0 0
    outer loop
      vertex -4.96057 -0.626663 0
      vertex -4.96057 0.626663 12
      vertex -4.96057 0.626663 0
    endloop
  endfacet
  facet normal -1 -0 0
    outer loop
      vertex -4.96057 0.626663 12
      vertex -4.96057 -0.626663 0
      vertex -4.96057 -0.626663 12
    endloop
  endfacet
  facet normal -0.968583 -0.248689 0
    outer loop
      vertex -4.64888 -1.84062 0
      vertex -4.96057 -0.626663 12
      vertex -4.96057 -0.626663 0
    endloop
  endfacet
  facet normal -0.968583 -0.248689 0
    outer loop
      vertex -4.96057 -0.626663 12
      vertex -4.64888 -1.84062 0
      vertex -4.64888 -1.84062 12
    endloop
  endfacet
  facet normal -0.876302 -0.481763 0
    outer loop
      vertex -4.04507 -2.93892 0
      vertex -4.64888 -1.84062 12
      vertex -4.64888 -1.84062 0
    endloop
  endfacet
  facet normal -0.876302 -0.481763 0
    outer loop
      vertex -4.64888 -1.84062 12
      vertex -4.04507 -2.93892 0
      vertex -4.04507 -2.93892 12
    endloop
  endfacet
  facet normal -0.728971 -0.684545 0
    outer loop
      vertex -3.18712 -3.85255 0
      vertex -4.04507 -2.93892 12
      vertex -4.04507 -2.93892 0
    endloop
  endfacet
  facet normal -0.728971 -0.684545 0
    outer loop
      vertex -4.04507 -2.93892 12
      vertex -3.18712 -3.85255 0
      vertex -3.18712 -3.85255 12
    endloop
  endfacet
  facet normal -0.535825 -0.844329 0
    outer loop
      vertex -3.18712 -3.85255 0
      vertex -2.12889 -4.52412 12
      vertex -3.18712 -3.85255 12
    endloop
  endfacet
  facet normal -0.535825 -0.844329 -0
    outer loop
      vertex -2.12889 -4.52412 12
      vertex -3.18712 -3.85255 0
      vertex -2.12889 -4.52412 0
    endloop
  endfacet
  facet normal -0.309017 -0.951056 0
    outer loop
      vertex -2.12889 -4.52412 0
      vertex -0.936905 -4.91142 12
      vertex -2.12889 -4.52412 12
    endloop
  endfacet
  facet normal -0.309017 -0.951056 -0
    outer loop
      vertex -0.936905 -4.91142 12
      vertex -2.12889 -4.52412 0
      vertex -0.936905 -4.91142 0
    endloop
  endfacet
  facet normal -0.0628008 -0.998026 0
    outer loop
      vertex -0.936905 -4.91142 0
      vertex 0.31395 -4.99013 12
      vertex -0.936905 -4.91142 12
    endloop
  endfacet
  facet normal -0.0628008 -0.998026 -0
    outer loop
      vertex 0.31395 -4.99013 12
      vertex -0.936905 -4.91142 0
      vertex 0.31395 -4.99013 0
    endloop
  endfacet
  facet normal 0.187382 -0.982287 0
    outer loop
      vertex 0.31395 -4.99013 0
      vertex 1.54507 -4.75528 12
      vertex 0.31395 -4.99013 12
    endloop
  endfacet
  facet normal 0.187382 -0.982287 0
    outer loop
      vertex 1.54507 -4.75528 12
      vertex 0.31395 -4.99013 0
      vertex 1.54507 -4.75528 0
    endloop
  endfacet
endsolid OpenSCAD_Model
