<?xml version="1.0" standalone="no"?>
<!DOCTYPE svg PUBLIC "-//W3C//DTD SVG 1.1//EN" "http://www.w3.org/Graphics/SVG/1.1/DTD/svg11.dtd">
<svg width="222mm" height="72mm" viewBox="9 -81 222 72" xmlns="http://www.w3.org/2000/svg" version="1.1">
<title>OpenSCAD Model</title>
<path d="
M 226,-9.00986 L 226.314,-9.00986 L 226.937,-9.08856 L 227.545,-9.24471 L 228.129,-9.47586 L 228.679,-9.77835
 L 229.187,-10.1474 L 229.645,-10.5773 L 230.045,-11.0611 L 230.382,-11.5912 L 230.649,-12.1594 L 230.843,-12.7565
 L 230.961,-13.3733 L 231,-14 L 231,-76 L 230.961,-76.6267 L 230.843,-77.2434 L 230.649,-77.8406
 L 230.382,-78.4088 L 230.045,-78.9389 L 229.645,-79.4227 L 229.187,-79.8526 L 228.679,-80.2216 L 228.129,-80.5241
 L 227.545,-80.7553 L 226.937,-80.9114 L 226.314,-80.9901 L 226,-80.9901 L 226,-81 L 14,-81
 L 14,-80.9901 L 13.686,-80.9901 L 13.0631,-80.9114 L 12.4549,-80.7553 L 11.8711,-80.5241 L 11.3209,-80.2216
 L 10.8129,-79.8526 L 10.3551,-79.4227 L 9.95491,-78.9389 L 9.61845,-78.4088 L 9.3511,-77.8406 L 9.15707,-77.2434
 L 9.03941,-76.6267 L 9,-76 L 9,-14 L 9.03941,-13.3733 L 9.15707,-12.7565 L 9.3511,-12.1594
 L 9.61845,-11.5912 L 9.95491,-11.0611 L 10.3551,-10.5773 L 10.8129,-10.1474 L 11.3209,-9.77835 L 11.8711,-9.47586
 L 12.4549,-9.24471 L 13.0631,-9.08856 L 13.686,-9.00986 L 14,-9.00986 L 14,-9 L 226,-9
 z
" stroke="black" fill="lightgray" stroke-width="0.5"/>
</svg>
