<?xml version="1.0" standalone="no"?>
<!DOCTYPE svg PUBLIC "-//W3C//DTD SVG 1.1//EN" "http://www.w3.org/Graphics/SVG/1.1/DTD/svg11.dtd">
<svg width="222mm" height="72mm" viewBox="9 -81 222 72" xmlns="http://www.w3.org/2000/svg" version="1.1">
<title>OpenSCAD Model</title>
<path d="
M 226,-9.00986 L 226.314,-9.00986 L 226.937,-9.08856 L 227.545,-9.24471 L 228.129,-9.47586 L 228.679,-9.77835
 L 229.187,-10.1474 L 229.645,-10.5773 L 230.045,-11.0611 L 230.382,-11.5912 L 230.649,-12.1594 L 230.843,-12.7565
 L 230.961,-13.3733 L 231,-14 L 231,-76 L 230.961,-76.6267 L 230.843,-77.2434 L 230.649,-77.8406
 L 230.382,-78.4088 L 230.045,-78.9389 L 229.645,-79.4227 L 229.187,-79.8526 L 228.679,-80.2216 L 228.129,-80.5241
 L 227.545,-80.7553 L 226.937,-80.9114 L 226.314,-80.9901 L 226,-80.9901 L 226,-81 L 14,-81
 L 14,-80.9901 L 13.686,-80.9901 L 13.0631,-80.9114 L 12.4549,-80.7553 L 11.8711,-80.5241 L 11.3209,-80.2216
 L 10.8129,-79.8526 L 10.3551,-79.4227 L 9.95491,-78.9389 L 9.61845,-78.4088 L 9.3511,-77.8406 L 9.15707,-77.2434
 L 9.03941,-76.6267 L 9,-76 L 9,-14 L 9.03941,-13.3733 L 9.15707,-12.7565 L 9.3511,-12.1594
 L 9.61845,-11.5912 L 9.95491,-11.0611 L 10.3551,-10.5773 L 10.8129,-10.1474 L 11.3209,-9.77835 L 11.8711,-9.47586
 L 12.4549,-9.24471 L 13.0631,-9.08856 L 13.686,-9.00986 L 14,-9.00986 L 14,-9 L 226,-9
 z
M 179.812,-72.0059 L 179.438,-72.0531 L 179.073,-72.1468 L 178.723,-72.2855 L 178.393,-72.467 L 178.088,-72.6884
 L 177.813,-72.9464 L 177.573,-73.2366 L 177.371,-73.5547 L 177.211,-73.8956 L 177.094,-74.2539 L 177.024,-74.624
 L 177,-75 L 177.024,-75.376 L 177.094,-75.7461 L 177.211,-76.1044 L 177.371,-76.4453 L 177.573,-76.7634
 L 177.813,-77.0536 L 178.088,-77.3115 L 178.393,-77.533 L 178.723,-77.7145 L 179.073,-77.8532 L 179.438,-77.9469
 L 179.812,-77.9941 L 180.188,-77.9941 L 180.562,-77.9469 L 180.927,-77.8532 L 181.277,-77.7145 L 181.607,-77.533
 L 181.912,-77.3115 L 182.187,-77.0536 L 182.427,-76.7634 L 182.629,-76.4453 L 182.789,-76.1044 L 182.906,-75.7461
 L 182.976,-75.376 L 183,-75 L 182.976,-74.624 L 182.906,-74.2539 L 182.789,-73.8956 L 182.629,-73.5547
 L 182.427,-73.2366 L 182.187,-72.9464 L 181.912,-72.6884 L 181.607,-72.467 L 181.277,-72.2855 L 180.927,-72.1468
 L 180.562,-72.0531 L 180.188,-72.0059 z
M 149.812,-72.0059 L 149.438,-72.0531 L 149.073,-72.1468 L 148.723,-72.2855 L 148.393,-72.467 L 148.088,-72.6884
 L 147.813,-72.9464 L 147.573,-73.2366 L 147.371,-73.5547 L 147.211,-73.8956 L 147.094,-74.2539 L 147.024,-74.624
 L 147,-75 L 147.024,-75.376 L 147.094,-75.7461 L 147.211,-76.1044 L 147.371,-76.4453 L 147.573,-76.7634
 L 147.813,-77.0536 L 148.088,-77.3115 L 148.393,-77.533 L 148.723,-77.7145 L 149.073,-77.8532 L 149.438,-77.9469
 L 149.812,-77.9941 L 150.188,-77.9941 L 150.562,-77.9469 L 150.927,-77.8532 L 151.277,-77.7145 L 151.607,-77.533
 L 151.912,-77.3115 L 152.187,-77.0536 L 152.427,-76.7634 L 152.629,-76.4453 L 152.789,-76.1044 L 152.906,-75.7461
 L 152.976,-75.376 L 153,-75 L 152.976,-74.624 L 152.906,-74.2539 L 152.789,-73.8956 L 152.629,-73.5547
 L 152.427,-73.2366 L 152.187,-72.9464 L 151.912,-72.6884 L 151.607,-72.467 L 151.277,-72.2855 L 150.927,-72.1468
 L 150.562,-72.0531 L 150.188,-72.0059 z
M 29.8116,-72.0059 L 29.4379,-72.0531 L 29.0729,-72.1468 L 28.7227,-72.2855 L 28.3925,-72.467 L 28.0877,-72.6884
 L 27.8131,-72.9464 L 27.5729,-73.2366 L 27.3711,-73.5547 L 27.2107,-73.8956 L 27.0942,-74.2539 L 27.0237,-74.624
 L 27,-75 L 27.0237,-75.376 L 27.0942,-75.7461 L 27.2107,-76.1044 L 27.3711,-76.4453 L 27.5729,-76.7634
 L 27.8131,-77.0536 L 28.0877,-77.3115 L 28.3925,-77.533 L 28.7227,-77.7145 L 29.0729,-77.8532 L 29.4379,-77.9469
 L 29.8116,-77.9941 L 30.1884,-77.9941 L 30.5621,-77.9469 L 30.927,-77.8532 L 31.2773,-77.7145 L 31.6075,-77.533
 L 31.9123,-77.3115 L 32.1869,-77.0536 L 32.427,-76.7634 L 32.6289,-76.4453 L 32.7893,-76.1044 L 32.9057,-75.7461
 L 32.9763,-75.376 L 33,-75 L 32.9763,-74.624 L 32.9057,-74.2539 L 32.7893,-73.8956 L 32.6289,-73.5547
 L 32.427,-73.2366 L 32.1869,-72.9464 L 31.9123,-72.6884 L 31.6075,-72.467 L 31.2773,-72.2855 L 30.927,-72.1468
 L 30.5621,-72.0531 L 30.1884,-72.0059 z
M 209.812,-72.0059 L 209.438,-72.0531 L 209.073,-72.1468 L 208.723,-72.2855 L 208.393,-72.467 L 208.088,-72.6884
 L 207.813,-72.9464 L 207.573,-73.2366 L 207.371,-73.5547 L 207.211,-73.8956 L 207.094,-74.2539 L 207.024,-74.624
 L 207,-75 L 207.024,-75.376 L 207.094,-75.7461 L 207.211,-76.1044 L 207.371,-76.4453 L 207.573,-76.7634
 L 207.813,-77.0536 L 208.088,-77.3115 L 208.393,-77.533 L 208.723,-77.7145 L 209.073,-77.8532 L 209.438,-77.9469
 L 209.812,-77.9941 L 210.188,-77.9941 L 210.562,-77.9469 L 210.927,-77.8532 L 211.277,-77.7145 L 211.607,-77.533
 L 211.912,-77.3115 L 212.187,-77.0536 L 212.427,-76.7634 L 212.629,-76.4453 L 212.789,-76.1044 L 212.906,-75.7461
 L 212.976,-75.376 L 213,-75 L 212.976,-74.624 L 212.906,-74.2539 L 212.789,-73.8956 L 212.629,-73.5547
 L 212.427,-73.2366 L 212.187,-72.9464 L 211.912,-72.6884 L 211.607,-72.467 L 211.277,-72.2855 L 210.927,-72.1468
 L 210.562,-72.0531 L 210.188,-72.0059 z
M 44.8116,-72.0059 L 44.4379,-72.0531 L 44.0729,-72.1468 L 43.7227,-72.2855 L 43.3925,-72.467 L 43.0877,-72.6884
 L 42.8131,-72.9464 L 42.5729,-73.2366 L 42.3711,-73.5547 L 42.2107,-73.8956 L 42.0942,-74.2539 L 42.0237,-74.624
 L 42,-75 L 42.0237,-75.376 L 42.0942,-75.7461 L 42.2107,-76.1044 L 42.3711,-76.4453 L 42.5729,-76.7634
 L 42.8131,-77.0536 L 43.0877,-77.3115 L 43.3925,-77.533 L 43.7227,-77.7145 L 44.0729,-77.8532 L 44.4379,-77.9469
 L 44.8116,-77.9941 L 45.1884,-77.9941 L 45.5621,-77.9469 L 45.927,-77.8532 L 46.2773,-77.7145 L 46.6075,-77.533
 L 46.9123,-77.3115 L 47.1869,-77.0536 L 47.427,-76.7634 L 47.6289,-76.4453 L 47.7893,-76.1044 L 47.9057,-75.7461
 L 47.9763,-75.376 L 48,-75 L 47.9763,-74.624 L 47.9057,-74.2539 L 47.7893,-73.8956 L 47.6289,-73.5547
 L 47.427,-73.2366 L 47.1869,-72.9464 L 46.9123,-72.6884 L 46.6075,-72.467 L 46.2773,-72.2855 L 45.927,-72.1468
 L 45.5621,-72.0531 L 45.1884,-72.0059 z
M 224.812,-72.0059 L 224.438,-72.0531 L 224.073,-72.1468 L 223.723,-72.2855 L 223.393,-72.467 L 223.088,-72.6884
 L 222.813,-72.9464 L 222.573,-73.2366 L 222.371,-73.5547 L 222.211,-73.8956 L 222.094,-74.2539 L 222.024,-74.624
 L 222,-75 L 222.024,-75.376 L 222.094,-75.7461 L 222.211,-76.1044 L 222.371,-76.4453 L 222.573,-76.7634
 L 222.813,-77.0536 L 223.088,-77.3115 L 223.393,-77.533 L 223.723,-77.7145 L 224.073,-77.8532 L 224.438,-77.9469
 L 224.812,-77.9941 L 225.188,-77.9941 L 225.562,-77.9469 L 225.927,-77.8532 L 226.277,-77.7145 L 226.607,-77.533
 L 226.912,-77.3115 L 227.187,-77.0536 L 227.427,-76.7634 L 227.629,-76.4453 L 227.789,-76.1044 L 227.906,-75.7461
 L 227.976,-75.376 L 228,-75 L 227.976,-74.624 L 227.906,-74.2539 L 227.789,-73.8956 L 227.629,-73.5547
 L 227.427,-73.2366 L 227.187,-72.9464 L 226.912,-72.6884 L 226.607,-72.467 L 226.277,-72.2855 L 225.927,-72.1468
 L 225.562,-72.0531 L 225.188,-72.0059 z
M 194.812,-72.0059 L 194.438,-72.0531 L 194.073,-72.1468 L 193.723,-72.2855 L 193.393,-72.467 L 193.088,-72.6884
 L 192.813,-72.9464 L 192.573,-73.2366 L 192.371,-73.5547 L 192.211,-73.8956 L 192.094,-74.2539 L 192.024,-74.624
 L 192,-75 L 192.024,-75.376 L 192.094,-75.7461 L 192.211,-76.1044 L 192.371,-76.4453 L 192.573,-76.7634
 L 192.813,-77.0536 L 193.088,-77.3115 L 193.393,-77.533 L 193.723,-77.7145 L 194.073,-77.8532 L 194.438,-77.9469
 L 194.812,-77.9941 L 195.188,-77.9941 L 195.562,-77.9469 L 195.927,-77.8532 L 196.277,-77.7145 L 196.607,-77.533
 L 196.912,-77.3115 L 197.187,-77.0536 L 197.427,-76.7634 L 197.629,-76.4453 L 197.789,-76.1044 L 197.906,-75.7461
 L 197.976,-75.376 L 198,-75 L 197.976,-74.624 L 197.906,-74.2539 L 197.789,-73.8956 L 197.629,-73.5547
 L 197.427,-73.2366 L 197.187,-72.9464 L 196.912,-72.6884 L 196.607,-72.467 L 196.277,-72.2855 L 195.927,-72.1468
 L 195.562,-72.0531 L 195.188,-72.0059 z
M 59.8116,-72.0059 L 59.4379,-72.0531 L 59.0729,-72.1468 L 58.7227,-72.2855 L 58.3925,-72.467 L 58.0877,-72.6884
 L 57.8131,-72.9464 L 57.5729,-73.2366 L 57.3711,-73.5547 L 57.2107,-73.8956 L 57.0942,-74.2539 L 57.0237,-74.624
 L 57,-75 L 57.0237,-75.376 L 57.0942,-75.7461 L 57.2107,-76.1044 L 57.3711,-76.4453 L 57.5729,-76.7634
 L 57.8131,-77.0536 L 58.0877,-77.3115 L 58.3925,-77.533 L 58.7227,-77.7145 L 59.0729,-77.8532 L 59.4379,-77.9469
 L 59.8116,-77.9941 L 60.1884,-77.9941 L 60.5621,-77.9469 L 60.927,-77.8532 L 61.2773,-77.7145 L 61.6075,-77.533
 L 61.9123,-77.3115 L 62.1869,-77.0536 L 62.427,-76.7634 L 62.6289,-76.4453 L 62.7893,-76.1044 L 62.9057,-75.7461
 L 62.9763,-75.376 L 63,-75 L 62.9763,-74.624 L 62.9057,-74.2539 L 62.7893,-73.8956 L 62.6289,-73.5547
 L 62.427,-73.2366 L 62.1869,-72.9464 L 61.9123,-72.6884 L 61.6075,-72.467 L 61.2773,-72.2855 L 60.927,-72.1468
 L 60.5621,-72.0531 L 60.1884,-72.0059 z
M 74.8116,-72.0059 L 74.4379,-72.0531 L 74.0729,-72.1468 L 73.7227,-72.2855 L 73.3925,-72.467 L 73.0877,-72.6884
 L 72.8131,-72.9464 L 72.5729,-73.2366 L 72.3711,-73.5547 L 72.2107,-73.8956 L 72.0942,-74.2539 L 72.0237,-74.624
 L 72,-75 L 72.0237,-75.376 L 72.0942,-75.7461 L 72.2107,-76.1044 L 72.3711,-76.4453 L 72.5729,-76.7634
 L 72.8131,-77.0536 L 73.0877,-77.3115 L 73.3925,-77.533 L 73.7227,-77.7145 L 74.0729,-77.8532 L 74.4379,-77.9469
 L 74.8116,-77.9941 L 75.1884,-77.9941 L 75.5621,-77.9469 L 75.927,-77.8532 L 76.2773,-77.7145 L 76.6075,-77.533
 L 76.9123,-77.3115 L 77.1869,-77.0536 L 77.427,-76.7634 L 77.6289,-76.4453 L 77.7893,-76.1044 L 77.9057,-75.7461
 L 77.9763,-75.376 L 78,-75 L 77.9763,-74.624 L 77.9057,-74.2539 L 77.7893,-73.8956 L 77.6289,-73.5547
 L 77.427,-73.2366 L 77.1869,-72.9464 L 76.9123,-72.6884 L 76.6075,-72.467 L 76.2773,-72.2855 L 75.927,-72.1468
 L 75.5621,-72.0531 L 75.1884,-72.0059 z
M 89.8116,-72.0059 L 89.4379,-72.0531 L 89.0729,-72.1468 L 88.7227,-72.2855 L 88.3925,-72.467 L 88.0877,-72.6884
 L 87.8131,-72.9464 L 87.5729,-73.2366 L 87.3711,-73.5547 L 87.2107,-73.8956 L 87.0942,-74.2539 L 87.0237,-74.624
 L 87,-75 L 87.0237,-75.376 L 87.0942,-75.7461 L 87.2107,-76.1044 L 87.3711,-76.4453 L 87.5729,-76.7634
 L 87.8131,-77.0536 L 88.0877,-77.3115 L 88.3925,-77.533 L 88.7227,-77.7145 L 89.0729,-77.8532 L 89.4379,-77.9469
 L 89.8116,-77.9941 L 90.1884,-77.9941 L 90.5621,-77.9469 L 90.927,-77.8532 L 91.2773,-77.7145 L 91.6075,-77.533
 L 91.9123,-77.3115 L 92.1869,-77.0536 L 92.427,-76.7634 L 92.6289,-76.4453 L 92.7893,-76.1044 L 92.9057,-75.7461
 L 92.9763,-75.376 L 93,-75 L 92.9763,-74.624 L 92.9057,-74.2539 L 92.7893,-73.8956 L 92.6289,-73.5547
 L 92.427,-73.2366 L 92.1869,-72.9464 L 91.9123,-72.6884 L 91.6075,-72.467 L 91.2773,-72.2855 L 90.927,-72.1468
 L 90.5621,-72.0531 L 90.1884,-72.0059 z
M 104.812,-72.0059 L 104.438,-72.0531 L 104.073,-72.1468 L 103.723,-72.2855 L 103.393,-72.467 L 103.088,-72.6884
 L 102.813,-72.9464 L 102.573,-73.2366 L 102.371,-73.5547 L 102.211,-73.8956 L 102.094,-74.2539 L 102.024,-74.624
 L 102,-75 L 102.024,-75.376 L 102.094,-75.7461 L 102.211,-76.1044 L 102.371,-76.4453 L 102.573,-76.7634
 L 102.813,-77.0536 L 103.088,-77.3115 L 103.393,-77.533 L 103.723,-77.7145 L 104.073,-77.8532 L 104.438,-77.9469
 L 104.812,-77.9941 L 105.188,-77.9941 L 105.562,-77.9469 L 105.927,-77.8532 L 106.277,-77.7145 L 106.607,-77.533
 L 106.912,-77.3115 L 107.187,-77.0536 L 107.427,-76.7634 L 107.629,-76.4453 L 107.789,-76.1044 L 107.906,-75.7461
 L 107.976,-75.376 L 108,-75 L 107.976,-74.624 L 107.906,-74.2539 L 107.789,-73.8956 L 107.629,-73.5547
 L 107.427,-73.2366 L 107.187,-72.9464 L 106.912,-72.6884 L 106.607,-72.467 L 106.277,-72.2855 L 105.927,-72.1468
 L 105.562,-72.0531 L 105.188,-72.0059 z
M 134.812,-72.0059 L 134.438,-72.0531 L 134.073,-72.1468 L 133.723,-72.2855 L 133.393,-72.467 L 133.088,-72.6884
 L 132.813,-72.9464 L 132.573,-73.2366 L 132.371,-73.5547 L 132.211,-73.8956 L 132.094,-74.2539 L 132.024,-74.624
 L 132,-75 L 132.024,-75.376 L 132.094,-75.7461 L 132.211,-76.1044 L 132.371,-76.4453 L 132.573,-76.7634
 L 132.813,-77.0536 L 133.088,-77.3115 L 133.393,-77.533 L 133.723,-77.7145 L 134.073,-77.8532 L 134.438,-77.9469
 L 134.812,-77.9941 L 135.188,-77.9941 L 135.562,-77.9469 L 135.927,-77.8532 L 136.277,-77.7145 L 136.607,-77.533
 L 136.912,-77.3115 L 137.187,-77.0536 L 137.427,-76.7634 L 137.629,-76.4453 L 137.789,-76.1044 L 137.906,-75.7461
 L 137.976,-75.376 L 138,-75 L 137.976,-74.624 L 137.906,-74.2539 L 137.789,-73.8956 L 137.629,-73.5547
 L 137.427,-73.2366 L 137.187,-72.9464 L 136.912,-72.6884 L 136.607,-72.467 L 136.277,-72.2855 L 135.927,-72.1468
 L 135.562,-72.0531 L 135.188,-72.0059 z
M 119.812,-72.0059 L 119.438,-72.0531 L 119.073,-72.1468 L 118.723,-72.2855 L 118.393,-72.467 L 118.088,-72.6884
 L 117.813,-72.9464 L 117.573,-73.2366 L 117.371,-73.5547 L 117.211,-73.8956 L 117.094,-74.2539 L 117.024,-74.624
 L 117,-75 L 117.024,-75.376 L 117.094,-75.7461 L 117.211,-76.1044 L 117.371,-76.4453 L 117.573,-76.7634
 L 117.813,-77.0536 L 118.088,-77.3115 L 118.393,-77.533 L 118.723,-77.7145 L 119.073,-77.8532 L 119.438,-77.9469
 L 119.812,-77.9941 L 120.188,-77.9941 L 120.562,-77.9469 L 120.927,-77.8532 L 121.277,-77.7145 L 121.607,-77.533
 L 121.912,-77.3115 L 122.187,-77.0536 L 122.427,-76.7634 L 122.629,-76.4453 L 122.789,-76.1044 L 122.906,-75.7461
 L 122.976,-75.376 L 123,-75 L 122.976,-74.624 L 122.906,-74.2539 L 122.789,-73.8956 L 122.629,-73.5547
 L 122.427,-73.2366 L 122.187,-72.9464 L 121.912,-72.6884 L 121.607,-72.467 L 121.277,-72.2855 L 120.927,-72.1468
 L 120.562,-72.0531 L 120.188,-72.0059 z
M 14.8116,-72.0059 L 14.4379,-72.0531 L 14.0729,-72.1468 L 13.7227,-72.2855 L 13.3925,-72.467 L 13.0877,-72.6884
 L 12.8131,-72.9464 L 12.5729,-73.2366 L 12.3711,-73.5547 L 12.2107,-73.8956 L 12.0942,-74.2539 L 12.0237,-74.624
 L 12,-75 L 12.0237,-75.376 L 12.0942,-75.7461 L 12.2107,-76.1044 L 12.3711,-76.4453 L 12.5729,-76.7634
 L 12.8131,-77.0536 L 13.0877,-77.3115 L 13.3925,-77.533 L 13.7227,-77.7145 L 14.0729,-77.8532 L 14.4379,-77.9469
 L 14.8116,-77.9941 L 15.1884,-77.9941 L 15.5621,-77.9469 L 15.927,-77.8532 L 16.2773,-77.7145 L 16.6075,-77.533
 L 16.9123,-77.3115 L 17.1869,-77.0536 L 17.427,-76.7634 L 17.6289,-76.4453 L 17.7893,-76.1044 L 17.9057,-75.7461
 L 17.9763,-75.376 L 18,-75 L 17.9763,-74.624 L 17.9057,-74.2539 L 17.7893,-73.8956 L 17.6289,-73.5547
 L 17.427,-73.2366 L 17.1869,-72.9464 L 16.9123,-72.6884 L 16.6075,-72.467 L 16.2773,-72.2855 L 15.927,-72.1468
 L 15.5621,-72.0531 L 15.1884,-72.0059 z
M 164.812,-72.0059 L 164.438,-72.0531 L 164.073,-72.1468 L 163.723,-72.2855 L 163.393,-72.467 L 163.088,-72.6884
 L 162.813,-72.9464 L 162.573,-73.2366 L 162.371,-73.5547 L 162.211,-73.8956 L 162.094,-74.2539 L 162.024,-74.624
 L 162,-75 L 162.024,-75.376 L 162.094,-75.7461 L 162.211,-76.1044 L 162.371,-76.4453 L 162.573,-76.7634
 L 162.813,-77.0536 L 163.088,-77.3115 L 163.393,-77.533 L 163.723,-77.7145 L 164.073,-77.8532 L 164.438,-77.9469
 L 164.812,-77.9941 L 165.188,-77.9941 L 165.562,-77.9469 L 165.927,-77.8532 L 166.277,-77.7145 L 166.607,-77.533
 L 166.912,-77.3115 L 167.187,-77.0536 L 167.427,-76.7634 L 167.629,-76.4453 L 167.789,-76.1044 L 167.906,-75.7461
 L 167.976,-75.376 L 168,-75 L 167.976,-74.624 L 167.906,-74.2539 L 167.789,-73.8956 L 167.629,-73.5547
 L 167.427,-73.2366 L 167.187,-72.9464 L 166.912,-72.6884 L 166.607,-72.467 L 166.277,-72.2855 L 165.927,-72.1468
 L 165.562,-72.0531 L 165.188,-72.0059 z
M 224.812,-57.0059 L 224.438,-57.0531 L 224.073,-57.1468 L 223.723,-57.2855 L 223.393,-57.467 L 223.088,-57.6884
 L 222.813,-57.9464 L 222.573,-58.2366 L 222.371,-58.5547 L 222.211,-58.8956 L 222.094,-59.2539 L 222.024,-59.624
 L 222,-60 L 222.024,-60.376 L 222.094,-60.7461 L 222.211,-61.1044 L 222.371,-61.4453 L 222.573,-61.7634
 L 222.813,-62.0536 L 223.088,-62.3115 L 223.393,-62.533 L 223.723,-62.7145 L 224.073,-62.8532 L 224.438,-62.9469
 L 224.812,-62.9941 L 225.188,-62.9941 L 225.562,-62.9469 L 225.927,-62.8532 L 226.277,-62.7145 L 226.607,-62.533
 L 226.912,-62.3115 L 227.187,-62.0536 L 227.427,-61.7634 L 227.629,-61.4453 L 227.789,-61.1044 L 227.906,-60.7461
 L 227.976,-60.376 L 228,-60 L 227.976,-59.624 L 227.906,-59.2539 L 227.789,-58.8956 L 227.629,-58.5547
 L 227.427,-58.2366 L 227.187,-57.9464 L 226.912,-57.6884 L 226.607,-57.467 L 226.277,-57.2855 L 225.927,-57.1468
 L 225.562,-57.0531 L 225.188,-57.0059 z
M 14.8116,-57.0059 L 14.4379,-57.0531 L 14.0729,-57.1468 L 13.7227,-57.2855 L 13.3925,-57.467 L 13.0877,-57.6884
 L 12.8131,-57.9464 L 12.5729,-58.2366 L 12.3711,-58.5547 L 12.2107,-58.8956 L 12.0942,-59.2539 L 12.0237,-59.624
 L 12,-60 L 12.0237,-60.376 L 12.0942,-60.7461 L 12.2107,-61.1044 L 12.3711,-61.4453 L 12.5729,-61.7634
 L 12.8131,-62.0536 L 13.0877,-62.3115 L 13.3925,-62.533 L 13.7227,-62.7145 L 14.0729,-62.8532 L 14.4379,-62.9469
 L 14.8116,-62.9941 L 15.1884,-62.9941 L 15.5621,-62.9469 L 15.927,-62.8532 L 16.2773,-62.7145 L 16.6075,-62.533
 L 16.9123,-62.3115 L 17.1869,-62.0536 L 17.427,-61.7634 L 17.6289,-61.4453 L 17.7893,-61.1044 L 17.9057,-60.7461
 L 17.9763,-60.376 L 18,-60 L 17.9763,-59.624 L 17.9057,-59.2539 L 17.7893,-58.8956 L 17.6289,-58.5547
 L 17.427,-58.2366 L 17.1869,-57.9464 L 16.9123,-57.6884 L 16.6075,-57.467 L 16.2773,-57.2855 L 15.927,-57.1468
 L 15.5621,-57.0531 L 15.1884,-57.0059 z
M 59.8116,-57.0059 L 59.4379,-57.0531 L 59.0729,-57.1468 L 58.7227,-57.2855 L 58.3925,-57.467 L 58.0877,-57.6884
 L 57.8131,-57.9464 L 57.5729,-58.2366 L 57.3711,-58.5547 L 57.2107,-58.8956 L 57.0942,-59.2539 L 57.0237,-59.624
 L 57,-60 L 57.0237,-60.376 L 57.0942,-60.7461 L 57.2107,-61.1044 L 57.3711,-61.4453 L 57.5729,-61.7634
 L 57.8131,-62.0536 L 58.0877,-62.3115 L 58.3925,-62.533 L 58.7227,-62.7145 L 59.0729,-62.8532 L 59.4379,-62.9469
 L 59.8116,-62.9941 L 60.1884,-62.9941 L 60.5621,-62.9469 L 60.927,-62.8532 L 61.2773,-62.7145 L 61.6075,-62.533
 L 61.9123,-62.3115 L 62.1869,-62.0536 L 62.427,-61.7634 L 62.6289,-61.4453 L 62.7893,-61.1044 L 62.9057,-60.7461
 L 62.9763,-60.376 L 63,-60 L 62.9763,-59.624 L 62.9057,-59.2539 L 62.7893,-58.8956 L 62.6289,-58.5547
 L 62.427,-58.2366 L 62.1869,-57.9464 L 61.9123,-57.6884 L 61.6075,-57.467 L 61.2773,-57.2855 L 60.927,-57.1468
 L 60.5621,-57.0531 L 60.1884,-57.0059 z
M 194.812,-57.0059 L 194.438,-57.0531 L 194.073,-57.1468 L 193.723,-57.2855 L 193.393,-57.467 L 193.088,-57.6884
 L 192.813,-57.9464 L 192.573,-58.2366 L 192.371,-58.5547 L 192.211,-58.8956 L 192.094,-59.2539 L 192.024,-59.624
 L 192,-60 L 192.024,-60.376 L 192.094,-60.7461 L 192.211,-61.1044 L 192.371,-61.4453 L 192.573,-61.7634
 L 192.813,-62.0536 L 193.088,-62.3115 L 193.393,-62.533 L 193.723,-62.7145 L 194.073,-62.8532 L 194.438,-62.9469
 L 194.812,-62.9941 L 195.188,-62.9941 L 195.562,-62.9469 L 195.927,-62.8532 L 196.277,-62.7145 L 196.607,-62.533
 L 196.912,-62.3115 L 197.187,-62.0536 L 197.427,-61.7634 L 197.629,-61.4453 L 197.789,-61.1044 L 197.906,-60.7461
 L 197.976,-60.376 L 198,-60 L 197.976,-59.624 L 197.906,-59.2539 L 197.789,-58.8956 L 197.629,-58.5547
 L 197.427,-58.2366 L 197.187,-57.9464 L 196.912,-57.6884 L 196.607,-57.467 L 196.277,-57.2855 L 195.927,-57.1468
 L 195.562,-57.0531 L 195.188,-57.0059 z
M 119.812,-57.0059 L 119.438,-57.0531 L 119.073,-57.1468 L 118.723,-57.2855 L 118.393,-57.467 L 118.088,-57.6884
 L 117.813,-57.9464 L 117.573,-58.2366 L 117.371,-58.5547 L 117.211,-58.8956 L 117.094,-59.2539 L 117.024,-59.624
 L 117,-60 L 117.024,-60.376 L 117.094,-60.7461 L 117.211,-61.1044 L 117.371,-61.4453 L 117.573,-61.7634
 L 117.813,-62.0536 L 118.088,-62.3115 L 118.393,-62.533 L 118.723,-62.7145 L 119.073,-62.8532 L 119.438,-62.9469
 L 119.812,-62.9941 L 120.188,-62.9941 L 120.562,-62.9469 L 120.927,-62.8532 L 121.277,-62.7145 L 121.607,-62.533
 L 121.912,-62.3115 L 122.187,-62.0536 L 122.427,-61.7634 L 122.629,-61.4453 L 122.789,-61.1044 L 122.906,-60.7461
 L 122.976,-60.376 L 123,-60 L 122.976,-59.624 L 122.906,-59.2539 L 122.789,-58.8956 L 122.629,-58.5547
 L 122.427,-58.2366 L 122.187,-57.9464 L 121.912,-57.6884 L 121.607,-57.467 L 121.277,-57.2855 L 120.927,-57.1468
 L 120.562,-57.0531 L 120.188,-57.0059 z
M 179.812,-57.0059 L 179.438,-57.0531 L 179.073,-57.1468 L 178.723,-57.2855 L 178.393,-57.467 L 178.088,-57.6884
 L 177.813,-57.9464 L 177.573,-58.2366 L 177.371,-58.5547 L 177.211,-58.8956 L 177.094,-59.2539 L 177.024,-59.624
 L 177,-60 L 177.024,-60.376 L 177.094,-60.7461 L 177.211,-61.1044 L 177.371,-61.4453 L 177.573,-61.7634
 L 177.813,-62.0536 L 178.088,-62.3115 L 178.393,-62.533 L 178.723,-62.7145 L 179.073,-62.8532 L 179.438,-62.9469
 L 179.812,-62.9941 L 180.188,-62.9941 L 180.562,-62.9469 L 180.927,-62.8532 L 181.277,-62.7145 L 181.607,-62.533
 L 181.912,-62.3115 L 182.187,-62.0536 L 182.427,-61.7634 L 182.629,-61.4453 L 182.789,-61.1044 L 182.906,-60.7461
 L 182.976,-60.376 L 183,-60 L 182.976,-59.624 L 182.906,-59.2539 L 182.789,-58.8956 L 182.629,-58.5547
 L 182.427,-58.2366 L 182.187,-57.9464 L 181.912,-57.6884 L 181.607,-57.467 L 181.277,-57.2855 L 180.927,-57.1468
 L 180.562,-57.0531 L 180.188,-57.0059 z
M 209.812,-57.0059 L 209.438,-57.0531 L 209.073,-57.1468 L 208.723,-57.2855 L 208.393,-57.467 L 208.088,-57.6884
 L 207.813,-57.9464 L 207.573,-58.2366 L 207.371,-58.5547 L 207.211,-58.8956 L 207.094,-59.2539 L 207.024,-59.624
 L 207,-60 L 207.024,-60.376 L 207.094,-60.7461 L 207.211,-61.1044 L 207.371,-61.4453 L 207.573,-61.7634
 L 207.813,-62.0536 L 208.088,-62.3115 L 208.393,-62.533 L 208.723,-62.7145 L 209.073,-62.8532 L 209.438,-62.9469
 L 209.812,-62.9941 L 210.188,-62.9941 L 210.562,-62.9469 L 210.927,-62.8532 L 211.277,-62.7145 L 211.607,-62.533
 L 211.912,-62.3115 L 212.187,-62.0536 L 212.427,-61.7634 L 212.629,-61.4453 L 212.789,-61.1044 L 212.906,-60.7461
 L 212.976,-60.376 L 213,-60 L 212.976,-59.624 L 212.906,-59.2539 L 212.789,-58.8956 L 212.629,-58.5547
 L 212.427,-58.2366 L 212.187,-57.9464 L 211.912,-57.6884 L 211.607,-57.467 L 211.277,-57.2855 L 210.927,-57.1468
 L 210.562,-57.0531 L 210.188,-57.0059 z
M 164.812,-57.0059 L 164.438,-57.0531 L 164.073,-57.1468 L 163.723,-57.2855 L 163.393,-57.467 L 163.088,-57.6884
 L 162.813,-57.9464 L 162.573,-58.2366 L 162.371,-58.5547 L 162.211,-58.8956 L 162.094,-59.2539 L 162.024,-59.624
 L 162,-60 L 162.024,-60.376 L 162.094,-60.7461 L 162.211,-61.1044 L 162.371,-61.4453 L 162.573,-61.7634
 L 162.813,-62.0536 L 163.088,-62.3115 L 163.393,-62.533 L 163.723,-62.7145 L 164.073,-62.8532 L 164.438,-62.9469
 L 164.812,-62.9941 L 165.188,-62.9941 L 165.562,-62.9469 L 165.927,-62.8532 L 166.277,-62.7145 L 166.607,-62.533
 L 166.912,-62.3115 L 167.187,-62.0536 L 167.427,-61.7634 L 167.629,-61.4453 L 167.789,-61.1044 L 167.906,-60.7461
 L 167.976,-60.376 L 168,-60 L 167.976,-59.624 L 167.906,-59.2539 L 167.789,-58.8956 L 167.629,-58.5547
 L 167.427,-58.2366 L 167.187,-57.9464 L 166.912,-57.6884 L 166.607,-57.467 L 166.277,-57.2855 L 165.927,-57.1468
 L 165.562,-57.0531 L 165.188,-57.0059 z
M 44.8116,-57.0059 L 44.4379,-57.0531 L 44.0729,-57.1468 L 43.7227,-57.2855 L 43.3925,-57.467 L 43.0877,-57.6884
 L 42.8131,-57.9464 L 42.5729,-58.2366 L 42.3711,-58.5547 L 42.2107,-58.8956 L 42.0942,-59.2539 L 42.0237,-59.624
 L 42,-60 L 42.0237,-60.376 L 42.0942,-60.7461 L 42.2107,-61.1044 L 42.3711,-61.4453 L 42.5729,-61.7634
 L 42.8131,-62.0536 L 43.0877,-62.3115 L 43.3925,-62.533 L 43.7227,-62.7145 L 44.0729,-62.8532 L 44.4379,-62.9469
 L 44.8116,-62.9941 L 45.1884,-62.9941 L 45.5621,-62.9469 L 45.927,-62.8532 L 46.2773,-62.7145 L 46.6075,-62.533
 L 46.9123,-62.3115 L 47.1869,-62.0536 L 47.427,-61.7634 L 47.6289,-61.4453 L 47.7893,-61.1044 L 47.9057,-60.7461
 L 47.9763,-60.376 L 48,-60 L 47.9763,-59.624 L 47.9057,-59.2539 L 47.7893,-58.8956 L 47.6289,-58.5547
 L 47.427,-58.2366 L 47.1869,-57.9464 L 46.9123,-57.6884 L 46.6075,-57.467 L 46.2773,-57.2855 L 45.927,-57.1468
 L 45.5621,-57.0531 L 45.1884,-57.0059 z
M 29.8116,-57.0059 L 29.4379,-57.0531 L 29.0729,-57.1468 L 28.7227,-57.2855 L 28.3925,-57.467 L 28.0877,-57.6884
 L 27.8131,-57.9464 L 27.5729,-58.2366 L 27.3711,-58.5547 L 27.2107,-58.8956 L 27.0942,-59.2539 L 27.0237,-59.624
 L 27,-60 L 27.0237,-60.376 L 27.0942,-60.7461 L 27.2107,-61.1044 L 27.3711,-61.4453 L 27.5729,-61.7634
 L 27.8131,-62.0536 L 28.0877,-62.3115 L 28.3925,-62.533 L 28.7227,-62.7145 L 29.0729,-62.8532 L 29.4379,-62.9469
 L 29.8116,-62.9941 L 30.1884,-62.9941 L 30.5621,-62.9469 L 30.927,-62.8532 L 31.2773,-62.7145 L 31.6075,-62.533
 L 31.9123,-62.3115 L 32.1869,-62.0536 L 32.427,-61.7634 L 32.6289,-61.4453 L 32.7893,-61.1044 L 32.9057,-60.7461
 L 32.9763,-60.376 L 33,-60 L 32.9763,-59.624 L 32.9057,-59.2539 L 32.7893,-58.8956 L 32.6289,-58.5547
 L 32.427,-58.2366 L 32.1869,-57.9464 L 31.9123,-57.6884 L 31.6075,-57.467 L 31.2773,-57.2855 L 30.927,-57.1468
 L 30.5621,-57.0531 L 30.1884,-57.0059 z
M 89.8116,-57.0059 L 89.4379,-57.0531 L 89.0729,-57.1468 L 88.7227,-57.2855 L 88.3925,-57.467 L 88.0877,-57.6884
 L 87.8131,-57.9464 L 87.5729,-58.2366 L 87.3711,-58.5547 L 87.2107,-58.8956 L 87.0942,-59.2539 L 87.0237,-59.624
 L 87,-60 L 87.0237,-60.376 L 87.0942,-60.7461 L 87.2107,-61.1044 L 87.3711,-61.4453 L 87.5729,-61.7634
 L 87.8131,-62.0536 L 88.0877,-62.3115 L 88.3925,-62.533 L 88.7227,-62.7145 L 89.0729,-62.8532 L 89.4379,-62.9469
 L 89.8116,-62.9941 L 90.1884,-62.9941 L 90.5621,-62.9469 L 90.927,-62.8532 L 91.2773,-62.7145 L 91.6075,-62.533
 L 91.9123,-62.3115 L 92.1869,-62.0536 L 92.427,-61.7634 L 92.6289,-61.4453 L 92.7893,-61.1044 L 92.9057,-60.7461
 L 92.9763,-60.376 L 93,-60 L 92.9763,-59.624 L 92.9057,-59.2539 L 92.7893,-58.8956 L 92.6289,-58.5547
 L 92.427,-58.2366 L 92.1869,-57.9464 L 91.9123,-57.6884 L 91.6075,-57.467 L 91.2773,-57.2855 L 90.927,-57.1468
 L 90.5621,-57.0531 L 90.1884,-57.0059 z
M 134.812,-57.0059 L 134.438,-57.0531 L 134.073,-57.1468 L 133.723,-57.2855 L 133.393,-57.467 L 133.088,-57.6884
 L 132.813,-57.9464 L 132.573,-58.2366 L 132.371,-58.5547 L 132.211,-58.8956 L 132.094,-59.2539 L 132.024,-59.624
 L 132,-60 L 132.024,-60.376 L 132.094,-60.7461 L 132.211,-61.1044 L 132.371,-61.4453 L 132.573,-61.7634
 L 132.813,-62.0536 L 133.088,-62.3115 L 133.393,-62.533 L 133.723,-62.7145 L 134.073,-62.8532 L 134.438,-62.9469
 L 134.812,-62.9941 L 135.188,-62.9941 L 135.562,-62.9469 L 135.927,-62.8532 L 136.277,-62.7145 L 136.607,-62.533
 L 136.912,-62.3115 L 137.187,-62.0536 L 137.427,-61.7634 L 137.629,-61.4453 L 137.789,-61.1044 L 137.906,-60.7461
 L 137.976,-60.376 L 138,-60 L 137.976,-59.624 L 137.906,-59.2539 L 137.789,-58.8956 L 137.629,-58.5547
 L 137.427,-58.2366 L 137.187,-57.9464 L 136.912,-57.6884 L 136.607,-57.467 L 136.277,-57.2855 L 135.927,-57.1468
 L 135.562,-57.0531 L 135.188,-57.0059 z
M 149.812,-57.0059 L 149.438,-57.0531 L 149.073,-57.1468 L 148.723,-57.2855 L 148.393,-57.467 L 148.088,-57.6884
 L 147.813,-57.9464 L 147.573,-58.2366 L 147.371,-58.5547 L 147.211,-58.8956 L 147.094,-59.2539 L 147.024,-59.624
 L 147,-60 L 147.024,-60.376 L 147.094,-60.7461 L 147.211,-61.1044 L 147.371,-61.4453 L 147.573,-61.7634
 L 147.813,-62.0536 L 148.088,-62.3115 L 148.393,-62.533 L 148.723,-62.7145 L 149.073,-62.8532 L 149.438,-62.9469
 L 149.812,-62.9941 L 150.188,-62.9941 L 150.562,-62.9469 L 150.927,-62.8532 L 151.277,-62.7145 L 151.607,-62.533
 L 151.912,-62.3115 L 152.187,-62.0536 L 152.427,-61.7634 L 152.629,-61.4453 L 152.789,-61.1044 L 152.906,-60.7461
 L 152.976,-60.376 L 153,-60 L 152.976,-59.624 L 152.906,-59.2539 L 152.789,-58.8956 L 152.629,-58.5547
 L 152.427,-58.2366 L 152.187,-57.9464 L 151.912,-57.6884 L 151.607,-57.467 L 151.277,-57.2855 L 150.927,-57.1468
 L 150.562,-57.0531 L 150.188,-57.0059 z
M 104.812,-57.0059 L 104.438,-57.0531 L 104.073,-57.1468 L 103.723,-57.2855 L 103.393,-57.467 L 103.088,-57.6884
 L 102.813,-57.9464 L 102.573,-58.2366 L 102.371,-58.5547 L 102.211,-58.8956 L 102.094,-59.2539 L 102.024,-59.624
 L 102,-60 L 102.024,-60.376 L 102.094,-60.7461 L 102.211,-61.1044 L 102.371,-61.4453 L 102.573,-61.7634
 L 102.813,-62.0536 L 103.088,-62.3115 L 103.393,-62.533 L 103.723,-62.7145 L 104.073,-62.8532 L 104.438,-62.9469
 L 104.812,-62.9941 L 105.188,-62.9941 L 105.562,-62.9469 L 105.927,-62.8532 L 106.277,-62.7145 L 106.607,-62.533
 L 106.912,-62.3115 L 107.187,-62.0536 L 107.427,-61.7634 L 107.629,-61.4453 L 107.789,-61.1044 L 107.906,-60.7461
 L 107.976,-60.376 L 108,-60 L 107.976,-59.624 L 107.906,-59.2539 L 107.789,-58.8956 L 107.629,-58.5547
 L 107.427,-58.2366 L 107.187,-57.9464 L 106.912,-57.6884 L 106.607,-57.467 L 106.277,-57.2855 L 105.927,-57.1468
 L 105.562,-57.0531 L 105.188,-57.0059 z
M 74.8116,-57.0059 L 74.4379,-57.0531 L 74.0729,-57.1468 L 73.7227,-57.2855 L 73.3925,-57.467 L 73.0877,-57.6884
 L 72.8131,-57.9464 L 72.5729,-58.2366 L 72.3711,-58.5547 L 72.2107,-58.8956 L 72.0942,-59.2539 L 72.0237,-59.624
 L 72,-60 L 72.0237,-60.376 L 72.0942,-60.7461 L 72.2107,-61.1044 L 72.3711,-61.4453 L 72.5729,-61.7634
 L 72.8131,-62.0536 L 73.0877,-62.3115 L 73.3925,-62.533 L 73.7227,-62.7145 L 74.0729,-62.8532 L 74.4379,-62.9469
 L 74.8116,-62.9941 L 75.1884,-62.9941 L 75.5621,-62.9469 L 75.927,-62.8532 L 76.2773,-62.7145 L 76.6075,-62.533
 L 76.9123,-62.3115 L 77.1869,-62.0536 L 77.427,-61.7634 L 77.6289,-61.4453 L 77.7893,-61.1044 L 77.9057,-60.7461
 L 77.9763,-60.376 L 78,-60 L 77.9763,-59.624 L 77.9057,-59.2539 L 77.7893,-58.8956 L 77.6289,-58.5547
 L 77.427,-58.2366 L 77.1869,-57.9464 L 76.9123,-57.6884 L 76.6075,-57.467 L 76.2773,-57.2855 L 75.927,-57.1468
 L 75.5621,-57.0531 L 75.1884,-57.0059 z
M 29.8116,-42.0059 L 29.4379,-42.0531 L 29.0729,-42.1468 L 28.7227,-42.2855 L 28.3925,-42.467 L 28.0877,-42.6884
 L 27.8131,-42.9464 L 27.5729,-43.2366 L 27.3711,-43.5547 L 27.2107,-43.8956 L 27.0942,-44.2539 L 27.0237,-44.624
 L 27,-45 L 27.0237,-45.376 L 27.0942,-45.7461 L 27.2107,-46.1044 L 27.3711,-46.4453 L 27.5729,-46.7634
 L 27.8131,-47.0536 L 28.0877,-47.3115 L 28.3925,-47.533 L 28.7227,-47.7145 L 29.0729,-47.8532 L 29.4379,-47.9469
 L 29.8116,-47.9941 L 30.1884,-47.9941 L 30.5621,-47.9469 L 30.927,-47.8532 L 31.2773,-47.7145 L 31.6075,-47.533
 L 31.9123,-47.3115 L 32.1869,-47.0536 L 32.427,-46.7634 L 32.6289,-46.4453 L 32.7893,-46.1044 L 32.9057,-45.7461
 L 32.9763,-45.376 L 33,-45 L 32.9763,-44.624 L 32.9057,-44.2539 L 32.7893,-43.8956 L 32.6289,-43.5547
 L 32.427,-43.2366 L 32.1869,-42.9464 L 31.9123,-42.6884 L 31.6075,-42.467 L 31.2773,-42.2855 L 30.927,-42.1468
 L 30.5621,-42.0531 L 30.1884,-42.0059 z
M 74.8116,-42.0059 L 74.4379,-42.0531 L 74.0729,-42.1468 L 73.7227,-42.2855 L 73.3925,-42.467 L 73.0877,-42.6884
 L 72.8131,-42.9464 L 72.5729,-43.2366 L 72.3711,-43.5547 L 72.2107,-43.8956 L 72.0942,-44.2539 L 72.0237,-44.624
 L 72,-45 L 72.0237,-45.376 L 72.0942,-45.7461 L 72.2107,-46.1044 L 72.3711,-46.4453 L 72.5729,-46.7634
 L 72.8131,-47.0536 L 73.0877,-47.3115 L 73.3925,-47.533 L 73.7227,-47.7145 L 74.0729,-47.8532 L 74.4379,-47.9469
 L 74.8116,-47.9941 L 75.1884,-47.9941 L 75.5621,-47.9469 L 75.927,-47.8532 L 76.2773,-47.7145 L 76.6075,-47.533
 L 76.9123,-47.3115 L 77.1869,-47.0536 L 77.427,-46.7634 L 77.6289,-46.4453 L 77.7893,-46.1044 L 77.9057,-45.7461
 L 77.9763,-45.376 L 78,-45 L 77.9763,-44.624 L 77.9057,-44.2539 L 77.7893,-43.8956 L 77.6289,-43.5547
 L 77.427,-43.2366 L 77.1869,-42.9464 L 76.9123,-42.6884 L 76.6075,-42.467 L 76.2773,-42.2855 L 75.927,-42.1468
 L 75.5621,-42.0531 L 75.1884,-42.0059 z
M 89.8116,-42.0059 L 89.4379,-42.0531 L 89.0729,-42.1468 L 88.7227,-42.2855 L 88.3925,-42.467 L 88.0877,-42.6884
 L 87.8131,-42.9464 L 87.5729,-43.2366 L 87.3711,-43.5547 L 87.2107,-43.8956 L 87.0942,-44.2539 L 87.0237,-44.624
 L 87,-45 L 87.0237,-45.376 L 87.0942,-45.7461 L 87.2107,-46.1044 L 87.3711,-46.4453 L 87.5729,-46.7634
 L 87.8131,-47.0536 L 88.0877,-47.3115 L 88.3925,-47.533 L 88.7227,-47.7145 L 89.0729,-47.8532 L 89.4379,-47.9469
 L 89.8116,-47.9941 L 90.1884,-47.9941 L 90.5621,-47.9469 L 90.927,-47.8532 L 91.2773,-47.7145 L 91.6075,-47.533
 L 91.9123,-47.3115 L 92.1869,-47.0536 L 92.427,-46.7634 L 92.6289,-46.4453 L 92.7893,-46.1044 L 92.9057,-45.7461
 L 92.9763,-45.376 L 93,-45 L 92.9763,-44.624 L 92.9057,-44.2539 L 92.7893,-43.8956 L 92.6289,-43.5547
 L 92.427,-43.2366 L 92.1869,-42.9464 L 91.9123,-42.6884 L 91.6075,-42.467 L 91.2773,-42.2855 L 90.927,-42.1468
 L 90.5621,-42.0531 L 90.1884,-42.0059 z
M 179.812,-42.0059 L 179.438,-42.0531 L 179.073,-42.1468 L 178.723,-42.2855 L 178.393,-42.467 L 178.088,-42.6884
 L 177.813,-42.9464 L 177.573,-43.2366 L 177.371,-43.5547 L 177.211,-43.8956 L 177.094,-44.2539 L 177.024,-44.624
 L 177,-45 L 177.024,-45.376 L 177.094,-45.7461 L 177.211,-46.1044 L 177.371,-46.4453 L 177.573,-46.7634
 L 177.813,-47.0536 L 178.088,-47.3115 L 178.393,-47.533 L 178.723,-47.7145 L 179.073,-47.8532 L 179.438,-47.9469
 L 179.812,-47.9941 L 180.188,-47.9941 L 180.562,-47.9469 L 180.927,-47.8532 L 181.277,-47.7145 L 181.607,-47.533
 L 181.912,-47.3115 L 182.187,-47.0536 L 182.427,-46.7634 L 182.629,-46.4453 L 182.789,-46.1044 L 182.906,-45.7461
 L 182.976,-45.376 L 183,-45 L 182.976,-44.624 L 182.906,-44.2539 L 182.789,-43.8956 L 182.629,-43.5547
 L 182.427,-43.2366 L 182.187,-42.9464 L 181.912,-42.6884 L 181.607,-42.467 L 181.277,-42.2855 L 180.927,-42.1468
 L 180.562,-42.0531 L 180.188,-42.0059 z
M 209.812,-42.0059 L 209.438,-42.0531 L 209.073,-42.1468 L 208.723,-42.2855 L 208.393,-42.467 L 208.088,-42.6884
 L 207.813,-42.9464 L 207.573,-43.2366 L 207.371,-43.5547 L 207.211,-43.8956 L 207.094,-44.2539 L 207.024,-44.624
 L 207,-45 L 207.024,-45.376 L 207.094,-45.7461 L 207.211,-46.1044 L 207.371,-46.4453 L 207.573,-46.7634
 L 207.813,-47.0536 L 208.088,-47.3115 L 208.393,-47.533 L 208.723,-47.7145 L 209.073,-47.8532 L 209.438,-47.9469
 L 209.812,-47.9941 L 210.188,-47.9941 L 210.562,-47.9469 L 210.927,-47.8532 L 211.277,-47.7145 L 211.607,-47.533
 L 211.912,-47.3115 L 212.187,-47.0536 L 212.427,-46.7634 L 212.629,-46.4453 L 212.789,-46.1044 L 212.906,-45.7461
 L 212.976,-45.376 L 213,-45 L 212.976,-44.624 L 212.906,-44.2539 L 212.789,-43.8956 L 212.629,-43.5547
 L 212.427,-43.2366 L 212.187,-42.9464 L 211.912,-42.6884 L 211.607,-42.467 L 211.277,-42.2855 L 210.927,-42.1468
 L 210.562,-42.0531 L 210.188,-42.0059 z
M 224.812,-42.0059 L 224.438,-42.0531 L 224.073,-42.1468 L 223.723,-42.2855 L 223.393,-42.467 L 223.088,-42.6884
 L 222.813,-42.9464 L 222.573,-43.2366 L 222.371,-43.5547 L 222.211,-43.8956 L 222.094,-44.2539 L 222.024,-44.624
 L 222,-45 L 222.024,-45.376 L 222.094,-45.7461 L 222.211,-46.1044 L 222.371,-46.4453 L 222.573,-46.7634
 L 222.813,-47.0536 L 223.088,-47.3115 L 223.393,-47.533 L 223.723,-47.7145 L 224.073,-47.8532 L 224.438,-47.9469
 L 224.812,-47.9941 L 225.188,-47.9941 L 225.562,-47.9469 L 225.927,-47.8532 L 226.277,-47.7145 L 226.607,-47.533
 L 226.912,-47.3115 L 227.187,-47.0536 L 227.427,-46.7634 L 227.629,-46.4453 L 227.789,-46.1044 L 227.906,-45.7461
 L 227.976,-45.376 L 228,-45 L 227.976,-44.624 L 227.906,-44.2539 L 227.789,-43.8956 L 227.629,-43.5547
 L 227.427,-43.2366 L 227.187,-42.9464 L 226.912,-42.6884 L 226.607,-42.467 L 226.277,-42.2855 L 225.927,-42.1468
 L 225.562,-42.0531 L 225.188,-42.0059 z
M 134.812,-42.0059 L 134.438,-42.0531 L 134.073,-42.1468 L 133.723,-42.2855 L 133.393,-42.467 L 133.088,-42.6884
 L 132.813,-42.9464 L 132.573,-43.2366 L 132.371,-43.5547 L 132.211,-43.8956 L 132.094,-44.2539 L 132.024,-44.624
 L 132,-45 L 132.024,-45.376 L 132.094,-45.7461 L 132.211,-46.1044 L 132.371,-46.4453 L 132.573,-46.7634
 L 132.813,-47.0536 L 133.088,-47.3115 L 133.393,-47.533 L 133.723,-47.7145 L 134.073,-47.8532 L 134.438,-47.9469
 L 134.812,-47.9941 L 135.188,-47.9941 L 135.562,-47.9469 L 135.927,-47.8532 L 136.277,-47.7145 L 136.607,-47.533
 L 136.912,-47.3115 L 137.187,-47.0536 L 137.427,-46.7634 L 137.629,-46.4453 L 137.789,-46.1044 L 137.906,-45.7461
 L 137.976,-45.376 L 138,-45 L 137.976,-44.624 L 137.906,-44.2539 L 137.789,-43.8956 L 137.629,-43.5547
 L 137.427,-43.2366 L 137.187,-42.9464 L 136.912,-42.6884 L 136.607,-42.467 L 136.277,-42.2855 L 135.927,-42.1468
 L 135.562,-42.0531 L 135.188,-42.0059 z
M 149.812,-42.0059 L 149.438,-42.0531 L 149.073,-42.1468 L 148.723,-42.2855 L 148.393,-42.467 L 148.088,-42.6884
 L 147.813,-42.9464 L 147.573,-43.2366 L 147.371,-43.5547 L 147.211,-43.8956 L 147.094,-44.2539 L 147.024,-44.624
 L 147,-45 L 147.024,-45.376 L 147.094,-45.7461 L 147.211,-46.1044 L 147.371,-46.4453 L 147.573,-46.7634
 L 147.813,-47.0536 L 148.088,-47.3115 L 148.393,-47.533 L 148.723,-47.7145 L 149.073,-47.8532 L 149.438,-47.9469
 L 149.812,-47.9941 L 150.188,-47.9941 L 150.562,-47.9469 L 150.927,-47.8532 L 151.277,-47.7145 L 151.607,-47.533
 L 151.912,-47.3115 L 152.187,-47.0536 L 152.427,-46.7634 L 152.629,-46.4453 L 152.789,-46.1044 L 152.906,-45.7461
 L 152.976,-45.376 L 153,-45 L 152.976,-44.624 L 152.906,-44.2539 L 152.789,-43.8956 L 152.629,-43.5547
 L 152.427,-43.2366 L 152.187,-42.9464 L 151.912,-42.6884 L 151.607,-42.467 L 151.277,-42.2855 L 150.927,-42.1468
 L 150.562,-42.0531 L 150.188,-42.0059 z
M 164.812,-42.0059 L 164.438,-42.0531 L 164.073,-42.1468 L 163.723,-42.2855 L 163.393,-42.467 L 163.088,-42.6884
 L 162.813,-42.9464 L 162.573,-43.2366 L 162.371,-43.5547 L 162.211,-43.8956 L 162.094,-44.2539 L 162.024,-44.624
 L 162,-45 L 162.024,-45.376 L 162.094,-45.7461 L 162.211,-46.1044 L 162.371,-46.4453 L 162.573,-46.7634
 L 162.813,-47.0536 L 163.088,-47.3115 L 163.393,-47.533 L 163.723,-47.7145 L 164.073,-47.8532 L 164.438,-47.9469
 L 164.812,-47.9941 L 165.188,-47.9941 L 165.562,-47.9469 L 165.927,-47.8532 L 166.277,-47.7145 L 166.607,-47.533
 L 166.912,-47.3115 L 167.187,-47.0536 L 167.427,-46.7634 L 167.629,-46.4453 L 167.789,-46.1044 L 167.906,-45.7461
 L 167.976,-45.376 L 168,-45 L 167.976,-44.624 L 167.906,-44.2539 L 167.789,-43.8956 L 167.629,-43.5547
 L 167.427,-43.2366 L 167.187,-42.9464 L 166.912,-42.6884 L 166.607,-42.467 L 166.277,-42.2855 L 165.927,-42.1468
 L 165.562,-42.0531 L 165.188,-42.0059 z
M 119.812,-42.0059 L 119.438,-42.0531 L 119.073,-42.1468 L 118.723,-42.2855 L 118.393,-42.467 L 118.088,-42.6884
 L 117.813,-42.9464 L 117.573,-43.2366 L 117.371,-43.5547 L 117.211,-43.8956 L 117.094,-44.2539 L 117.024,-44.624
 L 117,-45 L 117.024,-45.376 L 117.094,-45.7461 L 117.211,-46.1044 L 117.371,-46.4453 L 117.573,-46.7634
 L 117.813,-47.0536 L 118.088,-47.3115 L 118.393,-47.533 L 118.723,-47.7145 L 119.073,-47.8532 L 119.438,-47.9469
 L 119.812,-47.9941 L 120.188,-47.9941 L 120.562,-47.9469 L 120.927,-47.8532 L 121.277,-47.7145 L 121.607,-47.533
 L 121.912,-47.3115 L 122.187,-47.0536 L 122.427,-46.7634 L 122.629,-46.4453 L 122.789,-46.1044 L 122.906,-45.7461
 L 122.976,-45.376 L 123,-45 L 122.976,-44.624 L 122.906,-44.2539 L 122.789,-43.8956 L 122.629,-43.5547
 L 122.427,-43.2366 L 122.187,-42.9464 L 121.912,-42.6884 L 121.607,-42.467 L 121.277,-42.2855 L 120.927,-42.1468
 L 120.562,-42.0531 L 120.188,-42.0059 z
M 194.812,-42.0059 L 194.438,-42.0531 L 194.073,-42.1468 L 193.723,-42.2855 L 193.393,-42.467 L 193.088,-42.6884
 L 192.813,-42.9464 L 192.573,-43.2366 L 192.371,-43.5547 L 192.211,-43.8956 L 192.094,-44.2539 L 192.024,-44.624
 L 192,-45 L 192.024,-45.376 L 192.094,-45.7461 L 192.211,-46.1044 L 192.371,-46.4453 L 192.573,-46.7634
 L 192.813,-47.0536 L 193.088,-47.3115 L 193.393,-47.533 L 193.723,-47.7145 L 194.073,-47.8532 L 194.438,-47.9469
 L 194.812,-47.9941 L 195.188,-47.9941 L 195.562,-47.9469 L 195.927,-47.8532 L 196.277,-47.7145 L 196.607,-47.533
 L 196.912,-47.3115 L 197.187,-47.0536 L 197.427,-46.7634 L 197.629,-46.4453 L 197.789,-46.1044 L 197.906,-45.7461
 L 197.976,-45.376 L 198,-45 L 197.976,-44.624 L 197.906,-44.2539 L 197.789,-43.8956 L 197.629,-43.5547
 L 197.427,-43.2366 L 197.187,-42.9464 L 196.912,-42.6884 L 196.607,-42.467 L 196.277,-42.2855 L 195.927,-42.1468
 L 195.562,-42.0531 L 195.188,-42.0059 z
M 44.8116,-42.0059 L 44.4379,-42.0531 L 44.0729,-42.1468 L 43.7227,-42.2855 L 43.3925,-42.467 L 43.0877,-42.6884
 L 42.8131,-42.9464 L 42.5729,-43.2366 L 42.3711,-43.5547 L 42.2107,-43.8956 L 42.0942,-44.2539 L 42.0237,-44.624
 L 42,-45 L 42.0237,-45.376 L 42.0942,-45.7461 L 42.2107,-46.1044 L 42.3711,-46.4453 L 42.5729,-46.7634
 L 42.8131,-47.0536 L 43.0877,-47.3115 L 43.3925,-47.533 L 43.7227,-47.7145 L 44.0729,-47.8532 L 44.4379,-47.9469
 L 44.8116,-47.9941 L 45.1884,-47.9941 L 45.5621,-47.9469 L 45.927,-47.8532 L 46.2773,-47.7145 L 46.6075,-47.533
 L 46.9123,-47.3115 L 47.1869,-47.0536 L 47.427,-46.7634 L 47.6289,-46.4453 L 47.7893,-46.1044 L 47.9057,-45.7461
 L 47.9763,-45.376 L 48,-45 L 47.9763,-44.624 L 47.9057,-44.2539 L 47.7893,-43.8956 L 47.6289,-43.5547
 L 47.427,-43.2366 L 47.1869,-42.9464 L 46.9123,-42.6884 L 46.6075,-42.467 L 46.2773,-42.2855 L 45.927,-42.1468
 L 45.5621,-42.0531 L 45.1884,-42.0059 z
M 104.812,-42.0059 L 104.438,-42.0531 L 104.073,-42.1468 L 103.723,-42.2855 L 103.393,-42.467 L 103.088,-42.6884
 L 102.813,-42.9464 L 102.573,-43.2366 L 102.371,-43.5547 L 102.211,-43.8956 L 102.094,-44.2539 L 102.024,-44.624
 L 102,-45 L 102.024,-45.376 L 102.094,-45.7461 L 102.211,-46.1044 L 102.371,-46.4453 L 102.573,-46.7634
 L 102.813,-47.0536 L 103.088,-47.3115 L 103.393,-47.533 L 103.723,-47.7145 L 104.073,-47.8532 L 104.438,-47.9469
 L 104.812,-47.9941 L 105.188,-47.9941 L 105.562,-47.9469 L 105.927,-47.8532 L 106.277,-47.7145 L 106.607,-47.533
 L 106.912,-47.3115 L 107.187,-47.0536 L 107.427,-46.7634 L 107.629,-46.4453 L 107.789,-46.1044 L 107.906,-45.7461
 L 107.976,-45.376 L 108,-45 L 107.976,-44.624 L 107.906,-44.2539 L 107.789,-43.8956 L 107.629,-43.5547
 L 107.427,-43.2366 L 107.187,-42.9464 L 106.912,-42.6884 L 106.607,-42.467 L 106.277,-42.2855 L 105.927,-42.1468
 L 105.562,-42.0531 L 105.188,-42.0059 z
M 14.8116,-42.0059 L 14.4379,-42.0531 L 14.0729,-42.1468 L 13.7227,-42.2855 L 13.3925,-42.467 L 13.0877,-42.6884
 L 12.8131,-42.9464 L 12.5729,-43.2366 L 12.3711,-43.5547 L 12.2107,-43.8956 L 12.0942,-44.2539 L 12.0237,-44.624
 L 12,-45 L 12.0237,-45.376 L 12.0942,-45.7461 L 12.2107,-46.1044 L 12.3711,-46.4453 L 12.5729,-46.7634
 L 12.8131,-47.0536 L 13.0877,-47.3115 L 13.3925,-47.533 L 13.7227,-47.7145 L 14.0729,-47.8532 L 14.4379,-47.9469
 L 14.8116,-47.9941 L 15.1884,-47.9941 L 15.5621,-47.9469 L 15.927,-47.8532 L 16.2773,-47.7145 L 16.6075,-47.533
 L 16.9123,-47.3115 L 17.1869,-47.0536 L 17.427,-46.7634 L 17.6289,-46.4453 L 17.7893,-46.1044 L 17.9057,-45.7461
 L 17.9763,-45.376 L 18,-45 L 17.9763,-44.624 L 17.9057,-44.2539 L 17.7893,-43.8956 L 17.6289,-43.5547
 L 17.427,-43.2366 L 17.1869,-42.9464 L 16.9123,-42.6884 L 16.6075,-42.467 L 16.2773,-42.2855 L 15.927,-42.1468
 L 15.5621,-42.0531 L 15.1884,-42.0059 z
M 59.8116,-42.0059 L 59.4379,-42.0531 L 59.0729,-42.1468 L 58.7227,-42.2855 L 58.3925,-42.467 L 58.0877,-42.6884
 L 57.8131,-42.9464 L 57.5729,-43.2366 L 57.3711,-43.5547 L 57.2107,-43.8956 L 57.0942,-44.2539 L 57.0237,-44.624
 L 57,-45 L 57.0237,-45.376 L 57.0942,-45.7461 L 57.2107,-46.1044 L 57.3711,-46.4453 L 57.5729,-46.7634
 L 57.8131,-47.0536 L 58.0877,-47.3115 L 58.3925,-47.533 L 58.7227,-47.7145 L 59.0729,-47.8532 L 59.4379,-47.9469
 L 59.8116,-47.9941 L 60.1884,-47.9941 L 60.5621,-47.9469 L 60.927,-47.8532 L 61.2773,-47.7145 L 61.6075,-47.533
 L 61.9123,-47.3115 L 62.1869,-47.0536 L 62.427,-46.7634 L 62.6289,-46.4453 L 62.7893,-46.1044 L 62.9057,-45.7461
 L 62.9763,-45.376 L 63,-45 L 62.9763,-44.624 L 62.9057,-44.2539 L 62.7893,-43.8956 L 62.6289,-43.5547
 L 62.427,-43.2366 L 62.1869,-42.9464 L 61.9123,-42.6884 L 61.6075,-42.467 L 61.2773,-42.2855 L 60.927,-42.1468
 L 60.5621,-42.0531 L 60.1884,-42.0059 z
M 89.8116,-27.0059 L 89.4379,-27.0531 L 89.0729,-27.1468 L 88.7227,-27.2855 L 88.3925,-27.467 L 88.0877,-27.6884
 L 87.8131,-27.9464 L 87.5729,-28.2366 L 87.3711,-28.5547 L 87.2107,-28.8956 L 87.0942,-29.2539 L 87.0237,-29.624
 L 87,-30 L 87.0237,-30.376 L 87.0942,-30.7461 L 87.2107,-31.1044 L 87.3711,-31.4453 L 87.5729,-31.7634
 L 87.8131,-32.0536 L 88.0877,-32.3115 L 88.3925,-32.533 L 88.7227,-32.7145 L 89.0729,-32.8532 L 89.4379,-32.9469
 L 89.8116,-32.9941 L 90.1884,-32.9941 L 90.5621,-32.9469 L 90.927,-32.8532 L 91.2773,-32.7145 L 91.6075,-32.533
 L 91.9123,-32.3115 L 92.1869,-32.0536 L 92.427,-31.7634 L 92.6289,-31.4453 L 92.7893,-31.1044 L 92.9057,-30.7461
 L 92.9763,-30.376 L 93,-30 L 92.9763,-29.624 L 92.9057,-29.2539 L 92.7893,-28.8956 L 92.6289,-28.5547
 L 92.427,-28.2366 L 92.1869,-27.9464 L 91.9123,-27.6884 L 91.6075,-27.467 L 91.2773,-27.2855 L 90.927,-27.1468
 L 90.5621,-27.0531 L 90.1884,-27.0059 z
M 119.812,-27.0059 L 119.438,-27.0531 L 119.073,-27.1468 L 118.723,-27.2855 L 118.393,-27.467 L 118.088,-27.6884
 L 117.813,-27.9464 L 117.573,-28.2366 L 117.371,-28.5547 L 117.211,-28.8956 L 117.094,-29.2539 L 117.024,-29.624
 L 117,-30 L 117.024,-30.376 L 117.094,-30.7461 L 117.211,-31.1044 L 117.371,-31.4453 L 117.573,-31.7634
 L 117.813,-32.0536 L 118.088,-32.3115 L 118.393,-32.533 L 118.723,-32.7145 L 119.073,-32.8532 L 119.438,-32.9469
 L 119.812,-32.9941 L 120.188,-32.9941 L 120.562,-32.9469 L 120.927,-32.8532 L 121.277,-32.7145 L 121.607,-32.533
 L 121.912,-32.3115 L 122.187,-32.0536 L 122.427,-31.7634 L 122.629,-31.4453 L 122.789,-31.1044 L 122.906,-30.7461
 L 122.976,-30.376 L 123,-30 L 122.976,-29.624 L 122.906,-29.2539 L 122.789,-28.8956 L 122.629,-28.5547
 L 122.427,-28.2366 L 122.187,-27.9464 L 121.912,-27.6884 L 121.607,-27.467 L 121.277,-27.2855 L 120.927,-27.1468
 L 120.562,-27.0531 L 120.188,-27.0059 z
M 14.8116,-27.0059 L 14.4379,-27.0531 L 14.0729,-27.1468 L 13.7227,-27.2855 L 13.3925,-27.467 L 13.0877,-27.6884
 L 12.8131,-27.9464 L 12.5729,-28.2366 L 12.3711,-28.5547 L 12.2107,-28.8956 L 12.0942,-29.2539 L 12.0237,-29.624
 L 12,-30 L 12.0237,-30.376 L 12.0942,-30.7461 L 12.2107,-31.1044 L 12.3711,-31.4453 L 12.5729,-31.7634
 L 12.8131,-32.0536 L 13.0877,-32.3115 L 13.3925,-32.533 L 13.7227,-32.7145 L 14.0729,-32.8532 L 14.4379,-32.9469
 L 14.8116,-32.9941 L 15.1884,-32.9941 L 15.5621,-32.9469 L 15.927,-32.8532 L 16.2773,-32.7145 L 16.6075,-32.533
 L 16.9123,-32.3115 L 17.1869,-32.0536 L 17.427,-31.7634 L 17.6289,-31.4453 L 17.7893,-31.1044 L 17.9057,-30.7461
 L 17.9763,-30.376 L 18,-30 L 17.9763,-29.624 L 17.9057,-29.2539 L 17.7893,-28.8956 L 17.6289,-28.5547
 L 17.427,-28.2366 L 17.1869,-27.9464 L 16.9123,-27.6884 L 16.6075,-27.467 L 16.2773,-27.2855 L 15.927,-27.1468
 L 15.5621,-27.0531 L 15.1884,-27.0059 z
M 149.812,-27.0059 L 149.438,-27.0531 L 149.073,-27.1468 L 148.723,-27.2855 L 148.393,-27.467 L 148.088,-27.6884
 L 147.813,-27.9464 L 147.573,-28.2366 L 147.371,-28.5547 L 147.211,-28.8956 L 147.094,-29.2539 L 147.024,-29.624
 L 147,-30 L 147.024,-30.376 L 147.094,-30.7461 L 147.211,-31.1044 L 147.371,-31.4453 L 147.573,-31.7634
 L 147.813,-32.0536 L 148.088,-32.3115 L 148.393,-32.533 L 148.723,-32.7145 L 149.073,-32.8532 L 149.438,-32.9469
 L 149.812,-32.9941 L 150.188,-32.9941 L 150.562,-32.9469 L 150.927,-32.8532 L 151.277,-32.7145 L 151.607,-32.533
 L 151.912,-32.3115 L 152.187,-32.0536 L 152.427,-31.7634 L 152.629,-31.4453 L 152.789,-31.1044 L 152.906,-30.7461
 L 152.976,-30.376 L 153,-30 L 152.976,-29.624 L 152.906,-29.2539 L 152.789,-28.8956 L 152.629,-28.5547
 L 152.427,-28.2366 L 152.187,-27.9464 L 151.912,-27.6884 L 151.607,-27.467 L 151.277,-27.2855 L 150.927,-27.1468
 L 150.562,-27.0531 L 150.188,-27.0059 z
M 209.812,-27.0059 L 209.438,-27.0531 L 209.073,-27.1468 L 208.723,-27.2855 L 208.393,-27.467 L 208.088,-27.6884
 L 207.813,-27.9464 L 207.573,-28.2366 L 207.371,-28.5547 L 207.211,-28.8956 L 207.094,-29.2539 L 207.024,-29.624
 L 207,-30 L 207.024,-30.376 L 207.094,-30.7461 L 207.211,-31.1044 L 207.371,-31.4453 L 207.573,-31.7634
 L 207.813,-32.0536 L 208.088,-32.3115 L 208.393,-32.533 L 208.723,-32.7145 L 209.073,-32.8532 L 209.438,-32.9469
 L 209.812,-32.9941 L 210.188,-32.9941 L 210.562,-32.9469 L 210.927,-32.8532 L 211.277,-32.7145 L 211.607,-32.533
 L 211.912,-32.3115 L 212.187,-32.0536 L 212.427,-31.7634 L 212.629,-31.4453 L 212.789,-31.1044 L 212.906,-30.7461
 L 212.976,-30.376 L 213,-30 L 212.976,-29.624 L 212.906,-29.2539 L 212.789,-28.8956 L 212.629,-28.5547
 L 212.427,-28.2366 L 212.187,-27.9464 L 211.912,-27.6884 L 211.607,-27.467 L 211.277,-27.2855 L 210.927,-27.1468
 L 210.562,-27.0531 L 210.188,-27.0059 z
M 59.8116,-27.0059 L 59.4379,-27.0531 L 59.0729,-27.1468 L 58.7227,-27.2855 L 58.3925,-27.467 L 58.0877,-27.6884
 L 57.8131,-27.9464 L 57.5729,-28.2366 L 57.3711,-28.5547 L 57.2107,-28.8956 L 57.0942,-29.2539 L 57.0237,-29.624
 L 57,-30 L 57.0237,-30.376 L 57.0942,-30.7461 L 57.2107,-31.1044 L 57.3711,-31.4453 L 57.5729,-31.7634
 L 57.8131,-32.0536 L 58.0877,-32.3115 L 58.3925,-32.533 L 58.7227,-32.7145 L 59.0729,-32.8532 L 59.4379,-32.9469
 L 59.8116,-32.9941 L 60.1884,-32.9941 L 60.5621,-32.9469 L 60.927,-32.8532 L 61.2773,-32.7145 L 61.6075,-32.533
 L 61.9123,-32.3115 L 62.1869,-32.0536 L 62.427,-31.7634 L 62.6289,-31.4453 L 62.7893,-31.1044 L 62.9057,-30.7461
 L 62.9763,-30.376 L 63,-30 L 62.9763,-29.624 L 62.9057,-29.2539 L 62.7893,-28.8956 L 62.6289,-28.5547
 L 62.427,-28.2366 L 62.1869,-27.9464 L 61.9123,-27.6884 L 61.6075,-27.467 L 61.2773,-27.2855 L 60.927,-27.1468
 L 60.5621,-27.0531 L 60.1884,-27.0059 z
M 179.812,-27.0059 L 179.438,-27.0531 L 179.073,-27.1468 L 178.723,-27.2855 L 178.393,-27.467 L 178.088,-27.6884
 L 177.813,-27.9464 L 177.573,-28.2366 L 177.371,-28.5547 L 177.211,-28.8956 L 177.094,-29.2539 L 177.024,-29.624
 L 177,-30 L 177.024,-30.376 L 177.094,-30.7461 L 177.211,-31.1044 L 177.371,-31.4453 L 177.573,-31.7634
 L 177.813,-32.0536 L 178.088,-32.3115 L 178.393,-32.533 L 178.723,-32.7145 L 179.073,-32.8532 L 179.438,-32.9469
 L 179.812,-32.9941 L 180.188,-32.9941 L 180.562,-32.9469 L 180.927,-32.8532 L 181.277,-32.7145 L 181.607,-32.533
 L 181.912,-32.3115 L 182.187,-32.0536 L 182.427,-31.7634 L 182.629,-31.4453 L 182.789,-31.1044 L 182.906,-30.7461
 L 182.976,-30.376 L 183,-30 L 182.976,-29.624 L 182.906,-29.2539 L 182.789,-28.8956 L 182.629,-28.5547
 L 182.427,-28.2366 L 182.187,-27.9464 L 181.912,-27.6884 L 181.607,-27.467 L 181.277,-27.2855 L 180.927,-27.1468
 L 180.562,-27.0531 L 180.188,-27.0059 z
M 29.8116,-27.0059 L 29.4379,-27.0531 L 29.0729,-27.1468 L 28.7227,-27.2855 L 28.3925,-27.467 L 28.0877,-27.6884
 L 27.8131,-27.9464 L 27.5729,-28.2366 L 27.3711,-28.5547 L 27.2107,-28.8956 L 27.0942,-29.2539 L 27.0237,-29.624
 L 27,-30 L 27.0237,-30.376 L 27.0942,-30.7461 L 27.2107,-31.1044 L 27.3711,-31.4453 L 27.5729,-31.7634
 L 27.8131,-32.0536 L 28.0877,-32.3115 L 28.3925,-32.533 L 28.7227,-32.7145 L 29.0729,-32.8532 L 29.4379,-32.9469
 L 29.8116,-32.9941 L 30.1884,-32.9941 L 30.5621,-32.9469 L 30.927,-32.8532 L 31.2773,-32.7145 L 31.6075,-32.533
 L 31.9123,-32.3115 L 32.1869,-32.0536 L 32.427,-31.7634 L 32.6289,-31.4453 L 32.7893,-31.1044 L 32.9057,-30.7461
 L 32.9763,-30.376 L 33,-30 L 32.9763,-29.624 L 32.9057,-29.2539 L 32.7893,-28.8956 L 32.6289,-28.5547
 L 32.427,-28.2366 L 32.1869,-27.9464 L 31.9123,-27.6884 L 31.6075,-27.467 L 31.2773,-27.2855 L 30.927,-27.1468
 L 30.5621,-27.0531 L 30.1884,-27.0059 z
M 44.8116,-27.0059 L 44.4379,-27.0531 L 44.0729,-27.1468 L 43.7227,-27.2855 L 43.3925,-27.467 L 43.0877,-27.6884
 L 42.8131,-27.9464 L 42.5729,-28.2366 L 42.3711,-28.5547 L 42.2107,-28.8956 L 42.0942,-29.2539 L 42.0237,-29.624
 L 42,-30 L 42.0237,-30.376 L 42.0942,-30.7461 L 42.2107,-31.1044 L 42.3711,-31.4453 L 42.5729,-31.7634
 L 42.8131,-32.0536 L 43.0877,-32.3115 L 43.3925,-32.533 L 43.7227,-32.7145 L 44.0729,-32.8532 L 44.4379,-32.9469
 L 44.8116,-32.9941 L 45.1884,-32.9941 L 45.5621,-32.9469 L 45.927,-32.8532 L 46.2773,-32.7145 L 46.6075,-32.533
 L 46.9123,-32.3115 L 47.1869,-32.0536 L 47.427,-31.7634 L 47.6289,-31.4453 L 47.7893,-31.1044 L 47.9057,-30.7461
 L 47.9763,-30.376 L 48,-30 L 47.9763,-29.624 L 47.9057,-29.2539 L 47.7893,-28.8956 L 47.6289,-28.5547
 L 47.427,-28.2366 L 47.1869,-27.9464 L 46.9123,-27.6884 L 46.6075,-27.467 L 46.2773,-27.2855 L 45.927,-27.1468
 L 45.5621,-27.0531 L 45.1884,-27.0059 z
M 194.812,-27.0059 L 194.438,-27.0531 L 194.073,-27.1468 L 193.723,-27.2855 L 193.393,-27.467 L 193.088,-27.6884
 L 192.813,-27.9464 L 192.573,-28.2366 L 192.371,-28.5547 L 192.211,-28.8956 L 192.094,-29.2539 L 192.024,-29.624
 L 192,-30 L 192.024,-30.376 L 192.094,-30.7461 L 192.211,-31.1044 L 192.371,-31.4453 L 192.573,-31.7634
 L 192.813,-32.0536 L 193.088,-32.3115 L 193.393,-32.533 L 193.723,-32.7145 L 194.073,-32.8532 L 194.438,-32.9469
 L 194.812,-32.9941 L 195.188,-32.9941 L 195.562,-32.9469 L 195.927,-32.8532 L 196.277,-32.7145 L 196.607,-32.533
 L 196.912,-32.3115 L 197.187,-32.0536 L 197.427,-31.7634 L 197.629,-31.4453 L 197.789,-31.1044 L 197.906,-30.7461
 L 197.976,-30.376 L 198,-30 L 197.976,-29.624 L 197.906,-29.2539 L 197.789,-28.8956 L 197.629,-28.5547
 L 197.427,-28.2366 L 197.187,-27.9464 L 196.912,-27.6884 L 196.607,-27.467 L 196.277,-27.2855 L 195.927,-27.1468
 L 195.562,-27.0531 L 195.188,-27.0059 z
M 74.8116,-27.0059 L 74.4379,-27.0531 L 74.0729,-27.1468 L 73.7227,-27.2855 L 73.3925,-27.467 L 73.0877,-27.6884
 L 72.8131,-27.9464 L 72.5729,-28.2366 L 72.3711,-28.5547 L 72.2107,-28.8956 L 72.0942,-29.2539 L 72.0237,-29.624
 L 72,-30 L 72.0237,-30.376 L 72.0942,-30.7461 L 72.2107,-31.1044 L 72.3711,-31.4453 L 72.5729,-31.7634
 L 72.8131,-32.0536 L 73.0877,-32.3115 L 73.3925,-32.533 L 73.7227,-32.7145 L 74.0729,-32.8532 L 74.4379,-32.9469
 L 74.8116,-32.9941 L 75.1884,-32.9941 L 75.5621,-32.9469 L 75.927,-32.8532 L 76.2773,-32.7145 L 76.6075,-32.533
 L 76.9123,-32.3115 L 77.1869,-32.0536 L 77.427,-31.7634 L 77.6289,-31.4453 L 77.7893,-31.1044 L 77.9057,-30.7461
 L 77.9763,-30.376 L 78,-30 L 77.9763,-29.624 L 77.9057,-29.2539 L 77.7893,-28.8956 L 77.6289,-28.5547
 L 77.427,-28.2366 L 77.1869,-27.9464 L 76.9123,-27.6884 L 76.6075,-27.467 L 76.2773,-27.2855 L 75.927,-27.1468
 L 75.5621,-27.0531 L 75.1884,-27.0059 z
M 164.812,-27.0059 L 164.438,-27.0531 L 164.073,-27.1468 L 163.723,-27.2855 L 163.393,-27.467 L 163.088,-27.6884
 L 162.813,-27.9464 L 162.573,-28.2366 L 162.371,-28.5547 L 162.211,-28.8956 L 162.094,-29.2539 L 162.024,-29.624
 L 162,-30 L 162.024,-30.376 L 162.094,-30.7461 L 162.211,-31.1044 L 162.371,-31.4453 L 162.573,-31.7634
 L 162.813,-32.0536 L 163.088,-32.3115 L 163.393,-32.533 L 163.723,-32.7145 L 164.073,-32.8532 L 164.438,-32.9469
 L 164.812,-32.9941 L 165.188,-32.9941 L 165.562,-32.9469 L 165.927,-32.8532 L 166.277,-32.7145 L 166.607,-32.533
 L 166.912,-32.3115 L 167.187,-32.0536 L 167.427,-31.7634 L 167.629,-31.4453 L 167.789,-31.1044 L 167.906,-30.7461
 L 167.976,-30.376 L 168,-30 L 167.976,-29.624 L 167.906,-29.2539 L 167.789,-28.8956 L 167.629,-28.5547
 L 167.427,-28.2366 L 167.187,-27.9464 L 166.912,-27.6884 L 166.607,-27.467 L 166.277,-27.2855 L 165.927,-27.1468
 L 165.562,-27.0531 L 165.188,-27.0059 z
M 134.812,-27.0059 L 134.438,-27.0531 L 134.073,-27.1468 L 133.723,-27.2855 L 133.393,-27.467 L 133.088,-27.6884
 L 132.813,-27.9464 L 132.573,-28.2366 L 132.371,-28.5547 L 132.211,-28.8956 L 132.094,-29.2539 L 132.024,-29.624
 L 132,-30 L 132.024,-30.376 L 132.094,-30.7461 L 132.211,-31.1044 L 132.371,-31.4453 L 132.573,-31.7634
 L 132.813,-32.0536 L 133.088,-32.3115 L 133.393,-32.533 L 133.723,-32.7145 L 134.073,-32.8532 L 134.438,-32.9469
 L 134.812,-32.9941 L 135.188,-32.9941 L 135.562,-32.9469 L 135.927,-32.8532 L 136.277,-32.7145 L 136.607,-32.533
 L 136.912,-32.3115 L 137.187,-32.0536 L 137.427,-31.7634 L 137.629,-31.4453 L 137.789,-31.1044 L 137.906,-30.7461
 L 137.976,-30.376 L 138,-30 L 137.976,-29.624 L 137.906,-29.2539 L 137.789,-28.8956 L 137.629,-28.5547
 L 137.427,-28.2366 L 137.187,-27.9464 L 136.912,-27.6884 L 136.607,-27.467 L 136.277,-27.2855 L 135.927,-27.1468
 L 135.562,-27.0531 L 135.188,-27.0059 z
M 224.812,-27.0059 L 224.438,-27.0531 L 224.073,-27.1468 L 223.723,-27.2855 L 223.393,-27.467 L 223.088,-27.6884
 L 222.813,-27.9464 L 222.573,-28.2366 L 222.371,-28.5547 L 222.211,-28.8956 L 222.094,-29.2539 L 222.024,-29.624
 L 222,-30 L 222.024,-30.376 L 222.094,-30.7461 L 222.211,-31.1044 L 222.371,-31.4453 L 222.573,-31.7634
 L 222.813,-32.0536 L 223.088,-32.3115 L 223.393,-32.533 L 223.723,-32.7145 L 224.073,-32.8532 L 224.438,-32.9469
 L 224.812,-32.9941 L 225.188,-32.9941 L 225.562,-32.9469 L 225.927,-32.8532 L 226.277,-32.7145 L 226.607,-32.533
 L 226.912,-32.3115 L 227.187,-32.0536 L 227.427,-31.7634 L 227.629,-31.4453 L 227.789,-31.1044 L 227.906,-30.7461
 L 227.976,-30.376 L 228,-30 L 227.976,-29.624 L 227.906,-29.2539 L 227.789,-28.8956 L 227.629,-28.5547
 L 227.427,-28.2366 L 227.187,-27.9464 L 226.912,-27.6884 L 226.607,-27.467 L 226.277,-27.2855 L 225.927,-27.1468
 L 225.562,-27.0531 L 225.188,-27.0059 z
M 104.812,-27.0059 L 104.438,-27.0531 L 104.073,-27.1468 L 103.723,-27.2855 L 103.393,-27.467 L 103.088,-27.6884
 L 102.813,-27.9464 L 102.573,-28.2366 L 102.371,-28.5547 L 102.211,-28.8956 L 102.094,-29.2539 L 102.024,-29.624
 L 102,-30 L 102.024,-30.376 L 102.094,-30.7461 L 102.211,-31.1044 L 102.371,-31.4453 L 102.573,-31.7634
 L 102.813,-32.0536 L 103.088,-32.3115 L 103.393,-32.533 L 103.723,-32.7145 L 104.073,-32.8532 L 104.438,-32.9469
 L 104.812,-32.9941 L 105.188,-32.9941 L 105.562,-32.9469 L 105.927,-32.8532 L 106.277,-32.7145 L 106.607,-32.533
 L 106.912,-32.3115 L 107.187,-32.0536 L 107.427,-31.7634 L 107.629,-31.4453 L 107.789,-31.1044 L 107.906,-30.7461
 L 107.976,-30.376 L 108,-30 L 107.976,-29.624 L 107.906,-29.2539 L 107.789,-28.8956 L 107.629,-28.5547
 L 107.427,-28.2366 L 107.187,-27.9464 L 106.912,-27.6884 L 106.607,-27.467 L 106.277,-27.2855 L 105.927,-27.1468
 L 105.562,-27.0531 L 105.188,-27.0059 z
M 59.8116,-12.0059 L 59.4379,-12.0531 L 59.0729,-12.1468 L 58.7227,-12.2855 L 58.3925,-12.467 L 58.0877,-12.6884
 L 57.8131,-12.9464 L 57.5729,-13.2366 L 57.3711,-13.5547 L 57.2107,-13.8956 L 57.0942,-14.2539 L 57.0237,-14.624
 L 57,-15 L 57.0237,-15.376 L 57.0942,-15.7461 L 57.2107,-16.1044 L 57.3711,-16.4453 L 57.5729,-16.7634
 L 57.8131,-17.0536 L 58.0877,-17.3115 L 58.3925,-17.533 L 58.7227,-17.7145 L 59.0729,-17.8532 L 59.4379,-17.9469
 L 59.8116,-17.9941 L 60.1884,-17.9941 L 60.5621,-17.9469 L 60.927,-17.8532 L 61.2773,-17.7145 L 61.6075,-17.533
 L 61.9123,-17.3115 L 62.1869,-17.0536 L 62.427,-16.7634 L 62.6289,-16.4453 L 62.7893,-16.1044 L 62.9057,-15.7461
 L 62.9763,-15.376 L 63,-15 L 62.9763,-14.624 L 62.9057,-14.2539 L 62.7893,-13.8956 L 62.6289,-13.5547
 L 62.427,-13.2366 L 62.1869,-12.9464 L 61.9123,-12.6884 L 61.6075,-12.467 L 61.2773,-12.2855 L 60.927,-12.1468
 L 60.5621,-12.0531 L 60.1884,-12.0059 z
M 224.812,-12.0059 L 224.438,-12.0531 L 224.073,-12.1468 L 223.723,-12.2855 L 223.393,-12.467 L 223.088,-12.6884
 L 222.813,-12.9464 L 222.573,-13.2366 L 222.371,-13.5547 L 222.211,-13.8956 L 222.094,-14.2539 L 222.024,-14.624
 L 222,-15 L 222.024,-15.376 L 222.094,-15.7461 L 222.211,-16.1044 L 222.371,-16.4453 L 222.573,-16.7634
 L 222.813,-17.0536 L 223.088,-17.3115 L 223.393,-17.533 L 223.723,-17.7145 L 224.073,-17.8532 L 224.438,-17.9469
 L 224.812,-17.9941 L 225.188,-17.9941 L 225.562,-17.9469 L 225.927,-17.8532 L 226.277,-17.7145 L 226.607,-17.533
 L 226.912,-17.3115 L 227.187,-17.0536 L 227.427,-16.7634 L 227.629,-16.4453 L 227.789,-16.1044 L 227.906,-15.7461
 L 227.976,-15.376 L 228,-15 L 227.976,-14.624 L 227.906,-14.2539 L 227.789,-13.8956 L 227.629,-13.5547
 L 227.427,-13.2366 L 227.187,-12.9464 L 226.912,-12.6884 L 226.607,-12.467 L 226.277,-12.2855 L 225.927,-12.1468
 L 225.562,-12.0531 L 225.188,-12.0059 z
M 209.812,-12.0059 L 209.438,-12.0531 L 209.073,-12.1468 L 208.723,-12.2855 L 208.393,-12.467 L 208.088,-12.6884
 L 207.813,-12.9464 L 207.573,-13.2366 L 207.371,-13.5547 L 207.211,-13.8956 L 207.094,-14.2539 L 207.024,-14.624
 L 207,-15 L 207.024,-15.376 L 207.094,-15.7461 L 207.211,-16.1044 L 207.371,-16.4453 L 207.573,-16.7634
 L 207.813,-17.0536 L 208.088,-17.3115 L 208.393,-17.533 L 208.723,-17.7145 L 209.073,-17.8532 L 209.438,-17.9469
 L 209.812,-17.9941 L 210.188,-17.9941 L 210.562,-17.9469 L 210.927,-17.8532 L 211.277,-17.7145 L 211.607,-17.533
 L 211.912,-17.3115 L 212.187,-17.0536 L 212.427,-16.7634 L 212.629,-16.4453 L 212.789,-16.1044 L 212.906,-15.7461
 L 212.976,-15.376 L 213,-15 L 212.976,-14.624 L 212.906,-14.2539 L 212.789,-13.8956 L 212.629,-13.5547
 L 212.427,-13.2366 L 212.187,-12.9464 L 211.912,-12.6884 L 211.607,-12.467 L 211.277,-12.2855 L 210.927,-12.1468
 L 210.562,-12.0531 L 210.188,-12.0059 z
M 14.8116,-12.0059 L 14.4379,-12.0531 L 14.0729,-12.1468 L 13.7227,-12.2855 L 13.3925,-12.467 L 13.0877,-12.6884
 L 12.8131,-12.9464 L 12.5729,-13.2366 L 12.3711,-13.5547 L 12.2107,-13.8956 L 12.0942,-14.2539 L 12.0237,-14.624
 L 12,-15 L 12.0237,-15.376 L 12.0942,-15.7461 L 12.2107,-16.1044 L 12.3711,-16.4453 L 12.5729,-16.7634
 L 12.8131,-17.0536 L 13.0877,-17.3115 L 13.3925,-17.533 L 13.7227,-17.7145 L 14.0729,-17.8532 L 14.4379,-17.9469
 L 14.8116,-17.9941 L 15.1884,-17.9941 L 15.5621,-17.9469 L 15.927,-17.8532 L 16.2773,-17.7145 L 16.6075,-17.533
 L 16.9123,-17.3115 L 17.1869,-17.0536 L 17.427,-16.7634 L 17.6289,-16.4453 L 17.7893,-16.1044 L 17.9057,-15.7461
 L 17.9763,-15.376 L 18,-15 L 17.9763,-14.624 L 17.9057,-14.2539 L 17.7893,-13.8956 L 17.6289,-13.5547
 L 17.427,-13.2366 L 17.1869,-12.9464 L 16.9123,-12.6884 L 16.6075,-12.467 L 16.2773,-12.2855 L 15.927,-12.1468
 L 15.5621,-12.0531 L 15.1884,-12.0059 z
M 29.8116,-12.0059 L 29.4379,-12.0531 L 29.0729,-12.1468 L 28.7227,-12.2855 L 28.3925,-12.467 L 28.0877,-12.6884
 L 27.8131,-12.9464 L 27.5729,-13.2366 L 27.3711,-13.5547 L 27.2107,-13.8956 L 27.0942,-14.2539 L 27.0237,-14.624
 L 27,-15 L 27.0237,-15.376 L 27.0942,-15.7461 L 27.2107,-16.1044 L 27.3711,-16.4453 L 27.5729,-16.7634
 L 27.8131,-17.0536 L 28.0877,-17.3115 L 28.3925,-17.533 L 28.7227,-17.7145 L 29.0729,-17.8532 L 29.4379,-17.9469
 L 29.8116,-17.9941 L 30.1884,-17.9941 L 30.5621,-17.9469 L 30.927,-17.8532 L 31.2773,-17.7145 L 31.6075,-17.533
 L 31.9123,-17.3115 L 32.1869,-17.0536 L 32.427,-16.7634 L 32.6289,-16.4453 L 32.7893,-16.1044 L 32.9057,-15.7461
 L 32.9763,-15.376 L 33,-15 L 32.9763,-14.624 L 32.9057,-14.2539 L 32.7893,-13.8956 L 32.6289,-13.5547
 L 32.427,-13.2366 L 32.1869,-12.9464 L 31.9123,-12.6884 L 31.6075,-12.467 L 31.2773,-12.2855 L 30.927,-12.1468
 L 30.5621,-12.0531 L 30.1884,-12.0059 z
M 194.812,-12.0059 L 194.438,-12.0531 L 194.073,-12.1468 L 193.723,-12.2855 L 193.393,-12.467 L 193.088,-12.6884
 L 192.813,-12.9464 L 192.573,-13.2366 L 192.371,-13.5547 L 192.211,-13.8956 L 192.094,-14.2539 L 192.024,-14.624
 L 192,-15 L 192.024,-15.376 L 192.094,-15.7461 L 192.211,-16.1044 L 192.371,-16.4453 L 192.573,-16.7634
 L 192.813,-17.0536 L 193.088,-17.3115 L 193.393,-17.533 L 193.723,-17.7145 L 194.073,-17.8532 L 194.438,-17.9469
 L 194.812,-17.9941 L 195.188,-17.9941 L 195.562,-17.9469 L 195.927,-17.8532 L 196.277,-17.7145 L 196.607,-17.533
 L 196.912,-17.3115 L 197.187,-17.0536 L 197.427,-16.7634 L 197.629,-16.4453 L 197.789,-16.1044 L 197.906,-15.7461
 L 197.976,-15.376 L 198,-15 L 197.976,-14.624 L 197.906,-14.2539 L 197.789,-13.8956 L 197.629,-13.5547
 L 197.427,-13.2366 L 197.187,-12.9464 L 196.912,-12.6884 L 196.607,-12.467 L 196.277,-12.2855 L 195.927,-12.1468
 L 195.562,-12.0531 L 195.188,-12.0059 z
M 44.8116,-12.0059 L 44.4379,-12.0531 L 44.0729,-12.1468 L 43.7227,-12.2855 L 43.3925,-12.467 L 43.0877,-12.6884
 L 42.8131,-12.9464 L 42.5729,-13.2366 L 42.3711,-13.5547 L 42.2107,-13.8956 L 42.0942,-14.2539 L 42.0237,-14.624
 L 42,-15 L 42.0237,-15.376 L 42.0942,-15.7461 L 42.2107,-16.1044 L 42.3711,-16.4453 L 42.5729,-16.7634
 L 42.8131,-17.0536 L 43.0877,-17.3115 L 43.3925,-17.533 L 43.7227,-17.7145 L 44.0729,-17.8532 L 44.4379,-17.9469
 L 44.8116,-17.9941 L 45.1884,-17.9941 L 45.5621,-17.9469 L 45.927,-17.8532 L 46.2773,-17.7145 L 46.6075,-17.533
 L 46.9123,-17.3115 L 47.1869,-17.0536 L 47.427,-16.7634 L 47.6289,-16.4453 L 47.7893,-16.1044 L 47.9057,-15.7461
 L 47.9763,-15.376 L 48,-15 L 47.9763,-14.624 L 47.9057,-14.2539 L 47.7893,-13.8956 L 47.6289,-13.5547
 L 47.427,-13.2366 L 47.1869,-12.9464 L 46.9123,-12.6884 L 46.6075,-12.467 L 46.2773,-12.2855 L 45.927,-12.1468
 L 45.5621,-12.0531 L 45.1884,-12.0059 z
M 179.812,-12.0059 L 179.438,-12.0531 L 179.073,-12.1468 L 178.723,-12.2855 L 178.393,-12.467 L 178.088,-12.6884
 L 177.813,-12.9464 L 177.573,-13.2366 L 177.371,-13.5547 L 177.211,-13.8956 L 177.094,-14.2539 L 177.024,-14.624
 L 177,-15 L 177.024,-15.376 L 177.094,-15.7461 L 177.211,-16.1044 L 177.371,-16.4453 L 177.573,-16.7634
 L 177.813,-17.0536 L 178.088,-17.3115 L 178.393,-17.533 L 178.723,-17.7145 L 179.073,-17.8532 L 179.438,-17.9469
 L 179.812,-17.9941 L 180.188,-17.9941 L 180.562,-17.9469 L 180.927,-17.8532 L 181.277,-17.7145 L 181.607,-17.533
 L 181.912,-17.3115 L 182.187,-17.0536 L 182.427,-16.7634 L 182.629,-16.4453 L 182.789,-16.1044 L 182.906,-15.7461
 L 182.976,-15.376 L 183,-15 L 182.976,-14.624 L 182.906,-14.2539 L 182.789,-13.8956 L 182.629,-13.5547
 L 182.427,-13.2366 L 182.187,-12.9464 L 181.912,-12.6884 L 181.607,-12.467 L 181.277,-12.2855 L 180.927,-12.1468
 L 180.562,-12.0531 L 180.188,-12.0059 z
M 119.812,-12.0059 L 119.438,-12.0531 L 119.073,-12.1468 L 118.723,-12.2855 L 118.393,-12.467 L 118.088,-12.6884
 L 117.813,-12.9464 L 117.573,-13.2366 L 117.371,-13.5547 L 117.211,-13.8956 L 117.094,-14.2539 L 117.024,-14.624
 L 117,-15 L 117.024,-15.376 L 117.094,-15.7461 L 117.211,-16.1044 L 117.371,-16.4453 L 117.573,-16.7634
 L 117.813,-17.0536 L 118.088,-17.3115 L 118.393,-17.533 L 118.723,-17.7145 L 119.073,-17.8532 L 119.438,-17.9469
 L 119.812,-17.9941 L 120.188,-17.9941 L 120.562,-17.9469 L 120.927,-17.8532 L 121.277,-17.7145 L 121.607,-17.533
 L 121.912,-17.3115 L 122.187,-17.0536 L 122.427,-16.7634 L 122.629,-16.4453 L 122.789,-16.1044 L 122.906,-15.7461
 L 122.976,-15.376 L 123,-15 L 122.976,-14.624 L 122.906,-14.2539 L 122.789,-13.8956 L 122.629,-13.5547
 L 122.427,-13.2366 L 122.187,-12.9464 L 121.912,-12.6884 L 121.607,-12.467 L 121.277,-12.2855 L 120.927,-12.1468
 L 120.562,-12.0531 L 120.188,-12.0059 z
M 104.812,-12.0059 L 104.438,-12.0531 L 104.073,-12.1468 L 103.723,-12.2855 L 103.393,-12.467 L 103.088,-12.6884
 L 102.813,-12.9464 L 102.573,-13.2366 L 102.371,-13.5547 L 102.211,-13.8956 L 102.094,-14.2539 L 102.024,-14.624
 L 102,-15 L 102.024,-15.376 L 102.094,-15.7461 L 102.211,-16.1044 L 102.371,-16.4453 L 102.573,-16.7634
 L 102.813,-17.0536 L 103.088,-17.3115 L 103.393,-17.533 L 103.723,-17.7145 L 104.073,-17.8532 L 104.438,-17.9469
 L 104.812,-17.9941 L 105.188,-17.9941 L 105.562,-17.9469 L 105.927,-17.8532 L 106.277,-17.7145 L 106.607,-17.533
 L 106.912,-17.3115 L 107.187,-17.0536 L 107.427,-16.7634 L 107.629,-16.4453 L 107.789,-16.1044 L 107.906,-15.7461
 L 107.976,-15.376 L 108,-15 L 107.976,-14.624 L 107.906,-14.2539 L 107.789,-13.8956 L 107.629,-13.5547
 L 107.427,-13.2366 L 107.187,-12.9464 L 106.912,-12.6884 L 106.607,-12.467 L 106.277,-12.2855 L 105.927,-12.1468
 L 105.562,-12.0531 L 105.188,-12.0059 z
M 134.812,-12.0059 L 134.438,-12.0531 L 134.073,-12.1468 L 133.723,-12.2855 L 133.393,-12.467 L 133.088,-12.6884
 L 132.813,-12.9464 L 132.573,-13.2366 L 132.371,-13.5547 L 132.211,-13.8956 L 132.094,-14.2539 L 132.024,-14.624
 L 132,-15 L 132.024,-15.376 L 132.094,-15.7461 L 132.211,-16.1044 L 132.371,-16.4453 L 132.573,-16.7634
 L 132.813,-17.0536 L 133.088,-17.3115 L 133.393,-17.533 L 133.723,-17.7145 L 134.073,-17.8532 L 134.438,-17.9469
 L 134.812,-17.9941 L 135.188,-17.9941 L 135.562,-17.9469 L 135.927,-17.8532 L 136.277,-17.7145 L 136.607,-17.533
 L 136.912,-17.3115 L 137.187,-17.0536 L 137.427,-16.7634 L 137.629,-16.4453 L 137.789,-16.1044 L 137.906,-15.7461
 L 137.976,-15.376 L 138,-15 L 137.976,-14.624 L 137.906,-14.2539 L 137.789,-13.8956 L 137.629,-13.5547
 L 137.427,-13.2366 L 137.187,-12.9464 L 136.912,-12.6884 L 136.607,-12.467 L 136.277,-12.2855 L 135.927,-12.1468
 L 135.562,-12.0531 L 135.188,-12.0059 z
M 89.8116,-12.0059 L 89.4379,-12.0531 L 89.0729,-12.1468 L 88.7227,-12.2855 L 88.3925,-12.467 L 88.0877,-12.6884
 L 87.8131,-12.9464 L 87.5729,-13.2366 L 87.3711,-13.5547 L 87.2107,-13.8956 L 87.0942,-14.2539 L 87.0237,-14.624
 L 87,-15 L 87.0237,-15.376 L 87.0942,-15.7461 L 87.2107,-16.1044 L 87.3711,-16.4453 L 87.5729,-16.7634
 L 87.8131,-17.0536 L 88.0877,-17.3115 L 88.3925,-17.533 L 88.7227,-17.7145 L 89.0729,-17.8532 L 89.4379,-17.9469
 L 89.8116,-17.9941 L 90.1884,-17.9941 L 90.5621,-17.9469 L 90.927,-17.8532 L 91.2773,-17.7145 L 91.6075,-17.533
 L 91.9123,-17.3115 L 92.1869,-17.0536 L 92.427,-16.7634 L 92.6289,-16.4453 L 92.7893,-16.1044 L 92.9057,-15.7461
 L 92.9763,-15.376 L 93,-15 L 92.9763,-14.624 L 92.9057,-14.2539 L 92.7893,-13.8956 L 92.6289,-13.5547
 L 92.427,-13.2366 L 92.1869,-12.9464 L 91.9123,-12.6884 L 91.6075,-12.467 L 91.2773,-12.2855 L 90.927,-12.1468
 L 90.5621,-12.0531 L 90.1884,-12.0059 z
M 149.812,-12.0059 L 149.438,-12.0531 L 149.073,-12.1468 L 148.723,-12.2855 L 148.393,-12.467 L 148.088,-12.6884
 L 147.813,-12.9464 L 147.573,-13.2366 L 147.371,-13.5547 L 147.211,-13.8956 L 147.094,-14.2539 L 147.024,-14.624
 L 147,-15 L 147.024,-15.376 L 147.094,-15.7461 L 147.211,-16.1044 L 147.371,-16.4453 L 147.573,-16.7634
 L 147.813,-17.0536 L 148.088,-17.3115 L 148.393,-17.533 L 148.723,-17.7145 L 149.073,-17.8532 L 149.438,-17.9469
 L 149.812,-17.9941 L 150.188,-17.9941 L 150.562,-17.9469 L 150.927,-17.8532 L 151.277,-17.7145 L 151.607,-17.533
 L 151.912,-17.3115 L 152.187,-17.0536 L 152.427,-16.7634 L 152.629,-16.4453 L 152.789,-16.1044 L 152.906,-15.7461
 L 152.976,-15.376 L 153,-15 L 152.976,-14.624 L 152.906,-14.2539 L 152.789,-13.8956 L 152.629,-13.5547
 L 152.427,-13.2366 L 152.187,-12.9464 L 151.912,-12.6884 L 151.607,-12.467 L 151.277,-12.2855 L 150.927,-12.1468
 L 150.562,-12.0531 L 150.188,-12.0059 z
M 74.8116,-12.0059 L 74.4379,-12.0531 L 74.0729,-12.1468 L 73.7227,-12.2855 L 73.3925,-12.467 L 73.0877,-12.6884
 L 72.8131,-12.9464 L 72.5729,-13.2366 L 72.3711,-13.5547 L 72.2107,-13.8956 L 72.0942,-14.2539 L 72.0237,-14.624
 L 72,-15 L 72.0237,-15.376 L 72.0942,-15.7461 L 72.2107,-16.1044 L 72.3711,-16.4453 L 72.5729,-16.7634
 L 72.8131,-17.0536 L 73.0877,-17.3115 L 73.3925,-17.533 L 73.7227,-17.7145 L 74.0729,-17.8532 L 74.4379,-17.9469
 L 74.8116,-17.9941 L 75.1884,-17.9941 L 75.5621,-17.9469 L 75.927,-17.8532 L 76.2773,-17.7145 L 76.6075,-17.533
 L 76.9123,-17.3115 L 77.1869,-17.0536 L 77.427,-16.7634 L 77.6289,-16.4453 L 77.7893,-16.1044 L 77.9057,-15.7461
 L 77.9763,-15.376 L 78,-15 L 77.9763,-14.624 L 77.9057,-14.2539 L 77.7893,-13.8956 L 77.6289,-13.5547
 L 77.427,-13.2366 L 77.1869,-12.9464 L 76.9123,-12.6884 L 76.6075,-12.467 L 76.2773,-12.2855 L 75.927,-12.1468
 L 75.5621,-12.0531 L 75.1884,-12.0059 z
M 164.812,-12.0059 L 164.438,-12.0531 L 164.073,-12.1468 L 163.723,-12.2855 L 163.393,-12.467 L 163.088,-12.6884
 L 162.813,-12.9464 L 162.573,-13.2366 L 162.371,-13.5547 L 162.211,-13.8956 L 162.094,-14.2539 L 162.024,-14.624
 L 162,-15 L 162.024,-15.376 L 162.094,-15.7461 L 162.211,-16.1044 L 162.371,-16.4453 L 162.573,-16.7634
 L 162.813,-17.0536 L 163.088,-17.3115 L 163.393,-17.533 L 163.723,-17.7145 L 164.073,-17.8532 L 164.438,-17.9469
 L 164.812,-17.9941 L 165.188,-17.9941 L 165.562,-17.9469 L 165.927,-17.8532 L 166.277,-17.7145 L 166.607,-17.533
 L 166.912,-17.3115 L 167.187,-17.0536 L 167.427,-16.7634 L 167.629,-16.4453 L 167.789,-16.1044 L 167.906,-15.7461
 L 167.976,-15.376 L 168,-15 L 167.976,-14.624 L 167.906,-14.2539 L 167.789,-13.8956 L 167.629,-13.5547
 L 167.427,-13.2366 L 167.187,-12.9464 L 166.912,-12.6884 L 166.607,-12.467 L 166.277,-12.2855 L 165.927,-12.1468
 L 165.562,-12.0531 L 165.188,-12.0059 z
" stroke="black" fill="lightgray" stroke-width="0.5"/>
</svg>
