<?xml version="1.0" standalone="no"?>
<!DOCTYPE svg PUBLIC "-//W3C//DTD SVG 1.1//EN" "http://www.w3.org/Graphics/SVG/1.1/DTD/svg11.dtd">
<svg width="60mm" height="20mm" viewBox="-30 -6 60 20" xmlns="http://www.w3.org/2000/svg" version="1.1">
<title>OpenSCAD Model</title>
<path d="
M 30,-1 L 29.8429,-2.24345 L 29.3815,-3.40877 L 28.6448,-4.42273 L 27.6791,-5.22163 L 26.5451,-5.75528
 L 25,-6 L -25,-6 L -26.2435,-5.84291 L -27.4088,-5.38153 L -28.4227,-4.64484 L -29.2216,-3.67914
 L -29.7553,-2.54509 L -30,-1 L -30,13.5 L 30,13.5 z
M 6.93785,2.94685 L 6.22266,2.71448 L 5.58772,2.31154 L 5.07294,1.76335 L 4.71066,1.10437 L 4.52365,0.375992
 L 4.52365,-0.375992 L 4.71066,-1.10437 L 5.07294,-1.76335 L 5.58772,-2.31154 L 6.22266,-2.71448 L 6.93785,-2.94685
 L 7.68837,-2.99408 L 8.42705,-2.85316 L 9.10747,-2.53297 L 9.6869,-2.05363 L 10.1289,-1.44525 L 10.4057,-0.746063
 L 10.5,-0 L 10.4057,0.746063 L 10.1289,1.44525 L 9.6869,2.05363 L 9.10747,2.53297 L 8.42705,2.85316
 L 7.68837,2.99408 z
M 21.9379,2.94685 L 21.2227,2.71448 L 20.5877,2.31154 L 20.0729,1.76335 L 19.7107,1.10437 L 19.5237,0.375992
 L 19.5237,-0.375992 L 19.7107,-1.10437 L 20.0729,-1.76335 L 20.5877,-2.31154 L 21.2227,-2.71448 L 21.9379,-2.94685
 L 22.6884,-2.99408 L 23.427,-2.85316 L 24.1075,-2.53297 L 24.6869,-2.05363 L 25.1289,-1.44525 L 25.4057,-0.746063
 L 25.5,-0 L 25.4057,0.746063 L 25.1289,1.44525 L 24.6869,2.05363 L 24.1075,2.53297 L 23.427,2.85316
 L 22.6884,2.99408 z
M -8.06213,2.94685 L -8.77733,2.71448 L -9.41226,2.31154 L -9.92705,1.76335 L -10.2893,1.10437 L -10.4763,0.375992
 L -10.4763,-0.375992 L -10.2893,-1.10437 L -9.92705,-1.76335 L -9.41226,-2.31154 L -8.77733,-2.71448 L -8.06213,-2.94685
 L -7.31161,-2.99408 L -6.57294,-2.85316 L -5.89252,-2.53297 L -5.31308,-2.05363 L -4.87108,-1.44525 L -4.59424,-0.746063
 L -4.5,-0 L -4.59424,0.746063 L -4.87108,1.44525 L -5.31308,2.05363 L -5.89252,2.53297 L -6.57294,2.85316
 L -7.31161,2.99408 z
M -23.0621,2.94685 L -23.7773,2.71448 L -24.4123,2.31154 L -24.927,1.76335 L -25.2893,1.10437 L -25.4763,0.375992
 L -25.4763,-0.375992 L -25.2893,-1.10437 L -24.927,-1.76335 L -24.4123,-2.31154 L -23.7773,-2.71448 L -23.0621,-2.94685
 L -22.3116,-2.99408 L -21.5729,-2.85316 L -20.8925,-2.53297 L -20.3131,-2.05363 L -19.8711,-1.44525 L -19.5942,-0.746063
 L -19.5,-0 L -19.5942,0.746063 L -19.8711,1.44525 L -20.3131,2.05363 L -20.8925,2.53297 L -21.5729,2.85316
 L -22.3116,2.99408 z
M -27.5,10.5 L -27.5,5.5 L -17.5,5.5 L -17.5,10.5 z
M -2.5,10.5 L -12.5,10.5 L -12.5,5.5 L -2.5,5.5 z
M 12.5,10.5 L 2.5,10.5 L 2.5,5.5 L 12.5,5.5 z
M 17.5,10.5 L 17.5,5.5 L 27.5,5.5 L 27.5,10.5 z
" stroke="black" fill="lightgray" stroke-width="0.5"/>
</svg>
