<?xml version="1.0" standalone="no"?>
<!DOCTYPE svg PUBLIC "-//W3C//DTD SVG 1.1//EN" "http://www.w3.org/Graphics/SVG/1.1/DTD/svg11.dtd">
<svg width="177mm" height="177mm" viewBox="9 -186 177 177" xmlns="http://www.w3.org/2000/svg" version="1.1">
<title>OpenSCAD Model</title>
<path d="
M 181,-9.00986 L 181.314,-9.00986 L 181.937,-9.08856 L 182.545,-9.24471 L 183.129,-9.47586 L 183.679,-9.77835
 L 184.187,-10.1474 L 184.645,-10.5773 L 185.045,-11.0611 L 185.382,-11.5912 L 185.649,-12.1594 L 185.843,-12.7565
 L 185.961,-13.3733 L 186,-14 L 186,-181 L 185.961,-181.627 L 185.843,-182.243 L 185.649,-182.841
 L 185.382,-183.409 L 185.045,-183.939 L 184.645,-184.423 L 184.187,-184.853 L 183.679,-185.222 L 183.129,-185.524
 L 182.545,-185.755 L 181.937,-185.911 L 181.314,-185.99 L 181,-185.99 L 181,-186 L 14,-186
 L 14,-185.99 L 13.686,-185.99 L 13.0631,-185.911 L 12.4549,-185.755 L 11.8711,-185.524 L 11.3209,-185.222
 L 10.8129,-184.853 L 10.3551,-184.423 L 9.95491,-183.939 L 9.61845,-183.409 L 9.3511,-182.841 L 9.15707,-182.243
 L 9.03941,-181.627 L 9,-181 L 9,-14 L 9.03941,-13.3733 L 9.15707,-12.7565 L 9.3511,-12.1594
 L 9.61845,-11.5912 L 9.95491,-11.0611 L 10.3551,-10.5773 L 10.8129,-10.1474 L 11.3209,-9.77835 L 11.8711,-9.47586
 L 12.4549,-9.24471 L 13.0631,-9.08856 L 13.686,-9.00986 L 14,-9.00986 L 14,-9 L 181,-9
 z
" stroke="black" fill="lightgray" stroke-width="0.5"/>
</svg>
