  0
SECTION
  2
BLOCKS
  0
ENDSEC
  0
SECTION
  2
ENTITIES
  0
LINE
  8
0
 10
10
 20
40
 11
21
 21
40
  0
LINE
  8
0
 10
21
 20
40
 11
21
 21
50
  0
LINE
  8
0
 10
21
 20
50
 11
10
 21
50
  0
LINE
  8
0
 10
10
 20
50
 11
10
 21
71.85
  0
LINE
  8
0
 10
10
 20
71.85
 11
-10
 21
71.85
  0
LINE
  8
0
 10
-10
 20
71.85
 11
-10
 21
50
  0
LINE
  8
0
 10
-10
 20
50
 11
-21
 21
50
  0
LINE
  8
0
 10
-21
 20
50
 11
-21
 21
40
  0
LINE
  8
0
 10
-21
 20
40
 11
-10
 21
40
  0
LINE
  8
0
 10
-10
 20
40
 11
-10
 21
38.85
  0
LINE
  8
0
 10
-10
 20
38.85
 11
10
 21
38.85
  0
LINE
  8
0
 10
10
 20
38.85
 11
10
 21
40
  0
LINE
  8
0
 10
-0.0783081
 20
40.9051
 11
-0.155289
 21
40.9204
  0
LINE
  8
0
 10
-0.155289
 20
40.9204
 11
-0.229599
 21
40.9457
  0
LINE
  8
0
 10
-0.229599
 20
40.9457
 11
-0.299988
 21
40.9804
  0
LINE
  8
0
 10
-0.299988
 20
40.9804
 11
-0.36525
 21
41.024
  0
LINE
  8
0
 10
-0.36525
 20
41.024
 11
-0.424255
 21
41.0757
  0
LINE
  8
0
 10
-0.424255
 20
41.0757
 11
-0.475998
 21
41.1347
  0
LINE
  8
0
 10
-0.475998
 20
41.1347
 11
-0.519608
 21
41.2
  0
LINE
  8
0
 10
-0.519608
 20
41.2
 11
-0.554321
 21
41.2704
  0
LINE
  8
0
 10
-0.554321
 20
41.2704
 11
-0.579544
 21
41.3447
  0
LINE
  8
0
 10
-0.579544
 20
41.3447
 11
-0.594864
 21
41.4217
  0
LINE
  8
0
 10
-0.594864
 20
41.4217
 11
-0.599991
 21
41.5
  0
LINE
  8
0
 10
-0.599991
 20
41.5
 11
-0.599991
 21
43.375
  0
LINE
  8
0
 10
-0.599991
 20
43.375
 11
-7
 21
43.375
  0
LINE
  8
0
 10
-7
 20
43.375
 11
-7
 21
67.375
  0
LINE
  8
0
 10
-7
 20
67.375
 11
-0.599991
 21
67.375
  0
LINE
  8
0
 10
-0.599991
 20
67.375
 11
-0.599991
 21
69.25
  0
LINE
  8
0
 10
-0.599991
 20
69.25
 11
-0.594864
 21
69.3283
  0
LINE
  8
0
 10
-0.594864
 20
69.3283
 11
-0.579544
 21
69.4053
  0
LINE
  8
0
 10
-0.579544
 20
69.4053
 11
-0.554321
 21
69.4796
  0
LINE
  8
0
 10
-0.554321
 20
69.4796
 11
-0.519608
 21
69.55
  0
LINE
  8
0
 10
-0.519608
 20
69.55
 11
-0.475998
 21
69.6152
  0
LINE
  8
0
 10
-0.475998
 20
69.6152
 11
-0.424255
 21
69.6743
  0
LINE
  8
0
 10
-0.424255
 20
69.6743
 11
-0.36525
 21
69.726
  0
LINE
  8
0
 10
-0.36525
 20
69.726
 11
-0.299988
 21
69.7696
  0
LINE
  8
0
 10
-0.299988
 20
69.7696
 11
-0.229599
 21
69.8043
  0
LINE
  8
0
 10
-0.229599
 20
69.8043
 11
-0.155289
 21
69.8295
  0
LINE
  8
0
 10
-0.155289
 20
69.8295
 11
-0.0783081
 21
69.8449
  0
LINE
  8
0
 10
-0.0783081
 20
69.8449
 11
0
 21
69.85
  0
LINE
  8
0
 10
0
 20
69.85
 11
0.0783081
 21
69.8449
  0
LINE
  8
0
 10
0.0783081
 20
69.8449
 11
0.155289
 21
69.8295
  0
LINE
  8
0
 10
0.155289
 20
69.8295
 11
0.229599
 21
69.8043
  0
LINE
  8
0
 10
0.229599
 20
69.8043
 11
0.299988
 21
69.7696
  0
LINE
  8
0
 10
0.299988
 20
69.7696
 11
0.36525
 21
69.726
  0
LINE
  8
0
 10
0.36525
 20
69.726
 11
0.424255
 21
69.6743
  0
LINE
  8
0
 10
0.424255
 20
69.6743
 11
0.475998
 21
69.6152
  0
LINE
  8
0
 10
0.475998
 20
69.6152
 11
0.519608
 21
69.55
  0
LINE
  8
0
 10
0.519608
 20
69.55
 11
0.554321
 21
69.4796
  0
LINE
  8
0
 10
0.554321
 20
69.4796
 11
0.579544
 21
69.4053
  0
LINE
  8
0
 10
0.579544
 20
69.4053
 11
0.594864
 21
69.3283
  0
LINE
  8
0
 10
0.594864
 20
69.3283
 11
0.599991
 21
69.25
  0
LINE
  8
0
 10
0.599991
 20
69.25
 11
0.599991
 21
67.375
  0
LINE
  8
0
 10
0.599991
 20
67.375
 11
7
 21
67.375
  0
LINE
  8
0
 10
7
 20
67.375
 11
7
 21
43.375
  0
LINE
  8
0
 10
7
 20
43.375
 11
0.599991
 21
43.375
  0
LINE
  8
0
 10
0.599991
 20
43.375
 11
0.599991
 21
41.5
  0
LINE
  8
0
 10
0.599991
 20
41.5
 11
0.594864
 21
41.4217
  0
LINE
  8
0
 10
0.594864
 20
41.4217
 11
0.579544
 21
41.3447
  0
LINE
  8
0
 10
0.579544
 20
41.3447
 11
0.554321
 21
41.2704
  0
LINE
  8
0
 10
0.554321
 20
41.2704
 11
0.519608
 21
41.2
  0
LINE
  8
0
 10
0.519608
 20
41.2
 11
0.475998
 21
41.1347
  0
LINE
  8
0
 10
0.475998
 20
41.1347
 11
0.424255
 21
41.0757
  0
LINE
  8
0
 10
0.424255
 20
41.0757
 11
0.36525
 21
41.024
  0
LINE
  8
0
 10
0.36525
 20
41.024
 11
0.299988
 21
40.9804
  0
LINE
  8
0
 10
0.299988
 20
40.9804
 11
0.229599
 21
40.9457
  0
LINE
  8
0
 10
0.229599
 20
40.9457
 11
0.155289
 21
40.9204
  0
LINE
  8
0
 10
0.155289
 20
40.9204
 11
0.0783081
 21
40.9051
  0
LINE
  8
0
 10
0.0783081
 20
40.9051
 11
0
 21
40.9
  0
LINE
  8
0
 10
0
 20
40.9
 11
-0.0783081
 21
40.9051
  0
LINE
  8
0
 10
-15.2219
 20
41.8145
 11
-15.44
 21
41.8579
  0
LINE
  8
0
 10
-15.44
 20
41.8579
 11
-15.6506
 21
41.9294
  0
LINE
  8
0
 10
-15.6506
 20
41.9294
 11
-15.85
 21
42.0278
  0
LINE
  8
0
 10
-15.85
 20
42.0278
 11
-16.0349
 21
42.1513
  0
LINE
  8
0
 10
-16.0349
 20
42.1513
 11
-16.2021
 21
42.2979
  0
LINE
  8
0
 10
-16.2021
 20
42.2979
 11
-16.3487
 21
42.4651
  0
LINE
  8
0
 10
-16.3487
 20
42.4651
 11
-16.4722
 21
42.65
  0
LINE
  8
0
 10
-16.4722
 20
42.65
 11
-16.5706
 21
42.8494
  0
LINE
  8
0
 10
-16.5706
 20
42.8494
 11
-16.6421
 21
43.06
  0
LINE
  8
0
 10
-16.6421
 20
43.06
 11
-16.6855
 21
43.2781
  0
LINE
  8
0
 10
-16.6855
 20
43.2781
 11
-16.7
 21
43.5
  0
LINE
  8
0
 10
-16.7
 20
43.5
 11
-16.7
 21
46.5
  0
LINE
  8
0
 10
-16.7
 20
46.5
 11
-16.6855
 21
46.7219
  0
LINE
  8
0
 10
-16.6855
 20
46.7219
 11
-16.6421
 21
46.94
  0
LINE
  8
0
 10
-16.6421
 20
46.94
 11
-16.5706
 21
47.1506
  0
LINE
  8
0
 10
-16.5706
 20
47.1506
 11
-16.4722
 21
47.35
  0
LINE
  8
0
 10
-16.4722
 20
47.35
 11
-16.3487
 21
47.5349
  0
LINE
  8
0
 10
-16.3487
 20
47.5349
 11
-16.2021
 21
47.7021
  0
LINE
  8
0
 10
-16.2021
 20
47.7021
 11
-16.0349
 21
47.8487
  0
LINE
  8
0
 10
-16.0349
 20
47.8487
 11
-15.85
 21
47.9722
  0
LINE
  8
0
 10
-15.85
 20
47.9722
 11
-15.6506
 21
48.0706
  0
LINE
  8
0
 10
-15.6506
 20
48.0706
 11
-15.44
 21
48.1421
  0
LINE
  8
0
 10
-15.44
 20
48.1421
 11
-15.2219
 21
48.1855
  0
LINE
  8
0
 10
-15.2219
 20
48.1855
 11
-15
 21
48.2
  0
LINE
  8
0
 10
-15
 20
48.2
 11
-14.7781
 21
48.1855
  0
LINE
  8
0
 10
-14.7781
 20
48.1855
 11
-14.56
 21
48.1421
  0
LINE
  8
0
 10
-14.56
 20
48.1421
 11
-14.3494
 21
48.0706
  0
LINE
  8
0
 10
-14.3494
 20
48.0706
 11
-14.15
 21
47.9722
  0
LINE
  8
0
 10
-14.15
 20
47.9722
 11
-13.9651
 21
47.8487
  0
LINE
  8
0
 10
-13.9651
 20
47.8487
 11
-13.7979
 21
47.7021
  0
LINE
  8
0
 10
-13.7979
 20
47.7021
 11
-13.6513
 21
47.5349
  0
LINE
  8
0
 10
-13.6513
 20
47.5349
 11
-13.5278
 21
47.35
  0
LINE
  8
0
 10
-13.5278
 20
47.35
 11
-13.4294
 21
47.1506
  0
LINE
  8
0
 10
-13.4294
 20
47.1506
 11
-13.3579
 21
46.94
  0
LINE
  8
0
 10
-13.3579
 20
46.94
 11
-13.3145
 21
46.7219
  0
LINE
  8
0
 10
-13.3145
 20
46.7219
 11
-13.3
 21
46.5
  0
LINE
  8
0
 10
-13.3
 20
46.5
 11
-13.3
 21
43.5
  0
LINE
  8
0
 10
-13.3
 20
43.5
 11
-13.3145
 21
43.2781
  0
LINE
  8
0
 10
-13.3145
 20
43.2781
 11
-13.3579
 21
43.06
  0
LINE
  8
0
 10
-13.3579
 20
43.06
 11
-13.4294
 21
42.8494
  0
LINE
  8
0
 10
-13.4294
 20
42.8494
 11
-13.5278
 21
42.65
  0
LINE
  8
0
 10
-13.5278
 20
42.65
 11
-13.6513
 21
42.4651
  0
LINE
  8
0
 10
-13.6513
 20
42.4651
 11
-13.7979
 21
42.2979
  0
LINE
  8
0
 10
-13.7979
 20
42.2979
 11
-13.9651
 21
42.1513
  0
LINE
  8
0
 10
-13.9651
 20
42.1513
 11
-14.15
 21
42.0278
  0
LINE
  8
0
 10
-14.15
 20
42.0278
 11
-14.3494
 21
41.9294
  0
LINE
  8
0
 10
-14.3494
 20
41.9294
 11
-14.56
 21
41.8579
  0
LINE
  8
0
 10
-14.56
 20
41.8579
 11
-14.7781
 21
41.8145
  0
LINE
  8
0
 10
-14.7781
 20
41.8145
 11
-15
 21
41.8
  0
LINE
  8
0
 10
-15
 20
41.8
 11
-15.2219
 21
41.8145
  0
LINE
  8
0
 10
14.7781
 20
41.8145
 11
14.56
 21
41.8579
  0
LINE
  8
0
 10
14.56
 20
41.8579
 11
14.3494
 21
41.9294
  0
LINE
  8
0
 10
14.3494
 20
41.9294
 11
14.15
 21
42.0278
  0
LINE
  8
0
 10
14.15
 20
42.0278
 11
13.9651
 21
42.1513
  0
LINE
  8
0
 10
13.9651
 20
42.1513
 11
13.7979
 21
42.2979
  0
LINE
  8
0
 10
13.7979
 20
42.2979
 11
13.6513
 21
42.4651
  0
LINE
  8
0
 10
13.6513
 20
42.4651
 11
13.5278
 21
42.65
  0
LINE
  8
0
 10
13.5278
 20
42.65
 11
13.4294
 21
42.8494
  0
LINE
  8
0
 10
13.4294
 20
42.8494
 11
13.3579
 21
43.06
  0
LINE
  8
0
 10
13.3579
 20
43.06
 11
13.3145
 21
43.2781
  0
LINE
  8
0
 10
13.3145
 20
43.2781
 11
13.3
 21
43.5
  0
LINE
  8
0
 10
13.3
 20
43.5
 11
13.3
 21
46.5
  0
LINE
  8
0
 10
13.3
 20
46.5
 11
13.3145
 21
46.7219
  0
LINE
  8
0
 10
13.3145
 20
46.7219
 11
13.3579
 21
46.94
  0
LINE
  8
0
 10
13.3579
 20
46.94
 11
13.4294
 21
47.1506
  0
LINE
  8
0
 10
13.4294
 20
47.1506
 11
13.5278
 21
47.35
  0
LINE
  8
0
 10
13.5278
 20
47.35
 11
13.6513
 21
47.5349
  0
LINE
  8
0
 10
13.6513
 20
47.5349
 11
13.7979
 21
47.7021
  0
LINE
  8
0
 10
13.7979
 20
47.7021
 11
13.9651
 21
47.8487
  0
LINE
  8
0
 10
13.9651
 20
47.8487
 11
14.15
 21
47.9722
  0
LINE
  8
0
 10
14.15
 20
47.9722
 11
14.3494
 21
48.0706
  0
LINE
  8
0
 10
14.3494
 20
48.0706
 11
14.56
 21
48.1421
  0
LINE
  8
0
 10
14.56
 20
48.1421
 11
14.7781
 21
48.1855
  0
LINE
  8
0
 10
14.7781
 20
48.1855
 11
15
 21
48.2
  0
LINE
  8
0
 10
15
 20
48.2
 11
15.2219
 21
48.1855
  0
LINE
  8
0
 10
15.2219
 20
48.1855
 11
15.44
 21
48.1421
  0
LINE
  8
0
 10
15.44
 20
48.1421
 11
15.6506
 21
48.0706
  0
LINE
  8
0
 10
15.6506
 20
48.0706
 11
15.85
 21
47.9722
  0
LINE
  8
0
 10
15.85
 20
47.9722
 11
16.0349
 21
47.8487
  0
LINE
  8
0
 10
16.0349
 20
47.8487
 11
16.2021
 21
47.7021
  0
LINE
  8
0
 10
16.2021
 20
47.7021
 11
16.3487
 21
47.5349
  0
LINE
  8
0
 10
16.3487
 20
47.5349
 11
16.4722
 21
47.35
  0
LINE
  8
0
 10
16.4722
 20
47.35
 11
16.5706
 21
47.1506
  0
LINE
  8
0
 10
16.5706
 20
47.1506
 11
16.6421
 21
46.94
  0
LINE
  8
0
 10
16.6421
 20
46.94
 11
16.6855
 21
46.7219
  0
LINE
  8
0
 10
16.6855
 20
46.7219
 11
16.7
 21
46.5
  0
LINE
  8
0
 10
16.7
 20
46.5
 11
16.7
 21
43.5
  0
LINE
  8
0
 10
16.7
 20
43.5
 11
16.6855
 21
43.2781
  0
LINE
  8
0
 10
16.6855
 20
43.2781
 11
16.6421
 21
43.06
  0
LINE
  8
0
 10
16.6421
 20
43.06
 11
16.5706
 21
42.8494
  0
LINE
  8
0
 10
16.5706
 20
42.8494
 11
16.4722
 21
42.65
  0
LINE
  8
0
 10
16.4722
 20
42.65
 11
16.3487
 21
42.4651
  0
LINE
  8
0
 10
16.3487
 20
42.4651
 11
16.2021
 21
42.2979
  0
LINE
  8
0
 10
16.2021
 20
42.2979
 11
16.0349
 21
42.1513
  0
LINE
  8
0
 10
16.0349
 20
42.1513
 11
15.85
 21
42.0278
  0
LINE
  8
0
 10
15.85
 20
42.0278
 11
15.6506
 21
41.9294
  0
LINE
  8
0
 10
15.6506
 20
41.9294
 11
15.44
 21
41.8579
  0
LINE
  8
0
 10
15.44
 20
41.8579
 11
15.2219
 21
41.8145
  0
LINE
  8
0
 10
15.2219
 20
41.8145
 11
15
 21
41.8
  0
LINE
  8
0
 10
15
 20
41.8
 11
14.7781
 21
41.8145
  0
LINE
  8
0
 10
9
 20
-15
 11
9.05133
 21
-14.2168
  0
LINE
  8
0
 10
9.05133
 20
-14.2168
 11
9.20444
 21
-13.4471
  0
LINE
  8
0
 10
9.20444
 20
-13.4471
 11
9.45671
 21
-12.7039
  0
LINE
  8
0
 10
9.45671
 20
-12.7039
 11
9.80383
 21
-12
  0
LINE
  8
0
 10
9.80383
 20
-12
 11
10.2399
 21
-11.3474
  0
LINE
  8
0
 10
10.2399
 20
-11.3474
 11
10.7574
 21
-10.7574
  0
LINE
  8
0
 10
10.7574
 20
-10.7574
 11
11.3474
 21
-10.2399
  0
LINE
  8
0
 10
11.3474
 20
-10.2399
 11
12
 21
-9.80383
  0
LINE
  8
0
 10
12
 20
-9.80383
 11
12.7039
 21
-9.45671
  0
LINE
  8
0
 10
12.7039
 20
-9.45671
 11
13.4471
 21
-9.20444
  0
LINE
  8
0
 10
13.4471
 20
-9.20444
 11
14.2168
 21
-9.05133
  0
LINE
  8
0
 10
14.2168
 20
-9.05133
 11
15
 21
-9
  0
LINE
  8
0
 10
15
 20
-9
 11
21.005
 21
-9
  0
LINE
  8
0
 10
21.005
 20
-9
 11
21.005
 21
9
  0
LINE
  8
0
 10
21.005
 20
9
 11
15
 21
9
  0
LINE
  8
0
 10
15
 20
9
 11
14.2168
 21
9.05133
  0
LINE
  8
0
 10
14.2168
 20
9.05133
 11
13.4471
 21
9.20444
  0
LINE
  8
0
 10
13.4471
 20
9.20444
 11
12.7039
 21
9.45671
  0
LINE
  8
0
 10
12.7039
 20
9.45671
 11
12
 21
9.80383
  0
LINE
  8
0
 10
12
 20
9.80383
 11
11.3474
 21
10.2399
  0
LINE
  8
0
 10
11.3474
 20
10.2399
 11
10.7574
 21
10.7574
  0
LINE
  8
0
 10
10.7574
 20
10.7574
 11
10.2399
 21
11.3474
  0
LINE
  8
0
 10
10.2399
 20
11.3474
 11
9.80383
 21
12
  0
LINE
  8
0
 10
9.80383
 20
12
 11
9.45671
 21
12.7039
  0
LINE
  8
0
 10
9.45671
 20
12.7039
 11
9.20444
 21
13.4471
  0
LINE
  8
0
 10
9.20444
 20
13.4471
 11
9.05133
 21
14.2168
  0
LINE
  8
0
 10
9.05133
 20
14.2168
 11
9
 21
15
  0
LINE
  8
0
 10
9
 20
15
 11
9
 21
24.005
  0
LINE
  8
0
 10
9
 20
24.005
 11
-9
 21
24.005
  0
LINE
  8
0
 10
-9
 20
24.005
 11
-9
 21
15
  0
LINE
  8
0
 10
-9
 20
15
 11
-9.05133
 21
14.2168
  0
LINE
  8
0
 10
-9.05133
 20
14.2168
 11
-9.20444
 21
13.4471
  0
LINE
  8
0
 10
-9.20444
 20
13.4471
 11
-9.45671
 21
12.7039
  0
LINE
  8
0
 10
-9.45671
 20
12.7039
 11
-9.80383
 21
12
  0
LINE
  8
0
 10
-9.80383
 20
12
 11
-10.2399
 21
11.3474
  0
LINE
  8
0
 10
-10.2399
 20
11.3474
 11
-10.7574
 21
10.7574
  0
LINE
  8
0
 10
-10.7574
 20
10.7574
 11
-11.3474
 21
10.2399
  0
LINE
  8
0
 10
-11.3474
 20
10.2399
 11
-12
 21
9.80383
  0
LINE
  8
0
 10
-12
 20
9.80383
 11
-12.7039
 21
9.45671
  0
LINE
  8
0
 10
-12.7039
 20
9.45671
 11
-13.4471
 21
9.20444
  0
LINE
  8
0
 10
-13.4471
 20
9.20444
 11
-14.2168
 21
9.05133
  0
LINE
  8
0
 10
-14.2168
 20
9.05133
 11
-15
 21
9
  0
LINE
  8
0
 10
-15
 20
9
 11
-21.005
 21
9
  0
LINE
  8
0
 10
-21.005
 20
9
 11
-21.005
 21
-9
  0
LINE
  8
0
 10
-21.005
 20
-9
 11
-15
 21
-9
  0
LINE
  8
0
 10
-15
 20
-9
 11
-14.2168
 21
-9.05133
  0
LINE
  8
0
 10
-14.2168
 20
-9.05133
 11
-13.4471
 21
-9.20444
  0
LINE
  8
0
 10
-13.4471
 20
-9.20444
 11
-12.7039
 21
-9.45671
  0
LINE
  8
0
 10
-12.7039
 20
-9.45671
 11
-12
 21
-9.80383
  0
LINE
  8
0
 10
-12
 20
-9.80383
 11
-11.3474
 21
-10.2399
  0
LINE
  8
0
 10
-11.3474
 20
-10.2399
 11
-10.7574
 21
-10.7574
  0
LINE
  8
0
 10
-10.7574
 20
-10.7574
 11
-10.2399
 21
-11.3474
  0
LINE
  8
0
 10
-10.2399
 20
-11.3474
 11
-9.80383
 21
-12
  0
LINE
  8
0
 10
-9.80383
 20
-12
 11
-9.45671
 21
-12.7039
  0
LINE
  8
0
 10
-9.45671
 20
-12.7039
 11
-9.20444
 21
-13.4471
  0
LINE
  8
0
 10
-9.20444
 20
-13.4471
 11
-9.05133
 21
-14.2168
  0
LINE
  8
0
 10
-9.05133
 20
-14.2168
 11
-9
 21
-15
  0
LINE
  8
0
 10
-9
 20
-15
 11
-9
 21
-24.005
  0
LINE
  8
0
 10
-9
 20
-24.005
 11
9
 21
-24.005
  0
LINE
  8
0
 10
9
 20
-24.005
 11
9
 21
-15
  0
LINE
  8
0
 10
-1.77515
 20
-13.4836
 11
-3.51993
 21
-13.1366
  0
LINE
  8
0
 10
-3.51993
 20
-13.1366
 11
-5.20448
 21
-12.5648
  0
LINE
  8
0
 10
-5.20448
 20
-12.5648
 11
-6.79999
 21
-11.7779
  0
LINE
  8
0
 10
-6.79999
 20
-11.7779
 11
-8.27914
 21
-10.7896
  0
LINE
  8
0
 10
-8.27914
 20
-10.7896
 11
-9.61664
 21
-9.61664
  0
LINE
  8
0
 10
-9.61664
 20
-9.61664
 11
-10.7896
 21
-8.27914
  0
LINE
  8
0
 10
-10.7896
 20
-8.27914
 11
-11.7779
 21
-6.79999
  0
LINE
  8
0
 10
-11.7779
 20
-6.79999
 11
-12.5648
 21
-5.20448
  0
LINE
  8
0
 10
-12.5648
 20
-5.20448
 11
-13.1366
 21
-3.51993
  0
LINE
  8
0
 10
-13.1366
 20
-3.51993
 11
-13.4836
 21
-1.77515
  0
LINE
  8
0
 10
-13.4836
 20
-1.77515
 11
-13.6
 21
0
  0
LINE
  8
0
 10
-13.6
 20
0
 11
-13.4836
 21
1.77515
  0
LINE
  8
0
 10
-13.4836
 20
1.77515
 11
-13.1366
 21
3.51993
  0
LINE
  8
0
 10
-13.1366
 20
3.51993
 11
-12.5648
 21
5.20448
  0
LINE
  8
0
 10
-12.5648
 20
5.20448
 11
-11.7779
 21
6.79999
  0
LINE
  8
0
 10
-11.7779
 20
6.79999
 11
-10.7896
 21
8.27914
  0
LINE
  8
0
 10
-10.7896
 20
8.27914
 11
-9.61664
 21
9.61664
  0
LINE
  8
0
 10
-9.61664
 20
9.61664
 11
-8.27914
 21
10.7896
  0
LINE
  8
0
 10
-8.27914
 20
10.7896
 11
-6.79999
 21
11.7779
  0
LINE
  8
0
 10
-6.79999
 20
11.7779
 11
-5.20448
 21
12.5648
  0
LINE
  8
0
 10
-5.20448
 20
12.5648
 11
-3.51993
 21
13.1366
  0
LINE
  8
0
 10
-3.51993
 20
13.1366
 11
-1.77515
 21
13.4836
  0
LINE
  8
0
 10
-1.77515
 20
13.4836
 11
0
 21
13.6
  0
LINE
  8
0
 10
0
 20
13.6
 11
1.77515
 21
13.4836
  0
LINE
  8
0
 10
1.77515
 20
13.4836
 11
3.51993
 21
13.1366
  0
LINE
  8
0
 10
3.51993
 20
13.1366
 11
5.20448
 21
12.5648
  0
LINE
  8
0
 10
5.20448
 20
12.5648
 11
6.79999
 21
11.7779
  0
LINE
  8
0
 10
6.79999
 20
11.7779
 11
8.27914
 21
10.7896
  0
LINE
  8
0
 10
8.27914
 20
10.7896
 11
9.61664
 21
9.61664
  0
LINE
  8
0
 10
9.61664
 20
9.61664
 11
10.7896
 21
8.27914
  0
LINE
  8
0
 10
10.7896
 20
8.27914
 11
11.7779
 21
6.79999
  0
LINE
  8
0
 10
11.7779
 20
6.79999
 11
12.5648
 21
5.20448
  0
LINE
  8
0
 10
12.5648
 20
5.20448
 11
13.1366
 21
3.51993
  0
LINE
  8
0
 10
13.1366
 20
3.51993
 11
13.4836
 21
1.77515
  0
LINE
  8
0
 10
13.4836
 20
1.77515
 11
13.6
 21
0
  0
LINE
  8
0
 10
13.6
 20
0
 11
13.4836
 21
-1.77515
  0
LINE
  8
0
 10
13.4836
 20
-1.77515
 11
13.1366
 21
-3.51993
  0
LINE
  8
0
 10
13.1366
 20
-3.51993
 11
12.5648
 21
-5.20448
  0
LINE
  8
0
 10
12.5648
 20
-5.20448
 11
11.7779
 21
-6.79999
  0
LINE
  8
0
 10
11.7779
 20
-6.79999
 11
10.7896
 21
-8.27914
  0
LINE
  8
0
 10
10.7896
 20
-8.27914
 11
9.61664
 21
-9.61664
  0
LINE
  8
0
 10
9.61664
 20
-9.61664
 11
8.27914
 21
-10.7896
  0
LINE
  8
0
 10
8.27914
 20
-10.7896
 11
6.79999
 21
-11.7779
  0
LINE
  8
0
 10
6.79999
 20
-11.7779
 11
5.20448
 21
-12.5648
  0
LINE
  8
0
 10
5.20448
 20
-12.5648
 11
3.51993
 21
-13.1366
  0
LINE
  8
0
 10
3.51993
 20
-13.1366
 11
1.77515
 21
-13.4836
  0
LINE
  8
0
 10
1.77515
 20
-13.4836
 11
0
 21
-13.6
  0
LINE
  8
0
 10
0
 20
-13.6
 11
-1.77515
 21
-13.4836
  0
ENDSEC
  0
SECTION
  2
OBJECTS
  0
DICTIONARY
  0
ENDSEC
  0
EOF
