  0
SECTION
  2
BLOCKS
  0
ENDSEC
  0
SECTION
  2
ENTITIES
  0
LINE
  8
0
 10
10
 20
55
 11
21
 21
55
  0
LINE
  8
0
 10
21
 20
55
 11
21
 21
65
  0
LINE
  8
0
 10
21
 20
65
 11
10
 21
65
  0
LINE
  8
0
 10
10
 20
65
 11
10
 21
81.85
  0
LINE
  8
0
 10
10
 20
81.85
 11
-10
 21
81.85
  0
LINE
  8
0
 10
-10
 20
81.85
 11
-10
 21
65
  0
LINE
  8
0
 10
-10
 20
65
 11
-21
 21
65
  0
LINE
  8
0
 10
-21
 20
65
 11
-21
 21
55
  0
LINE
  8
0
 10
-21
 20
55
 11
-10
 21
55
  0
LINE
  8
0
 10
-10
 20
55
 11
-10
 21
48.85
  0
LINE
  8
0
 10
-10
 20
48.85
 11
10
 21
48.85
  0
LINE
  8
0
 10
10
 20
48.85
 11
10
 21
55
  0
LINE
  8
0
 10
-0.0783081
 20
78.4051
 11
-0.155289
 21
78.4204
  0
LINE
  8
0
 10
-0.155289
 20
78.4204
 11
-0.229599
 21
78.4457
  0
LINE
  8
0
 10
-0.229599
 20
78.4457
 11
-0.299988
 21
78.4804
  0
LINE
  8
0
 10
-0.299988
 20
78.4804
 11
-0.36525
 21
78.524
  0
LINE
  8
0
 10
-0.36525
 20
78.524
 11
-0.424255
 21
78.5757
  0
LINE
  8
0
 10
-0.424255
 20
78.5757
 11
-0.475998
 21
78.6347
  0
LINE
  8
0
 10
-0.475998
 20
78.6347
 11
-0.519608
 21
78.7
  0
LINE
  8
0
 10
-0.519608
 20
78.7
 11
-0.554321
 21
78.7704
  0
LINE
  8
0
 10
-0.554321
 20
78.7704
 11
-0.579544
 21
78.8447
  0
LINE
  8
0
 10
-0.579544
 20
78.8447
 11
-0.594864
 21
78.9217
  0
LINE
  8
0
 10
-0.594864
 20
78.9217
 11
-0.599991
 21
79
  0
LINE
  8
0
 10
-0.599991
 20
79
 11
-0.594864
 21
79.0783
  0
LINE
  8
0
 10
-0.594864
 20
79.0783
 11
-0.579544
 21
79.1553
  0
LINE
  8
0
 10
-0.579544
 20
79.1553
 11
-0.554321
 21
79.2296
  0
LINE
  8
0
 10
-0.554321
 20
79.2296
 11
-0.519608
 21
79.3
  0
LINE
  8
0
 10
-0.519608
 20
79.3
 11
-0.475998
 21
79.3652
  0
LINE
  8
0
 10
-0.475998
 20
79.3652
 11
-0.424255
 21
79.4243
  0
LINE
  8
0
 10
-0.424255
 20
79.4243
 11
-0.36525
 21
79.476
  0
LINE
  8
0
 10
-0.36525
 20
79.476
 11
-0.299988
 21
79.5196
  0
LINE
  8
0
 10
-0.299988
 20
79.5196
 11
-0.229599
 21
79.5543
  0
LINE
  8
0
 10
-0.229599
 20
79.5543
 11
-0.155289
 21
79.5795
  0
LINE
  8
0
 10
-0.155289
 20
79.5795
 11
-0.0783081
 21
79.5949
  0
LINE
  8
0
 10
-0.0783081
 20
79.5949
 11
0
 21
79.6
  0
LINE
  8
0
 10
0
 20
79.6
 11
0.0783081
 21
79.5949
  0
LINE
  8
0
 10
0.0783081
 20
79.5949
 11
0.155289
 21
79.5795
  0
LINE
  8
0
 10
0.155289
 20
79.5795
 11
0.229599
 21
79.5543
  0
LINE
  8
0
 10
0.229599
 20
79.5543
 11
0.299988
 21
79.5196
  0
LINE
  8
0
 10
0.299988
 20
79.5196
 11
0.36525
 21
79.476
  0
LINE
  8
0
 10
0.36525
 20
79.476
 11
0.424255
 21
79.4243
  0
LINE
  8
0
 10
0.424255
 20
79.4243
 11
0.475998
 21
79.3652
  0
LINE
  8
0
 10
0.475998
 20
79.3652
 11
0.519608
 21
79.3
  0
LINE
  8
0
 10
0.519608
 20
79.3
 11
0.554321
 21
79.2296
  0
LINE
  8
0
 10
0.554321
 20
79.2296
 11
0.579544
 21
79.1553
  0
LINE
  8
0
 10
0.579544
 20
79.1553
 11
0.594864
 21
79.0783
  0
LINE
  8
0
 10
0.594864
 20
79.0783
 11
0.599991
 21
79
  0
LINE
  8
0
 10
0.599991
 20
79
 11
0.594864
 21
78.9217
  0
LINE
  8
0
 10
0.594864
 20
78.9217
 11
0.579544
 21
78.8447
  0
LINE
  8
0
 10
0.579544
 20
78.8447
 11
0.554321
 21
78.7704
  0
LINE
  8
0
 10
0.554321
 20
78.7704
 11
0.519608
 21
78.7
  0
LINE
  8
0
 10
0.519608
 20
78.7
 11
0.475998
 21
78.6347
  0
LINE
  8
0
 10
0.475998
 20
78.6347
 11
0.424255
 21
78.5757
  0
LINE
  8
0
 10
0.424255
 20
78.5757
 11
0.36525
 21
78.524
  0
LINE
  8
0
 10
0.36525
 20
78.524
 11
0.299988
 21
78.4804
  0
LINE
  8
0
 10
0.299988
 20
78.4804
 11
0.229599
 21
78.4457
  0
LINE
  8
0
 10
0.229599
 20
78.4457
 11
0.155289
 21
78.4204
  0
LINE
  8
0
 10
0.155289
 20
78.4204
 11
0.0783081
 21
78.4051
  0
LINE
  8
0
 10
0.0783081
 20
78.4051
 11
0
 21
78.4
  0
LINE
  8
0
 10
0
 20
78.4
 11
-0.0783081
 21
78.4051
  0
LINE
  8
0
 10
-7
 20
53.375
 11
-7
 21
77.375
  0
LINE
  8
0
 10
-7
 20
77.375
 11
7
 21
77.375
  0
LINE
  8
0
 10
7
 20
77.375
 11
7
 21
53.375
  0
LINE
  8
0
 10
7
 20
53.375
 11
-7
 21
53.375
  0
LINE
  8
0
 10
-0.0783081
 20
51.1551
 11
-0.155289
 21
51.1704
  0
LINE
  8
0
 10
-0.155289
 20
51.1704
 11
-0.229599
 21
51.1957
  0
LINE
  8
0
 10
-0.229599
 20
51.1957
 11
-0.299988
 21
51.2304
  0
LINE
  8
0
 10
-0.299988
 20
51.2304
 11
-0.36525
 21
51.274
  0
LINE
  8
0
 10
-0.36525
 20
51.274
 11
-0.424255
 21
51.3257
  0
LINE
  8
0
 10
-0.424255
 20
51.3257
 11
-0.475998
 21
51.3847
  0
LINE
  8
0
 10
-0.475998
 20
51.3847
 11
-0.519608
 21
51.45
  0
LINE
  8
0
 10
-0.519608
 20
51.45
 11
-0.554321
 21
51.5204
  0
LINE
  8
0
 10
-0.554321
 20
51.5204
 11
-0.579544
 21
51.5947
  0
LINE
  8
0
 10
-0.579544
 20
51.5947
 11
-0.594864
 21
51.6717
  0
LINE
  8
0
 10
-0.594864
 20
51.6717
 11
-0.599991
 21
51.75
  0
LINE
  8
0
 10
-0.599991
 20
51.75
 11
-0.594864
 21
51.8283
  0
LINE
  8
0
 10
-0.594864
 20
51.8283
 11
-0.579544
 21
51.9053
  0
LINE
  8
0
 10
-0.579544
 20
51.9053
 11
-0.554321
 21
51.9796
  0
LINE
  8
0
 10
-0.554321
 20
51.9796
 11
-0.519608
 21
52.05
  0
LINE
  8
0
 10
-0.519608
 20
52.05
 11
-0.475998
 21
52.1152
  0
LINE
  8
0
 10
-0.475998
 20
52.1152
 11
-0.424255
 21
52.1743
  0
LINE
  8
0
 10
-0.424255
 20
52.1743
 11
-0.36525
 21
52.226
  0
LINE
  8
0
 10
-0.36525
 20
52.226
 11
-0.299988
 21
52.2696
  0
LINE
  8
0
 10
-0.299988
 20
52.2696
 11
-0.229599
 21
52.3043
  0
LINE
  8
0
 10
-0.229599
 20
52.3043
 11
-0.155289
 21
52.3295
  0
LINE
  8
0
 10
-0.155289
 20
52.3295
 11
-0.0783081
 21
52.3449
  0
LINE
  8
0
 10
-0.0783081
 20
52.3449
 11
0
 21
52.35
  0
LINE
  8
0
 10
0
 20
52.35
 11
0.0783081
 21
52.3449
  0
LINE
  8
0
 10
0.0783081
 20
52.3449
 11
0.155289
 21
52.3295
  0
LINE
  8
0
 10
0.155289
 20
52.3295
 11
0.229599
 21
52.3043
  0
LINE
  8
0
 10
0.229599
 20
52.3043
 11
0.299988
 21
52.2696
  0
LINE
  8
0
 10
0.299988
 20
52.2696
 11
0.36525
 21
52.226
  0
LINE
  8
0
 10
0.36525
 20
52.226
 11
0.424255
 21
52.1743
  0
LINE
  8
0
 10
0.424255
 20
52.1743
 11
0.475998
 21
52.1152
  0
LINE
  8
0
 10
0.475998
 20
52.1152
 11
0.519608
 21
52.05
  0
LINE
  8
0
 10
0.519608
 20
52.05
 11
0.554321
 21
51.9796
  0
LINE
  8
0
 10
0.554321
 20
51.9796
 11
0.579544
 21
51.9053
  0
LINE
  8
0
 10
0.579544
 20
51.9053
 11
0.594864
 21
51.8283
  0
LINE
  8
0
 10
0.594864
 20
51.8283
 11
0.599991
 21
51.75
  0
LINE
  8
0
 10
0.599991
 20
51.75
 11
0.594864
 21
51.6717
  0
LINE
  8
0
 10
0.594864
 20
51.6717
 11
0.579544
 21
51.5947
  0
LINE
  8
0
 10
0.579544
 20
51.5947
 11
0.554321
 21
51.5204
  0
LINE
  8
0
 10
0.554321
 20
51.5204
 11
0.519608
 21
51.45
  0
LINE
  8
0
 10
0.519608
 20
51.45
 11
0.475998
 21
51.3847
  0
LINE
  8
0
 10
0.475998
 20
51.3847
 11
0.424255
 21
51.3257
  0
LINE
  8
0
 10
0.424255
 20
51.3257
 11
0.36525
 21
51.274
  0
LINE
  8
0
 10
0.36525
 20
51.274
 11
0.299988
 21
51.2304
  0
LINE
  8
0
 10
0.299988
 20
51.2304
 11
0.229599
 21
51.1957
  0
LINE
  8
0
 10
0.229599
 20
51.1957
 11
0.155289
 21
51.1704
  0
LINE
  8
0
 10
0.155289
 20
51.1704
 11
0.0783081
 21
51.1551
  0
LINE
  8
0
 10
0.0783081
 20
51.1551
 11
0
 21
51.15
  0
LINE
  8
0
 10
0
 20
51.15
 11
-0.0783081
 21
51.1551
  0
LINE
  8
0
 10
9
 20
-15
 11
9.05133
 21
-14.2168
  0
LINE
  8
0
 10
9.05133
 20
-14.2168
 11
9.20444
 21
-13.4471
  0
LINE
  8
0
 10
9.20444
 20
-13.4471
 11
9.45671
 21
-12.7039
  0
LINE
  8
0
 10
9.45671
 20
-12.7039
 11
9.80383
 21
-12
  0
LINE
  8
0
 10
9.80383
 20
-12
 11
10.2399
 21
-11.3474
  0
LINE
  8
0
 10
10.2399
 20
-11.3474
 11
10.7574
 21
-10.7574
  0
LINE
  8
0
 10
10.7574
 20
-10.7574
 11
11.3474
 21
-10.2399
  0
LINE
  8
0
 10
11.3474
 20
-10.2399
 11
12
 21
-9.80383
  0
LINE
  8
0
 10
12
 20
-9.80383
 11
12.7039
 21
-9.45671
  0
LINE
  8
0
 10
12.7039
 20
-9.45671
 11
13.4471
 21
-9.20444
  0
LINE
  8
0
 10
13.4471
 20
-9.20444
 11
14.2168
 21
-9.05133
  0
LINE
  8
0
 10
14.2168
 20
-9.05133
 11
15
 21
-9
  0
LINE
  8
0
 10
15
 20
-9
 11
21.005
 21
-9
  0
LINE
  8
0
 10
21.005
 20
-9
 11
21.005
 21
9
  0
LINE
  8
0
 10
21.005
 20
9
 11
15
 21
9
  0
LINE
  8
0
 10
15
 20
9
 11
14.2168
 21
9.05133
  0
LINE
  8
0
 10
14.2168
 20
9.05133
 11
13.4471
 21
9.20444
  0
LINE
  8
0
 10
13.4471
 20
9.20444
 11
12.7039
 21
9.45671
  0
LINE
  8
0
 10
12.7039
 20
9.45671
 11
12
 21
9.80383
  0
LINE
  8
0
 10
12
 20
9.80383
 11
11.3474
 21
10.2399
  0
LINE
  8
0
 10
11.3474
 20
10.2399
 11
10.7574
 21
10.7574
  0
LINE
  8
0
 10
10.7574
 20
10.7574
 11
10.2399
 21
11.3474
  0
LINE
  8
0
 10
10.2399
 20
11.3474
 11
9.80383
 21
12
  0
LINE
  8
0
 10
9.80383
 20
12
 11
9.45671
 21
12.7039
  0
LINE
  8
0
 10
9.45671
 20
12.7039
 11
9.20444
 21
13.4471
  0
LINE
  8
0
 10
9.20444
 20
13.4471
 11
9.05133
 21
14.2168
  0
LINE
  8
0
 10
9.05133
 20
14.2168
 11
9
 21
15
  0
LINE
  8
0
 10
9
 20
15
 11
9
 21
24.005
  0
LINE
  8
0
 10
9
 20
24.005
 11
-9
 21
24.005
  0
LINE
  8
0
 10
-9
 20
24.005
 11
-9
 21
15
  0
LINE
  8
0
 10
-9
 20
15
 11
-9.05133
 21
14.2168
  0
LINE
  8
0
 10
-9.05133
 20
14.2168
 11
-9.20444
 21
13.4471
  0
LINE
  8
0
 10
-9.20444
 20
13.4471
 11
-9.45671
 21
12.7039
  0
LINE
  8
0
 10
-9.45671
 20
12.7039
 11
-9.80383
 21
12
  0
LINE
  8
0
 10
-9.80383
 20
12
 11
-10.2399
 21
11.3474
  0
LINE
  8
0
 10
-10.2399
 20
11.3474
 11
-10.7574
 21
10.7574
  0
LINE
  8
0
 10
-10.7574
 20
10.7574
 11
-11.3474
 21
10.2399
  0
LINE
  8
0
 10
-11.3474
 20
10.2399
 11
-12
 21
9.80383
  0
LINE
  8
0
 10
-12
 20
9.80383
 11
-12.7039
 21
9.45671
  0
LINE
  8
0
 10
-12.7039
 20
9.45671
 11
-13.4471
 21
9.20444
  0
LINE
  8
0
 10
-13.4471
 20
9.20444
 11
-14.2168
 21
9.05133
  0
LINE
  8
0
 10
-14.2168
 20
9.05133
 11
-15
 21
9
  0
LINE
  8
0
 10
-15
 20
9
 11
-21.005
 21
9
  0
LINE
  8
0
 10
-21.005
 20
9
 11
-21.005
 21
-9
  0
LINE
  8
0
 10
-21.005
 20
-9
 11
-15
 21
-9
  0
LINE
  8
0
 10
-15
 20
-9
 11
-14.2168
 21
-9.05133
  0
LINE
  8
0
 10
-14.2168
 20
-9.05133
 11
-13.4471
 21
-9.20444
  0
LINE
  8
0
 10
-13.4471
 20
-9.20444
 11
-12.7039
 21
-9.45671
  0
LINE
  8
0
 10
-12.7039
 20
-9.45671
 11
-12
 21
-9.80383
  0
LINE
  8
0
 10
-12
 20
-9.80383
 11
-11.3474
 21
-10.2399
  0
LINE
  8
0
 10
-11.3474
 20
-10.2399
 11
-10.7574
 21
-10.7574
  0
LINE
  8
0
 10
-10.7574
 20
-10.7574
 11
-10.2399
 21
-11.3474
  0
LINE
  8
0
 10
-10.2399
 20
-11.3474
 11
-9.80383
 21
-12
  0
LINE
  8
0
 10
-9.80383
 20
-12
 11
-9.45671
 21
-12.7039
  0
LINE
  8
0
 10
-9.45671
 20
-12.7039
 11
-9.20444
 21
-13.4471
  0
LINE
  8
0
 10
-9.20444
 20
-13.4471
 11
-9.05133
 21
-14.2168
  0
LINE
  8
0
 10
-9.05133
 20
-14.2168
 11
-9
 21
-15
  0
LINE
  8
0
 10
-9
 20
-15
 11
-9
 21
-24.005
  0
LINE
  8
0
 10
-9
 20
-24.005
 11
9
 21
-24.005
  0
LINE
  8
0
 10
9
 20
-24.005
 11
9
 21
-15
  0
LINE
  8
0
 10
-1.77515
 20
-13.4836
 11
-3.51993
 21
-13.1366
  0
LINE
  8
0
 10
-3.51993
 20
-13.1366
 11
-5.20448
 21
-12.5648
  0
LINE
  8
0
 10
-5.20448
 20
-12.5648
 11
-6.79999
 21
-11.7779
  0
LINE
  8
0
 10
-6.79999
 20
-11.7779
 11
-8.27914
 21
-10.7896
  0
LINE
  8
0
 10
-8.27914
 20
-10.7896
 11
-9.61664
 21
-9.61664
  0
LINE
  8
0
 10
-9.61664
 20
-9.61664
 11
-10.7896
 21
-8.27914
  0
LINE
  8
0
 10
-10.7896
 20
-8.27914
 11
-11.7779
 21
-6.79999
  0
LINE
  8
0
 10
-11.7779
 20
-6.79999
 11
-12.5648
 21
-5.20448
  0
LINE
  8
0
 10
-12.5648
 20
-5.20448
 11
-13.1366
 21
-3.51993
  0
LINE
  8
0
 10
-13.1366
 20
-3.51993
 11
-13.4836
 21
-1.77515
  0
LINE
  8
0
 10
-13.4836
 20
-1.77515
 11
-13.6
 21
0
  0
LINE
  8
0
 10
-13.6
 20
0
 11
-13.4836
 21
1.77515
  0
LINE
  8
0
 10
-13.4836
 20
1.77515
 11
-13.1366
 21
3.51993
  0
LINE
  8
0
 10
-13.1366
 20
3.51993
 11
-12.5648
 21
5.20448
  0
LINE
  8
0
 10
-12.5648
 20
5.20448
 11
-11.7779
 21
6.79999
  0
LINE
  8
0
 10
-11.7779
 20
6.79999
 11
-10.7896
 21
8.27914
  0
LINE
  8
0
 10
-10.7896
 20
8.27914
 11
-9.61664
 21
9.61664
  0
LINE
  8
0
 10
-9.61664
 20
9.61664
 11
-8.27914
 21
10.7896
  0
LINE
  8
0
 10
-8.27914
 20
10.7896
 11
-6.79999
 21
11.7779
  0
LINE
  8
0
 10
-6.79999
 20
11.7779
 11
-5.20448
 21
12.5648
  0
LINE
  8
0
 10
-5.20448
 20
12.5648
 11
-3.51993
 21
13.1366
  0
LINE
  8
0
 10
-3.51993
 20
13.1366
 11
-1.77515
 21
13.4836
  0
LINE
  8
0
 10
-1.77515
 20
13.4836
 11
0
 21
13.6
  0
LINE
  8
0
 10
0
 20
13.6
 11
1.77515
 21
13.4836
  0
LINE
  8
0
 10
1.77515
 20
13.4836
 11
3.51993
 21
13.1366
  0
LINE
  8
0
 10
3.51993
 20
13.1366
 11
5.20448
 21
12.5648
  0
LINE
  8
0
 10
5.20448
 20
12.5648
 11
6.79999
 21
11.7779
  0
LINE
  8
0
 10
6.79999
 20
11.7779
 11
8.27914
 21
10.7896
  0
LINE
  8
0
 10
8.27914
 20
10.7896
 11
9.61664
 21
9.61664
  0
LINE
  8
0
 10
9.61664
 20
9.61664
 11
10.7896
 21
8.27914
  0
LINE
  8
0
 10
10.7896
 20
8.27914
 11
11.7779
 21
6.79999
  0
LINE
  8
0
 10
11.7779
 20
6.79999
 11
12.5648
 21
5.20448
  0
LINE
  8
0
 10
12.5648
 20
5.20448
 11
13.1366
 21
3.51993
  0
LINE
  8
0
 10
13.1366
 20
3.51993
 11
13.4836
 21
1.77515
  0
LINE
  8
0
 10
13.4836
 20
1.77515
 11
13.6
 21
0
  0
LINE
  8
0
 10
13.6
 20
0
 11
13.4836
 21
-1.77515
  0
LINE
  8
0
 10
13.4836
 20
-1.77515
 11
13.1366
 21
-3.51993
  0
LINE
  8
0
 10
13.1366
 20
-3.51993
 11
12.5648
 21
-5.20448
  0
LINE
  8
0
 10
12.5648
 20
-5.20448
 11
11.7779
 21
-6.79999
  0
LINE
  8
0
 10
11.7779
 20
-6.79999
 11
10.7896
 21
-8.27914
  0
LINE
  8
0
 10
10.7896
 20
-8.27914
 11
9.61664
 21
-9.61664
  0
LINE
  8
0
 10
9.61664
 20
-9.61664
 11
8.27914
 21
-10.7896
  0
LINE
  8
0
 10
8.27914
 20
-10.7896
 11
6.79999
 21
-11.7779
  0
LINE
  8
0
 10
6.79999
 20
-11.7779
 11
5.20448
 21
-12.5648
  0
LINE
  8
0
 10
5.20448
 20
-12.5648
 11
3.51993
 21
-13.1366
  0
LINE
  8
0
 10
3.51993
 20
-13.1366
 11
1.77515
 21
-13.4836
  0
LINE
  8
0
 10
1.77515
 20
-13.4836
 11
0
 21
-13.6
  0
LINE
  8
0
 10
0
 20
-13.6
 11
-1.77515
 21
-13.4836
  0
ENDSEC
  0
SECTION
  2
OBJECTS
  0
DICTIONARY
  0
ENDSEC
  0
EOF
