  0
SECTION
  2
BLOCKS
  0
ENDSEC
  0
SECTION
  2
ENTITIES
  0
LINE
  8
0
 10
9
 20
-15
 11
9.05133
 21
-14.2168
  0
LINE
  8
0
 10
9.05133
 20
-14.2168
 11
9.20444
 21
-13.4471
  0
LINE
  8
0
 10
9.20444
 20
-13.4471
 11
9.45671
 21
-12.7039
  0
LINE
  8
0
 10
9.45671
 20
-12.7039
 11
9.80383
 21
-12
  0
LINE
  8
0
 10
9.80383
 20
-12
 11
10.2399
 21
-11.3474
  0
LINE
  8
0
 10
10.2399
 20
-11.3474
 11
10.7574
 21
-10.7574
  0
LINE
  8
0
 10
10.7574
 20
-10.7574
 11
11.3474
 21
-10.2399
  0
LINE
  8
0
 10
11.3474
 20
-10.2399
 11
12
 21
-9.80383
  0
LINE
  8
0
 10
12
 20
-9.80383
 11
12.7039
 21
-9.45671
  0
LINE
  8
0
 10
12.7039
 20
-9.45671
 11
13.4471
 21
-9.20444
  0
LINE
  8
0
 10
13.4471
 20
-9.20444
 11
13.5832
 21
-9.17737
  0
LINE
  8
0
 10
13.5832
 20
-9.17737
 11
13.4444
 21
-9.05563
  0
LINE
  8
0
 10
13.4444
 20
-9.05563
 11
13.2546
 21
-8.83926
  0
LINE
  8
0
 10
13.2546
 20
-8.83926
 11
13.0947
 21
-8.59999
  0
LINE
  8
0
 10
13.0947
 20
-8.59999
 11
12.9675
 21
-8.34189
  0
LINE
  8
0
 10
12.9675
 20
-8.34189
 11
12.875
 21
-8.0694
  0
LINE
  8
0
 10
12.875
 20
-8.0694
 11
12.8188
 21
-7.78716
  0
LINE
  8
0
 10
12.8188
 20
-7.78716
 11
12.8
 21
-7.5
  0
LINE
  8
0
 10
12.8
 20
-7.5
 11
12.8188
 21
-7.21283
  0
LINE
  8
0
 10
12.8188
 20
-7.21283
 11
12.875
 21
-6.93059
  0
LINE
  8
0
 10
12.875
 20
-6.93059
 11
12.9675
 21
-6.6581
  0
LINE
  8
0
 10
12.9675
 20
-6.6581
 11
13.0947
 21
-6.39999
  0
LINE
  8
0
 10
13.0947
 20
-6.39999
 11
13.2546
 21
-6.16072
  0
LINE
  8
0
 10
13.2546
 20
-6.16072
 11
13.4444
 21
-5.94435
  0
LINE
  8
0
 10
13.4444
 20
-5.94435
 11
13.6607
 21
-5.75461
  0
LINE
  8
0
 10
13.6607
 20
-5.75461
 11
13.9
 21
-5.59474
  0
LINE
  8
0
 10
13.9
 20
-5.59474
 11
14.1581
 21
-5.46745
  0
LINE
  8
0
 10
14.1581
 20
-5.46745
 11
14.4306
 21
-5.37495
  0
LINE
  8
0
 10
14.4306
 20
-5.37495
 11
14.7128
 21
-5.31882
  0
LINE
  8
0
 10
14.7128
 20
-5.31882
 11
15
 21
-5.29999
  0
LINE
  8
0
 10
15
 20
-5.29999
 11
15.2872
 21
-5.31882
  0
LINE
  8
0
 10
15.2872
 20
-5.31882
 11
15.5694
 21
-5.37495
  0
LINE
  8
0
 10
15.5694
 20
-5.37495
 11
15.8419
 21
-5.46745
  0
LINE
  8
0
 10
15.8419
 20
-5.46745
 11
16.1
 21
-5.59474
  0
LINE
  8
0
 10
16.1
 20
-5.59474
 11
16.3393
 21
-5.75461
  0
LINE
  8
0
 10
16.3393
 20
-5.75461
 11
16.5556
 21
-5.94435
  0
LINE
  8
0
 10
16.5556
 20
-5.94435
 11
16.7454
 21
-6.16072
  0
LINE
  8
0
 10
16.7454
 20
-6.16072
 11
16.9052
 21
-6.39999
  0
LINE
  8
0
 10
16.9052
 20
-6.39999
 11
17.0325
 21
-6.6581
  0
LINE
  8
0
 10
17.0325
 20
-6.6581
 11
17.125
 21
-6.93059
  0
LINE
  8
0
 10
17.125
 20
-6.93059
 11
17.1812
 21
-7.21283
  0
LINE
  8
0
 10
17.1812
 20
-7.21283
 11
17.2
 21
-7.5
  0
LINE
  8
0
 10
17.2
 20
-7.5
 11
17.1812
 21
-7.78716
  0
LINE
  8
0
 10
17.1812
 20
-7.78716
 11
17.125
 21
-8.0694
  0
LINE
  8
0
 10
17.125
 20
-8.0694
 11
17.0325
 21
-8.34189
  0
LINE
  8
0
 10
17.0325
 20
-8.34189
 11
16.9052
 21
-8.59999
  0
LINE
  8
0
 10
16.9052
 20
-8.59999
 11
16.7454
 21
-8.83926
  0
LINE
  8
0
 10
16.7454
 20
-8.83926
 11
16.6044
 21
-9
  0
LINE
  8
0
 10
16.6044
 20
-9
 11
21.005
 21
-9
  0
LINE
  8
0
 10
21.005
 20
-9
 11
21.005
 21
9
  0
LINE
  8
0
 10
21.005
 20
9
 11
16.6044
 21
9
  0
LINE
  8
0
 10
16.6044
 20
9
 11
16.7454
 21
8.83926
  0
LINE
  8
0
 10
16.7454
 20
8.83926
 11
16.9052
 21
8.59999
  0
LINE
  8
0
 10
16.9052
 20
8.59999
 11
17.0325
 21
8.34189
  0
LINE
  8
0
 10
17.0325
 20
8.34189
 11
17.125
 21
8.0694
  0
LINE
  8
0
 10
17.125
 20
8.0694
 11
17.1812
 21
7.78716
  0
LINE
  8
0
 10
17.1812
 20
7.78716
 11
17.2
 21
7.5
  0
LINE
  8
0
 10
17.2
 20
7.5
 11
17.1812
 21
7.21283
  0
LINE
  8
0
 10
17.1812
 20
7.21283
 11
17.125
 21
6.93059
  0
LINE
  8
0
 10
17.125
 20
6.93059
 11
17.0325
 21
6.6581
  0
LINE
  8
0
 10
17.0325
 20
6.6581
 11
16.9052
 21
6.39999
  0
LINE
  8
0
 10
16.9052
 20
6.39999
 11
16.7454
 21
6.16072
  0
LINE
  8
0
 10
16.7454
 20
6.16072
 11
16.5556
 21
5.94435
  0
LINE
  8
0
 10
16.5556
 20
5.94435
 11
16.3393
 21
5.75461
  0
LINE
  8
0
 10
16.3393
 20
5.75461
 11
16.1
 21
5.59474
  0
LINE
  8
0
 10
16.1
 20
5.59474
 11
15.8419
 21
5.46745
  0
LINE
  8
0
 10
15.8419
 20
5.46745
 11
15.5694
 21
5.37495
  0
LINE
  8
0
 10
15.5694
 20
5.37495
 11
15.2872
 21
5.31882
  0
LINE
  8
0
 10
15.2872
 20
5.31882
 11
15
 21
5.29999
  0
LINE
  8
0
 10
15
 20
5.29999
 11
14.7128
 21
5.31882
  0
LINE
  8
0
 10
14.7128
 20
5.31882
 11
14.4306
 21
5.37495
  0
LINE
  8
0
 10
14.4306
 20
5.37495
 11
14.1581
 21
5.46745
  0
LINE
  8
0
 10
14.1581
 20
5.46745
 11
13.9
 21
5.59474
  0
LINE
  8
0
 10
13.9
 20
5.59474
 11
13.6607
 21
5.75461
  0
LINE
  8
0
 10
13.6607
 20
5.75461
 11
13.4444
 21
5.94435
  0
LINE
  8
0
 10
13.4444
 20
5.94435
 11
13.2546
 21
6.16072
  0
LINE
  8
0
 10
13.2546
 20
6.16072
 11
13.0947
 21
6.39999
  0
LINE
  8
0
 10
13.0947
 20
6.39999
 11
12.9675
 21
6.6581
  0
LINE
  8
0
 10
12.9675
 20
6.6581
 11
12.875
 21
6.93059
  0
LINE
  8
0
 10
12.875
 20
6.93059
 11
12.8188
 21
7.21283
  0
LINE
  8
0
 10
12.8188
 20
7.21283
 11
12.8
 21
7.5
  0
LINE
  8
0
 10
12.8
 20
7.5
 11
12.8188
 21
7.78716
  0
LINE
  8
0
 10
12.8188
 20
7.78716
 11
12.875
 21
8.0694
  0
LINE
  8
0
 10
12.875
 20
8.0694
 11
12.9675
 21
8.34189
  0
LINE
  8
0
 10
12.9675
 20
8.34189
 11
13.0947
 21
8.59999
  0
LINE
  8
0
 10
13.0947
 20
8.59999
 11
13.2546
 21
8.83926
  0
LINE
  8
0
 10
13.2546
 20
8.83926
 11
13.4444
 21
9.05563
  0
LINE
  8
0
 10
13.4444
 20
9.05563
 11
13.5832
 21
9.17737
  0
LINE
  8
0
 10
13.5832
 20
9.17737
 11
13.4471
 21
9.20444
  0
LINE
  8
0
 10
13.4471
 20
9.20444
 11
12.7039
 21
9.45671
  0
LINE
  8
0
 10
12.7039
 20
9.45671
 11
12
 21
9.80383
  0
LINE
  8
0
 10
12
 20
9.80383
 11
11.3474
 21
10.2399
  0
LINE
  8
0
 10
11.3474
 20
10.2399
 11
10.7574
 21
10.7574
  0
LINE
  8
0
 10
10.7574
 20
10.7574
 11
10.2399
 21
11.3474
  0
LINE
  8
0
 10
10.2399
 20
11.3474
 11
9.80383
 21
12
  0
LINE
  8
0
 10
9.80383
 20
12
 11
9.45671
 21
12.7039
  0
LINE
  8
0
 10
9.45671
 20
12.7039
 11
9.20444
 21
13.4471
  0
LINE
  8
0
 10
9.20444
 20
13.4471
 11
9.05133
 21
14.2168
  0
LINE
  8
0
 10
9.05133
 20
14.2168
 11
9
 21
15
  0
LINE
  8
0
 10
9
 20
15
 11
9
 21
22.505
  0
LINE
  8
0
 10
9
 20
22.505
 11
-9
 21
22.505
  0
LINE
  8
0
 10
-9
 20
22.505
 11
-9
 21
15
  0
LINE
  8
0
 10
-9
 20
15
 11
-9.05133
 21
14.2168
  0
LINE
  8
0
 10
-9.05133
 20
14.2168
 11
-9.20444
 21
13.4471
  0
LINE
  8
0
 10
-9.20444
 20
13.4471
 11
-9.45671
 21
12.7039
  0
LINE
  8
0
 10
-9.45671
 20
12.7039
 11
-9.80383
 21
12
  0
LINE
  8
0
 10
-9.80383
 20
12
 11
-10.2399
 21
11.3474
  0
LINE
  8
0
 10
-10.2399
 20
11.3474
 11
-10.7574
 21
10.7574
  0
LINE
  8
0
 10
-10.7574
 20
10.7574
 11
-11.3474
 21
10.2399
  0
LINE
  8
0
 10
-11.3474
 20
10.2399
 11
-12
 21
9.80383
  0
LINE
  8
0
 10
-12
 20
9.80383
 11
-12.7039
 21
9.45671
  0
LINE
  8
0
 10
-12.7039
 20
9.45671
 11
-13.4471
 21
9.20444
  0
LINE
  8
0
 10
-13.4471
 20
9.20444
 11
-13.5832
 21
9.17737
  0
LINE
  8
0
 10
-13.5832
 20
9.17737
 11
-13.4444
 21
9.05563
  0
LINE
  8
0
 10
-13.4444
 20
9.05563
 11
-13.2546
 21
8.83926
  0
LINE
  8
0
 10
-13.2546
 20
8.83926
 11
-13.0947
 21
8.59999
  0
LINE
  8
0
 10
-13.0947
 20
8.59999
 11
-12.9675
 21
8.34189
  0
LINE
  8
0
 10
-12.9675
 20
8.34189
 11
-12.875
 21
8.0694
  0
LINE
  8
0
 10
-12.875
 20
8.0694
 11
-12.8188
 21
7.78716
  0
LINE
  8
0
 10
-12.8188
 20
7.78716
 11
-12.8
 21
7.5
  0
LINE
  8
0
 10
-12.8
 20
7.5
 11
-12.8188
 21
7.21283
  0
LINE
  8
0
 10
-12.8188
 20
7.21283
 11
-12.875
 21
6.93059
  0
LINE
  8
0
 10
-12.875
 20
6.93059
 11
-12.9675
 21
6.6581
  0
LINE
  8
0
 10
-12.9675
 20
6.6581
 11
-13.0947
 21
6.39999
  0
LINE
  8
0
 10
-13.0947
 20
6.39999
 11
-13.2546
 21
6.16072
  0
LINE
  8
0
 10
-13.2546
 20
6.16072
 11
-13.4444
 21
5.94435
  0
LINE
  8
0
 10
-13.4444
 20
5.94435
 11
-13.6607
 21
5.75461
  0
LINE
  8
0
 10
-13.6607
 20
5.75461
 11
-13.9
 21
5.59474
  0
LINE
  8
0
 10
-13.9
 20
5.59474
 11
-14.1581
 21
5.46745
  0
LINE
  8
0
 10
-14.1581
 20
5.46745
 11
-14.4306
 21
5.37495
  0
LINE
  8
0
 10
-14.4306
 20
5.37495
 11
-14.7128
 21
5.31882
  0
LINE
  8
0
 10
-14.7128
 20
5.31882
 11
-15
 21
5.29999
  0
LINE
  8
0
 10
-15
 20
5.29999
 11
-15.2872
 21
5.31882
  0
LINE
  8
0
 10
-15.2872
 20
5.31882
 11
-15.5694
 21
5.37495
  0
LINE
  8
0
 10
-15.5694
 20
5.37495
 11
-15.8419
 21
5.46745
  0
LINE
  8
0
 10
-15.8419
 20
5.46745
 11
-16.1
 21
5.59474
  0
LINE
  8
0
 10
-16.1
 20
5.59474
 11
-16.3393
 21
5.75461
  0
LINE
  8
0
 10
-16.3393
 20
5.75461
 11
-16.5556
 21
5.94435
  0
LINE
  8
0
 10
-16.5556
 20
5.94435
 11
-16.7454
 21
6.16072
  0
LINE
  8
0
 10
-16.7454
 20
6.16072
 11
-16.9052
 21
6.39999
  0
LINE
  8
0
 10
-16.9052
 20
6.39999
 11
-17.0325
 21
6.6581
  0
LINE
  8
0
 10
-17.0325
 20
6.6581
 11
-17.125
 21
6.93059
  0
LINE
  8
0
 10
-17.125
 20
6.93059
 11
-17.1812
 21
7.21283
  0
LINE
  8
0
 10
-17.1812
 20
7.21283
 11
-17.2
 21
7.5
  0
LINE
  8
0
 10
-17.2
 20
7.5
 11
-17.1812
 21
7.78716
  0
LINE
  8
0
 10
-17.1812
 20
7.78716
 11
-17.125
 21
8.0694
  0
LINE
  8
0
 10
-17.125
 20
8.0694
 11
-17.0325
 21
8.34189
  0
LINE
  8
0
 10
-17.0325
 20
8.34189
 11
-16.9052
 21
8.59999
  0
LINE
  8
0
 10
-16.9052
 20
8.59999
 11
-16.7454
 21
8.83926
  0
LINE
  8
0
 10
-16.7454
 20
8.83926
 11
-16.6044
 21
9
  0
LINE
  8
0
 10
-16.6044
 20
9
 11
-21.005
 21
9
  0
LINE
  8
0
 10
-21.005
 20
9
 11
-21.005
 21
-9
  0
LINE
  8
0
 10
-21.005
 20
-9
 11
-16.6044
 21
-9
  0
LINE
  8
0
 10
-16.6044
 20
-9
 11
-16.7454
 21
-8.83926
  0
LINE
  8
0
 10
-16.7454
 20
-8.83926
 11
-16.9052
 21
-8.59999
  0
LINE
  8
0
 10
-16.9052
 20
-8.59999
 11
-17.0325
 21
-8.34189
  0
LINE
  8
0
 10
-17.0325
 20
-8.34189
 11
-17.125
 21
-8.0694
  0
LINE
  8
0
 10
-17.125
 20
-8.0694
 11
-17.1812
 21
-7.78716
  0
LINE
  8
0
 10
-17.1812
 20
-7.78716
 11
-17.2
 21
-7.5
  0
LINE
  8
0
 10
-17.2
 20
-7.5
 11
-17.1812
 21
-7.21283
  0
LINE
  8
0
 10
-17.1812
 20
-7.21283
 11
-17.125
 21
-6.93059
  0
LINE
  8
0
 10
-17.125
 20
-6.93059
 11
-17.0325
 21
-6.6581
  0
LINE
  8
0
 10
-17.0325
 20
-6.6581
 11
-16.9052
 21
-6.39999
  0
LINE
  8
0
 10
-16.9052
 20
-6.39999
 11
-16.7454
 21
-6.16072
  0
LINE
  8
0
 10
-16.7454
 20
-6.16072
 11
-16.5556
 21
-5.94435
  0
LINE
  8
0
 10
-16.5556
 20
-5.94435
 11
-16.3393
 21
-5.75461
  0
LINE
  8
0
 10
-16.3393
 20
-5.75461
 11
-16.1
 21
-5.59474
  0
LINE
  8
0
 10
-16.1
 20
-5.59474
 11
-15.8419
 21
-5.46745
  0
LINE
  8
0
 10
-15.8419
 20
-5.46745
 11
-15.5694
 21
-5.37495
  0
LINE
  8
0
 10
-15.5694
 20
-5.37495
 11
-15.2872
 21
-5.31882
  0
LINE
  8
0
 10
-15.2872
 20
-5.31882
 11
-15
 21
-5.29999
  0
LINE
  8
0
 10
-15
 20
-5.29999
 11
-14.7128
 21
-5.31882
  0
LINE
  8
0
 10
-14.7128
 20
-5.31882
 11
-14.4306
 21
-5.37495
  0
LINE
  8
0
 10
-14.4306
 20
-5.37495
 11
-14.1581
 21
-5.46745
  0
LINE
  8
0
 10
-14.1581
 20
-5.46745
 11
-13.9
 21
-5.59474
  0
LINE
  8
0
 10
-13.9
 20
-5.59474
 11
-13.6607
 21
-5.75461
  0
LINE
  8
0
 10
-13.6607
 20
-5.75461
 11
-13.4444
 21
-5.94435
  0
LINE
  8
0
 10
-13.4444
 20
-5.94435
 11
-13.2546
 21
-6.16072
  0
LINE
  8
0
 10
-13.2546
 20
-6.16072
 11
-13.0947
 21
-6.39999
  0
LINE
  8
0
 10
-13.0947
 20
-6.39999
 11
-12.9675
 21
-6.6581
  0
LINE
  8
0
 10
-12.9675
 20
-6.6581
 11
-12.875
 21
-6.93059
  0
LINE
  8
0
 10
-12.875
 20
-6.93059
 11
-12.8188
 21
-7.21283
  0
LINE
  8
0
 10
-12.8188
 20
-7.21283
 11
-12.8
 21
-7.5
  0
LINE
  8
0
 10
-12.8
 20
-7.5
 11
-12.8188
 21
-7.78716
  0
LINE
  8
0
 10
-12.8188
 20
-7.78716
 11
-12.875
 21
-8.0694
  0
LINE
  8
0
 10
-12.875
 20
-8.0694
 11
-12.9675
 21
-8.34189
  0
LINE
  8
0
 10
-12.9675
 20
-8.34189
 11
-13.0947
 21
-8.59999
  0
LINE
  8
0
 10
-13.0947
 20
-8.59999
 11
-13.2546
 21
-8.83926
  0
LINE
  8
0
 10
-13.2546
 20
-8.83926
 11
-13.4444
 21
-9.05563
  0
LINE
  8
0
 10
-13.4444
 20
-9.05563
 11
-13.5832
 21
-9.17737
  0
LINE
  8
0
 10
-13.5832
 20
-9.17737
 11
-13.4471
 21
-9.20444
  0
LINE
  8
0
 10
-13.4471
 20
-9.20444
 11
-12.7039
 21
-9.45671
  0
LINE
  8
0
 10
-12.7039
 20
-9.45671
 11
-12
 21
-9.80383
  0
LINE
  8
0
 10
-12
 20
-9.80383
 11
-11.3474
 21
-10.2399
  0
LINE
  8
0
 10
-11.3474
 20
-10.2399
 11
-10.7574
 21
-10.7574
  0
LINE
  8
0
 10
-10.7574
 20
-10.7574
 11
-10.2399
 21
-11.3474
  0
LINE
  8
0
 10
-10.2399
 20
-11.3474
 11
-9.80383
 21
-12
  0
LINE
  8
0
 10
-9.80383
 20
-12
 11
-9.45671
 21
-12.7039
  0
LINE
  8
0
 10
-9.45671
 20
-12.7039
 11
-9.20444
 21
-13.4471
  0
LINE
  8
0
 10
-9.20444
 20
-13.4471
 11
-9.05133
 21
-14.2168
  0
LINE
  8
0
 10
-9.05133
 20
-14.2168
 11
-9
 21
-15
  0
LINE
  8
0
 10
-9
 20
-15
 11
-9
 21
-22.505
  0
LINE
  8
0
 10
-9
 20
-22.505
 11
9
 21
-22.505
  0
LINE
  8
0
 10
9
 20
-22.505
 11
9
 21
-15
  0
LINE
  8
0
 10
-1.77515
 20
-13.4836
 11
-3.51993
 21
-13.1366
  0
LINE
  8
0
 10
-3.51993
 20
-13.1366
 11
-5.20448
 21
-12.5648
  0
LINE
  8
0
 10
-5.20448
 20
-12.5648
 11
-6.79999
 21
-11.7779
  0
LINE
  8
0
 10
-6.79999
 20
-11.7779
 11
-8.27914
 21
-10.7896
  0
LINE
  8
0
 10
-8.27914
 20
-10.7896
 11
-9.61664
 21
-9.61664
  0
LINE
  8
0
 10
-9.61664
 20
-9.61664
 11
-10.7896
 21
-8.27914
  0
LINE
  8
0
 10
-10.7896
 20
-8.27914
 11
-11.7779
 21
-6.79999
  0
LINE
  8
0
 10
-11.7779
 20
-6.79999
 11
-12.5648
 21
-5.20448
  0
LINE
  8
0
 10
-12.5648
 20
-5.20448
 11
-13.1366
 21
-3.51993
  0
LINE
  8
0
 10
-13.1366
 20
-3.51993
 11
-13.4836
 21
-1.77515
  0
LINE
  8
0
 10
-13.4836
 20
-1.77515
 11
-13.6
 21
0
  0
LINE
  8
0
 10
-13.6
 20
0
 11
-13.4836
 21
1.77515
  0
LINE
  8
0
 10
-13.4836
 20
1.77515
 11
-13.1366
 21
3.51993
  0
LINE
  8
0
 10
-13.1366
 20
3.51993
 11
-12.5648
 21
5.20448
  0
LINE
  8
0
 10
-12.5648
 20
5.20448
 11
-11.7779
 21
6.79999
  0
LINE
  8
0
 10
-11.7779
 20
6.79999
 11
-10.7896
 21
8.27914
  0
LINE
  8
0
 10
-10.7896
 20
8.27914
 11
-9.61664
 21
9.61664
  0
LINE
  8
0
 10
-9.61664
 20
9.61664
 11
-8.27914
 21
10.7896
  0
LINE
  8
0
 10
-8.27914
 20
10.7896
 11
-6.79999
 21
11.7779
  0
LINE
  8
0
 10
-6.79999
 20
11.7779
 11
-5.20448
 21
12.5648
  0
LINE
  8
0
 10
-5.20448
 20
12.5648
 11
-3.51993
 21
13.1366
  0
LINE
  8
0
 10
-3.51993
 20
13.1366
 11
-1.77515
 21
13.4836
  0
LINE
  8
0
 10
-1.77515
 20
13.4836
 11
0
 21
13.6
  0
LINE
  8
0
 10
0
 20
13.6
 11
1.77515
 21
13.4836
  0
LINE
  8
0
 10
1.77515
 20
13.4836
 11
3.51993
 21
13.1366
  0
LINE
  8
0
 10
3.51993
 20
13.1366
 11
5.20448
 21
12.5648
  0
LINE
  8
0
 10
5.20448
 20
12.5648
 11
6.79999
 21
11.7779
  0
LINE
  8
0
 10
6.79999
 20
11.7779
 11
8.27914
 21
10.7896
  0
LINE
  8
0
 10
8.27914
 20
10.7896
 11
9.61664
 21
9.61664
  0
LINE
  8
0
 10
9.61664
 20
9.61664
 11
10.7896
 21
8.27914
  0
LINE
  8
0
 10
10.7896
 20
8.27914
 11
11.7779
 21
6.79999
  0
LINE
  8
0
 10
11.7779
 20
6.79999
 11
12.5648
 21
5.20448
  0
LINE
  8
0
 10
12.5648
 20
5.20448
 11
13.1366
 21
3.51993
  0
LINE
  8
0
 10
13.1366
 20
3.51993
 11
13.4836
 21
1.77515
  0
LINE
  8
0
 10
13.4836
 20
1.77515
 11
13.6
 21
0
  0
LINE
  8
0
 10
13.6
 20
0
 11
13.4836
 21
-1.77515
  0
LINE
  8
0
 10
13.4836
 20
-1.77515
 11
13.1366
 21
-3.51993
  0
LINE
  8
0
 10
13.1366
 20
-3.51993
 11
12.5648
 21
-5.20448
  0
LINE
  8
0
 10
12.5648
 20
-5.20448
 11
11.7779
 21
-6.79999
  0
LINE
  8
0
 10
11.7779
 20
-6.79999
 11
10.7896
 21
-8.27914
  0
LINE
  8
0
 10
10.7896
 20
-8.27914
 11
9.61664
 21
-9.61664
  0
LINE
  8
0
 10
9.61664
 20
-9.61664
 11
8.27914
 21
-10.7896
  0
LINE
  8
0
 10
8.27914
 20
-10.7896
 11
6.79999
 21
-11.7779
  0
LINE
  8
0
 10
6.79999
 20
-11.7779
 11
5.20448
 21
-12.5648
  0
LINE
  8
0
 10
5.20448
 20
-12.5648
 11
3.51993
 21
-13.1366
  0
LINE
  8
0
 10
3.51993
 20
-13.1366
 11
1.77515
 21
-13.4836
  0
LINE
  8
0
 10
1.77515
 20
-13.4836
 11
0
 21
-13.6
  0
LINE
  8
0
 10
0
 20
-13.6
 11
-1.77515
 21
-13.4836
  0
LINE
  8
0
 10
70
 20
-11
 11
81
 21
-11
  0
LINE
  8
0
 10
81
 20
-11
 11
81
 21
2
  0
LINE
  8
0
 10
81
 20
2
 11
70
 21
2
  0
LINE
  8
0
 10
70
 20
2
 11
70
 21
21.85
  0
LINE
  8
0
 10
70
 20
21.85
 11
50
 21
21.85
  0
LINE
  8
0
 10
50
 20
21.85
 11
50
 21
2
  0
LINE
  8
0
 10
50
 20
2
 11
39
 21
2
  0
LINE
  8
0
 10
39
 20
2
 11
39
 21
-11
  0
LINE
  8
0
 10
39
 20
-11
 11
50
 21
-11
  0
LINE
  8
0
 10
50
 20
-11
 11
50
 21
-11.15
  0
LINE
  8
0
 10
50
 20
-11.15
 11
70
 21
-11.15
  0
LINE
  8
0
 10
70
 20
-11.15
 11
70
 21
-11
  0
LINE
  8
0
 10
59.8499
 20
-9.64015
 11
59.7023
 21
-9.61081
  0
LINE
  8
0
 10
59.7023
 20
-9.61081
 11
59.5599
 21
-9.56245
  0
LINE
  8
0
 10
59.5599
 20
-9.56245
 11
59.425
 21
-9.49593
  0
LINE
  8
0
 10
59.425
 20
-9.49593
 11
59.2999
 21
-9.41235
  0
LINE
  8
0
 10
59.2999
 20
-9.41235
 11
59.1868
 21
-9.31317
  0
LINE
  8
0
 10
59.1868
 20
-9.31317
 11
59.0876
 21
-9.20007
  0
LINE
  8
0
 10
59.0876
 20
-9.20007
 11
59.0041
 21
-9.075
  0
LINE
  8
0
 10
59.0041
 20
-9.075
 11
58.9375
 21
-8.94008
  0
LINE
  8
0
 10
58.9375
 20
-8.94008
 11
58.8892
 21
-8.79764
  0
LINE
  8
0
 10
58.8892
 20
-8.79764
 11
58.8598
 21
-8.6501
  0
LINE
  8
0
 10
58.8598
 20
-8.6501
 11
58.85
 21
-8.5
  0
LINE
  8
0
 10
58.85
 20
-8.5
 11
58.85
 21
-6.625
  0
LINE
  8
0
 10
58.85
 20
-6.625
 11
53
 21
-6.625
  0
LINE
  8
0
 10
53
 20
-6.625
 11
53
 21
17.375
  0
LINE
  8
0
 10
53
 20
17.375
 11
58.85
 21
17.375
  0
LINE
  8
0
 10
58.85
 20
17.375
 11
58.85
 21
19.25
  0
LINE
  8
0
 10
58.85
 20
19.25
 11
58.8598
 21
19.4001
  0
LINE
  8
0
 10
58.8598
 20
19.4001
 11
58.8892
 21
19.5476
  0
LINE
  8
0
 10
58.8892
 20
19.5476
 11
58.9375
 21
19.6901
  0
LINE
  8
0
 10
58.9375
 20
19.6901
 11
59.0041
 21
19.825
  0
LINE
  8
0
 10
59.0041
 20
19.825
 11
59.0876
 21
19.9501
  0
LINE
  8
0
 10
59.0876
 20
19.9501
 11
59.1868
 21
20.0632
  0
LINE
  8
0
 10
59.1868
 20
20.0632
 11
59.2999
 21
20.1624
  0
LINE
  8
0
 10
59.2999
 20
20.1624
 11
59.425
 21
20.2459
  0
LINE
  8
0
 10
59.425
 20
20.2459
 11
59.5599
 21
20.3125
  0
LINE
  8
0
 10
59.5599
 20
20.3125
 11
59.7023
 21
20.3608
  0
LINE
  8
0
 10
59.7023
 20
20.3608
 11
59.8499
 21
20.3902
  0
LINE
  8
0
 10
59.8499
 20
20.3902
 11
60
 21
20.4
  0
LINE
  8
0
 10
60
 20
20.4
 11
60.1501
 21
20.3902
  0
LINE
  8
0
 10
60.1501
 20
20.3902
 11
60.2976
 21
20.3608
  0
LINE
  8
0
 10
60.2976
 20
20.3608
 11
60.4401
 21
20.3125
  0
LINE
  8
0
 10
60.4401
 20
20.3125
 11
60.575
 21
20.2459
  0
LINE
  8
0
 10
60.575
 20
20.2459
 11
60.7001
 21
20.1624
  0
LINE
  8
0
 10
60.7001
 20
20.1624
 11
60.8132
 21
20.0632
  0
LINE
  8
0
 10
60.8132
 20
20.0632
 11
60.9124
 21
19.9501
  0
LINE
  8
0
 10
60.9124
 20
19.9501
 11
60.9959
 21
19.825
  0
LINE
  8
0
 10
60.9959
 20
19.825
 11
61.0625
 21
19.6901
  0
LINE
  8
0
 10
61.0625
 20
19.6901
 11
61.1108
 21
19.5476
  0
LINE
  8
0
 10
61.1108
 20
19.5476
 11
61.1402
 21
19.4001
  0
LINE
  8
0
 10
61.1402
 20
19.4001
 11
61.15
 21
19.25
  0
LINE
  8
0
 10
61.15
 20
19.25
 11
61.15
 21
17.375
  0
LINE
  8
0
 10
61.15
 20
17.375
 11
67
 21
17.375
  0
LINE
  8
0
 10
67
 20
17.375
 11
67
 21
-6.625
  0
LINE
  8
0
 10
67
 20
-6.625
 11
61.15
 21
-6.625
  0
LINE
  8
0
 10
61.15
 20
-6.625
 11
61.15
 21
-8.5
  0
LINE
  8
0
 10
61.15
 20
-8.5
 11
61.1402
 21
-8.6501
  0
LINE
  8
0
 10
61.1402
 20
-8.6501
 11
61.1108
 21
-8.79764
  0
LINE
  8
0
 10
61.1108
 20
-8.79764
 11
61.0625
 21
-8.94008
  0
LINE
  8
0
 10
61.0625
 20
-8.94008
 11
60.9959
 21
-9.075
  0
LINE
  8
0
 10
60.9959
 20
-9.075
 11
60.9124
 21
-9.20007
  0
LINE
  8
0
 10
60.9124
 20
-9.20007
 11
60.8132
 21
-9.31317
  0
LINE
  8
0
 10
60.8132
 20
-9.31317
 11
60.7001
 21
-9.41235
  0
LINE
  8
0
 10
60.7001
 20
-9.41235
 11
60.575
 21
-9.49593
  0
LINE
  8
0
 10
60.575
 20
-9.49593
 11
60.4401
 21
-9.56245
  0
LINE
  8
0
 10
60.4401
 20
-9.56245
 11
60.2976
 21
-9.61081
  0
LINE
  8
0
 10
60.2976
 20
-9.61081
 11
60.1501
 21
-9.64015
  0
LINE
  8
0
 10
60.1501
 20
-9.64015
 11
60
 21
-9.64999
  0
LINE
  8
0
 10
60
 20
-9.64999
 11
59.8499
 21
-9.64015
  0
LINE
  8
0
 10
74.7128
 20
-10.1812
 11
74.4306
 21
-10.125
  0
LINE
  8
0
 10
74.4306
 20
-10.125
 11
74.1581
 21
-10.0325
  0
LINE
  8
0
 10
74.1581
 20
-10.0325
 11
73.9
 21
-9.90524
  0
LINE
  8
0
 10
73.9
 20
-9.90524
 11
73.6607
 21
-9.74538
  0
LINE
  8
0
 10
73.6607
 20
-9.74538
 11
73.4444
 21
-9.55563
  0
LINE
  8
0
 10
73.4444
 20
-9.55563
 11
73.2546
 21
-9.33926
  0
LINE
  8
0
 10
73.2546
 20
-9.33926
 11
73.0947
 21
-9.09999
  0
LINE
  8
0
 10
73.0947
 20
-9.09999
 11
72.9675
 21
-8.84189
  0
LINE
  8
0
 10
72.9675
 20
-8.84189
 11
72.875
 21
-8.5694
  0
LINE
  8
0
 10
72.875
 20
-8.5694
 11
72.8188
 21
-8.28716
  0
LINE
  8
0
 10
72.8188
 20
-8.28716
 11
72.8
 21
-8
  0
LINE
  8
0
 10
72.8
 20
-8
 11
72.8
 21
-7
  0
LINE
  8
0
 10
72.8
 20
-7
 11
72.8188
 21
-6.71283
  0
LINE
  8
0
 10
72.8188
 20
-6.71283
 11
72.875
 21
-6.43059
  0
LINE
  8
0
 10
72.875
 20
-6.43059
 11
72.9675
 21
-6.1581
  0
LINE
  8
0
 10
72.9675
 20
-6.1581
 11
73.0947
 21
-5.89999
  0
LINE
  8
0
 10
73.0947
 20
-5.89999
 11
73.2546
 21
-5.66072
  0
LINE
  8
0
 10
73.2546
 20
-5.66072
 11
73.4444
 21
-5.44435
  0
LINE
  8
0
 10
73.4444
 20
-5.44435
 11
73.6607
 21
-5.25461
  0
LINE
  8
0
 10
73.6607
 20
-5.25461
 11
73.9
 21
-5.09474
  0
LINE
  8
0
 10
73.9
 20
-5.09474
 11
74.1581
 21
-4.96745
  0
LINE
  8
0
 10
74.1581
 20
-4.96745
 11
74.4306
 21
-4.87495
  0
LINE
  8
0
 10
74.4306
 20
-4.87495
 11
74.7128
 21
-4.81882
  0
LINE
  8
0
 10
74.7128
 20
-4.81882
 11
75
 21
-4.79999
  0
LINE
  8
0
 10
75
 20
-4.79999
 11
75.2872
 21
-4.81882
  0
LINE
  8
0
 10
75.2872
 20
-4.81882
 11
75.5694
 21
-4.87495
  0
LINE
  8
0
 10
75.5694
 20
-4.87495
 11
75.8419
 21
-4.96745
  0
LINE
  8
0
 10
75.8419
 20
-4.96745
 11
76.1
 21
-5.09474
  0
LINE
  8
0
 10
76.1
 20
-5.09474
 11
76.3393
 21
-5.25461
  0
LINE
  8
0
 10
76.3393
 20
-5.25461
 11
76.5556
 21
-5.44435
  0
LINE
  8
0
 10
76.5556
 20
-5.44435
 11
76.7454
 21
-5.66072
  0
LINE
  8
0
 10
76.7454
 20
-5.66072
 11
76.9053
 21
-5.89999
  0
LINE
  8
0
 10
76.9053
 20
-5.89999
 11
77.0325
 21
-6.1581
  0
LINE
  8
0
 10
77.0325
 20
-6.1581
 11
77.125
 21
-6.43059
  0
LINE
  8
0
 10
77.125
 20
-6.43059
 11
77.1812
 21
-6.71283
  0
LINE
  8
0
 10
77.1812
 20
-6.71283
 11
77.2
 21
-7
  0
LINE
  8
0
 10
77.2
 20
-7
 11
77.2
 21
-8
  0
LINE
  8
0
 10
77.2
 20
-8
 11
77.1812
 21
-8.28716
  0
LINE
  8
0
 10
77.1812
 20
-8.28716
 11
77.125
 21
-8.5694
  0
LINE
  8
0
 10
77.125
 20
-8.5694
 11
77.0325
 21
-8.84189
  0
LINE
  8
0
 10
77.0325
 20
-8.84189
 11
76.9053
 21
-9.09999
  0
LINE
  8
0
 10
76.9053
 20
-9.09999
 11
76.7454
 21
-9.33926
  0
LINE
  8
0
 10
76.7454
 20
-9.33926
 11
76.5556
 21
-9.55563
  0
LINE
  8
0
 10
76.5556
 20
-9.55563
 11
76.3393
 21
-9.74538
  0
LINE
  8
0
 10
76.3393
 20
-9.74538
 11
76.1
 21
-9.90524
  0
LINE
  8
0
 10
76.1
 20
-9.90524
 11
75.8419
 21
-10.0325
  0
LINE
  8
0
 10
75.8419
 20
-10.0325
 11
75.5694
 21
-10.125
  0
LINE
  8
0
 10
75.5694
 20
-10.125
 11
75.2872
 21
-10.1812
  0
LINE
  8
0
 10
75.2872
 20
-10.1812
 11
75
 21
-10.2
  0
LINE
  8
0
 10
75
 20
-10.2
 11
74.7128
 21
-10.1812
  0
LINE
  8
0
 10
44.7128
 20
-10.1812
 11
44.4306
 21
-10.125
  0
LINE
  8
0
 10
44.4306
 20
-10.125
 11
44.1581
 21
-10.0325
  0
LINE
  8
0
 10
44.1581
 20
-10.0325
 11
43.9
 21
-9.90524
  0
LINE
  8
0
 10
43.9
 20
-9.90524
 11
43.6607
 21
-9.74538
  0
LINE
  8
0
 10
43.6607
 20
-9.74538
 11
43.4444
 21
-9.55563
  0
LINE
  8
0
 10
43.4444
 20
-9.55563
 11
43.2546
 21
-9.33926
  0
LINE
  8
0
 10
43.2546
 20
-9.33926
 11
43.0947
 21
-9.09999
  0
LINE
  8
0
 10
43.0947
 20
-9.09999
 11
42.9675
 21
-8.84189
  0
LINE
  8
0
 10
42.9675
 20
-8.84189
 11
42.875
 21
-8.5694
  0
LINE
  8
0
 10
42.875
 20
-8.5694
 11
42.8188
 21
-8.28716
  0
LINE
  8
0
 10
42.8188
 20
-8.28716
 11
42.8
 21
-8
  0
LINE
  8
0
 10
42.8
 20
-8
 11
42.8
 21
-7
  0
LINE
  8
0
 10
42.8
 20
-7
 11
42.8188
 21
-6.71283
  0
LINE
  8
0
 10
42.8188
 20
-6.71283
 11
42.875
 21
-6.43059
  0
LINE
  8
0
 10
42.875
 20
-6.43059
 11
42.9675
 21
-6.1581
  0
LINE
  8
0
 10
42.9675
 20
-6.1581
 11
43.0947
 21
-5.89999
  0
LINE
  8
0
 10
43.0947
 20
-5.89999
 11
43.2546
 21
-5.66072
  0
LINE
  8
0
 10
43.2546
 20
-5.66072
 11
43.4444
 21
-5.44435
  0
LINE
  8
0
 10
43.4444
 20
-5.44435
 11
43.6607
 21
-5.25461
  0
LINE
  8
0
 10
43.6607
 20
-5.25461
 11
43.9
 21
-5.09474
  0
LINE
  8
0
 10
43.9
 20
-5.09474
 11
44.1581
 21
-4.96745
  0
LINE
  8
0
 10
44.1581
 20
-4.96745
 11
44.4306
 21
-4.87495
  0
LINE
  8
0
 10
44.4306
 20
-4.87495
 11
44.7128
 21
-4.81882
  0
LINE
  8
0
 10
44.7128
 20
-4.81882
 11
45
 21
-4.79999
  0
LINE
  8
0
 10
45
 20
-4.79999
 11
45.2872
 21
-4.81882
  0
LINE
  8
0
 10
45.2872
 20
-4.81882
 11
45.5694
 21
-4.87495
  0
LINE
  8
0
 10
45.5694
 20
-4.87495
 11
45.8419
 21
-4.96745
  0
LINE
  8
0
 10
45.8419
 20
-4.96745
 11
46.1
 21
-5.09474
  0
LINE
  8
0
 10
46.1
 20
-5.09474
 11
46.3393
 21
-5.25461
  0
LINE
  8
0
 10
46.3393
 20
-5.25461
 11
46.5556
 21
-5.44435
  0
LINE
  8
0
 10
46.5556
 20
-5.44435
 11
46.7454
 21
-5.66072
  0
LINE
  8
0
 10
46.7454
 20
-5.66072
 11
46.9053
 21
-5.89999
  0
LINE
  8
0
 10
46.9053
 20
-5.89999
 11
47.0325
 21
-6.1581
  0
LINE
  8
0
 10
47.0325
 20
-6.1581
 11
47.125
 21
-6.43059
  0
LINE
  8
0
 10
47.125
 20
-6.43059
 11
47.1812
 21
-6.71283
  0
LINE
  8
0
 10
47.1812
 20
-6.71283
 11
47.2
 21
-7
  0
LINE
  8
0
 10
47.2
 20
-7
 11
47.2
 21
-8
  0
LINE
  8
0
 10
47.2
 20
-8
 11
47.1812
 21
-8.28716
  0
LINE
  8
0
 10
47.1812
 20
-8.28716
 11
47.125
 21
-8.5694
  0
LINE
  8
0
 10
47.125
 20
-8.5694
 11
47.0325
 21
-8.84189
  0
LINE
  8
0
 10
47.0325
 20
-8.84189
 11
46.9053
 21
-9.09999
  0
LINE
  8
0
 10
46.9053
 20
-9.09999
 11
46.7454
 21
-9.33926
  0
LINE
  8
0
 10
46.7454
 20
-9.33926
 11
46.5556
 21
-9.55563
  0
LINE
  8
0
 10
46.5556
 20
-9.55563
 11
46.3393
 21
-9.74538
  0
LINE
  8
0
 10
46.3393
 20
-9.74538
 11
46.1
 21
-9.90524
  0
LINE
  8
0
 10
46.1
 20
-9.90524
 11
45.8419
 21
-10.0325
  0
LINE
  8
0
 10
45.8419
 20
-10.0325
 11
45.5694
 21
-10.125
  0
LINE
  8
0
 10
45.5694
 20
-10.125
 11
45.2872
 21
-10.1812
  0
LINE
  8
0
 10
45.2872
 20
-10.1812
 11
45
 21
-10.2
  0
LINE
  8
0
 10
45
 20
-10.2
 11
44.7128
 21
-10.1812
  0
LINE
  8
0
 10
66.6576
 20
-61.9622
 11
67.2991
 21
-61.8346
  0
LINE
  8
0
 10
67.2991
 20
-61.8346
 11
67.9184
 21
-61.6244
  0
LINE
  8
0
 10
67.9184
 20
-61.6244
 11
68.505
 21
-61.3351
  0
LINE
  8
0
 10
68.505
 20
-61.3351
 11
69.0488
 21
-60.9718
  0
LINE
  8
0
 10
69.0488
 20
-60.9718
 11
69.5405
 21
-60.5405
  0
LINE
  8
0
 10
69.5405
 20
-60.5405
 11
69.9718
 21
-60.0488
  0
LINE
  8
0
 10
69.9718
 20
-60.0488
 11
70.3351
 21
-59.505
  0
LINE
  8
0
 10
70.3351
 20
-59.505
 11
70.6244
 21
-58.9184
  0
LINE
  8
0
 10
70.6244
 20
-58.9184
 11
70.8346
 21
-58.2991
  0
LINE
  8
0
 10
70.8346
 20
-58.2991
 11
70.9622
 21
-57.6576
  0
LINE
  8
0
 10
70.9622
 20
-57.6576
 11
71.005
 21
-57.005
  0
LINE
  8
0
 10
71.005
 20
-57.005
 11
71.005
 21
-54.995
  0
LINE
  8
0
 10
71.005
 20
-54.995
 11
70.9725
 21
-54.5
  0
LINE
  8
0
 10
70.9725
 20
-54.5
 11
71.005
 21
-54.005
  0
LINE
  8
0
 10
71.005
 20
-54.005
 11
71.005
 21
-51.995
  0
LINE
  8
0
 10
71.005
 20
-51.995
 11
70.9725
 21
-51.5
  0
LINE
  8
0
 10
70.9725
 20
-51.5
 11
71.005
 21
-51.005
  0
LINE
  8
0
 10
71.005
 20
-51.005
 11
71.005
 21
-48.995
  0
LINE
  8
0
 10
71.005
 20
-48.995
 11
70.9725
 21
-48.5
  0
LINE
  8
0
 10
70.9725
 20
-48.5
 11
71.005
 21
-48.005
  0
LINE
  8
0
 10
71.005
 20
-48.005
 11
71.005
 21
-45.995
  0
LINE
  8
0
 10
71.005
 20
-45.995
 11
70.9725
 21
-45.5
  0
LINE
  8
0
 10
70.9725
 20
-45.5
 11
71.005
 21
-45.005
  0
LINE
  8
0
 10
71.005
 20
-45.005
 11
71.005
 21
-42.995
  0
LINE
  8
0
 10
71.005
 20
-42.995
 11
70.9622
 21
-42.3424
  0
LINE
  8
0
 10
70.9622
 20
-42.3424
 11
70.8346
 21
-41.7009
  0
LINE
  8
0
 10
70.8346
 20
-41.7009
 11
70.6244
 21
-41.0816
  0
LINE
  8
0
 10
70.6244
 20
-41.0816
 11
70.3351
 21
-40.495
  0
LINE
  8
0
 10
70.3351
 20
-40.495
 11
69.9718
 21
-39.9512
  0
LINE
  8
0
 10
69.9718
 20
-39.9512
 11
69.5405
 21
-39.4595
  0
LINE
  8
0
 10
69.5405
 20
-39.4595
 11
69.0488
 21
-39.0282
  0
LINE
  8
0
 10
69.0488
 20
-39.0282
 11
68.505
 21
-38.6649
  0
LINE
  8
0
 10
68.505
 20
-38.6649
 11
67.9184
 21
-38.3756
  0
LINE
  8
0
 10
67.9184
 20
-38.3756
 11
67.2991
 21
-38.1654
  0
LINE
  8
0
 10
67.2991
 20
-38.1654
 11
66.6576
 21
-38.0378
  0
LINE
  8
0
 10
66.6576
 20
-38.0378
 11
66.005
 21
-37.995
  0
LINE
  8
0
 10
66.005
 20
-37.995
 11
33.995
 21
-37.995
  0
LINE
  8
0
 10
33.995
 20
-37.995
 11
33.3424
 21
-38.0378
  0
LINE
  8
0
 10
33.3424
 20
-38.0378
 11
32.7009
 21
-38.1654
  0
LINE
  8
0
 10
32.7009
 20
-38.1654
 11
32.0816
 21
-38.3756
  0
LINE
  8
0
 10
32.0816
 20
-38.3756
 11
31.495
 21
-38.6649
  0
LINE
  8
0
 10
31.495
 20
-38.6649
 11
30.9512
 21
-39.0282
  0
LINE
  8
0
 10
30.9512
 20
-39.0282
 11
30.4595
 21
-39.4595
  0
LINE
  8
0
 10
30.4595
 20
-39.4595
 11
30.0282
 21
-39.9512
  0
LINE
  8
0
 10
30.0282
 20
-39.9512
 11
29.6649
 21
-40.495
  0
LINE
  8
0
 10
29.6649
 20
-40.495
 11
29.3756
 21
-41.0816
  0
LINE
  8
0
 10
29.3756
 20
-41.0816
 11
29.1654
 21
-41.7009
  0
LINE
  8
0
 10
29.1654
 20
-41.7009
 11
29.0378
 21
-42.3424
  0
LINE
  8
0
 10
29.0378
 20
-42.3424
 11
28.995
 21
-42.995
  0
LINE
  8
0
 10
28.995
 20
-42.995
 11
28.995
 21
-45.005
  0
LINE
  8
0
 10
28.995
 20
-45.005
 11
29.0275
 21
-45.5
  0
LINE
  8
0
 10
29.0275
 20
-45.5
 11
28.995
 21
-45.995
  0
LINE
  8
0
 10
28.995
 20
-45.995
 11
28.995
 21
-48.005
  0
LINE
  8
0
 10
28.995
 20
-48.005
 11
29.0275
 21
-48.5
  0
LINE
  8
0
 10
29.0275
 20
-48.5
 11
28.995
 21
-48.995
  0
LINE
  8
0
 10
28.995
 20
-48.995
 11
28.995
 21
-51.005
  0
LINE
  8
0
 10
28.995
 20
-51.005
 11
29.0275
 21
-51.5
  0
LINE
  8
0
 10
29.0275
 20
-51.5
 11
28.995
 21
-51.995
  0
LINE
  8
0
 10
28.995
 20
-51.995
 11
28.995
 21
-54.005
  0
LINE
  8
0
 10
28.995
 20
-54.005
 11
29.0275
 21
-54.5
  0
LINE
  8
0
 10
29.0275
 20
-54.5
 11
28.995
 21
-54.995
  0
LINE
  8
0
 10
28.995
 20
-54.995
 11
28.995
 21
-57.005
  0
LINE
  8
0
 10
28.995
 20
-57.005
 11
29.0378
 21
-57.6576
  0
LINE
  8
0
 10
29.0378
 20
-57.6576
 11
29.1654
 21
-58.2991
  0
LINE
  8
0
 10
29.1654
 20
-58.2991
 11
29.3756
 21
-58.9184
  0
LINE
  8
0
 10
29.3756
 20
-58.9184
 11
29.6649
 21
-59.505
  0
LINE
  8
0
 10
29.6649
 20
-59.505
 11
30.0282
 21
-60.0488
  0
LINE
  8
0
 10
30.0282
 20
-60.0488
 11
30.4595
 21
-60.5405
  0
LINE
  8
0
 10
30.4595
 20
-60.5405
 11
30.9512
 21
-60.9718
  0
LINE
  8
0
 10
30.9512
 20
-60.9718
 11
31.495
 21
-61.3351
  0
LINE
  8
0
 10
31.495
 20
-61.3351
 11
32.0816
 21
-61.6244
  0
LINE
  8
0
 10
32.0816
 20
-61.6244
 11
32.7009
 21
-61.8346
  0
LINE
  8
0
 10
32.7009
 20
-61.8346
 11
33.3424
 21
-61.9622
  0
LINE
  8
0
 10
33.3424
 20
-61.9622
 11
33.995
 21
-62.005
  0
LINE
  8
0
 10
33.995
 20
-62.005
 11
66.005
 21
-62.005
  0
LINE
  8
0
 10
66.005
 20
-62.005
 11
66.6576
 21
-61.9622
  0
LINE
  8
0
 10
34.5105
 20
-53.7179
 11
34.0294
 21
-53.6222
  0
LINE
  8
0
 10
34.0294
 20
-53.6222
 11
33.5649
 21
-53.4645
  0
LINE
  8
0
 10
33.5649
 20
-53.4645
 11
33.125
 21
-53.2476
  0
LINE
  8
0
 10
33.125
 20
-53.2476
 11
32.7171
 21
-52.9751
  0
LINE
  8
0
 10
32.7171
 20
-52.9751
 11
32.3483
 21
-52.6516
  0
LINE
  8
0
 10
32.3483
 20
-52.6516
 11
32.0249
 21
-52.2829
  0
LINE
  8
0
 10
32.0249
 20
-52.2829
 11
31.7524
 21
-51.875
  0
LINE
  8
0
 10
31.7524
 20
-51.875
 11
31.5354
 21
-51.4351
  0
LINE
  8
0
 10
31.5354
 20
-51.4351
 11
31.3778
 21
-50.9706
  0
LINE
  8
0
 10
31.3778
 20
-50.9706
 11
31.2821
 21
-50.4895
  0
LINE
  8
0
 10
31.2821
 20
-50.4895
 11
31.25
 21
-50
  0
LINE
  8
0
 10
31.25
 20
-50
 11
31.2821
 21
-49.5105
  0
LINE
  8
0
 10
31.2821
 20
-49.5105
 11
31.3778
 21
-49.0294
  0
LINE
  8
0
 10
31.3778
 20
-49.0294
 11
31.5354
 21
-48.5649
  0
LINE
  8
0
 10
31.5354
 20
-48.5649
 11
31.7524
 21
-48.125
  0
LINE
  8
0
 10
31.7524
 20
-48.125
 11
32.0249
 21
-47.7171
  0
LINE
  8
0
 10
32.0249
 20
-47.7171
 11
32.3483
 21
-47.3483
  0
LINE
  8
0
 10
32.3483
 20
-47.3483
 11
32.7171
 21
-47.0249
  0
LINE
  8
0
 10
32.7171
 20
-47.0249
 11
33.125
 21
-46.7524
  0
LINE
  8
0
 10
33.125
 20
-46.7524
 11
33.5649
 21
-46.5354
  0
LINE
  8
0
 10
33.5649
 20
-46.5354
 11
34.0294
 21
-46.3778
  0
LINE
  8
0
 10
34.0294
 20
-46.3778
 11
34.5105
 21
-46.2821
  0
LINE
  8
0
 10
34.5105
 20
-46.2821
 11
35
 21
-46.25
  0
LINE
  8
0
 10
35
 20
-46.25
 11
35.4895
 21
-46.2821
  0
LINE
  8
0
 10
35.4895
 20
-46.2821
 11
35.9706
 21
-46.3778
  0
LINE
  8
0
 10
35.9706
 20
-46.3778
 11
36.4351
 21
-46.5354
  0
LINE
  8
0
 10
36.4351
 20
-46.5354
 11
36.875
 21
-46.7524
  0
LINE
  8
0
 10
36.875
 20
-46.7524
 11
37.2829
 21
-47.0249
  0
LINE
  8
0
 10
37.2829
 20
-47.0249
 11
37.6516
 21
-47.3483
  0
LINE
  8
0
 10
37.6516
 20
-47.3483
 11
37.9751
 21
-47.7171
  0
LINE
  8
0
 10
37.9751
 20
-47.7171
 11
38.2476
 21
-48.125
  0
LINE
  8
0
 10
38.2476
 20
-48.125
 11
38.4645
 21
-48.5649
  0
LINE
  8
0
 10
38.4645
 20
-48.5649
 11
38.6222
 21
-49.0294
  0
LINE
  8
0
 10
38.6222
 20
-49.0294
 11
38.7179
 21
-49.5105
  0
LINE
  8
0
 10
38.7179
 20
-49.5105
 11
38.75
 21
-50
  0
LINE
  8
0
 10
38.75
 20
-50
 11
38.7179
 21
-50.4895
  0
LINE
  8
0
 10
38.7179
 20
-50.4895
 11
38.6222
 21
-50.9706
  0
LINE
  8
0
 10
38.6222
 20
-50.9706
 11
38.4645
 21
-51.4351
  0
LINE
  8
0
 10
38.4645
 20
-51.4351
 11
38.2476
 21
-51.875
  0
LINE
  8
0
 10
38.2476
 20
-51.875
 11
37.9751
 21
-52.2829
  0
LINE
  8
0
 10
37.9751
 20
-52.2829
 11
37.6516
 21
-52.6516
  0
LINE
  8
0
 10
37.6516
 20
-52.6516
 11
37.2829
 21
-52.9751
  0
LINE
  8
0
 10
37.2829
 20
-52.9751
 11
36.875
 21
-53.2476
  0
LINE
  8
0
 10
36.875
 20
-53.2476
 11
36.4351
 21
-53.4645
  0
LINE
  8
0
 10
36.4351
 20
-53.4645
 11
35.9706
 21
-53.6222
  0
LINE
  8
0
 10
35.9706
 20
-53.6222
 11
35.4895
 21
-53.7179
  0
LINE
  8
0
 10
35.4895
 20
-53.7179
 11
35
 21
-53.75
  0
LINE
  8
0
 10
35
 20
-53.75
 11
34.5105
 21
-53.7179
  0
LINE
  8
0
 10
64.5105
 20
-53.7179
 11
64.0294
 21
-53.6222
  0
LINE
  8
0
 10
64.0294
 20
-53.6222
 11
63.5649
 21
-53.4645
  0
LINE
  8
0
 10
63.5649
 20
-53.4645
 11
63.125
 21
-53.2476
  0
LINE
  8
0
 10
63.125
 20
-53.2476
 11
62.7171
 21
-52.9751
  0
LINE
  8
0
 10
62.7171
 20
-52.9751
 11
62.3483
 21
-52.6516
  0
LINE
  8
0
 10
62.3483
 20
-52.6516
 11
62.0249
 21
-52.2829
  0
LINE
  8
0
 10
62.0249
 20
-52.2829
 11
61.7524
 21
-51.875
  0
LINE
  8
0
 10
61.7524
 20
-51.875
 11
61.5354
 21
-51.4351
  0
LINE
  8
0
 10
61.5354
 20
-51.4351
 11
61.3778
 21
-50.9706
  0
LINE
  8
0
 10
61.3778
 20
-50.9706
 11
61.2821
 21
-50.4895
  0
LINE
  8
0
 10
61.2821
 20
-50.4895
 11
61.25
 21
-50
  0
LINE
  8
0
 10
61.25
 20
-50
 11
61.2821
 21
-49.5105
  0
LINE
  8
0
 10
61.2821
 20
-49.5105
 11
61.3778
 21
-49.0294
  0
LINE
  8
0
 10
61.3778
 20
-49.0294
 11
61.5354
 21
-48.5649
  0
LINE
  8
0
 10
61.5354
 20
-48.5649
 11
61.7524
 21
-48.125
  0
LINE
  8
0
 10
61.7524
 20
-48.125
 11
62.0249
 21
-47.7171
  0
LINE
  8
0
 10
62.0249
 20
-47.7171
 11
62.3483
 21
-47.3483
  0
LINE
  8
0
 10
62.3483
 20
-47.3483
 11
62.7171
 21
-47.0249
  0
LINE
  8
0
 10
62.7171
 20
-47.0249
 11
63.125
 21
-46.7524
  0
LINE
  8
0
 10
63.125
 20
-46.7524
 11
63.5649
 21
-46.5354
  0
LINE
  8
0
 10
63.5649
 20
-46.5354
 11
64.0294
 21
-46.3778
  0
LINE
  8
0
 10
64.0294
 20
-46.3778
 11
64.5105
 21
-46.2821
  0
LINE
  8
0
 10
64.5105
 20
-46.2821
 11
65
 21
-46.25
  0
LINE
  8
0
 10
65
 20
-46.25
 11
65.4895
 21
-46.2821
  0
LINE
  8
0
 10
65.4895
 20
-46.2821
 11
65.9706
 21
-46.3778
  0
LINE
  8
0
 10
65.9706
 20
-46.3778
 11
66.4351
 21
-46.5354
  0
LINE
  8
0
 10
66.4351
 20
-46.5354
 11
66.875
 21
-46.7524
  0
LINE
  8
0
 10
66.875
 20
-46.7524
 11
67.2829
 21
-47.0249
  0
LINE
  8
0
 10
67.2829
 20
-47.0249
 11
67.6516
 21
-47.3483
  0
LINE
  8
0
 10
67.6516
 20
-47.3483
 11
67.9751
 21
-47.7171
  0
LINE
  8
0
 10
67.9751
 20
-47.7171
 11
68.2476
 21
-48.125
  0
LINE
  8
0
 10
68.2476
 20
-48.125
 11
68.4645
 21
-48.5649
  0
LINE
  8
0
 10
68.4645
 20
-48.5649
 11
68.6222
 21
-49.0294
  0
LINE
  8
0
 10
68.6222
 20
-49.0294
 11
68.7179
 21
-49.5105
  0
LINE
  8
0
 10
68.7179
 20
-49.5105
 11
68.75
 21
-50
  0
LINE
  8
0
 10
68.75
 20
-50
 11
68.7179
 21
-50.4895
  0
LINE
  8
0
 10
68.7179
 20
-50.4895
 11
68.6222
 21
-50.9706
  0
LINE
  8
0
 10
68.6222
 20
-50.9706
 11
68.4645
 21
-51.4351
  0
LINE
  8
0
 10
68.4645
 20
-51.4351
 11
68.2476
 21
-51.875
  0
LINE
  8
0
 10
68.2476
 20
-51.875
 11
67.9751
 21
-52.2829
  0
LINE
  8
0
 10
67.9751
 20
-52.2829
 11
67.6516
 21
-52.6516
  0
LINE
  8
0
 10
67.6516
 20
-52.6516
 11
67.2829
 21
-52.9751
  0
LINE
  8
0
 10
67.2829
 20
-52.9751
 11
66.875
 21
-53.2476
  0
LINE
  8
0
 10
66.875
 20
-53.2476
 11
66.4351
 21
-53.4645
  0
LINE
  8
0
 10
66.4351
 20
-53.4645
 11
65.9706
 21
-53.6222
  0
LINE
  8
0
 10
65.9706
 20
-53.6222
 11
65.4895
 21
-53.7179
  0
LINE
  8
0
 10
65.4895
 20
-53.7179
 11
65
 21
-53.75
  0
LINE
  8
0
 10
65
 20
-53.75
 11
64.5105
 21
-53.7179
  0
LINE
  8
0
 10
49.5105
 20
-53.7179
 11
49.0294
 21
-53.6222
  0
LINE
  8
0
 10
49.0294
 20
-53.6222
 11
48.5649
 21
-53.4645
  0
LINE
  8
0
 10
48.5649
 20
-53.4645
 11
48.125
 21
-53.2476
  0
LINE
  8
0
 10
48.125
 20
-53.2476
 11
47.7171
 21
-52.9751
  0
LINE
  8
0
 10
47.7171
 20
-52.9751
 11
47.3483
 21
-52.6516
  0
LINE
  8
0
 10
47.3483
 20
-52.6516
 11
47.0249
 21
-52.2829
  0
LINE
  8
0
 10
47.0249
 20
-52.2829
 11
46.7524
 21
-51.875
  0
LINE
  8
0
 10
46.7524
 20
-51.875
 11
46.5354
 21
-51.4351
  0
LINE
  8
0
 10
46.5354
 20
-51.4351
 11
46.3778
 21
-50.9706
  0
LINE
  8
0
 10
46.3778
 20
-50.9706
 11
46.2821
 21
-50.4895
  0
LINE
  8
0
 10
46.2821
 20
-50.4895
 11
46.25
 21
-50
  0
LINE
  8
0
 10
46.25
 20
-50
 11
46.2821
 21
-49.5105
  0
LINE
  8
0
 10
46.2821
 20
-49.5105
 11
46.3778
 21
-49.0294
  0
LINE
  8
0
 10
46.3778
 20
-49.0294
 11
46.5354
 21
-48.5649
  0
LINE
  8
0
 10
46.5354
 20
-48.5649
 11
46.7524
 21
-48.125
  0
LINE
  8
0
 10
46.7524
 20
-48.125
 11
47.0249
 21
-47.7171
  0
LINE
  8
0
 10
47.0249
 20
-47.7171
 11
47.3483
 21
-47.3483
  0
LINE
  8
0
 10
47.3483
 20
-47.3483
 11
47.7171
 21
-47.0249
  0
LINE
  8
0
 10
47.7171
 20
-47.0249
 11
48.125
 21
-46.7524
  0
LINE
  8
0
 10
48.125
 20
-46.7524
 11
48.5649
 21
-46.5354
  0
LINE
  8
0
 10
48.5649
 20
-46.5354
 11
49.0294
 21
-46.3778
  0
LINE
  8
0
 10
49.0294
 20
-46.3778
 11
49.5105
 21
-46.2821
  0
LINE
  8
0
 10
49.5105
 20
-46.2821
 11
50
 21
-46.25
  0
LINE
  8
0
 10
50
 20
-46.25
 11
50.4895
 21
-46.2821
  0
LINE
  8
0
 10
50.4895
 20
-46.2821
 11
50.9706
 21
-46.3778
  0
LINE
  8
0
 10
50.9706
 20
-46.3778
 11
51.4351
 21
-46.5354
  0
LINE
  8
0
 10
51.4351
 20
-46.5354
 11
51.875
 21
-46.7524
  0
LINE
  8
0
 10
51.875
 20
-46.7524
 11
52.2829
 21
-47.0249
  0
LINE
  8
0
 10
52.2829
 20
-47.0249
 11
52.6516
 21
-47.3483
  0
LINE
  8
0
 10
52.6516
 20
-47.3483
 11
52.9751
 21
-47.7171
  0
LINE
  8
0
 10
52.9751
 20
-47.7171
 11
53.2476
 21
-48.125
  0
LINE
  8
0
 10
53.2476
 20
-48.125
 11
53.4645
 21
-48.5649
  0
LINE
  8
0
 10
53.4645
 20
-48.5649
 11
53.6222
 21
-49.0294
  0
LINE
  8
0
 10
53.6222
 20
-49.0294
 11
53.7179
 21
-49.5105
  0
LINE
  8
0
 10
53.7179
 20
-49.5105
 11
53.75
 21
-50
  0
LINE
  8
0
 10
53.75
 20
-50
 11
53.7179
 21
-50.4895
  0
LINE
  8
0
 10
53.7179
 20
-50.4895
 11
53.6222
 21
-50.9706
  0
LINE
  8
0
 10
53.6222
 20
-50.9706
 11
53.4645
 21
-51.4351
  0
LINE
  8
0
 10
53.4645
 20
-51.4351
 11
53.2476
 21
-51.875
  0
LINE
  8
0
 10
53.2476
 20
-51.875
 11
52.9751
 21
-52.2829
  0
LINE
  8
0
 10
52.9751
 20
-52.2829
 11
52.6516
 21
-52.6516
  0
LINE
  8
0
 10
52.6516
 20
-52.6516
 11
52.2829
 21
-52.9751
  0
LINE
  8
0
 10
52.2829
 20
-52.9751
 11
51.875
 21
-53.2476
  0
LINE
  8
0
 10
51.875
 20
-53.2476
 11
51.4351
 21
-53.4645
  0
LINE
  8
0
 10
51.4351
 20
-53.4645
 11
50.9706
 21
-53.6222
  0
LINE
  8
0
 10
50.9706
 20
-53.6222
 11
50.4895
 21
-53.7179
  0
LINE
  8
0
 10
50.4895
 20
-53.7179
 11
50
 21
-53.75
  0
LINE
  8
0
 10
50
 20
-53.75
 11
49.5105
 21
-53.7179
  0
ENDSEC
  0
SECTION
  2
OBJECTS
  0
DICTIONARY
  0
ENDSEC
  0
EOF
