<?xml version="1.0" standalone="no"?>
<!DOCTYPE svg PUBLIC "-//W3C//DTD SVG 1.1//EN" "http://www.w3.org/Graphics/SVG/1.1/DTD/svg11.dtd">
<svg width="103mm" height="86mm" viewBox="-22 -23 103 86" xmlns="http://www.w3.org/2000/svg" version="1.1">
<title>OpenSCAD Model</title>
<path d="
M 9,15 L 9.05133,14.2168 L 9.20444,13.4471 L 9.45671,12.7039 L 9.80383,12 L 10.2399,11.3474
 L 10.7574,10.7574 L 11.3474,10.2399 L 12,9.80383 L 12.7039,9.45671 L 13.4471,9.20444 L 14.2168,9.05133
 L 14.2994,9.04591 L 14.15,8.97223 L 13.9651,8.84869 L 13.7979,8.70207 L 13.6513,8.53488 L 13.5278,8.34999
 L 13.4294,8.15056 L 13.3579,7.93999 L 13.3145,7.72189 L 13.3,7.5 L 13.3145,7.27809 L 13.3579,7.06
 L 13.4294,6.84943 L 13.5278,6.64999 L 13.6513,6.4651 L 13.7979,6.29791 L 13.9651,6.15129 L 14.15,6.02776
 L 14.3494,5.9294 L 14.56,5.85793 L 14.7781,5.81453 L 15,5.79999 L 15.2219,5.81453 L 15.44,5.85793
 L 15.6506,5.9294 L 15.85,6.02776 L 16.0349,6.15129 L 16.2021,6.29791 L 16.3487,6.4651 L 16.4722,6.64999
 L 16.5706,6.84943 L 16.6421,7.06 L 16.6855,7.27809 L 16.7,7.5 L 16.6855,7.72189 L 16.6421,7.93999
 L 16.5706,8.15056 L 16.4722,8.34999 L 16.3487,8.53488 L 16.2021,8.70207 L 16.0349,8.84869 L 15.85,8.97223
 L 15.7937,9 L 21.005,9 L 21.005,-9 L 15.7937,-9 L 15.85,-8.97223 L 16.0349,-8.84869
 L 16.2021,-8.70207 L 16.3487,-8.53488 L 16.4722,-8.34999 L 16.5706,-8.15056 L 16.6421,-7.93999 L 16.6855,-7.72189
 L 16.7,-7.5 L 16.6855,-7.27809 L 16.6421,-7.06 L 16.5706,-6.84943 L 16.4722,-6.64999 L 16.3487,-6.4651
 L 16.2021,-6.29791 L 16.0349,-6.15129 L 15.85,-6.02776 L 15.6506,-5.9294 L 15.44,-5.85793 L 15.2219,-5.81453
 L 15,-5.79999 L 14.7781,-5.81453 L 14.56,-5.85793 L 14.3494,-5.9294 L 14.15,-6.02776 L 13.9651,-6.15129
 L 13.7979,-6.29791 L 13.6513,-6.4651 L 13.5278,-6.64999 L 13.4294,-6.84943 L 13.3579,-7.06 L 13.3145,-7.27809
 L 13.3,-7.5 L 13.3145,-7.72189 L 13.3579,-7.93999 L 13.4294,-8.15056 L 13.5278,-8.34999 L 13.6513,-8.53488
 L 13.7979,-8.70207 L 13.9651,-8.84869 L 14.15,-8.97223 L 14.2994,-9.04591 L 14.2168,-9.05133 L 13.4471,-9.20444
 L 12.7039,-9.45671 L 12,-9.80383 L 11.3474,-10.2399 L 10.7574,-10.7574 L 10.2399,-11.3474 L 9.80383,-12
 L 9.45671,-12.7039 L 9.20444,-13.4471 L 9.05133,-14.2168 L 9,-15 L 9,-22.505 L -9,-22.505
 L -9,-15 L -9.05133,-14.2168 L -9.20444,-13.4471 L -9.45671,-12.7039 L -9.80383,-12 L -10.2399,-11.3474
 L -10.7574,-10.7574 L -11.3474,-10.2399 L -12,-9.80383 L -12.7039,-9.45671 L -13.4471,-9.20444 L -14.2168,-9.05133
 L -14.2994,-9.04591 L -14.15,-8.97223 L -13.9651,-8.84869 L -13.7979,-8.70207 L -13.6513,-8.53488 L -13.5278,-8.34999
 L -13.4294,-8.15056 L -13.3579,-7.93999 L -13.3145,-7.72189 L -13.3,-7.5 L -13.3145,-7.27809 L -13.3579,-7.06
 L -13.4294,-6.84943 L -13.5278,-6.64999 L -13.6513,-6.4651 L -13.7979,-6.29791 L -13.9651,-6.15129 L -14.15,-6.02776
 L -14.3494,-5.9294 L -14.56,-5.85793 L -14.7781,-5.81453 L -15,-5.79999 L -15.2219,-5.81453 L -15.44,-5.85793
 L -15.6506,-5.9294 L -15.85,-6.02776 L -16.0349,-6.15129 L -16.2021,-6.29791 L -16.3487,-6.4651 L -16.4722,-6.64999
 L -16.5706,-6.84943 L -16.6421,-7.06 L -16.6855,-7.27809 L -16.7,-7.5 L -16.6855,-7.72189 L -16.6421,-7.93999
 L -16.5706,-8.15056 L -16.4722,-8.34999 L -16.3487,-8.53488 L -16.2021,-8.70207 L -16.0349,-8.84869 L -15.85,-8.97223
 L -15.7937,-9 L -21.005,-9 L -21.005,9 L -15.7937,9 L -15.85,8.97223 L -16.0349,8.84869
 L -16.2021,8.70207 L -16.3487,8.53488 L -16.4722,8.34999 L -16.5706,8.15056 L -16.6421,7.93999 L -16.6855,7.72189
 L -16.7,7.5 L -16.6855,7.27809 L -16.6421,7.06 L -16.5706,6.84943 L -16.4722,6.64999 L -16.3487,6.4651
 L -16.2021,6.29791 L -16.0349,6.15129 L -15.85,6.02776 L -15.6506,5.9294 L -15.44,5.85793 L -15.2219,5.81453
 L -15,5.79999 L -14.7781,5.81453 L -14.56,5.85793 L -14.3494,5.9294 L -14.15,6.02776 L -13.9651,6.15129
 L -13.7979,6.29791 L -13.6513,6.4651 L -13.5278,6.64999 L -13.4294,6.84943 L -13.3579,7.06 L -13.3145,7.27809
 L -13.3,7.5 L -13.3145,7.72189 L -13.3579,7.93999 L -13.4294,8.15056 L -13.5278,8.34999 L -13.6513,8.53488
 L -13.7979,8.70207 L -13.9651,8.84869 L -14.15,8.97223 L -14.2994,9.04591 L -14.2168,9.05133 L -13.4471,9.20444
 L -12.7039,9.45671 L -12,9.80383 L -11.3474,10.2399 L -10.7574,10.7574 L -10.2399,11.3474 L -9.80383,12
 L -9.45671,12.7039 L -9.20444,13.4471 L -9.05133,14.2168 L -9,15 L -9,22.505 L 9,22.505
 z
M -1.77515,13.4836 L -3.51993,13.1366 L -5.20448,12.5648 L -6.79999,11.7779 L -8.27914,10.7896 L -9.61664,9.61664
 L -10.7896,8.27914 L -11.7779,6.79999 L -12.5648,5.20448 L -13.1366,3.51993 L -13.4836,1.77515 L -13.6,-0
 L -13.4836,-1.77515 L -13.1366,-3.51993 L -12.5648,-5.20448 L -11.7779,-6.79999 L -10.7896,-8.27914 L -9.61664,-9.61664
 L -8.27914,-10.7896 L -6.79999,-11.7779 L -5.20448,-12.5648 L -3.51993,-13.1366 L -1.77515,-13.4836 L 0,-13.6
 L 1.77515,-13.4836 L 3.51993,-13.1366 L 5.20448,-12.5648 L 6.79999,-11.7779 L 8.27914,-10.7896 L 9.61664,-9.61664
 L 10.7896,-8.27914 L 11.7779,-6.79999 L 12.5648,-5.20448 L 13.1366,-3.51993 L 13.4836,-1.77515 L 13.6,-0
 L 13.4836,1.77515 L 13.1366,3.51993 L 12.5648,5.20448 L 11.7779,6.79999 L 10.7896,8.27914 L 9.61664,9.61664
 L 8.27914,10.7896 L 6.79999,11.7779 L 5.20448,12.5648 L 3.51993,13.1366 L 1.77515,13.4836 L 0,13.6
 z
M 70,11 L 81,11 L 81,-2 L 70,-2 L 70,-21.85 L 50,-21.85
 L 50,-2 L 39,-2 L 39,11 L 50,11 L 50,11.15 L 70,11.15
 z
M 59.9217,9.09486 L 59.8447,9.07954 L 59.7704,9.05432 L 59.7,9.01961 L 59.6347,8.976 L 59.5757,8.92426
 L 59.524,8.86525 L 59.4804,8.79999 L 59.4457,8.7296 L 59.4204,8.65529 L 59.4051,8.57831 L 59.4,8.5
 L 59.4,6.625 L 53,6.625 L 53,-17.375 L 59.4,-17.375 L 59.4,-19.25 L 59.4051,-19.3283
 L 59.4204,-19.4053 L 59.4457,-19.4796 L 59.4804,-19.55 L 59.524,-19.6152 L 59.5757,-19.6743 L 59.6347,-19.726
 L 59.7,-19.7696 L 59.7704,-19.8043 L 59.8447,-19.8295 L 59.9217,-19.8449 L 60,-19.85 L 60.0783,-19.8449
 L 60.1553,-19.8295 L 60.2296,-19.8043 L 60.3,-19.7696 L 60.3652,-19.726 L 60.4243,-19.6743 L 60.476,-19.6152
 L 60.5196,-19.55 L 60.5543,-19.4796 L 60.5795,-19.4053 L 60.5949,-19.3283 L 60.6,-19.25 L 60.6,-17.375
 L 67,-17.375 L 67,6.625 L 60.6,6.625 L 60.6,8.5 L 60.5949,8.57831 L 60.5795,8.65529
 L 60.5543,8.7296 L 60.5196,8.79999 L 60.476,8.86525 L 60.4243,8.92426 L 60.3652,8.976 L 60.3,9.01961
 L 60.2296,9.05432 L 60.1553,9.07954 L 60.0783,9.09486 L 60,9.09999 z
M 74.7781,9.68546 L 74.56,9.64206 L 74.3494,9.57059 L 74.15,9.47223 L 73.9651,9.34869 L 73.7979,9.20207
 L 73.6513,9.03488 L 73.5278,8.84999 L 73.4294,8.65056 L 73.3579,8.43999 L 73.3145,8.22189 L 73.3,8
 L 73.3,7 L 73.3145,6.77809 L 73.3579,6.56 L 73.4294,6.34943 L 73.5278,6.14999 L 73.6513,5.9651
 L 73.7979,5.79791 L 73.9651,5.65129 L 74.15,5.52776 L 74.3494,5.4294 L 74.56,5.35793 L 74.7781,5.31453
 L 75,5.29999 L 75.2219,5.31453 L 75.44,5.35793 L 75.6506,5.4294 L 75.85,5.52776 L 76.0349,5.65129
 L 76.2021,5.79791 L 76.3487,5.9651 L 76.4722,6.14999 L 76.5706,6.34943 L 76.6421,6.56 L 76.6855,6.77809
 L 76.7,7 L 76.7,8 L 76.6855,8.22189 L 76.6421,8.43999 L 76.5706,8.65056 L 76.4722,8.84999
 L 76.3487,9.03488 L 76.2021,9.20207 L 76.0349,9.34869 L 75.85,9.47223 L 75.6506,9.57059 L 75.44,9.64206
 L 75.2219,9.68546 L 75,9.7 z
M 44.7781,9.68546 L 44.56,9.64206 L 44.3494,9.57059 L 44.15,9.47223 L 43.9651,9.34869 L 43.7979,9.20207
 L 43.6513,9.03488 L 43.5278,8.84999 L 43.4294,8.65056 L 43.3579,8.43999 L 43.3145,8.22189 L 43.3,8
 L 43.3,7 L 43.3145,6.77809 L 43.3579,6.56 L 43.4294,6.34943 L 43.5278,6.14999 L 43.6513,5.9651
 L 43.7979,5.79791 L 43.9651,5.65129 L 44.15,5.52776 L 44.3494,5.4294 L 44.56,5.35793 L 44.7781,5.31453
 L 45,5.29999 L 45.2219,5.31453 L 45.44,5.35793 L 45.6506,5.4294 L 45.85,5.52776 L 46.0349,5.65129
 L 46.2021,5.79791 L 46.3487,5.9651 L 46.4722,6.14999 L 46.5706,6.34943 L 46.6421,6.56 L 46.6855,6.77809
 L 46.7,7 L 46.7,8 L 46.6855,8.22189 L 46.6421,8.43999 L 46.5706,8.65056 L 46.4722,8.84999
 L 46.3487,9.03488 L 46.2021,9.20207 L 46.0349,9.34869 L 45.85,9.47223 L 45.6506,9.57059 L 45.44,9.64206
 L 45.2219,9.68546 L 45,9.7 z
M 66.6576,61.9622 L 67.2991,61.8346 L 67.9184,61.6244 L 68.505,61.3351 L 69.0488,60.9718 L 69.5405,60.5405
 L 69.9718,60.0488 L 70.3351,59.505 L 70.6244,58.9184 L 70.8346,58.2991 L 70.9622,57.6576 L 71.005,57.005
 L 71.005,54.995 L 70.9725,54.5 L 71.005,54.005 L 71.005,51.995 L 70.9725,51.5 L 71.005,51.005
 L 71.005,48.995 L 70.9725,48.5 L 71.005,48.005 L 71.005,45.995 L 70.9725,45.5 L 71.005,45.005
 L 71.005,42.995 L 70.9622,42.3424 L 70.8346,41.7009 L 70.6244,41.0816 L 70.3351,40.495 L 69.9718,39.9512
 L 69.5405,39.4595 L 69.0488,39.0282 L 68.505,38.6649 L 67.9184,38.3756 L 67.2991,38.1654 L 66.6576,38.0378
 L 66.005,37.995 L 33.995,37.995 L 33.3424,38.0378 L 32.7009,38.1654 L 32.0816,38.3756 L 31.495,38.6649
 L 30.9512,39.0282 L 30.4595,39.4595 L 30.0282,39.9512 L 29.6649,40.495 L 29.3756,41.0816 L 29.1654,41.7009
 L 29.0378,42.3424 L 28.995,42.995 L 28.995,45.005 L 29.0275,45.5 L 28.995,45.995 L 28.995,48.005
 L 29.0275,48.5 L 28.995,48.995 L 28.995,51.005 L 29.0275,51.5 L 28.995,51.995 L 28.995,54.005
 L 29.0275,54.5 L 28.995,54.995 L 28.995,57.005 L 29.0378,57.6576 L 29.1654,58.2991 L 29.3756,58.9184
 L 29.6649,59.505 L 30.0282,60.0488 L 30.4595,60.5405 L 30.9512,60.9718 L 31.495,61.3351 L 32.0816,61.6244
 L 32.7009,61.8346 L 33.3424,61.9622 L 33.995,62.005 L 66.005,62.005 z
M 34.5758,53.2222 L 34.1588,53.1393 L 33.7563,53.0026 L 33.375,52.8146 L 33.0215,52.5784 L 32.7019,52.2981
 L 32.4216,51.9785 L 32.1854,51.625 L 31.9974,51.2437 L 31.8607,50.8412 L 31.7778,50.4242 L 31.75,50
 L 31.7778,49.5758 L 31.8607,49.1588 L 31.9974,48.7563 L 32.1854,48.375 L 32.4216,48.0215 L 32.7019,47.7019
 L 33.0215,47.4216 L 33.375,47.1854 L 33.7563,46.9974 L 34.1588,46.8607 L 34.5758,46.7778 L 35,46.75
 L 35.4242,46.7778 L 35.8412,46.8607 L 36.2437,46.9974 L 36.625,47.1854 L 36.9785,47.4216 L 37.2981,47.7019
 L 37.5784,48.0215 L 37.8146,48.375 L 38.0026,48.7563 L 38.1393,49.1588 L 38.2222,49.5758 L 38.25,50
 L 38.2222,50.4242 L 38.1393,50.8412 L 38.0026,51.2437 L 37.8146,51.625 L 37.5784,51.9785 L 37.2981,52.2981
 L 36.9785,52.5784 L 36.625,52.8146 L 36.2437,53.0026 L 35.8412,53.1393 L 35.4242,53.2222 L 35,53.25
 z
M 64.5758,53.2222 L 64.1588,53.1393 L 63.7563,53.0026 L 63.375,52.8146 L 63.0215,52.5784 L 62.7019,52.2981
 L 62.4216,51.9785 L 62.1854,51.625 L 61.9974,51.2437 L 61.8607,50.8412 L 61.7778,50.4242 L 61.75,50
 L 61.7778,49.5758 L 61.8607,49.1588 L 61.9974,48.7563 L 62.1854,48.375 L 62.4216,48.0215 L 62.7019,47.7019
 L 63.0215,47.4216 L 63.375,47.1854 L 63.7563,46.9974 L 64.1588,46.8607 L 64.5758,46.7778 L 65,46.75
 L 65.4242,46.7778 L 65.8412,46.8607 L 66.2437,46.9974 L 66.625,47.1854 L 66.9785,47.4216 L 67.2981,47.7019
 L 67.5784,48.0215 L 67.8146,48.375 L 68.0026,48.7563 L 68.1393,49.1588 L 68.2222,49.5758 L 68.25,50
 L 68.2222,50.4242 L 68.1393,50.8412 L 68.0026,51.2437 L 67.8146,51.625 L 67.5784,51.9785 L 67.2981,52.2981
 L 66.9785,52.5784 L 66.625,52.8146 L 66.2437,53.0026 L 65.8412,53.1393 L 65.4242,53.2222 L 65,53.25
 z
M 49.5758,53.2222 L 49.1588,53.1393 L 48.7563,53.0026 L 48.375,52.8146 L 48.0215,52.5784 L 47.7019,52.2981
 L 47.4216,51.9785 L 47.1854,51.625 L 46.9974,51.2437 L 46.8607,50.8412 L 46.7778,50.4242 L 46.75,50
 L 46.7778,49.5758 L 46.8607,49.1588 L 46.9974,48.7563 L 47.1854,48.375 L 47.4216,48.0215 L 47.7019,47.7019
 L 48.0215,47.4216 L 48.375,47.1854 L 48.7563,46.9974 L 49.1588,46.8607 L 49.5758,46.7778 L 50,46.75
 L 50.4242,46.7778 L 50.8412,46.8607 L 51.2437,46.9974 L 51.625,47.1854 L 51.9785,47.4216 L 52.2981,47.7019
 L 52.5784,48.0215 L 52.8146,48.375 L 53.0026,48.7563 L 53.1393,49.1588 L 53.2222,49.5758 L 53.25,50
 L 53.2222,50.4242 L 53.1393,50.8412 L 53.0026,51.2437 L 52.8146,51.625 L 52.5784,51.9785 L 52.2981,52.2981
 L 51.9785,52.5784 L 51.625,52.8146 L 51.2437,53.0026 L 50.8412,53.1393 L 50.4242,53.2222 L 50,53.25
 z
" stroke="black" fill="lightgray" stroke-width="0.5"/>
</svg>
