<?xml version="1.0" standalone="no"?>
<!DOCTYPE svg PUBLIC "-//W3C//DTD SVG 1.1//EN" "http://www.w3.org/Graphics/SVG/1.1/DTD/svg11.dtd">
<svg width="44mm" height="107mm" viewBox="-22 -82 44 107" xmlns="http://www.w3.org/2000/svg" version="1.1">
<title>OpenSCAD Model</title>
<path d="
M 10,-55 L 21,-55 L 21,-65 L 10,-65 L 10,-81.85 L -10,-81.85
 L -10,-65 L -21,-65 L -21,-55 L -10,-55 L -10,-48.85 L 10,-48.85
 z
M -0.0783081,-78.4051 L -0.155289,-78.4204 L -0.229599,-78.4457 L -0.299988,-78.4804 L -0.36525,-78.524 L -0.424255,-78.5757
 L -0.475998,-78.6347 L -0.519608,-78.7 L -0.554321,-78.7704 L -0.579544,-78.8447 L -0.594864,-78.9217 L -0.599991,-79
 L -0.594864,-79.0783 L -0.579544,-79.1553 L -0.554321,-79.2296 L -0.519608,-79.3 L -0.475998,-79.3652 L -0.424255,-79.4243
 L -0.36525,-79.476 L -0.299988,-79.5196 L -0.229599,-79.5543 L -0.155289,-79.5795 L -0.0783081,-79.5949 L 0,-79.6
 L 0.0783081,-79.5949 L 0.155289,-79.5795 L 0.229599,-79.5543 L 0.299988,-79.5196 L 0.36525,-79.476 L 0.424255,-79.4243
 L 0.475998,-79.3652 L 0.519608,-79.3 L 0.554321,-79.2296 L 0.579544,-79.1553 L 0.594864,-79.0783 L 0.599991,-79
 L 0.594864,-78.9217 L 0.579544,-78.8447 L 0.554321,-78.7704 L 0.519608,-78.7 L 0.475998,-78.6347 L 0.424255,-78.5757
 L 0.36525,-78.524 L 0.299988,-78.4804 L 0.229599,-78.4457 L 0.155289,-78.4204 L 0.0783081,-78.4051 L 0,-78.4
 z
M -7,-53.375 L -7,-77.375 L 7,-77.375 L 7,-53.375 z
M -0.0783081,-51.1551 L -0.155289,-51.1704 L -0.229599,-51.1957 L -0.299988,-51.2304 L -0.36525,-51.274 L -0.424255,-51.3257
 L -0.475998,-51.3847 L -0.519608,-51.45 L -0.554321,-51.5204 L -0.579544,-51.5947 L -0.594864,-51.6717 L -0.599991,-51.75
 L -0.594864,-51.8283 L -0.579544,-51.9053 L -0.554321,-51.9796 L -0.519608,-52.05 L -0.475998,-52.1152 L -0.424255,-52.1743
 L -0.36525,-52.226 L -0.299988,-52.2696 L -0.229599,-52.3043 L -0.155289,-52.3295 L -0.0783081,-52.3449 L 0,-52.35
 L 0.0783081,-52.3449 L 0.155289,-52.3295 L 0.229599,-52.3043 L 0.299988,-52.2696 L 0.36525,-52.226 L 0.424255,-52.1743
 L 0.475998,-52.1152 L 0.519608,-52.05 L 0.554321,-51.9796 L 0.579544,-51.9053 L 0.594864,-51.8283 L 0.599991,-51.75
 L 0.594864,-51.6717 L 0.579544,-51.5947 L 0.554321,-51.5204 L 0.519608,-51.45 L 0.475998,-51.3847 L 0.424255,-51.3257
 L 0.36525,-51.274 L 0.299988,-51.2304 L 0.229599,-51.1957 L 0.155289,-51.1704 L 0.0783081,-51.1551 L 0,-51.15
 z
M 9,15 L 9.05133,14.2168 L 9.20444,13.4471 L 9.45671,12.7039 L 9.80383,12 L 10.2399,11.3474
 L 10.7574,10.7574 L 11.3474,10.2399 L 12,9.80383 L 12.7039,9.45671 L 13.4471,9.20444 L 14.2168,9.05133
 L 15,9 L 21.005,9 L 21.005,-9 L 15,-9 L 14.2168,-9.05133 L 13.4471,-9.20444
 L 12.7039,-9.45671 L 12,-9.80383 L 11.3474,-10.2399 L 10.7574,-10.7574 L 10.2399,-11.3474 L 9.80383,-12
 L 9.45671,-12.7039 L 9.20444,-13.4471 L 9.05133,-14.2168 L 9,-15 L 9,-24.005 L -9,-24.005
 L -9,-15 L -9.05133,-14.2168 L -9.20444,-13.4471 L -9.45671,-12.7039 L -9.80383,-12 L -10.2399,-11.3474
 L -10.7574,-10.7574 L -11.3474,-10.2399 L -12,-9.80383 L -12.7039,-9.45671 L -13.4471,-9.20444 L -14.2168,-9.05133
 L -15,-9 L -21.005,-9 L -21.005,9 L -15,9 L -14.2168,9.05133 L -13.4471,9.20444
 L -12.7039,9.45671 L -12,9.80383 L -11.3474,10.2399 L -10.7574,10.7574 L -10.2399,11.3474 L -9.80383,12
 L -9.45671,12.7039 L -9.20444,13.4471 L -9.05133,14.2168 L -9,15 L -9,24.005 L 9,24.005
 z
M -1.77515,13.4836 L -3.51993,13.1366 L -5.20448,12.5648 L -6.79999,11.7779 L -8.27914,10.7896 L -9.61664,9.61664
 L -10.7896,8.27914 L -11.7779,6.79999 L -12.5648,5.20448 L -13.1366,3.51993 L -13.4836,1.77515 L -13.6,-0
 L -13.4836,-1.77515 L -13.1366,-3.51993 L -12.5648,-5.20448 L -11.7779,-6.79999 L -10.7896,-8.27914 L -9.61664,-9.61664
 L -8.27914,-10.7896 L -6.79999,-11.7779 L -5.20448,-12.5648 L -3.51993,-13.1366 L -1.77515,-13.4836 L 0,-13.6
 L 1.77515,-13.4836 L 3.51993,-13.1366 L 5.20448,-12.5648 L 6.79999,-11.7779 L 8.27914,-10.7896 L 9.61664,-9.61664
 L 10.7896,-8.27914 L 11.7779,-6.79999 L 12.5648,-5.20448 L 13.1366,-3.51993 L 13.4836,-1.77515 L 13.6,-0
 L 13.4836,1.77515 L 13.1366,3.51993 L 12.5648,5.20448 L 11.7779,6.79999 L 10.7896,8.27914 L 9.61664,9.61664
 L 8.27914,10.7896 L 6.79999,11.7779 L 5.20448,12.5648 L 3.51993,13.1366 L 1.77515,13.4836 L 0,13.6
 z
" stroke="black" fill="lightgray" stroke-width="0.5"/>
</svg>
