<?xml version="1.0" standalone="no"?>
<!DOCTYPE svg PUBLIC "-//W3C//DTD SVG 1.1//EN" "http://www.w3.org/Graphics/SVG/1.1/DTD/svg11.dtd">
<svg width="44mm" height="97mm" viewBox="-22 -72 44 97" xmlns="http://www.w3.org/2000/svg" version="1.1">
<title>OpenSCAD Model</title>
<path d="
M 10,-40 L 21,-40 L 21,-50 L 10,-50 L 10,-71.85 L -10,-71.85
 L -10,-50 L -21,-50 L -21,-40 L -10,-40 L -10,-38.85 L 10,-38.85
 z
M -0.0783081,-40.9051 L -0.155289,-40.9204 L -0.229599,-40.9457 L -0.299988,-40.9804 L -0.36525,-41.024 L -0.424255,-41.0757
 L -0.475998,-41.1347 L -0.519608,-41.2 L -0.554321,-41.2704 L -0.579544,-41.3447 L -0.594864,-41.4217 L -0.599991,-41.5
 L -0.599991,-43.375 L -7,-43.375 L -7,-67.375 L -0.599991,-67.375 L -0.599991,-69.25 L -0.594864,-69.3283
 L -0.579544,-69.4053 L -0.554321,-69.4796 L -0.519608,-69.55 L -0.475998,-69.6152 L -0.424255,-69.6743 L -0.36525,-69.726
 L -0.299988,-69.7696 L -0.229599,-69.8043 L -0.155289,-69.8295 L -0.0783081,-69.8449 L 0,-69.85 L 0.0783081,-69.8449
 L 0.155289,-69.8295 L 0.229599,-69.8043 L 0.299988,-69.7696 L 0.36525,-69.726 L 0.424255,-69.6743 L 0.475998,-69.6152
 L 0.519608,-69.55 L 0.554321,-69.4796 L 0.579544,-69.4053 L 0.594864,-69.3283 L 0.599991,-69.25 L 0.599991,-67.375
 L 7,-67.375 L 7,-43.375 L 0.599991,-43.375 L 0.599991,-41.5 L 0.594864,-41.4217 L 0.579544,-41.3447
 L 0.554321,-41.2704 L 0.519608,-41.2 L 0.475998,-41.1347 L 0.424255,-41.0757 L 0.36525,-41.024 L 0.299988,-40.9804
 L 0.229599,-40.9457 L 0.155289,-40.9204 L 0.0783081,-40.9051 L 0,-40.9 z
M -15.2219,-41.8145 L -15.44,-41.8579 L -15.6506,-41.9294 L -15.85,-42.0278 L -16.0349,-42.1513 L -16.2021,-42.2979
 L -16.3487,-42.4651 L -16.4722,-42.65 L -16.5706,-42.8494 L -16.6421,-43.06 L -16.6855,-43.2781 L -16.7,-43.5
 L -16.7,-46.5 L -16.6855,-46.7219 L -16.6421,-46.94 L -16.5706,-47.1506 L -16.4722,-47.35 L -16.3487,-47.5349
 L -16.2021,-47.7021 L -16.0349,-47.8487 L -15.85,-47.9722 L -15.6506,-48.0706 L -15.44,-48.1421 L -15.2219,-48.1855
 L -15,-48.2 L -14.7781,-48.1855 L -14.56,-48.1421 L -14.3494,-48.0706 L -14.15,-47.9722 L -13.9651,-47.8487
 L -13.7979,-47.7021 L -13.6513,-47.5349 L -13.5278,-47.35 L -13.4294,-47.1506 L -13.3579,-46.94 L -13.3145,-46.7219
 L -13.3,-46.5 L -13.3,-43.5 L -13.3145,-43.2781 L -13.3579,-43.06 L -13.4294,-42.8494 L -13.5278,-42.65
 L -13.6513,-42.4651 L -13.7979,-42.2979 L -13.9651,-42.1513 L -14.15,-42.0278 L -14.3494,-41.9294 L -14.56,-41.8579
 L -14.7781,-41.8145 L -15,-41.8 z
M 14.7781,-41.8145 L 14.56,-41.8579 L 14.3494,-41.9294 L 14.15,-42.0278 L 13.9651,-42.1513 L 13.7979,-42.2979
 L 13.6513,-42.4651 L 13.5278,-42.65 L 13.4294,-42.8494 L 13.3579,-43.06 L 13.3145,-43.2781 L 13.3,-43.5
 L 13.3,-46.5 L 13.3145,-46.7219 L 13.3579,-46.94 L 13.4294,-47.1506 L 13.5278,-47.35 L 13.6513,-47.5349
 L 13.7979,-47.7021 L 13.9651,-47.8487 L 14.15,-47.9722 L 14.3494,-48.0706 L 14.56,-48.1421 L 14.7781,-48.1855
 L 15,-48.2 L 15.2219,-48.1855 L 15.44,-48.1421 L 15.6506,-48.0706 L 15.85,-47.9722 L 16.0349,-47.8487
 L 16.2021,-47.7021 L 16.3487,-47.5349 L 16.4722,-47.35 L 16.5706,-47.1506 L 16.6421,-46.94 L 16.6855,-46.7219
 L 16.7,-46.5 L 16.7,-43.5 L 16.6855,-43.2781 L 16.6421,-43.06 L 16.5706,-42.8494 L 16.4722,-42.65
 L 16.3487,-42.4651 L 16.2021,-42.2979 L 16.0349,-42.1513 L 15.85,-42.0278 L 15.6506,-41.9294 L 15.44,-41.8579
 L 15.2219,-41.8145 L 15,-41.8 z
M 9,15 L 9.05133,14.2168 L 9.20444,13.4471 L 9.45671,12.7039 L 9.80383,12 L 10.2399,11.3474
 L 10.7574,10.7574 L 11.3474,10.2399 L 12,9.80383 L 12.7039,9.45671 L 13.4471,9.20444 L 14.2168,9.05133
 L 15,9 L 21.005,9 L 21.005,-9 L 15,-9 L 14.2168,-9.05133 L 13.4471,-9.20444
 L 12.7039,-9.45671 L 12,-9.80383 L 11.3474,-10.2399 L 10.7574,-10.7574 L 10.2399,-11.3474 L 9.80383,-12
 L 9.45671,-12.7039 L 9.20444,-13.4471 L 9.05133,-14.2168 L 9,-15 L 9,-24.005 L -9,-24.005
 L -9,-15 L -9.05133,-14.2168 L -9.20444,-13.4471 L -9.45671,-12.7039 L -9.80383,-12 L -10.2399,-11.3474
 L -10.7574,-10.7574 L -11.3474,-10.2399 L -12,-9.80383 L -12.7039,-9.45671 L -13.4471,-9.20444 L -14.2168,-9.05133
 L -15,-9 L -21.005,-9 L -21.005,9 L -15,9 L -14.2168,9.05133 L -13.4471,9.20444
 L -12.7039,9.45671 L -12,9.80383 L -11.3474,10.2399 L -10.7574,10.7574 L -10.2399,11.3474 L -9.80383,12
 L -9.45671,12.7039 L -9.20444,13.4471 L -9.05133,14.2168 L -9,15 L -9,24.005 L 9,24.005
 z
M -1.77515,13.4836 L -3.51993,13.1366 L -5.20448,12.5648 L -6.79999,11.7779 L -8.27914,10.7896 L -9.61664,9.61664
 L -10.7896,8.27914 L -11.7779,6.79999 L -12.5648,5.20448 L -13.1366,3.51993 L -13.4836,1.77515 L -13.6,-0
 L -13.4836,-1.77515 L -13.1366,-3.51993 L -12.5648,-5.20448 L -11.7779,-6.79999 L -10.7896,-8.27914 L -9.61664,-9.61664
 L -8.27914,-10.7896 L -6.79999,-11.7779 L -5.20448,-12.5648 L -3.51993,-13.1366 L -1.77515,-13.4836 L 0,-13.6
 L 1.77515,-13.4836 L 3.51993,-13.1366 L 5.20448,-12.5648 L 6.79999,-11.7779 L 8.27914,-10.7896 L 9.61664,-9.61664
 L 10.7896,-8.27914 L 11.7779,-6.79999 L 12.5648,-5.20448 L 13.1366,-3.51993 L 13.4836,-1.77515 L 13.6,-0
 L 13.4836,1.77515 L 13.1366,3.51993 L 12.5648,5.20448 L 11.7779,6.79999 L 10.7896,8.27914 L 9.61664,9.61664
 L 8.27914,10.7896 L 6.79999,11.7779 L 5.20448,12.5648 L 3.51993,13.1366 L 1.77515,13.4836 L 0,13.6
 z
" stroke="black" fill="lightgray" stroke-width="0.5"/>
</svg>
