<?xml version="1.0" standalone="no"?>
<!DOCTYPE svg PUBLIC "-//W3C//DTD SVG 1.1//EN" "http://www.w3.org/Graphics/SVG/1.1/DTD/svg11.dtd">
<svg width="48mm" height="48mm" viewBox="-24 -24 48 48" xmlns="http://www.w3.org/2000/svg" version="1.1">
<title>OpenSCAD Model</title>
<path d="
M 22.7375,5.83798 L 23.475,-0 L 22.7375,-5.83798 L 20.5713,-11.3092 L 17.1125,-16.0697 L 12.5785,-19.8206
 L 7.25417,-22.326 L 1.474,-23.4287 L -4.39877,-23.0592 L -9.99516,-21.2408 L -14.9635,-18.0878 L -18.9917,-13.7982
 L -21.8265,-8.64172 L -23.2899,-2.94218 L -23.2899,2.94218 L -21.8265,8.64172 L -18.9917,13.7982 L -14.9635,18.0878
 L -9.99516,21.2408 L -4.39877,23.0592 L 1.474,23.4287 L 7.25417,22.326 L 12.5785,19.8206 L 17.1125,16.0697
 L 20.5713,11.3092 z
M -0.562134,-12.0531 L -1.27733,-12.2855 L -1.91226,-12.6884 L -2.42705,-13.2366 L -2.78932,-13.8956 L -2.97633,-14.624
 L -2.97633,-15.376 L -2.78932,-16.1044 L -2.42705,-16.7634 L -1.91226,-17.3115 L -1.27733,-17.7145 L -0.562134,-17.9469
 L 0.18837,-17.9941 L 0.927048,-17.8532 L 1.60747,-17.533 L 2.1869,-17.0536 L 2.62891,-16.4453 L 2.90575,-15.7461
 L 3,-15 L 2.90575,-14.2539 L 2.62891,-13.5547 L 2.1869,-12.9464 L 1.60747,-12.467 L 0.927048,-12.1468
 L 0.18837,-12.0059 z
M -1.12428,5.89372 L -2.39999,5.47922 L -2.39999,4.93959 L -2.34178,4.97655 L -1.03059,5.40257 L 0.345337,5.48914
 L 1.69958,5.2308 L 2.94704,4.6438 L 4.00932,3.765 L 4.81967,2.64964 L 5.32719,1.36778 L 5.40524,0.75
 L 1.83749,0.75 L 1.83749,2.13345 L 1.5204,2.39577 L 0.876831,2.69861 L 0.178162,2.83189 L -0.531693,2.78723
 L -1.20815,2.56744 L -1.80869,2.18633 L -1.83749,2.15564 L -1.83749,-2.15564 L -1.80869,-2.18633 L -1.20815,-2.56744
 L -0.531693,-2.78723 L 0.178162,-2.83189 L 0.876831,-2.69861 L 1.5204,-2.39577 L 1.83749,-2.13345 L 1.83749,-0.75
 L 5.40524,-0.75 L 5.32719,-1.36778 L 4.81967,-2.64964 L 4.00932,-3.765 L 2.94704,-4.6438 L 1.69958,-5.2308
 L 0.345337,-5.48914 L -1.03059,-5.40257 L -2.34178,-4.97655 L -2.39999,-4.93959 L -2.39999,-5.47922 L -1.12428,-5.89372
 L 0.37674,-5.98816 L 1.8541,-5.70633 L 3.21495,-5.06596 L 4.37381,-4.10727 L 5.25783,-2.89052 L 5.81149,-1.49213
 L 6,-0 L 5.81149,1.49213 L 5.25783,2.89052 L 4.37381,4.10727 L 3.21495,5.06596 L 1.8541,5.70633
 L 0.37674,5.98816 z
M 14.4379,2.94685 L 13.7227,2.71448 L 13.0877,2.31154 L 12.5729,1.76335 L 12.2107,1.10437 L 12.0237,0.375992
 L 12.0237,-0.375992 L 12.2107,-1.10437 L 12.5729,-1.76335 L 13.0877,-2.31154 L 13.7227,-2.71448 L 14.4379,-2.94685
 L 15.1884,-2.99408 L 15.927,-2.85316 L 16.6075,-2.53297 L 17.1869,-2.05363 L 17.6289,-1.44525 L 17.9057,-0.746063
 L 18,-0 L 17.9057,0.746063 L 17.6289,1.44525 L 17.1869,2.05363 L 16.6075,2.53297 L 15.927,2.85316
 L 15.1884,2.99408 z
M -15.5621,2.94685 L -16.2773,2.71448 L -16.9123,2.31154 L -17.427,1.76335 L -17.7893,1.10437 L -17.9763,0.375992
 L -17.9763,-0.375992 L -17.7893,-1.10437 L -17.427,-1.76335 L -16.9123,-2.31154 L -16.2773,-2.71448 L -15.5621,-2.94685
 L -14.8116,-2.99408 L -14.0729,-2.85316 L -13.3925,-2.53297 L -12.8131,-2.05363 L -12.3711,-1.44525 L -12.0942,-0.746063
 L -12,-0 L -12.0942,0.746063 L -12.3711,1.44525 L -12.8131,2.05363 L -13.3925,2.53297 L -14.0729,2.85316
 L -14.8116,2.99408 z
M -0.562134,17.9469 L -1.27733,17.7145 L -1.91226,17.3115 L -2.42705,16.7634 L -2.78932,16.1044 L -2.97633,15.376
 L -2.97633,14.624 L -2.78932,13.8956 L -2.42705,13.2366 L -1.91226,12.6884 L -1.27733,12.2855 L -0.562134,12.0531
 L 0.18837,12.0059 L 0.927048,12.1468 L 1.60747,12.467 L 2.1869,12.9464 L 2.62891,13.5547 L 2.90575,14.2539
 L 3,15 L 2.90575,15.7461 L 2.62891,16.4453 L 2.1869,17.0536 L 1.60747,17.533 L 0.927048,17.8532
 L 0.18837,17.9941 z
" stroke="black" fill="lightgray" stroke-width="0.5"/>
</svg>
