  0
SECTION
  2
BLOCKS
  0
ENDSEC
  0
SECTION
  2
ENTITIES
  0
LINE
  8
0
 10
22.7375
 20
-5.83798
 11
23.475
 21
0
  0
LINE
  8
0
 10
23.475
 20
0
 11
22.7375
 21
5.83798
  0
LINE
  8
0
 10
22.7375
 20
5.83798
 11
20.5713
 21
11.3092
  0
LINE
  8
0
 10
20.5713
 20
11.3092
 11
17.1125
 21
16.0697
  0
LINE
  8
0
 10
17.1125
 20
16.0697
 11
12.5785
 21
19.8206
  0
LINE
  8
0
 10
12.5785
 20
19.8206
 11
7.25417
 21
22.326
  0
LINE
  8
0
 10
7.25417
 20
22.326
 11
1.474
 21
23.4287
  0
LINE
  8
0
 10
1.474
 20
23.4287
 11
-4.39877
 21
23.0592
  0
LINE
  8
0
 10
-4.39877
 20
23.0592
 11
-9.99516
 21
21.2408
  0
LINE
  8
0
 10
-9.99516
 20
21.2408
 11
-14.9635
 21
18.0878
  0
LINE
  8
0
 10
-14.9635
 20
18.0878
 11
-18.9917
 21
13.7982
  0
LINE
  8
0
 10
-18.9917
 20
13.7982
 11
-21.8265
 21
8.64172
  0
LINE
  8
0
 10
-21.8265
 20
8.64172
 11
-23.2899
 21
2.94218
  0
LINE
  8
0
 10
-23.2899
 20
2.94218
 11
-23.2899
 21
-2.94218
  0
LINE
  8
0
 10
-23.2899
 20
-2.94218
 11
-21.8265
 21
-8.64172
  0
LINE
  8
0
 10
-21.8265
 20
-8.64172
 11
-18.9917
 21
-13.7982
  0
LINE
  8
0
 10
-18.9917
 20
-13.7982
 11
-14.9635
 21
-18.0878
  0
LINE
  8
0
 10
-14.9635
 20
-18.0878
 11
-9.99516
 21
-21.2408
  0
LINE
  8
0
 10
-9.99516
 20
-21.2408
 11
-4.39877
 21
-23.0592
  0
LINE
  8
0
 10
-4.39877
 20
-23.0592
 11
1.474
 21
-23.4287
  0
LINE
  8
0
 10
1.474
 20
-23.4287
 11
7.25417
 21
-22.326
  0
LINE
  8
0
 10
7.25417
 20
-22.326
 11
12.5785
 21
-19.8206
  0
LINE
  8
0
 10
12.5785
 20
-19.8206
 11
17.1125
 21
-16.0697
  0
LINE
  8
0
 10
17.1125
 20
-16.0697
 11
20.5713
 21
-11.3092
  0
LINE
  8
0
 10
20.5713
 20
-11.3092
 11
22.7375
 21
-5.83798
  0
LINE
  8
0
 10
-0.562134
 20
12.0531
 11
-1.27733
 21
12.2855
  0
LINE
  8
0
 10
-1.27733
 20
12.2855
 11
-1.91226
 21
12.6884
  0
LINE
  8
0
 10
-1.91226
 20
12.6884
 11
-2.42705
 21
13.2366
  0
LINE
  8
0
 10
-2.42705
 20
13.2366
 11
-2.78932
 21
13.8956
  0
LINE
  8
0
 10
-2.78932
 20
13.8956
 11
-2.97633
 21
14.624
  0
LINE
  8
0
 10
-2.97633
 20
14.624
 11
-2.97633
 21
15.376
  0
LINE
  8
0
 10
-2.97633
 20
15.376
 11
-2.78932
 21
16.1044
  0
LINE
  8
0
 10
-2.78932
 20
16.1044
 11
-2.42705
 21
16.7634
  0
LINE
  8
0
 10
-2.42705
 20
16.7634
 11
-1.91226
 21
17.3115
  0
LINE
  8
0
 10
-1.91226
 20
17.3115
 11
-1.27733
 21
17.7145
  0
LINE
  8
0
 10
-1.27733
 20
17.7145
 11
-0.562134
 21
17.9469
  0
LINE
  8
0
 10
-0.562134
 20
17.9469
 11
0.18837
 21
17.9941
  0
LINE
  8
0
 10
0.18837
 20
17.9941
 11
0.927048
 21
17.8532
  0
LINE
  8
0
 10
0.927048
 20
17.8532
 11
1.60747
 21
17.533
  0
LINE
  8
0
 10
1.60747
 20
17.533
 11
2.1869
 21
17.0536
  0
LINE
  8
0
 10
2.1869
 20
17.0536
 11
2.62891
 21
16.4453
  0
LINE
  8
0
 10
2.62891
 20
16.4453
 11
2.90575
 21
15.7461
  0
LINE
  8
0
 10
2.90575
 20
15.7461
 11
3
 21
15
  0
LINE
  8
0
 10
3
 20
15
 11
2.90575
 21
14.2539
  0
LINE
  8
0
 10
2.90575
 20
14.2539
 11
2.62891
 21
13.5547
  0
LINE
  8
0
 10
2.62891
 20
13.5547
 11
2.1869
 21
12.9464
  0
LINE
  8
0
 10
2.1869
 20
12.9464
 11
1.60747
 21
12.467
  0
LINE
  8
0
 10
1.60747
 20
12.467
 11
0.927048
 21
12.1468
  0
LINE
  8
0
 10
0.927048
 20
12.1468
 11
0.18837
 21
12.0059
  0
LINE
  8
0
 10
0.18837
 20
12.0059
 11
-0.562134
 21
12.0531
  0
LINE
  8
0
 10
-1.12428
 20
-5.89372
 11
-2.39999
 21
-5.47922
  0
LINE
  8
0
 10
-2.39999
 20
-5.47922
 11
-2.39999
 21
-4.93959
  0
LINE
  8
0
 10
-2.39999
 20
-4.93959
 11
-2.34178
 21
-4.97655
  0
LINE
  8
0
 10
-2.34178
 20
-4.97655
 11
-1.03059
 21
-5.40257
  0
LINE
  8
0
 10
-1.03059
 20
-5.40257
 11
0.345337
 21
-5.48914
  0
LINE
  8
0
 10
0.345337
 20
-5.48914
 11
1.69958
 21
-5.2308
  0
LINE
  8
0
 10
1.69958
 20
-5.2308
 11
2.94704
 21
-4.6438
  0
LINE
  8
0
 10
2.94704
 20
-4.6438
 11
4.00932
 21
-3.765
  0
LINE
  8
0
 10
4.00932
 20
-3.765
 11
4.81967
 21
-2.64964
  0
LINE
  8
0
 10
4.81967
 20
-2.64964
 11
5.32719
 21
-1.36778
  0
LINE
  8
0
 10
5.32719
 20
-1.36778
 11
5.40524
 21
-0.75
  0
LINE
  8
0
 10
5.40524
 20
-0.75
 11
1.83749
 21
-0.75
  0
LINE
  8
0
 10
1.83749
 20
-0.75
 11
1.83749
 21
-2.13345
  0
LINE
  8
0
 10
1.83749
 20
-2.13345
 11
1.5204
 21
-2.39577
  0
LINE
  8
0
 10
1.5204
 20
-2.39577
 11
0.876831
 21
-2.69861
  0
LINE
  8
0
 10
0.876831
 20
-2.69861
 11
0.178162
 21
-2.83189
  0
LINE
  8
0
 10
0.178162
 20
-2.83189
 11
-0.531693
 21
-2.78723
  0
LINE
  8
0
 10
-0.531693
 20
-2.78723
 11
-1.20815
 21
-2.56744
  0
LINE
  8
0
 10
-1.20815
 20
-2.56744
 11
-1.80869
 21
-2.18633
  0
LINE
  8
0
 10
-1.80869
 20
-2.18633
 11
-1.83749
 21
-2.15564
  0
LINE
  8
0
 10
-1.83749
 20
-2.15564
 11
-1.83749
 21
2.15564
  0
LINE
  8
0
 10
-1.83749
 20
2.15564
 11
-1.80869
 21
2.18633
  0
LINE
  8
0
 10
-1.80869
 20
2.18633
 11
-1.20815
 21
2.56744
  0
LINE
  8
0
 10
-1.20815
 20
2.56744
 11
-0.531693
 21
2.78723
  0
LINE
  8
0
 10
-0.531693
 20
2.78723
 11
0.178162
 21
2.83189
  0
LINE
  8
0
 10
0.178162
 20
2.83189
 11
0.876831
 21
2.69861
  0
LINE
  8
0
 10
0.876831
 20
2.69861
 11
1.5204
 21
2.39577
  0
LINE
  8
0
 10
1.5204
 20
2.39577
 11
1.83749
 21
2.13345
  0
LINE
  8
0
 10
1.83749
 20
2.13345
 11
1.83749
 21
0.75
  0
LINE
  8
0
 10
1.83749
 20
0.75
 11
5.40524
 21
0.75
  0
LINE
  8
0
 10
5.40524
 20
0.75
 11
5.32719
 21
1.36778
  0
LINE
  8
0
 10
5.32719
 20
1.36778
 11
4.81967
 21
2.64964
  0
LINE
  8
0
 10
4.81967
 20
2.64964
 11
4.00932
 21
3.765
  0
LINE
  8
0
 10
4.00932
 20
3.765
 11
2.94704
 21
4.6438
  0
LINE
  8
0
 10
2.94704
 20
4.6438
 11
1.69958
 21
5.2308
  0
LINE
  8
0
 10
1.69958
 20
5.2308
 11
0.345337
 21
5.48914
  0
LINE
  8
0
 10
0.345337
 20
5.48914
 11
-1.03059
 21
5.40257
  0
LINE
  8
0
 10
-1.03059
 20
5.40257
 11
-2.34178
 21
4.97655
  0
LINE
  8
0
 10
-2.34178
 20
4.97655
 11
-2.39999
 21
4.93959
  0
LINE
  8
0
 10
-2.39999
 20
4.93959
 11
-2.39999
 21
5.47922
  0
LINE
  8
0
 10
-2.39999
 20
5.47922
 11
-1.12428
 21
5.89372
  0
LINE
  8
0
 10
-1.12428
 20
5.89372
 11
0.37674
 21
5.98816
  0
LINE
  8
0
 10
0.37674
 20
5.98816
 11
1.8541
 21
5.70633
  0
LINE
  8
0
 10
1.8541
 20
5.70633
 11
3.21495
 21
5.06596
  0
LINE
  8
0
 10
3.21495
 20
5.06596
 11
4.37381
 21
4.10727
  0
LINE
  8
0
 10
4.37381
 20
4.10727
 11
5.25783
 21
2.89052
  0
LINE
  8
0
 10
5.25783
 20
2.89052
 11
5.81149
 21
1.49213
  0
LINE
  8
0
 10
5.81149
 20
1.49213
 11
6
 21
0
  0
LINE
  8
0
 10
6
 20
0
 11
5.81149
 21
-1.49213
  0
LINE
  8
0
 10
5.81149
 20
-1.49213
 11
5.25783
 21
-2.89052
  0
LINE
  8
0
 10
5.25783
 20
-2.89052
 11
4.37381
 21
-4.10727
  0
LINE
  8
0
 10
4.37381
 20
-4.10727
 11
3.21495
 21
-5.06596
  0
LINE
  8
0
 10
3.21495
 20
-5.06596
 11
1.8541
 21
-5.70633
  0
LINE
  8
0
 10
1.8541
 20
-5.70633
 11
0.37674
 21
-5.98816
  0
LINE
  8
0
 10
0.37674
 20
-5.98816
 11
-1.12428
 21
-5.89372
  0
LINE
  8
0
 10
14.4379
 20
-2.94685
 11
13.7227
 21
-2.71448
  0
LINE
  8
0
 10
13.7227
 20
-2.71448
 11
13.0877
 21
-2.31154
  0
LINE
  8
0
 10
13.0877
 20
-2.31154
 11
12.5729
 21
-1.76335
  0
LINE
  8
0
 10
12.5729
 20
-1.76335
 11
12.2107
 21
-1.10437
  0
LINE
  8
0
 10
12.2107
 20
-1.10437
 11
12.0237
 21
-0.375992
  0
LINE
  8
0
 10
12.0237
 20
-0.375992
 11
12.0237
 21
0.375992
  0
LINE
  8
0
 10
12.0237
 20
0.375992
 11
12.2107
 21
1.10437
  0
LINE
  8
0
 10
12.2107
 20
1.10437
 11
12.5729
 21
1.76335
  0
LINE
  8
0
 10
12.5729
 20
1.76335
 11
13.0877
 21
2.31154
  0
LINE
  8
0
 10
13.0877
 20
2.31154
 11
13.7227
 21
2.71448
  0
LINE
  8
0
 10
13.7227
 20
2.71448
 11
14.4379
 21
2.94685
  0
LINE
  8
0
 10
14.4379
 20
2.94685
 11
15.1884
 21
2.99408
  0
LINE
  8
0
 10
15.1884
 20
2.99408
 11
15.927
 21
2.85316
  0
LINE
  8
0
 10
15.927
 20
2.85316
 11
16.6075
 21
2.53297
  0
LINE
  8
0
 10
16.6075
 20
2.53297
 11
17.1869
 21
2.05363
  0
LINE
  8
0
 10
17.1869
 20
2.05363
 11
17.6289
 21
1.44525
  0
LINE
  8
0
 10
17.6289
 20
1.44525
 11
17.9057
 21
0.746063
  0
LINE
  8
0
 10
17.9057
 20
0.746063
 11
18
 21
0
  0
LINE
  8
0
 10
18
 20
0
 11
17.9057
 21
-0.746063
  0
LINE
  8
0
 10
17.9057
 20
-0.746063
 11
17.6289
 21
-1.44525
  0
LINE
  8
0
 10
17.6289
 20
-1.44525
 11
17.1869
 21
-2.05363
  0
LINE
  8
0
 10
17.1869
 20
-2.05363
 11
16.6075
 21
-2.53297
  0
LINE
  8
0
 10
16.6075
 20
-2.53297
 11
15.927
 21
-2.85316
  0
LINE
  8
0
 10
15.927
 20
-2.85316
 11
15.1884
 21
-2.99408
  0
LINE
  8
0
 10
15.1884
 20
-2.99408
 11
14.4379
 21
-2.94685
  0
LINE
  8
0
 10
-15.5621
 20
-2.94685
 11
-16.2773
 21
-2.71448
  0
LINE
  8
0
 10
-16.2773
 20
-2.71448
 11
-16.9123
 21
-2.31154
  0
LINE
  8
0
 10
-16.9123
 20
-2.31154
 11
-17.427
 21
-1.76335
  0
LINE
  8
0
 10
-17.427
 20
-1.76335
 11
-17.7893
 21
-1.10437
  0
LINE
  8
0
 10
-17.7893
 20
-1.10437
 11
-17.9763
 21
-0.375992
  0
LINE
  8
0
 10
-17.9763
 20
-0.375992
 11
-17.9763
 21
0.375992
  0
LINE
  8
0
 10
-17.9763
 20
0.375992
 11
-17.7893
 21
1.10437
  0
LINE
  8
0
 10
-17.7893
 20
1.10437
 11
-17.427
 21
1.76335
  0
LINE
  8
0
 10
-17.427
 20
1.76335
 11
-16.9123
 21
2.31154
  0
LINE
  8
0
 10
-16.9123
 20
2.31154
 11
-16.2773
 21
2.71448
  0
LINE
  8
0
 10
-16.2773
 20
2.71448
 11
-15.5621
 21
2.94685
  0
LINE
  8
0
 10
-15.5621
 20
2.94685
 11
-14.8116
 21
2.99408
  0
LINE
  8
0
 10
-14.8116
 20
2.99408
 11
-14.0729
 21
2.85316
  0
LINE
  8
0
 10
-14.0729
 20
2.85316
 11
-13.3925
 21
2.53297
  0
LINE
  8
0
 10
-13.3925
 20
2.53297
 11
-12.8131
 21
2.05363
  0
LINE
  8
0
 10
-12.8131
 20
2.05363
 11
-12.3711
 21
1.44525
  0
LINE
  8
0
 10
-12.3711
 20
1.44525
 11
-12.0942
 21
0.746063
  0
LINE
  8
0
 10
-12.0942
 20
0.746063
 11
-12
 21
0
  0
LINE
  8
0
 10
-12
 20
0
 11
-12.0942
 21
-0.746063
  0
LINE
  8
0
 10
-12.0942
 20
-0.746063
 11
-12.3711
 21
-1.44525
  0
LINE
  8
0
 10
-12.3711
 20
-1.44525
 11
-12.8131
 21
-2.05363
  0
LINE
  8
0
 10
-12.8131
 20
-2.05363
 11
-13.3925
 21
-2.53297
  0
LINE
  8
0
 10
-13.3925
 20
-2.53297
 11
-14.0729
 21
-2.85316
  0
LINE
  8
0
 10
-14.0729
 20
-2.85316
 11
-14.8116
 21
-2.99408
  0
LINE
  8
0
 10
-14.8116
 20
-2.99408
 11
-15.5621
 21
-2.94685
  0
LINE
  8
0
 10
-0.562134
 20
-17.9469
 11
-1.27733
 21
-17.7145
  0
LINE
  8
0
 10
-1.27733
 20
-17.7145
 11
-1.91226
 21
-17.3115
  0
LINE
  8
0
 10
-1.91226
 20
-17.3115
 11
-2.42705
 21
-16.7634
  0
LINE
  8
0
 10
-2.42705
 20
-16.7634
 11
-2.78932
 21
-16.1044
  0
LINE
  8
0
 10
-2.78932
 20
-16.1044
 11
-2.97633
 21
-15.376
  0
LINE
  8
0
 10
-2.97633
 20
-15.376
 11
-2.97633
 21
-14.624
  0
LINE
  8
0
 10
-2.97633
 20
-14.624
 11
-2.78932
 21
-13.8956
  0
LINE
  8
0
 10
-2.78932
 20
-13.8956
 11
-2.42705
 21
-13.2366
  0
LINE
  8
0
 10
-2.42705
 20
-13.2366
 11
-1.91226
 21
-12.6884
  0
LINE
  8
0
 10
-1.91226
 20
-12.6884
 11
-1.27733
 21
-12.2855
  0
LINE
  8
0
 10
-1.27733
 20
-12.2855
 11
-0.562134
 21
-12.0531
  0
LINE
  8
0
 10
-0.562134
 20
-12.0531
 11
0.18837
 21
-12.0059
  0
LINE
  8
0
 10
0.18837
 20
-12.0059
 11
0.927048
 21
-12.1468
  0
LINE
  8
0
 10
0.927048
 20
-12.1468
 11
1.60747
 21
-12.467
  0
LINE
  8
0
 10
1.60747
 20
-12.467
 11
2.1869
 21
-12.9464
  0
LINE
  8
0
 10
2.1869
 20
-12.9464
 11
2.62891
 21
-13.5547
  0
LINE
  8
0
 10
2.62891
 20
-13.5547
 11
2.90575
 21
-14.2539
  0
LINE
  8
0
 10
2.90575
 20
-14.2539
 11
3
 21
-15
  0
LINE
  8
0
 10
3
 20
-15
 11
2.90575
 21
-15.7461
  0
LINE
  8
0
 10
2.90575
 20
-15.7461
 11
2.62891
 21
-16.4453
  0
LINE
  8
0
 10
2.62891
 20
-16.4453
 11
2.1869
 21
-17.0536
  0
LINE
  8
0
 10
2.1869
 20
-17.0536
 11
1.60747
 21
-17.533
  0
LINE
  8
0
 10
1.60747
 20
-17.533
 11
0.927048
 21
-17.8532
  0
LINE
  8
0
 10
0.927048
 20
-17.8532
 11
0.18837
 21
-17.9941
  0
LINE
  8
0
 10
0.18837
 20
-17.9941
 11
-0.562134
 21
-17.9469
  0
ENDSEC
  0
SECTION
  2
OBJECTS
  0
DICTIONARY
  0
ENDSEC
  0
EOF
