  0
SECTION
  2
BLOCKS
  0
ENDSEC
  0
SECTION
  2
ENTITIES
  0
LINE
  8
0
 10
159.158
 20
1.53778
 11
159.799
 21
1.66537
  0
LINE
  8
0
 10
159.799
 20
1.66537
 11
160.418
 21
1.87561
  0
LINE
  8
0
 10
160.418
 20
1.87561
 11
161.005
 21
2.16489
  0
LINE
  8
0
 10
161.005
 20
2.16489
 11
161.549
 21
2.52824
  0
LINE
  8
0
 10
161.549
 20
2.52824
 11
162.041
 21
2.95947
  0
LINE
  8
0
 10
162.041
 20
2.95947
 11
162.472
 21
3.4512
  0
LINE
  8
0
 10
162.472
 20
3.4512
 11
162.835
 21
3.99501
  0
LINE
  8
0
 10
162.835
 20
3.99501
 11
163.124
 21
4.58159
  0
LINE
  8
0
 10
163.124
 20
4.58159
 11
163.335
 21
5.20091
  0
LINE
  8
0
 10
163.335
 20
5.20091
 11
163.462
 21
5.84238
  0
LINE
  8
0
 10
163.462
 20
5.84238
 11
163.505
 21
6.49501
  0
LINE
  8
0
 10
163.505
 20
6.49501
 11
163.505
 21
8.50499
  0
LINE
  8
0
 10
163.505
 20
8.50499
 11
163.462
 21
9.15762
  0
LINE
  8
0
 10
163.462
 20
9.15762
 11
163.335
 21
9.79909
  0
LINE
  8
0
 10
163.335
 20
9.79909
 11
163.124
 21
10.4184
  0
LINE
  8
0
 10
163.124
 20
10.4184
 11
162.835
 21
11.005
  0
LINE
  8
0
 10
162.835
 20
11.005
 11
162.472
 21
11.5488
  0
LINE
  8
0
 10
162.472
 20
11.5488
 11
162.041
 21
12.0405
  0
LINE
  8
0
 10
162.041
 20
12.0405
 11
161.549
 21
12.4718
  0
LINE
  8
0
 10
161.549
 20
12.4718
 11
161.005
 21
12.8351
  0
LINE
  8
0
 10
161.005
 20
12.8351
 11
160.418
 21
13.1244
  0
LINE
  8
0
 10
160.418
 20
13.1244
 11
159.799
 21
13.3346
  0
LINE
  8
0
 10
159.799
 20
13.3346
 11
159.158
 21
13.4622
  0
LINE
  8
0
 10
159.158
 20
13.4622
 11
158.505
 21
13.505
  0
LINE
  8
0
 10
158.505
 20
13.505
 11
6.49501
 21
13.505
  0
LINE
  8
0
 10
6.49501
 20
13.505
 11
5.84238
 21
13.4622
  0
LINE
  8
0
 10
5.84238
 20
13.4622
 11
5.20091
 21
13.3346
  0
LINE
  8
0
 10
5.20091
 20
13.3346
 11
4.58159
 21
13.1244
  0
LINE
  8
0
 10
4.58159
 20
13.1244
 11
3.99501
 21
12.8351
  0
LINE
  8
0
 10
3.99501
 20
12.8351
 11
3.4512
 21
12.4718
  0
LINE
  8
0
 10
3.4512
 20
12.4718
 11
2.95947
 21
12.0405
  0
LINE
  8
0
 10
2.95947
 20
12.0405
 11
2.52824
 21
11.5488
  0
LINE
  8
0
 10
2.52824
 20
11.5488
 11
2.16489
 21
11.005
  0
LINE
  8
0
 10
2.16489
 20
11.005
 11
1.87561
 21
10.4184
  0
LINE
  8
0
 10
1.87561
 20
10.4184
 11
1.66537
 21
9.79909
  0
LINE
  8
0
 10
1.66537
 20
9.79909
 11
1.53778
 21
9.15762
  0
LINE
  8
0
 10
1.53778
 20
9.15762
 11
1.49501
 21
8.50499
  0
LINE
  8
0
 10
1.49501
 20
8.50499
 11
1.49501
 21
6.49501
  0
LINE
  8
0
 10
1.49501
 20
6.49501
 11
1.53778
 21
5.84238
  0
LINE
  8
0
 10
1.53778
 20
5.84238
 11
1.66537
 21
5.20091
  0
LINE
  8
0
 10
1.66537
 20
5.20091
 11
1.87561
 21
4.58159
  0
LINE
  8
0
 10
1.87561
 20
4.58159
 11
2.16489
 21
3.99501
  0
LINE
  8
0
 10
2.16489
 20
3.99501
 11
2.52824
 21
3.4512
  0
LINE
  8
0
 10
2.52824
 20
3.4512
 11
2.95947
 21
2.95947
  0
LINE
  8
0
 10
2.95947
 20
2.95947
 11
3.4512
 21
2.52824
  0
LINE
  8
0
 10
3.4512
 20
2.52824
 11
3.99501
 21
2.16489
  0
LINE
  8
0
 10
3.99501
 20
2.16489
 11
4.58159
 21
1.87561
  0
LINE
  8
0
 10
4.58159
 20
1.87561
 11
5.20091
 21
1.66537
  0
LINE
  8
0
 10
5.20091
 20
1.66537
 11
5.84238
 21
1.53778
  0
LINE
  8
0
 10
5.84238
 20
1.53778
 11
6.49501
 21
1.49501
  0
LINE
  8
0
 10
6.49501
 20
1.49501
 11
158.505
 21
1.49501
  0
LINE
  8
0
 10
158.505
 20
1.49501
 11
159.158
 21
1.53778
  0
LINE
  8
0
 10
113.341
 20
10.6393
 11
113.744
 21
10.5026
  0
LINE
  8
0
 10
113.744
 20
10.5026
 11
114.125
 21
10.3146
  0
LINE
  8
0
 10
114.125
 20
10.3146
 11
114.478
 21
10.0784
  0
LINE
  8
0
 10
114.478
 20
10.0784
 11
114.798
 21
9.7981
  0
LINE
  8
0
 10
114.798
 20
9.7981
 11
115.078
 21
9.47847
  0
LINE
  8
0
 10
115.078
 20
9.47847
 11
115.315
 21
9.125
  0
LINE
  8
0
 10
115.315
 20
9.125
 11
115.503
 21
8.74371
  0
LINE
  8
0
 10
115.503
 20
8.74371
 11
115.639
 21
8.34116
  0
LINE
  8
0
 10
115.639
 20
8.34116
 11
115.722
 21
7.92421
  0
LINE
  8
0
 10
115.722
 20
7.92421
 11
115.75
 21
7.5
  0
LINE
  8
0
 10
115.75
 20
7.5
 11
115.722
 21
7.07578
  0
LINE
  8
0
 10
115.722
 20
7.07578
 11
115.639
 21
6.65883
  0
LINE
  8
0
 10
115.639
 20
6.65883
 11
115.503
 21
6.25627
  0
LINE
  8
0
 10
115.503
 20
6.25627
 11
115.315
 21
5.875
  0
LINE
  8
0
 10
115.315
 20
5.875
 11
115.078
 21
5.52151
  0
LINE
  8
0
 10
115.078
 20
5.52151
 11
114.798
 21
5.20189
  0
LINE
  8
0
 10
114.798
 20
5.20189
 11
114.478
 21
4.9216
  0
LINE
  8
0
 10
114.478
 20
4.9216
 11
114.125
 21
4.68541
  0
LINE
  8
0
 10
114.125
 20
4.68541
 11
113.744
 21
4.49739
  0
LINE
  8
0
 10
113.744
 20
4.49739
 11
113.341
 21
4.36073
  0
LINE
  8
0
 10
113.341
 20
4.36073
 11
112.924
 21
4.2778
  0
LINE
  8
0
 10
112.924
 20
4.2778
 11
112.5
 21
4.25
  0
LINE
  8
0
 10
112.5
 20
4.25
 11
112.076
 21
4.2778
  0
LINE
  8
0
 10
112.076
 20
4.2778
 11
111.659
 21
4.36073
  0
LINE
  8
0
 10
111.659
 20
4.36073
 11
111.256
 21
4.49739
  0
LINE
  8
0
 10
111.256
 20
4.49739
 11
110.875
 21
4.68541
  0
LINE
  8
0
 10
110.875
 20
4.68541
 11
110.522
 21
4.9216
  0
LINE
  8
0
 10
110.522
 20
4.9216
 11
110.202
 21
5.20189
  0
LINE
  8
0
 10
110.202
 20
5.20189
 11
109.922
 21
5.52151
  0
LINE
  8
0
 10
109.922
 20
5.52151
 11
109.685
 21
5.875
  0
LINE
  8
0
 10
109.685
 20
5.875
 11
109.497
 21
6.25627
  0
LINE
  8
0
 10
109.497
 20
6.25627
 11
109.361
 21
6.65883
  0
LINE
  8
0
 10
109.361
 20
6.65883
 11
109.278
 21
7.07578
  0
LINE
  8
0
 10
109.278
 20
7.07578
 11
109.25
 21
7.5
  0
LINE
  8
0
 10
109.25
 20
7.5
 11
109.278
 21
7.92421
  0
LINE
  8
0
 10
109.278
 20
7.92421
 11
109.361
 21
8.34116
  0
LINE
  8
0
 10
109.361
 20
8.34116
 11
109.497
 21
8.74371
  0
LINE
  8
0
 10
109.497
 20
8.74371
 11
109.685
 21
9.125
  0
LINE
  8
0
 10
109.685
 20
9.125
 11
109.922
 21
9.47847
  0
LINE
  8
0
 10
109.922
 20
9.47847
 11
110.202
 21
9.7981
  0
LINE
  8
0
 10
110.202
 20
9.7981
 11
110.522
 21
10.0784
  0
LINE
  8
0
 10
110.522
 20
10.0784
 11
110.875
 21
10.3146
  0
LINE
  8
0
 10
110.875
 20
10.3146
 11
111.256
 21
10.5026
  0
LINE
  8
0
 10
111.256
 20
10.5026
 11
111.659
 21
10.6393
  0
LINE
  8
0
 10
111.659
 20
10.6393
 11
112.076
 21
10.7222
  0
LINE
  8
0
 10
112.076
 20
10.7222
 11
112.5
 21
10.75
  0
LINE
  8
0
 10
112.5
 20
10.75
 11
112.924
 21
10.7222
  0
LINE
  8
0
 10
112.924
 20
10.7222
 11
113.341
 21
10.6393
  0
LINE
  8
0
 10
7.07578
 20
4.2778
 11
6.65883
 21
4.36073
  0
LINE
  8
0
 10
6.65883
 20
4.36073
 11
6.25627
 21
4.49739
  0
LINE
  8
0
 10
6.25627
 20
4.49739
 11
5.875
 21
4.68541
  0
LINE
  8
0
 10
5.875
 20
4.68541
 11
5.52151
 21
4.9216
  0
LINE
  8
0
 10
5.52151
 20
4.9216
 11
5.20189
 21
5.20189
  0
LINE
  8
0
 10
5.20189
 20
5.20189
 11
4.9216
 21
5.52151
  0
LINE
  8
0
 10
4.9216
 20
5.52151
 11
4.68541
 21
5.875
  0
LINE
  8
0
 10
4.68541
 20
5.875
 11
4.49739
 21
6.25627
  0
LINE
  8
0
 10
4.49739
 20
6.25627
 11
4.36073
 21
6.65883
  0
LINE
  8
0
 10
4.36073
 20
6.65883
 11
4.2778
 21
7.07578
  0
LINE
  8
0
 10
4.2778
 20
7.07578
 11
4.25
 21
7.5
  0
LINE
  8
0
 10
4.25
 20
7.5
 11
4.2778
 21
7.92421
  0
LINE
  8
0
 10
4.2778
 20
7.92421
 11
4.36073
 21
8.34116
  0
LINE
  8
0
 10
4.36073
 20
8.34116
 11
4.49739
 21
8.74371
  0
LINE
  8
0
 10
4.49739
 20
8.74371
 11
4.68541
 21
9.125
  0
LINE
  8
0
 10
4.68541
 20
9.125
 11
4.9216
 21
9.47847
  0
LINE
  8
0
 10
4.9216
 20
9.47847
 11
5.20189
 21
9.7981
  0
LINE
  8
0
 10
5.20189
 20
9.7981
 11
5.52151
 21
10.0784
  0
LINE
  8
0
 10
5.52151
 20
10.0784
 11
5.875
 21
10.3146
  0
LINE
  8
0
 10
5.875
 20
10.3146
 11
6.25627
 21
10.5026
  0
LINE
  8
0
 10
6.25627
 20
10.5026
 11
6.65883
 21
10.6393
  0
LINE
  8
0
 10
6.65883
 20
10.6393
 11
7.07578
 21
10.7222
  0
LINE
  8
0
 10
7.07578
 20
10.7222
 11
7.5
 21
10.75
  0
LINE
  8
0
 10
7.5
 20
10.75
 11
7.92421
 21
10.7222
  0
LINE
  8
0
 10
7.92421
 20
10.7222
 11
8.34116
 21
10.6393
  0
LINE
  8
0
 10
8.34116
 20
10.6393
 11
8.74371
 21
10.5026
  0
LINE
  8
0
 10
8.74371
 20
10.5026
 11
9.125
 21
10.3146
  0
LINE
  8
0
 10
9.125
 20
10.3146
 11
9.47847
 21
10.0784
  0
LINE
  8
0
 10
9.47847
 20
10.0784
 11
9.7981
 21
9.7981
  0
LINE
  8
0
 10
9.7981
 20
9.7981
 11
10.0784
 21
9.47847
  0
LINE
  8
0
 10
10.0784
 20
9.47847
 11
10.3146
 21
9.125
  0
LINE
  8
0
 10
10.3146
 20
9.125
 11
10.5026
 21
8.74371
  0
LINE
  8
0
 10
10.5026
 20
8.74371
 11
10.6393
 21
8.34116
  0
LINE
  8
0
 10
10.6393
 20
8.34116
 11
10.7222
 21
7.92421
  0
LINE
  8
0
 10
10.7222
 20
7.92421
 11
10.75
 21
7.5
  0
LINE
  8
0
 10
10.75
 20
7.5
 11
10.7222
 21
7.07578
  0
LINE
  8
0
 10
10.7222
 20
7.07578
 11
10.6393
 21
6.65883
  0
LINE
  8
0
 10
10.6393
 20
6.65883
 11
10.5026
 21
6.25627
  0
LINE
  8
0
 10
10.5026
 20
6.25627
 11
10.3146
 21
5.875
  0
LINE
  8
0
 10
10.3146
 20
5.875
 11
10.0784
 21
5.52151
  0
LINE
  8
0
 10
10.0784
 20
5.52151
 11
9.7981
 21
5.20189
  0
LINE
  8
0
 10
9.7981
 20
5.20189
 11
9.47847
 21
4.9216
  0
LINE
  8
0
 10
9.47847
 20
4.9216
 11
9.125
 21
4.68541
  0
LINE
  8
0
 10
9.125
 20
4.68541
 11
8.74371
 21
4.49739
  0
LINE
  8
0
 10
8.74371
 20
4.49739
 11
8.34116
 21
4.36073
  0
LINE
  8
0
 10
8.34116
 20
4.36073
 11
7.92421
 21
4.2778
  0
LINE
  8
0
 10
7.92421
 20
4.2778
 11
7.5
 21
4.25
  0
LINE
  8
0
 10
7.5
 20
4.25
 11
7.07578
 21
4.2778
  0
LINE
  8
0
 10
22.0758
 20
4.2778
 11
21.6588
 21
4.36073
  0
LINE
  8
0
 10
21.6588
 20
4.36073
 11
21.2563
 21
4.49739
  0
LINE
  8
0
 10
21.2563
 20
4.49739
 11
20.875
 21
4.68541
  0
LINE
  8
0
 10
20.875
 20
4.68541
 11
20.5215
 21
4.9216
  0
LINE
  8
0
 10
20.5215
 20
4.9216
 11
20.2019
 21
5.20189
  0
LINE
  8
0
 10
20.2019
 20
5.20189
 11
19.9216
 21
5.52151
  0
LINE
  8
0
 10
19.9216
 20
5.52151
 11
19.6854
 21
5.875
  0
LINE
  8
0
 10
19.6854
 20
5.875
 11
19.4974
 21
6.25627
  0
LINE
  8
0
 10
19.4974
 20
6.25627
 11
19.3607
 21
6.65883
  0
LINE
  8
0
 10
19.3607
 20
6.65883
 11
19.2778
 21
7.07578
  0
LINE
  8
0
 10
19.2778
 20
7.07578
 11
19.25
 21
7.5
  0
LINE
  8
0
 10
19.25
 20
7.5
 11
19.2778
 21
7.92421
  0
LINE
  8
0
 10
19.2778
 20
7.92421
 11
19.3607
 21
8.34116
  0
LINE
  8
0
 10
19.3607
 20
8.34116
 11
19.4974
 21
8.74371
  0
LINE
  8
0
 10
19.4974
 20
8.74371
 11
19.6854
 21
9.125
  0
LINE
  8
0
 10
19.6854
 20
9.125
 11
19.9216
 21
9.47847
  0
LINE
  8
0
 10
19.9216
 20
9.47847
 11
20.2019
 21
9.7981
  0
LINE
  8
0
 10
20.2019
 20
9.7981
 11
20.5215
 21
10.0784
  0
LINE
  8
0
 10
20.5215
 20
10.0784
 11
20.875
 21
10.3146
  0
LINE
  8
0
 10
20.875
 20
10.3146
 11
21.2563
 21
10.5026
  0
LINE
  8
0
 10
21.2563
 20
10.5026
 11
21.6588
 21
10.6393
  0
LINE
  8
0
 10
21.6588
 20
10.6393
 11
22.0758
 21
10.7222
  0
LINE
  8
0
 10
22.0758
 20
10.7222
 11
22.5
 21
10.75
  0
LINE
  8
0
 10
22.5
 20
10.75
 11
22.9242
 21
10.7222
  0
LINE
  8
0
 10
22.9242
 20
10.7222
 11
23.3412
 21
10.6393
  0
LINE
  8
0
 10
23.3412
 20
10.6393
 11
23.7437
 21
10.5026
  0
LINE
  8
0
 10
23.7437
 20
10.5026
 11
24.125
 21
10.3146
  0
LINE
  8
0
 10
24.125
 20
10.3146
 11
24.4785
 21
10.0784
  0
LINE
  8
0
 10
24.4785
 20
10.0784
 11
24.7981
 21
9.7981
  0
LINE
  8
0
 10
24.7981
 20
9.7981
 11
25.0784
 21
9.47847
  0
LINE
  8
0
 10
25.0784
 20
9.47847
 11
25.3146
 21
9.125
  0
LINE
  8
0
 10
25.3146
 20
9.125
 11
25.5026
 21
8.74371
  0
LINE
  8
0
 10
25.5026
 20
8.74371
 11
25.6393
 21
8.34116
  0
LINE
  8
0
 10
25.6393
 20
8.34116
 11
25.7222
 21
7.92421
  0
LINE
  8
0
 10
25.7222
 20
7.92421
 11
25.75
 21
7.5
  0
LINE
  8
0
 10
25.75
 20
7.5
 11
25.7222
 21
7.07578
  0
LINE
  8
0
 10
25.7222
 20
7.07578
 11
25.6393
 21
6.65883
  0
LINE
  8
0
 10
25.6393
 20
6.65883
 11
25.5026
 21
6.25627
  0
LINE
  8
0
 10
25.5026
 20
6.25627
 11
25.3146
 21
5.875
  0
LINE
  8
0
 10
25.3146
 20
5.875
 11
25.0784
 21
5.52151
  0
LINE
  8
0
 10
25.0784
 20
5.52151
 11
24.7981
 21
5.20189
  0
LINE
  8
0
 10
24.7981
 20
5.20189
 11
24.4785
 21
4.9216
  0
LINE
  8
0
 10
24.4785
 20
4.9216
 11
24.125
 21
4.68541
  0
LINE
  8
0
 10
24.125
 20
4.68541
 11
23.7437
 21
4.49739
  0
LINE
  8
0
 10
23.7437
 20
4.49739
 11
23.3412
 21
4.36073
  0
LINE
  8
0
 10
23.3412
 20
4.36073
 11
22.9242
 21
4.2778
  0
LINE
  8
0
 10
22.9242
 20
4.2778
 11
22.5
 21
4.25
  0
LINE
  8
0
 10
22.5
 20
4.25
 11
22.0758
 21
4.2778
  0
LINE
  8
0
 10
142.076
 20
4.2778
 11
141.659
 21
4.36073
  0
LINE
  8
0
 10
141.659
 20
4.36073
 11
141.256
 21
4.49739
  0
LINE
  8
0
 10
141.256
 20
4.49739
 11
140.875
 21
4.68541
  0
LINE
  8
0
 10
140.875
 20
4.68541
 11
140.522
 21
4.9216
  0
LINE
  8
0
 10
140.522
 20
4.9216
 11
140.202
 21
5.20189
  0
LINE
  8
0
 10
140.202
 20
5.20189
 11
139.922
 21
5.52151
  0
LINE
  8
0
 10
139.922
 20
5.52151
 11
139.685
 21
5.875
  0
LINE
  8
0
 10
139.685
 20
5.875
 11
139.497
 21
6.25627
  0
LINE
  8
0
 10
139.497
 20
6.25627
 11
139.361
 21
6.65883
  0
LINE
  8
0
 10
139.361
 20
6.65883
 11
139.278
 21
7.07578
  0
LINE
  8
0
 10
139.278
 20
7.07578
 11
139.25
 21
7.5
  0
LINE
  8
0
 10
139.25
 20
7.5
 11
139.278
 21
7.92421
  0
LINE
  8
0
 10
139.278
 20
7.92421
 11
139.361
 21
8.34116
  0
LINE
  8
0
 10
139.361
 20
8.34116
 11
139.497
 21
8.74371
  0
LINE
  8
0
 10
139.497
 20
8.74371
 11
139.685
 21
9.125
  0
LINE
  8
0
 10
139.685
 20
9.125
 11
139.922
 21
9.47847
  0
LINE
  8
0
 10
139.922
 20
9.47847
 11
140.202
 21
9.7981
  0
LINE
  8
0
 10
140.202
 20
9.7981
 11
140.522
 21
10.0784
  0
LINE
  8
0
 10
140.522
 20
10.0784
 11
140.875
 21
10.3146
  0
LINE
  8
0
 10
140.875
 20
10.3146
 11
141.256
 21
10.5026
  0
LINE
  8
0
 10
141.256
 20
10.5026
 11
141.659
 21
10.6393
  0
LINE
  8
0
 10
141.659
 20
10.6393
 11
142.076
 21
10.7222
  0
LINE
  8
0
 10
142.076
 20
10.7222
 11
142.5
 21
10.75
  0
LINE
  8
0
 10
142.5
 20
10.75
 11
142.924
 21
10.7222
  0
LINE
  8
0
 10
142.924
 20
10.7222
 11
143.341
 21
10.6393
  0
LINE
  8
0
 10
143.341
 20
10.6393
 11
143.744
 21
10.5026
  0
LINE
  8
0
 10
143.744
 20
10.5026
 11
144.125
 21
10.3146
  0
LINE
  8
0
 10
144.125
 20
10.3146
 11
144.478
 21
10.0784
  0
LINE
  8
0
 10
144.478
 20
10.0784
 11
144.798
 21
9.7981
  0
LINE
  8
0
 10
144.798
 20
9.7981
 11
145.078
 21
9.47847
  0
LINE
  8
0
 10
145.078
 20
9.47847
 11
145.315
 21
9.125
  0
LINE
  8
0
 10
145.315
 20
9.125
 11
145.503
 21
8.74371
  0
LINE
  8
0
 10
145.503
 20
8.74371
 11
145.639
 21
8.34116
  0
LINE
  8
0
 10
145.639
 20
8.34116
 11
145.722
 21
7.92421
  0
LINE
  8
0
 10
145.722
 20
7.92421
 11
145.75
 21
7.5
  0
LINE
  8
0
 10
145.75
 20
7.5
 11
145.722
 21
7.07578
  0
LINE
  8
0
 10
145.722
 20
7.07578
 11
145.639
 21
6.65883
  0
LINE
  8
0
 10
145.639
 20
6.65883
 11
145.503
 21
6.25627
  0
LINE
  8
0
 10
145.503
 20
6.25627
 11
145.315
 21
5.875
  0
LINE
  8
0
 10
145.315
 20
5.875
 11
145.078
 21
5.52151
  0
LINE
  8
0
 10
145.078
 20
5.52151
 11
144.798
 21
5.20189
  0
LINE
  8
0
 10
144.798
 20
5.20189
 11
144.478
 21
4.9216
  0
LINE
  8
0
 10
144.478
 20
4.9216
 11
144.125
 21
4.68541
  0
LINE
  8
0
 10
144.125
 20
4.68541
 11
143.744
 21
4.49739
  0
LINE
  8
0
 10
143.744
 20
4.49739
 11
143.341
 21
4.36073
  0
LINE
  8
0
 10
143.341
 20
4.36073
 11
142.924
 21
4.2778
  0
LINE
  8
0
 10
142.924
 20
4.2778
 11
142.5
 21
4.25
  0
LINE
  8
0
 10
142.5
 20
4.25
 11
142.076
 21
4.2778
  0
LINE
  8
0
 10
157.076
 20
4.2778
 11
156.659
 21
4.36073
  0
LINE
  8
0
 10
156.659
 20
4.36073
 11
156.256
 21
4.49739
  0
LINE
  8
0
 10
156.256
 20
4.49739
 11
155.875
 21
4.68541
  0
LINE
  8
0
 10
155.875
 20
4.68541
 11
155.522
 21
4.9216
  0
LINE
  8
0
 10
155.522
 20
4.9216
 11
155.202
 21
5.20189
  0
LINE
  8
0
 10
155.202
 20
5.20189
 11
154.922
 21
5.52151
  0
LINE
  8
0
 10
154.922
 20
5.52151
 11
154.685
 21
5.875
  0
LINE
  8
0
 10
154.685
 20
5.875
 11
154.497
 21
6.25627
  0
LINE
  8
0
 10
154.497
 20
6.25627
 11
154.361
 21
6.65883
  0
LINE
  8
0
 10
154.361
 20
6.65883
 11
154.278
 21
7.07578
  0
LINE
  8
0
 10
154.278
 20
7.07578
 11
154.25
 21
7.5
  0
LINE
  8
0
 10
154.25
 20
7.5
 11
154.278
 21
7.92421
  0
LINE
  8
0
 10
154.278
 20
7.92421
 11
154.361
 21
8.34116
  0
LINE
  8
0
 10
154.361
 20
8.34116
 11
154.497
 21
8.74371
  0
LINE
  8
0
 10
154.497
 20
8.74371
 11
154.685
 21
9.125
  0
LINE
  8
0
 10
154.685
 20
9.125
 11
154.922
 21
9.47847
  0
LINE
  8
0
 10
154.922
 20
9.47847
 11
155.202
 21
9.7981
  0
LINE
  8
0
 10
155.202
 20
9.7981
 11
155.522
 21
10.0784
  0
LINE
  8
0
 10
155.522
 20
10.0784
 11
155.875
 21
10.3146
  0
LINE
  8
0
 10
155.875
 20
10.3146
 11
156.256
 21
10.5026
  0
LINE
  8
0
 10
156.256
 20
10.5026
 11
156.659
 21
10.6393
  0
LINE
  8
0
 10
156.659
 20
10.6393
 11
157.076
 21
10.7222
  0
LINE
  8
0
 10
157.076
 20
10.7222
 11
157.5
 21
10.75
  0
LINE
  8
0
 10
157.5
 20
10.75
 11
157.924
 21
10.7222
  0
LINE
  8
0
 10
157.924
 20
10.7222
 11
158.341
 21
10.6393
  0
LINE
  8
0
 10
158.341
 20
10.6393
 11
158.744
 21
10.5026
  0
LINE
  8
0
 10
158.744
 20
10.5026
 11
159.125
 21
10.3146
  0
LINE
  8
0
 10
159.125
 20
10.3146
 11
159.478
 21
10.0784
  0
LINE
  8
0
 10
159.478
 20
10.0784
 11
159.798
 21
9.7981
  0
LINE
  8
0
 10
159.798
 20
9.7981
 11
160.078
 21
9.47847
  0
LINE
  8
0
 10
160.078
 20
9.47847
 11
160.315
 21
9.125
  0
LINE
  8
0
 10
160.315
 20
9.125
 11
160.503
 21
8.74371
  0
LINE
  8
0
 10
160.503
 20
8.74371
 11
160.639
 21
8.34116
  0
LINE
  8
0
 10
160.639
 20
8.34116
 11
160.722
 21
7.92421
  0
LINE
  8
0
 10
160.722
 20
7.92421
 11
160.75
 21
7.5
  0
LINE
  8
0
 10
160.75
 20
7.5
 11
160.722
 21
7.07578
  0
LINE
  8
0
 10
160.722
 20
7.07578
 11
160.639
 21
6.65883
  0
LINE
  8
0
 10
160.639
 20
6.65883
 11
160.503
 21
6.25627
  0
LINE
  8
0
 10
160.503
 20
6.25627
 11
160.315
 21
5.875
  0
LINE
  8
0
 10
160.315
 20
5.875
 11
160.078
 21
5.52151
  0
LINE
  8
0
 10
160.078
 20
5.52151
 11
159.798
 21
5.20189
  0
LINE
  8
0
 10
159.798
 20
5.20189
 11
159.478
 21
4.9216
  0
LINE
  8
0
 10
159.478
 20
4.9216
 11
159.125
 21
4.68541
  0
LINE
  8
0
 10
159.125
 20
4.68541
 11
158.744
 21
4.49739
  0
LINE
  8
0
 10
158.744
 20
4.49739
 11
158.341
 21
4.36073
  0
LINE
  8
0
 10
158.341
 20
4.36073
 11
157.924
 21
4.2778
  0
LINE
  8
0
 10
157.924
 20
4.2778
 11
157.5
 21
4.25
  0
LINE
  8
0
 10
157.5
 20
4.25
 11
157.076
 21
4.2778
  0
LINE
  8
0
 10
67.0758
 20
4.2778
 11
66.6588
 21
4.36073
  0
LINE
  8
0
 10
66.6588
 20
4.36073
 11
66.2563
 21
4.49739
  0
LINE
  8
0
 10
66.2563
 20
4.49739
 11
65.875
 21
4.68541
  0
LINE
  8
0
 10
65.875
 20
4.68541
 11
65.5215
 21
4.9216
  0
LINE
  8
0
 10
65.5215
 20
4.9216
 11
65.2019
 21
5.20189
  0
LINE
  8
0
 10
65.2019
 20
5.20189
 11
64.9216
 21
5.52151
  0
LINE
  8
0
 10
64.9216
 20
5.52151
 11
64.6854
 21
5.875
  0
LINE
  8
0
 10
64.6854
 20
5.875
 11
64.4974
 21
6.25627
  0
LINE
  8
0
 10
64.4974
 20
6.25627
 11
64.3607
 21
6.65883
  0
LINE
  8
0
 10
64.3607
 20
6.65883
 11
64.2778
 21
7.07578
  0
LINE
  8
0
 10
64.2778
 20
7.07578
 11
64.25
 21
7.5
  0
LINE
  8
0
 10
64.25
 20
7.5
 11
64.2778
 21
7.92421
  0
LINE
  8
0
 10
64.2778
 20
7.92421
 11
64.3607
 21
8.34116
  0
LINE
  8
0
 10
64.3607
 20
8.34116
 11
64.4974
 21
8.74371
  0
LINE
  8
0
 10
64.4974
 20
8.74371
 11
64.6854
 21
9.125
  0
LINE
  8
0
 10
64.6854
 20
9.125
 11
64.9216
 21
9.47847
  0
LINE
  8
0
 10
64.9216
 20
9.47847
 11
65.2019
 21
9.7981
  0
LINE
  8
0
 10
65.2019
 20
9.7981
 11
65.5215
 21
10.0784
  0
LINE
  8
0
 10
65.5215
 20
10.0784
 11
65.875
 21
10.3146
  0
LINE
  8
0
 10
65.875
 20
10.3146
 11
66.2563
 21
10.5026
  0
LINE
  8
0
 10
66.2563
 20
10.5026
 11
66.6588
 21
10.6393
  0
LINE
  8
0
 10
66.6588
 20
10.6393
 11
67.0758
 21
10.7222
  0
LINE
  8
0
 10
67.0758
 20
10.7222
 11
67.5
 21
10.75
  0
LINE
  8
0
 10
67.5
 20
10.75
 11
67.9242
 21
10.7222
  0
LINE
  8
0
 10
67.9242
 20
10.7222
 11
68.3412
 21
10.6393
  0
LINE
  8
0
 10
68.3412
 20
10.6393
 11
68.7437
 21
10.5026
  0
LINE
  8
0
 10
68.7437
 20
10.5026
 11
69.125
 21
10.3146
  0
LINE
  8
0
 10
69.125
 20
10.3146
 11
69.4785
 21
10.0784
  0
LINE
  8
0
 10
69.4785
 20
10.0784
 11
69.7981
 21
9.7981
  0
LINE
  8
0
 10
69.7981
 20
9.7981
 11
70.0784
 21
9.47847
  0
LINE
  8
0
 10
70.0784
 20
9.47847
 11
70.3146
 21
9.125
  0
LINE
  8
0
 10
70.3146
 20
9.125
 11
70.5026
 21
8.74371
  0
LINE
  8
0
 10
70.5026
 20
8.74371
 11
70.6393
 21
8.34116
  0
LINE
  8
0
 10
70.6393
 20
8.34116
 11
70.7222
 21
7.92421
  0
LINE
  8
0
 10
70.7222
 20
7.92421
 11
70.75
 21
7.5
  0
LINE
  8
0
 10
70.75
 20
7.5
 11
70.7222
 21
7.07578
  0
LINE
  8
0
 10
70.7222
 20
7.07578
 11
70.6393
 21
6.65883
  0
LINE
  8
0
 10
70.6393
 20
6.65883
 11
70.5026
 21
6.25627
  0
LINE
  8
0
 10
70.5026
 20
6.25627
 11
70.3146
 21
5.875
  0
LINE
  8
0
 10
70.3146
 20
5.875
 11
70.0784
 21
5.52151
  0
LINE
  8
0
 10
70.0784
 20
5.52151
 11
69.7981
 21
5.20189
  0
LINE
  8
0
 10
69.7981
 20
5.20189
 11
69.4785
 21
4.9216
  0
LINE
  8
0
 10
69.4785
 20
4.9216
 11
69.125
 21
4.68541
  0
LINE
  8
0
 10
69.125
 20
4.68541
 11
68.7437
 21
4.49739
  0
LINE
  8
0
 10
68.7437
 20
4.49739
 11
68.3412
 21
4.36073
  0
LINE
  8
0
 10
68.3412
 20
4.36073
 11
67.9242
 21
4.2778
  0
LINE
  8
0
 10
67.9242
 20
4.2778
 11
67.5
 21
4.25
  0
LINE
  8
0
 10
67.5
 20
4.25
 11
67.0758
 21
4.2778
  0
LINE
  8
0
 10
37.0758
 20
4.2778
 11
36.6588
 21
4.36073
  0
LINE
  8
0
 10
36.6588
 20
4.36073
 11
36.2563
 21
4.49739
  0
LINE
  8
0
 10
36.2563
 20
4.49739
 11
35.875
 21
4.68541
  0
LINE
  8
0
 10
35.875
 20
4.68541
 11
35.5215
 21
4.9216
  0
LINE
  8
0
 10
35.5215
 20
4.9216
 11
35.2019
 21
5.20189
  0
LINE
  8
0
 10
35.2019
 20
5.20189
 11
34.9216
 21
5.52151
  0
LINE
  8
0
 10
34.9216
 20
5.52151
 11
34.6854
 21
5.875
  0
LINE
  8
0
 10
34.6854
 20
5.875
 11
34.4974
 21
6.25627
  0
LINE
  8
0
 10
34.4974
 20
6.25627
 11
34.3607
 21
6.65883
  0
LINE
  8
0
 10
34.3607
 20
6.65883
 11
34.2778
 21
7.07578
  0
LINE
  8
0
 10
34.2778
 20
7.07578
 11
34.25
 21
7.5
  0
LINE
  8
0
 10
34.25
 20
7.5
 11
34.2778
 21
7.92421
  0
LINE
  8
0
 10
34.2778
 20
7.92421
 11
34.3607
 21
8.34116
  0
LINE
  8
0
 10
34.3607
 20
8.34116
 11
34.4974
 21
8.74371
  0
LINE
  8
0
 10
34.4974
 20
8.74371
 11
34.6854
 21
9.125
  0
LINE
  8
0
 10
34.6854
 20
9.125
 11
34.9216
 21
9.47847
  0
LINE
  8
0
 10
34.9216
 20
9.47847
 11
35.2019
 21
9.7981
  0
LINE
  8
0
 10
35.2019
 20
9.7981
 11
35.5215
 21
10.0784
  0
LINE
  8
0
 10
35.5215
 20
10.0784
 11
35.875
 21
10.3146
  0
LINE
  8
0
 10
35.875
 20
10.3146
 11
36.2563
 21
10.5026
  0
LINE
  8
0
 10
36.2563
 20
10.5026
 11
36.6588
 21
10.6393
  0
LINE
  8
0
 10
36.6588
 20
10.6393
 11
37.0758
 21
10.7222
  0
LINE
  8
0
 10
37.0758
 20
10.7222
 11
37.5
 21
10.75
  0
LINE
  8
0
 10
37.5
 20
10.75
 11
37.9242
 21
10.7222
  0
LINE
  8
0
 10
37.9242
 20
10.7222
 11
38.3412
 21
10.6393
  0
LINE
  8
0
 10
38.3412
 20
10.6393
 11
38.7437
 21
10.5026
  0
LINE
  8
0
 10
38.7437
 20
10.5026
 11
39.125
 21
10.3146
  0
LINE
  8
0
 10
39.125
 20
10.3146
 11
39.4785
 21
10.0784
  0
LINE
  8
0
 10
39.4785
 20
10.0784
 11
39.7981
 21
9.7981
  0
LINE
  8
0
 10
39.7981
 20
9.7981
 11
40.0784
 21
9.47847
  0
LINE
  8
0
 10
40.0784
 20
9.47847
 11
40.3146
 21
9.125
  0
LINE
  8
0
 10
40.3146
 20
9.125
 11
40.5026
 21
8.74371
  0
LINE
  8
0
 10
40.5026
 20
8.74371
 11
40.6393
 21
8.34116
  0
LINE
  8
0
 10
40.6393
 20
8.34116
 11
40.7222
 21
7.92421
  0
LINE
  8
0
 10
40.7222
 20
7.92421
 11
40.75
 21
7.5
  0
LINE
  8
0
 10
40.75
 20
7.5
 11
40.7222
 21
7.07578
  0
LINE
  8
0
 10
40.7222
 20
7.07578
 11
40.6393
 21
6.65883
  0
LINE
  8
0
 10
40.6393
 20
6.65883
 11
40.5026
 21
6.25627
  0
LINE
  8
0
 10
40.5026
 20
6.25627
 11
40.3146
 21
5.875
  0
LINE
  8
0
 10
40.3146
 20
5.875
 11
40.0784
 21
5.52151
  0
LINE
  8
0
 10
40.0784
 20
5.52151
 11
39.7981
 21
5.20189
  0
LINE
  8
0
 10
39.7981
 20
5.20189
 11
39.4785
 21
4.9216
  0
LINE
  8
0
 10
39.4785
 20
4.9216
 11
39.125
 21
4.68541
  0
LINE
  8
0
 10
39.125
 20
4.68541
 11
38.7437
 21
4.49739
  0
LINE
  8
0
 10
38.7437
 20
4.49739
 11
38.3412
 21
4.36073
  0
LINE
  8
0
 10
38.3412
 20
4.36073
 11
37.9242
 21
4.2778
  0
LINE
  8
0
 10
37.9242
 20
4.2778
 11
37.5
 21
4.25
  0
LINE
  8
0
 10
37.5
 20
4.25
 11
37.0758
 21
4.2778
  0
LINE
  8
0
 10
52.0758
 20
4.2778
 11
51.6588
 21
4.36073
  0
LINE
  8
0
 10
51.6588
 20
4.36073
 11
51.2563
 21
4.49739
  0
LINE
  8
0
 10
51.2563
 20
4.49739
 11
50.875
 21
4.68541
  0
LINE
  8
0
 10
50.875
 20
4.68541
 11
50.5215
 21
4.9216
  0
LINE
  8
0
 10
50.5215
 20
4.9216
 11
50.2019
 21
5.20189
  0
LINE
  8
0
 10
50.2019
 20
5.20189
 11
49.9216
 21
5.52151
  0
LINE
  8
0
 10
49.9216
 20
5.52151
 11
49.6854
 21
5.875
  0
LINE
  8
0
 10
49.6854
 20
5.875
 11
49.4974
 21
6.25627
  0
LINE
  8
0
 10
49.4974
 20
6.25627
 11
49.3607
 21
6.65883
  0
LINE
  8
0
 10
49.3607
 20
6.65883
 11
49.2778
 21
7.07578
  0
LINE
  8
0
 10
49.2778
 20
7.07578
 11
49.25
 21
7.5
  0
LINE
  8
0
 10
49.25
 20
7.5
 11
49.2778
 21
7.92421
  0
LINE
  8
0
 10
49.2778
 20
7.92421
 11
49.3607
 21
8.34116
  0
LINE
  8
0
 10
49.3607
 20
8.34116
 11
49.4974
 21
8.74371
  0
LINE
  8
0
 10
49.4974
 20
8.74371
 11
49.6854
 21
9.125
  0
LINE
  8
0
 10
49.6854
 20
9.125
 11
49.9216
 21
9.47847
  0
LINE
  8
0
 10
49.9216
 20
9.47847
 11
50.2019
 21
9.7981
  0
LINE
  8
0
 10
50.2019
 20
9.7981
 11
50.5215
 21
10.0784
  0
LINE
  8
0
 10
50.5215
 20
10.0784
 11
50.875
 21
10.3146
  0
LINE
  8
0
 10
50.875
 20
10.3146
 11
51.2563
 21
10.5026
  0
LINE
  8
0
 10
51.2563
 20
10.5026
 11
51.6588
 21
10.6393
  0
LINE
  8
0
 10
51.6588
 20
10.6393
 11
52.0758
 21
10.7222
  0
LINE
  8
0
 10
52.0758
 20
10.7222
 11
52.5
 21
10.75
  0
LINE
  8
0
 10
52.5
 20
10.75
 11
52.9242
 21
10.7222
  0
LINE
  8
0
 10
52.9242
 20
10.7222
 11
53.3412
 21
10.6393
  0
LINE
  8
0
 10
53.3412
 20
10.6393
 11
53.7437
 21
10.5026
  0
LINE
  8
0
 10
53.7437
 20
10.5026
 11
54.125
 21
10.3146
  0
LINE
  8
0
 10
54.125
 20
10.3146
 11
54.4785
 21
10.0784
  0
LINE
  8
0
 10
54.4785
 20
10.0784
 11
54.7981
 21
9.7981
  0
LINE
  8
0
 10
54.7981
 20
9.7981
 11
55.0784
 21
9.47847
  0
LINE
  8
0
 10
55.0784
 20
9.47847
 11
55.3146
 21
9.125
  0
LINE
  8
0
 10
55.3146
 20
9.125
 11
55.5026
 21
8.74371
  0
LINE
  8
0
 10
55.5026
 20
8.74371
 11
55.6393
 21
8.34116
  0
LINE
  8
0
 10
55.6393
 20
8.34116
 11
55.7222
 21
7.92421
  0
LINE
  8
0
 10
55.7222
 20
7.92421
 11
55.75
 21
7.5
  0
LINE
  8
0
 10
55.75
 20
7.5
 11
55.7222
 21
7.07578
  0
LINE
  8
0
 10
55.7222
 20
7.07578
 11
55.6393
 21
6.65883
  0
LINE
  8
0
 10
55.6393
 20
6.65883
 11
55.5026
 21
6.25627
  0
LINE
  8
0
 10
55.5026
 20
6.25627
 11
55.3146
 21
5.875
  0
LINE
  8
0
 10
55.3146
 20
5.875
 11
55.0784
 21
5.52151
  0
LINE
  8
0
 10
55.0784
 20
5.52151
 11
54.7981
 21
5.20189
  0
LINE
  8
0
 10
54.7981
 20
5.20189
 11
54.4785
 21
4.9216
  0
LINE
  8
0
 10
54.4785
 20
4.9216
 11
54.125
 21
4.68541
  0
LINE
  8
0
 10
54.125
 20
4.68541
 11
53.7437
 21
4.49739
  0
LINE
  8
0
 10
53.7437
 20
4.49739
 11
53.3412
 21
4.36073
  0
LINE
  8
0
 10
53.3412
 20
4.36073
 11
52.9242
 21
4.2778
  0
LINE
  8
0
 10
52.9242
 20
4.2778
 11
52.5
 21
4.25
  0
LINE
  8
0
 10
52.5
 20
4.25
 11
52.0758
 21
4.2778
  0
LINE
  8
0
 10
82.0758
 20
4.2778
 11
81.6588
 21
4.36073
  0
LINE
  8
0
 10
81.6588
 20
4.36073
 11
81.2563
 21
4.49739
  0
LINE
  8
0
 10
81.2563
 20
4.49739
 11
80.875
 21
4.68541
  0
LINE
  8
0
 10
80.875
 20
4.68541
 11
80.5215
 21
4.9216
  0
LINE
  8
0
 10
80.5215
 20
4.9216
 11
80.2019
 21
5.20189
  0
LINE
  8
0
 10
80.2019
 20
5.20189
 11
79.9216
 21
5.52151
  0
LINE
  8
0
 10
79.9216
 20
5.52151
 11
79.6854
 21
5.875
  0
LINE
  8
0
 10
79.6854
 20
5.875
 11
79.4974
 21
6.25627
  0
LINE
  8
0
 10
79.4974
 20
6.25627
 11
79.3607
 21
6.65883
  0
LINE
  8
0
 10
79.3607
 20
6.65883
 11
79.2778
 21
7.07578
  0
LINE
  8
0
 10
79.2778
 20
7.07578
 11
79.25
 21
7.5
  0
LINE
  8
0
 10
79.25
 20
7.5
 11
79.2778
 21
7.92421
  0
LINE
  8
0
 10
79.2778
 20
7.92421
 11
79.3607
 21
8.34116
  0
LINE
  8
0
 10
79.3607
 20
8.34116
 11
79.4974
 21
8.74371
  0
LINE
  8
0
 10
79.4974
 20
8.74371
 11
79.6854
 21
9.125
  0
LINE
  8
0
 10
79.6854
 20
9.125
 11
79.9216
 21
9.47847
  0
LINE
  8
0
 10
79.9216
 20
9.47847
 11
80.2019
 21
9.7981
  0
LINE
  8
0
 10
80.2019
 20
9.7981
 11
80.5215
 21
10.0784
  0
LINE
  8
0
 10
80.5215
 20
10.0784
 11
80.875
 21
10.3146
  0
LINE
  8
0
 10
80.875
 20
10.3146
 11
81.2563
 21
10.5026
  0
LINE
  8
0
 10
81.2563
 20
10.5026
 11
81.6588
 21
10.6393
  0
LINE
  8
0
 10
81.6588
 20
10.6393
 11
82.0758
 21
10.7222
  0
LINE
  8
0
 10
82.0758
 20
10.7222
 11
82.5
 21
10.75
  0
LINE
  8
0
 10
82.5
 20
10.75
 11
82.9242
 21
10.7222
  0
LINE
  8
0
 10
82.9242
 20
10.7222
 11
83.3412
 21
10.6393
  0
LINE
  8
0
 10
83.3412
 20
10.6393
 11
83.7437
 21
10.5026
  0
LINE
  8
0
 10
83.7437
 20
10.5026
 11
84.125
 21
10.3146
  0
LINE
  8
0
 10
84.125
 20
10.3146
 11
84.4785
 21
10.0784
  0
LINE
  8
0
 10
84.4785
 20
10.0784
 11
84.7981
 21
9.7981
  0
LINE
  8
0
 10
84.7981
 20
9.7981
 11
85.0784
 21
9.47847
  0
LINE
  8
0
 10
85.0784
 20
9.47847
 11
85.3146
 21
9.125
  0
LINE
  8
0
 10
85.3146
 20
9.125
 11
85.5026
 21
8.74371
  0
LINE
  8
0
 10
85.5026
 20
8.74371
 11
85.6393
 21
8.34116
  0
LINE
  8
0
 10
85.6393
 20
8.34116
 11
85.7222
 21
7.92421
  0
LINE
  8
0
 10
85.7222
 20
7.92421
 11
85.75
 21
7.5
  0
LINE
  8
0
 10
85.75
 20
7.5
 11
85.7222
 21
7.07578
  0
LINE
  8
0
 10
85.7222
 20
7.07578
 11
85.6393
 21
6.65883
  0
LINE
  8
0
 10
85.6393
 20
6.65883
 11
85.5026
 21
6.25627
  0
LINE
  8
0
 10
85.5026
 20
6.25627
 11
85.3146
 21
5.875
  0
LINE
  8
0
 10
85.3146
 20
5.875
 11
85.0784
 21
5.52151
  0
LINE
  8
0
 10
85.0784
 20
5.52151
 11
84.7981
 21
5.20189
  0
LINE
  8
0
 10
84.7981
 20
5.20189
 11
84.4785
 21
4.9216
  0
LINE
  8
0
 10
84.4785
 20
4.9216
 11
84.125
 21
4.68541
  0
LINE
  8
0
 10
84.125
 20
4.68541
 11
83.7437
 21
4.49739
  0
LINE
  8
0
 10
83.7437
 20
4.49739
 11
83.3412
 21
4.36073
  0
LINE
  8
0
 10
83.3412
 20
4.36073
 11
82.9242
 21
4.2778
  0
LINE
  8
0
 10
82.9242
 20
4.2778
 11
82.5
 21
4.25
  0
LINE
  8
0
 10
82.5
 20
4.25
 11
82.0758
 21
4.2778
  0
LINE
  8
0
 10
97.0758
 20
4.2778
 11
96.6588
 21
4.36073
  0
LINE
  8
0
 10
96.6588
 20
4.36073
 11
96.2563
 21
4.49739
  0
LINE
  8
0
 10
96.2563
 20
4.49739
 11
95.875
 21
4.68541
  0
LINE
  8
0
 10
95.875
 20
4.68541
 11
95.5215
 21
4.9216
  0
LINE
  8
0
 10
95.5215
 20
4.9216
 11
95.2019
 21
5.20189
  0
LINE
  8
0
 10
95.2019
 20
5.20189
 11
94.9216
 21
5.52151
  0
LINE
  8
0
 10
94.9216
 20
5.52151
 11
94.6854
 21
5.875
  0
LINE
  8
0
 10
94.6854
 20
5.875
 11
94.4974
 21
6.25627
  0
LINE
  8
0
 10
94.4974
 20
6.25627
 11
94.3607
 21
6.65883
  0
LINE
  8
0
 10
94.3607
 20
6.65883
 11
94.2778
 21
7.07578
  0
LINE
  8
0
 10
94.2778
 20
7.07578
 11
94.25
 21
7.5
  0
LINE
  8
0
 10
94.25
 20
7.5
 11
94.2778
 21
7.92421
  0
LINE
  8
0
 10
94.2778
 20
7.92421
 11
94.3607
 21
8.34116
  0
LINE
  8
0
 10
94.3607
 20
8.34116
 11
94.4974
 21
8.74371
  0
LINE
  8
0
 10
94.4974
 20
8.74371
 11
94.6854
 21
9.125
  0
LINE
  8
0
 10
94.6854
 20
9.125
 11
94.9216
 21
9.47847
  0
LINE
  8
0
 10
94.9216
 20
9.47847
 11
95.2019
 21
9.7981
  0
LINE
  8
0
 10
95.2019
 20
9.7981
 11
95.5215
 21
10.0784
  0
LINE
  8
0
 10
95.5215
 20
10.0784
 11
95.875
 21
10.3146
  0
LINE
  8
0
 10
95.875
 20
10.3146
 11
96.2563
 21
10.5026
  0
LINE
  8
0
 10
96.2563
 20
10.5026
 11
96.6588
 21
10.6393
  0
LINE
  8
0
 10
96.6588
 20
10.6393
 11
97.0758
 21
10.7222
  0
LINE
  8
0
 10
97.0758
 20
10.7222
 11
97.5
 21
10.75
  0
LINE
  8
0
 10
97.5
 20
10.75
 11
97.9242
 21
10.7222
  0
LINE
  8
0
 10
97.9242
 20
10.7222
 11
98.3412
 21
10.6393
  0
LINE
  8
0
 10
98.3412
 20
10.6393
 11
98.7437
 21
10.5026
  0
LINE
  8
0
 10
98.7437
 20
10.5026
 11
99.125
 21
10.3146
  0
LINE
  8
0
 10
99.125
 20
10.3146
 11
99.4785
 21
10.0784
  0
LINE
  8
0
 10
99.4785
 20
10.0784
 11
99.7981
 21
9.7981
  0
LINE
  8
0
 10
99.7981
 20
9.7981
 11
100.078
 21
9.47847
  0
LINE
  8
0
 10
100.078
 20
9.47847
 11
100.315
 21
9.125
  0
LINE
  8
0
 10
100.315
 20
9.125
 11
100.503
 21
8.74371
  0
LINE
  8
0
 10
100.503
 20
8.74371
 11
100.639
 21
8.34116
  0
LINE
  8
0
 10
100.639
 20
8.34116
 11
100.722
 21
7.92421
  0
LINE
  8
0
 10
100.722
 20
7.92421
 11
100.75
 21
7.5
  0
LINE
  8
0
 10
100.75
 20
7.5
 11
100.722
 21
7.07578
  0
LINE
  8
0
 10
100.722
 20
7.07578
 11
100.639
 21
6.65883
  0
LINE
  8
0
 10
100.639
 20
6.65883
 11
100.503
 21
6.25627
  0
LINE
  8
0
 10
100.503
 20
6.25627
 11
100.315
 21
5.875
  0
LINE
  8
0
 10
100.315
 20
5.875
 11
100.078
 21
5.52151
  0
LINE
  8
0
 10
100.078
 20
5.52151
 11
99.7981
 21
5.20189
  0
LINE
  8
0
 10
99.7981
 20
5.20189
 11
99.4785
 21
4.9216
  0
LINE
  8
0
 10
99.4785
 20
4.9216
 11
99.125
 21
4.68541
  0
LINE
  8
0
 10
99.125
 20
4.68541
 11
98.7437
 21
4.49739
  0
LINE
  8
0
 10
98.7437
 20
4.49739
 11
98.3412
 21
4.36073
  0
LINE
  8
0
 10
98.3412
 20
4.36073
 11
97.9242
 21
4.2778
  0
LINE
  8
0
 10
97.9242
 20
4.2778
 11
97.5
 21
4.25
  0
LINE
  8
0
 10
97.5
 20
4.25
 11
97.0758
 21
4.2778
  0
LINE
  8
0
 10
127.076
 20
4.2778
 11
126.659
 21
4.36073
  0
LINE
  8
0
 10
126.659
 20
4.36073
 11
126.256
 21
4.49739
  0
LINE
  8
0
 10
126.256
 20
4.49739
 11
125.875
 21
4.68541
  0
LINE
  8
0
 10
125.875
 20
4.68541
 11
125.522
 21
4.9216
  0
LINE
  8
0
 10
125.522
 20
4.9216
 11
125.202
 21
5.20189
  0
LINE
  8
0
 10
125.202
 20
5.20189
 11
124.922
 21
5.52151
  0
LINE
  8
0
 10
124.922
 20
5.52151
 11
124.685
 21
5.875
  0
LINE
  8
0
 10
124.685
 20
5.875
 11
124.497
 21
6.25627
  0
LINE
  8
0
 10
124.497
 20
6.25627
 11
124.361
 21
6.65883
  0
LINE
  8
0
 10
124.361
 20
6.65883
 11
124.278
 21
7.07578
  0
LINE
  8
0
 10
124.278
 20
7.07578
 11
124.25
 21
7.5
  0
LINE
  8
0
 10
124.25
 20
7.5
 11
124.278
 21
7.92421
  0
LINE
  8
0
 10
124.278
 20
7.92421
 11
124.361
 21
8.34116
  0
LINE
  8
0
 10
124.361
 20
8.34116
 11
124.497
 21
8.74371
  0
LINE
  8
0
 10
124.497
 20
8.74371
 11
124.685
 21
9.125
  0
LINE
  8
0
 10
124.685
 20
9.125
 11
124.922
 21
9.47847
  0
LINE
  8
0
 10
124.922
 20
9.47847
 11
125.202
 21
9.7981
  0
LINE
  8
0
 10
125.202
 20
9.7981
 11
125.522
 21
10.0784
  0
LINE
  8
0
 10
125.522
 20
10.0784
 11
125.875
 21
10.3146
  0
LINE
  8
0
 10
125.875
 20
10.3146
 11
126.256
 21
10.5026
  0
LINE
  8
0
 10
126.256
 20
10.5026
 11
126.659
 21
10.6393
  0
LINE
  8
0
 10
126.659
 20
10.6393
 11
127.076
 21
10.7222
  0
LINE
  8
0
 10
127.076
 20
10.7222
 11
127.5
 21
10.75
  0
LINE
  8
0
 10
127.5
 20
10.75
 11
127.924
 21
10.7222
  0
LINE
  8
0
 10
127.924
 20
10.7222
 11
128.341
 21
10.6393
  0
LINE
  8
0
 10
128.341
 20
10.6393
 11
128.744
 21
10.5026
  0
LINE
  8
0
 10
128.744
 20
10.5026
 11
129.125
 21
10.3146
  0
LINE
  8
0
 10
129.125
 20
10.3146
 11
129.478
 21
10.0784
  0
LINE
  8
0
 10
129.478
 20
10.0784
 11
129.798
 21
9.7981
  0
LINE
  8
0
 10
129.798
 20
9.7981
 11
130.078
 21
9.47847
  0
LINE
  8
0
 10
130.078
 20
9.47847
 11
130.315
 21
9.125
  0
LINE
  8
0
 10
130.315
 20
9.125
 11
130.503
 21
8.74371
  0
LINE
  8
0
 10
130.503
 20
8.74371
 11
130.639
 21
8.34116
  0
LINE
  8
0
 10
130.639
 20
8.34116
 11
130.722
 21
7.92421
  0
LINE
  8
0
 10
130.722
 20
7.92421
 11
130.75
 21
7.5
  0
LINE
  8
0
 10
130.75
 20
7.5
 11
130.722
 21
7.07578
  0
LINE
  8
0
 10
130.722
 20
7.07578
 11
130.639
 21
6.65883
  0
LINE
  8
0
 10
130.639
 20
6.65883
 11
130.503
 21
6.25627
  0
LINE
  8
0
 10
130.503
 20
6.25627
 11
130.315
 21
5.875
  0
LINE
  8
0
 10
130.315
 20
5.875
 11
130.078
 21
5.52151
  0
LINE
  8
0
 10
130.078
 20
5.52151
 11
129.798
 21
5.20189
  0
LINE
  8
0
 10
129.798
 20
5.20189
 11
129.478
 21
4.9216
  0
LINE
  8
0
 10
129.478
 20
4.9216
 11
129.125
 21
4.68541
  0
LINE
  8
0
 10
129.125
 20
4.68541
 11
128.744
 21
4.49739
  0
LINE
  8
0
 10
128.744
 20
4.49739
 11
128.341
 21
4.36073
  0
LINE
  8
0
 10
128.341
 20
4.36073
 11
127.924
 21
4.2778
  0
LINE
  8
0
 10
127.924
 20
4.2778
 11
127.5
 21
4.25
  0
LINE
  8
0
 10
127.5
 20
4.25
 11
127.076
 21
4.2778
  0
ENDSEC
  0
SECTION
  2
OBJECTS
  0
DICTIONARY
  0
ENDSEC
  0
EOF
