<?xml version="1.0" standalone="no"?>
<!DOCTYPE svg PUBLIC "-//W3C//DTD SVG 1.1//EN" "http://www.w3.org/Graphics/SVG/1.1/DTD/svg11.dtd">
<svg width="162mm" height="162mm" viewBox="-81 -81 162 162" xmlns="http://www.w3.org/2000/svg" version="1.1">
<title>OpenSCAD Model</title>
<path d="
M 15.1779,79.5653 L 25.0304,77.0356 L 34.4881,73.291 L 43.402,68.3905 L 51.6313,62.4116 L 59.0464,55.4483
 L 65.5304,47.6106 L 70.9808,39.022 L 75.3119,29.8181 L 78.4552,20.1439 L 80.3613,10.152 L 81,-0
 L 80.3613,-10.152 L 78.4552,-20.1439 L 75.3119,-29.8181 L 70.9808,-39.022 L 65.5304,-47.6106 L 59.0464,-55.4483
 L 51.6313,-62.4116 L 43.402,-68.3905 L 34.4881,-73.291 L 25.0304,-77.0356 L 15.1779,-79.5653 L 5.08603,-80.8402
 L -5.08603,-80.8402 L -15.1779,-79.5653 L -25.0304,-77.0356 L -34.4881,-73.291 L -43.402,-68.3905 L -51.6313,-62.4116
 L -59.0464,-55.4483 L -65.5304,-47.6106 L -70.9808,-39.022 L -75.3119,-29.8181 L -78.4552,-20.1439 L -80.3613,-10.152
 L -81,-0 L -80.3613,10.152 L -78.4552,20.1439 L -75.3119,29.8181 L -70.9808,39.022 L -65.5304,47.6106
 L -59.0464,55.4483 L -51.6313,62.4116 L -43.402,68.3905 L -34.4881,73.291 L -25.0304,77.0356 L -15.1779,79.5653
 L -5.08603,80.8402 L 5.08603,80.8402 z
" stroke="black" fill="lightgray" stroke-width="0.5"/>
</svg>
