solid OpenSCAD_Model
  facet normal -0 0 -1
    outer loop
      vertex 9.9 30.7456 0
      vertex 9.75947 30.7367 0
      vertex 9.9 30.75 0
    endloop
  endfacet
  facet normal 0 0 -1
    outer loop
      vertex 12.15 30.75 0
      vertex 9.9 30.75 0
      vertex 12.15 36.875 0
    endloop
  endfacet
  facet normal -0 0 -1
    outer loop
      vertex 33.65 14.6899 0
      vertex 33.3315 14.6699 0
      vertex 33.65 14.7 0
    endloop
  endfacet
  facet normal 0 0 -1
    outer loop
      vertex 36.3567 14.6966 0
      vertex 40 20 0
      vertex 36.7753 14.6168 0
    endloop
  endfacet
  facet normal 0 0 -1
    outer loop
      vertex 36.25 14.7 0
      vertex 40 20 0
      vertex 36.3567 14.6966 0
    endloop
  endfacet
  facet normal 0 0 -1
    outer loop
      vertex 36.25 14.7 0
      vertex 36.3567 14.6966 0
      vertex 36.25 14.6899 0
    endloop
  endfacet
  facet normal -0 0 -1
    outer loop
      vertex 40 20 0
      vertex 36.25 14.7 0
      vertex 37.15 23.125 0
    endloop
  endfacet
  facet normal 0 0 -1
    outer loop
      vertex 33.65 14.7 0
      vertex 37.15 23.125 0
      vertex 36.25 14.7 0
    endloop
  endfacet
  facet normal 0 0 -1
    outer loop
      vertex 30 20 0
      vertex 33.65 14.7 0
      vertex 33.3315 14.6699 0
    endloop
  endfacet
  facet normal 0 0 -1
    outer loop
      vertex 30 20 0
      vertex 33.3315 14.6699 0
      vertex 32.9262 14.5382 0
    endloop
  endfacet
  facet normal 0 0 -1
    outer loop
      vertex 30 20 0
      vertex 32.9262 14.5382 0
      vertex 32.5664 14.3099 0
    endloop
  endfacet
  facet normal 0 0 -1
    outer loop
      vertex 30 20 0
      vertex 32.5664 14.3099 0
      vertex 32.2747 13.9992 0
    endloop
  endfacet
  facet normal 0 0 -1
    outer loop
      vertex 30 20 0
      vertex 32.2747 13.9992 0
      vertex 32.0694 13.6258 0
    endloop
  endfacet
  facet normal 0 0 -1
    outer loop
      vertex 30 20 0
      vertex 31.9634 13.2131 0
      vertex 30 9 0
    endloop
  endfacet
  facet normal 0 0 -1
    outer loop
      vertex 31.9634 13.2131 0
      vertex 30 20 0
      vertex 32.0694 13.6258 0
    endloop
  endfacet
  facet normal 0 0 -1
    outer loop
      vertex 33.65 14.7 0
      vertex 30 20 0
      vertex 37.15 23.125 0
    endloop
  endfacet
  facet normal 0 0 -1
    outer loop
      vertex 30 20 0
      vertex 12.15 23.125 0
      vertex 37.15 23.125 0
    endloop
  endfacet
  facet normal 0 0 -1
    outer loop
      vertex 12.15 23.125 0
      vertex 9.9 29.25 0
      vertex 12.15 29.25 0
    endloop
  endfacet
  facet normal 0 0 -1
    outer loop
      vertex 9.9 29.25 0
      vertex 9.75947 29.2633 0
      vertex 9.9 29.2544 0
    endloop
  endfacet
  facet normal 0 0 -1
    outer loop
      vertex 12.15 23.125 0
      vertex 9.75947 29.2633 0
      vertex 9.9 29.25 0
    endloop
  endfacet
  facet normal 0 0 -1
    outer loop
      vertex 12.15 23.125 0
      vertex 9.58068 29.3214 0
      vertex 9.75947 29.2633 0
    endloop
  endfacet
  facet normal 0 0 -1
    outer loop
      vertex 8.15 20 0
      vertex 9.58068 29.3214 0
      vertex 12.15 23.125 0
    endloop
  endfacet
  facet normal -0 0 -1
    outer loop
      vertex 9.58068 29.3214 0
      vertex 8.15 20 0
      vertex 9.42194 29.4221 0
    endloop
  endfacet
  facet normal -0 0 -1
    outer loop
      vertex 9.42194 29.4221 0
      vertex 8.15 20 0
      vertex 9.29325 29.5592 0
    endloop
  endfacet
  facet normal -0 0 -1
    outer loop
      vertex 9.15592 29.906 0
      vertex 8.15 20 0
      vertex 9.15592 30.094 0
    endloop
  endfacet
  facet normal -0 0 -1
    outer loop
      vertex 9.20267 29.7239 0
      vertex 8.15 20 0
      vertex 9.15592 29.906 0
    endloop
  endfacet
  facet normal -0 0 -1
    outer loop
      vertex 9.29325 29.5592 0
      vertex 8.15 20 0
      vertex 9.20267 29.7239 0
    endloop
  endfacet
  facet normal 0 0 -1
    outer loop
      vertex 8.15 20 0
      vertex 12.15 23.125 0
      vertex 30 20 0
    endloop
  endfacet
  facet normal 0 0 -1
    outer loop
      vertex 40 51 0
      vertex 37.8966 46.5772 0
      vertex 37.95 47 0
    endloop
  endfacet
  facet normal 0 0 -1
    outer loop
      vertex 36.25 45.3 0
      vertex 40 40 0
      vertex 37.15 36.875 0
    endloop
  endfacet
  facet normal 0 0 -1
    outer loop
      vertex 40 40 0
      vertex 37.7397 46.181 0
      vertex 37.8966 46.5772 0
    endloop
  endfacet
  facet normal 0 0 -1
    outer loop
      vertex 40 40 0
      vertex 37.4892 45.8363 0
      vertex 37.7397 46.181 0
    endloop
  endfacet
  facet normal 0 0 -1
    outer loop
      vertex 37.15 36.875 0
      vertex 39.4 30.75 0
      vertex 37.15 30.75 0
    endloop
  endfacet
  facet normal 0 0 -1
    outer loop
      vertex 40 40 0
      vertex 37.1609 45.5647 0
      vertex 37.4892 45.8363 0
    endloop
  endfacet
  facet normal 0 0 -1
    outer loop
      vertex 40 40 0
      vertex 36.7753 45.3832 0
      vertex 37.1609 45.5647 0
    endloop
  endfacet
  facet normal 0 0 -1
    outer loop
      vertex 40 40 0
      vertex 36.3567 45.3034 0
      vertex 36.7753 45.3832 0
    endloop
  endfacet
  facet normal 0 0 -1
    outer loop
      vertex 40 40 0
      vertex 36.25 45.3 0
      vertex 36.3567 45.3034 0
    endloop
  endfacet
  facet normal 0 0 -1
    outer loop
      vertex 37.15 36.875 0
      vertex 33.65 45.3 0
      vertex 36.25 45.3 0
    endloop
  endfacet
  facet normal 0 0 -1
    outer loop
      vertex 33.65 45.3 0
      vertex 33.3315 45.3301 0
      vertex 33.65 45.3101 0
    endloop
  endfacet
  facet normal 0 0 -1
    outer loop
      vertex 30 40 0
      vertex 33.65 45.3 0
      vertex 37.15 36.875 0
    endloop
  endfacet
  facet normal -0 0 -1
    outer loop
      vertex 33.65 45.3 0
      vertex 30 40 0
      vertex 33.3315 45.3301 0
    endloop
  endfacet
  facet normal -0 0 -1
    outer loop
      vertex 33.3315 45.3301 0
      vertex 30 40 0
      vertex 32.9262 45.4618 0
    endloop
  endfacet
  facet normal -0 0 -1
    outer loop
      vertex 32.9262 45.4618 0
      vertex 30 40 0
      vertex 32.5664 45.6901 0
    endloop
  endfacet
  facet normal -0 0 -1
    outer loop
      vertex 32.5664 45.6901 0
      vertex 30 40 0
      vertex 32.2747 46.0008 0
    endloop
  endfacet
  facet normal 0 0 -1
    outer loop
      vertex 30 51 0
      vertex 31.9634 46.7869 0
      vertex 30 40 0
    endloop
  endfacet
  facet normal -0 0 -1
    outer loop
      vertex 32.0694 46.3742 0
      vertex 30 40 0
      vertex 31.9634 46.7869 0
    endloop
  endfacet
  facet normal -0 0 -1
    outer loop
      vertex 32.2747 46.0008 0
      vertex 30 40 0
      vertex 32.0694 46.3742 0
    endloop
  endfacet
  facet normal 0 0 -1
    outer loop
      vertex 12.15 36.875 0
      vertex 30 40 0
      vertex 37.15 36.875 0
    endloop
  endfacet
  facet normal 0 0 -1
    outer loop
      vertex 9.75947 30.7367 0
      vertex 12.15 36.875 0
      vertex 9.9 30.75 0
    endloop
  endfacet
  facet normal 0 0 -1
    outer loop
      vertex 9.58068 30.6786 0
      vertex 12.15 36.875 0
      vertex 9.75947 30.7367 0
    endloop
  endfacet
  facet normal 0 0 -1
    outer loop
      vertex 8.15 40 0
      vertex 9.58068 30.6786 0
      vertex 9.42194 30.5779 0
    endloop
  endfacet
  facet normal 0 0 -1
    outer loop
      vertex 8.15 40 0
      vertex 9.42194 30.5779 0
      vertex 9.29325 30.4408 0
    endloop
  endfacet
  facet normal 0 0 -1
    outer loop
      vertex 8.15 40 0
      vertex 9.29325 30.4408 0
      vertex 9.20267 30.2761 0
    endloop
  endfacet
  facet normal 0 0 -1
    outer loop
      vertex 12.15 36.875 0
      vertex 8.15 40 0
      vertex 30 40 0
    endloop
  endfacet
  facet normal 0 0 -1
    outer loop
      vertex 9.58068 30.6786 0
      vertex 8.15 40 0
      vertex 12.15 36.875 0
    endloop
  endfacet
  facet normal 0 0 -1
    outer loop
      vertex 9.15592 30.094 0
      vertex 8.15 40 0
      vertex 9.20267 30.2761 0
    endloop
  endfacet
  facet normal 0 0 -1
    outer loop
      vertex 8.15 40 0
      vertex 9.15592 30.094 0
      vertex 8.15 20 0
    endloop
  endfacet
  facet normal 0 0 -1
    outer loop
      vertex 37.8966 13.4228 0
      vertex 40 20 0
      vertex 40 9 0
    endloop
  endfacet
  facet normal 0 0 -1
    outer loop
      vertex 37.7397 13.819 0
      vertex 40 20 0
      vertex 37.8966 13.4228 0
    endloop
  endfacet
  facet normal 0 -0 -1
    outer loop
      vertex 39.8019 29.3668 0
      vertex 40 20 0
      vertex 37.15 23.125 0
    endloop
  endfacet
  facet normal 0 0 -1
    outer loop
      vertex 40 20 0
      vertex 39.8019 29.3668 0
      vertex 39.9467 29.4866 0
    endloop
  endfacet
  facet normal 0 0 -1
    outer loop
      vertex 39.8019 29.3668 0
      vertex 37.15 23.125 0
      vertex 39.6318 29.2867 0
    endloop
  endfacet
  facet normal 0 0 -1
    outer loop
      vertex 37.8966 13.4228 0
      vertex 40 9 0
      vertex 37.95 13 0
    endloop
  endfacet
  facet normal 0 0 -1
    outer loop
      vertex 40 9 0
      vertex 37.8966 12.5772 0
      vertex 37.95 13 0
    endloop
  endfacet
  facet normal 0 0 -1
    outer loop
      vertex 40 9 0
      vertex 37.7397 12.181 0
      vertex 37.8966 12.5772 0
    endloop
  endfacet
  facet normal 0 0 -1
    outer loop
      vertex 40 9 0
      vertex 37.4892 11.8363 0
      vertex 37.7397 12.181 0
    endloop
  endfacet
  facet normal 0 0 -1
    outer loop
      vertex 40 9 0
      vertex 37.1609 11.5647 0
      vertex 37.4892 11.8363 0
    endloop
  endfacet
  facet normal 0 0 -1
    outer loop
      vertex 40 9 0
      vertex 36.7753 11.3832 0
      vertex 37.1609 11.5647 0
    endloop
  endfacet
  facet normal 0 0 -1
    outer loop
      vertex 40 9 0
      vertex 36.3567 11.3034 0
      vertex 36.7753 11.3832 0
    endloop
  endfacet
  facet normal 0 0 -1
    outer loop
      vertex 40 9 0
      vertex 36.25 11.3 0
      vertex 36.3567 11.3034 0
    endloop
  endfacet
  facet normal 0 0 -1
    outer loop
      vertex 30 9 0
      vertex 36.25 11.3 0
      vertex 40 9 0
    endloop
  endfacet
  facet normal 0 0 -1
    outer loop
      vertex 33.65 11.3 0
      vertex 33.3315 11.3301 0
      vertex 33.65 11.3101 0
    endloop
  endfacet
  facet normal -0 0 -1
    outer loop
      vertex 36.25 11.3 0
      vertex 30 9 0
      vertex 33.65 11.3 0
    endloop
  endfacet
  facet normal -0 0 -1
    outer loop
      vertex 33.65 11.3 0
      vertex 30 9 0
      vertex 33.3315 11.3301 0
    endloop
  endfacet
  facet normal -0 0 -1
    outer loop
      vertex 31.9634 12.7869 0
      vertex 30 9 0
      vertex 31.9634 13.2131 0
    endloop
  endfacet
  facet normal -0 0 -1
    outer loop
      vertex 32.0694 12.3742 0
      vertex 30 9 0
      vertex 31.9634 12.7869 0
    endloop
  endfacet
  facet normal -0 0 -1
    outer loop
      vertex 32.2747 12.0008 0
      vertex 30 9 0
      vertex 32.0694 12.3742 0
    endloop
  endfacet
  facet normal -0 0 -1
    outer loop
      vertex 32.5664 11.6901 0
      vertex 30 9 0
      vertex 32.2747 12.0008 0
    endloop
  endfacet
  facet normal -0 0 -1
    outer loop
      vertex 32.9262 11.4618 0
      vertex 30 9 0
      vertex 32.5664 11.6901 0
    endloop
  endfacet
  facet normal -0 0 -1
    outer loop
      vertex 33.3315 11.3301 0
      vertex 30 9 0
      vertex 32.9262 11.4618 0
    endloop
  endfacet
  facet normal 0 0 -1
    outer loop
      vertex 41.15 20 0
      vertex 40.15 30 0
      vertex 41.15 40 0
    endloop
  endfacet
  facet normal 0 0 -1
    outer loop
      vertex 41.15 20 0
      vertex 40.1264 29.8135 0
      vertex 40.15 30 0
    endloop
  endfacet
  facet normal 0 0 -1
    outer loop
      vertex 41.15 20 0
      vertex 40.0572 29.6387 0
      vertex 40.1264 29.8135 0
    endloop
  endfacet
  facet normal 0 0 -1
    outer loop
      vertex 39.9467 29.4866 0
      vertex 41.15 20 0
      vertex 40 20 0
    endloop
  endfacet
  facet normal 0 0 -1
    outer loop
      vertex 41.15 20 0
      vertex 39.9467 29.4866 0
      vertex 40.0572 29.6387 0
    endloop
  endfacet
  facet normal 0 0 -1
    outer loop
      vertex 40.1264 30.1865 0
      vertex 41.15 40 0
      vertex 40.15 30 0
    endloop
  endfacet
  facet normal 0 0 -1
    outer loop
      vertex 40.0572 30.3613 0
      vertex 41.15 40 0
      vertex 40.1264 30.1865 0
    endloop
  endfacet
  facet normal 0 0 -1
    outer loop
      vertex 39.9467 30.5134 0
      vertex 41.15 40 0
      vertex 40.0572 30.3613 0
    endloop
  endfacet
  facet normal 0 0 -1
    outer loop
      vertex 39.8019 30.6332 0
      vertex 41.15 40 0
      vertex 39.9467 30.5134 0
    endloop
  endfacet
  facet normal 0 0 -1
    outer loop
      vertex 39.6318 30.7133 0
      vertex 41.15 40 0
      vertex 39.8019 30.6332 0
    endloop
  endfacet
  facet normal 0 0 -1
    outer loop
      vertex 37.15 36.875 0
      vertex 41.15 40 0
      vertex 39.6318 30.7133 0
    endloop
  endfacet
  facet normal 0 0 -1
    outer loop
      vertex 37.15 36.875 0
      vertex 39.6318 30.7133 0
      vertex 39.4471 30.7485 0
    endloop
  endfacet
  facet normal 0 0 -1
    outer loop
      vertex 37.15 36.875 0
      vertex 39.4471 30.7485 0
      vertex 39.4 30.75 0
    endloop
  endfacet
  facet normal 0 0 -1
    outer loop
      vertex 39.4 30.75 0
      vertex 39.4471 30.7485 0
      vertex 39.4 30.7456 0
    endloop
  endfacet
  facet normal -0 0 -1
    outer loop
      vertex 41.15 40 0
      vertex 37.15 36.875 0
      vertex 40 40 0
    endloop
  endfacet
  facet normal 0 0 -1
    outer loop
      vertex 37.8966 46.5772 0
      vertex 40 51 0
      vertex 40 40 0
    endloop
  endfacet
  facet normal 0 0 -1
    outer loop
      vertex 37.8966 47.4228 0
      vertex 40 51 0
      vertex 37.95 47 0
    endloop
  endfacet
  facet normal 0 0 -1
    outer loop
      vertex 37.7397 47.819 0
      vertex 40 51 0
      vertex 37.8966 47.4228 0
    endloop
  endfacet
  facet normal 0 0 -1
    outer loop
      vertex 37.4892 48.1637 0
      vertex 40 51 0
      vertex 37.7397 47.819 0
    endloop
  endfacet
  facet normal 0 0 -1
    outer loop
      vertex 37.1609 48.4353 0
      vertex 40 51 0
      vertex 37.4892 48.1637 0
    endloop
  endfacet
  facet normal 0 0 -1
    outer loop
      vertex 36.7753 48.6168 0
      vertex 40 51 0
      vertex 37.1609 48.4353 0
    endloop
  endfacet
  facet normal 0 0 -1
    outer loop
      vertex 36.3567 48.6966 0
      vertex 40 51 0
      vertex 36.7753 48.6168 0
    endloop
  endfacet
  facet normal 0 0 -1
    outer loop
      vertex 36.25 48.7 0
      vertex 36.3567 48.6966 0
      vertex 36.25 48.6899 0
    endloop
  endfacet
  facet normal 0 0 -1
    outer loop
      vertex 36.3567 48.6966 0
      vertex 36.25 48.7 0
      vertex 40 51 0
    endloop
  endfacet
  facet normal 0 0 -1
    outer loop
      vertex 30 51 0
      vertex 36.25 48.7 0
      vertex 33.65 48.7 0
    endloop
  endfacet
  facet normal 0 0 -1
    outer loop
      vertex 30 51 0
      vertex 33.65 48.7 0
      vertex 33.3315 48.6699 0
    endloop
  endfacet
  facet normal 0 0 -1
    outer loop
      vertex 30 51 0
      vertex 33.3315 48.6699 0
      vertex 32.9262 48.5382 0
    endloop
  endfacet
  facet normal 0 0 -1
    outer loop
      vertex 31.9634 46.7869 0
      vertex 30 51 0
      vertex 31.9634 47.2131 0
    endloop
  endfacet
  facet normal 0 0 -1
    outer loop
      vertex 36.25 48.7 0
      vertex 30 51 0
      vertex 40 51 0
    endloop
  endfacet
  facet normal 0 0 -1
    outer loop
      vertex 32.5664 48.3099 0
      vertex 30 51 0
      vertex 32.9262 48.5382 0
    endloop
  endfacet
  facet normal 0 0 -1
    outer loop
      vertex 32.2747 47.9992 0
      vertex 30 51 0
      vertex 32.5664 48.3099 0
    endloop
  endfacet
  facet normal 0 0 -1
    outer loop
      vertex 32.0694 47.6258 0
      vertex 30 51 0
      vertex 32.2747 47.9992 0
    endloop
  endfacet
  facet normal 0 0 -1
    outer loop
      vertex 31.9634 47.2131 0
      vertex 30 51 0
      vertex 32.0694 47.6258 0
    endloop
  endfacet
  facet normal -0 0 -1
    outer loop
      vertex 39.4471 29.2515 0
      vertex 39.4 29.25 0
      vertex 39.4 29.2544 0
    endloop
  endfacet
  facet normal 0 0 -1
    outer loop
      vertex 39.6318 29.2867 0
      vertex 37.15 23.125 0
      vertex 39.4471 29.2515 0
    endloop
  endfacet
  facet normal 0 0 -1
    outer loop
      vertex 37.4892 14.1637 0
      vertex 40 20 0
      vertex 37.7397 13.819 0
    endloop
  endfacet
  facet normal 0 0 -1
    outer loop
      vertex 37.1609 14.4353 0
      vertex 40 20 0
      vertex 37.4892 14.1637 0
    endloop
  endfacet
  facet normal 0 0 -1
    outer loop
      vertex 36.7753 14.6168 0
      vertex 40 20 0
      vertex 37.1609 14.4353 0
    endloop
  endfacet
  facet normal 0 0 -1
    outer loop
      vertex 39.4471 29.2515 0
      vertex 37.15 23.125 0
      vertex 39.4 29.25 0
    endloop
  endfacet
  facet normal -0 0 -1
    outer loop
      vertex 39.4 29.25 0
      vertex 37.15 23.125 0
      vertex 37.15 29.25 0
    endloop
  endfacet
  facet normal -0 0 -1
    outer loop
      vertex 36.3567 11.3034 0
      vertex 36.25 11.3 0
      vertex 36.25 11.3101 0
    endloop
  endfacet
  facet normal -0 0 -1
    outer loop
      vertex 36.3567 45.3034 0
      vertex 36.25 45.3 0
      vertex 36.25 45.3101 0
    endloop
  endfacet
  facet normal -0 0 -1
    outer loop
      vertex 33.65 48.6899 0
      vertex 33.3315 48.6699 0
      vertex 33.65 48.7 0
    endloop
  endfacet
  facet normal 1 -0 0
    outer loop
      vertex 41.15 20 4
      vertex 41.15 40 0
      vertex 41.15 40 4
    endloop
  endfacet
  facet normal 1 0 0
    outer loop
      vertex 41.15 40 0
      vertex 41.15 20 4
      vertex 41.15 20 0
    endloop
  endfacet
  facet normal -1 0 0
    outer loop
      vertex 8.15 20 0
      vertex 8.15 40 4
      vertex 8.15 40 0
    endloop
  endfacet
  facet normal -1 -0 0
    outer loop
      vertex 8.15 40 4
      vertex 8.15 20 0
      vertex 8.15 20 4
    endloop
  endfacet
  facet normal 0 -1 0
    outer loop
      vertex 8.15 20 0
      vertex 30 20 4
      vertex 8.15 20 4
    endloop
  endfacet
  facet normal 0 -1 -0
    outer loop
      vertex 30 20 4
      vertex 8.15 20 0
      vertex 30 20 0
    endloop
  endfacet
  facet normal 0 -1 0
    outer loop
      vertex 40 20 0
      vertex 41.15 20 4
      vertex 40 20 4
    endloop
  endfacet
  facet normal 0 -1 -0
    outer loop
      vertex 41.15 20 4
      vertex 40 20 0
      vertex 41.15 20 0
    endloop
  endfacet
  facet normal 0 1 -0
    outer loop
      vertex 30 40 0
      vertex 8.15 40 4
      vertex 30 40 4
    endloop
  endfacet
  facet normal 0 1 0
    outer loop
      vertex 8.15 40 4
      vertex 30 40 0
      vertex 8.15 40 0
    endloop
  endfacet
  facet normal 0 1 -0
    outer loop
      vertex 41.15 40 0
      vertex 40 40 4
      vertex 41.15 40 4
    endloop
  endfacet
  facet normal 0 1 0
    outer loop
      vertex 40 40 4
      vertex 41.15 40 0
      vertex 40 40 0
    endloop
  endfacet
  facet normal 0 0 1
    outer loop
      vertex 9.9 29.2544 4
      vertex 9.75947 29.2633 4
      vertex 9.9 29.25 4
    endloop
  endfacet
  facet normal 0 0 1
    outer loop
      vertex 12.15 29.25 4
      vertex 9.9 29.25 4
      vertex 12.15 23.125 4
    endloop
  endfacet
  facet normal 0 0 1
    outer loop
      vertex 33.65 11.3101 4
      vertex 33.3315 11.3301 4
      vertex 33.65 11.3 4
    endloop
  endfacet
  facet normal 0 0 1
    outer loop
      vertex 33.65 45.3101 4
      vertex 33.3315 45.3301 4
      vertex 33.65 45.3 4
    endloop
  endfacet
  facet normal -0 0 1
    outer loop
      vertex 36.3567 45.3034 4
      vertex 40 40 4
      vertex 36.7753 45.3832 4
    endloop
  endfacet
  facet normal -0 0 1
    outer loop
      vertex 36.25 45.3 4
      vertex 40 40 4
      vertex 36.3567 45.3034 4
    endloop
  endfacet
  facet normal 0 0 1
    outer loop
      vertex 36.25 45.3 4
      vertex 36.3567 45.3034 4
      vertex 36.25 45.3101 4
    endloop
  endfacet
  facet normal 0 0 1
    outer loop
      vertex 40 40 4
      vertex 36.25 45.3 4
      vertex 37.15 36.875 4
    endloop
  endfacet
  facet normal -0 0 1
    outer loop
      vertex 33.65 45.3 4
      vertex 37.15 36.875 4
      vertex 36.25 45.3 4
    endloop
  endfacet
  facet normal 0 0 1
    outer loop
      vertex 30 40 4
      vertex 33.65 45.3 4
      vertex 33.3315 45.3301 4
    endloop
  endfacet
  facet normal 0 0 1
    outer loop
      vertex 30 40 4
      vertex 33.3315 45.3301 4
      vertex 32.9262 45.4618 4
    endloop
  endfacet
  facet normal 0 0 1
    outer loop
      vertex 30 40 4
      vertex 32.9262 45.4618 4
      vertex 32.5664 45.6901 4
    endloop
  endfacet
  facet normal 0 0 1
    outer loop
      vertex 30 40 4
      vertex 32.5664 45.6901 4
      vertex 32.2747 46.0008 4
    endloop
  endfacet
  facet normal 0 0 1
    outer loop
      vertex 30 40 4
      vertex 32.2747 46.0008 4
      vertex 32.0694 46.3742 4
    endloop
  endfacet
  facet normal 0 0 1
    outer loop
      vertex 30 40 4
      vertex 31.9634 46.7869 4
      vertex 30 51 4
    endloop
  endfacet
  facet normal 0 0 1
    outer loop
      vertex 31.9634 46.7869 4
      vertex 30 40 4
      vertex 32.0694 46.3742 4
    endloop
  endfacet
  facet normal 0 0 1
    outer loop
      vertex 33.65 45.3 4
      vertex 30 40 4
      vertex 37.15 36.875 4
    endloop
  endfacet
  facet normal 0 0 1
    outer loop
      vertex 30 40 4
      vertex 12.15 36.875 4
      vertex 37.15 36.875 4
    endloop
  endfacet
  facet normal 0 0 1
    outer loop
      vertex 12.15 36.875 4
      vertex 9.9 30.75 4
      vertex 12.15 30.75 4
    endloop
  endfacet
  facet normal 0 0 1
    outer loop
      vertex 9.9 30.75 4
      vertex 9.75947 30.7367 4
      vertex 9.9 30.7456 4
    endloop
  endfacet
  facet normal 0 0 1
    outer loop
      vertex 12.15 36.875 4
      vertex 9.75947 30.7367 4
      vertex 9.9 30.75 4
    endloop
  endfacet
  facet normal 0 0 1
    outer loop
      vertex 12.15 36.875 4
      vertex 9.58068 30.6786 4
      vertex 9.75947 30.7367 4
    endloop
  endfacet
  facet normal 0 0 1
    outer loop
      vertex 8.15 40 4
      vertex 9.58068 30.6786 4
      vertex 12.15 36.875 4
    endloop
  endfacet
  facet normal 0 0 1
    outer loop
      vertex 9.58068 30.6786 4
      vertex 8.15 40 4
      vertex 9.42194 30.5779 4
    endloop
  endfacet
  facet normal 0 0 1
    outer loop
      vertex 9.42194 30.5779 4
      vertex 8.15 40 4
      vertex 9.29325 30.4408 4
    endloop
  endfacet
  facet normal 0 0 1
    outer loop
      vertex 9.15592 30.094 4
      vertex 8.15 40 4
      vertex 9.15592 29.906 4
    endloop
  endfacet
  facet normal 0 0 1
    outer loop
      vertex 9.20267 30.2761 4
      vertex 8.15 40 4
      vertex 9.15592 30.094 4
    endloop
  endfacet
  facet normal 0 0 1
    outer loop
      vertex 9.29325 30.4408 4
      vertex 8.15 40 4
      vertex 9.20267 30.2761 4
    endloop
  endfacet
  facet normal -0 0 1
    outer loop
      vertex 8.15 40 4
      vertex 12.15 36.875 4
      vertex 30 40 4
    endloop
  endfacet
  facet normal 0 0 1
    outer loop
      vertex 40 9 4
      vertex 37.8966 13.4228 4
      vertex 37.95 13 4
    endloop
  endfacet
  facet normal 0 0 1
    outer loop
      vertex 36.25 14.7 4
      vertex 40 20 4
      vertex 37.15 23.125 4
    endloop
  endfacet
  facet normal 0 0 1
    outer loop
      vertex 40 20 4
      vertex 37.7397 13.819 4
      vertex 37.8966 13.4228 4
    endloop
  endfacet
  facet normal 0 0 1
    outer loop
      vertex 40 20 4
      vertex 37.4892 14.1637 4
      vertex 37.7397 13.819 4
    endloop
  endfacet
  facet normal 0 0 1
    outer loop
      vertex 37.15 23.125 4
      vertex 39.4 29.25 4
      vertex 37.15 29.25 4
    endloop
  endfacet
  facet normal 0 0 1
    outer loop
      vertex 40 20 4
      vertex 37.1609 14.4353 4
      vertex 37.4892 14.1637 4
    endloop
  endfacet
  facet normal 0 0 1
    outer loop
      vertex 40 20 4
      vertex 36.7753 14.6168 4
      vertex 37.1609 14.4353 4
    endloop
  endfacet
  facet normal 0 0 1
    outer loop
      vertex 40 20 4
      vertex 36.3567 14.6966 4
      vertex 36.7753 14.6168 4
    endloop
  endfacet
  facet normal 0 0 1
    outer loop
      vertex 40 20 4
      vertex 36.25 14.7 4
      vertex 36.3567 14.6966 4
    endloop
  endfacet
  facet normal 0 0 1
    outer loop
      vertex 37.15 23.125 4
      vertex 33.65 14.7 4
      vertex 36.25 14.7 4
    endloop
  endfacet
  facet normal 0 0 1
    outer loop
      vertex 33.65 14.7 4
      vertex 33.3315 14.6699 4
      vertex 33.65 14.6899 4
    endloop
  endfacet
  facet normal -0 0 1
    outer loop
      vertex 30 20 4
      vertex 33.65 14.7 4
      vertex 37.15 23.125 4
    endloop
  endfacet
  facet normal 0 0 1
    outer loop
      vertex 33.65 14.7 4
      vertex 30 20 4
      vertex 33.3315 14.6699 4
    endloop
  endfacet
  facet normal 0 0 1
    outer loop
      vertex 33.3315 14.6699 4
      vertex 30 20 4
      vertex 32.9262 14.5382 4
    endloop
  endfacet
  facet normal 0 0 1
    outer loop
      vertex 32.9262 14.5382 4
      vertex 30 20 4
      vertex 32.5664 14.3099 4
    endloop
  endfacet
  facet normal 0 0 1
    outer loop
      vertex 32.5664 14.3099 4
      vertex 30 20 4
      vertex 32.2747 13.9992 4
    endloop
  endfacet
  facet normal 0 0 1
    outer loop
      vertex 30 9 4
      vertex 31.9634 13.2131 4
      vertex 30 20 4
    endloop
  endfacet
  facet normal 0 0 1
    outer loop
      vertex 32.0694 13.6258 4
      vertex 30 20 4
      vertex 31.9634 13.2131 4
    endloop
  endfacet
  facet normal 0 0 1
    outer loop
      vertex 32.2747 13.9992 4
      vertex 30 20 4
      vertex 32.0694 13.6258 4
    endloop
  endfacet
  facet normal -0 0 1
    outer loop
      vertex 12.15 23.125 4
      vertex 30 20 4
      vertex 37.15 23.125 4
    endloop
  endfacet
  facet normal 0 0 1
    outer loop
      vertex 9.75947 29.2633 4
      vertex 12.15 23.125 4
      vertex 9.9 29.25 4
    endloop
  endfacet
  facet normal 0 0 1
    outer loop
      vertex 9.58068 29.3214 4
      vertex 12.15 23.125 4
      vertex 9.75947 29.2633 4
    endloop
  endfacet
  facet normal 0 0 1
    outer loop
      vertex 8.15 20 4
      vertex 9.58068 29.3214 4
      vertex 9.42194 29.4221 4
    endloop
  endfacet
  facet normal 0 0 1
    outer loop
      vertex 8.15 20 4
      vertex 9.42194 29.4221 4
      vertex 9.29325 29.5592 4
    endloop
  endfacet
  facet normal 0 0 1
    outer loop
      vertex 8.15 20 4
      vertex 9.29325 29.5592 4
      vertex 9.20267 29.7239 4
    endloop
  endfacet
  facet normal 0 0 1
    outer loop
      vertex 12.15 23.125 4
      vertex 8.15 20 4
      vertex 30 20 4
    endloop
  endfacet
  facet normal 0 0 1
    outer loop
      vertex 9.58068 29.3214 4
      vertex 8.15 20 4
      vertex 12.15 23.125 4
    endloop
  endfacet
  facet normal 0 0 1
    outer loop
      vertex 9.15592 29.906 4
      vertex 8.15 20 4
      vertex 9.20267 29.7239 4
    endloop
  endfacet
  facet normal 0 0 1
    outer loop
      vertex 8.15 20 4
      vertex 9.15592 29.906 4
      vertex 8.15 40 4
    endloop
  endfacet
  facet normal -0 0 1
    outer loop
      vertex 37.8966 46.5772 4
      vertex 40 40 4
      vertex 40 51 4
    endloop
  endfacet
  facet normal -0 0 1
    outer loop
      vertex 37.7397 46.181 4
      vertex 40 40 4
      vertex 37.8966 46.5772 4
    endloop
  endfacet
  facet normal 0 -0 1
    outer loop
      vertex 39.8019 30.6332 4
      vertex 40 40 4
      vertex 37.15 36.875 4
    endloop
  endfacet
  facet normal 0 0 1
    outer loop
      vertex 40 40 4
      vertex 39.8019 30.6332 4
      vertex 39.9467 30.5134 4
    endloop
  endfacet
  facet normal 0 0 1
    outer loop
      vertex 39.8019 30.6332 4
      vertex 37.15 36.875 4
      vertex 39.6318 30.7133 4
    endloop
  endfacet
  facet normal 0 0 1
    outer loop
      vertex 37.8966 46.5772 4
      vertex 40 51 4
      vertex 37.95 47 4
    endloop
  endfacet
  facet normal 0 0 1
    outer loop
      vertex 40 51 4
      vertex 37.8966 47.4228 4
      vertex 37.95 47 4
    endloop
  endfacet
  facet normal 0 0 1
    outer loop
      vertex 40 51 4
      vertex 37.7397 47.819 4
      vertex 37.8966 47.4228 4
    endloop
  endfacet
  facet normal 0 0 1
    outer loop
      vertex 40 51 4
      vertex 37.4892 48.1637 4
      vertex 37.7397 47.819 4
    endloop
  endfacet
  facet normal 0 0 1
    outer loop
      vertex 40 51 4
      vertex 37.1609 48.4353 4
      vertex 37.4892 48.1637 4
    endloop
  endfacet
  facet normal 0 0 1
    outer loop
      vertex 40 51 4
      vertex 36.7753 48.6168 4
      vertex 37.1609 48.4353 4
    endloop
  endfacet
  facet normal 0 0 1
    outer loop
      vertex 40 51 4
      vertex 36.3567 48.6966 4
      vertex 36.7753 48.6168 4
    endloop
  endfacet
  facet normal 0 0 1
    outer loop
      vertex 40 51 4
      vertex 36.25 48.7 4
      vertex 36.3567 48.6966 4
    endloop
  endfacet
  facet normal -0 0 1
    outer loop
      vertex 30 51 4
      vertex 36.25 48.7 4
      vertex 40 51 4
    endloop
  endfacet
  facet normal 0 0 1
    outer loop
      vertex 33.65 48.7 4
      vertex 33.3315 48.6699 4
      vertex 33.65 48.6899 4
    endloop
  endfacet
  facet normal 0 0 1
    outer loop
      vertex 36.25 48.7 4
      vertex 30 51 4
      vertex 33.65 48.7 4
    endloop
  endfacet
  facet normal 0 0 1
    outer loop
      vertex 33.65 48.7 4
      vertex 30 51 4
      vertex 33.3315 48.6699 4
    endloop
  endfacet
  facet normal 0 0 1
    outer loop
      vertex 31.9634 47.2131 4
      vertex 30 51 4
      vertex 31.9634 46.7869 4
    endloop
  endfacet
  facet normal 0 0 1
    outer loop
      vertex 32.0694 47.6258 4
      vertex 30 51 4
      vertex 31.9634 47.2131 4
    endloop
  endfacet
  facet normal 0 0 1
    outer loop
      vertex 32.2747 47.9992 4
      vertex 30 51 4
      vertex 32.0694 47.6258 4
    endloop
  endfacet
  facet normal 0 0 1
    outer loop
      vertex 32.5664 48.3099 4
      vertex 30 51 4
      vertex 32.2747 47.9992 4
    endloop
  endfacet
  facet normal 0 0 1
    outer loop
      vertex 32.9262 48.5382 4
      vertex 30 51 4
      vertex 32.5664 48.3099 4
    endloop
  endfacet
  facet normal 0 0 1
    outer loop
      vertex 33.3315 48.6699 4
      vertex 30 51 4
      vertex 32.9262 48.5382 4
    endloop
  endfacet
  facet normal 0 0 1
    outer loop
      vertex 41.15 40 4
      vertex 40.15 30 4
      vertex 41.15 20 4
    endloop
  endfacet
  facet normal 0 0 1
    outer loop
      vertex 41.15 40 4
      vertex 40.1264 30.1865 4
      vertex 40.15 30 4
    endloop
  endfacet
  facet normal 0 0 1
    outer loop
      vertex 41.15 40 4
      vertex 40.0572 30.3613 4
      vertex 40.1264 30.1865 4
    endloop
  endfacet
  facet normal 0 0 1
    outer loop
      vertex 39.9467 30.5134 4
      vertex 41.15 40 4
      vertex 40 40 4
    endloop
  endfacet
  facet normal 0 0 1
    outer loop
      vertex 41.15 40 4
      vertex 39.9467 30.5134 4
      vertex 40.0572 30.3613 4
    endloop
  endfacet
  facet normal -0 0 1
    outer loop
      vertex 40.1264 29.8135 4
      vertex 41.15 20 4
      vertex 40.15 30 4
    endloop
  endfacet
  facet normal -0 0 1
    outer loop
      vertex 40.0572 29.6387 4
      vertex 41.15 20 4
      vertex 40.1264 29.8135 4
    endloop
  endfacet
  facet normal -0 0 1
    outer loop
      vertex 39.9467 29.4866 4
      vertex 41.15 20 4
      vertex 40.0572 29.6387 4
    endloop
  endfacet
  facet normal -0 0 1
    outer loop
      vertex 39.8019 29.3668 4
      vertex 41.15 20 4
      vertex 39.9467 29.4866 4
    endloop
  endfacet
  facet normal -0 0 1
    outer loop
      vertex 39.6318 29.2867 4
      vertex 41.15 20 4
      vertex 39.8019 29.3668 4
    endloop
  endfacet
  facet normal -0 0 1
    outer loop
      vertex 37.15 23.125 4
      vertex 41.15 20 4
      vertex 39.6318 29.2867 4
    endloop
  endfacet
  facet normal 0 0 1
    outer loop
      vertex 37.15 23.125 4
      vertex 39.6318 29.2867 4
      vertex 39.4471 29.2515 4
    endloop
  endfacet
  facet normal 0 0 1
    outer loop
      vertex 37.15 23.125 4
      vertex 39.4471 29.2515 4
      vertex 39.4 29.25 4
    endloop
  endfacet
  facet normal 0 0 1
    outer loop
      vertex 39.4 29.25 4
      vertex 39.4471 29.2515 4
      vertex 39.4 29.2544 4
    endloop
  endfacet
  facet normal 0 0 1
    outer loop
      vertex 41.15 20 4
      vertex 37.15 23.125 4
      vertex 40 20 4
    endloop
  endfacet
  facet normal -0 0 1
    outer loop
      vertex 37.8966 13.4228 4
      vertex 40 9 4
      vertex 40 20 4
    endloop
  endfacet
  facet normal -0 0 1
    outer loop
      vertex 37.8966 12.5772 4
      vertex 40 9 4
      vertex 37.95 13 4
    endloop
  endfacet
  facet normal -0 0 1
    outer loop
      vertex 37.7397 12.181 4
      vertex 40 9 4
      vertex 37.8966 12.5772 4
    endloop
  endfacet
  facet normal -0 0 1
    outer loop
      vertex 37.4892 11.8363 4
      vertex 40 9 4
      vertex 37.7397 12.181 4
    endloop
  endfacet
  facet normal -0 0 1
    outer loop
      vertex 37.1609 11.5647 4
      vertex 40 9 4
      vertex 37.4892 11.8363 4
    endloop
  endfacet
  facet normal -0 0 1
    outer loop
      vertex 36.7753 11.3832 4
      vertex 40 9 4
      vertex 37.1609 11.5647 4
    endloop
  endfacet
  facet normal -0 0 1
    outer loop
      vertex 36.3567 11.3034 4
      vertex 40 9 4
      vertex 36.7753 11.3832 4
    endloop
  endfacet
  facet normal 0 0 1
    outer loop
      vertex 36.25 11.3 4
      vertex 36.3567 11.3034 4
      vertex 36.25 11.3101 4
    endloop
  endfacet
  facet normal 0 0 1
    outer loop
      vertex 36.3567 11.3034 4
      vertex 36.25 11.3 4
      vertex 40 9 4
    endloop
  endfacet
  facet normal 0 0 1
    outer loop
      vertex 30 9 4
      vertex 36.25 11.3 4
      vertex 33.65 11.3 4
    endloop
  endfacet
  facet normal 0 0 1
    outer loop
      vertex 30 9 4
      vertex 33.65 11.3 4
      vertex 33.3315 11.3301 4
    endloop
  endfacet
  facet normal 0 0 1
    outer loop
      vertex 30 9 4
      vertex 33.3315 11.3301 4
      vertex 32.9262 11.4618 4
    endloop
  endfacet
  facet normal 0 0 1
    outer loop
      vertex 31.9634 13.2131 4
      vertex 30 9 4
      vertex 31.9634 12.7869 4
    endloop
  endfacet
  facet normal 0 0 1
    outer loop
      vertex 36.25 11.3 4
      vertex 30 9 4
      vertex 40 9 4
    endloop
  endfacet
  facet normal 0 0 1
    outer loop
      vertex 32.5664 11.6901 4
      vertex 30 9 4
      vertex 32.9262 11.4618 4
    endloop
  endfacet
  facet normal 0 0 1
    outer loop
      vertex 32.2747 12.0008 4
      vertex 30 9 4
      vertex 32.5664 11.6901 4
    endloop
  endfacet
  facet normal 0 0 1
    outer loop
      vertex 32.0694 12.3742 4
      vertex 30 9 4
      vertex 32.2747 12.0008 4
    endloop
  endfacet
  facet normal 0 0 1
    outer loop
      vertex 31.9634 12.7869 4
      vertex 30 9 4
      vertex 32.0694 12.3742 4
    endloop
  endfacet
  facet normal 0 0 1
    outer loop
      vertex 39.4471 30.7485 4
      vertex 39.4 30.75 4
      vertex 39.4 30.7456 4
    endloop
  endfacet
  facet normal 0 0 1
    outer loop
      vertex 39.6318 30.7133 4
      vertex 37.15 36.875 4
      vertex 39.4471 30.7485 4
    endloop
  endfacet
  facet normal -0 0 1
    outer loop
      vertex 37.4892 45.8363 4
      vertex 40 40 4
      vertex 37.7397 46.181 4
    endloop
  endfacet
  facet normal -0 0 1
    outer loop
      vertex 37.1609 45.5647 4
      vertex 40 40 4
      vertex 37.4892 45.8363 4
    endloop
  endfacet
  facet normal -0 0 1
    outer loop
      vertex 36.7753 45.3832 4
      vertex 40 40 4
      vertex 37.1609 45.5647 4
    endloop
  endfacet
  facet normal 0 0 1
    outer loop
      vertex 39.4471 30.7485 4
      vertex 37.15 36.875 4
      vertex 39.4 30.75 4
    endloop
  endfacet
  facet normal 0 0 1
    outer loop
      vertex 39.4 30.75 4
      vertex 37.15 36.875 4
      vertex 37.15 30.75 4
    endloop
  endfacet
  facet normal 0 0 1
    outer loop
      vertex 36.3567 48.6966 4
      vertex 36.25 48.7 4
      vertex 36.25 48.6899 4
    endloop
  endfacet
  facet normal 0 0 1
    outer loop
      vertex 36.3567 14.6966 4
      vertex 36.25 14.7 4
      vertex 36.25 14.6899 4
    endloop
  endfacet
  facet normal 1 -0 0
    outer loop
      vertex 40 9 4
      vertex 40 20 0
      vertex 40 20 4
    endloop
  endfacet
  facet normal 1 0 0
    outer loop
      vertex 40 20 0
      vertex 40 9 4
      vertex 40 9 0
    endloop
  endfacet
  facet normal 1 -0 0
    outer loop
      vertex 40 40 4
      vertex 40 51 0
      vertex 40 51 4
    endloop
  endfacet
  facet normal 1 0 0
    outer loop
      vertex 40 51 0
      vertex 40 40 4
      vertex 40 40 0
    endloop
  endfacet
  facet normal -1 0 0
    outer loop
      vertex 30 9 0
      vertex 30 20 4
      vertex 30 20 0
    endloop
  endfacet
  facet normal -1 -0 0
    outer loop
      vertex 30 20 4
      vertex 30 9 0
      vertex 30 9 4
    endloop
  endfacet
  facet normal -1 0 0
    outer loop
      vertex 30 40 0
      vertex 30 51 4
      vertex 30 51 0
    endloop
  endfacet
  facet normal -1 -0 0
    outer loop
      vertex 30 51 4
      vertex 30 40 0
      vertex 30 40 4
    endloop
  endfacet
  facet normal 0 -1 0
    outer loop
      vertex 30 9 0
      vertex 40 9 4
      vertex 30 9 4
    endloop
  endfacet
  facet normal 0 -1 -0
    outer loop
      vertex 40 9 4
      vertex 30 9 0
      vertex 40 9 0
    endloop
  endfacet
  facet normal 0 1 -0
    outer loop
      vertex 40 51 0
      vertex 30 51 4
      vertex 40 51 4
    endloop
  endfacet
  facet normal 0 1 0
    outer loop
      vertex 30 51 4
      vertex 40 51 0
      vertex 30 51 0
    endloop
  endfacet
  facet normal 0 1 -0
    outer loop
      vertex 39.4 29.25 0
      vertex 37.15 29.25 4
      vertex 39.4 29.25 4
    endloop
  endfacet
  facet normal 0 1 0
    outer loop
      vertex 37.15 29.25 4
      vertex 39.4 29.25 0
      vertex 37.15 29.25 0
    endloop
  endfacet
  facet normal -1 0 0
    outer loop
      vertex 39.4 29.25 0
      vertex 39.4 29.2544 4
      vertex 39.4 29.2544 0
    endloop
  endfacet
  facet normal -1 -0 0
    outer loop
      vertex 39.4 29.2544 4
      vertex 39.4 29.25 0
      vertex 39.4 29.25 4
    endloop
  endfacet
  facet normal 0.0614547 0.99811 -0
    outer loop
      vertex 39.4471 29.2515 0
      vertex 39.4 29.2544 4
      vertex 39.4471 29.2515 4
    endloop
  endfacet
  facet normal 0.0614547 0.99811 0
    outer loop
      vertex 39.4 29.2544 4
      vertex 39.4471 29.2515 0
      vertex 39.4 29.2544 0
    endloop
  endfacet
  facet normal -0.18721 0.98232 0
    outer loop
      vertex 39.6318 29.2867 0
      vertex 39.4471 29.2515 4
      vertex 39.6318 29.2867 4
    endloop
  endfacet
  facet normal -0.18721 0.98232 0
    outer loop
      vertex 39.4471 29.2515 4
      vertex 39.6318 29.2867 0
      vertex 39.4471 29.2515 0
    endloop
  endfacet
  facet normal -0.426028 0.90471 0
    outer loop
      vertex 39.8019 29.3668 0
      vertex 39.6318 29.2867 4
      vertex 39.8019 29.3668 4
    endloop
  endfacet
  facet normal -0.426028 0.90471 0
    outer loop
      vertex 39.6318 29.2867 4
      vertex 39.8019 29.3668 0
      vertex 39.6318 29.2867 0
    endloop
  endfacet
  facet normal -0.637459 0.770484 0
    outer loop
      vertex 39.9467 29.4866 0
      vertex 39.8019 29.3668 4
      vertex 39.9467 29.4866 4
    endloop
  endfacet
  facet normal -0.637459 0.770484 0
    outer loop
      vertex 39.8019 29.3668 4
      vertex 39.9467 29.4866 0
      vertex 39.8019 29.3668 0
    endloop
  endfacet
  facet normal -0.809035 0.58776 0
    outer loop
      vertex 39.9467 29.4866 0
      vertex 40.0572 29.6387 4
      vertex 40.0572 29.6387 0
    endloop
  endfacet
  facet normal -0.809035 0.58776 0
    outer loop
      vertex 40.0572 29.6387 4
      vertex 39.9467 29.4866 0
      vertex 39.9467 29.4866 4
    endloop
  endfacet
  facet normal -0.929791 0.368087 0
    outer loop
      vertex 40.0572 29.6387 0
      vertex 40.1264 29.8135 4
      vertex 40.1264 29.8135 0
    endloop
  endfacet
  facet normal -0.929791 0.368087 0
    outer loop
      vertex 40.1264 29.8135 4
      vertex 40.0572 29.6387 0
      vertex 40.0572 29.6387 4
    endloop
  endfacet
  facet normal -0.992089 0.12554 0
    outer loop
      vertex 40.1264 29.8135 0
      vertex 40.15 30 4
      vertex 40.15 30 0
    endloop
  endfacet
  facet normal -0.992089 0.12554 0
    outer loop
      vertex 40.15 30 4
      vertex 40.1264 29.8135 0
      vertex 40.1264 29.8135 4
    endloop
  endfacet
  facet normal -0.992089 -0.12554 0
    outer loop
      vertex 40.15 30 0
      vertex 40.1264 30.1865 4
      vertex 40.1264 30.1865 0
    endloop
  endfacet
  facet normal -0.992089 -0.12554 0
    outer loop
      vertex 40.1264 30.1865 4
      vertex 40.15 30 0
      vertex 40.15 30 4
    endloop
  endfacet
  facet normal -0.929791 -0.368087 0
    outer loop
      vertex 40.1264 30.1865 0
      vertex 40.0572 30.3613 4
      vertex 40.0572 30.3613 0
    endloop
  endfacet
  facet normal -0.929791 -0.368087 0
    outer loop
      vertex 40.0572 30.3613 4
      vertex 40.1264 30.1865 0
      vertex 40.1264 30.1865 4
    endloop
  endfacet
  facet normal -0.809035 -0.58776 0
    outer loop
      vertex 40.0572 30.3613 0
      vertex 39.9467 30.5134 4
      vertex 39.9467 30.5134 0
    endloop
  endfacet
  facet normal -0.809035 -0.58776 0
    outer loop
      vertex 39.9467 30.5134 4
      vertex 40.0572 30.3613 0
      vertex 40.0572 30.3613 4
    endloop
  endfacet
  facet normal -0.637459 -0.770484 0
    outer loop
      vertex 39.8019 30.6332 0
      vertex 39.9467 30.5134 4
      vertex 39.8019 30.6332 4
    endloop
  endfacet
  facet normal -0.637459 -0.770484 -0
    outer loop
      vertex 39.9467 30.5134 4
      vertex 39.8019 30.6332 0
      vertex 39.9467 30.5134 0
    endloop
  endfacet
  facet normal -0.426028 -0.90471 0
    outer loop
      vertex 39.6318 30.7133 0
      vertex 39.8019 30.6332 4
      vertex 39.6318 30.7133 4
    endloop
  endfacet
  facet normal -0.426028 -0.90471 -0
    outer loop
      vertex 39.8019 30.6332 4
      vertex 39.6318 30.7133 0
      vertex 39.8019 30.6332 0
    endloop
  endfacet
  facet normal -0.18721 -0.98232 0
    outer loop
      vertex 39.4471 30.7485 0
      vertex 39.6318 30.7133 4
      vertex 39.4471 30.7485 4
    endloop
  endfacet
  facet normal -0.18721 -0.98232 -0
    outer loop
      vertex 39.6318 30.7133 4
      vertex 39.4471 30.7485 0
      vertex 39.6318 30.7133 0
    endloop
  endfacet
  facet normal 0.0614547 -0.99811 0
    outer loop
      vertex 39.4 30.7456 0
      vertex 39.4471 30.7485 4
      vertex 39.4 30.7456 4
    endloop
  endfacet
  facet normal 0.0614547 -0.99811 0
    outer loop
      vertex 39.4471 30.7485 4
      vertex 39.4 30.7456 0
      vertex 39.4471 30.7485 0
    endloop
  endfacet
  facet normal -1 0 0
    outer loop
      vertex 39.4 30.7456 0
      vertex 39.4 30.75 4
      vertex 39.4 30.75 0
    endloop
  endfacet
  facet normal -1 -0 0
    outer loop
      vertex 39.4 30.75 4
      vertex 39.4 30.7456 0
      vertex 39.4 30.7456 4
    endloop
  endfacet
  facet normal 0 -1 0
    outer loop
      vertex 37.15 30.75 0
      vertex 39.4 30.75 4
      vertex 37.15 30.75 4
    endloop
  endfacet
  facet normal 0 -1 -0
    outer loop
      vertex 39.4 30.75 4
      vertex 37.15 30.75 0
      vertex 39.4 30.75 0
    endloop
  endfacet
  facet normal -1 0 0
    outer loop
      vertex 37.15 30.75 0
      vertex 37.15 36.875 4
      vertex 37.15 36.875 0
    endloop
  endfacet
  facet normal -1 -0 0
    outer loop
      vertex 37.15 36.875 4
      vertex 37.15 30.75 0
      vertex 37.15 30.75 4
    endloop
  endfacet
  facet normal 0 -1 0
    outer loop
      vertex 12.15 36.875 0
      vertex 37.15 36.875 4
      vertex 12.15 36.875 4
    endloop
  endfacet
  facet normal 0 -1 -0
    outer loop
      vertex 37.15 36.875 4
      vertex 12.15 36.875 0
      vertex 37.15 36.875 0
    endloop
  endfacet
  facet normal 1 -0 0
    outer loop
      vertex 12.15 30.75 4
      vertex 12.15 36.875 0
      vertex 12.15 36.875 4
    endloop
  endfacet
  facet normal 1 0 0
    outer loop
      vertex 12.15 36.875 0
      vertex 12.15 30.75 4
      vertex 12.15 30.75 0
    endloop
  endfacet
  facet normal 0 -1 0
    outer loop
      vertex 9.9 30.75 0
      vertex 12.15 30.75 4
      vertex 9.9 30.75 4
    endloop
  endfacet
  facet normal 0 -1 -0
    outer loop
      vertex 12.15 30.75 4
      vertex 9.9 30.75 0
      vertex 12.15 30.75 0
    endloop
  endfacet
  facet normal 1 -0 0
    outer loop
      vertex 9.9 30.7456 4
      vertex 9.9 30.75 0
      vertex 9.9 30.75 4
    endloop
  endfacet
  facet normal 1 0 0
    outer loop
      vertex 9.9 30.75 0
      vertex 9.9 30.7456 4
      vertex 9.9 30.7456 0
    endloop
  endfacet
  facet normal 0.063205 -0.998001 0
    outer loop
      vertex 9.75947 30.7367 0
      vertex 9.9 30.7456 4
      vertex 9.75947 30.7367 4
    endloop
  endfacet
  facet normal 0.063205 -0.998001 0
    outer loop
      vertex 9.9 30.7456 4
      vertex 9.75947 30.7367 0
      vertex 9.9 30.7456 0
    endloop
  endfacet
  facet normal 0.309054 -0.951045 0
    outer loop
      vertex 9.58068 30.6786 0
      vertex 9.75947 30.7367 4
      vertex 9.58068 30.6786 4
    endloop
  endfacet
  facet normal 0.309054 -0.951045 0
    outer loop
      vertex 9.75947 30.7367 4
      vertex 9.58068 30.6786 0
      vertex 9.75947 30.7367 0
    endloop
  endfacet
  facet normal 0.535677 -0.844423 0
    outer loop
      vertex 9.42194 30.5779 0
      vertex 9.58068 30.6786 4
      vertex 9.42194 30.5779 4
    endloop
  endfacet
  facet normal 0.535677 -0.844423 0
    outer loop
      vertex 9.58068 30.6786 4
      vertex 9.42194 30.5779 0
      vertex 9.58068 30.6786 0
    endloop
  endfacet
  facet normal 0.729116 -0.68439 0
    outer loop
      vertex 9.29325 30.4408 4
      vertex 9.42194 30.5779 0
      vertex 9.42194 30.5779 4
    endloop
  endfacet
  facet normal 0.729116 -0.68439 0
    outer loop
      vertex 9.42194 30.5779 0
      vertex 9.29325 30.4408 4
      vertex 9.29325 30.4408 0
    endloop
  endfacet
  facet normal 0.876227 -0.481898 0
    outer loop
      vertex 9.20267 30.2761 4
      vertex 9.29325 30.4408 0
      vertex 9.29325 30.4408 4
    endloop
  endfacet
  facet normal 0.876227 -0.481898 0
    outer loop
      vertex 9.29325 30.4408 0
      vertex 9.20267 30.2761 4
      vertex 9.20267 30.2761 0
    endloop
  endfacet
  facet normal 0.96859 -0.248663 0
    outer loop
      vertex 9.15592 30.094 4
      vertex 9.20267 30.2761 0
      vertex 9.20267 30.2761 4
    endloop
  endfacet
  facet normal 0.96859 -0.248663 0
    outer loop
      vertex 9.20267 30.2761 0
      vertex 9.15592 30.094 4
      vertex 9.15592 30.094 0
    endloop
  endfacet
  facet normal 1 -0 0
    outer loop
      vertex 9.15592 29.906 4
      vertex 9.15592 30.094 0
      vertex 9.15592 30.094 4
    endloop
  endfacet
  facet normal 1 0 0
    outer loop
      vertex 9.15592 30.094 0
      vertex 9.15592 29.906 4
      vertex 9.15592 29.906 0
    endloop
  endfacet
  facet normal 0.96859 0.248663 0
    outer loop
      vertex 9.20267 29.7239 4
      vertex 9.15592 29.906 0
      vertex 9.15592 29.906 4
    endloop
  endfacet
  facet normal 0.96859 0.248663 0
    outer loop
      vertex 9.15592 29.906 0
      vertex 9.20267 29.7239 4
      vertex 9.20267 29.7239 0
    endloop
  endfacet
  facet normal 0.876227 0.481898 0
    outer loop
      vertex 9.29325 29.5592 4
      vertex 9.20267 29.7239 0
      vertex 9.20267 29.7239 4
    endloop
  endfacet
  facet normal 0.876227 0.481898 0
    outer loop
      vertex 9.20267 29.7239 0
      vertex 9.29325 29.5592 4
      vertex 9.29325 29.5592 0
    endloop
  endfacet
  facet normal 0.729116 0.68439 0
    outer loop
      vertex 9.42194 29.4221 4
      vertex 9.29325 29.5592 0
      vertex 9.29325 29.5592 4
    endloop
  endfacet
  facet normal 0.729116 0.68439 0
    outer loop
      vertex 9.29325 29.5592 0
      vertex 9.42194 29.4221 4
      vertex 9.42194 29.4221 0
    endloop
  endfacet
  facet normal 0.535677 0.844423 -0
    outer loop
      vertex 9.58068 29.3214 0
      vertex 9.42194 29.4221 4
      vertex 9.58068 29.3214 4
    endloop
  endfacet
  facet normal 0.535677 0.844423 0
    outer loop
      vertex 9.42194 29.4221 4
      vertex 9.58068 29.3214 0
      vertex 9.42194 29.4221 0
    endloop
  endfacet
  facet normal 0.309054 0.951045 -0
    outer loop
      vertex 9.75947 29.2633 0
      vertex 9.58068 29.3214 4
      vertex 9.75947 29.2633 4
    endloop
  endfacet
  facet normal 0.309054 0.951045 0
    outer loop
      vertex 9.58068 29.3214 4
      vertex 9.75947 29.2633 0
      vertex 9.58068 29.3214 0
    endloop
  endfacet
  facet normal 0.063205 0.998001 -0
    outer loop
      vertex 9.9 29.2544 0
      vertex 9.75947 29.2633 4
      vertex 9.9 29.2544 4
    endloop
  endfacet
  facet normal 0.063205 0.998001 0
    outer loop
      vertex 9.75947 29.2633 4
      vertex 9.9 29.2544 0
      vertex 9.75947 29.2633 0
    endloop
  endfacet
  facet normal 1 -0 0
    outer loop
      vertex 9.9 29.25 4
      vertex 9.9 29.2544 0
      vertex 9.9 29.2544 4
    endloop
  endfacet
  facet normal 1 0 0
    outer loop
      vertex 9.9 29.2544 0
      vertex 9.9 29.25 4
      vertex 9.9 29.25 0
    endloop
  endfacet
  facet normal 0 1 -0
    outer loop
      vertex 12.15 29.25 0
      vertex 9.9 29.25 4
      vertex 12.15 29.25 4
    endloop
  endfacet
  facet normal 0 1 0
    outer loop
      vertex 9.9 29.25 4
      vertex 12.15 29.25 0
      vertex 9.9 29.25 0
    endloop
  endfacet
  facet normal 1 -0 0
    outer loop
      vertex 12.15 23.125 4
      vertex 12.15 29.25 0
      vertex 12.15 29.25 4
    endloop
  endfacet
  facet normal 1 0 0
    outer loop
      vertex 12.15 29.25 0
      vertex 12.15 23.125 4
      vertex 12.15 23.125 0
    endloop
  endfacet
  facet normal 0 1 -0
    outer loop
      vertex 37.15 23.125 0
      vertex 12.15 23.125 4
      vertex 37.15 23.125 4
    endloop
  endfacet
  facet normal 0 1 0
    outer loop
      vertex 12.15 23.125 4
      vertex 37.15 23.125 0
      vertex 12.15 23.125 0
    endloop
  endfacet
  facet normal -1 0 0
    outer loop
      vertex 37.15 23.125 0
      vertex 37.15 29.25 4
      vertex 37.15 29.25 0
    endloop
  endfacet
  facet normal -1 -0 0
    outer loop
      vertex 37.15 29.25 4
      vertex 37.15 23.125 0
      vertex 37.15 23.125 4
    endloop
  endfacet
  facet normal 0.0626694 0.998034 -0
    outer loop
      vertex 36.3567 45.3034 0
      vertex 36.25 45.3101 4
      vertex 36.3567 45.3034 4
    endloop
  endfacet
  facet normal 0.0626694 0.998034 0
    outer loop
      vertex 36.25 45.3101 4
      vertex 36.3567 45.3034 0
      vertex 36.25 45.3101 0
    endloop
  endfacet
  facet normal -0.187263 0.98231 0
    outer loop
      vertex 36.7753 45.3832 0
      vertex 36.3567 45.3034 4
      vertex 36.7753 45.3832 4
    endloop
  endfacet
  facet normal -0.187263 0.98231 0
    outer loop
      vertex 36.3567 45.3034 4
      vertex 36.7753 45.3832 0
      vertex 36.3567 45.3034 0
    endloop
  endfacet
  facet normal -0.425876 0.904781 0
    outer loop
      vertex 37.1609 45.5647 0
      vertex 36.7753 45.3832 4
      vertex 37.1609 45.5647 4
    endloop
  endfacet
  facet normal -0.425876 0.904781 0
    outer loop
      vertex 36.7753 45.3832 4
      vertex 37.1609 45.5647 0
      vertex 36.7753 45.3832 0
    endloop
  endfacet
  facet normal -0.637433 0.770506 0
    outer loop
      vertex 37.4892 45.8363 0
      vertex 37.1609 45.5647 4
      vertex 37.4892 45.8363 4
    endloop
  endfacet
  facet normal -0.637433 0.770506 0
    outer loop
      vertex 37.1609 45.5647 4
      vertex 37.4892 45.8363 0
      vertex 37.1609 45.5647 0
    endloop
  endfacet
  facet normal -0.808949 0.587879 0
    outer loop
      vertex 37.4892 45.8363 0
      vertex 37.7397 46.181 4
      vertex 37.7397 46.181 0
    endloop
  endfacet
  facet normal -0.808949 0.587879 0
    outer loop
      vertex 37.7397 46.181 4
      vertex 37.4892 45.8363 0
      vertex 37.4892 45.8363 4
    endloop
  endfacet
  facet normal -0.92975 0.368192 0
    outer loop
      vertex 37.7397 46.181 0
      vertex 37.8966 46.5772 4
      vertex 37.8966 46.5772 0
    endloop
  endfacet
  facet normal -0.92975 0.368192 0
    outer loop
      vertex 37.8966 46.5772 4
      vertex 37.7397 46.181 0
      vertex 37.7397 46.181 4
    endloop
  endfacet
  facet normal -0.992118 0.125305 0
    outer loop
      vertex 37.8966 46.5772 0
      vertex 37.95 47 4
      vertex 37.95 47 0
    endloop
  endfacet
  facet normal -0.992118 0.125305 0
    outer loop
      vertex 37.95 47 4
      vertex 37.8966 46.5772 0
      vertex 37.8966 46.5772 4
    endloop
  endfacet
  facet normal -0.992118 -0.125305 0
    outer loop
      vertex 37.95 47 0
      vertex 37.8966 47.4228 4
      vertex 37.8966 47.4228 0
    endloop
  endfacet
  facet normal -0.992118 -0.125305 0
    outer loop
      vertex 37.8966 47.4228 4
      vertex 37.95 47 0
      vertex 37.95 47 4
    endloop
  endfacet
  facet normal -0.92975 -0.368192 0
    outer loop
      vertex 37.8966 47.4228 0
      vertex 37.7397 47.819 4
      vertex 37.7397 47.819 0
    endloop
  endfacet
  facet normal -0.92975 -0.368192 0
    outer loop
      vertex 37.7397 47.819 4
      vertex 37.8966 47.4228 0
      vertex 37.8966 47.4228 4
    endloop
  endfacet
  facet normal -0.808949 -0.587879 0
    outer loop
      vertex 37.7397 47.819 0
      vertex 37.4892 48.1637 4
      vertex 37.4892 48.1637 0
    endloop
  endfacet
  facet normal -0.808949 -0.587879 0
    outer loop
      vertex 37.4892 48.1637 4
      vertex 37.7397 47.819 0
      vertex 37.7397 47.819 4
    endloop
  endfacet
  facet normal -0.637433 -0.770506 0
    outer loop
      vertex 37.1609 48.4353 0
      vertex 37.4892 48.1637 4
      vertex 37.1609 48.4353 4
    endloop
  endfacet
  facet normal -0.637433 -0.770506 -0
    outer loop
      vertex 37.4892 48.1637 4
      vertex 37.1609 48.4353 0
      vertex 37.4892 48.1637 0
    endloop
  endfacet
  facet normal -0.425876 -0.904781 0
    outer loop
      vertex 36.7753 48.6168 0
      vertex 37.1609 48.4353 4
      vertex 36.7753 48.6168 4
    endloop
  endfacet
  facet normal -0.425876 -0.904781 -0
    outer loop
      vertex 37.1609 48.4353 4
      vertex 36.7753 48.6168 0
      vertex 37.1609 48.4353 0
    endloop
  endfacet
  facet normal -0.187263 -0.98231 0
    outer loop
      vertex 36.3567 48.6966 0
      vertex 36.7753 48.6168 4
      vertex 36.3567 48.6966 4
    endloop
  endfacet
  facet normal -0.187263 -0.98231 -0
    outer loop
      vertex 36.7753 48.6168 4
      vertex 36.3567 48.6966 0
      vertex 36.7753 48.6168 0
    endloop
  endfacet
  facet normal 0.0626694 -0.998034 0
    outer loop
      vertex 36.25 48.6899 0
      vertex 36.3567 48.6966 4
      vertex 36.25 48.6899 4
    endloop
  endfacet
  facet normal 0.0626694 -0.998034 0
    outer loop
      vertex 36.3567 48.6966 4
      vertex 36.25 48.6899 0
      vertex 36.3567 48.6966 0
    endloop
  endfacet
  facet normal -1 0 0
    outer loop
      vertex 36.25 48.6899 0
      vertex 36.25 48.7 4
      vertex 36.25 48.7 0
    endloop
  endfacet
  facet normal -1 -0 0
    outer loop
      vertex 36.25 48.7 4
      vertex 36.25 48.6899 0
      vertex 36.25 48.6899 4
    endloop
  endfacet
  facet normal 0 -1 0
    outer loop
      vertex 33.65 48.7 0
      vertex 36.25 48.7 4
      vertex 33.65 48.7 4
    endloop
  endfacet
  facet normal 0 -1 -0
    outer loop
      vertex 36.25 48.7 4
      vertex 33.65 48.7 0
      vertex 36.25 48.7 0
    endloop
  endfacet
  facet normal 1 -0 0
    outer loop
      vertex 33.65 48.6899 4
      vertex 33.65 48.7 0
      vertex 33.65 48.7 4
    endloop
  endfacet
  facet normal 1 0 0
    outer loop
      vertex 33.65 48.7 0
      vertex 33.65 48.6899 4
      vertex 33.65 48.6899 0
    endloop
  endfacet
  facet normal 0.0626709 -0.998034 0
    outer loop
      vertex 33.3315 48.6699 0
      vertex 33.65 48.6899 4
      vertex 33.3315 48.6699 4
    endloop
  endfacet
  facet normal 0.0626709 -0.998034 0
    outer loop
      vertex 33.65 48.6899 4
      vertex 33.3315 48.6699 0
      vertex 33.65 48.6899 0
    endloop
  endfacet
  facet normal 0.309038 -0.95105 0
    outer loop
      vertex 32.9262 48.5382 0
      vertex 33.3315 48.6699 4
      vertex 32.9262 48.5382 4
    endloop
  endfacet
  facet normal 0.309038 -0.95105 0
    outer loop
      vertex 33.3315 48.6699 4
      vertex 32.9262 48.5382 0
      vertex 33.3315 48.6699 0
    endloop
  endfacet
  facet normal 0.535767 -0.844366 0
    outer loop
      vertex 32.5664 48.3099 0
      vertex 32.9262 48.5382 4
      vertex 32.5664 48.3099 4
    endloop
  endfacet
  facet normal 0.535767 -0.844366 0
    outer loop
      vertex 32.9262 48.5382 4
      vertex 32.5664 48.3099 0
      vertex 32.9262 48.5382 0
    endloop
  endfacet
  facet normal 0.729047 -0.684464 0
    outer loop
      vertex 32.2747 47.9992 4
      vertex 32.5664 48.3099 0
      vertex 32.5664 48.3099 4
    endloop
  endfacet
  facet normal 0.729047 -0.684464 0
    outer loop
      vertex 32.5664 48.3099 0
      vertex 32.2747 47.9992 4
      vertex 32.2747 47.9992 0
    endloop
  endfacet
  facet normal 0.876285 -0.481793 0
    outer loop
      vertex 32.0694 47.6258 4
      vertex 32.2747 47.9992 0
      vertex 32.2747 47.9992 4
    endloop
  endfacet
  facet normal 0.876285 -0.481793 0
    outer loop
      vertex 32.2747 47.9992 0
      vertex 32.0694 47.6258 4
      vertex 32.0694 47.6258 0
    endloop
  endfacet
  facet normal 0.968562 -0.248771 0
    outer loop
      vertex 31.9634 47.2131 4
      vertex 32.0694 47.6258 0
      vertex 32.0694 47.6258 4
    endloop
  endfacet
  facet normal 0.968562 -0.248771 0
    outer loop
      vertex 32.0694 47.6258 0
      vertex 31.9634 47.2131 4
      vertex 31.9634 47.2131 0
    endloop
  endfacet
  facet normal 1 -0 0
    outer loop
      vertex 31.9634 46.7869 4
      vertex 31.9634 47.2131 0
      vertex 31.9634 47.2131 4
    endloop
  endfacet
  facet normal 1 0 0
    outer loop
      vertex 31.9634 47.2131 0
      vertex 31.9634 46.7869 4
      vertex 31.9634 46.7869 0
    endloop
  endfacet
  facet normal 0.968562 0.248771 0
    outer loop
      vertex 32.0694 46.3742 4
      vertex 31.9634 46.7869 0
      vertex 31.9634 46.7869 4
    endloop
  endfacet
  facet normal 0.968562 0.248771 0
    outer loop
      vertex 31.9634 46.7869 0
      vertex 32.0694 46.3742 4
      vertex 32.0694 46.3742 0
    endloop
  endfacet
  facet normal 0.876285 0.481793 0
    outer loop
      vertex 32.2747 46.0008 4
      vertex 32.0694 46.3742 0
      vertex 32.0694 46.3742 4
    endloop
  endfacet
  facet normal 0.876285 0.481793 0
    outer loop
      vertex 32.0694 46.3742 0
      vertex 32.2747 46.0008 4
      vertex 32.2747 46.0008 0
    endloop
  endfacet
  facet normal 0.729047 0.684464 0
    outer loop
      vertex 32.5664 45.6901 4
      vertex 32.2747 46.0008 0
      vertex 32.2747 46.0008 4
    endloop
  endfacet
  facet normal 0.729047 0.684464 0
    outer loop
      vertex 32.2747 46.0008 0
      vertex 32.5664 45.6901 4
      vertex 32.5664 45.6901 0
    endloop
  endfacet
  facet normal 0.535767 0.844366 -0
    outer loop
      vertex 32.9262 45.4618 0
      vertex 32.5664 45.6901 4
      vertex 32.9262 45.4618 4
    endloop
  endfacet
  facet normal 0.535767 0.844366 0
    outer loop
      vertex 32.5664 45.6901 4
      vertex 32.9262 45.4618 0
      vertex 32.5664 45.6901 0
    endloop
  endfacet
  facet normal 0.309038 0.95105 -0
    outer loop
      vertex 33.3315 45.3301 0
      vertex 32.9262 45.4618 4
      vertex 33.3315 45.3301 4
    endloop
  endfacet
  facet normal 0.309038 0.95105 0
    outer loop
      vertex 32.9262 45.4618 4
      vertex 33.3315 45.3301 0
      vertex 32.9262 45.4618 0
    endloop
  endfacet
  facet normal 0.0626709 0.998034 -0
    outer loop
      vertex 33.65 45.3101 0
      vertex 33.3315 45.3301 4
      vertex 33.65 45.3101 4
    endloop
  endfacet
  facet normal 0.0626709 0.998034 0
    outer loop
      vertex 33.3315 45.3301 4
      vertex 33.65 45.3101 0
      vertex 33.3315 45.3301 0
    endloop
  endfacet
  facet normal 1 -0 0
    outer loop
      vertex 33.65 45.3 4
      vertex 33.65 45.3101 0
      vertex 33.65 45.3101 4
    endloop
  endfacet
  facet normal 1 0 0
    outer loop
      vertex 33.65 45.3101 0
      vertex 33.65 45.3 4
      vertex 33.65 45.3 0
    endloop
  endfacet
  facet normal 0 1 -0
    outer loop
      vertex 36.25 45.3 0
      vertex 33.65 45.3 4
      vertex 36.25 45.3 4
    endloop
  endfacet
  facet normal 0 1 0
    outer loop
      vertex 33.65 45.3 4
      vertex 36.25 45.3 0
      vertex 33.65 45.3 0
    endloop
  endfacet
  facet normal -1 0 0
    outer loop
      vertex 36.25 45.3 0
      vertex 36.25 45.3101 4
      vertex 36.25 45.3101 0
    endloop
  endfacet
  facet normal -1 -0 0
    outer loop
      vertex 36.25 45.3101 4
      vertex 36.25 45.3 0
      vertex 36.25 45.3 4
    endloop
  endfacet
  facet normal 0.0626694 0.998034 -0
    outer loop
      vertex 36.3567 11.3034 0
      vertex 36.25 11.3101 4
      vertex 36.3567 11.3034 4
    endloop
  endfacet
  facet normal 0.0626694 0.998034 0
    outer loop
      vertex 36.25 11.3101 4
      vertex 36.3567 11.3034 0
      vertex 36.25 11.3101 0
    endloop
  endfacet
  facet normal -0.187263 0.98231 0
    outer loop
      vertex 36.7753 11.3832 0
      vertex 36.3567 11.3034 4
      vertex 36.7753 11.3832 4
    endloop
  endfacet
  facet normal -0.187263 0.98231 0
    outer loop
      vertex 36.3567 11.3034 4
      vertex 36.7753 11.3832 0
      vertex 36.3567 11.3034 0
    endloop
  endfacet
  facet normal -0.425876 0.904781 0
    outer loop
      vertex 37.1609 11.5647 0
      vertex 36.7753 11.3832 4
      vertex 37.1609 11.5647 4
    endloop
  endfacet
  facet normal -0.425876 0.904781 0
    outer loop
      vertex 36.7753 11.3832 4
      vertex 37.1609 11.5647 0
      vertex 36.7753 11.3832 0
    endloop
  endfacet
  facet normal -0.637433 0.770506 0
    outer loop
      vertex 37.4892 11.8363 0
      vertex 37.1609 11.5647 4
      vertex 37.4892 11.8363 4
    endloop
  endfacet
  facet normal -0.637433 0.770506 0
    outer loop
      vertex 37.1609 11.5647 4
      vertex 37.4892 11.8363 0
      vertex 37.1609 11.5647 0
    endloop
  endfacet
  facet normal -0.808949 0.587879 0
    outer loop
      vertex 37.4892 11.8363 0
      vertex 37.7397 12.181 4
      vertex 37.7397 12.181 0
    endloop
  endfacet
  facet normal -0.808949 0.587879 0
    outer loop
      vertex 37.7397 12.181 4
      vertex 37.4892 11.8363 0
      vertex 37.4892 11.8363 4
    endloop
  endfacet
  facet normal -0.92975 0.368192 0
    outer loop
      vertex 37.7397 12.181 0
      vertex 37.8966 12.5772 4
      vertex 37.8966 12.5772 0
    endloop
  endfacet
  facet normal -0.92975 0.368192 0
    outer loop
      vertex 37.8966 12.5772 4
      vertex 37.7397 12.181 0
      vertex 37.7397 12.181 4
    endloop
  endfacet
  facet normal -0.992118 0.125305 0
    outer loop
      vertex 37.8966 12.5772 0
      vertex 37.95 13 4
      vertex 37.95 13 0
    endloop
  endfacet
  facet normal -0.992118 0.125305 0
    outer loop
      vertex 37.95 13 4
      vertex 37.8966 12.5772 0
      vertex 37.8966 12.5772 4
    endloop
  endfacet
  facet normal -0.992118 -0.125305 0
    outer loop
      vertex 37.95 13 0
      vertex 37.8966 13.4228 4
      vertex 37.8966 13.4228 0
    endloop
  endfacet
  facet normal -0.992118 -0.125305 0
    outer loop
      vertex 37.8966 13.4228 4
      vertex 37.95 13 0
      vertex 37.95 13 4
    endloop
  endfacet
  facet normal -0.92975 -0.368192 0
    outer loop
      vertex 37.8966 13.4228 0
      vertex 37.7397 13.819 4
      vertex 37.7397 13.819 0
    endloop
  endfacet
  facet normal -0.92975 -0.368192 0
    outer loop
      vertex 37.7397 13.819 4
      vertex 37.8966 13.4228 0
      vertex 37.8966 13.4228 4
    endloop
  endfacet
  facet normal -0.808949 -0.587879 0
    outer loop
      vertex 37.7397 13.819 0
      vertex 37.4892 14.1637 4
      vertex 37.4892 14.1637 0
    endloop
  endfacet
  facet normal -0.808949 -0.587879 0
    outer loop
      vertex 37.4892 14.1637 4
      vertex 37.7397 13.819 0
      vertex 37.7397 13.819 4
    endloop
  endfacet
  facet normal -0.637433 -0.770506 0
    outer loop
      vertex 37.1609 14.4353 0
      vertex 37.4892 14.1637 4
      vertex 37.1609 14.4353 4
    endloop
  endfacet
  facet normal -0.637433 -0.770506 -0
    outer loop
      vertex 37.4892 14.1637 4
      vertex 37.1609 14.4353 0
      vertex 37.4892 14.1637 0
    endloop
  endfacet
  facet normal -0.425876 -0.904781 0
    outer loop
      vertex 36.7753 14.6168 0
      vertex 37.1609 14.4353 4
      vertex 36.7753 14.6168 4
    endloop
  endfacet
  facet normal -0.425876 -0.904781 -0
    outer loop
      vertex 37.1609 14.4353 4
      vertex 36.7753 14.6168 0
      vertex 37.1609 14.4353 0
    endloop
  endfacet
  facet normal -0.187263 -0.98231 0
    outer loop
      vertex 36.3567 14.6966 0
      vertex 36.7753 14.6168 4
      vertex 36.3567 14.6966 4
    endloop
  endfacet
  facet normal -0.187263 -0.98231 -0
    outer loop
      vertex 36.7753 14.6168 4
      vertex 36.3567 14.6966 0
      vertex 36.7753 14.6168 0
    endloop
  endfacet
  facet normal 0.0626694 -0.998034 0
    outer loop
      vertex 36.25 14.6899 0
      vertex 36.3567 14.6966 4
      vertex 36.25 14.6899 4
    endloop
  endfacet
  facet normal 0.0626694 -0.998034 0
    outer loop
      vertex 36.3567 14.6966 4
      vertex 36.25 14.6899 0
      vertex 36.3567 14.6966 0
    endloop
  endfacet
  facet normal -1 0 0
    outer loop
      vertex 36.25 14.6899 0
      vertex 36.25 14.7 4
      vertex 36.25 14.7 0
    endloop
  endfacet
  facet normal -1 -0 0
    outer loop
      vertex 36.25 14.7 4
      vertex 36.25 14.6899 0
      vertex 36.25 14.6899 4
    endloop
  endfacet
  facet normal 0 -1 0
    outer loop
      vertex 33.65 14.7 0
      vertex 36.25 14.7 4
      vertex 33.65 14.7 4
    endloop
  endfacet
  facet normal 0 -1 -0
    outer loop
      vertex 36.25 14.7 4
      vertex 33.65 14.7 0
      vertex 36.25 14.7 0
    endloop
  endfacet
  facet normal 1 -0 0
    outer loop
      vertex 33.65 14.6899 4
      vertex 33.65 14.7 0
      vertex 33.65 14.7 4
    endloop
  endfacet
  facet normal 1 0 0
    outer loop
      vertex 33.65 14.7 0
      vertex 33.65 14.6899 4
      vertex 33.65 14.6899 0
    endloop
  endfacet
  facet normal 0.0626709 -0.998034 0
    outer loop
      vertex 33.3315 14.6699 0
      vertex 33.65 14.6899 4
      vertex 33.3315 14.6699 4
    endloop
  endfacet
  facet normal 0.0626709 -0.998034 0
    outer loop
      vertex 33.65 14.6899 4
      vertex 33.3315 14.6699 0
      vertex 33.65 14.6899 0
    endloop
  endfacet
  facet normal 0.309038 -0.95105 0
    outer loop
      vertex 32.9262 14.5382 0
      vertex 33.3315 14.6699 4
      vertex 32.9262 14.5382 4
    endloop
  endfacet
  facet normal 0.309038 -0.95105 0
    outer loop
      vertex 33.3315 14.6699 4
      vertex 32.9262 14.5382 0
      vertex 33.3315 14.6699 0
    endloop
  endfacet
  facet normal 0.535767 -0.844366 0
    outer loop
      vertex 32.5664 14.3099 0
      vertex 32.9262 14.5382 4
      vertex 32.5664 14.3099 4
    endloop
  endfacet
  facet normal 0.535767 -0.844366 0
    outer loop
      vertex 32.9262 14.5382 4
      vertex 32.5664 14.3099 0
      vertex 32.9262 14.5382 0
    endloop
  endfacet
  facet normal 0.729047 -0.684464 0
    outer loop
      vertex 32.2747 13.9992 4
      vertex 32.5664 14.3099 0
      vertex 32.5664 14.3099 4
    endloop
  endfacet
  facet normal 0.729047 -0.684464 0
    outer loop
      vertex 32.5664 14.3099 0
      vertex 32.2747 13.9992 4
      vertex 32.2747 13.9992 0
    endloop
  endfacet
  facet normal 0.876285 -0.481793 0
    outer loop
      vertex 32.0694 13.6258 4
      vertex 32.2747 13.9992 0
      vertex 32.2747 13.9992 4
    endloop
  endfacet
  facet normal 0.876285 -0.481793 0
    outer loop
      vertex 32.2747 13.9992 0
      vertex 32.0694 13.6258 4
      vertex 32.0694 13.6258 0
    endloop
  endfacet
  facet normal 0.968562 -0.248771 0
    outer loop
      vertex 31.9634 13.2131 4
      vertex 32.0694 13.6258 0
      vertex 32.0694 13.6258 4
    endloop
  endfacet
  facet normal 0.968562 -0.248771 0
    outer loop
      vertex 32.0694 13.6258 0
      vertex 31.9634 13.2131 4
      vertex 31.9634 13.2131 0
    endloop
  endfacet
  facet normal 1 -0 0
    outer loop
      vertex 31.9634 12.7869 4
      vertex 31.9634 13.2131 0
      vertex 31.9634 13.2131 4
    endloop
  endfacet
  facet normal 1 0 0
    outer loop
      vertex 31.9634 13.2131 0
      vertex 31.9634 12.7869 4
      vertex 31.9634 12.7869 0
    endloop
  endfacet
  facet normal 0.968562 0.248771 0
    outer loop
      vertex 32.0694 12.3742 4
      vertex 31.9634 12.7869 0
      vertex 31.9634 12.7869 4
    endloop
  endfacet
  facet normal 0.968562 0.248771 0
    outer loop
      vertex 31.9634 12.7869 0
      vertex 32.0694 12.3742 4
      vertex 32.0694 12.3742 0
    endloop
  endfacet
  facet normal 0.876285 0.481793 0
    outer loop
      vertex 32.2747 12.0008 4
      vertex 32.0694 12.3742 0
      vertex 32.0694 12.3742 4
    endloop
  endfacet
  facet normal 0.876285 0.481793 0
    outer loop
      vertex 32.0694 12.3742 0
      vertex 32.2747 12.0008 4
      vertex 32.2747 12.0008 0
    endloop
  endfacet
  facet normal 0.729047 0.684464 0
    outer loop
      vertex 32.5664 11.6901 4
      vertex 32.2747 12.0008 0
      vertex 32.2747 12.0008 4
    endloop
  endfacet
  facet normal 0.729047 0.684464 0
    outer loop
      vertex 32.2747 12.0008 0
      vertex 32.5664 11.6901 4
      vertex 32.5664 11.6901 0
    endloop
  endfacet
  facet normal 0.535767 0.844366 -0
    outer loop
      vertex 32.9262 11.4618 0
      vertex 32.5664 11.6901 4
      vertex 32.9262 11.4618 4
    endloop
  endfacet
  facet normal 0.535767 0.844366 0
    outer loop
      vertex 32.5664 11.6901 4
      vertex 32.9262 11.4618 0
      vertex 32.5664 11.6901 0
    endloop
  endfacet
  facet normal 0.309038 0.95105 -0
    outer loop
      vertex 33.3315 11.3301 0
      vertex 32.9262 11.4618 4
      vertex 33.3315 11.3301 4
    endloop
  endfacet
  facet normal 0.309038 0.95105 0
    outer loop
      vertex 32.9262 11.4618 4
      vertex 33.3315 11.3301 0
      vertex 32.9262 11.4618 0
    endloop
  endfacet
  facet normal 0.0626709 0.998034 -0
    outer loop
      vertex 33.65 11.3101 0
      vertex 33.3315 11.3301 4
      vertex 33.65 11.3101 4
    endloop
  endfacet
  facet normal 0.0626709 0.998034 0
    outer loop
      vertex 33.3315 11.3301 4
      vertex 33.65 11.3101 0
      vertex 33.3315 11.3301 0
    endloop
  endfacet
  facet normal 1 -0 0
    outer loop
      vertex 33.65 11.3 4
      vertex 33.65 11.3101 0
      vertex 33.65 11.3101 4
    endloop
  endfacet
  facet normal 1 0 0
    outer loop
      vertex 33.65 11.3101 0
      vertex 33.65 11.3 4
      vertex 33.65 11.3 0
    endloop
  endfacet
  facet normal 0 1 -0
    outer loop
      vertex 36.25 11.3 0
      vertex 33.65 11.3 4
      vertex 36.25 11.3 4
    endloop
  endfacet
  facet normal 0 1 0
    outer loop
      vertex 33.65 11.3 4
      vertex 36.25 11.3 0
      vertex 33.65 11.3 0
    endloop
  endfacet
  facet normal -1 0 0
    outer loop
      vertex 36.25 11.3 0
      vertex 36.25 11.3101 4
      vertex 36.25 11.3101 0
    endloop
  endfacet
  facet normal -1 -0 0
    outer loop
      vertex 36.25 11.3101 4
      vertex 36.25 11.3 0
      vertex 36.25 11.3 4
    endloop
  endfacet
endsolid OpenSCAD_Model
