<?xml version="1.0" encoding="UTF-8"?>
<!DOCTYPE svg PUBLIC "-//W3C//DTD SVG 1.1//EN" "http://www.w3.org/Graphics/SVG/1.1/DTD/svg11.dtd">
<!-- Creator: CorelDRAW -->
<svg xmlns="http://www.w3.org/2000/svg" xml:space="preserve" width="210mm" height="297mm" style="shape-rendering:geometricPrecision; text-rendering:geometricPrecision; image-rendering:optimizeQuality; fill-rule:evenodd; clip-rule:evenodd"
viewBox="0 0 210 297"
 xmlns:xlink="http://www.w3.org/1999/xlink">
 <defs>
  <style type="text/css">
   <![CDATA[
    .str0 {stroke:black;stroke-width:0.5644}
    .fil0 {fill:none;fill-rule:nonzero}
   ]]>
  </style>
 </defs>
 <g id="Layer_x0020_1">
  <metadata id="CorelCorpID_0Corel-Layer"/>
  <g id="OOBB-PL-02-01.pdf">
   <path id="_123414504" class="fil0 str0" d="M-11.4989 290.5l22.9993 0c2.7701,0 4.9996,2.2309 4.9996,5.0009l0 3.0001c0,2.7696 -2.2295,4.9992 -4.9996,4.9992l-22.9993 0c-2.77,0 -5.001,-2.2296 -5.001,-4.9992l0 -3.0001c0,-2.77 2.231,-5.0009 5.001,-5.0009zm0 0z"/>
   <path id="_120285232" class="fil0 str0" d="M-11.4989 300l0 -0.4011c-0.4561,-0.2632 -0.8354,-0.6435 -1.0986,-1.0982l-0.4021 0 0 -1.5008 0 -1.4993 0.4021 0c0.2632,-0.4561 0.6425,-0.8353 1.0986,-1.0985l0 -0.4022 1.4993 0 1.5007 0 0 0.4022c0.4547,0.2632 0.835,0.6424 1.0982,1.0985l0.4011 0 0 1.4993 0 1.5008 -0.4011 0c-0.2632,0.4547 -0.6435,0.835 -1.0982,1.0982l0 0.4011 -1.5007 0 -1.4993 0zm0 0z"/>
   <path id="_120286840" class="fil0 str0" d="M8.5004 300l0 -0.4011c-0.4547,-0.2632 -0.835,-0.6435 -1.0982,-1.0982l-0.4011 0 0 -1.5008 0 -1.4993 0.4011 0c0.2632,-0.4561 0.6435,-0.8353 1.0982,-1.0985l0 -0.4022 1.5007 0 1.4993 0 0 0.4022c0.4548,0.2632 0.8351,0.6424 1.0982,1.0985l0.4026 0 0 1.4993 0 1.5008 -0.4026 0c-0.2631,0.4547 -0.6434,0.835 -1.0982,1.0982l0 0.4011 -1.4993 0 -1.5007 0zm0 0z"/>
   <polygon id="_120285256" class="fil0 str0" points="-2.9994,295.501 3.0006,295.501 3.0006,298.501 -2.9994,298.501 "/>
  </g>
 </g>
</svg>
