  0
SECTION
  2
HEADER
  9
$ACADVER
  1
AC1021
  9
$ACADMAINTVER
 70
    25
  9
$DWGCODEPAGE
  3
ANSI_1252
  9
$INSBASE
 10
0.0
 20
0.0
 30
0.0
  9
$EXTMIN
 10
-12.5383
 20
-16.8883
 30
0.0
  9
$EXTMAX
 10
-8.4617
 20
-12.8117
 30
0.0
  9
$LIMMIN
 10
0.0
 20
0.0
  9
$LIMMAX
 10
12.0
 20
9.0
  9
$ORTHOMODE
 70
     0
  9
$REGENMODE
 70
     1
  9
$FILLMODE
 70
     1
  9
$QTEXTMODE
 70
     0
  9
$MIRRTEXT
 70
     1
  9
$LTSCALE
 40
1.0
  9
$ATTMODE
 70
     1
  9
$TEXTSIZE
 40
0.2
  9
$TRACEWID
 40
0.05
  9
$TEXTSTYLE
  7
Standard
  9
$CLAYER
  8
0
  9
$CELTYPE
  6
ByLayer
  9
$CECOLOR
 62
   256
  9
$CELTSCALE
 40
1.0
  9
$DISPSILH
 70
     0
  9
$DIMSCALE
 40
1.0
  9
$DIMASZ
 40
0.18
  9
$DIMEXO
 40
0.0625
  9
$DIMDLI
 40
0.38
  9
$DIMRND
 40
0.0
  9
$DIMDLE
 40
0.0
  9
$DIMEXE
 40
0.18
  9
$DIMTP
 40
0.0
  9
$DIMTM
 40
0.0
  9
$DIMTXT
 40
0.18
  9
$DIMCEN
 40
0.09
  9
$DIMTSZ
 40
0.0
  9
$DIMTOL
 70
     0
  9
$DIMLIM
 70
     0
  9
$DIMTIH
 70
     1
  9
$DIMTOH
 70
     1
  9
$DIMSE1
 70
     0
  9
$DIMSE2
 70
     0
  9
$DIMTAD
 70
     0
  9
$DIMZIN
 70
     0
  9
$DIMBLK
  1

  9
$DIMASO
 70
     1
  9
$DIMSHO
 70
     1
  9
$DIMPOST
  1

  9
$DIMAPOST
  1

  9
$DIMALT
 70
     0
  9
$DIMALTD
 70
     2
  9
$DIMALTF
 40
25.4
  9
$DIMLFAC
 40
1.0
  9
$DIMTOFL
 70
     0
  9
$DIMTVP
 40
0.0
  9
$DIMTIX
 70
     0
  9
$DIMSOXD
 70
     0
  9
$DIMSAH
 70
     0
  9
$DIMBLK1
  1

  9
$DIMBLK2
  1

  9
$DIMSTYLE
  2
Standard
  9
$DIMCLRD
 70
     0
  9
$DIMCLRE
 70
     0
  9
$DIMCLRT
 70
     0
  9
$DIMTFAC
 40
1.0
  9
$DIMGAP
 40
0.09
  9
$DIMJUST
 70
     0
  9
$DIMSD1
 70
     0
  9
$DIMSD2
 70
     0
  9
$DIMTOLJ
 70
     1
  9
$DIMTZIN
 70
     0
  9
$DIMALTZ
 70
     0
  9
$DIMALTTZ
 70
     0
  9
$DIMUPT
 70
     0
  9
$DIMDEC
 70
     4
  9
$DIMTDEC
 70
     4
  9
$DIMALTU
 70
     2
  9
$DIMALTTD
 70
     2
  9
$DIMTXSTY
  7
Standard
  9
$DIMAUNIT
 70
     0
  9
$DIMADEC
 70
     0
  9
$DIMALTRND
 40
0.0
  9
$DIMAZIN
 70
     0
  9
$DIMDSEP
 70
    46
  9
$DIMATFIT
 70
     3
  9
$DIMFRAC
 70
     0
  9
$DIMLDRBLK
  1

  9
$DIMLUNIT
 70
     2
  9
$DIMLWD
 70
    -2
  9
$DIMLWE
 70
    -2
  9
$DIMTMOVE
 70
     0
  9
$DIMFXL
 40
1.0
  9
$DIMFXLON
 70
     0
  9
$DIMJOGANG
 40
0.7853981633974483
  9
$DIMTFILL
 70
     0
  9
$DIMTFILLCLR
 70
     0
  9
$DIMARCSYM
 70
     0
  9
$DIMLTYPE
  6

  9
$DIMLTEX1
  6

  9
$DIMLTEX2
  6

  9
$LUNITS
 70
     2
  9
$LUPREC
 70
     4
  9
$SKETCHINC
 40
0.1
  9
$FILLETRAD
 40
0.5
  9
$AUNITS
 70
     0
  9
$AUPREC
 70
     0
  9
$MENU
  1
.
  9
$ELEVATION
 40
0.0
  9
$PELEVATION
 40
0.0
  9
$THICKNESS
 40
0.0
  9
$LIMCHECK
 70
     0
  9
$CHAMFERA
 40
0.5
  9
$CHAMFERB
 40
0.5
  9
$CHAMFERC
 40
1.0
  9
$CHAMFERD
 40
0.0
  9
$SKPOLY
 70
     0
  9
$TDCREATE
 40
2457807.048409838
  9
$TDUCREATE
 40
2457807.048409838
  9
$TDUPDATE
 40
2457807.048409849
  9
$TDUUPDATE
 40
2457807.048409849
  9
$TDINDWG
 40
0.0000000116
  9
$TDUSRTIMER
 40
0.0000000116
  9
$USRTIMER
 70
     1
  9
$ANGBASE
 50
0.0
  9
$ANGDIR
 70
     0
  9
$PDMODE
 70
     0
  9
$PDSIZE
 40
0.0
  9
$PLINEWID
 40
0.0
  9
$SPLFRAME
 70
     0
  9
$SPLINETYPE
 70
     6
  9
$SPLINESEGS
 70
     8
  9
$HANDSEED
  5
6C
  9
$SURFTAB1
 70
     6
  9
$SURFTAB2
 70
     6
  9
$SURFTYPE
 70
     6
  9
$SURFU
 70
     6
  9
$SURFV
 70
     6
  9
$UCSBASE
  2

  9
$UCSNAME
  2

  9
$UCSORG
 10
0.0
 20
0.0
 30
0.0
  9
$UCSXDIR
 10
1.0
 20
0.0
 30
0.0
  9
$UCSYDIR
 10
0.0
 20
1.0
 30
0.0
  9
$UCSORTHOREF
  2

  9
$UCSORTHOVIEW
 70
     0
  9
$UCSORGTOP
 10
0.0
 20
0.0
 30
0.0
  9
$UCSORGBOTTOM
 10
0.0
 20
0.0
 30
0.0
  9
$UCSORGLEFT
 10
0.0
 20
0.0
 30
0.0
  9
$UCSORGRIGHT
 10
0.0
 20
0.0
 30
0.0
  9
$UCSORGFRONT
 10
0.0
 20
0.0
 30
0.0
  9
$UCSORGBACK
 10
0.0
 20
0.0
 30
0.0
  9
$PUCSBASE
  2

  9
$PUCSNAME
  2

  9
$PUCSORG
 10
0.0
 20
0.0
 30
0.0
  9
$PUCSXDIR
 10
1.0
 20
0.0
 30
0.0
  9
$PUCSYDIR
 10
0.0
 20
1.0
 30
0.0
  9
$PUCSORTHOREF
  2

  9
$PUCSORTHOVIEW
 70
     0
  9
$PUCSORGTOP
 10
0.0
 20
0.0
 30
0.0
  9
$PUCSORGBOTTOM
 10
0.0
 20
0.0
 30
0.0
  9
$PUCSORGLEFT
 10
0.0
 20
0.0
 30
0.0
  9
$PUCSORGRIGHT
 10
0.0
 20
0.0
 30
0.0
  9
$PUCSORGFRONT
 10
0.0
 20
0.0
 30
0.0
  9
$PUCSORGBACK
 10
0.0
 20
0.0
 30
0.0
  9
$USERI1
 70
     0
  9
$USERI2
 70
     0
  9
$USERI3
 70
     0
  9
$USERI4
 70
     0
  9
$USERI5
 70
     0
  9
$USERR1
 40
0.0
  9
$USERR2
 40
0.0
  9
$USERR3
 40
0.0
  9
$USERR4
 40
0.0
  9
$USERR5
 40
0.0
  9
$WORLDVIEW
 70
     1
  9
$SHADEDGE
 70
     3
  9
$SHADEDIF
 70
    70
  9
$TILEMODE
 70
     1
  9
$MAXACTVP
 70
    64
  9
$PINSBASE
 10
0.0
 20
0.0
 30
0.0
  9
$PLIMCHECK
 70
     0
  9
$PEXTMIN
 10
1.000000000000000E+20
 20
1.000000000000000E+20
 30
1.000000000000000E+20
  9
$PEXTMAX
 10
-1.000000000000000E+20
 20
-1.000000000000000E+20
 30
-1.000000000000000E+20
  9
$PLIMMIN
 10
0.0
 20
0.0
  9
$PLIMMAX
 10
12.0
 20
9.0
  9
$UNITMODE
 70
     0
  9
$VISRETAIN
 70
     1
  9
$PLINEGEN
 70
     0
  9
$PSLTSCALE
 70
     1
  9
$TREEDEPTH
 70
  3020
  9
$CMLSTYLE
  2
Standard
  9
$CMLJUST
 70
     0
  9
$CMLSCALE
 40
1.0
  9
$PROXYGRAPHICS
 70
     1
  9
$MEASUREMENT
 70
     0
  9
$CELWEIGHT
370
    -1
  9
$ENDCAPS
280
     0
  9
$JOINSTYLE
280
     0
  9
$LWDISPLAY
290
     0
  9
$INSUNITS
 70
     5
  9
$HYPERLINKBASE
  1

  9
$STYLESHEET
  1

  9
$XEDIT
290
     1
  9
$CEPSNTYPE
380
     0
  9
$PSTYLEMODE
290
     1
  9
$FINGERPRINTGUID
  2
{B2CD56AE-DA55-4565-84D8-FFFA6DB81970}
  9
$VERSIONGUID
  2
{FAEB1C32-E019-11D5-929B-00C0DF256EC4}
  9
$EXTNAMES
290
     1
  9
$PSVPSCALE
 40
0.0
  9
$OLESTARTUP
290
     0
  9
$SORTENTS
280
   127
  9
$INDEXCTL
280
     0
  9
$HIDETEXT
280
     1
  9
$XCLIPFRAME
290
     0
  9
$HALOGAP
280
     0
  9
$OBSCOLOR
 70
   257
  9
$OBSLTYPE
280
     0
  9
$INTERSECTIONDISPLAY
280
     0
  9
$INTERSECTIONCOLOR
 70
   257
  9
$DIMASSOC
280
     2
  9
$PROJECTNAME
  1

  9
$CAMERADISPLAY
290
     0
  9
$LENSLENGTH
 40
50.0
  9
$CAMERAHEIGHT
 40
0.0
  9
$STEPSPERSEC
 40
2.0
  9
$STEPSIZE
 40
6.0
  9
$3DDWFPREC
 40
2.0
  9
$PSOLWIDTH
 40
0.25
  9
$PSOLHEIGHT
 40
4.0
  9
$LOFTANG1
 40
1.570796326794897
  9
$LOFTANG2
 40
1.570796326794897
  9
$LOFTMAG1
 40
0.0
  9
$LOFTMAG2
 40
0.0
  9
$LOFTPARAM
 70
     7
  9
$LOFTNORMALS
280
     1
  9
$LATITUDE
 40
37.795
  9
$LONGITUDE
 40
-122.394
  9
$NORTHDIRECTION
 40
0.0
  9
$TIMEZONE
 70
 -8000
  9
$LIGHTGLYPHDISPLAY
280
     1
  9
$TILEMODELIGHTSYNCH
280
     1
  9
$SOLIDHIST
280
     1
  9
$SHOWHIST
280
     1
  9
$DWFFRAME
280
     2
  9
$DGNFRAME
280
     2
  9
$REALWORLDSCALE
290
     1
  9
$INTERFERECOLOR
 62
   256
  9
$CSHADOW
280
     0
  9
$SHADOWPLANELOCATION
 40
0.0
  0
ENDSEC
  0
SECTION
  2
CLASSES
  0
CLASS
  1
ACDBDICTIONARYWDFLT
  2
AcDbDictionaryWithDefault
  3
ObjectDBX Classes
 90
        0
 91
        3
280
     0
281
     0
  0
CLASS
  1
VISUALSTYLE
  2
AcDbVisualStyle
  3
ObjectDBX Classes
 90
     4095
 91
        3
280
     0
281
     0
  0
CLASS
  1
SCALE
  2
AcDbScale
  3
ObjectDBX Classes
 90
     1153
 91
        3
280
     0
281
     0
  0
ENDSEC
  0
SECTION
  2
TABLES
  0
TABLE
  2
VPORT
  5
8
330
0
100
AcDbSymbolTable
 70
     1
  0
VPORT
  5
29
330
8
100
AcDbSymbolTableRecord
100
AcDbViewportTableRecord
  2
*Active
 70
     0
 10
0.0
 20
0.0
 11
1.0
 21
1.0
 12
10.42990654205607
 22
4.5
 13
0.0
 23
0.0
 14
0.5
 24
0.5
 15
0.5
 25
0.5
 16
0.0
 26
0.0
 36
1.0
 17
0.0
 27
0.0
 37
0.0
 40
9.0
 41
1.972972972850329
 42
50.0
 43
0.0
 44
0.0
 50
0.0
 51
0.0
 71
     0
 72
   100
 73
     1
 74
     3
 75
     0
 76
     0
 77
     0
 78
     0
281
     0
 65
     1
110
0.0
120
0.0
130
0.0
111
1.0
121
0.0
131
0.0
112
0.0
122
1.0
132
0.0
 79
     0
146
0.0
 60
     3
 61
     5
292
     1
282
     1
141
0.0
142
0.0
 63
   256
  0
ENDTAB
  0
TABLE
  2
LTYPE
  5
5
330
0
100
AcDbSymbolTable
 70
     1
  0
LTYPE
  5
14
330
5
100
AcDbSymbolTableRecord
100
AcDbLinetypeTableRecord
  2
ByBlock
 70
     0
  3

 72
    65
 73
     0
 40
0.0
  0
LTYPE
  5
15
330
5
100
AcDbSymbolTableRecord
100
AcDbLinetypeTableRecord
  2
ByLayer
 70
     0
  3

 72
    65
 73
     0
 40
0.0
  0
LTYPE
  5
16
330
5
100
AcDbSymbolTableRecord
100
AcDbLinetypeTableRecord
  2
Continuous
 70
     0
  3
Solid line
 72
    65
 73
     0
 40
0.0
  0
ENDTAB
  0
TABLE
  2
LAYER
  5
2
330
0
100
AcDbSymbolTable
 70
     2
  0
LAYER
  5
10
330
2
100
AcDbSymbolTableRecord
100
AcDbLayerTableRecord
  2
0
 70
     0
 62
     7
  6
Continuous
370
    -3
390
F
347
0
  0
LAYER
  5
5E
330
2
100
AcDbSymbolTableRecord
100
AcDbLayerTableRecord
  2
Layer 1
 70
     0
 62
     7
  6
Continuous
370
    -3
390
F
347
0
  0
ENDTAB
  0
TABLE
  2
STYLE
  5
3
330
0
100
AcDbSymbolTable
 70
     1
  0
STYLE
  5
11
330
3
100
AcDbSymbolTableRecord
100
AcDbTextStyleTableRecord
  2
Standard
 70
     0
 40
0.0
 41
1.0
 50
0.0
 71
     0
 42
0.2
  3
txt
  4

  0
ENDTAB
  0
TABLE
  2
VIEW
  5
6
330
0
100
AcDbSymbolTable
 70
     0
  0
ENDTAB
  0
TABLE
  2
UCS
  5
7
330
0
100
AcDbSymbolTable
 70
     0
  0
ENDTAB
  0
TABLE
  2
APPID
  5
9
330
0
100
AcDbSymbolTable
 70
     2
  0
APPID
  5
12
330
9
100
AcDbSymbolTableRecord
100
AcDbRegAppTableRecord
  2
ACAD
 70
     0
  0
APPID
  5
5D
330
9
100
AcDbSymbolTableRecord
100
AcDbRegAppTableRecord
  2
ODA
 70
     0
  0
ENDTAB
  0
TABLE
  2
DIMSTYLE
  5
A
330
0
100
AcDbSymbolTable
 70
     1
100
AcDbDimStyleTable
  0
DIMSTYLE
105
27
330
A
100
AcDbSymbolTableRecord
100
AcDbDimStyleTableRecord
  2
Standard
 70
     0
340
11
  0
ENDTAB
  0
TABLE
  2
BLOCK_RECORD
  5
1
330
0
100
AcDbSymbolTable
 70
     1
  0
BLOCK_RECORD
  5
1F
330
1
100
AcDbSymbolTableRecord
100
AcDbBlockTableRecord
  2
*Model_Space
340
22
 70
     0
280
     1
281
     0
  0
BLOCK_RECORD
  5
1B
330
1
100
AcDbSymbolTableRecord
100
AcDbBlockTableRecord
  2
*Paper_Space
340
1E
 70
     0
280
     1
281
     0
  0
BLOCK_RECORD
  5
23
330
1
100
AcDbSymbolTableRecord
100
AcDbBlockTableRecord
  2
*Paper_Space0
340
26
 70
     0
280
     1
281
     0
  0
ENDTAB
  0
ENDSEC
  0
SECTION
  2
BLOCKS
  0
BLOCK
  5
20
330
1F
100
AcDbEntity
  8
0
100
AcDbBlockBegin
  2
*Model_Space
 70
     0
 10
0.0
 20
0.0
 30
0.0
  3
*Model_Space
  1

  0
ENDBLK
  5
21
330
1F
100
AcDbEntity
  8
0
100
AcDbBlockEnd
  0
BLOCK
  5
1C
330
1B
100
AcDbEntity
 67
     1
  8
0
100
AcDbBlockBegin
  2
*Paper_Space
 70
     0
 10
0.0
 20
0.0
 30
0.0
  3
*Paper_Space
  1

  0
ENDBLK
  5
1D
330
1B
100
AcDbEntity
 67
     1
  8
0
100
AcDbBlockEnd
  0
BLOCK
  5
24
330
23
100
AcDbEntity
  8
0
100
AcDbBlockBegin
  2
*Paper_Space0
 70
     0
 10
0.0
 20
0.0
 30
0.0
  3
*Paper_Space0
  1

  0
ENDBLK
  5
25
330
23
100
AcDbEntity
  8
0
100
AcDbBlockEnd
  0
ENDSEC
  0
SECTION
  2
ENTITIES
  0
SPLINE
  5
5F
330
1F
100
AcDbEntity
  8
Layer 1
370
    53
100
AcDbSpline
210
0.0
220
0.0
230
1.0
 70
    11
 71
     3
 72
  1988
 73
  1984
 74
     0
 42
0.0000000001
 43
0.0000000001
 40
0.0
 40
0.0
 40
0.0
 40
0.0
 40
0.0020161290322581
 40
0.0020161290322581
 40
0.0020161290322581
 40
0.0020161290322581
 40
0.0040322580645161
 40
0.0040322580645161
 40
0.0040322580645161
 40
0.0040322580645161
 40
0.0060483870967742
 40
0.0060483870967742
 40
0.0060483870967742
 40
0.0060483870967742
 40
0.0080645161290323
 40
0.0080645161290323
 40
0.0080645161290323
 40
0.0080645161290323
 40
0.0100806451612903
 40
0.0100806451612903
 40
0.0100806451612903
 40
0.0100806451612903
 40
0.0120967741935484
 40
0.0120967741935484
 40
0.0120967741935484
 40
0.0120967741935484
 40
0.0141129032258065
 40
0.0141129032258065
 40
0.0141129032258065
 40
0.0141129032258065
 40
0.0161290322580645
 40
0.0161290322580645
 40
0.0161290322580645
 40
0.0161290322580645
 40
0.0181451612903226
 40
0.0181451612903226
 40
0.0181451612903226
 40
0.0181451612903226
 40
0.0201612903225806
 40
0.0201612903225806
 40
0.0201612903225806
 40
0.0201612903225806
 40
0.0221774193548387
 40
0.0221774193548387
 40
0.0221774193548387
 40
0.0221774193548387
 40
0.0241935483870968
 40
0.0241935483870968
 40
0.0241935483870968
 40
0.0241935483870968
 40
0.0262096774193548
 40
0.0262096774193548
 40
0.0262096774193548
 40
0.0262096774193548
 40
0.0282258064516129
 40
0.0282258064516129
 40
0.0282258064516129
 40
0.0282258064516129
 40
0.030241935483871
 40
0.030241935483871
 40
0.030241935483871
 40
0.030241935483871
 40
0.032258064516129
 40
0.032258064516129
 40
0.032258064516129
 40
0.032258064516129
 40
0.0342741935483871
 40
0.0342741935483871
 40
0.0342741935483871
 40
0.0342741935483871
 40
0.0362903225806451
 40
0.0362903225806451
 40
0.0362903225806451
 40
0.0362903225806451
 40
0.0383064516129032
 40
0.0383064516129032
 40
0.0383064516129032
 40
0.0383064516129032
 40
0.0403225806451613
 40
0.0403225806451613
 40
0.0403225806451613
 40
0.0403225806451613
 40
0.0423387096774193
 40
0.0423387096774193
 40
0.0423387096774193
 40
0.0423387096774193
 40
0.0443548387096774
 40
0.0443548387096774
 40
0.0443548387096774
 40
0.0443548387096774
 40
0.0463709677419355
 40
0.0463709677419355
 40
0.0463709677419355
 40
0.0463709677419355
 40
0.0483870967741935
 40
0.0483870967741935
 40
0.0483870967741935
 40
0.0483870967741935
 40
0.0504032258064516
 40
0.0504032258064516
 40
0.0504032258064516
 40
0.0504032258064516
 40
0.0524193548387096
 40
0.0524193548387096
 40
0.0524193548387096
 40
0.0524193548387096
 40
0.0544354838709677
 40
0.0544354838709677
 40
0.0544354838709677
 40
0.0544354838709677
 40
0.0564516129032258
 40
0.0564516129032258
 40
0.0564516129032258
 40
0.0564516129032258
 40
0.0584677419354838
 40
0.0584677419354838
 40
0.0584677419354838
 40
0.0584677419354838
 40
0.0604838709677419
 40
0.0604838709677419
 40
0.0604838709677419
 40
0.0604838709677419
 40
0.0625
 40
0.0625
 40
0.0625
 40
0.0625
 40
0.064516129032258
 40
0.064516129032258
 40
0.064516129032258
 40
0.064516129032258
 40
0.0665322580645161
 40
0.0665322580645161
 40
0.0665322580645161
 40
0.0665322580645161
 40
0.0685483870967741
 40
0.0685483870967741
 40
0.0685483870967741
 40
0.0685483870967741
 40
0.0705645161290322
 40
0.0705645161290322
 40
0.0705645161290322
 40
0.0705645161290322
 40
0.0725806451612903
 40
0.0725806451612903
 40
0.0725806451612903
 40
0.0725806451612903
 40
0.0745967741935483
 40
0.0745967741935483
 40
0.0745967741935483
 40
0.0745967741935483
 40
0.0766129032258064
 40
0.0766129032258064
 40
0.0766129032258064
 40
0.0766129032258064
 40
0.0786290322580645
 40
0.0786290322580645
 40
0.0786290322580645
 40
0.0786290322580645
 40
0.0806451612903225
 40
0.0806451612903225
 40
0.0806451612903225
 40
0.0806451612903225
 40
0.0826612903225806
 40
0.0826612903225806
 40
0.0826612903225806
 40
0.0826612903225806
 40
0.0846774193548386
 40
0.0846774193548386
 40
0.0846774193548386
 40
0.0846774193548386
 40
0.0866935483870967
 40
0.0866935483870967
 40
0.0866935483870967
 40
0.0866935483870967
 40
0.0887096774193548
 40
0.0887096774193548
 40
0.0887096774193548
 40
0.0887096774193548
 40
0.0907258064516128
 40
0.0907258064516128
 40
0.0907258064516128
 40
0.0907258064516128
 40
0.0927419354838709
 40
0.0927419354838709
 40
0.0927419354838709
 40
0.0927419354838709
 40
0.094758064516129
 40
0.094758064516129
 40
0.094758064516129
 40
0.094758064516129
 40
0.096774193548387
 40
0.096774193548387
 40
0.096774193548387
 40
0.096774193548387
 40
0.0987903225806451
 40
0.0987903225806451
 40
0.0987903225806451
 40
0.0987903225806451
 40
0.1008064516129032
 40
0.1008064516129032
 40
0.1008064516129032
 40
0.1008064516129032
 40
0.1028225806451612
 40
0.1028225806451612
 40
0.1028225806451612
 40
0.1028225806451612
 40
0.1048387096774193
 40
0.1048387096774193
 40
0.1048387096774193
 40
0.1048387096774193
 40
0.1068548387096773
 40
0.1068548387096773
 40
0.1068548387096773
 40
0.1068548387096773
 40
0.1088709677419354
 40
0.1088709677419354
 40
0.1088709677419354
 40
0.1088709677419354
 40
0.1108870967741935
 40
0.1108870967741935
 40
0.1108870967741935
 40
0.1108870967741935
 40
0.1129032258064515
 40
0.1129032258064515
 40
0.1129032258064515
 40
0.1129032258064515
 40
0.1149193548387096
 40
0.1149193548387096
 40
0.1149193548387096
 40
0.1149193548387096
 40
0.1169354838709677
 40
0.1169354838709677
 40
0.1169354838709677
 40
0.1169354838709677
 40
0.1189516129032257
 40
0.1189516129032257
 40
0.1189516129032257
 40
0.1189516129032257
 40
0.1209677419354838
 40
0.1209677419354838
 40
0.1209677419354838
 40
0.1209677419354838
 40
0.1229838709677418
 40
0.1229838709677418
 40
0.1229838709677418
 40
0.1229838709677418
 40
0.1249999999999999
 40
0.1249999999999999
 40
0.1249999999999999
 40
0.1249999999999999
 40
0.127016129032258
 40
0.127016129032258
 40
0.127016129032258
 40
0.127016129032258
 40
0.129032258064516
 40
0.129032258064516
 40
0.129032258064516
 40
0.129032258064516
 40
0.1310483870967741
 40
0.1310483870967741
 40
0.1310483870967741
 40
0.1310483870967741
 40
0.1330645161290322
 40
0.1330645161290322
 40
0.1330645161290322
 40
0.1330645161290322
 40
0.1350806451612902
 40
0.1350806451612902
 40
0.1350806451612902
 40
0.1350806451612902
 40
0.1370967741935483
 40
0.1370967741935483
 40
0.1370967741935483
 40
0.1370967741935483
 40
0.1391129032258064
 40
0.1391129032258064
 40
0.1391129032258064
 40
0.1391129032258064
 40
0.1411290322580644
 40
0.1411290322580644
 40
0.1411290322580644
 40
0.1411290322580644
 40
0.1431451612903225
 40
0.1431451612903225
 40
0.1431451612903225
 40
0.1431451612903225
 40
0.1451612903225805
 40
0.1451612903225805
 40
0.1451612903225805
 40
0.1451612903225805
 40
0.1471774193548386
 40
0.1471774193548386
 40
0.1471774193548386
 40
0.1471774193548386
 40
0.1491935483870967
 40
0.1491935483870967
 40
0.1491935483870967
 40
0.1491935483870967
 40
0.1512096774193547
 40
0.1512096774193547
 40
0.1512096774193547
 40
0.1512096774193547
 40
0.1532258064516128
 40
0.1532258064516128
 40
0.1532258064516128
 40
0.1532258064516128
 40
0.1552419354838709
 40
0.1552419354838709
 40
0.1552419354838709
 40
0.1552419354838709
 40
0.1572580645161289
 40
0.1572580645161289
 40
0.1572580645161289
 40
0.1572580645161289
 40
0.159274193548387
 40
0.159274193548387
 40
0.159274193548387
 40
0.159274193548387
 40
0.161290322580645
 40
0.161290322580645
 40
0.161290322580645
 40
0.161290322580645
 40
0.1633064516129031
 40
0.1633064516129031
 40
0.1633064516129031
 40
0.1633064516129031
 40
0.1653225806451612
 40
0.1653225806451612
 40
0.1653225806451612
 40
0.1653225806451612
 40
0.1673387096774192
 40
0.1673387096774192
 40
0.1673387096774192
 40
0.1673387096774192
 40
0.1693548387096773
 40
0.1693548387096773
 40
0.1693548387096773
 40
0.1693548387096773
 40
0.1713709677419354
 40
0.1713709677419354
 40
0.1713709677419354
 40
0.1713709677419354
 40
0.1733870967741934
 40
0.1733870967741934
 40
0.1733870967741934
 40
0.1733870967741934
 40
0.1754032258064515
 40
0.1754032258064515
 40
0.1754032258064515
 40
0.1754032258064515
 40
0.1774193548387095
 40
0.1774193548387095
 40
0.1774193548387095
 40
0.1774193548387095
 40
0.1794354838709676
 40
0.1794354838709676
 40
0.1794354838709676
 40
0.1794354838709676
 40
0.1814516129032257
 40
0.1814516129032257
 40
0.1814516129032257
 40
0.1814516129032257
 40
0.1834677419354837
 40
0.1834677419354837
 40
0.1834677419354837
 40
0.1834677419354837
 40
0.1854838709677418
 40
0.1854838709677418
 40
0.1854838709677418
 40
0.1854838709677418
 40
0.1874999999999999
 40
0.1874999999999999
 40
0.1874999999999999
 40
0.1874999999999999
 40
0.1895161290322579
 40
0.1895161290322579
 40
0.1895161290322579
 40
0.1895161290322579
 40
0.191532258064516
 40
0.191532258064516
 40
0.191532258064516
 40
0.191532258064516
 40
0.193548387096774
 40
0.193548387096774
 40
0.193548387096774
 40
0.193548387096774
 40
0.1955645161290321
 40
0.1955645161290321
 40
0.1955645161290321
 40
0.1955645161290321
 40
0.1975806451612902
 40
0.1975806451612902
 40
0.1975806451612902
 40
0.1975806451612902
 40
0.1995967741935482
 40
0.1995967741935482
 40
0.1995967741935482
 40
0.1995967741935482
 40
0.2016129032258063
 40
0.2016129032258063
 40
0.2016129032258063
 40
0.2016129032258063
 40
0.2036290322580644
 40
0.2036290322580644
 40
0.2036290322580644
 40
0.2036290322580644
 40
0.2056451612903224
 40
0.2056451612903224
 40
0.2056451612903224
 40
0.2056451612903224
 40
0.2076612903225805
 40
0.2076612903225805
 40
0.2076612903225805
 40
0.2076612903225805
 40
0.2096774193548386
 40
0.2096774193548386
 40
0.2096774193548386
 40
0.2096774193548386
 40
0.2116935483870966
 40
0.2116935483870966
 40
0.2116935483870966
 40
0.2116935483870966
 40
0.2137096774193547
 40
0.2137096774193547
 40
0.2137096774193547
 40
0.2137096774193547
 40
0.2157258064516127
 40
0.2157258064516127
 40
0.2157258064516127
 40
0.2157258064516127
 40
0.2177419354838708
 40
0.2177419354838708
 40
0.2177419354838708
 40
0.2177419354838708
 40
0.2197580645161289
 40
0.2197580645161289
 40
0.2197580645161289
 40
0.2197580645161289
 40
0.2217741935483869
 40
0.2217741935483869
 40
0.2217741935483869
 40
0.2217741935483869
 40
0.223790322580645
 40
0.223790322580645
 40
0.223790322580645
 40
0.223790322580645
 40
0.2258064516129031
 40
0.2258064516129031
 40
0.2258064516129031
 40
0.2258064516129031
 40
0.2278225806451611
 40
0.2278225806451611
 40
0.2278225806451611
 40
0.2278225806451611
 40
0.2298387096774192
 40
0.2298387096774192
 40
0.2298387096774192
 40
0.2298387096774192
 40
0.2318548387096772
 40
0.2318548387096772
 40
0.2318548387096772
 40
0.2318548387096772
 40
0.2338709677419353
 40
0.2338709677419353
 40
0.2338709677419353
 40
0.2338709677419353
 40
0.2358870967741934
 40
0.2358870967741934
 40
0.2358870967741934
 40
0.2358870967741934
 40
0.2379032258064514
 40
0.2379032258064514
 40
0.2379032258064514
 40
0.2379032258064514
 40
0.2399193548387095
 40
0.2399193548387095
 40
0.2399193548387095
 40
0.2399193548387095
 40
0.2419354838709676
 40
0.2419354838709676
 40
0.2419354838709676
 40
0.2419354838709676
 40
0.2439516129032256
 40
0.2439516129032256
 40
0.2439516129032256
 40
0.2439516129032256
 40
0.2459677419354837
 40
0.2459677419354837
 40
0.2459677419354837
 40
0.2459677419354837
 40
0.2479838709677417
 40
0.2479838709677417
 40
0.2479838709677417
 40
0.2479838709677417
 40
0.2499999999999998
 40
0.2499999999999998
 40
0.2499999999999998
 40
0.2499999999999998
 40
0.2520161290322579
 40
0.2520161290322579
 40
0.2520161290322579
 40
0.2520161290322579
 40
0.254032258064516
 40
0.254032258064516
 40
0.254032258064516
 40
0.254032258064516
 40
0.256048387096774
 40
0.256048387096774
 40
0.256048387096774
 40
0.256048387096774
 40
0.2580645161290321
 40
0.2580645161290321
 40
0.2580645161290321
 40
0.2580645161290321
 40
0.2600806451612901
 40
0.2600806451612901
 40
0.2600806451612901
 40
0.2600806451612901
 40
0.2620967741935482
 40
0.2620967741935482
 40
0.2620967741935482
 40
0.2620967741935482
 40
0.2641129032258063
 40
0.2641129032258063
 40
0.2641129032258063
 40
0.2641129032258063
 40
0.2661290322580643
 40
0.2661290322580643
 40
0.2661290322580643
 40
0.2661290322580643
 40
0.2681451612903224
 40
0.2681451612903224
 40
0.2681451612903224
 40
0.2681451612903224
 40
0.2701612903225805
 40
0.2701612903225805
 40
0.2701612903225805
 40
0.2701612903225805
 40
0.2721774193548385
 40
0.2721774193548385
 40
0.2721774193548385
 40
0.2721774193548385
 40
0.2741935483870966
 40
0.2741935483870966
 40
0.2741935483870966
 40
0.2741935483870966
 40
0.2762096774193546
 40
0.2762096774193546
 40
0.2762096774193546
 40
0.2762096774193546
 40
0.2782258064516127
 40
0.2782258064516127
 40
0.2782258064516127
 40
0.2782258064516127
 40
0.2802419354838708
 40
0.2802419354838708
 40
0.2802419354838708
 40
0.2802419354838708
 40
0.2822580645161288
 40
0.2822580645161288
 40
0.2822580645161288
 40
0.2822580645161288
 40
0.2842741935483869
 40
0.2842741935483869
 40
0.2842741935483869
 40
0.2842741935483869
 40
0.286290322580645
 40
0.286290322580645
 40
0.286290322580645
 40
0.286290322580645
 40
0.288306451612903
 40
0.288306451612903
 40
0.288306451612903
 40
0.288306451612903
 40
0.2903225806451611
 40
0.2903225806451611
 40
0.2903225806451611
 40
0.2903225806451611
 40
0.2923387096774192
 40
0.2923387096774192
 40
0.2923387096774192
 40
0.2923387096774192
 40
0.2943548387096772
 40
0.2943548387096772
 40
0.2943548387096772
 40
0.2943548387096772
 40
0.2963709677419353
 40
0.2963709677419353
 40
0.2963709677419353
 40
0.2963709677419353
 40
0.2983870967741933
 40
0.2983870967741933
 40
0.2983870967741933
 40
0.2983870967741933
 40
0.3004032258064514
 40
0.3004032258064514
 40
0.3004032258064514
 40
0.3004032258064514
 40
0.3024193548387095
 40
0.3024193548387095
 40
0.3024193548387095
 40
0.3024193548387095
 40
0.3044354838709675
 40
0.3044354838709675
 40
0.3044354838709675
 40
0.3044354838709675
 40
0.3064516129032256
 40
0.3064516129032256
 40
0.3064516129032256
 40
0.3064516129032256
 40
0.3084677419354837
 40
0.3084677419354837
 40
0.3084677419354837
 40
0.3084677419354837
 40
0.3104838709677417
 40
0.3104838709677417
 40
0.3104838709677417
 40
0.3104838709677417
 40
0.3124999999999998
 40
0.3124999999999998
 40
0.3124999999999998
 40
0.3124999999999998
 40
0.3145161290322578
 40
0.3145161290322578
 40
0.3145161290322578
 40
0.3145161290322578
 40
0.3165322580645159
 40
0.3165322580645159
 40
0.3165322580645159
 40
0.3165322580645159
 40
0.318548387096774
 40
0.318548387096774
 40
0.318548387096774
 40
0.318548387096774
 40
0.320564516129032
 40
0.320564516129032
 40
0.320564516129032
 40
0.320564516129032
 40
0.3225806451612901
 40
0.3225806451612901
 40
0.3225806451612901
 40
0.3225806451612901
 40
0.3245967741935482
 40
0.3245967741935482
 40
0.3245967741935482
 40
0.3245967741935482
 40
0.3266129032258062
 40
0.3266129032258062
 40
0.3266129032258062
 40
0.3266129032258062
 40
0.3286290322580643
 40
0.3286290322580643
 40
0.3286290322580643
 40
0.3286290322580643
 40
0.3306451612903223
 40
0.3306451612903223
 40
0.3306451612903223
 40
0.3306451612903223
 40
0.3326612903225804
 40
0.3326612903225804
 40
0.3326612903225804
 40
0.3326612903225804
 40
0.3346774193548385
 40
0.3346774193548385
 40
0.3346774193548385
 40
0.3346774193548385
 40
0.3366935483870965
 40
0.3366935483870965
 40
0.3366935483870965
 40
0.3366935483870965
 40
0.3387096774193546
 40
0.3387096774193546
 40
0.3387096774193546
 40
0.3387096774193546
 40
0.3407258064516127
 40
0.3407258064516127
 40
0.3407258064516127
 40
0.3407258064516127
 40
0.3427419354838707
 40
0.3427419354838707
 40
0.3427419354838707
 40
0.3427419354838707
 40
0.3447580645161288
 40
0.3447580645161288
 40
0.3447580645161288
 40
0.3447580645161288
 40
0.3467741935483868
 40
0.3467741935483868
 40
0.3467741935483868
 40
0.3467741935483868
 40
0.3487903225806449
 40
0.3487903225806449
 40
0.3487903225806449
 40
0.3487903225806449
 40
0.350806451612903
 40
0.350806451612903
 40
0.350806451612903
 40
0.350806451612903
 40
0.352822580645161
 40
0.352822580645161
 40
0.352822580645161
 40
0.352822580645161
 40
0.3548387096774191
 40
0.3548387096774191
 40
0.3548387096774191
 40
0.3548387096774191
 40
0.3568548387096772
 40
0.3568548387096772
 40
0.3568548387096772
 40
0.3568548387096772
 40
0.3588709677419352
 40
0.3588709677419352
 40
0.3588709677419352
 40
0.3588709677419352
 40
0.3608870967741933
 40
0.3608870967741933
 40
0.3608870967741933
 40
0.3608870967741933
 40
0.3629032258064513
 40
0.3629032258064513
 40
0.3629032258064513
 40
0.3629032258064513
 40
0.3649193548387094
 40
0.3649193548387094
 40
0.3649193548387094
 40
0.3649193548387094
 40
0.3669354838709675
 40
0.3669354838709675
 40
0.3669354838709675
 40
0.3669354838709675
 40
0.3689516129032255
 40
0.3689516129032255
 40
0.3689516129032255
 40
0.3689516129032255
 40
0.3709677419354836
 40
0.3709677419354836
 40
0.3709677419354836
 40
0.3709677419354836
 40
0.3729838709677417
 40
0.3729838709677417
 40
0.3729838709677417
 40
0.3729838709677417
 40
0.3749999999999997
 40
0.3749999999999997
 40
0.3749999999999997
 40
0.3749999999999997
 40
0.3770161290322578
 40
0.3770161290322578
 40
0.3770161290322578
 40
0.3770161290322578
 40
0.3790322580645158
 40
0.3790322580645158
 40
0.3790322580645158
 40
0.3790322580645158
 40
0.3810483870967739
 40
0.3810483870967739
 40
0.3810483870967739
 40
0.3810483870967739
 40
0.383064516129032
 40
0.383064516129032
 40
0.383064516129032
 40
0.383064516129032
 40
0.38508064516129
 40
0.38508064516129
 40
0.38508064516129
 40
0.38508064516129
 40
0.3870967741935481
 40
0.3870967741935481
 40
0.3870967741935481
 40
0.3870967741935481
 40
0.3891129032258062
 40
0.3891129032258062
 40
0.3891129032258062
 40
0.3891129032258062
 40
0.3911290322580642
 40
0.3911290322580642
 40
0.3911290322580642
 40
0.3911290322580642
 40
0.3931451612903223
 40
0.3931451612903223
 40
0.3931451612903223
 40
0.3931451612903223
 40
0.3951612903225803
 40
0.3951612903225803
 40
0.3951612903225803
 40
0.3951612903225803
 40
0.3971774193548384
 40
0.3971774193548384
 40
0.3971774193548384
 40
0.3971774193548384
 40
0.3991935483870965
 40
0.3991935483870965
 40
0.3991935483870965
 40
0.3991935483870965
 40
0.4012096774193545
 40
0.4012096774193545
 40
0.4012096774193545
 40
0.4012096774193545
 40
0.4032258064516126
 40
0.4032258064516126
 40
0.4032258064516126
 40
0.4032258064516126
 40
0.4052419354838707
 40
0.4052419354838707
 40
0.4052419354838707
 40
0.4052419354838707
 40
0.4072580645161287
 40
0.4072580645161287
 40
0.4072580645161287
 40
0.4072580645161287
 40
0.4092741935483868
 40
0.4092741935483868
 40
0.4092741935483868
 40
0.4092741935483868
 40
0.4112903225806449
 40
0.4112903225806449
 40
0.4112903225806449
 40
0.4112903225806449
 40
0.4133064516129029
 40
0.4133064516129029
 40
0.4133064516129029
 40
0.4133064516129029
 40
0.415322580645161
 40
0.415322580645161
 40
0.415322580645161
 40
0.415322580645161
 40
0.417338709677419
 40
0.417338709677419
 40
0.417338709677419
 40
0.417338709677419
 40
0.4193548387096771
 40
0.4193548387096771
 40
0.4193548387096771
 40
0.4193548387096771
 40
0.4213709677419352
 40
0.4213709677419352
 40
0.4213709677419352
 40
0.4213709677419352
 40
0.4233870967741932
 40
0.4233870967741932
 40
0.4233870967741932
 40
0.4233870967741932
 40
0.4254032258064513
 40
0.4254032258064513
 40
0.4254032258064513
 40
0.4254032258064513
 40
0.4274193548387094
 40
0.4274193548387094
 40
0.4274193548387094
 40
0.4274193548387094
 40
0.4294354838709674
 40
0.4294354838709674
 40
0.4294354838709674
 40
0.4294354838709674
 40
0.4314516129032255
 40
0.4314516129032255
 40
0.4314516129032255
 40
0.4314516129032255
 40
0.4334677419354835
 40
0.4334677419354835
 40
0.4334677419354835
 40
0.4334677419354835
 40
0.4354838709677416
 40
0.4354838709677416
 40
0.4354838709677416
 40
0.4354838709677416
 40
0.4374999999999997
 40
0.4374999999999997
 40
0.4374999999999997
 40
0.4374999999999997
 40
0.4395161290322577
 40
0.4395161290322577
 40
0.4395161290322577
 40
0.4395161290322577
 40
0.4415322580645158
 40
0.4415322580645158
 40
0.4415322580645158
 40
0.4415322580645158
 40
0.4435483870967739
 40
0.4435483870967739
 40
0.4435483870967739
 40
0.4435483870967739
 40
0.4455645161290319
 40
0.4455645161290319
 40
0.4455645161290319
 40
0.4455645161290319
 40
0.44758064516129
 40
0.44758064516129
 40
0.44758064516129
 40
0.44758064516129
 40
0.449596774193548
 40
0.449596774193548
 40
0.449596774193548
 40
0.449596774193548
 40
0.4516129032258061
 40
0.4516129032258061
 40
0.4516129032258061
 40
0.4516129032258061
 40
0.4536290322580642
 40
0.4536290322580642
 40
0.4536290322580642
 40
0.4536290322580642
 40
0.4556451612903222
 40
0.4556451612903222
 40
0.4556451612903222
 40
0.4556451612903222
 40
0.4576612903225803
 40
0.4576612903225803
 40
0.4576612903225803
 40
0.4576612903225803
 40
0.4596774193548384
 40
0.4596774193548384
 40
0.4596774193548384
 40
0.4596774193548384
 40
0.4616935483870964
 40
0.4616935483870964
 40
0.4616935483870964
 40
0.4616935483870964
 40
0.4637096774193545
 40
0.4637096774193545
 40
0.4637096774193545
 40
0.4637096774193545
 40
0.4657258064516125
 40
0.4657258064516125
 40
0.4657258064516125
 40
0.4657258064516125
 40
0.4677419354838706
 40
0.4677419354838706
 40
0.4677419354838706
 40
0.4677419354838706
 40
0.4697580645161287
 40
0.4697580645161287
 40
0.4697580645161287
 40
0.4697580645161287
 40
0.4717741935483867
 40
0.4717741935483867
 40
0.4717741935483867
 40
0.4717741935483867
 40
0.4737903225806448
 40
0.4737903225806448
 40
0.4737903225806448
 40
0.4737903225806448
 40
0.4758064516129029
 40
0.4758064516129029
 40
0.4758064516129029
 40
0.4758064516129029
 40
0.4778225806451609
 40
0.4778225806451609
 40
0.4778225806451609
 40
0.4778225806451609
 40
0.479838709677419
 40
0.479838709677419
 40
0.479838709677419
 40
0.479838709677419
 40
0.481854838709677
 40
0.481854838709677
 40
0.481854838709677
 40
0.481854838709677
 40
0.4838709677419351
 40
0.4838709677419351
 40
0.4838709677419351
 40
0.4838709677419351
 40
0.4858870967741932
 40
0.4858870967741932
 40
0.4858870967741932
 40
0.4858870967741932
 40
0.4879032258064512
 40
0.4879032258064512
 40
0.4879032258064512
 40
0.4879032258064512
 40
0.4899193548387093
 40
0.4899193548387093
 40
0.4899193548387093
 40
0.4899193548387093
 40
0.4919354838709674
 40
0.4919354838709674
 40
0.4919354838709674
 40
0.4919354838709674
 40
0.4939516129032254
 40
0.4939516129032254
 40
0.4939516129032254
 40
0.4939516129032254
 40
0.4959677419354835
 40
0.4959677419354835
 40
0.4959677419354835
 40
0.4959677419354835
 40
0.4979838709677415
 40
0.4979838709677415
 40
0.4979838709677415
 40
0.4979838709677415
 40
0.4999999999999996
 40
0.4999999999999996
 40
0.4999999999999996
 40
0.4999999999999996
 40
0.5020161290322577
 40
0.5020161290322577
 40
0.5020161290322577
 40
0.5020161290322577
 40
0.5040322580645158
 40
0.5040322580645158
 40
0.5040322580645158
 40
0.5040322580645158
 40
0.5060483870967739
 40
0.5060483870967739
 40
0.5060483870967739
 40
0.5060483870967739
 40
0.508064516129032
 40
0.508064516129032
 40
0.508064516129032
 40
0.508064516129032
 40
0.5100806451612901
 40
0.5100806451612901
 40
0.5100806451612901
 40
0.5100806451612901
 40
0.5120967741935483
 40
0.5120967741935483
 40
0.5120967741935483
 40
0.5120967741935483
 40
0.5141129032258064
 40
0.5141129032258064
 40
0.5141129032258064
 40
0.5141129032258064
 40
0.5161290322580645
 40
0.5161290322580645
 40
0.5161290322580645
 40
0.5161290322580645
 40
0.5181451612903226
 40
0.5181451612903226
 40
0.5181451612903226
 40
0.5181451612903226
 40
0.5201612903225807
 40
0.5201612903225807
 40
0.5201612903225807
 40
0.5201612903225807
 40
0.5221774193548389
 40
0.5221774193548389
 40
0.5221774193548389
 40
0.5221774193548389
 40
0.524193548387097
 40
0.524193548387097
 40
0.524193548387097
 40
0.524193548387097
 40
0.5262096774193551
 40
0.5262096774193551
 40
0.5262096774193551
 40
0.5262096774193551
 40
0.5282258064516132
 40
0.5282258064516132
 40
0.5282258064516132
 40
0.5282258064516132
 40
0.5302419354838713
 40
0.5302419354838713
 40
0.5302419354838713
 40
0.5302419354838713
 40
0.5322580645161294
 40
0.5322580645161294
 40
0.5322580645161294
 40
0.5322580645161294
 40
0.5342741935483876
 40
0.5342741935483876
 40
0.5342741935483876
 40
0.5342741935483876
 40
0.5362903225806457
 40
0.5362903225806457
 40
0.5362903225806457
 40
0.5362903225806457
 40
0.5383064516129038
 40
0.5383064516129038
 40
0.5383064516129038
 40
0.5383064516129038
 40
0.5403225806451619
 40
0.5403225806451619
 40
0.5403225806451619
 40
0.5403225806451619
 40
0.54233870967742
 40
0.54233870967742
 40
0.54233870967742
 40
0.54233870967742
 40
0.5443548387096782
 40
0.5443548387096782
 40
0.5443548387096782
 40
0.5443548387096782
 40
0.5463709677419363
 40
0.5463709677419363
 40
0.5463709677419363
 40
0.5463709677419363
 40
0.5483870967741944
 40
0.5483870967741944
 40
0.5483870967741944
 40
0.5483870967741944
 40
0.5504032258064525
 40
0.5504032258064525
 40
0.5504032258064525
 40
0.5504032258064525
 40
0.5524193548387106
 40
0.5524193548387106
 40
0.5524193548387106
 40
0.5524193548387106
 40
0.5544354838709687
 40
0.5544354838709687
 40
0.5544354838709687
 40
0.5544354838709687
 40
0.5564516129032269
 40
0.5564516129032269
 40
0.5564516129032269
 40
0.5564516129032269
 40
0.558467741935485
 40
0.558467741935485
 40
0.558467741935485
 40
0.558467741935485
 40
0.5604838709677431
 40
0.5604838709677431
 40
0.5604838709677431
 40
0.5604838709677431
 40
0.5625000000000012
 40
0.5625000000000012
 40
0.5625000000000012
 40
0.5625000000000012
 40
0.5645161290322593
 40
0.5645161290322593
 40
0.5645161290322593
 40
0.5645161290322593
 40
0.5665322580645175
 40
0.5665322580645175
 40
0.5665322580645175
 40
0.5665322580645175
 40
0.5685483870967756
 40
0.5685483870967756
 40
0.5685483870967756
 40
0.5685483870967756
 40
0.5705645161290337
 40
0.5705645161290337
 40
0.5705645161290337
 40
0.5705645161290337
 40
0.5725806451612918
 40
0.5725806451612918
 40
0.5725806451612918
 40
0.5725806451612918
 40
0.5745967741935499
 40
0.5745967741935499
 40
0.5745967741935499
 40
0.5745967741935499
 40
0.576612903225808
 40
0.576612903225808
 40
0.576612903225808
 40
0.576612903225808
 40
0.5786290322580662
 40
0.5786290322580662
 40
0.5786290322580662
 40
0.5786290322580662
 40
0.5806451612903243
 40
0.5806451612903243
 40
0.5806451612903243
 40
0.5806451612903243
 40
0.5826612903225824
 40
0.5826612903225824
 40
0.5826612903225824
 40
0.5826612903225824
 40
0.5846774193548405
 40
0.5846774193548405
 40
0.5846774193548405
 40
0.5846774193548405
 40
0.5866935483870986
 40
0.5866935483870986
 40
0.5866935483870986
 40
0.5866935483870986
 40
0.5887096774193568
 40
0.5887096774193568
 40
0.5887096774193568
 40
0.5887096774193568
 40
0.5907258064516149
 40
0.5907258064516149
 40
0.5907258064516149
 40
0.5907258064516149
 40
0.592741935483873
 40
0.592741935483873
 40
0.592741935483873
 40
0.592741935483873
 40
0.5947580645161311
 40
0.5947580645161311
 40
0.5947580645161311
 40
0.5947580645161311
 40
0.5967741935483892
 40
0.5967741935483892
 40
0.5967741935483892
 40
0.5967741935483892
 40
0.5987903225806473
 40
0.5987903225806473
 40
0.5987903225806473
 40
0.5987903225806473
 40
0.6008064516129055
 40
0.6008064516129055
 40
0.6008064516129055
 40
0.6008064516129055
 40
0.6028225806451636
 40
0.6028225806451636
 40
0.6028225806451636
 40
0.6028225806451636
 40
0.6048387096774217
 40
0.6048387096774217
 40
0.6048387096774217
 40
0.6048387096774217
 40
0.6068548387096798
 40
0.6068548387096798
 40
0.6068548387096798
 40
0.6068548387096798
 40
0.6088709677419379
 40
0.6088709677419379
 40
0.6088709677419379
 40
0.6088709677419379
 40
0.6108870967741961
 40
0.6108870967741961
 40
0.6108870967741961
 40
0.6108870967741961
 40
0.6129032258064542
 40
0.6129032258064542
 40
0.6129032258064542
 40
0.6129032258064542
 40
0.6149193548387123
 40
0.6149193548387123
 40
0.6149193548387123
 40
0.6149193548387123
 40
0.6169354838709704
 40
0.6169354838709704
 40
0.6169354838709704
 40
0.6169354838709704
 40
0.6189516129032285
 40
0.6189516129032285
 40
0.6189516129032285
 40
0.6189516129032285
 40
0.6209677419354867
 40
0.6209677419354867
 40
0.6209677419354867
 40
0.6209677419354867
 40
0.6229838709677448
 40
0.6229838709677448
 40
0.6229838709677448
 40
0.6229838709677448
 40
0.6250000000000029
 40
0.6250000000000029
 40
0.6250000000000029
 40
0.6250000000000029
 40
0.627016129032261
 40
0.627016129032261
 40
0.627016129032261
 40
0.627016129032261
 40
0.6290322580645191
 40
0.6290322580645191
 40
0.6290322580645191
 40
0.6290322580645191
 40
0.6310483870967772
 40
0.6310483870967772
 40
0.6310483870967772
 40
0.6310483870967772
 40
0.6330645161290354
 40
0.6330645161290354
 40
0.6330645161290354
 40
0.6330645161290354
 40
0.6350806451612935
 40
0.6350806451612935
 40
0.6350806451612935
 40
0.6350806451612935
 40
0.6370967741935516
 40
0.6370967741935516
 40
0.6370967741935516
 40
0.6370967741935516
 40
0.6391129032258097
 40
0.6391129032258097
 40
0.6391129032258097
 40
0.6391129032258097
 40
0.6411290322580678
 40
0.6411290322580678
 40
0.6411290322580678
 40
0.6411290322580678
 40
0.643145161290326
 40
0.643145161290326
 40
0.643145161290326
 40
0.643145161290326
 40
0.6451612903225841
 40
0.6451612903225841
 40
0.6451612903225841
 40
0.6451612903225841
 40
0.6471774193548422
 40
0.6471774193548422
 40
0.6471774193548422
 40
0.6471774193548422
 40
0.6491935483871003
 40
0.6491935483871003
 40
0.6491935483871003
 40
0.6491935483871003
 40
0.6512096774193584
 40
0.6512096774193584
 40
0.6512096774193584
 40
0.6512096774193584
 40
0.6532258064516165
 40
0.6532258064516165
 40
0.6532258064516165
 40
0.6532258064516165
 40
0.6552419354838747
 40
0.6552419354838747
 40
0.6552419354838747
 40
0.6552419354838747
 40
0.6572580645161328
 40
0.6572580645161328
 40
0.6572580645161328
 40
0.6572580645161328
 40
0.6592741935483909
 40
0.6592741935483909
 40
0.6592741935483909
 40
0.6592741935483909
 40
0.661290322580649
 40
0.661290322580649
 40
0.661290322580649
 40
0.661290322580649
 40
0.6633064516129071
 40
0.6633064516129071
 40
0.6633064516129071
 40
0.6633064516129071
 40
0.6653225806451653
 40
0.6653225806451653
 40
0.6653225806451653
 40
0.6653225806451653
 40
0.6673387096774234
 40
0.6673387096774234
 40
0.6673387096774234
 40
0.6673387096774234
 40
0.6693548387096815
 40
0.6693548387096815
 40
0.6693548387096815
 40
0.6693548387096815
 40
0.6713709677419396
 40
0.6713709677419396
 40
0.6713709677419396
 40
0.6713709677419396
 40
0.6733870967741977
 40
0.6733870967741977
 40
0.6733870967741977
 40
0.6733870967741977
 40
0.6754032258064558
 40
0.6754032258064558
 40
0.6754032258064558
 40
0.6754032258064558
 40
0.677419354838714
 40
0.677419354838714
 40
0.677419354838714
 40
0.677419354838714
 40
0.6794354838709721
 40
0.6794354838709721
 40
0.6794354838709721
 40
0.6794354838709721
 40
0.6814516129032302
 40
0.6814516129032302
 40
0.6814516129032302
 40
0.6814516129032302
 40
0.6834677419354883
 40
0.6834677419354883
 40
0.6834677419354883
 40
0.6834677419354883
 40
0.6854838709677464
 40
0.6854838709677464
 40
0.6854838709677464
 40
0.6854838709677464
 40
0.6875000000000046
 40
0.6875000000000046
 40
0.6875000000000046
 40
0.6875000000000046
 40
0.6895161290322627
 40
0.6895161290322627
 40
0.6895161290322627
 40
0.6895161290322627
 40
0.6915322580645208
 40
0.6915322580645208
 40
0.6915322580645208
 40
0.6915322580645208
 40
0.6935483870967789
 40
0.6935483870967789
 40
0.6935483870967789
 40
0.6935483870967789
 40
0.695564516129037
 40
0.695564516129037
 40
0.695564516129037
 40
0.695564516129037
 40
0.6975806451612951
 40
0.6975806451612951
 40
0.6975806451612951
 40
0.6975806451612951
 40
0.6995967741935533
 40
0.6995967741935533
 40
0.6995967741935533
 40
0.6995967741935533
 40
0.7016129032258114
 40
0.7016129032258114
 40
0.7016129032258114
 40
0.7016129032258114
 40
0.7036290322580695
 40
0.7036290322580695
 40
0.7036290322580695
 40
0.7036290322580695
 40
0.7056451612903276
 40
0.7056451612903276
 40
0.7056451612903276
 40
0.7056451612903276
 40
0.7076612903225857
 40
0.7076612903225857
 40
0.7076612903225857
 40
0.7076612903225857
 40
0.7096774193548439
 40
0.7096774193548439
 40
0.7096774193548439
 40
0.7096774193548439
 40
0.711693548387102
 40
0.711693548387102
 40
0.711693548387102
 40
0.711693548387102
 40
0.7137096774193601
 40
0.7137096774193601
 40
0.7137096774193601
 40
0.7137096774193601
 40
0.7157258064516182
 40
0.7157258064516182
 40
0.7157258064516182
 40
0.7157258064516182
 40
0.7177419354838763
 40
0.7177419354838763
 40
0.7177419354838763
 40
0.7177419354838763
 40
0.7197580645161344
 40
0.7197580645161344
 40
0.7197580645161344
 40
0.7197580645161344
 40
0.7217741935483926
 40
0.7217741935483926
 40
0.7217741935483926
 40
0.7217741935483926
 40
0.7237903225806507
 40
0.7237903225806507
 40
0.7237903225806507
 40
0.7237903225806507
 40
0.7258064516129088
 40
0.7258064516129088
 40
0.7258064516129088
 40
0.7258064516129088
 40
0.7278225806451669
 40
0.7278225806451669
 40
0.7278225806451669
 40
0.7278225806451669
 40
0.729838709677425
 40
0.729838709677425
 40
0.729838709677425
 40
0.729838709677425
 40
0.7318548387096832
 40
0.7318548387096832
 40
0.7318548387096832
 40
0.7318548387096832
 40
0.7338709677419413
 40
0.7338709677419413
 40
0.7338709677419413
 40
0.7338709677419413
 40
0.7358870967741994
 40
0.7358870967741994
 40
0.7358870967741994
 40
0.7358870967741994
 40
0.7379032258064575
 40
0.7379032258064575
 40
0.7379032258064575
 40
0.7379032258064575
 40
0.7399193548387156
 40
0.7399193548387156
 40
0.7399193548387156
 40
0.7399193548387156
 40
0.7419354838709737
 40
0.7419354838709737
 40
0.7419354838709737
 40
0.7419354838709737
 40
0.7439516129032319
 40
0.7439516129032319
 40
0.7439516129032319
 40
0.7439516129032319
 40
0.74596774193549
 40
0.74596774193549
 40
0.74596774193549
 40
0.74596774193549
 40
0.7479838709677481
 40
0.7479838709677481
 40
0.7479838709677481
 40
0.7479838709677481
 40
0.7500000000000062
 40
0.7500000000000062
 40
0.7500000000000062
 40
0.7500000000000062
 40
0.7520161290322643
 40
0.7520161290322643
 40
0.7520161290322643
 40
0.7520161290322643
 40
0.7540322580645225
 40
0.7540322580645225
 40
0.7540322580645225
 40
0.7540322580645225
 40
0.7560483870967806
 40
0.7560483870967806
 40
0.7560483870967806
 40
0.7560483870967806
 40
0.7580645161290387
 40
0.7580645161290387
 40
0.7580645161290387
 40
0.7580645161290387
 40
0.7600806451612968
 40
0.7600806451612968
 40
0.7600806451612968
 40
0.7600806451612968
 40
0.7620967741935549
 40
0.7620967741935549
 40
0.7620967741935549
 40
0.7620967741935549
 40
0.764112903225813
 40
0.764112903225813
 40
0.764112903225813
 40
0.764112903225813
 40
0.7661290322580712
 40
0.7661290322580712
 40
0.7661290322580712
 40
0.7661290322580712
 40
0.7681451612903293
 40
0.7681451612903293
 40
0.7681451612903293
 40
0.7681451612903293
 40
0.7701612903225874
 40
0.7701612903225874
 40
0.7701612903225874
 40
0.7701612903225874
 40
0.7721774193548455
 40
0.7721774193548455
 40
0.7721774193548455
 40
0.7721774193548455
 40
0.7741935483871036
 40
0.7741935483871036
 40
0.7741935483871036
 40
0.7741935483871036
 40
0.7762096774193618
 40
0.7762096774193618
 40
0.7762096774193618
 40
0.7762096774193618
 40
0.7782258064516199
 40
0.7782258064516199
 40
0.7782258064516199
 40
0.7782258064516199
 40
0.780241935483878
 40
0.780241935483878
 40
0.780241935483878
 40
0.780241935483878
 40
0.7822580645161361
 40
0.7822580645161361
 40
0.7822580645161361
 40
0.7822580645161361
 40
0.7842741935483942
 40
0.7842741935483942
 40
0.7842741935483942
 40
0.7842741935483942
 40
0.7862903225806523
 40
0.7862903225806523
 40
0.7862903225806523
 40
0.7862903225806523
 40
0.7883064516129105
 40
0.7883064516129105
 40
0.7883064516129105
 40
0.7883064516129105
 40
0.7903225806451686
 40
0.7903225806451686
 40
0.7903225806451686
 40
0.7903225806451686
 40
0.7923387096774267
 40
0.7923387096774267
 40
0.7923387096774267
 40
0.7923387096774267
 40
0.7943548387096848
 40
0.7943548387096848
 40
0.7943548387096848
 40
0.7943548387096848
 40
0.7963709677419429
 40
0.7963709677419429
 40
0.7963709677419429
 40
0.7963709677419429
 40
0.798387096774201
 40
0.798387096774201
 40
0.798387096774201
 40
0.798387096774201
 40
0.8004032258064592
 40
0.8004032258064592
 40
0.8004032258064592
 40
0.8004032258064592
 40
0.8024193548387173
 40
0.8024193548387173
 40
0.8024193548387173
 40
0.8024193548387173
 40
0.8044354838709754
 40
0.8044354838709754
 40
0.8044354838709754
 40
0.8044354838709754
 40
0.8064516129032335
 40
0.8064516129032335
 40
0.8064516129032335
 40
0.8064516129032335
 40
0.8084677419354916
 40
0.8084677419354916
 40
0.8084677419354916
 40
0.8084677419354916
 40
0.8104838709677498
 40
0.8104838709677498
 40
0.8104838709677498
 40
0.8104838709677498
 40
0.8125000000000079
 40
0.8125000000000079
 40
0.8125000000000079
 40
0.8125000000000079
 40
0.814516129032266
 40
0.814516129032266
 40
0.814516129032266
 40
0.814516129032266
 40
0.8165322580645241
 40
0.8165322580645241
 40
0.8165322580645241
 40
0.8165322580645241
 40
0.8185483870967822
 40
0.8185483870967822
 40
0.8185483870967822
 40
0.8185483870967822
 40
0.8205645161290404
 40
0.8205645161290404
 40
0.8205645161290404
 40
0.8205645161290404
 40
0.8225806451612985
 40
0.8225806451612985
 40
0.8225806451612985
 40
0.8225806451612985
 40
0.8245967741935566
 40
0.8245967741935566
 40
0.8245967741935566
 40
0.8245967741935566
 40
0.8266129032258147
 40
0.8266129032258147
 40
0.8266129032258147
 40
0.8266129032258147
 40
0.8286290322580728
 40
0.8286290322580728
 40
0.8286290322580728
 40
0.8286290322580728
 40
0.830645161290331
 40
0.830645161290331
 40
0.830645161290331
 40
0.830645161290331
 40
0.8326612903225891
 40
0.8326612903225891
 40
0.8326612903225891
 40
0.8326612903225891
 40
0.8346774193548472
 40
0.8346774193548472
 40
0.8346774193548472
 40
0.8346774193548472
 40
0.8366935483871053
 40
0.8366935483871053
 40
0.8366935483871053
 40
0.8366935483871053
 40
0.8387096774193634
 40
0.8387096774193634
 40
0.8387096774193634
 40
0.8387096774193634
 40
0.8407258064516215
 40
0.8407258064516215
 40
0.8407258064516215
 40
0.8407258064516215
 40
0.8427419354838797
 40
0.8427419354838797
 40
0.8427419354838797
 40
0.8427419354838797
 40
0.8447580645161378
 40
0.8447580645161378
 40
0.8447580645161378
 40
0.8447580645161378
 40
0.8467741935483959
 40
0.8467741935483959
 40
0.8467741935483959
 40
0.8467741935483959
 40
0.848790322580654
 40
0.848790322580654
 40
0.848790322580654
 40
0.848790322580654
 40
0.8508064516129121
 40
0.8508064516129121
 40
0.8508064516129121
 40
0.8508064516129121
 40
0.8528225806451702
 40
0.8528225806451702
 40
0.8528225806451702
 40
0.8528225806451702
 40
0.8548387096774284
 40
0.8548387096774284
 40
0.8548387096774284
 40
0.8548387096774284
 40
0.8568548387096865
 40
0.8568548387096865
 40
0.8568548387096865
 40
0.8568548387096865
 40
0.8588709677419446
 40
0.8588709677419446
 40
0.8588709677419446
 40
0.8588709677419446
 40
0.8608870967742027
 40
0.8608870967742027
 40
0.8608870967742027
 40
0.8608870967742027
 40
0.8629032258064608
 40
0.8629032258064608
 40
0.8629032258064608
 40
0.8629032258064608
 40
0.864919354838719
 40
0.864919354838719
 40
0.864919354838719
 40
0.864919354838719
 40
0.8669354838709771
 40
0.8669354838709771
 40
0.8669354838709771
 40
0.8669354838709771
 40
0.8689516129032352
 40
0.8689516129032352
 40
0.8689516129032352
 40
0.8689516129032352
 40
0.8709677419354933
 40
0.8709677419354933
 40
0.8709677419354933
 40
0.8709677419354933
 40
0.8729838709677514
 40
0.8729838709677514
 40
0.8729838709677514
 40
0.8729838709677514
 40
0.8750000000000095
 40
0.8750000000000095
 40
0.8750000000000095
 40
0.8750000000000095
 40
0.8770161290322677
 40
0.8770161290322677
 40
0.8770161290322677
 40
0.8770161290322677
 40
0.8790322580645258
 40
0.8790322580645258
 40
0.8790322580645258
 40
0.8790322580645258
 40
0.8810483870967839
 40
0.8810483870967839
 40
0.8810483870967839
 40
0.8810483870967839
 40
0.883064516129042
 40
0.883064516129042
 40
0.883064516129042
 40
0.883064516129042
 40
0.8850806451613001
 40
0.8850806451613001
 40
0.8850806451613001
 40
0.8850806451613001
 40
0.8870967741935583
 40
0.8870967741935583
 40
0.8870967741935583
 40
0.8870967741935583
 40
0.8891129032258164
 40
0.8891129032258164
 40
0.8891129032258164
 40
0.8891129032258164
 40
0.8911290322580745
 40
0.8911290322580745
 40
0.8911290322580745
 40
0.8911290322580745
 40
0.8931451612903326
 40
0.8931451612903326
 40
0.8931451612903326
 40
0.8931451612903326
 40
0.8951612903225907
 40
0.8951612903225907
 40
0.8951612903225907
 40
0.8951612903225907
 40
0.8971774193548488
 40
0.8971774193548488
 40
0.8971774193548488
 40
0.8971774193548488
 40
0.899193548387107
 40
0.899193548387107
 40
0.899193548387107
 40
0.899193548387107
 40
0.9012096774193651
 40
0.9012096774193651
 40
0.9012096774193651
 40
0.9012096774193651
 40
0.9032258064516232
 40
0.9032258064516232
 40
0.9032258064516232
 40
0.9032258064516232
 40
0.9052419354838813
 40
0.9052419354838813
 40
0.9052419354838813
 40
0.9052419354838813
 40
0.9072580645161394
 40
0.9072580645161394
 40
0.9072580645161394
 40
0.9072580645161394
 40
0.9092741935483976
 40
0.9092741935483976
 40
0.9092741935483976
 40
0.9092741935483976
 40
0.9112903225806557
 40
0.9112903225806557
 40
0.9112903225806557
 40
0.9112903225806557
 40
0.9133064516129138
 40
0.9133064516129138
 40
0.9133064516129138
 40
0.9133064516129138
 40
0.9153225806451719
 40
0.9153225806451719
 40
0.9153225806451719
 40
0.9153225806451719
 40
0.91733870967743
 40
0.91733870967743
 40
0.91733870967743
 40
0.91733870967743
 40
0.9193548387096881
 40
0.9193548387096881
 40
0.9193548387096881
 40
0.9193548387096881
 40
0.9213709677419463
 40
0.9213709677419463
 40
0.9213709677419463
 40
0.9213709677419463
 40
0.9233870967742044
 40
0.9233870967742044
 40
0.9233870967742044
 40
0.9233870967742044
 40
0.9254032258064625
 40
0.9254032258064625
 40
0.9254032258064625
 40
0.9254032258064625
 40
0.9274193548387206
 40
0.9274193548387206
 40
0.9274193548387206
 40
0.9274193548387206
 40
0.9294354838709787
 40
0.9294354838709787
 40
0.9294354838709787
 40
0.9294354838709787
 40
0.9314516129032369
 40
0.9314516129032369
 40
0.9314516129032369
 40
0.9314516129032369
 40
0.933467741935495
 40
0.933467741935495
 40
0.933467741935495
 40
0.933467741935495
 40
0.9354838709677531
 40
0.9354838709677531
 40
0.9354838709677531
 40
0.9354838709677531
 40
0.9375000000000112
 40
0.9375000000000112
 40
0.9375000000000112
 40
0.9375000000000112
 40
0.9395161290322693
 40
0.9395161290322693
 40
0.9395161290322693
 40
0.9395161290322693
 40
0.9415322580645274
 40
0.9415322580645274
 40
0.9415322580645274
 40
0.9415322580645274
 40
0.9435483870967856
 40
0.9435483870967856
 40
0.9435483870967856
 40
0.9435483870967856
 40
0.9455645161290437
 40
0.9455645161290437
 40
0.9455645161290437
 40
0.9455645161290437
 40
0.9475806451613018
 40
0.9475806451613018
 40
0.9475806451613018
 40
0.9475806451613018
 40
0.9495967741935599
 40
0.9495967741935599
 40
0.9495967741935599
 40
0.9495967741935599
 40
0.951612903225818
 40
0.951612903225818
 40
0.951612903225818
 40
0.951612903225818
 40
0.9536290322580762
 40
0.9536290322580762
 40
0.9536290322580762
 40
0.9536290322580762
 40
0.9556451612903343
 40
0.9556451612903343
 40
0.9556451612903343
 40
0.9556451612903343
 40
0.9576612903225924
 40
0.9576612903225924
 40
0.9576612903225924
 40
0.9576612903225924
 40
0.9596774193548505
 40
0.9596774193548505
 40
0.9596774193548505
 40
0.9596774193548505
 40
0.9616935483871086
 40
0.9616935483871086
 40
0.9616935483871086
 40
0.9616935483871086
 40
0.9637096774193668
 40
0.9637096774193668
 40
0.9637096774193668
 40
0.9637096774193668
 40
0.9657258064516249
 40
0.9657258064516249
 40
0.9657258064516249
 40
0.9657258064516249
 40
0.967741935483883
 40
0.967741935483883
 40
0.967741935483883
 40
0.967741935483883
 40
0.9697580645161411
 40
0.9697580645161411
 40
0.9697580645161411
 40
0.9697580645161411
 40
0.9717741935483992
 40
0.9717741935483992
 40
0.9717741935483992
 40
0.9717741935483992
 40
0.9737903225806573
 40
0.9737903225806573
 40
0.9737903225806573
 40
0.9737903225806573
 40
0.9758064516129155
 40
0.9758064516129155
 40
0.9758064516129155
 40
0.9758064516129155
 40
0.9778225806451736
 40
0.9778225806451736
 40
0.9778225806451736
 40
0.9778225806451736
 40
0.9798387096774317
 40
0.9798387096774317
 40
0.9798387096774317
 40
0.9798387096774317
 40
0.9818548387096898
 40
0.9818548387096898
 40
0.9818548387096898
 40
0.9818548387096898
 40
0.9838709677419479
 40
0.9838709677419479
 40
0.9838709677419479
 40
0.9838709677419479
 40
0.985887096774206
 40
0.985887096774206
 40
0.985887096774206
 40
0.985887096774206
 40
0.9879032258064642
 40
0.9879032258064642
 40
0.9879032258064642
 40
0.9879032258064642
 40
0.9899193548387223
 40
0.9899193548387223
 40
0.9899193548387223
 40
0.9899193548387223
 40
0.9919354838709804
 40
0.9919354838709804
 40
0.9919354838709804
 40
0.9919354838709804
 40
0.9939516129032385
 40
0.9939516129032385
 40
0.9939516129032385
 40
0.9939516129032385
 40
0.9959677419354966
 40
0.9959677419354966
 40
0.9959677419354966
 40
0.9959677419354966
 40
0.9979838709677548
 40
0.9979838709677548
 40
0.9979838709677548
 40
0.9979838709677548
 40
1.0
 40
1.0
 40
1.0
 40
1.0
 10
-10.2056
 20
-12.85735
 30
0.0
 10
-10.2056
 20
-12.85735
 30
0.0
 10
-10.23361
 20
-12.85473
 30
0.0
 10
-10.23361
 20
-12.85473
 30
0.0
 10
-10.23361
 20
-12.85473
 30
0.0
 10
-10.24185
 20
-12.85392
 30
0.0
 10
-10.24919
 20
-12.85995
 30
0.0
 10
-10.24992
 20
-12.86785
 30
0.0
 10
-10.24992
 20
-12.86785
 30
0.0
 10
-10.25701
 20
-12.89288
 30
0.0
 10
-10.28152
 20
-12.91028
 30
0.0
 10
-10.30869
 20
-12.90761
 30
0.0
 10
-10.30869
 20
-12.90761
 30
0.0
 10
-10.33586
 20
-12.90493
 30
0.0
 10
-10.35651
 20
-12.88308
 30
0.0
 10
-10.35855
 20
-12.85715
 30
0.0
 10
-10.35855
 20
-12.85715
 30
0.0
 10
-10.3585
 20
-12.85731
 30
0.0
 10
-10.35849
 20
-12.85711
 30
0.0
 10
-10.35847
 20
-12.85692
 30
0.0
 10
-10.35847
 20
-12.85692
 30
0.0
 10
-10.358
 20
-12.84893
 30
0.0
 10
-10.36393
 20
-12.8419
 30
0.0
 10
-10.37198
 20
-12.84111
 30
0.0
 10
-10.37198
 20
-12.84111
 30
0.0
 10
-10.37198
 20
-12.84111
 30
0.0
 10
-10.4
 20
-12.8382
 30
0.0
 10
-10.4
 20
-12.8382
 30
0.0
 10
-10.4
 20
-12.8382
 30
0.0
 10
-10.4
 20
-12.8382
 30
0.0
 10
-10.40233
 20
-12.83809
 30
0.0
 10
-10.40233
 20
-12.83809
 30
0.0
 10
-10.40233
 20
-12.83809
 30
0.0
 10
-10.40233
 20
-12.83809
 30
0.0
 10
-10.43046
 20
-12.83823
 30
0.0
 10
-10.43046
 20
-12.83823
 30
0.0
 10
-10.43046
 20
-12.83823
 30
0.0
 10
-10.43874
 20
-12.83823
 30
0.0
 10
-10.44546
 20
-12.84495
 30
0.0
 10
-10.44541
 20
-12.85288
 30
0.0
 10
-10.44541
 20
-12.85288
 30
0.0
 10
-10.45001
 20
-12.87849
 30
0.0
 10
-10.4727
 20
-12.89821
 30
0.0
 10
-10.5
 20
-12.89821
 30
0.0
 10
-10.5
 20
-12.89821
 30
0.0
 10
-10.5273
 20
-12.89821
 30
0.0
 10
-10.54999
 20
-12.87849
 30
0.0
 10
-10.55456
 20
-12.85288
 30
0.0
 10
-10.55456
 20
-12.85288
 30
0.0
 10
-10.5545
 20
-12.85304
 30
0.0
 10
-10.55451
 20
-12.85284
 30
0.0
 10
-10.55451
 20
-12.85265
 30
0.0
 10
-10.55451
 20
-12.85265
 30
0.0
 10
-10.55482
 20
-12.84465
 30
0.0
 10
-10.56141
 20
-12.83823
 30
0.0
 10
-10.5695
 20
-12.83823
 30
0.0
 10
-10.5695
 20
-12.83823
 30
0.0
 10
-10.5695
 20
-12.83823
 30
0.0
 10
-10.59767
 20
-12.83809
 30
0.0
 10
-10.59767
 20
-12.83809
 30
0.0
 10
-10.59767
 20
-12.83809
 30
0.0
 10
-10.59767
 20
-12.83809
 30
0.0
 10
-10.6
 20
-12.8382
 30
0.0
 10
-10.6
 20
-12.8382
 30
0.0
 10
-10.6
 20
-12.8382
 30
0.0
 10
-10.6
 20
-12.8382
 30
0.0
 10
-10.62798
 20
-12.8411
 30
0.0
 10
-10.62798
 20
-12.8411
 30
0.0
 10
-10.62798
 20
-12.8411
 30
0.0
 10
-10.63622
 20
-12.84191
 30
0.0
 10
-10.64225
 20
-12.84926
 30
0.0
 10
-10.64142
 20
-12.85715
 30
0.0
 10
-10.64142
 20
-12.85715
 30
0.0
 10
-10.64349
 20
-12.88308
 30
0.0
 10
-10.66414
 20
-12.90493
 30
0.0
 10
-10.69131
 20
-12.90761
 30
0.0
 10
-10.69131
 20
-12.90761
 30
0.0
 10
-10.71848
 20
-12.91028
 30
0.0
 10
-10.74299
 20
-12.89288
 30
0.0
 10
-10.75005
 20
-12.86784
 30
0.0
 10
-10.75005
 20
-12.86784
 30
0.0
 10
-10.74997
 20
-12.868
 30
0.0
 10
-10.75
 20
-12.8678
 30
0.0
 10
-10.75002
 20
-12.86761
 30
0.0
 10
-10.75002
 20
-12.86761
 30
0.0
 10
-10.75111
 20
-12.85968
 30
0.0
 10
-10.7583
 20
-12.85394
 30
0.0
 10
-10.76635
 20
-12.85473
 30
0.0
 10
-10.76635
 20
-12.85473
 30
0.0
 10
-10.76635
 20
-12.85473
 30
0.0
 10
-10.7944
 20
-12.85735
 30
0.0
 10
-10.7944
 20
-12.85735
 30
0.0
 10
-10.7944
 20
-12.85735
 30
0.0
 10
-10.7944
 20
-12.85735
 30
0.0
 10
-10.79671
 20
-12.85769
 30
0.0
 10
-10.79671
 20
-12.85769
 30
0.0
 10
-10.79671
 20
-12.85769
 30
0.0
 10
-10.79671
 20
-12.85769
 30
0.0
 10
-10.82427
 20
-12.86332
 30
0.0
 10
-10.82427
 20
-12.86332
 30
0.0
 10
-10.82427
 20
-12.86332
 30
0.0
 10
-10.83239
 20
-12.86493
 30
0.0
 10
-10.83767
 20
-12.87284
 30
0.0
 10
-10.83608
 20
-12.8806
 30
0.0
 10
-10.83608
 20
-12.8806
 30
0.0
 10
-10.83559
 20
-12.90662
 30
0.0
 10
-10.854
 20
-12.93039
 30
0.0
 10
-10.88078
 20
-12.93571
 30
0.0
 10
-10.88078
 20
-12.93571
 30
0.0
 10
-10.90755
 20
-12.94104
 30
0.0
 10
-10.93365
 20
-12.92612
 30
0.0
 10
-10.94313
 20
-12.9019
 30
0.0
 10
-10.94313
 20
-12.9019
 30
0.0
 10
-10.94304
 20
-12.90204
 30
0.0
 10
-10.94309
 20
-12.90185
 30
0.0
 10
-10.94313
 20
-12.90166
 30
0.0
 10
-10.94313
 20
-12.90166
 30
0.0
 10
-10.94499
 20
-12.89388
 30
0.0
 10
-10.95271
 20
-12.88887
 30
0.0
 10
-10.96064
 20
-12.89044
 30
0.0
 10
-10.96064
 20
-12.89044
 30
0.0
 10
-10.96064
 20
-12.89044
 30
0.0
 10
-10.9883
 20
-12.8958
 30
0.0
 10
-10.9883
 20
-12.8958
 30
0.0
 10
-10.9883
 20
-12.8958
 30
0.0
 10
-10.9883
 20
-12.8958
 30
0.0
 10
-10.99056
 20
-12.89637
 30
0.0
 10
-10.99056
 20
-12.89637
 30
0.0
 10
-10.99056
 20
-12.89637
 30
0.0
 10
-10.99056
 20
-12.89637
 30
0.0
 10
-11.01744
 20
-12.90467
 30
0.0
 10
-11.01744
 20
-12.90467
 30
0.0
 10
-11.01744
 20
-12.90467
 30
0.0
 10
-11.02536
 20
-12.90707
 30
0.0
 10
-11.02984
 20
-12.91545
 30
0.0
 10
-11.02749
 20
-12.92303
 30
0.0
 10
-11.02749
 20
-12.92303
 30
0.0
 10
-11.02446
 20
-12.94887
 30
0.0
 10
-11.04045
 20
-12.97433
 30
0.0
 10
-11.06657
 20
-12.98225
 30
0.0
 10
-11.06657
 20
-12.98225
 30
0.0
 10
-11.0927
 20
-12.99018
 30
0.0
 10
-11.12014
 20
-12.97789
 30
0.0
 10
-11.13194
 20
-12.95471
 30
0.0
 10
-11.13194
 20
-12.95471
 30
0.0
 10
-11.13184
 20
-12.95485
 30
0.0
 10
-11.13191
 20
-12.95466
 30
0.0
 10
-11.13196
 20
-12.95448
 30
0.0
 10
-11.13196
 20
-12.95448
 30
0.0
 10
-11.13458
 20
-12.94691
 30
0.0
 10
-11.14275
 20
-12.94268
 30
0.0
 10
-11.15049
 20
-12.94503
 30
0.0
 10
-11.15049
 20
-12.94503
 30
0.0
 10
-11.15049
 20
-12.94503
 30
0.0
 10
-11.17749
 20
-12.95307
 30
0.0
 10
-11.17749
 20
-12.95307
 30
0.0
 10
-11.17749
 20
-12.95307
 30
0.0
 10
-11.17749
 20
-12.95307
 30
0.0
 10
-11.17969
 20
-12.95386
 30
0.0
 10
-11.17969
 20
-12.95386
 30
0.0
 10
-11.17969
 20
-12.95386
 30
0.0
 10
-11.17969
 20
-12.95386
 30
0.0
 10
-11.20562
 20
-12.96476
 30
0.0
 10
-11.20562
 20
-12.96476
 30
0.0
 10
-11.20562
 20
-12.96476
 30
0.0
 10
-11.21327
 20
-12.96792
 30
0.0
 10
-11.21691
 20
-12.9767
 30
0.0
 10
-11.21383
 20
-12.98401
 30
0.0
 10
-11.21383
 20
-12.98401
 30
0.0
 10
-11.20828
 20
-13.00943
 30
0.0
 10
-11.2217
 20
-13.03633
 30
0.0
 10
-11.24692
 20
-13.04678
 30
0.0
 10
-11.24692
 20
-13.04678
 30
0.0
 10
-11.27214
 20
-13.05723
 30
0.0
 10
-11.30065
 20
-13.04769
 30
0.0
 10
-11.31467
 20
-13.02578
 30
0.0
 10
-11.31467
 20
-13.02578
 30
0.0
 10
-11.31455
 20
-13.02591
 30
0.0
 10
-11.31464
 20
-13.02572
 30
0.0
 10
-11.31471
 20
-13.02555
 30
0.0
 10
-11.31471
 20
-13.02555
 30
0.0
 10
-11.31806
 20
-13.01828
 30
0.0
 10
-11.32661
 20
-13.01487
 30
0.0
 10
-11.33408
 20
-13.01796
 30
0.0
 10
-11.33408
 20
-13.01796
 30
0.0
 10
-11.33408
 20
-13.01796
 30
0.0
 10
-11.36016
 20
-13.02861
 30
0.0
 10
-11.36016
 20
-13.02861
 30
0.0
 10
-11.36016
 20
-13.02861
 30
0.0
 10
-11.36016
 20
-13.02861
 30
0.0
 10
-11.36227
 20
-13.02961
 30
0.0
 10
-11.36227
 20
-13.02961
 30
0.0
 10
-11.36227
 20
-13.02961
 30
0.0
 10
-11.36227
 20
-13.02961
 30
0.0
 10
-11.38701
 20
-13.043
 30
0.0
 10
-11.38701
 20
-13.043
 30
0.0
 10
-11.38701
 20
-13.043
 30
0.0
 10
-11.39432
 20
-13.0469
 30
0.0
 10
-11.39707
 20
-13.05599
 30
0.0
 10
-11.39329
 20
-13.06296
 30
0.0
 10
-11.39329
 20
-13.06296
 30
0.0
 10
-11.38528
 20
-13.08772
 30
0.0
 10
-11.39599
 20
-13.11581
 30
0.0
 10
-11.42007
 20
-13.12867
 30
0.0
 10
-11.42007
 20
-13.12867
 30
0.0
 10
-11.44414
 20
-13.14154
 30
0.0
 10
-11.47345
 20
-13.13485
 30
0.0
 10
-11.48955
 20
-13.11442
 30
0.0
 10
-11.48955
 20
-13.11442
 30
0.0
 10
-11.48943
 20
-13.11453
 30
0.0
 10
-11.48953
 20
-13.11436
 30
0.0
 10
-11.48962
 20
-13.11419
 30
0.0
 10
-11.48962
 20
-13.11419
 30
0.0
 10
-11.49366
 20
-13.10728
 30
0.0
 10
-11.5025
 20
-13.10473
 30
0.0
 10
-11.50964
 20
-13.10854
 30
0.0
 10
-11.50964
 20
-13.10854
 30
0.0
 10
-11.50964
 20
-13.10854
 30
0.0
 10
-11.53455
 20
-13.12169
 30
0.0
 10
-11.53455
 20
-13.12169
 30
0.0
 10
-11.53455
 20
-13.12169
 30
0.0
 10
-11.53455
 20
-13.12169
 30
0.0
 10
-11.53655
 20
-13.12289
 30
0.0
 10
-11.53655
 20
-13.12289
 30
0.0
 10
-11.53655
 20
-13.12289
 30
0.0
 10
-11.53655
 20
-13.12289
 30
0.0
 10
-11.55986
 20
-13.13864
 30
0.0
 10
-11.55986
 20
-13.13864
 30
0.0
 10
-11.55986
 20
-13.13864
 30
0.0
 10
-11.56674
 20
-13.14324
 30
0.0
 10
-11.5686
 20
-13.15256
 30
0.0
 10
-11.56415
 20
-13.15913
 30
0.0
 10
-11.56415
 20
-13.15913
 30
0.0
 10
-11.55375
 20
-13.18298
 30
0.0
 10
-11.56166
 20
-13.21198
 30
0.0
 10
-11.58436
 20
-13.22715
 30
0.0
 10
-11.58436
 20
-13.22715
 30
0.0
 10
-11.60706
 20
-13.24231
 30
0.0
 10
-11.63688
 20
-13.23852
 30
0.0
 10
-11.65491
 20
-13.21977
 30
0.0
 10
-11.65491
 20
-13.21977
 30
0.0
 10
-11.65477
 20
-13.21987
 30
0.0
 10
-11.65489
 20
-13.21971
 30
0.0
 10
-11.65499
 20
-13.21955
 30
0.0
 10
-11.65499
 20
-13.21955
 30
0.0
 10
-11.65969
 20
-13.21307
 30
0.0
 10
-11.66874
 20
-13.21139
 30
0.0
 10
-11.67547
 20
-13.21589
 30
0.0
 10
-11.67547
 20
-13.21589
 30
0.0
 10
-11.67547
 20
-13.21589
 30
0.0
 10
-11.69897
 20
-13.23142
 30
0.0
 10
-11.69897
 20
-13.23142
 30
0.0
 10
-11.69897
 20
-13.23142
 30
0.0
 10
-11.69957
 20
-13.23192
 30
0.0
 10
-11.70018
 20
-13.2324
 30
0.0
 10
-11.70078
 20
-13.23289
 30
0.0
 10
-11.70078
 20
-13.23289
 30
0.0
 10
-11.71838
 20
-13.24703
 30
0.0
 10
-11.73529
 20
-13.25623
 30
0.0
 10
-11.72476
 20
-13.27157
 30
0.0
 10
-11.72476
 20
-13.27157
 30
0.0
 10
-11.71207
 20
-13.29429
 30
0.0
 10
-11.7171
 20
-13.32393
 30
0.0
 10
-11.7382
 20
-13.34125
 30
0.0
 10
-11.7382
 20
-13.34125
 30
0.0
 10
-11.75931
 20
-13.35856
 30
0.0
 10
-11.78936
 20
-13.35772
 30
0.0
 10
-11.80913
 20
-13.34082
 30
0.0
 10
-11.80913
 20
-13.34082
 30
0.0
 10
-11.80873
 20
-13.34105
 30
0.0
 10
-11.81901
 20
-13.32998
 30
0.0
 10
-11.82998
 20
-13.33897
 30
0.0
 10
-11.82998
 20
-13.33897
 30
0.0
 10
-11.82998
 20
-13.33897
 30
0.0
 10
-11.85185
 20
-13.35673
 30
0.0
 10
-11.85185
 20
-13.35673
 30
0.0
 10
-11.85185
 20
-13.35673
 30
0.0
 10
-11.8524
 20
-13.35728
 30
0.0
 10
-11.85295
 20
-13.35783
 30
0.0
 10
-11.8535
 20
-13.35837
 30
0.0
 10
-11.8535
 20
-13.35837
 30
0.0
 10
-11.86962
 20
-13.37416
 30
0.0
 10
-11.88556
 20
-13.38499
 30
0.0
 10
-11.87358
 20
-13.39922
 30
0.0
 10
-11.87358
 20
-13.39922
 30
0.0
 10
-11.85872
 20
-13.42058
 30
0.0
 10
-11.86082
 20
-13.45057
 30
0.0
 10
-11.88012
 20
-13.46988
 30
0.0
 10
-11.88012
 20
-13.46988
 30
0.0
 10
-11.89943
 20
-13.48918
 30
0.0
 10
-11.92942
 20
-13.49128
 30
0.0
 10
-11.95076
 20
-13.4764
 30
0.0
 10
-11.95076
 20
-13.4764
 30
0.0
 10
-11.95008
 20
-13.4767
 30
0.0
 10
-11.9616
 20
-13.46655
 30
0.0
 10
-11.97168
 20
-13.47661
 30
0.0
 10
-11.97168
 20
-13.47661
 30
0.0
 10
-11.97168
 20
-13.47661
 30
0.0
 10
-11.9917
 20
-13.49643
 30
0.0
 10
-11.9917
 20
-13.49643
 30
0.0
 10
-11.9917
 20
-13.49643
 30
0.0
 10
-11.9917
 20
-13.49643
 30
0.0
 10
-11.99327
 20
-13.49815
 30
0.0
 10
-11.99327
 20
-13.49815
 30
0.0
 10
-11.99327
 20
-13.49815
 30
0.0
 10
-11.99327
 20
-13.49815
 30
0.0
 10
-12.011
 20
-13.51999
 30
0.0
 10
-12.011
 20
-13.51999
 30
0.0
 10
-12.011
 20
-13.51999
 30
0.0
 10
-12.01626
 20
-13.52639
 30
0.0
 10
-12.01532
 20
-13.53585
 30
0.0
 10
-12.00916
 20
-13.54084
 30
0.0
 10
-12.00916
 20
-13.54084
 30
0.0
 10
-11.99228
 20
-13.56064
 30
0.0
 10
-11.99144
 20
-13.59069
 30
0.0
 10
-12.00875
 20
-13.6118
 30
0.0
 10
-12.00875
 20
-13.6118
 30
0.0
 10
-12.02607
 20
-13.6329
 30
0.0
 10
-12.05571
 20
-13.63793
 30
0.0
 10
-12.07841
 20
-13.62522
 30
0.0
 10
-12.07841
 20
-13.62522
 30
0.0
 10
-12.07825
 20
-13.62527
 30
0.0
 10
-12.07841
 20
-13.62515
 30
0.0
 10
-12.07855
 20
-13.62503
 30
0.0
 10
-12.07855
 20
-13.62503
 30
0.0
 10
-12.08493
 20
-13.6202
 30
0.0
 10
-12.09408
 20
-13.62122
 30
0.0
 10
-12.09921
 20
-13.62747
 30
0.0
 10
-12.09921
 20
-13.62747
 30
0.0
 10
-12.09921
 20
-13.62747
 30
0.0
 10
-12.11719
 20
-13.64916
 30
0.0
 10
-12.11719
 20
-13.64916
 30
0.0
 10
-12.11719
 20
-13.64916
 30
0.0
 10
-12.11719
 20
-13.64916
 30
0.0
 10
-12.11858
 20
-13.65103
 30
0.0
 10
-12.11858
 20
-13.65103
 30
0.0
 10
-12.11858
 20
-13.65103
 30
0.0
 10
-12.11858
 20
-13.65103
 30
0.0
 10
-12.13409
 20
-13.6745
 30
0.0
 10
-12.13409
 20
-13.6745
 30
0.0
 10
-12.13409
 20
-13.6745
 30
0.0
 10
-12.13869
 20
-13.68138
 30
0.0
 10
-12.13684
 20
-13.69071
 30
0.0
 10
-12.13022
 20
-13.69507
 30
0.0
 10
-12.13022
 20
-13.69507
 30
0.0
 10
-12.11148
 20
-13.71312
 30
0.0
 10
-12.10769
 20
-13.74294
 30
0.0
 10
-12.12285
 20
-13.76564
 30
0.0
 10
-12.12285
 20
-13.76564
 30
0.0
 10
-12.13802
 20
-13.78834
 30
0.0
 10
-12.16702
 20
-13.79625
 30
0.0
 10
-12.19086
 20
-13.78582
 30
0.0
 10
-12.19086
 20
-13.78582
 30
0.0
 10
-12.19069
 20
-13.78586
 30
0.0
 10
-12.19086
 20
-13.78576
 30
0.0
 10
-12.19102
 20
-13.78566
 30
0.0
 10
-12.19102
 20
-13.78566
 30
0.0
 10
-12.19784
 20
-13.78147
 30
0.0
 10
-12.20684
 20
-13.78338
 30
0.0
 10
-12.21134
 20
-13.79011
 30
0.0
 10
-12.21134
 20
-13.79011
 30
0.0
 10
-12.21134
 20
-13.79011
 30
0.0
 10
-12.22711
 20
-13.81345
 30
0.0
 10
-12.22711
 20
-13.81345
 30
0.0
 10
-12.22711
 20
-13.81345
 30
0.0
 10
-12.22711
 20
-13.81345
 30
0.0
 10
-12.22831
 20
-13.81545
 30
0.0
 10
-12.22831
 20
-13.81545
 30
0.0
 10
-12.22831
 20
-13.81545
 30
0.0
 10
-12.22831
 20
-13.81545
 30
0.0
 10
-12.24144
 20
-13.84033
 30
0.0
 10
-12.24144
 20
-13.84033
 30
0.0
 10
-12.24144
 20
-13.84033
 30
0.0
 10
-12.24534
 20
-13.84763
 30
0.0
 10
-12.24259
 20
-13.85673
 30
0.0
 10
-12.23557
 20
-13.86042
 30
0.0
 10
-12.23557
 20
-13.86042
 30
0.0
 10
-12.21515
 20
-13.87655
 30
0.0
 10
-12.20846
 20
-13.90586
 30
0.0
 10
-12.22133
 20
-13.92993
 30
0.0
 10
-12.22133
 20
-13.92993
 30
0.0
 10
-12.23419
 20
-13.95401
 30
0.0
 10
-12.26228
 20
-13.96472
 30
0.0
 10
-12.28702
 20
-13.95668
 30
0.0
 10
-12.28702
 20
-13.95668
 30
0.0
 10
-12.28685
 20
-13.9567
 30
0.0
 10
-12.28703
 20
-13.95662
 30
0.0
 10
-12.2872
 20
-13.95653
 30
0.0
 10
-12.2872
 20
-13.95653
 30
0.0
 10
-12.2944
 20
-13.95303
 30
0.0
 10
-12.30317
 20
-13.95582
 30
0.0
 10
-12.30698
 20
-13.96295
 30
0.0
 10
-12.30698
 20
-13.96295
 30
0.0
 10
-12.30698
 20
-13.96295
 30
0.0
 10
-12.32039
 20
-13.98773
 30
0.0
 10
-12.32039
 20
-13.98773
 30
0.0
 10
-12.32039
 20
-13.98773
 30
0.0
 10
-12.32039
 20
-13.98773
 30
0.0
 10
-12.32139
 20
-13.98984
 30
0.0
 10
-12.32139
 20
-13.98984
 30
0.0
 10
-12.32139
 20
-13.98984
 30
0.0
 10
-12.32139
 20
-13.98984
 30
0.0
 10
-12.33202
 20
-14.01588
 30
0.0
 10
-12.33202
 20
-14.01588
 30
0.0
 10
-12.33202
 20
-14.01588
 30
0.0
 10
-12.33519
 20
-14.02353
 30
0.0
 10
-12.33155
 20
-14.03231
 30
0.0
 10
-12.32421
 20
-14.0353
 30
0.0
 10
-12.32421
 20
-14.0353
 30
0.0
 10
-12.30231
 20
-14.04935
 30
0.0
 10
-12.29277
 20
-14.07786
 30
0.0
 10
-12.30322
 20
-14.10308
 30
0.0
 10
-12.30322
 20
-14.10308
 30
0.0
 10
-12.31367
 20
-14.1283
 30
0.0
 10
-12.34057
 20
-14.14172
 30
0.0
 10
-12.36598
 20
-14.13614
 30
0.0
 10
-12.36598
 20
-14.13614
 30
0.0
 10
-12.36581
 20
-14.13615
 30
0.0
 10
-12.366
 20
-14.13608
 30
0.0
 10
-12.36617
 20
-14.13601
 30
0.0
 10
-12.36617
 20
-14.13601
 30
0.0
 10
-12.37368
 20
-14.13323
 30
0.0
 10
-12.38213
 20
-14.13686
 30
0.0
 10
-12.38523
 20
-14.14434
 30
0.0
 10
-12.38523
 20
-14.14434
 30
0.0
 10
-12.38523
 20
-14.14434
 30
0.0
 10
-12.39614
 20
-14.17031
 30
0.0
 10
-12.39614
 20
-14.17031
 30
0.0
 10
-12.39614
 20
-14.17031
 30
0.0
 10
-12.39614
 20
-14.17031
 30
0.0
 10
-12.39693
 20
-14.17251
 30
0.0
 10
-12.39693
 20
-14.17251
 30
0.0
 10
-12.39693
 20
-14.17251
 30
0.0
 10
-12.39693
 20
-14.17251
 30
0.0
 10
-12.40496
 20
-14.19947
 30
0.0
 10
-12.40496
 20
-14.19947
 30
0.0
 10
-12.40496
 20
-14.19947
 30
0.0
 10
-12.40736
 20
-14.20739
 30
0.0
 10
-12.40288
 20
-14.21577
 30
0.0
 10
-12.39528
 20
-14.21803
 30
0.0
 10
-12.39528
 20
-14.21803
 30
0.0
 10
-12.37211
 20
-14.22986
 30
0.0
 10
-12.35982
 20
-14.2573
 30
0.0
 10
-12.36775
 20
-14.28343
 30
0.0
 10
-12.36775
 20
-14.28343
 30
0.0
 10
-12.37567
 20
-14.30955
 30
0.0
 10
-12.40113
 20
-14.32554
 30
0.0
 10
-12.42696
 20
-14.32248
 30
0.0
 10
-12.42696
 20
-14.32248
 30
0.0
 10
-12.42679
 20
-14.32247
 30
0.0
 10
-12.42699
 20
-14.32242
 30
0.0
 10
-12.42717
 20
-14.32236
 30
0.0
 10
-12.42717
 20
-14.32236
 30
0.0
 10
-12.43491
 20
-14.32034
 30
0.0
 10
-12.44297
 20
-14.32478
 30
0.0
 10
-12.44532
 20
-14.33252
 30
0.0
 10
-12.44532
 20
-14.33252
 30
0.0
 10
-12.44532
 20
-14.33252
 30
0.0
 10
-12.45363
 20
-14.35944
 30
0.0
 10
-12.45363
 20
-14.35944
 30
0.0
 10
-12.45363
 20
-14.35944
 30
0.0
 10
-12.45363
 20
-14.35944
 30
0.0
 10
-12.4542
 20
-14.3617
 30
0.0
 10
-12.4542
 20
-14.3617
 30
0.0
 10
-12.4542
 20
-14.3617
 30
0.0
 10
-12.4542
 20
-14.3617
 30
0.0
 10
-12.45955
 20
-14.38932
 30
0.0
 10
-12.45955
 20
-14.38932
 30
0.0
 10
-12.45955
 20
-14.38932
 30
0.0
 10
-12.46116
 20
-14.39744
 30
0.0
 10
-12.45588
 20
-14.40534
 30
0.0
 10
-12.4481
 20
-14.40684
 30
0.0
 10
-12.4481
 20
-14.40684
 30
0.0
 10
-12.42388
 20
-14.41635
 30
0.0
 10
-12.40896
 20
-14.44245
 30
0.0
 10
-12.41429
 20
-14.46922
 30
0.0
 10
-12.41429
 20
-14.46922
 30
0.0
 10
-12.41961
 20
-14.496
 30
0.0
 10
-12.44338
 20
-14.51441
 30
0.0
 10
-12.46939
 20
-14.51389
 30
0.0
 10
-12.46939
 20
-14.51389
 30
0.0
 10
-12.46922
 20
-14.51387
 30
0.0
 10
-12.46942
 20
-14.51384
 30
0.0
 10
-12.46961
 20
-14.5138
 30
0.0
 10
-12.46961
 20
-14.5138
 30
0.0
 10
-12.47751
 20
-14.51254
 30
0.0
 10
-12.48509
 20
-14.51775
 30
0.0
 10
-12.48667
 20
-14.52569
 30
0.0
 10
-12.48667
 20
-14.52569
 30
0.0
 10
-12.48667
 20
-14.52569
 30
0.0
 10
-12.49231
 20
-14.55329
 30
0.0
 10
-12.49231
 20
-14.55329
 30
0.0
 10
-12.49231
 20
-14.55329
 30
0.0
 10
-12.49231
 20
-14.55329
 30
0.0
 10
-12.49265
 20
-14.5556
 30
0.0
 10
-12.49265
 20
-14.5556
 30
0.0
 10
-12.49265
 20
-14.5556
 30
0.0
 10
-12.49265
 20
-14.5556
 30
0.0
 10
-12.49527
 20
-14.58361
 30
0.0
 10
-12.49527
 20
-14.58361
 30
0.0
 10
-12.49527
 20
-14.58361
 30
0.0
 10
-12.49608
 20
-14.59185
 30
0.0
 10
-12.49005
 20
-14.59919
 30
0.0
 10
-12.48215
 20
-14.59992
 30
0.0
 10
-12.48215
 20
-14.59992
 30
0.0
 10
-12.45712
 20
-14.60701
 30
0.0
 10
-12.43972
 20
-14.63152
 30
0.0
 10
-12.44239
 20
-14.65869
 30
0.0
 10
-12.44239
 20
-14.65869
 30
0.0
 10
-12.44507
 20
-14.68586
 30
0.0
 10
-12.46692
 20
-14.70651
 30
0.0
 10
-12.49285
 20
-14.70855
 30
0.0
 10
-12.49285
 20
-14.70855
 30
0.0
 10
-12.49269
 20
-14.7085
 30
0.0
 10
-12.49289
 20
-14.70849
 30
0.0
 10
-12.49308
 20
-14.70847
 30
0.0
 10
-12.49308
 20
-14.70847
 30
0.0
 10
-12.50107
 20
-14.708
 30
0.0
 10
-12.5081
 20
-14.71393
 30
0.0
 10
-12.50889
 20
-14.72198
 30
0.0
 10
-12.50889
 20
-14.72198
 30
0.0
 10
-12.50889
 20
-14.72198
 30
0.0
 10
-12.5118
 20
-14.75
 30
0.0
 10
-12.5118
 20
-14.75
 30
0.0
 10
-12.5118
 20
-14.75
 30
0.0
 10
-12.5118
 20
-14.75
 30
0.0
 10
-12.51191
 20
-14.75233
 30
0.0
 10
-12.51191
 20
-14.75233
 30
0.0
 10
-12.51191
 20
-14.75233
 30
0.0
 10
-12.51191
 20
-14.75233
 30
0.0
 10
-12.51177
 20
-14.78046
 30
0.0
 10
-12.51177
 20
-14.78046
 30
0.0
 10
-12.51177
 20
-14.78046
 30
0.0
 10
-12.51177
 20
-14.78874
 30
0.0
 10
-12.50505
 20
-14.79546
 30
0.0
 10
-12.49712
 20
-14.79541
 30
0.0
 10
-12.49712
 20
-14.79541
 30
0.0
 10
-12.47151
 20
-14.80001
 30
0.0
 10
-12.45179
 20
-14.8227
 30
0.0
 10
-12.45179
 20
-14.85
 30
0.0
 10
-12.45179
 20
-14.85
 30
0.0
 10
-12.45179
 20
-14.8773
 30
0.0
 10
-12.47151
 20
-14.89999
 30
0.0
 10
-12.49712
 20
-14.90456
 30
0.0
 10
-12.49712
 20
-14.90456
 30
0.0
 10
-12.49696
 20
-14.9045
 30
0.0
 10
-12.49716
 20
-14.90451
 30
0.0
 10
-12.49735
 20
-14.90451
 30
0.0
 10
-12.49735
 20
-14.90451
 30
0.0
 10
-12.50535
 20
-14.90482
 30
0.0
 10
-12.51177
 20
-14.91141
 30
0.0
 10
-12.51177
 20
-14.9195
 30
0.0
 10
-12.51177
 20
-14.9195
 30
0.0
 10
-12.51177
 20
-14.9195
 30
0.0
 10
-12.51191
 20
-14.94767
 30
0.0
 10
-12.51191
 20
-14.94767
 30
0.0
 10
-12.51191
 20
-14.94767
 30
0.0
 10
-12.51191
 20
-14.94767
 30
0.0
 10
-12.5118
 20
-14.95
 30
0.0
 10
-12.5118
 20
-14.95
 30
0.0
 10
-12.5118
 20
-14.95
 30
0.0
 10
-12.5118
 20
-14.95
 30
0.0
 10
-12.5089
 20
-14.97798
 30
0.0
 10
-12.5089
 20
-14.97798
 30
0.0
 10
-12.5089
 20
-14.97798
 30
0.0
 10
-12.50809
 20
-14.98622
 30
0.0
 10
-12.50074
 20
-14.99225
 30
0.0
 10
-12.49285
 20
-14.99142
 30
0.0
 10
-12.49285
 20
-14.99142
 30
0.0
 10
-12.46692
 20
-14.99349
 30
0.0
 10
-12.44507
 20
-15.01414
 30
0.0
 10
-12.44239
 20
-15.04131
 30
0.0
 10
-12.44239
 20
-15.04131
 30
0.0
 10
-12.43972
 20
-15.06848
 30
0.0
 10
-12.45712
 20
-15.09299
 30
0.0
 10
-12.48216
 20
-15.10005
 30
0.0
 10
-12.48216
 20
-15.10005
 30
0.0
 10
-12.482
 20
-15.09997
 30
0.0
 10
-12.4822
 20
-15.1
 30
0.0
 10
-12.48239
 20
-15.10002
 30
0.0
 10
-12.48239
 20
-15.10002
 30
0.0
 10
-12.49032
 20
-15.10111
 30
0.0
 10
-12.49606
 20
-15.1083
 30
0.0
 10
-12.49527
 20
-15.11635
 30
0.0
 10
-12.49527
 20
-15.11635
 30
0.0
 10
-12.49527
 20
-15.11635
 30
0.0
 10
-12.49265
 20
-15.1444
 30
0.0
 10
-12.49265
 20
-15.1444
 30
0.0
 10
-12.49265
 20
-15.1444
 30
0.0
 10
-12.49265
 20
-15.1444
 30
0.0
 10
-12.49231
 20
-15.14671
 30
0.0
 10
-12.49231
 20
-15.14671
 30
0.0
 10
-12.49231
 20
-15.14671
 30
0.0
 10
-12.49231
 20
-15.14671
 30
0.0
 10
-12.48668
 20
-15.17427
 30
0.0
 10
-12.48668
 20
-15.17427
 30
0.0
 10
-12.48668
 20
-15.17427
 30
0.0
 10
-12.48507
 20
-15.18239
 30
0.0
 10
-12.47716
 20
-15.18767
 30
0.0
 10
-12.4694
 20
-15.18608
 30
0.0
 10
-12.4694
 20
-15.18608
 30
0.0
 10
-12.44338
 20
-15.18559
 30
0.0
 10
-12.41961
 20
-15.204
 30
0.0
 10
-12.41429
 20
-15.23078
 30
0.0
 10
-12.41429
 20
-15.23078
 30
0.0
 10
-12.40896
 20
-15.25755
 30
0.0
 10
-12.42388
 20
-15.28365
 30
0.0
 10
-12.4481
 20
-15.29313
 30
0.0
 10
-12.4481
 20
-15.29313
 30
0.0
 10
-12.44796
 20
-15.29304
 30
0.0
 10
-12.44815
 20
-15.29309
 30
0.0
 10
-12.44834
 20
-15.29313
 30
0.0
 10
-12.44834
 20
-15.29313
 30
0.0
 10
-12.45612
 20
-15.29499
 30
0.0
 10
-12.46113
 20
-15.30271
 30
0.0
 10
-12.45956
 20
-15.31064
 30
0.0
 10
-12.45956
 20
-15.31064
 30
0.0
 10
-12.45956
 20
-15.31064
 30
0.0
 10
-12.4542
 20
-15.3383
 30
0.0
 10
-12.4542
 20
-15.3383
 30
0.0
 10
-12.4542
 20
-15.3383
 30
0.0
 10
-12.4542
 20
-15.3383
 30
0.0
 10
-12.45363
 20
-15.34056
 30
0.0
 10
-12.45363
 20
-15.34056
 30
0.0
 10
-12.45363
 20
-15.34056
 30
0.0
 10
-12.45363
 20
-15.34056
 30
0.0
 10
-12.44533
 20
-15.36744
 30
0.0
 10
-12.44533
 20
-15.36744
 30
0.0
 10
-12.44533
 20
-15.36744
 30
0.0
 10
-12.44293
 20
-15.37536
 30
0.0
 10
-12.43455
 20
-15.37984
 30
0.0
 10
-12.42697
 20
-15.37749
 30
0.0
 10
-12.42697
 20
-15.37749
 30
0.0
 10
-12.40113
 20
-15.37446
 30
0.0
 10
-12.37567
 20
-15.39045
 30
0.0
 10
-12.36775
 20
-15.41657
 30
0.0
 10
-12.36775
 20
-15.41657
 30
0.0
 10
-12.35982
 20
-15.4427
 30
0.0
 10
-12.37211
 20
-15.47014
 30
0.0
 10
-12.39529
 20
-15.48194
 30
0.0
 10
-12.39529
 20
-15.48194
 30
0.0
 10
-12.39515
 20
-15.48184
 30
0.0
 10
-12.39534
 20
-15.48191
 30
0.0
 10
-12.39552
 20
-15.48196
 30
0.0
 10
-12.39552
 20
-15.48196
 30
0.0
 10
-12.40309
 20
-15.48458
 30
0.0
 10
-12.40732
 20
-15.49275
 30
0.0
 10
-12.40497
 20
-15.50049
 30
0.0
 10
-12.40497
 20
-15.50049
 30
0.0
 10
-12.40497
 20
-15.50049
 30
0.0
 10
-12.39693
 20
-15.52749
 30
0.0
 10
-12.39693
 20
-15.52749
 30
0.0
 10
-12.39693
 20
-15.52749
 30
0.0
 10
-12.39693
 20
-15.52749
 30
0.0
 10
-12.39614
 20
-15.52969
 30
0.0
 10
-12.39614
 20
-15.52969
 30
0.0
 10
-12.39614
 20
-15.52969
 30
0.0
 10
-12.39614
 20
-15.52969
 30
0.0
 10
-12.38524
 20
-15.55562
 30
0.0
 10
-12.38524
 20
-15.55562
 30
0.0
 10
-12.38524
 20
-15.55562
 30
0.0
 10
-12.38208
 20
-15.56327
 30
0.0
 10
-12.3733
 20
-15.56691
 30
0.0
 10
-12.36599
 20
-15.56383
 30
0.0
 10
-12.36599
 20
-15.56383
 30
0.0
 10
-12.34057
 20
-15.55828
 30
0.0
 10
-12.31367
 20
-15.5717
 30
0.0
 10
-12.30322
 20
-15.59692
 30
0.0
 10
-12.30322
 20
-15.59692
 30
0.0
 10
-12.29277
 20
-15.62214
 30
0.0
 10
-12.30231
 20
-15.65065
 30
0.0
 10
-12.32422
 20
-15.66467
 30
0.0
 10
-12.32422
 20
-15.66467
 30
0.0
 10
-12.32409
 20
-15.66455
 30
0.0
 10
-12.32428
 20
-15.66464
 30
0.0
 10
-12.32445
 20
-15.66471
 30
0.0
 10
-12.32445
 20
-15.66471
 30
0.0
 10
-12.33172
 20
-15.66806
 30
0.0
 10
-12.33513
 20
-15.67661
 30
0.0
 10
-12.33204
 20
-15.68408
 30
0.0
 10
-12.33204
 20
-15.68408
 30
0.0
 10
-12.33204
 20
-15.68408
 30
0.0
 10
-12.32139
 20
-15.71016
 30
0.0
 10
-12.32139
 20
-15.71016
 30
0.0
 10
-12.32139
 20
-15.71016
 30
0.0
 10
-12.32139
 20
-15.71016
 30
0.0
 10
-12.32039
 20
-15.71227
 30
0.0
 10
-12.32039
 20
-15.71227
 30
0.0
 10
-12.32039
 20
-15.71227
 30
0.0
 10
-12.32039
 20
-15.71227
 30
0.0
 10
-12.307
 20
-15.73701
 30
0.0
 10
-12.307
 20
-15.73701
 30
0.0
 10
-12.307
 20
-15.73701
 30
0.0
 10
-12.3031
 20
-15.74432
 30
0.0
 10
-12.29401
 20
-15.74707
 30
0.0
 10
-12.28704
 20
-15.74329
 30
0.0
 10
-12.28704
 20
-15.74329
 30
0.0
 10
-12.26228
 20
-15.73528
 30
0.0
 10
-12.23419
 20
-15.74599
 30
0.0
 10
-12.22133
 20
-15.77007
 30
0.0
 10
-12.22133
 20
-15.77007
 30
0.0
 10
-12.20846
 20
-15.79414
 30
0.0
 10
-12.21515
 20
-15.82345
 30
0.0
 10
-12.23558
 20
-15.83955
 30
0.0
 10
-12.23558
 20
-15.83955
 30
0.0
 10
-12.23547
 20
-15.83943
 30
0.0
 10
-12.23564
 20
-15.83953
 30
0.0
 10
-12.23581
 20
-15.83962
 30
0.0
 10
-12.23581
 20
-15.83962
 30
0.0
 10
-12.24272
 20
-15.84366
 30
0.0
 10
-12.24527
 20
-15.8525
 30
0.0
 10
-12.24146
 20
-15.85964
 30
0.0
 10
-12.24146
 20
-15.85964
 30
0.0
 10
-12.24146
 20
-15.85964
 30
0.0
 10
-12.22831
 20
-15.88455
 30
0.0
 10
-12.22831
 20
-15.88455
 30
0.0
 10
-12.22831
 20
-15.88455
 30
0.0
 10
-12.22831
 20
-15.88455
 30
0.0
 10
-12.22711
 20
-15.88655
 30
0.0
 10
-12.22711
 20
-15.88655
 30
0.0
 10
-12.22711
 20
-15.88655
 30
0.0
 10
-12.22711
 20
-15.88655
 30
0.0
 10
-12.21136
 20
-15.90986
 30
0.0
 10
-12.21136
 20
-15.90986
 30
0.0
 10
-12.21136
 20
-15.90986
 30
0.0
 10
-12.20676
 20
-15.91674
 30
0.0
 10
-12.19744
 20
-15.9186
 30
0.0
 10
-12.19087
 20
-15.91415
 30
0.0
 10
-12.19087
 20
-15.91415
 30
0.0
 10
-12.16702
 20
-15.90375
 30
0.0
 10
-12.13802
 20
-15.91166
 30
0.0
 10
-12.12285
 20
-15.93436
 30
0.0
 10
-12.12285
 20
-15.93436
 30
0.0
 10
-12.10769
 20
-15.95706
 30
0.0
 10
-12.11148
 20
-15.98688
 30
0.0
 10
-12.13023
 20
-16.00491
 30
0.0
 10
-12.13023
 20
-16.00491
 30
0.0
 10
-12.13013
 20
-16.00477
 30
0.0
 10
-12.13029
 20
-16.00489
 30
0.0
 10
-12.13045
 20
-16.00499
 30
0.0
 10
-12.13045
 20
-16.00499
 30
0.0
 10
-12.13693
 20
-16.00969
 30
0.0
 10
-12.13861
 20
-16.01874
 30
0.0
 10
-12.13411
 20
-16.02547
 30
0.0
 10
-12.13411
 20
-16.02547
 30
0.0
 10
-12.13411
 20
-16.02547
 30
0.0
 10
-12.11858
 20
-16.04897
 30
0.0
 10
-12.11858
 20
-16.04897
 30
0.0
 10
-12.11858
 20
-16.04897
 30
0.0
 10
-12.11808
 20
-16.04957
 30
0.0
 10
-12.1176
 20
-16.05018
 30
0.0
 10
-12.11711
 20
-16.05078
 30
0.0
 10
-12.11711
 20
-16.05078
 30
0.0
 10
-12.10297
 20
-16.06838
 30
0.0
 10
-12.09377
 20
-16.08529
 30
0.0
 10
-12.07843
 20
-16.07476
 30
0.0
 10
-12.07843
 20
-16.07476
 30
0.0
 10
-12.05571
 20
-16.06207
 30
0.0
 10
-12.02607
 20
-16.0671
 30
0.0
 10
-12.00875
 20
-16.0882
 30
0.0
 10
-12.00875
 20
-16.0882
 30
0.0
 10
-11.99144
 20
-16.10931
 30
0.0
 10
-11.99228
 20
-16.13936
 30
0.0
 10
-12.00918
 20
-16.15913
 30
0.0
 10
-12.00918
 20
-16.15913
 30
0.0
 10
-12.00895
 20
-16.15873
 30
0.0
 10
-12.02002
 20
-16.16901
 30
0.0
 10
-12.01103
 20
-16.17998
 30
0.0
 10
-12.01103
 20
-16.17998
 30
0.0
 10
-12.01103
 20
-16.17998
 30
0.0
 10
-11.99327
 20
-16.20185
 30
0.0
 10
-11.99327
 20
-16.20185
 30
0.0
 10
-11.99327
 20
-16.20185
 30
0.0
 10
-11.99272
 20
-16.2024
 30
0.0
 10
-11.99217
 20
-16.20295
 30
0.0
 10
-11.99163
 20
-16.2035
 30
0.0
 10
-11.99163
 20
-16.2035
 30
0.0
 10
-11.97584
 20
-16.21962
 30
0.0
 10
-11.96501
 20
-16.23556
 30
0.0
 10
-11.95078
 20
-16.22358
 30
0.0
 10
-11.95078
 20
-16.22358
 30
0.0
 10
-11.92942
 20
-16.20872
 30
0.0
 10
-11.89943
 20
-16.21082
 30
0.0
 10
-11.88012
 20
-16.23012
 30
0.0
 10
-11.88012
 20
-16.23012
 30
0.0
 10
-11.86082
 20
-16.24943
 30
0.0
 10
-11.85872
 20
-16.27942
 30
0.0
 10
-11.8736
 20
-16.30076
 30
0.0
 10
-11.8736
 20
-16.30076
 30
0.0
 10
-11.8733
 20
-16.30008
 30
0.0
 10
-11.88345
 20
-16.3116
 30
0.0
 10
-11.87339
 20
-16.32168
 30
0.0
 10
-11.87339
 20
-16.32168
 30
0.0
 10
-11.87339
 20
-16.32168
 30
0.0
 10
-11.85357
 20
-16.3417
 30
0.0
 10
-11.85357
 20
-16.3417
 30
0.0
 10
-11.85357
 20
-16.3417
 30
0.0
 10
-11.85357
 20
-16.3417
 30
0.0
 10
-11.85185
 20
-16.34327
 30
0.0
 10
-11.85185
 20
-16.34327
 30
0.0
 10
-11.85185
 20
-16.34327
 30
0.0
 10
-11.85185
 20
-16.34327
 30
0.0
 10
-11.83001
 20
-16.361
 30
0.0
 10
-11.83001
 20
-16.361
 30
0.0
 10
-11.83001
 20
-16.361
 30
0.0
 10
-11.82361
 20
-16.36626
 30
0.0
 10
-11.81415
 20
-16.36532
 30
0.0
 10
-11.80916
 20
-16.35916
 30
0.0
 10
-11.80916
 20
-16.35916
 30
0.0
 10
-11.78936
 20
-16.34228
 30
0.0
 10
-11.75931
 20
-16.34144
 30
0.0
 10
-11.7382
 20
-16.35875
 30
0.0
 10
-11.7382
 20
-16.35875
 30
0.0
 10
-11.7171
 20
-16.37607
 30
0.0
 10
-11.71207
 20
-16.40571
 30
0.0
 10
-11.72478
 20
-16.42841
 30
0.0
 10
-11.72478
 20
-16.42841
 30
0.0
 10
-11.72473
 20
-16.42825
 30
0.0
 10
-11.72485
 20
-16.42841
 30
0.0
 10
-11.72497
 20
-16.42855
 30
0.0
 10
-11.72497
 20
-16.42855
 30
0.0
 10
-11.7298
 20
-16.43493
 30
0.0
 10
-11.72878
 20
-16.44408
 30
0.0
 10
-11.72253
 20
-16.44921
 30
0.0
 10
-11.72253
 20
-16.44921
 30
0.0
 10
-11.72253
 20
-16.44921
 30
0.0
 10
-11.70084
 20
-16.46719
 30
0.0
 10
-11.70084
 20
-16.46719
 30
0.0
 10
-11.70084
 20
-16.46719
 30
0.0
 10
-11.70084
 20
-16.46719
 30
0.0
 10
-11.69897
 20
-16.46858
 30
0.0
 10
-11.69897
 20
-16.46858
 30
0.0
 10
-11.69897
 20
-16.46858
 30
0.0
 10
-11.69897
 20
-16.46858
 30
0.0
 10
-11.6755
 20
-16.48409
 30
0.0
 10
-11.6755
 20
-16.48409
 30
0.0
 10
-11.6755
 20
-16.48409
 30
0.0
 10
-11.66862
 20
-16.48869
 30
0.0
 10
-11.65929
 20
-16.48684
 30
0.0
 10
-11.65493
 20
-16.48022
 30
0.0
 10
-11.65493
 20
-16.48022
 30
0.0
 10
-11.63688
 20
-16.46148
 30
0.0
 10
-11.60706
 20
-16.45769
 30
0.0
 10
-11.58436
 20
-16.47285
 30
0.0
 10
-11.58436
 20
-16.47285
 30
0.0
 10
-11.56166
 20
-16.48802
 30
0.0
 10
-11.55375
 20
-16.51702
 30
0.0
 10
-11.56418
 20
-16.54086
 30
0.0
 10
-11.56418
 20
-16.54086
 30
0.0
 10
-11.56414
 20
-16.54069
 30
0.0
 10
-11.56424
 20
-16.54086
 30
0.0
 10
-11.56434
 20
-16.54102
 30
0.0
 10
-11.56434
 20
-16.54102
 30
0.0
 10
-11.56853
 20
-16.54784
 30
0.0
 10
-11.56662
 20
-16.55684
 30
0.0
 10
-11.55989
 20
-16.56134
 30
0.0
 10
-11.55989
 20
-16.56134
 30
0.0
 10
-11.55989
 20
-16.56134
 30
0.0
 10
-11.53655
 20
-16.57711
 30
0.0
 10
-11.53655
 20
-16.57711
 30
0.0
 10
-11.53655
 20
-16.57711
 30
0.0
 10
-11.53655
 20
-16.57711
 30
0.0
 10
-11.53455
 20
-16.57831
 30
0.0
 10
-11.53455
 20
-16.57831
 30
0.0
 10
-11.53455
 20
-16.57831
 30
0.0
 10
-11.53455
 20
-16.57831
 30
0.0
 10
-11.50967
 20
-16.59144
 30
0.0
 10
-11.50967
 20
-16.59144
 30
0.0
 10
-11.50967
 20
-16.59144
 30
0.0
 10
-11.50237
 20
-16.59534
 30
0.0
 10
-11.49327
 20
-16.59259
 30
0.0
 10
-11.48958
 20
-16.58557
 30
0.0
 10
-11.48958
 20
-16.58557
 30
0.0
 10
-11.47345
 20
-16.56515
 30
0.0
 10
-11.44414
 20
-16.55846
 30
0.0
 10
-11.42007
 20
-16.57133
 30
0.0
 10
-11.42007
 20
-16.57133
 30
0.0
 10
-11.39599
 20
-16.58419
 30
0.0
 10
-11.38528
 20
-16.61228
 30
0.0
 10
-11.39332
 20
-16.63702
 30
0.0
 10
-11.39332
 20
-16.63702
 30
0.0
 10
-11.3933
 20
-16.63685
 30
0.0
 10
-11.39338
 20
-16.63703
 30
0.0
 10
-11.39347
 20
-16.6372
 30
0.0
 10
-11.39347
 20
-16.6372
 30
0.0
 10
-11.39697
 20
-16.6444
 30
0.0
 10
-11.39418
 20
-16.65317
 30
0.0
 10
-11.38705
 20
-16.65698
 30
0.0
 10
-11.38705
 20
-16.65698
 30
0.0
 10
-11.38705
 20
-16.65698
 30
0.0
 10
-11.36227
 20
-16.67039
 30
0.0
 10
-11.36227
 20
-16.67039
 30
0.0
 10
-11.36227
 20
-16.67039
 30
0.0
 10
-11.36227
 20
-16.67039
 30
0.0
 10
-11.36016
 20
-16.67139
 30
0.0
 10
-11.36016
 20
-16.67139
 30
0.0
 10
-11.36016
 20
-16.67139
 30
0.0
 10
-11.36016
 20
-16.67139
 30
0.0
 10
-11.33412
 20
-16.68202
 30
0.0
 10
-11.33412
 20
-16.68202
 30
0.0
 10
-11.33412
 20
-16.68202
 30
0.0
 10
-11.32647
 20
-16.68519
 30
0.0
 10
-11.31769
 20
-16.68155
 30
0.0
 10
-11.3147
 20
-16.67421
 30
0.0
 10
-11.3147
 20
-16.67421
 30
0.0
 10
-11.30065
 20
-16.65231
 30
0.0
 10
-11.27214
 20
-16.64277
 30
0.0
 10
-11.24692
 20
-16.65322
 30
0.0
 10
-11.24692
 20
-16.65322
 30
0.0
 10
-11.2217
 20
-16.66367
 30
0.0
 10
-11.20828
 20
-16.69057
 30
0.0
 10
-11.21386
 20
-16.71598
 30
0.0
 10
-11.21386
 20
-16.71598
 30
0.0
 10
-11.21385
 20
-16.71581
 30
0.0
 10
-11.21392
 20
-16.716
 30
0.0
 10
-11.21399
 20
-16.71617
 30
0.0
 10
-11.21399
 20
-16.71617
 30
0.0
 10
-11.21677
 20
-16.72368
 30
0.0
 10
-11.21314
 20
-16.73213
 30
0.0
 10
-11.20566
 20
-16.73523
 30
0.0
 10
-11.20566
 20
-16.73523
 30
0.0
 10
-11.20566
 20
-16.73523
 30
0.0
 10
-11.17969
 20
-16.74614
 30
0.0
 10
-11.17969
 20
-16.74614
 30
0.0
 10
-11.17969
 20
-16.74614
 30
0.0
 10
-11.17969
 20
-16.74614
 30
0.0
 10
-11.17749
 20
-16.74693
 30
0.0
 10
-11.17749
 20
-16.74693
 30
0.0
 10
-11.17749
 20
-16.74693
 30
0.0
 10
-11.17749
 20
-16.74693
 30
0.0
 10
-11.15053
 20
-16.75496
 30
0.0
 10
-11.15053
 20
-16.75496
 30
0.0
 10
-11.15053
 20
-16.75496
 30
0.0
 10
-11.14261
 20
-16.75736
 30
0.0
 10
-11.13423
 20
-16.75288
 30
0.0
 10
-11.13197
 20
-16.74528
 30
0.0
 10
-11.13197
 20
-16.74528
 30
0.0
 10
-11.12014
 20
-16.72211
 30
0.0
 10
-11.0927
 20
-16.70982
 30
0.0
 10
-11.06657
 20
-16.71775
 30
0.0
 10
-11.06657
 20
-16.71775
 30
0.0
 10
-11.04045
 20
-16.72567
 30
0.0
 10
-11.02446
 20
-16.75113
 30
0.0
 10
-11.02752
 20
-16.77696
 30
0.0
 10
-11.02752
 20
-16.77696
 30
0.0
 10
-11.02753
 20
-16.77679
 30
0.0
 10
-11.02758
 20
-16.77699
 30
0.0
 10
-11.02764
 20
-16.77717
 30
0.0
 10
-11.02764
 20
-16.77717
 30
0.0
 10
-11.02966
 20
-16.78491
 30
0.0
 10
-11.02522
 20
-16.79297
 30
0.0
 10
-11.01748
 20
-16.79532
 30
0.0
 10
-11.01748
 20
-16.79532
 30
0.0
 10
-11.01748
 20
-16.79532
 30
0.0
 10
-10.99056
 20
-16.80363
 30
0.0
 10
-10.99056
 20
-16.80363
 30
0.0
 10
-10.99056
 20
-16.80363
 30
0.0
 10
-10.99056
 20
-16.80363
 30
0.0
 10
-10.9883
 20
-16.8042
 30
0.0
 10
-10.9883
 20
-16.8042
 30
0.0
 10
-10.9883
 20
-16.8042
 30
0.0
 10
-10.9883
 20
-16.8042
 30
0.0
 10
-10.96068
 20
-16.80955
 30
0.0
 10
-10.96068
 20
-16.80955
 30
0.0
 10
-10.96068
 20
-16.80955
 30
0.0
 10
-10.95256
 20
-16.81116
 30
0.0
 10
-10.94466
 20
-16.80588
 30
0.0
 10
-10.94316
 20
-16.7981
 30
0.0
 10
-10.94316
 20
-16.7981
 30
0.0
 10
-10.93365
 20
-16.77388
 30
0.0
 10
-10.90755
 20
-16.75896
 30
0.0
 10
-10.88078
 20
-16.76429
 30
0.0
 10
-10.88078
 20
-16.76429
 30
0.0
 10
-10.854
 20
-16.76961
 30
0.0
 10
-10.83559
 20
-16.79338
 30
0.0
 10
-10.83611
 20
-16.81939
 30
0.0
 10
-10.83611
 20
-16.81939
 30
0.0
 10
-10.83613
 20
-16.81922
 30
0.0
 10
-10.83616
 20
-16.81942
 30
0.0
 10
-10.8362
 20
-16.81961
 30
0.0
 10
-10.8362
 20
-16.81961
 30
0.0
 10
-10.83746
 20
-16.82751
 30
0.0
 10
-10.83225
 20
-16.83509
 30
0.0
 10
-10.82431
 20
-16.83667
 30
0.0
 10
-10.82431
 20
-16.83667
 30
0.0
 10
-10.82431
 20
-16.83667
 30
0.0
 10
-10.79671
 20
-16.84231
 30
0.0
 10
-10.79671
 20
-16.84231
 30
0.0
 10
-10.79671
 20
-16.84231
 30
0.0
 10
-10.79671
 20
-16.84231
 30
0.0
 10
-10.7944
 20
-16.84265
 30
0.0
 10
-10.7944
 20
-16.84265
 30
0.0
 10
-10.7944
 20
-16.84265
 30
0.0
 10
-10.7944
 20
-16.84265
 30
0.0
 10
-10.76639
 20
-16.84527
 30
0.0
 10
-10.76639
 20
-16.84527
 30
0.0
 10
-10.76639
 20
-16.84527
 30
0.0
 10
-10.75815
 20
-16.84608
 30
0.0
 10
-10.75081
 20
-16.84005
 30
0.0
 10
-10.75008
 20
-16.83215
 30
0.0
 10
-10.75008
 20
-16.83215
 30
0.0
 10
-10.74299
 20
-16.80712
 30
0.0
 10
-10.71848
 20
-16.78972
 30
0.0
 10
-10.69131
 20
-16.79239
 30
0.0
 10
-10.69131
 20
-16.79239
 30
0.0
 10
-10.66414
 20
-16.79507
 30
0.0
 10
-10.64349
 20
-16.81692
 30
0.0
 10
-10.64145
 20
-16.84285
 30
0.0
 10
-10.64145
 20
-16.84285
 30
0.0
 10
-10.6415
 20
-16.84269
 30
0.0
 10
-10.64151
 20
-16.84289
 30
0.0
 10
-10.64153
 20
-16.84308
 30
0.0
 10
-10.64153
 20
-16.84308
 30
0.0
 10
-10.642
 20
-16.85107
 30
0.0
 10
-10.63607
 20
-16.8581
 30
0.0
 10
-10.62802
 20
-16.85889
 30
0.0
 10
-10.62802
 20
-16.85889
 30
0.0
 10
-10.62802
 20
-16.85889
 30
0.0
 10
-10.6
 20
-16.8618
 30
0.0
 10
-10.6
 20
-16.8618
 30
0.0
 10
-10.6
 20
-16.8618
 30
0.0
 10
-10.6
 20
-16.8618
 30
0.0
 10
-10.59767
 20
-16.86191
 30
0.0
 10
-10.59767
 20
-16.86191
 30
0.0
 10
-10.59767
 20
-16.86191
 30
0.0
 10
-10.59767
 20
-16.86191
 30
0.0
 10
-10.56954
 20
-16.86177
 30
0.0
 10
-10.56954
 20
-16.86177
 30
0.0
 10
-10.56954
 20
-16.86177
 30
0.0
 10
-10.56126
 20
-16.86177
 30
0.0
 10
-10.55454
 20
-16.85505
 30
0.0
 10
-10.55459
 20
-16.84712
 30
0.0
 10
-10.55459
 20
-16.84712
 30
0.0
 10
-10.54999
 20
-16.82151
 30
0.0
 10
-10.5273
 20
-16.80179
 30
0.0
 10
-10.5
 20
-16.80179
 30
0.0
 10
-10.5
 20
-16.80179
 30
0.0
 10
-10.4727
 20
-16.80179
 30
0.0
 10
-10.45001
 20
-16.82151
 30
0.0
 10
-10.44544
 20
-16.84712
 30
0.0
 10
-10.44544
 20
-16.84712
 30
0.0
 10
-10.4455
 20
-16.84696
 30
0.0
 10
-10.44549
 20
-16.84716
 30
0.0
 10
-10.44549
 20
-16.84735
 30
0.0
 10
-10.44549
 20
-16.84735
 30
0.0
 10
-10.44518
 20
-16.85535
 30
0.0
 10
-10.43859
 20
-16.86177
 30
0.0
 10
-10.4305
 20
-16.86177
 30
0.0
 10
-10.4305
 20
-16.86177
 30
0.0
 10
-10.4305
 20
-16.86177
 30
0.0
 10
-10.40233
 20
-16.86191
 30
0.0
 10
-10.40233
 20
-16.86191
 30
0.0
 10
-10.40233
 20
-16.86191
 30
0.0
 10
-10.40233
 20
-16.86191
 30
0.0
 10
-10.4
 20
-16.8618
 30
0.0
 10
-10.4
 20
-16.8618
 30
0.0
 10
-10.4
 20
-16.8618
 30
0.0
 10
-10.4
 20
-16.8618
 30
0.0
 10
-10.37202
 20
-16.8589
 30
0.0
 10
-10.37202
 20
-16.8589
 30
0.0
 10
-10.37202
 20
-16.8589
 30
0.0
 10
-10.36378
 20
-16.85809
 30
0.0
 10
-10.35775
 20
-16.85074
 30
0.0
 10
-10.35858
 20
-16.84285
 30
0.0
 10
-10.35858
 20
-16.84285
 30
0.0
 10
-10.35651
 20
-16.81692
 30
0.0
 10
-10.33586
 20
-16.79507
 30
0.0
 10
-10.30869
 20
-16.79239
 30
0.0
 10
-10.30869
 20
-16.79239
 30
0.0
 10
-10.28152
 20
-16.78972
 30
0.0
 10
-10.25701
 20
-16.80712
 30
0.0
 10
-10.24995
 20
-16.83216
 30
0.0
 10
-10.24995
 20
-16.83216
 30
0.0
 10
-10.25003
 20
-16.832
 30
0.0
 10
-10.25
 20
-16.8322
 30
0.0
 10
-10.24998
 20
-16.83239
 30
0.0
 10
-10.24998
 20
-16.83239
 30
0.0
 10
-10.24889
 20
-16.84032
 30
0.0
 10
-10.2417
 20
-16.84606
 30
0.0
 10
-10.23365
 20
-16.84527
 30
0.0
 10
-10.23365
 20
-16.84527
 30
0.0
 10
-10.23365
 20
-16.84527
 30
0.0
 10
-10.2056
 20
-16.84265
 30
0.0
 10
-10.2056
 20
-16.84265
 30
0.0
 10
-10.2056
 20
-16.84265
 30
0.0
 10
-10.2056
 20
-16.84265
 30
0.0
 10
-10.20329
 20
-16.84231
 30
0.0
 10
-10.20329
 20
-16.84231
 30
0.0
 10
-10.20329
 20
-16.84231
 30
0.0
 10
-10.20329
 20
-16.84231
 30
0.0
 10
-10.17573
 20
-16.83668
 30
0.0
 10
-10.17573
 20
-16.83668
 30
0.0
 10
-10.17573
 20
-16.83668
 30
0.0
 10
-10.16761
 20
-16.83507
 30
0.0
 10
-10.16233
 20
-16.82716
 30
0.0
 10
-10.16392
 20
-16.8194
 30
0.0
 10
-10.16392
 20
-16.8194
 30
0.0
 10
-10.16441
 20
-16.79338
 30
0.0
 10
-10.146
 20
-16.76961
 30
0.0
 10
-10.11922
 20
-16.76429
 30
0.0
 10
-10.11922
 20
-16.76429
 30
0.0
 10
-10.09245
 20
-16.75896
 30
0.0
 10
-10.06635
 20
-16.77388
 30
0.0
 10
-10.05687
 20
-16.7981
 30
0.0
 10
-10.05687
 20
-16.7981
 30
0.0
 10
-10.05696
 20
-16.79796
 30
0.0
 10
-10.05691
 20
-16.79815
 30
0.0
 10
-10.05687
 20
-16.79834
 30
0.0
 10
-10.05687
 20
-16.79834
 30
0.0
 10
-10.05501
 20
-16.80612
 30
0.0
 10
-10.04729
 20
-16.81113
 30
0.0
 10
-10.03936
 20
-16.80956
 30
0.0
 10
-10.03936
 20
-16.80956
 30
0.0
 10
-10.03936
 20
-16.80956
 30
0.0
 10
-10.0117
 20
-16.8042
 30
0.0
 10
-10.0117
 20
-16.8042
 30
0.0
 10
-10.0117
 20
-16.8042
 30
0.0
 10
-10.0117
 20
-16.8042
 30
0.0
 10
-10.00944
 20
-16.80363
 30
0.0
 10
-10.00944
 20
-16.80363
 30
0.0
 10
-10.00944
 20
-16.80363
 30
0.0
 10
-10.00944
 20
-16.80363
 30
0.0
 10
-9.98256
 20
-16.79533
 30
0.0
 10
-9.98256
 20
-16.79533
 30
0.0
 10
-9.98256
 20
-16.79533
 30
0.0
 10
-9.97464
 20
-16.79293
 30
0.0
 10
-9.97016
 20
-16.78455
 30
0.0
 10
-9.97251
 20
-16.77697
 30
0.0
 10
-9.97251
 20
-16.77697
 30
0.0
 10
-9.97554
 20
-16.75113
 30
0.0
 10
-9.95955
 20
-16.72567
 30
0.0
 10
-9.93343
 20
-16.71775
 30
0.0
 10
-9.93343
 20
-16.71775
 30
0.0
 10
-9.9073
 20
-16.70982
 30
0.0
 10
-9.87986
 20
-16.72211
 30
0.0
 10
-9.86806
 20
-16.74529
 30
0.0
 10
-9.86806
 20
-16.74529
 30
0.0
 10
-9.86816
 20
-16.74515
 30
0.0
 10
-9.86809
 20
-16.74534
 30
0.0
 10
-9.86804
 20
-16.74552
 30
0.0
 10
-9.86804
 20
-16.74552
 30
0.0
 10
-9.86542
 20
-16.75309
 30
0.0
 10
-9.85725
 20
-16.75732
 30
0.0
 10
-9.84951
 20
-16.75497
 30
0.0
 10
-9.84951
 20
-16.75497
 30
0.0
 10
-9.84951
 20
-16.75497
 30
0.0
 10
-9.82251
 20
-16.74693
 30
0.0
 10
-9.82251
 20
-16.74693
 30
0.0
 10
-9.82251
 20
-16.74693
 30
0.0
 10
-9.82251
 20
-16.74693
 30
0.0
 10
-9.82031
 20
-16.74614
 30
0.0
 10
-9.82031
 20
-16.74614
 30
0.0
 10
-9.82031
 20
-16.74614
 30
0.0
 10
-9.82031
 20
-16.74614
 30
0.0
 10
-9.79438
 20
-16.73524
 30
0.0
 10
-9.79438
 20
-16.73524
 30
0.0
 10
-9.79438
 20
-16.73524
 30
0.0
 10
-9.78673
 20
-16.73208
 30
0.0
 10
-9.78309
 20
-16.7233
 30
0.0
 10
-9.78617
 20
-16.71599
 30
0.0
 10
-9.78617
 20
-16.71599
 30
0.0
 10
-9.79172
 20
-16.69057
 30
0.0
 10
-9.7783
 20
-16.66367
 30
0.0
 10
-9.75308
 20
-16.65322
 30
0.0
 10
-9.75308
 20
-16.65322
 30
0.0
 10
-9.72786
 20
-16.64277
 30
0.0
 10
-9.69935
 20
-16.65231
 30
0.0
 10
-9.68533
 20
-16.67422
 30
0.0
 10
-9.68533
 20
-16.67422
 30
0.0
 10
-9.68545
 20
-16.67409
 30
0.0
 10
-9.68536
 20
-16.67428
 30
0.0
 10
-9.68529
 20
-16.67445
 30
0.0
 10
-9.68529
 20
-16.67445
 30
0.0
 10
-9.68194
 20
-16.68172
 30
0.0
 10
-9.67339
 20
-16.68513
 30
0.0
 10
-9.66592
 20
-16.68204
 30
0.0
 10
-9.66592
 20
-16.68204
 30
0.0
 10
-9.66592
 20
-16.68204
 30
0.0
 10
-9.63984
 20
-16.67139
 30
0.0
 10
-9.63984
 20
-16.67139
 30
0.0
 10
-9.63984
 20
-16.67139
 30
0.0
 10
-9.63984
 20
-16.67139
 30
0.0
 10
-9.63773
 20
-16.67039
 30
0.0
 10
-9.63773
 20
-16.67039
 30
0.0
 10
-9.63773
 20
-16.67039
 30
0.0
 10
-9.63773
 20
-16.67039
 30
0.0
 10
-9.61299
 20
-16.657
 30
0.0
 10
-9.61299
 20
-16.657
 30
0.0
 10
-9.61299
 20
-16.657
 30
0.0
 10
-9.60568
 20
-16.6531
 30
0.0
 10
-9.60293
 20
-16.64401
 30
0.0
 10
-9.60671
 20
-16.63704
 30
0.0
 10
-9.60671
 20
-16.63704
 30
0.0
 10
-9.61472
 20
-16.61228
 30
0.0
 10
-9.60401
 20
-16.58419
 30
0.0
 10
-9.57993
 20
-16.57133
 30
0.0
 10
-9.57993
 20
-16.57133
 30
0.0
 10
-9.55586
 20
-16.55846
 30
0.0
 10
-9.52655
 20
-16.56515
 30
0.0
 10
-9.51045
 20
-16.58558
 30
0.0
 10
-9.51045
 20
-16.58558
 30
0.0
 10
-9.51057
 20
-16.58547
 30
0.0
 10
-9.51047
 20
-16.58564
 30
0.0
 10
-9.51038
 20
-16.58581
 30
0.0
 10
-9.51038
 20
-16.58581
 30
0.0
 10
-9.50634
 20
-16.59272
 30
0.0
 10
-9.4975
 20
-16.59527
 30
0.0
 10
-9.49036
 20
-16.59146
 30
0.0
 10
-9.49036
 20
-16.59146
 30
0.0
 10
-9.49036
 20
-16.59146
 30
0.0
 10
-9.46545
 20
-16.57831
 30
0.0
 10
-9.46545
 20
-16.57831
 30
0.0
 10
-9.46545
 20
-16.57831
 30
0.0
 10
-9.46545
 20
-16.57831
 30
0.0
 10
-9.46345
 20
-16.57711
 30
0.0
 10
-9.46345
 20
-16.57711
 30
0.0
 10
-9.46345
 20
-16.57711
 30
0.0
 10
-9.46345
 20
-16.57711
 30
0.0
 10
-9.44014
 20
-16.56136
 30
0.0
 10
-9.44014
 20
-16.56136
 30
0.0
 10
-9.44014
 20
-16.56136
 30
0.0
 10
-9.43326
 20
-16.55676
 30
0.0
 10
-9.4314
 20
-16.54744
 30
0.0
 10
-9.43585
 20
-16.54087
 30
0.0
 10
-9.43585
 20
-16.54087
 30
0.0
 10
-9.44625
 20
-16.51702
 30
0.0
 10
-9.43834
 20
-16.48802
 30
0.0
 10
-9.41564
 20
-16.47285
 30
0.0
 10
-9.41564
 20
-16.47285
 30
0.0
 10
-9.39294
 20
-16.45769
 30
0.0
 10
-9.36312
 20
-16.46148
 30
0.0
 10
-9.34509
 20
-16.48023
 30
0.0
 10
-9.34509
 20
-16.48023
 30
0.0
 10
-9.34523
 20
-16.48013
 30
0.0
 10
-9.34511
 20
-16.48029
 30
0.0
 10
-9.34501
 20
-16.48045
 30
0.0
 10
-9.34501
 20
-16.48045
 30
0.0
 10
-9.34031
 20
-16.48693
 30
0.0
 10
-9.33126
 20
-16.48861
 30
0.0
 10
-9.32453
 20
-16.48411
 30
0.0
 10
-9.32453
 20
-16.48411
 30
0.0
 10
-9.32453
 20
-16.48411
 30
0.0
 10
-9.30103
 20
-16.46858
 30
0.0
 10
-9.30103
 20
-16.46858
 30
0.0
 10
-9.30103
 20
-16.46858
 30
0.0
 10
-9.30043
 20
-16.46808
 30
0.0
 10
-9.29982
 20
-16.4676
 30
0.0
 10
-9.29922
 20
-16.46711
 30
0.0
 10
-9.29922
 20
-16.46711
 30
0.0
 10
-9.28162
 20
-16.45297
 30
0.0
 10
-9.26471
 20
-16.44377
 30
0.0
 10
-9.27524
 20
-16.42843
 30
0.0
 10
-9.27524
 20
-16.42843
 30
0.0
 10
-9.28793
 20
-16.40571
 30
0.0
 10
-9.2829
 20
-16.37607
 30
0.0
 10
-9.2618
 20
-16.35875
 30
0.0
 10
-9.2618
 20
-16.35875
 30
0.0
 10
-9.24069
 20
-16.34144
 30
0.0
 10
-9.21064
 20
-16.34228
 30
0.0
 10
-9.19087
 20
-16.35918
 30
0.0
 10
-9.19087
 20
-16.35918
 30
0.0
 10
-9.19127
 20
-16.35895
 30
0.0
 10
-9.18099
 20
-16.37002
 30
0.0
 10
-9.17002
 20
-16.36103
 30
0.0
 10
-9.17002
 20
-16.36103
 30
0.0
 10
-9.17002
 20
-16.36103
 30
0.0
 10
-9.14815
 20
-16.34327
 30
0.0
 10
-9.14815
 20
-16.34327
 30
0.0
 10
-9.14815
 20
-16.34327
 30
0.0
 10
-9.1476
 20
-16.34272
 30
0.0
 10
-9.14705
 20
-16.34217
 30
0.0
 10
-9.1465
 20
-16.34163
 30
0.0
 10
-9.1465
 20
-16.34163
 30
0.0
 10
-9.13038
 20
-16.32584
 30
0.0
 10
-9.11444
 20
-16.31501
 30
0.0
 10
-9.12642
 20
-16.30078
 30
0.0
 10
-9.12642
 20
-16.30078
 30
0.0
 10
-9.14128
 20
-16.27942
 30
0.0
 10
-9.13918
 20
-16.24943
 30
0.0
 10
-9.11988
 20
-16.23012
 30
0.0
 10
-9.11988
 20
-16.23012
 30
0.0
 10
-9.10057
 20
-16.21082
 30
0.0
 10
-9.07058
 20
-16.20872
 30
0.0
 10
-9.04924
 20
-16.2236
 30
0.0
 10
-9.04924
 20
-16.2236
 30
0.0
 10
-9.04992
 20
-16.2233
 30
0.0
 10
-9.0384
 20
-16.23345
 30
0.0
 10
-9.02832
 20
-16.22339
 30
0.0
 10
-9.02832
 20
-16.22339
 30
0.0
 10
-9.02832
 20
-16.22339
 30
0.0
 10
-9.0083
 20
-16.20357
 30
0.0
 10
-9.0083
 20
-16.20357
 30
0.0
 10
-9.0083
 20
-16.20357
 30
0.0
 10
-9.0083
 20
-16.20357
 30
0.0
 10
-9.00673
 20
-16.20185
 30
0.0
 10
-9.00673
 20
-16.20185
 30
0.0
 10
-9.00673
 20
-16.20185
 30
0.0
 10
-9.00673
 20
-16.20185
 30
0.0
 10
-8.989
 20
-16.18001
 30
0.0
 10
-8.989
 20
-16.18001
 30
0.0
 10
-8.989
 20
-16.18001
 30
0.0
 10
-8.98374
 20
-16.17361
 30
0.0
 10
-8.98468
 20
-16.16415
 30
0.0
 10
-8.99084
 20
-16.15916
 30
0.0
 10
-8.99084
 20
-16.15916
 30
0.0
 10
-9.00772
 20
-16.13936
 30
0.0
 10
-9.00856
 20
-16.10931
 30
0.0
 10
-8.99125
 20
-16.0882
 30
0.0
 10
-8.99125
 20
-16.0882
 30
0.0
 10
-8.97393
 20
-16.0671
 30
0.0
 10
-8.94429
 20
-16.06207
 30
0.0
 10
-8.92159
 20
-16.07478
 30
0.0
 10
-8.92159
 20
-16.07478
 30
0.0
 10
-8.92175
 20
-16.07473
 30
0.0
 10
-8.92159
 20
-16.07485
 30
0.0
 10
-8.92145
 20
-16.07497
 30
0.0
 10
-8.92145
 20
-16.07497
 30
0.0
 10
-8.91507
 20
-16.0798
 30
0.0
 10
-8.90592
 20
-16.07878
 30
0.0
 10
-8.90079
 20
-16.07253
 30
0.0
 10
-8.90079
 20
-16.07253
 30
0.0
 10
-8.90079
 20
-16.07253
 30
0.0
 10
-8.88281
 20
-16.05084
 30
0.0
 10
-8.88281
 20
-16.05084
 30
0.0
 10
-8.88281
 20
-16.05084
 30
0.0
 10
-8.88281
 20
-16.05084
 30
0.0
 10
-8.88142
 20
-16.04897
 30
0.0
 10
-8.88142
 20
-16.04897
 30
0.0
 10
-8.88142
 20
-16.04897
 30
0.0
 10
-8.88142
 20
-16.04897
 30
0.0
 10
-8.86591
 20
-16.0255
 30
0.0
 10
-8.86591
 20
-16.0255
 30
0.0
 10
-8.86591
 20
-16.0255
 30
0.0
 10
-8.86131
 20
-16.01862
 30
0.0
 10
-8.86316
 20
-16.00929
 30
0.0
 10
-8.86978
 20
-16.00493
 30
0.0
 10
-8.86978
 20
-16.00493
 30
0.0
 10
-8.88852
 20
-15.98688
 30
0.0
 10
-8.89231
 20
-15.95706
 30
0.0
 10
-8.87715
 20
-15.93436
 30
0.0
 10
-8.87715
 20
-15.93436
 30
0.0
 10
-8.86198
 20
-15.91166
 30
0.0
 10
-8.83298
 20
-15.90375
 30
0.0
 10
-8.80914
 20
-15.91418
 30
0.0
 10
-8.80914
 20
-15.91418
 30
0.0
 10
-8.80931
 20
-15.91414
 30
0.0
 10
-8.80914
 20
-15.91424
 30
0.0
 10
-8.80898
 20
-15.91434
 30
0.0
 10
-8.80898
 20
-15.91434
 30
0.0
 10
-8.80216
 20
-15.91853
 30
0.0
 10
-8.79316
 20
-15.91662
 30
0.0
 10
-8.78866
 20
-15.90989
 30
0.0
 10
-8.78866
 20
-15.90989
 30
0.0
 10
-8.78866
 20
-15.90989
 30
0.0
 10
-8.77289
 20
-15.88655
 30
0.0
 10
-8.77289
 20
-15.88655
 30
0.0
 10
-8.77289
 20
-15.88655
 30
0.0
 10
-8.77289
 20
-15.88655
 30
0.0
 10
-8.77169
 20
-15.88455
 30
0.0
 10
-8.77169
 20
-15.88455
 30
0.0
 10
-8.77169
 20
-15.88455
 30
0.0
 10
-8.77169
 20
-15.88455
 30
0.0
 10
-8.75856
 20
-15.85967
 30
0.0
 10
-8.75856
 20
-15.85967
 30
0.0
 10
-8.75856
 20
-15.85967
 30
0.0
 10
-8.75466
 20
-15.85237
 30
0.0
 10
-8.75741
 20
-15.84327
 30
0.0
 10
-8.76443
 20
-15.83958
 30
0.0
 10
-8.76443
 20
-15.83958
 30
0.0
 10
-8.78485
 20
-15.82345
 30
0.0
 10
-8.79154
 20
-15.79414
 30
0.0
 10
-8.77867
 20
-15.77007
 30
0.0
 10
-8.77867
 20
-15.77007
 30
0.0
 10
-8.76581
 20
-15.74599
 30
0.0
 10
-8.73772
 20
-15.73528
 30
0.0
 10
-8.71298
 20
-15.74332
 30
0.0
 10
-8.71298
 20
-15.74332
 30
0.0
 10
-8.71315
 20
-15.7433
 30
0.0
 10
-8.71297
 20
-15.74338
 30
0.0
 10
-8.7128
 20
-15.74347
 30
0.0
 10
-8.7128
 20
-15.74347
 30
0.0
 10
-8.7056
 20
-15.74697
 30
0.0
 10
-8.69683
 20
-15.74418
 30
0.0
 10
-8.69302
 20
-15.73705
 30
0.0
 10
-8.69302
 20
-15.73705
 30
0.0
 10
-8.69302
 20
-15.73705
 30
0.0
 10
-8.67961
 20
-15.71227
 30
0.0
 10
-8.67961
 20
-15.71227
 30
0.0
 10
-8.67961
 20
-15.71227
 30
0.0
 10
-8.67961
 20
-15.71227
 30
0.0
 10
-8.67861
 20
-15.71016
 30
0.0
 10
-8.67861
 20
-15.71016
 30
0.0
 10
-8.67861
 20
-15.71016
 30
0.0
 10
-8.67861
 20
-15.71016
 30
0.0
 10
-8.66798
 20
-15.68412
 30
0.0
 10
-8.66798
 20
-15.68412
 30
0.0
 10
-8.66798
 20
-15.68412
 30
0.0
 10
-8.66481
 20
-15.67647
 30
0.0
 10
-8.66845
 20
-15.66769
 30
0.0
 10
-8.67579
 20
-15.6647
 30
0.0
 10
-8.67579
 20
-15.6647
 30
0.0
 10
-8.69769
 20
-15.65065
 30
0.0
 10
-8.70723
 20
-15.62214
 30
0.0
 10
-8.69678
 20
-15.59692
 30
0.0
 10
-8.69678
 20
-15.59692
 30
0.0
 10
-8.68633
 20
-15.5717
 30
0.0
 10
-8.65943
 20
-15.55828
 30
0.0
 10
-8.63402
 20
-15.56386
 30
0.0
 10
-8.63402
 20
-15.56386
 30
0.0
 10
-8.63419
 20
-15.56385
 30
0.0
 10
-8.634
 20
-15.56392
 30
0.0
 10
-8.63383
 20
-15.56399
 30
0.0
 10
-8.63383
 20
-15.56399
 30
0.0
 10
-8.62632
 20
-15.56677
 30
0.0
 10
-8.61787
 20
-15.56314
 30
0.0
 10
-8.61477
 20
-15.55566
 30
0.0
 10
-8.61477
 20
-15.55566
 30
0.0
 10
-8.61477
 20
-15.55566
 30
0.0
 10
-8.60386
 20
-15.52969
 30
0.0
 10
-8.60386
 20
-15.52969
 30
0.0
 10
-8.60386
 20
-15.52969
 30
0.0
 10
-8.60386
 20
-15.52969
 30
0.0
 10
-8.60307
 20
-15.52749
 30
0.0
 10
-8.60307
 20
-15.52749
 30
0.0
 10
-8.60307
 20
-15.52749
 30
0.0
 10
-8.60307
 20
-15.52749
 30
0.0
 10
-8.59504
 20
-15.50053
 30
0.0
 10
-8.59504
 20
-15.50053
 30
0.0
 10
-8.59504
 20
-15.50053
 30
0.0
 10
-8.59264
 20
-15.49261
 30
0.0
 10
-8.59712
 20
-15.48423
 30
0.0
 10
-8.60472
 20
-15.48197
 30
0.0
 10
-8.60472
 20
-15.48197
 30
0.0
 10
-8.62789
 20
-15.47014
 30
0.0
 10
-8.64018
 20
-15.4427
 30
0.0
 10
-8.63225
 20
-15.41657
 30
0.0
 10
-8.63225
 20
-15.41657
 30
0.0
 10
-8.62433
 20
-15.39045
 30
0.0
 10
-8.59887
 20
-15.37446
 30
0.0
 10
-8.57304
 20
-15.37752
 30
0.0
 10
-8.57304
 20
-15.37752
 30
0.0
 10
-8.57321
 20
-15.37753
 30
0.0
 10
-8.57301
 20
-15.37758
 30
0.0
 10
-8.57283
 20
-15.37764
 30
0.0
 10
-8.57283
 20
-15.37764
 30
0.0
 10
-8.56509
 20
-15.37966
 30
0.0
 10
-8.55703
 20
-15.37522
 30
0.0
 10
-8.55468
 20
-15.36748
 30
0.0
 10
-8.55468
 20
-15.36748
 30
0.0
 10
-8.55468
 20
-15.36748
 30
0.0
 10
-8.54637
 20
-15.34056
 30
0.0
 10
-8.54637
 20
-15.34056
 30
0.0
 10
-8.54637
 20
-15.34056
 30
0.0
 10
-8.54637
 20
-15.34056
 30
0.0
 10
-8.5458
 20
-15.3383
 30
0.0
 10
-8.5458
 20
-15.3383
 30
0.0
 10
-8.5458
 20
-15.3383
 30
0.0
 10
-8.5458
 20
-15.3383
 30
0.0
 10
-8.54045
 20
-15.31068
 30
0.0
 10
-8.54045
 20
-15.31068
 30
0.0
 10
-8.54045
 20
-15.31068
 30
0.0
 10
-8.53884
 20
-15.30256
 30
0.0
 10
-8.54412
 20
-15.29466
 30
0.0
 10
-8.5519
 20
-15.29316
 30
0.0
 10
-8.5519
 20
-15.29316
 30
0.0
 10
-8.57612
 20
-15.28365
 30
0.0
 10
-8.59104
 20
-15.25755
 30
0.0
 10
-8.58571
 20
-15.23078
 30
0.0
 10
-8.58571
 20
-15.23078
 30
0.0
 10
-8.58039
 20
-15.204
 30
0.0
 10
-8.55662
 20
-15.18559
 30
0.0
 10
-8.53061
 20
-15.18611
 30
0.0
 10
-8.53061
 20
-15.18611
 30
0.0
 10
-8.53078
 20
-15.18613
 30
0.0
 10
-8.53058
 20
-15.18616
 30
0.0
 10
-8.53039
 20
-15.1862
 30
0.0
 10
-8.53039
 20
-15.1862
 30
0.0
 10
-8.52249
 20
-15.18746
 30
0.0
 10
-8.51491
 20
-15.18225
 30
0.0
 10
-8.51333
 20
-15.17431
 30
0.0
 10
-8.51333
 20
-15.17431
 30
0.0
 10
-8.51333
 20
-15.17431
 30
0.0
 10
-8.50769
 20
-15.14671
 30
0.0
 10
-8.50769
 20
-15.14671
 30
0.0
 10
-8.50769
 20
-15.14671
 30
0.0
 10
-8.50769
 20
-15.14671
 30
0.0
 10
-8.50735
 20
-15.1444
 30
0.0
 10
-8.50735
 20
-15.1444
 30
0.0
 10
-8.50735
 20
-15.1444
 30
0.0
 10
-8.50735
 20
-15.1444
 30
0.0
 10
-8.50473
 20
-15.11639
 30
0.0
 10
-8.50473
 20
-15.11639
 30
0.0
 10
-8.50473
 20
-15.11639
 30
0.0
 10
-8.50392
 20
-15.10815
 30
0.0
 10
-8.50995
 20
-15.10081
 30
0.0
 10
-8.51785
 20
-15.10008
 30
0.0
 10
-8.51785
 20
-15.10008
 30
0.0
 10
-8.54288
 20
-15.09299
 30
0.0
 10
-8.56028
 20
-15.06848
 30
0.0
 10
-8.55761
 20
-15.04131
 30
0.0
 10
-8.55761
 20
-15.04131
 30
0.0
 10
-8.55493
 20
-15.01414
 30
0.0
 10
-8.53308
 20
-14.99349
 30
0.0
 10
-8.50715
 20
-14.99145
 30
0.0
 10
-8.50715
 20
-14.99145
 30
0.0
 10
-8.50731
 20
-14.9915
 30
0.0
 10
-8.50711
 20
-14.99151
 30
0.0
 10
-8.50692
 20
-14.99153
 30
0.0
 10
-8.50692
 20
-14.99153
 30
0.0
 10
-8.49893
 20
-14.992
 30
0.0
 10
-8.4919
 20
-14.98607
 30
0.0
 10
-8.49111
 20
-14.97802
 30
0.0
 10
-8.49111
 20
-14.97802
 30
0.0
 10
-8.49111
 20
-14.97802
 30
0.0
 10
-8.4882
 20
-14.95
 30
0.0
 10
-8.4882
 20
-14.95
 30
0.0
 10
-8.4882
 20
-14.95
 30
0.0
 10
-8.4882
 20
-14.95
 30
0.0
 10
-8.48809
 20
-14.94767
 30
0.0
 10
-8.48809
 20
-14.94767
 30
0.0
 10
-8.48809
 20
-14.94767
 30
0.0
 10
-8.48809
 20
-14.94767
 30
0.0
 10
-8.48823
 20
-14.91954
 30
0.0
 10
-8.48823
 20
-14.91954
 30
0.0
 10
-8.48823
 20
-14.91954
 30
0.0
 10
-8.48823
 20
-14.91126
 30
0.0
 10
-8.49495
 20
-14.90454
 30
0.0
 10
-8.50288
 20
-14.90459
 30
0.0
 10
-8.50288
 20
-14.90459
 30
0.0
 10
-8.52849
 20
-14.89999
 30
0.0
 10
-8.54821
 20
-14.8773
 30
0.0
 10
-8.54821
 20
-14.85
 30
0.0
 10
-8.54821
 20
-14.85
 30
0.0
 10
-8.54821
 20
-14.8227
 30
0.0
 10
-8.52849
 20
-14.80001
 30
0.0
 10
-8.50288
 20
-14.79544
 30
0.0
 10
-8.50288
 20
-14.79544
 30
0.0
 10
-8.50304
 20
-14.7955
 30
0.0
 10
-8.50284
 20
-14.79549
 30
0.0
 10
-8.50265
 20
-14.79549
 30
0.0
 10
-8.50265
 20
-14.79549
 30
0.0
 10
-8.49465
 20
-14.79518
 30
0.0
 10
-8.48823
 20
-14.78859
 30
0.0
 10
-8.48823
 20
-14.7805
 30
0.0
 10
-8.48823
 20
-14.7805
 30
0.0
 10
-8.48823
 20
-14.7805
 30
0.0
 10
-8.48809
 20
-14.75233
 30
0.0
 10
-8.48809
 20
-14.75233
 30
0.0
 10
-8.48809
 20
-14.75233
 30
0.0
 10
-8.48809
 20
-14.75233
 30
0.0
 10
-8.4882
 20
-14.75
 30
0.0
 10
-8.4882
 20
-14.75
 30
0.0
 10
-8.4882
 20
-14.75
 30
0.0
 10
-8.4882
 20
-14.75
 30
0.0
 10
-8.4911
 20
-14.72202
 30
0.0
 10
-8.4911
 20
-14.72202
 30
0.0
 10
-8.4911
 20
-14.72202
 30
0.0
 10
-8.49191
 20
-14.71378
 30
0.0
 10
-8.49926
 20
-14.70775
 30
0.0
 10
-8.50715
 20
-14.70858
 30
0.0
 10
-8.50715
 20
-14.70858
 30
0.0
 10
-8.53308
 20
-14.70651
 30
0.0
 10
-8.55493
 20
-14.68586
 30
0.0
 10
-8.55761
 20
-14.65869
 30
0.0
 10
-8.55761
 20
-14.65869
 30
0.0
 10
-8.56028
 20
-14.63152
 30
0.0
 10
-8.54288
 20
-14.60701
 30
0.0
 10
-8.51784
 20
-14.59995
 30
0.0
 10
-8.51784
 20
-14.59995
 30
0.0
 10
-8.518
 20
-14.60003
 30
0.0
 10
-8.5178
 20
-14.6
 30
0.0
 10
-8.51761
 20
-14.59998
 30
0.0
 10
-8.51761
 20
-14.59998
 30
0.0
 10
-8.50968
 20
-14.59889
 30
0.0
 10
-8.50394
 20
-14.5917
 30
0.0
 10
-8.50473
 20
-14.58365
 30
0.0
 10
-8.50473
 20
-14.58365
 30
0.0
 10
-8.50473
 20
-14.58365
 30
0.0
 10
-8.50735
 20
-14.5556
 30
0.0
 10
-8.50735
 20
-14.5556
 30
0.0
 10
-8.50735
 20
-14.5556
 30
0.0
 10
-8.50735
 20
-14.5556
 30
0.0
 10
-8.50769
 20
-14.55329
 30
0.0
 10
-8.50769
 20
-14.55329
 30
0.0
 10
-8.50769
 20
-14.55329
 30
0.0
 10
-8.50769
 20
-14.55329
 30
0.0
 10
-8.51332
 20
-14.52573
 30
0.0
 10
-8.51332
 20
-14.52573
 30
0.0
 10
-8.51332
 20
-14.52573
 30
0.0
 10
-8.51493
 20
-14.51761
 30
0.0
 10
-8.52284
 20
-14.51233
 30
0.0
 10
-8.5306
 20
-14.51392
 30
0.0
 10
-8.5306
 20
-14.51392
 30
0.0
 10
-8.55662
 20
-14.51441
 30
0.0
 10
-8.58039
 20
-14.496
 30
0.0
 10
-8.58571
 20
-14.46922
 30
0.0
 10
-8.58571
 20
-14.46922
 30
0.0
 10
-8.59104
 20
-14.44245
 30
0.0
 10
-8.57612
 20
-14.41635
 30
0.0
 10
-8.5519
 20
-14.40687
 30
0.0
 10
-8.5519
 20
-14.40687
 30
0.0
 10
-8.55204
 20
-14.40696
 30
0.0
 10
-8.55185
 20
-14.40691
 30
0.0
 10
-8.55166
 20
-14.40687
 30
0.0
 10
-8.55166
 20
-14.40687
 30
0.0
 10
-8.54388
 20
-14.40501
 30
0.0
 10
-8.53887
 20
-14.39729
 30
0.0
 10
-8.54044
 20
-14.38936
 30
0.0
 10
-8.54044
 20
-14.38936
 30
0.0
 10
-8.54044
 20
-14.38936
 30
0.0
 10
-8.5458
 20
-14.3617
 30
0.0
 10
-8.5458
 20
-14.3617
 30
0.0
 10
-8.5458
 20
-14.3617
 30
0.0
 10
-8.5458
 20
-14.3617
 30
0.0
 10
-8.54637
 20
-14.35944
 30
0.0
 10
-8.54637
 20
-14.35944
 30
0.0
 10
-8.54637
 20
-14.35944
 30
0.0
 10
-8.54637
 20
-14.35944
 30
0.0
 10
-8.55467
 20
-14.33256
 30
0.0
 10
-8.55467
 20
-14.33256
 30
0.0
 10
-8.55467
 20
-14.33256
 30
0.0
 10
-8.55707
 20
-14.32464
 30
0.0
 10
-8.56545
 20
-14.32016
 30
0.0
 10
-8.57303
 20
-14.32251
 30
0.0
 10
-8.57303
 20
-14.32251
 30
0.0
 10
-8.59887
 20
-14.32554
 30
0.0
 10
-8.62433
 20
-14.30955
 30
0.0
 10
-8.63225
 20
-14.28343
 30
0.0
 10
-8.63225
 20
-14.28343
 30
0.0
 10
-8.64018
 20
-14.2573
 30
0.0
 10
-8.62789
 20
-14.22986
 30
0.0
 10
-8.60471
 20
-14.21806
 30
0.0
 10
-8.60471
 20
-14.21806
 30
0.0
 10
-8.60485
 20
-14.21816
 30
0.0
 10
-8.60466
 20
-14.21809
 30
0.0
 10
-8.60448
 20
-14.21804
 30
0.0
 10
-8.60448
 20
-14.21804
 30
0.0
 10
-8.59691
 20
-14.21542
 30
0.0
 10
-8.59268
 20
-14.20725
 30
0.0
 10
-8.59503
 20
-14.19951
 30
0.0
 10
-8.59503
 20
-14.19951
 30
0.0
 10
-8.59503
 20
-14.19951
 30
0.0
 10
-8.60307
 20
-14.17251
 30
0.0
 10
-8.60307
 20
-14.17251
 30
0.0
 10
-8.60307
 20
-14.17251
 30
0.0
 10
-8.60307
 20
-14.17251
 30
0.0
 10
-8.60386
 20
-14.17031
 30
0.0
 10
-8.60386
 20
-14.17031
 30
0.0
 10
-8.60386
 20
-14.17031
 30
0.0
 10
-8.60386
 20
-14.17031
 30
0.0
 10
-8.61476
 20
-14.14438
 30
0.0
 10
-8.61476
 20
-14.14438
 30
0.0
 10
-8.61476
 20
-14.14438
 30
0.0
 10
-8.61792
 20
-14.13673
 30
0.0
 10
-8.6267
 20
-14.13309
 30
0.0
 10
-8.63401
 20
-14.13617
 30
0.0
 10
-8.63401
 20
-14.13617
 30
0.0
 10
-8.65943
 20
-14.14172
 30
0.0
 10
-8.68633
 20
-14.1283
 30
0.0
 10
-8.69678
 20
-14.10308
 30
0.0
 10
-8.69678
 20
-14.10308
 30
0.0
 10
-8.70723
 20
-14.07786
 30
0.0
 10
-8.69769
 20
-14.04935
 30
0.0
 10
-8.67578
 20
-14.03533
 30
0.0
 10
-8.67578
 20
-14.03533
 30
0.0
 10
-8.67591
 20
-14.03545
 30
0.0
 10
-8.67572
 20
-14.03536
 30
0.0
 10
-8.67555
 20
-14.03529
 30
0.0
 10
-8.67555
 20
-14.03529
 30
0.0
 10
-8.66828
 20
-14.03194
 30
0.0
 10
-8.66487
 20
-14.02339
 30
0.0
 10
-8.66796
 20
-14.01592
 30
0.0
 10
-8.66796
 20
-14.01592
 30
0.0
 10
-8.66796
 20
-14.01592
 30
0.0
 10
-8.67861
 20
-13.98984
 30
0.0
 10
-8.67861
 20
-13.98984
 30
0.0
 10
-8.67861
 20
-13.98984
 30
0.0
 10
-8.67861
 20
-13.98984
 30
0.0
 10
-8.67961
 20
-13.98773
 30
0.0
 10
-8.67961
 20
-13.98773
 30
0.0
 10
-8.67961
 20
-13.98773
 30
0.0
 10
-8.67961
 20
-13.98773
 30
0.0
 10
-8.693
 20
-13.96299
 30
0.0
 10
-8.693
 20
-13.96299
 30
0.0
 10
-8.693
 20
-13.96299
 30
0.0
 10
-8.6969
 20
-13.95568
 30
0.0
 10
-8.70599
 20
-13.95293
 30
0.0
 10
-8.71296
 20
-13.95671
 30
0.0
 10
-8.71296
 20
-13.95671
 30
0.0
 10
-8.73772
 20
-13.96472
 30
0.0
 10
-8.76581
 20
-13.95401
 30
0.0
 10
-8.77867
 20
-13.92993
 30
0.0
 10
-8.77867
 20
-13.92993
 30
0.0
 10
-8.79154
 20
-13.90586
 30
0.0
 10
-8.78485
 20
-13.87655
 30
0.0
 10
-8.76442
 20
-13.86045
 30
0.0
 10
-8.76442
 20
-13.86045
 30
0.0
 10
-8.76453
 20
-13.86057
 30
0.0
 10
-8.76436
 20
-13.86047
 30
0.0
 10
-8.76419
 20
-13.86038
 30
0.0
 10
-8.76419
 20
-13.86038
 30
0.0
 10
-8.75728
 20
-13.85634
 30
0.0
 10
-8.75473
 20
-13.8475
 30
0.0
 10
-8.75854
 20
-13.84036
 30
0.0
 10
-8.75854
 20
-13.84036
 30
0.0
 10
-8.75854
 20
-13.84036
 30
0.0
 10
-8.77169
 20
-13.81545
 30
0.0
 10
-8.77169
 20
-13.81545
 30
0.0
 10
-8.77169
 20
-13.81545
 30
0.0
 10
-8.77169
 20
-13.81545
 30
0.0
 10
-8.77289
 20
-13.81345
 30
0.0
 10
-8.77289
 20
-13.81345
 30
0.0
 10
-8.77289
 20
-13.81345
 30
0.0
 10
-8.77289
 20
-13.81345
 30
0.0
 10
-8.78864
 20
-13.79014
 30
0.0
 10
-8.78864
 20
-13.79014
 30
0.0
 10
-8.78864
 20
-13.79014
 30
0.0
 10
-8.79324
 20
-13.78326
 30
0.0
 10
-8.80256
 20
-13.7814
 30
0.0
 10
-8.80913
 20
-13.78585
 30
0.0
 10
-8.80913
 20
-13.78585
 30
0.0
 10
-8.83298
 20
-13.79625
 30
0.0
 10
-8.86198
 20
-13.78834
 30
0.0
 10
-8.87715
 20
-13.76564
 30
0.0
 10
-8.87715
 20
-13.76564
 30
0.0
 10
-8.89231
 20
-13.74294
 30
0.0
 10
-8.88852
 20
-13.71312
 30
0.0
 10
-8.86977
 20
-13.69509
 30
0.0
 10
-8.86977
 20
-13.69509
 30
0.0
 10
-8.86987
 20
-13.69523
 30
0.0
 10
-8.86971
 20
-13.69511
 30
0.0
 10
-8.86955
 20
-13.69501
 30
0.0
 10
-8.86955
 20
-13.69501
 30
0.0
 10
-8.86307
 20
-13.69031
 30
0.0
 10
-8.86139
 20
-13.68126
 30
0.0
 10
-8.86589
 20
-13.67453
 30
0.0
 10
-8.86589
 20
-13.67453
 30
0.0
 10
-8.86589
 20
-13.67453
 30
0.0
 10
-8.88142
 20
-13.65103
 30
0.0
 10
-8.88142
 20
-13.65103
 30
0.0
 10
-8.88142
 20
-13.65103
 30
0.0
 10
-8.88192
 20
-13.65043
 30
0.0
 10
-8.8824
 20
-13.64982
 30
0.0
 10
-8.88289
 20
-13.64922
 30
0.0
 10
-8.88289
 20
-13.64922
 30
0.0
 10
-8.89703
 20
-13.63162
 30
0.0
 10
-8.90623
 20
-13.61471
 30
0.0
 10
-8.92157
 20
-13.62524
 30
0.0
 10
-8.92157
 20
-13.62524
 30
0.0
 10
-8.94429
 20
-13.63793
 30
0.0
 10
-8.97393
 20
-13.6329
 30
0.0
 10
-8.99125
 20
-13.6118
 30
0.0
 10
-8.99125
 20
-13.6118
 30
0.0
 10
-9.00856
 20
-13.59069
 30
0.0
 10
-9.00772
 20
-13.56064
 30
0.0
 10
-8.99082
 20
-13.54087
 30
0.0
 10
-8.99082
 20
-13.54087
 30
0.0
 10
-8.99105
 20
-13.54127
 30
0.0
 10
-8.97998
 20
-13.53099
 30
0.0
 10
-8.98897
 20
-13.52002
 30
0.0
 10
-8.98897
 20
-13.52002
 30
0.0
 10
-8.98897
 20
-13.52002
 30
0.0
 10
-9.00673
 20
-13.49815
 30
0.0
 10
-9.00673
 20
-13.49815
 30
0.0
 10
-9.00673
 20
-13.49815
 30
0.0
 10
-9.00728
 20
-13.4976
 30
0.0
 10
-9.00783
 20
-13.49705
 30
0.0
 10
-9.00837
 20
-13.4965
 30
0.0
 10
-9.00837
 20
-13.4965
 30
0.0
 10
-9.02416
 20
-13.48038
 30
0.0
 10
-9.03499
 20
-13.46444
 30
0.0
 10
-9.04922
 20
-13.47642
 30
0.0
 10
-9.04922
 20
-13.47642
 30
0.0
 10
-9.07058
 20
-13.49128
 30
0.0
 10
-9.10057
 20
-13.48918
 30
0.0
 10
-9.11988
 20
-13.46988
 30
0.0
 10
-9.11988
 20
-13.46988
 30
0.0
 10
-9.13918
 20
-13.45057
 30
0.0
 10
-9.14128
 20
-13.42058
 30
0.0
 10
-9.1264
 20
-13.39924
 30
0.0
 10
-9.1264
 20
-13.39924
 30
0.0
 10
-9.1267
 20
-13.39992
 30
0.0
 10
-9.11655
 20
-13.3884
 30
0.0
 10
-9.12661
 20
-13.37832
 30
0.0
 10
-9.12661
 20
-13.37832
 30
0.0
 10
-9.12661
 20
-13.37832
 30
0.0
 10
-9.14643
 20
-13.3583
 30
0.0
 10
-9.14643
 20
-13.3583
 30
0.0
 10
-9.14643
 20
-13.3583
 30
0.0
 10
-9.14643
 20
-13.3583
 30
0.0
 10
-9.14815
 20
-13.35673
 30
0.0
 10
-9.14815
 20
-13.35673
 30
0.0
 10
-9.14815
 20
-13.35673
 30
0.0
 10
-9.14815
 20
-13.35673
 30
0.0
 10
-9.16999
 20
-13.339
 30
0.0
 10
-9.16999
 20
-13.339
 30
0.0
 10
-9.16999
 20
-13.339
 30
0.0
 10
-9.17639
 20
-13.33374
 30
0.0
 10
-9.18585
 20
-13.33468
 30
0.0
 10
-9.19084
 20
-13.34084
 30
0.0
 10
-9.19084
 20
-13.34084
 30
0.0
 10
-9.21064
 20
-13.35772
 30
0.0
 10
-9.24069
 20
-13.35856
 30
0.0
 10
-9.2618
 20
-13.34125
 30
0.0
 10
-9.2618
 20
-13.34125
 30
0.0
 10
-9.2829
 20
-13.32393
 30
0.0
 10
-9.28793
 20
-13.29429
 30
0.0
 10
-9.27522
 20
-13.27159
 30
0.0
 10
-9.27522
 20
-13.27159
 30
0.0
 10
-9.27527
 20
-13.27175
 30
0.0
 10
-9.27515
 20
-13.27159
 30
0.0
 10
-9.27503
 20
-13.27145
 30
0.0
 10
-9.27503
 20
-13.27145
 30
0.0
 10
-9.2702
 20
-13.26507
 30
0.0
 10
-9.27122
 20
-13.25592
 30
0.0
 10
-9.27747
 20
-13.25079
 30
0.0
 10
-9.27747
 20
-13.25079
 30
0.0
 10
-9.27747
 20
-13.25079
 30
0.0
 10
-9.29916
 20
-13.23281
 30
0.0
 10
-9.29916
 20
-13.23281
 30
0.0
 10
-9.29916
 20
-13.23281
 30
0.0
 10
-9.29916
 20
-13.23281
 30
0.0
 10
-9.30103
 20
-13.23142
 30
0.0
 10
-9.30103
 20
-13.23142
 30
0.0
 10
-9.30103
 20
-13.23142
 30
0.0
 10
-9.30103
 20
-13.23142
 30
0.0
 10
-9.3245
 20
-13.21591
 30
0.0
 10
-9.3245
 20
-13.21591
 30
0.0
 10
-9.3245
 20
-13.21591
 30
0.0
 10
-9.33138
 20
-13.21131
 30
0.0
 10
-9.34071
 20
-13.21316
 30
0.0
 10
-9.34507
 20
-13.21978
 30
0.0
 10
-9.34507
 20
-13.21978
 30
0.0
 10
-9.36312
 20
-13.23852
 30
0.0
 10
-9.39294
 20
-13.24231
 30
0.0
 10
-9.41564
 20
-13.22715
 30
0.0
 10
-9.41564
 20
-13.22715
 30
0.0
 10
-9.43834
 20
-13.21198
 30
0.0
 10
-9.44625
 20
-13.18298
 30
0.0
 10
-9.43582
 20
-13.15914
 30
0.0
 10
-9.43582
 20
-13.15914
 30
0.0
 10
-9.43586
 20
-13.15931
 30
0.0
 10
-9.43576
 20
-13.15914
 30
0.0
 10
-9.43566
 20
-13.15898
 30
0.0
 10
-9.43566
 20
-13.15898
 30
0.0
 10
-9.43147
 20
-13.15216
 30
0.0
 10
-9.43338
 20
-13.14316
 30
0.0
 10
-9.44011
 20
-13.13866
 30
0.0
 10
-9.44011
 20
-13.13866
 30
0.0
 10
-9.44011
 20
-13.13866
 30
0.0
 10
-9.46345
 20
-13.12289
 30
0.0
 10
-9.46345
 20
-13.12289
 30
0.0
 10
-9.46345
 20
-13.12289
 30
0.0
 10
-9.46345
 20
-13.12289
 30
0.0
 10
-9.46545
 20
-13.12169
 30
0.0
 10
-9.46545
 20
-13.12169
 30
0.0
 10
-9.46545
 20
-13.12169
 30
0.0
 10
-9.46545
 20
-13.12169
 30
0.0
 10
-9.49033
 20
-13.10856
 30
0.0
 10
-9.49033
 20
-13.10856
 30
0.0
 10
-9.49033
 20
-13.10856
 30
0.0
 10
-9.49763
 20
-13.10466
 30
0.0
 10
-9.50673
 20
-13.10741
 30
0.0
 10
-9.51042
 20
-13.11443
 30
0.0
 10
-9.51042
 20
-13.11443
 30
0.0
 10
-9.52655
 20
-13.13485
 30
0.0
 10
-9.55586
 20
-13.14154
 30
0.0
 10
-9.57993
 20
-13.12867
 30
0.0
 10
-9.57993
 20
-13.12867
 30
0.0
 10
-9.60401
 20
-13.11581
 30
0.0
 10
-9.61472
 20
-13.08772
 30
0.0
 10
-9.60668
 20
-13.06298
 30
0.0
 10
-9.60668
 20
-13.06298
 30
0.0
 10
-9.6067
 20
-13.06315
 30
0.0
 10
-9.60662
 20
-13.06297
 30
0.0
 10
-9.60653
 20
-13.0628
 30
0.0
 10
-9.60653
 20
-13.0628
 30
0.0
 10
-9.60303
 20
-13.0556
 30
0.0
 10
-9.60582
 20
-13.04683
 30
0.0
 10
-9.61295
 20
-13.04302
 30
0.0
 10
-9.61295
 20
-13.04302
 30
0.0
 10
-9.61295
 20
-13.04302
 30
0.0
 10
-9.63773
 20
-13.02961
 30
0.0
 10
-9.63773
 20
-13.02961
 30
0.0
 10
-9.63773
 20
-13.02961
 30
0.0
 10
-9.63773
 20
-13.02961
 30
0.0
 10
-9.63984
 20
-13.02861
 30
0.0
 10
-9.63984
 20
-13.02861
 30
0.0
 10
-9.63984
 20
-13.02861
 30
0.0
 10
-9.63984
 20
-13.02861
 30
0.0
 10
-9.66588
 20
-13.01798
 30
0.0
 10
-9.66588
 20
-13.01798
 30
0.0
 10
-9.66588
 20
-13.01798
 30
0.0
 10
-9.67353
 20
-13.01481
 30
0.0
 10
-9.68231
 20
-13.01845
 30
0.0
 10
-9.6853
 20
-13.02579
 30
0.0
 10
-9.6853
 20
-13.02579
 30
0.0
 10
-9.69935
 20
-13.04769
 30
0.0
 10
-9.72786
 20
-13.05723
 30
0.0
 10
-9.75308
 20
-13.04678
 30
0.0
 10
-9.75308
 20
-13.04678
 30
0.0
 10
-9.7783
 20
-13.03633
 30
0.0
 10
-9.79172
 20
-13.00943
 30
0.0
 10
-9.78614
 20
-12.98402
 30
0.0
 10
-9.78614
 20
-12.98402
 30
0.0
 10
-9.78615
 20
-12.98419
 30
0.0
 10
-9.78608
 20
-12.984
 30
0.0
 10
-9.78601
 20
-12.98383
 30
0.0
 10
-9.78601
 20
-12.98383
 30
0.0
 10
-9.78323
 20
-12.97632
 30
0.0
 10
-9.78686
 20
-12.96787
 30
0.0
 10
-9.79434
 20
-12.96477
 30
0.0
 10
-9.79434
 20
-12.96477
 30
0.0
 10
-9.79434
 20
-12.96477
 30
0.0
 10
-9.82031
 20
-12.95386
 30
0.0
 10
-9.82031
 20
-12.95386
 30
0.0
 10
-9.82031
 20
-12.95386
 30
0.0
 10
-9.82031
 20
-12.95386
 30
0.0
 10
-9.82251
 20
-12.95307
 30
0.0
 10
-9.82251
 20
-12.95307
 30
0.0
 10
-9.82251
 20
-12.95307
 30
0.0
 10
-9.82251
 20
-12.95307
 30
0.0
 10
-9.84947
 20
-12.94504
 30
0.0
 10
-9.84947
 20
-12.94504
 30
0.0
 10
-9.84947
 20
-12.94504
 30
0.0
 10
-9.85739
 20
-12.94264
 30
0.0
 10
-9.86577
 20
-12.94712
 30
0.0
 10
-9.86803
 20
-12.95472
 30
0.0
 10
-9.86803
 20
-12.95472
 30
0.0
 10
-9.87986
 20
-12.97789
 30
0.0
 10
-9.9073
 20
-12.99018
 30
0.0
 10
-9.93343
 20
-12.98225
 30
0.0
 10
-9.93343
 20
-12.98225
 30
0.0
 10
-9.95955
 20
-12.97433
 30
0.0
 10
-9.97554
 20
-12.94887
 30
0.0
 10
-9.97248
 20
-12.92304
 30
0.0
 10
-9.97248
 20
-12.92304
 30
0.0
 10
-9.97247
 20
-12.92321
 30
0.0
 10
-9.97242
 20
-12.92301
 30
0.0
 10
-9.97236
 20
-12.92283
 30
0.0
 10
-9.97236
 20
-12.92283
 30
0.0
 10
-9.97034
 20
-12.91509
 30
0.0
 10
-9.97478
 20
-12.90703
 30
0.0
 10
-9.98252
 20
-12.90468
 30
0.0
 10
-9.98252
 20
-12.90468
 30
0.0
 10
-9.98252
 20
-12.90468
 30
0.0
 10
-10.00944
 20
-12.89637
 30
0.0
 10
-10.00944
 20
-12.89637
 30
0.0
 10
-10.00944
 20
-12.89637
 30
0.0
 10
-10.00944
 20
-12.89637
 30
0.0
 10
-10.0117
 20
-12.8958
 30
0.0
 10
-10.0117
 20
-12.8958
 30
0.0
 10
-10.0117
 20
-12.8958
 30
0.0
 10
-10.0117
 20
-12.8958
 30
0.0
 10
-10.03932
 20
-12.89045
 30
0.0
 10
-10.03932
 20
-12.89045
 30
0.0
 10
-10.03932
 20
-12.89045
 30
0.0
 10
-10.04744
 20
-12.88884
 30
0.0
 10
-10.05534
 20
-12.89412
 30
0.0
 10
-10.05684
 20
-12.9019
 30
0.0
 10
-10.05684
 20
-12.9019
 30
0.0
 10
-10.06635
 20
-12.92612
 30
0.0
 10
-10.09245
 20
-12.94104
 30
0.0
 10
-10.11922
 20
-12.93571
 30
0.0
 10
-10.11922
 20
-12.93571
 30
0.0
 10
-10.146
 20
-12.93039
 30
0.0
 10
-10.16441
 20
-12.90662
 30
0.0
 10
-10.16389
 20
-12.88061
 30
0.0
 10
-10.16389
 20
-12.88061
 30
0.0
 10
-10.16387
 20
-12.88078
 30
0.0
 10
-10.16384
 20
-12.88058
 30
0.0
 10
-10.1638
 20
-12.88039
 30
0.0
 10
-10.1638
 20
-12.88039
 30
0.0
 10
-10.16254
 20
-12.87249
 30
0.0
 10
-10.16775
 20
-12.86491
 30
0.0
 10
-10.17569
 20
-12.86333
 30
0.0
 10
-10.17569
 20
-12.86333
 30
0.0
 10
-10.17569
 20
-12.86333
 30
0.0
 10
-10.20329
 20
-12.85769
 30
0.0
 10
-10.20329
 20
-12.85769
 30
0.0
 10
-10.20329
 20
-12.85769
 30
0.0
 10
-10.20329
 20
-12.85769
 30
0.0
 10
-10.2056
 20
-12.85735
 30
0.0
 10
-10.2056
 20
-12.85735
 30
0.0
  0
SPLINE
  5
60
330
1F
100
AcDbEntity
  8
Layer 1
 62
     5
370
    53
100
AcDbSpline
210
0.0
220
0.0
230
1.0
 70
    11
 71
     3
 72
    24
 73
    20
 74
     0
 42
0.0000000001
 43
0.0000000001
 40
0.0
 40
0.0
 40
0.0
 40
0.0
 40
0.2
 40
0.2
 40
0.2
 40
0.2
 40
0.4
 40
0.4
 40
0.4
 40
0.4
 40
0.6000000000000001
 40
0.6000000000000001
 40
0.6000000000000001
 40
0.6000000000000001
 40
0.8
 40
0.8
 40
0.8
 40
0.8
 40
1.0
 40
1.0
 40
1.0
 40
1.0
 10
-11.24336
 20
-13.71686
 30
0.0
 10
-11.24336
 20
-13.71686
 30
0.0
 10
-11.24336
 20
-13.41164
 30
0.0
 10
-11.24336
 20
-13.41164
 30
0.0
 10
-11.24336
 20
-13.41164
 30
0.0
 10
-11.24336
 20
-13.41164
 30
0.0
 10
-11.353
 20
-13.41164
 30
0.0
 10
-11.353
 20
-13.41164
 30
0.0
 10
-11.353
 20
-13.41164
 30
0.0
 10
-11.353
 20
-13.41164
 30
0.0
 10
-11.13287
 20
-13.41164
 30
0.0
 10
-11.13287
 20
-13.41164
 30
0.0
 10
-11.13287
 20
-13.41164
 30
0.0
 10
-11.13287
 20
-13.41164
 30
0.0
 10
-11.24336
 20
-13.41164
 30
0.0
 10
-11.24336
 20
-13.41164
 30
0.0
 10
-11.24336
 20
-13.41164
 30
0.0
 10
-11.24336
 20
-13.41164
 30
0.0
 10
-11.24336
 20
-13.71686
 30
0.0
 10
-11.24336
 20
-13.71686
 30
0.0
  0
SPLINE
  5
61
330
1F
100
AcDbEntity
  8
Layer 1
 62
     5
370
    53
100
AcDbSpline
210
0.0
220
0.0
230
1.0
 70
    11
 71
     3
 72
    92
 73
    88
 74
     0
 42
0.0000000001
 43
0.0000000001
 40
0.0
 40
0.0
 40
0.0
 40
0.0
 40
0.0454545454545455
 40
0.0454545454545455
 40
0.0454545454545455
 40
0.0454545454545455
 40
0.0909090909090909
 40
0.0909090909090909
 40
0.0909090909090909
 40
0.0909090909090909
 40
0.1363636363636364
 40
0.1363636363636364
 40
0.1363636363636364
 40
0.1363636363636364
 40
0.1818181818181818
 40
0.1818181818181818
 40
0.1818181818181818
 40
0.1818181818181818
 40
0.2272727272727273
 40
0.2272727272727273
 40
0.2272727272727273
 40
0.2272727272727273
 40
0.2727272727272728
 40
0.2727272727272728
 40
0.2727272727272728
 40
0.2727272727272728
 40
0.3181818181818182
 40
0.3181818181818182
 40
0.3181818181818182
 40
0.3181818181818182
 40
0.3636363636363637
 40
0.3636363636363637
 40
0.3636363636363637
 40
0.3636363636363637
 40
0.4090909090909092
 40
0.4090909090909092
 40
0.4090909090909092
 40
0.4090909090909092
 40
0.4545454545454546
 40
0.4545454545454546
 40
0.4545454545454546
 40
0.4545454545454546
 40
0.5000000000000001
 40
0.5000000000000001
 40
0.5000000000000001
 40
0.5000000000000001
 40
0.5454545454545455
 40
0.5454545454545455
 40
0.5454545454545455
 40
0.5454545454545455
 40
0.5909090909090909
 40
0.5909090909090909
 40
0.5909090909090909
 40
0.5909090909090909
 40
0.6363636363636364
 40
0.6363636363636364
 40
0.6363636363636364
 40
0.6363636363636364
 40
0.6818181818181818
 40
0.6818181818181818
 40
0.6818181818181818
 40
0.6818181818181818
 40
0.7272727272727272
 40
0.7272727272727272
 40
0.7272727272727272
 40
0.7272727272727272
 40
0.7727272727272726
 40
0.7727272727272726
 40
0.7727272727272726
 40
0.7727272727272726
 40
0.818181818181818
 40
0.818181818181818
 40
0.818181818181818
 40
0.818181818181818
 40
0.8636363636363634
 40
0.8636363636363634
 40
0.8636363636363634
 40
0.8636363636363634
 40
0.9090909090909088
 40
0.9090909090909088
 40
0.9090909090909088
 40
0.9090909090909088
 40
0.9545454545454543
 40
0.9545454545454543
 40
0.9545454545454543
 40
0.9545454545454543
 40
1.0
 40
1.0
 40
1.0
 40
1.0
 10
-10.98513
 20
-13.71686
 30
0.0
 10
-10.98513
 20
-13.71686
 30
0.0
 10
-10.98513
 20
-13.41164
 30
0.0
 10
-10.98513
 20
-13.41164
 30
0.0
 10
-10.98513
 20
-13.41164
 30
0.0
 10
-10.98513
 20
-13.41164
 30
0.0
 10
-10.88776
 20
-13.41164
 30
0.0
 10
-10.88776
 20
-13.41164
 30
0.0
 10
-10.88776
 20
-13.41164
 30
0.0
 10
-10.86829
 20
-13.41171
 30
0.0
 10
-10.85228
 20
-13.4139
 30
0.0
 10
-10.83965
 20
-13.41813
 30
0.0
 10
-10.83965
 20
-13.41813
 30
0.0
 10
-10.82709
 20
-13.42229
 30
0.0
 10
-10.81721
 20
-13.42808
 30
0.0
 10
-10.81008
 20
-13.43542
 30
0.0
 10
-10.81008
 20
-13.43542
 30
0.0
 10
-10.80296
 20
-13.44268
 30
0.0
 10
-10.79788
 20
-13.45101
 30
0.0
 10
-10.79477
 20
-13.46039
 30
0.0
 10
-10.79477
 20
-13.46039
 30
0.0
 10
-10.79174
 20
-13.46978
 30
0.0
 10
-10.78998
 20
-13.47958
 30
0.0
 10
-10.78955
 20
-13.48996
 30
0.0
 10
-10.78955
 20
-13.48996
 30
0.0
 10
-10.78906
 20
-13.50033
 30
0.0
 10
-10.79026
 20
-13.51049
 30
0.0
 10
-10.79308
 20
-13.52036
 30
0.0
 10
-10.79308
 20
-13.52036
 30
0.0
 10
-10.79597
 20
-13.53024
 30
0.0
 10
-10.80084
 20
-13.5392
 30
0.0
 10
-10.80783
 20
-13.54725
 30
0.0
 10
-10.80783
 20
-13.54725
 30
0.0
 10
-10.81474
 20
-13.55529
 30
0.0
 10
-10.82412
 20
-13.56171
 30
0.0
 10
-10.83591
 20
-13.56644
 30
0.0
 10
-10.83591
 20
-13.56644
 30
0.0
 10
-10.84769
 20
-13.57123
 30
0.0
 10
-10.86229
 20
-13.57363
 30
0.0
 10
-10.87972
 20
-13.57377
 30
0.0
 10
-10.87972
 20
-13.57377
 30
0.0
 10
-10.87972
 20
-13.57377
 30
0.0
 10
-10.98513
 20
-13.57377
 30
0.0
 10
-10.98513
 20
-13.57377
 30
0.0
 10
-10.98513
 20
-13.57377
 30
0.0
 10
-10.98513
 20
-13.57377
 30
0.0
 10
-10.87972
 20
-13.57377
 30
0.0
 10
-10.87972
 20
-13.57377
 30
0.0
 10
-10.87972
 20
-13.57377
 30
0.0
 10
-10.86265
 20
-13.57363
 30
0.0
 10
-10.84818
 20
-13.57123
 30
0.0
 10
-10.83647
 20
-13.56644
 30
0.0
 10
-10.83647
 20
-13.56644
 30
0.0
 10
-10.82469
 20
-13.56171
 30
0.0
 10
-10.8153
 20
-13.55529
 30
0.0
 10
-10.80825
 20
-13.54725
 30
0.0
 10
-10.80825
 20
-13.54725
 30
0.0
 10
-10.80126
 20
-13.5392
 30
0.0
 10
-10.79625
 20
-13.53024
 30
0.0
 10
-10.79329
 20
-13.52036
 30
0.0
 10
-10.79329
 20
-13.52036
 30
0.0
 10
-10.79033
 20
-13.51049
 30
0.0
 10
-10.78906
 20
-13.50033
 30
0.0
 10
-10.78955
 20
-13.48996
 30
0.0
 10
-10.78955
 20
-13.48996
 30
0.0
 10
-10.78998
 20
-13.47958
 30
0.0
 10
-10.79174
 20
-13.46978
 30
0.0
 10
-10.79491
 20
-13.46039
 30
0.0
 10
-10.79491
 20
-13.46039
 30
0.0
 10
-10.79802
 20
-13.45101
 30
0.0
 10
-10.80324
 20
-13.44268
 30
0.0
 10
-10.81037
 20
-13.43542
 30
0.0
 10
-10.81037
 20
-13.43542
 30
0.0
 10
-10.81756
 20
-13.42808
 30
0.0
 10
-10.82744
 20
-13.42229
 30
0.0
 10
-10.84
 20
-13.41813
 30
0.0
 10
-10.84
 20
-13.41813
 30
0.0
 10
-10.85263
 20
-13.4139
 30
0.0
 10
-10.8685
 20
-13.41171
 30
0.0
 10
-10.88776
 20
-13.41164
 30
0.0
 10
-10.88776
 20
-13.41164
 30
0.0
 10
-10.88776
 20
-13.41164
 30
0.0
 10
-10.98513
 20
-13.41164
 30
0.0
 10
-10.98513
 20
-13.41164
 30
0.0
 10
-10.98513
 20
-13.41164
 30
0.0
 10
-10.98513
 20
-13.41164
 30
0.0
 10
-10.98513
 20
-13.71686
 30
0.0
 10
-10.98513
 20
-13.71686
 30
0.0
  0
SPLINE
  5
62
330
1F
100
AcDbEntity
  8
Layer 1
 62
     5
370
    53
100
AcDbSpline
210
0.0
220
0.0
230
1.0
 70
    27
 71
     3
 72
    12
 73
     8
 74
     0
 42
0.0000000001
 43
0.0000000001
 40
0.0
 40
0.0
 40
0.0
 40
0.0
 40
0.5
 40
0.5
 40
0.5
 40
0.5
 40
1.0
 40
1.0
 40
1.0
 40
1.0
 10
-10.68457
 20
-13.55726
 30
0.0
 10
-10.68457
 20
-13.55726
 30
0.0
 10
-10.56138
 20
-13.55726
 30
0.0
 10
-10.56138
 20
-13.55726
 30
0.0
 10
-10.56138
 20
-13.55726
 30
0.0
 10
-10.56138
 20
-13.55726
 30
0.0
 10
-10.68457
 20
-13.55726
 30
0.0
 10
-10.68457
 20
-13.55726
 30
0.0
  0
SPLINE
  5
63
330
1F
100
AcDbEntity
  8
Layer 1
 62
     5
370
    53
100
AcDbSpline
210
0.0
220
0.0
230
1.0
 70
    11
 71
     3
 72
   124
 73
   120
 74
     0
 42
0.0000000001
 43
0.0000000001
 40
0.0
 40
0.0
 40
0.0
 40
0.0
 40
0.0333333333333333
 40
0.0333333333333333
 40
0.0333333333333333
 40
0.0333333333333333
 40
0.0666666666666667
 40
0.0666666666666667
 40
0.0666666666666667
 40
0.0666666666666667
 40
0.1
 40
0.1
 40
0.1
 40
0.1
 40
0.1333333333333333
 40
0.1333333333333333
 40
0.1333333333333333
 40
0.1333333333333333
 40
0.1666666666666667
 40
0.1666666666666667
 40
0.1666666666666667
 40
0.1666666666666667
 40
0.2
 40
0.2
 40
0.2
 40
0.2
 40
0.2333333333333333
 40
0.2333333333333333
 40
0.2333333333333333
 40
0.2333333333333333
 40
0.2666666666666667
 40
0.2666666666666667
 40
0.2666666666666667
 40
0.2666666666666667
 40
0.3
 40
0.3
 40
0.3
 40
0.3
 40
0.3333333333333333
 40
0.3333333333333333
 40
0.3333333333333333
 40
0.3333333333333333
 40
0.3666666666666666
 40
0.3666666666666666
 40
0.3666666666666666
 40
0.3666666666666666
 40
0.4
 40
0.4
 40
0.4
 40
0.4
 40
0.4333333333333333
 40
0.4333333333333333
 40
0.4333333333333333
 40
0.4333333333333333
 40
0.4666666666666666
 40
0.4666666666666666
 40
0.4666666666666666
 40
0.4666666666666666
 40
0.4999999999999999
 40
0.4999999999999999
 40
0.4999999999999999
 40
0.4999999999999999
 40
0.5333333333333333
 40
0.5333333333333333
 40
0.5333333333333333
 40
0.5333333333333333
 40
0.5666666666666667
 40
0.5666666666666667
 40
0.5666666666666667
 40
0.5666666666666667
 40
0.6
 40
0.6
 40
0.6
 40
0.6
 40
0.6333333333333333
 40
0.6333333333333333
 40
0.6333333333333333
 40
0.6333333333333333
 40
0.6666666666666666
 40
0.6666666666666666
 40
0.6666666666666666
 40
0.6666666666666666
 40
0.7
 40
0.7
 40
0.7
 40
0.7
 40
0.7333333333333333
 40
0.7333333333333333
 40
0.7333333333333333
 40
0.7333333333333333
 40
0.7666666666666666
 40
0.7666666666666666
 40
0.7666666666666666
 40
0.7666666666666666
 40
0.7999999999999999
 40
0.7999999999999999
 40
0.7999999999999999
 40
0.7999999999999999
 40
0.8333333333333333
 40
0.8333333333333333
 40
0.8333333333333333
 40
0.8333333333333333
 40
0.8666666666666666
 40
0.8666666666666666
 40
0.8666666666666666
 40
0.8666666666666666
 40
0.8999999999999999
 40
0.8999999999999999
 40
0.8999999999999999
 40
0.8999999999999999
 40
0.9333333333333332
 40
0.9333333333333332
 40
0.9333333333333332
 40
0.9333333333333332
 40
0.9666666666666666
 40
0.9666666666666666
 40
0.9666666666666666
 40
0.9666666666666666
 40
1.0
 40
1.0
 40
1.0
 40
1.0
 10
-10.31754
 20
-13.56869
 30
0.0
 10
-10.31754
 20
-13.56869
 30
0.0
 10
-10.20875
 20
-13.56869
 30
0.0
 10
-10.20875
 20
-13.56869
 30
0.0
 10
-10.20875
 20
-13.56869
 30
0.0
 10
-10.20889
 20
-13.60334
 30
0.0
 10
-10.21383
 20
-13.63177
 30
0.0
 10
-10.22371
 20
-13.65392
 30
0.0
 10
-10.22371
 20
-13.65392
 30
0.0
 10
-10.23358
 20
-13.67615
 30
0.0
 10
-10.24755
 20
-13.69252
 30
0.0
 10
-10.26576
 20
-13.70317
 30
0.0
 10
-10.26576
 20
-13.70317
 30
0.0
 10
-10.28396
 20
-13.71376
 30
0.0
 10
-10.30555
 20
-13.71905
 30
0.0
 10
-10.33067
 20
-13.71898
 30
0.0
 10
-10.33067
 20
-13.71898
 30
0.0
 10
-10.34951
 20
-13.71905
 30
0.0
 10
-10.367
 20
-13.71644
 30
0.0
 10
-10.38316
 20
-13.711
 30
0.0
 10
-10.38316
 20
-13.711
 30
0.0
 10
-10.39932
 20
-13.70564
 30
0.0
 10
-10.4135
 20
-13.69689
 30
0.0
 10
-10.42564
 20
-13.68483
 30
0.0
 10
-10.42564
 20
-13.68483
 30
0.0
 10
-10.43777
 20
-13.67276
 30
0.0
 10
-10.4473
 20
-13.65682
 30
0.0
 10
-10.45407
 20
-13.63699
 30
0.0
 10
-10.45407
 20
-13.63699
 30
0.0
 10
-10.46084
 20
-13.61717
 30
0.0
 10
-10.4643
 20
-13.59282
 30
0.0
 10
-10.46444
 20
-13.56404
 30
0.0
 10
-10.46444
 20
-13.56404
 30
0.0
 10
-10.46437
 20
-13.53511
 30
0.0
 10
-10.46134
 20
-13.5107
 30
0.0
 10
-10.45534
 20
-13.49066
 30
0.0
 10
-10.45534
 20
-13.49066
 30
0.0
 10
-10.44927
 20
-13.47069
 30
0.0
 10
-10.44052
 20
-13.45461
 30
0.0
 10
-10.42895
 20
-13.4424
 30
0.0
 10
-10.42895
 20
-13.4424
 30
0.0
 10
-10.41745
 20
-13.43027
 30
0.0
 10
-10.40341
 20
-13.42145
 30
0.0
 10
-10.3869
 20
-13.41594
 30
0.0
 10
-10.3869
 20
-13.41594
 30
0.0
 10
-10.37039
 20
-13.41044
 30
0.0
 10
-10.35169
 20
-13.40776
 30
0.0
 10
-10.33067
 20
-13.40783
 30
0.0
 10
-10.33067
 20
-13.40783
 30
0.0
 10
-10.3107
 20
-13.40776
 30
0.0
 10
-10.29278
 20
-13.41023
 30
0.0
 10
-10.27683
 20
-13.41524
 30
0.0
 10
-10.27683
 20
-13.41524
 30
0.0
 10
-10.26089
 20
-13.42025
 30
0.0
 10
-10.2472
 20
-13.42829
 30
0.0
 10
-10.23577
 20
-13.43937
 30
0.0
 10
-10.23577
 20
-13.43937
 30
0.0
 10
-10.22427
 20
-13.45044
 30
0.0
 10
-10.21531
 20
-13.46505
 30
0.0
 10
-10.20875
 20
-13.48318
 30
0.0
 10
-10.20875
 20
-13.48318
 30
0.0
 10
-10.21531
 20
-13.46505
 30
0.0
 10
-10.22427
 20
-13.45044
 30
0.0
 10
-10.23577
 20
-13.43937
 30
0.0
 10
-10.23577
 20
-13.43937
 30
0.0
 10
-10.2472
 20
-13.42829
 30
0.0
 10
-10.26089
 20
-13.42025
 30
0.0
 10
-10.27683
 20
-13.41524
 30
0.0
 10
-10.27683
 20
-13.41524
 30
0.0
 10
-10.29278
 20
-13.41023
 30
0.0
 10
-10.3107
 20
-13.40776
 30
0.0
 10
-10.33067
 20
-13.40783
 30
0.0
 10
-10.33067
 20
-13.40783
 30
0.0
 10
-10.35169
 20
-13.40776
 30
0.0
 10
-10.37039
 20
-13.41044
 30
0.0
 10
-10.3869
 20
-13.41594
 30
0.0
 10
-10.3869
 20
-13.41594
 30
0.0
 10
-10.40341
 20
-13.42145
 30
0.0
 10
-10.41745
 20
-13.43027
 30
0.0
 10
-10.42895
 20
-13.4424
 30
0.0
 10
-10.42895
 20
-13.4424
 30
0.0
 10
-10.44052
 20
-13.45461
 30
0.0
 10
-10.44927
 20
-13.47069
 30
0.0
 10
-10.45534
 20
-13.49066
 30
0.0
 10
-10.45534
 20
-13.49066
 30
0.0
 10
-10.46134
 20
-13.5107
 30
0.0
 10
-10.46437
 20
-13.53511
 30
0.0
 10
-10.46444
 20
-13.56404
 30
0.0
 10
-10.46444
 20
-13.56404
 30
0.0
 10
-10.4643
 20
-13.59282
 30
0.0
 10
-10.46084
 20
-13.61717
 30
0.0
 10
-10.45407
 20
-13.63699
 30
0.0
 10
-10.45407
 20
-13.63699
 30
0.0
 10
-10.4473
 20
-13.65682
 30
0.0
 10
-10.43777
 20
-13.67276
 30
0.0
 10
-10.42564
 20
-13.68483
 30
0.0
 10
-10.42564
 20
-13.68483
 30
0.0
 10
-10.4135
 20
-13.69689
 30
0.0
 10
-10.39932
 20
-13.70564
 30
0.0
 10
-10.38316
 20
-13.711
 30
0.0
 10
-10.38316
 20
-13.711
 30
0.0
 10
-10.367
 20
-13.71644
 30
0.0
 10
-10.34951
 20
-13.71905
 30
0.0
 10
-10.33067
 20
-13.71898
 30
0.0
 10
-10.33067
 20
-13.71898
 30
0.0
 10
-10.30555
 20
-13.71905
 30
0.0
 10
-10.28396
 20
-13.71376
 30
0.0
 10
-10.26576
 20
-13.70317
 30
0.0
 10
-10.26576
 20
-13.70317
 30
0.0
 10
-10.24755
 20
-13.69252
 30
0.0
 10
-10.23358
 20
-13.67615
 30
0.0
 10
-10.22371
 20
-13.65392
 30
0.0
 10
-10.22371
 20
-13.65392
 30
0.0
 10
-10.21383
 20
-13.63177
 30
0.0
 10
-10.20889
 20
-13.60334
 30
0.0
 10
-10.20875
 20
-13.56869
 30
0.0
 10
-10.20875
 20
-13.56869
 30
0.0
 10
-10.20875
 20
-13.56869
 30
0.0
 10
-10.31754
 20
-13.56869
 30
0.0
 10
-10.31754
 20
-13.56869
 30
0.0
  0
SPLINE
  5
64
330
1F
100
AcDbEntity
  8
Layer 1
 62
     5
370
    53
100
AcDbSpline
210
0.0
220
0.0
230
1.0
 70
    27
 71
     3
 72
    12
 73
     8
 74
     0
 42
0.0000000001
 43
0.0000000001
 40
0.0
 40
0.0
 40
0.0
 40
0.0
 40
0.5
 40
0.5
 40
0.5
 40
0.5
 40
1.0
 40
1.0
 40
1.0
 40
1.0
 10
-10.20875
 20
-13.71686
 30
0.0
 10
-10.20875
 20
-13.71686
 30
0.0
 10
-10.20875
 20
-13.56869
 30
0.0
 10
-10.20875
 20
-13.56869
 30
0.0
 10
-10.20875
 20
-13.56869
 30
0.0
 10
-10.20875
 20
-13.56869
 30
0.0
 10
-10.20875
 20
-13.71686
 30
0.0
 10
-10.20875
 20
-13.71686
 30
0.0
  0
SPLINE
  5
65
330
1F
100
AcDbEntity
  8
Layer 1
 62
     5
370
    53
100
AcDbSpline
210
0.0
220
0.0
230
1.0
 70
    11
 71
     3
 72
    24
 73
    20
 74
     0
 42
0.0000000001
 43
0.0000000001
 40
0.0
 40
0.0
 40
0.0
 40
0.0
 40
0.2
 40
0.2
 40
0.2
 40
0.2
 40
0.4
 40
0.4
 40
0.4
 40
0.4
 40
0.6000000000000001
 40
0.6000000000000001
 40
0.6000000000000001
 40
0.6000000000000001
 40
0.8
 40
0.8
 40
0.8
 40
0.8
 40
1.0
 40
1.0
 40
1.0
 40
1.0
 10
-9.99539
 20
-13.71686
 30
0.0
 10
-9.99539
 20
-13.71686
 30
0.0
 10
-9.99539
 20
-13.41164
 30
0.0
 10
-9.99539
 20
-13.41164
 30
0.0
 10
-9.99539
 20
-13.41164
 30
0.0
 10
-9.99539
 20
-13.41164
 30
0.0
 10
-10.10503
 20
-13.41164
 30
0.0
 10
-10.10503
 20
-13.41164
 30
0.0
 10
-10.10503
 20
-13.41164
 30
0.0
 10
-10.10503
 20
-13.41164
 30
0.0
 10
-9.8849
 20
-13.41164
 30
0.0
 10
-9.8849
 20
-13.41164
 30
0.0
 10
-9.8849
 20
-13.41164
 30
0.0
 10
-9.8849
 20
-13.41164
 30
0.0
 10
-9.99539
 20
-13.41164
 30
0.0
 10
-9.99539
 20
-13.41164
 30
0.0
 10
-9.99539
 20
-13.41164
 30
0.0
 10
-9.99539
 20
-13.41164
 30
0.0
 10
-9.99539
 20
-13.71686
 30
0.0
 10
-9.99539
 20
-13.71686
 30
0.0
  0
SPLINE
  5
66
330
1F
100
AcDbEntity
  8
Layer 1
 62
     5
370
    53
100
AcDbSpline
210
0.0
220
0.0
230
1.0
 70
    11
 71
     3
 72
   172
 73
   168
 74
     0
 42
0.0000000001
 43
0.0000000001
 40
0.0
 40
0.0
 40
0.0
 40
0.0
 40
0.0238095238095238
 40
0.0238095238095238
 40
0.0238095238095238
 40
0.0238095238095238
 40
0.0476190476190476
 40
0.0476190476190476
 40
0.0476190476190476
 40
0.0476190476190476
 40
0.0714285714285714
 40
0.0714285714285714
 40
0.0714285714285714
 40
0.0714285714285714
 40
0.0952380952380952
 40
0.0952380952380952
 40
0.0952380952380952
 40
0.0952380952380952
 40
0.119047619047619
 40
0.119047619047619
 40
0.119047619047619
 40
0.119047619047619
 40
0.1428571428571428
 40
0.1428571428571428
 40
0.1428571428571428
 40
0.1428571428571428
 40
0.1666666666666667
 40
0.1666666666666667
 40
0.1666666666666667
 40
0.1666666666666667
 40
0.1904761904761905
 40
0.1904761904761905
 40
0.1904761904761905
 40
0.1904761904761905
 40
0.2142857142857143
 40
0.2142857142857143
 40
0.2142857142857143
 40
0.2142857142857143
 40
0.2380952380952381
 40
0.2380952380952381
 40
0.2380952380952381
 40
0.2380952380952381
 40
0.2619047619047619
 40
0.2619047619047619
 40
0.2619047619047619
 40
0.2619047619047619
 40
0.2857142857142857
 40
0.2857142857142857
 40
0.2857142857142857
 40
0.2857142857142857
 40
0.3095238095238095
 40
0.3095238095238095
 40
0.3095238095238095
 40
0.3095238095238095
 40
0.3333333333333334
 40
0.3333333333333334
 40
0.3333333333333334
 40
0.3333333333333334
 40
0.3571428571428572
 40
0.3571428571428572
 40
0.3571428571428572
 40
0.3571428571428572
 40
0.380952380952381
 40
0.380952380952381
 40
0.380952380952381
 40
0.380952380952381
 40
0.4047619047619049
 40
0.4047619047619049
 40
0.4047619047619049
 40
0.4047619047619049
 40
0.4285714285714287
 40
0.4285714285714287
 40
0.4285714285714287
 40
0.4285714285714287
 40
0.4523809523809526
 40
0.4523809523809526
 40
0.4523809523809526
 40
0.4523809523809526
 40
0.4761904761904764
 40
0.4761904761904764
 40
0.4761904761904764
 40
0.4761904761904764
 40
0.5000000000000002
 40
0.5000000000000002
 40
0.5000000000000002
 40
0.5000000000000002
 40
0.5238095238095241
 40
0.5238095238095241
 40
0.5238095238095241
 40
0.5238095238095241
 40
0.5476190476190479
 40
0.5476190476190479
 40
0.5476190476190479
 40
0.5476190476190479
 40
0.5714285714285717
 40
0.5714285714285717
 40
0.5714285714285717
 40
0.5714285714285717
 40
0.5952380952380956
 40
0.5952380952380956
 40
0.5952380952380956
 40
0.5952380952380956
 40
0.6190476190476194
 40
0.6190476190476194
 40
0.6190476190476194
 40
0.6190476190476194
 40
0.6428571428571432
 40
0.6428571428571432
 40
0.6428571428571432
 40
0.6428571428571432
 40
0.6666666666666671
 40
0.6666666666666671
 40
0.6666666666666671
 40
0.6666666666666671
 40
0.6904761904761909
 40
0.6904761904761909
 40
0.6904761904761909
 40
0.6904761904761909
 40
0.7142857142857147
 40
0.7142857142857147
 40
0.7142857142857147
 40
0.7142857142857147
 40
0.7380952380952386
 40
0.7380952380952386
 40
0.7380952380952386
 40
0.7380952380952386
 40
0.7619047619047624
 40
0.7619047619047624
 40
0.7619047619047624
 40
0.7619047619047624
 40
0.7857142857142863
 40
0.7857142857142863
 40
0.7857142857142863
 40
0.7857142857142863
 40
0.8095238095238101
 40
0.8095238095238101
 40
0.8095238095238101
 40
0.8095238095238101
 40
0.8333333333333339
 40
0.8333333333333339
 40
0.8333333333333339
 40
0.8333333333333339
 40
0.8571428571428578
 40
0.8571428571428578
 40
0.8571428571428578
 40
0.8571428571428578
 40
0.8809523809523816
 40
0.8809523809523816
 40
0.8809523809523816
 40
0.8809523809523816
 40
0.9047619047619054
 40
0.9047619047619054
 40
0.9047619047619054
 40
0.9047619047619054
 40
0.9285714285714293
 40
0.9285714285714293
 40
0.9285714285714293
 40
0.9285714285714293
 40
0.9523809523809531
 40
0.9523809523809531
 40
0.9523809523809531
 40
0.9523809523809531
 40
0.9761904761904769
 40
0.9761904761904769
 40
0.9761904761904769
 40
0.9761904761904769
 40
1.0
 40
1.0
 40
1.0
 40
1.0
 10
-9.60127
 20
-13.71686
 30
0.0
 10
-9.60127
 20
-13.71686
 30
0.0
 10
-9.78288
 20
-13.71686
 30
0.0
 10
-9.78288
 20
-13.71686
 30
0.0
 10
-9.78288
 20
-13.71686
 30
0.0
 10
-9.78253
 20
-13.70458
 30
0.0
 10
-9.78098
 20
-13.69372
 30
0.0
 10
-9.77836
 20
-13.6844
 30
0.0
 10
-9.77836
 20
-13.6844
 30
0.0
 10
-9.77568
 20
-13.67509
 30
0.0
 10
-9.77209
 20
-13.66691
 30
0.0
 10
-9.76764
 20
-13.65985
 30
0.0
 10
-9.76764
 20
-13.65985
 30
0.0
 10
-9.76312
 20
-13.6528
 30
0.0
 10
-9.75797
 20
-13.64652
 30
0.0
 10
-9.75212
 20
-13.64101
 30
0.0
 10
-9.75212
 20
-13.64101
 30
0.0
 10
-9.74626
 20
-13.63544
 30
0.0
 10
-9.73998
 20
-13.63036
 30
0.0
 10
-9.73321
 20
-13.62556
 30
0.0
 10
-9.73321
 20
-13.62556
 30
0.0
 10
-9.72644
 20
-13.62083
 30
0.0
 10
-9.71945
 20
-13.61611
 30
0.0
 10
-9.71218
 20
-13.61145
 30
0.0
 10
-9.71218
 20
-13.61145
 30
0.0
 10
-9.71218
 20
-13.61145
 30
0.0
 10
-9.63979
 20
-13.56319
 30
0.0
 10
-9.63979
 20
-13.56319
 30
0.0
 10
-9.63979
 20
-13.56319
 30
0.0
 10
-9.63239
 20
-13.55797
 30
0.0
 10
-9.6266
 20
-13.55226
 30
0.0
 10
-9.62251
 20
-13.54612
 30
0.0
 10
-9.62251
 20
-13.54612
 30
0.0
 10
-9.61835
 20
-13.53998
 30
0.0
 10
-9.61545
 20
-13.53349
 30
0.0
 10
-9.61369
 20
-13.52664
 30
0.0
 10
-9.61369
 20
-13.52664
 30
0.0
 10
-9.612
 20
-13.51987
 30
0.0
 10
-9.61094
 20
-13.51289
 30
0.0
 10
-9.61059
 20
-13.50583
 30
0.0
 10
-9.61059
 20
-13.50583
 30
0.0
 10
-9.61023
 20
-13.4987
 30
0.0
 10
-9.61009
 20
-13.49158
 30
0.0
 10
-9.61016
 20
-13.48445
 30
0.0
 10
-9.61016
 20
-13.48445
 30
0.0
 10
-9.61016
 20
-13.4786
 30
0.0
 10
-9.61094
 20
-13.47232
 30
0.0
 10
-9.61249
 20
-13.46554
 30
0.0
 10
-9.61249
 20
-13.46554
 30
0.0
 10
-9.61411
 20
-13.45884
 30
0.0
 10
-9.61665
 20
-13.45214
 30
0.0
 10
-9.62025
 20
-13.44551
 30
0.0
 10
-9.62025
 20
-13.44551
 30
0.0
 10
-9.62385
 20
-13.43887
 30
0.0
 10
-9.62865
 20
-13.43281
 30
0.0
 10
-9.63464
 20
-13.4273
 30
0.0
 10
-9.63464
 20
-13.4273
 30
0.0
 10
-9.64064
 20
-13.42187
 30
0.0
 10
-9.64805
 20
-13.4175
 30
0.0
 10
-9.65687
 20
-13.41418
 30
0.0
 10
-9.65687
 20
-13.41418
 30
0.0
 10
-9.66569
 20
-13.41086
 30
0.0
 10
-9.67606
 20
-13.40917
 30
0.0
 10
-9.68805
 20
-13.4091
 30
0.0
 10
-9.68805
 20
-13.4091
 30
0.0
 10
-9.70012
 20
-13.40917
 30
0.0
 10
-9.71077
 20
-13.41086
 30
0.0
 10
-9.71995
 20
-13.41411
 30
0.0
 10
-9.71995
 20
-13.41411
 30
0.0
 10
-9.72912
 20
-13.41735
 30
0.0
 10
-9.73695
 20
-13.42187
 30
0.0
 10
-9.74344
 20
-13.42758
 30
0.0
 10
-9.74344
 20
-13.42758
 30
0.0
 10
-9.74993
 20
-13.4333
 30
0.0
 10
-9.75515
 20
-13.43993
 30
0.0
 10
-9.75924
 20
-13.44734
 30
0.0
 10
-9.75924
 20
-13.44734
 30
0.0
 10
-9.76334
 20
-13.45475
 30
0.0
 10
-9.7663
 20
-13.46265
 30
0.0
 10
-9.7682
 20
-13.47098
 30
0.0
 10
-9.7682
 20
-13.47098
 30
0.0
 10
-9.77011
 20
-13.4793
 30
0.0
 10
-9.77103
 20
-13.48777
 30
0.0
 10
-9.77103
 20
-13.49631
 30
0.0
 10
-9.77103
 20
-13.49631
 30
0.0
 10
-9.77103
 20
-13.48777
 30
0.0
 10
-9.77011
 20
-13.4793
 30
0.0
 10
-9.7682
 20
-13.47098
 30
0.0
 10
-9.7682
 20
-13.47098
 30
0.0
 10
-9.7663
 20
-13.46265
 30
0.0
 10
-9.76334
 20
-13.45475
 30
0.0
 10
-9.75924
 20
-13.44734
 30
0.0
 10
-9.75924
 20
-13.44734
 30
0.0
 10
-9.75515
 20
-13.43993
 30
0.0
 10
-9.74993
 20
-13.4333
 30
0.0
 10
-9.74344
 20
-13.42758
 30
0.0
 10
-9.74344
 20
-13.42758
 30
0.0
 10
-9.73695
 20
-13.42187
 30
0.0
 10
-9.72912
 20
-13.41735
 30
0.0
 10
-9.71995
 20
-13.41411
 30
0.0
 10
-9.71995
 20
-13.41411
 30
0.0
 10
-9.71077
 20
-13.41086
 30
0.0
 10
-9.70012
 20
-13.40917
 30
0.0
 10
-9.68805
 20
-13.4091
 30
0.0
 10
-9.68805
 20
-13.4091
 30
0.0
 10
-9.67606
 20
-13.40917
 30
0.0
 10
-9.66569
 20
-13.41086
 30
0.0
 10
-9.65687
 20
-13.41418
 30
0.0
 10
-9.65687
 20
-13.41418
 30
0.0
 10
-9.64805
 20
-13.4175
 30
0.0
 10
-9.64064
 20
-13.42187
 30
0.0
 10
-9.63464
 20
-13.4273
 30
0.0
 10
-9.63464
 20
-13.4273
 30
0.0
 10
-9.62865
 20
-13.43281
 30
0.0
 10
-9.62385
 20
-13.43887
 30
0.0
 10
-9.62025
 20
-13.44551
 30
0.0
 10
-9.62025
 20
-13.44551
 30
0.0
 10
-9.61665
 20
-13.45214
 30
0.0
 10
-9.61411
 20
-13.45884
 30
0.0
 10
-9.61249
 20
-13.46554
 30
0.0
 10
-9.61249
 20
-13.46554
 30
0.0
 10
-9.61094
 20
-13.47232
 30
0.0
 10
-9.61016
 20
-13.4786
 30
0.0
 10
-9.61016
 20
-13.48445
 30
0.0
 10
-9.61016
 20
-13.48445
 30
0.0
 10
-9.61009
 20
-13.49158
 30
0.0
 10
-9.61023
 20
-13.4987
 30
0.0
 10
-9.61059
 20
-13.50583
 30
0.0
 10
-9.61059
 20
-13.50583
 30
0.0
 10
-9.61094
 20
-13.51289
 30
0.0
 10
-9.612
 20
-13.51987
 30
0.0
 10
-9.61369
 20
-13.52664
 30
0.0
 10
-9.61369
 20
-13.52664
 30
0.0
 10
-9.61545
 20
-13.53349
 30
0.0
 10
-9.61835
 20
-13.53998
 30
0.0
 10
-9.62251
 20
-13.54612
 30
0.0
 10
-9.62251
 20
-13.54612
 30
0.0
 10
-9.6266
 20
-13.55226
 30
0.0
 10
-9.63239
 20
-13.55797
 30
0.0
 10
-9.63979
 20
-13.56319
 30
0.0
 10
-9.63979
 20
-13.56319
 30
0.0
 10
-9.63979
 20
-13.56319
 30
0.0
 10
-9.71218
 20
-13.61145
 30
0.0
 10
-9.71218
 20
-13.61145
 30
0.0
 10
-9.71218
 20
-13.61145
 30
0.0
 10
-9.71945
 20
-13.61611
 30
0.0
 10
-9.72644
 20
-13.62083
 30
0.0
 10
-9.73321
 20
-13.62556
 30
0.0
 10
-9.73321
 20
-13.62556
 30
0.0
 10
-9.73998
 20
-13.63036
 30
0.0
 10
-9.74626
 20
-13.63544
 30
0.0
 10
-9.75212
 20
-13.64101
 30
0.0
 10
-9.75212
 20
-13.64101
 30
0.0
 10
-9.75797
 20
-13.64652
 30
0.0
 10
-9.76312
 20
-13.6528
 30
0.0
 10
-9.76764
 20
-13.65985
 30
0.0
 10
-9.76764
 20
-13.65985
 30
0.0
 10
-9.77209
 20
-13.66691
 30
0.0
 10
-9.77568
 20
-13.67509
 30
0.0
 10
-9.77836
 20
-13.6844
 30
0.0
 10
-9.77836
 20
-13.6844
 30
0.0
 10
-9.78098
 20
-13.69372
 30
0.0
 10
-9.78253
 20
-13.70458
 30
0.0
 10
-9.78288
 20
-13.71686
 30
0.0
 10
-9.78288
 20
-13.71686
 30
0.0
 10
-9.78288
 20
-13.71686
 30
0.0
 10
-9.60127
 20
-13.71686
 30
0.0
 10
-9.60127
 20
-13.71686
 30
0.0
  0
SPLINE
  5
67
330
1F
100
AcDbEntity
  8
Layer 1
 62
     5
370
    53
100
AcDbSpline
210
0.0
220
0.0
230
1.0
 70
    11
 71
     3
 72
   236
 73
   232
 74
     0
 42
0.0000000001
 43
0.0000000001
 40
0.0
 40
0.0
 40
0.0
 40
0.0
 40
0.0172413793103448
 40
0.0172413793103448
 40
0.0172413793103448
 40
0.0172413793103448
 40
0.0344827586206897
 40
0.0344827586206897
 40
0.0344827586206897
 40
0.0344827586206897
 40
0.0517241379310345
 40
0.0517241379310345
 40
0.0517241379310345
 40
0.0517241379310345
 40
0.0689655172413793
 40
0.0689655172413793
 40
0.0689655172413793
 40
0.0689655172413793
 40
0.0862068965517241
 40
0.0862068965517241
 40
0.0862068965517241
 40
0.0862068965517241
 40
0.103448275862069
 40
0.103448275862069
 40
0.103448275862069
 40
0.103448275862069
 40
0.1206896551724138
 40
0.1206896551724138
 40
0.1206896551724138
 40
0.1206896551724138
 40
0.1379310344827586
 40
0.1379310344827586
 40
0.1379310344827586
 40
0.1379310344827586
 40
0.1551724137931035
 40
0.1551724137931035
 40
0.1551724137931035
 40
0.1551724137931035
 40
0.1724137931034483
 40
0.1724137931034483
 40
0.1724137931034483
 40
0.1724137931034483
 40
0.1896551724137931
 40
0.1896551724137931
 40
0.1896551724137931
 40
0.1896551724137931
 40
0.206896551724138
 40
0.206896551724138
 40
0.206896551724138
 40
0.206896551724138
 40
0.2241379310344828
 40
0.2241379310344828
 40
0.2241379310344828
 40
0.2241379310344828
 40
0.2413793103448277
 40
0.2413793103448277
 40
0.2413793103448277
 40
0.2413793103448277
 40
0.2586206896551725
 40
0.2586206896551725
 40
0.2586206896551725
 40
0.2586206896551725
 40
0.2758620689655173
 40
0.2758620689655173
 40
0.2758620689655173
 40
0.2758620689655173
 40
0.2931034482758621
 40
0.2931034482758621
 40
0.2931034482758621
 40
0.2931034482758621
 40
0.3103448275862069
 40
0.3103448275862069
 40
0.3103448275862069
 40
0.3103448275862069
 40
0.3275862068965517
 40
0.3275862068965517
 40
0.3275862068965517
 40
0.3275862068965517
 40
0.3448275862068965
 40
0.3448275862068965
 40
0.3448275862068965
 40
0.3448275862068965
 40
0.3620689655172413
 40
0.3620689655172413
 40
0.3620689655172413
 40
0.3620689655172413
 40
0.3793103448275861
 40
0.3793103448275861
 40
0.3793103448275861
 40
0.3793103448275861
 40
0.3965517241379309
 40
0.3965517241379309
 40
0.3965517241379309
 40
0.3965517241379309
 40
0.4137931034482757
 40
0.4137931034482757
 40
0.4137931034482757
 40
0.4137931034482757
 40
0.4310344827586206
 40
0.4310344827586206
 40
0.4310344827586206
 40
0.4310344827586206
 40
0.4482758620689654
 40
0.4482758620689654
 40
0.4482758620689654
 40
0.4482758620689654
 40
0.4655172413793102
 40
0.4655172413793102
 40
0.4655172413793102
 40
0.4655172413793102
 40
0.482758620689655
 40
0.482758620689655
 40
0.482758620689655
 40
0.482758620689655
 40
0.4999999999999998
 40
0.4999999999999998
 40
0.4999999999999998
 40
0.4999999999999998
 40
0.5172413793103446
 40
0.5172413793103446
 40
0.5172413793103446
 40
0.5172413793103446
 40
0.5344827586206895
 40
0.5344827586206895
 40
0.5344827586206895
 40
0.5344827586206895
 40
0.5517241379310344
 40
0.5517241379310344
 40
0.5517241379310344
 40
0.5517241379310344
 40
0.5689655172413792
 40
0.5689655172413792
 40
0.5689655172413792
 40
0.5689655172413792
 40
0.5862068965517241
 40
0.5862068965517241
 40
0.5862068965517241
 40
0.5862068965517241
 40
0.603448275862069
 40
0.603448275862069
 40
0.603448275862069
 40
0.603448275862069
 40
0.6206896551724138
 40
0.6206896551724138
 40
0.6206896551724138
 40
0.6206896551724138
 40
0.6379310344827587
 40
0.6379310344827587
 40
0.6379310344827587
 40
0.6379310344827587
 40
0.6551724137931035
 40
0.6551724137931035
 40
0.6551724137931035
 40
0.6551724137931035
 40
0.6724137931034484
 40
0.6724137931034484
 40
0.6724137931034484
 40
0.6724137931034484
 40
0.6896551724137933
 40
0.6896551724137933
 40
0.6896551724137933
 40
0.6896551724137933
 40
0.7068965517241381
 40
0.7068965517241381
 40
0.7068965517241381
 40
0.7068965517241381
 40
0.724137931034483
 40
0.724137931034483
 40
0.724137931034483
 40
0.724137931034483
 40
0.7413793103448278
 40
0.7413793103448278
 40
0.7413793103448278
 40
0.7413793103448278
 40
0.7586206896551727
 40
0.7586206896551727
 40
0.7586206896551727
 40
0.7586206896551727
 40
0.7758620689655176
 40
0.7758620689655176
 40
0.7758620689655176
 40
0.7758620689655176
 40
0.7931034482758624
 40
0.7931034482758624
 40
0.7931034482758624
 40
0.7931034482758624
 40
0.8103448275862073
 40
0.8103448275862073
 40
0.8103448275862073
 40
0.8103448275862073
 40
0.8275862068965522
 40
0.8275862068965522
 40
0.8275862068965522
 40
0.8275862068965522
 40
0.844827586206897
 40
0.844827586206897
 40
0.844827586206897
 40
0.844827586206897
 40
0.8620689655172419
 40
0.8620689655172419
 40
0.8620689655172419
 40
0.8620689655172419
 40
0.8793103448275867
 40
0.8793103448275867
 40
0.8793103448275867
 40
0.8793103448275867
 40
0.8965517241379316
 40
0.8965517241379316
 40
0.8965517241379316
 40
0.8965517241379316
 40
0.9137931034482765
 40
0.9137931034482765
 40
0.9137931034482765
 40
0.9137931034482765
 40
0.9310344827586213
 40
0.9310344827586213
 40
0.9310344827586213
 40
0.9310344827586213
 40
0.9482758620689662
 40
0.9482758620689662
 40
0.9482758620689662
 40
0.9482758620689662
 40
0.965517241379311
 40
0.965517241379311
 40
0.965517241379311
 40
0.965517241379311
 40
0.9827586206896559
 40
0.9827586206896559
 40
0.9827586206896559
 40
0.9827586206896559
 40
1.0
 40
1.0
 40
1.0
 40
1.0
 10
-10.70869
 20
-14.20031
 30
0.0
 10
-10.70862
 20
-14.18648
 30
0.0
 10
-10.70637
 20
-14.17399
 30
0.0
 10
-10.70185
 20
-14.1627
 30
0.0
 10
-10.70185
 20
-14.1627
 30
0.0
 10
-10.69741
 20
-14.15148
 30
0.0
 10
-10.69113
 20
-14.14182
 30
0.0
 10
-10.68301
 20
-14.1337
 30
0.0
 10
-10.68301
 20
-14.1337
 30
0.0
 10
-10.67497
 20
-14.12566
 30
0.0
 10
-10.66544
 20
-14.11945
 30
0.0
 10
-10.65458
 20
-14.11508
 30
0.0
 10
-10.65458
 20
-14.11508
 30
0.0
 10
-10.64371
 20
-14.1107
 30
0.0
 10
-10.63179
 20
-14.10852
 30
0.0
 10
-10.61895
 20
-14.10844
 30
0.0
 10
-10.61895
 20
-14.10844
 30
0.0
 10
-10.60604
 20
-14.10837
 30
0.0
 10
-10.59397
 20
-14.11
 30
0.0
 10
-10.58275
 20
-14.11324
 30
0.0
 10
-10.58275
 20
-14.11324
 30
0.0
 10
-10.57153
 20
-14.11642
 30
0.0
 10
-10.56173
 20
-14.12164
 30
0.0
 10
-10.55319
 20
-14.12884
 30
0.0
 10
-10.55319
 20
-14.12884
 30
0.0
 10
-10.54465
 20
-14.13596
 30
0.0
 10
-10.53795
 20
-14.14542
 30
0.0
 10
-10.53315
 20
-14.1572
 30
0.0
 10
-10.53315
 20
-14.1572
 30
0.0
 10
-10.52836
 20
-14.16898
 30
0.0
 10
-10.52589
 20
-14.1833
 30
0.0
 10
-10.52582
 20
-14.20031
 30
0.0
 10
-10.52582
 20
-14.20031
 30
0.0
 10
-10.52589
 20
-14.21731
 30
0.0
 10
-10.52836
 20
-14.23163
 30
0.0
 10
-10.53315
 20
-14.24342
 30
0.0
 10
-10.53315
 20
-14.24342
 30
0.0
 10
-10.53795
 20
-14.2552
 30
0.0
 10
-10.54465
 20
-14.26465
 30
0.0
 10
-10.55319
 20
-14.27178
 30
0.0
 10
-10.55319
 20
-14.27178
 30
0.0
 10
-10.56173
 20
-14.27898
 30
0.0
 10
-10.57153
 20
-14.2842
 30
0.0
 10
-10.58275
 20
-14.28737
 30
0.0
 10
-10.58275
 20
-14.28737
 30
0.0
 10
-10.59397
 20
-14.29062
 30
0.0
 10
-10.60604
 20
-14.29224
 30
0.0
 10
-10.61895
 20
-14.29217
 30
0.0
 10
-10.61895
 20
-14.29217
 30
0.0
 10
-10.63179
 20
-14.2921
 30
0.0
 10
-10.64357
 20
-14.28991
 30
0.0
 10
-10.65437
 20
-14.28554
 30
0.0
 10
-10.65437
 20
-14.28554
 30
0.0
 10
-10.66509
 20
-14.28116
 30
0.0
 10
-10.6744
 20
-14.27495
 30
0.0
 10
-10.68238
 20
-14.26684
 30
0.0
 10
-10.68238
 20
-14.26684
 30
0.0
 10
-10.69035
 20
-14.2588
 30
0.0
 10
-10.69663
 20
-14.24913
 30
0.0
 10
-10.70114
 20
-14.23784
 30
0.0
 10
-10.70114
 20
-14.23784
 30
0.0
 10
-10.70573
 20
-14.22662
 30
0.0
 10
-10.7082
 20
-14.21414
 30
0.0
 10
-10.70869
 20
-14.20031
 30
0.0
 10
-10.70869
 20
-14.20031
 30
0.0
 10
-10.70898
 20
-14.19332
 30
0.0
 10
-10.70933
 20
-14.185
 30
0.0
 10
-10.70982
 20
-14.17533
 30
0.0
 10
-10.70982
 20
-14.17533
 30
0.0
 10
-10.71032
 20
-14.16559
 30
0.0
 10
-10.7106
 20
-14.15501
 30
0.0
 10
-10.71067
 20
-14.14365
 30
0.0
 10
-10.71067
 20
-14.14365
 30
0.0
 10
-10.71074
 20
-14.13222
 30
0.0
 10
-10.71039
 20
-14.12044
 30
0.0
 10
-10.70947
 20
-14.10837
 30
0.0
 10
-10.70947
 20
-14.10837
 30
0.0
 10
-10.70862
 20
-14.09624
 30
0.0
 10
-10.70693
 20
-14.08431
 30
0.0
 10
-10.70446
 20
-14.07253
 30
0.0
 10
-10.70446
 20
-14.07253
 30
0.0
 10
-10.70199
 20
-14.06082
 30
0.0
 10
-10.69846
 20
-14.04974
 30
0.0
 10
-10.69381
 20
-14.03937
 30
0.0
 10
-10.69381
 20
-14.03937
 30
0.0
 10
-10.68915
 20
-14.029
 30
0.0
 10
-10.68315
 20
-14.01983
 30
0.0
 10
-10.67574
 20
-14.01185
 30
0.0
 10
-10.67574
 20
-14.01185
 30
0.0
 10
-10.66827
 20
-14.00388
 30
0.0
 10
-10.65916
 20
-13.9976
 30
0.0
 10
-10.64837
 20
-13.99302
 30
0.0
 10
-10.64837
 20
-13.99302
 30
0.0
 10
-10.63757
 20
-13.9885
 30
0.0
 10
-10.6248
 20
-13.98617
 30
0.0
 10
-10.61006
 20
-13.9861
 30
0.0
 10
-10.61006
 20
-13.9861
 30
0.0
 10
-10.59722
 20
-13.98617
 30
0.0
 10
-10.58635
 20
-13.98744
 30
0.0
 10
-10.57732
 20
-13.98991
 30
0.0
 10
-10.57732
 20
-13.98991
 30
0.0
 10
-10.56829
 20
-13.99238
 30
0.0
 10
-10.56088
 20
-13.9957
 30
0.0
 10
-10.55495
 20
-13.99979
 30
0.0
 10
-10.55495
 20
-13.99979
 30
0.0
 10
-10.5491
 20
-14.00395
 30
0.0
 10
-10.54444
 20
-14.00847
 30
0.0
 10
-10.54106
 20
-14.01348
 30
0.0
 10
-10.54106
 20
-14.01348
 30
0.0
 10
-10.53767
 20
-14.01842
 30
0.0
 10
-10.53513
 20
-14.02343
 30
0.0
 10
-10.53358
 20
-14.02844
 30
0.0
 10
-10.53358
 20
-14.02844
 30
0.0
 10
-10.53195
 20
-14.03344
 30
0.0
 10
-10.5309
 20
-14.0381
 30
0.0
 10
-10.53047
 20
-14.04241
 30
0.0
 10
-10.53047
 20
-14.04241
 30
0.0
 10
-10.5309
 20
-14.0381
 30
0.0
 10
-10.53195
 20
-14.03344
 30
0.0
 10
-10.53358
 20
-14.02844
 30
0.0
 10
-10.53358
 20
-14.02844
 30
0.0
 10
-10.53513
 20
-14.02343
 30
0.0
 10
-10.53767
 20
-14.01842
 30
0.0
 10
-10.54106
 20
-14.01348
 30
0.0
 10
-10.54106
 20
-14.01348
 30
0.0
 10
-10.54444
 20
-14.00847
 30
0.0
 10
-10.5491
 20
-14.00395
 30
0.0
 10
-10.55495
 20
-13.99979
 30
0.0
 10
-10.55495
 20
-13.99979
 30
0.0
 10
-10.56088
 20
-13.9957
 30
0.0
 10
-10.56829
 20
-13.99238
 30
0.0
 10
-10.57732
 20
-13.98991
 30
0.0
 10
-10.57732
 20
-13.98991
 30
0.0
 10
-10.58635
 20
-13.98744
 30
0.0
 10
-10.59722
 20
-13.98617
 30
0.0
 10
-10.61006
 20
-13.9861
 30
0.0
 10
-10.61006
 20
-13.9861
 30
0.0
 10
-10.6248
 20
-13.98617
 30
0.0
 10
-10.63757
 20
-13.9885
 30
0.0
 10
-10.64837
 20
-13.99302
 30
0.0
 10
-10.64837
 20
-13.99302
 30
0.0
 10
-10.65916
 20
-13.9976
 30
0.0
 10
-10.66827
 20
-14.00388
 30
0.0
 10
-10.67574
 20
-14.01185
 30
0.0
 10
-10.67574
 20
-14.01185
 30
0.0
 10
-10.68315
 20
-14.01983
 30
0.0
 10
-10.68915
 20
-14.029
 30
0.0
 10
-10.69381
 20
-14.03937
 30
0.0
 10
-10.69381
 20
-14.03937
 30
0.0
 10
-10.69846
 20
-14.04974
 30
0.0
 10
-10.70199
 20
-14.06082
 30
0.0
 10
-10.70446
 20
-14.07253
 30
0.0
 10
-10.70446
 20
-14.07253
 30
0.0
 10
-10.70693
 20
-14.08431
 30
0.0
 10
-10.70862
 20
-14.09624
 30
0.0
 10
-10.70947
 20
-14.10837
 30
0.0
 10
-10.70947
 20
-14.10837
 30
0.0
 10
-10.71039
 20
-14.12044
 30
0.0
 10
-10.71074
 20
-14.13222
 30
0.0
 10
-10.71067
 20
-14.14365
 30
0.0
 10
-10.71067
 20
-14.14365
 30
0.0
 10
-10.7106
 20
-14.15501
 30
0.0
 10
-10.71032
 20
-14.16559
 30
0.0
 10
-10.70982
 20
-14.17533
 30
0.0
 10
-10.70982
 20
-14.17533
 30
0.0
 10
-10.70933
 20
-14.185
 30
0.0
 10
-10.70898
 20
-14.19332
 30
0.0
 10
-10.70869
 20
-14.20031
 30
0.0
 10
-10.70869
 20
-14.20031
 30
0.0
 10
-10.7082
 20
-14.21414
 30
0.0
 10
-10.70573
 20
-14.22662
 30
0.0
 10
-10.70114
 20
-14.23784
 30
0.0
 10
-10.70114
 20
-14.23784
 30
0.0
 10
-10.69663
 20
-14.24913
 30
0.0
 10
-10.69035
 20
-14.2588
 30
0.0
 10
-10.68238
 20
-14.26684
 30
0.0
 10
-10.68238
 20
-14.26684
 30
0.0
 10
-10.6744
 20
-14.27495
 30
0.0
 10
-10.66509
 20
-14.28116
 30
0.0
 10
-10.65437
 20
-14.28554
 30
0.0
 10
-10.65437
 20
-14.28554
 30
0.0
 10
-10.64357
 20
-14.28991
 30
0.0
 10
-10.63179
 20
-14.2921
 30
0.0
 10
-10.61895
 20
-14.29217
 30
0.0
 10
-10.61895
 20
-14.29217
 30
0.0
 10
-10.60604
 20
-14.29224
 30
0.0
 10
-10.59397
 20
-14.29062
 30
0.0
 10
-10.58275
 20
-14.28737
 30
0.0
 10
-10.58275
 20
-14.28737
 30
0.0
 10
-10.57153
 20
-14.2842
 30
0.0
 10
-10.56173
 20
-14.27898
 30
0.0
 10
-10.55319
 20
-14.27178
 30
0.0
 10
-10.55319
 20
-14.27178
 30
0.0
 10
-10.54465
 20
-14.26465
 30
0.0
 10
-10.53795
 20
-14.2552
 30
0.0
 10
-10.53315
 20
-14.24342
 30
0.0
 10
-10.53315
 20
-14.24342
 30
0.0
 10
-10.52836
 20
-14.23163
 30
0.0
 10
-10.52589
 20
-14.21731
 30
0.0
 10
-10.52582
 20
-14.20031
 30
0.0
 10
-10.52582
 20
-14.20031
 30
0.0
 10
-10.52589
 20
-14.1833
 30
0.0
 10
-10.52836
 20
-14.16898
 30
0.0
 10
-10.53315
 20
-14.1572
 30
0.0
 10
-10.53315
 20
-14.1572
 30
0.0
 10
-10.53795
 20
-14.14542
 30
0.0
 10
-10.54465
 20
-14.13596
 30
0.0
 10
-10.55319
 20
-14.12884
 30
0.0
 10
-10.55319
 20
-14.12884
 30
0.0
 10
-10.56173
 20
-14.12164
 30
0.0
 10
-10.57153
 20
-14.11642
 30
0.0
 10
-10.58275
 20
-14.11324
 30
0.0
 10
-10.58275
 20
-14.11324
 30
0.0
 10
-10.59397
 20
-14.11
 30
0.0
 10
-10.60604
 20
-14.10837
 30
0.0
 10
-10.61895
 20
-14.10844
 30
0.0
 10
-10.61895
 20
-14.10844
 30
0.0
 10
-10.63179
 20
-14.10852
 30
0.0
 10
-10.64371
 20
-14.1107
 30
0.0
 10
-10.65458
 20
-14.11508
 30
0.0
 10
-10.65458
 20
-14.11508
 30
0.0
 10
-10.66544
 20
-14.11945
 30
0.0
 10
-10.67497
 20
-14.12566
 30
0.0
 10
-10.68301
 20
-14.1337
 30
0.0
 10
-10.68301
 20
-14.1337
 30
0.0
 10
-10.69113
 20
-14.14182
 30
0.0
 10
-10.69741
 20
-14.15148
 30
0.0
 10
-10.70185
 20
-14.1627
 30
0.0
 10
-10.70185
 20
-14.1627
 30
0.0
 10
-10.70637
 20
-14.17399
 30
0.0
 10
-10.70862
 20
-14.18648
 30
0.0
 10
-10.70869
 20
-14.20031
 30
0.0
  0
SPLINE
  5
68
330
1F
100
AcDbEntity
  8
Layer 1
 62
     5
370
    53
100
AcDbSpline
210
0.0
220
0.0
230
1.0
 70
    11
 71
     3
 72
    28
 73
    24
 74
     0
 42
0.0000000001
 43
0.0000000001
 40
0.0
 40
0.0
 40
0.0
 40
0.0
 40
0.1666666666666667
 40
0.1666666666666667
 40
0.1666666666666667
 40
0.1666666666666667
 40
0.3333333333333333
 40
0.3333333333333333
 40
0.3333333333333333
 40
0.3333333333333333
 40
0.5
 40
0.5
 40
0.5
 40
0.5
 40
0.6666666666666666
 40
0.6666666666666666
 40
0.6666666666666666
 40
0.6666666666666666
 40
0.8333333333333333
 40
0.8333333333333333
 40
0.8333333333333333
 40
0.8333333333333333
 40
1.0
 40
1.0
 40
1.0
 40
1.0
 10
-10.28071
 20
-14.29217
 30
0.0
 10
-10.28071
 20
-14.29217
 30
0.0
 10
-10.28071
 20
-13.98695
 30
0.0
 10
-10.28071
 20
-13.98695
 30
0.0
 10
-10.28071
 20
-13.98695
 30
0.0
 10
-10.28071
 20
-13.98695
 30
0.0
 10
-10.42464
 20
-14.21089
 30
0.0
 10
-10.42464
 20
-14.21089
 30
0.0
 10
-10.42464
 20
-14.21089
 30
0.0
 10
-10.42464
 20
-14.21089
 30
0.0
 10
-10.22652
 20
-14.21089
 30
0.0
 10
-10.22652
 20
-14.21089
 30
0.0
 10
-10.22652
 20
-14.21089
 30
0.0
 10
-10.22652
 20
-14.21089
 30
0.0
 10
-10.42464
 20
-14.21089
 30
0.0
 10
-10.42464
 20
-14.21089
 30
0.0
 10
-10.42464
 20
-14.21089
 30
0.0
 10
-10.42464
 20
-14.21089
 30
0.0
 10
-10.28071
 20
-13.98695
 30
0.0
 10
-10.28071
 20
-13.98695
 30
0.0
 10
-10.28071
 20
-13.98695
 30
0.0
 10
-10.28071
 20
-13.98695
 30
0.0
 10
-10.28071
 20
-14.29217
 30
0.0
 10
-10.28071
 20
-14.29217
 30
0.0
  0
SPLINE
  5
69
330
1F
100
AcDbEntity
  8
Layer 1
370
    53
100
AcDbSpline
210
0.0
220
0.0
230
1.0
 70
    11
 71
     3
 72
    92
 73
    88
 74
     0
 42
0.0000000001
 43
0.0000000001
 40
0.0
 40
0.0
 40
0.0
 40
0.0
 40
0.0454545454545455
 40
0.0454545454545455
 40
0.0454545454545455
 40
0.0454545454545455
 40
0.0909090909090909
 40
0.0909090909090909
 40
0.0909090909090909
 40
0.0909090909090909
 40
0.1363636363636364
 40
0.1363636363636364
 40
0.1363636363636364
 40
0.1363636363636364
 40
0.1818181818181818
 40
0.1818181818181818
 40
0.1818181818181818
 40
0.1818181818181818
 40
0.2272727272727273
 40
0.2272727272727273
 40
0.2272727272727273
 40
0.2272727272727273
 40
0.2727272727272728
 40
0.2727272727272728
 40
0.2727272727272728
 40
0.2727272727272728
 40
0.3181818181818182
 40
0.3181818181818182
 40
0.3181818181818182
 40
0.3181818181818182
 40
0.3636363636363637
 40
0.3636363636363637
 40
0.3636363636363637
 40
0.3636363636363637
 40
0.4090909090909092
 40
0.4090909090909092
 40
0.4090909090909092
 40
0.4090909090909092
 40
0.4545454545454546
 40
0.4545454545454546
 40
0.4545454545454546
 40
0.4545454545454546
 40
0.5000000000000001
 40
0.5000000000000001
 40
0.5000000000000001
 40
0.5000000000000001
 40
0.5454545454545455
 40
0.5454545454545455
 40
0.5454545454545455
 40
0.5454545454545455
 40
0.5909090909090909
 40
0.5909090909090909
 40
0.5909090909090909
 40
0.5909090909090909
 40
0.6363636363636364
 40
0.6363636363636364
 40
0.6363636363636364
 40
0.6363636363636364
 40
0.6818181818181818
 40
0.6818181818181818
 40
0.6818181818181818
 40
0.6818181818181818
 40
0.7272727272727272
 40
0.7272727272727272
 40
0.7272727272727272
 40
0.7272727272727272
 40
0.7727272727272726
 40
0.7727272727272726
 40
0.7727272727272726
 40
0.7727272727272726
 40
0.818181818181818
 40
0.818181818181818
 40
0.818181818181818
 40
0.818181818181818
 40
0.8636363636363634
 40
0.8636363636363634
 40
0.8636363636363634
 40
0.8636363636363634
 40
0.9090909090909088
 40
0.9090909090909088
 40
0.9090909090909088
 40
0.9090909090909088
 40
0.9545454545454543
 40
0.9545454545454543
 40
0.9545454545454543
 40
0.9545454545454543
 40
1.0
 40
1.0
 40
1.0
 40
1.0
 10
-10.8
 20
-14.69994
 30
0.0
 10
-10.8
 20
-14.69994
 30
0.0
 10
-10.7598
 20
-14.69994
 30
0.0
 10
-10.7598
 20
-14.69994
 30
0.0
 10
-10.7598
 20
-14.69994
 30
0.0
 10
-10.73347
 20
-14.65442
 30
0.0
 10
-10.69551
 20
-14.61649
 30
0.0
 10
-10.65
 20
-14.59016
 30
0.0
 10
-10.65
 20
-14.59016
 30
0.0
 10
-10.65
 20
-14.59016
 30
0.0
 10
-10.65
 20
-14.54994
 30
0.0
 10
-10.65
 20
-14.54994
 30
0.0
 10
-10.65
 20
-14.54994
 30
0.0
 10
-10.65
 20
-14.54994
 30
0.0
 10
-10.35
 20
-14.54994
 30
0.0
 10
-10.35
 20
-14.54994
 30
0.0
 10
-10.35
 20
-14.54994
 30
0.0
 10
-10.35
 20
-14.54994
 30
0.0
 10
-10.35
 20
-14.59013
 30
0.0
 10
-10.35
 20
-14.59013
 30
0.0
 10
-10.35
 20
-14.59013
 30
0.0
 10
-10.30447
 20
-14.61646
 30
0.0
 10
-10.26648
 20
-14.65441
 30
0.0
 10
-10.24012
 20
-14.69994
 30
0.0
 10
-10.24012
 20
-14.69994
 30
0.0
 10
-10.24012
 20
-14.69994
 30
0.0
 10
-10.2
 20
-14.69994
 30
0.0
 10
-10.2
 20
-14.69994
 30
0.0
 10
-10.2
 20
-14.69994
 30
0.0
 10
-10.2
 20
-14.69994
 30
0.0
 10
-10.2
 20
-14.84536
 30
0.0
 10
-10.2
 20
-14.84536
 30
0.0
 10
-10.2
 20
-14.84536
 30
0.0
 10
-10.2
 20
-14.84536
 30
0.0
 10
-10.19994
 20
-14.85001
 30
0.0
 10
-10.19994
 20
-14.85001
 30
0.0
 10
-10.19994
 20
-14.85001
 30
0.0
 10
-10.19994
 20
-14.85001
 30
0.0
 10
-10.2
 20
-14.85465
 30
0.0
 10
-10.2
 20
-14.85465
 30
0.0
 10
-10.2
 20
-14.85465
 30
0.0
 10
-10.2
 20
-14.85465
 30
0.0
 10
-10.2
 20
-14.99994
 30
0.0
 10
-10.2
 20
-14.99994
 30
0.0
 10
-10.2
 20
-14.99994
 30
0.0
 10
-10.2
 20
-14.99994
 30
0.0
 10
-10.24007
 20
-14.99994
 30
0.0
 10
-10.24007
 20
-14.99994
 30
0.0
 10
-10.24007
 20
-14.99994
 30
0.0
 10
-10.26642
 20
-15.04551
 30
0.0
 10
-10.30442
 20
-15.08352
 30
0.0
 10
-10.35
 20
-15.10988
 30
0.0
 10
-10.35
 20
-15.10988
 30
0.0
 10
-10.35
 20
-15.10988
 30
0.0
 10
-10.35
 20
-15.14994
 30
0.0
 10
-10.35
 20
-15.14994
 30
0.0
 10
-10.35
 20
-15.14994
 30
0.0
 10
-10.35
 20
-15.14994
 30
0.0
 10
-10.49328
 20
-15.14994
 30
0.0
 10
-10.49328
 20
-15.14994
 30
0.0
 10
-10.49328
 20
-15.14994
 30
0.0
 10
-10.49328
 20
-15.14994
 30
0.0
 10
-10.49995
 20
-15.15002
 30
0.0
 10
-10.49995
 20
-15.15002
 30
0.0
 10
-10.49995
 20
-15.15002
 30
0.0
 10
-10.49995
 20
-15.15002
 30
0.0
 10
-10.50663
 20
-15.14994
 30
0.0
 10
-10.50663
 20
-15.14994
 30
0.0
 10
-10.50663
 20
-15.14994
 30
0.0
 10
-10.50663
 20
-15.14994
 30
0.0
 10
-10.65
 20
-15.14994
 30
0.0
 10
-10.65
 20
-15.14994
 30
0.0
 10
-10.65
 20
-15.14994
 30
0.0
 10
-10.65
 20
-15.14994
 30
0.0
 10
-10.65
 20
-15.10984
 30
0.0
 10
-10.65
 20
-15.10984
 30
0.0
 10
-10.65
 20
-15.10984
 30
0.0
 10
-10.69554
 20
-15.08348
 30
0.0
 10
-10.73352
 20
-15.04549
 30
0.0
 10
-10.75985
 20
-14.99994
 30
0.0
 10
-10.75985
 20
-14.99994
 30
0.0
 10
-10.75985
 20
-14.99994
 30
0.0
 10
-10.8
 20
-14.99994
 30
0.0
 10
-10.8
 20
-14.99994
 30
0.0
 10
-10.8
 20
-14.99994
 30
0.0
 10
-10.8
 20
-14.99994
 30
0.0
 10
-10.8
 20
-14.69994
 30
0.0
 10
-10.8
 20
-14.69994
 30
0.0
  0
ENDSEC
  0
SECTION
  2
OBJECTS
  0
DICTIONARY
  5
C
330
0
100
AcDbDictionary
281
     1
  3
ACAD_GROUP
350
D
  3
ACAD_LAYOUT
350
1A
  3
ACAD_MLEADERSTYLE
350
6B
  3
ACAD_MLINESTYLE
350
17
  3
ACAD_PLOTSETTINGS
350
19
  3
ACAD_PLOTSTYLENAME
350
E
  3
ACAD_SCALELIST
350
3B
  3
ACAD_TABLESTYLE
350
6A
  3
ACAD_VISUALSTYLE
350
2A
  0
DICTIONARY
  5
D
102
{ACAD_REACTORS
330
C
102
}
330
C
100
AcDbDictionary
281
     1
  0
DICTIONARY
  5
1A
102
{ACAD_REACTORS
330
C
102
}
330
C
100
AcDbDictionary
281
     1
  3
Layout1
350
1E
  3
Layout2
350
26
  3
Model
350
22
  0
DICTIONARY
  5
6B
102
{ACAD_REACTORS
330
C
102
}
330
C
100
AcDbDictionary
281
     1
  0
DICTIONARY
  5
17
102
{ACAD_REACTORS
330
C
102
}
330
C
100
AcDbDictionary
281
     1
  3
Standard
350
18
  0
DICTIONARY
  5
19
102
{ACAD_REACTORS
330
C
102
}
330
C
100
AcDbDictionary
281
     1
  0
ACDBDICTIONARYWDFLT
  5
E
102
{ACAD_REACTORS
330
C
102
}
330
C
100
AcDbDictionary
281
     1
  3
Normal
350
F
100
AcDbDictionaryWithDefault
340
F
  0
DICTIONARY
  5
3B
102
{ACAD_REACTORS
330
C
102
}
330
C
100
AcDbDictionary
281
     1
  3
A0
350
3C
  3
A1
350
3D
  3
A2
350
3E
  3
A3
350
3F
  3
A4
350
40
  3
A5
350
41
  3
A6
350
42
  3
A7
350
43
  3
A8
350
44
  3
A9
350
45
  3
B0
350
46
  3
B1
350
47
  3
B2
350
48
  3
B3
350
49
  3
B4
350
4A
  3
B5
350
4B
  3
B6
350
4C
  3
B7
350
4D
  3
B8
350
4E
  3
B9
350
4F
  3
C0
350
50
  3
C1
350
51
  3
C2
350
52
  3
C3
350
53
  3
C4
350
54
  3
C5
350
55
  3
C6
350
56
  3
C7
350
57
  3
C8
350
58
  3
C9
350
59
  3
D0
350
5A
  3
D1
350
5B
  3
D2
350
5C
  0
DICTIONARY
  5
6A
102
{ACAD_REACTORS
330
C
102
}
330
C
100
AcDbDictionary
281
     1
  0
DICTIONARY
  5
2A
102
{ACAD_REACTORS
330
C
102
}
330
C
100
AcDbDictionary
281
     1
  3
2dWireframe
350
2F
  3
3D Hidden
350
31
  3
3dWireframe
350
30
  3
Basic
350
32
  3
Brighten
350
36
  3
ColorChange
350
3A
  3
Conceptual
350
34
  3
Dim
350
35
  3
Facepattern
350
39
  3
Flat
350
2B
  3
FlatWithEdges
350
2C
  3
Gouraud
350
2D
  3
GouraudWithEdges
350
2E
  3
Linepattern
350
38
  3
Realistic
350
33
  3
Thicken
350
37
  0
LAYOUT
  5
1E
102
{ACAD_REACTORS
330
1A
102
}
330
1A
100
AcDbPlotSettings
  1

  2
none_device
  4

  6

 40
0.0
 41
0.0
 42
0.0
 43
0.0
 44
0.0
 45
0.0
 46
0.0
 47
0.0
 48
0.0
 49
0.0
140
0.0
141
0.0
142
1.0
143
1.0
 70
   688
 72
     0
 73
     0
 74
     5
  7

 75
    16
 76
     0
 77
     2
 78
   300
147
1.0
148
0.0
149
0.0
100
AcDbLayout
  1
Layout1
 70
     1
 71
     1
 10
0.0
 20
0.0
 11
12.0
 21
9.0
 12
0.0
 22
0.0
 32
0.0
 14
1.000000000000000E+20
 24
1.000000000000000E+20
 34
1.000000000000000E+20
 15
-1.000000000000000E+20
 25
-1.000000000000000E+20
 35
-1.000000000000000E+20
146
0.0
 13
0.0
 23
0.0
 33
0.0
 16
1.0
 26
0.0
 36
0.0
 17
0.0
 27
1.0
 37
0.0
 76
     0
330
1B
  0
LAYOUT
  5
26
102
{ACAD_REACTORS
330
1A
102
}
330
1A
100
AcDbPlotSettings
  1

  2
none_device
  4

  6

 40
0.0
 41
0.0
 42
0.0
 43
0.0
 44
0.0
 45
0.0
 46
0.0
 47
0.0
 48
0.0
 49
0.0
140
0.0
141
0.0
142
1.0
143
1.0
 70
   688
 72
     0
 73
     0
 74
     5
  7

 75
    16
 76
     0
 77
     2
 78
   300
147
1.0
148
0.0
149
0.0
100
AcDbLayout
  1
Layout2
 70
     1
 71
     2
 10
0.0
 20
0.0
 11
0.0
 21
0.0
 12
0.0
 22
0.0
 32
0.0
 14
0.0
 24
0.0
 34
0.0
 15
0.0
 25
0.0
 35
0.0
146
0.0
 13
0.0
 23
0.0
 33
0.0
 16
1.0
 26
0.0
 36
0.0
 17
0.0
 27
1.0
 37
0.0
 76
     0
330
23
  0
LAYOUT
  5
22
102
{ACAD_REACTORS
330
1A
102
}
330
1A
100
AcDbPlotSettings
  1

  2
none_device
  4

  6

 40
0.0
 41
0.0
 42
0.0
 43
0.0
 44
0.0
 45
0.0
 46
0.0
 47
0.0
 48
0.0
 49
0.0
140
0.0
141
0.0
142
1.0
143
1.0
 70
  1712
 72
     0
 73
     0
 74
     0
  7

 75
     0
 76
     0
 77
     2
 78
   300
147
1.0
148
0.0
149
0.0
100
AcDbLayout
  1
Model
 70
     1
 71
     0
 10
0.0
 20
0.0
 11
12.0
 21
9.0
 12
0.0
 22
0.0
 32
0.0
 14
-12.5383
 24
-16.8883
 34
0.0
 15
-8.4617
 25
-12.8117
 35
0.0
146
0.0
 13
0.0
 23
0.0
 33
0.0
 16
1.0
 26
0.0
 36
0.0
 17
0.0
 27
1.0
 37
0.0
 76
     0
330
1F
331
29
  0
MLINESTYLE
  5
18
102
{ACAD_REACTORS
330
17
102
}
330
17
100
AcDbMlineStyle
  2
Standard
 70
     0
  3

 62
   256
 51
90.0
 52
90.0
 71
     2
 49
0.5
 62
   256
  6
BYLAYER
 49
-0.5
 62
   256
  6
BYLAYER
  0
ACDBPLACEHOLDER
  5
F
102
{ACAD_REACTORS
330
E
102
}
330
E
  0
SCALE
  5
3C
102
{ACAD_REACTORS
330
3B
102
}
330
3B
100
AcDbScale
 70
     0
300
1:1
140
1.0
141
1.0
290
     1
  0
SCALE
  5
3D
102
{ACAD_REACTORS
330
3B
102
}
330
3B
100
AcDbScale
 70
     0
300
1:2
140
1.0
141
2.0
290
     0
  0
SCALE
  5
3E
102
{ACAD_REACTORS
330
3B
102
}
330
3B
100
AcDbScale
 70
     0
300
1:4
140
1.0
141
4.0
290
     0
  0
SCALE
  5
3F
102
{ACAD_REACTORS
330
3B
102
}
330
3B
100
AcDbScale
 70
     0
300
1:5
140
1.0
141
5.0
290
     0
  0
SCALE
  5
40
102
{ACAD_REACTORS
330
3B
102
}
330
3B
100
AcDbScale
 70
     0
300
1:8
140
1.0
141
8.0
290
     0
  0
SCALE
  5
41
102
{ACAD_REACTORS
330
3B
102
}
330
3B
100
AcDbScale
 70
     0
300
1:10
140
1.0
141
10.0
290
     0
  0
SCALE
  5
42
102
{ACAD_REACTORS
330
3B
102
}
330
3B
100
AcDbScale
 70
     0
300
1:16
140
1.0
141
16.0
290
     0
  0
SCALE
  5
43
102
{ACAD_REACTORS
330
3B
102
}
330
3B
100
AcDbScale
 70
     0
300
1:20
140
1.0
141
20.0
290
     0
  0
SCALE
  5
44
102
{ACAD_REACTORS
330
3B
102
}
330
3B
100
AcDbScale
 70
     0
300
1:30
140
1.0
141
30.0
290
     0
  0
SCALE
  5
45
102
{ACAD_REACTORS
330
3B
102
}
330
3B
100
AcDbScale
 70
     0
300
1:40
140
1.0
141
40.0
290
     0
  0
SCALE
  5
46
102
{ACAD_REACTORS
330
3B
102
}
330
3B
100
AcDbScale
 70
     0
300
1:50
140
1.0
141
50.0
290
     0
  0
SCALE
  5
47
102
{ACAD_REACTORS
330
3B
102
}
330
3B
100
AcDbScale
 70
     0
300
1:100
140
1.0
141
100.0
290
     0
  0
SCALE
  5
48
102
{ACAD_REACTORS
330
3B
102
}
330
3B
100
AcDbScale
 70
     0
300
2:1
140
2.0
141
1.0
290
     0
  0
SCALE
  5
49
102
{ACAD_REACTORS
330
3B
102
}
330
3B
100
AcDbScale
 70
     0
300
4:1
140
4.0
141
1.0
290
     0
  0
SCALE
  5
4A
102
{ACAD_REACTORS
330
3B
102
}
330
3B
100
AcDbScale
 70
     0
300
8:1
140
8.0
141
1.0
290
     0
  0
SCALE
  5
4B
102
{ACAD_REACTORS
330
3B
102
}
330
3B
100
AcDbScale
 70
     0
300
10:1
140
10.0
141
1.0
290
     0
  0
SCALE
  5
4C
102
{ACAD_REACTORS
330
3B
102
}
330
3B
100
AcDbScale
 70
     0
300
100:1
140
100.0
141
1.0
290
     0
  0
SCALE
  5
4D
102
{ACAD_REACTORS
330
3B
102
}
330
3B
100
AcDbScale
 70
     0
300
1/128" = 1'-0"
140
0.0078125
141
12.0
290
     0
  0
SCALE
  5
4E
102
{ACAD_REACTORS
330
3B
102
}
330
3B
100
AcDbScale
 70
     0
300
1/64" = 1'-0"
140
0.015625
141
12.0
290
     0
  0
SCALE
  5
4F
102
{ACAD_REACTORS
330
3B
102
}
330
3B
100
AcDbScale
 70
     0
300
1/32" = 1'-0"
140
0.03125
141
12.0
290
     0
  0
SCALE
  5
50
102
{ACAD_REACTORS
330
3B
102
}
330
3B
100
AcDbScale
 70
     0
300
1/16" = 1'-0"
140
0.0625
141
12.0
290
     0
  0
SCALE
  5
51
102
{ACAD_REACTORS
330
3B
102
}
330
3B
100
AcDbScale
 70
     0
300
3/32" = 1'-0"
140
0.09375
141
12.0
290
     0
  0
SCALE
  5
52
102
{ACAD_REACTORS
330
3B
102
}
330
3B
100
AcDbScale
 70
     0
300
1/8" = 1'-0"
140
0.125
141
12.0
290
     0
  0
SCALE
  5
53
102
{ACAD_REACTORS
330
3B
102
}
330
3B
100
AcDbScale
 70
     0
300
3/16" = 1'-0"
140
0.1875
141
12.0
290
     0
  0
SCALE
  5
54
102
{ACAD_REACTORS
330
3B
102
}
330
3B
100
AcDbScale
 70
     0
300
1/4" = 1'-0"
140
0.25
141
12.0
290
     0
  0
SCALE
  5
55
102
{ACAD_REACTORS
330
3B
102
}
330
3B
100
AcDbScale
 70
     0
300
3/8" = 1'-0"
140
0.375
141
12.0
290
     0
  0
SCALE
  5
56
102
{ACAD_REACTORS
330
3B
102
}
330
3B
100
AcDbScale
 70
     0
300
1/2" = 1'-0"
140
0.5
141
12.0
290
     0
  0
SCALE
  5
57
102
{ACAD_REACTORS
330
3B
102
}
330
3B
100
AcDbScale
 70
     0
300
3/4" = 1'-0"
140
0.75
141
12.0
290
     0
  0
SCALE
  5
58
102
{ACAD_REACTORS
330
3B
102
}
330
3B
100
AcDbScale
 70
     0
300
1" = 1'-0"
140
1.0
141
12.0
290
     0
  0
SCALE
  5
59
102
{ACAD_REACTORS
330
3B
102
}
330
3B
100
AcDbScale
 70
     0
300
1-1/2" = 1'-0"
140
1.5
141
12.0
290
     0
  0
SCALE
  5
5A
102
{ACAD_REACTORS
330
3B
102
}
330
3B
100
AcDbScale
 70
     0
300
3" = 1'-0"
140
3.0
141
12.0
290
     0
  0
SCALE
  5
5B
102
{ACAD_REACTORS
330
3B
102
}
330
3B
100
AcDbScale
 70
     0
300
6" = 1'-0"
140
6.0
141
12.0
290
     0
  0
SCALE
  5
5C
102
{ACAD_REACTORS
330
3B
102
}
330
3B
100
AcDbScale
 70
     0
300
1'-0" = 1'-0"
140
12.0
141
12.0
290
     0
  0
VISUALSTYLE
  5
2F
102
{ACAD_REACTORS
330
2A
102
}
330
2A
100
AcDbVisualStyle
  2
2dWireframe
 70
     4
 71
     0
 72
     2
 73
     0
 90
        0
 40
-0.6
 41
-30.0
 62
     5
 63
     7
421
 16777215
 74
     1
 91
        4
 64
     7
 65
   257
 75
     1
175
     1
 42
1.0
 92
        0
 66
   257
 43
1.0
 76
     1
 77
     6
 78
     2
 67
     7
 79
     5
170
     0
171
     0
290
     0
174
     0
 93
        1
 44
0.0
173
     0
291
     0
 45
0.0
  0
VISUALSTYLE
  5
31
102
{ACAD_REACTORS
330
2A
102
}
330
2A
100
AcDbVisualStyle
  2
3D Hidden
 70
     6
 71
     1
 72
     2
 73
     2
 90
        0
 40
-0.6
 41
-30.0
 62
     5
 63
     7
421
 16777215
 74
     2
 91
        2
 64
     7
 65
   257
 75
     2
175
     1
 42
40.0
 92
        0
 66
   257
 43
1.0
 76
     1
 77
     6
 78
     2
 67
     7
 79
     3
170
     0
171
     0
290
     0
174
     0
 93
        1
 44
0.0
173
     0
291
     0
 45
0.0
  0
VISUALSTYLE
  5
30
102
{ACAD_REACTORS
330
2A
102
}
330
2A
100
AcDbVisualStyle
  2
3dWireframe
 70
     5
 71
     0
 72
     2
 73
     0
 90
        0
 40
-0.6
 41
-30.0
 62
     5
 63
     7
421
 16777215
 74
     1
 91
        4
 64
     7
 65
   257
 75
     1
175
     1
 42
1.0
 92
        0
 66
   257
 43
1.0
 76
     1
 77
     6
 78
     2
 67
     7
 79
     5
170
     0
171
     0
290
     0
174
     0
 93
        1
 44
0.0
173
     0
291
     0
 45
0.0
  0
VISUALSTYLE
  5
32
102
{ACAD_REACTORS
330
2A
102
}
330
2A
100
AcDbVisualStyle
  2
Basic
 70
     7
 71
     1
 72
     0
 73
     1
 90
        0
 40
-0.6
 41
-30.0
 62
     5
 63
     7
421
 16777215
 74
     0
 91
        4
 64
     7
 65
   257
 75
     1
175
     1
 42
1.0
 92
        8
 66
     7
 43
1.0
 76
     1
 77
     6
 78
     2
 67
     7
 79
     5
170
     0
171
     0
290
     0
174
     0
 93
        1
 44
0.0
173
     0
291
     1
 45
0.0
  0
VISUALSTYLE
  5
36
102
{ACAD_REACTORS
330
2A
102
}
330
2A
100
AcDbVisualStyle
  2
Brighten
 70
    12
 71
     2
 72
     2
 73
     0
 90
        0
 40
-0.6
 41
-30.0
 62
     5
 63
     7
421
 16777215
 74
     1
 91
        4
 64
     7
 65
   257
 75
     1
175
     1
 42
1.0
 92
        8
 66
     7
 43
1.0
 76
     1
 77
     6
 78
     2
 67
     7
 79
     5
170
     0
171
     0
290
     0
174
     0
 93
        1
 44
50.0
173
     0
291
     1
 45
0.0
  0
VISUALSTYLE
  5
3A
102
{ACAD_REACTORS
330
2A
102
}
330
2A
100
AcDbVisualStyle
  2
ColorChange
 70
    16
 71
     2
 72
     2
 73
     3
 90
        0
 40
-0.6
 41
-30.0
 62
     5
 63
     8
421
  8421504
 74
     1
 91
        4
 64
     7
 65
   257
 75
     1
175
     1
 42
1.0
 92
        8
 66
     8
424
  8421504
 43
1.0
 76
     1
 77
     6
 78
     2
 67
     7
 79
     5
170
     0
171
     0
290
     0
174
     0
 93
        1
 44
0.0
173
     0
291
     1
 45
0.0
  0
VISUALSTYLE
  5
34
102
{ACAD_REACTORS
330
2A
102
}
330
2A
100
AcDbVisualStyle
  2
Conceptual
 70
     9
 71
     3
 72
     2
 73
     0
 90
        0
 40
-0.6
 41
-30.0
 62
     5
 63
     7
421
 16777215
 74
     2
 91
        2
 64
     7
 65
   257
 75
     1
175
     1
 42
40.0
 92
        8
 66
     7
 43
1.0
 76
     1
 77
     6
 78
     2
 67
     7
 79
     3
170
     0
171
     0
290
     0
174
     0
 93
        1
 44
0.0
173
     0
291
     0
 45
0.0
  0
VISUALSTYLE
  5
35
102
{ACAD_REACTORS
330
2A
102
}
330
2A
100
AcDbVisualStyle
  2
Dim
 70
    11
 71
     2
 72
     2
 73
     0
 90
        0
 40
-0.6
 41
-30.0
 62
     5
 63
     7
421
 16777215
 74
     1
 91
        4
 64
     7
 65
   257
 75
     1
175
     1
 42
1.0
 92
        8
 66
     7
 43
1.0
 76
     1
 77
     6
 78
     2
 67
     7
 79
     5
170
     0
171
     0
290
     0
174
     0
 93
        1
 44
-50.0
173
     0
291
     1
 45
0.0
  0
VISUALSTYLE
  5
39
102
{ACAD_REACTORS
330
2A
102
}
330
2A
100
AcDbVisualStyle
  2
Facepattern
 70
    15
 71
     2
 72
     2
 73
     0
 90
        0
 40
-0.6
 41
-30.0
 62
     5
 63
     7
421
 16777215
 74
     1
 91
        4
 64
     7
 65
   257
 75
     1
175
     1
 42
1.0
 92
        8
 66
     7
 43
1.0
 76
     1
 77
     6
 78
     2
 67
     7
 79
     5
170
     0
171
     0
290
     0
174
     0
 93
        1
 44
0.0
173
     0
291
     1
 45
0.0
  0
VISUALSTYLE
  5
2B
102
{ACAD_REACTORS
330
2A
102
}
330
2A
100
AcDbVisualStyle
  2
Flat
 70
     0
 71
     2
 72
     1
 73
     1
 90
        2
 40
-0.6
 41
30.0
 62
     5
 63
     7
421
 16777215
 74
     0
 91
        4
 64
     7
 65
   257
 75
     1
175
     1
 42
1.0
 92
        8
 66
     7
 43
1.0
 76
     1
 77
     6
 78
     2
 67
     7
 79
     5
170
     0
171
     0
290
     0
174
     0
 93
       13
 44
0.0
173
     0
291
     1
 45
0.0
  0
VISUALSTYLE
  5
2C
102
{ACAD_REACTORS
330
2A
102
}
330
2A
100
AcDbVisualStyle
  2
FlatWithEdges
 70
     1
 71
     2
 72
     1
 73
     1
 90
        2
 40
-0.6
 41
30.0
 62
     5
 63
     7
421
 16777215
 74
     1
 91
        4
 64
     7
 65
   257
 75
     1
175
     1
 42
1.0
 92
        0
 66
   257
 43
1.0
 76
     1
 77
     6
 78
     2
 67
     7
 79
     5
170
     0
171
     0
290
     0
174
     0
 93
       13
 44
0.0
173
     0
291
     1
 45
0.0
  0
VISUALSTYLE
  5
2D
102
{ACAD_REACTORS
330
2A
102
}
330
2A
100
AcDbVisualStyle
  2
Gouraud
 70
     2
 71
     2
 72
     2
 73
     1
 90
        2
 40
-0.6
 41
30.0
 62
     5
 63
     7
421
 16777215
 74
     0
 91
        4
 64
     7
 65
   257
 75
     1
175
     1
 42
1.0
 92
        0
 66
     7
 43
1.0
 76
     1
 77
     6
 78
     2
 67
     7
 79
     5
170
     0
171
     0
290
     0
174
     0
 93
       13
 44
0.0
173
     0
291
     1
 45
0.0
  0
VISUALSTYLE
  5
2E
102
{ACAD_REACTORS
330
2A
102
}
330
2A
100
AcDbVisualStyle
  2
GouraudWithEdges
 70
     3
 71
     2
 72
     2
 73
     1
 90
        2
 40
-0.6
 41
30.0
 62
     5
 63
     7
421
 16777215
 74
     1
 91
        4
 64
     7
 65
   257
 75
     1
175
     1
 42
1.0
 92
        0
 66
   257
 43
1.0
 76
     1
 77
     6
 78
     2
 67
     7
 79
     5
170
     0
171
     0
290
     0
174
     0
 93
       13
 44
0.0
173
     0
291
     1
 45
0.0
  0
VISUALSTYLE
  5
38
102
{ACAD_REACTORS
330
2A
102
}
330
2A
100
AcDbVisualStyle
  2
Linepattern
 70
    14
 71
     2
 72
     2
 73
     0
 90
        0
 40
-0.6
 41
-30.0
 62
     5
 63
     7
421
 16777215
 74
     1
 91
        4
 64
     7
 65
   257
 75
     7
175
     7
 42
1.0
 92
        8
 66
     7
 43
1.0
 76
     1
 77
     6
 78
     2
 67
     7
 79
     5
170
     0
171
     0
290
     0
174
     0
 93
        1
 44
0.0
173
     0
291
     1
 45
0.0
  0
VISUALSTYLE
  5
33
102
{ACAD_REACTORS
330
2A
102
}
330
2A
100
AcDbVisualStyle
  2
Realistic
 70
     8
 71
     2
 72
     2
 73
     0
 90
        0
 40
-0.6
 41
-30.0
 62
     5
 63
     7
421
 16777215
 74
     1
 91
        0
 64
     7
 65
   257
 75
     1
175
     1
 42
1.0
 92
        8
 66
     8
424
  7895160
 43
1.0
 76
     1
 77
     6
 78
     2
 67
     7
 79
     5
170
     0
171
     0
290
     0
174
     0
 93
       13
 44
0.0
173
     0
291
     0
 45
0.0
  0
VISUALSTYLE
  5
37
102
{ACAD_REACTORS
330
2A
102
}
330
2A
100
AcDbVisualStyle
  2
Thicken
 70
    13
 71
     2
 72
     2
 73
     0
 90
        0
 40
-0.6
 41
-30.0
 62
     5
 63
     7
421
 16777215
 74
     1
 91
        4
 64
     7
 65
   257
 75
     1
175
     1
 42
1.0
 92
       12
 66
     7
 43
1.0
 76
     1
 77
     6
 78
     2
 67
     7
 79
     5
170
     0
171
     0
290
     0
174
     0
 93
        1
 44
0.0
173
     0
291
     1
 45
0.0
  0
ENDSEC
  0
EOF
