solid OpenSCAD_Model
  facet normal -0.980738 -0.195327 0
    outer loop
      vertex 0 5 0
      vertex 0.381 3.087 0
      vertex 0 5 3
    endloop
  endfacet
  facet normal -0.980738 -0.195327 0
    outer loop
      vertex 0 5 3
      vertex 0.381 3.087 0
      vertex 0.381 3.087 3
    endloop
  endfacet
  facet normal 0 0 -1
    outer loop
      vertex 0 5 0
      vertex 0 8 0
      vertex 0.381 3.087 0
    endloop
  endfacet
  facet normal 0 0 -1
    outer loop
      vertex 0.381 3.087 0
      vertex 0 8 0
      vertex 0.381 9.913 0
    endloop
  endfacet
  facet normal 0 0 -1
    outer loop
      vertex 0.381 3.087 0
      vertex 0.381 9.913 0
      vertex 1.464 11.536 0
    endloop
  endfacet
  facet normal 0 0 -1
    outer loop
      vertex 0.381 3.087 0
      vertex 1.464 11.536 0
      vertex 3.087 12.619 0
    endloop
  endfacet
  facet normal 0 0 -1
    outer loop
      vertex 0.381 3.087 0
      vertex 3.087 12.619 0
      vertex 5 13 0
    endloop
  endfacet
  facet normal 0 0 -1
    outer loop
      vertex 3.5 8 0
      vertex 5 13 0
      vertex 8 13 0
    endloop
  endfacet
  facet normal 0 0 -1
    outer loop
      vertex 8 8.937 0
      vertex 9.913 12.619 0
      vertex 11.536 11.536 0
    endloop
  endfacet
  facet normal 0 0 -1
    outer loop
      vertex 9.012 8 0
      vertex 11.536 11.536 0
      vertex 12.619 9.913 0
    endloop
  endfacet
  facet normal 0 0 -1
    outer loop
      vertex 9.5 8 0
      vertex 12.619 9.913 0
      vertex 13 8 0
    endloop
  endfacet
  facet normal 0 0 -1
    outer loop
      vertex 9.5 5 0
      vertex 13 8 0
      vertex 13 5 0
    endloop
  endfacet
  facet normal 0 0 -1
    outer loop
      vertex 8 3.5 0
      vertex 13 5 0
      vertex 12.619 3.087 0
    endloop
  endfacet
  facet normal 0 0 -1
    outer loop
      vertex 0.381 3.087 0
      vertex 12.619 3.087 0
      vertex 11.536 1.464 0
    endloop
  endfacet
  facet normal 0 0 -1
    outer loop
      vertex 0.381 3.087 0
      vertex 11.536 1.464 0
      vertex 9.913 0.381 0
    endloop
  endfacet
  facet normal 0 0 -1
    outer loop
      vertex 0.381 3.087 0
      vertex 9.913 0.381 0
      vertex 8 0 0
    endloop
  endfacet
  facet normal 0 0 -1
    outer loop
      vertex 0.381 3.087 0
      vertex 8 0 0
      vertex 5 0 0
    endloop
  endfacet
  facet normal 0 0 -1
    outer loop
      vertex 0.381 3.087 0
      vertex 5 0 0
      vertex 3.087 0.381 0
    endloop
  endfacet
  facet normal 0 0 -1
    outer loop
      vertex 0.381 3.087 0
      vertex 3.087 0.381 0
      vertex 1.464 1.464 0
    endloop
  endfacet
  facet normal 0 0 -1
    outer loop
      vertex 0.381 3.087 0
      vertex 5 13 0
      vertex 3.5 8 0
    endloop
  endfacet
  facet normal 0 0 -1
    outer loop
      vertex 5 9.5 0
      vertex 3.5 8 0
      vertex 8 13 0
    endloop
  endfacet
  facet normal 0 0 -1
    outer loop
      vertex 3.988 5 0
      vertex 0.381 3.087 0
      vertex 3.5 5 0
    endloop
  endfacet
  facet normal 0 0 -1
    outer loop
      vertex 5 4.063 0
      vertex 0.381 3.087 0
      vertex 4.073 4.737 0
    endloop
  endfacet
  facet normal 0 0 -1
    outer loop
      vertex 0.381 3.087 0
      vertex 3.988 5 0
      vertex 4.073 4.737 0
    endloop
  endfacet
  facet normal 0 0 -1
    outer loop
      vertex 5 3.5 0
      vertex 0.381 3.087 0
      vertex 5 4.063 0
    endloop
  endfacet
  facet normal 0 0 -1
    outer loop
      vertex 8.927 4.737 0
      vertex 13 5 0
      vertex 8 4.063 0
    endloop
  endfacet
  facet normal 0 0 -1
    outer loop
      vertex 0.381 3.087 0
      vertex 5 3.5 0
      vertex 12.619 3.087 0
    endloop
  endfacet
  facet normal 0 0 -1
    outer loop
      vertex 5 3.5 0
      vertex 8 3.5 0
      vertex 12.619 3.087 0
    endloop
  endfacet
  facet normal 0 0 -1
    outer loop
      vertex 8 4.063 0
      vertex 13 5 0
      vertex 8 3.5 0
    endloop
  endfacet
  facet normal 0 0 -1
    outer loop
      vertex 9.5 5 0
      vertex 8.927 4.737 0
      vertex 9.012 5 0
    endloop
  endfacet
  facet normal 0 0 -1
    outer loop
      vertex 9.5 8 0
      vertex 13 8 0
      vertex 9.5 5 0
    endloop
  endfacet
  facet normal 0 0 -1
    outer loop
      vertex 8.927 4.737 0
      vertex 9.5 5 0
      vertex 13 5 0
    endloop
  endfacet
  facet normal 0 0 -1
    outer loop
      vertex 9.012 8 0
      vertex 12.619 9.913 0
      vertex 9.5 8 0
    endloop
  endfacet
  facet normal 0 0 -1
    outer loop
      vertex 8.927 8.263 0
      vertex 11.536 11.536 0
      vertex 9.012 8 0
    endloop
  endfacet
  facet normal 0 0 -1
    outer loop
      vertex 8 8.937 0
      vertex 11.536 11.536 0
      vertex 8.927 8.263 0
    endloop
  endfacet
  facet normal 0 0 -1
    outer loop
      vertex 5 9.5 0
      vertex 9.913 12.619 0
      vertex 8 9.5 0
    endloop
  endfacet
  facet normal 0 0 -1
    outer loop
      vertex 8 9.5 0
      vertex 9.913 12.619 0
      vertex 8 8.937 0
    endloop
  endfacet
  facet normal 0 0 -1
    outer loop
      vertex 4.073 8.263 0
      vertex 3.5 8 0
      vertex 5 9.5 0
    endloop
  endfacet
  facet normal 0 0 -1
    outer loop
      vertex 4.073 8.263 0
      vertex 5 9.5 0
      vertex 5 8.937 0
    endloop
  endfacet
  facet normal 0 0 -1
    outer loop
      vertex 3.5 5 0
      vertex 0.381 3.087 0
      vertex 3.5 8 0
    endloop
  endfacet
  facet normal 0 0 -1
    outer loop
      vertex 3.5 8 0
      vertex 4.073 8.263 0
      vertex 3.988 8 0
    endloop
  endfacet
  facet normal 0 0 -1
    outer loop
      vertex 5 9.5 0
      vertex 8 13 0
      vertex 9.913 12.619 0
    endloop
  endfacet
  facet normal -1 0 0
    outer loop
      vertex 0 5 0
      vertex 0 5 3
      vertex 0 8 0
    endloop
  endfacet
  facet normal -1 0 0
    outer loop
      vertex 0 8 0
      vertex 0 5 3
      vertex 0 8 3
    endloop
  endfacet
  facet normal 0 0 1
    outer loop
      vertex 0 8 3
      vertex 0 5 3
      vertex 0.381 3.087 3
    endloop
  endfacet
  facet normal 0 0 1
    outer loop
      vertex 3.087 0.381 3
      vertex 0 8 3
      vertex 1.464 1.464 3
    endloop
  endfacet
  facet normal 0 0 1
    outer loop
      vertex 1.464 1.464 3
      vertex 0 8 3
      vertex 0.381 3.087 3
    endloop
  endfacet
  facet normal 0 0 1
    outer loop
      vertex 5 0 3
      vertex 0 8 3
      vertex 3.087 0.381 3
    endloop
  endfacet
  facet normal 0 0 1
    outer loop
      vertex 8 0 3
      vertex 0 8 3
      vertex 5 0 3
    endloop
  endfacet
  facet normal 0 0 1
    outer loop
      vertex 3.5 5 3
      vertex 0 8 3
      vertex 8 0 3
    endloop
  endfacet
  facet normal 0 0 1
    outer loop
      vertex 8.927 4.737 3
      vertex 8 4.063 3
      vertex 12.619 3.087 3
    endloop
  endfacet
  facet normal 0 0 1
    outer loop
      vertex 8 3.5 3
      vertex 5 3.5 3
      vertex 9.913 0.381 3
    endloop
  endfacet
  facet normal 0 0 1
    outer loop
      vertex 13 8 3
      vertex 9.5 8 3
      vertex 13 5 3
    endloop
  endfacet
  facet normal 0 0 1
    outer loop
      vertex 9.913 12.619 3
      vertex 0 8 3
      vertex 11.536 11.536 3
    endloop
  endfacet
  facet normal 0 0 1
    outer loop
      vertex 8 13 3
      vertex 0 8 3
      vertex 9.913 12.619 3
    endloop
  endfacet
  facet normal 0 0 1
    outer loop
      vertex 5 13 3
      vertex 0 8 3
      vertex 8 13 3
    endloop
  endfacet
  facet normal 0 0 1
    outer loop
      vertex 3.087 12.619 3
      vertex 0 8 3
      vertex 5 13 3
    endloop
  endfacet
  facet normal 0 0 1
    outer loop
      vertex 1.464 11.536 3
      vertex 0 8 3
      vertex 3.087 12.619 3
    endloop
  endfacet
  facet normal 0 0 1
    outer loop
      vertex 0.381 9.913 3
      vertex 0 8 3
      vertex 1.464 11.536 3
    endloop
  endfacet
  facet normal 0 0 1
    outer loop
      vertex 5 3.5 3
      vertex 3.5 5 3
      vertex 8 0 3
    endloop
  endfacet
  facet normal 0 0 1
    outer loop
      vertex 5 3.5 3
      vertex 5 4.063 3
      vertex 3.5 5 3
    endloop
  endfacet
  facet normal 0 0 1
    outer loop
      vertex 4.073 8.263 3
      vertex 0 8 3
      vertex 3.5 8 3
    endloop
  endfacet
  facet normal 0 0 1
    outer loop
      vertex 8 9.5 3
      vertex 8 8.937 3
      vertex 12.619 9.913 3
    endloop
  endfacet
  facet normal 0 0 1
    outer loop
      vertex 8 8.937 3
      vertex 8.927 8.263 3
      vertex 12.619 9.913 3
    endloop
  endfacet
  facet normal 0 0 1
    outer loop
      vertex 5 9.5 3
      vertex 8 9.5 3
      vertex 11.536 11.536 3
    endloop
  endfacet
  facet normal 0 0 1
    outer loop
      vertex 5 9.5 3
      vertex 0 8 3
      vertex 5 8.937 3
    endloop
  endfacet
  facet normal 0 0 1
    outer loop
      vertex 11.536 11.536 3
      vertex 0 8 3
      vertex 5 9.5 3
    endloop
  endfacet
  facet normal 0 0 1
    outer loop
      vertex 11.536 11.536 3
      vertex 8 9.5 3
      vertex 12.619 9.913 3
    endloop
  endfacet
  facet normal 0 0 1
    outer loop
      vertex 4.073 8.263 3
      vertex 5 8.937 3
      vertex 0 8 3
    endloop
  endfacet
  facet normal 0 0 1
    outer loop
      vertex 12.619 9.913 3
      vertex 8.927 8.263 3
      vertex 13 8 3
    endloop
  endfacet
  facet normal 0 0 1
    outer loop
      vertex 8 3.5 3
      vertex 9.913 0.381 3
      vertex 11.536 1.464 3
    endloop
  endfacet
  facet normal 0 0 1
    outer loop
      vertex 8.927 8.263 3
      vertex 9.5 8 3
      vertex 13 8 3
    endloop
  endfacet
  facet normal 0 0 1
    outer loop
      vertex 8.927 8.263 3
      vertex 9.012 8 3
      vertex 9.5 8 3
    endloop
  endfacet
  facet normal 0 0 1
    outer loop
      vertex 13 5 3
      vertex 9.5 5 3
      vertex 12.619 3.087 3
    endloop
  endfacet
  facet normal 0 0 1
    outer loop
      vertex 9.5 5 3
      vertex 9.012 5 3
      vertex 12.619 3.087 3
    endloop
  endfacet
  facet normal 0 0 1
    outer loop
      vertex 3.988 8 3
      vertex 4.073 8.263 3
      vertex 3.5 8 3
    endloop
  endfacet
  facet normal 0 0 1
    outer loop
      vertex 9.012 5 3
      vertex 8.927 4.737 3
      vertex 12.619 3.087 3
    endloop
  endfacet
  facet normal 0 0 1
    outer loop
      vertex 9.5 8 3
      vertex 9.5 5 3
      vertex 13 5 3
    endloop
  endfacet
  facet normal 0 0 1
    outer loop
      vertex 12.619 3.087 3
      vertex 8 4.063 3
      vertex 11.536 1.464 3
    endloop
  endfacet
  facet normal 0 0 1
    outer loop
      vertex 8 4.063 3
      vertex 8 3.5 3
      vertex 11.536 1.464 3
    endloop
  endfacet
  facet normal 0 0 1
    outer loop
      vertex 9.913 0.381 3
      vertex 5 3.5 3
      vertex 8 0 3
    endloop
  endfacet
  facet normal 0 0 1
    outer loop
      vertex 5 4.063 3
      vertex 4.073 4.737 3
      vertex 3.5 5 3
    endloop
  endfacet
  facet normal 0 0 1
    outer loop
      vertex 3.988 5 3
      vertex 3.5 5 3
      vertex 4.073 4.737 3
    endloop
  endfacet
  facet normal 0 0 1
    outer loop
      vertex 3.5 5 3
      vertex 3.5 8 3
      vertex 0 8 3
    endloop
  endfacet
  facet normal -0.831814 -0.555055 0
    outer loop
      vertex 0.381 3.087 0
      vertex 1.464 1.464 0
      vertex 0.381 3.087 3
    endloop
  endfacet
  facet normal -0.831814 -0.555055 0
    outer loop
      vertex 0.381 3.087 3
      vertex 1.464 1.464 0
      vertex 1.464 1.464 3
    endloop
  endfacet
  facet normal -0.555055 -0.831814 0
    outer loop
      vertex 1.464 1.464 3
      vertex 1.464 1.464 0
      vertex 3.087 0.381 0
    endloop
  endfacet
  facet normal -0.555055 -0.831814 0
    outer loop
      vertex 3.087 0.381 3
      vertex 1.464 1.464 3
      vertex 3.087 0.381 0
    endloop
  endfacet
  facet normal -0.195327 -0.980738 0
    outer loop
      vertex 3.087 0.381 3
      vertex 3.087 0.381 0
      vertex 5 0 0
    endloop
  endfacet
  facet normal -0.195327 -0.980738 0
    outer loop
      vertex 5 0 3
      vertex 3.087 0.381 3
      vertex 5 0 0
    endloop
  endfacet
  facet normal 0 -1 0
    outer loop
      vertex 5 0 3
      vertex 5 0 0
      vertex 8 0 0
    endloop
  endfacet
  facet normal 0 -1 0
    outer loop
      vertex 8 0 3
      vertex 5 0 3
      vertex 8 0 0
    endloop
  endfacet
  facet normal 0.195327 -0.980738 0
    outer loop
      vertex 8 0 3
      vertex 8 0 0
      vertex 9.913 0.381 0
    endloop
  endfacet
  facet normal 0.195327 -0.980738 0
    outer loop
      vertex 9.913 0.381 3
      vertex 8 0 3
      vertex 9.913 0.381 0
    endloop
  endfacet
  facet normal 0.555055 -0.831814 0
    outer loop
      vertex 9.913 0.381 3
      vertex 9.913 0.381 0
      vertex 11.536 1.464 0
    endloop
  endfacet
  facet normal 0.555055 -0.831814 0
    outer loop
      vertex 11.536 1.464 3
      vertex 9.913 0.381 3
      vertex 11.536 1.464 0
    endloop
  endfacet
  facet normal 0.831814 -0.555055 0
    outer loop
      vertex 11.536 1.464 3
      vertex 11.536 1.464 0
      vertex 12.619 3.087 0
    endloop
  endfacet
  facet normal 0.831814 -0.555055 0
    outer loop
      vertex 12.619 3.087 3
      vertex 11.536 1.464 3
      vertex 12.619 3.087 0
    endloop
  endfacet
  facet normal 0.980738 -0.195327 0
    outer loop
      vertex 12.619 3.087 3
      vertex 12.619 3.087 0
      vertex 13 5 0
    endloop
  endfacet
  facet normal 0.980738 -0.195327 0
    outer loop
      vertex 13 5 3
      vertex 12.619 3.087 3
      vertex 13 5 0
    endloop
  endfacet
  facet normal 1 0 0
    outer loop
      vertex 13 5 3
      vertex 13 5 0
      vertex 13 8 0
    endloop
  endfacet
  facet normal 1 0 0
    outer loop
      vertex 13 8 3
      vertex 13 5 3
      vertex 13 8 0
    endloop
  endfacet
  facet normal 0.980738 0.195327 0
    outer loop
      vertex 13 8 0
      vertex 12.619 9.913 0
      vertex 12.619 9.913 3
    endloop
  endfacet
  facet normal 0.980738 0.195327 0
    outer loop
      vertex 13 8 3
      vertex 13 8 0
      vertex 12.619 9.913 3
    endloop
  endfacet
  facet normal 0.831814 0.555055 0
    outer loop
      vertex 12.619 9.913 0
      vertex 11.536 11.536 0
      vertex 11.536 11.536 3
    endloop
  endfacet
  facet normal 0.831814 0.555055 0
    outer loop
      vertex 12.619 9.913 3
      vertex 12.619 9.913 0
      vertex 11.536 11.536 3
    endloop
  endfacet
  facet normal 0.555055 0.831814 0
    outer loop
      vertex 9.913 12.619 0
      vertex 9.913 12.619 3
      vertex 11.536 11.536 0
    endloop
  endfacet
  facet normal 0.555055 0.831814 0
    outer loop
      vertex 11.536 11.536 0
      vertex 9.913 12.619 3
      vertex 11.536 11.536 3
    endloop
  endfacet
  facet normal 0.195327 0.980738 0
    outer loop
      vertex 8 13 0
      vertex 8 13 3
      vertex 9.913 12.619 0
    endloop
  endfacet
  facet normal 0.195327 0.980738 0
    outer loop
      vertex 9.913 12.619 0
      vertex 8 13 3
      vertex 9.913 12.619 3
    endloop
  endfacet
  facet normal 0 1 0
    outer loop
      vertex 5 13 0
      vertex 5 13 3
      vertex 8 13 0
    endloop
  endfacet
  facet normal 0 1 0
    outer loop
      vertex 8 13 0
      vertex 5 13 3
      vertex 8 13 3
    endloop
  endfacet
  facet normal -0.195327 0.980738 0
    outer loop
      vertex 3.087 12.619 0
      vertex 3.087 12.619 3
      vertex 5 13 0
    endloop
  endfacet
  facet normal -0.195327 0.980738 0
    outer loop
      vertex 5 13 0
      vertex 3.087 12.619 3
      vertex 5 13 3
    endloop
  endfacet
  facet normal -0.555055 0.831814 0
    outer loop
      vertex 1.464 11.536 0
      vertex 1.464 11.536 3
      vertex 3.087 12.619 0
    endloop
  endfacet
  facet normal -0.555055 0.831814 0
    outer loop
      vertex 3.087 12.619 0
      vertex 1.464 11.536 3
      vertex 3.087 12.619 3
    endloop
  endfacet
  facet normal -0.831814 0.555055 0
    outer loop
      vertex 0.381 9.913 0
      vertex 0.381 9.913 3
      vertex 1.464 11.536 0
    endloop
  endfacet
  facet normal -0.831814 0.555055 0
    outer loop
      vertex 1.464 11.536 0
      vertex 0.381 9.913 3
      vertex 1.464 11.536 3
    endloop
  endfacet
  facet normal -0.980738 0.195327 0
    outer loop
      vertex 0 8 0
      vertex 0 8 3
      vertex 0.381 9.913 0
    endloop
  endfacet
  facet normal -0.980738 0.195327 0
    outer loop
      vertex 0.381 9.913 0
      vertex 0 8 3
      vertex 0.381 9.913 3
    endloop
  endfacet
  facet normal 0 -1 0
    outer loop
      vertex 3.988 8 0
      vertex 3.988 8 3
      vertex 3.5 8 3
    endloop
  endfacet
  facet normal 0 -1 0
    outer loop
      vertex 3.5 8 0
      vertex 3.988 8 0
      vertex 3.5 8 3
    endloop
  endfacet
  facet normal 1 0 0
    outer loop
      vertex 3.5 8 0
      vertex 3.5 8 3
      vertex 3.5 5 3
    endloop
  endfacet
  facet normal 1 0 0
    outer loop
      vertex 3.5 5 0
      vertex 3.5 8 0
      vertex 3.5 5 3
    endloop
  endfacet
  facet normal 0.951538 -0.307531 0
    outer loop
      vertex 4.073 8.263 0
      vertex 4.073 8.263 3
      vertex 3.988 8 3
    endloop
  endfacet
  facet normal 0.951538 -0.307531 0
    outer loop
      vertex 3.988 8 0
      vertex 4.073 8.263 0
      vertex 3.988 8 3
    endloop
  endfacet
  facet normal 0.588068 -0.808812 0
    outer loop
      vertex 5 8.937 0
      vertex 5 8.937 3
      vertex 4.073 8.263 3
    endloop
  endfacet
  facet normal 0.588068 -0.808812 0
    outer loop
      vertex 4.073 8.263 0
      vertex 5 8.937 0
      vertex 4.073 8.263 3
    endloop
  endfacet
  facet normal 1 0 0
    outer loop
      vertex 5 9.5 0
      vertex 5 9.5 3
      vertex 5 8.937 3
    endloop
  endfacet
  facet normal 1 0 0
    outer loop
      vertex 5 8.937 0
      vertex 5 9.5 0
      vertex 5 8.937 3
    endloop
  endfacet
  facet normal 0 -1 0
    outer loop
      vertex 8 9.5 0
      vertex 8 9.5 3
      vertex 5 9.5 3
    endloop
  endfacet
  facet normal 0 -1 0
    outer loop
      vertex 5 9.5 0
      vertex 8 9.5 0
      vertex 5 9.5 3
    endloop
  endfacet
  facet normal -1 0 0
    outer loop
      vertex 8 9.5 3
      vertex 8 9.5 0
      vertex 8 8.937 3
    endloop
  endfacet
  facet normal -1 0 0
    outer loop
      vertex 8 8.937 3
      vertex 8 9.5 0
      vertex 8 8.937 0
    endloop
  endfacet
  facet normal -0.588068 -0.808812 0
    outer loop
      vertex 8.927 8.263 0
      vertex 8.927 8.263 3
      vertex 8 8.937 3
    endloop
  endfacet
  facet normal -0.588068 -0.808812 0
    outer loop
      vertex 8 8.937 0
      vertex 8.927 8.263 0
      vertex 8 8.937 3
    endloop
  endfacet
  facet normal -0.951538 -0.307531 0
    outer loop
      vertex 9.012 8 3
      vertex 8.927 8.263 3
      vertex 9.012 8 0
    endloop
  endfacet
  facet normal -0.951538 -0.307531 0
    outer loop
      vertex 9.012 8 0
      vertex 8.927 8.263 3
      vertex 8.927 8.263 0
    endloop
  endfacet
  facet normal 0 -1 0
    outer loop
      vertex 9.5 8 0
      vertex 9.5 8 3
      vertex 9.012 8 3
    endloop
  endfacet
  facet normal 0 -1 0
    outer loop
      vertex 9.012 8 0
      vertex 9.5 8 0
      vertex 9.012 8 3
    endloop
  endfacet
  facet normal -1 0 0
    outer loop
      vertex 9.5 8 3
      vertex 9.5 8 0
      vertex 9.5 5 3
    endloop
  endfacet
  facet normal -1 0 0
    outer loop
      vertex 9.5 5 3
      vertex 9.5 8 0
      vertex 9.5 5 0
    endloop
  endfacet
  facet normal 0 1 0
    outer loop
      vertex 9.5 5 3
      vertex 9.5 5 0
      vertex 9.012 5 3
    endloop
  endfacet
  facet normal 0 1 0
    outer loop
      vertex 9.012 5 3
      vertex 9.5 5 0
      vertex 9.012 5 0
    endloop
  endfacet
  facet normal -0.951538 0.307531 0
    outer loop
      vertex 9.012 5 3
      vertex 9.012 5 0
      vertex 8.927 4.737 3
    endloop
  endfacet
  facet normal -0.951538 0.307531 0
    outer loop
      vertex 8.927 4.737 3
      vertex 9.012 5 0
      vertex 8.927 4.737 0
    endloop
  endfacet
  facet normal -0.588068 0.808812 0
    outer loop
      vertex 8.927 4.737 3
      vertex 8.927 4.737 0
      vertex 8 4.063 3
    endloop
  endfacet
  facet normal -0.588068 0.808812 0
    outer loop
      vertex 8 4.063 3
      vertex 8.927 4.737 0
      vertex 8 4.063 0
    endloop
  endfacet
  facet normal -1 0 0
    outer loop
      vertex 8 4.063 3
      vertex 8 4.063 0
      vertex 8 3.5 3
    endloop
  endfacet
  facet normal -1 0 0
    outer loop
      vertex 8 3.5 3
      vertex 8 4.063 0
      vertex 8 3.5 0
    endloop
  endfacet
  facet normal 0 1 0
    outer loop
      vertex 8 3.5 3
      vertex 8 3.5 0
      vertex 5 3.5 3
    endloop
  endfacet
  facet normal 0 1 0
    outer loop
      vertex 5 3.5 3
      vertex 8 3.5 0
      vertex 5 3.5 0
    endloop
  endfacet
  facet normal 1 0 0
    outer loop
      vertex 5 4.063 0
      vertex 5 4.063 3
      vertex 5 3.5 3
    endloop
  endfacet
  facet normal 1 0 0
    outer loop
      vertex 5 3.5 0
      vertex 5 4.063 0
      vertex 5 3.5 3
    endloop
  endfacet
  facet normal 0.588068 0.808812 0
    outer loop
      vertex 5 4.063 3
      vertex 5 4.063 0
      vertex 4.073 4.737 3
    endloop
  endfacet
  facet normal 0.588068 0.808812 0
    outer loop
      vertex 4.073 4.737 3
      vertex 5 4.063 0
      vertex 4.073 4.737 0
    endloop
  endfacet
  facet normal 0.951538 0.307531 0
    outer loop
      vertex 3.988 5 3
      vertex 4.073 4.737 3
      vertex 4.073 4.737 0
    endloop
  endfacet
  facet normal 0.951538 0.307531 0
    outer loop
      vertex 3.988 5 0
      vertex 3.988 5 3
      vertex 4.073 4.737 0
    endloop
  endfacet
  facet normal 0 1 0
    outer loop
      vertex 3.988 5 3
      vertex 3.988 5 0
      vertex 3.5 5 3
    endloop
  endfacet
  facet normal 0 1 0
    outer loop
      vertex 3.5 5 3
      vertex 3.988 5 0
      vertex 3.5 5 0
    endloop
  endfacet
endsolid OpenSCAD_Model
