<?xml version="1.0" encoding="UTF-8"?>
<!DOCTYPE svg PUBLIC "-//W3C//DTD SVG 1.1//EN" "http://www.w3.org/Graphics/SVG/1.1/DTD/svg11.dtd">
<!-- Creator: CorelDRAW -->
<svg xmlns="http://www.w3.org/2000/svg" xml:space="preserve" width="210mm" height="297mm" style="shape-rendering:geometricPrecision; text-rendering:geometricPrecision; image-rendering:optimizeQuality; fill-rule:evenodd; clip-rule:evenodd"
viewBox="0 0 210 297"
 xmlns:xlink="http://www.w3.org/1999/xlink">
 <defs>
  <style type="text/css">
   <![CDATA[
    .str0 {stroke:black;stroke-width:0.5292;stroke-linecap:round;stroke-linejoin:round}
    .fil0 {fill:none;fill-rule:nonzero}
    .fil1 {fill:black;fill-rule:nonzero}
   ]]>
  </style>
 </defs>
 <g id="Layer_x0020_1">
  <metadata id="CorelCorpID_0Corel-Layer"/>
  <g id="_120286072">
   <path id="_120287248" class="fil0 str0" d="M-2.9998 295.501l0.4009 0c0.2635,-0.4557 0.6435,-0.8357 1.0991,-1.0993l0 -0.4007 1.4456 0 0.0542 -0.0007 0.0542 0.0007 1.4461 0 0 0.4008c0.4556,0.2636 0.8354,0.6435 1.0988,1.0992l0.4011 0 0 3.0001 -0.4017 0c-0.2634,0.4553 -0.6429,0.8347 -1.0982,1.098l0 0.4019 -3.0001 0 0 -0.4018c-0.4554,-0.2633 -0.835,-0.6428 -1.0985,-1.0981l-0.4015 0 0 -1.4853 -0.0002 -0.0155 0.0002 -0.0155 0 -1.4838z"/>
   <g>
    <path id="_120286504" class="fil1" d="M-0 303.765l0 -0.529 0 0 0.3223 -0.0075 0.3168 -0.024 0.3119 -0.0403 0.3068 -0.054 0.3022 -0.0694 0.2961 -0.0845 0.2897 -0.098 0.2828 -0.1111 0.2755 -0.1251 0.2689 -0.1372 0.2619 -0.1503 0.2523 -0.1628 0.2445 -0.1739 0.2363 -0.1847 0.2255 -0.196 0.2174 -0.2068 0.2059 -0.2164 0.1959 -0.2256 0.1847 -0.2362 0.1739 -0.2445 0.1628 -0.2523 0.1503 -0.262 0.1372 -0.2688 0.1251 -0.2756 0.1111 -0.2828 0.098 -0.2897 0.0845 -0.2962 0.0694 -0.3021 0.054 -0.3068 0.0403 -0.312 0.024 -0.3168 0.0074 -0.3223 0.5292 0 -0.0096 0.3471 -0.026 0.3436 -0.0425 0.339 -0.0602 0.3336 -0.0756 0.3269 -0.0907 0.321 -0.1062 0.3145 -0.1215 0.3076 -0.1353 0.3004 -0.1496 0.2916 -0.1627 0.2826 -0.1752 0.2751 -0.1885 0.2651 -0.2011 0.2548 -0.2125 0.2462 -0.2245 0.235 -0.234 0.2234 -0.2461 0.2126 -0.2549 0.2011 -0.2651 0.1885 -0.2751 0.1752 -0.2825 0.1627 -0.2917 0.1496 -0.3003 0.1353 -0.3076 0.1215 -0.3145 0.1062 -0.3209 0.0907 -0.327 0.0756 -0.3336 0.0602 -0.3389 0.0425 -0.3436 0.026 -0.3471 0.0095 0 0zm0 -0.529l0 0.529 -0.0136 -0.0003 -0.0134 -0.0011 -0.0133 -0.0016 -0.013 -0.0024 -0.0128 -0.0029 -0.0126 -0.0036 -0.0123 -0.0042 -0.012 -0.0047 -0.0117 -0.0053 -0.0114 -0.0058 -0.0111 -0.0064 -0.0107 -0.0069 -0.0104 -0.0074 -0.01 -0.0078 -0.0096 -0.0083 -0.0092 -0.0088 -0.0087 -0.0092 -0.0084 -0.0096 -0.0078 -0.01 -0.0074 -0.0104 -0.0069 -0.0107 -0.0064 -0.0111 -0.0058 -0.0114 -0.0053 -0.0117 -0.0047 -0.012 -0.0042 -0.0123 -0.0036 -0.0125 -0.0029 -0.0128 -0.0024 -0.013 -0.0016 -0.0133 -0.0011 -0.0134 -0.0003 -0.0136 0.0003 -0.0136 0.0011 -0.0134 0.0016 -0.0133 0.0024 -0.013 0.0029 -0.0128 0.0036 -0.0125 0.0042 -0.0123 0.0047 -0.012 0.0053 -0.0117 0.0058 -0.0114 0.0064 -0.0111 0.0069 -0.0107 0.0074 -0.0104 0.0078 -0.01 0.0084 -0.0096 0.0087 -0.0092 0.0092 -0.0088 0.0096 -0.0083 0.01 -0.0078 0.0104 -0.0074 0.0107 -0.0069 0.0111 -0.0064 0.0114 -0.0058 0.0117 -0.0053 0.012 -0.0047 0.0123 -0.0042 0.0126 -0.0036 0.0128 -0.0029 0.013 -0.0024 0.0133 -0.0016 0.0134 -0.0011 0.0136 -0.0003zm-6.7646 -6.2357l0.5292 0 0 0 0.0074 0.3223 0.0241 0.3168 0.0402 0.312 0.0541 0.3068 0.0695 0.3021 0.0845 0.2962 0.0981 0.2897 0.1112 0.2828 0.1251 0.2756 0.1373 0.2688 0.1504 0.262 0.1628 0.2523 0.173 0.2445 0.1858 0.2362 0.196 0.2256 0.2059 0.2164 0.2175 0.2068 0.2255 0.196 0.2363 0.1847 0.2445 0.1739 0.2524 0.1628 0.2619 0.1503 0.2688 0.1372 0.2755 0.1251 0.2828 0.1111 0.2906 0.098 0.295 0.0845 0.3021 0.0694 0.3066 0.054 0.3118 0.0403 0.3167 0.024 0.322 0.0075 0 0.529 -0.3468 -0.0095 -0.3435 -0.026 -0.3388 -0.0425 -0.3334 -0.0602 -0.3269 -0.0756 -0.3218 -0.0907 -0.3134 -0.1062 -0.3076 -0.1215 -0.3003 -0.1353 -0.2916 -0.1496 -0.2825 -0.1627 -0.2752 -0.1752 -0.2651 -0.1885 -0.2549 -0.2011 -0.2461 -0.2126 -0.2341 -0.2234 -0.2245 -0.235 -0.2126 -0.2462 -0.2002 -0.2548 -0.1896 -0.2651 -0.1752 -0.2751 -0.1628 -0.2826 -0.1497 -0.2916 -0.1353 -0.3004 -0.1216 -0.3076 -0.1063 -0.3145 -0.0907 -0.321 -0.0757 -0.3269 -0.0603 -0.3336 -0.0424 -0.339 -0.0261 -0.3436 -0.0096 -0.3471 0 0zm0.5292 0l-0.5292 0 0.0003 -0.0136 0.0011 -0.0134 0.0016 -0.0133 0.0024 -0.013 0.0029 -0.0128 0.0036 -0.0125 0.0042 -0.0123 0.0047 -0.012 0.0053 -0.0117 0.0058 -0.0114 0.0064 -0.0111 0.0069 -0.0107 0.0074 -0.0104 0.0078 -0.01 0.0084 -0.0096 0.0087 -0.0092 0.0092 -0.0088 0.0096 -0.0083 0.01 -0.0078 0.0104 -0.0074 0.0107 -0.0069 0.0111 -0.0064 0.0114 -0.0058 0.0117 -0.0053 0.012 -0.0047 0.0123 -0.0042 0.0126 -0.0036 0.0128 -0.0029 0.013 -0.0024 0.0133 -0.0016 0.0134 -0.0011 0.0136 -0.0003 0.0136 0.0003 0.0134 0.0011 0.0133 0.0016 0.013 0.0024 0.0128 0.0029 0.0126 0.0036 0.0123 0.0042 0.012 0.0047 0.0117 0.0053 0.0114 0.0058 0.0111 0.0064 0.0107 0.0069 0.0104 0.0074 0.01 0.0078 0.0096 0.0083 0.0092 0.0088 0.0087 0.0092 0.0084 0.0096 0.0078 0.01 0.0074 0.0104 0.0069 0.0107 0.0064 0.0111 0.0058 0.0114 0.0053 0.0117 0.0047 0.012 0.0042 0.0123 0.0036 0.0125 0.0029 0.0128 0.0024 0.013 0.0016 0.0133 0.0011 0.0134 0.0003 0.0136zm6.2354 -6.7645l0 0.529 0 0 -0.322 0.0075 -0.3167 0.0241 -0.3118 0.0402 -0.3066 0.0541 -0.3021 0.0695 -0.295 0.0845 -0.2896 0.0981 -0.2838 0.1112 -0.2755 0.1251 -0.2688 0.1373 -0.2619 0.1504 -0.2524 0.1628 -0.2445 0.173 -0.2363 0.1858 -0.2255 0.196 -0.2165 0.2069 -0.2069 0.2165 -0.196 0.2255 -0.1858 0.2363 -0.173 0.2445 -0.1628 0.2524 -0.1504 0.2619 -0.1373 0.2688 -0.1251 0.2755 -0.1112 0.2838 -0.0981 0.2896 -0.0845 0.295 -0.0695 0.3021 -0.0541 0.3066 -0.0402 0.3118 -0.0241 0.3167 -0.0074 0.322 -0.5292 0 0.0096 -0.3468 0.0261 -0.3435 0.0424 -0.3388 0.0603 -0.3334 0.0757 -0.3269 0.0907 -0.3218 0.1063 -0.3144 0.1216 -0.3066 0.1353 -0.3003 0.1497 -0.2916 0.1628 -0.2825 0.1752 -0.2752 0.1896 -0.2651 0.2002 -0.2549 0.2126 -0.2461 0.2235 -0.2351 0.2351 -0.2235 0.2461 -0.2126 0.2549 -0.2002 0.2651 -0.1896 0.2752 -0.1752 0.2825 -0.1628 0.2916 -0.1497 0.3003 -0.1353 0.3066 -0.1216 0.3144 -0.1063 0.3218 -0.0907 0.3269 -0.0757 0.3334 -0.0603 0.3388 -0.0424 0.3435 -0.0261 0.3468 -0.0095 0 0zm0 0.529l0 -0.529 0.0136 0.0003 0.0134 0.0011 0.0133 0.0016 0.013 0.0024 0.0128 0.0029 0.0126 0.0036 0.0123 0.0042 0.012 0.0047 0.0117 0.0053 0.0114 0.0058 0.0111 0.0064 0.0107 0.0069 0.0104 0.0074 0.01 0.0078 0.0096 0.0083 0.0092 0.0088 0.0087 0.0092 0.0084 0.0096 0.0078 0.01 0.0074 0.0104 0.0069 0.0107 0.0064 0.0111 0.0058 0.0114 0.0053 0.0117 0.0047 0.012 0.0042 0.0123 0.0036 0.0125 0.0029 0.0128 0.0024 0.013 0.0016 0.0133 0.0011 0.0134 0.0003 0.0136 -0.0003 0.0136 -0.0011 0.0134 -0.0016 0.0133 -0.0024 0.013 -0.0029 0.0128 -0.0036 0.0125 -0.0042 0.0123 -0.0047 0.012 -0.0053 0.0117 -0.0058 0.0114 -0.0064 0.0111 -0.0069 0.0107 -0.0074 0.0104 -0.0078 0.01 -0.0084 0.0096 -0.0087 0.0092 -0.0092 0.0088 -0.0096 0.0083 -0.01 0.0078 -0.0104 0.0074 -0.0107 0.0069 -0.0111 0.0064 -0.0114 0.0058 -0.0117 0.0053 -0.012 0.0047 -0.0123 0.0042 -0.0126 0.0036 -0.0128 0.0029 -0.013 0.0024 -0.0133 0.0016 -0.0134 0.0011 -0.0136 0.0003zm6.7646 6.2355l-0.5292 0 0 0 -0.0074 -0.322 -0.024 -0.3167 -0.0403 -0.3118 -0.054 -0.3066 -0.0694 -0.3021 -0.0845 -0.295 -0.098 -0.2906 -0.1111 -0.2828 -0.1251 -0.2755 -0.1372 -0.2688 -0.1503 -0.2619 -0.1628 -0.2524 -0.1739 -0.2445 -0.1847 -0.2363 -0.1959 -0.2255 -0.2069 -0.2165 -0.2164 -0.2069 -0.2255 -0.196 -0.2363 -0.1858 -0.2445 -0.173 -0.2523 -0.1628 -0.2619 -0.1504 -0.2689 -0.1373 -0.2755 -0.1251 -0.2828 -0.1112 -0.2897 -0.0981 -0.2961 -0.0845 -0.3022 -0.0695 -0.3068 -0.0541 -0.3119 -0.0402 -0.3168 -0.0241 -0.3223 -0.0075 0 -0.529 0.3471 0.0095 0.3436 0.0261 0.3389 0.0424 0.3336 0.0603 0.327 0.0757 0.3209 0.0907 0.3145 0.1063 0.3076 0.1216 0.3003 0.1353 0.2917 0.1497 0.2825 0.1628 0.2751 0.1752 0.2651 0.1896 0.2549 0.2002 0.2461 0.2126 0.235 0.2235 0.2235 0.2351 0.2125 0.2461 0.2011 0.2549 0.1885 0.2651 0.1752 0.2752 0.1627 0.2825 0.1496 0.2916 0.1353 0.3003 0.1215 0.3076 0.1062 0.3134 0.0907 0.3218 0.0756 0.3269 0.0602 0.3334 0.0425 0.3388 0.026 0.3435 0.0096 0.3468 0 0zm-0.5292 0l0.5292 0 -0.0003 0.0136 -0.0011 0.0134 -0.0016 0.0133 -0.0024 0.013 -0.0029 0.0128 -0.0036 0.0125 -0.0042 0.0123 -0.0047 0.012 -0.0053 0.0117 -0.0058 0.0114 -0.0064 0.0111 -0.0069 0.0107 -0.0074 0.0104 -0.0078 0.01 -0.0084 0.0096 -0.0087 0.0092 -0.0092 0.0088 -0.0096 0.0083 -0.01 0.0078 -0.0104 0.0074 -0.0107 0.0069 -0.0111 0.0064 -0.0114 0.0058 -0.0117 0.0053 -0.012 0.0047 -0.0123 0.0042 -0.0126 0.0036 -0.0128 0.0029 -0.013 0.0024 -0.0133 0.0016 -0.0134 0.0011 -0.0136 0.0003 -0.0136 -0.0003 -0.0134 -0.0011 -0.0133 -0.0016 -0.013 -0.0024 -0.0128 -0.0029 -0.0126 -0.0036 -0.0123 -0.0042 -0.012 -0.0047 -0.0117 -0.0053 -0.0114 -0.0058 -0.0111 -0.0064 -0.0107 -0.0069 -0.0104 -0.0074 -0.01 -0.0078 -0.0096 -0.0083 -0.0092 -0.0088 -0.0087 -0.0092 -0.0084 -0.0096 -0.0078 -0.01 -0.0074 -0.0104 -0.0069 -0.0107 -0.0064 -0.0111 -0.0058 -0.0114 -0.0053 -0.0117 -0.0047 -0.012 -0.0042 -0.0123 -0.0036 -0.0125 -0.0029 -0.0128 -0.0024 -0.013 -0.0016 -0.0133 -0.0011 -0.0134 -0.0003 -0.0136z"/>
   </g>
  </g>
 </g>
</svg>
