# Alias OBJ Model File
# Exported from SketchUp, (c) 2000-2012 Trimble Navigation Limited
# File units = millimeters

mtllib HL-SM-04-03-HL.mtl

g Mesh1 Component_7_1 Model

usemtl FrontColor
v 4.99872 13.1545 2
vt -0.1968 0.517891
vn 0 0 -1
v -8.4599e-015 6.24217 2
vt 0 0.245751
v -8.4599e-015 13.1545 2
vt 0 0.517891
f 1/1/1 2/2/1 3/3/1

v -8.4599e-015 5.74217 2
vt 0 0.226066
f 2/2/1 1/1/1 4/4/1

v 1.20075 7.32742 2
vt -0.0472738 0.288477
f 4/4/1 1/1/1 5/5/1

v 1.43907 7.638 2
vt -0.0566564 0.300705
f 5/5/1 1/1/1 6/6/1

v 1.74965 7.87632 2
vt -0.0688839 0.310087
f 6/6/1 1/1/1 7/7/1

v 2.11133 8.02613 2
vt -0.0831233 0.315986
f 7/7/1 1/1/1 8/8/1

v 2.49946 8.07723 2
vt -0.0984039 0.317997
f 8/8/1 1/1/1 9/9/1

v 2.88759 8.02613 2
vt -0.113685 0.315986
f 9/9/1 1/1/1 10/10/1

v 3.24927 7.87632 2
vt -0.127924 0.310087
f 10/10/1 1/1/1 11/11/1

v 3.55985 7.638 2
vt -0.140152 0.300705
f 11/11/1 1/1/1 12/12/1

v 3.79817 7.32742 2
vt -0.149534 0.288477
f 12/12/1 1/1/1 13/13/1

v 3.94798 6.96574 2
vt -0.155432 0.274238
f 13/13/1 1/1/1 14/14/1

v 3.99908 6.57762 2
vt -0.157444 0.258957
f 14/14/1 1/1/1 15/15/1

v 4.99872 9.99744e-005 2
vt -0.1968 0
f 16/16/1 15/15/1 1/1/1

v 3.94798 6.18949 2
vt -0.155432 0.243677
f 16/16/1 17/17/1 15/15/1

v 3.79817 5.82781 2
vt -0.149534 0.229437
f 16/16/1 18/18/1 17/17/1

v 3.55985 5.51723 2
vt -0.140152 0.21721
f 16/16/1 19/19/1 18/18/1

v 3.24927 5.27891 2
vt -0.127924 0.207827
f 16/16/1 20/20/1 19/19/1

v 2.88759 5.1291 2
vt -0.113685 0.201929
f 16/16/1 21/21/1 20/20/1

v 2.49946 5.078 2
vt -0.0984039 0.199917
f 16/16/1 22/22/1 21/21/1

v 2.11133 5.1291 2
vt -0.0831233 0.201929
f 16/16/1 23/23/1 22/22/1

v 1.74965 5.27891 2
vt -0.0688839 0.207827
f 16/16/1 24/24/1 23/23/1

v 1.43907 5.51723 2
vt -0.0566564 0.21721
f 16/16/1 25/25/1 24/24/1

v 1.20075 5.82781 2
vt -0.0472738 0.229437
f 16/16/1 26/26/1 25/25/1

v -8.4599e-015 9.99744e-005 2
vt 0 0
f 27/27/1 26/26/1 16/16/1

v 1.05094 6.18949 2
vt -0.0413757 0.243677
f 26/26/1 27/27/1 28/28/1

v 0.999844 6.57762 2
vt -0.0393639 0.258957
f 28/28/1 27/27/1 29/29/1

v 1.05094 6.96574 2
vt -0.0413757 0.274238
f 27/27/1 30/30/1 29/29/1

f 4/4/1 30/30/1 27/27/1

f 4/4/1 5/5/1 30/30/1

vt 0.269197 0
vn 0.965926 -0.258819 0
vt 0.284609 0
vn 0.866025 -0.5 0
v 1.20075 7.32742 10
vt 0.284609 0.314961
v 1.05094 6.96574 10
vt 0.269197 0.314961
f 30/31/2 5/32/3 31/33/3 32/34/2 

vt 0.257643 0
vt 0.273055 0
vn 0.707107 -0.707107 0
v 1.43907 7.638 10
vt 0.273055 0.314961
vt 0.257643 0.314961
f 5/35/3 6/36/4 33/37/4 31/38/3 

vt 0.228006 0
vt 0.243419 0
vn 0.5 -0.866025 0
v 1.74965 7.87632 10
vt 0.243419 0.314961
vt 0.228006 0.314961
f 6/39/4 7/40/5 34/41/5 33/42/4 

vt 0.182306 0
vt 0.197718 0
vn 0.258819 -0.965926 0
v 2.11133 8.02613 10
vt 0.197718 0.314961
vt 0.182306 0.314961
f 7/43/5 8/44/6 35/45/6 34/46/5 

vt 0.123657 0
vt 0.139069 0
vn 9.37835e-016 -1 0
v 2.49946 8.07723 10
vt 0.139069 0.314961
vt 0.123657 0.314961
f 8/47/6 9/48/7 36/49/7 35/50/6 

vt 0.0560551 0
vt 0.0714676 0
vn -0.258819 -0.965926 0
v 2.88759 8.02613 10
vt 0.0714676 0.314961
vt 0.0560551 0.314961
f 9/51/7 10/52/8 37/53/8 36/54/7 

vt -0.0158916 0
vt -0.000479024 0
vn -0.5 -0.866025 0
v 3.24927 7.87632 10
vt -0.000479024 0.314961
vt -0.0158916 0.314961
f 10/55/8 11/56/9 38/57/9 37/58/8 

vt -0.0872804 0
vt -0.0718679 0
vn -0.707107 -0.707107 0
v 3.55985 7.638 10
vt -0.0718679 0.314961
vt -0.0872804 0.314961
f 11/59/9 12/60/10 39/61/10 38/62/9 

vt -0.153246 0
vt -0.137834 0
vn -0.866025 -0.5 0
v 3.79817 7.32742 10
vt -0.137834 0.314961
vt -0.153246 0.314961
f 12/63/10 13/64/11 40/65/11 39/66/10 

vt -0.209294 0
vt -0.193882 0
vn -0.965926 -0.258819 0
v 3.94798 6.96574 10
vt -0.193882 0.314961
vt -0.209294 0.314961
f 13/67/11 14/68/12 41/69/12 40/70/11 

vt -0.251604 0
vt -0.236191 0
vn -1 1.1198e-016 0
v 3.99908 6.57762 10
vt -0.236191 0.314961
vt -0.251604 0.314961
f 14/71/12 15/72/13 42/73/13 41/74/12 

vt -0.277292 0
vt -0.26188 0
vn -0.965926 0.258819 0
v 3.94798 6.18949 10
vt -0.26188 0.314961
vt -0.277292 0.314961
f 15/75/13 17/76/14 43/77/14 42/78/13 

vt -0.284609 0
vt -0.269197 0
vn -0.866025 0.5 0
v 3.79817 5.82781 10
vt -0.269197 0.314961
vt -0.284609 0.314961
f 17/79/14 18/80/15 44/81/15 43/82/14 

vt -0.273055 0
vt -0.257643 0
vn -0.707107 0.707107 0
v 3.55985 5.51723 10
vt -0.257643 0.314961
vt -0.273055 0.314961
f 18/83/15 19/84/16 45/85/16 44/86/15 

vt -0.243419 0
vt -0.228006 0
vn -0.5 0.866025 0
v 3.24927 5.27891 10
vt -0.228006 0.314961
vt -0.243419 0.314961
f 19/87/16 20/88/17 46/89/17 45/90/16 

vt -0.197718 0
vt -0.182306 0
vn -0.258819 0.965926 0
v 2.88759 5.1291 10
vt -0.182306 0.314961
vt -0.197718 0.314961
f 20/91/17 21/92/18 47/93/18 46/94/17 

vt -0.139069 0
vt -0.123657 0
vn 9.37835e-016 1 0
v 2.49946 5.078 10
vt -0.123657 0.314961
vt -0.139069 0.314961
f 21/95/18 22/96/19 48/97/19 47/98/18 

vt -0.0714676 0
vt -0.0560551 0
vn 0.258819 0.965926 0
v 2.11133 5.1291 10
vt -0.0560551 0.314961
vt -0.0714676 0.314961
f 22/99/19 23/100/20 49/101/20 48/102/19 

vt 0.000479024 0
vt 0.0158916 0
vn 0.5 0.866025 0
v 1.74965 5.27891 10
vt 0.0158916 0.314961
vt 0.000479024 0.314961
f 23/103/20 24/104/21 50/105/21 49/106/20 

vt 0.0718679 0
vt 0.0872804 0
vn 0.707107 0.707107 0
v 1.43907 5.51723 10
vt 0.0872804 0.314961
vt 0.0718679 0.314961
f 24/107/21 25/108/22 51/109/22 50/110/21 

vt 0.137834 0
vt 0.153246 0
vn 0.866025 0.5 0
v 1.20075 5.82781 10
vt 0.153246 0.314961
vt 0.137834 0.314961
f 25/111/22 26/112/23 52/113/23 51/114/22 

vt 0.193882 0
vt 0.209294 0
vn 0.965926 0.258819 0
v 1.05094 6.18949 10
vt 0.209294 0.314961
vt 0.193882 0.314961
f 26/115/23 28/116/24 53/117/24 52/118/23 

vt 0.236191 0
vt 0.251604 0
vn 1 1.1198e-016 0
v 0.999844 6.57762 10
vt 0.251604 0.314961
vt 0.236191 0.314961
f 28/119/24 29/120/25 54/121/25 53/122/24 

vt 0.26188 0
vt 0.277292 0
vt 0.277292 0.314961
vt 0.26188 0.314961
f 29/123/25 30/124/2 32/125/2 54/126/25 

vt 0.0413757 0.274238
vn 0 0 1
v -8.4599e-015 13.1545 10
vt 0.0393639 0.258957
f 32/127/26 55/3/26 54/128/26

vt 0.0472738 0.288477
f 31/129/26 55/3/26 32/127/26

v 4.99872 13.1545 10
vt 0.1968 0.517891
f 55/3/26 31/129/26 56/130/26

vt 0.0566564 0.300705
f 56/130/26 31/129/26 33/131/26

vt 0.0688839 0.310087
f 56/130/26 33/131/26 34/132/26

vt 0.0831233 0.315986
f 56/130/26 34/132/26 35/133/26

vt 0.0984039 0.317997
f 56/130/26 35/133/26 36/134/26

vt 0.113685 0.315986
f 56/130/26 36/134/26 37/135/26

vt 0.127924 0.310087
f 56/130/26 37/135/26 38/136/26

vt 0.140152 0.300705
f 56/130/26 38/136/26 39/137/26

vt 0.149534 0.288477
f 56/130/26 39/137/26 40/138/26

vt 0.155432 0.274238
f 56/130/26 40/138/26 41/139/26

vt 0.157444 0.258957
f 56/130/26 41/139/26 42/140/26

v 4.99872 9.99744e-005 10
vt 0.1968 0
f 56/130/26 42/140/26 57/141/26

vt 0.155432 0.243677
f 43/142/26 57/141/26 42/140/26

vt 0.149534 0.229437
f 44/143/26 57/141/26 43/142/26

vt 0.140152 0.21721
f 45/144/26 57/141/26 44/143/26

vt 0.127924 0.207827
f 46/145/26 57/141/26 45/144/26

vt 0.113685 0.201929
f 47/146/26 57/141/26 46/145/26

vt 0.0984039 0.199917
f 48/147/26 57/141/26 47/146/26

vt 0.0831233 0.201929
f 49/148/26 57/141/26 48/147/26

vt 0.0688839 0.207827
f 50/149/26 57/141/26 49/148/26

vt 0.0566564 0.21721
f 51/150/26 57/141/26 50/149/26

vt 0.0472738 0.229437
f 52/151/26 57/141/26 51/150/26

v -8.4599e-015 6.24217 10
f 58/2/26 57/141/26 52/151/26

v -8.4599e-015 5.74217 10
f 59/4/26 57/141/26 58/2/26

v -8.4599e-015 9.99744e-005 10
f 57/141/26 59/4/26 60/27/26

vt -0.226066 0
vn -1 0 0
vt 0 0.314961
vt -0.226066 0.314961
f 4/152/27 27/27/27 60/153/27 59/154/27 

vn 0 -1 0
vt 0.1968 0.314961
f 27/27/28 16/141/28 57/155/28 60/153/28 

vn 1 0 0
vt 0.517891 0
vt 0.517891 0.314961
f 16/27/29 1/156/29 56/157/29 57/153/29 

vn 0 1 0
vt -0.1968 0.314961
f 1/16/30 3/27/30 55/153/30 56/158/30 

vt -0.517891 0
vt -0.245751 0
vt -0.245751 0.314961
vt -0.517891 0.314961
f 3/159/27 2/160/27 58/161/27 55/162/27 

f 2/160/27 4/152/27 59/154/27 58/161/27 

vt 0.0413757 0.243677
f 58/2/26 53/163/26 55/3/26

f 58/2/26 52/151/26 53/163/26

f 55/3/26 53/163/26 54/128/26

g Mesh2 Model

v 1.10155e-017 1.91452 0
vt -4.33681e-019 0.0753749
v 1.10155e-017 2.53835 0
vt -4.33681e-019 0.0999349
v 0 5.07659 0
vt 0 0.199866
v 0.149281 4.99041 0
vt -0.00587719 0.196473
v 0.58745 4.73744 0
vt -0.0231279 0.186513
v 1.02562 4.48447 0
vt -0.0403787 0.176554
v 1.22479 4.36948 0
vt -0.0482199 0.172027
v 1.42395 4.25448 0
vt -0.0560612 0.167499
v 1.86212 4.00148 0
vt -0.0733119 0.157538
v 2.30029 3.74847 0
vt -0.0905627 0.147578
v 2.49946 3.63347 0
vt -0.0984039 0.14305
v 2.69863 3.74847 0
vt -0.106245 0.147578
v 3.1368 4.00148 0
vt -0.123496 0.157538
v 3.57497 4.25448 0
vt -0.140747 0.167499
v 3.77413 4.36948 0
vt -0.148588 0.172027
v 3.9733 4.48447 0
vt -0.156429 0.176554
v 4.41147 4.73744 0
vt -0.17368 0.186513
v 4.84964 4.99041 0
vt -0.190931 0.196473
v 4.99872 5.07648 0
vt -0.1968 0.199861
v 4.99872 9.99744e-005 0
vt -0.1968 3.936e-006
v 1.10155e-017 9.99744e-005 0
vt -4.33681e-019 3.936e-006
f 61/164/1 62/165/1 63/166/1 64/167/1 65/168/1 66/169/1 67/170/1 68/171/1 69/172/1 70/173/1 71/174/1 72/175/1 73/176/1 74/177/1 75/178/1 76/179/1 77/180/1 78/181/1 79/182/1 80/183/1 81/184/1 

vt -0.0999349 0
vt -0.0753749 0
v 1.10155e-017 1.91452 2
vt -0.0753749 0.0787402
v 1.10155e-017 2.53835 2
vt -0.0999349 0.0787402
f 62/185/27 61/186/27 82/187/27 83/188/27 

vt -3.936e-006 0
v 1.10155e-017 9.99744e-005 2
vt -3.936e-006 0.0787402
f 61/186/27 81/189/27 84/190/27 82/187/27 

vt 4.33681e-019 0
v 4.99872 9.99744e-005 2
vt 0.1968 0.0787402
vt 4.33681e-019 0.0787402
f 81/191/28 80/141/28 85/192/28 84/193/28 

vt 3.936e-006 0
vt 0.199861 0
v 4.99872 5.07648 2
vt 0.199861 0.0787402
vt 3.936e-006 0.0787402
f 80/194/29 79/195/29 86/196/29 85/197/29 

vt -0.270363 0
vn -0.499989 0.866032 0
vt -0.263586 0
v 4.84964 4.99041 2
vt -0.263586 0.0787402
vt -0.270363 0.0787402
f 79/198/31 78/199/31 87/200/31 86/201/31 

vt -0.243667 0
v 4.41147 4.73744 2
vt -0.243667 0.0787402
f 78/199/31 77/202/31 88/203/31 87/200/31 

vt -0.223748 0
v 3.9733 4.48447 2
vt -0.223748 0.0787402
f 77/202/31 76/204/31 89/205/31 88/203/31 

vt -0.214693 0
v 3.77413 4.36948 2
vt -0.214693 0.0787402
f 76/204/31 75/206/31 90/207/31 89/205/31 

vt -0.214698 0
vn -0.50004 0.866002 0
vt -0.205643 0
v 3.57497 4.25448 2
vt -0.205643 0.0787402
vt -0.214698 0.0787402
f 75/208/32 74/209/32 91/210/32 90/211/32 

vt -0.185723 0
v 3.1368 4.00148 2
vt -0.185723 0.0787402
f 74/209/32 73/212/32 92/213/32 91/210/32 

vt -0.165803 0
v 2.69863 3.74847 2
vt -0.165803 0.0787402
f 73/212/32 72/214/32 93/215/32 92/213/32 

vt -0.156749 0
v 2.49946 3.63347 2
vt -0.156749 0.0787402
f 72/214/32 71/216/32 94/217/32 93/215/32 

vt -0.0136873 0
vn 0.50004 0.866002 0
vt -0.0046328 0
v 2.30029 3.74847 2
vt -0.0046328 0.0787402
vt -0.0136873 0.0787402
f 71/218/33 70/219/33 95/220/33 94/221/33 

vt 0.0152872 0
v 1.86212 4.00148 2
vt 0.0152872 0.0787402
f 70/219/33 69/222/33 96/223/33 95/220/33 

vt 0.0352072 0
v 1.42395 4.25448 2
vt 0.0352072 0.0787402
f 69/222/33 68/224/33 97/225/33 96/223/33 

vt 0.0442617 0
v 1.22479 4.36948 2
vt 0.0442617 0.0787402
f 68/224/33 67/226/33 98/227/33 97/225/33 

vt 0.0442515 0
vn 0.499989 0.866032 0
vt 0.0533057 0
v 1.02562 4.48447 2
vt 0.0533057 0.0787402
vt 0.0442515 0.0787402
f 67/228/34 66/229/34 99/230/34 98/231/34 

vt 0.0732251 0
v 0.58745 4.73744 2
vt 0.0732251 0.0787402
f 66/229/34 65/232/34 100/233/34 99/230/34 

vt 0.0931444 0
v 0.149281 4.99041 2
vt 0.0931444 0.0787402
f 65/232/34 64/234/34 101/235/34 100/233/34 

vt 0.0999307 0
v 0 5.07659 2
vt 0.0999307 0.0787402
f 64/234/34 63/236/34 102/237/34 101/235/34 

vt -0.199866 0
vn -1 -4.33981e-018 0
vt -0.199866 0.0787402
f 63/238/35 62/185/35 83/188/35 102/239/35 

vt 4.33681e-019 0.0999349
vt 4.33681e-019 0.0753749
vt 4.33681e-019 3.936e-006
vt 0.1968 3.936e-006
vt 0.1968 0.199861
vt 0.190931 0.196473
vt 0.17368 0.186513
vt 0.156429 0.176554
vt 0.148588 0.172027
vt 0.140747 0.167499
vt 0.123496 0.157538
vt 0.106245 0.147578
vt 0.0984039 0.14305
vt 0.0905627 0.147578
vt 0.0733119 0.157538
vt 0.0560612 0.167499
vt 0.0482199 0.172027
vt 0.0403787 0.176554
vt 0.0231279 0.186513
vt 0.00587719 0.196473
f 83/240/26 82/241/26 84/242/26 85/243/26 86/244/26 87/245/26 88/246/26 89/247/26 90/248/26 91/249/26 92/250/26 93/251/26 94/252/26 95/253/26 96/254/26 97/255/26 98/256/26 99/257/26 100/258/26 101/259/26 102/166/26 

g Mesh3 Model

v 1.10155e-017 9.69916 0
vt -4.33681e-019 0.381857
v 1.10155e-017 10.2992 0
vt -4.33681e-019 0.405479
v 1.10155e-017 13.1545 0
vt -4.33681e-019 0.517895
v 4.99872 13.1545 0
vt -0.1968 0.517895
v 4.99872 8.07816 0
vt -0.1968 0.318038
v 4.84964 8.16423 0
vt -0.190931 0.321426
v 4.41147 8.41719 0
vt -0.17368 0.331386
v 3.9733 8.67016 0
vt -0.156429 0.341345
v 3.77413 8.78515 0
vt -0.148588 0.345872
v 3.57497 8.90015 0
vt -0.140747 0.3504
v 3.1368 9.15316 0
vt -0.123496 0.36036
v 2.69863 9.40616 0
vt -0.106245 0.370321
v 2.49946 9.52116 0
vt -0.0984039 0.374849
v 2.30029 9.40616 0
vt -0.0905627 0.370321
v 1.86212 9.15316 0
vt -0.0733119 0.36036
v 1.42395 8.90015 0
vt -0.0560612 0.3504
v 1.22479 8.78515 0
vt -0.0482199 0.345872
v 1.02562 8.67016 0
vt -0.0403787 0.341345
v 0.58745 8.41719 0
vt -0.0231279 0.331386
v 0.149281 8.16423 0
vt -0.00587719 0.321426
v 1.10155e-017 8.07804 0
vt -4.33681e-019 0.318033
f 103/260/1 104/261/1 105/262/1 106/263/1 107/264/1 108/265/1 109/266/1 110/267/1 111/268/1 112/269/1 113/270/1 114/271/1 115/272/1 116/273/1 117/274/1 118/275/1 119/276/1 120/277/1 121/278/1 122/279/1 123/280/1 

vt -0.405479 0
vt -0.381857 0
v 1.10155e-017 9.69916 2
vt -0.381857 0.0787402
v 1.10155e-017 10.2992 2
vt -0.405479 0.0787402
f 104/281/27 103/282/27 124/283/27 125/284/27 

vt -0.318033 0
v 1.10155e-017 8.07804 2
vt -0.318033 0.0787402
f 103/282/27 123/285/27 126/286/27 124/283/27 

vt 0.159013 0
vn 0.499989 -0.866032 0
vt 0.165799 0
v 0.149281 8.16423 2
vt 0.165799 0.0787402
vt 0.159013 0.0787402
f 123/287/36 122/288/36 127/289/36 126/290/36 

vt 0.185719 0
v 0.58745 8.41719 2
vt 0.185719 0.0787402
f 122/288/36 121/291/36 128/292/36 127/289/36 

vt 0.205638 0
v 1.02562 8.67016 2
vt 0.205638 0.0787402
f 121/291/36 120/293/36 129/294/36 128/292/36 

vt 0.214692 0
v 1.22479 8.78515 2
vt 0.214692 0.0787402
f 120/293/36 119/295/36 130/296/36 129/294/36 

vt 0.214708 0
vn 0.50004 -0.866002 0
vt 0.223763 0
v 1.42395 8.90015 2
vt 0.223763 0.0787402
vt 0.214708 0.0787402
f 119/297/37 118/298/37 131/299/37 130/300/37 

vt 0.243683 0
v 1.86212 9.15316 2
vt 0.243683 0.0787402
f 118/298/37 117/301/37 132/302/37 131/299/37 

vt 0.263603 0
v 2.30029 9.40616 2
vt 0.263603 0.0787402
f 117/301/37 116/303/37 133/304/37 132/302/37 

vt 0.272657 0
v 2.49946 9.52116 2
vt 0.272657 0.0787402
f 116/303/37 115/305/37 134/306/37 133/304/37 

vt -0.102221 0
vn -0.50004 -0.866002 0
vt -0.0931668 0
v 2.69863 9.40616 2
vt -0.0931668 0.0787402
vt -0.102221 0.0787402
f 115/307/38 114/308/38 135/309/38 134/310/38 

vt -0.0732469 0
v 3.1368 9.15316 2
vt -0.0732469 0.0787402
f 114/308/38 113/311/38 136/312/38 135/309/38 

vt -0.0533269 0
v 3.57497 8.90015 2
vt -0.0533269 0.0787402
f 113/311/38 112/313/38 137/314/38 136/312/38 

vt -0.0442723 0
v 3.77413 8.78515 2
vt -0.0442723 0.0787402
f 112/313/38 111/315/38 138/316/38 137/314/38 

vt -0.0442504 0
vn -0.499989 -0.866032 0
vt -0.0351961 0
v 3.9733 8.67016 2
vt -0.0351961 0.0787402
vt -0.0442504 0.0787402
f 111/317/39 110/318/39 139/319/39 138/320/39 

vt -0.0152768 0
v 4.41147 8.41719 2
vt -0.0152768 0.0787402
f 110/318/39 109/321/39 140/322/39 139/319/39 

vt 0.00464248 0
v 4.84964 8.16423 2
vt 0.00464248 0.0787402
f 109/321/39 108/323/39 141/324/39 140/322/39 

vt 0.0114197 0
v 4.99872 8.07816 2
vt 0.0114197 0.0787402
f 108/323/39 107/325/39 142/326/39 141/324/39 

vt 0.318038 0
vt 0.517895 0
vt 0.517895 0.0787402
vt 0.318038 0.0787402
f 107/327/29 106/328/29 1/329/29 142/330/29 

vt -4.33681e-019 0
v 1.10155e-017 13.1545 2
vt -4.33681e-019 0.0787402
vt -0.1968 0.0787402
f 106/16/30 105/331/30 143/332/30 1/333/30 

vt -0.517895 0
vt -0.517895 0.0787402
f 105/334/27 104/281/27 125/284/27 143/335/27 

vt 4.33681e-019 0.405479
vt 4.33681e-019 0.381857
vt 4.33681e-019 0.318033
vt 0.00587719 0.321426
vt 0.0231279 0.331386
vt 0.0403787 0.341345
vt 0.0482199 0.345872
vt 0.0560612 0.3504
vt 0.0733119 0.36036
vt 0.0905627 0.370321
vt 0.0984039 0.374849
vt 0.106245 0.370321
vt 0.123496 0.36036
vt 0.140747 0.3504
vt 0.148588 0.345872
vt 0.156429 0.341345
vt 0.17368 0.331386
vt 0.190931 0.321426
vt 0.1968 0.318038
vt 0.1968 0.517895
vt 4.33681e-019 0.517895
f 125/336/26 124/337/26 126/338/26 127/339/26 128/340/26 129/341/26 130/342/26 131/343/26 132/344/26 133/345/26 134/346/26 135/347/26 136/348/26 137/349/26 138/350/26 139/351/26 140/352/26 141/353/26 142/354/26 1/355/26 143/356/26 

