  0
SECTION
  2
HEADER
  9
$ACADVER
  1
AC1021
  9
$ACADMAINTVER
 70
    25
  9
$DWGCODEPAGE
  3
ANSI_1252
  9
$INSBASE
 10
0.0
 20
0.0
 30
0.0
  9
$EXTMIN
 10
-13.17646
 20
-17.52646
 30
0.0
  9
$EXTMAX
 10
-7.82354
 20
-12.17354
 30
0.0
  9
$LIMMIN
 10
0.0
 20
0.0
  9
$LIMMAX
 10
12.0
 20
9.0
  9
$ORTHOMODE
 70
     0
  9
$REGENMODE
 70
     1
  9
$FILLMODE
 70
     1
  9
$QTEXTMODE
 70
     0
  9
$MIRRTEXT
 70
     1
  9
$LTSCALE
 40
1.0
  9
$ATTMODE
 70
     1
  9
$TEXTSIZE
 40
0.2
  9
$TRACEWID
 40
0.05
  9
$TEXTSTYLE
  7
Standard
  9
$CLAYER
  8
0
  9
$CELTYPE
  6
ByLayer
  9
$CECOLOR
 62
   256
  9
$CELTSCALE
 40
1.0
  9
$DISPSILH
 70
     0
  9
$DIMSCALE
 40
1.0
  9
$DIMASZ
 40
0.18
  9
$DIMEXO
 40
0.0625
  9
$DIMDLI
 40
0.38
  9
$DIMRND
 40
0.0
  9
$DIMDLE
 40
0.0
  9
$DIMEXE
 40
0.18
  9
$DIMTP
 40
0.0
  9
$DIMTM
 40
0.0
  9
$DIMTXT
 40
0.18
  9
$DIMCEN
 40
0.09
  9
$DIMTSZ
 40
0.0
  9
$DIMTOL
 70
     0
  9
$DIMLIM
 70
     0
  9
$DIMTIH
 70
     1
  9
$DIMTOH
 70
     1
  9
$DIMSE1
 70
     0
  9
$DIMSE2
 70
     0
  9
$DIMTAD
 70
     0
  9
$DIMZIN
 70
     0
  9
$DIMBLK
  1

  9
$DIMASO
 70
     1
  9
$DIMSHO
 70
     1
  9
$DIMPOST
  1

  9
$DIMAPOST
  1

  9
$DIMALT
 70
     0
  9
$DIMALTD
 70
     2
  9
$DIMALTF
 40
25.4
  9
$DIMLFAC
 40
1.0
  9
$DIMTOFL
 70
     0
  9
$DIMTVP
 40
0.0
  9
$DIMTIX
 70
     0
  9
$DIMSOXD
 70
     0
  9
$DIMSAH
 70
     0
  9
$DIMBLK1
  1

  9
$DIMBLK2
  1

  9
$DIMSTYLE
  2
Standard
  9
$DIMCLRD
 70
     0
  9
$DIMCLRE
 70
     0
  9
$DIMCLRT
 70
     0
  9
$DIMTFAC
 40
1.0
  9
$DIMGAP
 40
0.09
  9
$DIMJUST
 70
     0
  9
$DIMSD1
 70
     0
  9
$DIMSD2
 70
     0
  9
$DIMTOLJ
 70
     1
  9
$DIMTZIN
 70
     0
  9
$DIMALTZ
 70
     0
  9
$DIMALTTZ
 70
     0
  9
$DIMUPT
 70
     0
  9
$DIMDEC
 70
     4
  9
$DIMTDEC
 70
     4
  9
$DIMALTU
 70
     2
  9
$DIMALTTD
 70
     2
  9
$DIMTXSTY
  7
Standard
  9
$DIMAUNIT
 70
     0
  9
$DIMADEC
 70
     0
  9
$DIMALTRND
 40
0.0
  9
$DIMAZIN
 70
     0
  9
$DIMDSEP
 70
    46
  9
$DIMATFIT
 70
     3
  9
$DIMFRAC
 70
     0
  9
$DIMLDRBLK
  1

  9
$DIMLUNIT
 70
     2
  9
$DIMLWD
 70
    -2
  9
$DIMLWE
 70
    -2
  9
$DIMTMOVE
 70
     0
  9
$DIMFXL
 40
1.0
  9
$DIMFXLON
 70
     0
  9
$DIMJOGANG
 40
0.7853981633974483
  9
$DIMTFILL
 70
     0
  9
$DIMTFILLCLR
 70
     0
  9
$DIMARCSYM
 70
     0
  9
$DIMLTYPE
  6

  9
$DIMLTEX1
  6

  9
$DIMLTEX2
  6

  9
$LUNITS
 70
     2
  9
$LUPREC
 70
     4
  9
$SKETCHINC
 40
0.1
  9
$FILLETRAD
 40
0.5
  9
$AUNITS
 70
     0
  9
$AUPREC
 70
     0
  9
$MENU
  1
.
  9
$ELEVATION
 40
0.0
  9
$PELEVATION
 40
0.0
  9
$THICKNESS
 40
0.0
  9
$LIMCHECK
 70
     0
  9
$CHAMFERA
 40
0.5
  9
$CHAMFERB
 40
0.5
  9
$CHAMFERC
 40
1.0
  9
$CHAMFERD
 40
0.0
  9
$SKPOLY
 70
     0
  9
$TDCREATE
 40
2457798.723063021
  9
$TDUCREATE
 40
2457798.723063021
  9
$TDUPDATE
 40
2457798.723063033
  9
$TDUUPDATE
 40
2457798.723063033
  9
$TDINDWG
 40
0.0000000116
  9
$TDUSRTIMER
 40
0.0000000116
  9
$USRTIMER
 70
     1
  9
$ANGBASE
 50
0.0
  9
$ANGDIR
 70
     0
  9
$PDMODE
 70
     0
  9
$PDSIZE
 40
0.0
  9
$PLINEWID
 40
0.0
  9
$SPLFRAME
 70
     0
  9
$SPLINETYPE
 70
     6
  9
$SPLINESEGS
 70
     8
  9
$HANDSEED
  5
8A
  9
$SURFTAB1
 70
     6
  9
$SURFTAB2
 70
     6
  9
$SURFTYPE
 70
     6
  9
$SURFU
 70
     6
  9
$SURFV
 70
     6
  9
$UCSBASE
  2

  9
$UCSNAME
  2

  9
$UCSORG
 10
0.0
 20
0.0
 30
0.0
  9
$UCSXDIR
 10
1.0
 20
0.0
 30
0.0
  9
$UCSYDIR
 10
0.0
 20
1.0
 30
0.0
  9
$UCSORTHOREF
  2

  9
$UCSORTHOVIEW
 70
     0
  9
$UCSORGTOP
 10
0.0
 20
0.0
 30
0.0
  9
$UCSORGBOTTOM
 10
0.0
 20
0.0
 30
0.0
  9
$UCSORGLEFT
 10
0.0
 20
0.0
 30
0.0
  9
$UCSORGRIGHT
 10
0.0
 20
0.0
 30
0.0
  9
$UCSORGFRONT
 10
0.0
 20
0.0
 30
0.0
  9
$UCSORGBACK
 10
0.0
 20
0.0
 30
0.0
  9
$PUCSBASE
  2

  9
$PUCSNAME
  2

  9
$PUCSORG
 10
0.0
 20
0.0
 30
0.0
  9
$PUCSXDIR
 10
1.0
 20
0.0
 30
0.0
  9
$PUCSYDIR
 10
0.0
 20
1.0
 30
0.0
  9
$PUCSORTHOREF
  2

  9
$PUCSORTHOVIEW
 70
     0
  9
$PUCSORGTOP
 10
0.0
 20
0.0
 30
0.0
  9
$PUCSORGBOTTOM
 10
0.0
 20
0.0
 30
0.0
  9
$PUCSORGLEFT
 10
0.0
 20
0.0
 30
0.0
  9
$PUCSORGRIGHT
 10
0.0
 20
0.0
 30
0.0
  9
$PUCSORGFRONT
 10
0.0
 20
0.0
 30
0.0
  9
$PUCSORGBACK
 10
0.0
 20
0.0
 30
0.0
  9
$USERI1
 70
     0
  9
$USERI2
 70
     0
  9
$USERI3
 70
     0
  9
$USERI4
 70
     0
  9
$USERI5
 70
     0
  9
$USERR1
 40
0.0
  9
$USERR2
 40
0.0
  9
$USERR3
 40
0.0
  9
$USERR4
 40
0.0
  9
$USERR5
 40
0.0
  9
$WORLDVIEW
 70
     1
  9
$SHADEDGE
 70
     3
  9
$SHADEDIF
 70
    70
  9
$TILEMODE
 70
     1
  9
$MAXACTVP
 70
    64
  9
$PINSBASE
 10
0.0
 20
0.0
 30
0.0
  9
$PLIMCHECK
 70
     0
  9
$PEXTMIN
 10
1.000000000000000E+20
 20
1.000000000000000E+20
 30
1.000000000000000E+20
  9
$PEXTMAX
 10
-1.000000000000000E+20
 20
-1.000000000000000E+20
 30
-1.000000000000000E+20
  9
$PLIMMIN
 10
0.0
 20
0.0
  9
$PLIMMAX
 10
12.0
 20
9.0
  9
$UNITMODE
 70
     0
  9
$VISRETAIN
 70
     1
  9
$PLINEGEN
 70
     0
  9
$PSLTSCALE
 70
     1
  9
$TREEDEPTH
 70
  3020
  9
$CMLSTYLE
  2
Standard
  9
$CMLJUST
 70
     0
  9
$CMLSCALE
 40
1.0
  9
$PROXYGRAPHICS
 70
     1
  9
$MEASUREMENT
 70
     0
  9
$CELWEIGHT
370
    -1
  9
$ENDCAPS
280
     0
  9
$JOINSTYLE
280
     0
  9
$LWDISPLAY
290
     0
  9
$INSUNITS
 70
     5
  9
$HYPERLINKBASE
  1

  9
$STYLESHEET
  1

  9
$XEDIT
290
     1
  9
$CEPSNTYPE
380
     0
  9
$PSTYLEMODE
290
     1
  9
$FINGERPRINTGUID
  2
{558426DF-82CD-495B-939C-568C322B9578}
  9
$VERSIONGUID
  2
{FAEB1C32-E019-11D5-929B-00C0DF256EC4}
  9
$EXTNAMES
290
     1
  9
$PSVPSCALE
 40
0.0
  9
$OLESTARTUP
290
     0
  9
$SORTENTS
280
   127
  9
$INDEXCTL
280
     0
  9
$HIDETEXT
280
     1
  9
$XCLIPFRAME
290
     0
  9
$HALOGAP
280
     0
  9
$OBSCOLOR
 70
   257
  9
$OBSLTYPE
280
     0
  9
$INTERSECTIONDISPLAY
280
     0
  9
$INTERSECTIONCOLOR
 70
   257
  9
$DIMASSOC
280
     2
  9
$PROJECTNAME
  1

  9
$CAMERADISPLAY
290
     0
  9
$LENSLENGTH
 40
50.0
  9
$CAMERAHEIGHT
 40
0.0
  9
$STEPSPERSEC
 40
2.0
  9
$STEPSIZE
 40
6.0
  9
$3DDWFPREC
 40
2.0
  9
$PSOLWIDTH
 40
0.25
  9
$PSOLHEIGHT
 40
4.0
  9
$LOFTANG1
 40
1.570796326794897
  9
$LOFTANG2
 40
1.570796326794897
  9
$LOFTMAG1
 40
0.0
  9
$LOFTMAG2
 40
0.0
  9
$LOFTPARAM
 70
     7
  9
$LOFTNORMALS
280
     1
  9
$LATITUDE
 40
37.795
  9
$LONGITUDE
 40
-122.394
  9
$NORTHDIRECTION
 40
0.0
  9
$TIMEZONE
 70
 -8000
  9
$LIGHTGLYPHDISPLAY
280
     1
  9
$TILEMODELIGHTSYNCH
280
     1
  9
$SOLIDHIST
280
     1
  9
$SHOWHIST
280
     1
  9
$DWFFRAME
280
     2
  9
$DGNFRAME
280
     2
  9
$REALWORLDSCALE
290
     1
  9
$INTERFERECOLOR
 62
   256
  9
$CSHADOW
280
     0
  9
$SHADOWPLANELOCATION
 40
0.0
  0
ENDSEC
  0
SECTION
  2
CLASSES
  0
CLASS
  1
ACDBDICTIONARYWDFLT
  2
AcDbDictionaryWithDefault
  3
ObjectDBX Classes
 90
        0
 91
        3
280
     0
281
     0
  0
CLASS
  1
VISUALSTYLE
  2
AcDbVisualStyle
  3
ObjectDBX Classes
 90
     4095
 91
        3
280
     0
281
     0
  0
CLASS
  1
SCALE
  2
AcDbScale
  3
ObjectDBX Classes
 90
     1153
 91
        3
280
     0
281
     0
  0
ENDSEC
  0
SECTION
  2
TABLES
  0
TABLE
  2
VPORT
  5
8
330
0
100
AcDbSymbolTable
 70
     1
  0
VPORT
  5
29
330
8
100
AcDbSymbolTableRecord
100
AcDbViewportTableRecord
  2
*Active
 70
     0
 10
0.0
 20
0.0
 11
1.0
 21
1.0
 12
10.42990654205607
 22
4.5
 13
0.0
 23
0.0
 14
0.5
 24
0.5
 15
0.5
 25
0.5
 16
0.0
 26
0.0
 36
1.0
 17
0.0
 27
0.0
 37
0.0
 40
9.0
 41
1.972972972850329
 42
50.0
 43
0.0
 44
0.0
 50
0.0
 51
0.0
 71
     0
 72
   100
 73
     1
 74
     3
 75
     0
 76
     0
 77
     0
 78
     0
281
     0
 65
     1
110
0.0
120
0.0
130
0.0
111
1.0
121
0.0
131
0.0
112
0.0
122
1.0
132
0.0
 79
     0
146
0.0
 60
     3
 61
     5
292
     1
282
     1
141
0.0
142
0.0
 63
   256
  0
ENDTAB
  0
TABLE
  2
LTYPE
  5
5
330
0
100
AcDbSymbolTable
 70
     1
  0
LTYPE
  5
14
330
5
100
AcDbSymbolTableRecord
100
AcDbLinetypeTableRecord
  2
ByBlock
 70
     0
  3

 72
    65
 73
     0
 40
0.0
  0
LTYPE
  5
15
330
5
100
AcDbSymbolTableRecord
100
AcDbLinetypeTableRecord
  2
ByLayer
 70
     0
  3

 72
    65
 73
     0
 40
0.0
  0
LTYPE
  5
16
330
5
100
AcDbSymbolTableRecord
100
AcDbLinetypeTableRecord
  2
Continuous
 70
     0
  3
Solid line
 72
    65
 73
     0
 40
0.0
  0
ENDTAB
  0
TABLE
  2
LAYER
  5
2
330
0
100
AcDbSymbolTable
 70
     2
  0
LAYER
  5
10
330
2
100
AcDbSymbolTableRecord
100
AcDbLayerTableRecord
  2
0
 70
     0
 62
     7
  6
Continuous
370
    -3
390
F
347
0
  0
LAYER
  5
5E
330
2
100
AcDbSymbolTableRecord
100
AcDbLayerTableRecord
  2
Layer 1
 70
     0
 62
     7
  6
Continuous
370
    -3
390
F
347
0
  0
ENDTAB
  0
TABLE
  2
STYLE
  5
3
330
0
100
AcDbSymbolTable
 70
     1
  0
STYLE
  5
11
330
3
100
AcDbSymbolTableRecord
100
AcDbTextStyleTableRecord
  2
Standard
 70
     0
 40
0.0
 41
1.0
 50
0.0
 71
     0
 42
0.2
  3
txt
  4

  0
ENDTAB
  0
TABLE
  2
VIEW
  5
6
330
0
100
AcDbSymbolTable
 70
     0
  0
ENDTAB
  0
TABLE
  2
UCS
  5
7
330
0
100
AcDbSymbolTable
 70
     0
  0
ENDTAB
  0
TABLE
  2
APPID
  5
9
330
0
100
AcDbSymbolTable
 70
     2
  0
APPID
  5
12
330
9
100
AcDbSymbolTableRecord
100
AcDbRegAppTableRecord
  2
ACAD
 70
     0
  0
APPID
  5
5D
330
9
100
AcDbSymbolTableRecord
100
AcDbRegAppTableRecord
  2
ODA
 70
     0
  0
ENDTAB
  0
TABLE
  2
DIMSTYLE
  5
A
330
0
100
AcDbSymbolTable
 70
     1
100
AcDbDimStyleTable
  0
DIMSTYLE
105
27
330
A
100
AcDbSymbolTableRecord
100
AcDbDimStyleTableRecord
  2
Standard
 70
     0
340
11
  0
ENDTAB
  0
TABLE
  2
BLOCK_RECORD
  5
1
330
0
100
AcDbSymbolTable
 70
     1
  0
BLOCK_RECORD
  5
1F
330
1
100
AcDbSymbolTableRecord
100
AcDbBlockTableRecord
  2
*Model_Space
340
22
 70
     0
280
     1
281
     0
  0
BLOCK_RECORD
  5
1B
330
1
100
AcDbSymbolTableRecord
100
AcDbBlockTableRecord
  2
*Paper_Space
340
1E
 70
     0
280
     1
281
     0
  0
BLOCK_RECORD
  5
23
330
1
100
AcDbSymbolTableRecord
100
AcDbBlockTableRecord
  2
*Paper_Space0
340
26
 70
     0
280
     1
281
     0
  0
ENDTAB
  0
ENDSEC
  0
SECTION
  2
BLOCKS
  0
BLOCK
  5
20
330
1F
100
AcDbEntity
  8
0
100
AcDbBlockBegin
  2
*Model_Space
 70
     0
 10
0.0
 20
0.0
 30
0.0
  3
*Model_Space
  1

  0
ENDBLK
  5
21
330
1F
100
AcDbEntity
  8
0
100
AcDbBlockEnd
  0
BLOCK
  5
1C
330
1B
100
AcDbEntity
 67
     1
  8
0
100
AcDbBlockBegin
  2
*Paper_Space
 70
     0
 10
0.0
 20
0.0
 30
0.0
  3
*Paper_Space
  1

  0
ENDBLK
  5
1D
330
1B
100
AcDbEntity
 67
     1
  8
0
100
AcDbBlockEnd
  0
BLOCK
  5
24
330
23
100
AcDbEntity
  8
0
100
AcDbBlockBegin
  2
*Paper_Space0
 70
     0
 10
0.0
 20
0.0
 30
0.0
  3
*Paper_Space0
  1

  0
ENDBLK
  5
25
330
23
100
AcDbEntity
  8
0
100
AcDbBlockEnd
  0
ENDSEC
  0
SECTION
  2
ENTITIES
  0
SPLINE
  5
5F
330
1F
100
AcDbEntity
  8
Layer 1
370
    53
100
AcDbSpline
210
0.0
220
0.0
230
1.0
 70
    11
 71
     3
 72
    84
 73
    80
 74
     0
 42
0.0000000001
 43
0.0000000001
 40
0.0
 40
0.0
 40
0.0
 40
0.0
 40
0.05
 40
0.05
 40
0.05
 40
0.05
 40
0.1
 40
0.1
 40
0.1
 40
0.1
 40
0.15
 40
0.15
 40
0.15
 40
0.15
 40
0.2
 40
0.2
 40
0.2
 40
0.2
 40
0.25
 40
0.25
 40
0.25
 40
0.25
 40
0.3
 40
0.3
 40
0.3
 40
0.3
 40
0.35
 40
0.35
 40
0.35
 40
0.35
 40
0.4
 40
0.4
 40
0.4
 40
0.4
 40
0.45
 40
0.45
 40
0.45
 40
0.45
 40
0.4999999999999999
 40
0.4999999999999999
 40
0.4999999999999999
 40
0.4999999999999999
 40
0.5499999999999999
 40
0.5499999999999999
 40
0.5499999999999999
 40
0.5499999999999999
 40
0.6
 40
0.6
 40
0.6
 40
0.6
 40
0.65
 40
0.65
 40
0.65
 40
0.65
 40
0.7000000000000001
 40
0.7000000000000001
 40
0.7000000000000001
 40
0.7000000000000001
 40
0.7500000000000001
 40
0.7500000000000001
 40
0.7500000000000001
 40
0.7500000000000001
 40
0.8000000000000002
 40
0.8000000000000002
 40
0.8000000000000002
 40
0.8000000000000002
 40
0.8500000000000002
 40
0.8500000000000002
 40
0.8500000000000002
 40
0.8500000000000002
 40
0.9000000000000002
 40
0.9000000000000002
 40
0.9000000000000002
 40
0.9000000000000002
 40
0.9500000000000003
 40
0.9500000000000003
 40
0.9500000000000003
 40
0.9500000000000003
 40
1.0
 40
1.0
 40
1.0
 40
1.0
 10
-12.8
 20
-16.7
 30
0.0
 10
-12.8
 20
-16.7
 30
0.0
 10
-12.75985
 20
-16.7
 30
0.0
 10
-12.75985
 20
-16.7
 30
0.0
 10
-12.75985
 20
-16.7
 30
0.0
 10
-12.7335
 20
-16.65447
 30
0.0
 10
-12.69553
 20
-16.6165
 30
0.0
 10
-12.65
 20
-16.59015
 30
0.0
 10
-12.65
 20
-16.59015
 30
0.0
 10
-12.65
 20
-16.59015
 30
0.0
 10
-12.65
 20
-16.55
 30
0.0
 10
-12.65
 20
-16.55
 30
0.0
 10
-12.65
 20
-16.55
 30
0.0
 10
-12.65
 20
-16.55
 30
0.0
 10
-12.5
 20
-16.55
 30
0.0
 10
-12.5
 20
-16.55
 30
0.0
 10
-12.5
 20
-16.55
 30
0.0
 10
-12.5
 20
-16.55
 30
0.0
 10
-12.35
 20
-16.55
 30
0.0
 10
-12.35
 20
-16.55
 30
0.0
 10
-12.35
 20
-16.55
 30
0.0
 10
-12.35
 20
-16.55
 30
0.0
 10
-12.35
 20
-16.59015
 30
0.0
 10
-12.35
 20
-16.59015
 30
0.0
 10
-12.35
 20
-16.59015
 30
0.0
 10
-12.30447
 20
-16.6165
 30
0.0
 10
-12.2665
 20
-16.65447
 30
0.0
 10
-12.24015
 20
-16.7
 30
0.0
 10
-12.24015
 20
-16.7
 30
0.0
 10
-12.24015
 20
-16.7
 30
0.0
 10
-12.2
 20
-16.7
 30
0.0
 10
-12.2
 20
-16.7
 30
0.0
 10
-12.2
 20
-16.7
 30
0.0
 10
-12.2
 20
-16.7
 30
0.0
 10
-12.2
 20
-16.85
 30
0.0
 10
-12.2
 20
-16.85
 30
0.0
 10
-12.2
 20
-16.85
 30
0.0
 10
-12.2
 20
-16.85
 30
0.0
 10
-12.2
 20
-17.0
 30
0.0
 10
-12.2
 20
-17.0
 30
0.0
 10
-12.2
 20
-17.0
 30
0.0
 10
-12.2
 20
-17.0
 30
0.0
 10
-12.24015
 20
-17.0
 30
0.0
 10
-12.24015
 20
-17.0
 30
0.0
 10
-12.24015
 20
-17.0
 30
0.0
 10
-12.2665
 20
-17.04553
 30
0.0
 10
-12.30447
 20
-17.0835
 30
0.0
 10
-12.35
 20
-17.10985
 30
0.0
 10
-12.35
 20
-17.10985
 30
0.0
 10
-12.35
 20
-17.10985
 30
0.0
 10
-12.35
 20
-17.15
 30
0.0
 10
-12.35
 20
-17.15
 30
0.0
 10
-12.35
 20
-17.15
 30
0.0
 10
-12.35
 20
-17.15
 30
0.0
 10
-12.5
 20
-17.15
 30
0.0
 10
-12.5
 20
-17.15
 30
0.0
 10
-12.5
 20
-17.15
 30
0.0
 10
-12.5
 20
-17.15
 30
0.0
 10
-12.65
 20
-17.15
 30
0.0
 10
-12.65
 20
-17.15
 30
0.0
 10
-12.65
 20
-17.15
 30
0.0
 10
-12.65
 20
-17.15
 30
0.0
 10
-12.65
 20
-17.10985
 30
0.0
 10
-12.65
 20
-17.10985
 30
0.0
 10
-12.65
 20
-17.10985
 30
0.0
 10
-12.69553
 20
-17.0835
 30
0.0
 10
-12.7335
 20
-17.04553
 30
0.0
 10
-12.75985
 20
-17.0
 30
0.0
 10
-12.75985
 20
-17.0
 30
0.0
 10
-12.75985
 20
-17.0
 30
0.0
 10
-12.8
 20
-17.0
 30
0.0
 10
-12.8
 20
-17.0
 30
0.0
 10
-12.8
 20
-17.0
 30
0.0
 10
-12.8
 20
-17.0
 30
0.0
 10
-12.8
 20
-16.85
 30
0.0
 10
-12.8
 20
-16.85
 30
0.0
 10
-12.8
 20
-16.85
 30
0.0
 10
-12.8
 20
-16.85
 30
0.0
 10
-12.8
 20
-16.7
 30
0.0
 10
-12.8
 20
-16.7
 30
0.0
  0
SPLINE
  5
60
330
1F
100
AcDbEntity
  8
Layer 1
370
    53
100
AcDbSpline
210
0.0
220
0.0
230
1.0
 70
    11
 71
     3
 72
    84
 73
    80
 74
     0
 42
0.0000000001
 43
0.0000000001
 40
0.0
 40
0.0
 40
0.0
 40
0.0
 40
0.05
 40
0.05
 40
0.05
 40
0.05
 40
0.1
 40
0.1
 40
0.1
 40
0.1
 40
0.15
 40
0.15
 40
0.15
 40
0.15
 40
0.2
 40
0.2
 40
0.2
 40
0.2
 40
0.25
 40
0.25
 40
0.25
 40
0.25
 40
0.3
 40
0.3
 40
0.3
 40
0.3
 40
0.35
 40
0.35
 40
0.35
 40
0.35
 40
0.4
 40
0.4
 40
0.4
 40
0.4
 40
0.45
 40
0.45
 40
0.45
 40
0.45
 40
0.4999999999999999
 40
0.4999999999999999
 40
0.4999999999999999
 40
0.4999999999999999
 40
0.5499999999999999
 40
0.5499999999999999
 40
0.5499999999999999
 40
0.5499999999999999
 40
0.6
 40
0.6
 40
0.6
 40
0.6
 40
0.65
 40
0.65
 40
0.65
 40
0.65
 40
0.7000000000000001
 40
0.7000000000000001
 40
0.7000000000000001
 40
0.7000000000000001
 40
0.7500000000000001
 40
0.7500000000000001
 40
0.7500000000000001
 40
0.7500000000000001
 40
0.8000000000000002
 40
0.8000000000000002
 40
0.8000000000000002
 40
0.8000000000000002
 40
0.8500000000000002
 40
0.8500000000000002
 40
0.8500000000000002
 40
0.8500000000000002
 40
0.9000000000000002
 40
0.9000000000000002
 40
0.9000000000000002
 40
0.9000000000000002
 40
0.9500000000000003
 40
0.9500000000000003
 40
0.9500000000000003
 40
0.9500000000000003
 40
1.0
 40
1.0
 40
1.0
 40
1.0
 10
-12.8
 20
-12.7
 30
0.0
 10
-12.8
 20
-12.7
 30
0.0
 10
-12.75985
 20
-12.7
 30
0.0
 10
-12.75985
 20
-12.7
 30
0.0
 10
-12.75985
 20
-12.7
 30
0.0
 10
-12.7335
 20
-12.65447
 30
0.0
 10
-12.69553
 20
-12.6165
 30
0.0
 10
-12.65
 20
-12.59015
 30
0.0
 10
-12.65
 20
-12.59015
 30
0.0
 10
-12.65
 20
-12.59015
 30
0.0
 10
-12.65
 20
-12.55
 30
0.0
 10
-12.65
 20
-12.55
 30
0.0
 10
-12.65
 20
-12.55
 30
0.0
 10
-12.65
 20
-12.55
 30
0.0
 10
-12.5
 20
-12.55
 30
0.0
 10
-12.5
 20
-12.55
 30
0.0
 10
-12.5
 20
-12.55
 30
0.0
 10
-12.5
 20
-12.55
 30
0.0
 10
-12.35
 20
-12.55
 30
0.0
 10
-12.35
 20
-12.55
 30
0.0
 10
-12.35
 20
-12.55
 30
0.0
 10
-12.35
 20
-12.55
 30
0.0
 10
-12.35
 20
-12.59015
 30
0.0
 10
-12.35
 20
-12.59015
 30
0.0
 10
-12.35
 20
-12.59015
 30
0.0
 10
-12.30447
 20
-12.6165
 30
0.0
 10
-12.2665
 20
-12.65447
 30
0.0
 10
-12.24015
 20
-12.7
 30
0.0
 10
-12.24015
 20
-12.7
 30
0.0
 10
-12.24015
 20
-12.7
 30
0.0
 10
-12.2
 20
-12.7
 30
0.0
 10
-12.2
 20
-12.7
 30
0.0
 10
-12.2
 20
-12.7
 30
0.0
 10
-12.2
 20
-12.7
 30
0.0
 10
-12.2
 20
-12.85
 30
0.0
 10
-12.2
 20
-12.85
 30
0.0
 10
-12.2
 20
-12.85
 30
0.0
 10
-12.2
 20
-12.85
 30
0.0
 10
-12.2
 20
-13.0
 30
0.0
 10
-12.2
 20
-13.0
 30
0.0
 10
-12.2
 20
-13.0
 30
0.0
 10
-12.2
 20
-13.0
 30
0.0
 10
-12.24015
 20
-13.0
 30
0.0
 10
-12.24015
 20
-13.0
 30
0.0
 10
-12.24015
 20
-13.0
 30
0.0
 10
-12.2665
 20
-13.04553
 30
0.0
 10
-12.30447
 20
-13.0835
 30
0.0
 10
-12.35
 20
-13.10985
 30
0.0
 10
-12.35
 20
-13.10985
 30
0.0
 10
-12.35
 20
-13.10985
 30
0.0
 10
-12.35
 20
-13.15
 30
0.0
 10
-12.35
 20
-13.15
 30
0.0
 10
-12.35
 20
-13.15
 30
0.0
 10
-12.35
 20
-13.15
 30
0.0
 10
-12.5
 20
-13.15
 30
0.0
 10
-12.5
 20
-13.15
 30
0.0
 10
-12.5
 20
-13.15
 30
0.0
 10
-12.5
 20
-13.15
 30
0.0
 10
-12.65
 20
-13.15
 30
0.0
 10
-12.65
 20
-13.15
 30
0.0
 10
-12.65
 20
-13.15
 30
0.0
 10
-12.65
 20
-13.15
 30
0.0
 10
-12.65
 20
-13.10985
 30
0.0
 10
-12.65
 20
-13.10985
 30
0.0
 10
-12.65
 20
-13.10985
 30
0.0
 10
-12.69553
 20
-13.0835
 30
0.0
 10
-12.7335
 20
-13.04553
 30
0.0
 10
-12.75985
 20
-13.0
 30
0.0
 10
-12.75985
 20
-13.0
 30
0.0
 10
-12.75985
 20
-13.0
 30
0.0
 10
-12.8
 20
-13.0
 30
0.0
 10
-12.8
 20
-13.0
 30
0.0
 10
-12.8
 20
-13.0
 30
0.0
 10
-12.8
 20
-13.0
 30
0.0
 10
-12.8
 20
-12.85
 30
0.0
 10
-12.8
 20
-12.85
 30
0.0
 10
-12.8
 20
-12.85
 30
0.0
 10
-12.8
 20
-12.85
 30
0.0
 10
-12.8
 20
-12.7
 30
0.0
 10
-12.8
 20
-12.7
 30
0.0
  0
LWPOLYLINE
  5
61
330
1F
100
AcDbEntity
  8
Layer 1
370
    53
100
AcDbPolyline
 90
        5
 70
     1
 43
0.0
 10
-12.65
 20
-16.15
 10
-12.35
 20
-16.15
 10
-12.35
 20
-15.55
 10
-12.65
 20
-15.55
 10
-12.65
 20
-16.15
  0
LWPOLYLINE
  5
62
330
1F
100
AcDbEntity
  8
Layer 1
370
    53
100
AcDbPolyline
 90
        5
 70
     1
 43
0.0
 10
-12.65
 20
-14.15
 10
-12.35
 20
-14.15
 10
-12.35
 20
-13.55
 10
-12.65
 20
-13.55
 10
-12.65
 20
-14.15
  0
SPLINE
  5
63
330
1F
100
AcDbEntity
  8
Layer 1
370
    53
100
AcDbSpline
210
0.0
220
0.0
230
1.0
 70
    11
 71
     3
 72
    84
 73
    80
 74
     0
 42
0.0000000001
 43
0.0000000001
 40
0.0
 40
0.0
 40
0.0
 40
0.0
 40
0.05
 40
0.05
 40
0.05
 40
0.05
 40
0.1
 40
0.1
 40
0.1
 40
0.1
 40
0.15
 40
0.15
 40
0.15
 40
0.15
 40
0.2
 40
0.2
 40
0.2
 40
0.2
 40
0.25
 40
0.25
 40
0.25
 40
0.25
 40
0.3
 40
0.3
 40
0.3
 40
0.3
 40
0.35
 40
0.35
 40
0.35
 40
0.35
 40
0.4
 40
0.4
 40
0.4
 40
0.4
 40
0.45
 40
0.45
 40
0.45
 40
0.45
 40
0.4999999999999999
 40
0.4999999999999999
 40
0.4999999999999999
 40
0.4999999999999999
 40
0.5499999999999999
 40
0.5499999999999999
 40
0.5499999999999999
 40
0.5499999999999999
 40
0.6
 40
0.6
 40
0.6
 40
0.6
 40
0.65
 40
0.65
 40
0.65
 40
0.65
 40
0.7000000000000001
 40
0.7000000000000001
 40
0.7000000000000001
 40
0.7000000000000001
 40
0.7500000000000001
 40
0.7500000000000001
 40
0.7500000000000001
 40
0.7500000000000001
 40
0.8000000000000002
 40
0.8000000000000002
 40
0.8000000000000002
 40
0.8000000000000002
 40
0.8500000000000002
 40
0.8500000000000002
 40
0.8500000000000002
 40
0.8500000000000002
 40
0.9000000000000002
 40
0.9000000000000002
 40
0.9000000000000002
 40
0.9000000000000002
 40
0.9500000000000003
 40
0.9500000000000003
 40
0.9500000000000003
 40
0.9500000000000003
 40
1.0
 40
1.0
 40
1.0
 40
1.0
 10
-8.8
 20
-16.7
 30
0.0
 10
-8.8
 20
-16.7
 30
0.0
 10
-8.75985
 20
-16.7
 30
0.0
 10
-8.75985
 20
-16.7
 30
0.0
 10
-8.75985
 20
-16.7
 30
0.0
 10
-8.7335
 20
-16.65447
 30
0.0
 10
-8.69553
 20
-16.6165
 30
0.0
 10
-8.65
 20
-16.59015
 30
0.0
 10
-8.65
 20
-16.59015
 30
0.0
 10
-8.65
 20
-16.59015
 30
0.0
 10
-8.65
 20
-16.55
 30
0.0
 10
-8.65
 20
-16.55
 30
0.0
 10
-8.65
 20
-16.55
 30
0.0
 10
-8.65
 20
-16.55
 30
0.0
 10
-8.5
 20
-16.55
 30
0.0
 10
-8.5
 20
-16.55
 30
0.0
 10
-8.5
 20
-16.55
 30
0.0
 10
-8.5
 20
-16.55
 30
0.0
 10
-8.35
 20
-16.55
 30
0.0
 10
-8.35
 20
-16.55
 30
0.0
 10
-8.35
 20
-16.55
 30
0.0
 10
-8.35
 20
-16.55
 30
0.0
 10
-8.35
 20
-16.59015
 30
0.0
 10
-8.35
 20
-16.59015
 30
0.0
 10
-8.35
 20
-16.59015
 30
0.0
 10
-8.30447
 20
-16.6165
 30
0.0
 10
-8.2665
 20
-16.65447
 30
0.0
 10
-8.24015
 20
-16.7
 30
0.0
 10
-8.24015
 20
-16.7
 30
0.0
 10
-8.24015
 20
-16.7
 30
0.0
 10
-8.2
 20
-16.7
 30
0.0
 10
-8.2
 20
-16.7
 30
0.0
 10
-8.2
 20
-16.7
 30
0.0
 10
-8.2
 20
-16.7
 30
0.0
 10
-8.2
 20
-16.85
 30
0.0
 10
-8.2
 20
-16.85
 30
0.0
 10
-8.2
 20
-16.85
 30
0.0
 10
-8.2
 20
-16.85
 30
0.0
 10
-8.2
 20
-17.0
 30
0.0
 10
-8.2
 20
-17.0
 30
0.0
 10
-8.2
 20
-17.0
 30
0.0
 10
-8.2
 20
-17.0
 30
0.0
 10
-8.24015
 20
-17.0
 30
0.0
 10
-8.24015
 20
-17.0
 30
0.0
 10
-8.24015
 20
-17.0
 30
0.0
 10
-8.2665
 20
-17.04553
 30
0.0
 10
-8.30447
 20
-17.0835
 30
0.0
 10
-8.35
 20
-17.10985
 30
0.0
 10
-8.35
 20
-17.10985
 30
0.0
 10
-8.35
 20
-17.10985
 30
0.0
 10
-8.35
 20
-17.15
 30
0.0
 10
-8.35
 20
-17.15
 30
0.0
 10
-8.35
 20
-17.15
 30
0.0
 10
-8.35
 20
-17.15
 30
0.0
 10
-8.5
 20
-17.15
 30
0.0
 10
-8.5
 20
-17.15
 30
0.0
 10
-8.5
 20
-17.15
 30
0.0
 10
-8.5
 20
-17.15
 30
0.0
 10
-8.65
 20
-17.15
 30
0.0
 10
-8.65
 20
-17.15
 30
0.0
 10
-8.65
 20
-17.15
 30
0.0
 10
-8.65
 20
-17.15
 30
0.0
 10
-8.65
 20
-17.10985
 30
0.0
 10
-8.65
 20
-17.10985
 30
0.0
 10
-8.65
 20
-17.10985
 30
0.0
 10
-8.69553
 20
-17.0835
 30
0.0
 10
-8.7335
 20
-17.04553
 30
0.0
 10
-8.75985
 20
-17.0
 30
0.0
 10
-8.75985
 20
-17.0
 30
0.0
 10
-8.75985
 20
-17.0
 30
0.0
 10
-8.8
 20
-17.0
 30
0.0
 10
-8.8
 20
-17.0
 30
0.0
 10
-8.8
 20
-17.0
 30
0.0
 10
-8.8
 20
-17.0
 30
0.0
 10
-8.8
 20
-16.85
 30
0.0
 10
-8.8
 20
-16.85
 30
0.0
 10
-8.8
 20
-16.85
 30
0.0
 10
-8.8
 20
-16.85
 30
0.0
 10
-8.8
 20
-16.7
 30
0.0
 10
-8.8
 20
-16.7
 30
0.0
  0
SPLINE
  5
64
330
1F
100
AcDbEntity
  8
Layer 1
370
    53
100
AcDbSpline
210
0.0
220
0.0
230
1.0
 70
    11
 71
     3
 72
    84
 73
    80
 74
     0
 42
0.0000000001
 43
0.0000000001
 40
0.0
 40
0.0
 40
0.0
 40
0.0
 40
0.05
 40
0.05
 40
0.05
 40
0.05
 40
0.1
 40
0.1
 40
0.1
 40
0.1
 40
0.15
 40
0.15
 40
0.15
 40
0.15
 40
0.2
 40
0.2
 40
0.2
 40
0.2
 40
0.25
 40
0.25
 40
0.25
 40
0.25
 40
0.3
 40
0.3
 40
0.3
 40
0.3
 40
0.35
 40
0.35
 40
0.35
 40
0.35
 40
0.4
 40
0.4
 40
0.4
 40
0.4
 40
0.45
 40
0.45
 40
0.45
 40
0.45
 40
0.4999999999999999
 40
0.4999999999999999
 40
0.4999999999999999
 40
0.4999999999999999
 40
0.5499999999999999
 40
0.5499999999999999
 40
0.5499999999999999
 40
0.5499999999999999
 40
0.6
 40
0.6
 40
0.6
 40
0.6
 40
0.65
 40
0.65
 40
0.65
 40
0.65
 40
0.7000000000000001
 40
0.7000000000000001
 40
0.7000000000000001
 40
0.7000000000000001
 40
0.7500000000000001
 40
0.7500000000000001
 40
0.7500000000000001
 40
0.7500000000000001
 40
0.8000000000000002
 40
0.8000000000000002
 40
0.8000000000000002
 40
0.8000000000000002
 40
0.8500000000000002
 40
0.8500000000000002
 40
0.8500000000000002
 40
0.8500000000000002
 40
0.9000000000000002
 40
0.9000000000000002
 40
0.9000000000000002
 40
0.9000000000000002
 40
0.9500000000000003
 40
0.9500000000000003
 40
0.9500000000000003
 40
0.9500000000000003
 40
1.0
 40
1.0
 40
1.0
 40
1.0
 10
-8.8
 20
-14.7
 30
0.0
 10
-8.8
 20
-14.7
 30
0.0
 10
-8.75985
 20
-14.7
 30
0.0
 10
-8.75985
 20
-14.7
 30
0.0
 10
-8.75985
 20
-14.7
 30
0.0
 10
-8.7335
 20
-14.65447
 30
0.0
 10
-8.69553
 20
-14.6165
 30
0.0
 10
-8.65
 20
-14.59015
 30
0.0
 10
-8.65
 20
-14.59015
 30
0.0
 10
-8.65
 20
-14.59015
 30
0.0
 10
-8.65
 20
-14.55
 30
0.0
 10
-8.65
 20
-14.55
 30
0.0
 10
-8.65
 20
-14.55
 30
0.0
 10
-8.65
 20
-14.55
 30
0.0
 10
-8.5
 20
-14.55
 30
0.0
 10
-8.5
 20
-14.55
 30
0.0
 10
-8.5
 20
-14.55
 30
0.0
 10
-8.5
 20
-14.55
 30
0.0
 10
-8.35
 20
-14.55
 30
0.0
 10
-8.35
 20
-14.55
 30
0.0
 10
-8.35
 20
-14.55
 30
0.0
 10
-8.35
 20
-14.55
 30
0.0
 10
-8.35
 20
-14.59015
 30
0.0
 10
-8.35
 20
-14.59015
 30
0.0
 10
-8.35
 20
-14.59015
 30
0.0
 10
-8.30447
 20
-14.6165
 30
0.0
 10
-8.2665
 20
-14.65447
 30
0.0
 10
-8.24015
 20
-14.7
 30
0.0
 10
-8.24015
 20
-14.7
 30
0.0
 10
-8.24015
 20
-14.7
 30
0.0
 10
-8.2
 20
-14.7
 30
0.0
 10
-8.2
 20
-14.7
 30
0.0
 10
-8.2
 20
-14.7
 30
0.0
 10
-8.2
 20
-14.7
 30
0.0
 10
-8.2
 20
-14.85
 30
0.0
 10
-8.2
 20
-14.85
 30
0.0
 10
-8.2
 20
-14.85
 30
0.0
 10
-8.2
 20
-14.85
 30
0.0
 10
-8.2
 20
-15.0
 30
0.0
 10
-8.2
 20
-15.0
 30
0.0
 10
-8.2
 20
-15.0
 30
0.0
 10
-8.2
 20
-15.0
 30
0.0
 10
-8.24015
 20
-15.0
 30
0.0
 10
-8.24015
 20
-15.0
 30
0.0
 10
-8.24015
 20
-15.0
 30
0.0
 10
-8.2665
 20
-15.04553
 30
0.0
 10
-8.30447
 20
-15.0835
 30
0.0
 10
-8.35
 20
-15.10985
 30
0.0
 10
-8.35
 20
-15.10985
 30
0.0
 10
-8.35
 20
-15.10985
 30
0.0
 10
-8.35
 20
-15.15
 30
0.0
 10
-8.35
 20
-15.15
 30
0.0
 10
-8.35
 20
-15.15
 30
0.0
 10
-8.35
 20
-15.15
 30
0.0
 10
-8.5
 20
-15.15
 30
0.0
 10
-8.5
 20
-15.15
 30
0.0
 10
-8.5
 20
-15.15
 30
0.0
 10
-8.5
 20
-15.15
 30
0.0
 10
-8.65
 20
-15.15
 30
0.0
 10
-8.65
 20
-15.15
 30
0.0
 10
-8.65
 20
-15.15
 30
0.0
 10
-8.65
 20
-15.15
 30
0.0
 10
-8.65
 20
-15.10985
 30
0.0
 10
-8.65
 20
-15.10985
 30
0.0
 10
-8.65
 20
-15.10985
 30
0.0
 10
-8.69553
 20
-15.0835
 30
0.0
 10
-8.7335
 20
-15.04553
 30
0.0
 10
-8.75985
 20
-15.0
 30
0.0
 10
-8.75985
 20
-15.0
 30
0.0
 10
-8.75985
 20
-15.0
 30
0.0
 10
-8.8
 20
-15.0
 30
0.0
 10
-8.8
 20
-15.0
 30
0.0
 10
-8.8
 20
-15.0
 30
0.0
 10
-8.8
 20
-15.0
 30
0.0
 10
-8.8
 20
-14.85
 30
0.0
 10
-8.8
 20
-14.85
 30
0.0
 10
-8.8
 20
-14.85
 30
0.0
 10
-8.8
 20
-14.85
 30
0.0
 10
-8.8
 20
-14.7
 30
0.0
 10
-8.8
 20
-14.7
 30
0.0
  0
SPLINE
  5
65
330
1F
100
AcDbEntity
  8
Layer 1
370
    53
100
AcDbSpline
210
0.0
220
0.0
230
1.0
 70
    11
 71
     3
 72
    84
 73
    80
 74
     0
 42
0.0000000001
 43
0.0000000001
 40
0.0
 40
0.0
 40
0.0
 40
0.0
 40
0.05
 40
0.05
 40
0.05
 40
0.05
 40
0.1
 40
0.1
 40
0.1
 40
0.1
 40
0.15
 40
0.15
 40
0.15
 40
0.15
 40
0.2
 40
0.2
 40
0.2
 40
0.2
 40
0.25
 40
0.25
 40
0.25
 40
0.25
 40
0.3
 40
0.3
 40
0.3
 40
0.3
 40
0.35
 40
0.35
 40
0.35
 40
0.35
 40
0.4
 40
0.4
 40
0.4
 40
0.4
 40
0.45
 40
0.45
 40
0.45
 40
0.45
 40
0.4999999999999999
 40
0.4999999999999999
 40
0.4999999999999999
 40
0.4999999999999999
 40
0.5499999999999999
 40
0.5499999999999999
 40
0.5499999999999999
 40
0.5499999999999999
 40
0.6
 40
0.6
 40
0.6
 40
0.6
 40
0.65
 40
0.65
 40
0.65
 40
0.65
 40
0.7000000000000001
 40
0.7000000000000001
 40
0.7000000000000001
 40
0.7000000000000001
 40
0.7500000000000001
 40
0.7500000000000001
 40
0.7500000000000001
 40
0.7500000000000001
 40
0.8000000000000002
 40
0.8000000000000002
 40
0.8000000000000002
 40
0.8000000000000002
 40
0.8500000000000002
 40
0.8500000000000002
 40
0.8500000000000002
 40
0.8500000000000002
 40
0.9000000000000002
 40
0.9000000000000002
 40
0.9000000000000002
 40
0.9000000000000002
 40
0.9500000000000003
 40
0.9500000000000003
 40
0.9500000000000003
 40
0.9500000000000003
 40
1.0
 40
1.0
 40
1.0
 40
1.0
 10
-8.8
 20
-12.7
 30
0.0
 10
-8.8
 20
-12.7
 30
0.0
 10
-8.75985
 20
-12.7
 30
0.0
 10
-8.75985
 20
-12.7
 30
0.0
 10
-8.75985
 20
-12.7
 30
0.0
 10
-8.7335
 20
-12.65447
 30
0.0
 10
-8.69553
 20
-12.6165
 30
0.0
 10
-8.65
 20
-12.59015
 30
0.0
 10
-8.65
 20
-12.59015
 30
0.0
 10
-8.65
 20
-12.59015
 30
0.0
 10
-8.65
 20
-12.55
 30
0.0
 10
-8.65
 20
-12.55
 30
0.0
 10
-8.65
 20
-12.55
 30
0.0
 10
-8.65
 20
-12.55
 30
0.0
 10
-8.5
 20
-12.55
 30
0.0
 10
-8.5
 20
-12.55
 30
0.0
 10
-8.5
 20
-12.55
 30
0.0
 10
-8.5
 20
-12.55
 30
0.0
 10
-8.35
 20
-12.55
 30
0.0
 10
-8.35
 20
-12.55
 30
0.0
 10
-8.35
 20
-12.55
 30
0.0
 10
-8.35
 20
-12.55
 30
0.0
 10
-8.35
 20
-12.59015
 30
0.0
 10
-8.35
 20
-12.59015
 30
0.0
 10
-8.35
 20
-12.59015
 30
0.0
 10
-8.30447
 20
-12.6165
 30
0.0
 10
-8.2665
 20
-12.65447
 30
0.0
 10
-8.24015
 20
-12.7
 30
0.0
 10
-8.24015
 20
-12.7
 30
0.0
 10
-8.24015
 20
-12.7
 30
0.0
 10
-8.2
 20
-12.7
 30
0.0
 10
-8.2
 20
-12.7
 30
0.0
 10
-8.2
 20
-12.7
 30
0.0
 10
-8.2
 20
-12.7
 30
0.0
 10
-8.2
 20
-12.85
 30
0.0
 10
-8.2
 20
-12.85
 30
0.0
 10
-8.2
 20
-12.85
 30
0.0
 10
-8.2
 20
-12.85
 30
0.0
 10
-8.2
 20
-13.0
 30
0.0
 10
-8.2
 20
-13.0
 30
0.0
 10
-8.2
 20
-13.0
 30
0.0
 10
-8.2
 20
-13.0
 30
0.0
 10
-8.24015
 20
-13.0
 30
0.0
 10
-8.24015
 20
-13.0
 30
0.0
 10
-8.24015
 20
-13.0
 30
0.0
 10
-8.2665
 20
-13.04553
 30
0.0
 10
-8.30447
 20
-13.0835
 30
0.0
 10
-8.35
 20
-13.10985
 30
0.0
 10
-8.35
 20
-13.10985
 30
0.0
 10
-8.35
 20
-13.10985
 30
0.0
 10
-8.35
 20
-13.15
 30
0.0
 10
-8.35
 20
-13.15
 30
0.0
 10
-8.35
 20
-13.15
 30
0.0
 10
-8.35
 20
-13.15
 30
0.0
 10
-8.5
 20
-13.15
 30
0.0
 10
-8.5
 20
-13.15
 30
0.0
 10
-8.5
 20
-13.15
 30
0.0
 10
-8.5
 20
-13.15
 30
0.0
 10
-8.65
 20
-13.15
 30
0.0
 10
-8.65
 20
-13.15
 30
0.0
 10
-8.65
 20
-13.15
 30
0.0
 10
-8.65
 20
-13.15
 30
0.0
 10
-8.65
 20
-13.10985
 30
0.0
 10
-8.65
 20
-13.10985
 30
0.0
 10
-8.65
 20
-13.10985
 30
0.0
 10
-8.69553
 20
-13.0835
 30
0.0
 10
-8.7335
 20
-13.04553
 30
0.0
 10
-8.75985
 20
-13.0
 30
0.0
 10
-8.75985
 20
-13.0
 30
0.0
 10
-8.75985
 20
-13.0
 30
0.0
 10
-8.8
 20
-13.0
 30
0.0
 10
-8.8
 20
-13.0
 30
0.0
 10
-8.8
 20
-13.0
 30
0.0
 10
-8.8
 20
-13.0
 30
0.0
 10
-8.8
 20
-12.85
 30
0.0
 10
-8.8
 20
-12.85
 30
0.0
 10
-8.8
 20
-12.85
 30
0.0
 10
-8.8
 20
-12.85
 30
0.0
 10
-8.8
 20
-12.7
 30
0.0
 10
-8.8
 20
-12.7
 30
0.0
  0
LWPOLYLINE
  5
66
330
1F
100
AcDbEntity
  8
Layer 1
370
    53
100
AcDbPolyline
 90
        5
 70
     1
 43
0.0
 10
-8.65
 20
-16.15
 10
-8.35
 20
-16.15
 10
-8.35
 20
-15.55
 10
-8.65
 20
-15.55
 10
-8.65
 20
-16.15
  0
LWPOLYLINE
  5
67
330
1F
100
AcDbEntity
  8
Layer 1
370
    53
100
AcDbPolyline
 90
        5
 70
     1
 43
0.0
 10
-8.65
 20
-14.15
 10
-8.35
 20
-14.15
 10
-8.35
 20
-13.55
 10
-8.65
 20
-13.55
 10
-8.65
 20
-14.15
  0
LWPOLYLINE
  5
68
330
1F
100
AcDbEntity
  8
Layer 1
370
    53
100
AcDbPolyline
 90
        5
 70
     1
 43
0.0
 10
-11.8
 20
-17.0
 10
-11.2
 20
-17.0
 10
-11.2
 20
-16.7
 10
-11.8
 20
-16.7
 10
-11.8
 20
-17.0
  0
LWPOLYLINE
  5
69
330
1F
100
AcDbEntity
  8
Layer 1
370
    53
100
AcDbPolyline
 90
        5
 70
     1
 43
0.0
 10
-9.8
 20
-17.0
 10
-9.2
 20
-17.0
 10
-9.2
 20
-16.7
 10
-9.8
 20
-16.7
 10
-9.8
 20
-17.0
  0
LWPOLYLINE
  5
6A
330
1F
100
AcDbEntity
  8
Layer 1
370
    53
100
AcDbPolyline
 90
        5
 70
     1
 43
0.0
 10
-11.8
 20
-13.0
 10
-11.2
 20
-13.0
 10
-11.2
 20
-12.7
 10
-11.8
 20
-12.7
 10
-11.8
 20
-13.0
  0
LWPOLYLINE
  5
6B
330
1F
100
AcDbEntity
  8
Layer 1
370
    53
100
AcDbPolyline
 90
        5
 70
     1
 43
0.0
 10
-9.8
 20
-13.0
 10
-9.2
 20
-13.0
 10
-9.2
 20
-12.7
 10
-9.8
 20
-12.7
 10
-9.8
 20
-13.0
  0
SPLINE
  5
6C
330
1F
100
AcDbEntity
  8
Layer 1
 62
     5
370
    53
100
AcDbSpline
210
0.0
220
0.0
230
1.0
 70
    11
 71
     3
 72
    36
 73
    32
 74
     0
 42
0.0000000001
 43
0.0000000001
 40
0.0
 40
0.0
 40
0.0
 40
0.0
 40
0.125
 40
0.125
 40
0.125
 40
0.125
 40
0.25
 40
0.25
 40
0.25
 40
0.25
 40
0.375
 40
0.375
 40
0.375
 40
0.375
 40
0.5
 40
0.5
 40
0.5
 40
0.5
 40
0.625
 40
0.625
 40
0.625
 40
0.625
 40
0.75
 40
0.75
 40
0.75
 40
0.75
 40
0.875
 40
0.875
 40
0.875
 40
0.875
 40
1.0
 40
1.0
 40
1.0
 40
1.0
 10
-11.75107
 20
-13.71494
 30
0.0
 10
-11.75107
 20
-13.71494
 30
0.0
 10
-11.75107
 20
-13.54603
 30
0.0
 10
-11.75107
 20
-13.54603
 30
0.0
 10
-11.75107
 20
-13.54603
 30
0.0
 10
-11.75107
 20
-13.54603
 30
0.0
 10
-11.5356
 20
-13.54603
 30
0.0
 10
-11.5356
 20
-13.54603
 30
0.0
 10
-11.5356
 20
-13.54603
 30
0.0
 10
-11.5356
 20
-13.54603
 30
0.0
 10
-11.5356
 20
-13.71494
 30
0.0
 10
-11.5356
 20
-13.71494
 30
0.0
 10
-11.5356
 20
-13.71494
 30
0.0
 10
-11.5356
 20
-13.71494
 30
0.0
 10
-11.5356
 20
-13.41014
 30
0.0
 10
-11.5356
 20
-13.41014
 30
0.0
 10
-11.5356
 20
-13.41014
 30
0.0
 10
-11.5356
 20
-13.41014
 30
0.0
 10
-11.5356
 20
-13.54603
 30
0.0
 10
-11.5356
 20
-13.54603
 30
0.0
 10
-11.5356
 20
-13.54603
 30
0.0
 10
-11.5356
 20
-13.54603
 30
0.0
 10
-11.75107
 20
-13.54603
 30
0.0
 10
-11.75107
 20
-13.54603
 30
0.0
 10
-11.75107
 20
-13.54603
 30
0.0
 10
-11.75107
 20
-13.54603
 30
0.0
 10
-11.75107
 20
-13.41014
 30
0.0
 10
-11.75107
 20
-13.41014
 30
0.0
 10
-11.75107
 20
-13.41014
 30
0.0
 10
-11.75107
 20
-13.41014
 30
0.0
 10
-11.75107
 20
-13.71494
 30
0.0
 10
-11.75107
 20
-13.71494
 30
0.0
  0
SPLINE
  5
6D
330
1F
100
AcDbEntity
  8
Layer 1
 62
     5
370
    53
100
AcDbSpline
210
0.0
220
0.0
230
1.0
 70
    11
 71
     3
 72
    20
 73
    16
 74
     0
 42
0.0000000001
 43
0.0000000001
 40
0.0
 40
0.0
 40
0.0
 40
0.0
 40
0.25
 40
0.25
 40
0.25
 40
0.25
 40
0.5
 40
0.5
 40
0.5
 40
0.5
 40
0.75
 40
0.75
 40
0.75
 40
0.75
 40
1.0
 40
1.0
 40
1.0
 40
1.0
 10
-11.15968
 20
-13.71494
 30
0.0
 10
-11.15968
 20
-13.71494
 30
0.0
 10
-11.3379
 20
-13.71494
 30
0.0
 10
-11.3379
 20
-13.71494
 30
0.0
 10
-11.3379
 20
-13.71494
 30
0.0
 10
-11.3379
 20
-13.71494
 30
0.0
 10
-11.3379
 20
-13.40972
 30
0.0
 10
-11.3379
 20
-13.40972
 30
0.0
 10
-11.3379
 20
-13.40972
 30
0.0
 10
-11.3379
 20
-13.40972
 30
0.0
 10
-11.3379
 20
-13.71494
 30
0.0
 10
-11.3379
 20
-13.71494
 30
0.0
 10
-11.3379
 20
-13.71494
 30
0.0
 10
-11.3379
 20
-13.71494
 30
0.0
 10
-11.15968
 20
-13.71494
 30
0.0
 10
-11.15968
 20
-13.71494
 30
0.0
  0
SPLINE
  5
6E
330
1F
100
AcDbEntity
  8
Layer 1
 62
     5
370
    53
100
AcDbSpline
210
0.0
220
0.0
230
1.0
 70
    11
 71
     3
 72
    64
 73
    60
 74
     0
 42
0.0000000001
 43
0.0000000001
 40
0.0
 40
0.0
 40
0.0
 40
0.0
 40
0.0666666666666667
 40
0.0666666666666667
 40
0.0666666666666667
 40
0.0666666666666667
 40
0.1333333333333333
 40
0.1333333333333333
 40
0.1333333333333333
 40
0.1333333333333333
 40
0.2
 40
0.2
 40
0.2
 40
0.2
 40
0.2666666666666667
 40
0.2666666666666667
 40
0.2666666666666667
 40
0.2666666666666667
 40
0.3333333333333333
 40
0.3333333333333333
 40
0.3333333333333333
 40
0.3333333333333333
 40
0.4
 40
0.4
 40
0.4
 40
0.4
 40
0.4666666666666666
 40
0.4666666666666666
 40
0.4666666666666666
 40
0.4666666666666666
 40
0.5333333333333333
 40
0.5333333333333333
 40
0.5333333333333333
 40
0.5333333333333333
 40
0.6
 40
0.6
 40
0.6
 40
0.6
 40
0.6666666666666666
 40
0.6666666666666666
 40
0.6666666666666666
 40
0.6666666666666666
 40
0.7333333333333333
 40
0.7333333333333333
 40
0.7333333333333333
 40
0.7333333333333333
 40
0.7999999999999999
 40
0.7999999999999999
 40
0.7999999999999999
 40
0.7999999999999999
 40
0.8666666666666666
 40
0.8666666666666666
 40
0.8666666666666666
 40
0.8666666666666666
 40
0.9333333333333332
 40
0.9333333333333332
 40
0.9333333333333332
 40
0.9333333333333332
 40
1.0
 40
1.0
 40
1.0
 40
1.0
 10
-12.09736
 20
-14.29025
 30
0.0
 10
-12.09736
 20
-14.29025
 30
0.0
 10
-12.09736
 20
-13.98503
 30
0.0
 10
-12.09736
 20
-13.98503
 30
0.0
 10
-12.09736
 20
-13.98503
 30
0.0
 10
-12.09736
 20
-13.98503
 30
0.0
 10
-11.98729
 20
-13.98503
 30
0.0
 10
-11.98729
 20
-13.98503
 30
0.0
 10
-11.98729
 20
-13.98503
 30
0.0
 10
-11.97057
 20
-13.9851
 30
0.0
 10
-11.95611
 20
-13.98729
 30
0.0
 10
-11.9439
 20
-13.99159
 30
0.0
 10
-11.9439
 20
-13.99159
 30
0.0
 10
-11.93177
 20
-13.99589
 30
0.0
 10
-11.92147
 20
-14.00182
 30
0.0
 10
-11.91314
 20
-14.0093
 30
0.0
 10
-11.91314
 20
-14.0093
 30
0.0
 10
-11.90475
 20
-14.01685
 30
0.0
 10
-11.89797
 20
-14.02553
 30
0.0
 10
-11.89268
 20
-14.03526
 30
0.0
 10
-11.89268
 20
-14.03526
 30
0.0
 10
-11.88739
 20
-14.04507
 30
0.0
 10
-11.8833
 20
-14.05551
 30
0.0
 10
-11.8804
 20
-14.06659
 30
0.0
 10
-11.8804
 20
-14.06659
 30
0.0
 10
-11.87751
 20
-14.0776
 30
0.0
 10
-11.87547
 20
-14.08882
 30
0.0
 10
-11.8742
 20
-14.10017
 30
0.0
 10
-11.8742
 20
-14.10017
 30
0.0
 10
-11.87293
 20
-14.11153
 30
0.0
 10
-11.87208
 20
-14.12254
 30
0.0
 10
-11.87173
 20
-14.13319
 30
0.0
 10
-11.87173
 20
-14.13319
 30
0.0
 10
-11.87123
 20
-14.14385
 30
0.0
 10
-11.87158
 20
-14.15507
 30
0.0
 10
-11.87271
 20
-14.16685
 30
0.0
 10
-11.87271
 20
-14.16685
 30
0.0
 10
-11.87384
 20
-14.17863
 30
0.0
 10
-11.87596
 20
-14.19041
 30
0.0
 10
-11.87913
 20
-14.20213
 30
0.0
 10
-11.87913
 20
-14.20213
 30
0.0
 10
-11.88224
 20
-14.21384
 30
0.0
 10
-11.88668
 20
-14.22499
 30
0.0
 10
-11.8924
 20
-14.2355
 30
0.0
 10
-11.8924
 20
-14.2355
 30
0.0
 10
-11.89804
 20
-14.24608
 30
0.0
 10
-11.90524
 20
-14.25547
 30
0.0
 10
-11.91385
 20
-14.26365
 30
0.0
 10
-11.91385
 20
-14.26365
 30
0.0
 10
-11.92253
 20
-14.27184
 30
0.0
 10
-11.9329
 20
-14.27833
 30
0.0
 10
-11.94503
 20
-14.28305
 30
0.0
 10
-11.94503
 20
-14.28305
 30
0.0
 10
-11.95717
 20
-14.28778
 30
0.0
 10
-11.97128
 20
-14.29018
 30
0.0
 10
-11.98729
 20
-14.29025
 30
0.0
 10
-11.98729
 20
-14.29025
 30
0.0
 10
-11.98729
 20
-14.29025
 30
0.0
 10
-12.09736
 20
-14.29025
 30
0.0
 10
-12.09736
 20
-14.29025
 30
0.0
  0
SPLINE
  5
6F
330
1F
100
AcDbEntity
  8
Layer 1
 62
     5
370
    53
100
AcDbSpline
210
0.0
220
0.0
230
1.0
 70
    11
 71
     3
 72
    64
 73
    60
 74
     0
 42
0.0000000001
 43
0.0000000001
 40
0.0
 40
0.0
 40
0.0
 40
0.0
 40
0.0666666666666667
 40
0.0666666666666667
 40
0.0666666666666667
 40
0.0666666666666667
 40
0.1333333333333333
 40
0.1333333333333333
 40
0.1333333333333333
 40
0.1333333333333333
 40
0.2
 40
0.2
 40
0.2
 40
0.2
 40
0.2666666666666667
 40
0.2666666666666667
 40
0.2666666666666667
 40
0.2666666666666667
 40
0.3333333333333333
 40
0.3333333333333333
 40
0.3333333333333333
 40
0.3333333333333333
 40
0.4
 40
0.4
 40
0.4
 40
0.4
 40
0.4666666666666666
 40
0.4666666666666666
 40
0.4666666666666666
 40
0.4666666666666666
 40
0.5333333333333333
 40
0.5333333333333333
 40
0.5333333333333333
 40
0.5333333333333333
 40
0.6
 40
0.6
 40
0.6
 40
0.6
 40
0.6666666666666666
 40
0.6666666666666666
 40
0.6666666666666666
 40
0.6666666666666666
 40
0.7333333333333333
 40
0.7333333333333333
 40
0.7333333333333333
 40
0.7333333333333333
 40
0.7999999999999999
 40
0.7999999999999999
 40
0.7999999999999999
 40
0.7999999999999999
 40
0.8666666666666666
 40
0.8666666666666666
 40
0.8666666666666666
 40
0.8666666666666666
 40
0.9333333333333332
 40
0.9333333333333332
 40
0.9333333333333332
 40
0.9333333333333332
 40
1.0
 40
1.0
 40
1.0
 40
1.0
 10
-12.09736
 20
-14.29025
 30
0.0
 10
-12.09736
 20
-14.29025
 30
0.0
 10
-12.09736
 20
-13.98503
 30
0.0
 10
-12.09736
 20
-13.98503
 30
0.0
 10
-12.09736
 20
-13.98503
 30
0.0
 10
-12.09736
 20
-13.98503
 30
0.0
 10
-11.98729
 20
-13.98503
 30
0.0
 10
-11.98729
 20
-13.98503
 30
0.0
 10
-11.98729
 20
-13.98503
 30
0.0
 10
-11.97057
 20
-13.9851
 30
0.0
 10
-11.95611
 20
-13.98729
 30
0.0
 10
-11.9439
 20
-13.99159
 30
0.0
 10
-11.9439
 20
-13.99159
 30
0.0
 10
-11.93177
 20
-13.99589
 30
0.0
 10
-11.92147
 20
-14.00182
 30
0.0
 10
-11.91314
 20
-14.0093
 30
0.0
 10
-11.91314
 20
-14.0093
 30
0.0
 10
-11.90475
 20
-14.01685
 30
0.0
 10
-11.89797
 20
-14.02553
 30
0.0
 10
-11.89268
 20
-14.03526
 30
0.0
 10
-11.89268
 20
-14.03526
 30
0.0
 10
-11.88739
 20
-14.04507
 30
0.0
 10
-11.8833
 20
-14.05551
 30
0.0
 10
-11.8804
 20
-14.06659
 30
0.0
 10
-11.8804
 20
-14.06659
 30
0.0
 10
-11.87751
 20
-14.0776
 30
0.0
 10
-11.87547
 20
-14.08882
 30
0.0
 10
-11.8742
 20
-14.10017
 30
0.0
 10
-11.8742
 20
-14.10017
 30
0.0
 10
-11.87293
 20
-14.11153
 30
0.0
 10
-11.87208
 20
-14.12254
 30
0.0
 10
-11.87173
 20
-14.13319
 30
0.0
 10
-11.87173
 20
-14.13319
 30
0.0
 10
-11.87123
 20
-14.14385
 30
0.0
 10
-11.87158
 20
-14.15507
 30
0.0
 10
-11.87271
 20
-14.16685
 30
0.0
 10
-11.87271
 20
-14.16685
 30
0.0
 10
-11.87384
 20
-14.17863
 30
0.0
 10
-11.87596
 20
-14.19041
 30
0.0
 10
-11.87913
 20
-14.20213
 30
0.0
 10
-11.87913
 20
-14.20213
 30
0.0
 10
-11.88224
 20
-14.21384
 30
0.0
 10
-11.88668
 20
-14.22499
 30
0.0
 10
-11.8924
 20
-14.2355
 30
0.0
 10
-11.8924
 20
-14.2355
 30
0.0
 10
-11.89804
 20
-14.24608
 30
0.0
 10
-11.90524
 20
-14.25547
 30
0.0
 10
-11.91385
 20
-14.26365
 30
0.0
 10
-11.91385
 20
-14.26365
 30
0.0
 10
-11.92253
 20
-14.27184
 30
0.0
 10
-11.9329
 20
-14.27833
 30
0.0
 10
-11.94503
 20
-14.28305
 30
0.0
 10
-11.94503
 20
-14.28305
 30
0.0
 10
-11.95717
 20
-14.28778
 30
0.0
 10
-11.97128
 20
-14.29018
 30
0.0
 10
-11.98729
 20
-14.29025
 30
0.0
 10
-11.98729
 20
-14.29025
 30
0.0
 10
-11.98729
 20
-14.29025
 30
0.0
 10
-12.09736
 20
-14.29025
 30
0.0
 10
-12.09736
 20
-14.29025
 30
0.0
  0
SPLINE
  5
70
330
1F
100
AcDbEntity
  8
Layer 1
 62
     5
370
    53
100
AcDbSpline
210
0.0
220
0.0
230
1.0
 70
    11
 71
     3
 72
    92
 73
    88
 74
     0
 42
0.0000000001
 43
0.0000000001
 40
0.0
 40
0.0
 40
0.0
 40
0.0
 40
0.0454545454545455
 40
0.0454545454545455
 40
0.0454545454545455
 40
0.0454545454545455
 40
0.0909090909090909
 40
0.0909090909090909
 40
0.0909090909090909
 40
0.0909090909090909
 40
0.1363636363636364
 40
0.1363636363636364
 40
0.1363636363636364
 40
0.1363636363636364
 40
0.1818181818181818
 40
0.1818181818181818
 40
0.1818181818181818
 40
0.1818181818181818
 40
0.2272727272727273
 40
0.2272727272727273
 40
0.2272727272727273
 40
0.2272727272727273
 40
0.2727272727272728
 40
0.2727272727272728
 40
0.2727272727272728
 40
0.2727272727272728
 40
0.3181818181818182
 40
0.3181818181818182
 40
0.3181818181818182
 40
0.3181818181818182
 40
0.3636363636363637
 40
0.3636363636363637
 40
0.3636363636363637
 40
0.3636363636363637
 40
0.4090909090909092
 40
0.4090909090909092
 40
0.4090909090909092
 40
0.4090909090909092
 40
0.4545454545454546
 40
0.4545454545454546
 40
0.4545454545454546
 40
0.4545454545454546
 40
0.5000000000000001
 40
0.5000000000000001
 40
0.5000000000000001
 40
0.5000000000000001
 40
0.5454545454545455
 40
0.5454545454545455
 40
0.5454545454545455
 40
0.5454545454545455
 40
0.5909090909090909
 40
0.5909090909090909
 40
0.5909090909090909
 40
0.5909090909090909
 40
0.6363636363636364
 40
0.6363636363636364
 40
0.6363636363636364
 40
0.6363636363636364
 40
0.6818181818181818
 40
0.6818181818181818
 40
0.6818181818181818
 40
0.6818181818181818
 40
0.7272727272727272
 40
0.7272727272727272
 40
0.7272727272727272
 40
0.7272727272727272
 40
0.7727272727272726
 40
0.7727272727272726
 40
0.7727272727272726
 40
0.7727272727272726
 40
0.818181818181818
 40
0.818181818181818
 40
0.818181818181818
 40
0.818181818181818
 40
0.8636363636363634
 40
0.8636363636363634
 40
0.8636363636363634
 40
0.8636363636363634
 40
0.9090909090909088
 40
0.9090909090909088
 40
0.9090909090909088
 40
0.9090909090909088
 40
0.9545454545454543
 40
0.9545454545454543
 40
0.9545454545454543
 40
0.9545454545454543
 40
1.0
 40
1.0
 40
1.0
 40
1.0
 10
-11.50554
 20
-14.1878
 30
0.0
 10
-11.51006
 20
-14.212
 30
0.0
 10
-11.51796
 20
-14.23197
 30
0.0
 10
-11.52904
 20
-14.24763
 30
0.0
 10
-11.52904
 20
-14.24763
 30
0.0
 10
-11.54018
 20
-14.26323
 30
0.0
 10
-11.55444
 20
-14.2748
 30
0.0
 10
-11.57179
 20
-14.28235
 30
0.0
 10
-11.57179
 20
-14.28235
 30
0.0
 10
-11.58908
 20
-14.2899
 30
0.0
 10
-11.6094
 20
-14.29371
 30
0.0
 10
-11.63254
 20
-14.29364
 30
0.0
 10
-11.63254
 20
-14.29364
 30
0.0
 10
-11.66069
 20
-14.29371
 30
0.0
 10
-11.68461
 20
-14.28827
 30
0.0
 10
-11.70423
 20
-14.2772
 30
0.0
 10
-11.70423
 20
-14.2772
 30
0.0
 10
-11.72384
 20
-14.26619
 30
0.0
 10
-11.7388
 20
-14.24919
 30
0.0
 10
-11.7491
 20
-14.22612
 30
0.0
 10
-11.7491
 20
-14.22612
 30
0.0
 10
-11.7594
 20
-14.20304
 30
0.0
 10
-11.76455
 20
-14.17348
 30
0.0
 10
-11.76462
 20
-14.13743
 30
0.0
 10
-11.76462
 20
-14.13743
 30
0.0
 10
-11.76455
 20
-14.10152
 30
0.0
 10
-11.7594
 20
-14.07202
 30
0.0
 10
-11.7491
 20
-14.04895
 30
0.0
 10
-11.7491
 20
-14.04895
 30
0.0
 10
-11.7388
 20
-14.02588
 30
0.0
 10
-11.72384
 20
-14.00881
 30
0.0
 10
-11.70423
 20
-13.99773
 30
0.0
 10
-11.70423
 20
-13.99773
 30
0.0
 10
-11.68461
 20
-13.98665
 30
0.0
 10
-11.66069
 20
-13.98115
 30
0.0
 10
-11.63254
 20
-13.98122
 30
0.0
 10
-11.63254
 20
-13.98122
 30
0.0
 10
-11.60241
 20
-13.98115
 30
0.0
 10
-11.57716
 20
-13.98757
 30
0.0
 10
-11.55684
 20
-14.00048
 30
0.0
 10
-11.55684
 20
-14.00048
 30
0.0
 10
-11.53659
 20
-14.01339
 30
0.0
 10
-11.5217
 20
-14.03336
 30
0.0
 10
-11.51232
 20
-14.06038
 30
0.0
 10
-11.51232
 20
-14.06038
 30
0.0
 10
-11.5217
 20
-14.03336
 30
0.0
 10
-11.53659
 20
-14.01339
 30
0.0
 10
-11.55684
 20
-14.00048
 30
0.0
 10
-11.55684
 20
-14.00048
 30
0.0
 10
-11.57716
 20
-13.98757
 30
0.0
 10
-11.60241
 20
-13.98115
 30
0.0
 10
-11.63254
 20
-13.98122
 30
0.0
 10
-11.63254
 20
-13.98122
 30
0.0
 10
-11.66069
 20
-13.98115
 30
0.0
 10
-11.68461
 20
-13.98665
 30
0.0
 10
-11.70423
 20
-13.99773
 30
0.0
 10
-11.70423
 20
-13.99773
 30
0.0
 10
-11.72384
 20
-14.00881
 30
0.0
 10
-11.7388
 20
-14.02588
 30
0.0
 10
-11.7491
 20
-14.04895
 30
0.0
 10
-11.7491
 20
-14.04895
 30
0.0
 10
-11.7594
 20
-14.07202
 30
0.0
 10
-11.76455
 20
-14.10152
 30
0.0
 10
-11.76462
 20
-14.13743
 30
0.0
 10
-11.76462
 20
-14.13743
 30
0.0
 10
-11.76455
 20
-14.17348
 30
0.0
 10
-11.7594
 20
-14.20304
 30
0.0
 10
-11.7491
 20
-14.22612
 30
0.0
 10
-11.7491
 20
-14.22612
 30
0.0
 10
-11.7388
 20
-14.24919
 30
0.0
 10
-11.72384
 20
-14.26619
 30
0.0
 10
-11.70423
 20
-14.2772
 30
0.0
 10
-11.70423
 20
-14.2772
 30
0.0
 10
-11.68461
 20
-14.28827
 30
0.0
 10
-11.66069
 20
-14.29371
 30
0.0
 10
-11.63254
 20
-14.29364
 30
0.0
 10
-11.63254
 20
-14.29364
 30
0.0
 10
-11.6094
 20
-14.29371
 30
0.0
 10
-11.58908
 20
-14.2899
 30
0.0
 10
-11.57179
 20
-14.28235
 30
0.0
 10
-11.57179
 20
-14.28235
 30
0.0
 10
-11.55444
 20
-14.2748
 30
0.0
 10
-11.54018
 20
-14.26323
 30
0.0
 10
-11.52904
 20
-14.24763
 30
0.0
 10
-11.52904
 20
-14.24763
 30
0.0
 10
-11.51796
 20
-14.23197
 30
0.0
 10
-11.51006
 20
-14.212
 30
0.0
 10
-11.50554
 20
-14.1878
 30
0.0
  0
SPLINE
  5
71
330
1F
100
AcDbEntity
  8
Layer 1
 62
     5
370
    53
100
AcDbSpline
210
0.0
220
0.0
230
1.0
 70
    11
 71
     3
 72
   188
 73
   184
 74
     0
 42
0.0000000001
 43
0.0000000001
 40
0.0
 40
0.0
 40
0.0
 40
0.0
 40
0.0217391304347826
 40
0.0217391304347826
 40
0.0217391304347826
 40
0.0217391304347826
 40
0.0434782608695652
 40
0.0434782608695652
 40
0.0434782608695652
 40
0.0434782608695652
 40
0.0652173913043478
 40
0.0652173913043478
 40
0.0652173913043478
 40
0.0652173913043478
 40
0.0869565217391304
 40
0.0869565217391304
 40
0.0869565217391304
 40
0.0869565217391304
 40
0.108695652173913
 40
0.108695652173913
 40
0.108695652173913
 40
0.108695652173913
 40
0.1304347826086956
 40
0.1304347826086956
 40
0.1304347826086956
 40
0.1304347826086956
 40
0.1521739130434783
 40
0.1521739130434783
 40
0.1521739130434783
 40
0.1521739130434783
 40
0.1739130434782609
 40
0.1739130434782609
 40
0.1739130434782609
 40
0.1739130434782609
 40
0.1956521739130435
 40
0.1956521739130435
 40
0.1956521739130435
 40
0.1956521739130435
 40
0.2173913043478261
 40
0.2173913043478261
 40
0.2173913043478261
 40
0.2173913043478261
 40
0.2391304347826086
 40
0.2391304347826086
 40
0.2391304347826086
 40
0.2391304347826086
 40
0.2608695652173912
 40
0.2608695652173912
 40
0.2608695652173912
 40
0.2608695652173912
 40
0.2826086956521738
 40
0.2826086956521738
 40
0.2826086956521738
 40
0.2826086956521738
 40
0.3043478260869564
 40
0.3043478260869564
 40
0.3043478260869564
 40
0.3043478260869564
 40
0.326086956521739
 40
0.326086956521739
 40
0.326086956521739
 40
0.326086956521739
 40
0.3478260869565216
 40
0.3478260869565216
 40
0.3478260869565216
 40
0.3478260869565216
 40
0.3695652173913042
 40
0.3695652173913042
 40
0.3695652173913042
 40
0.3695652173913042
 40
0.3913043478260868
 40
0.3913043478260868
 40
0.3913043478260868
 40
0.3913043478260868
 40
0.4130434782608694
 40
0.4130434782608694
 40
0.4130434782608694
 40
0.4130434782608694
 40
0.434782608695652
 40
0.434782608695652
 40
0.434782608695652
 40
0.434782608695652
 40
0.4565217391304346
 40
0.4565217391304346
 40
0.4565217391304346
 40
0.4565217391304346
 40
0.4782608695652172
 40
0.4782608695652172
 40
0.4782608695652172
 40
0.4782608695652172
 40
0.4999999999999998
 40
0.4999999999999998
 40
0.4999999999999998
 40
0.4999999999999998
 40
0.5217391304347824
 40
0.5217391304347824
 40
0.5217391304347824
 40
0.5217391304347824
 40
0.543478260869565
 40
0.543478260869565
 40
0.543478260869565
 40
0.543478260869565
 40
0.5652173913043476
 40
0.5652173913043476
 40
0.5652173913043476
 40
0.5652173913043476
 40
0.5869565217391302
 40
0.5869565217391302
 40
0.5869565217391302
 40
0.5869565217391302
 40
0.6086956521739127
 40
0.6086956521739127
 40
0.6086956521739127
 40
0.6086956521739127
 40
0.6304347826086953
 40
0.6304347826086953
 40
0.6304347826086953
 40
0.6304347826086953
 40
0.6521739130434779
 40
0.6521739130434779
 40
0.6521739130434779
 40
0.6521739130434779
 40
0.6739130434782605
 40
0.6739130434782605
 40
0.6739130434782605
 40
0.6739130434782605
 40
0.6956521739130431
 40
0.6956521739130431
 40
0.6956521739130431
 40
0.6956521739130431
 40
0.7173913043478257
 40
0.7173913043478257
 40
0.7173913043478257
 40
0.7173913043478257
 40
0.7391304347826083
 40
0.7391304347826083
 40
0.7391304347826083
 40
0.7391304347826083
 40
0.7608695652173909
 40
0.7608695652173909
 40
0.7608695652173909
 40
0.7608695652173909
 40
0.7826086956521735
 40
0.7826086956521735
 40
0.7826086956521735
 40
0.7826086956521735
 40
0.8043478260869561
 40
0.8043478260869561
 40
0.8043478260869561
 40
0.8043478260869561
 40
0.8260869565217387
 40
0.8260869565217387
 40
0.8260869565217387
 40
0.8260869565217387
 40
0.8478260869565213
 40
0.8478260869565213
 40
0.8478260869565213
 40
0.8478260869565213
 40
0.8695652173913039
 40
0.8695652173913039
 40
0.8695652173913039
 40
0.8695652173913039
 40
0.8913043478260865
 40
0.8913043478260865
 40
0.8913043478260865
 40
0.8913043478260865
 40
0.9130434782608691
 40
0.9130434782608691
 40
0.9130434782608691
 40
0.9130434782608691
 40
0.9347826086956517
 40
0.9347826086956517
 40
0.9347826086956517
 40
0.9347826086956517
 40
0.9565217391304343
 40
0.9565217391304343
 40
0.9565217391304343
 40
0.9565217391304343
 40
0.9782608695652169
 40
0.9782608695652169
 40
0.9782608695652169
 40
0.9782608695652169
 40
1.0
 40
1.0
 40
1.0
 40
1.0
 10
-11.4014
 20
-14.19796
 30
0.0
 10
-11.40126
 20
-14.21483
 30
0.0
 10
-11.3983
 20
-14.22929
 30
0.0
 10
-11.39237
 20
-14.24136
 30
0.0
 10
-11.39237
 20
-14.24136
 30
0.0
 10
-11.38651
 20
-14.25335
 30
0.0
 10
-11.37833
 20
-14.26316
 30
0.0
 10
-11.36803
 20
-14.27078
 30
0.0
 10
-11.36803
 20
-14.27078
 30
0.0
 10
-11.35766
 20
-14.27833
 30
0.0
 10
-11.34573
 20
-14.2839
 30
0.0
 10
-11.33226
 20
-14.2875
 30
0.0
 10
-11.33226
 20
-14.2875
 30
0.0
 10
-11.31885
 20
-14.29103
 30
0.0
 10
-11.30446
 20
-14.29279
 30
0.0
 10
-11.28922
 20
-14.29279
 30
0.0
 10
-11.28922
 20
-14.29279
 30
0.0
 10
-11.27384
 20
-14.29272
 30
0.0
 10
-11.26001
 20
-14.29046
 30
0.0
 10
-11.24766
 20
-14.28616
 30
0.0
 10
-11.24766
 20
-14.28616
 30
0.0
 10
-11.23538
 20
-14.28185
 30
0.0
 10
-11.22487
 20
-14.27607
 30
0.0
 10
-11.21605
 20
-14.2688
 30
0.0
 10
-11.21605
 20
-14.2688
 30
0.0
 10
-11.2073
 20
-14.26153
 30
0.0
 10
-11.20053
 20
-14.25342
 30
0.0
 10
-11.19573
 20
-14.24439
 30
0.0
 10
-11.19573
 20
-14.24439
 30
0.0
 10
-11.19093
 20
-14.23536
 30
0.0
 10
-11.18839
 20
-14.22612
 30
0.0
 10
-11.18804
 20
-14.21659
 30
0.0
 10
-11.18804
 20
-14.21659
 30
0.0
 10
-11.18762
 20
-14.2041
 30
0.0
 10
-11.18945
 20
-14.19267
 30
0.0
 10
-11.19347
 20
-14.18237
 30
0.0
 10
-11.19347
 20
-14.18237
 30
0.0
 10
-11.1975
 20
-14.17207
 30
0.0
 10
-11.20371
 20
-14.16346
 30
0.0
 10
-11.2121
 20
-14.15641
 30
0.0
 10
-11.2121
 20
-14.15641
 30
0.0
 10
-11.22043
 20
-14.14935
 30
0.0
 10
-11.23094
 20
-14.14441
 30
0.0
 10
-11.2435
 20
-14.14166
 30
0.0
 10
-11.2435
 20
-14.14166
 30
0.0
 10
-11.2435
 20
-14.14166
 30
0.0
 10
-11.34721
 20
-14.11922
 30
0.0
 10
-11.34721
 20
-14.11922
 30
0.0
 10
-11.34721
 20
-14.11922
 30
0.0
 10
-11.35695
 20
-14.11718
 30
0.0
 10
-11.36535
 20
-14.11372
 30
0.0
 10
-11.37226
 20
-14.10892
 30
0.0
 10
-11.37226
 20
-14.10892
 30
0.0
 10
-11.37918
 20
-14.10406
 30
0.0
 10
-11.38454
 20
-14.09735
 30
0.0
 10
-11.38821
 20
-14.08874
 30
0.0
 10
-11.38821
 20
-14.08874
 30
0.0
 10
-11.39188
 20
-14.08021
 30
0.0
 10
-11.39378
 20
-14.06934
 30
0.0
 10
-11.39378
 20
-14.05615
 30
0.0
 10
-11.39378
 20
-14.05615
 30
0.0
 10
-11.39378
 20
-14.04613
 30
0.0
 10
-11.39173
 20
-14.03668
 30
0.0
 10
-11.38757
 20
-14.02779
 30
0.0
 10
-11.38757
 20
-14.02779
 30
0.0
 10
-11.38348
 20
-14.0189
 30
0.0
 10
-11.37741
 20
-14.01106
 30
0.0
 10
-11.36944
 20
-14.00415
 30
0.0
 10
-11.36944
 20
-14.00415
 30
0.0
 10
-11.36147
 20
-13.99731
 30
0.0
 10
-11.35159
 20
-13.99194
 30
0.0
 10
-11.33988
 20
-13.98806
 30
0.0
 10
-11.33988
 20
-13.98806
 30
0.0
 10
-11.32809
 20
-13.98411
 30
0.0
 10
-11.31462
 20
-13.98214
 30
0.0
 10
-11.29938
 20
-13.98207
 30
0.0
 10
-11.29938
 20
-13.98207
 30
0.0
 10
-11.28407
 20
-13.98207
 30
0.0
 10
-11.27003
 20
-13.98383
 30
0.0
 10
-11.25719
 20
-13.98736
 30
0.0
 10
-11.25719
 20
-13.98736
 30
0.0
 10
-11.24442
 20
-13.99089
 30
0.0
 10
-11.23334
 20
-13.99597
 30
0.0
 10
-11.22403
 20
-14.00274
 30
0.0
 10
-11.22403
 20
-14.00274
 30
0.0
 10
-11.21471
 20
-14.00951
 30
0.0
 10
-11.20752
 20
-14.01784
 30
0.0
 10
-11.20258
 20
-14.02757
 30
0.0
 10
-11.20258
 20
-14.02757
 30
0.0
 10
-11.19764
 20
-14.03738
 30
0.0
 10
-11.19531
 20
-14.0486
 30
0.0
 10
-11.19566
 20
-14.06123
 30
0.0
 10
-11.19566
 20
-14.06123
 30
0.0
 10
-11.19531
 20
-14.0486
 30
0.0
 10
-11.19764
 20
-14.03738
 30
0.0
 10
-11.20258
 20
-14.02757
 30
0.0
 10
-11.20258
 20
-14.02757
 30
0.0
 10
-11.20752
 20
-14.01784
 30
0.0
 10
-11.21471
 20
-14.00951
 30
0.0
 10
-11.22403
 20
-14.00274
 30
0.0
 10
-11.22403
 20
-14.00274
 30
0.0
 10
-11.23334
 20
-13.99597
 30
0.0
 10
-11.24442
 20
-13.99089
 30
0.0
 10
-11.25719
 20
-13.98736
 30
0.0
 10
-11.25719
 20
-13.98736
 30
0.0
 10
-11.27003
 20
-13.98383
 30
0.0
 10
-11.28407
 20
-13.98207
 30
0.0
 10
-11.29938
 20
-13.98207
 30
0.0
 10
-11.29938
 20
-13.98207
 30
0.0
 10
-11.31462
 20
-13.98214
 30
0.0
 10
-11.32809
 20
-13.98411
 30
0.0
 10
-11.33988
 20
-13.98806
 30
0.0
 10
-11.33988
 20
-13.98806
 30
0.0
 10
-11.35159
 20
-13.99194
 30
0.0
 10
-11.36147
 20
-13.99731
 30
0.0
 10
-11.36944
 20
-14.00415
 30
0.0
 10
-11.36944
 20
-14.00415
 30
0.0
 10
-11.37741
 20
-14.01106
 30
0.0
 10
-11.38348
 20
-14.0189
 30
0.0
 10
-11.38757
 20
-14.02779
 30
0.0
 10
-11.38757
 20
-14.02779
 30
0.0
 10
-11.39173
 20
-14.03668
 30
0.0
 10
-11.39378
 20
-14.04613
 30
0.0
 10
-11.39378
 20
-14.05615
 30
0.0
 10
-11.39378
 20
-14.05615
 30
0.0
 10
-11.39378
 20
-14.06934
 30
0.0
 10
-11.39195
 20
-14.08021
 30
0.0
 10
-11.38842
 20
-14.08867
 30
0.0
 10
-11.38842
 20
-14.08867
 30
0.0
 10
-11.38482
 20
-14.09721
 30
0.0
 10
-11.37953
 20
-14.10384
 30
0.0
 10
-11.37261
 20
-14.10871
 30
0.0
 10
-11.37261
 20
-14.10871
 30
0.0
 10
-11.3657
 20
-14.11351
 30
0.0
 10
-11.35723
 20
-14.11704
 30
0.0
 10
-11.34721
 20
-14.11922
 30
0.0
 10
-11.34721
 20
-14.11922
 30
0.0
 10
-11.34721
 20
-14.11922
 30
0.0
 10
-11.2435
 20
-14.14166
 30
0.0
 10
-11.2435
 20
-14.14166
 30
0.0
 10
-11.2435
 20
-14.14166
 30
0.0
 10
-11.23066
 20
-14.14441
 30
0.0
 10
-11.22007
 20
-14.14935
 30
0.0
 10
-11.21175
 20
-14.15641
 30
0.0
 10
-11.21175
 20
-14.15641
 30
0.0
 10
-11.20335
 20
-14.16346
 30
0.0
 10
-11.19721
 20
-14.17207
 30
0.0
 10
-11.19326
 20
-14.18237
 30
0.0
 10
-11.19326
 20
-14.18237
 30
0.0
 10
-11.18938
 20
-14.19267
 30
0.0
 10
-11.18762
 20
-14.2041
 30
0.0
 10
-11.18804
 20
-14.21659
 30
0.0
 10
-11.18804
 20
-14.21659
 30
0.0
 10
-11.18839
 20
-14.22612
 30
0.0
 10
-11.19093
 20
-14.23536
 30
0.0
 10
-11.19573
 20
-14.24439
 30
0.0
 10
-11.19573
 20
-14.24439
 30
0.0
 10
-11.20053
 20
-14.25342
 30
0.0
 10
-11.2073
 20
-14.26153
 30
0.0
 10
-11.21605
 20
-14.2688
 30
0.0
 10
-11.21605
 20
-14.2688
 30
0.0
 10
-11.22487
 20
-14.27607
 30
0.0
 10
-11.23538
 20
-14.28185
 30
0.0
 10
-11.24766
 20
-14.28616
 30
0.0
 10
-11.24766
 20
-14.28616
 30
0.0
 10
-11.26001
 20
-14.29046
 30
0.0
 10
-11.27384
 20
-14.29272
 30
0.0
 10
-11.28922
 20
-14.29279
 30
0.0
 10
-11.28922
 20
-14.29279
 30
0.0
 10
-11.30446
 20
-14.29279
 30
0.0
 10
-11.31885
 20
-14.29103
 30
0.0
 10
-11.33226
 20
-14.2875
 30
0.0
 10
-11.33226
 20
-14.2875
 30
0.0
 10
-11.34573
 20
-14.2839
 30
0.0
 10
-11.35766
 20
-14.27833
 30
0.0
 10
-11.36803
 20
-14.27078
 30
0.0
 10
-11.36803
 20
-14.27078
 30
0.0
 10
-11.37833
 20
-14.26316
 30
0.0
 10
-11.38651
 20
-14.25335
 30
0.0
 10
-11.39237
 20
-14.24136
 30
0.0
 10
-11.39237
 20
-14.24136
 30
0.0
 10
-11.3983
 20
-14.22929
 30
0.0
 10
-11.40126
 20
-14.21483
 30
0.0
 10
-11.4014
 20
-14.19796
 30
0.0
  0
SPLINE
  5
72
330
1F
100
AcDbEntity
  8
Layer 1
 62
     5
370
    53
100
AcDbSpline
210
0.0
220
0.0
230
1.0
 70
    11
 71
     3
 72
    84
 73
    80
 74
     0
 42
0.0000000001
 43
0.0000000001
 40
0.0
 40
0.0
 40
0.0
 40
0.0
 40
0.05
 40
0.05
 40
0.05
 40
0.05
 40
0.1
 40
0.1
 40
0.1
 40
0.1
 40
0.15
 40
0.15
 40
0.15
 40
0.15
 40
0.2
 40
0.2
 40
0.2
 40
0.2
 40
0.25
 40
0.25
 40
0.25
 40
0.25
 40
0.3
 40
0.3
 40
0.3
 40
0.3
 40
0.35
 40
0.35
 40
0.35
 40
0.35
 40
0.4
 40
0.4
 40
0.4
 40
0.4
 40
0.45
 40
0.45
 40
0.45
 40
0.45
 40
0.4999999999999999
 40
0.4999999999999999
 40
0.4999999999999999
 40
0.4999999999999999
 40
0.5499999999999999
 40
0.5499999999999999
 40
0.5499999999999999
 40
0.5499999999999999
 40
0.6
 40
0.6
 40
0.6
 40
0.6
 40
0.65
 40
0.65
 40
0.65
 40
0.65
 40
0.7000000000000001
 40
0.7000000000000001
 40
0.7000000000000001
 40
0.7000000000000001
 40
0.7500000000000001
 40
0.7500000000000001
 40
0.7500000000000001
 40
0.7500000000000001
 40
0.8000000000000002
 40
0.8000000000000002
 40
0.8000000000000002
 40
0.8000000000000002
 40
0.8500000000000002
 40
0.8500000000000002
 40
0.8500000000000002
 40
0.8500000000000002
 40
0.9000000000000002
 40
0.9000000000000002
 40
0.9000000000000002
 40
0.9000000000000002
 40
0.9500000000000003
 40
0.9500000000000003
 40
0.9500000000000003
 40
0.9500000000000003
 40
1.0
 40
1.0
 40
1.0
 40
1.0
 10
-10.95055
 20
-14.29279
 30
0.0
 10
-10.93566
 20
-14.29286
 30
0.0
 10
-10.92155
 20
-14.2911
 30
0.0
 10
-10.90808
 20
-14.28764
 30
0.0
 10
-10.90808
 20
-14.28764
 30
0.0
 10
-10.89467
 20
-14.28411
 30
0.0
 10
-10.8824
 20
-14.27861
 30
0.0
 10
-10.87118
 20
-14.27099
 30
0.0
 10
-10.87118
 20
-14.27099
 30
0.0
 10
-10.85996
 20
-14.26344
 30
0.0
 10
-10.85022
 20
-14.25349
 30
0.0
 10
-10.84197
 20
-14.24121
 30
0.0
 10
-10.84197
 20
-14.24121
 30
0.0
 10
-10.83371
 20
-14.22894
 30
0.0
 10
-10.82736
 20
-14.21405
 30
0.0
 10
-10.82285
 20
-14.19655
 30
0.0
 10
-10.82285
 20
-14.19655
 30
0.0
 10
-10.81826
 20
-14.17906
 30
0.0
 10
-10.816
 20
-14.15866
 30
0.0
 10
-10.81593
 20
-14.13531
 30
0.0
 10
-10.81593
 20
-14.13531
 30
0.0
 10
-10.816
 20
-14.11196
 30
0.0
 10
-10.81826
 20
-14.09157
 30
0.0
 10
-10.82285
 20
-14.074
 30
0.0
 10
-10.82285
 20
-14.074
 30
0.0
 10
-10.82736
 20
-14.05643
 30
0.0
 10
-10.83371
 20
-14.04147
 30
0.0
 10
-10.84197
 20
-14.02913
 30
0.0
 10
-10.84197
 20
-14.02913
 30
0.0
 10
-10.85022
 20
-14.01678
 30
0.0
 10
-10.85996
 20
-14.00676
 30
0.0
 10
-10.87118
 20
-13.99907
 30
0.0
 10
-10.87118
 20
-13.99907
 30
0.0
 10
-10.8824
 20
-13.99138
 30
0.0
 10
-10.89467
 20
-13.98581
 30
0.0
 10
-10.90808
 20
-13.98221
 30
0.0
 10
-10.90808
 20
-13.98221
 30
0.0
 10
-10.92155
 20
-13.97868
 30
0.0
 10
-10.93566
 20
-13.97692
 30
0.0
 10
-10.95055
 20
-13.97699
 30
0.0
 10
-10.95055
 20
-13.97699
 30
0.0
 10
-10.96544
 20
-13.97692
 30
0.0
 10
-10.97955
 20
-13.97868
 30
0.0
 10
-10.99303
 20
-13.98221
 30
0.0
 10
-10.99303
 20
-13.98221
 30
0.0
 10
-11.00643
 20
-13.98581
 30
0.0
 10
-11.01871
 20
-13.99138
 30
0.0
 10
-11.02993
 20
-13.99907
 30
0.0
 10
-11.02993
 20
-13.99907
 30
0.0
 10
-11.04114
 20
-14.00676
 30
0.0
 10
-11.05088
 20
-14.01678
 30
0.0
 10
-11.05914
 20
-14.02913
 30
0.0
 10
-11.05914
 20
-14.02913
 30
0.0
 10
-11.06739
 20
-14.04147
 30
0.0
 10
-11.07374
 20
-14.05643
 30
0.0
 10
-11.07826
 20
-14.074
 30
0.0
 10
-11.07826
 20
-14.074
 30
0.0
 10
-11.08284
 20
-14.09157
 30
0.0
 10
-11.0851
 20
-14.11196
 30
0.0
 10
-11.08517
 20
-14.13531
 30
0.0
 10
-11.08517
 20
-14.13531
 30
0.0
 10
-11.0851
 20
-14.15866
 30
0.0
 10
-11.08284
 20
-14.17906
 30
0.0
 10
-11.07826
 20
-14.19655
 30
0.0
 10
-11.07826
 20
-14.19655
 30
0.0
 10
-11.07374
 20
-14.21405
 30
0.0
 10
-11.06739
 20
-14.22894
 30
0.0
 10
-11.05914
 20
-14.24121
 30
0.0
 10
-11.05914
 20
-14.24121
 30
0.0
 10
-11.05088
 20
-14.25349
 30
0.0
 10
-11.04114
 20
-14.26344
 30
0.0
 10
-11.02993
 20
-14.27099
 30
0.0
 10
-11.02993
 20
-14.27099
 30
0.0
 10
-11.01871
 20
-14.27861
 30
0.0
 10
-11.00643
 20
-14.28411
 30
0.0
 10
-10.99303
 20
-14.28764
 30
0.0
 10
-10.99303
 20
-14.28764
 30
0.0
 10
-10.97955
 20
-14.2911
 30
0.0
 10
-10.96544
 20
-14.29286
 30
0.0
 10
-10.95055
 20
-14.29279
 30
0.0
  0
SPLINE
  5
73
330
1F
100
AcDbEntity
  8
Layer 1
 62
     5
370
    53
100
AcDbSpline
210
0.0
220
0.0
230
1.0
 70
    11
 71
     3
 72
    84
 73
    80
 74
     0
 42
0.0000000001
 43
0.0000000001
 40
0.0
 40
0.0
 40
0.0
 40
0.0
 40
0.05
 40
0.05
 40
0.05
 40
0.05
 40
0.1
 40
0.1
 40
0.1
 40
0.1
 40
0.15
 40
0.15
 40
0.15
 40
0.15
 40
0.2
 40
0.2
 40
0.2
 40
0.2
 40
0.25
 40
0.25
 40
0.25
 40
0.25
 40
0.3
 40
0.3
 40
0.3
 40
0.3
 40
0.35
 40
0.35
 40
0.35
 40
0.35
 40
0.4
 40
0.4
 40
0.4
 40
0.4
 40
0.45
 40
0.45
 40
0.45
 40
0.45
 40
0.4999999999999999
 40
0.4999999999999999
 40
0.4999999999999999
 40
0.4999999999999999
 40
0.5499999999999999
 40
0.5499999999999999
 40
0.5499999999999999
 40
0.5499999999999999
 40
0.6
 40
0.6
 40
0.6
 40
0.6
 40
0.65
 40
0.65
 40
0.65
 40
0.65
 40
0.7000000000000001
 40
0.7000000000000001
 40
0.7000000000000001
 40
0.7000000000000001
 40
0.7500000000000001
 40
0.7500000000000001
 40
0.7500000000000001
 40
0.7500000000000001
 40
0.8000000000000002
 40
0.8000000000000002
 40
0.8000000000000002
 40
0.8000000000000002
 40
0.8500000000000002
 40
0.8500000000000002
 40
0.8500000000000002
 40
0.8500000000000002
 40
0.9000000000000002
 40
0.9000000000000002
 40
0.9000000000000002
 40
0.9000000000000002
 40
0.9500000000000003
 40
0.9500000000000003
 40
0.9500000000000003
 40
0.9500000000000003
 40
1.0
 40
1.0
 40
1.0
 40
1.0
 10
-10.95055
 20
-14.29279
 30
0.0
 10
-10.93566
 20
-14.29286
 30
0.0
 10
-10.92155
 20
-14.2911
 30
0.0
 10
-10.90808
 20
-14.28764
 30
0.0
 10
-10.90808
 20
-14.28764
 30
0.0
 10
-10.89467
 20
-14.28411
 30
0.0
 10
-10.8824
 20
-14.27861
 30
0.0
 10
-10.87118
 20
-14.27099
 30
0.0
 10
-10.87118
 20
-14.27099
 30
0.0
 10
-10.85996
 20
-14.26344
 30
0.0
 10
-10.85022
 20
-14.25349
 30
0.0
 10
-10.84197
 20
-14.24121
 30
0.0
 10
-10.84197
 20
-14.24121
 30
0.0
 10
-10.83371
 20
-14.22894
 30
0.0
 10
-10.82736
 20
-14.21405
 30
0.0
 10
-10.82285
 20
-14.19655
 30
0.0
 10
-10.82285
 20
-14.19655
 30
0.0
 10
-10.81826
 20
-14.17906
 30
0.0
 10
-10.816
 20
-14.15866
 30
0.0
 10
-10.81593
 20
-14.13531
 30
0.0
 10
-10.81593
 20
-14.13531
 30
0.0
 10
-10.816
 20
-14.11196
 30
0.0
 10
-10.81826
 20
-14.09157
 30
0.0
 10
-10.82285
 20
-14.074
 30
0.0
 10
-10.82285
 20
-14.074
 30
0.0
 10
-10.82736
 20
-14.05643
 30
0.0
 10
-10.83371
 20
-14.04147
 30
0.0
 10
-10.84197
 20
-14.02913
 30
0.0
 10
-10.84197
 20
-14.02913
 30
0.0
 10
-10.85022
 20
-14.01678
 30
0.0
 10
-10.85996
 20
-14.00676
 30
0.0
 10
-10.87118
 20
-13.99907
 30
0.0
 10
-10.87118
 20
-13.99907
 30
0.0
 10
-10.8824
 20
-13.99138
 30
0.0
 10
-10.89467
 20
-13.98581
 30
0.0
 10
-10.90808
 20
-13.98221
 30
0.0
 10
-10.90808
 20
-13.98221
 30
0.0
 10
-10.92155
 20
-13.97868
 30
0.0
 10
-10.93566
 20
-13.97692
 30
0.0
 10
-10.95055
 20
-13.97699
 30
0.0
 10
-10.95055
 20
-13.97699
 30
0.0
 10
-10.96544
 20
-13.97692
 30
0.0
 10
-10.97955
 20
-13.97868
 30
0.0
 10
-10.99303
 20
-13.98221
 30
0.0
 10
-10.99303
 20
-13.98221
 30
0.0
 10
-11.00643
 20
-13.98581
 30
0.0
 10
-11.01871
 20
-13.99138
 30
0.0
 10
-11.02993
 20
-13.99907
 30
0.0
 10
-11.02993
 20
-13.99907
 30
0.0
 10
-11.04114
 20
-14.00676
 30
0.0
 10
-11.05088
 20
-14.01678
 30
0.0
 10
-11.05914
 20
-14.02913
 30
0.0
 10
-11.05914
 20
-14.02913
 30
0.0
 10
-11.06739
 20
-14.04147
 30
0.0
 10
-11.07374
 20
-14.05643
 30
0.0
 10
-11.07826
 20
-14.074
 30
0.0
 10
-11.07826
 20
-14.074
 30
0.0
 10
-11.08284
 20
-14.09157
 30
0.0
 10
-11.0851
 20
-14.11196
 30
0.0
 10
-11.08517
 20
-14.13531
 30
0.0
 10
-11.08517
 20
-14.13531
 30
0.0
 10
-11.0851
 20
-14.15866
 30
0.0
 10
-11.08284
 20
-14.17906
 30
0.0
 10
-11.07826
 20
-14.19655
 30
0.0
 10
-11.07826
 20
-14.19655
 30
0.0
 10
-11.07374
 20
-14.21405
 30
0.0
 10
-11.06739
 20
-14.22894
 30
0.0
 10
-11.05914
 20
-14.24121
 30
0.0
 10
-11.05914
 20
-14.24121
 30
0.0
 10
-11.05088
 20
-14.25349
 30
0.0
 10
-11.04114
 20
-14.26344
 30
0.0
 10
-11.02993
 20
-14.27099
 30
0.0
 10
-11.02993
 20
-14.27099
 30
0.0
 10
-11.01871
 20
-14.27861
 30
0.0
 10
-11.00643
 20
-14.28411
 30
0.0
 10
-10.99303
 20
-14.28764
 30
0.0
 10
-10.99303
 20
-14.28764
 30
0.0
 10
-10.97955
 20
-14.2911
 30
0.0
 10
-10.96544
 20
-14.29286
 30
0.0
 10
-10.95055
 20
-14.29279
 30
0.0
  0
SPLINE
  5
74
330
1F
100
AcDbEntity
  8
Layer 1
370
    53
100
AcDbSpline
210
0.0
220
0.0
230
1.0
 70
    11
 71
     3
 72
    36
 73
    32
 74
     0
 42
0.0000000001
 43
0.0000000001
 40
0.0
 40
0.0
 40
0.0
 40
0.0
 40
0.125
 40
0.125
 40
0.125
 40
0.125
 40
0.25
 40
0.25
 40
0.25
 40
0.25
 40
0.375
 40
0.375
 40
0.375
 40
0.375
 40
0.5
 40
0.5
 40
0.5
 40
0.5
 40
0.625
 40
0.625
 40
0.625
 40
0.625
 40
0.75
 40
0.75
 40
0.75
 40
0.75
 40
0.875
 40
0.875
 40
0.875
 40
0.875
 40
1.0
 40
1.0
 40
1.0
 40
1.0
 10
-13.15
 20
-17.0
 30
0.0
 10
-13.15
 20
-17.0
 30
0.0
 10
-13.15
 20
-12.7
 30
0.0
 10
-13.15
 20
-12.7
 30
0.0
 10
-13.15
 20
-12.7
 30
0.0
 10
-13.15
 20
-12.42391
 30
0.0
 10
-12.92609
 20
-12.2
 30
0.0
 10
-12.65
 20
-12.2
 30
0.0
 10
-12.65
 20
-12.2
 30
0.0
 10
-12.65
 20
-12.2
 30
0.0
 10
-8.35
 20
-12.2
 30
0.0
 10
-8.35
 20
-12.2
 30
0.0
 10
-8.35
 20
-12.2
 30
0.0
 10
-8.07391
 20
-12.2
 30
0.0
 10
-7.85
 20
-12.42391
 30
0.0
 10
-7.85
 20
-12.7
 30
0.0
 10
-7.85
 20
-12.7
 30
0.0
 10
-7.85
 20
-12.7
 30
0.0
 10
-7.85
 20
-17.0
 30
0.0
 10
-7.85
 20
-17.0
 30
0.0
 10
-7.85
 20
-17.0
 30
0.0
 10
-7.85
 20
-17.27609
 30
0.0
 10
-8.07391
 20
-17.5
 30
0.0
 10
-8.35
 20
-17.5
 30
0.0
 10
-8.35
 20
-17.5
 30
0.0
 10
-8.35
 20
-17.5
 30
0.0
 10
-12.65
 20
-17.5
 30
0.0
 10
-12.65
 20
-17.5
 30
0.0
 10
-12.65
 20
-17.5
 30
0.0
 10
-12.92609
 20
-17.5
 30
0.0
 10
-13.15
 20
-17.27609
 30
0.0
 10
-13.15
 20
-17.0
 30
0.0
  0
SPLINE
  5
75
330
1F
100
AcDbEntity
  8
Layer 1
 62
     5
370
    53
100
AcDbSpline
210
0.0
220
0.0
230
1.0
 70
    11
 71
     3
 72
    84
 73
    80
 74
     0
 42
0.0000000001
 43
0.0000000001
 40
0.0
 40
0.0
 40
0.0
 40
0.0
 40
0.05
 40
0.05
 40
0.05
 40
0.05
 40
0.1
 40
0.1
 40
0.1
 40
0.1
 40
0.15
 40
0.15
 40
0.15
 40
0.15
 40
0.2
 40
0.2
 40
0.2
 40
0.2
 40
0.25
 40
0.25
 40
0.25
 40
0.25
 40
0.3
 40
0.3
 40
0.3
 40
0.3
 40
0.35
 40
0.35
 40
0.35
 40
0.35
 40
0.4
 40
0.4
 40
0.4
 40
0.4
 40
0.45
 40
0.45
 40
0.45
 40
0.45
 40
0.4999999999999999
 40
0.4999999999999999
 40
0.4999999999999999
 40
0.4999999999999999
 40
0.5499999999999999
 40
0.5499999999999999
 40
0.5499999999999999
 40
0.5499999999999999
 40
0.6
 40
0.6
 40
0.6
 40
0.6
 40
0.65
 40
0.65
 40
0.65
 40
0.65
 40
0.7000000000000001
 40
0.7000000000000001
 40
0.7000000000000001
 40
0.7000000000000001
 40
0.7500000000000001
 40
0.7500000000000001
 40
0.7500000000000001
 40
0.7500000000000001
 40
0.8000000000000002
 40
0.8000000000000002
 40
0.8000000000000002
 40
0.8000000000000002
 40
0.8500000000000002
 40
0.8500000000000002
 40
0.8500000000000002
 40
0.8500000000000002
 40
0.9000000000000002
 40
0.9000000000000002
 40
0.9000000000000002
 40
0.9000000000000002
 40
0.9500000000000003
 40
0.9500000000000003
 40
0.9500000000000003
 40
0.9500000000000003
 40
1.0
 40
1.0
 40
1.0
 40
1.0
 10
-10.25845
 20
-15.96494
 30
0.0
 10
-10.24364
 20
-15.96487
 30
0.0
 10
-10.23087
 20
-15.96226
 30
0.0
 10
-10.22021
 20
-15.95718
 30
0.0
 10
-10.22021
 20
-15.95718
 30
0.0
 10
-10.20963
 20
-15.9521
 30
0.0
 10
-10.20081
 20
-15.94483
 30
0.0
 10
-10.19376
 20
-15.93559
 30
0.0
 10
-10.19376
 20
-15.93559
 30
0.0
 10
-10.18677
 20
-15.92628
 30
0.0
 10
-10.18127
 20
-15.91527
 30
0.0
 10
-10.17718
 20
-15.90257
 30
0.0
 10
-10.17718
 20
-15.90257
 30
0.0
 10
-10.17315
 20
-15.88987
 30
0.0
 10
-10.17026
 20
-15.87597
 30
0.0
 10
-10.16864
 20
-15.86073
 30
0.0
 10
-10.16864
 20
-15.86073
 30
0.0
 10
-10.16694
 20
-15.84549
 30
0.0
 10
-10.1661
 20
-15.82947
 30
0.0
 10
-10.16617
 20
-15.81254
 30
0.0
 10
-10.16617
 20
-15.81254
 30
0.0
 10
-10.1661
 20
-15.79568
 30
0.0
 10
-10.16694
 20
-15.77966
 30
0.0
 10
-10.16864
 20
-15.76449
 30
0.0
 10
-10.16864
 20
-15.76449
 30
0.0
 10
-10.17026
 20
-15.74932
 30
0.0
 10
-10.17315
 20
-15.73535
 30
0.0
 10
-10.17718
 20
-15.72265
 30
0.0
 10
-10.17718
 20
-15.72265
 30
0.0
 10
-10.18127
 20
-15.71002
 30
0.0
 10
-10.18677
 20
-15.69902
 30
0.0
 10
-10.19376
 20
-15.68963
 30
0.0
 10
-10.19376
 20
-15.68963
 30
0.0
 10
-10.20081
 20
-15.68032
 30
0.0
 10
-10.20963
 20
-15.67305
 30
0.0
 10
-10.22021
 20
-15.66797
 30
0.0
 10
-10.22021
 20
-15.66797
 30
0.0
 10
-10.23087
 20
-15.66282
 30
0.0
 10
-10.24364
 20
-15.66021
 30
0.0
 10
-10.25845
 20
-15.66014
 30
0.0
 10
-10.25845
 20
-15.66014
 30
0.0
 10
-10.27327
 20
-15.66021
 30
0.0
 10
-10.28604
 20
-15.66282
 30
0.0
 10
-10.2967
 20
-15.66797
 30
0.0
 10
-10.2967
 20
-15.66797
 30
0.0
 10
-10.30728
 20
-15.67305
 30
0.0
 10
-10.3161
 20
-15.68032
 30
0.0
 10
-10.32315
 20
-15.68963
 30
0.0
 10
-10.32315
 20
-15.68963
 30
0.0
 10
-10.33014
 20
-15.69902
 30
0.0
 10
-10.33564
 20
-15.71002
 30
0.0
 10
-10.33973
 20
-15.72265
 30
0.0
 10
-10.33973
 20
-15.72265
 30
0.0
 10
-10.34376
 20
-15.73535
 30
0.0
 10
-10.34665
 20
-15.74932
 30
0.0
 10
-10.34827
 20
-15.76449
 30
0.0
 10
-10.34827
 20
-15.76449
 30
0.0
 10
-10.34996
 20
-15.77966
 30
0.0
 10
-10.35081
 20
-15.79568
 30
0.0
 10
-10.35074
 20
-15.81254
 30
0.0
 10
-10.35074
 20
-15.81254
 30
0.0
 10
-10.35081
 20
-15.82947
 30
0.0
 10
-10.34996
 20
-15.84549
 30
0.0
 10
-10.34827
 20
-15.86073
 30
0.0
 10
-10.34827
 20
-15.86073
 30
0.0
 10
-10.34665
 20
-15.87597
 30
0.0
 10
-10.34376
 20
-15.88987
 30
0.0
 10
-10.33973
 20
-15.90257
 30
0.0
 10
-10.33973
 20
-15.90257
 30
0.0
 10
-10.33564
 20
-15.91527
 30
0.0
 10
-10.33014
 20
-15.92628
 30
0.0
 10
-10.32315
 20
-15.93559
 30
0.0
 10
-10.32315
 20
-15.93559
 30
0.0
 10
-10.3161
 20
-15.94483
 30
0.0
 10
-10.30728
 20
-15.9521
 30
0.0
 10
-10.2967
 20
-15.95718
 30
0.0
 10
-10.2967
 20
-15.95718
 30
0.0
 10
-10.28604
 20
-15.96226
 30
0.0
 10
-10.27327
 20
-15.96487
 30
0.0
 10
-10.25845
 20
-15.96494
 30
0.0
  0
SPLINE
  5
76
330
1F
100
AcDbEntity
  8
Layer 1
 62
     5
370
    53
100
AcDbSpline
210
0.0
220
0.0
230
1.0
 70
    11
 71
     3
 72
    84
 73
    80
 74
     0
 42
0.0000000001
 43
0.0000000001
 40
0.0
 40
0.0
 40
0.0
 40
0.0
 40
0.05
 40
0.05
 40
0.05
 40
0.05
 40
0.1
 40
0.1
 40
0.1
 40
0.1
 40
0.15
 40
0.15
 40
0.15
 40
0.15
 40
0.2
 40
0.2
 40
0.2
 40
0.2
 40
0.25
 40
0.25
 40
0.25
 40
0.25
 40
0.3
 40
0.3
 40
0.3
 40
0.3
 40
0.35
 40
0.35
 40
0.35
 40
0.35
 40
0.4
 40
0.4
 40
0.4
 40
0.4
 40
0.45
 40
0.45
 40
0.45
 40
0.45
 40
0.4999999999999999
 40
0.4999999999999999
 40
0.4999999999999999
 40
0.4999999999999999
 40
0.5499999999999999
 40
0.5499999999999999
 40
0.5499999999999999
 40
0.5499999999999999
 40
0.6
 40
0.6
 40
0.6
 40
0.6
 40
0.65
 40
0.65
 40
0.65
 40
0.65
 40
0.7000000000000001
 40
0.7000000000000001
 40
0.7000000000000001
 40
0.7000000000000001
 40
0.7500000000000001
 40
0.7500000000000001
 40
0.7500000000000001
 40
0.7500000000000001
 40
0.8000000000000002
 40
0.8000000000000002
 40
0.8000000000000002
 40
0.8000000000000002
 40
0.8500000000000002
 40
0.8500000000000002
 40
0.8500000000000002
 40
0.8500000000000002
 40
0.9000000000000002
 40
0.9000000000000002
 40
0.9000000000000002
 40
0.9000000000000002
 40
0.9500000000000003
 40
0.9500000000000003
 40
0.9500000000000003
 40
0.9500000000000003
 40
1.0
 40
1.0
 40
1.0
 40
1.0
 10
-10.25845
 20
-15.96494
 30
0.0
 10
-10.24364
 20
-15.96487
 30
0.0
 10
-10.23087
 20
-15.96226
 30
0.0
 10
-10.22021
 20
-15.95718
 30
0.0
 10
-10.22021
 20
-15.95718
 30
0.0
 10
-10.20963
 20
-15.9521
 30
0.0
 10
-10.20081
 20
-15.94483
 30
0.0
 10
-10.19376
 20
-15.93559
 30
0.0
 10
-10.19376
 20
-15.93559
 30
0.0
 10
-10.18677
 20
-15.92628
 30
0.0
 10
-10.18127
 20
-15.91527
 30
0.0
 10
-10.17718
 20
-15.90257
 30
0.0
 10
-10.17718
 20
-15.90257
 30
0.0
 10
-10.17315
 20
-15.88987
 30
0.0
 10
-10.17026
 20
-15.87597
 30
0.0
 10
-10.16864
 20
-15.86073
 30
0.0
 10
-10.16864
 20
-15.86073
 30
0.0
 10
-10.16694
 20
-15.84549
 30
0.0
 10
-10.1661
 20
-15.82947
 30
0.0
 10
-10.16617
 20
-15.81254
 30
0.0
 10
-10.16617
 20
-15.81254
 30
0.0
 10
-10.1661
 20
-15.79568
 30
0.0
 10
-10.16694
 20
-15.77966
 30
0.0
 10
-10.16864
 20
-15.76449
 30
0.0
 10
-10.16864
 20
-15.76449
 30
0.0
 10
-10.17026
 20
-15.74932
 30
0.0
 10
-10.17315
 20
-15.73535
 30
0.0
 10
-10.17718
 20
-15.72265
 30
0.0
 10
-10.17718
 20
-15.72265
 30
0.0
 10
-10.18127
 20
-15.71002
 30
0.0
 10
-10.18677
 20
-15.69902
 30
0.0
 10
-10.19376
 20
-15.68963
 30
0.0
 10
-10.19376
 20
-15.68963
 30
0.0
 10
-10.20081
 20
-15.68032
 30
0.0
 10
-10.20963
 20
-15.67305
 30
0.0
 10
-10.22021
 20
-15.66797
 30
0.0
 10
-10.22021
 20
-15.66797
 30
0.0
 10
-10.23087
 20
-15.66282
 30
0.0
 10
-10.24364
 20
-15.66021
 30
0.0
 10
-10.25845
 20
-15.66014
 30
0.0
 10
-10.25845
 20
-15.66014
 30
0.0
 10
-10.27327
 20
-15.66021
 30
0.0
 10
-10.28604
 20
-15.66282
 30
0.0
 10
-10.2967
 20
-15.66797
 30
0.0
 10
-10.2967
 20
-15.66797
 30
0.0
 10
-10.30728
 20
-15.67305
 30
0.0
 10
-10.3161
 20
-15.68032
 30
0.0
 10
-10.32315
 20
-15.68963
 30
0.0
 10
-10.32315
 20
-15.68963
 30
0.0
 10
-10.33014
 20
-15.69902
 30
0.0
 10
-10.33564
 20
-15.71002
 30
0.0
 10
-10.33973
 20
-15.72265
 30
0.0
 10
-10.33973
 20
-15.72265
 30
0.0
 10
-10.34376
 20
-15.73535
 30
0.0
 10
-10.34665
 20
-15.74932
 30
0.0
 10
-10.34827
 20
-15.76449
 30
0.0
 10
-10.34827
 20
-15.76449
 30
0.0
 10
-10.34996
 20
-15.77966
 30
0.0
 10
-10.35081
 20
-15.79568
 30
0.0
 10
-10.35074
 20
-15.81254
 30
0.0
 10
-10.35074
 20
-15.81254
 30
0.0
 10
-10.35081
 20
-15.82947
 30
0.0
 10
-10.34996
 20
-15.84549
 30
0.0
 10
-10.34827
 20
-15.86073
 30
0.0
 10
-10.34827
 20
-15.86073
 30
0.0
 10
-10.34665
 20
-15.87597
 30
0.0
 10
-10.34376
 20
-15.88987
 30
0.0
 10
-10.33973
 20
-15.90257
 30
0.0
 10
-10.33973
 20
-15.90257
 30
0.0
 10
-10.33564
 20
-15.91527
 30
0.0
 10
-10.33014
 20
-15.92628
 30
0.0
 10
-10.32315
 20
-15.93559
 30
0.0
 10
-10.32315
 20
-15.93559
 30
0.0
 10
-10.3161
 20
-15.94483
 30
0.0
 10
-10.30728
 20
-15.9521
 30
0.0
 10
-10.2967
 20
-15.95718
 30
0.0
 10
-10.2967
 20
-15.95718
 30
0.0
 10
-10.28604
 20
-15.96226
 30
0.0
 10
-10.27327
 20
-15.96487
 30
0.0
 10
-10.25845
 20
-15.96494
 30
0.0
  0
SPLINE
  5
77
330
1F
100
AcDbEntity
  8
Layer 1
 62
     5
370
    53
100
AcDbSpline
210
0.0
220
0.0
230
1.0
 70
    11
 71
     3
 72
   180
 73
   176
 74
     0
 42
0.0000000001
 43
0.0000000001
 40
0.0
 40
0.0
 40
0.0
 40
0.0
 40
0.0227272727272727
 40
0.0227272727272727
 40
0.0227272727272727
 40
0.0227272727272727
 40
0.0454545454545455
 40
0.0454545454545455
 40
0.0454545454545455
 40
0.0454545454545455
 40
0.0681818181818182
 40
0.0681818181818182
 40
0.0681818181818182
 40
0.0681818181818182
 40
0.0909090909090909
 40
0.0909090909090909
 40
0.0909090909090909
 40
0.0909090909090909
 40
0.1136363636363636
 40
0.1136363636363636
 40
0.1136363636363636
 40
0.1136363636363636
 40
0.1363636363636364
 40
0.1363636363636364
 40
0.1363636363636364
 40
0.1363636363636364
 40
0.1590909090909091
 40
0.1590909090909091
 40
0.1590909090909091
 40
0.1590909090909091
 40
0.1818181818181819
 40
0.1818181818181819
 40
0.1818181818181819
 40
0.1818181818181819
 40
0.2045454545454546
 40
0.2045454545454546
 40
0.2045454545454546
 40
0.2045454545454546
 40
0.2272727272727273
 40
0.2272727272727273
 40
0.2272727272727273
 40
0.2272727272727273
 40
0.2500000000000001
 40
0.2500000000000001
 40
0.2500000000000001
 40
0.2500000000000001
 40
0.2727272727272728
 40
0.2727272727272728
 40
0.2727272727272728
 40
0.2727272727272728
 40
0.2954545454545455
 40
0.2954545454545455
 40
0.2954545454545455
 40
0.2954545454545455
 40
0.3181818181818182
 40
0.3181818181818182
 40
0.3181818181818182
 40
0.3181818181818182
 40
0.3409090909090909
 40
0.3409090909090909
 40
0.3409090909090909
 40
0.3409090909090909
 40
0.3636363636363636
 40
0.3636363636363636
 40
0.3636363636363636
 40
0.3636363636363636
 40
0.3863636363636363
 40
0.3863636363636363
 40
0.3863636363636363
 40
0.3863636363636363
 40
0.409090909090909
 40
0.409090909090909
 40
0.409090909090909
 40
0.409090909090909
 40
0.4318181818181817
 40
0.4318181818181817
 40
0.4318181818181817
 40
0.4318181818181817
 40
0.4545454545454544
 40
0.4545454545454544
 40
0.4545454545454544
 40
0.4545454545454544
 40
0.4772727272727271
 40
0.4772727272727271
 40
0.4772727272727271
 40
0.4772727272727271
 40
0.4999999999999998
 40
0.4999999999999998
 40
0.4999999999999998
 40
0.4999999999999998
 40
0.5227272727272726
 40
0.5227272727272726
 40
0.5227272727272726
 40
0.5227272727272726
 40
0.5454545454545453
 40
0.5454545454545453
 40
0.5454545454545453
 40
0.5454545454545453
 40
0.568181818181818
 40
0.568181818181818
 40
0.568181818181818
 40
0.568181818181818
 40
0.5909090909090907
 40
0.5909090909090907
 40
0.5909090909090907
 40
0.5909090909090907
 40
0.6136363636363634
 40
0.6136363636363634
 40
0.6136363636363634
 40
0.6136363636363634
 40
0.6363636363636361
 40
0.6363636363636361
 40
0.6363636363636361
 40
0.6363636363636361
 40
0.6590909090909088
 40
0.6590909090909088
 40
0.6590909090909088
 40
0.6590909090909088
 40
0.6818181818181815
 40
0.6818181818181815
 40
0.6818181818181815
 40
0.6818181818181815
 40
0.7045454545454543
 40
0.7045454545454543
 40
0.7045454545454543
 40
0.7045454545454543
 40
0.727272727272727
 40
0.727272727272727
 40
0.727272727272727
 40
0.727272727272727
 40
0.7499999999999997
 40
0.7499999999999997
 40
0.7499999999999997
 40
0.7499999999999997
 40
0.7727272727272724
 40
0.7727272727272724
 40
0.7727272727272724
 40
0.7727272727272724
 40
0.7954545454545451
 40
0.7954545454545451
 40
0.7954545454545451
 40
0.7954545454545451
 40
0.8181818181818178
 40
0.8181818181818178
 40
0.8181818181818178
 40
0.8181818181818178
 40
0.8409090909090905
 40
0.8409090909090905
 40
0.8409090909090905
 40
0.8409090909090905
 40
0.8636363636363632
 40
0.8636363636363632
 40
0.8636363636363632
 40
0.8636363636363632
 40
0.8863636363636359
 40
0.8863636363636359
 40
0.8863636363636359
 40
0.8863636363636359
 40
0.9090909090909086
 40
0.9090909090909086
 40
0.9090909090909086
 40
0.9090909090909086
 40
0.9318181818181813
 40
0.9318181818181813
 40
0.9318181818181813
 40
0.9318181818181813
 40
0.954545454545454
 40
0.954545454545454
 40
0.954545454545454
 40
0.954545454545454
 40
0.9772727272727267
 40
0.9772727272727267
 40
0.9772727272727267
 40
0.9772727272727267
 40
1.0
 40
1.0
 40
1.0
 40
1.0
 10
-10.06584
 20
-15.88832
 30
0.0
 10
-10.06577
 20
-15.90356
 30
0.0
 10
-10.06224
 20
-15.91682
 30
0.0
 10
-10.05526
 20
-15.92832
 30
0.0
 10
-10.05526
 20
-15.92832
 30
0.0
 10
-10.04827
 20
-15.93975
 30
0.0
 10
-10.03832
 20
-15.94871
 30
0.0
 10
-10.02534
 20
-15.95513
 30
0.0
 10
-10.02534
 20
-15.95513
 30
0.0
 10
-10.01236
 20
-15.96155
 30
0.0
 10
-9.99677
 20
-15.9648
 30
0.0
 10
-9.97863
 20
-15.96494
 30
0.0
 10
-9.97863
 20
-15.96494
 30
0.0
 10
-9.96502
 20
-15.96494
 30
0.0
 10
-9.95267
 20
-15.96353
 30
0.0
 10
-9.94145
 20
-15.96057
 30
0.0
 10
-9.94145
 20
-15.96057
 30
0.0
 10
-9.9303
 20
-15.9576
 30
0.0
 10
-9.92071
 20
-15.95302
 30
0.0
 10
-9.91259
 20
-15.94674
 30
0.0
 10
-9.91259
 20
-15.94674
 30
0.0
 10
-9.90448
 20
-15.94046
 30
0.0
 10
-9.89827
 20
-15.93234
 30
0.0
 10
-9.89383
 20
-15.92247
 30
0.0
 10
-9.89383
 20
-15.92247
 30
0.0
 10
-9.88945
 20
-15.91252
 30
0.0
 10
-9.88727
 20
-15.90059
 30
0.0
 10
-9.8872
 20
-15.88662
 30
0.0
 10
-9.8872
 20
-15.88662
 30
0.0
 10
-9.88712
 20
-15.868
 30
0.0
 10
-9.89093
 20
-15.85226
 30
0.0
 10
-9.89848
 20
-15.83949
 30
0.0
 10
-9.89848
 20
-15.83949
 30
0.0
 10
-9.90603
 20
-15.82672
 30
0.0
 10
-9.91775
 20
-15.81713
 30
0.0
 10
-9.93348
 20
-15.81057
 30
0.0
 10
-9.93348
 20
-15.81057
 30
0.0
 10
-9.94921
 20
-15.804
 30
0.0
 10
-9.96939
 20
-15.80069
 30
0.0
 10
-9.99387
 20
-15.80069
 30
0.0
 10
-9.99387
 20
-15.80069
 30
0.0
 10
-9.9756
 20
-15.80076
 30
0.0
 10
-9.96029
 20
-15.79907
 30
0.0
 10
-9.9478
 20
-15.79561
 30
0.0
 10
-9.9478
 20
-15.79561
 30
0.0
 10
-9.93538
 20
-15.79215
 30
0.0
 10
-9.92544
 20
-15.78728
 30
0.0
 10
-9.91796
 20
-15.78093
 30
0.0
 10
-9.91796
 20
-15.78093
 30
0.0
 10
-9.91048
 20
-15.77465
 30
0.0
 10
-9.90505
 20
-15.76717
 30
0.0
 10
-9.9018
 20
-15.75857
 30
0.0
 10
-9.9018
 20
-15.75857
 30
0.0
 10
-9.89848
 20
-15.75003
 30
0.0
 10
-9.89686
 20
-15.74065
 30
0.0
 10
-9.89693
 20
-15.73042
 30
0.0
 10
-9.89693
 20
-15.73042
 30
0.0
 10
-9.89686
 20
-15.72018
 30
0.0
 10
-9.89827
 20
-15.71073
 30
0.0
 10
-9.90109
 20
-15.70198
 30
0.0
 10
-9.90109
 20
-15.70198
 30
0.0
 10
-9.90385
 20
-15.69323
 30
0.0
 10
-9.90836
 20
-15.68554
 30
0.0
 10
-9.9145
 20
-15.67898
 30
0.0
 10
-9.9145
 20
-15.67898
 30
0.0
 10
-9.92064
 20
-15.67242
 30
0.0
 10
-9.92875
 20
-15.66727
 30
0.0
 10
-9.9387
 20
-15.6636
 30
0.0
 10
-9.9387
 20
-15.6636
 30
0.0
 10
-9.94872
 20
-15.65993
 30
0.0
 10
-9.96093
 20
-15.6581
 30
0.0
 10
-9.97525
 20
-15.65803
 30
0.0
 10
-9.97525
 20
-15.65803
 30
0.0
 10
-9.9895
 20
-15.6581
 30
0.0
 10
-10.00199
 20
-15.66021
 30
0.0
 10
-10.01257
 20
-15.66431
 30
0.0
 10
-10.01257
 20
-15.66431
 30
0.0
 10
-10.02323
 20
-15.6684
 30
0.0
 10
-10.03197
 20
-15.67397
 30
0.0
 10
-10.03903
 20
-15.6811
 30
0.0
 10
-10.03903
 20
-15.6811
 30
0.0
 10
-10.04601
 20
-15.68822
 30
0.0
 10
-10.05124
 20
-15.69634
 30
0.0
 10
-10.05469
 20
-15.70551
 30
0.0
 10
-10.05469
 20
-15.70551
 30
0.0
 10
-10.05822
 20
-15.71468
 30
0.0
 10
-10.05991
 20
-15.72442
 30
0.0
 10
-10.05991
 20
-15.73465
 30
0.0
 10
-10.05991
 20
-15.73465
 30
0.0
 10
-10.05991
 20
-15.72442
 30
0.0
 10
-10.05822
 20
-15.71468
 30
0.0
 10
-10.05469
 20
-15.70551
 30
0.0
 10
-10.05469
 20
-15.70551
 30
0.0
 10
-10.05124
 20
-15.69634
 30
0.0
 10
-10.04601
 20
-15.68822
 30
0.0
 10
-10.03903
 20
-15.6811
 30
0.0
 10
-10.03903
 20
-15.6811
 30
0.0
 10
-10.03197
 20
-15.67397
 30
0.0
 10
-10.02323
 20
-15.6684
 30
0.0
 10
-10.01257
 20
-15.66431
 30
0.0
 10
-10.01257
 20
-15.66431
 30
0.0
 10
-10.00199
 20
-15.66021
 30
0.0
 10
-9.9895
 20
-15.6581
 30
0.0
 10
-9.97525
 20
-15.65803
 30
0.0
 10
-9.97525
 20
-15.65803
 30
0.0
 10
-9.96093
 20
-15.6581
 30
0.0
 10
-9.94872
 20
-15.65993
 30
0.0
 10
-9.9387
 20
-15.6636
 30
0.0
 10
-9.9387
 20
-15.6636
 30
0.0
 10
-9.92875
 20
-15.66727
 30
0.0
 10
-9.92064
 20
-15.67242
 30
0.0
 10
-9.9145
 20
-15.67898
 30
0.0
 10
-9.9145
 20
-15.67898
 30
0.0
 10
-9.90836
 20
-15.68554
 30
0.0
 10
-9.90385
 20
-15.69323
 30
0.0
 10
-9.90109
 20
-15.70198
 30
0.0
 10
-9.90109
 20
-15.70198
 30
0.0
 10
-9.89827
 20
-15.71073
 30
0.0
 10
-9.89686
 20
-15.72018
 30
0.0
 10
-9.89693
 20
-15.73042
 30
0.0
 10
-9.89693
 20
-15.73042
 30
0.0
 10
-9.89686
 20
-15.74065
 30
0.0
 10
-9.89848
 20
-15.75003
 30
0.0
 10
-9.9018
 20
-15.75857
 30
0.0
 10
-9.9018
 20
-15.75857
 30
0.0
 10
-9.90505
 20
-15.76717
 30
0.0
 10
-9.91048
 20
-15.77465
 30
0.0
 10
-9.91796
 20
-15.78093
 30
0.0
 10
-9.91796
 20
-15.78093
 30
0.0
 10
-9.92544
 20
-15.78728
 30
0.0
 10
-9.93538
 20
-15.79215
 30
0.0
 10
-9.9478
 20
-15.79561
 30
0.0
 10
-9.9478
 20
-15.79561
 30
0.0
 10
-9.96029
 20
-15.79907
 30
0.0
 10
-9.9756
 20
-15.80076
 30
0.0
 10
-9.99387
 20
-15.80069
 30
0.0
 10
-9.99387
 20
-15.80069
 30
0.0
 10
-9.96939
 20
-15.80069
 30
0.0
 10
-9.94921
 20
-15.804
 30
0.0
 10
-9.93348
 20
-15.81057
 30
0.0
 10
-9.93348
 20
-15.81057
 30
0.0
 10
-9.91775
 20
-15.81713
 30
0.0
 10
-9.90603
 20
-15.82672
 30
0.0
 10
-9.89848
 20
-15.83949
 30
0.0
 10
-9.89848
 20
-15.83949
 30
0.0
 10
-9.89093
 20
-15.85226
 30
0.0
 10
-9.88712
 20
-15.868
 30
0.0
 10
-9.8872
 20
-15.88662
 30
0.0
 10
-9.8872
 20
-15.88662
 30
0.0
 10
-9.88727
 20
-15.90059
 30
0.0
 10
-9.88945
 20
-15.91252
 30
0.0
 10
-9.89383
 20
-15.92247
 30
0.0
 10
-9.89383
 20
-15.92247
 30
0.0
 10
-9.89827
 20
-15.93234
 30
0.0
 10
-9.90448
 20
-15.94046
 30
0.0
 10
-9.91259
 20
-15.94674
 30
0.0
 10
-9.91259
 20
-15.94674
 30
0.0
 10
-9.92071
 20
-15.95302
 30
0.0
 10
-9.9303
 20
-15.9576
 30
0.0
 10
-9.94145
 20
-15.96057
 30
0.0
 10
-9.94145
 20
-15.96057
 30
0.0
 10
-9.95267
 20
-15.96353
 30
0.0
 10
-9.96502
 20
-15.96494
 30
0.0
 10
-9.97863
 20
-15.96494
 30
0.0
 10
-9.97863
 20
-15.96494
 30
0.0
 10
-9.99677
 20
-15.9648
 30
0.0
 10
-10.01236
 20
-15.96155
 30
0.0
 10
-10.02534
 20
-15.95513
 30
0.0
 10
-10.02534
 20
-15.95513
 30
0.0
 10
-10.03832
 20
-15.94871
 30
0.0
 10
-10.04827
 20
-15.93975
 30
0.0
 10
-10.05526
 20
-15.92832
 30
0.0
 10
-10.05526
 20
-15.92832
 30
0.0
 10
-10.06224
 20
-15.91682
 30
0.0
 10
-10.06577
 20
-15.90356
 30
0.0
 10
-10.06584
 20
-15.88832
 30
0.0
  0
SPLINE
  5
78
330
1F
100
AcDbEntity
  8
Layer 1
 62
     5
370
    53
100
AcDbSpline
210
0.0
220
0.0
230
1.0
 70
    27
 71
     3
 72
    12
 73
     8
 74
     0
 42
0.0000000001
 43
0.0000000001
 40
0.0
 40
0.0
 40
0.0
 40
0.0
 40
0.5
 40
0.5
 40
0.5
 40
0.5
 40
1.0
 40
1.0
 40
1.0
 40
1.0
 10
-9.78729
 20
-15.80534
 30
0.0
 10
-9.78729
 20
-15.80534
 30
0.0
 10
-9.6641
 20
-15.80534
 30
0.0
 10
-9.6641
 20
-15.80534
 30
0.0
 10
-9.6641
 20
-15.80534
 30
0.0
 10
-9.6641
 20
-15.80534
 30
0.0
 10
-9.78729
 20
-15.80534
 30
0.0
 10
-9.78729
 20
-15.80534
 30
0.0
  0
SPLINE
  5
79
330
1F
100
AcDbEntity
  8
Layer 1
 62
     5
370
    53
100
AcDbSpline
210
0.0
220
0.0
230
1.0
 70
    11
 71
     3
 72
    84
 73
    80
 74
     0
 42
0.0000000001
 43
0.0000000001
 40
0.0
 40
0.0
 40
0.0
 40
0.0
 40
0.05
 40
0.05
 40
0.05
 40
0.05
 40
0.1
 40
0.1
 40
0.1
 40
0.1
 40
0.15
 40
0.15
 40
0.15
 40
0.15
 40
0.2
 40
0.2
 40
0.2
 40
0.2
 40
0.25
 40
0.25
 40
0.25
 40
0.25
 40
0.3
 40
0.3
 40
0.3
 40
0.3
 40
0.35
 40
0.35
 40
0.35
 40
0.35
 40
0.4
 40
0.4
 40
0.4
 40
0.4
 40
0.45
 40
0.45
 40
0.45
 40
0.45
 40
0.4999999999999999
 40
0.4999999999999999
 40
0.4999999999999999
 40
0.4999999999999999
 40
0.5499999999999999
 40
0.5499999999999999
 40
0.5499999999999999
 40
0.5499999999999999
 40
0.6
 40
0.6
 40
0.6
 40
0.6
 40
0.65
 40
0.65
 40
0.65
 40
0.65
 40
0.7000000000000001
 40
0.7000000000000001
 40
0.7000000000000001
 40
0.7000000000000001
 40
0.7500000000000001
 40
0.7500000000000001
 40
0.7500000000000001
 40
0.7500000000000001
 40
0.8000000000000002
 40
0.8000000000000002
 40
0.8000000000000002
 40
0.8000000000000002
 40
0.8500000000000002
 40
0.8500000000000002
 40
0.8500000000000002
 40
0.8500000000000002
 40
0.9000000000000002
 40
0.9000000000000002
 40
0.9000000000000002
 40
0.9000000000000002
 40
0.9500000000000003
 40
0.9500000000000003
 40
0.9500000000000003
 40
0.9500000000000003
 40
1.0
 40
1.0
 40
1.0
 40
1.0
 10
-9.47487
 20
-15.96494
 30
0.0
 10
-9.46006
 20
-15.96487
 30
0.0
 10
-9.44729
 20
-15.96226
 30
0.0
 10
-9.43663
 20
-15.95718
 30
0.0
 10
-9.43663
 20
-15.95718
 30
0.0
 10
-9.42605
 20
-15.9521
 30
0.0
 10
-9.41723
 20
-15.94483
 30
0.0
 10
-9.41018
 20
-15.93559
 30
0.0
 10
-9.41018
 20
-15.93559
 30
0.0
 10
-9.40319
 20
-15.92628
 30
0.0
 10
-9.39769
 20
-15.91527
 30
0.0
 10
-9.3936
 20
-15.90257
 30
0.0
 10
-9.3936
 20
-15.90257
 30
0.0
 10
-9.38957
 20
-15.88987
 30
0.0
 10
-9.38668
 20
-15.87597
 30
0.0
 10
-9.38506
 20
-15.86073
 30
0.0
 10
-9.38506
 20
-15.86073
 30
0.0
 10
-9.38336
 20
-15.84549
 30
0.0
 10
-9.38252
 20
-15.82947
 30
0.0
 10
-9.38259
 20
-15.81254
 30
0.0
 10
-9.38259
 20
-15.81254
 30
0.0
 10
-9.38252
 20
-15.79568
 30
0.0
 10
-9.38336
 20
-15.77966
 30
0.0
 10
-9.38506
 20
-15.76449
 30
0.0
 10
-9.38506
 20
-15.76449
 30
0.0
 10
-9.38668
 20
-15.74932
 30
0.0
 10
-9.38957
 20
-15.73535
 30
0.0
 10
-9.3936
 20
-15.72265
 30
0.0
 10
-9.3936
 20
-15.72265
 30
0.0
 10
-9.39769
 20
-15.71002
 30
0.0
 10
-9.40319
 20
-15.69902
 30
0.0
 10
-9.41018
 20
-15.68963
 30
0.0
 10
-9.41018
 20
-15.68963
 30
0.0
 10
-9.41723
 20
-15.68032
 30
0.0
 10
-9.42605
 20
-15.67305
 30
0.0
 10
-9.43663
 20
-15.66797
 30
0.0
 10
-9.43663
 20
-15.66797
 30
0.0
 10
-9.44729
 20
-15.66282
 30
0.0
 10
-9.46006
 20
-15.66021
 30
0.0
 10
-9.47487
 20
-15.66014
 30
0.0
 10
-9.47487
 20
-15.66014
 30
0.0
 10
-9.48969
 20
-15.66021
 30
0.0
 10
-9.50246
 20
-15.66282
 30
0.0
 10
-9.51312
 20
-15.66797
 30
0.0
 10
-9.51312
 20
-15.66797
 30
0.0
 10
-9.5237
 20
-15.67305
 30
0.0
 10
-9.53252
 20
-15.68032
 30
0.0
 10
-9.53957
 20
-15.68963
 30
0.0
 10
-9.53957
 20
-15.68963
 30
0.0
 10
-9.54656
 20
-15.69902
 30
0.0
 10
-9.55206
 20
-15.71002
 30
0.0
 10
-9.55615
 20
-15.72265
 30
0.0
 10
-9.55615
 20
-15.72265
 30
0.0
 10
-9.56018
 20
-15.73535
 30
0.0
 10
-9.56307
 20
-15.74932
 30
0.0
 10
-9.56469
 20
-15.76449
 30
0.0
 10
-9.56469
 20
-15.76449
 30
0.0
 10
-9.56638
 20
-15.77966
 30
0.0
 10
-9.56723
 20
-15.79568
 30
0.0
 10
-9.56716
 20
-15.81254
 30
0.0
 10
-9.56716
 20
-15.81254
 30
0.0
 10
-9.56723
 20
-15.82947
 30
0.0
 10
-9.56638
 20
-15.84549
 30
0.0
 10
-9.56469
 20
-15.86073
 30
0.0
 10
-9.56469
 20
-15.86073
 30
0.0
 10
-9.56307
 20
-15.87597
 30
0.0
 10
-9.56018
 20
-15.88987
 30
0.0
 10
-9.55615
 20
-15.90257
 30
0.0
 10
-9.55615
 20
-15.90257
 30
0.0
 10
-9.55206
 20
-15.91527
 30
0.0
 10
-9.54656
 20
-15.92628
 30
0.0
 10
-9.53957
 20
-15.93559
 30
0.0
 10
-9.53957
 20
-15.93559
 30
0.0
 10
-9.53252
 20
-15.94483
 30
0.0
 10
-9.5237
 20
-15.9521
 30
0.0
 10
-9.51312
 20
-15.95718
 30
0.0
 10
-9.51312
 20
-15.95718
 30
0.0
 10
-9.50246
 20
-15.96226
 30
0.0
 10
-9.48969
 20
-15.96487
 30
0.0
 10
-9.47487
 20
-15.96494
 30
0.0
  0
SPLINE
  5
7A
330
1F
100
AcDbEntity
  8
Layer 1
 62
     5
370
    53
100
AcDbSpline
210
0.0
220
0.0
230
1.0
 70
    11
 71
     3
 72
    84
 73
    80
 74
     0
 42
0.0000000001
 43
0.0000000001
 40
0.0
 40
0.0
 40
0.0
 40
0.0
 40
0.05
 40
0.05
 40
0.05
 40
0.05
 40
0.1
 40
0.1
 40
0.1
 40
0.1
 40
0.15
 40
0.15
 40
0.15
 40
0.15
 40
0.2
 40
0.2
 40
0.2
 40
0.2
 40
0.25
 40
0.25
 40
0.25
 40
0.25
 40
0.3
 40
0.3
 40
0.3
 40
0.3
 40
0.35
 40
0.35
 40
0.35
 40
0.35
 40
0.4
 40
0.4
 40
0.4
 40
0.4
 40
0.45
 40
0.45
 40
0.45
 40
0.45
 40
0.4999999999999999
 40
0.4999999999999999
 40
0.4999999999999999
 40
0.4999999999999999
 40
0.5499999999999999
 40
0.5499999999999999
 40
0.5499999999999999
 40
0.5499999999999999
 40
0.6
 40
0.6
 40
0.6
 40
0.6
 40
0.65
 40
0.65
 40
0.65
 40
0.65
 40
0.7000000000000001
 40
0.7000000000000001
 40
0.7000000000000001
 40
0.7000000000000001
 40
0.7500000000000001
 40
0.7500000000000001
 40
0.7500000000000001
 40
0.7500000000000001
 40
0.8000000000000002
 40
0.8000000000000002
 40
0.8000000000000002
 40
0.8000000000000002
 40
0.8500000000000002
 40
0.8500000000000002
 40
0.8500000000000002
 40
0.8500000000000002
 40
0.9000000000000002
 40
0.9000000000000002
 40
0.9000000000000002
 40
0.9000000000000002
 40
0.9500000000000003
 40
0.9500000000000003
 40
0.9500000000000003
 40
0.9500000000000003
 40
1.0
 40
1.0
 40
1.0
 40
1.0
 10
-9.47487
 20
-15.96494
 30
0.0
 10
-9.46006
 20
-15.96487
 30
0.0
 10
-9.44729
 20
-15.96226
 30
0.0
 10
-9.43663
 20
-15.95718
 30
0.0
 10
-9.43663
 20
-15.95718
 30
0.0
 10
-9.42605
 20
-15.9521
 30
0.0
 10
-9.41723
 20
-15.94483
 30
0.0
 10
-9.41018
 20
-15.93559
 30
0.0
 10
-9.41018
 20
-15.93559
 30
0.0
 10
-9.40319
 20
-15.92628
 30
0.0
 10
-9.39769
 20
-15.91527
 30
0.0
 10
-9.3936
 20
-15.90257
 30
0.0
 10
-9.3936
 20
-15.90257
 30
0.0
 10
-9.38957
 20
-15.88987
 30
0.0
 10
-9.38668
 20
-15.87597
 30
0.0
 10
-9.38506
 20
-15.86073
 30
0.0
 10
-9.38506
 20
-15.86073
 30
0.0
 10
-9.38336
 20
-15.84549
 30
0.0
 10
-9.38252
 20
-15.82947
 30
0.0
 10
-9.38259
 20
-15.81254
 30
0.0
 10
-9.38259
 20
-15.81254
 30
0.0
 10
-9.38252
 20
-15.79568
 30
0.0
 10
-9.38336
 20
-15.77966
 30
0.0
 10
-9.38506
 20
-15.76449
 30
0.0
 10
-9.38506
 20
-15.76449
 30
0.0
 10
-9.38668
 20
-15.74932
 30
0.0
 10
-9.38957
 20
-15.73535
 30
0.0
 10
-9.3936
 20
-15.72265
 30
0.0
 10
-9.3936
 20
-15.72265
 30
0.0
 10
-9.39769
 20
-15.71002
 30
0.0
 10
-9.40319
 20
-15.69902
 30
0.0
 10
-9.41018
 20
-15.68963
 30
0.0
 10
-9.41018
 20
-15.68963
 30
0.0
 10
-9.41723
 20
-15.68032
 30
0.0
 10
-9.42605
 20
-15.67305
 30
0.0
 10
-9.43663
 20
-15.66797
 30
0.0
 10
-9.43663
 20
-15.66797
 30
0.0
 10
-9.44729
 20
-15.66282
 30
0.0
 10
-9.46006
 20
-15.66021
 30
0.0
 10
-9.47487
 20
-15.66014
 30
0.0
 10
-9.47487
 20
-15.66014
 30
0.0
 10
-9.48969
 20
-15.66021
 30
0.0
 10
-9.50246
 20
-15.66282
 30
0.0
 10
-9.51312
 20
-15.66797
 30
0.0
 10
-9.51312
 20
-15.66797
 30
0.0
 10
-9.5237
 20
-15.67305
 30
0.0
 10
-9.53252
 20
-15.68032
 30
0.0
 10
-9.53957
 20
-15.68963
 30
0.0
 10
-9.53957
 20
-15.68963
 30
0.0
 10
-9.54656
 20
-15.69902
 30
0.0
 10
-9.55206
 20
-15.71002
 30
0.0
 10
-9.55615
 20
-15.72265
 30
0.0
 10
-9.55615
 20
-15.72265
 30
0.0
 10
-9.56018
 20
-15.73535
 30
0.0
 10
-9.56307
 20
-15.74932
 30
0.0
 10
-9.56469
 20
-15.76449
 30
0.0
 10
-9.56469
 20
-15.76449
 30
0.0
 10
-9.56638
 20
-15.77966
 30
0.0
 10
-9.56723
 20
-15.79568
 30
0.0
 10
-9.56716
 20
-15.81254
 30
0.0
 10
-9.56716
 20
-15.81254
 30
0.0
 10
-9.56723
 20
-15.82947
 30
0.0
 10
-9.56638
 20
-15.84549
 30
0.0
 10
-9.56469
 20
-15.86073
 30
0.0
 10
-9.56469
 20
-15.86073
 30
0.0
 10
-9.56307
 20
-15.87597
 30
0.0
 10
-9.56018
 20
-15.88987
 30
0.0
 10
-9.55615
 20
-15.90257
 30
0.0
 10
-9.55615
 20
-15.90257
 30
0.0
 10
-9.55206
 20
-15.91527
 30
0.0
 10
-9.54656
 20
-15.92628
 30
0.0
 10
-9.53957
 20
-15.93559
 30
0.0
 10
-9.53957
 20
-15.93559
 30
0.0
 10
-9.53252
 20
-15.94483
 30
0.0
 10
-9.5237
 20
-15.9521
 30
0.0
 10
-9.51312
 20
-15.95718
 30
0.0
 10
-9.51312
 20
-15.95718
 30
0.0
 10
-9.50246
 20
-15.96226
 30
0.0
 10
-9.48969
 20
-15.96487
 30
0.0
 10
-9.47487
 20
-15.96494
 30
0.0
  0
SPLINE
  5
7B
330
1F
100
AcDbEntity
  8
Layer 1
 62
     5
370
    53
100
AcDbSpline
210
0.0
220
0.0
230
1.0
 70
    11
 71
     3
 72
   180
 73
   176
 74
     0
 42
0.0000000001
 43
0.0000000001
 40
0.0
 40
0.0
 40
0.0
 40
0.0
 40
0.0227272727272727
 40
0.0227272727272727
 40
0.0227272727272727
 40
0.0227272727272727
 40
0.0454545454545455
 40
0.0454545454545455
 40
0.0454545454545455
 40
0.0454545454545455
 40
0.0681818181818182
 40
0.0681818181818182
 40
0.0681818181818182
 40
0.0681818181818182
 40
0.0909090909090909
 40
0.0909090909090909
 40
0.0909090909090909
 40
0.0909090909090909
 40
0.1136363636363636
 40
0.1136363636363636
 40
0.1136363636363636
 40
0.1136363636363636
 40
0.1363636363636364
 40
0.1363636363636364
 40
0.1363636363636364
 40
0.1363636363636364
 40
0.1590909090909091
 40
0.1590909090909091
 40
0.1590909090909091
 40
0.1590909090909091
 40
0.1818181818181819
 40
0.1818181818181819
 40
0.1818181818181819
 40
0.1818181818181819
 40
0.2045454545454546
 40
0.2045454545454546
 40
0.2045454545454546
 40
0.2045454545454546
 40
0.2272727272727273
 40
0.2272727272727273
 40
0.2272727272727273
 40
0.2272727272727273
 40
0.2500000000000001
 40
0.2500000000000001
 40
0.2500000000000001
 40
0.2500000000000001
 40
0.2727272727272728
 40
0.2727272727272728
 40
0.2727272727272728
 40
0.2727272727272728
 40
0.2954545454545455
 40
0.2954545454545455
 40
0.2954545454545455
 40
0.2954545454545455
 40
0.3181818181818182
 40
0.3181818181818182
 40
0.3181818181818182
 40
0.3181818181818182
 40
0.3409090909090909
 40
0.3409090909090909
 40
0.3409090909090909
 40
0.3409090909090909
 40
0.3636363636363636
 40
0.3636363636363636
 40
0.3636363636363636
 40
0.3636363636363636
 40
0.3863636363636363
 40
0.3863636363636363
 40
0.3863636363636363
 40
0.3863636363636363
 40
0.409090909090909
 40
0.409090909090909
 40
0.409090909090909
 40
0.409090909090909
 40
0.4318181818181817
 40
0.4318181818181817
 40
0.4318181818181817
 40
0.4318181818181817
 40
0.4545454545454544
 40
0.4545454545454544
 40
0.4545454545454544
 40
0.4545454545454544
 40
0.4772727272727271
 40
0.4772727272727271
 40
0.4772727272727271
 40
0.4772727272727271
 40
0.4999999999999998
 40
0.4999999999999998
 40
0.4999999999999998
 40
0.4999999999999998
 40
0.5227272727272726
 40
0.5227272727272726
 40
0.5227272727272726
 40
0.5227272727272726
 40
0.5454545454545453
 40
0.5454545454545453
 40
0.5454545454545453
 40
0.5454545454545453
 40
0.568181818181818
 40
0.568181818181818
 40
0.568181818181818
 40
0.568181818181818
 40
0.5909090909090907
 40
0.5909090909090907
 40
0.5909090909090907
 40
0.5909090909090907
 40
0.6136363636363634
 40
0.6136363636363634
 40
0.6136363636363634
 40
0.6136363636363634
 40
0.6363636363636361
 40
0.6363636363636361
 40
0.6363636363636361
 40
0.6363636363636361
 40
0.6590909090909088
 40
0.6590909090909088
 40
0.6590909090909088
 40
0.6590909090909088
 40
0.6818181818181815
 40
0.6818181818181815
 40
0.6818181818181815
 40
0.6818181818181815
 40
0.7045454545454543
 40
0.7045454545454543
 40
0.7045454545454543
 40
0.7045454545454543
 40
0.727272727272727
 40
0.727272727272727
 40
0.727272727272727
 40
0.727272727272727
 40
0.7499999999999997
 40
0.7499999999999997
 40
0.7499999999999997
 40
0.7499999999999997
 40
0.7727272727272724
 40
0.7727272727272724
 40
0.7727272727272724
 40
0.7727272727272724
 40
0.7954545454545451
 40
0.7954545454545451
 40
0.7954545454545451
 40
0.7954545454545451
 40
0.8181818181818178
 40
0.8181818181818178
 40
0.8181818181818178
 40
0.8181818181818178
 40
0.8409090909090905
 40
0.8409090909090905
 40
0.8409090909090905
 40
0.8409090909090905
 40
0.8636363636363632
 40
0.8636363636363632
 40
0.8636363636363632
 40
0.8636363636363632
 40
0.8863636363636359
 40
0.8863636363636359
 40
0.8863636363636359
 40
0.8863636363636359
 40
0.9090909090909086
 40
0.9090909090909086
 40
0.9090909090909086
 40
0.9090909090909086
 40
0.9318181818181813
 40
0.9318181818181813
 40
0.9318181818181813
 40
0.9318181818181813
 40
0.954545454545454
 40
0.954545454545454
 40
0.954545454545454
 40
0.954545454545454
 40
0.9772727272727267
 40
0.9772727272727267
 40
0.9772727272727267
 40
0.9772727272727267
 40
1.0
 40
1.0
 40
1.0
 40
1.0
 10
-9.28226
 20
-15.88832
 30
0.0
 10
-9.28219
 20
-15.90356
 30
0.0
 10
-9.27866
 20
-15.91682
 30
0.0
 10
-9.27168
 20
-15.92832
 30
0.0
 10
-9.27168
 20
-15.92832
 30
0.0
 10
-9.26469
 20
-15.93975
 30
0.0
 10
-9.25474
 20
-15.94871
 30
0.0
 10
-9.24176
 20
-15.95513
 30
0.0
 10
-9.24176
 20
-15.95513
 30
0.0
 10
-9.22878
 20
-15.96155
 30
0.0
 10
-9.21319
 20
-15.9648
 30
0.0
 10
-9.19505
 20
-15.96494
 30
0.0
 10
-9.19505
 20
-15.96494
 30
0.0
 10
-9.18144
 20
-15.96494
 30
0.0
 10
-9.16909
 20
-15.96353
 30
0.0
 10
-9.15787
 20
-15.96057
 30
0.0
 10
-9.15787
 20
-15.96057
 30
0.0
 10
-9.14672
 20
-15.9576
 30
0.0
 10
-9.13713
 20
-15.95302
 30
0.0
 10
-9.12901
 20
-15.94674
 30
0.0
 10
-9.12901
 20
-15.94674
 30
0.0
 10
-9.1209
 20
-15.94046
 30
0.0
 10
-9.11469
 20
-15.93234
 30
0.0
 10
-9.11025
 20
-15.92247
 30
0.0
 10
-9.11025
 20
-15.92247
 30
0.0
 10
-9.10587
 20
-15.91252
 30
0.0
 10
-9.10369
 20
-15.90059
 30
0.0
 10
-9.10362
 20
-15.88662
 30
0.0
 10
-9.10362
 20
-15.88662
 30
0.0
 10
-9.10354
 20
-15.868
 30
0.0
 10
-9.10735
 20
-15.85226
 30
0.0
 10
-9.1149
 20
-15.83949
 30
0.0
 10
-9.1149
 20
-15.83949
 30
0.0
 10
-9.12245
 20
-15.82672
 30
0.0
 10
-9.13417
 20
-15.81713
 30
0.0
 10
-9.1499
 20
-15.81057
 30
0.0
 10
-9.1499
 20
-15.81057
 30
0.0
 10
-9.16563
 20
-15.804
 30
0.0
 10
-9.18581
 20
-15.80069
 30
0.0
 10
-9.21029
 20
-15.80069
 30
0.0
 10
-9.21029
 20
-15.80069
 30
0.0
 10
-9.19202
 20
-15.80076
 30
0.0
 10
-9.17671
 20
-15.79907
 30
0.0
 10
-9.16422
 20
-15.79561
 30
0.0
 10
-9.16422
 20
-15.79561
 30
0.0
 10
-9.1518
 20
-15.79215
 30
0.0
 10
-9.14186
 20
-15.78728
 30
0.0
 10
-9.13438
 20
-15.78093
 30
0.0
 10
-9.13438
 20
-15.78093
 30
0.0
 10
-9.1269
 20
-15.77465
 30
0.0
 10
-9.12147
 20
-15.76717
 30
0.0
 10
-9.11822
 20
-15.75857
 30
0.0
 10
-9.11822
 20
-15.75857
 30
0.0
 10
-9.1149
 20
-15.75003
 30
0.0
 10
-9.11328
 20
-15.74065
 30
0.0
 10
-9.11335
 20
-15.73042
 30
0.0
 10
-9.11335
 20
-15.73042
 30
0.0
 10
-9.11328
 20
-15.72018
 30
0.0
 10
-9.11469
 20
-15.71073
 30
0.0
 10
-9.11751
 20
-15.70198
 30
0.0
 10
-9.11751
 20
-15.70198
 30
0.0
 10
-9.12027
 20
-15.69323
 30
0.0
 10
-9.12478
 20
-15.68554
 30
0.0
 10
-9.13092
 20
-15.67898
 30
0.0
 10
-9.13092
 20
-15.67898
 30
0.0
 10
-9.13706
 20
-15.67242
 30
0.0
 10
-9.14517
 20
-15.66727
 30
0.0
 10
-9.15512
 20
-15.6636
 30
0.0
 10
-9.15512
 20
-15.6636
 30
0.0
 10
-9.16514
 20
-15.65993
 30
0.0
 10
-9.17735
 20
-15.6581
 30
0.0
 10
-9.19167
 20
-15.65803
 30
0.0
 10
-9.19167
 20
-15.65803
 30
0.0
 10
-9.20592
 20
-15.6581
 30
0.0
 10
-9.21841
 20
-15.66021
 30
0.0
 10
-9.22899
 20
-15.66431
 30
0.0
 10
-9.22899
 20
-15.66431
 30
0.0
 10
-9.23965
 20
-15.6684
 30
0.0
 10
-9.24839
 20
-15.67397
 30
0.0
 10
-9.25545
 20
-15.6811
 30
0.0
 10
-9.25545
 20
-15.6811
 30
0.0
 10
-9.26243
 20
-15.68822
 30
0.0
 10
-9.26766
 20
-15.69634
 30
0.0
 10
-9.27111
 20
-15.70551
 30
0.0
 10
-9.27111
 20
-15.70551
 30
0.0
 10
-9.27464
 20
-15.71468
 30
0.0
 10
-9.27633
 20
-15.72442
 30
0.0
 10
-9.27633
 20
-15.73465
 30
0.0
 10
-9.27633
 20
-15.73465
 30
0.0
 10
-9.27633
 20
-15.72442
 30
0.0
 10
-9.27464
 20
-15.71468
 30
0.0
 10
-9.27111
 20
-15.70551
 30
0.0
 10
-9.27111
 20
-15.70551
 30
0.0
 10
-9.26766
 20
-15.69634
 30
0.0
 10
-9.26243
 20
-15.68822
 30
0.0
 10
-9.25545
 20
-15.6811
 30
0.0
 10
-9.25545
 20
-15.6811
 30
0.0
 10
-9.24839
 20
-15.67397
 30
0.0
 10
-9.23965
 20
-15.6684
 30
0.0
 10
-9.22899
 20
-15.66431
 30
0.0
 10
-9.22899
 20
-15.66431
 30
0.0
 10
-9.21841
 20
-15.66021
 30
0.0
 10
-9.20592
 20
-15.6581
 30
0.0
 10
-9.19167
 20
-15.65803
 30
0.0
 10
-9.19167
 20
-15.65803
 30
0.0
 10
-9.17735
 20
-15.6581
 30
0.0
 10
-9.16514
 20
-15.65993
 30
0.0
 10
-9.15512
 20
-15.6636
 30
0.0
 10
-9.15512
 20
-15.6636
 30
0.0
 10
-9.14517
 20
-15.66727
 30
0.0
 10
-9.13706
 20
-15.67242
 30
0.0
 10
-9.13092
 20
-15.67898
 30
0.0
 10
-9.13092
 20
-15.67898
 30
0.0
 10
-9.12478
 20
-15.68554
 30
0.0
 10
-9.12027
 20
-15.69323
 30
0.0
 10
-9.11751
 20
-15.70198
 30
0.0
 10
-9.11751
 20
-15.70198
 30
0.0
 10
-9.11469
 20
-15.71073
 30
0.0
 10
-9.11328
 20
-15.72018
 30
0.0
 10
-9.11335
 20
-15.73042
 30
0.0
 10
-9.11335
 20
-15.73042
 30
0.0
 10
-9.11328
 20
-15.74065
 30
0.0
 10
-9.1149
 20
-15.75003
 30
0.0
 10
-9.11822
 20
-15.75857
 30
0.0
 10
-9.11822
 20
-15.75857
 30
0.0
 10
-9.12147
 20
-15.76717
 30
0.0
 10
-9.1269
 20
-15.77465
 30
0.0
 10
-9.13438
 20
-15.78093
 30
0.0
 10
-9.13438
 20
-15.78093
 30
0.0
 10
-9.14186
 20
-15.78728
 30
0.0
 10
-9.1518
 20
-15.79215
 30
0.0
 10
-9.16422
 20
-15.79561
 30
0.0
 10
-9.16422
 20
-15.79561
 30
0.0
 10
-9.17671
 20
-15.79907
 30
0.0
 10
-9.19202
 20
-15.80076
 30
0.0
 10
-9.21029
 20
-15.80069
 30
0.0
 10
-9.21029
 20
-15.80069
 30
0.0
 10
-9.18581
 20
-15.80069
 30
0.0
 10
-9.16563
 20
-15.804
 30
0.0
 10
-9.1499
 20
-15.81057
 30
0.0
 10
-9.1499
 20
-15.81057
 30
0.0
 10
-9.13417
 20
-15.81713
 30
0.0
 10
-9.12245
 20
-15.82672
 30
0.0
 10
-9.1149
 20
-15.83949
 30
0.0
 10
-9.1149
 20
-15.83949
 30
0.0
 10
-9.10735
 20
-15.85226
 30
0.0
 10
-9.10354
 20
-15.868
 30
0.0
 10
-9.10362
 20
-15.88662
 30
0.0
 10
-9.10362
 20
-15.88662
 30
0.0
 10
-9.10369
 20
-15.90059
 30
0.0
 10
-9.10587
 20
-15.91252
 30
0.0
 10
-9.11025
 20
-15.92247
 30
0.0
 10
-9.11025
 20
-15.92247
 30
0.0
 10
-9.11469
 20
-15.93234
 30
0.0
 10
-9.1209
 20
-15.94046
 30
0.0
 10
-9.12901
 20
-15.94674
 30
0.0
 10
-9.12901
 20
-15.94674
 30
0.0
 10
-9.13713
 20
-15.95302
 30
0.0
 10
-9.14672
 20
-15.9576
 30
0.0
 10
-9.15787
 20
-15.96057
 30
0.0
 10
-9.15787
 20
-15.96057
 30
0.0
 10
-9.16909
 20
-15.96353
 30
0.0
 10
-9.18144
 20
-15.96494
 30
0.0
 10
-9.19505
 20
-15.96494
 30
0.0
 10
-9.19505
 20
-15.96494
 30
0.0
 10
-9.21319
 20
-15.9648
 30
0.0
 10
-9.22878
 20
-15.96155
 30
0.0
 10
-9.24176
 20
-15.95513
 30
0.0
 10
-9.24176
 20
-15.95513
 30
0.0
 10
-9.25474
 20
-15.94871
 30
0.0
 10
-9.26469
 20
-15.93975
 30
0.0
 10
-9.27168
 20
-15.92832
 30
0.0
 10
-9.27168
 20
-15.92832
 30
0.0
 10
-9.27866
 20
-15.91682
 30
0.0
 10
-9.28219
 20
-15.90356
 30
0.0
 10
-9.28226
 20
-15.88832
 30
0.0
  0
SPLINE
  5
7C
330
1F
100
AcDbEntity
  8
Layer 1
 62
     5
370
    53
100
AcDbSpline
210
0.0
220
0.0
230
1.0
 70
    11
 71
     3
 72
    64
 73
    60
 74
     0
 42
0.0000000001
 43
0.0000000001
 40
0.0
 40
0.0
 40
0.0
 40
0.0
 40
0.0666666666666667
 40
0.0666666666666667
 40
0.0666666666666667
 40
0.0666666666666667
 40
0.1333333333333333
 40
0.1333333333333333
 40
0.1333333333333333
 40
0.1333333333333333
 40
0.2
 40
0.2
 40
0.2
 40
0.2
 40
0.2666666666666667
 40
0.2666666666666667
 40
0.2666666666666667
 40
0.2666666666666667
 40
0.3333333333333333
 40
0.3333333333333333
 40
0.3333333333333333
 40
0.3333333333333333
 40
0.4
 40
0.4
 40
0.4
 40
0.4
 40
0.4666666666666666
 40
0.4666666666666666
 40
0.4666666666666666
 40
0.4666666666666666
 40
0.5333333333333333
 40
0.5333333333333333
 40
0.5333333333333333
 40
0.5333333333333333
 40
0.6
 40
0.6
 40
0.6
 40
0.6
 40
0.6666666666666666
 40
0.6666666666666666
 40
0.6666666666666666
 40
0.6666666666666666
 40
0.7333333333333333
 40
0.7333333333333333
 40
0.7333333333333333
 40
0.7333333333333333
 40
0.7999999999999999
 40
0.7999999999999999
 40
0.7999999999999999
 40
0.7999999999999999
 40
0.8666666666666666
 40
0.8666666666666666
 40
0.8666666666666666
 40
0.8666666666666666
 40
0.9333333333333332
 40
0.9333333333333332
 40
0.9333333333333332
 40
0.9333333333333332
 40
1.0
 40
1.0
 40
1.0
 40
1.0
 10
-10.55372
 20
-16.54025
 30
0.0
 10
-10.55372
 20
-16.54025
 30
0.0
 10
-10.55372
 20
-16.23503
 30
0.0
 10
-10.55372
 20
-16.23503
 30
0.0
 10
-10.55372
 20
-16.23503
 30
0.0
 10
-10.55372
 20
-16.23503
 30
0.0
 10
-10.44365
 20
-16.23503
 30
0.0
 10
-10.44365
 20
-16.23503
 30
0.0
 10
-10.44365
 20
-16.23503
 30
0.0
 10
-10.42693
 20
-16.2351
 30
0.0
 10
-10.41247
 20
-16.23729
 30
0.0
 10
-10.40026
 20
-16.24159
 30
0.0
 10
-10.40026
 20
-16.24159
 30
0.0
 10
-10.38813
 20
-16.24589
 30
0.0
 10
-10.37783
 20
-16.25182
 30
0.0
 10
-10.3695
 20
-16.2593
 30
0.0
 10
-10.3695
 20
-16.2593
 30
0.0
 10
-10.36111
 20
-16.26685
 30
0.0
 10
-10.35433
 20
-16.27553
 30
0.0
 10
-10.34904
 20
-16.28526
 30
0.0
 10
-10.34904
 20
-16.28526
 30
0.0
 10
-10.34375
 20
-16.29507
 30
0.0
 10
-10.33966
 20
-16.30551
 30
0.0
 10
-10.33676
 20
-16.31659
 30
0.0
 10
-10.33676
 20
-16.31659
 30
0.0
 10
-10.33387
 20
-16.3276
 30
0.0
 10
-10.33183
 20
-16.33882
 30
0.0
 10
-10.33056
 20
-16.35017
 30
0.0
 10
-10.33056
 20
-16.35017
 30
0.0
 10
-10.32929
 20
-16.36153
 30
0.0
 10
-10.32844
 20
-16.37254
 30
0.0
 10
-10.32809
 20
-16.38319
 30
0.0
 10
-10.32809
 20
-16.38319
 30
0.0
 10
-10.32759
 20
-16.39385
 30
0.0
 10
-10.32794
 20
-16.40507
 30
0.0
 10
-10.32907
 20
-16.41685
 30
0.0
 10
-10.32907
 20
-16.41685
 30
0.0
 10
-10.3302
 20
-16.42863
 30
0.0
 10
-10.33232
 20
-16.44041
 30
0.0
 10
-10.33549
 20
-16.45213
 30
0.0
 10
-10.33549
 20
-16.45213
 30
0.0
 10
-10.3386
 20
-16.46384
 30
0.0
 10
-10.34304
 20
-16.47499
 30
0.0
 10
-10.34876
 20
-16.4855
 30
0.0
 10
-10.34876
 20
-16.4855
 30
0.0
 10
-10.3544
 20
-16.49608
 30
0.0
 10
-10.3616
 20
-16.50547
 30
0.0
 10
-10.37021
 20
-16.51365
 30
0.0
 10
-10.37021
 20
-16.51365
 30
0.0
 10
-10.37889
 20
-16.52184
 30
0.0
 10
-10.38926
 20
-16.52833
 30
0.0
 10
-10.40139
 20
-16.53305
 30
0.0
 10
-10.40139
 20
-16.53305
 30
0.0
 10
-10.41353
 20
-16.53778
 30
0.0
 10
-10.42764
 20
-16.54018
 30
0.0
 10
-10.44365
 20
-16.54025
 30
0.0
 10
-10.44365
 20
-16.54025
 30
0.0
 10
-10.44365
 20
-16.54025
 30
0.0
 10
-10.55372
 20
-16.54025
 30
0.0
 10
-10.55372
 20
-16.54025
 30
0.0
  0
SPLINE
  5
7D
330
1F
100
AcDbEntity
  8
Layer 1
 62
     5
370
    53
100
AcDbSpline
210
0.0
220
0.0
230
1.0
 70
    11
 71
     3
 72
    64
 73
    60
 74
     0
 42
0.0000000001
 43
0.0000000001
 40
0.0
 40
0.0
 40
0.0
 40
0.0
 40
0.0666666666666667
 40
0.0666666666666667
 40
0.0666666666666667
 40
0.0666666666666667
 40
0.1333333333333333
 40
0.1333333333333333
 40
0.1333333333333333
 40
0.1333333333333333
 40
0.2
 40
0.2
 40
0.2
 40
0.2
 40
0.2666666666666667
 40
0.2666666666666667
 40
0.2666666666666667
 40
0.2666666666666667
 40
0.3333333333333333
 40
0.3333333333333333
 40
0.3333333333333333
 40
0.3333333333333333
 40
0.4
 40
0.4
 40
0.4
 40
0.4
 40
0.4666666666666666
 40
0.4666666666666666
 40
0.4666666666666666
 40
0.4666666666666666
 40
0.5333333333333333
 40
0.5333333333333333
 40
0.5333333333333333
 40
0.5333333333333333
 40
0.6
 40
0.6
 40
0.6
 40
0.6
 40
0.6666666666666666
 40
0.6666666666666666
 40
0.6666666666666666
 40
0.6666666666666666
 40
0.7333333333333333
 40
0.7333333333333333
 40
0.7333333333333333
 40
0.7333333333333333
 40
0.7999999999999999
 40
0.7999999999999999
 40
0.7999999999999999
 40
0.7999999999999999
 40
0.8666666666666666
 40
0.8666666666666666
 40
0.8666666666666666
 40
0.8666666666666666
 40
0.9333333333333332
 40
0.9333333333333332
 40
0.9333333333333332
 40
0.9333333333333332
 40
1.0
 40
1.0
 40
1.0
 40
1.0
 10
-10.55372
 20
-16.54025
 30
0.0
 10
-10.55372
 20
-16.54025
 30
0.0
 10
-10.55372
 20
-16.23503
 30
0.0
 10
-10.55372
 20
-16.23503
 30
0.0
 10
-10.55372
 20
-16.23503
 30
0.0
 10
-10.55372
 20
-16.23503
 30
0.0
 10
-10.44365
 20
-16.23503
 30
0.0
 10
-10.44365
 20
-16.23503
 30
0.0
 10
-10.44365
 20
-16.23503
 30
0.0
 10
-10.42693
 20
-16.2351
 30
0.0
 10
-10.41247
 20
-16.23729
 30
0.0
 10
-10.40026
 20
-16.24159
 30
0.0
 10
-10.40026
 20
-16.24159
 30
0.0
 10
-10.38813
 20
-16.24589
 30
0.0
 10
-10.37783
 20
-16.25182
 30
0.0
 10
-10.3695
 20
-16.2593
 30
0.0
 10
-10.3695
 20
-16.2593
 30
0.0
 10
-10.36111
 20
-16.26685
 30
0.0
 10
-10.35433
 20
-16.27553
 30
0.0
 10
-10.34904
 20
-16.28526
 30
0.0
 10
-10.34904
 20
-16.28526
 30
0.0
 10
-10.34375
 20
-16.29507
 30
0.0
 10
-10.33966
 20
-16.30551
 30
0.0
 10
-10.33676
 20
-16.31659
 30
0.0
 10
-10.33676
 20
-16.31659
 30
0.0
 10
-10.33387
 20
-16.3276
 30
0.0
 10
-10.33183
 20
-16.33882
 30
0.0
 10
-10.33056
 20
-16.35017
 30
0.0
 10
-10.33056
 20
-16.35017
 30
0.0
 10
-10.32929
 20
-16.36153
 30
0.0
 10
-10.32844
 20
-16.37254
 30
0.0
 10
-10.32809
 20
-16.38319
 30
0.0
 10
-10.32809
 20
-16.38319
 30
0.0
 10
-10.32759
 20
-16.39385
 30
0.0
 10
-10.32794
 20
-16.40507
 30
0.0
 10
-10.32907
 20
-16.41685
 30
0.0
 10
-10.32907
 20
-16.41685
 30
0.0
 10
-10.3302
 20
-16.42863
 30
0.0
 10
-10.33232
 20
-16.44041
 30
0.0
 10
-10.33549
 20
-16.45213
 30
0.0
 10
-10.33549
 20
-16.45213
 30
0.0
 10
-10.3386
 20
-16.46384
 30
0.0
 10
-10.34304
 20
-16.47499
 30
0.0
 10
-10.34876
 20
-16.4855
 30
0.0
 10
-10.34876
 20
-16.4855
 30
0.0
 10
-10.3544
 20
-16.49608
 30
0.0
 10
-10.3616
 20
-16.50547
 30
0.0
 10
-10.37021
 20
-16.51365
 30
0.0
 10
-10.37021
 20
-16.51365
 30
0.0
 10
-10.37889
 20
-16.52184
 30
0.0
 10
-10.38926
 20
-16.52833
 30
0.0
 10
-10.40139
 20
-16.53305
 30
0.0
 10
-10.40139
 20
-16.53305
 30
0.0
 10
-10.41353
 20
-16.53778
 30
0.0
 10
-10.42764
 20
-16.54018
 30
0.0
 10
-10.44365
 20
-16.54025
 30
0.0
 10
-10.44365
 20
-16.54025
 30
0.0
 10
-10.44365
 20
-16.54025
 30
0.0
 10
-10.55372
 20
-16.54025
 30
0.0
 10
-10.55372
 20
-16.54025
 30
0.0
  0
SPLINE
  5
7E
330
1F
100
AcDbEntity
  8
Layer 1
 62
     5
370
    53
100
AcDbSpline
210
0.0
220
0.0
230
1.0
 70
    11
 71
     3
 72
   172
 73
   168
 74
     0
 42
0.0000000001
 43
0.0000000001
 40
0.0
 40
0.0
 40
0.0
 40
0.0
 40
0.0238095238095238
 40
0.0238095238095238
 40
0.0238095238095238
 40
0.0238095238095238
 40
0.0476190476190476
 40
0.0476190476190476
 40
0.0476190476190476
 40
0.0476190476190476
 40
0.0714285714285714
 40
0.0714285714285714
 40
0.0714285714285714
 40
0.0714285714285714
 40
0.0952380952380952
 40
0.0952380952380952
 40
0.0952380952380952
 40
0.0952380952380952
 40
0.119047619047619
 40
0.119047619047619
 40
0.119047619047619
 40
0.119047619047619
 40
0.1428571428571428
 40
0.1428571428571428
 40
0.1428571428571428
 40
0.1428571428571428
 40
0.1666666666666667
 40
0.1666666666666667
 40
0.1666666666666667
 40
0.1666666666666667
 40
0.1904761904761905
 40
0.1904761904761905
 40
0.1904761904761905
 40
0.1904761904761905
 40
0.2142857142857143
 40
0.2142857142857143
 40
0.2142857142857143
 40
0.2142857142857143
 40
0.2380952380952381
 40
0.2380952380952381
 40
0.2380952380952381
 40
0.2380952380952381
 40
0.2619047619047619
 40
0.2619047619047619
 40
0.2619047619047619
 40
0.2619047619047619
 40
0.2857142857142857
 40
0.2857142857142857
 40
0.2857142857142857
 40
0.2857142857142857
 40
0.3095238095238095
 40
0.3095238095238095
 40
0.3095238095238095
 40
0.3095238095238095
 40
0.3333333333333334
 40
0.3333333333333334
 40
0.3333333333333334
 40
0.3333333333333334
 40
0.3571428571428572
 40
0.3571428571428572
 40
0.3571428571428572
 40
0.3571428571428572
 40
0.380952380952381
 40
0.380952380952381
 40
0.380952380952381
 40
0.380952380952381
 40
0.4047619047619049
 40
0.4047619047619049
 40
0.4047619047619049
 40
0.4047619047619049
 40
0.4285714285714287
 40
0.4285714285714287
 40
0.4285714285714287
 40
0.4285714285714287
 40
0.4523809523809526
 40
0.4523809523809526
 40
0.4523809523809526
 40
0.4523809523809526
 40
0.4761904761904764
 40
0.4761904761904764
 40
0.4761904761904764
 40
0.4761904761904764
 40
0.5000000000000002
 40
0.5000000000000002
 40
0.5000000000000002
 40
0.5000000000000002
 40
0.5238095238095241
 40
0.5238095238095241
 40
0.5238095238095241
 40
0.5238095238095241
 40
0.5476190476190479
 40
0.5476190476190479
 40
0.5476190476190479
 40
0.5476190476190479
 40
0.5714285714285717
 40
0.5714285714285717
 40
0.5714285714285717
 40
0.5714285714285717
 40
0.5952380952380956
 40
0.5952380952380956
 40
0.5952380952380956
 40
0.5952380952380956
 40
0.6190476190476194
 40
0.6190476190476194
 40
0.6190476190476194
 40
0.6190476190476194
 40
0.6428571428571432
 40
0.6428571428571432
 40
0.6428571428571432
 40
0.6428571428571432
 40
0.6666666666666671
 40
0.6666666666666671
 40
0.6666666666666671
 40
0.6666666666666671
 40
0.6904761904761909
 40
0.6904761904761909
 40
0.6904761904761909
 40
0.6904761904761909
 40
0.7142857142857147
 40
0.7142857142857147
 40
0.7142857142857147
 40
0.7142857142857147
 40
0.7380952380952386
 40
0.7380952380952386
 40
0.7380952380952386
 40
0.7380952380952386
 40
0.7619047619047624
 40
0.7619047619047624
 40
0.7619047619047624
 40
0.7619047619047624
 40
0.7857142857142863
 40
0.7857142857142863
 40
0.7857142857142863
 40
0.7857142857142863
 40
0.8095238095238101
 40
0.8095238095238101
 40
0.8095238095238101
 40
0.8095238095238101
 40
0.8333333333333339
 40
0.8333333333333339
 40
0.8333333333333339
 40
0.8333333333333339
 40
0.8571428571428578
 40
0.8571428571428578
 40
0.8571428571428578
 40
0.8571428571428578
 40
0.8809523809523816
 40
0.8809523809523816
 40
0.8809523809523816
 40
0.8809523809523816
 40
0.9047619047619054
 40
0.9047619047619054
 40
0.9047619047619054
 40
0.9047619047619054
 40
0.9285714285714293
 40
0.9285714285714293
 40
0.9285714285714293
 40
0.9285714285714293
 40
0.9523809523809531
 40
0.9523809523809531
 40
0.9523809523809531
 40
0.9523809523809531
 40
0.9761904761904769
 40
0.9761904761904769
 40
0.9761904761904769
 40
0.9761904761904769
 40
1.0
 40
1.0
 40
1.0
 40
1.0
 10
-10.03937
 20
-16.54025
 30
0.0
 10
-10.03937
 20
-16.54025
 30
0.0
 10
-10.22098
 20
-16.54025
 30
0.0
 10
-10.22098
 20
-16.54025
 30
0.0
 10
-10.22098
 20
-16.54025
 30
0.0
 10
-10.22063
 20
-16.52797
 30
0.0
 10
-10.21908
 20
-16.51711
 30
0.0
 10
-10.21646
 20
-16.50779
 30
0.0
 10
-10.21646
 20
-16.50779
 30
0.0
 10
-10.21378
 20
-16.49848
 30
0.0
 10
-10.21019
 20
-16.4903
 30
0.0
 10
-10.20574
 20
-16.48324
 30
0.0
 10
-10.20574
 20
-16.48324
 30
0.0
 10
-10.20122
 20
-16.47619
 30
0.0
 10
-10.19607
 20
-16.46991
 30
0.0
 10
-10.19022
 20
-16.4644
 30
0.0
 10
-10.19022
 20
-16.4644
 30
0.0
 10
-10.18436
 20
-16.45883
 30
0.0
 10
-10.17808
 20
-16.45375
 30
0.0
 10
-10.17131
 20
-16.44895
 30
0.0
 10
-10.17131
 20
-16.44895
 30
0.0
 10
-10.16454
 20
-16.44422
 30
0.0
 10
-10.15755
 20
-16.4395
 30
0.0
 10
-10.15028
 20
-16.43484
 30
0.0
 10
-10.15028
 20
-16.43484
 30
0.0
 10
-10.15028
 20
-16.43484
 30
0.0
 10
-10.07789
 20
-16.38658
 30
0.0
 10
-10.07789
 20
-16.38658
 30
0.0
 10
-10.07789
 20
-16.38658
 30
0.0
 10
-10.07049
 20
-16.38136
 30
0.0
 10
-10.0647
 20
-16.37565
 30
0.0
 10
-10.06061
 20
-16.36951
 30
0.0
 10
-10.06061
 20
-16.36951
 30
0.0
 10
-10.05645
 20
-16.36337
 30
0.0
 10
-10.05355
 20
-16.35688
 30
0.0
 10
-10.05179
 20
-16.35003
 30
0.0
 10
-10.05179
 20
-16.35003
 30
0.0
 10
-10.0501
 20
-16.34326
 30
0.0
 10
-10.04904
 20
-16.33628
 30
0.0
 10
-10.04869
 20
-16.32922
 30
0.0
 10
-10.04869
 20
-16.32922
 30
0.0
 10
-10.04833
 20
-16.32209
 30
0.0
 10
-10.04819
 20
-16.31497
 30
0.0
 10
-10.04826
 20
-16.30784
 30
0.0
 10
-10.04826
 20
-16.30784
 30
0.0
 10
-10.04826
 20
-16.30199
 30
0.0
 10
-10.04904
 20
-16.29571
 30
0.0
 10
-10.05059
 20
-16.28893
 30
0.0
 10
-10.05059
 20
-16.28893
 30
0.0
 10
-10.05221
 20
-16.28223
 30
0.0
 10
-10.05475
 20
-16.27553
 30
0.0
 10
-10.05835
 20
-16.2689
 30
0.0
 10
-10.05835
 20
-16.2689
 30
0.0
 10
-10.06195
 20
-16.26226
 30
0.0
 10
-10.06675
 20
-16.2562
 30
0.0
 10
-10.07274
 20
-16.25069
 30
0.0
 10
-10.07274
 20
-16.25069
 30
0.0
 10
-10.07874
 20
-16.24526
 30
0.0
 10
-10.08615
 20
-16.24089
 30
0.0
 10
-10.09497
 20
-16.23757
 30
0.0
 10
-10.09497
 20
-16.23757
 30
0.0
 10
-10.10379
 20
-16.23425
 30
0.0
 10
-10.11416
 20
-16.23256
 30
0.0
 10
-10.12615
 20
-16.23249
 30
0.0
 10
-10.12615
 20
-16.23249
 30
0.0
 10
-10.13822
 20
-16.23256
 30
0.0
 10
-10.14887
 20
-16.23425
 30
0.0
 10
-10.15805
 20
-16.2375
 30
0.0
 10
-10.15805
 20
-16.2375
 30
0.0
 10
-10.16722
 20
-16.24074
 30
0.0
 10
-10.17505
 20
-16.24526
 30
0.0
 10
-10.18154
 20
-16.25097
 30
0.0
 10
-10.18154
 20
-16.25097
 30
0.0
 10
-10.18803
 20
-16.25669
 30
0.0
 10
-10.19325
 20
-16.26332
 30
0.0
 10
-10.19734
 20
-16.27073
 30
0.0
 10
-10.19734
 20
-16.27073
 30
0.0
 10
-10.20144
 20
-16.27814
 30
0.0
 10
-10.2044
 20
-16.28604
 30
0.0
 10
-10.2063
 20
-16.29437
 30
0.0
 10
-10.2063
 20
-16.29437
 30
0.0
 10
-10.20821
 20
-16.30269
 30
0.0
 10
-10.20913
 20
-16.31116
 30
0.0
 10
-10.20913
 20
-16.3197
 30
0.0
 10
-10.20913
 20
-16.3197
 30
0.0
 10
-10.20913
 20
-16.31116
 30
0.0
 10
-10.20821
 20
-16.30269
 30
0.0
 10
-10.2063
 20
-16.29437
 30
0.0
 10
-10.2063
 20
-16.29437
 30
0.0
 10
-10.2044
 20
-16.28604
 30
0.0
 10
-10.20144
 20
-16.27814
 30
0.0
 10
-10.19734
 20
-16.27073
 30
0.0
 10
-10.19734
 20
-16.27073
 30
0.0
 10
-10.19325
 20
-16.26332
 30
0.0
 10
-10.18803
 20
-16.25669
 30
0.0
 10
-10.18154
 20
-16.25097
 30
0.0
 10
-10.18154
 20
-16.25097
 30
0.0
 10
-10.17505
 20
-16.24526
 30
0.0
 10
-10.16722
 20
-16.24074
 30
0.0
 10
-10.15805
 20
-16.2375
 30
0.0
 10
-10.15805
 20
-16.2375
 30
0.0
 10
-10.14887
 20
-16.23425
 30
0.0
 10
-10.13822
 20
-16.23256
 30
0.0
 10
-10.12615
 20
-16.23249
 30
0.0
 10
-10.12615
 20
-16.23249
 30
0.0
 10
-10.11416
 20
-16.23256
 30
0.0
 10
-10.10379
 20
-16.23425
 30
0.0
 10
-10.09497
 20
-16.23757
 30
0.0
 10
-10.09497
 20
-16.23757
 30
0.0
 10
-10.08615
 20
-16.24089
 30
0.0
 10
-10.07874
 20
-16.24526
 30
0.0
 10
-10.07274
 20
-16.25069
 30
0.0
 10
-10.07274
 20
-16.25069
 30
0.0
 10
-10.06675
 20
-16.2562
 30
0.0
 10
-10.06195
 20
-16.26226
 30
0.0
 10
-10.05835
 20
-16.2689
 30
0.0
 10
-10.05835
 20
-16.2689
 30
0.0
 10
-10.05475
 20
-16.27553
 30
0.0
 10
-10.05221
 20
-16.28223
 30
0.0
 10
-10.05059
 20
-16.28893
 30
0.0
 10
-10.05059
 20
-16.28893
 30
0.0
 10
-10.04904
 20
-16.29571
 30
0.0
 10
-10.04826
 20
-16.30199
 30
0.0
 10
-10.04826
 20
-16.30784
 30
0.0
 10
-10.04826
 20
-16.30784
 30
0.0
 10
-10.04819
 20
-16.31497
 30
0.0
 10
-10.04833
 20
-16.32209
 30
0.0
 10
-10.04869
 20
-16.32922
 30
0.0
 10
-10.04869
 20
-16.32922
 30
0.0
 10
-10.04904
 20
-16.33628
 30
0.0
 10
-10.0501
 20
-16.34326
 30
0.0
 10
-10.05179
 20
-16.35003
 30
0.0
 10
-10.05179
 20
-16.35003
 30
0.0
 10
-10.05355
 20
-16.35688
 30
0.0
 10
-10.05645
 20
-16.36337
 30
0.0
 10
-10.06061
 20
-16.36951
 30
0.0
 10
-10.06061
 20
-16.36951
 30
0.0
 10
-10.0647
 20
-16.37565
 30
0.0
 10
-10.07049
 20
-16.38136
 30
0.0
 10
-10.07789
 20
-16.38658
 30
0.0
 10
-10.07789
 20
-16.38658
 30
0.0
 10
-10.07789
 20
-16.38658
 30
0.0
 10
-10.15028
 20
-16.43484
 30
0.0
 10
-10.15028
 20
-16.43484
 30
0.0
 10
-10.15028
 20
-16.43484
 30
0.0
 10
-10.15755
 20
-16.4395
 30
0.0
 10
-10.16454
 20
-16.44422
 30
0.0
 10
-10.17131
 20
-16.44895
 30
0.0
 10
-10.17131
 20
-16.44895
 30
0.0
 10
-10.17808
 20
-16.45375
 30
0.0
 10
-10.18436
 20
-16.45883
 30
0.0
 10
-10.19022
 20
-16.4644
 30
0.0
 10
-10.19022
 20
-16.4644
 30
0.0
 10
-10.19607
 20
-16.46991
 30
0.0
 10
-10.20122
 20
-16.47619
 30
0.0
 10
-10.20574
 20
-16.48324
 30
0.0
 10
-10.20574
 20
-16.48324
 30
0.0
 10
-10.21019
 20
-16.4903
 30
0.0
 10
-10.21378
 20
-16.49848
 30
0.0
 10
-10.21646
 20
-16.50779
 30
0.0
 10
-10.21646
 20
-16.50779
 30
0.0
 10
-10.21908
 20
-16.51711
 30
0.0
 10
-10.22063
 20
-16.52797
 30
0.0
 10
-10.22098
 20
-16.54025
 30
0.0
 10
-10.22098
 20
-16.54025
 30
0.0
 10
-10.22098
 20
-16.54025
 30
0.0
 10
-10.03937
 20
-16.54025
 30
0.0
 10
-10.03937
 20
-16.54025
 30
0.0
  0
SPLINE
  5
7F
330
1F
100
AcDbEntity
  8
Layer 1
 62
     5
370
    53
100
AcDbSpline
210
0.0
220
0.0
230
1.0
 70
    11
 71
     3
 72
    52
 73
    48
 74
     0
 42
0.0000000001
 43
0.0000000001
 40
0.0
 40
0.0
 40
0.0
 40
0.0
 40
0.0833333333333333
 40
0.0833333333333333
 40
0.0833333333333333
 40
0.0833333333333333
 40
0.1666666666666667
 40
0.1666666666666667
 40
0.1666666666666667
 40
0.1666666666666667
 40
0.25
 40
0.25
 40
0.25
 40
0.25
 40
0.3333333333333333
 40
0.3333333333333333
 40
0.3333333333333333
 40
0.3333333333333333
 40
0.4166666666666666
 40
0.4166666666666666
 40
0.4166666666666666
 40
0.4166666666666666
 40
0.4999999999999999
 40
0.4999999999999999
 40
0.4999999999999999
 40
0.4999999999999999
 40
0.5833333333333333
 40
0.5833333333333333
 40
0.5833333333333333
 40
0.5833333333333333
 40
0.6666666666666666
 40
0.6666666666666666
 40
0.6666666666666666
 40
0.6666666666666666
 40
0.75
 40
0.75
 40
0.75
 40
0.75
 40
0.8333333333333334
 40
0.8333333333333334
 40
0.8333333333333334
 40
0.8333333333333334
 40
0.9166666666666667
 40
0.9166666666666667
 40
0.9166666666666667
 40
0.9166666666666667
 40
1.0
 40
1.0
 40
1.0
 40
1.0
 10
-9.8675
 20
-16.54025
 30
0.0
 10
-9.8675
 20
-16.54025
 30
0.0
 10
-9.8675
 20
-16.23503
 30
0.0
 10
-9.8675
 20
-16.23503
 30
0.0
 10
-9.8675
 20
-16.23503
 30
0.0
 10
-9.86757
 20
-16.2454
 30
0.0
 10
-9.86941
 20
-16.25429
 30
0.0
 10
-9.87294
 20
-16.2617
 30
0.0
 10
-9.87294
 20
-16.2617
 30
0.0
 10
-9.87639
 20
-16.26918
 30
0.0
 10
-9.88098
 20
-16.27532
 30
0.0
 10
-9.88662
 20
-16.28025
 30
0.0
 10
-9.88662
 20
-16.28025
 30
0.0
 10
-9.89227
 20
-16.28519
 30
0.0
 10
-9.89834
 20
-16.28914
 30
0.0
 10
-9.90483
 20
-16.29211
 30
0.0
 10
-9.90483
 20
-16.29211
 30
0.0
 10
-9.91132
 20
-16.295
 30
0.0
 10
-9.9176
 20
-16.29719
 30
0.0
 10
-9.92367
 20
-16.29853
 30
0.0
 10
-9.92367
 20
-16.29853
 30
0.0
 10
-9.9298
 20
-16.29994
 30
0.0
 10
-9.93503
 20
-16.30079
 30
0.0
 10
-9.93947
 20
-16.30107
 30
0.0
 10
-9.93947
 20
-16.30107
 30
0.0
 10
-9.93503
 20
-16.30079
 30
0.0
 10
-9.9298
 20
-16.29994
 30
0.0
 10
-9.92367
 20
-16.29853
 30
0.0
 10
-9.92367
 20
-16.29853
 30
0.0
 10
-9.9176
 20
-16.29719
 30
0.0
 10
-9.91132
 20
-16.295
 30
0.0
 10
-9.90483
 20
-16.29211
 30
0.0
 10
-9.90483
 20
-16.29211
 30
0.0
 10
-9.89834
 20
-16.28914
 30
0.0
 10
-9.89227
 20
-16.28519
 30
0.0
 10
-9.88662
 20
-16.28025
 30
0.0
 10
-9.88662
 20
-16.28025
 30
0.0
 10
-9.88098
 20
-16.27532
 30
0.0
 10
-9.87639
 20
-16.26918
 30
0.0
 10
-9.87294
 20
-16.2617
 30
0.0
 10
-9.87294
 20
-16.2617
 30
0.0
 10
-9.86941
 20
-16.25429
 30
0.0
 10
-9.86757
 20
-16.2454
 30
0.0
 10
-9.8675
 20
-16.23503
 30
0.0
 10
-9.8675
 20
-16.23503
 30
0.0
 10
-9.8675
 20
-16.23503
 30
0.0
 10
-9.8675
 20
-16.54025
 30
0.0
 10
-9.8675
 20
-16.54025
 30
0.0
  0
SPLINE
  5
80
330
1F
100
AcDbEntity
  8
Layer 1
 62
     5
370
    53
100
AcDbSpline
210
0.0
220
0.0
230
1.0
 70
    27
 71
     3
 72
    12
 73
     8
 74
     0
 42
0.0000000001
 43
0.0000000001
 40
0.0
 40
0.0
 40
0.0
 40
0.0
 40
0.5
 40
0.5
 40
0.5
 40
0.5
 40
1.0
 40
1.0
 40
1.0
 40
1.0
 10
-9.72527
 20
-16.38065
 30
0.0
 10
-9.72527
 20
-16.38065
 30
0.0
 10
-9.60208
 20
-16.38065
 30
0.0
 10
-9.60208
 20
-16.38065
 30
0.0
 10
-9.60208
 20
-16.38065
 30
0.0
 10
-9.60208
 20
-16.38065
 30
0.0
 10
-9.72527
 20
-16.38065
 30
0.0
 10
-9.72527
 20
-16.38065
 30
0.0
  0
SPLINE
  5
81
330
1F
100
AcDbEntity
  8
Layer 1
 62
     5
370
    53
100
AcDbSpline
210
0.0
220
0.0
230
1.0
 70
    27
 71
     3
 72
    12
 73
     8
 74
     0
 42
0.0000000001
 43
0.0000000001
 40
0.0
 40
0.0
 40
0.0
 40
0.0
 40
0.5
 40
0.5
 40
0.5
 40
0.5
 40
1.0
 40
1.0
 40
1.0
 40
1.0
 10
-9.45942
 20
-16.54025
 30
0.0
 10
-9.45942
 20
-16.54025
 30
0.0
 10
-9.45942
 20
-16.23503
 30
0.0
 10
-9.45942
 20
-16.23503
 30
0.0
 10
-9.45942
 20
-16.23503
 30
0.0
 10
-9.45942
 20
-16.23503
 30
0.0
 10
-9.45942
 20
-16.54025
 30
0.0
 10
-9.45942
 20
-16.54025
 30
0.0
  0
SPLINE
  5
82
330
1F
100
AcDbEntity
  8
Layer 1
 62
     5
370
    53
100
AcDbSpline
210
0.0
220
0.0
230
1.0
 70
    11
 71
     3
 72
    84
 73
    80
 74
     0
 42
0.0000000001
 43
0.0000000001
 40
0.0
 40
0.0
 40
0.0
 40
0.0
 40
0.05
 40
0.05
 40
0.05
 40
0.05
 40
0.1
 40
0.1
 40
0.1
 40
0.1
 40
0.15
 40
0.15
 40
0.15
 40
0.15
 40
0.2
 40
0.2
 40
0.2
 40
0.2
 40
0.25
 40
0.25
 40
0.25
 40
0.25
 40
0.3
 40
0.3
 40
0.3
 40
0.3
 40
0.35
 40
0.35
 40
0.35
 40
0.35
 40
0.4
 40
0.4
 40
0.4
 40
0.4
 40
0.45
 40
0.45
 40
0.45
 40
0.45
 40
0.4999999999999999
 40
0.4999999999999999
 40
0.4999999999999999
 40
0.4999999999999999
 40
0.5499999999999999
 40
0.5499999999999999
 40
0.5499999999999999
 40
0.5499999999999999
 40
0.6
 40
0.6
 40
0.6
 40
0.6
 40
0.65
 40
0.65
 40
0.65
 40
0.65
 40
0.7000000000000001
 40
0.7000000000000001
 40
0.7000000000000001
 40
0.7000000000000001
 40
0.7500000000000001
 40
0.7500000000000001
 40
0.7500000000000001
 40
0.7500000000000001
 40
0.8000000000000002
 40
0.8000000000000002
 40
0.8000000000000002
 40
0.8000000000000002
 40
0.8500000000000002
 40
0.8500000000000002
 40
0.8500000000000002
 40
0.8500000000000002
 40
0.9000000000000002
 40
0.9000000000000002
 40
0.9000000000000002
 40
0.9000000000000002
 40
0.9500000000000003
 40
0.9500000000000003
 40
0.9500000000000003
 40
0.9500000000000003
 40
1.0
 40
1.0
 40
1.0
 40
1.0
 10
-9.22616
 20
-16.54025
 30
0.0
 10
-9.21135
 20
-16.54018
 30
0.0
 10
-9.19858
 20
-16.53757
 30
0.0
 10
-9.18792
 20
-16.53249
 30
0.0
 10
-9.18792
 20
-16.53249
 30
0.0
 10
-9.17734
 20
-16.52741
 30
0.0
 10
-9.16852
 20
-16.52014
 30
0.0
 10
-9.16147
 20
-16.5109
 30
0.0
 10
-9.16147
 20
-16.5109
 30
0.0
 10
-9.15448
 20
-16.50159
 30
0.0
 10
-9.14898
 20
-16.49058
 30
0.0
 10
-9.14489
 20
-16.47788
 30
0.0
 10
-9.14489
 20
-16.47788
 30
0.0
 10
-9.14086
 20
-16.46518
 30
0.0
 10
-9.13797
 20
-16.45128
 30
0.0
 10
-9.13635
 20
-16.43604
 30
0.0
 10
-9.13635
 20
-16.43604
 30
0.0
 10
-9.13465
 20
-16.4208
 30
0.0
 10
-9.13381
 20
-16.40478
 30
0.0
 10
-9.13388
 20
-16.38785
 30
0.0
 10
-9.13388
 20
-16.38785
 30
0.0
 10
-9.13381
 20
-16.37099
 30
0.0
 10
-9.13465
 20
-16.35497
 30
0.0
 10
-9.13635
 20
-16.3398
 30
0.0
 10
-9.13635
 20
-16.3398
 30
0.0
 10
-9.13797
 20
-16.32463
 30
0.0
 10
-9.14086
 20
-16.31066
 30
0.0
 10
-9.14489
 20
-16.29796
 30
0.0
 10
-9.14489
 20
-16.29796
 30
0.0
 10
-9.14898
 20
-16.28533
 30
0.0
 10
-9.15448
 20
-16.27433
 30
0.0
 10
-9.16147
 20
-16.26494
 30
0.0
 10
-9.16147
 20
-16.26494
 30
0.0
 10
-9.16852
 20
-16.25563
 30
0.0
 10
-9.17734
 20
-16.24836
 30
0.0
 10
-9.18792
 20
-16.24328
 30
0.0
 10
-9.18792
 20
-16.24328
 30
0.0
 10
-9.19858
 20
-16.23813
 30
0.0
 10
-9.21135
 20
-16.23552
 30
0.0
 10
-9.22616
 20
-16.23545
 30
0.0
 10
-9.22616
 20
-16.23545
 30
0.0
 10
-9.24098
 20
-16.23552
 30
0.0
 10
-9.25375
 20
-16.23813
 30
0.0
 10
-9.26441
 20
-16.24328
 30
0.0
 10
-9.26441
 20
-16.24328
 30
0.0
 10
-9.27499
 20
-16.24836
 30
0.0
 10
-9.28381
 20
-16.25563
 30
0.0
 10
-9.29086
 20
-16.26494
 30
0.0
 10
-9.29086
 20
-16.26494
 30
0.0
 10
-9.29785
 20
-16.27433
 30
0.0
 10
-9.30335
 20
-16.28533
 30
0.0
 10
-9.30744
 20
-16.29796
 30
0.0
 10
-9.30744
 20
-16.29796
 30
0.0
 10
-9.31147
 20
-16.31066
 30
0.0
 10
-9.31436
 20
-16.32463
 30
0.0
 10
-9.31598
 20
-16.3398
 30
0.0
 10
-9.31598
 20
-16.3398
 30
0.0
 10
-9.31767
 20
-16.35497
 30
0.0
 10
-9.31852
 20
-16.37099
 30
0.0
 10
-9.31845
 20
-16.38785
 30
0.0
 10
-9.31845
 20
-16.38785
 30
0.0
 10
-9.31852
 20
-16.40478
 30
0.0
 10
-9.31767
 20
-16.4208
 30
0.0
 10
-9.31598
 20
-16.43604
 30
0.0
 10
-9.31598
 20
-16.43604
 30
0.0
 10
-9.31436
 20
-16.45128
 30
0.0
 10
-9.31147
 20
-16.46518
 30
0.0
 10
-9.30744
 20
-16.47788
 30
0.0
 10
-9.30744
 20
-16.47788
 30
0.0
 10
-9.30335
 20
-16.49058
 30
0.0
 10
-9.29785
 20
-16.50159
 30
0.0
 10
-9.29086
 20
-16.5109
 30
0.0
 10
-9.29086
 20
-16.5109
 30
0.0
 10
-9.28381
 20
-16.52014
 30
0.0
 10
-9.27499
 20
-16.52741
 30
0.0
 10
-9.26441
 20
-16.53249
 30
0.0
 10
-9.26441
 20
-16.53249
 30
0.0
 10
-9.25375
 20
-16.53757
 30
0.0
 10
-9.24098
 20
-16.54018
 30
0.0
 10
-9.22616
 20
-16.54025
 30
0.0
  0
SPLINE
  5
83
330
1F
100
AcDbEntity
  8
Layer 1
 62
     5
370
    53
100
AcDbSpline
210
0.0
220
0.0
230
1.0
 70
    11
 71
     3
 72
    84
 73
    80
 74
     0
 42
0.0000000001
 43
0.0000000001
 40
0.0
 40
0.0
 40
0.0
 40
0.0
 40
0.05
 40
0.05
 40
0.05
 40
0.05
 40
0.1
 40
0.1
 40
0.1
 40
0.1
 40
0.15
 40
0.15
 40
0.15
 40
0.15
 40
0.2
 40
0.2
 40
0.2
 40
0.2
 40
0.25
 40
0.25
 40
0.25
 40
0.25
 40
0.3
 40
0.3
 40
0.3
 40
0.3
 40
0.35
 40
0.35
 40
0.35
 40
0.35
 40
0.4
 40
0.4
 40
0.4
 40
0.4
 40
0.45
 40
0.45
 40
0.45
 40
0.45
 40
0.4999999999999999
 40
0.4999999999999999
 40
0.4999999999999999
 40
0.4999999999999999
 40
0.5499999999999999
 40
0.5499999999999999
 40
0.5499999999999999
 40
0.5499999999999999
 40
0.6
 40
0.6
 40
0.6
 40
0.6
 40
0.65
 40
0.65
 40
0.65
 40
0.65
 40
0.7000000000000001
 40
0.7000000000000001
 40
0.7000000000000001
 40
0.7000000000000001
 40
0.7500000000000001
 40
0.7500000000000001
 40
0.7500000000000001
 40
0.7500000000000001
 40
0.8000000000000002
 40
0.8000000000000002
 40
0.8000000000000002
 40
0.8000000000000002
 40
0.8500000000000002
 40
0.8500000000000002
 40
0.8500000000000002
 40
0.8500000000000002
 40
0.9000000000000002
 40
0.9000000000000002
 40
0.9000000000000002
 40
0.9000000000000002
 40
0.9500000000000003
 40
0.9500000000000003
 40
0.9500000000000003
 40
0.9500000000000003
 40
1.0
 40
1.0
 40
1.0
 40
1.0
 10
-9.22616
 20
-16.54025
 30
0.0
 10
-9.21135
 20
-16.54018
 30
0.0
 10
-9.19858
 20
-16.53757
 30
0.0
 10
-9.18792
 20
-16.53249
 30
0.0
 10
-9.18792
 20
-16.53249
 30
0.0
 10
-9.17734
 20
-16.52741
 30
0.0
 10
-9.16852
 20
-16.52014
 30
0.0
 10
-9.16147
 20
-16.5109
 30
0.0
 10
-9.16147
 20
-16.5109
 30
0.0
 10
-9.15448
 20
-16.50159
 30
0.0
 10
-9.14898
 20
-16.49058
 30
0.0
 10
-9.14489
 20
-16.47788
 30
0.0
 10
-9.14489
 20
-16.47788
 30
0.0
 10
-9.14086
 20
-16.46518
 30
0.0
 10
-9.13797
 20
-16.45128
 30
0.0
 10
-9.13635
 20
-16.43604
 30
0.0
 10
-9.13635
 20
-16.43604
 30
0.0
 10
-9.13465
 20
-16.4208
 30
0.0
 10
-9.13381
 20
-16.40478
 30
0.0
 10
-9.13388
 20
-16.38785
 30
0.0
 10
-9.13388
 20
-16.38785
 30
0.0
 10
-9.13381
 20
-16.37099
 30
0.0
 10
-9.13465
 20
-16.35497
 30
0.0
 10
-9.13635
 20
-16.3398
 30
0.0
 10
-9.13635
 20
-16.3398
 30
0.0
 10
-9.13797
 20
-16.32463
 30
0.0
 10
-9.14086
 20
-16.31066
 30
0.0
 10
-9.14489
 20
-16.29796
 30
0.0
 10
-9.14489
 20
-16.29796
 30
0.0
 10
-9.14898
 20
-16.28533
 30
0.0
 10
-9.15448
 20
-16.27433
 30
0.0
 10
-9.16147
 20
-16.26494
 30
0.0
 10
-9.16147
 20
-16.26494
 30
0.0
 10
-9.16852
 20
-16.25563
 30
0.0
 10
-9.17734
 20
-16.24836
 30
0.0
 10
-9.18792
 20
-16.24328
 30
0.0
 10
-9.18792
 20
-16.24328
 30
0.0
 10
-9.19858
 20
-16.23813
 30
0.0
 10
-9.21135
 20
-16.23552
 30
0.0
 10
-9.22616
 20
-16.23545
 30
0.0
 10
-9.22616
 20
-16.23545
 30
0.0
 10
-9.24098
 20
-16.23552
 30
0.0
 10
-9.25375
 20
-16.23813
 30
0.0
 10
-9.26441
 20
-16.24328
 30
0.0
 10
-9.26441
 20
-16.24328
 30
0.0
 10
-9.27499
 20
-16.24836
 30
0.0
 10
-9.28381
 20
-16.25563
 30
0.0
 10
-9.29086
 20
-16.26494
 30
0.0
 10
-9.29086
 20
-16.26494
 30
0.0
 10
-9.29785
 20
-16.27433
 30
0.0
 10
-9.30335
 20
-16.28533
 30
0.0
 10
-9.30744
 20
-16.29796
 30
0.0
 10
-9.30744
 20
-16.29796
 30
0.0
 10
-9.31147
 20
-16.31066
 30
0.0
 10
-9.31436
 20
-16.32463
 30
0.0
 10
-9.31598
 20
-16.3398
 30
0.0
 10
-9.31598
 20
-16.3398
 30
0.0
 10
-9.31767
 20
-16.35497
 30
0.0
 10
-9.31852
 20
-16.37099
 30
0.0
 10
-9.31845
 20
-16.38785
 30
0.0
 10
-9.31845
 20
-16.38785
 30
0.0
 10
-9.31852
 20
-16.40478
 30
0.0
 10
-9.31767
 20
-16.4208
 30
0.0
 10
-9.31598
 20
-16.43604
 30
0.0
 10
-9.31598
 20
-16.43604
 30
0.0
 10
-9.31436
 20
-16.45128
 30
0.0
 10
-9.31147
 20
-16.46518
 30
0.0
 10
-9.30744
 20
-16.47788
 30
0.0
 10
-9.30744
 20
-16.47788
 30
0.0
 10
-9.30335
 20
-16.49058
 30
0.0
 10
-9.29785
 20
-16.50159
 30
0.0
 10
-9.29086
 20
-16.5109
 30
0.0
 10
-9.29086
 20
-16.5109
 30
0.0
 10
-9.28381
 20
-16.52014
 30
0.0
 10
-9.27499
 20
-16.52741
 30
0.0
 10
-9.26441
 20
-16.53249
 30
0.0
 10
-9.26441
 20
-16.53249
 30
0.0
 10
-9.25375
 20
-16.53757
 30
0.0
 10
-9.24098
 20
-16.54018
 30
0.0
 10
-9.22616
 20
-16.54025
 30
0.0
  0
SPLINE
  5
84
330
1F
100
AcDbEntity
  8
Layer 1
 62
     5
370
    53
100
AcDbSpline
210
0.0
220
0.0
230
1.0
 70
    11
 71
     3
 72
   180
 73
   176
 74
     0
 42
0.0000000001
 43
0.0000000001
 40
0.0
 40
0.0
 40
0.0
 40
0.0
 40
0.0227272727272727
 40
0.0227272727272727
 40
0.0227272727272727
 40
0.0227272727272727
 40
0.0454545454545455
 40
0.0454545454545455
 40
0.0454545454545455
 40
0.0454545454545455
 40
0.0681818181818182
 40
0.0681818181818182
 40
0.0681818181818182
 40
0.0681818181818182
 40
0.0909090909090909
 40
0.0909090909090909
 40
0.0909090909090909
 40
0.0909090909090909
 40
0.1136363636363636
 40
0.1136363636363636
 40
0.1136363636363636
 40
0.1136363636363636
 40
0.1363636363636364
 40
0.1363636363636364
 40
0.1363636363636364
 40
0.1363636363636364
 40
0.1590909090909091
 40
0.1590909090909091
 40
0.1590909090909091
 40
0.1590909090909091
 40
0.1818181818181819
 40
0.1818181818181819
 40
0.1818181818181819
 40
0.1818181818181819
 40
0.2045454545454546
 40
0.2045454545454546
 40
0.2045454545454546
 40
0.2045454545454546
 40
0.2272727272727273
 40
0.2272727272727273
 40
0.2272727272727273
 40
0.2272727272727273
 40
0.2500000000000001
 40
0.2500000000000001
 40
0.2500000000000001
 40
0.2500000000000001
 40
0.2727272727272728
 40
0.2727272727272728
 40
0.2727272727272728
 40
0.2727272727272728
 40
0.2954545454545455
 40
0.2954545454545455
 40
0.2954545454545455
 40
0.2954545454545455
 40
0.3181818181818182
 40
0.3181818181818182
 40
0.3181818181818182
 40
0.3181818181818182
 40
0.3409090909090909
 40
0.3409090909090909
 40
0.3409090909090909
 40
0.3409090909090909
 40
0.3636363636363636
 40
0.3636363636363636
 40
0.3636363636363636
 40
0.3636363636363636
 40
0.3863636363636363
 40
0.3863636363636363
 40
0.3863636363636363
 40
0.3863636363636363
 40
0.409090909090909
 40
0.409090909090909
 40
0.409090909090909
 40
0.409090909090909
 40
0.4318181818181817
 40
0.4318181818181817
 40
0.4318181818181817
 40
0.4318181818181817
 40
0.4545454545454544
 40
0.4545454545454544
 40
0.4545454545454544
 40
0.4545454545454544
 40
0.4772727272727271
 40
0.4772727272727271
 40
0.4772727272727271
 40
0.4772727272727271
 40
0.4999999999999998
 40
0.4999999999999998
 40
0.4999999999999998
 40
0.4999999999999998
 40
0.5227272727272726
 40
0.5227272727272726
 40
0.5227272727272726
 40
0.5227272727272726
 40
0.5454545454545453
 40
0.5454545454545453
 40
0.5454545454545453
 40
0.5454545454545453
 40
0.568181818181818
 40
0.568181818181818
 40
0.568181818181818
 40
0.568181818181818
 40
0.5909090909090907
 40
0.5909090909090907
 40
0.5909090909090907
 40
0.5909090909090907
 40
0.6136363636363634
 40
0.6136363636363634
 40
0.6136363636363634
 40
0.6136363636363634
 40
0.6363636363636361
 40
0.6363636363636361
 40
0.6363636363636361
 40
0.6363636363636361
 40
0.6590909090909088
 40
0.6590909090909088
 40
0.6590909090909088
 40
0.6590909090909088
 40
0.6818181818181815
 40
0.6818181818181815
 40
0.6818181818181815
 40
0.6818181818181815
 40
0.7045454545454543
 40
0.7045454545454543
 40
0.7045454545454543
 40
0.7045454545454543
 40
0.727272727272727
 40
0.727272727272727
 40
0.727272727272727
 40
0.727272727272727
 40
0.7499999999999997
 40
0.7499999999999997
 40
0.7499999999999997
 40
0.7499999999999997
 40
0.7727272727272724
 40
0.7727272727272724
 40
0.7727272727272724
 40
0.7727272727272724
 40
0.7954545454545451
 40
0.7954545454545451
 40
0.7954545454545451
 40
0.7954545454545451
 40
0.8181818181818178
 40
0.8181818181818178
 40
0.8181818181818178
 40
0.8181818181818178
 40
0.8409090909090905
 40
0.8409090909090905
 40
0.8409090909090905
 40
0.8409090909090905
 40
0.8636363636363632
 40
0.8636363636363632
 40
0.8636363636363632
 40
0.8636363636363632
 40
0.8863636363636359
 40
0.8863636363636359
 40
0.8863636363636359
 40
0.8863636363636359
 40
0.9090909090909086
 40
0.9090909090909086
 40
0.9090909090909086
 40
0.9090909090909086
 40
0.9318181818181813
 40
0.9318181818181813
 40
0.9318181818181813
 40
0.9318181818181813
 40
0.954545454545454
 40
0.954545454545454
 40
0.954545454545454
 40
0.954545454545454
 40
0.9772727272727267
 40
0.9772727272727267
 40
0.9772727272727267
 40
0.9772727272727267
 40
1.0
 40
1.0
 40
1.0
 40
1.0
 10
-9.03355
 20
-16.46363
 30
0.0
 10
-9.03348
 20
-16.47887
 30
0.0
 10
-9.02995
 20
-16.49213
 30
0.0
 10
-9.02297
 20
-16.50363
 30
0.0
 10
-9.02297
 20
-16.50363
 30
0.0
 10
-9.01598
 20
-16.51506
 30
0.0
 10
-9.00603
 20
-16.52402
 30
0.0
 10
-8.99305
 20
-16.53044
 30
0.0
 10
-8.99305
 20
-16.53044
 30
0.0
 10
-8.98007
 20
-16.53686
 30
0.0
 10
-8.96448
 20
-16.54011
 30
0.0
 10
-8.94634
 20
-16.54025
 30
0.0
 10
-8.94634
 20
-16.54025
 30
0.0
 10
-8.93273
 20
-16.54025
 30
0.0
 10
-8.92038
 20
-16.53884
 30
0.0
 10
-8.90916
 20
-16.53588
 30
0.0
 10
-8.90916
 20
-16.53588
 30
0.0
 10
-8.89801
 20
-16.53291
 30
0.0
 10
-8.88842
 20
-16.52833
 30
0.0
 10
-8.8803
 20
-16.52205
 30
0.0
 10
-8.8803
 20
-16.52205
 30
0.0
 10
-8.87219
 20
-16.51577
 30
0.0
 10
-8.86598
 20
-16.50765
 30
0.0
 10
-8.86154
 20
-16.49778
 30
0.0
 10
-8.86154
 20
-16.49778
 30
0.0
 10
-8.85716
 20
-16.48783
 30
0.0
 10
-8.85498
 20
-16.4759
 30
0.0
 10
-8.85491
 20
-16.46193
 30
0.0
 10
-8.85491
 20
-16.46193
 30
0.0
 10
-8.85483
 20
-16.44331
 30
0.0
 10
-8.85864
 20
-16.42757
 30
0.0
 10
-8.86619
 20
-16.4148
 30
0.0
 10
-8.86619
 20
-16.4148
 30
0.0
 10
-8.87374
 20
-16.40203
 30
0.0
 10
-8.88546
 20
-16.39244
 30
0.0
 10
-8.90119
 20
-16.38588
 30
0.0
 10
-8.90119
 20
-16.38588
 30
0.0
 10
-8.91692
 20
-16.37931
 30
0.0
 10
-8.9371
 20
-16.376
 30
0.0
 10
-8.96158
 20
-16.376
 30
0.0
 10
-8.96158
 20
-16.376
 30
0.0
 10
-8.94331
 20
-16.37607
 30
0.0
 10
-8.928
 20
-16.37438
 30
0.0
 10
-8.91551
 20
-16.37092
 30
0.0
 10
-8.91551
 20
-16.37092
 30
0.0
 10
-8.90309
 20
-16.36746
 30
0.0
 10
-8.89315
 20
-16.36259
 30
0.0
 10
-8.88567
 20
-16.35624
 30
0.0
 10
-8.88567
 20
-16.35624
 30
0.0
 10
-8.87819
 20
-16.34996
 30
0.0
 10
-8.87276
 20
-16.34248
 30
0.0
 10
-8.86951
 20
-16.33388
 30
0.0
 10
-8.86951
 20
-16.33388
 30
0.0
 10
-8.86619
 20
-16.32534
 30
0.0
 10
-8.86457
 20
-16.31596
 30
0.0
 10
-8.86464
 20
-16.30573
 30
0.0
 10
-8.86464
 20
-16.30573
 30
0.0
 10
-8.86457
 20
-16.29549
 30
0.0
 10
-8.86598
 20
-16.28604
 30
0.0
 10
-8.8688
 20
-16.27729
 30
0.0
 10
-8.8688
 20
-16.27729
 30
0.0
 10
-8.87156
 20
-16.26854
 30
0.0
 10
-8.87607
 20
-16.26085
 30
0.0
 10
-8.88221
 20
-16.25429
 30
0.0
 10
-8.88221
 20
-16.25429
 30
0.0
 10
-8.88835
 20
-16.24773
 30
0.0
 10
-8.89646
 20
-16.24258
 30
0.0
 10
-8.90641
 20
-16.23891
 30
0.0
 10
-8.90641
 20
-16.23891
 30
0.0
 10
-8.91643
 20
-16.23524
 30
0.0
 10
-8.92864
 20
-16.23341
 30
0.0
 10
-8.94296
 20
-16.23334
 30
0.0
 10
-8.94296
 20
-16.23334
 30
0.0
 10
-8.95721
 20
-16.23341
 30
0.0
 10
-8.9697
 20
-16.23552
 30
0.0
 10
-8.98028
 20
-16.23962
 30
0.0
 10
-8.98028
 20
-16.23962
 30
0.0
 10
-8.99094
 20
-16.24371
 30
0.0
 10
-8.99968
 20
-16.24928
 30
0.0
 10
-9.00674
 20
-16.25641
 30
0.0
 10
-9.00674
 20
-16.25641
 30
0.0
 10
-9.01372
 20
-16.26353
 30
0.0
 10
-9.01895
 20
-16.27165
 30
0.0
 10
-9.0224
 20
-16.28082
 30
0.0
 10
-9.0224
 20
-16.28082
 30
0.0
 10
-9.02593
 20
-16.28999
 30
0.0
 10
-9.02762
 20
-16.29973
 30
0.0
 10
-9.02762
 20
-16.30996
 30
0.0
 10
-9.02762
 20
-16.30996
 30
0.0
 10
-9.02762
 20
-16.29973
 30
0.0
 10
-9.02593
 20
-16.28999
 30
0.0
 10
-9.0224
 20
-16.28082
 30
0.0
 10
-9.0224
 20
-16.28082
 30
0.0
 10
-9.01895
 20
-16.27165
 30
0.0
 10
-9.01372
 20
-16.26353
 30
0.0
 10
-9.00674
 20
-16.25641
 30
0.0
 10
-9.00674
 20
-16.25641
 30
0.0
 10
-8.99968
 20
-16.24928
 30
0.0
 10
-8.99094
 20
-16.24371
 30
0.0
 10
-8.98028
 20
-16.23962
 30
0.0
 10
-8.98028
 20
-16.23962
 30
0.0
 10
-8.9697
 20
-16.23552
 30
0.0
 10
-8.95721
 20
-16.23341
 30
0.0
 10
-8.94296
 20
-16.23334
 30
0.0
 10
-8.94296
 20
-16.23334
 30
0.0
 10
-8.92864
 20
-16.23341
 30
0.0
 10
-8.91643
 20
-16.23524
 30
0.0
 10
-8.90641
 20
-16.23891
 30
0.0
 10
-8.90641
 20
-16.23891
 30
0.0
 10
-8.89646
 20
-16.24258
 30
0.0
 10
-8.88835
 20
-16.24773
 30
0.0
 10
-8.88221
 20
-16.25429
 30
0.0
 10
-8.88221
 20
-16.25429
 30
0.0
 10
-8.87607
 20
-16.26085
 30
0.0
 10
-8.87156
 20
-16.26854
 30
0.0
 10
-8.8688
 20
-16.27729
 30
0.0
 10
-8.8688
 20
-16.27729
 30
0.0
 10
-8.86598
 20
-16.28604
 30
0.0
 10
-8.86457
 20
-16.29549
 30
0.0
 10
-8.86464
 20
-16.30573
 30
0.0
 10
-8.86464
 20
-16.30573
 30
0.0
 10
-8.86457
 20
-16.31596
 30
0.0
 10
-8.86619
 20
-16.32534
 30
0.0
 10
-8.86951
 20
-16.33388
 30
0.0
 10
-8.86951
 20
-16.33388
 30
0.0
 10
-8.87276
 20
-16.34248
 30
0.0
 10
-8.87819
 20
-16.34996
 30
0.0
 10
-8.88567
 20
-16.35624
 30
0.0
 10
-8.88567
 20
-16.35624
 30
0.0
 10
-8.89315
 20
-16.36259
 30
0.0
 10
-8.90309
 20
-16.36746
 30
0.0
 10
-8.91551
 20
-16.37092
 30
0.0
 10
-8.91551
 20
-16.37092
 30
0.0
 10
-8.928
 20
-16.37438
 30
0.0
 10
-8.94331
 20
-16.37607
 30
0.0
 10
-8.96158
 20
-16.376
 30
0.0
 10
-8.96158
 20
-16.376
 30
0.0
 10
-8.9371
 20
-16.376
 30
0.0
 10
-8.91692
 20
-16.37931
 30
0.0
 10
-8.90119
 20
-16.38588
 30
0.0
 10
-8.90119
 20
-16.38588
 30
0.0
 10
-8.88546
 20
-16.39244
 30
0.0
 10
-8.87374
 20
-16.40203
 30
0.0
 10
-8.86619
 20
-16.4148
 30
0.0
 10
-8.86619
 20
-16.4148
 30
0.0
 10
-8.85864
 20
-16.42757
 30
0.0
 10
-8.85483
 20
-16.44331
 30
0.0
 10
-8.85491
 20
-16.46193
 30
0.0
 10
-8.85491
 20
-16.46193
 30
0.0
 10
-8.85498
 20
-16.4759
 30
0.0
 10
-8.85716
 20
-16.48783
 30
0.0
 10
-8.86154
 20
-16.49778
 30
0.0
 10
-8.86154
 20
-16.49778
 30
0.0
 10
-8.86598
 20
-16.50765
 30
0.0
 10
-8.87219
 20
-16.51577
 30
0.0
 10
-8.8803
 20
-16.52205
 30
0.0
 10
-8.8803
 20
-16.52205
 30
0.0
 10
-8.88842
 20
-16.52833
 30
0.0
 10
-8.89801
 20
-16.53291
 30
0.0
 10
-8.90916
 20
-16.53588
 30
0.0
 10
-8.90916
 20
-16.53588
 30
0.0
 10
-8.92038
 20
-16.53884
 30
0.0
 10
-8.93273
 20
-16.54025
 30
0.0
 10
-8.94634
 20
-16.54025
 30
0.0
 10
-8.94634
 20
-16.54025
 30
0.0
 10
-8.96448
 20
-16.54011
 30
0.0
 10
-8.98007
 20
-16.53686
 30
0.0
 10
-8.99305
 20
-16.53044
 30
0.0
 10
-8.99305
 20
-16.53044
 30
0.0
 10
-9.00603
 20
-16.52402
 30
0.0
 10
-9.01598
 20
-16.51506
 30
0.0
 10
-9.02297
 20
-16.50363
 30
0.0
 10
-9.02297
 20
-16.50363
 30
0.0
 10
-9.02995
 20
-16.49213
 30
0.0
 10
-9.03348
 20
-16.47887
 30
0.0
 10
-9.03355
 20
-16.46363
 30
0.0
  0
ELLIPSE
  5
85
330
1F
100
AcDbEntity
  8
Layer 1
370
    53
100
AcDbEllipse
 10
-10.5
 20
-14.85
 30
0.0
 11
0.0
 21
0.381
 31
0.0
210
0.0
220
0.0
230
1.0
 40
1.0
 41
0.0
 42
6.283185307179586
  0
ELLIPSE
  5
86
330
1F
100
AcDbEntity
  8
Layer 1
370
    53
100
AcDbEllipse
 10
-10.5
 20
-12.85
 30
0.0
 11
0.0
 21
0.2225
 31
0.0
210
0.0
220
0.0
230
1.0
 40
1.0
 41
0.0
 42
6.283185307179586
  0
ELLIPSE
  5
87
330
1F
100
AcDbEntity
  8
Layer 1
370
    53
100
AcDbEllipse
 10
-10.5
 20
-16.85
 30
0.0
 11
0.0
 21
0.2225
 31
0.0
210
0.0
220
0.0
230
1.0
 40
1.0
 41
0.0
 42
6.283185307179586
  0
ENDSEC
  0
SECTION
  2
OBJECTS
  0
DICTIONARY
  5
C
330
0
100
AcDbDictionary
281
     1
  3
ACAD_GROUP
350
D
  3
ACAD_LAYOUT
350
1A
  3
ACAD_MLEADERSTYLE
350
89
  3
ACAD_MLINESTYLE
350
17
  3
ACAD_PLOTSETTINGS
350
19
  3
ACAD_PLOTSTYLENAME
350
E
  3
ACAD_SCALELIST
350
3B
  3
ACAD_TABLESTYLE
350
88
  3
ACAD_VISUALSTYLE
350
2A
  0
DICTIONARY
  5
D
102
{ACAD_REACTORS
330
C
102
}
330
C
100
AcDbDictionary
281
     1
  0
DICTIONARY
  5
1A
102
{ACAD_REACTORS
330
C
102
}
330
C
100
AcDbDictionary
281
     1
  3
Layout1
350
1E
  3
Layout2
350
26
  3
Model
350
22
  0
DICTIONARY
  5
89
102
{ACAD_REACTORS
330
C
102
}
330
C
100
AcDbDictionary
281
     1
  0
DICTIONARY
  5
17
102
{ACAD_REACTORS
330
C
102
}
330
C
100
AcDbDictionary
281
     1
  3
Standard
350
18
  0
DICTIONARY
  5
19
102
{ACAD_REACTORS
330
C
102
}
330
C
100
AcDbDictionary
281
     1
  0
ACDBDICTIONARYWDFLT
  5
E
102
{ACAD_REACTORS
330
C
102
}
330
C
100
AcDbDictionary
281
     1
  3
Normal
350
F
100
AcDbDictionaryWithDefault
340
F
  0
DICTIONARY
  5
3B
102
{ACAD_REACTORS
330
C
102
}
330
C
100
AcDbDictionary
281
     1
  3
A0
350
3C
  3
A1
350
3D
  3
A2
350
3E
  3
A3
350
3F
  3
A4
350
40
  3
A5
350
41
  3
A6
350
42
  3
A7
350
43
  3
A8
350
44
  3
A9
350
45
  3
B0
350
46
  3
B1
350
47
  3
B2
350
48
  3
B3
350
49
  3
B4
350
4A
  3
B5
350
4B
  3
B6
350
4C
  3
B7
350
4D
  3
B8
350
4E
  3
B9
350
4F
  3
C0
350
50
  3
C1
350
51
  3
C2
350
52
  3
C3
350
53
  3
C4
350
54
  3
C5
350
55
  3
C6
350
56
  3
C7
350
57
  3
C8
350
58
  3
C9
350
59
  3
D0
350
5A
  3
D1
350
5B
  3
D2
350
5C
  0
DICTIONARY
  5
88
102
{ACAD_REACTORS
330
C
102
}
330
C
100
AcDbDictionary
281
     1
  0
DICTIONARY
  5
2A
102
{ACAD_REACTORS
330
C
102
}
330
C
100
AcDbDictionary
281
     1
  3
2dWireframe
350
2F
  3
3D Hidden
350
31
  3
3dWireframe
350
30
  3
Basic
350
32
  3
Brighten
350
36
  3
ColorChange
350
3A
  3
Conceptual
350
34
  3
Dim
350
35
  3
Facepattern
350
39
  3
Flat
350
2B
  3
FlatWithEdges
350
2C
  3
Gouraud
350
2D
  3
GouraudWithEdges
350
2E
  3
Linepattern
350
38
  3
Realistic
350
33
  3
Thicken
350
37
  0
LAYOUT
  5
1E
102
{ACAD_REACTORS
330
1A
102
}
330
1A
100
AcDbPlotSettings
  1

  2
none_device
  4

  6

 40
0.0
 41
0.0
 42
0.0
 43
0.0
 44
0.0
 45
0.0
 46
0.0
 47
0.0
 48
0.0
 49
0.0
140
0.0
141
0.0
142
1.0
143
1.0
 70
   688
 72
     0
 73
     0
 74
     5
  7

 75
    16
 76
     0
 77
     2
 78
   300
147
1.0
148
0.0
149
0.0
100
AcDbLayout
  1
Layout1
 70
     1
 71
     1
 10
0.0
 20
0.0
 11
12.0
 21
9.0
 12
0.0
 22
0.0
 32
0.0
 14
1.000000000000000E+20
 24
1.000000000000000E+20
 34
1.000000000000000E+20
 15
-1.000000000000000E+20
 25
-1.000000000000000E+20
 35
-1.000000000000000E+20
146
0.0
 13
0.0
 23
0.0
 33
0.0
 16
1.0
 26
0.0
 36
0.0
 17
0.0
 27
1.0
 37
0.0
 76
     0
330
1B
  0
LAYOUT
  5
26
102
{ACAD_REACTORS
330
1A
102
}
330
1A
100
AcDbPlotSettings
  1

  2
none_device
  4

  6

 40
0.0
 41
0.0
 42
0.0
 43
0.0
 44
0.0
 45
0.0
 46
0.0
 47
0.0
 48
0.0
 49
0.0
140
0.0
141
0.0
142
1.0
143
1.0
 70
   688
 72
     0
 73
     0
 74
     5
  7

 75
    16
 76
     0
 77
     2
 78
   300
147
1.0
148
0.0
149
0.0
100
AcDbLayout
  1
Layout2
 70
     1
 71
     2
 10
0.0
 20
0.0
 11
0.0
 21
0.0
 12
0.0
 22
0.0
 32
0.0
 14
0.0
 24
0.0
 34
0.0
 15
0.0
 25
0.0
 35
0.0
146
0.0
 13
0.0
 23
0.0
 33
0.0
 16
1.0
 26
0.0
 36
0.0
 17
0.0
 27
1.0
 37
0.0
 76
     0
330
23
  0
LAYOUT
  5
22
102
{ACAD_REACTORS
330
1A
102
}
330
1A
100
AcDbPlotSettings
  1

  2
none_device
  4

  6

 40
0.0
 41
0.0
 42
0.0
 43
0.0
 44
0.0
 45
0.0
 46
0.0
 47
0.0
 48
0.0
 49
0.0
140
0.0
141
0.0
142
1.0
143
1.0
 70
  1712
 72
     0
 73
     0
 74
     0
  7

 75
     0
 76
     0
 77
     2
 78
   300
147
1.0
148
0.0
149
0.0
100
AcDbLayout
  1
Model
 70
     1
 71
     0
 10
0.0
 20
0.0
 11
12.0
 21
9.0
 12
0.0
 22
0.0
 32
0.0
 14
-13.17646
 24
-17.52646
 34
0.0
 15
-7.82354
 25
-12.17354
 35
0.0
146
0.0
 13
0.0
 23
0.0
 33
0.0
 16
1.0
 26
0.0
 36
0.0
 17
0.0
 27
1.0
 37
0.0
 76
     0
330
1F
331
29
  0
MLINESTYLE
  5
18
102
{ACAD_REACTORS
330
17
102
}
330
17
100
AcDbMlineStyle
  2
Standard
 70
     0
  3

 62
   256
 51
90.0
 52
90.0
 71
     2
 49
0.5
 62
   256
  6
BYLAYER
 49
-0.5
 62
   256
  6
BYLAYER
  0
ACDBPLACEHOLDER
  5
F
102
{ACAD_REACTORS
330
E
102
}
330
E
  0
SCALE
  5
3C
102
{ACAD_REACTORS
330
3B
102
}
330
3B
100
AcDbScale
 70
     0
300
1:1
140
1.0
141
1.0
290
     1
  0
SCALE
  5
3D
102
{ACAD_REACTORS
330
3B
102
}
330
3B
100
AcDbScale
 70
     0
300
1:2
140
1.0
141
2.0
290
     0
  0
SCALE
  5
3E
102
{ACAD_REACTORS
330
3B
102
}
330
3B
100
AcDbScale
 70
     0
300
1:4
140
1.0
141
4.0
290
     0
  0
SCALE
  5
3F
102
{ACAD_REACTORS
330
3B
102
}
330
3B
100
AcDbScale
 70
     0
300
1:5
140
1.0
141
5.0
290
     0
  0
SCALE
  5
40
102
{ACAD_REACTORS
330
3B
102
}
330
3B
100
AcDbScale
 70
     0
300
1:8
140
1.0
141
8.0
290
     0
  0
SCALE
  5
41
102
{ACAD_REACTORS
330
3B
102
}
330
3B
100
AcDbScale
 70
     0
300
1:10
140
1.0
141
10.0
290
     0
  0
SCALE
  5
42
102
{ACAD_REACTORS
330
3B
102
}
330
3B
100
AcDbScale
 70
     0
300
1:16
140
1.0
141
16.0
290
     0
  0
SCALE
  5
43
102
{ACAD_REACTORS
330
3B
102
}
330
3B
100
AcDbScale
 70
     0
300
1:20
140
1.0
141
20.0
290
     0
  0
SCALE
  5
44
102
{ACAD_REACTORS
330
3B
102
}
330
3B
100
AcDbScale
 70
     0
300
1:30
140
1.0
141
30.0
290
     0
  0
SCALE
  5
45
102
{ACAD_REACTORS
330
3B
102
}
330
3B
100
AcDbScale
 70
     0
300
1:40
140
1.0
141
40.0
290
     0
  0
SCALE
  5
46
102
{ACAD_REACTORS
330
3B
102
}
330
3B
100
AcDbScale
 70
     0
300
1:50
140
1.0
141
50.0
290
     0
  0
SCALE
  5
47
102
{ACAD_REACTORS
330
3B
102
}
330
3B
100
AcDbScale
 70
     0
300
1:100
140
1.0
141
100.0
290
     0
  0
SCALE
  5
48
102
{ACAD_REACTORS
330
3B
102
}
330
3B
100
AcDbScale
 70
     0
300
2:1
140
2.0
141
1.0
290
     0
  0
SCALE
  5
49
102
{ACAD_REACTORS
330
3B
102
}
330
3B
100
AcDbScale
 70
     0
300
4:1
140
4.0
141
1.0
290
     0
  0
SCALE
  5
4A
102
{ACAD_REACTORS
330
3B
102
}
330
3B
100
AcDbScale
 70
     0
300
8:1
140
8.0
141
1.0
290
     0
  0
SCALE
  5
4B
102
{ACAD_REACTORS
330
3B
102
}
330
3B
100
AcDbScale
 70
     0
300
10:1
140
10.0
141
1.0
290
     0
  0
SCALE
  5
4C
102
{ACAD_REACTORS
330
3B
102
}
330
3B
100
AcDbScale
 70
     0
300
100:1
140
100.0
141
1.0
290
     0
  0
SCALE
  5
4D
102
{ACAD_REACTORS
330
3B
102
}
330
3B
100
AcDbScale
 70
     0
300
1/128" = 1'-0"
140
0.0078125
141
12.0
290
     0
  0
SCALE
  5
4E
102
{ACAD_REACTORS
330
3B
102
}
330
3B
100
AcDbScale
 70
     0
300
1/64" = 1'-0"
140
0.015625
141
12.0
290
     0
  0
SCALE
  5
4F
102
{ACAD_REACTORS
330
3B
102
}
330
3B
100
AcDbScale
 70
     0
300
1/32" = 1'-0"
140
0.03125
141
12.0
290
     0
  0
SCALE
  5
50
102
{ACAD_REACTORS
330
3B
102
}
330
3B
100
AcDbScale
 70
     0
300
1/16" = 1'-0"
140
0.0625
141
12.0
290
     0
  0
SCALE
  5
51
102
{ACAD_REACTORS
330
3B
102
}
330
3B
100
AcDbScale
 70
     0
300
3/32" = 1'-0"
140
0.09375
141
12.0
290
     0
  0
SCALE
  5
52
102
{ACAD_REACTORS
330
3B
102
}
330
3B
100
AcDbScale
 70
     0
300
1/8" = 1'-0"
140
0.125
141
12.0
290
     0
  0
SCALE
  5
53
102
{ACAD_REACTORS
330
3B
102
}
330
3B
100
AcDbScale
 70
     0
300
3/16" = 1'-0"
140
0.1875
141
12.0
290
     0
  0
SCALE
  5
54
102
{ACAD_REACTORS
330
3B
102
}
330
3B
100
AcDbScale
 70
     0
300
1/4" = 1'-0"
140
0.25
141
12.0
290
     0
  0
SCALE
  5
55
102
{ACAD_REACTORS
330
3B
102
}
330
3B
100
AcDbScale
 70
     0
300
3/8" = 1'-0"
140
0.375
141
12.0
290
     0
  0
SCALE
  5
56
102
{ACAD_REACTORS
330
3B
102
}
330
3B
100
AcDbScale
 70
     0
300
1/2" = 1'-0"
140
0.5
141
12.0
290
     0
  0
SCALE
  5
57
102
{ACAD_REACTORS
330
3B
102
}
330
3B
100
AcDbScale
 70
     0
300
3/4" = 1'-0"
140
0.75
141
12.0
290
     0
  0
SCALE
  5
58
102
{ACAD_REACTORS
330
3B
102
}
330
3B
100
AcDbScale
 70
     0
300
1" = 1'-0"
140
1.0
141
12.0
290
     0
  0
SCALE
  5
59
102
{ACAD_REACTORS
330
3B
102
}
330
3B
100
AcDbScale
 70
     0
300
1-1/2" = 1'-0"
140
1.5
141
12.0
290
     0
  0
SCALE
  5
5A
102
{ACAD_REACTORS
330
3B
102
}
330
3B
100
AcDbScale
 70
     0
300
3" = 1'-0"
140
3.0
141
12.0
290
     0
  0
SCALE
  5
5B
102
{ACAD_REACTORS
330
3B
102
}
330
3B
100
AcDbScale
 70
     0
300
6" = 1'-0"
140
6.0
141
12.0
290
     0
  0
SCALE
  5
5C
102
{ACAD_REACTORS
330
3B
102
}
330
3B
100
AcDbScale
 70
     0
300
1'-0" = 1'-0"
140
12.0
141
12.0
290
     0
  0
VISUALSTYLE
  5
2F
102
{ACAD_REACTORS
330
2A
102
}
330
2A
100
AcDbVisualStyle
  2
2dWireframe
 70
     4
 71
     0
 72
     2
 73
     0
 90
        0
 40
-0.6
 41
-30.0
 62
     5
 63
     7
421
 16777215
 74
     1
 91
        4
 64
     7
 65
   257
 75
     1
175
     1
 42
1.0
 92
        0
 66
   257
 43
1.0
 76
     1
 77
     6
 78
     2
 67
     7
 79
     5
170
     0
171
     0
290
     0
174
     0
 93
        1
 44
0.0
173
     0
291
     0
 45
0.0
  0
VISUALSTYLE
  5
31
102
{ACAD_REACTORS
330
2A
102
}
330
2A
100
AcDbVisualStyle
  2
3D Hidden
 70
     6
 71
     1
 72
     2
 73
     2
 90
        0
 40
-0.6
 41
-30.0
 62
     5
 63
     7
421
 16777215
 74
     2
 91
        2
 64
     7
 65
   257
 75
     2
175
     1
 42
40.0
 92
        0
 66
   257
 43
1.0
 76
     1
 77
     6
 78
     2
 67
     7
 79
     3
170
     0
171
     0
290
     0
174
     0
 93
        1
 44
0.0
173
     0
291
     0
 45
0.0
  0
VISUALSTYLE
  5
30
102
{ACAD_REACTORS
330
2A
102
}
330
2A
100
AcDbVisualStyle
  2
3dWireframe
 70
     5
 71
     0
 72
     2
 73
     0
 90
        0
 40
-0.6
 41
-30.0
 62
     5
 63
     7
421
 16777215
 74
     1
 91
        4
 64
     7
 65
   257
 75
     1
175
     1
 42
1.0
 92
        0
 66
   257
 43
1.0
 76
     1
 77
     6
 78
     2
 67
     7
 79
     5
170
     0
171
     0
290
     0
174
     0
 93
        1
 44
0.0
173
     0
291
     0
 45
0.0
  0
VISUALSTYLE
  5
32
102
{ACAD_REACTORS
330
2A
102
}
330
2A
100
AcDbVisualStyle
  2
Basic
 70
     7
 71
     1
 72
     0
 73
     1
 90
        0
 40
-0.6
 41
-30.0
 62
     5
 63
     7
421
 16777215
 74
     0
 91
        4
 64
     7
 65
   257
 75
     1
175
     1
 42
1.0
 92
        8
 66
     7
 43
1.0
 76
     1
 77
     6
 78
     2
 67
     7
 79
     5
170
     0
171
     0
290
     0
174
     0
 93
        1
 44
0.0
173
     0
291
     1
 45
0.0
  0
VISUALSTYLE
  5
36
102
{ACAD_REACTORS
330
2A
102
}
330
2A
100
AcDbVisualStyle
  2
Brighten
 70
    12
 71
     2
 72
     2
 73
     0
 90
        0
 40
-0.6
 41
-30.0
 62
     5
 63
     7
421
 16777215
 74
     1
 91
        4
 64
     7
 65
   257
 75
     1
175
     1
 42
1.0
 92
        8
 66
     7
 43
1.0
 76
     1
 77
     6
 78
     2
 67
     7
 79
     5
170
     0
171
     0
290
     0
174
     0
 93
        1
 44
50.0
173
     0
291
     1
 45
0.0
  0
VISUALSTYLE
  5
3A
102
{ACAD_REACTORS
330
2A
102
}
330
2A
100
AcDbVisualStyle
  2
ColorChange
 70
    16
 71
     2
 72
     2
 73
     3
 90
        0
 40
-0.6
 41
-30.0
 62
     5
 63
     8
421
  8421504
 74
     1
 91
        4
 64
     7
 65
   257
 75
     1
175
     1
 42
1.0
 92
        8
 66
     8
424
  8421504
 43
1.0
 76
     1
 77
     6
 78
     2
 67
     7
 79
     5
170
     0
171
     0
290
     0
174
     0
 93
        1
 44
0.0
173
     0
291
     1
 45
0.0
  0
VISUALSTYLE
  5
34
102
{ACAD_REACTORS
330
2A
102
}
330
2A
100
AcDbVisualStyle
  2
Conceptual
 70
     9
 71
     3
 72
     2
 73
     0
 90
        0
 40
-0.6
 41
-30.0
 62
     5
 63
     7
421
 16777215
 74
     2
 91
        2
 64
     7
 65
   257
 75
     1
175
     1
 42
40.0
 92
        8
 66
     7
 43
1.0
 76
     1
 77
     6
 78
     2
 67
     7
 79
     3
170
     0
171
     0
290
     0
174
     0
 93
        1
 44
0.0
173
     0
291
     0
 45
0.0
  0
VISUALSTYLE
  5
35
102
{ACAD_REACTORS
330
2A
102
}
330
2A
100
AcDbVisualStyle
  2
Dim
 70
    11
 71
     2
 72
     2
 73
     0
 90
        0
 40
-0.6
 41
-30.0
 62
     5
 63
     7
421
 16777215
 74
     1
 91
        4
 64
     7
 65
   257
 75
     1
175
     1
 42
1.0
 92
        8
 66
     7
 43
1.0
 76
     1
 77
     6
 78
     2
 67
     7
 79
     5
170
     0
171
     0
290
     0
174
     0
 93
        1
 44
-50.0
173
     0
291
     1
 45
0.0
  0
VISUALSTYLE
  5
39
102
{ACAD_REACTORS
330
2A
102
}
330
2A
100
AcDbVisualStyle
  2
Facepattern
 70
    15
 71
     2
 72
     2
 73
     0
 90
        0
 40
-0.6
 41
-30.0
 62
     5
 63
     7
421
 16777215
 74
     1
 91
        4
 64
     7
 65
   257
 75
     1
175
     1
 42
1.0
 92
        8
 66
     7
 43
1.0
 76
     1
 77
     6
 78
     2
 67
     7
 79
     5
170
     0
171
     0
290
     0
174
     0
 93
        1
 44
0.0
173
     0
291
     1
 45
0.0
  0
VISUALSTYLE
  5
2B
102
{ACAD_REACTORS
330
2A
102
}
330
2A
100
AcDbVisualStyle
  2
Flat
 70
     0
 71
     2
 72
     1
 73
     1
 90
        2
 40
-0.6
 41
30.0
 62
     5
 63
     7
421
 16777215
 74
     0
 91
        4
 64
     7
 65
   257
 75
     1
175
     1
 42
1.0
 92
        8
 66
     7
 43
1.0
 76
     1
 77
     6
 78
     2
 67
     7
 79
     5
170
     0
171
     0
290
     0
174
     0
 93
       13
 44
0.0
173
     0
291
     1
 45
0.0
  0
VISUALSTYLE
  5
2C
102
{ACAD_REACTORS
330
2A
102
}
330
2A
100
AcDbVisualStyle
  2
FlatWithEdges
 70
     1
 71
     2
 72
     1
 73
     1
 90
        2
 40
-0.6
 41
30.0
 62
     5
 63
     7
421
 16777215
 74
     1
 91
        4
 64
     7
 65
   257
 75
     1
175
     1
 42
1.0
 92
        0
 66
   257
 43
1.0
 76
     1
 77
     6
 78
     2
 67
     7
 79
     5
170
     0
171
     0
290
     0
174
     0
 93
       13
 44
0.0
173
     0
291
     1
 45
0.0
  0
VISUALSTYLE
  5
2D
102
{ACAD_REACTORS
330
2A
102
}
330
2A
100
AcDbVisualStyle
  2
Gouraud
 70
     2
 71
     2
 72
     2
 73
     1
 90
        2
 40
-0.6
 41
30.0
 62
     5
 63
     7
421
 16777215
 74
     0
 91
        4
 64
     7
 65
   257
 75
     1
175
     1
 42
1.0
 92
        0
 66
     7
 43
1.0
 76
     1
 77
     6
 78
     2
 67
     7
 79
     5
170
     0
171
     0
290
     0
174
     0
 93
       13
 44
0.0
173
     0
291
     1
 45
0.0
  0
VISUALSTYLE
  5
2E
102
{ACAD_REACTORS
330
2A
102
}
330
2A
100
AcDbVisualStyle
  2
GouraudWithEdges
 70
     3
 71
     2
 72
     2
 73
     1
 90
        2
 40
-0.6
 41
30.0
 62
     5
 63
     7
421
 16777215
 74
     1
 91
        4
 64
     7
 65
   257
 75
     1
175
     1
 42
1.0
 92
        0
 66
   257
 43
1.0
 76
     1
 77
     6
 78
     2
 67
     7
 79
     5
170
     0
171
     0
290
     0
174
     0
 93
       13
 44
0.0
173
     0
291
     1
 45
0.0
  0
VISUALSTYLE
  5
38
102
{ACAD_REACTORS
330
2A
102
}
330
2A
100
AcDbVisualStyle
  2
Linepattern
 70
    14
 71
     2
 72
     2
 73
     0
 90
        0
 40
-0.6
 41
-30.0
 62
     5
 63
     7
421
 16777215
 74
     1
 91
        4
 64
     7
 65
   257
 75
     7
175
     7
 42
1.0
 92
        8
 66
     7
 43
1.0
 76
     1
 77
     6
 78
     2
 67
     7
 79
     5
170
     0
171
     0
290
     0
174
     0
 93
        1
 44
0.0
173
     0
291
     1
 45
0.0
  0
VISUALSTYLE
  5
33
102
{ACAD_REACTORS
330
2A
102
}
330
2A
100
AcDbVisualStyle
  2
Realistic
 70
     8
 71
     2
 72
     2
 73
     0
 90
        0
 40
-0.6
 41
-30.0
 62
     5
 63
     7
421
 16777215
 74
     1
 91
        0
 64
     7
 65
   257
 75
     1
175
     1
 42
1.0
 92
        8
 66
     8
424
  7895160
 43
1.0
 76
     1
 77
     6
 78
     2
 67
     7
 79
     5
170
     0
171
     0
290
     0
174
     0
 93
       13
 44
0.0
173
     0
291
     0
 45
0.0
  0
VISUALSTYLE
  5
37
102
{ACAD_REACTORS
330
2A
102
}
330
2A
100
AcDbVisualStyle
  2
Thicken
 70
    13
 71
     2
 72
     2
 73
     0
 90
        0
 40
-0.6
 41
-30.0
 62
     5
 63
     7
421
 16777215
 74
     1
 91
        4
 64
     7
 65
   257
 75
     1
175
     1
 42
1.0
 92
       12
 66
     7
 43
1.0
 76
     1
 77
     6
 78
     2
 67
     7
 79
     5
170
     0
171
     0
290
     0
174
     0
 93
        1
 44
0.0
173
     0
291
     1
 45
0.0
  0
ENDSEC
  0
EOF
