%TF.GenerationSoftware,KiCad,Pcbnew,(6.0.5)*%
%TF.CreationDate,2022-10-13T20:02:31+01:00*%
%TF.ProjectId,OOBB-RASP-PICO-SHIELD-01,4f4f4242-2d52-4415-9350-2d5049434f2d,rev?*%
%TF.SameCoordinates,Original*%
%TF.FileFunction,Soldermask,Bot*%
%TF.FilePolarity,Negative*%
%FSLAX46Y46*%
G04 Gerber Fmt 4.6, Leading zero omitted, Abs format (unit mm)*
G04 Created by KiCad (PCBNEW (6.0.5)) date 2022-10-13 20:02:32*
%MOMM*%
%LPD*%
G01*
G04 APERTURE LIST*
%ADD10O,0.800000X0.800000*%
%ADD11C,0.650000*%
%ADD12O,3.700000X1.800000*%
%ADD13O,1.250000X3.000000*%
%ADD14O,2.800000X3.500000*%
%ADD15O,2.800000X4.700000*%
%ADD16O,1.000000X2.100000*%
%ADD17O,1.000000X1.600000*%
%ADD18R,1.700000X1.700000*%
%ADD19O,1.700000X1.700000*%
%ADD20R,4.600000X2.000000*%
%ADD21O,4.200000X2.000000*%
%ADD22O,2.000000X4.200000*%
G04 APERTURE END LIST*
D10*
%TO.C,U2*%
X144010000Y-125730000D03*
D11*
X144310000Y-123720000D03*
D12*
X137939000Y-124688000D03*
X145000000Y-124688000D03*
D13*
X148490000Y-127375000D03*
D11*
X138530000Y-123720000D03*
D10*
X139010000Y-125730000D03*
D13*
X134500000Y-127375000D03*
D14*
X138240000Y-127888000D03*
X144700000Y-127888000D03*
D15*
X145300000Y-128488000D03*
X137640000Y-128488000D03*
D16*
X137100000Y-123190000D03*
D17*
X137100000Y-127370000D03*
X145740000Y-127370000D03*
D16*
X145740000Y-123190000D03*
%TD*%
D18*
%TO.C,J14*%
X140355000Y-88035000D03*
D19*
X142895000Y-88035000D03*
X145435000Y-88035000D03*
%TD*%
D20*
%TO.C,J11*%
X140970000Y-112395000D03*
D21*
X140970000Y-118695000D03*
D22*
X145770000Y-115295000D03*
%TD*%
D18*
%TO.C,J12*%
X140355000Y-100735000D03*
D19*
X142895000Y-100735000D03*
X145435000Y-100735000D03*
%TD*%
D18*
%TO.C,U10*%
X132100000Y-67720000D03*
D19*
X132100000Y-70260000D03*
X132100000Y-72800000D03*
X132100000Y-75340000D03*
X132100000Y-77880000D03*
X132100000Y-80420000D03*
X132100000Y-82960000D03*
X132100000Y-85500000D03*
X132100000Y-88040000D03*
X132100000Y-90580000D03*
X132100000Y-93120000D03*
X132100000Y-95660000D03*
X132100000Y-98200000D03*
X132100000Y-100740000D03*
X132100000Y-103280000D03*
X132100000Y-105820000D03*
X132100000Y-108360000D03*
X132100000Y-110900000D03*
X132100000Y-113440000D03*
X132100000Y-115980000D03*
X151130000Y-115975000D03*
X151130000Y-113435000D03*
X151130000Y-110895000D03*
X151130000Y-108355000D03*
X151130000Y-105815000D03*
X151130000Y-103275000D03*
X151130000Y-100735000D03*
X151130000Y-98195000D03*
X151130000Y-95655000D03*
X151130000Y-93115000D03*
X151130000Y-90575000D03*
X151130000Y-88040000D03*
X151130000Y-85500000D03*
X151130000Y-82960000D03*
X151130000Y-80420000D03*
X151130000Y-77880000D03*
X151130000Y-75340000D03*
X151130000Y-72800000D03*
X151130000Y-70260000D03*
D18*
X151130000Y-67720000D03*
%TD*%
%TO.C,J6*%
X140355000Y-82955000D03*
D19*
X142895000Y-82955000D03*
X145435000Y-82955000D03*
%TD*%
D18*
%TO.C,J3*%
X140355000Y-93115000D03*
D19*
X142895000Y-93115000D03*
X145435000Y-93115000D03*
%TD*%
D18*
%TO.C,J1*%
X140355000Y-67715000D03*
D19*
X142895000Y-67715000D03*
X145435000Y-67715000D03*
%TD*%
D18*
%TO.C,J9*%
X140355000Y-85495000D03*
D19*
X142895000Y-85495000D03*
X145435000Y-85495000D03*
%TD*%
D18*
%TO.C,J10*%
X140355000Y-98195000D03*
D19*
X142895000Y-98195000D03*
X145435000Y-98195000D03*
%TD*%
D18*
%TO.C,J7*%
X140355000Y-95655000D03*
D19*
X142895000Y-95655000D03*
X145435000Y-95655000D03*
%TD*%
D18*
%TO.C,J5*%
X140355000Y-70255000D03*
D19*
X142895000Y-70255000D03*
X145435000Y-70255000D03*
%TD*%
D18*
%TO.C,J8*%
X140355000Y-72795000D03*
D19*
X142895000Y-72795000D03*
X145435000Y-72795000D03*
%TD*%
D18*
%TO.C,J2*%
X140355000Y-80415000D03*
D19*
X142895000Y-80415000D03*
X145435000Y-80415000D03*
%TD*%
D18*
%TO.C,J13*%
X140355000Y-75335000D03*
D19*
X142895000Y-75335000D03*
X145435000Y-75335000D03*
%TD*%
M02*
