%TF.GenerationSoftware,KiCad,Pcbnew,(6.0.5)*%
%TF.CreationDate,2022-10-13T14:31:03+01:00*%
%TF.ProjectId,OOBB-RASP-PICO-SHIELD-01,4f4f4242-2d52-4415-9350-2d5049434f2d,rev?*%
%TF.SameCoordinates,Original*%
%TF.FileFunction,Copper,L1,Top*%
%TF.FilePolarity,Positive*%
%FSLAX46Y46*%
G04 Gerber Fmt 4.6, Leading zero omitted, Abs format (unit mm)*
G04 Created by KiCad (PCBNEW (6.0.5)) date 2022-10-13 14:31:03*
%MOMM*%
%LPD*%
G01*
G04 APERTURE LIST*
G04 Aperture macros list*
%AMRoundRect*
0 Rectangle with rounded corners*
0 $1 Rounding radius*
0 $2 $3 $4 $5 $6 $7 $8 $9 X,Y pos of 4 corners*
0 Add a 4 corners polygon primitive as box body*
4,1,4,$2,$3,$4,$5,$6,$7,$8,$9,$2,$3,0*
0 Add four circle primitives for the rounded corners*
1,1,$1+$1,$2,$3*
1,1,$1+$1,$4,$5*
1,1,$1+$1,$6,$7*
1,1,$1+$1,$8,$9*
0 Add four rect primitives between the rounded corners*
20,1,$1+$1,$2,$3,$4,$5,0*
20,1,$1+$1,$4,$5,$6,$7,0*
20,1,$1+$1,$6,$7,$8,$9,0*
20,1,$1+$1,$8,$9,$2,$3,0*%
G04 Aperture macros list end*
%TA.AperFunction,ComponentPad*%
%ADD10R,1.700000X1.700000*%
%TD*%
%TA.AperFunction,ComponentPad*%
%ADD11O,1.700000X1.700000*%
%TD*%
%TA.AperFunction,SMDPad,CuDef*%
%ADD12R,2.000000X1.500000*%
%TD*%
%TA.AperFunction,SMDPad,CuDef*%
%ADD13R,2.000000X3.800000*%
%TD*%
%TA.AperFunction,ComponentPad*%
%ADD14R,4.600000X2.000000*%
%TD*%
%TA.AperFunction,ComponentPad*%
%ADD15O,4.200000X2.000000*%
%TD*%
%TA.AperFunction,ComponentPad*%
%ADD16O,2.000000X4.200000*%
%TD*%
%TA.AperFunction,SMDPad,CuDef*%
%ADD17RoundRect,0.250000X0.350000X0.650000X-0.350000X0.650000X-0.350000X-0.650000X0.350000X-0.650000X0*%
%TD*%
%TA.AperFunction,SMDPad,CuDef*%
%ADD18RoundRect,0.150000X0.150000X0.625000X-0.150000X0.625000X-0.150000X-0.625000X0.150000X-0.625000X0*%
%TD*%
%TA.AperFunction,SMDPad,CuDef*%
%ADD19RoundRect,0.250000X0.475000X-0.250000X0.475000X0.250000X-0.475000X0.250000X-0.475000X-0.250000X0*%
%TD*%
%TA.AperFunction,SMDPad,CuDef*%
%ADD20RoundRect,0.225000X-0.250000X0.225000X-0.250000X-0.225000X0.250000X-0.225000X0.250000X0.225000X0*%
%TD*%
%TA.AperFunction,Conductor*%
%ADD21C,0.250000*%
%TD*%
G04 APERTURE END LIST*
D10*
%TO.P,U10,1,GPIO00*%
%TO.N,GPIO00*%
X132100000Y-67720000D03*
D11*
%TO.P,U10,2,GPIO01*%
%TO.N,GPIO01*%
X132100000Y-70260000D03*
%TO.P,U10,3,GND*%
%TO.N,GND*%
X132100000Y-72800000D03*
%TO.P,U10,4,GPIO02*%
%TO.N,GPIO02*%
X132100000Y-75340000D03*
%TO.P,U10,5,GPIO03*%
%TO.N,GPIO03*%
X132100000Y-77880000D03*
%TO.P,U10,6,GPIO04*%
%TO.N,GPIO04*%
X132100000Y-80420000D03*
%TO.P,U10,7,GPIO05*%
%TO.N,GPIO05*%
X132100000Y-82960000D03*
%TO.P,U10,8,GND*%
%TO.N,GND*%
X132100000Y-85500000D03*
%TO.P,U10,9,GPIO06*%
%TO.N,GPIO06*%
X132100000Y-88040000D03*
%TO.P,U10,10,GPIO07*%
%TO.N,GPIO07*%
X132100000Y-90580000D03*
%TO.P,U10,11,GPIO08*%
%TO.N,GPIO08*%
X132100000Y-93120000D03*
%TO.P,U10,12,GPIO09*%
%TO.N,GPIO09*%
X132100000Y-95660000D03*
%TO.P,U10,13,GND*%
%TO.N,GND*%
X132100000Y-98200000D03*
%TO.P,U10,14,GPIO10*%
%TO.N,GPIO10*%
X132100000Y-100740000D03*
%TO.P,U10,15,GPIO11*%
%TO.N,GPIO11*%
X132100000Y-103280000D03*
%TO.P,U10,16,GPIO12*%
%TO.N,GPIO12*%
X132100000Y-105820000D03*
%TO.P,U10,17,GPIO13*%
%TO.N,GPIO13*%
X132100000Y-108360000D03*
%TO.P,U10,18,GND*%
%TO.N,GND*%
X132100000Y-110900000D03*
%TO.P,U10,19,GPIO14*%
%TO.N,GPIO14*%
X132100000Y-113440000D03*
%TO.P,U10,20,GPIO15*%
%TO.N,GPIO15*%
X132100000Y-115980000D03*
%TO.P,U10,21,GPIO16*%
%TO.N,GPIO16*%
X151130000Y-115975000D03*
%TO.P,U10,22,GPIO17*%
%TO.N,GPIO17*%
X151130000Y-113435000D03*
%TO.P,U10,23,GND*%
%TO.N,GND*%
X151130000Y-110895000D03*
%TO.P,U10,24,GPIO18*%
%TO.N,GPIO18*%
X151130000Y-108355000D03*
%TO.P,U10,25,GPIO19*%
%TO.N,GPIO19*%
X151130000Y-105815000D03*
%TO.P,U10,26,GPIO20*%
%TO.N,GPIO20*%
X151130000Y-103275000D03*
%TO.P,U10,27,GPIO21*%
%TO.N,GPIO21*%
X151130000Y-100735000D03*
%TO.P,U10,28,GND*%
%TO.N,GND*%
X151130000Y-98195000D03*
%TO.P,U10,29,GPIO22*%
%TO.N,GPIO22*%
X151130000Y-95655000D03*
%TO.P,U10,30,RUN*%
%TO.N,RUN*%
X151130000Y-93115000D03*
%TO.P,U10,31,GPIO26*%
%TO.N,A0*%
X151130000Y-90575000D03*
%TO.P,U10,32,GPIO27*%
%TO.N,A1*%
X151130000Y-88040000D03*
%TO.P,U10,33,GND*%
%TO.N,GND*%
X151130000Y-85500000D03*
%TO.P,U10,34,GPIO28*%
%TO.N,A2*%
X151130000Y-82960000D03*
%TO.P,U10,35,VREF*%
%TO.N,VREF*%
X151130000Y-80420000D03*
%TO.P,U10,36,3V3*%
%TO.N,VOUT*%
X151130000Y-77880000D03*
%TO.P,U10,37,3EN*%
%TO.N,3EN*%
X151130000Y-75340000D03*
%TO.P,U10,38,GND*%
%TO.N,GND*%
X151130000Y-72800000D03*
%TO.P,U10,39,VSYS*%
%TO.N,VSYS*%
X151130000Y-70260000D03*
D10*
%TO.P,U10,40,VBUS*%
%TO.N,VBUS*%
X151130000Y-67720000D03*
%TD*%
D12*
%TO.P,U1,1,GND*%
%TO.N,GND*%
X144120000Y-109615000D03*
D13*
%TO.P,U1,2,VO*%
%TO.N,VOUT*%
X137820000Y-107315000D03*
D12*
X144120000Y-107315000D03*
%TO.P,U1,3,VI*%
%TO.N,VIN*%
X144120000Y-105015000D03*
%TD*%
D11*
%TO.P,J14,3,GND*%
%TO.N,GND*%
X145435000Y-88035000D03*
%TO.P,J14,2,VCC*%
%TO.N,VOUT*%
X142895000Y-88035000D03*
D10*
%TO.P,J14,1,SIG*%
%TO.N,GPIO09*%
X140355000Y-88035000D03*
%TD*%
D11*
%TO.P,J13,3,GND*%
%TO.N,GND*%
X145435000Y-75335000D03*
%TO.P,J13,2,VCC*%
%TO.N,VOUT*%
X142895000Y-75335000D03*
D10*
%TO.P,J13,1,SIG*%
%TO.N,GPIO05*%
X140355000Y-75335000D03*
%TD*%
D11*
%TO.P,J12,3,GND*%
%TO.N,GND*%
X145435000Y-100735000D03*
%TO.P,J12,2,VCC*%
%TO.N,VOUT*%
X142895000Y-100735000D03*
D10*
%TO.P,J12,1,SIG*%
%TO.N,GPIO13*%
X140355000Y-100735000D03*
%TD*%
D14*
%TO.P,J11,1*%
%TO.N,VIN*%
X140970000Y-112395000D03*
D15*
%TO.P,J11,2*%
%TO.N,GND*%
X140970000Y-118695000D03*
D16*
%TO.P,J11,3*%
%TO.N,unconnected-(J11-Pad3)*%
X145770000Y-115295000D03*
%TD*%
D11*
%TO.P,J10,3,GND*%
%TO.N,GND*%
X145435000Y-98195000D03*
%TO.P,J10,2,VCC*%
%TO.N,VOUT*%
X142895000Y-98195000D03*
D10*
%TO.P,J10,1,SIG*%
%TO.N,GPIO12*%
X140355000Y-98195000D03*
%TD*%
D11*
%TO.P,J9,3,GND*%
%TO.N,GND*%
X145435000Y-85495000D03*
%TO.P,J9,2,VCC*%
%TO.N,VOUT*%
X142895000Y-85495000D03*
D10*
%TO.P,J9,1,SIG*%
%TO.N,GPIO08*%
X140355000Y-85495000D03*
%TD*%
D11*
%TO.P,J8,3,GND*%
%TO.N,GND*%
X145435000Y-72795000D03*
%TO.P,J8,2,VCC*%
%TO.N,VOUT*%
X142895000Y-72795000D03*
D10*
%TO.P,J8,1,SIG*%
%TO.N,GPIO04*%
X140355000Y-72795000D03*
%TD*%
D11*
%TO.P,J7,3,GND*%
%TO.N,GND*%
X145435000Y-95655000D03*
%TO.P,J7,2,VCC*%
%TO.N,VOUT*%
X142895000Y-95655000D03*
D10*
%TO.P,J7,1,SIG*%
%TO.N,GPIO11*%
X140355000Y-95655000D03*
%TD*%
%TO.P,J6,1,SIG*%
%TO.N,GPIO07*%
X140355000Y-82955000D03*
D11*
%TO.P,J6,2,VCC*%
%TO.N,VOUT*%
X142895000Y-82955000D03*
%TO.P,J6,3,GND*%
%TO.N,GND*%
X145435000Y-82955000D03*
%TD*%
%TO.P,J5,3,GND*%
%TO.N,GND*%
X145435000Y-70255000D03*
%TO.P,J5,2,VCC*%
%TO.N,VOUT*%
X142895000Y-70255000D03*
D10*
%TO.P,J5,1,SIG*%
%TO.N,GPIO03*%
X140355000Y-70255000D03*
%TD*%
D17*
%TO.P,J4,MP,MountPin*%
%TO.N,GND*%
X144425000Y-59720000D03*
X138825000Y-59720000D03*
D18*
%TO.P,J4,4,Pin_4*%
%TO.N,GPIO17*%
X140125000Y-63595000D03*
%TO.P,J4,3,Pin_3*%
%TO.N,GPIO16*%
X141125000Y-63595000D03*
%TO.P,J4,2,Pin_2*%
%TO.N,VOUT*%
X142125000Y-63595000D03*
%TO.P,J4,1,Pin_1*%
%TO.N,GND*%
X143125000Y-63595000D03*
%TD*%
D11*
%TO.P,J3,3,GND*%
%TO.N,GND*%
X145435000Y-93115000D03*
%TO.P,J3,2,VCC*%
%TO.N,VOUT*%
X142895000Y-93115000D03*
D10*
%TO.P,J3,1,SIG*%
%TO.N,GPIO10*%
X140355000Y-93115000D03*
%TD*%
D11*
%TO.P,J2,3,GND*%
%TO.N,GND*%
X145435000Y-80415000D03*
%TO.P,J2,2,VCC*%
%TO.N,VOUT*%
X142895000Y-80415000D03*
D10*
%TO.P,J2,1,SIG*%
%TO.N,GPIO06*%
X140355000Y-80415000D03*
%TD*%
D11*
%TO.P,J1,3,GND*%
%TO.N,GND*%
X145435000Y-67715000D03*
%TO.P,J1,2,VCC*%
%TO.N,VOUT*%
X142895000Y-67715000D03*
D10*
%TO.P,J1,1,SIG*%
%TO.N,GPIO02*%
X140355000Y-67715000D03*
%TD*%
D19*
%TO.P,C2,1*%
%TO.N,VOUT*%
X135255000Y-108265000D03*
%TO.P,C2,2*%
%TO.N,GND*%
X135255000Y-106365000D03*
%TD*%
D20*
%TO.P,C1,1*%
%TO.N,VIN*%
X146685000Y-106540000D03*
%TO.P,C1,2*%
%TO.N,GND*%
X146685000Y-108090000D03*
%TD*%
D21*
%TO.N,GPIO16*%
X144145000Y-61595000D02*
X148590000Y-66040000D01*
X141605000Y-61595000D02*
X144145000Y-61595000D01*
X148590000Y-66040000D02*
X148590000Y-113435000D01*
X141125000Y-63595000D02*
X141125000Y-62075000D01*
X141125000Y-62075000D02*
X141605000Y-61595000D01*
X148590000Y-113435000D02*
X151130000Y-115975000D01*
%TO.N,GPIO17*%
X149225000Y-111760000D02*
X150900000Y-113435000D01*
X149225000Y-65405000D02*
X149225000Y-111760000D01*
X150900000Y-113435000D02*
X151130000Y-113435000D01*
X140970000Y-60960000D02*
X144780000Y-60960000D01*
X144780000Y-60960000D02*
X149225000Y-65405000D01*
X140125000Y-61805000D02*
X140970000Y-60960000D01*
X140125000Y-63595000D02*
X140125000Y-61805000D01*
%TO.N,GND*%
X135015000Y-109615000D02*
X144120000Y-109615000D01*
X134205480Y-107414520D02*
X134205480Y-108805480D01*
X134205480Y-108805480D02*
X135015000Y-109615000D01*
X135255000Y-106365000D02*
X134205480Y-107414520D01*
%TO.N,VOUT*%
X137820000Y-107315000D02*
X144120000Y-107315000D01*
X136205000Y-107315000D02*
X137820000Y-107315000D01*
X135255000Y-108265000D02*
X136205000Y-107315000D01*
%TO.N,GND*%
X145645000Y-108090000D02*
X144120000Y-109615000D01*
X146685000Y-108090000D02*
X145645000Y-108090000D01*
%TO.N,VIN*%
X143632138Y-112395000D02*
X140970000Y-112395000D01*
X147484520Y-108542618D02*
X143632138Y-112395000D01*
X147484520Y-107339520D02*
X147484520Y-108542618D01*
X146685000Y-106540000D02*
X147484520Y-107339520D01*
X145160000Y-105015000D02*
X146685000Y-106540000D01*
X144120000Y-105015000D02*
X145160000Y-105015000D01*
%TD*%
%TA.AperFunction,Conductor*%
%TO.N,GND*%
G36*
X151833621Y-59583502D02*
G01*
X151880114Y-59637158D01*
X151891500Y-59689500D01*
X151891500Y-66235500D01*
X151871498Y-66303621D01*
X151817842Y-66350114D01*
X151765500Y-66361500D01*
X150231866Y-66361500D01*
X150169684Y-66368255D01*
X150033295Y-66419385D01*
X150032463Y-66417167D01*
X149975645Y-66429590D01*
X149909099Y-66404851D01*
X149866491Y-66348060D01*
X149858500Y-66303902D01*
X149858500Y-65483767D01*
X149859027Y-65472584D01*
X149860702Y-65465091D01*
X149858562Y-65397014D01*
X149858500Y-65393055D01*
X149858500Y-65365144D01*
X149857995Y-65361144D01*
X149857062Y-65349301D01*
X149855922Y-65313029D01*
X149855673Y-65305110D01*
X149850022Y-65285658D01*
X149846014Y-65266306D01*
X149844467Y-65254063D01*
X149843474Y-65246203D01*
X149840556Y-65238832D01*
X149827200Y-65205097D01*
X149823355Y-65193870D01*
X149822721Y-65191687D01*
X149811018Y-65151407D01*
X149806984Y-65144585D01*
X149806981Y-65144579D01*
X149800706Y-65133968D01*
X149792010Y-65116218D01*
X149787472Y-65104756D01*
X149787469Y-65104751D01*
X149784552Y-65097383D01*
X149758573Y-65061625D01*
X149752057Y-65051707D01*
X149733575Y-65020457D01*
X149729542Y-65013637D01*
X149715218Y-64999313D01*
X149702376Y-64984278D01*
X149690472Y-64967893D01*
X149656406Y-64939711D01*
X149647627Y-64931722D01*
X145507128Y-60791223D01*
X145473102Y-60728911D01*
X145476630Y-60662460D01*
X145520138Y-60531290D01*
X145523005Y-60517914D01*
X145532672Y-60423562D01*
X145533000Y-60417146D01*
X145533000Y-59992115D01*
X145528525Y-59976876D01*
X145527135Y-59975671D01*
X145519452Y-59974000D01*
X143335116Y-59974000D01*
X143319877Y-59978475D01*
X143318672Y-59979865D01*
X143317001Y-59987548D01*
X143317001Y-60200500D01*
X143296999Y-60268621D01*
X143243343Y-60315114D01*
X143191001Y-60326500D01*
X141048763Y-60326500D01*
X141037579Y-60325973D01*
X141030091Y-60324299D01*
X141022168Y-60324548D01*
X140962033Y-60326438D01*
X140958075Y-60326500D01*
X140930144Y-60326500D01*
X140926229Y-60326995D01*
X140926225Y-60326995D01*
X140926167Y-60327003D01*
X140926138Y-60327006D01*
X140914296Y-60327939D01*
X140870110Y-60329327D01*
X140852744Y-60334372D01*
X140850658Y-60334978D01*
X140831306Y-60338986D01*
X140819068Y-60340532D01*
X140819066Y-60340533D01*
X140811203Y-60341526D01*
X140770086Y-60357806D01*
X140758885Y-60361641D01*
X140716406Y-60373982D01*
X140709587Y-60378015D01*
X140709582Y-60378017D01*
X140698971Y-60384293D01*
X140681221Y-60392990D01*
X140662383Y-60400448D01*
X140655967Y-60405109D01*
X140655966Y-60405110D01*
X140639400Y-60417146D01*
X140630570Y-60423562D01*
X140626625Y-60426428D01*
X140616701Y-60432947D01*
X140585460Y-60451422D01*
X140585455Y-60451426D01*
X140578637Y-60455458D01*
X140564313Y-60469782D01*
X140549281Y-60482621D01*
X140532893Y-60494528D01*
X140512478Y-60519206D01*
X140504712Y-60528593D01*
X140496722Y-60537373D01*
X139732747Y-61301348D01*
X139724461Y-61308888D01*
X139717982Y-61313000D01*
X139712557Y-61318777D01*
X139671357Y-61362651D01*
X139668602Y-61365493D01*
X139648865Y-61385230D01*
X139646385Y-61388427D01*
X139638682Y-61397447D01*
X139608414Y-61429679D01*
X139604595Y-61436625D01*
X139604593Y-61436628D01*
X139598652Y-61447434D01*
X139587801Y-61463953D01*
X139575386Y-61479959D01*
X139572241Y-61487228D01*
X139572238Y-61487232D01*
X139557826Y-61520537D01*
X139552609Y-61531187D01*
X139531305Y-61569940D01*
X139529334Y-61577615D01*
X139529334Y-61577616D01*
X139526267Y-61589562D01*
X139519863Y-61608266D01*
X139511819Y-61626855D01*
X139510580Y-61634678D01*
X139510577Y-61634688D01*
X139504901Y-61670524D01*
X139502495Y-61682144D01*
X139491500Y-61724970D01*
X139491500Y-61745224D01*
X139489949Y-61764934D01*
X139486780Y-61784943D01*
X139487526Y-61792835D01*
X139490941Y-61828961D01*
X139491500Y-61840819D01*
X139491500Y-62470050D01*
X139471498Y-62538171D01*
X139460941Y-62551271D01*
X139461011Y-62551325D01*
X139456155Y-62557585D01*
X139450547Y-62563193D01*
X139446511Y-62570017D01*
X139446509Y-62570020D01*
X139382893Y-62677589D01*
X139365855Y-62706399D01*
X139363644Y-62714010D01*
X139363643Y-62714012D01*
X139348472Y-62766231D01*
X139319438Y-62866169D01*
X139318934Y-62872574D01*
X139318933Y-62872579D01*
X139316693Y-62901042D01*
X139316500Y-62903498D01*
X139316500Y-64286502D01*
X139316693Y-64288950D01*
X139316693Y-64288958D01*
X139318927Y-64317333D01*
X139319438Y-64323831D01*
X139321233Y-64330008D01*
X139363643Y-64475988D01*
X139363644Y-64475990D01*
X139365855Y-64483601D01*
X139369892Y-64490427D01*
X139446509Y-64619980D01*
X139446511Y-64619983D01*
X139450547Y-64626807D01*
X139568193Y-64744453D01*
X139575017Y-64748489D01*
X139575020Y-64748491D01*
X139659125Y-64798230D01*
X139711399Y-64829145D01*
X139719010Y-64831356D01*
X139719012Y-64831357D01*
X139771231Y-64846528D01*
X139871169Y-64875562D01*
X139877574Y-64876066D01*
X139877579Y-64876067D01*
X139906042Y-64878307D01*
X139906050Y-64878307D01*
X139908498Y-64878500D01*
X140341502Y-64878500D01*
X140343950Y-64878307D01*
X140343958Y-64878307D01*
X140372421Y-64876067D01*
X140372426Y-64876066D01*
X140378831Y-64875562D01*
X140478769Y-64846528D01*
X140530988Y-64831357D01*
X140530990Y-64831356D01*
X140538601Y-64829145D01*
X140545426Y-64825109D01*
X140560863Y-64815980D01*
X140629679Y-64798522D01*
X140689137Y-64815980D01*
X140704574Y-64825109D01*
X140711399Y-64829145D01*
X140719010Y-64831356D01*
X140719012Y-64831357D01*
X140771231Y-64846528D01*
X140871169Y-64875562D01*
X140877574Y-64876066D01*
X140877579Y-64876067D01*
X140906042Y-64878307D01*
X140906050Y-64878307D01*
X140908498Y-64878500D01*
X141341502Y-64878500D01*
X141343950Y-64878307D01*
X141343958Y-64878307D01*
X141372421Y-64876067D01*
X141372426Y-64876066D01*
X141378831Y-64875562D01*
X141478769Y-64846528D01*
X141530988Y-64831357D01*
X141530990Y-64831356D01*
X141538601Y-64829145D01*
X141545426Y-64825109D01*
X141560863Y-64815980D01*
X141629679Y-64798522D01*
X141689137Y-64815980D01*
X141704574Y-64825109D01*
X141711399Y-64829145D01*
X141719010Y-64831356D01*
X141719012Y-64831357D01*
X141771231Y-64846528D01*
X141871169Y-64875562D01*
X141877574Y-64876066D01*
X141877579Y-64876067D01*
X141906042Y-64878307D01*
X141906050Y-64878307D01*
X141908498Y-64878500D01*
X142341502Y-64878500D01*
X142343950Y-64878307D01*
X142343958Y-64878307D01*
X142372421Y-64876067D01*
X142372426Y-64876066D01*
X142378831Y-64875562D01*
X142478769Y-64846528D01*
X142530988Y-64831357D01*
X142530990Y-64831356D01*
X142538601Y-64829145D01*
X142561351Y-64815690D01*
X142630165Y-64798230D01*
X142689630Y-64815689D01*
X142704779Y-64824648D01*
X142719210Y-64830893D01*
X142853605Y-64869939D01*
X142867706Y-64869899D01*
X142871000Y-64862630D01*
X142871000Y-64856878D01*
X143379000Y-64856878D01*
X143382973Y-64870409D01*
X143390871Y-64871544D01*
X143530790Y-64830893D01*
X143545221Y-64824648D01*
X143674678Y-64748089D01*
X143687104Y-64738449D01*
X143793449Y-64632104D01*
X143803089Y-64619678D01*
X143879648Y-64490221D01*
X143885893Y-64475790D01*
X143928269Y-64329935D01*
X143930570Y-64317333D01*
X143932807Y-64288916D01*
X143933000Y-64283986D01*
X143933000Y-63867115D01*
X143928525Y-63851876D01*
X143927135Y-63850671D01*
X143919452Y-63849000D01*
X143397115Y-63849000D01*
X143381876Y-63853475D01*
X143380671Y-63854865D01*
X143379000Y-63862548D01*
X143379000Y-64856878D01*
X142871000Y-64856878D01*
X142871000Y-64537570D01*
X142881115Y-64488725D01*
X142884145Y-64483601D01*
X142886355Y-64475993D01*
X142886357Y-64475989D01*
X142928767Y-64330008D01*
X142930562Y-64323831D01*
X142931074Y-64317333D01*
X142933307Y-64288958D01*
X142933307Y-64288950D01*
X142933500Y-64286502D01*
X142933500Y-63467000D01*
X142953502Y-63398879D01*
X143007158Y-63352386D01*
X143059500Y-63341000D01*
X143914884Y-63341000D01*
X143930123Y-63336525D01*
X143931328Y-63335135D01*
X143932999Y-63327452D01*
X143932999Y-62906017D01*
X143932805Y-62901080D01*
X143930570Y-62872664D01*
X143928270Y-62860069D01*
X143885893Y-62714210D01*
X143879648Y-62699779D01*
X143803089Y-62570322D01*
X143793449Y-62557896D01*
X143681498Y-62445945D01*
X143683226Y-62444217D01*
X143648767Y-62396492D01*
X143644923Y-62325599D01*
X143680017Y-62263883D01*
X143742906Y-62230936D01*
X143767564Y-62228500D01*
X143830406Y-62228500D01*
X143898527Y-62248502D01*
X143919501Y-62265405D01*
X147919595Y-66265499D01*
X147953621Y-66327811D01*
X147956500Y-66354594D01*
X147956500Y-106611405D01*
X147936498Y-106679526D01*
X147882842Y-106726019D01*
X147812568Y-106736123D01*
X147747988Y-106706629D01*
X147741405Y-106700500D01*
X147705405Y-106664500D01*
X147671379Y-106602188D01*
X147668500Y-106575405D01*
X147668500Y-106266268D01*
X147657887Y-106163981D01*
X147640211Y-106111000D01*
X147606073Y-106008676D01*
X147606072Y-106008674D01*
X147603756Y-106001732D01*
X147582317Y-105967086D01*
X147517606Y-105862515D01*
X147513752Y-105856287D01*
X147392702Y-105735448D01*
X147247101Y-105645698D01*
X147084757Y-105591851D01*
X147077920Y-105591151D01*
X147077918Y-105591150D01*
X147036599Y-105586917D01*
X146983732Y-105581500D01*
X146674595Y-105581500D01*
X146606474Y-105561498D01*
X146585499Y-105544595D01*
X145665404Y-104624499D01*
X145631379Y-104562187D01*
X145628500Y-104535404D01*
X145628500Y-104216866D01*
X145621745Y-104154684D01*
X145570615Y-104018295D01*
X145483261Y-103901739D01*
X145366705Y-103814385D01*
X145230316Y-103763255D01*
X145168134Y-103756500D01*
X143071866Y-103756500D01*
X143009684Y-103763255D01*
X142873295Y-103814385D01*
X142756739Y-103901739D01*
X142669385Y-104018295D01*
X142618255Y-104154684D01*
X142611500Y-104216866D01*
X142611500Y-105813134D01*
X142611869Y-105816531D01*
X142612185Y-105819440D01*
X142618255Y-105875316D01*
X142669385Y-106011705D01*
X142674770Y-106018890D01*
X142674771Y-106018892D01*
X142727640Y-106089435D01*
X142752488Y-106155942D01*
X142737435Y-106225324D01*
X142727640Y-106240565D01*
X142708377Y-106266268D01*
X142669385Y-106318295D01*
X142618255Y-106454684D01*
X142611500Y-106516866D01*
X142611500Y-106555500D01*
X142591498Y-106623621D01*
X142537842Y-106670114D01*
X142485500Y-106681500D01*
X139454500Y-106681500D01*
X139386379Y-106661498D01*
X139339886Y-106607842D01*
X139328500Y-106555500D01*
X139328500Y-105366866D01*
X139321745Y-105304684D01*
X139270615Y-105168295D01*
X139183261Y-105051739D01*
X139066705Y-104964385D01*
X138930316Y-104913255D01*
X138868134Y-104906500D01*
X136771866Y-104906500D01*
X136709684Y-104913255D01*
X136573295Y-104964385D01*
X136456739Y-105051739D01*
X136369385Y-105168295D01*
X136318255Y-105304684D01*
X136311500Y-105366866D01*
X136310970Y-105366808D01*
X136288166Y-105431349D01*
X136232078Y-105474876D01*
X136161361Y-105481170D01*
X136119887Y-105464864D01*
X136058755Y-105427183D01*
X136045576Y-105421037D01*
X135891290Y-105369862D01*
X135877914Y-105366995D01*
X135783562Y-105357328D01*
X135777145Y-105357000D01*
X135527115Y-105357000D01*
X135511876Y-105361475D01*
X135510671Y-105362865D01*
X135509000Y-105370548D01*
X135509000Y-106493000D01*
X135488998Y-106561121D01*
X135435342Y-106607614D01*
X135383000Y-106619000D01*
X134040116Y-106619000D01*
X134024877Y-106623475D01*
X134023672Y-106624865D01*
X134022001Y-106632548D01*
X134022001Y-106662095D01*
X134022338Y-106668614D01*
X134032257Y-106764206D01*
X134035149Y-106777600D01*
X134086588Y-106931784D01*
X134092761Y-106944962D01*
X134178063Y-107082807D01*
X134187099Y-107094208D01*
X134301828Y-107208738D01*
X134310762Y-107215794D01*
X134351823Y-107273712D01*
X134355053Y-107344635D01*
X134319426Y-107406046D01*
X134311593Y-107412846D01*
X134305652Y-107416522D01*
X134180695Y-107541697D01*
X134087885Y-107692262D01*
X134032203Y-107860139D01*
X134021500Y-107964600D01*
X134021500Y-108565400D01*
X134021837Y-108568646D01*
X134021837Y-108568650D01*
X134030592Y-108653023D01*
X134032474Y-108671166D01*
X134034655Y-108677702D01*
X134034655Y-108677704D01*
X134068308Y-108778574D01*
X134088450Y-108838946D01*
X134181522Y-108989348D01*
X134306697Y-109114305D01*
X134312927Y-109118145D01*
X134312928Y-109118146D01*
X134450090Y-109202694D01*
X134457262Y-109207115D01*
X134503963Y-109222605D01*
X134618611Y-109260632D01*
X134618613Y-109260632D01*
X134625139Y-109262797D01*
X134631975Y-109263497D01*
X134631978Y-109263498D01*
X134675031Y-109267909D01*
X134729600Y-109273500D01*
X135780400Y-109273500D01*
X135783646Y-109273163D01*
X135783650Y-109273163D01*
X135879308Y-109263238D01*
X135879312Y-109263237D01*
X135886166Y-109262526D01*
X135892702Y-109260345D01*
X135892704Y-109260345D01*
X136024806Y-109216272D01*
X136053946Y-109206550D01*
X136119730Y-109165841D01*
X136188183Y-109147003D01*
X136255953Y-109168164D01*
X136301524Y-109222605D01*
X136311136Y-109263174D01*
X136311500Y-109263134D01*
X136311868Y-109266520D01*
X136311868Y-109266523D01*
X136312589Y-109273163D01*
X136318255Y-109325316D01*
X136369385Y-109461705D01*
X136456739Y-109578261D01*
X136573295Y-109665615D01*
X136709684Y-109716745D01*
X136771866Y-109723500D01*
X138868134Y-109723500D01*
X138930316Y-109716745D01*
X139066705Y-109665615D01*
X139183261Y-109578261D01*
X139270615Y-109461705D01*
X139321745Y-109325316D01*
X139328500Y-109263134D01*
X139328500Y-108074500D01*
X139348502Y-108006379D01*
X139402158Y-107959886D01*
X139454500Y-107948500D01*
X142485500Y-107948500D01*
X142553621Y-107968502D01*
X142600114Y-108022158D01*
X142611500Y-108074500D01*
X142611500Y-108113134D01*
X142618255Y-108175316D01*
X142669385Y-108311705D01*
X142705580Y-108360000D01*
X142727953Y-108389852D01*
X142752801Y-108456358D01*
X142737748Y-108525741D01*
X142727953Y-108540982D01*
X142675214Y-108611352D01*
X142666676Y-108626946D01*
X142621522Y-108747394D01*
X142617895Y-108762649D01*
X142612369Y-108813514D01*
X142612000Y-108820328D01*
X142612000Y-109342885D01*
X142616475Y-109358124D01*
X142617865Y-109359329D01*
X142625548Y-109361000D01*
X144248000Y-109361000D01*
X144316121Y-109381002D01*
X144362614Y-109434658D01*
X144374000Y-109487000D01*
X144374000Y-109743000D01*
X144353998Y-109811121D01*
X144300342Y-109857614D01*
X144248000Y-109869000D01*
X142630116Y-109869000D01*
X142614877Y-109873475D01*
X142613672Y-109874865D01*
X142612001Y-109882548D01*
X142612001Y-110409669D01*
X142612371Y-110416490D01*
X142617895Y-110467352D01*
X142621521Y-110482604D01*
X142666676Y-110603054D01*
X142675214Y-110618648D01*
X142724893Y-110684935D01*
X142749741Y-110751441D01*
X142734688Y-110820824D01*
X142684514Y-110871054D01*
X142624067Y-110886500D01*
X138621866Y-110886500D01*
X138559684Y-110893255D01*
X138423295Y-110944385D01*
X138306739Y-111031739D01*
X138219385Y-111148295D01*
X138168255Y-111284684D01*
X138161500Y-111346866D01*
X138161500Y-113443134D01*
X138168255Y-113505316D01*
X138219385Y-113641705D01*
X138306739Y-113758261D01*
X138423295Y-113845615D01*
X138559684Y-113896745D01*
X138621866Y-113903500D01*
X143318134Y-113903500D01*
X143380316Y-113896745D01*
X143516705Y-113845615D01*
X143633261Y-113758261D01*
X143720615Y-113641705D01*
X143771745Y-113505316D01*
X143778500Y-113443134D01*
X143778500Y-113106775D01*
X143798502Y-113038654D01*
X143852158Y-112992161D01*
X143869345Y-112985779D01*
X143878117Y-112983230D01*
X143885731Y-112981018D01*
X143892550Y-112976985D01*
X143892555Y-112976983D01*
X143903166Y-112970707D01*
X143920914Y-112962012D01*
X143939755Y-112954552D01*
X143975525Y-112928564D01*
X143985445Y-112922048D01*
X144016673Y-112903580D01*
X144016676Y-112903578D01*
X144023500Y-112899542D01*
X144037821Y-112885221D01*
X144052855Y-112872380D01*
X144062832Y-112865131D01*
X144069245Y-112860472D01*
X144097436Y-112826395D01*
X144105426Y-112817616D01*
X147741405Y-109181638D01*
X147803717Y-109147612D01*
X147874533Y-109152677D01*
X147931368Y-109195224D01*
X147956179Y-109261744D01*
X147956500Y-109270733D01*
X147956500Y-113356233D01*
X147955973Y-113367416D01*
X147954298Y-113374909D01*
X147954547Y-113382835D01*
X147954547Y-113382836D01*
X147956438Y-113442986D01*
X147956500Y-113446945D01*
X147956500Y-113474856D01*
X147956997Y-113478790D01*
X147956997Y-113478791D01*
X147957005Y-113478856D01*
X147957938Y-113490693D01*
X147959327Y-113534889D01*
X147964978Y-113554339D01*
X147968987Y-113573700D01*
X147971526Y-113593797D01*
X147974445Y-113601168D01*
X147974445Y-113601170D01*
X147987804Y-113634912D01*
X147991649Y-113646142D01*
X148003982Y-113688593D01*
X148008015Y-113695412D01*
X148008017Y-113695417D01*
X148014293Y-113706028D01*
X148022988Y-113723776D01*
X148030448Y-113742617D01*
X148035110Y-113749033D01*
X148035110Y-113749034D01*
X148056436Y-113778387D01*
X148062952Y-113788307D01*
X148080886Y-113818631D01*
X148085458Y-113826362D01*
X148099779Y-113840683D01*
X148112619Y-113855716D01*
X148124528Y-113872107D01*
X148130634Y-113877158D01*
X148158605Y-113900298D01*
X148167384Y-113908288D01*
X149779778Y-115520682D01*
X149813804Y-115582994D01*
X149812100Y-115643448D01*
X149790989Y-115719570D01*
X149790441Y-115724700D01*
X149790440Y-115724704D01*
X149786950Y-115757361D01*
X149767251Y-115941695D01*
X149767548Y-115946848D01*
X149767548Y-115946851D01*
X149773106Y-116043240D01*
X149780110Y-116164715D01*
X149781247Y-116169761D01*
X149781248Y-116169767D01*
X149802246Y-116262939D01*
X149829222Y-116382639D01*
X149913266Y-116589616D01*
X150029987Y-116780088D01*
X150176250Y-116948938D01*
X150348126Y-117091632D01*
X150541000Y-117204338D01*
X150545825Y-117206180D01*
X150545826Y-117206181D01*
X150580417Y-117219390D01*
X150749692Y-117284030D01*
X150754760Y-117285061D01*
X150754763Y-117285062D01*
X150862017Y-117306883D01*
X150968597Y-117328567D01*
X150973772Y-117328757D01*
X150973774Y-117328757D01*
X151186673Y-117336564D01*
X151186677Y-117336564D01*
X151191837Y-117336753D01*
X151196957Y-117336097D01*
X151196959Y-117336097D01*
X151408288Y-117309025D01*
X151408289Y-117309025D01*
X151413416Y-117308368D01*
X151436085Y-117301567D01*
X151622429Y-117245661D01*
X151622434Y-117245659D01*
X151627384Y-117244174D01*
X151710070Y-117203666D01*
X151780041Y-117191660D01*
X151845398Y-117219390D01*
X151885388Y-117278052D01*
X151891500Y-117316818D01*
X151891500Y-125730500D01*
X151871498Y-125798621D01*
X151817842Y-125845114D01*
X151765500Y-125856500D01*
X131444500Y-125856500D01*
X131376379Y-125836498D01*
X131329886Y-125782842D01*
X131318500Y-125730500D01*
X131318500Y-118966114D01*
X138383275Y-118966114D01*
X138385325Y-118983830D01*
X138387285Y-118993727D01*
X138450604Y-119217494D01*
X138454116Y-119226938D01*
X138552399Y-119437705D01*
X138557378Y-119446471D01*
X138688087Y-119638802D01*
X138694419Y-119646677D01*
X138854186Y-119815626D01*
X138861695Y-119822387D01*
X139046426Y-119963625D01*
X139054905Y-119969089D01*
X139259847Y-120078978D01*
X139269099Y-120083020D01*
X139488971Y-120158727D01*
X139498743Y-120161236D01*
X139728971Y-120201004D01*
X139736843Y-120201859D01*
X139760551Y-120202936D01*
X139763384Y-120203000D01*
X140697885Y-120203000D01*
X140713124Y-120198525D01*
X140714329Y-120197135D01*
X140716000Y-120189452D01*
X140716000Y-120184885D01*
X141224000Y-120184885D01*
X141228475Y-120200124D01*
X141229865Y-120201329D01*
X141237548Y-120203000D01*
X142128456Y-120203000D01*
X142133488Y-120202798D01*
X142306843Y-120188850D01*
X142316796Y-120187238D01*
X142542633Y-120131767D01*
X142552203Y-120128584D01*
X142766265Y-120037720D01*
X142775207Y-120033045D01*
X142971987Y-119909126D01*
X142980060Y-119903086D01*
X143154500Y-119749297D01*
X143161504Y-119742044D01*
X143309110Y-119562346D01*
X143314866Y-119554064D01*
X143431841Y-119353081D01*
X143436203Y-119343976D01*
X143519537Y-119126885D01*
X143522388Y-119117196D01*
X143553821Y-118966736D01*
X143552698Y-118952675D01*
X143542590Y-118949000D01*
X141242115Y-118949000D01*
X141226876Y-118953475D01*
X141225671Y-118954865D01*
X141224000Y-118962548D01*
X141224000Y-120184885D01*
X140716000Y-120184885D01*
X140716000Y-118967115D01*
X140711525Y-118951876D01*
X140710135Y-118950671D01*
X140702452Y-118949000D01*
X138399410Y-118949000D01*
X138385324Y-118953136D01*
X138383275Y-118966114D01*
X131318500Y-118966114D01*
X131318500Y-118423264D01*
X138386179Y-118423264D01*
X138387302Y-118437325D01*
X138397410Y-118441000D01*
X140697885Y-118441000D01*
X140713124Y-118436525D01*
X140714329Y-118435135D01*
X140716000Y-118427452D01*
X140716000Y-118422885D01*
X141224000Y-118422885D01*
X141228475Y-118438124D01*
X141229865Y-118439329D01*
X141237548Y-118441000D01*
X143540590Y-118441000D01*
X143554676Y-118436864D01*
X143556725Y-118423886D01*
X143554675Y-118406170D01*
X143552715Y-118396273D01*
X143489396Y-118172506D01*
X143485884Y-118163062D01*
X143387601Y-117952295D01*
X143382622Y-117943529D01*
X143251913Y-117751198D01*
X143245581Y-117743323D01*
X143085814Y-117574374D01*
X143078305Y-117567613D01*
X142893574Y-117426375D01*
X142885095Y-117420911D01*
X142680153Y-117311022D01*
X142670901Y-117306980D01*
X142451029Y-117231273D01*
X142441257Y-117228764D01*
X142211029Y-117188996D01*
X142203157Y-117188141D01*
X142179449Y-117187064D01*
X142176616Y-117187000D01*
X141242115Y-117187000D01*
X141226876Y-117191475D01*
X141225671Y-117192865D01*
X141224000Y-117200548D01*
X141224000Y-118422885D01*
X140716000Y-118422885D01*
X140716000Y-117205115D01*
X140711525Y-117189876D01*
X140710135Y-117188671D01*
X140702452Y-117187000D01*
X139811544Y-117187000D01*
X139806512Y-117187202D01*
X139633157Y-117201150D01*
X139623204Y-117202762D01*
X139397367Y-117258233D01*
X139387797Y-117261416D01*
X139173735Y-117352280D01*
X139164793Y-117356955D01*
X138968013Y-117480874D01*
X138959940Y-117486914D01*
X138785500Y-117640703D01*
X138778496Y-117647956D01*
X138630890Y-117827654D01*
X138625134Y-117835936D01*
X138508159Y-118036919D01*
X138503797Y-118046024D01*
X138420463Y-118263115D01*
X138417612Y-118272804D01*
X138386179Y-118423264D01*
X131318500Y-118423264D01*
X131318500Y-117316414D01*
X131338502Y-117248293D01*
X131392158Y-117201800D01*
X131462432Y-117191696D01*
X131501477Y-117205324D01*
X131501874Y-117204496D01*
X131506539Y-117206731D01*
X131511000Y-117209338D01*
X131515825Y-117211180D01*
X131515826Y-117211181D01*
X131535899Y-117218846D01*
X131719692Y-117289030D01*
X131724760Y-117290061D01*
X131724763Y-117290062D01*
X131817970Y-117309025D01*
X131938597Y-117333567D01*
X131943772Y-117333757D01*
X131943774Y-117333757D01*
X132156673Y-117341564D01*
X132156677Y-117341564D01*
X132161837Y-117341753D01*
X132166957Y-117341097D01*
X132166959Y-117341097D01*
X132378288Y-117314025D01*
X132378289Y-117314025D01*
X132383416Y-117313368D01*
X132400082Y-117308368D01*
X132592429Y-117250661D01*
X132592434Y-117250659D01*
X132597384Y-117249174D01*
X132797994Y-117150896D01*
X132979860Y-117021173D01*
X132995737Y-117005352D01*
X133134435Y-116867137D01*
X133138096Y-116863489D01*
X133195222Y-116783990D01*
X133265435Y-116686277D01*
X133268453Y-116682077D01*
X133288322Y-116641876D01*
X133365136Y-116486453D01*
X133365137Y-116486451D01*
X133367430Y-116481811D01*
X133375272Y-116456001D01*
X144261500Y-116456001D01*
X144261702Y-116458509D01*
X144261702Y-116458514D01*
X144272605Y-116594020D01*
X144276060Y-116636965D01*
X144277266Y-116641873D01*
X144277266Y-116641876D01*
X144310249Y-116776158D01*
X144333963Y-116872706D01*
X144335938Y-116877358D01*
X144335939Y-116877362D01*
X144367723Y-116952240D01*
X144428812Y-117096156D01*
X144431510Y-117100440D01*
X144543359Y-117278052D01*
X144558167Y-117301567D01*
X144581060Y-117327534D01*
X144715350Y-117479858D01*
X144715353Y-117479861D01*
X144718698Y-117483655D01*
X144722606Y-117486865D01*
X144722607Y-117486866D01*
X144829242Y-117574456D01*
X144906278Y-117637734D01*
X145116078Y-117759841D01*
X145120801Y-117761654D01*
X145337978Y-117845020D01*
X145337982Y-117845021D01*
X145342702Y-117846833D01*
X145347652Y-117847867D01*
X145347655Y-117847868D01*
X145575369Y-117895440D01*
X145575373Y-117895440D01*
X145580320Y-117896474D01*
X145822817Y-117907486D01*
X145827837Y-117906905D01*
X145827841Y-117906905D01*
X146058929Y-117880167D01*
X146058933Y-117880166D01*
X146063956Y-117879585D01*
X146068820Y-117878209D01*
X146068823Y-117878208D01*
X146292669Y-117814866D01*
X146292668Y-117814866D01*
X146297532Y-117813490D01*
X146302108Y-117811356D01*
X146302114Y-117811354D01*
X146512954Y-117713038D01*
X146512958Y-117713036D01*
X146517536Y-117710901D01*
X146718307Y-117574456D01*
X146894681Y-117407668D01*
X146933454Y-117356955D01*
X147039047Y-117218846D01*
X147039050Y-117218842D01*
X147042120Y-117214826D01*
X147046756Y-117206181D01*
X147154439Y-117005352D01*
X147156831Y-117000891D01*
X147235862Y-116771369D01*
X147267256Y-116589616D01*
X147276504Y-116536074D01*
X147276505Y-116536068D01*
X147277179Y-116532164D01*
X147278500Y-116503075D01*
X147278500Y-114133999D01*
X147278298Y-114131486D01*
X147264346Y-113958076D01*
X147264345Y-113958071D01*
X147263940Y-113953035D01*
X147262324Y-113946453D01*
X147207244Y-113722208D01*
X147206037Y-113717294D01*
X147173952Y-113641705D01*
X147129981Y-113538117D01*
X147111188Y-113493844D01*
X146981833Y-113288433D01*
X146912245Y-113209500D01*
X146824650Y-113110142D01*
X146824647Y-113110139D01*
X146821302Y-113106345D01*
X146714993Y-113019022D01*
X146637628Y-112955474D01*
X146637625Y-112955472D01*
X146633722Y-112952266D01*
X146447669Y-112843980D01*
X146428290Y-112832701D01*
X146428288Y-112832700D01*
X146423922Y-112830159D01*
X146391246Y-112817616D01*
X146202022Y-112744980D01*
X146202018Y-112744979D01*
X146197298Y-112743167D01*
X146192348Y-112742133D01*
X146192345Y-112742132D01*
X145964631Y-112694560D01*
X145964627Y-112694560D01*
X145959680Y-112693526D01*
X145717183Y-112682514D01*
X145712163Y-112683095D01*
X145712159Y-112683095D01*
X145481071Y-112709833D01*
X145481067Y-112709834D01*
X145476044Y-112710415D01*
X145471180Y-112711791D01*
X145471177Y-112711792D01*
X145363958Y-112742132D01*
X145242468Y-112776510D01*
X145237892Y-112778644D01*
X145237886Y-112778646D01*
X145027046Y-112876962D01*
X145027042Y-112876964D01*
X145022464Y-112879099D01*
X145018283Y-112881940D01*
X145018282Y-112881941D01*
X144992383Y-112899542D01*
X144821693Y-113015544D01*
X144645319Y-113182332D01*
X144642241Y-113186358D01*
X144642240Y-113186359D01*
X144500953Y-113371154D01*
X144500950Y-113371158D01*
X144497880Y-113375174D01*
X144495490Y-113379632D01*
X144495489Y-113379633D01*
X144461440Y-113443134D01*
X144383169Y-113589109D01*
X144304138Y-113818631D01*
X144262821Y-114057836D01*
X144261500Y-114086925D01*
X144261500Y-116456001D01*
X133375272Y-116456001D01*
X133432370Y-116268069D01*
X133461529Y-116046590D01*
X133463156Y-115980000D01*
X133444852Y-115757361D01*
X133390431Y-115540702D01*
X133301354Y-115335840D01*
X133180014Y-115148277D01*
X133029670Y-114983051D01*
X133025619Y-114979852D01*
X133025615Y-114979848D01*
X132858414Y-114847800D01*
X132858410Y-114847798D01*
X132854359Y-114844598D01*
X132813053Y-114821796D01*
X132763084Y-114771364D01*
X132748312Y-114701921D01*
X132773428Y-114635516D01*
X132800780Y-114608909D01*
X132844603Y-114577650D01*
X132979860Y-114481173D01*
X133138096Y-114323489D01*
X133268453Y-114142077D01*
X133271201Y-114136518D01*
X133365136Y-113946453D01*
X133365137Y-113946451D01*
X133367430Y-113941811D01*
X133423197Y-113758261D01*
X133430865Y-113733023D01*
X133430865Y-113733021D01*
X133432370Y-113728069D01*
X133461529Y-113506590D01*
X133461752Y-113497460D01*
X133463074Y-113443365D01*
X133463074Y-113443361D01*
X133463156Y-113440000D01*
X133444852Y-113217361D01*
X133390431Y-113000702D01*
X133301354Y-112795840D01*
X133180014Y-112608277D01*
X133029670Y-112443051D01*
X133025619Y-112439852D01*
X133025615Y-112439848D01*
X132858414Y-112307800D01*
X132858410Y-112307798D01*
X132854359Y-112304598D01*
X132845302Y-112299598D01*
X132812569Y-112281529D01*
X132762598Y-112231097D01*
X132747826Y-112161654D01*
X132772942Y-112095248D01*
X132800294Y-112068641D01*
X132975328Y-111943792D01*
X132983200Y-111937139D01*
X133134052Y-111786812D01*
X133140730Y-111778965D01*
X133265003Y-111606020D01*
X133270313Y-111597183D01*
X133364670Y-111406267D01*
X133368469Y-111396672D01*
X133430377Y-111192910D01*
X133432555Y-111182837D01*
X133433986Y-111171962D01*
X133431775Y-111157778D01*
X133418617Y-111154000D01*
X131972000Y-111154000D01*
X131903879Y-111133998D01*
X131857386Y-111080342D01*
X131846000Y-111028000D01*
X131846000Y-110772000D01*
X131866002Y-110703879D01*
X131919658Y-110657386D01*
X131972000Y-110646000D01*
X133418344Y-110646000D01*
X133431875Y-110642027D01*
X133433180Y-110632947D01*
X133391214Y-110465875D01*
X133387894Y-110456124D01*
X133302972Y-110260814D01*
X133298105Y-110251739D01*
X133182426Y-110072926D01*
X133176136Y-110064757D01*
X133032806Y-109907240D01*
X133025273Y-109900215D01*
X132858139Y-109768222D01*
X132849556Y-109762520D01*
X132812602Y-109742120D01*
X132762631Y-109691687D01*
X132747859Y-109622245D01*
X132772975Y-109555839D01*
X132800327Y-109529232D01*
X132859534Y-109487000D01*
X132979860Y-109401173D01*
X133021851Y-109359329D01*
X133108318Y-109273163D01*
X133138096Y-109243489D01*
X133193892Y-109165841D01*
X133265435Y-109066277D01*
X133268453Y-109062077D01*
X133354000Y-108888986D01*
X133365136Y-108866453D01*
X133365137Y-108866451D01*
X133367430Y-108861811D01*
X133432370Y-108648069D01*
X133461529Y-108426590D01*
X133463156Y-108360000D01*
X133444852Y-108137361D01*
X133390431Y-107920702D01*
X133301354Y-107715840D01*
X133180014Y-107528277D01*
X133029670Y-107363051D01*
X133025619Y-107359852D01*
X133025615Y-107359848D01*
X132858414Y-107227800D01*
X132858410Y-107227798D01*
X132854359Y-107224598D01*
X132813053Y-107201796D01*
X132763084Y-107151364D01*
X132748312Y-107081921D01*
X132773428Y-107015516D01*
X132800780Y-106988909D01*
X132862391Y-106944962D01*
X132979860Y-106861173D01*
X133138096Y-106703489D01*
X133143100Y-106696526D01*
X133265435Y-106526277D01*
X133268453Y-106522077D01*
X133271029Y-106516866D01*
X133365136Y-106326453D01*
X133365137Y-106326451D01*
X133367430Y-106321811D01*
X133432370Y-106108069D01*
X133434369Y-106092885D01*
X134022000Y-106092885D01*
X134026475Y-106108124D01*
X134027865Y-106109329D01*
X134035548Y-106111000D01*
X134982885Y-106111000D01*
X134998124Y-106106525D01*
X134999329Y-106105135D01*
X135001000Y-106097452D01*
X135001000Y-105375116D01*
X134996525Y-105359877D01*
X134995135Y-105358672D01*
X134987452Y-105357001D01*
X134732905Y-105357001D01*
X134726386Y-105357338D01*
X134630794Y-105367257D01*
X134617400Y-105370149D01*
X134463216Y-105421588D01*
X134450038Y-105427761D01*
X134312193Y-105513063D01*
X134300792Y-105522099D01*
X134186261Y-105636829D01*
X134177249Y-105648240D01*
X134092184Y-105786243D01*
X134086037Y-105799424D01*
X134034862Y-105953710D01*
X134031995Y-105967086D01*
X134022328Y-106061438D01*
X134022000Y-106067855D01*
X134022000Y-106092885D01*
X133434369Y-106092885D01*
X133461529Y-105886590D01*
X133461624Y-105882715D01*
X133463074Y-105823365D01*
X133463074Y-105823361D01*
X133463156Y-105820000D01*
X133444852Y-105597361D01*
X133390431Y-105380702D01*
X133301354Y-105175840D01*
X133261906Y-105114862D01*
X133182822Y-104992617D01*
X133182820Y-104992614D01*
X133180014Y-104988277D01*
X133029670Y-104823051D01*
X133025619Y-104819852D01*
X133025615Y-104819848D01*
X132858414Y-104687800D01*
X132858410Y-104687798D01*
X132854359Y-104684598D01*
X132813053Y-104661796D01*
X132763084Y-104611364D01*
X132748312Y-104541921D01*
X132773428Y-104475516D01*
X132800780Y-104448909D01*
X132844603Y-104417650D01*
X132979860Y-104321173D01*
X133138096Y-104163489D01*
X133268453Y-103982077D01*
X133308159Y-103901739D01*
X133365136Y-103786453D01*
X133365137Y-103786451D01*
X133367430Y-103781811D01*
X133432370Y-103568069D01*
X133461529Y-103346590D01*
X133463156Y-103280000D01*
X133444852Y-103057361D01*
X133390431Y-102840702D01*
X133301354Y-102635840D01*
X133180014Y-102448277D01*
X133029670Y-102283051D01*
X133025619Y-102279852D01*
X133025615Y-102279848D01*
X132858414Y-102147800D01*
X132858410Y-102147798D01*
X132854359Y-102144598D01*
X132813053Y-102121796D01*
X132763084Y-102071364D01*
X132748312Y-102001921D01*
X132773428Y-101935516D01*
X132800780Y-101908909D01*
X132844603Y-101877650D01*
X132979860Y-101781173D01*
X133128417Y-101633134D01*
X138996500Y-101633134D01*
X139003255Y-101695316D01*
X139054385Y-101831705D01*
X139141739Y-101948261D01*
X139258295Y-102035615D01*
X139394684Y-102086745D01*
X139456866Y-102093500D01*
X141253134Y-102093500D01*
X141315316Y-102086745D01*
X141451705Y-102035615D01*
X141568261Y-101948261D01*
X141655615Y-101831705D01*
X141677799Y-101772529D01*
X141699598Y-101714382D01*
X141742240Y-101657618D01*
X141808802Y-101632918D01*
X141878150Y-101648126D01*
X141912817Y-101676114D01*
X141941250Y-101708938D01*
X142113126Y-101851632D01*
X142306000Y-101964338D01*
X142310825Y-101966180D01*
X142310826Y-101966181D01*
X142383612Y-101993975D01*
X142514692Y-102044030D01*
X142519760Y-102045061D01*
X142519763Y-102045062D01*
X142614862Y-102064410D01*
X142733597Y-102088567D01*
X142738772Y-102088757D01*
X142738774Y-102088757D01*
X142951673Y-102096564D01*
X142951677Y-102096564D01*
X142956837Y-102096753D01*
X142961957Y-102096097D01*
X142961959Y-102096097D01*
X143173288Y-102069025D01*
X143173289Y-102069025D01*
X143178416Y-102068368D01*
X143183366Y-102066883D01*
X143387429Y-102005661D01*
X143387434Y-102005659D01*
X143392384Y-102004174D01*
X143592994Y-101905896D01*
X143774860Y-101776173D01*
X143933096Y-101618489D01*
X143957308Y-101584795D01*
X144063453Y-101437077D01*
X144064640Y-101437930D01*
X144111960Y-101394362D01*
X144181897Y-101382145D01*
X144247338Y-101409678D01*
X144275166Y-101441511D01*
X144332694Y-101535388D01*
X144338777Y-101543699D01*
X144478213Y-101704667D01*
X144485580Y-101711883D01*
X144649434Y-101847916D01*
X144657881Y-101853831D01*
X144841756Y-101961279D01*
X144851042Y-101965729D01*
X145050001Y-102041703D01*
X145059899Y-102044579D01*
X145163250Y-102065606D01*
X145177299Y-102064410D01*
X145181000Y-102054065D01*
X145181000Y-102053517D01*
X145689000Y-102053517D01*
X145693064Y-102067359D01*
X145706478Y-102069393D01*
X145713184Y-102068534D01*
X145723262Y-102066392D01*
X145927255Y-102005191D01*
X145936842Y-102001433D01*
X146128095Y-101907739D01*
X146136945Y-101902464D01*
X146310328Y-101778792D01*
X146318200Y-101772139D01*
X146469052Y-101621812D01*
X146475730Y-101613965D01*
X146600003Y-101441020D01*
X146605313Y-101432183D01*
X146699670Y-101241267D01*
X146703469Y-101231672D01*
X146765377Y-101027910D01*
X146767555Y-101017837D01*
X146768986Y-101006962D01*
X146766775Y-100992778D01*
X146753617Y-100989000D01*
X145707115Y-100989000D01*
X145691876Y-100993475D01*
X145690671Y-100994865D01*
X145689000Y-101002548D01*
X145689000Y-102053517D01*
X145181000Y-102053517D01*
X145181000Y-100462885D01*
X145689000Y-100462885D01*
X145693475Y-100478124D01*
X145694865Y-100479329D01*
X145702548Y-100481000D01*
X146753344Y-100481000D01*
X146766875Y-100477027D01*
X146768180Y-100467947D01*
X146726214Y-100300875D01*
X146722894Y-100291124D01*
X146637972Y-100095814D01*
X146633105Y-100086739D01*
X146517426Y-99907926D01*
X146511136Y-99899757D01*
X146367806Y-99742240D01*
X146360273Y-99735215D01*
X146193139Y-99603222D01*
X146184552Y-99597517D01*
X146147116Y-99576851D01*
X146097146Y-99526419D01*
X146082374Y-99456976D01*
X146107490Y-99390571D01*
X146134842Y-99363964D01*
X146310327Y-99238792D01*
X146318200Y-99232139D01*
X146469052Y-99081812D01*
X146475730Y-99073965D01*
X146600003Y-98901020D01*
X146605313Y-98892183D01*
X146699670Y-98701267D01*
X146703469Y-98691672D01*
X146765377Y-98487910D01*
X146767555Y-98477837D01*
X146768986Y-98466962D01*
X146766775Y-98452778D01*
X146753617Y-98449000D01*
X145707115Y-98449000D01*
X145691876Y-98453475D01*
X145690671Y-98454865D01*
X145689000Y-98462548D01*
X145689000Y-100462885D01*
X145181000Y-100462885D01*
X145181000Y-97922885D01*
X145689000Y-97922885D01*
X145693475Y-97938124D01*
X145694865Y-97939329D01*
X145702548Y-97941000D01*
X146753344Y-97941000D01*
X146766875Y-97937027D01*
X146768180Y-97927947D01*
X146726214Y-97760875D01*
X146722894Y-97751124D01*
X146637972Y-97555814D01*
X146633105Y-97546739D01*
X146517426Y-97367926D01*
X146511136Y-97359757D01*
X146367806Y-97202240D01*
X146360273Y-97195215D01*
X146193139Y-97063222D01*
X146184552Y-97057517D01*
X146147116Y-97036851D01*
X146097146Y-96986419D01*
X146082374Y-96916976D01*
X146107490Y-96850571D01*
X146134842Y-96823964D01*
X146310327Y-96698792D01*
X146318200Y-96692139D01*
X146469052Y-96541812D01*
X146475730Y-96533965D01*
X146600003Y-96361020D01*
X146605313Y-96352183D01*
X146699670Y-96161267D01*
X146703469Y-96151672D01*
X146765377Y-95947910D01*
X146767555Y-95937837D01*
X146768986Y-95926962D01*
X146766775Y-95912778D01*
X146753617Y-95909000D01*
X145707115Y-95909000D01*
X145691876Y-95913475D01*
X145690671Y-95914865D01*
X145689000Y-95922548D01*
X145689000Y-97922885D01*
X145181000Y-97922885D01*
X145181000Y-95382885D01*
X145689000Y-95382885D01*
X145693475Y-95398124D01*
X145694865Y-95399329D01*
X145702548Y-95401000D01*
X146753344Y-95401000D01*
X146766875Y-95397027D01*
X146768180Y-95387947D01*
X146726214Y-95220875D01*
X146722894Y-95211124D01*
X146637972Y-95015814D01*
X146633105Y-95006739D01*
X146517426Y-94827926D01*
X146511136Y-94819757D01*
X146367806Y-94662240D01*
X146360273Y-94655215D01*
X146193139Y-94523222D01*
X146184552Y-94517517D01*
X146147116Y-94496851D01*
X146097146Y-94446419D01*
X146082374Y-94376976D01*
X146107490Y-94310571D01*
X146134842Y-94283964D01*
X146310327Y-94158792D01*
X146318200Y-94152139D01*
X146469052Y-94001812D01*
X146475730Y-93993965D01*
X146600003Y-93821020D01*
X146605313Y-93812183D01*
X146699670Y-93621267D01*
X146703469Y-93611672D01*
X146765377Y-93407910D01*
X146767555Y-93397837D01*
X146768986Y-93386962D01*
X146766775Y-93372778D01*
X146753617Y-93369000D01*
X145707115Y-93369000D01*
X145691876Y-93373475D01*
X145690671Y-93374865D01*
X145689000Y-93382548D01*
X145689000Y-95382885D01*
X145181000Y-95382885D01*
X145181000Y-92842885D01*
X145689000Y-92842885D01*
X145693475Y-92858124D01*
X145694865Y-92859329D01*
X145702548Y-92861000D01*
X146753344Y-92861000D01*
X146766875Y-92857027D01*
X146768180Y-92847947D01*
X146726214Y-92680875D01*
X146722894Y-92671124D01*
X146637972Y-92475814D01*
X146633105Y-92466739D01*
X146517426Y-92287926D01*
X146511136Y-92279757D01*
X146367806Y-92122240D01*
X146360273Y-92115215D01*
X146193139Y-91983222D01*
X146184552Y-91977517D01*
X145998117Y-91874599D01*
X145988705Y-91870369D01*
X145787959Y-91799280D01*
X145777988Y-91796646D01*
X145706837Y-91783972D01*
X145693540Y-91785432D01*
X145689000Y-91799989D01*
X145689000Y-92842885D01*
X145181000Y-92842885D01*
X145181000Y-91798102D01*
X145177082Y-91784758D01*
X145162806Y-91782771D01*
X145124324Y-91788660D01*
X145114288Y-91791051D01*
X144911868Y-91857212D01*
X144902359Y-91861209D01*
X144713463Y-91959542D01*
X144704738Y-91965036D01*
X144534433Y-92092905D01*
X144526726Y-92099748D01*
X144379590Y-92253717D01*
X144373109Y-92261722D01*
X144268498Y-92415074D01*
X144213587Y-92460076D01*
X144143062Y-92468247D01*
X144079315Y-92436993D01*
X144058618Y-92412509D01*
X143977822Y-92287617D01*
X143977820Y-92287614D01*
X143975014Y-92283277D01*
X143824670Y-92118051D01*
X143820619Y-92114852D01*
X143820615Y-92114848D01*
X143653414Y-91982800D01*
X143653410Y-91982798D01*
X143649359Y-91979598D01*
X143617113Y-91961797D01*
X143544420Y-91921669D01*
X143453789Y-91871638D01*
X143448920Y-91869914D01*
X143448916Y-91869912D01*
X143248087Y-91798795D01*
X143248083Y-91798794D01*
X143243212Y-91797069D01*
X143238119Y-91796162D01*
X143238116Y-91796161D01*
X143028373Y-91758800D01*
X143028367Y-91758799D01*
X143023284Y-91757894D01*
X142949452Y-91756992D01*
X142805081Y-91755228D01*
X142805079Y-91755228D01*
X142799911Y-91755165D01*
X142579091Y-91788955D01*
X142366756Y-91858357D01*
X142168607Y-91961507D01*
X142164474Y-91964610D01*
X142164471Y-91964612D01*
X141994100Y-92092530D01*
X141989965Y-92095635D01*
X141923783Y-92164891D01*
X141909283Y-92180064D01*
X141847759Y-92215494D01*
X141776846Y-92212037D01*
X141719060Y-92170791D01*
X141700207Y-92137243D01*
X141658767Y-92026703D01*
X141655615Y-92018295D01*
X141568261Y-91901739D01*
X141451705Y-91814385D01*
X141315316Y-91763255D01*
X141253134Y-91756500D01*
X139456866Y-91756500D01*
X139394684Y-91763255D01*
X139258295Y-91814385D01*
X139141739Y-91901739D01*
X139054385Y-92018295D01*
X139003255Y-92154684D01*
X138996500Y-92216866D01*
X138996500Y-94013134D01*
X139003255Y-94075316D01*
X139054385Y-94211705D01*
X139127630Y-94309435D01*
X139152478Y-94375941D01*
X139137425Y-94445324D01*
X139127632Y-94460562D01*
X139054385Y-94558295D01*
X139003255Y-94694684D01*
X138996500Y-94756866D01*
X138996500Y-96553134D01*
X139003255Y-96615316D01*
X139054385Y-96751705D01*
X139127630Y-96849435D01*
X139152478Y-96915941D01*
X139137425Y-96985324D01*
X139127632Y-97000562D01*
X139054385Y-97098295D01*
X139003255Y-97234684D01*
X138996500Y-97296866D01*
X138996500Y-99093134D01*
X139003255Y-99155316D01*
X139054385Y-99291705D01*
X139127630Y-99389435D01*
X139152478Y-99455941D01*
X139137425Y-99525324D01*
X139127632Y-99540562D01*
X139054385Y-99638295D01*
X139003255Y-99774684D01*
X138996500Y-99836866D01*
X138996500Y-101633134D01*
X133128417Y-101633134D01*
X133138096Y-101623489D01*
X133268453Y-101442077D01*
X133284466Y-101409678D01*
X133365136Y-101246453D01*
X133365137Y-101246451D01*
X133367430Y-101241811D01*
X133432370Y-101028069D01*
X133461529Y-100806590D01*
X133463156Y-100740000D01*
X133444852Y-100517361D01*
X133390431Y-100300702D01*
X133301354Y-100095840D01*
X133180014Y-99908277D01*
X133029670Y-99743051D01*
X133025619Y-99739852D01*
X133025615Y-99739848D01*
X132858414Y-99607800D01*
X132858410Y-99607798D01*
X132854359Y-99604598D01*
X132845302Y-99599598D01*
X132812569Y-99581529D01*
X132762598Y-99531097D01*
X132747826Y-99461654D01*
X132772942Y-99395248D01*
X132800294Y-99368641D01*
X132975328Y-99243792D01*
X132983200Y-99237139D01*
X133134052Y-99086812D01*
X133140730Y-99078965D01*
X133265003Y-98906020D01*
X133270313Y-98897183D01*
X133364670Y-98706267D01*
X133368469Y-98696672D01*
X133430377Y-98492910D01*
X133432555Y-98482837D01*
X133433986Y-98471962D01*
X133431775Y-98457778D01*
X133418617Y-98454000D01*
X131972000Y-98454000D01*
X131903879Y-98433998D01*
X131857386Y-98380342D01*
X131846000Y-98328000D01*
X131846000Y-98072000D01*
X131866002Y-98003879D01*
X131919658Y-97957386D01*
X131972000Y-97946000D01*
X133418344Y-97946000D01*
X133431875Y-97942027D01*
X133433180Y-97932947D01*
X133391214Y-97765875D01*
X133387894Y-97756124D01*
X133302972Y-97560814D01*
X133298105Y-97551739D01*
X133182426Y-97372926D01*
X133176136Y-97364757D01*
X133032806Y-97207240D01*
X133025273Y-97200215D01*
X132858139Y-97068222D01*
X132849556Y-97062520D01*
X132812602Y-97042120D01*
X132762631Y-96991687D01*
X132747859Y-96922245D01*
X132772975Y-96855839D01*
X132800327Y-96829232D01*
X132823797Y-96812491D01*
X132979860Y-96701173D01*
X133138096Y-96543489D01*
X133268453Y-96362077D01*
X133284466Y-96329678D01*
X133365136Y-96166453D01*
X133365137Y-96166451D01*
X133367430Y-96161811D01*
X133432370Y-95948069D01*
X133461529Y-95726590D01*
X133463156Y-95660000D01*
X133444852Y-95437361D01*
X133390431Y-95220702D01*
X133301354Y-95015840D01*
X133180014Y-94828277D01*
X133029670Y-94663051D01*
X133025619Y-94659852D01*
X133025615Y-94659848D01*
X132858414Y-94527800D01*
X132858410Y-94527798D01*
X132854359Y-94524598D01*
X132813053Y-94501796D01*
X132763084Y-94451364D01*
X132748312Y-94381921D01*
X132773428Y-94315516D01*
X132800780Y-94288909D01*
X132844603Y-94257650D01*
X132979860Y-94161173D01*
X133138096Y-94003489D01*
X133268453Y-93822077D01*
X133284466Y-93789678D01*
X133365136Y-93626453D01*
X133365137Y-93626451D01*
X133367430Y-93621811D01*
X133432370Y-93408069D01*
X133461529Y-93186590D01*
X133463156Y-93120000D01*
X133444852Y-92897361D01*
X133390431Y-92680702D01*
X133301354Y-92475840D01*
X133180014Y-92288277D01*
X133029670Y-92123051D01*
X133025619Y-92119852D01*
X133025615Y-92119848D01*
X132858414Y-91987800D01*
X132858410Y-91987798D01*
X132854359Y-91984598D01*
X132813053Y-91961796D01*
X132763084Y-91911364D01*
X132748312Y-91841921D01*
X132773428Y-91775516D01*
X132800780Y-91748909D01*
X132844603Y-91717650D01*
X132979860Y-91621173D01*
X133138096Y-91463489D01*
X133268453Y-91282077D01*
X133367430Y-91081811D01*
X133432370Y-90868069D01*
X133461529Y-90646590D01*
X133463156Y-90580000D01*
X133444852Y-90357361D01*
X133390431Y-90140702D01*
X133301354Y-89935840D01*
X133180014Y-89748277D01*
X133029670Y-89583051D01*
X133025619Y-89579852D01*
X133025615Y-89579848D01*
X132858414Y-89447800D01*
X132858410Y-89447798D01*
X132854359Y-89444598D01*
X132813053Y-89421796D01*
X132763084Y-89371364D01*
X132748312Y-89301921D01*
X132773428Y-89235516D01*
X132800780Y-89208909D01*
X132877420Y-89154242D01*
X132979860Y-89081173D01*
X133128417Y-88933134D01*
X138996500Y-88933134D01*
X139003255Y-88995316D01*
X139054385Y-89131705D01*
X139141739Y-89248261D01*
X139258295Y-89335615D01*
X139394684Y-89386745D01*
X139456866Y-89393500D01*
X141253134Y-89393500D01*
X141315316Y-89386745D01*
X141451705Y-89335615D01*
X141568261Y-89248261D01*
X141655615Y-89131705D01*
X141677799Y-89072529D01*
X141699598Y-89014382D01*
X141742240Y-88957618D01*
X141808802Y-88932918D01*
X141878150Y-88948126D01*
X141912817Y-88976114D01*
X141941250Y-89008938D01*
X142113126Y-89151632D01*
X142306000Y-89264338D01*
X142310825Y-89266180D01*
X142310826Y-89266181D01*
X142383612Y-89293975D01*
X142514692Y-89344030D01*
X142519760Y-89345061D01*
X142519763Y-89345062D01*
X142614862Y-89364410D01*
X142733597Y-89388567D01*
X142738772Y-89388757D01*
X142738774Y-89388757D01*
X142951673Y-89396564D01*
X142951677Y-89396564D01*
X142956837Y-89396753D01*
X142961957Y-89396097D01*
X142961959Y-89396097D01*
X143173288Y-89369025D01*
X143173289Y-89369025D01*
X143178416Y-89368368D01*
X143183366Y-89366883D01*
X143387429Y-89305661D01*
X143387434Y-89305659D01*
X143392384Y-89304174D01*
X143592994Y-89205896D01*
X143774860Y-89076173D01*
X143933096Y-88918489D01*
X144063453Y-88737077D01*
X144064640Y-88737930D01*
X144111960Y-88694362D01*
X144181897Y-88682145D01*
X144247338Y-88709678D01*
X144275166Y-88741511D01*
X144332694Y-88835388D01*
X144338777Y-88843699D01*
X144478213Y-89004667D01*
X144485580Y-89011883D01*
X144649434Y-89147916D01*
X144657881Y-89153831D01*
X144841756Y-89261279D01*
X144851042Y-89265729D01*
X145050001Y-89341703D01*
X145059899Y-89344579D01*
X145163250Y-89365606D01*
X145177299Y-89364410D01*
X145181000Y-89354065D01*
X145181000Y-89353517D01*
X145689000Y-89353517D01*
X145693064Y-89367359D01*
X145706478Y-89369393D01*
X145713184Y-89368534D01*
X145723262Y-89366392D01*
X145927255Y-89305191D01*
X145936842Y-89301433D01*
X146128095Y-89207739D01*
X146136945Y-89202464D01*
X146310328Y-89078792D01*
X146318200Y-89072139D01*
X146469052Y-88921812D01*
X146475730Y-88913965D01*
X146600003Y-88741020D01*
X146605313Y-88732183D01*
X146699670Y-88541267D01*
X146703469Y-88531672D01*
X146765377Y-88327910D01*
X146767555Y-88317837D01*
X146768986Y-88306962D01*
X146766775Y-88292778D01*
X146753617Y-88289000D01*
X145707115Y-88289000D01*
X145691876Y-88293475D01*
X145690671Y-88294865D01*
X145689000Y-88302548D01*
X145689000Y-89353517D01*
X145181000Y-89353517D01*
X145181000Y-87762885D01*
X145689000Y-87762885D01*
X145693475Y-87778124D01*
X145694865Y-87779329D01*
X145702548Y-87781000D01*
X146753344Y-87781000D01*
X146766875Y-87777027D01*
X146768180Y-87767947D01*
X146726214Y-87600875D01*
X146722894Y-87591124D01*
X146637972Y-87395814D01*
X146633105Y-87386739D01*
X146517426Y-87207926D01*
X146511136Y-87199757D01*
X146367806Y-87042240D01*
X146360273Y-87035215D01*
X146193139Y-86903222D01*
X146184552Y-86897517D01*
X146147116Y-86876851D01*
X146097146Y-86826419D01*
X146082374Y-86756976D01*
X146107490Y-86690571D01*
X146134842Y-86663964D01*
X146310327Y-86538792D01*
X146318200Y-86532139D01*
X146469052Y-86381812D01*
X146475730Y-86373965D01*
X146600003Y-86201020D01*
X146605313Y-86192183D01*
X146699670Y-86001267D01*
X146703469Y-85991672D01*
X146765377Y-85787910D01*
X146767555Y-85777837D01*
X146768986Y-85766962D01*
X146766775Y-85752778D01*
X146753617Y-85749000D01*
X145707115Y-85749000D01*
X145691876Y-85753475D01*
X145690671Y-85754865D01*
X145689000Y-85762548D01*
X145689000Y-87762885D01*
X145181000Y-87762885D01*
X145181000Y-85222885D01*
X145689000Y-85222885D01*
X145693475Y-85238124D01*
X145694865Y-85239329D01*
X145702548Y-85241000D01*
X146753344Y-85241000D01*
X146766875Y-85237027D01*
X146768180Y-85227947D01*
X146726214Y-85060875D01*
X146722894Y-85051124D01*
X146637972Y-84855814D01*
X146633105Y-84846739D01*
X146517426Y-84667926D01*
X146511136Y-84659757D01*
X146367806Y-84502240D01*
X146360273Y-84495215D01*
X146193139Y-84363222D01*
X146184552Y-84357517D01*
X146147116Y-84336851D01*
X146097146Y-84286419D01*
X146082374Y-84216976D01*
X146107490Y-84150571D01*
X146134842Y-84123964D01*
X146310327Y-83998792D01*
X146318200Y-83992139D01*
X146469052Y-83841812D01*
X146475730Y-83833965D01*
X146600003Y-83661020D01*
X146605313Y-83652183D01*
X146699670Y-83461267D01*
X146703469Y-83451672D01*
X146765377Y-83247910D01*
X146767555Y-83237837D01*
X146768986Y-83226962D01*
X146766775Y-83212778D01*
X146753617Y-83209000D01*
X145707115Y-83209000D01*
X145691876Y-83213475D01*
X145690671Y-83214865D01*
X145689000Y-83222548D01*
X145689000Y-85222885D01*
X145181000Y-85222885D01*
X145181000Y-82682885D01*
X145689000Y-82682885D01*
X145693475Y-82698124D01*
X145694865Y-82699329D01*
X145702548Y-82701000D01*
X146753344Y-82701000D01*
X146766875Y-82697027D01*
X146768180Y-82687947D01*
X146726214Y-82520875D01*
X146722894Y-82511124D01*
X146637972Y-82315814D01*
X146633105Y-82306739D01*
X146517426Y-82127926D01*
X146511136Y-82119757D01*
X146367806Y-81962240D01*
X146360273Y-81955215D01*
X146193139Y-81823222D01*
X146184552Y-81817517D01*
X146147116Y-81796851D01*
X146097146Y-81746419D01*
X146082374Y-81676976D01*
X146107490Y-81610571D01*
X146134842Y-81583964D01*
X146310327Y-81458792D01*
X146318200Y-81452139D01*
X146469052Y-81301812D01*
X146475730Y-81293965D01*
X146600003Y-81121020D01*
X146605313Y-81112183D01*
X146699670Y-80921267D01*
X146703469Y-80911672D01*
X146765377Y-80707910D01*
X146767555Y-80697837D01*
X146768986Y-80686962D01*
X146766775Y-80672778D01*
X146753617Y-80669000D01*
X145707115Y-80669000D01*
X145691876Y-80673475D01*
X145690671Y-80674865D01*
X145689000Y-80682548D01*
X145689000Y-82682885D01*
X145181000Y-82682885D01*
X145181000Y-80142885D01*
X145689000Y-80142885D01*
X145693475Y-80158124D01*
X145694865Y-80159329D01*
X145702548Y-80161000D01*
X146753344Y-80161000D01*
X146766875Y-80157027D01*
X146768180Y-80147947D01*
X146726214Y-79980875D01*
X146722894Y-79971124D01*
X146637972Y-79775814D01*
X146633105Y-79766739D01*
X146517426Y-79587926D01*
X146511136Y-79579757D01*
X146367806Y-79422240D01*
X146360273Y-79415215D01*
X146193139Y-79283222D01*
X146184552Y-79277517D01*
X145998117Y-79174599D01*
X145988705Y-79170369D01*
X145787959Y-79099280D01*
X145777988Y-79096646D01*
X145706837Y-79083972D01*
X145693540Y-79085432D01*
X145689000Y-79099989D01*
X145689000Y-80142885D01*
X145181000Y-80142885D01*
X145181000Y-79098102D01*
X145177082Y-79084758D01*
X145162806Y-79082771D01*
X145124324Y-79088660D01*
X145114288Y-79091051D01*
X144911868Y-79157212D01*
X144902359Y-79161209D01*
X144713463Y-79259542D01*
X144704738Y-79265036D01*
X144534433Y-79392905D01*
X144526726Y-79399748D01*
X144379590Y-79553717D01*
X144373109Y-79561722D01*
X144268498Y-79715074D01*
X144213587Y-79760076D01*
X144143062Y-79768247D01*
X144079315Y-79736993D01*
X144058618Y-79712509D01*
X143977822Y-79587617D01*
X143977820Y-79587614D01*
X143975014Y-79583277D01*
X143824670Y-79418051D01*
X143820619Y-79414852D01*
X143820615Y-79414848D01*
X143653414Y-79282800D01*
X143653410Y-79282798D01*
X143649359Y-79279598D01*
X143631270Y-79269612D01*
X143553478Y-79226669D01*
X143453789Y-79171638D01*
X143448920Y-79169914D01*
X143448916Y-79169912D01*
X143248087Y-79098795D01*
X143248083Y-79098794D01*
X143243212Y-79097069D01*
X143238119Y-79096162D01*
X143238116Y-79096161D01*
X143028373Y-79058800D01*
X143028367Y-79058799D01*
X143023284Y-79057894D01*
X142949452Y-79056992D01*
X142805081Y-79055228D01*
X142805079Y-79055228D01*
X142799911Y-79055165D01*
X142579091Y-79088955D01*
X142366756Y-79158357D01*
X142168607Y-79261507D01*
X142164474Y-79264610D01*
X142164471Y-79264612D01*
X141994100Y-79392530D01*
X141989965Y-79395635D01*
X141919005Y-79469891D01*
X141909283Y-79480064D01*
X141847759Y-79515494D01*
X141776846Y-79512037D01*
X141719060Y-79470791D01*
X141700207Y-79437243D01*
X141658767Y-79326703D01*
X141655615Y-79318295D01*
X141568261Y-79201739D01*
X141451705Y-79114385D01*
X141315316Y-79063255D01*
X141253134Y-79056500D01*
X139456866Y-79056500D01*
X139394684Y-79063255D01*
X139258295Y-79114385D01*
X139141739Y-79201739D01*
X139054385Y-79318295D01*
X139003255Y-79454684D01*
X138996500Y-79516866D01*
X138996500Y-81313134D01*
X139003255Y-81375316D01*
X139054385Y-81511705D01*
X139127630Y-81609435D01*
X139152478Y-81675941D01*
X139137425Y-81745324D01*
X139127632Y-81760562D01*
X139054385Y-81858295D01*
X139003255Y-81994684D01*
X138996500Y-82056866D01*
X138996500Y-83853134D01*
X139003255Y-83915316D01*
X139054385Y-84051705D01*
X139127630Y-84149435D01*
X139152478Y-84215941D01*
X139137425Y-84285324D01*
X139127632Y-84300562D01*
X139054385Y-84398295D01*
X139003255Y-84534684D01*
X138996500Y-84596866D01*
X138996500Y-86393134D01*
X139003255Y-86455316D01*
X139054385Y-86591705D01*
X139127630Y-86689435D01*
X139152478Y-86755941D01*
X139137425Y-86825324D01*
X139127632Y-86840562D01*
X139054385Y-86938295D01*
X139003255Y-87074684D01*
X138996500Y-87136866D01*
X138996500Y-88933134D01*
X133128417Y-88933134D01*
X133138096Y-88923489D01*
X133162308Y-88889795D01*
X133265435Y-88746277D01*
X133268453Y-88742077D01*
X133284466Y-88709678D01*
X133365136Y-88546453D01*
X133365137Y-88546451D01*
X133367430Y-88541811D01*
X133432370Y-88328069D01*
X133461529Y-88106590D01*
X133463156Y-88040000D01*
X133444852Y-87817361D01*
X133390431Y-87600702D01*
X133301354Y-87395840D01*
X133180014Y-87208277D01*
X133029670Y-87043051D01*
X133025619Y-87039852D01*
X133025615Y-87039848D01*
X132858414Y-86907800D01*
X132858410Y-86907798D01*
X132854359Y-86904598D01*
X132845302Y-86899598D01*
X132812569Y-86881529D01*
X132762598Y-86831097D01*
X132747826Y-86761654D01*
X132772942Y-86695248D01*
X132800294Y-86668641D01*
X132975328Y-86543792D01*
X132983200Y-86537139D01*
X133134052Y-86386812D01*
X133140730Y-86378965D01*
X133265003Y-86206020D01*
X133270313Y-86197183D01*
X133364670Y-86006267D01*
X133368469Y-85996672D01*
X133430377Y-85792910D01*
X133432555Y-85782837D01*
X133433986Y-85771962D01*
X133431775Y-85757778D01*
X133418617Y-85754000D01*
X131972000Y-85754000D01*
X131903879Y-85733998D01*
X131857386Y-85680342D01*
X131846000Y-85628000D01*
X131846000Y-85372000D01*
X131866002Y-85303879D01*
X131919658Y-85257386D01*
X131972000Y-85246000D01*
X133418344Y-85246000D01*
X133431875Y-85242027D01*
X133433180Y-85232947D01*
X133391214Y-85065875D01*
X133387894Y-85056124D01*
X133302972Y-84860814D01*
X133298105Y-84851739D01*
X133182426Y-84672926D01*
X133176136Y-84664757D01*
X133032806Y-84507240D01*
X133025273Y-84500215D01*
X132858139Y-84368222D01*
X132849556Y-84362520D01*
X132812602Y-84342120D01*
X132762631Y-84291687D01*
X132747859Y-84222245D01*
X132772975Y-84155839D01*
X132800327Y-84129232D01*
X132861500Y-84085598D01*
X132979860Y-84001173D01*
X133138096Y-83843489D01*
X133162308Y-83809795D01*
X133265435Y-83666277D01*
X133268453Y-83662077D01*
X133284466Y-83629678D01*
X133365136Y-83466453D01*
X133365137Y-83466451D01*
X133367430Y-83461811D01*
X133432370Y-83248069D01*
X133461529Y-83026590D01*
X133463156Y-82960000D01*
X133444852Y-82737361D01*
X133390431Y-82520702D01*
X133301354Y-82315840D01*
X133180014Y-82128277D01*
X133029670Y-81963051D01*
X133025619Y-81959852D01*
X133025615Y-81959848D01*
X132858414Y-81827800D01*
X132858410Y-81827798D01*
X132854359Y-81824598D01*
X132813053Y-81801796D01*
X132763084Y-81751364D01*
X132748312Y-81681921D01*
X132773428Y-81615516D01*
X132800780Y-81588909D01*
X132861500Y-81545598D01*
X132979860Y-81461173D01*
X133138096Y-81303489D01*
X133162308Y-81269795D01*
X133265435Y-81126277D01*
X133268453Y-81122077D01*
X133284466Y-81089678D01*
X133365136Y-80926453D01*
X133365137Y-80926451D01*
X133367430Y-80921811D01*
X133432370Y-80708069D01*
X133461529Y-80486590D01*
X133463156Y-80420000D01*
X133444852Y-80197361D01*
X133390431Y-79980702D01*
X133301354Y-79775840D01*
X133180014Y-79588277D01*
X133029670Y-79423051D01*
X133025619Y-79419852D01*
X133025615Y-79419848D01*
X132858414Y-79287800D01*
X132858410Y-79287798D01*
X132854359Y-79284598D01*
X132813053Y-79261796D01*
X132763084Y-79211364D01*
X132748312Y-79141921D01*
X132773428Y-79075516D01*
X132800780Y-79048909D01*
X132861500Y-79005598D01*
X132979860Y-78921173D01*
X133138096Y-78763489D01*
X133162308Y-78729795D01*
X133265435Y-78586277D01*
X133268453Y-78582077D01*
X133367430Y-78381811D01*
X133432370Y-78168069D01*
X133461529Y-77946590D01*
X133463156Y-77880000D01*
X133444852Y-77657361D01*
X133390431Y-77440702D01*
X133301354Y-77235840D01*
X133180014Y-77048277D01*
X133029670Y-76883051D01*
X133025619Y-76879852D01*
X133025615Y-76879848D01*
X132858414Y-76747800D01*
X132858410Y-76747798D01*
X132854359Y-76744598D01*
X132813053Y-76721796D01*
X132763084Y-76671364D01*
X132748312Y-76601921D01*
X132773428Y-76535516D01*
X132800780Y-76508909D01*
X132861500Y-76465598D01*
X132979860Y-76381173D01*
X133128417Y-76233134D01*
X138996500Y-76233134D01*
X139003255Y-76295316D01*
X139054385Y-76431705D01*
X139141739Y-76548261D01*
X139258295Y-76635615D01*
X139394684Y-76686745D01*
X139456866Y-76693500D01*
X141253134Y-76693500D01*
X141315316Y-76686745D01*
X141451705Y-76635615D01*
X141568261Y-76548261D01*
X141655615Y-76431705D01*
X141677799Y-76372529D01*
X141699598Y-76314382D01*
X141742240Y-76257618D01*
X141808802Y-76232918D01*
X141878150Y-76248126D01*
X141912817Y-76276114D01*
X141941250Y-76308938D01*
X142113126Y-76451632D01*
X142306000Y-76564338D01*
X142310825Y-76566180D01*
X142310826Y-76566181D01*
X142383612Y-76593975D01*
X142514692Y-76644030D01*
X142519760Y-76645061D01*
X142519763Y-76645062D01*
X142614862Y-76664410D01*
X142733597Y-76688567D01*
X142738772Y-76688757D01*
X142738774Y-76688757D01*
X142951673Y-76696564D01*
X142951677Y-76696564D01*
X142956837Y-76696753D01*
X142961957Y-76696097D01*
X142961959Y-76696097D01*
X143173288Y-76669025D01*
X143173289Y-76669025D01*
X143178416Y-76668368D01*
X143183366Y-76666883D01*
X143387429Y-76605661D01*
X143387434Y-76605659D01*
X143392384Y-76604174D01*
X143592994Y-76505896D01*
X143774860Y-76376173D01*
X143933096Y-76218489D01*
X144063453Y-76037077D01*
X144064640Y-76037930D01*
X144111960Y-75994362D01*
X144181897Y-75982145D01*
X144247338Y-76009678D01*
X144275166Y-76041511D01*
X144332694Y-76135388D01*
X144338777Y-76143699D01*
X144478213Y-76304667D01*
X144485580Y-76311883D01*
X144649434Y-76447916D01*
X144657881Y-76453831D01*
X144841756Y-76561279D01*
X144851042Y-76565729D01*
X145050001Y-76641703D01*
X145059899Y-76644579D01*
X145163250Y-76665606D01*
X145177299Y-76664410D01*
X145181000Y-76654065D01*
X145181000Y-76653517D01*
X145689000Y-76653517D01*
X145693064Y-76667359D01*
X145706478Y-76669393D01*
X145713184Y-76668534D01*
X145723262Y-76666392D01*
X145927255Y-76605191D01*
X145936842Y-76601433D01*
X146128095Y-76507739D01*
X146136945Y-76502464D01*
X146310328Y-76378792D01*
X146318200Y-76372139D01*
X146469052Y-76221812D01*
X146475730Y-76213965D01*
X146600003Y-76041020D01*
X146605313Y-76032183D01*
X146699670Y-75841267D01*
X146703469Y-75831672D01*
X146765377Y-75627910D01*
X146767555Y-75617837D01*
X146768986Y-75606962D01*
X146766775Y-75592778D01*
X146753617Y-75589000D01*
X145707115Y-75589000D01*
X145691876Y-75593475D01*
X145690671Y-75594865D01*
X145689000Y-75602548D01*
X145689000Y-76653517D01*
X145181000Y-76653517D01*
X145181000Y-75062885D01*
X145689000Y-75062885D01*
X145693475Y-75078124D01*
X145694865Y-75079329D01*
X145702548Y-75081000D01*
X146753344Y-75081000D01*
X146766875Y-75077027D01*
X146768180Y-75067947D01*
X146726214Y-74900875D01*
X146722894Y-74891124D01*
X146637972Y-74695814D01*
X146633105Y-74686739D01*
X146517426Y-74507926D01*
X146511136Y-74499757D01*
X146367806Y-74342240D01*
X146360273Y-74335215D01*
X146193139Y-74203222D01*
X146184552Y-74197517D01*
X146147116Y-74176851D01*
X146097146Y-74126419D01*
X146082374Y-74056976D01*
X146107490Y-73990571D01*
X146134842Y-73963964D01*
X146310327Y-73838792D01*
X146318200Y-73832139D01*
X146469052Y-73681812D01*
X146475730Y-73673965D01*
X146600003Y-73501020D01*
X146605313Y-73492183D01*
X146699670Y-73301267D01*
X146703469Y-73291672D01*
X146765377Y-73087910D01*
X146767555Y-73077837D01*
X146768986Y-73066962D01*
X146766775Y-73052778D01*
X146753617Y-73049000D01*
X145707115Y-73049000D01*
X145691876Y-73053475D01*
X145690671Y-73054865D01*
X145689000Y-73062548D01*
X145689000Y-75062885D01*
X145181000Y-75062885D01*
X145181000Y-72522885D01*
X145689000Y-72522885D01*
X145693475Y-72538124D01*
X145694865Y-72539329D01*
X145702548Y-72541000D01*
X146753344Y-72541000D01*
X146766875Y-72537027D01*
X146768180Y-72527947D01*
X146726214Y-72360875D01*
X146722894Y-72351124D01*
X146637972Y-72155814D01*
X146633105Y-72146739D01*
X146517426Y-71967926D01*
X146511136Y-71959757D01*
X146367806Y-71802240D01*
X146360273Y-71795215D01*
X146193139Y-71663222D01*
X146184552Y-71657517D01*
X146147116Y-71636851D01*
X146097146Y-71586419D01*
X146082374Y-71516976D01*
X146107490Y-71450571D01*
X146134842Y-71423964D01*
X146310327Y-71298792D01*
X146318200Y-71292139D01*
X146469052Y-71141812D01*
X146475730Y-71133965D01*
X146600003Y-70961020D01*
X146605313Y-70952183D01*
X146699670Y-70761267D01*
X146703469Y-70751672D01*
X146765377Y-70547910D01*
X146767555Y-70537837D01*
X146768986Y-70526962D01*
X146766775Y-70512778D01*
X146753617Y-70509000D01*
X145707115Y-70509000D01*
X145691876Y-70513475D01*
X145690671Y-70514865D01*
X145689000Y-70522548D01*
X145689000Y-72522885D01*
X145181000Y-72522885D01*
X145181000Y-69982885D01*
X145689000Y-69982885D01*
X145693475Y-69998124D01*
X145694865Y-69999329D01*
X145702548Y-70001000D01*
X146753344Y-70001000D01*
X146766875Y-69997027D01*
X146768180Y-69987947D01*
X146726214Y-69820875D01*
X146722894Y-69811124D01*
X146637972Y-69615814D01*
X146633105Y-69606739D01*
X146517426Y-69427926D01*
X146511136Y-69419757D01*
X146367806Y-69262240D01*
X146360273Y-69255215D01*
X146193139Y-69123222D01*
X146184552Y-69117517D01*
X146147116Y-69096851D01*
X146097146Y-69046419D01*
X146082374Y-68976976D01*
X146107490Y-68910571D01*
X146134842Y-68883964D01*
X146310327Y-68758792D01*
X146318200Y-68752139D01*
X146469052Y-68601812D01*
X146475730Y-68593965D01*
X146600003Y-68421020D01*
X146605313Y-68412183D01*
X146699670Y-68221267D01*
X146703469Y-68211672D01*
X146765377Y-68007910D01*
X146767555Y-67997837D01*
X146768986Y-67986962D01*
X146766775Y-67972778D01*
X146753617Y-67969000D01*
X145707115Y-67969000D01*
X145691876Y-67973475D01*
X145690671Y-67974865D01*
X145689000Y-67982548D01*
X145689000Y-69982885D01*
X145181000Y-69982885D01*
X145181000Y-67442885D01*
X145689000Y-67442885D01*
X145693475Y-67458124D01*
X145694865Y-67459329D01*
X145702548Y-67461000D01*
X146753344Y-67461000D01*
X146766875Y-67457027D01*
X146768180Y-67447947D01*
X146726214Y-67280875D01*
X146722894Y-67271124D01*
X146637972Y-67075814D01*
X146633105Y-67066739D01*
X146517426Y-66887926D01*
X146511136Y-66879757D01*
X146367806Y-66722240D01*
X146360273Y-66715215D01*
X146193139Y-66583222D01*
X146184552Y-66577517D01*
X145998117Y-66474599D01*
X145988705Y-66470369D01*
X145787959Y-66399280D01*
X145777988Y-66396646D01*
X145706837Y-66383972D01*
X145693540Y-66385432D01*
X145689000Y-66399989D01*
X145689000Y-67442885D01*
X145181000Y-67442885D01*
X145181000Y-66398102D01*
X145177082Y-66384758D01*
X145162806Y-66382771D01*
X145124324Y-66388660D01*
X145114288Y-66391051D01*
X144911868Y-66457212D01*
X144902359Y-66461209D01*
X144713463Y-66559542D01*
X144704738Y-66565036D01*
X144534433Y-66692905D01*
X144526726Y-66699748D01*
X144379590Y-66853717D01*
X144373109Y-66861722D01*
X144268498Y-67015074D01*
X144213587Y-67060076D01*
X144143062Y-67068247D01*
X144079315Y-67036993D01*
X144058618Y-67012509D01*
X143977822Y-66887617D01*
X143977820Y-66887614D01*
X143975014Y-66883277D01*
X143824670Y-66718051D01*
X143820619Y-66714852D01*
X143820615Y-66714848D01*
X143653414Y-66582800D01*
X143653410Y-66582798D01*
X143649359Y-66579598D01*
X143613028Y-66559542D01*
X143530381Y-66513919D01*
X143453789Y-66471638D01*
X143448920Y-66469914D01*
X143448916Y-66469912D01*
X143248087Y-66398795D01*
X143248083Y-66398794D01*
X143243212Y-66397069D01*
X143238119Y-66396162D01*
X143238116Y-66396161D01*
X143028373Y-66358800D01*
X143028367Y-66358799D01*
X143023284Y-66357894D01*
X142949452Y-66356992D01*
X142805081Y-66355228D01*
X142805079Y-66355228D01*
X142799911Y-66355165D01*
X142579091Y-66388955D01*
X142366756Y-66458357D01*
X142168607Y-66561507D01*
X142164474Y-66564610D01*
X142164471Y-66564612D01*
X141994100Y-66692530D01*
X141989965Y-66695635D01*
X141928759Y-66759684D01*
X141909283Y-66780064D01*
X141847759Y-66815494D01*
X141776846Y-66812037D01*
X141719060Y-66770791D01*
X141700207Y-66737243D01*
X141658767Y-66626703D01*
X141655615Y-66618295D01*
X141568261Y-66501739D01*
X141451705Y-66414385D01*
X141315316Y-66363255D01*
X141253134Y-66356500D01*
X139456866Y-66356500D01*
X139394684Y-66363255D01*
X139258295Y-66414385D01*
X139141739Y-66501739D01*
X139054385Y-66618295D01*
X139003255Y-66754684D01*
X138996500Y-66816866D01*
X138996500Y-68613134D01*
X139003255Y-68675316D01*
X139054385Y-68811705D01*
X139109988Y-68885896D01*
X139127630Y-68909435D01*
X139152478Y-68975941D01*
X139137425Y-69045324D01*
X139127632Y-69060562D01*
X139054385Y-69158295D01*
X139003255Y-69294684D01*
X138996500Y-69356866D01*
X138996500Y-71153134D01*
X139003255Y-71215316D01*
X139054385Y-71351705D01*
X139127630Y-71449435D01*
X139152478Y-71515941D01*
X139137425Y-71585324D01*
X139127632Y-71600562D01*
X139054385Y-71698295D01*
X139003255Y-71834684D01*
X138996500Y-71896866D01*
X138996500Y-73693134D01*
X139003255Y-73755316D01*
X139054385Y-73891705D01*
X139127630Y-73989435D01*
X139152478Y-74055941D01*
X139137425Y-74125324D01*
X139127632Y-74140562D01*
X139054385Y-74238295D01*
X139003255Y-74374684D01*
X138996500Y-74436866D01*
X138996500Y-76233134D01*
X133128417Y-76233134D01*
X133138096Y-76223489D01*
X133162308Y-76189795D01*
X133265435Y-76046277D01*
X133268453Y-76042077D01*
X133284466Y-76009678D01*
X133365136Y-75846453D01*
X133365137Y-75846451D01*
X133367430Y-75841811D01*
X133432370Y-75628069D01*
X133461529Y-75406590D01*
X133463156Y-75340000D01*
X133444852Y-75117361D01*
X133390431Y-74900702D01*
X133301354Y-74695840D01*
X133180014Y-74508277D01*
X133029670Y-74343051D01*
X133025619Y-74339852D01*
X133025615Y-74339848D01*
X132858414Y-74207800D01*
X132858410Y-74207798D01*
X132854359Y-74204598D01*
X132845302Y-74199598D01*
X132812569Y-74181529D01*
X132762598Y-74131097D01*
X132747826Y-74061654D01*
X132772942Y-73995248D01*
X132800294Y-73968641D01*
X132975328Y-73843792D01*
X132983200Y-73837139D01*
X133134052Y-73686812D01*
X133140730Y-73678965D01*
X133265003Y-73506020D01*
X133270313Y-73497183D01*
X133364670Y-73306267D01*
X133368469Y-73296672D01*
X133430377Y-73092910D01*
X133432555Y-73082837D01*
X133433986Y-73071962D01*
X133431775Y-73057778D01*
X133418617Y-73054000D01*
X131972000Y-73054000D01*
X131903879Y-73033998D01*
X131857386Y-72980342D01*
X131846000Y-72928000D01*
X131846000Y-72672000D01*
X131866002Y-72603879D01*
X131919658Y-72557386D01*
X131972000Y-72546000D01*
X133418344Y-72546000D01*
X133431875Y-72542027D01*
X133433180Y-72532947D01*
X133391214Y-72365875D01*
X133387894Y-72356124D01*
X133302972Y-72160814D01*
X133298105Y-72151739D01*
X133182426Y-71972926D01*
X133176136Y-71964757D01*
X133032806Y-71807240D01*
X133025273Y-71800215D01*
X132858139Y-71668222D01*
X132849556Y-71662520D01*
X132812602Y-71642120D01*
X132762631Y-71591687D01*
X132747859Y-71522245D01*
X132772975Y-71455839D01*
X132800327Y-71429232D01*
X132861500Y-71385598D01*
X132979860Y-71301173D01*
X133138096Y-71143489D01*
X133162308Y-71109795D01*
X133265435Y-70966277D01*
X133268453Y-70962077D01*
X133284466Y-70929678D01*
X133365136Y-70766453D01*
X133365137Y-70766451D01*
X133367430Y-70761811D01*
X133432370Y-70548069D01*
X133461529Y-70326590D01*
X133463156Y-70260000D01*
X133444852Y-70037361D01*
X133390431Y-69820702D01*
X133301354Y-69615840D01*
X133180014Y-69428277D01*
X133176532Y-69424450D01*
X133032798Y-69266488D01*
X133001746Y-69202642D01*
X133010141Y-69132143D01*
X133055317Y-69077375D01*
X133081761Y-69063706D01*
X133188297Y-69023767D01*
X133196705Y-69020615D01*
X133313261Y-68933261D01*
X133400615Y-68816705D01*
X133451745Y-68680316D01*
X133458500Y-68618134D01*
X133458500Y-66821866D01*
X133451745Y-66759684D01*
X133400615Y-66623295D01*
X133313261Y-66506739D01*
X133196705Y-66419385D01*
X133060316Y-66368255D01*
X132998134Y-66361500D01*
X131444500Y-66361500D01*
X131376379Y-66341498D01*
X131329886Y-66287842D01*
X131318500Y-66235500D01*
X131318500Y-60417095D01*
X137717001Y-60417095D01*
X137717338Y-60423614D01*
X137727257Y-60519206D01*
X137730149Y-60532600D01*
X137781588Y-60686784D01*
X137787761Y-60699962D01*
X137873063Y-60837807D01*
X137882099Y-60849208D01*
X137996829Y-60963739D01*
X138008240Y-60972751D01*
X138146243Y-61057816D01*
X138159424Y-61063963D01*
X138313710Y-61115138D01*
X138327086Y-61118005D01*
X138421438Y-61127672D01*
X138427854Y-61128000D01*
X138552885Y-61128000D01*
X138568124Y-61123525D01*
X138569329Y-61122135D01*
X138571000Y-61114452D01*
X138571000Y-61109884D01*
X139079000Y-61109884D01*
X139083475Y-61125123D01*
X139084865Y-61126328D01*
X139092548Y-61127999D01*
X139222095Y-61127999D01*
X139228614Y-61127662D01*
X139324206Y-61117743D01*
X139337600Y-61114851D01*
X139491784Y-61063412D01*
X139504962Y-61057239D01*
X139642807Y-60971937D01*
X139654208Y-60962901D01*
X139768739Y-60848171D01*
X139777751Y-60836760D01*
X139862816Y-60698757D01*
X139868963Y-60685576D01*
X139920138Y-60531290D01*
X139923005Y-60517914D01*
X139932672Y-60423562D01*
X139933000Y-60417146D01*
X139933000Y-59992115D01*
X139928525Y-59976876D01*
X139927135Y-59975671D01*
X139919452Y-59974000D01*
X139097115Y-59974000D01*
X139081876Y-59978475D01*
X139080671Y-59979865D01*
X139079000Y-59987548D01*
X139079000Y-61109884D01*
X138571000Y-61109884D01*
X138571000Y-59992115D01*
X138566525Y-59976876D01*
X138565135Y-59975671D01*
X138557452Y-59974000D01*
X137735116Y-59974000D01*
X137719877Y-59978475D01*
X137718672Y-59979865D01*
X137717001Y-59987548D01*
X137717001Y-60417095D01*
X131318500Y-60417095D01*
X131318500Y-59689500D01*
X131338502Y-59621379D01*
X131392158Y-59574886D01*
X131444500Y-59563500D01*
X151765500Y-59563500D01*
X151833621Y-59583502D01*
G37*
%TD.AperFunction*%
%TD*%
M02*
