M48
; DRILL file {KiCad (6.0.5)} date Thu Oct 13 20:02:34 2022
; FORMAT={-:-/ absolute / inch / decimal}
; #@! TF.CreationDate,2022-10-13T20:02:34+01:00
; #@! TF.GenerationSoftware,Kicad,Pcbnew,(6.0.5)
; #@! TF.FileFunction,Plated,1,2,PTH
FMAT,2
INCH
; #@! TA.AperFunction,Plated,PTH,ViaDrill
T1C0.0157
; #@! TA.AperFunction,Plated,PTH,ComponentDrill
T2C0.0236
; #@! TA.AperFunction,Plated,PTH,ComponentDrill
T3C0.0394
; #@! TA.AperFunction,Plated,PTH,ComponentDrill
T4C0.0709
%
G90
G05
T1
X5.5579Y-4.765
T3
X5.2008Y-2.6661
X5.2008Y-2.7661
X5.2008Y-2.8661
X5.2008Y-2.9661
X5.2008Y-3.0661
X5.2008Y-3.1661
X5.2008Y-3.2661
X5.2008Y-3.3661
X5.2008Y-3.4661
X5.2008Y-3.5661
X5.2008Y-3.6661
X5.2008Y-3.7661
X5.2008Y-3.8661
X5.2008Y-3.9661
X5.2008Y-4.0661
X5.2008Y-4.1661
X5.2008Y-4.2661
X5.2008Y-4.3661
X5.2008Y-4.4661
X5.2008Y-4.5661
X5.5258Y-2.6659
X5.5258Y-2.7659
X5.5258Y-2.8659
X5.5258Y-2.9659
X5.5258Y-3.1659
X5.5258Y-3.2659
X5.5258Y-3.3659
X5.5258Y-3.4659
X5.5258Y-3.6659
X5.5258Y-3.7659
X5.5258Y-3.8659
X5.5258Y-3.9659
X5.6258Y-2.6659
X5.6258Y-2.7659
X5.6258Y-2.8659
X5.6258Y-2.9659
X5.6258Y-3.1659
X5.6258Y-3.2659
X5.6258Y-3.3659
X5.6258Y-3.4659
X5.6258Y-3.6659
X5.6258Y-3.7659
X5.6258Y-3.8659
X5.6258Y-3.9659
X5.7258Y-2.6659
X5.7258Y-2.7659
X5.7258Y-2.8659
X5.7258Y-2.9659
X5.7258Y-3.1659
X5.7258Y-3.2659
X5.7258Y-3.3659
X5.7258Y-3.4659
X5.7258Y-3.6659
X5.7258Y-3.7659
X5.7258Y-3.8659
X5.7258Y-3.9659
X5.95Y-2.6661
X5.95Y-2.7661
X5.95Y-2.8661
X5.95Y-2.9661
X5.95Y-3.0661
X5.95Y-3.1661
X5.95Y-3.2661
X5.95Y-3.3661
X5.95Y-3.4661
X5.95Y-3.5659
X5.95Y-3.6659
X5.95Y-3.7659
X5.95Y-3.8659
X5.95Y-3.9659
X5.95Y-4.0659
X5.95Y-4.1659
X5.95Y-4.2659
X5.95Y-4.3659
X5.95Y-4.4659
X5.95Y-4.5659
T2
G00X5.3976Y-4.8283
M15
G01X5.3976Y-4.8717
M16
G05
G00X5.3976Y-5.0028
M15
G01X5.3976Y-5.0264
M16
G05
G00X5.7378Y-4.8283
M15
G01X5.7378Y-4.8717
M16
G05
G00X5.7378Y-5.0028
M15
G01X5.7378Y-5.0264
M16
G05
T3
G00X5.4988Y-4.425
M15
G01X5.6012Y-4.425
M16
G05
G00X5.5067Y-4.673
M15
G01X5.5933Y-4.673
M16
G05
G00X5.739Y-4.4959
M15
G01X5.739Y-4.5825
M16
G05
T4
G00X5.4189Y-5.0212
M15
G01X5.4189Y-5.096
M16
G05
G00X5.4425Y-5.0212
M15
G01X5.4425Y-5.0487
M16
G05
G00X5.6969Y-5.0212
M15
G01X5.6969Y-5.0487
M16
G05
G00X5.7205Y-5.0212
M15
G01X5.7205Y-5.096
M16
G05
T0
M30
