%TF.GenerationSoftware,KiCad,Pcbnew,(6.0.5)*%
%TF.CreationDate,2022-10-13T20:02:31+01:00*%
%TF.ProjectId,OOBB-RASP-PICO-SHIELD-01,4f4f4242-2d52-4415-9350-2d5049434f2d,rev?*%
%TF.SameCoordinates,Original*%
%TF.FileFunction,Copper,L2,Bot*%
%TF.FilePolarity,Positive*%
%FSLAX46Y46*%
G04 Gerber Fmt 4.6, Leading zero omitted, Abs format (unit mm)*
G04 Created by KiCad (PCBNEW (6.0.5)) date 2022-10-13 20:02:31*
%MOMM*%
%LPD*%
G01*
G04 APERTURE LIST*
%TA.AperFunction,ComponentPad*%
%ADD10O,2.800000X3.500000*%
%TD*%
%TA.AperFunction,ComponentPad*%
%ADD11O,2.800000X4.700000*%
%TD*%
%TA.AperFunction,ComponentPad*%
%ADD12O,1.000000X2.100000*%
%TD*%
%TA.AperFunction,ComponentPad*%
%ADD13O,1.000000X1.600000*%
%TD*%
%TA.AperFunction,ComponentPad*%
%ADD14R,1.700000X1.700000*%
%TD*%
%TA.AperFunction,ComponentPad*%
%ADD15O,1.700000X1.700000*%
%TD*%
%TA.AperFunction,ComponentPad*%
%ADD16R,4.600000X2.000000*%
%TD*%
%TA.AperFunction,ComponentPad*%
%ADD17O,4.200000X2.000000*%
%TD*%
%TA.AperFunction,ComponentPad*%
%ADD18O,2.000000X4.200000*%
%TD*%
%TA.AperFunction,ViaPad*%
%ADD19C,0.800000*%
%TD*%
%TA.AperFunction,Conductor*%
%ADD20C,0.250000*%
%TD*%
%TA.AperFunction,Conductor*%
%ADD21C,1.500000*%
%TD*%
G04 APERTURE END LIST*
D10*
%TO.P,U2,6,Shield*%
%TO.N,Net-(U2-Pad6)*%
X138240000Y-127888000D03*
X144700000Y-127888000D03*
D11*
X145300000Y-128488000D03*
X137640000Y-128488000D03*
D12*
%TO.P,U2,S1,SHIELD*%
X137100000Y-123190000D03*
D13*
X137100000Y-127370000D03*
X145740000Y-127370000D03*
D12*
X145740000Y-123190000D03*
%TD*%
D14*
%TO.P,J14,1,SIG*%
%TO.N,GPIO09*%
X140355000Y-88035000D03*
D15*
%TO.P,J14,2,VCC*%
%TO.N,VOUT*%
X142895000Y-88035000D03*
%TO.P,J14,3,GND*%
%TO.N,GND*%
X145435000Y-88035000D03*
%TD*%
D16*
%TO.P,J11,1*%
%TO.N,VIN*%
X140970000Y-112395000D03*
D17*
%TO.P,J11,2*%
%TO.N,GND*%
X140970000Y-118695000D03*
D18*
%TO.P,J11,3*%
%TO.N,unconnected-(J11-Pad3)*%
X145770000Y-115295000D03*
%TD*%
D14*
%TO.P,J12,1,SIG*%
%TO.N,GPIO13*%
X140355000Y-100735000D03*
D15*
%TO.P,J12,2,VCC*%
%TO.N,VOUT*%
X142895000Y-100735000D03*
%TO.P,J12,3,GND*%
%TO.N,GND*%
X145435000Y-100735000D03*
%TD*%
D14*
%TO.P,U10,1,GPIO00*%
%TO.N,GPIO00*%
X132100000Y-67720000D03*
D15*
%TO.P,U10,2,GPIO01*%
%TO.N,GPIO01*%
X132100000Y-70260000D03*
%TO.P,U10,3,GND*%
%TO.N,GND*%
X132100000Y-72800000D03*
%TO.P,U10,4,GPIO02*%
%TO.N,GPIO02*%
X132100000Y-75340000D03*
%TO.P,U10,5,GPIO03*%
%TO.N,GPIO03*%
X132100000Y-77880000D03*
%TO.P,U10,6,GPIO04*%
%TO.N,GPIO04*%
X132100000Y-80420000D03*
%TO.P,U10,7,GPIO05*%
%TO.N,GPIO05*%
X132100000Y-82960000D03*
%TO.P,U10,8,GND*%
%TO.N,GND*%
X132100000Y-85500000D03*
%TO.P,U10,9,GPIO06*%
%TO.N,GPIO06*%
X132100000Y-88040000D03*
%TO.P,U10,10,GPIO07*%
%TO.N,GPIO07*%
X132100000Y-90580000D03*
%TO.P,U10,11,GPIO08*%
%TO.N,GPIO08*%
X132100000Y-93120000D03*
%TO.P,U10,12,GPIO09*%
%TO.N,GPIO09*%
X132100000Y-95660000D03*
%TO.P,U10,13,GND*%
%TO.N,GND*%
X132100000Y-98200000D03*
%TO.P,U10,14,GPIO10*%
%TO.N,GPIO10*%
X132100000Y-100740000D03*
%TO.P,U10,15,GPIO11*%
%TO.N,GPIO11*%
X132100000Y-103280000D03*
%TO.P,U10,16,GPIO12*%
%TO.N,GPIO12*%
X132100000Y-105820000D03*
%TO.P,U10,17,GPIO13*%
%TO.N,GPIO13*%
X132100000Y-108360000D03*
%TO.P,U10,18,GND*%
%TO.N,GND*%
X132100000Y-110900000D03*
%TO.P,U10,19,GPIO14*%
%TO.N,GPIO14*%
X132100000Y-113440000D03*
%TO.P,U10,20,GPIO15*%
%TO.N,GPIO15*%
X132100000Y-115980000D03*
%TO.P,U10,21,GPIO16*%
%TO.N,GPIO16*%
X151130000Y-115975000D03*
%TO.P,U10,22,GPIO17*%
%TO.N,GPIO17*%
X151130000Y-113435000D03*
%TO.P,U10,23,GND*%
%TO.N,GND*%
X151130000Y-110895000D03*
%TO.P,U10,24,GPIO18*%
%TO.N,GPIO18*%
X151130000Y-108355000D03*
%TO.P,U10,25,GPIO19*%
%TO.N,GPIO19*%
X151130000Y-105815000D03*
%TO.P,U10,26,GPIO20*%
%TO.N,GPIO20*%
X151130000Y-103275000D03*
%TO.P,U10,27,GPIO21*%
%TO.N,GPIO21*%
X151130000Y-100735000D03*
%TO.P,U10,28,GND*%
%TO.N,GND*%
X151130000Y-98195000D03*
%TO.P,U10,29,GPIO22*%
%TO.N,GPIO22*%
X151130000Y-95655000D03*
%TO.P,U10,30,RUN*%
%TO.N,RUN*%
X151130000Y-93115000D03*
%TO.P,U10,31,GPIO26*%
%TO.N,A0*%
X151130000Y-90575000D03*
%TO.P,U10,32,GPIO27*%
%TO.N,A1*%
X151130000Y-88040000D03*
%TO.P,U10,33,GND*%
%TO.N,GND*%
X151130000Y-85500000D03*
%TO.P,U10,34,GPIO28*%
%TO.N,A2*%
X151130000Y-82960000D03*
%TO.P,U10,35,VREF*%
%TO.N,VREF*%
X151130000Y-80420000D03*
%TO.P,U10,36,3V3*%
%TO.N,VOUT*%
X151130000Y-77880000D03*
%TO.P,U10,37,3EN*%
%TO.N,3EN*%
X151130000Y-75340000D03*
%TO.P,U10,38,GND*%
%TO.N,GND*%
X151130000Y-72800000D03*
%TO.P,U10,39,VSYS*%
%TO.N,VSYS*%
X151130000Y-70260000D03*
D14*
%TO.P,U10,40,VBUS*%
%TO.N,VBUS*%
X151130000Y-67720000D03*
%TD*%
%TO.P,J6,1,SIG*%
%TO.N,GPIO07*%
X140355000Y-82955000D03*
D15*
%TO.P,J6,2,VCC*%
%TO.N,VOUT*%
X142895000Y-82955000D03*
%TO.P,J6,3,GND*%
%TO.N,GND*%
X145435000Y-82955000D03*
%TD*%
D14*
%TO.P,J3,1,SIG*%
%TO.N,GPIO10*%
X140355000Y-93115000D03*
D15*
%TO.P,J3,2,VCC*%
%TO.N,VOUT*%
X142895000Y-93115000D03*
%TO.P,J3,3,GND*%
%TO.N,GND*%
X145435000Y-93115000D03*
%TD*%
D14*
%TO.P,J1,1,SIG*%
%TO.N,GPIO02*%
X140355000Y-67715000D03*
D15*
%TO.P,J1,2,VCC*%
%TO.N,VOUT*%
X142895000Y-67715000D03*
%TO.P,J1,3,GND*%
%TO.N,GND*%
X145435000Y-67715000D03*
%TD*%
D14*
%TO.P,J9,1,SIG*%
%TO.N,GPIO08*%
X140355000Y-85495000D03*
D15*
%TO.P,J9,2,VCC*%
%TO.N,VOUT*%
X142895000Y-85495000D03*
%TO.P,J9,3,GND*%
%TO.N,GND*%
X145435000Y-85495000D03*
%TD*%
D14*
%TO.P,J10,1,SIG*%
%TO.N,GPIO12*%
X140355000Y-98195000D03*
D15*
%TO.P,J10,2,VCC*%
%TO.N,VOUT*%
X142895000Y-98195000D03*
%TO.P,J10,3,GND*%
%TO.N,GND*%
X145435000Y-98195000D03*
%TD*%
D14*
%TO.P,J7,1,SIG*%
%TO.N,GPIO11*%
X140355000Y-95655000D03*
D15*
%TO.P,J7,2,VCC*%
%TO.N,VOUT*%
X142895000Y-95655000D03*
%TO.P,J7,3,GND*%
%TO.N,GND*%
X145435000Y-95655000D03*
%TD*%
D14*
%TO.P,J5,1,SIG*%
%TO.N,GPIO03*%
X140355000Y-70255000D03*
D15*
%TO.P,J5,2,VCC*%
%TO.N,VOUT*%
X142895000Y-70255000D03*
%TO.P,J5,3,GND*%
%TO.N,GND*%
X145435000Y-70255000D03*
%TD*%
D14*
%TO.P,J8,1,SIG*%
%TO.N,GPIO04*%
X140355000Y-72795000D03*
D15*
%TO.P,J8,2,VCC*%
%TO.N,VOUT*%
X142895000Y-72795000D03*
%TO.P,J8,3,GND*%
%TO.N,GND*%
X145435000Y-72795000D03*
%TD*%
D14*
%TO.P,J2,1,SIG*%
%TO.N,GPIO06*%
X140355000Y-80415000D03*
D15*
%TO.P,J2,2,VCC*%
%TO.N,VOUT*%
X142895000Y-80415000D03*
%TO.P,J2,3,GND*%
%TO.N,GND*%
X145435000Y-80415000D03*
%TD*%
D14*
%TO.P,J13,1,SIG*%
%TO.N,GPIO05*%
X140355000Y-75335000D03*
D15*
%TO.P,J13,2,VCC*%
%TO.N,VOUT*%
X142895000Y-75335000D03*
%TO.P,J13,3,GND*%
%TO.N,GND*%
X145435000Y-75335000D03*
%TD*%
D19*
%TO.N,Net-(U2-Pad3)*%
X141170000Y-121030000D03*
%TD*%
D20*
%TO.N,VOUT*%
X151130000Y-77880000D02*
X145430000Y-77880000D01*
D21*
X142895000Y-100735000D02*
X142895000Y-67715000D01*
D20*
X145430000Y-77880000D02*
X142895000Y-80415000D01*
%TO.N,GPIO02*%
X139725000Y-67715000D02*
X140355000Y-67715000D01*
X132100000Y-75340000D02*
X139725000Y-67715000D01*
%TO.N,GPIO06*%
X139725000Y-80415000D02*
X140355000Y-80415000D01*
X132100000Y-88040000D02*
X139725000Y-80415000D01*
%TO.N,GPIO10*%
X132100000Y-100740000D02*
X139725000Y-93115000D01*
X139725000Y-93115000D02*
X140355000Y-93115000D01*
%TO.N,GPIO03*%
X139725000Y-70255000D02*
X140355000Y-70255000D01*
X132100000Y-77880000D02*
X139725000Y-70255000D01*
%TO.N,GPIO07*%
X139725000Y-82955000D02*
X140355000Y-82955000D01*
X132100000Y-90580000D02*
X139725000Y-82955000D01*
%TO.N,GPIO11*%
X139725000Y-95655000D02*
X140355000Y-95655000D01*
X132100000Y-103280000D02*
X139725000Y-95655000D01*
%TO.N,GPIO04*%
X132100000Y-80420000D02*
X139725000Y-72795000D01*
X139725000Y-72795000D02*
X140355000Y-72795000D01*
%TO.N,GPIO08*%
X132100000Y-93120000D02*
X139725000Y-85495000D01*
X139725000Y-85495000D02*
X140355000Y-85495000D01*
%TO.N,GPIO12*%
X132100000Y-105820000D02*
X139725000Y-98195000D01*
X139725000Y-98195000D02*
X140355000Y-98195000D01*
%TO.N,GPIO13*%
X132100000Y-108360000D02*
X139725000Y-100735000D01*
X139725000Y-100735000D02*
X140355000Y-100735000D01*
%TO.N,GPIO05*%
X132100000Y-82960000D02*
X139725000Y-75335000D01*
X139725000Y-75335000D02*
X140355000Y-75335000D01*
%TO.N,GPIO09*%
X132100000Y-95660000D02*
X139725000Y-88035000D01*
X139725000Y-88035000D02*
X140355000Y-88035000D01*
%TD*%
%TA.AperFunction,Conductor*%
%TO.N,GND*%
G36*
X149922395Y-78533502D02*
G01*
X149961707Y-78573665D01*
X150029987Y-78685088D01*
X150176250Y-78853938D01*
X150348126Y-78996632D01*
X150361380Y-79004377D01*
X150421445Y-79039476D01*
X150470169Y-79091114D01*
X150483240Y-79160897D01*
X150456509Y-79226669D01*
X150416055Y-79260027D01*
X150403607Y-79266507D01*
X150399474Y-79269610D01*
X150399471Y-79269612D01*
X150323433Y-79326703D01*
X150224965Y-79400635D01*
X150070629Y-79562138D01*
X150067715Y-79566410D01*
X150067714Y-79566411D01*
X149982556Y-79691249D01*
X149944743Y-79746680D01*
X149850688Y-79949305D01*
X149790989Y-80164570D01*
X149767251Y-80386695D01*
X149767548Y-80391848D01*
X149767548Y-80391851D01*
X149773011Y-80486590D01*
X149780110Y-80609715D01*
X149781247Y-80614761D01*
X149781248Y-80614767D01*
X149802275Y-80708069D01*
X149829222Y-80827639D01*
X149913266Y-81034616D01*
X150029987Y-81225088D01*
X150176250Y-81393938D01*
X150246354Y-81452139D01*
X150337628Y-81527916D01*
X150348126Y-81536632D01*
X150363470Y-81545598D01*
X150421445Y-81579476D01*
X150470169Y-81631114D01*
X150483240Y-81700897D01*
X150456509Y-81766669D01*
X150416055Y-81800027D01*
X150403607Y-81806507D01*
X150399474Y-81809610D01*
X150399471Y-81809612D01*
X150235260Y-81932905D01*
X150224965Y-81940635D01*
X150070629Y-82102138D01*
X150067715Y-82106410D01*
X150067714Y-82106411D01*
X150047020Y-82136747D01*
X149944743Y-82286680D01*
X149942564Y-82291375D01*
X149872523Y-82442266D01*
X149850688Y-82489305D01*
X149790989Y-82704570D01*
X149767251Y-82926695D01*
X149767548Y-82931848D01*
X149767548Y-82931851D01*
X149773011Y-83026590D01*
X149780110Y-83149715D01*
X149781247Y-83154761D01*
X149781248Y-83154767D01*
X149802275Y-83248069D01*
X149829222Y-83367639D01*
X149913266Y-83574616D01*
X150029987Y-83765088D01*
X150176250Y-83933938D01*
X150246354Y-83992139D01*
X150337628Y-84067916D01*
X150348126Y-84076632D01*
X150363470Y-84085598D01*
X150421955Y-84119774D01*
X150470679Y-84171412D01*
X150483750Y-84241195D01*
X150457019Y-84306967D01*
X150416562Y-84340327D01*
X150408457Y-84344546D01*
X150399738Y-84350036D01*
X150229433Y-84477905D01*
X150221726Y-84484748D01*
X150074590Y-84638717D01*
X150068104Y-84646727D01*
X149948098Y-84822649D01*
X149943000Y-84831623D01*
X149853338Y-85024783D01*
X149849775Y-85034470D01*
X149794389Y-85234183D01*
X149795912Y-85242607D01*
X149808292Y-85246000D01*
X151258000Y-85246000D01*
X151326121Y-85266002D01*
X151372614Y-85319658D01*
X151384000Y-85372000D01*
X151384000Y-85628000D01*
X151363998Y-85696121D01*
X151310342Y-85742614D01*
X151258000Y-85754000D01*
X149813225Y-85754000D01*
X149799694Y-85757973D01*
X149798257Y-85767966D01*
X149828565Y-85902446D01*
X149831645Y-85912275D01*
X149911770Y-86109603D01*
X149916413Y-86118794D01*
X150027694Y-86300388D01*
X150033777Y-86308699D01*
X150173213Y-86469667D01*
X150180580Y-86476883D01*
X150344434Y-86612916D01*
X150352881Y-86618831D01*
X150421969Y-86659203D01*
X150470693Y-86710842D01*
X150483764Y-86780625D01*
X150457033Y-86846396D01*
X150416584Y-86879752D01*
X150403607Y-86886507D01*
X150399474Y-86889610D01*
X150399471Y-86889612D01*
X150235260Y-87012905D01*
X150224965Y-87020635D01*
X150070629Y-87182138D01*
X150067715Y-87186410D01*
X150067714Y-87186411D01*
X150047020Y-87216747D01*
X149944743Y-87366680D01*
X149942564Y-87371375D01*
X149872523Y-87522266D01*
X149850688Y-87569305D01*
X149790989Y-87784570D01*
X149767251Y-88006695D01*
X149767548Y-88011848D01*
X149767548Y-88011851D01*
X149773011Y-88106590D01*
X149780110Y-88229715D01*
X149781247Y-88234761D01*
X149781248Y-88234767D01*
X149802275Y-88328069D01*
X149829222Y-88447639D01*
X149913266Y-88654616D01*
X150029987Y-88845088D01*
X150176250Y-89013938D01*
X150246354Y-89072139D01*
X150337628Y-89147916D01*
X150348126Y-89156632D01*
X150416922Y-89196833D01*
X150465644Y-89248471D01*
X150478715Y-89318254D01*
X150451983Y-89384026D01*
X150411528Y-89417384D01*
X150403607Y-89421507D01*
X150399474Y-89424610D01*
X150399471Y-89424612D01*
X150372000Y-89445238D01*
X150224965Y-89555635D01*
X150070629Y-89717138D01*
X149944743Y-89901680D01*
X149850688Y-90104305D01*
X149790989Y-90319570D01*
X149767251Y-90541695D01*
X149767548Y-90546848D01*
X149767548Y-90546851D01*
X149772552Y-90633632D01*
X149780110Y-90764715D01*
X149781247Y-90769761D01*
X149781248Y-90769767D01*
X149803402Y-90868069D01*
X149829222Y-90982639D01*
X149913266Y-91189616D01*
X150029987Y-91380088D01*
X150176250Y-91548938D01*
X150348126Y-91691632D01*
X150363470Y-91700598D01*
X150421445Y-91734476D01*
X150470169Y-91786114D01*
X150483240Y-91855897D01*
X150456509Y-91921669D01*
X150416055Y-91955027D01*
X150403607Y-91961507D01*
X150399474Y-91964610D01*
X150399471Y-91964612D01*
X150229100Y-92092530D01*
X150224965Y-92095635D01*
X150070629Y-92257138D01*
X150067715Y-92261410D01*
X150067714Y-92261411D01*
X149982556Y-92386249D01*
X149944743Y-92441680D01*
X149850688Y-92644305D01*
X149790989Y-92859570D01*
X149767251Y-93081695D01*
X149767548Y-93086848D01*
X149767548Y-93086851D01*
X149772552Y-93173632D01*
X149780110Y-93304715D01*
X149781247Y-93309761D01*
X149781248Y-93309767D01*
X149794597Y-93369000D01*
X149829222Y-93522639D01*
X149913266Y-93729616D01*
X150029987Y-93920088D01*
X150176250Y-94088938D01*
X150348126Y-94231632D01*
X150357672Y-94237210D01*
X150421445Y-94274476D01*
X150470169Y-94326114D01*
X150483240Y-94395897D01*
X150456509Y-94461669D01*
X150416055Y-94495027D01*
X150403607Y-94501507D01*
X150399474Y-94504610D01*
X150399471Y-94504612D01*
X150341841Y-94547882D01*
X150224965Y-94635635D01*
X150221393Y-94639373D01*
X150127835Y-94737276D01*
X150070629Y-94797138D01*
X150067715Y-94801410D01*
X150067714Y-94801411D01*
X149986496Y-94920473D01*
X149944743Y-94981680D01*
X149850688Y-95184305D01*
X149790989Y-95399570D01*
X149767251Y-95621695D01*
X149767548Y-95626848D01*
X149767548Y-95626851D01*
X149773011Y-95721590D01*
X149780110Y-95844715D01*
X149781247Y-95849761D01*
X149781248Y-95849767D01*
X149794597Y-95909000D01*
X149829222Y-96062639D01*
X149913266Y-96269616D01*
X150029987Y-96460088D01*
X150176250Y-96628938D01*
X150348126Y-96771632D01*
X150357672Y-96777210D01*
X150421955Y-96814774D01*
X150470679Y-96866412D01*
X150483750Y-96936195D01*
X150457019Y-97001967D01*
X150416562Y-97035327D01*
X150408457Y-97039546D01*
X150399738Y-97045036D01*
X150229433Y-97172905D01*
X150221726Y-97179748D01*
X150074590Y-97333717D01*
X150068104Y-97341727D01*
X149948098Y-97517649D01*
X149943000Y-97526623D01*
X149853338Y-97719783D01*
X149849775Y-97729470D01*
X149794389Y-97929183D01*
X149795912Y-97937607D01*
X149808292Y-97941000D01*
X151258000Y-97941000D01*
X151326121Y-97961002D01*
X151372614Y-98014658D01*
X151384000Y-98067000D01*
X151384000Y-98323000D01*
X151363998Y-98391121D01*
X151310342Y-98437614D01*
X151258000Y-98449000D01*
X149813225Y-98449000D01*
X149799694Y-98452973D01*
X149798257Y-98462966D01*
X149828565Y-98597446D01*
X149831645Y-98607275D01*
X149911770Y-98804603D01*
X149916413Y-98813794D01*
X150027694Y-98995388D01*
X150033777Y-99003699D01*
X150173213Y-99164667D01*
X150180580Y-99171883D01*
X150344434Y-99307916D01*
X150352881Y-99313831D01*
X150421969Y-99354203D01*
X150470693Y-99405842D01*
X150483764Y-99475625D01*
X150457033Y-99541396D01*
X150416584Y-99574752D01*
X150403607Y-99581507D01*
X150399474Y-99584610D01*
X150399471Y-99584612D01*
X150341841Y-99627882D01*
X150224965Y-99715635D01*
X150221393Y-99719373D01*
X150127835Y-99817276D01*
X150070629Y-99877138D01*
X150067715Y-99881410D01*
X150067714Y-99881411D01*
X149986496Y-100000473D01*
X149944743Y-100061680D01*
X149850688Y-100264305D01*
X149790989Y-100479570D01*
X149767251Y-100701695D01*
X149767548Y-100706848D01*
X149767548Y-100706851D01*
X149772552Y-100793632D01*
X149780110Y-100924715D01*
X149781247Y-100929761D01*
X149781248Y-100929767D01*
X149794597Y-100989000D01*
X149829222Y-101142639D01*
X149913266Y-101349616D01*
X150029987Y-101540088D01*
X150176250Y-101708938D01*
X150348126Y-101851632D01*
X150363470Y-101860598D01*
X150421445Y-101894476D01*
X150470169Y-101946114D01*
X150483240Y-102015897D01*
X150456509Y-102081669D01*
X150416055Y-102115027D01*
X150403607Y-102121507D01*
X150399474Y-102124610D01*
X150399471Y-102124612D01*
X150372000Y-102145238D01*
X150224965Y-102255635D01*
X150070629Y-102417138D01*
X149944743Y-102601680D01*
X149850688Y-102804305D01*
X149790989Y-103019570D01*
X149767251Y-103241695D01*
X149767548Y-103246848D01*
X149767548Y-103246851D01*
X149772552Y-103333632D01*
X149780110Y-103464715D01*
X149781247Y-103469761D01*
X149781248Y-103469767D01*
X149803402Y-103568069D01*
X149829222Y-103682639D01*
X149913266Y-103889616D01*
X150029987Y-104080088D01*
X150176250Y-104248938D01*
X150348126Y-104391632D01*
X150363470Y-104400598D01*
X150421445Y-104434476D01*
X150470169Y-104486114D01*
X150483240Y-104555897D01*
X150456509Y-104621669D01*
X150416055Y-104655027D01*
X150403607Y-104661507D01*
X150399474Y-104664610D01*
X150399471Y-104664612D01*
X150372000Y-104685238D01*
X150224965Y-104795635D01*
X150070629Y-104957138D01*
X149944743Y-105141680D01*
X149850688Y-105344305D01*
X149790989Y-105559570D01*
X149767251Y-105781695D01*
X149767548Y-105786848D01*
X149767548Y-105786851D01*
X149772552Y-105873632D01*
X149780110Y-106004715D01*
X149781247Y-106009761D01*
X149781248Y-106009767D01*
X149803402Y-106108069D01*
X149829222Y-106222639D01*
X149913266Y-106429616D01*
X150029987Y-106620088D01*
X150176250Y-106788938D01*
X150348126Y-106931632D01*
X150363470Y-106940598D01*
X150421445Y-106974476D01*
X150470169Y-107026114D01*
X150483240Y-107095897D01*
X150456509Y-107161669D01*
X150416055Y-107195027D01*
X150403607Y-107201507D01*
X150399474Y-107204610D01*
X150399471Y-107204612D01*
X150372000Y-107225238D01*
X150224965Y-107335635D01*
X150070629Y-107497138D01*
X149944743Y-107681680D01*
X149850688Y-107884305D01*
X149790989Y-108099570D01*
X149767251Y-108321695D01*
X149767548Y-108326848D01*
X149767548Y-108326851D01*
X149773106Y-108423240D01*
X149780110Y-108544715D01*
X149781247Y-108549761D01*
X149781248Y-108549767D01*
X149802246Y-108642939D01*
X149829222Y-108762639D01*
X149913266Y-108969616D01*
X150029987Y-109160088D01*
X150176250Y-109328938D01*
X150348126Y-109471632D01*
X150363470Y-109480598D01*
X150421955Y-109514774D01*
X150470679Y-109566412D01*
X150483750Y-109636195D01*
X150457019Y-109701967D01*
X150416562Y-109735327D01*
X150408457Y-109739546D01*
X150399738Y-109745036D01*
X150229433Y-109872905D01*
X150221726Y-109879748D01*
X150074590Y-110033717D01*
X150068104Y-110041727D01*
X149948098Y-110217649D01*
X149943000Y-110226623D01*
X149853338Y-110419783D01*
X149849775Y-110429470D01*
X149794389Y-110629183D01*
X149795912Y-110637607D01*
X149808292Y-110641000D01*
X151258000Y-110641000D01*
X151326121Y-110661002D01*
X151372614Y-110714658D01*
X151384000Y-110767000D01*
X151384000Y-111023000D01*
X151363998Y-111091121D01*
X151310342Y-111137614D01*
X151258000Y-111149000D01*
X149813225Y-111149000D01*
X149799694Y-111152973D01*
X149798257Y-111162966D01*
X149828565Y-111297446D01*
X149831645Y-111307275D01*
X149911770Y-111504603D01*
X149916413Y-111513794D01*
X150027694Y-111695388D01*
X150033777Y-111703699D01*
X150173213Y-111864667D01*
X150180580Y-111871883D01*
X150344434Y-112007916D01*
X150352881Y-112013831D01*
X150421969Y-112054203D01*
X150470693Y-112105842D01*
X150483764Y-112175625D01*
X150457033Y-112241396D01*
X150416584Y-112274752D01*
X150403607Y-112281507D01*
X150399474Y-112284610D01*
X150399471Y-112284612D01*
X150341841Y-112327882D01*
X150224965Y-112415635D01*
X150070629Y-112577138D01*
X150067715Y-112581410D01*
X150067714Y-112581411D01*
X149990529Y-112694560D01*
X149944743Y-112761680D01*
X149850688Y-112964305D01*
X149790989Y-113179570D01*
X149767251Y-113401695D01*
X149767548Y-113406848D01*
X149767548Y-113406851D01*
X149773299Y-113506590D01*
X149780110Y-113624715D01*
X149781247Y-113629761D01*
X149781248Y-113629767D01*
X149800974Y-113717294D01*
X149829222Y-113842639D01*
X149913266Y-114049616D01*
X150029987Y-114240088D01*
X150176250Y-114408938D01*
X150348126Y-114551632D01*
X150363470Y-114560598D01*
X150421445Y-114594476D01*
X150470169Y-114646114D01*
X150483240Y-114715897D01*
X150456509Y-114781669D01*
X150416055Y-114815027D01*
X150403607Y-114821507D01*
X150399474Y-114824610D01*
X150399471Y-114824612D01*
X150341841Y-114867882D01*
X150224965Y-114955635D01*
X150070629Y-115117138D01*
X149944743Y-115301680D01*
X149850688Y-115504305D01*
X149790989Y-115719570D01*
X149767251Y-115941695D01*
X149767548Y-115946848D01*
X149767548Y-115946851D01*
X149773106Y-116043240D01*
X149780110Y-116164715D01*
X149781247Y-116169761D01*
X149781248Y-116169767D01*
X149802246Y-116262939D01*
X149829222Y-116382639D01*
X149913266Y-116589616D01*
X150029987Y-116780088D01*
X150176250Y-116948938D01*
X150348126Y-117091632D01*
X150541000Y-117204338D01*
X150545825Y-117206180D01*
X150545826Y-117206181D01*
X150580417Y-117219390D01*
X150749692Y-117284030D01*
X150754760Y-117285061D01*
X150754763Y-117285062D01*
X150862017Y-117306883D01*
X150968597Y-117328567D01*
X150973772Y-117328757D01*
X150973774Y-117328757D01*
X151186673Y-117336564D01*
X151186677Y-117336564D01*
X151191837Y-117336753D01*
X151196957Y-117336097D01*
X151196959Y-117336097D01*
X151408288Y-117309025D01*
X151408289Y-117309025D01*
X151413416Y-117308368D01*
X151436085Y-117301567D01*
X151622429Y-117245661D01*
X151622434Y-117245659D01*
X151627384Y-117244174D01*
X151710070Y-117203666D01*
X151780041Y-117191660D01*
X151845398Y-117219390D01*
X151885388Y-117278052D01*
X151891500Y-117316818D01*
X151891500Y-130365500D01*
X151871498Y-130433621D01*
X151817842Y-130480114D01*
X151765500Y-130491500D01*
X147111037Y-130491500D01*
X147042916Y-130471498D01*
X146996423Y-130417842D01*
X146986319Y-130347568D01*
X146998226Y-130309377D01*
X147068453Y-130168216D01*
X147068454Y-130168213D01*
X147070486Y-130164129D01*
X147156763Y-129900943D01*
X147188405Y-129718701D01*
X147203487Y-129631840D01*
X147203488Y-129631832D01*
X147204143Y-129628059D01*
X147208500Y-129540542D01*
X147208500Y-128757234D01*
X147228502Y-128689113D01*
X147282158Y-128642620D01*
X147352432Y-128632516D01*
X147417012Y-128662010D01*
X147446516Y-128699542D01*
X147529059Y-128859808D01*
X147531809Y-128865148D01*
X147535513Y-128869863D01*
X147661711Y-129030522D01*
X147661715Y-129030527D01*
X147665417Y-129035239D01*
X147669947Y-129039170D01*
X147669948Y-129039171D01*
X147824248Y-129173067D01*
X147824253Y-129173071D01*
X147828779Y-129176998D01*
X148015999Y-129285307D01*
X148126795Y-129323782D01*
X148214658Y-129354293D01*
X148214660Y-129354294D01*
X148220323Y-129356260D01*
X148226258Y-129357121D01*
X148226260Y-129357121D01*
X148428437Y-129386436D01*
X148428440Y-129386436D01*
X148434377Y-129387297D01*
X148650438Y-129377296D01*
X148785770Y-129344681D01*
X148854877Y-129328026D01*
X148854879Y-129328025D01*
X148860710Y-129326620D01*
X148866168Y-129324138D01*
X148866172Y-129324137D01*
X148985348Y-129269951D01*
X149057606Y-129237097D01*
X149234021Y-129111957D01*
X149383590Y-128955715D01*
X149500916Y-128774009D01*
X149504644Y-128764760D01*
X149579524Y-128578959D01*
X149581766Y-128573396D01*
X149582914Y-128567515D01*
X149582916Y-128567510D01*
X149622354Y-128365559D01*
X149622354Y-128365556D01*
X149623222Y-128361113D01*
X149623500Y-128355429D01*
X149623500Y-126445959D01*
X149608113Y-126284685D01*
X149547226Y-126077140D01*
X149543676Y-126070248D01*
X149450937Y-125890183D01*
X149450935Y-125890180D01*
X149448191Y-125884852D01*
X149377050Y-125794285D01*
X149318289Y-125719478D01*
X149318285Y-125719473D01*
X149314583Y-125714761D01*
X149294560Y-125697386D01*
X149155752Y-125576933D01*
X149155747Y-125576929D01*
X149151221Y-125573002D01*
X148964001Y-125464693D01*
X148840983Y-125421974D01*
X148765342Y-125395707D01*
X148765340Y-125395706D01*
X148759677Y-125393740D01*
X148753742Y-125392879D01*
X148753740Y-125392879D01*
X148551563Y-125363564D01*
X148551560Y-125363564D01*
X148545623Y-125362703D01*
X148329562Y-125372704D01*
X148234115Y-125395707D01*
X148125123Y-125421974D01*
X148125121Y-125421975D01*
X148119290Y-125423380D01*
X148113832Y-125425862D01*
X148113828Y-125425863D01*
X148021815Y-125467699D01*
X147922394Y-125512903D01*
X147745979Y-125638043D01*
X147685310Y-125701419D01*
X147604356Y-125785985D01*
X147596410Y-125794285D01*
X147593159Y-125799320D01*
X147500990Y-125942065D01*
X147479084Y-125975991D01*
X147398234Y-126176604D01*
X147397086Y-126182485D01*
X147397084Y-126182490D01*
X147366309Y-126340081D01*
X147356778Y-126388887D01*
X147356500Y-126394571D01*
X147356500Y-126890766D01*
X147336498Y-126958887D01*
X147282842Y-127005380D01*
X147212568Y-127015484D01*
X147147988Y-126985990D01*
X147112673Y-126935407D01*
X147037342Y-126736574D01*
X147037341Y-126736571D01*
X147035724Y-126732304D01*
X146901236Y-126490180D01*
X146780113Y-126331471D01*
X146735977Y-126273639D01*
X146735976Y-126273638D01*
X146733205Y-126270007D01*
X146592202Y-126132167D01*
X146557474Y-126070248D01*
X146561735Y-125999380D01*
X146603634Y-125942065D01*
X146628530Y-125927189D01*
X146632617Y-125925348D01*
X146632620Y-125925346D01*
X146637480Y-125923157D01*
X146835762Y-125789666D01*
X146864589Y-125762167D01*
X146987401Y-125645009D01*
X147008718Y-125624674D01*
X147151402Y-125432900D01*
X147156243Y-125423380D01*
X147257314Y-125224586D01*
X147257314Y-125224585D01*
X147259733Y-125219828D01*
X147300361Y-125088984D01*
X147329032Y-124996651D01*
X147329033Y-124996645D01*
X147330616Y-124991548D01*
X147362023Y-124754589D01*
X147353055Y-124515726D01*
X147303970Y-124281789D01*
X147216171Y-124059467D01*
X147092168Y-123855117D01*
X147002103Y-123751326D01*
X146939007Y-123678614D01*
X146939005Y-123678612D01*
X146935507Y-123674581D01*
X146931381Y-123671198D01*
X146931377Y-123671194D01*
X146794609Y-123559052D01*
X146754615Y-123500393D01*
X146748500Y-123461618D01*
X146748500Y-122590231D01*
X146747814Y-122583227D01*
X146734681Y-122449301D01*
X146734080Y-122443167D01*
X146676916Y-122253831D01*
X146584066Y-122079204D01*
X146513709Y-121992938D01*
X146462960Y-121930713D01*
X146462957Y-121930710D01*
X146459065Y-121925938D01*
X146452724Y-121920692D01*
X146311425Y-121803799D01*
X146311421Y-121803797D01*
X146306675Y-121799870D01*
X146132701Y-121705802D01*
X145943768Y-121647318D01*
X145937643Y-121646674D01*
X145937642Y-121646674D01*
X145753204Y-121627289D01*
X145753202Y-121627289D01*
X145747075Y-121626645D01*
X145664576Y-121634153D01*
X145556251Y-121644011D01*
X145556248Y-121644012D01*
X145550112Y-121644570D01*
X145544206Y-121646308D01*
X145544202Y-121646309D01*
X145439076Y-121677249D01*
X145360381Y-121700410D01*
X145354923Y-121703263D01*
X145354919Y-121703265D01*
X145264147Y-121750720D01*
X145185110Y-121792040D01*
X145030975Y-121915968D01*
X144903846Y-122067474D01*
X144900879Y-122072872D01*
X144900875Y-122072877D01*
X144897397Y-122079204D01*
X144808567Y-122240787D01*
X144806706Y-122246654D01*
X144806705Y-122246656D01*
X144750627Y-122423436D01*
X144748765Y-122429306D01*
X144731500Y-122583227D01*
X144731500Y-122802862D01*
X144711498Y-122870983D01*
X144657842Y-122917476D01*
X144587568Y-122927580D01*
X144578014Y-122925828D01*
X144408494Y-122887936D01*
X144408495Y-122887936D01*
X144403457Y-122886810D01*
X144397912Y-122886500D01*
X144264756Y-122886500D01*
X144129963Y-122901143D01*
X144011810Y-122940906D01*
X143964796Y-122956728D01*
X143964794Y-122956729D01*
X143958325Y-122958906D01*
X143803095Y-123052177D01*
X143798138Y-123056865D01*
X143798135Y-123056867D01*
X143743329Y-123108695D01*
X143671515Y-123176607D01*
X143667683Y-123182245D01*
X143667680Y-123182249D01*
X143616739Y-123257206D01*
X143569723Y-123326388D01*
X143567596Y-123331705D01*
X143518249Y-123382161D01*
X143508390Y-123387133D01*
X143367381Y-123450653D01*
X143367378Y-123450654D01*
X143362520Y-123452843D01*
X143164238Y-123586334D01*
X142991282Y-123751326D01*
X142848598Y-123943100D01*
X142740267Y-124156172D01*
X142704826Y-124270312D01*
X142670968Y-124379349D01*
X142670967Y-124379355D01*
X142669384Y-124384452D01*
X142637977Y-124621411D01*
X142646945Y-124860274D01*
X142696030Y-125094211D01*
X142783829Y-125316533D01*
X142907832Y-125520883D01*
X142911329Y-125524913D01*
X143060993Y-125697386D01*
X143064493Y-125701419D01*
X143064758Y-125701637D01*
X143098913Y-125762167D01*
X143101487Y-125777490D01*
X143115768Y-125913365D01*
X143116458Y-125919928D01*
X143175473Y-126101556D01*
X143178776Y-126107278D01*
X143178777Y-126107279D01*
X143226157Y-126189343D01*
X143242895Y-126258338D01*
X143219675Y-126325430D01*
X143215093Y-126331471D01*
X143213867Y-126332990D01*
X143210750Y-126336327D01*
X143052880Y-126563896D01*
X143050851Y-126567975D01*
X142971084Y-126728313D01*
X142929514Y-126811871D01*
X142928092Y-126816209D01*
X142872435Y-126985990D01*
X142843237Y-127075057D01*
X142842457Y-127079548D01*
X142842457Y-127079549D01*
X142810821Y-127261759D01*
X142795857Y-127347941D01*
X142791500Y-127435458D01*
X142791500Y-128308356D01*
X142791665Y-128310624D01*
X142791665Y-128310636D01*
X142799907Y-128424222D01*
X142806439Y-128514241D01*
X142807424Y-128518701D01*
X142864902Y-128779046D01*
X142866149Y-128784695D01*
X142867767Y-128788965D01*
X142962562Y-129039171D01*
X142964276Y-129043696D01*
X143098764Y-129285820D01*
X143266795Y-129505993D01*
X143270061Y-129509186D01*
X143270063Y-129509188D01*
X143366700Y-129603657D01*
X143401430Y-129665579D01*
X143404291Y-129684636D01*
X143406439Y-129714241D01*
X143466149Y-129984695D01*
X143564276Y-130243696D01*
X143566492Y-130247686D01*
X143566495Y-130247692D01*
X143597948Y-130304317D01*
X143613541Y-130373580D01*
X143589211Y-130440278D01*
X143532684Y-130483234D01*
X143487800Y-130491500D01*
X139451037Y-130491500D01*
X139382916Y-130471498D01*
X139336423Y-130417842D01*
X139326319Y-130347568D01*
X139338226Y-130309377D01*
X139408453Y-130168216D01*
X139408454Y-130168213D01*
X139410486Y-130164129D01*
X139496763Y-129900943D01*
X139535634Y-129677066D01*
X139567699Y-129612611D01*
X139729250Y-129439673D01*
X139887120Y-129212104D01*
X139951043Y-129083615D01*
X140008453Y-128968216D01*
X140008454Y-128968213D01*
X140010486Y-128964129D01*
X140070770Y-128780235D01*
X140095343Y-128705276D01*
X140095344Y-128705270D01*
X140096763Y-128700943D01*
X140103523Y-128662010D01*
X140143487Y-128431840D01*
X140143488Y-128431832D01*
X140144143Y-128428059D01*
X140148500Y-128340542D01*
X140148500Y-127467644D01*
X140133561Y-127261759D01*
X140079189Y-127015484D01*
X140074836Y-126995765D01*
X140074835Y-126995761D01*
X140073851Y-126991305D01*
X139975724Y-126732304D01*
X139841236Y-126490180D01*
X139766304Y-126391995D01*
X139740877Y-126325709D01*
X139757348Y-126252554D01*
X139841223Y-126107279D01*
X139841224Y-126107278D01*
X139844527Y-126101556D01*
X139903542Y-125919928D01*
X139910302Y-125855615D01*
X139922814Y-125736565D01*
X139923504Y-125730000D01*
X139922814Y-125723431D01*
X139921912Y-125714847D01*
X139934685Y-125645009D01*
X139948210Y-125625040D01*
X139947718Y-125624674D01*
X140024941Y-125520883D01*
X140090402Y-125432900D01*
X140095243Y-125423380D01*
X140196314Y-125224586D01*
X140196314Y-125224585D01*
X140198733Y-125219828D01*
X140239361Y-125088984D01*
X140268032Y-124996651D01*
X140268033Y-124996645D01*
X140269616Y-124991548D01*
X140301023Y-124754589D01*
X140292055Y-124515726D01*
X140242970Y-124281789D01*
X140155171Y-124059467D01*
X140031168Y-123855117D01*
X139941103Y-123751326D01*
X139878007Y-123678614D01*
X139878005Y-123678612D01*
X139874507Y-123674581D01*
X139870381Y-123671198D01*
X139870377Y-123671194D01*
X139693795Y-123526407D01*
X139689667Y-123523022D01*
X139685031Y-123520383D01*
X139685028Y-123520381D01*
X139486577Y-123407416D01*
X139481934Y-123404773D01*
X139476918Y-123402952D01*
X139476913Y-123402950D01*
X139310205Y-123342438D01*
X139252996Y-123300393D01*
X139241739Y-123282764D01*
X139239011Y-123277590D01*
X139225078Y-123251164D01*
X139220673Y-123245951D01*
X139220670Y-123245947D01*
X139112594Y-123118057D01*
X139112590Y-123118053D01*
X139108187Y-123112843D01*
X139102762Y-123108695D01*
X138969743Y-123006994D01*
X138969739Y-123006991D01*
X138964322Y-123002850D01*
X138806478Y-122929246D01*
X138806369Y-122929195D01*
X138806366Y-122929194D01*
X138800192Y-122926315D01*
X138793544Y-122924829D01*
X138793541Y-122924828D01*
X138628494Y-122887936D01*
X138628495Y-122887936D01*
X138623457Y-122886810D01*
X138617912Y-122886500D01*
X138484756Y-122886500D01*
X138349963Y-122901143D01*
X138274688Y-122926476D01*
X138203747Y-122929246D01*
X138142568Y-122893223D01*
X138110577Y-122829842D01*
X138108500Y-122807057D01*
X138108500Y-122590231D01*
X138107814Y-122583227D01*
X138094681Y-122449301D01*
X138094080Y-122443167D01*
X138036916Y-122253831D01*
X137944066Y-122079204D01*
X137873709Y-121992938D01*
X137822960Y-121930713D01*
X137822957Y-121930710D01*
X137819065Y-121925938D01*
X137812724Y-121920692D01*
X137671425Y-121803799D01*
X137671421Y-121803797D01*
X137666675Y-121799870D01*
X137492701Y-121705802D01*
X137303768Y-121647318D01*
X137297643Y-121646674D01*
X137297642Y-121646674D01*
X137113204Y-121627289D01*
X137113202Y-121627289D01*
X137107075Y-121626645D01*
X137024576Y-121634153D01*
X136916251Y-121644011D01*
X136916248Y-121644012D01*
X136910112Y-121644570D01*
X136904206Y-121646308D01*
X136904202Y-121646309D01*
X136799076Y-121677249D01*
X136720381Y-121700410D01*
X136714923Y-121703263D01*
X136714919Y-121703265D01*
X136624147Y-121750720D01*
X136545110Y-121792040D01*
X136390975Y-121915968D01*
X136263846Y-122067474D01*
X136260879Y-122072872D01*
X136260875Y-122072877D01*
X136257397Y-122079204D01*
X136168567Y-122240787D01*
X136166706Y-122246654D01*
X136166705Y-122246656D01*
X136110627Y-122423436D01*
X136108765Y-122429306D01*
X136091500Y-122583227D01*
X136091500Y-123543593D01*
X136071498Y-123611714D01*
X136052471Y-123634763D01*
X135934144Y-123747641D01*
X135934139Y-123747646D01*
X135930282Y-123751326D01*
X135787598Y-123943100D01*
X135679267Y-124156172D01*
X135643826Y-124270312D01*
X135609968Y-124379349D01*
X135609967Y-124379355D01*
X135608384Y-124384452D01*
X135576977Y-124621411D01*
X135585945Y-124860274D01*
X135635030Y-125094211D01*
X135722829Y-125316533D01*
X135846832Y-125520883D01*
X135850329Y-125524913D01*
X135963444Y-125655266D01*
X136003493Y-125701419D01*
X136007619Y-125704802D01*
X136007623Y-125704806D01*
X136122892Y-125799320D01*
X136188333Y-125852978D01*
X136316976Y-125926206D01*
X136320869Y-125928422D01*
X136370175Y-125979505D01*
X136384036Y-126049135D01*
X136358052Y-126115206D01*
X136344148Y-126130372D01*
X136343387Y-126131077D01*
X136339818Y-126133931D01*
X136150750Y-126336327D01*
X135992880Y-126563896D01*
X135990851Y-126567975D01*
X135872311Y-126806249D01*
X135824060Y-126858329D01*
X135755312Y-126876056D01*
X135687894Y-126853801D01*
X135643210Y-126798630D01*
X135633500Y-126750126D01*
X135633500Y-126445959D01*
X135618113Y-126284685D01*
X135557226Y-126077140D01*
X135553676Y-126070248D01*
X135460937Y-125890183D01*
X135460935Y-125890180D01*
X135458191Y-125884852D01*
X135387050Y-125794285D01*
X135328289Y-125719478D01*
X135328285Y-125719473D01*
X135324583Y-125714761D01*
X135304560Y-125697386D01*
X135165752Y-125576933D01*
X135165747Y-125576929D01*
X135161221Y-125573002D01*
X134974001Y-125464693D01*
X134850983Y-125421974D01*
X134775342Y-125395707D01*
X134775340Y-125395706D01*
X134769677Y-125393740D01*
X134763742Y-125392879D01*
X134763740Y-125392879D01*
X134561563Y-125363564D01*
X134561560Y-125363564D01*
X134555623Y-125362703D01*
X134339562Y-125372704D01*
X134244115Y-125395707D01*
X134135123Y-125421974D01*
X134135121Y-125421975D01*
X134129290Y-125423380D01*
X134123832Y-125425862D01*
X134123828Y-125425863D01*
X134031815Y-125467699D01*
X133932394Y-125512903D01*
X133755979Y-125638043D01*
X133695310Y-125701419D01*
X133614356Y-125785985D01*
X133606410Y-125794285D01*
X133603159Y-125799320D01*
X133510990Y-125942065D01*
X133489084Y-125975991D01*
X133408234Y-126176604D01*
X133407086Y-126182485D01*
X133407084Y-126182490D01*
X133376309Y-126340081D01*
X133366778Y-126388887D01*
X133366500Y-126394571D01*
X133366500Y-128304041D01*
X133381887Y-128465315D01*
X133442774Y-128672860D01*
X133445518Y-128678187D01*
X133445518Y-128678188D01*
X133539059Y-128859808D01*
X133541809Y-128865148D01*
X133545513Y-128869863D01*
X133671711Y-129030522D01*
X133671715Y-129030527D01*
X133675417Y-129035239D01*
X133679947Y-129039170D01*
X133679948Y-129039171D01*
X133834248Y-129173067D01*
X133834253Y-129173071D01*
X133838779Y-129176998D01*
X134025999Y-129285307D01*
X134136795Y-129323782D01*
X134224658Y-129354293D01*
X134224660Y-129354294D01*
X134230323Y-129356260D01*
X134236258Y-129357121D01*
X134236260Y-129357121D01*
X134438437Y-129386436D01*
X134438440Y-129386436D01*
X134444377Y-129387297D01*
X134660438Y-129377296D01*
X134795770Y-129344681D01*
X134864877Y-129328026D01*
X134864879Y-129328025D01*
X134870710Y-129326620D01*
X134876168Y-129324138D01*
X134876172Y-129324137D01*
X134995348Y-129269951D01*
X135067606Y-129237097D01*
X135244021Y-129111957D01*
X135393590Y-128955715D01*
X135499648Y-128791460D01*
X135553403Y-128745083D01*
X135623699Y-128735129D01*
X135688216Y-128764760D01*
X135726472Y-128824569D01*
X135731500Y-128859808D01*
X135731500Y-129508356D01*
X135731665Y-129510624D01*
X135731665Y-129510636D01*
X135739907Y-129624222D01*
X135746439Y-129714241D01*
X135806149Y-129984695D01*
X135904276Y-130243696D01*
X135906492Y-130247686D01*
X135906495Y-130247692D01*
X135937948Y-130304317D01*
X135953541Y-130373580D01*
X135929211Y-130440278D01*
X135872684Y-130483234D01*
X135827800Y-130491500D01*
X131444500Y-130491500D01*
X131376379Y-130471498D01*
X131329886Y-130417842D01*
X131318500Y-130365500D01*
X131318500Y-118966114D01*
X138383275Y-118966114D01*
X138385325Y-118983830D01*
X138387285Y-118993727D01*
X138450604Y-119217494D01*
X138454116Y-119226938D01*
X138552399Y-119437705D01*
X138557378Y-119446471D01*
X138688087Y-119638802D01*
X138694419Y-119646677D01*
X138854186Y-119815626D01*
X138861695Y-119822387D01*
X139046426Y-119963625D01*
X139054905Y-119969089D01*
X139259847Y-120078978D01*
X139269099Y-120083020D01*
X139488971Y-120158727D01*
X139498743Y-120161236D01*
X139728971Y-120201004D01*
X139736843Y-120201859D01*
X139760551Y-120202936D01*
X139763384Y-120203000D01*
X140409128Y-120203000D01*
X140477249Y-120223002D01*
X140523742Y-120276658D01*
X140533846Y-120346932D01*
X140502765Y-120413308D01*
X140430960Y-120493056D01*
X140335473Y-120658444D01*
X140276458Y-120840072D01*
X140256496Y-121030000D01*
X140276458Y-121219928D01*
X140335473Y-121401556D01*
X140430960Y-121566944D01*
X140435378Y-121571851D01*
X140435379Y-121571852D01*
X140549566Y-121698670D01*
X140558747Y-121708866D01*
X140657843Y-121780864D01*
X140689411Y-121803799D01*
X140713248Y-121821118D01*
X140719276Y-121823802D01*
X140719278Y-121823803D01*
X140881681Y-121896109D01*
X140887712Y-121898794D01*
X140968509Y-121915968D01*
X141068056Y-121937128D01*
X141068061Y-121937128D01*
X141074513Y-121938500D01*
X141265487Y-121938500D01*
X141271939Y-121937128D01*
X141271944Y-121937128D01*
X141371491Y-121915968D01*
X141452288Y-121898794D01*
X141458319Y-121896109D01*
X141620722Y-121823803D01*
X141620724Y-121823802D01*
X141626752Y-121821118D01*
X141650590Y-121803799D01*
X141682157Y-121780864D01*
X141781253Y-121708866D01*
X141790434Y-121698670D01*
X141904621Y-121571852D01*
X141904622Y-121571851D01*
X141909040Y-121566944D01*
X142004527Y-121401556D01*
X142063542Y-121219928D01*
X142083504Y-121030000D01*
X142063542Y-120840072D01*
X142004527Y-120658444D01*
X141909040Y-120493056D01*
X141837234Y-120413308D01*
X141806519Y-120349303D01*
X141815282Y-120278850D01*
X141860745Y-120224318D01*
X141930872Y-120203000D01*
X142128456Y-120203000D01*
X142133488Y-120202798D01*
X142306843Y-120188850D01*
X142316796Y-120187238D01*
X142542633Y-120131767D01*
X142552203Y-120128584D01*
X142766265Y-120037720D01*
X142775207Y-120033045D01*
X142971987Y-119909126D01*
X142980060Y-119903086D01*
X143154500Y-119749297D01*
X143161504Y-119742044D01*
X143309110Y-119562346D01*
X143314866Y-119554064D01*
X143431841Y-119353081D01*
X143436203Y-119343976D01*
X143519537Y-119126885D01*
X143522388Y-119117196D01*
X143553821Y-118966736D01*
X143552698Y-118952675D01*
X143542590Y-118949000D01*
X138399410Y-118949000D01*
X138385324Y-118953136D01*
X138383275Y-118966114D01*
X131318500Y-118966114D01*
X131318500Y-118423264D01*
X138386179Y-118423264D01*
X138387302Y-118437325D01*
X138397410Y-118441000D01*
X140697885Y-118441000D01*
X140713124Y-118436525D01*
X140714329Y-118435135D01*
X140716000Y-118427452D01*
X140716000Y-118422885D01*
X141224000Y-118422885D01*
X141228475Y-118438124D01*
X141229865Y-118439329D01*
X141237548Y-118441000D01*
X143540590Y-118441000D01*
X143554676Y-118436864D01*
X143556725Y-118423886D01*
X143554675Y-118406170D01*
X143552715Y-118396273D01*
X143489396Y-118172506D01*
X143485884Y-118163062D01*
X143387601Y-117952295D01*
X143382622Y-117943529D01*
X143251913Y-117751198D01*
X143245581Y-117743323D01*
X143085814Y-117574374D01*
X143078305Y-117567613D01*
X142893574Y-117426375D01*
X142885095Y-117420911D01*
X142680153Y-117311022D01*
X142670901Y-117306980D01*
X142451029Y-117231273D01*
X142441257Y-117228764D01*
X142211029Y-117188996D01*
X142203157Y-117188141D01*
X142179449Y-117187064D01*
X142176616Y-117187000D01*
X141242115Y-117187000D01*
X141226876Y-117191475D01*
X141225671Y-117192865D01*
X141224000Y-117200548D01*
X141224000Y-118422885D01*
X140716000Y-118422885D01*
X140716000Y-117205115D01*
X140711525Y-117189876D01*
X140710135Y-117188671D01*
X140702452Y-117187000D01*
X139811544Y-117187000D01*
X139806512Y-117187202D01*
X139633157Y-117201150D01*
X139623204Y-117202762D01*
X139397367Y-117258233D01*
X139387797Y-117261416D01*
X139173735Y-117352280D01*
X139164793Y-117356955D01*
X138968013Y-117480874D01*
X138959940Y-117486914D01*
X138785500Y-117640703D01*
X138778496Y-117647956D01*
X138630890Y-117827654D01*
X138625134Y-117835936D01*
X138508159Y-118036919D01*
X138503797Y-118046024D01*
X138420463Y-118263115D01*
X138417612Y-118272804D01*
X138386179Y-118423264D01*
X131318500Y-118423264D01*
X131318500Y-117316414D01*
X131338502Y-117248293D01*
X131392158Y-117201800D01*
X131462432Y-117191696D01*
X131501477Y-117205324D01*
X131501874Y-117204496D01*
X131506539Y-117206731D01*
X131511000Y-117209338D01*
X131515825Y-117211180D01*
X131515826Y-117211181D01*
X131535899Y-117218846D01*
X131719692Y-117289030D01*
X131724760Y-117290061D01*
X131724763Y-117290062D01*
X131817970Y-117309025D01*
X131938597Y-117333567D01*
X131943772Y-117333757D01*
X131943774Y-117333757D01*
X132156673Y-117341564D01*
X132156677Y-117341564D01*
X132161837Y-117341753D01*
X132166957Y-117341097D01*
X132166959Y-117341097D01*
X132378288Y-117314025D01*
X132378289Y-117314025D01*
X132383416Y-117313368D01*
X132400082Y-117308368D01*
X132592429Y-117250661D01*
X132592434Y-117250659D01*
X132597384Y-117249174D01*
X132797994Y-117150896D01*
X132979860Y-117021173D01*
X132995737Y-117005352D01*
X133134435Y-116867137D01*
X133138096Y-116863489D01*
X133195222Y-116783990D01*
X133265435Y-116686277D01*
X133268453Y-116682077D01*
X133288322Y-116641876D01*
X133365136Y-116486453D01*
X133365137Y-116486451D01*
X133367430Y-116481811D01*
X133375272Y-116456001D01*
X144261500Y-116456001D01*
X144261702Y-116458509D01*
X144261702Y-116458514D01*
X144272605Y-116594020D01*
X144276060Y-116636965D01*
X144277266Y-116641873D01*
X144277266Y-116641876D01*
X144310249Y-116776158D01*
X144333963Y-116872706D01*
X144335938Y-116877358D01*
X144335939Y-116877362D01*
X144367723Y-116952240D01*
X144428812Y-117096156D01*
X144431510Y-117100440D01*
X144543359Y-117278052D01*
X144558167Y-117301567D01*
X144581060Y-117327534D01*
X144715350Y-117479858D01*
X144715353Y-117479861D01*
X144718698Y-117483655D01*
X144722606Y-117486865D01*
X144722607Y-117486866D01*
X144829242Y-117574456D01*
X144906278Y-117637734D01*
X145116078Y-117759841D01*
X145120801Y-117761654D01*
X145337978Y-117845020D01*
X145337982Y-117845021D01*
X145342702Y-117846833D01*
X145347652Y-117847867D01*
X145347655Y-117847868D01*
X145575369Y-117895440D01*
X145575373Y-117895440D01*
X145580320Y-117896474D01*
X145822817Y-117907486D01*
X145827837Y-117906905D01*
X145827841Y-117906905D01*
X146058929Y-117880167D01*
X146058933Y-117880166D01*
X146063956Y-117879585D01*
X146068820Y-117878209D01*
X146068823Y-117878208D01*
X146292669Y-117814866D01*
X146292668Y-117814866D01*
X146297532Y-117813490D01*
X146302108Y-117811356D01*
X146302114Y-117811354D01*
X146512954Y-117713038D01*
X146512958Y-117713036D01*
X146517536Y-117710901D01*
X146718307Y-117574456D01*
X146894681Y-117407668D01*
X146933454Y-117356955D01*
X147039047Y-117218846D01*
X147039050Y-117218842D01*
X147042120Y-117214826D01*
X147046756Y-117206181D01*
X147154439Y-117005352D01*
X147156831Y-117000891D01*
X147235862Y-116771369D01*
X147267256Y-116589616D01*
X147276504Y-116536074D01*
X147276505Y-116536068D01*
X147277179Y-116532164D01*
X147278500Y-116503075D01*
X147278500Y-114133999D01*
X147278298Y-114131486D01*
X147264346Y-113958076D01*
X147264345Y-113958071D01*
X147263940Y-113953035D01*
X147262324Y-113946453D01*
X147207244Y-113722208D01*
X147206037Y-113717294D01*
X147173952Y-113641705D01*
X147116598Y-113506590D01*
X147111188Y-113493844D01*
X146981833Y-113288433D01*
X146914750Y-113212342D01*
X146824650Y-113110142D01*
X146824647Y-113110139D01*
X146821302Y-113106345D01*
X146714993Y-113019022D01*
X146637628Y-112955474D01*
X146637625Y-112955472D01*
X146633722Y-112952266D01*
X146423922Y-112830159D01*
X146419199Y-112828346D01*
X146202022Y-112744980D01*
X146202018Y-112744979D01*
X146197298Y-112743167D01*
X146192348Y-112742133D01*
X146192345Y-112742132D01*
X145964631Y-112694560D01*
X145964627Y-112694560D01*
X145959680Y-112693526D01*
X145717183Y-112682514D01*
X145712163Y-112683095D01*
X145712159Y-112683095D01*
X145481071Y-112709833D01*
X145481067Y-112709834D01*
X145476044Y-112710415D01*
X145471180Y-112711791D01*
X145471177Y-112711792D01*
X145363958Y-112742132D01*
X145242468Y-112776510D01*
X145237892Y-112778644D01*
X145237886Y-112778646D01*
X145027046Y-112876962D01*
X145027042Y-112876964D01*
X145022464Y-112879099D01*
X144821693Y-113015544D01*
X144645319Y-113182332D01*
X144642241Y-113186358D01*
X144642240Y-113186359D01*
X144500953Y-113371154D01*
X144500950Y-113371158D01*
X144497880Y-113375174D01*
X144495490Y-113379632D01*
X144495489Y-113379633D01*
X144480895Y-113406851D01*
X144383169Y-113589109D01*
X144304138Y-113818631D01*
X144299991Y-113842639D01*
X144264241Y-114049616D01*
X144262821Y-114057836D01*
X144261500Y-114086925D01*
X144261500Y-116456001D01*
X133375272Y-116456001D01*
X133432370Y-116268069D01*
X133461529Y-116046590D01*
X133463156Y-115980000D01*
X133444852Y-115757361D01*
X133390431Y-115540702D01*
X133301354Y-115335840D01*
X133180014Y-115148277D01*
X133029670Y-114983051D01*
X133025619Y-114979852D01*
X133025615Y-114979848D01*
X132858414Y-114847800D01*
X132858410Y-114847798D01*
X132854359Y-114844598D01*
X132813053Y-114821796D01*
X132763084Y-114771364D01*
X132748312Y-114701921D01*
X132773428Y-114635516D01*
X132800780Y-114608909D01*
X132844603Y-114577650D01*
X132979860Y-114481173D01*
X133138096Y-114323489D01*
X133195222Y-114243990D01*
X133265435Y-114146277D01*
X133268453Y-114142077D01*
X133271201Y-114136518D01*
X133365136Y-113946453D01*
X133365137Y-113946451D01*
X133367430Y-113941811D01*
X133423197Y-113758261D01*
X133430865Y-113733023D01*
X133430865Y-113733021D01*
X133432370Y-113728069D01*
X133461529Y-113506590D01*
X133461752Y-113497460D01*
X133463074Y-113443365D01*
X133463074Y-113443361D01*
X133463080Y-113443134D01*
X138161500Y-113443134D01*
X138168255Y-113505316D01*
X138219385Y-113641705D01*
X138306739Y-113758261D01*
X138423295Y-113845615D01*
X138559684Y-113896745D01*
X138621866Y-113903500D01*
X143318134Y-113903500D01*
X143380316Y-113896745D01*
X143516705Y-113845615D01*
X143633261Y-113758261D01*
X143720615Y-113641705D01*
X143771745Y-113505316D01*
X143778500Y-113443134D01*
X143778500Y-111346866D01*
X143771745Y-111284684D01*
X143720615Y-111148295D01*
X143633261Y-111031739D01*
X143516705Y-110944385D01*
X143380316Y-110893255D01*
X143318134Y-110886500D01*
X138621866Y-110886500D01*
X138559684Y-110893255D01*
X138423295Y-110944385D01*
X138306739Y-111031739D01*
X138219385Y-111148295D01*
X138168255Y-111284684D01*
X138161500Y-111346866D01*
X138161500Y-113443134D01*
X133463080Y-113443134D01*
X133463156Y-113440000D01*
X133444852Y-113217361D01*
X133390431Y-113000702D01*
X133301354Y-112795840D01*
X133180014Y-112608277D01*
X133029670Y-112443051D01*
X133025619Y-112439852D01*
X133025615Y-112439848D01*
X132858414Y-112307800D01*
X132858410Y-112307798D01*
X132854359Y-112304598D01*
X132845302Y-112299598D01*
X132812569Y-112281529D01*
X132762598Y-112231097D01*
X132747826Y-112161654D01*
X132772942Y-112095248D01*
X132800294Y-112068641D01*
X132975328Y-111943792D01*
X132983200Y-111937139D01*
X133134052Y-111786812D01*
X133140730Y-111778965D01*
X133265003Y-111606020D01*
X133270313Y-111597183D01*
X133364670Y-111406267D01*
X133368469Y-111396672D01*
X133430377Y-111192910D01*
X133432555Y-111182837D01*
X133433986Y-111171962D01*
X133431775Y-111157778D01*
X133418617Y-111154000D01*
X131972000Y-111154000D01*
X131903879Y-111133998D01*
X131857386Y-111080342D01*
X131846000Y-111028000D01*
X131846000Y-110772000D01*
X131866002Y-110703879D01*
X131919658Y-110657386D01*
X131972000Y-110646000D01*
X133418344Y-110646000D01*
X133431875Y-110642027D01*
X133433180Y-110632947D01*
X133391214Y-110465875D01*
X133387894Y-110456124D01*
X133302972Y-110260814D01*
X133298105Y-110251739D01*
X133182426Y-110072926D01*
X133176136Y-110064757D01*
X133032806Y-109907240D01*
X133025273Y-109900215D01*
X132858139Y-109768222D01*
X132849556Y-109762520D01*
X132812602Y-109742120D01*
X132762631Y-109691687D01*
X132747859Y-109622245D01*
X132772975Y-109555839D01*
X132800327Y-109529232D01*
X132823797Y-109512491D01*
X132979860Y-109401173D01*
X133138096Y-109243489D01*
X133195222Y-109163990D01*
X133265435Y-109066277D01*
X133268453Y-109062077D01*
X133367430Y-108861811D01*
X133432370Y-108648069D01*
X133461529Y-108426590D01*
X133463156Y-108360000D01*
X133444852Y-108137361D01*
X133416821Y-108025765D01*
X133419625Y-107954823D01*
X133449930Y-107905974D01*
X139246022Y-102109882D01*
X139308334Y-102075856D01*
X139379345Y-102080995D01*
X139394684Y-102086745D01*
X139402532Y-102087598D01*
X139402534Y-102087598D01*
X139453469Y-102093131D01*
X139456866Y-102093500D01*
X141253134Y-102093500D01*
X141315316Y-102086745D01*
X141451705Y-102035615D01*
X141568261Y-101948261D01*
X141655615Y-101831705D01*
X141677799Y-101772529D01*
X141699598Y-101714382D01*
X141742240Y-101657618D01*
X141808802Y-101632918D01*
X141878150Y-101648126D01*
X141912817Y-101676114D01*
X141941250Y-101708938D01*
X142113126Y-101851632D01*
X142306000Y-101964338D01*
X142310825Y-101966180D01*
X142310826Y-101966181D01*
X142383612Y-101993975D01*
X142514692Y-102044030D01*
X142519760Y-102045061D01*
X142519763Y-102045062D01*
X142614862Y-102064410D01*
X142733597Y-102088567D01*
X142738772Y-102088757D01*
X142738774Y-102088757D01*
X142951673Y-102096564D01*
X142951677Y-102096564D01*
X142956837Y-102096753D01*
X142961957Y-102096097D01*
X142961959Y-102096097D01*
X143173288Y-102069025D01*
X143173289Y-102069025D01*
X143178416Y-102068368D01*
X143183366Y-102066883D01*
X143387429Y-102005661D01*
X143387434Y-102005659D01*
X143392384Y-102004174D01*
X143592994Y-101905896D01*
X143774860Y-101776173D01*
X143933096Y-101618489D01*
X143992594Y-101535689D01*
X144063453Y-101437077D01*
X144064640Y-101437930D01*
X144111960Y-101394362D01*
X144181897Y-101382145D01*
X144247338Y-101409678D01*
X144275166Y-101441511D01*
X144332694Y-101535388D01*
X144338777Y-101543699D01*
X144478213Y-101704667D01*
X144485580Y-101711883D01*
X144649434Y-101847916D01*
X144657881Y-101853831D01*
X144841756Y-101961279D01*
X144851042Y-101965729D01*
X145050001Y-102041703D01*
X145059899Y-102044579D01*
X145163250Y-102065606D01*
X145177299Y-102064410D01*
X145181000Y-102054065D01*
X145181000Y-102053517D01*
X145689000Y-102053517D01*
X145693064Y-102067359D01*
X145706478Y-102069393D01*
X145713184Y-102068534D01*
X145723262Y-102066392D01*
X145927255Y-102005191D01*
X145936842Y-102001433D01*
X146128095Y-101907739D01*
X146136945Y-101902464D01*
X146310328Y-101778792D01*
X146318200Y-101772139D01*
X146469052Y-101621812D01*
X146475730Y-101613965D01*
X146600003Y-101441020D01*
X146605313Y-101432183D01*
X146699670Y-101241267D01*
X146703469Y-101231672D01*
X146765377Y-101027910D01*
X146767555Y-101017837D01*
X146768986Y-101006962D01*
X146766775Y-100992778D01*
X146753617Y-100989000D01*
X145707115Y-100989000D01*
X145691876Y-100993475D01*
X145690671Y-100994865D01*
X145689000Y-101002548D01*
X145689000Y-102053517D01*
X145181000Y-102053517D01*
X145181000Y-100462885D01*
X145689000Y-100462885D01*
X145693475Y-100478124D01*
X145694865Y-100479329D01*
X145702548Y-100481000D01*
X146753344Y-100481000D01*
X146766875Y-100477027D01*
X146768180Y-100467947D01*
X146726214Y-100300875D01*
X146722894Y-100291124D01*
X146637972Y-100095814D01*
X146633105Y-100086739D01*
X146517426Y-99907926D01*
X146511136Y-99899757D01*
X146367806Y-99742240D01*
X146360273Y-99735215D01*
X146193139Y-99603222D01*
X146184552Y-99597517D01*
X146147116Y-99576851D01*
X146097146Y-99526419D01*
X146082374Y-99456976D01*
X146107490Y-99390571D01*
X146134842Y-99363964D01*
X146310327Y-99238792D01*
X146318200Y-99232139D01*
X146469052Y-99081812D01*
X146475730Y-99073965D01*
X146600003Y-98901020D01*
X146605313Y-98892183D01*
X146699670Y-98701267D01*
X146703469Y-98691672D01*
X146765377Y-98487910D01*
X146767555Y-98477837D01*
X146768986Y-98466962D01*
X146766775Y-98452778D01*
X146753617Y-98449000D01*
X145707115Y-98449000D01*
X145691876Y-98453475D01*
X145690671Y-98454865D01*
X145689000Y-98462548D01*
X145689000Y-100462885D01*
X145181000Y-100462885D01*
X145181000Y-97922885D01*
X145689000Y-97922885D01*
X145693475Y-97938124D01*
X145694865Y-97939329D01*
X145702548Y-97941000D01*
X146753344Y-97941000D01*
X146766875Y-97937027D01*
X146768180Y-97927947D01*
X146726214Y-97760875D01*
X146722894Y-97751124D01*
X146637972Y-97555814D01*
X146633105Y-97546739D01*
X146517426Y-97367926D01*
X146511136Y-97359757D01*
X146367806Y-97202240D01*
X146360273Y-97195215D01*
X146193139Y-97063222D01*
X146184552Y-97057517D01*
X146147116Y-97036851D01*
X146097146Y-96986419D01*
X146082374Y-96916976D01*
X146107490Y-96850571D01*
X146134842Y-96823964D01*
X146310327Y-96698792D01*
X146318200Y-96692139D01*
X146469052Y-96541812D01*
X146475730Y-96533965D01*
X146600003Y-96361020D01*
X146605313Y-96352183D01*
X146699670Y-96161267D01*
X146703469Y-96151672D01*
X146765377Y-95947910D01*
X146767555Y-95937837D01*
X146768986Y-95926962D01*
X146766775Y-95912778D01*
X146753617Y-95909000D01*
X145707115Y-95909000D01*
X145691876Y-95913475D01*
X145690671Y-95914865D01*
X145689000Y-95922548D01*
X145689000Y-97922885D01*
X145181000Y-97922885D01*
X145181000Y-95382885D01*
X145689000Y-95382885D01*
X145693475Y-95398124D01*
X145694865Y-95399329D01*
X145702548Y-95401000D01*
X146753344Y-95401000D01*
X146766875Y-95397027D01*
X146768180Y-95387947D01*
X146726214Y-95220875D01*
X146722894Y-95211124D01*
X146637972Y-95015814D01*
X146633105Y-95006739D01*
X146517426Y-94827926D01*
X146511136Y-94819757D01*
X146367806Y-94662240D01*
X146360273Y-94655215D01*
X146193139Y-94523222D01*
X146184552Y-94517517D01*
X146147116Y-94496851D01*
X146097146Y-94446419D01*
X146082374Y-94376976D01*
X146107490Y-94310571D01*
X146134842Y-94283964D01*
X146310327Y-94158792D01*
X146318200Y-94152139D01*
X146469052Y-94001812D01*
X146475730Y-93993965D01*
X146600003Y-93821020D01*
X146605313Y-93812183D01*
X146699670Y-93621267D01*
X146703469Y-93611672D01*
X146765377Y-93407910D01*
X146767555Y-93397837D01*
X146768986Y-93386962D01*
X146766775Y-93372778D01*
X146753617Y-93369000D01*
X145707115Y-93369000D01*
X145691876Y-93373475D01*
X145690671Y-93374865D01*
X145689000Y-93382548D01*
X145689000Y-95382885D01*
X145181000Y-95382885D01*
X145181000Y-92842885D01*
X145689000Y-92842885D01*
X145693475Y-92858124D01*
X145694865Y-92859329D01*
X145702548Y-92861000D01*
X146753344Y-92861000D01*
X146766875Y-92857027D01*
X146768180Y-92847947D01*
X146726214Y-92680875D01*
X146722894Y-92671124D01*
X146637972Y-92475814D01*
X146633105Y-92466739D01*
X146517426Y-92287926D01*
X146511136Y-92279757D01*
X146367806Y-92122240D01*
X146360273Y-92115215D01*
X146193139Y-91983222D01*
X146184552Y-91977517D01*
X145998117Y-91874599D01*
X145988705Y-91870369D01*
X145787959Y-91799280D01*
X145777988Y-91796646D01*
X145706837Y-91783972D01*
X145693540Y-91785432D01*
X145689000Y-91799989D01*
X145689000Y-92842885D01*
X145181000Y-92842885D01*
X145181000Y-91798102D01*
X145177082Y-91784758D01*
X145162806Y-91782771D01*
X145124324Y-91788660D01*
X145114288Y-91791051D01*
X144911868Y-91857212D01*
X144902359Y-91861209D01*
X144713463Y-91959542D01*
X144704738Y-91965036D01*
X144534433Y-92092905D01*
X144526726Y-92099748D01*
X144379589Y-92253718D01*
X144377424Y-92256392D01*
X144376276Y-92257185D01*
X144376019Y-92257454D01*
X144375964Y-92257401D01*
X144319012Y-92296747D01*
X144248055Y-92299116D01*
X144187081Y-92262747D01*
X144155450Y-92199186D01*
X144153500Y-92177103D01*
X144153500Y-88967709D01*
X144173502Y-88899588D01*
X144227158Y-88853095D01*
X144297432Y-88842991D01*
X144362012Y-88872485D01*
X144374737Y-88885212D01*
X144478213Y-89004667D01*
X144485580Y-89011883D01*
X144649434Y-89147916D01*
X144657881Y-89153831D01*
X144841756Y-89261279D01*
X144851042Y-89265729D01*
X145050001Y-89341703D01*
X145059899Y-89344579D01*
X145163250Y-89365606D01*
X145177299Y-89364410D01*
X145181000Y-89354065D01*
X145181000Y-89353517D01*
X145689000Y-89353517D01*
X145693064Y-89367359D01*
X145706478Y-89369393D01*
X145713184Y-89368534D01*
X145723262Y-89366392D01*
X145927255Y-89305191D01*
X145936842Y-89301433D01*
X146128095Y-89207739D01*
X146136945Y-89202464D01*
X146310328Y-89078792D01*
X146318200Y-89072139D01*
X146469052Y-88921812D01*
X146475730Y-88913965D01*
X146600003Y-88741020D01*
X146605313Y-88732183D01*
X146699670Y-88541267D01*
X146703469Y-88531672D01*
X146765377Y-88327910D01*
X146767555Y-88317837D01*
X146768986Y-88306962D01*
X146766775Y-88292778D01*
X146753617Y-88289000D01*
X145707115Y-88289000D01*
X145691876Y-88293475D01*
X145690671Y-88294865D01*
X145689000Y-88302548D01*
X145689000Y-89353517D01*
X145181000Y-89353517D01*
X145181000Y-87762885D01*
X145689000Y-87762885D01*
X145693475Y-87778124D01*
X145694865Y-87779329D01*
X145702548Y-87781000D01*
X146753344Y-87781000D01*
X146766875Y-87777027D01*
X146768180Y-87767947D01*
X146726214Y-87600875D01*
X146722894Y-87591124D01*
X146637972Y-87395814D01*
X146633105Y-87386739D01*
X146517426Y-87207926D01*
X146511136Y-87199757D01*
X146367806Y-87042240D01*
X146360273Y-87035215D01*
X146193139Y-86903222D01*
X146184552Y-86897517D01*
X146147116Y-86876851D01*
X146097146Y-86826419D01*
X146082374Y-86756976D01*
X146107490Y-86690571D01*
X146134842Y-86663964D01*
X146310327Y-86538792D01*
X146318200Y-86532139D01*
X146469052Y-86381812D01*
X146475730Y-86373965D01*
X146600003Y-86201020D01*
X146605313Y-86192183D01*
X146699670Y-86001267D01*
X146703469Y-85991672D01*
X146765377Y-85787910D01*
X146767555Y-85777837D01*
X146768986Y-85766962D01*
X146766775Y-85752778D01*
X146753617Y-85749000D01*
X145707115Y-85749000D01*
X145691876Y-85753475D01*
X145690671Y-85754865D01*
X145689000Y-85762548D01*
X145689000Y-87762885D01*
X145181000Y-87762885D01*
X145181000Y-85222885D01*
X145689000Y-85222885D01*
X145693475Y-85238124D01*
X145694865Y-85239329D01*
X145702548Y-85241000D01*
X146753344Y-85241000D01*
X146766875Y-85237027D01*
X146768180Y-85227947D01*
X146726214Y-85060875D01*
X146722894Y-85051124D01*
X146637972Y-84855814D01*
X146633105Y-84846739D01*
X146517426Y-84667926D01*
X146511136Y-84659757D01*
X146367806Y-84502240D01*
X146360273Y-84495215D01*
X146193139Y-84363222D01*
X146184552Y-84357517D01*
X146147116Y-84336851D01*
X146097146Y-84286419D01*
X146082374Y-84216976D01*
X146107490Y-84150571D01*
X146134842Y-84123964D01*
X146310327Y-83998792D01*
X146318200Y-83992139D01*
X146469052Y-83841812D01*
X146475730Y-83833965D01*
X146600003Y-83661020D01*
X146605313Y-83652183D01*
X146699670Y-83461267D01*
X146703469Y-83451672D01*
X146765377Y-83247910D01*
X146767555Y-83237837D01*
X146768986Y-83226962D01*
X146766775Y-83212778D01*
X146753617Y-83209000D01*
X145707115Y-83209000D01*
X145691876Y-83213475D01*
X145690671Y-83214865D01*
X145689000Y-83222548D01*
X145689000Y-85222885D01*
X145181000Y-85222885D01*
X145181000Y-82682885D01*
X145689000Y-82682885D01*
X145693475Y-82698124D01*
X145694865Y-82699329D01*
X145702548Y-82701000D01*
X146753344Y-82701000D01*
X146766875Y-82697027D01*
X146768180Y-82687947D01*
X146726214Y-82520875D01*
X146722894Y-82511124D01*
X146637972Y-82315814D01*
X146633105Y-82306739D01*
X146517426Y-82127926D01*
X146511136Y-82119757D01*
X146367806Y-81962240D01*
X146360273Y-81955215D01*
X146193139Y-81823222D01*
X146184552Y-81817517D01*
X146147116Y-81796851D01*
X146097146Y-81746419D01*
X146082374Y-81676976D01*
X146107490Y-81610571D01*
X146134842Y-81583964D01*
X146310327Y-81458792D01*
X146318200Y-81452139D01*
X146469052Y-81301812D01*
X146475730Y-81293965D01*
X146600003Y-81121020D01*
X146605313Y-81112183D01*
X146699670Y-80921267D01*
X146703469Y-80911672D01*
X146765377Y-80707910D01*
X146767555Y-80697837D01*
X146768986Y-80686962D01*
X146766775Y-80672778D01*
X146753617Y-80669000D01*
X145707115Y-80669000D01*
X145691876Y-80673475D01*
X145690671Y-80674865D01*
X145689000Y-80682548D01*
X145689000Y-82682885D01*
X145181000Y-82682885D01*
X145181000Y-80142885D01*
X145689000Y-80142885D01*
X145693475Y-80158124D01*
X145694865Y-80159329D01*
X145702548Y-80161000D01*
X146753344Y-80161000D01*
X146766875Y-80157027D01*
X146768180Y-80147947D01*
X146726214Y-79980875D01*
X146722894Y-79971124D01*
X146637972Y-79775814D01*
X146633105Y-79766739D01*
X146517426Y-79587926D01*
X146511136Y-79579757D01*
X146367806Y-79422240D01*
X146360273Y-79415215D01*
X146193139Y-79283222D01*
X146184552Y-79277517D01*
X145998117Y-79174599D01*
X145988705Y-79170369D01*
X145787959Y-79099280D01*
X145777988Y-79096646D01*
X145706837Y-79083972D01*
X145693540Y-79085432D01*
X145689000Y-79099989D01*
X145689000Y-80142885D01*
X145181000Y-80142885D01*
X145181000Y-79079987D01*
X145185447Y-79079987D01*
X145185440Y-79042275D01*
X145217248Y-78988656D01*
X145655499Y-78550405D01*
X145717811Y-78516379D01*
X145744594Y-78513500D01*
X149854274Y-78513500D01*
X149922395Y-78533502D01*
G37*
%TD.AperFunction*%
%TA.AperFunction,Conductor*%
G36*
X141585897Y-89344671D02*
G01*
X141628507Y-89401460D01*
X141636500Y-89445623D01*
X141636500Y-91704377D01*
X141616498Y-91772498D01*
X141562842Y-91818991D01*
X141492568Y-91829095D01*
X141454311Y-91816338D01*
X141451705Y-91814385D01*
X141315316Y-91763255D01*
X141253134Y-91756500D01*
X139456866Y-91756500D01*
X139394684Y-91763255D01*
X139258295Y-91814385D01*
X139141739Y-91901739D01*
X139054385Y-92018295D01*
X139003255Y-92154684D01*
X138996500Y-92216866D01*
X138996500Y-92895405D01*
X138976498Y-92963526D01*
X138959595Y-92984500D01*
X133526653Y-98417442D01*
X133464341Y-98451468D01*
X133436351Y-98450547D01*
X133436351Y-98454000D01*
X131972000Y-98454000D01*
X131903879Y-98433998D01*
X131857386Y-98380342D01*
X131846000Y-98328000D01*
X131846000Y-98072000D01*
X131866002Y-98003879D01*
X131919658Y-97957386D01*
X131972000Y-97946000D01*
X133418344Y-97946000D01*
X133431875Y-97942027D01*
X133433180Y-97932947D01*
X133391214Y-97765875D01*
X133387894Y-97756124D01*
X133302972Y-97560814D01*
X133298105Y-97551739D01*
X133182426Y-97372926D01*
X133176136Y-97364757D01*
X133032806Y-97207240D01*
X133025273Y-97200215D01*
X132858139Y-97068222D01*
X132849556Y-97062520D01*
X132812602Y-97042120D01*
X132762631Y-96991687D01*
X132747859Y-96922245D01*
X132772975Y-96855839D01*
X132800327Y-96829232D01*
X132823797Y-96812491D01*
X132979860Y-96701173D01*
X133138096Y-96543489D01*
X133195222Y-96463990D01*
X133265435Y-96366277D01*
X133268453Y-96362077D01*
X133367430Y-96161811D01*
X133432370Y-95948069D01*
X133461529Y-95726590D01*
X133463156Y-95660000D01*
X133444852Y-95437361D01*
X133416821Y-95325765D01*
X133419625Y-95254823D01*
X133449930Y-95205974D01*
X139246022Y-89409882D01*
X139308334Y-89375856D01*
X139379345Y-89380995D01*
X139394684Y-89386745D01*
X139402532Y-89387598D01*
X139402534Y-89387598D01*
X139453469Y-89393131D01*
X139456866Y-89393500D01*
X141253134Y-89393500D01*
X141315316Y-89386745D01*
X141451705Y-89335615D01*
X141453377Y-89334362D01*
X141519350Y-89319934D01*
X141585897Y-89344671D01*
G37*
%TD.AperFunction*%
%TA.AperFunction,Conductor*%
G36*
X141585897Y-76644671D02*
G01*
X141628507Y-76701460D01*
X141636500Y-76745623D01*
X141636500Y-79004377D01*
X141616498Y-79072498D01*
X141562842Y-79118991D01*
X141492568Y-79129095D01*
X141454311Y-79116338D01*
X141451705Y-79114385D01*
X141315316Y-79063255D01*
X141253134Y-79056500D01*
X139456866Y-79056500D01*
X139394684Y-79063255D01*
X139258295Y-79114385D01*
X139141739Y-79201739D01*
X139054385Y-79318295D01*
X139003255Y-79454684D01*
X138996500Y-79516866D01*
X138996500Y-80195405D01*
X138976498Y-80263526D01*
X138959595Y-80284500D01*
X133526653Y-85717442D01*
X133464341Y-85751468D01*
X133436351Y-85750547D01*
X133436351Y-85754000D01*
X131972000Y-85754000D01*
X131903879Y-85733998D01*
X131857386Y-85680342D01*
X131846000Y-85628000D01*
X131846000Y-85372000D01*
X131866002Y-85303879D01*
X131919658Y-85257386D01*
X131972000Y-85246000D01*
X133418344Y-85246000D01*
X133431875Y-85242027D01*
X133433180Y-85232947D01*
X133391214Y-85065875D01*
X133387894Y-85056124D01*
X133302972Y-84860814D01*
X133298105Y-84851739D01*
X133182426Y-84672926D01*
X133176136Y-84664757D01*
X133032806Y-84507240D01*
X133025273Y-84500215D01*
X132858139Y-84368222D01*
X132849556Y-84362520D01*
X132812602Y-84342120D01*
X132762631Y-84291687D01*
X132747859Y-84222245D01*
X132772975Y-84155839D01*
X132800327Y-84129232D01*
X132861500Y-84085598D01*
X132979860Y-84001173D01*
X133138096Y-83843489D01*
X133197594Y-83760689D01*
X133265435Y-83666277D01*
X133268453Y-83662077D01*
X133367430Y-83461811D01*
X133432370Y-83248069D01*
X133461529Y-83026590D01*
X133463156Y-82960000D01*
X133444852Y-82737361D01*
X133416821Y-82625765D01*
X133419625Y-82554823D01*
X133449930Y-82505974D01*
X139246022Y-76709882D01*
X139308334Y-76675856D01*
X139379345Y-76680995D01*
X139394684Y-76686745D01*
X139402532Y-76687598D01*
X139402534Y-76687598D01*
X139453469Y-76693131D01*
X139456866Y-76693500D01*
X141253134Y-76693500D01*
X141315316Y-76686745D01*
X141451705Y-76635615D01*
X141453377Y-76634362D01*
X141519350Y-76619934D01*
X141585897Y-76644671D01*
G37*
%TD.AperFunction*%
%TA.AperFunction,Conductor*%
G36*
X151833621Y-59583502D02*
G01*
X151880114Y-59637158D01*
X151891500Y-59689500D01*
X151891500Y-66235500D01*
X151871498Y-66303621D01*
X151817842Y-66350114D01*
X151765500Y-66361500D01*
X150231866Y-66361500D01*
X150169684Y-66368255D01*
X150033295Y-66419385D01*
X149916739Y-66506739D01*
X149829385Y-66623295D01*
X149778255Y-66759684D01*
X149771500Y-66821866D01*
X149771500Y-68618134D01*
X149778255Y-68680316D01*
X149829385Y-68816705D01*
X149916739Y-68933261D01*
X150033295Y-69020615D01*
X150041704Y-69023767D01*
X150041705Y-69023768D01*
X150150451Y-69064535D01*
X150207216Y-69107176D01*
X150231916Y-69173738D01*
X150216709Y-69243087D01*
X150197316Y-69269568D01*
X150070629Y-69402138D01*
X150067715Y-69406410D01*
X150067714Y-69406411D01*
X150052798Y-69428277D01*
X149944743Y-69586680D01*
X149929003Y-69620590D01*
X149872523Y-69742266D01*
X149850688Y-69789305D01*
X149790989Y-70004570D01*
X149767251Y-70226695D01*
X149767548Y-70231848D01*
X149767548Y-70231851D01*
X149773011Y-70326590D01*
X149780110Y-70449715D01*
X149781247Y-70454761D01*
X149781248Y-70454767D01*
X149802275Y-70548069D01*
X149829222Y-70667639D01*
X149913266Y-70874616D01*
X150029987Y-71065088D01*
X150176250Y-71233938D01*
X150246354Y-71292139D01*
X150337628Y-71367916D01*
X150348126Y-71376632D01*
X150363470Y-71385598D01*
X150421955Y-71419774D01*
X150470679Y-71471412D01*
X150483750Y-71541195D01*
X150457019Y-71606967D01*
X150416562Y-71640327D01*
X150408457Y-71644546D01*
X150399738Y-71650036D01*
X150229433Y-71777905D01*
X150221726Y-71784748D01*
X150074590Y-71938717D01*
X150068104Y-71946727D01*
X149948098Y-72122649D01*
X149943000Y-72131623D01*
X149853338Y-72324783D01*
X149849775Y-72334470D01*
X149794389Y-72534183D01*
X149795912Y-72542607D01*
X149808292Y-72546000D01*
X151258000Y-72546000D01*
X151326121Y-72566002D01*
X151372614Y-72619658D01*
X151384000Y-72672000D01*
X151384000Y-72928000D01*
X151363998Y-72996121D01*
X151310342Y-73042614D01*
X151258000Y-73054000D01*
X149813225Y-73054000D01*
X149799694Y-73057973D01*
X149798257Y-73067966D01*
X149828565Y-73202446D01*
X149831645Y-73212275D01*
X149911770Y-73409603D01*
X149916413Y-73418794D01*
X150027694Y-73600388D01*
X150033777Y-73608699D01*
X150173213Y-73769667D01*
X150180580Y-73776883D01*
X150344434Y-73912916D01*
X150352881Y-73918831D01*
X150421969Y-73959203D01*
X150470693Y-74010842D01*
X150483764Y-74080625D01*
X150457033Y-74146396D01*
X150416584Y-74179752D01*
X150403607Y-74186507D01*
X150399474Y-74189610D01*
X150399471Y-74189612D01*
X150235260Y-74312905D01*
X150224965Y-74320635D01*
X150070629Y-74482138D01*
X150067715Y-74486410D01*
X150067714Y-74486411D01*
X150047020Y-74516747D01*
X149944743Y-74666680D01*
X149942564Y-74671375D01*
X149872523Y-74822266D01*
X149850688Y-74869305D01*
X149790989Y-75084570D01*
X149767251Y-75306695D01*
X149767548Y-75311848D01*
X149767548Y-75311851D01*
X149773011Y-75406590D01*
X149780110Y-75529715D01*
X149781247Y-75534761D01*
X149781248Y-75534767D01*
X149802275Y-75628069D01*
X149829222Y-75747639D01*
X149913266Y-75954616D01*
X150029987Y-76145088D01*
X150176250Y-76313938D01*
X150246354Y-76372139D01*
X150337628Y-76447916D01*
X150348126Y-76456632D01*
X150363470Y-76465598D01*
X150421445Y-76499476D01*
X150470169Y-76551114D01*
X150483240Y-76620897D01*
X150456509Y-76686669D01*
X150416055Y-76720027D01*
X150403607Y-76726507D01*
X150399474Y-76729610D01*
X150399471Y-76729612D01*
X150229100Y-76857530D01*
X150224965Y-76860635D01*
X150070629Y-77022138D01*
X150067715Y-77026410D01*
X150067714Y-77026411D01*
X149955095Y-77191504D01*
X149900184Y-77236507D01*
X149851007Y-77246500D01*
X145508763Y-77246500D01*
X145497579Y-77245973D01*
X145490091Y-77244299D01*
X145482168Y-77244548D01*
X145422033Y-77246438D01*
X145418075Y-77246500D01*
X145390144Y-77246500D01*
X145386229Y-77246995D01*
X145386225Y-77246995D01*
X145386167Y-77247003D01*
X145386138Y-77247006D01*
X145374296Y-77247939D01*
X145330110Y-77249327D01*
X145312744Y-77254372D01*
X145310658Y-77254978D01*
X145291306Y-77258986D01*
X145279068Y-77260532D01*
X145279066Y-77260533D01*
X145271203Y-77261526D01*
X145230086Y-77277806D01*
X145218885Y-77281641D01*
X145176406Y-77293982D01*
X145169587Y-77298015D01*
X145169582Y-77298017D01*
X145158971Y-77304293D01*
X145141221Y-77312990D01*
X145122383Y-77320448D01*
X145115967Y-77325109D01*
X145115966Y-77325110D01*
X145086625Y-77346428D01*
X145076701Y-77352947D01*
X145045460Y-77371422D01*
X145045455Y-77371426D01*
X145038637Y-77375458D01*
X145024313Y-77389782D01*
X145009281Y-77402621D01*
X144992893Y-77414528D01*
X144964712Y-77448593D01*
X144956722Y-77457373D01*
X144368595Y-78045500D01*
X144306283Y-78079526D01*
X144235468Y-78074461D01*
X144178632Y-78031914D01*
X144153821Y-77965394D01*
X144153500Y-77956405D01*
X144153500Y-76267709D01*
X144173502Y-76199588D01*
X144227158Y-76153095D01*
X144297432Y-76142991D01*
X144362012Y-76172485D01*
X144374737Y-76185212D01*
X144478213Y-76304667D01*
X144485580Y-76311883D01*
X144649434Y-76447916D01*
X144657881Y-76453831D01*
X144841756Y-76561279D01*
X144851042Y-76565729D01*
X145050001Y-76641703D01*
X145059899Y-76644579D01*
X145163250Y-76665606D01*
X145177299Y-76664410D01*
X145181000Y-76654065D01*
X145181000Y-76653517D01*
X145689000Y-76653517D01*
X145693064Y-76667359D01*
X145706478Y-76669393D01*
X145713184Y-76668534D01*
X145723262Y-76666392D01*
X145927255Y-76605191D01*
X145936842Y-76601433D01*
X146128095Y-76507739D01*
X146136945Y-76502464D01*
X146310328Y-76378792D01*
X146318200Y-76372139D01*
X146469052Y-76221812D01*
X146475730Y-76213965D01*
X146600003Y-76041020D01*
X146605313Y-76032183D01*
X146699670Y-75841267D01*
X146703469Y-75831672D01*
X146765377Y-75627910D01*
X146767555Y-75617837D01*
X146768986Y-75606962D01*
X146766775Y-75592778D01*
X146753617Y-75589000D01*
X145707115Y-75589000D01*
X145691876Y-75593475D01*
X145690671Y-75594865D01*
X145689000Y-75602548D01*
X145689000Y-76653517D01*
X145181000Y-76653517D01*
X145181000Y-75062885D01*
X145689000Y-75062885D01*
X145693475Y-75078124D01*
X145694865Y-75079329D01*
X145702548Y-75081000D01*
X146753344Y-75081000D01*
X146766875Y-75077027D01*
X146768180Y-75067947D01*
X146726214Y-74900875D01*
X146722894Y-74891124D01*
X146637972Y-74695814D01*
X146633105Y-74686739D01*
X146517426Y-74507926D01*
X146511136Y-74499757D01*
X146367806Y-74342240D01*
X146360273Y-74335215D01*
X146193139Y-74203222D01*
X146184552Y-74197517D01*
X146147116Y-74176851D01*
X146097146Y-74126419D01*
X146082374Y-74056976D01*
X146107490Y-73990571D01*
X146134842Y-73963964D01*
X146310327Y-73838792D01*
X146318200Y-73832139D01*
X146469052Y-73681812D01*
X146475730Y-73673965D01*
X146600003Y-73501020D01*
X146605313Y-73492183D01*
X146699670Y-73301267D01*
X146703469Y-73291672D01*
X146765377Y-73087910D01*
X146767555Y-73077837D01*
X146768986Y-73066962D01*
X146766775Y-73052778D01*
X146753617Y-73049000D01*
X145707115Y-73049000D01*
X145691876Y-73053475D01*
X145690671Y-73054865D01*
X145689000Y-73062548D01*
X145689000Y-75062885D01*
X145181000Y-75062885D01*
X145181000Y-72522885D01*
X145689000Y-72522885D01*
X145693475Y-72538124D01*
X145694865Y-72539329D01*
X145702548Y-72541000D01*
X146753344Y-72541000D01*
X146766875Y-72537027D01*
X146768180Y-72527947D01*
X146726214Y-72360875D01*
X146722894Y-72351124D01*
X146637972Y-72155814D01*
X146633105Y-72146739D01*
X146517426Y-71967926D01*
X146511136Y-71959757D01*
X146367806Y-71802240D01*
X146360273Y-71795215D01*
X146193139Y-71663222D01*
X146184552Y-71657517D01*
X146147116Y-71636851D01*
X146097146Y-71586419D01*
X146082374Y-71516976D01*
X146107490Y-71450571D01*
X146134842Y-71423964D01*
X146310327Y-71298792D01*
X146318200Y-71292139D01*
X146469052Y-71141812D01*
X146475730Y-71133965D01*
X146600003Y-70961020D01*
X146605313Y-70952183D01*
X146699670Y-70761267D01*
X146703469Y-70751672D01*
X146765377Y-70547910D01*
X146767555Y-70537837D01*
X146768986Y-70526962D01*
X146766775Y-70512778D01*
X146753617Y-70509000D01*
X145707115Y-70509000D01*
X145691876Y-70513475D01*
X145690671Y-70514865D01*
X145689000Y-70522548D01*
X145689000Y-72522885D01*
X145181000Y-72522885D01*
X145181000Y-69982885D01*
X145689000Y-69982885D01*
X145693475Y-69998124D01*
X145694865Y-69999329D01*
X145702548Y-70001000D01*
X146753344Y-70001000D01*
X146766875Y-69997027D01*
X146768180Y-69987947D01*
X146726214Y-69820875D01*
X146722894Y-69811124D01*
X146637972Y-69615814D01*
X146633105Y-69606739D01*
X146517426Y-69427926D01*
X146511136Y-69419757D01*
X146367806Y-69262240D01*
X146360273Y-69255215D01*
X146193139Y-69123222D01*
X146184552Y-69117517D01*
X146147116Y-69096851D01*
X146097146Y-69046419D01*
X146082374Y-68976976D01*
X146107490Y-68910571D01*
X146134842Y-68883964D01*
X146310327Y-68758792D01*
X146318200Y-68752139D01*
X146469052Y-68601812D01*
X146475730Y-68593965D01*
X146600003Y-68421020D01*
X146605313Y-68412183D01*
X146699670Y-68221267D01*
X146703469Y-68211672D01*
X146765377Y-68007910D01*
X146767555Y-67997837D01*
X146768986Y-67986962D01*
X146766775Y-67972778D01*
X146753617Y-67969000D01*
X145707115Y-67969000D01*
X145691876Y-67973475D01*
X145690671Y-67974865D01*
X145689000Y-67982548D01*
X145689000Y-69982885D01*
X145181000Y-69982885D01*
X145181000Y-67442885D01*
X145689000Y-67442885D01*
X145693475Y-67458124D01*
X145694865Y-67459329D01*
X145702548Y-67461000D01*
X146753344Y-67461000D01*
X146766875Y-67457027D01*
X146768180Y-67447947D01*
X146726214Y-67280875D01*
X146722894Y-67271124D01*
X146637972Y-67075814D01*
X146633105Y-67066739D01*
X146517426Y-66887926D01*
X146511136Y-66879757D01*
X146367806Y-66722240D01*
X146360273Y-66715215D01*
X146193139Y-66583222D01*
X146184552Y-66577517D01*
X145998117Y-66474599D01*
X145988705Y-66470369D01*
X145787959Y-66399280D01*
X145777988Y-66396646D01*
X145706837Y-66383972D01*
X145693540Y-66385432D01*
X145689000Y-66399989D01*
X145689000Y-67442885D01*
X145181000Y-67442885D01*
X145181000Y-66398102D01*
X145177082Y-66384758D01*
X145162806Y-66382771D01*
X145124324Y-66388660D01*
X145114288Y-66391051D01*
X144911868Y-66457212D01*
X144902359Y-66461209D01*
X144713463Y-66559542D01*
X144704738Y-66565036D01*
X144534433Y-66692905D01*
X144526726Y-66699748D01*
X144379590Y-66853717D01*
X144373109Y-66861722D01*
X144268498Y-67015074D01*
X144213587Y-67060076D01*
X144143062Y-67068247D01*
X144079315Y-67036993D01*
X144058618Y-67012509D01*
X143977822Y-66887617D01*
X143977820Y-66887614D01*
X143975014Y-66883277D01*
X143824670Y-66718051D01*
X143820619Y-66714852D01*
X143820615Y-66714848D01*
X143653414Y-66582800D01*
X143653410Y-66582798D01*
X143649359Y-66579598D01*
X143613028Y-66559542D01*
X143530381Y-66513919D01*
X143453789Y-66471638D01*
X143448920Y-66469914D01*
X143448916Y-66469912D01*
X143248087Y-66398795D01*
X143248083Y-66398794D01*
X143243212Y-66397069D01*
X143238119Y-66396162D01*
X143238116Y-66396161D01*
X143028373Y-66358800D01*
X143028367Y-66358799D01*
X143023284Y-66357894D01*
X142949452Y-66356992D01*
X142805081Y-66355228D01*
X142805079Y-66355228D01*
X142799911Y-66355165D01*
X142579091Y-66388955D01*
X142366756Y-66458357D01*
X142168607Y-66561507D01*
X142164474Y-66564610D01*
X142164471Y-66564612D01*
X141994100Y-66692530D01*
X141989965Y-66695635D01*
X141928759Y-66759684D01*
X141909283Y-66780064D01*
X141847759Y-66815494D01*
X141776846Y-66812037D01*
X141719060Y-66770791D01*
X141700207Y-66737243D01*
X141658767Y-66626703D01*
X141655615Y-66618295D01*
X141568261Y-66501739D01*
X141451705Y-66414385D01*
X141315316Y-66363255D01*
X141253134Y-66356500D01*
X139456866Y-66356500D01*
X139394684Y-66363255D01*
X139258295Y-66414385D01*
X139141739Y-66501739D01*
X139054385Y-66618295D01*
X139003255Y-66754684D01*
X138996500Y-66816866D01*
X138996500Y-67495405D01*
X138976498Y-67563526D01*
X138959595Y-67584500D01*
X133526653Y-73017442D01*
X133464341Y-73051468D01*
X133436351Y-73050547D01*
X133436351Y-73054000D01*
X131972000Y-73054000D01*
X131903879Y-73033998D01*
X131857386Y-72980342D01*
X131846000Y-72928000D01*
X131846000Y-72672000D01*
X131866002Y-72603879D01*
X131919658Y-72557386D01*
X131972000Y-72546000D01*
X133418344Y-72546000D01*
X133431875Y-72542027D01*
X133433180Y-72532947D01*
X133391214Y-72365875D01*
X133387894Y-72356124D01*
X133302972Y-72160814D01*
X133298105Y-72151739D01*
X133182426Y-71972926D01*
X133176136Y-71964757D01*
X133032806Y-71807240D01*
X133025273Y-71800215D01*
X132858139Y-71668222D01*
X132849556Y-71662520D01*
X132812602Y-71642120D01*
X132762631Y-71591687D01*
X132747859Y-71522245D01*
X132772975Y-71455839D01*
X132800327Y-71429232D01*
X132861500Y-71385598D01*
X132979860Y-71301173D01*
X133138096Y-71143489D01*
X133197594Y-71060689D01*
X133265435Y-70966277D01*
X133268453Y-70962077D01*
X133367430Y-70761811D01*
X133432370Y-70548069D01*
X133461529Y-70326590D01*
X133463156Y-70260000D01*
X133444852Y-70037361D01*
X133390431Y-69820702D01*
X133301354Y-69615840D01*
X133187026Y-69439116D01*
X133182822Y-69432617D01*
X133182820Y-69432614D01*
X133180014Y-69428277D01*
X133176532Y-69424450D01*
X133032798Y-69266488D01*
X133001746Y-69202642D01*
X133010141Y-69132143D01*
X133055317Y-69077375D01*
X133081761Y-69063706D01*
X133188297Y-69023767D01*
X133196705Y-69020615D01*
X133313261Y-68933261D01*
X133400615Y-68816705D01*
X133451745Y-68680316D01*
X133458500Y-68618134D01*
X133458500Y-66821866D01*
X133451745Y-66759684D01*
X133400615Y-66623295D01*
X133313261Y-66506739D01*
X133196705Y-66419385D01*
X133060316Y-66368255D01*
X132998134Y-66361500D01*
X131444500Y-66361500D01*
X131376379Y-66341498D01*
X131329886Y-66287842D01*
X131318500Y-66235500D01*
X131318500Y-59689500D01*
X131338502Y-59621379D01*
X131392158Y-59574886D01*
X131444500Y-59563500D01*
X151765500Y-59563500D01*
X151833621Y-59583502D01*
G37*
%TD.AperFunction*%
%TD*%
M02*
