M48
; DRILL file {KiCad (6.0.5)} date Thu Oct 13 14:31:06 2022
; FORMAT={-:-/ absolute / inch / decimal}
; #@! TF.CreationDate,2022-10-13T14:31:06+01:00
; #@! TF.GenerationSoftware,Kicad,Pcbnew,(6.0.5)
; #@! TF.FileFunction,Plated,1,2,PTH
FMAT,2
INCH
; #@! TA.AperFunction,Plated,PTH,ComponentDrill
T1C0.0394
%
G90
G05
T1
X5.2008Y-2.6661
X5.2008Y-2.7661
X5.2008Y-2.8661
X5.2008Y-2.9661
X5.2008Y-3.0661
X5.2008Y-3.1661
X5.2008Y-3.2661
X5.2008Y-3.3661
X5.2008Y-3.4661
X5.2008Y-3.5661
X5.2008Y-3.6661
X5.2008Y-3.7661
X5.2008Y-3.8661
X5.2008Y-3.9661
X5.2008Y-4.0661
X5.2008Y-4.1661
X5.2008Y-4.2661
X5.2008Y-4.3661
X5.2008Y-4.4661
X5.2008Y-4.5661
X5.5258Y-2.6659
X5.5258Y-2.7659
X5.5258Y-2.8659
X5.5258Y-2.9659
X5.5258Y-3.1659
X5.5258Y-3.2659
X5.5258Y-3.3659
X5.5258Y-3.4659
X5.5258Y-3.6659
X5.5258Y-3.7659
X5.5258Y-3.8659
X5.5258Y-3.9659
X5.6258Y-2.6659
X5.6258Y-2.7659
X5.6258Y-2.8659
X5.6258Y-2.9659
X5.6258Y-3.1659
X5.6258Y-3.2659
X5.6258Y-3.3659
X5.6258Y-3.4659
X5.6258Y-3.6659
X5.6258Y-3.7659
X5.6258Y-3.8659
X5.6258Y-3.9659
X5.7258Y-2.6659
X5.7258Y-2.7659
X5.7258Y-2.8659
X5.7258Y-2.9659
X5.7258Y-3.1659
X5.7258Y-3.2659
X5.7258Y-3.3659
X5.7258Y-3.4659
X5.7258Y-3.6659
X5.7258Y-3.7659
X5.7258Y-3.8659
X5.7258Y-3.9659
X5.95Y-2.6661
X5.95Y-2.7661
X5.95Y-2.8661
X5.95Y-2.9661
X5.95Y-3.0661
X5.95Y-3.1661
X5.95Y-3.2661
X5.95Y-3.3661
X5.95Y-3.4661
X5.95Y-3.5659
X5.95Y-3.6659
X5.95Y-3.7659
X5.95Y-3.8659
X5.95Y-3.9659
X5.95Y-4.0659
X5.95Y-4.1659
X5.95Y-4.2659
X5.95Y-4.3659
X5.95Y-4.4659
X5.95Y-4.5659
T1
G00X5.4988Y-4.425
M15
G01X5.6012Y-4.425
M16
G05
G00X5.5067Y-4.673
M15
G01X5.5933Y-4.673
M16
G05
G00X5.739Y-4.4959
M15
G01X5.739Y-4.5825
M16
G05
T0
M30
