<?xml version="1.0" encoding="UTF-8"?>
<!DOCTYPE svg PUBLIC "-//W3C//DTD SVG 1.1//EN" "http://www.w3.org/Graphics/SVG/1.1/DTD/svg11.dtd">
<!-- Creator: CorelDRAW -->
<svg xmlns="http://www.w3.org/2000/svg" xml:space="preserve" width="210mm" height="297mm" style="shape-rendering:geometricPrecision; text-rendering:geometricPrecision; image-rendering:optimizeQuality; fill-rule:evenodd; clip-rule:evenodd"
viewBox="0 0 210 297"
 xmlns:xlink="http://www.w3.org/1999/xlink">
 <defs>
  <style type="text/css">
   <![CDATA[
    .str0 {stroke:black;stroke-width:0.5292}
    .fil0 {fill:none;fill-rule:nonzero}
   ]]>
  </style>
 </defs>
 <g id="Layer_x0020_1">
  <metadata id="CorelCorpID_0Corel-Layer"/>
  <g id="OOBB-PL-08-01.pdf">
   <path id="_123878152" class="fil0 str0" d="M-71.4994 290.5l142.999 0c2.7714,0 5.001,2.2309 5.001,5.0009l0 3.0001c0,2.7696 -2.2296,4.9992 -5.001,4.9992l-142.999 0c-2.77,0 -5.001,-2.2296 -5.001,-4.9992l0 -3.0001c0,-2.77 2.231,-5.0009 5.001,-5.0009zm0 0z"/>
   <path id="_123879496" class="fil0 str0" d="M-71.4994 300l0 -0.4011c-0.4561,-0.2632 -0.8354,-0.6435 -1.0986,-1.0982l-0.4021 0 0 -1.5008 0 -1.4993 0.4021 0c0.2632,-0.4561 0.6425,-0.8353 1.0986,-1.0985l0 -0.4022 1.4993 0 1.5007 0 0 0.4022c0.4547,0.2632 0.835,0.6424 1.0982,1.0985l0.4011 0 0 1.4993 0 1.5008 -0.4011 0c-0.2632,0.4547 -0.6435,0.835 -1.0982,1.0982l0 0.4011 -1.5007 0 -1.4993 0zm0 0z"/>
   <path id="_123881248" class="fil0 str0" d="M-51.5001 300l0 -0.4011c-0.4547,-0.2632 -0.835,-0.6435 -1.0982,-1.0982l-0.4011 0 0 -1.5008 0 -1.4993 0.4011 0c0.2632,-0.4561 0.6435,-0.8353 1.0982,-1.0985l0 -0.4022 1.5007 0 1.4993 0 0 0.4022c0.4548,0.2632 0.8351,0.6424 1.0982,1.0985l0.4026 0 0 1.4993 0 1.5008 -0.4026 0c-0.2631,0.4547 -0.6434,0.835 -1.0982,1.0982l0 0.4011 -1.4993 0 -1.5007 0zm0 0z"/>
   <path id="_123881800" class="fil0 str0" d="M-31.5008 300l0 -0.4011c-0.4547,-0.2632 -0.8336,-0.6435 -1.0982,-1.0982l-0.4011 0 0 -1.5008 0 -1.4993 0.4011 0c0.2646,-0.4561 0.6435,-0.8353 1.0982,-1.0985l0 -0.4022 1.5008 0 1.4993 0 0 0.4022c0.4561,0.2632 0.8353,0.6424 1.0985,1.0985l0.4022 0 0 1.4993 0 1.5008 -0.4022 0c-0.2632,0.4547 -0.6424,0.835 -1.0985,1.0982l0 0.4011 -1.4993 0 -1.5008 0zm0 0z"/>
   <path id="_123881392" class="fil0 str0" d="M-11.4997 300l0 -0.4011c-0.4561,-0.2632 -0.835,-0.6435 -1.0982,-1.0982l-0.4025 0 0 -1.5008 0 -1.4993 0.4025 0c0.2632,-0.4561 0.6421,-0.8353 1.0982,-1.0985l0 -0.4022 1.4993 0 1.5008 0 0 0.4022c0.4547,0.2632 0.835,0.6424 1.0982,1.0985l0.4011 0 0 1.4993 0 1.5008 -0.4011 0c-0.2632,0.4547 -0.6435,0.835 -1.0982,1.0982l0 0.4011 -1.5008 0 -1.4993 0zm0 0z"/>
   <path id="_123881704" class="fil0 str0" d="M8.4997 300l0 -0.4011c-0.4548,-0.2632 -0.8351,-0.6435 -1.0982,-1.0982l-0.4011 0 0 -1.5008 0 -1.4993 0.4011 0c0.2631,-0.4561 0.6434,-0.8353 1.0982,-1.0985l0 -0.4022 1.5007 0 1.4993 0 0 0.4022c0.4561,0.2632 0.835,0.6424 1.0982,1.0985l0.4025 0 0 1.4993 0 1.5008 -0.4025 0c-0.2632,0.4547 -0.6421,0.835 -1.0982,1.0982l0 0.4011 -1.4993 0 -1.5007 0zm0 0z"/>
   <path id="_123876712" class="fil0 str0" d="M28.4993 300l0 -0.4011c-0.4547,-0.2632 -0.8339,-0.6435 -1.0985,-1.0982l-0.4008 0 0 -1.5008 0 -1.4993 0.4008 0c0.2646,-0.4561 0.6438,-0.8353 1.0985,-1.0985l0 -0.4022 1.5008 0 1.4993 0 0 0.4022c0.4557,0.2632 0.835,0.6424 1.0996,1.0985l0.4007 0 0 1.4993 0 1.5008 -0.4007 0c-0.2646,0.4547 -0.6439,0.835 -1.0996,1.0982l0 0.4011 -1.4993 0 -1.5008 0zm0 0z"/>
   <path id="_123882064" class="fil0 str0" d="M48.5001 300l0 -0.4011c-0.4562,-0.2632 -0.8351,-0.6435 -1.0982,-1.0982l-0.4025 0 0 -1.5008 0 -1.4993 0.4025 0c0.2631,-0.4561 0.642,-0.8353 1.0982,-1.0985l0 -0.4022 1.4993 0 1.5007 0 0 0.4022c0.4547,0.2632 0.835,0.6424 1.0982,1.0985l0.4011 0 0 1.4993 0 1.5008 -0.4011 0c-0.2632,0.4547 -0.6435,0.835 -1.0982,1.0982l0 0.4011 -1.5007 0 -1.4993 0zm0 0z"/>
   <path id="_123880360" class="fil0 str0" d="M68.4994 300l0 -0.4011c-0.4547,-0.2632 -0.835,-0.6435 -1.0982,-1.0982l-0.4011 0 0 -1.5008 0 -1.4993 0.4011 0c0.2632,-0.4561 0.6435,-0.8353 1.0982,-1.0985l0 -0.4022 1.5007 0 1.4993 0 0 0.4022c0.4562,0.2632 0.835,0.6424 1.0986,1.0985l0.4021 0 0 1.4993 0 1.5008 -0.4021 0c-0.2636,0.4547 -0.6424,0.835 -1.0986,1.0982l0 0.4011 -1.4993 0 -1.5007 0zm0 0z"/>
   <polygon id="_123877720" class="fil0 str0" points="-62.9999,295.501 -56.9999,295.501 -56.9999,298.501 -62.9999,298.501 "/>
   <polygon id="_123876856" class="fil0 str0" points="-43.0003,295.501 -37.0002,295.501 -37.0002,298.501 -43.0003,298.501 "/>
   <polygon id="_123880720" class="fil0 str0" points="-22.9995,295.501 -16.9995,295.501 -16.9995,298.501 -22.9995,298.501 "/>
   <polygon id="_123877024" class="fil0 str0" points="-2.9998,295.501 3.0002,295.501 3.0002,298.501 -2.9998,298.501 "/>
   <polygon id="_123881464" class="fil0 str0" points="16.9995,295.501 22.9995,295.501 22.9995,298.501 16.9995,298.501 "/>
   <polygon id="_123882112" class="fil0 str0" points="37.0002,295.501 43.0003,295.501 43.0003,298.501 37.0002,298.501 "/>
   <polygon id="_123876424" class="fil0 str0" points="56.9999,295.501 62.9999,295.501 62.9999,298.501 56.9999,298.501 "/>
  </g>
 </g>
</svg>
