<?xml version="1.0" standalone="no"?>
<!DOCTYPE svg PUBLIC "-//W3C//DTD SVG 1.1//EN" "http://www.w3.org/Graphics/SVG/1.1/DTD/svg11.dtd">
<svg width="74mm" height="74mm" viewBox="-37 -37 74 74" xmlns="http://www.w3.org/2000/svg" version="1.1">
<title>OpenSCAD Model</title>
<path d="
M 31.6576,35.9622 L 32.2991,35.8346 L 32.9184,35.6244 L 33.505,35.3351 L 34.0488,34.9718 L 34.5405,34.5405
 L 34.9718,34.0488 L 35.3351,33.505 L 35.6244,32.9184 L 35.8346,32.2991 L 35.9622,31.6576 L 36.005,31.005
 L 36.005,-31.005 L 35.9622,-31.6576 L 35.8346,-32.2991 L 35.6244,-32.9184 L 35.3351,-33.505 L 34.9718,-34.0488
 L 34.5405,-34.5405 L 34.0488,-34.9718 L 33.505,-35.3351 L 32.9184,-35.6244 L 32.2991,-35.8346 L 31.6576,-35.9622
 L 31.005,-36.005 L -31.005,-36.005 L -31.6576,-35.9622 L -32.2991,-35.8346 L -32.9184,-35.6244 L -33.505,-35.3351
 L -34.0488,-34.9718 L -34.5405,-34.5405 L -34.9718,-34.0488 L -35.3351,-33.505 L -35.6244,-32.9184 L -35.8346,-32.2991
 L -35.9622,-31.6576 L -36.005,-31.005 L -36.005,31.005 L -35.9622,31.6576 L -35.8346,32.2991 L -35.6244,32.9184
 L -35.3351,33.505 L -34.9718,34.0488 L -34.5405,34.5405 L -34.0488,34.9718 L -33.505,35.3351 L -32.9184,35.6244
 L -32.2991,35.8346 L -31.6576,35.9622 L -31.005,36.005 L 31.005,36.005 z
M 29.6084,-27.0257 L 29.2235,-27.1022 L 28.8519,-27.2283 L 28.5,-27.4019 L 28.1737,-27.6199 L 27.8787,-27.8787
 L 27.6199,-28.1737 L 27.4019,-28.5 L 27.2283,-28.8519 L 27.1022,-29.2235 L 27.0257,-29.6084 L 27,-30
 L 27.0257,-30.3916 L 27.1022,-30.7764 L 27.2283,-31.148 L 27.4019,-31.5 L 27.6199,-31.8263 L 27.8787,-32.1213
 L 28.1737,-32.3801 L 28.5,-32.5981 L 28.8519,-32.7716 L 29.2235,-32.8978 L 29.6084,-32.9743 L 30,-33
 L 30.3916,-32.9743 L 30.7764,-32.8978 L 31.148,-32.7716 L 31.5,-32.5981 L 31.8263,-32.3801 L 32.1213,-32.1213
 L 32.3801,-31.8263 L 32.5981,-31.5 L 32.7716,-31.148 L 32.8978,-30.7764 L 32.9743,-30.3916 L 33,-30
 L 32.9743,-29.6084 L 32.8978,-29.2235 L 32.7716,-28.8519 L 32.5981,-28.5 L 32.3801,-28.1737 L 32.1213,-27.8787
 L 31.8263,-27.6199 L 31.5,-27.4019 L 31.148,-27.2283 L 30.7764,-27.1022 L 30.3916,-27.0257 L 30,-27
 z
M -30.3916,-27.0257 L -30.7764,-27.1022 L -31.148,-27.2283 L -31.5,-27.4019 L -31.8263,-27.6199 L -32.1213,-27.8787
 L -32.3801,-28.1737 L -32.5981,-28.5 L -32.7716,-28.8519 L -32.8978,-29.2235 L -32.9743,-29.6084 L -33,-30
 L -32.9743,-30.3916 L -32.8978,-30.7764 L -32.7716,-31.148 L -32.5981,-31.5 L -32.3801,-31.8263 L -32.1213,-32.1213
 L -31.8263,-32.3801 L -31.5,-32.5981 L -31.148,-32.7716 L -30.7764,-32.8978 L -30.3916,-32.9743 L -30,-33
 L -29.6084,-32.9743 L -29.2235,-32.8978 L -28.8519,-32.7716 L -28.5,-32.5981 L -28.1737,-32.3801 L -27.8787,-32.1213
 L -27.6199,-31.8263 L -27.4019,-31.5 L -27.2283,-31.148 L -27.1022,-30.7764 L -27.0257,-30.3916 L -27,-30
 L -27.0257,-29.6084 L -27.1022,-29.2235 L -27.2283,-28.8519 L -27.4019,-28.5 L -27.6199,-28.1737 L -27.8787,-27.8787
 L -28.1737,-27.6199 L -28.5,-27.4019 L -28.8519,-27.2283 L -29.2235,-27.1022 L -29.6084,-27.0257 L -30,-27
 z
M -4.2421,32.222 L -8.41161,31.3926 L -12.4372,30.0261 L -16.25,28.1458 L -19.7847,25.784 L -22.981,22.981
 L -25.784,19.7847 L -28.1458,16.25 L -30.0261,12.4372 L -31.3926,8.41161 L -32.222,4.2421 L -32.5,-0
 L -32.222,-4.2421 L -31.3926,-8.41161 L -30.0261,-12.4372 L -28.1458,-16.25 L -25.784,-19.7847 L -22.981,-22.981
 L -19.7847,-25.784 L -16.25,-28.1458 L -12.4372,-30.0261 L -8.41161,-31.3926 L -4.2421,-32.222 L 0,-32.5
 L 4.2421,-32.222 L 8.41161,-31.3926 L 12.4372,-30.0261 L 16.25,-28.1458 L 19.7847,-25.784 L 22.981,-22.981
 L 25.784,-19.7847 L 28.1458,-16.25 L 30.0261,-12.4372 L 31.3926,-8.41161 L 32.222,-4.2421 L 32.5,-0
 L 32.222,4.2421 L 31.3926,8.41161 L 30.0261,12.4372 L 28.1458,16.25 L 25.784,19.7847 L 22.981,22.981
 L 19.7847,25.784 L 16.25,28.1458 L 12.4372,30.0261 L 8.41161,31.3926 L 4.2421,32.222 L 0,32.5
 z
M 3.26315,24.7861 L 6.47047,24.1481 L 9.56708,23.097 L 12.5,21.6506 L 15.219,19.8338 L 17.6777,17.6777
 L 19.8338,15.219 L 21.6506,12.5 L 23.097,9.56708 L 24.1481,6.47047 L 24.7861,3.26315 L 25,-0
 L 24.7861,-3.26315 L 24.1481,-6.47047 L 23.097,-9.56708 L 21.6506,-12.5 L 19.8338,-15.219 L 17.6777,-17.6777
 L 15.219,-19.8338 L 12.5,-21.6506 L 9.56708,-23.097 L 6.47047,-24.1481 L 3.26315,-24.7861 L 0,-25
 L -3.26315,-24.7861 L -6.47047,-24.1481 L -9.56708,-23.097 L -12.5,-21.6506 L -15.219,-19.8338 L -17.6777,-17.6777
 L -19.8338,-15.219 L -21.6506,-12.5 L -23.097,-9.56708 L -24.1481,-6.47047 L -24.7861,-3.26315 L -25,-0
 L -24.7861,3.26315 L -24.1481,6.47047 L -23.097,9.56708 L -21.6506,12.5 L -19.8338,15.219 L -17.6777,17.6777
 L -15.219,19.8338 L -12.5,21.6506 L -9.56708,23.097 L -6.47047,24.1481 L -3.26315,24.7861 L 0,25
 z
M -0.391571,-12.0257 L -0.776443,-12.1022 L -1.14804,-12.2283 L -1.5,-12.4019 L -1.82628,-12.6199 L -2.12131,-12.8787
 L -2.38005,-13.1737 L -2.59807,-13.5 L -2.77164,-13.8519 L -2.89777,-14.2235 L -2.97432,-14.6084 L -3,-15
 L -2.97432,-15.3916 L -2.89777,-15.7764 L -2.77164,-16.148 L -2.59807,-16.5 L -2.38005,-16.8263 L -2.12131,-17.1213
 L -1.82628,-17.3801 L -1.5,-17.5981 L -1.14804,-17.7716 L -0.776443,-17.8978 L -0.391571,-17.9743 L 0,-18
 L 0.391571,-17.9743 L 0.776443,-17.8978 L 1.14804,-17.7716 L 1.5,-17.5981 L 1.82628,-17.3801 L 2.12131,-17.1213
 L 2.38005,-16.8263 L 2.59807,-16.5 L 2.77164,-16.148 L 2.89777,-15.7764 L 2.97432,-15.3916 L 3,-15
 L 2.97432,-14.6084 L 2.89777,-14.2235 L 2.77164,-13.8519 L 2.59807,-13.5 L 2.38005,-13.1737 L 2.12131,-12.8787
 L 1.82628,-12.6199 L 1.5,-12.4019 L 1.14804,-12.2283 L 0.776443,-12.1022 L 0.391571,-12.0257 L 0,-12
 z
M -9.64078,-7.95782 L -9.83322,-7.99611 L -10.019,-8.05917 L -10.195,-8.14595 L -10.3581,-8.25496 L -10.5056,-8.38434
 L -10.635,-8.53185 L -10.744,-8.69499 L -10.8308,-8.87097 L -10.8939,-9.05676 L -10.9322,-9.24921 L -10.945,-9.44499
 L -10.9322,-9.64078 L -10.8939,-9.83322 L -10.8308,-10.019 L -10.744,-10.195 L -10.635,-10.3581 L -10.5056,-10.5056
 L -10.3581,-10.635 L -10.195,-10.744 L -10.019,-10.8308 L -9.83322,-10.8939 L -9.64078,-10.9322 L -9.44499,-10.945
 L -9.24921,-10.9322 L -9.05676,-10.8939 L -8.87097,-10.8308 L -8.69499,-10.744 L -8.53185,-10.635 L -8.38434,-10.5056
 L -8.25496,-10.3581 L -8.14595,-10.195 L -8.05917,-10.019 L -7.99611,-9.83322 L -7.95782,-9.64078 L -7.94499,-9.44499
 L -7.95782,-9.24921 L -7.99611,-9.05676 L -8.05917,-8.87097 L -8.14595,-8.69499 L -8.25496,-8.53185 L -8.38434,-8.38434
 L -8.53185,-8.25496 L -8.69499,-8.14595 L -8.87097,-8.05917 L -9.05676,-7.99611 L -9.24921,-7.95782 L -9.44499,-7.94499
 z
M 9.24921,-7.95782 L 9.05676,-7.99611 L 8.87097,-8.05917 L 8.69499,-8.14595 L 8.53185,-8.25496 L 8.38434,-8.38434
 L 8.25496,-8.53185 L 8.14595,-8.69499 L 8.05917,-8.87097 L 7.99611,-9.05676 L 7.95782,-9.24921 L 7.94499,-9.44499
 L 7.95782,-9.64078 L 7.99611,-9.83322 L 8.05917,-10.019 L 8.14595,-10.195 L 8.25496,-10.3581 L 8.38434,-10.5056
 L 8.53185,-10.635 L 8.69499,-10.744 L 8.87097,-10.8308 L 9.05676,-10.8939 L 9.24921,-10.9322 L 9.44499,-10.945
 L 9.64078,-10.9322 L 9.83322,-10.8939 L 10.019,-10.8308 L 10.195,-10.744 L 10.3581,-10.635 L 10.5056,-10.5056
 L 10.635,-10.3581 L 10.744,-10.195 L 10.8308,-10.019 L 10.8939,-9.83322 L 10.9322,-9.64078 L 10.945,-9.44499
 L 10.9322,-9.24921 L 10.8939,-9.05676 L 10.8308,-8.87097 L 10.744,-8.69499 L 10.635,-8.53185 L 10.5056,-8.38434
 L 10.3581,-8.25496 L 10.195,-8.14595 L 10.019,-8.05917 L 9.83322,-7.99611 L 9.64078,-7.95782 L 9.44499,-7.94499
 z
M -0.391571,2.97432 L -0.776443,2.89777 L -1.14804,2.77164 L -1.5,2.59807 L -1.82628,2.38005 L -2.12131,2.12131
 L -2.38005,1.82628 L -2.59807,1.5 L -2.77164,1.14804 L -2.89777,0.776443 L -2.97432,0.391571 L -3,-0
 L -2.97432,-0.391571 L -2.89777,-0.776443 L -2.77164,-1.14804 L -2.59807,-1.5 L -2.38005,-1.82628 L -2.12131,-2.12131
 L -1.82628,-2.38005 L -1.5,-2.59807 L -1.14804,-2.77164 L -0.776443,-2.89777 L -0.391571,-2.97432 L 0,-3
 L 0.391571,-2.97432 L 0.776443,-2.89777 L 1.14804,-2.77164 L 1.5,-2.59807 L 1.82628,-2.38005 L 2.12131,-2.12131
 L 2.38005,-1.82628 L 2.59807,-1.5 L 2.77164,-1.14804 L 2.89777,-0.776443 L 2.97432,-0.391571 L 3,-0
 L 2.97432,0.391571 L 2.89777,0.776443 L 2.77164,1.14804 L 2.59807,1.5 L 2.38005,1.82628 L 2.12131,2.12131
 L 1.82628,2.38005 L 1.5,2.59807 L 1.14804,2.77164 L 0.776443,2.89777 L 0.391571,2.97432 L 0,3
 z
M 14.6084,2.97432 L 14.2235,2.89777 L 13.8519,2.77164 L 13.5,2.59807 L 13.1737,2.38005 L 12.8787,2.12131
 L 12.6199,1.82628 L 12.4019,1.5 L 12.2283,1.14804 L 12.1022,0.776443 L 12.0257,0.391571 L 12,-0
 L 12.0257,-0.391571 L 12.1022,-0.776443 L 12.2283,-1.14804 L 12.4019,-1.5 L 12.6199,-1.82628 L 12.8787,-2.12131
 L 13.1737,-2.38005 L 13.5,-2.59807 L 13.8519,-2.77164 L 14.2235,-2.89777 L 14.6084,-2.97432 L 15,-3
 L 15.3916,-2.97432 L 15.7764,-2.89777 L 16.148,-2.77164 L 16.5,-2.59807 L 16.8263,-2.38005 L 17.1213,-2.12131
 L 17.3801,-1.82628 L 17.5981,-1.5 L 17.7716,-1.14804 L 17.8978,-0.776443 L 17.9743,-0.391571 L 18,-0
 L 17.9743,0.391571 L 17.8978,0.776443 L 17.7716,1.14804 L 17.5981,1.5 L 17.3801,1.82628 L 17.1213,2.12131
 L 16.8263,2.38005 L 16.5,2.59807 L 16.148,2.77164 L 15.7764,2.89777 L 15.3916,2.97432 L 15,3
 z
M -15.3916,2.97432 L -15.7764,2.89777 L -16.148,2.77164 L -16.5,2.59807 L -16.8263,2.38005 L -17.1213,2.12131
 L -17.3801,1.82628 L -17.5981,1.5 L -17.7716,1.14804 L -17.8978,0.776443 L -17.9743,0.391571 L -18,-0
 L -17.9743,-0.391571 L -17.8978,-0.776443 L -17.7716,-1.14804 L -17.5981,-1.5 L -17.3801,-1.82628 L -17.1213,-2.12131
 L -16.8263,-2.38005 L -16.5,-2.59807 L -16.148,-2.77164 L -15.7764,-2.89777 L -15.3916,-2.97432 L -15,-3
 L -14.6084,-2.97432 L -14.2235,-2.89777 L -13.8519,-2.77164 L -13.5,-2.59807 L -13.1737,-2.38005 L -12.8787,-2.12131
 L -12.6199,-1.82628 L -12.4019,-1.5 L -12.2283,-1.14804 L -12.1022,-0.776443 L -12.0257,-0.391571 L -12,-0
 L -12.0257,0.391571 L -12.1022,0.776443 L -12.2283,1.14804 L -12.4019,1.5 L -12.6199,1.82628 L -12.8787,2.12131
 L -13.1737,2.38005 L -13.5,2.59807 L -13.8519,2.77164 L -14.2235,2.89777 L -14.6084,2.97432 L -15,3
 z
M -9.64078,10.9322 L -9.83322,10.8939 L -10.019,10.8308 L -10.195,10.744 L -10.3581,10.635 L -10.5056,10.5056
 L -10.635,10.3581 L -10.744,10.195 L -10.8308,10.019 L -10.8939,9.83322 L -10.9322,9.64078 L -10.945,9.44499
 L -10.9322,9.24921 L -10.8939,9.05676 L -10.8308,8.87097 L -10.744,8.69499 L -10.635,8.53185 L -10.5056,8.38434
 L -10.3581,8.25496 L -10.195,8.14595 L -10.019,8.05917 L -9.83322,7.99611 L -9.64078,7.95782 L -9.44499,7.94499
 L -9.24921,7.95782 L -9.05676,7.99611 L -8.87097,8.05917 L -8.69499,8.14595 L -8.53185,8.25496 L -8.38434,8.38434
 L -8.25496,8.53185 L -8.14595,8.69499 L -8.05917,8.87097 L -7.99611,9.05676 L -7.95782,9.24921 L -7.94499,9.44499
 L -7.95782,9.64078 L -7.99611,9.83322 L -8.05917,10.019 L -8.14595,10.195 L -8.25496,10.3581 L -8.38434,10.5056
 L -8.53185,10.635 L -8.69499,10.744 L -8.87097,10.8308 L -9.05676,10.8939 L -9.24921,10.9322 L -9.44499,10.945
 z
M 9.24921,10.9322 L 9.05676,10.8939 L 8.87097,10.8308 L 8.69499,10.744 L 8.53185,10.635 L 8.38434,10.5056
 L 8.25496,10.3581 L 8.14595,10.195 L 8.05917,10.019 L 7.99611,9.83322 L 7.95782,9.64078 L 7.94499,9.44499
 L 7.95782,9.24921 L 7.99611,9.05676 L 8.05917,8.87097 L 8.14595,8.69499 L 8.25496,8.53185 L 8.38434,8.38434
 L 8.53185,8.25496 L 8.69499,8.14595 L 8.87097,8.05917 L 9.05676,7.99611 L 9.24921,7.95782 L 9.44499,7.94499
 L 9.64078,7.95782 L 9.83322,7.99611 L 10.019,8.05917 L 10.195,8.14595 L 10.3581,8.25496 L 10.5056,8.38434
 L 10.635,8.53185 L 10.744,8.69499 L 10.8308,8.87097 L 10.8939,9.05676 L 10.9322,9.24921 L 10.945,9.44499
 L 10.9322,9.64078 L 10.8939,9.83322 L 10.8308,10.019 L 10.744,10.195 L 10.635,10.3581 L 10.5056,10.5056
 L 10.3581,10.635 L 10.195,10.744 L 10.019,10.8308 L 9.83322,10.8939 L 9.64078,10.9322 L 9.44499,10.945
 z
M -0.391571,17.9743 L -0.776443,17.8978 L -1.14804,17.7716 L -1.5,17.5981 L -1.82628,17.3801 L -2.12131,17.1213
 L -2.38005,16.8263 L -2.59807,16.5 L -2.77164,16.148 L -2.89777,15.7764 L -2.97432,15.3916 L -3,15
 L -2.97432,14.6084 L -2.89777,14.2235 L -2.77164,13.8519 L -2.59807,13.5 L -2.38005,13.1737 L -2.12131,12.8787
 L -1.82628,12.6199 L -1.5,12.4019 L -1.14804,12.2283 L -0.776443,12.1022 L -0.391571,12.0257 L 0,12
 L 0.391571,12.0257 L 0.776443,12.1022 L 1.14804,12.2283 L 1.5,12.4019 L 1.82628,12.6199 L 2.12131,12.8787
 L 2.38005,13.1737 L 2.59807,13.5 L 2.77164,13.8519 L 2.89777,14.2235 L 2.97432,14.6084 L 3,15
 L 2.97432,15.3916 L 2.89777,15.7764 L 2.77164,16.148 L 2.59807,16.5 L 2.38005,16.8263 L 2.12131,17.1213
 L 1.82628,17.3801 L 1.5,17.5981 L 1.14804,17.7716 L 0.776443,17.8978 L 0.391571,17.9743 L 0,18
 z
M -25.1958,-23.5128 L -25.3882,-23.5511 L -25.574,-23.6142 L -25.75,-23.701 L -25.9131,-23.81 L -26.0607,-23.9393
 L -26.19,-24.0869 L -26.299,-24.25 L -26.3858,-24.426 L -26.4489,-24.6118 L -26.4872,-24.8042 L -26.5,-25
 L -26.4872,-25.1958 L -26.4489,-25.3882 L -26.3858,-25.574 L -26.299,-25.75 L -26.19,-25.9131 L -26.0607,-26.0607
 L -25.9131,-26.19 L -25.75,-26.299 L -25.574,-26.3858 L -25.3882,-26.4489 L -25.1958,-26.4872 L -25,-26.5
 L -24.8042,-26.4872 L -24.6118,-26.4489 L -24.426,-26.3858 L -24.25,-26.299 L -24.0869,-26.19 L -23.9393,-26.0607
 L -23.81,-25.9131 L -23.701,-25.75 L -23.6142,-25.574 L -23.5511,-25.3882 L -23.5128,-25.1958 L -23.5,-25
 L -23.5128,-24.8042 L -23.5511,-24.6118 L -23.6142,-24.426 L -23.701,-24.25 L -23.81,-24.0869 L -23.9393,-23.9393
 L -24.0869,-23.81 L -24.25,-23.701 L -24.426,-23.6142 L -24.6118,-23.5511 L -24.8042,-23.5128 L -25,-23.5
 z
M 24.8042,-23.5128 L 24.6118,-23.5511 L 24.426,-23.6142 L 24.25,-23.701 L 24.0869,-23.81 L 23.9393,-23.9393
 L 23.81,-24.0869 L 23.701,-24.25 L 23.6142,-24.426 L 23.5511,-24.6118 L 23.5128,-24.8042 L 23.5,-25
 L 23.5128,-25.1958 L 23.5511,-25.3882 L 23.6142,-25.574 L 23.701,-25.75 L 23.81,-25.9131 L 23.9393,-26.0607
 L 24.0869,-26.19 L 24.25,-26.299 L 24.426,-26.3858 L 24.6118,-26.4489 L 24.8042,-26.4872 L 25,-26.5
 L 25.1958,-26.4872 L 25.3882,-26.4489 L 25.574,-26.3858 L 25.75,-26.299 L 25.9131,-26.19 L 26.0607,-26.0607
 L 26.19,-25.9131 L 26.299,-25.75 L 26.3858,-25.574 L 26.4489,-25.3882 L 26.4872,-25.1958 L 26.5,-25
 L 26.4872,-24.8042 L 26.4489,-24.6118 L 26.3858,-24.426 L 26.299,-24.25 L 26.19,-24.0869 L 26.0607,-23.9393
 L 25.9131,-23.81 L 25.75,-23.701 L 25.574,-23.6142 L 25.3882,-23.5511 L 25.1958,-23.5128 L 25,-23.5
 z
M 24.8042,26.4872 L 24.6118,26.4489 L 24.426,26.3858 L 24.25,26.299 L 24.0869,26.19 L 23.9393,26.0607
 L 23.81,25.9131 L 23.701,25.75 L 23.6142,25.574 L 23.5511,25.3882 L 23.5128,25.1958 L 23.5,25
 L 23.5128,24.8042 L 23.5511,24.6118 L 23.6142,24.426 L 23.701,24.25 L 23.81,24.0869 L 23.9393,23.9393
 L 24.0869,23.81 L 24.25,23.701 L 24.426,23.6142 L 24.6118,23.5511 L 24.8042,23.5128 L 25,23.5
 L 25.1958,23.5128 L 25.3882,23.5511 L 25.574,23.6142 L 25.75,23.701 L 25.9131,23.81 L 26.0607,23.9393
 L 26.19,24.0869 L 26.299,24.25 L 26.3858,24.426 L 26.4489,24.6118 L 26.4872,24.8042 L 26.5,25
 L 26.4872,25.1958 L 26.4489,25.3882 L 26.3858,25.574 L 26.299,25.75 L 26.19,25.9131 L 26.0607,26.0607
 L 25.9131,26.19 L 25.75,26.299 L 25.574,26.3858 L 25.3882,26.4489 L 25.1958,26.4872 L 25,26.5
 z
M -25.1958,26.4872 L -25.3882,26.4489 L -25.574,26.3858 L -25.75,26.299 L -25.9131,26.19 L -26.0607,26.0607
 L -26.19,25.9131 L -26.299,25.75 L -26.3858,25.574 L -26.4489,25.3882 L -26.4872,25.1958 L -26.5,25
 L -26.4872,24.8042 L -26.4489,24.6118 L -26.3858,24.426 L -26.299,24.25 L -26.19,24.0869 L -26.0607,23.9393
 L -25.9131,23.81 L -25.75,23.701 L -25.574,23.6142 L -25.3882,23.5511 L -25.1958,23.5128 L -25,23.5
 L -24.8042,23.5128 L -24.6118,23.5511 L -24.426,23.6142 L -24.25,23.701 L -24.0869,23.81 L -23.9393,23.9393
 L -23.81,24.0869 L -23.701,24.25 L -23.6142,24.426 L -23.5511,24.6118 L -23.5128,24.8042 L -23.5,25
 L -23.5128,25.1958 L -23.5511,25.3882 L -23.6142,25.574 L -23.701,25.75 L -23.81,25.9131 L -23.9393,26.0607
 L -24.0869,26.19 L -24.25,26.299 L -24.426,26.3858 L -24.6118,26.4489 L -24.8042,26.4872 L -25,26.5
 z
M -30.3916,32.9743 L -30.7764,32.8978 L -31.148,32.7716 L -31.5,32.5981 L -31.8263,32.3801 L -32.1213,32.1213
 L -32.3801,31.8263 L -32.5981,31.5 L -32.7716,31.148 L -32.8978,30.7764 L -32.9743,30.3916 L -33,30
 L -32.9743,29.6084 L -32.8978,29.2235 L -32.7716,28.8519 L -32.5981,28.5 L -32.3801,28.1737 L -32.1213,27.8787
 L -31.8263,27.6199 L -31.5,27.4019 L -31.148,27.2283 L -30.7764,27.1022 L -30.3916,27.0257 L -30,27
 L -29.6084,27.0257 L -29.2235,27.1022 L -28.8519,27.2283 L -28.5,27.4019 L -28.1737,27.6199 L -27.8787,27.8787
 L -27.6199,28.1737 L -27.4019,28.5 L -27.2283,28.8519 L -27.1022,29.2235 L -27.0257,29.6084 L -27,30
 L -27.0257,30.3916 L -27.1022,30.7764 L -27.2283,31.148 L -27.4019,31.5 L -27.6199,31.8263 L -27.8787,32.1213
 L -28.1737,32.3801 L -28.5,32.5981 L -28.8519,32.7716 L -29.2235,32.8978 L -29.6084,32.9743 L -30,33
 z
M 29.6084,32.9743 L 29.2235,32.8978 L 28.8519,32.7716 L 28.5,32.5981 L 28.1737,32.3801 L 27.8787,32.1213
 L 27.6199,31.8263 L 27.4019,31.5 L 27.2283,31.148 L 27.1022,30.7764 L 27.0257,30.3916 L 27,30
 L 27.0257,29.6084 L 27.1022,29.2235 L 27.2283,28.8519 L 27.4019,28.5 L 27.6199,28.1737 L 27.8787,27.8787
 L 28.1737,27.6199 L 28.5,27.4019 L 28.8519,27.2283 L 29.2235,27.1022 L 29.6084,27.0257 L 30,27
 L 30.3916,27.0257 L 30.7764,27.1022 L 31.148,27.2283 L 31.5,27.4019 L 31.8263,27.6199 L 32.1213,27.8787
 L 32.3801,28.1737 L 32.5981,28.5 L 32.7716,28.8519 L 32.8978,29.2235 L 32.9743,29.6084 L 33,30
 L 32.9743,30.3916 L 32.8978,30.7764 L 32.7716,31.148 L 32.5981,31.5 L 32.3801,31.8263 L 32.1213,32.1213
 L 31.8263,32.3801 L 31.5,32.5981 L 31.148,32.7716 L 30.7764,32.8978 L 30.3916,32.9743 L 30,33
 z
" stroke="black" fill="lightgray" stroke-width="0.5"/>
</svg>
