  0
SECTION
  2
BLOCKS
  0
ENDSEC
  0
SECTION
  2
ENTITIES
  0
LINE
  8
0
 10
31.6576
 20
-35.9622
 11
32.2991
 21
-35.8346
  0
LINE
  8
0
 10
32.2991
 20
-35.8346
 11
32.9184
 21
-35.6244
  0
LINE
  8
0
 10
32.9184
 20
-35.6244
 11
33.505
 21
-35.3351
  0
LINE
  8
0
 10
33.505
 20
-35.3351
 11
34.0488
 21
-34.9718
  0
LINE
  8
0
 10
34.0488
 20
-34.9718
 11
34.5405
 21
-34.5405
  0
LINE
  8
0
 10
34.5405
 20
-34.5405
 11
34.9718
 21
-34.0488
  0
LINE
  8
0
 10
34.9718
 20
-34.0488
 11
35.3351
 21
-33.505
  0
LINE
  8
0
 10
35.3351
 20
-33.505
 11
35.6244
 21
-32.9184
  0
LINE
  8
0
 10
35.6244
 20
-32.9184
 11
35.8346
 21
-32.2991
  0
LINE
  8
0
 10
35.8346
 20
-32.2991
 11
35.9622
 21
-31.6576
  0
LINE
  8
0
 10
35.9622
 20
-31.6576
 11
36.005
 21
-31.005
  0
LINE
  8
0
 10
36.005
 20
-31.005
 11
36.005
 21
31.005
  0
LINE
  8
0
 10
36.005
 20
31.005
 11
35.9622
 21
31.6576
  0
LINE
  8
0
 10
35.9622
 20
31.6576
 11
35.8346
 21
32.2991
  0
LINE
  8
0
 10
35.8346
 20
32.2991
 11
35.6244
 21
32.9184
  0
LINE
  8
0
 10
35.6244
 20
32.9184
 11
35.3351
 21
33.505
  0
LINE
  8
0
 10
35.3351
 20
33.505
 11
34.9718
 21
34.0488
  0
LINE
  8
0
 10
34.9718
 20
34.0488
 11
34.5405
 21
34.5405
  0
LINE
  8
0
 10
34.5405
 20
34.5405
 11
34.0488
 21
34.9718
  0
LINE
  8
0
 10
34.0488
 20
34.9718
 11
33.505
 21
35.3351
  0
LINE
  8
0
 10
33.505
 20
35.3351
 11
32.9184
 21
35.6244
  0
LINE
  8
0
 10
32.9184
 20
35.6244
 11
32.2991
 21
35.8346
  0
LINE
  8
0
 10
32.2991
 20
35.8346
 11
31.6576
 21
35.9622
  0
LINE
  8
0
 10
31.6576
 20
35.9622
 11
31.005
 21
36.005
  0
LINE
  8
0
 10
31.005
 20
36.005
 11
-31.005
 21
36.005
  0
LINE
  8
0
 10
-31.005
 20
36.005
 11
-31.6576
 21
35.9622
  0
LINE
  8
0
 10
-31.6576
 20
35.9622
 11
-32.2991
 21
35.8346
  0
LINE
  8
0
 10
-32.2991
 20
35.8346
 11
-32.9184
 21
35.6244
  0
LINE
  8
0
 10
-32.9184
 20
35.6244
 11
-33.505
 21
35.3351
  0
LINE
  8
0
 10
-33.505
 20
35.3351
 11
-34.0488
 21
34.9718
  0
LINE
  8
0
 10
-34.0488
 20
34.9718
 11
-34.5405
 21
34.5405
  0
LINE
  8
0
 10
-34.5405
 20
34.5405
 11
-34.9718
 21
34.0488
  0
LINE
  8
0
 10
-34.9718
 20
34.0488
 11
-35.3351
 21
33.505
  0
LINE
  8
0
 10
-35.3351
 20
33.505
 11
-35.6244
 21
32.9184
  0
LINE
  8
0
 10
-35.6244
 20
32.9184
 11
-35.8346
 21
32.2991
  0
LINE
  8
0
 10
-35.8346
 20
32.2991
 11
-35.9622
 21
31.6576
  0
LINE
  8
0
 10
-35.9622
 20
31.6576
 11
-36.005
 21
31.005
  0
LINE
  8
0
 10
-36.005
 20
31.005
 11
-36.005
 21
-31.005
  0
LINE
  8
0
 10
-36.005
 20
-31.005
 11
-35.9622
 21
-31.6576
  0
LINE
  8
0
 10
-35.9622
 20
-31.6576
 11
-35.8346
 21
-32.2991
  0
LINE
  8
0
 10
-35.8346
 20
-32.2991
 11
-35.6244
 21
-32.9184
  0
LINE
  8
0
 10
-35.6244
 20
-32.9184
 11
-35.3351
 21
-33.505
  0
LINE
  8
0
 10
-35.3351
 20
-33.505
 11
-34.9718
 21
-34.0488
  0
LINE
  8
0
 10
-34.9718
 20
-34.0488
 11
-34.5405
 21
-34.5405
  0
LINE
  8
0
 10
-34.5405
 20
-34.5405
 11
-34.0488
 21
-34.9718
  0
LINE
  8
0
 10
-34.0488
 20
-34.9718
 11
-33.505
 21
-35.3351
  0
LINE
  8
0
 10
-33.505
 20
-35.3351
 11
-32.9184
 21
-35.6244
  0
LINE
  8
0
 10
-32.9184
 20
-35.6244
 11
-32.2991
 21
-35.8346
  0
LINE
  8
0
 10
-32.2991
 20
-35.8346
 11
-31.6576
 21
-35.9622
  0
LINE
  8
0
 10
-31.6576
 20
-35.9622
 11
-31.005
 21
-36.005
  0
LINE
  8
0
 10
-31.005
 20
-36.005
 11
31.005
 21
-36.005
  0
LINE
  8
0
 10
31.005
 20
-36.005
 11
31.6576
 21
-35.9622
  0
LINE
  8
0
 10
29.6084
 20
27.0257
 11
29.2235
 21
27.1022
  0
LINE
  8
0
 10
29.2235
 20
27.1022
 11
28.8519
 21
27.2283
  0
LINE
  8
0
 10
28.8519
 20
27.2283
 11
28.5
 21
27.4019
  0
LINE
  8
0
 10
28.5
 20
27.4019
 11
28.1737
 21
27.6199
  0
LINE
  8
0
 10
28.1737
 20
27.6199
 11
27.8787
 21
27.8787
  0
LINE
  8
0
 10
27.8787
 20
27.8787
 11
27.6199
 21
28.1737
  0
LINE
  8
0
 10
27.6199
 20
28.1737
 11
27.4019
 21
28.5
  0
LINE
  8
0
 10
27.4019
 20
28.5
 11
27.2283
 21
28.8519
  0
LINE
  8
0
 10
27.2283
 20
28.8519
 11
27.1022
 21
29.2235
  0
LINE
  8
0
 10
27.1022
 20
29.2235
 11
27.0257
 21
29.6084
  0
LINE
  8
0
 10
27.0257
 20
29.6084
 11
27
 21
30
  0
LINE
  8
0
 10
27
 20
30
 11
27.0257
 21
30.3916
  0
LINE
  8
0
 10
27.0257
 20
30.3916
 11
27.1022
 21
30.7764
  0
LINE
  8
0
 10
27.1022
 20
30.7764
 11
27.2283
 21
31.148
  0
LINE
  8
0
 10
27.2283
 20
31.148
 11
27.4019
 21
31.5
  0
LINE
  8
0
 10
27.4019
 20
31.5
 11
27.6199
 21
31.8263
  0
LINE
  8
0
 10
27.6199
 20
31.8263
 11
27.8787
 21
32.1213
  0
LINE
  8
0
 10
27.8787
 20
32.1213
 11
28.1737
 21
32.3801
  0
LINE
  8
0
 10
28.1737
 20
32.3801
 11
28.5
 21
32.5981
  0
LINE
  8
0
 10
28.5
 20
32.5981
 11
28.8519
 21
32.7716
  0
LINE
  8
0
 10
28.8519
 20
32.7716
 11
29.2235
 21
32.8978
  0
LINE
  8
0
 10
29.2235
 20
32.8978
 11
29.6084
 21
32.9743
  0
LINE
  8
0
 10
29.6084
 20
32.9743
 11
30
 21
33
  0
LINE
  8
0
 10
30
 20
33
 11
30.3916
 21
32.9743
  0
LINE
  8
0
 10
30.3916
 20
32.9743
 11
30.7764
 21
32.8978
  0
LINE
  8
0
 10
30.7764
 20
32.8978
 11
31.148
 21
32.7716
  0
LINE
  8
0
 10
31.148
 20
32.7716
 11
31.5
 21
32.5981
  0
LINE
  8
0
 10
31.5
 20
32.5981
 11
31.8263
 21
32.3801
  0
LINE
  8
0
 10
31.8263
 20
32.3801
 11
32.1213
 21
32.1213
  0
LINE
  8
0
 10
32.1213
 20
32.1213
 11
32.3801
 21
31.8263
  0
LINE
  8
0
 10
32.3801
 20
31.8263
 11
32.5981
 21
31.5
  0
LINE
  8
0
 10
32.5981
 20
31.5
 11
32.7716
 21
31.148
  0
LINE
  8
0
 10
32.7716
 20
31.148
 11
32.8978
 21
30.7764
  0
LINE
  8
0
 10
32.8978
 20
30.7764
 11
32.9743
 21
30.3916
  0
LINE
  8
0
 10
32.9743
 20
30.3916
 11
33
 21
30
  0
LINE
  8
0
 10
33
 20
30
 11
32.9743
 21
29.6084
  0
LINE
  8
0
 10
32.9743
 20
29.6084
 11
32.8978
 21
29.2235
  0
LINE
  8
0
 10
32.8978
 20
29.2235
 11
32.7716
 21
28.8519
  0
LINE
  8
0
 10
32.7716
 20
28.8519
 11
32.5981
 21
28.5
  0
LINE
  8
0
 10
32.5981
 20
28.5
 11
32.3801
 21
28.1737
  0
LINE
  8
0
 10
32.3801
 20
28.1737
 11
32.1213
 21
27.8787
  0
LINE
  8
0
 10
32.1213
 20
27.8787
 11
31.8263
 21
27.6199
  0
LINE
  8
0
 10
31.8263
 20
27.6199
 11
31.5
 21
27.4019
  0
LINE
  8
0
 10
31.5
 20
27.4019
 11
31.148
 21
27.2283
  0
LINE
  8
0
 10
31.148
 20
27.2283
 11
30.7764
 21
27.1022
  0
LINE
  8
0
 10
30.7764
 20
27.1022
 11
30.3916
 21
27.0257
  0
LINE
  8
0
 10
30.3916
 20
27.0257
 11
30
 21
27
  0
LINE
  8
0
 10
30
 20
27
 11
29.6084
 21
27.0257
  0
LINE
  8
0
 10
-30.3916
 20
27.0257
 11
-30.7764
 21
27.1022
  0
LINE
  8
0
 10
-30.7764
 20
27.1022
 11
-31.148
 21
27.2283
  0
LINE
  8
0
 10
-31.148
 20
27.2283
 11
-31.5
 21
27.4019
  0
LINE
  8
0
 10
-31.5
 20
27.4019
 11
-31.8263
 21
27.6199
  0
LINE
  8
0
 10
-31.8263
 20
27.6199
 11
-32.1213
 21
27.8787
  0
LINE
  8
0
 10
-32.1213
 20
27.8787
 11
-32.3801
 21
28.1737
  0
LINE
  8
0
 10
-32.3801
 20
28.1737
 11
-32.5981
 21
28.5
  0
LINE
  8
0
 10
-32.5981
 20
28.5
 11
-32.7716
 21
28.8519
  0
LINE
  8
0
 10
-32.7716
 20
28.8519
 11
-32.8978
 21
29.2235
  0
LINE
  8
0
 10
-32.8978
 20
29.2235
 11
-32.9743
 21
29.6084
  0
LINE
  8
0
 10
-32.9743
 20
29.6084
 11
-33
 21
30
  0
LINE
  8
0
 10
-33
 20
30
 11
-32.9743
 21
30.3916
  0
LINE
  8
0
 10
-32.9743
 20
30.3916
 11
-32.8978
 21
30.7764
  0
LINE
  8
0
 10
-32.8978
 20
30.7764
 11
-32.7716
 21
31.148
  0
LINE
  8
0
 10
-32.7716
 20
31.148
 11
-32.5981
 21
31.5
  0
LINE
  8
0
 10
-32.5981
 20
31.5
 11
-32.3801
 21
31.8263
  0
LINE
  8
0
 10
-32.3801
 20
31.8263
 11
-32.1213
 21
32.1213
  0
LINE
  8
0
 10
-32.1213
 20
32.1213
 11
-31.8263
 21
32.3801
  0
LINE
  8
0
 10
-31.8263
 20
32.3801
 11
-31.5
 21
32.5981
  0
LINE
  8
0
 10
-31.5
 20
32.5981
 11
-31.148
 21
32.7716
  0
LINE
  8
0
 10
-31.148
 20
32.7716
 11
-30.7764
 21
32.8978
  0
LINE
  8
0
 10
-30.7764
 20
32.8978
 11
-30.3916
 21
32.9743
  0
LINE
  8
0
 10
-30.3916
 20
32.9743
 11
-30
 21
33
  0
LINE
  8
0
 10
-30
 20
33
 11
-29.6084
 21
32.9743
  0
LINE
  8
0
 10
-29.6084
 20
32.9743
 11
-29.2235
 21
32.8978
  0
LINE
  8
0
 10
-29.2235
 20
32.8978
 11
-28.8519
 21
32.7716
  0
LINE
  8
0
 10
-28.8519
 20
32.7716
 11
-28.5
 21
32.5981
  0
LINE
  8
0
 10
-28.5
 20
32.5981
 11
-28.1737
 21
32.3801
  0
LINE
  8
0
 10
-28.1737
 20
32.3801
 11
-27.8787
 21
32.1213
  0
LINE
  8
0
 10
-27.8787
 20
32.1213
 11
-27.6199
 21
31.8263
  0
LINE
  8
0
 10
-27.6199
 20
31.8263
 11
-27.4019
 21
31.5
  0
LINE
  8
0
 10
-27.4019
 20
31.5
 11
-27.2283
 21
31.148
  0
LINE
  8
0
 10
-27.2283
 20
31.148
 11
-27.1022
 21
30.7764
  0
LINE
  8
0
 10
-27.1022
 20
30.7764
 11
-27.0257
 21
30.3916
  0
LINE
  8
0
 10
-27.0257
 20
30.3916
 11
-27
 21
30
  0
LINE
  8
0
 10
-27
 20
30
 11
-27.0257
 21
29.6084
  0
LINE
  8
0
 10
-27.0257
 20
29.6084
 11
-27.1022
 21
29.2235
  0
LINE
  8
0
 10
-27.1022
 20
29.2235
 11
-27.2283
 21
28.8519
  0
LINE
  8
0
 10
-27.2283
 20
28.8519
 11
-27.4019
 21
28.5
  0
LINE
  8
0
 10
-27.4019
 20
28.5
 11
-27.6199
 21
28.1737
  0
LINE
  8
0
 10
-27.6199
 20
28.1737
 11
-27.8787
 21
27.8787
  0
LINE
  8
0
 10
-27.8787
 20
27.8787
 11
-28.1737
 21
27.6199
  0
LINE
  8
0
 10
-28.1737
 20
27.6199
 11
-28.5
 21
27.4019
  0
LINE
  8
0
 10
-28.5
 20
27.4019
 11
-28.8519
 21
27.2283
  0
LINE
  8
0
 10
-28.8519
 20
27.2283
 11
-29.2235
 21
27.1022
  0
LINE
  8
0
 10
-29.2235
 20
27.1022
 11
-29.6084
 21
27.0257
  0
LINE
  8
0
 10
-29.6084
 20
27.0257
 11
-30
 21
27
  0
LINE
  8
0
 10
-30
 20
27
 11
-30.3916
 21
27.0257
  0
LINE
  8
0
 10
-4.2421
 20
-32.222
 11
-8.41161
 21
-31.3926
  0
LINE
  8
0
 10
-8.41161
 20
-31.3926
 11
-12.4372
 21
-30.0261
  0
LINE
  8
0
 10
-12.4372
 20
-30.0261
 11
-16.25
 21
-28.1458
  0
LINE
  8
0
 10
-16.25
 20
-28.1458
 11
-19.7847
 21
-25.784
  0
LINE
  8
0
 10
-19.7847
 20
-25.784
 11
-22.981
 21
-22.981
  0
LINE
  8
0
 10
-22.981
 20
-22.981
 11
-25.784
 21
-19.7847
  0
LINE
  8
0
 10
-25.784
 20
-19.7847
 11
-28.1458
 21
-16.25
  0
LINE
  8
0
 10
-28.1458
 20
-16.25
 11
-30.0261
 21
-12.4372
  0
LINE
  8
0
 10
-30.0261
 20
-12.4372
 11
-31.3926
 21
-8.41161
  0
LINE
  8
0
 10
-31.3926
 20
-8.41161
 11
-32.222
 21
-4.2421
  0
LINE
  8
0
 10
-32.222
 20
-4.2421
 11
-32.5
 21
0
  0
LINE
  8
0
 10
-32.5
 20
0
 11
-32.222
 21
4.2421
  0
LINE
  8
0
 10
-32.222
 20
4.2421
 11
-31.3926
 21
8.41161
  0
LINE
  8
0
 10
-31.3926
 20
8.41161
 11
-30.0261
 21
12.4372
  0
LINE
  8
0
 10
-30.0261
 20
12.4372
 11
-28.1458
 21
16.25
  0
LINE
  8
0
 10
-28.1458
 20
16.25
 11
-25.784
 21
19.7847
  0
LINE
  8
0
 10
-25.784
 20
19.7847
 11
-22.981
 21
22.981
  0
LINE
  8
0
 10
-22.981
 20
22.981
 11
-19.7847
 21
25.784
  0
LINE
  8
0
 10
-19.7847
 20
25.784
 11
-16.25
 21
28.1458
  0
LINE
  8
0
 10
-16.25
 20
28.1458
 11
-12.4372
 21
30.0261
  0
LINE
  8
0
 10
-12.4372
 20
30.0261
 11
-8.41161
 21
31.3926
  0
LINE
  8
0
 10
-8.41161
 20
31.3926
 11
-4.2421
 21
32.222
  0
LINE
  8
0
 10
-4.2421
 20
32.222
 11
0
 21
32.5
  0
LINE
  8
0
 10
0
 20
32.5
 11
4.2421
 21
32.222
  0
LINE
  8
0
 10
4.2421
 20
32.222
 11
8.41161
 21
31.3926
  0
LINE
  8
0
 10
8.41161
 20
31.3926
 11
12.4372
 21
30.0261
  0
LINE
  8
0
 10
12.4372
 20
30.0261
 11
16.25
 21
28.1458
  0
LINE
  8
0
 10
16.25
 20
28.1458
 11
19.7847
 21
25.784
  0
LINE
  8
0
 10
19.7847
 20
25.784
 11
22.981
 21
22.981
  0
LINE
  8
0
 10
22.981
 20
22.981
 11
25.784
 21
19.7847
  0
LINE
  8
0
 10
25.784
 20
19.7847
 11
28.1458
 21
16.25
  0
LINE
  8
0
 10
28.1458
 20
16.25
 11
30.0261
 21
12.4372
  0
LINE
  8
0
 10
30.0261
 20
12.4372
 11
31.3926
 21
8.41161
  0
LINE
  8
0
 10
31.3926
 20
8.41161
 11
32.222
 21
4.2421
  0
LINE
  8
0
 10
32.222
 20
4.2421
 11
32.5
 21
0
  0
LINE
  8
0
 10
32.5
 20
0
 11
32.222
 21
-4.2421
  0
LINE
  8
0
 10
32.222
 20
-4.2421
 11
31.3926
 21
-8.41161
  0
LINE
  8
0
 10
31.3926
 20
-8.41161
 11
30.0261
 21
-12.4372
  0
LINE
  8
0
 10
30.0261
 20
-12.4372
 11
28.1458
 21
-16.25
  0
LINE
  8
0
 10
28.1458
 20
-16.25
 11
25.784
 21
-19.7847
  0
LINE
  8
0
 10
25.784
 20
-19.7847
 11
22.981
 21
-22.981
  0
LINE
  8
0
 10
22.981
 20
-22.981
 11
19.7847
 21
-25.784
  0
LINE
  8
0
 10
19.7847
 20
-25.784
 11
16.25
 21
-28.1458
  0
LINE
  8
0
 10
16.25
 20
-28.1458
 11
12.4372
 21
-30.0261
  0
LINE
  8
0
 10
12.4372
 20
-30.0261
 11
8.41161
 21
-31.3926
  0
LINE
  8
0
 10
8.41161
 20
-31.3926
 11
4.2421
 21
-32.222
  0
LINE
  8
0
 10
4.2421
 20
-32.222
 11
0
 21
-32.5
  0
LINE
  8
0
 10
0
 20
-32.5
 11
-4.2421
 21
-32.222
  0
LINE
  8
0
 10
3.26315
 20
-24.7861
 11
6.47047
 21
-24.1481
  0
LINE
  8
0
 10
6.47047
 20
-24.1481
 11
9.56708
 21
-23.097
  0
LINE
  8
0
 10
9.56708
 20
-23.097
 11
12.5
 21
-21.6506
  0
LINE
  8
0
 10
12.5
 20
-21.6506
 11
15.219
 21
-19.8338
  0
LINE
  8
0
 10
15.219
 20
-19.8338
 11
17.6777
 21
-17.6777
  0
LINE
  8
0
 10
17.6777
 20
-17.6777
 11
19.8338
 21
-15.219
  0
LINE
  8
0
 10
19.8338
 20
-15.219
 11
21.6506
 21
-12.5
  0
LINE
  8
0
 10
21.6506
 20
-12.5
 11
23.097
 21
-9.56708
  0
LINE
  8
0
 10
23.097
 20
-9.56708
 11
24.1481
 21
-6.47047
  0
LINE
  8
0
 10
24.1481
 20
-6.47047
 11
24.7861
 21
-3.26315
  0
LINE
  8
0
 10
24.7861
 20
-3.26315
 11
25
 21
0
  0
LINE
  8
0
 10
25
 20
0
 11
24.7861
 21
3.26315
  0
LINE
  8
0
 10
24.7861
 20
3.26315
 11
24.1481
 21
6.47047
  0
LINE
  8
0
 10
24.1481
 20
6.47047
 11
23.097
 21
9.56708
  0
LINE
  8
0
 10
23.097
 20
9.56708
 11
21.6506
 21
12.5
  0
LINE
  8
0
 10
21.6506
 20
12.5
 11
19.8338
 21
15.219
  0
LINE
  8
0
 10
19.8338
 20
15.219
 11
17.6777
 21
17.6777
  0
LINE
  8
0
 10
17.6777
 20
17.6777
 11
15.219
 21
19.8338
  0
LINE
  8
0
 10
15.219
 20
19.8338
 11
12.5
 21
21.6506
  0
LINE
  8
0
 10
12.5
 20
21.6506
 11
9.56708
 21
23.097
  0
LINE
  8
0
 10
9.56708
 20
23.097
 11
6.47047
 21
24.1481
  0
LINE
  8
0
 10
6.47047
 20
24.1481
 11
3.26315
 21
24.7861
  0
LINE
  8
0
 10
3.26315
 20
24.7861
 11
0
 21
25
  0
LINE
  8
0
 10
0
 20
25
 11
-3.26315
 21
24.7861
  0
LINE
  8
0
 10
-3.26315
 20
24.7861
 11
-6.47047
 21
24.1481
  0
LINE
  8
0
 10
-6.47047
 20
24.1481
 11
-9.56708
 21
23.097
  0
LINE
  8
0
 10
-9.56708
 20
23.097
 11
-12.5
 21
21.6506
  0
LINE
  8
0
 10
-12.5
 20
21.6506
 11
-15.219
 21
19.8338
  0
LINE
  8
0
 10
-15.219
 20
19.8338
 11
-17.6777
 21
17.6777
  0
LINE
  8
0
 10
-17.6777
 20
17.6777
 11
-19.8338
 21
15.219
  0
LINE
  8
0
 10
-19.8338
 20
15.219
 11
-21.6506
 21
12.5
  0
LINE
  8
0
 10
-21.6506
 20
12.5
 11
-23.097
 21
9.56708
  0
LINE
  8
0
 10
-23.097
 20
9.56708
 11
-24.1481
 21
6.47047
  0
LINE
  8
0
 10
-24.1481
 20
6.47047
 11
-24.7861
 21
3.26315
  0
LINE
  8
0
 10
-24.7861
 20
3.26315
 11
-25
 21
0
  0
LINE
  8
0
 10
-25
 20
0
 11
-24.7861
 21
-3.26315
  0
LINE
  8
0
 10
-24.7861
 20
-3.26315
 11
-24.1481
 21
-6.47047
  0
LINE
  8
0
 10
-24.1481
 20
-6.47047
 11
-23.097
 21
-9.56708
  0
LINE
  8
0
 10
-23.097
 20
-9.56708
 11
-21.6506
 21
-12.5
  0
LINE
  8
0
 10
-21.6506
 20
-12.5
 11
-19.8338
 21
-15.219
  0
LINE
  8
0
 10
-19.8338
 20
-15.219
 11
-17.6777
 21
-17.6777
  0
LINE
  8
0
 10
-17.6777
 20
-17.6777
 11
-15.219
 21
-19.8338
  0
LINE
  8
0
 10
-15.219
 20
-19.8338
 11
-12.5
 21
-21.6506
  0
LINE
  8
0
 10
-12.5
 20
-21.6506
 11
-9.56708
 21
-23.097
  0
LINE
  8
0
 10
-9.56708
 20
-23.097
 11
-6.47047
 21
-24.1481
  0
LINE
  8
0
 10
-6.47047
 20
-24.1481
 11
-3.26315
 21
-24.7861
  0
LINE
  8
0
 10
-3.26315
 20
-24.7861
 11
0
 21
-25
  0
LINE
  8
0
 10
0
 20
-25
 11
3.26315
 21
-24.7861
  0
LINE
  8
0
 10
-0.391571
 20
12.0257
 11
-0.776443
 21
12.1022
  0
LINE
  8
0
 10
-0.776443
 20
12.1022
 11
-1.14804
 21
12.2283
  0
LINE
  8
0
 10
-1.14804
 20
12.2283
 11
-1.5
 21
12.4019
  0
LINE
  8
0
 10
-1.5
 20
12.4019
 11
-1.82628
 21
12.6199
  0
LINE
  8
0
 10
-1.82628
 20
12.6199
 11
-2.12131
 21
12.8787
  0
LINE
  8
0
 10
-2.12131
 20
12.8787
 11
-2.38005
 21
13.1737
  0
LINE
  8
0
 10
-2.38005
 20
13.1737
 11
-2.59807
 21
13.5
  0
LINE
  8
0
 10
-2.59807
 20
13.5
 11
-2.77164
 21
13.8519
  0
LINE
  8
0
 10
-2.77164
 20
13.8519
 11
-2.89777
 21
14.2235
  0
LINE
  8
0
 10
-2.89777
 20
14.2235
 11
-2.97432
 21
14.6084
  0
LINE
  8
0
 10
-2.97432
 20
14.6084
 11
-3
 21
15
  0
LINE
  8
0
 10
-3
 20
15
 11
-2.97432
 21
15.3916
  0
LINE
  8
0
 10
-2.97432
 20
15.3916
 11
-2.89777
 21
15.7764
  0
LINE
  8
0
 10
-2.89777
 20
15.7764
 11
-2.77164
 21
16.148
  0
LINE
  8
0
 10
-2.77164
 20
16.148
 11
-2.59807
 21
16.5
  0
LINE
  8
0
 10
-2.59807
 20
16.5
 11
-2.38005
 21
16.8263
  0
LINE
  8
0
 10
-2.38005
 20
16.8263
 11
-2.12131
 21
17.1213
  0
LINE
  8
0
 10
-2.12131
 20
17.1213
 11
-1.82628
 21
17.3801
  0
LINE
  8
0
 10
-1.82628
 20
17.3801
 11
-1.5
 21
17.5981
  0
LINE
  8
0
 10
-1.5
 20
17.5981
 11
-1.14804
 21
17.7716
  0
LINE
  8
0
 10
-1.14804
 20
17.7716
 11
-0.776443
 21
17.8978
  0
LINE
  8
0
 10
-0.776443
 20
17.8978
 11
-0.391571
 21
17.9743
  0
LINE
  8
0
 10
-0.391571
 20
17.9743
 11
0
 21
18
  0
LINE
  8
0
 10
0
 20
18
 11
0.391571
 21
17.9743
  0
LINE
  8
0
 10
0.391571
 20
17.9743
 11
0.776443
 21
17.8978
  0
LINE
  8
0
 10
0.776443
 20
17.8978
 11
1.14804
 21
17.7716
  0
LINE
  8
0
 10
1.14804
 20
17.7716
 11
1.5
 21
17.5981
  0
LINE
  8
0
 10
1.5
 20
17.5981
 11
1.82628
 21
17.3801
  0
LINE
  8
0
 10
1.82628
 20
17.3801
 11
2.12131
 21
17.1213
  0
LINE
  8
0
 10
2.12131
 20
17.1213
 11
2.38005
 21
16.8263
  0
LINE
  8
0
 10
2.38005
 20
16.8263
 11
2.59807
 21
16.5
  0
LINE
  8
0
 10
2.59807
 20
16.5
 11
2.77164
 21
16.148
  0
LINE
  8
0
 10
2.77164
 20
16.148
 11
2.89777
 21
15.7764
  0
LINE
  8
0
 10
2.89777
 20
15.7764
 11
2.97432
 21
15.3916
  0
LINE
  8
0
 10
2.97432
 20
15.3916
 11
3
 21
15
  0
LINE
  8
0
 10
3
 20
15
 11
2.97432
 21
14.6084
  0
LINE
  8
0
 10
2.97432
 20
14.6084
 11
2.89777
 21
14.2235
  0
LINE
  8
0
 10
2.89777
 20
14.2235
 11
2.77164
 21
13.8519
  0
LINE
  8
0
 10
2.77164
 20
13.8519
 11
2.59807
 21
13.5
  0
LINE
  8
0
 10
2.59807
 20
13.5
 11
2.38005
 21
13.1737
  0
LINE
  8
0
 10
2.38005
 20
13.1737
 11
2.12131
 21
12.8787
  0
LINE
  8
0
 10
2.12131
 20
12.8787
 11
1.82628
 21
12.6199
  0
LINE
  8
0
 10
1.82628
 20
12.6199
 11
1.5
 21
12.4019
  0
LINE
  8
0
 10
1.5
 20
12.4019
 11
1.14804
 21
12.2283
  0
LINE
  8
0
 10
1.14804
 20
12.2283
 11
0.776443
 21
12.1022
  0
LINE
  8
0
 10
0.776443
 20
12.1022
 11
0.391571
 21
12.0257
  0
LINE
  8
0
 10
0.391571
 20
12.0257
 11
0
 21
12
  0
LINE
  8
0
 10
0
 20
12
 11
-0.391571
 21
12.0257
  0
LINE
  8
0
 10
-9.64078
 20
7.95782
 11
-9.83322
 21
7.99611
  0
LINE
  8
0
 10
-9.83322
 20
7.99611
 11
-10.019
 21
8.05917
  0
LINE
  8
0
 10
-10.019
 20
8.05917
 11
-10.195
 21
8.14595
  0
LINE
  8
0
 10
-10.195
 20
8.14595
 11
-10.3581
 21
8.25496
  0
LINE
  8
0
 10
-10.3581
 20
8.25496
 11
-10.5056
 21
8.38434
  0
LINE
  8
0
 10
-10.5056
 20
8.38434
 11
-10.635
 21
8.53185
  0
LINE
  8
0
 10
-10.635
 20
8.53185
 11
-10.744
 21
8.69499
  0
LINE
  8
0
 10
-10.744
 20
8.69499
 11
-10.8308
 21
8.87097
  0
LINE
  8
0
 10
-10.8308
 20
8.87097
 11
-10.8939
 21
9.05676
  0
LINE
  8
0
 10
-10.8939
 20
9.05676
 11
-10.9322
 21
9.24921
  0
LINE
  8
0
 10
-10.9322
 20
9.24921
 11
-10.945
 21
9.44499
  0
LINE
  8
0
 10
-10.945
 20
9.44499
 11
-10.9322
 21
9.64078
  0
LINE
  8
0
 10
-10.9322
 20
9.64078
 11
-10.8939
 21
9.83322
  0
LINE
  8
0
 10
-10.8939
 20
9.83322
 11
-10.8308
 21
10.019
  0
LINE
  8
0
 10
-10.8308
 20
10.019
 11
-10.744
 21
10.195
  0
LINE
  8
0
 10
-10.744
 20
10.195
 11
-10.635
 21
10.3581
  0
LINE
  8
0
 10
-10.635
 20
10.3581
 11
-10.5056
 21
10.5056
  0
LINE
  8
0
 10
-10.5056
 20
10.5056
 11
-10.3581
 21
10.635
  0
LINE
  8
0
 10
-10.3581
 20
10.635
 11
-10.195
 21
10.744
  0
LINE
  8
0
 10
-10.195
 20
10.744
 11
-10.019
 21
10.8308
  0
LINE
  8
0
 10
-10.019
 20
10.8308
 11
-9.83322
 21
10.8939
  0
LINE
  8
0
 10
-9.83322
 20
10.8939
 11
-9.64078
 21
10.9322
  0
LINE
  8
0
 10
-9.64078
 20
10.9322
 11
-9.44499
 21
10.945
  0
LINE
  8
0
 10
-9.44499
 20
10.945
 11
-9.24921
 21
10.9322
  0
LINE
  8
0
 10
-9.24921
 20
10.9322
 11
-9.05676
 21
10.8939
  0
LINE
  8
0
 10
-9.05676
 20
10.8939
 11
-8.87097
 21
10.8308
  0
LINE
  8
0
 10
-8.87097
 20
10.8308
 11
-8.69499
 21
10.744
  0
LINE
  8
0
 10
-8.69499
 20
10.744
 11
-8.53185
 21
10.635
  0
LINE
  8
0
 10
-8.53185
 20
10.635
 11
-8.38434
 21
10.5056
  0
LINE
  8
0
 10
-8.38434
 20
10.5056
 11
-8.25496
 21
10.3581
  0
LINE
  8
0
 10
-8.25496
 20
10.3581
 11
-8.14595
 21
10.195
  0
LINE
  8
0
 10
-8.14595
 20
10.195
 11
-8.05917
 21
10.019
  0
LINE
  8
0
 10
-8.05917
 20
10.019
 11
-7.99611
 21
9.83322
  0
LINE
  8
0
 10
-7.99611
 20
9.83322
 11
-7.95782
 21
9.64078
  0
LINE
  8
0
 10
-7.95782
 20
9.64078
 11
-7.94499
 21
9.44499
  0
LINE
  8
0
 10
-7.94499
 20
9.44499
 11
-7.95782
 21
9.24921
  0
LINE
  8
0
 10
-7.95782
 20
9.24921
 11
-7.99611
 21
9.05676
  0
LINE
  8
0
 10
-7.99611
 20
9.05676
 11
-8.05917
 21
8.87097
  0
LINE
  8
0
 10
-8.05917
 20
8.87097
 11
-8.14595
 21
8.69499
  0
LINE
  8
0
 10
-8.14595
 20
8.69499
 11
-8.25496
 21
8.53185
  0
LINE
  8
0
 10
-8.25496
 20
8.53185
 11
-8.38434
 21
8.38434
  0
LINE
  8
0
 10
-8.38434
 20
8.38434
 11
-8.53185
 21
8.25496
  0
LINE
  8
0
 10
-8.53185
 20
8.25496
 11
-8.69499
 21
8.14595
  0
LINE
  8
0
 10
-8.69499
 20
8.14595
 11
-8.87097
 21
8.05917
  0
LINE
  8
0
 10
-8.87097
 20
8.05917
 11
-9.05676
 21
7.99611
  0
LINE
  8
0
 10
-9.05676
 20
7.99611
 11
-9.24921
 21
7.95782
  0
LINE
  8
0
 10
-9.24921
 20
7.95782
 11
-9.44499
 21
7.94499
  0
LINE
  8
0
 10
-9.44499
 20
7.94499
 11
-9.64078
 21
7.95782
  0
LINE
  8
0
 10
9.24921
 20
7.95782
 11
9.05676
 21
7.99611
  0
LINE
  8
0
 10
9.05676
 20
7.99611
 11
8.87097
 21
8.05917
  0
LINE
  8
0
 10
8.87097
 20
8.05917
 11
8.69499
 21
8.14595
  0
LINE
  8
0
 10
8.69499
 20
8.14595
 11
8.53185
 21
8.25496
  0
LINE
  8
0
 10
8.53185
 20
8.25496
 11
8.38434
 21
8.38434
  0
LINE
  8
0
 10
8.38434
 20
8.38434
 11
8.25496
 21
8.53185
  0
LINE
  8
0
 10
8.25496
 20
8.53185
 11
8.14595
 21
8.69499
  0
LINE
  8
0
 10
8.14595
 20
8.69499
 11
8.05917
 21
8.87097
  0
LINE
  8
0
 10
8.05917
 20
8.87097
 11
7.99611
 21
9.05676
  0
LINE
  8
0
 10
7.99611
 20
9.05676
 11
7.95782
 21
9.24921
  0
LINE
  8
0
 10
7.95782
 20
9.24921
 11
7.94499
 21
9.44499
  0
LINE
  8
0
 10
7.94499
 20
9.44499
 11
7.95782
 21
9.64078
  0
LINE
  8
0
 10
7.95782
 20
9.64078
 11
7.99611
 21
9.83322
  0
LINE
  8
0
 10
7.99611
 20
9.83322
 11
8.05917
 21
10.019
  0
LINE
  8
0
 10
8.05917
 20
10.019
 11
8.14595
 21
10.195
  0
LINE
  8
0
 10
8.14595
 20
10.195
 11
8.25496
 21
10.3581
  0
LINE
  8
0
 10
8.25496
 20
10.3581
 11
8.38434
 21
10.5056
  0
LINE
  8
0
 10
8.38434
 20
10.5056
 11
8.53185
 21
10.635
  0
LINE
  8
0
 10
8.53185
 20
10.635
 11
8.69499
 21
10.744
  0
LINE
  8
0
 10
8.69499
 20
10.744
 11
8.87097
 21
10.8308
  0
LINE
  8
0
 10
8.87097
 20
10.8308
 11
9.05676
 21
10.8939
  0
LINE
  8
0
 10
9.05676
 20
10.8939
 11
9.24921
 21
10.9322
  0
LINE
  8
0
 10
9.24921
 20
10.9322
 11
9.44499
 21
10.945
  0
LINE
  8
0
 10
9.44499
 20
10.945
 11
9.64078
 21
10.9322
  0
LINE
  8
0
 10
9.64078
 20
10.9322
 11
9.83322
 21
10.8939
  0
LINE
  8
0
 10
9.83322
 20
10.8939
 11
10.019
 21
10.8308
  0
LINE
  8
0
 10
10.019
 20
10.8308
 11
10.195
 21
10.744
  0
LINE
  8
0
 10
10.195
 20
10.744
 11
10.3581
 21
10.635
  0
LINE
  8
0
 10
10.3581
 20
10.635
 11
10.5056
 21
10.5056
  0
LINE
  8
0
 10
10.5056
 20
10.5056
 11
10.635
 21
10.3581
  0
LINE
  8
0
 10
10.635
 20
10.3581
 11
10.744
 21
10.195
  0
LINE
  8
0
 10
10.744
 20
10.195
 11
10.8308
 21
10.019
  0
LINE
  8
0
 10
10.8308
 20
10.019
 11
10.8939
 21
9.83322
  0
LINE
  8
0
 10
10.8939
 20
9.83322
 11
10.9322
 21
9.64078
  0
LINE
  8
0
 10
10.9322
 20
9.64078
 11
10.945
 21
9.44499
  0
LINE
  8
0
 10
10.945
 20
9.44499
 11
10.9322
 21
9.24921
  0
LINE
  8
0
 10
10.9322
 20
9.24921
 11
10.8939
 21
9.05676
  0
LINE
  8
0
 10
10.8939
 20
9.05676
 11
10.8308
 21
8.87097
  0
LINE
  8
0
 10
10.8308
 20
8.87097
 11
10.744
 21
8.69499
  0
LINE
  8
0
 10
10.744
 20
8.69499
 11
10.635
 21
8.53185
  0
LINE
  8
0
 10
10.635
 20
8.53185
 11
10.5056
 21
8.38434
  0
LINE
  8
0
 10
10.5056
 20
8.38434
 11
10.3581
 21
8.25496
  0
LINE
  8
0
 10
10.3581
 20
8.25496
 11
10.195
 21
8.14595
  0
LINE
  8
0
 10
10.195
 20
8.14595
 11
10.019
 21
8.05917
  0
LINE
  8
0
 10
10.019
 20
8.05917
 11
9.83322
 21
7.99611
  0
LINE
  8
0
 10
9.83322
 20
7.99611
 11
9.64078
 21
7.95782
  0
LINE
  8
0
 10
9.64078
 20
7.95782
 11
9.44499
 21
7.94499
  0
LINE
  8
0
 10
9.44499
 20
7.94499
 11
9.24921
 21
7.95782
  0
LINE
  8
0
 10
-0.391571
 20
-2.97432
 11
-0.776443
 21
-2.89777
  0
LINE
  8
0
 10
-0.776443
 20
-2.89777
 11
-1.14804
 21
-2.77164
  0
LINE
  8
0
 10
-1.14804
 20
-2.77164
 11
-1.5
 21
-2.59807
  0
LINE
  8
0
 10
-1.5
 20
-2.59807
 11
-1.82628
 21
-2.38005
  0
LINE
  8
0
 10
-1.82628
 20
-2.38005
 11
-2.12131
 21
-2.12131
  0
LINE
  8
0
 10
-2.12131
 20
-2.12131
 11
-2.38005
 21
-1.82628
  0
LINE
  8
0
 10
-2.38005
 20
-1.82628
 11
-2.59807
 21
-1.5
  0
LINE
  8
0
 10
-2.59807
 20
-1.5
 11
-2.77164
 21
-1.14804
  0
LINE
  8
0
 10
-2.77164
 20
-1.14804
 11
-2.89777
 21
-0.776443
  0
LINE
  8
0
 10
-2.89777
 20
-0.776443
 11
-2.97432
 21
-0.391571
  0
LINE
  8
0
 10
-2.97432
 20
-0.391571
 11
-3
 21
0
  0
LINE
  8
0
 10
-3
 20
0
 11
-2.97432
 21
0.391571
  0
LINE
  8
0
 10
-2.97432
 20
0.391571
 11
-2.89777
 21
0.776443
  0
LINE
  8
0
 10
-2.89777
 20
0.776443
 11
-2.77164
 21
1.14804
  0
LINE
  8
0
 10
-2.77164
 20
1.14804
 11
-2.59807
 21
1.5
  0
LINE
  8
0
 10
-2.59807
 20
1.5
 11
-2.38005
 21
1.82628
  0
LINE
  8
0
 10
-2.38005
 20
1.82628
 11
-2.12131
 21
2.12131
  0
LINE
  8
0
 10
-2.12131
 20
2.12131
 11
-1.82628
 21
2.38005
  0
LINE
  8
0
 10
-1.82628
 20
2.38005
 11
-1.5
 21
2.59807
  0
LINE
  8
0
 10
-1.5
 20
2.59807
 11
-1.14804
 21
2.77164
  0
LINE
  8
0
 10
-1.14804
 20
2.77164
 11
-0.776443
 21
2.89777
  0
LINE
  8
0
 10
-0.776443
 20
2.89777
 11
-0.391571
 21
2.97432
  0
LINE
  8
0
 10
-0.391571
 20
2.97432
 11
0
 21
3
  0
LINE
  8
0
 10
0
 20
3
 11
0.391571
 21
2.97432
  0
LINE
  8
0
 10
0.391571
 20
2.97432
 11
0.776443
 21
2.89777
  0
LINE
  8
0
 10
0.776443
 20
2.89777
 11
1.14804
 21
2.77164
  0
LINE
  8
0
 10
1.14804
 20
2.77164
 11
1.5
 21
2.59807
  0
LINE
  8
0
 10
1.5
 20
2.59807
 11
1.82628
 21
2.38005
  0
LINE
  8
0
 10
1.82628
 20
2.38005
 11
2.12131
 21
2.12131
  0
LINE
  8
0
 10
2.12131
 20
2.12131
 11
2.38005
 21
1.82628
  0
LINE
  8
0
 10
2.38005
 20
1.82628
 11
2.59807
 21
1.5
  0
LINE
  8
0
 10
2.59807
 20
1.5
 11
2.77164
 21
1.14804
  0
LINE
  8
0
 10
2.77164
 20
1.14804
 11
2.89777
 21
0.776443
  0
LINE
  8
0
 10
2.89777
 20
0.776443
 11
2.97432
 21
0.391571
  0
LINE
  8
0
 10
2.97432
 20
0.391571
 11
3
 21
0
  0
LINE
  8
0
 10
3
 20
0
 11
2.97432
 21
-0.391571
  0
LINE
  8
0
 10
2.97432
 20
-0.391571
 11
2.89777
 21
-0.776443
  0
LINE
  8
0
 10
2.89777
 20
-0.776443
 11
2.77164
 21
-1.14804
  0
LINE
  8
0
 10
2.77164
 20
-1.14804
 11
2.59807
 21
-1.5
  0
LINE
  8
0
 10
2.59807
 20
-1.5
 11
2.38005
 21
-1.82628
  0
LINE
  8
0
 10
2.38005
 20
-1.82628
 11
2.12131
 21
-2.12131
  0
LINE
  8
0
 10
2.12131
 20
-2.12131
 11
1.82628
 21
-2.38005
  0
LINE
  8
0
 10
1.82628
 20
-2.38005
 11
1.5
 21
-2.59807
  0
LINE
  8
0
 10
1.5
 20
-2.59807
 11
1.14804
 21
-2.77164
  0
LINE
  8
0
 10
1.14804
 20
-2.77164
 11
0.776443
 21
-2.89777
  0
LINE
  8
0
 10
0.776443
 20
-2.89777
 11
0.391571
 21
-2.97432
  0
LINE
  8
0
 10
0.391571
 20
-2.97432
 11
0
 21
-3
  0
LINE
  8
0
 10
0
 20
-3
 11
-0.391571
 21
-2.97432
  0
LINE
  8
0
 10
14.6084
 20
-2.97432
 11
14.2235
 21
-2.89777
  0
LINE
  8
0
 10
14.2235
 20
-2.89777
 11
13.8519
 21
-2.77164
  0
LINE
  8
0
 10
13.8519
 20
-2.77164
 11
13.5
 21
-2.59807
  0
LINE
  8
0
 10
13.5
 20
-2.59807
 11
13.1737
 21
-2.38005
  0
LINE
  8
0
 10
13.1737
 20
-2.38005
 11
12.8787
 21
-2.12131
  0
LINE
  8
0
 10
12.8787
 20
-2.12131
 11
12.6199
 21
-1.82628
  0
LINE
  8
0
 10
12.6199
 20
-1.82628
 11
12.4019
 21
-1.5
  0
LINE
  8
0
 10
12.4019
 20
-1.5
 11
12.2283
 21
-1.14804
  0
LINE
  8
0
 10
12.2283
 20
-1.14804
 11
12.1022
 21
-0.776443
  0
LINE
  8
0
 10
12.1022
 20
-0.776443
 11
12.0257
 21
-0.391571
  0
LINE
  8
0
 10
12.0257
 20
-0.391571
 11
12
 21
0
  0
LINE
  8
0
 10
12
 20
0
 11
12.0257
 21
0.391571
  0
LINE
  8
0
 10
12.0257
 20
0.391571
 11
12.1022
 21
0.776443
  0
LINE
  8
0
 10
12.1022
 20
0.776443
 11
12.2283
 21
1.14804
  0
LINE
  8
0
 10
12.2283
 20
1.14804
 11
12.4019
 21
1.5
  0
LINE
  8
0
 10
12.4019
 20
1.5
 11
12.6199
 21
1.82628
  0
LINE
  8
0
 10
12.6199
 20
1.82628
 11
12.8787
 21
2.12131
  0
LINE
  8
0
 10
12.8787
 20
2.12131
 11
13.1737
 21
2.38005
  0
LINE
  8
0
 10
13.1737
 20
2.38005
 11
13.5
 21
2.59807
  0
LINE
  8
0
 10
13.5
 20
2.59807
 11
13.8519
 21
2.77164
  0
LINE
  8
0
 10
13.8519
 20
2.77164
 11
14.2235
 21
2.89777
  0
LINE
  8
0
 10
14.2235
 20
2.89777
 11
14.6084
 21
2.97432
  0
LINE
  8
0
 10
14.6084
 20
2.97432
 11
15
 21
3
  0
LINE
  8
0
 10
15
 20
3
 11
15.3916
 21
2.97432
  0
LINE
  8
0
 10
15.3916
 20
2.97432
 11
15.7764
 21
2.89777
  0
LINE
  8
0
 10
15.7764
 20
2.89777
 11
16.148
 21
2.77164
  0
LINE
  8
0
 10
16.148
 20
2.77164
 11
16.5
 21
2.59807
  0
LINE
  8
0
 10
16.5
 20
2.59807
 11
16.8263
 21
2.38005
  0
LINE
  8
0
 10
16.8263
 20
2.38005
 11
17.1213
 21
2.12131
  0
LINE
  8
0
 10
17.1213
 20
2.12131
 11
17.3801
 21
1.82628
  0
LINE
  8
0
 10
17.3801
 20
1.82628
 11
17.5981
 21
1.5
  0
LINE
  8
0
 10
17.5981
 20
1.5
 11
17.7716
 21
1.14804
  0
LINE
  8
0
 10
17.7716
 20
1.14804
 11
17.8978
 21
0.776443
  0
LINE
  8
0
 10
17.8978
 20
0.776443
 11
17.9743
 21
0.391571
  0
LINE
  8
0
 10
17.9743
 20
0.391571
 11
18
 21
0
  0
LINE
  8
0
 10
18
 20
0
 11
17.9743
 21
-0.391571
  0
LINE
  8
0
 10
17.9743
 20
-0.391571
 11
17.8978
 21
-0.776443
  0
LINE
  8
0
 10
17.8978
 20
-0.776443
 11
17.7716
 21
-1.14804
  0
LINE
  8
0
 10
17.7716
 20
-1.14804
 11
17.5981
 21
-1.5
  0
LINE
  8
0
 10
17.5981
 20
-1.5
 11
17.3801
 21
-1.82628
  0
LINE
  8
0
 10
17.3801
 20
-1.82628
 11
17.1213
 21
-2.12131
  0
LINE
  8
0
 10
17.1213
 20
-2.12131
 11
16.8263
 21
-2.38005
  0
LINE
  8
0
 10
16.8263
 20
-2.38005
 11
16.5
 21
-2.59807
  0
LINE
  8
0
 10
16.5
 20
-2.59807
 11
16.148
 21
-2.77164
  0
LINE
  8
0
 10
16.148
 20
-2.77164
 11
15.7764
 21
-2.89777
  0
LINE
  8
0
 10
15.7764
 20
-2.89777
 11
15.3916
 21
-2.97432
  0
LINE
  8
0
 10
15.3916
 20
-2.97432
 11
15
 21
-3
  0
LINE
  8
0
 10
15
 20
-3
 11
14.6084
 21
-2.97432
  0
LINE
  8
0
 10
-15.3916
 20
-2.97432
 11
-15.7764
 21
-2.89777
  0
LINE
  8
0
 10
-15.7764
 20
-2.89777
 11
-16.148
 21
-2.77164
  0
LINE
  8
0
 10
-16.148
 20
-2.77164
 11
-16.5
 21
-2.59807
  0
LINE
  8
0
 10
-16.5
 20
-2.59807
 11
-16.8263
 21
-2.38005
  0
LINE
  8
0
 10
-16.8263
 20
-2.38005
 11
-17.1213
 21
-2.12131
  0
LINE
  8
0
 10
-17.1213
 20
-2.12131
 11
-17.3801
 21
-1.82628
  0
LINE
  8
0
 10
-17.3801
 20
-1.82628
 11
-17.5981
 21
-1.5
  0
LINE
  8
0
 10
-17.5981
 20
-1.5
 11
-17.7716
 21
-1.14804
  0
LINE
  8
0
 10
-17.7716
 20
-1.14804
 11
-17.8978
 21
-0.776443
  0
LINE
  8
0
 10
-17.8978
 20
-0.776443
 11
-17.9743
 21
-0.391571
  0
LINE
  8
0
 10
-17.9743
 20
-0.391571
 11
-18
 21
0
  0
LINE
  8
0
 10
-18
 20
0
 11
-17.9743
 21
0.391571
  0
LINE
  8
0
 10
-17.9743
 20
0.391571
 11
-17.8978
 21
0.776443
  0
LINE
  8
0
 10
-17.8978
 20
0.776443
 11
-17.7716
 21
1.14804
  0
LINE
  8
0
 10
-17.7716
 20
1.14804
 11
-17.5981
 21
1.5
  0
LINE
  8
0
 10
-17.5981
 20
1.5
 11
-17.3801
 21
1.82628
  0
LINE
  8
0
 10
-17.3801
 20
1.82628
 11
-17.1213
 21
2.12131
  0
LINE
  8
0
 10
-17.1213
 20
2.12131
 11
-16.8263
 21
2.38005
  0
LINE
  8
0
 10
-16.8263
 20
2.38005
 11
-16.5
 21
2.59807
  0
LINE
  8
0
 10
-16.5
 20
2.59807
 11
-16.148
 21
2.77164
  0
LINE
  8
0
 10
-16.148
 20
2.77164
 11
-15.7764
 21
2.89777
  0
LINE
  8
0
 10
-15.7764
 20
2.89777
 11
-15.3916
 21
2.97432
  0
LINE
  8
0
 10
-15.3916
 20
2.97432
 11
-15
 21
3
  0
LINE
  8
0
 10
-15
 20
3
 11
-14.6084
 21
2.97432
  0
LINE
  8
0
 10
-14.6084
 20
2.97432
 11
-14.2235
 21
2.89777
  0
LINE
  8
0
 10
-14.2235
 20
2.89777
 11
-13.8519
 21
2.77164
  0
LINE
  8
0
 10
-13.8519
 20
2.77164
 11
-13.5
 21
2.59807
  0
LINE
  8
0
 10
-13.5
 20
2.59807
 11
-13.1737
 21
2.38005
  0
LINE
  8
0
 10
-13.1737
 20
2.38005
 11
-12.8787
 21
2.12131
  0
LINE
  8
0
 10
-12.8787
 20
2.12131
 11
-12.6199
 21
1.82628
  0
LINE
  8
0
 10
-12.6199
 20
1.82628
 11
-12.4019
 21
1.5
  0
LINE
  8
0
 10
-12.4019
 20
1.5
 11
-12.2283
 21
1.14804
  0
LINE
  8
0
 10
-12.2283
 20
1.14804
 11
-12.1022
 21
0.776443
  0
LINE
  8
0
 10
-12.1022
 20
0.776443
 11
-12.0257
 21
0.391571
  0
LINE
  8
0
 10
-12.0257
 20
0.391571
 11
-12
 21
0
  0
LINE
  8
0
 10
-12
 20
0
 11
-12.0257
 21
-0.391571
  0
LINE
  8
0
 10
-12.0257
 20
-0.391571
 11
-12.1022
 21
-0.776443
  0
LINE
  8
0
 10
-12.1022
 20
-0.776443
 11
-12.2283
 21
-1.14804
  0
LINE
  8
0
 10
-12.2283
 20
-1.14804
 11
-12.4019
 21
-1.5
  0
LINE
  8
0
 10
-12.4019
 20
-1.5
 11
-12.6199
 21
-1.82628
  0
LINE
  8
0
 10
-12.6199
 20
-1.82628
 11
-12.8787
 21
-2.12131
  0
LINE
  8
0
 10
-12.8787
 20
-2.12131
 11
-13.1737
 21
-2.38005
  0
LINE
  8
0
 10
-13.1737
 20
-2.38005
 11
-13.5
 21
-2.59807
  0
LINE
  8
0
 10
-13.5
 20
-2.59807
 11
-13.8519
 21
-2.77164
  0
LINE
  8
0
 10
-13.8519
 20
-2.77164
 11
-14.2235
 21
-2.89777
  0
LINE
  8
0
 10
-14.2235
 20
-2.89777
 11
-14.6084
 21
-2.97432
  0
LINE
  8
0
 10
-14.6084
 20
-2.97432
 11
-15
 21
-3
  0
LINE
  8
0
 10
-15
 20
-3
 11
-15.3916
 21
-2.97432
  0
LINE
  8
0
 10
-9.64078
 20
-10.9322
 11
-9.83322
 21
-10.8939
  0
LINE
  8
0
 10
-9.83322
 20
-10.8939
 11
-10.019
 21
-10.8308
  0
LINE
  8
0
 10
-10.019
 20
-10.8308
 11
-10.195
 21
-10.744
  0
LINE
  8
0
 10
-10.195
 20
-10.744
 11
-10.3581
 21
-10.635
  0
LINE
  8
0
 10
-10.3581
 20
-10.635
 11
-10.5056
 21
-10.5056
  0
LINE
  8
0
 10
-10.5056
 20
-10.5056
 11
-10.635
 21
-10.3581
  0
LINE
  8
0
 10
-10.635
 20
-10.3581
 11
-10.744
 21
-10.195
  0
LINE
  8
0
 10
-10.744
 20
-10.195
 11
-10.8308
 21
-10.019
  0
LINE
  8
0
 10
-10.8308
 20
-10.019
 11
-10.8939
 21
-9.83322
  0
LINE
  8
0
 10
-10.8939
 20
-9.83322
 11
-10.9322
 21
-9.64078
  0
LINE
  8
0
 10
-10.9322
 20
-9.64078
 11
-10.945
 21
-9.44499
  0
LINE
  8
0
 10
-10.945
 20
-9.44499
 11
-10.9322
 21
-9.24921
  0
LINE
  8
0
 10
-10.9322
 20
-9.24921
 11
-10.8939
 21
-9.05676
  0
LINE
  8
0
 10
-10.8939
 20
-9.05676
 11
-10.8308
 21
-8.87097
  0
LINE
  8
0
 10
-10.8308
 20
-8.87097
 11
-10.744
 21
-8.69499
  0
LINE
  8
0
 10
-10.744
 20
-8.69499
 11
-10.635
 21
-8.53185
  0
LINE
  8
0
 10
-10.635
 20
-8.53185
 11
-10.5056
 21
-8.38434
  0
LINE
  8
0
 10
-10.5056
 20
-8.38434
 11
-10.3581
 21
-8.25496
  0
LINE
  8
0
 10
-10.3581
 20
-8.25496
 11
-10.195
 21
-8.14595
  0
LINE
  8
0
 10
-10.195
 20
-8.14595
 11
-10.019
 21
-8.05917
  0
LINE
  8
0
 10
-10.019
 20
-8.05917
 11
-9.83322
 21
-7.99611
  0
LINE
  8
0
 10
-9.83322
 20
-7.99611
 11
-9.64078
 21
-7.95782
  0
LINE
  8
0
 10
-9.64078
 20
-7.95782
 11
-9.44499
 21
-7.94499
  0
LINE
  8
0
 10
-9.44499
 20
-7.94499
 11
-9.24921
 21
-7.95782
  0
LINE
  8
0
 10
-9.24921
 20
-7.95782
 11
-9.05676
 21
-7.99611
  0
LINE
  8
0
 10
-9.05676
 20
-7.99611
 11
-8.87097
 21
-8.05917
  0
LINE
  8
0
 10
-8.87097
 20
-8.05917
 11
-8.69499
 21
-8.14595
  0
LINE
  8
0
 10
-8.69499
 20
-8.14595
 11
-8.53185
 21
-8.25496
  0
LINE
  8
0
 10
-8.53185
 20
-8.25496
 11
-8.38434
 21
-8.38434
  0
LINE
  8
0
 10
-8.38434
 20
-8.38434
 11
-8.25496
 21
-8.53185
  0
LINE
  8
0
 10
-8.25496
 20
-8.53185
 11
-8.14595
 21
-8.69499
  0
LINE
  8
0
 10
-8.14595
 20
-8.69499
 11
-8.05917
 21
-8.87097
  0
LINE
  8
0
 10
-8.05917
 20
-8.87097
 11
-7.99611
 21
-9.05676
  0
LINE
  8
0
 10
-7.99611
 20
-9.05676
 11
-7.95782
 21
-9.24921
  0
LINE
  8
0
 10
-7.95782
 20
-9.24921
 11
-7.94499
 21
-9.44499
  0
LINE
  8
0
 10
-7.94499
 20
-9.44499
 11
-7.95782
 21
-9.64078
  0
LINE
  8
0
 10
-7.95782
 20
-9.64078
 11
-7.99611
 21
-9.83322
  0
LINE
  8
0
 10
-7.99611
 20
-9.83322
 11
-8.05917
 21
-10.019
  0
LINE
  8
0
 10
-8.05917
 20
-10.019
 11
-8.14595
 21
-10.195
  0
LINE
  8
0
 10
-8.14595
 20
-10.195
 11
-8.25496
 21
-10.3581
  0
LINE
  8
0
 10
-8.25496
 20
-10.3581
 11
-8.38434
 21
-10.5056
  0
LINE
  8
0
 10
-8.38434
 20
-10.5056
 11
-8.53185
 21
-10.635
  0
LINE
  8
0
 10
-8.53185
 20
-10.635
 11
-8.69499
 21
-10.744
  0
LINE
  8
0
 10
-8.69499
 20
-10.744
 11
-8.87097
 21
-10.8308
  0
LINE
  8
0
 10
-8.87097
 20
-10.8308
 11
-9.05676
 21
-10.8939
  0
LINE
  8
0
 10
-9.05676
 20
-10.8939
 11
-9.24921
 21
-10.9322
  0
LINE
  8
0
 10
-9.24921
 20
-10.9322
 11
-9.44499
 21
-10.945
  0
LINE
  8
0
 10
-9.44499
 20
-10.945
 11
-9.64078
 21
-10.9322
  0
LINE
  8
0
 10
9.24921
 20
-10.9322
 11
9.05676
 21
-10.8939
  0
LINE
  8
0
 10
9.05676
 20
-10.8939
 11
8.87097
 21
-10.8308
  0
LINE
  8
0
 10
8.87097
 20
-10.8308
 11
8.69499
 21
-10.744
  0
LINE
  8
0
 10
8.69499
 20
-10.744
 11
8.53185
 21
-10.635
  0
LINE
  8
0
 10
8.53185
 20
-10.635
 11
8.38434
 21
-10.5056
  0
LINE
  8
0
 10
8.38434
 20
-10.5056
 11
8.25496
 21
-10.3581
  0
LINE
  8
0
 10
8.25496
 20
-10.3581
 11
8.14595
 21
-10.195
  0
LINE
  8
0
 10
8.14595
 20
-10.195
 11
8.05917
 21
-10.019
  0
LINE
  8
0
 10
8.05917
 20
-10.019
 11
7.99611
 21
-9.83322
  0
LINE
  8
0
 10
7.99611
 20
-9.83322
 11
7.95782
 21
-9.64078
  0
LINE
  8
0
 10
7.95782
 20
-9.64078
 11
7.94499
 21
-9.44499
  0
LINE
  8
0
 10
7.94499
 20
-9.44499
 11
7.95782
 21
-9.24921
  0
LINE
  8
0
 10
7.95782
 20
-9.24921
 11
7.99611
 21
-9.05676
  0
LINE
  8
0
 10
7.99611
 20
-9.05676
 11
8.05917
 21
-8.87097
  0
LINE
  8
0
 10
8.05917
 20
-8.87097
 11
8.14595
 21
-8.69499
  0
LINE
  8
0
 10
8.14595
 20
-8.69499
 11
8.25496
 21
-8.53185
  0
LINE
  8
0
 10
8.25496
 20
-8.53185
 11
8.38434
 21
-8.38434
  0
LINE
  8
0
 10
8.38434
 20
-8.38434
 11
8.53185
 21
-8.25496
  0
LINE
  8
0
 10
8.53185
 20
-8.25496
 11
8.69499
 21
-8.14595
  0
LINE
  8
0
 10
8.69499
 20
-8.14595
 11
8.87097
 21
-8.05917
  0
LINE
  8
0
 10
8.87097
 20
-8.05917
 11
9.05676
 21
-7.99611
  0
LINE
  8
0
 10
9.05676
 20
-7.99611
 11
9.24921
 21
-7.95782
  0
LINE
  8
0
 10
9.24921
 20
-7.95782
 11
9.44499
 21
-7.94499
  0
LINE
  8
0
 10
9.44499
 20
-7.94499
 11
9.64078
 21
-7.95782
  0
LINE
  8
0
 10
9.64078
 20
-7.95782
 11
9.83322
 21
-7.99611
  0
LINE
  8
0
 10
9.83322
 20
-7.99611
 11
10.019
 21
-8.05917
  0
LINE
  8
0
 10
10.019
 20
-8.05917
 11
10.195
 21
-8.14595
  0
LINE
  8
0
 10
10.195
 20
-8.14595
 11
10.3581
 21
-8.25496
  0
LINE
  8
0
 10
10.3581
 20
-8.25496
 11
10.5056
 21
-8.38434
  0
LINE
  8
0
 10
10.5056
 20
-8.38434
 11
10.635
 21
-8.53185
  0
LINE
  8
0
 10
10.635
 20
-8.53185
 11
10.744
 21
-8.69499
  0
LINE
  8
0
 10
10.744
 20
-8.69499
 11
10.8308
 21
-8.87097
  0
LINE
  8
0
 10
10.8308
 20
-8.87097
 11
10.8939
 21
-9.05676
  0
LINE
  8
0
 10
10.8939
 20
-9.05676
 11
10.9322
 21
-9.24921
  0
LINE
  8
0
 10
10.9322
 20
-9.24921
 11
10.945
 21
-9.44499
  0
LINE
  8
0
 10
10.945
 20
-9.44499
 11
10.9322
 21
-9.64078
  0
LINE
  8
0
 10
10.9322
 20
-9.64078
 11
10.8939
 21
-9.83322
  0
LINE
  8
0
 10
10.8939
 20
-9.83322
 11
10.8308
 21
-10.019
  0
LINE
  8
0
 10
10.8308
 20
-10.019
 11
10.744
 21
-10.195
  0
LINE
  8
0
 10
10.744
 20
-10.195
 11
10.635
 21
-10.3581
  0
LINE
  8
0
 10
10.635
 20
-10.3581
 11
10.5056
 21
-10.5056
  0
LINE
  8
0
 10
10.5056
 20
-10.5056
 11
10.3581
 21
-10.635
  0
LINE
  8
0
 10
10.3581
 20
-10.635
 11
10.195
 21
-10.744
  0
LINE
  8
0
 10
10.195
 20
-10.744
 11
10.019
 21
-10.8308
  0
LINE
  8
0
 10
10.019
 20
-10.8308
 11
9.83322
 21
-10.8939
  0
LINE
  8
0
 10
9.83322
 20
-10.8939
 11
9.64078
 21
-10.9322
  0
LINE
  8
0
 10
9.64078
 20
-10.9322
 11
9.44499
 21
-10.945
  0
LINE
  8
0
 10
9.44499
 20
-10.945
 11
9.24921
 21
-10.9322
  0
LINE
  8
0
 10
-0.391571
 20
-17.9743
 11
-0.776443
 21
-17.8978
  0
LINE
  8
0
 10
-0.776443
 20
-17.8978
 11
-1.14804
 21
-17.7716
  0
LINE
  8
0
 10
-1.14804
 20
-17.7716
 11
-1.5
 21
-17.5981
  0
LINE
  8
0
 10
-1.5
 20
-17.5981
 11
-1.82628
 21
-17.3801
  0
LINE
  8
0
 10
-1.82628
 20
-17.3801
 11
-2.12131
 21
-17.1213
  0
LINE
  8
0
 10
-2.12131
 20
-17.1213
 11
-2.38005
 21
-16.8263
  0
LINE
  8
0
 10
-2.38005
 20
-16.8263
 11
-2.59807
 21
-16.5
  0
LINE
  8
0
 10
-2.59807
 20
-16.5
 11
-2.77164
 21
-16.148
  0
LINE
  8
0
 10
-2.77164
 20
-16.148
 11
-2.89777
 21
-15.7764
  0
LINE
  8
0
 10
-2.89777
 20
-15.7764
 11
-2.97432
 21
-15.3916
  0
LINE
  8
0
 10
-2.97432
 20
-15.3916
 11
-3
 21
-15
  0
LINE
  8
0
 10
-3
 20
-15
 11
-2.97432
 21
-14.6084
  0
LINE
  8
0
 10
-2.97432
 20
-14.6084
 11
-2.89777
 21
-14.2235
  0
LINE
  8
0
 10
-2.89777
 20
-14.2235
 11
-2.77164
 21
-13.8519
  0
LINE
  8
0
 10
-2.77164
 20
-13.8519
 11
-2.59807
 21
-13.5
  0
LINE
  8
0
 10
-2.59807
 20
-13.5
 11
-2.38005
 21
-13.1737
  0
LINE
  8
0
 10
-2.38005
 20
-13.1737
 11
-2.12131
 21
-12.8787
  0
LINE
  8
0
 10
-2.12131
 20
-12.8787
 11
-1.82628
 21
-12.6199
  0
LINE
  8
0
 10
-1.82628
 20
-12.6199
 11
-1.5
 21
-12.4019
  0
LINE
  8
0
 10
-1.5
 20
-12.4019
 11
-1.14804
 21
-12.2283
  0
LINE
  8
0
 10
-1.14804
 20
-12.2283
 11
-0.776443
 21
-12.1022
  0
LINE
  8
0
 10
-0.776443
 20
-12.1022
 11
-0.391571
 21
-12.0257
  0
LINE
  8
0
 10
-0.391571
 20
-12.0257
 11
0
 21
-12
  0
LINE
  8
0
 10
0
 20
-12
 11
0.391571
 21
-12.0257
  0
LINE
  8
0
 10
0.391571
 20
-12.0257
 11
0.776443
 21
-12.1022
  0
LINE
  8
0
 10
0.776443
 20
-12.1022
 11
1.14804
 21
-12.2283
  0
LINE
  8
0
 10
1.14804
 20
-12.2283
 11
1.5
 21
-12.4019
  0
LINE
  8
0
 10
1.5
 20
-12.4019
 11
1.82628
 21
-12.6199
  0
LINE
  8
0
 10
1.82628
 20
-12.6199
 11
2.12131
 21
-12.8787
  0
LINE
  8
0
 10
2.12131
 20
-12.8787
 11
2.38005
 21
-13.1737
  0
LINE
  8
0
 10
2.38005
 20
-13.1737
 11
2.59807
 21
-13.5
  0
LINE
  8
0
 10
2.59807
 20
-13.5
 11
2.77164
 21
-13.8519
  0
LINE
  8
0
 10
2.77164
 20
-13.8519
 11
2.89777
 21
-14.2235
  0
LINE
  8
0
 10
2.89777
 20
-14.2235
 11
2.97432
 21
-14.6084
  0
LINE
  8
0
 10
2.97432
 20
-14.6084
 11
3
 21
-15
  0
LINE
  8
0
 10
3
 20
-15
 11
2.97432
 21
-15.3916
  0
LINE
  8
0
 10
2.97432
 20
-15.3916
 11
2.89777
 21
-15.7764
  0
LINE
  8
0
 10
2.89777
 20
-15.7764
 11
2.77164
 21
-16.148
  0
LINE
  8
0
 10
2.77164
 20
-16.148
 11
2.59807
 21
-16.5
  0
LINE
  8
0
 10
2.59807
 20
-16.5
 11
2.38005
 21
-16.8263
  0
LINE
  8
0
 10
2.38005
 20
-16.8263
 11
2.12131
 21
-17.1213
  0
LINE
  8
0
 10
2.12131
 20
-17.1213
 11
1.82628
 21
-17.3801
  0
LINE
  8
0
 10
1.82628
 20
-17.3801
 11
1.5
 21
-17.5981
  0
LINE
  8
0
 10
1.5
 20
-17.5981
 11
1.14804
 21
-17.7716
  0
LINE
  8
0
 10
1.14804
 20
-17.7716
 11
0.776443
 21
-17.8978
  0
LINE
  8
0
 10
0.776443
 20
-17.8978
 11
0.391571
 21
-17.9743
  0
LINE
  8
0
 10
0.391571
 20
-17.9743
 11
0
 21
-18
  0
LINE
  8
0
 10
0
 20
-18
 11
-0.391571
 21
-17.9743
  0
LINE
  8
0
 10
-25.1958
 20
23.5128
 11
-25.3882
 21
23.5511
  0
LINE
  8
0
 10
-25.3882
 20
23.5511
 11
-25.574
 21
23.6142
  0
LINE
  8
0
 10
-25.574
 20
23.6142
 11
-25.75
 21
23.701
  0
LINE
  8
0
 10
-25.75
 20
23.701
 11
-25.9131
 21
23.81
  0
LINE
  8
0
 10
-25.9131
 20
23.81
 11
-26.0607
 21
23.9393
  0
LINE
  8
0
 10
-26.0607
 20
23.9393
 11
-26.19
 21
24.0869
  0
LINE
  8
0
 10
-26.19
 20
24.0869
 11
-26.299
 21
24.25
  0
LINE
  8
0
 10
-26.299
 20
24.25
 11
-26.3858
 21
24.426
  0
LINE
  8
0
 10
-26.3858
 20
24.426
 11
-26.4489
 21
24.6118
  0
LINE
  8
0
 10
-26.4489
 20
24.6118
 11
-26.4872
 21
24.8042
  0
LINE
  8
0
 10
-26.4872
 20
24.8042
 11
-26.5
 21
25
  0
LINE
  8
0
 10
-26.5
 20
25
 11
-26.4872
 21
25.1958
  0
LINE
  8
0
 10
-26.4872
 20
25.1958
 11
-26.4489
 21
25.3882
  0
LINE
  8
0
 10
-26.4489
 20
25.3882
 11
-26.3858
 21
25.574
  0
LINE
  8
0
 10
-26.3858
 20
25.574
 11
-26.299
 21
25.75
  0
LINE
  8
0
 10
-26.299
 20
25.75
 11
-26.19
 21
25.9131
  0
LINE
  8
0
 10
-26.19
 20
25.9131
 11
-26.0607
 21
26.0607
  0
LINE
  8
0
 10
-26.0607
 20
26.0607
 11
-25.9131
 21
26.19
  0
LINE
  8
0
 10
-25.9131
 20
26.19
 11
-25.75
 21
26.299
  0
LINE
  8
0
 10
-25.75
 20
26.299
 11
-25.574
 21
26.3858
  0
LINE
  8
0
 10
-25.574
 20
26.3858
 11
-25.3882
 21
26.4489
  0
LINE
  8
0
 10
-25.3882
 20
26.4489
 11
-25.1958
 21
26.4872
  0
LINE
  8
0
 10
-25.1958
 20
26.4872
 11
-25
 21
26.5
  0
LINE
  8
0
 10
-25
 20
26.5
 11
-24.8042
 21
26.4872
  0
LINE
  8
0
 10
-24.8042
 20
26.4872
 11
-24.6118
 21
26.4489
  0
LINE
  8
0
 10
-24.6118
 20
26.4489
 11
-24.426
 21
26.3858
  0
LINE
  8
0
 10
-24.426
 20
26.3858
 11
-24.25
 21
26.299
  0
LINE
  8
0
 10
-24.25
 20
26.299
 11
-24.0869
 21
26.19
  0
LINE
  8
0
 10
-24.0869
 20
26.19
 11
-23.9393
 21
26.0607
  0
LINE
  8
0
 10
-23.9393
 20
26.0607
 11
-23.81
 21
25.9131
  0
LINE
  8
0
 10
-23.81
 20
25.9131
 11
-23.701
 21
25.75
  0
LINE
  8
0
 10
-23.701
 20
25.75
 11
-23.6142
 21
25.574
  0
LINE
  8
0
 10
-23.6142
 20
25.574
 11
-23.5511
 21
25.3882
  0
LINE
  8
0
 10
-23.5511
 20
25.3882
 11
-23.5128
 21
25.1958
  0
LINE
  8
0
 10
-23.5128
 20
25.1958
 11
-23.5
 21
25
  0
LINE
  8
0
 10
-23.5
 20
25
 11
-23.5128
 21
24.8042
  0
LINE
  8
0
 10
-23.5128
 20
24.8042
 11
-23.5511
 21
24.6118
  0
LINE
  8
0
 10
-23.5511
 20
24.6118
 11
-23.6142
 21
24.426
  0
LINE
  8
0
 10
-23.6142
 20
24.426
 11
-23.701
 21
24.25
  0
LINE
  8
0
 10
-23.701
 20
24.25
 11
-23.81
 21
24.0869
  0
LINE
  8
0
 10
-23.81
 20
24.0869
 11
-23.9393
 21
23.9393
  0
LINE
  8
0
 10
-23.9393
 20
23.9393
 11
-24.0869
 21
23.81
  0
LINE
  8
0
 10
-24.0869
 20
23.81
 11
-24.25
 21
23.701
  0
LINE
  8
0
 10
-24.25
 20
23.701
 11
-24.426
 21
23.6142
  0
LINE
  8
0
 10
-24.426
 20
23.6142
 11
-24.6118
 21
23.5511
  0
LINE
  8
0
 10
-24.6118
 20
23.5511
 11
-24.8042
 21
23.5128
  0
LINE
  8
0
 10
-24.8042
 20
23.5128
 11
-25
 21
23.5
  0
LINE
  8
0
 10
-25
 20
23.5
 11
-25.1958
 21
23.5128
  0
LINE
  8
0
 10
24.8042
 20
23.5128
 11
24.6118
 21
23.5511
  0
LINE
  8
0
 10
24.6118
 20
23.5511
 11
24.426
 21
23.6142
  0
LINE
  8
0
 10
24.426
 20
23.6142
 11
24.25
 21
23.701
  0
LINE
  8
0
 10
24.25
 20
23.701
 11
24.0869
 21
23.81
  0
LINE
  8
0
 10
24.0869
 20
23.81
 11
23.9393
 21
23.9393
  0
LINE
  8
0
 10
23.9393
 20
23.9393
 11
23.81
 21
24.0869
  0
LINE
  8
0
 10
23.81
 20
24.0869
 11
23.701
 21
24.25
  0
LINE
  8
0
 10
23.701
 20
24.25
 11
23.6142
 21
24.426
  0
LINE
  8
0
 10
23.6142
 20
24.426
 11
23.5511
 21
24.6118
  0
LINE
  8
0
 10
23.5511
 20
24.6118
 11
23.5128
 21
24.8042
  0
LINE
  8
0
 10
23.5128
 20
24.8042
 11
23.5
 21
25
  0
LINE
  8
0
 10
23.5
 20
25
 11
23.5128
 21
25.1958
  0
LINE
  8
0
 10
23.5128
 20
25.1958
 11
23.5511
 21
25.3882
  0
LINE
  8
0
 10
23.5511
 20
25.3882
 11
23.6142
 21
25.574
  0
LINE
  8
0
 10
23.6142
 20
25.574
 11
23.701
 21
25.75
  0
LINE
  8
0
 10
23.701
 20
25.75
 11
23.81
 21
25.9131
  0
LINE
  8
0
 10
23.81
 20
25.9131
 11
23.9393
 21
26.0607
  0
LINE
  8
0
 10
23.9393
 20
26.0607
 11
24.0869
 21
26.19
  0
LINE
  8
0
 10
24.0869
 20
26.19
 11
24.25
 21
26.299
  0
LINE
  8
0
 10
24.25
 20
26.299
 11
24.426
 21
26.3858
  0
LINE
  8
0
 10
24.426
 20
26.3858
 11
24.6118
 21
26.4489
  0
LINE
  8
0
 10
24.6118
 20
26.4489
 11
24.8042
 21
26.4872
  0
LINE
  8
0
 10
24.8042
 20
26.4872
 11
25
 21
26.5
  0
LINE
  8
0
 10
25
 20
26.5
 11
25.1958
 21
26.4872
  0
LINE
  8
0
 10
25.1958
 20
26.4872
 11
25.3882
 21
26.4489
  0
LINE
  8
0
 10
25.3882
 20
26.4489
 11
25.574
 21
26.3858
  0
LINE
  8
0
 10
25.574
 20
26.3858
 11
25.75
 21
26.299
  0
LINE
  8
0
 10
25.75
 20
26.299
 11
25.9131
 21
26.19
  0
LINE
  8
0
 10
25.9131
 20
26.19
 11
26.0607
 21
26.0607
  0
LINE
  8
0
 10
26.0607
 20
26.0607
 11
26.19
 21
25.9131
  0
LINE
  8
0
 10
26.19
 20
25.9131
 11
26.299
 21
25.75
  0
LINE
  8
0
 10
26.299
 20
25.75
 11
26.3858
 21
25.574
  0
LINE
  8
0
 10
26.3858
 20
25.574
 11
26.4489
 21
25.3882
  0
LINE
  8
0
 10
26.4489
 20
25.3882
 11
26.4872
 21
25.1958
  0
LINE
  8
0
 10
26.4872
 20
25.1958
 11
26.5
 21
25
  0
LINE
  8
0
 10
26.5
 20
25
 11
26.4872
 21
24.8042
  0
LINE
  8
0
 10
26.4872
 20
24.8042
 11
26.4489
 21
24.6118
  0
LINE
  8
0
 10
26.4489
 20
24.6118
 11
26.3858
 21
24.426
  0
LINE
  8
0
 10
26.3858
 20
24.426
 11
26.299
 21
24.25
  0
LINE
  8
0
 10
26.299
 20
24.25
 11
26.19
 21
24.0869
  0
LINE
  8
0
 10
26.19
 20
24.0869
 11
26.0607
 21
23.9393
  0
LINE
  8
0
 10
26.0607
 20
23.9393
 11
25.9131
 21
23.81
  0
LINE
  8
0
 10
25.9131
 20
23.81
 11
25.75
 21
23.701
  0
LINE
  8
0
 10
25.75
 20
23.701
 11
25.574
 21
23.6142
  0
LINE
  8
0
 10
25.574
 20
23.6142
 11
25.3882
 21
23.5511
  0
LINE
  8
0
 10
25.3882
 20
23.5511
 11
25.1958
 21
23.5128
  0
LINE
  8
0
 10
25.1958
 20
23.5128
 11
25
 21
23.5
  0
LINE
  8
0
 10
25
 20
23.5
 11
24.8042
 21
23.5128
  0
LINE
  8
0
 10
24.8042
 20
-26.4872
 11
24.6118
 21
-26.4489
  0
LINE
  8
0
 10
24.6118
 20
-26.4489
 11
24.426
 21
-26.3858
  0
LINE
  8
0
 10
24.426
 20
-26.3858
 11
24.25
 21
-26.299
  0
LINE
  8
0
 10
24.25
 20
-26.299
 11
24.0869
 21
-26.19
  0
LINE
  8
0
 10
24.0869
 20
-26.19
 11
23.9393
 21
-26.0607
  0
LINE
  8
0
 10
23.9393
 20
-26.0607
 11
23.81
 21
-25.9131
  0
LINE
  8
0
 10
23.81
 20
-25.9131
 11
23.701
 21
-25.75
  0
LINE
  8
0
 10
23.701
 20
-25.75
 11
23.6142
 21
-25.574
  0
LINE
  8
0
 10
23.6142
 20
-25.574
 11
23.5511
 21
-25.3882
  0
LINE
  8
0
 10
23.5511
 20
-25.3882
 11
23.5128
 21
-25.1958
  0
LINE
  8
0
 10
23.5128
 20
-25.1958
 11
23.5
 21
-25
  0
LINE
  8
0
 10
23.5
 20
-25
 11
23.5128
 21
-24.8042
  0
LINE
  8
0
 10
23.5128
 20
-24.8042
 11
23.5511
 21
-24.6118
  0
LINE
  8
0
 10
23.5511
 20
-24.6118
 11
23.6142
 21
-24.426
  0
LINE
  8
0
 10
23.6142
 20
-24.426
 11
23.701
 21
-24.25
  0
LINE
  8
0
 10
23.701
 20
-24.25
 11
23.81
 21
-24.0869
  0
LINE
  8
0
 10
23.81
 20
-24.0869
 11
23.9393
 21
-23.9393
  0
LINE
  8
0
 10
23.9393
 20
-23.9393
 11
24.0869
 21
-23.81
  0
LINE
  8
0
 10
24.0869
 20
-23.81
 11
24.25
 21
-23.701
  0
LINE
  8
0
 10
24.25
 20
-23.701
 11
24.426
 21
-23.6142
  0
LINE
  8
0
 10
24.426
 20
-23.6142
 11
24.6118
 21
-23.5511
  0
LINE
  8
0
 10
24.6118
 20
-23.5511
 11
24.8042
 21
-23.5128
  0
LINE
  8
0
 10
24.8042
 20
-23.5128
 11
25
 21
-23.5
  0
LINE
  8
0
 10
25
 20
-23.5
 11
25.1958
 21
-23.5128
  0
LINE
  8
0
 10
25.1958
 20
-23.5128
 11
25.3882
 21
-23.5511
  0
LINE
  8
0
 10
25.3882
 20
-23.5511
 11
25.574
 21
-23.6142
  0
LINE
  8
0
 10
25.574
 20
-23.6142
 11
25.75
 21
-23.701
  0
LINE
  8
0
 10
25.75
 20
-23.701
 11
25.9131
 21
-23.81
  0
LINE
  8
0
 10
25.9131
 20
-23.81
 11
26.0607
 21
-23.9393
  0
LINE
  8
0
 10
26.0607
 20
-23.9393
 11
26.19
 21
-24.0869
  0
LINE
  8
0
 10
26.19
 20
-24.0869
 11
26.299
 21
-24.25
  0
LINE
  8
0
 10
26.299
 20
-24.25
 11
26.3858
 21
-24.426
  0
LINE
  8
0
 10
26.3858
 20
-24.426
 11
26.4489
 21
-24.6118
  0
LINE
  8
0
 10
26.4489
 20
-24.6118
 11
26.4872
 21
-24.8042
  0
LINE
  8
0
 10
26.4872
 20
-24.8042
 11
26.5
 21
-25
  0
LINE
  8
0
 10
26.5
 20
-25
 11
26.4872
 21
-25.1958
  0
LINE
  8
0
 10
26.4872
 20
-25.1958
 11
26.4489
 21
-25.3882
  0
LINE
  8
0
 10
26.4489
 20
-25.3882
 11
26.3858
 21
-25.574
  0
LINE
  8
0
 10
26.3858
 20
-25.574
 11
26.299
 21
-25.75
  0
LINE
  8
0
 10
26.299
 20
-25.75
 11
26.19
 21
-25.9131
  0
LINE
  8
0
 10
26.19
 20
-25.9131
 11
26.0607
 21
-26.0607
  0
LINE
  8
0
 10
26.0607
 20
-26.0607
 11
25.9131
 21
-26.19
  0
LINE
  8
0
 10
25.9131
 20
-26.19
 11
25.75
 21
-26.299
  0
LINE
  8
0
 10
25.75
 20
-26.299
 11
25.574
 21
-26.3858
  0
LINE
  8
0
 10
25.574
 20
-26.3858
 11
25.3882
 21
-26.4489
  0
LINE
  8
0
 10
25.3882
 20
-26.4489
 11
25.1958
 21
-26.4872
  0
LINE
  8
0
 10
25.1958
 20
-26.4872
 11
25
 21
-26.5
  0
LINE
  8
0
 10
25
 20
-26.5
 11
24.8042
 21
-26.4872
  0
LINE
  8
0
 10
-25.1958
 20
-26.4872
 11
-25.3882
 21
-26.4489
  0
LINE
  8
0
 10
-25.3882
 20
-26.4489
 11
-25.574
 21
-26.3858
  0
LINE
  8
0
 10
-25.574
 20
-26.3858
 11
-25.75
 21
-26.299
  0
LINE
  8
0
 10
-25.75
 20
-26.299
 11
-25.9131
 21
-26.19
  0
LINE
  8
0
 10
-25.9131
 20
-26.19
 11
-26.0607
 21
-26.0607
  0
LINE
  8
0
 10
-26.0607
 20
-26.0607
 11
-26.19
 21
-25.9131
  0
LINE
  8
0
 10
-26.19
 20
-25.9131
 11
-26.299
 21
-25.75
  0
LINE
  8
0
 10
-26.299
 20
-25.75
 11
-26.3858
 21
-25.574
  0
LINE
  8
0
 10
-26.3858
 20
-25.574
 11
-26.4489
 21
-25.3882
  0
LINE
  8
0
 10
-26.4489
 20
-25.3882
 11
-26.4872
 21
-25.1958
  0
LINE
  8
0
 10
-26.4872
 20
-25.1958
 11
-26.5
 21
-25
  0
LINE
  8
0
 10
-26.5
 20
-25
 11
-26.4872
 21
-24.8042
  0
LINE
  8
0
 10
-26.4872
 20
-24.8042
 11
-26.4489
 21
-24.6118
  0
LINE
  8
0
 10
-26.4489
 20
-24.6118
 11
-26.3858
 21
-24.426
  0
LINE
  8
0
 10
-26.3858
 20
-24.426
 11
-26.299
 21
-24.25
  0
LINE
  8
0
 10
-26.299
 20
-24.25
 11
-26.19
 21
-24.0869
  0
LINE
  8
0
 10
-26.19
 20
-24.0869
 11
-26.0607
 21
-23.9393
  0
LINE
  8
0
 10
-26.0607
 20
-23.9393
 11
-25.9131
 21
-23.81
  0
LINE
  8
0
 10
-25.9131
 20
-23.81
 11
-25.75
 21
-23.701
  0
LINE
  8
0
 10
-25.75
 20
-23.701
 11
-25.574
 21
-23.6142
  0
LINE
  8
0
 10
-25.574
 20
-23.6142
 11
-25.3882
 21
-23.5511
  0
LINE
  8
0
 10
-25.3882
 20
-23.5511
 11
-25.1958
 21
-23.5128
  0
LINE
  8
0
 10
-25.1958
 20
-23.5128
 11
-25
 21
-23.5
  0
LINE
  8
0
 10
-25
 20
-23.5
 11
-24.8042
 21
-23.5128
  0
LINE
  8
0
 10
-24.8042
 20
-23.5128
 11
-24.6118
 21
-23.5511
  0
LINE
  8
0
 10
-24.6118
 20
-23.5511
 11
-24.426
 21
-23.6142
  0
LINE
  8
0
 10
-24.426
 20
-23.6142
 11
-24.25
 21
-23.701
  0
LINE
  8
0
 10
-24.25
 20
-23.701
 11
-24.0869
 21
-23.81
  0
LINE
  8
0
 10
-24.0869
 20
-23.81
 11
-23.9393
 21
-23.9393
  0
LINE
  8
0
 10
-23.9393
 20
-23.9393
 11
-23.81
 21
-24.0869
  0
LINE
  8
0
 10
-23.81
 20
-24.0869
 11
-23.701
 21
-24.25
  0
LINE
  8
0
 10
-23.701
 20
-24.25
 11
-23.6142
 21
-24.426
  0
LINE
  8
0
 10
-23.6142
 20
-24.426
 11
-23.5511
 21
-24.6118
  0
LINE
  8
0
 10
-23.5511
 20
-24.6118
 11
-23.5128
 21
-24.8042
  0
LINE
  8
0
 10
-23.5128
 20
-24.8042
 11
-23.5
 21
-25
  0
LINE
  8
0
 10
-23.5
 20
-25
 11
-23.5128
 21
-25.1958
  0
LINE
  8
0
 10
-23.5128
 20
-25.1958
 11
-23.5511
 21
-25.3882
  0
LINE
  8
0
 10
-23.5511
 20
-25.3882
 11
-23.6142
 21
-25.574
  0
LINE
  8
0
 10
-23.6142
 20
-25.574
 11
-23.701
 21
-25.75
  0
LINE
  8
0
 10
-23.701
 20
-25.75
 11
-23.81
 21
-25.9131
  0
LINE
  8
0
 10
-23.81
 20
-25.9131
 11
-23.9393
 21
-26.0607
  0
LINE
  8
0
 10
-23.9393
 20
-26.0607
 11
-24.0869
 21
-26.19
  0
LINE
  8
0
 10
-24.0869
 20
-26.19
 11
-24.25
 21
-26.299
  0
LINE
  8
0
 10
-24.25
 20
-26.299
 11
-24.426
 21
-26.3858
  0
LINE
  8
0
 10
-24.426
 20
-26.3858
 11
-24.6118
 21
-26.4489
  0
LINE
  8
0
 10
-24.6118
 20
-26.4489
 11
-24.8042
 21
-26.4872
  0
LINE
  8
0
 10
-24.8042
 20
-26.4872
 11
-25
 21
-26.5
  0
LINE
  8
0
 10
-25
 20
-26.5
 11
-25.1958
 21
-26.4872
  0
LINE
  8
0
 10
-30.3916
 20
-32.9743
 11
-30.7764
 21
-32.8978
  0
LINE
  8
0
 10
-30.7764
 20
-32.8978
 11
-31.148
 21
-32.7716
  0
LINE
  8
0
 10
-31.148
 20
-32.7716
 11
-31.5
 21
-32.5981
  0
LINE
  8
0
 10
-31.5
 20
-32.5981
 11
-31.8263
 21
-32.3801
  0
LINE
  8
0
 10
-31.8263
 20
-32.3801
 11
-32.1213
 21
-32.1213
  0
LINE
  8
0
 10
-32.1213
 20
-32.1213
 11
-32.3801
 21
-31.8263
  0
LINE
  8
0
 10
-32.3801
 20
-31.8263
 11
-32.5981
 21
-31.5
  0
LINE
  8
0
 10
-32.5981
 20
-31.5
 11
-32.7716
 21
-31.148
  0
LINE
  8
0
 10
-32.7716
 20
-31.148
 11
-32.8978
 21
-30.7764
  0
LINE
  8
0
 10
-32.8978
 20
-30.7764
 11
-32.9743
 21
-30.3916
  0
LINE
  8
0
 10
-32.9743
 20
-30.3916
 11
-33
 21
-30
  0
LINE
  8
0
 10
-33
 20
-30
 11
-32.9743
 21
-29.6084
  0
LINE
  8
0
 10
-32.9743
 20
-29.6084
 11
-32.8978
 21
-29.2235
  0
LINE
  8
0
 10
-32.8978
 20
-29.2235
 11
-32.7716
 21
-28.8519
  0
LINE
  8
0
 10
-32.7716
 20
-28.8519
 11
-32.5981
 21
-28.5
  0
LINE
  8
0
 10
-32.5981
 20
-28.5
 11
-32.3801
 21
-28.1737
  0
LINE
  8
0
 10
-32.3801
 20
-28.1737
 11
-32.1213
 21
-27.8787
  0
LINE
  8
0
 10
-32.1213
 20
-27.8787
 11
-31.8263
 21
-27.6199
  0
LINE
  8
0
 10
-31.8263
 20
-27.6199
 11
-31.5
 21
-27.4019
  0
LINE
  8
0
 10
-31.5
 20
-27.4019
 11
-31.148
 21
-27.2283
  0
LINE
  8
0
 10
-31.148
 20
-27.2283
 11
-30.7764
 21
-27.1022
  0
LINE
  8
0
 10
-30.7764
 20
-27.1022
 11
-30.3916
 21
-27.0257
  0
LINE
  8
0
 10
-30.3916
 20
-27.0257
 11
-30
 21
-27
  0
LINE
  8
0
 10
-30
 20
-27
 11
-29.6084
 21
-27.0257
  0
LINE
  8
0
 10
-29.6084
 20
-27.0257
 11
-29.2235
 21
-27.1022
  0
LINE
  8
0
 10
-29.2235
 20
-27.1022
 11
-28.8519
 21
-27.2283
  0
LINE
  8
0
 10
-28.8519
 20
-27.2283
 11
-28.5
 21
-27.4019
  0
LINE
  8
0
 10
-28.5
 20
-27.4019
 11
-28.1737
 21
-27.6199
  0
LINE
  8
0
 10
-28.1737
 20
-27.6199
 11
-27.8787
 21
-27.8787
  0
LINE
  8
0
 10
-27.8787
 20
-27.8787
 11
-27.6199
 21
-28.1737
  0
LINE
  8
0
 10
-27.6199
 20
-28.1737
 11
-27.4019
 21
-28.5
  0
LINE
  8
0
 10
-27.4019
 20
-28.5
 11
-27.2283
 21
-28.8519
  0
LINE
  8
0
 10
-27.2283
 20
-28.8519
 11
-27.1022
 21
-29.2235
  0
LINE
  8
0
 10
-27.1022
 20
-29.2235
 11
-27.0257
 21
-29.6084
  0
LINE
  8
0
 10
-27.0257
 20
-29.6084
 11
-27
 21
-30
  0
LINE
  8
0
 10
-27
 20
-30
 11
-27.0257
 21
-30.3916
  0
LINE
  8
0
 10
-27.0257
 20
-30.3916
 11
-27.1022
 21
-30.7764
  0
LINE
  8
0
 10
-27.1022
 20
-30.7764
 11
-27.2283
 21
-31.148
  0
LINE
  8
0
 10
-27.2283
 20
-31.148
 11
-27.4019
 21
-31.5
  0
LINE
  8
0
 10
-27.4019
 20
-31.5
 11
-27.6199
 21
-31.8263
  0
LINE
  8
0
 10
-27.6199
 20
-31.8263
 11
-27.8787
 21
-32.1213
  0
LINE
  8
0
 10
-27.8787
 20
-32.1213
 11
-28.1737
 21
-32.3801
  0
LINE
  8
0
 10
-28.1737
 20
-32.3801
 11
-28.5
 21
-32.5981
  0
LINE
  8
0
 10
-28.5
 20
-32.5981
 11
-28.8519
 21
-32.7716
  0
LINE
  8
0
 10
-28.8519
 20
-32.7716
 11
-29.2235
 21
-32.8978
  0
LINE
  8
0
 10
-29.2235
 20
-32.8978
 11
-29.6084
 21
-32.9743
  0
LINE
  8
0
 10
-29.6084
 20
-32.9743
 11
-30
 21
-33
  0
LINE
  8
0
 10
-30
 20
-33
 11
-30.3916
 21
-32.9743
  0
LINE
  8
0
 10
29.6084
 20
-32.9743
 11
29.2235
 21
-32.8978
  0
LINE
  8
0
 10
29.2235
 20
-32.8978
 11
28.8519
 21
-32.7716
  0
LINE
  8
0
 10
28.8519
 20
-32.7716
 11
28.5
 21
-32.5981
  0
LINE
  8
0
 10
28.5
 20
-32.5981
 11
28.1737
 21
-32.3801
  0
LINE
  8
0
 10
28.1737
 20
-32.3801
 11
27.8787
 21
-32.1213
  0
LINE
  8
0
 10
27.8787
 20
-32.1213
 11
27.6199
 21
-31.8263
  0
LINE
  8
0
 10
27.6199
 20
-31.8263
 11
27.4019
 21
-31.5
  0
LINE
  8
0
 10
27.4019
 20
-31.5
 11
27.2283
 21
-31.148
  0
LINE
  8
0
 10
27.2283
 20
-31.148
 11
27.1022
 21
-30.7764
  0
LINE
  8
0
 10
27.1022
 20
-30.7764
 11
27.0257
 21
-30.3916
  0
LINE
  8
0
 10
27.0257
 20
-30.3916
 11
27
 21
-30
  0
LINE
  8
0
 10
27
 20
-30
 11
27.0257
 21
-29.6084
  0
LINE
  8
0
 10
27.0257
 20
-29.6084
 11
27.1022
 21
-29.2235
  0
LINE
  8
0
 10
27.1022
 20
-29.2235
 11
27.2283
 21
-28.8519
  0
LINE
  8
0
 10
27.2283
 20
-28.8519
 11
27.4019
 21
-28.5
  0
LINE
  8
0
 10
27.4019
 20
-28.5
 11
27.6199
 21
-28.1737
  0
LINE
  8
0
 10
27.6199
 20
-28.1737
 11
27.8787
 21
-27.8787
  0
LINE
  8
0
 10
27.8787
 20
-27.8787
 11
28.1737
 21
-27.6199
  0
LINE
  8
0
 10
28.1737
 20
-27.6199
 11
28.5
 21
-27.4019
  0
LINE
  8
0
 10
28.5
 20
-27.4019
 11
28.8519
 21
-27.2283
  0
LINE
  8
0
 10
28.8519
 20
-27.2283
 11
29.2235
 21
-27.1022
  0
LINE
  8
0
 10
29.2235
 20
-27.1022
 11
29.6084
 21
-27.0257
  0
LINE
  8
0
 10
29.6084
 20
-27.0257
 11
30
 21
-27
  0
LINE
  8
0
 10
30
 20
-27
 11
30.3916
 21
-27.0257
  0
LINE
  8
0
 10
30.3916
 20
-27.0257
 11
30.7764
 21
-27.1022
  0
LINE
  8
0
 10
30.7764
 20
-27.1022
 11
31.148
 21
-27.2283
  0
LINE
  8
0
 10
31.148
 20
-27.2283
 11
31.5
 21
-27.4019
  0
LINE
  8
0
 10
31.5
 20
-27.4019
 11
31.8263
 21
-27.6199
  0
LINE
  8
0
 10
31.8263
 20
-27.6199
 11
32.1213
 21
-27.8787
  0
LINE
  8
0
 10
32.1213
 20
-27.8787
 11
32.3801
 21
-28.1737
  0
LINE
  8
0
 10
32.3801
 20
-28.1737
 11
32.5981
 21
-28.5
  0
LINE
  8
0
 10
32.5981
 20
-28.5
 11
32.7716
 21
-28.8519
  0
LINE
  8
0
 10
32.7716
 20
-28.8519
 11
32.8978
 21
-29.2235
  0
LINE
  8
0
 10
32.8978
 20
-29.2235
 11
32.9743
 21
-29.6084
  0
LINE
  8
0
 10
32.9743
 20
-29.6084
 11
33
 21
-30
  0
LINE
  8
0
 10
33
 20
-30
 11
32.9743
 21
-30.3916
  0
LINE
  8
0
 10
32.9743
 20
-30.3916
 11
32.8978
 21
-30.7764
  0
LINE
  8
0
 10
32.8978
 20
-30.7764
 11
32.7716
 21
-31.148
  0
LINE
  8
0
 10
32.7716
 20
-31.148
 11
32.5981
 21
-31.5
  0
LINE
  8
0
 10
32.5981
 20
-31.5
 11
32.3801
 21
-31.8263
  0
LINE
  8
0
 10
32.3801
 20
-31.8263
 11
32.1213
 21
-32.1213
  0
LINE
  8
0
 10
32.1213
 20
-32.1213
 11
31.8263
 21
-32.3801
  0
LINE
  8
0
 10
31.8263
 20
-32.3801
 11
31.5
 21
-32.5981
  0
LINE
  8
0
 10
31.5
 20
-32.5981
 11
31.148
 21
-32.7716
  0
LINE
  8
0
 10
31.148
 20
-32.7716
 11
30.7764
 21
-32.8978
  0
LINE
  8
0
 10
30.7764
 20
-32.8978
 11
30.3916
 21
-32.9743
  0
LINE
  8
0
 10
30.3916
 20
-32.9743
 11
30
 21
-33
  0
LINE
  8
0
 10
30
 20
-33
 11
29.6084
 21
-32.9743
  0
ENDSEC
  0
SECTION
  2
OBJECTS
  0
DICTIONARY
  0
ENDSEC
  0
EOF
