solid OpenSCAD_Model
  facet normal 0 0 -1
    outer loop
      vertex -500 -500 0
      vertex 500 500 0
      vertex 500 -500 0
    endloop
  endfacet
  facet normal -0 0 -1
    outer loop
      vertex 500 500 0
      vertex -500 -500 0
      vertex -500 500 0
    endloop
  endfacet
  facet normal -0 0 1
    outer loop
      vertex -500 500 0.4
      vertex 500 -500 0.4
      vertex 500 500 0.4
    endloop
  endfacet
  facet normal 0 0 1
    outer loop
      vertex 500 -500 0.4
      vertex -500 500 0.4
      vertex -500 -500 0.4
    endloop
  endfacet
  facet normal 1 -0 0
    outer loop
      vertex 500 -500 0.4
      vertex 500 500 0
      vertex 500 500 0.4
    endloop
  endfacet
  facet normal 1 0 0
    outer loop
      vertex 500 500 0
      vertex 500 -500 0.4
      vertex 500 -500 0
    endloop
  endfacet
  facet normal -1 0 0
    outer loop
      vertex -500 -500 0
      vertex -500 500 0.4
      vertex -500 500 0
    endloop
  endfacet
  facet normal -1 -0 0
    outer loop
      vertex -500 500 0.4
      vertex -500 -500 0
      vertex -500 -500 0.4
    endloop
  endfacet
  facet normal 0 -1 0
    outer loop
      vertex -500 -500 0
      vertex 500 -500 0.4
      vertex -500 -500 0.4
    endloop
  endfacet
  facet normal 0 -1 -0
    outer loop
      vertex 500 -500 0.4
      vertex -500 -500 0
      vertex 500 -500 0
    endloop
  endfacet
  facet normal 0 1 -0
    outer loop
      vertex 500 500 0
      vertex -500 500 0.4
      vertex 500 500 0.4
    endloop
  endfacet
  facet normal 0 1 0
    outer loop
      vertex -500 500 0.4
      vertex 500 500 0
      vertex -500 500 0
    endloop
  endfacet
endsolid OpenSCAD_Model
