<?xml version="1.0" standalone="no"?>
<!DOCTYPE svg PUBLIC "-//W3C//DTD SVG 1.1//EN" "http://www.w3.org/Graphics/SVG/1.1/DTD/svg11.dtd">
<svg width="44mm" height="44mm" viewBox="-22 -22 44 44" xmlns="http://www.w3.org/2000/svg" version="1.1">
<title>OpenSCAD Model</title>
<path d="
M 21.005,-16.005 L 20.9622,-16.6576 L 20.8346,-17.2991 L 20.6244,-17.9184 L 20.3351,-18.505 L 19.9718,-19.0488
 L 19.5405,-19.5405 L 19.0488,-19.9718 L 18.505,-20.3351 L 17.9184,-20.6244 L 17.2991,-20.8346 L 16.6576,-20.9622
 L 16.005,-21.005 L -16.005,-21.005 L -16.6576,-20.9622 L -17.2991,-20.8346 L -17.9184,-20.6244 L -18.505,-20.3351
 L -19.0488,-19.9718 L -19.5405,-19.5405 L -19.9718,-19.0488 L -20.3351,-18.505 L -20.6244,-17.9184 L -20.8346,-17.2991
 L -20.9622,-16.6576 L -21.005,-16.005 L -21.005,-6.5 L 21.005,-6.5 z
M -15.4242,-11.7778 L -15.8412,-11.8607 L -16.2437,-11.9974 L -16.625,-12.1854 L -16.9785,-12.4216 L -17.2981,-12.7019
 L -17.5784,-13.0215 L -17.8146,-13.375 L -18.0026,-13.7563 L -18.1393,-14.1588 L -18.2222,-14.5758 L -18.25,-15
 L -18.2222,-15.4242 L -18.1393,-15.8412 L -18.0026,-16.2437 L -17.8146,-16.625 L -17.5784,-16.9785 L -17.2981,-17.2981
 L -16.9785,-17.5784 L -16.625,-17.8146 L -16.2437,-18.0026 L -15.8412,-18.1393 L -15.4242,-18.2222 L -15,-18.25
 L -14.5758,-18.2222 L -14.1588,-18.1393 L -13.7563,-18.0026 L -13.375,-17.8146 L -13.0215,-17.5784 L -12.7019,-17.2981
 L -12.4216,-16.9785 L -12.1854,-16.625 L -11.9974,-16.2437 L -11.8607,-15.8412 L -11.7778,-15.4242 L -11.75,-15
 L -11.7778,-14.5758 L -11.8607,-14.1588 L -11.9974,-13.7563 L -12.1854,-13.375 L -12.4216,-13.0215 L -12.7019,-12.7019
 L -13.0215,-12.4216 L -13.375,-12.1854 L -13.7563,-11.9974 L -14.1588,-11.8607 L -14.5758,-11.7778 L -15,-11.75
 z
M 14.5758,-11.7778 L 14.1588,-11.8607 L 13.7563,-11.9974 L 13.375,-12.1854 L 13.0215,-12.4216 L 12.7019,-12.7019
 L 12.4216,-13.0215 L 12.1854,-13.375 L 11.9974,-13.7563 L 11.8607,-14.1588 L 11.7778,-14.5758 L 11.75,-15
 L 11.7778,-15.4242 L 11.8607,-15.8412 L 11.9974,-16.2437 L 12.1854,-16.625 L 12.4216,-16.9785 L 12.7019,-17.2981
 L 13.0215,-17.5784 L 13.375,-17.8146 L 13.7563,-18.0026 L 14.1588,-18.1393 L 14.5758,-18.2222 L 15,-18.25
 L 15.4242,-18.2222 L 15.8412,-18.1393 L 16.2437,-18.0026 L 16.625,-17.8146 L 16.9785,-17.5784 L 17.2981,-17.2981
 L 17.5784,-16.9785 L 17.8146,-16.625 L 18.0026,-16.2437 L 18.1393,-15.8412 L 18.2222,-15.4242 L 18.25,-15
 L 18.2222,-14.5758 L 18.1393,-14.1588 L 18.0026,-13.7563 L 17.8146,-13.375 L 17.5784,-13.0215 L 17.2981,-12.7019
 L 16.9785,-12.4216 L 16.625,-12.1854 L 16.2437,-11.9974 L 15.8412,-11.8607 L 15.4242,-11.7778 L 15,-11.75
 z
M -0.42421,-11.7778 L -0.841156,-11.8607 L -1.24371,-11.9974 L -1.625,-12.1854 L -1.97847,-12.4216 L -2.2981,-12.7019
 L -2.57838,-13.0215 L -2.81458,-13.375 L -3.00259,-13.7563 L -3.13925,-14.1588 L -3.22218,-14.5758 L -3.25,-15
 L -3.22218,-15.4242 L -3.13925,-15.8412 L -3.00259,-16.2437 L -2.81458,-16.625 L -2.57838,-16.9785 L -2.2981,-17.2981
 L -1.97847,-17.5784 L -1.625,-17.8146 L -1.24371,-18.0026 L -0.841156,-18.1393 L -0.42421,-18.2222 L 0,-18.25
 L 0.42421,-18.2222 L 0.841156,-18.1393 L 1.24371,-18.0026 L 1.625,-17.8146 L 1.97847,-17.5784 L 2.2981,-17.2981
 L 2.57838,-16.9785 L 2.81458,-16.625 L 3.00259,-16.2437 L 3.13925,-15.8412 L 3.22218,-15.4242 L 3.25,-15
 L 3.22218,-14.5758 L 3.13925,-14.1588 L 3.00259,-13.7563 L 2.81458,-13.375 L 2.57838,-13.0215 L 2.2981,-12.7019
 L 1.97847,-12.4216 L 1.625,-12.1854 L 1.24371,-11.9974 L 0.841156,-11.8607 L 0.42421,-11.7778 L 0,-11.75
 z
M -7.72189,-10.8145 L -7.93999,-10.8579 L -8.15056,-10.9294 L -8.34999,-11.0278 L -8.53488,-11.1513 L -8.70207,-11.2979
 L -8.84869,-11.4651 L -8.97223,-11.65 L -9.07059,-11.8494 L -9.14206,-12.06 L -9.18546,-12.2781 L -9.2,-12.5
 L -9.18546,-12.7219 L -9.14206,-12.94 L -9.07059,-13.1506 L -8.97223,-13.35 L -8.84869,-13.5349 L -8.70207,-13.7021
 L -8.53488,-13.8487 L -8.34999,-13.9722 L -8.15056,-14.0706 L -7.93999,-14.1421 L -7.72189,-14.1855 L -7.5,-14.2
 L -7.27809,-14.1855 L -7.06,-14.1421 L -6.84943,-14.0706 L -6.64999,-13.9722 L -6.4651,-13.8487 L -6.29791,-13.7021
 L -6.15129,-13.5349 L -6.02776,-13.35 L -5.9294,-13.1506 L -5.85793,-12.94 L -5.81453,-12.7219 L -5.79999,-12.5
 L -5.81453,-12.2781 L -5.85793,-12.06 L -5.9294,-11.8494 L -6.02776,-11.65 L -6.15129,-11.4651 L -6.29791,-11.2979
 L -6.4651,-11.1513 L -6.64999,-11.0278 L -6.84943,-10.9294 L -7.06,-10.8579 L -7.27809,-10.8145 L -7.5,-10.8
 z
M 7.27809,-10.8145 L 7.06,-10.8579 L 6.84943,-10.9294 L 6.64999,-11.0278 L 6.4651,-11.1513 L 6.29791,-11.2979
 L 6.15129,-11.4651 L 6.02776,-11.65 L 5.9294,-11.8494 L 5.85793,-12.06 L 5.81453,-12.2781 L 5.79999,-12.5
 L 5.81453,-12.7219 L 5.85793,-12.94 L 5.9294,-13.1506 L 6.02776,-13.35 L 6.15129,-13.5349 L 6.29791,-13.7021
 L 6.4651,-13.8487 L 6.64999,-13.9722 L 6.84943,-14.0706 L 7.06,-14.1421 L 7.27809,-14.1855 L 7.5,-14.2
 L 7.72189,-14.1855 L 7.93999,-14.1421 L 8.15056,-14.0706 L 8.34999,-13.9722 L 8.53488,-13.8487 L 8.70207,-13.7021
 L 8.84869,-13.5349 L 8.97223,-13.35 L 9.07059,-13.1506 L 9.14206,-12.94 L 9.18546,-12.7219 L 9.2,-12.5
 L 9.18546,-12.2781 L 9.14206,-12.06 L 9.07059,-11.8494 L 8.97223,-11.65 L 8.84869,-11.4651 L 8.70207,-11.2979
 L 8.53488,-11.1513 L 8.34999,-11.0278 L 8.15056,-10.9294 L 7.93999,-10.8579 L 7.72189,-10.8145 L 7.5,-10.8
 z
M 16.6576,20.9622 L 17.2991,20.8346 L 17.9184,20.6244 L 18.505,20.3351 L 19.0488,19.9718 L 19.5405,19.5405
 L 19.9718,19.0488 L 20.3351,18.505 L 20.6244,17.9184 L 20.8346,17.2991 L 20.9622,16.6576 L 21.005,16.005
 L 21.005,6.5 L -21.005,6.5 L -21.005,16.005 L -20.9622,16.6576 L -20.8346,17.2991 L -20.6244,17.9184
 L -20.3351,18.505 L -19.9718,19.0488 L -19.5405,19.5405 L -19.0488,19.9718 L -18.505,20.3351 L -17.9184,20.6244
 L -17.2991,20.8346 L -16.6576,20.9622 L -16.005,21.005 L 16.005,21.005 z
M 7.27809,14.1855 L 7.06,14.1421 L 6.84943,14.0706 L 6.64999,13.9722 L 6.4651,13.8487 L 6.29791,13.7021
 L 6.15129,13.5349 L 6.02776,13.35 L 5.9294,13.1506 L 5.85793,12.94 L 5.81453,12.7219 L 5.79999,12.5
 L 5.81453,12.2781 L 5.85793,12.06 L 5.9294,11.8494 L 6.02776,11.65 L 6.15129,11.4651 L 6.29791,11.2979
 L 6.4651,11.1513 L 6.64999,11.0278 L 6.84943,10.9294 L 7.06,10.8579 L 7.27809,10.8145 L 7.5,10.8
 L 7.72189,10.8145 L 7.93999,10.8579 L 8.15056,10.9294 L 8.34999,11.0278 L 8.53488,11.1513 L 8.70207,11.2979
 L 8.84869,11.4651 L 8.97223,11.65 L 9.07059,11.8494 L 9.14206,12.06 L 9.18546,12.2781 L 9.2,12.5
 L 9.18546,12.7219 L 9.14206,12.94 L 9.07059,13.1506 L 8.97223,13.35 L 8.84869,13.5349 L 8.70207,13.7021
 L 8.53488,13.8487 L 8.34999,13.9722 L 8.15056,14.0706 L 7.93999,14.1421 L 7.72189,14.1855 L 7.5,14.2
 z
M -7.72189,14.1855 L -7.93999,14.1421 L -8.15056,14.0706 L -8.34999,13.9722 L -8.53488,13.8487 L -8.70207,13.7021
 L -8.84869,13.5349 L -8.97223,13.35 L -9.07059,13.1506 L -9.14206,12.94 L -9.18546,12.7219 L -9.2,12.5
 L -9.18546,12.2781 L -9.14206,12.06 L -9.07059,11.8494 L -8.97223,11.65 L -8.84869,11.4651 L -8.70207,11.2979
 L -8.53488,11.1513 L -8.34999,11.0278 L -8.15056,10.9294 L -7.93999,10.8579 L -7.72189,10.8145 L -7.5,10.8
 L -7.27809,10.8145 L -7.06,10.8579 L -6.84943,10.9294 L -6.64999,11.0278 L -6.4651,11.1513 L -6.29791,11.2979
 L -6.15129,11.4651 L -6.02776,11.65 L -5.9294,11.8494 L -5.85793,12.06 L -5.81453,12.2781 L -5.79999,12.5
 L -5.81453,12.7219 L -5.85793,12.94 L -5.9294,13.1506 L -6.02776,13.35 L -6.15129,13.5349 L -6.29791,13.7021
 L -6.4651,13.8487 L -6.64999,13.9722 L -6.84943,14.0706 L -7.06,14.1421 L -7.27809,14.1855 L -7.5,14.2
 z
M -15.4242,18.2222 L -15.8412,18.1393 L -16.2437,18.0026 L -16.625,17.8146 L -16.9785,17.5784 L -17.2981,17.2981
 L -17.5784,16.9785 L -17.8146,16.625 L -18.0026,16.2437 L -18.1393,15.8412 L -18.2222,15.4242 L -18.25,15
 L -18.2222,14.5758 L -18.1393,14.1588 L -18.0026,13.7563 L -17.8146,13.375 L -17.5784,13.0215 L -17.2981,12.7019
 L -16.9785,12.4216 L -16.625,12.1854 L -16.2437,11.9974 L -15.8412,11.8607 L -15.4242,11.7778 L -15,11.75
 L -14.5758,11.7778 L -14.1588,11.8607 L -13.7563,11.9974 L -13.375,12.1854 L -13.0215,12.4216 L -12.7019,12.7019
 L -12.4216,13.0215 L -12.1854,13.375 L -11.9974,13.7563 L -11.8607,14.1588 L -11.7778,14.5758 L -11.75,15
 L -11.7778,15.4242 L -11.8607,15.8412 L -11.9974,16.2437 L -12.1854,16.625 L -12.4216,16.9785 L -12.7019,17.2981
 L -13.0215,17.5784 L -13.375,17.8146 L -13.7563,18.0026 L -14.1588,18.1393 L -14.5758,18.2222 L -15,18.25
 z
M 14.5758,18.2222 L 14.1588,18.1393 L 13.7563,18.0026 L 13.375,17.8146 L 13.0215,17.5784 L 12.7019,17.2981
 L 12.4216,16.9785 L 12.1854,16.625 L 11.9974,16.2437 L 11.8607,15.8412 L 11.7778,15.4242 L 11.75,15
 L 11.7778,14.5758 L 11.8607,14.1588 L 11.9974,13.7563 L 12.1854,13.375 L 12.4216,13.0215 L 12.7019,12.7019
 L 13.0215,12.4216 L 13.375,12.1854 L 13.7563,11.9974 L 14.1588,11.8607 L 14.5758,11.7778 L 15,11.75
 L 15.4242,11.7778 L 15.8412,11.8607 L 16.2437,11.9974 L 16.625,12.1854 L 16.9785,12.4216 L 17.2981,12.7019
 L 17.5784,13.0215 L 17.8146,13.375 L 18.0026,13.7563 L 18.1393,14.1588 L 18.2222,14.5758 L 18.25,15
 L 18.2222,15.4242 L 18.1393,15.8412 L 18.0026,16.2437 L 17.8146,16.625 L 17.5784,16.9785 L 17.2981,17.2981
 L 16.9785,17.5784 L 16.625,17.8146 L 16.2437,18.0026 L 15.8412,18.1393 L 15.4242,18.2222 L 15,18.25
 z
M -0.42421,18.2222 L -0.841156,18.1393 L -1.24371,18.0026 L -1.625,17.8146 L -1.97847,17.5784 L -2.2981,17.2981
 L -2.57838,16.9785 L -2.81458,16.625 L -3.00259,16.2437 L -3.13925,15.8412 L -3.22218,15.4242 L -3.25,15
 L -3.22218,14.5758 L -3.13925,14.1588 L -3.00259,13.7563 L -2.81458,13.375 L -2.57838,13.0215 L -2.2981,12.7019
 L -1.97847,12.4216 L -1.625,12.1854 L -1.24371,11.9974 L -0.841156,11.8607 L -0.42421,11.7778 L 0,11.75
 L 0.42421,11.7778 L 0.841156,11.8607 L 1.24371,11.9974 L 1.625,12.1854 L 1.97847,12.4216 L 2.2981,12.7019
 L 2.57838,13.0215 L 2.81458,13.375 L 3.00259,13.7563 L 3.13925,14.1588 L 3.22218,14.5758 L 3.25,15
 L 3.22218,15.4242 L 3.13925,15.8412 L 3.00259,16.2437 L 2.81458,16.625 L 2.57838,16.9785 L 2.2981,17.2981
 L 1.97847,17.5784 L 1.625,17.8146 L 1.24371,18.0026 L 0.841156,18.1393 L 0.42421,18.2222 L 0,18.25
 z
" stroke="black" fill="lightgray" stroke-width="0.5"/>
</svg>
