<?xml version="1.0" standalone="no"?>
<!DOCTYPE svg PUBLIC "-//W3C//DTD SVG 1.1//EN" "http://www.w3.org/Graphics/SVG/1.1/DTD/svg11.dtd">
<svg width="44mm" height="44mm" viewBox="-22 -22 44 44" xmlns="http://www.w3.org/2000/svg" version="1.1">
<title>OpenSCAD Model</title>
<path d="
M 21.005,-16.005 L 20.9622,-16.6576 L 20.8346,-17.2991 L 20.6244,-17.9184 L 20.3351,-18.505 L 19.9718,-19.0488
 L 19.5405,-19.5405 L 19.0488,-19.9718 L 18.505,-20.3351 L 17.9184,-20.6244 L 17.2991,-20.8346 L 16.6576,-20.9622
 L 16.005,-21.005 L -16.005,-21.005 L -16.6576,-20.9622 L -17.2991,-20.8346 L -17.9184,-20.6244 L -18.505,-20.3351
 L -19.0488,-19.9718 L -19.5405,-19.5405 L -19.9718,-19.0488 L -20.3351,-18.505 L -20.6244,-17.9184 L -20.8346,-17.2991
 L -20.9622,-16.6576 L -21.005,-16.005 L -21.005,-6.5 L 21.005,-6.5 z
M -15.3916,-12.0257 L -15.7764,-12.1022 L -16.148,-12.2283 L -16.5,-12.4019 L -16.8263,-12.6199 L -17.1213,-12.8787
 L -17.3801,-13.1737 L -17.5981,-13.5 L -17.7716,-13.8519 L -17.8978,-14.2235 L -17.9743,-14.6084 L -18,-15
 L -17.9743,-15.3916 L -17.8978,-15.7764 L -17.7716,-16.148 L -17.5981,-16.5 L -17.3801,-16.8263 L -17.1213,-17.1213
 L -16.8263,-17.3801 L -16.5,-17.5981 L -16.148,-17.7716 L -15.7764,-17.8978 L -15.3916,-17.9743 L -15,-18
 L -14.6084,-17.9743 L -14.2235,-17.8978 L -13.8519,-17.7716 L -13.5,-17.5981 L -13.1737,-17.3801 L -12.8787,-17.1213
 L -12.6199,-16.8263 L -12.4019,-16.5 L -12.2283,-16.148 L -12.1022,-15.7764 L -12.0257,-15.3916 L -12,-15
 L -12.0257,-14.6084 L -12.1022,-14.2235 L -12.2283,-13.8519 L -12.4019,-13.5 L -12.6199,-13.1737 L -12.8787,-12.8787
 L -13.1737,-12.6199 L -13.5,-12.4019 L -13.8519,-12.2283 L -14.2235,-12.1022 L -14.6084,-12.0257 L -15,-12
 z
M 14.6084,-12.0257 L 14.2235,-12.1022 L 13.8519,-12.2283 L 13.5,-12.4019 L 13.1737,-12.6199 L 12.8787,-12.8787
 L 12.6199,-13.1737 L 12.4019,-13.5 L 12.2283,-13.8519 L 12.1022,-14.2235 L 12.0257,-14.6084 L 12,-15
 L 12.0257,-15.3916 L 12.1022,-15.7764 L 12.2283,-16.148 L 12.4019,-16.5 L 12.6199,-16.8263 L 12.8787,-17.1213
 L 13.1737,-17.3801 L 13.5,-17.5981 L 13.8519,-17.7716 L 14.2235,-17.8978 L 14.6084,-17.9743 L 15,-18
 L 15.3916,-17.9743 L 15.7764,-17.8978 L 16.148,-17.7716 L 16.5,-17.5981 L 16.8263,-17.3801 L 17.1213,-17.1213
 L 17.3801,-16.8263 L 17.5981,-16.5 L 17.7716,-16.148 L 17.8978,-15.7764 L 17.9743,-15.3916 L 18,-15
 L 17.9743,-14.6084 L 17.8978,-14.2235 L 17.7716,-13.8519 L 17.5981,-13.5 L 17.3801,-13.1737 L 17.1213,-12.8787
 L 16.8263,-12.6199 L 16.5,-12.4019 L 16.148,-12.2283 L 15.7764,-12.1022 L 15.3916,-12.0257 L 15,-12
 z
M -0.391571,-12.0257 L -0.776443,-12.1022 L -1.14804,-12.2283 L -1.5,-12.4019 L -1.82628,-12.6199 L -2.12131,-12.8787
 L -2.38005,-13.1737 L -2.59807,-13.5 L -2.77164,-13.8519 L -2.89777,-14.2235 L -2.97432,-14.6084 L -3,-15
 L -2.97432,-15.3916 L -2.89777,-15.7764 L -2.77164,-16.148 L -2.59807,-16.5 L -2.38005,-16.8263 L -2.12131,-17.1213
 L -1.82628,-17.3801 L -1.5,-17.5981 L -1.14804,-17.7716 L -0.776443,-17.8978 L -0.391571,-17.9743 L 0,-18
 L 0.391571,-17.9743 L 0.776443,-17.8978 L 1.14804,-17.7716 L 1.5,-17.5981 L 1.82628,-17.3801 L 2.12131,-17.1213
 L 2.38005,-16.8263 L 2.59807,-16.5 L 2.77164,-16.148 L 2.89777,-15.7764 L 2.97432,-15.3916 L 3,-15
 L 2.97432,-14.6084 L 2.89777,-14.2235 L 2.77164,-13.8519 L 2.59807,-13.5 L 2.38005,-13.1737 L 2.12131,-12.8787
 L 1.82628,-12.6199 L 1.5,-12.4019 L 1.14804,-12.2283 L 0.776443,-12.1022 L 0.391571,-12.0257 L 0,-12
 z
M -7.69579,-11.0128 L -7.88821,-11.0511 L -8.07402,-11.1142 L -8.25,-11.201 L -8.41313,-11.31 L -8.56065,-11.4393
 L -8.69002,-11.5869 L -8.79903,-11.75 L -8.88582,-11.926 L -8.94888,-12.1118 L -8.98715,-12.3042 L -9,-12.5
 L -8.98715,-12.6958 L -8.94888,-12.8882 L -8.88582,-13.074 L -8.79903,-13.25 L -8.69002,-13.4131 L -8.56065,-13.5607
 L -8.41313,-13.69 L -8.25,-13.799 L -8.07402,-13.8858 L -7.88821,-13.9489 L -7.69579,-13.9872 L -7.5,-14
 L -7.3042,-13.9872 L -7.11177,-13.9489 L -6.92596,-13.8858 L -6.75,-13.799 L -6.58685,-13.69 L -6.43933,-13.5607
 L -6.30997,-13.4131 L -6.20096,-13.25 L -6.11417,-13.074 L -6.0511,-12.8882 L -6.01283,-12.6958 L -6,-12.5
 L -6.01283,-12.3042 L -6.0511,-12.1118 L -6.11417,-11.926 L -6.20096,-11.75 L -6.30997,-11.5869 L -6.43933,-11.4393
 L -6.58685,-11.31 L -6.75,-11.201 L -6.92596,-11.1142 L -7.11177,-11.0511 L -7.3042,-11.0128 L -7.5,-11
 z
M 7.3042,-11.0128 L 7.11177,-11.0511 L 6.92596,-11.1142 L 6.75,-11.201 L 6.58685,-11.31 L 6.43933,-11.4393
 L 6.30997,-11.5869 L 6.20096,-11.75 L 6.11417,-11.926 L 6.0511,-12.1118 L 6.01283,-12.3042 L 6,-12.5
 L 6.01283,-12.6958 L 6.0511,-12.8882 L 6.11417,-13.074 L 6.20096,-13.25 L 6.30997,-13.4131 L 6.43933,-13.5607
 L 6.58685,-13.69 L 6.75,-13.799 L 6.92596,-13.8858 L 7.11177,-13.9489 L 7.3042,-13.9872 L 7.5,-14
 L 7.69579,-13.9872 L 7.88821,-13.9489 L 8.07402,-13.8858 L 8.25,-13.799 L 8.41313,-13.69 L 8.56065,-13.5607
 L 8.69002,-13.4131 L 8.79903,-13.25 L 8.88582,-13.074 L 8.94888,-12.8882 L 8.98715,-12.6958 L 9,-12.5
 L 8.98715,-12.3042 L 8.94888,-12.1118 L 8.88582,-11.926 L 8.79903,-11.75 L 8.69002,-11.5869 L 8.56065,-11.4393
 L 8.41313,-11.31 L 8.25,-11.201 L 8.07402,-11.1142 L 7.88821,-11.0511 L 7.69579,-11.0128 L 7.5,-11
 z
M 16.6576,20.9622 L 17.2991,20.8346 L 17.9184,20.6244 L 18.505,20.3351 L 19.0488,19.9718 L 19.5405,19.5405
 L 19.9718,19.0488 L 20.3351,18.505 L 20.6244,17.9184 L 20.8346,17.2991 L 20.9622,16.6576 L 21.005,16.005
 L 21.005,6.5 L -21.005,6.5 L -21.005,16.005 L -20.9622,16.6576 L -20.8346,17.2991 L -20.6244,17.9184
 L -20.3351,18.505 L -19.9718,19.0488 L -19.5405,19.5405 L -19.0488,19.9718 L -18.505,20.3351 L -17.9184,20.6244
 L -17.2991,20.8346 L -16.6576,20.9622 L -16.005,21.005 L 16.005,21.005 z
M 7.3042,13.9872 L 7.11177,13.9489 L 6.92596,13.8858 L 6.75,13.799 L 6.58685,13.69 L 6.43933,13.5607
 L 6.30997,13.4131 L 6.20096,13.25 L 6.11417,13.074 L 6.0511,12.8882 L 6.01283,12.6958 L 6,12.5
 L 6.01283,12.3042 L 6.0511,12.1118 L 6.11417,11.926 L 6.20096,11.75 L 6.30997,11.5869 L 6.43933,11.4393
 L 6.58685,11.31 L 6.75,11.201 L 6.92596,11.1142 L 7.11177,11.0511 L 7.3042,11.0128 L 7.5,11
 L 7.69579,11.0128 L 7.88821,11.0511 L 8.07402,11.1142 L 8.25,11.201 L 8.41313,11.31 L 8.56065,11.4393
 L 8.69002,11.5869 L 8.79903,11.75 L 8.88582,11.926 L 8.94888,12.1118 L 8.98715,12.3042 L 9,12.5
 L 8.98715,12.6958 L 8.94888,12.8882 L 8.88582,13.074 L 8.79903,13.25 L 8.69002,13.4131 L 8.56065,13.5607
 L 8.41313,13.69 L 8.25,13.799 L 8.07402,13.8858 L 7.88821,13.9489 L 7.69579,13.9872 L 7.5,14
 z
M -7.69579,13.9872 L -7.88821,13.9489 L -8.07402,13.8858 L -8.25,13.799 L -8.41313,13.69 L -8.56065,13.5607
 L -8.69002,13.4131 L -8.79903,13.25 L -8.88582,13.074 L -8.94888,12.8882 L -8.98715,12.6958 L -9,12.5
 L -8.98715,12.3042 L -8.94888,12.1118 L -8.88582,11.926 L -8.79903,11.75 L -8.69002,11.5869 L -8.56065,11.4393
 L -8.41313,11.31 L -8.25,11.201 L -8.07402,11.1142 L -7.88821,11.0511 L -7.69579,11.0128 L -7.5,11
 L -7.3042,11.0128 L -7.11177,11.0511 L -6.92596,11.1142 L -6.75,11.201 L -6.58685,11.31 L -6.43933,11.4393
 L -6.30997,11.5869 L -6.20096,11.75 L -6.11417,11.926 L -6.0511,12.1118 L -6.01283,12.3042 L -6,12.5
 L -6.01283,12.6958 L -6.0511,12.8882 L -6.11417,13.074 L -6.20096,13.25 L -6.30997,13.4131 L -6.43933,13.5607
 L -6.58685,13.69 L -6.75,13.799 L -6.92596,13.8858 L -7.11177,13.9489 L -7.3042,13.9872 L -7.5,14
 z
M -15.3916,17.9743 L -15.7764,17.8978 L -16.148,17.7716 L -16.5,17.5981 L -16.8263,17.3801 L -17.1213,17.1213
 L -17.3801,16.8263 L -17.5981,16.5 L -17.7716,16.148 L -17.8978,15.7764 L -17.9743,15.3916 L -18,15
 L -17.9743,14.6084 L -17.8978,14.2235 L -17.7716,13.8519 L -17.5981,13.5 L -17.3801,13.1737 L -17.1213,12.8787
 L -16.8263,12.6199 L -16.5,12.4019 L -16.148,12.2283 L -15.7764,12.1022 L -15.3916,12.0257 L -15,12
 L -14.6084,12.0257 L -14.2235,12.1022 L -13.8519,12.2283 L -13.5,12.4019 L -13.1737,12.6199 L -12.8787,12.8787
 L -12.6199,13.1737 L -12.4019,13.5 L -12.2283,13.8519 L -12.1022,14.2235 L -12.0257,14.6084 L -12,15
 L -12.0257,15.3916 L -12.1022,15.7764 L -12.2283,16.148 L -12.4019,16.5 L -12.6199,16.8263 L -12.8787,17.1213
 L -13.1737,17.3801 L -13.5,17.5981 L -13.8519,17.7716 L -14.2235,17.8978 L -14.6084,17.9743 L -15,18
 z
M 14.6084,17.9743 L 14.2235,17.8978 L 13.8519,17.7716 L 13.5,17.5981 L 13.1737,17.3801 L 12.8787,17.1213
 L 12.6199,16.8263 L 12.4019,16.5 L 12.2283,16.148 L 12.1022,15.7764 L 12.0257,15.3916 L 12,15
 L 12.0257,14.6084 L 12.1022,14.2235 L 12.2283,13.8519 L 12.4019,13.5 L 12.6199,13.1737 L 12.8787,12.8787
 L 13.1737,12.6199 L 13.5,12.4019 L 13.8519,12.2283 L 14.2235,12.1022 L 14.6084,12.0257 L 15,12
 L 15.3916,12.0257 L 15.7764,12.1022 L 16.148,12.2283 L 16.5,12.4019 L 16.8263,12.6199 L 17.1213,12.8787
 L 17.3801,13.1737 L 17.5981,13.5 L 17.7716,13.8519 L 17.8978,14.2235 L 17.9743,14.6084 L 18,15
 L 17.9743,15.3916 L 17.8978,15.7764 L 17.7716,16.148 L 17.5981,16.5 L 17.3801,16.8263 L 17.1213,17.1213
 L 16.8263,17.3801 L 16.5,17.5981 L 16.148,17.7716 L 15.7764,17.8978 L 15.3916,17.9743 L 15,18
 z
M -0.391571,17.9743 L -0.776443,17.8978 L -1.14804,17.7716 L -1.5,17.5981 L -1.82628,17.3801 L -2.12131,17.1213
 L -2.38005,16.8263 L -2.59807,16.5 L -2.77164,16.148 L -2.89777,15.7764 L -2.97432,15.3916 L -3,15
 L -2.97432,14.6084 L -2.89777,14.2235 L -2.77164,13.8519 L -2.59807,13.5 L -2.38005,13.1737 L -2.12131,12.8787
 L -1.82628,12.6199 L -1.5,12.4019 L -1.14804,12.2283 L -0.776443,12.1022 L -0.391571,12.0257 L 0,12
 L 0.391571,12.0257 L 0.776443,12.1022 L 1.14804,12.2283 L 1.5,12.4019 L 1.82628,12.6199 L 2.12131,12.8787
 L 2.38005,13.1737 L 2.59807,13.5 L 2.77164,13.8519 L 2.89777,14.2235 L 2.97432,14.6084 L 3,15
 L 2.97432,15.3916 L 2.89777,15.7764 L 2.77164,16.148 L 2.59807,16.5 L 2.38005,16.8263 L 2.12131,17.1213
 L 1.82628,17.3801 L 1.5,17.5981 L 1.14804,17.7716 L 0.776443,17.8978 L 0.391571,17.9743 L 0,18
 z
" stroke="black" fill="lightgray" stroke-width="0.5"/>
</svg>
