  0
SECTION
  2
BLOCKS
  0
ENDSEC
  0
SECTION
  2
ENTITIES
  0
LINE
  8
0
 10
53.8139
 20
-20.9901
 11
54.1267
 21
-20.9606
  0
LINE
  8
0
 10
54.1267
 20
-20.9606
 11
54.4369
 21
-20.9114
  0
LINE
  8
0
 10
54.4369
 20
-20.9114
 11
54.7435
 21
-20.8429
  0
LINE
  8
0
 10
54.7435
 20
-20.8429
 11
55.0451
 21
-20.7553
  0
LINE
  8
0
 10
55.0451
 20
-20.7553
 11
55.3406
 21
-20.6489
  0
LINE
  8
0
 10
55.3406
 20
-20.6489
 11
55.6289
 21
-20.5241
  0
LINE
  8
0
 10
55.6289
 20
-20.5241
 11
55.9088
 21
-20.3815
  0
LINE
  8
0
 10
55.9088
 20
-20.3815
 11
56.1791
 21
-20.2216
  0
LINE
  8
0
 10
56.1791
 20
-20.2216
 11
56.4389
 21
-20.0451
  0
LINE
  8
0
 10
56.4389
 20
-20.0451
 11
56.6871
 21
-19.8526
  0
LINE
  8
0
 10
56.6871
 20
-19.8526
 11
56.9227
 21
-19.6448
  0
LINE
  8
0
 10
56.9227
 20
-19.6448
 11
57.1448
 21
-19.4227
  0
LINE
  8
0
 10
57.1448
 20
-19.4227
 11
57.3526
 21
-19.1871
  0
LINE
  8
0
 10
57.3526
 20
-19.1871
 11
57.5451
 21
-18.9389
  0
LINE
  8
0
 10
57.5451
 20
-18.9389
 11
57.7216
 21
-18.6791
  0
LINE
  8
0
 10
57.7216
 20
-18.6791
 11
57.8815
 21
-18.4088
  0
LINE
  8
0
 10
57.8815
 20
-18.4088
 11
58.0241
 21
-18.1289
  0
LINE
  8
0
 10
58.0241
 20
-18.1289
 11
58.1489
 21
-17.8406
  0
LINE
  8
0
 10
58.1489
 20
-17.8406
 11
58.2553
 21
-17.5451
  0
LINE
  8
0
 10
58.2553
 20
-17.5451
 11
58.3429
 21
-17.2435
  0
LINE
  8
0
 10
58.3429
 20
-17.2435
 11
58.4114
 21
-16.9369
  0
LINE
  8
0
 10
58.4114
 20
-16.9369
 11
58.4606
 21
-16.6267
  0
LINE
  8
0
 10
58.4606
 20
-16.6267
 11
58.4901
 21
-16.3139
  0
LINE
  8
0
 10
58.4901
 20
-16.3139
 11
58.5
 21
-16
  0
LINE
  8
0
 10
58.5
 20
-16
 11
58.5
 21
16
  0
LINE
  8
0
 10
58.5
 20
16
 11
58.4901
 21
16.3139
  0
LINE
  8
0
 10
58.4901
 20
16.3139
 11
58.4606
 21
16.6267
  0
LINE
  8
0
 10
58.4606
 20
16.6267
 11
58.4114
 21
16.9369
  0
LINE
  8
0
 10
58.4114
 20
16.9369
 11
58.3429
 21
17.2435
  0
LINE
  8
0
 10
58.3429
 20
17.2435
 11
58.2553
 21
17.5451
  0
LINE
  8
0
 10
58.2553
 20
17.5451
 11
58.1489
 21
17.8406
  0
LINE
  8
0
 10
58.1489
 20
17.8406
 11
58.0241
 21
18.1289
  0
LINE
  8
0
 10
58.0241
 20
18.1289
 11
57.8815
 21
18.4088
  0
LINE
  8
0
 10
57.8815
 20
18.4088
 11
57.7216
 21
18.6791
  0
LINE
  8
0
 10
57.7216
 20
18.6791
 11
57.5451
 21
18.9389
  0
LINE
  8
0
 10
57.5451
 20
18.9389
 11
57.3526
 21
19.1871
  0
LINE
  8
0
 10
57.3526
 20
19.1871
 11
57.1448
 21
19.4227
  0
LINE
  8
0
 10
57.1448
 20
19.4227
 11
56.9227
 21
19.6448
  0
LINE
  8
0
 10
56.9227
 20
19.6448
 11
56.6871
 21
19.8526
  0
LINE
  8
0
 10
56.6871
 20
19.8526
 11
56.4389
 21
20.0451
  0
LINE
  8
0
 10
56.4389
 20
20.0451
 11
56.1791
 21
20.2216
  0
LINE
  8
0
 10
56.1791
 20
20.2216
 11
55.9088
 21
20.3815
  0
LINE
  8
0
 10
55.9088
 20
20.3815
 11
55.6289
 21
20.5241
  0
LINE
  8
0
 10
55.6289
 20
20.5241
 11
55.3406
 21
20.6489
  0
LINE
  8
0
 10
55.3406
 20
20.6489
 11
55.0451
 21
20.7553
  0
LINE
  8
0
 10
55.0451
 20
20.7553
 11
54.7435
 21
20.8429
  0
LINE
  8
0
 10
54.7435
 20
20.8429
 11
54.4369
 21
20.9114
  0
LINE
  8
0
 10
54.4369
 20
20.9114
 11
54.1267
 21
20.9606
  0
LINE
  8
0
 10
54.1267
 20
20.9606
 11
53.8139
 21
20.9901
  0
LINE
  8
0
 10
53.8139
 20
20.9901
 11
53.5
 21
21
  0
LINE
  8
0
 10
53.5
 20
21
 11
-53.5
 21
21
  0
LINE
  8
0
 10
-53.5
 20
21
 11
-53.8139
 21
20.9901
  0
LINE
  8
0
 10
-53.8139
 20
20.9901
 11
-54.1267
 21
20.9606
  0
LINE
  8
0
 10
-54.1267
 20
20.9606
 11
-54.4369
 21
20.9114
  0
LINE
  8
0
 10
-54.4369
 20
20.9114
 11
-54.7435
 21
20.8429
  0
LINE
  8
0
 10
-54.7435
 20
20.8429
 11
-55.0451
 21
20.7553
  0
LINE
  8
0
 10
-55.0451
 20
20.7553
 11
-55.3406
 21
20.6489
  0
LINE
  8
0
 10
-55.3406
 20
20.6489
 11
-55.6289
 21
20.5241
  0
LINE
  8
0
 10
-55.6289
 20
20.5241
 11
-55.9088
 21
20.3815
  0
LINE
  8
0
 10
-55.9088
 20
20.3815
 11
-56.1791
 21
20.2216
  0
LINE
  8
0
 10
-56.1791
 20
20.2216
 11
-56.4389
 21
20.0451
  0
LINE
  8
0
 10
-56.4389
 20
20.0451
 11
-56.6871
 21
19.8526
  0
LINE
  8
0
 10
-56.6871
 20
19.8526
 11
-56.9227
 21
19.6448
  0
LINE
  8
0
 10
-56.9227
 20
19.6448
 11
-57.1448
 21
19.4227
  0
LINE
  8
0
 10
-57.1448
 20
19.4227
 11
-57.3526
 21
19.1871
  0
LINE
  8
0
 10
-57.3526
 20
19.1871
 11
-57.5451
 21
18.9389
  0
LINE
  8
0
 10
-57.5451
 20
18.9389
 11
-57.7216
 21
18.6791
  0
LINE
  8
0
 10
-57.7216
 20
18.6791
 11
-57.8815
 21
18.4088
  0
LINE
  8
0
 10
-57.8815
 20
18.4088
 11
-58.0241
 21
18.1289
  0
LINE
  8
0
 10
-58.0241
 20
18.1289
 11
-58.1489
 21
17.8406
  0
LINE
  8
0
 10
-58.1489
 20
17.8406
 11
-58.2553
 21
17.5451
  0
LINE
  8
0
 10
-58.2553
 20
17.5451
 11
-58.3429
 21
17.2435
  0
LINE
  8
0
 10
-58.3429
 20
17.2435
 11
-58.4114
 21
16.9369
  0
LINE
  8
0
 10
-58.4114
 20
16.9369
 11
-58.4606
 21
16.6267
  0
LINE
  8
0
 10
-58.4606
 20
16.6267
 11
-58.4901
 21
16.3139
  0
LINE
  8
0
 10
-58.4901
 20
16.3139
 11
-58.5
 21
16
  0
LINE
  8
0
 10
-58.5
 20
16
 11
-58.5
 21
-16
  0
LINE
  8
0
 10
-58.5
 20
-16
 11
-58.4901
 21
-16.3139
  0
LINE
  8
0
 10
-58.4901
 20
-16.3139
 11
-58.4606
 21
-16.6267
  0
LINE
  8
0
 10
-58.4606
 20
-16.6267
 11
-58.4114
 21
-16.9369
  0
LINE
  8
0
 10
-58.4114
 20
-16.9369
 11
-58.3429
 21
-17.2435
  0
LINE
  8
0
 10
-58.3429
 20
-17.2435
 11
-58.2553
 21
-17.5451
  0
LINE
  8
0
 10
-58.2553
 20
-17.5451
 11
-58.1489
 21
-17.8406
  0
LINE
  8
0
 10
-58.1489
 20
-17.8406
 11
-58.0241
 21
-18.1289
  0
LINE
  8
0
 10
-58.0241
 20
-18.1289
 11
-57.8815
 21
-18.4088
  0
LINE
  8
0
 10
-57.8815
 20
-18.4088
 11
-57.7216
 21
-18.6791
  0
LINE
  8
0
 10
-57.7216
 20
-18.6791
 11
-57.5451
 21
-18.9389
  0
LINE
  8
0
 10
-57.5451
 20
-18.9389
 11
-57.3526
 21
-19.1871
  0
LINE
  8
0
 10
-57.3526
 20
-19.1871
 11
-57.1448
 21
-19.4227
  0
LINE
  8
0
 10
-57.1448
 20
-19.4227
 11
-56.9227
 21
-19.6448
  0
LINE
  8
0
 10
-56.9227
 20
-19.6448
 11
-56.6871
 21
-19.8526
  0
LINE
  8
0
 10
-56.6871
 20
-19.8526
 11
-56.4389
 21
-20.0451
  0
LINE
  8
0
 10
-56.4389
 20
-20.0451
 11
-56.1791
 21
-20.2216
  0
LINE
  8
0
 10
-56.1791
 20
-20.2216
 11
-55.9088
 21
-20.3815
  0
LINE
  8
0
 10
-55.9088
 20
-20.3815
 11
-55.6289
 21
-20.5241
  0
LINE
  8
0
 10
-55.6289
 20
-20.5241
 11
-55.3406
 21
-20.6489
  0
LINE
  8
0
 10
-55.3406
 20
-20.6489
 11
-55.0451
 21
-20.7553
  0
LINE
  8
0
 10
-55.0451
 20
-20.7553
 11
-54.7435
 21
-20.8429
  0
LINE
  8
0
 10
-54.7435
 20
-20.8429
 11
-54.4369
 21
-20.9114
  0
LINE
  8
0
 10
-54.4369
 20
-20.9114
 11
-54.1267
 21
-20.9606
  0
LINE
  8
0
 10
-54.1267
 20
-20.9606
 11
-53.8139
 21
-20.9901
  0
LINE
  8
0
 10
-53.8139
 20
-20.9901
 11
-53.5
 21
-21
  0
LINE
  8
0
 10
-53.5
 20
-21
 11
53.5
 21
-21
  0
LINE
  8
0
 10
53.5
 20
-21
 11
53.8139
 21
-20.9901
  0
LINE
  8
0
 10
-7.68837
 20
12.0059
 11
-7.87599
 21
12.0237
  0
LINE
  8
0
 10
-7.87599
 20
12.0237
 11
-8.06213
 21
12.0531
  0
LINE
  8
0
 10
-8.06213
 20
12.0531
 11
-8.24606
 21
12.0942
  0
LINE
  8
0
 10
-8.24606
 20
12.0942
 11
-8.42705
 21
12.1468
  0
LINE
  8
0
 10
-8.42705
 20
12.1468
 11
-8.60437
 21
12.2107
  0
LINE
  8
0
 10
-8.60437
 20
12.2107
 11
-8.77733
 21
12.2855
  0
LINE
  8
0
 10
-8.77733
 20
12.2855
 11
-8.94525
 21
12.3711
  0
LINE
  8
0
 10
-8.94525
 20
12.3711
 11
-9.10747
 21
12.467
  0
LINE
  8
0
 10
-9.10747
 20
12.467
 11
-9.26335
 21
12.5729
  0
LINE
  8
0
 10
-9.26335
 20
12.5729
 11
-9.41226
 21
12.6884
  0
LINE
  8
0
 10
-9.41226
 20
12.6884
 11
-9.55363
 21
12.8131
  0
LINE
  8
0
 10
-9.55363
 20
12.8131
 11
-9.6869
 21
12.9464
  0
LINE
  8
0
 10
-9.6869
 20
12.9464
 11
-9.81154
 21
13.0877
  0
LINE
  8
0
 10
-9.81154
 20
13.0877
 11
-9.92705
 21
13.2366
  0
LINE
  8
0
 10
-9.92705
 20
13.2366
 11
-10.033
 21
13.3925
  0
LINE
  8
0
 10
-10.033
 20
13.3925
 11
-10.1289
 21
13.5547
  0
LINE
  8
0
 10
-10.1289
 20
13.5547
 11
-10.2145
 21
13.7227
  0
LINE
  8
0
 10
-10.2145
 20
13.7227
 11
-10.2893
 21
13.8956
  0
LINE
  8
0
 10
-10.2893
 20
13.8956
 11
-10.3532
 21
14.0729
  0
LINE
  8
0
 10
-10.3532
 20
14.0729
 11
-10.4057
 21
14.2539
  0
LINE
  8
0
 10
-10.4057
 20
14.2539
 11
-10.4469
 21
14.4379
  0
LINE
  8
0
 10
-10.4469
 20
14.4379
 11
-10.4763
 21
14.624
  0
LINE
  8
0
 10
-10.4763
 20
14.624
 11
-10.4941
 21
14.8116
  0
LINE
  8
0
 10
-10.4941
 20
14.8116
 11
-10.5
 21
15
  0
LINE
  8
0
 10
-10.5
 20
15
 11
-10.4941
 21
15.1884
  0
LINE
  8
0
 10
-10.4941
 20
15.1884
 11
-10.4763
 21
15.376
  0
LINE
  8
0
 10
-10.4763
 20
15.376
 11
-10.4469
 21
15.5621
  0
LINE
  8
0
 10
-10.4469
 20
15.5621
 11
-10.4057
 21
15.7461
  0
LINE
  8
0
 10
-10.4057
 20
15.7461
 11
-10.3532
 21
15.927
  0
LINE
  8
0
 10
-10.3532
 20
15.927
 11
-10.2893
 21
16.1044
  0
LINE
  8
0
 10
-10.2893
 20
16.1044
 11
-10.2145
 21
16.2773
  0
LINE
  8
0
 10
-10.2145
 20
16.2773
 11
-10.1289
 21
16.4453
  0
LINE
  8
0
 10
-10.1289
 20
16.4453
 11
-10.033
 21
16.6075
  0
LINE
  8
0
 10
-10.033
 20
16.6075
 11
-9.92705
 21
16.7634
  0
LINE
  8
0
 10
-9.92705
 20
16.7634
 11
-9.81154
 21
16.9123
  0
LINE
  8
0
 10
-9.81154
 20
16.9123
 11
-9.6869
 21
17.0536
  0
LINE
  8
0
 10
-9.6869
 20
17.0536
 11
-9.55363
 21
17.1869
  0
LINE
  8
0
 10
-9.55363
 20
17.1869
 11
-9.41226
 21
17.3115
  0
LINE
  8
0
 10
-9.41226
 20
17.3115
 11
-9.26335
 21
17.427
  0
LINE
  8
0
 10
-9.26335
 20
17.427
 11
-9.10747
 21
17.533
  0
LINE
  8
0
 10
-9.10747
 20
17.533
 11
-8.94525
 21
17.6289
  0
LINE
  8
0
 10
-8.94525
 20
17.6289
 11
-8.77733
 21
17.7145
  0
LINE
  8
0
 10
-8.77733
 20
17.7145
 11
-8.60437
 21
17.7893
  0
LINE
  8
0
 10
-8.60437
 20
17.7893
 11
-8.42705
 21
17.8532
  0
LINE
  8
0
 10
-8.42705
 20
17.8532
 11
-8.24606
 21
17.9057
  0
LINE
  8
0
 10
-8.24606
 20
17.9057
 11
-8.06213
 21
17.9469
  0
LINE
  8
0
 10
-8.06213
 20
17.9469
 11
-7.87599
 21
17.9763
  0
LINE
  8
0
 10
-7.87599
 20
17.9763
 11
-7.68837
 21
17.9941
  0
LINE
  8
0
 10
-7.68837
 20
17.9941
 11
-7.5
 21
18
  0
LINE
  8
0
 10
-7.5
 20
18
 11
-7.31161
 21
17.9941
  0
LINE
  8
0
 10
-7.31161
 20
17.9941
 11
-7.12399
 21
17.9763
  0
LINE
  8
0
 10
-7.12399
 20
17.9763
 11
-6.93785
 21
17.9469
  0
LINE
  8
0
 10
-6.93785
 20
17.9469
 11
-6.75392
 21
17.9057
  0
LINE
  8
0
 10
-6.75392
 20
17.9057
 11
-6.57294
 21
17.8532
  0
LINE
  8
0
 10
-6.57294
 20
17.8532
 11
-6.39561
 21
17.7893
  0
LINE
  8
0
 10
-6.39561
 20
17.7893
 11
-6.22266
 21
17.7145
  0
LINE
  8
0
 10
-6.22266
 20
17.7145
 11
-6.05473
 21
17.6289
  0
LINE
  8
0
 10
-6.05473
 20
17.6289
 11
-5.89252
 21
17.533
  0
LINE
  8
0
 10
-5.89252
 20
17.533
 11
-5.73663
 21
17.427
  0
LINE
  8
0
 10
-5.73663
 20
17.427
 11
-5.58772
 21
17.3115
  0
LINE
  8
0
 10
-5.58772
 20
17.3115
 11
-5.44635
 21
17.1869
  0
LINE
  8
0
 10
-5.44635
 20
17.1869
 11
-5.31308
 21
17.0536
  0
LINE
  8
0
 10
-5.31308
 20
17.0536
 11
-5.18845
 21
16.9123
  0
LINE
  8
0
 10
-5.18845
 20
16.9123
 11
-5.07294
 21
16.7634
  0
LINE
  8
0
 10
-5.07294
 20
16.7634
 11
-4.96701
 21
16.6075
  0
LINE
  8
0
 10
-4.96701
 20
16.6075
 11
-4.87108
 21
16.4453
  0
LINE
  8
0
 10
-4.87108
 20
16.4453
 11
-4.78551
 21
16.2773
  0
LINE
  8
0
 10
-4.78551
 20
16.2773
 11
-4.71066
 21
16.1044
  0
LINE
  8
0
 10
-4.71066
 20
16.1044
 11
-4.64682
 21
15.927
  0
LINE
  8
0
 10
-4.64682
 20
15.927
 11
-4.59424
 21
15.7461
  0
LINE
  8
0
 10
-4.59424
 20
15.7461
 11
-4.55313
 21
15.5621
  0
LINE
  8
0
 10
-4.55313
 20
15.5621
 11
-4.52365
 21
15.376
  0
LINE
  8
0
 10
-4.52365
 20
15.376
 11
-4.50591
 21
15.1884
  0
LINE
  8
0
 10
-4.50591
 20
15.1884
 11
-4.5
 21
15
  0
LINE
  8
0
 10
-4.5
 20
15
 11
-4.50591
 21
14.8116
  0
LINE
  8
0
 10
-4.50591
 20
14.8116
 11
-4.52365
 21
14.624
  0
LINE
  8
0
 10
-4.52365
 20
14.624
 11
-4.55313
 21
14.4379
  0
LINE
  8
0
 10
-4.55313
 20
14.4379
 11
-4.59424
 21
14.2539
  0
LINE
  8
0
 10
-4.59424
 20
14.2539
 11
-4.64682
 21
14.0729
  0
LINE
  8
0
 10
-4.64682
 20
14.0729
 11
-4.71066
 21
13.8956
  0
LINE
  8
0
 10
-4.71066
 20
13.8956
 11
-4.78551
 21
13.7227
  0
LINE
  8
0
 10
-4.78551
 20
13.7227
 11
-4.87108
 21
13.5547
  0
LINE
  8
0
 10
-4.87108
 20
13.5547
 11
-4.96701
 21
13.3925
  0
LINE
  8
0
 10
-4.96701
 20
13.3925
 11
-5.07294
 21
13.2366
  0
LINE
  8
0
 10
-5.07294
 20
13.2366
 11
-5.18845
 21
13.0877
  0
LINE
  8
0
 10
-5.18845
 20
13.0877
 11
-5.31308
 21
12.9464
  0
LINE
  8
0
 10
-5.31308
 20
12.9464
 11
-5.44635
 21
12.8131
  0
LINE
  8
0
 10
-5.44635
 20
12.8131
 11
-5.58772
 21
12.6884
  0
LINE
  8
0
 10
-5.58772
 20
12.6884
 11
-5.73663
 21
12.5729
  0
LINE
  8
0
 10
-5.73663
 20
12.5729
 11
-5.89252
 21
12.467
  0
LINE
  8
0
 10
-5.89252
 20
12.467
 11
-6.05473
 21
12.3711
  0
LINE
  8
0
 10
-6.05473
 20
12.3711
 11
-6.22266
 21
12.2855
  0
LINE
  8
0
 10
-6.22266
 20
12.2855
 11
-6.39561
 21
12.2107
  0
LINE
  8
0
 10
-6.39561
 20
12.2107
 11
-6.57294
 21
12.1468
  0
LINE
  8
0
 10
-6.57294
 20
12.1468
 11
-6.75392
 21
12.0942
  0
LINE
  8
0
 10
-6.75392
 20
12.0942
 11
-6.93785
 21
12.0531
  0
LINE
  8
0
 10
-6.93785
 20
12.0531
 11
-7.12399
 21
12.0237
  0
LINE
  8
0
 10
-7.12399
 20
12.0237
 11
-7.31161
 21
12.0059
  0
LINE
  8
0
 10
-7.31161
 20
12.0059
 11
-7.5
 21
12
  0
LINE
  8
0
 10
-7.5
 20
12
 11
-7.68837
 21
12.0059
  0
LINE
  8
0
 10
7.31161
 20
12.0059
 11
7.12399
 21
12.0237
  0
LINE
  8
0
 10
7.12399
 20
12.0237
 11
6.93785
 21
12.0531
  0
LINE
  8
0
 10
6.93785
 20
12.0531
 11
6.75392
 21
12.0942
  0
LINE
  8
0
 10
6.75392
 20
12.0942
 11
6.57294
 21
12.1468
  0
LINE
  8
0
 10
6.57294
 20
12.1468
 11
6.39561
 21
12.2107
  0
LINE
  8
0
 10
6.39561
 20
12.2107
 11
6.22266
 21
12.2855
  0
LINE
  8
0
 10
6.22266
 20
12.2855
 11
6.05473
 21
12.3711
  0
LINE
  8
0
 10
6.05473
 20
12.3711
 11
5.89252
 21
12.467
  0
LINE
  8
0
 10
5.89252
 20
12.467
 11
5.73663
 21
12.5729
  0
LINE
  8
0
 10
5.73663
 20
12.5729
 11
5.58772
 21
12.6884
  0
LINE
  8
0
 10
5.58772
 20
12.6884
 11
5.44635
 21
12.8131
  0
LINE
  8
0
 10
5.44635
 20
12.8131
 11
5.31308
 21
12.9464
  0
LINE
  8
0
 10
5.31308
 20
12.9464
 11
5.18845
 21
13.0877
  0
LINE
  8
0
 10
5.18845
 20
13.0877
 11
5.07294
 21
13.2366
  0
LINE
  8
0
 10
5.07294
 20
13.2366
 11
4.96701
 21
13.3925
  0
LINE
  8
0
 10
4.96701
 20
13.3925
 11
4.87108
 21
13.5547
  0
LINE
  8
0
 10
4.87108
 20
13.5547
 11
4.78551
 21
13.7227
  0
LINE
  8
0
 10
4.78551
 20
13.7227
 11
4.71066
 21
13.8956
  0
LINE
  8
0
 10
4.71066
 20
13.8956
 11
4.64682
 21
14.0729
  0
LINE
  8
0
 10
4.64682
 20
14.0729
 11
4.59424
 21
14.2539
  0
LINE
  8
0
 10
4.59424
 20
14.2539
 11
4.55313
 21
14.4379
  0
LINE
  8
0
 10
4.55313
 20
14.4379
 11
4.52365
 21
14.624
  0
LINE
  8
0
 10
4.52365
 20
14.624
 11
4.50591
 21
14.8116
  0
LINE
  8
0
 10
4.50591
 20
14.8116
 11
4.5
 21
15
  0
LINE
  8
0
 10
4.5
 20
15
 11
4.50591
 21
15.1884
  0
LINE
  8
0
 10
4.50591
 20
15.1884
 11
4.52365
 21
15.376
  0
LINE
  8
0
 10
4.52365
 20
15.376
 11
4.55313
 21
15.5621
  0
LINE
  8
0
 10
4.55313
 20
15.5621
 11
4.59424
 21
15.7461
  0
LINE
  8
0
 10
4.59424
 20
15.7461
 11
4.64682
 21
15.927
  0
LINE
  8
0
 10
4.64682
 20
15.927
 11
4.71066
 21
16.1044
  0
LINE
  8
0
 10
4.71066
 20
16.1044
 11
4.78551
 21
16.2773
  0
LINE
  8
0
 10
4.78551
 20
16.2773
 11
4.87108
 21
16.4453
  0
LINE
  8
0
 10
4.87108
 20
16.4453
 11
4.96701
 21
16.6075
  0
LINE
  8
0
 10
4.96701
 20
16.6075
 11
5.07294
 21
16.7634
  0
LINE
  8
0
 10
5.07294
 20
16.7634
 11
5.18845
 21
16.9123
  0
LINE
  8
0
 10
5.18845
 20
16.9123
 11
5.31308
 21
17.0536
  0
LINE
  8
0
 10
5.31308
 20
17.0536
 11
5.44635
 21
17.1869
  0
LINE
  8
0
 10
5.44635
 20
17.1869
 11
5.58772
 21
17.3115
  0
LINE
  8
0
 10
5.58772
 20
17.3115
 11
5.73663
 21
17.427
  0
LINE
  8
0
 10
5.73663
 20
17.427
 11
5.89252
 21
17.533
  0
LINE
  8
0
 10
5.89252
 20
17.533
 11
6.05473
 21
17.6289
  0
LINE
  8
0
 10
6.05473
 20
17.6289
 11
6.22266
 21
17.7145
  0
LINE
  8
0
 10
6.22266
 20
17.7145
 11
6.39561
 21
17.7893
  0
LINE
  8
0
 10
6.39561
 20
17.7893
 11
6.57294
 21
17.8532
  0
LINE
  8
0
 10
6.57294
 20
17.8532
 11
6.75392
 21
17.9057
  0
LINE
  8
0
 10
6.75392
 20
17.9057
 11
6.93785
 21
17.9469
  0
LINE
  8
0
 10
6.93785
 20
17.9469
 11
7.12399
 21
17.9763
  0
LINE
  8
0
 10
7.12399
 20
17.9763
 11
7.31161
 21
17.9941
  0
LINE
  8
0
 10
7.31161
 20
17.9941
 11
7.5
 21
18
  0
LINE
  8
0
 10
7.5
 20
18
 11
7.68837
 21
17.9941
  0
LINE
  8
0
 10
7.68837
 20
17.9941
 11
7.87599
 21
17.9763
  0
LINE
  8
0
 10
7.87599
 20
17.9763
 11
8.06213
 21
17.9469
  0
LINE
  8
0
 10
8.06213
 20
17.9469
 11
8.24606
 21
17.9057
  0
LINE
  8
0
 10
8.24606
 20
17.9057
 11
8.42705
 21
17.8532
  0
LINE
  8
0
 10
8.42705
 20
17.8532
 11
8.60437
 21
17.7893
  0
LINE
  8
0
 10
8.60437
 20
17.7893
 11
8.77733
 21
17.7145
  0
LINE
  8
0
 10
8.77733
 20
17.7145
 11
8.94525
 21
17.6289
  0
LINE
  8
0
 10
8.94525
 20
17.6289
 11
9.10747
 21
17.533
  0
LINE
  8
0
 10
9.10747
 20
17.533
 11
9.26335
 21
17.427
  0
LINE
  8
0
 10
9.26335
 20
17.427
 11
9.41226
 21
17.3115
  0
LINE
  8
0
 10
9.41226
 20
17.3115
 11
9.55363
 21
17.1869
  0
LINE
  8
0
 10
9.55363
 20
17.1869
 11
9.6869
 21
17.0536
  0
LINE
  8
0
 10
9.6869
 20
17.0536
 11
9.81154
 21
16.9123
  0
LINE
  8
0
 10
9.81154
 20
16.9123
 11
9.92705
 21
16.7634
  0
LINE
  8
0
 10
9.92705
 20
16.7634
 11
10.033
 21
16.6075
  0
LINE
  8
0
 10
10.033
 20
16.6075
 11
10.1289
 21
16.4453
  0
LINE
  8
0
 10
10.1289
 20
16.4453
 11
10.2145
 21
16.2773
  0
LINE
  8
0
 10
10.2145
 20
16.2773
 11
10.2893
 21
16.1044
  0
LINE
  8
0
 10
10.2893
 20
16.1044
 11
10.3532
 21
15.927
  0
LINE
  8
0
 10
10.3532
 20
15.927
 11
10.4057
 21
15.7461
  0
LINE
  8
0
 10
10.4057
 20
15.7461
 11
10.4469
 21
15.5621
  0
LINE
  8
0
 10
10.4469
 20
15.5621
 11
10.4763
 21
15.376
  0
LINE
  8
0
 10
10.4763
 20
15.376
 11
10.4941
 21
15.1884
  0
LINE
  8
0
 10
10.4941
 20
15.1884
 11
10.5
 21
15
  0
LINE
  8
0
 10
10.5
 20
15
 11
10.4941
 21
14.8116
  0
LINE
  8
0
 10
10.4941
 20
14.8116
 11
10.4763
 21
14.624
  0
LINE
  8
0
 10
10.4763
 20
14.624
 11
10.4469
 21
14.4379
  0
LINE
  8
0
 10
10.4469
 20
14.4379
 11
10.4057
 21
14.2539
  0
LINE
  8
0
 10
10.4057
 20
14.2539
 11
10.3532
 21
14.0729
  0
LINE
  8
0
 10
10.3532
 20
14.0729
 11
10.2893
 21
13.8956
  0
LINE
  8
0
 10
10.2893
 20
13.8956
 11
10.2145
 21
13.7227
  0
LINE
  8
0
 10
10.2145
 20
13.7227
 11
10.1289
 21
13.5547
  0
LINE
  8
0
 10
10.1289
 20
13.5547
 11
10.033
 21
13.3925
  0
LINE
  8
0
 10
10.033
 20
13.3925
 11
9.92705
 21
13.2366
  0
LINE
  8
0
 10
9.92705
 20
13.2366
 11
9.81154
 21
13.0877
  0
LINE
  8
0
 10
9.81154
 20
13.0877
 11
9.6869
 21
12.9464
  0
LINE
  8
0
 10
9.6869
 20
12.9464
 11
9.55363
 21
12.8131
  0
LINE
  8
0
 10
9.55363
 20
12.8131
 11
9.41226
 21
12.6884
  0
LINE
  8
0
 10
9.41226
 20
12.6884
 11
9.26335
 21
12.5729
  0
LINE
  8
0
 10
9.26335
 20
12.5729
 11
9.10747
 21
12.467
  0
LINE
  8
0
 10
9.10747
 20
12.467
 11
8.94525
 21
12.3711
  0
LINE
  8
0
 10
8.94525
 20
12.3711
 11
8.77733
 21
12.2855
  0
LINE
  8
0
 10
8.77733
 20
12.2855
 11
8.60437
 21
12.2107
  0
LINE
  8
0
 10
8.60437
 20
12.2107
 11
8.42705
 21
12.1468
  0
LINE
  8
0
 10
8.42705
 20
12.1468
 11
8.24606
 21
12.0942
  0
LINE
  8
0
 10
8.24606
 20
12.0942
 11
8.06213
 21
12.0531
  0
LINE
  8
0
 10
8.06213
 20
12.0531
 11
7.87599
 21
12.0237
  0
LINE
  8
0
 10
7.87599
 20
12.0237
 11
7.68837
 21
12.0059
  0
LINE
  8
0
 10
7.68837
 20
12.0059
 11
7.5
 21
12
  0
LINE
  8
0
 10
7.5
 20
12
 11
7.31161
 21
12.0059
  0
LINE
  8
0
 10
-22.6884
 20
12.0059
 11
-22.876
 21
12.0237
  0
LINE
  8
0
 10
-22.876
 20
12.0237
 11
-23.0621
 21
12.0531
  0
LINE
  8
0
 10
-23.0621
 20
12.0531
 11
-23.2461
 21
12.0942
  0
LINE
  8
0
 10
-23.2461
 20
12.0942
 11
-23.427
 21
12.1468
  0
LINE
  8
0
 10
-23.427
 20
12.1468
 11
-23.6044
 21
12.2107
  0
LINE
  8
0
 10
-23.6044
 20
12.2107
 11
-23.7773
 21
12.2855
  0
LINE
  8
0
 10
-23.7773
 20
12.2855
 11
-23.9453
 21
12.3711
  0
LINE
  8
0
 10
-23.9453
 20
12.3711
 11
-24.1075
 21
12.467
  0
LINE
  8
0
 10
-24.1075
 20
12.467
 11
-24.2634
 21
12.5729
  0
LINE
  8
0
 10
-24.2634
 20
12.5729
 11
-24.4123
 21
12.6884
  0
LINE
  8
0
 10
-24.4123
 20
12.6884
 11
-24.5536
 21
12.8131
  0
LINE
  8
0
 10
-24.5536
 20
12.8131
 11
-24.6869
 21
12.9464
  0
LINE
  8
0
 10
-24.6869
 20
12.9464
 11
-24.8115
 21
13.0877
  0
LINE
  8
0
 10
-24.8115
 20
13.0877
 11
-24.927
 21
13.2366
  0
LINE
  8
0
 10
-24.927
 20
13.2366
 11
-25.033
 21
13.3925
  0
LINE
  8
0
 10
-25.033
 20
13.3925
 11
-25.1289
 21
13.5547
  0
LINE
  8
0
 10
-25.1289
 20
13.5547
 11
-25.2145
 21
13.7227
  0
LINE
  8
0
 10
-25.2145
 20
13.7227
 11
-25.2893
 21
13.8956
  0
LINE
  8
0
 10
-25.2893
 20
13.8956
 11
-25.3532
 21
14.0729
  0
LINE
  8
0
 10
-25.3532
 20
14.0729
 11
-25.4057
 21
14.2539
  0
LINE
  8
0
 10
-25.4057
 20
14.2539
 11
-25.4469
 21
14.4379
  0
LINE
  8
0
 10
-25.4469
 20
14.4379
 11
-25.4763
 21
14.624
  0
LINE
  8
0
 10
-25.4763
 20
14.624
 11
-25.4941
 21
14.8116
  0
LINE
  8
0
 10
-25.4941
 20
14.8116
 11
-25.5
 21
15
  0
LINE
  8
0
 10
-25.5
 20
15
 11
-25.4941
 21
15.1884
  0
LINE
  8
0
 10
-25.4941
 20
15.1884
 11
-25.4763
 21
15.376
  0
LINE
  8
0
 10
-25.4763
 20
15.376
 11
-25.4469
 21
15.5621
  0
LINE
  8
0
 10
-25.4469
 20
15.5621
 11
-25.4057
 21
15.7461
  0
LINE
  8
0
 10
-25.4057
 20
15.7461
 11
-25.3532
 21
15.927
  0
LINE
  8
0
 10
-25.3532
 20
15.927
 11
-25.2893
 21
16.1044
  0
LINE
  8
0
 10
-25.2893
 20
16.1044
 11
-25.2145
 21
16.2773
  0
LINE
  8
0
 10
-25.2145
 20
16.2773
 11
-25.1289
 21
16.4453
  0
LINE
  8
0
 10
-25.1289
 20
16.4453
 11
-25.033
 21
16.6075
  0
LINE
  8
0
 10
-25.033
 20
16.6075
 11
-24.927
 21
16.7634
  0
LINE
  8
0
 10
-24.927
 20
16.7634
 11
-24.8115
 21
16.9123
  0
LINE
  8
0
 10
-24.8115
 20
16.9123
 11
-24.6869
 21
17.0536
  0
LINE
  8
0
 10
-24.6869
 20
17.0536
 11
-24.5536
 21
17.1869
  0
LINE
  8
0
 10
-24.5536
 20
17.1869
 11
-24.4123
 21
17.3115
  0
LINE
  8
0
 10
-24.4123
 20
17.3115
 11
-24.2634
 21
17.427
  0
LINE
  8
0
 10
-24.2634
 20
17.427
 11
-24.1075
 21
17.533
  0
LINE
  8
0
 10
-24.1075
 20
17.533
 11
-23.9453
 21
17.6289
  0
LINE
  8
0
 10
-23.9453
 20
17.6289
 11
-23.7773
 21
17.7145
  0
LINE
  8
0
 10
-23.7773
 20
17.7145
 11
-23.6044
 21
17.7893
  0
LINE
  8
0
 10
-23.6044
 20
17.7893
 11
-23.427
 21
17.8532
  0
LINE
  8
0
 10
-23.427
 20
17.8532
 11
-23.2461
 21
17.9057
  0
LINE
  8
0
 10
-23.2461
 20
17.9057
 11
-23.0621
 21
17.9469
  0
LINE
  8
0
 10
-23.0621
 20
17.9469
 11
-22.876
 21
17.9763
  0
LINE
  8
0
 10
-22.876
 20
17.9763
 11
-22.6884
 21
17.9941
  0
LINE
  8
0
 10
-22.6884
 20
17.9941
 11
-22.5
 21
18
  0
LINE
  8
0
 10
-22.5
 20
18
 11
-22.3116
 21
17.9941
  0
LINE
  8
0
 10
-22.3116
 20
17.9941
 11
-22.124
 21
17.9763
  0
LINE
  8
0
 10
-22.124
 20
17.9763
 11
-21.9379
 21
17.9469
  0
LINE
  8
0
 10
-21.9379
 20
17.9469
 11
-21.7539
 21
17.9057
  0
LINE
  8
0
 10
-21.7539
 20
17.9057
 11
-21.5729
 21
17.8532
  0
LINE
  8
0
 10
-21.5729
 20
17.8532
 11
-21.3956
 21
17.7893
  0
LINE
  8
0
 10
-21.3956
 20
17.7893
 11
-21.2227
 21
17.7145
  0
LINE
  8
0
 10
-21.2227
 20
17.7145
 11
-21.0547
 21
17.6289
  0
LINE
  8
0
 10
-21.0547
 20
17.6289
 11
-20.8925
 21
17.533
  0
LINE
  8
0
 10
-20.8925
 20
17.533
 11
-20.7366
 21
17.427
  0
LINE
  8
0
 10
-20.7366
 20
17.427
 11
-20.5877
 21
17.3115
  0
LINE
  8
0
 10
-20.5877
 20
17.3115
 11
-20.4464
 21
17.1869
  0
LINE
  8
0
 10
-20.4464
 20
17.1869
 11
-20.3131
 21
17.0536
  0
LINE
  8
0
 10
-20.3131
 20
17.0536
 11
-20.1884
 21
16.9123
  0
LINE
  8
0
 10
-20.1884
 20
16.9123
 11
-20.0729
 21
16.7634
  0
LINE
  8
0
 10
-20.0729
 20
16.7634
 11
-19.967
 21
16.6075
  0
LINE
  8
0
 10
-19.967
 20
16.6075
 11
-19.8711
 21
16.4453
  0
LINE
  8
0
 10
-19.8711
 20
16.4453
 11
-19.7855
 21
16.2773
  0
LINE
  8
0
 10
-19.7855
 20
16.2773
 11
-19.7107
 21
16.1044
  0
LINE
  8
0
 10
-19.7107
 20
16.1044
 11
-19.6468
 21
15.927
  0
LINE
  8
0
 10
-19.6468
 20
15.927
 11
-19.5942
 21
15.7461
  0
LINE
  8
0
 10
-19.5942
 20
15.7461
 11
-19.5531
 21
15.5621
  0
LINE
  8
0
 10
-19.5531
 20
15.5621
 11
-19.5237
 21
15.376
  0
LINE
  8
0
 10
-19.5237
 20
15.376
 11
-19.5059
 21
15.1884
  0
LINE
  8
0
 10
-19.5059
 20
15.1884
 11
-19.5
 21
15
  0
LINE
  8
0
 10
-19.5
 20
15
 11
-19.5059
 21
14.8116
  0
LINE
  8
0
 10
-19.5059
 20
14.8116
 11
-19.5237
 21
14.624
  0
LINE
  8
0
 10
-19.5237
 20
14.624
 11
-19.5531
 21
14.4379
  0
LINE
  8
0
 10
-19.5531
 20
14.4379
 11
-19.5942
 21
14.2539
  0
LINE
  8
0
 10
-19.5942
 20
14.2539
 11
-19.6468
 21
14.0729
  0
LINE
  8
0
 10
-19.6468
 20
14.0729
 11
-19.7107
 21
13.8956
  0
LINE
  8
0
 10
-19.7107
 20
13.8956
 11
-19.7855
 21
13.7227
  0
LINE
  8
0
 10
-19.7855
 20
13.7227
 11
-19.8711
 21
13.5547
  0
LINE
  8
0
 10
-19.8711
 20
13.5547
 11
-19.967
 21
13.3925
  0
LINE
  8
0
 10
-19.967
 20
13.3925
 11
-20.0729
 21
13.2366
  0
LINE
  8
0
 10
-20.0729
 20
13.2366
 11
-20.1884
 21
13.0877
  0
LINE
  8
0
 10
-20.1884
 20
13.0877
 11
-20.3131
 21
12.9464
  0
LINE
  8
0
 10
-20.3131
 20
12.9464
 11
-20.4464
 21
12.8131
  0
LINE
  8
0
 10
-20.4464
 20
12.8131
 11
-20.5877
 21
12.6884
  0
LINE
  8
0
 10
-20.5877
 20
12.6884
 11
-20.7366
 21
12.5729
  0
LINE
  8
0
 10
-20.7366
 20
12.5729
 11
-20.8925
 21
12.467
  0
LINE
  8
0
 10
-20.8925
 20
12.467
 11
-21.0547
 21
12.3711
  0
LINE
  8
0
 10
-21.0547
 20
12.3711
 11
-21.2227
 21
12.2855
  0
LINE
  8
0
 10
-21.2227
 20
12.2855
 11
-21.3956
 21
12.2107
  0
LINE
  8
0
 10
-21.3956
 20
12.2107
 11
-21.5729
 21
12.1468
  0
LINE
  8
0
 10
-21.5729
 20
12.1468
 11
-21.7539
 21
12.0942
  0
LINE
  8
0
 10
-21.7539
 20
12.0942
 11
-21.9379
 21
12.0531
  0
LINE
  8
0
 10
-21.9379
 20
12.0531
 11
-22.124
 21
12.0237
  0
LINE
  8
0
 10
-22.124
 20
12.0237
 11
-22.3116
 21
12.0059
  0
LINE
  8
0
 10
-22.3116
 20
12.0059
 11
-22.5
 21
12
  0
LINE
  8
0
 10
-22.5
 20
12
 11
-22.6884
 21
12.0059
  0
LINE
  8
0
 10
-52.6884
 20
12.0059
 11
-52.876
 21
12.0237
  0
LINE
  8
0
 10
-52.876
 20
12.0237
 11
-53.0621
 21
12.0531
  0
LINE
  8
0
 10
-53.0621
 20
12.0531
 11
-53.2461
 21
12.0942
  0
LINE
  8
0
 10
-53.2461
 20
12.0942
 11
-53.427
 21
12.1468
  0
LINE
  8
0
 10
-53.427
 20
12.1468
 11
-53.6044
 21
12.2107
  0
LINE
  8
0
 10
-53.6044
 20
12.2107
 11
-53.7773
 21
12.2855
  0
LINE
  8
0
 10
-53.7773
 20
12.2855
 11
-53.9453
 21
12.3711
  0
LINE
  8
0
 10
-53.9453
 20
12.3711
 11
-54.1075
 21
12.467
  0
LINE
  8
0
 10
-54.1075
 20
12.467
 11
-54.2634
 21
12.5729
  0
LINE
  8
0
 10
-54.2634
 20
12.5729
 11
-54.4123
 21
12.6884
  0
LINE
  8
0
 10
-54.4123
 20
12.6884
 11
-54.5536
 21
12.8131
  0
LINE
  8
0
 10
-54.5536
 20
12.8131
 11
-54.6869
 21
12.9464
  0
LINE
  8
0
 10
-54.6869
 20
12.9464
 11
-54.8115
 21
13.0877
  0
LINE
  8
0
 10
-54.8115
 20
13.0877
 11
-54.927
 21
13.2366
  0
LINE
  8
0
 10
-54.927
 20
13.2366
 11
-55.033
 21
13.3925
  0
LINE
  8
0
 10
-55.033
 20
13.3925
 11
-55.1289
 21
13.5547
  0
LINE
  8
0
 10
-55.1289
 20
13.5547
 11
-55.2145
 21
13.7227
  0
LINE
  8
0
 10
-55.2145
 20
13.7227
 11
-55.2893
 21
13.8956
  0
LINE
  8
0
 10
-55.2893
 20
13.8956
 11
-55.3532
 21
14.0729
  0
LINE
  8
0
 10
-55.3532
 20
14.0729
 11
-55.4057
 21
14.2539
  0
LINE
  8
0
 10
-55.4057
 20
14.2539
 11
-55.4469
 21
14.4379
  0
LINE
  8
0
 10
-55.4469
 20
14.4379
 11
-55.4763
 21
14.624
  0
LINE
  8
0
 10
-55.4763
 20
14.624
 11
-55.4941
 21
14.8116
  0
LINE
  8
0
 10
-55.4941
 20
14.8116
 11
-55.5
 21
15
  0
LINE
  8
0
 10
-55.5
 20
15
 11
-55.4941
 21
15.1884
  0
LINE
  8
0
 10
-55.4941
 20
15.1884
 11
-55.4763
 21
15.376
  0
LINE
  8
0
 10
-55.4763
 20
15.376
 11
-55.4469
 21
15.5621
  0
LINE
  8
0
 10
-55.4469
 20
15.5621
 11
-55.4057
 21
15.7461
  0
LINE
  8
0
 10
-55.4057
 20
15.7461
 11
-55.3532
 21
15.927
  0
LINE
  8
0
 10
-55.3532
 20
15.927
 11
-55.2893
 21
16.1044
  0
LINE
  8
0
 10
-55.2893
 20
16.1044
 11
-55.2145
 21
16.2773
  0
LINE
  8
0
 10
-55.2145
 20
16.2773
 11
-55.1289
 21
16.4453
  0
LINE
  8
0
 10
-55.1289
 20
16.4453
 11
-55.033
 21
16.6075
  0
LINE
  8
0
 10
-55.033
 20
16.6075
 11
-54.927
 21
16.7634
  0
LINE
  8
0
 10
-54.927
 20
16.7634
 11
-54.8115
 21
16.9123
  0
LINE
  8
0
 10
-54.8115
 20
16.9123
 11
-54.6869
 21
17.0536
  0
LINE
  8
0
 10
-54.6869
 20
17.0536
 11
-54.5536
 21
17.1869
  0
LINE
  8
0
 10
-54.5536
 20
17.1869
 11
-54.4123
 21
17.3115
  0
LINE
  8
0
 10
-54.4123
 20
17.3115
 11
-54.2634
 21
17.427
  0
LINE
  8
0
 10
-54.2634
 20
17.427
 11
-54.1075
 21
17.533
  0
LINE
  8
0
 10
-54.1075
 20
17.533
 11
-53.9453
 21
17.6289
  0
LINE
  8
0
 10
-53.9453
 20
17.6289
 11
-53.7773
 21
17.7145
  0
LINE
  8
0
 10
-53.7773
 20
17.7145
 11
-53.6044
 21
17.7893
  0
LINE
  8
0
 10
-53.6044
 20
17.7893
 11
-53.427
 21
17.8532
  0
LINE
  8
0
 10
-53.427
 20
17.8532
 11
-53.2461
 21
17.9057
  0
LINE
  8
0
 10
-53.2461
 20
17.9057
 11
-53.0621
 21
17.9469
  0
LINE
  8
0
 10
-53.0621
 20
17.9469
 11
-52.876
 21
17.9763
  0
LINE
  8
0
 10
-52.876
 20
17.9763
 11
-52.6884
 21
17.9941
  0
LINE
  8
0
 10
-52.6884
 20
17.9941
 11
-52.5
 21
18
  0
LINE
  8
0
 10
-52.5
 20
18
 11
-52.3116
 21
17.9941
  0
LINE
  8
0
 10
-52.3116
 20
17.9941
 11
-52.124
 21
17.9763
  0
LINE
  8
0
 10
-52.124
 20
17.9763
 11
-51.9379
 21
17.9469
  0
LINE
  8
0
 10
-51.9379
 20
17.9469
 11
-51.7539
 21
17.9057
  0
LINE
  8
0
 10
-51.7539
 20
17.9057
 11
-51.5729
 21
17.8532
  0
LINE
  8
0
 10
-51.5729
 20
17.8532
 11
-51.3956
 21
17.7893
  0
LINE
  8
0
 10
-51.3956
 20
17.7893
 11
-51.2227
 21
17.7145
  0
LINE
  8
0
 10
-51.2227
 20
17.7145
 11
-51.0547
 21
17.6289
  0
LINE
  8
0
 10
-51.0547
 20
17.6289
 11
-50.8925
 21
17.533
  0
LINE
  8
0
 10
-50.8925
 20
17.533
 11
-50.7366
 21
17.427
  0
LINE
  8
0
 10
-50.7366
 20
17.427
 11
-50.5877
 21
17.3115
  0
LINE
  8
0
 10
-50.5877
 20
17.3115
 11
-50.4464
 21
17.1869
  0
LINE
  8
0
 10
-50.4464
 20
17.1869
 11
-50.3131
 21
17.0536
  0
LINE
  8
0
 10
-50.3131
 20
17.0536
 11
-50.1885
 21
16.9123
  0
LINE
  8
0
 10
-50.1885
 20
16.9123
 11
-50.0729
 21
16.7634
  0
LINE
  8
0
 10
-50.0729
 20
16.7634
 11
-49.967
 21
16.6075
  0
LINE
  8
0
 10
-49.967
 20
16.6075
 11
-49.8711
 21
16.4453
  0
LINE
  8
0
 10
-49.8711
 20
16.4453
 11
-49.7855
 21
16.2773
  0
LINE
  8
0
 10
-49.7855
 20
16.2773
 11
-49.7107
 21
16.1044
  0
LINE
  8
0
 10
-49.7107
 20
16.1044
 11
-49.6468
 21
15.927
  0
LINE
  8
0
 10
-49.6468
 20
15.927
 11
-49.5942
 21
15.7461
  0
LINE
  8
0
 10
-49.5942
 20
15.7461
 11
-49.5531
 21
15.5621
  0
LINE
  8
0
 10
-49.5531
 20
15.5621
 11
-49.5237
 21
15.376
  0
LINE
  8
0
 10
-49.5237
 20
15.376
 11
-49.5059
 21
15.1884
  0
LINE
  8
0
 10
-49.5059
 20
15.1884
 11
-49.5
 21
15
  0
LINE
  8
0
 10
-49.5
 20
15
 11
-49.5059
 21
14.8116
  0
LINE
  8
0
 10
-49.5059
 20
14.8116
 11
-49.5237
 21
14.624
  0
LINE
  8
0
 10
-49.5237
 20
14.624
 11
-49.5531
 21
14.4379
  0
LINE
  8
0
 10
-49.5531
 20
14.4379
 11
-49.5942
 21
14.2539
  0
LINE
  8
0
 10
-49.5942
 20
14.2539
 11
-49.6468
 21
14.0729
  0
LINE
  8
0
 10
-49.6468
 20
14.0729
 11
-49.7107
 21
13.8956
  0
LINE
  8
0
 10
-49.7107
 20
13.8956
 11
-49.7855
 21
13.7227
  0
LINE
  8
0
 10
-49.7855
 20
13.7227
 11
-49.8711
 21
13.5547
  0
LINE
  8
0
 10
-49.8711
 20
13.5547
 11
-49.967
 21
13.3925
  0
LINE
  8
0
 10
-49.967
 20
13.3925
 11
-50.0729
 21
13.2366
  0
LINE
  8
0
 10
-50.0729
 20
13.2366
 11
-50.1885
 21
13.0877
  0
LINE
  8
0
 10
-50.1885
 20
13.0877
 11
-50.3131
 21
12.9464
  0
LINE
  8
0
 10
-50.3131
 20
12.9464
 11
-50.4464
 21
12.8131
  0
LINE
  8
0
 10
-50.4464
 20
12.8131
 11
-50.5877
 21
12.6884
  0
LINE
  8
0
 10
-50.5877
 20
12.6884
 11
-50.7366
 21
12.5729
  0
LINE
  8
0
 10
-50.7366
 20
12.5729
 11
-50.8925
 21
12.467
  0
LINE
  8
0
 10
-50.8925
 20
12.467
 11
-51.0547
 21
12.3711
  0
LINE
  8
0
 10
-51.0547
 20
12.3711
 11
-51.2227
 21
12.2855
  0
LINE
  8
0
 10
-51.2227
 20
12.2855
 11
-51.3956
 21
12.2107
  0
LINE
  8
0
 10
-51.3956
 20
12.2107
 11
-51.5729
 21
12.1468
  0
LINE
  8
0
 10
-51.5729
 20
12.1468
 11
-51.7539
 21
12.0942
  0
LINE
  8
0
 10
-51.7539
 20
12.0942
 11
-51.9379
 21
12.0531
  0
LINE
  8
0
 10
-51.9379
 20
12.0531
 11
-52.124
 21
12.0237
  0
LINE
  8
0
 10
-52.124
 20
12.0237
 11
-52.3116
 21
12.0059
  0
LINE
  8
0
 10
-52.3116
 20
12.0059
 11
-52.5
 21
12
  0
LINE
  8
0
 10
-52.5
 20
12
 11
-52.6884
 21
12.0059
  0
LINE
  8
0
 10
37.3116
 20
12.0059
 11
37.124
 21
12.0237
  0
LINE
  8
0
 10
37.124
 20
12.0237
 11
36.9379
 21
12.0531
  0
LINE
  8
0
 10
36.9379
 20
12.0531
 11
36.7539
 21
12.0942
  0
LINE
  8
0
 10
36.7539
 20
12.0942
 11
36.5729
 21
12.1468
  0
LINE
  8
0
 10
36.5729
 20
12.1468
 11
36.3956
 21
12.2107
  0
LINE
  8
0
 10
36.3956
 20
12.2107
 11
36.2227
 21
12.2855
  0
LINE
  8
0
 10
36.2227
 20
12.2855
 11
36.0547
 21
12.3711
  0
LINE
  8
0
 10
36.0547
 20
12.3711
 11
35.8925
 21
12.467
  0
LINE
  8
0
 10
35.8925
 20
12.467
 11
35.7366
 21
12.5729
  0
LINE
  8
0
 10
35.7366
 20
12.5729
 11
35.5877
 21
12.6884
  0
LINE
  8
0
 10
35.5877
 20
12.6884
 11
35.4464
 21
12.8131
  0
LINE
  8
0
 10
35.4464
 20
12.8131
 11
35.3131
 21
12.9464
  0
LINE
  8
0
 10
35.3131
 20
12.9464
 11
35.1885
 21
13.0877
  0
LINE
  8
0
 10
35.1885
 20
13.0877
 11
35.0729
 21
13.2366
  0
LINE
  8
0
 10
35.0729
 20
13.2366
 11
34.967
 21
13.3925
  0
LINE
  8
0
 10
34.967
 20
13.3925
 11
34.8711
 21
13.5547
  0
LINE
  8
0
 10
34.8711
 20
13.5547
 11
34.7855
 21
13.7227
  0
LINE
  8
0
 10
34.7855
 20
13.7227
 11
34.7107
 21
13.8956
  0
LINE
  8
0
 10
34.7107
 20
13.8956
 11
34.6468
 21
14.0729
  0
LINE
  8
0
 10
34.6468
 20
14.0729
 11
34.5942
 21
14.2539
  0
LINE
  8
0
 10
34.5942
 20
14.2539
 11
34.5531
 21
14.4379
  0
LINE
  8
0
 10
34.5531
 20
14.4379
 11
34.5237
 21
14.624
  0
LINE
  8
0
 10
34.5237
 20
14.624
 11
34.5059
 21
14.8116
  0
LINE
  8
0
 10
34.5059
 20
14.8116
 11
34.5
 21
15
  0
LINE
  8
0
 10
34.5
 20
15
 11
34.5059
 21
15.1884
  0
LINE
  8
0
 10
34.5059
 20
15.1884
 11
34.5237
 21
15.376
  0
LINE
  8
0
 10
34.5237
 20
15.376
 11
34.5531
 21
15.5621
  0
LINE
  8
0
 10
34.5531
 20
15.5621
 11
34.5942
 21
15.7461
  0
LINE
  8
0
 10
34.5942
 20
15.7461
 11
34.6468
 21
15.927
  0
LINE
  8
0
 10
34.6468
 20
15.927
 11
34.7107
 21
16.1044
  0
LINE
  8
0
 10
34.7107
 20
16.1044
 11
34.7855
 21
16.2773
  0
LINE
  8
0
 10
34.7855
 20
16.2773
 11
34.8711
 21
16.4453
  0
LINE
  8
0
 10
34.8711
 20
16.4453
 11
34.967
 21
16.6075
  0
LINE
  8
0
 10
34.967
 20
16.6075
 11
35.0729
 21
16.7634
  0
LINE
  8
0
 10
35.0729
 20
16.7634
 11
35.1885
 21
16.9123
  0
LINE
  8
0
 10
35.1885
 20
16.9123
 11
35.3131
 21
17.0536
  0
LINE
  8
0
 10
35.3131
 20
17.0536
 11
35.4464
 21
17.1869
  0
LINE
  8
0
 10
35.4464
 20
17.1869
 11
35.5877
 21
17.3115
  0
LINE
  8
0
 10
35.5877
 20
17.3115
 11
35.7366
 21
17.427
  0
LINE
  8
0
 10
35.7366
 20
17.427
 11
35.8925
 21
17.533
  0
LINE
  8
0
 10
35.8925
 20
17.533
 11
36.0547
 21
17.6289
  0
LINE
  8
0
 10
36.0547
 20
17.6289
 11
36.2227
 21
17.7145
  0
LINE
  8
0
 10
36.2227
 20
17.7145
 11
36.3956
 21
17.7893
  0
LINE
  8
0
 10
36.3956
 20
17.7893
 11
36.5729
 21
17.8532
  0
LINE
  8
0
 10
36.5729
 20
17.8532
 11
36.7539
 21
17.9057
  0
LINE
  8
0
 10
36.7539
 20
17.9057
 11
36.9379
 21
17.9469
  0
LINE
  8
0
 10
36.9379
 20
17.9469
 11
37.124
 21
17.9763
  0
LINE
  8
0
 10
37.124
 20
17.9763
 11
37.3116
 21
17.9941
  0
LINE
  8
0
 10
37.3116
 20
17.9941
 11
37.5
 21
18
  0
LINE
  8
0
 10
37.5
 20
18
 11
37.6884
 21
17.9941
  0
LINE
  8
0
 10
37.6884
 20
17.9941
 11
37.876
 21
17.9763
  0
LINE
  8
0
 10
37.876
 20
17.9763
 11
38.0621
 21
17.9469
  0
LINE
  8
0
 10
38.0621
 20
17.9469
 11
38.2461
 21
17.9057
  0
LINE
  8
0
 10
38.2461
 20
17.9057
 11
38.427
 21
17.8532
  0
LINE
  8
0
 10
38.427
 20
17.8532
 11
38.6044
 21
17.7893
  0
LINE
  8
0
 10
38.6044
 20
17.7893
 11
38.7773
 21
17.7145
  0
LINE
  8
0
 10
38.7773
 20
17.7145
 11
38.9453
 21
17.6289
  0
LINE
  8
0
 10
38.9453
 20
17.6289
 11
39.1075
 21
17.533
  0
LINE
  8
0
 10
39.1075
 20
17.533
 11
39.2634
 21
17.427
  0
LINE
  8
0
 10
39.2634
 20
17.427
 11
39.4123
 21
17.3115
  0
LINE
  8
0
 10
39.4123
 20
17.3115
 11
39.5536
 21
17.1869
  0
LINE
  8
0
 10
39.5536
 20
17.1869
 11
39.6869
 21
17.0536
  0
LINE
  8
0
 10
39.6869
 20
17.0536
 11
39.8115
 21
16.9123
  0
LINE
  8
0
 10
39.8115
 20
16.9123
 11
39.927
 21
16.7634
  0
LINE
  8
0
 10
39.927
 20
16.7634
 11
40.033
 21
16.6075
  0
LINE
  8
0
 10
40.033
 20
16.6075
 11
40.1289
 21
16.4453
  0
LINE
  8
0
 10
40.1289
 20
16.4453
 11
40.2145
 21
16.2773
  0
LINE
  8
0
 10
40.2145
 20
16.2773
 11
40.2893
 21
16.1044
  0
LINE
  8
0
 10
40.2893
 20
16.1044
 11
40.3532
 21
15.927
  0
LINE
  8
0
 10
40.3532
 20
15.927
 11
40.4057
 21
15.7461
  0
LINE
  8
0
 10
40.4057
 20
15.7461
 11
40.4469
 21
15.5621
  0
LINE
  8
0
 10
40.4469
 20
15.5621
 11
40.4763
 21
15.376
  0
LINE
  8
0
 10
40.4763
 20
15.376
 11
40.4941
 21
15.1884
  0
LINE
  8
0
 10
40.4941
 20
15.1884
 11
40.5
 21
15
  0
LINE
  8
0
 10
40.5
 20
15
 11
40.4941
 21
14.8116
  0
LINE
  8
0
 10
40.4941
 20
14.8116
 11
40.4763
 21
14.624
  0
LINE
  8
0
 10
40.4763
 20
14.624
 11
40.4469
 21
14.4379
  0
LINE
  8
0
 10
40.4469
 20
14.4379
 11
40.4057
 21
14.2539
  0
LINE
  8
0
 10
40.4057
 20
14.2539
 11
40.3532
 21
14.0729
  0
LINE
  8
0
 10
40.3532
 20
14.0729
 11
40.2893
 21
13.8956
  0
LINE
  8
0
 10
40.2893
 20
13.8956
 11
40.2145
 21
13.7227
  0
LINE
  8
0
 10
40.2145
 20
13.7227
 11
40.1289
 21
13.5547
  0
LINE
  8
0
 10
40.1289
 20
13.5547
 11
40.033
 21
13.3925
  0
LINE
  8
0
 10
40.033
 20
13.3925
 11
39.927
 21
13.2366
  0
LINE
  8
0
 10
39.927
 20
13.2366
 11
39.8115
 21
13.0877
  0
LINE
  8
0
 10
39.8115
 20
13.0877
 11
39.6869
 21
12.9464
  0
LINE
  8
0
 10
39.6869
 20
12.9464
 11
39.5536
 21
12.8131
  0
LINE
  8
0
 10
39.5536
 20
12.8131
 11
39.4123
 21
12.6884
  0
LINE
  8
0
 10
39.4123
 20
12.6884
 11
39.2634
 21
12.5729
  0
LINE
  8
0
 10
39.2634
 20
12.5729
 11
39.1075
 21
12.467
  0
LINE
  8
0
 10
39.1075
 20
12.467
 11
38.9453
 21
12.3711
  0
LINE
  8
0
 10
38.9453
 20
12.3711
 11
38.7773
 21
12.2855
  0
LINE
  8
0
 10
38.7773
 20
12.2855
 11
38.6044
 21
12.2107
  0
LINE
  8
0
 10
38.6044
 20
12.2107
 11
38.427
 21
12.1468
  0
LINE
  8
0
 10
38.427
 20
12.1468
 11
38.2461
 21
12.0942
  0
LINE
  8
0
 10
38.2461
 20
12.0942
 11
38.0621
 21
12.0531
  0
LINE
  8
0
 10
38.0621
 20
12.0531
 11
37.876
 21
12.0237
  0
LINE
  8
0
 10
37.876
 20
12.0237
 11
37.6884
 21
12.0059
  0
LINE
  8
0
 10
37.6884
 20
12.0059
 11
37.5
 21
12
  0
LINE
  8
0
 10
37.5
 20
12
 11
37.3116
 21
12.0059
  0
LINE
  8
0
 10
-37.6884
 20
12.0059
 11
-37.876
 21
12.0237
  0
LINE
  8
0
 10
-37.876
 20
12.0237
 11
-38.0621
 21
12.0531
  0
LINE
  8
0
 10
-38.0621
 20
12.0531
 11
-38.2461
 21
12.0942
  0
LINE
  8
0
 10
-38.2461
 20
12.0942
 11
-38.427
 21
12.1468
  0
LINE
  8
0
 10
-38.427
 20
12.1468
 11
-38.6044
 21
12.2107
  0
LINE
  8
0
 10
-38.6044
 20
12.2107
 11
-38.7773
 21
12.2855
  0
LINE
  8
0
 10
-38.7773
 20
12.2855
 11
-38.9453
 21
12.3711
  0
LINE
  8
0
 10
-38.9453
 20
12.3711
 11
-39.1075
 21
12.467
  0
LINE
  8
0
 10
-39.1075
 20
12.467
 11
-39.2634
 21
12.5729
  0
LINE
  8
0
 10
-39.2634
 20
12.5729
 11
-39.4123
 21
12.6884
  0
LINE
  8
0
 10
-39.4123
 20
12.6884
 11
-39.5536
 21
12.8131
  0
LINE
  8
0
 10
-39.5536
 20
12.8131
 11
-39.6869
 21
12.9464
  0
LINE
  8
0
 10
-39.6869
 20
12.9464
 11
-39.8115
 21
13.0877
  0
LINE
  8
0
 10
-39.8115
 20
13.0877
 11
-39.927
 21
13.2366
  0
LINE
  8
0
 10
-39.927
 20
13.2366
 11
-40.033
 21
13.3925
  0
LINE
  8
0
 10
-40.033
 20
13.3925
 11
-40.1289
 21
13.5547
  0
LINE
  8
0
 10
-40.1289
 20
13.5547
 11
-40.2145
 21
13.7227
  0
LINE
  8
0
 10
-40.2145
 20
13.7227
 11
-40.2893
 21
13.8956
  0
LINE
  8
0
 10
-40.2893
 20
13.8956
 11
-40.3532
 21
14.0729
  0
LINE
  8
0
 10
-40.3532
 20
14.0729
 11
-40.4057
 21
14.2539
  0
LINE
  8
0
 10
-40.4057
 20
14.2539
 11
-40.4469
 21
14.4379
  0
LINE
  8
0
 10
-40.4469
 20
14.4379
 11
-40.4763
 21
14.624
  0
LINE
  8
0
 10
-40.4763
 20
14.624
 11
-40.4941
 21
14.8116
  0
LINE
  8
0
 10
-40.4941
 20
14.8116
 11
-40.5
 21
15
  0
LINE
  8
0
 10
-40.5
 20
15
 11
-40.4941
 21
15.1884
  0
LINE
  8
0
 10
-40.4941
 20
15.1884
 11
-40.4763
 21
15.376
  0
LINE
  8
0
 10
-40.4763
 20
15.376
 11
-40.4469
 21
15.5621
  0
LINE
  8
0
 10
-40.4469
 20
15.5621
 11
-40.4057
 21
15.7461
  0
LINE
  8
0
 10
-40.4057
 20
15.7461
 11
-40.3532
 21
15.927
  0
LINE
  8
0
 10
-40.3532
 20
15.927
 11
-40.2893
 21
16.1044
  0
LINE
  8
0
 10
-40.2893
 20
16.1044
 11
-40.2145
 21
16.2773
  0
LINE
  8
0
 10
-40.2145
 20
16.2773
 11
-40.1289
 21
16.4453
  0
LINE
  8
0
 10
-40.1289
 20
16.4453
 11
-40.033
 21
16.6075
  0
LINE
  8
0
 10
-40.033
 20
16.6075
 11
-39.927
 21
16.7634
  0
LINE
  8
0
 10
-39.927
 20
16.7634
 11
-39.8115
 21
16.9123
  0
LINE
  8
0
 10
-39.8115
 20
16.9123
 11
-39.6869
 21
17.0536
  0
LINE
  8
0
 10
-39.6869
 20
17.0536
 11
-39.5536
 21
17.1869
  0
LINE
  8
0
 10
-39.5536
 20
17.1869
 11
-39.4123
 21
17.3115
  0
LINE
  8
0
 10
-39.4123
 20
17.3115
 11
-39.2634
 21
17.427
  0
LINE
  8
0
 10
-39.2634
 20
17.427
 11
-39.1075
 21
17.533
  0
LINE
  8
0
 10
-39.1075
 20
17.533
 11
-38.9453
 21
17.6289
  0
LINE
  8
0
 10
-38.9453
 20
17.6289
 11
-38.7773
 21
17.7145
  0
LINE
  8
0
 10
-38.7773
 20
17.7145
 11
-38.6044
 21
17.7893
  0
LINE
  8
0
 10
-38.6044
 20
17.7893
 11
-38.427
 21
17.8532
  0
LINE
  8
0
 10
-38.427
 20
17.8532
 11
-38.2461
 21
17.9057
  0
LINE
  8
0
 10
-38.2461
 20
17.9057
 11
-38.0621
 21
17.9469
  0
LINE
  8
0
 10
-38.0621
 20
17.9469
 11
-37.876
 21
17.9763
  0
LINE
  8
0
 10
-37.876
 20
17.9763
 11
-37.6884
 21
17.9941
  0
LINE
  8
0
 10
-37.6884
 20
17.9941
 11
-37.5
 21
18
  0
LINE
  8
0
 10
-37.5
 20
18
 11
-37.3116
 21
17.9941
  0
LINE
  8
0
 10
-37.3116
 20
17.9941
 11
-37.124
 21
17.9763
  0
LINE
  8
0
 10
-37.124
 20
17.9763
 11
-36.9379
 21
17.9469
  0
LINE
  8
0
 10
-36.9379
 20
17.9469
 11
-36.7539
 21
17.9057
  0
LINE
  8
0
 10
-36.7539
 20
17.9057
 11
-36.5729
 21
17.8532
  0
LINE
  8
0
 10
-36.5729
 20
17.8532
 11
-36.3956
 21
17.7893
  0
LINE
  8
0
 10
-36.3956
 20
17.7893
 11
-36.2227
 21
17.7145
  0
LINE
  8
0
 10
-36.2227
 20
17.7145
 11
-36.0547
 21
17.6289
  0
LINE
  8
0
 10
-36.0547
 20
17.6289
 11
-35.8925
 21
17.533
  0
LINE
  8
0
 10
-35.8925
 20
17.533
 11
-35.7366
 21
17.427
  0
LINE
  8
0
 10
-35.7366
 20
17.427
 11
-35.5877
 21
17.3115
  0
LINE
  8
0
 10
-35.5877
 20
17.3115
 11
-35.4464
 21
17.1869
  0
LINE
  8
0
 10
-35.4464
 20
17.1869
 11
-35.3131
 21
17.0536
  0
LINE
  8
0
 10
-35.3131
 20
17.0536
 11
-35.1885
 21
16.9123
  0
LINE
  8
0
 10
-35.1885
 20
16.9123
 11
-35.0729
 21
16.7634
  0
LINE
  8
0
 10
-35.0729
 20
16.7634
 11
-34.967
 21
16.6075
  0
LINE
  8
0
 10
-34.967
 20
16.6075
 11
-34.8711
 21
16.4453
  0
LINE
  8
0
 10
-34.8711
 20
16.4453
 11
-34.7855
 21
16.2773
  0
LINE
  8
0
 10
-34.7855
 20
16.2773
 11
-34.7107
 21
16.1044
  0
LINE
  8
0
 10
-34.7107
 20
16.1044
 11
-34.6468
 21
15.927
  0
LINE
  8
0
 10
-34.6468
 20
15.927
 11
-34.5942
 21
15.7461
  0
LINE
  8
0
 10
-34.5942
 20
15.7461
 11
-34.5531
 21
15.5621
  0
LINE
  8
0
 10
-34.5531
 20
15.5621
 11
-34.5237
 21
15.376
  0
LINE
  8
0
 10
-34.5237
 20
15.376
 11
-34.5059
 21
15.1884
  0
LINE
  8
0
 10
-34.5059
 20
15.1884
 11
-34.5
 21
15
  0
LINE
  8
0
 10
-34.5
 20
15
 11
-34.5059
 21
14.8116
  0
LINE
  8
0
 10
-34.5059
 20
14.8116
 11
-34.5237
 21
14.624
  0
LINE
  8
0
 10
-34.5237
 20
14.624
 11
-34.5531
 21
14.4379
  0
LINE
  8
0
 10
-34.5531
 20
14.4379
 11
-34.5942
 21
14.2539
  0
LINE
  8
0
 10
-34.5942
 20
14.2539
 11
-34.6468
 21
14.0729
  0
LINE
  8
0
 10
-34.6468
 20
14.0729
 11
-34.7107
 21
13.8956
  0
LINE
  8
0
 10
-34.7107
 20
13.8956
 11
-34.7855
 21
13.7227
  0
LINE
  8
0
 10
-34.7855
 20
13.7227
 11
-34.8711
 21
13.5547
  0
LINE
  8
0
 10
-34.8711
 20
13.5547
 11
-34.967
 21
13.3925
  0
LINE
  8
0
 10
-34.967
 20
13.3925
 11
-35.0729
 21
13.2366
  0
LINE
  8
0
 10
-35.0729
 20
13.2366
 11
-35.1885
 21
13.0877
  0
LINE
  8
0
 10
-35.1885
 20
13.0877
 11
-35.3131
 21
12.9464
  0
LINE
  8
0
 10
-35.3131
 20
12.9464
 11
-35.4464
 21
12.8131
  0
LINE
  8
0
 10
-35.4464
 20
12.8131
 11
-35.5877
 21
12.6884
  0
LINE
  8
0
 10
-35.5877
 20
12.6884
 11
-35.7366
 21
12.5729
  0
LINE
  8
0
 10
-35.7366
 20
12.5729
 11
-35.8925
 21
12.467
  0
LINE
  8
0
 10
-35.8925
 20
12.467
 11
-36.0547
 21
12.3711
  0
LINE
  8
0
 10
-36.0547
 20
12.3711
 11
-36.2227
 21
12.2855
  0
LINE
  8
0
 10
-36.2227
 20
12.2855
 11
-36.3956
 21
12.2107
  0
LINE
  8
0
 10
-36.3956
 20
12.2107
 11
-36.5729
 21
12.1468
  0
LINE
  8
0
 10
-36.5729
 20
12.1468
 11
-36.7539
 21
12.0942
  0
LINE
  8
0
 10
-36.7539
 20
12.0942
 11
-36.9379
 21
12.0531
  0
LINE
  8
0
 10
-36.9379
 20
12.0531
 11
-37.124
 21
12.0237
  0
LINE
  8
0
 10
-37.124
 20
12.0237
 11
-37.3116
 21
12.0059
  0
LINE
  8
0
 10
-37.3116
 20
12.0059
 11
-37.5
 21
12
  0
LINE
  8
0
 10
-37.5
 20
12
 11
-37.6884
 21
12.0059
  0
LINE
  8
0
 10
52.3116
 20
12.0059
 11
52.124
 21
12.0237
  0
LINE
  8
0
 10
52.124
 20
12.0237
 11
51.9379
 21
12.0531
  0
LINE
  8
0
 10
51.9379
 20
12.0531
 11
51.7539
 21
12.0942
  0
LINE
  8
0
 10
51.7539
 20
12.0942
 11
51.5729
 21
12.1468
  0
LINE
  8
0
 10
51.5729
 20
12.1468
 11
51.3956
 21
12.2107
  0
LINE
  8
0
 10
51.3956
 20
12.2107
 11
51.2227
 21
12.2855
  0
LINE
  8
0
 10
51.2227
 20
12.2855
 11
51.0547
 21
12.3711
  0
LINE
  8
0
 10
51.0547
 20
12.3711
 11
50.8925
 21
12.467
  0
LINE
  8
0
 10
50.8925
 20
12.467
 11
50.7366
 21
12.5729
  0
LINE
  8
0
 10
50.7366
 20
12.5729
 11
50.5877
 21
12.6884
  0
LINE
  8
0
 10
50.5877
 20
12.6884
 11
50.4464
 21
12.8131
  0
LINE
  8
0
 10
50.4464
 20
12.8131
 11
50.3131
 21
12.9464
  0
LINE
  8
0
 10
50.3131
 20
12.9464
 11
50.1885
 21
13.0877
  0
LINE
  8
0
 10
50.1885
 20
13.0877
 11
50.0729
 21
13.2366
  0
LINE
  8
0
 10
50.0729
 20
13.2366
 11
49.967
 21
13.3925
  0
LINE
  8
0
 10
49.967
 20
13.3925
 11
49.8711
 21
13.5547
  0
LINE
  8
0
 10
49.8711
 20
13.5547
 11
49.7855
 21
13.7227
  0
LINE
  8
0
 10
49.7855
 20
13.7227
 11
49.7107
 21
13.8956
  0
LINE
  8
0
 10
49.7107
 20
13.8956
 11
49.6468
 21
14.0729
  0
LINE
  8
0
 10
49.6468
 20
14.0729
 11
49.5942
 21
14.2539
  0
LINE
  8
0
 10
49.5942
 20
14.2539
 11
49.5531
 21
14.4379
  0
LINE
  8
0
 10
49.5531
 20
14.4379
 11
49.5237
 21
14.624
  0
LINE
  8
0
 10
49.5237
 20
14.624
 11
49.5059
 21
14.8116
  0
LINE
  8
0
 10
49.5059
 20
14.8116
 11
49.5
 21
15
  0
LINE
  8
0
 10
49.5
 20
15
 11
49.5059
 21
15.1884
  0
LINE
  8
0
 10
49.5059
 20
15.1884
 11
49.5237
 21
15.376
  0
LINE
  8
0
 10
49.5237
 20
15.376
 11
49.5531
 21
15.5621
  0
LINE
  8
0
 10
49.5531
 20
15.5621
 11
49.5942
 21
15.7461
  0
LINE
  8
0
 10
49.5942
 20
15.7461
 11
49.6468
 21
15.927
  0
LINE
  8
0
 10
49.6468
 20
15.927
 11
49.7107
 21
16.1044
  0
LINE
  8
0
 10
49.7107
 20
16.1044
 11
49.7855
 21
16.2773
  0
LINE
  8
0
 10
49.7855
 20
16.2773
 11
49.8711
 21
16.4453
  0
LINE
  8
0
 10
49.8711
 20
16.4453
 11
49.967
 21
16.6075
  0
LINE
  8
0
 10
49.967
 20
16.6075
 11
50.0729
 21
16.7634
  0
LINE
  8
0
 10
50.0729
 20
16.7634
 11
50.1885
 21
16.9123
  0
LINE
  8
0
 10
50.1885
 20
16.9123
 11
50.3131
 21
17.0536
  0
LINE
  8
0
 10
50.3131
 20
17.0536
 11
50.4464
 21
17.1869
  0
LINE
  8
0
 10
50.4464
 20
17.1869
 11
50.5877
 21
17.3115
  0
LINE
  8
0
 10
50.5877
 20
17.3115
 11
50.7366
 21
17.427
  0
LINE
  8
0
 10
50.7366
 20
17.427
 11
50.8925
 21
17.533
  0
LINE
  8
0
 10
50.8925
 20
17.533
 11
51.0547
 21
17.6289
  0
LINE
  8
0
 10
51.0547
 20
17.6289
 11
51.2227
 21
17.7145
  0
LINE
  8
0
 10
51.2227
 20
17.7145
 11
51.3956
 21
17.7893
  0
LINE
  8
0
 10
51.3956
 20
17.7893
 11
51.5729
 21
17.8532
  0
LINE
  8
0
 10
51.5729
 20
17.8532
 11
51.7539
 21
17.9057
  0
LINE
  8
0
 10
51.7539
 20
17.9057
 11
51.9379
 21
17.9469
  0
LINE
  8
0
 10
51.9379
 20
17.9469
 11
52.124
 21
17.9763
  0
LINE
  8
0
 10
52.124
 20
17.9763
 11
52.3116
 21
17.9941
  0
LINE
  8
0
 10
52.3116
 20
17.9941
 11
52.5
 21
18
  0
LINE
  8
0
 10
52.5
 20
18
 11
52.6884
 21
17.9941
  0
LINE
  8
0
 10
52.6884
 20
17.9941
 11
52.876
 21
17.9763
  0
LINE
  8
0
 10
52.876
 20
17.9763
 11
53.0621
 21
17.9469
  0
LINE
  8
0
 10
53.0621
 20
17.9469
 11
53.2461
 21
17.9057
  0
LINE
  8
0
 10
53.2461
 20
17.9057
 11
53.427
 21
17.8532
  0
LINE
  8
0
 10
53.427
 20
17.8532
 11
53.6044
 21
17.7893
  0
LINE
  8
0
 10
53.6044
 20
17.7893
 11
53.7773
 21
17.7145
  0
LINE
  8
0
 10
53.7773
 20
17.7145
 11
53.9453
 21
17.6289
  0
LINE
  8
0
 10
53.9453
 20
17.6289
 11
54.1075
 21
17.533
  0
LINE
  8
0
 10
54.1075
 20
17.533
 11
54.2634
 21
17.427
  0
LINE
  8
0
 10
54.2634
 20
17.427
 11
54.4123
 21
17.3115
  0
LINE
  8
0
 10
54.4123
 20
17.3115
 11
54.5536
 21
17.1869
  0
LINE
  8
0
 10
54.5536
 20
17.1869
 11
54.6869
 21
17.0536
  0
LINE
  8
0
 10
54.6869
 20
17.0536
 11
54.8115
 21
16.9123
  0
LINE
  8
0
 10
54.8115
 20
16.9123
 11
54.927
 21
16.7634
  0
LINE
  8
0
 10
54.927
 20
16.7634
 11
55.033
 21
16.6075
  0
LINE
  8
0
 10
55.033
 20
16.6075
 11
55.1289
 21
16.4453
  0
LINE
  8
0
 10
55.1289
 20
16.4453
 11
55.2145
 21
16.2773
  0
LINE
  8
0
 10
55.2145
 20
16.2773
 11
55.2893
 21
16.1044
  0
LINE
  8
0
 10
55.2893
 20
16.1044
 11
55.3532
 21
15.927
  0
LINE
  8
0
 10
55.3532
 20
15.927
 11
55.4057
 21
15.7461
  0
LINE
  8
0
 10
55.4057
 20
15.7461
 11
55.4469
 21
15.5621
  0
LINE
  8
0
 10
55.4469
 20
15.5621
 11
55.4763
 21
15.376
  0
LINE
  8
0
 10
55.4763
 20
15.376
 11
55.4941
 21
15.1884
  0
LINE
  8
0
 10
55.4941
 20
15.1884
 11
55.5
 21
15
  0
LINE
  8
0
 10
55.5
 20
15
 11
55.4941
 21
14.8116
  0
LINE
  8
0
 10
55.4941
 20
14.8116
 11
55.4763
 21
14.624
  0
LINE
  8
0
 10
55.4763
 20
14.624
 11
55.4469
 21
14.4379
  0
LINE
  8
0
 10
55.4469
 20
14.4379
 11
55.4057
 21
14.2539
  0
LINE
  8
0
 10
55.4057
 20
14.2539
 11
55.3532
 21
14.0729
  0
LINE
  8
0
 10
55.3532
 20
14.0729
 11
55.2893
 21
13.8956
  0
LINE
  8
0
 10
55.2893
 20
13.8956
 11
55.2145
 21
13.7227
  0
LINE
  8
0
 10
55.2145
 20
13.7227
 11
55.1289
 21
13.5547
  0
LINE
  8
0
 10
55.1289
 20
13.5547
 11
55.033
 21
13.3925
  0
LINE
  8
0
 10
55.033
 20
13.3925
 11
54.927
 21
13.2366
  0
LINE
  8
0
 10
54.927
 20
13.2366
 11
54.8115
 21
13.0877
  0
LINE
  8
0
 10
54.8115
 20
13.0877
 11
54.6869
 21
12.9464
  0
LINE
  8
0
 10
54.6869
 20
12.9464
 11
54.5536
 21
12.8131
  0
LINE
  8
0
 10
54.5536
 20
12.8131
 11
54.4123
 21
12.6884
  0
LINE
  8
0
 10
54.4123
 20
12.6884
 11
54.2634
 21
12.5729
  0
LINE
  8
0
 10
54.2634
 20
12.5729
 11
54.1075
 21
12.467
  0
LINE
  8
0
 10
54.1075
 20
12.467
 11
53.9453
 21
12.3711
  0
LINE
  8
0
 10
53.9453
 20
12.3711
 11
53.7773
 21
12.2855
  0
LINE
  8
0
 10
53.7773
 20
12.2855
 11
53.6044
 21
12.2107
  0
LINE
  8
0
 10
53.6044
 20
12.2107
 11
53.427
 21
12.1468
  0
LINE
  8
0
 10
53.427
 20
12.1468
 11
53.2461
 21
12.0942
  0
LINE
  8
0
 10
53.2461
 20
12.0942
 11
53.0621
 21
12.0531
  0
LINE
  8
0
 10
53.0621
 20
12.0531
 11
52.876
 21
12.0237
  0
LINE
  8
0
 10
52.876
 20
12.0237
 11
52.6884
 21
12.0059
  0
LINE
  8
0
 10
52.6884
 20
12.0059
 11
52.5
 21
12
  0
LINE
  8
0
 10
52.5
 20
12
 11
52.3116
 21
12.0059
  0
LINE
  8
0
 10
22.3116
 20
12.0059
 11
22.124
 21
12.0237
  0
LINE
  8
0
 10
22.124
 20
12.0237
 11
21.9379
 21
12.0531
  0
LINE
  8
0
 10
21.9379
 20
12.0531
 11
21.7539
 21
12.0942
  0
LINE
  8
0
 10
21.7539
 20
12.0942
 11
21.5729
 21
12.1468
  0
LINE
  8
0
 10
21.5729
 20
12.1468
 11
21.3956
 21
12.2107
  0
LINE
  8
0
 10
21.3956
 20
12.2107
 11
21.2227
 21
12.2855
  0
LINE
  8
0
 10
21.2227
 20
12.2855
 11
21.0547
 21
12.3711
  0
LINE
  8
0
 10
21.0547
 20
12.3711
 11
20.8925
 21
12.467
  0
LINE
  8
0
 10
20.8925
 20
12.467
 11
20.7366
 21
12.5729
  0
LINE
  8
0
 10
20.7366
 20
12.5729
 11
20.5877
 21
12.6884
  0
LINE
  8
0
 10
20.5877
 20
12.6884
 11
20.4464
 21
12.8131
  0
LINE
  8
0
 10
20.4464
 20
12.8131
 11
20.3131
 21
12.9464
  0
LINE
  8
0
 10
20.3131
 20
12.9464
 11
20.1884
 21
13.0877
  0
LINE
  8
0
 10
20.1884
 20
13.0877
 11
20.0729
 21
13.2366
  0
LINE
  8
0
 10
20.0729
 20
13.2366
 11
19.967
 21
13.3925
  0
LINE
  8
0
 10
19.967
 20
13.3925
 11
19.8711
 21
13.5547
  0
LINE
  8
0
 10
19.8711
 20
13.5547
 11
19.7855
 21
13.7227
  0
LINE
  8
0
 10
19.7855
 20
13.7227
 11
19.7107
 21
13.8956
  0
LINE
  8
0
 10
19.7107
 20
13.8956
 11
19.6468
 21
14.0729
  0
LINE
  8
0
 10
19.6468
 20
14.0729
 11
19.5942
 21
14.2539
  0
LINE
  8
0
 10
19.5942
 20
14.2539
 11
19.5531
 21
14.4379
  0
LINE
  8
0
 10
19.5531
 20
14.4379
 11
19.5237
 21
14.624
  0
LINE
  8
0
 10
19.5237
 20
14.624
 11
19.5059
 21
14.8116
  0
LINE
  8
0
 10
19.5059
 20
14.8116
 11
19.5
 21
15
  0
LINE
  8
0
 10
19.5
 20
15
 11
19.5059
 21
15.1884
  0
LINE
  8
0
 10
19.5059
 20
15.1884
 11
19.5237
 21
15.376
  0
LINE
  8
0
 10
19.5237
 20
15.376
 11
19.5531
 21
15.5621
  0
LINE
  8
0
 10
19.5531
 20
15.5621
 11
19.5942
 21
15.7461
  0
LINE
  8
0
 10
19.5942
 20
15.7461
 11
19.6468
 21
15.927
  0
LINE
  8
0
 10
19.6468
 20
15.927
 11
19.7107
 21
16.1044
  0
LINE
  8
0
 10
19.7107
 20
16.1044
 11
19.7855
 21
16.2773
  0
LINE
  8
0
 10
19.7855
 20
16.2773
 11
19.8711
 21
16.4453
  0
LINE
  8
0
 10
19.8711
 20
16.4453
 11
19.967
 21
16.6075
  0
LINE
  8
0
 10
19.967
 20
16.6075
 11
20.0729
 21
16.7634
  0
LINE
  8
0
 10
20.0729
 20
16.7634
 11
20.1884
 21
16.9123
  0
LINE
  8
0
 10
20.1884
 20
16.9123
 11
20.3131
 21
17.0536
  0
LINE
  8
0
 10
20.3131
 20
17.0536
 11
20.4464
 21
17.1869
  0
LINE
  8
0
 10
20.4464
 20
17.1869
 11
20.5877
 21
17.3115
  0
LINE
  8
0
 10
20.5877
 20
17.3115
 11
20.7366
 21
17.427
  0
LINE
  8
0
 10
20.7366
 20
17.427
 11
20.8925
 21
17.533
  0
LINE
  8
0
 10
20.8925
 20
17.533
 11
21.0547
 21
17.6289
  0
LINE
  8
0
 10
21.0547
 20
17.6289
 11
21.2227
 21
17.7145
  0
LINE
  8
0
 10
21.2227
 20
17.7145
 11
21.3956
 21
17.7893
  0
LINE
  8
0
 10
21.3956
 20
17.7893
 11
21.5729
 21
17.8532
  0
LINE
  8
0
 10
21.5729
 20
17.8532
 11
21.7539
 21
17.9057
  0
LINE
  8
0
 10
21.7539
 20
17.9057
 11
21.9379
 21
17.9469
  0
LINE
  8
0
 10
21.9379
 20
17.9469
 11
22.124
 21
17.9763
  0
LINE
  8
0
 10
22.124
 20
17.9763
 11
22.3116
 21
17.9941
  0
LINE
  8
0
 10
22.3116
 20
17.9941
 11
22.5
 21
18
  0
LINE
  8
0
 10
22.5
 20
18
 11
22.6884
 21
17.9941
  0
LINE
  8
0
 10
22.6884
 20
17.9941
 11
22.876
 21
17.9763
  0
LINE
  8
0
 10
22.876
 20
17.9763
 11
23.0621
 21
17.9469
  0
LINE
  8
0
 10
23.0621
 20
17.9469
 11
23.2461
 21
17.9057
  0
LINE
  8
0
 10
23.2461
 20
17.9057
 11
23.427
 21
17.8532
  0
LINE
  8
0
 10
23.427
 20
17.8532
 11
23.6044
 21
17.7893
  0
LINE
  8
0
 10
23.6044
 20
17.7893
 11
23.7773
 21
17.7145
  0
LINE
  8
0
 10
23.7773
 20
17.7145
 11
23.9453
 21
17.6289
  0
LINE
  8
0
 10
23.9453
 20
17.6289
 11
24.1075
 21
17.533
  0
LINE
  8
0
 10
24.1075
 20
17.533
 11
24.2634
 21
17.427
  0
LINE
  8
0
 10
24.2634
 20
17.427
 11
24.4123
 21
17.3115
  0
LINE
  8
0
 10
24.4123
 20
17.3115
 11
24.5536
 21
17.1869
  0
LINE
  8
0
 10
24.5536
 20
17.1869
 11
24.6869
 21
17.0536
  0
LINE
  8
0
 10
24.6869
 20
17.0536
 11
24.8115
 21
16.9123
  0
LINE
  8
0
 10
24.8115
 20
16.9123
 11
24.927
 21
16.7634
  0
LINE
  8
0
 10
24.927
 20
16.7634
 11
25.033
 21
16.6075
  0
LINE
  8
0
 10
25.033
 20
16.6075
 11
25.1289
 21
16.4453
  0
LINE
  8
0
 10
25.1289
 20
16.4453
 11
25.2145
 21
16.2773
  0
LINE
  8
0
 10
25.2145
 20
16.2773
 11
25.2893
 21
16.1044
  0
LINE
  8
0
 10
25.2893
 20
16.1044
 11
25.3532
 21
15.927
  0
LINE
  8
0
 10
25.3532
 20
15.927
 11
25.4057
 21
15.7461
  0
LINE
  8
0
 10
25.4057
 20
15.7461
 11
25.4469
 21
15.5621
  0
LINE
  8
0
 10
25.4469
 20
15.5621
 11
25.4763
 21
15.376
  0
LINE
  8
0
 10
25.4763
 20
15.376
 11
25.4941
 21
15.1884
  0
LINE
  8
0
 10
25.4941
 20
15.1884
 11
25.5
 21
15
  0
LINE
  8
0
 10
25.5
 20
15
 11
25.4941
 21
14.8116
  0
LINE
  8
0
 10
25.4941
 20
14.8116
 11
25.4763
 21
14.624
  0
LINE
  8
0
 10
25.4763
 20
14.624
 11
25.4469
 21
14.4379
  0
LINE
  8
0
 10
25.4469
 20
14.4379
 11
25.4057
 21
14.2539
  0
LINE
  8
0
 10
25.4057
 20
14.2539
 11
25.3532
 21
14.0729
  0
LINE
  8
0
 10
25.3532
 20
14.0729
 11
25.2893
 21
13.8956
  0
LINE
  8
0
 10
25.2893
 20
13.8956
 11
25.2145
 21
13.7227
  0
LINE
  8
0
 10
25.2145
 20
13.7227
 11
25.1289
 21
13.5547
  0
LINE
  8
0
 10
25.1289
 20
13.5547
 11
25.033
 21
13.3925
  0
LINE
  8
0
 10
25.033
 20
13.3925
 11
24.927
 21
13.2366
  0
LINE
  8
0
 10
24.927
 20
13.2366
 11
24.8115
 21
13.0877
  0
LINE
  8
0
 10
24.8115
 20
13.0877
 11
24.6869
 21
12.9464
  0
LINE
  8
0
 10
24.6869
 20
12.9464
 11
24.5536
 21
12.8131
  0
LINE
  8
0
 10
24.5536
 20
12.8131
 11
24.4123
 21
12.6884
  0
LINE
  8
0
 10
24.4123
 20
12.6884
 11
24.2634
 21
12.5729
  0
LINE
  8
0
 10
24.2634
 20
12.5729
 11
24.1075
 21
12.467
  0
LINE
  8
0
 10
24.1075
 20
12.467
 11
23.9453
 21
12.3711
  0
LINE
  8
0
 10
23.9453
 20
12.3711
 11
23.7773
 21
12.2855
  0
LINE
  8
0
 10
23.7773
 20
12.2855
 11
23.6044
 21
12.2107
  0
LINE
  8
0
 10
23.6044
 20
12.2107
 11
23.427
 21
12.1468
  0
LINE
  8
0
 10
23.427
 20
12.1468
 11
23.2461
 21
12.0942
  0
LINE
  8
0
 10
23.2461
 20
12.0942
 11
23.0621
 21
12.0531
  0
LINE
  8
0
 10
23.0621
 20
12.0531
 11
22.876
 21
12.0237
  0
LINE
  8
0
 10
22.876
 20
12.0237
 11
22.6884
 21
12.0059
  0
LINE
  8
0
 10
22.6884
 20
12.0059
 11
22.5
 21
12
  0
LINE
  8
0
 10
22.5
 20
12
 11
22.3116
 21
12.0059
  0
LINE
  8
0
 10
-7.68837
 20
-2.99408
 11
-7.87599
 21
-2.97633
  0
LINE
  8
0
 10
-7.87599
 20
-2.97633
 11
-8.06213
 21
-2.94685
  0
LINE
  8
0
 10
-8.06213
 20
-2.94685
 11
-8.24606
 21
-2.90575
  0
LINE
  8
0
 10
-8.24606
 20
-2.90575
 11
-8.42705
 21
-2.85316
  0
LINE
  8
0
 10
-8.42705
 20
-2.85316
 11
-8.60437
 21
-2.78932
  0
LINE
  8
0
 10
-8.60437
 20
-2.78932
 11
-8.77733
 21
-2.71448
  0
LINE
  8
0
 10
-8.77733
 20
-2.71448
 11
-8.94525
 21
-2.62891
  0
LINE
  8
0
 10
-8.94525
 20
-2.62891
 11
-9.10747
 21
-2.53297
  0
LINE
  8
0
 10
-9.10747
 20
-2.53297
 11
-9.26335
 21
-2.42705
  0
LINE
  8
0
 10
-9.26335
 20
-2.42705
 11
-9.41226
 21
-2.31154
  0
LINE
  8
0
 10
-9.41226
 20
-2.31154
 11
-9.55363
 21
-2.1869
  0
LINE
  8
0
 10
-9.55363
 20
-2.1869
 11
-9.6869
 21
-2.05363
  0
LINE
  8
0
 10
-9.6869
 20
-2.05363
 11
-9.81154
 21
-1.91226
  0
LINE
  8
0
 10
-9.81154
 20
-1.91226
 11
-9.92705
 21
-1.76335
  0
LINE
  8
0
 10
-9.92705
 20
-1.76335
 11
-10.033
 21
-1.60747
  0
LINE
  8
0
 10
-10.033
 20
-1.60747
 11
-10.1289
 21
-1.44525
  0
LINE
  8
0
 10
-10.1289
 20
-1.44525
 11
-10.2145
 21
-1.27733
  0
LINE
  8
0
 10
-10.2145
 20
-1.27733
 11
-10.2893
 21
-1.10437
  0
LINE
  8
0
 10
-10.2893
 20
-1.10437
 11
-10.3532
 21
-0.927048
  0
LINE
  8
0
 10
-10.3532
 20
-0.927048
 11
-10.4057
 21
-0.746063
  0
LINE
  8
0
 10
-10.4057
 20
-0.746063
 11
-10.4469
 21
-0.562134
  0
LINE
  8
0
 10
-10.4469
 20
-0.562134
 11
-10.4763
 21
-0.375992
  0
LINE
  8
0
 10
-10.4763
 20
-0.375992
 11
-10.4941
 21
-0.18837
  0
LINE
  8
0
 10
-10.4941
 20
-0.18837
 11
-10.5
 21
0
  0
LINE
  8
0
 10
-10.5
 20
0
 11
-10.4941
 21
0.18837
  0
LINE
  8
0
 10
-10.4941
 20
0.18837
 11
-10.4763
 21
0.375992
  0
LINE
  8
0
 10
-10.4763
 20
0.375992
 11
-10.4469
 21
0.562134
  0
LINE
  8
0
 10
-10.4469
 20
0.562134
 11
-10.4057
 21
0.746063
  0
LINE
  8
0
 10
-10.4057
 20
0.746063
 11
-10.3532
 21
0.927048
  0
LINE
  8
0
 10
-10.3532
 20
0.927048
 11
-10.2893
 21
1.10437
  0
LINE
  8
0
 10
-10.2893
 20
1.10437
 11
-10.2145
 21
1.27733
  0
LINE
  8
0
 10
-10.2145
 20
1.27733
 11
-10.1289
 21
1.44525
  0
LINE
  8
0
 10
-10.1289
 20
1.44525
 11
-10.033
 21
1.60747
  0
LINE
  8
0
 10
-10.033
 20
1.60747
 11
-9.92705
 21
1.76335
  0
LINE
  8
0
 10
-9.92705
 20
1.76335
 11
-9.81154
 21
1.91226
  0
LINE
  8
0
 10
-9.81154
 20
1.91226
 11
-9.6869
 21
2.05363
  0
LINE
  8
0
 10
-9.6869
 20
2.05363
 11
-9.55363
 21
2.1869
  0
LINE
  8
0
 10
-9.55363
 20
2.1869
 11
-9.41226
 21
2.31154
  0
LINE
  8
0
 10
-9.41226
 20
2.31154
 11
-9.26335
 21
2.42705
  0
LINE
  8
0
 10
-9.26335
 20
2.42705
 11
-9.10747
 21
2.53297
  0
LINE
  8
0
 10
-9.10747
 20
2.53297
 11
-8.94525
 21
2.62891
  0
LINE
  8
0
 10
-8.94525
 20
2.62891
 11
-8.77733
 21
2.71448
  0
LINE
  8
0
 10
-8.77733
 20
2.71448
 11
-8.60437
 21
2.78932
  0
LINE
  8
0
 10
-8.60437
 20
2.78932
 11
-8.42705
 21
2.85316
  0
LINE
  8
0
 10
-8.42705
 20
2.85316
 11
-8.24606
 21
2.90575
  0
LINE
  8
0
 10
-8.24606
 20
2.90575
 11
-8.06213
 21
2.94685
  0
LINE
  8
0
 10
-8.06213
 20
2.94685
 11
-7.87599
 21
2.97633
  0
LINE
  8
0
 10
-7.87599
 20
2.97633
 11
-7.68837
 21
2.99408
  0
LINE
  8
0
 10
-7.68837
 20
2.99408
 11
-7.5
 21
3
  0
LINE
  8
0
 10
-7.5
 20
3
 11
-7.31161
 21
2.99408
  0
LINE
  8
0
 10
-7.31161
 20
2.99408
 11
-7.12399
 21
2.97633
  0
LINE
  8
0
 10
-7.12399
 20
2.97633
 11
-6.93785
 21
2.94685
  0
LINE
  8
0
 10
-6.93785
 20
2.94685
 11
-6.75392
 21
2.90575
  0
LINE
  8
0
 10
-6.75392
 20
2.90575
 11
-6.57294
 21
2.85316
  0
LINE
  8
0
 10
-6.57294
 20
2.85316
 11
-6.39561
 21
2.78932
  0
LINE
  8
0
 10
-6.39561
 20
2.78932
 11
-6.22266
 21
2.71448
  0
LINE
  8
0
 10
-6.22266
 20
2.71448
 11
-6.05473
 21
2.62891
  0
LINE
  8
0
 10
-6.05473
 20
2.62891
 11
-5.89252
 21
2.53297
  0
LINE
  8
0
 10
-5.89252
 20
2.53297
 11
-5.73663
 21
2.42705
  0
LINE
  8
0
 10
-5.73663
 20
2.42705
 11
-5.58772
 21
2.31154
  0
LINE
  8
0
 10
-5.58772
 20
2.31154
 11
-5.44635
 21
2.1869
  0
LINE
  8
0
 10
-5.44635
 20
2.1869
 11
-5.31308
 21
2.05363
  0
LINE
  8
0
 10
-5.31308
 20
2.05363
 11
-5.18845
 21
1.91226
  0
LINE
  8
0
 10
-5.18845
 20
1.91226
 11
-5.07294
 21
1.76335
  0
LINE
  8
0
 10
-5.07294
 20
1.76335
 11
-4.96701
 21
1.60747
  0
LINE
  8
0
 10
-4.96701
 20
1.60747
 11
-4.87108
 21
1.44525
  0
LINE
  8
0
 10
-4.87108
 20
1.44525
 11
-4.78551
 21
1.27733
  0
LINE
  8
0
 10
-4.78551
 20
1.27733
 11
-4.71066
 21
1.10437
  0
LINE
  8
0
 10
-4.71066
 20
1.10437
 11
-4.64682
 21
0.927048
  0
LINE
  8
0
 10
-4.64682
 20
0.927048
 11
-4.59424
 21
0.746063
  0
LINE
  8
0
 10
-4.59424
 20
0.746063
 11
-4.55313
 21
0.562134
  0
LINE
  8
0
 10
-4.55313
 20
0.562134
 11
-4.52365
 21
0.375992
  0
LINE
  8
0
 10
-4.52365
 20
0.375992
 11
-4.50591
 21
0.18837
  0
LINE
  8
0
 10
-4.50591
 20
0.18837
 11
-4.5
 21
0
  0
LINE
  8
0
 10
-4.5
 20
0
 11
-4.50591
 21
-0.18837
  0
LINE
  8
0
 10
-4.50591
 20
-0.18837
 11
-4.52365
 21
-0.375992
  0
LINE
  8
0
 10
-4.52365
 20
-0.375992
 11
-4.55313
 21
-0.562134
  0
LINE
  8
0
 10
-4.55313
 20
-0.562134
 11
-4.59424
 21
-0.746063
  0
LINE
  8
0
 10
-4.59424
 20
-0.746063
 11
-4.64682
 21
-0.927048
  0
LINE
  8
0
 10
-4.64682
 20
-0.927048
 11
-4.71066
 21
-1.10437
  0
LINE
  8
0
 10
-4.71066
 20
-1.10437
 11
-4.78551
 21
-1.27733
  0
LINE
  8
0
 10
-4.78551
 20
-1.27733
 11
-4.87108
 21
-1.44525
  0
LINE
  8
0
 10
-4.87108
 20
-1.44525
 11
-4.96701
 21
-1.60747
  0
LINE
  8
0
 10
-4.96701
 20
-1.60747
 11
-5.07294
 21
-1.76335
  0
LINE
  8
0
 10
-5.07294
 20
-1.76335
 11
-5.18845
 21
-1.91226
  0
LINE
  8
0
 10
-5.18845
 20
-1.91226
 11
-5.31308
 21
-2.05363
  0
LINE
  8
0
 10
-5.31308
 20
-2.05363
 11
-5.44635
 21
-2.1869
  0
LINE
  8
0
 10
-5.44635
 20
-2.1869
 11
-5.58772
 21
-2.31154
  0
LINE
  8
0
 10
-5.58772
 20
-2.31154
 11
-5.73663
 21
-2.42705
  0
LINE
  8
0
 10
-5.73663
 20
-2.42705
 11
-5.89252
 21
-2.53297
  0
LINE
  8
0
 10
-5.89252
 20
-2.53297
 11
-6.05473
 21
-2.62891
  0
LINE
  8
0
 10
-6.05473
 20
-2.62891
 11
-6.22266
 21
-2.71448
  0
LINE
  8
0
 10
-6.22266
 20
-2.71448
 11
-6.39561
 21
-2.78932
  0
LINE
  8
0
 10
-6.39561
 20
-2.78932
 11
-6.57294
 21
-2.85316
  0
LINE
  8
0
 10
-6.57294
 20
-2.85316
 11
-6.75392
 21
-2.90575
  0
LINE
  8
0
 10
-6.75392
 20
-2.90575
 11
-6.93785
 21
-2.94685
  0
LINE
  8
0
 10
-6.93785
 20
-2.94685
 11
-7.12399
 21
-2.97633
  0
LINE
  8
0
 10
-7.12399
 20
-2.97633
 11
-7.31161
 21
-2.99408
  0
LINE
  8
0
 10
-7.31161
 20
-2.99408
 11
-7.5
 21
-3
  0
LINE
  8
0
 10
-7.5
 20
-3
 11
-7.68837
 21
-2.99408
  0
LINE
  8
0
 10
50.0729
 20
-1.76335
 11
49.967
 21
-1.60747
  0
LINE
  8
0
 10
49.967
 20
-1.60747
 11
49.8711
 21
-1.44525
  0
LINE
  8
0
 10
49.8711
 20
-1.44525
 11
49.7855
 21
-1.27733
  0
LINE
  8
0
 10
49.7855
 20
-1.27733
 11
49.7107
 21
-1.10437
  0
LINE
  8
0
 10
49.7107
 20
-1.10437
 11
49.6468
 21
-0.927048
  0
LINE
  8
0
 10
49.6468
 20
-0.927048
 11
49.5942
 21
-0.746063
  0
LINE
  8
0
 10
49.5942
 20
-0.746063
 11
49.5531
 21
-0.562134
  0
LINE
  8
0
 10
49.5531
 20
-0.562134
 11
49.5237
 21
-0.375992
  0
LINE
  8
0
 10
49.5237
 20
-0.375992
 11
49.5059
 21
-0.18837
  0
LINE
  8
0
 10
49.5059
 20
-0.18837
 11
49.5
 21
0
  0
LINE
  8
0
 10
49.5
 20
0
 11
49.5059
 21
0.18837
  0
LINE
  8
0
 10
49.5059
 20
0.18837
 11
49.5237
 21
0.375992
  0
LINE
  8
0
 10
49.5237
 20
0.375992
 11
49.5531
 21
0.562134
  0
LINE
  8
0
 10
49.5531
 20
0.562134
 11
49.5942
 21
0.746063
  0
LINE
  8
0
 10
49.5942
 20
0.746063
 11
49.6468
 21
0.927048
  0
LINE
  8
0
 10
49.6468
 20
0.927048
 11
49.7107
 21
1.10437
  0
LINE
  8
0
 10
49.7107
 20
1.10437
 11
49.7855
 21
1.27733
  0
LINE
  8
0
 10
49.7855
 20
1.27733
 11
49.8711
 21
1.44525
  0
LINE
  8
0
 10
49.8711
 20
1.44525
 11
49.967
 21
1.60747
  0
LINE
  8
0
 10
49.967
 20
1.60747
 11
50.0729
 21
1.76335
  0
LINE
  8
0
 10
50.0729
 20
1.76335
 11
50.1885
 21
1.91226
  0
LINE
  8
0
 10
50.1885
 20
1.91226
 11
50.3131
 21
2.05363
  0
LINE
  8
0
 10
50.3131
 20
2.05363
 11
50.4464
 21
2.1869
  0
LINE
  8
0
 10
50.4464
 20
2.1869
 11
50.5877
 21
2.31154
  0
LINE
  8
0
 10
50.5877
 20
2.31154
 11
50.7366
 21
2.42705
  0
LINE
  8
0
 10
50.7366
 20
2.42705
 11
50.8925
 21
2.53297
  0
LINE
  8
0
 10
50.8925
 20
2.53297
 11
51.0547
 21
2.62891
  0
LINE
  8
0
 10
51.0547
 20
2.62891
 11
51.2227
 21
2.71448
  0
LINE
  8
0
 10
51.2227
 20
2.71448
 11
51.3956
 21
2.78932
  0
LINE
  8
0
 10
51.3956
 20
2.78932
 11
51.5729
 21
2.85316
  0
LINE
  8
0
 10
51.5729
 20
2.85316
 11
51.7539
 21
2.90575
  0
LINE
  8
0
 10
51.7539
 20
2.90575
 11
51.9379
 21
2.94685
  0
LINE
  8
0
 10
51.9379
 20
2.94685
 11
52.124
 21
2.97633
  0
LINE
  8
0
 10
52.124
 20
2.97633
 11
52.3116
 21
2.99408
  0
LINE
  8
0
 10
52.3116
 20
2.99408
 11
52.5
 21
3
  0
LINE
  8
0
 10
52.5
 20
3
 11
52.6884
 21
2.99408
  0
LINE
  8
0
 10
52.6884
 20
2.99408
 11
52.876
 21
2.97633
  0
LINE
  8
0
 10
52.876
 20
2.97633
 11
53.0621
 21
2.94685
  0
LINE
  8
0
 10
53.0621
 20
2.94685
 11
53.2461
 21
2.90575
  0
LINE
  8
0
 10
53.2461
 20
2.90575
 11
53.427
 21
2.85316
  0
LINE
  8
0
 10
53.427
 20
2.85316
 11
53.6044
 21
2.78932
  0
LINE
  8
0
 10
53.6044
 20
2.78932
 11
53.7773
 21
2.71448
  0
LINE
  8
0
 10
53.7773
 20
2.71448
 11
53.9453
 21
2.62891
  0
LINE
  8
0
 10
53.9453
 20
2.62891
 11
54.1075
 21
2.53297
  0
LINE
  8
0
 10
54.1075
 20
2.53297
 11
54.2634
 21
2.42705
  0
LINE
  8
0
 10
54.2634
 20
2.42705
 11
54.4123
 21
2.31154
  0
LINE
  8
0
 10
54.4123
 20
2.31154
 11
54.5536
 21
2.1869
  0
LINE
  8
0
 10
54.5536
 20
2.1869
 11
54.6869
 21
2.05363
  0
LINE
  8
0
 10
54.6869
 20
2.05363
 11
54.8115
 21
1.91226
  0
LINE
  8
0
 10
54.8115
 20
1.91226
 11
54.927
 21
1.76335
  0
LINE
  8
0
 10
54.927
 20
1.76335
 11
55.033
 21
1.60747
  0
LINE
  8
0
 10
55.033
 20
1.60747
 11
55.1289
 21
1.44525
  0
LINE
  8
0
 10
55.1289
 20
1.44525
 11
55.2145
 21
1.27733
  0
LINE
  8
0
 10
55.2145
 20
1.27733
 11
55.2893
 21
1.10437
  0
LINE
  8
0
 10
55.2893
 20
1.10437
 11
55.3532
 21
0.927048
  0
LINE
  8
0
 10
55.3532
 20
0.927048
 11
55.4057
 21
0.746063
  0
LINE
  8
0
 10
55.4057
 20
0.746063
 11
55.4469
 21
0.562134
  0
LINE
  8
0
 10
55.4469
 20
0.562134
 11
55.4763
 21
0.375992
  0
LINE
  8
0
 10
55.4763
 20
0.375992
 11
55.4941
 21
0.18837
  0
LINE
  8
0
 10
55.4941
 20
0.18837
 11
55.5
 21
0
  0
LINE
  8
0
 10
55.5
 20
0
 11
55.4941
 21
-0.18837
  0
LINE
  8
0
 10
55.4941
 20
-0.18837
 11
55.4763
 21
-0.375992
  0
LINE
  8
0
 10
55.4763
 20
-0.375992
 11
55.4469
 21
-0.562134
  0
LINE
  8
0
 10
55.4469
 20
-0.562134
 11
55.4057
 21
-0.746063
  0
LINE
  8
0
 10
55.4057
 20
-0.746063
 11
55.3532
 21
-0.927048
  0
LINE
  8
0
 10
55.3532
 20
-0.927048
 11
55.2893
 21
-1.10437
  0
LINE
  8
0
 10
55.2893
 20
-1.10437
 11
55.2145
 21
-1.27733
  0
LINE
  8
0
 10
55.2145
 20
-1.27733
 11
55.1289
 21
-1.44525
  0
LINE
  8
0
 10
55.1289
 20
-1.44525
 11
55.033
 21
-1.60747
  0
LINE
  8
0
 10
55.033
 20
-1.60747
 11
54.927
 21
-1.76335
  0
LINE
  8
0
 10
54.927
 20
-1.76335
 11
54.8115
 21
-1.91226
  0
LINE
  8
0
 10
54.8115
 20
-1.91226
 11
54.6869
 21
-2.05363
  0
LINE
  8
0
 10
54.6869
 20
-2.05363
 11
54.5536
 21
-2.1869
  0
LINE
  8
0
 10
54.5536
 20
-2.1869
 11
54.4123
 21
-2.31154
  0
LINE
  8
0
 10
54.4123
 20
-2.31154
 11
54.2634
 21
-2.42705
  0
LINE
  8
0
 10
54.2634
 20
-2.42705
 11
54.1075
 21
-2.53297
  0
LINE
  8
0
 10
54.1075
 20
-2.53297
 11
53.9453
 21
-2.62891
  0
LINE
  8
0
 10
53.9453
 20
-2.62891
 11
53.7773
 21
-2.71448
  0
LINE
  8
0
 10
53.7773
 20
-2.71448
 11
53.6044
 21
-2.78932
  0
LINE
  8
0
 10
53.6044
 20
-2.78932
 11
53.427
 21
-2.85316
  0
LINE
  8
0
 10
53.427
 20
-2.85316
 11
53.2461
 21
-2.90575
  0
LINE
  8
0
 10
53.2461
 20
-2.90575
 11
53.0621
 21
-2.94685
  0
LINE
  8
0
 10
53.0621
 20
-2.94685
 11
52.876
 21
-2.97633
  0
LINE
  8
0
 10
52.876
 20
-2.97633
 11
52.6884
 21
-2.99408
  0
LINE
  8
0
 10
52.6884
 20
-2.99408
 11
52.5
 21
-3
  0
LINE
  8
0
 10
52.5
 20
-3
 11
52.3116
 21
-2.99408
  0
LINE
  8
0
 10
52.3116
 20
-2.99408
 11
52.124
 21
-2.97633
  0
LINE
  8
0
 10
52.124
 20
-2.97633
 11
51.9379
 21
-2.94685
  0
LINE
  8
0
 10
51.9379
 20
-2.94685
 11
51.7539
 21
-2.90575
  0
LINE
  8
0
 10
51.7539
 20
-2.90575
 11
51.5729
 21
-2.85316
  0
LINE
  8
0
 10
51.5729
 20
-2.85316
 11
51.3956
 21
-2.78932
  0
LINE
  8
0
 10
51.3956
 20
-2.78932
 11
51.2227
 21
-2.71448
  0
LINE
  8
0
 10
51.2227
 20
-2.71448
 11
51.0547
 21
-2.62891
  0
LINE
  8
0
 10
51.0547
 20
-2.62891
 11
50.8925
 21
-2.53297
  0
LINE
  8
0
 10
50.8925
 20
-2.53297
 11
50.7366
 21
-2.42705
  0
LINE
  8
0
 10
50.7366
 20
-2.42705
 11
50.5877
 21
-2.31154
  0
LINE
  8
0
 10
50.5877
 20
-2.31154
 11
50.4464
 21
-2.1869
  0
LINE
  8
0
 10
50.4464
 20
-2.1869
 11
50.3131
 21
-2.05363
  0
LINE
  8
0
 10
50.3131
 20
-2.05363
 11
50.1885
 21
-1.91226
  0
LINE
  8
0
 10
50.1885
 20
-1.91226
 11
50.0729
 21
-1.76335
  0
LINE
  8
0
 10
7.31161
 20
-2.99408
 11
7.12399
 21
-2.97633
  0
LINE
  8
0
 10
7.12399
 20
-2.97633
 11
6.93785
 21
-2.94685
  0
LINE
  8
0
 10
6.93785
 20
-2.94685
 11
6.75392
 21
-2.90575
  0
LINE
  8
0
 10
6.75392
 20
-2.90575
 11
6.57294
 21
-2.85316
  0
LINE
  8
0
 10
6.57294
 20
-2.85316
 11
6.39561
 21
-2.78932
  0
LINE
  8
0
 10
6.39561
 20
-2.78932
 11
6.22266
 21
-2.71448
  0
LINE
  8
0
 10
6.22266
 20
-2.71448
 11
6.05473
 21
-2.62891
  0
LINE
  8
0
 10
6.05473
 20
-2.62891
 11
5.89252
 21
-2.53297
  0
LINE
  8
0
 10
5.89252
 20
-2.53297
 11
5.73663
 21
-2.42705
  0
LINE
  8
0
 10
5.73663
 20
-2.42705
 11
5.58772
 21
-2.31154
  0
LINE
  8
0
 10
5.58772
 20
-2.31154
 11
5.44635
 21
-2.1869
  0
LINE
  8
0
 10
5.44635
 20
-2.1869
 11
5.31308
 21
-2.05363
  0
LINE
  8
0
 10
5.31308
 20
-2.05363
 11
5.18845
 21
-1.91226
  0
LINE
  8
0
 10
5.18845
 20
-1.91226
 11
5.07294
 21
-1.76335
  0
LINE
  8
0
 10
5.07294
 20
-1.76335
 11
4.96701
 21
-1.60747
  0
LINE
  8
0
 10
4.96701
 20
-1.60747
 11
4.87108
 21
-1.44525
  0
LINE
  8
0
 10
4.87108
 20
-1.44525
 11
4.78551
 21
-1.27733
  0
LINE
  8
0
 10
4.78551
 20
-1.27733
 11
4.71066
 21
-1.10437
  0
LINE
  8
0
 10
4.71066
 20
-1.10437
 11
4.64682
 21
-0.927048
  0
LINE
  8
0
 10
4.64682
 20
-0.927048
 11
4.59424
 21
-0.746063
  0
LINE
  8
0
 10
4.59424
 20
-0.746063
 11
4.55313
 21
-0.562134
  0
LINE
  8
0
 10
4.55313
 20
-0.562134
 11
4.52365
 21
-0.375992
  0
LINE
  8
0
 10
4.52365
 20
-0.375992
 11
4.50591
 21
-0.18837
  0
LINE
  8
0
 10
4.50591
 20
-0.18837
 11
4.5
 21
0
  0
LINE
  8
0
 10
4.5
 20
0
 11
4.50591
 21
0.18837
  0
LINE
  8
0
 10
4.50591
 20
0.18837
 11
4.52365
 21
0.375992
  0
LINE
  8
0
 10
4.52365
 20
0.375992
 11
4.55313
 21
0.562134
  0
LINE
  8
0
 10
4.55313
 20
0.562134
 11
4.59424
 21
0.746063
  0
LINE
  8
0
 10
4.59424
 20
0.746063
 11
4.64682
 21
0.927048
  0
LINE
  8
0
 10
4.64682
 20
0.927048
 11
4.71066
 21
1.10437
  0
LINE
  8
0
 10
4.71066
 20
1.10437
 11
4.78551
 21
1.27733
  0
LINE
  8
0
 10
4.78551
 20
1.27733
 11
4.87108
 21
1.44525
  0
LINE
  8
0
 10
4.87108
 20
1.44525
 11
4.96701
 21
1.60747
  0
LINE
  8
0
 10
4.96701
 20
1.60747
 11
5.07294
 21
1.76335
  0
LINE
  8
0
 10
5.07294
 20
1.76335
 11
5.18845
 21
1.91226
  0
LINE
  8
0
 10
5.18845
 20
1.91226
 11
5.31308
 21
2.05363
  0
LINE
  8
0
 10
5.31308
 20
2.05363
 11
5.44635
 21
2.1869
  0
LINE
  8
0
 10
5.44635
 20
2.1869
 11
5.58772
 21
2.31154
  0
LINE
  8
0
 10
5.58772
 20
2.31154
 11
5.73663
 21
2.42705
  0
LINE
  8
0
 10
5.73663
 20
2.42705
 11
5.89252
 21
2.53297
  0
LINE
  8
0
 10
5.89252
 20
2.53297
 11
6.05473
 21
2.62891
  0
LINE
  8
0
 10
6.05473
 20
2.62891
 11
6.22266
 21
2.71448
  0
LINE
  8
0
 10
6.22266
 20
2.71448
 11
6.39561
 21
2.78932
  0
LINE
  8
0
 10
6.39561
 20
2.78932
 11
6.57294
 21
2.85316
  0
LINE
  8
0
 10
6.57294
 20
2.85316
 11
6.75392
 21
2.90575
  0
LINE
  8
0
 10
6.75392
 20
2.90575
 11
6.93785
 21
2.94685
  0
LINE
  8
0
 10
6.93785
 20
2.94685
 11
7.12399
 21
2.97633
  0
LINE
  8
0
 10
7.12399
 20
2.97633
 11
7.31161
 21
2.99408
  0
LINE
  8
0
 10
7.31161
 20
2.99408
 11
7.5
 21
3
  0
LINE
  8
0
 10
7.5
 20
3
 11
7.68837
 21
2.99408
  0
LINE
  8
0
 10
7.68837
 20
2.99408
 11
7.87599
 21
2.97633
  0
LINE
  8
0
 10
7.87599
 20
2.97633
 11
8.06213
 21
2.94685
  0
LINE
  8
0
 10
8.06213
 20
2.94685
 11
8.24606
 21
2.90575
  0
LINE
  8
0
 10
8.24606
 20
2.90575
 11
8.42705
 21
2.85316
  0
LINE
  8
0
 10
8.42705
 20
2.85316
 11
8.60437
 21
2.78932
  0
LINE
  8
0
 10
8.60437
 20
2.78932
 11
8.77733
 21
2.71448
  0
LINE
  8
0
 10
8.77733
 20
2.71448
 11
8.94525
 21
2.62891
  0
LINE
  8
0
 10
8.94525
 20
2.62891
 11
9.10747
 21
2.53297
  0
LINE
  8
0
 10
9.10747
 20
2.53297
 11
9.26335
 21
2.42705
  0
LINE
  8
0
 10
9.26335
 20
2.42705
 11
9.41226
 21
2.31154
  0
LINE
  8
0
 10
9.41226
 20
2.31154
 11
9.55363
 21
2.1869
  0
LINE
  8
0
 10
9.55363
 20
2.1869
 11
9.6869
 21
2.05363
  0
LINE
  8
0
 10
9.6869
 20
2.05363
 11
9.81154
 21
1.91226
  0
LINE
  8
0
 10
9.81154
 20
1.91226
 11
9.92705
 21
1.76335
  0
LINE
  8
0
 10
9.92705
 20
1.76335
 11
10.033
 21
1.60747
  0
LINE
  8
0
 10
10.033
 20
1.60747
 11
10.1289
 21
1.44525
  0
LINE
  8
0
 10
10.1289
 20
1.44525
 11
10.2145
 21
1.27733
  0
LINE
  8
0
 10
10.2145
 20
1.27733
 11
10.2893
 21
1.10437
  0
LINE
  8
0
 10
10.2893
 20
1.10437
 11
10.3532
 21
0.927048
  0
LINE
  8
0
 10
10.3532
 20
0.927048
 11
10.4057
 21
0.746063
  0
LINE
  8
0
 10
10.4057
 20
0.746063
 11
10.4469
 21
0.562134
  0
LINE
  8
0
 10
10.4469
 20
0.562134
 11
10.4763
 21
0.375992
  0
LINE
  8
0
 10
10.4763
 20
0.375992
 11
10.4941
 21
0.18837
  0
LINE
  8
0
 10
10.4941
 20
0.18837
 11
10.5
 21
0
  0
LINE
  8
0
 10
10.5
 20
0
 11
10.4941
 21
-0.18837
  0
LINE
  8
0
 10
10.4941
 20
-0.18837
 11
10.4763
 21
-0.375992
  0
LINE
  8
0
 10
10.4763
 20
-0.375992
 11
10.4469
 21
-0.562134
  0
LINE
  8
0
 10
10.4469
 20
-0.562134
 11
10.4057
 21
-0.746063
  0
LINE
  8
0
 10
10.4057
 20
-0.746063
 11
10.3532
 21
-0.927048
  0
LINE
  8
0
 10
10.3532
 20
-0.927048
 11
10.2893
 21
-1.10437
  0
LINE
  8
0
 10
10.2893
 20
-1.10437
 11
10.2145
 21
-1.27733
  0
LINE
  8
0
 10
10.2145
 20
-1.27733
 11
10.1289
 21
-1.44525
  0
LINE
  8
0
 10
10.1289
 20
-1.44525
 11
10.033
 21
-1.60747
  0
LINE
  8
0
 10
10.033
 20
-1.60747
 11
9.92705
 21
-1.76335
  0
LINE
  8
0
 10
9.92705
 20
-1.76335
 11
9.81154
 21
-1.91226
  0
LINE
  8
0
 10
9.81154
 20
-1.91226
 11
9.6869
 21
-2.05363
  0
LINE
  8
0
 10
9.6869
 20
-2.05363
 11
9.55363
 21
-2.1869
  0
LINE
  8
0
 10
9.55363
 20
-2.1869
 11
9.41226
 21
-2.31154
  0
LINE
  8
0
 10
9.41226
 20
-2.31154
 11
9.26335
 21
-2.42705
  0
LINE
  8
0
 10
9.26335
 20
-2.42705
 11
9.10747
 21
-2.53297
  0
LINE
  8
0
 10
9.10747
 20
-2.53297
 11
8.94525
 21
-2.62891
  0
LINE
  8
0
 10
8.94525
 20
-2.62891
 11
8.77733
 21
-2.71448
  0
LINE
  8
0
 10
8.77733
 20
-2.71448
 11
8.60437
 21
-2.78932
  0
LINE
  8
0
 10
8.60437
 20
-2.78932
 11
8.42705
 21
-2.85316
  0
LINE
  8
0
 10
8.42705
 20
-2.85316
 11
8.24606
 21
-2.90575
  0
LINE
  8
0
 10
8.24606
 20
-2.90575
 11
8.06213
 21
-2.94685
  0
LINE
  8
0
 10
8.06213
 20
-2.94685
 11
7.87599
 21
-2.97633
  0
LINE
  8
0
 10
7.87599
 20
-2.97633
 11
7.68837
 21
-2.99408
  0
LINE
  8
0
 10
7.68837
 20
-2.99408
 11
7.5
 21
-3
  0
LINE
  8
0
 10
7.5
 20
-3
 11
7.31161
 21
-2.99408
  0
LINE
  8
0
 10
-52.6884
 20
-2.99408
 11
-52.876
 21
-2.97633
  0
LINE
  8
0
 10
-52.876
 20
-2.97633
 11
-53.0621
 21
-2.94685
  0
LINE
  8
0
 10
-53.0621
 20
-2.94685
 11
-53.2461
 21
-2.90575
  0
LINE
  8
0
 10
-53.2461
 20
-2.90575
 11
-53.427
 21
-2.85316
  0
LINE
  8
0
 10
-53.427
 20
-2.85316
 11
-53.6044
 21
-2.78932
  0
LINE
  8
0
 10
-53.6044
 20
-2.78932
 11
-53.7773
 21
-2.71448
  0
LINE
  8
0
 10
-53.7773
 20
-2.71448
 11
-53.9453
 21
-2.62891
  0
LINE
  8
0
 10
-53.9453
 20
-2.62891
 11
-54.1075
 21
-2.53297
  0
LINE
  8
0
 10
-54.1075
 20
-2.53297
 11
-54.2634
 21
-2.42705
  0
LINE
  8
0
 10
-54.2634
 20
-2.42705
 11
-54.4123
 21
-2.31154
  0
LINE
  8
0
 10
-54.4123
 20
-2.31154
 11
-54.5536
 21
-2.1869
  0
LINE
  8
0
 10
-54.5536
 20
-2.1869
 11
-54.6869
 21
-2.05363
  0
LINE
  8
0
 10
-54.6869
 20
-2.05363
 11
-54.8115
 21
-1.91226
  0
LINE
  8
0
 10
-54.8115
 20
-1.91226
 11
-54.927
 21
-1.76335
  0
LINE
  8
0
 10
-54.927
 20
-1.76335
 11
-55.033
 21
-1.60747
  0
LINE
  8
0
 10
-55.033
 20
-1.60747
 11
-55.1289
 21
-1.44525
  0
LINE
  8
0
 10
-55.1289
 20
-1.44525
 11
-55.2145
 21
-1.27733
  0
LINE
  8
0
 10
-55.2145
 20
-1.27733
 11
-55.2893
 21
-1.10437
  0
LINE
  8
0
 10
-55.2893
 20
-1.10437
 11
-55.3532
 21
-0.927048
  0
LINE
  8
0
 10
-55.3532
 20
-0.927048
 11
-55.4057
 21
-0.746063
  0
LINE
  8
0
 10
-55.4057
 20
-0.746063
 11
-55.4469
 21
-0.562134
  0
LINE
  8
0
 10
-55.4469
 20
-0.562134
 11
-55.4763
 21
-0.375992
  0
LINE
  8
0
 10
-55.4763
 20
-0.375992
 11
-55.4941
 21
-0.18837
  0
LINE
  8
0
 10
-55.4941
 20
-0.18837
 11
-55.5
 21
0
  0
LINE
  8
0
 10
-55.5
 20
0
 11
-55.4941
 21
0.18837
  0
LINE
  8
0
 10
-55.4941
 20
0.18837
 11
-55.4763
 21
0.375992
  0
LINE
  8
0
 10
-55.4763
 20
0.375992
 11
-55.4469
 21
0.562134
  0
LINE
  8
0
 10
-55.4469
 20
0.562134
 11
-55.4057
 21
0.746063
  0
LINE
  8
0
 10
-55.4057
 20
0.746063
 11
-55.3532
 21
0.927048
  0
LINE
  8
0
 10
-55.3532
 20
0.927048
 11
-55.2893
 21
1.10437
  0
LINE
  8
0
 10
-55.2893
 20
1.10437
 11
-55.2145
 21
1.27733
  0
LINE
  8
0
 10
-55.2145
 20
1.27733
 11
-55.1289
 21
1.44525
  0
LINE
  8
0
 10
-55.1289
 20
1.44525
 11
-55.033
 21
1.60747
  0
LINE
  8
0
 10
-55.033
 20
1.60747
 11
-54.927
 21
1.76335
  0
LINE
  8
0
 10
-54.927
 20
1.76335
 11
-54.8115
 21
1.91226
  0
LINE
  8
0
 10
-54.8115
 20
1.91226
 11
-54.6869
 21
2.05363
  0
LINE
  8
0
 10
-54.6869
 20
2.05363
 11
-54.5536
 21
2.1869
  0
LINE
  8
0
 10
-54.5536
 20
2.1869
 11
-54.4123
 21
2.31154
  0
LINE
  8
0
 10
-54.4123
 20
2.31154
 11
-54.2634
 21
2.42705
  0
LINE
  8
0
 10
-54.2634
 20
2.42705
 11
-54.1075
 21
2.53297
  0
LINE
  8
0
 10
-54.1075
 20
2.53297
 11
-53.9453
 21
2.62891
  0
LINE
  8
0
 10
-53.9453
 20
2.62891
 11
-53.7773
 21
2.71448
  0
LINE
  8
0
 10
-53.7773
 20
2.71448
 11
-53.6044
 21
2.78932
  0
LINE
  8
0
 10
-53.6044
 20
2.78932
 11
-53.427
 21
2.85316
  0
LINE
  8
0
 10
-53.427
 20
2.85316
 11
-53.2461
 21
2.90575
  0
LINE
  8
0
 10
-53.2461
 20
2.90575
 11
-53.0621
 21
2.94685
  0
LINE
  8
0
 10
-53.0621
 20
2.94685
 11
-52.876
 21
2.97633
  0
LINE
  8
0
 10
-52.876
 20
2.97633
 11
-52.6884
 21
2.99408
  0
LINE
  8
0
 10
-52.6884
 20
2.99408
 11
-52.5
 21
3
  0
LINE
  8
0
 10
-52.5
 20
3
 11
-52.3116
 21
2.99408
  0
LINE
  8
0
 10
-52.3116
 20
2.99408
 11
-52.124
 21
2.97633
  0
LINE
  8
0
 10
-52.124
 20
2.97633
 11
-51.9379
 21
2.94685
  0
LINE
  8
0
 10
-51.9379
 20
2.94685
 11
-51.7539
 21
2.90575
  0
LINE
  8
0
 10
-51.7539
 20
2.90575
 11
-51.5729
 21
2.85316
  0
LINE
  8
0
 10
-51.5729
 20
2.85316
 11
-51.3956
 21
2.78932
  0
LINE
  8
0
 10
-51.3956
 20
2.78932
 11
-51.2227
 21
2.71448
  0
LINE
  8
0
 10
-51.2227
 20
2.71448
 11
-51.0547
 21
2.62891
  0
LINE
  8
0
 10
-51.0547
 20
2.62891
 11
-50.8925
 21
2.53297
  0
LINE
  8
0
 10
-50.8925
 20
2.53297
 11
-50.7366
 21
2.42705
  0
LINE
  8
0
 10
-50.7366
 20
2.42705
 11
-50.5877
 21
2.31154
  0
LINE
  8
0
 10
-50.5877
 20
2.31154
 11
-50.4464
 21
2.1869
  0
LINE
  8
0
 10
-50.4464
 20
2.1869
 11
-50.3131
 21
2.05363
  0
LINE
  8
0
 10
-50.3131
 20
2.05363
 11
-50.1885
 21
1.91226
  0
LINE
  8
0
 10
-50.1885
 20
1.91226
 11
-50.0729
 21
1.76335
  0
LINE
  8
0
 10
-50.0729
 20
1.76335
 11
-49.967
 21
1.60747
  0
LINE
  8
0
 10
-49.967
 20
1.60747
 11
-49.8711
 21
1.44525
  0
LINE
  8
0
 10
-49.8711
 20
1.44525
 11
-49.7855
 21
1.27733
  0
LINE
  8
0
 10
-49.7855
 20
1.27733
 11
-49.7107
 21
1.10437
  0
LINE
  8
0
 10
-49.7107
 20
1.10437
 11
-49.6468
 21
0.927048
  0
LINE
  8
0
 10
-49.6468
 20
0.927048
 11
-49.5942
 21
0.746063
  0
LINE
  8
0
 10
-49.5942
 20
0.746063
 11
-49.5531
 21
0.562134
  0
LINE
  8
0
 10
-49.5531
 20
0.562134
 11
-49.5237
 21
0.375992
  0
LINE
  8
0
 10
-49.5237
 20
0.375992
 11
-49.5059
 21
0.18837
  0
LINE
  8
0
 10
-49.5059
 20
0.18837
 11
-49.5
 21
0
  0
LINE
  8
0
 10
-49.5
 20
0
 11
-49.5059
 21
-0.18837
  0
LINE
  8
0
 10
-49.5059
 20
-0.18837
 11
-49.5237
 21
-0.375992
  0
LINE
  8
0
 10
-49.5237
 20
-0.375992
 11
-49.5531
 21
-0.562134
  0
LINE
  8
0
 10
-49.5531
 20
-0.562134
 11
-49.5942
 21
-0.746063
  0
LINE
  8
0
 10
-49.5942
 20
-0.746063
 11
-49.6468
 21
-0.927048
  0
LINE
  8
0
 10
-49.6468
 20
-0.927048
 11
-49.7107
 21
-1.10437
  0
LINE
  8
0
 10
-49.7107
 20
-1.10437
 11
-49.7855
 21
-1.27733
  0
LINE
  8
0
 10
-49.7855
 20
-1.27733
 11
-49.8711
 21
-1.44525
  0
LINE
  8
0
 10
-49.8711
 20
-1.44525
 11
-49.967
 21
-1.60747
  0
LINE
  8
0
 10
-49.967
 20
-1.60747
 11
-50.0729
 21
-1.76335
  0
LINE
  8
0
 10
-50.0729
 20
-1.76335
 11
-50.1885
 21
-1.91226
  0
LINE
  8
0
 10
-50.1885
 20
-1.91226
 11
-50.3131
 21
-2.05363
  0
LINE
  8
0
 10
-50.3131
 20
-2.05363
 11
-50.4464
 21
-2.1869
  0
LINE
  8
0
 10
-50.4464
 20
-2.1869
 11
-50.5877
 21
-2.31154
  0
LINE
  8
0
 10
-50.5877
 20
-2.31154
 11
-50.7366
 21
-2.42705
  0
LINE
  8
0
 10
-50.7366
 20
-2.42705
 11
-50.8925
 21
-2.53297
  0
LINE
  8
0
 10
-50.8925
 20
-2.53297
 11
-51.0547
 21
-2.62891
  0
LINE
  8
0
 10
-51.0547
 20
-2.62891
 11
-51.2227
 21
-2.71448
  0
LINE
  8
0
 10
-51.2227
 20
-2.71448
 11
-51.3956
 21
-2.78932
  0
LINE
  8
0
 10
-51.3956
 20
-2.78932
 11
-51.5729
 21
-2.85316
  0
LINE
  8
0
 10
-51.5729
 20
-2.85316
 11
-51.7539
 21
-2.90575
  0
LINE
  8
0
 10
-51.7539
 20
-2.90575
 11
-51.9379
 21
-2.94685
  0
LINE
  8
0
 10
-51.9379
 20
-2.94685
 11
-52.124
 21
-2.97633
  0
LINE
  8
0
 10
-52.124
 20
-2.97633
 11
-52.3116
 21
-2.99408
  0
LINE
  8
0
 10
-52.3116
 20
-2.99408
 11
-52.5
 21
-3
  0
LINE
  8
0
 10
-52.5
 20
-3
 11
-52.6884
 21
-2.99408
  0
LINE
  8
0
 10
-25.033
 20
-1.60747
 11
-25.1289
 21
-1.44525
  0
LINE
  8
0
 10
-25.1289
 20
-1.44525
 11
-25.2145
 21
-1.27733
  0
LINE
  8
0
 10
-25.2145
 20
-1.27733
 11
-25.2893
 21
-1.10437
  0
LINE
  8
0
 10
-25.2893
 20
-1.10437
 11
-25.3532
 21
-0.927048
  0
LINE
  8
0
 10
-25.3532
 20
-0.927048
 11
-25.4057
 21
-0.746063
  0
LINE
  8
0
 10
-25.4057
 20
-0.746063
 11
-25.4469
 21
-0.562134
  0
LINE
  8
0
 10
-25.4469
 20
-0.562134
 11
-25.4763
 21
-0.375992
  0
LINE
  8
0
 10
-25.4763
 20
-0.375992
 11
-25.4941
 21
-0.18837
  0
LINE
  8
0
 10
-25.4941
 20
-0.18837
 11
-25.5
 21
0
  0
LINE
  8
0
 10
-25.5
 20
0
 11
-25.4941
 21
0.18837
  0
LINE
  8
0
 10
-25.4941
 20
0.18837
 11
-25.4763
 21
0.375992
  0
LINE
  8
0
 10
-25.4763
 20
0.375992
 11
-25.4469
 21
0.562134
  0
LINE
  8
0
 10
-25.4469
 20
0.562134
 11
-25.4057
 21
0.746063
  0
LINE
  8
0
 10
-25.4057
 20
0.746063
 11
-25.3532
 21
0.927048
  0
LINE
  8
0
 10
-25.3532
 20
0.927048
 11
-25.2893
 21
1.10437
  0
LINE
  8
0
 10
-25.2893
 20
1.10437
 11
-25.2145
 21
1.27733
  0
LINE
  8
0
 10
-25.2145
 20
1.27733
 11
-25.1289
 21
1.44525
  0
LINE
  8
0
 10
-25.1289
 20
1.44525
 11
-25.033
 21
1.60747
  0
LINE
  8
0
 10
-25.033
 20
1.60747
 11
-24.927
 21
1.76335
  0
LINE
  8
0
 10
-24.927
 20
1.76335
 11
-24.8115
 21
1.91226
  0
LINE
  8
0
 10
-24.8115
 20
1.91226
 11
-24.6869
 21
2.05363
  0
LINE
  8
0
 10
-24.6869
 20
2.05363
 11
-24.5536
 21
2.1869
  0
LINE
  8
0
 10
-24.5536
 20
2.1869
 11
-24.4123
 21
2.31154
  0
LINE
  8
0
 10
-24.4123
 20
2.31154
 11
-24.2634
 21
2.42705
  0
LINE
  8
0
 10
-24.2634
 20
2.42705
 11
-24.1075
 21
2.53297
  0
LINE
  8
0
 10
-24.1075
 20
2.53297
 11
-23.9453
 21
2.62891
  0
LINE
  8
0
 10
-23.9453
 20
2.62891
 11
-23.7773
 21
2.71448
  0
LINE
  8
0
 10
-23.7773
 20
2.71448
 11
-23.6044
 21
2.78932
  0
LINE
  8
0
 10
-23.6044
 20
2.78932
 11
-23.427
 21
2.85316
  0
LINE
  8
0
 10
-23.427
 20
2.85316
 11
-23.2461
 21
2.90575
  0
LINE
  8
0
 10
-23.2461
 20
2.90575
 11
-23.0621
 21
2.94685
  0
LINE
  8
0
 10
-23.0621
 20
2.94685
 11
-22.876
 21
2.97633
  0
LINE
  8
0
 10
-22.876
 20
2.97633
 11
-22.6884
 21
2.99408
  0
LINE
  8
0
 10
-22.6884
 20
2.99408
 11
-22.5
 21
3
  0
LINE
  8
0
 10
-22.5
 20
3
 11
-22.3116
 21
2.99408
  0
LINE
  8
0
 10
-22.3116
 20
2.99408
 11
-22.124
 21
2.97633
  0
LINE
  8
0
 10
-22.124
 20
2.97633
 11
-21.9379
 21
2.94685
  0
LINE
  8
0
 10
-21.9379
 20
2.94685
 11
-21.7539
 21
2.90575
  0
LINE
  8
0
 10
-21.7539
 20
2.90575
 11
-21.5729
 21
2.85316
  0
LINE
  8
0
 10
-21.5729
 20
2.85316
 11
-21.3956
 21
2.78932
  0
LINE
  8
0
 10
-21.3956
 20
2.78932
 11
-21.2227
 21
2.71448
  0
LINE
  8
0
 10
-21.2227
 20
2.71448
 11
-21.0547
 21
2.62891
  0
LINE
  8
0
 10
-21.0547
 20
2.62891
 11
-20.8925
 21
2.53297
  0
LINE
  8
0
 10
-20.8925
 20
2.53297
 11
-20.7366
 21
2.42705
  0
LINE
  8
0
 10
-20.7366
 20
2.42705
 11
-20.5877
 21
2.31154
  0
LINE
  8
0
 10
-20.5877
 20
2.31154
 11
-20.4464
 21
2.1869
  0
LINE
  8
0
 10
-20.4464
 20
2.1869
 11
-20.3131
 21
2.05363
  0
LINE
  8
0
 10
-20.3131
 20
2.05363
 11
-20.1884
 21
1.91226
  0
LINE
  8
0
 10
-20.1884
 20
1.91226
 11
-20.0729
 21
1.76335
  0
LINE
  8
0
 10
-20.0729
 20
1.76335
 11
-19.967
 21
1.60747
  0
LINE
  8
0
 10
-19.967
 20
1.60747
 11
-19.8711
 21
1.44525
  0
LINE
  8
0
 10
-19.8711
 20
1.44525
 11
-19.7855
 21
1.27733
  0
LINE
  8
0
 10
-19.7855
 20
1.27733
 11
-19.7107
 21
1.10437
  0
LINE
  8
0
 10
-19.7107
 20
1.10437
 11
-19.6468
 21
0.927048
  0
LINE
  8
0
 10
-19.6468
 20
0.927048
 11
-19.5942
 21
0.746063
  0
LINE
  8
0
 10
-19.5942
 20
0.746063
 11
-19.5531
 21
0.562134
  0
LINE
  8
0
 10
-19.5531
 20
0.562134
 11
-19.5237
 21
0.375992
  0
LINE
  8
0
 10
-19.5237
 20
0.375992
 11
-19.5059
 21
0.18837
  0
LINE
  8
0
 10
-19.5059
 20
0.18837
 11
-19.5
 21
0
  0
LINE
  8
0
 10
-19.5
 20
0
 11
-19.5059
 21
-0.18837
  0
LINE
  8
0
 10
-19.5059
 20
-0.18837
 11
-19.5237
 21
-0.375992
  0
LINE
  8
0
 10
-19.5237
 20
-0.375992
 11
-19.5531
 21
-0.562134
  0
LINE
  8
0
 10
-19.5531
 20
-0.562134
 11
-19.5942
 21
-0.746063
  0
LINE
  8
0
 10
-19.5942
 20
-0.746063
 11
-19.6468
 21
-0.927048
  0
LINE
  8
0
 10
-19.6468
 20
-0.927048
 11
-19.7107
 21
-1.10437
  0
LINE
  8
0
 10
-19.7107
 20
-1.10437
 11
-19.7855
 21
-1.27733
  0
LINE
  8
0
 10
-19.7855
 20
-1.27733
 11
-19.8711
 21
-1.44525
  0
LINE
  8
0
 10
-19.8711
 20
-1.44525
 11
-19.967
 21
-1.60747
  0
LINE
  8
0
 10
-19.967
 20
-1.60747
 11
-20.0729
 21
-1.76335
  0
LINE
  8
0
 10
-20.0729
 20
-1.76335
 11
-20.1884
 21
-1.91226
  0
LINE
  8
0
 10
-20.1884
 20
-1.91226
 11
-20.3131
 21
-2.05363
  0
LINE
  8
0
 10
-20.3131
 20
-2.05363
 11
-20.4464
 21
-2.1869
  0
LINE
  8
0
 10
-20.4464
 20
-2.1869
 11
-20.5877
 21
-2.31154
  0
LINE
  8
0
 10
-20.5877
 20
-2.31154
 11
-20.7366
 21
-2.42705
  0
LINE
  8
0
 10
-20.7366
 20
-2.42705
 11
-20.8925
 21
-2.53297
  0
LINE
  8
0
 10
-20.8925
 20
-2.53297
 11
-21.0547
 21
-2.62891
  0
LINE
  8
0
 10
-21.0547
 20
-2.62891
 11
-21.2227
 21
-2.71448
  0
LINE
  8
0
 10
-21.2227
 20
-2.71448
 11
-21.3956
 21
-2.78932
  0
LINE
  8
0
 10
-21.3956
 20
-2.78932
 11
-21.5729
 21
-2.85316
  0
LINE
  8
0
 10
-21.5729
 20
-2.85316
 11
-21.7539
 21
-2.90575
  0
LINE
  8
0
 10
-21.7539
 20
-2.90575
 11
-21.9379
 21
-2.94685
  0
LINE
  8
0
 10
-21.9379
 20
-2.94685
 11
-22.124
 21
-2.97633
  0
LINE
  8
0
 10
-22.124
 20
-2.97633
 11
-22.3116
 21
-2.99408
  0
LINE
  8
0
 10
-22.3116
 20
-2.99408
 11
-22.5
 21
-3
  0
LINE
  8
0
 10
-22.5
 20
-3
 11
-22.6884
 21
-2.99408
  0
LINE
  8
0
 10
-22.6884
 20
-2.99408
 11
-22.876
 21
-2.97633
  0
LINE
  8
0
 10
-22.876
 20
-2.97633
 11
-23.0621
 21
-2.94685
  0
LINE
  8
0
 10
-23.0621
 20
-2.94685
 11
-23.2461
 21
-2.90575
  0
LINE
  8
0
 10
-23.2461
 20
-2.90575
 11
-23.427
 21
-2.85316
  0
LINE
  8
0
 10
-23.427
 20
-2.85316
 11
-23.6044
 21
-2.78932
  0
LINE
  8
0
 10
-23.6044
 20
-2.78932
 11
-23.7773
 21
-2.71448
  0
LINE
  8
0
 10
-23.7773
 20
-2.71448
 11
-23.9453
 21
-2.62891
  0
LINE
  8
0
 10
-23.9453
 20
-2.62891
 11
-24.1075
 21
-2.53297
  0
LINE
  8
0
 10
-24.1075
 20
-2.53297
 11
-24.2634
 21
-2.42705
  0
LINE
  8
0
 10
-24.2634
 20
-2.42705
 11
-24.4123
 21
-2.31154
  0
LINE
  8
0
 10
-24.4123
 20
-2.31154
 11
-24.5536
 21
-2.1869
  0
LINE
  8
0
 10
-24.5536
 20
-2.1869
 11
-24.6869
 21
-2.05363
  0
LINE
  8
0
 10
-24.6869
 20
-2.05363
 11
-24.8115
 21
-1.91226
  0
LINE
  8
0
 10
-24.8115
 20
-1.91226
 11
-24.927
 21
-1.76335
  0
LINE
  8
0
 10
-24.927
 20
-1.76335
 11
-25.033
 21
-1.60747
  0
LINE
  8
0
 10
-37.6884
 20
-17.9941
 11
-37.876
 21
-17.9763
  0
LINE
  8
0
 10
-37.876
 20
-17.9763
 11
-38.0621
 21
-17.9469
  0
LINE
  8
0
 10
-38.0621
 20
-17.9469
 11
-38.2461
 21
-17.9057
  0
LINE
  8
0
 10
-38.2461
 20
-17.9057
 11
-38.427
 21
-17.8532
  0
LINE
  8
0
 10
-38.427
 20
-17.8532
 11
-38.6044
 21
-17.7893
  0
LINE
  8
0
 10
-38.6044
 20
-17.7893
 11
-38.7773
 21
-17.7145
  0
LINE
  8
0
 10
-38.7773
 20
-17.7145
 11
-38.9453
 21
-17.6289
  0
LINE
  8
0
 10
-38.9453
 20
-17.6289
 11
-39.1075
 21
-17.533
  0
LINE
  8
0
 10
-39.1075
 20
-17.533
 11
-39.2634
 21
-17.427
  0
LINE
  8
0
 10
-39.2634
 20
-17.427
 11
-39.4123
 21
-17.3115
  0
LINE
  8
0
 10
-39.4123
 20
-17.3115
 11
-39.5536
 21
-17.1869
  0
LINE
  8
0
 10
-39.5536
 20
-17.1869
 11
-39.6869
 21
-17.0536
  0
LINE
  8
0
 10
-39.6869
 20
-17.0536
 11
-39.8115
 21
-16.9123
  0
LINE
  8
0
 10
-39.8115
 20
-16.9123
 11
-39.927
 21
-16.7634
  0
LINE
  8
0
 10
-39.927
 20
-16.7634
 11
-40.033
 21
-16.6075
  0
LINE
  8
0
 10
-40.033
 20
-16.6075
 11
-40.1289
 21
-16.4453
  0
LINE
  8
0
 10
-40.1289
 20
-16.4453
 11
-40.2145
 21
-16.2773
  0
LINE
  8
0
 10
-40.2145
 20
-16.2773
 11
-40.2893
 21
-16.1044
  0
LINE
  8
0
 10
-40.2893
 20
-16.1044
 11
-40.3532
 21
-15.927
  0
LINE
  8
0
 10
-40.3532
 20
-15.927
 11
-40.4057
 21
-15.7461
  0
LINE
  8
0
 10
-40.4057
 20
-15.7461
 11
-40.4469
 21
-15.5621
  0
LINE
  8
0
 10
-40.4469
 20
-15.5621
 11
-40.4763
 21
-15.376
  0
LINE
  8
0
 10
-40.4763
 20
-15.376
 11
-40.4941
 21
-15.1884
  0
LINE
  8
0
 10
-40.4941
 20
-15.1884
 11
-40.5
 21
-15
  0
LINE
  8
0
 10
-40.5
 20
-15
 11
-40.4941
 21
-14.8116
  0
LINE
  8
0
 10
-40.4941
 20
-14.8116
 11
-40.4763
 21
-14.624
  0
LINE
  8
0
 10
-40.4763
 20
-14.624
 11
-40.4469
 21
-14.4379
  0
LINE
  8
0
 10
-40.4469
 20
-14.4379
 11
-40.4057
 21
-14.2539
  0
LINE
  8
0
 10
-40.4057
 20
-14.2539
 11
-40.3532
 21
-14.0729
  0
LINE
  8
0
 10
-40.3532
 20
-14.0729
 11
-40.2893
 21
-13.8956
  0
LINE
  8
0
 10
-40.2893
 20
-13.8956
 11
-40.2145
 21
-13.7227
  0
LINE
  8
0
 10
-40.2145
 20
-13.7227
 11
-40.1289
 21
-13.5547
  0
LINE
  8
0
 10
-40.1289
 20
-13.5547
 11
-40.033
 21
-13.3925
  0
LINE
  8
0
 10
-40.033
 20
-13.3925
 11
-39.927
 21
-13.2366
  0
LINE
  8
0
 10
-39.927
 20
-13.2366
 11
-39.8115
 21
-13.0877
  0
LINE
  8
0
 10
-39.8115
 20
-13.0877
 11
-39.6869
 21
-12.9464
  0
LINE
  8
0
 10
-39.6869
 20
-12.9464
 11
-39.5536
 21
-12.8131
  0
LINE
  8
0
 10
-39.5536
 20
-12.8131
 11
-39.4123
 21
-12.6884
  0
LINE
  8
0
 10
-39.4123
 20
-12.6884
 11
-39.2634
 21
-12.5729
  0
LINE
  8
0
 10
-39.2634
 20
-12.5729
 11
-39.1075
 21
-12.467
  0
LINE
  8
0
 10
-39.1075
 20
-12.467
 11
-38.9453
 21
-12.3711
  0
LINE
  8
0
 10
-38.9453
 20
-12.3711
 11
-38.7773
 21
-12.2855
  0
LINE
  8
0
 10
-38.7773
 20
-12.2855
 11
-38.6044
 21
-12.2107
  0
LINE
  8
0
 10
-38.6044
 20
-12.2107
 11
-38.427
 21
-12.1468
  0
LINE
  8
0
 10
-38.427
 20
-12.1468
 11
-38.2461
 21
-12.0942
  0
LINE
  8
0
 10
-38.2461
 20
-12.0942
 11
-38.0621
 21
-12.0531
  0
LINE
  8
0
 10
-38.0621
 20
-12.0531
 11
-37.876
 21
-12.0237
  0
LINE
  8
0
 10
-37.876
 20
-12.0237
 11
-37.6884
 21
-12.0059
  0
LINE
  8
0
 10
-37.6884
 20
-12.0059
 11
-37.5
 21
-12
  0
LINE
  8
0
 10
-37.5
 20
-12
 11
-37.3116
 21
-12.0059
  0
LINE
  8
0
 10
-37.3116
 20
-12.0059
 11
-37.124
 21
-12.0237
  0
LINE
  8
0
 10
-37.124
 20
-12.0237
 11
-36.9379
 21
-12.0531
  0
LINE
  8
0
 10
-36.9379
 20
-12.0531
 11
-36.7539
 21
-12.0942
  0
LINE
  8
0
 10
-36.7539
 20
-12.0942
 11
-36.5729
 21
-12.1468
  0
LINE
  8
0
 10
-36.5729
 20
-12.1468
 11
-36.3956
 21
-12.2107
  0
LINE
  8
0
 10
-36.3956
 20
-12.2107
 11
-36.2227
 21
-12.2855
  0
LINE
  8
0
 10
-36.2227
 20
-12.2855
 11
-36.0547
 21
-12.3711
  0
LINE
  8
0
 10
-36.0547
 20
-12.3711
 11
-35.8925
 21
-12.467
  0
LINE
  8
0
 10
-35.8925
 20
-12.467
 11
-35.7366
 21
-12.5729
  0
LINE
  8
0
 10
-35.7366
 20
-12.5729
 11
-35.5877
 21
-12.6884
  0
LINE
  8
0
 10
-35.5877
 20
-12.6884
 11
-35.4464
 21
-12.8131
  0
LINE
  8
0
 10
-35.4464
 20
-12.8131
 11
-35.3131
 21
-12.9464
  0
LINE
  8
0
 10
-35.3131
 20
-12.9464
 11
-35.1885
 21
-13.0877
  0
LINE
  8
0
 10
-35.1885
 20
-13.0877
 11
-35.0729
 21
-13.2366
  0
LINE
  8
0
 10
-35.0729
 20
-13.2366
 11
-34.967
 21
-13.3925
  0
LINE
  8
0
 10
-34.967
 20
-13.3925
 11
-34.8711
 21
-13.5547
  0
LINE
  8
0
 10
-34.8711
 20
-13.5547
 11
-34.7855
 21
-13.7227
  0
LINE
  8
0
 10
-34.7855
 20
-13.7227
 11
-34.7107
 21
-13.8956
  0
LINE
  8
0
 10
-34.7107
 20
-13.8956
 11
-34.6468
 21
-14.0729
  0
LINE
  8
0
 10
-34.6468
 20
-14.0729
 11
-34.5942
 21
-14.2539
  0
LINE
  8
0
 10
-34.5942
 20
-14.2539
 11
-34.5531
 21
-14.4379
  0
LINE
  8
0
 10
-34.5531
 20
-14.4379
 11
-34.5237
 21
-14.624
  0
LINE
  8
0
 10
-34.5237
 20
-14.624
 11
-34.5059
 21
-14.8116
  0
LINE
  8
0
 10
-34.5059
 20
-14.8116
 11
-34.5
 21
-15
  0
LINE
  8
0
 10
-34.5
 20
-15
 11
-34.5059
 21
-15.1884
  0
LINE
  8
0
 10
-34.5059
 20
-15.1884
 11
-34.5237
 21
-15.376
  0
LINE
  8
0
 10
-34.5237
 20
-15.376
 11
-34.5531
 21
-15.5621
  0
LINE
  8
0
 10
-34.5531
 20
-15.5621
 11
-34.5942
 21
-15.7461
  0
LINE
  8
0
 10
-34.5942
 20
-15.7461
 11
-34.6468
 21
-15.927
  0
LINE
  8
0
 10
-34.6468
 20
-15.927
 11
-34.7107
 21
-16.1044
  0
LINE
  8
0
 10
-34.7107
 20
-16.1044
 11
-34.7855
 21
-16.2773
  0
LINE
  8
0
 10
-34.7855
 20
-16.2773
 11
-34.8711
 21
-16.4453
  0
LINE
  8
0
 10
-34.8711
 20
-16.4453
 11
-34.967
 21
-16.6075
  0
LINE
  8
0
 10
-34.967
 20
-16.6075
 11
-35.0729
 21
-16.7634
  0
LINE
  8
0
 10
-35.0729
 20
-16.7634
 11
-35.1885
 21
-16.9123
  0
LINE
  8
0
 10
-35.1885
 20
-16.9123
 11
-35.3131
 21
-17.0536
  0
LINE
  8
0
 10
-35.3131
 20
-17.0536
 11
-35.4464
 21
-17.1869
  0
LINE
  8
0
 10
-35.4464
 20
-17.1869
 11
-35.5877
 21
-17.3115
  0
LINE
  8
0
 10
-35.5877
 20
-17.3115
 11
-35.7366
 21
-17.427
  0
LINE
  8
0
 10
-35.7366
 20
-17.427
 11
-35.8925
 21
-17.533
  0
LINE
  8
0
 10
-35.8925
 20
-17.533
 11
-36.0547
 21
-17.6289
  0
LINE
  8
0
 10
-36.0547
 20
-17.6289
 11
-36.2227
 21
-17.7145
  0
LINE
  8
0
 10
-36.2227
 20
-17.7145
 11
-36.3956
 21
-17.7893
  0
LINE
  8
0
 10
-36.3956
 20
-17.7893
 11
-36.5729
 21
-17.8532
  0
LINE
  8
0
 10
-36.5729
 20
-17.8532
 11
-36.7539
 21
-17.9057
  0
LINE
  8
0
 10
-36.7539
 20
-17.9057
 11
-36.9379
 21
-17.9469
  0
LINE
  8
0
 10
-36.9379
 20
-17.9469
 11
-37.124
 21
-17.9763
  0
LINE
  8
0
 10
-37.124
 20
-17.9763
 11
-37.3116
 21
-17.9941
  0
LINE
  8
0
 10
-37.3116
 20
-17.9941
 11
-37.5
 21
-18
  0
LINE
  8
0
 10
-37.5
 20
-18
 11
-37.6884
 21
-17.9941
  0
LINE
  8
0
 10
-22.6884
 20
-17.9941
 11
-22.876
 21
-17.9763
  0
LINE
  8
0
 10
-22.876
 20
-17.9763
 11
-23.0621
 21
-17.9469
  0
LINE
  8
0
 10
-23.0621
 20
-17.9469
 11
-23.2461
 21
-17.9057
  0
LINE
  8
0
 10
-23.2461
 20
-17.9057
 11
-23.427
 21
-17.8532
  0
LINE
  8
0
 10
-23.427
 20
-17.8532
 11
-23.6044
 21
-17.7893
  0
LINE
  8
0
 10
-23.6044
 20
-17.7893
 11
-23.7773
 21
-17.7145
  0
LINE
  8
0
 10
-23.7773
 20
-17.7145
 11
-23.9453
 21
-17.6289
  0
LINE
  8
0
 10
-23.9453
 20
-17.6289
 11
-24.1075
 21
-17.533
  0
LINE
  8
0
 10
-24.1075
 20
-17.533
 11
-24.2634
 21
-17.427
  0
LINE
  8
0
 10
-24.2634
 20
-17.427
 11
-24.4123
 21
-17.3115
  0
LINE
  8
0
 10
-24.4123
 20
-17.3115
 11
-24.5536
 21
-17.1869
  0
LINE
  8
0
 10
-24.5536
 20
-17.1869
 11
-24.6869
 21
-17.0536
  0
LINE
  8
0
 10
-24.6869
 20
-17.0536
 11
-24.8115
 21
-16.9123
  0
LINE
  8
0
 10
-24.8115
 20
-16.9123
 11
-24.927
 21
-16.7634
  0
LINE
  8
0
 10
-24.927
 20
-16.7634
 11
-25.033
 21
-16.6075
  0
LINE
  8
0
 10
-25.033
 20
-16.6075
 11
-25.1289
 21
-16.4453
  0
LINE
  8
0
 10
-25.1289
 20
-16.4453
 11
-25.2145
 21
-16.2773
  0
LINE
  8
0
 10
-25.2145
 20
-16.2773
 11
-25.2893
 21
-16.1044
  0
LINE
  8
0
 10
-25.2893
 20
-16.1044
 11
-25.3532
 21
-15.927
  0
LINE
  8
0
 10
-25.3532
 20
-15.927
 11
-25.4057
 21
-15.7461
  0
LINE
  8
0
 10
-25.4057
 20
-15.7461
 11
-25.4469
 21
-15.5621
  0
LINE
  8
0
 10
-25.4469
 20
-15.5621
 11
-25.4763
 21
-15.376
  0
LINE
  8
0
 10
-25.4763
 20
-15.376
 11
-25.4941
 21
-15.1884
  0
LINE
  8
0
 10
-25.4941
 20
-15.1884
 11
-25.5
 21
-15
  0
LINE
  8
0
 10
-25.5
 20
-15
 11
-25.4941
 21
-14.8116
  0
LINE
  8
0
 10
-25.4941
 20
-14.8116
 11
-25.4763
 21
-14.624
  0
LINE
  8
0
 10
-25.4763
 20
-14.624
 11
-25.4469
 21
-14.4379
  0
LINE
  8
0
 10
-25.4469
 20
-14.4379
 11
-25.4057
 21
-14.2539
  0
LINE
  8
0
 10
-25.4057
 20
-14.2539
 11
-25.3532
 21
-14.0729
  0
LINE
  8
0
 10
-25.3532
 20
-14.0729
 11
-25.2893
 21
-13.8956
  0
LINE
  8
0
 10
-25.2893
 20
-13.8956
 11
-25.2145
 21
-13.7227
  0
LINE
  8
0
 10
-25.2145
 20
-13.7227
 11
-25.1289
 21
-13.5547
  0
LINE
  8
0
 10
-25.1289
 20
-13.5547
 11
-25.033
 21
-13.3925
  0
LINE
  8
0
 10
-25.033
 20
-13.3925
 11
-24.927
 21
-13.2366
  0
LINE
  8
0
 10
-24.927
 20
-13.2366
 11
-24.8115
 21
-13.0877
  0
LINE
  8
0
 10
-24.8115
 20
-13.0877
 11
-24.6869
 21
-12.9464
  0
LINE
  8
0
 10
-24.6869
 20
-12.9464
 11
-24.5536
 21
-12.8131
  0
LINE
  8
0
 10
-24.5536
 20
-12.8131
 11
-24.4123
 21
-12.6884
  0
LINE
  8
0
 10
-24.4123
 20
-12.6884
 11
-24.2634
 21
-12.5729
  0
LINE
  8
0
 10
-24.2634
 20
-12.5729
 11
-24.1075
 21
-12.467
  0
LINE
  8
0
 10
-24.1075
 20
-12.467
 11
-23.9453
 21
-12.3711
  0
LINE
  8
0
 10
-23.9453
 20
-12.3711
 11
-23.7773
 21
-12.2855
  0
LINE
  8
0
 10
-23.7773
 20
-12.2855
 11
-23.6044
 21
-12.2107
  0
LINE
  8
0
 10
-23.6044
 20
-12.2107
 11
-23.427
 21
-12.1468
  0
LINE
  8
0
 10
-23.427
 20
-12.1468
 11
-23.2461
 21
-12.0942
  0
LINE
  8
0
 10
-23.2461
 20
-12.0942
 11
-23.0621
 21
-12.0531
  0
LINE
  8
0
 10
-23.0621
 20
-12.0531
 11
-22.876
 21
-12.0237
  0
LINE
  8
0
 10
-22.876
 20
-12.0237
 11
-22.6884
 21
-12.0059
  0
LINE
  8
0
 10
-22.6884
 20
-12.0059
 11
-22.5
 21
-12
  0
LINE
  8
0
 10
-22.5
 20
-12
 11
-22.3116
 21
-12.0059
  0
LINE
  8
0
 10
-22.3116
 20
-12.0059
 11
-22.124
 21
-12.0237
  0
LINE
  8
0
 10
-22.124
 20
-12.0237
 11
-21.9379
 21
-12.0531
  0
LINE
  8
0
 10
-21.9379
 20
-12.0531
 11
-21.7539
 21
-12.0942
  0
LINE
  8
0
 10
-21.7539
 20
-12.0942
 11
-21.5729
 21
-12.1468
  0
LINE
  8
0
 10
-21.5729
 20
-12.1468
 11
-21.3956
 21
-12.2107
  0
LINE
  8
0
 10
-21.3956
 20
-12.2107
 11
-21.2227
 21
-12.2855
  0
LINE
  8
0
 10
-21.2227
 20
-12.2855
 11
-21.0547
 21
-12.3711
  0
LINE
  8
0
 10
-21.0547
 20
-12.3711
 11
-20.8925
 21
-12.467
  0
LINE
  8
0
 10
-20.8925
 20
-12.467
 11
-20.7366
 21
-12.5729
  0
LINE
  8
0
 10
-20.7366
 20
-12.5729
 11
-20.5877
 21
-12.6884
  0
LINE
  8
0
 10
-20.5877
 20
-12.6884
 11
-20.4464
 21
-12.8131
  0
LINE
  8
0
 10
-20.4464
 20
-12.8131
 11
-20.3131
 21
-12.9464
  0
LINE
  8
0
 10
-20.3131
 20
-12.9464
 11
-20.1884
 21
-13.0877
  0
LINE
  8
0
 10
-20.1884
 20
-13.0877
 11
-20.0729
 21
-13.2366
  0
LINE
  8
0
 10
-20.0729
 20
-13.2366
 11
-19.967
 21
-13.3925
  0
LINE
  8
0
 10
-19.967
 20
-13.3925
 11
-19.8711
 21
-13.5547
  0
LINE
  8
0
 10
-19.8711
 20
-13.5547
 11
-19.7855
 21
-13.7227
  0
LINE
  8
0
 10
-19.7855
 20
-13.7227
 11
-19.7107
 21
-13.8956
  0
LINE
  8
0
 10
-19.7107
 20
-13.8956
 11
-19.6468
 21
-14.0729
  0
LINE
  8
0
 10
-19.6468
 20
-14.0729
 11
-19.5942
 21
-14.2539
  0
LINE
  8
0
 10
-19.5942
 20
-14.2539
 11
-19.5531
 21
-14.4379
  0
LINE
  8
0
 10
-19.5531
 20
-14.4379
 11
-19.5237
 21
-14.624
  0
LINE
  8
0
 10
-19.5237
 20
-14.624
 11
-19.5059
 21
-14.8116
  0
LINE
  8
0
 10
-19.5059
 20
-14.8116
 11
-19.5
 21
-15
  0
LINE
  8
0
 10
-19.5
 20
-15
 11
-19.5059
 21
-15.1884
  0
LINE
  8
0
 10
-19.5059
 20
-15.1884
 11
-19.5237
 21
-15.376
  0
LINE
  8
0
 10
-19.5237
 20
-15.376
 11
-19.5531
 21
-15.5621
  0
LINE
  8
0
 10
-19.5531
 20
-15.5621
 11
-19.5942
 21
-15.7461
  0
LINE
  8
0
 10
-19.5942
 20
-15.7461
 11
-19.6468
 21
-15.927
  0
LINE
  8
0
 10
-19.6468
 20
-15.927
 11
-19.7107
 21
-16.1044
  0
LINE
  8
0
 10
-19.7107
 20
-16.1044
 11
-19.7855
 21
-16.2773
  0
LINE
  8
0
 10
-19.7855
 20
-16.2773
 11
-19.8711
 21
-16.4453
  0
LINE
  8
0
 10
-19.8711
 20
-16.4453
 11
-19.967
 21
-16.6075
  0
LINE
  8
0
 10
-19.967
 20
-16.6075
 11
-20.0729
 21
-16.7634
  0
LINE
  8
0
 10
-20.0729
 20
-16.7634
 11
-20.1884
 21
-16.9123
  0
LINE
  8
0
 10
-20.1884
 20
-16.9123
 11
-20.3131
 21
-17.0536
  0
LINE
  8
0
 10
-20.3131
 20
-17.0536
 11
-20.4464
 21
-17.1869
  0
LINE
  8
0
 10
-20.4464
 20
-17.1869
 11
-20.5877
 21
-17.3115
  0
LINE
  8
0
 10
-20.5877
 20
-17.3115
 11
-20.7366
 21
-17.427
  0
LINE
  8
0
 10
-20.7366
 20
-17.427
 11
-20.8925
 21
-17.533
  0
LINE
  8
0
 10
-20.8925
 20
-17.533
 11
-21.0547
 21
-17.6289
  0
LINE
  8
0
 10
-21.0547
 20
-17.6289
 11
-21.2227
 21
-17.7145
  0
LINE
  8
0
 10
-21.2227
 20
-17.7145
 11
-21.3956
 21
-17.7893
  0
LINE
  8
0
 10
-21.3956
 20
-17.7893
 11
-21.5729
 21
-17.8532
  0
LINE
  8
0
 10
-21.5729
 20
-17.8532
 11
-21.7539
 21
-17.9057
  0
LINE
  8
0
 10
-21.7539
 20
-17.9057
 11
-21.9379
 21
-17.9469
  0
LINE
  8
0
 10
-21.9379
 20
-17.9469
 11
-22.124
 21
-17.9763
  0
LINE
  8
0
 10
-22.124
 20
-17.9763
 11
-22.3116
 21
-17.9941
  0
LINE
  8
0
 10
-22.3116
 20
-17.9941
 11
-22.5
 21
-18
  0
LINE
  8
0
 10
-22.5
 20
-18
 11
-22.6884
 21
-17.9941
  0
LINE
  8
0
 10
22.3116
 20
-17.9941
 11
22.124
 21
-17.9763
  0
LINE
  8
0
 10
22.124
 20
-17.9763
 11
21.9379
 21
-17.9469
  0
LINE
  8
0
 10
21.9379
 20
-17.9469
 11
21.7539
 21
-17.9057
  0
LINE
  8
0
 10
21.7539
 20
-17.9057
 11
21.5729
 21
-17.8532
  0
LINE
  8
0
 10
21.5729
 20
-17.8532
 11
21.3956
 21
-17.7893
  0
LINE
  8
0
 10
21.3956
 20
-17.7893
 11
21.2227
 21
-17.7145
  0
LINE
  8
0
 10
21.2227
 20
-17.7145
 11
21.0547
 21
-17.6289
  0
LINE
  8
0
 10
21.0547
 20
-17.6289
 11
20.8925
 21
-17.533
  0
LINE
  8
0
 10
20.8925
 20
-17.533
 11
20.7366
 21
-17.427
  0
LINE
  8
0
 10
20.7366
 20
-17.427
 11
20.5877
 21
-17.3115
  0
LINE
  8
0
 10
20.5877
 20
-17.3115
 11
20.4464
 21
-17.1869
  0
LINE
  8
0
 10
20.4464
 20
-17.1869
 11
20.3131
 21
-17.0536
  0
LINE
  8
0
 10
20.3131
 20
-17.0536
 11
20.1884
 21
-16.9123
  0
LINE
  8
0
 10
20.1884
 20
-16.9123
 11
20.0729
 21
-16.7634
  0
LINE
  8
0
 10
20.0729
 20
-16.7634
 11
19.967
 21
-16.6075
  0
LINE
  8
0
 10
19.967
 20
-16.6075
 11
19.8711
 21
-16.4453
  0
LINE
  8
0
 10
19.8711
 20
-16.4453
 11
19.7855
 21
-16.2773
  0
LINE
  8
0
 10
19.7855
 20
-16.2773
 11
19.7107
 21
-16.1044
  0
LINE
  8
0
 10
19.7107
 20
-16.1044
 11
19.6468
 21
-15.927
  0
LINE
  8
0
 10
19.6468
 20
-15.927
 11
19.5942
 21
-15.7461
  0
LINE
  8
0
 10
19.5942
 20
-15.7461
 11
19.5531
 21
-15.5621
  0
LINE
  8
0
 10
19.5531
 20
-15.5621
 11
19.5237
 21
-15.376
  0
LINE
  8
0
 10
19.5237
 20
-15.376
 11
19.5059
 21
-15.1884
  0
LINE
  8
0
 10
19.5059
 20
-15.1884
 11
19.5
 21
-15
  0
LINE
  8
0
 10
19.5
 20
-15
 11
19.5059
 21
-14.8116
  0
LINE
  8
0
 10
19.5059
 20
-14.8116
 11
19.5237
 21
-14.624
  0
LINE
  8
0
 10
19.5237
 20
-14.624
 11
19.5531
 21
-14.4379
  0
LINE
  8
0
 10
19.5531
 20
-14.4379
 11
19.5942
 21
-14.2539
  0
LINE
  8
0
 10
19.5942
 20
-14.2539
 11
19.6468
 21
-14.0729
  0
LINE
  8
0
 10
19.6468
 20
-14.0729
 11
19.7107
 21
-13.8956
  0
LINE
  8
0
 10
19.7107
 20
-13.8956
 11
19.7855
 21
-13.7227
  0
LINE
  8
0
 10
19.7855
 20
-13.7227
 11
19.8711
 21
-13.5547
  0
LINE
  8
0
 10
19.8711
 20
-13.5547
 11
19.967
 21
-13.3925
  0
LINE
  8
0
 10
19.967
 20
-13.3925
 11
20.0729
 21
-13.2366
  0
LINE
  8
0
 10
20.0729
 20
-13.2366
 11
20.1884
 21
-13.0877
  0
LINE
  8
0
 10
20.1884
 20
-13.0877
 11
20.3131
 21
-12.9464
  0
LINE
  8
0
 10
20.3131
 20
-12.9464
 11
20.4464
 21
-12.8131
  0
LINE
  8
0
 10
20.4464
 20
-12.8131
 11
20.5877
 21
-12.6884
  0
LINE
  8
0
 10
20.5877
 20
-12.6884
 11
20.7366
 21
-12.5729
  0
LINE
  8
0
 10
20.7366
 20
-12.5729
 11
20.8925
 21
-12.467
  0
LINE
  8
0
 10
20.8925
 20
-12.467
 11
21.0547
 21
-12.3711
  0
LINE
  8
0
 10
21.0547
 20
-12.3711
 11
21.2227
 21
-12.2855
  0
LINE
  8
0
 10
21.2227
 20
-12.2855
 11
21.3956
 21
-12.2107
  0
LINE
  8
0
 10
21.3956
 20
-12.2107
 11
21.5729
 21
-12.1468
  0
LINE
  8
0
 10
21.5729
 20
-12.1468
 11
21.7539
 21
-12.0942
  0
LINE
  8
0
 10
21.7539
 20
-12.0942
 11
21.9379
 21
-12.0531
  0
LINE
  8
0
 10
21.9379
 20
-12.0531
 11
22.124
 21
-12.0237
  0
LINE
  8
0
 10
22.124
 20
-12.0237
 11
22.3116
 21
-12.0059
  0
LINE
  8
0
 10
22.3116
 20
-12.0059
 11
22.5
 21
-12
  0
LINE
  8
0
 10
22.5
 20
-12
 11
22.6884
 21
-12.0059
  0
LINE
  8
0
 10
22.6884
 20
-12.0059
 11
22.876
 21
-12.0237
  0
LINE
  8
0
 10
22.876
 20
-12.0237
 11
23.0621
 21
-12.0531
  0
LINE
  8
0
 10
23.0621
 20
-12.0531
 11
23.2461
 21
-12.0942
  0
LINE
  8
0
 10
23.2461
 20
-12.0942
 11
23.427
 21
-12.1468
  0
LINE
  8
0
 10
23.427
 20
-12.1468
 11
23.6044
 21
-12.2107
  0
LINE
  8
0
 10
23.6044
 20
-12.2107
 11
23.7773
 21
-12.2855
  0
LINE
  8
0
 10
23.7773
 20
-12.2855
 11
23.9453
 21
-12.3711
  0
LINE
  8
0
 10
23.9453
 20
-12.3711
 11
24.1075
 21
-12.467
  0
LINE
  8
0
 10
24.1075
 20
-12.467
 11
24.2634
 21
-12.5729
  0
LINE
  8
0
 10
24.2634
 20
-12.5729
 11
24.4123
 21
-12.6884
  0
LINE
  8
0
 10
24.4123
 20
-12.6884
 11
24.5536
 21
-12.8131
  0
LINE
  8
0
 10
24.5536
 20
-12.8131
 11
24.6869
 21
-12.9464
  0
LINE
  8
0
 10
24.6869
 20
-12.9464
 11
24.8115
 21
-13.0877
  0
LINE
  8
0
 10
24.8115
 20
-13.0877
 11
24.927
 21
-13.2366
  0
LINE
  8
0
 10
24.927
 20
-13.2366
 11
25.033
 21
-13.3925
  0
LINE
  8
0
 10
25.033
 20
-13.3925
 11
25.1289
 21
-13.5547
  0
LINE
  8
0
 10
25.1289
 20
-13.5547
 11
25.2145
 21
-13.7227
  0
LINE
  8
0
 10
25.2145
 20
-13.7227
 11
25.2893
 21
-13.8956
  0
LINE
  8
0
 10
25.2893
 20
-13.8956
 11
25.3532
 21
-14.0729
  0
LINE
  8
0
 10
25.3532
 20
-14.0729
 11
25.4057
 21
-14.2539
  0
LINE
  8
0
 10
25.4057
 20
-14.2539
 11
25.4469
 21
-14.4379
  0
LINE
  8
0
 10
25.4469
 20
-14.4379
 11
25.4763
 21
-14.624
  0
LINE
  8
0
 10
25.4763
 20
-14.624
 11
25.4941
 21
-14.8116
  0
LINE
  8
0
 10
25.4941
 20
-14.8116
 11
25.5
 21
-15
  0
LINE
  8
0
 10
25.5
 20
-15
 11
25.4941
 21
-15.1884
  0
LINE
  8
0
 10
25.4941
 20
-15.1884
 11
25.4763
 21
-15.376
  0
LINE
  8
0
 10
25.4763
 20
-15.376
 11
25.4469
 21
-15.5621
  0
LINE
  8
0
 10
25.4469
 20
-15.5621
 11
25.4057
 21
-15.7461
  0
LINE
  8
0
 10
25.4057
 20
-15.7461
 11
25.3532
 21
-15.927
  0
LINE
  8
0
 10
25.3532
 20
-15.927
 11
25.2893
 21
-16.1044
  0
LINE
  8
0
 10
25.2893
 20
-16.1044
 11
25.2145
 21
-16.2773
  0
LINE
  8
0
 10
25.2145
 20
-16.2773
 11
25.1289
 21
-16.4453
  0
LINE
  8
0
 10
25.1289
 20
-16.4453
 11
25.033
 21
-16.6075
  0
LINE
  8
0
 10
25.033
 20
-16.6075
 11
24.927
 21
-16.7634
  0
LINE
  8
0
 10
24.927
 20
-16.7634
 11
24.8115
 21
-16.9123
  0
LINE
  8
0
 10
24.8115
 20
-16.9123
 11
24.6869
 21
-17.0536
  0
LINE
  8
0
 10
24.6869
 20
-17.0536
 11
24.5536
 21
-17.1869
  0
LINE
  8
0
 10
24.5536
 20
-17.1869
 11
24.4123
 21
-17.3115
  0
LINE
  8
0
 10
24.4123
 20
-17.3115
 11
24.2634
 21
-17.427
  0
LINE
  8
0
 10
24.2634
 20
-17.427
 11
24.1075
 21
-17.533
  0
LINE
  8
0
 10
24.1075
 20
-17.533
 11
23.9453
 21
-17.6289
  0
LINE
  8
0
 10
23.9453
 20
-17.6289
 11
23.7773
 21
-17.7145
  0
LINE
  8
0
 10
23.7773
 20
-17.7145
 11
23.6044
 21
-17.7893
  0
LINE
  8
0
 10
23.6044
 20
-17.7893
 11
23.427
 21
-17.8532
  0
LINE
  8
0
 10
23.427
 20
-17.8532
 11
23.2461
 21
-17.9057
  0
LINE
  8
0
 10
23.2461
 20
-17.9057
 11
23.0621
 21
-17.9469
  0
LINE
  8
0
 10
23.0621
 20
-17.9469
 11
22.876
 21
-17.9763
  0
LINE
  8
0
 10
22.876
 20
-17.9763
 11
22.6884
 21
-17.9941
  0
LINE
  8
0
 10
22.6884
 20
-17.9941
 11
22.5
 21
-18
  0
LINE
  8
0
 10
22.5
 20
-18
 11
22.3116
 21
-17.9941
  0
LINE
  8
0
 10
37.3116
 20
-17.9941
 11
37.124
 21
-17.9763
  0
LINE
  8
0
 10
37.124
 20
-17.9763
 11
36.9379
 21
-17.9469
  0
LINE
  8
0
 10
36.9379
 20
-17.9469
 11
36.7539
 21
-17.9057
  0
LINE
  8
0
 10
36.7539
 20
-17.9057
 11
36.5729
 21
-17.8532
  0
LINE
  8
0
 10
36.5729
 20
-17.8532
 11
36.3956
 21
-17.7893
  0
LINE
  8
0
 10
36.3956
 20
-17.7893
 11
36.2227
 21
-17.7145
  0
LINE
  8
0
 10
36.2227
 20
-17.7145
 11
36.0547
 21
-17.6289
  0
LINE
  8
0
 10
36.0547
 20
-17.6289
 11
35.8925
 21
-17.533
  0
LINE
  8
0
 10
35.8925
 20
-17.533
 11
35.7366
 21
-17.427
  0
LINE
  8
0
 10
35.7366
 20
-17.427
 11
35.5877
 21
-17.3115
  0
LINE
  8
0
 10
35.5877
 20
-17.3115
 11
35.4464
 21
-17.1869
  0
LINE
  8
0
 10
35.4464
 20
-17.1869
 11
35.3131
 21
-17.0536
  0
LINE
  8
0
 10
35.3131
 20
-17.0536
 11
35.1885
 21
-16.9123
  0
LINE
  8
0
 10
35.1885
 20
-16.9123
 11
35.0729
 21
-16.7634
  0
LINE
  8
0
 10
35.0729
 20
-16.7634
 11
34.967
 21
-16.6075
  0
LINE
  8
0
 10
34.967
 20
-16.6075
 11
34.8711
 21
-16.4453
  0
LINE
  8
0
 10
34.8711
 20
-16.4453
 11
34.7855
 21
-16.2773
  0
LINE
  8
0
 10
34.7855
 20
-16.2773
 11
34.7107
 21
-16.1044
  0
LINE
  8
0
 10
34.7107
 20
-16.1044
 11
34.6468
 21
-15.927
  0
LINE
  8
0
 10
34.6468
 20
-15.927
 11
34.5942
 21
-15.7461
  0
LINE
  8
0
 10
34.5942
 20
-15.7461
 11
34.5531
 21
-15.5621
  0
LINE
  8
0
 10
34.5531
 20
-15.5621
 11
34.5237
 21
-15.376
  0
LINE
  8
0
 10
34.5237
 20
-15.376
 11
34.5059
 21
-15.1884
  0
LINE
  8
0
 10
34.5059
 20
-15.1884
 11
34.5
 21
-15
  0
LINE
  8
0
 10
34.5
 20
-15
 11
34.5059
 21
-14.8116
  0
LINE
  8
0
 10
34.5059
 20
-14.8116
 11
34.5237
 21
-14.624
  0
LINE
  8
0
 10
34.5237
 20
-14.624
 11
34.5531
 21
-14.4379
  0
LINE
  8
0
 10
34.5531
 20
-14.4379
 11
34.5942
 21
-14.2539
  0
LINE
  8
0
 10
34.5942
 20
-14.2539
 11
34.6468
 21
-14.0729
  0
LINE
  8
0
 10
34.6468
 20
-14.0729
 11
34.7107
 21
-13.8956
  0
LINE
  8
0
 10
34.7107
 20
-13.8956
 11
34.7855
 21
-13.7227
  0
LINE
  8
0
 10
34.7855
 20
-13.7227
 11
34.8711
 21
-13.5547
  0
LINE
  8
0
 10
34.8711
 20
-13.5547
 11
34.967
 21
-13.3925
  0
LINE
  8
0
 10
34.967
 20
-13.3925
 11
35.0729
 21
-13.2366
  0
LINE
  8
0
 10
35.0729
 20
-13.2366
 11
35.1885
 21
-13.0877
  0
LINE
  8
0
 10
35.1885
 20
-13.0877
 11
35.3131
 21
-12.9464
  0
LINE
  8
0
 10
35.3131
 20
-12.9464
 11
35.4464
 21
-12.8131
  0
LINE
  8
0
 10
35.4464
 20
-12.8131
 11
35.5877
 21
-12.6884
  0
LINE
  8
0
 10
35.5877
 20
-12.6884
 11
35.7366
 21
-12.5729
  0
LINE
  8
0
 10
35.7366
 20
-12.5729
 11
35.8925
 21
-12.467
  0
LINE
  8
0
 10
35.8925
 20
-12.467
 11
36.0547
 21
-12.3711
  0
LINE
  8
0
 10
36.0547
 20
-12.3711
 11
36.2227
 21
-12.2855
  0
LINE
  8
0
 10
36.2227
 20
-12.2855
 11
36.3956
 21
-12.2107
  0
LINE
  8
0
 10
36.3956
 20
-12.2107
 11
36.5729
 21
-12.1468
  0
LINE
  8
0
 10
36.5729
 20
-12.1468
 11
36.7539
 21
-12.0942
  0
LINE
  8
0
 10
36.7539
 20
-12.0942
 11
36.9379
 21
-12.0531
  0
LINE
  8
0
 10
36.9379
 20
-12.0531
 11
37.124
 21
-12.0237
  0
LINE
  8
0
 10
37.124
 20
-12.0237
 11
37.3116
 21
-12.0059
  0
LINE
  8
0
 10
37.3116
 20
-12.0059
 11
37.5
 21
-12
  0
LINE
  8
0
 10
37.5
 20
-12
 11
37.6884
 21
-12.0059
  0
LINE
  8
0
 10
37.6884
 20
-12.0059
 11
37.876
 21
-12.0237
  0
LINE
  8
0
 10
37.876
 20
-12.0237
 11
38.0621
 21
-12.0531
  0
LINE
  8
0
 10
38.0621
 20
-12.0531
 11
38.2461
 21
-12.0942
  0
LINE
  8
0
 10
38.2461
 20
-12.0942
 11
38.427
 21
-12.1468
  0
LINE
  8
0
 10
38.427
 20
-12.1468
 11
38.6044
 21
-12.2107
  0
LINE
  8
0
 10
38.6044
 20
-12.2107
 11
38.7773
 21
-12.2855
  0
LINE
  8
0
 10
38.7773
 20
-12.2855
 11
38.9453
 21
-12.3711
  0
LINE
  8
0
 10
38.9453
 20
-12.3711
 11
39.1075
 21
-12.467
  0
LINE
  8
0
 10
39.1075
 20
-12.467
 11
39.2634
 21
-12.5729
  0
LINE
  8
0
 10
39.2634
 20
-12.5729
 11
39.4123
 21
-12.6884
  0
LINE
  8
0
 10
39.4123
 20
-12.6884
 11
39.5536
 21
-12.8131
  0
LINE
  8
0
 10
39.5536
 20
-12.8131
 11
39.6869
 21
-12.9464
  0
LINE
  8
0
 10
39.6869
 20
-12.9464
 11
39.8115
 21
-13.0877
  0
LINE
  8
0
 10
39.8115
 20
-13.0877
 11
39.927
 21
-13.2366
  0
LINE
  8
0
 10
39.927
 20
-13.2366
 11
40.033
 21
-13.3925
  0
LINE
  8
0
 10
40.033
 20
-13.3925
 11
40.1289
 21
-13.5547
  0
LINE
  8
0
 10
40.1289
 20
-13.5547
 11
40.2145
 21
-13.7227
  0
LINE
  8
0
 10
40.2145
 20
-13.7227
 11
40.2893
 21
-13.8956
  0
LINE
  8
0
 10
40.2893
 20
-13.8956
 11
40.3532
 21
-14.0729
  0
LINE
  8
0
 10
40.3532
 20
-14.0729
 11
40.4057
 21
-14.2539
  0
LINE
  8
0
 10
40.4057
 20
-14.2539
 11
40.4469
 21
-14.4379
  0
LINE
  8
0
 10
40.4469
 20
-14.4379
 11
40.4763
 21
-14.624
  0
LINE
  8
0
 10
40.4763
 20
-14.624
 11
40.4941
 21
-14.8116
  0
LINE
  8
0
 10
40.4941
 20
-14.8116
 11
40.5
 21
-15
  0
LINE
  8
0
 10
40.5
 20
-15
 11
40.4941
 21
-15.1884
  0
LINE
  8
0
 10
40.4941
 20
-15.1884
 11
40.4763
 21
-15.376
  0
LINE
  8
0
 10
40.4763
 20
-15.376
 11
40.4469
 21
-15.5621
  0
LINE
  8
0
 10
40.4469
 20
-15.5621
 11
40.4057
 21
-15.7461
  0
LINE
  8
0
 10
40.4057
 20
-15.7461
 11
40.3532
 21
-15.927
  0
LINE
  8
0
 10
40.3532
 20
-15.927
 11
40.2893
 21
-16.1044
  0
LINE
  8
0
 10
40.2893
 20
-16.1044
 11
40.2145
 21
-16.2773
  0
LINE
  8
0
 10
40.2145
 20
-16.2773
 11
40.1289
 21
-16.4453
  0
LINE
  8
0
 10
40.1289
 20
-16.4453
 11
40.033
 21
-16.6075
  0
LINE
  8
0
 10
40.033
 20
-16.6075
 11
39.927
 21
-16.7634
  0
LINE
  8
0
 10
39.927
 20
-16.7634
 11
39.8115
 21
-16.9123
  0
LINE
  8
0
 10
39.8115
 20
-16.9123
 11
39.6869
 21
-17.0536
  0
LINE
  8
0
 10
39.6869
 20
-17.0536
 11
39.5536
 21
-17.1869
  0
LINE
  8
0
 10
39.5536
 20
-17.1869
 11
39.4123
 21
-17.3115
  0
LINE
  8
0
 10
39.4123
 20
-17.3115
 11
39.2634
 21
-17.427
  0
LINE
  8
0
 10
39.2634
 20
-17.427
 11
39.1075
 21
-17.533
  0
LINE
  8
0
 10
39.1075
 20
-17.533
 11
38.9453
 21
-17.6289
  0
LINE
  8
0
 10
38.9453
 20
-17.6289
 11
38.7773
 21
-17.7145
  0
LINE
  8
0
 10
38.7773
 20
-17.7145
 11
38.6044
 21
-17.7893
  0
LINE
  8
0
 10
38.6044
 20
-17.7893
 11
38.427
 21
-17.8532
  0
LINE
  8
0
 10
38.427
 20
-17.8532
 11
38.2461
 21
-17.9057
  0
LINE
  8
0
 10
38.2461
 20
-17.9057
 11
38.0621
 21
-17.9469
  0
LINE
  8
0
 10
38.0621
 20
-17.9469
 11
37.876
 21
-17.9763
  0
LINE
  8
0
 10
37.876
 20
-17.9763
 11
37.6884
 21
-17.9941
  0
LINE
  8
0
 10
37.6884
 20
-17.9941
 11
37.5
 21
-18
  0
LINE
  8
0
 10
37.5
 20
-18
 11
37.3116
 21
-17.9941
  0
LINE
  8
0
 10
52.3116
 20
-17.9941
 11
52.124
 21
-17.9763
  0
LINE
  8
0
 10
52.124
 20
-17.9763
 11
51.9379
 21
-17.9469
  0
LINE
  8
0
 10
51.9379
 20
-17.9469
 11
51.7539
 21
-17.9057
  0
LINE
  8
0
 10
51.7539
 20
-17.9057
 11
51.5729
 21
-17.8532
  0
LINE
  8
0
 10
51.5729
 20
-17.8532
 11
51.3956
 21
-17.7893
  0
LINE
  8
0
 10
51.3956
 20
-17.7893
 11
51.2227
 21
-17.7145
  0
LINE
  8
0
 10
51.2227
 20
-17.7145
 11
51.0547
 21
-17.6289
  0
LINE
  8
0
 10
51.0547
 20
-17.6289
 11
50.8925
 21
-17.533
  0
LINE
  8
0
 10
50.8925
 20
-17.533
 11
50.7366
 21
-17.427
  0
LINE
  8
0
 10
50.7366
 20
-17.427
 11
50.5877
 21
-17.3115
  0
LINE
  8
0
 10
50.5877
 20
-17.3115
 11
50.4464
 21
-17.1869
  0
LINE
  8
0
 10
50.4464
 20
-17.1869
 11
50.3131
 21
-17.0536
  0
LINE
  8
0
 10
50.3131
 20
-17.0536
 11
50.1885
 21
-16.9123
  0
LINE
  8
0
 10
50.1885
 20
-16.9123
 11
50.0729
 21
-16.7634
  0
LINE
  8
0
 10
50.0729
 20
-16.7634
 11
49.967
 21
-16.6075
  0
LINE
  8
0
 10
49.967
 20
-16.6075
 11
49.8711
 21
-16.4453
  0
LINE
  8
0
 10
49.8711
 20
-16.4453
 11
49.7855
 21
-16.2773
  0
LINE
  8
0
 10
49.7855
 20
-16.2773
 11
49.7107
 21
-16.1044
  0
LINE
  8
0
 10
49.7107
 20
-16.1044
 11
49.6468
 21
-15.927
  0
LINE
  8
0
 10
49.6468
 20
-15.927
 11
49.5942
 21
-15.7461
  0
LINE
  8
0
 10
49.5942
 20
-15.7461
 11
49.5531
 21
-15.5621
  0
LINE
  8
0
 10
49.5531
 20
-15.5621
 11
49.5237
 21
-15.376
  0
LINE
  8
0
 10
49.5237
 20
-15.376
 11
49.5059
 21
-15.1884
  0
LINE
  8
0
 10
49.5059
 20
-15.1884
 11
49.5
 21
-15
  0
LINE
  8
0
 10
49.5
 20
-15
 11
49.5059
 21
-14.8116
  0
LINE
  8
0
 10
49.5059
 20
-14.8116
 11
49.5237
 21
-14.624
  0
LINE
  8
0
 10
49.5237
 20
-14.624
 11
49.5531
 21
-14.4379
  0
LINE
  8
0
 10
49.5531
 20
-14.4379
 11
49.5942
 21
-14.2539
  0
LINE
  8
0
 10
49.5942
 20
-14.2539
 11
49.6468
 21
-14.0729
  0
LINE
  8
0
 10
49.6468
 20
-14.0729
 11
49.7107
 21
-13.8956
  0
LINE
  8
0
 10
49.7107
 20
-13.8956
 11
49.7855
 21
-13.7227
  0
LINE
  8
0
 10
49.7855
 20
-13.7227
 11
49.8711
 21
-13.5547
  0
LINE
  8
0
 10
49.8711
 20
-13.5547
 11
49.967
 21
-13.3925
  0
LINE
  8
0
 10
49.967
 20
-13.3925
 11
50.0729
 21
-13.2366
  0
LINE
  8
0
 10
50.0729
 20
-13.2366
 11
50.1885
 21
-13.0877
  0
LINE
  8
0
 10
50.1885
 20
-13.0877
 11
50.3131
 21
-12.9464
  0
LINE
  8
0
 10
50.3131
 20
-12.9464
 11
50.4464
 21
-12.8131
  0
LINE
  8
0
 10
50.4464
 20
-12.8131
 11
50.5877
 21
-12.6884
  0
LINE
  8
0
 10
50.5877
 20
-12.6884
 11
50.7366
 21
-12.5729
  0
LINE
  8
0
 10
50.7366
 20
-12.5729
 11
50.8925
 21
-12.467
  0
LINE
  8
0
 10
50.8925
 20
-12.467
 11
51.0547
 21
-12.3711
  0
LINE
  8
0
 10
51.0547
 20
-12.3711
 11
51.2227
 21
-12.2855
  0
LINE
  8
0
 10
51.2227
 20
-12.2855
 11
51.3956
 21
-12.2107
  0
LINE
  8
0
 10
51.3956
 20
-12.2107
 11
51.5729
 21
-12.1468
  0
LINE
  8
0
 10
51.5729
 20
-12.1468
 11
51.7539
 21
-12.0942
  0
LINE
  8
0
 10
51.7539
 20
-12.0942
 11
51.9379
 21
-12.0531
  0
LINE
  8
0
 10
51.9379
 20
-12.0531
 11
52.124
 21
-12.0237
  0
LINE
  8
0
 10
52.124
 20
-12.0237
 11
52.3116
 21
-12.0059
  0
LINE
  8
0
 10
52.3116
 20
-12.0059
 11
52.5
 21
-12
  0
LINE
  8
0
 10
52.5
 20
-12
 11
52.6884
 21
-12.0059
  0
LINE
  8
0
 10
52.6884
 20
-12.0059
 11
52.876
 21
-12.0237
  0
LINE
  8
0
 10
52.876
 20
-12.0237
 11
53.0621
 21
-12.0531
  0
LINE
  8
0
 10
53.0621
 20
-12.0531
 11
53.2461
 21
-12.0942
  0
LINE
  8
0
 10
53.2461
 20
-12.0942
 11
53.427
 21
-12.1468
  0
LINE
  8
0
 10
53.427
 20
-12.1468
 11
53.6044
 21
-12.2107
  0
LINE
  8
0
 10
53.6044
 20
-12.2107
 11
53.7773
 21
-12.2855
  0
LINE
  8
0
 10
53.7773
 20
-12.2855
 11
53.9453
 21
-12.3711
  0
LINE
  8
0
 10
53.9453
 20
-12.3711
 11
54.1075
 21
-12.467
  0
LINE
  8
0
 10
54.1075
 20
-12.467
 11
54.2634
 21
-12.5729
  0
LINE
  8
0
 10
54.2634
 20
-12.5729
 11
54.4123
 21
-12.6884
  0
LINE
  8
0
 10
54.4123
 20
-12.6884
 11
54.5536
 21
-12.8131
  0
LINE
  8
0
 10
54.5536
 20
-12.8131
 11
54.6869
 21
-12.9464
  0
LINE
  8
0
 10
54.6869
 20
-12.9464
 11
54.8115
 21
-13.0877
  0
LINE
  8
0
 10
54.8115
 20
-13.0877
 11
54.927
 21
-13.2366
  0
LINE
  8
0
 10
54.927
 20
-13.2366
 11
55.033
 21
-13.3925
  0
LINE
  8
0
 10
55.033
 20
-13.3925
 11
55.1289
 21
-13.5547
  0
LINE
  8
0
 10
55.1289
 20
-13.5547
 11
55.2145
 21
-13.7227
  0
LINE
  8
0
 10
55.2145
 20
-13.7227
 11
55.2893
 21
-13.8956
  0
LINE
  8
0
 10
55.2893
 20
-13.8956
 11
55.3532
 21
-14.0729
  0
LINE
  8
0
 10
55.3532
 20
-14.0729
 11
55.4057
 21
-14.2539
  0
LINE
  8
0
 10
55.4057
 20
-14.2539
 11
55.4469
 21
-14.4379
  0
LINE
  8
0
 10
55.4469
 20
-14.4379
 11
55.4763
 21
-14.624
  0
LINE
  8
0
 10
55.4763
 20
-14.624
 11
55.4941
 21
-14.8116
  0
LINE
  8
0
 10
55.4941
 20
-14.8116
 11
55.5
 21
-15
  0
LINE
  8
0
 10
55.5
 20
-15
 11
55.4941
 21
-15.1884
  0
LINE
  8
0
 10
55.4941
 20
-15.1884
 11
55.4763
 21
-15.376
  0
LINE
  8
0
 10
55.4763
 20
-15.376
 11
55.4469
 21
-15.5621
  0
LINE
  8
0
 10
55.4469
 20
-15.5621
 11
55.4057
 21
-15.7461
  0
LINE
  8
0
 10
55.4057
 20
-15.7461
 11
55.3532
 21
-15.927
  0
LINE
  8
0
 10
55.3532
 20
-15.927
 11
55.2893
 21
-16.1044
  0
LINE
  8
0
 10
55.2893
 20
-16.1044
 11
55.2145
 21
-16.2773
  0
LINE
  8
0
 10
55.2145
 20
-16.2773
 11
55.1289
 21
-16.4453
  0
LINE
  8
0
 10
55.1289
 20
-16.4453
 11
55.033
 21
-16.6075
  0
LINE
  8
0
 10
55.033
 20
-16.6075
 11
54.927
 21
-16.7634
  0
LINE
  8
0
 10
54.927
 20
-16.7634
 11
54.8115
 21
-16.9123
  0
LINE
  8
0
 10
54.8115
 20
-16.9123
 11
54.6869
 21
-17.0536
  0
LINE
  8
0
 10
54.6869
 20
-17.0536
 11
54.5536
 21
-17.1869
  0
LINE
  8
0
 10
54.5536
 20
-17.1869
 11
54.4123
 21
-17.3115
  0
LINE
  8
0
 10
54.4123
 20
-17.3115
 11
54.2634
 21
-17.427
  0
LINE
  8
0
 10
54.2634
 20
-17.427
 11
54.1075
 21
-17.533
  0
LINE
  8
0
 10
54.1075
 20
-17.533
 11
53.9453
 21
-17.6289
  0
LINE
  8
0
 10
53.9453
 20
-17.6289
 11
53.7773
 21
-17.7145
  0
LINE
  8
0
 10
53.7773
 20
-17.7145
 11
53.6044
 21
-17.7893
  0
LINE
  8
0
 10
53.6044
 20
-17.7893
 11
53.427
 21
-17.8532
  0
LINE
  8
0
 10
53.427
 20
-17.8532
 11
53.2461
 21
-17.9057
  0
LINE
  8
0
 10
53.2461
 20
-17.9057
 11
53.0621
 21
-17.9469
  0
LINE
  8
0
 10
53.0621
 20
-17.9469
 11
52.876
 21
-17.9763
  0
LINE
  8
0
 10
52.876
 20
-17.9763
 11
52.6884
 21
-17.9941
  0
LINE
  8
0
 10
52.6884
 20
-17.9941
 11
52.5
 21
-18
  0
LINE
  8
0
 10
52.5
 20
-18
 11
52.3116
 21
-17.9941
  0
LINE
  8
0
 10
7.31161
 20
-17.9941
 11
7.12399
 21
-17.9763
  0
LINE
  8
0
 10
7.12399
 20
-17.9763
 11
6.93785
 21
-17.9469
  0
LINE
  8
0
 10
6.93785
 20
-17.9469
 11
6.75392
 21
-17.9057
  0
LINE
  8
0
 10
6.75392
 20
-17.9057
 11
6.57294
 21
-17.8532
  0
LINE
  8
0
 10
6.57294
 20
-17.8532
 11
6.39561
 21
-17.7893
  0
LINE
  8
0
 10
6.39561
 20
-17.7893
 11
6.22266
 21
-17.7145
  0
LINE
  8
0
 10
6.22266
 20
-17.7145
 11
6.05473
 21
-17.6289
  0
LINE
  8
0
 10
6.05473
 20
-17.6289
 11
5.89252
 21
-17.533
  0
LINE
  8
0
 10
5.89252
 20
-17.533
 11
5.73663
 21
-17.427
  0
LINE
  8
0
 10
5.73663
 20
-17.427
 11
5.58772
 21
-17.3115
  0
LINE
  8
0
 10
5.58772
 20
-17.3115
 11
5.44635
 21
-17.1869
  0
LINE
  8
0
 10
5.44635
 20
-17.1869
 11
5.31308
 21
-17.0536
  0
LINE
  8
0
 10
5.31308
 20
-17.0536
 11
5.18845
 21
-16.9123
  0
LINE
  8
0
 10
5.18845
 20
-16.9123
 11
5.07294
 21
-16.7634
  0
LINE
  8
0
 10
5.07294
 20
-16.7634
 11
4.96701
 21
-16.6075
  0
LINE
  8
0
 10
4.96701
 20
-16.6075
 11
4.87108
 21
-16.4453
  0
LINE
  8
0
 10
4.87108
 20
-16.4453
 11
4.78551
 21
-16.2773
  0
LINE
  8
0
 10
4.78551
 20
-16.2773
 11
4.71066
 21
-16.1044
  0
LINE
  8
0
 10
4.71066
 20
-16.1044
 11
4.64682
 21
-15.927
  0
LINE
  8
0
 10
4.64682
 20
-15.927
 11
4.59424
 21
-15.7461
  0
LINE
  8
0
 10
4.59424
 20
-15.7461
 11
4.55313
 21
-15.5621
  0
LINE
  8
0
 10
4.55313
 20
-15.5621
 11
4.52365
 21
-15.376
  0
LINE
  8
0
 10
4.52365
 20
-15.376
 11
4.50591
 21
-15.1884
  0
LINE
  8
0
 10
4.50591
 20
-15.1884
 11
4.5
 21
-15
  0
LINE
  8
0
 10
4.5
 20
-15
 11
4.50591
 21
-14.8116
  0
LINE
  8
0
 10
4.50591
 20
-14.8116
 11
4.52365
 21
-14.624
  0
LINE
  8
0
 10
4.52365
 20
-14.624
 11
4.55313
 21
-14.4379
  0
LINE
  8
0
 10
4.55313
 20
-14.4379
 11
4.59424
 21
-14.2539
  0
LINE
  8
0
 10
4.59424
 20
-14.2539
 11
4.64682
 21
-14.0729
  0
LINE
  8
0
 10
4.64682
 20
-14.0729
 11
4.71066
 21
-13.8956
  0
LINE
  8
0
 10
4.71066
 20
-13.8956
 11
4.78551
 21
-13.7227
  0
LINE
  8
0
 10
4.78551
 20
-13.7227
 11
4.87108
 21
-13.5547
  0
LINE
  8
0
 10
4.87108
 20
-13.5547
 11
4.96701
 21
-13.3925
  0
LINE
  8
0
 10
4.96701
 20
-13.3925
 11
5.07294
 21
-13.2366
  0
LINE
  8
0
 10
5.07294
 20
-13.2366
 11
5.18845
 21
-13.0877
  0
LINE
  8
0
 10
5.18845
 20
-13.0877
 11
5.31308
 21
-12.9464
  0
LINE
  8
0
 10
5.31308
 20
-12.9464
 11
5.44635
 21
-12.8131
  0
LINE
  8
0
 10
5.44635
 20
-12.8131
 11
5.58772
 21
-12.6884
  0
LINE
  8
0
 10
5.58772
 20
-12.6884
 11
5.73663
 21
-12.5729
  0
LINE
  8
0
 10
5.73663
 20
-12.5729
 11
5.89252
 21
-12.467
  0
LINE
  8
0
 10
5.89252
 20
-12.467
 11
6.05473
 21
-12.3711
  0
LINE
  8
0
 10
6.05473
 20
-12.3711
 11
6.22266
 21
-12.2855
  0
LINE
  8
0
 10
6.22266
 20
-12.2855
 11
6.39561
 21
-12.2107
  0
LINE
  8
0
 10
6.39561
 20
-12.2107
 11
6.57294
 21
-12.1468
  0
LINE
  8
0
 10
6.57294
 20
-12.1468
 11
6.75392
 21
-12.0942
  0
LINE
  8
0
 10
6.75392
 20
-12.0942
 11
6.93785
 21
-12.0531
  0
LINE
  8
0
 10
6.93785
 20
-12.0531
 11
7.12399
 21
-12.0237
  0
LINE
  8
0
 10
7.12399
 20
-12.0237
 11
7.31161
 21
-12.0059
  0
LINE
  8
0
 10
7.31161
 20
-12.0059
 11
7.5
 21
-12
  0
LINE
  8
0
 10
7.5
 20
-12
 11
7.68837
 21
-12.0059
  0
LINE
  8
0
 10
7.68837
 20
-12.0059
 11
7.87599
 21
-12.0237
  0
LINE
  8
0
 10
7.87599
 20
-12.0237
 11
8.06213
 21
-12.0531
  0
LINE
  8
0
 10
8.06213
 20
-12.0531
 11
8.24606
 21
-12.0942
  0
LINE
  8
0
 10
8.24606
 20
-12.0942
 11
8.42705
 21
-12.1468
  0
LINE
  8
0
 10
8.42705
 20
-12.1468
 11
8.60437
 21
-12.2107
  0
LINE
  8
0
 10
8.60437
 20
-12.2107
 11
8.77733
 21
-12.2855
  0
LINE
  8
0
 10
8.77733
 20
-12.2855
 11
8.94525
 21
-12.3711
  0
LINE
  8
0
 10
8.94525
 20
-12.3711
 11
9.10747
 21
-12.467
  0
LINE
  8
0
 10
9.10747
 20
-12.467
 11
9.26335
 21
-12.5729
  0
LINE
  8
0
 10
9.26335
 20
-12.5729
 11
9.41226
 21
-12.6884
  0
LINE
  8
0
 10
9.41226
 20
-12.6884
 11
9.55363
 21
-12.8131
  0
LINE
  8
0
 10
9.55363
 20
-12.8131
 11
9.6869
 21
-12.9464
  0
LINE
  8
0
 10
9.6869
 20
-12.9464
 11
9.81154
 21
-13.0877
  0
LINE
  8
0
 10
9.81154
 20
-13.0877
 11
9.92705
 21
-13.2366
  0
LINE
  8
0
 10
9.92705
 20
-13.2366
 11
10.033
 21
-13.3925
  0
LINE
  8
0
 10
10.033
 20
-13.3925
 11
10.1289
 21
-13.5547
  0
LINE
  8
0
 10
10.1289
 20
-13.5547
 11
10.2145
 21
-13.7227
  0
LINE
  8
0
 10
10.2145
 20
-13.7227
 11
10.2893
 21
-13.8956
  0
LINE
  8
0
 10
10.2893
 20
-13.8956
 11
10.3532
 21
-14.0729
  0
LINE
  8
0
 10
10.3532
 20
-14.0729
 11
10.4057
 21
-14.2539
  0
LINE
  8
0
 10
10.4057
 20
-14.2539
 11
10.4469
 21
-14.4379
  0
LINE
  8
0
 10
10.4469
 20
-14.4379
 11
10.4763
 21
-14.624
  0
LINE
  8
0
 10
10.4763
 20
-14.624
 11
10.4941
 21
-14.8116
  0
LINE
  8
0
 10
10.4941
 20
-14.8116
 11
10.5
 21
-15
  0
LINE
  8
0
 10
10.5
 20
-15
 11
10.4941
 21
-15.1884
  0
LINE
  8
0
 10
10.4941
 20
-15.1884
 11
10.4763
 21
-15.376
  0
LINE
  8
0
 10
10.4763
 20
-15.376
 11
10.4469
 21
-15.5621
  0
LINE
  8
0
 10
10.4469
 20
-15.5621
 11
10.4057
 21
-15.7461
  0
LINE
  8
0
 10
10.4057
 20
-15.7461
 11
10.3532
 21
-15.927
  0
LINE
  8
0
 10
10.3532
 20
-15.927
 11
10.2893
 21
-16.1044
  0
LINE
  8
0
 10
10.2893
 20
-16.1044
 11
10.2145
 21
-16.2773
  0
LINE
  8
0
 10
10.2145
 20
-16.2773
 11
10.1289
 21
-16.4453
  0
LINE
  8
0
 10
10.1289
 20
-16.4453
 11
10.033
 21
-16.6075
  0
LINE
  8
0
 10
10.033
 20
-16.6075
 11
9.92705
 21
-16.7634
  0
LINE
  8
0
 10
9.92705
 20
-16.7634
 11
9.81154
 21
-16.9123
  0
LINE
  8
0
 10
9.81154
 20
-16.9123
 11
9.6869
 21
-17.0536
  0
LINE
  8
0
 10
9.6869
 20
-17.0536
 11
9.55363
 21
-17.1869
  0
LINE
  8
0
 10
9.55363
 20
-17.1869
 11
9.41226
 21
-17.3115
  0
LINE
  8
0
 10
9.41226
 20
-17.3115
 11
9.26335
 21
-17.427
  0
LINE
  8
0
 10
9.26335
 20
-17.427
 11
9.10747
 21
-17.533
  0
LINE
  8
0
 10
9.10747
 20
-17.533
 11
8.94525
 21
-17.6289
  0
LINE
  8
0
 10
8.94525
 20
-17.6289
 11
8.77733
 21
-17.7145
  0
LINE
  8
0
 10
8.77733
 20
-17.7145
 11
8.60437
 21
-17.7893
  0
LINE
  8
0
 10
8.60437
 20
-17.7893
 11
8.42705
 21
-17.8532
  0
LINE
  8
0
 10
8.42705
 20
-17.8532
 11
8.24606
 21
-17.9057
  0
LINE
  8
0
 10
8.24606
 20
-17.9057
 11
8.06213
 21
-17.9469
  0
LINE
  8
0
 10
8.06213
 20
-17.9469
 11
7.87599
 21
-17.9763
  0
LINE
  8
0
 10
7.87599
 20
-17.9763
 11
7.68837
 21
-17.9941
  0
LINE
  8
0
 10
7.68837
 20
-17.9941
 11
7.5
 21
-18
  0
LINE
  8
0
 10
7.5
 20
-18
 11
7.31161
 21
-17.9941
  0
LINE
  8
0
 10
-52.6884
 20
-17.9941
 11
-52.876
 21
-17.9763
  0
LINE
  8
0
 10
-52.876
 20
-17.9763
 11
-53.0621
 21
-17.9469
  0
LINE
  8
0
 10
-53.0621
 20
-17.9469
 11
-53.2461
 21
-17.9057
  0
LINE
  8
0
 10
-53.2461
 20
-17.9057
 11
-53.427
 21
-17.8532
  0
LINE
  8
0
 10
-53.427
 20
-17.8532
 11
-53.6044
 21
-17.7893
  0
LINE
  8
0
 10
-53.6044
 20
-17.7893
 11
-53.7773
 21
-17.7145
  0
LINE
  8
0
 10
-53.7773
 20
-17.7145
 11
-53.9453
 21
-17.6289
  0
LINE
  8
0
 10
-53.9453
 20
-17.6289
 11
-54.1075
 21
-17.533
  0
LINE
  8
0
 10
-54.1075
 20
-17.533
 11
-54.2634
 21
-17.427
  0
LINE
  8
0
 10
-54.2634
 20
-17.427
 11
-54.4123
 21
-17.3115
  0
LINE
  8
0
 10
-54.4123
 20
-17.3115
 11
-54.5536
 21
-17.1869
  0
LINE
  8
0
 10
-54.5536
 20
-17.1869
 11
-54.6869
 21
-17.0536
  0
LINE
  8
0
 10
-54.6869
 20
-17.0536
 11
-54.8115
 21
-16.9123
  0
LINE
  8
0
 10
-54.8115
 20
-16.9123
 11
-54.927
 21
-16.7634
  0
LINE
  8
0
 10
-54.927
 20
-16.7634
 11
-55.033
 21
-16.6075
  0
LINE
  8
0
 10
-55.033
 20
-16.6075
 11
-55.1289
 21
-16.4453
  0
LINE
  8
0
 10
-55.1289
 20
-16.4453
 11
-55.2145
 21
-16.2773
  0
LINE
  8
0
 10
-55.2145
 20
-16.2773
 11
-55.2893
 21
-16.1044
  0
LINE
  8
0
 10
-55.2893
 20
-16.1044
 11
-55.3532
 21
-15.927
  0
LINE
  8
0
 10
-55.3532
 20
-15.927
 11
-55.4057
 21
-15.7461
  0
LINE
  8
0
 10
-55.4057
 20
-15.7461
 11
-55.4469
 21
-15.5621
  0
LINE
  8
0
 10
-55.4469
 20
-15.5621
 11
-55.4763
 21
-15.376
  0
LINE
  8
0
 10
-55.4763
 20
-15.376
 11
-55.4941
 21
-15.1884
  0
LINE
  8
0
 10
-55.4941
 20
-15.1884
 11
-55.5
 21
-15
  0
LINE
  8
0
 10
-55.5
 20
-15
 11
-55.4941
 21
-14.8116
  0
LINE
  8
0
 10
-55.4941
 20
-14.8116
 11
-55.4763
 21
-14.624
  0
LINE
  8
0
 10
-55.4763
 20
-14.624
 11
-55.4469
 21
-14.4379
  0
LINE
  8
0
 10
-55.4469
 20
-14.4379
 11
-55.4057
 21
-14.2539
  0
LINE
  8
0
 10
-55.4057
 20
-14.2539
 11
-55.3532
 21
-14.0729
  0
LINE
  8
0
 10
-55.3532
 20
-14.0729
 11
-55.2893
 21
-13.8956
  0
LINE
  8
0
 10
-55.2893
 20
-13.8956
 11
-55.2145
 21
-13.7227
  0
LINE
  8
0
 10
-55.2145
 20
-13.7227
 11
-55.1289
 21
-13.5547
  0
LINE
  8
0
 10
-55.1289
 20
-13.5547
 11
-55.033
 21
-13.3925
  0
LINE
  8
0
 10
-55.033
 20
-13.3925
 11
-54.927
 21
-13.2366
  0
LINE
  8
0
 10
-54.927
 20
-13.2366
 11
-54.8115
 21
-13.0877
  0
LINE
  8
0
 10
-54.8115
 20
-13.0877
 11
-54.6869
 21
-12.9464
  0
LINE
  8
0
 10
-54.6869
 20
-12.9464
 11
-54.5536
 21
-12.8131
  0
LINE
  8
0
 10
-54.5536
 20
-12.8131
 11
-54.4123
 21
-12.6884
  0
LINE
  8
0
 10
-54.4123
 20
-12.6884
 11
-54.2634
 21
-12.5729
  0
LINE
  8
0
 10
-54.2634
 20
-12.5729
 11
-54.1075
 21
-12.467
  0
LINE
  8
0
 10
-54.1075
 20
-12.467
 11
-53.9453
 21
-12.3711
  0
LINE
  8
0
 10
-53.9453
 20
-12.3711
 11
-53.7773
 21
-12.2855
  0
LINE
  8
0
 10
-53.7773
 20
-12.2855
 11
-53.6044
 21
-12.2107
  0
LINE
  8
0
 10
-53.6044
 20
-12.2107
 11
-53.427
 21
-12.1468
  0
LINE
  8
0
 10
-53.427
 20
-12.1468
 11
-53.2461
 21
-12.0942
  0
LINE
  8
0
 10
-53.2461
 20
-12.0942
 11
-53.0621
 21
-12.0531
  0
LINE
  8
0
 10
-53.0621
 20
-12.0531
 11
-52.876
 21
-12.0237
  0
LINE
  8
0
 10
-52.876
 20
-12.0237
 11
-52.6884
 21
-12.0059
  0
LINE
  8
0
 10
-52.6884
 20
-12.0059
 11
-52.5
 21
-12
  0
LINE
  8
0
 10
-52.5
 20
-12
 11
-52.3116
 21
-12.0059
  0
LINE
  8
0
 10
-52.3116
 20
-12.0059
 11
-52.124
 21
-12.0237
  0
LINE
  8
0
 10
-52.124
 20
-12.0237
 11
-51.9379
 21
-12.0531
  0
LINE
  8
0
 10
-51.9379
 20
-12.0531
 11
-51.7539
 21
-12.0942
  0
LINE
  8
0
 10
-51.7539
 20
-12.0942
 11
-51.5729
 21
-12.1468
  0
LINE
  8
0
 10
-51.5729
 20
-12.1468
 11
-51.3956
 21
-12.2107
  0
LINE
  8
0
 10
-51.3956
 20
-12.2107
 11
-51.2227
 21
-12.2855
  0
LINE
  8
0
 10
-51.2227
 20
-12.2855
 11
-51.0547
 21
-12.3711
  0
LINE
  8
0
 10
-51.0547
 20
-12.3711
 11
-50.8925
 21
-12.467
  0
LINE
  8
0
 10
-50.8925
 20
-12.467
 11
-50.7366
 21
-12.5729
  0
LINE
  8
0
 10
-50.7366
 20
-12.5729
 11
-50.5877
 21
-12.6884
  0
LINE
  8
0
 10
-50.5877
 20
-12.6884
 11
-50.4464
 21
-12.8131
  0
LINE
  8
0
 10
-50.4464
 20
-12.8131
 11
-50.3131
 21
-12.9464
  0
LINE
  8
0
 10
-50.3131
 20
-12.9464
 11
-50.1885
 21
-13.0877
  0
LINE
  8
0
 10
-50.1885
 20
-13.0877
 11
-50.0729
 21
-13.2366
  0
LINE
  8
0
 10
-50.0729
 20
-13.2366
 11
-49.967
 21
-13.3925
  0
LINE
  8
0
 10
-49.967
 20
-13.3925
 11
-49.8711
 21
-13.5547
  0
LINE
  8
0
 10
-49.8711
 20
-13.5547
 11
-49.7855
 21
-13.7227
  0
LINE
  8
0
 10
-49.7855
 20
-13.7227
 11
-49.7107
 21
-13.8956
  0
LINE
  8
0
 10
-49.7107
 20
-13.8956
 11
-49.6468
 21
-14.0729
  0
LINE
  8
0
 10
-49.6468
 20
-14.0729
 11
-49.5942
 21
-14.2539
  0
LINE
  8
0
 10
-49.5942
 20
-14.2539
 11
-49.5531
 21
-14.4379
  0
LINE
  8
0
 10
-49.5531
 20
-14.4379
 11
-49.5237
 21
-14.624
  0
LINE
  8
0
 10
-49.5237
 20
-14.624
 11
-49.5059
 21
-14.8116
  0
LINE
  8
0
 10
-49.5059
 20
-14.8116
 11
-49.5
 21
-15
  0
LINE
  8
0
 10
-49.5
 20
-15
 11
-49.5059
 21
-15.1884
  0
LINE
  8
0
 10
-49.5059
 20
-15.1884
 11
-49.5237
 21
-15.376
  0
LINE
  8
0
 10
-49.5237
 20
-15.376
 11
-49.5531
 21
-15.5621
  0
LINE
  8
0
 10
-49.5531
 20
-15.5621
 11
-49.5942
 21
-15.7461
  0
LINE
  8
0
 10
-49.5942
 20
-15.7461
 11
-49.6468
 21
-15.927
  0
LINE
  8
0
 10
-49.6468
 20
-15.927
 11
-49.7107
 21
-16.1044
  0
LINE
  8
0
 10
-49.7107
 20
-16.1044
 11
-49.7855
 21
-16.2773
  0
LINE
  8
0
 10
-49.7855
 20
-16.2773
 11
-49.8711
 21
-16.4453
  0
LINE
  8
0
 10
-49.8711
 20
-16.4453
 11
-49.967
 21
-16.6075
  0
LINE
  8
0
 10
-49.967
 20
-16.6075
 11
-50.0729
 21
-16.7634
  0
LINE
  8
0
 10
-50.0729
 20
-16.7634
 11
-50.1885
 21
-16.9123
  0
LINE
  8
0
 10
-50.1885
 20
-16.9123
 11
-50.3131
 21
-17.0536
  0
LINE
  8
0
 10
-50.3131
 20
-17.0536
 11
-50.4464
 21
-17.1869
  0
LINE
  8
0
 10
-50.4464
 20
-17.1869
 11
-50.5877
 21
-17.3115
  0
LINE
  8
0
 10
-50.5877
 20
-17.3115
 11
-50.7366
 21
-17.427
  0
LINE
  8
0
 10
-50.7366
 20
-17.427
 11
-50.8925
 21
-17.533
  0
LINE
  8
0
 10
-50.8925
 20
-17.533
 11
-51.0547
 21
-17.6289
  0
LINE
  8
0
 10
-51.0547
 20
-17.6289
 11
-51.2227
 21
-17.7145
  0
LINE
  8
0
 10
-51.2227
 20
-17.7145
 11
-51.3956
 21
-17.7893
  0
LINE
  8
0
 10
-51.3956
 20
-17.7893
 11
-51.5729
 21
-17.8532
  0
LINE
  8
0
 10
-51.5729
 20
-17.8532
 11
-51.7539
 21
-17.9057
  0
LINE
  8
0
 10
-51.7539
 20
-17.9057
 11
-51.9379
 21
-17.9469
  0
LINE
  8
0
 10
-51.9379
 20
-17.9469
 11
-52.124
 21
-17.9763
  0
LINE
  8
0
 10
-52.124
 20
-17.9763
 11
-52.3116
 21
-17.9941
  0
LINE
  8
0
 10
-52.3116
 20
-17.9941
 11
-52.5
 21
-18
  0
LINE
  8
0
 10
-52.5
 20
-18
 11
-52.6884
 21
-17.9941
  0
LINE
  8
0
 10
-7.68837
 20
-17.9941
 11
-7.87599
 21
-17.9763
  0
LINE
  8
0
 10
-7.87599
 20
-17.9763
 11
-8.06213
 21
-17.9469
  0
LINE
  8
0
 10
-8.06213
 20
-17.9469
 11
-8.24606
 21
-17.9057
  0
LINE
  8
0
 10
-8.24606
 20
-17.9057
 11
-8.42705
 21
-17.8532
  0
LINE
  8
0
 10
-8.42705
 20
-17.8532
 11
-8.60437
 21
-17.7893
  0
LINE
  8
0
 10
-8.60437
 20
-17.7893
 11
-8.77733
 21
-17.7145
  0
LINE
  8
0
 10
-8.77733
 20
-17.7145
 11
-8.94525
 21
-17.6289
  0
LINE
  8
0
 10
-8.94525
 20
-17.6289
 11
-9.10747
 21
-17.533
  0
LINE
  8
0
 10
-9.10747
 20
-17.533
 11
-9.26335
 21
-17.427
  0
LINE
  8
0
 10
-9.26335
 20
-17.427
 11
-9.41226
 21
-17.3115
  0
LINE
  8
0
 10
-9.41226
 20
-17.3115
 11
-9.55363
 21
-17.1869
  0
LINE
  8
0
 10
-9.55363
 20
-17.1869
 11
-9.6869
 21
-17.0536
  0
LINE
  8
0
 10
-9.6869
 20
-17.0536
 11
-9.81154
 21
-16.9123
  0
LINE
  8
0
 10
-9.81154
 20
-16.9123
 11
-9.92705
 21
-16.7634
  0
LINE
  8
0
 10
-9.92705
 20
-16.7634
 11
-10.033
 21
-16.6075
  0
LINE
  8
0
 10
-10.033
 20
-16.6075
 11
-10.1289
 21
-16.4453
  0
LINE
  8
0
 10
-10.1289
 20
-16.4453
 11
-10.2145
 21
-16.2773
  0
LINE
  8
0
 10
-10.2145
 20
-16.2773
 11
-10.2893
 21
-16.1044
  0
LINE
  8
0
 10
-10.2893
 20
-16.1044
 11
-10.3532
 21
-15.927
  0
LINE
  8
0
 10
-10.3532
 20
-15.927
 11
-10.4057
 21
-15.7461
  0
LINE
  8
0
 10
-10.4057
 20
-15.7461
 11
-10.4469
 21
-15.5621
  0
LINE
  8
0
 10
-10.4469
 20
-15.5621
 11
-10.4763
 21
-15.376
  0
LINE
  8
0
 10
-10.4763
 20
-15.376
 11
-10.4941
 21
-15.1884
  0
LINE
  8
0
 10
-10.4941
 20
-15.1884
 11
-10.5
 21
-15
  0
LINE
  8
0
 10
-10.5
 20
-15
 11
-10.4941
 21
-14.8116
  0
LINE
  8
0
 10
-10.4941
 20
-14.8116
 11
-10.4763
 21
-14.624
  0
LINE
  8
0
 10
-10.4763
 20
-14.624
 11
-10.4469
 21
-14.4379
  0
LINE
  8
0
 10
-10.4469
 20
-14.4379
 11
-10.4057
 21
-14.2539
  0
LINE
  8
0
 10
-10.4057
 20
-14.2539
 11
-10.3532
 21
-14.0729
  0
LINE
  8
0
 10
-10.3532
 20
-14.0729
 11
-10.2893
 21
-13.8956
  0
LINE
  8
0
 10
-10.2893
 20
-13.8956
 11
-10.2145
 21
-13.7227
  0
LINE
  8
0
 10
-10.2145
 20
-13.7227
 11
-10.1289
 21
-13.5547
  0
LINE
  8
0
 10
-10.1289
 20
-13.5547
 11
-10.033
 21
-13.3925
  0
LINE
  8
0
 10
-10.033
 20
-13.3925
 11
-9.92705
 21
-13.2366
  0
LINE
  8
0
 10
-9.92705
 20
-13.2366
 11
-9.81154
 21
-13.0877
  0
LINE
  8
0
 10
-9.81154
 20
-13.0877
 11
-9.6869
 21
-12.9464
  0
LINE
  8
0
 10
-9.6869
 20
-12.9464
 11
-9.55363
 21
-12.8131
  0
LINE
  8
0
 10
-9.55363
 20
-12.8131
 11
-9.41226
 21
-12.6884
  0
LINE
  8
0
 10
-9.41226
 20
-12.6884
 11
-9.26335
 21
-12.5729
  0
LINE
  8
0
 10
-9.26335
 20
-12.5729
 11
-9.10747
 21
-12.467
  0
LINE
  8
0
 10
-9.10747
 20
-12.467
 11
-8.94525
 21
-12.3711
  0
LINE
  8
0
 10
-8.94525
 20
-12.3711
 11
-8.77733
 21
-12.2855
  0
LINE
  8
0
 10
-8.77733
 20
-12.2855
 11
-8.60437
 21
-12.2107
  0
LINE
  8
0
 10
-8.60437
 20
-12.2107
 11
-8.42705
 21
-12.1468
  0
LINE
  8
0
 10
-8.42705
 20
-12.1468
 11
-8.24606
 21
-12.0942
  0
LINE
  8
0
 10
-8.24606
 20
-12.0942
 11
-8.06213
 21
-12.0531
  0
LINE
  8
0
 10
-8.06213
 20
-12.0531
 11
-7.87599
 21
-12.0237
  0
LINE
  8
0
 10
-7.87599
 20
-12.0237
 11
-7.68837
 21
-12.0059
  0
LINE
  8
0
 10
-7.68837
 20
-12.0059
 11
-7.5
 21
-12
  0
LINE
  8
0
 10
-7.5
 20
-12
 11
-7.31161
 21
-12.0059
  0
LINE
  8
0
 10
-7.31161
 20
-12.0059
 11
-7.12399
 21
-12.0237
  0
LINE
  8
0
 10
-7.12399
 20
-12.0237
 11
-6.93785
 21
-12.0531
  0
LINE
  8
0
 10
-6.93785
 20
-12.0531
 11
-6.75392
 21
-12.0942
  0
LINE
  8
0
 10
-6.75392
 20
-12.0942
 11
-6.57294
 21
-12.1468
  0
LINE
  8
0
 10
-6.57294
 20
-12.1468
 11
-6.39561
 21
-12.2107
  0
LINE
  8
0
 10
-6.39561
 20
-12.2107
 11
-6.22266
 21
-12.2855
  0
LINE
  8
0
 10
-6.22266
 20
-12.2855
 11
-6.05473
 21
-12.3711
  0
LINE
  8
0
 10
-6.05473
 20
-12.3711
 11
-5.89252
 21
-12.467
  0
LINE
  8
0
 10
-5.89252
 20
-12.467
 11
-5.73663
 21
-12.5729
  0
LINE
  8
0
 10
-5.73663
 20
-12.5729
 11
-5.58772
 21
-12.6884
  0
LINE
  8
0
 10
-5.58772
 20
-12.6884
 11
-5.44635
 21
-12.8131
  0
LINE
  8
0
 10
-5.44635
 20
-12.8131
 11
-5.31308
 21
-12.9464
  0
LINE
  8
0
 10
-5.31308
 20
-12.9464
 11
-5.18845
 21
-13.0877
  0
LINE
  8
0
 10
-5.18845
 20
-13.0877
 11
-5.07294
 21
-13.2366
  0
LINE
  8
0
 10
-5.07294
 20
-13.2366
 11
-4.96701
 21
-13.3925
  0
LINE
  8
0
 10
-4.96701
 20
-13.3925
 11
-4.87108
 21
-13.5547
  0
LINE
  8
0
 10
-4.87108
 20
-13.5547
 11
-4.78551
 21
-13.7227
  0
LINE
  8
0
 10
-4.78551
 20
-13.7227
 11
-4.71066
 21
-13.8956
  0
LINE
  8
0
 10
-4.71066
 20
-13.8956
 11
-4.64682
 21
-14.0729
  0
LINE
  8
0
 10
-4.64682
 20
-14.0729
 11
-4.59424
 21
-14.2539
  0
LINE
  8
0
 10
-4.59424
 20
-14.2539
 11
-4.55313
 21
-14.4379
  0
LINE
  8
0
 10
-4.55313
 20
-14.4379
 11
-4.52365
 21
-14.624
  0
LINE
  8
0
 10
-4.52365
 20
-14.624
 11
-4.50591
 21
-14.8116
  0
LINE
  8
0
 10
-4.50591
 20
-14.8116
 11
-4.5
 21
-15
  0
LINE
  8
0
 10
-4.5
 20
-15
 11
-4.50591
 21
-15.1884
  0
LINE
  8
0
 10
-4.50591
 20
-15.1884
 11
-4.52365
 21
-15.376
  0
LINE
  8
0
 10
-4.52365
 20
-15.376
 11
-4.55313
 21
-15.5621
  0
LINE
  8
0
 10
-4.55313
 20
-15.5621
 11
-4.59424
 21
-15.7461
  0
LINE
  8
0
 10
-4.59424
 20
-15.7461
 11
-4.64682
 21
-15.927
  0
LINE
  8
0
 10
-4.64682
 20
-15.927
 11
-4.71066
 21
-16.1044
  0
LINE
  8
0
 10
-4.71066
 20
-16.1044
 11
-4.78551
 21
-16.2773
  0
LINE
  8
0
 10
-4.78551
 20
-16.2773
 11
-4.87108
 21
-16.4453
  0
LINE
  8
0
 10
-4.87108
 20
-16.4453
 11
-4.96701
 21
-16.6075
  0
LINE
  8
0
 10
-4.96701
 20
-16.6075
 11
-5.07294
 21
-16.7634
  0
LINE
  8
0
 10
-5.07294
 20
-16.7634
 11
-5.18845
 21
-16.9123
  0
LINE
  8
0
 10
-5.18845
 20
-16.9123
 11
-5.31308
 21
-17.0536
  0
LINE
  8
0
 10
-5.31308
 20
-17.0536
 11
-5.44635
 21
-17.1869
  0
LINE
  8
0
 10
-5.44635
 20
-17.1869
 11
-5.58772
 21
-17.3115
  0
LINE
  8
0
 10
-5.58772
 20
-17.3115
 11
-5.73663
 21
-17.427
  0
LINE
  8
0
 10
-5.73663
 20
-17.427
 11
-5.89252
 21
-17.533
  0
LINE
  8
0
 10
-5.89252
 20
-17.533
 11
-6.05473
 21
-17.6289
  0
LINE
  8
0
 10
-6.05473
 20
-17.6289
 11
-6.22266
 21
-17.7145
  0
LINE
  8
0
 10
-6.22266
 20
-17.7145
 11
-6.39561
 21
-17.7893
  0
LINE
  8
0
 10
-6.39561
 20
-17.7893
 11
-6.57294
 21
-17.8532
  0
LINE
  8
0
 10
-6.57294
 20
-17.8532
 11
-6.75392
 21
-17.9057
  0
LINE
  8
0
 10
-6.75392
 20
-17.9057
 11
-6.93785
 21
-17.9469
  0
LINE
  8
0
 10
-6.93785
 20
-17.9469
 11
-7.12399
 21
-17.9763
  0
LINE
  8
0
 10
-7.12399
 20
-17.9763
 11
-7.31161
 21
-17.9941
  0
LINE
  8
0
 10
-7.31161
 20
-17.9941
 11
-7.5
 21
-18
  0
LINE
  8
0
 10
-7.5
 20
-18
 11
-7.68837
 21
-17.9941
  0
LINE
  8
0
 10
-35.4464
 20
-2.1869
 11
-35.5877
 21
-2.31154
  0
LINE
  8
0
 10
-35.5877
 20
-2.31154
 11
-35.7366
 21
-2.42705
  0
LINE
  8
0
 10
-35.7366
 20
-2.42705
 11
-35.8925
 21
-2.53297
  0
LINE
  8
0
 10
-35.8925
 20
-2.53297
 11
-36.0547
 21
-2.62891
  0
LINE
  8
0
 10
-36.0547
 20
-2.62891
 11
-36.2227
 21
-2.71448
  0
LINE
  8
0
 10
-36.2227
 20
-2.71448
 11
-36.3956
 21
-2.78932
  0
LINE
  8
0
 10
-36.3956
 20
-2.78932
 11
-36.5729
 21
-2.85316
  0
LINE
  8
0
 10
-36.5729
 20
-2.85316
 11
-36.7539
 21
-2.90575
  0
LINE
  8
0
 10
-36.7539
 20
-2.90575
 11
-36.9379
 21
-2.94685
  0
LINE
  8
0
 10
-36.9379
 20
-2.94685
 11
-37.124
 21
-2.97633
  0
LINE
  8
0
 10
-37.124
 20
-2.97633
 11
-37.3116
 21
-2.99408
  0
LINE
  8
0
 10
-37.3116
 20
-2.99408
 11
-37.5
 21
-3
  0
LINE
  8
0
 10
-37.5
 20
-3
 11
-37.6884
 21
-2.99408
  0
LINE
  8
0
 10
-37.6884
 20
-2.99408
 11
-37.876
 21
-2.97633
  0
LINE
  8
0
 10
-37.876
 20
-2.97633
 11
-38.0621
 21
-2.94685
  0
LINE
  8
0
 10
-38.0621
 20
-2.94685
 11
-38.2461
 21
-2.90575
  0
LINE
  8
0
 10
-38.2461
 20
-2.90575
 11
-38.427
 21
-2.85316
  0
LINE
  8
0
 10
-38.427
 20
-2.85316
 11
-38.6044
 21
-2.78932
  0
LINE
  8
0
 10
-38.6044
 20
-2.78932
 11
-38.7773
 21
-2.71448
  0
LINE
  8
0
 10
-38.7773
 20
-2.71448
 11
-38.9453
 21
-2.62891
  0
LINE
  8
0
 10
-38.9453
 20
-2.62891
 11
-39.1075
 21
-2.53297
  0
LINE
  8
0
 10
-39.1075
 20
-2.53297
 11
-39.2634
 21
-2.42705
  0
LINE
  8
0
 10
-39.2634
 20
-2.42705
 11
-39.4123
 21
-2.31154
  0
LINE
  8
0
 10
-39.4123
 20
-2.31154
 11
-39.5536
 21
-2.1869
  0
LINE
  8
0
 10
-39.5536
 20
-2.1869
 11
-39.6869
 21
-2.05363
  0
LINE
  8
0
 10
-39.6869
 20
-2.05363
 11
-39.8115
 21
-1.91226
  0
LINE
  8
0
 10
-39.8115
 20
-1.91226
 11
-39.927
 21
-1.76335
  0
LINE
  8
0
 10
-39.927
 20
-1.76335
 11
-40.033
 21
-1.60747
  0
LINE
  8
0
 10
-40.033
 20
-1.60747
 11
-40.1289
 21
-1.44525
  0
LINE
  8
0
 10
-40.1289
 20
-1.44525
 11
-40.2145
 21
-1.27733
  0
LINE
  8
0
 10
-40.2145
 20
-1.27733
 11
-40.2893
 21
-1.10437
  0
LINE
  8
0
 10
-40.2893
 20
-1.10437
 11
-40.3532
 21
-0.927048
  0
LINE
  8
0
 10
-40.3532
 20
-0.927048
 11
-40.4057
 21
-0.746063
  0
LINE
  8
0
 10
-40.4057
 20
-0.746063
 11
-40.4469
 21
-0.562134
  0
LINE
  8
0
 10
-40.4469
 20
-0.562134
 11
-40.4763
 21
-0.375992
  0
LINE
  8
0
 10
-40.4763
 20
-0.375992
 11
-40.4941
 21
-0.18837
  0
LINE
  8
0
 10
-40.4941
 20
-0.18837
 11
-40.5
 21
0
  0
LINE
  8
0
 10
-40.5
 20
0
 11
-40.4941
 21
0.18837
  0
LINE
  8
0
 10
-40.4941
 20
0.18837
 11
-40.4763
 21
0.375992
  0
LINE
  8
0
 10
-40.4763
 20
0.375992
 11
-40.4469
 21
0.562134
  0
LINE
  8
0
 10
-40.4469
 20
0.562134
 11
-40.4057
 21
0.746063
  0
LINE
  8
0
 10
-40.4057
 20
0.746063
 11
-40.3532
 21
0.927048
  0
LINE
  8
0
 10
-40.3532
 20
0.927048
 11
-40.2893
 21
1.10437
  0
LINE
  8
0
 10
-40.2893
 20
1.10437
 11
-40.2145
 21
1.27733
  0
LINE
  8
0
 10
-40.2145
 20
1.27733
 11
-40.1289
 21
1.44525
  0
LINE
  8
0
 10
-40.1289
 20
1.44525
 11
-40.033
 21
1.60747
  0
LINE
  8
0
 10
-40.033
 20
1.60747
 11
-39.927
 21
1.76335
  0
LINE
  8
0
 10
-39.927
 20
1.76335
 11
-39.8115
 21
1.91226
  0
LINE
  8
0
 10
-39.8115
 20
1.91226
 11
-39.6869
 21
2.05363
  0
LINE
  8
0
 10
-39.6869
 20
2.05363
 11
-39.5536
 21
2.1869
  0
LINE
  8
0
 10
-39.5536
 20
2.1869
 11
-39.4123
 21
2.31154
  0
LINE
  8
0
 10
-39.4123
 20
2.31154
 11
-39.2634
 21
2.42705
  0
LINE
  8
0
 10
-39.2634
 20
2.42705
 11
-39.1075
 21
2.53297
  0
LINE
  8
0
 10
-39.1075
 20
2.53297
 11
-38.9453
 21
2.62891
  0
LINE
  8
0
 10
-38.9453
 20
2.62891
 11
-38.7773
 21
2.71448
  0
LINE
  8
0
 10
-38.7773
 20
2.71448
 11
-38.6044
 21
2.78932
  0
LINE
  8
0
 10
-38.6044
 20
2.78932
 11
-38.427
 21
2.85316
  0
LINE
  8
0
 10
-38.427
 20
2.85316
 11
-38.2461
 21
2.90575
  0
LINE
  8
0
 10
-38.2461
 20
2.90575
 11
-38.0621
 21
2.94685
  0
LINE
  8
0
 10
-38.0621
 20
2.94685
 11
-37.876
 21
2.97633
  0
LINE
  8
0
 10
-37.876
 20
2.97633
 11
-37.6884
 21
2.99408
  0
LINE
  8
0
 10
-37.6884
 20
2.99408
 11
-37.5
 21
3
  0
LINE
  8
0
 10
-37.5
 20
3
 11
-37.3116
 21
2.99408
  0
LINE
  8
0
 10
-37.3116
 20
2.99408
 11
-37.124
 21
2.97633
  0
LINE
  8
0
 10
-37.124
 20
2.97633
 11
-36.9379
 21
2.94685
  0
LINE
  8
0
 10
-36.9379
 20
2.94685
 11
-36.7539
 21
2.90575
  0
LINE
  8
0
 10
-36.7539
 20
2.90575
 11
-36.5729
 21
2.85316
  0
LINE
  8
0
 10
-36.5729
 20
2.85316
 11
-36.3956
 21
2.78932
  0
LINE
  8
0
 10
-36.3956
 20
2.78932
 11
-36.2227
 21
2.71448
  0
LINE
  8
0
 10
-36.2227
 20
2.71448
 11
-36.0547
 21
2.62891
  0
LINE
  8
0
 10
-36.0547
 20
2.62891
 11
-35.8925
 21
2.53297
  0
LINE
  8
0
 10
-35.8925
 20
2.53297
 11
-35.7366
 21
2.42705
  0
LINE
  8
0
 10
-35.7366
 20
2.42705
 11
-35.5877
 21
2.31154
  0
LINE
  8
0
 10
-35.5877
 20
2.31154
 11
-35.4464
 21
2.1869
  0
LINE
  8
0
 10
-35.4464
 20
2.1869
 11
-35.3131
 21
2.05363
  0
LINE
  8
0
 10
-35.3131
 20
2.05363
 11
-35.1885
 21
1.91226
  0
LINE
  8
0
 10
-35.1885
 20
1.91226
 11
-35.0729
 21
1.76335
  0
LINE
  8
0
 10
-35.0729
 20
1.76335
 11
-34.967
 21
1.60747
  0
LINE
  8
0
 10
-34.967
 20
1.60747
 11
-34.8711
 21
1.44525
  0
LINE
  8
0
 10
-34.8711
 20
1.44525
 11
-34.7855
 21
1.27733
  0
LINE
  8
0
 10
-34.7855
 20
1.27733
 11
-34.7107
 21
1.10437
  0
LINE
  8
0
 10
-34.7107
 20
1.10437
 11
-34.6468
 21
0.927048
  0
LINE
  8
0
 10
-34.6468
 20
0.927048
 11
-34.5942
 21
0.746063
  0
LINE
  8
0
 10
-34.5942
 20
0.746063
 11
-34.5531
 21
0.562134
  0
LINE
  8
0
 10
-34.5531
 20
0.562134
 11
-34.5237
 21
0.375992
  0
LINE
  8
0
 10
-34.5237
 20
0.375992
 11
-34.5059
 21
0.18837
  0
LINE
  8
0
 10
-34.5059
 20
0.18837
 11
-34.5
 21
0
  0
LINE
  8
0
 10
-34.5
 20
0
 11
-34.5059
 21
-0.18837
  0
LINE
  8
0
 10
-34.5059
 20
-0.18837
 11
-34.5237
 21
-0.375992
  0
LINE
  8
0
 10
-34.5237
 20
-0.375992
 11
-34.5531
 21
-0.562134
  0
LINE
  8
0
 10
-34.5531
 20
-0.562134
 11
-34.5942
 21
-0.746063
  0
LINE
  8
0
 10
-34.5942
 20
-0.746063
 11
-34.6468
 21
-0.927048
  0
LINE
  8
0
 10
-34.6468
 20
-0.927048
 11
-34.7107
 21
-1.10437
  0
LINE
  8
0
 10
-34.7107
 20
-1.10437
 11
-34.7855
 21
-1.27733
  0
LINE
  8
0
 10
-34.7855
 20
-1.27733
 11
-34.8711
 21
-1.44525
  0
LINE
  8
0
 10
-34.8711
 20
-1.44525
 11
-34.967
 21
-1.60747
  0
LINE
  8
0
 10
-34.967
 20
-1.60747
 11
-35.0729
 21
-1.76335
  0
LINE
  8
0
 10
-35.0729
 20
-1.76335
 11
-35.1885
 21
-1.91226
  0
LINE
  8
0
 10
-35.1885
 20
-1.91226
 11
-35.3131
 21
-2.05363
  0
LINE
  8
0
 10
-35.3131
 20
-2.05363
 11
-35.4464
 21
-2.1869
  0
LINE
  8
0
 10
39.4123
 20
-2.31154
 11
39.2634
 21
-2.42705
  0
LINE
  8
0
 10
39.2634
 20
-2.42705
 11
39.1075
 21
-2.53297
  0
LINE
  8
0
 10
39.1075
 20
-2.53297
 11
38.9453
 21
-2.62891
  0
LINE
  8
0
 10
38.9453
 20
-2.62891
 11
38.7773
 21
-2.71448
  0
LINE
  8
0
 10
38.7773
 20
-2.71448
 11
38.6044
 21
-2.78932
  0
LINE
  8
0
 10
38.6044
 20
-2.78932
 11
38.427
 21
-2.85316
  0
LINE
  8
0
 10
38.427
 20
-2.85316
 11
38.2461
 21
-2.90575
  0
LINE
  8
0
 10
38.2461
 20
-2.90575
 11
38.0621
 21
-2.94685
  0
LINE
  8
0
 10
38.0621
 20
-2.94685
 11
37.876
 21
-2.97633
  0
LINE
  8
0
 10
37.876
 20
-2.97633
 11
37.6884
 21
-2.99408
  0
LINE
  8
0
 10
37.6884
 20
-2.99408
 11
37.5
 21
-3
  0
LINE
  8
0
 10
37.5
 20
-3
 11
37.3116
 21
-2.99408
  0
LINE
  8
0
 10
37.3116
 20
-2.99408
 11
37.124
 21
-2.97633
  0
LINE
  8
0
 10
37.124
 20
-2.97633
 11
36.9379
 21
-2.94685
  0
LINE
  8
0
 10
36.9379
 20
-2.94685
 11
36.7539
 21
-2.90575
  0
LINE
  8
0
 10
36.7539
 20
-2.90575
 11
36.5729
 21
-2.85316
  0
LINE
  8
0
 10
36.5729
 20
-2.85316
 11
36.3956
 21
-2.78932
  0
LINE
  8
0
 10
36.3956
 20
-2.78932
 11
36.2227
 21
-2.71448
  0
LINE
  8
0
 10
36.2227
 20
-2.71448
 11
36.0547
 21
-2.62891
  0
LINE
  8
0
 10
36.0547
 20
-2.62891
 11
35.8925
 21
-2.53297
  0
LINE
  8
0
 10
35.8925
 20
-2.53297
 11
35.7366
 21
-2.42705
  0
LINE
  8
0
 10
35.7366
 20
-2.42705
 11
35.5877
 21
-2.31154
  0
LINE
  8
0
 10
35.5877
 20
-2.31154
 11
35.4464
 21
-2.1869
  0
LINE
  8
0
 10
35.4464
 20
-2.1869
 11
35.3131
 21
-2.05363
  0
LINE
  8
0
 10
35.3131
 20
-2.05363
 11
35.1885
 21
-1.91226
  0
LINE
  8
0
 10
35.1885
 20
-1.91226
 11
35.0729
 21
-1.76335
  0
LINE
  8
0
 10
35.0729
 20
-1.76335
 11
34.967
 21
-1.60747
  0
LINE
  8
0
 10
34.967
 20
-1.60747
 11
34.8711
 21
-1.44525
  0
LINE
  8
0
 10
34.8711
 20
-1.44525
 11
34.7855
 21
-1.27733
  0
LINE
  8
0
 10
34.7855
 20
-1.27733
 11
34.7107
 21
-1.10437
  0
LINE
  8
0
 10
34.7107
 20
-1.10437
 11
34.6468
 21
-0.927048
  0
LINE
  8
0
 10
34.6468
 20
-0.927048
 11
34.5942
 21
-0.746063
  0
LINE
  8
0
 10
34.5942
 20
-0.746063
 11
34.5531
 21
-0.562134
  0
LINE
  8
0
 10
34.5531
 20
-0.562134
 11
34.5237
 21
-0.375992
  0
LINE
  8
0
 10
34.5237
 20
-0.375992
 11
34.5059
 21
-0.18837
  0
LINE
  8
0
 10
34.5059
 20
-0.18837
 11
34.5
 21
0
  0
LINE
  8
0
 10
34.5
 20
0
 11
34.5059
 21
0.18837
  0
LINE
  8
0
 10
34.5059
 20
0.18837
 11
34.5237
 21
0.375992
  0
LINE
  8
0
 10
34.5237
 20
0.375992
 11
34.5531
 21
0.562134
  0
LINE
  8
0
 10
34.5531
 20
0.562134
 11
34.5942
 21
0.746063
  0
LINE
  8
0
 10
34.5942
 20
0.746063
 11
34.6468
 21
0.927048
  0
LINE
  8
0
 10
34.6468
 20
0.927048
 11
34.7107
 21
1.10437
  0
LINE
  8
0
 10
34.7107
 20
1.10437
 11
34.7855
 21
1.27733
  0
LINE
  8
0
 10
34.7855
 20
1.27733
 11
34.8711
 21
1.44525
  0
LINE
  8
0
 10
34.8711
 20
1.44525
 11
34.967
 21
1.60747
  0
LINE
  8
0
 10
34.967
 20
1.60747
 11
35.0729
 21
1.76335
  0
LINE
  8
0
 10
35.0729
 20
1.76335
 11
35.1885
 21
1.91226
  0
LINE
  8
0
 10
35.1885
 20
1.91226
 11
35.3131
 21
2.05363
  0
LINE
  8
0
 10
35.3131
 20
2.05363
 11
35.4464
 21
2.1869
  0
LINE
  8
0
 10
35.4464
 20
2.1869
 11
35.5877
 21
2.31154
  0
LINE
  8
0
 10
35.5877
 20
2.31154
 11
35.7366
 21
2.42705
  0
LINE
  8
0
 10
35.7366
 20
2.42705
 11
35.8925
 21
2.53297
  0
LINE
  8
0
 10
35.8925
 20
2.53297
 11
36.0547
 21
2.62891
  0
LINE
  8
0
 10
36.0547
 20
2.62891
 11
36.2227
 21
2.71448
  0
LINE
  8
0
 10
36.2227
 20
2.71448
 11
36.3956
 21
2.78932
  0
LINE
  8
0
 10
36.3956
 20
2.78932
 11
36.5729
 21
2.85316
  0
LINE
  8
0
 10
36.5729
 20
2.85316
 11
36.7539
 21
2.90575
  0
LINE
  8
0
 10
36.7539
 20
2.90575
 11
36.9379
 21
2.94685
  0
LINE
  8
0
 10
36.9379
 20
2.94685
 11
37.124
 21
2.97633
  0
LINE
  8
0
 10
37.124
 20
2.97633
 11
37.3116
 21
2.99408
  0
LINE
  8
0
 10
37.3116
 20
2.99408
 11
37.5
 21
3
  0
LINE
  8
0
 10
37.5
 20
3
 11
37.6884
 21
2.99408
  0
LINE
  8
0
 10
37.6884
 20
2.99408
 11
37.876
 21
2.97633
  0
LINE
  8
0
 10
37.876
 20
2.97633
 11
38.0621
 21
2.94685
  0
LINE
  8
0
 10
38.0621
 20
2.94685
 11
38.2461
 21
2.90575
  0
LINE
  8
0
 10
38.2461
 20
2.90575
 11
38.427
 21
2.85316
  0
LINE
  8
0
 10
38.427
 20
2.85316
 11
38.6044
 21
2.78932
  0
LINE
  8
0
 10
38.6044
 20
2.78932
 11
38.7773
 21
2.71448
  0
LINE
  8
0
 10
38.7773
 20
2.71448
 11
38.9453
 21
2.62891
  0
LINE
  8
0
 10
38.9453
 20
2.62891
 11
39.1075
 21
2.53297
  0
LINE
  8
0
 10
39.1075
 20
2.53297
 11
39.2634
 21
2.42705
  0
LINE
  8
0
 10
39.2634
 20
2.42705
 11
39.4123
 21
2.31154
  0
LINE
  8
0
 10
39.4123
 20
2.31154
 11
39.5536
 21
2.1869
  0
LINE
  8
0
 10
39.5536
 20
2.1869
 11
39.6869
 21
2.05363
  0
LINE
  8
0
 10
39.6869
 20
2.05363
 11
39.8115
 21
1.91226
  0
LINE
  8
0
 10
39.8115
 20
1.91226
 11
39.927
 21
1.76335
  0
LINE
  8
0
 10
39.927
 20
1.76335
 11
40.033
 21
1.60747
  0
LINE
  8
0
 10
40.033
 20
1.60747
 11
40.1289
 21
1.44525
  0
LINE
  8
0
 10
40.1289
 20
1.44525
 11
40.2145
 21
1.27733
  0
LINE
  8
0
 10
40.2145
 20
1.27733
 11
40.2893
 21
1.10437
  0
LINE
  8
0
 10
40.2893
 20
1.10437
 11
40.3532
 21
0.927048
  0
LINE
  8
0
 10
40.3532
 20
0.927048
 11
40.4057
 21
0.746063
  0
LINE
  8
0
 10
40.4057
 20
0.746063
 11
40.4469
 21
0.562134
  0
LINE
  8
0
 10
40.4469
 20
0.562134
 11
40.4763
 21
0.375992
  0
LINE
  8
0
 10
40.4763
 20
0.375992
 11
40.4941
 21
0.18837
  0
LINE
  8
0
 10
40.4941
 20
0.18837
 11
40.5
 21
0
  0
LINE
  8
0
 10
40.5
 20
0
 11
40.4941
 21
-0.18837
  0
LINE
  8
0
 10
40.4941
 20
-0.18837
 11
40.4763
 21
-0.375992
  0
LINE
  8
0
 10
40.4763
 20
-0.375992
 11
40.4469
 21
-0.562134
  0
LINE
  8
0
 10
40.4469
 20
-0.562134
 11
40.4057
 21
-0.746063
  0
LINE
  8
0
 10
40.4057
 20
-0.746063
 11
40.3532
 21
-0.927048
  0
LINE
  8
0
 10
40.3532
 20
-0.927048
 11
40.2893
 21
-1.10437
  0
LINE
  8
0
 10
40.2893
 20
-1.10437
 11
40.2145
 21
-1.27733
  0
LINE
  8
0
 10
40.2145
 20
-1.27733
 11
40.1289
 21
-1.44525
  0
LINE
  8
0
 10
40.1289
 20
-1.44525
 11
40.033
 21
-1.60747
  0
LINE
  8
0
 10
40.033
 20
-1.60747
 11
39.927
 21
-1.76335
  0
LINE
  8
0
 10
39.927
 20
-1.76335
 11
39.8115
 21
-1.91226
  0
LINE
  8
0
 10
39.8115
 20
-1.91226
 11
39.6869
 21
-2.05363
  0
LINE
  8
0
 10
39.6869
 20
-2.05363
 11
39.5536
 21
-2.1869
  0
LINE
  8
0
 10
39.5536
 20
-2.1869
 11
39.4123
 21
-2.31154
  0
LINE
  8
0
 10
24.4123
 20
-2.31154
 11
24.2634
 21
-2.42705
  0
LINE
  8
0
 10
24.2634
 20
-2.42705
 11
24.1075
 21
-2.53297
  0
LINE
  8
0
 10
24.1075
 20
-2.53297
 11
23.9453
 21
-2.62891
  0
LINE
  8
0
 10
23.9453
 20
-2.62891
 11
23.7773
 21
-2.71448
  0
LINE
  8
0
 10
23.7773
 20
-2.71448
 11
23.6044
 21
-2.78932
  0
LINE
  8
0
 10
23.6044
 20
-2.78932
 11
23.427
 21
-2.85316
  0
LINE
  8
0
 10
23.427
 20
-2.85316
 11
23.2461
 21
-2.90575
  0
LINE
  8
0
 10
23.2461
 20
-2.90575
 11
23.0621
 21
-2.94685
  0
LINE
  8
0
 10
23.0621
 20
-2.94685
 11
22.876
 21
-2.97633
  0
LINE
  8
0
 10
22.876
 20
-2.97633
 11
22.6884
 21
-2.99408
  0
LINE
  8
0
 10
22.6884
 20
-2.99408
 11
22.5
 21
-3
  0
LINE
  8
0
 10
22.5
 20
-3
 11
22.3116
 21
-2.99408
  0
LINE
  8
0
 10
22.3116
 20
-2.99408
 11
22.124
 21
-2.97633
  0
LINE
  8
0
 10
22.124
 20
-2.97633
 11
21.9379
 21
-2.94685
  0
LINE
  8
0
 10
21.9379
 20
-2.94685
 11
21.7539
 21
-2.90575
  0
LINE
  8
0
 10
21.7539
 20
-2.90575
 11
21.5729
 21
-2.85316
  0
LINE
  8
0
 10
21.5729
 20
-2.85316
 11
21.3956
 21
-2.78932
  0
LINE
  8
0
 10
21.3956
 20
-2.78932
 11
21.2227
 21
-2.71448
  0
LINE
  8
0
 10
21.2227
 20
-2.71448
 11
21.0547
 21
-2.62891
  0
LINE
  8
0
 10
21.0547
 20
-2.62891
 11
20.8925
 21
-2.53297
  0
LINE
  8
0
 10
20.8925
 20
-2.53297
 11
20.7366
 21
-2.42705
  0
LINE
  8
0
 10
20.7366
 20
-2.42705
 11
20.5877
 21
-2.31154
  0
LINE
  8
0
 10
20.5877
 20
-2.31154
 11
20.4464
 21
-2.1869
  0
LINE
  8
0
 10
20.4464
 20
-2.1869
 11
20.3131
 21
-2.05363
  0
LINE
  8
0
 10
20.3131
 20
-2.05363
 11
20.1884
 21
-1.91226
  0
LINE
  8
0
 10
20.1884
 20
-1.91226
 11
20.0729
 21
-1.76335
  0
LINE
  8
0
 10
20.0729
 20
-1.76335
 11
19.967
 21
-1.60747
  0
LINE
  8
0
 10
19.967
 20
-1.60747
 11
19.8711
 21
-1.44525
  0
LINE
  8
0
 10
19.8711
 20
-1.44525
 11
19.7855
 21
-1.27733
  0
LINE
  8
0
 10
19.7855
 20
-1.27733
 11
19.7107
 21
-1.10437
  0
LINE
  8
0
 10
19.7107
 20
-1.10437
 11
19.6468
 21
-0.927048
  0
LINE
  8
0
 10
19.6468
 20
-0.927048
 11
19.5942
 21
-0.746063
  0
LINE
  8
0
 10
19.5942
 20
-0.746063
 11
19.5531
 21
-0.562134
  0
LINE
  8
0
 10
19.5531
 20
-0.562134
 11
19.5237
 21
-0.375992
  0
LINE
  8
0
 10
19.5237
 20
-0.375992
 11
19.5059
 21
-0.18837
  0
LINE
  8
0
 10
19.5059
 20
-0.18837
 11
19.5
 21
0
  0
LINE
  8
0
 10
19.5
 20
0
 11
19.5059
 21
0.18837
  0
LINE
  8
0
 10
19.5059
 20
0.18837
 11
19.5237
 21
0.375992
  0
LINE
  8
0
 10
19.5237
 20
0.375992
 11
19.5531
 21
0.562134
  0
LINE
  8
0
 10
19.5531
 20
0.562134
 11
19.5942
 21
0.746063
  0
LINE
  8
0
 10
19.5942
 20
0.746063
 11
19.6468
 21
0.927048
  0
LINE
  8
0
 10
19.6468
 20
0.927048
 11
19.7107
 21
1.10437
  0
LINE
  8
0
 10
19.7107
 20
1.10437
 11
19.7855
 21
1.27733
  0
LINE
  8
0
 10
19.7855
 20
1.27733
 11
19.8711
 21
1.44525
  0
LINE
  8
0
 10
19.8711
 20
1.44525
 11
19.967
 21
1.60747
  0
LINE
  8
0
 10
19.967
 20
1.60747
 11
20.0729
 21
1.76335
  0
LINE
  8
0
 10
20.0729
 20
1.76335
 11
20.1884
 21
1.91226
  0
LINE
  8
0
 10
20.1884
 20
1.91226
 11
20.3131
 21
2.05363
  0
LINE
  8
0
 10
20.3131
 20
2.05363
 11
20.4464
 21
2.1869
  0
LINE
  8
0
 10
20.4464
 20
2.1869
 11
20.5877
 21
2.31154
  0
LINE
  8
0
 10
20.5877
 20
2.31154
 11
20.7366
 21
2.42705
  0
LINE
  8
0
 10
20.7366
 20
2.42705
 11
20.8925
 21
2.53297
  0
LINE
  8
0
 10
20.8925
 20
2.53297
 11
21.0547
 21
2.62891
  0
LINE
  8
0
 10
21.0547
 20
2.62891
 11
21.2227
 21
2.71448
  0
LINE
  8
0
 10
21.2227
 20
2.71448
 11
21.3956
 21
2.78932
  0
LINE
  8
0
 10
21.3956
 20
2.78932
 11
21.5729
 21
2.85316
  0
LINE
  8
0
 10
21.5729
 20
2.85316
 11
21.7539
 21
2.90575
  0
LINE
  8
0
 10
21.7539
 20
2.90575
 11
21.9379
 21
2.94685
  0
LINE
  8
0
 10
21.9379
 20
2.94685
 11
22.124
 21
2.97633
  0
LINE
  8
0
 10
22.124
 20
2.97633
 11
22.3116
 21
2.99408
  0
LINE
  8
0
 10
22.3116
 20
2.99408
 11
22.5
 21
3
  0
LINE
  8
0
 10
22.5
 20
3
 11
22.6884
 21
2.99408
  0
LINE
  8
0
 10
22.6884
 20
2.99408
 11
22.876
 21
2.97633
  0
LINE
  8
0
 10
22.876
 20
2.97633
 11
23.0621
 21
2.94685
  0
LINE
  8
0
 10
23.0621
 20
2.94685
 11
23.2461
 21
2.90575
  0
LINE
  8
0
 10
23.2461
 20
2.90575
 11
23.427
 21
2.85316
  0
LINE
  8
0
 10
23.427
 20
2.85316
 11
23.6044
 21
2.78932
  0
LINE
  8
0
 10
23.6044
 20
2.78932
 11
23.7773
 21
2.71448
  0
LINE
  8
0
 10
23.7773
 20
2.71448
 11
23.9453
 21
2.62891
  0
LINE
  8
0
 10
23.9453
 20
2.62891
 11
24.1075
 21
2.53297
  0
LINE
  8
0
 10
24.1075
 20
2.53297
 11
24.2634
 21
2.42705
  0
LINE
  8
0
 10
24.2634
 20
2.42705
 11
24.4123
 21
2.31154
  0
LINE
  8
0
 10
24.4123
 20
2.31154
 11
24.5536
 21
2.1869
  0
LINE
  8
0
 10
24.5536
 20
2.1869
 11
24.6869
 21
2.05363
  0
LINE
  8
0
 10
24.6869
 20
2.05363
 11
24.8115
 21
1.91226
  0
LINE
  8
0
 10
24.8115
 20
1.91226
 11
24.927
 21
1.76335
  0
LINE
  8
0
 10
24.927
 20
1.76335
 11
25.033
 21
1.60747
  0
LINE
  8
0
 10
25.033
 20
1.60747
 11
25.1289
 21
1.44525
  0
LINE
  8
0
 10
25.1289
 20
1.44525
 11
25.2145
 21
1.27733
  0
LINE
  8
0
 10
25.2145
 20
1.27733
 11
25.2893
 21
1.10437
  0
LINE
  8
0
 10
25.2893
 20
1.10437
 11
25.3532
 21
0.927048
  0
LINE
  8
0
 10
25.3532
 20
0.927048
 11
25.4057
 21
0.746063
  0
LINE
  8
0
 10
25.4057
 20
0.746063
 11
25.4469
 21
0.562134
  0
LINE
  8
0
 10
25.4469
 20
0.562134
 11
25.4763
 21
0.375992
  0
LINE
  8
0
 10
25.4763
 20
0.375992
 11
25.4941
 21
0.18837
  0
LINE
  8
0
 10
25.4941
 20
0.18837
 11
25.5
 21
0
  0
LINE
  8
0
 10
25.5
 20
0
 11
25.4941
 21
-0.18837
  0
LINE
  8
0
 10
25.4941
 20
-0.18837
 11
25.4763
 21
-0.375992
  0
LINE
  8
0
 10
25.4763
 20
-0.375992
 11
25.4469
 21
-0.562134
  0
LINE
  8
0
 10
25.4469
 20
-0.562134
 11
25.4057
 21
-0.746063
  0
LINE
  8
0
 10
25.4057
 20
-0.746063
 11
25.3532
 21
-0.927048
  0
LINE
  8
0
 10
25.3532
 20
-0.927048
 11
25.2893
 21
-1.10437
  0
LINE
  8
0
 10
25.2893
 20
-1.10437
 11
25.2145
 21
-1.27733
  0
LINE
  8
0
 10
25.2145
 20
-1.27733
 11
25.1289
 21
-1.44525
  0
LINE
  8
0
 10
25.1289
 20
-1.44525
 11
25.033
 21
-1.60747
  0
LINE
  8
0
 10
25.033
 20
-1.60747
 11
24.927
 21
-1.76335
  0
LINE
  8
0
 10
24.927
 20
-1.76335
 11
24.8115
 21
-1.91226
  0
LINE
  8
0
 10
24.8115
 20
-1.91226
 11
24.6869
 21
-2.05363
  0
LINE
  8
0
 10
24.6869
 20
-2.05363
 11
24.5536
 21
-2.1869
  0
LINE
  8
0
 10
24.5536
 20
-2.1869
 11
24.4123
 21
-2.31154
  0
ENDSEC
  0
SECTION
  2
OBJECTS
  0
DICTIONARY
  0
ENDSEC
  0
EOF
