<?xml version="1.0" standalone="no"?>
<!DOCTYPE svg PUBLIC "-//W3C//DTD SVG 1.1//EN" "http://www.w3.org/Graphics/SVG/1.1/DTD/svg11.dtd">
<svg width="117mm" height="42mm" viewBox="9 -51 117 42" xmlns="http://www.w3.org/2000/svg" version="1.1">
<title>OpenSCAD Model</title>
<path d="
M 121,-9.00986 L 121.314,-9.00986 L 121.937,-9.08856 L 122.545,-9.24471 L 123.129,-9.47586 L 123.679,-9.77835
 L 124.187,-10.1474 L 124.645,-10.5773 L 125.045,-11.0611 L 125.382,-11.5912 L 125.649,-12.1594 L 125.843,-12.7565
 L 125.961,-13.3733 L 126,-14 L 126,-46 L 125.961,-46.6267 L 125.843,-47.2434 L 125.649,-47.8406
 L 125.382,-48.4088 L 125.045,-48.9389 L 124.645,-49.4227 L 124.187,-49.8526 L 123.679,-50.2216 L 123.129,-50.5241
 L 122.545,-50.7553 L 121.937,-50.9114 L 121.314,-50.9901 L 121,-50.9901 L 121,-51 L 14,-51
 L 14,-50.9901 L 13.686,-50.9901 L 13.0631,-50.9114 L 12.4549,-50.7553 L 11.8711,-50.5241 L 11.3209,-50.2216
 L 10.8129,-49.8526 L 10.3551,-49.4227 L 9.95491,-48.9389 L 9.61845,-48.4088 L 9.3511,-47.8406 L 9.15707,-47.2434
 L 9.03941,-46.6267 L 9,-46 L 9,-14 L 9.03941,-13.3733 L 9.15707,-12.7565 L 9.3511,-12.1594
 L 9.61845,-11.5912 L 9.95491,-11.0611 L 10.3551,-10.5773 L 10.8129,-10.1474 L 11.3209,-9.77835 L 11.8711,-9.47586
 L 12.4549,-9.24471 L 13.0631,-9.08856 L 13.686,-9.00986 L 14,-9.00986 L 14,-9 L 121,-9
 z
M 14.8116,-42.0059 L 14.4379,-42.0531 L 14.0729,-42.1468 L 13.7227,-42.2855 L 13.3925,-42.467 L 13.0877,-42.6884
 L 12.8131,-42.9464 L 12.5729,-43.2366 L 12.3711,-43.5547 L 12.2107,-43.8956 L 12.0942,-44.2539 L 12.0237,-44.624
 L 12,-45 L 12.0237,-45.376 L 12.0942,-45.7461 L 12.2107,-46.1044 L 12.3711,-46.4453 L 12.5729,-46.7634
 L 12.8131,-47.0536 L 13.0877,-47.3115 L 13.3925,-47.533 L 13.7227,-47.7145 L 14.0729,-47.8532 L 14.4379,-47.9469
 L 14.8116,-47.9941 L 15.1884,-47.9941 L 15.5621,-47.9469 L 15.927,-47.8532 L 16.2773,-47.7145 L 16.6075,-47.533
 L 16.9123,-47.3115 L 17.1869,-47.0536 L 17.427,-46.7634 L 17.6289,-46.4453 L 17.7893,-46.1044 L 17.9057,-45.7461
 L 17.9763,-45.376 L 18,-45 L 17.9763,-44.624 L 17.9057,-44.2539 L 17.7893,-43.8956 L 17.6289,-43.5547
 L 17.427,-43.2366 L 17.1869,-42.9464 L 16.9123,-42.6884 L 16.6075,-42.467 L 16.2773,-42.2855 L 15.927,-42.1468
 L 15.5621,-42.0531 L 15.1884,-42.0059 z
M 29.8116,-42.0059 L 29.4379,-42.0531 L 29.0729,-42.1468 L 28.7227,-42.2855 L 28.3925,-42.467 L 28.0877,-42.6884
 L 27.8131,-42.9464 L 27.5729,-43.2366 L 27.3711,-43.5547 L 27.2107,-43.8956 L 27.0942,-44.2539 L 27.0237,-44.624
 L 27,-45 L 27.0237,-45.376 L 27.0942,-45.7461 L 27.2107,-46.1044 L 27.3711,-46.4453 L 27.5729,-46.7634
 L 27.8131,-47.0536 L 28.0877,-47.3115 L 28.3925,-47.533 L 28.7227,-47.7145 L 29.0729,-47.8532 L 29.4379,-47.9469
 L 29.8116,-47.9941 L 30.1884,-47.9941 L 30.5621,-47.9469 L 30.927,-47.8532 L 31.2773,-47.7145 L 31.6075,-47.533
 L 31.9123,-47.3115 L 32.1869,-47.0536 L 32.427,-46.7634 L 32.6289,-46.4453 L 32.7893,-46.1044 L 32.9057,-45.7461
 L 32.9763,-45.376 L 33,-45 L 32.9763,-44.624 L 32.9057,-44.2539 L 32.7893,-43.8956 L 32.6289,-43.5547
 L 32.427,-43.2366 L 32.1869,-42.9464 L 31.9123,-42.6884 L 31.6075,-42.467 L 31.2773,-42.2855 L 30.927,-42.1468
 L 30.5621,-42.0531 L 30.1884,-42.0059 z
M 119.812,-42.0059 L 119.438,-42.0531 L 119.073,-42.1468 L 118.723,-42.2855 L 118.393,-42.467 L 118.088,-42.6884
 L 117.813,-42.9464 L 117.573,-43.2366 L 117.371,-43.5547 L 117.211,-43.8956 L 117.094,-44.2539 L 117.024,-44.624
 L 117,-45 L 117.024,-45.376 L 117.094,-45.7461 L 117.211,-46.1044 L 117.371,-46.4453 L 117.573,-46.7634
 L 117.813,-47.0536 L 118.088,-47.3115 L 118.393,-47.533 L 118.723,-47.7145 L 119.073,-47.8532 L 119.438,-47.9469
 L 119.812,-47.9941 L 120.188,-47.9941 L 120.562,-47.9469 L 120.927,-47.8532 L 121.277,-47.7145 L 121.607,-47.533
 L 121.912,-47.3115 L 122.187,-47.0536 L 122.427,-46.7634 L 122.629,-46.4453 L 122.789,-46.1044 L 122.906,-45.7461
 L 122.976,-45.376 L 123,-45 L 122.976,-44.624 L 122.906,-44.2539 L 122.789,-43.8956 L 122.629,-43.5547
 L 122.427,-43.2366 L 122.187,-42.9464 L 121.912,-42.6884 L 121.607,-42.467 L 121.277,-42.2855 L 120.927,-42.1468
 L 120.562,-42.0531 L 120.188,-42.0059 z
M 44.8116,-42.0059 L 44.4379,-42.0531 L 44.0729,-42.1468 L 43.7227,-42.2855 L 43.3925,-42.467 L 43.0877,-42.6884
 L 42.8131,-42.9464 L 42.5729,-43.2366 L 42.3711,-43.5547 L 42.2107,-43.8956 L 42.0942,-44.2539 L 42.0237,-44.624
 L 42,-45 L 42.0237,-45.376 L 42.0942,-45.7461 L 42.2107,-46.1044 L 42.3711,-46.4453 L 42.5729,-46.7634
 L 42.8131,-47.0536 L 43.0877,-47.3115 L 43.3925,-47.533 L 43.7227,-47.7145 L 44.0729,-47.8532 L 44.4379,-47.9469
 L 44.8116,-47.9941 L 45.1884,-47.9941 L 45.5621,-47.9469 L 45.927,-47.8532 L 46.2773,-47.7145 L 46.6075,-47.533
 L 46.9123,-47.3115 L 47.1869,-47.0536 L 47.427,-46.7634 L 47.6289,-46.4453 L 47.7893,-46.1044 L 47.9057,-45.7461
 L 47.9763,-45.376 L 48,-45 L 47.9763,-44.624 L 47.9057,-44.2539 L 47.7893,-43.8956 L 47.6289,-43.5547
 L 47.427,-43.2366 L 47.1869,-42.9464 L 46.9123,-42.6884 L 46.6075,-42.467 L 46.2773,-42.2855 L 45.927,-42.1468
 L 45.5621,-42.0531 L 45.1884,-42.0059 z
M 104.812,-42.0059 L 104.438,-42.0531 L 104.073,-42.1468 L 103.723,-42.2855 L 103.393,-42.467 L 103.088,-42.6884
 L 102.813,-42.9464 L 102.573,-43.2366 L 102.371,-43.5547 L 102.211,-43.8956 L 102.094,-44.2539 L 102.024,-44.624
 L 102,-45 L 102.024,-45.376 L 102.094,-45.7461 L 102.211,-46.1044 L 102.371,-46.4453 L 102.573,-46.7634
 L 102.813,-47.0536 L 103.088,-47.3115 L 103.393,-47.533 L 103.723,-47.7145 L 104.073,-47.8532 L 104.438,-47.9469
 L 104.812,-47.9941 L 105.188,-47.9941 L 105.562,-47.9469 L 105.927,-47.8532 L 106.277,-47.7145 L 106.607,-47.533
 L 106.912,-47.3115 L 107.187,-47.0536 L 107.427,-46.7634 L 107.629,-46.4453 L 107.789,-46.1044 L 107.906,-45.7461
 L 107.976,-45.376 L 108,-45 L 107.976,-44.624 L 107.906,-44.2539 L 107.789,-43.8956 L 107.629,-43.5547
 L 107.427,-43.2366 L 107.187,-42.9464 L 106.912,-42.6884 L 106.607,-42.467 L 106.277,-42.2855 L 105.927,-42.1468
 L 105.562,-42.0531 L 105.188,-42.0059 z
M 59.8116,-42.0059 L 59.4379,-42.0531 L 59.0729,-42.1468 L 58.7227,-42.2855 L 58.3925,-42.467 L 58.0877,-42.6884
 L 57.8131,-42.9464 L 57.5729,-43.2366 L 57.3711,-43.5547 L 57.2107,-43.8956 L 57.0942,-44.2539 L 57.0237,-44.624
 L 57,-45 L 57.0237,-45.376 L 57.0942,-45.7461 L 57.2107,-46.1044 L 57.3711,-46.4453 L 57.5729,-46.7634
 L 57.8131,-47.0536 L 58.0877,-47.3115 L 58.3925,-47.533 L 58.7227,-47.7145 L 59.0729,-47.8532 L 59.4379,-47.9469
 L 59.8116,-47.9941 L 60.1884,-47.9941 L 60.5621,-47.9469 L 60.927,-47.8532 L 61.2773,-47.7145 L 61.6075,-47.533
 L 61.9123,-47.3115 L 62.1869,-47.0536 L 62.427,-46.7634 L 62.6289,-46.4453 L 62.7893,-46.1044 L 62.9057,-45.7461
 L 62.9763,-45.376 L 63,-45 L 62.9763,-44.624 L 62.9057,-44.2539 L 62.7893,-43.8956 L 62.6289,-43.5547
 L 62.427,-43.2366 L 62.1869,-42.9464 L 61.9123,-42.6884 L 61.6075,-42.467 L 61.2773,-42.2855 L 60.927,-42.1468
 L 60.5621,-42.0531 L 60.1884,-42.0059 z
M 89.8116,-42.0059 L 89.4379,-42.0531 L 89.0729,-42.1468 L 88.7227,-42.2855 L 88.3925,-42.467 L 88.0877,-42.6884
 L 87.8131,-42.9464 L 87.5729,-43.2366 L 87.3711,-43.5547 L 87.2107,-43.8956 L 87.0942,-44.2539 L 87.0237,-44.624
 L 87,-45 L 87.0237,-45.376 L 87.0942,-45.7461 L 87.2107,-46.1044 L 87.3711,-46.4453 L 87.5729,-46.7634
 L 87.8131,-47.0536 L 88.0877,-47.3115 L 88.3925,-47.533 L 88.7227,-47.7145 L 89.0729,-47.8532 L 89.4379,-47.9469
 L 89.8116,-47.9941 L 90.1884,-47.9941 L 90.5621,-47.9469 L 90.927,-47.8532 L 91.2773,-47.7145 L 91.6075,-47.533
 L 91.9123,-47.3115 L 92.1869,-47.0536 L 92.427,-46.7634 L 92.6289,-46.4453 L 92.7893,-46.1044 L 92.9057,-45.7461
 L 92.9763,-45.376 L 93,-45 L 92.9763,-44.624 L 92.9057,-44.2539 L 92.7893,-43.8956 L 92.6289,-43.5547
 L 92.427,-43.2366 L 92.1869,-42.9464 L 91.9123,-42.6884 L 91.6075,-42.467 L 91.2773,-42.2855 L 90.927,-42.1468
 L 90.5621,-42.0531 L 90.1884,-42.0059 z
M 74.8116,-42.0059 L 74.4379,-42.0531 L 74.0729,-42.1468 L 73.7227,-42.2855 L 73.3925,-42.467 L 73.0877,-42.6884
 L 72.8131,-42.9464 L 72.5729,-43.2366 L 72.3711,-43.5547 L 72.2107,-43.8956 L 72.0942,-44.2539 L 72.0237,-44.624
 L 72,-45 L 72.0237,-45.376 L 72.0942,-45.7461 L 72.2107,-46.1044 L 72.3711,-46.4453 L 72.5729,-46.7634
 L 72.8131,-47.0536 L 73.0877,-47.3115 L 73.3925,-47.533 L 73.7227,-47.7145 L 74.0729,-47.8532 L 74.4379,-47.9469
 L 74.8116,-47.9941 L 75.1884,-47.9941 L 75.5621,-47.9469 L 75.927,-47.8532 L 76.2773,-47.7145 L 76.6075,-47.533
 L 76.9123,-47.3115 L 77.1869,-47.0536 L 77.427,-46.7634 L 77.6289,-46.4453 L 77.7893,-46.1044 L 77.9057,-45.7461
 L 77.9763,-45.376 L 78,-45 L 77.9763,-44.624 L 77.9057,-44.2539 L 77.7893,-43.8956 L 77.6289,-43.5547
 L 77.427,-43.2366 L 77.1869,-42.9464 L 76.9123,-42.6884 L 76.6075,-42.467 L 76.2773,-42.2855 L 75.927,-42.1468
 L 75.5621,-42.0531 L 75.1884,-42.0059 z
M 59.8116,-27.0059 L 59.4379,-27.0531 L 59.0729,-27.1468 L 58.7227,-27.2855 L 58.3925,-27.467 L 58.0877,-27.6884
 L 57.8131,-27.9464 L 57.5729,-28.2366 L 57.3711,-28.5547 L 57.2107,-28.8956 L 57.0942,-29.2539 L 57.0237,-29.624
 L 57,-30 L 57.0237,-30.376 L 57.0942,-30.7461 L 57.2107,-31.1044 L 57.3711,-31.4453 L 57.5729,-31.7634
 L 57.8131,-32.0536 L 58.0877,-32.3115 L 58.3925,-32.533 L 58.7227,-32.7145 L 59.0729,-32.8532 L 59.4379,-32.9469
 L 59.8116,-32.9941 L 60.1884,-32.9941 L 60.5621,-32.9469 L 60.927,-32.8532 L 61.2773,-32.7145 L 61.6075,-32.533
 L 61.9123,-32.3115 L 62.1869,-32.0536 L 62.427,-31.7634 L 62.6289,-31.4453 L 62.7893,-31.1044 L 62.9057,-30.7461
 L 62.9763,-30.376 L 63,-30 L 62.9763,-29.624 L 62.9057,-29.2539 L 62.7893,-28.8956 L 62.6289,-28.5547
 L 62.427,-28.2366 L 62.1869,-27.9464 L 61.9123,-27.6884 L 61.6075,-27.467 L 61.2773,-27.2855 L 60.927,-27.1468
 L 60.5621,-27.0531 L 60.1884,-27.0059 z
M 29.8116,-27.0059 L 29.4379,-27.0531 L 29.0729,-27.1468 L 28.7227,-27.2855 L 28.3925,-27.467 L 28.0877,-27.6884
 L 27.8131,-27.9464 L 27.5729,-28.2366 L 27.3711,-28.5547 L 27.2107,-28.8956 L 27.0942,-29.2539 L 27.0237,-29.624
 L 27,-30 L 27.0237,-30.376 L 27.0942,-30.7461 L 27.2107,-31.1044 L 27.3711,-31.4453 L 27.5729,-31.7634
 L 27.8131,-32.0536 L 28.0877,-32.3115 L 28.3925,-32.533 L 28.7227,-32.7145 L 29.0729,-32.8532 L 29.4379,-32.9469
 L 29.8116,-32.9941 L 30.1884,-32.9941 L 30.5621,-32.9469 L 30.927,-32.8532 L 31.2773,-32.7145 L 31.6075,-32.533
 L 31.9123,-32.3115 L 32.1869,-32.0536 L 32.427,-31.7634 L 32.6289,-31.4453 L 32.7893,-31.1044 L 32.9057,-30.7461
 L 32.9763,-30.376 L 33,-30 L 32.9763,-29.624 L 32.9057,-29.2539 L 32.7893,-28.8956 L 32.6289,-28.5547
 L 32.427,-28.2366 L 32.1869,-27.9464 L 31.9123,-27.6884 L 31.6075,-27.467 L 31.2773,-27.2855 L 30.927,-27.1468
 L 30.5621,-27.0531 L 30.1884,-27.0059 z
M 44.8116,-27.0059 L 44.4379,-27.0531 L 44.0729,-27.1468 L 43.7227,-27.2855 L 43.3925,-27.467 L 43.0877,-27.6884
 L 42.8131,-27.9464 L 42.5729,-28.2366 L 42.3711,-28.5547 L 42.2107,-28.8956 L 42.0942,-29.2539 L 42.0237,-29.624
 L 42,-30 L 42.0237,-30.376 L 42.0942,-30.7461 L 42.2107,-31.1044 L 42.3711,-31.4453 L 42.5729,-31.7634
 L 42.8131,-32.0536 L 43.0877,-32.3115 L 43.3925,-32.533 L 43.7227,-32.7145 L 44.0729,-32.8532 L 44.4379,-32.9469
 L 44.8116,-32.9941 L 45.1884,-32.9941 L 45.5621,-32.9469 L 45.927,-32.8532 L 46.2773,-32.7145 L 46.6075,-32.533
 L 46.9123,-32.3115 L 47.1869,-32.0536 L 47.427,-31.7634 L 47.6289,-31.4453 L 47.7893,-31.1044 L 47.9057,-30.7461
 L 47.9763,-30.376 L 48,-30 L 47.9763,-29.624 L 47.9057,-29.2539 L 47.7893,-28.8956 L 47.6289,-28.5547
 L 47.427,-28.2366 L 47.1869,-27.9464 L 46.9123,-27.6884 L 46.6075,-27.467 L 46.2773,-27.2855 L 45.927,-27.1468
 L 45.5621,-27.0531 L 45.1884,-27.0059 z
M 74.8116,-27.0059 L 74.4379,-27.0531 L 74.0729,-27.1468 L 73.7227,-27.2855 L 73.3925,-27.467 L 73.0877,-27.6884
 L 72.8131,-27.9464 L 72.5729,-28.2366 L 72.3711,-28.5547 L 72.2107,-28.8956 L 72.0942,-29.2539 L 72.0237,-29.624
 L 72,-30 L 72.0237,-30.376 L 72.0942,-30.7461 L 72.2107,-31.1044 L 72.3711,-31.4453 L 72.5729,-31.7634
 L 72.8131,-32.0536 L 73.0877,-32.3115 L 73.3925,-32.533 L 73.7227,-32.7145 L 74.0729,-32.8532 L 74.4379,-32.9469
 L 74.8116,-32.9941 L 75.1884,-32.9941 L 75.5621,-32.9469 L 75.927,-32.8532 L 76.2773,-32.7145 L 76.6075,-32.533
 L 76.9123,-32.3115 L 77.1869,-32.0536 L 77.427,-31.7634 L 77.6289,-31.4453 L 77.7893,-31.1044 L 77.9057,-30.7461
 L 77.9763,-30.376 L 78,-30 L 77.9763,-29.624 L 77.9057,-29.2539 L 77.7893,-28.8956 L 77.6289,-28.5547
 L 77.427,-28.2366 L 77.1869,-27.9464 L 76.9123,-27.6884 L 76.6075,-27.467 L 76.2773,-27.2855 L 75.927,-27.1468
 L 75.5621,-27.0531 L 75.1884,-27.0059 z
M 104.812,-27.0059 L 104.438,-27.0531 L 104.073,-27.1468 L 103.723,-27.2855 L 103.393,-27.467 L 103.088,-27.6884
 L 102.813,-27.9464 L 102.573,-28.2366 L 102.371,-28.5547 L 102.211,-28.8956 L 102.094,-29.2539 L 102.024,-29.624
 L 102,-30 L 102.024,-30.376 L 102.094,-30.7461 L 102.211,-31.1044 L 102.371,-31.4453 L 102.573,-31.7634
 L 102.813,-32.0536 L 103.088,-32.3115 L 103.393,-32.533 L 103.723,-32.7145 L 104.073,-32.8532 L 104.438,-32.9469
 L 104.812,-32.9941 L 105.188,-32.9941 L 105.562,-32.9469 L 105.927,-32.8532 L 106.277,-32.7145 L 106.607,-32.533
 L 106.912,-32.3115 L 107.187,-32.0536 L 107.427,-31.7634 L 107.629,-31.4453 L 107.789,-31.1044 L 107.906,-30.7461
 L 107.976,-30.376 L 108,-30 L 107.976,-29.624 L 107.906,-29.2539 L 107.789,-28.8956 L 107.629,-28.5547
 L 107.427,-28.2366 L 107.187,-27.9464 L 106.912,-27.6884 L 106.607,-27.467 L 106.277,-27.2855 L 105.927,-27.1468
 L 105.562,-27.0531 L 105.188,-27.0059 z
M 119.812,-27.0059 L 119.438,-27.0531 L 119.073,-27.1468 L 118.723,-27.2855 L 118.393,-27.467 L 118.088,-27.6884
 L 117.813,-27.9464 L 117.573,-28.2366 L 117.371,-28.5547 L 117.211,-28.8956 L 117.094,-29.2539 L 117.024,-29.624
 L 117,-30 L 117.024,-30.376 L 117.094,-30.7461 L 117.211,-31.1044 L 117.371,-31.4453 L 117.573,-31.7634
 L 117.813,-32.0536 L 118.088,-32.3115 L 118.393,-32.533 L 118.723,-32.7145 L 119.073,-32.8532 L 119.438,-32.9469
 L 119.812,-32.9941 L 120.188,-32.9941 L 120.562,-32.9469 L 120.927,-32.8532 L 121.277,-32.7145 L 121.607,-32.533
 L 121.912,-32.3115 L 122.187,-32.0536 L 122.427,-31.7634 L 122.629,-31.4453 L 122.789,-31.1044 L 122.906,-30.7461
 L 122.976,-30.376 L 123,-30 L 122.976,-29.624 L 122.906,-29.2539 L 122.789,-28.8956 L 122.629,-28.5547
 L 122.427,-28.2366 L 122.187,-27.9464 L 121.912,-27.6884 L 121.607,-27.467 L 121.277,-27.2855 L 120.927,-27.1468
 L 120.562,-27.0531 L 120.188,-27.0059 z
M 14.8116,-27.0059 L 14.4379,-27.0531 L 14.0729,-27.1468 L 13.7227,-27.2855 L 13.3925,-27.467 L 13.0877,-27.6884
 L 12.8131,-27.9464 L 12.5729,-28.2366 L 12.3711,-28.5547 L 12.2107,-28.8956 L 12.0942,-29.2539 L 12.0237,-29.624
 L 12,-30 L 12.0237,-30.376 L 12.0942,-30.7461 L 12.2107,-31.1044 L 12.3711,-31.4453 L 12.5729,-31.7634
 L 12.8131,-32.0536 L 13.0877,-32.3115 L 13.3925,-32.533 L 13.7227,-32.7145 L 14.0729,-32.8532 L 14.4379,-32.9469
 L 14.8116,-32.9941 L 15.1884,-32.9941 L 15.5621,-32.9469 L 15.927,-32.8532 L 16.2773,-32.7145 L 16.6075,-32.533
 L 16.9123,-32.3115 L 17.1869,-32.0536 L 17.427,-31.7634 L 17.6289,-31.4453 L 17.7893,-31.1044 L 17.9057,-30.7461
 L 17.9763,-30.376 L 18,-30 L 17.9763,-29.624 L 17.9057,-29.2539 L 17.7893,-28.8956 L 17.6289,-28.5547
 L 17.427,-28.2366 L 17.1869,-27.9464 L 16.9123,-27.6884 L 16.6075,-27.467 L 16.2773,-27.2855 L 15.927,-27.1468
 L 15.5621,-27.0531 L 15.1884,-27.0059 z
M 89.8116,-27.0059 L 89.4379,-27.0531 L 89.0729,-27.1468 L 88.7227,-27.2855 L 88.3925,-27.467 L 88.0877,-27.6884
 L 87.8131,-27.9464 L 87.5729,-28.2366 L 87.3711,-28.5547 L 87.2107,-28.8956 L 87.0942,-29.2539 L 87.0237,-29.624
 L 87,-30 L 87.0237,-30.376 L 87.0942,-30.7461 L 87.2107,-31.1044 L 87.3711,-31.4453 L 87.5729,-31.7634
 L 87.8131,-32.0536 L 88.0877,-32.3115 L 88.3925,-32.533 L 88.7227,-32.7145 L 89.0729,-32.8532 L 89.4379,-32.9469
 L 89.8116,-32.9941 L 90.1884,-32.9941 L 90.5621,-32.9469 L 90.927,-32.8532 L 91.2773,-32.7145 L 91.6075,-32.533
 L 91.9123,-32.3115 L 92.1869,-32.0536 L 92.427,-31.7634 L 92.6289,-31.4453 L 92.7893,-31.1044 L 92.9057,-30.7461
 L 92.9763,-30.376 L 93,-30 L 92.9763,-29.624 L 92.9057,-29.2539 L 92.7893,-28.8956 L 92.6289,-28.5547
 L 92.427,-28.2366 L 92.1869,-27.9464 L 91.9123,-27.6884 L 91.6075,-27.467 L 91.2773,-27.2855 L 90.927,-27.1468
 L 90.5621,-27.0531 L 90.1884,-27.0059 z
M 89.8116,-12.0059 L 89.4379,-12.0531 L 89.0729,-12.1468 L 88.7227,-12.2855 L 88.3925,-12.467 L 88.0877,-12.6884
 L 87.8131,-12.9464 L 87.5729,-13.2366 L 87.3711,-13.5547 L 87.2107,-13.8956 L 87.0942,-14.2539 L 87.0237,-14.624
 L 87,-15 L 87.0237,-15.376 L 87.0942,-15.7461 L 87.2107,-16.1044 L 87.3711,-16.4453 L 87.5729,-16.7634
 L 87.8131,-17.0536 L 88.0877,-17.3115 L 88.3925,-17.533 L 88.7227,-17.7145 L 89.0729,-17.8532 L 89.4379,-17.9469
 L 89.8116,-17.9941 L 90.1884,-17.9941 L 90.5621,-17.9469 L 90.927,-17.8532 L 91.2773,-17.7145 L 91.6075,-17.533
 L 91.9123,-17.3115 L 92.1869,-17.0536 L 92.427,-16.7634 L 92.6289,-16.4453 L 92.7893,-16.1044 L 92.9057,-15.7461
 L 92.9763,-15.376 L 93,-15 L 92.9763,-14.624 L 92.9057,-14.2539 L 92.7893,-13.8956 L 92.6289,-13.5547
 L 92.427,-13.2366 L 92.1869,-12.9464 L 91.9123,-12.6884 L 91.6075,-12.467 L 91.2773,-12.2855 L 90.927,-12.1468
 L 90.5621,-12.0531 L 90.1884,-12.0059 z
M 119.812,-12.0059 L 119.438,-12.0531 L 119.073,-12.1468 L 118.723,-12.2855 L 118.393,-12.467 L 118.088,-12.6884
 L 117.813,-12.9464 L 117.573,-13.2366 L 117.371,-13.5547 L 117.211,-13.8956 L 117.094,-14.2539 L 117.024,-14.624
 L 117,-15 L 117.024,-15.376 L 117.094,-15.7461 L 117.211,-16.1044 L 117.371,-16.4453 L 117.573,-16.7634
 L 117.813,-17.0536 L 118.088,-17.3115 L 118.393,-17.533 L 118.723,-17.7145 L 119.073,-17.8532 L 119.438,-17.9469
 L 119.812,-17.9941 L 120.188,-17.9941 L 120.562,-17.9469 L 120.927,-17.8532 L 121.277,-17.7145 L 121.607,-17.533
 L 121.912,-17.3115 L 122.187,-17.0536 L 122.427,-16.7634 L 122.629,-16.4453 L 122.789,-16.1044 L 122.906,-15.7461
 L 122.976,-15.376 L 123,-15 L 122.976,-14.624 L 122.906,-14.2539 L 122.789,-13.8956 L 122.629,-13.5547
 L 122.427,-13.2366 L 122.187,-12.9464 L 121.912,-12.6884 L 121.607,-12.467 L 121.277,-12.2855 L 120.927,-12.1468
 L 120.562,-12.0531 L 120.188,-12.0059 z
M 14.8116,-12.0059 L 14.4379,-12.0531 L 14.0729,-12.1468 L 13.7227,-12.2855 L 13.3925,-12.467 L 13.0877,-12.6884
 L 12.8131,-12.9464 L 12.5729,-13.2366 L 12.3711,-13.5547 L 12.2107,-13.8956 L 12.0942,-14.2539 L 12.0237,-14.624
 L 12,-15 L 12.0237,-15.376 L 12.0942,-15.7461 L 12.2107,-16.1044 L 12.3711,-16.4453 L 12.5729,-16.7634
 L 12.8131,-17.0536 L 13.0877,-17.3115 L 13.3925,-17.533 L 13.7227,-17.7145 L 14.0729,-17.8532 L 14.4379,-17.9469
 L 14.8116,-17.9941 L 15.1884,-17.9941 L 15.5621,-17.9469 L 15.927,-17.8532 L 16.2773,-17.7145 L 16.6075,-17.533
 L 16.9123,-17.3115 L 17.1869,-17.0536 L 17.427,-16.7634 L 17.6289,-16.4453 L 17.7893,-16.1044 L 17.9057,-15.7461
 L 17.9763,-15.376 L 18,-15 L 17.9763,-14.624 L 17.9057,-14.2539 L 17.7893,-13.8956 L 17.6289,-13.5547
 L 17.427,-13.2366 L 17.1869,-12.9464 L 16.9123,-12.6884 L 16.6075,-12.467 L 16.2773,-12.2855 L 15.927,-12.1468
 L 15.5621,-12.0531 L 15.1884,-12.0059 z
M 104.812,-12.0059 L 104.438,-12.0531 L 104.073,-12.1468 L 103.723,-12.2855 L 103.393,-12.467 L 103.088,-12.6884
 L 102.813,-12.9464 L 102.573,-13.2366 L 102.371,-13.5547 L 102.211,-13.8956 L 102.094,-14.2539 L 102.024,-14.624
 L 102,-15 L 102.024,-15.376 L 102.094,-15.7461 L 102.211,-16.1044 L 102.371,-16.4453 L 102.573,-16.7634
 L 102.813,-17.0536 L 103.088,-17.3115 L 103.393,-17.533 L 103.723,-17.7145 L 104.073,-17.8532 L 104.438,-17.9469
 L 104.812,-17.9941 L 105.188,-17.9941 L 105.562,-17.9469 L 105.927,-17.8532 L 106.277,-17.7145 L 106.607,-17.533
 L 106.912,-17.3115 L 107.187,-17.0536 L 107.427,-16.7634 L 107.629,-16.4453 L 107.789,-16.1044 L 107.906,-15.7461
 L 107.976,-15.376 L 108,-15 L 107.976,-14.624 L 107.906,-14.2539 L 107.789,-13.8956 L 107.629,-13.5547
 L 107.427,-13.2366 L 107.187,-12.9464 L 106.912,-12.6884 L 106.607,-12.467 L 106.277,-12.2855 L 105.927,-12.1468
 L 105.562,-12.0531 L 105.188,-12.0059 z
M 29.8116,-12.0059 L 29.4379,-12.0531 L 29.0729,-12.1468 L 28.7227,-12.2855 L 28.3925,-12.467 L 28.0877,-12.6884
 L 27.8131,-12.9464 L 27.5729,-13.2366 L 27.3711,-13.5547 L 27.2107,-13.8956 L 27.0942,-14.2539 L 27.0237,-14.624
 L 27,-15 L 27.0237,-15.376 L 27.0942,-15.7461 L 27.2107,-16.1044 L 27.3711,-16.4453 L 27.5729,-16.7634
 L 27.8131,-17.0536 L 28.0877,-17.3115 L 28.3925,-17.533 L 28.7227,-17.7145 L 29.0729,-17.8532 L 29.4379,-17.9469
 L 29.8116,-17.9941 L 30.1884,-17.9941 L 30.5621,-17.9469 L 30.927,-17.8532 L 31.2773,-17.7145 L 31.6075,-17.533
 L 31.9123,-17.3115 L 32.1869,-17.0536 L 32.427,-16.7634 L 32.6289,-16.4453 L 32.7893,-16.1044 L 32.9057,-15.7461
 L 32.9763,-15.376 L 33,-15 L 32.9763,-14.624 L 32.9057,-14.2539 L 32.7893,-13.8956 L 32.6289,-13.5547
 L 32.427,-13.2366 L 32.1869,-12.9464 L 31.9123,-12.6884 L 31.6075,-12.467 L 31.2773,-12.2855 L 30.927,-12.1468
 L 30.5621,-12.0531 L 30.1884,-12.0059 z
M 59.8116,-12.0059 L 59.4379,-12.0531 L 59.0729,-12.1468 L 58.7227,-12.2855 L 58.3925,-12.467 L 58.0877,-12.6884
 L 57.8131,-12.9464 L 57.5729,-13.2366 L 57.3711,-13.5547 L 57.2107,-13.8956 L 57.0942,-14.2539 L 57.0237,-14.624
 L 57,-15 L 57.0237,-15.376 L 57.0942,-15.7461 L 57.2107,-16.1044 L 57.3711,-16.4453 L 57.5729,-16.7634
 L 57.8131,-17.0536 L 58.0877,-17.3115 L 58.3925,-17.533 L 58.7227,-17.7145 L 59.0729,-17.8532 L 59.4379,-17.9469
 L 59.8116,-17.9941 L 60.1884,-17.9941 L 60.5621,-17.9469 L 60.927,-17.8532 L 61.2773,-17.7145 L 61.6075,-17.533
 L 61.9123,-17.3115 L 62.1869,-17.0536 L 62.427,-16.7634 L 62.6289,-16.4453 L 62.7893,-16.1044 L 62.9057,-15.7461
 L 62.9763,-15.376 L 63,-15 L 62.9763,-14.624 L 62.9057,-14.2539 L 62.7893,-13.8956 L 62.6289,-13.5547
 L 62.427,-13.2366 L 62.1869,-12.9464 L 61.9123,-12.6884 L 61.6075,-12.467 L 61.2773,-12.2855 L 60.927,-12.1468
 L 60.5621,-12.0531 L 60.1884,-12.0059 z
M 74.8116,-12.0059 L 74.4379,-12.0531 L 74.0729,-12.1468 L 73.7227,-12.2855 L 73.3925,-12.467 L 73.0877,-12.6884
 L 72.8131,-12.9464 L 72.5729,-13.2366 L 72.3711,-13.5547 L 72.2107,-13.8956 L 72.0942,-14.2539 L 72.0237,-14.624
 L 72,-15 L 72.0237,-15.376 L 72.0942,-15.7461 L 72.2107,-16.1044 L 72.3711,-16.4453 L 72.5729,-16.7634
 L 72.8131,-17.0536 L 73.0877,-17.3115 L 73.3925,-17.533 L 73.7227,-17.7145 L 74.0729,-17.8532 L 74.4379,-17.9469
 L 74.8116,-17.9941 L 75.1884,-17.9941 L 75.5621,-17.9469 L 75.927,-17.8532 L 76.2773,-17.7145 L 76.6075,-17.533
 L 76.9123,-17.3115 L 77.1869,-17.0536 L 77.427,-16.7634 L 77.6289,-16.4453 L 77.7893,-16.1044 L 77.9057,-15.7461
 L 77.9763,-15.376 L 78,-15 L 77.9763,-14.624 L 77.9057,-14.2539 L 77.7893,-13.8956 L 77.6289,-13.5547
 L 77.427,-13.2366 L 77.1869,-12.9464 L 76.9123,-12.6884 L 76.6075,-12.467 L 76.2773,-12.2855 L 75.927,-12.1468
 L 75.5621,-12.0531 L 75.1884,-12.0059 z
M 44.8116,-12.0059 L 44.4379,-12.0531 L 44.0729,-12.1468 L 43.7227,-12.2855 L 43.3925,-12.467 L 43.0877,-12.6884
 L 42.8131,-12.9464 L 42.5729,-13.2366 L 42.3711,-13.5547 L 42.2107,-13.8956 L 42.0942,-14.2539 L 42.0237,-14.624
 L 42,-15 L 42.0237,-15.376 L 42.0942,-15.7461 L 42.2107,-16.1044 L 42.3711,-16.4453 L 42.5729,-16.7634
 L 42.8131,-17.0536 L 43.0877,-17.3115 L 43.3925,-17.533 L 43.7227,-17.7145 L 44.0729,-17.8532 L 44.4379,-17.9469
 L 44.8116,-17.9941 L 45.1884,-17.9941 L 45.5621,-17.9469 L 45.927,-17.8532 L 46.2773,-17.7145 L 46.6075,-17.533
 L 46.9123,-17.3115 L 47.1869,-17.0536 L 47.427,-16.7634 L 47.6289,-16.4453 L 47.7893,-16.1044 L 47.9057,-15.7461
 L 47.9763,-15.376 L 48,-15 L 47.9763,-14.624 L 47.9057,-14.2539 L 47.7893,-13.8956 L 47.6289,-13.5547
 L 47.427,-13.2366 L 47.1869,-12.9464 L 46.9123,-12.6884 L 46.6075,-12.467 L 46.2773,-12.2855 L 45.927,-12.1468
 L 45.5621,-12.0531 L 45.1884,-12.0059 z
" stroke="black" fill="lightgray" stroke-width="0.5"/>
</svg>
