<?xml version="1.0" standalone="no"?>
<!DOCTYPE svg PUBLIC "-//W3C//DTD SVG 1.1//EN" "http://www.w3.org/Graphics/SVG/1.1/DTD/svg11.dtd">
<svg width="118mm" height="44mm" viewBox="-59 -22 118 44" xmlns="http://www.w3.org/2000/svg" version="1.1">
<title>OpenSCAD Model</title>
<path d="
M 54.1576,20.9622 L 54.7991,20.8346 L 55.4184,20.6244 L 56.005,20.3351 L 56.5488,19.9718 L 57.0405,19.5405
 L 57.4718,19.0488 L 57.8351,18.505 L 58.1244,17.9184 L 58.3346,17.2991 L 58.4622,16.6576 L 58.505,16.005
 L 58.505,-16.005 L 58.4622,-16.6576 L 58.3346,-17.2991 L 58.1244,-17.9184 L 57.8351,-18.505 L 57.4718,-19.0488
 L 57.0405,-19.5405 L 56.5488,-19.9718 L 56.005,-20.3351 L 55.4184,-20.6244 L 54.7991,-20.8346 L 54.1576,-20.9622
 L 53.505,-21.005 L -53.505,-21.005 L -54.1576,-20.9622 L -54.7991,-20.8346 L -55.4184,-20.6244 L -56.005,-20.3351
 L -56.5488,-19.9718 L -57.0405,-19.5405 L -57.4718,-19.0488 L -57.8351,-18.505 L -58.1244,-17.9184 L -58.3346,-17.2991
 L -58.4622,-16.6576 L -58.505,-16.005 L -58.505,16.005 L -58.4622,16.6576 L -58.3346,17.2991 L -58.1244,17.9184
 L -57.8351,18.505 L -57.4718,19.0488 L -57.0405,19.5405 L -56.5488,19.9718 L -56.005,20.3351 L -55.4184,20.6244
 L -54.7991,20.8346 L -54.1576,20.9622 L -53.505,21.005 L 53.505,21.005 z
M -37.9242,-11.7778 L -38.3412,-11.8607 L -38.7437,-11.9974 L -39.125,-12.1854 L -39.4785,-12.4216 L -39.7981,-12.7019
 L -40.0784,-13.0215 L -40.3146,-13.375 L -40.5026,-13.7563 L -40.6393,-14.1588 L -40.7222,-14.5758 L -40.75,-15
 L -40.7222,-15.4242 L -40.6393,-15.8412 L -40.5026,-16.2437 L -40.3146,-16.625 L -40.0784,-16.9785 L -39.7981,-17.2981
 L -39.4785,-17.5784 L -39.125,-17.8146 L -38.7437,-18.0026 L -38.3412,-18.1393 L -37.9242,-18.2222 L -37.5,-18.25
 L -37.0758,-18.2222 L -36.6588,-18.1393 L -36.2563,-18.0026 L -35.875,-17.8146 L -35.5215,-17.5784 L -35.2019,-17.2981
 L -34.9216,-16.9785 L -34.6854,-16.625 L -34.4974,-16.2437 L -34.3607,-15.8412 L -34.2778,-15.4242 L -34.25,-15
 L -34.2778,-14.5758 L -34.3607,-14.1588 L -34.4974,-13.7563 L -34.6854,-13.375 L -34.9216,-13.0215 L -35.2019,-12.7019
 L -35.5215,-12.4216 L -35.875,-12.1854 L -36.2563,-11.9974 L -36.6588,-11.8607 L -37.0758,-11.7778 L -37.5,-11.75
 z
M 37.0758,-11.7778 L 36.6588,-11.8607 L 36.2563,-11.9974 L 35.875,-12.1854 L 35.5215,-12.4216 L 35.2019,-12.7019
 L 34.9216,-13.0215 L 34.6854,-13.375 L 34.4974,-13.7563 L 34.3607,-14.1588 L 34.2778,-14.5758 L 34.25,-15
 L 34.2778,-15.4242 L 34.3607,-15.8412 L 34.4974,-16.2437 L 34.6854,-16.625 L 34.9216,-16.9785 L 35.2019,-17.2981
 L 35.5215,-17.5784 L 35.875,-17.8146 L 36.2563,-18.0026 L 36.6588,-18.1393 L 37.0758,-18.2222 L 37.5,-18.25
 L 37.9242,-18.2222 L 38.3412,-18.1393 L 38.7437,-18.0026 L 39.125,-17.8146 L 39.4785,-17.5784 L 39.7981,-17.2981
 L 40.0784,-16.9785 L 40.3146,-16.625 L 40.5026,-16.2437 L 40.6393,-15.8412 L 40.7222,-15.4242 L 40.75,-15
 L 40.7222,-14.5758 L 40.6393,-14.1588 L 40.5026,-13.7563 L 40.3146,-13.375 L 40.0784,-13.0215 L 39.7981,-12.7019
 L 39.4785,-12.4216 L 39.125,-12.1854 L 38.7437,-11.9974 L 38.3412,-11.8607 L 37.9242,-11.7778 L 37.5,-11.75
 z
M 7.07578,-11.7778 L 6.65883,-11.8607 L 6.25627,-11.9974 L 5.875,-12.1854 L 5.52151,-12.4216 L 5.20189,-12.7019
 L 4.9216,-13.0215 L 4.68541,-13.375 L 4.49739,-13.7563 L 4.36073,-14.1588 L 4.2778,-14.5758 L 4.25,-15
 L 4.2778,-15.4242 L 4.36073,-15.8412 L 4.49739,-16.2437 L 4.68541,-16.625 L 4.9216,-16.9785 L 5.20189,-17.2981
 L 5.52151,-17.5784 L 5.875,-17.8146 L 6.25627,-18.0026 L 6.65883,-18.1393 L 7.07578,-18.2222 L 7.5,-18.25
 L 7.92421,-18.2222 L 8.34116,-18.1393 L 8.74371,-18.0026 L 9.125,-17.8146 L 9.47847,-17.5784 L 9.7981,-17.2981
 L 10.0784,-16.9785 L 10.3146,-16.625 L 10.5026,-16.2437 L 10.6393,-15.8412 L 10.7222,-15.4242 L 10.75,-15
 L 10.7222,-14.5758 L 10.6393,-14.1588 L 10.5026,-13.7563 L 10.3146,-13.375 L 10.0784,-13.0215 L 9.7981,-12.7019
 L 9.47847,-12.4216 L 9.125,-12.1854 L 8.74371,-11.9974 L 8.34116,-11.8607 L 7.92421,-11.7778 L 7.5,-11.75
 z
M -22.9242,-11.7778 L -23.3412,-11.8607 L -23.7437,-11.9974 L -24.125,-12.1854 L -24.4785,-12.4216 L -24.7981,-12.7019
 L -25.0784,-13.0215 L -25.3146,-13.375 L -25.5026,-13.7563 L -25.6393,-14.1588 L -25.7222,-14.5758 L -25.75,-15
 L -25.7222,-15.4242 L -25.6393,-15.8412 L -25.5026,-16.2437 L -25.3146,-16.625 L -25.0784,-16.9785 L -24.7981,-17.2981
 L -24.4785,-17.5784 L -24.125,-17.8146 L -23.7437,-18.0026 L -23.3412,-18.1393 L -22.9242,-18.2222 L -22.5,-18.25
 L -22.0758,-18.2222 L -21.6588,-18.1393 L -21.2563,-18.0026 L -20.875,-17.8146 L -20.5215,-17.5784 L -20.2019,-17.2981
 L -19.9216,-16.9785 L -19.6854,-16.625 L -19.4974,-16.2437 L -19.3607,-15.8412 L -19.2778,-15.4242 L -19.25,-15
 L -19.2778,-14.5758 L -19.3607,-14.1588 L -19.4974,-13.7563 L -19.6854,-13.375 L -19.9216,-13.0215 L -20.2019,-12.7019
 L -20.5215,-12.4216 L -20.875,-12.1854 L -21.2563,-11.9974 L -21.6588,-11.8607 L -22.0758,-11.7778 L -22.5,-11.75
 z
M -7.92421,-11.7778 L -8.34116,-11.8607 L -8.74371,-11.9974 L -9.125,-12.1854 L -9.47847,-12.4216 L -9.7981,-12.7019
 L -10.0784,-13.0215 L -10.3146,-13.375 L -10.5026,-13.7563 L -10.6393,-14.1588 L -10.7222,-14.5758 L -10.75,-15
 L -10.7222,-15.4242 L -10.6393,-15.8412 L -10.5026,-16.2437 L -10.3146,-16.625 L -10.0784,-16.9785 L -9.7981,-17.2981
 L -9.47847,-17.5784 L -9.125,-17.8146 L -8.74371,-18.0026 L -8.34116,-18.1393 L -7.92421,-18.2222 L -7.5,-18.25
 L -7.07578,-18.2222 L -6.65883,-18.1393 L -6.25627,-18.0026 L -5.875,-17.8146 L -5.52151,-17.5784 L -5.20189,-17.2981
 L -4.9216,-16.9785 L -4.68541,-16.625 L -4.49739,-16.2437 L -4.36073,-15.8412 L -4.2778,-15.4242 L -4.25,-15
 L -4.2778,-14.5758 L -4.36073,-14.1588 L -4.49739,-13.7563 L -4.68541,-13.375 L -4.9216,-13.0215 L -5.20189,-12.7019
 L -5.52151,-12.4216 L -5.875,-12.1854 L -6.25627,-11.9974 L -6.65883,-11.8607 L -7.07578,-11.7778 L -7.5,-11.75
 z
M 22.0758,-11.7778 L 21.6588,-11.8607 L 21.2563,-11.9974 L 20.875,-12.1854 L 20.5215,-12.4216 L 20.2019,-12.7019
 L 19.9216,-13.0215 L 19.6854,-13.375 L 19.4974,-13.7563 L 19.3607,-14.1588 L 19.2778,-14.5758 L 19.25,-15
 L 19.2778,-15.4242 L 19.3607,-15.8412 L 19.4974,-16.2437 L 19.6854,-16.625 L 19.9216,-16.9785 L 20.2019,-17.2981
 L 20.5215,-17.5784 L 20.875,-17.8146 L 21.2563,-18.0026 L 21.6588,-18.1393 L 22.0758,-18.2222 L 22.5,-18.25
 L 22.9242,-18.2222 L 23.3412,-18.1393 L 23.7437,-18.0026 L 24.125,-17.8146 L 24.4785,-17.5784 L 24.7981,-17.2981
 L 25.0784,-16.9785 L 25.3146,-16.625 L 25.5026,-16.2437 L 25.6393,-15.8412 L 25.7222,-15.4242 L 25.75,-15
 L 25.7222,-14.5758 L 25.6393,-14.1588 L 25.5026,-13.7563 L 25.3146,-13.375 L 25.0784,-13.0215 L 24.7981,-12.7019
 L 24.4785,-12.4216 L 24.125,-12.1854 L 23.7437,-11.9974 L 23.3412,-11.8607 L 22.9242,-11.7778 L 22.5,-11.75
 z
M 52.0758,-11.7778 L 51.6588,-11.8607 L 51.2563,-11.9974 L 50.875,-12.1854 L 50.5215,-12.4216 L 50.2019,-12.7019
 L 49.9216,-13.0215 L 49.6854,-13.375 L 49.4974,-13.7563 L 49.3607,-14.1588 L 49.2778,-14.5758 L 49.25,-15
 L 49.2778,-15.4242 L 49.3607,-15.8412 L 49.4974,-16.2437 L 49.6854,-16.625 L 49.9216,-16.9785 L 50.2019,-17.2981
 L 50.5215,-17.5784 L 50.875,-17.8146 L 51.2563,-18.0026 L 51.6588,-18.1393 L 52.0758,-18.2222 L 52.5,-18.25
 L 52.9242,-18.2222 L 53.3412,-18.1393 L 53.7437,-18.0026 L 54.125,-17.8146 L 54.4785,-17.5784 L 54.7981,-17.2981
 L 55.0784,-16.9785 L 55.3146,-16.625 L 55.5026,-16.2437 L 55.6393,-15.8412 L 55.7222,-15.4242 L 55.75,-15
 L 55.7222,-14.5758 L 55.6393,-14.1588 L 55.5026,-13.7563 L 55.3146,-13.375 L 55.0784,-13.0215 L 54.7981,-12.7019
 L 54.4785,-12.4216 L 54.125,-12.1854 L 53.7437,-11.9974 L 53.3412,-11.8607 L 52.9242,-11.7778 L 52.5,-11.75
 z
M -52.9242,-11.7778 L -53.3412,-11.8607 L -53.7437,-11.9974 L -54.125,-12.1854 L -54.4785,-12.4216 L -54.7981,-12.7019
 L -55.0784,-13.0215 L -55.3146,-13.375 L -55.5026,-13.7563 L -55.6393,-14.1588 L -55.7222,-14.5758 L -55.75,-15
 L -55.7222,-15.4242 L -55.6393,-15.8412 L -55.5026,-16.2437 L -55.3146,-16.625 L -55.0784,-16.9785 L -54.7981,-17.2981
 L -54.4785,-17.5784 L -54.125,-17.8146 L -53.7437,-18.0026 L -53.3412,-18.1393 L -52.9242,-18.2222 L -52.5,-18.25
 L -52.0758,-18.2222 L -51.6588,-18.1393 L -51.2563,-18.0026 L -50.875,-17.8146 L -50.5215,-17.5784 L -50.2019,-17.2981
 L -49.9216,-16.9785 L -49.6854,-16.625 L -49.4974,-16.2437 L -49.3607,-15.8412 L -49.2778,-15.4242 L -49.25,-15
 L -49.2778,-14.5758 L -49.3607,-14.1588 L -49.4974,-13.7563 L -49.6854,-13.375 L -49.9216,-13.0215 L -50.2019,-12.7019
 L -50.5215,-12.4216 L -50.875,-12.1854 L -51.2563,-11.9974 L -51.6588,-11.8607 L -52.0758,-11.7778 L -52.5,-11.75
 z
M -52.9242,3.22218 L -53.3412,3.13925 L -53.7437,3.00259 L -54.125,2.81458 L -54.4785,2.57838 L -54.7981,2.2981
 L -55.0784,1.97847 L -55.3146,1.625 L -55.5026,1.24371 L -55.6393,0.841156 L -55.7222,0.42421 L -55.75,-0
 L -55.7222,-0.42421 L -55.6393,-0.841156 L -55.5026,-1.24371 L -55.3146,-1.625 L -55.0784,-1.97847 L -54.7981,-2.2981
 L -54.4785,-2.57838 L -54.125,-2.81458 L -53.7437,-3.00259 L -53.3412,-3.13925 L -52.9242,-3.22218 L -52.5,-3.25
 L -52.0758,-3.22218 L -51.6588,-3.13925 L -51.2563,-3.00259 L -50.875,-2.81458 L -50.5215,-2.57838 L -50.2019,-2.2981
 L -49.9216,-1.97847 L -49.6854,-1.625 L -49.4974,-1.24371 L -49.3607,-0.841156 L -49.2778,-0.42421 L -49.25,-0
 L -49.2778,0.42421 L -49.3607,0.841156 L -49.4974,1.24371 L -49.6854,1.625 L -49.9216,1.97847 L -50.2019,2.2981
 L -50.5215,2.57838 L -50.875,2.81458 L -51.2563,3.00259 L -51.6588,3.13925 L -52.0758,3.22218 L -52.5,3.25
 z
M -7.92421,3.22218 L -8.34116,3.13925 L -8.74371,3.00259 L -9.125,2.81458 L -9.47847,2.57838 L -9.7981,2.2981
 L -10.0784,1.97847 L -10.3146,1.625 L -10.5026,1.24371 L -10.6393,0.841156 L -10.7222,0.42421 L -10.75,-0
 L -10.7222,-0.42421 L -10.6393,-0.841156 L -10.5026,-1.24371 L -10.3146,-1.625 L -10.0784,-1.97847 L -9.7981,-2.2981
 L -9.47847,-2.57838 L -9.125,-2.81458 L -8.74371,-3.00259 L -8.34116,-3.13925 L -7.92421,-3.22218 L -7.5,-3.25
 L -7.07578,-3.22218 L -6.65883,-3.13925 L -6.25627,-3.00259 L -5.875,-2.81458 L -5.52151,-2.57838 L -5.20189,-2.2981
 L -4.9216,-1.97847 L -4.68541,-1.625 L -4.49739,-1.24371 L -4.36073,-0.841156 L -4.2778,-0.42421 L -4.25,-0
 L -4.2778,0.42421 L -4.36073,0.841156 L -4.49739,1.24371 L -4.68541,1.625 L -4.9216,1.97847 L -5.20189,2.2981
 L -5.52151,2.57838 L -5.875,2.81458 L -6.25627,3.00259 L -6.65883,3.13925 L -7.07578,3.22218 L -7.5,3.25
 z
M 7.07578,3.22218 L 6.65883,3.13925 L 6.25627,3.00259 L 5.875,2.81458 L 5.52151,2.57838 L 5.20189,2.2981
 L 4.9216,1.97847 L 4.68541,1.625 L 4.49739,1.24371 L 4.36073,0.841156 L 4.2778,0.42421 L 4.25,-0
 L 4.2778,-0.42421 L 4.36073,-0.841156 L 4.49739,-1.24371 L 4.68541,-1.625 L 4.9216,-1.97847 L 5.20189,-2.2981
 L 5.52151,-2.57838 L 5.875,-2.81458 L 6.25627,-3.00259 L 6.65883,-3.13925 L 7.07578,-3.22218 L 7.5,-3.25
 L 7.92421,-3.22218 L 8.34116,-3.13925 L 8.74371,-3.00259 L 9.125,-2.81458 L 9.47847,-2.57838 L 9.7981,-2.2981
 L 10.0784,-1.97847 L 10.3146,-1.625 L 10.5026,-1.24371 L 10.6393,-0.841156 L 10.7222,-0.42421 L 10.75,-0
 L 10.7222,0.42421 L 10.6393,0.841156 L 10.5026,1.24371 L 10.3146,1.625 L 10.0784,1.97847 L 9.7981,2.2981
 L 9.47847,2.57838 L 9.125,2.81458 L 8.74371,3.00259 L 8.34116,3.13925 L 7.92421,3.22218 L 7.5,3.25
 z
M 37.0758,3.22218 L 36.6588,3.13925 L 36.2563,3.00259 L 35.875,2.81458 L 35.5215,2.57838 L 35.2019,2.2981
 L 34.9216,1.97847 L 34.6854,1.625 L 34.4974,1.24371 L 34.3607,0.841156 L 34.2778,0.42421 L 34.25,-0
 L 34.2778,-0.42421 L 34.3607,-0.841156 L 34.4974,-1.24371 L 34.6854,-1.625 L 34.9216,-1.97847 L 35.2019,-2.2981
 L 35.5215,-2.57838 L 35.875,-2.81458 L 36.2563,-3.00259 L 36.6588,-3.13925 L 37.0758,-3.22218 L 37.5,-3.25
 L 37.9242,-3.22218 L 38.3412,-3.13925 L 38.7437,-3.00259 L 39.125,-2.81458 L 39.4785,-2.57838 L 39.7981,-2.2981
 L 40.0784,-1.97847 L 40.3146,-1.625 L 40.5026,-1.24371 L 40.6393,-0.841156 L 40.7222,-0.42421 L 40.75,-0
 L 40.7222,0.42421 L 40.6393,0.841156 L 40.5026,1.24371 L 40.3146,1.625 L 40.0784,1.97847 L 39.7981,2.2981
 L 39.4785,2.57838 L 39.125,2.81458 L 38.7437,3.00259 L 38.3412,3.13925 L 37.9242,3.22218 L 37.5,3.25
 z
M -22.9242,3.22218 L -23.3412,3.13925 L -23.7437,3.00259 L -24.125,2.81458 L -24.4785,2.57838 L -24.7981,2.2981
 L -25.0784,1.97847 L -25.3146,1.625 L -25.5026,1.24371 L -25.6393,0.841156 L -25.7222,0.42421 L -25.75,-0
 L -25.7222,-0.42421 L -25.6393,-0.841156 L -25.5026,-1.24371 L -25.3146,-1.625 L -25.0784,-1.97847 L -24.7981,-2.2981
 L -24.4785,-2.57838 L -24.125,-2.81458 L -23.7437,-3.00259 L -23.3412,-3.13925 L -22.9242,-3.22218 L -22.5,-3.25
 L -22.0758,-3.22218 L -21.6588,-3.13925 L -21.2563,-3.00259 L -20.875,-2.81458 L -20.5215,-2.57838 L -20.2019,-2.2981
 L -19.9216,-1.97847 L -19.6854,-1.625 L -19.4974,-1.24371 L -19.3607,-0.841156 L -19.2778,-0.42421 L -19.25,-0
 L -19.2778,0.42421 L -19.3607,0.841156 L -19.4974,1.24371 L -19.6854,1.625 L -19.9216,1.97847 L -20.2019,2.2981
 L -20.5215,2.57838 L -20.875,2.81458 L -21.2563,3.00259 L -21.6588,3.13925 L -22.0758,3.22218 L -22.5,3.25
 z
M -37.9242,3.22218 L -38.3412,3.13925 L -38.7437,3.00259 L -39.125,2.81458 L -39.4785,2.57838 L -39.7981,2.2981
 L -40.0784,1.97847 L -40.3146,1.625 L -40.5026,1.24371 L -40.6393,0.841156 L -40.7222,0.42421 L -40.75,-0
 L -40.7222,-0.42421 L -40.6393,-0.841156 L -40.5026,-1.24371 L -40.3146,-1.625 L -40.0784,-1.97847 L -39.7981,-2.2981
 L -39.4785,-2.57838 L -39.125,-2.81458 L -38.7437,-3.00259 L -38.3412,-3.13925 L -37.9242,-3.22218 L -37.5,-3.25
 L -37.0758,-3.22218 L -36.6588,-3.13925 L -36.2563,-3.00259 L -35.875,-2.81458 L -35.5215,-2.57838 L -35.2019,-2.2981
 L -34.9216,-1.97847 L -34.6854,-1.625 L -34.4974,-1.24371 L -34.3607,-0.841156 L -34.2778,-0.42421 L -34.25,-0
 L -34.2778,0.42421 L -34.3607,0.841156 L -34.4974,1.24371 L -34.6854,1.625 L -34.9216,1.97847 L -35.2019,2.2981
 L -35.5215,2.57838 L -35.875,2.81458 L -36.2563,3.00259 L -36.6588,3.13925 L -37.0758,3.22218 L -37.5,3.25
 z
M 52.0758,3.22218 L 51.6588,3.13925 L 51.2563,3.00259 L 50.875,2.81458 L 50.5215,2.57838 L 50.2019,2.2981
 L 49.9216,1.97847 L 49.6854,1.625 L 49.4974,1.24371 L 49.3607,0.841156 L 49.2778,0.42421 L 49.25,-0
 L 49.2778,-0.42421 L 49.3607,-0.841156 L 49.4974,-1.24371 L 49.6854,-1.625 L 49.9216,-1.97847 L 50.2019,-2.2981
 L 50.5215,-2.57838 L 50.875,-2.81458 L 51.2563,-3.00259 L 51.6588,-3.13925 L 52.0758,-3.22218 L 52.5,-3.25
 L 52.9242,-3.22218 L 53.3412,-3.13925 L 53.7437,-3.00259 L 54.125,-2.81458 L 54.4785,-2.57838 L 54.7981,-2.2981
 L 55.0784,-1.97847 L 55.3146,-1.625 L 55.5026,-1.24371 L 55.6393,-0.841156 L 55.7222,-0.42421 L 55.75,-0
 L 55.7222,0.42421 L 55.6393,0.841156 L 55.5026,1.24371 L 55.3146,1.625 L 55.0784,1.97847 L 54.7981,2.2981
 L 54.4785,2.57838 L 54.125,2.81458 L 53.7437,3.00259 L 53.3412,3.13925 L 52.9242,3.22218 L 52.5,3.25
 z
M 22.0758,3.22218 L 21.6588,3.13925 L 21.2563,3.00259 L 20.875,2.81458 L 20.5215,2.57838 L 20.2019,2.2981
 L 19.9216,1.97847 L 19.6854,1.625 L 19.4974,1.24371 L 19.3607,0.841156 L 19.2778,0.42421 L 19.25,-0
 L 19.2778,-0.42421 L 19.3607,-0.841156 L 19.4974,-1.24371 L 19.6854,-1.625 L 19.9216,-1.97847 L 20.2019,-2.2981
 L 20.5215,-2.57838 L 20.875,-2.81458 L 21.2563,-3.00259 L 21.6588,-3.13925 L 22.0758,-3.22218 L 22.5,-3.25
 L 22.9242,-3.22218 L 23.3412,-3.13925 L 23.7437,-3.00259 L 24.125,-2.81458 L 24.4785,-2.57838 L 24.7981,-2.2981
 L 25.0784,-1.97847 L 25.3146,-1.625 L 25.5026,-1.24371 L 25.6393,-0.841156 L 25.7222,-0.42421 L 25.75,-0
 L 25.7222,0.42421 L 25.6393,0.841156 L 25.5026,1.24371 L 25.3146,1.625 L 25.0784,1.97847 L 24.7981,2.2981
 L 24.4785,2.57838 L 24.125,2.81458 L 23.7437,3.00259 L 23.3412,3.13925 L 22.9242,3.22218 L 22.5,3.25
 z
M -52.9242,18.2222 L -53.3412,18.1393 L -53.7437,18.0026 L -54.125,17.8146 L -54.4785,17.5784 L -54.7981,17.2981
 L -55.0784,16.9785 L -55.3146,16.625 L -55.5026,16.2437 L -55.6393,15.8412 L -55.7222,15.4242 L -55.75,15
 L -55.7222,14.5758 L -55.6393,14.1588 L -55.5026,13.7563 L -55.3146,13.375 L -55.0784,13.0215 L -54.7981,12.7019
 L -54.4785,12.4216 L -54.125,12.1854 L -53.7437,11.9974 L -53.3412,11.8607 L -52.9242,11.7778 L -52.5,11.75
 L -52.0758,11.7778 L -51.6588,11.8607 L -51.2563,11.9974 L -50.875,12.1854 L -50.5215,12.4216 L -50.2019,12.7019
 L -49.9216,13.0215 L -49.6854,13.375 L -49.4974,13.7563 L -49.3607,14.1588 L -49.2778,14.5758 L -49.25,15
 L -49.2778,15.4242 L -49.3607,15.8412 L -49.4974,16.2437 L -49.6854,16.625 L -49.9216,16.9785 L -50.2019,17.2981
 L -50.5215,17.5784 L -50.875,17.8146 L -51.2563,18.0026 L -51.6588,18.1393 L -52.0758,18.2222 L -52.5,18.25
 z
M -37.9242,18.2222 L -38.3412,18.1393 L -38.7437,18.0026 L -39.125,17.8146 L -39.4785,17.5784 L -39.7981,17.2981
 L -40.0784,16.9785 L -40.3146,16.625 L -40.5026,16.2437 L -40.6393,15.8412 L -40.7222,15.4242 L -40.75,15
 L -40.7222,14.5758 L -40.6393,14.1588 L -40.5026,13.7563 L -40.3146,13.375 L -40.0784,13.0215 L -39.7981,12.7019
 L -39.4785,12.4216 L -39.125,12.1854 L -38.7437,11.9974 L -38.3412,11.8607 L -37.9242,11.7778 L -37.5,11.75
 L -37.0758,11.7778 L -36.6588,11.8607 L -36.2563,11.9974 L -35.875,12.1854 L -35.5215,12.4216 L -35.2019,12.7019
 L -34.9216,13.0215 L -34.6854,13.375 L -34.4974,13.7563 L -34.3607,14.1588 L -34.2778,14.5758 L -34.25,15
 L -34.2778,15.4242 L -34.3607,15.8412 L -34.4974,16.2437 L -34.6854,16.625 L -34.9216,16.9785 L -35.2019,17.2981
 L -35.5215,17.5784 L -35.875,17.8146 L -36.2563,18.0026 L -36.6588,18.1393 L -37.0758,18.2222 L -37.5,18.25
 z
M 37.0758,18.2222 L 36.6588,18.1393 L 36.2563,18.0026 L 35.875,17.8146 L 35.5215,17.5784 L 35.2019,17.2981
 L 34.9216,16.9785 L 34.6854,16.625 L 34.4974,16.2437 L 34.3607,15.8412 L 34.2778,15.4242 L 34.25,15
 L 34.2778,14.5758 L 34.3607,14.1588 L 34.4974,13.7563 L 34.6854,13.375 L 34.9216,13.0215 L 35.2019,12.7019
 L 35.5215,12.4216 L 35.875,12.1854 L 36.2563,11.9974 L 36.6588,11.8607 L 37.0758,11.7778 L 37.5,11.75
 L 37.9242,11.7778 L 38.3412,11.8607 L 38.7437,11.9974 L 39.125,12.1854 L 39.4785,12.4216 L 39.7981,12.7019
 L 40.0784,13.0215 L 40.3146,13.375 L 40.5026,13.7563 L 40.6393,14.1588 L 40.7222,14.5758 L 40.75,15
 L 40.7222,15.4242 L 40.6393,15.8412 L 40.5026,16.2437 L 40.3146,16.625 L 40.0784,16.9785 L 39.7981,17.2981
 L 39.4785,17.5784 L 39.125,17.8146 L 38.7437,18.0026 L 38.3412,18.1393 L 37.9242,18.2222 L 37.5,18.25
 z
M 52.0758,18.2222 L 51.6588,18.1393 L 51.2563,18.0026 L 50.875,17.8146 L 50.5215,17.5784 L 50.2019,17.2981
 L 49.9216,16.9785 L 49.6854,16.625 L 49.4974,16.2437 L 49.3607,15.8412 L 49.2778,15.4242 L 49.25,15
 L 49.2778,14.5758 L 49.3607,14.1588 L 49.4974,13.7563 L 49.6854,13.375 L 49.9216,13.0215 L 50.2019,12.7019
 L 50.5215,12.4216 L 50.875,12.1854 L 51.2563,11.9974 L 51.6588,11.8607 L 52.0758,11.7778 L 52.5,11.75
 L 52.9242,11.7778 L 53.3412,11.8607 L 53.7437,11.9974 L 54.125,12.1854 L 54.4785,12.4216 L 54.7981,12.7019
 L 55.0784,13.0215 L 55.3146,13.375 L 55.5026,13.7563 L 55.6393,14.1588 L 55.7222,14.5758 L 55.75,15
 L 55.7222,15.4242 L 55.6393,15.8412 L 55.5026,16.2437 L 55.3146,16.625 L 55.0784,16.9785 L 54.7981,17.2981
 L 54.4785,17.5784 L 54.125,17.8146 L 53.7437,18.0026 L 53.3412,18.1393 L 52.9242,18.2222 L 52.5,18.25
 z
M 22.0758,18.2222 L 21.6588,18.1393 L 21.2563,18.0026 L 20.875,17.8146 L 20.5215,17.5784 L 20.2019,17.2981
 L 19.9216,16.9785 L 19.6854,16.625 L 19.4974,16.2437 L 19.3607,15.8412 L 19.2778,15.4242 L 19.25,15
 L 19.2778,14.5758 L 19.3607,14.1588 L 19.4974,13.7563 L 19.6854,13.375 L 19.9216,13.0215 L 20.2019,12.7019
 L 20.5215,12.4216 L 20.875,12.1854 L 21.2563,11.9974 L 21.6588,11.8607 L 22.0758,11.7778 L 22.5,11.75
 L 22.9242,11.7778 L 23.3412,11.8607 L 23.7437,11.9974 L 24.125,12.1854 L 24.4785,12.4216 L 24.7981,12.7019
 L 25.0784,13.0215 L 25.3146,13.375 L 25.5026,13.7563 L 25.6393,14.1588 L 25.7222,14.5758 L 25.75,15
 L 25.7222,15.4242 L 25.6393,15.8412 L 25.5026,16.2437 L 25.3146,16.625 L 25.0784,16.9785 L 24.7981,17.2981
 L 24.4785,17.5784 L 24.125,17.8146 L 23.7437,18.0026 L 23.3412,18.1393 L 22.9242,18.2222 L 22.5,18.25
 z
M -7.92421,18.2222 L -8.34116,18.1393 L -8.74371,18.0026 L -9.125,17.8146 L -9.47847,17.5784 L -9.7981,17.2981
 L -10.0784,16.9785 L -10.3146,16.625 L -10.5026,16.2437 L -10.6393,15.8412 L -10.7222,15.4242 L -10.75,15
 L -10.7222,14.5758 L -10.6393,14.1588 L -10.5026,13.7563 L -10.3146,13.375 L -10.0784,13.0215 L -9.7981,12.7019
 L -9.47847,12.4216 L -9.125,12.1854 L -8.74371,11.9974 L -8.34116,11.8607 L -7.92421,11.7778 L -7.5,11.75
 L -7.07578,11.7778 L -6.65883,11.8607 L -6.25627,11.9974 L -5.875,12.1854 L -5.52151,12.4216 L -5.20189,12.7019
 L -4.9216,13.0215 L -4.68541,13.375 L -4.49739,13.7563 L -4.36073,14.1588 L -4.2778,14.5758 L -4.25,15
 L -4.2778,15.4242 L -4.36073,15.8412 L -4.49739,16.2437 L -4.68541,16.625 L -4.9216,16.9785 L -5.20189,17.2981
 L -5.52151,17.5784 L -5.875,17.8146 L -6.25627,18.0026 L -6.65883,18.1393 L -7.07578,18.2222 L -7.5,18.25
 z
M 7.07578,18.2222 L 6.65883,18.1393 L 6.25627,18.0026 L 5.875,17.8146 L 5.52151,17.5784 L 5.20189,17.2981
 L 4.9216,16.9785 L 4.68541,16.625 L 4.49739,16.2437 L 4.36073,15.8412 L 4.2778,15.4242 L 4.25,15
 L 4.2778,14.5758 L 4.36073,14.1588 L 4.49739,13.7563 L 4.68541,13.375 L 4.9216,13.0215 L 5.20189,12.7019
 L 5.52151,12.4216 L 5.875,12.1854 L 6.25627,11.9974 L 6.65883,11.8607 L 7.07578,11.7778 L 7.5,11.75
 L 7.92421,11.7778 L 8.34116,11.8607 L 8.74371,11.9974 L 9.125,12.1854 L 9.47847,12.4216 L 9.7981,12.7019
 L 10.0784,13.0215 L 10.3146,13.375 L 10.5026,13.7563 L 10.6393,14.1588 L 10.7222,14.5758 L 10.75,15
 L 10.7222,15.4242 L 10.6393,15.8412 L 10.5026,16.2437 L 10.3146,16.625 L 10.0784,16.9785 L 9.7981,17.2981
 L 9.47847,17.5784 L 9.125,17.8146 L 8.74371,18.0026 L 8.34116,18.1393 L 7.92421,18.2222 L 7.5,18.25
 z
M -22.9242,18.2222 L -23.3412,18.1393 L -23.7437,18.0026 L -24.125,17.8146 L -24.4785,17.5784 L -24.7981,17.2981
 L -25.0784,16.9785 L -25.3146,16.625 L -25.5026,16.2437 L -25.6393,15.8412 L -25.7222,15.4242 L -25.75,15
 L -25.7222,14.5758 L -25.6393,14.1588 L -25.5026,13.7563 L -25.3146,13.375 L -25.0784,13.0215 L -24.7981,12.7019
 L -24.4785,12.4216 L -24.125,12.1854 L -23.7437,11.9974 L -23.3412,11.8607 L -22.9242,11.7778 L -22.5,11.75
 L -22.0758,11.7778 L -21.6588,11.8607 L -21.2563,11.9974 L -20.875,12.1854 L -20.5215,12.4216 L -20.2019,12.7019
 L -19.9216,13.0215 L -19.6854,13.375 L -19.4974,13.7563 L -19.3607,14.1588 L -19.2778,14.5758 L -19.25,15
 L -19.2778,15.4242 L -19.3607,15.8412 L -19.4974,16.2437 L -19.6854,16.625 L -19.9216,16.9785 L -20.2019,17.2981
 L -20.5215,17.5784 L -20.875,17.8146 L -21.2563,18.0026 L -21.6588,18.1393 L -22.0758,18.2222 L -22.5,18.25
 z
" stroke="black" fill="lightgray" stroke-width="0.5"/>
</svg>
