  0
SECTION
  2
BLOCKS
  0
ENDSEC
  0
SECTION
  2
ENTITIES
  0
LINE
  8
0
 10
54.1576
 20
-20.9622
 11
54.7991
 21
-20.8346
  0
LINE
  8
0
 10
54.7991
 20
-20.8346
 11
55.4184
 21
-20.6244
  0
LINE
  8
0
 10
55.4184
 20
-20.6244
 11
56.005
 21
-20.3351
  0
LINE
  8
0
 10
56.005
 20
-20.3351
 11
56.5488
 21
-19.9718
  0
LINE
  8
0
 10
56.5488
 20
-19.9718
 11
57.0405
 21
-19.5405
  0
LINE
  8
0
 10
57.0405
 20
-19.5405
 11
57.4718
 21
-19.0488
  0
LINE
  8
0
 10
57.4718
 20
-19.0488
 11
57.8351
 21
-18.505
  0
LINE
  8
0
 10
57.8351
 20
-18.505
 11
58.1244
 21
-17.9184
  0
LINE
  8
0
 10
58.1244
 20
-17.9184
 11
58.3346
 21
-17.2991
  0
LINE
  8
0
 10
58.3346
 20
-17.2991
 11
58.4622
 21
-16.6576
  0
LINE
  8
0
 10
58.4622
 20
-16.6576
 11
58.505
 21
-16.005
  0
LINE
  8
0
 10
58.505
 20
-16.005
 11
58.505
 21
16.005
  0
LINE
  8
0
 10
58.505
 20
16.005
 11
58.4622
 21
16.6576
  0
LINE
  8
0
 10
58.4622
 20
16.6576
 11
58.3346
 21
17.2991
  0
LINE
  8
0
 10
58.3346
 20
17.2991
 11
58.1244
 21
17.9184
  0
LINE
  8
0
 10
58.1244
 20
17.9184
 11
57.8351
 21
18.505
  0
LINE
  8
0
 10
57.8351
 20
18.505
 11
57.4718
 21
19.0488
  0
LINE
  8
0
 10
57.4718
 20
19.0488
 11
57.0405
 21
19.5405
  0
LINE
  8
0
 10
57.0405
 20
19.5405
 11
56.5488
 21
19.9718
  0
LINE
  8
0
 10
56.5488
 20
19.9718
 11
56.005
 21
20.3351
  0
LINE
  8
0
 10
56.005
 20
20.3351
 11
55.4184
 21
20.6244
  0
LINE
  8
0
 10
55.4184
 20
20.6244
 11
54.7991
 21
20.8346
  0
LINE
  8
0
 10
54.7991
 20
20.8346
 11
54.1576
 21
20.9622
  0
LINE
  8
0
 10
54.1576
 20
20.9622
 11
53.505
 21
21.005
  0
LINE
  8
0
 10
53.505
 20
21.005
 11
-53.505
 21
21.005
  0
LINE
  8
0
 10
-53.505
 20
21.005
 11
-54.1576
 21
20.9622
  0
LINE
  8
0
 10
-54.1576
 20
20.9622
 11
-54.7991
 21
20.8346
  0
LINE
  8
0
 10
-54.7991
 20
20.8346
 11
-55.4184
 21
20.6244
  0
LINE
  8
0
 10
-55.4184
 20
20.6244
 11
-56.005
 21
20.3351
  0
LINE
  8
0
 10
-56.005
 20
20.3351
 11
-56.5488
 21
19.9718
  0
LINE
  8
0
 10
-56.5488
 20
19.9718
 11
-57.0405
 21
19.5405
  0
LINE
  8
0
 10
-57.0405
 20
19.5405
 11
-57.4718
 21
19.0488
  0
LINE
  8
0
 10
-57.4718
 20
19.0488
 11
-57.8351
 21
18.505
  0
LINE
  8
0
 10
-57.8351
 20
18.505
 11
-58.1244
 21
17.9184
  0
LINE
  8
0
 10
-58.1244
 20
17.9184
 11
-58.3346
 21
17.2991
  0
LINE
  8
0
 10
-58.3346
 20
17.2991
 11
-58.4622
 21
16.6576
  0
LINE
  8
0
 10
-58.4622
 20
16.6576
 11
-58.505
 21
16.005
  0
LINE
  8
0
 10
-58.505
 20
16.005
 11
-58.505
 21
-16.005
  0
LINE
  8
0
 10
-58.505
 20
-16.005
 11
-58.4622
 21
-16.6576
  0
LINE
  8
0
 10
-58.4622
 20
-16.6576
 11
-58.3346
 21
-17.2991
  0
LINE
  8
0
 10
-58.3346
 20
-17.2991
 11
-58.1244
 21
-17.9184
  0
LINE
  8
0
 10
-58.1244
 20
-17.9184
 11
-57.8351
 21
-18.505
  0
LINE
  8
0
 10
-57.8351
 20
-18.505
 11
-57.4718
 21
-19.0488
  0
LINE
  8
0
 10
-57.4718
 20
-19.0488
 11
-57.0405
 21
-19.5405
  0
LINE
  8
0
 10
-57.0405
 20
-19.5405
 11
-56.5488
 21
-19.9718
  0
LINE
  8
0
 10
-56.5488
 20
-19.9718
 11
-56.005
 21
-20.3351
  0
LINE
  8
0
 10
-56.005
 20
-20.3351
 11
-55.4184
 21
-20.6244
  0
LINE
  8
0
 10
-55.4184
 20
-20.6244
 11
-54.7991
 21
-20.8346
  0
LINE
  8
0
 10
-54.7991
 20
-20.8346
 11
-54.1576
 21
-20.9622
  0
LINE
  8
0
 10
-54.1576
 20
-20.9622
 11
-53.505
 21
-21.005
  0
LINE
  8
0
 10
-53.505
 20
-21.005
 11
53.505
 21
-21.005
  0
LINE
  8
0
 10
53.505
 20
-21.005
 11
54.1576
 21
-20.9622
  0
LINE
  8
0
 10
-37.9242
 20
11.7778
 11
-38.3412
 21
11.8607
  0
LINE
  8
0
 10
-38.3412
 20
11.8607
 11
-38.7437
 21
11.9974
  0
LINE
  8
0
 10
-38.7437
 20
11.9974
 11
-39.125
 21
12.1854
  0
LINE
  8
0
 10
-39.125
 20
12.1854
 11
-39.4785
 21
12.4216
  0
LINE
  8
0
 10
-39.4785
 20
12.4216
 11
-39.7981
 21
12.7019
  0
LINE
  8
0
 10
-39.7981
 20
12.7019
 11
-40.0784
 21
13.0215
  0
LINE
  8
0
 10
-40.0784
 20
13.0215
 11
-40.3146
 21
13.375
  0
LINE
  8
0
 10
-40.3146
 20
13.375
 11
-40.5026
 21
13.7563
  0
LINE
  8
0
 10
-40.5026
 20
13.7563
 11
-40.6393
 21
14.1588
  0
LINE
  8
0
 10
-40.6393
 20
14.1588
 11
-40.7222
 21
14.5758
  0
LINE
  8
0
 10
-40.7222
 20
14.5758
 11
-40.75
 21
15
  0
LINE
  8
0
 10
-40.75
 20
15
 11
-40.7222
 21
15.4242
  0
LINE
  8
0
 10
-40.7222
 20
15.4242
 11
-40.6393
 21
15.8412
  0
LINE
  8
0
 10
-40.6393
 20
15.8412
 11
-40.5026
 21
16.2437
  0
LINE
  8
0
 10
-40.5026
 20
16.2437
 11
-40.3146
 21
16.625
  0
LINE
  8
0
 10
-40.3146
 20
16.625
 11
-40.0784
 21
16.9785
  0
LINE
  8
0
 10
-40.0784
 20
16.9785
 11
-39.7981
 21
17.2981
  0
LINE
  8
0
 10
-39.7981
 20
17.2981
 11
-39.4785
 21
17.5784
  0
LINE
  8
0
 10
-39.4785
 20
17.5784
 11
-39.125
 21
17.8146
  0
LINE
  8
0
 10
-39.125
 20
17.8146
 11
-38.7437
 21
18.0026
  0
LINE
  8
0
 10
-38.7437
 20
18.0026
 11
-38.3412
 21
18.1393
  0
LINE
  8
0
 10
-38.3412
 20
18.1393
 11
-37.9242
 21
18.2222
  0
LINE
  8
0
 10
-37.9242
 20
18.2222
 11
-37.5
 21
18.25
  0
LINE
  8
0
 10
-37.5
 20
18.25
 11
-37.0758
 21
18.2222
  0
LINE
  8
0
 10
-37.0758
 20
18.2222
 11
-36.6588
 21
18.1393
  0
LINE
  8
0
 10
-36.6588
 20
18.1393
 11
-36.2563
 21
18.0026
  0
LINE
  8
0
 10
-36.2563
 20
18.0026
 11
-35.875
 21
17.8146
  0
LINE
  8
0
 10
-35.875
 20
17.8146
 11
-35.5215
 21
17.5784
  0
LINE
  8
0
 10
-35.5215
 20
17.5784
 11
-35.2019
 21
17.2981
  0
LINE
  8
0
 10
-35.2019
 20
17.2981
 11
-34.9216
 21
16.9785
  0
LINE
  8
0
 10
-34.9216
 20
16.9785
 11
-34.6854
 21
16.625
  0
LINE
  8
0
 10
-34.6854
 20
16.625
 11
-34.4974
 21
16.2437
  0
LINE
  8
0
 10
-34.4974
 20
16.2437
 11
-34.3607
 21
15.8412
  0
LINE
  8
0
 10
-34.3607
 20
15.8412
 11
-34.2778
 21
15.4242
  0
LINE
  8
0
 10
-34.2778
 20
15.4242
 11
-34.25
 21
15
  0
LINE
  8
0
 10
-34.25
 20
15
 11
-34.2778
 21
14.5758
  0
LINE
  8
0
 10
-34.2778
 20
14.5758
 11
-34.3607
 21
14.1588
  0
LINE
  8
0
 10
-34.3607
 20
14.1588
 11
-34.4974
 21
13.7563
  0
LINE
  8
0
 10
-34.4974
 20
13.7563
 11
-34.6854
 21
13.375
  0
LINE
  8
0
 10
-34.6854
 20
13.375
 11
-34.9216
 21
13.0215
  0
LINE
  8
0
 10
-34.9216
 20
13.0215
 11
-35.2019
 21
12.7019
  0
LINE
  8
0
 10
-35.2019
 20
12.7019
 11
-35.5215
 21
12.4216
  0
LINE
  8
0
 10
-35.5215
 20
12.4216
 11
-35.875
 21
12.1854
  0
LINE
  8
0
 10
-35.875
 20
12.1854
 11
-36.2563
 21
11.9974
  0
LINE
  8
0
 10
-36.2563
 20
11.9974
 11
-36.6588
 21
11.8607
  0
LINE
  8
0
 10
-36.6588
 20
11.8607
 11
-37.0758
 21
11.7778
  0
LINE
  8
0
 10
-37.0758
 20
11.7778
 11
-37.5
 21
11.75
  0
LINE
  8
0
 10
-37.5
 20
11.75
 11
-37.9242
 21
11.7778
  0
LINE
  8
0
 10
37.0758
 20
11.7778
 11
36.6588
 21
11.8607
  0
LINE
  8
0
 10
36.6588
 20
11.8607
 11
36.2563
 21
11.9974
  0
LINE
  8
0
 10
36.2563
 20
11.9974
 11
35.875
 21
12.1854
  0
LINE
  8
0
 10
35.875
 20
12.1854
 11
35.5215
 21
12.4216
  0
LINE
  8
0
 10
35.5215
 20
12.4216
 11
35.2019
 21
12.7019
  0
LINE
  8
0
 10
35.2019
 20
12.7019
 11
34.9216
 21
13.0215
  0
LINE
  8
0
 10
34.9216
 20
13.0215
 11
34.6854
 21
13.375
  0
LINE
  8
0
 10
34.6854
 20
13.375
 11
34.4974
 21
13.7563
  0
LINE
  8
0
 10
34.4974
 20
13.7563
 11
34.3607
 21
14.1588
  0
LINE
  8
0
 10
34.3607
 20
14.1588
 11
34.2778
 21
14.5758
  0
LINE
  8
0
 10
34.2778
 20
14.5758
 11
34.25
 21
15
  0
LINE
  8
0
 10
34.25
 20
15
 11
34.2778
 21
15.4242
  0
LINE
  8
0
 10
34.2778
 20
15.4242
 11
34.3607
 21
15.8412
  0
LINE
  8
0
 10
34.3607
 20
15.8412
 11
34.4974
 21
16.2437
  0
LINE
  8
0
 10
34.4974
 20
16.2437
 11
34.6854
 21
16.625
  0
LINE
  8
0
 10
34.6854
 20
16.625
 11
34.9216
 21
16.9785
  0
LINE
  8
0
 10
34.9216
 20
16.9785
 11
35.2019
 21
17.2981
  0
LINE
  8
0
 10
35.2019
 20
17.2981
 11
35.5215
 21
17.5784
  0
LINE
  8
0
 10
35.5215
 20
17.5784
 11
35.875
 21
17.8146
  0
LINE
  8
0
 10
35.875
 20
17.8146
 11
36.2563
 21
18.0026
  0
LINE
  8
0
 10
36.2563
 20
18.0026
 11
36.6588
 21
18.1393
  0
LINE
  8
0
 10
36.6588
 20
18.1393
 11
37.0758
 21
18.2222
  0
LINE
  8
0
 10
37.0758
 20
18.2222
 11
37.5
 21
18.25
  0
LINE
  8
0
 10
37.5
 20
18.25
 11
37.9242
 21
18.2222
  0
LINE
  8
0
 10
37.9242
 20
18.2222
 11
38.3412
 21
18.1393
  0
LINE
  8
0
 10
38.3412
 20
18.1393
 11
38.7437
 21
18.0026
  0
LINE
  8
0
 10
38.7437
 20
18.0026
 11
39.125
 21
17.8146
  0
LINE
  8
0
 10
39.125
 20
17.8146
 11
39.4785
 21
17.5784
  0
LINE
  8
0
 10
39.4785
 20
17.5784
 11
39.7981
 21
17.2981
  0
LINE
  8
0
 10
39.7981
 20
17.2981
 11
40.0784
 21
16.9785
  0
LINE
  8
0
 10
40.0784
 20
16.9785
 11
40.3146
 21
16.625
  0
LINE
  8
0
 10
40.3146
 20
16.625
 11
40.5026
 21
16.2437
  0
LINE
  8
0
 10
40.5026
 20
16.2437
 11
40.6393
 21
15.8412
  0
LINE
  8
0
 10
40.6393
 20
15.8412
 11
40.7222
 21
15.4242
  0
LINE
  8
0
 10
40.7222
 20
15.4242
 11
40.75
 21
15
  0
LINE
  8
0
 10
40.75
 20
15
 11
40.7222
 21
14.5758
  0
LINE
  8
0
 10
40.7222
 20
14.5758
 11
40.6393
 21
14.1588
  0
LINE
  8
0
 10
40.6393
 20
14.1588
 11
40.5026
 21
13.7563
  0
LINE
  8
0
 10
40.5026
 20
13.7563
 11
40.3146
 21
13.375
  0
LINE
  8
0
 10
40.3146
 20
13.375
 11
40.0784
 21
13.0215
  0
LINE
  8
0
 10
40.0784
 20
13.0215
 11
39.7981
 21
12.7019
  0
LINE
  8
0
 10
39.7981
 20
12.7019
 11
39.4785
 21
12.4216
  0
LINE
  8
0
 10
39.4785
 20
12.4216
 11
39.125
 21
12.1854
  0
LINE
  8
0
 10
39.125
 20
12.1854
 11
38.7437
 21
11.9974
  0
LINE
  8
0
 10
38.7437
 20
11.9974
 11
38.3412
 21
11.8607
  0
LINE
  8
0
 10
38.3412
 20
11.8607
 11
37.9242
 21
11.7778
  0
LINE
  8
0
 10
37.9242
 20
11.7778
 11
37.5
 21
11.75
  0
LINE
  8
0
 10
37.5
 20
11.75
 11
37.0758
 21
11.7778
  0
LINE
  8
0
 10
7.07578
 20
11.7778
 11
6.65883
 21
11.8607
  0
LINE
  8
0
 10
6.65883
 20
11.8607
 11
6.25627
 21
11.9974
  0
LINE
  8
0
 10
6.25627
 20
11.9974
 11
5.875
 21
12.1854
  0
LINE
  8
0
 10
5.875
 20
12.1854
 11
5.52151
 21
12.4216
  0
LINE
  8
0
 10
5.52151
 20
12.4216
 11
5.20189
 21
12.7019
  0
LINE
  8
0
 10
5.20189
 20
12.7019
 11
4.9216
 21
13.0215
  0
LINE
  8
0
 10
4.9216
 20
13.0215
 11
4.68541
 21
13.375
  0
LINE
  8
0
 10
4.68541
 20
13.375
 11
4.49739
 21
13.7563
  0
LINE
  8
0
 10
4.49739
 20
13.7563
 11
4.36073
 21
14.1588
  0
LINE
  8
0
 10
4.36073
 20
14.1588
 11
4.2778
 21
14.5758
  0
LINE
  8
0
 10
4.2778
 20
14.5758
 11
4.25
 21
15
  0
LINE
  8
0
 10
4.25
 20
15
 11
4.2778
 21
15.4242
  0
LINE
  8
0
 10
4.2778
 20
15.4242
 11
4.36073
 21
15.8412
  0
LINE
  8
0
 10
4.36073
 20
15.8412
 11
4.49739
 21
16.2437
  0
LINE
  8
0
 10
4.49739
 20
16.2437
 11
4.68541
 21
16.625
  0
LINE
  8
0
 10
4.68541
 20
16.625
 11
4.9216
 21
16.9785
  0
LINE
  8
0
 10
4.9216
 20
16.9785
 11
5.20189
 21
17.2981
  0
LINE
  8
0
 10
5.20189
 20
17.2981
 11
5.52151
 21
17.5784
  0
LINE
  8
0
 10
5.52151
 20
17.5784
 11
5.875
 21
17.8146
  0
LINE
  8
0
 10
5.875
 20
17.8146
 11
6.25627
 21
18.0026
  0
LINE
  8
0
 10
6.25627
 20
18.0026
 11
6.65883
 21
18.1393
  0
LINE
  8
0
 10
6.65883
 20
18.1393
 11
7.07578
 21
18.2222
  0
LINE
  8
0
 10
7.07578
 20
18.2222
 11
7.5
 21
18.25
  0
LINE
  8
0
 10
7.5
 20
18.25
 11
7.92421
 21
18.2222
  0
LINE
  8
0
 10
7.92421
 20
18.2222
 11
8.34116
 21
18.1393
  0
LINE
  8
0
 10
8.34116
 20
18.1393
 11
8.74371
 21
18.0026
  0
LINE
  8
0
 10
8.74371
 20
18.0026
 11
9.125
 21
17.8146
  0
LINE
  8
0
 10
9.125
 20
17.8146
 11
9.47847
 21
17.5784
  0
LINE
  8
0
 10
9.47847
 20
17.5784
 11
9.7981
 21
17.2981
  0
LINE
  8
0
 10
9.7981
 20
17.2981
 11
10.0784
 21
16.9785
  0
LINE
  8
0
 10
10.0784
 20
16.9785
 11
10.3146
 21
16.625
  0
LINE
  8
0
 10
10.3146
 20
16.625
 11
10.5026
 21
16.2437
  0
LINE
  8
0
 10
10.5026
 20
16.2437
 11
10.6393
 21
15.8412
  0
LINE
  8
0
 10
10.6393
 20
15.8412
 11
10.7222
 21
15.4242
  0
LINE
  8
0
 10
10.7222
 20
15.4242
 11
10.75
 21
15
  0
LINE
  8
0
 10
10.75
 20
15
 11
10.7222
 21
14.5758
  0
LINE
  8
0
 10
10.7222
 20
14.5758
 11
10.6393
 21
14.1588
  0
LINE
  8
0
 10
10.6393
 20
14.1588
 11
10.5026
 21
13.7563
  0
LINE
  8
0
 10
10.5026
 20
13.7563
 11
10.3146
 21
13.375
  0
LINE
  8
0
 10
10.3146
 20
13.375
 11
10.0784
 21
13.0215
  0
LINE
  8
0
 10
10.0784
 20
13.0215
 11
9.7981
 21
12.7019
  0
LINE
  8
0
 10
9.7981
 20
12.7019
 11
9.47847
 21
12.4216
  0
LINE
  8
0
 10
9.47847
 20
12.4216
 11
9.125
 21
12.1854
  0
LINE
  8
0
 10
9.125
 20
12.1854
 11
8.74371
 21
11.9974
  0
LINE
  8
0
 10
8.74371
 20
11.9974
 11
8.34116
 21
11.8607
  0
LINE
  8
0
 10
8.34116
 20
11.8607
 11
7.92421
 21
11.7778
  0
LINE
  8
0
 10
7.92421
 20
11.7778
 11
7.5
 21
11.75
  0
LINE
  8
0
 10
7.5
 20
11.75
 11
7.07578
 21
11.7778
  0
LINE
  8
0
 10
-22.9242
 20
11.7778
 11
-23.3412
 21
11.8607
  0
LINE
  8
0
 10
-23.3412
 20
11.8607
 11
-23.7437
 21
11.9974
  0
LINE
  8
0
 10
-23.7437
 20
11.9974
 11
-24.125
 21
12.1854
  0
LINE
  8
0
 10
-24.125
 20
12.1854
 11
-24.4785
 21
12.4216
  0
LINE
  8
0
 10
-24.4785
 20
12.4216
 11
-24.7981
 21
12.7019
  0
LINE
  8
0
 10
-24.7981
 20
12.7019
 11
-25.0784
 21
13.0215
  0
LINE
  8
0
 10
-25.0784
 20
13.0215
 11
-25.3146
 21
13.375
  0
LINE
  8
0
 10
-25.3146
 20
13.375
 11
-25.5026
 21
13.7563
  0
LINE
  8
0
 10
-25.5026
 20
13.7563
 11
-25.6393
 21
14.1588
  0
LINE
  8
0
 10
-25.6393
 20
14.1588
 11
-25.7222
 21
14.5758
  0
LINE
  8
0
 10
-25.7222
 20
14.5758
 11
-25.75
 21
15
  0
LINE
  8
0
 10
-25.75
 20
15
 11
-25.7222
 21
15.4242
  0
LINE
  8
0
 10
-25.7222
 20
15.4242
 11
-25.6393
 21
15.8412
  0
LINE
  8
0
 10
-25.6393
 20
15.8412
 11
-25.5026
 21
16.2437
  0
LINE
  8
0
 10
-25.5026
 20
16.2437
 11
-25.3146
 21
16.625
  0
LINE
  8
0
 10
-25.3146
 20
16.625
 11
-25.0784
 21
16.9785
  0
LINE
  8
0
 10
-25.0784
 20
16.9785
 11
-24.7981
 21
17.2981
  0
LINE
  8
0
 10
-24.7981
 20
17.2981
 11
-24.4785
 21
17.5784
  0
LINE
  8
0
 10
-24.4785
 20
17.5784
 11
-24.125
 21
17.8146
  0
LINE
  8
0
 10
-24.125
 20
17.8146
 11
-23.7437
 21
18.0026
  0
LINE
  8
0
 10
-23.7437
 20
18.0026
 11
-23.3412
 21
18.1393
  0
LINE
  8
0
 10
-23.3412
 20
18.1393
 11
-22.9242
 21
18.2222
  0
LINE
  8
0
 10
-22.9242
 20
18.2222
 11
-22.5
 21
18.25
  0
LINE
  8
0
 10
-22.5
 20
18.25
 11
-22.0758
 21
18.2222
  0
LINE
  8
0
 10
-22.0758
 20
18.2222
 11
-21.6588
 21
18.1393
  0
LINE
  8
0
 10
-21.6588
 20
18.1393
 11
-21.2563
 21
18.0026
  0
LINE
  8
0
 10
-21.2563
 20
18.0026
 11
-20.875
 21
17.8146
  0
LINE
  8
0
 10
-20.875
 20
17.8146
 11
-20.5215
 21
17.5784
  0
LINE
  8
0
 10
-20.5215
 20
17.5784
 11
-20.2019
 21
17.2981
  0
LINE
  8
0
 10
-20.2019
 20
17.2981
 11
-19.9216
 21
16.9785
  0
LINE
  8
0
 10
-19.9216
 20
16.9785
 11
-19.6854
 21
16.625
  0
LINE
  8
0
 10
-19.6854
 20
16.625
 11
-19.4974
 21
16.2437
  0
LINE
  8
0
 10
-19.4974
 20
16.2437
 11
-19.3607
 21
15.8412
  0
LINE
  8
0
 10
-19.3607
 20
15.8412
 11
-19.2778
 21
15.4242
  0
LINE
  8
0
 10
-19.2778
 20
15.4242
 11
-19.25
 21
15
  0
LINE
  8
0
 10
-19.25
 20
15
 11
-19.2778
 21
14.5758
  0
LINE
  8
0
 10
-19.2778
 20
14.5758
 11
-19.3607
 21
14.1588
  0
LINE
  8
0
 10
-19.3607
 20
14.1588
 11
-19.4974
 21
13.7563
  0
LINE
  8
0
 10
-19.4974
 20
13.7563
 11
-19.6854
 21
13.375
  0
LINE
  8
0
 10
-19.6854
 20
13.375
 11
-19.9216
 21
13.0215
  0
LINE
  8
0
 10
-19.9216
 20
13.0215
 11
-20.2019
 21
12.7019
  0
LINE
  8
0
 10
-20.2019
 20
12.7019
 11
-20.5215
 21
12.4216
  0
LINE
  8
0
 10
-20.5215
 20
12.4216
 11
-20.875
 21
12.1854
  0
LINE
  8
0
 10
-20.875
 20
12.1854
 11
-21.2563
 21
11.9974
  0
LINE
  8
0
 10
-21.2563
 20
11.9974
 11
-21.6588
 21
11.8607
  0
LINE
  8
0
 10
-21.6588
 20
11.8607
 11
-22.0758
 21
11.7778
  0
LINE
  8
0
 10
-22.0758
 20
11.7778
 11
-22.5
 21
11.75
  0
LINE
  8
0
 10
-22.5
 20
11.75
 11
-22.9242
 21
11.7778
  0
LINE
  8
0
 10
-7.92421
 20
11.7778
 11
-8.34116
 21
11.8607
  0
LINE
  8
0
 10
-8.34116
 20
11.8607
 11
-8.74371
 21
11.9974
  0
LINE
  8
0
 10
-8.74371
 20
11.9974
 11
-9.125
 21
12.1854
  0
LINE
  8
0
 10
-9.125
 20
12.1854
 11
-9.47847
 21
12.4216
  0
LINE
  8
0
 10
-9.47847
 20
12.4216
 11
-9.7981
 21
12.7019
  0
LINE
  8
0
 10
-9.7981
 20
12.7019
 11
-10.0784
 21
13.0215
  0
LINE
  8
0
 10
-10.0784
 20
13.0215
 11
-10.3146
 21
13.375
  0
LINE
  8
0
 10
-10.3146
 20
13.375
 11
-10.5026
 21
13.7563
  0
LINE
  8
0
 10
-10.5026
 20
13.7563
 11
-10.6393
 21
14.1588
  0
LINE
  8
0
 10
-10.6393
 20
14.1588
 11
-10.7222
 21
14.5758
  0
LINE
  8
0
 10
-10.7222
 20
14.5758
 11
-10.75
 21
15
  0
LINE
  8
0
 10
-10.75
 20
15
 11
-10.7222
 21
15.4242
  0
LINE
  8
0
 10
-10.7222
 20
15.4242
 11
-10.6393
 21
15.8412
  0
LINE
  8
0
 10
-10.6393
 20
15.8412
 11
-10.5026
 21
16.2437
  0
LINE
  8
0
 10
-10.5026
 20
16.2437
 11
-10.3146
 21
16.625
  0
LINE
  8
0
 10
-10.3146
 20
16.625
 11
-10.0784
 21
16.9785
  0
LINE
  8
0
 10
-10.0784
 20
16.9785
 11
-9.7981
 21
17.2981
  0
LINE
  8
0
 10
-9.7981
 20
17.2981
 11
-9.47847
 21
17.5784
  0
LINE
  8
0
 10
-9.47847
 20
17.5784
 11
-9.125
 21
17.8146
  0
LINE
  8
0
 10
-9.125
 20
17.8146
 11
-8.74371
 21
18.0026
  0
LINE
  8
0
 10
-8.74371
 20
18.0026
 11
-8.34116
 21
18.1393
  0
LINE
  8
0
 10
-8.34116
 20
18.1393
 11
-7.92421
 21
18.2222
  0
LINE
  8
0
 10
-7.92421
 20
18.2222
 11
-7.5
 21
18.25
  0
LINE
  8
0
 10
-7.5
 20
18.25
 11
-7.07578
 21
18.2222
  0
LINE
  8
0
 10
-7.07578
 20
18.2222
 11
-6.65883
 21
18.1393
  0
LINE
  8
0
 10
-6.65883
 20
18.1393
 11
-6.25627
 21
18.0026
  0
LINE
  8
0
 10
-6.25627
 20
18.0026
 11
-5.875
 21
17.8146
  0
LINE
  8
0
 10
-5.875
 20
17.8146
 11
-5.52151
 21
17.5784
  0
LINE
  8
0
 10
-5.52151
 20
17.5784
 11
-5.20189
 21
17.2981
  0
LINE
  8
0
 10
-5.20189
 20
17.2981
 11
-4.9216
 21
16.9785
  0
LINE
  8
0
 10
-4.9216
 20
16.9785
 11
-4.68541
 21
16.625
  0
LINE
  8
0
 10
-4.68541
 20
16.625
 11
-4.49739
 21
16.2437
  0
LINE
  8
0
 10
-4.49739
 20
16.2437
 11
-4.36073
 21
15.8412
  0
LINE
  8
0
 10
-4.36073
 20
15.8412
 11
-4.2778
 21
15.4242
  0
LINE
  8
0
 10
-4.2778
 20
15.4242
 11
-4.25
 21
15
  0
LINE
  8
0
 10
-4.25
 20
15
 11
-4.2778
 21
14.5758
  0
LINE
  8
0
 10
-4.2778
 20
14.5758
 11
-4.36073
 21
14.1588
  0
LINE
  8
0
 10
-4.36073
 20
14.1588
 11
-4.49739
 21
13.7563
  0
LINE
  8
0
 10
-4.49739
 20
13.7563
 11
-4.68541
 21
13.375
  0
LINE
  8
0
 10
-4.68541
 20
13.375
 11
-4.9216
 21
13.0215
  0
LINE
  8
0
 10
-4.9216
 20
13.0215
 11
-5.20189
 21
12.7019
  0
LINE
  8
0
 10
-5.20189
 20
12.7019
 11
-5.52151
 21
12.4216
  0
LINE
  8
0
 10
-5.52151
 20
12.4216
 11
-5.875
 21
12.1854
  0
LINE
  8
0
 10
-5.875
 20
12.1854
 11
-6.25627
 21
11.9974
  0
LINE
  8
0
 10
-6.25627
 20
11.9974
 11
-6.65883
 21
11.8607
  0
LINE
  8
0
 10
-6.65883
 20
11.8607
 11
-7.07578
 21
11.7778
  0
LINE
  8
0
 10
-7.07578
 20
11.7778
 11
-7.5
 21
11.75
  0
LINE
  8
0
 10
-7.5
 20
11.75
 11
-7.92421
 21
11.7778
  0
LINE
  8
0
 10
22.0758
 20
11.7778
 11
21.6588
 21
11.8607
  0
LINE
  8
0
 10
21.6588
 20
11.8607
 11
21.2563
 21
11.9974
  0
LINE
  8
0
 10
21.2563
 20
11.9974
 11
20.875
 21
12.1854
  0
LINE
  8
0
 10
20.875
 20
12.1854
 11
20.5215
 21
12.4216
  0
LINE
  8
0
 10
20.5215
 20
12.4216
 11
20.2019
 21
12.7019
  0
LINE
  8
0
 10
20.2019
 20
12.7019
 11
19.9216
 21
13.0215
  0
LINE
  8
0
 10
19.9216
 20
13.0215
 11
19.6854
 21
13.375
  0
LINE
  8
0
 10
19.6854
 20
13.375
 11
19.4974
 21
13.7563
  0
LINE
  8
0
 10
19.4974
 20
13.7563
 11
19.3607
 21
14.1588
  0
LINE
  8
0
 10
19.3607
 20
14.1588
 11
19.2778
 21
14.5758
  0
LINE
  8
0
 10
19.2778
 20
14.5758
 11
19.25
 21
15
  0
LINE
  8
0
 10
19.25
 20
15
 11
19.2778
 21
15.4242
  0
LINE
  8
0
 10
19.2778
 20
15.4242
 11
19.3607
 21
15.8412
  0
LINE
  8
0
 10
19.3607
 20
15.8412
 11
19.4974
 21
16.2437
  0
LINE
  8
0
 10
19.4974
 20
16.2437
 11
19.6854
 21
16.625
  0
LINE
  8
0
 10
19.6854
 20
16.625
 11
19.9216
 21
16.9785
  0
LINE
  8
0
 10
19.9216
 20
16.9785
 11
20.2019
 21
17.2981
  0
LINE
  8
0
 10
20.2019
 20
17.2981
 11
20.5215
 21
17.5784
  0
LINE
  8
0
 10
20.5215
 20
17.5784
 11
20.875
 21
17.8146
  0
LINE
  8
0
 10
20.875
 20
17.8146
 11
21.2563
 21
18.0026
  0
LINE
  8
0
 10
21.2563
 20
18.0026
 11
21.6588
 21
18.1393
  0
LINE
  8
0
 10
21.6588
 20
18.1393
 11
22.0758
 21
18.2222
  0
LINE
  8
0
 10
22.0758
 20
18.2222
 11
22.5
 21
18.25
  0
LINE
  8
0
 10
22.5
 20
18.25
 11
22.9242
 21
18.2222
  0
LINE
  8
0
 10
22.9242
 20
18.2222
 11
23.3412
 21
18.1393
  0
LINE
  8
0
 10
23.3412
 20
18.1393
 11
23.7437
 21
18.0026
  0
LINE
  8
0
 10
23.7437
 20
18.0026
 11
24.125
 21
17.8146
  0
LINE
  8
0
 10
24.125
 20
17.8146
 11
24.4785
 21
17.5784
  0
LINE
  8
0
 10
24.4785
 20
17.5784
 11
24.7981
 21
17.2981
  0
LINE
  8
0
 10
24.7981
 20
17.2981
 11
25.0784
 21
16.9785
  0
LINE
  8
0
 10
25.0784
 20
16.9785
 11
25.3146
 21
16.625
  0
LINE
  8
0
 10
25.3146
 20
16.625
 11
25.5026
 21
16.2437
  0
LINE
  8
0
 10
25.5026
 20
16.2437
 11
25.6393
 21
15.8412
  0
LINE
  8
0
 10
25.6393
 20
15.8412
 11
25.7222
 21
15.4242
  0
LINE
  8
0
 10
25.7222
 20
15.4242
 11
25.75
 21
15
  0
LINE
  8
0
 10
25.75
 20
15
 11
25.7222
 21
14.5758
  0
LINE
  8
0
 10
25.7222
 20
14.5758
 11
25.6393
 21
14.1588
  0
LINE
  8
0
 10
25.6393
 20
14.1588
 11
25.5026
 21
13.7563
  0
LINE
  8
0
 10
25.5026
 20
13.7563
 11
25.3146
 21
13.375
  0
LINE
  8
0
 10
25.3146
 20
13.375
 11
25.0784
 21
13.0215
  0
LINE
  8
0
 10
25.0784
 20
13.0215
 11
24.7981
 21
12.7019
  0
LINE
  8
0
 10
24.7981
 20
12.7019
 11
24.4785
 21
12.4216
  0
LINE
  8
0
 10
24.4785
 20
12.4216
 11
24.125
 21
12.1854
  0
LINE
  8
0
 10
24.125
 20
12.1854
 11
23.7437
 21
11.9974
  0
LINE
  8
0
 10
23.7437
 20
11.9974
 11
23.3412
 21
11.8607
  0
LINE
  8
0
 10
23.3412
 20
11.8607
 11
22.9242
 21
11.7778
  0
LINE
  8
0
 10
22.9242
 20
11.7778
 11
22.5
 21
11.75
  0
LINE
  8
0
 10
22.5
 20
11.75
 11
22.0758
 21
11.7778
  0
LINE
  8
0
 10
52.0758
 20
11.7778
 11
51.6588
 21
11.8607
  0
LINE
  8
0
 10
51.6588
 20
11.8607
 11
51.2563
 21
11.9974
  0
LINE
  8
0
 10
51.2563
 20
11.9974
 11
50.875
 21
12.1854
  0
LINE
  8
0
 10
50.875
 20
12.1854
 11
50.5215
 21
12.4216
  0
LINE
  8
0
 10
50.5215
 20
12.4216
 11
50.2019
 21
12.7019
  0
LINE
  8
0
 10
50.2019
 20
12.7019
 11
49.9216
 21
13.0215
  0
LINE
  8
0
 10
49.9216
 20
13.0215
 11
49.6854
 21
13.375
  0
LINE
  8
0
 10
49.6854
 20
13.375
 11
49.4974
 21
13.7563
  0
LINE
  8
0
 10
49.4974
 20
13.7563
 11
49.3607
 21
14.1588
  0
LINE
  8
0
 10
49.3607
 20
14.1588
 11
49.2778
 21
14.5758
  0
LINE
  8
0
 10
49.2778
 20
14.5758
 11
49.25
 21
15
  0
LINE
  8
0
 10
49.25
 20
15
 11
49.2778
 21
15.4242
  0
LINE
  8
0
 10
49.2778
 20
15.4242
 11
49.3607
 21
15.8412
  0
LINE
  8
0
 10
49.3607
 20
15.8412
 11
49.4974
 21
16.2437
  0
LINE
  8
0
 10
49.4974
 20
16.2437
 11
49.6854
 21
16.625
  0
LINE
  8
0
 10
49.6854
 20
16.625
 11
49.9216
 21
16.9785
  0
LINE
  8
0
 10
49.9216
 20
16.9785
 11
50.2019
 21
17.2981
  0
LINE
  8
0
 10
50.2019
 20
17.2981
 11
50.5215
 21
17.5784
  0
LINE
  8
0
 10
50.5215
 20
17.5784
 11
50.875
 21
17.8146
  0
LINE
  8
0
 10
50.875
 20
17.8146
 11
51.2563
 21
18.0026
  0
LINE
  8
0
 10
51.2563
 20
18.0026
 11
51.6588
 21
18.1393
  0
LINE
  8
0
 10
51.6588
 20
18.1393
 11
52.0758
 21
18.2222
  0
LINE
  8
0
 10
52.0758
 20
18.2222
 11
52.5
 21
18.25
  0
LINE
  8
0
 10
52.5
 20
18.25
 11
52.9242
 21
18.2222
  0
LINE
  8
0
 10
52.9242
 20
18.2222
 11
53.3412
 21
18.1393
  0
LINE
  8
0
 10
53.3412
 20
18.1393
 11
53.7437
 21
18.0026
  0
LINE
  8
0
 10
53.7437
 20
18.0026
 11
54.125
 21
17.8146
  0
LINE
  8
0
 10
54.125
 20
17.8146
 11
54.4785
 21
17.5784
  0
LINE
  8
0
 10
54.4785
 20
17.5784
 11
54.7981
 21
17.2981
  0
LINE
  8
0
 10
54.7981
 20
17.2981
 11
55.0784
 21
16.9785
  0
LINE
  8
0
 10
55.0784
 20
16.9785
 11
55.3146
 21
16.625
  0
LINE
  8
0
 10
55.3146
 20
16.625
 11
55.5026
 21
16.2437
  0
LINE
  8
0
 10
55.5026
 20
16.2437
 11
55.6393
 21
15.8412
  0
LINE
  8
0
 10
55.6393
 20
15.8412
 11
55.7222
 21
15.4242
  0
LINE
  8
0
 10
55.7222
 20
15.4242
 11
55.75
 21
15
  0
LINE
  8
0
 10
55.75
 20
15
 11
55.7222
 21
14.5758
  0
LINE
  8
0
 10
55.7222
 20
14.5758
 11
55.6393
 21
14.1588
  0
LINE
  8
0
 10
55.6393
 20
14.1588
 11
55.5026
 21
13.7563
  0
LINE
  8
0
 10
55.5026
 20
13.7563
 11
55.3146
 21
13.375
  0
LINE
  8
0
 10
55.3146
 20
13.375
 11
55.0784
 21
13.0215
  0
LINE
  8
0
 10
55.0784
 20
13.0215
 11
54.7981
 21
12.7019
  0
LINE
  8
0
 10
54.7981
 20
12.7019
 11
54.4785
 21
12.4216
  0
LINE
  8
0
 10
54.4785
 20
12.4216
 11
54.125
 21
12.1854
  0
LINE
  8
0
 10
54.125
 20
12.1854
 11
53.7437
 21
11.9974
  0
LINE
  8
0
 10
53.7437
 20
11.9974
 11
53.3412
 21
11.8607
  0
LINE
  8
0
 10
53.3412
 20
11.8607
 11
52.9242
 21
11.7778
  0
LINE
  8
0
 10
52.9242
 20
11.7778
 11
52.5
 21
11.75
  0
LINE
  8
0
 10
52.5
 20
11.75
 11
52.0758
 21
11.7778
  0
LINE
  8
0
 10
-52.9242
 20
11.7778
 11
-53.3412
 21
11.8607
  0
LINE
  8
0
 10
-53.3412
 20
11.8607
 11
-53.7437
 21
11.9974
  0
LINE
  8
0
 10
-53.7437
 20
11.9974
 11
-54.125
 21
12.1854
  0
LINE
  8
0
 10
-54.125
 20
12.1854
 11
-54.4785
 21
12.4216
  0
LINE
  8
0
 10
-54.4785
 20
12.4216
 11
-54.7981
 21
12.7019
  0
LINE
  8
0
 10
-54.7981
 20
12.7019
 11
-55.0784
 21
13.0215
  0
LINE
  8
0
 10
-55.0784
 20
13.0215
 11
-55.3146
 21
13.375
  0
LINE
  8
0
 10
-55.3146
 20
13.375
 11
-55.5026
 21
13.7563
  0
LINE
  8
0
 10
-55.5026
 20
13.7563
 11
-55.6393
 21
14.1588
  0
LINE
  8
0
 10
-55.6393
 20
14.1588
 11
-55.7222
 21
14.5758
  0
LINE
  8
0
 10
-55.7222
 20
14.5758
 11
-55.75
 21
15
  0
LINE
  8
0
 10
-55.75
 20
15
 11
-55.7222
 21
15.4242
  0
LINE
  8
0
 10
-55.7222
 20
15.4242
 11
-55.6393
 21
15.8412
  0
LINE
  8
0
 10
-55.6393
 20
15.8412
 11
-55.5026
 21
16.2437
  0
LINE
  8
0
 10
-55.5026
 20
16.2437
 11
-55.3146
 21
16.625
  0
LINE
  8
0
 10
-55.3146
 20
16.625
 11
-55.0784
 21
16.9785
  0
LINE
  8
0
 10
-55.0784
 20
16.9785
 11
-54.7981
 21
17.2981
  0
LINE
  8
0
 10
-54.7981
 20
17.2981
 11
-54.4785
 21
17.5784
  0
LINE
  8
0
 10
-54.4785
 20
17.5784
 11
-54.125
 21
17.8146
  0
LINE
  8
0
 10
-54.125
 20
17.8146
 11
-53.7437
 21
18.0026
  0
LINE
  8
0
 10
-53.7437
 20
18.0026
 11
-53.3412
 21
18.1393
  0
LINE
  8
0
 10
-53.3412
 20
18.1393
 11
-52.9242
 21
18.2222
  0
LINE
  8
0
 10
-52.9242
 20
18.2222
 11
-52.5
 21
18.25
  0
LINE
  8
0
 10
-52.5
 20
18.25
 11
-52.0758
 21
18.2222
  0
LINE
  8
0
 10
-52.0758
 20
18.2222
 11
-51.6588
 21
18.1393
  0
LINE
  8
0
 10
-51.6588
 20
18.1393
 11
-51.2563
 21
18.0026
  0
LINE
  8
0
 10
-51.2563
 20
18.0026
 11
-50.875
 21
17.8146
  0
LINE
  8
0
 10
-50.875
 20
17.8146
 11
-50.5215
 21
17.5784
  0
LINE
  8
0
 10
-50.5215
 20
17.5784
 11
-50.2019
 21
17.2981
  0
LINE
  8
0
 10
-50.2019
 20
17.2981
 11
-49.9216
 21
16.9785
  0
LINE
  8
0
 10
-49.9216
 20
16.9785
 11
-49.6854
 21
16.625
  0
LINE
  8
0
 10
-49.6854
 20
16.625
 11
-49.4974
 21
16.2437
  0
LINE
  8
0
 10
-49.4974
 20
16.2437
 11
-49.3607
 21
15.8412
  0
LINE
  8
0
 10
-49.3607
 20
15.8412
 11
-49.2778
 21
15.4242
  0
LINE
  8
0
 10
-49.2778
 20
15.4242
 11
-49.25
 21
15
  0
LINE
  8
0
 10
-49.25
 20
15
 11
-49.2778
 21
14.5758
  0
LINE
  8
0
 10
-49.2778
 20
14.5758
 11
-49.3607
 21
14.1588
  0
LINE
  8
0
 10
-49.3607
 20
14.1588
 11
-49.4974
 21
13.7563
  0
LINE
  8
0
 10
-49.4974
 20
13.7563
 11
-49.6854
 21
13.375
  0
LINE
  8
0
 10
-49.6854
 20
13.375
 11
-49.9216
 21
13.0215
  0
LINE
  8
0
 10
-49.9216
 20
13.0215
 11
-50.2019
 21
12.7019
  0
LINE
  8
0
 10
-50.2019
 20
12.7019
 11
-50.5215
 21
12.4216
  0
LINE
  8
0
 10
-50.5215
 20
12.4216
 11
-50.875
 21
12.1854
  0
LINE
  8
0
 10
-50.875
 20
12.1854
 11
-51.2563
 21
11.9974
  0
LINE
  8
0
 10
-51.2563
 20
11.9974
 11
-51.6588
 21
11.8607
  0
LINE
  8
0
 10
-51.6588
 20
11.8607
 11
-52.0758
 21
11.7778
  0
LINE
  8
0
 10
-52.0758
 20
11.7778
 11
-52.5
 21
11.75
  0
LINE
  8
0
 10
-52.5
 20
11.75
 11
-52.9242
 21
11.7778
  0
LINE
  8
0
 10
-52.9242
 20
-3.22218
 11
-53.3412
 21
-3.13925
  0
LINE
  8
0
 10
-53.3412
 20
-3.13925
 11
-53.7437
 21
-3.00259
  0
LINE
  8
0
 10
-53.7437
 20
-3.00259
 11
-54.125
 21
-2.81458
  0
LINE
  8
0
 10
-54.125
 20
-2.81458
 11
-54.4785
 21
-2.57838
  0
LINE
  8
0
 10
-54.4785
 20
-2.57838
 11
-54.7981
 21
-2.2981
  0
LINE
  8
0
 10
-54.7981
 20
-2.2981
 11
-55.0784
 21
-1.97847
  0
LINE
  8
0
 10
-55.0784
 20
-1.97847
 11
-55.3146
 21
-1.625
  0
LINE
  8
0
 10
-55.3146
 20
-1.625
 11
-55.5026
 21
-1.24371
  0
LINE
  8
0
 10
-55.5026
 20
-1.24371
 11
-55.6393
 21
-0.841156
  0
LINE
  8
0
 10
-55.6393
 20
-0.841156
 11
-55.7222
 21
-0.42421
  0
LINE
  8
0
 10
-55.7222
 20
-0.42421
 11
-55.75
 21
0
  0
LINE
  8
0
 10
-55.75
 20
0
 11
-55.7222
 21
0.42421
  0
LINE
  8
0
 10
-55.7222
 20
0.42421
 11
-55.6393
 21
0.841156
  0
LINE
  8
0
 10
-55.6393
 20
0.841156
 11
-55.5026
 21
1.24371
  0
LINE
  8
0
 10
-55.5026
 20
1.24371
 11
-55.3146
 21
1.625
  0
LINE
  8
0
 10
-55.3146
 20
1.625
 11
-55.0784
 21
1.97847
  0
LINE
  8
0
 10
-55.0784
 20
1.97847
 11
-54.7981
 21
2.2981
  0
LINE
  8
0
 10
-54.7981
 20
2.2981
 11
-54.4785
 21
2.57838
  0
LINE
  8
0
 10
-54.4785
 20
2.57838
 11
-54.125
 21
2.81458
  0
LINE
  8
0
 10
-54.125
 20
2.81458
 11
-53.7437
 21
3.00259
  0
LINE
  8
0
 10
-53.7437
 20
3.00259
 11
-53.3412
 21
3.13925
  0
LINE
  8
0
 10
-53.3412
 20
3.13925
 11
-52.9242
 21
3.22218
  0
LINE
  8
0
 10
-52.9242
 20
3.22218
 11
-52.5
 21
3.25
  0
LINE
  8
0
 10
-52.5
 20
3.25
 11
-52.0758
 21
3.22218
  0
LINE
  8
0
 10
-52.0758
 20
3.22218
 11
-51.6588
 21
3.13925
  0
LINE
  8
0
 10
-51.6588
 20
3.13925
 11
-51.2563
 21
3.00259
  0
LINE
  8
0
 10
-51.2563
 20
3.00259
 11
-50.875
 21
2.81458
  0
LINE
  8
0
 10
-50.875
 20
2.81458
 11
-50.5215
 21
2.57838
  0
LINE
  8
0
 10
-50.5215
 20
2.57838
 11
-50.2019
 21
2.2981
  0
LINE
  8
0
 10
-50.2019
 20
2.2981
 11
-49.9216
 21
1.97847
  0
LINE
  8
0
 10
-49.9216
 20
1.97847
 11
-49.6854
 21
1.625
  0
LINE
  8
0
 10
-49.6854
 20
1.625
 11
-49.4974
 21
1.24371
  0
LINE
  8
0
 10
-49.4974
 20
1.24371
 11
-49.3607
 21
0.841156
  0
LINE
  8
0
 10
-49.3607
 20
0.841156
 11
-49.2778
 21
0.42421
  0
LINE
  8
0
 10
-49.2778
 20
0.42421
 11
-49.25
 21
0
  0
LINE
  8
0
 10
-49.25
 20
0
 11
-49.2778
 21
-0.42421
  0
LINE
  8
0
 10
-49.2778
 20
-0.42421
 11
-49.3607
 21
-0.841156
  0
LINE
  8
0
 10
-49.3607
 20
-0.841156
 11
-49.4974
 21
-1.24371
  0
LINE
  8
0
 10
-49.4974
 20
-1.24371
 11
-49.6854
 21
-1.625
  0
LINE
  8
0
 10
-49.6854
 20
-1.625
 11
-49.9216
 21
-1.97847
  0
LINE
  8
0
 10
-49.9216
 20
-1.97847
 11
-50.2019
 21
-2.2981
  0
LINE
  8
0
 10
-50.2019
 20
-2.2981
 11
-50.5215
 21
-2.57838
  0
LINE
  8
0
 10
-50.5215
 20
-2.57838
 11
-50.875
 21
-2.81458
  0
LINE
  8
0
 10
-50.875
 20
-2.81458
 11
-51.2563
 21
-3.00259
  0
LINE
  8
0
 10
-51.2563
 20
-3.00259
 11
-51.6588
 21
-3.13925
  0
LINE
  8
0
 10
-51.6588
 20
-3.13925
 11
-52.0758
 21
-3.22218
  0
LINE
  8
0
 10
-52.0758
 20
-3.22218
 11
-52.5
 21
-3.25
  0
LINE
  8
0
 10
-52.5
 20
-3.25
 11
-52.9242
 21
-3.22218
  0
LINE
  8
0
 10
-7.92421
 20
-3.22218
 11
-8.34116
 21
-3.13925
  0
LINE
  8
0
 10
-8.34116
 20
-3.13925
 11
-8.74371
 21
-3.00259
  0
LINE
  8
0
 10
-8.74371
 20
-3.00259
 11
-9.125
 21
-2.81458
  0
LINE
  8
0
 10
-9.125
 20
-2.81458
 11
-9.47847
 21
-2.57838
  0
LINE
  8
0
 10
-9.47847
 20
-2.57838
 11
-9.7981
 21
-2.2981
  0
LINE
  8
0
 10
-9.7981
 20
-2.2981
 11
-10.0784
 21
-1.97847
  0
LINE
  8
0
 10
-10.0784
 20
-1.97847
 11
-10.3146
 21
-1.625
  0
LINE
  8
0
 10
-10.3146
 20
-1.625
 11
-10.5026
 21
-1.24371
  0
LINE
  8
0
 10
-10.5026
 20
-1.24371
 11
-10.6393
 21
-0.841156
  0
LINE
  8
0
 10
-10.6393
 20
-0.841156
 11
-10.7222
 21
-0.42421
  0
LINE
  8
0
 10
-10.7222
 20
-0.42421
 11
-10.75
 21
0
  0
LINE
  8
0
 10
-10.75
 20
0
 11
-10.7222
 21
0.42421
  0
LINE
  8
0
 10
-10.7222
 20
0.42421
 11
-10.6393
 21
0.841156
  0
LINE
  8
0
 10
-10.6393
 20
0.841156
 11
-10.5026
 21
1.24371
  0
LINE
  8
0
 10
-10.5026
 20
1.24371
 11
-10.3146
 21
1.625
  0
LINE
  8
0
 10
-10.3146
 20
1.625
 11
-10.0784
 21
1.97847
  0
LINE
  8
0
 10
-10.0784
 20
1.97847
 11
-9.7981
 21
2.2981
  0
LINE
  8
0
 10
-9.7981
 20
2.2981
 11
-9.47847
 21
2.57838
  0
LINE
  8
0
 10
-9.47847
 20
2.57838
 11
-9.125
 21
2.81458
  0
LINE
  8
0
 10
-9.125
 20
2.81458
 11
-8.74371
 21
3.00259
  0
LINE
  8
0
 10
-8.74371
 20
3.00259
 11
-8.34116
 21
3.13925
  0
LINE
  8
0
 10
-8.34116
 20
3.13925
 11
-7.92421
 21
3.22218
  0
LINE
  8
0
 10
-7.92421
 20
3.22218
 11
-7.5
 21
3.25
  0
LINE
  8
0
 10
-7.5
 20
3.25
 11
-7.07578
 21
3.22218
  0
LINE
  8
0
 10
-7.07578
 20
3.22218
 11
-6.65883
 21
3.13925
  0
LINE
  8
0
 10
-6.65883
 20
3.13925
 11
-6.25627
 21
3.00259
  0
LINE
  8
0
 10
-6.25627
 20
3.00259
 11
-5.875
 21
2.81458
  0
LINE
  8
0
 10
-5.875
 20
2.81458
 11
-5.52151
 21
2.57838
  0
LINE
  8
0
 10
-5.52151
 20
2.57838
 11
-5.20189
 21
2.2981
  0
LINE
  8
0
 10
-5.20189
 20
2.2981
 11
-4.9216
 21
1.97847
  0
LINE
  8
0
 10
-4.9216
 20
1.97847
 11
-4.68541
 21
1.625
  0
LINE
  8
0
 10
-4.68541
 20
1.625
 11
-4.49739
 21
1.24371
  0
LINE
  8
0
 10
-4.49739
 20
1.24371
 11
-4.36073
 21
0.841156
  0
LINE
  8
0
 10
-4.36073
 20
0.841156
 11
-4.2778
 21
0.42421
  0
LINE
  8
0
 10
-4.2778
 20
0.42421
 11
-4.25
 21
0
  0
LINE
  8
0
 10
-4.25
 20
0
 11
-4.2778
 21
-0.42421
  0
LINE
  8
0
 10
-4.2778
 20
-0.42421
 11
-4.36073
 21
-0.841156
  0
LINE
  8
0
 10
-4.36073
 20
-0.841156
 11
-4.49739
 21
-1.24371
  0
LINE
  8
0
 10
-4.49739
 20
-1.24371
 11
-4.68541
 21
-1.625
  0
LINE
  8
0
 10
-4.68541
 20
-1.625
 11
-4.9216
 21
-1.97847
  0
LINE
  8
0
 10
-4.9216
 20
-1.97847
 11
-5.20189
 21
-2.2981
  0
LINE
  8
0
 10
-5.20189
 20
-2.2981
 11
-5.52151
 21
-2.57838
  0
LINE
  8
0
 10
-5.52151
 20
-2.57838
 11
-5.875
 21
-2.81458
  0
LINE
  8
0
 10
-5.875
 20
-2.81458
 11
-6.25627
 21
-3.00259
  0
LINE
  8
0
 10
-6.25627
 20
-3.00259
 11
-6.65883
 21
-3.13925
  0
LINE
  8
0
 10
-6.65883
 20
-3.13925
 11
-7.07578
 21
-3.22218
  0
LINE
  8
0
 10
-7.07578
 20
-3.22218
 11
-7.5
 21
-3.25
  0
LINE
  8
0
 10
-7.5
 20
-3.25
 11
-7.92421
 21
-3.22218
  0
LINE
  8
0
 10
7.07578
 20
-3.22218
 11
6.65883
 21
-3.13925
  0
LINE
  8
0
 10
6.65883
 20
-3.13925
 11
6.25627
 21
-3.00259
  0
LINE
  8
0
 10
6.25627
 20
-3.00259
 11
5.875
 21
-2.81458
  0
LINE
  8
0
 10
5.875
 20
-2.81458
 11
5.52151
 21
-2.57838
  0
LINE
  8
0
 10
5.52151
 20
-2.57838
 11
5.20189
 21
-2.2981
  0
LINE
  8
0
 10
5.20189
 20
-2.2981
 11
4.9216
 21
-1.97847
  0
LINE
  8
0
 10
4.9216
 20
-1.97847
 11
4.68541
 21
-1.625
  0
LINE
  8
0
 10
4.68541
 20
-1.625
 11
4.49739
 21
-1.24371
  0
LINE
  8
0
 10
4.49739
 20
-1.24371
 11
4.36073
 21
-0.841156
  0
LINE
  8
0
 10
4.36073
 20
-0.841156
 11
4.2778
 21
-0.42421
  0
LINE
  8
0
 10
4.2778
 20
-0.42421
 11
4.25
 21
0
  0
LINE
  8
0
 10
4.25
 20
0
 11
4.2778
 21
0.42421
  0
LINE
  8
0
 10
4.2778
 20
0.42421
 11
4.36073
 21
0.841156
  0
LINE
  8
0
 10
4.36073
 20
0.841156
 11
4.49739
 21
1.24371
  0
LINE
  8
0
 10
4.49739
 20
1.24371
 11
4.68541
 21
1.625
  0
LINE
  8
0
 10
4.68541
 20
1.625
 11
4.9216
 21
1.97847
  0
LINE
  8
0
 10
4.9216
 20
1.97847
 11
5.20189
 21
2.2981
  0
LINE
  8
0
 10
5.20189
 20
2.2981
 11
5.52151
 21
2.57838
  0
LINE
  8
0
 10
5.52151
 20
2.57838
 11
5.875
 21
2.81458
  0
LINE
  8
0
 10
5.875
 20
2.81458
 11
6.25627
 21
3.00259
  0
LINE
  8
0
 10
6.25627
 20
3.00259
 11
6.65883
 21
3.13925
  0
LINE
  8
0
 10
6.65883
 20
3.13925
 11
7.07578
 21
3.22218
  0
LINE
  8
0
 10
7.07578
 20
3.22218
 11
7.5
 21
3.25
  0
LINE
  8
0
 10
7.5
 20
3.25
 11
7.92421
 21
3.22218
  0
LINE
  8
0
 10
7.92421
 20
3.22218
 11
8.34116
 21
3.13925
  0
LINE
  8
0
 10
8.34116
 20
3.13925
 11
8.74371
 21
3.00259
  0
LINE
  8
0
 10
8.74371
 20
3.00259
 11
9.125
 21
2.81458
  0
LINE
  8
0
 10
9.125
 20
2.81458
 11
9.47847
 21
2.57838
  0
LINE
  8
0
 10
9.47847
 20
2.57838
 11
9.7981
 21
2.2981
  0
LINE
  8
0
 10
9.7981
 20
2.2981
 11
10.0784
 21
1.97847
  0
LINE
  8
0
 10
10.0784
 20
1.97847
 11
10.3146
 21
1.625
  0
LINE
  8
0
 10
10.3146
 20
1.625
 11
10.5026
 21
1.24371
  0
LINE
  8
0
 10
10.5026
 20
1.24371
 11
10.6393
 21
0.841156
  0
LINE
  8
0
 10
10.6393
 20
0.841156
 11
10.7222
 21
0.42421
  0
LINE
  8
0
 10
10.7222
 20
0.42421
 11
10.75
 21
0
  0
LINE
  8
0
 10
10.75
 20
0
 11
10.7222
 21
-0.42421
  0
LINE
  8
0
 10
10.7222
 20
-0.42421
 11
10.6393
 21
-0.841156
  0
LINE
  8
0
 10
10.6393
 20
-0.841156
 11
10.5026
 21
-1.24371
  0
LINE
  8
0
 10
10.5026
 20
-1.24371
 11
10.3146
 21
-1.625
  0
LINE
  8
0
 10
10.3146
 20
-1.625
 11
10.0784
 21
-1.97847
  0
LINE
  8
0
 10
10.0784
 20
-1.97847
 11
9.7981
 21
-2.2981
  0
LINE
  8
0
 10
9.7981
 20
-2.2981
 11
9.47847
 21
-2.57838
  0
LINE
  8
0
 10
9.47847
 20
-2.57838
 11
9.125
 21
-2.81458
  0
LINE
  8
0
 10
9.125
 20
-2.81458
 11
8.74371
 21
-3.00259
  0
LINE
  8
0
 10
8.74371
 20
-3.00259
 11
8.34116
 21
-3.13925
  0
LINE
  8
0
 10
8.34116
 20
-3.13925
 11
7.92421
 21
-3.22218
  0
LINE
  8
0
 10
7.92421
 20
-3.22218
 11
7.5
 21
-3.25
  0
LINE
  8
0
 10
7.5
 20
-3.25
 11
7.07578
 21
-3.22218
  0
LINE
  8
0
 10
37.0758
 20
-3.22218
 11
36.6588
 21
-3.13925
  0
LINE
  8
0
 10
36.6588
 20
-3.13925
 11
36.2563
 21
-3.00259
  0
LINE
  8
0
 10
36.2563
 20
-3.00259
 11
35.875
 21
-2.81458
  0
LINE
  8
0
 10
35.875
 20
-2.81458
 11
35.5215
 21
-2.57838
  0
LINE
  8
0
 10
35.5215
 20
-2.57838
 11
35.2019
 21
-2.2981
  0
LINE
  8
0
 10
35.2019
 20
-2.2981
 11
34.9216
 21
-1.97847
  0
LINE
  8
0
 10
34.9216
 20
-1.97847
 11
34.6854
 21
-1.625
  0
LINE
  8
0
 10
34.6854
 20
-1.625
 11
34.4974
 21
-1.24371
  0
LINE
  8
0
 10
34.4974
 20
-1.24371
 11
34.3607
 21
-0.841156
  0
LINE
  8
0
 10
34.3607
 20
-0.841156
 11
34.2778
 21
-0.42421
  0
LINE
  8
0
 10
34.2778
 20
-0.42421
 11
34.25
 21
0
  0
LINE
  8
0
 10
34.25
 20
0
 11
34.2778
 21
0.42421
  0
LINE
  8
0
 10
34.2778
 20
0.42421
 11
34.3607
 21
0.841156
  0
LINE
  8
0
 10
34.3607
 20
0.841156
 11
34.4974
 21
1.24371
  0
LINE
  8
0
 10
34.4974
 20
1.24371
 11
34.6854
 21
1.625
  0
LINE
  8
0
 10
34.6854
 20
1.625
 11
34.9216
 21
1.97847
  0
LINE
  8
0
 10
34.9216
 20
1.97847
 11
35.2019
 21
2.2981
  0
LINE
  8
0
 10
35.2019
 20
2.2981
 11
35.5215
 21
2.57838
  0
LINE
  8
0
 10
35.5215
 20
2.57838
 11
35.875
 21
2.81458
  0
LINE
  8
0
 10
35.875
 20
2.81458
 11
36.2563
 21
3.00259
  0
LINE
  8
0
 10
36.2563
 20
3.00259
 11
36.6588
 21
3.13925
  0
LINE
  8
0
 10
36.6588
 20
3.13925
 11
37.0758
 21
3.22218
  0
LINE
  8
0
 10
37.0758
 20
3.22218
 11
37.5
 21
3.25
  0
LINE
  8
0
 10
37.5
 20
3.25
 11
37.9242
 21
3.22218
  0
LINE
  8
0
 10
37.9242
 20
3.22218
 11
38.3412
 21
3.13925
  0
LINE
  8
0
 10
38.3412
 20
3.13925
 11
38.7437
 21
3.00259
  0
LINE
  8
0
 10
38.7437
 20
3.00259
 11
39.125
 21
2.81458
  0
LINE
  8
0
 10
39.125
 20
2.81458
 11
39.4785
 21
2.57838
  0
LINE
  8
0
 10
39.4785
 20
2.57838
 11
39.7981
 21
2.2981
  0
LINE
  8
0
 10
39.7981
 20
2.2981
 11
40.0784
 21
1.97847
  0
LINE
  8
0
 10
40.0784
 20
1.97847
 11
40.3146
 21
1.625
  0
LINE
  8
0
 10
40.3146
 20
1.625
 11
40.5026
 21
1.24371
  0
LINE
  8
0
 10
40.5026
 20
1.24371
 11
40.6393
 21
0.841156
  0
LINE
  8
0
 10
40.6393
 20
0.841156
 11
40.7222
 21
0.42421
  0
LINE
  8
0
 10
40.7222
 20
0.42421
 11
40.75
 21
0
  0
LINE
  8
0
 10
40.75
 20
0
 11
40.7222
 21
-0.42421
  0
LINE
  8
0
 10
40.7222
 20
-0.42421
 11
40.6393
 21
-0.841156
  0
LINE
  8
0
 10
40.6393
 20
-0.841156
 11
40.5026
 21
-1.24371
  0
LINE
  8
0
 10
40.5026
 20
-1.24371
 11
40.3146
 21
-1.625
  0
LINE
  8
0
 10
40.3146
 20
-1.625
 11
40.0784
 21
-1.97847
  0
LINE
  8
0
 10
40.0784
 20
-1.97847
 11
39.7981
 21
-2.2981
  0
LINE
  8
0
 10
39.7981
 20
-2.2981
 11
39.4785
 21
-2.57838
  0
LINE
  8
0
 10
39.4785
 20
-2.57838
 11
39.125
 21
-2.81458
  0
LINE
  8
0
 10
39.125
 20
-2.81458
 11
38.7437
 21
-3.00259
  0
LINE
  8
0
 10
38.7437
 20
-3.00259
 11
38.3412
 21
-3.13925
  0
LINE
  8
0
 10
38.3412
 20
-3.13925
 11
37.9242
 21
-3.22218
  0
LINE
  8
0
 10
37.9242
 20
-3.22218
 11
37.5
 21
-3.25
  0
LINE
  8
0
 10
37.5
 20
-3.25
 11
37.0758
 21
-3.22218
  0
LINE
  8
0
 10
-22.9242
 20
-3.22218
 11
-23.3412
 21
-3.13925
  0
LINE
  8
0
 10
-23.3412
 20
-3.13925
 11
-23.7437
 21
-3.00259
  0
LINE
  8
0
 10
-23.7437
 20
-3.00259
 11
-24.125
 21
-2.81458
  0
LINE
  8
0
 10
-24.125
 20
-2.81458
 11
-24.4785
 21
-2.57838
  0
LINE
  8
0
 10
-24.4785
 20
-2.57838
 11
-24.7981
 21
-2.2981
  0
LINE
  8
0
 10
-24.7981
 20
-2.2981
 11
-25.0784
 21
-1.97847
  0
LINE
  8
0
 10
-25.0784
 20
-1.97847
 11
-25.3146
 21
-1.625
  0
LINE
  8
0
 10
-25.3146
 20
-1.625
 11
-25.5026
 21
-1.24371
  0
LINE
  8
0
 10
-25.5026
 20
-1.24371
 11
-25.6393
 21
-0.841156
  0
LINE
  8
0
 10
-25.6393
 20
-0.841156
 11
-25.7222
 21
-0.42421
  0
LINE
  8
0
 10
-25.7222
 20
-0.42421
 11
-25.75
 21
0
  0
LINE
  8
0
 10
-25.75
 20
0
 11
-25.7222
 21
0.42421
  0
LINE
  8
0
 10
-25.7222
 20
0.42421
 11
-25.6393
 21
0.841156
  0
LINE
  8
0
 10
-25.6393
 20
0.841156
 11
-25.5026
 21
1.24371
  0
LINE
  8
0
 10
-25.5026
 20
1.24371
 11
-25.3146
 21
1.625
  0
LINE
  8
0
 10
-25.3146
 20
1.625
 11
-25.0784
 21
1.97847
  0
LINE
  8
0
 10
-25.0784
 20
1.97847
 11
-24.7981
 21
2.2981
  0
LINE
  8
0
 10
-24.7981
 20
2.2981
 11
-24.4785
 21
2.57838
  0
LINE
  8
0
 10
-24.4785
 20
2.57838
 11
-24.125
 21
2.81458
  0
LINE
  8
0
 10
-24.125
 20
2.81458
 11
-23.7437
 21
3.00259
  0
LINE
  8
0
 10
-23.7437
 20
3.00259
 11
-23.3412
 21
3.13925
  0
LINE
  8
0
 10
-23.3412
 20
3.13925
 11
-22.9242
 21
3.22218
  0
LINE
  8
0
 10
-22.9242
 20
3.22218
 11
-22.5
 21
3.25
  0
LINE
  8
0
 10
-22.5
 20
3.25
 11
-22.0758
 21
3.22218
  0
LINE
  8
0
 10
-22.0758
 20
3.22218
 11
-21.6588
 21
3.13925
  0
LINE
  8
0
 10
-21.6588
 20
3.13925
 11
-21.2563
 21
3.00259
  0
LINE
  8
0
 10
-21.2563
 20
3.00259
 11
-20.875
 21
2.81458
  0
LINE
  8
0
 10
-20.875
 20
2.81458
 11
-20.5215
 21
2.57838
  0
LINE
  8
0
 10
-20.5215
 20
2.57838
 11
-20.2019
 21
2.2981
  0
LINE
  8
0
 10
-20.2019
 20
2.2981
 11
-19.9216
 21
1.97847
  0
LINE
  8
0
 10
-19.9216
 20
1.97847
 11
-19.6854
 21
1.625
  0
LINE
  8
0
 10
-19.6854
 20
1.625
 11
-19.4974
 21
1.24371
  0
LINE
  8
0
 10
-19.4974
 20
1.24371
 11
-19.3607
 21
0.841156
  0
LINE
  8
0
 10
-19.3607
 20
0.841156
 11
-19.2778
 21
0.42421
  0
LINE
  8
0
 10
-19.2778
 20
0.42421
 11
-19.25
 21
0
  0
LINE
  8
0
 10
-19.25
 20
0
 11
-19.2778
 21
-0.42421
  0
LINE
  8
0
 10
-19.2778
 20
-0.42421
 11
-19.3607
 21
-0.841156
  0
LINE
  8
0
 10
-19.3607
 20
-0.841156
 11
-19.4974
 21
-1.24371
  0
LINE
  8
0
 10
-19.4974
 20
-1.24371
 11
-19.6854
 21
-1.625
  0
LINE
  8
0
 10
-19.6854
 20
-1.625
 11
-19.9216
 21
-1.97847
  0
LINE
  8
0
 10
-19.9216
 20
-1.97847
 11
-20.2019
 21
-2.2981
  0
LINE
  8
0
 10
-20.2019
 20
-2.2981
 11
-20.5215
 21
-2.57838
  0
LINE
  8
0
 10
-20.5215
 20
-2.57838
 11
-20.875
 21
-2.81458
  0
LINE
  8
0
 10
-20.875
 20
-2.81458
 11
-21.2563
 21
-3.00259
  0
LINE
  8
0
 10
-21.2563
 20
-3.00259
 11
-21.6588
 21
-3.13925
  0
LINE
  8
0
 10
-21.6588
 20
-3.13925
 11
-22.0758
 21
-3.22218
  0
LINE
  8
0
 10
-22.0758
 20
-3.22218
 11
-22.5
 21
-3.25
  0
LINE
  8
0
 10
-22.5
 20
-3.25
 11
-22.9242
 21
-3.22218
  0
LINE
  8
0
 10
-37.9242
 20
-3.22218
 11
-38.3412
 21
-3.13925
  0
LINE
  8
0
 10
-38.3412
 20
-3.13925
 11
-38.7437
 21
-3.00259
  0
LINE
  8
0
 10
-38.7437
 20
-3.00259
 11
-39.125
 21
-2.81458
  0
LINE
  8
0
 10
-39.125
 20
-2.81458
 11
-39.4785
 21
-2.57838
  0
LINE
  8
0
 10
-39.4785
 20
-2.57838
 11
-39.7981
 21
-2.2981
  0
LINE
  8
0
 10
-39.7981
 20
-2.2981
 11
-40.0784
 21
-1.97847
  0
LINE
  8
0
 10
-40.0784
 20
-1.97847
 11
-40.3146
 21
-1.625
  0
LINE
  8
0
 10
-40.3146
 20
-1.625
 11
-40.5026
 21
-1.24371
  0
LINE
  8
0
 10
-40.5026
 20
-1.24371
 11
-40.6393
 21
-0.841156
  0
LINE
  8
0
 10
-40.6393
 20
-0.841156
 11
-40.7222
 21
-0.42421
  0
LINE
  8
0
 10
-40.7222
 20
-0.42421
 11
-40.75
 21
0
  0
LINE
  8
0
 10
-40.75
 20
0
 11
-40.7222
 21
0.42421
  0
LINE
  8
0
 10
-40.7222
 20
0.42421
 11
-40.6393
 21
0.841156
  0
LINE
  8
0
 10
-40.6393
 20
0.841156
 11
-40.5026
 21
1.24371
  0
LINE
  8
0
 10
-40.5026
 20
1.24371
 11
-40.3146
 21
1.625
  0
LINE
  8
0
 10
-40.3146
 20
1.625
 11
-40.0784
 21
1.97847
  0
LINE
  8
0
 10
-40.0784
 20
1.97847
 11
-39.7981
 21
2.2981
  0
LINE
  8
0
 10
-39.7981
 20
2.2981
 11
-39.4785
 21
2.57838
  0
LINE
  8
0
 10
-39.4785
 20
2.57838
 11
-39.125
 21
2.81458
  0
LINE
  8
0
 10
-39.125
 20
2.81458
 11
-38.7437
 21
3.00259
  0
LINE
  8
0
 10
-38.7437
 20
3.00259
 11
-38.3412
 21
3.13925
  0
LINE
  8
0
 10
-38.3412
 20
3.13925
 11
-37.9242
 21
3.22218
  0
LINE
  8
0
 10
-37.9242
 20
3.22218
 11
-37.5
 21
3.25
  0
LINE
  8
0
 10
-37.5
 20
3.25
 11
-37.0758
 21
3.22218
  0
LINE
  8
0
 10
-37.0758
 20
3.22218
 11
-36.6588
 21
3.13925
  0
LINE
  8
0
 10
-36.6588
 20
3.13925
 11
-36.2563
 21
3.00259
  0
LINE
  8
0
 10
-36.2563
 20
3.00259
 11
-35.875
 21
2.81458
  0
LINE
  8
0
 10
-35.875
 20
2.81458
 11
-35.5215
 21
2.57838
  0
LINE
  8
0
 10
-35.5215
 20
2.57838
 11
-35.2019
 21
2.2981
  0
LINE
  8
0
 10
-35.2019
 20
2.2981
 11
-34.9216
 21
1.97847
  0
LINE
  8
0
 10
-34.9216
 20
1.97847
 11
-34.6854
 21
1.625
  0
LINE
  8
0
 10
-34.6854
 20
1.625
 11
-34.4974
 21
1.24371
  0
LINE
  8
0
 10
-34.4974
 20
1.24371
 11
-34.3607
 21
0.841156
  0
LINE
  8
0
 10
-34.3607
 20
0.841156
 11
-34.2778
 21
0.42421
  0
LINE
  8
0
 10
-34.2778
 20
0.42421
 11
-34.25
 21
0
  0
LINE
  8
0
 10
-34.25
 20
0
 11
-34.2778
 21
-0.42421
  0
LINE
  8
0
 10
-34.2778
 20
-0.42421
 11
-34.3607
 21
-0.841156
  0
LINE
  8
0
 10
-34.3607
 20
-0.841156
 11
-34.4974
 21
-1.24371
  0
LINE
  8
0
 10
-34.4974
 20
-1.24371
 11
-34.6854
 21
-1.625
  0
LINE
  8
0
 10
-34.6854
 20
-1.625
 11
-34.9216
 21
-1.97847
  0
LINE
  8
0
 10
-34.9216
 20
-1.97847
 11
-35.2019
 21
-2.2981
  0
LINE
  8
0
 10
-35.2019
 20
-2.2981
 11
-35.5215
 21
-2.57838
  0
LINE
  8
0
 10
-35.5215
 20
-2.57838
 11
-35.875
 21
-2.81458
  0
LINE
  8
0
 10
-35.875
 20
-2.81458
 11
-36.2563
 21
-3.00259
  0
LINE
  8
0
 10
-36.2563
 20
-3.00259
 11
-36.6588
 21
-3.13925
  0
LINE
  8
0
 10
-36.6588
 20
-3.13925
 11
-37.0758
 21
-3.22218
  0
LINE
  8
0
 10
-37.0758
 20
-3.22218
 11
-37.5
 21
-3.25
  0
LINE
  8
0
 10
-37.5
 20
-3.25
 11
-37.9242
 21
-3.22218
  0
LINE
  8
0
 10
52.0758
 20
-3.22218
 11
51.6588
 21
-3.13925
  0
LINE
  8
0
 10
51.6588
 20
-3.13925
 11
51.2563
 21
-3.00259
  0
LINE
  8
0
 10
51.2563
 20
-3.00259
 11
50.875
 21
-2.81458
  0
LINE
  8
0
 10
50.875
 20
-2.81458
 11
50.5215
 21
-2.57838
  0
LINE
  8
0
 10
50.5215
 20
-2.57838
 11
50.2019
 21
-2.2981
  0
LINE
  8
0
 10
50.2019
 20
-2.2981
 11
49.9216
 21
-1.97847
  0
LINE
  8
0
 10
49.9216
 20
-1.97847
 11
49.6854
 21
-1.625
  0
LINE
  8
0
 10
49.6854
 20
-1.625
 11
49.4974
 21
-1.24371
  0
LINE
  8
0
 10
49.4974
 20
-1.24371
 11
49.3607
 21
-0.841156
  0
LINE
  8
0
 10
49.3607
 20
-0.841156
 11
49.2778
 21
-0.42421
  0
LINE
  8
0
 10
49.2778
 20
-0.42421
 11
49.25
 21
0
  0
LINE
  8
0
 10
49.25
 20
0
 11
49.2778
 21
0.42421
  0
LINE
  8
0
 10
49.2778
 20
0.42421
 11
49.3607
 21
0.841156
  0
LINE
  8
0
 10
49.3607
 20
0.841156
 11
49.4974
 21
1.24371
  0
LINE
  8
0
 10
49.4974
 20
1.24371
 11
49.6854
 21
1.625
  0
LINE
  8
0
 10
49.6854
 20
1.625
 11
49.9216
 21
1.97847
  0
LINE
  8
0
 10
49.9216
 20
1.97847
 11
50.2019
 21
2.2981
  0
LINE
  8
0
 10
50.2019
 20
2.2981
 11
50.5215
 21
2.57838
  0
LINE
  8
0
 10
50.5215
 20
2.57838
 11
50.875
 21
2.81458
  0
LINE
  8
0
 10
50.875
 20
2.81458
 11
51.2563
 21
3.00259
  0
LINE
  8
0
 10
51.2563
 20
3.00259
 11
51.6588
 21
3.13925
  0
LINE
  8
0
 10
51.6588
 20
3.13925
 11
52.0758
 21
3.22218
  0
LINE
  8
0
 10
52.0758
 20
3.22218
 11
52.5
 21
3.25
  0
LINE
  8
0
 10
52.5
 20
3.25
 11
52.9242
 21
3.22218
  0
LINE
  8
0
 10
52.9242
 20
3.22218
 11
53.3412
 21
3.13925
  0
LINE
  8
0
 10
53.3412
 20
3.13925
 11
53.7437
 21
3.00259
  0
LINE
  8
0
 10
53.7437
 20
3.00259
 11
54.125
 21
2.81458
  0
LINE
  8
0
 10
54.125
 20
2.81458
 11
54.4785
 21
2.57838
  0
LINE
  8
0
 10
54.4785
 20
2.57838
 11
54.7981
 21
2.2981
  0
LINE
  8
0
 10
54.7981
 20
2.2981
 11
55.0784
 21
1.97847
  0
LINE
  8
0
 10
55.0784
 20
1.97847
 11
55.3146
 21
1.625
  0
LINE
  8
0
 10
55.3146
 20
1.625
 11
55.5026
 21
1.24371
  0
LINE
  8
0
 10
55.5026
 20
1.24371
 11
55.6393
 21
0.841156
  0
LINE
  8
0
 10
55.6393
 20
0.841156
 11
55.7222
 21
0.42421
  0
LINE
  8
0
 10
55.7222
 20
0.42421
 11
55.75
 21
0
  0
LINE
  8
0
 10
55.75
 20
0
 11
55.7222
 21
-0.42421
  0
LINE
  8
0
 10
55.7222
 20
-0.42421
 11
55.6393
 21
-0.841156
  0
LINE
  8
0
 10
55.6393
 20
-0.841156
 11
55.5026
 21
-1.24371
  0
LINE
  8
0
 10
55.5026
 20
-1.24371
 11
55.3146
 21
-1.625
  0
LINE
  8
0
 10
55.3146
 20
-1.625
 11
55.0784
 21
-1.97847
  0
LINE
  8
0
 10
55.0784
 20
-1.97847
 11
54.7981
 21
-2.2981
  0
LINE
  8
0
 10
54.7981
 20
-2.2981
 11
54.4785
 21
-2.57838
  0
LINE
  8
0
 10
54.4785
 20
-2.57838
 11
54.125
 21
-2.81458
  0
LINE
  8
0
 10
54.125
 20
-2.81458
 11
53.7437
 21
-3.00259
  0
LINE
  8
0
 10
53.7437
 20
-3.00259
 11
53.3412
 21
-3.13925
  0
LINE
  8
0
 10
53.3412
 20
-3.13925
 11
52.9242
 21
-3.22218
  0
LINE
  8
0
 10
52.9242
 20
-3.22218
 11
52.5
 21
-3.25
  0
LINE
  8
0
 10
52.5
 20
-3.25
 11
52.0758
 21
-3.22218
  0
LINE
  8
0
 10
22.0758
 20
-3.22218
 11
21.6588
 21
-3.13925
  0
LINE
  8
0
 10
21.6588
 20
-3.13925
 11
21.2563
 21
-3.00259
  0
LINE
  8
0
 10
21.2563
 20
-3.00259
 11
20.875
 21
-2.81458
  0
LINE
  8
0
 10
20.875
 20
-2.81458
 11
20.5215
 21
-2.57838
  0
LINE
  8
0
 10
20.5215
 20
-2.57838
 11
20.2019
 21
-2.2981
  0
LINE
  8
0
 10
20.2019
 20
-2.2981
 11
19.9216
 21
-1.97847
  0
LINE
  8
0
 10
19.9216
 20
-1.97847
 11
19.6854
 21
-1.625
  0
LINE
  8
0
 10
19.6854
 20
-1.625
 11
19.4974
 21
-1.24371
  0
LINE
  8
0
 10
19.4974
 20
-1.24371
 11
19.3607
 21
-0.841156
  0
LINE
  8
0
 10
19.3607
 20
-0.841156
 11
19.2778
 21
-0.42421
  0
LINE
  8
0
 10
19.2778
 20
-0.42421
 11
19.25
 21
0
  0
LINE
  8
0
 10
19.25
 20
0
 11
19.2778
 21
0.42421
  0
LINE
  8
0
 10
19.2778
 20
0.42421
 11
19.3607
 21
0.841156
  0
LINE
  8
0
 10
19.3607
 20
0.841156
 11
19.4974
 21
1.24371
  0
LINE
  8
0
 10
19.4974
 20
1.24371
 11
19.6854
 21
1.625
  0
LINE
  8
0
 10
19.6854
 20
1.625
 11
19.9216
 21
1.97847
  0
LINE
  8
0
 10
19.9216
 20
1.97847
 11
20.2019
 21
2.2981
  0
LINE
  8
0
 10
20.2019
 20
2.2981
 11
20.5215
 21
2.57838
  0
LINE
  8
0
 10
20.5215
 20
2.57838
 11
20.875
 21
2.81458
  0
LINE
  8
0
 10
20.875
 20
2.81458
 11
21.2563
 21
3.00259
  0
LINE
  8
0
 10
21.2563
 20
3.00259
 11
21.6588
 21
3.13925
  0
LINE
  8
0
 10
21.6588
 20
3.13925
 11
22.0758
 21
3.22218
  0
LINE
  8
0
 10
22.0758
 20
3.22218
 11
22.5
 21
3.25
  0
LINE
  8
0
 10
22.5
 20
3.25
 11
22.9242
 21
3.22218
  0
LINE
  8
0
 10
22.9242
 20
3.22218
 11
23.3412
 21
3.13925
  0
LINE
  8
0
 10
23.3412
 20
3.13925
 11
23.7437
 21
3.00259
  0
LINE
  8
0
 10
23.7437
 20
3.00259
 11
24.125
 21
2.81458
  0
LINE
  8
0
 10
24.125
 20
2.81458
 11
24.4785
 21
2.57838
  0
LINE
  8
0
 10
24.4785
 20
2.57838
 11
24.7981
 21
2.2981
  0
LINE
  8
0
 10
24.7981
 20
2.2981
 11
25.0784
 21
1.97847
  0
LINE
  8
0
 10
25.0784
 20
1.97847
 11
25.3146
 21
1.625
  0
LINE
  8
0
 10
25.3146
 20
1.625
 11
25.5026
 21
1.24371
  0
LINE
  8
0
 10
25.5026
 20
1.24371
 11
25.6393
 21
0.841156
  0
LINE
  8
0
 10
25.6393
 20
0.841156
 11
25.7222
 21
0.42421
  0
LINE
  8
0
 10
25.7222
 20
0.42421
 11
25.75
 21
0
  0
LINE
  8
0
 10
25.75
 20
0
 11
25.7222
 21
-0.42421
  0
LINE
  8
0
 10
25.7222
 20
-0.42421
 11
25.6393
 21
-0.841156
  0
LINE
  8
0
 10
25.6393
 20
-0.841156
 11
25.5026
 21
-1.24371
  0
LINE
  8
0
 10
25.5026
 20
-1.24371
 11
25.3146
 21
-1.625
  0
LINE
  8
0
 10
25.3146
 20
-1.625
 11
25.0784
 21
-1.97847
  0
LINE
  8
0
 10
25.0784
 20
-1.97847
 11
24.7981
 21
-2.2981
  0
LINE
  8
0
 10
24.7981
 20
-2.2981
 11
24.4785
 21
-2.57838
  0
LINE
  8
0
 10
24.4785
 20
-2.57838
 11
24.125
 21
-2.81458
  0
LINE
  8
0
 10
24.125
 20
-2.81458
 11
23.7437
 21
-3.00259
  0
LINE
  8
0
 10
23.7437
 20
-3.00259
 11
23.3412
 21
-3.13925
  0
LINE
  8
0
 10
23.3412
 20
-3.13925
 11
22.9242
 21
-3.22218
  0
LINE
  8
0
 10
22.9242
 20
-3.22218
 11
22.5
 21
-3.25
  0
LINE
  8
0
 10
22.5
 20
-3.25
 11
22.0758
 21
-3.22218
  0
LINE
  8
0
 10
-52.9242
 20
-18.2222
 11
-53.3412
 21
-18.1393
  0
LINE
  8
0
 10
-53.3412
 20
-18.1393
 11
-53.7437
 21
-18.0026
  0
LINE
  8
0
 10
-53.7437
 20
-18.0026
 11
-54.125
 21
-17.8146
  0
LINE
  8
0
 10
-54.125
 20
-17.8146
 11
-54.4785
 21
-17.5784
  0
LINE
  8
0
 10
-54.4785
 20
-17.5784
 11
-54.7981
 21
-17.2981
  0
LINE
  8
0
 10
-54.7981
 20
-17.2981
 11
-55.0784
 21
-16.9785
  0
LINE
  8
0
 10
-55.0784
 20
-16.9785
 11
-55.3146
 21
-16.625
  0
LINE
  8
0
 10
-55.3146
 20
-16.625
 11
-55.5026
 21
-16.2437
  0
LINE
  8
0
 10
-55.5026
 20
-16.2437
 11
-55.6393
 21
-15.8412
  0
LINE
  8
0
 10
-55.6393
 20
-15.8412
 11
-55.7222
 21
-15.4242
  0
LINE
  8
0
 10
-55.7222
 20
-15.4242
 11
-55.75
 21
-15
  0
LINE
  8
0
 10
-55.75
 20
-15
 11
-55.7222
 21
-14.5758
  0
LINE
  8
0
 10
-55.7222
 20
-14.5758
 11
-55.6393
 21
-14.1588
  0
LINE
  8
0
 10
-55.6393
 20
-14.1588
 11
-55.5026
 21
-13.7563
  0
LINE
  8
0
 10
-55.5026
 20
-13.7563
 11
-55.3146
 21
-13.375
  0
LINE
  8
0
 10
-55.3146
 20
-13.375
 11
-55.0784
 21
-13.0215
  0
LINE
  8
0
 10
-55.0784
 20
-13.0215
 11
-54.7981
 21
-12.7019
  0
LINE
  8
0
 10
-54.7981
 20
-12.7019
 11
-54.4785
 21
-12.4216
  0
LINE
  8
0
 10
-54.4785
 20
-12.4216
 11
-54.125
 21
-12.1854
  0
LINE
  8
0
 10
-54.125
 20
-12.1854
 11
-53.7437
 21
-11.9974
  0
LINE
  8
0
 10
-53.7437
 20
-11.9974
 11
-53.3412
 21
-11.8607
  0
LINE
  8
0
 10
-53.3412
 20
-11.8607
 11
-52.9242
 21
-11.7778
  0
LINE
  8
0
 10
-52.9242
 20
-11.7778
 11
-52.5
 21
-11.75
  0
LINE
  8
0
 10
-52.5
 20
-11.75
 11
-52.0758
 21
-11.7778
  0
LINE
  8
0
 10
-52.0758
 20
-11.7778
 11
-51.6588
 21
-11.8607
  0
LINE
  8
0
 10
-51.6588
 20
-11.8607
 11
-51.2563
 21
-11.9974
  0
LINE
  8
0
 10
-51.2563
 20
-11.9974
 11
-50.875
 21
-12.1854
  0
LINE
  8
0
 10
-50.875
 20
-12.1854
 11
-50.5215
 21
-12.4216
  0
LINE
  8
0
 10
-50.5215
 20
-12.4216
 11
-50.2019
 21
-12.7019
  0
LINE
  8
0
 10
-50.2019
 20
-12.7019
 11
-49.9216
 21
-13.0215
  0
LINE
  8
0
 10
-49.9216
 20
-13.0215
 11
-49.6854
 21
-13.375
  0
LINE
  8
0
 10
-49.6854
 20
-13.375
 11
-49.4974
 21
-13.7563
  0
LINE
  8
0
 10
-49.4974
 20
-13.7563
 11
-49.3607
 21
-14.1588
  0
LINE
  8
0
 10
-49.3607
 20
-14.1588
 11
-49.2778
 21
-14.5758
  0
LINE
  8
0
 10
-49.2778
 20
-14.5758
 11
-49.25
 21
-15
  0
LINE
  8
0
 10
-49.25
 20
-15
 11
-49.2778
 21
-15.4242
  0
LINE
  8
0
 10
-49.2778
 20
-15.4242
 11
-49.3607
 21
-15.8412
  0
LINE
  8
0
 10
-49.3607
 20
-15.8412
 11
-49.4974
 21
-16.2437
  0
LINE
  8
0
 10
-49.4974
 20
-16.2437
 11
-49.6854
 21
-16.625
  0
LINE
  8
0
 10
-49.6854
 20
-16.625
 11
-49.9216
 21
-16.9785
  0
LINE
  8
0
 10
-49.9216
 20
-16.9785
 11
-50.2019
 21
-17.2981
  0
LINE
  8
0
 10
-50.2019
 20
-17.2981
 11
-50.5215
 21
-17.5784
  0
LINE
  8
0
 10
-50.5215
 20
-17.5784
 11
-50.875
 21
-17.8146
  0
LINE
  8
0
 10
-50.875
 20
-17.8146
 11
-51.2563
 21
-18.0026
  0
LINE
  8
0
 10
-51.2563
 20
-18.0026
 11
-51.6588
 21
-18.1393
  0
LINE
  8
0
 10
-51.6588
 20
-18.1393
 11
-52.0758
 21
-18.2222
  0
LINE
  8
0
 10
-52.0758
 20
-18.2222
 11
-52.5
 21
-18.25
  0
LINE
  8
0
 10
-52.5
 20
-18.25
 11
-52.9242
 21
-18.2222
  0
LINE
  8
0
 10
-37.9242
 20
-18.2222
 11
-38.3412
 21
-18.1393
  0
LINE
  8
0
 10
-38.3412
 20
-18.1393
 11
-38.7437
 21
-18.0026
  0
LINE
  8
0
 10
-38.7437
 20
-18.0026
 11
-39.125
 21
-17.8146
  0
LINE
  8
0
 10
-39.125
 20
-17.8146
 11
-39.4785
 21
-17.5784
  0
LINE
  8
0
 10
-39.4785
 20
-17.5784
 11
-39.7981
 21
-17.2981
  0
LINE
  8
0
 10
-39.7981
 20
-17.2981
 11
-40.0784
 21
-16.9785
  0
LINE
  8
0
 10
-40.0784
 20
-16.9785
 11
-40.3146
 21
-16.625
  0
LINE
  8
0
 10
-40.3146
 20
-16.625
 11
-40.5026
 21
-16.2437
  0
LINE
  8
0
 10
-40.5026
 20
-16.2437
 11
-40.6393
 21
-15.8412
  0
LINE
  8
0
 10
-40.6393
 20
-15.8412
 11
-40.7222
 21
-15.4242
  0
LINE
  8
0
 10
-40.7222
 20
-15.4242
 11
-40.75
 21
-15
  0
LINE
  8
0
 10
-40.75
 20
-15
 11
-40.7222
 21
-14.5758
  0
LINE
  8
0
 10
-40.7222
 20
-14.5758
 11
-40.6393
 21
-14.1588
  0
LINE
  8
0
 10
-40.6393
 20
-14.1588
 11
-40.5026
 21
-13.7563
  0
LINE
  8
0
 10
-40.5026
 20
-13.7563
 11
-40.3146
 21
-13.375
  0
LINE
  8
0
 10
-40.3146
 20
-13.375
 11
-40.0784
 21
-13.0215
  0
LINE
  8
0
 10
-40.0784
 20
-13.0215
 11
-39.7981
 21
-12.7019
  0
LINE
  8
0
 10
-39.7981
 20
-12.7019
 11
-39.4785
 21
-12.4216
  0
LINE
  8
0
 10
-39.4785
 20
-12.4216
 11
-39.125
 21
-12.1854
  0
LINE
  8
0
 10
-39.125
 20
-12.1854
 11
-38.7437
 21
-11.9974
  0
LINE
  8
0
 10
-38.7437
 20
-11.9974
 11
-38.3412
 21
-11.8607
  0
LINE
  8
0
 10
-38.3412
 20
-11.8607
 11
-37.9242
 21
-11.7778
  0
LINE
  8
0
 10
-37.9242
 20
-11.7778
 11
-37.5
 21
-11.75
  0
LINE
  8
0
 10
-37.5
 20
-11.75
 11
-37.0758
 21
-11.7778
  0
LINE
  8
0
 10
-37.0758
 20
-11.7778
 11
-36.6588
 21
-11.8607
  0
LINE
  8
0
 10
-36.6588
 20
-11.8607
 11
-36.2563
 21
-11.9974
  0
LINE
  8
0
 10
-36.2563
 20
-11.9974
 11
-35.875
 21
-12.1854
  0
LINE
  8
0
 10
-35.875
 20
-12.1854
 11
-35.5215
 21
-12.4216
  0
LINE
  8
0
 10
-35.5215
 20
-12.4216
 11
-35.2019
 21
-12.7019
  0
LINE
  8
0
 10
-35.2019
 20
-12.7019
 11
-34.9216
 21
-13.0215
  0
LINE
  8
0
 10
-34.9216
 20
-13.0215
 11
-34.6854
 21
-13.375
  0
LINE
  8
0
 10
-34.6854
 20
-13.375
 11
-34.4974
 21
-13.7563
  0
LINE
  8
0
 10
-34.4974
 20
-13.7563
 11
-34.3607
 21
-14.1588
  0
LINE
  8
0
 10
-34.3607
 20
-14.1588
 11
-34.2778
 21
-14.5758
  0
LINE
  8
0
 10
-34.2778
 20
-14.5758
 11
-34.25
 21
-15
  0
LINE
  8
0
 10
-34.25
 20
-15
 11
-34.2778
 21
-15.4242
  0
LINE
  8
0
 10
-34.2778
 20
-15.4242
 11
-34.3607
 21
-15.8412
  0
LINE
  8
0
 10
-34.3607
 20
-15.8412
 11
-34.4974
 21
-16.2437
  0
LINE
  8
0
 10
-34.4974
 20
-16.2437
 11
-34.6854
 21
-16.625
  0
LINE
  8
0
 10
-34.6854
 20
-16.625
 11
-34.9216
 21
-16.9785
  0
LINE
  8
0
 10
-34.9216
 20
-16.9785
 11
-35.2019
 21
-17.2981
  0
LINE
  8
0
 10
-35.2019
 20
-17.2981
 11
-35.5215
 21
-17.5784
  0
LINE
  8
0
 10
-35.5215
 20
-17.5784
 11
-35.875
 21
-17.8146
  0
LINE
  8
0
 10
-35.875
 20
-17.8146
 11
-36.2563
 21
-18.0026
  0
LINE
  8
0
 10
-36.2563
 20
-18.0026
 11
-36.6588
 21
-18.1393
  0
LINE
  8
0
 10
-36.6588
 20
-18.1393
 11
-37.0758
 21
-18.2222
  0
LINE
  8
0
 10
-37.0758
 20
-18.2222
 11
-37.5
 21
-18.25
  0
LINE
  8
0
 10
-37.5
 20
-18.25
 11
-37.9242
 21
-18.2222
  0
LINE
  8
0
 10
37.0758
 20
-18.2222
 11
36.6588
 21
-18.1393
  0
LINE
  8
0
 10
36.6588
 20
-18.1393
 11
36.2563
 21
-18.0026
  0
LINE
  8
0
 10
36.2563
 20
-18.0026
 11
35.875
 21
-17.8146
  0
LINE
  8
0
 10
35.875
 20
-17.8146
 11
35.5215
 21
-17.5784
  0
LINE
  8
0
 10
35.5215
 20
-17.5784
 11
35.2019
 21
-17.2981
  0
LINE
  8
0
 10
35.2019
 20
-17.2981
 11
34.9216
 21
-16.9785
  0
LINE
  8
0
 10
34.9216
 20
-16.9785
 11
34.6854
 21
-16.625
  0
LINE
  8
0
 10
34.6854
 20
-16.625
 11
34.4974
 21
-16.2437
  0
LINE
  8
0
 10
34.4974
 20
-16.2437
 11
34.3607
 21
-15.8412
  0
LINE
  8
0
 10
34.3607
 20
-15.8412
 11
34.2778
 21
-15.4242
  0
LINE
  8
0
 10
34.2778
 20
-15.4242
 11
34.25
 21
-15
  0
LINE
  8
0
 10
34.25
 20
-15
 11
34.2778
 21
-14.5758
  0
LINE
  8
0
 10
34.2778
 20
-14.5758
 11
34.3607
 21
-14.1588
  0
LINE
  8
0
 10
34.3607
 20
-14.1588
 11
34.4974
 21
-13.7563
  0
LINE
  8
0
 10
34.4974
 20
-13.7563
 11
34.6854
 21
-13.375
  0
LINE
  8
0
 10
34.6854
 20
-13.375
 11
34.9216
 21
-13.0215
  0
LINE
  8
0
 10
34.9216
 20
-13.0215
 11
35.2019
 21
-12.7019
  0
LINE
  8
0
 10
35.2019
 20
-12.7019
 11
35.5215
 21
-12.4216
  0
LINE
  8
0
 10
35.5215
 20
-12.4216
 11
35.875
 21
-12.1854
  0
LINE
  8
0
 10
35.875
 20
-12.1854
 11
36.2563
 21
-11.9974
  0
LINE
  8
0
 10
36.2563
 20
-11.9974
 11
36.6588
 21
-11.8607
  0
LINE
  8
0
 10
36.6588
 20
-11.8607
 11
37.0758
 21
-11.7778
  0
LINE
  8
0
 10
37.0758
 20
-11.7778
 11
37.5
 21
-11.75
  0
LINE
  8
0
 10
37.5
 20
-11.75
 11
37.9242
 21
-11.7778
  0
LINE
  8
0
 10
37.9242
 20
-11.7778
 11
38.3412
 21
-11.8607
  0
LINE
  8
0
 10
38.3412
 20
-11.8607
 11
38.7437
 21
-11.9974
  0
LINE
  8
0
 10
38.7437
 20
-11.9974
 11
39.125
 21
-12.1854
  0
LINE
  8
0
 10
39.125
 20
-12.1854
 11
39.4785
 21
-12.4216
  0
LINE
  8
0
 10
39.4785
 20
-12.4216
 11
39.7981
 21
-12.7019
  0
LINE
  8
0
 10
39.7981
 20
-12.7019
 11
40.0784
 21
-13.0215
  0
LINE
  8
0
 10
40.0784
 20
-13.0215
 11
40.3146
 21
-13.375
  0
LINE
  8
0
 10
40.3146
 20
-13.375
 11
40.5026
 21
-13.7563
  0
LINE
  8
0
 10
40.5026
 20
-13.7563
 11
40.6393
 21
-14.1588
  0
LINE
  8
0
 10
40.6393
 20
-14.1588
 11
40.7222
 21
-14.5758
  0
LINE
  8
0
 10
40.7222
 20
-14.5758
 11
40.75
 21
-15
  0
LINE
  8
0
 10
40.75
 20
-15
 11
40.7222
 21
-15.4242
  0
LINE
  8
0
 10
40.7222
 20
-15.4242
 11
40.6393
 21
-15.8412
  0
LINE
  8
0
 10
40.6393
 20
-15.8412
 11
40.5026
 21
-16.2437
  0
LINE
  8
0
 10
40.5026
 20
-16.2437
 11
40.3146
 21
-16.625
  0
LINE
  8
0
 10
40.3146
 20
-16.625
 11
40.0784
 21
-16.9785
  0
LINE
  8
0
 10
40.0784
 20
-16.9785
 11
39.7981
 21
-17.2981
  0
LINE
  8
0
 10
39.7981
 20
-17.2981
 11
39.4785
 21
-17.5784
  0
LINE
  8
0
 10
39.4785
 20
-17.5784
 11
39.125
 21
-17.8146
  0
LINE
  8
0
 10
39.125
 20
-17.8146
 11
38.7437
 21
-18.0026
  0
LINE
  8
0
 10
38.7437
 20
-18.0026
 11
38.3412
 21
-18.1393
  0
LINE
  8
0
 10
38.3412
 20
-18.1393
 11
37.9242
 21
-18.2222
  0
LINE
  8
0
 10
37.9242
 20
-18.2222
 11
37.5
 21
-18.25
  0
LINE
  8
0
 10
37.5
 20
-18.25
 11
37.0758
 21
-18.2222
  0
LINE
  8
0
 10
52.0758
 20
-18.2222
 11
51.6588
 21
-18.1393
  0
LINE
  8
0
 10
51.6588
 20
-18.1393
 11
51.2563
 21
-18.0026
  0
LINE
  8
0
 10
51.2563
 20
-18.0026
 11
50.875
 21
-17.8146
  0
LINE
  8
0
 10
50.875
 20
-17.8146
 11
50.5215
 21
-17.5784
  0
LINE
  8
0
 10
50.5215
 20
-17.5784
 11
50.2019
 21
-17.2981
  0
LINE
  8
0
 10
50.2019
 20
-17.2981
 11
49.9216
 21
-16.9785
  0
LINE
  8
0
 10
49.9216
 20
-16.9785
 11
49.6854
 21
-16.625
  0
LINE
  8
0
 10
49.6854
 20
-16.625
 11
49.4974
 21
-16.2437
  0
LINE
  8
0
 10
49.4974
 20
-16.2437
 11
49.3607
 21
-15.8412
  0
LINE
  8
0
 10
49.3607
 20
-15.8412
 11
49.2778
 21
-15.4242
  0
LINE
  8
0
 10
49.2778
 20
-15.4242
 11
49.25
 21
-15
  0
LINE
  8
0
 10
49.25
 20
-15
 11
49.2778
 21
-14.5758
  0
LINE
  8
0
 10
49.2778
 20
-14.5758
 11
49.3607
 21
-14.1588
  0
LINE
  8
0
 10
49.3607
 20
-14.1588
 11
49.4974
 21
-13.7563
  0
LINE
  8
0
 10
49.4974
 20
-13.7563
 11
49.6854
 21
-13.375
  0
LINE
  8
0
 10
49.6854
 20
-13.375
 11
49.9216
 21
-13.0215
  0
LINE
  8
0
 10
49.9216
 20
-13.0215
 11
50.2019
 21
-12.7019
  0
LINE
  8
0
 10
50.2019
 20
-12.7019
 11
50.5215
 21
-12.4216
  0
LINE
  8
0
 10
50.5215
 20
-12.4216
 11
50.875
 21
-12.1854
  0
LINE
  8
0
 10
50.875
 20
-12.1854
 11
51.2563
 21
-11.9974
  0
LINE
  8
0
 10
51.2563
 20
-11.9974
 11
51.6588
 21
-11.8607
  0
LINE
  8
0
 10
51.6588
 20
-11.8607
 11
52.0758
 21
-11.7778
  0
LINE
  8
0
 10
52.0758
 20
-11.7778
 11
52.5
 21
-11.75
  0
LINE
  8
0
 10
52.5
 20
-11.75
 11
52.9242
 21
-11.7778
  0
LINE
  8
0
 10
52.9242
 20
-11.7778
 11
53.3412
 21
-11.8607
  0
LINE
  8
0
 10
53.3412
 20
-11.8607
 11
53.7437
 21
-11.9974
  0
LINE
  8
0
 10
53.7437
 20
-11.9974
 11
54.125
 21
-12.1854
  0
LINE
  8
0
 10
54.125
 20
-12.1854
 11
54.4785
 21
-12.4216
  0
LINE
  8
0
 10
54.4785
 20
-12.4216
 11
54.7981
 21
-12.7019
  0
LINE
  8
0
 10
54.7981
 20
-12.7019
 11
55.0784
 21
-13.0215
  0
LINE
  8
0
 10
55.0784
 20
-13.0215
 11
55.3146
 21
-13.375
  0
LINE
  8
0
 10
55.3146
 20
-13.375
 11
55.5026
 21
-13.7563
  0
LINE
  8
0
 10
55.5026
 20
-13.7563
 11
55.6393
 21
-14.1588
  0
LINE
  8
0
 10
55.6393
 20
-14.1588
 11
55.7222
 21
-14.5758
  0
LINE
  8
0
 10
55.7222
 20
-14.5758
 11
55.75
 21
-15
  0
LINE
  8
0
 10
55.75
 20
-15
 11
55.7222
 21
-15.4242
  0
LINE
  8
0
 10
55.7222
 20
-15.4242
 11
55.6393
 21
-15.8412
  0
LINE
  8
0
 10
55.6393
 20
-15.8412
 11
55.5026
 21
-16.2437
  0
LINE
  8
0
 10
55.5026
 20
-16.2437
 11
55.3146
 21
-16.625
  0
LINE
  8
0
 10
55.3146
 20
-16.625
 11
55.0784
 21
-16.9785
  0
LINE
  8
0
 10
55.0784
 20
-16.9785
 11
54.7981
 21
-17.2981
  0
LINE
  8
0
 10
54.7981
 20
-17.2981
 11
54.4785
 21
-17.5784
  0
LINE
  8
0
 10
54.4785
 20
-17.5784
 11
54.125
 21
-17.8146
  0
LINE
  8
0
 10
54.125
 20
-17.8146
 11
53.7437
 21
-18.0026
  0
LINE
  8
0
 10
53.7437
 20
-18.0026
 11
53.3412
 21
-18.1393
  0
LINE
  8
0
 10
53.3412
 20
-18.1393
 11
52.9242
 21
-18.2222
  0
LINE
  8
0
 10
52.9242
 20
-18.2222
 11
52.5
 21
-18.25
  0
LINE
  8
0
 10
52.5
 20
-18.25
 11
52.0758
 21
-18.2222
  0
LINE
  8
0
 10
22.0758
 20
-18.2222
 11
21.6588
 21
-18.1393
  0
LINE
  8
0
 10
21.6588
 20
-18.1393
 11
21.2563
 21
-18.0026
  0
LINE
  8
0
 10
21.2563
 20
-18.0026
 11
20.875
 21
-17.8146
  0
LINE
  8
0
 10
20.875
 20
-17.8146
 11
20.5215
 21
-17.5784
  0
LINE
  8
0
 10
20.5215
 20
-17.5784
 11
20.2019
 21
-17.2981
  0
LINE
  8
0
 10
20.2019
 20
-17.2981
 11
19.9216
 21
-16.9785
  0
LINE
  8
0
 10
19.9216
 20
-16.9785
 11
19.6854
 21
-16.625
  0
LINE
  8
0
 10
19.6854
 20
-16.625
 11
19.4974
 21
-16.2437
  0
LINE
  8
0
 10
19.4974
 20
-16.2437
 11
19.3607
 21
-15.8412
  0
LINE
  8
0
 10
19.3607
 20
-15.8412
 11
19.2778
 21
-15.4242
  0
LINE
  8
0
 10
19.2778
 20
-15.4242
 11
19.25
 21
-15
  0
LINE
  8
0
 10
19.25
 20
-15
 11
19.2778
 21
-14.5758
  0
LINE
  8
0
 10
19.2778
 20
-14.5758
 11
19.3607
 21
-14.1588
  0
LINE
  8
0
 10
19.3607
 20
-14.1588
 11
19.4974
 21
-13.7563
  0
LINE
  8
0
 10
19.4974
 20
-13.7563
 11
19.6854
 21
-13.375
  0
LINE
  8
0
 10
19.6854
 20
-13.375
 11
19.9216
 21
-13.0215
  0
LINE
  8
0
 10
19.9216
 20
-13.0215
 11
20.2019
 21
-12.7019
  0
LINE
  8
0
 10
20.2019
 20
-12.7019
 11
20.5215
 21
-12.4216
  0
LINE
  8
0
 10
20.5215
 20
-12.4216
 11
20.875
 21
-12.1854
  0
LINE
  8
0
 10
20.875
 20
-12.1854
 11
21.2563
 21
-11.9974
  0
LINE
  8
0
 10
21.2563
 20
-11.9974
 11
21.6588
 21
-11.8607
  0
LINE
  8
0
 10
21.6588
 20
-11.8607
 11
22.0758
 21
-11.7778
  0
LINE
  8
0
 10
22.0758
 20
-11.7778
 11
22.5
 21
-11.75
  0
LINE
  8
0
 10
22.5
 20
-11.75
 11
22.9242
 21
-11.7778
  0
LINE
  8
0
 10
22.9242
 20
-11.7778
 11
23.3412
 21
-11.8607
  0
LINE
  8
0
 10
23.3412
 20
-11.8607
 11
23.7437
 21
-11.9974
  0
LINE
  8
0
 10
23.7437
 20
-11.9974
 11
24.125
 21
-12.1854
  0
LINE
  8
0
 10
24.125
 20
-12.1854
 11
24.4785
 21
-12.4216
  0
LINE
  8
0
 10
24.4785
 20
-12.4216
 11
24.7981
 21
-12.7019
  0
LINE
  8
0
 10
24.7981
 20
-12.7019
 11
25.0784
 21
-13.0215
  0
LINE
  8
0
 10
25.0784
 20
-13.0215
 11
25.3146
 21
-13.375
  0
LINE
  8
0
 10
25.3146
 20
-13.375
 11
25.5026
 21
-13.7563
  0
LINE
  8
0
 10
25.5026
 20
-13.7563
 11
25.6393
 21
-14.1588
  0
LINE
  8
0
 10
25.6393
 20
-14.1588
 11
25.7222
 21
-14.5758
  0
LINE
  8
0
 10
25.7222
 20
-14.5758
 11
25.75
 21
-15
  0
LINE
  8
0
 10
25.75
 20
-15
 11
25.7222
 21
-15.4242
  0
LINE
  8
0
 10
25.7222
 20
-15.4242
 11
25.6393
 21
-15.8412
  0
LINE
  8
0
 10
25.6393
 20
-15.8412
 11
25.5026
 21
-16.2437
  0
LINE
  8
0
 10
25.5026
 20
-16.2437
 11
25.3146
 21
-16.625
  0
LINE
  8
0
 10
25.3146
 20
-16.625
 11
25.0784
 21
-16.9785
  0
LINE
  8
0
 10
25.0784
 20
-16.9785
 11
24.7981
 21
-17.2981
  0
LINE
  8
0
 10
24.7981
 20
-17.2981
 11
24.4785
 21
-17.5784
  0
LINE
  8
0
 10
24.4785
 20
-17.5784
 11
24.125
 21
-17.8146
  0
LINE
  8
0
 10
24.125
 20
-17.8146
 11
23.7437
 21
-18.0026
  0
LINE
  8
0
 10
23.7437
 20
-18.0026
 11
23.3412
 21
-18.1393
  0
LINE
  8
0
 10
23.3412
 20
-18.1393
 11
22.9242
 21
-18.2222
  0
LINE
  8
0
 10
22.9242
 20
-18.2222
 11
22.5
 21
-18.25
  0
LINE
  8
0
 10
22.5
 20
-18.25
 11
22.0758
 21
-18.2222
  0
LINE
  8
0
 10
-7.92421
 20
-18.2222
 11
-8.34116
 21
-18.1393
  0
LINE
  8
0
 10
-8.34116
 20
-18.1393
 11
-8.74371
 21
-18.0026
  0
LINE
  8
0
 10
-8.74371
 20
-18.0026
 11
-9.125
 21
-17.8146
  0
LINE
  8
0
 10
-9.125
 20
-17.8146
 11
-9.47847
 21
-17.5784
  0
LINE
  8
0
 10
-9.47847
 20
-17.5784
 11
-9.7981
 21
-17.2981
  0
LINE
  8
0
 10
-9.7981
 20
-17.2981
 11
-10.0784
 21
-16.9785
  0
LINE
  8
0
 10
-10.0784
 20
-16.9785
 11
-10.3146
 21
-16.625
  0
LINE
  8
0
 10
-10.3146
 20
-16.625
 11
-10.5026
 21
-16.2437
  0
LINE
  8
0
 10
-10.5026
 20
-16.2437
 11
-10.6393
 21
-15.8412
  0
LINE
  8
0
 10
-10.6393
 20
-15.8412
 11
-10.7222
 21
-15.4242
  0
LINE
  8
0
 10
-10.7222
 20
-15.4242
 11
-10.75
 21
-15
  0
LINE
  8
0
 10
-10.75
 20
-15
 11
-10.7222
 21
-14.5758
  0
LINE
  8
0
 10
-10.7222
 20
-14.5758
 11
-10.6393
 21
-14.1588
  0
LINE
  8
0
 10
-10.6393
 20
-14.1588
 11
-10.5026
 21
-13.7563
  0
LINE
  8
0
 10
-10.5026
 20
-13.7563
 11
-10.3146
 21
-13.375
  0
LINE
  8
0
 10
-10.3146
 20
-13.375
 11
-10.0784
 21
-13.0215
  0
LINE
  8
0
 10
-10.0784
 20
-13.0215
 11
-9.7981
 21
-12.7019
  0
LINE
  8
0
 10
-9.7981
 20
-12.7019
 11
-9.47847
 21
-12.4216
  0
LINE
  8
0
 10
-9.47847
 20
-12.4216
 11
-9.125
 21
-12.1854
  0
LINE
  8
0
 10
-9.125
 20
-12.1854
 11
-8.74371
 21
-11.9974
  0
LINE
  8
0
 10
-8.74371
 20
-11.9974
 11
-8.34116
 21
-11.8607
  0
LINE
  8
0
 10
-8.34116
 20
-11.8607
 11
-7.92421
 21
-11.7778
  0
LINE
  8
0
 10
-7.92421
 20
-11.7778
 11
-7.5
 21
-11.75
  0
LINE
  8
0
 10
-7.5
 20
-11.75
 11
-7.07578
 21
-11.7778
  0
LINE
  8
0
 10
-7.07578
 20
-11.7778
 11
-6.65883
 21
-11.8607
  0
LINE
  8
0
 10
-6.65883
 20
-11.8607
 11
-6.25627
 21
-11.9974
  0
LINE
  8
0
 10
-6.25627
 20
-11.9974
 11
-5.875
 21
-12.1854
  0
LINE
  8
0
 10
-5.875
 20
-12.1854
 11
-5.52151
 21
-12.4216
  0
LINE
  8
0
 10
-5.52151
 20
-12.4216
 11
-5.20189
 21
-12.7019
  0
LINE
  8
0
 10
-5.20189
 20
-12.7019
 11
-4.9216
 21
-13.0215
  0
LINE
  8
0
 10
-4.9216
 20
-13.0215
 11
-4.68541
 21
-13.375
  0
LINE
  8
0
 10
-4.68541
 20
-13.375
 11
-4.49739
 21
-13.7563
  0
LINE
  8
0
 10
-4.49739
 20
-13.7563
 11
-4.36073
 21
-14.1588
  0
LINE
  8
0
 10
-4.36073
 20
-14.1588
 11
-4.2778
 21
-14.5758
  0
LINE
  8
0
 10
-4.2778
 20
-14.5758
 11
-4.25
 21
-15
  0
LINE
  8
0
 10
-4.25
 20
-15
 11
-4.2778
 21
-15.4242
  0
LINE
  8
0
 10
-4.2778
 20
-15.4242
 11
-4.36073
 21
-15.8412
  0
LINE
  8
0
 10
-4.36073
 20
-15.8412
 11
-4.49739
 21
-16.2437
  0
LINE
  8
0
 10
-4.49739
 20
-16.2437
 11
-4.68541
 21
-16.625
  0
LINE
  8
0
 10
-4.68541
 20
-16.625
 11
-4.9216
 21
-16.9785
  0
LINE
  8
0
 10
-4.9216
 20
-16.9785
 11
-5.20189
 21
-17.2981
  0
LINE
  8
0
 10
-5.20189
 20
-17.2981
 11
-5.52151
 21
-17.5784
  0
LINE
  8
0
 10
-5.52151
 20
-17.5784
 11
-5.875
 21
-17.8146
  0
LINE
  8
0
 10
-5.875
 20
-17.8146
 11
-6.25627
 21
-18.0026
  0
LINE
  8
0
 10
-6.25627
 20
-18.0026
 11
-6.65883
 21
-18.1393
  0
LINE
  8
0
 10
-6.65883
 20
-18.1393
 11
-7.07578
 21
-18.2222
  0
LINE
  8
0
 10
-7.07578
 20
-18.2222
 11
-7.5
 21
-18.25
  0
LINE
  8
0
 10
-7.5
 20
-18.25
 11
-7.92421
 21
-18.2222
  0
LINE
  8
0
 10
7.07578
 20
-18.2222
 11
6.65883
 21
-18.1393
  0
LINE
  8
0
 10
6.65883
 20
-18.1393
 11
6.25627
 21
-18.0026
  0
LINE
  8
0
 10
6.25627
 20
-18.0026
 11
5.875
 21
-17.8146
  0
LINE
  8
0
 10
5.875
 20
-17.8146
 11
5.52151
 21
-17.5784
  0
LINE
  8
0
 10
5.52151
 20
-17.5784
 11
5.20189
 21
-17.2981
  0
LINE
  8
0
 10
5.20189
 20
-17.2981
 11
4.9216
 21
-16.9785
  0
LINE
  8
0
 10
4.9216
 20
-16.9785
 11
4.68541
 21
-16.625
  0
LINE
  8
0
 10
4.68541
 20
-16.625
 11
4.49739
 21
-16.2437
  0
LINE
  8
0
 10
4.49739
 20
-16.2437
 11
4.36073
 21
-15.8412
  0
LINE
  8
0
 10
4.36073
 20
-15.8412
 11
4.2778
 21
-15.4242
  0
LINE
  8
0
 10
4.2778
 20
-15.4242
 11
4.25
 21
-15
  0
LINE
  8
0
 10
4.25
 20
-15
 11
4.2778
 21
-14.5758
  0
LINE
  8
0
 10
4.2778
 20
-14.5758
 11
4.36073
 21
-14.1588
  0
LINE
  8
0
 10
4.36073
 20
-14.1588
 11
4.49739
 21
-13.7563
  0
LINE
  8
0
 10
4.49739
 20
-13.7563
 11
4.68541
 21
-13.375
  0
LINE
  8
0
 10
4.68541
 20
-13.375
 11
4.9216
 21
-13.0215
  0
LINE
  8
0
 10
4.9216
 20
-13.0215
 11
5.20189
 21
-12.7019
  0
LINE
  8
0
 10
5.20189
 20
-12.7019
 11
5.52151
 21
-12.4216
  0
LINE
  8
0
 10
5.52151
 20
-12.4216
 11
5.875
 21
-12.1854
  0
LINE
  8
0
 10
5.875
 20
-12.1854
 11
6.25627
 21
-11.9974
  0
LINE
  8
0
 10
6.25627
 20
-11.9974
 11
6.65883
 21
-11.8607
  0
LINE
  8
0
 10
6.65883
 20
-11.8607
 11
7.07578
 21
-11.7778
  0
LINE
  8
0
 10
7.07578
 20
-11.7778
 11
7.5
 21
-11.75
  0
LINE
  8
0
 10
7.5
 20
-11.75
 11
7.92421
 21
-11.7778
  0
LINE
  8
0
 10
7.92421
 20
-11.7778
 11
8.34116
 21
-11.8607
  0
LINE
  8
0
 10
8.34116
 20
-11.8607
 11
8.74371
 21
-11.9974
  0
LINE
  8
0
 10
8.74371
 20
-11.9974
 11
9.125
 21
-12.1854
  0
LINE
  8
0
 10
9.125
 20
-12.1854
 11
9.47847
 21
-12.4216
  0
LINE
  8
0
 10
9.47847
 20
-12.4216
 11
9.7981
 21
-12.7019
  0
LINE
  8
0
 10
9.7981
 20
-12.7019
 11
10.0784
 21
-13.0215
  0
LINE
  8
0
 10
10.0784
 20
-13.0215
 11
10.3146
 21
-13.375
  0
LINE
  8
0
 10
10.3146
 20
-13.375
 11
10.5026
 21
-13.7563
  0
LINE
  8
0
 10
10.5026
 20
-13.7563
 11
10.6393
 21
-14.1588
  0
LINE
  8
0
 10
10.6393
 20
-14.1588
 11
10.7222
 21
-14.5758
  0
LINE
  8
0
 10
10.7222
 20
-14.5758
 11
10.75
 21
-15
  0
LINE
  8
0
 10
10.75
 20
-15
 11
10.7222
 21
-15.4242
  0
LINE
  8
0
 10
10.7222
 20
-15.4242
 11
10.6393
 21
-15.8412
  0
LINE
  8
0
 10
10.6393
 20
-15.8412
 11
10.5026
 21
-16.2437
  0
LINE
  8
0
 10
10.5026
 20
-16.2437
 11
10.3146
 21
-16.625
  0
LINE
  8
0
 10
10.3146
 20
-16.625
 11
10.0784
 21
-16.9785
  0
LINE
  8
0
 10
10.0784
 20
-16.9785
 11
9.7981
 21
-17.2981
  0
LINE
  8
0
 10
9.7981
 20
-17.2981
 11
9.47847
 21
-17.5784
  0
LINE
  8
0
 10
9.47847
 20
-17.5784
 11
9.125
 21
-17.8146
  0
LINE
  8
0
 10
9.125
 20
-17.8146
 11
8.74371
 21
-18.0026
  0
LINE
  8
0
 10
8.74371
 20
-18.0026
 11
8.34116
 21
-18.1393
  0
LINE
  8
0
 10
8.34116
 20
-18.1393
 11
7.92421
 21
-18.2222
  0
LINE
  8
0
 10
7.92421
 20
-18.2222
 11
7.5
 21
-18.25
  0
LINE
  8
0
 10
7.5
 20
-18.25
 11
7.07578
 21
-18.2222
  0
LINE
  8
0
 10
-22.9242
 20
-18.2222
 11
-23.3412
 21
-18.1393
  0
LINE
  8
0
 10
-23.3412
 20
-18.1393
 11
-23.7437
 21
-18.0026
  0
LINE
  8
0
 10
-23.7437
 20
-18.0026
 11
-24.125
 21
-17.8146
  0
LINE
  8
0
 10
-24.125
 20
-17.8146
 11
-24.4785
 21
-17.5784
  0
LINE
  8
0
 10
-24.4785
 20
-17.5784
 11
-24.7981
 21
-17.2981
  0
LINE
  8
0
 10
-24.7981
 20
-17.2981
 11
-25.0784
 21
-16.9785
  0
LINE
  8
0
 10
-25.0784
 20
-16.9785
 11
-25.3146
 21
-16.625
  0
LINE
  8
0
 10
-25.3146
 20
-16.625
 11
-25.5026
 21
-16.2437
  0
LINE
  8
0
 10
-25.5026
 20
-16.2437
 11
-25.6393
 21
-15.8412
  0
LINE
  8
0
 10
-25.6393
 20
-15.8412
 11
-25.7222
 21
-15.4242
  0
LINE
  8
0
 10
-25.7222
 20
-15.4242
 11
-25.75
 21
-15
  0
LINE
  8
0
 10
-25.75
 20
-15
 11
-25.7222
 21
-14.5758
  0
LINE
  8
0
 10
-25.7222
 20
-14.5758
 11
-25.6393
 21
-14.1588
  0
LINE
  8
0
 10
-25.6393
 20
-14.1588
 11
-25.5026
 21
-13.7563
  0
LINE
  8
0
 10
-25.5026
 20
-13.7563
 11
-25.3146
 21
-13.375
  0
LINE
  8
0
 10
-25.3146
 20
-13.375
 11
-25.0784
 21
-13.0215
  0
LINE
  8
0
 10
-25.0784
 20
-13.0215
 11
-24.7981
 21
-12.7019
  0
LINE
  8
0
 10
-24.7981
 20
-12.7019
 11
-24.4785
 21
-12.4216
  0
LINE
  8
0
 10
-24.4785
 20
-12.4216
 11
-24.125
 21
-12.1854
  0
LINE
  8
0
 10
-24.125
 20
-12.1854
 11
-23.7437
 21
-11.9974
  0
LINE
  8
0
 10
-23.7437
 20
-11.9974
 11
-23.3412
 21
-11.8607
  0
LINE
  8
0
 10
-23.3412
 20
-11.8607
 11
-22.9242
 21
-11.7778
  0
LINE
  8
0
 10
-22.9242
 20
-11.7778
 11
-22.5
 21
-11.75
  0
LINE
  8
0
 10
-22.5
 20
-11.75
 11
-22.0758
 21
-11.7778
  0
LINE
  8
0
 10
-22.0758
 20
-11.7778
 11
-21.6588
 21
-11.8607
  0
LINE
  8
0
 10
-21.6588
 20
-11.8607
 11
-21.2563
 21
-11.9974
  0
LINE
  8
0
 10
-21.2563
 20
-11.9974
 11
-20.875
 21
-12.1854
  0
LINE
  8
0
 10
-20.875
 20
-12.1854
 11
-20.5215
 21
-12.4216
  0
LINE
  8
0
 10
-20.5215
 20
-12.4216
 11
-20.2019
 21
-12.7019
  0
LINE
  8
0
 10
-20.2019
 20
-12.7019
 11
-19.9216
 21
-13.0215
  0
LINE
  8
0
 10
-19.9216
 20
-13.0215
 11
-19.6854
 21
-13.375
  0
LINE
  8
0
 10
-19.6854
 20
-13.375
 11
-19.4974
 21
-13.7563
  0
LINE
  8
0
 10
-19.4974
 20
-13.7563
 11
-19.3607
 21
-14.1588
  0
LINE
  8
0
 10
-19.3607
 20
-14.1588
 11
-19.2778
 21
-14.5758
  0
LINE
  8
0
 10
-19.2778
 20
-14.5758
 11
-19.25
 21
-15
  0
LINE
  8
0
 10
-19.25
 20
-15
 11
-19.2778
 21
-15.4242
  0
LINE
  8
0
 10
-19.2778
 20
-15.4242
 11
-19.3607
 21
-15.8412
  0
LINE
  8
0
 10
-19.3607
 20
-15.8412
 11
-19.4974
 21
-16.2437
  0
LINE
  8
0
 10
-19.4974
 20
-16.2437
 11
-19.6854
 21
-16.625
  0
LINE
  8
0
 10
-19.6854
 20
-16.625
 11
-19.9216
 21
-16.9785
  0
LINE
  8
0
 10
-19.9216
 20
-16.9785
 11
-20.2019
 21
-17.2981
  0
LINE
  8
0
 10
-20.2019
 20
-17.2981
 11
-20.5215
 21
-17.5784
  0
LINE
  8
0
 10
-20.5215
 20
-17.5784
 11
-20.875
 21
-17.8146
  0
LINE
  8
0
 10
-20.875
 20
-17.8146
 11
-21.2563
 21
-18.0026
  0
LINE
  8
0
 10
-21.2563
 20
-18.0026
 11
-21.6588
 21
-18.1393
  0
LINE
  8
0
 10
-21.6588
 20
-18.1393
 11
-22.0758
 21
-18.2222
  0
LINE
  8
0
 10
-22.0758
 20
-18.2222
 11
-22.5
 21
-18.25
  0
LINE
  8
0
 10
-22.5
 20
-18.25
 11
-22.9242
 21
-18.2222
  0
ENDSEC
  0
SECTION
  2
OBJECTS
  0
DICTIONARY
  0
ENDSEC
  0
EOF
