<?xml version="1.0" standalone="no"?>
<!DOCTYPE svg PUBLIC "-//W3C//DTD SVG 1.1//EN" "http://www.w3.org/Graphics/SVG/1.1/DTD/svg11.dtd">
<svg width="118mm" height="44mm" viewBox="-59 -22 118 44" xmlns="http://www.w3.org/2000/svg" version="1.1">
<title>OpenSCAD Model</title>
<path d="
M 54.1576,20.9622 L 54.7991,20.8346 L 55.4184,20.6244 L 56.005,20.3351 L 56.5488,19.9718 L 57.0405,19.5405
 L 57.4718,19.0488 L 57.8351,18.505 L 58.1244,17.9184 L 58.3346,17.2991 L 58.4622,16.6576 L 58.505,16.005
 L 58.505,-16.005 L 58.4622,-16.6576 L 58.3346,-17.2991 L 58.1244,-17.9184 L 57.8351,-18.505 L 57.4718,-19.0488
 L 57.0405,-19.5405 L 56.5488,-19.9718 L 56.005,-20.3351 L 55.4184,-20.6244 L 54.7991,-20.8346 L 54.1576,-20.9622
 L 53.505,-21.005 L -53.505,-21.005 L -54.1576,-20.9622 L -54.7991,-20.8346 L -55.4184,-20.6244 L -56.005,-20.3351
 L -56.5488,-19.9718 L -57.0405,-19.5405 L -57.4718,-19.0488 L -57.8351,-18.505 L -58.1244,-17.9184 L -58.3346,-17.2991
 L -58.4622,-16.6576 L -58.505,-16.005 L -58.505,16.005 L -58.4622,16.6576 L -58.3346,17.2991 L -58.1244,17.9184
 L -57.8351,18.505 L -57.4718,19.0488 L -57.0405,19.5405 L -56.5488,19.9718 L -56.005,20.3351 L -55.4184,20.6244
 L -54.7991,20.8346 L -54.1576,20.9622 L -53.505,21.005 L 53.505,21.005 z
M -37.8916,-12.0257 L -38.2765,-12.1022 L -38.648,-12.2283 L -39,-12.4019 L -39.3263,-12.6199 L -39.6213,-12.8787
 L -39.8801,-13.1737 L -40.0981,-13.5 L -40.2716,-13.8519 L -40.3978,-14.2235 L -40.4743,-14.6084 L -40.5,-15
 L -40.4743,-15.3916 L -40.3978,-15.7764 L -40.2716,-16.148 L -40.0981,-16.5 L -39.8801,-16.8263 L -39.6213,-17.1213
 L -39.3263,-17.3801 L -39,-17.5981 L -38.648,-17.7716 L -38.2765,-17.8978 L -37.8916,-17.9743 L -37.5,-18
 L -37.1084,-17.9743 L -36.7235,-17.8978 L -36.3519,-17.7716 L -36,-17.5981 L -35.6737,-17.3801 L -35.3787,-17.1213
 L -35.1199,-16.8263 L -34.9019,-16.5 L -34.7284,-16.148 L -34.6022,-15.7764 L -34.5257,-15.3916 L -34.5,-15
 L -34.5257,-14.6084 L -34.6022,-14.2235 L -34.7284,-13.8519 L -34.9019,-13.5 L -35.1199,-13.1737 L -35.3787,-12.8787
 L -35.6737,-12.6199 L -36,-12.4019 L -36.3519,-12.2283 L -36.7235,-12.1022 L -37.1084,-12.0257 L -37.5,-12
 z
M 37.1084,-12.0257 L 36.7235,-12.1022 L 36.3519,-12.2283 L 36,-12.4019 L 35.6737,-12.6199 L 35.3787,-12.8787
 L 35.1199,-13.1737 L 34.9019,-13.5 L 34.7284,-13.8519 L 34.6022,-14.2235 L 34.5257,-14.6084 L 34.5,-15
 L 34.5257,-15.3916 L 34.6022,-15.7764 L 34.7284,-16.148 L 34.9019,-16.5 L 35.1199,-16.8263 L 35.3787,-17.1213
 L 35.6737,-17.3801 L 36,-17.5981 L 36.3519,-17.7716 L 36.7235,-17.8978 L 37.1084,-17.9743 L 37.5,-18
 L 37.8916,-17.9743 L 38.2765,-17.8978 L 38.648,-17.7716 L 39,-17.5981 L 39.3263,-17.3801 L 39.6213,-17.1213
 L 39.8801,-16.8263 L 40.0981,-16.5 L 40.2716,-16.148 L 40.3978,-15.7764 L 40.4743,-15.3916 L 40.5,-15
 L 40.4743,-14.6084 L 40.3978,-14.2235 L 40.2716,-13.8519 L 40.0981,-13.5 L 39.8801,-13.1737 L 39.6213,-12.8787
 L 39.3263,-12.6199 L 39,-12.4019 L 38.648,-12.2283 L 38.2765,-12.1022 L 37.8916,-12.0257 L 37.5,-12
 z
M -52.8916,-12.0257 L -53.2765,-12.1022 L -53.648,-12.2283 L -54,-12.4019 L -54.3263,-12.6199 L -54.6213,-12.8787
 L -54.8801,-13.1737 L -55.0981,-13.5 L -55.2716,-13.8519 L -55.3978,-14.2235 L -55.4743,-14.6084 L -55.5,-15
 L -55.4743,-15.3916 L -55.3978,-15.7764 L -55.2716,-16.148 L -55.0981,-16.5 L -54.8801,-16.8263 L -54.6213,-17.1213
 L -54.3263,-17.3801 L -54,-17.5981 L -53.648,-17.7716 L -53.2765,-17.8978 L -52.8916,-17.9743 L -52.5,-18
 L -52.1084,-17.9743 L -51.7235,-17.8978 L -51.3519,-17.7716 L -51,-17.5981 L -50.6737,-17.3801 L -50.3787,-17.1213
 L -50.1199,-16.8263 L -49.9019,-16.5 L -49.7284,-16.148 L -49.6022,-15.7764 L -49.5257,-15.3916 L -49.5,-15
 L -49.5257,-14.6084 L -49.6022,-14.2235 L -49.7284,-13.8519 L -49.9019,-13.5 L -50.1199,-13.1737 L -50.3787,-12.8787
 L -50.6737,-12.6199 L -51,-12.4019 L -51.3519,-12.2283 L -51.7235,-12.1022 L -52.1084,-12.0257 L -52.5,-12
 z
M -22.8916,-12.0257 L -23.2764,-12.1022 L -23.648,-12.2283 L -24,-12.4019 L -24.3263,-12.6199 L -24.6213,-12.8787
 L -24.8801,-13.1737 L -25.0981,-13.5 L -25.2716,-13.8519 L -25.3978,-14.2235 L -25.4743,-14.6084 L -25.5,-15
 L -25.4743,-15.3916 L -25.3978,-15.7764 L -25.2716,-16.148 L -25.0981,-16.5 L -24.8801,-16.8263 L -24.6213,-17.1213
 L -24.3263,-17.3801 L -24,-17.5981 L -23.648,-17.7716 L -23.2764,-17.8978 L -22.8916,-17.9743 L -22.5,-18
 L -22.1084,-17.9743 L -21.7235,-17.8978 L -21.3519,-17.7716 L -21,-17.5981 L -20.6737,-17.3801 L -20.3787,-17.1213
 L -20.1199,-16.8263 L -19.9019,-16.5 L -19.7283,-16.148 L -19.6022,-15.7764 L -19.5257,-15.3916 L -19.5,-15
 L -19.5257,-14.6084 L -19.6022,-14.2235 L -19.7283,-13.8519 L -19.9019,-13.5 L -20.1199,-13.1737 L -20.3787,-12.8787
 L -20.6737,-12.6199 L -21,-12.4019 L -21.3519,-12.2283 L -21.7235,-12.1022 L -22.1084,-12.0257 L -22.5,-12
 z
M -7.89157,-12.0257 L -8.27644,-12.1022 L -8.64804,-12.2283 L -9,-12.4019 L -9.32628,-12.6199 L -9.62131,-12.8787
 L -9.88005,-13.1737 L -10.0981,-13.5 L -10.2716,-13.8519 L -10.3978,-14.2235 L -10.4743,-14.6084 L -10.5,-15
 L -10.4743,-15.3916 L -10.3978,-15.7764 L -10.2716,-16.148 L -10.0981,-16.5 L -9.88005,-16.8263 L -9.62131,-17.1213
 L -9.32628,-17.3801 L -9,-17.5981 L -8.64804,-17.7716 L -8.27644,-17.8978 L -7.89157,-17.9743 L -7.5,-18
 L -7.10841,-17.9743 L -6.72354,-17.8978 L -6.35194,-17.7716 L -6,-17.5981 L -5.67371,-17.3801 L -5.37868,-17.1213
 L -5.11993,-16.8263 L -4.90192,-16.5 L -4.72835,-16.148 L -4.60222,-15.7764 L -4.52567,-15.3916 L -4.5,-15
 L -4.52567,-14.6084 L -4.60222,-14.2235 L -4.72835,-13.8519 L -4.90192,-13.5 L -5.11993,-13.1737 L -5.37868,-12.8787
 L -5.67371,-12.6199 L -6,-12.4019 L -6.35194,-12.2283 L -6.72354,-12.1022 L -7.10841,-12.0257 L -7.5,-12
 z
M 22.1084,-12.0257 L 21.7235,-12.1022 L 21.3519,-12.2283 L 21,-12.4019 L 20.6737,-12.6199 L 20.3787,-12.8787
 L 20.1199,-13.1737 L 19.9019,-13.5 L 19.7283,-13.8519 L 19.6022,-14.2235 L 19.5257,-14.6084 L 19.5,-15
 L 19.5257,-15.3916 L 19.6022,-15.7764 L 19.7283,-16.148 L 19.9019,-16.5 L 20.1199,-16.8263 L 20.3787,-17.1213
 L 20.6737,-17.3801 L 21,-17.5981 L 21.3519,-17.7716 L 21.7235,-17.8978 L 22.1084,-17.9743 L 22.5,-18
 L 22.8916,-17.9743 L 23.2764,-17.8978 L 23.648,-17.7716 L 24,-17.5981 L 24.3263,-17.3801 L 24.6213,-17.1213
 L 24.8801,-16.8263 L 25.0981,-16.5 L 25.2716,-16.148 L 25.3978,-15.7764 L 25.4743,-15.3916 L 25.5,-15
 L 25.4743,-14.6084 L 25.3978,-14.2235 L 25.2716,-13.8519 L 25.0981,-13.5 L 24.8801,-13.1737 L 24.6213,-12.8787
 L 24.3263,-12.6199 L 24,-12.4019 L 23.648,-12.2283 L 23.2764,-12.1022 L 22.8916,-12.0257 L 22.5,-12
 z
M 52.1084,-12.0257 L 51.7235,-12.1022 L 51.3519,-12.2283 L 51,-12.4019 L 50.6737,-12.6199 L 50.3787,-12.8787
 L 50.1199,-13.1737 L 49.9019,-13.5 L 49.7284,-13.8519 L 49.6022,-14.2235 L 49.5257,-14.6084 L 49.5,-15
 L 49.5257,-15.3916 L 49.6022,-15.7764 L 49.7284,-16.148 L 49.9019,-16.5 L 50.1199,-16.8263 L 50.3787,-17.1213
 L 50.6737,-17.3801 L 51,-17.5981 L 51.3519,-17.7716 L 51.7235,-17.8978 L 52.1084,-17.9743 L 52.5,-18
 L 52.8916,-17.9743 L 53.2765,-17.8978 L 53.648,-17.7716 L 54,-17.5981 L 54.3263,-17.3801 L 54.6213,-17.1213
 L 54.8801,-16.8263 L 55.0981,-16.5 L 55.2716,-16.148 L 55.3978,-15.7764 L 55.4743,-15.3916 L 55.5,-15
 L 55.4743,-14.6084 L 55.3978,-14.2235 L 55.2716,-13.8519 L 55.0981,-13.5 L 54.8801,-13.1737 L 54.6213,-12.8787
 L 54.3263,-12.6199 L 54,-12.4019 L 53.648,-12.2283 L 53.2765,-12.1022 L 52.8916,-12.0257 L 52.5,-12
 z
M 7.10841,-12.0257 L 6.72354,-12.1022 L 6.35194,-12.2283 L 6,-12.4019 L 5.67371,-12.6199 L 5.37868,-12.8787
 L 5.11993,-13.1737 L 4.90192,-13.5 L 4.72835,-13.8519 L 4.60222,-14.2235 L 4.52567,-14.6084 L 4.5,-15
 L 4.52567,-15.3916 L 4.60222,-15.7764 L 4.72835,-16.148 L 4.90192,-16.5 L 5.11993,-16.8263 L 5.37868,-17.1213
 L 5.67371,-17.3801 L 6,-17.5981 L 6.35194,-17.7716 L 6.72354,-17.8978 L 7.10841,-17.9743 L 7.5,-18
 L 7.89157,-17.9743 L 8.27644,-17.8978 L 8.64804,-17.7716 L 9,-17.5981 L 9.32628,-17.3801 L 9.62131,-17.1213
 L 9.88005,-16.8263 L 10.0981,-16.5 L 10.2716,-16.148 L 10.3978,-15.7764 L 10.4743,-15.3916 L 10.5,-15
 L 10.4743,-14.6084 L 10.3978,-14.2235 L 10.2716,-13.8519 L 10.0981,-13.5 L 9.88005,-13.1737 L 9.62131,-12.8787
 L 9.32628,-12.6199 L 9,-12.4019 L 8.64804,-12.2283 L 8.27644,-12.1022 L 7.89157,-12.0257 L 7.5,-12
 z
M -52.8916,2.97432 L -53.2765,2.89777 L -53.648,2.77164 L -54,2.59807 L -54.3263,2.38005 L -54.6213,2.12131
 L -54.8801,1.82628 L -55.0981,1.5 L -55.2716,1.14804 L -55.3978,0.776443 L -55.4743,0.391571 L -55.5,-0
 L -55.4743,-0.391571 L -55.3978,-0.776443 L -55.2716,-1.14804 L -55.0981,-1.5 L -54.8801,-1.82628 L -54.6213,-2.12131
 L -54.3263,-2.38005 L -54,-2.59807 L -53.648,-2.77164 L -53.2765,-2.89777 L -52.8916,-2.97432 L -52.5,-3
 L -52.1084,-2.97432 L -51.7235,-2.89777 L -51.3519,-2.77164 L -51,-2.59807 L -50.6737,-2.38005 L -50.3787,-2.12131
 L -50.1199,-1.82628 L -49.9019,-1.5 L -49.7284,-1.14804 L -49.6022,-0.776443 L -49.5257,-0.391571 L -49.5,-0
 L -49.5257,0.391571 L -49.6022,0.776443 L -49.7284,1.14804 L -49.9019,1.5 L -50.1199,1.82628 L -50.3787,2.12131
 L -50.6737,2.38005 L -51,2.59807 L -51.3519,2.77164 L -51.7235,2.89777 L -52.1084,2.97432 L -52.5,3
 z
M -7.89157,2.97432 L -8.27644,2.89777 L -8.64804,2.77164 L -9,2.59807 L -9.32628,2.38005 L -9.62131,2.12131
 L -9.88005,1.82628 L -10.0981,1.5 L -10.2716,1.14804 L -10.3978,0.776443 L -10.4743,0.391571 L -10.5,-0
 L -10.4743,-0.391571 L -10.3978,-0.776443 L -10.2716,-1.14804 L -10.0981,-1.5 L -9.88005,-1.82628 L -9.62131,-2.12131
 L -9.32628,-2.38005 L -9,-2.59807 L -8.64804,-2.77164 L -8.27644,-2.89777 L -7.89157,-2.97432 L -7.5,-3
 L -7.10841,-2.97432 L -6.72354,-2.89777 L -6.35194,-2.77164 L -6,-2.59807 L -5.67371,-2.38005 L -5.37868,-2.12131
 L -5.11993,-1.82628 L -4.90192,-1.5 L -4.72835,-1.14804 L -4.60222,-0.776443 L -4.52567,-0.391571 L -4.5,-0
 L -4.52567,0.391571 L -4.60222,0.776443 L -4.72835,1.14804 L -4.90192,1.5 L -5.11993,1.82628 L -5.37868,2.12131
 L -5.67371,2.38005 L -6,2.59807 L -6.35194,2.77164 L -6.72354,2.89777 L -7.10841,2.97432 L -7.5,3
 z
M 7.10841,2.97432 L 6.72354,2.89777 L 6.35194,2.77164 L 6,2.59807 L 5.67371,2.38005 L 5.37868,2.12131
 L 5.11993,1.82628 L 4.90192,1.5 L 4.72835,1.14804 L 4.60222,0.776443 L 4.52567,0.391571 L 4.5,-0
 L 4.52567,-0.391571 L 4.60222,-0.776443 L 4.72835,-1.14804 L 4.90192,-1.5 L 5.11993,-1.82628 L 5.37868,-2.12131
 L 5.67371,-2.38005 L 6,-2.59807 L 6.35194,-2.77164 L 6.72354,-2.89777 L 7.10841,-2.97432 L 7.5,-3
 L 7.89157,-2.97432 L 8.27644,-2.89777 L 8.64804,-2.77164 L 9,-2.59807 L 9.32628,-2.38005 L 9.62131,-2.12131
 L 9.88005,-1.82628 L 10.0981,-1.5 L 10.2716,-1.14804 L 10.3978,-0.776443 L 10.4743,-0.391571 L 10.5,-0
 L 10.4743,0.391571 L 10.3978,0.776443 L 10.2716,1.14804 L 10.0981,1.5 L 9.88005,1.82628 L 9.62131,2.12131
 L 9.32628,2.38005 L 9,2.59807 L 8.64804,2.77164 L 8.27644,2.89777 L 7.89157,2.97432 L 7.5,3
 z
M 37.1084,2.97432 L 36.7235,2.89777 L 36.3519,2.77164 L 36,2.59807 L 35.6737,2.38005 L 35.3787,2.12131
 L 35.1199,1.82628 L 34.9019,1.5 L 34.7284,1.14804 L 34.6022,0.776443 L 34.5257,0.391571 L 34.5,-0
 L 34.5257,-0.391571 L 34.6022,-0.776443 L 34.7284,-1.14804 L 34.9019,-1.5 L 35.1199,-1.82628 L 35.3787,-2.12131
 L 35.6737,-2.38005 L 36,-2.59807 L 36.3519,-2.77164 L 36.7235,-2.89777 L 37.1084,-2.97432 L 37.5,-3
 L 37.8916,-2.97432 L 38.2765,-2.89777 L 38.648,-2.77164 L 39,-2.59807 L 39.3263,-2.38005 L 39.6213,-2.12131
 L 39.8801,-1.82628 L 40.0981,-1.5 L 40.2716,-1.14804 L 40.3978,-0.776443 L 40.4743,-0.391571 L 40.5,-0
 L 40.4743,0.391571 L 40.3978,0.776443 L 40.2716,1.14804 L 40.0981,1.5 L 39.8801,1.82628 L 39.6213,2.12131
 L 39.3263,2.38005 L 39,2.59807 L 38.648,2.77164 L 38.2765,2.89777 L 37.8916,2.97432 L 37.5,3
 z
M -22.8916,2.97432 L -23.2764,2.89777 L -23.648,2.77164 L -24,2.59807 L -24.3263,2.38005 L -24.6213,2.12131
 L -24.8801,1.82628 L -25.0981,1.5 L -25.2716,1.14804 L -25.3978,0.776443 L -25.4743,0.391571 L -25.5,-0
 L -25.4743,-0.391571 L -25.3978,-0.776443 L -25.2716,-1.14804 L -25.0981,-1.5 L -24.8801,-1.82628 L -24.6213,-2.12131
 L -24.3263,-2.38005 L -24,-2.59807 L -23.648,-2.77164 L -23.2764,-2.89777 L -22.8916,-2.97432 L -22.5,-3
 L -22.1084,-2.97432 L -21.7235,-2.89777 L -21.3519,-2.77164 L -21,-2.59807 L -20.6737,-2.38005 L -20.3787,-2.12131
 L -20.1199,-1.82628 L -19.9019,-1.5 L -19.7283,-1.14804 L -19.6022,-0.776443 L -19.5257,-0.391571 L -19.5,-0
 L -19.5257,0.391571 L -19.6022,0.776443 L -19.7283,1.14804 L -19.9019,1.5 L -20.1199,1.82628 L -20.3787,2.12131
 L -20.6737,2.38005 L -21,2.59807 L -21.3519,2.77164 L -21.7235,2.89777 L -22.1084,2.97432 L -22.5,3
 z
M -37.8916,2.97432 L -38.2765,2.89777 L -38.648,2.77164 L -39,2.59807 L -39.3263,2.38005 L -39.6213,2.12131
 L -39.8801,1.82628 L -40.0981,1.5 L -40.2716,1.14804 L -40.3978,0.776443 L -40.4743,0.391571 L -40.5,-0
 L -40.4743,-0.391571 L -40.3978,-0.776443 L -40.2716,-1.14804 L -40.0981,-1.5 L -39.8801,-1.82628 L -39.6213,-2.12131
 L -39.3263,-2.38005 L -39,-2.59807 L -38.648,-2.77164 L -38.2765,-2.89777 L -37.8916,-2.97432 L -37.5,-3
 L -37.1084,-2.97432 L -36.7235,-2.89777 L -36.3519,-2.77164 L -36,-2.59807 L -35.6737,-2.38005 L -35.3787,-2.12131
 L -35.1199,-1.82628 L -34.9019,-1.5 L -34.7284,-1.14804 L -34.6022,-0.776443 L -34.5257,-0.391571 L -34.5,-0
 L -34.5257,0.391571 L -34.6022,0.776443 L -34.7284,1.14804 L -34.9019,1.5 L -35.1199,1.82628 L -35.3787,2.12131
 L -35.6737,2.38005 L -36,2.59807 L -36.3519,2.77164 L -36.7235,2.89777 L -37.1084,2.97432 L -37.5,3
 z
M 52.1084,2.97432 L 51.7235,2.89777 L 51.3519,2.77164 L 51,2.59807 L 50.6737,2.38005 L 50.3787,2.12131
 L 50.1199,1.82628 L 49.9019,1.5 L 49.7284,1.14804 L 49.6022,0.776443 L 49.5257,0.391571 L 49.5,-0
 L 49.5257,-0.391571 L 49.6022,-0.776443 L 49.7284,-1.14804 L 49.9019,-1.5 L 50.1199,-1.82628 L 50.3787,-2.12131
 L 50.6737,-2.38005 L 51,-2.59807 L 51.3519,-2.77164 L 51.7235,-2.89777 L 52.1084,-2.97432 L 52.5,-3
 L 52.8916,-2.97432 L 53.2765,-2.89777 L 53.648,-2.77164 L 54,-2.59807 L 54.3263,-2.38005 L 54.6213,-2.12131
 L 54.8801,-1.82628 L 55.0981,-1.5 L 55.2716,-1.14804 L 55.3978,-0.776443 L 55.4743,-0.391571 L 55.5,-0
 L 55.4743,0.391571 L 55.3978,0.776443 L 55.2716,1.14804 L 55.0981,1.5 L 54.8801,1.82628 L 54.6213,2.12131
 L 54.3263,2.38005 L 54,2.59807 L 53.648,2.77164 L 53.2765,2.89777 L 52.8916,2.97432 L 52.5,3
 z
M 22.1084,2.97432 L 21.7235,2.89777 L 21.3519,2.77164 L 21,2.59807 L 20.6737,2.38005 L 20.3787,2.12131
 L 20.1199,1.82628 L 19.9019,1.5 L 19.7283,1.14804 L 19.6022,0.776443 L 19.5257,0.391571 L 19.5,-0
 L 19.5257,-0.391571 L 19.6022,-0.776443 L 19.7283,-1.14804 L 19.9019,-1.5 L 20.1199,-1.82628 L 20.3787,-2.12131
 L 20.6737,-2.38005 L 21,-2.59807 L 21.3519,-2.77164 L 21.7235,-2.89777 L 22.1084,-2.97432 L 22.5,-3
 L 22.8916,-2.97432 L 23.2764,-2.89777 L 23.648,-2.77164 L 24,-2.59807 L 24.3263,-2.38005 L 24.6213,-2.12131
 L 24.8801,-1.82628 L 25.0981,-1.5 L 25.2716,-1.14804 L 25.3978,-0.776443 L 25.4743,-0.391571 L 25.5,-0
 L 25.4743,0.391571 L 25.3978,0.776443 L 25.2716,1.14804 L 25.0981,1.5 L 24.8801,1.82628 L 24.6213,2.12131
 L 24.3263,2.38005 L 24,2.59807 L 23.648,2.77164 L 23.2764,2.89777 L 22.8916,2.97432 L 22.5,3
 z
M -52.8916,17.9743 L -53.2765,17.8978 L -53.648,17.7716 L -54,17.5981 L -54.3263,17.3801 L -54.6213,17.1213
 L -54.8801,16.8263 L -55.0981,16.5 L -55.2716,16.148 L -55.3978,15.7764 L -55.4743,15.3916 L -55.5,15
 L -55.4743,14.6084 L -55.3978,14.2235 L -55.2716,13.8519 L -55.0981,13.5 L -54.8801,13.1737 L -54.6213,12.8787
 L -54.3263,12.6199 L -54,12.4019 L -53.648,12.2283 L -53.2765,12.1022 L -52.8916,12.0257 L -52.5,12
 L -52.1084,12.0257 L -51.7235,12.1022 L -51.3519,12.2283 L -51,12.4019 L -50.6737,12.6199 L -50.3787,12.8787
 L -50.1199,13.1737 L -49.9019,13.5 L -49.7284,13.8519 L -49.6022,14.2235 L -49.5257,14.6084 L -49.5,15
 L -49.5257,15.3916 L -49.6022,15.7764 L -49.7284,16.148 L -49.9019,16.5 L -50.1199,16.8263 L -50.3787,17.1213
 L -50.6737,17.3801 L -51,17.5981 L -51.3519,17.7716 L -51.7235,17.8978 L -52.1084,17.9743 L -52.5,18
 z
M -37.8916,17.9743 L -38.2765,17.8978 L -38.648,17.7716 L -39,17.5981 L -39.3263,17.3801 L -39.6213,17.1213
 L -39.8801,16.8263 L -40.0981,16.5 L -40.2716,16.148 L -40.3978,15.7764 L -40.4743,15.3916 L -40.5,15
 L -40.4743,14.6084 L -40.3978,14.2235 L -40.2716,13.8519 L -40.0981,13.5 L -39.8801,13.1737 L -39.6213,12.8787
 L -39.3263,12.6199 L -39,12.4019 L -38.648,12.2283 L -38.2765,12.1022 L -37.8916,12.0257 L -37.5,12
 L -37.1084,12.0257 L -36.7235,12.1022 L -36.3519,12.2283 L -36,12.4019 L -35.6737,12.6199 L -35.3787,12.8787
 L -35.1199,13.1737 L -34.9019,13.5 L -34.7284,13.8519 L -34.6022,14.2235 L -34.5257,14.6084 L -34.5,15
 L -34.5257,15.3916 L -34.6022,15.7764 L -34.7284,16.148 L -34.9019,16.5 L -35.1199,16.8263 L -35.3787,17.1213
 L -35.6737,17.3801 L -36,17.5981 L -36.3519,17.7716 L -36.7235,17.8978 L -37.1084,17.9743 L -37.5,18
 z
M 37.1084,17.9743 L 36.7235,17.8978 L 36.3519,17.7716 L 36,17.5981 L 35.6737,17.3801 L 35.3787,17.1213
 L 35.1199,16.8263 L 34.9019,16.5 L 34.7284,16.148 L 34.6022,15.7764 L 34.5257,15.3916 L 34.5,15
 L 34.5257,14.6084 L 34.6022,14.2235 L 34.7284,13.8519 L 34.9019,13.5 L 35.1199,13.1737 L 35.3787,12.8787
 L 35.6737,12.6199 L 36,12.4019 L 36.3519,12.2283 L 36.7235,12.1022 L 37.1084,12.0257 L 37.5,12
 L 37.8916,12.0257 L 38.2765,12.1022 L 38.648,12.2283 L 39,12.4019 L 39.3263,12.6199 L 39.6213,12.8787
 L 39.8801,13.1737 L 40.0981,13.5 L 40.2716,13.8519 L 40.3978,14.2235 L 40.4743,14.6084 L 40.5,15
 L 40.4743,15.3916 L 40.3978,15.7764 L 40.2716,16.148 L 40.0981,16.5 L 39.8801,16.8263 L 39.6213,17.1213
 L 39.3263,17.3801 L 39,17.5981 L 38.648,17.7716 L 38.2765,17.8978 L 37.8916,17.9743 L 37.5,18
 z
M 52.1084,17.9743 L 51.7235,17.8978 L 51.3519,17.7716 L 51,17.5981 L 50.6737,17.3801 L 50.3787,17.1213
 L 50.1199,16.8263 L 49.9019,16.5 L 49.7284,16.148 L 49.6022,15.7764 L 49.5257,15.3916 L 49.5,15
 L 49.5257,14.6084 L 49.6022,14.2235 L 49.7284,13.8519 L 49.9019,13.5 L 50.1199,13.1737 L 50.3787,12.8787
 L 50.6737,12.6199 L 51,12.4019 L 51.3519,12.2283 L 51.7235,12.1022 L 52.1084,12.0257 L 52.5,12
 L 52.8916,12.0257 L 53.2765,12.1022 L 53.648,12.2283 L 54,12.4019 L 54.3263,12.6199 L 54.6213,12.8787
 L 54.8801,13.1737 L 55.0981,13.5 L 55.2716,13.8519 L 55.3978,14.2235 L 55.4743,14.6084 L 55.5,15
 L 55.4743,15.3916 L 55.3978,15.7764 L 55.2716,16.148 L 55.0981,16.5 L 54.8801,16.8263 L 54.6213,17.1213
 L 54.3263,17.3801 L 54,17.5981 L 53.648,17.7716 L 53.2765,17.8978 L 52.8916,17.9743 L 52.5,18
 z
M 22.1084,17.9743 L 21.7235,17.8978 L 21.3519,17.7716 L 21,17.5981 L 20.6737,17.3801 L 20.3787,17.1213
 L 20.1199,16.8263 L 19.9019,16.5 L 19.7283,16.148 L 19.6022,15.7764 L 19.5257,15.3916 L 19.5,15
 L 19.5257,14.6084 L 19.6022,14.2235 L 19.7283,13.8519 L 19.9019,13.5 L 20.1199,13.1737 L 20.3787,12.8787
 L 20.6737,12.6199 L 21,12.4019 L 21.3519,12.2283 L 21.7235,12.1022 L 22.1084,12.0257 L 22.5,12
 L 22.8916,12.0257 L 23.2764,12.1022 L 23.648,12.2283 L 24,12.4019 L 24.3263,12.6199 L 24.6213,12.8787
 L 24.8801,13.1737 L 25.0981,13.5 L 25.2716,13.8519 L 25.3978,14.2235 L 25.4743,14.6084 L 25.5,15
 L 25.4743,15.3916 L 25.3978,15.7764 L 25.2716,16.148 L 25.0981,16.5 L 24.8801,16.8263 L 24.6213,17.1213
 L 24.3263,17.3801 L 24,17.5981 L 23.648,17.7716 L 23.2764,17.8978 L 22.8916,17.9743 L 22.5,18
 z
M -7.89157,17.9743 L -8.27644,17.8978 L -8.64804,17.7716 L -9,17.5981 L -9.32628,17.3801 L -9.62131,17.1213
 L -9.88005,16.8263 L -10.0981,16.5 L -10.2716,16.148 L -10.3978,15.7764 L -10.4743,15.3916 L -10.5,15
 L -10.4743,14.6084 L -10.3978,14.2235 L -10.2716,13.8519 L -10.0981,13.5 L -9.88005,13.1737 L -9.62131,12.8787
 L -9.32628,12.6199 L -9,12.4019 L -8.64804,12.2283 L -8.27644,12.1022 L -7.89157,12.0257 L -7.5,12
 L -7.10841,12.0257 L -6.72354,12.1022 L -6.35194,12.2283 L -6,12.4019 L -5.67371,12.6199 L -5.37868,12.8787
 L -5.11993,13.1737 L -4.90192,13.5 L -4.72835,13.8519 L -4.60222,14.2235 L -4.52567,14.6084 L -4.5,15
 L -4.52567,15.3916 L -4.60222,15.7764 L -4.72835,16.148 L -4.90192,16.5 L -5.11993,16.8263 L -5.37868,17.1213
 L -5.67371,17.3801 L -6,17.5981 L -6.35194,17.7716 L -6.72354,17.8978 L -7.10841,17.9743 L -7.5,18
 z
M 7.10841,17.9743 L 6.72354,17.8978 L 6.35194,17.7716 L 6,17.5981 L 5.67371,17.3801 L 5.37868,17.1213
 L 5.11993,16.8263 L 4.90192,16.5 L 4.72835,16.148 L 4.60222,15.7764 L 4.52567,15.3916 L 4.5,15
 L 4.52567,14.6084 L 4.60222,14.2235 L 4.72835,13.8519 L 4.90192,13.5 L 5.11993,13.1737 L 5.37868,12.8787
 L 5.67371,12.6199 L 6,12.4019 L 6.35194,12.2283 L 6.72354,12.1022 L 7.10841,12.0257 L 7.5,12
 L 7.89157,12.0257 L 8.27644,12.1022 L 8.64804,12.2283 L 9,12.4019 L 9.32628,12.6199 L 9.62131,12.8787
 L 9.88005,13.1737 L 10.0981,13.5 L 10.2716,13.8519 L 10.3978,14.2235 L 10.4743,14.6084 L 10.5,15
 L 10.4743,15.3916 L 10.3978,15.7764 L 10.2716,16.148 L 10.0981,16.5 L 9.88005,16.8263 L 9.62131,17.1213
 L 9.32628,17.3801 L 9,17.5981 L 8.64804,17.7716 L 8.27644,17.8978 L 7.89157,17.9743 L 7.5,18
 z
M -22.8916,17.9743 L -23.2764,17.8978 L -23.648,17.7716 L -24,17.5981 L -24.3263,17.3801 L -24.6213,17.1213
 L -24.8801,16.8263 L -25.0981,16.5 L -25.2716,16.148 L -25.3978,15.7764 L -25.4743,15.3916 L -25.5,15
 L -25.4743,14.6084 L -25.3978,14.2235 L -25.2716,13.8519 L -25.0981,13.5 L -24.8801,13.1737 L -24.6213,12.8787
 L -24.3263,12.6199 L -24,12.4019 L -23.648,12.2283 L -23.2764,12.1022 L -22.8916,12.0257 L -22.5,12
 L -22.1084,12.0257 L -21.7235,12.1022 L -21.3519,12.2283 L -21,12.4019 L -20.6737,12.6199 L -20.3787,12.8787
 L -20.1199,13.1737 L -19.9019,13.5 L -19.7283,13.8519 L -19.6022,14.2235 L -19.5257,14.6084 L -19.5,15
 L -19.5257,15.3916 L -19.6022,15.7764 L -19.7283,16.148 L -19.9019,16.5 L -20.1199,16.8263 L -20.3787,17.1213
 L -20.6737,17.3801 L -21,17.5981 L -21.3519,17.7716 L -21.7235,17.8978 L -22.1084,17.9743 L -22.5,18
 z
" stroke="black" fill="lightgray" stroke-width="0.5"/>
</svg>
