<?xml version="1.0" standalone="no"?>
<!DOCTYPE svg PUBLIC "-//W3C//DTD SVG 1.1//EN" "http://www.w3.org/Graphics/SVG/1.1/DTD/svg11.dtd">
<svg width="118mm" height="43mm" viewBox="1 -44 118 43" xmlns="http://www.w3.org/2000/svg" version="1.1">
<title>OpenSCAD Model</title>
<path d="
M 114.158,-1.53778 L 114.799,-1.66537 L 115.418,-1.87561 L 116.005,-2.16489 L 116.549,-2.52824 L 117.041,-2.95947
 L 117.472,-3.4512 L 117.835,-3.99501 L 118.124,-4.58159 L 118.335,-5.20091 L 118.462,-5.84238 L 118.505,-6.49501
 L 118.505,-38.505 L 118.462,-39.1576 L 118.335,-39.7991 L 118.124,-40.4184 L 117.835,-41.005 L 117.472,-41.5488
 L 117.041,-42.0405 L 116.549,-42.4718 L 116.005,-42.8351 L 115.418,-43.1244 L 114.799,-43.3346 L 114.158,-43.4622
 L 113.505,-43.505 L 6.49501,-43.505 L 5.84238,-43.4622 L 5.20091,-43.3346 L 4.58159,-43.1244 L 3.99501,-42.8351
 L 3.4512,-42.4718 L 2.95947,-42.0405 L 2.52824,-41.5488 L 2.16489,-41.005 L 1.87561,-40.4184 L 1.66537,-39.7991
 L 1.53778,-39.1576 L 1.49501,-38.505 L 1.49501,-6.49501 L 1.53778,-5.84238 L 1.66537,-5.20091 L 1.87561,-4.58159
 L 2.16489,-3.99501 L 2.52824,-3.4512 L 2.95947,-2.95947 L 3.4512,-2.52824 L 3.99501,-2.16489 L 4.58159,-1.87561
 L 5.20091,-1.66537 L 5.84238,-1.53778 L 6.49501,-1.49501 L 113.505,-1.49501 z
M 22.1084,-34.5257 L 21.7235,-34.6022 L 21.3519,-34.7284 L 21,-34.9019 L 20.6737,-35.1199 L 20.3787,-35.3787
 L 20.1199,-35.6737 L 19.9019,-36 L 19.7283,-36.3519 L 19.6022,-36.7235 L 19.5257,-37.1084 L 19.5,-37.5
 L 19.5257,-37.8916 L 19.6022,-38.2765 L 19.7283,-38.648 L 19.9019,-39 L 20.1199,-39.3263 L 20.3787,-39.6213
 L 20.6737,-39.8801 L 21,-40.0981 L 21.3519,-40.2716 L 21.7235,-40.3978 L 22.1084,-40.4743 L 22.5,-40.5
 L 22.8916,-40.4743 L 23.2764,-40.3978 L 23.648,-40.2716 L 24,-40.0981 L 24.3263,-39.8801 L 24.6213,-39.6213
 L 24.8801,-39.3263 L 25.0981,-39 L 25.2716,-38.648 L 25.3978,-38.2765 L 25.4743,-37.8916 L 25.5,-37.5
 L 25.4743,-37.1084 L 25.3978,-36.7235 L 25.2716,-36.3519 L 25.0981,-36 L 24.8801,-35.6737 L 24.6213,-35.3787
 L 24.3263,-35.1199 L 24,-34.9019 L 23.648,-34.7284 L 23.2764,-34.6022 L 22.8916,-34.5257 L 22.5,-34.5
 z
M 97.1084,-34.5257 L 96.7235,-34.6022 L 96.3519,-34.7284 L 96,-34.9019 L 95.6737,-35.1199 L 95.3787,-35.3787
 L 95.1199,-35.6737 L 94.9019,-36 L 94.7284,-36.3519 L 94.6022,-36.7235 L 94.5257,-37.1084 L 94.5,-37.5
 L 94.5257,-37.8916 L 94.6022,-38.2765 L 94.7284,-38.648 L 94.9019,-39 L 95.1199,-39.3263 L 95.3787,-39.6213
 L 95.6737,-39.8801 L 96,-40.0981 L 96.3519,-40.2716 L 96.7235,-40.3978 L 97.1084,-40.4743 L 97.5,-40.5
 L 97.8916,-40.4743 L 98.2765,-40.3978 L 98.648,-40.2716 L 99,-40.0981 L 99.3263,-39.8801 L 99.6213,-39.6213
 L 99.8801,-39.3263 L 100.098,-39 L 100.272,-38.648 L 100.398,-38.2765 L 100.474,-37.8916 L 100.5,-37.5
 L 100.474,-37.1084 L 100.398,-36.7235 L 100.272,-36.3519 L 100.098,-36 L 99.8801,-35.6737 L 99.6213,-35.3787
 L 99.3263,-35.1199 L 99,-34.9019 L 98.648,-34.7284 L 98.2765,-34.6022 L 97.8916,-34.5257 L 97.5,-34.5
 z
M 7.10841,-34.5257 L 6.72354,-34.6022 L 6.35194,-34.7284 L 6,-34.9019 L 5.67371,-35.1199 L 5.37868,-35.3787
 L 5.11993,-35.6737 L 4.90192,-36 L 4.72835,-36.3519 L 4.60222,-36.7235 L 4.52567,-37.1084 L 4.5,-37.5
 L 4.52567,-37.8916 L 4.60222,-38.2765 L 4.72835,-38.648 L 4.90192,-39 L 5.11993,-39.3263 L 5.37868,-39.6213
 L 5.67371,-39.8801 L 6,-40.0981 L 6.35194,-40.2716 L 6.72354,-40.3978 L 7.10841,-40.4743 L 7.5,-40.5
 L 7.89157,-40.4743 L 8.27644,-40.3978 L 8.64804,-40.2716 L 9,-40.0981 L 9.32628,-39.8801 L 9.62131,-39.6213
 L 9.88005,-39.3263 L 10.0981,-39 L 10.2716,-38.648 L 10.3978,-38.2765 L 10.4743,-37.8916 L 10.5,-37.5
 L 10.4743,-37.1084 L 10.3978,-36.7235 L 10.2716,-36.3519 L 10.0981,-36 L 9.88005,-35.6737 L 9.62131,-35.3787
 L 9.32628,-35.1199 L 9,-34.9019 L 8.64804,-34.7284 L 8.27644,-34.6022 L 7.89157,-34.5257 L 7.5,-34.5
 z
M 37.1084,-34.5257 L 36.7235,-34.6022 L 36.3519,-34.7284 L 36,-34.9019 L 35.6737,-35.1199 L 35.3787,-35.3787
 L 35.1199,-35.6737 L 34.9019,-36 L 34.7284,-36.3519 L 34.6022,-36.7235 L 34.5257,-37.1084 L 34.5,-37.5
 L 34.5257,-37.8916 L 34.6022,-38.2765 L 34.7284,-38.648 L 34.9019,-39 L 35.1199,-39.3263 L 35.3787,-39.6213
 L 35.6737,-39.8801 L 36,-40.0981 L 36.3519,-40.2716 L 36.7235,-40.3978 L 37.1084,-40.4743 L 37.5,-40.5
 L 37.8916,-40.4743 L 38.2765,-40.3978 L 38.648,-40.2716 L 39,-40.0981 L 39.3263,-39.8801 L 39.6213,-39.6213
 L 39.8801,-39.3263 L 40.0981,-39 L 40.2716,-38.648 L 40.3978,-38.2765 L 40.4743,-37.8916 L 40.5,-37.5
 L 40.4743,-37.1084 L 40.3978,-36.7235 L 40.2716,-36.3519 L 40.0981,-36 L 39.8801,-35.6737 L 39.6213,-35.3787
 L 39.3263,-35.1199 L 39,-34.9019 L 38.648,-34.7284 L 38.2765,-34.6022 L 37.8916,-34.5257 L 37.5,-34.5
 z
M 52.1084,-34.5257 L 51.7235,-34.6022 L 51.3519,-34.7284 L 51,-34.9019 L 50.6737,-35.1199 L 50.3787,-35.3787
 L 50.1199,-35.6737 L 49.9019,-36 L 49.7284,-36.3519 L 49.6022,-36.7235 L 49.5257,-37.1084 L 49.5,-37.5
 L 49.5257,-37.8916 L 49.6022,-38.2765 L 49.7284,-38.648 L 49.9019,-39 L 50.1199,-39.3263 L 50.3787,-39.6213
 L 50.6737,-39.8801 L 51,-40.0981 L 51.3519,-40.2716 L 51.7235,-40.3978 L 52.1084,-40.4743 L 52.5,-40.5
 L 52.8916,-40.4743 L 53.2765,-40.3978 L 53.648,-40.2716 L 54,-40.0981 L 54.3263,-39.8801 L 54.6213,-39.6213
 L 54.8801,-39.3263 L 55.0981,-39 L 55.2716,-38.648 L 55.3978,-38.2765 L 55.4743,-37.8916 L 55.5,-37.5
 L 55.4743,-37.1084 L 55.3978,-36.7235 L 55.2716,-36.3519 L 55.0981,-36 L 54.8801,-35.6737 L 54.6213,-35.3787
 L 54.3263,-35.1199 L 54,-34.9019 L 53.648,-34.7284 L 53.2765,-34.6022 L 52.8916,-34.5257 L 52.5,-34.5
 z
M 82.1084,-34.5257 L 81.7235,-34.6022 L 81.3519,-34.7284 L 81,-34.9019 L 80.6737,-35.1199 L 80.3787,-35.3787
 L 80.1199,-35.6737 L 79.9019,-36 L 79.7284,-36.3519 L 79.6022,-36.7235 L 79.5257,-37.1084 L 79.5,-37.5
 L 79.5257,-37.8916 L 79.6022,-38.2765 L 79.7284,-38.648 L 79.9019,-39 L 80.1199,-39.3263 L 80.3787,-39.6213
 L 80.6737,-39.8801 L 81,-40.0981 L 81.3519,-40.2716 L 81.7235,-40.3978 L 82.1084,-40.4743 L 82.5,-40.5
 L 82.8916,-40.4743 L 83.2765,-40.3978 L 83.648,-40.2716 L 84,-40.0981 L 84.3263,-39.8801 L 84.6213,-39.6213
 L 84.8801,-39.3263 L 85.0981,-39 L 85.2716,-38.648 L 85.3978,-38.2765 L 85.4743,-37.8916 L 85.5,-37.5
 L 85.4743,-37.1084 L 85.3978,-36.7235 L 85.2716,-36.3519 L 85.0981,-36 L 84.8801,-35.6737 L 84.6213,-35.3787
 L 84.3263,-35.1199 L 84,-34.9019 L 83.648,-34.7284 L 83.2765,-34.6022 L 82.8916,-34.5257 L 82.5,-34.5
 z
M 112.108,-34.5257 L 111.724,-34.6022 L 111.352,-34.7284 L 111,-34.9019 L 110.674,-35.1199 L 110.379,-35.3787
 L 110.12,-35.6737 L 109.902,-36 L 109.728,-36.3519 L 109.602,-36.7235 L 109.526,-37.1084 L 109.5,-37.5
 L 109.526,-37.8916 L 109.602,-38.2765 L 109.728,-38.648 L 109.902,-39 L 110.12,-39.3263 L 110.379,-39.6213
 L 110.674,-39.8801 L 111,-40.0981 L 111.352,-40.2716 L 111.724,-40.3978 L 112.108,-40.4743 L 112.5,-40.5
 L 112.892,-40.4743 L 113.276,-40.3978 L 113.648,-40.2716 L 114,-40.0981 L 114.326,-39.8801 L 114.621,-39.6213
 L 114.88,-39.3263 L 115.098,-39 L 115.272,-38.648 L 115.398,-38.2765 L 115.474,-37.8916 L 115.5,-37.5
 L 115.474,-37.1084 L 115.398,-36.7235 L 115.272,-36.3519 L 115.098,-36 L 114.88,-35.6737 L 114.621,-35.3787
 L 114.326,-35.1199 L 114,-34.9019 L 113.648,-34.7284 L 113.276,-34.6022 L 112.892,-34.5257 L 112.5,-34.5
 z
M 67.1084,-34.5257 L 66.7235,-34.6022 L 66.3519,-34.7284 L 66,-34.9019 L 65.6737,-35.1199 L 65.3787,-35.3787
 L 65.1199,-35.6737 L 64.9019,-36 L 64.7284,-36.3519 L 64.6022,-36.7235 L 64.5257,-37.1084 L 64.5,-37.5
 L 64.5257,-37.8916 L 64.6022,-38.2765 L 64.7284,-38.648 L 64.9019,-39 L 65.1199,-39.3263 L 65.3787,-39.6213
 L 65.6737,-39.8801 L 66,-40.0981 L 66.3519,-40.2716 L 66.7235,-40.3978 L 67.1084,-40.4743 L 67.5,-40.5
 L 67.8916,-40.4743 L 68.2765,-40.3978 L 68.648,-40.2716 L 69,-40.0981 L 69.3263,-39.8801 L 69.6213,-39.6213
 L 69.8801,-39.3263 L 70.0981,-39 L 70.2716,-38.648 L 70.3978,-38.2765 L 70.4743,-37.8916 L 70.5,-37.5
 L 70.4743,-37.1084 L 70.3978,-36.7235 L 70.2716,-36.3519 L 70.0981,-36 L 69.8801,-35.6737 L 69.6213,-35.3787
 L 69.3263,-35.1199 L 69,-34.9019 L 68.648,-34.7284 L 68.2765,-34.6022 L 67.8916,-34.5257 L 67.5,-34.5
 z
M 7.10841,-19.5257 L 6.72354,-19.6022 L 6.35194,-19.7283 L 6,-19.9019 L 5.67371,-20.1199 L 5.37868,-20.3787
 L 5.11993,-20.6737 L 4.90192,-21 L 4.72835,-21.3519 L 4.60222,-21.7235 L 4.52567,-22.1084 L 4.5,-22.5
 L 4.52567,-22.8916 L 4.60222,-23.2764 L 4.72835,-23.648 L 4.90192,-24 L 5.11993,-24.3263 L 5.37868,-24.6213
 L 5.67371,-24.8801 L 6,-25.0981 L 6.35194,-25.2716 L 6.72354,-25.3978 L 7.10841,-25.4743 L 7.5,-25.5
 L 7.89157,-25.4743 L 8.27644,-25.3978 L 8.64804,-25.2716 L 9,-25.0981 L 9.32628,-24.8801 L 9.62131,-24.6213
 L 9.88005,-24.3263 L 10.0981,-24 L 10.2716,-23.648 L 10.3978,-23.2764 L 10.4743,-22.8916 L 10.5,-22.5
 L 10.4743,-22.1084 L 10.3978,-21.7235 L 10.2716,-21.3519 L 10.0981,-21 L 9.88005,-20.6737 L 9.62131,-20.3787
 L 9.32628,-20.1199 L 9,-19.9019 L 8.64804,-19.7283 L 8.27644,-19.6022 L 7.89157,-19.5257 L 7.5,-19.5
 z
M 52.1084,-19.5257 L 51.7235,-19.6022 L 51.3519,-19.7283 L 51,-19.9019 L 50.6737,-20.1199 L 50.3787,-20.3787
 L 50.1199,-20.6737 L 49.9019,-21 L 49.7284,-21.3519 L 49.6022,-21.7235 L 49.5257,-22.1084 L 49.5,-22.5
 L 49.5257,-22.8916 L 49.6022,-23.2764 L 49.7284,-23.648 L 49.9019,-24 L 50.1199,-24.3263 L 50.3787,-24.6213
 L 50.6737,-24.8801 L 51,-25.0981 L 51.3519,-25.2716 L 51.7235,-25.3978 L 52.1084,-25.4743 L 52.5,-25.5
 L 52.8916,-25.4743 L 53.2765,-25.3978 L 53.648,-25.2716 L 54,-25.0981 L 54.3263,-24.8801 L 54.6213,-24.6213
 L 54.8801,-24.3263 L 55.0981,-24 L 55.2716,-23.648 L 55.3978,-23.2764 L 55.4743,-22.8916 L 55.5,-22.5
 L 55.4743,-22.1084 L 55.3978,-21.7235 L 55.2716,-21.3519 L 55.0981,-21 L 54.8801,-20.6737 L 54.6213,-20.3787
 L 54.3263,-20.1199 L 54,-19.9019 L 53.648,-19.7283 L 53.2765,-19.6022 L 52.8916,-19.5257 L 52.5,-19.5
 z
M 67.1084,-19.5257 L 66.7235,-19.6022 L 66.3519,-19.7283 L 66,-19.9019 L 65.6737,-20.1199 L 65.3787,-20.3787
 L 65.1199,-20.6737 L 64.9019,-21 L 64.7284,-21.3519 L 64.6022,-21.7235 L 64.5257,-22.1084 L 64.5,-22.5
 L 64.5257,-22.8916 L 64.6022,-23.2764 L 64.7284,-23.648 L 64.9019,-24 L 65.1199,-24.3263 L 65.3787,-24.6213
 L 65.6737,-24.8801 L 66,-25.0981 L 66.3519,-25.2716 L 66.7235,-25.3978 L 67.1084,-25.4743 L 67.5,-25.5
 L 67.8916,-25.4743 L 68.2765,-25.3978 L 68.648,-25.2716 L 69,-25.0981 L 69.3263,-24.8801 L 69.6213,-24.6213
 L 69.8801,-24.3263 L 70.0981,-24 L 70.2716,-23.648 L 70.3978,-23.2764 L 70.4743,-22.8916 L 70.5,-22.5
 L 70.4743,-22.1084 L 70.3978,-21.7235 L 70.2716,-21.3519 L 70.0981,-21 L 69.8801,-20.6737 L 69.6213,-20.3787
 L 69.3263,-20.1199 L 69,-19.9019 L 68.648,-19.7283 L 68.2765,-19.6022 L 67.8916,-19.5257 L 67.5,-19.5
 z
M 97.1084,-19.5257 L 96.7235,-19.6022 L 96.3519,-19.7283 L 96,-19.9019 L 95.6737,-20.1199 L 95.3787,-20.3787
 L 95.1199,-20.6737 L 94.9019,-21 L 94.7284,-21.3519 L 94.6022,-21.7235 L 94.5257,-22.1084 L 94.5,-22.5
 L 94.5257,-22.8916 L 94.6022,-23.2764 L 94.7284,-23.648 L 94.9019,-24 L 95.1199,-24.3263 L 95.3787,-24.6213
 L 95.6737,-24.8801 L 96,-25.0981 L 96.3519,-25.2716 L 96.7235,-25.3978 L 97.1084,-25.4743 L 97.5,-25.5
 L 97.8916,-25.4743 L 98.2765,-25.3978 L 98.648,-25.2716 L 99,-25.0981 L 99.3263,-24.8801 L 99.6213,-24.6213
 L 99.8801,-24.3263 L 100.098,-24 L 100.272,-23.648 L 100.398,-23.2764 L 100.474,-22.8916 L 100.5,-22.5
 L 100.474,-22.1084 L 100.398,-21.7235 L 100.272,-21.3519 L 100.098,-21 L 99.8801,-20.6737 L 99.6213,-20.3787
 L 99.3263,-20.1199 L 99,-19.9019 L 98.648,-19.7283 L 98.2765,-19.6022 L 97.8916,-19.5257 L 97.5,-19.5
 z
M 37.1084,-19.5257 L 36.7235,-19.6022 L 36.3519,-19.7283 L 36,-19.9019 L 35.6737,-20.1199 L 35.3787,-20.3787
 L 35.1199,-20.6737 L 34.9019,-21 L 34.7284,-21.3519 L 34.6022,-21.7235 L 34.5257,-22.1084 L 34.5,-22.5
 L 34.5257,-22.8916 L 34.6022,-23.2764 L 34.7284,-23.648 L 34.9019,-24 L 35.1199,-24.3263 L 35.3787,-24.6213
 L 35.6737,-24.8801 L 36,-25.0981 L 36.3519,-25.2716 L 36.7235,-25.3978 L 37.1084,-25.4743 L 37.5,-25.5
 L 37.8916,-25.4743 L 38.2765,-25.3978 L 38.648,-25.2716 L 39,-25.0981 L 39.3263,-24.8801 L 39.6213,-24.6213
 L 39.8801,-24.3263 L 40.0981,-24 L 40.2716,-23.648 L 40.3978,-23.2764 L 40.4743,-22.8916 L 40.5,-22.5
 L 40.4743,-22.1084 L 40.3978,-21.7235 L 40.2716,-21.3519 L 40.0981,-21 L 39.8801,-20.6737 L 39.6213,-20.3787
 L 39.3263,-20.1199 L 39,-19.9019 L 38.648,-19.7283 L 38.2765,-19.6022 L 37.8916,-19.5257 L 37.5,-19.5
 z
M 22.1084,-19.5257 L 21.7235,-19.6022 L 21.3519,-19.7283 L 21,-19.9019 L 20.6737,-20.1199 L 20.3787,-20.3787
 L 20.1199,-20.6737 L 19.9019,-21 L 19.7283,-21.3519 L 19.6022,-21.7235 L 19.5257,-22.1084 L 19.5,-22.5
 L 19.5257,-22.8916 L 19.6022,-23.2764 L 19.7283,-23.648 L 19.9019,-24 L 20.1199,-24.3263 L 20.3787,-24.6213
 L 20.6737,-24.8801 L 21,-25.0981 L 21.3519,-25.2716 L 21.7235,-25.3978 L 22.1084,-25.4743 L 22.5,-25.5
 L 22.8916,-25.4743 L 23.2764,-25.3978 L 23.648,-25.2716 L 24,-25.0981 L 24.3263,-24.8801 L 24.6213,-24.6213
 L 24.8801,-24.3263 L 25.0981,-24 L 25.2716,-23.648 L 25.3978,-23.2764 L 25.4743,-22.8916 L 25.5,-22.5
 L 25.4743,-22.1084 L 25.3978,-21.7235 L 25.2716,-21.3519 L 25.0981,-21 L 24.8801,-20.6737 L 24.6213,-20.3787
 L 24.3263,-20.1199 L 24,-19.9019 L 23.648,-19.7283 L 23.2764,-19.6022 L 22.8916,-19.5257 L 22.5,-19.5
 z
M 112.108,-19.5257 L 111.724,-19.6022 L 111.352,-19.7283 L 111,-19.9019 L 110.674,-20.1199 L 110.379,-20.3787
 L 110.12,-20.6737 L 109.902,-21 L 109.728,-21.3519 L 109.602,-21.7235 L 109.526,-22.1084 L 109.5,-22.5
 L 109.526,-22.8916 L 109.602,-23.2764 L 109.728,-23.648 L 109.902,-24 L 110.12,-24.3263 L 110.379,-24.6213
 L 110.674,-24.8801 L 111,-25.0981 L 111.352,-25.2716 L 111.724,-25.3978 L 112.108,-25.4743 L 112.5,-25.5
 L 112.892,-25.4743 L 113.276,-25.3978 L 113.648,-25.2716 L 114,-25.0981 L 114.326,-24.8801 L 114.621,-24.6213
 L 114.88,-24.3263 L 115.098,-24 L 115.272,-23.648 L 115.398,-23.2764 L 115.474,-22.8916 L 115.5,-22.5
 L 115.474,-22.1084 L 115.398,-21.7235 L 115.272,-21.3519 L 115.098,-21 L 114.88,-20.6737 L 114.621,-20.3787
 L 114.326,-20.1199 L 114,-19.9019 L 113.648,-19.7283 L 113.276,-19.6022 L 112.892,-19.5257 L 112.5,-19.5
 z
M 82.1084,-19.5257 L 81.7235,-19.6022 L 81.3519,-19.7283 L 81,-19.9019 L 80.6737,-20.1199 L 80.3787,-20.3787
 L 80.1199,-20.6737 L 79.9019,-21 L 79.7284,-21.3519 L 79.6022,-21.7235 L 79.5257,-22.1084 L 79.5,-22.5
 L 79.5257,-22.8916 L 79.6022,-23.2764 L 79.7284,-23.648 L 79.9019,-24 L 80.1199,-24.3263 L 80.3787,-24.6213
 L 80.6737,-24.8801 L 81,-25.0981 L 81.3519,-25.2716 L 81.7235,-25.3978 L 82.1084,-25.4743 L 82.5,-25.5
 L 82.8916,-25.4743 L 83.2765,-25.3978 L 83.648,-25.2716 L 84,-25.0981 L 84.3263,-24.8801 L 84.6213,-24.6213
 L 84.8801,-24.3263 L 85.0981,-24 L 85.2716,-23.648 L 85.3978,-23.2764 L 85.4743,-22.8916 L 85.5,-22.5
 L 85.4743,-22.1084 L 85.3978,-21.7235 L 85.2716,-21.3519 L 85.0981,-21 L 84.8801,-20.6737 L 84.6213,-20.3787
 L 84.3263,-20.1199 L 84,-19.9019 L 83.648,-19.7283 L 83.2765,-19.6022 L 82.8916,-19.5257 L 82.5,-19.5
 z
M 7.10841,-4.52567 L 6.72354,-4.60222 L 6.35194,-4.72835 L 6,-4.90192 L 5.67371,-5.11993 L 5.37868,-5.37868
 L 5.11993,-5.67371 L 4.90192,-6 L 4.72835,-6.35194 L 4.60222,-6.72354 L 4.52567,-7.10841 L 4.5,-7.5
 L 4.52567,-7.89157 L 4.60222,-8.27644 L 4.72835,-8.64804 L 4.90192,-9 L 5.11993,-9.32628 L 5.37868,-9.62131
 L 5.67371,-9.88005 L 6,-10.0981 L 6.35194,-10.2716 L 6.72354,-10.3978 L 7.10841,-10.4743 L 7.5,-10.5
 L 7.89157,-10.4743 L 8.27644,-10.3978 L 8.64804,-10.2716 L 9,-10.0981 L 9.32628,-9.88005 L 9.62131,-9.62131
 L 9.88005,-9.32628 L 10.0981,-9 L 10.2716,-8.64804 L 10.3978,-8.27644 L 10.4743,-7.89157 L 10.5,-7.5
 L 10.4743,-7.10841 L 10.3978,-6.72354 L 10.2716,-6.35194 L 10.0981,-6 L 9.88005,-5.67371 L 9.62131,-5.37868
 L 9.32628,-5.11993 L 9,-4.90192 L 8.64804,-4.72835 L 8.27644,-4.60222 L 7.89157,-4.52567 L 7.5,-4.5
 z
M 22.1084,-4.52567 L 21.7235,-4.60222 L 21.3519,-4.72835 L 21,-4.90192 L 20.6737,-5.11993 L 20.3787,-5.37868
 L 20.1199,-5.67371 L 19.9019,-6 L 19.7283,-6.35194 L 19.6022,-6.72354 L 19.5257,-7.10841 L 19.5,-7.5
 L 19.5257,-7.89157 L 19.6022,-8.27644 L 19.7283,-8.64804 L 19.9019,-9 L 20.1199,-9.32628 L 20.3787,-9.62131
 L 20.6737,-9.88005 L 21,-10.0981 L 21.3519,-10.2716 L 21.7235,-10.3978 L 22.1084,-10.4743 L 22.5,-10.5
 L 22.8916,-10.4743 L 23.2764,-10.3978 L 23.648,-10.2716 L 24,-10.0981 L 24.3263,-9.88005 L 24.6213,-9.62131
 L 24.8801,-9.32628 L 25.0981,-9 L 25.2716,-8.64804 L 25.3978,-8.27644 L 25.4743,-7.89157 L 25.5,-7.5
 L 25.4743,-7.10841 L 25.3978,-6.72354 L 25.2716,-6.35194 L 25.0981,-6 L 24.8801,-5.67371 L 24.6213,-5.37868
 L 24.3263,-5.11993 L 24,-4.90192 L 23.648,-4.72835 L 23.2764,-4.60222 L 22.8916,-4.52567 L 22.5,-4.5
 z
M 97.1084,-4.52567 L 96.7235,-4.60222 L 96.3519,-4.72835 L 96,-4.90192 L 95.6737,-5.11993 L 95.3787,-5.37868
 L 95.1199,-5.67371 L 94.9019,-6 L 94.7284,-6.35194 L 94.6022,-6.72354 L 94.5257,-7.10841 L 94.5,-7.5
 L 94.5257,-7.89157 L 94.6022,-8.27644 L 94.7284,-8.64804 L 94.9019,-9 L 95.1199,-9.32628 L 95.3787,-9.62131
 L 95.6737,-9.88005 L 96,-10.0981 L 96.3519,-10.2716 L 96.7235,-10.3978 L 97.1084,-10.4743 L 97.5,-10.5
 L 97.8916,-10.4743 L 98.2765,-10.3978 L 98.648,-10.2716 L 99,-10.0981 L 99.3263,-9.88005 L 99.6213,-9.62131
 L 99.8801,-9.32628 L 100.098,-9 L 100.272,-8.64804 L 100.398,-8.27644 L 100.474,-7.89157 L 100.5,-7.5
 L 100.474,-7.10841 L 100.398,-6.72354 L 100.272,-6.35194 L 100.098,-6 L 99.8801,-5.67371 L 99.6213,-5.37868
 L 99.3263,-5.11993 L 99,-4.90192 L 98.648,-4.72835 L 98.2765,-4.60222 L 97.8916,-4.52567 L 97.5,-4.5
 z
M 112.108,-4.52567 L 111.724,-4.60222 L 111.352,-4.72835 L 111,-4.90192 L 110.674,-5.11993 L 110.379,-5.37868
 L 110.12,-5.67371 L 109.902,-6 L 109.728,-6.35194 L 109.602,-6.72354 L 109.526,-7.10841 L 109.5,-7.5
 L 109.526,-7.89157 L 109.602,-8.27644 L 109.728,-8.64804 L 109.902,-9 L 110.12,-9.32628 L 110.379,-9.62131
 L 110.674,-9.88005 L 111,-10.0981 L 111.352,-10.2716 L 111.724,-10.3978 L 112.108,-10.4743 L 112.5,-10.5
 L 112.892,-10.4743 L 113.276,-10.3978 L 113.648,-10.2716 L 114,-10.0981 L 114.326,-9.88005 L 114.621,-9.62131
 L 114.88,-9.32628 L 115.098,-9 L 115.272,-8.64804 L 115.398,-8.27644 L 115.474,-7.89157 L 115.5,-7.5
 L 115.474,-7.10841 L 115.398,-6.72354 L 115.272,-6.35194 L 115.098,-6 L 114.88,-5.67371 L 114.621,-5.37868
 L 114.326,-5.11993 L 114,-4.90192 L 113.648,-4.72835 L 113.276,-4.60222 L 112.892,-4.52567 L 112.5,-4.5
 z
M 82.1084,-4.52567 L 81.7235,-4.60222 L 81.3519,-4.72835 L 81,-4.90192 L 80.6737,-5.11993 L 80.3787,-5.37868
 L 80.1199,-5.67371 L 79.9019,-6 L 79.7284,-6.35194 L 79.6022,-6.72354 L 79.5257,-7.10841 L 79.5,-7.5
 L 79.5257,-7.89157 L 79.6022,-8.27644 L 79.7284,-8.64804 L 79.9019,-9 L 80.1199,-9.32628 L 80.3787,-9.62131
 L 80.6737,-9.88005 L 81,-10.0981 L 81.3519,-10.2716 L 81.7235,-10.3978 L 82.1084,-10.4743 L 82.5,-10.5
 L 82.8916,-10.4743 L 83.2765,-10.3978 L 83.648,-10.2716 L 84,-10.0981 L 84.3263,-9.88005 L 84.6213,-9.62131
 L 84.8801,-9.32628 L 85.0981,-9 L 85.2716,-8.64804 L 85.3978,-8.27644 L 85.4743,-7.89157 L 85.5,-7.5
 L 85.4743,-7.10841 L 85.3978,-6.72354 L 85.2716,-6.35194 L 85.0981,-6 L 84.8801,-5.67371 L 84.6213,-5.37868
 L 84.3263,-5.11993 L 84,-4.90192 L 83.648,-4.72835 L 83.2765,-4.60222 L 82.8916,-4.52567 L 82.5,-4.5
 z
M 52.1084,-4.52567 L 51.7235,-4.60222 L 51.3519,-4.72835 L 51,-4.90192 L 50.6737,-5.11993 L 50.3787,-5.37868
 L 50.1199,-5.67371 L 49.9019,-6 L 49.7284,-6.35194 L 49.6022,-6.72354 L 49.5257,-7.10841 L 49.5,-7.5
 L 49.5257,-7.89157 L 49.6022,-8.27644 L 49.7284,-8.64804 L 49.9019,-9 L 50.1199,-9.32628 L 50.3787,-9.62131
 L 50.6737,-9.88005 L 51,-10.0981 L 51.3519,-10.2716 L 51.7235,-10.3978 L 52.1084,-10.4743 L 52.5,-10.5
 L 52.8916,-10.4743 L 53.2765,-10.3978 L 53.648,-10.2716 L 54,-10.0981 L 54.3263,-9.88005 L 54.6213,-9.62131
 L 54.8801,-9.32628 L 55.0981,-9 L 55.2716,-8.64804 L 55.3978,-8.27644 L 55.4743,-7.89157 L 55.5,-7.5
 L 55.4743,-7.10841 L 55.3978,-6.72354 L 55.2716,-6.35194 L 55.0981,-6 L 54.8801,-5.67371 L 54.6213,-5.37868
 L 54.3263,-5.11993 L 54,-4.90192 L 53.648,-4.72835 L 53.2765,-4.60222 L 52.8916,-4.52567 L 52.5,-4.5
 z
M 67.1084,-4.52567 L 66.7235,-4.60222 L 66.3519,-4.72835 L 66,-4.90192 L 65.6737,-5.11993 L 65.3787,-5.37868
 L 65.1199,-5.67371 L 64.9019,-6 L 64.7284,-6.35194 L 64.6022,-6.72354 L 64.5257,-7.10841 L 64.5,-7.5
 L 64.5257,-7.89157 L 64.6022,-8.27644 L 64.7284,-8.64804 L 64.9019,-9 L 65.1199,-9.32628 L 65.3787,-9.62131
 L 65.6737,-9.88005 L 66,-10.0981 L 66.3519,-10.2716 L 66.7235,-10.3978 L 67.1084,-10.4743 L 67.5,-10.5
 L 67.8916,-10.4743 L 68.2765,-10.3978 L 68.648,-10.2716 L 69,-10.0981 L 69.3263,-9.88005 L 69.6213,-9.62131
 L 69.8801,-9.32628 L 70.0981,-9 L 70.2716,-8.64804 L 70.3978,-8.27644 L 70.4743,-7.89157 L 70.5,-7.5
 L 70.4743,-7.10841 L 70.3978,-6.72354 L 70.2716,-6.35194 L 70.0981,-6 L 69.8801,-5.67371 L 69.6213,-5.37868
 L 69.3263,-5.11993 L 69,-4.90192 L 68.648,-4.72835 L 68.2765,-4.60222 L 67.8916,-4.52567 L 67.5,-4.5
 z
M 37.1084,-4.52567 L 36.7235,-4.60222 L 36.3519,-4.72835 L 36,-4.90192 L 35.6737,-5.11993 L 35.3787,-5.37868
 L 35.1199,-5.67371 L 34.9019,-6 L 34.7284,-6.35194 L 34.6022,-6.72354 L 34.5257,-7.10841 L 34.5,-7.5
 L 34.5257,-7.89157 L 34.6022,-8.27644 L 34.7284,-8.64804 L 34.9019,-9 L 35.1199,-9.32628 L 35.3787,-9.62131
 L 35.6737,-9.88005 L 36,-10.0981 L 36.3519,-10.2716 L 36.7235,-10.3978 L 37.1084,-10.4743 L 37.5,-10.5
 L 37.8916,-10.4743 L 38.2765,-10.3978 L 38.648,-10.2716 L 39,-10.0981 L 39.3263,-9.88005 L 39.6213,-9.62131
 L 39.8801,-9.32628 L 40.0981,-9 L 40.2716,-8.64804 L 40.3978,-8.27644 L 40.4743,-7.89157 L 40.5,-7.5
 L 40.4743,-7.10841 L 40.3978,-6.72354 L 40.2716,-6.35194 L 40.0981,-6 L 39.8801,-5.67371 L 39.6213,-5.37868
 L 39.3263,-5.11993 L 39,-4.90192 L 38.648,-4.72835 L 38.2765,-4.60222 L 37.8916,-4.52567 L 37.5,-4.5
 z
" stroke="black" fill="lightgray" stroke-width="0.5"/>
</svg>
