  0
SECTION
  2
BLOCKS
  0
ENDSEC
  0
SECTION
  2
ENTITIES
  0
LINE
  8
0
 10
114.158
 20
1.53778
 11
114.799
 21
1.66537
  0
LINE
  8
0
 10
114.799
 20
1.66537
 11
115.418
 21
1.87561
  0
LINE
  8
0
 10
115.418
 20
1.87561
 11
116.005
 21
2.16489
  0
LINE
  8
0
 10
116.005
 20
2.16489
 11
116.549
 21
2.52824
  0
LINE
  8
0
 10
116.549
 20
2.52824
 11
117.041
 21
2.95947
  0
LINE
  8
0
 10
117.041
 20
2.95947
 11
117.472
 21
3.4512
  0
LINE
  8
0
 10
117.472
 20
3.4512
 11
117.835
 21
3.99501
  0
LINE
  8
0
 10
117.835
 20
3.99501
 11
118.124
 21
4.58159
  0
LINE
  8
0
 10
118.124
 20
4.58159
 11
118.335
 21
5.20091
  0
LINE
  8
0
 10
118.335
 20
5.20091
 11
118.462
 21
5.84238
  0
LINE
  8
0
 10
118.462
 20
5.84238
 11
118.505
 21
6.49501
  0
LINE
  8
0
 10
118.505
 20
6.49501
 11
118.505
 21
38.505
  0
LINE
  8
0
 10
118.505
 20
38.505
 11
118.462
 21
39.1576
  0
LINE
  8
0
 10
118.462
 20
39.1576
 11
118.335
 21
39.7991
  0
LINE
  8
0
 10
118.335
 20
39.7991
 11
118.124
 21
40.4184
  0
LINE
  8
0
 10
118.124
 20
40.4184
 11
117.835
 21
41.005
  0
LINE
  8
0
 10
117.835
 20
41.005
 11
117.472
 21
41.5488
  0
LINE
  8
0
 10
117.472
 20
41.5488
 11
117.041
 21
42.0405
  0
LINE
  8
0
 10
117.041
 20
42.0405
 11
116.549
 21
42.4718
  0
LINE
  8
0
 10
116.549
 20
42.4718
 11
116.005
 21
42.8351
  0
LINE
  8
0
 10
116.005
 20
42.8351
 11
115.418
 21
43.1244
  0
LINE
  8
0
 10
115.418
 20
43.1244
 11
114.799
 21
43.3346
  0
LINE
  8
0
 10
114.799
 20
43.3346
 11
114.158
 21
43.4622
  0
LINE
  8
0
 10
114.158
 20
43.4622
 11
113.505
 21
43.505
  0
LINE
  8
0
 10
113.505
 20
43.505
 11
6.49501
 21
43.505
  0
LINE
  8
0
 10
6.49501
 20
43.505
 11
5.84238
 21
43.4622
  0
LINE
  8
0
 10
5.84238
 20
43.4622
 11
5.20091
 21
43.3346
  0
LINE
  8
0
 10
5.20091
 20
43.3346
 11
4.58159
 21
43.1244
  0
LINE
  8
0
 10
4.58159
 20
43.1244
 11
3.99501
 21
42.8351
  0
LINE
  8
0
 10
3.99501
 20
42.8351
 11
3.4512
 21
42.4718
  0
LINE
  8
0
 10
3.4512
 20
42.4718
 11
2.95947
 21
42.0405
  0
LINE
  8
0
 10
2.95947
 20
42.0405
 11
2.52824
 21
41.5488
  0
LINE
  8
0
 10
2.52824
 20
41.5488
 11
2.16489
 21
41.005
  0
LINE
  8
0
 10
2.16489
 20
41.005
 11
1.87561
 21
40.4184
  0
LINE
  8
0
 10
1.87561
 20
40.4184
 11
1.66537
 21
39.7991
  0
LINE
  8
0
 10
1.66537
 20
39.7991
 11
1.53778
 21
39.1576
  0
LINE
  8
0
 10
1.53778
 20
39.1576
 11
1.49501
 21
38.505
  0
LINE
  8
0
 10
1.49501
 20
38.505
 11
1.49501
 21
6.49501
  0
LINE
  8
0
 10
1.49501
 20
6.49501
 11
1.53778
 21
5.84238
  0
LINE
  8
0
 10
1.53778
 20
5.84238
 11
1.66537
 21
5.20091
  0
LINE
  8
0
 10
1.66537
 20
5.20091
 11
1.87561
 21
4.58159
  0
LINE
  8
0
 10
1.87561
 20
4.58159
 11
2.16489
 21
3.99501
  0
LINE
  8
0
 10
2.16489
 20
3.99501
 11
2.52824
 21
3.4512
  0
LINE
  8
0
 10
2.52824
 20
3.4512
 11
2.95947
 21
2.95947
  0
LINE
  8
0
 10
2.95947
 20
2.95947
 11
3.4512
 21
2.52824
  0
LINE
  8
0
 10
3.4512
 20
2.52824
 11
3.99501
 21
2.16489
  0
LINE
  8
0
 10
3.99501
 20
2.16489
 11
4.58159
 21
1.87561
  0
LINE
  8
0
 10
4.58159
 20
1.87561
 11
5.20091
 21
1.66537
  0
LINE
  8
0
 10
5.20091
 20
1.66537
 11
5.84238
 21
1.53778
  0
LINE
  8
0
 10
5.84238
 20
1.53778
 11
6.49501
 21
1.49501
  0
LINE
  8
0
 10
6.49501
 20
1.49501
 11
113.505
 21
1.49501
  0
LINE
  8
0
 10
113.505
 20
1.49501
 11
114.158
 21
1.53778
  0
LINE
  8
0
 10
22.1084
 20
34.5257
 11
21.7235
 21
34.6022
  0
LINE
  8
0
 10
21.7235
 20
34.6022
 11
21.3519
 21
34.7284
  0
LINE
  8
0
 10
21.3519
 20
34.7284
 11
21
 21
34.9019
  0
LINE
  8
0
 10
21
 20
34.9019
 11
20.6737
 21
35.1199
  0
LINE
  8
0
 10
20.6737
 20
35.1199
 11
20.3787
 21
35.3787
  0
LINE
  8
0
 10
20.3787
 20
35.3787
 11
20.1199
 21
35.6737
  0
LINE
  8
0
 10
20.1199
 20
35.6737
 11
19.9019
 21
36
  0
LINE
  8
0
 10
19.9019
 20
36
 11
19.7283
 21
36.3519
  0
LINE
  8
0
 10
19.7283
 20
36.3519
 11
19.6022
 21
36.7235
  0
LINE
  8
0
 10
19.6022
 20
36.7235
 11
19.5257
 21
37.1084
  0
LINE
  8
0
 10
19.5257
 20
37.1084
 11
19.5
 21
37.5
  0
LINE
  8
0
 10
19.5
 20
37.5
 11
19.5257
 21
37.8916
  0
LINE
  8
0
 10
19.5257
 20
37.8916
 11
19.6022
 21
38.2765
  0
LINE
  8
0
 10
19.6022
 20
38.2765
 11
19.7283
 21
38.648
  0
LINE
  8
0
 10
19.7283
 20
38.648
 11
19.9019
 21
39
  0
LINE
  8
0
 10
19.9019
 20
39
 11
20.1199
 21
39.3263
  0
LINE
  8
0
 10
20.1199
 20
39.3263
 11
20.3787
 21
39.6213
  0
LINE
  8
0
 10
20.3787
 20
39.6213
 11
20.6737
 21
39.8801
  0
LINE
  8
0
 10
20.6737
 20
39.8801
 11
21
 21
40.0981
  0
LINE
  8
0
 10
21
 20
40.0981
 11
21.3519
 21
40.2716
  0
LINE
  8
0
 10
21.3519
 20
40.2716
 11
21.7235
 21
40.3978
  0
LINE
  8
0
 10
21.7235
 20
40.3978
 11
22.1084
 21
40.4743
  0
LINE
  8
0
 10
22.1084
 20
40.4743
 11
22.5
 21
40.5
  0
LINE
  8
0
 10
22.5
 20
40.5
 11
22.8916
 21
40.4743
  0
LINE
  8
0
 10
22.8916
 20
40.4743
 11
23.2764
 21
40.3978
  0
LINE
  8
0
 10
23.2764
 20
40.3978
 11
23.648
 21
40.2716
  0
LINE
  8
0
 10
23.648
 20
40.2716
 11
24
 21
40.0981
  0
LINE
  8
0
 10
24
 20
40.0981
 11
24.3263
 21
39.8801
  0
LINE
  8
0
 10
24.3263
 20
39.8801
 11
24.6213
 21
39.6213
  0
LINE
  8
0
 10
24.6213
 20
39.6213
 11
24.8801
 21
39.3263
  0
LINE
  8
0
 10
24.8801
 20
39.3263
 11
25.0981
 21
39
  0
LINE
  8
0
 10
25.0981
 20
39
 11
25.2716
 21
38.648
  0
LINE
  8
0
 10
25.2716
 20
38.648
 11
25.3978
 21
38.2765
  0
LINE
  8
0
 10
25.3978
 20
38.2765
 11
25.4743
 21
37.8916
  0
LINE
  8
0
 10
25.4743
 20
37.8916
 11
25.5
 21
37.5
  0
LINE
  8
0
 10
25.5
 20
37.5
 11
25.4743
 21
37.1084
  0
LINE
  8
0
 10
25.4743
 20
37.1084
 11
25.3978
 21
36.7235
  0
LINE
  8
0
 10
25.3978
 20
36.7235
 11
25.2716
 21
36.3519
  0
LINE
  8
0
 10
25.2716
 20
36.3519
 11
25.0981
 21
36
  0
LINE
  8
0
 10
25.0981
 20
36
 11
24.8801
 21
35.6737
  0
LINE
  8
0
 10
24.8801
 20
35.6737
 11
24.6213
 21
35.3787
  0
LINE
  8
0
 10
24.6213
 20
35.3787
 11
24.3263
 21
35.1199
  0
LINE
  8
0
 10
24.3263
 20
35.1199
 11
24
 21
34.9019
  0
LINE
  8
0
 10
24
 20
34.9019
 11
23.648
 21
34.7284
  0
LINE
  8
0
 10
23.648
 20
34.7284
 11
23.2764
 21
34.6022
  0
LINE
  8
0
 10
23.2764
 20
34.6022
 11
22.8916
 21
34.5257
  0
LINE
  8
0
 10
22.8916
 20
34.5257
 11
22.5
 21
34.5
  0
LINE
  8
0
 10
22.5
 20
34.5
 11
22.1084
 21
34.5257
  0
LINE
  8
0
 10
97.1084
 20
34.5257
 11
96.7235
 21
34.6022
  0
LINE
  8
0
 10
96.7235
 20
34.6022
 11
96.3519
 21
34.7284
  0
LINE
  8
0
 10
96.3519
 20
34.7284
 11
96
 21
34.9019
  0
LINE
  8
0
 10
96
 20
34.9019
 11
95.6737
 21
35.1199
  0
LINE
  8
0
 10
95.6737
 20
35.1199
 11
95.3787
 21
35.3787
  0
LINE
  8
0
 10
95.3787
 20
35.3787
 11
95.1199
 21
35.6737
  0
LINE
  8
0
 10
95.1199
 20
35.6737
 11
94.9019
 21
36
  0
LINE
  8
0
 10
94.9019
 20
36
 11
94.7284
 21
36.3519
  0
LINE
  8
0
 10
94.7284
 20
36.3519
 11
94.6022
 21
36.7235
  0
LINE
  8
0
 10
94.6022
 20
36.7235
 11
94.5257
 21
37.1084
  0
LINE
  8
0
 10
94.5257
 20
37.1084
 11
94.5
 21
37.5
  0
LINE
  8
0
 10
94.5
 20
37.5
 11
94.5257
 21
37.8916
  0
LINE
  8
0
 10
94.5257
 20
37.8916
 11
94.6022
 21
38.2765
  0
LINE
  8
0
 10
94.6022
 20
38.2765
 11
94.7284
 21
38.648
  0
LINE
  8
0
 10
94.7284
 20
38.648
 11
94.9019
 21
39
  0
LINE
  8
0
 10
94.9019
 20
39
 11
95.1199
 21
39.3263
  0
LINE
  8
0
 10
95.1199
 20
39.3263
 11
95.3787
 21
39.6213
  0
LINE
  8
0
 10
95.3787
 20
39.6213
 11
95.6737
 21
39.8801
  0
LINE
  8
0
 10
95.6737
 20
39.8801
 11
96
 21
40.0981
  0
LINE
  8
0
 10
96
 20
40.0981
 11
96.3519
 21
40.2716
  0
LINE
  8
0
 10
96.3519
 20
40.2716
 11
96.7235
 21
40.3978
  0
LINE
  8
0
 10
96.7235
 20
40.3978
 11
97.1084
 21
40.4743
  0
LINE
  8
0
 10
97.1084
 20
40.4743
 11
97.5
 21
40.5
  0
LINE
  8
0
 10
97.5
 20
40.5
 11
97.8916
 21
40.4743
  0
LINE
  8
0
 10
97.8916
 20
40.4743
 11
98.2765
 21
40.3978
  0
LINE
  8
0
 10
98.2765
 20
40.3978
 11
98.648
 21
40.2716
  0
LINE
  8
0
 10
98.648
 20
40.2716
 11
99
 21
40.0981
  0
LINE
  8
0
 10
99
 20
40.0981
 11
99.3263
 21
39.8801
  0
LINE
  8
0
 10
99.3263
 20
39.8801
 11
99.6213
 21
39.6213
  0
LINE
  8
0
 10
99.6213
 20
39.6213
 11
99.8801
 21
39.3263
  0
LINE
  8
0
 10
99.8801
 20
39.3263
 11
100.098
 21
39
  0
LINE
  8
0
 10
100.098
 20
39
 11
100.272
 21
38.648
  0
LINE
  8
0
 10
100.272
 20
38.648
 11
100.398
 21
38.2765
  0
LINE
  8
0
 10
100.398
 20
38.2765
 11
100.474
 21
37.8916
  0
LINE
  8
0
 10
100.474
 20
37.8916
 11
100.5
 21
37.5
  0
LINE
  8
0
 10
100.5
 20
37.5
 11
100.474
 21
37.1084
  0
LINE
  8
0
 10
100.474
 20
37.1084
 11
100.398
 21
36.7235
  0
LINE
  8
0
 10
100.398
 20
36.7235
 11
100.272
 21
36.3519
  0
LINE
  8
0
 10
100.272
 20
36.3519
 11
100.098
 21
36
  0
LINE
  8
0
 10
100.098
 20
36
 11
99.8801
 21
35.6737
  0
LINE
  8
0
 10
99.8801
 20
35.6737
 11
99.6213
 21
35.3787
  0
LINE
  8
0
 10
99.6213
 20
35.3787
 11
99.3263
 21
35.1199
  0
LINE
  8
0
 10
99.3263
 20
35.1199
 11
99
 21
34.9019
  0
LINE
  8
0
 10
99
 20
34.9019
 11
98.648
 21
34.7284
  0
LINE
  8
0
 10
98.648
 20
34.7284
 11
98.2765
 21
34.6022
  0
LINE
  8
0
 10
98.2765
 20
34.6022
 11
97.8916
 21
34.5257
  0
LINE
  8
0
 10
97.8916
 20
34.5257
 11
97.5
 21
34.5
  0
LINE
  8
0
 10
97.5
 20
34.5
 11
97.1084
 21
34.5257
  0
LINE
  8
0
 10
7.10841
 20
34.5257
 11
6.72354
 21
34.6022
  0
LINE
  8
0
 10
6.72354
 20
34.6022
 11
6.35194
 21
34.7284
  0
LINE
  8
0
 10
6.35194
 20
34.7284
 11
6
 21
34.9019
  0
LINE
  8
0
 10
6
 20
34.9019
 11
5.67371
 21
35.1199
  0
LINE
  8
0
 10
5.67371
 20
35.1199
 11
5.37868
 21
35.3787
  0
LINE
  8
0
 10
5.37868
 20
35.3787
 11
5.11993
 21
35.6737
  0
LINE
  8
0
 10
5.11993
 20
35.6737
 11
4.90192
 21
36
  0
LINE
  8
0
 10
4.90192
 20
36
 11
4.72835
 21
36.3519
  0
LINE
  8
0
 10
4.72835
 20
36.3519
 11
4.60222
 21
36.7235
  0
LINE
  8
0
 10
4.60222
 20
36.7235
 11
4.52567
 21
37.1084
  0
LINE
  8
0
 10
4.52567
 20
37.1084
 11
4.5
 21
37.5
  0
LINE
  8
0
 10
4.5
 20
37.5
 11
4.52567
 21
37.8916
  0
LINE
  8
0
 10
4.52567
 20
37.8916
 11
4.60222
 21
38.2765
  0
LINE
  8
0
 10
4.60222
 20
38.2765
 11
4.72835
 21
38.648
  0
LINE
  8
0
 10
4.72835
 20
38.648
 11
4.90192
 21
39
  0
LINE
  8
0
 10
4.90192
 20
39
 11
5.11993
 21
39.3263
  0
LINE
  8
0
 10
5.11993
 20
39.3263
 11
5.37868
 21
39.6213
  0
LINE
  8
0
 10
5.37868
 20
39.6213
 11
5.67371
 21
39.8801
  0
LINE
  8
0
 10
5.67371
 20
39.8801
 11
6
 21
40.0981
  0
LINE
  8
0
 10
6
 20
40.0981
 11
6.35194
 21
40.2716
  0
LINE
  8
0
 10
6.35194
 20
40.2716
 11
6.72354
 21
40.3978
  0
LINE
  8
0
 10
6.72354
 20
40.3978
 11
7.10841
 21
40.4743
  0
LINE
  8
0
 10
7.10841
 20
40.4743
 11
7.5
 21
40.5
  0
LINE
  8
0
 10
7.5
 20
40.5
 11
7.89157
 21
40.4743
  0
LINE
  8
0
 10
7.89157
 20
40.4743
 11
8.27644
 21
40.3978
  0
LINE
  8
0
 10
8.27644
 20
40.3978
 11
8.64804
 21
40.2716
  0
LINE
  8
0
 10
8.64804
 20
40.2716
 11
9
 21
40.0981
  0
LINE
  8
0
 10
9
 20
40.0981
 11
9.32628
 21
39.8801
  0
LINE
  8
0
 10
9.32628
 20
39.8801
 11
9.62131
 21
39.6213
  0
LINE
  8
0
 10
9.62131
 20
39.6213
 11
9.88005
 21
39.3263
  0
LINE
  8
0
 10
9.88005
 20
39.3263
 11
10.0981
 21
39
  0
LINE
  8
0
 10
10.0981
 20
39
 11
10.2716
 21
38.648
  0
LINE
  8
0
 10
10.2716
 20
38.648
 11
10.3978
 21
38.2765
  0
LINE
  8
0
 10
10.3978
 20
38.2765
 11
10.4743
 21
37.8916
  0
LINE
  8
0
 10
10.4743
 20
37.8916
 11
10.5
 21
37.5
  0
LINE
  8
0
 10
10.5
 20
37.5
 11
10.4743
 21
37.1084
  0
LINE
  8
0
 10
10.4743
 20
37.1084
 11
10.3978
 21
36.7235
  0
LINE
  8
0
 10
10.3978
 20
36.7235
 11
10.2716
 21
36.3519
  0
LINE
  8
0
 10
10.2716
 20
36.3519
 11
10.0981
 21
36
  0
LINE
  8
0
 10
10.0981
 20
36
 11
9.88005
 21
35.6737
  0
LINE
  8
0
 10
9.88005
 20
35.6737
 11
9.62131
 21
35.3787
  0
LINE
  8
0
 10
9.62131
 20
35.3787
 11
9.32628
 21
35.1199
  0
LINE
  8
0
 10
9.32628
 20
35.1199
 11
9
 21
34.9019
  0
LINE
  8
0
 10
9
 20
34.9019
 11
8.64804
 21
34.7284
  0
LINE
  8
0
 10
8.64804
 20
34.7284
 11
8.27644
 21
34.6022
  0
LINE
  8
0
 10
8.27644
 20
34.6022
 11
7.89157
 21
34.5257
  0
LINE
  8
0
 10
7.89157
 20
34.5257
 11
7.5
 21
34.5
  0
LINE
  8
0
 10
7.5
 20
34.5
 11
7.10841
 21
34.5257
  0
LINE
  8
0
 10
37.1084
 20
34.5257
 11
36.7235
 21
34.6022
  0
LINE
  8
0
 10
36.7235
 20
34.6022
 11
36.3519
 21
34.7284
  0
LINE
  8
0
 10
36.3519
 20
34.7284
 11
36
 21
34.9019
  0
LINE
  8
0
 10
36
 20
34.9019
 11
35.6737
 21
35.1199
  0
LINE
  8
0
 10
35.6737
 20
35.1199
 11
35.3787
 21
35.3787
  0
LINE
  8
0
 10
35.3787
 20
35.3787
 11
35.1199
 21
35.6737
  0
LINE
  8
0
 10
35.1199
 20
35.6737
 11
34.9019
 21
36
  0
LINE
  8
0
 10
34.9019
 20
36
 11
34.7284
 21
36.3519
  0
LINE
  8
0
 10
34.7284
 20
36.3519
 11
34.6022
 21
36.7235
  0
LINE
  8
0
 10
34.6022
 20
36.7235
 11
34.5257
 21
37.1084
  0
LINE
  8
0
 10
34.5257
 20
37.1084
 11
34.5
 21
37.5
  0
LINE
  8
0
 10
34.5
 20
37.5
 11
34.5257
 21
37.8916
  0
LINE
  8
0
 10
34.5257
 20
37.8916
 11
34.6022
 21
38.2765
  0
LINE
  8
0
 10
34.6022
 20
38.2765
 11
34.7284
 21
38.648
  0
LINE
  8
0
 10
34.7284
 20
38.648
 11
34.9019
 21
39
  0
LINE
  8
0
 10
34.9019
 20
39
 11
35.1199
 21
39.3263
  0
LINE
  8
0
 10
35.1199
 20
39.3263
 11
35.3787
 21
39.6213
  0
LINE
  8
0
 10
35.3787
 20
39.6213
 11
35.6737
 21
39.8801
  0
LINE
  8
0
 10
35.6737
 20
39.8801
 11
36
 21
40.0981
  0
LINE
  8
0
 10
36
 20
40.0981
 11
36.3519
 21
40.2716
  0
LINE
  8
0
 10
36.3519
 20
40.2716
 11
36.7235
 21
40.3978
  0
LINE
  8
0
 10
36.7235
 20
40.3978
 11
37.1084
 21
40.4743
  0
LINE
  8
0
 10
37.1084
 20
40.4743
 11
37.5
 21
40.5
  0
LINE
  8
0
 10
37.5
 20
40.5
 11
37.8916
 21
40.4743
  0
LINE
  8
0
 10
37.8916
 20
40.4743
 11
38.2765
 21
40.3978
  0
LINE
  8
0
 10
38.2765
 20
40.3978
 11
38.648
 21
40.2716
  0
LINE
  8
0
 10
38.648
 20
40.2716
 11
39
 21
40.0981
  0
LINE
  8
0
 10
39
 20
40.0981
 11
39.3263
 21
39.8801
  0
LINE
  8
0
 10
39.3263
 20
39.8801
 11
39.6213
 21
39.6213
  0
LINE
  8
0
 10
39.6213
 20
39.6213
 11
39.8801
 21
39.3263
  0
LINE
  8
0
 10
39.8801
 20
39.3263
 11
40.0981
 21
39
  0
LINE
  8
0
 10
40.0981
 20
39
 11
40.2716
 21
38.648
  0
LINE
  8
0
 10
40.2716
 20
38.648
 11
40.3978
 21
38.2765
  0
LINE
  8
0
 10
40.3978
 20
38.2765
 11
40.4743
 21
37.8916
  0
LINE
  8
0
 10
40.4743
 20
37.8916
 11
40.5
 21
37.5
  0
LINE
  8
0
 10
40.5
 20
37.5
 11
40.4743
 21
37.1084
  0
LINE
  8
0
 10
40.4743
 20
37.1084
 11
40.3978
 21
36.7235
  0
LINE
  8
0
 10
40.3978
 20
36.7235
 11
40.2716
 21
36.3519
  0
LINE
  8
0
 10
40.2716
 20
36.3519
 11
40.0981
 21
36
  0
LINE
  8
0
 10
40.0981
 20
36
 11
39.8801
 21
35.6737
  0
LINE
  8
0
 10
39.8801
 20
35.6737
 11
39.6213
 21
35.3787
  0
LINE
  8
0
 10
39.6213
 20
35.3787
 11
39.3263
 21
35.1199
  0
LINE
  8
0
 10
39.3263
 20
35.1199
 11
39
 21
34.9019
  0
LINE
  8
0
 10
39
 20
34.9019
 11
38.648
 21
34.7284
  0
LINE
  8
0
 10
38.648
 20
34.7284
 11
38.2765
 21
34.6022
  0
LINE
  8
0
 10
38.2765
 20
34.6022
 11
37.8916
 21
34.5257
  0
LINE
  8
0
 10
37.8916
 20
34.5257
 11
37.5
 21
34.5
  0
LINE
  8
0
 10
37.5
 20
34.5
 11
37.1084
 21
34.5257
  0
LINE
  8
0
 10
52.1084
 20
34.5257
 11
51.7235
 21
34.6022
  0
LINE
  8
0
 10
51.7235
 20
34.6022
 11
51.3519
 21
34.7284
  0
LINE
  8
0
 10
51.3519
 20
34.7284
 11
51
 21
34.9019
  0
LINE
  8
0
 10
51
 20
34.9019
 11
50.6737
 21
35.1199
  0
LINE
  8
0
 10
50.6737
 20
35.1199
 11
50.3787
 21
35.3787
  0
LINE
  8
0
 10
50.3787
 20
35.3787
 11
50.1199
 21
35.6737
  0
LINE
  8
0
 10
50.1199
 20
35.6737
 11
49.9019
 21
36
  0
LINE
  8
0
 10
49.9019
 20
36
 11
49.7284
 21
36.3519
  0
LINE
  8
0
 10
49.7284
 20
36.3519
 11
49.6022
 21
36.7235
  0
LINE
  8
0
 10
49.6022
 20
36.7235
 11
49.5257
 21
37.1084
  0
LINE
  8
0
 10
49.5257
 20
37.1084
 11
49.5
 21
37.5
  0
LINE
  8
0
 10
49.5
 20
37.5
 11
49.5257
 21
37.8916
  0
LINE
  8
0
 10
49.5257
 20
37.8916
 11
49.6022
 21
38.2765
  0
LINE
  8
0
 10
49.6022
 20
38.2765
 11
49.7284
 21
38.648
  0
LINE
  8
0
 10
49.7284
 20
38.648
 11
49.9019
 21
39
  0
LINE
  8
0
 10
49.9019
 20
39
 11
50.1199
 21
39.3263
  0
LINE
  8
0
 10
50.1199
 20
39.3263
 11
50.3787
 21
39.6213
  0
LINE
  8
0
 10
50.3787
 20
39.6213
 11
50.6737
 21
39.8801
  0
LINE
  8
0
 10
50.6737
 20
39.8801
 11
51
 21
40.0981
  0
LINE
  8
0
 10
51
 20
40.0981
 11
51.3519
 21
40.2716
  0
LINE
  8
0
 10
51.3519
 20
40.2716
 11
51.7235
 21
40.3978
  0
LINE
  8
0
 10
51.7235
 20
40.3978
 11
52.1084
 21
40.4743
  0
LINE
  8
0
 10
52.1084
 20
40.4743
 11
52.5
 21
40.5
  0
LINE
  8
0
 10
52.5
 20
40.5
 11
52.8916
 21
40.4743
  0
LINE
  8
0
 10
52.8916
 20
40.4743
 11
53.2765
 21
40.3978
  0
LINE
  8
0
 10
53.2765
 20
40.3978
 11
53.648
 21
40.2716
  0
LINE
  8
0
 10
53.648
 20
40.2716
 11
54
 21
40.0981
  0
LINE
  8
0
 10
54
 20
40.0981
 11
54.3263
 21
39.8801
  0
LINE
  8
0
 10
54.3263
 20
39.8801
 11
54.6213
 21
39.6213
  0
LINE
  8
0
 10
54.6213
 20
39.6213
 11
54.8801
 21
39.3263
  0
LINE
  8
0
 10
54.8801
 20
39.3263
 11
55.0981
 21
39
  0
LINE
  8
0
 10
55.0981
 20
39
 11
55.2716
 21
38.648
  0
LINE
  8
0
 10
55.2716
 20
38.648
 11
55.3978
 21
38.2765
  0
LINE
  8
0
 10
55.3978
 20
38.2765
 11
55.4743
 21
37.8916
  0
LINE
  8
0
 10
55.4743
 20
37.8916
 11
55.5
 21
37.5
  0
LINE
  8
0
 10
55.5
 20
37.5
 11
55.4743
 21
37.1084
  0
LINE
  8
0
 10
55.4743
 20
37.1084
 11
55.3978
 21
36.7235
  0
LINE
  8
0
 10
55.3978
 20
36.7235
 11
55.2716
 21
36.3519
  0
LINE
  8
0
 10
55.2716
 20
36.3519
 11
55.0981
 21
36
  0
LINE
  8
0
 10
55.0981
 20
36
 11
54.8801
 21
35.6737
  0
LINE
  8
0
 10
54.8801
 20
35.6737
 11
54.6213
 21
35.3787
  0
LINE
  8
0
 10
54.6213
 20
35.3787
 11
54.3263
 21
35.1199
  0
LINE
  8
0
 10
54.3263
 20
35.1199
 11
54
 21
34.9019
  0
LINE
  8
0
 10
54
 20
34.9019
 11
53.648
 21
34.7284
  0
LINE
  8
0
 10
53.648
 20
34.7284
 11
53.2765
 21
34.6022
  0
LINE
  8
0
 10
53.2765
 20
34.6022
 11
52.8916
 21
34.5257
  0
LINE
  8
0
 10
52.8916
 20
34.5257
 11
52.5
 21
34.5
  0
LINE
  8
0
 10
52.5
 20
34.5
 11
52.1084
 21
34.5257
  0
LINE
  8
0
 10
82.1084
 20
34.5257
 11
81.7235
 21
34.6022
  0
LINE
  8
0
 10
81.7235
 20
34.6022
 11
81.3519
 21
34.7284
  0
LINE
  8
0
 10
81.3519
 20
34.7284
 11
81
 21
34.9019
  0
LINE
  8
0
 10
81
 20
34.9019
 11
80.6737
 21
35.1199
  0
LINE
  8
0
 10
80.6737
 20
35.1199
 11
80.3787
 21
35.3787
  0
LINE
  8
0
 10
80.3787
 20
35.3787
 11
80.1199
 21
35.6737
  0
LINE
  8
0
 10
80.1199
 20
35.6737
 11
79.9019
 21
36
  0
LINE
  8
0
 10
79.9019
 20
36
 11
79.7284
 21
36.3519
  0
LINE
  8
0
 10
79.7284
 20
36.3519
 11
79.6022
 21
36.7235
  0
LINE
  8
0
 10
79.6022
 20
36.7235
 11
79.5257
 21
37.1084
  0
LINE
  8
0
 10
79.5257
 20
37.1084
 11
79.5
 21
37.5
  0
LINE
  8
0
 10
79.5
 20
37.5
 11
79.5257
 21
37.8916
  0
LINE
  8
0
 10
79.5257
 20
37.8916
 11
79.6022
 21
38.2765
  0
LINE
  8
0
 10
79.6022
 20
38.2765
 11
79.7284
 21
38.648
  0
LINE
  8
0
 10
79.7284
 20
38.648
 11
79.9019
 21
39
  0
LINE
  8
0
 10
79.9019
 20
39
 11
80.1199
 21
39.3263
  0
LINE
  8
0
 10
80.1199
 20
39.3263
 11
80.3787
 21
39.6213
  0
LINE
  8
0
 10
80.3787
 20
39.6213
 11
80.6737
 21
39.8801
  0
LINE
  8
0
 10
80.6737
 20
39.8801
 11
81
 21
40.0981
  0
LINE
  8
0
 10
81
 20
40.0981
 11
81.3519
 21
40.2716
  0
LINE
  8
0
 10
81.3519
 20
40.2716
 11
81.7235
 21
40.3978
  0
LINE
  8
0
 10
81.7235
 20
40.3978
 11
82.1084
 21
40.4743
  0
LINE
  8
0
 10
82.1084
 20
40.4743
 11
82.5
 21
40.5
  0
LINE
  8
0
 10
82.5
 20
40.5
 11
82.8916
 21
40.4743
  0
LINE
  8
0
 10
82.8916
 20
40.4743
 11
83.2765
 21
40.3978
  0
LINE
  8
0
 10
83.2765
 20
40.3978
 11
83.648
 21
40.2716
  0
LINE
  8
0
 10
83.648
 20
40.2716
 11
84
 21
40.0981
  0
LINE
  8
0
 10
84
 20
40.0981
 11
84.3263
 21
39.8801
  0
LINE
  8
0
 10
84.3263
 20
39.8801
 11
84.6213
 21
39.6213
  0
LINE
  8
0
 10
84.6213
 20
39.6213
 11
84.8801
 21
39.3263
  0
LINE
  8
0
 10
84.8801
 20
39.3263
 11
85.0981
 21
39
  0
LINE
  8
0
 10
85.0981
 20
39
 11
85.2716
 21
38.648
  0
LINE
  8
0
 10
85.2716
 20
38.648
 11
85.3978
 21
38.2765
  0
LINE
  8
0
 10
85.3978
 20
38.2765
 11
85.4743
 21
37.8916
  0
LINE
  8
0
 10
85.4743
 20
37.8916
 11
85.5
 21
37.5
  0
LINE
  8
0
 10
85.5
 20
37.5
 11
85.4743
 21
37.1084
  0
LINE
  8
0
 10
85.4743
 20
37.1084
 11
85.3978
 21
36.7235
  0
LINE
  8
0
 10
85.3978
 20
36.7235
 11
85.2716
 21
36.3519
  0
LINE
  8
0
 10
85.2716
 20
36.3519
 11
85.0981
 21
36
  0
LINE
  8
0
 10
85.0981
 20
36
 11
84.8801
 21
35.6737
  0
LINE
  8
0
 10
84.8801
 20
35.6737
 11
84.6213
 21
35.3787
  0
LINE
  8
0
 10
84.6213
 20
35.3787
 11
84.3263
 21
35.1199
  0
LINE
  8
0
 10
84.3263
 20
35.1199
 11
84
 21
34.9019
  0
LINE
  8
0
 10
84
 20
34.9019
 11
83.648
 21
34.7284
  0
LINE
  8
0
 10
83.648
 20
34.7284
 11
83.2765
 21
34.6022
  0
LINE
  8
0
 10
83.2765
 20
34.6022
 11
82.8916
 21
34.5257
  0
LINE
  8
0
 10
82.8916
 20
34.5257
 11
82.5
 21
34.5
  0
LINE
  8
0
 10
82.5
 20
34.5
 11
82.1084
 21
34.5257
  0
LINE
  8
0
 10
112.108
 20
34.5257
 11
111.724
 21
34.6022
  0
LINE
  8
0
 10
111.724
 20
34.6022
 11
111.352
 21
34.7284
  0
LINE
  8
0
 10
111.352
 20
34.7284
 11
111
 21
34.9019
  0
LINE
  8
0
 10
111
 20
34.9019
 11
110.674
 21
35.1199
  0
LINE
  8
0
 10
110.674
 20
35.1199
 11
110.379
 21
35.3787
  0
LINE
  8
0
 10
110.379
 20
35.3787
 11
110.12
 21
35.6737
  0
LINE
  8
0
 10
110.12
 20
35.6737
 11
109.902
 21
36
  0
LINE
  8
0
 10
109.902
 20
36
 11
109.728
 21
36.3519
  0
LINE
  8
0
 10
109.728
 20
36.3519
 11
109.602
 21
36.7235
  0
LINE
  8
0
 10
109.602
 20
36.7235
 11
109.526
 21
37.1084
  0
LINE
  8
0
 10
109.526
 20
37.1084
 11
109.5
 21
37.5
  0
LINE
  8
0
 10
109.5
 20
37.5
 11
109.526
 21
37.8916
  0
LINE
  8
0
 10
109.526
 20
37.8916
 11
109.602
 21
38.2765
  0
LINE
  8
0
 10
109.602
 20
38.2765
 11
109.728
 21
38.648
  0
LINE
  8
0
 10
109.728
 20
38.648
 11
109.902
 21
39
  0
LINE
  8
0
 10
109.902
 20
39
 11
110.12
 21
39.3263
  0
LINE
  8
0
 10
110.12
 20
39.3263
 11
110.379
 21
39.6213
  0
LINE
  8
0
 10
110.379
 20
39.6213
 11
110.674
 21
39.8801
  0
LINE
  8
0
 10
110.674
 20
39.8801
 11
111
 21
40.0981
  0
LINE
  8
0
 10
111
 20
40.0981
 11
111.352
 21
40.2716
  0
LINE
  8
0
 10
111.352
 20
40.2716
 11
111.724
 21
40.3978
  0
LINE
  8
0
 10
111.724
 20
40.3978
 11
112.108
 21
40.4743
  0
LINE
  8
0
 10
112.108
 20
40.4743
 11
112.5
 21
40.5
  0
LINE
  8
0
 10
112.5
 20
40.5
 11
112.892
 21
40.4743
  0
LINE
  8
0
 10
112.892
 20
40.4743
 11
113.276
 21
40.3978
  0
LINE
  8
0
 10
113.276
 20
40.3978
 11
113.648
 21
40.2716
  0
LINE
  8
0
 10
113.648
 20
40.2716
 11
114
 21
40.0981
  0
LINE
  8
0
 10
114
 20
40.0981
 11
114.326
 21
39.8801
  0
LINE
  8
0
 10
114.326
 20
39.8801
 11
114.621
 21
39.6213
  0
LINE
  8
0
 10
114.621
 20
39.6213
 11
114.88
 21
39.3263
  0
LINE
  8
0
 10
114.88
 20
39.3263
 11
115.098
 21
39
  0
LINE
  8
0
 10
115.098
 20
39
 11
115.272
 21
38.648
  0
LINE
  8
0
 10
115.272
 20
38.648
 11
115.398
 21
38.2765
  0
LINE
  8
0
 10
115.398
 20
38.2765
 11
115.474
 21
37.8916
  0
LINE
  8
0
 10
115.474
 20
37.8916
 11
115.5
 21
37.5
  0
LINE
  8
0
 10
115.5
 20
37.5
 11
115.474
 21
37.1084
  0
LINE
  8
0
 10
115.474
 20
37.1084
 11
115.398
 21
36.7235
  0
LINE
  8
0
 10
115.398
 20
36.7235
 11
115.272
 21
36.3519
  0
LINE
  8
0
 10
115.272
 20
36.3519
 11
115.098
 21
36
  0
LINE
  8
0
 10
115.098
 20
36
 11
114.88
 21
35.6737
  0
LINE
  8
0
 10
114.88
 20
35.6737
 11
114.621
 21
35.3787
  0
LINE
  8
0
 10
114.621
 20
35.3787
 11
114.326
 21
35.1199
  0
LINE
  8
0
 10
114.326
 20
35.1199
 11
114
 21
34.9019
  0
LINE
  8
0
 10
114
 20
34.9019
 11
113.648
 21
34.7284
  0
LINE
  8
0
 10
113.648
 20
34.7284
 11
113.276
 21
34.6022
  0
LINE
  8
0
 10
113.276
 20
34.6022
 11
112.892
 21
34.5257
  0
LINE
  8
0
 10
112.892
 20
34.5257
 11
112.5
 21
34.5
  0
LINE
  8
0
 10
112.5
 20
34.5
 11
112.108
 21
34.5257
  0
LINE
  8
0
 10
67.1084
 20
34.5257
 11
66.7235
 21
34.6022
  0
LINE
  8
0
 10
66.7235
 20
34.6022
 11
66.3519
 21
34.7284
  0
LINE
  8
0
 10
66.3519
 20
34.7284
 11
66
 21
34.9019
  0
LINE
  8
0
 10
66
 20
34.9019
 11
65.6737
 21
35.1199
  0
LINE
  8
0
 10
65.6737
 20
35.1199
 11
65.3787
 21
35.3787
  0
LINE
  8
0
 10
65.3787
 20
35.3787
 11
65.1199
 21
35.6737
  0
LINE
  8
0
 10
65.1199
 20
35.6737
 11
64.9019
 21
36
  0
LINE
  8
0
 10
64.9019
 20
36
 11
64.7284
 21
36.3519
  0
LINE
  8
0
 10
64.7284
 20
36.3519
 11
64.6022
 21
36.7235
  0
LINE
  8
0
 10
64.6022
 20
36.7235
 11
64.5257
 21
37.1084
  0
LINE
  8
0
 10
64.5257
 20
37.1084
 11
64.5
 21
37.5
  0
LINE
  8
0
 10
64.5
 20
37.5
 11
64.5257
 21
37.8916
  0
LINE
  8
0
 10
64.5257
 20
37.8916
 11
64.6022
 21
38.2765
  0
LINE
  8
0
 10
64.6022
 20
38.2765
 11
64.7284
 21
38.648
  0
LINE
  8
0
 10
64.7284
 20
38.648
 11
64.9019
 21
39
  0
LINE
  8
0
 10
64.9019
 20
39
 11
65.1199
 21
39.3263
  0
LINE
  8
0
 10
65.1199
 20
39.3263
 11
65.3787
 21
39.6213
  0
LINE
  8
0
 10
65.3787
 20
39.6213
 11
65.6737
 21
39.8801
  0
LINE
  8
0
 10
65.6737
 20
39.8801
 11
66
 21
40.0981
  0
LINE
  8
0
 10
66
 20
40.0981
 11
66.3519
 21
40.2716
  0
LINE
  8
0
 10
66.3519
 20
40.2716
 11
66.7235
 21
40.3978
  0
LINE
  8
0
 10
66.7235
 20
40.3978
 11
67.1084
 21
40.4743
  0
LINE
  8
0
 10
67.1084
 20
40.4743
 11
67.5
 21
40.5
  0
LINE
  8
0
 10
67.5
 20
40.5
 11
67.8916
 21
40.4743
  0
LINE
  8
0
 10
67.8916
 20
40.4743
 11
68.2765
 21
40.3978
  0
LINE
  8
0
 10
68.2765
 20
40.3978
 11
68.648
 21
40.2716
  0
LINE
  8
0
 10
68.648
 20
40.2716
 11
69
 21
40.0981
  0
LINE
  8
0
 10
69
 20
40.0981
 11
69.3263
 21
39.8801
  0
LINE
  8
0
 10
69.3263
 20
39.8801
 11
69.6213
 21
39.6213
  0
LINE
  8
0
 10
69.6213
 20
39.6213
 11
69.8801
 21
39.3263
  0
LINE
  8
0
 10
69.8801
 20
39.3263
 11
70.0981
 21
39
  0
LINE
  8
0
 10
70.0981
 20
39
 11
70.2716
 21
38.648
  0
LINE
  8
0
 10
70.2716
 20
38.648
 11
70.3978
 21
38.2765
  0
LINE
  8
0
 10
70.3978
 20
38.2765
 11
70.4743
 21
37.8916
  0
LINE
  8
0
 10
70.4743
 20
37.8916
 11
70.5
 21
37.5
  0
LINE
  8
0
 10
70.5
 20
37.5
 11
70.4743
 21
37.1084
  0
LINE
  8
0
 10
70.4743
 20
37.1084
 11
70.3978
 21
36.7235
  0
LINE
  8
0
 10
70.3978
 20
36.7235
 11
70.2716
 21
36.3519
  0
LINE
  8
0
 10
70.2716
 20
36.3519
 11
70.0981
 21
36
  0
LINE
  8
0
 10
70.0981
 20
36
 11
69.8801
 21
35.6737
  0
LINE
  8
0
 10
69.8801
 20
35.6737
 11
69.6213
 21
35.3787
  0
LINE
  8
0
 10
69.6213
 20
35.3787
 11
69.3263
 21
35.1199
  0
LINE
  8
0
 10
69.3263
 20
35.1199
 11
69
 21
34.9019
  0
LINE
  8
0
 10
69
 20
34.9019
 11
68.648
 21
34.7284
  0
LINE
  8
0
 10
68.648
 20
34.7284
 11
68.2765
 21
34.6022
  0
LINE
  8
0
 10
68.2765
 20
34.6022
 11
67.8916
 21
34.5257
  0
LINE
  8
0
 10
67.8916
 20
34.5257
 11
67.5
 21
34.5
  0
LINE
  8
0
 10
67.5
 20
34.5
 11
67.1084
 21
34.5257
  0
LINE
  8
0
 10
7.10841
 20
19.5257
 11
6.72354
 21
19.6022
  0
LINE
  8
0
 10
6.72354
 20
19.6022
 11
6.35194
 21
19.7283
  0
LINE
  8
0
 10
6.35194
 20
19.7283
 11
6
 21
19.9019
  0
LINE
  8
0
 10
6
 20
19.9019
 11
5.67371
 21
20.1199
  0
LINE
  8
0
 10
5.67371
 20
20.1199
 11
5.37868
 21
20.3787
  0
LINE
  8
0
 10
5.37868
 20
20.3787
 11
5.11993
 21
20.6737
  0
LINE
  8
0
 10
5.11993
 20
20.6737
 11
4.90192
 21
21
  0
LINE
  8
0
 10
4.90192
 20
21
 11
4.72835
 21
21.3519
  0
LINE
  8
0
 10
4.72835
 20
21.3519
 11
4.60222
 21
21.7235
  0
LINE
  8
0
 10
4.60222
 20
21.7235
 11
4.52567
 21
22.1084
  0
LINE
  8
0
 10
4.52567
 20
22.1084
 11
4.5
 21
22.5
  0
LINE
  8
0
 10
4.5
 20
22.5
 11
4.52567
 21
22.8916
  0
LINE
  8
0
 10
4.52567
 20
22.8916
 11
4.60222
 21
23.2764
  0
LINE
  8
0
 10
4.60222
 20
23.2764
 11
4.72835
 21
23.648
  0
LINE
  8
0
 10
4.72835
 20
23.648
 11
4.90192
 21
24
  0
LINE
  8
0
 10
4.90192
 20
24
 11
5.11993
 21
24.3263
  0
LINE
  8
0
 10
5.11993
 20
24.3263
 11
5.37868
 21
24.6213
  0
LINE
  8
0
 10
5.37868
 20
24.6213
 11
5.67371
 21
24.8801
  0
LINE
  8
0
 10
5.67371
 20
24.8801
 11
6
 21
25.0981
  0
LINE
  8
0
 10
6
 20
25.0981
 11
6.35194
 21
25.2716
  0
LINE
  8
0
 10
6.35194
 20
25.2716
 11
6.72354
 21
25.3978
  0
LINE
  8
0
 10
6.72354
 20
25.3978
 11
7.10841
 21
25.4743
  0
LINE
  8
0
 10
7.10841
 20
25.4743
 11
7.5
 21
25.5
  0
LINE
  8
0
 10
7.5
 20
25.5
 11
7.89157
 21
25.4743
  0
LINE
  8
0
 10
7.89157
 20
25.4743
 11
8.27644
 21
25.3978
  0
LINE
  8
0
 10
8.27644
 20
25.3978
 11
8.64804
 21
25.2716
  0
LINE
  8
0
 10
8.64804
 20
25.2716
 11
9
 21
25.0981
  0
LINE
  8
0
 10
9
 20
25.0981
 11
9.32628
 21
24.8801
  0
LINE
  8
0
 10
9.32628
 20
24.8801
 11
9.62131
 21
24.6213
  0
LINE
  8
0
 10
9.62131
 20
24.6213
 11
9.88005
 21
24.3263
  0
LINE
  8
0
 10
9.88005
 20
24.3263
 11
10.0981
 21
24
  0
LINE
  8
0
 10
10.0981
 20
24
 11
10.2716
 21
23.648
  0
LINE
  8
0
 10
10.2716
 20
23.648
 11
10.3978
 21
23.2764
  0
LINE
  8
0
 10
10.3978
 20
23.2764
 11
10.4743
 21
22.8916
  0
LINE
  8
0
 10
10.4743
 20
22.8916
 11
10.5
 21
22.5
  0
LINE
  8
0
 10
10.5
 20
22.5
 11
10.4743
 21
22.1084
  0
LINE
  8
0
 10
10.4743
 20
22.1084
 11
10.3978
 21
21.7235
  0
LINE
  8
0
 10
10.3978
 20
21.7235
 11
10.2716
 21
21.3519
  0
LINE
  8
0
 10
10.2716
 20
21.3519
 11
10.0981
 21
21
  0
LINE
  8
0
 10
10.0981
 20
21
 11
9.88005
 21
20.6737
  0
LINE
  8
0
 10
9.88005
 20
20.6737
 11
9.62131
 21
20.3787
  0
LINE
  8
0
 10
9.62131
 20
20.3787
 11
9.32628
 21
20.1199
  0
LINE
  8
0
 10
9.32628
 20
20.1199
 11
9
 21
19.9019
  0
LINE
  8
0
 10
9
 20
19.9019
 11
8.64804
 21
19.7283
  0
LINE
  8
0
 10
8.64804
 20
19.7283
 11
8.27644
 21
19.6022
  0
LINE
  8
0
 10
8.27644
 20
19.6022
 11
7.89157
 21
19.5257
  0
LINE
  8
0
 10
7.89157
 20
19.5257
 11
7.5
 21
19.5
  0
LINE
  8
0
 10
7.5
 20
19.5
 11
7.10841
 21
19.5257
  0
LINE
  8
0
 10
52.1084
 20
19.5257
 11
51.7235
 21
19.6022
  0
LINE
  8
0
 10
51.7235
 20
19.6022
 11
51.3519
 21
19.7283
  0
LINE
  8
0
 10
51.3519
 20
19.7283
 11
51
 21
19.9019
  0
LINE
  8
0
 10
51
 20
19.9019
 11
50.6737
 21
20.1199
  0
LINE
  8
0
 10
50.6737
 20
20.1199
 11
50.3787
 21
20.3787
  0
LINE
  8
0
 10
50.3787
 20
20.3787
 11
50.1199
 21
20.6737
  0
LINE
  8
0
 10
50.1199
 20
20.6737
 11
49.9019
 21
21
  0
LINE
  8
0
 10
49.9019
 20
21
 11
49.7284
 21
21.3519
  0
LINE
  8
0
 10
49.7284
 20
21.3519
 11
49.6022
 21
21.7235
  0
LINE
  8
0
 10
49.6022
 20
21.7235
 11
49.5257
 21
22.1084
  0
LINE
  8
0
 10
49.5257
 20
22.1084
 11
49.5
 21
22.5
  0
LINE
  8
0
 10
49.5
 20
22.5
 11
49.5257
 21
22.8916
  0
LINE
  8
0
 10
49.5257
 20
22.8916
 11
49.6022
 21
23.2764
  0
LINE
  8
0
 10
49.6022
 20
23.2764
 11
49.7284
 21
23.648
  0
LINE
  8
0
 10
49.7284
 20
23.648
 11
49.9019
 21
24
  0
LINE
  8
0
 10
49.9019
 20
24
 11
50.1199
 21
24.3263
  0
LINE
  8
0
 10
50.1199
 20
24.3263
 11
50.3787
 21
24.6213
  0
LINE
  8
0
 10
50.3787
 20
24.6213
 11
50.6737
 21
24.8801
  0
LINE
  8
0
 10
50.6737
 20
24.8801
 11
51
 21
25.0981
  0
LINE
  8
0
 10
51
 20
25.0981
 11
51.3519
 21
25.2716
  0
LINE
  8
0
 10
51.3519
 20
25.2716
 11
51.7235
 21
25.3978
  0
LINE
  8
0
 10
51.7235
 20
25.3978
 11
52.1084
 21
25.4743
  0
LINE
  8
0
 10
52.1084
 20
25.4743
 11
52.5
 21
25.5
  0
LINE
  8
0
 10
52.5
 20
25.5
 11
52.8916
 21
25.4743
  0
LINE
  8
0
 10
52.8916
 20
25.4743
 11
53.2765
 21
25.3978
  0
LINE
  8
0
 10
53.2765
 20
25.3978
 11
53.648
 21
25.2716
  0
LINE
  8
0
 10
53.648
 20
25.2716
 11
54
 21
25.0981
  0
LINE
  8
0
 10
54
 20
25.0981
 11
54.3263
 21
24.8801
  0
LINE
  8
0
 10
54.3263
 20
24.8801
 11
54.6213
 21
24.6213
  0
LINE
  8
0
 10
54.6213
 20
24.6213
 11
54.8801
 21
24.3263
  0
LINE
  8
0
 10
54.8801
 20
24.3263
 11
55.0981
 21
24
  0
LINE
  8
0
 10
55.0981
 20
24
 11
55.2716
 21
23.648
  0
LINE
  8
0
 10
55.2716
 20
23.648
 11
55.3978
 21
23.2764
  0
LINE
  8
0
 10
55.3978
 20
23.2764
 11
55.4743
 21
22.8916
  0
LINE
  8
0
 10
55.4743
 20
22.8916
 11
55.5
 21
22.5
  0
LINE
  8
0
 10
55.5
 20
22.5
 11
55.4743
 21
22.1084
  0
LINE
  8
0
 10
55.4743
 20
22.1084
 11
55.3978
 21
21.7235
  0
LINE
  8
0
 10
55.3978
 20
21.7235
 11
55.2716
 21
21.3519
  0
LINE
  8
0
 10
55.2716
 20
21.3519
 11
55.0981
 21
21
  0
LINE
  8
0
 10
55.0981
 20
21
 11
54.8801
 21
20.6737
  0
LINE
  8
0
 10
54.8801
 20
20.6737
 11
54.6213
 21
20.3787
  0
LINE
  8
0
 10
54.6213
 20
20.3787
 11
54.3263
 21
20.1199
  0
LINE
  8
0
 10
54.3263
 20
20.1199
 11
54
 21
19.9019
  0
LINE
  8
0
 10
54
 20
19.9019
 11
53.648
 21
19.7283
  0
LINE
  8
0
 10
53.648
 20
19.7283
 11
53.2765
 21
19.6022
  0
LINE
  8
0
 10
53.2765
 20
19.6022
 11
52.8916
 21
19.5257
  0
LINE
  8
0
 10
52.8916
 20
19.5257
 11
52.5
 21
19.5
  0
LINE
  8
0
 10
52.5
 20
19.5
 11
52.1084
 21
19.5257
  0
LINE
  8
0
 10
67.1084
 20
19.5257
 11
66.7235
 21
19.6022
  0
LINE
  8
0
 10
66.7235
 20
19.6022
 11
66.3519
 21
19.7283
  0
LINE
  8
0
 10
66.3519
 20
19.7283
 11
66
 21
19.9019
  0
LINE
  8
0
 10
66
 20
19.9019
 11
65.6737
 21
20.1199
  0
LINE
  8
0
 10
65.6737
 20
20.1199
 11
65.3787
 21
20.3787
  0
LINE
  8
0
 10
65.3787
 20
20.3787
 11
65.1199
 21
20.6737
  0
LINE
  8
0
 10
65.1199
 20
20.6737
 11
64.9019
 21
21
  0
LINE
  8
0
 10
64.9019
 20
21
 11
64.7284
 21
21.3519
  0
LINE
  8
0
 10
64.7284
 20
21.3519
 11
64.6022
 21
21.7235
  0
LINE
  8
0
 10
64.6022
 20
21.7235
 11
64.5257
 21
22.1084
  0
LINE
  8
0
 10
64.5257
 20
22.1084
 11
64.5
 21
22.5
  0
LINE
  8
0
 10
64.5
 20
22.5
 11
64.5257
 21
22.8916
  0
LINE
  8
0
 10
64.5257
 20
22.8916
 11
64.6022
 21
23.2764
  0
LINE
  8
0
 10
64.6022
 20
23.2764
 11
64.7284
 21
23.648
  0
LINE
  8
0
 10
64.7284
 20
23.648
 11
64.9019
 21
24
  0
LINE
  8
0
 10
64.9019
 20
24
 11
65.1199
 21
24.3263
  0
LINE
  8
0
 10
65.1199
 20
24.3263
 11
65.3787
 21
24.6213
  0
LINE
  8
0
 10
65.3787
 20
24.6213
 11
65.6737
 21
24.8801
  0
LINE
  8
0
 10
65.6737
 20
24.8801
 11
66
 21
25.0981
  0
LINE
  8
0
 10
66
 20
25.0981
 11
66.3519
 21
25.2716
  0
LINE
  8
0
 10
66.3519
 20
25.2716
 11
66.7235
 21
25.3978
  0
LINE
  8
0
 10
66.7235
 20
25.3978
 11
67.1084
 21
25.4743
  0
LINE
  8
0
 10
67.1084
 20
25.4743
 11
67.5
 21
25.5
  0
LINE
  8
0
 10
67.5
 20
25.5
 11
67.8916
 21
25.4743
  0
LINE
  8
0
 10
67.8916
 20
25.4743
 11
68.2765
 21
25.3978
  0
LINE
  8
0
 10
68.2765
 20
25.3978
 11
68.648
 21
25.2716
  0
LINE
  8
0
 10
68.648
 20
25.2716
 11
69
 21
25.0981
  0
LINE
  8
0
 10
69
 20
25.0981
 11
69.3263
 21
24.8801
  0
LINE
  8
0
 10
69.3263
 20
24.8801
 11
69.6213
 21
24.6213
  0
LINE
  8
0
 10
69.6213
 20
24.6213
 11
69.8801
 21
24.3263
  0
LINE
  8
0
 10
69.8801
 20
24.3263
 11
70.0981
 21
24
  0
LINE
  8
0
 10
70.0981
 20
24
 11
70.2716
 21
23.648
  0
LINE
  8
0
 10
70.2716
 20
23.648
 11
70.3978
 21
23.2764
  0
LINE
  8
0
 10
70.3978
 20
23.2764
 11
70.4743
 21
22.8916
  0
LINE
  8
0
 10
70.4743
 20
22.8916
 11
70.5
 21
22.5
  0
LINE
  8
0
 10
70.5
 20
22.5
 11
70.4743
 21
22.1084
  0
LINE
  8
0
 10
70.4743
 20
22.1084
 11
70.3978
 21
21.7235
  0
LINE
  8
0
 10
70.3978
 20
21.7235
 11
70.2716
 21
21.3519
  0
LINE
  8
0
 10
70.2716
 20
21.3519
 11
70.0981
 21
21
  0
LINE
  8
0
 10
70.0981
 20
21
 11
69.8801
 21
20.6737
  0
LINE
  8
0
 10
69.8801
 20
20.6737
 11
69.6213
 21
20.3787
  0
LINE
  8
0
 10
69.6213
 20
20.3787
 11
69.3263
 21
20.1199
  0
LINE
  8
0
 10
69.3263
 20
20.1199
 11
69
 21
19.9019
  0
LINE
  8
0
 10
69
 20
19.9019
 11
68.648
 21
19.7283
  0
LINE
  8
0
 10
68.648
 20
19.7283
 11
68.2765
 21
19.6022
  0
LINE
  8
0
 10
68.2765
 20
19.6022
 11
67.8916
 21
19.5257
  0
LINE
  8
0
 10
67.8916
 20
19.5257
 11
67.5
 21
19.5
  0
LINE
  8
0
 10
67.5
 20
19.5
 11
67.1084
 21
19.5257
  0
LINE
  8
0
 10
97.1084
 20
19.5257
 11
96.7235
 21
19.6022
  0
LINE
  8
0
 10
96.7235
 20
19.6022
 11
96.3519
 21
19.7283
  0
LINE
  8
0
 10
96.3519
 20
19.7283
 11
96
 21
19.9019
  0
LINE
  8
0
 10
96
 20
19.9019
 11
95.6737
 21
20.1199
  0
LINE
  8
0
 10
95.6737
 20
20.1199
 11
95.3787
 21
20.3787
  0
LINE
  8
0
 10
95.3787
 20
20.3787
 11
95.1199
 21
20.6737
  0
LINE
  8
0
 10
95.1199
 20
20.6737
 11
94.9019
 21
21
  0
LINE
  8
0
 10
94.9019
 20
21
 11
94.7284
 21
21.3519
  0
LINE
  8
0
 10
94.7284
 20
21.3519
 11
94.6022
 21
21.7235
  0
LINE
  8
0
 10
94.6022
 20
21.7235
 11
94.5257
 21
22.1084
  0
LINE
  8
0
 10
94.5257
 20
22.1084
 11
94.5
 21
22.5
  0
LINE
  8
0
 10
94.5
 20
22.5
 11
94.5257
 21
22.8916
  0
LINE
  8
0
 10
94.5257
 20
22.8916
 11
94.6022
 21
23.2764
  0
LINE
  8
0
 10
94.6022
 20
23.2764
 11
94.7284
 21
23.648
  0
LINE
  8
0
 10
94.7284
 20
23.648
 11
94.9019
 21
24
  0
LINE
  8
0
 10
94.9019
 20
24
 11
95.1199
 21
24.3263
  0
LINE
  8
0
 10
95.1199
 20
24.3263
 11
95.3787
 21
24.6213
  0
LINE
  8
0
 10
95.3787
 20
24.6213
 11
95.6737
 21
24.8801
  0
LINE
  8
0
 10
95.6737
 20
24.8801
 11
96
 21
25.0981
  0
LINE
  8
0
 10
96
 20
25.0981
 11
96.3519
 21
25.2716
  0
LINE
  8
0
 10
96.3519
 20
25.2716
 11
96.7235
 21
25.3978
  0
LINE
  8
0
 10
96.7235
 20
25.3978
 11
97.1084
 21
25.4743
  0
LINE
  8
0
 10
97.1084
 20
25.4743
 11
97.5
 21
25.5
  0
LINE
  8
0
 10
97.5
 20
25.5
 11
97.8916
 21
25.4743
  0
LINE
  8
0
 10
97.8916
 20
25.4743
 11
98.2765
 21
25.3978
  0
LINE
  8
0
 10
98.2765
 20
25.3978
 11
98.648
 21
25.2716
  0
LINE
  8
0
 10
98.648
 20
25.2716
 11
99
 21
25.0981
  0
LINE
  8
0
 10
99
 20
25.0981
 11
99.3263
 21
24.8801
  0
LINE
  8
0
 10
99.3263
 20
24.8801
 11
99.6213
 21
24.6213
  0
LINE
  8
0
 10
99.6213
 20
24.6213
 11
99.8801
 21
24.3263
  0
LINE
  8
0
 10
99.8801
 20
24.3263
 11
100.098
 21
24
  0
LINE
  8
0
 10
100.098
 20
24
 11
100.272
 21
23.648
  0
LINE
  8
0
 10
100.272
 20
23.648
 11
100.398
 21
23.2764
  0
LINE
  8
0
 10
100.398
 20
23.2764
 11
100.474
 21
22.8916
  0
LINE
  8
0
 10
100.474
 20
22.8916
 11
100.5
 21
22.5
  0
LINE
  8
0
 10
100.5
 20
22.5
 11
100.474
 21
22.1084
  0
LINE
  8
0
 10
100.474
 20
22.1084
 11
100.398
 21
21.7235
  0
LINE
  8
0
 10
100.398
 20
21.7235
 11
100.272
 21
21.3519
  0
LINE
  8
0
 10
100.272
 20
21.3519
 11
100.098
 21
21
  0
LINE
  8
0
 10
100.098
 20
21
 11
99.8801
 21
20.6737
  0
LINE
  8
0
 10
99.8801
 20
20.6737
 11
99.6213
 21
20.3787
  0
LINE
  8
0
 10
99.6213
 20
20.3787
 11
99.3263
 21
20.1199
  0
LINE
  8
0
 10
99.3263
 20
20.1199
 11
99
 21
19.9019
  0
LINE
  8
0
 10
99
 20
19.9019
 11
98.648
 21
19.7283
  0
LINE
  8
0
 10
98.648
 20
19.7283
 11
98.2765
 21
19.6022
  0
LINE
  8
0
 10
98.2765
 20
19.6022
 11
97.8916
 21
19.5257
  0
LINE
  8
0
 10
97.8916
 20
19.5257
 11
97.5
 21
19.5
  0
LINE
  8
0
 10
97.5
 20
19.5
 11
97.1084
 21
19.5257
  0
LINE
  8
0
 10
37.1084
 20
19.5257
 11
36.7235
 21
19.6022
  0
LINE
  8
0
 10
36.7235
 20
19.6022
 11
36.3519
 21
19.7283
  0
LINE
  8
0
 10
36.3519
 20
19.7283
 11
36
 21
19.9019
  0
LINE
  8
0
 10
36
 20
19.9019
 11
35.6737
 21
20.1199
  0
LINE
  8
0
 10
35.6737
 20
20.1199
 11
35.3787
 21
20.3787
  0
LINE
  8
0
 10
35.3787
 20
20.3787
 11
35.1199
 21
20.6737
  0
LINE
  8
0
 10
35.1199
 20
20.6737
 11
34.9019
 21
21
  0
LINE
  8
0
 10
34.9019
 20
21
 11
34.7284
 21
21.3519
  0
LINE
  8
0
 10
34.7284
 20
21.3519
 11
34.6022
 21
21.7235
  0
LINE
  8
0
 10
34.6022
 20
21.7235
 11
34.5257
 21
22.1084
  0
LINE
  8
0
 10
34.5257
 20
22.1084
 11
34.5
 21
22.5
  0
LINE
  8
0
 10
34.5
 20
22.5
 11
34.5257
 21
22.8916
  0
LINE
  8
0
 10
34.5257
 20
22.8916
 11
34.6022
 21
23.2764
  0
LINE
  8
0
 10
34.6022
 20
23.2764
 11
34.7284
 21
23.648
  0
LINE
  8
0
 10
34.7284
 20
23.648
 11
34.9019
 21
24
  0
LINE
  8
0
 10
34.9019
 20
24
 11
35.1199
 21
24.3263
  0
LINE
  8
0
 10
35.1199
 20
24.3263
 11
35.3787
 21
24.6213
  0
LINE
  8
0
 10
35.3787
 20
24.6213
 11
35.6737
 21
24.8801
  0
LINE
  8
0
 10
35.6737
 20
24.8801
 11
36
 21
25.0981
  0
LINE
  8
0
 10
36
 20
25.0981
 11
36.3519
 21
25.2716
  0
LINE
  8
0
 10
36.3519
 20
25.2716
 11
36.7235
 21
25.3978
  0
LINE
  8
0
 10
36.7235
 20
25.3978
 11
37.1084
 21
25.4743
  0
LINE
  8
0
 10
37.1084
 20
25.4743
 11
37.5
 21
25.5
  0
LINE
  8
0
 10
37.5
 20
25.5
 11
37.8916
 21
25.4743
  0
LINE
  8
0
 10
37.8916
 20
25.4743
 11
38.2765
 21
25.3978
  0
LINE
  8
0
 10
38.2765
 20
25.3978
 11
38.648
 21
25.2716
  0
LINE
  8
0
 10
38.648
 20
25.2716
 11
39
 21
25.0981
  0
LINE
  8
0
 10
39
 20
25.0981
 11
39.3263
 21
24.8801
  0
LINE
  8
0
 10
39.3263
 20
24.8801
 11
39.6213
 21
24.6213
  0
LINE
  8
0
 10
39.6213
 20
24.6213
 11
39.8801
 21
24.3263
  0
LINE
  8
0
 10
39.8801
 20
24.3263
 11
40.0981
 21
24
  0
LINE
  8
0
 10
40.0981
 20
24
 11
40.2716
 21
23.648
  0
LINE
  8
0
 10
40.2716
 20
23.648
 11
40.3978
 21
23.2764
  0
LINE
  8
0
 10
40.3978
 20
23.2764
 11
40.4743
 21
22.8916
  0
LINE
  8
0
 10
40.4743
 20
22.8916
 11
40.5
 21
22.5
  0
LINE
  8
0
 10
40.5
 20
22.5
 11
40.4743
 21
22.1084
  0
LINE
  8
0
 10
40.4743
 20
22.1084
 11
40.3978
 21
21.7235
  0
LINE
  8
0
 10
40.3978
 20
21.7235
 11
40.2716
 21
21.3519
  0
LINE
  8
0
 10
40.2716
 20
21.3519
 11
40.0981
 21
21
  0
LINE
  8
0
 10
40.0981
 20
21
 11
39.8801
 21
20.6737
  0
LINE
  8
0
 10
39.8801
 20
20.6737
 11
39.6213
 21
20.3787
  0
LINE
  8
0
 10
39.6213
 20
20.3787
 11
39.3263
 21
20.1199
  0
LINE
  8
0
 10
39.3263
 20
20.1199
 11
39
 21
19.9019
  0
LINE
  8
0
 10
39
 20
19.9019
 11
38.648
 21
19.7283
  0
LINE
  8
0
 10
38.648
 20
19.7283
 11
38.2765
 21
19.6022
  0
LINE
  8
0
 10
38.2765
 20
19.6022
 11
37.8916
 21
19.5257
  0
LINE
  8
0
 10
37.8916
 20
19.5257
 11
37.5
 21
19.5
  0
LINE
  8
0
 10
37.5
 20
19.5
 11
37.1084
 21
19.5257
  0
LINE
  8
0
 10
22.1084
 20
19.5257
 11
21.7235
 21
19.6022
  0
LINE
  8
0
 10
21.7235
 20
19.6022
 11
21.3519
 21
19.7283
  0
LINE
  8
0
 10
21.3519
 20
19.7283
 11
21
 21
19.9019
  0
LINE
  8
0
 10
21
 20
19.9019
 11
20.6737
 21
20.1199
  0
LINE
  8
0
 10
20.6737
 20
20.1199
 11
20.3787
 21
20.3787
  0
LINE
  8
0
 10
20.3787
 20
20.3787
 11
20.1199
 21
20.6737
  0
LINE
  8
0
 10
20.1199
 20
20.6737
 11
19.9019
 21
21
  0
LINE
  8
0
 10
19.9019
 20
21
 11
19.7283
 21
21.3519
  0
LINE
  8
0
 10
19.7283
 20
21.3519
 11
19.6022
 21
21.7235
  0
LINE
  8
0
 10
19.6022
 20
21.7235
 11
19.5257
 21
22.1084
  0
LINE
  8
0
 10
19.5257
 20
22.1084
 11
19.5
 21
22.5
  0
LINE
  8
0
 10
19.5
 20
22.5
 11
19.5257
 21
22.8916
  0
LINE
  8
0
 10
19.5257
 20
22.8916
 11
19.6022
 21
23.2764
  0
LINE
  8
0
 10
19.6022
 20
23.2764
 11
19.7283
 21
23.648
  0
LINE
  8
0
 10
19.7283
 20
23.648
 11
19.9019
 21
24
  0
LINE
  8
0
 10
19.9019
 20
24
 11
20.1199
 21
24.3263
  0
LINE
  8
0
 10
20.1199
 20
24.3263
 11
20.3787
 21
24.6213
  0
LINE
  8
0
 10
20.3787
 20
24.6213
 11
20.6737
 21
24.8801
  0
LINE
  8
0
 10
20.6737
 20
24.8801
 11
21
 21
25.0981
  0
LINE
  8
0
 10
21
 20
25.0981
 11
21.3519
 21
25.2716
  0
LINE
  8
0
 10
21.3519
 20
25.2716
 11
21.7235
 21
25.3978
  0
LINE
  8
0
 10
21.7235
 20
25.3978
 11
22.1084
 21
25.4743
  0
LINE
  8
0
 10
22.1084
 20
25.4743
 11
22.5
 21
25.5
  0
LINE
  8
0
 10
22.5
 20
25.5
 11
22.8916
 21
25.4743
  0
LINE
  8
0
 10
22.8916
 20
25.4743
 11
23.2764
 21
25.3978
  0
LINE
  8
0
 10
23.2764
 20
25.3978
 11
23.648
 21
25.2716
  0
LINE
  8
0
 10
23.648
 20
25.2716
 11
24
 21
25.0981
  0
LINE
  8
0
 10
24
 20
25.0981
 11
24.3263
 21
24.8801
  0
LINE
  8
0
 10
24.3263
 20
24.8801
 11
24.6213
 21
24.6213
  0
LINE
  8
0
 10
24.6213
 20
24.6213
 11
24.8801
 21
24.3263
  0
LINE
  8
0
 10
24.8801
 20
24.3263
 11
25.0981
 21
24
  0
LINE
  8
0
 10
25.0981
 20
24
 11
25.2716
 21
23.648
  0
LINE
  8
0
 10
25.2716
 20
23.648
 11
25.3978
 21
23.2764
  0
LINE
  8
0
 10
25.3978
 20
23.2764
 11
25.4743
 21
22.8916
  0
LINE
  8
0
 10
25.4743
 20
22.8916
 11
25.5
 21
22.5
  0
LINE
  8
0
 10
25.5
 20
22.5
 11
25.4743
 21
22.1084
  0
LINE
  8
0
 10
25.4743
 20
22.1084
 11
25.3978
 21
21.7235
  0
LINE
  8
0
 10
25.3978
 20
21.7235
 11
25.2716
 21
21.3519
  0
LINE
  8
0
 10
25.2716
 20
21.3519
 11
25.0981
 21
21
  0
LINE
  8
0
 10
25.0981
 20
21
 11
24.8801
 21
20.6737
  0
LINE
  8
0
 10
24.8801
 20
20.6737
 11
24.6213
 21
20.3787
  0
LINE
  8
0
 10
24.6213
 20
20.3787
 11
24.3263
 21
20.1199
  0
LINE
  8
0
 10
24.3263
 20
20.1199
 11
24
 21
19.9019
  0
LINE
  8
0
 10
24
 20
19.9019
 11
23.648
 21
19.7283
  0
LINE
  8
0
 10
23.648
 20
19.7283
 11
23.2764
 21
19.6022
  0
LINE
  8
0
 10
23.2764
 20
19.6022
 11
22.8916
 21
19.5257
  0
LINE
  8
0
 10
22.8916
 20
19.5257
 11
22.5
 21
19.5
  0
LINE
  8
0
 10
22.5
 20
19.5
 11
22.1084
 21
19.5257
  0
LINE
  8
0
 10
112.108
 20
19.5257
 11
111.724
 21
19.6022
  0
LINE
  8
0
 10
111.724
 20
19.6022
 11
111.352
 21
19.7283
  0
LINE
  8
0
 10
111.352
 20
19.7283
 11
111
 21
19.9019
  0
LINE
  8
0
 10
111
 20
19.9019
 11
110.674
 21
20.1199
  0
LINE
  8
0
 10
110.674
 20
20.1199
 11
110.379
 21
20.3787
  0
LINE
  8
0
 10
110.379
 20
20.3787
 11
110.12
 21
20.6737
  0
LINE
  8
0
 10
110.12
 20
20.6737
 11
109.902
 21
21
  0
LINE
  8
0
 10
109.902
 20
21
 11
109.728
 21
21.3519
  0
LINE
  8
0
 10
109.728
 20
21.3519
 11
109.602
 21
21.7235
  0
LINE
  8
0
 10
109.602
 20
21.7235
 11
109.526
 21
22.1084
  0
LINE
  8
0
 10
109.526
 20
22.1084
 11
109.5
 21
22.5
  0
LINE
  8
0
 10
109.5
 20
22.5
 11
109.526
 21
22.8916
  0
LINE
  8
0
 10
109.526
 20
22.8916
 11
109.602
 21
23.2764
  0
LINE
  8
0
 10
109.602
 20
23.2764
 11
109.728
 21
23.648
  0
LINE
  8
0
 10
109.728
 20
23.648
 11
109.902
 21
24
  0
LINE
  8
0
 10
109.902
 20
24
 11
110.12
 21
24.3263
  0
LINE
  8
0
 10
110.12
 20
24.3263
 11
110.379
 21
24.6213
  0
LINE
  8
0
 10
110.379
 20
24.6213
 11
110.674
 21
24.8801
  0
LINE
  8
0
 10
110.674
 20
24.8801
 11
111
 21
25.0981
  0
LINE
  8
0
 10
111
 20
25.0981
 11
111.352
 21
25.2716
  0
LINE
  8
0
 10
111.352
 20
25.2716
 11
111.724
 21
25.3978
  0
LINE
  8
0
 10
111.724
 20
25.3978
 11
112.108
 21
25.4743
  0
LINE
  8
0
 10
112.108
 20
25.4743
 11
112.5
 21
25.5
  0
LINE
  8
0
 10
112.5
 20
25.5
 11
112.892
 21
25.4743
  0
LINE
  8
0
 10
112.892
 20
25.4743
 11
113.276
 21
25.3978
  0
LINE
  8
0
 10
113.276
 20
25.3978
 11
113.648
 21
25.2716
  0
LINE
  8
0
 10
113.648
 20
25.2716
 11
114
 21
25.0981
  0
LINE
  8
0
 10
114
 20
25.0981
 11
114.326
 21
24.8801
  0
LINE
  8
0
 10
114.326
 20
24.8801
 11
114.621
 21
24.6213
  0
LINE
  8
0
 10
114.621
 20
24.6213
 11
114.88
 21
24.3263
  0
LINE
  8
0
 10
114.88
 20
24.3263
 11
115.098
 21
24
  0
LINE
  8
0
 10
115.098
 20
24
 11
115.272
 21
23.648
  0
LINE
  8
0
 10
115.272
 20
23.648
 11
115.398
 21
23.2764
  0
LINE
  8
0
 10
115.398
 20
23.2764
 11
115.474
 21
22.8916
  0
LINE
  8
0
 10
115.474
 20
22.8916
 11
115.5
 21
22.5
  0
LINE
  8
0
 10
115.5
 20
22.5
 11
115.474
 21
22.1084
  0
LINE
  8
0
 10
115.474
 20
22.1084
 11
115.398
 21
21.7235
  0
LINE
  8
0
 10
115.398
 20
21.7235
 11
115.272
 21
21.3519
  0
LINE
  8
0
 10
115.272
 20
21.3519
 11
115.098
 21
21
  0
LINE
  8
0
 10
115.098
 20
21
 11
114.88
 21
20.6737
  0
LINE
  8
0
 10
114.88
 20
20.6737
 11
114.621
 21
20.3787
  0
LINE
  8
0
 10
114.621
 20
20.3787
 11
114.326
 21
20.1199
  0
LINE
  8
0
 10
114.326
 20
20.1199
 11
114
 21
19.9019
  0
LINE
  8
0
 10
114
 20
19.9019
 11
113.648
 21
19.7283
  0
LINE
  8
0
 10
113.648
 20
19.7283
 11
113.276
 21
19.6022
  0
LINE
  8
0
 10
113.276
 20
19.6022
 11
112.892
 21
19.5257
  0
LINE
  8
0
 10
112.892
 20
19.5257
 11
112.5
 21
19.5
  0
LINE
  8
0
 10
112.5
 20
19.5
 11
112.108
 21
19.5257
  0
LINE
  8
0
 10
82.1084
 20
19.5257
 11
81.7235
 21
19.6022
  0
LINE
  8
0
 10
81.7235
 20
19.6022
 11
81.3519
 21
19.7283
  0
LINE
  8
0
 10
81.3519
 20
19.7283
 11
81
 21
19.9019
  0
LINE
  8
0
 10
81
 20
19.9019
 11
80.6737
 21
20.1199
  0
LINE
  8
0
 10
80.6737
 20
20.1199
 11
80.3787
 21
20.3787
  0
LINE
  8
0
 10
80.3787
 20
20.3787
 11
80.1199
 21
20.6737
  0
LINE
  8
0
 10
80.1199
 20
20.6737
 11
79.9019
 21
21
  0
LINE
  8
0
 10
79.9019
 20
21
 11
79.7284
 21
21.3519
  0
LINE
  8
0
 10
79.7284
 20
21.3519
 11
79.6022
 21
21.7235
  0
LINE
  8
0
 10
79.6022
 20
21.7235
 11
79.5257
 21
22.1084
  0
LINE
  8
0
 10
79.5257
 20
22.1084
 11
79.5
 21
22.5
  0
LINE
  8
0
 10
79.5
 20
22.5
 11
79.5257
 21
22.8916
  0
LINE
  8
0
 10
79.5257
 20
22.8916
 11
79.6022
 21
23.2764
  0
LINE
  8
0
 10
79.6022
 20
23.2764
 11
79.7284
 21
23.648
  0
LINE
  8
0
 10
79.7284
 20
23.648
 11
79.9019
 21
24
  0
LINE
  8
0
 10
79.9019
 20
24
 11
80.1199
 21
24.3263
  0
LINE
  8
0
 10
80.1199
 20
24.3263
 11
80.3787
 21
24.6213
  0
LINE
  8
0
 10
80.3787
 20
24.6213
 11
80.6737
 21
24.8801
  0
LINE
  8
0
 10
80.6737
 20
24.8801
 11
81
 21
25.0981
  0
LINE
  8
0
 10
81
 20
25.0981
 11
81.3519
 21
25.2716
  0
LINE
  8
0
 10
81.3519
 20
25.2716
 11
81.7235
 21
25.3978
  0
LINE
  8
0
 10
81.7235
 20
25.3978
 11
82.1084
 21
25.4743
  0
LINE
  8
0
 10
82.1084
 20
25.4743
 11
82.5
 21
25.5
  0
LINE
  8
0
 10
82.5
 20
25.5
 11
82.8916
 21
25.4743
  0
LINE
  8
0
 10
82.8916
 20
25.4743
 11
83.2765
 21
25.3978
  0
LINE
  8
0
 10
83.2765
 20
25.3978
 11
83.648
 21
25.2716
  0
LINE
  8
0
 10
83.648
 20
25.2716
 11
84
 21
25.0981
  0
LINE
  8
0
 10
84
 20
25.0981
 11
84.3263
 21
24.8801
  0
LINE
  8
0
 10
84.3263
 20
24.8801
 11
84.6213
 21
24.6213
  0
LINE
  8
0
 10
84.6213
 20
24.6213
 11
84.8801
 21
24.3263
  0
LINE
  8
0
 10
84.8801
 20
24.3263
 11
85.0981
 21
24
  0
LINE
  8
0
 10
85.0981
 20
24
 11
85.2716
 21
23.648
  0
LINE
  8
0
 10
85.2716
 20
23.648
 11
85.3978
 21
23.2764
  0
LINE
  8
0
 10
85.3978
 20
23.2764
 11
85.4743
 21
22.8916
  0
LINE
  8
0
 10
85.4743
 20
22.8916
 11
85.5
 21
22.5
  0
LINE
  8
0
 10
85.5
 20
22.5
 11
85.4743
 21
22.1084
  0
LINE
  8
0
 10
85.4743
 20
22.1084
 11
85.3978
 21
21.7235
  0
LINE
  8
0
 10
85.3978
 20
21.7235
 11
85.2716
 21
21.3519
  0
LINE
  8
0
 10
85.2716
 20
21.3519
 11
85.0981
 21
21
  0
LINE
  8
0
 10
85.0981
 20
21
 11
84.8801
 21
20.6737
  0
LINE
  8
0
 10
84.8801
 20
20.6737
 11
84.6213
 21
20.3787
  0
LINE
  8
0
 10
84.6213
 20
20.3787
 11
84.3263
 21
20.1199
  0
LINE
  8
0
 10
84.3263
 20
20.1199
 11
84
 21
19.9019
  0
LINE
  8
0
 10
84
 20
19.9019
 11
83.648
 21
19.7283
  0
LINE
  8
0
 10
83.648
 20
19.7283
 11
83.2765
 21
19.6022
  0
LINE
  8
0
 10
83.2765
 20
19.6022
 11
82.8916
 21
19.5257
  0
LINE
  8
0
 10
82.8916
 20
19.5257
 11
82.5
 21
19.5
  0
LINE
  8
0
 10
82.5
 20
19.5
 11
82.1084
 21
19.5257
  0
LINE
  8
0
 10
7.10841
 20
4.52567
 11
6.72354
 21
4.60222
  0
LINE
  8
0
 10
6.72354
 20
4.60222
 11
6.35194
 21
4.72835
  0
LINE
  8
0
 10
6.35194
 20
4.72835
 11
6
 21
4.90192
  0
LINE
  8
0
 10
6
 20
4.90192
 11
5.67371
 21
5.11993
  0
LINE
  8
0
 10
5.67371
 20
5.11993
 11
5.37868
 21
5.37868
  0
LINE
  8
0
 10
5.37868
 20
5.37868
 11
5.11993
 21
5.67371
  0
LINE
  8
0
 10
5.11993
 20
5.67371
 11
4.90192
 21
6
  0
LINE
  8
0
 10
4.90192
 20
6
 11
4.72835
 21
6.35194
  0
LINE
  8
0
 10
4.72835
 20
6.35194
 11
4.60222
 21
6.72354
  0
LINE
  8
0
 10
4.60222
 20
6.72354
 11
4.52567
 21
7.10841
  0
LINE
  8
0
 10
4.52567
 20
7.10841
 11
4.5
 21
7.5
  0
LINE
  8
0
 10
4.5
 20
7.5
 11
4.52567
 21
7.89157
  0
LINE
  8
0
 10
4.52567
 20
7.89157
 11
4.60222
 21
8.27644
  0
LINE
  8
0
 10
4.60222
 20
8.27644
 11
4.72835
 21
8.64804
  0
LINE
  8
0
 10
4.72835
 20
8.64804
 11
4.90192
 21
9
  0
LINE
  8
0
 10
4.90192
 20
9
 11
5.11993
 21
9.32628
  0
LINE
  8
0
 10
5.11993
 20
9.32628
 11
5.37868
 21
9.62131
  0
LINE
  8
0
 10
5.37868
 20
9.62131
 11
5.67371
 21
9.88005
  0
LINE
  8
0
 10
5.67371
 20
9.88005
 11
6
 21
10.0981
  0
LINE
  8
0
 10
6
 20
10.0981
 11
6.35194
 21
10.2716
  0
LINE
  8
0
 10
6.35194
 20
10.2716
 11
6.72354
 21
10.3978
  0
LINE
  8
0
 10
6.72354
 20
10.3978
 11
7.10841
 21
10.4743
  0
LINE
  8
0
 10
7.10841
 20
10.4743
 11
7.5
 21
10.5
  0
LINE
  8
0
 10
7.5
 20
10.5
 11
7.89157
 21
10.4743
  0
LINE
  8
0
 10
7.89157
 20
10.4743
 11
8.27644
 21
10.3978
  0
LINE
  8
0
 10
8.27644
 20
10.3978
 11
8.64804
 21
10.2716
  0
LINE
  8
0
 10
8.64804
 20
10.2716
 11
9
 21
10.0981
  0
LINE
  8
0
 10
9
 20
10.0981
 11
9.32628
 21
9.88005
  0
LINE
  8
0
 10
9.32628
 20
9.88005
 11
9.62131
 21
9.62131
  0
LINE
  8
0
 10
9.62131
 20
9.62131
 11
9.88005
 21
9.32628
  0
LINE
  8
0
 10
9.88005
 20
9.32628
 11
10.0981
 21
9
  0
LINE
  8
0
 10
10.0981
 20
9
 11
10.2716
 21
8.64804
  0
LINE
  8
0
 10
10.2716
 20
8.64804
 11
10.3978
 21
8.27644
  0
LINE
  8
0
 10
10.3978
 20
8.27644
 11
10.4743
 21
7.89157
  0
LINE
  8
0
 10
10.4743
 20
7.89157
 11
10.5
 21
7.5
  0
LINE
  8
0
 10
10.5
 20
7.5
 11
10.4743
 21
7.10841
  0
LINE
  8
0
 10
10.4743
 20
7.10841
 11
10.3978
 21
6.72354
  0
LINE
  8
0
 10
10.3978
 20
6.72354
 11
10.2716
 21
6.35194
  0
LINE
  8
0
 10
10.2716
 20
6.35194
 11
10.0981
 21
6
  0
LINE
  8
0
 10
10.0981
 20
6
 11
9.88005
 21
5.67371
  0
LINE
  8
0
 10
9.88005
 20
5.67371
 11
9.62131
 21
5.37868
  0
LINE
  8
0
 10
9.62131
 20
5.37868
 11
9.32628
 21
5.11993
  0
LINE
  8
0
 10
9.32628
 20
5.11993
 11
9
 21
4.90192
  0
LINE
  8
0
 10
9
 20
4.90192
 11
8.64804
 21
4.72835
  0
LINE
  8
0
 10
8.64804
 20
4.72835
 11
8.27644
 21
4.60222
  0
LINE
  8
0
 10
8.27644
 20
4.60222
 11
7.89157
 21
4.52567
  0
LINE
  8
0
 10
7.89157
 20
4.52567
 11
7.5
 21
4.5
  0
LINE
  8
0
 10
7.5
 20
4.5
 11
7.10841
 21
4.52567
  0
LINE
  8
0
 10
22.1084
 20
4.52567
 11
21.7235
 21
4.60222
  0
LINE
  8
0
 10
21.7235
 20
4.60222
 11
21.3519
 21
4.72835
  0
LINE
  8
0
 10
21.3519
 20
4.72835
 11
21
 21
4.90192
  0
LINE
  8
0
 10
21
 20
4.90192
 11
20.6737
 21
5.11993
  0
LINE
  8
0
 10
20.6737
 20
5.11993
 11
20.3787
 21
5.37868
  0
LINE
  8
0
 10
20.3787
 20
5.37868
 11
20.1199
 21
5.67371
  0
LINE
  8
0
 10
20.1199
 20
5.67371
 11
19.9019
 21
6
  0
LINE
  8
0
 10
19.9019
 20
6
 11
19.7283
 21
6.35194
  0
LINE
  8
0
 10
19.7283
 20
6.35194
 11
19.6022
 21
6.72354
  0
LINE
  8
0
 10
19.6022
 20
6.72354
 11
19.5257
 21
7.10841
  0
LINE
  8
0
 10
19.5257
 20
7.10841
 11
19.5
 21
7.5
  0
LINE
  8
0
 10
19.5
 20
7.5
 11
19.5257
 21
7.89157
  0
LINE
  8
0
 10
19.5257
 20
7.89157
 11
19.6022
 21
8.27644
  0
LINE
  8
0
 10
19.6022
 20
8.27644
 11
19.7283
 21
8.64804
  0
LINE
  8
0
 10
19.7283
 20
8.64804
 11
19.9019
 21
9
  0
LINE
  8
0
 10
19.9019
 20
9
 11
20.1199
 21
9.32628
  0
LINE
  8
0
 10
20.1199
 20
9.32628
 11
20.3787
 21
9.62131
  0
LINE
  8
0
 10
20.3787
 20
9.62131
 11
20.6737
 21
9.88005
  0
LINE
  8
0
 10
20.6737
 20
9.88005
 11
21
 21
10.0981
  0
LINE
  8
0
 10
21
 20
10.0981
 11
21.3519
 21
10.2716
  0
LINE
  8
0
 10
21.3519
 20
10.2716
 11
21.7235
 21
10.3978
  0
LINE
  8
0
 10
21.7235
 20
10.3978
 11
22.1084
 21
10.4743
  0
LINE
  8
0
 10
22.1084
 20
10.4743
 11
22.5
 21
10.5
  0
LINE
  8
0
 10
22.5
 20
10.5
 11
22.8916
 21
10.4743
  0
LINE
  8
0
 10
22.8916
 20
10.4743
 11
23.2764
 21
10.3978
  0
LINE
  8
0
 10
23.2764
 20
10.3978
 11
23.648
 21
10.2716
  0
LINE
  8
0
 10
23.648
 20
10.2716
 11
24
 21
10.0981
  0
LINE
  8
0
 10
24
 20
10.0981
 11
24.3263
 21
9.88005
  0
LINE
  8
0
 10
24.3263
 20
9.88005
 11
24.6213
 21
9.62131
  0
LINE
  8
0
 10
24.6213
 20
9.62131
 11
24.8801
 21
9.32628
  0
LINE
  8
0
 10
24.8801
 20
9.32628
 11
25.0981
 21
9
  0
LINE
  8
0
 10
25.0981
 20
9
 11
25.2716
 21
8.64804
  0
LINE
  8
0
 10
25.2716
 20
8.64804
 11
25.3978
 21
8.27644
  0
LINE
  8
0
 10
25.3978
 20
8.27644
 11
25.4743
 21
7.89157
  0
LINE
  8
0
 10
25.4743
 20
7.89157
 11
25.5
 21
7.5
  0
LINE
  8
0
 10
25.5
 20
7.5
 11
25.4743
 21
7.10841
  0
LINE
  8
0
 10
25.4743
 20
7.10841
 11
25.3978
 21
6.72354
  0
LINE
  8
0
 10
25.3978
 20
6.72354
 11
25.2716
 21
6.35194
  0
LINE
  8
0
 10
25.2716
 20
6.35194
 11
25.0981
 21
6
  0
LINE
  8
0
 10
25.0981
 20
6
 11
24.8801
 21
5.67371
  0
LINE
  8
0
 10
24.8801
 20
5.67371
 11
24.6213
 21
5.37868
  0
LINE
  8
0
 10
24.6213
 20
5.37868
 11
24.3263
 21
5.11993
  0
LINE
  8
0
 10
24.3263
 20
5.11993
 11
24
 21
4.90192
  0
LINE
  8
0
 10
24
 20
4.90192
 11
23.648
 21
4.72835
  0
LINE
  8
0
 10
23.648
 20
4.72835
 11
23.2764
 21
4.60222
  0
LINE
  8
0
 10
23.2764
 20
4.60222
 11
22.8916
 21
4.52567
  0
LINE
  8
0
 10
22.8916
 20
4.52567
 11
22.5
 21
4.5
  0
LINE
  8
0
 10
22.5
 20
4.5
 11
22.1084
 21
4.52567
  0
LINE
  8
0
 10
97.1084
 20
4.52567
 11
96.7235
 21
4.60222
  0
LINE
  8
0
 10
96.7235
 20
4.60222
 11
96.3519
 21
4.72835
  0
LINE
  8
0
 10
96.3519
 20
4.72835
 11
96
 21
4.90192
  0
LINE
  8
0
 10
96
 20
4.90192
 11
95.6737
 21
5.11993
  0
LINE
  8
0
 10
95.6737
 20
5.11993
 11
95.3787
 21
5.37868
  0
LINE
  8
0
 10
95.3787
 20
5.37868
 11
95.1199
 21
5.67371
  0
LINE
  8
0
 10
95.1199
 20
5.67371
 11
94.9019
 21
6
  0
LINE
  8
0
 10
94.9019
 20
6
 11
94.7284
 21
6.35194
  0
LINE
  8
0
 10
94.7284
 20
6.35194
 11
94.6022
 21
6.72354
  0
LINE
  8
0
 10
94.6022
 20
6.72354
 11
94.5257
 21
7.10841
  0
LINE
  8
0
 10
94.5257
 20
7.10841
 11
94.5
 21
7.5
  0
LINE
  8
0
 10
94.5
 20
7.5
 11
94.5257
 21
7.89157
  0
LINE
  8
0
 10
94.5257
 20
7.89157
 11
94.6022
 21
8.27644
  0
LINE
  8
0
 10
94.6022
 20
8.27644
 11
94.7284
 21
8.64804
  0
LINE
  8
0
 10
94.7284
 20
8.64804
 11
94.9019
 21
9
  0
LINE
  8
0
 10
94.9019
 20
9
 11
95.1199
 21
9.32628
  0
LINE
  8
0
 10
95.1199
 20
9.32628
 11
95.3787
 21
9.62131
  0
LINE
  8
0
 10
95.3787
 20
9.62131
 11
95.6737
 21
9.88005
  0
LINE
  8
0
 10
95.6737
 20
9.88005
 11
96
 21
10.0981
  0
LINE
  8
0
 10
96
 20
10.0981
 11
96.3519
 21
10.2716
  0
LINE
  8
0
 10
96.3519
 20
10.2716
 11
96.7235
 21
10.3978
  0
LINE
  8
0
 10
96.7235
 20
10.3978
 11
97.1084
 21
10.4743
  0
LINE
  8
0
 10
97.1084
 20
10.4743
 11
97.5
 21
10.5
  0
LINE
  8
0
 10
97.5
 20
10.5
 11
97.8916
 21
10.4743
  0
LINE
  8
0
 10
97.8916
 20
10.4743
 11
98.2765
 21
10.3978
  0
LINE
  8
0
 10
98.2765
 20
10.3978
 11
98.648
 21
10.2716
  0
LINE
  8
0
 10
98.648
 20
10.2716
 11
99
 21
10.0981
  0
LINE
  8
0
 10
99
 20
10.0981
 11
99.3263
 21
9.88005
  0
LINE
  8
0
 10
99.3263
 20
9.88005
 11
99.6213
 21
9.62131
  0
LINE
  8
0
 10
99.6213
 20
9.62131
 11
99.8801
 21
9.32628
  0
LINE
  8
0
 10
99.8801
 20
9.32628
 11
100.098
 21
9
  0
LINE
  8
0
 10
100.098
 20
9
 11
100.272
 21
8.64804
  0
LINE
  8
0
 10
100.272
 20
8.64804
 11
100.398
 21
8.27644
  0
LINE
  8
0
 10
100.398
 20
8.27644
 11
100.474
 21
7.89157
  0
LINE
  8
0
 10
100.474
 20
7.89157
 11
100.5
 21
7.5
  0
LINE
  8
0
 10
100.5
 20
7.5
 11
100.474
 21
7.10841
  0
LINE
  8
0
 10
100.474
 20
7.10841
 11
100.398
 21
6.72354
  0
LINE
  8
0
 10
100.398
 20
6.72354
 11
100.272
 21
6.35194
  0
LINE
  8
0
 10
100.272
 20
6.35194
 11
100.098
 21
6
  0
LINE
  8
0
 10
100.098
 20
6
 11
99.8801
 21
5.67371
  0
LINE
  8
0
 10
99.8801
 20
5.67371
 11
99.6213
 21
5.37868
  0
LINE
  8
0
 10
99.6213
 20
5.37868
 11
99.3263
 21
5.11993
  0
LINE
  8
0
 10
99.3263
 20
5.11993
 11
99
 21
4.90192
  0
LINE
  8
0
 10
99
 20
4.90192
 11
98.648
 21
4.72835
  0
LINE
  8
0
 10
98.648
 20
4.72835
 11
98.2765
 21
4.60222
  0
LINE
  8
0
 10
98.2765
 20
4.60222
 11
97.8916
 21
4.52567
  0
LINE
  8
0
 10
97.8916
 20
4.52567
 11
97.5
 21
4.5
  0
LINE
  8
0
 10
97.5
 20
4.5
 11
97.1084
 21
4.52567
  0
LINE
  8
0
 10
112.108
 20
4.52567
 11
111.724
 21
4.60222
  0
LINE
  8
0
 10
111.724
 20
4.60222
 11
111.352
 21
4.72835
  0
LINE
  8
0
 10
111.352
 20
4.72835
 11
111
 21
4.90192
  0
LINE
  8
0
 10
111
 20
4.90192
 11
110.674
 21
5.11993
  0
LINE
  8
0
 10
110.674
 20
5.11993
 11
110.379
 21
5.37868
  0
LINE
  8
0
 10
110.379
 20
5.37868
 11
110.12
 21
5.67371
  0
LINE
  8
0
 10
110.12
 20
5.67371
 11
109.902
 21
6
  0
LINE
  8
0
 10
109.902
 20
6
 11
109.728
 21
6.35194
  0
LINE
  8
0
 10
109.728
 20
6.35194
 11
109.602
 21
6.72354
  0
LINE
  8
0
 10
109.602
 20
6.72354
 11
109.526
 21
7.10841
  0
LINE
  8
0
 10
109.526
 20
7.10841
 11
109.5
 21
7.5
  0
LINE
  8
0
 10
109.5
 20
7.5
 11
109.526
 21
7.89157
  0
LINE
  8
0
 10
109.526
 20
7.89157
 11
109.602
 21
8.27644
  0
LINE
  8
0
 10
109.602
 20
8.27644
 11
109.728
 21
8.64804
  0
LINE
  8
0
 10
109.728
 20
8.64804
 11
109.902
 21
9
  0
LINE
  8
0
 10
109.902
 20
9
 11
110.12
 21
9.32628
  0
LINE
  8
0
 10
110.12
 20
9.32628
 11
110.379
 21
9.62131
  0
LINE
  8
0
 10
110.379
 20
9.62131
 11
110.674
 21
9.88005
  0
LINE
  8
0
 10
110.674
 20
9.88005
 11
111
 21
10.0981
  0
LINE
  8
0
 10
111
 20
10.0981
 11
111.352
 21
10.2716
  0
LINE
  8
0
 10
111.352
 20
10.2716
 11
111.724
 21
10.3978
  0
LINE
  8
0
 10
111.724
 20
10.3978
 11
112.108
 21
10.4743
  0
LINE
  8
0
 10
112.108
 20
10.4743
 11
112.5
 21
10.5
  0
LINE
  8
0
 10
112.5
 20
10.5
 11
112.892
 21
10.4743
  0
LINE
  8
0
 10
112.892
 20
10.4743
 11
113.276
 21
10.3978
  0
LINE
  8
0
 10
113.276
 20
10.3978
 11
113.648
 21
10.2716
  0
LINE
  8
0
 10
113.648
 20
10.2716
 11
114
 21
10.0981
  0
LINE
  8
0
 10
114
 20
10.0981
 11
114.326
 21
9.88005
  0
LINE
  8
0
 10
114.326
 20
9.88005
 11
114.621
 21
9.62131
  0
LINE
  8
0
 10
114.621
 20
9.62131
 11
114.88
 21
9.32628
  0
LINE
  8
0
 10
114.88
 20
9.32628
 11
115.098
 21
9
  0
LINE
  8
0
 10
115.098
 20
9
 11
115.272
 21
8.64804
  0
LINE
  8
0
 10
115.272
 20
8.64804
 11
115.398
 21
8.27644
  0
LINE
  8
0
 10
115.398
 20
8.27644
 11
115.474
 21
7.89157
  0
LINE
  8
0
 10
115.474
 20
7.89157
 11
115.5
 21
7.5
  0
LINE
  8
0
 10
115.5
 20
7.5
 11
115.474
 21
7.10841
  0
LINE
  8
0
 10
115.474
 20
7.10841
 11
115.398
 21
6.72354
  0
LINE
  8
0
 10
115.398
 20
6.72354
 11
115.272
 21
6.35194
  0
LINE
  8
0
 10
115.272
 20
6.35194
 11
115.098
 21
6
  0
LINE
  8
0
 10
115.098
 20
6
 11
114.88
 21
5.67371
  0
LINE
  8
0
 10
114.88
 20
5.67371
 11
114.621
 21
5.37868
  0
LINE
  8
0
 10
114.621
 20
5.37868
 11
114.326
 21
5.11993
  0
LINE
  8
0
 10
114.326
 20
5.11993
 11
114
 21
4.90192
  0
LINE
  8
0
 10
114
 20
4.90192
 11
113.648
 21
4.72835
  0
LINE
  8
0
 10
113.648
 20
4.72835
 11
113.276
 21
4.60222
  0
LINE
  8
0
 10
113.276
 20
4.60222
 11
112.892
 21
4.52567
  0
LINE
  8
0
 10
112.892
 20
4.52567
 11
112.5
 21
4.5
  0
LINE
  8
0
 10
112.5
 20
4.5
 11
112.108
 21
4.52567
  0
LINE
  8
0
 10
82.1084
 20
4.52567
 11
81.7235
 21
4.60222
  0
LINE
  8
0
 10
81.7235
 20
4.60222
 11
81.3519
 21
4.72835
  0
LINE
  8
0
 10
81.3519
 20
4.72835
 11
81
 21
4.90192
  0
LINE
  8
0
 10
81
 20
4.90192
 11
80.6737
 21
5.11993
  0
LINE
  8
0
 10
80.6737
 20
5.11993
 11
80.3787
 21
5.37868
  0
LINE
  8
0
 10
80.3787
 20
5.37868
 11
80.1199
 21
5.67371
  0
LINE
  8
0
 10
80.1199
 20
5.67371
 11
79.9019
 21
6
  0
LINE
  8
0
 10
79.9019
 20
6
 11
79.7284
 21
6.35194
  0
LINE
  8
0
 10
79.7284
 20
6.35194
 11
79.6022
 21
6.72354
  0
LINE
  8
0
 10
79.6022
 20
6.72354
 11
79.5257
 21
7.10841
  0
LINE
  8
0
 10
79.5257
 20
7.10841
 11
79.5
 21
7.5
  0
LINE
  8
0
 10
79.5
 20
7.5
 11
79.5257
 21
7.89157
  0
LINE
  8
0
 10
79.5257
 20
7.89157
 11
79.6022
 21
8.27644
  0
LINE
  8
0
 10
79.6022
 20
8.27644
 11
79.7284
 21
8.64804
  0
LINE
  8
0
 10
79.7284
 20
8.64804
 11
79.9019
 21
9
  0
LINE
  8
0
 10
79.9019
 20
9
 11
80.1199
 21
9.32628
  0
LINE
  8
0
 10
80.1199
 20
9.32628
 11
80.3787
 21
9.62131
  0
LINE
  8
0
 10
80.3787
 20
9.62131
 11
80.6737
 21
9.88005
  0
LINE
  8
0
 10
80.6737
 20
9.88005
 11
81
 21
10.0981
  0
LINE
  8
0
 10
81
 20
10.0981
 11
81.3519
 21
10.2716
  0
LINE
  8
0
 10
81.3519
 20
10.2716
 11
81.7235
 21
10.3978
  0
LINE
  8
0
 10
81.7235
 20
10.3978
 11
82.1084
 21
10.4743
  0
LINE
  8
0
 10
82.1084
 20
10.4743
 11
82.5
 21
10.5
  0
LINE
  8
0
 10
82.5
 20
10.5
 11
82.8916
 21
10.4743
  0
LINE
  8
0
 10
82.8916
 20
10.4743
 11
83.2765
 21
10.3978
  0
LINE
  8
0
 10
83.2765
 20
10.3978
 11
83.648
 21
10.2716
  0
LINE
  8
0
 10
83.648
 20
10.2716
 11
84
 21
10.0981
  0
LINE
  8
0
 10
84
 20
10.0981
 11
84.3263
 21
9.88005
  0
LINE
  8
0
 10
84.3263
 20
9.88005
 11
84.6213
 21
9.62131
  0
LINE
  8
0
 10
84.6213
 20
9.62131
 11
84.8801
 21
9.32628
  0
LINE
  8
0
 10
84.8801
 20
9.32628
 11
85.0981
 21
9
  0
LINE
  8
0
 10
85.0981
 20
9
 11
85.2716
 21
8.64804
  0
LINE
  8
0
 10
85.2716
 20
8.64804
 11
85.3978
 21
8.27644
  0
LINE
  8
0
 10
85.3978
 20
8.27644
 11
85.4743
 21
7.89157
  0
LINE
  8
0
 10
85.4743
 20
7.89157
 11
85.5
 21
7.5
  0
LINE
  8
0
 10
85.5
 20
7.5
 11
85.4743
 21
7.10841
  0
LINE
  8
0
 10
85.4743
 20
7.10841
 11
85.3978
 21
6.72354
  0
LINE
  8
0
 10
85.3978
 20
6.72354
 11
85.2716
 21
6.35194
  0
LINE
  8
0
 10
85.2716
 20
6.35194
 11
85.0981
 21
6
  0
LINE
  8
0
 10
85.0981
 20
6
 11
84.8801
 21
5.67371
  0
LINE
  8
0
 10
84.8801
 20
5.67371
 11
84.6213
 21
5.37868
  0
LINE
  8
0
 10
84.6213
 20
5.37868
 11
84.3263
 21
5.11993
  0
LINE
  8
0
 10
84.3263
 20
5.11993
 11
84
 21
4.90192
  0
LINE
  8
0
 10
84
 20
4.90192
 11
83.648
 21
4.72835
  0
LINE
  8
0
 10
83.648
 20
4.72835
 11
83.2765
 21
4.60222
  0
LINE
  8
0
 10
83.2765
 20
4.60222
 11
82.8916
 21
4.52567
  0
LINE
  8
0
 10
82.8916
 20
4.52567
 11
82.5
 21
4.5
  0
LINE
  8
0
 10
82.5
 20
4.5
 11
82.1084
 21
4.52567
  0
LINE
  8
0
 10
52.1084
 20
4.52567
 11
51.7235
 21
4.60222
  0
LINE
  8
0
 10
51.7235
 20
4.60222
 11
51.3519
 21
4.72835
  0
LINE
  8
0
 10
51.3519
 20
4.72835
 11
51
 21
4.90192
  0
LINE
  8
0
 10
51
 20
4.90192
 11
50.6737
 21
5.11993
  0
LINE
  8
0
 10
50.6737
 20
5.11993
 11
50.3787
 21
5.37868
  0
LINE
  8
0
 10
50.3787
 20
5.37868
 11
50.1199
 21
5.67371
  0
LINE
  8
0
 10
50.1199
 20
5.67371
 11
49.9019
 21
6
  0
LINE
  8
0
 10
49.9019
 20
6
 11
49.7284
 21
6.35194
  0
LINE
  8
0
 10
49.7284
 20
6.35194
 11
49.6022
 21
6.72354
  0
LINE
  8
0
 10
49.6022
 20
6.72354
 11
49.5257
 21
7.10841
  0
LINE
  8
0
 10
49.5257
 20
7.10841
 11
49.5
 21
7.5
  0
LINE
  8
0
 10
49.5
 20
7.5
 11
49.5257
 21
7.89157
  0
LINE
  8
0
 10
49.5257
 20
7.89157
 11
49.6022
 21
8.27644
  0
LINE
  8
0
 10
49.6022
 20
8.27644
 11
49.7284
 21
8.64804
  0
LINE
  8
0
 10
49.7284
 20
8.64804
 11
49.9019
 21
9
  0
LINE
  8
0
 10
49.9019
 20
9
 11
50.1199
 21
9.32628
  0
LINE
  8
0
 10
50.1199
 20
9.32628
 11
50.3787
 21
9.62131
  0
LINE
  8
0
 10
50.3787
 20
9.62131
 11
50.6737
 21
9.88005
  0
LINE
  8
0
 10
50.6737
 20
9.88005
 11
51
 21
10.0981
  0
LINE
  8
0
 10
51
 20
10.0981
 11
51.3519
 21
10.2716
  0
LINE
  8
0
 10
51.3519
 20
10.2716
 11
51.7235
 21
10.3978
  0
LINE
  8
0
 10
51.7235
 20
10.3978
 11
52.1084
 21
10.4743
  0
LINE
  8
0
 10
52.1084
 20
10.4743
 11
52.5
 21
10.5
  0
LINE
  8
0
 10
52.5
 20
10.5
 11
52.8916
 21
10.4743
  0
LINE
  8
0
 10
52.8916
 20
10.4743
 11
53.2765
 21
10.3978
  0
LINE
  8
0
 10
53.2765
 20
10.3978
 11
53.648
 21
10.2716
  0
LINE
  8
0
 10
53.648
 20
10.2716
 11
54
 21
10.0981
  0
LINE
  8
0
 10
54
 20
10.0981
 11
54.3263
 21
9.88005
  0
LINE
  8
0
 10
54.3263
 20
9.88005
 11
54.6213
 21
9.62131
  0
LINE
  8
0
 10
54.6213
 20
9.62131
 11
54.8801
 21
9.32628
  0
LINE
  8
0
 10
54.8801
 20
9.32628
 11
55.0981
 21
9
  0
LINE
  8
0
 10
55.0981
 20
9
 11
55.2716
 21
8.64804
  0
LINE
  8
0
 10
55.2716
 20
8.64804
 11
55.3978
 21
8.27644
  0
LINE
  8
0
 10
55.3978
 20
8.27644
 11
55.4743
 21
7.89157
  0
LINE
  8
0
 10
55.4743
 20
7.89157
 11
55.5
 21
7.5
  0
LINE
  8
0
 10
55.5
 20
7.5
 11
55.4743
 21
7.10841
  0
LINE
  8
0
 10
55.4743
 20
7.10841
 11
55.3978
 21
6.72354
  0
LINE
  8
0
 10
55.3978
 20
6.72354
 11
55.2716
 21
6.35194
  0
LINE
  8
0
 10
55.2716
 20
6.35194
 11
55.0981
 21
6
  0
LINE
  8
0
 10
55.0981
 20
6
 11
54.8801
 21
5.67371
  0
LINE
  8
0
 10
54.8801
 20
5.67371
 11
54.6213
 21
5.37868
  0
LINE
  8
0
 10
54.6213
 20
5.37868
 11
54.3263
 21
5.11993
  0
LINE
  8
0
 10
54.3263
 20
5.11993
 11
54
 21
4.90192
  0
LINE
  8
0
 10
54
 20
4.90192
 11
53.648
 21
4.72835
  0
LINE
  8
0
 10
53.648
 20
4.72835
 11
53.2765
 21
4.60222
  0
LINE
  8
0
 10
53.2765
 20
4.60222
 11
52.8916
 21
4.52567
  0
LINE
  8
0
 10
52.8916
 20
4.52567
 11
52.5
 21
4.5
  0
LINE
  8
0
 10
52.5
 20
4.5
 11
52.1084
 21
4.52567
  0
LINE
  8
0
 10
67.1084
 20
4.52567
 11
66.7235
 21
4.60222
  0
LINE
  8
0
 10
66.7235
 20
4.60222
 11
66.3519
 21
4.72835
  0
LINE
  8
0
 10
66.3519
 20
4.72835
 11
66
 21
4.90192
  0
LINE
  8
0
 10
66
 20
4.90192
 11
65.6737
 21
5.11993
  0
LINE
  8
0
 10
65.6737
 20
5.11993
 11
65.3787
 21
5.37868
  0
LINE
  8
0
 10
65.3787
 20
5.37868
 11
65.1199
 21
5.67371
  0
LINE
  8
0
 10
65.1199
 20
5.67371
 11
64.9019
 21
6
  0
LINE
  8
0
 10
64.9019
 20
6
 11
64.7284
 21
6.35194
  0
LINE
  8
0
 10
64.7284
 20
6.35194
 11
64.6022
 21
6.72354
  0
LINE
  8
0
 10
64.6022
 20
6.72354
 11
64.5257
 21
7.10841
  0
LINE
  8
0
 10
64.5257
 20
7.10841
 11
64.5
 21
7.5
  0
LINE
  8
0
 10
64.5
 20
7.5
 11
64.5257
 21
7.89157
  0
LINE
  8
0
 10
64.5257
 20
7.89157
 11
64.6022
 21
8.27644
  0
LINE
  8
0
 10
64.6022
 20
8.27644
 11
64.7284
 21
8.64804
  0
LINE
  8
0
 10
64.7284
 20
8.64804
 11
64.9019
 21
9
  0
LINE
  8
0
 10
64.9019
 20
9
 11
65.1199
 21
9.32628
  0
LINE
  8
0
 10
65.1199
 20
9.32628
 11
65.3787
 21
9.62131
  0
LINE
  8
0
 10
65.3787
 20
9.62131
 11
65.6737
 21
9.88005
  0
LINE
  8
0
 10
65.6737
 20
9.88005
 11
66
 21
10.0981
  0
LINE
  8
0
 10
66
 20
10.0981
 11
66.3519
 21
10.2716
  0
LINE
  8
0
 10
66.3519
 20
10.2716
 11
66.7235
 21
10.3978
  0
LINE
  8
0
 10
66.7235
 20
10.3978
 11
67.1084
 21
10.4743
  0
LINE
  8
0
 10
67.1084
 20
10.4743
 11
67.5
 21
10.5
  0
LINE
  8
0
 10
67.5
 20
10.5
 11
67.8916
 21
10.4743
  0
LINE
  8
0
 10
67.8916
 20
10.4743
 11
68.2765
 21
10.3978
  0
LINE
  8
0
 10
68.2765
 20
10.3978
 11
68.648
 21
10.2716
  0
LINE
  8
0
 10
68.648
 20
10.2716
 11
69
 21
10.0981
  0
LINE
  8
0
 10
69
 20
10.0981
 11
69.3263
 21
9.88005
  0
LINE
  8
0
 10
69.3263
 20
9.88005
 11
69.6213
 21
9.62131
  0
LINE
  8
0
 10
69.6213
 20
9.62131
 11
69.8801
 21
9.32628
  0
LINE
  8
0
 10
69.8801
 20
9.32628
 11
70.0981
 21
9
  0
LINE
  8
0
 10
70.0981
 20
9
 11
70.2716
 21
8.64804
  0
LINE
  8
0
 10
70.2716
 20
8.64804
 11
70.3978
 21
8.27644
  0
LINE
  8
0
 10
70.3978
 20
8.27644
 11
70.4743
 21
7.89157
  0
LINE
  8
0
 10
70.4743
 20
7.89157
 11
70.5
 21
7.5
  0
LINE
  8
0
 10
70.5
 20
7.5
 11
70.4743
 21
7.10841
  0
LINE
  8
0
 10
70.4743
 20
7.10841
 11
70.3978
 21
6.72354
  0
LINE
  8
0
 10
70.3978
 20
6.72354
 11
70.2716
 21
6.35194
  0
LINE
  8
0
 10
70.2716
 20
6.35194
 11
70.0981
 21
6
  0
LINE
  8
0
 10
70.0981
 20
6
 11
69.8801
 21
5.67371
  0
LINE
  8
0
 10
69.8801
 20
5.67371
 11
69.6213
 21
5.37868
  0
LINE
  8
0
 10
69.6213
 20
5.37868
 11
69.3263
 21
5.11993
  0
LINE
  8
0
 10
69.3263
 20
5.11993
 11
69
 21
4.90192
  0
LINE
  8
0
 10
69
 20
4.90192
 11
68.648
 21
4.72835
  0
LINE
  8
0
 10
68.648
 20
4.72835
 11
68.2765
 21
4.60222
  0
LINE
  8
0
 10
68.2765
 20
4.60222
 11
67.8916
 21
4.52567
  0
LINE
  8
0
 10
67.8916
 20
4.52567
 11
67.5
 21
4.5
  0
LINE
  8
0
 10
67.5
 20
4.5
 11
67.1084
 21
4.52567
  0
LINE
  8
0
 10
37.1084
 20
4.52567
 11
36.7235
 21
4.60222
  0
LINE
  8
0
 10
36.7235
 20
4.60222
 11
36.3519
 21
4.72835
  0
LINE
  8
0
 10
36.3519
 20
4.72835
 11
36
 21
4.90192
  0
LINE
  8
0
 10
36
 20
4.90192
 11
35.6737
 21
5.11993
  0
LINE
  8
0
 10
35.6737
 20
5.11993
 11
35.3787
 21
5.37868
  0
LINE
  8
0
 10
35.3787
 20
5.37868
 11
35.1199
 21
5.67371
  0
LINE
  8
0
 10
35.1199
 20
5.67371
 11
34.9019
 21
6
  0
LINE
  8
0
 10
34.9019
 20
6
 11
34.7284
 21
6.35194
  0
LINE
  8
0
 10
34.7284
 20
6.35194
 11
34.6022
 21
6.72354
  0
LINE
  8
0
 10
34.6022
 20
6.72354
 11
34.5257
 21
7.10841
  0
LINE
  8
0
 10
34.5257
 20
7.10841
 11
34.5
 21
7.5
  0
LINE
  8
0
 10
34.5
 20
7.5
 11
34.5257
 21
7.89157
  0
LINE
  8
0
 10
34.5257
 20
7.89157
 11
34.6022
 21
8.27644
  0
LINE
  8
0
 10
34.6022
 20
8.27644
 11
34.7284
 21
8.64804
  0
LINE
  8
0
 10
34.7284
 20
8.64804
 11
34.9019
 21
9
  0
LINE
  8
0
 10
34.9019
 20
9
 11
35.1199
 21
9.32628
  0
LINE
  8
0
 10
35.1199
 20
9.32628
 11
35.3787
 21
9.62131
  0
LINE
  8
0
 10
35.3787
 20
9.62131
 11
35.6737
 21
9.88005
  0
LINE
  8
0
 10
35.6737
 20
9.88005
 11
36
 21
10.0981
  0
LINE
  8
0
 10
36
 20
10.0981
 11
36.3519
 21
10.2716
  0
LINE
  8
0
 10
36.3519
 20
10.2716
 11
36.7235
 21
10.3978
  0
LINE
  8
0
 10
36.7235
 20
10.3978
 11
37.1084
 21
10.4743
  0
LINE
  8
0
 10
37.1084
 20
10.4743
 11
37.5
 21
10.5
  0
LINE
  8
0
 10
37.5
 20
10.5
 11
37.8916
 21
10.4743
  0
LINE
  8
0
 10
37.8916
 20
10.4743
 11
38.2765
 21
10.3978
  0
LINE
  8
0
 10
38.2765
 20
10.3978
 11
38.648
 21
10.2716
  0
LINE
  8
0
 10
38.648
 20
10.2716
 11
39
 21
10.0981
  0
LINE
  8
0
 10
39
 20
10.0981
 11
39.3263
 21
9.88005
  0
LINE
  8
0
 10
39.3263
 20
9.88005
 11
39.6213
 21
9.62131
  0
LINE
  8
0
 10
39.6213
 20
9.62131
 11
39.8801
 21
9.32628
  0
LINE
  8
0
 10
39.8801
 20
9.32628
 11
40.0981
 21
9
  0
LINE
  8
0
 10
40.0981
 20
9
 11
40.2716
 21
8.64804
  0
LINE
  8
0
 10
40.2716
 20
8.64804
 11
40.3978
 21
8.27644
  0
LINE
  8
0
 10
40.3978
 20
8.27644
 11
40.4743
 21
7.89157
  0
LINE
  8
0
 10
40.4743
 20
7.89157
 11
40.5
 21
7.5
  0
LINE
  8
0
 10
40.5
 20
7.5
 11
40.4743
 21
7.10841
  0
LINE
  8
0
 10
40.4743
 20
7.10841
 11
40.3978
 21
6.72354
  0
LINE
  8
0
 10
40.3978
 20
6.72354
 11
40.2716
 21
6.35194
  0
LINE
  8
0
 10
40.2716
 20
6.35194
 11
40.0981
 21
6
  0
LINE
  8
0
 10
40.0981
 20
6
 11
39.8801
 21
5.67371
  0
LINE
  8
0
 10
39.8801
 20
5.67371
 11
39.6213
 21
5.37868
  0
LINE
  8
0
 10
39.6213
 20
5.37868
 11
39.3263
 21
5.11993
  0
LINE
  8
0
 10
39.3263
 20
5.11993
 11
39
 21
4.90192
  0
LINE
  8
0
 10
39
 20
4.90192
 11
38.648
 21
4.72835
  0
LINE
  8
0
 10
38.648
 20
4.72835
 11
38.2765
 21
4.60222
  0
LINE
  8
0
 10
38.2765
 20
4.60222
 11
37.8916
 21
4.52567
  0
LINE
  8
0
 10
37.8916
 20
4.52567
 11
37.5
 21
4.5
  0
LINE
  8
0
 10
37.5
 20
4.5
 11
37.1084
 21
4.52567
  0
ENDSEC
  0
SECTION
  2
OBJECTS
  0
DICTIONARY
  0
ENDSEC
  0
EOF
