  0
SECTION
  2
HEADER
  9
$ACADVER
  1
AC1021
  9
$ACADMAINTVER
 70
    25
  9
$DWGCODEPAGE
  3
ANSI_1252
  9
$INSBASE
 10
0.0
 20
0.0
 30
0.0
  9
$EXTMIN
 10
-14.828
 20
-16.27822
 30
0.0
  9
$EXTMAX
 10
-6.17178
 20
-13.42178
 30
0.0
  9
$LIMMIN
 10
0.0
 20
0.0
  9
$LIMMAX
 10
12.0
 20
9.0
  9
$ORTHOMODE
 70
     0
  9
$REGENMODE
 70
     1
  9
$FILLMODE
 70
     1
  9
$QTEXTMODE
 70
     0
  9
$MIRRTEXT
 70
     1
  9
$LTSCALE
 40
1.0
  9
$ATTMODE
 70
     1
  9
$TEXTSIZE
 40
0.2
  9
$TRACEWID
 40
0.05
  9
$TEXTSTYLE
  7
Standard
  9
$CLAYER
  8
0
  9
$CELTYPE
  6
ByLayer
  9
$CECOLOR
 62
   256
  9
$CELTSCALE
 40
1.0
  9
$DISPSILH
 70
     0
  9
$DIMSCALE
 40
1.0
  9
$DIMASZ
 40
0.18
  9
$DIMEXO
 40
0.0625
  9
$DIMDLI
 40
0.38
  9
$DIMRND
 40
0.0
  9
$DIMDLE
 40
0.0
  9
$DIMEXE
 40
0.18
  9
$DIMTP
 40
0.0
  9
$DIMTM
 40
0.0
  9
$DIMTXT
 40
0.18
  9
$DIMCEN
 40
0.09
  9
$DIMTSZ
 40
0.0
  9
$DIMTOL
 70
     0
  9
$DIMLIM
 70
     0
  9
$DIMTIH
 70
     1
  9
$DIMTOH
 70
     1
  9
$DIMSE1
 70
     0
  9
$DIMSE2
 70
     0
  9
$DIMTAD
 70
     0
  9
$DIMZIN
 70
     0
  9
$DIMBLK
  1

  9
$DIMASO
 70
     1
  9
$DIMSHO
 70
     1
  9
$DIMPOST
  1

  9
$DIMAPOST
  1

  9
$DIMALT
 70
     0
  9
$DIMALTD
 70
     2
  9
$DIMALTF
 40
25.4
  9
$DIMLFAC
 40
1.0
  9
$DIMTOFL
 70
     0
  9
$DIMTVP
 40
0.0
  9
$DIMTIX
 70
     0
  9
$DIMSOXD
 70
     0
  9
$DIMSAH
 70
     0
  9
$DIMBLK1
  1

  9
$DIMBLK2
  1

  9
$DIMSTYLE
  2
Standard
  9
$DIMCLRD
 70
     0
  9
$DIMCLRE
 70
     0
  9
$DIMCLRT
 70
     0
  9
$DIMTFAC
 40
1.0
  9
$DIMGAP
 40
0.09
  9
$DIMJUST
 70
     0
  9
$DIMSD1
 70
     0
  9
$DIMSD2
 70
     0
  9
$DIMTOLJ
 70
     1
  9
$DIMTZIN
 70
     0
  9
$DIMALTZ
 70
     0
  9
$DIMALTTZ
 70
     0
  9
$DIMUPT
 70
     0
  9
$DIMDEC
 70
     4
  9
$DIMTDEC
 70
     4
  9
$DIMALTU
 70
     2
  9
$DIMALTTD
 70
     2
  9
$DIMTXSTY
  7
Standard
  9
$DIMAUNIT
 70
     0
  9
$DIMADEC
 70
     0
  9
$DIMALTRND
 40
0.0
  9
$DIMAZIN
 70
     0
  9
$DIMDSEP
 70
    46
  9
$DIMATFIT
 70
     3
  9
$DIMFRAC
 70
     0
  9
$DIMLDRBLK
  1

  9
$DIMLUNIT
 70
     2
  9
$DIMLWD
 70
    -2
  9
$DIMLWE
 70
    -2
  9
$DIMTMOVE
 70
     0
  9
$DIMFXL
 40
1.0
  9
$DIMFXLON
 70
     0
  9
$DIMJOGANG
 40
0.7853981633974483
  9
$DIMTFILL
 70
     0
  9
$DIMTFILLCLR
 70
     0
  9
$DIMARCSYM
 70
     0
  9
$DIMLTYPE
  6

  9
$DIMLTEX1
  6

  9
$DIMLTEX2
  6

  9
$LUNITS
 70
     2
  9
$LUPREC
 70
     4
  9
$SKETCHINC
 40
0.1
  9
$FILLETRAD
 40
0.5
  9
$AUNITS
 70
     0
  9
$AUPREC
 70
     0
  9
$MENU
  1
.
  9
$ELEVATION
 40
0.0
  9
$PELEVATION
 40
0.0
  9
$THICKNESS
 40
0.0
  9
$LIMCHECK
 70
     0
  9
$CHAMFERA
 40
0.5
  9
$CHAMFERB
 40
0.5
  9
$CHAMFERC
 40
1.0
  9
$CHAMFERD
 40
0.0
  9
$SKPOLY
 70
     0
  9
$TDCREATE
 40
2456974.077576238
  9
$TDUCREATE
 40
2456974.077576238
  9
$TDUPDATE
 40
2456974.07757625
  9
$TDUUPDATE
 40
2456974.07757625
  9
$TDINDWG
 40
0.0000000116
  9
$TDUSRTIMER
 40
0.0000000116
  9
$USRTIMER
 70
     1
  9
$ANGBASE
 50
0.0
  9
$ANGDIR
 70
     0
  9
$PDMODE
 70
     0
  9
$PDSIZE
 40
0.0
  9
$PLINEWID
 40
0.0
  9
$SPLFRAME
 70
     0
  9
$SPLINETYPE
 70
     6
  9
$SPLINESEGS
 70
     8
  9
$HANDSEED
  5
70
  9
$SURFTAB1
 70
     6
  9
$SURFTAB2
 70
     6
  9
$SURFTYPE
 70
     6
  9
$SURFU
 70
     6
  9
$SURFV
 70
     6
  9
$UCSBASE
  2

  9
$UCSNAME
  2

  9
$UCSORG
 10
0.0
 20
0.0
 30
0.0
  9
$UCSXDIR
 10
1.0
 20
0.0
 30
0.0
  9
$UCSYDIR
 10
0.0
 20
1.0
 30
0.0
  9
$UCSORTHOREF
  2

  9
$UCSORTHOVIEW
 70
     0
  9
$UCSORGTOP
 10
0.0
 20
0.0
 30
0.0
  9
$UCSORGBOTTOM
 10
0.0
 20
0.0
 30
0.0
  9
$UCSORGLEFT
 10
0.0
 20
0.0
 30
0.0
  9
$UCSORGRIGHT
 10
0.0
 20
0.0
 30
0.0
  9
$UCSORGFRONT
 10
0.0
 20
0.0
 30
0.0
  9
$UCSORGBACK
 10
0.0
 20
0.0
 30
0.0
  9
$PUCSBASE
  2

  9
$PUCSNAME
  2

  9
$PUCSORG
 10
0.0
 20
0.0
 30
0.0
  9
$PUCSXDIR
 10
1.0
 20
0.0
 30
0.0
  9
$PUCSYDIR
 10
0.0
 20
1.0
 30
0.0
  9
$PUCSORTHOREF
  2

  9
$PUCSORTHOVIEW
 70
     0
  9
$PUCSORGTOP
 10
0.0
 20
0.0
 30
0.0
  9
$PUCSORGBOTTOM
 10
0.0
 20
0.0
 30
0.0
  9
$PUCSORGLEFT
 10
0.0
 20
0.0
 30
0.0
  9
$PUCSORGRIGHT
 10
0.0
 20
0.0
 30
0.0
  9
$PUCSORGFRONT
 10
0.0
 20
0.0
 30
0.0
  9
$PUCSORGBACK
 10
0.0
 20
0.0
 30
0.0
  9
$USERI1
 70
     0
  9
$USERI2
 70
     0
  9
$USERI3
 70
     0
  9
$USERI4
 70
     0
  9
$USERI5
 70
     0
  9
$USERR1
 40
0.0
  9
$USERR2
 40
0.0
  9
$USERR3
 40
0.0
  9
$USERR4
 40
0.0
  9
$USERR5
 40
0.0
  9
$WORLDVIEW
 70
     1
  9
$SHADEDGE
 70
     3
  9
$SHADEDIF
 70
    70
  9
$TILEMODE
 70
     1
  9
$MAXACTVP
 70
    64
  9
$PINSBASE
 10
0.0
 20
0.0
 30
0.0
  9
$PLIMCHECK
 70
     0
  9
$PEXTMIN
 10
1.000000000000000E+20
 20
1.000000000000000E+20
 30
1.000000000000000E+20
  9
$PEXTMAX
 10
-1.000000000000000E+20
 20
-1.000000000000000E+20
 30
-1.000000000000000E+20
  9
$PLIMMIN
 10
0.0
 20
0.0
  9
$PLIMMAX
 10
12.0
 20
9.0
  9
$UNITMODE
 70
     0
  9
$VISRETAIN
 70
     1
  9
$PLINEGEN
 70
     0
  9
$PSLTSCALE
 70
     1
  9
$TREEDEPTH
 70
  3020
  9
$CMLSTYLE
  2
Standard
  9
$CMLJUST
 70
     0
  9
$CMLSCALE
 40
1.0
  9
$PROXYGRAPHICS
 70
     1
  9
$MEASUREMENT
 70
     0
  9
$CELWEIGHT
370
    -1
  9
$ENDCAPS
280
     0
  9
$JOINSTYLE
280
     0
  9
$LWDISPLAY
290
     0
  9
$INSUNITS
 70
     5
  9
$HYPERLINKBASE
  1

  9
$STYLESHEET
  1

  9
$XEDIT
290
     1
  9
$CEPSNTYPE
380
     0
  9
$PSTYLEMODE
290
     1
  9
$FINGERPRINTGUID
  2
{90B3B3DF-6F27-4B03-B5F2-4DDA6E2CB07C}
  9
$VERSIONGUID
  2
{FAEB1C32-E019-11D5-929B-00C0DF256EC4}
  9
$EXTNAMES
290
     1
  9
$PSVPSCALE
 40
0.0
  9
$OLESTARTUP
290
     0
  9
$SORTENTS
280
   127
  9
$INDEXCTL
280
     0
  9
$HIDETEXT
280
     1
  9
$XCLIPFRAME
290
     0
  9
$HALOGAP
280
     0
  9
$OBSCOLOR
 70
   257
  9
$OBSLTYPE
280
     0
  9
$INTERSECTIONDISPLAY
280
     0
  9
$INTERSECTIONCOLOR
 70
   257
  9
$DIMASSOC
280
     2
  9
$PROJECTNAME
  1

  9
$CAMERADISPLAY
290
     0
  9
$LENSLENGTH
 40
50.0
  9
$CAMERAHEIGHT
 40
0.0
  9
$STEPSPERSEC
 40
2.0
  9
$STEPSIZE
 40
6.0
  9
$3DDWFPREC
 40
2.0
  9
$PSOLWIDTH
 40
0.25
  9
$PSOLHEIGHT
 40
4.0
  9
$LOFTANG1
 40
1.570796326794897
  9
$LOFTANG2
 40
1.570796326794897
  9
$LOFTMAG1
 40
0.0
  9
$LOFTMAG2
 40
0.0
  9
$LOFTPARAM
 70
     7
  9
$LOFTNORMALS
280
     1
  9
$LATITUDE
 40
37.795
  9
$LONGITUDE
 40
-122.394
  9
$NORTHDIRECTION
 40
0.0
  9
$TIMEZONE
 70
 -8000
  9
$LIGHTGLYPHDISPLAY
280
     1
  9
$TILEMODELIGHTSYNCH
280
     1
  9
$SOLIDHIST
280
     1
  9
$SHOWHIST
280
     1
  9
$DWFFRAME
280
     2
  9
$DGNFRAME
280
     2
  9
$REALWORLDSCALE
290
     1
  9
$INTERFERECOLOR
 62
   256
  9
$CSHADOW
280
     0
  9
$SHADOWPLANELOCATION
 40
0.0
  0
ENDSEC
  0
SECTION
  2
CLASSES
  0
CLASS
  1
ACDBDICTIONARYWDFLT
  2
AcDbDictionaryWithDefault
  3
ObjectDBX Classes
 90
        0
 91
        3
280
     0
281
     0
  0
CLASS
  1
VISUALSTYLE
  2
AcDbVisualStyle
  3
ObjectDBX Classes
 90
     4095
 91
        3
280
     0
281
     0
  0
CLASS
  1
SCALE
  2
AcDbScale
  3
ObjectDBX Classes
 90
     1153
 91
        3
280
     0
281
     0
  0
ENDSEC
  0
SECTION
  2
TABLES
  0
TABLE
  2
VPORT
  5
8
330
0
100
AcDbSymbolTable
 70
     1
  0
VPORT
  5
29
330
8
100
AcDbSymbolTableRecord
100
AcDbViewportTableRecord
  2
*Active
 70
     0
 10
0.0
 20
0.0
 11
1.0
 21
1.0
 12
10.42990654205607
 22
4.5
 13
0.0
 23
0.0
 14
0.5
 24
0.5
 15
0.5
 25
0.5
 16
0.0
 26
0.0
 36
1.0
 17
0.0
 27
0.0
 37
0.0
 40
9.0
 41
1.972972972850329
 42
50.0
 43
0.0
 44
0.0
 50
0.0
 51
0.0
 71
     0
 72
   100
 73
     1
 74
     3
 75
     0
 76
     0
 77
     0
 78
     0
281
     0
 65
     1
110
0.0
120
0.0
130
0.0
111
1.0
121
0.0
131
0.0
112
0.0
122
1.0
132
0.0
 79
     0
146
0.0
 60
     3
 61
     5
292
     1
282
     1
141
0.0
142
0.0
 63
   256
  0
ENDTAB
  0
TABLE
  2
LTYPE
  5
5
330
0
100
AcDbSymbolTable
 70
     1
  0
LTYPE
  5
14
330
5
100
AcDbSymbolTableRecord
100
AcDbLinetypeTableRecord
  2
ByBlock
 70
     0
  3

 72
    65
 73
     0
 40
0.0
  0
LTYPE
  5
15
330
5
100
AcDbSymbolTableRecord
100
AcDbLinetypeTableRecord
  2
ByLayer
 70
     0
  3

 72
    65
 73
     0
 40
0.0
  0
LTYPE
  5
16
330
5
100
AcDbSymbolTableRecord
100
AcDbLinetypeTableRecord
  2
Continuous
 70
     0
  3
Solid line
 72
    65
 73
     0
 40
0.0
  0
ENDTAB
  0
TABLE
  2
LAYER
  5
2
330
0
100
AcDbSymbolTable
 70
     2
  0
LAYER
  5
10
330
2
100
AcDbSymbolTableRecord
100
AcDbLayerTableRecord
  2
0
 70
     0
 62
     7
  6
Continuous
370
    -3
390
F
347
0
  0
LAYER
  5
5E
330
2
100
AcDbSymbolTableRecord
100
AcDbLayerTableRecord
  2
Layer 1
 70
     0
 62
     7
  6
Continuous
370
    -3
390
F
347
0
  0
ENDTAB
  0
TABLE
  2
STYLE
  5
3
330
0
100
AcDbSymbolTable
 70
     1
  0
STYLE
  5
11
330
3
100
AcDbSymbolTableRecord
100
AcDbTextStyleTableRecord
  2
Standard
 70
     0
 40
0.0
 41
1.0
 50
0.0
 71
     0
 42
0.2
  3
txt
  4

  0
ENDTAB
  0
TABLE
  2
VIEW
  5
6
330
0
100
AcDbSymbolTable
 70
     0
  0
ENDTAB
  0
TABLE
  2
UCS
  5
7
330
0
100
AcDbSymbolTable
 70
     0
  0
ENDTAB
  0
TABLE
  2
APPID
  5
9
330
0
100
AcDbSymbolTable
 70
     2
  0
APPID
  5
12
330
9
100
AcDbSymbolTableRecord
100
AcDbRegAppTableRecord
  2
ACAD
 70
     0
  0
APPID
  5
5D
330
9
100
AcDbSymbolTableRecord
100
AcDbRegAppTableRecord
  2
ODA
 70
     0
  0
ENDTAB
  0
TABLE
  2
DIMSTYLE
  5
A
330
0
100
AcDbSymbolTable
 70
     1
100
AcDbDimStyleTable
  0
DIMSTYLE
105
27
330
A
100
AcDbSymbolTableRecord
100
AcDbDimStyleTableRecord
  2
Standard
 70
     0
340
11
  0
ENDTAB
  0
TABLE
  2
BLOCK_RECORD
  5
1
330
0
100
AcDbSymbolTable
 70
     1
  0
BLOCK_RECORD
  5
1F
330
1
100
AcDbSymbolTableRecord
100
AcDbBlockTableRecord
  2
*Model_Space
340
22
 70
     0
280
     1
281
     0
  0
BLOCK_RECORD
  5
1B
330
1
100
AcDbSymbolTableRecord
100
AcDbBlockTableRecord
  2
*Paper_Space
340
1E
 70
     0
280
     1
281
     0
  0
BLOCK_RECORD
  5
23
330
1
100
AcDbSymbolTableRecord
100
AcDbBlockTableRecord
  2
*Paper_Space0
340
26
 70
     0
280
     1
281
     0
  0
ENDTAB
  0
ENDSEC
  0
SECTION
  2
BLOCKS
  0
BLOCK
  5
20
330
1F
100
AcDbEntity
  8
0
100
AcDbBlockBegin
  2
*Model_Space
 70
     0
 10
0.0
 20
0.0
 30
0.0
  3
*Model_Space
  1

  0
ENDBLK
  5
21
330
1F
100
AcDbEntity
  8
0
100
AcDbBlockEnd
  0
BLOCK
  5
1C
330
1B
100
AcDbEntity
 67
     1
  8
0
100
AcDbBlockBegin
  2
*Paper_Space
 70
     0
 10
0.0
 20
0.0
 30
0.0
  3
*Paper_Space
  1

  0
ENDBLK
  5
1D
330
1B
100
AcDbEntity
 67
     1
  8
0
100
AcDbBlockEnd
  0
BLOCK
  5
24
330
23
100
AcDbEntity
  8
0
100
AcDbBlockBegin
  2
*Paper_Space0
 70
     0
 10
0.0
 20
0.0
 30
0.0
  3
*Paper_Space0
  1

  0
ENDBLK
  5
25
330
23
100
AcDbEntity
  8
0
100
AcDbBlockEnd
  0
ENDSEC
  0
SECTION
  2
ENTITIES
  0
SPLINE
  5
5F
330
1F
100
AcDbEntity
  8
Layer 1
 62
   250
370
    53
100
AcDbSpline
210
0.0
220
0.0
230
1.0
 70
    11
 71
     3
 72
    20
 73
    16
 74
     0
 42
0.0000000001
 43
0.0000000001
 40
0.0
 40
0.0
 40
0.0
 40
0.0
 40
0.25
 40
0.25
 40
0.25
 40
0.25
 40
0.5
 40
0.5
 40
0.5
 40
0.5
 40
0.75
 40
0.75
 40
0.75
 40
0.75
 40
1.0
 40
1.0
 40
1.0
 40
1.0
 10
-11.5
 20
-13.8
 30
0.0
 10
-11.33434
 20
-13.8
 30
0.0
 10
-11.2
 20
-13.93434
 30
0.0
 10
-11.2
 20
-14.1
 30
0.0
 10
-11.2
 20
-14.1
 30
0.0
 10
-11.2
 20
-14.26566
 30
0.0
 10
-11.33434
 20
-14.4
 30
0.0
 10
-11.5
 20
-14.4
 30
0.0
 10
-11.5
 20
-14.4
 30
0.0
 10
-11.66566
 20
-14.4
 30
0.0
 10
-11.8
 20
-14.26566
 30
0.0
 10
-11.8
 20
-14.1
 30
0.0
 10
-11.8
 20
-14.1
 30
0.0
 10
-11.8
 20
-13.93434
 30
0.0
 10
-11.66566
 20
-13.8
 30
0.0
 10
-11.5
 20
-13.8
 30
0.0
  0
SPLINE
  5
60
330
1F
100
AcDbEntity
  8
Layer 1
 62
   250
370
    53
100
AcDbSpline
210
0.0
220
0.0
230
1.0
 70
    11
 71
     3
 72
    20
 73
    16
 74
     0
 42
0.0000000001
 43
0.0000000001
 40
0.0
 40
0.0
 40
0.0
 40
0.0
 40
0.25
 40
0.25
 40
0.25
 40
0.25
 40
0.5
 40
0.5
 40
0.5
 40
0.5
 40
0.75
 40
0.75
 40
0.75
 40
0.75
 40
1.0
 40
1.0
 40
1.0
 40
1.0
 10
-10.8
 20
-13.94125
 30
0.0
 10
-10.8
 20
-13.94125
 30
0.0
 10
-10.2
 20
-13.94125
 30
0.0
 10
-10.2
 20
-13.94125
 30
0.0
 10
-10.2
 20
-13.94125
 30
0.0
 10
-10.2
 20
-13.94125
 30
0.0
 10
-10.2
 20
-14.25875
 30
0.0
 10
-10.2
 20
-14.25875
 30
0.0
 10
-10.2
 20
-14.25875
 30
0.0
 10
-10.2
 20
-14.25875
 30
0.0
 10
-10.8
 20
-14.25875
 30
0.0
 10
-10.8
 20
-14.25875
 30
0.0
 10
-10.8
 20
-14.25875
 30
0.0
 10
-10.8
 20
-14.25875
 30
0.0
 10
-10.8
 20
-13.94125
 30
0.0
 10
-10.8
 20
-13.94125
 30
0.0
  0
SPLINE
  5
61
330
1F
100
AcDbEntity
  8
Layer 1
 62
   250
370
    53
100
AcDbSpline
210
0.0
220
0.0
230
1.0
 70
    11
 71
     3
 72
    20
 73
    16
 74
     0
 42
0.0000000001
 43
0.0000000001
 40
0.0
 40
0.0
 40
0.0
 40
0.0
 40
0.25
 40
0.25
 40
0.25
 40
0.25
 40
0.5
 40
0.5
 40
0.5
 40
0.5
 40
0.75
 40
0.75
 40
0.75
 40
0.75
 40
1.0
 40
1.0
 40
1.0
 40
1.0
 10
-12.8
 20
-13.94125
 30
0.0
 10
-12.8
 20
-13.94125
 30
0.0
 10
-12.2
 20
-13.94125
 30
0.0
 10
-12.2
 20
-13.94125
 30
0.0
 10
-12.2
 20
-13.94125
 30
0.0
 10
-12.2
 20
-13.94125
 30
0.0
 10
-12.2
 20
-14.25875
 30
0.0
 10
-12.2
 20
-14.25875
 30
0.0
 10
-12.2
 20
-14.25875
 30
0.0
 10
-12.2
 20
-14.25875
 30
0.0
 10
-12.8
 20
-14.25875
 30
0.0
 10
-12.8
 20
-14.25875
 30
0.0
 10
-12.8
 20
-14.25875
 30
0.0
 10
-12.8
 20
-14.25875
 30
0.0
 10
-12.8
 20
-13.94125
 30
0.0
 10
-12.8
 20
-13.94125
 30
0.0
  0
SPLINE
  5
62
330
1F
100
AcDbEntity
  8
Layer 1
 62
   250
370
    53
100
AcDbSpline
210
0.0
220
0.0
230
1.0
 70
    11
 71
     3
 72
    20
 73
    16
 74
     0
 42
0.0000000001
 43
0.0000000001
 40
0.0
 40
0.0
 40
0.0
 40
0.0
 40
0.25
 40
0.25
 40
0.25
 40
0.25
 40
0.5
 40
0.5
 40
0.5
 40
0.5
 40
0.75
 40
0.75
 40
0.75
 40
0.75
 40
1.0
 40
1.0
 40
1.0
 40
1.0
 10
-13.5
 20
-13.8
 30
0.0
 10
-13.33434
 20
-13.8
 30
0.0
 10
-13.2
 20
-13.93434
 30
0.0
 10
-13.2
 20
-14.1
 30
0.0
 10
-13.2
 20
-14.1
 30
0.0
 10
-13.2
 20
-14.26566
 30
0.0
 10
-13.33434
 20
-14.4
 30
0.0
 10
-13.5
 20
-14.4
 30
0.0
 10
-13.5
 20
-14.4
 30
0.0
 10
-13.66566
 20
-14.4
 30
0.0
 10
-13.8
 20
-14.26566
 30
0.0
 10
-13.8
 20
-14.1
 30
0.0
 10
-13.8
 20
-14.1
 30
0.0
 10
-13.8
 20
-13.93434
 30
0.0
 10
-13.66566
 20
-13.8
 30
0.0
 10
-13.5
 20
-13.8
 30
0.0
  0
SPLINE
  5
63
330
1F
100
AcDbEntity
  8
Layer 1
 62
   250
370
    53
100
AcDbSpline
210
0.0
220
0.0
230
1.0
 70
    11
 71
     3
 72
    20
 73
    16
 74
     0
 42
0.0000000001
 43
0.0000000001
 40
0.0
 40
0.0
 40
0.0
 40
0.0
 40
0.25
 40
0.25
 40
0.25
 40
0.25
 40
0.5
 40
0.5
 40
0.5
 40
0.5
 40
0.75
 40
0.75
 40
0.75
 40
0.75
 40
1.0
 40
1.0
 40
1.0
 40
1.0
 10
-9.5
 20
-13.8
 30
0.0
 10
-9.33434
 20
-13.8
 30
0.0
 10
-9.2
 20
-13.93434
 30
0.0
 10
-9.2
 20
-14.1
 30
0.0
 10
-9.2
 20
-14.1
 30
0.0
 10
-9.2
 20
-14.26566
 30
0.0
 10
-9.33434
 20
-14.4
 30
0.0
 10
-9.5
 20
-14.4
 30
0.0
 10
-9.5
 20
-14.4
 30
0.0
 10
-9.66566
 20
-14.4
 30
0.0
 10
-9.8
 20
-14.26566
 30
0.0
 10
-9.8
 20
-14.1
 30
0.0
 10
-9.8
 20
-14.1
 30
0.0
 10
-9.8
 20
-13.93434
 30
0.0
 10
-9.66566
 20
-13.8
 30
0.0
 10
-9.5
 20
-13.8
 30
0.0
  0
SPLINE
  5
64
330
1F
100
AcDbEntity
  8
Layer 1
 62
   250
370
    53
100
AcDbSpline
210
0.0
220
0.0
230
1.0
 70
    11
 71
     3
 72
    20
 73
    16
 74
     0
 42
0.0000000001
 43
0.0000000001
 40
0.0
 40
0.0
 40
0.0
 40
0.0
 40
0.25
 40
0.25
 40
0.25
 40
0.25
 40
0.5
 40
0.5
 40
0.5
 40
0.5
 40
0.75
 40
0.75
 40
0.75
 40
0.75
 40
1.0
 40
1.0
 40
1.0
 40
1.0
 10
-8.8
 20
-13.94125
 30
0.0
 10
-8.8
 20
-13.94125
 30
0.0
 10
-8.2
 20
-13.94125
 30
0.0
 10
-8.2
 20
-13.94125
 30
0.0
 10
-8.2
 20
-13.94125
 30
0.0
 10
-8.2
 20
-13.94125
 30
0.0
 10
-8.2
 20
-14.25875
 30
0.0
 10
-8.2
 20
-14.25875
 30
0.0
 10
-8.2
 20
-14.25875
 30
0.0
 10
-8.2
 20
-14.25875
 30
0.0
 10
-8.8
 20
-14.25875
 30
0.0
 10
-8.8
 20
-14.25875
 30
0.0
 10
-8.8
 20
-14.25875
 30
0.0
 10
-8.8
 20
-14.25875
 30
0.0
 10
-8.8
 20
-13.94125
 30
0.0
 10
-8.8
 20
-13.94125
 30
0.0
  0
SPLINE
  5
65
330
1F
100
AcDbEntity
  8
Layer 1
 62
   250
370
    53
100
AcDbSpline
210
0.0
220
0.0
230
1.0
 70
    11
 71
     3
 72
    20
 73
    16
 74
     0
 42
0.0000000001
 43
0.0000000001
 40
0.0
 40
0.0
 40
0.0
 40
0.0
 40
0.25
 40
0.25
 40
0.25
 40
0.25
 40
0.5
 40
0.5
 40
0.5
 40
0.5
 40
0.75
 40
0.75
 40
0.75
 40
0.75
 40
1.0
 40
1.0
 40
1.0
 40
1.0
 10
-7.5
 20
-13.8
 30
0.0
 10
-7.33434
 20
-13.8
 30
0.0
 10
-7.2
 20
-13.93434
 30
0.0
 10
-7.2
 20
-14.1
 30
0.0
 10
-7.2
 20
-14.1
 30
0.0
 10
-7.2
 20
-14.26566
 30
0.0
 10
-7.33434
 20
-14.4
 30
0.0
 10
-7.5
 20
-14.4
 30
0.0
 10
-7.5
 20
-14.4
 30
0.0
 10
-7.66566
 20
-14.4
 30
0.0
 10
-7.8
 20
-14.26566
 30
0.0
 10
-7.8
 20
-14.1
 30
0.0
 10
-7.8
 20
-14.1
 30
0.0
 10
-7.8
 20
-13.93434
 30
0.0
 10
-7.66566
 20
-13.8
 30
0.0
 10
-7.5
 20
-13.8
 30
0.0
  0
SPLINE
  5
66
330
1F
100
AcDbEntity
  8
Layer 1
 62
    30
370
    53
100
AcDbSpline
210
0.0
220
0.0
230
1.0
 70
    11
 71
     3
 72
    84
 73
    80
 74
     0
 42
0.0000000001
 43
0.0000000001
 40
0.0
 40
0.0
 40
0.0
 40
0.0
 40
0.05
 40
0.05
 40
0.05
 40
0.05
 40
0.1
 40
0.1
 40
0.1
 40
0.1
 40
0.15
 40
0.15
 40
0.15
 40
0.15
 40
0.2
 40
0.2
 40
0.2
 40
0.2
 40
0.25
 40
0.25
 40
0.25
 40
0.25
 40
0.3
 40
0.3
 40
0.3
 40
0.3
 40
0.35
 40
0.35
 40
0.35
 40
0.35
 40
0.4
 40
0.4
 40
0.4
 40
0.4
 40
0.45
 40
0.45
 40
0.45
 40
0.45
 40
0.4999999999999999
 40
0.4999999999999999
 40
0.4999999999999999
 40
0.4999999999999999
 40
0.5499999999999999
 40
0.5499999999999999
 40
0.5499999999999999
 40
0.5499999999999999
 40
0.6
 40
0.6
 40
0.6
 40
0.6
 40
0.65
 40
0.65
 40
0.65
 40
0.65
 40
0.7000000000000001
 40
0.7000000000000001
 40
0.7000000000000001
 40
0.7000000000000001
 40
0.7500000000000001
 40
0.7500000000000001
 40
0.7500000000000001
 40
0.7500000000000001
 40
0.8000000000000002
 40
0.8000000000000002
 40
0.8000000000000002
 40
0.8000000000000002
 40
0.8500000000000002
 40
0.8500000000000002
 40
0.8500000000000002
 40
0.8500000000000002
 40
0.9000000000000002
 40
0.9000000000000002
 40
0.9000000000000002
 40
0.9000000000000002
 40
0.9500000000000003
 40
0.9500000000000003
 40
0.9500000000000003
 40
0.9500000000000003
 40
1.0
 40
1.0
 40
1.0
 40
1.0
 10
-10.97688
 20
-14.40035
 30
0.0
 10
-10.97688
 20
-14.40035
 30
0.0
 10
-10.9773
 20
-14.63742
 30
0.0
 10
-10.9773
 20
-14.63742
 30
0.0
 10
-10.9773
 20
-14.63742
 30
0.0
 10
-10.9773
 20
-14.64511
 30
0.0
 10
-10.97893
 20
-14.65287
 30
0.0
 10
-10.98203
 20
-14.66056
 30
0.0
 10
-10.98203
 20
-14.66056
 30
0.0
 10
-10.98521
 20
-14.66832
 30
0.0
 10
-10.98986
 20
-14.67538
 30
0.0
 10
-10.996
 20
-14.68187
 30
0.0
 10
-10.996
 20
-14.68187
 30
0.0
 10
-11.00221
 20
-14.68829
 30
0.0
 10
-11.00976
 20
-14.69351
 30
0.0
 10
-11.01872
 20
-14.69739
 30
0.0
 10
-11.01872
 20
-14.69739
 30
0.0
 10
-11.02775
 20
-14.70134
 30
0.0
 10
-11.03805
 20
-14.70332
 30
0.0
 10
-11.04969
 20
-14.70346
 30
0.0
 10
-11.04969
 20
-14.70346
 30
0.0
 10
-11.06134
 20
-14.70346
 30
0.0
 10
-11.07185
 20
-14.70155
 30
0.0
 10
-11.08116
 20
-14.69781
 30
0.0
 10
-11.08116
 20
-14.69781
 30
0.0
 10
-11.09048
 20
-14.694
 30
0.0
 10
-11.09845
 20
-14.68892
 30
0.0
 10
-11.10501
 20
-14.6825
 30
0.0
 10
-11.10501
 20
-14.6825
 30
0.0
 10
-11.11164
 20
-14.67608
 30
0.0
 10
-11.11665
 20
-14.66903
 30
0.0
 10
-11.12018
 20
-14.66119
 30
0.0
 10
-11.12018
 20
-14.66119
 30
0.0
 10
-11.12371
 20
-14.65336
 30
0.0
 10
-11.12547
 20
-14.64546
 30
0.0
 10
-11.12547
 20
-14.63742
 30
0.0
 10
-11.12547
 20
-14.63742
 30
0.0
 10
-11.12547
 20
-14.63742
 30
0.0
 10
-11.12547
 20
-14.60609
 30
0.0
 10
-11.12547
 20
-14.60609
 30
0.0
 10
-11.12547
 20
-14.60609
 30
0.0
 10
-11.12547
 20
-14.60609
 30
0.0
 10
-11.12547
 20
-14.63742
 30
0.0
 10
-11.12547
 20
-14.63742
 30
0.0
 10
-11.12547
 20
-14.63742
 30
0.0
 10
-11.12547
 20
-14.64546
 30
0.0
 10
-11.12371
 20
-14.65336
 30
0.0
 10
-11.12018
 20
-14.66119
 30
0.0
 10
-11.12018
 20
-14.66119
 30
0.0
 10
-11.11665
 20
-14.66903
 30
0.0
 10
-11.11164
 20
-14.67608
 30
0.0
 10
-11.10501
 20
-14.6825
 30
0.0
 10
-11.10501
 20
-14.6825
 30
0.0
 10
-11.09845
 20
-14.68892
 30
0.0
 10
-11.09048
 20
-14.694
 30
0.0
 10
-11.08116
 20
-14.69781
 30
0.0
 10
-11.08116
 20
-14.69781
 30
0.0
 10
-11.07185
 20
-14.70155
 30
0.0
 10
-11.06134
 20
-14.70346
 30
0.0
 10
-11.04969
 20
-14.70346
 30
0.0
 10
-11.04969
 20
-14.70346
 30
0.0
 10
-11.03805
 20
-14.70332
 30
0.0
 10
-11.02775
 20
-14.70134
 30
0.0
 10
-11.01872
 20
-14.69739
 30
0.0
 10
-11.01872
 20
-14.69739
 30
0.0
 10
-11.00976
 20
-14.69351
 30
0.0
 10
-11.00221
 20
-14.68829
 30
0.0
 10
-10.996
 20
-14.68187
 30
0.0
 10
-10.996
 20
-14.68187
 30
0.0
 10
-10.98986
 20
-14.67538
 30
0.0
 10
-10.98521
 20
-14.66832
 30
0.0
 10
-10.98203
 20
-14.66056
 30
0.0
 10
-10.98203
 20
-14.66056
 30
0.0
 10
-10.97893
 20
-14.65287
 30
0.0
 10
-10.9773
 20
-14.64511
 30
0.0
 10
-10.9773
 20
-14.63742
 30
0.0
 10
-10.9773
 20
-14.63742
 30
0.0
 10
-10.9773
 20
-14.63742
 30
0.0
 10
-10.97688
 20
-14.40035
 30
0.0
 10
-10.97688
 20
-14.40035
 30
0.0
  0
SPLINE
  5
67
330
1F
100
AcDbEntity
  8
Layer 1
 62
    30
370
    53
100
AcDbSpline
210
0.0
220
0.0
230
1.0
 70
    11
 71
     3
 72
    20
 73
    16
 74
     0
 42
0.0000000001
 43
0.0000000001
 40
0.0
 40
0.0
 40
0.0
 40
0.0
 40
0.25
 40
0.25
 40
0.25
 40
0.25
 40
0.5
 40
0.5
 40
0.5
 40
0.5
 40
0.75
 40
0.75
 40
0.75
 40
0.75
 40
1.0
 40
1.0
 40
1.0
 40
1.0
 10
-10.87867
 20
-14.70388
 30
0.0
 10
-10.87867
 20
-14.70388
 30
0.0
 10
-10.7576
 20
-14.39866
 30
0.0
 10
-10.7576
 20
-14.39866
 30
0.0
 10
-10.7576
 20
-14.39866
 30
0.0
 10
-10.7576
 20
-14.39866
 30
0.0
 10
-10.6361
 20
-14.70388
 30
0.0
 10
-10.6361
 20
-14.70388
 30
0.0
 10
-10.6361
 20
-14.70388
 30
0.0
 10
-10.6361
 20
-14.70388
 30
0.0
 10
-10.7576
 20
-14.39866
 30
0.0
 10
-10.7576
 20
-14.39866
 30
0.0
 10
-10.7576
 20
-14.39866
 30
0.0
 10
-10.7576
 20
-14.39866
 30
0.0
 10
-10.87867
 20
-14.70388
 30
0.0
 10
-10.87867
 20
-14.70388
 30
0.0
  0
SPLINE
  5
68
330
1F
100
AcDbEntity
  8
Layer 1
 62
    30
370
    53
100
AcDbSpline
210
0.0
220
0.0
230
1.0
 70
    27
 71
     3
 72
    12
 73
     8
 74
     0
 42
0.0000000001
 43
0.0000000001
 40
0.0
 40
0.0
 40
0.0
 40
0.0
 40
0.5
 40
0.5
 40
0.5
 40
0.5
 40
1.0
 40
1.0
 40
1.0
 40
1.0
 10
-10.84057
 20
-14.60778
 30
0.0
 10
-10.84057
 20
-14.60778
 30
0.0
 10
-10.67463
 20
-14.60778
 30
0.0
 10
-10.67463
 20
-14.60778
 30
0.0
 10
-10.67463
 20
-14.60778
 30
0.0
 10
-10.67463
 20
-14.60778
 30
0.0
 10
-10.84057
 20
-14.60778
 30
0.0
 10
-10.84057
 20
-14.60778
 30
0.0
  0
SPLINE
  5
69
330
1F
100
AcDbEntity
  8
Layer 1
 62
    30
370
    53
100
AcDbSpline
210
0.0
220
0.0
230
1.0
 70
    27
 71
     3
 72
    12
 73
     8
 74
     0
 42
0.0000000001
 43
0.0000000001
 40
0.0
 40
0.0
 40
0.0
 40
0.0
 40
0.5
 40
0.5
 40
0.5
 40
0.5
 40
1.0
 40
1.0
 40
1.0
 40
1.0
 10
-10.53281
 20
-14.54428
 30
0.0
 10
-10.53281
 20
-14.54428
 30
0.0
 10
-10.40962
 20
-14.54428
 30
0.0
 10
-10.40962
 20
-14.54428
 30
0.0
 10
-10.40962
 20
-14.54428
 30
0.0
 10
-10.40962
 20
-14.54428
 30
0.0
 10
-10.53281
 20
-14.54428
 30
0.0
 10
-10.53281
 20
-14.54428
 30
0.0
  0
SPLINE
  5
6A
330
1F
100
AcDbEntity
  8
Layer 1
 62
    30
370
    53
100
AcDbSpline
210
0.0
220
0.0
230
1.0
 70
    11
 71
     3
 72
    84
 73
    80
 74
     0
 42
0.0000000001
 43
0.0000000001
 40
0.0
 40
0.0
 40
0.0
 40
0.0
 40
0.05
 40
0.05
 40
0.05
 40
0.05
 40
0.1
 40
0.1
 40
0.1
 40
0.1
 40
0.15
 40
0.15
 40
0.15
 40
0.15
 40
0.2
 40
0.2
 40
0.2
 40
0.2
 40
0.25
 40
0.25
 40
0.25
 40
0.25
 40
0.3
 40
0.3
 40
0.3
 40
0.3
 40
0.35
 40
0.35
 40
0.35
 40
0.35
 40
0.4
 40
0.4
 40
0.4
 40
0.4
 40
0.45
 40
0.45
 40
0.45
 40
0.45
 40
0.4999999999999999
 40
0.4999999999999999
 40
0.4999999999999999
 40
0.4999999999999999
 40
0.5499999999999999
 40
0.5499999999999999
 40
0.5499999999999999
 40
0.5499999999999999
 40
0.6
 40
0.6
 40
0.6
 40
0.6
 40
0.65
 40
0.65
 40
0.65
 40
0.65
 40
0.7000000000000001
 40
0.7000000000000001
 40
0.7000000000000001
 40
0.7000000000000001
 40
0.7500000000000001
 40
0.7500000000000001
 40
0.7500000000000001
 40
0.7500000000000001
 40
0.8000000000000002
 40
0.8000000000000002
 40
0.8000000000000002
 40
0.8000000000000002
 40
0.8500000000000002
 40
0.8500000000000002
 40
0.8500000000000002
 40
0.8500000000000002
 40
0.9000000000000002
 40
0.9000000000000002
 40
0.9000000000000002
 40
0.9000000000000002
 40
0.9500000000000003
 40
0.9500000000000003
 40
0.9500000000000003
 40
0.9500000000000003
 40
1.0
 40
1.0
 40
1.0
 40
1.0
 10
-10.22039
 20
-14.70388
 30
0.0
 10
-10.20558
 20
-14.70381
 30
0.0
 10
-10.19281
 20
-14.7012
 30
0.0
 10
-10.18215
 20
-14.69612
 30
0.0
 10
-10.18215
 20
-14.69612
 30
0.0
 10
-10.17157
 20
-14.69104
 30
0.0
 10
-10.16275
 20
-14.68377
 30
0.0
 10
-10.1557
 20
-14.67453
 30
0.0
 10
-10.1557
 20
-14.67453
 30
0.0
 10
-10.14871
 20
-14.66522
 30
0.0
 10
-10.14321
 20
-14.65421
 30
0.0
 10
-10.13912
 20
-14.64151
 30
0.0
 10
-10.13912
 20
-14.64151
 30
0.0
 10
-10.13509
 20
-14.62881
 30
0.0
 10
-10.1322
 20
-14.61491
 30
0.0
 10
-10.13058
 20
-14.59967
 30
0.0
 10
-10.13058
 20
-14.59967
 30
0.0
 10
-10.12888
 20
-14.58443
 30
0.0
 10
-10.12804
 20
-14.56841
 30
0.0
 10
-10.12811
 20
-14.55148
 30
0.0
 10
-10.12811
 20
-14.55148
 30
0.0
 10
-10.12804
 20
-14.53462
 30
0.0
 10
-10.12888
 20
-14.5186
 30
0.0
 10
-10.13058
 20
-14.50343
 30
0.0
 10
-10.13058
 20
-14.50343
 30
0.0
 10
-10.1322
 20
-14.48826
 30
0.0
 10
-10.13509
 20
-14.47429
 30
0.0
 10
-10.13912
 20
-14.46159
 30
0.0
 10
-10.13912
 20
-14.46159
 30
0.0
 10
-10.14321
 20
-14.44896
 30
0.0
 10
-10.14871
 20
-14.43796
 30
0.0
 10
-10.1557
 20
-14.42857
 30
0.0
 10
-10.1557
 20
-14.42857
 30
0.0
 10
-10.16275
 20
-14.41926
 30
0.0
 10
-10.17157
 20
-14.41199
 30
0.0
 10
-10.18215
 20
-14.40691
 30
0.0
 10
-10.18215
 20
-14.40691
 30
0.0
 10
-10.19281
 20
-14.40176
 30
0.0
 10
-10.20558
 20
-14.39915
 30
0.0
 10
-10.22039
 20
-14.39908
 30
0.0
 10
-10.22039
 20
-14.39908
 30
0.0
 10
-10.23521
 20
-14.39915
 30
0.0
 10
-10.24798
 20
-14.40176
 30
0.0
 10
-10.25864
 20
-14.40691
 30
0.0
 10
-10.25864
 20
-14.40691
 30
0.0
 10
-10.26922
 20
-14.41199
 30
0.0
 10
-10.27804
 20
-14.41926
 30
0.0
 10
-10.28509
 20
-14.42857
 30
0.0
 10
-10.28509
 20
-14.42857
 30
0.0
 10
-10.29208
 20
-14.43796
 30
0.0
 10
-10.29758
 20
-14.44896
 30
0.0
 10
-10.30167
 20
-14.46159
 30
0.0
 10
-10.30167
 20
-14.46159
 30
0.0
 10
-10.3057
 20
-14.47429
 30
0.0
 10
-10.30859
 20
-14.48826
 30
0.0
 10
-10.31021
 20
-14.50343
 30
0.0
 10
-10.31021
 20
-14.50343
 30
0.0
 10
-10.3119
 20
-14.5186
 30
0.0
 10
-10.31275
 20
-14.53462
 30
0.0
 10
-10.31268
 20
-14.55148
 30
0.0
 10
-10.31268
 20
-14.55148
 30
0.0
 10
-10.31275
 20
-14.56841
 30
0.0
 10
-10.3119
 20
-14.58443
 30
0.0
 10
-10.31021
 20
-14.59967
 30
0.0
 10
-10.31021
 20
-14.59967
 30
0.0
 10
-10.30859
 20
-14.61491
 30
0.0
 10
-10.3057
 20
-14.62881
 30
0.0
 10
-10.30167
 20
-14.64151
 30
0.0
 10
-10.30167
 20
-14.64151
 30
0.0
 10
-10.29758
 20
-14.65421
 30
0.0
 10
-10.29208
 20
-14.66522
 30
0.0
 10
-10.28509
 20
-14.67453
 30
0.0
 10
-10.28509
 20
-14.67453
 30
0.0
 10
-10.27804
 20
-14.68377
 30
0.0
 10
-10.26922
 20
-14.69104
 30
0.0
 10
-10.25864
 20
-14.69612
 30
0.0
 10
-10.25864
 20
-14.69612
 30
0.0
 10
-10.24798
 20
-14.7012
 30
0.0
 10
-10.23521
 20
-14.70381
 30
0.0
 10
-10.22039
 20
-14.70388
 30
0.0
  0
SPLINE
  5
6B
330
1F
100
AcDbEntity
  8
Layer 1
 62
    30
370
    53
100
AcDbSpline
210
0.0
220
0.0
230
1.0
 70
    11
 71
     3
 72
    84
 73
    80
 74
     0
 42
0.0000000001
 43
0.0000000001
 40
0.0
 40
0.0
 40
0.0
 40
0.0
 40
0.05
 40
0.05
 40
0.05
 40
0.05
 40
0.1
 40
0.1
 40
0.1
 40
0.1
 40
0.15
 40
0.15
 40
0.15
 40
0.15
 40
0.2
 40
0.2
 40
0.2
 40
0.2
 40
0.25
 40
0.25
 40
0.25
 40
0.25
 40
0.3
 40
0.3
 40
0.3
 40
0.3
 40
0.35
 40
0.35
 40
0.35
 40
0.35
 40
0.4
 40
0.4
 40
0.4
 40
0.4
 40
0.45
 40
0.45
 40
0.45
 40
0.45
 40
0.4999999999999999
 40
0.4999999999999999
 40
0.4999999999999999
 40
0.4999999999999999
 40
0.5499999999999999
 40
0.5499999999999999
 40
0.5499999999999999
 40
0.5499999999999999
 40
0.6
 40
0.6
 40
0.6
 40
0.6
 40
0.65
 40
0.65
 40
0.65
 40
0.65
 40
0.7000000000000001
 40
0.7000000000000001
 40
0.7000000000000001
 40
0.7000000000000001
 40
0.7500000000000001
 40
0.7500000000000001
 40
0.7500000000000001
 40
0.7500000000000001
 40
0.8000000000000002
 40
0.8000000000000002
 40
0.8000000000000002
 40
0.8000000000000002
 40
0.8500000000000002
 40
0.8500000000000002
 40
0.8500000000000002
 40
0.8500000000000002
 40
0.9000000000000002
 40
0.9000000000000002
 40
0.9000000000000002
 40
0.9000000000000002
 40
0.9500000000000003
 40
0.9500000000000003
 40
0.9500000000000003
 40
0.9500000000000003
 40
1.0
 40
1.0
 40
1.0
 40
1.0
 10
-10.22039
 20
-14.70388
 30
0.0
 10
-10.20558
 20
-14.70381
 30
0.0
 10
-10.19281
 20
-14.7012
 30
0.0
 10
-10.18215
 20
-14.69612
 30
0.0
 10
-10.18215
 20
-14.69612
 30
0.0
 10
-10.17157
 20
-14.69104
 30
0.0
 10
-10.16275
 20
-14.68377
 30
0.0
 10
-10.1557
 20
-14.67453
 30
0.0
 10
-10.1557
 20
-14.67453
 30
0.0
 10
-10.14871
 20
-14.66522
 30
0.0
 10
-10.14321
 20
-14.65421
 30
0.0
 10
-10.13912
 20
-14.64151
 30
0.0
 10
-10.13912
 20
-14.64151
 30
0.0
 10
-10.13509
 20
-14.62881
 30
0.0
 10
-10.1322
 20
-14.61491
 30
0.0
 10
-10.13058
 20
-14.59967
 30
0.0
 10
-10.13058
 20
-14.59967
 30
0.0
 10
-10.12888
 20
-14.58443
 30
0.0
 10
-10.12804
 20
-14.56841
 30
0.0
 10
-10.12811
 20
-14.55148
 30
0.0
 10
-10.12811
 20
-14.55148
 30
0.0
 10
-10.12804
 20
-14.53462
 30
0.0
 10
-10.12888
 20
-14.5186
 30
0.0
 10
-10.13058
 20
-14.50343
 30
0.0
 10
-10.13058
 20
-14.50343
 30
0.0
 10
-10.1322
 20
-14.48826
 30
0.0
 10
-10.13509
 20
-14.47429
 30
0.0
 10
-10.13912
 20
-14.46159
 30
0.0
 10
-10.13912
 20
-14.46159
 30
0.0
 10
-10.14321
 20
-14.44896
 30
0.0
 10
-10.14871
 20
-14.43796
 30
0.0
 10
-10.1557
 20
-14.42857
 30
0.0
 10
-10.1557
 20
-14.42857
 30
0.0
 10
-10.16275
 20
-14.41926
 30
0.0
 10
-10.17157
 20
-14.41199
 30
0.0
 10
-10.18215
 20
-14.40691
 30
0.0
 10
-10.18215
 20
-14.40691
 30
0.0
 10
-10.19281
 20
-14.40176
 30
0.0
 10
-10.20558
 20
-14.39915
 30
0.0
 10
-10.22039
 20
-14.39908
 30
0.0
 10
-10.22039
 20
-14.39908
 30
0.0
 10
-10.23521
 20
-14.39915
 30
0.0
 10
-10.24798
 20
-14.40176
 30
0.0
 10
-10.25864
 20
-14.40691
 30
0.0
 10
-10.25864
 20
-14.40691
 30
0.0
 10
-10.26922
 20
-14.41199
 30
0.0
 10
-10.27804
 20
-14.41926
 30
0.0
 10
-10.28509
 20
-14.42857
 30
0.0
 10
-10.28509
 20
-14.42857
 30
0.0
 10
-10.29208
 20
-14.43796
 30
0.0
 10
-10.29758
 20
-14.44896
 30
0.0
 10
-10.30167
 20
-14.46159
 30
0.0
 10
-10.30167
 20
-14.46159
 30
0.0
 10
-10.3057
 20
-14.47429
 30
0.0
 10
-10.30859
 20
-14.48826
 30
0.0
 10
-10.31021
 20
-14.50343
 30
0.0
 10
-10.31021
 20
-14.50343
 30
0.0
 10
-10.3119
 20
-14.5186
 30
0.0
 10
-10.31275
 20
-14.53462
 30
0.0
 10
-10.31268
 20
-14.55148
 30
0.0
 10
-10.31268
 20
-14.55148
 30
0.0
 10
-10.31275
 20
-14.56841
 30
0.0
 10
-10.3119
 20
-14.58443
 30
0.0
 10
-10.31021
 20
-14.59967
 30
0.0
 10
-10.31021
 20
-14.59967
 30
0.0
 10
-10.30859
 20
-14.61491
 30
0.0
 10
-10.3057
 20
-14.62881
 30
0.0
 10
-10.30167
 20
-14.64151
 30
0.0
 10
-10.30167
 20
-14.64151
 30
0.0
 10
-10.29758
 20
-14.65421
 30
0.0
 10
-10.29208
 20
-14.66522
 30
0.0
 10
-10.28509
 20
-14.67453
 30
0.0
 10
-10.28509
 20
-14.67453
 30
0.0
 10
-10.27804
 20
-14.68377
 30
0.0
 10
-10.26922
 20
-14.69104
 30
0.0
 10
-10.25864
 20
-14.69612
 30
0.0
 10
-10.25864
 20
-14.69612
 30
0.0
 10
-10.24798
 20
-14.7012
 30
0.0
 10
-10.23521
 20
-14.70381
 30
0.0
 10
-10.22039
 20
-14.70388
 30
0.0
  0
SPLINE
  5
6C
330
1F
100
AcDbEntity
  8
Layer 1
 62
    30
370
    53
100
AcDbSpline
210
0.0
220
0.0
230
1.0
 70
    11
 71
     3
 72
    28
 73
    24
 74
     0
 42
0.0000000001
 43
0.0000000001
 40
0.0
 40
0.0
 40
0.0
 40
0.0
 40
0.1666666666666667
 40
0.1666666666666667
 40
0.1666666666666667
 40
0.1666666666666667
 40
0.3333333333333333
 40
0.3333333333333333
 40
0.3333333333333333
 40
0.3333333333333333
 40
0.5
 40
0.5
 40
0.5
 40
0.5
 40
0.6666666666666666
 40
0.6666666666666666
 40
0.6666666666666666
 40
0.6666666666666666
 40
0.8333333333333333
 40
0.8333333333333333
 40
0.8333333333333333
 40
0.8333333333333333
 40
1.0
 40
1.0
 40
1.0
 40
1.0
 10
-9.88385
 20
-14.70388
 30
0.0
 10
-9.88385
 20
-14.70388
 30
0.0
 10
-9.88385
 20
-14.39866
 30
0.0
 10
-9.88385
 20
-14.39866
 30
0.0
 10
-9.88385
 20
-14.39866
 30
0.0
 10
-9.88385
 20
-14.39866
 30
0.0
 10
-10.02778
 20
-14.6226
 30
0.0
 10
-10.02778
 20
-14.6226
 30
0.0
 10
-10.02778
 20
-14.6226
 30
0.0
 10
-10.02778
 20
-14.6226
 30
0.0
 10
-9.82966
 20
-14.6226
 30
0.0
 10
-9.82966
 20
-14.6226
 30
0.0
 10
-9.82966
 20
-14.6226
 30
0.0
 10
-9.82966
 20
-14.6226
 30
0.0
 10
-10.02778
 20
-14.6226
 30
0.0
 10
-10.02778
 20
-14.6226
 30
0.0
 10
-10.02778
 20
-14.6226
 30
0.0
 10
-10.02778
 20
-14.6226
 30
0.0
 10
-9.88385
 20
-14.39866
 30
0.0
 10
-9.88385
 20
-14.39866
 30
0.0
 10
-9.88385
 20
-14.39866
 30
0.0
 10
-9.88385
 20
-14.39866
 30
0.0
 10
-9.88385
 20
-14.70388
 30
0.0
 10
-9.88385
 20
-14.70388
 30
0.0
  0
SPLINE
  5
6D
330
1F
100
AcDbEntity
  8
Layer 1
 62
   250
370
    53
100
AcDbSpline
210
0.0
220
0.0
230
1.0
 70
    11
 71
     3
 72
   252
 73
   248
 74
     0
 42
0.0000000001
 43
0.0000000001
 40
0.0
 40
0.0
 40
0.0
 40
0.0
 40
0.0161290322580645
 40
0.0161290322580645
 40
0.0161290322580645
 40
0.0161290322580645
 40
0.032258064516129
 40
0.032258064516129
 40
0.032258064516129
 40
0.032258064516129
 40
0.0483870967741935
 40
0.0483870967741935
 40
0.0483870967741935
 40
0.0483870967741935
 40
0.0645161290322581
 40
0.0645161290322581
 40
0.0645161290322581
 40
0.0645161290322581
 40
0.0806451612903226
 40
0.0806451612903226
 40
0.0806451612903226
 40
0.0806451612903226
 40
0.0967741935483871
 40
0.0967741935483871
 40
0.0967741935483871
 40
0.0967741935483871
 40
0.1129032258064516
 40
0.1129032258064516
 40
0.1129032258064516
 40
0.1129032258064516
 40
0.1290322580645161
 40
0.1290322580645161
 40
0.1290322580645161
 40
0.1290322580645161
 40
0.1451612903225806
 40
0.1451612903225806
 40
0.1451612903225806
 40
0.1451612903225806
 40
0.1612903225806451
 40
0.1612903225806451
 40
0.1612903225806451
 40
0.1612903225806451
 40
0.1774193548387096
 40
0.1774193548387096
 40
0.1774193548387096
 40
0.1774193548387096
 40
0.1935483870967741
 40
0.1935483870967741
 40
0.1935483870967741
 40
0.1935483870967741
 40
0.2096774193548386
 40
0.2096774193548386
 40
0.2096774193548386
 40
0.2096774193548386
 40
0.2258064516129031
 40
0.2258064516129031
 40
0.2258064516129031
 40
0.2258064516129031
 40
0.2419354838709676
 40
0.2419354838709676
 40
0.2419354838709676
 40
0.2419354838709676
 40
0.2580645161290321
 40
0.2580645161290321
 40
0.2580645161290321
 40
0.2580645161290321
 40
0.2741935483870966
 40
0.2741935483870966
 40
0.2741935483870966
 40
0.2741935483870966
 40
0.2903225806451611
 40
0.2903225806451611
 40
0.2903225806451611
 40
0.2903225806451611
 40
0.3064516129032256
 40
0.3064516129032256
 40
0.3064516129032256
 40
0.3064516129032256
 40
0.3225806451612901
 40
0.3225806451612901
 40
0.3225806451612901
 40
0.3225806451612901
 40
0.3387096774193546
 40
0.3387096774193546
 40
0.3387096774193546
 40
0.3387096774193546
 40
0.3548387096774192
 40
0.3548387096774192
 40
0.3548387096774192
 40
0.3548387096774192
 40
0.3709677419354837
 40
0.3709677419354837
 40
0.3709677419354837
 40
0.3709677419354837
 40
0.3870967741935482
 40
0.3870967741935482
 40
0.3870967741935482
 40
0.3870967741935482
 40
0.4032258064516127
 40
0.4032258064516127
 40
0.4032258064516127
 40
0.4032258064516127
 40
0.4193548387096772
 40
0.4193548387096772
 40
0.4193548387096772
 40
0.4193548387096772
 40
0.4354838709677417
 40
0.4354838709677417
 40
0.4354838709677417
 40
0.4354838709677417
 40
0.4516129032258062
 40
0.4516129032258062
 40
0.4516129032258062
 40
0.4516129032258062
 40
0.4677419354838707
 40
0.4677419354838707
 40
0.4677419354838707
 40
0.4677419354838707
 40
0.4838709677419352
 40
0.4838709677419352
 40
0.4838709677419352
 40
0.4838709677419352
 40
0.4999999999999997
 40
0.4999999999999997
 40
0.4999999999999997
 40
0.4999999999999997
 40
0.5161290322580642
 40
0.5161290322580642
 40
0.5161290322580642
 40
0.5161290322580642
 40
0.5322580645161287
 40
0.5322580645161287
 40
0.5322580645161287
 40
0.5322580645161287
 40
0.5483870967741932
 40
0.5483870967741932
 40
0.5483870967741932
 40
0.5483870967741932
 40
0.5645161290322577
 40
0.5645161290322577
 40
0.5645161290322577
 40
0.5645161290322577
 40
0.5806451612903222
 40
0.5806451612903222
 40
0.5806451612903222
 40
0.5806451612903222
 40
0.5967741935483867
 40
0.5967741935483867
 40
0.5967741935483867
 40
0.5967741935483867
 40
0.6129032258064512
 40
0.6129032258064512
 40
0.6129032258064512
 40
0.6129032258064512
 40
0.6290322580645157
 40
0.6290322580645157
 40
0.6290322580645157
 40
0.6290322580645157
 40
0.6451612903225802
 40
0.6451612903225802
 40
0.6451612903225802
 40
0.6451612903225802
 40
0.6612903225806447
 40
0.6612903225806447
 40
0.6612903225806447
 40
0.6612903225806447
 40
0.6774193548387092
 40
0.6774193548387092
 40
0.6774193548387092
 40
0.6774193548387092
 40
0.6935483870967737
 40
0.6935483870967737
 40
0.6935483870967737
 40
0.6935483870967737
 40
0.7096774193548382
 40
0.7096774193548382
 40
0.7096774193548382
 40
0.7096774193548382
 40
0.7258064516129027
 40
0.7258064516129027
 40
0.7258064516129027
 40
0.7258064516129027
 40
0.7419354838709672
 40
0.7419354838709672
 40
0.7419354838709672
 40
0.7419354838709672
 40
0.7580645161290317
 40
0.7580645161290317
 40
0.7580645161290317
 40
0.7580645161290317
 40
0.7741935483870962
 40
0.7741935483870962
 40
0.7741935483870962
 40
0.7741935483870962
 40
0.7903225806451607
 40
0.7903225806451607
 40
0.7903225806451607
 40
0.7903225806451607
 40
0.8064516129032252
 40
0.8064516129032252
 40
0.8064516129032252
 40
0.8064516129032252
 40
0.8225806451612897
 40
0.8225806451612897
 40
0.8225806451612897
 40
0.8225806451612897
 40
0.8387096774193542
 40
0.8387096774193542
 40
0.8387096774193542
 40
0.8387096774193542
 40
0.8548387096774187
 40
0.8548387096774187
 40
0.8548387096774187
 40
0.8548387096774187
 40
0.8709677419354832
 40
0.8709677419354832
 40
0.8709677419354832
 40
0.8709677419354832
 40
0.8870967741935477
 40
0.8870967741935477
 40
0.8870967741935477
 40
0.8870967741935477
 40
0.9032258064516122
 40
0.9032258064516122
 40
0.9032258064516122
 40
0.9032258064516122
 40
0.9193548387096767
 40
0.9193548387096767
 40
0.9193548387096767
 40
0.9193548387096767
 40
0.9354838709677412
 40
0.9354838709677412
 40
0.9354838709677412
 40
0.9354838709677412
 40
0.9516129032258057
 40
0.9516129032258057
 40
0.9516129032258057
 40
0.9516129032258057
 40
0.9677419354838702
 40
0.9677419354838702
 40
0.9677419354838702
 40
0.9677419354838702
 40
0.9838709677419347
 40
0.9838709677419347
 40
0.9838709677419347
 40
0.9838709677419347
 40
1.0
 40
1.0
 40
1.0
 40
1.0
 10
-6.2
 20
-16.25
 30
0.0
 10
-6.2
 20
-16.25
 30
0.0
 10
-6.2
 20
-15.95
 30
0.0
 10
-6.2
 20
-15.95
 30
0.0
 10
-6.2
 20
-15.95
 30
0.0
 10
-6.2
 20
-15.95
 30
0.0
 10
-6.2
 20
-15.95001
 30
0.0
 10
-6.2
 20
-15.95001
 30
0.0
 10
-6.2
 20
-15.95001
 30
0.0
 10
-6.2
 20
-15.95001
 30
0.0
 10
-6.2
 20
-14.25875
 30
0.0
 10
-6.2
 20
-14.25875
 30
0.0
 10
-6.2
 20
-14.25875
 30
0.0
 10
-6.2
 20
-14.25875
 30
0.0
 10
-6.8
 20
-14.25875
 30
0.0
 10
-6.8
 20
-14.25875
 30
0.0
 10
-6.8
 20
-14.25875
 30
0.0
 10
-6.8
 20
-14.25875
 30
0.0
 10
-6.8
 20
-13.94125
 30
0.0
 10
-6.8
 20
-13.94125
 30
0.0
 10
-6.8
 20
-13.94125
 30
0.0
 10
-6.8
 20
-13.94125
 30
0.0
 10
-6.20011
 20
-13.94125
 30
0.0
 10
-6.20011
 20
-13.94125
 30
0.0
 10
-6.20011
 20
-13.94125
 30
0.0
 10
-6.20478
 20
-13.6692
 30
0.0
 10
-6.42684
 20
-13.45
 30
0.0
 10
-6.7
 20
-13.45
 30
0.0
 10
-6.7
 20
-13.45
 30
0.0
 10
-6.7
 20
-13.45
 30
0.0
 10
-14.3
 20
-13.45
 30
0.0
 10
-14.3
 20
-13.45
 30
0.0
 10
-14.3
 20
-13.45
 30
0.0
 10
-14.57316
 20
-13.45
 30
0.0
 10
-14.79522
 20
-13.6692
 30
0.0
 10
-14.79989
 20
-13.94125
 30
0.0
 10
-14.79989
 20
-13.94125
 30
0.0
 10
-14.79989
 20
-13.94125
 30
0.0
 10
-14.2
 20
-13.94125
 30
0.0
 10
-14.2
 20
-13.94125
 30
0.0
 10
-14.2
 20
-13.94125
 30
0.0
 10
-14.2
 20
-13.94125
 30
0.0
 10
-14.2
 20
-14.25875
 30
0.0
 10
-14.2
 20
-14.25875
 30
0.0
 10
-14.2
 20
-14.25875
 30
0.0
 10
-14.2
 20
-14.25875
 30
0.0
 10
-14.79807
 20
-14.25875
 30
0.0
 10
-14.79807
 20
-14.25875
 30
0.0
 10
-14.79807
 20
-14.25875
 30
0.0
 10
-14.79807
 20
-14.25875
 30
0.0
 10
-14.7875
 20
-16.25
 30
0.0
 10
-14.7875
 20
-16.25
 30
0.0
 10
-14.7875
 20
-16.25
 30
0.0
 10
-14.7875
 20
-16.25
 30
0.0
 10
-14.2
 20
-16.25
 30
0.0
 10
-14.2
 20
-16.25
 30
0.0
 10
-14.2
 20
-16.25
 30
0.0
 10
-14.2
 20
-16.25
 30
0.0
 10
-14.2
 20
-15.95
 30
0.0
 10
-14.2
 20
-15.95
 30
0.0
 10
-14.2
 20
-15.95
 30
0.0
 10
-14.2
 20
-15.95
 30
0.0
 10
-13.8
 20
-15.95001
 30
0.0
 10
-13.8
 20
-15.95001
 30
0.0
 10
-13.8
 20
-15.95001
 30
0.0
 10
-13.8
 20
-15.95001
 30
0.0
 10
-13.8
 20
-15.45
 30
0.0
 10
-13.8
 20
-15.45
 30
0.0
 10
-13.8
 20
-15.45
 30
0.0
 10
-13.8
 20
-15.45
 30
0.0
 10
-14.0
 20
-15.44999
 30
0.0
 10
-14.0
 20
-15.44999
 30
0.0
 10
-14.0
 20
-15.44999
 30
0.0
 10
-14.0
 20
-15.44999
 30
0.0
 10
-14.0
 20
-14.85
 30
0.0
 10
-14.0
 20
-14.85
 30
0.0
 10
-14.0
 20
-14.85
 30
0.0
 10
-13.61667
 20
-14.85
 30
0.0
 10
-13.38333
 20
-14.85
 30
0.0
 10
-13.0
 20
-14.85
 30
0.0
 10
-13.0
 20
-14.85
 30
0.0
 10
-13.0
 20
-14.85
 30
0.0
 10
-13.0
 20
-15.44999
 30
0.0
 10
-13.0
 20
-15.44999
 30
0.0
 10
-13.0
 20
-15.44999
 30
0.0
 10
-13.0
 20
-15.44999
 30
0.0
 10
-13.2
 20
-15.45
 30
0.0
 10
-13.2
 20
-15.45
 30
0.0
 10
-13.2
 20
-15.45
 30
0.0
 10
-13.2
 20
-15.45
 30
0.0
 10
-13.2
 20
-15.95
 30
0.0
 10
-13.2
 20
-15.95
 30
0.0
 10
-13.2
 20
-15.95
 30
0.0
 10
-13.2
 20
-15.95
 30
0.0
 10
-12.8
 20
-15.95
 30
0.0
 10
-12.8
 20
-15.95
 30
0.0
 10
-12.8
 20
-15.95
 30
0.0
 10
-12.8
 20
-15.95
 30
0.0
 10
-12.8
 20
-16.25
 30
0.0
 10
-12.8
 20
-16.25
 30
0.0
 10
-12.8
 20
-16.25
 30
0.0
 10
-12.8
 20
-16.25
 30
0.0
 10
-12.2
 20
-16.25
 30
0.0
 10
-12.2
 20
-16.25
 30
0.0
 10
-12.2
 20
-16.25
 30
0.0
 10
-12.2
 20
-16.25
 30
0.0
 10
-12.2
 20
-15.95
 30
0.0
 10
-12.2
 20
-15.95
 30
0.0
 10
-12.2
 20
-15.95
 30
0.0
 10
-12.2
 20
-15.95
 30
0.0
 10
-11.8
 20
-15.95001
 30
0.0
 10
-11.8
 20
-15.95001
 30
0.0
 10
-11.8
 20
-15.95001
 30
0.0
 10
-11.8
 20
-15.95001
 30
0.0
 10
-11.8
 20
-15.45
 30
0.0
 10
-11.8
 20
-15.45
 30
0.0
 10
-11.8
 20
-15.45
 30
0.0
 10
-11.8
 20
-15.45
 30
0.0
 10
-12.0
 20
-15.44999
 30
0.0
 10
-12.0
 20
-15.44999
 30
0.0
 10
-12.0
 20
-15.44999
 30
0.0
 10
-12.0
 20
-15.44999
 30
0.0
 10
-12.0
 20
-14.85
 30
0.0
 10
-12.0
 20
-14.85
 30
0.0
 10
-12.0
 20
-14.85
 30
0.0
 10
-11.61667
 20
-14.85
 30
0.0
 10
-11.38333
 20
-14.85
 30
0.0
 10
-11.0
 20
-14.85
 30
0.0
 10
-11.0
 20
-14.85
 30
0.0
 10
-11.0
 20
-14.85
 30
0.0
 10
-11.0
 20
-15.44999
 30
0.0
 10
-11.0
 20
-15.44999
 30
0.0
 10
-11.0
 20
-15.44999
 30
0.0
 10
-11.0
 20
-15.44999
 30
0.0
 10
-11.2
 20
-15.45
 30
0.0
 10
-11.2
 20
-15.45
 30
0.0
 10
-11.2
 20
-15.45
 30
0.0
 10
-11.2
 20
-15.45
 30
0.0
 10
-11.2
 20
-15.95
 30
0.0
 10
-11.2
 20
-15.95
 30
0.0
 10
-11.2
 20
-15.95
 30
0.0
 10
-11.2
 20
-15.95
 30
0.0
 10
-10.8
 20
-15.95
 30
0.0
 10
-10.8
 20
-15.95
 30
0.0
 10
-10.8
 20
-15.95
 30
0.0
 10
-10.8
 20
-15.95
 30
0.0
 10
-10.8
 20
-16.25
 30
0.0
 10
-10.8
 20
-16.25
 30
0.0
 10
-10.8
 20
-16.25
 30
0.0
 10
-10.8
 20
-16.25
 30
0.0
 10
-10.2
 20
-16.25
 30
0.0
 10
-10.2
 20
-16.25
 30
0.0
 10
-10.2
 20
-16.25
 30
0.0
 10
-10.2
 20
-16.25
 30
0.0
 10
-10.2
 20
-15.95
 30
0.0
 10
-10.2
 20
-15.95
 30
0.0
 10
-10.2
 20
-15.95
 30
0.0
 10
-10.2
 20
-15.95
 30
0.0
 10
-9.8
 20
-15.95001
 30
0.0
 10
-9.8
 20
-15.95001
 30
0.0
 10
-9.8
 20
-15.95001
 30
0.0
 10
-9.8
 20
-15.95001
 30
0.0
 10
-9.8
 20
-15.45
 30
0.0
 10
-9.8
 20
-15.45
 30
0.0
 10
-9.8
 20
-15.45
 30
0.0
 10
-9.8
 20
-15.45
 30
0.0
 10
-10.0
 20
-15.44999
 30
0.0
 10
-10.0
 20
-15.44999
 30
0.0
 10
-10.0
 20
-15.44999
 30
0.0
 10
-10.0
 20
-15.44999
 30
0.0
 10
-10.0
 20
-14.85
 30
0.0
 10
-10.0
 20
-14.85
 30
0.0
 10
-10.0
 20
-14.85
 30
0.0
 10
-9.61667
 20
-14.85
 30
0.0
 10
-9.38333
 20
-14.85
 30
0.0
 10
-9.0
 20
-14.85
 30
0.0
 10
-9.0
 20
-14.85
 30
0.0
 10
-9.0
 20
-14.85
 30
0.0
 10
-9.0
 20
-15.44999
 30
0.0
 10
-9.0
 20
-15.44999
 30
0.0
 10
-9.0
 20
-15.44999
 30
0.0
 10
-9.0
 20
-15.44999
 30
0.0
 10
-9.2
 20
-15.45
 30
0.0
 10
-9.2
 20
-15.45
 30
0.0
 10
-9.2
 20
-15.45
 30
0.0
 10
-9.2
 20
-15.45
 30
0.0
 10
-9.2
 20
-15.95
 30
0.0
 10
-9.2
 20
-15.95
 30
0.0
 10
-9.2
 20
-15.95
 30
0.0
 10
-9.2
 20
-15.95
 30
0.0
 10
-8.8
 20
-15.95
 30
0.0
 10
-8.8
 20
-15.95
 30
0.0
 10
-8.8
 20
-15.95
 30
0.0
 10
-8.8
 20
-15.95
 30
0.0
 10
-8.8
 20
-16.25
 30
0.0
 10
-8.8
 20
-16.25
 30
0.0
 10
-8.8
 20
-16.25
 30
0.0
 10
-8.8
 20
-16.25
 30
0.0
 10
-8.2
 20
-16.25
 30
0.0
 10
-8.2
 20
-16.25
 30
0.0
 10
-8.2
 20
-16.25
 30
0.0
 10
-8.2
 20
-16.25
 30
0.0
 10
-8.2
 20
-15.95
 30
0.0
 10
-8.2
 20
-15.95
 30
0.0
 10
-8.2
 20
-15.95
 30
0.0
 10
-8.2
 20
-15.95
 30
0.0
 10
-7.8
 20
-15.95001
 30
0.0
 10
-7.8
 20
-15.95001
 30
0.0
 10
-7.8
 20
-15.95001
 30
0.0
 10
-7.8
 20
-15.95001
 30
0.0
 10
-7.8
 20
-15.45
 30
0.0
 10
-7.8
 20
-15.45
 30
0.0
 10
-7.8
 20
-15.45
 30
0.0
 10
-7.8
 20
-15.45
 30
0.0
 10
-8.0
 20
-15.44999
 30
0.0
 10
-8.0
 20
-15.44999
 30
0.0
 10
-8.0
 20
-15.44999
 30
0.0
 10
-8.0
 20
-15.44999
 30
0.0
 10
-8.0
 20
-14.85
 30
0.0
 10
-8.0
 20
-14.85
 30
0.0
 10
-8.0
 20
-14.85
 30
0.0
 10
-7.61667
 20
-14.85
 30
0.0
 10
-7.38333
 20
-14.85
 30
0.0
 10
-7.0
 20
-14.85
 30
0.0
 10
-7.0
 20
-14.85
 30
0.0
 10
-7.0
 20
-14.85
 30
0.0
 10
-7.0
 20
-15.44999
 30
0.0
 10
-7.0
 20
-15.44999
 30
0.0
 10
-7.0
 20
-15.44999
 30
0.0
 10
-7.0
 20
-15.44999
 30
0.0
 10
-7.2
 20
-15.45
 30
0.0
 10
-7.2
 20
-15.45
 30
0.0
 10
-7.2
 20
-15.45
 30
0.0
 10
-7.2
 20
-15.45
 30
0.0
 10
-7.2
 20
-15.95
 30
0.0
 10
-7.2
 20
-15.95
 30
0.0
 10
-7.2
 20
-15.95
 30
0.0
 10
-7.2
 20
-15.95
 30
0.0
 10
-6.8
 20
-15.95
 30
0.0
 10
-6.8
 20
-15.95
 30
0.0
 10
-6.8
 20
-15.95
 30
0.0
 10
-6.8
 20
-15.95
 30
0.0
 10
-6.8
 20
-16.25
 30
0.0
 10
-6.8
 20
-16.25
 30
0.0
 10
-6.8
 20
-16.25
 30
0.0
 10
-6.8
 20
-16.25
 30
0.0
 10
-6.2
 20
-16.25
 30
0.0
 10
-6.2
 20
-16.25
 30
0.0
  0
ENDSEC
  0
SECTION
  2
OBJECTS
  0
DICTIONARY
  5
C
330
0
100
AcDbDictionary
281
     1
  3
ACAD_GROUP
350
D
  3
ACAD_LAYOUT
350
1A
  3
ACAD_MLEADERSTYLE
350
6F
  3
ACAD_MLINESTYLE
350
17
  3
ACAD_PLOTSETTINGS
350
19
  3
ACAD_PLOTSTYLENAME
350
E
  3
ACAD_SCALELIST
350
3B
  3
ACAD_TABLESTYLE
350
6E
  3
ACAD_VISUALSTYLE
350
2A
  0
DICTIONARY
  5
D
102
{ACAD_REACTORS
330
C
102
}
330
C
100
AcDbDictionary
281
     1
  0
DICTIONARY
  5
1A
102
{ACAD_REACTORS
330
C
102
}
330
C
100
AcDbDictionary
281
     1
  3
Layout1
350
1E
  3
Layout2
350
26
  3
Model
350
22
  0
DICTIONARY
  5
6F
102
{ACAD_REACTORS
330
C
102
}
330
C
100
AcDbDictionary
281
     1
  0
DICTIONARY
  5
17
102
{ACAD_REACTORS
330
C
102
}
330
C
100
AcDbDictionary
281
     1
  3
Standard
350
18
  0
DICTIONARY
  5
19
102
{ACAD_REACTORS
330
C
102
}
330
C
100
AcDbDictionary
281
     1
  0
ACDBDICTIONARYWDFLT
  5
E
102
{ACAD_REACTORS
330
C
102
}
330
C
100
AcDbDictionary
281
     1
  3
Normal
350
F
100
AcDbDictionaryWithDefault
340
F
  0
DICTIONARY
  5
3B
102
{ACAD_REACTORS
330
C
102
}
330
C
100
AcDbDictionary
281
     1
  3
A0
350
3C
  3
A1
350
3D
  3
A2
350
3E
  3
A3
350
3F
  3
A4
350
40
  3
A5
350
41
  3
A6
350
42
  3
A7
350
43
  3
A8
350
44
  3
A9
350
45
  3
B0
350
46
  3
B1
350
47
  3
B2
350
48
  3
B3
350
49
  3
B4
350
4A
  3
B5
350
4B
  3
B6
350
4C
  3
B7
350
4D
  3
B8
350
4E
  3
B9
350
4F
  3
C0
350
50
  3
C1
350
51
  3
C2
350
52
  3
C3
350
53
  3
C4
350
54
  3
C5
350
55
  3
C6
350
56
  3
C7
350
57
  3
C8
350
58
  3
C9
350
59
  3
D0
350
5A
  3
D1
350
5B
  3
D2
350
5C
  0
DICTIONARY
  5
6E
102
{ACAD_REACTORS
330
C
102
}
330
C
100
AcDbDictionary
281
     1
  0
DICTIONARY
  5
2A
102
{ACAD_REACTORS
330
C
102
}
330
C
100
AcDbDictionary
281
     1
  3
2dWireframe
350
2F
  3
3D Hidden
350
31
  3
3dWireframe
350
30
  3
Basic
350
32
  3
Brighten
350
36
  3
ColorChange
350
3A
  3
Conceptual
350
34
  3
Dim
350
35
  3
Facepattern
350
39
  3
Flat
350
2B
  3
FlatWithEdges
350
2C
  3
Gouraud
350
2D
  3
GouraudWithEdges
350
2E
  3
Linepattern
350
38
  3
Realistic
350
33
  3
Thicken
350
37
  0
LAYOUT
  5
1E
102
{ACAD_REACTORS
330
1A
102
}
330
1A
100
AcDbPlotSettings
  1

  2
none_device
  4

  6

 40
0.0
 41
0.0
 42
0.0
 43
0.0
 44
0.0
 45
0.0
 46
0.0
 47
0.0
 48
0.0
 49
0.0
140
0.0
141
0.0
142
1.0
143
1.0
 70
   688
 72
     0
 73
     0
 74
     5
  7

 75
    16
 76
     0
 77
     2
 78
   300
147
1.0
148
0.0
149
0.0
100
AcDbLayout
  1
Layout1
 70
     1
 71
     1
 10
0.0
 20
0.0
 11
12.0
 21
9.0
 12
0.0
 22
0.0
 32
0.0
 14
1.000000000000000E+20
 24
1.000000000000000E+20
 34
1.000000000000000E+20
 15
-1.000000000000000E+20
 25
-1.000000000000000E+20
 35
-1.000000000000000E+20
146
0.0
 13
0.0
 23
0.0
 33
0.0
 16
1.0
 26
0.0
 36
0.0
 17
0.0
 27
1.0
 37
0.0
 76
     0
330
1B
  0
LAYOUT
  5
26
102
{ACAD_REACTORS
330
1A
102
}
330
1A
100
AcDbPlotSettings
  1

  2
none_device
  4

  6

 40
0.0
 41
0.0
 42
0.0
 43
0.0
 44
0.0
 45
0.0
 46
0.0
 47
0.0
 48
0.0
 49
0.0
140
0.0
141
0.0
142
1.0
143
1.0
 70
   688
 72
     0
 73
     0
 74
     5
  7

 75
    16
 76
     0
 77
     2
 78
   300
147
1.0
148
0.0
149
0.0
100
AcDbLayout
  1
Layout2
 70
     1
 71
     2
 10
0.0
 20
0.0
 11
0.0
 21
0.0
 12
0.0
 22
0.0
 32
0.0
 14
0.0
 24
0.0
 34
0.0
 15
0.0
 25
0.0
 35
0.0
146
0.0
 13
0.0
 23
0.0
 33
0.0
 16
1.0
 26
0.0
 36
0.0
 17
0.0
 27
1.0
 37
0.0
 76
     0
330
23
  0
LAYOUT
  5
22
102
{ACAD_REACTORS
330
1A
102
}
330
1A
100
AcDbPlotSettings
  1

  2
none_device
  4

  6

 40
0.0
 41
0.0
 42
0.0
 43
0.0
 44
0.0
 45
0.0
 46
0.0
 47
0.0
 48
0.0
 49
0.0
140
0.0
141
0.0
142
1.0
143
1.0
 70
  1712
 72
     0
 73
     0
 74
     0
  7

 75
     0
 76
     0
 77
     2
 78
   300
147
1.0
148
0.0
149
0.0
100
AcDbLayout
  1
Model
 70
     1
 71
     0
 10
0.0
 20
0.0
 11
12.0
 21
9.0
 12
0.0
 22
0.0
 32
0.0
 14
-14.828
 24
-16.27822
 34
0.0
 15
-6.17178
 25
-13.42178
 35
0.0
146
0.0
 13
0.0
 23
0.0
 33
0.0
 16
1.0
 26
0.0
 36
0.0
 17
0.0
 27
1.0
 37
0.0
 76
     0
330
1F
331
29
  0
MLINESTYLE
  5
18
102
{ACAD_REACTORS
330
17
102
}
330
17
100
AcDbMlineStyle
  2
Standard
 70
     0
  3

 62
   256
 51
90.0
 52
90.0
 71
     2
 49
0.5
 62
   256
  6
BYLAYER
 49
-0.5
 62
   256
  6
BYLAYER
  0
ACDBPLACEHOLDER
  5
F
102
{ACAD_REACTORS
330
E
102
}
330
E
  0
SCALE
  5
3C
102
{ACAD_REACTORS
330
3B
102
}
330
3B
100
AcDbScale
 70
     0
300
1:1
140
1.0
141
1.0
290
     1
  0
SCALE
  5
3D
102
{ACAD_REACTORS
330
3B
102
}
330
3B
100
AcDbScale
 70
     0
300
1:2
140
1.0
141
2.0
290
     0
  0
SCALE
  5
3E
102
{ACAD_REACTORS
330
3B
102
}
330
3B
100
AcDbScale
 70
     0
300
1:4
140
1.0
141
4.0
290
     0
  0
SCALE
  5
3F
102
{ACAD_REACTORS
330
3B
102
}
330
3B
100
AcDbScale
 70
     0
300
1:5
140
1.0
141
5.0
290
     0
  0
SCALE
  5
40
102
{ACAD_REACTORS
330
3B
102
}
330
3B
100
AcDbScale
 70
     0
300
1:8
140
1.0
141
8.0
290
     0
  0
SCALE
  5
41
102
{ACAD_REACTORS
330
3B
102
}
330
3B
100
AcDbScale
 70
     0
300
1:10
140
1.0
141
10.0
290
     0
  0
SCALE
  5
42
102
{ACAD_REACTORS
330
3B
102
}
330
3B
100
AcDbScale
 70
     0
300
1:16
140
1.0
141
16.0
290
     0
  0
SCALE
  5
43
102
{ACAD_REACTORS
330
3B
102
}
330
3B
100
AcDbScale
 70
     0
300
1:20
140
1.0
141
20.0
290
     0
  0
SCALE
  5
44
102
{ACAD_REACTORS
330
3B
102
}
330
3B
100
AcDbScale
 70
     0
300
1:30
140
1.0
141
30.0
290
     0
  0
SCALE
  5
45
102
{ACAD_REACTORS
330
3B
102
}
330
3B
100
AcDbScale
 70
     0
300
1:40
140
1.0
141
40.0
290
     0
  0
SCALE
  5
46
102
{ACAD_REACTORS
330
3B
102
}
330
3B
100
AcDbScale
 70
     0
300
1:50
140
1.0
141
50.0
290
     0
  0
SCALE
  5
47
102
{ACAD_REACTORS
330
3B
102
}
330
3B
100
AcDbScale
 70
     0
300
1:100
140
1.0
141
100.0
290
     0
  0
SCALE
  5
48
102
{ACAD_REACTORS
330
3B
102
}
330
3B
100
AcDbScale
 70
     0
300
2:1
140
2.0
141
1.0
290
     0
  0
SCALE
  5
49
102
{ACAD_REACTORS
330
3B
102
}
330
3B
100
AcDbScale
 70
     0
300
4:1
140
4.0
141
1.0
290
     0
  0
SCALE
  5
4A
102
{ACAD_REACTORS
330
3B
102
}
330
3B
100
AcDbScale
 70
     0
300
8:1
140
8.0
141
1.0
290
     0
  0
SCALE
  5
4B
102
{ACAD_REACTORS
330
3B
102
}
330
3B
100
AcDbScale
 70
     0
300
10:1
140
10.0
141
1.0
290
     0
  0
SCALE
  5
4C
102
{ACAD_REACTORS
330
3B
102
}
330
3B
100
AcDbScale
 70
     0
300
100:1
140
100.0
141
1.0
290
     0
  0
SCALE
  5
4D
102
{ACAD_REACTORS
330
3B
102
}
330
3B
100
AcDbScale
 70
     0
300
1/128" = 1'-0"
140
0.0078125
141
12.0
290
     0
  0
SCALE
  5
4E
102
{ACAD_REACTORS
330
3B
102
}
330
3B
100
AcDbScale
 70
     0
300
1/64" = 1'-0"
140
0.015625
141
12.0
290
     0
  0
SCALE
  5
4F
102
{ACAD_REACTORS
330
3B
102
}
330
3B
100
AcDbScale
 70
     0
300
1/32" = 1'-0"
140
0.03125
141
12.0
290
     0
  0
SCALE
  5
50
102
{ACAD_REACTORS
330
3B
102
}
330
3B
100
AcDbScale
 70
     0
300
1/16" = 1'-0"
140
0.0625
141
12.0
290
     0
  0
SCALE
  5
51
102
{ACAD_REACTORS
330
3B
102
}
330
3B
100
AcDbScale
 70
     0
300
3/32" = 1'-0"
140
0.09375
141
12.0
290
     0
  0
SCALE
  5
52
102
{ACAD_REACTORS
330
3B
102
}
330
3B
100
AcDbScale
 70
     0
300
1/8" = 1'-0"
140
0.125
141
12.0
290
     0
  0
SCALE
  5
53
102
{ACAD_REACTORS
330
3B
102
}
330
3B
100
AcDbScale
 70
     0
300
3/16" = 1'-0"
140
0.1875
141
12.0
290
     0
  0
SCALE
  5
54
102
{ACAD_REACTORS
330
3B
102
}
330
3B
100
AcDbScale
 70
     0
300
1/4" = 1'-0"
140
0.25
141
12.0
290
     0
  0
SCALE
  5
55
102
{ACAD_REACTORS
330
3B
102
}
330
3B
100
AcDbScale
 70
     0
300
3/8" = 1'-0"
140
0.375
141
12.0
290
     0
  0
SCALE
  5
56
102
{ACAD_REACTORS
330
3B
102
}
330
3B
100
AcDbScale
 70
     0
300
1/2" = 1'-0"
140
0.5
141
12.0
290
     0
  0
SCALE
  5
57
102
{ACAD_REACTORS
330
3B
102
}
330
3B
100
AcDbScale
 70
     0
300
3/4" = 1'-0"
140
0.75
141
12.0
290
     0
  0
SCALE
  5
58
102
{ACAD_REACTORS
330
3B
102
}
330
3B
100
AcDbScale
 70
     0
300
1" = 1'-0"
140
1.0
141
12.0
290
     0
  0
SCALE
  5
59
102
{ACAD_REACTORS
330
3B
102
}
330
3B
100
AcDbScale
 70
     0
300
1-1/2" = 1'-0"
140
1.5
141
12.0
290
     0
  0
SCALE
  5
5A
102
{ACAD_REACTORS
330
3B
102
}
330
3B
100
AcDbScale
 70
     0
300
3" = 1'-0"
140
3.0
141
12.0
290
     0
  0
SCALE
  5
5B
102
{ACAD_REACTORS
330
3B
102
}
330
3B
100
AcDbScale
 70
     0
300
6" = 1'-0"
140
6.0
141
12.0
290
     0
  0
SCALE
  5
5C
102
{ACAD_REACTORS
330
3B
102
}
330
3B
100
AcDbScale
 70
     0
300
1'-0" = 1'-0"
140
12.0
141
12.0
290
     0
  0
VISUALSTYLE
  5
2F
102
{ACAD_REACTORS
330
2A
102
}
330
2A
100
AcDbVisualStyle
  2
2dWireframe
 70
     4
 71
     0
 72
     2
 73
     0
 90
        0
 40
-0.6
 41
-30.0
 62
     5
 63
     7
421
 16777215
 74
     1
 91
        4
 64
     7
 65
   257
 75
     1
175
     1
 42
1.0
 92
        0
 66
   257
 43
1.0
 76
     1
 77
     6
 78
     2
 67
     7
 79
     5
170
     0
171
     0
290
     0
174
     0
 93
        1
 44
0.0
173
     0
291
     0
 45
0.0
  0
VISUALSTYLE
  5
31
102
{ACAD_REACTORS
330
2A
102
}
330
2A
100
AcDbVisualStyle
  2
3D Hidden
 70
     6
 71
     1
 72
     2
 73
     2
 90
        0
 40
-0.6
 41
-30.0
 62
     5
 63
     7
421
 16777215
 74
     2
 91
        2
 64
     7
 65
   257
 75
     2
175
     1
 42
40.0
 92
        0
 66
   257
 43
1.0
 76
     1
 77
     6
 78
     2
 67
     7
 79
     3
170
     0
171
     0
290
     0
174
     0
 93
        1
 44
0.0
173
     0
291
     0
 45
0.0
  0
VISUALSTYLE
  5
30
102
{ACAD_REACTORS
330
2A
102
}
330
2A
100
AcDbVisualStyle
  2
3dWireframe
 70
     5
 71
     0
 72
     2
 73
     0
 90
        0
 40
-0.6
 41
-30.0
 62
     5
 63
     7
421
 16777215
 74
     1
 91
        4
 64
     7
 65
   257
 75
     1
175
     1
 42
1.0
 92
        0
 66
   257
 43
1.0
 76
     1
 77
     6
 78
     2
 67
     7
 79
     5
170
     0
171
     0
290
     0
174
     0
 93
        1
 44
0.0
173
     0
291
     0
 45
0.0
  0
VISUALSTYLE
  5
32
102
{ACAD_REACTORS
330
2A
102
}
330
2A
100
AcDbVisualStyle
  2
Basic
 70
     7
 71
     1
 72
     0
 73
     1
 90
        0
 40
-0.6
 41
-30.0
 62
     5
 63
     7
421
 16777215
 74
     0
 91
        4
 64
     7
 65
   257
 75
     1
175
     1
 42
1.0
 92
        8
 66
     7
 43
1.0
 76
     1
 77
     6
 78
     2
 67
     7
 79
     5
170
     0
171
     0
290
     0
174
     0
 93
        1
 44
0.0
173
     0
291
     1
 45
0.0
  0
VISUALSTYLE
  5
36
102
{ACAD_REACTORS
330
2A
102
}
330
2A
100
AcDbVisualStyle
  2
Brighten
 70
    12
 71
     2
 72
     2
 73
     0
 90
        0
 40
-0.6
 41
-30.0
 62
     5
 63
     7
421
 16777215
 74
     1
 91
        4
 64
     7
 65
   257
 75
     1
175
     1
 42
1.0
 92
        8
 66
     7
 43
1.0
 76
     1
 77
     6
 78
     2
 67
     7
 79
     5
170
     0
171
     0
290
     0
174
     0
 93
        1
 44
50.0
173
     0
291
     1
 45
0.0
  0
VISUALSTYLE
  5
3A
102
{ACAD_REACTORS
330
2A
102
}
330
2A
100
AcDbVisualStyle
  2
ColorChange
 70
    16
 71
     2
 72
     2
 73
     3
 90
        0
 40
-0.6
 41
-30.0
 62
     5
 63
     8
421
  8421504
 74
     1
 91
        4
 64
     7
 65
   257
 75
     1
175
     1
 42
1.0
 92
        8
 66
     8
424
  8421504
 43
1.0
 76
     1
 77
     6
 78
     2
 67
     7
 79
     5
170
     0
171
     0
290
     0
174
     0
 93
        1
 44
0.0
173
     0
291
     1
 45
0.0
  0
VISUALSTYLE
  5
34
102
{ACAD_REACTORS
330
2A
102
}
330
2A
100
AcDbVisualStyle
  2
Conceptual
 70
     9
 71
     3
 72
     2
 73
     0
 90
        0
 40
-0.6
 41
-30.0
 62
     5
 63
     7
421
 16777215
 74
     2
 91
        2
 64
     7
 65
   257
 75
     1
175
     1
 42
40.0
 92
        8
 66
     7
 43
1.0
 76
     1
 77
     6
 78
     2
 67
     7
 79
     3
170
     0
171
     0
290
     0
174
     0
 93
        1
 44
0.0
173
     0
291
     0
 45
0.0
  0
VISUALSTYLE
  5
35
102
{ACAD_REACTORS
330
2A
102
}
330
2A
100
AcDbVisualStyle
  2
Dim
 70
    11
 71
     2
 72
     2
 73
     0
 90
        0
 40
-0.6
 41
-30.0
 62
     5
 63
     7
421
 16777215
 74
     1
 91
        4
 64
     7
 65
   257
 75
     1
175
     1
 42
1.0
 92
        8
 66
     7
 43
1.0
 76
     1
 77
     6
 78
     2
 67
     7
 79
     5
170
     0
171
     0
290
     0
174
     0
 93
        1
 44
-50.0
173
     0
291
     1
 45
0.0
  0
VISUALSTYLE
  5
39
102
{ACAD_REACTORS
330
2A
102
}
330
2A
100
AcDbVisualStyle
  2
Facepattern
 70
    15
 71
     2
 72
     2
 73
     0
 90
        0
 40
-0.6
 41
-30.0
 62
     5
 63
     7
421
 16777215
 74
     1
 91
        4
 64
     7
 65
   257
 75
     1
175
     1
 42
1.0
 92
        8
 66
     7
 43
1.0
 76
     1
 77
     6
 78
     2
 67
     7
 79
     5
170
     0
171
     0
290
     0
174
     0
 93
        1
 44
0.0
173
     0
291
     1
 45
0.0
  0
VISUALSTYLE
  5
2B
102
{ACAD_REACTORS
330
2A
102
}
330
2A
100
AcDbVisualStyle
  2
Flat
 70
     0
 71
     2
 72
     1
 73
     1
 90
        2
 40
-0.6
 41
30.0
 62
     5
 63
     7
421
 16777215
 74
     0
 91
        4
 64
     7
 65
   257
 75
     1
175
     1
 42
1.0
 92
        8
 66
     7
 43
1.0
 76
     1
 77
     6
 78
     2
 67
     7
 79
     5
170
     0
171
     0
290
     0
174
     0
 93
       13
 44
0.0
173
     0
291
     1
 45
0.0
  0
VISUALSTYLE
  5
2C
102
{ACAD_REACTORS
330
2A
102
}
330
2A
100
AcDbVisualStyle
  2
FlatWithEdges
 70
     1
 71
     2
 72
     1
 73
     1
 90
        2
 40
-0.6
 41
30.0
 62
     5
 63
     7
421
 16777215
 74
     1
 91
        4
 64
     7
 65
   257
 75
     1
175
     1
 42
1.0
 92
        0
 66
   257
 43
1.0
 76
     1
 77
     6
 78
     2
 67
     7
 79
     5
170
     0
171
     0
290
     0
174
     0
 93
       13
 44
0.0
173
     0
291
     1
 45
0.0
  0
VISUALSTYLE
  5
2D
102
{ACAD_REACTORS
330
2A
102
}
330
2A
100
AcDbVisualStyle
  2
Gouraud
 70
     2
 71
     2
 72
     2
 73
     1
 90
        2
 40
-0.6
 41
30.0
 62
     5
 63
     7
421
 16777215
 74
     0
 91
        4
 64
     7
 65
   257
 75
     1
175
     1
 42
1.0
 92
        0
 66
     7
 43
1.0
 76
     1
 77
     6
 78
     2
 67
     7
 79
     5
170
     0
171
     0
290
     0
174
     0
 93
       13
 44
0.0
173
     0
291
     1
 45
0.0
  0
VISUALSTYLE
  5
2E
102
{ACAD_REACTORS
330
2A
102
}
330
2A
100
AcDbVisualStyle
  2
GouraudWithEdges
 70
     3
 71
     2
 72
     2
 73
     1
 90
        2
 40
-0.6
 41
30.0
 62
     5
 63
     7
421
 16777215
 74
     1
 91
        4
 64
     7
 65
   257
 75
     1
175
     1
 42
1.0
 92
        0
 66
   257
 43
1.0
 76
     1
 77
     6
 78
     2
 67
     7
 79
     5
170
     0
171
     0
290
     0
174
     0
 93
       13
 44
0.0
173
     0
291
     1
 45
0.0
  0
VISUALSTYLE
  5
38
102
{ACAD_REACTORS
330
2A
102
}
330
2A
100
AcDbVisualStyle
  2
Linepattern
 70
    14
 71
     2
 72
     2
 73
     0
 90
        0
 40
-0.6
 41
-30.0
 62
     5
 63
     7
421
 16777215
 74
     1
 91
        4
 64
     7
 65
   257
 75
     7
175
     7
 42
1.0
 92
        8
 66
     7
 43
1.0
 76
     1
 77
     6
 78
     2
 67
     7
 79
     5
170
     0
171
     0
290
     0
174
     0
 93
        1
 44
0.0
173
     0
291
     1
 45
0.0
  0
VISUALSTYLE
  5
33
102
{ACAD_REACTORS
330
2A
102
}
330
2A
100
AcDbVisualStyle
  2
Realistic
 70
     8
 71
     2
 72
     2
 73
     0
 90
        0
 40
-0.6
 41
-30.0
 62
     5
 63
     7
421
 16777215
 74
     1
 91
        0
 64
     7
 65
   257
 75
     1
175
     1
 42
1.0
 92
        8
 66
     8
424
  7895160
 43
1.0
 76
     1
 77
     6
 78
     2
 67
     7
 79
     5
170
     0
171
     0
290
     0
174
     0
 93
       13
 44
0.0
173
     0
291
     0
 45
0.0
  0
VISUALSTYLE
  5
37
102
{ACAD_REACTORS
330
2A
102
}
330
2A
100
AcDbVisualStyle
  2
Thicken
 70
    13
 71
     2
 72
     2
 73
     0
 90
        0
 40
-0.6
 41
-30.0
 62
     5
 63
     7
421
 16777215
 74
     1
 91
        4
 64
     7
 65
   257
 75
     1
175
     1
 42
1.0
 92
       12
 66
     7
 43
1.0
 76
     1
 77
     6
 78
     2
 67
     7
 79
     5
170
     0
171
     0
290
     0
174
     0
 93
        1
 44
0.0
173
     0
291
     1
 45
0.0
  0
ENDSEC
  0
EOF
