solid OpenSCAD_Model
  facet normal 0.992115 -0.125333 0
    outer loop
      vertex 5.8115 -1.49214 0
      vertex 6 0 -3
      vertex 6 0 0
    endloop
  endfacet
  facet normal 0.992115 -0.125333 0
    outer loop
      vertex 6 0 -3
      vertex 5.8115 -1.49214 0
      vertex 5.8115 -1.49214 -3
    endloop
  endfacet
  facet normal 0.992115 0.125333 0
    outer loop
      vertex 6 0 0
      vertex 5.8115 1.49214 -3
      vertex 5.8115 1.49214 0
    endloop
  endfacet
  facet normal 0.992115 0.125333 0
    outer loop
      vertex 5.8115 1.49214 -3
      vertex 6 0 0
      vertex 6 0 -3
    endloop
  endfacet
  facet normal -0.535828 0.844327 0
    outer loop
      vertex -2.55468 5.42896 -3
      vertex -3.82454 4.62308 0
      vertex -2.55468 5.42896 0
    endloop
  endfacet
  facet normal -0.535828 0.844327 0
    outer loop
      vertex -3.82454 4.62308 0
      vertex -2.55468 5.42896 -3
      vertex -3.82454 4.62308 -3
    endloop
  endfacet
  facet normal -0.728969 -0.684547 0
    outer loop
      vertex -3.82454 -4.62308 -3
      vertex -4.8541 -3.52671 0
      vertex -4.8541 -3.52671 -3
    endloop
  endfacet
  facet normal -0.728969 -0.684547 0
    outer loop
      vertex -4.8541 -3.52671 0
      vertex -3.82454 -4.62308 -3
      vertex -3.82454 -4.62308 0
    endloop
  endfacet
  facet normal -0.876305 -0.481756 0
    outer loop
      vertex -4.8541 -3.52671 -3
      vertex -5.57866 -2.20875 0
      vertex -5.57866 -2.20875 -3
    endloop
  endfacet
  facet normal -0.876305 -0.481756 0
    outer loop
      vertex -5.57866 -2.20875 0
      vertex -4.8541 -3.52671 -3
      vertex -4.8541 -3.52671 0
    endloop
  endfacet
  facet normal 0.637426 -0.770511 0
    outer loop
      vertex 3.21496 -5.06597 -3
      vertex 4.37381 -4.10728 0
      vertex 3.21496 -5.06597 0
    endloop
  endfacet
  facet normal 0.637426 -0.770511 0
    outer loop
      vertex 4.37381 -4.10728 0
      vertex 3.21496 -5.06597 -3
      vertex 4.37381 -4.10728 -3
    endloop
  endfacet
  facet normal 0.425778 -0.904828 0
    outer loop
      vertex 1.8541 -5.70634 -3
      vertex 3.21496 -5.06597 0
      vertex 1.8541 -5.70634 0
    endloop
  endfacet
  facet normal 0.425778 -0.904828 0
    outer loop
      vertex 3.21496 -5.06597 0
      vertex 1.8541 -5.70634 -3
      vertex 3.21496 -5.06597 -3
    endloop
  endfacet
  facet normal 0.809016 -0.587786 0
    outer loop
      vertex 4.37381 -4.10728 0
      vertex 5.25784 -2.89052 -3
      vertex 5.25784 -2.89052 0
    endloop
  endfacet
  facet normal 0.809016 -0.587786 0
    outer loop
      vertex 5.25784 -2.89052 -3
      vertex 4.37381 -4.10728 0
      vertex 4.37381 -4.10728 -3
    endloop
  endfacet
  facet normal -0.876305 0.481756 0
    outer loop
      vertex -5.57866 2.20875 -3
      vertex -4.8541 3.52671 0
      vertex -4.8541 3.52671 -3
    endloop
  endfacet
  facet normal -0.876305 0.481756 0
    outer loop
      vertex -4.8541 3.52671 0
      vertex -5.57866 2.20875 -3
      vertex -5.57866 2.20875 0
    endloop
  endfacet
  facet normal 0 0 -1
    outer loop
      vertex 3 0 -3
      vertex 6 0 -3
      vertex 5.8115 -1.49214 -3
    endloop
  endfacet
  facet normal 0 0 -1
    outer loop
      vertex 2.90575 -0.746069 -3
      vertex 5.8115 -1.49214 -3
      vertex 5.25784 -2.89052 -3
    endloop
  endfacet
  facet normal 0 0 -1
    outer loop
      vertex 6 0 -3
      vertex 3 0 -3
      vertex 5.8115 1.49214 -3
    endloop
  endfacet
  facet normal 0 0 -1
    outer loop
      vertex 2.62892 -1.44526 -3
      vertex 5.25784 -2.89052 -3
      vertex 4.37381 -4.10728 -3
    endloop
  endfacet
  facet normal 0 0 -1
    outer loop
      vertex 2.90575 0.746069 -3
      vertex 5.8115 1.49214 -3
      vertex 3 0 -3
    endloop
  endfacet
  facet normal 0 0 -1
    outer loop
      vertex 2.18691 -2.05364 -3
      vertex 4.37381 -4.10728 -3
      vertex 3.21496 -5.06597 -3
    endloop
  endfacet
  facet normal -0 0 -1
    outer loop
      vertex 5.8115 1.49214 -3
      vertex 2.90575 0.746069 -3
      vertex 5.25784 2.89052 -3
    endloop
  endfacet
  facet normal 0 0 -1
    outer loop
      vertex 2.62892 1.44526 -3
      vertex 5.25784 2.89052 -3
      vertex 2.90575 0.746069 -3
    endloop
  endfacet
  facet normal 0 0 -1
    outer loop
      vertex 5.8115 -1.49214 -3
      vertex 2.90575 -0.746069 -3
      vertex 3 0 -3
    endloop
  endfacet
  facet normal 0 0 -1
    outer loop
      vertex 5.25784 -2.89052 -3
      vertex 2.62892 -1.44526 -3
      vertex 2.90575 -0.746069 -3
    endloop
  endfacet
  facet normal 0 0 -1
    outer loop
      vertex 4.37381 -4.10728 -3
      vertex 2.18691 -2.05364 -3
      vertex 2.62892 -1.44526 -3
    endloop
  endfacet
  facet normal 0 0 -1
    outer loop
      vertex 1.60748 -2.53298 -3
      vertex 3.21496 -5.06597 -3
      vertex 1.8541 -5.70634 -3
    endloop
  endfacet
  facet normal 0 0 -1
    outer loop
      vertex 3.21496 -5.06597 -3
      vertex 1.60748 -2.53298 -3
      vertex 2.18691 -2.05364 -3
    endloop
  endfacet
  facet normal 0 0 -1
    outer loop
      vertex 1.8541 -5.70634 -3
      vertex 0.927051 -2.85317 -3
      vertex 1.60748 -2.53298 -3
    endloop
  endfacet
  facet normal 0 0 -1
    outer loop
      vertex 0.376742 -5.98816 -3
      vertex 0.927051 -2.85317 -3
      vertex 1.8541 -5.70634 -3
    endloop
  endfacet
  facet normal 0 0 -1
    outer loop
      vertex 0.376742 -5.98816 -3
      vertex 0.188371 -2.99408 -3
      vertex 0.927051 -2.85317 -3
    endloop
  endfacet
  facet normal 0 0 -1
    outer loop
      vertex 0.376742 -5.98816 -3
      vertex -0.562143 -2.94686 -3
      vertex 0.188371 -2.99408 -3
    endloop
  endfacet
  facet normal 0 0 -1
    outer loop
      vertex -1.12429 -5.89372 -3
      vertex -0.562143 -2.94686 -3
      vertex 0.376742 -5.98816 -3
    endloop
  endfacet
  facet normal 0 0 -1
    outer loop
      vertex -1.12429 -5.89372 -3
      vertex -1.27734 -2.71448 -3
      vertex -0.562143 -2.94686 -3
    endloop
  endfacet
  facet normal 0 0 -1
    outer loop
      vertex -2.55468 -5.42896 -3
      vertex -1.27734 -2.71448 -3
      vertex -1.12429 -5.89372 -3
    endloop
  endfacet
  facet normal -0 0 -1
    outer loop
      vertex -1.27734 -2.71448 -3
      vertex -2.55468 -5.42896 -3
      vertex -1.91227 -2.31154 -3
    endloop
  endfacet
  facet normal 0 0 -1
    outer loop
      vertex -3.82454 -4.62308 -3
      vertex -1.91227 -2.31154 -3
      vertex -2.55468 -5.42896 -3
    endloop
  endfacet
  facet normal -0 0 -1
    outer loop
      vertex -1.91227 -2.31154 -3
      vertex -3.82454 -4.62308 -3
      vertex -2.42705 -1.76336 -3
    endloop
  endfacet
  facet normal 0 0 -1
    outer loop
      vertex -4.8541 -3.52671 -3
      vertex -2.42705 -1.76336 -3
      vertex -3.82454 -4.62308 -3
    endloop
  endfacet
  facet normal 0 0 -1
    outer loop
      vertex -5.57866 -2.20875 -3
      vertex -2.78933 -1.10437 -3
      vertex -4.8541 -3.52671 -3
    endloop
  endfacet
  facet normal -0 0 -1
    outer loop
      vertex -2.42705 -1.76336 -3
      vertex -4.8541 -3.52671 -3
      vertex -2.78933 -1.10437 -3
    endloop
  endfacet
  facet normal -0 0 -1
    outer loop
      vertex 5.25784 2.89052 -3
      vertex 2.62892 1.44526 -3
      vertex 4.37381 4.10728 -3
    endloop
  endfacet
  facet normal 0 0 -1
    outer loop
      vertex 2.18691 2.05364 -3
      vertex 4.37381 4.10728 -3
      vertex 2.62892 1.44526 -3
    endloop
  endfacet
  facet normal -0 0 -1
    outer loop
      vertex 4.37381 4.10728 -3
      vertex 2.18691 2.05364 -3
      vertex 3.21496 5.06597 -3
    endloop
  endfacet
  facet normal 0 0 -1
    outer loop
      vertex 1.60748 2.53298 -3
      vertex 3.21496 5.06597 -3
      vertex 2.18691 2.05364 -3
    endloop
  endfacet
  facet normal -0 0 -1
    outer loop
      vertex 3.21496 5.06597 -3
      vertex 1.60748 2.53298 -3
      vertex 1.8541 5.70634 -3
    endloop
  endfacet
  facet normal 0 0 -1
    outer loop
      vertex 0.927051 2.85317 -3
      vertex 1.8541 5.70634 -3
      vertex 1.60748 2.53298 -3
    endloop
  endfacet
  facet normal 0 0 -1
    outer loop
      vertex 0.927051 2.85317 -3
      vertex 0.376742 5.98816 -3
      vertex 1.8541 5.70634 -3
    endloop
  endfacet
  facet normal 0 0 -1
    outer loop
      vertex 0.188371 2.99408 -3
      vertex 0.376742 5.98816 -3
      vertex 0.927051 2.85317 -3
    endloop
  endfacet
  facet normal 0 0 -1
    outer loop
      vertex -0.562143 2.94686 -3
      vertex 0.376742 5.98816 -3
      vertex 0.188371 2.99408 -3
    endloop
  endfacet
  facet normal 0 0 -1
    outer loop
      vertex -0.562143 2.94686 -3
      vertex -1.12429 5.89372 -3
      vertex 0.376742 5.98816 -3
    endloop
  endfacet
  facet normal 0 0 -1
    outer loop
      vertex -1.27734 2.71448 -3
      vertex -1.12429 5.89372 -3
      vertex -0.562143 2.94686 -3
    endloop
  endfacet
  facet normal 0 0 -1
    outer loop
      vertex -2.55468 5.42896 -3
      vertex -1.27734 2.71448 -3
      vertex -1.91227 2.31154 -3
    endloop
  endfacet
  facet normal 0 0 -1
    outer loop
      vertex -3.82454 4.62308 -3
      vertex -1.91227 2.31154 -3
      vertex -2.42705 1.76336 -3
    endloop
  endfacet
  facet normal 0 0 -1
    outer loop
      vertex -1.27734 2.71448 -3
      vertex -2.55468 5.42896 -3
      vertex -1.12429 5.89372 -3
    endloop
  endfacet
  facet normal 0 0 -1
    outer loop
      vertex -4.8541 3.52671 -3
      vertex -2.42705 1.76336 -3
      vertex -2.78933 1.10437 -3
    endloop
  endfacet
  facet normal 0 0 -1
    outer loop
      vertex -5.57866 2.20875 -3
      vertex -2.78933 1.10437 -3
      vertex -2.97634 0.375999 -3
    endloop
  endfacet
  facet normal -0 0 -1
    outer loop
      vertex -2.78933 -1.10437 -3
      vertex -5.57866 -2.20875 -3
      vertex -2.97634 -0.375999 -3
    endloop
  endfacet
  facet normal 0 0 -1
    outer loop
      vertex -1.91227 2.31154 -3
      vertex -3.82454 4.62308 -3
      vertex -2.55468 5.42896 -3
    endloop
  endfacet
  facet normal 0 0 -1
    outer loop
      vertex -5.95269 -0.751999 -3
      vertex -2.97634 -0.375999 -3
      vertex -5.57866 -2.20875 -3
    endloop
  endfacet
  facet normal 0 0 -1
    outer loop
      vertex -2.42705 1.76336 -3
      vertex -4.8541 3.52671 -3
      vertex -3.82454 4.62308 -3
    endloop
  endfacet
  facet normal -0 0 -1
    outer loop
      vertex -2.97634 -0.375999 -3
      vertex -5.95269 -0.751999 -3
      vertex -2.97634 0.375999 -3
    endloop
  endfacet
  facet normal 0 0 -1
    outer loop
      vertex -2.78933 1.10437 -3
      vertex -5.57866 2.20875 -3
      vertex -4.8541 3.52671 -3
    endloop
  endfacet
  facet normal 0 0 -1
    outer loop
      vertex -5.95269 0.751999 -3
      vertex -2.97634 0.375999 -3
      vertex -5.95269 -0.751999 -3
    endloop
  endfacet
  facet normal 0 0 -1
    outer loop
      vertex -2.97634 0.375999 -3
      vertex -5.95269 0.751999 -3
      vertex -5.57866 2.20875 -3
    endloop
  endfacet
  facet normal -0.968583 -0.24869 0
    outer loop
      vertex -5.57866 -2.20875 -3
      vertex -5.95269 -0.751999 0
      vertex -5.95269 -0.751999 -3
    endloop
  endfacet
  facet normal -0.968583 -0.24869 0
    outer loop
      vertex -5.95269 -0.751999 0
      vertex -5.57866 -2.20875 -3
      vertex -5.57866 -2.20875 0
    endloop
  endfacet
  facet normal -0.535828 -0.844327 0
    outer loop
      vertex -3.82454 -4.62308 -3
      vertex -2.55468 -5.42896 0
      vertex -3.82454 -4.62308 0
    endloop
  endfacet
  facet normal -0.535828 -0.844327 -0
    outer loop
      vertex -2.55468 -5.42896 0
      vertex -3.82454 -4.62308 -3
      vertex -2.55468 -5.42896 -3
    endloop
  endfacet
  facet normal -0.309016 -0.951057 0
    outer loop
      vertex -2.55468 -5.42896 -3
      vertex -1.12429 -5.89372 0
      vertex -2.55468 -5.42896 0
    endloop
  endfacet
  facet normal -0.309016 -0.951057 -0
    outer loop
      vertex -1.12429 -5.89372 0
      vertex -2.55468 -5.42896 -3
      vertex -1.12429 -5.89372 -3
    endloop
  endfacet
  facet normal -0.0627926 -0.998027 0
    outer loop
      vertex -1.12429 -5.89372 -3
      vertex 0.376742 -5.98816 0
      vertex -1.12429 -5.89372 0
    endloop
  endfacet
  facet normal -0.0627926 -0.998027 -0
    outer loop
      vertex 0.376742 -5.98816 0
      vertex -1.12429 -5.89372 -3
      vertex 0.376742 -5.98816 -3
    endloop
  endfacet
  facet normal 0.929776 -0.368126 0
    outer loop
      vertex 5.25784 -2.89052 0
      vertex 5.8115 -1.49214 -3
      vertex 5.8115 -1.49214 0
    endloop
  endfacet
  facet normal 0.929776 -0.368126 0
    outer loop
      vertex 5.8115 -1.49214 -3
      vertex 5.25784 -2.89052 0
      vertex 5.25784 -2.89052 -3
    endloop
  endfacet
  facet normal 0.187381 -0.982287 0
    outer loop
      vertex 0.376742 -5.98816 -3
      vertex 1.8541 -5.70634 0
      vertex 0.376742 -5.98816 0
    endloop
  endfacet
  facet normal 0.187381 -0.982287 0
    outer loop
      vertex 1.8541 -5.70634 0
      vertex 0.376742 -5.98816 -3
      vertex 1.8541 -5.70634 -3
    endloop
  endfacet
  facet normal -0.309016 0.951057 0
    outer loop
      vertex -1.12429 5.89372 -3
      vertex -2.55468 5.42896 0
      vertex -1.12429 5.89372 0
    endloop
  endfacet
  facet normal -0.309016 0.951057 0
    outer loop
      vertex -2.55468 5.42896 0
      vertex -1.12429 5.89372 -3
      vertex -2.55468 5.42896 -3
    endloop
  endfacet
  facet normal -0.728969 0.684547 0
    outer loop
      vertex -4.8541 3.52671 -3
      vertex -3.82454 4.62308 0
      vertex -3.82454 4.62308 -3
    endloop
  endfacet
  facet normal -0.728969 0.684547 0
    outer loop
      vertex -3.82454 4.62308 0
      vertex -4.8541 3.52671 -3
      vertex -4.8541 3.52671 0
    endloop
  endfacet
  facet normal -0.968583 0.24869 0
    outer loop
      vertex -5.95269 0.751999 -3
      vertex -5.57866 2.20875 0
      vertex -5.57866 2.20875 -3
    endloop
  endfacet
  facet normal -0.968583 0.24869 0
    outer loop
      vertex -5.57866 2.20875 0
      vertex -5.95269 0.751999 -3
      vertex -5.95269 0.751999 0
    endloop
  endfacet
  facet normal 0.637426 0.770511 -0
    outer loop
      vertex 4.37381 4.10728 -3
      vertex 3.21496 5.06597 0
      vertex 4.37381 4.10728 0
    endloop
  endfacet
  facet normal 0.637426 0.770511 0
    outer loop
      vertex 3.21496 5.06597 0
      vertex 4.37381 4.10728 -3
      vertex 3.21496 5.06597 -3
    endloop
  endfacet
  facet normal 0.425778 0.904828 -0
    outer loop
      vertex 3.21496 5.06597 -3
      vertex 1.8541 5.70634 0
      vertex 3.21496 5.06597 0
    endloop
  endfacet
  facet normal 0.425778 0.904828 0
    outer loop
      vertex 1.8541 5.70634 0
      vertex 3.21496 5.06597 -3
      vertex 1.8541 5.70634 -3
    endloop
  endfacet
  facet normal 0.809016 0.587786 0
    outer loop
      vertex 5.25784 2.89052 0
      vertex 4.37381 4.10728 -3
      vertex 4.37381 4.10728 0
    endloop
  endfacet
  facet normal 0.809016 0.587786 0
    outer loop
      vertex 4.37381 4.10728 -3
      vertex 5.25784 2.89052 0
      vertex 5.25784 2.89052 -3
    endloop
  endfacet
  facet normal 0 0 1
    outer loop
      vertex 3 0 0
      vertex 6 0 0
      vertex 5.8115 1.49214 0
    endloop
  endfacet
  facet normal 0 0 1
    outer loop
      vertex 2.90575 0.746069 0
      vertex 5.8115 1.49214 0
      vertex 5.25784 2.89052 0
    endloop
  endfacet
  facet normal 0 0 1
    outer loop
      vertex 6 0 0
      vertex 3 0 0
      vertex 5.8115 -1.49214 0
    endloop
  endfacet
  facet normal 0 0 1
    outer loop
      vertex 2.62892 1.44526 0
      vertex 5.25784 2.89052 0
      vertex 4.37381 4.10728 0
    endloop
  endfacet
  facet normal -0 0 1
    outer loop
      vertex 2.90575 -0.746069 0
      vertex 5.8115 -1.49214 0
      vertex 3 0 0
    endloop
  endfacet
  facet normal 0 0 1
    outer loop
      vertex 2.18691 2.05364 0
      vertex 4.37381 4.10728 0
      vertex 3.21496 5.06597 0
    endloop
  endfacet
  facet normal 0 0 1
    outer loop
      vertex 5.8115 -1.49214 0
      vertex 2.90575 -0.746069 0
      vertex 5.25784 -2.89052 0
    endloop
  endfacet
  facet normal -0 0 1
    outer loop
      vertex 2.62892 -1.44526 0
      vertex 5.25784 -2.89052 0
      vertex 2.90575 -0.746069 0
    endloop
  endfacet
  facet normal 0 0 1
    outer loop
      vertex 5.8115 1.49214 0
      vertex 2.90575 0.746069 0
      vertex 3 0 0
    endloop
  endfacet
  facet normal 0 0 1
    outer loop
      vertex 5.25784 2.89052 0
      vertex 2.62892 1.44526 0
      vertex 2.90575 0.746069 0
    endloop
  endfacet
  facet normal 0 0 1
    outer loop
      vertex 4.37381 4.10728 0
      vertex 2.18691 2.05364 0
      vertex 2.62892 1.44526 0
    endloop
  endfacet
  facet normal 0 0 1
    outer loop
      vertex 1.60748 2.53298 0
      vertex 3.21496 5.06597 0
      vertex 1.8541 5.70634 0
    endloop
  endfacet
  facet normal 0 0 1
    outer loop
      vertex 3.21496 5.06597 0
      vertex 1.60748 2.53298 0
      vertex 2.18691 2.05364 0
    endloop
  endfacet
  facet normal 0 0 1
    outer loop
      vertex 1.8541 5.70634 0
      vertex 0.927051 2.85317 0
      vertex 1.60748 2.53298 0
    endloop
  endfacet
  facet normal 0 0 1
    outer loop
      vertex 0.376742 5.98816 0
      vertex 0.927051 2.85317 0
      vertex 1.8541 5.70634 0
    endloop
  endfacet
  facet normal 0 0 1
    outer loop
      vertex 0.376742 5.98816 0
      vertex 0.188371 2.99408 0
      vertex 0.927051 2.85317 0
    endloop
  endfacet
  facet normal 0 0 1
    outer loop
      vertex 0.376742 5.98816 0
      vertex -0.562143 2.94686 0
      vertex 0.188371 2.99408 0
    endloop
  endfacet
  facet normal -0 0 1
    outer loop
      vertex -1.12429 5.89372 0
      vertex -0.562143 2.94686 0
      vertex 0.376742 5.98816 0
    endloop
  endfacet
  facet normal 0 0 1
    outer loop
      vertex -1.12429 5.89372 0
      vertex -1.27734 2.71448 0
      vertex -0.562143 2.94686 0
    endloop
  endfacet
  facet normal -0 0 1
    outer loop
      vertex -2.55468 5.42896 0
      vertex -1.27734 2.71448 0
      vertex -1.12429 5.89372 0
    endloop
  endfacet
  facet normal 0 0 1
    outer loop
      vertex -1.27734 2.71448 0
      vertex -2.55468 5.42896 0
      vertex -1.91227 2.31154 0
    endloop
  endfacet
  facet normal -0 0 1
    outer loop
      vertex -3.82454 4.62308 0
      vertex -1.91227 2.31154 0
      vertex -2.55468 5.42896 0
    endloop
  endfacet
  facet normal 0 0 1
    outer loop
      vertex -1.91227 2.31154 0
      vertex -3.82454 4.62308 0
      vertex -2.42705 1.76336 0
    endloop
  endfacet
  facet normal -0 0 1
    outer loop
      vertex -4.8541 3.52671 0
      vertex -2.42705 1.76336 0
      vertex -3.82454 4.62308 0
    endloop
  endfacet
  facet normal -0 0 1
    outer loop
      vertex -5.57866 2.20875 0
      vertex -2.78933 1.10437 0
      vertex -4.8541 3.52671 0
    endloop
  endfacet
  facet normal 0 0 1
    outer loop
      vertex -2.42705 1.76336 0
      vertex -4.8541 3.52671 0
      vertex -2.78933 1.10437 0
    endloop
  endfacet
  facet normal 0 0 1
    outer loop
      vertex 5.25784 -2.89052 0
      vertex 2.62892 -1.44526 0
      vertex 4.37381 -4.10728 0
    endloop
  endfacet
  facet normal -0 0 1
    outer loop
      vertex 2.18691 -2.05364 0
      vertex 4.37381 -4.10728 0
      vertex 2.62892 -1.44526 0
    endloop
  endfacet
  facet normal 0 0 1
    outer loop
      vertex 4.37381 -4.10728 0
      vertex 2.18691 -2.05364 0
      vertex 3.21496 -5.06597 0
    endloop
  endfacet
  facet normal -0 0 1
    outer loop
      vertex 1.60748 -2.53298 0
      vertex 3.21496 -5.06597 0
      vertex 2.18691 -2.05364 0
    endloop
  endfacet
  facet normal 0 0 1
    outer loop
      vertex 3.21496 -5.06597 0
      vertex 1.60748 -2.53298 0
      vertex 1.8541 -5.70634 0
    endloop
  endfacet
  facet normal -0 0 1
    outer loop
      vertex 0.927051 -2.85317 0
      vertex 1.8541 -5.70634 0
      vertex 1.60748 -2.53298 0
    endloop
  endfacet
  facet normal 0 0 1
    outer loop
      vertex 0.927051 -2.85317 0
      vertex 0.376742 -5.98816 0
      vertex 1.8541 -5.70634 0
    endloop
  endfacet
  facet normal -0 0 1
    outer loop
      vertex 0.188371 -2.99408 0
      vertex 0.376742 -5.98816 0
      vertex 0.927051 -2.85317 0
    endloop
  endfacet
  facet normal 0 0 1
    outer loop
      vertex -0.562143 -2.94686 0
      vertex 0.376742 -5.98816 0
      vertex 0.188371 -2.99408 0
    endloop
  endfacet
  facet normal 0 0 1
    outer loop
      vertex -0.562143 -2.94686 0
      vertex -1.12429 -5.89372 0
      vertex 0.376742 -5.98816 0
    endloop
  endfacet
  facet normal 0 0 1
    outer loop
      vertex -1.27734 -2.71448 0
      vertex -1.12429 -5.89372 0
      vertex -0.562143 -2.94686 0
    endloop
  endfacet
  facet normal 0 0 1
    outer loop
      vertex -2.55468 -5.42896 0
      vertex -1.27734 -2.71448 0
      vertex -1.91227 -2.31154 0
    endloop
  endfacet
  facet normal 0 0 1
    outer loop
      vertex -3.82454 -4.62308 0
      vertex -1.91227 -2.31154 0
      vertex -2.42705 -1.76336 0
    endloop
  endfacet
  facet normal 0 0 1
    outer loop
      vertex -1.27734 -2.71448 0
      vertex -2.55468 -5.42896 0
      vertex -1.12429 -5.89372 0
    endloop
  endfacet
  facet normal 0 0 1
    outer loop
      vertex -4.8541 -3.52671 0
      vertex -2.42705 -1.76336 0
      vertex -2.78933 -1.10437 0
    endloop
  endfacet
  facet normal 0 0 1
    outer loop
      vertex -5.57866 -2.20875 0
      vertex -2.78933 -1.10437 0
      vertex -2.97634 -0.375999 0
    endloop
  endfacet
  facet normal 0 0 1
    outer loop
      vertex -2.78933 1.10437 0
      vertex -5.57866 2.20875 0
      vertex -2.97634 0.375999 0
    endloop
  endfacet
  facet normal 0 0 1
    outer loop
      vertex -1.91227 -2.31154 0
      vertex -3.82454 -4.62308 0
      vertex -2.55468 -5.42896 0
    endloop
  endfacet
  facet normal -0 0 1
    outer loop
      vertex -5.95269 0.751999 0
      vertex -2.97634 0.375999 0
      vertex -5.57866 2.20875 0
    endloop
  endfacet
  facet normal 0 0 1
    outer loop
      vertex -2.42705 -1.76336 0
      vertex -4.8541 -3.52671 0
      vertex -3.82454 -4.62308 0
    endloop
  endfacet
  facet normal 0 0 1
    outer loop
      vertex -2.97634 0.375999 0
      vertex -5.95269 0.751999 0
      vertex -2.97634 -0.375999 0
    endloop
  endfacet
  facet normal 0 0 1
    outer loop
      vertex -2.78933 -1.10437 0
      vertex -5.57866 -2.20875 0
      vertex -4.8541 -3.52671 0
    endloop
  endfacet
  facet normal 0 0 1
    outer loop
      vertex -5.95269 -0.751999 0
      vertex -2.97634 -0.375999 0
      vertex -5.95269 0.751999 0
    endloop
  endfacet
  facet normal 0 0 1
    outer loop
      vertex -2.97634 -0.375999 0
      vertex -5.95269 -0.751999 0
      vertex -5.57866 -2.20875 0
    endloop
  endfacet
  facet normal -1 0 0
    outer loop
      vertex -5.95269 -0.751999 -3
      vertex -5.95269 0.751999 0
      vertex -5.95269 0.751999 -3
    endloop
  endfacet
  facet normal -1 -0 0
    outer loop
      vertex -5.95269 0.751999 0
      vertex -5.95269 -0.751999 -3
      vertex -5.95269 -0.751999 0
    endloop
  endfacet
  facet normal -0.0627926 0.998027 0
    outer loop
      vertex 0.376742 5.98816 -3
      vertex -1.12429 5.89372 0
      vertex 0.376742 5.98816 0
    endloop
  endfacet
  facet normal -0.0627926 0.998027 0
    outer loop
      vertex -1.12429 5.89372 0
      vertex 0.376742 5.98816 -3
      vertex -1.12429 5.89372 -3
    endloop
  endfacet
  facet normal 0.187381 0.982287 -0
    outer loop
      vertex 1.8541 5.70634 -3
      vertex 0.376742 5.98816 0
      vertex 1.8541 5.70634 0
    endloop
  endfacet
  facet normal 0.187381 0.982287 0
    outer loop
      vertex 0.376742 5.98816 0
      vertex 1.8541 5.70634 -3
      vertex 0.376742 5.98816 -3
    endloop
  endfacet
  facet normal 0.929776 0.368126 0
    outer loop
      vertex 5.8115 1.49214 0
      vertex 5.25784 2.89052 -3
      vertex 5.25784 2.89052 0
    endloop
  endfacet
  facet normal 0.929776 0.368126 0
    outer loop
      vertex 5.25784 2.89052 -3
      vertex 5.8115 1.49214 0
      vertex 5.8115 1.49214 -3
    endloop
  endfacet
  facet normal -0.929776 0.368125 0
    outer loop
      vertex 2.62892 -1.44526 -3
      vertex 2.90575 -0.746069 0
      vertex 2.90575 -0.746069 -3
    endloop
  endfacet
  facet normal -0.929776 0.368125 0
    outer loop
      vertex 2.90575 -0.746069 0
      vertex 2.62892 -1.44526 -3
      vertex 2.62892 -1.44526 0
    endloop
  endfacet
  facet normal -0.992115 0.125333 0
    outer loop
      vertex 2.90575 -0.746069 -3
      vertex 3 0 0
      vertex 3 0 -3
    endloop
  endfacet
  facet normal -0.992115 0.125333 0
    outer loop
      vertex 3 0 0
      vertex 2.90575 -0.746069 -3
      vertex 2.90575 -0.746069 0
    endloop
  endfacet
  facet normal -0.992115 -0.125333 0
    outer loop
      vertex 3 0 -3
      vertex 2.90575 0.746069 0
      vertex 2.90575 0.746069 -3
    endloop
  endfacet
  facet normal -0.992115 -0.125333 0
    outer loop
      vertex 2.90575 0.746069 0
      vertex 3 0 -3
      vertex 3 0 0
    endloop
  endfacet
  facet normal 0.968584 -0.248685 0
    outer loop
      vertex -2.97634 0.375999 0
      vertex -2.78933 1.10437 -3
      vertex -2.78933 1.10437 0
    endloop
  endfacet
  facet normal 0.968584 -0.248685 0
    outer loop
      vertex -2.78933 1.10437 -3
      vertex -2.97634 0.375999 0
      vertex -2.97634 0.375999 -3
    endloop
  endfacet
  facet normal 1 -0 0
    outer loop
      vertex -2.97634 -0.375999 0
      vertex -2.97634 0.375999 -3
      vertex -2.97634 0.375999 0
    endloop
  endfacet
  facet normal 1 0 0
    outer loop
      vertex -2.97634 0.375999 -3
      vertex -2.97634 -0.375999 0
      vertex -2.97634 -0.375999 -3
    endloop
  endfacet
  facet normal 0.728965 0.68455 0
    outer loop
      vertex -1.91227 -2.31154 0
      vertex -2.42705 -1.76336 -3
      vertex -2.42705 -1.76336 0
    endloop
  endfacet
  facet normal 0.728965 0.68455 0
    outer loop
      vertex -2.42705 -1.76336 -3
      vertex -1.91227 -2.31154 0
      vertex -1.91227 -2.31154 -3
    endloop
  endfacet
  facet normal -0.18738 -0.982287 0
    outer loop
      vertex 0.188371 2.99408 -3
      vertex 0.927051 2.85317 0
      vertex 0.188371 2.99408 0
    endloop
  endfacet
  facet normal -0.18738 -0.982287 -0
    outer loop
      vertex 0.927051 2.85317 0
      vertex 0.188371 2.99408 -3
      vertex 0.927051 2.85317 -3
    endloop
  endfacet
  facet normal 0.968584 0.248685 0
    outer loop
      vertex -2.78933 -1.10437 0
      vertex -2.97634 -0.375999 -3
      vertex -2.97634 -0.375999 0
    endloop
  endfacet
  facet normal 0.968584 0.248685 0
    outer loop
      vertex -2.97634 -0.375999 -3
      vertex -2.78933 -1.10437 0
      vertex -2.78933 -1.10437 -3
    endloop
  endfacet
  facet normal 0.535828 0.844327 -0
    outer loop
      vertex -1.27734 -2.71448 -3
      vertex -1.91227 -2.31154 0
      vertex -1.27734 -2.71448 0
    endloop
  endfacet
  facet normal 0.535828 0.844327 0
    outer loop
      vertex -1.91227 -2.31154 0
      vertex -1.27734 -2.71448 -3
      vertex -1.91227 -2.31154 -3
    endloop
  endfacet
  facet normal 0.0627927 0.998027 -0
    outer loop
      vertex 0.188371 -2.99408 -3
      vertex -0.562143 -2.94686 0
      vertex 0.188371 -2.99408 0
    endloop
  endfacet
  facet normal 0.0627927 0.998027 0
    outer loop
      vertex -0.562143 -2.94686 0
      vertex 0.188371 -2.99408 -3
      vertex -0.562143 -2.94686 -3
    endloop
  endfacet
  facet normal -0.425784 0.904825 0
    outer loop
      vertex 1.60748 -2.53298 -3
      vertex 0.927051 -2.85317 0
      vertex 1.60748 -2.53298 0
    endloop
  endfacet
  facet normal -0.425784 0.904825 0
    outer loop
      vertex 0.927051 -2.85317 0
      vertex 1.60748 -2.53298 -3
      vertex 0.927051 -2.85317 -3
    endloop
  endfacet
  facet normal -0.637419 0.770517 0
    outer loop
      vertex 2.18691 -2.05364 -3
      vertex 1.60748 -2.53298 0
      vertex 2.18691 -2.05364 0
    endloop
  endfacet
  facet normal -0.637419 0.770517 0
    outer loop
      vertex 1.60748 -2.53298 0
      vertex 2.18691 -2.05364 -3
      vertex 1.60748 -2.53298 -3
    endloop
  endfacet
  facet normal 0.728965 -0.68455 0
    outer loop
      vertex -2.42705 1.76336 0
      vertex -1.91227 2.31154 -3
      vertex -1.91227 2.31154 0
    endloop
  endfacet
  facet normal 0.728965 -0.68455 0
    outer loop
      vertex -1.91227 2.31154 -3
      vertex -2.42705 1.76336 0
      vertex -2.42705 1.76336 -3
    endloop
  endfacet
  facet normal 0.535828 -0.844327 0
    outer loop
      vertex -1.91227 2.31154 -3
      vertex -1.27734 2.71448 0
      vertex -1.91227 2.31154 0
    endloop
  endfacet
  facet normal 0.535828 -0.844327 0
    outer loop
      vertex -1.27734 2.71448 0
      vertex -1.91227 2.31154 -3
      vertex -1.27734 2.71448 -3
    endloop
  endfacet
  facet normal 0.0627927 -0.998027 0
    outer loop
      vertex -0.562143 2.94686 -3
      vertex 0.188371 2.99408 0
      vertex -0.562143 2.94686 0
    endloop
  endfacet
  facet normal 0.0627927 -0.998027 0
    outer loop
      vertex 0.188371 2.99408 0
      vertex -0.562143 2.94686 -3
      vertex 0.188371 2.99408 -3
    endloop
  endfacet
  facet normal -0.809019 -0.587782 0
    outer loop
      vertex 2.62892 1.44526 -3
      vertex 2.18691 2.05364 0
      vertex 2.18691 2.05364 -3
    endloop
  endfacet
  facet normal -0.809019 -0.587782 0
    outer loop
      vertex 2.18691 2.05364 0
      vertex 2.62892 1.44526 -3
      vertex 2.62892 1.44526 0
    endloop
  endfacet
  facet normal -0.929776 -0.368125 0
    outer loop
      vertex 2.90575 0.746069 -3
      vertex 2.62892 1.44526 0
      vertex 2.62892 1.44526 -3
    endloop
  endfacet
  facet normal -0.929776 -0.368125 0
    outer loop
      vertex 2.62892 1.44526 0
      vertex 2.90575 0.746069 -3
      vertex 2.90575 0.746069 0
    endloop
  endfacet
  facet normal 0.876308 0.481751 0
    outer loop
      vertex -2.42705 -1.76336 0
      vertex -2.78933 -1.10437 -3
      vertex -2.78933 -1.10437 0
    endloop
  endfacet
  facet normal 0.876308 0.481751 0
    outer loop
      vertex -2.78933 -1.10437 -3
      vertex -2.42705 -1.76336 0
      vertex -2.42705 -1.76336 -3
    endloop
  endfacet
  facet normal 0.309015 0.951057 -0
    outer loop
      vertex -0.562143 -2.94686 -3
      vertex -1.27734 -2.71448 0
      vertex -0.562143 -2.94686 0
    endloop
  endfacet
  facet normal 0.309015 0.951057 0
    outer loop
      vertex -1.27734 -2.71448 0
      vertex -0.562143 -2.94686 -3
      vertex -1.27734 -2.71448 -3
    endloop
  endfacet
  facet normal -0.18738 0.982287 0
    outer loop
      vertex 0.927051 -2.85317 -3
      vertex 0.188371 -2.99408 0
      vertex 0.927051 -2.85317 0
    endloop
  endfacet
  facet normal -0.18738 0.982287 0
    outer loop
      vertex 0.188371 -2.99408 0
      vertex 0.927051 -2.85317 -3
      vertex 0.188371 -2.99408 -3
    endloop
  endfacet
  facet normal -0.809019 0.587782 0
    outer loop
      vertex 2.18691 -2.05364 -3
      vertex 2.62892 -1.44526 0
      vertex 2.62892 -1.44526 -3
    endloop
  endfacet
  facet normal -0.809019 0.587782 0
    outer loop
      vertex 2.62892 -1.44526 0
      vertex 2.18691 -2.05364 -3
      vertex 2.18691 -2.05364 0
    endloop
  endfacet
  facet normal 0.876308 -0.481751 0
    outer loop
      vertex -2.78933 1.10437 0
      vertex -2.42705 1.76336 -3
      vertex -2.42705 1.76336 0
    endloop
  endfacet
  facet normal 0.876308 -0.481751 0
    outer loop
      vertex -2.42705 1.76336 -3
      vertex -2.78933 1.10437 0
      vertex -2.78933 1.10437 -3
    endloop
  endfacet
  facet normal 0.309015 -0.951057 0
    outer loop
      vertex -1.27734 2.71448 -3
      vertex -0.562143 2.94686 0
      vertex -1.27734 2.71448 0
    endloop
  endfacet
  facet normal 0.309015 -0.951057 0
    outer loop
      vertex -0.562143 2.94686 0
      vertex -1.27734 2.71448 -3
      vertex -0.562143 2.94686 -3
    endloop
  endfacet
  facet normal -0.425784 -0.904825 0
    outer loop
      vertex 0.927051 2.85317 -3
      vertex 1.60748 2.53298 0
      vertex 0.927051 2.85317 0
    endloop
  endfacet
  facet normal -0.425784 -0.904825 -0
    outer loop
      vertex 1.60748 2.53298 0
      vertex 0.927051 2.85317 -3
      vertex 1.60748 2.53298 -3
    endloop
  endfacet
  facet normal -0.637419 -0.770517 0
    outer loop
      vertex 1.60748 2.53298 -3
      vertex 2.18691 2.05364 0
      vertex 1.60748 2.53298 0
    endloop
  endfacet
  facet normal -0.637419 -0.770517 -0
    outer loop
      vertex 2.18691 2.05364 0
      vertex 1.60748 2.53298 -3
      vertex 2.18691 2.05364 -3
    endloop
  endfacet
endsolid OpenSCAD_Model
