solid OpenSCAD_Model
  facet normal 0.982287 0.187382 0
    outer loop
      vertex 5.95269 0.751999 3
      vertex 5.8115 1.49214 0
      vertex 5.8115 1.49214 3
    endloop
  endfacet
  facet normal 0.982287 0.187382 0
    outer loop
      vertex 5.8115 1.49214 0
      vertex 5.95269 0.751999 3
      vertex 5.95269 0.751999 0
    endloop
  endfacet
  facet normal 0 0 -1
    outer loop
      vertex 3.25 0 0
      vertex 6 0 0
      vertex 5.95269 -0.751999 0
    endloop
  endfacet
  facet normal 0 0 -1
    outer loop
      vertex 3.22437 -0.407332 0
      vertex 5.95269 -0.751999 0
      vertex 5.8115 -1.49214 0
    endloop
  endfacet
  facet normal 0 0 -1
    outer loop
      vertex 6 0 0
      vertex 3.25 0 0
      vertex 5.95269 0.751999 0
    endloop
  endfacet
  facet normal 0 0 -1
    outer loop
      vertex 3.14789 -0.808242 0
      vertex 5.8115 -1.49214 0
      vertex 5.57866 -2.20875 0
    endloop
  endfacet
  facet normal 0 0 -1
    outer loop
      vertex 3.22437 0.407332 0
      vertex 5.95269 0.751999 0
      vertex 3.25 0 0
    endloop
  endfacet
  facet normal 0 0 -1
    outer loop
      vertex 3.02177 -1.1964 0
      vertex 5.57866 -2.20875 0
      vertex 5.25784 -2.89052 0
    endloop
  endfacet
  facet normal -0 0 -1
    outer loop
      vertex 5.95269 0.751999 0
      vertex 3.22437 0.407332 0
      vertex 5.8115 1.49214 0
    endloop
  endfacet
  facet normal 0 0 -1
    outer loop
      vertex 2.848 -1.5657 0
      vertex 5.25784 -2.89052 0
      vertex 4.8541 -3.52671 0
    endloop
  endfacet
  facet normal 0 0 -1
    outer loop
      vertex 3.14789 0.808242 0
      vertex 5.8115 1.49214 0
      vertex 3.22437 0.407332 0
    endloop
  endfacet
  facet normal 0 0 -1
    outer loop
      vertex 2.6293 -1.9103 0
      vertex 4.8541 -3.52671 0
      vertex 4.37381 -4.10728 0
    endloop
  endfacet
  facet normal -0 0 -1
    outer loop
      vertex 5.8115 1.49214 0
      vertex 3.14789 0.808242 0
      vertex 5.57866 2.20875 0
    endloop
  endfacet
  facet normal 0 0 -1
    outer loop
      vertex 2.36915 -2.22478 0
      vertex 4.37381 -4.10728 0
      vertex 3.82454 -4.62308 0
    endloop
  endfacet
  facet normal 0 0 -1
    outer loop
      vertex 3.02177 1.1964 0
      vertex 5.57866 2.20875 0
      vertex 3.14789 0.808242 0
    endloop
  endfacet
  facet normal -0 0 -1
    outer loop
      vertex 5.57866 2.20875 0
      vertex 3.02177 1.1964 0
      vertex 5.25784 2.89052 0
    endloop
  endfacet
  facet normal 0 0 -1
    outer loop
      vertex 5.95269 -0.751999 0
      vertex 3.22437 -0.407332 0
      vertex 3.25 0 0
    endloop
  endfacet
  facet normal 0 0 -1
    outer loop
      vertex 2.07163 -2.50417 0
      vertex 3.82454 -4.62308 0
      vertex 3.21496 -5.06597 0
    endloop
  endfacet
  facet normal 0 0 -1
    outer loop
      vertex 5.8115 -1.49214 0
      vertex 3.14789 -0.808242 0
      vertex 3.22437 -0.407332 0
    endloop
  endfacet
  facet normal 0 0 -1
    outer loop
      vertex 5.57866 -2.20875 0
      vertex 3.02177 -1.1964 0
      vertex 3.14789 -0.808242 0
    endloop
  endfacet
  facet normal 0 0 -1
    outer loop
      vertex 5.25784 -2.89052 0
      vertex 2.848 -1.5657 0
      vertex 3.02177 -1.1964 0
    endloop
  endfacet
  facet normal 0 0 -1
    outer loop
      vertex 4.8541 -3.52671 0
      vertex 2.6293 -1.9103 0
      vertex 2.848 -1.5657 0
    endloop
  endfacet
  facet normal 0 0 -1
    outer loop
      vertex 1.74144 -2.74407 0
      vertex 3.21496 -5.06597 0
      vertex 2.55468 -5.42896 0
    endloop
  endfacet
  facet normal 0 0 -1
    outer loop
      vertex 4.37381 -4.10728 0
      vertex 2.36915 -2.22478 0
      vertex 2.6293 -1.9103 0
    endloop
  endfacet
  facet normal 0 0 -1
    outer loop
      vertex 3.82454 -4.62308 0
      vertex 2.07163 -2.50417 0
      vertex 2.36915 -2.22478 0
    endloop
  endfacet
  facet normal 0 0 -1
    outer loop
      vertex 1.38378 -2.94069 0
      vertex 2.55468 -5.42896 0
      vertex 1.8541 -5.70634 0
    endloop
  endfacet
  facet normal 0 0 -1
    outer loop
      vertex 3.21496 -5.06597 0
      vertex 1.74144 -2.74407 0
      vertex 2.07163 -2.50417 0
    endloop
  endfacet
  facet normal 0 0 -1
    outer loop
      vertex 2.55468 -5.42896 0
      vertex 1.38378 -2.94069 0
      vertex 1.74144 -2.74407 0
    endloop
  endfacet
  facet normal 0 0 -1
    outer loop
      vertex 1.0043 -3.09093 0
      vertex 1.8541 -5.70634 0
      vertex 1.12429 -5.89372 0
    endloop
  endfacet
  facet normal 0 0 -1
    outer loop
      vertex 1.8541 -5.70634 0
      vertex 1.0043 -3.09093 0
      vertex 1.38378 -2.94069 0
    endloop
  endfacet
  facet normal 0 0 -1
    outer loop
      vertex 1.12429 -5.89372 0
      vertex 0.608989 -3.19243 0
      vertex 1.0043 -3.09093 0
    endloop
  endfacet
  facet normal 0 0 -1
    outer loop
      vertex 0.376742 -5.98816 0
      vertex 0.608989 -3.19243 0
      vertex 1.12429 -5.89372 0
    endloop
  endfacet
  facet normal 0 0 -1
    outer loop
      vertex 0.376742 -5.98816 0
      vertex 0.204069 -3.24359 0
      vertex 0.608989 -3.19243 0
    endloop
  endfacet
  facet normal 0 0 -1
    outer loop
      vertex 0.376742 -5.98816 0
      vertex -0.204069 -3.24359 0
      vertex 0.204069 -3.24359 0
    endloop
  endfacet
  facet normal 0 0 -1
    outer loop
      vertex -0.376742 -5.98816 0
      vertex -0.204069 -3.24359 0
      vertex 0.376742 -5.98816 0
    endloop
  endfacet
  facet normal 0 0 -1
    outer loop
      vertex -0.376742 -5.98816 0
      vertex -0.608989 -3.19243 0
      vertex -0.204069 -3.24359 0
    endloop
  endfacet
  facet normal 0 0 -1
    outer loop
      vertex -1.12429 -5.89372 0
      vertex -0.608989 -3.19243 0
      vertex -0.376742 -5.98816 0
    endloop
  endfacet
  facet normal -0 0 -1
    outer loop
      vertex -0.608989 -3.19243 0
      vertex -1.12429 -5.89372 0
      vertex -1.0043 -3.09093 0
    endloop
  endfacet
  facet normal 0 0 -1
    outer loop
      vertex -1.8541 -5.70634 0
      vertex -1.0043 -3.09093 0
      vertex -1.12429 -5.89372 0
    endloop
  endfacet
  facet normal -0 0 -1
    outer loop
      vertex -1.0043 -3.09093 0
      vertex -1.8541 -5.70634 0
      vertex -1.38378 -2.94069 0
    endloop
  endfacet
  facet normal 0 0 -1
    outer loop
      vertex -2.55468 -5.42896 0
      vertex -1.38378 -2.94069 0
      vertex -1.8541 -5.70634 0
    endloop
  endfacet
  facet normal -0 0 -1
    outer loop
      vertex -1.38378 -2.94069 0
      vertex -2.55468 -5.42896 0
      vertex -1.74144 -2.74407 0
    endloop
  endfacet
  facet normal 0 0 -1
    outer loop
      vertex -3.21496 -5.06597 0
      vertex -1.74144 -2.74407 0
      vertex -2.55468 -5.42896 0
    endloop
  endfacet
  facet normal -0 0 -1
    outer loop
      vertex -1.74144 -2.74407 0
      vertex -3.21496 -5.06597 0
      vertex -2.07163 -2.50417 0
    endloop
  endfacet
  facet normal 0 0 -1
    outer loop
      vertex -3.82454 -4.62308 0
      vertex -2.07163 -2.50417 0
      vertex -3.21496 -5.06597 0
    endloop
  endfacet
  facet normal -0 0 -1
    outer loop
      vertex -2.07163 -2.50417 0
      vertex -3.82454 -4.62308 0
      vertex -2.36915 -2.22478 0
    endloop
  endfacet
  facet normal 0 0 -1
    outer loop
      vertex -4.37381 -4.10728 0
      vertex -2.36915 -2.22478 0
      vertex -3.82454 -4.62308 0
    endloop
  endfacet
  facet normal -0 0 -1
    outer loop
      vertex -2.36915 -2.22478 0
      vertex -4.37381 -4.10728 0
      vertex -2.6293 -1.9103 0
    endloop
  endfacet
  facet normal 0 0 -1
    outer loop
      vertex -4.8541 -3.52671 0
      vertex -2.6293 -1.9103 0
      vertex -4.37381 -4.10728 0
    endloop
  endfacet
  facet normal -0 0 -1
    outer loop
      vertex -2.6293 -1.9103 0
      vertex -4.8541 -3.52671 0
      vertex -2.848 -1.5657 0
    endloop
  endfacet
  facet normal 0 0 -1
    outer loop
      vertex -5.25784 -2.89052 0
      vertex -2.848 -1.5657 0
      vertex -4.8541 -3.52671 0
    endloop
  endfacet
  facet normal -0 0 -1
    outer loop
      vertex -2.848 -1.5657 0
      vertex -5.25784 -2.89052 0
      vertex -3.02177 -1.1964 0
    endloop
  endfacet
  facet normal 0 0 -1
    outer loop
      vertex 2.848 1.5657 0
      vertex 5.25784 2.89052 0
      vertex 3.02177 1.1964 0
    endloop
  endfacet
  facet normal -0 0 -1
    outer loop
      vertex 5.25784 2.89052 0
      vertex 2.848 1.5657 0
      vertex 4.8541 3.52671 0
    endloop
  endfacet
  facet normal 0 0 -1
    outer loop
      vertex 2.6293 1.9103 0
      vertex 4.8541 3.52671 0
      vertex 2.848 1.5657 0
    endloop
  endfacet
  facet normal -0 0 -1
    outer loop
      vertex 4.8541 3.52671 0
      vertex 2.6293 1.9103 0
      vertex 4.37381 4.10728 0
    endloop
  endfacet
  facet normal 0 0 -1
    outer loop
      vertex 2.36915 2.22478 0
      vertex 4.37381 4.10728 0
      vertex 2.6293 1.9103 0
    endloop
  endfacet
  facet normal -0 0 -1
    outer loop
      vertex 4.37381 4.10728 0
      vertex 2.36915 2.22478 0
      vertex 3.82454 4.62308 0
    endloop
  endfacet
  facet normal 0 0 -1
    outer loop
      vertex 2.07163 2.50417 0
      vertex 3.82454 4.62308 0
      vertex 2.36915 2.22478 0
    endloop
  endfacet
  facet normal -0 0 -1
    outer loop
      vertex 3.82454 4.62308 0
      vertex 2.07163 2.50417 0
      vertex 3.21496 5.06597 0
    endloop
  endfacet
  facet normal 0 0 -1
    outer loop
      vertex 1.74144 2.74407 0
      vertex 3.21496 5.06597 0
      vertex 2.07163 2.50417 0
    endloop
  endfacet
  facet normal -0 0 -1
    outer loop
      vertex 3.21496 5.06597 0
      vertex 1.74144 2.74407 0
      vertex 2.55468 5.42896 0
    endloop
  endfacet
  facet normal 0 0 -1
    outer loop
      vertex 1.38378 2.94069 0
      vertex 2.55468 5.42896 0
      vertex 1.74144 2.74407 0
    endloop
  endfacet
  facet normal -0 0 -1
    outer loop
      vertex 2.55468 5.42896 0
      vertex 1.38378 2.94069 0
      vertex 1.8541 5.70634 0
    endloop
  endfacet
  facet normal 0 0 -1
    outer loop
      vertex 1.0043 3.09093 0
      vertex 1.8541 5.70634 0
      vertex 1.38378 2.94069 0
    endloop
  endfacet
  facet normal -0 0 -1
    outer loop
      vertex 1.8541 5.70634 0
      vertex 1.0043 3.09093 0
      vertex 1.12429 5.89372 0
    endloop
  endfacet
  facet normal 0 0 -1
    outer loop
      vertex 0.608989 3.19243 0
      vertex 1.12429 5.89372 0
      vertex 1.0043 3.09093 0
    endloop
  endfacet
  facet normal 0 0 -1
    outer loop
      vertex 0.608989 3.19243 0
      vertex 0.376742 5.98816 0
      vertex 1.12429 5.89372 0
    endloop
  endfacet
  facet normal 0 0 -1
    outer loop
      vertex 0.204069 3.24359 0
      vertex 0.376742 5.98816 0
      vertex 0.608989 3.19243 0
    endloop
  endfacet
  facet normal 0 0 -1
    outer loop
      vertex -0.204069 3.24359 0
      vertex 0.376742 5.98816 0
      vertex 0.204069 3.24359 0
    endloop
  endfacet
  facet normal 0 0 -1
    outer loop
      vertex -0.204069 3.24359 0
      vertex -0.376742 5.98816 0
      vertex 0.376742 5.98816 0
    endloop
  endfacet
  facet normal 0 0 -1
    outer loop
      vertex -0.608989 3.19243 0
      vertex -0.376742 5.98816 0
      vertex -0.204069 3.24359 0
    endloop
  endfacet
  facet normal 0 0 -1
    outer loop
      vertex -1.12429 5.89372 0
      vertex -0.608989 3.19243 0
      vertex -1.0043 3.09093 0
    endloop
  endfacet
  facet normal 0 0 -1
    outer loop
      vertex -0.608989 3.19243 0
      vertex -1.12429 5.89372 0
      vertex -0.376742 5.98816 0
    endloop
  endfacet
  facet normal 0 0 -1
    outer loop
      vertex -1.8541 5.70634 0
      vertex -1.0043 3.09093 0
      vertex -1.38378 2.94069 0
    endloop
  endfacet
  facet normal 0 0 -1
    outer loop
      vertex -2.55468 5.42896 0
      vertex -1.38378 2.94069 0
      vertex -1.74144 2.74407 0
    endloop
  endfacet
  facet normal 0 0 -1
    outer loop
      vertex -1.0043 3.09093 0
      vertex -1.8541 5.70634 0
      vertex -1.12429 5.89372 0
    endloop
  endfacet
  facet normal 0 0 -1
    outer loop
      vertex -3.21496 5.06597 0
      vertex -1.74144 2.74407 0
      vertex -2.07163 2.50417 0
    endloop
  endfacet
  facet normal 0 0 -1
    outer loop
      vertex -3.82454 4.62308 0
      vertex -2.07163 2.50417 0
      vertex -2.36915 2.22478 0
    endloop
  endfacet
  facet normal 0 0 -1
    outer loop
      vertex -1.38378 2.94069 0
      vertex -2.55468 5.42896 0
      vertex -1.8541 5.70634 0
    endloop
  endfacet
  facet normal 0 0 -1
    outer loop
      vertex -4.37381 4.10728 0
      vertex -2.36915 2.22478 0
      vertex -2.6293 1.9103 0
    endloop
  endfacet
  facet normal 0 0 -1
    outer loop
      vertex -4.8541 3.52671 0
      vertex -2.6293 1.9103 0
      vertex -2.848 1.5657 0
    endloop
  endfacet
  facet normal 0 0 -1
    outer loop
      vertex -5.25784 2.89052 0
      vertex -2.848 1.5657 0
      vertex -3.02177 1.1964 0
    endloop
  endfacet
  facet normal 0 0 -1
    outer loop
      vertex -5.57866 2.20875 0
      vertex -3.02177 1.1964 0
      vertex -3.14789 0.808242 0
    endloop
  endfacet
  facet normal 0 0 -1
    outer loop
      vertex -1.74144 2.74407 0
      vertex -3.21496 5.06597 0
      vertex -2.55468 5.42896 0
    endloop
  endfacet
  facet normal 0 0 -1
    outer loop
      vertex -5.8115 1.49214 0
      vertex -3.14789 0.808242 0
      vertex -3.22437 0.407332 0
    endloop
  endfacet
  facet normal 0 0 -1
    outer loop
      vertex -5.95269 0.751999 0
      vertex -3.22437 0.407332 0
      vertex -3.25 0 0
    endloop
  endfacet
  facet normal 0 0 -1
    outer loop
      vertex -5.57866 -2.20875 0
      vertex -3.02177 -1.1964 0
      vertex -5.25784 -2.89052 0
    endloop
  endfacet
  facet normal 0 0 -1
    outer loop
      vertex -2.07163 2.50417 0
      vertex -3.82454 4.62308 0
      vertex -3.21496 5.06597 0
    endloop
  endfacet
  facet normal -0 0 -1
    outer loop
      vertex -3.02177 -1.1964 0
      vertex -5.57866 -2.20875 0
      vertex -3.14789 -0.808242 0
    endloop
  endfacet
  facet normal 0 0 -1
    outer loop
      vertex -2.36915 2.22478 0
      vertex -4.37381 4.10728 0
      vertex -3.82454 4.62308 0
    endloop
  endfacet
  facet normal 0 0 -1
    outer loop
      vertex -5.8115 -1.49214 0
      vertex -3.14789 -0.808242 0
      vertex -5.57866 -2.20875 0
    endloop
  endfacet
  facet normal 0 0 -1
    outer loop
      vertex -2.6293 1.9103 0
      vertex -4.8541 3.52671 0
      vertex -4.37381 4.10728 0
    endloop
  endfacet
  facet normal -0 0 -1
    outer loop
      vertex -3.14789 -0.808242 0
      vertex -5.8115 -1.49214 0
      vertex -3.22437 -0.407332 0
    endloop
  endfacet
  facet normal 0 0 -1
    outer loop
      vertex -2.848 1.5657 0
      vertex -5.25784 2.89052 0
      vertex -4.8541 3.52671 0
    endloop
  endfacet
  facet normal 0 0 -1
    outer loop
      vertex -5.95269 -0.751999 0
      vertex -3.22437 -0.407332 0
      vertex -5.8115 -1.49214 0
    endloop
  endfacet
  facet normal 0 0 -1
    outer loop
      vertex -3.02177 1.1964 0
      vertex -5.57866 2.20875 0
      vertex -5.25784 2.89052 0
    endloop
  endfacet
  facet normal -0 0 -1
    outer loop
      vertex -3.22437 -0.407332 0
      vertex -5.95269 -0.751999 0
      vertex -3.25 0 0
    endloop
  endfacet
  facet normal 0 0 -1
    outer loop
      vertex -3.14789 0.808242 0
      vertex -5.8115 1.49214 0
      vertex -5.57866 2.20875 0
    endloop
  endfacet
  facet normal 0 0 -1
    outer loop
      vertex -6 0 0
      vertex -3.25 0 0
      vertex -5.95269 -0.751999 0
    endloop
  endfacet
  facet normal 0 0 -1
    outer loop
      vertex -3.22437 0.407332 0
      vertex -5.95269 0.751999 0
      vertex -5.8115 1.49214 0
    endloop
  endfacet
  facet normal 0 0 -1
    outer loop
      vertex -3.25 0 0
      vertex -6 0 0
      vertex -5.95269 0.751999 0
    endloop
  endfacet
  facet normal 0.998027 0.0627882 0
    outer loop
      vertex 6 0 3
      vertex 5.95269 0.751999 0
      vertex 5.95269 0.751999 3
    endloop
  endfacet
  facet normal 0.998027 0.0627882 0
    outer loop
      vertex 5.95269 0.751999 0
      vertex 6 0 3
      vertex 6 0 0
    endloop
  endfacet
  facet normal 0.587789 0.809014 -0
    outer loop
      vertex 3.82454 4.62308 0
      vertex 3.21496 5.06597 3
      vertex 3.82454 4.62308 3
    endloop
  endfacet
  facet normal 0.587789 0.809014 0
    outer loop
      vertex 3.21496 5.06597 3
      vertex 3.82454 4.62308 0
      vertex 3.21496 5.06597 0
    endloop
  endfacet
  facet normal -0.587789 -0.809014 0
    outer loop
      vertex -3.82454 -4.62308 0
      vertex -3.21496 -5.06597 3
      vertex -3.82454 -4.62308 3
    endloop
  endfacet
  facet normal -0.587789 -0.809014 -0
    outer loop
      vertex -3.21496 -5.06597 3
      vertex -3.82454 -4.62308 0
      vertex -3.21496 -5.06597 0
    endloop
  endfacet
  facet normal 0.951057 -0.309016 0
    outer loop
      vertex 5.57866 -2.20875 3
      vertex 5.8115 -1.49214 0
      vertex 5.8115 -1.49214 3
    endloop
  endfacet
  facet normal 0.951057 -0.309016 0
    outer loop
      vertex 5.8115 -1.49214 0
      vertex 5.57866 -2.20875 3
      vertex 5.57866 -2.20875 0
    endloop
  endfacet
  facet normal -0.248686 0.968584 0
    outer loop
      vertex -1.12429 5.89372 0
      vertex -1.8541 5.70634 3
      vertex -1.12429 5.89372 3
    endloop
  endfacet
  facet normal -0.248686 0.968584 0
    outer loop
      vertex -1.8541 5.70634 3
      vertex -1.12429 5.89372 0
      vertex -1.8541 5.70634 0
    endloop
  endfacet
  facet normal -0.998027 -0.0627882 0
    outer loop
      vertex -5.95269 -0.751999 0
      vertex -6 0 3
      vertex -6 0 0
    endloop
  endfacet
  facet normal -0.998027 -0.0627882 0
    outer loop
      vertex -6 0 3
      vertex -5.95269 -0.751999 0
      vertex -5.95269 -0.751999 3
    endloop
  endfacet
  facet normal 0.844327 0.535828 0
    outer loop
      vertex 5.25784 2.89052 3
      vertex 4.8541 3.52671 0
      vertex 4.8541 3.52671 3
    endloop
  endfacet
  facet normal 0.844327 0.535828 0
    outer loop
      vertex 4.8541 3.52671 0
      vertex 5.25784 2.89052 3
      vertex 5.25784 2.89052 0
    endloop
  endfacet
  facet normal 0.982287 -0.187382 0
    outer loop
      vertex 5.8115 -1.49214 3
      vertex 5.95269 -0.751999 0
      vertex 5.95269 -0.751999 3
    endloop
  endfacet
  facet normal 0.982287 -0.187382 0
    outer loop
      vertex 5.95269 -0.751999 0
      vertex 5.8115 -1.49214 3
      vertex 5.8115 -1.49214 0
    endloop
  endfacet
  facet normal -0.982287 -0.187382 0
    outer loop
      vertex -5.8115 -1.49214 0
      vertex -5.95269 -0.751999 3
      vertex -5.95269 -0.751999 0
    endloop
  endfacet
  facet normal -0.982287 -0.187382 0
    outer loop
      vertex -5.95269 -0.751999 3
      vertex -5.8115 -1.49214 0
      vertex -5.8115 -1.49214 3
    endloop
  endfacet
  facet normal -0.248686 -0.968584 0
    outer loop
      vertex -1.8541 -5.70634 0
      vertex -1.12429 -5.89372 3
      vertex -1.8541 -5.70634 3
    endloop
  endfacet
  facet normal -0.248686 -0.968584 -0
    outer loop
      vertex -1.12429 -5.89372 3
      vertex -1.8541 -5.70634 0
      vertex -1.12429 -5.89372 0
    endloop
  endfacet
  facet normal -0.125337 -0.992114 0
    outer loop
      vertex -1.12429 -5.89372 0
      vertex -0.376742 -5.98816 3
      vertex -1.12429 -5.89372 3
    endloop
  endfacet
  facet normal -0.125337 -0.992114 -0
    outer loop
      vertex -0.376742 -5.98816 3
      vertex -1.12429 -5.89372 0
      vertex -0.376742 -5.98816 0
    endloop
  endfacet
  facet normal 0.125337 -0.992114 0
    outer loop
      vertex 0.376742 -5.98816 0
      vertex 1.12429 -5.89372 3
      vertex 0.376742 -5.98816 3
    endloop
  endfacet
  facet normal 0.125337 -0.992114 0
    outer loop
      vertex 1.12429 -5.89372 3
      vertex 0.376742 -5.98816 0
      vertex 1.12429 -5.89372 0
    endloop
  endfacet
  facet normal 0.770513 -0.637425 0
    outer loop
      vertex 4.37381 -4.10728 3
      vertex 4.8541 -3.52671 0
      vertex 4.8541 -3.52671 3
    endloop
  endfacet
  facet normal 0.770513 -0.637425 0
    outer loop
      vertex 4.8541 -3.52671 0
      vertex 4.37381 -4.10728 3
      vertex 4.37381 -4.10728 0
    endloop
  endfacet
  facet normal -0.481752 0.876308 0
    outer loop
      vertex -2.55468 5.42896 0
      vertex -3.21496 5.06597 3
      vertex -2.55468 5.42896 3
    endloop
  endfacet
  facet normal -0.481752 0.876308 0
    outer loop
      vertex -3.21496 5.06597 3
      vertex -2.55468 5.42896 0
      vertex -3.21496 5.06597 0
    endloop
  endfacet
  facet normal -0.587789 0.809014 0
    outer loop
      vertex -3.21496 5.06597 0
      vertex -3.82454 4.62308 3
      vertex -3.21496 5.06597 3
    endloop
  endfacet
  facet normal -0.587789 0.809014 0
    outer loop
      vertex -3.82454 4.62308 3
      vertex -3.21496 5.06597 0
      vertex -3.82454 4.62308 0
    endloop
  endfacet
  facet normal -0.844327 0.535828 0
    outer loop
      vertex -5.25784 2.89052 0
      vertex -4.8541 3.52671 3
      vertex -4.8541 3.52671 0
    endloop
  endfacet
  facet normal -0.844327 0.535828 0
    outer loop
      vertex -4.8541 3.52671 3
      vertex -5.25784 2.89052 0
      vertex -5.25784 2.89052 3
    endloop
  endfacet
  facet normal -0.951057 0.309016 0
    outer loop
      vertex -5.8115 1.49214 0
      vertex -5.57866 2.20875 3
      vertex -5.57866 2.20875 0
    endloop
  endfacet
  facet normal -0.951057 0.309016 0
    outer loop
      vertex -5.57866 2.20875 3
      vertex -5.8115 1.49214 0
      vertex -5.8115 1.49214 3
    endloop
  endfacet
  facet normal 0.904825 0.425783 0
    outer loop
      vertex 5.57866 2.20875 3
      vertex 5.25784 2.89052 0
      vertex 5.25784 2.89052 3
    endloop
  endfacet
  facet normal 0.904825 0.425783 0
    outer loop
      vertex 5.25784 2.89052 0
      vertex 5.57866 2.20875 3
      vertex 5.57866 2.20875 0
    endloop
  endfacet
  facet normal 0.248686 0.968584 -0
    outer loop
      vertex 1.8541 5.70634 0
      vertex 1.12429 5.89372 3
      vertex 1.8541 5.70634 3
    endloop
  endfacet
  facet normal 0.248686 0.968584 0
    outer loop
      vertex 1.12429 5.89372 3
      vertex 1.8541 5.70634 0
      vertex 1.12429 5.89372 0
    endloop
  endfacet
  facet normal 0.481752 0.876308 -0
    outer loop
      vertex 3.21496 5.06597 0
      vertex 2.55468 5.42896 3
      vertex 3.21496 5.06597 3
    endloop
  endfacet
  facet normal 0.481752 0.876308 0
    outer loop
      vertex 2.55468 5.42896 3
      vertex 3.21496 5.06597 0
      vertex 2.55468 5.42896 0
    endloop
  endfacet
  facet normal -0.125337 0.992114 0
    outer loop
      vertex -0.376742 5.98816 0
      vertex -1.12429 5.89372 3
      vertex -0.376742 5.98816 3
    endloop
  endfacet
  facet normal -0.125337 0.992114 0
    outer loop
      vertex -1.12429 5.89372 3
      vertex -0.376742 5.98816 0
      vertex -1.12429 5.89372 0
    endloop
  endfacet
  facet normal 0.998027 -0.0627882 0
    outer loop
      vertex 5.95269 -0.751999 3
      vertex 6 0 0
      vertex 6 0 3
    endloop
  endfacet
  facet normal 0.998027 -0.0627882 0
    outer loop
      vertex 6 0 0
      vertex 5.95269 -0.751999 3
      vertex 5.95269 -0.751999 0
    endloop
  endfacet
  facet normal -0.951057 -0.309016 0
    outer loop
      vertex -5.57866 -2.20875 0
      vertex -5.8115 -1.49214 3
      vertex -5.8115 -1.49214 0
    endloop
  endfacet
  facet normal -0.951057 -0.309016 0
    outer loop
      vertex -5.8115 -1.49214 3
      vertex -5.57866 -2.20875 0
      vertex -5.57866 -2.20875 3
    endloop
  endfacet
  facet normal -0.684548 -0.728968 0
    outer loop
      vertex -4.37381 -4.10728 0
      vertex -3.82454 -4.62308 3
      vertex -4.37381 -4.10728 3
    endloop
  endfacet
  facet normal -0.684548 -0.728968 -0
    outer loop
      vertex -3.82454 -4.62308 3
      vertex -4.37381 -4.10728 0
      vertex -3.82454 -4.62308 0
    endloop
  endfacet
  facet normal -0.368125 -0.929776 0
    outer loop
      vertex -2.55468 -5.42896 0
      vertex -1.8541 -5.70634 3
      vertex -2.55468 -5.42896 3
    endloop
  endfacet
  facet normal -0.368125 -0.929776 -0
    outer loop
      vertex -1.8541 -5.70634 3
      vertex -2.55468 -5.42896 0
      vertex -1.8541 -5.70634 0
    endloop
  endfacet
  facet normal 0.248686 -0.968584 0
    outer loop
      vertex 1.12429 -5.89372 0
      vertex 1.8541 -5.70634 3
      vertex 1.12429 -5.89372 3
    endloop
  endfacet
  facet normal 0.248686 -0.968584 0
    outer loop
      vertex 1.8541 -5.70634 3
      vertex 1.12429 -5.89372 0
      vertex 1.8541 -5.70634 0
    endloop
  endfacet
  facet normal 0.684548 -0.728968 0
    outer loop
      vertex 3.82454 -4.62308 0
      vertex 4.37381 -4.10728 3
      vertex 3.82454 -4.62308 3
    endloop
  endfacet
  facet normal 0.684548 -0.728968 0
    outer loop
      vertex 4.37381 -4.10728 3
      vertex 3.82454 -4.62308 0
      vertex 4.37381 -4.10728 0
    endloop
  endfacet
  facet normal 0.481752 -0.876308 0
    outer loop
      vertex 2.55468 -5.42896 0
      vertex 3.21496 -5.06597 3
      vertex 2.55468 -5.42896 3
    endloop
  endfacet
  facet normal 0.481752 -0.876308 0
    outer loop
      vertex 3.21496 -5.06597 3
      vertex 2.55468 -5.42896 0
      vertex 3.21496 -5.06597 0
    endloop
  endfacet
  facet normal 0.904825 -0.425783 0
    outer loop
      vertex 5.25784 -2.89052 3
      vertex 5.57866 -2.20875 0
      vertex 5.57866 -2.20875 3
    endloop
  endfacet
  facet normal 0.904825 -0.425783 0
    outer loop
      vertex 5.57866 -2.20875 0
      vertex 5.25784 -2.89052 3
      vertex 5.25784 -2.89052 0
    endloop
  endfacet
  facet normal -0.368125 0.929776 0
    outer loop
      vertex -1.8541 5.70634 0
      vertex -2.55468 5.42896 3
      vertex -1.8541 5.70634 3
    endloop
  endfacet
  facet normal -0.368125 0.929776 0
    outer loop
      vertex -2.55468 5.42896 3
      vertex -1.8541 5.70634 0
      vertex -2.55468 5.42896 0
    endloop
  endfacet
  facet normal -0.770513 0.637425 0
    outer loop
      vertex -4.8541 3.52671 0
      vertex -4.37381 4.10728 3
      vertex -4.37381 4.10728 0
    endloop
  endfacet
  facet normal -0.770513 0.637425 0
    outer loop
      vertex -4.37381 4.10728 3
      vertex -4.8541 3.52671 0
      vertex -4.8541 3.52671 3
    endloop
  endfacet
  facet normal -0.684548 0.728968 0
    outer loop
      vertex -3.82454 4.62308 0
      vertex -4.37381 4.10728 3
      vertex -3.82454 4.62308 3
    endloop
  endfacet
  facet normal -0.684548 0.728968 0
    outer loop
      vertex -4.37381 4.10728 3
      vertex -3.82454 4.62308 0
      vertex -4.37381 4.10728 0
    endloop
  endfacet
  facet normal -0.982287 0.187382 0
    outer loop
      vertex -5.95269 0.751999 0
      vertex -5.8115 1.49214 3
      vertex -5.8115 1.49214 0
    endloop
  endfacet
  facet normal -0.982287 0.187382 0
    outer loop
      vertex -5.8115 1.49214 3
      vertex -5.95269 0.751999 0
      vertex -5.95269 0.751999 3
    endloop
  endfacet
  facet normal -0.998027 0.0627882 0
    outer loop
      vertex -6 0 0
      vertex -5.95269 0.751999 3
      vertex -5.95269 0.751999 0
    endloop
  endfacet
  facet normal -0.998027 0.0627882 0
    outer loop
      vertex -5.95269 0.751999 3
      vertex -6 0 0
      vertex -6 0 3
    endloop
  endfacet
  facet normal -0.904825 0.425783 0
    outer loop
      vertex -5.57866 2.20875 0
      vertex -5.25784 2.89052 3
      vertex -5.25784 2.89052 0
    endloop
  endfacet
  facet normal -0.904825 0.425783 0
    outer loop
      vertex -5.25784 2.89052 3
      vertex -5.57866 2.20875 0
      vertex -5.57866 2.20875 3
    endloop
  endfacet
  facet normal 0.770513 0.637425 0
    outer loop
      vertex 4.8541 3.52671 3
      vertex 4.37381 4.10728 0
      vertex 4.37381 4.10728 3
    endloop
  endfacet
  facet normal 0.770513 0.637425 0
    outer loop
      vertex 4.37381 4.10728 0
      vertex 4.8541 3.52671 3
      vertex 4.8541 3.52671 0
    endloop
  endfacet
  facet normal 0.684548 0.728968 -0
    outer loop
      vertex 4.37381 4.10728 0
      vertex 3.82454 4.62308 3
      vertex 4.37381 4.10728 3
    endloop
  endfacet
  facet normal 0.684548 0.728968 0
    outer loop
      vertex 3.82454 4.62308 3
      vertex 4.37381 4.10728 0
      vertex 3.82454 4.62308 0
    endloop
  endfacet
  facet normal 0.951057 0.309016 0
    outer loop
      vertex 5.8115 1.49214 3
      vertex 5.57866 2.20875 0
      vertex 5.57866 2.20875 3
    endloop
  endfacet
  facet normal 0.951057 0.309016 0
    outer loop
      vertex 5.57866 2.20875 0
      vertex 5.8115 1.49214 3
      vertex 5.8115 1.49214 0
    endloop
  endfacet
  facet normal 0.368125 0.929776 -0
    outer loop
      vertex 2.55468 5.42896 0
      vertex 1.8541 5.70634 3
      vertex 2.55468 5.42896 3
    endloop
  endfacet
  facet normal 0.368125 0.929776 0
    outer loop
      vertex 1.8541 5.70634 3
      vertex 2.55468 5.42896 0
      vertex 1.8541 5.70634 0
    endloop
  endfacet
  facet normal -0.844327 -0.535828 0
    outer loop
      vertex -4.8541 -3.52671 0
      vertex -5.25784 -2.89052 3
      vertex -5.25784 -2.89052 0
    endloop
  endfacet
  facet normal -0.844327 -0.535828 0
    outer loop
      vertex -5.25784 -2.89052 3
      vertex -4.8541 -3.52671 0
      vertex -4.8541 -3.52671 3
    endloop
  endfacet
  facet normal -0.481752 -0.876308 0
    outer loop
      vertex -3.21496 -5.06597 0
      vertex -2.55468 -5.42896 3
      vertex -3.21496 -5.06597 3
    endloop
  endfacet
  facet normal -0.481752 -0.876308 -0
    outer loop
      vertex -2.55468 -5.42896 3
      vertex -3.21496 -5.06597 0
      vertex -2.55468 -5.42896 0
    endloop
  endfacet
  facet normal 0 -1 0
    outer loop
      vertex -0.376742 -5.98816 0
      vertex 0.376742 -5.98816 3
      vertex -0.376742 -5.98816 3
    endloop
  endfacet
  facet normal 0 -1 -0
    outer loop
      vertex 0.376742 -5.98816 3
      vertex -0.376742 -5.98816 0
      vertex 0.376742 -5.98816 0
    endloop
  endfacet
  facet normal 0.368125 -0.929776 0
    outer loop
      vertex 1.8541 -5.70634 0
      vertex 2.55468 -5.42896 3
      vertex 1.8541 -5.70634 3
    endloop
  endfacet
  facet normal 0.368125 -0.929776 0
    outer loop
      vertex 2.55468 -5.42896 3
      vertex 1.8541 -5.70634 0
      vertex 2.55468 -5.42896 0
    endloop
  endfacet
  facet normal 0.587789 -0.809014 0
    outer loop
      vertex 3.21496 -5.06597 0
      vertex 3.82454 -4.62308 3
      vertex 3.21496 -5.06597 3
    endloop
  endfacet
  facet normal 0.587789 -0.809014 0
    outer loop
      vertex 3.82454 -4.62308 3
      vertex 3.21496 -5.06597 0
      vertex 3.82454 -4.62308 0
    endloop
  endfacet
  facet normal 0.844327 -0.535828 0
    outer loop
      vertex 4.8541 -3.52671 3
      vertex 5.25784 -2.89052 0
      vertex 5.25784 -2.89052 3
    endloop
  endfacet
  facet normal 0.844327 -0.535828 0
    outer loop
      vertex 5.25784 -2.89052 0
      vertex 4.8541 -3.52671 3
      vertex 4.8541 -3.52671 0
    endloop
  endfacet
  facet normal 0 0 1
    outer loop
      vertex 3.25 0 3
      vertex 6 0 3
      vertex 5.95269 0.751999 3
    endloop
  endfacet
  facet normal 0 0 1
    outer loop
      vertex 3.22437 0.407332 3
      vertex 5.95269 0.751999 3
      vertex 5.8115 1.49214 3
    endloop
  endfacet
  facet normal 0 0 1
    outer loop
      vertex 6 0 3
      vertex 3.25 0 3
      vertex 5.95269 -0.751999 3
    endloop
  endfacet
  facet normal 0 0 1
    outer loop
      vertex 3.14789 0.808242 3
      vertex 5.8115 1.49214 3
      vertex 5.57866 2.20875 3
    endloop
  endfacet
  facet normal -0 0 1
    outer loop
      vertex 3.22437 -0.407332 3
      vertex 5.95269 -0.751999 3
      vertex 3.25 0 3
    endloop
  endfacet
  facet normal 0 0 1
    outer loop
      vertex 3.02177 1.1964 3
      vertex 5.57866 2.20875 3
      vertex 5.25784 2.89052 3
    endloop
  endfacet
  facet normal 0 0 1
    outer loop
      vertex 5.95269 -0.751999 3
      vertex 3.22437 -0.407332 3
      vertex 5.8115 -1.49214 3
    endloop
  endfacet
  facet normal 0 0 1
    outer loop
      vertex 2.848 1.5657 3
      vertex 5.25784 2.89052 3
      vertex 4.8541 3.52671 3
    endloop
  endfacet
  facet normal -0 0 1
    outer loop
      vertex 3.14789 -0.808242 3
      vertex 5.8115 -1.49214 3
      vertex 3.22437 -0.407332 3
    endloop
  endfacet
  facet normal 0 0 1
    outer loop
      vertex 2.6293 1.9103 3
      vertex 4.8541 3.52671 3
      vertex 4.37381 4.10728 3
    endloop
  endfacet
  facet normal 0 0 1
    outer loop
      vertex 5.8115 -1.49214 3
      vertex 3.14789 -0.808242 3
      vertex 5.57866 -2.20875 3
    endloop
  endfacet
  facet normal 0 0 1
    outer loop
      vertex 2.36915 2.22478 3
      vertex 4.37381 4.10728 3
      vertex 3.82454 4.62308 3
    endloop
  endfacet
  facet normal -0 0 1
    outer loop
      vertex 3.02177 -1.1964 3
      vertex 5.57866 -2.20875 3
      vertex 3.14789 -0.808242 3
    endloop
  endfacet
  facet normal 0 0 1
    outer loop
      vertex 5.57866 -2.20875 3
      vertex 3.02177 -1.1964 3
      vertex 5.25784 -2.89052 3
    endloop
  endfacet
  facet normal 0 0 1
    outer loop
      vertex 5.95269 0.751999 3
      vertex 3.22437 0.407332 3
      vertex 3.25 0 3
    endloop
  endfacet
  facet normal 0 0 1
    outer loop
      vertex 2.07163 2.50417 3
      vertex 3.82454 4.62308 3
      vertex 3.21496 5.06597 3
    endloop
  endfacet
  facet normal 0 0 1
    outer loop
      vertex 5.8115 1.49214 3
      vertex 3.14789 0.808242 3
      vertex 3.22437 0.407332 3
    endloop
  endfacet
  facet normal 0 0 1
    outer loop
      vertex 5.57866 2.20875 3
      vertex 3.02177 1.1964 3
      vertex 3.14789 0.808242 3
    endloop
  endfacet
  facet normal 0 0 1
    outer loop
      vertex 5.25784 2.89052 3
      vertex 2.848 1.5657 3
      vertex 3.02177 1.1964 3
    endloop
  endfacet
  facet normal 0 0 1
    outer loop
      vertex 4.8541 3.52671 3
      vertex 2.6293 1.9103 3
      vertex 2.848 1.5657 3
    endloop
  endfacet
  facet normal 0 0 1
    outer loop
      vertex 1.74144 2.74407 3
      vertex 3.21496 5.06597 3
      vertex 2.55468 5.42896 3
    endloop
  endfacet
  facet normal 0 0 1
    outer loop
      vertex 4.37381 4.10728 3
      vertex 2.36915 2.22478 3
      vertex 2.6293 1.9103 3
    endloop
  endfacet
  facet normal 0 0 1
    outer loop
      vertex 3.82454 4.62308 3
      vertex 2.07163 2.50417 3
      vertex 2.36915 2.22478 3
    endloop
  endfacet
  facet normal 0 0 1
    outer loop
      vertex 1.38378 2.94069 3
      vertex 2.55468 5.42896 3
      vertex 1.8541 5.70634 3
    endloop
  endfacet
  facet normal 0 0 1
    outer loop
      vertex 3.21496 5.06597 3
      vertex 1.74144 2.74407 3
      vertex 2.07163 2.50417 3
    endloop
  endfacet
  facet normal 0 0 1
    outer loop
      vertex 2.55468 5.42896 3
      vertex 1.38378 2.94069 3
      vertex 1.74144 2.74407 3
    endloop
  endfacet
  facet normal 0 0 1
    outer loop
      vertex 1.0043 3.09093 3
      vertex 1.8541 5.70634 3
      vertex 1.12429 5.89372 3
    endloop
  endfacet
  facet normal 0 0 1
    outer loop
      vertex 1.8541 5.70634 3
      vertex 1.0043 3.09093 3
      vertex 1.38378 2.94069 3
    endloop
  endfacet
  facet normal 0 0 1
    outer loop
      vertex 1.12429 5.89372 3
      vertex 0.608989 3.19243 3
      vertex 1.0043 3.09093 3
    endloop
  endfacet
  facet normal 0 0 1
    outer loop
      vertex 0.376742 5.98816 3
      vertex 0.608989 3.19243 3
      vertex 1.12429 5.89372 3
    endloop
  endfacet
  facet normal 0 0 1
    outer loop
      vertex 0.376742 5.98816 3
      vertex 0.204069 3.24359 3
      vertex 0.608989 3.19243 3
    endloop
  endfacet
  facet normal 0 0 1
    outer loop
      vertex 0.376742 5.98816 3
      vertex -0.204069 3.24359 3
      vertex 0.204069 3.24359 3
    endloop
  endfacet
  facet normal -0 0 1
    outer loop
      vertex -0.376742 5.98816 3
      vertex -0.204069 3.24359 3
      vertex 0.376742 5.98816 3
    endloop
  endfacet
  facet normal 0 0 1
    outer loop
      vertex -0.376742 5.98816 3
      vertex -0.608989 3.19243 3
      vertex -0.204069 3.24359 3
    endloop
  endfacet
  facet normal -0 0 1
    outer loop
      vertex -1.12429 5.89372 3
      vertex -0.608989 3.19243 3
      vertex -0.376742 5.98816 3
    endloop
  endfacet
  facet normal 0 0 1
    outer loop
      vertex -0.608989 3.19243 3
      vertex -1.12429 5.89372 3
      vertex -1.0043 3.09093 3
    endloop
  endfacet
  facet normal -0 0 1
    outer loop
      vertex -1.8541 5.70634 3
      vertex -1.0043 3.09093 3
      vertex -1.12429 5.89372 3
    endloop
  endfacet
  facet normal 0 0 1
    outer loop
      vertex -1.0043 3.09093 3
      vertex -1.8541 5.70634 3
      vertex -1.38378 2.94069 3
    endloop
  endfacet
  facet normal -0 0 1
    outer loop
      vertex -2.55468 5.42896 3
      vertex -1.38378 2.94069 3
      vertex -1.8541 5.70634 3
    endloop
  endfacet
  facet normal 0 0 1
    outer loop
      vertex -1.38378 2.94069 3
      vertex -2.55468 5.42896 3
      vertex -1.74144 2.74407 3
    endloop
  endfacet
  facet normal -0 0 1
    outer loop
      vertex -3.21496 5.06597 3
      vertex -1.74144 2.74407 3
      vertex -2.55468 5.42896 3
    endloop
  endfacet
  facet normal 0 0 1
    outer loop
      vertex -1.74144 2.74407 3
      vertex -3.21496 5.06597 3
      vertex -2.07163 2.50417 3
    endloop
  endfacet
  facet normal -0 0 1
    outer loop
      vertex -3.82454 4.62308 3
      vertex -2.07163 2.50417 3
      vertex -3.21496 5.06597 3
    endloop
  endfacet
  facet normal 0 0 1
    outer loop
      vertex -2.07163 2.50417 3
      vertex -3.82454 4.62308 3
      vertex -2.36915 2.22478 3
    endloop
  endfacet
  facet normal -0 0 1
    outer loop
      vertex -4.37381 4.10728 3
      vertex -2.36915 2.22478 3
      vertex -3.82454 4.62308 3
    endloop
  endfacet
  facet normal 0 0 1
    outer loop
      vertex -2.36915 2.22478 3
      vertex -4.37381 4.10728 3
      vertex -2.6293 1.9103 3
    endloop
  endfacet
  facet normal -0 0 1
    outer loop
      vertex -4.8541 3.52671 3
      vertex -2.6293 1.9103 3
      vertex -4.37381 4.10728 3
    endloop
  endfacet
  facet normal 0 0 1
    outer loop
      vertex -2.6293 1.9103 3
      vertex -4.8541 3.52671 3
      vertex -2.848 1.5657 3
    endloop
  endfacet
  facet normal -0 0 1
    outer loop
      vertex -5.25784 2.89052 3
      vertex -2.848 1.5657 3
      vertex -4.8541 3.52671 3
    endloop
  endfacet
  facet normal 0 0 1
    outer loop
      vertex -2.848 1.5657 3
      vertex -5.25784 2.89052 3
      vertex -3.02177 1.1964 3
    endloop
  endfacet
  facet normal -0 0 1
    outer loop
      vertex 2.848 -1.5657 3
      vertex 5.25784 -2.89052 3
      vertex 3.02177 -1.1964 3
    endloop
  endfacet
  facet normal 0 0 1
    outer loop
      vertex 5.25784 -2.89052 3
      vertex 2.848 -1.5657 3
      vertex 4.8541 -3.52671 3
    endloop
  endfacet
  facet normal -0 0 1
    outer loop
      vertex 2.6293 -1.9103 3
      vertex 4.8541 -3.52671 3
      vertex 2.848 -1.5657 3
    endloop
  endfacet
  facet normal 0 0 1
    outer loop
      vertex 4.8541 -3.52671 3
      vertex 2.6293 -1.9103 3
      vertex 4.37381 -4.10728 3
    endloop
  endfacet
  facet normal -0 0 1
    outer loop
      vertex 2.36915 -2.22478 3
      vertex 4.37381 -4.10728 3
      vertex 2.6293 -1.9103 3
    endloop
  endfacet
  facet normal 0 0 1
    outer loop
      vertex 4.37381 -4.10728 3
      vertex 2.36915 -2.22478 3
      vertex 3.82454 -4.62308 3
    endloop
  endfacet
  facet normal -0 0 1
    outer loop
      vertex 2.07163 -2.50417 3
      vertex 3.82454 -4.62308 3
      vertex 2.36915 -2.22478 3
    endloop
  endfacet
  facet normal 0 0 1
    outer loop
      vertex 3.82454 -4.62308 3
      vertex 2.07163 -2.50417 3
      vertex 3.21496 -5.06597 3
    endloop
  endfacet
  facet normal -0 0 1
    outer loop
      vertex 1.74144 -2.74407 3
      vertex 3.21496 -5.06597 3
      vertex 2.07163 -2.50417 3
    endloop
  endfacet
  facet normal 0 0 1
    outer loop
      vertex 3.21496 -5.06597 3
      vertex 1.74144 -2.74407 3
      vertex 2.55468 -5.42896 3
    endloop
  endfacet
  facet normal -0 0 1
    outer loop
      vertex 1.38378 -2.94069 3
      vertex 2.55468 -5.42896 3
      vertex 1.74144 -2.74407 3
    endloop
  endfacet
  facet normal 0 0 1
    outer loop
      vertex 2.55468 -5.42896 3
      vertex 1.38378 -2.94069 3
      vertex 1.8541 -5.70634 3
    endloop
  endfacet
  facet normal -0 0 1
    outer loop
      vertex 1.0043 -3.09093 3
      vertex 1.8541 -5.70634 3
      vertex 1.38378 -2.94069 3
    endloop
  endfacet
  facet normal 0 0 1
    outer loop
      vertex 1.8541 -5.70634 3
      vertex 1.0043 -3.09093 3
      vertex 1.12429 -5.89372 3
    endloop
  endfacet
  facet normal -0 0 1
    outer loop
      vertex 0.608989 -3.19243 3
      vertex 1.12429 -5.89372 3
      vertex 1.0043 -3.09093 3
    endloop
  endfacet
  facet normal 0 0 1
    outer loop
      vertex 0.608989 -3.19243 3
      vertex 0.376742 -5.98816 3
      vertex 1.12429 -5.89372 3
    endloop
  endfacet
  facet normal -0 0 1
    outer loop
      vertex 0.204069 -3.24359 3
      vertex 0.376742 -5.98816 3
      vertex 0.608989 -3.19243 3
    endloop
  endfacet
  facet normal -0 0 1
    outer loop
      vertex -0.204069 -3.24359 3
      vertex 0.376742 -5.98816 3
      vertex 0.204069 -3.24359 3
    endloop
  endfacet
  facet normal 0 0 1
    outer loop
      vertex -0.204069 -3.24359 3
      vertex -0.376742 -5.98816 3
      vertex 0.376742 -5.98816 3
    endloop
  endfacet
  facet normal 0 0 1
    outer loop
      vertex -0.608989 -3.19243 3
      vertex -0.376742 -5.98816 3
      vertex -0.204069 -3.24359 3
    endloop
  endfacet
  facet normal 0 0 1
    outer loop
      vertex -1.12429 -5.89372 3
      vertex -0.608989 -3.19243 3
      vertex -1.0043 -3.09093 3
    endloop
  endfacet
  facet normal 0 0 1
    outer loop
      vertex -0.608989 -3.19243 3
      vertex -1.12429 -5.89372 3
      vertex -0.376742 -5.98816 3
    endloop
  endfacet
  facet normal 0 0 1
    outer loop
      vertex -1.8541 -5.70634 3
      vertex -1.0043 -3.09093 3
      vertex -1.38378 -2.94069 3
    endloop
  endfacet
  facet normal 0 0 1
    outer loop
      vertex -2.55468 -5.42896 3
      vertex -1.38378 -2.94069 3
      vertex -1.74144 -2.74407 3
    endloop
  endfacet
  facet normal 0 0 1
    outer loop
      vertex -1.0043 -3.09093 3
      vertex -1.8541 -5.70634 3
      vertex -1.12429 -5.89372 3
    endloop
  endfacet
  facet normal 0 0 1
    outer loop
      vertex -3.21496 -5.06597 3
      vertex -1.74144 -2.74407 3
      vertex -2.07163 -2.50417 3
    endloop
  endfacet
  facet normal 0 0 1
    outer loop
      vertex -3.82454 -4.62308 3
      vertex -2.07163 -2.50417 3
      vertex -2.36915 -2.22478 3
    endloop
  endfacet
  facet normal 0 0 1
    outer loop
      vertex -1.38378 -2.94069 3
      vertex -2.55468 -5.42896 3
      vertex -1.8541 -5.70634 3
    endloop
  endfacet
  facet normal 0 0 1
    outer loop
      vertex -4.37381 -4.10728 3
      vertex -2.36915 -2.22478 3
      vertex -2.6293 -1.9103 3
    endloop
  endfacet
  facet normal 0 0 1
    outer loop
      vertex -4.8541 -3.52671 3
      vertex -2.6293 -1.9103 3
      vertex -2.848 -1.5657 3
    endloop
  endfacet
  facet normal 0 0 1
    outer loop
      vertex -5.25784 -2.89052 3
      vertex -2.848 -1.5657 3
      vertex -3.02177 -1.1964 3
    endloop
  endfacet
  facet normal 0 0 1
    outer loop
      vertex -5.57866 -2.20875 3
      vertex -3.02177 -1.1964 3
      vertex -3.14789 -0.808242 3
    endloop
  endfacet
  facet normal 0 0 1
    outer loop
      vertex -1.74144 -2.74407 3
      vertex -3.21496 -5.06597 3
      vertex -2.55468 -5.42896 3
    endloop
  endfacet
  facet normal 0 0 1
    outer loop
      vertex -5.8115 -1.49214 3
      vertex -3.14789 -0.808242 3
      vertex -3.22437 -0.407332 3
    endloop
  endfacet
  facet normal 0 0 1
    outer loop
      vertex -5.95269 -0.751999 3
      vertex -3.22437 -0.407332 3
      vertex -3.25 0 3
    endloop
  endfacet
  facet normal -0 0 1
    outer loop
      vertex -5.57866 2.20875 3
      vertex -3.02177 1.1964 3
      vertex -5.25784 2.89052 3
    endloop
  endfacet
  facet normal 0 0 1
    outer loop
      vertex -2.07163 -2.50417 3
      vertex -3.82454 -4.62308 3
      vertex -3.21496 -5.06597 3
    endloop
  endfacet
  facet normal 0 0 1
    outer loop
      vertex -3.02177 1.1964 3
      vertex -5.57866 2.20875 3
      vertex -3.14789 0.808242 3
    endloop
  endfacet
  facet normal 0 0 1
    outer loop
      vertex -2.36915 -2.22478 3
      vertex -4.37381 -4.10728 3
      vertex -3.82454 -4.62308 3
    endloop
  endfacet
  facet normal -0 0 1
    outer loop
      vertex -5.8115 1.49214 3
      vertex -3.14789 0.808242 3
      vertex -5.57866 2.20875 3
    endloop
  endfacet
  facet normal 0 0 1
    outer loop
      vertex -2.6293 -1.9103 3
      vertex -4.8541 -3.52671 3
      vertex -4.37381 -4.10728 3
    endloop
  endfacet
  facet normal 0 0 1
    outer loop
      vertex -3.14789 0.808242 3
      vertex -5.8115 1.49214 3
      vertex -3.22437 0.407332 3
    endloop
  endfacet
  facet normal 0 0 1
    outer loop
      vertex -2.848 -1.5657 3
      vertex -5.25784 -2.89052 3
      vertex -4.8541 -3.52671 3
    endloop
  endfacet
  facet normal -0 0 1
    outer loop
      vertex -5.95269 0.751999 3
      vertex -3.22437 0.407332 3
      vertex -5.8115 1.49214 3
    endloop
  endfacet
  facet normal 0 0 1
    outer loop
      vertex -3.02177 -1.1964 3
      vertex -5.57866 -2.20875 3
      vertex -5.25784 -2.89052 3
    endloop
  endfacet
  facet normal 0 0 1
    outer loop
      vertex -3.22437 0.407332 3
      vertex -5.95269 0.751999 3
      vertex -3.25 0 3
    endloop
  endfacet
  facet normal 0 0 1
    outer loop
      vertex -3.14789 -0.808242 3
      vertex -5.8115 -1.49214 3
      vertex -5.57866 -2.20875 3
    endloop
  endfacet
  facet normal 0 0 1
    outer loop
      vertex -6 0 3
      vertex -3.25 0 3
      vertex -5.95269 0.751999 3
    endloop
  endfacet
  facet normal 0 0 1
    outer loop
      vertex -3.22437 -0.407332 3
      vertex -5.95269 -0.751999 3
      vertex -5.8115 -1.49214 3
    endloop
  endfacet
  facet normal 0 0 1
    outer loop
      vertex -3.25 0 3
      vertex -6 0 3
      vertex -5.95269 -0.751999 3
    endloop
  endfacet
  facet normal 0 1 -0
    outer loop
      vertex 0.376742 5.98816 0
      vertex -0.376742 5.98816 3
      vertex 0.376742 5.98816 3
    endloop
  endfacet
  facet normal 0 1 0
    outer loop
      vertex -0.376742 5.98816 3
      vertex 0.376742 5.98816 0
      vertex -0.376742 5.98816 0
    endloop
  endfacet
  facet normal 0.125337 0.992114 -0
    outer loop
      vertex 1.12429 5.89372 0
      vertex 0.376742 5.98816 3
      vertex 1.12429 5.89372 3
    endloop
  endfacet
  facet normal 0.125337 0.992114 0
    outer loop
      vertex 0.376742 5.98816 3
      vertex 1.12429 5.89372 0
      vertex 0.376742 5.98816 0
    endloop
  endfacet
  facet normal -0.770513 -0.637425 0
    outer loop
      vertex -4.37381 -4.10728 0
      vertex -4.8541 -3.52671 3
      vertex -4.8541 -3.52671 0
    endloop
  endfacet
  facet normal -0.770513 -0.637425 0
    outer loop
      vertex -4.8541 -3.52671 3
      vertex -4.37381 -4.10728 0
      vertex -4.37381 -4.10728 3
    endloop
  endfacet
  facet normal -0.904825 -0.425783 0
    outer loop
      vertex -5.25784 -2.89052 0
      vertex -5.57866 -2.20875 3
      vertex -5.57866 -2.20875 0
    endloop
  endfacet
  facet normal -0.904825 -0.425783 0
    outer loop
      vertex -5.57866 -2.20875 3
      vertex -5.25784 -2.89052 0
      vertex -5.25784 -2.89052 3
    endloop
  endfacet
  facet normal -0.998026 0.0627975 0
    outer loop
      vertex 3.22437 -0.407332 0
      vertex 3.25 0 3
      vertex 3.25 0 0
    endloop
  endfacet
  facet normal -0.998026 0.0627975 0
    outer loop
      vertex 3.25 0 3
      vertex 3.22437 -0.407332 0
      vertex 3.22437 -0.407332 3
    endloop
  endfacet
  facet normal -0.998026 -0.0627975 0
    outer loop
      vertex 3.25 0 0
      vertex 3.22437 0.407332 3
      vertex 3.22437 0.407332 0
    endloop
  endfacet
  facet normal -0.998026 -0.0627975 0
    outer loop
      vertex 3.22437 0.407332 3
      vertex 3.25 0 0
      vertex 3.25 0 3
    endloop
  endfacet
  facet normal -0.951057 0.309017 0
    outer loop
      vertex 3.02177 -1.1964 0
      vertex 3.14789 -0.808242 3
      vertex 3.14789 -0.808242 0
    endloop
  endfacet
  facet normal -0.951057 0.309017 0
    outer loop
      vertex 3.14789 -0.808242 3
      vertex 3.02177 -1.1964 0
      vertex 3.02177 -1.1964 3
    endloop
  endfacet
  facet normal -0.951057 -0.309017 0
    outer loop
      vertex 3.14789 0.808242 0
      vertex 3.02177 1.1964 3
      vertex 3.02177 1.1964 0
    endloop
  endfacet
  facet normal -0.951057 -0.309017 0
    outer loop
      vertex 3.02177 1.1964 3
      vertex 3.14789 0.808242 0
      vertex 3.14789 0.808242 3
    endloop
  endfacet
  facet normal 0.904836 0.42576 0
    outer loop
      vertex -2.848 -1.5657 3
      vertex -3.02177 -1.1964 0
      vertex -3.02177 -1.1964 3
    endloop
  endfacet
  facet normal 0.904836 0.42576 0
    outer loop
      vertex -3.02177 -1.1964 0
      vertex -2.848 -1.5657 3
      vertex -2.848 -1.5657 0
    endloop
  endfacet
  facet normal -0.684547 0.728968 0
    outer loop
      vertex 2.36915 -2.22478 0
      vertex 2.07163 -2.50417 3
      vertex 2.36915 -2.22478 3
    endloop
  endfacet
  facet normal -0.684547 0.728968 0
    outer loop
      vertex 2.07163 -2.50417 3
      vertex 2.36915 -2.22478 0
      vertex 2.07163 -2.50417 0
    endloop
  endfacet
  facet normal -0.982286 0.187387 0
    outer loop
      vertex 3.14789 -0.808242 0
      vertex 3.22437 -0.407332 3
      vertex 3.22437 -0.407332 0
    endloop
  endfacet
  facet normal -0.982286 0.187387 0
    outer loop
      vertex 3.22437 -0.407332 3
      vertex 3.14789 -0.808242 0
      vertex 3.14789 -0.808242 3
    endloop
  endfacet
  facet normal 0.770526 0.637409 0
    outer loop
      vertex -2.36915 -2.22478 3
      vertex -2.6293 -1.9103 0
      vertex -2.6293 -1.9103 3
    endloop
  endfacet
  facet normal 0.770526 0.637409 0
    outer loop
      vertex -2.6293 -1.9103 0
      vertex -2.36915 -2.22478 3
      vertex -2.36915 -2.22478 0
    endloop
  endfacet
  facet normal -0.844317 0.535845 0
    outer loop
      vertex 2.6293 -1.9103 0
      vertex 2.848 -1.5657 3
      vertex 2.848 -1.5657 0
    endloop
  endfacet
  facet normal -0.844317 0.535845 0
    outer loop
      vertex 2.848 -1.5657 3
      vertex 2.6293 -1.9103 0
      vertex 2.6293 -1.9103 3
    endloop
  endfacet
  facet normal 0.684547 0.728968 -0
    outer loop
      vertex -2.07163 -2.50417 0
      vertex -2.36915 -2.22478 3
      vertex -2.07163 -2.50417 3
    endloop
  endfacet
  facet normal 0.684547 0.728968 0
    outer loop
      vertex -2.36915 -2.22478 3
      vertex -2.07163 -2.50417 0
      vertex -2.36915 -2.22478 0
    endloop
  endfacet
  facet normal -0.248693 0.968582 0
    outer loop
      vertex 1.0043 -3.09093 0
      vertex 0.608989 -3.19243 3
      vertex 1.0043 -3.09093 3
    endloop
  endfacet
  facet normal -0.248693 0.968582 0
    outer loop
      vertex 0.608989 -3.19243 3
      vertex 1.0043 -3.09093 0
      vertex 0.608989 -3.19243 0
    endloop
  endfacet
  facet normal 0.951057 -0.309017 0
    outer loop
      vertex -3.14789 0.808242 3
      vertex -3.02177 1.1964 0
      vertex -3.02177 1.1964 3
    endloop
  endfacet
  facet normal 0.951057 -0.309017 0
    outer loop
      vertex -3.02177 1.1964 0
      vertex -3.14789 0.808242 3
      vertex -3.14789 0.808242 0
    endloop
  endfacet
  facet normal -0.36811 -0.929782 0
    outer loop
      vertex 1.0043 3.09093 0
      vertex 1.38378 2.94069 3
      vertex 1.0043 3.09093 3
    endloop
  endfacet
  facet normal -0.36811 -0.929782 -0
    outer loop
      vertex 1.38378 2.94069 3
      vertex 1.0043 3.09093 0
      vertex 1.38378 2.94069 0
    endloop
  endfacet
  facet normal 0.248693 -0.968582 0
    outer loop
      vertex -1.0043 3.09093 0
      vertex -0.608989 3.19243 3
      vertex -1.0043 3.09093 3
    endloop
  endfacet
  facet normal 0.248693 -0.968582 0
    outer loop
      vertex -0.608989 3.19243 3
      vertex -1.0043 3.09093 0
      vertex -0.608989 3.19243 0
    endloop
  endfacet
  facet normal 0.998026 0.0627975 0
    outer loop
      vertex -3.22437 -0.407332 3
      vertex -3.25 0 0
      vertex -3.25 0 3
    endloop
  endfacet
  facet normal 0.998026 0.0627975 0
    outer loop
      vertex -3.25 0 0
      vertex -3.22437 -0.407332 3
      vertex -3.22437 -0.407332 0
    endloop
  endfacet
  facet normal -0.904836 0.42576 0
    outer loop
      vertex 2.848 -1.5657 0
      vertex 3.02177 -1.1964 3
      vertex 3.02177 -1.1964 0
    endloop
  endfacet
  facet normal -0.904836 0.42576 0
    outer loop
      vertex 3.02177 -1.1964 3
      vertex 2.848 -1.5657 0
      vertex 2.848 -1.5657 3
    endloop
  endfacet
  facet normal -0.36811 0.929782 0
    outer loop
      vertex 1.38378 -2.94069 0
      vertex 1.0043 -3.09093 3
      vertex 1.38378 -2.94069 3
    endloop
  endfacet
  facet normal -0.36811 0.929782 0
    outer loop
      vertex 1.0043 -3.09093 3
      vertex 1.38378 -2.94069 0
      vertex 1.0043 -3.09093 0
    endloop
  endfacet
  facet normal -0.58779 0.809014 0
    outer loop
      vertex 2.07163 -2.50417 0
      vertex 1.74144 -2.74407 3
      vertex 2.07163 -2.50417 3
    endloop
  endfacet
  facet normal -0.58779 0.809014 0
    outer loop
      vertex 1.74144 -2.74407 3
      vertex 2.07163 -2.50417 0
      vertex 1.74144 -2.74407 0
    endloop
  endfacet
  facet normal 0.125349 0.992113 -0
    outer loop
      vertex -0.204069 -3.24359 0
      vertex -0.608989 -3.19243 3
      vertex -0.204069 -3.24359 3
    endloop
  endfacet
  facet normal 0.125349 0.992113 0
    outer loop
      vertex -0.608989 -3.19243 3
      vertex -0.204069 -3.24359 0
      vertex -0.608989 -3.19243 0
    endloop
  endfacet
  facet normal 0 1 -0
    outer loop
      vertex 0.204069 -3.24359 0
      vertex -0.204069 -3.24359 3
      vertex 0.204069 -3.24359 3
    endloop
  endfacet
  facet normal 0 1 0
    outer loop
      vertex -0.204069 -3.24359 3
      vertex 0.204069 -3.24359 0
      vertex -0.204069 -3.24359 0
    endloop
  endfacet
  facet normal -0.125349 0.992113 0
    outer loop
      vertex 0.608989 -3.19243 0
      vertex 0.204069 -3.24359 3
      vertex 0.608989 -3.19243 3
    endloop
  endfacet
  facet normal -0.125349 0.992113 0
    outer loop
      vertex 0.204069 -3.24359 3
      vertex 0.608989 -3.19243 0
      vertex 0.204069 -3.24359 0
    endloop
  endfacet
  facet normal 0.998026 -0.0627975 0
    outer loop
      vertex -3.25 0 3
      vertex -3.22437 0.407332 0
      vertex -3.22437 0.407332 3
    endloop
  endfacet
  facet normal 0.998026 -0.0627975 0
    outer loop
      vertex -3.22437 0.407332 0
      vertex -3.25 0 3
      vertex -3.25 0 0
    endloop
  endfacet
  facet normal 0.982286 -0.187387 0
    outer loop
      vertex -3.22437 0.407332 3
      vertex -3.14789 0.808242 0
      vertex -3.14789 0.808242 3
    endloop
  endfacet
  facet normal 0.982286 -0.187387 0
    outer loop
      vertex -3.14789 0.808242 0
      vertex -3.22437 0.407332 3
      vertex -3.22437 0.407332 0
    endloop
  endfacet
  facet normal 0.770526 -0.637409 0
    outer loop
      vertex -2.6293 1.9103 3
      vertex -2.36915 2.22478 0
      vertex -2.36915 2.22478 3
    endloop
  endfacet
  facet normal 0.770526 -0.637409 0
    outer loop
      vertex -2.36915 2.22478 0
      vertex -2.6293 1.9103 3
      vertex -2.6293 1.9103 0
    endloop
  endfacet
  facet normal -0.248693 -0.968582 0
    outer loop
      vertex 0.608989 3.19243 0
      vertex 1.0043 3.09093 3
      vertex 0.608989 3.19243 3
    endloop
  endfacet
  facet normal -0.248693 -0.968582 -0
    outer loop
      vertex 1.0043 3.09093 3
      vertex 0.608989 3.19243 0
      vertex 1.0043 3.09093 0
    endloop
  endfacet
  facet normal 0.36811 -0.929782 0
    outer loop
      vertex -1.38378 2.94069 0
      vertex -1.0043 3.09093 3
      vertex -1.38378 2.94069 3
    endloop
  endfacet
  facet normal 0.36811 -0.929782 0
    outer loop
      vertex -1.0043 3.09093 3
      vertex -1.38378 2.94069 0
      vertex -1.0043 3.09093 0
    endloop
  endfacet
  facet normal 0.951057 0.309017 0
    outer loop
      vertex -3.02177 -1.1964 3
      vertex -3.14789 -0.808242 0
      vertex -3.14789 -0.808242 3
    endloop
  endfacet
  facet normal 0.951057 0.309017 0
    outer loop
      vertex -3.14789 -0.808242 0
      vertex -3.02177 -1.1964 3
      vertex -3.02177 -1.1964 0
    endloop
  endfacet
  facet normal 0.982286 0.187387 0
    outer loop
      vertex -3.14789 -0.808242 3
      vertex -3.22437 -0.407332 0
      vertex -3.22437 -0.407332 3
    endloop
  endfacet
  facet normal 0.982286 0.187387 0
    outer loop
      vertex -3.22437 -0.407332 0
      vertex -3.14789 -0.808242 3
      vertex -3.14789 -0.808242 0
    endloop
  endfacet
  facet normal 0.844317 0.535845 0
    outer loop
      vertex -2.6293 -1.9103 3
      vertex -2.848 -1.5657 0
      vertex -2.848 -1.5657 3
    endloop
  endfacet
  facet normal 0.844317 0.535845 0
    outer loop
      vertex -2.848 -1.5657 0
      vertex -2.6293 -1.9103 3
      vertex -2.6293 -1.9103 0
    endloop
  endfacet
  facet normal -0.481744 0.876312 0
    outer loop
      vertex 1.74144 -2.74407 0
      vertex 1.38378 -2.94069 3
      vertex 1.74144 -2.74407 3
    endloop
  endfacet
  facet normal -0.481744 0.876312 0
    outer loop
      vertex 1.38378 -2.94069 3
      vertex 1.74144 -2.74407 0
      vertex 1.38378 -2.94069 0
    endloop
  endfacet
  facet normal -0.770526 0.637409 0
    outer loop
      vertex 2.36915 -2.22478 0
      vertex 2.6293 -1.9103 3
      vertex 2.6293 -1.9103 0
    endloop
  endfacet
  facet normal -0.770526 0.637409 0
    outer loop
      vertex 2.6293 -1.9103 3
      vertex 2.36915 -2.22478 0
      vertex 2.36915 -2.22478 3
    endloop
  endfacet
  facet normal 0.36811 0.929782 -0
    outer loop
      vertex -1.0043 -3.09093 0
      vertex -1.38378 -2.94069 3
      vertex -1.0043 -3.09093 3
    endloop
  endfacet
  facet normal 0.36811 0.929782 0
    outer loop
      vertex -1.38378 -2.94069 3
      vertex -1.0043 -3.09093 0
      vertex -1.38378 -2.94069 0
    endloop
  endfacet
  facet normal 0.481744 0.876312 -0
    outer loop
      vertex -1.38378 -2.94069 0
      vertex -1.74144 -2.74407 3
      vertex -1.38378 -2.94069 3
    endloop
  endfacet
  facet normal 0.481744 0.876312 0
    outer loop
      vertex -1.74144 -2.74407 3
      vertex -1.38378 -2.94069 0
      vertex -1.74144 -2.74407 0
    endloop
  endfacet
  facet normal 0.248693 0.968582 -0
    outer loop
      vertex -0.608989 -3.19243 0
      vertex -1.0043 -3.09093 3
      vertex -0.608989 -3.19243 3
    endloop
  endfacet
  facet normal 0.248693 0.968582 0
    outer loop
      vertex -1.0043 -3.09093 3
      vertex -0.608989 -3.19243 0
      vertex -1.0043 -3.09093 0
    endloop
  endfacet
  facet normal 0.58779 0.809014 -0
    outer loop
      vertex -1.74144 -2.74407 0
      vertex -2.07163 -2.50417 3
      vertex -1.74144 -2.74407 3
    endloop
  endfacet
  facet normal 0.58779 0.809014 0
    outer loop
      vertex -2.07163 -2.50417 3
      vertex -1.74144 -2.74407 0
      vertex -2.07163 -2.50417 0
    endloop
  endfacet
  facet normal 0.904836 -0.42576 0
    outer loop
      vertex -3.02177 1.1964 3
      vertex -2.848 1.5657 0
      vertex -2.848 1.5657 3
    endloop
  endfacet
  facet normal 0.904836 -0.42576 0
    outer loop
      vertex -2.848 1.5657 0
      vertex -3.02177 1.1964 3
      vertex -3.02177 1.1964 0
    endloop
  endfacet
  facet normal 0.481744 -0.876312 0
    outer loop
      vertex -1.74144 2.74407 0
      vertex -1.38378 2.94069 3
      vertex -1.74144 2.74407 3
    endloop
  endfacet
  facet normal 0.481744 -0.876312 0
    outer loop
      vertex -1.38378 2.94069 3
      vertex -1.74144 2.74407 0
      vertex -1.38378 2.94069 0
    endloop
  endfacet
  facet normal 0.844317 -0.535845 0
    outer loop
      vertex -2.848 1.5657 3
      vertex -2.6293 1.9103 0
      vertex -2.6293 1.9103 3
    endloop
  endfacet
  facet normal 0.844317 -0.535845 0
    outer loop
      vertex -2.6293 1.9103 0
      vertex -2.848 1.5657 3
      vertex -2.848 1.5657 0
    endloop
  endfacet
  facet normal -0.982286 -0.187387 0
    outer loop
      vertex 3.22437 0.407332 0
      vertex 3.14789 0.808242 3
      vertex 3.14789 0.808242 0
    endloop
  endfacet
  facet normal -0.982286 -0.187387 0
    outer loop
      vertex 3.14789 0.808242 3
      vertex 3.22437 0.407332 0
      vertex 3.22437 0.407332 3
    endloop
  endfacet
  facet normal -0.58779 -0.809014 0
    outer loop
      vertex 1.74144 2.74407 0
      vertex 2.07163 2.50417 3
      vertex 1.74144 2.74407 3
    endloop
  endfacet
  facet normal -0.58779 -0.809014 -0
    outer loop
      vertex 2.07163 2.50417 3
      vertex 1.74144 2.74407 0
      vertex 2.07163 2.50417 0
    endloop
  endfacet
  facet normal 0 -1 0
    outer loop
      vertex -0.204069 3.24359 0
      vertex 0.204069 3.24359 3
      vertex -0.204069 3.24359 3
    endloop
  endfacet
  facet normal 0 -1 -0
    outer loop
      vertex 0.204069 3.24359 3
      vertex -0.204069 3.24359 0
      vertex 0.204069 3.24359 0
    endloop
  endfacet
  facet normal -0.125349 -0.992113 0
    outer loop
      vertex 0.204069 3.24359 0
      vertex 0.608989 3.19243 3
      vertex 0.204069 3.24359 3
    endloop
  endfacet
  facet normal -0.125349 -0.992113 -0
    outer loop
      vertex 0.608989 3.19243 3
      vertex 0.204069 3.24359 0
      vertex 0.608989 3.19243 0
    endloop
  endfacet
  facet normal 0.125349 -0.992113 0
    outer loop
      vertex -0.608989 3.19243 0
      vertex -0.204069 3.24359 3
      vertex -0.608989 3.19243 3
    endloop
  endfacet
  facet normal 0.125349 -0.992113 0
    outer loop
      vertex -0.204069 3.24359 3
      vertex -0.608989 3.19243 0
      vertex -0.204069 3.24359 0
    endloop
  endfacet
  facet normal 0.58779 -0.809014 0
    outer loop
      vertex -2.07163 2.50417 0
      vertex -1.74144 2.74407 3
      vertex -2.07163 2.50417 3
    endloop
  endfacet
  facet normal 0.58779 -0.809014 0
    outer loop
      vertex -1.74144 2.74407 3
      vertex -2.07163 2.50417 0
      vertex -1.74144 2.74407 0
    endloop
  endfacet
  facet normal -0.904836 -0.42576 0
    outer loop
      vertex 3.02177 1.1964 0
      vertex 2.848 1.5657 3
      vertex 2.848 1.5657 0
    endloop
  endfacet
  facet normal -0.904836 -0.42576 0
    outer loop
      vertex 2.848 1.5657 3
      vertex 3.02177 1.1964 0
      vertex 3.02177 1.1964 3
    endloop
  endfacet
  facet normal -0.684547 -0.728968 0
    outer loop
      vertex 2.07163 2.50417 0
      vertex 2.36915 2.22478 3
      vertex 2.07163 2.50417 3
    endloop
  endfacet
  facet normal -0.684547 -0.728968 -0
    outer loop
      vertex 2.36915 2.22478 3
      vertex 2.07163 2.50417 0
      vertex 2.36915 2.22478 0
    endloop
  endfacet
  facet normal -0.770526 -0.637409 0
    outer loop
      vertex 2.6293 1.9103 0
      vertex 2.36915 2.22478 3
      vertex 2.36915 2.22478 0
    endloop
  endfacet
  facet normal -0.770526 -0.637409 0
    outer loop
      vertex 2.36915 2.22478 3
      vertex 2.6293 1.9103 0
      vertex 2.6293 1.9103 3
    endloop
  endfacet
  facet normal -0.481744 -0.876312 0
    outer loop
      vertex 1.38378 2.94069 0
      vertex 1.74144 2.74407 3
      vertex 1.38378 2.94069 3
    endloop
  endfacet
  facet normal -0.481744 -0.876312 -0
    outer loop
      vertex 1.74144 2.74407 3
      vertex 1.38378 2.94069 0
      vertex 1.74144 2.74407 0
    endloop
  endfacet
  facet normal 0.684547 -0.728968 0
    outer loop
      vertex -2.36915 2.22478 0
      vertex -2.07163 2.50417 3
      vertex -2.36915 2.22478 3
    endloop
  endfacet
  facet normal 0.684547 -0.728968 0
    outer loop
      vertex -2.07163 2.50417 3
      vertex -2.36915 2.22478 0
      vertex -2.07163 2.50417 0
    endloop
  endfacet
  facet normal -0.844317 -0.535845 0
    outer loop
      vertex 2.848 1.5657 0
      vertex 2.6293 1.9103 3
      vertex 2.6293 1.9103 0
    endloop
  endfacet
  facet normal -0.844317 -0.535845 0
    outer loop
      vertex 2.6293 1.9103 3
      vertex 2.848 1.5657 0
      vertex 2.848 1.5657 3
    endloop
  endfacet
endsolid OpenSCAD_Model
