<?xml version="1.0" standalone="no"?>
<!DOCTYPE svg PUBLIC "-//W3C//DTD SVG 1.1//EN" "http://www.w3.org/Graphics/SVG/1.1/DTD/svg11.dtd">
<svg width="12mm" height="12mm" viewBox="-6 -6 12 12" xmlns="http://www.w3.org/2000/svg" version="1.1">
<title>OpenSCAD Model</title>
<path d="
M 1.12428,5.89372 L 1.8541,5.70633 L 2.55467,5.42896 L 3.21495,5.06596 L 3.82454,4.62308 L 4.37381,4.10727
 L 4.8541,3.5267 L 5.25783,2.89052 L 5.57864,2.20874 L 5.81149,1.49213 L 5.95268,0.751999 L 6,-0
 L 5.95268,-0.751999 L 5.81149,-1.49213 L 5.57864,-2.20874 L 5.25783,-2.89052 L 4.8541,-3.5267 L 4.37381,-4.10727
 L 3.82454,-4.62308 L 3.21495,-5.06596 L 2.55467,-5.42896 L 1.8541,-5.70633 L 1.12428,-5.89372 L 0.37674,-5.98816
 L -0.37674,-5.98816 L -1.12428,-5.89372 L -1.8541,-5.70633 L -2.55467,-5.42896 L -3.21495,-5.06596 L -3.82454,-4.62308
 L -4.37381,-4.10727 L -4.8541,-3.5267 L -5.25783,-2.89052 L -5.57864,-2.20874 L -5.81149,-1.49213 L -5.95268,-0.751999
 L -6,-0 L -5.95268,0.751999 L -5.81149,1.49213 L -5.57864,2.20874 L -5.25783,2.89052 L -4.8541,3.5267
 L -4.37381,4.10727 L -3.82454,4.62308 L -3.21495,5.06596 L -2.55467,5.42896 L -1.8541,5.70633 L -1.12428,5.89372
 L -0.37674,5.98816 L 0.37674,5.98816 z
" stroke="black" fill="lightgray" stroke-width="0.5"/>
</svg>
