<?xml version="1.0" standalone="no"?>
<!DOCTYPE svg PUBLIC "-//W3C//DTD SVG 1.1//EN" "http://www.w3.org/Graphics/SVG/1.1/DTD/svg11.dtd">
<svg width="12mm" height="12mm" viewBox="-6 -6 12 12" xmlns="http://www.w3.org/2000/svg" version="1.1">
<title>OpenSCAD Model</title>
<path d="
M 1.12428,5.89372 L 1.8541,5.70633 L 2.55467,5.42896 L 3.21495,5.06596 L 3.82454,4.62308 L 4.37381,4.10727
 L 4.8541,3.5267 L 5.25783,2.89052 L 5.57864,2.20874 L 5.81149,1.49213 L 5.95268,0.751999 L 6,-0
 L 5.95268,-0.751999 L 5.81149,-1.49213 L 5.57864,-2.20874 L 5.25783,-2.89052 L 4.8541,-3.5267 L 4.37381,-4.10727
 L 3.82454,-4.62308 L 3.21495,-5.06596 L 2.55467,-5.42896 L 1.8541,-5.70633 L 1.12428,-5.89372 L 0.37674,-5.98816
 L -0.37674,-5.98816 L -1.12428,-5.89372 L -1.8541,-5.70633 L -2.55467,-5.42896 L -3.21495,-5.06596 L -3.82454,-4.62308
 L -4.37381,-4.10727 L -4.8541,-3.5267 L -5.25783,-2.89052 L -5.57864,-2.20874 L -5.81149,-1.49213 L -5.95268,-0.751999
 L -6,-0 L -5.95268,0.751999 L -5.81149,1.49213 L -5.57864,2.20874 L -5.25783,2.89052 L -4.8541,3.5267
 L -4.37381,4.10727 L -3.82454,4.62308 L -3.21495,5.06596 L -2.55467,5.42896 L -1.8541,5.70633 L -1.12428,5.89372
 L -0.37674,5.98816 L 0.37674,5.98816 z
M -0.204056,3.24358 L -0.608978,3.19243 L -1.0043,3.09093 L -1.38377,2.94067 L -1.74142,2.74406 L -2.07162,2.50417
 L -2.36914,2.22478 L -2.6293,1.91029 L -2.84799,1.56569 L -3.02176,1.1964 L -3.14789,0.808228 L -3.22437,0.407318
 L -3.25,-0 L -3.22437,-0.407318 L -3.14789,-0.808228 L -3.02176,-1.1964 L -2.84799,-1.56569 L -2.6293,-1.91029
 L -2.36914,-2.22478 L -2.07162,-2.50417 L -1.74142,-2.74406 L -1.38377,-2.94067 L -1.0043,-3.09093 L -0.608978,-3.19243
 L -0.204056,-3.24358 L 0.204056,-3.24358 L 0.608978,-3.19243 L 1.0043,-3.09093 L 1.38377,-2.94067 L 1.74142,-2.74406
 L 2.07162,-2.50417 L 2.36914,-2.22478 L 2.6293,-1.91029 L 2.84799,-1.56569 L 3.02176,-1.1964 L 3.14789,-0.808228
 L 3.22437,-0.407318 L 3.25,-0 L 3.22437,0.407318 L 3.14789,0.808228 L 3.02176,1.1964 L 2.84799,1.56569
 L 2.6293,1.91029 L 2.36914,2.22478 L 2.07162,2.50417 L 1.74142,2.74406 L 1.38377,2.94067 L 1.0043,3.09093
 L 0.608978,3.19243 L 0.204056,3.24358 z
" stroke="black" fill="lightgray" stroke-width="0.5"/>
</svg>
