solid OpenSCAD_Model
  facet normal 0.982287 0.187382 0
    outer loop
      vertex 5.95269 0.751999 3
      vertex 5.8115 1.49214 0
      vertex 5.8115 1.49214 3
    endloop
  endfacet
  facet normal 0.982287 0.187382 0
    outer loop
      vertex 5.8115 1.49214 0
      vertex 5.95269 0.751999 3
      vertex 5.95269 0.751999 0
    endloop
  endfacet
  facet normal 0.998027 0.0627882 0
    outer loop
      vertex 6 0 3
      vertex 5.95269 0.751999 0
      vertex 5.95269 0.751999 3
    endloop
  endfacet
  facet normal 0.998027 0.0627882 0
    outer loop
      vertex 5.95269 0.751999 0
      vertex 6 0 3
      vertex 6 0 0
    endloop
  endfacet
  facet normal -0.125337 0.992114 0
    outer loop
      vertex -0.376742 5.98816 0
      vertex -1.12429 5.89372 3
      vertex -0.376742 5.98816 3
    endloop
  endfacet
  facet normal -0.125337 0.992114 0
    outer loop
      vertex -1.12429 5.89372 3
      vertex -0.376742 5.98816 0
      vertex -1.12429 5.89372 0
    endloop
  endfacet
  facet normal 0.587789 0.809014 -0
    outer loop
      vertex 3.82454 4.62308 0
      vertex 3.21496 5.06597 3
      vertex 3.82454 4.62308 3
    endloop
  endfacet
  facet normal 0.587789 0.809014 0
    outer loop
      vertex 3.21496 5.06597 3
      vertex 3.82454 4.62308 0
      vertex 3.21496 5.06597 0
    endloop
  endfacet
  facet normal -0.770513 0.637425 0
    outer loop
      vertex -4.8541 3.52671 0
      vertex -4.37381 4.10728 3
      vertex -4.37381 4.10728 0
    endloop
  endfacet
  facet normal -0.770513 0.637425 0
    outer loop
      vertex -4.37381 4.10728 3
      vertex -4.8541 3.52671 0
      vertex -4.8541 3.52671 3
    endloop
  endfacet
  facet normal 0.844327 0.535828 0
    outer loop
      vertex 5.25784 2.89052 3
      vertex 4.8541 3.52671 0
      vertex 4.8541 3.52671 3
    endloop
  endfacet
  facet normal 0.844327 0.535828 0
    outer loop
      vertex 4.8541 3.52671 0
      vertex 5.25784 2.89052 3
      vertex 5.25784 2.89052 0
    endloop
  endfacet
  facet normal -0.982287 -0.187382 0
    outer loop
      vertex -5.8115 -1.49214 0
      vertex -5.95269 -0.751999 3
      vertex -5.95269 -0.751999 0
    endloop
  endfacet
  facet normal -0.982287 -0.187382 0
    outer loop
      vertex -5.95269 -0.751999 3
      vertex -5.8115 -1.49214 0
      vertex -5.8115 -1.49214 3
    endloop
  endfacet
  facet normal -0.248686 -0.968584 0
    outer loop
      vertex -1.8541 -5.70634 0
      vertex -1.12429 -5.89372 3
      vertex -1.8541 -5.70634 3
    endloop
  endfacet
  facet normal -0.248686 -0.968584 -0
    outer loop
      vertex -1.12429 -5.89372 3
      vertex -1.8541 -5.70634 0
      vertex -1.12429 -5.89372 0
    endloop
  endfacet
  facet normal 0.125337 -0.992114 0
    outer loop
      vertex 0.376742 -5.98816 0
      vertex 1.12429 -5.89372 3
      vertex 0.376742 -5.98816 3
    endloop
  endfacet
  facet normal 0.125337 -0.992114 0
    outer loop
      vertex 1.12429 -5.89372 3
      vertex 0.376742 -5.98816 0
      vertex 1.12429 -5.89372 0
    endloop
  endfacet
  facet normal 0.951057 -0.309016 0
    outer loop
      vertex 5.57866 -2.20875 3
      vertex 5.8115 -1.49214 0
      vertex 5.8115 -1.49214 3
    endloop
  endfacet
  facet normal 0.951057 -0.309016 0
    outer loop
      vertex 5.8115 -1.49214 0
      vertex 5.57866 -2.20875 3
      vertex 5.57866 -2.20875 0
    endloop
  endfacet
  facet normal -0.951057 0.309016 0
    outer loop
      vertex -5.8115 1.49214 0
      vertex -5.57866 2.20875 3
      vertex -5.57866 2.20875 0
    endloop
  endfacet
  facet normal -0.951057 0.309016 0
    outer loop
      vertex -5.57866 2.20875 3
      vertex -5.8115 1.49214 0
      vertex -5.8115 1.49214 3
    endloop
  endfacet
  facet normal 0 0 -1
    outer loop
      vertex 3 0 0
      vertex 6 0 0
      vertex 5.95269 -0.751999 0
    endloop
  endfacet
  facet normal 0 0 -1
    outer loop
      vertex 2.97634 -0.375999 0
      vertex 5.95269 -0.751999 0
      vertex 5.8115 -1.49214 0
    endloop
  endfacet
  facet normal 0 0 -1
    outer loop
      vertex 6 0 0
      vertex 3 0 0
      vertex 5.95269 0.751999 0
    endloop
  endfacet
  facet normal 0 0 -1
    outer loop
      vertex 2.90575 -0.746069 0
      vertex 5.8115 -1.49214 0
      vertex 5.57866 -2.20875 0
    endloop
  endfacet
  facet normal 0 0 -1
    outer loop
      vertex 2.97634 0.375999 0
      vertex 5.95269 0.751999 0
      vertex 3 0 0
    endloop
  endfacet
  facet normal 0 0 -1
    outer loop
      vertex 2.78933 -1.10437 0
      vertex 5.57866 -2.20875 0
      vertex 5.25784 -2.89052 0
    endloop
  endfacet
  facet normal -0 0 -1
    outer loop
      vertex 5.95269 0.751999 0
      vertex 2.97634 0.375999 0
      vertex 5.8115 1.49214 0
    endloop
  endfacet
  facet normal 0 0 -1
    outer loop
      vertex 2.62892 -1.44526 0
      vertex 5.25784 -2.89052 0
      vertex 4.8541 -3.52671 0
    endloop
  endfacet
  facet normal 0 0 -1
    outer loop
      vertex 2.90575 0.746069 0
      vertex 5.8115 1.49214 0
      vertex 2.97634 0.375999 0
    endloop
  endfacet
  facet normal 0 0 -1
    outer loop
      vertex 2.42705 -1.76336 0
      vertex 4.8541 -3.52671 0
      vertex 4.37381 -4.10728 0
    endloop
  endfacet
  facet normal -0 0 -1
    outer loop
      vertex 5.8115 1.49214 0
      vertex 2.90575 0.746069 0
      vertex 5.57866 2.20875 0
    endloop
  endfacet
  facet normal 0 0 -1
    outer loop
      vertex 2.18691 -2.05364 0
      vertex 4.37381 -4.10728 0
      vertex 3.82454 -4.62308 0
    endloop
  endfacet
  facet normal 0 0 -1
    outer loop
      vertex 2.78933 1.10437 0
      vertex 5.57866 2.20875 0
      vertex 2.90575 0.746069 0
    endloop
  endfacet
  facet normal 0 0 -1
    outer loop
      vertex 1.91227 -2.31154 0
      vertex 3.82454 -4.62308 0
      vertex 3.21496 -5.06597 0
    endloop
  endfacet
  facet normal -0 0 -1
    outer loop
      vertex 5.57866 2.20875 0
      vertex 2.78933 1.10437 0
      vertex 5.25784 2.89052 0
    endloop
  endfacet
  facet normal 0 0 -1
    outer loop
      vertex 2.62892 1.44526 0
      vertex 5.25784 2.89052 0
      vertex 2.78933 1.10437 0
    endloop
  endfacet
  facet normal 0 0 -1
    outer loop
      vertex 5.95269 -0.751999 0
      vertex 2.97634 -0.375999 0
      vertex 3 0 0
    endloop
  endfacet
  facet normal 0 0 -1
    outer loop
      vertex 5.8115 -1.49214 0
      vertex 2.90575 -0.746069 0
      vertex 2.97634 -0.375999 0
    endloop
  endfacet
  facet normal 0 0 -1
    outer loop
      vertex 5.57866 -2.20875 0
      vertex 2.78933 -1.10437 0
      vertex 2.90575 -0.746069 0
    endloop
  endfacet
  facet normal 0 0 -1
    outer loop
      vertex 5.25784 -2.89052 0
      vertex 2.62892 -1.44526 0
      vertex 2.78933 -1.10437 0
    endloop
  endfacet
  facet normal 0 0 -1
    outer loop
      vertex 1.60748 -2.53298 0
      vertex 3.21496 -5.06597 0
      vertex 2.55468 -5.42896 0
    endloop
  endfacet
  facet normal 0 0 -1
    outer loop
      vertex 4.8541 -3.52671 0
      vertex 2.42705 -1.76336 0
      vertex 2.62892 -1.44526 0
    endloop
  endfacet
  facet normal 0 0 -1
    outer loop
      vertex 4.37381 -4.10728 0
      vertex 2.18691 -2.05364 0
      vertex 2.42705 -1.76336 0
    endloop
  endfacet
  facet normal 0 0 -1
    outer loop
      vertex 3.82454 -4.62308 0
      vertex 1.91227 -2.31154 0
      vertex 2.18691 -2.05364 0
    endloop
  endfacet
  facet normal 0 0 -1
    outer loop
      vertex 1.27734 -2.71448 0
      vertex 2.55468 -5.42896 0
      vertex 1.8541 -5.70634 0
    endloop
  endfacet
  facet normal 0 0 -1
    outer loop
      vertex 3.21496 -5.06597 0
      vertex 1.60748 -2.53298 0
      vertex 1.91227 -2.31154 0
    endloop
  endfacet
  facet normal 0 0 -1
    outer loop
      vertex 2.55468 -5.42896 0
      vertex 1.27734 -2.71448 0
      vertex 1.60748 -2.53298 0
    endloop
  endfacet
  facet normal 0 0 -1
    outer loop
      vertex 0.927051 -2.85317 0
      vertex 1.8541 -5.70634 0
      vertex 1.12429 -5.89372 0
    endloop
  endfacet
  facet normal 0 0 -1
    outer loop
      vertex 1.8541 -5.70634 0
      vertex 0.927051 -2.85317 0
      vertex 1.27734 -2.71448 0
    endloop
  endfacet
  facet normal 0 0 -1
    outer loop
      vertex 1.12429 -5.89372 0
      vertex 0.562143 -2.94686 0
      vertex 0.927051 -2.85317 0
    endloop
  endfacet
  facet normal 0 0 -1
    outer loop
      vertex 0.376742 -5.98816 0
      vertex 0.562143 -2.94686 0
      vertex 1.12429 -5.89372 0
    endloop
  endfacet
  facet normal 0 0 -1
    outer loop
      vertex 0.376742 -5.98816 0
      vertex 0.188371 -2.99408 0
      vertex 0.562143 -2.94686 0
    endloop
  endfacet
  facet normal 0 0 -1
    outer loop
      vertex 0.376742 -5.98816 0
      vertex -0.188371 -2.99408 0
      vertex 0.188371 -2.99408 0
    endloop
  endfacet
  facet normal 0 0 -1
    outer loop
      vertex -0.376742 -5.98816 0
      vertex -0.188371 -2.99408 0
      vertex 0.376742 -5.98816 0
    endloop
  endfacet
  facet normal 0 0 -1
    outer loop
      vertex -0.376742 -5.98816 0
      vertex -0.562143 -2.94686 0
      vertex -0.188371 -2.99408 0
    endloop
  endfacet
  facet normal 0 0 -1
    outer loop
      vertex -1.12429 -5.89372 0
      vertex -0.562143 -2.94686 0
      vertex -0.376742 -5.98816 0
    endloop
  endfacet
  facet normal -0 0 -1
    outer loop
      vertex -0.562143 -2.94686 0
      vertex -1.12429 -5.89372 0
      vertex -0.927051 -2.85317 0
    endloop
  endfacet
  facet normal 0 0 -1
    outer loop
      vertex -1.8541 -5.70634 0
      vertex -0.927051 -2.85317 0
      vertex -1.12429 -5.89372 0
    endloop
  endfacet
  facet normal -0 0 -1
    outer loop
      vertex -0.927051 -2.85317 0
      vertex -1.8541 -5.70634 0
      vertex -1.27734 -2.71448 0
    endloop
  endfacet
  facet normal 0 0 -1
    outer loop
      vertex -2.55468 -5.42896 0
      vertex -1.27734 -2.71448 0
      vertex -1.8541 -5.70634 0
    endloop
  endfacet
  facet normal -0 0 -1
    outer loop
      vertex -1.27734 -2.71448 0
      vertex -2.55468 -5.42896 0
      vertex -1.60748 -2.53298 0
    endloop
  endfacet
  facet normal 0 0 -1
    outer loop
      vertex -3.21496 -5.06597 0
      vertex -1.60748 -2.53298 0
      vertex -2.55468 -5.42896 0
    endloop
  endfacet
  facet normal -0 0 -1
    outer loop
      vertex -1.60748 -2.53298 0
      vertex -3.21496 -5.06597 0
      vertex -1.91227 -2.31154 0
    endloop
  endfacet
  facet normal 0 0 -1
    outer loop
      vertex -3.82454 -4.62308 0
      vertex -1.91227 -2.31154 0
      vertex -3.21496 -5.06597 0
    endloop
  endfacet
  facet normal -0 0 -1
    outer loop
      vertex -1.91227 -2.31154 0
      vertex -3.82454 -4.62308 0
      vertex -2.18691 -2.05364 0
    endloop
  endfacet
  facet normal 0 0 -1
    outer loop
      vertex -4.37381 -4.10728 0
      vertex -2.18691 -2.05364 0
      vertex -3.82454 -4.62308 0
    endloop
  endfacet
  facet normal -0 0 -1
    outer loop
      vertex -2.18691 -2.05364 0
      vertex -4.37381 -4.10728 0
      vertex -2.42705 -1.76336 0
    endloop
  endfacet
  facet normal 0 0 -1
    outer loop
      vertex -4.8541 -3.52671 0
      vertex -2.42705 -1.76336 0
      vertex -4.37381 -4.10728 0
    endloop
  endfacet
  facet normal 0 0 -1
    outer loop
      vertex -5.25784 -2.89052 0
      vertex -2.62892 -1.44526 0
      vertex -4.8541 -3.52671 0
    endloop
  endfacet
  facet normal -0 0 -1
    outer loop
      vertex -2.42705 -1.76336 0
      vertex -4.8541 -3.52671 0
      vertex -2.62892 -1.44526 0
    endloop
  endfacet
  facet normal -0 0 -1
    outer loop
      vertex 5.25784 2.89052 0
      vertex 2.62892 1.44526 0
      vertex 4.8541 3.52671 0
    endloop
  endfacet
  facet normal 0 0 -1
    outer loop
      vertex 2.42705 1.76336 0
      vertex 4.8541 3.52671 0
      vertex 2.62892 1.44526 0
    endloop
  endfacet
  facet normal -0 0 -1
    outer loop
      vertex 4.8541 3.52671 0
      vertex 2.42705 1.76336 0
      vertex 4.37381 4.10728 0
    endloop
  endfacet
  facet normal 0 0 -1
    outer loop
      vertex 2.18691 2.05364 0
      vertex 4.37381 4.10728 0
      vertex 2.42705 1.76336 0
    endloop
  endfacet
  facet normal -0 0 -1
    outer loop
      vertex 4.37381 4.10728 0
      vertex 2.18691 2.05364 0
      vertex 3.82454 4.62308 0
    endloop
  endfacet
  facet normal 0 0 -1
    outer loop
      vertex 1.91227 2.31154 0
      vertex 3.82454 4.62308 0
      vertex 2.18691 2.05364 0
    endloop
  endfacet
  facet normal -0 0 -1
    outer loop
      vertex 3.82454 4.62308 0
      vertex 1.91227 2.31154 0
      vertex 3.21496 5.06597 0
    endloop
  endfacet
  facet normal 0 0 -1
    outer loop
      vertex 1.60748 2.53298 0
      vertex 3.21496 5.06597 0
      vertex 1.91227 2.31154 0
    endloop
  endfacet
  facet normal -0 0 -1
    outer loop
      vertex 3.21496 5.06597 0
      vertex 1.60748 2.53298 0
      vertex 2.55468 5.42896 0
    endloop
  endfacet
  facet normal 0 0 -1
    outer loop
      vertex 1.27734 2.71448 0
      vertex 2.55468 5.42896 0
      vertex 1.60748 2.53298 0
    endloop
  endfacet
  facet normal -0 0 -1
    outer loop
      vertex 2.55468 5.42896 0
      vertex 1.27734 2.71448 0
      vertex 1.8541 5.70634 0
    endloop
  endfacet
  facet normal 0 0 -1
    outer loop
      vertex 0.927051 2.85317 0
      vertex 1.8541 5.70634 0
      vertex 1.27734 2.71448 0
    endloop
  endfacet
  facet normal -0 0 -1
    outer loop
      vertex 1.8541 5.70634 0
      vertex 0.927051 2.85317 0
      vertex 1.12429 5.89372 0
    endloop
  endfacet
  facet normal 0 0 -1
    outer loop
      vertex 0.562143 2.94686 0
      vertex 1.12429 5.89372 0
      vertex 0.927051 2.85317 0
    endloop
  endfacet
  facet normal 0 0 -1
    outer loop
      vertex 0.562143 2.94686 0
      vertex 0.376742 5.98816 0
      vertex 1.12429 5.89372 0
    endloop
  endfacet
  facet normal 0 0 -1
    outer loop
      vertex 0.188371 2.99408 0
      vertex 0.376742 5.98816 0
      vertex 0.562143 2.94686 0
    endloop
  endfacet
  facet normal 0 0 -1
    outer loop
      vertex -0.188371 2.99408 0
      vertex 0.376742 5.98816 0
      vertex 0.188371 2.99408 0
    endloop
  endfacet
  facet normal 0 0 -1
    outer loop
      vertex -0.188371 2.99408 0
      vertex -0.376742 5.98816 0
      vertex 0.376742 5.98816 0
    endloop
  endfacet
  facet normal 0 0 -1
    outer loop
      vertex -0.562143 2.94686 0
      vertex -0.376742 5.98816 0
      vertex -0.188371 2.99408 0
    endloop
  endfacet
  facet normal 0 0 -1
    outer loop
      vertex -1.12429 5.89372 0
      vertex -0.562143 2.94686 0
      vertex -0.927051 2.85317 0
    endloop
  endfacet
  facet normal 0 0 -1
    outer loop
      vertex -0.562143 2.94686 0
      vertex -1.12429 5.89372 0
      vertex -0.376742 5.98816 0
    endloop
  endfacet
  facet normal 0 0 -1
    outer loop
      vertex -1.8541 5.70634 0
      vertex -0.927051 2.85317 0
      vertex -1.27734 2.71448 0
    endloop
  endfacet
  facet normal 0 0 -1
    outer loop
      vertex -2.55468 5.42896 0
      vertex -1.27734 2.71448 0
      vertex -1.60748 2.53298 0
    endloop
  endfacet
  facet normal 0 0 -1
    outer loop
      vertex -0.927051 2.85317 0
      vertex -1.8541 5.70634 0
      vertex -1.12429 5.89372 0
    endloop
  endfacet
  facet normal 0 0 -1
    outer loop
      vertex -3.21496 5.06597 0
      vertex -1.60748 2.53298 0
      vertex -1.91227 2.31154 0
    endloop
  endfacet
  facet normal 0 0 -1
    outer loop
      vertex -3.82454 4.62308 0
      vertex -1.91227 2.31154 0
      vertex -2.18691 2.05364 0
    endloop
  endfacet
  facet normal 0 0 -1
    outer loop
      vertex -4.37381 4.10728 0
      vertex -2.18691 2.05364 0
      vertex -2.42705 1.76336 0
    endloop
  endfacet
  facet normal 0 0 -1
    outer loop
      vertex -1.27734 2.71448 0
      vertex -2.55468 5.42896 0
      vertex -1.8541 5.70634 0
    endloop
  endfacet
  facet normal 0 0 -1
    outer loop
      vertex -4.8541 3.52671 0
      vertex -2.42705 1.76336 0
      vertex -2.62892 1.44526 0
    endloop
  endfacet
  facet normal 0 0 -1
    outer loop
      vertex -5.25784 2.89052 0
      vertex -2.62892 1.44526 0
      vertex -2.78933 1.10437 0
    endloop
  endfacet
  facet normal 0 0 -1
    outer loop
      vertex -5.57866 2.20875 0
      vertex -2.78933 1.10437 0
      vertex -2.90575 0.746069 0
    endloop
  endfacet
  facet normal 0 0 -1
    outer loop
      vertex -5.8115 1.49214 0
      vertex -2.90575 0.746069 0
      vertex -2.97634 0.375999 0
    endloop
  endfacet
  facet normal 0 0 -1
    outer loop
      vertex -1.60748 2.53298 0
      vertex -3.21496 5.06597 0
      vertex -2.55468 5.42896 0
    endloop
  endfacet
  facet normal 0 0 -1
    outer loop
      vertex -5.95269 0.751999 0
      vertex -2.97634 0.375999 0
      vertex -3 0 0
    endloop
  endfacet
  facet normal -0 0 -1
    outer loop
      vertex -2.62892 -1.44526 0
      vertex -5.25784 -2.89052 0
      vertex -2.78933 -1.10437 0
    endloop
  endfacet
  facet normal 0 0 -1
    outer loop
      vertex -5.57866 -2.20875 0
      vertex -2.78933 -1.10437 0
      vertex -5.25784 -2.89052 0
    endloop
  endfacet
  facet normal 0 0 -1
    outer loop
      vertex -1.91227 2.31154 0
      vertex -3.82454 4.62308 0
      vertex -3.21496 5.06597 0
    endloop
  endfacet
  facet normal -0 0 -1
    outer loop
      vertex -2.78933 -1.10437 0
      vertex -5.57866 -2.20875 0
      vertex -2.90575 -0.746069 0
    endloop
  endfacet
  facet normal 0 0 -1
    outer loop
      vertex -2.18691 2.05364 0
      vertex -4.37381 4.10728 0
      vertex -3.82454 4.62308 0
    endloop
  endfacet
  facet normal 0 0 -1
    outer loop
      vertex -5.8115 -1.49214 0
      vertex -2.90575 -0.746069 0
      vertex -5.57866 -2.20875 0
    endloop
  endfacet
  facet normal 0 0 -1
    outer loop
      vertex -2.42705 1.76336 0
      vertex -4.8541 3.52671 0
      vertex -4.37381 4.10728 0
    endloop
  endfacet
  facet normal -0 0 -1
    outer loop
      vertex -2.90575 -0.746069 0
      vertex -5.8115 -1.49214 0
      vertex -2.97634 -0.375999 0
    endloop
  endfacet
  facet normal 0 0 -1
    outer loop
      vertex -2.62892 1.44526 0
      vertex -5.25784 2.89052 0
      vertex -4.8541 3.52671 0
    endloop
  endfacet
  facet normal 0 0 -1
    outer loop
      vertex -5.95269 -0.751999 0
      vertex -2.97634 -0.375999 0
      vertex -5.8115 -1.49214 0
    endloop
  endfacet
  facet normal 0 0 -1
    outer loop
      vertex -2.78933 1.10437 0
      vertex -5.57866 2.20875 0
      vertex -5.25784 2.89052 0
    endloop
  endfacet
  facet normal -0 0 -1
    outer loop
      vertex -2.97634 -0.375999 0
      vertex -5.95269 -0.751999 0
      vertex -3 0 0
    endloop
  endfacet
  facet normal 0 0 -1
    outer loop
      vertex -2.90575 0.746069 0
      vertex -5.8115 1.49214 0
      vertex -5.57866 2.20875 0
    endloop
  endfacet
  facet normal 0 0 -1
    outer loop
      vertex -6 0 0
      vertex -3 0 0
      vertex -5.95269 -0.751999 0
    endloop
  endfacet
  facet normal 0 0 -1
    outer loop
      vertex -2.97634 0.375999 0
      vertex -5.95269 0.751999 0
      vertex -5.8115 1.49214 0
    endloop
  endfacet
  facet normal 0 0 -1
    outer loop
      vertex -3 0 0
      vertex -6 0 0
      vertex -5.95269 0.751999 0
    endloop
  endfacet
  facet normal -0.481752 0.876308 0
    outer loop
      vertex -2.55468 5.42896 0
      vertex -3.21496 5.06597 3
      vertex -2.55468 5.42896 3
    endloop
  endfacet
  facet normal -0.481752 0.876308 0
    outer loop
      vertex -3.21496 5.06597 3
      vertex -2.55468 5.42896 0
      vertex -3.21496 5.06597 0
    endloop
  endfacet
  facet normal -0.587789 0.809014 0
    outer loop
      vertex -3.21496 5.06597 0
      vertex -3.82454 4.62308 3
      vertex -3.21496 5.06597 3
    endloop
  endfacet
  facet normal -0.587789 0.809014 0
    outer loop
      vertex -3.82454 4.62308 3
      vertex -3.21496 5.06597 0
      vertex -3.82454 4.62308 0
    endloop
  endfacet
  facet normal -0.844327 0.535828 0
    outer loop
      vertex -5.25784 2.89052 0
      vertex -4.8541 3.52671 3
      vertex -4.8541 3.52671 0
    endloop
  endfacet
  facet normal -0.844327 0.535828 0
    outer loop
      vertex -4.8541 3.52671 3
      vertex -5.25784 2.89052 0
      vertex -5.25784 2.89052 3
    endloop
  endfacet
  facet normal 0.248686 0.968584 -0
    outer loop
      vertex 1.8541 5.70634 0
      vertex 1.12429 5.89372 3
      vertex 1.8541 5.70634 3
    endloop
  endfacet
  facet normal 0.248686 0.968584 0
    outer loop
      vertex 1.12429 5.89372 3
      vertex 1.8541 5.70634 0
      vertex 1.12429 5.89372 0
    endloop
  endfacet
  facet normal 0.481752 0.876308 -0
    outer loop
      vertex 3.21496 5.06597 0
      vertex 2.55468 5.42896 3
      vertex 3.21496 5.06597 3
    endloop
  endfacet
  facet normal 0.481752 0.876308 0
    outer loop
      vertex 2.55468 5.42896 3
      vertex 3.21496 5.06597 0
      vertex 2.55468 5.42896 0
    endloop
  endfacet
  facet normal 0.904825 0.425783 0
    outer loop
      vertex 5.57866 2.20875 3
      vertex 5.25784 2.89052 0
      vertex 5.25784 2.89052 3
    endloop
  endfacet
  facet normal 0.904825 0.425783 0
    outer loop
      vertex 5.25784 2.89052 0
      vertex 5.57866 2.20875 3
      vertex 5.57866 2.20875 0
    endloop
  endfacet
  facet normal -0.951057 -0.309016 0
    outer loop
      vertex -5.57866 -2.20875 0
      vertex -5.8115 -1.49214 3
      vertex -5.8115 -1.49214 0
    endloop
  endfacet
  facet normal -0.951057 -0.309016 0
    outer loop
      vertex -5.8115 -1.49214 3
      vertex -5.57866 -2.20875 0
      vertex -5.57866 -2.20875 3
    endloop
  endfacet
  facet normal -0.684548 -0.728968 0
    outer loop
      vertex -4.37381 -4.10728 0
      vertex -3.82454 -4.62308 3
      vertex -4.37381 -4.10728 3
    endloop
  endfacet
  facet normal -0.684548 -0.728968 -0
    outer loop
      vertex -3.82454 -4.62308 3
      vertex -4.37381 -4.10728 0
      vertex -3.82454 -4.62308 0
    endloop
  endfacet
  facet normal -0.844327 -0.535828 0
    outer loop
      vertex -4.8541 -3.52671 0
      vertex -5.25784 -2.89052 3
      vertex -5.25784 -2.89052 0
    endloop
  endfacet
  facet normal -0.844327 -0.535828 0
    outer loop
      vertex -5.25784 -2.89052 3
      vertex -4.8541 -3.52671 0
      vertex -4.8541 -3.52671 3
    endloop
  endfacet
  facet normal -0.125337 -0.992114 0
    outer loop
      vertex -1.12429 -5.89372 0
      vertex -0.376742 -5.98816 3
      vertex -1.12429 -5.89372 3
    endloop
  endfacet
  facet normal -0.125337 -0.992114 -0
    outer loop
      vertex -0.376742 -5.98816 3
      vertex -1.12429 -5.89372 0
      vertex -0.376742 -5.98816 0
    endloop
  endfacet
  facet normal -0.368125 -0.929776 0
    outer loop
      vertex -2.55468 -5.42896 0
      vertex -1.8541 -5.70634 3
      vertex -2.55468 -5.42896 3
    endloop
  endfacet
  facet normal -0.368125 -0.929776 -0
    outer loop
      vertex -1.8541 -5.70634 3
      vertex -2.55468 -5.42896 0
      vertex -1.8541 -5.70634 0
    endloop
  endfacet
  facet normal -0.587789 -0.809014 0
    outer loop
      vertex -3.82454 -4.62308 0
      vertex -3.21496 -5.06597 3
      vertex -3.82454 -4.62308 3
    endloop
  endfacet
  facet normal -0.587789 -0.809014 -0
    outer loop
      vertex -3.21496 -5.06597 3
      vertex -3.82454 -4.62308 0
      vertex -3.21496 -5.06597 0
    endloop
  endfacet
  facet normal 0.248686 -0.968584 0
    outer loop
      vertex 1.12429 -5.89372 0
      vertex 1.8541 -5.70634 3
      vertex 1.12429 -5.89372 3
    endloop
  endfacet
  facet normal 0.248686 -0.968584 0
    outer loop
      vertex 1.8541 -5.70634 3
      vertex 1.12429 -5.89372 0
      vertex 1.8541 -5.70634 0
    endloop
  endfacet
  facet normal 0.684548 -0.728968 0
    outer loop
      vertex 3.82454 -4.62308 0
      vertex 4.37381 -4.10728 3
      vertex 3.82454 -4.62308 3
    endloop
  endfacet
  facet normal 0.684548 -0.728968 0
    outer loop
      vertex 4.37381 -4.10728 3
      vertex 3.82454 -4.62308 0
      vertex 4.37381 -4.10728 0
    endloop
  endfacet
  facet normal 0.481752 -0.876308 0
    outer loop
      vertex 2.55468 -5.42896 0
      vertex 3.21496 -5.06597 3
      vertex 2.55468 -5.42896 3
    endloop
  endfacet
  facet normal 0.481752 -0.876308 0
    outer loop
      vertex 3.21496 -5.06597 3
      vertex 2.55468 -5.42896 0
      vertex 3.21496 -5.06597 0
    endloop
  endfacet
  facet normal 0.770513 -0.637425 0
    outer loop
      vertex 4.37381 -4.10728 3
      vertex 4.8541 -3.52671 0
      vertex 4.8541 -3.52671 3
    endloop
  endfacet
  facet normal 0.770513 -0.637425 0
    outer loop
      vertex 4.8541 -3.52671 0
      vertex 4.37381 -4.10728 3
      vertex 4.37381 -4.10728 0
    endloop
  endfacet
  facet normal 0.904825 -0.425783 0
    outer loop
      vertex 5.25784 -2.89052 3
      vertex 5.57866 -2.20875 0
      vertex 5.57866 -2.20875 3
    endloop
  endfacet
  facet normal 0.904825 -0.425783 0
    outer loop
      vertex 5.57866 -2.20875 0
      vertex 5.25784 -2.89052 3
      vertex 5.25784 -2.89052 0
    endloop
  endfacet
  facet normal 0.982287 -0.187382 0
    outer loop
      vertex 5.8115 -1.49214 3
      vertex 5.95269 -0.751999 0
      vertex 5.95269 -0.751999 3
    endloop
  endfacet
  facet normal 0.982287 -0.187382 0
    outer loop
      vertex 5.95269 -0.751999 0
      vertex 5.8115 -1.49214 3
      vertex 5.8115 -1.49214 0
    endloop
  endfacet
  facet normal -0.368125 0.929776 0
    outer loop
      vertex -1.8541 5.70634 0
      vertex -2.55468 5.42896 3
      vertex -1.8541 5.70634 3
    endloop
  endfacet
  facet normal -0.368125 0.929776 0
    outer loop
      vertex -2.55468 5.42896 3
      vertex -1.8541 5.70634 0
      vertex -2.55468 5.42896 0
    endloop
  endfacet
  facet normal -0.248686 0.968584 0
    outer loop
      vertex -1.12429 5.89372 0
      vertex -1.8541 5.70634 3
      vertex -1.12429 5.89372 3
    endloop
  endfacet
  facet normal -0.248686 0.968584 0
    outer loop
      vertex -1.8541 5.70634 3
      vertex -1.12429 5.89372 0
      vertex -1.8541 5.70634 0
    endloop
  endfacet
  facet normal -0.684548 0.728968 0
    outer loop
      vertex -3.82454 4.62308 0
      vertex -4.37381 4.10728 3
      vertex -3.82454 4.62308 3
    endloop
  endfacet
  facet normal -0.684548 0.728968 0
    outer loop
      vertex -4.37381 4.10728 3
      vertex -3.82454 4.62308 0
      vertex -4.37381 4.10728 0
    endloop
  endfacet
  facet normal -0.904825 0.425783 0
    outer loop
      vertex -5.57866 2.20875 0
      vertex -5.25784 2.89052 3
      vertex -5.25784 2.89052 0
    endloop
  endfacet
  facet normal -0.904825 0.425783 0
    outer loop
      vertex -5.25784 2.89052 3
      vertex -5.57866 2.20875 0
      vertex -5.57866 2.20875 3
    endloop
  endfacet
  facet normal -0.982287 0.187382 0
    outer loop
      vertex -5.95269 0.751999 0
      vertex -5.8115 1.49214 3
      vertex -5.8115 1.49214 0
    endloop
  endfacet
  facet normal -0.982287 0.187382 0
    outer loop
      vertex -5.8115 1.49214 3
      vertex -5.95269 0.751999 0
      vertex -5.95269 0.751999 3
    endloop
  endfacet
  facet normal -0.998027 0.0627882 0
    outer loop
      vertex -6 0 0
      vertex -5.95269 0.751999 3
      vertex -5.95269 0.751999 0
    endloop
  endfacet
  facet normal -0.998027 0.0627882 0
    outer loop
      vertex -5.95269 0.751999 3
      vertex -6 0 0
      vertex -6 0 3
    endloop
  endfacet
  facet normal -0.998027 -0.0627882 0
    outer loop
      vertex -5.95269 -0.751999 0
      vertex -6 0 3
      vertex -6 0 0
    endloop
  endfacet
  facet normal -0.998027 -0.0627882 0
    outer loop
      vertex -6 0 3
      vertex -5.95269 -0.751999 0
      vertex -5.95269 -0.751999 3
    endloop
  endfacet
  facet normal 0.368125 0.929776 -0
    outer loop
      vertex 2.55468 5.42896 0
      vertex 1.8541 5.70634 3
      vertex 2.55468 5.42896 3
    endloop
  endfacet
  facet normal 0.368125 0.929776 0
    outer loop
      vertex 1.8541 5.70634 3
      vertex 2.55468 5.42896 0
      vertex 1.8541 5.70634 0
    endloop
  endfacet
  facet normal 0.125337 0.992114 -0
    outer loop
      vertex 1.12429 5.89372 0
      vertex 0.376742 5.98816 3
      vertex 1.12429 5.89372 3
    endloop
  endfacet
  facet normal 0.125337 0.992114 0
    outer loop
      vertex 0.376742 5.98816 3
      vertex 1.12429 5.89372 0
      vertex 0.376742 5.98816 0
    endloop
  endfacet
  facet normal 0 1 -0
    outer loop
      vertex 0.376742 5.98816 0
      vertex -0.376742 5.98816 3
      vertex 0.376742 5.98816 3
    endloop
  endfacet
  facet normal 0 1 0
    outer loop
      vertex -0.376742 5.98816 3
      vertex 0.376742 5.98816 0
      vertex -0.376742 5.98816 0
    endloop
  endfacet
  facet normal 0.770513 0.637425 0
    outer loop
      vertex 4.8541 3.52671 3
      vertex 4.37381 4.10728 0
      vertex 4.37381 4.10728 3
    endloop
  endfacet
  facet normal 0.770513 0.637425 0
    outer loop
      vertex 4.37381 4.10728 0
      vertex 4.8541 3.52671 3
      vertex 4.8541 3.52671 0
    endloop
  endfacet
  facet normal 0.684548 0.728968 -0
    outer loop
      vertex 4.37381 4.10728 0
      vertex 3.82454 4.62308 3
      vertex 4.37381 4.10728 3
    endloop
  endfacet
  facet normal 0.684548 0.728968 0
    outer loop
      vertex 3.82454 4.62308 3
      vertex 4.37381 4.10728 0
      vertex 3.82454 4.62308 0
    endloop
  endfacet
  facet normal 0.951057 0.309016 0
    outer loop
      vertex 5.8115 1.49214 3
      vertex 5.57866 2.20875 0
      vertex 5.57866 2.20875 3
    endloop
  endfacet
  facet normal 0.951057 0.309016 0
    outer loop
      vertex 5.57866 2.20875 0
      vertex 5.8115 1.49214 3
      vertex 5.8115 1.49214 0
    endloop
  endfacet
  facet normal -0.904825 -0.425783 0
    outer loop
      vertex -5.25784 -2.89052 0
      vertex -5.57866 -2.20875 3
      vertex -5.57866 -2.20875 0
    endloop
  endfacet
  facet normal -0.904825 -0.425783 0
    outer loop
      vertex -5.57866 -2.20875 3
      vertex -5.25784 -2.89052 0
      vertex -5.25784 -2.89052 3
    endloop
  endfacet
  facet normal -0.770513 -0.637425 0
    outer loop
      vertex -4.37381 -4.10728 0
      vertex -4.8541 -3.52671 3
      vertex -4.8541 -3.52671 0
    endloop
  endfacet
  facet normal -0.770513 -0.637425 0
    outer loop
      vertex -4.8541 -3.52671 3
      vertex -4.37381 -4.10728 0
      vertex -4.37381 -4.10728 3
    endloop
  endfacet
  facet normal 0 -1 0
    outer loop
      vertex -0.376742 -5.98816 0
      vertex 0.376742 -5.98816 3
      vertex -0.376742 -5.98816 3
    endloop
  endfacet
  facet normal 0 -1 -0
    outer loop
      vertex 0.376742 -5.98816 3
      vertex -0.376742 -5.98816 0
      vertex 0.376742 -5.98816 0
    endloop
  endfacet
  facet normal -0.481752 -0.876308 0
    outer loop
      vertex -3.21496 -5.06597 0
      vertex -2.55468 -5.42896 3
      vertex -3.21496 -5.06597 3
    endloop
  endfacet
  facet normal -0.481752 -0.876308 -0
    outer loop
      vertex -2.55468 -5.42896 3
      vertex -3.21496 -5.06597 0
      vertex -2.55468 -5.42896 0
    endloop
  endfacet
  facet normal 0.368125 -0.929776 0
    outer loop
      vertex 1.8541 -5.70634 0
      vertex 2.55468 -5.42896 3
      vertex 1.8541 -5.70634 3
    endloop
  endfacet
  facet normal 0.368125 -0.929776 0
    outer loop
      vertex 2.55468 -5.42896 3
      vertex 1.8541 -5.70634 0
      vertex 2.55468 -5.42896 0
    endloop
  endfacet
  facet normal 0.587789 -0.809014 0
    outer loop
      vertex 3.21496 -5.06597 0
      vertex 3.82454 -4.62308 3
      vertex 3.21496 -5.06597 3
    endloop
  endfacet
  facet normal 0.587789 -0.809014 0
    outer loop
      vertex 3.82454 -4.62308 3
      vertex 3.21496 -5.06597 0
      vertex 3.82454 -4.62308 0
    endloop
  endfacet
  facet normal 0.844327 -0.535828 0
    outer loop
      vertex 4.8541 -3.52671 3
      vertex 5.25784 -2.89052 0
      vertex 5.25784 -2.89052 3
    endloop
  endfacet
  facet normal 0.844327 -0.535828 0
    outer loop
      vertex 5.25784 -2.89052 0
      vertex 4.8541 -3.52671 3
      vertex 4.8541 -3.52671 0
    endloop
  endfacet
  facet normal 0.998027 -0.0627882 0
    outer loop
      vertex 5.95269 -0.751999 3
      vertex 6 0 0
      vertex 6 0 3
    endloop
  endfacet
  facet normal 0.998027 -0.0627882 0
    outer loop
      vertex 6 0 0
      vertex 5.95269 -0.751999 3
      vertex 5.95269 -0.751999 0
    endloop
  endfacet
  facet normal 0 0 1
    outer loop
      vertex 3 0 3
      vertex 6 0 3
      vertex 5.95269 0.751999 3
    endloop
  endfacet
  facet normal 0 0 1
    outer loop
      vertex 2.97634 0.375999 3
      vertex 5.95269 0.751999 3
      vertex 5.8115 1.49214 3
    endloop
  endfacet
  facet normal 0 0 1
    outer loop
      vertex 6 0 3
      vertex 3 0 3
      vertex 5.95269 -0.751999 3
    endloop
  endfacet
  facet normal 0 0 1
    outer loop
      vertex 2.90575 0.746069 3
      vertex 5.8115 1.49214 3
      vertex 5.57866 2.20875 3
    endloop
  endfacet
  facet normal -0 0 1
    outer loop
      vertex 2.97634 -0.375999 3
      vertex 5.95269 -0.751999 3
      vertex 3 0 3
    endloop
  endfacet
  facet normal 0 0 1
    outer loop
      vertex 2.78933 1.10437 3
      vertex 5.57866 2.20875 3
      vertex 5.25784 2.89052 3
    endloop
  endfacet
  facet normal 0 0 1
    outer loop
      vertex 5.95269 -0.751999 3
      vertex 2.97634 -0.375999 3
      vertex 5.8115 -1.49214 3
    endloop
  endfacet
  facet normal 0 0 1
    outer loop
      vertex 2.62892 1.44526 3
      vertex 5.25784 2.89052 3
      vertex 4.8541 3.52671 3
    endloop
  endfacet
  facet normal -0 0 1
    outer loop
      vertex 2.90575 -0.746069 3
      vertex 5.8115 -1.49214 3
      vertex 2.97634 -0.375999 3
    endloop
  endfacet
  facet normal 0 0 1
    outer loop
      vertex 2.42705 1.76336 3
      vertex 4.8541 3.52671 3
      vertex 4.37381 4.10728 3
    endloop
  endfacet
  facet normal 0 0 1
    outer loop
      vertex 5.8115 -1.49214 3
      vertex 2.90575 -0.746069 3
      vertex 5.57866 -2.20875 3
    endloop
  endfacet
  facet normal 0 0 1
    outer loop
      vertex 2.18691 2.05364 3
      vertex 4.37381 4.10728 3
      vertex 3.82454 4.62308 3
    endloop
  endfacet
  facet normal -0 0 1
    outer loop
      vertex 2.78933 -1.10437 3
      vertex 5.57866 -2.20875 3
      vertex 2.90575 -0.746069 3
    endloop
  endfacet
  facet normal 0 0 1
    outer loop
      vertex 1.91227 2.31154 3
      vertex 3.82454 4.62308 3
      vertex 3.21496 5.06597 3
    endloop
  endfacet
  facet normal 0 0 1
    outer loop
      vertex 5.57866 -2.20875 3
      vertex 2.78933 -1.10437 3
      vertex 5.25784 -2.89052 3
    endloop
  endfacet
  facet normal -0 0 1
    outer loop
      vertex 2.62892 -1.44526 3
      vertex 5.25784 -2.89052 3
      vertex 2.78933 -1.10437 3
    endloop
  endfacet
  facet normal 0 0 1
    outer loop
      vertex 5.95269 0.751999 3
      vertex 2.97634 0.375999 3
      vertex 3 0 3
    endloop
  endfacet
  facet normal 0 0 1
    outer loop
      vertex 5.8115 1.49214 3
      vertex 2.90575 0.746069 3
      vertex 2.97634 0.375999 3
    endloop
  endfacet
  facet normal 0 0 1
    outer loop
      vertex 5.57866 2.20875 3
      vertex 2.78933 1.10437 3
      vertex 2.90575 0.746069 3
    endloop
  endfacet
  facet normal 0 0 1
    outer loop
      vertex 5.25784 2.89052 3
      vertex 2.62892 1.44526 3
      vertex 2.78933 1.10437 3
    endloop
  endfacet
  facet normal 0 0 1
    outer loop
      vertex 1.60748 2.53298 3
      vertex 3.21496 5.06597 3
      vertex 2.55468 5.42896 3
    endloop
  endfacet
  facet normal 0 0 1
    outer loop
      vertex 4.8541 3.52671 3
      vertex 2.42705 1.76336 3
      vertex 2.62892 1.44526 3
    endloop
  endfacet
  facet normal 0 0 1
    outer loop
      vertex 4.37381 4.10728 3
      vertex 2.18691 2.05364 3
      vertex 2.42705 1.76336 3
    endloop
  endfacet
  facet normal 0 0 1
    outer loop
      vertex 3.82454 4.62308 3
      vertex 1.91227 2.31154 3
      vertex 2.18691 2.05364 3
    endloop
  endfacet
  facet normal 0 0 1
    outer loop
      vertex 1.27734 2.71448 3
      vertex 2.55468 5.42896 3
      vertex 1.8541 5.70634 3
    endloop
  endfacet
  facet normal 0 0 1
    outer loop
      vertex 3.21496 5.06597 3
      vertex 1.60748 2.53298 3
      vertex 1.91227 2.31154 3
    endloop
  endfacet
  facet normal 0 0 1
    outer loop
      vertex 2.55468 5.42896 3
      vertex 1.27734 2.71448 3
      vertex 1.60748 2.53298 3
    endloop
  endfacet
  facet normal 0 0 1
    outer loop
      vertex 0.927051 2.85317 3
      vertex 1.8541 5.70634 3
      vertex 1.12429 5.89372 3
    endloop
  endfacet
  facet normal 0 0 1
    outer loop
      vertex 1.8541 5.70634 3
      vertex 0.927051 2.85317 3
      vertex 1.27734 2.71448 3
    endloop
  endfacet
  facet normal 0 0 1
    outer loop
      vertex 1.12429 5.89372 3
      vertex 0.562143 2.94686 3
      vertex 0.927051 2.85317 3
    endloop
  endfacet
  facet normal 0 0 1
    outer loop
      vertex 0.376742 5.98816 3
      vertex 0.562143 2.94686 3
      vertex 1.12429 5.89372 3
    endloop
  endfacet
  facet normal 0 0 1
    outer loop
      vertex 0.376742 5.98816 3
      vertex 0.188371 2.99408 3
      vertex 0.562143 2.94686 3
    endloop
  endfacet
  facet normal 0 0 1
    outer loop
      vertex 0.376742 5.98816 3
      vertex -0.188371 2.99408 3
      vertex 0.188371 2.99408 3
    endloop
  endfacet
  facet normal -0 0 1
    outer loop
      vertex -0.376742 5.98816 3
      vertex -0.188371 2.99408 3
      vertex 0.376742 5.98816 3
    endloop
  endfacet
  facet normal 0 0 1
    outer loop
      vertex -0.376742 5.98816 3
      vertex -0.562143 2.94686 3
      vertex -0.188371 2.99408 3
    endloop
  endfacet
  facet normal -0 0 1
    outer loop
      vertex -1.12429 5.89372 3
      vertex -0.562143 2.94686 3
      vertex -0.376742 5.98816 3
    endloop
  endfacet
  facet normal 0 0 1
    outer loop
      vertex -0.562143 2.94686 3
      vertex -1.12429 5.89372 3
      vertex -0.927051 2.85317 3
    endloop
  endfacet
  facet normal -0 0 1
    outer loop
      vertex -1.8541 5.70634 3
      vertex -0.927051 2.85317 3
      vertex -1.12429 5.89372 3
    endloop
  endfacet
  facet normal 0 0 1
    outer loop
      vertex -0.927051 2.85317 3
      vertex -1.8541 5.70634 3
      vertex -1.27734 2.71448 3
    endloop
  endfacet
  facet normal -0 0 1
    outer loop
      vertex -2.55468 5.42896 3
      vertex -1.27734 2.71448 3
      vertex -1.8541 5.70634 3
    endloop
  endfacet
  facet normal 0 0 1
    outer loop
      vertex -1.27734 2.71448 3
      vertex -2.55468 5.42896 3
      vertex -1.60748 2.53298 3
    endloop
  endfacet
  facet normal -0 0 1
    outer loop
      vertex -3.21496 5.06597 3
      vertex -1.60748 2.53298 3
      vertex -2.55468 5.42896 3
    endloop
  endfacet
  facet normal 0 0 1
    outer loop
      vertex -1.60748 2.53298 3
      vertex -3.21496 5.06597 3
      vertex -1.91227 2.31154 3
    endloop
  endfacet
  facet normal -0 0 1
    outer loop
      vertex -3.82454 4.62308 3
      vertex -1.91227 2.31154 3
      vertex -3.21496 5.06597 3
    endloop
  endfacet
  facet normal 0 0 1
    outer loop
      vertex -1.91227 2.31154 3
      vertex -3.82454 4.62308 3
      vertex -2.18691 2.05364 3
    endloop
  endfacet
  facet normal -0 0 1
    outer loop
      vertex -4.37381 4.10728 3
      vertex -2.18691 2.05364 3
      vertex -3.82454 4.62308 3
    endloop
  endfacet
  facet normal 0 0 1
    outer loop
      vertex -2.18691 2.05364 3
      vertex -4.37381 4.10728 3
      vertex -2.42705 1.76336 3
    endloop
  endfacet
  facet normal -0 0 1
    outer loop
      vertex -4.8541 3.52671 3
      vertex -2.42705 1.76336 3
      vertex -4.37381 4.10728 3
    endloop
  endfacet
  facet normal -0 0 1
    outer loop
      vertex -5.25784 2.89052 3
      vertex -2.62892 1.44526 3
      vertex -4.8541 3.52671 3
    endloop
  endfacet
  facet normal 0 0 1
    outer loop
      vertex -2.42705 1.76336 3
      vertex -4.8541 3.52671 3
      vertex -2.62892 1.44526 3
    endloop
  endfacet
  facet normal 0 0 1
    outer loop
      vertex 5.25784 -2.89052 3
      vertex 2.62892 -1.44526 3
      vertex 4.8541 -3.52671 3
    endloop
  endfacet
  facet normal -0 0 1
    outer loop
      vertex 2.42705 -1.76336 3
      vertex 4.8541 -3.52671 3
      vertex 2.62892 -1.44526 3
    endloop
  endfacet
  facet normal 0 0 1
    outer loop
      vertex 4.8541 -3.52671 3
      vertex 2.42705 -1.76336 3
      vertex 4.37381 -4.10728 3
    endloop
  endfacet
  facet normal -0 0 1
    outer loop
      vertex 2.18691 -2.05364 3
      vertex 4.37381 -4.10728 3
      vertex 2.42705 -1.76336 3
    endloop
  endfacet
  facet normal 0 0 1
    outer loop
      vertex 4.37381 -4.10728 3
      vertex 2.18691 -2.05364 3
      vertex 3.82454 -4.62308 3
    endloop
  endfacet
  facet normal -0 0 1
    outer loop
      vertex 1.91227 -2.31154 3
      vertex 3.82454 -4.62308 3
      vertex 2.18691 -2.05364 3
    endloop
  endfacet
  facet normal 0 0 1
    outer loop
      vertex 3.82454 -4.62308 3
      vertex 1.91227 -2.31154 3
      vertex 3.21496 -5.06597 3
    endloop
  endfacet
  facet normal -0 0 1
    outer loop
      vertex 1.60748 -2.53298 3
      vertex 3.21496 -5.06597 3
      vertex 1.91227 -2.31154 3
    endloop
  endfacet
  facet normal 0 0 1
    outer loop
      vertex 3.21496 -5.06597 3
      vertex 1.60748 -2.53298 3
      vertex 2.55468 -5.42896 3
    endloop
  endfacet
  facet normal -0 0 1
    outer loop
      vertex 1.27734 -2.71448 3
      vertex 2.55468 -5.42896 3
      vertex 1.60748 -2.53298 3
    endloop
  endfacet
  facet normal 0 0 1
    outer loop
      vertex 2.55468 -5.42896 3
      vertex 1.27734 -2.71448 3
      vertex 1.8541 -5.70634 3
    endloop
  endfacet
  facet normal -0 0 1
    outer loop
      vertex 0.927051 -2.85317 3
      vertex 1.8541 -5.70634 3
      vertex 1.27734 -2.71448 3
    endloop
  endfacet
  facet normal 0 0 1
    outer loop
      vertex 1.8541 -5.70634 3
      vertex 0.927051 -2.85317 3
      vertex 1.12429 -5.89372 3
    endloop
  endfacet
  facet normal -0 0 1
    outer loop
      vertex 0.562143 -2.94686 3
      vertex 1.12429 -5.89372 3
      vertex 0.927051 -2.85317 3
    endloop
  endfacet
  facet normal 0 0 1
    outer loop
      vertex 0.562143 -2.94686 3
      vertex 0.376742 -5.98816 3
      vertex 1.12429 -5.89372 3
    endloop
  endfacet
  facet normal -0 0 1
    outer loop
      vertex 0.188371 -2.99408 3
      vertex 0.376742 -5.98816 3
      vertex 0.562143 -2.94686 3
    endloop
  endfacet
  facet normal -0 0 1
    outer loop
      vertex -0.188371 -2.99408 3
      vertex 0.376742 -5.98816 3
      vertex 0.188371 -2.99408 3
    endloop
  endfacet
  facet normal 0 0 1
    outer loop
      vertex -0.188371 -2.99408 3
      vertex -0.376742 -5.98816 3
      vertex 0.376742 -5.98816 3
    endloop
  endfacet
  facet normal 0 0 1
    outer loop
      vertex -0.562143 -2.94686 3
      vertex -0.376742 -5.98816 3
      vertex -0.188371 -2.99408 3
    endloop
  endfacet
  facet normal 0 0 1
    outer loop
      vertex -1.12429 -5.89372 3
      vertex -0.562143 -2.94686 3
      vertex -0.927051 -2.85317 3
    endloop
  endfacet
  facet normal 0 0 1
    outer loop
      vertex -0.562143 -2.94686 3
      vertex -1.12429 -5.89372 3
      vertex -0.376742 -5.98816 3
    endloop
  endfacet
  facet normal 0 0 1
    outer loop
      vertex -1.8541 -5.70634 3
      vertex -0.927051 -2.85317 3
      vertex -1.27734 -2.71448 3
    endloop
  endfacet
  facet normal 0 0 1
    outer loop
      vertex -2.55468 -5.42896 3
      vertex -1.27734 -2.71448 3
      vertex -1.60748 -2.53298 3
    endloop
  endfacet
  facet normal 0 0 1
    outer loop
      vertex -0.927051 -2.85317 3
      vertex -1.8541 -5.70634 3
      vertex -1.12429 -5.89372 3
    endloop
  endfacet
  facet normal 0 0 1
    outer loop
      vertex -3.21496 -5.06597 3
      vertex -1.60748 -2.53298 3
      vertex -1.91227 -2.31154 3
    endloop
  endfacet
  facet normal 0 0 1
    outer loop
      vertex -3.82454 -4.62308 3
      vertex -1.91227 -2.31154 3
      vertex -2.18691 -2.05364 3
    endloop
  endfacet
  facet normal 0 0 1
    outer loop
      vertex -4.37381 -4.10728 3
      vertex -2.18691 -2.05364 3
      vertex -2.42705 -1.76336 3
    endloop
  endfacet
  facet normal 0 0 1
    outer loop
      vertex -1.27734 -2.71448 3
      vertex -2.55468 -5.42896 3
      vertex -1.8541 -5.70634 3
    endloop
  endfacet
  facet normal 0 0 1
    outer loop
      vertex -4.8541 -3.52671 3
      vertex -2.42705 -1.76336 3
      vertex -2.62892 -1.44526 3
    endloop
  endfacet
  facet normal 0 0 1
    outer loop
      vertex -5.25784 -2.89052 3
      vertex -2.62892 -1.44526 3
      vertex -2.78933 -1.10437 3
    endloop
  endfacet
  facet normal 0 0 1
    outer loop
      vertex -5.57866 -2.20875 3
      vertex -2.78933 -1.10437 3
      vertex -2.90575 -0.746069 3
    endloop
  endfacet
  facet normal 0 0 1
    outer loop
      vertex -5.8115 -1.49214 3
      vertex -2.90575 -0.746069 3
      vertex -2.97634 -0.375999 3
    endloop
  endfacet
  facet normal 0 0 1
    outer loop
      vertex -1.60748 -2.53298 3
      vertex -3.21496 -5.06597 3
      vertex -2.55468 -5.42896 3
    endloop
  endfacet
  facet normal 0 0 1
    outer loop
      vertex -5.95269 -0.751999 3
      vertex -2.97634 -0.375999 3
      vertex -3 0 3
    endloop
  endfacet
  facet normal 0 0 1
    outer loop
      vertex -2.62892 1.44526 3
      vertex -5.25784 2.89052 3
      vertex -2.78933 1.10437 3
    endloop
  endfacet
  facet normal -0 0 1
    outer loop
      vertex -5.57866 2.20875 3
      vertex -2.78933 1.10437 3
      vertex -5.25784 2.89052 3
    endloop
  endfacet
  facet normal 0 0 1
    outer loop
      vertex -1.91227 -2.31154 3
      vertex -3.82454 -4.62308 3
      vertex -3.21496 -5.06597 3
    endloop
  endfacet
  facet normal 0 0 1
    outer loop
      vertex -2.78933 1.10437 3
      vertex -5.57866 2.20875 3
      vertex -2.90575 0.746069 3
    endloop
  endfacet
  facet normal 0 0 1
    outer loop
      vertex -2.18691 -2.05364 3
      vertex -4.37381 -4.10728 3
      vertex -3.82454 -4.62308 3
    endloop
  endfacet
  facet normal -0 0 1
    outer loop
      vertex -5.8115 1.49214 3
      vertex -2.90575 0.746069 3
      vertex -5.57866 2.20875 3
    endloop
  endfacet
  facet normal 0 0 1
    outer loop
      vertex -2.42705 -1.76336 3
      vertex -4.8541 -3.52671 3
      vertex -4.37381 -4.10728 3
    endloop
  endfacet
  facet normal 0 0 1
    outer loop
      vertex -2.90575 0.746069 3
      vertex -5.8115 1.49214 3
      vertex -2.97634 0.375999 3
    endloop
  endfacet
  facet normal 0 0 1
    outer loop
      vertex -2.62892 -1.44526 3
      vertex -5.25784 -2.89052 3
      vertex -4.8541 -3.52671 3
    endloop
  endfacet
  facet normal -0 0 1
    outer loop
      vertex -5.95269 0.751999 3
      vertex -2.97634 0.375999 3
      vertex -5.8115 1.49214 3
    endloop
  endfacet
  facet normal 0 0 1
    outer loop
      vertex -2.78933 -1.10437 3
      vertex -5.57866 -2.20875 3
      vertex -5.25784 -2.89052 3
    endloop
  endfacet
  facet normal 0 0 1
    outer loop
      vertex -2.97634 0.375999 3
      vertex -5.95269 0.751999 3
      vertex -3 0 3
    endloop
  endfacet
  facet normal 0 0 1
    outer loop
      vertex -2.90575 -0.746069 3
      vertex -5.8115 -1.49214 3
      vertex -5.57866 -2.20875 3
    endloop
  endfacet
  facet normal 0 0 1
    outer loop
      vertex -6 0 3
      vertex -3 0 3
      vertex -5.95269 0.751999 3
    endloop
  endfacet
  facet normal 0 0 1
    outer loop
      vertex -2.97634 -0.375999 3
      vertex -5.95269 -0.751999 3
      vertex -5.8115 -1.49214 3
    endloop
  endfacet
  facet normal 0 0 1
    outer loop
      vertex -3 0 3
      vertex -6 0 3
      vertex -5.95269 -0.751999 3
    endloop
  endfacet
  facet normal -0.98229 -0.187369 0
    outer loop
      vertex 2.97634 0.375999 0
      vertex 2.90575 0.746069 3
      vertex 2.90575 0.746069 0
    endloop
  endfacet
  facet normal -0.98229 -0.187369 0
    outer loop
      vertex 2.90575 0.746069 3
      vertex 2.97634 0.375999 0
      vertex 2.97634 0.375999 3
    endloop
  endfacet
  facet normal -0.998026 -0.0628015 0
    outer loop
      vertex 3 0 0
      vertex 2.97634 0.375999 3
      vertex 2.97634 0.375999 0
    endloop
  endfacet
  facet normal -0.998026 -0.0628015 0
    outer loop
      vertex 2.97634 0.375999 3
      vertex 3 0 0
      vertex 3 0 3
    endloop
  endfacet
  facet normal 0.125337 -0.992114 0
    outer loop
      vertex -0.562143 2.94686 0
      vertex -0.188371 2.99408 3
      vertex -0.562143 2.94686 3
    endloop
  endfacet
  facet normal 0.125337 -0.992114 0
    outer loop
      vertex -0.188371 2.99408 3
      vertex -0.562143 2.94686 0
      vertex -0.188371 2.99408 0
    endloop
  endfacet
  facet normal -0.58778 -0.809021 0
    outer loop
      vertex 1.60748 2.53298 0
      vertex 1.91227 2.31154 3
      vertex 1.60748 2.53298 3
    endloop
  endfacet
  facet normal -0.58778 -0.809021 -0
    outer loop
      vertex 1.91227 2.31154 3
      vertex 1.60748 2.53298 0
      vertex 1.91227 2.31154 0
    endloop
  endfacet
  facet normal 0.770514 -0.637423 0
    outer loop
      vertex -2.42705 1.76336 3
      vertex -2.18691 2.05364 0
      vertex -2.18691 2.05364 3
    endloop
  endfacet
  facet normal 0.770514 -0.637423 0
    outer loop
      vertex -2.18691 2.05364 0
      vertex -2.42705 1.76336 3
      vertex -2.42705 1.76336 0
    endloop
  endfacet
  facet normal 0.951056 0.309019 0
    outer loop
      vertex -2.78933 -1.10437 3
      vertex -2.90575 -0.746069 0
      vertex -2.90575 -0.746069 3
    endloop
  endfacet
  facet normal 0.951056 0.309019 0
    outer loop
      vertex -2.90575 -0.746069 0
      vertex -2.78933 -1.10437 3
      vertex -2.78933 -1.10437 0
    endloop
  endfacet
  facet normal 0.98229 0.187369 0
    outer loop
      vertex -2.90575 -0.746069 3
      vertex -2.97634 -0.375999 0
      vertex -2.97634 -0.375999 3
    endloop
  endfacet
  facet normal 0.98229 0.187369 0
    outer loop
      vertex -2.97634 -0.375999 0
      vertex -2.90575 -0.746069 3
      vertex -2.90575 -0.746069 0
    endloop
  endfacet
  facet normal 0.248684 0.968585 -0
    outer loop
      vertex -0.562143 -2.94686 0
      vertex -0.927051 -2.85317 3
      vertex -0.562143 -2.94686 3
    endloop
  endfacet
  facet normal 0.248684 0.968585 0
    outer loop
      vertex -0.927051 -2.85317 3
      vertex -0.562143 -2.94686 0
      vertex -0.927051 -2.85317 0
    endloop
  endfacet
  facet normal 0 1 -0
    outer loop
      vertex 0.188371 -2.99408 0
      vertex -0.188371 -2.99408 3
      vertex 0.188371 -2.99408 3
    endloop
  endfacet
  facet normal 0 1 0
    outer loop
      vertex -0.188371 -2.99408 3
      vertex 0.188371 -2.99408 0
      vertex -0.188371 -2.99408 0
    endloop
  endfacet
  facet normal 0.368126 0.929776 -0
    outer loop
      vertex -0.927051 -2.85317 0
      vertex -1.27734 -2.71448 3
      vertex -0.927051 -2.85317 3
    endloop
  endfacet
  facet normal 0.368126 0.929776 0
    outer loop
      vertex -1.27734 -2.71448 3
      vertex -0.927051 -2.85317 0
      vertex -1.27734 -2.71448 0
    endloop
  endfacet
  facet normal 0.58778 0.809021 -0
    outer loop
      vertex -1.60748 -2.53298 0
      vertex -1.91227 -2.31154 3
      vertex -1.60748 -2.53298 3
    endloop
  endfacet
  facet normal 0.58778 0.809021 0
    outer loop
      vertex -1.91227 -2.31154 3
      vertex -1.60748 -2.53298 0
      vertex -1.91227 -2.31154 0
    endloop
  endfacet
  facet normal -0.951056 0.309019 0
    outer loop
      vertex 2.78933 -1.10437 0
      vertex 2.90575 -0.746069 3
      vertex 2.90575 -0.746069 0
    endloop
  endfacet
  facet normal -0.951056 0.309019 0
    outer loop
      vertex 2.90575 -0.746069 3
      vertex 2.78933 -1.10437 0
      vertex 2.78933 -1.10437 3
    endloop
  endfacet
  facet normal -0.998026 0.0628015 0
    outer loop
      vertex 2.97634 -0.375999 0
      vertex 3 0 3
      vertex 3 0 0
    endloop
  endfacet
  facet normal -0.998026 0.0628015 0
    outer loop
      vertex 3 0 3
      vertex 2.97634 -0.375999 0
      vertex 2.97634 -0.375999 3
    endloop
  endfacet
  facet normal 0.368126 -0.929776 0
    outer loop
      vertex -1.27734 2.71448 0
      vertex -0.927051 2.85317 3
      vertex -1.27734 2.71448 3
    endloop
  endfacet
  facet normal 0.368126 -0.929776 0
    outer loop
      vertex -0.927051 2.85317 3
      vertex -1.27734 2.71448 0
      vertex -0.927051 2.85317 0
    endloop
  endfacet
  facet normal 0.248684 -0.968585 0
    outer loop
      vertex -0.927051 2.85317 0
      vertex -0.562143 2.94686 3
      vertex -0.927051 2.85317 3
    endloop
  endfacet
  facet normal 0.248684 -0.968585 0
    outer loop
      vertex -0.562143 2.94686 3
      vertex -0.927051 2.85317 0
      vertex -0.562143 2.94686 0
    endloop
  endfacet
  facet normal 0.58778 -0.809021 0
    outer loop
      vertex -1.91227 2.31154 0
      vertex -1.60748 2.53298 3
      vertex -1.91227 2.31154 3
    endloop
  endfacet
  facet normal 0.58778 -0.809021 0
    outer loop
      vertex -1.60748 2.53298 3
      vertex -1.91227 2.31154 0
      vertex -1.60748 2.53298 0
    endloop
  endfacet
  facet normal 0.98229 -0.187369 0
    outer loop
      vertex -2.97634 0.375999 3
      vertex -2.90575 0.746069 0
      vertex -2.90575 0.746069 3
    endloop
  endfacet
  facet normal 0.98229 -0.187369 0
    outer loop
      vertex -2.90575 0.746069 0
      vertex -2.97634 0.375999 3
      vertex -2.97634 0.375999 0
    endloop
  endfacet
  facet normal 0.904828 -0.425778 0
    outer loop
      vertex -2.78933 1.10437 3
      vertex -2.62892 1.44526 0
      vertex -2.62892 1.44526 3
    endloop
  endfacet
  facet normal 0.904828 -0.425778 0
    outer loop
      vertex -2.62892 1.44526 0
      vertex -2.78933 1.10437 3
      vertex -2.78933 1.10437 0
    endloop
  endfacet
  facet normal -0.248684 -0.968585 0
    outer loop
      vertex 0.562143 2.94686 0
      vertex 0.927051 2.85317 3
      vertex 0.562143 2.94686 3
    endloop
  endfacet
  facet normal -0.248684 -0.968585 -0
    outer loop
      vertex 0.927051 2.85317 3
      vertex 0.562143 2.94686 0
      vertex 0.927051 2.85317 0
    endloop
  endfacet
  facet normal -0.904828 -0.425778 0
    outer loop
      vertex 2.78933 1.10437 0
      vertex 2.62892 1.44526 3
      vertex 2.62892 1.44526 0
    endloop
  endfacet
  facet normal -0.904828 -0.425778 0
    outer loop
      vertex 2.62892 1.44526 3
      vertex 2.78933 1.10437 0
      vertex 2.78933 1.10437 3
    endloop
  endfacet
  facet normal -0.684541 -0.728974 0
    outer loop
      vertex 1.91227 2.31154 0
      vertex 2.18691 2.05364 3
      vertex 1.91227 2.31154 3
    endloop
  endfacet
  facet normal -0.684541 -0.728974 -0
    outer loop
      vertex 2.18691 2.05364 3
      vertex 1.91227 2.31154 0
      vertex 2.18691 2.05364 0
    endloop
  endfacet
  facet normal -0.844331 -0.535822 0
    outer loop
      vertex 2.62892 1.44526 0
      vertex 2.42705 1.76336 3
      vertex 2.42705 1.76336 0
    endloop
  endfacet
  facet normal -0.844331 -0.535822 0
    outer loop
      vertex 2.42705 1.76336 3
      vertex 2.62892 1.44526 0
      vertex 2.62892 1.44526 3
    endloop
  endfacet
  facet normal 0.844331 0.535822 0
    outer loop
      vertex -2.42705 -1.76336 3
      vertex -2.62892 -1.44526 0
      vertex -2.62892 -1.44526 3
    endloop
  endfacet
  facet normal 0.844331 0.535822 0
    outer loop
      vertex -2.62892 -1.44526 0
      vertex -2.42705 -1.76336 3
      vertex -2.42705 -1.76336 0
    endloop
  endfacet
  facet normal 0.684541 0.728974 -0
    outer loop
      vertex -1.91227 -2.31154 0
      vertex -2.18691 -2.05364 3
      vertex -1.91227 -2.31154 3
    endloop
  endfacet
  facet normal 0.684541 0.728974 0
    outer loop
      vertex -2.18691 -2.05364 3
      vertex -1.91227 -2.31154 0
      vertex -2.18691 -2.05364 0
    endloop
  endfacet
  facet normal 0.125337 0.992114 -0
    outer loop
      vertex -0.188371 -2.99408 0
      vertex -0.562143 -2.94686 3
      vertex -0.188371 -2.99408 3
    endloop
  endfacet
  facet normal 0.125337 0.992114 0
    outer loop
      vertex -0.562143 -2.94686 3
      vertex -0.188371 -2.99408 0
      vertex -0.562143 -2.94686 0
    endloop
  endfacet
  facet normal 0.481762 0.876302 -0
    outer loop
      vertex -1.27734 -2.71448 0
      vertex -1.60748 -2.53298 3
      vertex -1.27734 -2.71448 3
    endloop
  endfacet
  facet normal 0.481762 0.876302 0
    outer loop
      vertex -1.60748 -2.53298 3
      vertex -1.27734 -2.71448 0
      vertex -1.60748 -2.53298 0
    endloop
  endfacet
  facet normal -0.368126 0.929776 0
    outer loop
      vertex 1.27734 -2.71448 0
      vertex 0.927051 -2.85317 3
      vertex 1.27734 -2.71448 3
    endloop
  endfacet
  facet normal -0.368126 0.929776 0
    outer loop
      vertex 0.927051 -2.85317 3
      vertex 1.27734 -2.71448 0
      vertex 0.927051 -2.85317 0
    endloop
  endfacet
  facet normal -0.125337 0.992114 0
    outer loop
      vertex 0.562143 -2.94686 0
      vertex 0.188371 -2.99408 3
      vertex 0.562143 -2.94686 3
    endloop
  endfacet
  facet normal -0.125337 0.992114 0
    outer loop
      vertex 0.188371 -2.99408 3
      vertex 0.562143 -2.94686 0
      vertex 0.188371 -2.99408 0
    endloop
  endfacet
  facet normal -0.248684 0.968585 0
    outer loop
      vertex 0.927051 -2.85317 0
      vertex 0.562143 -2.94686 3
      vertex 0.927051 -2.85317 3
    endloop
  endfacet
  facet normal -0.248684 0.968585 0
    outer loop
      vertex 0.562143 -2.94686 3
      vertex 0.927051 -2.85317 0
      vertex 0.562143 -2.94686 0
    endloop
  endfacet
  facet normal -0.481762 0.876302 0
    outer loop
      vertex 1.60748 -2.53298 0
      vertex 1.27734 -2.71448 3
      vertex 1.60748 -2.53298 3
    endloop
  endfacet
  facet normal -0.481762 0.876302 0
    outer loop
      vertex 1.27734 -2.71448 3
      vertex 1.60748 -2.53298 0
      vertex 1.27734 -2.71448 0
    endloop
  endfacet
  facet normal -0.684541 0.728974 0
    outer loop
      vertex 2.18691 -2.05364 0
      vertex 1.91227 -2.31154 3
      vertex 2.18691 -2.05364 3
    endloop
  endfacet
  facet normal -0.684541 0.728974 0
    outer loop
      vertex 1.91227 -2.31154 3
      vertex 2.18691 -2.05364 0
      vertex 1.91227 -2.31154 0
    endloop
  endfacet
  facet normal -0.904828 0.425778 0
    outer loop
      vertex 2.62892 -1.44526 0
      vertex 2.78933 -1.10437 3
      vertex 2.78933 -1.10437 0
    endloop
  endfacet
  facet normal -0.904828 0.425778 0
    outer loop
      vertex 2.78933 -1.10437 3
      vertex 2.62892 -1.44526 0
      vertex 2.62892 -1.44526 3
    endloop
  endfacet
  facet normal -0.770514 0.637423 0
    outer loop
      vertex 2.18691 -2.05364 0
      vertex 2.42705 -1.76336 3
      vertex 2.42705 -1.76336 0
    endloop
  endfacet
  facet normal -0.770514 0.637423 0
    outer loop
      vertex 2.42705 -1.76336 3
      vertex 2.18691 -2.05364 0
      vertex 2.18691 -2.05364 3
    endloop
  endfacet
  facet normal -0.844331 0.535822 0
    outer loop
      vertex 2.42705 -1.76336 0
      vertex 2.62892 -1.44526 3
      vertex 2.62892 -1.44526 0
    endloop
  endfacet
  facet normal -0.844331 0.535822 0
    outer loop
      vertex 2.62892 -1.44526 3
      vertex 2.42705 -1.76336 0
      vertex 2.42705 -1.76336 3
    endloop
  endfacet
  facet normal -0.98229 0.187369 0
    outer loop
      vertex 2.90575 -0.746069 0
      vertex 2.97634 -0.375999 3
      vertex 2.97634 -0.375999 0
    endloop
  endfacet
  facet normal -0.98229 0.187369 0
    outer loop
      vertex 2.97634 -0.375999 3
      vertex 2.90575 -0.746069 0
      vertex 2.90575 -0.746069 3
    endloop
  endfacet
  facet normal 0.481762 -0.876302 0
    outer loop
      vertex -1.60748 2.53298 0
      vertex -1.27734 2.71448 3
      vertex -1.60748 2.53298 3
    endloop
  endfacet
  facet normal 0.481762 -0.876302 0
    outer loop
      vertex -1.27734 2.71448 3
      vertex -1.60748 2.53298 0
      vertex -1.27734 2.71448 0
    endloop
  endfacet
  facet normal 0.951056 -0.309019 0
    outer loop
      vertex -2.90575 0.746069 3
      vertex -2.78933 1.10437 0
      vertex -2.78933 1.10437 3
    endloop
  endfacet
  facet normal 0.951056 -0.309019 0
    outer loop
      vertex -2.78933 1.10437 0
      vertex -2.90575 0.746069 3
      vertex -2.90575 0.746069 0
    endloop
  endfacet
  facet normal 0.998026 -0.0628015 0
    outer loop
      vertex -3 0 3
      vertex -2.97634 0.375999 0
      vertex -2.97634 0.375999 3
    endloop
  endfacet
  facet normal 0.998026 -0.0628015 0
    outer loop
      vertex -2.97634 0.375999 0
      vertex -3 0 3
      vertex -3 0 0
    endloop
  endfacet
  facet normal 0.998026 0.0628015 0
    outer loop
      vertex -2.97634 -0.375999 3
      vertex -3 0 0
      vertex -3 0 3
    endloop
  endfacet
  facet normal 0.998026 0.0628015 0
    outer loop
      vertex -3 0 0
      vertex -2.97634 -0.375999 3
      vertex -2.97634 -0.375999 0
    endloop
  endfacet
  facet normal 0.844331 -0.535822 0
    outer loop
      vertex -2.62892 1.44526 3
      vertex -2.42705 1.76336 0
      vertex -2.42705 1.76336 3
    endloop
  endfacet
  facet normal 0.844331 -0.535822 0
    outer loop
      vertex -2.42705 1.76336 0
      vertex -2.62892 1.44526 3
      vertex -2.62892 1.44526 0
    endloop
  endfacet
  facet normal -0.481762 -0.876302 0
    outer loop
      vertex 1.27734 2.71448 0
      vertex 1.60748 2.53298 3
      vertex 1.27734 2.71448 3
    endloop
  endfacet
  facet normal -0.481762 -0.876302 -0
    outer loop
      vertex 1.60748 2.53298 3
      vertex 1.27734 2.71448 0
      vertex 1.60748 2.53298 0
    endloop
  endfacet
  facet normal 0 -1 0
    outer loop
      vertex -0.188371 2.99408 0
      vertex 0.188371 2.99408 3
      vertex -0.188371 2.99408 3
    endloop
  endfacet
  facet normal 0 -1 -0
    outer loop
      vertex 0.188371 2.99408 3
      vertex -0.188371 2.99408 0
      vertex 0.188371 2.99408 0
    endloop
  endfacet
  facet normal -0.368126 -0.929776 0
    outer loop
      vertex 0.927051 2.85317 0
      vertex 1.27734 2.71448 3
      vertex 0.927051 2.85317 3
    endloop
  endfacet
  facet normal -0.368126 -0.929776 -0
    outer loop
      vertex 1.27734 2.71448 3
      vertex 0.927051 2.85317 0
      vertex 1.27734 2.71448 0
    endloop
  endfacet
  facet normal -0.770514 -0.637423 0
    outer loop
      vertex 2.42705 1.76336 0
      vertex 2.18691 2.05364 3
      vertex 2.18691 2.05364 0
    endloop
  endfacet
  facet normal -0.770514 -0.637423 0
    outer loop
      vertex 2.18691 2.05364 3
      vertex 2.42705 1.76336 0
      vertex 2.42705 1.76336 3
    endloop
  endfacet
  facet normal -0.951056 -0.309019 0
    outer loop
      vertex 2.90575 0.746069 0
      vertex 2.78933 1.10437 3
      vertex 2.78933 1.10437 0
    endloop
  endfacet
  facet normal -0.951056 -0.309019 0
    outer loop
      vertex 2.78933 1.10437 3
      vertex 2.90575 0.746069 0
      vertex 2.90575 0.746069 3
    endloop
  endfacet
  facet normal 0.904828 0.425778 0
    outer loop
      vertex -2.62892 -1.44526 3
      vertex -2.78933 -1.10437 0
      vertex -2.78933 -1.10437 3
    endloop
  endfacet
  facet normal 0.904828 0.425778 0
    outer loop
      vertex -2.78933 -1.10437 0
      vertex -2.62892 -1.44526 3
      vertex -2.62892 -1.44526 0
    endloop
  endfacet
  facet normal 0.770514 0.637423 0
    outer loop
      vertex -2.18691 -2.05364 3
      vertex -2.42705 -1.76336 0
      vertex -2.42705 -1.76336 3
    endloop
  endfacet
  facet normal 0.770514 0.637423 0
    outer loop
      vertex -2.42705 -1.76336 0
      vertex -2.18691 -2.05364 3
      vertex -2.18691 -2.05364 0
    endloop
  endfacet
  facet normal -0.58778 0.809021 0
    outer loop
      vertex 1.91227 -2.31154 0
      vertex 1.60748 -2.53298 3
      vertex 1.91227 -2.31154 3
    endloop
  endfacet
  facet normal -0.58778 0.809021 0
    outer loop
      vertex 1.60748 -2.53298 3
      vertex 1.91227 -2.31154 0
      vertex 1.60748 -2.53298 0
    endloop
  endfacet
  facet normal 0.684541 -0.728974 0
    outer loop
      vertex -2.18691 2.05364 0
      vertex -1.91227 2.31154 3
      vertex -2.18691 2.05364 3
    endloop
  endfacet
  facet normal 0.684541 -0.728974 0
    outer loop
      vertex -1.91227 2.31154 3
      vertex -2.18691 2.05364 0
      vertex -1.91227 2.31154 0
    endloop
  endfacet
  facet normal -0.125337 -0.992114 0
    outer loop
      vertex 0.188371 2.99408 0
      vertex 0.562143 2.94686 3
      vertex 0.188371 2.99408 3
    endloop
  endfacet
  facet normal -0.125337 -0.992114 -0
    outer loop
      vertex 0.562143 2.94686 3
      vertex 0.188371 2.99408 0
      vertex 0.562143 2.94686 0
    endloop
  endfacet
endsolid OpenSCAD_Model
