<?xml version="1.0" standalone="no"?>
<!DOCTYPE svg PUBLIC "-//W3C//DTD SVG 1.1//EN" "http://www.w3.org/Graphics/SVG/1.1/DTD/svg11.dtd">
<svg width="207mm" height="207mm" viewBox="9 -216 207 207" xmlns="http://www.w3.org/2000/svg" version="1.1">
<title>OpenSCAD Model</title>
<path d="
M 211,-9.00986 L 211.314,-9.00986 L 211.937,-9.08856 L 212.545,-9.24471 L 213.129,-9.47586 L 213.679,-9.77835
 L 214.187,-10.1474 L 214.645,-10.5773 L 215.045,-11.0611 L 215.382,-11.5912 L 215.649,-12.1594 L 215.843,-12.7565
 L 215.961,-13.3733 L 216,-14 L 216,-211 L 215.961,-211.627 L 215.843,-212.243 L 215.649,-212.841
 L 215.382,-213.409 L 215.045,-213.939 L 214.645,-214.423 L 214.187,-214.853 L 213.679,-215.222 L 213.129,-215.524
 L 212.545,-215.755 L 211.937,-215.911 L 211.314,-215.99 L 211,-215.99 L 211,-216 L 14,-216
 L 14,-215.99 L 13.686,-215.99 L 13.0631,-215.911 L 12.4549,-215.755 L 11.8711,-215.524 L 11.3209,-215.222
 L 10.8129,-214.853 L 10.3551,-214.423 L 9.95491,-213.939 L 9.61845,-213.409 L 9.3511,-212.841 L 9.15707,-212.243
 L 9.03941,-211.627 L 9,-211 L 9,-14 L 9.03941,-13.3733 L 9.15707,-12.7565 L 9.3511,-12.1594
 L 9.61845,-11.5912 L 9.95491,-11.0611 L 10.3551,-10.5773 L 10.8129,-10.1474 L 11.3209,-9.77835 L 11.8711,-9.47586
 L 12.4549,-9.24471 L 13.0631,-9.08856 L 13.686,-9.00986 L 14,-9.00986 L 14,-9 L 211,-9
 z
" stroke="black" fill="lightgray" stroke-width="0.5"/>
</svg>
