  0
SECTION
  2
HEADER
  9
$ACADVER
  1
AC1021
  9
$ACADMAINTVER
 70
    25
  9
$DWGCODEPAGE
  3
ANSI_1252
  9
$INSBASE
 10
0.0
 20
0.0
 30
0.0
  9
$EXTMIN
 10
-13.82637
 20
-16.27646
 30
0.0
  9
$EXTMAX
 10
-7.17354
 20
-11.42354
 30
0.0
  9
$LIMMIN
 10
0.0
 20
0.0
  9
$LIMMAX
 10
12.0
 20
9.0
  9
$ORTHOMODE
 70
     0
  9
$REGENMODE
 70
     1
  9
$FILLMODE
 70
     1
  9
$QTEXTMODE
 70
     0
  9
$MIRRTEXT
 70
     1
  9
$LTSCALE
 40
1.0
  9
$ATTMODE
 70
     1
  9
$TEXTSIZE
 40
0.2
  9
$TRACEWID
 40
0.05
  9
$TEXTSTYLE
  7
Standard
  9
$CLAYER
  8
0
  9
$CELTYPE
  6
ByLayer
  9
$CECOLOR
 62
   256
  9
$CELTSCALE
 40
1.0
  9
$DISPSILH
 70
     0
  9
$DIMSCALE
 40
1.0
  9
$DIMASZ
 40
0.18
  9
$DIMEXO
 40
0.0625
  9
$DIMDLI
 40
0.38
  9
$DIMRND
 40
0.0
  9
$DIMDLE
 40
0.0
  9
$DIMEXE
 40
0.18
  9
$DIMTP
 40
0.0
  9
$DIMTM
 40
0.0
  9
$DIMTXT
 40
0.18
  9
$DIMCEN
 40
0.09
  9
$DIMTSZ
 40
0.0
  9
$DIMTOL
 70
     0
  9
$DIMLIM
 70
     0
  9
$DIMTIH
 70
     1
  9
$DIMTOH
 70
     1
  9
$DIMSE1
 70
     0
  9
$DIMSE2
 70
     0
  9
$DIMTAD
 70
     0
  9
$DIMZIN
 70
     0
  9
$DIMBLK
  1

  9
$DIMASO
 70
     1
  9
$DIMSHO
 70
     1
  9
$DIMPOST
  1

  9
$DIMAPOST
  1

  9
$DIMALT
 70
     0
  9
$DIMALTD
 70
     2
  9
$DIMALTF
 40
25.4
  9
$DIMLFAC
 40
1.0
  9
$DIMTOFL
 70
     0
  9
$DIMTVP
 40
0.0
  9
$DIMTIX
 70
     0
  9
$DIMSOXD
 70
     0
  9
$DIMSAH
 70
     0
  9
$DIMBLK1
  1

  9
$DIMBLK2
  1

  9
$DIMSTYLE
  2
Standard
  9
$DIMCLRD
 70
     0
  9
$DIMCLRE
 70
     0
  9
$DIMCLRT
 70
     0
  9
$DIMTFAC
 40
1.0
  9
$DIMGAP
 40
0.09
  9
$DIMJUST
 70
     0
  9
$DIMSD1
 70
     0
  9
$DIMSD2
 70
     0
  9
$DIMTOLJ
 70
     1
  9
$DIMTZIN
 70
     0
  9
$DIMALTZ
 70
     0
  9
$DIMALTTZ
 70
     0
  9
$DIMUPT
 70
     0
  9
$DIMDEC
 70
     4
  9
$DIMTDEC
 70
     4
  9
$DIMALTU
 70
     2
  9
$DIMALTTD
 70
     2
  9
$DIMTXSTY
  7
Standard
  9
$DIMAUNIT
 70
     0
  9
$DIMADEC
 70
     0
  9
$DIMALTRND
 40
0.0
  9
$DIMAZIN
 70
     0
  9
$DIMDSEP
 70
    46
  9
$DIMATFIT
 70
     3
  9
$DIMFRAC
 70
     0
  9
$DIMLDRBLK
  1

  9
$DIMLUNIT
 70
     2
  9
$DIMLWD
 70
    -2
  9
$DIMLWE
 70
    -2
  9
$DIMTMOVE
 70
     0
  9
$DIMFXL
 40
1.0
  9
$DIMFXLON
 70
     0
  9
$DIMJOGANG
 40
0.7853981633974483
  9
$DIMTFILL
 70
     0
  9
$DIMTFILLCLR
 70
     0
  9
$DIMARCSYM
 70
     0
  9
$DIMLTYPE
  6

  9
$DIMLTEX1
  6

  9
$DIMLTEX2
  6

  9
$LUNITS
 70
     2
  9
$LUPREC
 70
     4
  9
$SKETCHINC
 40
0.1
  9
$FILLETRAD
 40
0.5
  9
$AUNITS
 70
     0
  9
$AUPREC
 70
     0
  9
$MENU
  1
.
  9
$ELEVATION
 40
0.0
  9
$PELEVATION
 40
0.0
  9
$THICKNESS
 40
0.0
  9
$LIMCHECK
 70
     0
  9
$CHAMFERA
 40
0.5
  9
$CHAMFERB
 40
0.5
  9
$CHAMFERC
 40
1.0
  9
$CHAMFERD
 40
0.0
  9
$SKPOLY
 70
     0
  9
$TDCREATE
 40
2457799.173003611
  9
$TDUCREATE
 40
2457799.173003611
  9
$TDUPDATE
 40
2457799.173003623
  9
$TDUUPDATE
 40
2457799.173003623
  9
$TDINDWG
 40
0.0000000116
  9
$TDUSRTIMER
 40
0.0000000116
  9
$USRTIMER
 70
     1
  9
$ANGBASE
 50
0.0
  9
$ANGDIR
 70
     0
  9
$PDMODE
 70
     0
  9
$PDSIZE
 40
0.0
  9
$PLINEWID
 40
0.0
  9
$SPLFRAME
 70
     0
  9
$SPLINETYPE
 70
     6
  9
$SPLINESEGS
 70
     8
  9
$HANDSEED
  5
73
  9
$SURFTAB1
 70
     6
  9
$SURFTAB2
 70
     6
  9
$SURFTYPE
 70
     6
  9
$SURFU
 70
     6
  9
$SURFV
 70
     6
  9
$UCSBASE
  2

  9
$UCSNAME
  2

  9
$UCSORG
 10
0.0
 20
0.0
 30
0.0
  9
$UCSXDIR
 10
1.0
 20
0.0
 30
0.0
  9
$UCSYDIR
 10
0.0
 20
1.0
 30
0.0
  9
$UCSORTHOREF
  2

  9
$UCSORTHOVIEW
 70
     0
  9
$UCSORGTOP
 10
0.0
 20
0.0
 30
0.0
  9
$UCSORGBOTTOM
 10
0.0
 20
0.0
 30
0.0
  9
$UCSORGLEFT
 10
0.0
 20
0.0
 30
0.0
  9
$UCSORGRIGHT
 10
0.0
 20
0.0
 30
0.0
  9
$UCSORGFRONT
 10
0.0
 20
0.0
 30
0.0
  9
$UCSORGBACK
 10
0.0
 20
0.0
 30
0.0
  9
$PUCSBASE
  2

  9
$PUCSNAME
  2

  9
$PUCSORG
 10
0.0
 20
0.0
 30
0.0
  9
$PUCSXDIR
 10
1.0
 20
0.0
 30
0.0
  9
$PUCSYDIR
 10
0.0
 20
1.0
 30
0.0
  9
$PUCSORTHOREF
  2

  9
$PUCSORTHOVIEW
 70
     0
  9
$PUCSORGTOP
 10
0.0
 20
0.0
 30
0.0
  9
$PUCSORGBOTTOM
 10
0.0
 20
0.0
 30
0.0
  9
$PUCSORGLEFT
 10
0.0
 20
0.0
 30
0.0
  9
$PUCSORGRIGHT
 10
0.0
 20
0.0
 30
0.0
  9
$PUCSORGFRONT
 10
0.0
 20
0.0
 30
0.0
  9
$PUCSORGBACK
 10
0.0
 20
0.0
 30
0.0
  9
$USERI1
 70
     0
  9
$USERI2
 70
     0
  9
$USERI3
 70
     0
  9
$USERI4
 70
     0
  9
$USERI5
 70
     0
  9
$USERR1
 40
0.0
  9
$USERR2
 40
0.0
  9
$USERR3
 40
0.0
  9
$USERR4
 40
0.0
  9
$USERR5
 40
0.0
  9
$WORLDVIEW
 70
     1
  9
$SHADEDGE
 70
     3
  9
$SHADEDIF
 70
    70
  9
$TILEMODE
 70
     1
  9
$MAXACTVP
 70
    64
  9
$PINSBASE
 10
0.0
 20
0.0
 30
0.0
  9
$PLIMCHECK
 70
     0
  9
$PEXTMIN
 10
1.000000000000000E+20
 20
1.000000000000000E+20
 30
1.000000000000000E+20
  9
$PEXTMAX
 10
-1.000000000000000E+20
 20
-1.000000000000000E+20
 30
-1.000000000000000E+20
  9
$PLIMMIN
 10
0.0
 20
0.0
  9
$PLIMMAX
 10
12.0
 20
9.0
  9
$UNITMODE
 70
     0
  9
$VISRETAIN
 70
     1
  9
$PLINEGEN
 70
     0
  9
$PSLTSCALE
 70
     1
  9
$TREEDEPTH
 70
  3020
  9
$CMLSTYLE
  2
Standard
  9
$CMLJUST
 70
     0
  9
$CMLSCALE
 40
1.0
  9
$PROXYGRAPHICS
 70
     1
  9
$MEASUREMENT
 70
     0
  9
$CELWEIGHT
370
    -1
  9
$ENDCAPS
280
     0
  9
$JOINSTYLE
280
     0
  9
$LWDISPLAY
290
     0
  9
$INSUNITS
 70
     5
  9
$HYPERLINKBASE
  1

  9
$STYLESHEET
  1

  9
$XEDIT
290
     1
  9
$CEPSNTYPE
380
     0
  9
$PSTYLEMODE
290
     1
  9
$FINGERPRINTGUID
  2
{A3D11146-F100-4C84-8C36-1208AB69BC1C}
  9
$VERSIONGUID
  2
{FAEB1C32-E019-11D5-929B-00C0DF256EC4}
  9
$EXTNAMES
290
     1
  9
$PSVPSCALE
 40
0.0
  9
$OLESTARTUP
290
     0
  9
$SORTENTS
280
   127
  9
$INDEXCTL
280
     0
  9
$HIDETEXT
280
     1
  9
$XCLIPFRAME
290
     0
  9
$HALOGAP
280
     0
  9
$OBSCOLOR
 70
   257
  9
$OBSLTYPE
280
     0
  9
$INTERSECTIONDISPLAY
280
     0
  9
$INTERSECTIONCOLOR
 70
   257
  9
$DIMASSOC
280
     2
  9
$PROJECTNAME
  1

  9
$CAMERADISPLAY
290
     0
  9
$LENSLENGTH
 40
50.0
  9
$CAMERAHEIGHT
 40
0.0
  9
$STEPSPERSEC
 40
2.0
  9
$STEPSIZE
 40
6.0
  9
$3DDWFPREC
 40
2.0
  9
$PSOLWIDTH
 40
0.25
  9
$PSOLHEIGHT
 40
4.0
  9
$LOFTANG1
 40
1.570796326794897
  9
$LOFTANG2
 40
1.570796326794897
  9
$LOFTMAG1
 40
0.0
  9
$LOFTMAG2
 40
0.0
  9
$LOFTPARAM
 70
     7
  9
$LOFTNORMALS
280
     1
  9
$LATITUDE
 40
37.795
  9
$LONGITUDE
 40
-122.394
  9
$NORTHDIRECTION
 40
0.0
  9
$TIMEZONE
 70
 -8000
  9
$LIGHTGLYPHDISPLAY
280
     1
  9
$TILEMODELIGHTSYNCH
280
     1
  9
$SOLIDHIST
280
     1
  9
$SHOWHIST
280
     1
  9
$DWFFRAME
280
     2
  9
$DGNFRAME
280
     2
  9
$REALWORLDSCALE
290
     1
  9
$INTERFERECOLOR
 62
   256
  9
$CSHADOW
280
     0
  9
$SHADOWPLANELOCATION
 40
0.0
  0
ENDSEC
  0
SECTION
  2
CLASSES
  0
CLASS
  1
ACDBDICTIONARYWDFLT
  2
AcDbDictionaryWithDefault
  3
ObjectDBX Classes
 90
        0
 91
        3
280
     0
281
     0
  0
CLASS
  1
VISUALSTYLE
  2
AcDbVisualStyle
  3
ObjectDBX Classes
 90
     4095
 91
        3
280
     0
281
     0
  0
CLASS
  1
SCALE
  2
AcDbScale
  3
ObjectDBX Classes
 90
     1153
 91
        3
280
     0
281
     0
  0
ENDSEC
  0
SECTION
  2
TABLES
  0
TABLE
  2
VPORT
  5
8
330
0
100
AcDbSymbolTable
 70
     1
  0
VPORT
  5
29
330
8
100
AcDbSymbolTableRecord
100
AcDbViewportTableRecord
  2
*Active
 70
     0
 10
0.0
 20
0.0
 11
1.0
 21
1.0
 12
10.42990654205607
 22
4.5
 13
0.0
 23
0.0
 14
0.5
 24
0.5
 15
0.5
 25
0.5
 16
0.0
 26
0.0
 36
1.0
 17
0.0
 27
0.0
 37
0.0
 40
9.0
 41
1.972972972850329
 42
50.0
 43
0.0
 44
0.0
 50
0.0
 51
0.0
 71
     0
 72
   100
 73
     1
 74
     3
 75
     0
 76
     0
 77
     0
 78
     0
281
     0
 65
     1
110
0.0
120
0.0
130
0.0
111
1.0
121
0.0
131
0.0
112
0.0
122
1.0
132
0.0
 79
     0
146
0.0
 60
     3
 61
     5
292
     1
282
     1
141
0.0
142
0.0
 63
   256
  0
ENDTAB
  0
TABLE
  2
LTYPE
  5
5
330
0
100
AcDbSymbolTable
 70
     1
  0
LTYPE
  5
14
330
5
100
AcDbSymbolTableRecord
100
AcDbLinetypeTableRecord
  2
ByBlock
 70
     0
  3

 72
    65
 73
     0
 40
0.0
  0
LTYPE
  5
15
330
5
100
AcDbSymbolTableRecord
100
AcDbLinetypeTableRecord
  2
ByLayer
 70
     0
  3

 72
    65
 73
     0
 40
0.0
  0
LTYPE
  5
16
330
5
100
AcDbSymbolTableRecord
100
AcDbLinetypeTableRecord
  2
Continuous
 70
     0
  3
Solid line
 72
    65
 73
     0
 40
0.0
  0
ENDTAB
  0
TABLE
  2
LAYER
  5
2
330
0
100
AcDbSymbolTable
 70
     2
  0
LAYER
  5
10
330
2
100
AcDbSymbolTableRecord
100
AcDbLayerTableRecord
  2
0
 70
     0
 62
     7
  6
Continuous
370
    -3
390
F
347
0
  0
LAYER
  5
5E
330
2
100
AcDbSymbolTableRecord
100
AcDbLayerTableRecord
  2
Layer 1
 70
     0
 62
     7
  6
Continuous
370
    -3
390
F
347
0
  0
ENDTAB
  0
TABLE
  2
STYLE
  5
3
330
0
100
AcDbSymbolTable
 70
     1
  0
STYLE
  5
11
330
3
100
AcDbSymbolTableRecord
100
AcDbTextStyleTableRecord
  2
Standard
 70
     0
 40
0.0
 41
1.0
 50
0.0
 71
     0
 42
0.2
  3
txt
  4

  0
ENDTAB
  0
TABLE
  2
VIEW
  5
6
330
0
100
AcDbSymbolTable
 70
     0
  0
ENDTAB
  0
TABLE
  2
UCS
  5
7
330
0
100
AcDbSymbolTable
 70
     0
  0
ENDTAB
  0
TABLE
  2
APPID
  5
9
330
0
100
AcDbSymbolTable
 70
     2
  0
APPID
  5
12
330
9
100
AcDbSymbolTableRecord
100
AcDbRegAppTableRecord
  2
ACAD
 70
     0
  0
APPID
  5
5D
330
9
100
AcDbSymbolTableRecord
100
AcDbRegAppTableRecord
  2
ODA
 70
     0
  0
ENDTAB
  0
TABLE
  2
DIMSTYLE
  5
A
330
0
100
AcDbSymbolTable
 70
     1
100
AcDbDimStyleTable
  0
DIMSTYLE
105
27
330
A
100
AcDbSymbolTableRecord
100
AcDbDimStyleTableRecord
  2
Standard
 70
     0
340
11
  0
ENDTAB
  0
TABLE
  2
BLOCK_RECORD
  5
1
330
0
100
AcDbSymbolTable
 70
     1
  0
BLOCK_RECORD
  5
1F
330
1
100
AcDbSymbolTableRecord
100
AcDbBlockTableRecord
  2
*Model_Space
340
22
 70
     0
280
     1
281
     0
  0
BLOCK_RECORD
  5
1B
330
1
100
AcDbSymbolTableRecord
100
AcDbBlockTableRecord
  2
*Paper_Space
340
1E
 70
     0
280
     1
281
     0
  0
BLOCK_RECORD
  5
23
330
1
100
AcDbSymbolTableRecord
100
AcDbBlockTableRecord
  2
*Paper_Space0
340
26
 70
     0
280
     1
281
     0
  0
ENDTAB
  0
ENDSEC
  0
SECTION
  2
BLOCKS
  0
BLOCK
  5
20
330
1F
100
AcDbEntity
  8
0
100
AcDbBlockBegin
  2
*Model_Space
 70
     0
 10
0.0
 20
0.0
 30
0.0
  3
*Model_Space
  1

  0
ENDBLK
  5
21
330
1F
100
AcDbEntity
  8
0
100
AcDbBlockEnd
  0
BLOCK
  5
1C
330
1B
100
AcDbEntity
 67
     1
  8
0
100
AcDbBlockBegin
  2
*Paper_Space
 70
     0
 10
0.0
 20
0.0
 30
0.0
  3
*Paper_Space
  1

  0
ENDBLK
  5
1D
330
1B
100
AcDbEntity
 67
     1
  8
0
100
AcDbBlockEnd
  0
BLOCK
  5
24
330
23
100
AcDbEntity
  8
0
100
AcDbBlockBegin
  2
*Paper_Space0
 70
     0
 10
0.0
 20
0.0
 30
0.0
  3
*Paper_Space0
  1

  0
ENDBLK
  5
25
330
23
100
AcDbEntity
  8
0
100
AcDbBlockEnd
  0
ENDSEC
  0
SECTION
  2
ENTITIES
  0
SPLINE
  5
5F
330
1F
100
AcDbEntity
  8
Layer 1
370
    53
100
AcDbSpline
210
0.0
220
0.0
230
1.0
 70
    11
 71
     3
 72
    20
 73
    16
 74
     0
 42
0.0000000001
 43
0.0000000001
 40
0.0
 40
0.0
 40
0.0
 40
0.0
 40
0.25
 40
0.25
 40
0.25
 40
0.25
 40
0.5
 40
0.5
 40
0.5
 40
0.5
 40
0.75
 40
0.75
 40
0.75
 40
0.75
 40
1.0
 40
1.0
 40
1.0
 40
1.0
 10
-10.65883
 20
-13.4
 30
0.0
 10
-10.65883
 20
-13.4
 30
0.0
 10
-10.65883
 20
-12.79999
 30
0.0
 10
-10.65883
 20
-12.79999
 30
0.0
 10
-10.65883
 20
-12.79999
 30
0.0
 10
-10.65883
 20
-12.79999
 30
0.0
 10
-10.34133
 20
-12.79999
 30
0.0
 10
-10.34133
 20
-12.79999
 30
0.0
 10
-10.34133
 20
-12.79999
 30
0.0
 10
-10.34133
 20
-12.79999
 30
0.0
 10
-10.34133
 20
-13.4
 30
0.0
 10
-10.34133
 20
-13.4
 30
0.0
 10
-10.34133
 20
-13.4
 30
0.0
 10
-10.34133
 20
-13.4
 30
0.0
 10
-10.65883
 20
-13.4
 30
0.0
 10
-10.65883
 20
-13.4
 30
0.0
  0
SPLINE
  5
60
330
1F
100
AcDbEntity
  8
Layer 1
370
    53
100
AcDbSpline
210
0.0
220
0.0
230
1.0
 70
    11
 71
     3
 72
    20
 73
    16
 74
     0
 42
0.0000000001
 43
0.0000000001
 40
0.0
 40
0.0
 40
0.0
 40
0.0
 40
0.25
 40
0.25
 40
0.25
 40
0.25
 40
0.5
 40
0.5
 40
0.5
 40
0.5
 40
0.75
 40
0.75
 40
0.75
 40
0.75
 40
1.0
 40
1.0
 40
1.0
 40
1.0
 10
-9.80005
 20
-13.94125
 30
0.0
 10
-9.80005
 20
-13.94125
 30
0.0
 10
-9.20004
 20
-13.94125
 30
0.0
 10
-9.20004
 20
-13.94125
 30
0.0
 10
-9.20004
 20
-13.94125
 30
0.0
 10
-9.20004
 20
-13.94125
 30
0.0
 10
-9.20004
 20
-14.25875
 30
0.0
 10
-9.20004
 20
-14.25875
 30
0.0
 10
-9.20004
 20
-14.25875
 30
0.0
 10
-9.20004
 20
-14.25875
 30
0.0
 10
-9.80005
 20
-14.25875
 30
0.0
 10
-9.80005
 20
-14.25875
 30
0.0
 10
-9.80005
 20
-14.25875
 30
0.0
 10
-9.80005
 20
-14.25875
 30
0.0
 10
-9.80005
 20
-13.94125
 30
0.0
 10
-9.80005
 20
-13.94125
 30
0.0
  0
SPLINE
  5
61
330
1F
100
AcDbEntity
  8
Layer 1
 62
     5
370
    53
100
AcDbSpline
210
0.0
220
0.0
230
1.0
 70
    11
 71
     3
 72
    84
 73
    80
 74
     0
 42
0.0000000001
 43
0.0000000001
 40
0.0
 40
0.0
 40
0.0
 40
0.0
 40
0.05
 40
0.05
 40
0.05
 40
0.05
 40
0.1
 40
0.1
 40
0.1
 40
0.1
 40
0.15
 40
0.15
 40
0.15
 40
0.15
 40
0.2
 40
0.2
 40
0.2
 40
0.2
 40
0.25
 40
0.25
 40
0.25
 40
0.25
 40
0.3
 40
0.3
 40
0.3
 40
0.3
 40
0.35
 40
0.35
 40
0.35
 40
0.35
 40
0.4
 40
0.4
 40
0.4
 40
0.4
 40
0.45
 40
0.45
 40
0.45
 40
0.45
 40
0.4999999999999999
 40
0.4999999999999999
 40
0.4999999999999999
 40
0.4999999999999999
 40
0.5499999999999999
 40
0.5499999999999999
 40
0.5499999999999999
 40
0.5499999999999999
 40
0.6
 40
0.6
 40
0.6
 40
0.6
 40
0.65
 40
0.65
 40
0.65
 40
0.65
 40
0.7000000000000001
 40
0.7000000000000001
 40
0.7000000000000001
 40
0.7000000000000001
 40
0.7500000000000001
 40
0.7500000000000001
 40
0.7500000000000001
 40
0.7500000000000001
 40
0.8000000000000002
 40
0.8000000000000002
 40
0.8000000000000002
 40
0.8000000000000002
 40
0.8500000000000002
 40
0.8500000000000002
 40
0.8500000000000002
 40
0.8500000000000002
 40
0.9000000000000002
 40
0.9000000000000002
 40
0.9000000000000002
 40
0.9000000000000002
 40
0.9500000000000003
 40
0.9500000000000003
 40
0.9500000000000003
 40
0.9500000000000003
 40
1.0
 40
1.0
 40
1.0
 40
1.0
 10
-11.46972
 20
-14.40035
 30
0.0
 10
-11.46972
 20
-14.40035
 30
0.0
 10
-11.47014
 20
-14.63742
 30
0.0
 10
-11.47014
 20
-14.63742
 30
0.0
 10
-11.47014
 20
-14.63742
 30
0.0
 10
-11.47014
 20
-14.64511
 30
0.0
 10
-11.47177
 20
-14.65287
 30
0.0
 10
-11.47487
 20
-14.66056
 30
0.0
 10
-11.47487
 20
-14.66056
 30
0.0
 10
-11.47805
 20
-14.66832
 30
0.0
 10
-11.4827
 20
-14.67538
 30
0.0
 10
-11.48884
 20
-14.68187
 30
0.0
 10
-11.48884
 20
-14.68187
 30
0.0
 10
-11.49505
 20
-14.68829
 30
0.0
 10
-11.5026
 20
-14.69351
 30
0.0
 10
-11.51156
 20
-14.69739
 30
0.0
 10
-11.51156
 20
-14.69739
 30
0.0
 10
-11.52059
 20
-14.70134
 30
0.0
 10
-11.53089
 20
-14.70332
 30
0.0
 10
-11.54253
 20
-14.70346
 30
0.0
 10
-11.54253
 20
-14.70346
 30
0.0
 10
-11.55418
 20
-14.70346
 30
0.0
 10
-11.56469
 20
-14.70155
 30
0.0
 10
-11.574
 20
-14.69781
 30
0.0
 10
-11.574
 20
-14.69781
 30
0.0
 10
-11.58332
 20
-14.694
 30
0.0
 10
-11.59129
 20
-14.68892
 30
0.0
 10
-11.59785
 20
-14.6825
 30
0.0
 10
-11.59785
 20
-14.6825
 30
0.0
 10
-11.60448
 20
-14.67608
 30
0.0
 10
-11.60949
 20
-14.66903
 30
0.0
 10
-11.61302
 20
-14.66119
 30
0.0
 10
-11.61302
 20
-14.66119
 30
0.0
 10
-11.61655
 20
-14.65336
 30
0.0
 10
-11.61831
 20
-14.64546
 30
0.0
 10
-11.61831
 20
-14.63742
 30
0.0
 10
-11.61831
 20
-14.63742
 30
0.0
 10
-11.61831
 20
-14.63742
 30
0.0
 10
-11.61831
 20
-14.60609
 30
0.0
 10
-11.61831
 20
-14.60609
 30
0.0
 10
-11.61831
 20
-14.60609
 30
0.0
 10
-11.61831
 20
-14.60609
 30
0.0
 10
-11.61831
 20
-14.63742
 30
0.0
 10
-11.61831
 20
-14.63742
 30
0.0
 10
-11.61831
 20
-14.63742
 30
0.0
 10
-11.61831
 20
-14.64546
 30
0.0
 10
-11.61655
 20
-14.65336
 30
0.0
 10
-11.61302
 20
-14.66119
 30
0.0
 10
-11.61302
 20
-14.66119
 30
0.0
 10
-11.60949
 20
-14.66903
 30
0.0
 10
-11.60448
 20
-14.67608
 30
0.0
 10
-11.59785
 20
-14.6825
 30
0.0
 10
-11.59785
 20
-14.6825
 30
0.0
 10
-11.59129
 20
-14.68892
 30
0.0
 10
-11.58332
 20
-14.694
 30
0.0
 10
-11.574
 20
-14.69781
 30
0.0
 10
-11.574
 20
-14.69781
 30
0.0
 10
-11.56469
 20
-14.70155
 30
0.0
 10
-11.55418
 20
-14.70346
 30
0.0
 10
-11.54253
 20
-14.70346
 30
0.0
 10
-11.54253
 20
-14.70346
 30
0.0
 10
-11.53089
 20
-14.70332
 30
0.0
 10
-11.52059
 20
-14.70134
 30
0.0
 10
-11.51156
 20
-14.69739
 30
0.0
 10
-11.51156
 20
-14.69739
 30
0.0
 10
-11.5026
 20
-14.69351
 30
0.0
 10
-11.49505
 20
-14.68829
 30
0.0
 10
-11.48884
 20
-14.68187
 30
0.0
 10
-11.48884
 20
-14.68187
 30
0.0
 10
-11.4827
 20
-14.67538
 30
0.0
 10
-11.47805
 20
-14.66832
 30
0.0
 10
-11.47487
 20
-14.66056
 30
0.0
 10
-11.47487
 20
-14.66056
 30
0.0
 10
-11.47177
 20
-14.65287
 30
0.0
 10
-11.47014
 20
-14.64511
 30
0.0
 10
-11.47014
 20
-14.63742
 30
0.0
 10
-11.47014
 20
-14.63742
 30
0.0
 10
-11.47014
 20
-14.63742
 30
0.0
 10
-11.46972
 20
-14.40035
 30
0.0
 10
-11.46972
 20
-14.40035
 30
0.0
  0
SPLINE
  5
62
330
1F
100
AcDbEntity
  8
Layer 1
 62
     5
370
    53
100
AcDbSpline
210
0.0
220
0.0
230
1.0
 70
    11
 71
     3
 72
    20
 73
    16
 74
     0
 42
0.0000000001
 43
0.0000000001
 40
0.0
 40
0.0
 40
0.0
 40
0.0
 40
0.25
 40
0.25
 40
0.25
 40
0.25
 40
0.5
 40
0.5
 40
0.5
 40
0.5
 40
0.75
 40
0.75
 40
0.75
 40
0.75
 40
1.0
 40
1.0
 40
1.0
 40
1.0
 10
-11.37151
 20
-14.70388
 30
0.0
 10
-11.37151
 20
-14.70388
 30
0.0
 10
-11.25044
 20
-14.39866
 30
0.0
 10
-11.25044
 20
-14.39866
 30
0.0
 10
-11.25044
 20
-14.39866
 30
0.0
 10
-11.25044
 20
-14.39866
 30
0.0
 10
-11.12893
 20
-14.70388
 30
0.0
 10
-11.12893
 20
-14.70388
 30
0.0
 10
-11.12893
 20
-14.70388
 30
0.0
 10
-11.12893
 20
-14.70388
 30
0.0
 10
-11.25044
 20
-14.39866
 30
0.0
 10
-11.25044
 20
-14.39866
 30
0.0
 10
-11.25044
 20
-14.39866
 30
0.0
 10
-11.25044
 20
-14.39866
 30
0.0
 10
-11.37151
 20
-14.70388
 30
0.0
 10
-11.37151
 20
-14.70388
 30
0.0
  0
SPLINE
  5
63
330
1F
100
AcDbEntity
  8
Layer 1
 62
     5
370
    53
100
AcDbSpline
210
0.0
220
0.0
230
1.0
 70
    27
 71
     3
 72
    12
 73
     8
 74
     0
 42
0.0000000001
 43
0.0000000001
 40
0.0
 40
0.0
 40
0.0
 40
0.0
 40
0.5
 40
0.5
 40
0.5
 40
0.5
 40
1.0
 40
1.0
 40
1.0
 40
1.0
 10
-11.33341
 20
-14.60778
 30
0.0
 10
-11.33341
 20
-14.60778
 30
0.0
 10
-11.16747
 20
-14.60778
 30
0.0
 10
-11.16747
 20
-14.60778
 30
0.0
 10
-11.16747
 20
-14.60778
 30
0.0
 10
-11.16747
 20
-14.60778
 30
0.0
 10
-11.33341
 20
-14.60778
 30
0.0
 10
-11.33341
 20
-14.60778
 30
0.0
  0
SPLINE
  5
64
330
1F
100
AcDbEntity
  8
Layer 1
 62
     5
370
    53
100
AcDbSpline
210
0.0
220
0.0
230
1.0
 70
    27
 71
     3
 72
    12
 73
     8
 74
     0
 42
0.0000000001
 43
0.0000000001
 40
0.0
 40
0.0
 40
0.0
 40
0.0
 40
0.5
 40
0.5
 40
0.5
 40
0.5
 40
1.0
 40
1.0
 40
1.0
 40
1.0
 10
-11.02564
 20
-14.54428
 30
0.0
 10
-11.02564
 20
-14.54428
 30
0.0
 10
-10.90245
 20
-14.54428
 30
0.0
 10
-10.90245
 20
-14.54428
 30
0.0
 10
-10.90245
 20
-14.54428
 30
0.0
 10
-10.90245
 20
-14.54428
 30
0.0
 10
-11.02564
 20
-14.54428
 30
0.0
 10
-11.02564
 20
-14.54428
 30
0.0
  0
SPLINE
  5
65
330
1F
100
AcDbEntity
  8
Layer 1
 62
     5
370
    53
100
AcDbSpline
210
0.0
220
0.0
230
1.0
 70
    11
 71
     3
 72
    84
 73
    80
 74
     0
 42
0.0000000001
 43
0.0000000001
 40
0.0
 40
0.0
 40
0.0
 40
0.0
 40
0.05
 40
0.05
 40
0.05
 40
0.05
 40
0.1
 40
0.1
 40
0.1
 40
0.1
 40
0.15
 40
0.15
 40
0.15
 40
0.15
 40
0.2
 40
0.2
 40
0.2
 40
0.2
 40
0.25
 40
0.25
 40
0.25
 40
0.25
 40
0.3
 40
0.3
 40
0.3
 40
0.3
 40
0.35
 40
0.35
 40
0.35
 40
0.35
 40
0.4
 40
0.4
 40
0.4
 40
0.4
 40
0.45
 40
0.45
 40
0.45
 40
0.45
 40
0.4999999999999999
 40
0.4999999999999999
 40
0.4999999999999999
 40
0.4999999999999999
 40
0.5499999999999999
 40
0.5499999999999999
 40
0.5499999999999999
 40
0.5499999999999999
 40
0.6
 40
0.6
 40
0.6
 40
0.6
 40
0.65
 40
0.65
 40
0.65
 40
0.65
 40
0.7000000000000001
 40
0.7000000000000001
 40
0.7000000000000001
 40
0.7000000000000001
 40
0.7500000000000001
 40
0.7500000000000001
 40
0.7500000000000001
 40
0.7500000000000001
 40
0.8000000000000002
 40
0.8000000000000002
 40
0.8000000000000002
 40
0.8000000000000002
 40
0.8500000000000002
 40
0.8500000000000002
 40
0.8500000000000002
 40
0.8500000000000002
 40
0.9000000000000002
 40
0.9000000000000002
 40
0.9000000000000002
 40
0.9000000000000002
 40
0.9500000000000003
 40
0.9500000000000003
 40
0.9500000000000003
 40
0.9500000000000003
 40
1.0
 40
1.0
 40
1.0
 40
1.0
 10
-10.71322
 20
-14.70388
 30
0.0
 10
-10.69841
 20
-14.70381
 30
0.0
 10
-10.68564
 20
-14.7012
 30
0.0
 10
-10.67498
 20
-14.69612
 30
0.0
 10
-10.67498
 20
-14.69612
 30
0.0
 10
-10.6644
 20
-14.69104
 30
0.0
 10
-10.65558
 20
-14.68377
 30
0.0
 10
-10.64853
 20
-14.67453
 30
0.0
 10
-10.64853
 20
-14.67453
 30
0.0
 10
-10.64154
 20
-14.66522
 30
0.0
 10
-10.63604
 20
-14.65421
 30
0.0
 10
-10.63195
 20
-14.64151
 30
0.0
 10
-10.63195
 20
-14.64151
 30
0.0
 10
-10.62792
 20
-14.62881
 30
0.0
 10
-10.62503
 20
-14.61491
 30
0.0
 10
-10.62341
 20
-14.59967
 30
0.0
 10
-10.62341
 20
-14.59967
 30
0.0
 10
-10.62171
 20
-14.58443
 30
0.0
 10
-10.62087
 20
-14.56841
 30
0.0
 10
-10.62094
 20
-14.55148
 30
0.0
 10
-10.62094
 20
-14.55148
 30
0.0
 10
-10.62087
 20
-14.53462
 30
0.0
 10
-10.62171
 20
-14.5186
 30
0.0
 10
-10.62341
 20
-14.50343
 30
0.0
 10
-10.62341
 20
-14.50343
 30
0.0
 10
-10.62503
 20
-14.48826
 30
0.0
 10
-10.62792
 20
-14.47429
 30
0.0
 10
-10.63195
 20
-14.46159
 30
0.0
 10
-10.63195
 20
-14.46159
 30
0.0
 10
-10.63604
 20
-14.44896
 30
0.0
 10
-10.64154
 20
-14.43796
 30
0.0
 10
-10.64853
 20
-14.42857
 30
0.0
 10
-10.64853
 20
-14.42857
 30
0.0
 10
-10.65558
 20
-14.41926
 30
0.0
 10
-10.6644
 20
-14.41199
 30
0.0
 10
-10.67498
 20
-14.40691
 30
0.0
 10
-10.67498
 20
-14.40691
 30
0.0
 10
-10.68564
 20
-14.40176
 30
0.0
 10
-10.69841
 20
-14.39915
 30
0.0
 10
-10.71322
 20
-14.39908
 30
0.0
 10
-10.71322
 20
-14.39908
 30
0.0
 10
-10.72804
 20
-14.39915
 30
0.0
 10
-10.74081
 20
-14.40176
 30
0.0
 10
-10.75147
 20
-14.40691
 30
0.0
 10
-10.75147
 20
-14.40691
 30
0.0
 10
-10.76205
 20
-14.41199
 30
0.0
 10
-10.77087
 20
-14.41926
 30
0.0
 10
-10.77792
 20
-14.42857
 30
0.0
 10
-10.77792
 20
-14.42857
 30
0.0
 10
-10.78491
 20
-14.43796
 30
0.0
 10
-10.79041
 20
-14.44896
 30
0.0
 10
-10.7945
 20
-14.46159
 30
0.0
 10
-10.7945
 20
-14.46159
 30
0.0
 10
-10.79853
 20
-14.47429
 30
0.0
 10
-10.80142
 20
-14.48826
 30
0.0
 10
-10.80304
 20
-14.50343
 30
0.0
 10
-10.80304
 20
-14.50343
 30
0.0
 10
-10.80473
 20
-14.5186
 30
0.0
 10
-10.80558
 20
-14.53462
 30
0.0
 10
-10.80551
 20
-14.55148
 30
0.0
 10
-10.80551
 20
-14.55148
 30
0.0
 10
-10.80558
 20
-14.56841
 30
0.0
 10
-10.80473
 20
-14.58443
 30
0.0
 10
-10.80304
 20
-14.59967
 30
0.0
 10
-10.80304
 20
-14.59967
 30
0.0
 10
-10.80142
 20
-14.61491
 30
0.0
 10
-10.79853
 20
-14.62881
 30
0.0
 10
-10.7945
 20
-14.64151
 30
0.0
 10
-10.7945
 20
-14.64151
 30
0.0
 10
-10.79041
 20
-14.65421
 30
0.0
 10
-10.78491
 20
-14.66522
 30
0.0
 10
-10.77792
 20
-14.67453
 30
0.0
 10
-10.77792
 20
-14.67453
 30
0.0
 10
-10.77087
 20
-14.68377
 30
0.0
 10
-10.76205
 20
-14.69104
 30
0.0
 10
-10.75147
 20
-14.69612
 30
0.0
 10
-10.75147
 20
-14.69612
 30
0.0
 10
-10.74081
 20
-14.7012
 30
0.0
 10
-10.72804
 20
-14.70381
 30
0.0
 10
-10.71322
 20
-14.70388
 30
0.0
  0
SPLINE
  5
66
330
1F
100
AcDbEntity
  8
Layer 1
 62
     5
370
    53
100
AcDbSpline
210
0.0
220
0.0
230
1.0
 70
    11
 71
     3
 72
    84
 73
    80
 74
     0
 42
0.0000000001
 43
0.0000000001
 40
0.0
 40
0.0
 40
0.0
 40
0.0
 40
0.05
 40
0.05
 40
0.05
 40
0.05
 40
0.1
 40
0.1
 40
0.1
 40
0.1
 40
0.15
 40
0.15
 40
0.15
 40
0.15
 40
0.2
 40
0.2
 40
0.2
 40
0.2
 40
0.25
 40
0.25
 40
0.25
 40
0.25
 40
0.3
 40
0.3
 40
0.3
 40
0.3
 40
0.35
 40
0.35
 40
0.35
 40
0.35
 40
0.4
 40
0.4
 40
0.4
 40
0.4
 40
0.45
 40
0.45
 40
0.45
 40
0.45
 40
0.4999999999999999
 40
0.4999999999999999
 40
0.4999999999999999
 40
0.4999999999999999
 40
0.5499999999999999
 40
0.5499999999999999
 40
0.5499999999999999
 40
0.5499999999999999
 40
0.6
 40
0.6
 40
0.6
 40
0.6
 40
0.65
 40
0.65
 40
0.65
 40
0.65
 40
0.7000000000000001
 40
0.7000000000000001
 40
0.7000000000000001
 40
0.7000000000000001
 40
0.7500000000000001
 40
0.7500000000000001
 40
0.7500000000000001
 40
0.7500000000000001
 40
0.8000000000000002
 40
0.8000000000000002
 40
0.8000000000000002
 40
0.8000000000000002
 40
0.8500000000000002
 40
0.8500000000000002
 40
0.8500000000000002
 40
0.8500000000000002
 40
0.9000000000000002
 40
0.9000000000000002
 40
0.9000000000000002
 40
0.9000000000000002
 40
0.9500000000000003
 40
0.9500000000000003
 40
0.9500000000000003
 40
0.9500000000000003
 40
1.0
 40
1.0
 40
1.0
 40
1.0
 10
-10.71322
 20
-14.70388
 30
0.0
 10
-10.69841
 20
-14.70381
 30
0.0
 10
-10.68564
 20
-14.7012
 30
0.0
 10
-10.67498
 20
-14.69612
 30
0.0
 10
-10.67498
 20
-14.69612
 30
0.0
 10
-10.6644
 20
-14.69104
 30
0.0
 10
-10.65558
 20
-14.68377
 30
0.0
 10
-10.64853
 20
-14.67453
 30
0.0
 10
-10.64853
 20
-14.67453
 30
0.0
 10
-10.64154
 20
-14.66522
 30
0.0
 10
-10.63604
 20
-14.65421
 30
0.0
 10
-10.63195
 20
-14.64151
 30
0.0
 10
-10.63195
 20
-14.64151
 30
0.0
 10
-10.62792
 20
-14.62881
 30
0.0
 10
-10.62503
 20
-14.61491
 30
0.0
 10
-10.62341
 20
-14.59967
 30
0.0
 10
-10.62341
 20
-14.59967
 30
0.0
 10
-10.62171
 20
-14.58443
 30
0.0
 10
-10.62087
 20
-14.56841
 30
0.0
 10
-10.62094
 20
-14.55148
 30
0.0
 10
-10.62094
 20
-14.55148
 30
0.0
 10
-10.62087
 20
-14.53462
 30
0.0
 10
-10.62171
 20
-14.5186
 30
0.0
 10
-10.62341
 20
-14.50343
 30
0.0
 10
-10.62341
 20
-14.50343
 30
0.0
 10
-10.62503
 20
-14.48826
 30
0.0
 10
-10.62792
 20
-14.47429
 30
0.0
 10
-10.63195
 20
-14.46159
 30
0.0
 10
-10.63195
 20
-14.46159
 30
0.0
 10
-10.63604
 20
-14.44896
 30
0.0
 10
-10.64154
 20
-14.43796
 30
0.0
 10
-10.64853
 20
-14.42857
 30
0.0
 10
-10.64853
 20
-14.42857
 30
0.0
 10
-10.65558
 20
-14.41926
 30
0.0
 10
-10.6644
 20
-14.41199
 30
0.0
 10
-10.67498
 20
-14.40691
 30
0.0
 10
-10.67498
 20
-14.40691
 30
0.0
 10
-10.68564
 20
-14.40176
 30
0.0
 10
-10.69841
 20
-14.39915
 30
0.0
 10
-10.71322
 20
-14.39908
 30
0.0
 10
-10.71322
 20
-14.39908
 30
0.0
 10
-10.72804
 20
-14.39915
 30
0.0
 10
-10.74081
 20
-14.40176
 30
0.0
 10
-10.75147
 20
-14.40691
 30
0.0
 10
-10.75147
 20
-14.40691
 30
0.0
 10
-10.76205
 20
-14.41199
 30
0.0
 10
-10.77087
 20
-14.41926
 30
0.0
 10
-10.77792
 20
-14.42857
 30
0.0
 10
-10.77792
 20
-14.42857
 30
0.0
 10
-10.78491
 20
-14.43796
 30
0.0
 10
-10.79041
 20
-14.44896
 30
0.0
 10
-10.7945
 20
-14.46159
 30
0.0
 10
-10.7945
 20
-14.46159
 30
0.0
 10
-10.79853
 20
-14.47429
 30
0.0
 10
-10.80142
 20
-14.48826
 30
0.0
 10
-10.80304
 20
-14.50343
 30
0.0
 10
-10.80304
 20
-14.50343
 30
0.0
 10
-10.80473
 20
-14.5186
 30
0.0
 10
-10.80558
 20
-14.53462
 30
0.0
 10
-10.80551
 20
-14.55148
 30
0.0
 10
-10.80551
 20
-14.55148
 30
0.0
 10
-10.80558
 20
-14.56841
 30
0.0
 10
-10.80473
 20
-14.58443
 30
0.0
 10
-10.80304
 20
-14.59967
 30
0.0
 10
-10.80304
 20
-14.59967
 30
0.0
 10
-10.80142
 20
-14.61491
 30
0.0
 10
-10.79853
 20
-14.62881
 30
0.0
 10
-10.7945
 20
-14.64151
 30
0.0
 10
-10.7945
 20
-14.64151
 30
0.0
 10
-10.79041
 20
-14.65421
 30
0.0
 10
-10.78491
 20
-14.66522
 30
0.0
 10
-10.77792
 20
-14.67453
 30
0.0
 10
-10.77792
 20
-14.67453
 30
0.0
 10
-10.77087
 20
-14.68377
 30
0.0
 10
-10.76205
 20
-14.69104
 30
0.0
 10
-10.75147
 20
-14.69612
 30
0.0
 10
-10.75147
 20
-14.69612
 30
0.0
 10
-10.74081
 20
-14.7012
 30
0.0
 10
-10.72804
 20
-14.70381
 30
0.0
 10
-10.71322
 20
-14.70388
 30
0.0
  0
SPLINE
  5
67
330
1F
100
AcDbEntity
  8
Layer 1
 62
     5
370
    53
100
AcDbSpline
210
0.0
220
0.0
230
1.0
 70
    11
 71
     3
 72
   180
 73
   176
 74
     0
 42
0.0000000001
 43
0.0000000001
 40
0.0
 40
0.0
 40
0.0
 40
0.0
 40
0.0227272727272727
 40
0.0227272727272727
 40
0.0227272727272727
 40
0.0227272727272727
 40
0.0454545454545455
 40
0.0454545454545455
 40
0.0454545454545455
 40
0.0454545454545455
 40
0.0681818181818182
 40
0.0681818181818182
 40
0.0681818181818182
 40
0.0681818181818182
 40
0.0909090909090909
 40
0.0909090909090909
 40
0.0909090909090909
 40
0.0909090909090909
 40
0.1136363636363636
 40
0.1136363636363636
 40
0.1136363636363636
 40
0.1136363636363636
 40
0.1363636363636364
 40
0.1363636363636364
 40
0.1363636363636364
 40
0.1363636363636364
 40
0.1590909090909091
 40
0.1590909090909091
 40
0.1590909090909091
 40
0.1590909090909091
 40
0.1818181818181819
 40
0.1818181818181819
 40
0.1818181818181819
 40
0.1818181818181819
 40
0.2045454545454546
 40
0.2045454545454546
 40
0.2045454545454546
 40
0.2045454545454546
 40
0.2272727272727273
 40
0.2272727272727273
 40
0.2272727272727273
 40
0.2272727272727273
 40
0.2500000000000001
 40
0.2500000000000001
 40
0.2500000000000001
 40
0.2500000000000001
 40
0.2727272727272728
 40
0.2727272727272728
 40
0.2727272727272728
 40
0.2727272727272728
 40
0.2954545454545455
 40
0.2954545454545455
 40
0.2954545454545455
 40
0.2954545454545455
 40
0.3181818181818182
 40
0.3181818181818182
 40
0.3181818181818182
 40
0.3181818181818182
 40
0.3409090909090909
 40
0.3409090909090909
 40
0.3409090909090909
 40
0.3409090909090909
 40
0.3636363636363636
 40
0.3636363636363636
 40
0.3636363636363636
 40
0.3636363636363636
 40
0.3863636363636363
 40
0.3863636363636363
 40
0.3863636363636363
 40
0.3863636363636363
 40
0.409090909090909
 40
0.409090909090909
 40
0.409090909090909
 40
0.409090909090909
 40
0.4318181818181817
 40
0.4318181818181817
 40
0.4318181818181817
 40
0.4318181818181817
 40
0.4545454545454544
 40
0.4545454545454544
 40
0.4545454545454544
 40
0.4545454545454544
 40
0.4772727272727271
 40
0.4772727272727271
 40
0.4772727272727271
 40
0.4772727272727271
 40
0.4999999999999998
 40
0.4999999999999998
 40
0.4999999999999998
 40
0.4999999999999998
 40
0.5227272727272726
 40
0.5227272727272726
 40
0.5227272727272726
 40
0.5227272727272726
 40
0.5454545454545453
 40
0.5454545454545453
 40
0.5454545454545453
 40
0.5454545454545453
 40
0.568181818181818
 40
0.568181818181818
 40
0.568181818181818
 40
0.568181818181818
 40
0.5909090909090907
 40
0.5909090909090907
 40
0.5909090909090907
 40
0.5909090909090907
 40
0.6136363636363634
 40
0.6136363636363634
 40
0.6136363636363634
 40
0.6136363636363634
 40
0.6363636363636361
 40
0.6363636363636361
 40
0.6363636363636361
 40
0.6363636363636361
 40
0.6590909090909088
 40
0.6590909090909088
 40
0.6590909090909088
 40
0.6590909090909088
 40
0.6818181818181815
 40
0.6818181818181815
 40
0.6818181818181815
 40
0.6818181818181815
 40
0.7045454545454543
 40
0.7045454545454543
 40
0.7045454545454543
 40
0.7045454545454543
 40
0.727272727272727
 40
0.727272727272727
 40
0.727272727272727
 40
0.727272727272727
 40
0.7499999999999997
 40
0.7499999999999997
 40
0.7499999999999997
 40
0.7499999999999997
 40
0.7727272727272724
 40
0.7727272727272724
 40
0.7727272727272724
 40
0.7727272727272724
 40
0.7954545454545451
 40
0.7954545454545451
 40
0.7954545454545451
 40
0.7954545454545451
 40
0.8181818181818178
 40
0.8181818181818178
 40
0.8181818181818178
 40
0.8181818181818178
 40
0.8409090909090905
 40
0.8409090909090905
 40
0.8409090909090905
 40
0.8409090909090905
 40
0.8636363636363632
 40
0.8636363636363632
 40
0.8636363636363632
 40
0.8636363636363632
 40
0.8863636363636359
 40
0.8863636363636359
 40
0.8863636363636359
 40
0.8863636363636359
 40
0.9090909090909086
 40
0.9090909090909086
 40
0.9090909090909086
 40
0.9090909090909086
 40
0.9318181818181813
 40
0.9318181818181813
 40
0.9318181818181813
 40
0.9318181818181813
 40
0.954545454545454
 40
0.954545454545454
 40
0.954545454545454
 40
0.954545454545454
 40
0.9772727272727267
 40
0.9772727272727267
 40
0.9772727272727267
 40
0.9772727272727267
 40
1.0
 40
1.0
 40
1.0
 40
1.0
 10
-10.5206
 20
-14.62726
 30
0.0
 10
-10.52053
 20
-14.6425
 30
0.0
 10
-10.517
 20
-14.65576
 30
0.0
 10
-10.51002
 20
-14.66726
 30
0.0
 10
-10.51002
 20
-14.66726
 30
0.0
 10
-10.50303
 20
-14.67869
 30
0.0
 10
-10.49308
 20
-14.68765
 30
0.0
 10
-10.4801
 20
-14.69407
 30
0.0
 10
-10.4801
 20
-14.69407
 30
0.0
 10
-10.46712
 20
-14.70049
 30
0.0
 10
-10.45153
 20
-14.70374
 30
0.0
 10
-10.43339
 20
-14.70388
 30
0.0
 10
-10.43339
 20
-14.70388
 30
0.0
 10
-10.41978
 20
-14.70388
 30
0.0
 10
-10.40743
 20
-14.70247
 30
0.0
 10
-10.39621
 20
-14.69951
 30
0.0
 10
-10.39621
 20
-14.69951
 30
0.0
 10
-10.38506
 20
-14.69654
 30
0.0
 10
-10.37547
 20
-14.69196
 30
0.0
 10
-10.36735
 20
-14.68568
 30
0.0
 10
-10.36735
 20
-14.68568
 30
0.0
 10
-10.35924
 20
-14.6794
 30
0.0
 10
-10.35303
 20
-14.67128
 30
0.0
 10
-10.34859
 20
-14.66141
 30
0.0
 10
-10.34859
 20
-14.66141
 30
0.0
 10
-10.34421
 20
-14.65146
 30
0.0
 10
-10.34203
 20
-14.63953
 30
0.0
 10
-10.34196
 20
-14.62556
 30
0.0
 10
-10.34196
 20
-14.62556
 30
0.0
 10
-10.34188
 20
-14.60694
 30
0.0
 10
-10.34569
 20
-14.5912
 30
0.0
 10
-10.35324
 20
-14.57843
 30
0.0
 10
-10.35324
 20
-14.57843
 30
0.0
 10
-10.36079
 20
-14.56566
 30
0.0
 10
-10.37251
 20
-14.55607
 30
0.0
 10
-10.38824
 20
-14.54951
 30
0.0
 10
-10.38824
 20
-14.54951
 30
0.0
 10
-10.40397
 20
-14.54294
 30
0.0
 10
-10.42415
 20
-14.53963
 30
0.0
 10
-10.44863
 20
-14.53963
 30
0.0
 10
-10.44863
 20
-14.53963
 30
0.0
 10
-10.43036
 20
-14.5397
 30
0.0
 10
-10.41505
 20
-14.53801
 30
0.0
 10
-10.40256
 20
-14.53455
 30
0.0
 10
-10.40256
 20
-14.53455
 30
0.0
 10
-10.39014
 20
-14.53109
 30
0.0
 10
-10.3802
 20
-14.52622
 30
0.0
 10
-10.37272
 20
-14.51987
 30
0.0
 10
-10.37272
 20
-14.51987
 30
0.0
 10
-10.36524
 20
-14.51359
 30
0.0
 10
-10.35981
 20
-14.50611
 30
0.0
 10
-10.35656
 20
-14.49751
 30
0.0
 10
-10.35656
 20
-14.49751
 30
0.0
 10
-10.35324
 20
-14.48897
 30
0.0
 10
-10.35162
 20
-14.47959
 30
0.0
 10
-10.35169
 20
-14.46936
 30
0.0
 10
-10.35169
 20
-14.46936
 30
0.0
 10
-10.35162
 20
-14.45912
 30
0.0
 10
-10.35303
 20
-14.44967
 30
0.0
 10
-10.35585
 20
-14.44092
 30
0.0
 10
-10.35585
 20
-14.44092
 30
0.0
 10
-10.35861
 20
-14.43217
 30
0.0
 10
-10.36312
 20
-14.42448
 30
0.0
 10
-10.36926
 20
-14.41792
 30
0.0
 10
-10.36926
 20
-14.41792
 30
0.0
 10
-10.3754
 20
-14.41136
 30
0.0
 10
-10.38351
 20
-14.40621
 30
0.0
 10
-10.39346
 20
-14.40254
 30
0.0
 10
-10.39346
 20
-14.40254
 30
0.0
 10
-10.40348
 20
-14.39887
 30
0.0
 10
-10.41569
 20
-14.39704
 30
0.0
 10
-10.43001
 20
-14.39697
 30
0.0
 10
-10.43001
 20
-14.39697
 30
0.0
 10
-10.44426
 20
-14.39704
 30
0.0
 10
-10.45675
 20
-14.39915
 30
0.0
 10
-10.46733
 20
-14.40325
 30
0.0
 10
-10.46733
 20
-14.40325
 30
0.0
 10
-10.47799
 20
-14.40734
 30
0.0
 10
-10.48673
 20
-14.41291
 30
0.0
 10
-10.49379
 20
-14.42004
 30
0.0
 10
-10.49379
 20
-14.42004
 30
0.0
 10
-10.50077
 20
-14.42716
 30
0.0
 10
-10.506
 20
-14.43528
 30
0.0
 10
-10.50945
 20
-14.44445
 30
0.0
 10
-10.50945
 20
-14.44445
 30
0.0
 10
-10.51298
 20
-14.45362
 30
0.0
 10
-10.51467
 20
-14.46336
 30
0.0
 10
-10.51467
 20
-14.47359
 30
0.0
 10
-10.51467
 20
-14.47359
 30
0.0
 10
-10.51467
 20
-14.46336
 30
0.0
 10
-10.51298
 20
-14.45362
 30
0.0
 10
-10.50945
 20
-14.44445
 30
0.0
 10
-10.50945
 20
-14.44445
 30
0.0
 10
-10.506
 20
-14.43528
 30
0.0
 10
-10.50077
 20
-14.42716
 30
0.0
 10
-10.49379
 20
-14.42004
 30
0.0
 10
-10.49379
 20
-14.42004
 30
0.0
 10
-10.48673
 20
-14.41291
 30
0.0
 10
-10.47799
 20
-14.40734
 30
0.0
 10
-10.46733
 20
-14.40325
 30
0.0
 10
-10.46733
 20
-14.40325
 30
0.0
 10
-10.45675
 20
-14.39915
 30
0.0
 10
-10.44426
 20
-14.39704
 30
0.0
 10
-10.43001
 20
-14.39697
 30
0.0
 10
-10.43001
 20
-14.39697
 30
0.0
 10
-10.41569
 20
-14.39704
 30
0.0
 10
-10.40348
 20
-14.39887
 30
0.0
 10
-10.39346
 20
-14.40254
 30
0.0
 10
-10.39346
 20
-14.40254
 30
0.0
 10
-10.38351
 20
-14.40621
 30
0.0
 10
-10.3754
 20
-14.41136
 30
0.0
 10
-10.36926
 20
-14.41792
 30
0.0
 10
-10.36926
 20
-14.41792
 30
0.0
 10
-10.36312
 20
-14.42448
 30
0.0
 10
-10.35861
 20
-14.43217
 30
0.0
 10
-10.35585
 20
-14.44092
 30
0.0
 10
-10.35585
 20
-14.44092
 30
0.0
 10
-10.35303
 20
-14.44967
 30
0.0
 10
-10.35162
 20
-14.45912
 30
0.0
 10
-10.35169
 20
-14.46936
 30
0.0
 10
-10.35169
 20
-14.46936
 30
0.0
 10
-10.35162
 20
-14.47959
 30
0.0
 10
-10.35324
 20
-14.48897
 30
0.0
 10
-10.35656
 20
-14.49751
 30
0.0
 10
-10.35656
 20
-14.49751
 30
0.0
 10
-10.35981
 20
-14.50611
 30
0.0
 10
-10.36524
 20
-14.51359
 30
0.0
 10
-10.37272
 20
-14.51987
 30
0.0
 10
-10.37272
 20
-14.51987
 30
0.0
 10
-10.3802
 20
-14.52622
 30
0.0
 10
-10.39014
 20
-14.53109
 30
0.0
 10
-10.40256
 20
-14.53455
 30
0.0
 10
-10.40256
 20
-14.53455
 30
0.0
 10
-10.41505
 20
-14.53801
 30
0.0
 10
-10.43036
 20
-14.5397
 30
0.0
 10
-10.44863
 20
-14.53963
 30
0.0
 10
-10.44863
 20
-14.53963
 30
0.0
 10
-10.42415
 20
-14.53963
 30
0.0
 10
-10.40397
 20
-14.54294
 30
0.0
 10
-10.38824
 20
-14.54951
 30
0.0
 10
-10.38824
 20
-14.54951
 30
0.0
 10
-10.37251
 20
-14.55607
 30
0.0
 10
-10.36079
 20
-14.56566
 30
0.0
 10
-10.35324
 20
-14.57843
 30
0.0
 10
-10.35324
 20
-14.57843
 30
0.0
 10
-10.34569
 20
-14.5912
 30
0.0
 10
-10.34188
 20
-14.60694
 30
0.0
 10
-10.34196
 20
-14.62556
 30
0.0
 10
-10.34196
 20
-14.62556
 30
0.0
 10
-10.34203
 20
-14.63953
 30
0.0
 10
-10.34421
 20
-14.65146
 30
0.0
 10
-10.34859
 20
-14.66141
 30
0.0
 10
-10.34859
 20
-14.66141
 30
0.0
 10
-10.35303
 20
-14.67128
 30
0.0
 10
-10.35924
 20
-14.6794
 30
0.0
 10
-10.36735
 20
-14.68568
 30
0.0
 10
-10.36735
 20
-14.68568
 30
0.0
 10
-10.37547
 20
-14.69196
 30
0.0
 10
-10.38506
 20
-14.69654
 30
0.0
 10
-10.39621
 20
-14.69951
 30
0.0
 10
-10.39621
 20
-14.69951
 30
0.0
 10
-10.40743
 20
-14.70247
 30
0.0
 10
-10.41978
 20
-14.70388
 30
0.0
 10
-10.43339
 20
-14.70388
 30
0.0
 10
-10.43339
 20
-14.70388
 30
0.0
 10
-10.45153
 20
-14.70374
 30
0.0
 10
-10.46712
 20
-14.70049
 30
0.0
 10
-10.4801
 20
-14.69407
 30
0.0
 10
-10.4801
 20
-14.69407
 30
0.0
 10
-10.49308
 20
-14.68765
 30
0.0
 10
-10.50303
 20
-14.67869
 30
0.0
 10
-10.51002
 20
-14.66726
 30
0.0
 10
-10.51002
 20
-14.66726
 30
0.0
 10
-10.517
 20
-14.65576
 30
0.0
 10
-10.52053
 20
-14.6425
 30
0.0
 10
-10.5206
 20
-14.62726
 30
0.0
  0
SPLINE
  5
68
330
1F
100
AcDbEntity
  8
Layer 1
 62
     5
370
    53
100
AcDbSpline
210
0.0
220
0.0
230
1.0
 70
    27
 71
     3
 72
    12
 73
     8
 74
     0
 42
0.0000000001
 43
0.0000000001
 40
0.0
 40
0.0
 40
0.0
 40
0.0
 40
0.5
 40
0.5
 40
0.5
 40
0.5
 40
1.0
 40
1.0
 40
1.0
 40
1.0
 10
-10.24205
 20
-14.54428
 30
0.0
 10
-10.24205
 20
-14.54428
 30
0.0
 10
-10.11886
 20
-14.54428
 30
0.0
 10
-10.11886
 20
-14.54428
 30
0.0
 10
-10.11886
 20
-14.54428
 30
0.0
 10
-10.11886
 20
-14.54428
 30
0.0
 10
-10.24205
 20
-14.54428
 30
0.0
 10
-10.24205
 20
-14.54428
 30
0.0
  0
SPLINE
  5
69
330
1F
100
AcDbEntity
  8
Layer 1
 62
     5
370
    53
100
AcDbSpline
210
0.0
220
0.0
230
1.0
 70
    11
 71
     3
 72
    24
 73
    20
 74
     0
 42
0.0000000001
 43
0.0000000001
 40
0.0
 40
0.0
 40
0.0
 40
0.0
 40
0.2
 40
0.2
 40
0.2
 40
0.2
 40
0.4
 40
0.4
 40
0.4
 40
0.4
 40
0.6000000000000001
 40
0.6000000000000001
 40
0.6000000000000001
 40
0.6000000000000001
 40
0.8
 40
0.8
 40
0.8
 40
0.8
 40
1.0
 40
1.0
 40
1.0
 40
1.0
 10
-9.91227
 20
-14.70388
 30
0.0
 10
-9.91227
 20
-14.70388
 30
0.0
 10
-9.91227
 20
-14.39866
 30
0.0
 10
-9.91227
 20
-14.39866
 30
0.0
 10
-9.91227
 20
-14.39866
 30
0.0
 10
-9.91227
 20
-14.39866
 30
0.0
 10
-10.02191
 20
-14.39866
 30
0.0
 10
-10.02191
 20
-14.39866
 30
0.0
 10
-10.02191
 20
-14.39866
 30
0.0
 10
-10.02191
 20
-14.39866
 30
0.0
 10
-9.80178
 20
-14.39866
 30
0.0
 10
-9.80178
 20
-14.39866
 30
0.0
 10
-9.80178
 20
-14.39866
 30
0.0
 10
-9.80178
 20
-14.39866
 30
0.0
 10
-9.91227
 20
-14.39866
 30
0.0
 10
-9.91227
 20
-14.39866
 30
0.0
 10
-9.91227
 20
-14.39866
 30
0.0
 10
-9.91227
 20
-14.39866
 30
0.0
 10
-9.91227
 20
-14.70388
 30
0.0
 10
-9.91227
 20
-14.70388
 30
0.0
  0
SPLINE
  5
6A
330
1F
100
AcDbEntity
  8
Layer 1
 62
     5
370
    53
100
AcDbSpline
210
0.0
220
0.0
230
1.0
 70
    11
 71
     3
 72
    36
 73
    32
 74
     0
 42
0.0000000001
 43
0.0000000001
 40
0.0
 40
0.0
 40
0.0
 40
0.0
 40
0.125
 40
0.125
 40
0.125
 40
0.125
 40
0.25
 40
0.25
 40
0.25
 40
0.25
 40
0.375
 40
0.375
 40
0.375
 40
0.375
 40
0.5
 40
0.5
 40
0.5
 40
0.5
 40
0.625
 40
0.625
 40
0.625
 40
0.625
 40
0.75
 40
0.75
 40
0.75
 40
0.75
 40
0.875
 40
0.875
 40
0.875
 40
0.875
 40
1.0
 40
1.0
 40
1.0
 40
1.0
 10
-9.69976
 20
-14.39866
 30
0.0
 10
-9.69976
 20
-14.39866
 30
0.0
 10
-9.61933
 20
-14.70388
 30
0.0
 10
-9.61933
 20
-14.70388
 30
0.0
 10
-9.61933
 20
-14.70388
 30
0.0
 10
-9.61933
 20
-14.70388
 30
0.0
 10
-9.52239
 20
-14.39866
 30
0.0
 10
-9.52239
 20
-14.39866
 30
0.0
 10
-9.52239
 20
-14.39866
 30
0.0
 10
-9.52239
 20
-14.39866
 30
0.0
 10
-9.42543
 20
-14.70388
 30
0.0
 10
-9.42543
 20
-14.70388
 30
0.0
 10
-9.42543
 20
-14.70388
 30
0.0
 10
-9.42543
 20
-14.70388
 30
0.0
 10
-9.345
 20
-14.39866
 30
0.0
 10
-9.345
 20
-14.39866
 30
0.0
 10
-9.345
 20
-14.39866
 30
0.0
 10
-9.345
 20
-14.39866
 30
0.0
 10
-9.42543
 20
-14.70388
 30
0.0
 10
-9.42543
 20
-14.70388
 30
0.0
 10
-9.42543
 20
-14.70388
 30
0.0
 10
-9.42543
 20
-14.70388
 30
0.0
 10
-9.52239
 20
-14.39866
 30
0.0
 10
-9.52239
 20
-14.39866
 30
0.0
 10
-9.52239
 20
-14.39866
 30
0.0
 10
-9.52239
 20
-14.39866
 30
0.0
 10
-9.61933
 20
-14.70388
 30
0.0
 10
-9.61933
 20
-14.70388
 30
0.0
 10
-9.61933
 20
-14.70388
 30
0.0
 10
-9.61933
 20
-14.70388
 30
0.0
 10
-9.69976
 20
-14.39866
 30
0.0
 10
-9.69976
 20
-14.39866
 30
0.0
  0
SPLINE
  5
6B
330
1F
100
AcDbEntity
  8
Layer 1
370
    53
100
AcDbSpline
210
0.0
220
0.0
230
1.0
 70
    11
 71
     3
 72
    84
 73
    80
 74
     0
 42
0.0000000001
 43
0.0000000001
 40
0.0
 40
0.0
 40
0.0
 40
0.0
 40
0.05
 40
0.05
 40
0.05
 40
0.05
 40
0.1
 40
0.1
 40
0.1
 40
0.1
 40
0.15
 40
0.15
 40
0.15
 40
0.15
 40
0.2
 40
0.2
 40
0.2
 40
0.2
 40
0.25
 40
0.25
 40
0.25
 40
0.25
 40
0.3
 40
0.3
 40
0.3
 40
0.3
 40
0.35
 40
0.35
 40
0.35
 40
0.35
 40
0.4
 40
0.4
 40
0.4
 40
0.4
 40
0.45
 40
0.45
 40
0.45
 40
0.45
 40
0.4999999999999999
 40
0.4999999999999999
 40
0.4999999999999999
 40
0.4999999999999999
 40
0.5499999999999999
 40
0.5499999999999999
 40
0.5499999999999999
 40
0.5499999999999999
 40
0.6
 40
0.6
 40
0.6
 40
0.6
 40
0.65
 40
0.65
 40
0.65
 40
0.65
 40
0.7000000000000001
 40
0.7000000000000001
 40
0.7000000000000001
 40
0.7000000000000001
 40
0.7500000000000001
 40
0.7500000000000001
 40
0.7500000000000001
 40
0.7500000000000001
 40
0.8000000000000002
 40
0.8000000000000002
 40
0.8000000000000002
 40
0.8000000000000002
 40
0.8500000000000002
 40
0.8500000000000002
 40
0.8500000000000002
 40
0.8500000000000002
 40
0.9000000000000002
 40
0.9000000000000002
 40
0.9000000000000002
 40
0.9000000000000002
 40
0.9500000000000003
 40
0.9500000000000003
 40
0.9500000000000003
 40
0.9500000000000003
 40
1.0
 40
1.0
 40
1.0
 40
1.0
 10
-12.65885
 20
-14.4
 30
0.0
 10
-12.65885
 20
-14.4
 30
0.0
 10
-12.65885
 20
-14.35456
 30
0.0
 10
-12.65885
 20
-14.35456
 30
0.0
 10
-12.65885
 20
-14.35456
 30
0.0
 10
-12.69761
 20
-14.33033
 30
0.0
 10
-12.73043
 20
-14.2975
 30
0.0
 10
-12.75466
 20
-14.25875
 30
0.0
 10
-12.75466
 20
-14.25875
 30
0.0
 10
-12.75466
 20
-14.25875
 30
0.0
 10
-12.8001
 20
-14.25875
 30
0.0
 10
-12.8001
 20
-14.25875
 30
0.0
 10
-12.8001
 20
-14.25875
 30
0.0
 10
-12.8001
 20
-14.25875
 30
0.0
 10
-12.8001
 20
-14.1
 30
0.0
 10
-12.8001
 20
-14.1
 30
0.0
 10
-12.8001
 20
-14.1
 30
0.0
 10
-12.8001
 20
-14.1
 30
0.0
 10
-12.8001
 20
-13.94125
 30
0.0
 10
-12.8001
 20
-13.94125
 30
0.0
 10
-12.8001
 20
-13.94125
 30
0.0
 10
-12.8001
 20
-13.94125
 30
0.0
 10
-12.75466
 20
-13.94125
 30
0.0
 10
-12.75466
 20
-13.94125
 30
0.0
 10
-12.75466
 20
-13.94125
 30
0.0
 10
-12.73043
 20
-13.9025
 30
0.0
 10
-12.69761
 20
-13.86967
 30
0.0
 10
-12.65885
 20
-13.84544
 30
0.0
 10
-12.65885
 20
-13.84544
 30
0.0
 10
-12.65885
 20
-13.84544
 30
0.0
 10
-12.65885
 20
-13.8
 30
0.0
 10
-12.65885
 20
-13.8
 30
0.0
 10
-12.65885
 20
-13.8
 30
0.0
 10
-12.65885
 20
-13.8
 30
0.0
 10
-12.50009
 20
-13.8
 30
0.0
 10
-12.50009
 20
-13.8
 30
0.0
 10
-12.50009
 20
-13.8
 30
0.0
 10
-12.50009
 20
-13.8
 30
0.0
 10
-12.34134
 20
-13.8
 30
0.0
 10
-12.34134
 20
-13.8
 30
0.0
 10
-12.34134
 20
-13.8
 30
0.0
 10
-12.34134
 20
-13.8
 30
0.0
 10
-12.34134
 20
-13.84544
 30
0.0
 10
-12.34134
 20
-13.84544
 30
0.0
 10
-12.34134
 20
-13.84544
 30
0.0
 10
-12.30258
 20
-13.86967
 30
0.0
 10
-12.26976
 20
-13.9025
 30
0.0
 10
-12.24553
 20
-13.94125
 30
0.0
 10
-12.24553
 20
-13.94125
 30
0.0
 10
-12.24553
 20
-13.94125
 30
0.0
 10
-12.20009
 20
-13.94125
 30
0.0
 10
-12.20009
 20
-13.94125
 30
0.0
 10
-12.20009
 20
-13.94125
 30
0.0
 10
-12.20009
 20
-13.94125
 30
0.0
 10
-12.20009
 20
-14.1
 30
0.0
 10
-12.20009
 20
-14.1
 30
0.0
 10
-12.20009
 20
-14.1
 30
0.0
 10
-12.20009
 20
-14.1
 30
0.0
 10
-12.20009
 20
-14.25875
 30
0.0
 10
-12.20009
 20
-14.25875
 30
0.0
 10
-12.20009
 20
-14.25875
 30
0.0
 10
-12.20009
 20
-14.25875
 30
0.0
 10
-12.24553
 20
-14.25875
 30
0.0
 10
-12.24553
 20
-14.25875
 30
0.0
 10
-12.24553
 20
-14.25875
 30
0.0
 10
-12.26976
 20
-14.2975
 30
0.0
 10
-12.30258
 20
-14.33033
 30
0.0
 10
-12.34134
 20
-14.35456
 30
0.0
 10
-12.34134
 20
-14.35456
 30
0.0
 10
-12.34134
 20
-14.35456
 30
0.0
 10
-12.34134
 20
-14.4
 30
0.0
 10
-12.34134
 20
-14.4
 30
0.0
 10
-12.34134
 20
-14.4
 30
0.0
 10
-12.34134
 20
-14.4
 30
0.0
 10
-12.50009
 20
-14.4
 30
0.0
 10
-12.50009
 20
-14.4
 30
0.0
 10
-12.50009
 20
-14.4
 30
0.0
 10
-12.50009
 20
-14.4
 30
0.0
 10
-12.65885
 20
-14.4
 30
0.0
 10
-12.65885
 20
-14.4
 30
0.0
  0
SPLINE
  5
6C
330
1F
100
AcDbEntity
  8
Layer 1
370
    53
100
AcDbSpline
210
0.0
220
0.0
230
1.0
 70
    11
 71
     3
 72
    84
 73
    80
 74
     0
 42
0.0000000001
 43
0.0000000001
 40
0.0
 40
0.0
 40
0.0
 40
0.0
 40
0.05
 40
0.05
 40
0.05
 40
0.05
 40
0.1
 40
0.1
 40
0.1
 40
0.1
 40
0.15
 40
0.15
 40
0.15
 40
0.15
 40
0.2
 40
0.2
 40
0.2
 40
0.2
 40
0.25
 40
0.25
 40
0.25
 40
0.25
 40
0.3
 40
0.3
 40
0.3
 40
0.3
 40
0.35
 40
0.35
 40
0.35
 40
0.35
 40
0.4
 40
0.4
 40
0.4
 40
0.4
 40
0.45
 40
0.45
 40
0.45
 40
0.45
 40
0.4999999999999999
 40
0.4999999999999999
 40
0.4999999999999999
 40
0.4999999999999999
 40
0.5499999999999999
 40
0.5499999999999999
 40
0.5499999999999999
 40
0.5499999999999999
 40
0.6
 40
0.6
 40
0.6
 40
0.6
 40
0.65
 40
0.65
 40
0.65
 40
0.65
 40
0.7000000000000001
 40
0.7000000000000001
 40
0.7000000000000001
 40
0.7000000000000001
 40
0.7500000000000001
 40
0.7500000000000001
 40
0.7500000000000001
 40
0.7500000000000001
 40
0.8000000000000002
 40
0.8000000000000002
 40
0.8000000000000002
 40
0.8000000000000002
 40
0.8500000000000002
 40
0.8500000000000002
 40
0.8500000000000002
 40
0.8500000000000002
 40
0.9000000000000002
 40
0.9000000000000002
 40
0.9000000000000002
 40
0.9000000000000002
 40
0.9500000000000003
 40
0.9500000000000003
 40
0.9500000000000003
 40
0.9500000000000003
 40
1.0
 40
1.0
 40
1.0
 40
1.0
 10
-10.65881
 20
-14.4
 30
0.0
 10
-10.65881
 20
-14.4
 30
0.0
 10
-10.65881
 20
-14.35456
 30
0.0
 10
-10.65881
 20
-14.35456
 30
0.0
 10
-10.65881
 20
-14.35456
 30
0.0
 10
-10.69757
 20
-14.33033
 30
0.0
 10
-10.73039
 20
-14.2975
 30
0.0
 10
-10.75462
 20
-14.25875
 30
0.0
 10
-10.75462
 20
-14.25875
 30
0.0
 10
-10.75462
 20
-14.25875
 30
0.0
 10
-10.80007
 20
-14.25875
 30
0.0
 10
-10.80007
 20
-14.25875
 30
0.0
 10
-10.80007
 20
-14.25875
 30
0.0
 10
-10.80007
 20
-14.25875
 30
0.0
 10
-10.80007
 20
-14.1
 30
0.0
 10
-10.80007
 20
-14.1
 30
0.0
 10
-10.80007
 20
-14.1
 30
0.0
 10
-10.80007
 20
-14.1
 30
0.0
 10
-10.80007
 20
-13.94125
 30
0.0
 10
-10.80007
 20
-13.94125
 30
0.0
 10
-10.80007
 20
-13.94125
 30
0.0
 10
-10.80007
 20
-13.94125
 30
0.0
 10
-10.75462
 20
-13.94125
 30
0.0
 10
-10.75462
 20
-13.94125
 30
0.0
 10
-10.75462
 20
-13.94125
 30
0.0
 10
-10.73039
 20
-13.9025
 30
0.0
 10
-10.69757
 20
-13.86967
 30
0.0
 10
-10.65881
 20
-13.84544
 30
0.0
 10
-10.65881
 20
-13.84544
 30
0.0
 10
-10.65881
 20
-13.84544
 30
0.0
 10
-10.65881
 20
-13.8
 30
0.0
 10
-10.65881
 20
-13.8
 30
0.0
 10
-10.65881
 20
-13.8
 30
0.0
 10
-10.65881
 20
-13.8
 30
0.0
 10
-10.50006
 20
-13.8
 30
0.0
 10
-10.50006
 20
-13.8
 30
0.0
 10
-10.50006
 20
-13.8
 30
0.0
 10
-10.50006
 20
-13.8
 30
0.0
 10
-10.34131
 20
-13.8
 30
0.0
 10
-10.34131
 20
-13.8
 30
0.0
 10
-10.34131
 20
-13.8
 30
0.0
 10
-10.34131
 20
-13.8
 30
0.0
 10
-10.34131
 20
-13.84544
 30
0.0
 10
-10.34131
 20
-13.84544
 30
0.0
 10
-10.34131
 20
-13.84544
 30
0.0
 10
-10.30255
 20
-13.86967
 30
0.0
 10
-10.26973
 20
-13.9025
 30
0.0
 10
-10.2455
 20
-13.94125
 30
0.0
 10
-10.2455
 20
-13.94125
 30
0.0
 10
-10.2455
 20
-13.94125
 30
0.0
 10
-10.20005
 20
-13.94125
 30
0.0
 10
-10.20005
 20
-13.94125
 30
0.0
 10
-10.20005
 20
-13.94125
 30
0.0
 10
-10.20005
 20
-13.94125
 30
0.0
 10
-10.20005
 20
-14.1
 30
0.0
 10
-10.20005
 20
-14.1
 30
0.0
 10
-10.20005
 20
-14.1
 30
0.0
 10
-10.20005
 20
-14.1
 30
0.0
 10
-10.20005
 20
-14.25875
 30
0.0
 10
-10.20005
 20
-14.25875
 30
0.0
 10
-10.20005
 20
-14.25875
 30
0.0
 10
-10.20005
 20
-14.25875
 30
0.0
 10
-10.2455
 20
-14.25875
 30
0.0
 10
-10.2455
 20
-14.25875
 30
0.0
 10
-10.2455
 20
-14.25875
 30
0.0
 10
-10.26973
 20
-14.2975
 30
0.0
 10
-10.30255
 20
-14.33033
 30
0.0
 10
-10.34131
 20
-14.35456
 30
0.0
 10
-10.34131
 20
-14.35456
 30
0.0
 10
-10.34131
 20
-14.35456
 30
0.0
 10
-10.34131
 20
-14.4
 30
0.0
 10
-10.34131
 20
-14.4
 30
0.0
 10
-10.34131
 20
-14.4
 30
0.0
 10
-10.34131
 20
-14.4
 30
0.0
 10
-10.50006
 20
-14.4
 30
0.0
 10
-10.50006
 20
-14.4
 30
0.0
 10
-10.50006
 20
-14.4
 30
0.0
 10
-10.50006
 20
-14.4
 30
0.0
 10
-10.65881
 20
-14.4
 30
0.0
 10
-10.65881
 20
-14.4
 30
0.0
  0
SPLINE
  5
6D
330
1F
100
AcDbEntity
  8
Layer 1
370
    53
100
AcDbSpline
210
0.0
220
0.0
230
1.0
 70
    11
 71
     3
 72
    84
 73
    80
 74
     0
 42
0.0000000001
 43
0.0000000001
 40
0.0
 40
0.0
 40
0.0
 40
0.0
 40
0.05
 40
0.05
 40
0.05
 40
0.05
 40
0.1
 40
0.1
 40
0.1
 40
0.1
 40
0.15
 40
0.15
 40
0.15
 40
0.15
 40
0.2
 40
0.2
 40
0.2
 40
0.2
 40
0.25
 40
0.25
 40
0.25
 40
0.25
 40
0.3
 40
0.3
 40
0.3
 40
0.3
 40
0.35
 40
0.35
 40
0.35
 40
0.35
 40
0.4
 40
0.4
 40
0.4
 40
0.4
 40
0.45
 40
0.45
 40
0.45
 40
0.45
 40
0.4999999999999999
 40
0.4999999999999999
 40
0.4999999999999999
 40
0.4999999999999999
 40
0.5499999999999999
 40
0.5499999999999999
 40
0.5499999999999999
 40
0.5499999999999999
 40
0.6
 40
0.6
 40
0.6
 40
0.6
 40
0.65
 40
0.65
 40
0.65
 40
0.65
 40
0.7000000000000001
 40
0.7000000000000001
 40
0.7000000000000001
 40
0.7000000000000001
 40
0.7500000000000001
 40
0.7500000000000001
 40
0.7500000000000001
 40
0.7500000000000001
 40
0.8000000000000002
 40
0.8000000000000002
 40
0.8000000000000002
 40
0.8000000000000002
 40
0.8500000000000002
 40
0.8500000000000002
 40
0.8500000000000002
 40
0.8500000000000002
 40
0.9000000000000002
 40
0.9000000000000002
 40
0.9000000000000002
 40
0.9000000000000002
 40
0.9500000000000003
 40
0.9500000000000003
 40
0.9500000000000003
 40
0.9500000000000003
 40
1.0
 40
1.0
 40
1.0
 40
1.0
 10
-8.65878
 20
-14.4
 30
0.0
 10
-8.65878
 20
-14.4
 30
0.0
 10
-8.65878
 20
-14.35456
 30
0.0
 10
-8.65878
 20
-14.35456
 30
0.0
 10
-8.65878
 20
-14.35456
 30
0.0
 10
-8.69754
 20
-14.33033
 30
0.0
 10
-8.73036
 20
-14.2975
 30
0.0
 10
-8.75459
 20
-14.25875
 30
0.0
 10
-8.75459
 20
-14.25875
 30
0.0
 10
-8.75459
 20
-14.25875
 30
0.0
 10
-8.80003
 20
-14.25875
 30
0.0
 10
-8.80003
 20
-14.25875
 30
0.0
 10
-8.80003
 20
-14.25875
 30
0.0
 10
-8.80003
 20
-14.25875
 30
0.0
 10
-8.80003
 20
-14.1
 30
0.0
 10
-8.80003
 20
-14.1
 30
0.0
 10
-8.80003
 20
-14.1
 30
0.0
 10
-8.80003
 20
-14.1
 30
0.0
 10
-8.80003
 20
-13.94125
 30
0.0
 10
-8.80003
 20
-13.94125
 30
0.0
 10
-8.80003
 20
-13.94125
 30
0.0
 10
-8.80003
 20
-13.94125
 30
0.0
 10
-8.75459
 20
-13.94125
 30
0.0
 10
-8.75459
 20
-13.94125
 30
0.0
 10
-8.75459
 20
-13.94125
 30
0.0
 10
-8.73036
 20
-13.9025
 30
0.0
 10
-8.69754
 20
-13.86967
 30
0.0
 10
-8.65878
 20
-13.84544
 30
0.0
 10
-8.65878
 20
-13.84544
 30
0.0
 10
-8.65878
 20
-13.84544
 30
0.0
 10
-8.65878
 20
-13.8
 30
0.0
 10
-8.65878
 20
-13.8
 30
0.0
 10
-8.65878
 20
-13.8
 30
0.0
 10
-8.65878
 20
-13.8
 30
0.0
 10
-8.50003
 20
-13.8
 30
0.0
 10
-8.50003
 20
-13.8
 30
0.0
 10
-8.50003
 20
-13.8
 30
0.0
 10
-8.50003
 20
-13.8
 30
0.0
 10
-8.34127
 20
-13.8
 30
0.0
 10
-8.34127
 20
-13.8
 30
0.0
 10
-8.34127
 20
-13.8
 30
0.0
 10
-8.34127
 20
-13.8
 30
0.0
 10
-8.34127
 20
-13.84544
 30
0.0
 10
-8.34127
 20
-13.84544
 30
0.0
 10
-8.34127
 20
-13.84544
 30
0.0
 10
-8.30251
 20
-13.86967
 30
0.0
 10
-8.26969
 20
-13.9025
 30
0.0
 10
-8.24546
 20
-13.94125
 30
0.0
 10
-8.24546
 20
-13.94125
 30
0.0
 10
-8.24546
 20
-13.94125
 30
0.0
 10
-8.20002
 20
-13.94125
 30
0.0
 10
-8.20002
 20
-13.94125
 30
0.0
 10
-8.20002
 20
-13.94125
 30
0.0
 10
-8.20002
 20
-13.94125
 30
0.0
 10
-8.20002
 20
-14.1
 30
0.0
 10
-8.20002
 20
-14.1
 30
0.0
 10
-8.20002
 20
-14.1
 30
0.0
 10
-8.20002
 20
-14.1
 30
0.0
 10
-8.20002
 20
-14.25875
 30
0.0
 10
-8.20002
 20
-14.25875
 30
0.0
 10
-8.20002
 20
-14.25875
 30
0.0
 10
-8.20002
 20
-14.25875
 30
0.0
 10
-8.24546
 20
-14.25875
 30
0.0
 10
-8.24546
 20
-14.25875
 30
0.0
 10
-8.24546
 20
-14.25875
 30
0.0
 10
-8.26969
 20
-14.2975
 30
0.0
 10
-8.30251
 20
-14.33033
 30
0.0
 10
-8.34127
 20
-14.35456
 30
0.0
 10
-8.34127
 20
-14.35456
 30
0.0
 10
-8.34127
 20
-14.35456
 30
0.0
 10
-8.34127
 20
-14.4
 30
0.0
 10
-8.34127
 20
-14.4
 30
0.0
 10
-8.34127
 20
-14.4
 30
0.0
 10
-8.34127
 20
-14.4
 30
0.0
 10
-8.50003
 20
-14.4
 30
0.0
 10
-8.50003
 20
-14.4
 30
0.0
 10
-8.50003
 20
-14.4
 30
0.0
 10
-8.50003
 20
-14.4
 30
0.0
 10
-8.65878
 20
-14.4
 30
0.0
 10
-8.65878
 20
-14.4
 30
0.0
  0
SPLINE
  5
6E
330
1F
100
AcDbEntity
  8
Layer 1
370
    53
100
AcDbSpline
210
0.0
220
0.0
230
1.0
 70
    11
 71
     3
 72
    84
 73
    80
 74
     0
 42
0.0000000001
 43
0.0000000001
 40
0.0
 40
0.0
 40
0.0
 40
0.0
 40
0.05
 40
0.05
 40
0.05
 40
0.05
 40
0.1
 40
0.1
 40
0.1
 40
0.1
 40
0.15
 40
0.15
 40
0.15
 40
0.15
 40
0.2
 40
0.2
 40
0.2
 40
0.2
 40
0.25
 40
0.25
 40
0.25
 40
0.25
 40
0.3
 40
0.3
 40
0.3
 40
0.3
 40
0.35
 40
0.35
 40
0.35
 40
0.35
 40
0.4
 40
0.4
 40
0.4
 40
0.4
 40
0.45
 40
0.45
 40
0.45
 40
0.45
 40
0.4999999999999999
 40
0.4999999999999999
 40
0.4999999999999999
 40
0.4999999999999999
 40
0.5499999999999999
 40
0.5499999999999999
 40
0.5499999999999999
 40
0.5499999999999999
 40
0.6
 40
0.6
 40
0.6
 40
0.6
 40
0.65
 40
0.65
 40
0.65
 40
0.65
 40
0.7000000000000001
 40
0.7000000000000001
 40
0.7000000000000001
 40
0.7000000000000001
 40
0.7500000000000001
 40
0.7500000000000001
 40
0.7500000000000001
 40
0.7500000000000001
 40
0.8000000000000002
 40
0.8000000000000002
 40
0.8000000000000002
 40
0.8000000000000002
 40
0.8500000000000002
 40
0.8500000000000002
 40
0.8500000000000002
 40
0.8500000000000002
 40
0.9000000000000002
 40
0.9000000000000002
 40
0.9000000000000002
 40
0.9000000000000002
 40
0.9500000000000003
 40
0.9500000000000003
 40
0.9500000000000003
 40
0.9500000000000003
 40
1.0
 40
1.0
 40
1.0
 40
1.0
 10
-10.65881
 20
-12.4
 30
0.0
 10
-10.65881
 20
-12.4
 30
0.0
 10
-10.65881
 20
-12.35456
 30
0.0
 10
-10.65881
 20
-12.35456
 30
0.0
 10
-10.65881
 20
-12.35456
 30
0.0
 10
-10.69757
 20
-12.33033
 30
0.0
 10
-10.73039
 20
-12.2975
 30
0.0
 10
-10.75462
 20
-12.25875
 30
0.0
 10
-10.75462
 20
-12.25875
 30
0.0
 10
-10.75462
 20
-12.25875
 30
0.0
 10
-10.80007
 20
-12.25875
 30
0.0
 10
-10.80007
 20
-12.25875
 30
0.0
 10
-10.80007
 20
-12.25875
 30
0.0
 10
-10.80007
 20
-12.25875
 30
0.0
 10
-10.80007
 20
-12.1
 30
0.0
 10
-10.80007
 20
-12.1
 30
0.0
 10
-10.80007
 20
-12.1
 30
0.0
 10
-10.80007
 20
-12.1
 30
0.0
 10
-10.80007
 20
-11.94125
 30
0.0
 10
-10.80007
 20
-11.94125
 30
0.0
 10
-10.80007
 20
-11.94125
 30
0.0
 10
-10.80007
 20
-11.94125
 30
0.0
 10
-10.75462
 20
-11.94125
 30
0.0
 10
-10.75462
 20
-11.94125
 30
0.0
 10
-10.75462
 20
-11.94125
 30
0.0
 10
-10.73039
 20
-11.9025
 30
0.0
 10
-10.69757
 20
-11.86967
 30
0.0
 10
-10.65881
 20
-11.84544
 30
0.0
 10
-10.65881
 20
-11.84544
 30
0.0
 10
-10.65881
 20
-11.84544
 30
0.0
 10
-10.65881
 20
-11.8
 30
0.0
 10
-10.65881
 20
-11.8
 30
0.0
 10
-10.65881
 20
-11.8
 30
0.0
 10
-10.65881
 20
-11.8
 30
0.0
 10
-10.50006
 20
-11.8
 30
0.0
 10
-10.50006
 20
-11.8
 30
0.0
 10
-10.50006
 20
-11.8
 30
0.0
 10
-10.50006
 20
-11.8
 30
0.0
 10
-10.34131
 20
-11.8
 30
0.0
 10
-10.34131
 20
-11.8
 30
0.0
 10
-10.34131
 20
-11.8
 30
0.0
 10
-10.34131
 20
-11.8
 30
0.0
 10
-10.34131
 20
-11.84544
 30
0.0
 10
-10.34131
 20
-11.84544
 30
0.0
 10
-10.34131
 20
-11.84544
 30
0.0
 10
-10.30255
 20
-11.86967
 30
0.0
 10
-10.26973
 20
-11.9025
 30
0.0
 10
-10.2455
 20
-11.94125
 30
0.0
 10
-10.2455
 20
-11.94125
 30
0.0
 10
-10.2455
 20
-11.94125
 30
0.0
 10
-10.20005
 20
-11.94125
 30
0.0
 10
-10.20005
 20
-11.94125
 30
0.0
 10
-10.20005
 20
-11.94125
 30
0.0
 10
-10.20005
 20
-11.94125
 30
0.0
 10
-10.20005
 20
-12.1
 30
0.0
 10
-10.20005
 20
-12.1
 30
0.0
 10
-10.20005
 20
-12.1
 30
0.0
 10
-10.20005
 20
-12.1
 30
0.0
 10
-10.20005
 20
-12.25875
 30
0.0
 10
-10.20005
 20
-12.25875
 30
0.0
 10
-10.20005
 20
-12.25875
 30
0.0
 10
-10.20005
 20
-12.25875
 30
0.0
 10
-10.2455
 20
-12.25875
 30
0.0
 10
-10.2455
 20
-12.25875
 30
0.0
 10
-10.2455
 20
-12.25875
 30
0.0
 10
-10.26973
 20
-12.2975
 30
0.0
 10
-10.30255
 20
-12.33033
 30
0.0
 10
-10.34131
 20
-12.35456
 30
0.0
 10
-10.34131
 20
-12.35456
 30
0.0
 10
-10.34131
 20
-12.35456
 30
0.0
 10
-10.34131
 20
-12.4
 30
0.0
 10
-10.34131
 20
-12.4
 30
0.0
 10
-10.34131
 20
-12.4
 30
0.0
 10
-10.34131
 20
-12.4
 30
0.0
 10
-10.50006
 20
-12.4
 30
0.0
 10
-10.50006
 20
-12.4
 30
0.0
 10
-10.50006
 20
-12.4
 30
0.0
 10
-10.50006
 20
-12.4
 30
0.0
 10
-10.65881
 20
-12.4
 30
0.0
 10
-10.65881
 20
-12.4
 30
0.0
  0
SPLINE
  5
6F
330
1F
100
AcDbEntity
  8
Layer 1
370
    53
100
AcDbSpline
210
0.0
220
0.0
230
1.0
 70
    11
 71
     3
 72
   228
 73
   224
 74
     0
 42
0.0000000001
 43
0.0000000001
 40
0.0
 40
0.0
 40
0.0
 40
0.0
 40
0.0178571428571429
 40
0.0178571428571429
 40
0.0178571428571429
 40
0.0178571428571429
 40
0.0357142857142857
 40
0.0357142857142857
 40
0.0357142857142857
 40
0.0357142857142857
 40
0.0535714285714286
 40
0.0535714285714286
 40
0.0535714285714286
 40
0.0535714285714286
 40
0.0714285714285714
 40
0.0714285714285714
 40
0.0714285714285714
 40
0.0714285714285714
 40
0.0892857142857143
 40
0.0892857142857143
 40
0.0892857142857143
 40
0.0892857142857143
 40
0.1071428571428571
 40
0.1071428571428571
 40
0.1071428571428571
 40
0.1071428571428571
 40
0.125
 40
0.125
 40
0.125
 40
0.125
 40
0.1428571428571428
 40
0.1428571428571428
 40
0.1428571428571428
 40
0.1428571428571428
 40
0.1607142857142857
 40
0.1607142857142857
 40
0.1607142857142857
 40
0.1607142857142857
 40
0.1785714285714285
 40
0.1785714285714285
 40
0.1785714285714285
 40
0.1785714285714285
 40
0.1964285714285714
 40
0.1964285714285714
 40
0.1964285714285714
 40
0.1964285714285714
 40
0.2142857142857142
 40
0.2142857142857142
 40
0.2142857142857142
 40
0.2142857142857142
 40
0.2321428571428571
 40
0.2321428571428571
 40
0.2321428571428571
 40
0.2321428571428571
 40
0.2499999999999999
 40
0.2499999999999999
 40
0.2499999999999999
 40
0.2499999999999999
 40
0.2678571428571428
 40
0.2678571428571428
 40
0.2678571428571428
 40
0.2678571428571428
 40
0.2857142857142856
 40
0.2857142857142856
 40
0.2857142857142856
 40
0.2857142857142856
 40
0.3035714285714285
 40
0.3035714285714285
 40
0.3035714285714285
 40
0.3035714285714285
 40
0.3214285714285713
 40
0.3214285714285713
 40
0.3214285714285713
 40
0.3214285714285713
 40
0.3392857142857142
 40
0.3392857142857142
 40
0.3392857142857142
 40
0.3392857142857142
 40
0.357142857142857
 40
0.357142857142857
 40
0.357142857142857
 40
0.357142857142857
 40
0.3749999999999999
 40
0.3749999999999999
 40
0.3749999999999999
 40
0.3749999999999999
 40
0.3928571428571427
 40
0.3928571428571427
 40
0.3928571428571427
 40
0.3928571428571427
 40
0.4107142857142856
 40
0.4107142857142856
 40
0.4107142857142856
 40
0.4107142857142856
 40
0.4285714285714284
 40
0.4285714285714284
 40
0.4285714285714284
 40
0.4285714285714284
 40
0.4464285714285713
 40
0.4464285714285713
 40
0.4464285714285713
 40
0.4464285714285713
 40
0.4642857142857141
 40
0.4642857142857141
 40
0.4642857142857141
 40
0.4642857142857141
 40
0.482142857142857
 40
0.482142857142857
 40
0.482142857142857
 40
0.482142857142857
 40
0.4999999999999998
 40
0.4999999999999998
 40
0.4999999999999998
 40
0.4999999999999998
 40
0.5178571428571427
 40
0.5178571428571427
 40
0.5178571428571427
 40
0.5178571428571427
 40
0.5357142857142856
 40
0.5357142857142856
 40
0.5357142857142856
 40
0.5357142857142856
 40
0.5535714285714285
 40
0.5535714285714285
 40
0.5535714285714285
 40
0.5535714285714285
 40
0.5714285714285714
 40
0.5714285714285714
 40
0.5714285714285714
 40
0.5714285714285714
 40
0.5892857142857143
 40
0.5892857142857143
 40
0.5892857142857143
 40
0.5892857142857143
 40
0.6071428571428572
 40
0.6071428571428572
 40
0.6071428571428572
 40
0.6071428571428572
 40
0.6250000000000001
 40
0.6250000000000001
 40
0.6250000000000001
 40
0.6250000000000001
 40
0.642857142857143
 40
0.642857142857143
 40
0.642857142857143
 40
0.642857142857143
 40
0.6607142857142859
 40
0.6607142857142859
 40
0.6607142857142859
 40
0.6607142857142859
 40
0.6785714285714288
 40
0.6785714285714288
 40
0.6785714285714288
 40
0.6785714285714288
 40
0.6964285714285717
 40
0.6964285714285717
 40
0.6964285714285717
 40
0.6964285714285717
 40
0.7142857142857146
 40
0.7142857142857146
 40
0.7142857142857146
 40
0.7142857142857146
 40
0.7321428571428575
 40
0.7321428571428575
 40
0.7321428571428575
 40
0.7321428571428575
 40
0.7500000000000004
 40
0.7500000000000004
 40
0.7500000000000004
 40
0.7500000000000004
 40
0.7678571428571433
 40
0.7678571428571433
 40
0.7678571428571433
 40
0.7678571428571433
 40
0.7857142857142863
 40
0.7857142857142863
 40
0.7857142857142863
 40
0.7857142857142863
 40
0.8035714285714292
 40
0.8035714285714292
 40
0.8035714285714292
 40
0.8035714285714292
 40
0.8214285714285721
 40
0.8214285714285721
 40
0.8214285714285721
 40
0.8214285714285721
 40
0.839285714285715
 40
0.839285714285715
 40
0.839285714285715
 40
0.839285714285715
 40
0.8571428571428579
 40
0.8571428571428579
 40
0.8571428571428579
 40
0.8571428571428579
 40
0.8750000000000008
 40
0.8750000000000008
 40
0.8750000000000008
 40
0.8750000000000008
 40
0.8928571428571437
 40
0.8928571428571437
 40
0.8928571428571437
 40
0.8928571428571437
 40
0.9107142857142866
 40
0.9107142857142866
 40
0.9107142857142866
 40
0.9107142857142866
 40
0.9285714285714295
 40
0.9285714285714295
 40
0.9285714285714295
 40
0.9285714285714295
 40
0.9464285714285724
 40
0.9464285714285724
 40
0.9464285714285724
 40
0.9464285714285724
 40
0.9642857142857153
 40
0.9642857142857153
 40
0.9642857142857153
 40
0.9642857142857153
 40
0.9821428571428582
 40
0.9821428571428582
 40
0.9821428571428582
 40
0.9821428571428582
 40
1.0
 40
1.0
 40
1.0
 40
1.0
 10
-7.2
 20
-16.25
 30
0.0
 10
-7.2
 20
-16.25
 30
0.0
 10
-7.2
 20
-15.95
 30
0.0
 10
-7.2
 20
-15.95
 30
0.0
 10
-7.2
 20
-15.95
 30
0.0
 10
-7.2
 20
-15.95
 30
0.0
 10
-7.2
 20
-15.95001
 30
0.0
 10
-7.2
 20
-15.95001
 30
0.0
 10
-7.2
 20
-15.95001
 30
0.0
 10
-7.2
 20
-15.95001
 30
0.0
 10
-7.2
 20
-14.25875
 30
0.0
 10
-7.2
 20
-14.25875
 30
0.0
 10
-7.2
 20
-14.25875
 30
0.0
 10
-7.2
 20
-14.25875
 30
0.0
 10
-7.80001
 20
-14.25875
 30
0.0
 10
-7.80001
 20
-14.25875
 30
0.0
 10
-7.80001
 20
-14.25875
 30
0.0
 10
-7.80001
 20
-14.25875
 30
0.0
 10
-7.80001
 20
-13.94125
 30
0.0
 10
-7.80001
 20
-13.94125
 30
0.0
 10
-7.80001
 20
-13.94125
 30
0.0
 10
-7.80001
 20
-13.94125
 30
0.0
 10
-7.20011
 20
-13.94125
 30
0.0
 10
-7.20011
 20
-13.94125
 30
0.0
 10
-7.20011
 20
-13.94125
 30
0.0
 10
-7.20479
 20
-13.6692
 30
0.0
 10
-7.42685
 20
-13.45
 30
0.0
 10
-7.70001
 20
-13.45
 30
0.0
 10
-7.70001
 20
-13.45
 30
0.0
 10
-7.70001
 20
-13.45
 30
0.0
 10
-8.85006
 20
-13.45
 30
0.0
 10
-8.85006
 20
-13.45
 30
0.0
 10
-8.85006
 20
-13.45
 30
0.0
 10
-8.85006
 20
-13.45
 30
0.0
 10
-8.85006
 20
-11.95
 30
0.0
 10
-8.85006
 20
-11.95
 30
0.0
 10
-8.85006
 20
-11.95
 30
0.0
 10
-8.85006
 20
-11.67391
 30
0.0
 10
-9.07397
 20
-11.45
 30
0.0
 10
-9.35006
 20
-11.45
 30
0.0
 10
-9.35006
 20
-11.45
 30
0.0
 10
-9.35006
 20
-11.45
 30
0.0
 10
-11.65006
 20
-11.45
 30
0.0
 10
-11.65006
 20
-11.45
 30
0.0
 10
-11.65006
 20
-11.45
 30
0.0
 10
-11.92615
 20
-11.45
 30
0.0
 10
-12.15006
 20
-11.67391
 30
0.0
 10
-12.15006
 20
-11.95
 30
0.0
 10
-12.15006
 20
-11.95
 30
0.0
 10
-12.15006
 20
-11.95
 30
0.0
 10
-12.15006
 20
-13.45
 30
0.0
 10
-12.15006
 20
-13.45
 30
0.0
 10
-12.15006
 20
-13.45
 30
0.0
 10
-12.15006
 20
-13.45
 30
0.0
 10
-13.30011
 20
-13.45
 30
0.0
 10
-13.30011
 20
-13.45
 30
0.0
 10
-13.30011
 20
-13.45
 30
0.0
 10
-13.57327
 20
-13.45
 30
0.0
 10
-13.79533
 20
-13.6692
 30
0.0
 10
-13.80001
 20
-13.94125
 30
0.0
 10
-13.80001
 20
-13.94125
 30
0.0
 10
-13.80001
 20
-13.94125
 30
0.0
 10
-13.20011
 20
-13.94125
 30
0.0
 10
-13.20011
 20
-13.94125
 30
0.0
 10
-13.20011
 20
-13.94125
 30
0.0
 10
-13.20011
 20
-13.94125
 30
0.0
 10
-13.20011
 20
-14.25875
 30
0.0
 10
-13.20011
 20
-14.25875
 30
0.0
 10
-13.20011
 20
-14.25875
 30
0.0
 10
-13.20011
 20
-14.25875
 30
0.0
 10
-13.79819
 20
-14.25875
 30
0.0
 10
-13.79819
 20
-14.25875
 30
0.0
 10
-13.79819
 20
-14.25875
 30
0.0
 10
-13.79819
 20
-14.25875
 30
0.0
 10
-13.78761
 20
-16.25
 30
0.0
 10
-13.78761
 20
-16.25
 30
0.0
 10
-13.78761
 20
-16.25
 30
0.0
 10
-13.78761
 20
-16.25
 30
0.0
 10
-13.20011
 20
-16.25
 30
0.0
 10
-13.20011
 20
-16.25
 30
0.0
 10
-13.20011
 20
-16.25
 30
0.0
 10
-13.20011
 20
-16.25
 30
0.0
 10
-13.20011
 20
-15.95
 30
0.0
 10
-13.20011
 20
-15.95
 30
0.0
 10
-13.20011
 20
-15.95
 30
0.0
 10
-13.20011
 20
-15.95
 30
0.0
 10
-12.8001
 20
-15.95
 30
0.0
 10
-12.8001
 20
-15.95
 30
0.0
 10
-12.8001
 20
-15.95
 30
0.0
 10
-12.8001
 20
-15.95
 30
0.0
 10
-12.8001
 20
-15.45
 30
0.0
 10
-12.8001
 20
-15.45
 30
0.0
 10
-12.8001
 20
-15.45
 30
0.0
 10
-12.8001
 20
-15.45
 30
0.0
 10
-13.0001
 20
-15.44999
 30
0.0
 10
-13.0001
 20
-15.44999
 30
0.0
 10
-13.0001
 20
-15.44999
 30
0.0
 10
-13.0001
 20
-15.44999
 30
0.0
 10
-13.0001
 20
-14.85
 30
0.0
 10
-13.0001
 20
-14.85
 30
0.0
 10
-13.0001
 20
-14.85
 30
0.0
 10
-12.61677
 20
-14.85
 30
0.0
 10
-12.38342
 20
-14.85
 30
0.0
 10
-12.00009
 20
-14.85
 30
0.0
 10
-12.00009
 20
-14.85
 30
0.0
 10
-12.00009
 20
-14.85
 30
0.0
 10
-12.00009
 20
-15.44999
 30
0.0
 10
-12.00009
 20
-15.44999
 30
0.0
 10
-12.00009
 20
-15.44999
 30
0.0
 10
-12.00009
 20
-15.44999
 30
0.0
 10
-12.20009
 20
-15.45
 30
0.0
 10
-12.20009
 20
-15.45
 30
0.0
 10
-12.20009
 20
-15.45
 30
0.0
 10
-12.20009
 20
-15.45
 30
0.0
 10
-12.20009
 20
-15.95001
 30
0.0
 10
-12.20009
 20
-15.95001
 30
0.0
 10
-12.20009
 20
-15.95001
 30
0.0
 10
-12.20009
 20
-15.95001
 30
0.0
 10
-11.80008
 20
-15.95
 30
0.0
 10
-11.80008
 20
-15.95
 30
0.0
 10
-11.80008
 20
-15.95
 30
0.0
 10
-11.80008
 20
-15.95
 30
0.0
 10
-11.80008
 20
-16.25
 30
0.0
 10
-11.80008
 20
-16.25
 30
0.0
 10
-11.80008
 20
-16.25
 30
0.0
 10
-11.80008
 20
-16.25
 30
0.0
 10
-11.20007
 20
-16.25
 30
0.0
 10
-11.20007
 20
-16.25
 30
0.0
 10
-11.20007
 20
-16.25
 30
0.0
 10
-11.20007
 20
-16.25
 30
0.0
 10
-11.20007
 20
-15.95
 30
0.0
 10
-11.20007
 20
-15.95
 30
0.0
 10
-11.20007
 20
-15.95
 30
0.0
 10
-11.20007
 20
-15.95
 30
0.0
 10
-10.80007
 20
-15.95
 30
0.0
 10
-10.80007
 20
-15.95
 30
0.0
 10
-10.80007
 20
-15.95
 30
0.0
 10
-10.80007
 20
-15.95
 30
0.0
 10
-10.80007
 20
-15.45
 30
0.0
 10
-10.80007
 20
-15.45
 30
0.0
 10
-10.80007
 20
-15.45
 30
0.0
 10
-10.80007
 20
-15.45
 30
0.0
 10
-11.00007
 20
-15.44999
 30
0.0
 10
-11.00007
 20
-15.44999
 30
0.0
 10
-11.00007
 20
-15.44999
 30
0.0
 10
-11.00007
 20
-15.44999
 30
0.0
 10
-11.00007
 20
-14.85
 30
0.0
 10
-11.00007
 20
-14.85
 30
0.0
 10
-11.00007
 20
-14.85
 30
0.0
 10
-10.61673
 20
-14.85
 30
0.0
 10
-10.38339
 20
-14.85
 30
0.0
 10
-10.00005
 20
-14.85
 30
0.0
 10
-10.00005
 20
-14.85
 30
0.0
 10
-10.00005
 20
-14.85
 30
0.0
 10
-10.00005
 20
-15.44999
 30
0.0
 10
-10.00005
 20
-15.44999
 30
0.0
 10
-10.00005
 20
-15.44999
 30
0.0
 10
-10.00005
 20
-15.44999
 30
0.0
 10
-10.20005
 20
-15.45
 30
0.0
 10
-10.20005
 20
-15.45
 30
0.0
 10
-10.20005
 20
-15.45
 30
0.0
 10
-10.20005
 20
-15.45
 30
0.0
 10
-10.20005
 20
-15.95001
 30
0.0
 10
-10.20005
 20
-15.95001
 30
0.0
 10
-10.20005
 20
-15.95001
 30
0.0
 10
-10.20005
 20
-15.95001
 30
0.0
 10
-9.80005
 20
-15.95
 30
0.0
 10
-9.80005
 20
-15.95
 30
0.0
 10
-9.80005
 20
-15.95
 30
0.0
 10
-9.80005
 20
-15.95
 30
0.0
 10
-9.80005
 20
-16.25
 30
0.0
 10
-9.80005
 20
-16.25
 30
0.0
 10
-9.80005
 20
-16.25
 30
0.0
 10
-9.80005
 20
-16.25
 30
0.0
 10
-9.20004
 20
-16.25
 30
0.0
 10
-9.20004
 20
-16.25
 30
0.0
 10
-9.20004
 20
-16.25
 30
0.0
 10
-9.20004
 20
-16.25
 30
0.0
 10
-9.20004
 20
-15.95
 30
0.0
 10
-9.20004
 20
-15.95
 30
0.0
 10
-9.20004
 20
-15.95
 30
0.0
 10
-9.20004
 20
-15.95
 30
0.0
 10
-8.80003
 20
-15.95
 30
0.0
 10
-8.80003
 20
-15.95
 30
0.0
 10
-8.80003
 20
-15.95
 30
0.0
 10
-8.80003
 20
-15.95
 30
0.0
 10
-8.80003
 20
-15.45
 30
0.0
 10
-8.80003
 20
-15.45
 30
0.0
 10
-8.80003
 20
-15.45
 30
0.0
 10
-8.80003
 20
-15.45
 30
0.0
 10
-9.00003
 20
-15.44999
 30
0.0
 10
-9.00003
 20
-15.44999
 30
0.0
 10
-9.00003
 20
-15.44999
 30
0.0
 10
-9.00003
 20
-15.44999
 30
0.0
 10
-9.00003
 20
-14.85
 30
0.0
 10
-9.00003
 20
-14.85
 30
0.0
 10
-9.00003
 20
-14.85
 30
0.0
 10
-8.6167
 20
-14.85
 30
0.0
 10
-8.38335
 20
-14.85
 30
0.0
 10
-8.00002
 20
-14.85
 30
0.0
 10
-8.00002
 20
-14.85
 30
0.0
 10
-8.00002
 20
-14.85
 30
0.0
 10
-8.00002
 20
-15.44999
 30
0.0
 10
-8.00002
 20
-15.44999
 30
0.0
 10
-8.00002
 20
-15.44999
 30
0.0
 10
-8.00002
 20
-15.44999
 30
0.0
 10
-8.20002
 20
-15.45
 30
0.0
 10
-8.20002
 20
-15.45
 30
0.0
 10
-8.20002
 20
-15.45
 30
0.0
 10
-8.20002
 20
-15.45
 30
0.0
 10
-8.20002
 20
-15.95001
 30
0.0
 10
-8.20002
 20
-15.95001
 30
0.0
 10
-8.20002
 20
-15.95001
 30
0.0
 10
-8.20002
 20
-15.95001
 30
0.0
 10
-7.80001
 20
-15.95
 30
0.0
 10
-7.80001
 20
-15.95
 30
0.0
 10
-7.80001
 20
-15.95
 30
0.0
 10
-7.80001
 20
-15.95
 30
0.0
 10
-7.80001
 20
-16.25
 30
0.0
 10
-7.80001
 20
-16.25
 30
0.0
 10
-7.80001
 20
-16.25
 30
0.0
 10
-7.80001
 20
-16.25
 30
0.0
 10
-7.2
 20
-16.25
 30
0.0
 10
-7.2
 20
-16.25
 30
0.0
  0
SPLINE
  5
70
330
1F
100
AcDbEntity
  8
Layer 1
370
    53
100
AcDbSpline
210
0.0
220
0.0
230
1.0
 70
    11
 71
     3
 72
    20
 73
    16
 74
     0
 42
0.0000000001
 43
0.0000000001
 40
0.0
 40
0.0
 40
0.0
 40
0.0
 40
0.25
 40
0.25
 40
0.25
 40
0.25
 40
0.5
 40
0.5
 40
0.5
 40
0.5
 40
0.75
 40
0.75
 40
0.75
 40
0.75
 40
1.0
 40
1.0
 40
1.0
 40
1.0
 10
-11.80008
 20
-13.94125
 30
0.0
 10
-11.80008
 20
-13.94125
 30
0.0
 10
-11.20007
 20
-13.94125
 30
0.0
 10
-11.20007
 20
-13.94125
 30
0.0
 10
-11.20007
 20
-13.94125
 30
0.0
 10
-11.20007
 20
-13.94125
 30
0.0
 10
-11.20007
 20
-14.25875
 30
0.0
 10
-11.20007
 20
-14.25875
 30
0.0
 10
-11.20007
 20
-14.25875
 30
0.0
 10
-11.20007
 20
-14.25875
 30
0.0
 10
-11.80008
 20
-14.25875
 30
0.0
 10
-11.80008
 20
-14.25875
 30
0.0
 10
-11.80008
 20
-14.25875
 30
0.0
 10
-11.80008
 20
-14.25875
 30
0.0
 10
-11.80008
 20
-13.94125
 30
0.0
 10
-11.80008
 20
-13.94125
 30
0.0
  0
ENDSEC
  0
SECTION
  2
OBJECTS
  0
DICTIONARY
  5
C
330
0
100
AcDbDictionary
281
     1
  3
ACAD_GROUP
350
D
  3
ACAD_LAYOUT
350
1A
  3
ACAD_MLEADERSTYLE
350
72
  3
ACAD_MLINESTYLE
350
17
  3
ACAD_PLOTSETTINGS
350
19
  3
ACAD_PLOTSTYLENAME
350
E
  3
ACAD_SCALELIST
350
3B
  3
ACAD_TABLESTYLE
350
71
  3
ACAD_VISUALSTYLE
350
2A
  0
DICTIONARY
  5
D
102
{ACAD_REACTORS
330
C
102
}
330
C
100
AcDbDictionary
281
     1
  0
DICTIONARY
  5
1A
102
{ACAD_REACTORS
330
C
102
}
330
C
100
AcDbDictionary
281
     1
  3
Layout1
350
1E
  3
Layout2
350
26
  3
Model
350
22
  0
DICTIONARY
  5
72
102
{ACAD_REACTORS
330
C
102
}
330
C
100
AcDbDictionary
281
     1
  0
DICTIONARY
  5
17
102
{ACAD_REACTORS
330
C
102
}
330
C
100
AcDbDictionary
281
     1
  3
Standard
350
18
  0
DICTIONARY
  5
19
102
{ACAD_REACTORS
330
C
102
}
330
C
100
AcDbDictionary
281
     1
  0
ACDBDICTIONARYWDFLT
  5
E
102
{ACAD_REACTORS
330
C
102
}
330
C
100
AcDbDictionary
281
     1
  3
Normal
350
F
100
AcDbDictionaryWithDefault
340
F
  0
DICTIONARY
  5
3B
102
{ACAD_REACTORS
330
C
102
}
330
C
100
AcDbDictionary
281
     1
  3
A0
350
3C
  3
A1
350
3D
  3
A2
350
3E
  3
A3
350
3F
  3
A4
350
40
  3
A5
350
41
  3
A6
350
42
  3
A7
350
43
  3
A8
350
44
  3
A9
350
45
  3
B0
350
46
  3
B1
350
47
  3
B2
350
48
  3
B3
350
49
  3
B4
350
4A
  3
B5
350
4B
  3
B6
350
4C
  3
B7
350
4D
  3
B8
350
4E
  3
B9
350
4F
  3
C0
350
50
  3
C1
350
51
  3
C2
350
52
  3
C3
350
53
  3
C4
350
54
  3
C5
350
55
  3
C6
350
56
  3
C7
350
57
  3
C8
350
58
  3
C9
350
59
  3
D0
350
5A
  3
D1
350
5B
  3
D2
350
5C
  0
DICTIONARY
  5
71
102
{ACAD_REACTORS
330
C
102
}
330
C
100
AcDbDictionary
281
     1
  0
DICTIONARY
  5
2A
102
{ACAD_REACTORS
330
C
102
}
330
C
100
AcDbDictionary
281
     1
  3
2dWireframe
350
2F
  3
3D Hidden
350
31
  3
3dWireframe
350
30
  3
Basic
350
32
  3
Brighten
350
36
  3
ColorChange
350
3A
  3
Conceptual
350
34
  3
Dim
350
35
  3
Facepattern
350
39
  3
Flat
350
2B
  3
FlatWithEdges
350
2C
  3
Gouraud
350
2D
  3
GouraudWithEdges
350
2E
  3
Linepattern
350
38
  3
Realistic
350
33
  3
Thicken
350
37
  0
LAYOUT
  5
1E
102
{ACAD_REACTORS
330
1A
102
}
330
1A
100
AcDbPlotSettings
  1

  2
none_device
  4

  6

 40
0.0
 41
0.0
 42
0.0
 43
0.0
 44
0.0
 45
0.0
 46
0.0
 47
0.0
 48
0.0
 49
0.0
140
0.0
141
0.0
142
1.0
143
1.0
 70
   688
 72
     0
 73
     0
 74
     5
  7

 75
    16
 76
     0
 77
     2
 78
   300
147
1.0
148
0.0
149
0.0
100
AcDbLayout
  1
Layout1
 70
     1
 71
     1
 10
0.0
 20
0.0
 11
12.0
 21
9.0
 12
0.0
 22
0.0
 32
0.0
 14
1.000000000000000E+20
 24
1.000000000000000E+20
 34
1.000000000000000E+20
 15
-1.000000000000000E+20
 25
-1.000000000000000E+20
 35
-1.000000000000000E+20
146
0.0
 13
0.0
 23
0.0
 33
0.0
 16
1.0
 26
0.0
 36
0.0
 17
0.0
 27
1.0
 37
0.0
 76
     0
330
1B
  0
LAYOUT
  5
26
102
{ACAD_REACTORS
330
1A
102
}
330
1A
100
AcDbPlotSettings
  1

  2
none_device
  4

  6

 40
0.0
 41
0.0
 42
0.0
 43
0.0
 44
0.0
 45
0.0
 46
0.0
 47
0.0
 48
0.0
 49
0.0
140
0.0
141
0.0
142
1.0
143
1.0
 70
   688
 72
     0
 73
     0
 74
     5
  7

 75
    16
 76
     0
 77
     2
 78
   300
147
1.0
148
0.0
149
0.0
100
AcDbLayout
  1
Layout2
 70
     1
 71
     2
 10
0.0
 20
0.0
 11
0.0
 21
0.0
 12
0.0
 22
0.0
 32
0.0
 14
0.0
 24
0.0
 34
0.0
 15
0.0
 25
0.0
 35
0.0
146
0.0
 13
0.0
 23
0.0
 33
0.0
 16
1.0
 26
0.0
 36
0.0
 17
0.0
 27
1.0
 37
0.0
 76
     0
330
23
  0
LAYOUT
  5
22
102
{ACAD_REACTORS
330
1A
102
}
330
1A
100
AcDbPlotSettings
  1

  2
none_device
  4

  6

 40
0.0
 41
0.0
 42
0.0
 43
0.0
 44
0.0
 45
0.0
 46
0.0
 47
0.0
 48
0.0
 49
0.0
140
0.0
141
0.0
142
1.0
143
1.0
 70
  1712
 72
     0
 73
     0
 74
     0
  7

 75
     0
 76
     0
 77
     2
 78
   300
147
1.0
148
0.0
149
0.0
100
AcDbLayout
  1
Model
 70
     1
 71
     0
 10
0.0
 20
0.0
 11
12.0
 21
9.0
 12
0.0
 22
0.0
 32
0.0
 14
-13.82637
 24
-16.27646
 34
0.0
 15
-7.17354
 25
-11.42354
 35
0.0
146
0.0
 13
0.0
 23
0.0
 33
0.0
 16
1.0
 26
0.0
 36
0.0
 17
0.0
 27
1.0
 37
0.0
 76
     0
330
1F
331
29
  0
MLINESTYLE
  5
18
102
{ACAD_REACTORS
330
17
102
}
330
17
100
AcDbMlineStyle
  2
Standard
 70
     0
  3

 62
   256
 51
90.0
 52
90.0
 71
     2
 49
0.5
 62
   256
  6
BYLAYER
 49
-0.5
 62
   256
  6
BYLAYER
  0
ACDBPLACEHOLDER
  5
F
102
{ACAD_REACTORS
330
E
102
}
330
E
  0
SCALE
  5
3C
102
{ACAD_REACTORS
330
3B
102
}
330
3B
100
AcDbScale
 70
     0
300
1:1
140
1.0
141
1.0
290
     1
  0
SCALE
  5
3D
102
{ACAD_REACTORS
330
3B
102
}
330
3B
100
AcDbScale
 70
     0
300
1:2
140
1.0
141
2.0
290
     0
  0
SCALE
  5
3E
102
{ACAD_REACTORS
330
3B
102
}
330
3B
100
AcDbScale
 70
     0
300
1:4
140
1.0
141
4.0
290
     0
  0
SCALE
  5
3F
102
{ACAD_REACTORS
330
3B
102
}
330
3B
100
AcDbScale
 70
     0
300
1:5
140
1.0
141
5.0
290
     0
  0
SCALE
  5
40
102
{ACAD_REACTORS
330
3B
102
}
330
3B
100
AcDbScale
 70
     0
300
1:8
140
1.0
141
8.0
290
     0
  0
SCALE
  5
41
102
{ACAD_REACTORS
330
3B
102
}
330
3B
100
AcDbScale
 70
     0
300
1:10
140
1.0
141
10.0
290
     0
  0
SCALE
  5
42
102
{ACAD_REACTORS
330
3B
102
}
330
3B
100
AcDbScale
 70
     0
300
1:16
140
1.0
141
16.0
290
     0
  0
SCALE
  5
43
102
{ACAD_REACTORS
330
3B
102
}
330
3B
100
AcDbScale
 70
     0
300
1:20
140
1.0
141
20.0
290
     0
  0
SCALE
  5
44
102
{ACAD_REACTORS
330
3B
102
}
330
3B
100
AcDbScale
 70
     0
300
1:30
140
1.0
141
30.0
290
     0
  0
SCALE
  5
45
102
{ACAD_REACTORS
330
3B
102
}
330
3B
100
AcDbScale
 70
     0
300
1:40
140
1.0
141
40.0
290
     0
  0
SCALE
  5
46
102
{ACAD_REACTORS
330
3B
102
}
330
3B
100
AcDbScale
 70
     0
300
1:50
140
1.0
141
50.0
290
     0
  0
SCALE
  5
47
102
{ACAD_REACTORS
330
3B
102
}
330
3B
100
AcDbScale
 70
     0
300
1:100
140
1.0
141
100.0
290
     0
  0
SCALE
  5
48
102
{ACAD_REACTORS
330
3B
102
}
330
3B
100
AcDbScale
 70
     0
300
2:1
140
2.0
141
1.0
290
     0
  0
SCALE
  5
49
102
{ACAD_REACTORS
330
3B
102
}
330
3B
100
AcDbScale
 70
     0
300
4:1
140
4.0
141
1.0
290
     0
  0
SCALE
  5
4A
102
{ACAD_REACTORS
330
3B
102
}
330
3B
100
AcDbScale
 70
     0
300
8:1
140
8.0
141
1.0
290
     0
  0
SCALE
  5
4B
102
{ACAD_REACTORS
330
3B
102
}
330
3B
100
AcDbScale
 70
     0
300
10:1
140
10.0
141
1.0
290
     0
  0
SCALE
  5
4C
102
{ACAD_REACTORS
330
3B
102
}
330
3B
100
AcDbScale
 70
     0
300
100:1
140
100.0
141
1.0
290
     0
  0
SCALE
  5
4D
102
{ACAD_REACTORS
330
3B
102
}
330
3B
100
AcDbScale
 70
     0
300
1/128" = 1'-0"
140
0.0078125
141
12.0
290
     0
  0
SCALE
  5
4E
102
{ACAD_REACTORS
330
3B
102
}
330
3B
100
AcDbScale
 70
     0
300
1/64" = 1'-0"
140
0.015625
141
12.0
290
     0
  0
SCALE
  5
4F
102
{ACAD_REACTORS
330
3B
102
}
330
3B
100
AcDbScale
 70
     0
300
1/32" = 1'-0"
140
0.03125
141
12.0
290
     0
  0
SCALE
  5
50
102
{ACAD_REACTORS
330
3B
102
}
330
3B
100
AcDbScale
 70
     0
300
1/16" = 1'-0"
140
0.0625
141
12.0
290
     0
  0
SCALE
  5
51
102
{ACAD_REACTORS
330
3B
102
}
330
3B
100
AcDbScale
 70
     0
300
3/32" = 1'-0"
140
0.09375
141
12.0
290
     0
  0
SCALE
  5
52
102
{ACAD_REACTORS
330
3B
102
}
330
3B
100
AcDbScale
 70
     0
300
1/8" = 1'-0"
140
0.125
141
12.0
290
     0
  0
SCALE
  5
53
102
{ACAD_REACTORS
330
3B
102
}
330
3B
100
AcDbScale
 70
     0
300
3/16" = 1'-0"
140
0.1875
141
12.0
290
     0
  0
SCALE
  5
54
102
{ACAD_REACTORS
330
3B
102
}
330
3B
100
AcDbScale
 70
     0
300
1/4" = 1'-0"
140
0.25
141
12.0
290
     0
  0
SCALE
  5
55
102
{ACAD_REACTORS
330
3B
102
}
330
3B
100
AcDbScale
 70
     0
300
3/8" = 1'-0"
140
0.375
141
12.0
290
     0
  0
SCALE
  5
56
102
{ACAD_REACTORS
330
3B
102
}
330
3B
100
AcDbScale
 70
     0
300
1/2" = 1'-0"
140
0.5
141
12.0
290
     0
  0
SCALE
  5
57
102
{ACAD_REACTORS
330
3B
102
}
330
3B
100
AcDbScale
 70
     0
300
3/4" = 1'-0"
140
0.75
141
12.0
290
     0
  0
SCALE
  5
58
102
{ACAD_REACTORS
330
3B
102
}
330
3B
100
AcDbScale
 70
     0
300
1" = 1'-0"
140
1.0
141
12.0
290
     0
  0
SCALE
  5
59
102
{ACAD_REACTORS
330
3B
102
}
330
3B
100
AcDbScale
 70
     0
300
1-1/2" = 1'-0"
140
1.5
141
12.0
290
     0
  0
SCALE
  5
5A
102
{ACAD_REACTORS
330
3B
102
}
330
3B
100
AcDbScale
 70
     0
300
3" = 1'-0"
140
3.0
141
12.0
290
     0
  0
SCALE
  5
5B
102
{ACAD_REACTORS
330
3B
102
}
330
3B
100
AcDbScale
 70
     0
300
6" = 1'-0"
140
6.0
141
12.0
290
     0
  0
SCALE
  5
5C
102
{ACAD_REACTORS
330
3B
102
}
330
3B
100
AcDbScale
 70
     0
300
1'-0" = 1'-0"
140
12.0
141
12.0
290
     0
  0
VISUALSTYLE
  5
2F
102
{ACAD_REACTORS
330
2A
102
}
330
2A
100
AcDbVisualStyle
  2
2dWireframe
 70
     4
 71
     0
 72
     2
 73
     0
 90
        0
 40
-0.6
 41
-30.0
 62
     5
 63
     7
421
 16777215
 74
     1
 91
        4
 64
     7
 65
   257
 75
     1
175
     1
 42
1.0
 92
        0
 66
   257
 43
1.0
 76
     1
 77
     6
 78
     2
 67
     7
 79
     5
170
     0
171
     0
290
     0
174
     0
 93
        1
 44
0.0
173
     0
291
     0
 45
0.0
  0
VISUALSTYLE
  5
31
102
{ACAD_REACTORS
330
2A
102
}
330
2A
100
AcDbVisualStyle
  2
3D Hidden
 70
     6
 71
     1
 72
     2
 73
     2
 90
        0
 40
-0.6
 41
-30.0
 62
     5
 63
     7
421
 16777215
 74
     2
 91
        2
 64
     7
 65
   257
 75
     2
175
     1
 42
40.0
 92
        0
 66
   257
 43
1.0
 76
     1
 77
     6
 78
     2
 67
     7
 79
     3
170
     0
171
     0
290
     0
174
     0
 93
        1
 44
0.0
173
     0
291
     0
 45
0.0
  0
VISUALSTYLE
  5
30
102
{ACAD_REACTORS
330
2A
102
}
330
2A
100
AcDbVisualStyle
  2
3dWireframe
 70
     5
 71
     0
 72
     2
 73
     0
 90
        0
 40
-0.6
 41
-30.0
 62
     5
 63
     7
421
 16777215
 74
     1
 91
        4
 64
     7
 65
   257
 75
     1
175
     1
 42
1.0
 92
        0
 66
   257
 43
1.0
 76
     1
 77
     6
 78
     2
 67
     7
 79
     5
170
     0
171
     0
290
     0
174
     0
 93
        1
 44
0.0
173
     0
291
     0
 45
0.0
  0
VISUALSTYLE
  5
32
102
{ACAD_REACTORS
330
2A
102
}
330
2A
100
AcDbVisualStyle
  2
Basic
 70
     7
 71
     1
 72
     0
 73
     1
 90
        0
 40
-0.6
 41
-30.0
 62
     5
 63
     7
421
 16777215
 74
     0
 91
        4
 64
     7
 65
   257
 75
     1
175
     1
 42
1.0
 92
        8
 66
     7
 43
1.0
 76
     1
 77
     6
 78
     2
 67
     7
 79
     5
170
     0
171
     0
290
     0
174
     0
 93
        1
 44
0.0
173
     0
291
     1
 45
0.0
  0
VISUALSTYLE
  5
36
102
{ACAD_REACTORS
330
2A
102
}
330
2A
100
AcDbVisualStyle
  2
Brighten
 70
    12
 71
     2
 72
     2
 73
     0
 90
        0
 40
-0.6
 41
-30.0
 62
     5
 63
     7
421
 16777215
 74
     1
 91
        4
 64
     7
 65
   257
 75
     1
175
     1
 42
1.0
 92
        8
 66
     7
 43
1.0
 76
     1
 77
     6
 78
     2
 67
     7
 79
     5
170
     0
171
     0
290
     0
174
     0
 93
        1
 44
50.0
173
     0
291
     1
 45
0.0
  0
VISUALSTYLE
  5
3A
102
{ACAD_REACTORS
330
2A
102
}
330
2A
100
AcDbVisualStyle
  2
ColorChange
 70
    16
 71
     2
 72
     2
 73
     3
 90
        0
 40
-0.6
 41
-30.0
 62
     5
 63
     8
421
  8421504
 74
     1
 91
        4
 64
     7
 65
   257
 75
     1
175
     1
 42
1.0
 92
        8
 66
     8
424
  8421504
 43
1.0
 76
     1
 77
     6
 78
     2
 67
     7
 79
     5
170
     0
171
     0
290
     0
174
     0
 93
        1
 44
0.0
173
     0
291
     1
 45
0.0
  0
VISUALSTYLE
  5
34
102
{ACAD_REACTORS
330
2A
102
}
330
2A
100
AcDbVisualStyle
  2
Conceptual
 70
     9
 71
     3
 72
     2
 73
     0
 90
        0
 40
-0.6
 41
-30.0
 62
     5
 63
     7
421
 16777215
 74
     2
 91
        2
 64
     7
 65
   257
 75
     1
175
     1
 42
40.0
 92
        8
 66
     7
 43
1.0
 76
     1
 77
     6
 78
     2
 67
     7
 79
     3
170
     0
171
     0
290
     0
174
     0
 93
        1
 44
0.0
173
     0
291
     0
 45
0.0
  0
VISUALSTYLE
  5
35
102
{ACAD_REACTORS
330
2A
102
}
330
2A
100
AcDbVisualStyle
  2
Dim
 70
    11
 71
     2
 72
     2
 73
     0
 90
        0
 40
-0.6
 41
-30.0
 62
     5
 63
     7
421
 16777215
 74
     1
 91
        4
 64
     7
 65
   257
 75
     1
175
     1
 42
1.0
 92
        8
 66
     7
 43
1.0
 76
     1
 77
     6
 78
     2
 67
     7
 79
     5
170
     0
171
     0
290
     0
174
     0
 93
        1
 44
-50.0
173
     0
291
     1
 45
0.0
  0
VISUALSTYLE
  5
39
102
{ACAD_REACTORS
330
2A
102
}
330
2A
100
AcDbVisualStyle
  2
Facepattern
 70
    15
 71
     2
 72
     2
 73
     0
 90
        0
 40
-0.6
 41
-30.0
 62
     5
 63
     7
421
 16777215
 74
     1
 91
        4
 64
     7
 65
   257
 75
     1
175
     1
 42
1.0
 92
        8
 66
     7
 43
1.0
 76
     1
 77
     6
 78
     2
 67
     7
 79
     5
170
     0
171
     0
290
     0
174
     0
 93
        1
 44
0.0
173
     0
291
     1
 45
0.0
  0
VISUALSTYLE
  5
2B
102
{ACAD_REACTORS
330
2A
102
}
330
2A
100
AcDbVisualStyle
  2
Flat
 70
     0
 71
     2
 72
     1
 73
     1
 90
        2
 40
-0.6
 41
30.0
 62
     5
 63
     7
421
 16777215
 74
     0
 91
        4
 64
     7
 65
   257
 75
     1
175
     1
 42
1.0
 92
        8
 66
     7
 43
1.0
 76
     1
 77
     6
 78
     2
 67
     7
 79
     5
170
     0
171
     0
290
     0
174
     0
 93
       13
 44
0.0
173
     0
291
     1
 45
0.0
  0
VISUALSTYLE
  5
2C
102
{ACAD_REACTORS
330
2A
102
}
330
2A
100
AcDbVisualStyle
  2
FlatWithEdges
 70
     1
 71
     2
 72
     1
 73
     1
 90
        2
 40
-0.6
 41
30.0
 62
     5
 63
     7
421
 16777215
 74
     1
 91
        4
 64
     7
 65
   257
 75
     1
175
     1
 42
1.0
 92
        0
 66
   257
 43
1.0
 76
     1
 77
     6
 78
     2
 67
     7
 79
     5
170
     0
171
     0
290
     0
174
     0
 93
       13
 44
0.0
173
     0
291
     1
 45
0.0
  0
VISUALSTYLE
  5
2D
102
{ACAD_REACTORS
330
2A
102
}
330
2A
100
AcDbVisualStyle
  2
Gouraud
 70
     2
 71
     2
 72
     2
 73
     1
 90
        2
 40
-0.6
 41
30.0
 62
     5
 63
     7
421
 16777215
 74
     0
 91
        4
 64
     7
 65
   257
 75
     1
175
     1
 42
1.0
 92
        0
 66
     7
 43
1.0
 76
     1
 77
     6
 78
     2
 67
     7
 79
     5
170
     0
171
     0
290
     0
174
     0
 93
       13
 44
0.0
173
     0
291
     1
 45
0.0
  0
VISUALSTYLE
  5
2E
102
{ACAD_REACTORS
330
2A
102
}
330
2A
100
AcDbVisualStyle
  2
GouraudWithEdges
 70
     3
 71
     2
 72
     2
 73
     1
 90
        2
 40
-0.6
 41
30.0
 62
     5
 63
     7
421
 16777215
 74
     1
 91
        4
 64
     7
 65
   257
 75
     1
175
     1
 42
1.0
 92
        0
 66
   257
 43
1.0
 76
     1
 77
     6
 78
     2
 67
     7
 79
     5
170
     0
171
     0
290
     0
174
     0
 93
       13
 44
0.0
173
     0
291
     1
 45
0.0
  0
VISUALSTYLE
  5
38
102
{ACAD_REACTORS
330
2A
102
}
330
2A
100
AcDbVisualStyle
  2
Linepattern
 70
    14
 71
     2
 72
     2
 73
     0
 90
        0
 40
-0.6
 41
-30.0
 62
     5
 63
     7
421
 16777215
 74
     1
 91
        4
 64
     7
 65
   257
 75
     7
175
     7
 42
1.0
 92
        8
 66
     7
 43
1.0
 76
     1
 77
     6
 78
     2
 67
     7
 79
     5
170
     0
171
     0
290
     0
174
     0
 93
        1
 44
0.0
173
     0
291
     1
 45
0.0
  0
VISUALSTYLE
  5
33
102
{ACAD_REACTORS
330
2A
102
}
330
2A
100
AcDbVisualStyle
  2
Realistic
 70
     8
 71
     2
 72
     2
 73
     0
 90
        0
 40
-0.6
 41
-30.0
 62
     5
 63
     7
421
 16777215
 74
     1
 91
        0
 64
     7
 65
   257
 75
     1
175
     1
 42
1.0
 92
        8
 66
     8
424
  7895160
 43
1.0
 76
     1
 77
     6
 78
     2
 67
     7
 79
     5
170
     0
171
     0
290
     0
174
     0
 93
       13
 44
0.0
173
     0
291
     0
 45
0.0
  0
VISUALSTYLE
  5
37
102
{ACAD_REACTORS
330
2A
102
}
330
2A
100
AcDbVisualStyle
  2
Thicken
 70
    13
 71
     2
 72
     2
 73
     0
 90
        0
 40
-0.6
 41
-30.0
 62
     5
 63
     7
421
 16777215
 74
     1
 91
        4
 64
     7
 65
   257
 75
     1
175
     1
 42
1.0
 92
       12
 66
     7
 43
1.0
 76
     1
 77
     6
 78
     2
 67
     7
 79
     5
170
     0
171
     0
290
     0
174
     0
 93
        1
 44
0.0
173
     0
291
     1
 45
0.0
  0
ENDSEC
  0
EOF
