<?xml version="1.0" standalone="no"?>
<!DOCTYPE svg PUBLIC "-//W3C//DTD SVG 1.1//EN" "http://www.w3.org/Graphics/SVG/1.1/DTD/svg11.dtd">
<svg width="117mm" height="117mm" viewBox="9 -126 117 117" xmlns="http://www.w3.org/2000/svg" version="1.1">
<title>OpenSCAD Model</title>
<path d="
M 121,-9.02962 L 121.314,-9.00986 L 122.545,-9.24471 L 123.679,-9.77835 L 124.645,-10.5773 L 125.382,-11.5912
 L 125.843,-12.7565 L 126,-14 L 126,-121 L 125.843,-122.243 L 125.382,-123.409 L 124.645,-124.423
 L 123.679,-125.222 L 122.545,-125.755 L 121.314,-125.99 L 121,-125.97 L 121,-126 L 14,-126
 L 14,-125.97 L 13.0631,-125.911 L 11.8711,-125.524 L 10.8129,-124.853 L 9.95491,-123.939 L 9.3511,-122.841
 L 9.03941,-121.627 L 9.03941,-121 L 9,-121 L 9,-14 L 9.03941,-14 L 9.03941,-13.3733
 L 9.3511,-12.1594 L 9.95491,-11.0611 L 10.8129,-10.1474 L 11.8711,-9.47586 L 13.0631,-9.08856 L 14,-9.02962
 L 14,-9 L 121,-9 z
" stroke="black" fill="lightgray" stroke-width="0.5"/>
</svg>
