<?xml version="1.0" standalone="no"?>
<!DOCTYPE svg PUBLIC "-//W3C//DTD SVG 1.1//EN" "http://www.w3.org/Graphics/SVG/1.1/DTD/svg11.dtd">
<svg width="118mm" height="118mm" viewBox="-59 -59 118 118" xmlns="http://www.w3.org/2000/svg" version="1.1">
<title>OpenSCAD Model</title>
<path d="
M 54.7435,58.3429 L 55.9088,57.8815 L 56.9227,57.1448 L 57.7216,56.1791 L 58.2553,55.0451 L 58.5,53.5
 L 58.5,-53.5 L 58.3429,-54.7435 L 57.8815,-55.9088 L 57.1448,-56.9227 L 56.1791,-57.7216 L 55.0451,-58.2553
 L 53.5,-58.5 L -53.5,-58.5 L -54.7435,-58.3429 L -55.9088,-57.8815 L -56.9227,-57.1448 L -57.7216,-56.1791
 L -58.2553,-55.0451 L -58.5,-53.5 L -58.5,53.5 L -58.3429,54.7435 L -57.8815,55.9088 L -57.1448,56.9227
 L -56.1791,57.7216 L -55.0451,58.2553 L -53.5,58.5 L 53.5,58.5 z
M 36.9379,-49.5531 L 36.2227,-49.7855 L 35.5877,-50.1885 L 35.0729,-50.7366 L 34.7107,-51.3956 L 34.5237,-52.124
 L 34.5237,-52.876 L 34.7107,-53.6044 L 35.0729,-54.2634 L 35.5877,-54.8115 L 36.2227,-55.2145 L 36.9379,-55.4469
 L 37.6884,-55.4941 L 38.427,-55.3532 L 39.1075,-55.033 L 39.6869,-54.5536 L 40.1289,-53.9453 L 40.4057,-53.2461
 L 40.5,-52.5 L 40.4057,-51.7539 L 40.1289,-51.0547 L 39.6869,-50.4464 L 39.1075,-49.967 L 38.427,-49.6468
 L 37.6884,-49.5059 z
M 6.93785,-49.5531 L 6.22266,-49.7855 L 5.58772,-50.1885 L 5.07294,-50.7366 L 4.71066,-51.3956 L 4.52365,-52.124
 L 4.52365,-52.876 L 4.71066,-53.6044 L 5.07294,-54.2634 L 5.58772,-54.8115 L 6.22266,-55.2145 L 6.93785,-55.4469
 L 7.68837,-55.4941 L 8.42705,-55.3532 L 9.10747,-55.033 L 9.6869,-54.5536 L 10.1289,-53.9453 L 10.4057,-53.2461
 L 10.5,-52.5 L 10.4057,-51.7539 L 10.1289,-51.0547 L 9.6869,-50.4464 L 9.10747,-49.967 L 8.42705,-49.6468
 L 7.68837,-49.5059 z
M -8.06213,-49.5531 L -8.77733,-49.7855 L -9.41226,-50.1885 L -9.92705,-50.7366 L -10.2893,-51.3956 L -10.4763,-52.124
 L -10.4763,-52.876 L -10.2893,-53.6044 L -9.92705,-54.2634 L -9.41226,-54.8115 L -8.77733,-55.2145 L -8.06213,-55.4469
 L -7.31161,-55.4941 L -6.57294,-55.3532 L -5.89252,-55.033 L -5.31308,-54.5536 L -4.87108,-53.9453 L -4.59424,-53.2461
 L -4.5,-52.5 L -4.59424,-51.7539 L -4.87108,-51.0547 L -5.31308,-50.4464 L -5.89252,-49.967 L -6.57294,-49.6468
 L -7.31161,-49.5059 z
M -53.0621,-49.5531 L -53.7773,-49.7855 L -54.4123,-50.1885 L -54.927,-50.7366 L -55.2893,-51.3956 L -55.4763,-52.124
 L -55.4763,-52.876 L -55.2893,-53.6044 L -54.927,-54.2634 L -54.4123,-54.8115 L -53.7773,-55.2145 L -53.0621,-55.4469
 L -52.3116,-55.4941 L -51.5729,-55.3532 L -50.8925,-55.033 L -50.3131,-54.5536 L -49.8711,-53.9453 L -49.5942,-53.2461
 L -49.5,-52.5 L -49.5942,-51.7539 L -49.8711,-51.0547 L -50.3131,-50.4464 L -50.8925,-49.967 L -51.5729,-49.6468
 L -52.3116,-49.5059 z
M 21.9379,-49.5531 L 21.2227,-49.7855 L 20.5877,-50.1885 L 20.0729,-50.7366 L 19.7107,-51.3956 L 19.5237,-52.124
 L 19.5237,-52.876 L 19.7107,-53.6044 L 20.0729,-54.2634 L 20.5877,-54.8115 L 21.2227,-55.2145 L 21.9379,-55.4469
 L 22.6884,-55.4941 L 23.427,-55.3532 L 24.1075,-55.033 L 24.6869,-54.5536 L 25.1289,-53.9453 L 25.4057,-53.2461
 L 25.5,-52.5 L 25.4057,-51.7539 L 25.1289,-51.0547 L 24.6869,-50.4464 L 24.1075,-49.967 L 23.427,-49.6468
 L 22.6884,-49.5059 z
M -38.0621,-49.5531 L -38.7773,-49.7855 L -39.4123,-50.1885 L -39.927,-50.7366 L -40.2893,-51.3956 L -40.4763,-52.124
 L -40.4763,-52.876 L -40.2893,-53.6044 L -39.927,-54.2634 L -39.4123,-54.8115 L -38.7773,-55.2145 L -38.0621,-55.4469
 L -37.3116,-55.4941 L -36.5729,-55.3532 L -35.8925,-55.033 L -35.3131,-54.5536 L -34.8711,-53.9453 L -34.5942,-53.2461
 L -34.5,-52.5 L -34.5942,-51.7539 L -34.8711,-51.0547 L -35.3131,-50.4464 L -35.8925,-49.967 L -36.5729,-49.6468
 L -37.3116,-49.5059 z
M -23.0621,-49.5531 L -23.7773,-49.7855 L -24.4123,-50.1885 L -24.927,-50.7366 L -25.2893,-51.3956 L -25.4763,-52.124
 L -25.4763,-52.876 L -25.2893,-53.6044 L -24.927,-54.2634 L -24.4123,-54.8115 L -23.7773,-55.2145 L -23.0621,-55.4469
 L -22.3116,-55.4941 L -21.5729,-55.3532 L -20.8925,-55.033 L -20.3131,-54.5536 L -19.8711,-53.9453 L -19.5942,-53.2461
 L -19.5,-52.5 L -19.5942,-51.7539 L -19.8711,-51.0547 L -20.3131,-50.4464 L -20.8925,-49.967 L -21.5729,-49.6468
 L -22.3116,-49.5059 z
M 51.9379,-49.5531 L 51.2227,-49.7855 L 50.5877,-50.1885 L 50.0729,-50.7366 L 49.7107,-51.3956 L 49.5237,-52.124
 L 49.5237,-52.876 L 49.7107,-53.6044 L 50.0729,-54.2634 L 50.5877,-54.8115 L 51.2227,-55.2145 L 51.9379,-55.4469
 L 52.6884,-55.4941 L 53.427,-55.3532 L 54.1075,-55.033 L 54.6869,-54.5536 L 55.1289,-53.9453 L 55.4057,-53.2461
 L 55.5,-52.5 L 55.4057,-51.7539 L 55.1289,-51.0547 L 54.6869,-50.4464 L 54.1075,-49.967 L 53.427,-49.6468
 L 52.6884,-49.5059 z
M 6.93785,-34.5531 L 6.22266,-34.7855 L 5.58772,-35.1885 L 5.07294,-35.7366 L 4.71066,-36.3956 L 4.52365,-37.124
 L 4.52365,-37.876 L 4.71066,-38.6044 L 5.07294,-39.2634 L 5.58772,-39.8115 L 6.22266,-40.2145 L 6.93785,-40.4469
 L 7.68837,-40.4941 L 8.42705,-40.3532 L 9.10747,-40.033 L 9.6869,-39.5536 L 10.1289,-38.9453 L 10.4057,-38.2461
 L 10.5,-37.5 L 10.4057,-36.7539 L 10.1289,-36.0547 L 9.6869,-35.4464 L 9.10747,-34.967 L 8.42705,-34.6468
 L 7.68837,-34.5059 z
M -53.0621,-34.5531 L -53.7773,-34.7855 L -54.4123,-35.1885 L -54.927,-35.7366 L -55.2893,-36.3956 L -55.4763,-37.124
 L -55.4763,-37.876 L -55.2893,-38.6044 L -54.927,-39.2634 L -54.4123,-39.8115 L -53.7773,-40.2145 L -53.0621,-40.4469
 L -52.3116,-40.4941 L -51.5729,-40.3532 L -50.8925,-40.033 L -50.3131,-39.5536 L -49.8711,-38.9453 L -49.5942,-38.2461
 L -49.5,-37.5 L -49.5942,-36.7539 L -49.8711,-36.0547 L -50.3131,-35.4464 L -50.8925,-34.967 L -51.5729,-34.6468
 L -52.3116,-34.5059 z
M 36.9379,-34.5531 L 36.2227,-34.7855 L 35.5877,-35.1885 L 35.0729,-35.7366 L 34.7107,-36.3956 L 34.5237,-37.124
 L 34.5237,-37.876 L 34.7107,-38.6044 L 35.0729,-39.2634 L 35.5877,-39.8115 L 36.2227,-40.2145 L 36.9379,-40.4469
 L 37.6884,-40.4941 L 38.427,-40.3532 L 39.1075,-40.033 L 39.6869,-39.5536 L 40.1289,-38.9453 L 40.4057,-38.2461
 L 40.5,-37.5 L 40.4057,-36.7539 L 40.1289,-36.0547 L 39.6869,-35.4464 L 39.1075,-34.967 L 38.427,-34.6468
 L 37.6884,-34.5059 z
M -38.0621,-34.5531 L -38.7773,-34.7855 L -39.4123,-35.1885 L -39.927,-35.7366 L -40.2893,-36.3956 L -40.4763,-37.124
 L -40.4763,-37.876 L -40.2893,-38.6044 L -39.927,-39.2634 L -39.4123,-39.8115 L -38.7773,-40.2145 L -38.0621,-40.4469
 L -37.3116,-40.4941 L -36.5729,-40.3532 L -35.8925,-40.033 L -35.3131,-39.5536 L -34.8711,-38.9453 L -34.5942,-38.2461
 L -34.5,-37.5 L -34.5942,-36.7539 L -34.8711,-36.0547 L -35.3131,-35.4464 L -35.8925,-34.967 L -36.5729,-34.6468
 L -37.3116,-34.5059 z
M -23.0621,-34.5531 L -23.7773,-34.7855 L -24.4123,-35.1885 L -24.927,-35.7366 L -25.2893,-36.3956 L -25.4763,-37.124
 L -25.4763,-37.876 L -25.2893,-38.6044 L -24.927,-39.2634 L -24.4123,-39.8115 L -23.7773,-40.2145 L -23.0621,-40.4469
 L -22.3116,-40.4941 L -21.5729,-40.3532 L -20.8925,-40.033 L -20.3131,-39.5536 L -19.8711,-38.9453 L -19.5942,-38.2461
 L -19.5,-37.5 L -19.5942,-36.7539 L -19.8711,-36.0547 L -20.3131,-35.4464 L -20.8925,-34.967 L -21.5729,-34.6468
 L -22.3116,-34.5059 z
M 51.9379,-34.5531 L 51.2227,-34.7855 L 50.5877,-35.1885 L 50.0729,-35.7366 L 49.7107,-36.3956 L 49.5237,-37.124
 L 49.5237,-37.876 L 49.7107,-38.6044 L 50.0729,-39.2634 L 50.5877,-39.8115 L 51.2227,-40.2145 L 51.9379,-40.4469
 L 52.6884,-40.4941 L 53.427,-40.3532 L 54.1075,-40.033 L 54.6869,-39.5536 L 55.1289,-38.9453 L 55.4057,-38.2461
 L 55.5,-37.5 L 55.4057,-36.7539 L 55.1289,-36.0547 L 54.6869,-35.4464 L 54.1075,-34.967 L 53.427,-34.6468
 L 52.6884,-34.5059 z
M -8.06213,-34.5531 L -8.77733,-34.7855 L -9.41226,-35.1885 L -9.92705,-35.7366 L -10.2893,-36.3956 L -10.4763,-37.124
 L -10.4763,-37.876 L -10.2893,-38.6044 L -9.92705,-39.2634 L -9.41226,-39.8115 L -8.77733,-40.2145 L -8.06213,-40.4469
 L -7.31161,-40.4941 L -6.57294,-40.3532 L -5.89252,-40.033 L -5.31308,-39.5536 L -4.87108,-38.9453 L -4.59424,-38.2461
 L -4.5,-37.5 L -4.59424,-36.7539 L -4.87108,-36.0547 L -5.31308,-35.4464 L -5.89252,-34.967 L -6.57294,-34.6468
 L -7.31161,-34.5059 z
M 21.9379,-34.5531 L 21.2227,-34.7855 L 20.5877,-35.1885 L 20.0729,-35.7366 L 19.7107,-36.3956 L 19.5237,-37.124
 L 19.5237,-37.876 L 19.7107,-38.6044 L 20.0729,-39.2634 L 20.5877,-39.8115 L 21.2227,-40.2145 L 21.9379,-40.4469
 L 22.6884,-40.4941 L 23.427,-40.3532 L 24.1075,-40.033 L 24.6869,-39.5536 L 25.1289,-38.9453 L 25.4057,-38.2461
 L 25.5,-37.5 L 25.4057,-36.7539 L 25.1289,-36.0547 L 24.6869,-35.4464 L 24.1075,-34.967 L 23.427,-34.6468
 L 22.6884,-34.5059 z
M 51.9379,-19.5531 L 51.2227,-19.7855 L 50.5877,-20.1884 L 50.0729,-20.7366 L 49.7107,-21.3956 L 49.5237,-22.124
 L 49.5237,-22.876 L 49.7107,-23.6044 L 50.0729,-24.2634 L 50.5877,-24.8115 L 51.2227,-25.2145 L 51.9379,-25.4469
 L 52.6884,-25.4941 L 53.427,-25.3532 L 54.1075,-25.033 L 54.6869,-24.5536 L 55.1289,-23.9453 L 55.4057,-23.2461
 L 55.5,-22.5 L 55.4057,-21.7539 L 55.1289,-21.0547 L 54.6869,-20.4464 L 54.1075,-19.967 L 53.427,-19.6468
 L 52.6884,-19.5059 z
M -23.0621,-19.5531 L -23.7773,-19.7855 L -24.4123,-20.1884 L -24.927,-20.7366 L -25.2893,-21.3956 L -25.4763,-22.124
 L -25.4763,-22.876 L -25.2893,-23.6044 L -24.927,-24.2634 L -24.4123,-24.8115 L -23.7773,-25.2145 L -23.0621,-25.4469
 L -22.3116,-25.4941 L -21.5729,-25.3532 L -20.8925,-25.033 L -20.3131,-24.5536 L -19.8711,-23.9453 L -19.5942,-23.2461
 L -19.5,-22.5 L -19.5942,-21.7539 L -19.8711,-21.0547 L -20.3131,-20.4464 L -20.8925,-19.967 L -21.5729,-19.6468
 L -22.3116,-19.5059 z
M -38.0621,-19.5531 L -38.7773,-19.7855 L -39.4123,-20.1884 L -39.927,-20.7366 L -40.2893,-21.3956 L -40.4763,-22.124
 L -40.4763,-22.876 L -40.2893,-23.6044 L -39.927,-24.2634 L -39.4123,-24.8115 L -38.7773,-25.2145 L -38.0621,-25.4469
 L -37.3116,-25.4941 L -36.5729,-25.3532 L -35.8925,-25.033 L -35.3131,-24.5536 L -34.8711,-23.9453 L -34.5942,-23.2461
 L -34.5,-22.5 L -34.5942,-21.7539 L -34.8711,-21.0547 L -35.3131,-20.4464 L -35.8925,-19.967 L -36.5729,-19.6468
 L -37.3116,-19.5059 z
M 21.9379,-19.5531 L 21.2227,-19.7855 L 20.5877,-20.1884 L 20.0729,-20.7366 L 19.7107,-21.3956 L 19.5237,-22.124
 L 19.5237,-22.876 L 19.7107,-23.6044 L 20.0729,-24.2634 L 20.5877,-24.8115 L 21.2227,-25.2145 L 21.9379,-25.4469
 L 22.6884,-25.4941 L 23.427,-25.3532 L 24.1075,-25.033 L 24.6869,-24.5536 L 25.1289,-23.9453 L 25.4057,-23.2461
 L 25.5,-22.5 L 25.4057,-21.7539 L 25.1289,-21.0547 L 24.6869,-20.4464 L 24.1075,-19.967 L 23.427,-19.6468
 L 22.6884,-19.5059 z
M 6.93785,-19.5531 L 6.22266,-19.7855 L 5.58772,-20.1884 L 5.07294,-20.7366 L 4.71066,-21.3956 L 4.52365,-22.124
 L 4.52365,-22.876 L 4.71066,-23.6044 L 5.07294,-24.2634 L 5.58772,-24.8115 L 6.22266,-25.2145 L 6.93785,-25.4469
 L 7.68837,-25.4941 L 8.42705,-25.3532 L 9.10747,-25.033 L 9.6869,-24.5536 L 10.1289,-23.9453 L 10.4057,-23.2461
 L 10.5,-22.5 L 10.4057,-21.7539 L 10.1289,-21.0547 L 9.6869,-20.4464 L 9.10747,-19.967 L 8.42705,-19.6468
 L 7.68837,-19.5059 z
M 36.9379,-19.5531 L 36.2227,-19.7855 L 35.5877,-20.1884 L 35.0729,-20.7366 L 34.7107,-21.3956 L 34.5237,-22.124
 L 34.5237,-22.876 L 34.7107,-23.6044 L 35.0729,-24.2634 L 35.5877,-24.8115 L 36.2227,-25.2145 L 36.9379,-25.4469
 L 37.6884,-25.4941 L 38.427,-25.3532 L 39.1075,-25.033 L 39.6869,-24.5536 L 40.1289,-23.9453 L 40.4057,-23.2461
 L 40.5,-22.5 L 40.4057,-21.7539 L 40.1289,-21.0547 L 39.6869,-20.4464 L 39.1075,-19.967 L 38.427,-19.6468
 L 37.6884,-19.5059 z
M -8.06213,-19.5531 L -8.77733,-19.7855 L -9.41226,-20.1884 L -9.92705,-20.7366 L -10.2893,-21.3956 L -10.4763,-22.124
 L -10.4763,-22.876 L -10.2893,-23.6044 L -9.92705,-24.2634 L -9.41226,-24.8115 L -8.77733,-25.2145 L -8.06213,-25.4469
 L -7.31161,-25.4941 L -6.57294,-25.3532 L -5.89252,-25.033 L -5.31308,-24.5536 L -4.87108,-23.9453 L -4.59424,-23.2461
 L -4.5,-22.5 L -4.59424,-21.7539 L -4.87108,-21.0547 L -5.31308,-20.4464 L -5.89252,-19.967 L -6.57294,-19.6468
 L -7.31161,-19.5059 z
M -53.0621,-19.5531 L -53.7773,-19.7855 L -54.4123,-20.1884 L -54.927,-20.7366 L -55.2893,-21.3956 L -55.4763,-22.124
 L -55.4763,-22.876 L -55.2893,-23.6044 L -54.927,-24.2634 L -54.4123,-24.8115 L -53.7773,-25.2145 L -53.0621,-25.4469
 L -52.3116,-25.4941 L -51.5729,-25.3532 L -50.8925,-25.033 L -50.3131,-24.5536 L -49.8711,-23.9453 L -49.5942,-23.2461
 L -49.5,-22.5 L -49.5942,-21.7539 L -49.8711,-21.0547 L -50.3131,-20.4464 L -50.8925,-19.967 L -51.5729,-19.6468
 L -52.3116,-19.5059 z
M -23.0621,-4.55313 L -23.7773,-4.78551 L -24.4123,-5.18845 L -24.927,-5.73663 L -25.2893,-6.39561 L -25.4763,-7.12399
 L -25.4763,-7.87599 L -25.2893,-8.60437 L -24.927,-9.26335 L -24.4123,-9.81154 L -23.7773,-10.2145 L -23.0621,-10.4469
 L -22.3116,-10.4941 L -21.5729,-10.3532 L -20.8925,-10.033 L -20.3131,-9.55363 L -19.8711,-8.94525 L -19.5942,-8.24606
 L -19.5,-7.5 L -19.5942,-6.75392 L -19.8711,-6.05473 L -20.3131,-5.44635 L -20.8925,-4.96701 L -21.5729,-4.64682
 L -22.3116,-4.50591 z
M 51.9379,-4.55313 L 51.2227,-4.78551 L 50.5877,-5.18845 L 50.0729,-5.73663 L 49.7107,-6.39561 L 49.5237,-7.12399
 L 49.5237,-7.87599 L 49.7107,-8.60437 L 50.0729,-9.26335 L 50.5877,-9.81154 L 51.2227,-10.2145 L 51.9379,-10.4469
 L 52.6884,-10.4941 L 53.427,-10.3532 L 54.1075,-10.033 L 54.6869,-9.55363 L 55.1289,-8.94525 L 55.4057,-8.24606
 L 55.5,-7.5 L 55.4057,-6.75392 L 55.1289,-6.05473 L 54.6869,-5.44635 L 54.1075,-4.96701 L 53.427,-4.64682
 L 52.6884,-4.50591 z
M 21.9379,-4.55313 L 21.2227,-4.78551 L 20.5877,-5.18845 L 20.0729,-5.73663 L 19.7107,-6.39561 L 19.5237,-7.12399
 L 19.5237,-7.87599 L 19.7107,-8.60437 L 20.0729,-9.26335 L 20.5877,-9.81154 L 21.2227,-10.2145 L 21.9379,-10.4469
 L 22.6884,-10.4941 L 23.427,-10.3532 L 24.1075,-10.033 L 24.6869,-9.55363 L 25.1289,-8.94525 L 25.4057,-8.24606
 L 25.5,-7.5 L 25.4057,-6.75392 L 25.1289,-6.05473 L 24.6869,-5.44635 L 24.1075,-4.96701 L 23.427,-4.64682
 L 22.6884,-4.50591 z
M 36.9379,-4.55313 L 36.2227,-4.78551 L 35.5877,-5.18845 L 35.0729,-5.73663 L 34.7107,-6.39561 L 34.5237,-7.12399
 L 34.5237,-7.87599 L 34.7107,-8.60437 L 35.0729,-9.26335 L 35.5877,-9.81154 L 36.2227,-10.2145 L 36.9379,-10.4469
 L 37.6884,-10.4941 L 38.427,-10.3532 L 39.1075,-10.033 L 39.6869,-9.55363 L 40.1289,-8.94525 L 40.4057,-8.24606
 L 40.5,-7.5 L 40.4057,-6.75392 L 40.1289,-6.05473 L 39.6869,-5.44635 L 39.1075,-4.96701 L 38.427,-4.64682
 L 37.6884,-4.50591 z
M -53.0621,-4.55313 L -53.7773,-4.78551 L -54.4123,-5.18845 L -54.927,-5.73663 L -55.2893,-6.39561 L -55.4763,-7.12399
 L -55.4763,-7.87599 L -55.2893,-8.60437 L -54.927,-9.26335 L -54.4123,-9.81154 L -53.7773,-10.2145 L -53.0621,-10.4469
 L -52.3116,-10.4941 L -51.5729,-10.3532 L -50.8925,-10.033 L -50.3131,-9.55363 L -49.8711,-8.94525 L -49.5942,-8.24606
 L -49.5,-7.5 L -49.5942,-6.75392 L -49.8711,-6.05473 L -50.3131,-5.44635 L -50.8925,-4.96701 L -51.5729,-4.64682
 L -52.3116,-4.50591 z
M -38.0621,-4.55313 L -38.7773,-4.78551 L -39.4123,-5.18845 L -39.927,-5.73663 L -40.2893,-6.39561 L -40.4763,-7.12399
 L -40.4763,-7.87599 L -40.2893,-8.60437 L -39.927,-9.26335 L -39.4123,-9.81154 L -38.7773,-10.2145 L -38.0621,-10.4469
 L -37.3116,-10.4941 L -36.5729,-10.3532 L -35.8925,-10.033 L -35.3131,-9.55363 L -34.8711,-8.94525 L -34.5942,-8.24606
 L -34.5,-7.5 L -34.5942,-6.75392 L -34.8711,-6.05473 L -35.3131,-5.44635 L -35.8925,-4.96701 L -36.5729,-4.64682
 L -37.3116,-4.50591 z
M 6.93785,-4.55313 L 6.22266,-4.78551 L 5.58772,-5.18845 L 5.07294,-5.73663 L 4.71066,-6.39561 L 4.52365,-7.12399
 L 4.52365,-7.87599 L 4.71066,-8.60437 L 5.07294,-9.26335 L 5.58772,-9.81154 L 6.22266,-10.2145 L 6.93785,-10.4469
 L 7.68837,-10.4941 L 8.42705,-10.3532 L 9.10747,-10.033 L 9.6869,-9.55363 L 10.1289,-8.94525 L 10.4057,-8.24606
 L 10.5,-7.5 L 10.4057,-6.75392 L 10.1289,-6.05473 L 9.6869,-5.44635 L 9.10747,-4.96701 L 8.42705,-4.64682
 L 7.68837,-4.50591 z
M -8.06213,-4.55313 L -8.77733,-4.78551 L -9.41226,-5.18845 L -9.92705,-5.73663 L -10.2893,-6.39561 L -10.4763,-7.12399
 L -10.4763,-7.87599 L -10.2893,-8.60437 L -9.92705,-9.26335 L -9.41226,-9.81154 L -8.77733,-10.2145 L -8.06213,-10.4469
 L -7.31161,-10.4941 L -6.57294,-10.3532 L -5.89252,-10.033 L -5.31308,-9.55363 L -4.87108,-8.94525 L -4.59424,-8.24606
 L -4.5,-7.5 L -4.59424,-6.75392 L -4.87108,-6.05473 L -5.31308,-5.44635 L -5.89252,-4.96701 L -6.57294,-4.64682
 L -7.31161,-4.50591 z
M -38.0621,10.4469 L -38.7773,10.2145 L -39.4123,9.81154 L -39.927,9.26335 L -40.2893,8.60437 L -40.4763,7.87599
 L -40.4763,7.12399 L -40.2893,6.39561 L -39.927,5.73663 L -39.4123,5.18845 L -38.7773,4.78551 L -38.0621,4.55313
 L -37.3116,4.50591 L -36.5729,4.64682 L -35.8925,4.96701 L -35.3131,5.44635 L -34.8711,6.05473 L -34.5942,6.75392
 L -34.5,7.5 L -34.5942,8.24606 L -34.8711,8.94525 L -35.3131,9.55363 L -35.8925,10.033 L -36.5729,10.3532
 L -37.3116,10.4941 z
M -53.0621,10.4469 L -53.7773,10.2145 L -54.4123,9.81154 L -54.927,9.26335 L -55.2893,8.60437 L -55.4763,7.87599
 L -55.4763,7.12399 L -55.2893,6.39561 L -54.927,5.73663 L -54.4123,5.18845 L -53.7773,4.78551 L -53.0621,4.55313
 L -52.3116,4.50591 L -51.5729,4.64682 L -50.8925,4.96701 L -50.3131,5.44635 L -49.8711,6.05473 L -49.5942,6.75392
 L -49.5,7.5 L -49.5942,8.24606 L -49.8711,8.94525 L -50.3131,9.55363 L -50.8925,10.033 L -51.5729,10.3532
 L -52.3116,10.4941 z
M 36.9379,10.4469 L 36.2227,10.2145 L 35.5877,9.81154 L 35.0729,9.26335 L 34.7107,8.60437 L 34.5237,7.87599
 L 34.5237,7.12399 L 34.7107,6.39561 L 35.0729,5.73663 L 35.5877,5.18845 L 36.2227,4.78551 L 36.9379,4.55313
 L 37.6884,4.50591 L 38.427,4.64682 L 39.1075,4.96701 L 39.6869,5.44635 L 40.1289,6.05473 L 40.4057,6.75392
 L 40.5,7.5 L 40.4057,8.24606 L 40.1289,8.94525 L 39.6869,9.55363 L 39.1075,10.033 L 38.427,10.3532
 L 37.6884,10.4941 z
M -8.06213,10.4469 L -8.77733,10.2145 L -9.41226,9.81154 L -9.92705,9.26335 L -10.2893,8.60437 L -10.4763,7.87599
 L -10.4763,7.12399 L -10.2893,6.39561 L -9.92705,5.73663 L -9.41226,5.18845 L -8.77733,4.78551 L -8.06213,4.55313
 L -7.31161,4.50591 L -6.57294,4.64682 L -5.89252,4.96701 L -5.31308,5.44635 L -4.87108,6.05473 L -4.59424,6.75392
 L -4.5,7.5 L -4.59424,8.24606 L -4.87108,8.94525 L -5.31308,9.55363 L -5.89252,10.033 L -6.57294,10.3532
 L -7.31161,10.4941 z
M 21.9379,10.4469 L 21.2227,10.2145 L 20.5877,9.81154 L 20.0729,9.26335 L 19.7107,8.60437 L 19.5237,7.87599
 L 19.5237,7.12399 L 19.7107,6.39561 L 20.0729,5.73663 L 20.5877,5.18845 L 21.2227,4.78551 L 21.9379,4.55313
 L 22.6884,4.50591 L 23.427,4.64682 L 24.1075,4.96701 L 24.6869,5.44635 L 25.1289,6.05473 L 25.4057,6.75392
 L 25.5,7.5 L 25.4057,8.24606 L 25.1289,8.94525 L 24.6869,9.55363 L 24.1075,10.033 L 23.427,10.3532
 L 22.6884,10.4941 z
M 51.9379,10.4469 L 51.2227,10.2145 L 50.5877,9.81154 L 50.0729,9.26335 L 49.7107,8.60437 L 49.5237,7.87599
 L 49.5237,7.12399 L 49.7107,6.39561 L 50.0729,5.73663 L 50.5877,5.18845 L 51.2227,4.78551 L 51.9379,4.55313
 L 52.6884,4.50591 L 53.427,4.64682 L 54.1075,4.96701 L 54.6869,5.44635 L 55.1289,6.05473 L 55.4057,6.75392
 L 55.5,7.5 L 55.4057,8.24606 L 55.1289,8.94525 L 54.6869,9.55363 L 54.1075,10.033 L 53.427,10.3532
 L 52.6884,10.4941 z
M 6.93785,10.4469 L 6.22266,10.2145 L 5.58772,9.81154 L 5.07294,9.26335 L 4.71066,8.60437 L 4.52365,7.87599
 L 4.52365,7.12399 L 4.71066,6.39561 L 5.07294,5.73663 L 5.58772,5.18845 L 6.22266,4.78551 L 6.93785,4.55313
 L 7.68837,4.50591 L 8.42705,4.64682 L 9.10747,4.96701 L 9.6869,5.44635 L 10.1289,6.05473 L 10.4057,6.75392
 L 10.5,7.5 L 10.4057,8.24606 L 10.1289,8.94525 L 9.6869,9.55363 L 9.10747,10.033 L 8.42705,10.3532
 L 7.68837,10.4941 z
M -23.0621,10.4469 L -23.7773,10.2145 L -24.4123,9.81154 L -24.927,9.26335 L -25.2893,8.60437 L -25.4763,7.87599
 L -25.4763,7.12399 L -25.2893,6.39561 L -24.927,5.73663 L -24.4123,5.18845 L -23.7773,4.78551 L -23.0621,4.55313
 L -22.3116,4.50591 L -21.5729,4.64682 L -20.8925,4.96701 L -20.3131,5.44635 L -19.8711,6.05473 L -19.5942,6.75392
 L -19.5,7.5 L -19.5942,8.24606 L -19.8711,8.94525 L -20.3131,9.55363 L -20.8925,10.033 L -21.5729,10.3532
 L -22.3116,10.4941 z
M 21.9379,25.4469 L 21.2227,25.2145 L 20.5877,24.8115 L 20.0729,24.2634 L 19.7107,23.6044 L 19.5237,22.876
 L 19.5237,22.124 L 19.7107,21.3956 L 20.0729,20.7366 L 20.5877,20.1884 L 21.2227,19.7855 L 21.9379,19.5531
 L 22.6884,19.5059 L 23.427,19.6468 L 24.1075,19.967 L 24.6869,20.4464 L 25.1289,21.0547 L 25.4057,21.7539
 L 25.5,22.5 L 25.4057,23.2461 L 25.1289,23.9453 L 24.6869,24.5536 L 24.1075,25.033 L 23.427,25.3532
 L 22.6884,25.4941 z
M 36.9379,25.4469 L 36.2227,25.2145 L 35.5877,24.8115 L 35.0729,24.2634 L 34.7107,23.6044 L 34.5237,22.876
 L 34.5237,22.124 L 34.7107,21.3956 L 35.0729,20.7366 L 35.5877,20.1884 L 36.2227,19.7855 L 36.9379,19.5531
 L 37.6884,19.5059 L 38.427,19.6468 L 39.1075,19.967 L 39.6869,20.4464 L 40.1289,21.0547 L 40.4057,21.7539
 L 40.5,22.5 L 40.4057,23.2461 L 40.1289,23.9453 L 39.6869,24.5536 L 39.1075,25.033 L 38.427,25.3532
 L 37.6884,25.4941 z
M -53.0621,25.4469 L -53.7773,25.2145 L -54.4123,24.8115 L -54.927,24.2634 L -55.2893,23.6044 L -55.4763,22.876
 L -55.4763,22.124 L -55.2893,21.3956 L -54.927,20.7366 L -54.4123,20.1884 L -53.7773,19.7855 L -53.0621,19.5531
 L -52.3116,19.5059 L -51.5729,19.6468 L -50.8925,19.967 L -50.3131,20.4464 L -49.8711,21.0547 L -49.5942,21.7539
 L -49.5,22.5 L -49.5942,23.2461 L -49.8711,23.9453 L -50.3131,24.5536 L -50.8925,25.033 L -51.5729,25.3532
 L -52.3116,25.4941 z
M 6.93785,25.4469 L 6.22266,25.2145 L 5.58772,24.8115 L 5.07294,24.2634 L 4.71066,23.6044 L 4.52365,22.876
 L 4.52365,22.124 L 4.71066,21.3956 L 5.07294,20.7366 L 5.58772,20.1884 L 6.22266,19.7855 L 6.93785,19.5531
 L 7.68837,19.5059 L 8.42705,19.6468 L 9.10747,19.967 L 9.6869,20.4464 L 10.1289,21.0547 L 10.4057,21.7539
 L 10.5,22.5 L 10.4057,23.2461 L 10.1289,23.9453 L 9.6869,24.5536 L 9.10747,25.033 L 8.42705,25.3532
 L 7.68837,25.4941 z
M -23.0621,25.4469 L -23.7773,25.2145 L -24.4123,24.8115 L -24.927,24.2634 L -25.2893,23.6044 L -25.4763,22.876
 L -25.4763,22.124 L -25.2893,21.3956 L -24.927,20.7366 L -24.4123,20.1884 L -23.7773,19.7855 L -23.0621,19.5531
 L -22.3116,19.5059 L -21.5729,19.6468 L -20.8925,19.967 L -20.3131,20.4464 L -19.8711,21.0547 L -19.5942,21.7539
 L -19.5,22.5 L -19.5942,23.2461 L -19.8711,23.9453 L -20.3131,24.5536 L -20.8925,25.033 L -21.5729,25.3532
 L -22.3116,25.4941 z
M 51.9379,25.4469 L 51.2227,25.2145 L 50.5877,24.8115 L 50.0729,24.2634 L 49.7107,23.6044 L 49.5237,22.876
 L 49.5237,22.124 L 49.7107,21.3956 L 50.0729,20.7366 L 50.5877,20.1884 L 51.2227,19.7855 L 51.9379,19.5531
 L 52.6884,19.5059 L 53.427,19.6468 L 54.1075,19.967 L 54.6869,20.4464 L 55.1289,21.0547 L 55.4057,21.7539
 L 55.5,22.5 L 55.4057,23.2461 L 55.1289,23.9453 L 54.6869,24.5536 L 54.1075,25.033 L 53.427,25.3532
 L 52.6884,25.4941 z
M -38.0621,25.4469 L -38.7773,25.2145 L -39.4123,24.8115 L -39.927,24.2634 L -40.2893,23.6044 L -40.4763,22.876
 L -40.4763,22.124 L -40.2893,21.3956 L -39.927,20.7366 L -39.4123,20.1884 L -38.7773,19.7855 L -38.0621,19.5531
 L -37.3116,19.5059 L -36.5729,19.6468 L -35.8925,19.967 L -35.3131,20.4464 L -34.8711,21.0547 L -34.5942,21.7539
 L -34.5,22.5 L -34.5942,23.2461 L -34.8711,23.9453 L -35.3131,24.5536 L -35.8925,25.033 L -36.5729,25.3532
 L -37.3116,25.4941 z
M -8.06213,25.4469 L -8.77733,25.2145 L -9.41226,24.8115 L -9.92705,24.2634 L -10.2893,23.6044 L -10.4763,22.876
 L -10.4763,22.124 L -10.2893,21.3956 L -9.92705,20.7366 L -9.41226,20.1884 L -8.77733,19.7855 L -8.06213,19.5531
 L -7.31161,19.5059 L -6.57294,19.6468 L -5.89252,19.967 L -5.31308,20.4464 L -4.87108,21.0547 L -4.59424,21.7539
 L -4.5,22.5 L -4.59424,23.2461 L -4.87108,23.9453 L -5.31308,24.5536 L -5.89252,25.033 L -6.57294,25.3532
 L -7.31161,25.4941 z
M -23.0621,40.4469 L -23.7773,40.2145 L -24.4123,39.8115 L -24.927,39.2634 L -25.2893,38.6044 L -25.4763,37.876
 L -25.4763,37.124 L -25.2893,36.3956 L -24.927,35.7366 L -24.4123,35.1885 L -23.7773,34.7855 L -23.0621,34.5531
 L -22.3116,34.5059 L -21.5729,34.6468 L -20.8925,34.967 L -20.3131,35.4464 L -19.8711,36.0547 L -19.5942,36.7539
 L -19.5,37.5 L -19.5942,38.2461 L -19.8711,38.9453 L -20.3131,39.5536 L -20.8925,40.033 L -21.5729,40.3532
 L -22.3116,40.4941 z
M -8.06213,40.4469 L -8.77733,40.2145 L -9.41226,39.8115 L -9.92705,39.2634 L -10.2893,38.6044 L -10.4763,37.876
 L -10.4763,37.124 L -10.2893,36.3956 L -9.92705,35.7366 L -9.41226,35.1885 L -8.77733,34.7855 L -8.06213,34.5531
 L -7.31161,34.5059 L -6.57294,34.6468 L -5.89252,34.967 L -5.31308,35.4464 L -4.87108,36.0547 L -4.59424,36.7539
 L -4.5,37.5 L -4.59424,38.2461 L -4.87108,38.9453 L -5.31308,39.5536 L -5.89252,40.033 L -6.57294,40.3532
 L -7.31161,40.4941 z
M 36.9379,40.4469 L 36.2227,40.2145 L 35.5877,39.8115 L 35.0729,39.2634 L 34.7107,38.6044 L 34.5237,37.876
 L 34.5237,37.124 L 34.7107,36.3956 L 35.0729,35.7366 L 35.5877,35.1885 L 36.2227,34.7855 L 36.9379,34.5531
 L 37.6884,34.5059 L 38.427,34.6468 L 39.1075,34.967 L 39.6869,35.4464 L 40.1289,36.0547 L 40.4057,36.7539
 L 40.5,37.5 L 40.4057,38.2461 L 40.1289,38.9453 L 39.6869,39.5536 L 39.1075,40.033 L 38.427,40.3532
 L 37.6884,40.4941 z
M -53.0621,40.4469 L -53.7773,40.2145 L -54.4123,39.8115 L -54.927,39.2634 L -55.2893,38.6044 L -55.4763,37.876
 L -55.4763,37.124 L -55.2893,36.3956 L -54.927,35.7366 L -54.4123,35.1885 L -53.7773,34.7855 L -53.0621,34.5531
 L -52.3116,34.5059 L -51.5729,34.6468 L -50.8925,34.967 L -50.3131,35.4464 L -49.8711,36.0547 L -49.5942,36.7539
 L -49.5,37.5 L -49.5942,38.2461 L -49.8711,38.9453 L -50.3131,39.5536 L -50.8925,40.033 L -51.5729,40.3532
 L -52.3116,40.4941 z
M -38.0621,40.4469 L -38.7773,40.2145 L -39.4123,39.8115 L -39.927,39.2634 L -40.2893,38.6044 L -40.4763,37.876
 L -40.4763,37.124 L -40.2893,36.3956 L -39.927,35.7366 L -39.4123,35.1885 L -38.7773,34.7855 L -38.0621,34.5531
 L -37.3116,34.5059 L -36.5729,34.6468 L -35.8925,34.967 L -35.3131,35.4464 L -34.8711,36.0547 L -34.5942,36.7539
 L -34.5,37.5 L -34.5942,38.2461 L -34.8711,38.9453 L -35.3131,39.5536 L -35.8925,40.033 L -36.5729,40.3532
 L -37.3116,40.4941 z
M 21.9379,40.4469 L 21.2227,40.2145 L 20.5877,39.8115 L 20.0729,39.2634 L 19.7107,38.6044 L 19.5237,37.876
 L 19.5237,37.124 L 19.7107,36.3956 L 20.0729,35.7366 L 20.5877,35.1885 L 21.2227,34.7855 L 21.9379,34.5531
 L 22.6884,34.5059 L 23.427,34.6468 L 24.1075,34.967 L 24.6869,35.4464 L 25.1289,36.0547 L 25.4057,36.7539
 L 25.5,37.5 L 25.4057,38.2461 L 25.1289,38.9453 L 24.6869,39.5536 L 24.1075,40.033 L 23.427,40.3532
 L 22.6884,40.4941 z
M 6.93785,40.4469 L 6.22266,40.2145 L 5.58772,39.8115 L 5.07294,39.2634 L 4.71066,38.6044 L 4.52365,37.876
 L 4.52365,37.124 L 4.71066,36.3956 L 5.07294,35.7366 L 5.58772,35.1885 L 6.22266,34.7855 L 6.93785,34.5531
 L 7.68837,34.5059 L 8.42705,34.6468 L 9.10747,34.967 L 9.6869,35.4464 L 10.1289,36.0547 L 10.4057,36.7539
 L 10.5,37.5 L 10.4057,38.2461 L 10.1289,38.9453 L 9.6869,39.5536 L 9.10747,40.033 L 8.42705,40.3532
 L 7.68837,40.4941 z
M 51.9379,40.4469 L 51.2227,40.2145 L 50.5877,39.8115 L 50.0729,39.2634 L 49.7107,38.6044 L 49.5237,37.876
 L 49.5237,37.124 L 49.7107,36.3956 L 50.0729,35.7366 L 50.5877,35.1885 L 51.2227,34.7855 L 51.9379,34.5531
 L 52.6884,34.5059 L 53.427,34.6468 L 54.1075,34.967 L 54.6869,35.4464 L 55.1289,36.0547 L 55.4057,36.7539
 L 55.5,37.5 L 55.4057,38.2461 L 55.1289,38.9453 L 54.6869,39.5536 L 54.1075,40.033 L 53.427,40.3532
 L 52.6884,40.4941 z
M -38.0621,55.4469 L -38.7773,55.2145 L -39.4123,54.8115 L -39.927,54.2634 L -40.2893,53.6044 L -40.4763,52.876
 L -40.4763,52.124 L -40.2893,51.3956 L -39.927,50.7366 L -39.4123,50.1885 L -38.7773,49.7855 L -38.0621,49.5531
 L -37.3116,49.5059 L -36.5729,49.6468 L -35.8925,49.967 L -35.3131,50.4464 L -34.8711,51.0547 L -34.5942,51.7539
 L -34.5,52.5 L -34.5942,53.2461 L -34.8711,53.9453 L -35.3131,54.5536 L -35.8925,55.033 L -36.5729,55.3532
 L -37.3116,55.4941 z
M 36.9379,55.4469 L 36.2227,55.2145 L 35.5877,54.8115 L 35.0729,54.2634 L 34.7107,53.6044 L 34.5237,52.876
 L 34.5237,52.124 L 34.7107,51.3956 L 35.0729,50.7366 L 35.5877,50.1885 L 36.2227,49.7855 L 36.9379,49.5531
 L 37.6884,49.5059 L 38.427,49.6468 L 39.1075,49.967 L 39.6869,50.4464 L 40.1289,51.0547 L 40.4057,51.7539
 L 40.5,52.5 L 40.4057,53.2461 L 40.1289,53.9453 L 39.6869,54.5536 L 39.1075,55.033 L 38.427,55.3532
 L 37.6884,55.4941 z
M 51.9379,55.4469 L 51.2227,55.2145 L 50.5877,54.8115 L 50.0729,54.2634 L 49.7107,53.6044 L 49.5237,52.876
 L 49.5237,52.124 L 49.7107,51.3956 L 50.0729,50.7366 L 50.5877,50.1885 L 51.2227,49.7855 L 51.9379,49.5531
 L 52.6884,49.5059 L 53.427,49.6468 L 54.1075,49.967 L 54.6869,50.4464 L 55.1289,51.0547 L 55.4057,51.7539
 L 55.5,52.5 L 55.4057,53.2461 L 55.1289,53.9453 L 54.6869,54.5536 L 54.1075,55.033 L 53.427,55.3532
 L 52.6884,55.4941 z
M 21.9379,55.4469 L 21.2227,55.2145 L 20.5877,54.8115 L 20.0729,54.2634 L 19.7107,53.6044 L 19.5237,52.876
 L 19.5237,52.124 L 19.7107,51.3956 L 20.0729,50.7366 L 20.5877,50.1885 L 21.2227,49.7855 L 21.9379,49.5531
 L 22.6884,49.5059 L 23.427,49.6468 L 24.1075,49.967 L 24.6869,50.4464 L 25.1289,51.0547 L 25.4057,51.7539
 L 25.5,52.5 L 25.4057,53.2461 L 25.1289,53.9453 L 24.6869,54.5536 L 24.1075,55.033 L 23.427,55.3532
 L 22.6884,55.4941 z
M -8.06213,55.4469 L -8.77733,55.2145 L -9.41226,54.8115 L -9.92705,54.2634 L -10.2893,53.6044 L -10.4763,52.876
 L -10.4763,52.124 L -10.2893,51.3956 L -9.92705,50.7366 L -9.41226,50.1885 L -8.77733,49.7855 L -8.06213,49.5531
 L -7.31161,49.5059 L -6.57294,49.6468 L -5.89252,49.967 L -5.31308,50.4464 L -4.87108,51.0547 L -4.59424,51.7539
 L -4.5,52.5 L -4.59424,53.2461 L -4.87108,53.9453 L -5.31308,54.5536 L -5.89252,55.033 L -6.57294,55.3532
 L -7.31161,55.4941 z
M -53.0621,55.4469 L -53.7773,55.2145 L -54.4123,54.8115 L -54.927,54.2634 L -55.2893,53.6044 L -55.4763,52.876
 L -55.4763,52.124 L -55.2893,51.3956 L -54.927,50.7366 L -54.4123,50.1885 L -53.7773,49.7855 L -53.0621,49.5531
 L -52.3116,49.5059 L -51.5729,49.6468 L -50.8925,49.967 L -50.3131,50.4464 L -49.8711,51.0547 L -49.5942,51.7539
 L -49.5,52.5 L -49.5942,53.2461 L -49.8711,53.9453 L -50.3131,54.5536 L -50.8925,55.033 L -51.5729,55.3532
 L -52.3116,55.4941 z
M -23.0621,55.4469 L -23.7773,55.2145 L -24.4123,54.8115 L -24.927,54.2634 L -25.2893,53.6044 L -25.4763,52.876
 L -25.4763,52.124 L -25.2893,51.3956 L -24.927,50.7366 L -24.4123,50.1885 L -23.7773,49.7855 L -23.0621,49.5531
 L -22.3116,49.5059 L -21.5729,49.6468 L -20.8925,49.967 L -20.3131,50.4464 L -19.8711,51.0547 L -19.5942,51.7539
 L -19.5,52.5 L -19.5942,53.2461 L -19.8711,53.9453 L -20.3131,54.5536 L -20.8925,55.033 L -21.5729,55.3532
 L -22.3116,55.4941 z
M 6.93785,55.4469 L 6.22266,55.2145 L 5.58772,54.8115 L 5.07294,54.2634 L 4.71066,53.6044 L 4.52365,52.876
 L 4.52365,52.124 L 4.71066,51.3956 L 5.07294,50.7366 L 5.58772,50.1885 L 6.22266,49.7855 L 6.93785,49.5531
 L 7.68837,49.5059 L 8.42705,49.6468 L 9.10747,49.967 L 9.6869,50.4464 L 10.1289,51.0547 L 10.4057,51.7539
 L 10.5,52.5 L 10.4057,53.2461 L 10.1289,53.9453 L 9.6869,54.5536 L 9.10747,55.033 L 8.42705,55.3532
 L 7.68837,55.4941 z
" stroke="black" fill="lightgray" stroke-width="0.5"/>
</svg>
