<?xml version="1.0" encoding="UTF-8"?>
<!DOCTYPE svg PUBLIC "-//W3C//DTD SVG 1.1//EN" "http://www.w3.org/Graphics/SVG/1.1/DTD/svg11.dtd">
<!-- Creator: CorelDRAW X6 -->
<svg xmlns="http://www.w3.org/2000/svg" xml:space="preserve" width="5000mm" height="5000mm" version="1.1" style="shape-rendering:geometricPrecision; text-rendering:geometricPrecision; image-rendering:optimizeQuality; fill-rule:evenodd; clip-rule:evenodd"
viewBox="0 0 500000 500000"
 xmlns:xlink="http://www.w3.org/1999/xlink">
 <defs>
  <style type="text/css">
   <![CDATA[
    .str0 {stroke:black;stroke-width:50}
    .str1 {stroke:black;stroke-width:52.92;stroke-linecap:round;stroke-linejoin:round}
    .fil0 {fill:none}
   ]]>
  </style>
 </defs>
 <g id="Layer_x0020_1">
  <metadata id="CorelCorpID_0Corel-Layer"/>
  <path class="fil0 str0" d="M4600 504349l31 0 62 -8 61 -16 58 -23 55 -30 51 -37 46 -43 40 -48 34 -53 27 -57 19 -60 12 -62 4 -63 0 -7700 -4 -63 -12 -62 -19 -60 -27 -57 -34 -53 -40 -48 -46 -43 -51 -37 -55 -30 -58 -23 -61 -16 -62 -8 -31 0 0 -1 -9200 0 0 1 -31 0 -62 8 -61 16 -58 23 -55 30 -51 37 -46 43 -40 48 -34 53 -27 57 -19 60 -12 62 -4 63 0 2200 850 0 0 -425 350 0c207,0 375,-168 375,-375l0 -350 5050 0 0 350c0,207 168,375 375,375l0 0c207,0 375,-168 375,-375l0 -350 1475 0c276,0 500,224 500,500l0 4600c0,276 -224,500 -500,500l-1475 0 0 -350c0,-207 -168,-375 -375,-375l0 0c-207,0 -375,168 -375,375l0 350 -3950 0 0 -425c0,-207 -168,-375 -375,-375l-1450 0 0 800 1325 0 0 1050 4 63 12 62 19 60 27 57 34 53 40 48 46 43 51 37 55 30 58 23 61 16 62 8 31 0 0 1 7025 0 0 -1z"/>
  <circle class="fil0 str1" cy="496250" r="300"/>
  <circle class="fil0 str1" cx="1500" cy="496250" r="300"/>
  <circle class="fil0 str1" cx="3000" cy="496250" r="300"/>
  <circle class="fil0 str1" cx="-1500" cy="496250" r="300"/>
  <circle class="fil0 str1" cx="-3000" cy="496250" r="300"/>
  <circle class="fil0 str1" cx="-4500" cy="496250" r="300"/>
  <circle class="fil0 str1" cx="4500" cy="496250" r="300"/>
  <circle class="fil0 str1" cy="503750" r="300"/>
  <circle class="fil0 str1" cx="1500" cy="503750" r="300"/>
  <circle class="fil0 str1" cx="3000" cy="503750" r="300"/>
  <circle class="fil0 str1" cx="-1500" cy="503750" r="300"/>
  <circle class="fil0 str1" cx="4500" cy="503750" r="300"/>
  <circle class="fil0 str1" cx="-3900" cy="497550" r="150"/>
  <circle class="fil0 str1" cx="1900" cy="497550" r="150"/>
  <circle class="fil0 str1" cx="-3900" cy="502450" r="150"/>
  <circle class="fil0 str1" cx="1900" cy="502450" r="150"/>
 </g>
</svg>
