<svg
xmlns:dc="http://purl.org/dc/elements/1.1/"
xmlns:cc="http://creativecommons.org/ns#"
xmlns:rdf="http://www.w3.org/1999/02/22-rdf-syntax-ns#"
xmlns:svg="http://www.w3.org/2000/svg"
xmlns="http://www.w3.org/2000/svg"
xmlns:xlink="http://www.w3.org/1999/xlink"
xmlns:sodipodi="http://sodipodi.sourceforge.net/DTD/sodipodi-0.dtd"
xmlns:inkscape="http://www.inkscape.org/namespaces/inkscape"
width="323mm"
height="163mm"
id="svg2"
version="1.1"
inkscape:version="0.48.1 "
sodipodi:docname="MultiLineTextINK.svg">
	<rect
		style="fill:none;stroke:#000000;stroke-width:2px " 
		x="5mm"
		y="5mm"
		rx="5mm"
		ry="5mm"
		width="313mm"
		height="153mm"
	/>
	<circle
		style="fill:none;stroke:#000000;stroke-width:2px " 
		cx="11.5mm"
		cy="151.5mm"
		r="3mm"
		id="oomID4520"
	/>
	<circle
		style="fill:none;stroke:#000000;stroke-width:2px " 
		cx="11.5mm"
		cy="131.5mm"
		r="3mm"
		id="oomID4521"
	/>
	<circle
		style="fill:none;stroke:#000000;stroke-width:2px " 
		cx="11.5mm"
		cy="111.5mm"
		r="3mm"
		id="oomID4522"
	/>
	<circle
		style="fill:none;stroke:#000000;stroke-width:2px " 
		cx="11.5mm"
		cy="91.5mm"
		r="3mm"
		id="oomID4523"
	/>
	<circle
		style="fill:none;stroke:#000000;stroke-width:2px " 
		cx="11.5mm"
		cy="71.5mm"
		r="3mm"
		id="oomID4524"
	/>
	<circle
		style="fill:none;stroke:#000000;stroke-width:2px " 
		cx="11.5mm"
		cy="51.5mm"
		r="3mm"
		id="oomID4525"
	/>
	<circle
		style="fill:none;stroke:#000000;stroke-width:2px " 
		cx="11.5mm"
		cy="31.5mm"
		r="3mm"
		id="oomID4526"
	/>
	<circle
		style="fill:none;stroke:#000000;stroke-width:2px " 
		cx="11.5mm"
		cy="11.5mm"
		r="3mm"
		id="oomID4527"
	/>
	<circle
		style="fill:none;stroke:#000000;stroke-width:2px " 
		cx="31.5mm"
		cy="151.5mm"
		r="3mm"
		id="oomID4528"
	/>
	<circle
		style="fill:none;stroke:#000000;stroke-width:2px " 
		cx="31.5mm"
		cy="131.5mm"
		r="3mm"
		id="oomID4529"
	/>
	<circle
		style="fill:none;stroke:#000000;stroke-width:2px " 
		cx="31.5mm"
		cy="111.5mm"
		r="3mm"
		id="oomID4530"
	/>
	<circle
		style="fill:none;stroke:#000000;stroke-width:2px " 
		cx="31.5mm"
		cy="91.5mm"
		r="3mm"
		id="oomID4531"
	/>
	<circle
		style="fill:none;stroke:#000000;stroke-width:2px " 
		cx="31.5mm"
		cy="71.5mm"
		r="3mm"
		id="oomID4532"
	/>
	<circle
		style="fill:none;stroke:#000000;stroke-width:2px " 
		cx="31.5mm"
		cy="51.5mm"
		r="3mm"
		id="oomID4533"
	/>
	<circle
		style="fill:none;stroke:#000000;stroke-width:2px " 
		cx="31.5mm"
		cy="31.5mm"
		r="3mm"
		id="oomID4534"
	/>
	<circle
		style="fill:none;stroke:#000000;stroke-width:2px " 
		cx="31.5mm"
		cy="11.5mm"
		r="3mm"
		id="oomID4535"
	/>
	<circle
		style="fill:none;stroke:#000000;stroke-width:2px " 
		cx="51.5mm"
		cy="151.5mm"
		r="3mm"
		id="oomID4536"
	/>
	<circle
		style="fill:none;stroke:#000000;stroke-width:2px " 
		cx="51.5mm"
		cy="131.5mm"
		r="3mm"
		id="oomID4537"
	/>
	<circle
		style="fill:none;stroke:#000000;stroke-width:2px " 
		cx="51.5mm"
		cy="111.5mm"
		r="3mm"
		id="oomID4538"
	/>
	<circle
		style="fill:none;stroke:#000000;stroke-width:2px " 
		cx="51.5mm"
		cy="91.5mm"
		r="3mm"
		id="oomID4539"
	/>
	<circle
		style="fill:none;stroke:#000000;stroke-width:2px " 
		cx="51.5mm"
		cy="71.5mm"
		r="3mm"
		id="oomID4540"
	/>
	<circle
		style="fill:none;stroke:#000000;stroke-width:2px " 
		cx="51.5mm"
		cy="51.5mm"
		r="3mm"
		id="oomID4541"
	/>
	<circle
		style="fill:none;stroke:#000000;stroke-width:2px " 
		cx="51.5mm"
		cy="31.5mm"
		r="3mm"
		id="oomID4542"
	/>
	<circle
		style="fill:none;stroke:#000000;stroke-width:2px " 
		cx="51.5mm"
		cy="11.5mm"
		r="3mm"
		id="oomID4543"
	/>
	<circle
		style="fill:none;stroke:#000000;stroke-width:2px " 
		cx="71.5mm"
		cy="151.5mm"
		r="3mm"
		id="oomID4544"
	/>
	<circle
		style="fill:none;stroke:#000000;stroke-width:2px " 
		cx="71.5mm"
		cy="131.5mm"
		r="3mm"
		id="oomID4545"
	/>
	<circle
		style="fill:none;stroke:#000000;stroke-width:2px " 
		cx="71.5mm"
		cy="111.5mm"
		r="3mm"
		id="oomID4546"
	/>
	<circle
		style="fill:none;stroke:#000000;stroke-width:2px " 
		cx="71.5mm"
		cy="91.5mm"
		r="3mm"
		id="oomID4547"
	/>
	<circle
		style="fill:none;stroke:#000000;stroke-width:2px " 
		cx="71.5mm"
		cy="71.5mm"
		r="3mm"
		id="oomID4548"
	/>
	<circle
		style="fill:none;stroke:#000000;stroke-width:2px " 
		cx="71.5mm"
		cy="51.5mm"
		r="3mm"
		id="oomID4549"
	/>
	<circle
		style="fill:none;stroke:#000000;stroke-width:2px " 
		cx="71.5mm"
		cy="31.5mm"
		r="3mm"
		id="oomID4550"
	/>
	<circle
		style="fill:none;stroke:#000000;stroke-width:2px " 
		cx="71.5mm"
		cy="11.5mm"
		r="3mm"
		id="oomID4551"
	/>
	<circle
		style="fill:none;stroke:#000000;stroke-width:2px " 
		cx="91.5mm"
		cy="151.5mm"
		r="3mm"
		id="oomID4552"
	/>
	<circle
		style="fill:none;stroke:#000000;stroke-width:2px " 
		cx="91.5mm"
		cy="131.5mm"
		r="3mm"
		id="oomID4553"
	/>
	<circle
		style="fill:none;stroke:#000000;stroke-width:2px " 
		cx="91.5mm"
		cy="111.5mm"
		r="3mm"
		id="oomID4554"
	/>
	<circle
		style="fill:none;stroke:#000000;stroke-width:2px " 
		cx="91.5mm"
		cy="91.5mm"
		r="3mm"
		id="oomID4555"
	/>
	<circle
		style="fill:none;stroke:#000000;stroke-width:2px " 
		cx="91.5mm"
		cy="71.5mm"
		r="3mm"
		id="oomID4556"
	/>
	<circle
		style="fill:none;stroke:#000000;stroke-width:2px " 
		cx="91.5mm"
		cy="51.5mm"
		r="3mm"
		id="oomID4557"
	/>
	<circle
		style="fill:none;stroke:#000000;stroke-width:2px " 
		cx="91.5mm"
		cy="31.5mm"
		r="3mm"
		id="oomID4558"
	/>
	<circle
		style="fill:none;stroke:#000000;stroke-width:2px " 
		cx="91.5mm"
		cy="11.5mm"
		r="3mm"
		id="oomID4559"
	/>
	<circle
		style="fill:none;stroke:#000000;stroke-width:2px " 
		cx="111.5mm"
		cy="151.5mm"
		r="3mm"
		id="oomID4560"
	/>
	<circle
		style="fill:none;stroke:#000000;stroke-width:2px " 
		cx="111.5mm"
		cy="131.5mm"
		r="3mm"
		id="oomID4561"
	/>
	<circle
		style="fill:none;stroke:#000000;stroke-width:2px " 
		cx="111.5mm"
		cy="111.5mm"
		r="3mm"
		id="oomID4562"
	/>
	<circle
		style="fill:none;stroke:#000000;stroke-width:2px " 
		cx="111.5mm"
		cy="91.5mm"
		r="3mm"
		id="oomID4563"
	/>
	<circle
		style="fill:none;stroke:#000000;stroke-width:2px " 
		cx="111.5mm"
		cy="71.5mm"
		r="3mm"
		id="oomID4564"
	/>
	<circle
		style="fill:none;stroke:#000000;stroke-width:2px " 
		cx="111.5mm"
		cy="51.5mm"
		r="3mm"
		id="oomID4565"
	/>
	<circle
		style="fill:none;stroke:#000000;stroke-width:2px " 
		cx="111.5mm"
		cy="31.5mm"
		r="3mm"
		id="oomID4566"
	/>
	<circle
		style="fill:none;stroke:#000000;stroke-width:2px " 
		cx="111.5mm"
		cy="11.5mm"
		r="3mm"
		id="oomID4567"
	/>
	<circle
		style="fill:none;stroke:#000000;stroke-width:2px " 
		cx="131.5mm"
		cy="151.5mm"
		r="3mm"
		id="oomID4568"
	/>
	<circle
		style="fill:none;stroke:#000000;stroke-width:2px " 
		cx="131.5mm"
		cy="131.5mm"
		r="3mm"
		id="oomID4569"
	/>
	<circle
		style="fill:none;stroke:#000000;stroke-width:2px " 
		cx="131.5mm"
		cy="111.5mm"
		r="3mm"
		id="oomID4570"
	/>
	<circle
		style="fill:none;stroke:#000000;stroke-width:2px " 
		cx="131.5mm"
		cy="91.5mm"
		r="3mm"
		id="oomID4571"
	/>
	<circle
		style="fill:none;stroke:#000000;stroke-width:2px " 
		cx="131.5mm"
		cy="71.5mm"
		r="3mm"
		id="oomID4572"
	/>
	<circle
		style="fill:none;stroke:#000000;stroke-width:2px " 
		cx="131.5mm"
		cy="51.5mm"
		r="3mm"
		id="oomID4573"
	/>
	<circle
		style="fill:none;stroke:#000000;stroke-width:2px " 
		cx="131.5mm"
		cy="31.5mm"
		r="3mm"
		id="oomID4574"
	/>
	<circle
		style="fill:none;stroke:#000000;stroke-width:2px " 
		cx="131.5mm"
		cy="11.5mm"
		r="3mm"
		id="oomID4575"
	/>
	<circle
		style="fill:none;stroke:#000000;stroke-width:2px " 
		cx="151.5mm"
		cy="151.5mm"
		r="3mm"
		id="oomID4576"
	/>
	<circle
		style="fill:none;stroke:#000000;stroke-width:2px " 
		cx="151.5mm"
		cy="131.5mm"
		r="3mm"
		id="oomID4577"
	/>
	<circle
		style="fill:none;stroke:#000000;stroke-width:2px " 
		cx="151.5mm"
		cy="111.5mm"
		r="3mm"
		id="oomID4578"
	/>
	<circle
		style="fill:none;stroke:#000000;stroke-width:2px " 
		cx="151.5mm"
		cy="91.5mm"
		r="3mm"
		id="oomID4579"
	/>
	<circle
		style="fill:none;stroke:#000000;stroke-width:2px " 
		cx="151.5mm"
		cy="71.5mm"
		r="3mm"
		id="oomID4580"
	/>
	<circle
		style="fill:none;stroke:#000000;stroke-width:2px " 
		cx="151.5mm"
		cy="51.5mm"
		r="3mm"
		id="oomID4581"
	/>
	<circle
		style="fill:none;stroke:#000000;stroke-width:2px " 
		cx="151.5mm"
		cy="31.5mm"
		r="3mm"
		id="oomID4582"
	/>
	<circle
		style="fill:none;stroke:#000000;stroke-width:2px " 
		cx="151.5mm"
		cy="11.5mm"
		r="3mm"
		id="oomID4583"
	/>
	<circle
		style="fill:none;stroke:#000000;stroke-width:2px " 
		cx="171.5mm"
		cy="151.5mm"
		r="3mm"
		id="oomID4584"
	/>
	<circle
		style="fill:none;stroke:#000000;stroke-width:2px " 
		cx="171.5mm"
		cy="131.5mm"
		r="3mm"
		id="oomID4585"
	/>
	<circle
		style="fill:none;stroke:#000000;stroke-width:2px " 
		cx="171.5mm"
		cy="111.5mm"
		r="3mm"
		id="oomID4586"
	/>
	<circle
		style="fill:none;stroke:#000000;stroke-width:2px " 
		cx="171.5mm"
		cy="91.5mm"
		r="3mm"
		id="oomID4587"
	/>
	<circle
		style="fill:none;stroke:#000000;stroke-width:2px " 
		cx="171.5mm"
		cy="71.5mm"
		r="3mm"
		id="oomID4588"
	/>
	<circle
		style="fill:none;stroke:#000000;stroke-width:2px " 
		cx="171.5mm"
		cy="51.5mm"
		r="3mm"
		id="oomID4589"
	/>
	<circle
		style="fill:none;stroke:#000000;stroke-width:2px " 
		cx="171.5mm"
		cy="31.5mm"
		r="3mm"
		id="oomID4590"
	/>
	<circle
		style="fill:none;stroke:#000000;stroke-width:2px " 
		cx="171.5mm"
		cy="11.5mm"
		r="3mm"
		id="oomID4591"
	/>
	<circle
		style="fill:none;stroke:#000000;stroke-width:2px " 
		cx="191.5mm"
		cy="151.5mm"
		r="3mm"
		id="oomID4592"
	/>
	<circle
		style="fill:none;stroke:#000000;stroke-width:2px " 
		cx="191.5mm"
		cy="131.5mm"
		r="3mm"
		id="oomID4593"
	/>
	<circle
		style="fill:none;stroke:#000000;stroke-width:2px " 
		cx="191.5mm"
		cy="111.5mm"
		r="3mm"
		id="oomID4594"
	/>
	<circle
		style="fill:none;stroke:#000000;stroke-width:2px " 
		cx="191.5mm"
		cy="91.5mm"
		r="3mm"
		id="oomID4595"
	/>
	<circle
		style="fill:none;stroke:#000000;stroke-width:2px " 
		cx="191.5mm"
		cy="71.5mm"
		r="3mm"
		id="oomID4596"
	/>
	<circle
		style="fill:none;stroke:#000000;stroke-width:2px " 
		cx="191.5mm"
		cy="51.5mm"
		r="3mm"
		id="oomID4597"
	/>
	<circle
		style="fill:none;stroke:#000000;stroke-width:2px " 
		cx="191.5mm"
		cy="31.5mm"
		r="3mm"
		id="oomID4598"
	/>
	<circle
		style="fill:none;stroke:#000000;stroke-width:2px " 
		cx="191.5mm"
		cy="11.5mm"
		r="3mm"
		id="oomID4599"
	/>
	<circle
		style="fill:none;stroke:#000000;stroke-width:2px " 
		cx="211.5mm"
		cy="151.5mm"
		r="3mm"
		id="oomID4600"
	/>
	<circle
		style="fill:none;stroke:#000000;stroke-width:2px " 
		cx="211.5mm"
		cy="131.5mm"
		r="3mm"
		id="oomID4601"
	/>
	<circle
		style="fill:none;stroke:#000000;stroke-width:2px " 
		cx="211.5mm"
		cy="111.5mm"
		r="3mm"
		id="oomID4602"
	/>
	<circle
		style="fill:none;stroke:#000000;stroke-width:2px " 
		cx="211.5mm"
		cy="91.5mm"
		r="3mm"
		id="oomID4603"
	/>
	<circle
		style="fill:none;stroke:#000000;stroke-width:2px " 
		cx="211.5mm"
		cy="71.5mm"
		r="3mm"
		id="oomID4604"
	/>
	<circle
		style="fill:none;stroke:#000000;stroke-width:2px " 
		cx="211.5mm"
		cy="51.5mm"
		r="3mm"
		id="oomID4605"
	/>
	<circle
		style="fill:none;stroke:#000000;stroke-width:2px " 
		cx="211.5mm"
		cy="31.5mm"
		r="3mm"
		id="oomID4606"
	/>
	<circle
		style="fill:none;stroke:#000000;stroke-width:2px " 
		cx="211.5mm"
		cy="11.5mm"
		r="3mm"
		id="oomID4607"
	/>
	<circle
		style="fill:none;stroke:#000000;stroke-width:2px " 
		cx="231.5mm"
		cy="151.5mm"
		r="3mm"
		id="oomID4608"
	/>
	<circle
		style="fill:none;stroke:#000000;stroke-width:2px " 
		cx="231.5mm"
		cy="131.5mm"
		r="3mm"
		id="oomID4609"
	/>
	<circle
		style="fill:none;stroke:#000000;stroke-width:2px " 
		cx="231.5mm"
		cy="111.5mm"
		r="3mm"
		id="oomID4610"
	/>
	<circle
		style="fill:none;stroke:#000000;stroke-width:2px " 
		cx="231.5mm"
		cy="91.5mm"
		r="3mm"
		id="oomID4611"
	/>
	<circle
		style="fill:none;stroke:#000000;stroke-width:2px " 
		cx="231.5mm"
		cy="71.5mm"
		r="3mm"
		id="oomID4612"
	/>
	<circle
		style="fill:none;stroke:#000000;stroke-width:2px " 
		cx="231.5mm"
		cy="51.5mm"
		r="3mm"
		id="oomID4613"
	/>
	<circle
		style="fill:none;stroke:#000000;stroke-width:2px " 
		cx="231.5mm"
		cy="31.5mm"
		r="3mm"
		id="oomID4614"
	/>
	<circle
		style="fill:none;stroke:#000000;stroke-width:2px " 
		cx="231.5mm"
		cy="11.5mm"
		r="3mm"
		id="oomID4615"
	/>
	<circle
		style="fill:none;stroke:#000000;stroke-width:2px " 
		cx="251.5mm"
		cy="151.5mm"
		r="3mm"
		id="oomID4616"
	/>
	<circle
		style="fill:none;stroke:#000000;stroke-width:2px " 
		cx="251.5mm"
		cy="131.5mm"
		r="3mm"
		id="oomID4617"
	/>
	<circle
		style="fill:none;stroke:#000000;stroke-width:2px " 
		cx="251.5mm"
		cy="111.5mm"
		r="3mm"
		id="oomID4618"
	/>
	<circle
		style="fill:none;stroke:#000000;stroke-width:2px " 
		cx="251.5mm"
		cy="91.5mm"
		r="3mm"
		id="oomID4619"
	/>
	<circle
		style="fill:none;stroke:#000000;stroke-width:2px " 
		cx="251.5mm"
		cy="71.5mm"
		r="3mm"
		id="oomID4620"
	/>
	<circle
		style="fill:none;stroke:#000000;stroke-width:2px " 
		cx="251.5mm"
		cy="51.5mm"
		r="3mm"
		id="oomID4621"
	/>
	<circle
		style="fill:none;stroke:#000000;stroke-width:2px " 
		cx="251.5mm"
		cy="31.5mm"
		r="3mm"
		id="oomID4622"
	/>
	<circle
		style="fill:none;stroke:#000000;stroke-width:2px " 
		cx="251.5mm"
		cy="11.5mm"
		r="3mm"
		id="oomID4623"
	/>
	<circle
		style="fill:none;stroke:#000000;stroke-width:2px " 
		cx="271.5mm"
		cy="151.5mm"
		r="3mm"
		id="oomID4624"
	/>
	<circle
		style="fill:none;stroke:#000000;stroke-width:2px " 
		cx="271.5mm"
		cy="131.5mm"
		r="3mm"
		id="oomID4625"
	/>
	<circle
		style="fill:none;stroke:#000000;stroke-width:2px " 
		cx="271.5mm"
		cy="111.5mm"
		r="3mm"
		id="oomID4626"
	/>
	<circle
		style="fill:none;stroke:#000000;stroke-width:2px " 
		cx="271.5mm"
		cy="91.5mm"
		r="3mm"
		id="oomID4627"
	/>
	<circle
		style="fill:none;stroke:#000000;stroke-width:2px " 
		cx="271.5mm"
		cy="71.5mm"
		r="3mm"
		id="oomID4628"
	/>
	<circle
		style="fill:none;stroke:#000000;stroke-width:2px " 
		cx="271.5mm"
		cy="51.5mm"
		r="3mm"
		id="oomID4629"
	/>
	<circle
		style="fill:none;stroke:#000000;stroke-width:2px " 
		cx="271.5mm"
		cy="31.5mm"
		r="3mm"
		id="oomID4630"
	/>
	<circle
		style="fill:none;stroke:#000000;stroke-width:2px " 
		cx="271.5mm"
		cy="11.5mm"
		r="3mm"
		id="oomID4631"
	/>
	<circle
		style="fill:none;stroke:#000000;stroke-width:2px " 
		cx="291.5mm"
		cy="151.5mm"
		r="3mm"
		id="oomID4632"
	/>
	<circle
		style="fill:none;stroke:#000000;stroke-width:2px " 
		cx="291.5mm"
		cy="131.5mm"
		r="3mm"
		id="oomID4633"
	/>
	<circle
		style="fill:none;stroke:#000000;stroke-width:2px " 
		cx="291.5mm"
		cy="111.5mm"
		r="3mm"
		id="oomID4634"
	/>
	<circle
		style="fill:none;stroke:#000000;stroke-width:2px " 
		cx="291.5mm"
		cy="91.5mm"
		r="3mm"
		id="oomID4635"
	/>
	<circle
		style="fill:none;stroke:#000000;stroke-width:2px " 
		cx="291.5mm"
		cy="71.5mm"
		r="3mm"
		id="oomID4636"
	/>
	<circle
		style="fill:none;stroke:#000000;stroke-width:2px " 
		cx="291.5mm"
		cy="51.5mm"
		r="3mm"
		id="oomID4637"
	/>
	<circle
		style="fill:none;stroke:#000000;stroke-width:2px " 
		cx="291.5mm"
		cy="31.5mm"
		r="3mm"
		id="oomID4638"
	/>
	<circle
		style="fill:none;stroke:#000000;stroke-width:2px " 
		cx="291.5mm"
		cy="11.5mm"
		r="3mm"
		id="oomID4639"
	/>
	<circle
		style="fill:none;stroke:#000000;stroke-width:2px " 
		cx="311.5mm"
		cy="151.5mm"
		r="3mm"
		id="oomID4640"
	/>
	<circle
		style="fill:none;stroke:#000000;stroke-width:2px " 
		cx="311.5mm"
		cy="131.5mm"
		r="3mm"
		id="oomID4641"
	/>
	<circle
		style="fill:none;stroke:#000000;stroke-width:2px " 
		cx="311.5mm"
		cy="111.5mm"
		r="3mm"
		id="oomID4642"
	/>
	<circle
		style="fill:none;stroke:#000000;stroke-width:2px " 
		cx="311.5mm"
		cy="91.5mm"
		r="3mm"
		id="oomID4643"
	/>
	<circle
		style="fill:none;stroke:#000000;stroke-width:2px " 
		cx="311.5mm"
		cy="71.5mm"
		r="3mm"
		id="oomID4644"
	/>
	<circle
		style="fill:none;stroke:#000000;stroke-width:2px " 
		cx="311.5mm"
		cy="51.5mm"
		r="3mm"
		id="oomID4645"
	/>
	<circle
		style="fill:none;stroke:#000000;stroke-width:2px " 
		cx="311.5mm"
		cy="31.5mm"
		r="3mm"
		id="oomID4646"
	/>
	<circle
		style="fill:none;stroke:#000000;stroke-width:2px " 
		cx="311.5mm"
		cy="11.5mm"
		r="3mm"
		id="oomID4647"
	/>
	<rect
		style="fill:none;stroke:#000000;stroke-width:2px " 
		x="10mm"
		y="138.5mm"
		width="3mm"
		height="6mm"
		id="oomID4648"
	/>
	<rect
		style="fill:none;stroke:#000000;stroke-width:2px " 
		x="10mm"
		y="118.5mm"
		width="3mm"
		height="6mm"
		id="oomID4649"
	/>
	<rect
		style="fill:none;stroke:#000000;stroke-width:2px " 
		x="10mm"
		y="98.5mm"
		width="3mm"
		height="6mm"
		id="oomID4650"
	/>
	<rect
		style="fill:none;stroke:#000000;stroke-width:2px " 
		x="10mm"
		y="78.5mm"
		width="3mm"
		height="6mm"
		id="oomID4651"
	/>
	<rect
		style="fill:none;stroke:#000000;stroke-width:2px " 
		x="10mm"
		y="58.5mm"
		width="3mm"
		height="6mm"
		id="oomID4652"
	/>
	<rect
		style="fill:none;stroke:#000000;stroke-width:2px " 
		x="10mm"
		y="38.5mm"
		width="3mm"
		height="6mm"
		id="oomID4653"
	/>
	<rect
		style="fill:none;stroke:#000000;stroke-width:2px " 
		x="10mm"
		y="18.5mm"
		width="3mm"
		height="6mm"
		id="oomID4654"
	/>
	<rect
		style="fill:none;stroke:#000000;stroke-width:2px " 
		x="30mm"
		y="138.5mm"
		width="3mm"
		height="6mm"
		id="oomID4655"
	/>
	<rect
		style="fill:none;stroke:#000000;stroke-width:2px " 
		x="30mm"
		y="118.5mm"
		width="3mm"
		height="6mm"
		id="oomID4656"
	/>
	<rect
		style="fill:none;stroke:#000000;stroke-width:2px " 
		x="30mm"
		y="98.5mm"
		width="3mm"
		height="6mm"
		id="oomID4657"
	/>
	<rect
		style="fill:none;stroke:#000000;stroke-width:2px " 
		x="30mm"
		y="78.5mm"
		width="3mm"
		height="6mm"
		id="oomID4658"
	/>
	<rect
		style="fill:none;stroke:#000000;stroke-width:2px " 
		x="30mm"
		y="58.5mm"
		width="3mm"
		height="6mm"
		id="oomID4659"
	/>
	<rect
		style="fill:none;stroke:#000000;stroke-width:2px " 
		x="30mm"
		y="38.5mm"
		width="3mm"
		height="6mm"
		id="oomID4660"
	/>
	<rect
		style="fill:none;stroke:#000000;stroke-width:2px " 
		x="30mm"
		y="18.5mm"
		width="3mm"
		height="6mm"
		id="oomID4661"
	/>
	<rect
		style="fill:none;stroke:#000000;stroke-width:2px " 
		x="50mm"
		y="138.5mm"
		width="3mm"
		height="6mm"
		id="oomID4662"
	/>
	<rect
		style="fill:none;stroke:#000000;stroke-width:2px " 
		x="50mm"
		y="118.5mm"
		width="3mm"
		height="6mm"
		id="oomID4663"
	/>
	<rect
		style="fill:none;stroke:#000000;stroke-width:2px " 
		x="50mm"
		y="98.5mm"
		width="3mm"
		height="6mm"
		id="oomID4664"
	/>
	<rect
		style="fill:none;stroke:#000000;stroke-width:2px " 
		x="50mm"
		y="78.5mm"
		width="3mm"
		height="6mm"
		id="oomID4665"
	/>
	<rect
		style="fill:none;stroke:#000000;stroke-width:2px " 
		x="50mm"
		y="58.5mm"
		width="3mm"
		height="6mm"
		id="oomID4666"
	/>
	<rect
		style="fill:none;stroke:#000000;stroke-width:2px " 
		x="50mm"
		y="38.5mm"
		width="3mm"
		height="6mm"
		id="oomID4667"
	/>
	<rect
		style="fill:none;stroke:#000000;stroke-width:2px " 
		x="50mm"
		y="18.5mm"
		width="3mm"
		height="6mm"
		id="oomID4668"
	/>
	<rect
		style="fill:none;stroke:#000000;stroke-width:2px " 
		x="70mm"
		y="138.5mm"
		width="3mm"
		height="6mm"
		id="oomID4669"
	/>
	<rect
		style="fill:none;stroke:#000000;stroke-width:2px " 
		x="70mm"
		y="118.5mm"
		width="3mm"
		height="6mm"
		id="oomID4670"
	/>
	<rect
		style="fill:none;stroke:#000000;stroke-width:2px " 
		x="70mm"
		y="98.5mm"
		width="3mm"
		height="6mm"
		id="oomID4671"
	/>
	<rect
		style="fill:none;stroke:#000000;stroke-width:2px " 
		x="70mm"
		y="78.5mm"
		width="3mm"
		height="6mm"
		id="oomID4672"
	/>
	<rect
		style="fill:none;stroke:#000000;stroke-width:2px " 
		x="70mm"
		y="58.5mm"
		width="3mm"
		height="6mm"
		id="oomID4673"
	/>
	<rect
		style="fill:none;stroke:#000000;stroke-width:2px " 
		x="70mm"
		y="38.5mm"
		width="3mm"
		height="6mm"
		id="oomID4674"
	/>
	<rect
		style="fill:none;stroke:#000000;stroke-width:2px " 
		x="70mm"
		y="18.5mm"
		width="3mm"
		height="6mm"
		id="oomID4675"
	/>
	<rect
		style="fill:none;stroke:#000000;stroke-width:2px " 
		x="90mm"
		y="138.5mm"
		width="3mm"
		height="6mm"
		id="oomID4676"
	/>
	<rect
		style="fill:none;stroke:#000000;stroke-width:2px " 
		x="90mm"
		y="118.5mm"
		width="3mm"
		height="6mm"
		id="oomID4677"
	/>
	<rect
		style="fill:none;stroke:#000000;stroke-width:2px " 
		x="90mm"
		y="98.5mm"
		width="3mm"
		height="6mm"
		id="oomID4678"
	/>
	<rect
		style="fill:none;stroke:#000000;stroke-width:2px " 
		x="90mm"
		y="78.5mm"
		width="3mm"
		height="6mm"
		id="oomID4679"
	/>
	<rect
		style="fill:none;stroke:#000000;stroke-width:2px " 
		x="90mm"
		y="58.5mm"
		width="3mm"
		height="6mm"
		id="oomID4680"
	/>
	<rect
		style="fill:none;stroke:#000000;stroke-width:2px " 
		x="90mm"
		y="38.5mm"
		width="3mm"
		height="6mm"
		id="oomID4681"
	/>
	<rect
		style="fill:none;stroke:#000000;stroke-width:2px " 
		x="90mm"
		y="18.5mm"
		width="3mm"
		height="6mm"
		id="oomID4682"
	/>
	<rect
		style="fill:none;stroke:#000000;stroke-width:2px " 
		x="110mm"
		y="138.5mm"
		width="3mm"
		height="6mm"
		id="oomID4683"
	/>
	<rect
		style="fill:none;stroke:#000000;stroke-width:2px " 
		x="110mm"
		y="118.5mm"
		width="3mm"
		height="6mm"
		id="oomID4684"
	/>
	<rect
		style="fill:none;stroke:#000000;stroke-width:2px " 
		x="110mm"
		y="98.5mm"
		width="3mm"
		height="6mm"
		id="oomID4685"
	/>
	<rect
		style="fill:none;stroke:#000000;stroke-width:2px " 
		x="110mm"
		y="78.5mm"
		width="3mm"
		height="6mm"
		id="oomID4686"
	/>
	<rect
		style="fill:none;stroke:#000000;stroke-width:2px " 
		x="110mm"
		y="58.5mm"
		width="3mm"
		height="6mm"
		id="oomID4687"
	/>
	<rect
		style="fill:none;stroke:#000000;stroke-width:2px " 
		x="110mm"
		y="38.5mm"
		width="3mm"
		height="6mm"
		id="oomID4688"
	/>
	<rect
		style="fill:none;stroke:#000000;stroke-width:2px " 
		x="110mm"
		y="18.5mm"
		width="3mm"
		height="6mm"
		id="oomID4689"
	/>
	<rect
		style="fill:none;stroke:#000000;stroke-width:2px " 
		x="130mm"
		y="138.5mm"
		width="3mm"
		height="6mm"
		id="oomID4690"
	/>
	<rect
		style="fill:none;stroke:#000000;stroke-width:2px " 
		x="130mm"
		y="118.5mm"
		width="3mm"
		height="6mm"
		id="oomID4691"
	/>
	<rect
		style="fill:none;stroke:#000000;stroke-width:2px " 
		x="130mm"
		y="98.5mm"
		width="3mm"
		height="6mm"
		id="oomID4692"
	/>
	<rect
		style="fill:none;stroke:#000000;stroke-width:2px " 
		x="130mm"
		y="78.5mm"
		width="3mm"
		height="6mm"
		id="oomID4693"
	/>
	<rect
		style="fill:none;stroke:#000000;stroke-width:2px " 
		x="130mm"
		y="58.5mm"
		width="3mm"
		height="6mm"
		id="oomID4694"
	/>
	<rect
		style="fill:none;stroke:#000000;stroke-width:2px " 
		x="130mm"
		y="38.5mm"
		width="3mm"
		height="6mm"
		id="oomID4695"
	/>
	<rect
		style="fill:none;stroke:#000000;stroke-width:2px " 
		x="130mm"
		y="18.5mm"
		width="3mm"
		height="6mm"
		id="oomID4696"
	/>
	<rect
		style="fill:none;stroke:#000000;stroke-width:2px " 
		x="150mm"
		y="138.5mm"
		width="3mm"
		height="6mm"
		id="oomID4697"
	/>
	<rect
		style="fill:none;stroke:#000000;stroke-width:2px " 
		x="150mm"
		y="118.5mm"
		width="3mm"
		height="6mm"
		id="oomID4698"
	/>
	<rect
		style="fill:none;stroke:#000000;stroke-width:2px " 
		x="150mm"
		y="98.5mm"
		width="3mm"
		height="6mm"
		id="oomID4699"
	/>
	<rect
		style="fill:none;stroke:#000000;stroke-width:2px " 
		x="150mm"
		y="78.5mm"
		width="3mm"
		height="6mm"
		id="oomID4700"
	/>
	<rect
		style="fill:none;stroke:#000000;stroke-width:2px " 
		x="150mm"
		y="58.5mm"
		width="3mm"
		height="6mm"
		id="oomID4701"
	/>
	<rect
		style="fill:none;stroke:#000000;stroke-width:2px " 
		x="150mm"
		y="38.5mm"
		width="3mm"
		height="6mm"
		id="oomID4702"
	/>
	<rect
		style="fill:none;stroke:#000000;stroke-width:2px " 
		x="150mm"
		y="18.5mm"
		width="3mm"
		height="6mm"
		id="oomID4703"
	/>
	<rect
		style="fill:none;stroke:#000000;stroke-width:2px " 
		x="170mm"
		y="138.5mm"
		width="3mm"
		height="6mm"
		id="oomID4704"
	/>
	<rect
		style="fill:none;stroke:#000000;stroke-width:2px " 
		x="170mm"
		y="118.5mm"
		width="3mm"
		height="6mm"
		id="oomID4705"
	/>
	<rect
		style="fill:none;stroke:#000000;stroke-width:2px " 
		x="170mm"
		y="98.5mm"
		width="3mm"
		height="6mm"
		id="oomID4706"
	/>
	<rect
		style="fill:none;stroke:#000000;stroke-width:2px " 
		x="170mm"
		y="78.5mm"
		width="3mm"
		height="6mm"
		id="oomID4707"
	/>
	<rect
		style="fill:none;stroke:#000000;stroke-width:2px " 
		x="170mm"
		y="58.5mm"
		width="3mm"
		height="6mm"
		id="oomID4708"
	/>
	<rect
		style="fill:none;stroke:#000000;stroke-width:2px " 
		x="170mm"
		y="38.5mm"
		width="3mm"
		height="6mm"
		id="oomID4709"
	/>
	<rect
		style="fill:none;stroke:#000000;stroke-width:2px " 
		x="170mm"
		y="18.5mm"
		width="3mm"
		height="6mm"
		id="oomID4710"
	/>
	<rect
		style="fill:none;stroke:#000000;stroke-width:2px " 
		x="190mm"
		y="138.5mm"
		width="3mm"
		height="6mm"
		id="oomID4711"
	/>
	<rect
		style="fill:none;stroke:#000000;stroke-width:2px " 
		x="190mm"
		y="118.5mm"
		width="3mm"
		height="6mm"
		id="oomID4712"
	/>
	<rect
		style="fill:none;stroke:#000000;stroke-width:2px " 
		x="190mm"
		y="98.5mm"
		width="3mm"
		height="6mm"
		id="oomID4713"
	/>
	<rect
		style="fill:none;stroke:#000000;stroke-width:2px " 
		x="190mm"
		y="78.5mm"
		width="3mm"
		height="6mm"
		id="oomID4714"
	/>
	<rect
		style="fill:none;stroke:#000000;stroke-width:2px " 
		x="190mm"
		y="58.5mm"
		width="3mm"
		height="6mm"
		id="oomID4715"
	/>
	<rect
		style="fill:none;stroke:#000000;stroke-width:2px " 
		x="190mm"
		y="38.5mm"
		width="3mm"
		height="6mm"
		id="oomID4716"
	/>
	<rect
		style="fill:none;stroke:#000000;stroke-width:2px " 
		x="190mm"
		y="18.5mm"
		width="3mm"
		height="6mm"
		id="oomID4717"
	/>
	<rect
		style="fill:none;stroke:#000000;stroke-width:2px " 
		x="210mm"
		y="138.5mm"
		width="3mm"
		height="6mm"
		id="oomID4718"
	/>
	<rect
		style="fill:none;stroke:#000000;stroke-width:2px " 
		x="210mm"
		y="118.5mm"
		width="3mm"
		height="6mm"
		id="oomID4719"
	/>
	<rect
		style="fill:none;stroke:#000000;stroke-width:2px " 
		x="210mm"
		y="98.5mm"
		width="3mm"
		height="6mm"
		id="oomID4720"
	/>
	<rect
		style="fill:none;stroke:#000000;stroke-width:2px " 
		x="210mm"
		y="78.5mm"
		width="3mm"
		height="6mm"
		id="oomID4721"
	/>
	<rect
		style="fill:none;stroke:#000000;stroke-width:2px " 
		x="210mm"
		y="58.5mm"
		width="3mm"
		height="6mm"
		id="oomID4722"
	/>
	<rect
		style="fill:none;stroke:#000000;stroke-width:2px " 
		x="210mm"
		y="38.5mm"
		width="3mm"
		height="6mm"
		id="oomID4723"
	/>
	<rect
		style="fill:none;stroke:#000000;stroke-width:2px " 
		x="210mm"
		y="18.5mm"
		width="3mm"
		height="6mm"
		id="oomID4724"
	/>
	<rect
		style="fill:none;stroke:#000000;stroke-width:2px " 
		x="230mm"
		y="138.5mm"
		width="3mm"
		height="6mm"
		id="oomID4725"
	/>
	<rect
		style="fill:none;stroke:#000000;stroke-width:2px " 
		x="230mm"
		y="118.5mm"
		width="3mm"
		height="6mm"
		id="oomID4726"
	/>
	<rect
		style="fill:none;stroke:#000000;stroke-width:2px " 
		x="230mm"
		y="98.5mm"
		width="3mm"
		height="6mm"
		id="oomID4727"
	/>
	<rect
		style="fill:none;stroke:#000000;stroke-width:2px " 
		x="230mm"
		y="78.5mm"
		width="3mm"
		height="6mm"
		id="oomID4728"
	/>
	<rect
		style="fill:none;stroke:#000000;stroke-width:2px " 
		x="230mm"
		y="58.5mm"
		width="3mm"
		height="6mm"
		id="oomID4729"
	/>
	<rect
		style="fill:none;stroke:#000000;stroke-width:2px " 
		x="230mm"
		y="38.5mm"
		width="3mm"
		height="6mm"
		id="oomID4730"
	/>
	<rect
		style="fill:none;stroke:#000000;stroke-width:2px " 
		x="230mm"
		y="18.5mm"
		width="3mm"
		height="6mm"
		id="oomID4731"
	/>
	<rect
		style="fill:none;stroke:#000000;stroke-width:2px " 
		x="250mm"
		y="138.5mm"
		width="3mm"
		height="6mm"
		id="oomID4732"
	/>
	<rect
		style="fill:none;stroke:#000000;stroke-width:2px " 
		x="250mm"
		y="118.5mm"
		width="3mm"
		height="6mm"
		id="oomID4733"
	/>
	<rect
		style="fill:none;stroke:#000000;stroke-width:2px " 
		x="250mm"
		y="98.5mm"
		width="3mm"
		height="6mm"
		id="oomID4734"
	/>
	<rect
		style="fill:none;stroke:#000000;stroke-width:2px " 
		x="250mm"
		y="78.5mm"
		width="3mm"
		height="6mm"
		id="oomID4735"
	/>
	<rect
		style="fill:none;stroke:#000000;stroke-width:2px " 
		x="250mm"
		y="58.5mm"
		width="3mm"
		height="6mm"
		id="oomID4736"
	/>
	<rect
		style="fill:none;stroke:#000000;stroke-width:2px " 
		x="250mm"
		y="38.5mm"
		width="3mm"
		height="6mm"
		id="oomID4737"
	/>
	<rect
		style="fill:none;stroke:#000000;stroke-width:2px " 
		x="250mm"
		y="18.5mm"
		width="3mm"
		height="6mm"
		id="oomID4738"
	/>
	<rect
		style="fill:none;stroke:#000000;stroke-width:2px " 
		x="270mm"
		y="138.5mm"
		width="3mm"
		height="6mm"
		id="oomID4739"
	/>
	<rect
		style="fill:none;stroke:#000000;stroke-width:2px " 
		x="270mm"
		y="118.5mm"
		width="3mm"
		height="6mm"
		id="oomID4740"
	/>
	<rect
		style="fill:none;stroke:#000000;stroke-width:2px " 
		x="270mm"
		y="98.5mm"
		width="3mm"
		height="6mm"
		id="oomID4741"
	/>
	<rect
		style="fill:none;stroke:#000000;stroke-width:2px " 
		x="270mm"
		y="78.5mm"
		width="3mm"
		height="6mm"
		id="oomID4742"
	/>
	<rect
		style="fill:none;stroke:#000000;stroke-width:2px " 
		x="270mm"
		y="58.5mm"
		width="3mm"
		height="6mm"
		id="oomID4743"
	/>
	<rect
		style="fill:none;stroke:#000000;stroke-width:2px " 
		x="270mm"
		y="38.5mm"
		width="3mm"
		height="6mm"
		id="oomID4744"
	/>
	<rect
		style="fill:none;stroke:#000000;stroke-width:2px " 
		x="270mm"
		y="18.5mm"
		width="3mm"
		height="6mm"
		id="oomID4745"
	/>
	<rect
		style="fill:none;stroke:#000000;stroke-width:2px " 
		x="290mm"
		y="138.5mm"
		width="3mm"
		height="6mm"
		id="oomID4746"
	/>
	<rect
		style="fill:none;stroke:#000000;stroke-width:2px " 
		x="290mm"
		y="118.5mm"
		width="3mm"
		height="6mm"
		id="oomID4747"
	/>
	<rect
		style="fill:none;stroke:#000000;stroke-width:2px " 
		x="290mm"
		y="98.5mm"
		width="3mm"
		height="6mm"
		id="oomID4748"
	/>
	<rect
		style="fill:none;stroke:#000000;stroke-width:2px " 
		x="290mm"
		y="78.5mm"
		width="3mm"
		height="6mm"
		id="oomID4749"
	/>
	<rect
		style="fill:none;stroke:#000000;stroke-width:2px " 
		x="290mm"
		y="58.5mm"
		width="3mm"
		height="6mm"
		id="oomID4750"
	/>
	<rect
		style="fill:none;stroke:#000000;stroke-width:2px " 
		x="290mm"
		y="38.5mm"
		width="3mm"
		height="6mm"
		id="oomID4751"
	/>
	<rect
		style="fill:none;stroke:#000000;stroke-width:2px " 
		x="290mm"
		y="18.5mm"
		width="3mm"
		height="6mm"
		id="oomID4752"
	/>
	<rect
		style="fill:none;stroke:#000000;stroke-width:2px " 
		x="310mm"
		y="138.5mm"
		width="3mm"
		height="6mm"
		id="oomID4753"
	/>
	<rect
		style="fill:none;stroke:#000000;stroke-width:2px " 
		x="310mm"
		y="118.5mm"
		width="3mm"
		height="6mm"
		id="oomID4754"
	/>
	<rect
		style="fill:none;stroke:#000000;stroke-width:2px " 
		x="310mm"
		y="98.5mm"
		width="3mm"
		height="6mm"
		id="oomID4755"
	/>
	<rect
		style="fill:none;stroke:#000000;stroke-width:2px " 
		x="310mm"
		y="78.5mm"
		width="3mm"
		height="6mm"
		id="oomID4756"
	/>
	<rect
		style="fill:none;stroke:#000000;stroke-width:2px " 
		x="310mm"
		y="58.5mm"
		width="3mm"
		height="6mm"
		id="oomID4757"
	/>
	<rect
		style="fill:none;stroke:#000000;stroke-width:2px " 
		x="310mm"
		y="38.5mm"
		width="3mm"
		height="6mm"
		id="oomID4758"
	/>
	<rect
		style="fill:none;stroke:#000000;stroke-width:2px " 
		x="310mm"
		y="18.5mm"
		width="3mm"
		height="6mm"
		id="oomID4759"
	/>
	<rect
		style="fill:none;stroke:#000000;stroke-width:2px " 
		x="18.5mm"
		y="150mm"
		width="6mm"
		height="3mm"
		id="oomID4760"
	/>
	<rect
		style="fill:none;stroke:#000000;stroke-width:2px " 
		x="18.5mm"
		y="130mm"
		width="6mm"
		height="3mm"
		id="oomID4761"
	/>
	<rect
		style="fill:none;stroke:#000000;stroke-width:2px " 
		x="18.5mm"
		y="110mm"
		width="6mm"
		height="3mm"
		id="oomID4762"
	/>
	<rect
		style="fill:none;stroke:#000000;stroke-width:2px " 
		x="18.5mm"
		y="90mm"
		width="6mm"
		height="3mm"
		id="oomID4763"
	/>
	<rect
		style="fill:none;stroke:#000000;stroke-width:2px " 
		x="18.5mm"
		y="70mm"
		width="6mm"
		height="3mm"
		id="oomID4764"
	/>
	<rect
		style="fill:none;stroke:#000000;stroke-width:2px " 
		x="18.5mm"
		y="50mm"
		width="6mm"
		height="3mm"
		id="oomID4765"
	/>
	<rect
		style="fill:none;stroke:#000000;stroke-width:2px " 
		x="18.5mm"
		y="30mm"
		width="6mm"
		height="3mm"
		id="oomID4766"
	/>
	<rect
		style="fill:none;stroke:#000000;stroke-width:2px " 
		x="18.5mm"
		y="10mm"
		width="6mm"
		height="3mm"
		id="oomID4767"
	/>
	<rect
		style="fill:none;stroke:#000000;stroke-width:2px " 
		x="38.5mm"
		y="150mm"
		width="6mm"
		height="3mm"
		id="oomID4768"
	/>
	<rect
		style="fill:none;stroke:#000000;stroke-width:2px " 
		x="38.5mm"
		y="130mm"
		width="6mm"
		height="3mm"
		id="oomID4769"
	/>
	<rect
		style="fill:none;stroke:#000000;stroke-width:2px " 
		x="38.5mm"
		y="110mm"
		width="6mm"
		height="3mm"
		id="oomID4770"
	/>
	<rect
		style="fill:none;stroke:#000000;stroke-width:2px " 
		x="38.5mm"
		y="90mm"
		width="6mm"
		height="3mm"
		id="oomID4771"
	/>
	<rect
		style="fill:none;stroke:#000000;stroke-width:2px " 
		x="38.5mm"
		y="70mm"
		width="6mm"
		height="3mm"
		id="oomID4772"
	/>
	<rect
		style="fill:none;stroke:#000000;stroke-width:2px " 
		x="38.5mm"
		y="50mm"
		width="6mm"
		height="3mm"
		id="oomID4773"
	/>
	<rect
		style="fill:none;stroke:#000000;stroke-width:2px " 
		x="38.5mm"
		y="30mm"
		width="6mm"
		height="3mm"
		id="oomID4774"
	/>
	<rect
		style="fill:none;stroke:#000000;stroke-width:2px " 
		x="38.5mm"
		y="10mm"
		width="6mm"
		height="3mm"
		id="oomID4775"
	/>
	<rect
		style="fill:none;stroke:#000000;stroke-width:2px " 
		x="58.5mm"
		y="150mm"
		width="6mm"
		height="3mm"
		id="oomID4776"
	/>
	<rect
		style="fill:none;stroke:#000000;stroke-width:2px " 
		x="58.5mm"
		y="130mm"
		width="6mm"
		height="3mm"
		id="oomID4777"
	/>
	<rect
		style="fill:none;stroke:#000000;stroke-width:2px " 
		x="58.5mm"
		y="110mm"
		width="6mm"
		height="3mm"
		id="oomID4778"
	/>
	<rect
		style="fill:none;stroke:#000000;stroke-width:2px " 
		x="58.5mm"
		y="90mm"
		width="6mm"
		height="3mm"
		id="oomID4779"
	/>
	<rect
		style="fill:none;stroke:#000000;stroke-width:2px " 
		x="58.5mm"
		y="70mm"
		width="6mm"
		height="3mm"
		id="oomID4780"
	/>
	<rect
		style="fill:none;stroke:#000000;stroke-width:2px " 
		x="58.5mm"
		y="50mm"
		width="6mm"
		height="3mm"
		id="oomID4781"
	/>
	<rect
		style="fill:none;stroke:#000000;stroke-width:2px " 
		x="58.5mm"
		y="30mm"
		width="6mm"
		height="3mm"
		id="oomID4782"
	/>
	<rect
		style="fill:none;stroke:#000000;stroke-width:2px " 
		x="58.5mm"
		y="10mm"
		width="6mm"
		height="3mm"
		id="oomID4783"
	/>
	<rect
		style="fill:none;stroke:#000000;stroke-width:2px " 
		x="78.5mm"
		y="150mm"
		width="6mm"
		height="3mm"
		id="oomID4784"
	/>
	<rect
		style="fill:none;stroke:#000000;stroke-width:2px " 
		x="78.5mm"
		y="130mm"
		width="6mm"
		height="3mm"
		id="oomID4785"
	/>
	<rect
		style="fill:none;stroke:#000000;stroke-width:2px " 
		x="78.5mm"
		y="110mm"
		width="6mm"
		height="3mm"
		id="oomID4786"
	/>
	<rect
		style="fill:none;stroke:#000000;stroke-width:2px " 
		x="78.5mm"
		y="90mm"
		width="6mm"
		height="3mm"
		id="oomID4787"
	/>
	<rect
		style="fill:none;stroke:#000000;stroke-width:2px " 
		x="78.5mm"
		y="70mm"
		width="6mm"
		height="3mm"
		id="oomID4788"
	/>
	<rect
		style="fill:none;stroke:#000000;stroke-width:2px " 
		x="78.5mm"
		y="50mm"
		width="6mm"
		height="3mm"
		id="oomID4789"
	/>
	<rect
		style="fill:none;stroke:#000000;stroke-width:2px " 
		x="78.5mm"
		y="30mm"
		width="6mm"
		height="3mm"
		id="oomID4790"
	/>
	<rect
		style="fill:none;stroke:#000000;stroke-width:2px " 
		x="78.5mm"
		y="10mm"
		width="6mm"
		height="3mm"
		id="oomID4791"
	/>
	<rect
		style="fill:none;stroke:#000000;stroke-width:2px " 
		x="98.5mm"
		y="150mm"
		width="6mm"
		height="3mm"
		id="oomID4792"
	/>
	<rect
		style="fill:none;stroke:#000000;stroke-width:2px " 
		x="98.5mm"
		y="130mm"
		width="6mm"
		height="3mm"
		id="oomID4793"
	/>
	<rect
		style="fill:none;stroke:#000000;stroke-width:2px " 
		x="98.5mm"
		y="110mm"
		width="6mm"
		height="3mm"
		id="oomID4794"
	/>
	<rect
		style="fill:none;stroke:#000000;stroke-width:2px " 
		x="98.5mm"
		y="90mm"
		width="6mm"
		height="3mm"
		id="oomID4795"
	/>
	<rect
		style="fill:none;stroke:#000000;stroke-width:2px " 
		x="98.5mm"
		y="70mm"
		width="6mm"
		height="3mm"
		id="oomID4796"
	/>
	<rect
		style="fill:none;stroke:#000000;stroke-width:2px " 
		x="98.5mm"
		y="50mm"
		width="6mm"
		height="3mm"
		id="oomID4797"
	/>
	<rect
		style="fill:none;stroke:#000000;stroke-width:2px " 
		x="98.5mm"
		y="30mm"
		width="6mm"
		height="3mm"
		id="oomID4798"
	/>
	<rect
		style="fill:none;stroke:#000000;stroke-width:2px " 
		x="98.5mm"
		y="10mm"
		width="6mm"
		height="3mm"
		id="oomID4799"
	/>
	<rect
		style="fill:none;stroke:#000000;stroke-width:2px " 
		x="118.5mm"
		y="150mm"
		width="6mm"
		height="3mm"
		id="oomID4800"
	/>
	<rect
		style="fill:none;stroke:#000000;stroke-width:2px " 
		x="118.5mm"
		y="130mm"
		width="6mm"
		height="3mm"
		id="oomID4801"
	/>
	<rect
		style="fill:none;stroke:#000000;stroke-width:2px " 
		x="118.5mm"
		y="110mm"
		width="6mm"
		height="3mm"
		id="oomID4802"
	/>
	<rect
		style="fill:none;stroke:#000000;stroke-width:2px " 
		x="118.5mm"
		y="90mm"
		width="6mm"
		height="3mm"
		id="oomID4803"
	/>
	<rect
		style="fill:none;stroke:#000000;stroke-width:2px " 
		x="118.5mm"
		y="70mm"
		width="6mm"
		height="3mm"
		id="oomID4804"
	/>
	<rect
		style="fill:none;stroke:#000000;stroke-width:2px " 
		x="118.5mm"
		y="50mm"
		width="6mm"
		height="3mm"
		id="oomID4805"
	/>
	<rect
		style="fill:none;stroke:#000000;stroke-width:2px " 
		x="118.5mm"
		y="30mm"
		width="6mm"
		height="3mm"
		id="oomID4806"
	/>
	<rect
		style="fill:none;stroke:#000000;stroke-width:2px " 
		x="118.5mm"
		y="10mm"
		width="6mm"
		height="3mm"
		id="oomID4807"
	/>
	<rect
		style="fill:none;stroke:#000000;stroke-width:2px " 
		x="138.5mm"
		y="150mm"
		width="6mm"
		height="3mm"
		id="oomID4808"
	/>
	<rect
		style="fill:none;stroke:#000000;stroke-width:2px " 
		x="138.5mm"
		y="130mm"
		width="6mm"
		height="3mm"
		id="oomID4809"
	/>
	<rect
		style="fill:none;stroke:#000000;stroke-width:2px " 
		x="138.5mm"
		y="110mm"
		width="6mm"
		height="3mm"
		id="oomID4810"
	/>
	<rect
		style="fill:none;stroke:#000000;stroke-width:2px " 
		x="138.5mm"
		y="90mm"
		width="6mm"
		height="3mm"
		id="oomID4811"
	/>
	<rect
		style="fill:none;stroke:#000000;stroke-width:2px " 
		x="138.5mm"
		y="70mm"
		width="6mm"
		height="3mm"
		id="oomID4812"
	/>
	<rect
		style="fill:none;stroke:#000000;stroke-width:2px " 
		x="138.5mm"
		y="50mm"
		width="6mm"
		height="3mm"
		id="oomID4813"
	/>
	<rect
		style="fill:none;stroke:#000000;stroke-width:2px " 
		x="138.5mm"
		y="30mm"
		width="6mm"
		height="3mm"
		id="oomID4814"
	/>
	<rect
		style="fill:none;stroke:#000000;stroke-width:2px " 
		x="138.5mm"
		y="10mm"
		width="6mm"
		height="3mm"
		id="oomID4815"
	/>
	<rect
		style="fill:none;stroke:#000000;stroke-width:2px " 
		x="158.5mm"
		y="150mm"
		width="6mm"
		height="3mm"
		id="oomID4816"
	/>
	<rect
		style="fill:none;stroke:#000000;stroke-width:2px " 
		x="158.5mm"
		y="130mm"
		width="6mm"
		height="3mm"
		id="oomID4817"
	/>
	<rect
		style="fill:none;stroke:#000000;stroke-width:2px " 
		x="158.5mm"
		y="110mm"
		width="6mm"
		height="3mm"
		id="oomID4818"
	/>
	<rect
		style="fill:none;stroke:#000000;stroke-width:2px " 
		x="158.5mm"
		y="90mm"
		width="6mm"
		height="3mm"
		id="oomID4819"
	/>
	<rect
		style="fill:none;stroke:#000000;stroke-width:2px " 
		x="158.5mm"
		y="70mm"
		width="6mm"
		height="3mm"
		id="oomID4820"
	/>
	<rect
		style="fill:none;stroke:#000000;stroke-width:2px " 
		x="158.5mm"
		y="50mm"
		width="6mm"
		height="3mm"
		id="oomID4821"
	/>
	<rect
		style="fill:none;stroke:#000000;stroke-width:2px " 
		x="158.5mm"
		y="30mm"
		width="6mm"
		height="3mm"
		id="oomID4822"
	/>
	<rect
		style="fill:none;stroke:#000000;stroke-width:2px " 
		x="158.5mm"
		y="10mm"
		width="6mm"
		height="3mm"
		id="oomID4823"
	/>
	<rect
		style="fill:none;stroke:#000000;stroke-width:2px " 
		x="178.5mm"
		y="150mm"
		width="6mm"
		height="3mm"
		id="oomID4824"
	/>
	<rect
		style="fill:none;stroke:#000000;stroke-width:2px " 
		x="178.5mm"
		y="130mm"
		width="6mm"
		height="3mm"
		id="oomID4825"
	/>
	<rect
		style="fill:none;stroke:#000000;stroke-width:2px " 
		x="178.5mm"
		y="110mm"
		width="6mm"
		height="3mm"
		id="oomID4826"
	/>
	<rect
		style="fill:none;stroke:#000000;stroke-width:2px " 
		x="178.5mm"
		y="90mm"
		width="6mm"
		height="3mm"
		id="oomID4827"
	/>
	<rect
		style="fill:none;stroke:#000000;stroke-width:2px " 
		x="178.5mm"
		y="70mm"
		width="6mm"
		height="3mm"
		id="oomID4828"
	/>
	<rect
		style="fill:none;stroke:#000000;stroke-width:2px " 
		x="178.5mm"
		y="50mm"
		width="6mm"
		height="3mm"
		id="oomID4829"
	/>
	<rect
		style="fill:none;stroke:#000000;stroke-width:2px " 
		x="178.5mm"
		y="30mm"
		width="6mm"
		height="3mm"
		id="oomID4830"
	/>
	<rect
		style="fill:none;stroke:#000000;stroke-width:2px " 
		x="178.5mm"
		y="10mm"
		width="6mm"
		height="3mm"
		id="oomID4831"
	/>
	<rect
		style="fill:none;stroke:#000000;stroke-width:2px " 
		x="198.5mm"
		y="150mm"
		width="6mm"
		height="3mm"
		id="oomID4832"
	/>
	<rect
		style="fill:none;stroke:#000000;stroke-width:2px " 
		x="198.5mm"
		y="130mm"
		width="6mm"
		height="3mm"
		id="oomID4833"
	/>
	<rect
		style="fill:none;stroke:#000000;stroke-width:2px " 
		x="198.5mm"
		y="110mm"
		width="6mm"
		height="3mm"
		id="oomID4834"
	/>
	<rect
		style="fill:none;stroke:#000000;stroke-width:2px " 
		x="198.5mm"
		y="90mm"
		width="6mm"
		height="3mm"
		id="oomID4835"
	/>
	<rect
		style="fill:none;stroke:#000000;stroke-width:2px " 
		x="198.5mm"
		y="70mm"
		width="6mm"
		height="3mm"
		id="oomID4836"
	/>
	<rect
		style="fill:none;stroke:#000000;stroke-width:2px " 
		x="198.5mm"
		y="50mm"
		width="6mm"
		height="3mm"
		id="oomID4837"
	/>
	<rect
		style="fill:none;stroke:#000000;stroke-width:2px " 
		x="198.5mm"
		y="30mm"
		width="6mm"
		height="3mm"
		id="oomID4838"
	/>
	<rect
		style="fill:none;stroke:#000000;stroke-width:2px " 
		x="198.5mm"
		y="10mm"
		width="6mm"
		height="3mm"
		id="oomID4839"
	/>
	<rect
		style="fill:none;stroke:#000000;stroke-width:2px " 
		x="218.5mm"
		y="150mm"
		width="6mm"
		height="3mm"
		id="oomID4840"
	/>
	<rect
		style="fill:none;stroke:#000000;stroke-width:2px " 
		x="218.5mm"
		y="130mm"
		width="6mm"
		height="3mm"
		id="oomID4841"
	/>
	<rect
		style="fill:none;stroke:#000000;stroke-width:2px " 
		x="218.5mm"
		y="110mm"
		width="6mm"
		height="3mm"
		id="oomID4842"
	/>
	<rect
		style="fill:none;stroke:#000000;stroke-width:2px " 
		x="218.5mm"
		y="90mm"
		width="6mm"
		height="3mm"
		id="oomID4843"
	/>
	<rect
		style="fill:none;stroke:#000000;stroke-width:2px " 
		x="218.5mm"
		y="70mm"
		width="6mm"
		height="3mm"
		id="oomID4844"
	/>
	<rect
		style="fill:none;stroke:#000000;stroke-width:2px " 
		x="218.5mm"
		y="50mm"
		width="6mm"
		height="3mm"
		id="oomID4845"
	/>
	<rect
		style="fill:none;stroke:#000000;stroke-width:2px " 
		x="218.5mm"
		y="30mm"
		width="6mm"
		height="3mm"
		id="oomID4846"
	/>
	<rect
		style="fill:none;stroke:#000000;stroke-width:2px " 
		x="218.5mm"
		y="10mm"
		width="6mm"
		height="3mm"
		id="oomID4847"
	/>
	<rect
		style="fill:none;stroke:#000000;stroke-width:2px " 
		x="238.5mm"
		y="150mm"
		width="6mm"
		height="3mm"
		id="oomID4848"
	/>
	<rect
		style="fill:none;stroke:#000000;stroke-width:2px " 
		x="238.5mm"
		y="130mm"
		width="6mm"
		height="3mm"
		id="oomID4849"
	/>
	<rect
		style="fill:none;stroke:#000000;stroke-width:2px " 
		x="238.5mm"
		y="110mm"
		width="6mm"
		height="3mm"
		id="oomID4850"
	/>
	<rect
		style="fill:none;stroke:#000000;stroke-width:2px " 
		x="238.5mm"
		y="90mm"
		width="6mm"
		height="3mm"
		id="oomID4851"
	/>
	<rect
		style="fill:none;stroke:#000000;stroke-width:2px " 
		x="238.5mm"
		y="70mm"
		width="6mm"
		height="3mm"
		id="oomID4852"
	/>
	<rect
		style="fill:none;stroke:#000000;stroke-width:2px " 
		x="238.5mm"
		y="50mm"
		width="6mm"
		height="3mm"
		id="oomID4853"
	/>
	<rect
		style="fill:none;stroke:#000000;stroke-width:2px " 
		x="238.5mm"
		y="30mm"
		width="6mm"
		height="3mm"
		id="oomID4854"
	/>
	<rect
		style="fill:none;stroke:#000000;stroke-width:2px " 
		x="238.5mm"
		y="10mm"
		width="6mm"
		height="3mm"
		id="oomID4855"
	/>
	<rect
		style="fill:none;stroke:#000000;stroke-width:2px " 
		x="258.5mm"
		y="150mm"
		width="6mm"
		height="3mm"
		id="oomID4856"
	/>
	<rect
		style="fill:none;stroke:#000000;stroke-width:2px " 
		x="258.5mm"
		y="130mm"
		width="6mm"
		height="3mm"
		id="oomID4857"
	/>
	<rect
		style="fill:none;stroke:#000000;stroke-width:2px " 
		x="258.5mm"
		y="110mm"
		width="6mm"
		height="3mm"
		id="oomID4858"
	/>
	<rect
		style="fill:none;stroke:#000000;stroke-width:2px " 
		x="258.5mm"
		y="90mm"
		width="6mm"
		height="3mm"
		id="oomID4859"
	/>
	<rect
		style="fill:none;stroke:#000000;stroke-width:2px " 
		x="258.5mm"
		y="70mm"
		width="6mm"
		height="3mm"
		id="oomID4860"
	/>
	<rect
		style="fill:none;stroke:#000000;stroke-width:2px " 
		x="258.5mm"
		y="50mm"
		width="6mm"
		height="3mm"
		id="oomID4861"
	/>
	<rect
		style="fill:none;stroke:#000000;stroke-width:2px " 
		x="258.5mm"
		y="30mm"
		width="6mm"
		height="3mm"
		id="oomID4862"
	/>
	<rect
		style="fill:none;stroke:#000000;stroke-width:2px " 
		x="258.5mm"
		y="10mm"
		width="6mm"
		height="3mm"
		id="oomID4863"
	/>
	<rect
		style="fill:none;stroke:#000000;stroke-width:2px " 
		x="278.5mm"
		y="150mm"
		width="6mm"
		height="3mm"
		id="oomID4864"
	/>
	<rect
		style="fill:none;stroke:#000000;stroke-width:2px " 
		x="278.5mm"
		y="130mm"
		width="6mm"
		height="3mm"
		id="oomID4865"
	/>
	<rect
		style="fill:none;stroke:#000000;stroke-width:2px " 
		x="278.5mm"
		y="110mm"
		width="6mm"
		height="3mm"
		id="oomID4866"
	/>
	<rect
		style="fill:none;stroke:#000000;stroke-width:2px " 
		x="278.5mm"
		y="90mm"
		width="6mm"
		height="3mm"
		id="oomID4867"
	/>
	<rect
		style="fill:none;stroke:#000000;stroke-width:2px " 
		x="278.5mm"
		y="70mm"
		width="6mm"
		height="3mm"
		id="oomID4868"
	/>
	<rect
		style="fill:none;stroke:#000000;stroke-width:2px " 
		x="278.5mm"
		y="50mm"
		width="6mm"
		height="3mm"
		id="oomID4869"
	/>
	<rect
		style="fill:none;stroke:#000000;stroke-width:2px " 
		x="278.5mm"
		y="30mm"
		width="6mm"
		height="3mm"
		id="oomID4870"
	/>
	<rect
		style="fill:none;stroke:#000000;stroke-width:2px " 
		x="278.5mm"
		y="10mm"
		width="6mm"
		height="3mm"
		id="oomID4871"
	/>
	<rect
		style="fill:none;stroke:#000000;stroke-width:2px " 
		x="298.5mm"
		y="150mm"
		width="6mm"
		height="3mm"
		id="oomID4872"
	/>
	<rect
		style="fill:none;stroke:#000000;stroke-width:2px " 
		x="298.5mm"
		y="130mm"
		width="6mm"
		height="3mm"
		id="oomID4873"
	/>
	<rect
		style="fill:none;stroke:#000000;stroke-width:2px " 
		x="298.5mm"
		y="110mm"
		width="6mm"
		height="3mm"
		id="oomID4874"
	/>
	<rect
		style="fill:none;stroke:#000000;stroke-width:2px " 
		x="298.5mm"
		y="90mm"
		width="6mm"
		height="3mm"
		id="oomID4875"
	/>
	<rect
		style="fill:none;stroke:#000000;stroke-width:2px " 
		x="298.5mm"
		y="70mm"
		width="6mm"
		height="3mm"
		id="oomID4876"
	/>
	<rect
		style="fill:none;stroke:#000000;stroke-width:2px " 
		x="298.5mm"
		y="50mm"
		width="6mm"
		height="3mm"
		id="oomID4877"
	/>
	<rect
		style="fill:none;stroke:#000000;stroke-width:2px " 
		x="298.5mm"
		y="30mm"
		width="6mm"
		height="3mm"
		id="oomID4878"
	/>
	<rect
		style="fill:none;stroke:#000000;stroke-width:2px " 
		x="298.5mm"
		y="10mm"
		width="6mm"
		height="3mm"
		id="oomID4879"
	/>
	<text x="21.5mm" y="141.5mm"
	style="text-anchor: middle; text-align: center; font-family: ENG_HelvLine; -inkscape-font-specification: ENG_HelvLine; font-size: 12pt; fill:none; font-style:normal;font-weight:normal;line-height:100%;letter-spacing:0px;word-spacing:0px;fill-opacity:1;stroke:#FFA500"
	><tspan sodipodi:role="line">PL</tspan><tspan sodipodi:role="line">16-08</tspan></text>
</svg>
