<svg
xmlns:dc="http://purl.org/dc/elements/1.1/"
xmlns:cc="http://creativecommons.org/ns#"
xmlns:rdf="http://www.w3.org/1999/02/22-rdf-syntax-ns#"
xmlns:svg="http://www.w3.org/2000/svg"
xmlns="http://www.w3.org/2000/svg"
xmlns:xlink="http://www.w3.org/1999/xlink"
xmlns:sodipodi="http://sodipodi.sourceforge.net/DTD/sodipodi-0.dtd"
xmlns:inkscape="http://www.inkscape.org/namespaces/inkscape"
width="603mm"
height="23mm"
id="svg2"
version="1.1"
inkscape:version="0.48.1 "
sodipodi:docname="MultiLineTextINK.svg">
	<rect
		style="fill:none;stroke:#000000;stroke-width:2px " 
		x="5mm"
		y="5mm"
		rx="5mm"
		ry="5mm"
		width="593mm"
		height="13mm"
	/>
	<circle
		style="fill:none;stroke:#000000;stroke-width:2px " 
		cx="11.5mm"
		cy="11.5mm"
		r="3mm"
		id="oomID283"
	/>
	<circle
		style="fill:none;stroke:#000000;stroke-width:2px " 
		cx="31.5mm"
		cy="11.5mm"
		r="3mm"
		id="oomID284"
	/>
	<circle
		style="fill:none;stroke:#000000;stroke-width:2px " 
		cx="51.5mm"
		cy="11.5mm"
		r="3mm"
		id="oomID285"
	/>
	<circle
		style="fill:none;stroke:#000000;stroke-width:2px " 
		cx="71.5mm"
		cy="11.5mm"
		r="3mm"
		id="oomID286"
	/>
	<circle
		style="fill:none;stroke:#000000;stroke-width:2px " 
		cx="91.5mm"
		cy="11.5mm"
		r="3mm"
		id="oomID287"
	/>
	<circle
		style="fill:none;stroke:#000000;stroke-width:2px " 
		cx="111.5mm"
		cy="11.5mm"
		r="3mm"
		id="oomID288"
	/>
	<circle
		style="fill:none;stroke:#000000;stroke-width:2px " 
		cx="131.5mm"
		cy="11.5mm"
		r="3mm"
		id="oomID289"
	/>
	<circle
		style="fill:none;stroke:#000000;stroke-width:2px " 
		cx="151.5mm"
		cy="11.5mm"
		r="3mm"
		id="oomID290"
	/>
	<circle
		style="fill:none;stroke:#000000;stroke-width:2px " 
		cx="171.5mm"
		cy="11.5mm"
		r="3mm"
		id="oomID291"
	/>
	<circle
		style="fill:none;stroke:#000000;stroke-width:2px " 
		cx="191.5mm"
		cy="11.5mm"
		r="3mm"
		id="oomID292"
	/>
	<circle
		style="fill:none;stroke:#000000;stroke-width:2px " 
		cx="211.5mm"
		cy="11.5mm"
		r="3mm"
		id="oomID293"
	/>
	<circle
		style="fill:none;stroke:#000000;stroke-width:2px " 
		cx="231.5mm"
		cy="11.5mm"
		r="3mm"
		id="oomID294"
	/>
	<circle
		style="fill:none;stroke:#000000;stroke-width:2px " 
		cx="251.5mm"
		cy="11.5mm"
		r="3mm"
		id="oomID295"
	/>
	<circle
		style="fill:none;stroke:#000000;stroke-width:2px " 
		cx="271.5mm"
		cy="11.5mm"
		r="3mm"
		id="oomID296"
	/>
	<circle
		style="fill:none;stroke:#000000;stroke-width:2px " 
		cx="291.5mm"
		cy="11.5mm"
		r="3mm"
		id="oomID297"
	/>
	<circle
		style="fill:none;stroke:#000000;stroke-width:2px " 
		cx="311.5mm"
		cy="11.5mm"
		r="3mm"
		id="oomID298"
	/>
	<circle
		style="fill:none;stroke:#000000;stroke-width:2px " 
		cx="331.5mm"
		cy="11.5mm"
		r="3mm"
		id="oomID299"
	/>
	<circle
		style="fill:none;stroke:#000000;stroke-width:2px " 
		cx="351.5mm"
		cy="11.5mm"
		r="3mm"
		id="oomID300"
	/>
	<circle
		style="fill:none;stroke:#000000;stroke-width:2px " 
		cx="371.5mm"
		cy="11.5mm"
		r="3mm"
		id="oomID301"
	/>
	<circle
		style="fill:none;stroke:#000000;stroke-width:2px " 
		cx="391.5mm"
		cy="11.5mm"
		r="3mm"
		id="oomID302"
	/>
	<circle
		style="fill:none;stroke:#000000;stroke-width:2px " 
		cx="411.5mm"
		cy="11.5mm"
		r="3mm"
		id="oomID303"
	/>
	<circle
		style="fill:none;stroke:#000000;stroke-width:2px " 
		cx="431.5mm"
		cy="11.5mm"
		r="3mm"
		id="oomID304"
	/>
	<circle
		style="fill:none;stroke:#000000;stroke-width:2px " 
		cx="451.5mm"
		cy="11.5mm"
		r="3mm"
		id="oomID305"
	/>
	<circle
		style="fill:none;stroke:#000000;stroke-width:2px " 
		cx="471.5mm"
		cy="11.5mm"
		r="3mm"
		id="oomID306"
	/>
	<circle
		style="fill:none;stroke:#000000;stroke-width:2px " 
		cx="491.5mm"
		cy="11.5mm"
		r="3mm"
		id="oomID307"
	/>
	<circle
		style="fill:none;stroke:#000000;stroke-width:2px " 
		cx="511.5mm"
		cy="11.5mm"
		r="3mm"
		id="oomID308"
	/>
	<circle
		style="fill:none;stroke:#000000;stroke-width:2px " 
		cx="531.5mm"
		cy="11.5mm"
		r="3mm"
		id="oomID309"
	/>
	<circle
		style="fill:none;stroke:#000000;stroke-width:2px " 
		cx="551.5mm"
		cy="11.5mm"
		r="3mm"
		id="oomID310"
	/>
	<circle
		style="fill:none;stroke:#000000;stroke-width:2px " 
		cx="571.5mm"
		cy="11.5mm"
		r="3mm"
		id="oomID311"
	/>
	<circle
		style="fill:none;stroke:#000000;stroke-width:2px " 
		cx="591.5mm"
		cy="11.5mm"
		r="3mm"
		id="oomID312"
	/>
	<rect
		style="fill:none;stroke:#000000;stroke-width:2px " 
		x="18.5mm"
		y="10mm"
		width="6mm"
		height="3mm"
		id="oomID313"
	/>
	<rect
		style="fill:none;stroke:#000000;stroke-width:2px " 
		x="38.5mm"
		y="10mm"
		width="6mm"
		height="3mm"
		id="oomID314"
	/>
	<rect
		style="fill:none;stroke:#000000;stroke-width:2px " 
		x="58.5mm"
		y="10mm"
		width="6mm"
		height="3mm"
		id="oomID315"
	/>
	<rect
		style="fill:none;stroke:#000000;stroke-width:2px " 
		x="78.5mm"
		y="10mm"
		width="6mm"
		height="3mm"
		id="oomID316"
	/>
	<rect
		style="fill:none;stroke:#000000;stroke-width:2px " 
		x="98.5mm"
		y="10mm"
		width="6mm"
		height="3mm"
		id="oomID317"
	/>
	<rect
		style="fill:none;stroke:#000000;stroke-width:2px " 
		x="118.5mm"
		y="10mm"
		width="6mm"
		height="3mm"
		id="oomID318"
	/>
	<rect
		style="fill:none;stroke:#000000;stroke-width:2px " 
		x="138.5mm"
		y="10mm"
		width="6mm"
		height="3mm"
		id="oomID319"
	/>
	<rect
		style="fill:none;stroke:#000000;stroke-width:2px " 
		x="158.5mm"
		y="10mm"
		width="6mm"
		height="3mm"
		id="oomID320"
	/>
	<rect
		style="fill:none;stroke:#000000;stroke-width:2px " 
		x="178.5mm"
		y="10mm"
		width="6mm"
		height="3mm"
		id="oomID321"
	/>
	<rect
		style="fill:none;stroke:#000000;stroke-width:2px " 
		x="198.5mm"
		y="10mm"
		width="6mm"
		height="3mm"
		id="oomID322"
	/>
	<rect
		style="fill:none;stroke:#000000;stroke-width:2px " 
		x="218.5mm"
		y="10mm"
		width="6mm"
		height="3mm"
		id="oomID323"
	/>
	<rect
		style="fill:none;stroke:#000000;stroke-width:2px " 
		x="238.5mm"
		y="10mm"
		width="6mm"
		height="3mm"
		id="oomID324"
	/>
	<rect
		style="fill:none;stroke:#000000;stroke-width:2px " 
		x="258.5mm"
		y="10mm"
		width="6mm"
		height="3mm"
		id="oomID325"
	/>
	<rect
		style="fill:none;stroke:#000000;stroke-width:2px " 
		x="278.5mm"
		y="10mm"
		width="6mm"
		height="3mm"
		id="oomID326"
	/>
	<rect
		style="fill:none;stroke:#000000;stroke-width:2px " 
		x="298.5mm"
		y="10mm"
		width="6mm"
		height="3mm"
		id="oomID327"
	/>
	<rect
		style="fill:none;stroke:#000000;stroke-width:2px " 
		x="318.5mm"
		y="10mm"
		width="6mm"
		height="3mm"
		id="oomID328"
	/>
	<rect
		style="fill:none;stroke:#000000;stroke-width:2px " 
		x="338.5mm"
		y="10mm"
		width="6mm"
		height="3mm"
		id="oomID329"
	/>
	<rect
		style="fill:none;stroke:#000000;stroke-width:2px " 
		x="358.5mm"
		y="10mm"
		width="6mm"
		height="3mm"
		id="oomID330"
	/>
	<rect
		style="fill:none;stroke:#000000;stroke-width:2px " 
		x="378.5mm"
		y="10mm"
		width="6mm"
		height="3mm"
		id="oomID331"
	/>
	<rect
		style="fill:none;stroke:#000000;stroke-width:2px " 
		x="398.5mm"
		y="10mm"
		width="6mm"
		height="3mm"
		id="oomID332"
	/>
	<rect
		style="fill:none;stroke:#000000;stroke-width:2px " 
		x="418.5mm"
		y="10mm"
		width="6mm"
		height="3mm"
		id="oomID333"
	/>
	<rect
		style="fill:none;stroke:#000000;stroke-width:2px " 
		x="438.5mm"
		y="10mm"
		width="6mm"
		height="3mm"
		id="oomID334"
	/>
	<rect
		style="fill:none;stroke:#000000;stroke-width:2px " 
		x="458.5mm"
		y="10mm"
		width="6mm"
		height="3mm"
		id="oomID335"
	/>
	<rect
		style="fill:none;stroke:#000000;stroke-width:2px " 
		x="478.5mm"
		y="10mm"
		width="6mm"
		height="3mm"
		id="oomID336"
	/>
	<rect
		style="fill:none;stroke:#000000;stroke-width:2px " 
		x="498.5mm"
		y="10mm"
		width="6mm"
		height="3mm"
		id="oomID337"
	/>
	<rect
		style="fill:none;stroke:#000000;stroke-width:2px " 
		x="518.5mm"
		y="10mm"
		width="6mm"
		height="3mm"
		id="oomID338"
	/>
	<rect
		style="fill:none;stroke:#000000;stroke-width:2px " 
		x="538.5mm"
		y="10mm"
		width="6mm"
		height="3mm"
		id="oomID339"
	/>
	<rect
		style="fill:none;stroke:#000000;stroke-width:2px " 
		x="558.5mm"
		y="10mm"
		width="6mm"
		height="3mm"
		id="oomID340"
	/>
	<rect
		style="fill:none;stroke:#000000;stroke-width:2px " 
		x="578.5mm"
		y="10mm"
		width="6mm"
		height="3mm"
		id="oomID341"
	/>
</svg>
