<svg
xmlns:dc="http://purl.org/dc/elements/1.1/"
xmlns:cc="http://creativecommons.org/ns#"
xmlns:rdf="http://www.w3.org/1999/02/22-rdf-syntax-ns#"
xmlns:svg="http://www.w3.org/2000/svg"
xmlns="http://www.w3.org/2000/svg"
xmlns:xlink="http://www.w3.org/1999/xlink"
xmlns:sodipodi="http://sodipodi.sourceforge.net/DTD/sodipodi-0.dtd"
xmlns:inkscape="http://www.inkscape.org/namespaces/inkscape"
width="323mm"
height="123mm"
id="svg2"
version="1.1"
inkscape:version="0.48.1 "
sodipodi:docname="MultiLineTextINK.svg">
	<rect
		style="fill:none;stroke:#000000;stroke-width:2px " 
		x="5mm"
		y="5mm"
		rx="5mm"
		ry="5mm"
		width="313mm"
		height="113mm"
	/>
	<circle
		style="fill:none;stroke:#000000;stroke-width:2px " 
		cx="11.5mm"
		cy="111.5mm"
		r="3mm"
		id="oomID2502"
	/>
	<circle
		style="fill:none;stroke:#000000;stroke-width:2px " 
		cx="11.5mm"
		cy="91.5mm"
		r="3mm"
		id="oomID2503"
	/>
	<circle
		style="fill:none;stroke:#000000;stroke-width:2px " 
		cx="11.5mm"
		cy="71.5mm"
		r="3mm"
		id="oomID2504"
	/>
	<circle
		style="fill:none;stroke:#000000;stroke-width:2px " 
		cx="11.5mm"
		cy="51.5mm"
		r="3mm"
		id="oomID2505"
	/>
	<circle
		style="fill:none;stroke:#000000;stroke-width:2px " 
		cx="11.5mm"
		cy="31.5mm"
		r="3mm"
		id="oomID2506"
	/>
	<circle
		style="fill:none;stroke:#000000;stroke-width:2px " 
		cx="11.5mm"
		cy="11.5mm"
		r="3mm"
		id="oomID2507"
	/>
	<circle
		style="fill:none;stroke:#000000;stroke-width:2px " 
		cx="31.5mm"
		cy="111.5mm"
		r="3mm"
		id="oomID2508"
	/>
	<circle
		style="fill:none;stroke:#000000;stroke-width:2px " 
		cx="31.5mm"
		cy="91.5mm"
		r="3mm"
		id="oomID2509"
	/>
	<circle
		style="fill:none;stroke:#000000;stroke-width:2px " 
		cx="31.5mm"
		cy="71.5mm"
		r="3mm"
		id="oomID2510"
	/>
	<circle
		style="fill:none;stroke:#000000;stroke-width:2px " 
		cx="31.5mm"
		cy="51.5mm"
		r="3mm"
		id="oomID2511"
	/>
	<circle
		style="fill:none;stroke:#000000;stroke-width:2px " 
		cx="31.5mm"
		cy="31.5mm"
		r="3mm"
		id="oomID2512"
	/>
	<circle
		style="fill:none;stroke:#000000;stroke-width:2px " 
		cx="31.5mm"
		cy="11.5mm"
		r="3mm"
		id="oomID2513"
	/>
	<circle
		style="fill:none;stroke:#000000;stroke-width:2px " 
		cx="51.5mm"
		cy="111.5mm"
		r="3mm"
		id="oomID2514"
	/>
	<circle
		style="fill:none;stroke:#000000;stroke-width:2px " 
		cx="51.5mm"
		cy="91.5mm"
		r="3mm"
		id="oomID2515"
	/>
	<circle
		style="fill:none;stroke:#000000;stroke-width:2px " 
		cx="51.5mm"
		cy="71.5mm"
		r="3mm"
		id="oomID2516"
	/>
	<circle
		style="fill:none;stroke:#000000;stroke-width:2px " 
		cx="51.5mm"
		cy="51.5mm"
		r="3mm"
		id="oomID2517"
	/>
	<circle
		style="fill:none;stroke:#000000;stroke-width:2px " 
		cx="51.5mm"
		cy="31.5mm"
		r="3mm"
		id="oomID2518"
	/>
	<circle
		style="fill:none;stroke:#000000;stroke-width:2px " 
		cx="51.5mm"
		cy="11.5mm"
		r="3mm"
		id="oomID2519"
	/>
	<circle
		style="fill:none;stroke:#000000;stroke-width:2px " 
		cx="71.5mm"
		cy="111.5mm"
		r="3mm"
		id="oomID2520"
	/>
	<circle
		style="fill:none;stroke:#000000;stroke-width:2px " 
		cx="71.5mm"
		cy="91.5mm"
		r="3mm"
		id="oomID2521"
	/>
	<circle
		style="fill:none;stroke:#000000;stroke-width:2px " 
		cx="71.5mm"
		cy="71.5mm"
		r="3mm"
		id="oomID2522"
	/>
	<circle
		style="fill:none;stroke:#000000;stroke-width:2px " 
		cx="71.5mm"
		cy="51.5mm"
		r="3mm"
		id="oomID2523"
	/>
	<circle
		style="fill:none;stroke:#000000;stroke-width:2px " 
		cx="71.5mm"
		cy="31.5mm"
		r="3mm"
		id="oomID2524"
	/>
	<circle
		style="fill:none;stroke:#000000;stroke-width:2px " 
		cx="71.5mm"
		cy="11.5mm"
		r="3mm"
		id="oomID2525"
	/>
	<circle
		style="fill:none;stroke:#000000;stroke-width:2px " 
		cx="91.5mm"
		cy="111.5mm"
		r="3mm"
		id="oomID2526"
	/>
	<circle
		style="fill:none;stroke:#000000;stroke-width:2px " 
		cx="91.5mm"
		cy="91.5mm"
		r="3mm"
		id="oomID2527"
	/>
	<circle
		style="fill:none;stroke:#000000;stroke-width:2px " 
		cx="91.5mm"
		cy="71.5mm"
		r="3mm"
		id="oomID2528"
	/>
	<circle
		style="fill:none;stroke:#000000;stroke-width:2px " 
		cx="91.5mm"
		cy="51.5mm"
		r="3mm"
		id="oomID2529"
	/>
	<circle
		style="fill:none;stroke:#000000;stroke-width:2px " 
		cx="91.5mm"
		cy="31.5mm"
		r="3mm"
		id="oomID2530"
	/>
	<circle
		style="fill:none;stroke:#000000;stroke-width:2px " 
		cx="91.5mm"
		cy="11.5mm"
		r="3mm"
		id="oomID2531"
	/>
	<circle
		style="fill:none;stroke:#000000;stroke-width:2px " 
		cx="111.5mm"
		cy="111.5mm"
		r="3mm"
		id="oomID2532"
	/>
	<circle
		style="fill:none;stroke:#000000;stroke-width:2px " 
		cx="111.5mm"
		cy="91.5mm"
		r="3mm"
		id="oomID2533"
	/>
	<circle
		style="fill:none;stroke:#000000;stroke-width:2px " 
		cx="111.5mm"
		cy="71.5mm"
		r="3mm"
		id="oomID2534"
	/>
	<circle
		style="fill:none;stroke:#000000;stroke-width:2px " 
		cx="111.5mm"
		cy="51.5mm"
		r="3mm"
		id="oomID2535"
	/>
	<circle
		style="fill:none;stroke:#000000;stroke-width:2px " 
		cx="111.5mm"
		cy="31.5mm"
		r="3mm"
		id="oomID2536"
	/>
	<circle
		style="fill:none;stroke:#000000;stroke-width:2px " 
		cx="111.5mm"
		cy="11.5mm"
		r="3mm"
		id="oomID2537"
	/>
	<circle
		style="fill:none;stroke:#000000;stroke-width:2px " 
		cx="131.5mm"
		cy="111.5mm"
		r="3mm"
		id="oomID2538"
	/>
	<circle
		style="fill:none;stroke:#000000;stroke-width:2px " 
		cx="131.5mm"
		cy="91.5mm"
		r="3mm"
		id="oomID2539"
	/>
	<circle
		style="fill:none;stroke:#000000;stroke-width:2px " 
		cx="131.5mm"
		cy="71.5mm"
		r="3mm"
		id="oomID2540"
	/>
	<circle
		style="fill:none;stroke:#000000;stroke-width:2px " 
		cx="131.5mm"
		cy="51.5mm"
		r="3mm"
		id="oomID2541"
	/>
	<circle
		style="fill:none;stroke:#000000;stroke-width:2px " 
		cx="131.5mm"
		cy="31.5mm"
		r="3mm"
		id="oomID2542"
	/>
	<circle
		style="fill:none;stroke:#000000;stroke-width:2px " 
		cx="131.5mm"
		cy="11.5mm"
		r="3mm"
		id="oomID2543"
	/>
	<circle
		style="fill:none;stroke:#000000;stroke-width:2px " 
		cx="151.5mm"
		cy="111.5mm"
		r="3mm"
		id="oomID2544"
	/>
	<circle
		style="fill:none;stroke:#000000;stroke-width:2px " 
		cx="151.5mm"
		cy="91.5mm"
		r="3mm"
		id="oomID2545"
	/>
	<circle
		style="fill:none;stroke:#000000;stroke-width:2px " 
		cx="151.5mm"
		cy="71.5mm"
		r="3mm"
		id="oomID2546"
	/>
	<circle
		style="fill:none;stroke:#000000;stroke-width:2px " 
		cx="151.5mm"
		cy="51.5mm"
		r="3mm"
		id="oomID2547"
	/>
	<circle
		style="fill:none;stroke:#000000;stroke-width:2px " 
		cx="151.5mm"
		cy="31.5mm"
		r="3mm"
		id="oomID2548"
	/>
	<circle
		style="fill:none;stroke:#000000;stroke-width:2px " 
		cx="151.5mm"
		cy="11.5mm"
		r="3mm"
		id="oomID2549"
	/>
	<circle
		style="fill:none;stroke:#000000;stroke-width:2px " 
		cx="171.5mm"
		cy="111.5mm"
		r="3mm"
		id="oomID2550"
	/>
	<circle
		style="fill:none;stroke:#000000;stroke-width:2px " 
		cx="171.5mm"
		cy="91.5mm"
		r="3mm"
		id="oomID2551"
	/>
	<circle
		style="fill:none;stroke:#000000;stroke-width:2px " 
		cx="171.5mm"
		cy="71.5mm"
		r="3mm"
		id="oomID2552"
	/>
	<circle
		style="fill:none;stroke:#000000;stroke-width:2px " 
		cx="171.5mm"
		cy="51.5mm"
		r="3mm"
		id="oomID2553"
	/>
	<circle
		style="fill:none;stroke:#000000;stroke-width:2px " 
		cx="171.5mm"
		cy="31.5mm"
		r="3mm"
		id="oomID2554"
	/>
	<circle
		style="fill:none;stroke:#000000;stroke-width:2px " 
		cx="171.5mm"
		cy="11.5mm"
		r="3mm"
		id="oomID2555"
	/>
	<circle
		style="fill:none;stroke:#000000;stroke-width:2px " 
		cx="191.5mm"
		cy="111.5mm"
		r="3mm"
		id="oomID2556"
	/>
	<circle
		style="fill:none;stroke:#000000;stroke-width:2px " 
		cx="191.5mm"
		cy="91.5mm"
		r="3mm"
		id="oomID2557"
	/>
	<circle
		style="fill:none;stroke:#000000;stroke-width:2px " 
		cx="191.5mm"
		cy="71.5mm"
		r="3mm"
		id="oomID2558"
	/>
	<circle
		style="fill:none;stroke:#000000;stroke-width:2px " 
		cx="191.5mm"
		cy="51.5mm"
		r="3mm"
		id="oomID2559"
	/>
	<circle
		style="fill:none;stroke:#000000;stroke-width:2px " 
		cx="191.5mm"
		cy="31.5mm"
		r="3mm"
		id="oomID2560"
	/>
	<circle
		style="fill:none;stroke:#000000;stroke-width:2px " 
		cx="191.5mm"
		cy="11.5mm"
		r="3mm"
		id="oomID2561"
	/>
	<circle
		style="fill:none;stroke:#000000;stroke-width:2px " 
		cx="211.5mm"
		cy="111.5mm"
		r="3mm"
		id="oomID2562"
	/>
	<circle
		style="fill:none;stroke:#000000;stroke-width:2px " 
		cx="211.5mm"
		cy="91.5mm"
		r="3mm"
		id="oomID2563"
	/>
	<circle
		style="fill:none;stroke:#000000;stroke-width:2px " 
		cx="211.5mm"
		cy="71.5mm"
		r="3mm"
		id="oomID2564"
	/>
	<circle
		style="fill:none;stroke:#000000;stroke-width:2px " 
		cx="211.5mm"
		cy="51.5mm"
		r="3mm"
		id="oomID2565"
	/>
	<circle
		style="fill:none;stroke:#000000;stroke-width:2px " 
		cx="211.5mm"
		cy="31.5mm"
		r="3mm"
		id="oomID2566"
	/>
	<circle
		style="fill:none;stroke:#000000;stroke-width:2px " 
		cx="211.5mm"
		cy="11.5mm"
		r="3mm"
		id="oomID2567"
	/>
	<circle
		style="fill:none;stroke:#000000;stroke-width:2px " 
		cx="231.5mm"
		cy="111.5mm"
		r="3mm"
		id="oomID2568"
	/>
	<circle
		style="fill:none;stroke:#000000;stroke-width:2px " 
		cx="231.5mm"
		cy="91.5mm"
		r="3mm"
		id="oomID2569"
	/>
	<circle
		style="fill:none;stroke:#000000;stroke-width:2px " 
		cx="231.5mm"
		cy="71.5mm"
		r="3mm"
		id="oomID2570"
	/>
	<circle
		style="fill:none;stroke:#000000;stroke-width:2px " 
		cx="231.5mm"
		cy="51.5mm"
		r="3mm"
		id="oomID2571"
	/>
	<circle
		style="fill:none;stroke:#000000;stroke-width:2px " 
		cx="231.5mm"
		cy="31.5mm"
		r="3mm"
		id="oomID2572"
	/>
	<circle
		style="fill:none;stroke:#000000;stroke-width:2px " 
		cx="231.5mm"
		cy="11.5mm"
		r="3mm"
		id="oomID2573"
	/>
	<circle
		style="fill:none;stroke:#000000;stroke-width:2px " 
		cx="251.5mm"
		cy="111.5mm"
		r="3mm"
		id="oomID2574"
	/>
	<circle
		style="fill:none;stroke:#000000;stroke-width:2px " 
		cx="251.5mm"
		cy="91.5mm"
		r="3mm"
		id="oomID2575"
	/>
	<circle
		style="fill:none;stroke:#000000;stroke-width:2px " 
		cx="251.5mm"
		cy="71.5mm"
		r="3mm"
		id="oomID2576"
	/>
	<circle
		style="fill:none;stroke:#000000;stroke-width:2px " 
		cx="251.5mm"
		cy="51.5mm"
		r="3mm"
		id="oomID2577"
	/>
	<circle
		style="fill:none;stroke:#000000;stroke-width:2px " 
		cx="251.5mm"
		cy="31.5mm"
		r="3mm"
		id="oomID2578"
	/>
	<circle
		style="fill:none;stroke:#000000;stroke-width:2px " 
		cx="251.5mm"
		cy="11.5mm"
		r="3mm"
		id="oomID2579"
	/>
	<circle
		style="fill:none;stroke:#000000;stroke-width:2px " 
		cx="271.5mm"
		cy="111.5mm"
		r="3mm"
		id="oomID2580"
	/>
	<circle
		style="fill:none;stroke:#000000;stroke-width:2px " 
		cx="271.5mm"
		cy="91.5mm"
		r="3mm"
		id="oomID2581"
	/>
	<circle
		style="fill:none;stroke:#000000;stroke-width:2px " 
		cx="271.5mm"
		cy="71.5mm"
		r="3mm"
		id="oomID2582"
	/>
	<circle
		style="fill:none;stroke:#000000;stroke-width:2px " 
		cx="271.5mm"
		cy="51.5mm"
		r="3mm"
		id="oomID2583"
	/>
	<circle
		style="fill:none;stroke:#000000;stroke-width:2px " 
		cx="271.5mm"
		cy="31.5mm"
		r="3mm"
		id="oomID2584"
	/>
	<circle
		style="fill:none;stroke:#000000;stroke-width:2px " 
		cx="271.5mm"
		cy="11.5mm"
		r="3mm"
		id="oomID2585"
	/>
	<circle
		style="fill:none;stroke:#000000;stroke-width:2px " 
		cx="291.5mm"
		cy="111.5mm"
		r="3mm"
		id="oomID2586"
	/>
	<circle
		style="fill:none;stroke:#000000;stroke-width:2px " 
		cx="291.5mm"
		cy="91.5mm"
		r="3mm"
		id="oomID2587"
	/>
	<circle
		style="fill:none;stroke:#000000;stroke-width:2px " 
		cx="291.5mm"
		cy="71.5mm"
		r="3mm"
		id="oomID2588"
	/>
	<circle
		style="fill:none;stroke:#000000;stroke-width:2px " 
		cx="291.5mm"
		cy="51.5mm"
		r="3mm"
		id="oomID2589"
	/>
	<circle
		style="fill:none;stroke:#000000;stroke-width:2px " 
		cx="291.5mm"
		cy="31.5mm"
		r="3mm"
		id="oomID2590"
	/>
	<circle
		style="fill:none;stroke:#000000;stroke-width:2px " 
		cx="291.5mm"
		cy="11.5mm"
		r="3mm"
		id="oomID2591"
	/>
	<circle
		style="fill:none;stroke:#000000;stroke-width:2px " 
		cx="311.5mm"
		cy="111.5mm"
		r="3mm"
		id="oomID2592"
	/>
	<circle
		style="fill:none;stroke:#000000;stroke-width:2px " 
		cx="311.5mm"
		cy="91.5mm"
		r="3mm"
		id="oomID2593"
	/>
	<circle
		style="fill:none;stroke:#000000;stroke-width:2px " 
		cx="311.5mm"
		cy="71.5mm"
		r="3mm"
		id="oomID2594"
	/>
	<circle
		style="fill:none;stroke:#000000;stroke-width:2px " 
		cx="311.5mm"
		cy="51.5mm"
		r="3mm"
		id="oomID2595"
	/>
	<circle
		style="fill:none;stroke:#000000;stroke-width:2px " 
		cx="311.5mm"
		cy="31.5mm"
		r="3mm"
		id="oomID2596"
	/>
	<circle
		style="fill:none;stroke:#000000;stroke-width:2px " 
		cx="311.5mm"
		cy="11.5mm"
		r="3mm"
		id="oomID2597"
	/>
	<rect
		style="fill:none;stroke:#000000;stroke-width:2px " 
		x="10mm"
		y="98.5mm"
		width="3mm"
		height="6mm"
		id="oomID2598"
	/>
	<rect
		style="fill:none;stroke:#000000;stroke-width:2px " 
		x="10mm"
		y="78.5mm"
		width="3mm"
		height="6mm"
		id="oomID2599"
	/>
	<rect
		style="fill:none;stroke:#000000;stroke-width:2px " 
		x="10mm"
		y="58.5mm"
		width="3mm"
		height="6mm"
		id="oomID2600"
	/>
	<rect
		style="fill:none;stroke:#000000;stroke-width:2px " 
		x="10mm"
		y="38.5mm"
		width="3mm"
		height="6mm"
		id="oomID2601"
	/>
	<rect
		style="fill:none;stroke:#000000;stroke-width:2px " 
		x="10mm"
		y="18.5mm"
		width="3mm"
		height="6mm"
		id="oomID2602"
	/>
	<rect
		style="fill:none;stroke:#000000;stroke-width:2px " 
		x="30mm"
		y="98.5mm"
		width="3mm"
		height="6mm"
		id="oomID2603"
	/>
	<rect
		style="fill:none;stroke:#000000;stroke-width:2px " 
		x="30mm"
		y="78.5mm"
		width="3mm"
		height="6mm"
		id="oomID2604"
	/>
	<rect
		style="fill:none;stroke:#000000;stroke-width:2px " 
		x="30mm"
		y="58.5mm"
		width="3mm"
		height="6mm"
		id="oomID2605"
	/>
	<rect
		style="fill:none;stroke:#000000;stroke-width:2px " 
		x="30mm"
		y="38.5mm"
		width="3mm"
		height="6mm"
		id="oomID2606"
	/>
	<rect
		style="fill:none;stroke:#000000;stroke-width:2px " 
		x="30mm"
		y="18.5mm"
		width="3mm"
		height="6mm"
		id="oomID2607"
	/>
	<rect
		style="fill:none;stroke:#000000;stroke-width:2px " 
		x="50mm"
		y="98.5mm"
		width="3mm"
		height="6mm"
		id="oomID2608"
	/>
	<rect
		style="fill:none;stroke:#000000;stroke-width:2px " 
		x="50mm"
		y="78.5mm"
		width="3mm"
		height="6mm"
		id="oomID2609"
	/>
	<rect
		style="fill:none;stroke:#000000;stroke-width:2px " 
		x="50mm"
		y="58.5mm"
		width="3mm"
		height="6mm"
		id="oomID2610"
	/>
	<rect
		style="fill:none;stroke:#000000;stroke-width:2px " 
		x="50mm"
		y="38.5mm"
		width="3mm"
		height="6mm"
		id="oomID2611"
	/>
	<rect
		style="fill:none;stroke:#000000;stroke-width:2px " 
		x="50mm"
		y="18.5mm"
		width="3mm"
		height="6mm"
		id="oomID2612"
	/>
	<rect
		style="fill:none;stroke:#000000;stroke-width:2px " 
		x="70mm"
		y="98.5mm"
		width="3mm"
		height="6mm"
		id="oomID2613"
	/>
	<rect
		style="fill:none;stroke:#000000;stroke-width:2px " 
		x="70mm"
		y="78.5mm"
		width="3mm"
		height="6mm"
		id="oomID2614"
	/>
	<rect
		style="fill:none;stroke:#000000;stroke-width:2px " 
		x="70mm"
		y="58.5mm"
		width="3mm"
		height="6mm"
		id="oomID2615"
	/>
	<rect
		style="fill:none;stroke:#000000;stroke-width:2px " 
		x="70mm"
		y="38.5mm"
		width="3mm"
		height="6mm"
		id="oomID2616"
	/>
	<rect
		style="fill:none;stroke:#000000;stroke-width:2px " 
		x="70mm"
		y="18.5mm"
		width="3mm"
		height="6mm"
		id="oomID2617"
	/>
	<rect
		style="fill:none;stroke:#000000;stroke-width:2px " 
		x="90mm"
		y="98.5mm"
		width="3mm"
		height="6mm"
		id="oomID2618"
	/>
	<rect
		style="fill:none;stroke:#000000;stroke-width:2px " 
		x="90mm"
		y="78.5mm"
		width="3mm"
		height="6mm"
		id="oomID2619"
	/>
	<rect
		style="fill:none;stroke:#000000;stroke-width:2px " 
		x="90mm"
		y="58.5mm"
		width="3mm"
		height="6mm"
		id="oomID2620"
	/>
	<rect
		style="fill:none;stroke:#000000;stroke-width:2px " 
		x="90mm"
		y="38.5mm"
		width="3mm"
		height="6mm"
		id="oomID2621"
	/>
	<rect
		style="fill:none;stroke:#000000;stroke-width:2px " 
		x="90mm"
		y="18.5mm"
		width="3mm"
		height="6mm"
		id="oomID2622"
	/>
	<rect
		style="fill:none;stroke:#000000;stroke-width:2px " 
		x="110mm"
		y="98.5mm"
		width="3mm"
		height="6mm"
		id="oomID2623"
	/>
	<rect
		style="fill:none;stroke:#000000;stroke-width:2px " 
		x="110mm"
		y="78.5mm"
		width="3mm"
		height="6mm"
		id="oomID2624"
	/>
	<rect
		style="fill:none;stroke:#000000;stroke-width:2px " 
		x="110mm"
		y="58.5mm"
		width="3mm"
		height="6mm"
		id="oomID2625"
	/>
	<rect
		style="fill:none;stroke:#000000;stroke-width:2px " 
		x="110mm"
		y="38.5mm"
		width="3mm"
		height="6mm"
		id="oomID2626"
	/>
	<rect
		style="fill:none;stroke:#000000;stroke-width:2px " 
		x="110mm"
		y="18.5mm"
		width="3mm"
		height="6mm"
		id="oomID2627"
	/>
	<rect
		style="fill:none;stroke:#000000;stroke-width:2px " 
		x="130mm"
		y="98.5mm"
		width="3mm"
		height="6mm"
		id="oomID2628"
	/>
	<rect
		style="fill:none;stroke:#000000;stroke-width:2px " 
		x="130mm"
		y="78.5mm"
		width="3mm"
		height="6mm"
		id="oomID2629"
	/>
	<rect
		style="fill:none;stroke:#000000;stroke-width:2px " 
		x="130mm"
		y="58.5mm"
		width="3mm"
		height="6mm"
		id="oomID2630"
	/>
	<rect
		style="fill:none;stroke:#000000;stroke-width:2px " 
		x="130mm"
		y="38.5mm"
		width="3mm"
		height="6mm"
		id="oomID2631"
	/>
	<rect
		style="fill:none;stroke:#000000;stroke-width:2px " 
		x="130mm"
		y="18.5mm"
		width="3mm"
		height="6mm"
		id="oomID2632"
	/>
	<rect
		style="fill:none;stroke:#000000;stroke-width:2px " 
		x="150mm"
		y="98.5mm"
		width="3mm"
		height="6mm"
		id="oomID2633"
	/>
	<rect
		style="fill:none;stroke:#000000;stroke-width:2px " 
		x="150mm"
		y="78.5mm"
		width="3mm"
		height="6mm"
		id="oomID2634"
	/>
	<rect
		style="fill:none;stroke:#000000;stroke-width:2px " 
		x="150mm"
		y="58.5mm"
		width="3mm"
		height="6mm"
		id="oomID2635"
	/>
	<rect
		style="fill:none;stroke:#000000;stroke-width:2px " 
		x="150mm"
		y="38.5mm"
		width="3mm"
		height="6mm"
		id="oomID2636"
	/>
	<rect
		style="fill:none;stroke:#000000;stroke-width:2px " 
		x="150mm"
		y="18.5mm"
		width="3mm"
		height="6mm"
		id="oomID2637"
	/>
	<rect
		style="fill:none;stroke:#000000;stroke-width:2px " 
		x="170mm"
		y="98.5mm"
		width="3mm"
		height="6mm"
		id="oomID2638"
	/>
	<rect
		style="fill:none;stroke:#000000;stroke-width:2px " 
		x="170mm"
		y="78.5mm"
		width="3mm"
		height="6mm"
		id="oomID2639"
	/>
	<rect
		style="fill:none;stroke:#000000;stroke-width:2px " 
		x="170mm"
		y="58.5mm"
		width="3mm"
		height="6mm"
		id="oomID2640"
	/>
	<rect
		style="fill:none;stroke:#000000;stroke-width:2px " 
		x="170mm"
		y="38.5mm"
		width="3mm"
		height="6mm"
		id="oomID2641"
	/>
	<rect
		style="fill:none;stroke:#000000;stroke-width:2px " 
		x="170mm"
		y="18.5mm"
		width="3mm"
		height="6mm"
		id="oomID2642"
	/>
	<rect
		style="fill:none;stroke:#000000;stroke-width:2px " 
		x="190mm"
		y="98.5mm"
		width="3mm"
		height="6mm"
		id="oomID2643"
	/>
	<rect
		style="fill:none;stroke:#000000;stroke-width:2px " 
		x="190mm"
		y="78.5mm"
		width="3mm"
		height="6mm"
		id="oomID2644"
	/>
	<rect
		style="fill:none;stroke:#000000;stroke-width:2px " 
		x="190mm"
		y="58.5mm"
		width="3mm"
		height="6mm"
		id="oomID2645"
	/>
	<rect
		style="fill:none;stroke:#000000;stroke-width:2px " 
		x="190mm"
		y="38.5mm"
		width="3mm"
		height="6mm"
		id="oomID2646"
	/>
	<rect
		style="fill:none;stroke:#000000;stroke-width:2px " 
		x="190mm"
		y="18.5mm"
		width="3mm"
		height="6mm"
		id="oomID2647"
	/>
	<rect
		style="fill:none;stroke:#000000;stroke-width:2px " 
		x="210mm"
		y="98.5mm"
		width="3mm"
		height="6mm"
		id="oomID2648"
	/>
	<rect
		style="fill:none;stroke:#000000;stroke-width:2px " 
		x="210mm"
		y="78.5mm"
		width="3mm"
		height="6mm"
		id="oomID2649"
	/>
	<rect
		style="fill:none;stroke:#000000;stroke-width:2px " 
		x="210mm"
		y="58.5mm"
		width="3mm"
		height="6mm"
		id="oomID2650"
	/>
	<rect
		style="fill:none;stroke:#000000;stroke-width:2px " 
		x="210mm"
		y="38.5mm"
		width="3mm"
		height="6mm"
		id="oomID2651"
	/>
	<rect
		style="fill:none;stroke:#000000;stroke-width:2px " 
		x="210mm"
		y="18.5mm"
		width="3mm"
		height="6mm"
		id="oomID2652"
	/>
	<rect
		style="fill:none;stroke:#000000;stroke-width:2px " 
		x="230mm"
		y="98.5mm"
		width="3mm"
		height="6mm"
		id="oomID2653"
	/>
	<rect
		style="fill:none;stroke:#000000;stroke-width:2px " 
		x="230mm"
		y="78.5mm"
		width="3mm"
		height="6mm"
		id="oomID2654"
	/>
	<rect
		style="fill:none;stroke:#000000;stroke-width:2px " 
		x="230mm"
		y="58.5mm"
		width="3mm"
		height="6mm"
		id="oomID2655"
	/>
	<rect
		style="fill:none;stroke:#000000;stroke-width:2px " 
		x="230mm"
		y="38.5mm"
		width="3mm"
		height="6mm"
		id="oomID2656"
	/>
	<rect
		style="fill:none;stroke:#000000;stroke-width:2px " 
		x="230mm"
		y="18.5mm"
		width="3mm"
		height="6mm"
		id="oomID2657"
	/>
	<rect
		style="fill:none;stroke:#000000;stroke-width:2px " 
		x="250mm"
		y="98.5mm"
		width="3mm"
		height="6mm"
		id="oomID2658"
	/>
	<rect
		style="fill:none;stroke:#000000;stroke-width:2px " 
		x="250mm"
		y="78.5mm"
		width="3mm"
		height="6mm"
		id="oomID2659"
	/>
	<rect
		style="fill:none;stroke:#000000;stroke-width:2px " 
		x="250mm"
		y="58.5mm"
		width="3mm"
		height="6mm"
		id="oomID2660"
	/>
	<rect
		style="fill:none;stroke:#000000;stroke-width:2px " 
		x="250mm"
		y="38.5mm"
		width="3mm"
		height="6mm"
		id="oomID2661"
	/>
	<rect
		style="fill:none;stroke:#000000;stroke-width:2px " 
		x="250mm"
		y="18.5mm"
		width="3mm"
		height="6mm"
		id="oomID2662"
	/>
	<rect
		style="fill:none;stroke:#000000;stroke-width:2px " 
		x="270mm"
		y="98.5mm"
		width="3mm"
		height="6mm"
		id="oomID2663"
	/>
	<rect
		style="fill:none;stroke:#000000;stroke-width:2px " 
		x="270mm"
		y="78.5mm"
		width="3mm"
		height="6mm"
		id="oomID2664"
	/>
	<rect
		style="fill:none;stroke:#000000;stroke-width:2px " 
		x="270mm"
		y="58.5mm"
		width="3mm"
		height="6mm"
		id="oomID2665"
	/>
	<rect
		style="fill:none;stroke:#000000;stroke-width:2px " 
		x="270mm"
		y="38.5mm"
		width="3mm"
		height="6mm"
		id="oomID2666"
	/>
	<rect
		style="fill:none;stroke:#000000;stroke-width:2px " 
		x="270mm"
		y="18.5mm"
		width="3mm"
		height="6mm"
		id="oomID2667"
	/>
	<rect
		style="fill:none;stroke:#000000;stroke-width:2px " 
		x="290mm"
		y="98.5mm"
		width="3mm"
		height="6mm"
		id="oomID2668"
	/>
	<rect
		style="fill:none;stroke:#000000;stroke-width:2px " 
		x="290mm"
		y="78.5mm"
		width="3mm"
		height="6mm"
		id="oomID2669"
	/>
	<rect
		style="fill:none;stroke:#000000;stroke-width:2px " 
		x="290mm"
		y="58.5mm"
		width="3mm"
		height="6mm"
		id="oomID2670"
	/>
	<rect
		style="fill:none;stroke:#000000;stroke-width:2px " 
		x="290mm"
		y="38.5mm"
		width="3mm"
		height="6mm"
		id="oomID2671"
	/>
	<rect
		style="fill:none;stroke:#000000;stroke-width:2px " 
		x="290mm"
		y="18.5mm"
		width="3mm"
		height="6mm"
		id="oomID2672"
	/>
	<rect
		style="fill:none;stroke:#000000;stroke-width:2px " 
		x="310mm"
		y="98.5mm"
		width="3mm"
		height="6mm"
		id="oomID2673"
	/>
	<rect
		style="fill:none;stroke:#000000;stroke-width:2px " 
		x="310mm"
		y="78.5mm"
		width="3mm"
		height="6mm"
		id="oomID2674"
	/>
	<rect
		style="fill:none;stroke:#000000;stroke-width:2px " 
		x="310mm"
		y="58.5mm"
		width="3mm"
		height="6mm"
		id="oomID2675"
	/>
	<rect
		style="fill:none;stroke:#000000;stroke-width:2px " 
		x="310mm"
		y="38.5mm"
		width="3mm"
		height="6mm"
		id="oomID2676"
	/>
	<rect
		style="fill:none;stroke:#000000;stroke-width:2px " 
		x="310mm"
		y="18.5mm"
		width="3mm"
		height="6mm"
		id="oomID2677"
	/>
	<rect
		style="fill:none;stroke:#000000;stroke-width:2px " 
		x="18.5mm"
		y="110mm"
		width="6mm"
		height="3mm"
		id="oomID2678"
	/>
	<rect
		style="fill:none;stroke:#000000;stroke-width:2px " 
		x="18.5mm"
		y="90mm"
		width="6mm"
		height="3mm"
		id="oomID2679"
	/>
	<rect
		style="fill:none;stroke:#000000;stroke-width:2px " 
		x="18.5mm"
		y="70mm"
		width="6mm"
		height="3mm"
		id="oomID2680"
	/>
	<rect
		style="fill:none;stroke:#000000;stroke-width:2px " 
		x="18.5mm"
		y="50mm"
		width="6mm"
		height="3mm"
		id="oomID2681"
	/>
	<rect
		style="fill:none;stroke:#000000;stroke-width:2px " 
		x="18.5mm"
		y="30mm"
		width="6mm"
		height="3mm"
		id="oomID2682"
	/>
	<rect
		style="fill:none;stroke:#000000;stroke-width:2px " 
		x="18.5mm"
		y="10mm"
		width="6mm"
		height="3mm"
		id="oomID2683"
	/>
	<rect
		style="fill:none;stroke:#000000;stroke-width:2px " 
		x="38.5mm"
		y="110mm"
		width="6mm"
		height="3mm"
		id="oomID2684"
	/>
	<rect
		style="fill:none;stroke:#000000;stroke-width:2px " 
		x="38.5mm"
		y="90mm"
		width="6mm"
		height="3mm"
		id="oomID2685"
	/>
	<rect
		style="fill:none;stroke:#000000;stroke-width:2px " 
		x="38.5mm"
		y="70mm"
		width="6mm"
		height="3mm"
		id="oomID2686"
	/>
	<rect
		style="fill:none;stroke:#000000;stroke-width:2px " 
		x="38.5mm"
		y="50mm"
		width="6mm"
		height="3mm"
		id="oomID2687"
	/>
	<rect
		style="fill:none;stroke:#000000;stroke-width:2px " 
		x="38.5mm"
		y="30mm"
		width="6mm"
		height="3mm"
		id="oomID2688"
	/>
	<rect
		style="fill:none;stroke:#000000;stroke-width:2px " 
		x="38.5mm"
		y="10mm"
		width="6mm"
		height="3mm"
		id="oomID2689"
	/>
	<rect
		style="fill:none;stroke:#000000;stroke-width:2px " 
		x="58.5mm"
		y="110mm"
		width="6mm"
		height="3mm"
		id="oomID2690"
	/>
	<rect
		style="fill:none;stroke:#000000;stroke-width:2px " 
		x="58.5mm"
		y="90mm"
		width="6mm"
		height="3mm"
		id="oomID2691"
	/>
	<rect
		style="fill:none;stroke:#000000;stroke-width:2px " 
		x="58.5mm"
		y="70mm"
		width="6mm"
		height="3mm"
		id="oomID2692"
	/>
	<rect
		style="fill:none;stroke:#000000;stroke-width:2px " 
		x="58.5mm"
		y="50mm"
		width="6mm"
		height="3mm"
		id="oomID2693"
	/>
	<rect
		style="fill:none;stroke:#000000;stroke-width:2px " 
		x="58.5mm"
		y="30mm"
		width="6mm"
		height="3mm"
		id="oomID2694"
	/>
	<rect
		style="fill:none;stroke:#000000;stroke-width:2px " 
		x="58.5mm"
		y="10mm"
		width="6mm"
		height="3mm"
		id="oomID2695"
	/>
	<rect
		style="fill:none;stroke:#000000;stroke-width:2px " 
		x="78.5mm"
		y="110mm"
		width="6mm"
		height="3mm"
		id="oomID2696"
	/>
	<rect
		style="fill:none;stroke:#000000;stroke-width:2px " 
		x="78.5mm"
		y="90mm"
		width="6mm"
		height="3mm"
		id="oomID2697"
	/>
	<rect
		style="fill:none;stroke:#000000;stroke-width:2px " 
		x="78.5mm"
		y="70mm"
		width="6mm"
		height="3mm"
		id="oomID2698"
	/>
	<rect
		style="fill:none;stroke:#000000;stroke-width:2px " 
		x="78.5mm"
		y="50mm"
		width="6mm"
		height="3mm"
		id="oomID2699"
	/>
	<rect
		style="fill:none;stroke:#000000;stroke-width:2px " 
		x="78.5mm"
		y="30mm"
		width="6mm"
		height="3mm"
		id="oomID2700"
	/>
	<rect
		style="fill:none;stroke:#000000;stroke-width:2px " 
		x="78.5mm"
		y="10mm"
		width="6mm"
		height="3mm"
		id="oomID2701"
	/>
	<rect
		style="fill:none;stroke:#000000;stroke-width:2px " 
		x="98.5mm"
		y="110mm"
		width="6mm"
		height="3mm"
		id="oomID2702"
	/>
	<rect
		style="fill:none;stroke:#000000;stroke-width:2px " 
		x="98.5mm"
		y="90mm"
		width="6mm"
		height="3mm"
		id="oomID2703"
	/>
	<rect
		style="fill:none;stroke:#000000;stroke-width:2px " 
		x="98.5mm"
		y="70mm"
		width="6mm"
		height="3mm"
		id="oomID2704"
	/>
	<rect
		style="fill:none;stroke:#000000;stroke-width:2px " 
		x="98.5mm"
		y="50mm"
		width="6mm"
		height="3mm"
		id="oomID2705"
	/>
	<rect
		style="fill:none;stroke:#000000;stroke-width:2px " 
		x="98.5mm"
		y="30mm"
		width="6mm"
		height="3mm"
		id="oomID2706"
	/>
	<rect
		style="fill:none;stroke:#000000;stroke-width:2px " 
		x="98.5mm"
		y="10mm"
		width="6mm"
		height="3mm"
		id="oomID2707"
	/>
	<rect
		style="fill:none;stroke:#000000;stroke-width:2px " 
		x="118.5mm"
		y="110mm"
		width="6mm"
		height="3mm"
		id="oomID2708"
	/>
	<rect
		style="fill:none;stroke:#000000;stroke-width:2px " 
		x="118.5mm"
		y="90mm"
		width="6mm"
		height="3mm"
		id="oomID2709"
	/>
	<rect
		style="fill:none;stroke:#000000;stroke-width:2px " 
		x="118.5mm"
		y="70mm"
		width="6mm"
		height="3mm"
		id="oomID2710"
	/>
	<rect
		style="fill:none;stroke:#000000;stroke-width:2px " 
		x="118.5mm"
		y="50mm"
		width="6mm"
		height="3mm"
		id="oomID2711"
	/>
	<rect
		style="fill:none;stroke:#000000;stroke-width:2px " 
		x="118.5mm"
		y="30mm"
		width="6mm"
		height="3mm"
		id="oomID2712"
	/>
	<rect
		style="fill:none;stroke:#000000;stroke-width:2px " 
		x="118.5mm"
		y="10mm"
		width="6mm"
		height="3mm"
		id="oomID2713"
	/>
	<rect
		style="fill:none;stroke:#000000;stroke-width:2px " 
		x="138.5mm"
		y="110mm"
		width="6mm"
		height="3mm"
		id="oomID2714"
	/>
	<rect
		style="fill:none;stroke:#000000;stroke-width:2px " 
		x="138.5mm"
		y="90mm"
		width="6mm"
		height="3mm"
		id="oomID2715"
	/>
	<rect
		style="fill:none;stroke:#000000;stroke-width:2px " 
		x="138.5mm"
		y="70mm"
		width="6mm"
		height="3mm"
		id="oomID2716"
	/>
	<rect
		style="fill:none;stroke:#000000;stroke-width:2px " 
		x="138.5mm"
		y="50mm"
		width="6mm"
		height="3mm"
		id="oomID2717"
	/>
	<rect
		style="fill:none;stroke:#000000;stroke-width:2px " 
		x="138.5mm"
		y="30mm"
		width="6mm"
		height="3mm"
		id="oomID2718"
	/>
	<rect
		style="fill:none;stroke:#000000;stroke-width:2px " 
		x="138.5mm"
		y="10mm"
		width="6mm"
		height="3mm"
		id="oomID2719"
	/>
	<rect
		style="fill:none;stroke:#000000;stroke-width:2px " 
		x="158.5mm"
		y="110mm"
		width="6mm"
		height="3mm"
		id="oomID2720"
	/>
	<rect
		style="fill:none;stroke:#000000;stroke-width:2px " 
		x="158.5mm"
		y="90mm"
		width="6mm"
		height="3mm"
		id="oomID2721"
	/>
	<rect
		style="fill:none;stroke:#000000;stroke-width:2px " 
		x="158.5mm"
		y="70mm"
		width="6mm"
		height="3mm"
		id="oomID2722"
	/>
	<rect
		style="fill:none;stroke:#000000;stroke-width:2px " 
		x="158.5mm"
		y="50mm"
		width="6mm"
		height="3mm"
		id="oomID2723"
	/>
	<rect
		style="fill:none;stroke:#000000;stroke-width:2px " 
		x="158.5mm"
		y="30mm"
		width="6mm"
		height="3mm"
		id="oomID2724"
	/>
	<rect
		style="fill:none;stroke:#000000;stroke-width:2px " 
		x="158.5mm"
		y="10mm"
		width="6mm"
		height="3mm"
		id="oomID2725"
	/>
	<rect
		style="fill:none;stroke:#000000;stroke-width:2px " 
		x="178.5mm"
		y="110mm"
		width="6mm"
		height="3mm"
		id="oomID2726"
	/>
	<rect
		style="fill:none;stroke:#000000;stroke-width:2px " 
		x="178.5mm"
		y="90mm"
		width="6mm"
		height="3mm"
		id="oomID2727"
	/>
	<rect
		style="fill:none;stroke:#000000;stroke-width:2px " 
		x="178.5mm"
		y="70mm"
		width="6mm"
		height="3mm"
		id="oomID2728"
	/>
	<rect
		style="fill:none;stroke:#000000;stroke-width:2px " 
		x="178.5mm"
		y="50mm"
		width="6mm"
		height="3mm"
		id="oomID2729"
	/>
	<rect
		style="fill:none;stroke:#000000;stroke-width:2px " 
		x="178.5mm"
		y="30mm"
		width="6mm"
		height="3mm"
		id="oomID2730"
	/>
	<rect
		style="fill:none;stroke:#000000;stroke-width:2px " 
		x="178.5mm"
		y="10mm"
		width="6mm"
		height="3mm"
		id="oomID2731"
	/>
	<rect
		style="fill:none;stroke:#000000;stroke-width:2px " 
		x="198.5mm"
		y="110mm"
		width="6mm"
		height="3mm"
		id="oomID2732"
	/>
	<rect
		style="fill:none;stroke:#000000;stroke-width:2px " 
		x="198.5mm"
		y="90mm"
		width="6mm"
		height="3mm"
		id="oomID2733"
	/>
	<rect
		style="fill:none;stroke:#000000;stroke-width:2px " 
		x="198.5mm"
		y="70mm"
		width="6mm"
		height="3mm"
		id="oomID2734"
	/>
	<rect
		style="fill:none;stroke:#000000;stroke-width:2px " 
		x="198.5mm"
		y="50mm"
		width="6mm"
		height="3mm"
		id="oomID2735"
	/>
	<rect
		style="fill:none;stroke:#000000;stroke-width:2px " 
		x="198.5mm"
		y="30mm"
		width="6mm"
		height="3mm"
		id="oomID2736"
	/>
	<rect
		style="fill:none;stroke:#000000;stroke-width:2px " 
		x="198.5mm"
		y="10mm"
		width="6mm"
		height="3mm"
		id="oomID2737"
	/>
	<rect
		style="fill:none;stroke:#000000;stroke-width:2px " 
		x="218.5mm"
		y="110mm"
		width="6mm"
		height="3mm"
		id="oomID2738"
	/>
	<rect
		style="fill:none;stroke:#000000;stroke-width:2px " 
		x="218.5mm"
		y="90mm"
		width="6mm"
		height="3mm"
		id="oomID2739"
	/>
	<rect
		style="fill:none;stroke:#000000;stroke-width:2px " 
		x="218.5mm"
		y="70mm"
		width="6mm"
		height="3mm"
		id="oomID2740"
	/>
	<rect
		style="fill:none;stroke:#000000;stroke-width:2px " 
		x="218.5mm"
		y="50mm"
		width="6mm"
		height="3mm"
		id="oomID2741"
	/>
	<rect
		style="fill:none;stroke:#000000;stroke-width:2px " 
		x="218.5mm"
		y="30mm"
		width="6mm"
		height="3mm"
		id="oomID2742"
	/>
	<rect
		style="fill:none;stroke:#000000;stroke-width:2px " 
		x="218.5mm"
		y="10mm"
		width="6mm"
		height="3mm"
		id="oomID2743"
	/>
	<rect
		style="fill:none;stroke:#000000;stroke-width:2px " 
		x="238.5mm"
		y="110mm"
		width="6mm"
		height="3mm"
		id="oomID2744"
	/>
	<rect
		style="fill:none;stroke:#000000;stroke-width:2px " 
		x="238.5mm"
		y="90mm"
		width="6mm"
		height="3mm"
		id="oomID2745"
	/>
	<rect
		style="fill:none;stroke:#000000;stroke-width:2px " 
		x="238.5mm"
		y="70mm"
		width="6mm"
		height="3mm"
		id="oomID2746"
	/>
	<rect
		style="fill:none;stroke:#000000;stroke-width:2px " 
		x="238.5mm"
		y="50mm"
		width="6mm"
		height="3mm"
		id="oomID2747"
	/>
	<rect
		style="fill:none;stroke:#000000;stroke-width:2px " 
		x="238.5mm"
		y="30mm"
		width="6mm"
		height="3mm"
		id="oomID2748"
	/>
	<rect
		style="fill:none;stroke:#000000;stroke-width:2px " 
		x="238.5mm"
		y="10mm"
		width="6mm"
		height="3mm"
		id="oomID2749"
	/>
	<rect
		style="fill:none;stroke:#000000;stroke-width:2px " 
		x="258.5mm"
		y="110mm"
		width="6mm"
		height="3mm"
		id="oomID2750"
	/>
	<rect
		style="fill:none;stroke:#000000;stroke-width:2px " 
		x="258.5mm"
		y="90mm"
		width="6mm"
		height="3mm"
		id="oomID2751"
	/>
	<rect
		style="fill:none;stroke:#000000;stroke-width:2px " 
		x="258.5mm"
		y="70mm"
		width="6mm"
		height="3mm"
		id="oomID2752"
	/>
	<rect
		style="fill:none;stroke:#000000;stroke-width:2px " 
		x="258.5mm"
		y="50mm"
		width="6mm"
		height="3mm"
		id="oomID2753"
	/>
	<rect
		style="fill:none;stroke:#000000;stroke-width:2px " 
		x="258.5mm"
		y="30mm"
		width="6mm"
		height="3mm"
		id="oomID2754"
	/>
	<rect
		style="fill:none;stroke:#000000;stroke-width:2px " 
		x="258.5mm"
		y="10mm"
		width="6mm"
		height="3mm"
		id="oomID2755"
	/>
	<rect
		style="fill:none;stroke:#000000;stroke-width:2px " 
		x="278.5mm"
		y="110mm"
		width="6mm"
		height="3mm"
		id="oomID2756"
	/>
	<rect
		style="fill:none;stroke:#000000;stroke-width:2px " 
		x="278.5mm"
		y="90mm"
		width="6mm"
		height="3mm"
		id="oomID2757"
	/>
	<rect
		style="fill:none;stroke:#000000;stroke-width:2px " 
		x="278.5mm"
		y="70mm"
		width="6mm"
		height="3mm"
		id="oomID2758"
	/>
	<rect
		style="fill:none;stroke:#000000;stroke-width:2px " 
		x="278.5mm"
		y="50mm"
		width="6mm"
		height="3mm"
		id="oomID2759"
	/>
	<rect
		style="fill:none;stroke:#000000;stroke-width:2px " 
		x="278.5mm"
		y="30mm"
		width="6mm"
		height="3mm"
		id="oomID2760"
	/>
	<rect
		style="fill:none;stroke:#000000;stroke-width:2px " 
		x="278.5mm"
		y="10mm"
		width="6mm"
		height="3mm"
		id="oomID2761"
	/>
	<rect
		style="fill:none;stroke:#000000;stroke-width:2px " 
		x="298.5mm"
		y="110mm"
		width="6mm"
		height="3mm"
		id="oomID2762"
	/>
	<rect
		style="fill:none;stroke:#000000;stroke-width:2px " 
		x="298.5mm"
		y="90mm"
		width="6mm"
		height="3mm"
		id="oomID2763"
	/>
	<rect
		style="fill:none;stroke:#000000;stroke-width:2px " 
		x="298.5mm"
		y="70mm"
		width="6mm"
		height="3mm"
		id="oomID2764"
	/>
	<rect
		style="fill:none;stroke:#000000;stroke-width:2px " 
		x="298.5mm"
		y="50mm"
		width="6mm"
		height="3mm"
		id="oomID2765"
	/>
	<rect
		style="fill:none;stroke:#000000;stroke-width:2px " 
		x="298.5mm"
		y="30mm"
		width="6mm"
		height="3mm"
		id="oomID2766"
	/>
	<rect
		style="fill:none;stroke:#000000;stroke-width:2px " 
		x="298.5mm"
		y="10mm"
		width="6mm"
		height="3mm"
		id="oomID2767"
	/>
	<text x="21.5mm" y="101.5mm"
	style="text-anchor: middle; text-align: center; font-family: ENG_HelvLine; -inkscape-font-specification: ENG_HelvLine; font-size: 12pt; fill:none; font-style:normal;font-weight:normal;line-height:100%;letter-spacing:0px;word-spacing:0px;fill-opacity:1;stroke:#FFA500"
	><tspan sodipodi:role="line">PL</tspan><tspan sodipodi:role="line">16-06</tspan></text>
</svg>
