<svg
xmlns:dc="http://purl.org/dc/elements/1.1/"
xmlns:cc="http://creativecommons.org/ns#"
xmlns:rdf="http://www.w3.org/1999/02/22-rdf-syntax-ns#"
xmlns:svg="http://www.w3.org/2000/svg"
xmlns="http://www.w3.org/2000/svg"
xmlns:xlink="http://www.w3.org/1999/xlink"
xmlns:sodipodi="http://sodipodi.sourceforge.net/DTD/sodipodi-0.dtd"
xmlns:inkscape="http://www.inkscape.org/namespaces/inkscape"
width="283mm"
height="103mm"
id="svg2"
version="1.1"
inkscape:version="0.48.1 "
sodipodi:docname="MultiLineTextINK.svg">
	<rect
		style="fill:none;stroke:#000000;stroke-width:2px " 
		x="5mm"
		y="5mm"
		rx="5mm"
		ry="5mm"
		width="273mm"
		height="93mm"
	/>
	<circle
		style="fill:none;stroke:#000000;stroke-width:2px " 
		cx="11.5mm"
		cy="91.5mm"
		r="3mm"
		id="oomID19872"
	/>
	<circle
		style="fill:none;stroke:#000000;stroke-width:2px " 
		cx="11.5mm"
		cy="71.5mm"
		r="3mm"
		id="oomID19873"
	/>
	<circle
		style="fill:none;stroke:#000000;stroke-width:2px " 
		cx="11.5mm"
		cy="51.5mm"
		r="3mm"
		id="oomID19874"
	/>
	<circle
		style="fill:none;stroke:#000000;stroke-width:2px " 
		cx="11.5mm"
		cy="31.5mm"
		r="3mm"
		id="oomID19875"
	/>
	<circle
		style="fill:none;stroke:#000000;stroke-width:2px " 
		cx="11.5mm"
		cy="11.5mm"
		r="3mm"
		id="oomID19876"
	/>
	<circle
		style="fill:none;stroke:#000000;stroke-width:2px " 
		cx="31.5mm"
		cy="91.5mm"
		r="3mm"
		id="oomID19877"
	/>
	<circle
		style="fill:none;stroke:#000000;stroke-width:2px " 
		cx="31.5mm"
		cy="71.5mm"
		r="3mm"
		id="oomID19878"
	/>
	<circle
		style="fill:none;stroke:#000000;stroke-width:2px " 
		cx="31.5mm"
		cy="51.5mm"
		r="3mm"
		id="oomID19879"
	/>
	<circle
		style="fill:none;stroke:#000000;stroke-width:2px " 
		cx="31.5mm"
		cy="31.5mm"
		r="3mm"
		id="oomID19880"
	/>
	<circle
		style="fill:none;stroke:#000000;stroke-width:2px " 
		cx="31.5mm"
		cy="11.5mm"
		r="3mm"
		id="oomID19881"
	/>
	<circle
		style="fill:none;stroke:#000000;stroke-width:2px " 
		cx="51.5mm"
		cy="91.5mm"
		r="3mm"
		id="oomID19882"
	/>
	<circle
		style="fill:none;stroke:#000000;stroke-width:2px " 
		cx="51.5mm"
		cy="71.5mm"
		r="3mm"
		id="oomID19883"
	/>
	<circle
		style="fill:none;stroke:#000000;stroke-width:2px " 
		cx="51.5mm"
		cy="51.5mm"
		r="3mm"
		id="oomID19884"
	/>
	<circle
		style="fill:none;stroke:#000000;stroke-width:2px " 
		cx="51.5mm"
		cy="31.5mm"
		r="3mm"
		id="oomID19885"
	/>
	<circle
		style="fill:none;stroke:#000000;stroke-width:2px " 
		cx="51.5mm"
		cy="11.5mm"
		r="3mm"
		id="oomID19886"
	/>
	<circle
		style="fill:none;stroke:#000000;stroke-width:2px " 
		cx="71.5mm"
		cy="91.5mm"
		r="3mm"
		id="oomID19887"
	/>
	<circle
		style="fill:none;stroke:#000000;stroke-width:2px " 
		cx="71.5mm"
		cy="71.5mm"
		r="3mm"
		id="oomID19888"
	/>
	<circle
		style="fill:none;stroke:#000000;stroke-width:2px " 
		cx="71.5mm"
		cy="51.5mm"
		r="3mm"
		id="oomID19889"
	/>
	<circle
		style="fill:none;stroke:#000000;stroke-width:2px " 
		cx="71.5mm"
		cy="31.5mm"
		r="3mm"
		id="oomID19890"
	/>
	<circle
		style="fill:none;stroke:#000000;stroke-width:2px " 
		cx="71.5mm"
		cy="11.5mm"
		r="3mm"
		id="oomID19891"
	/>
	<circle
		style="fill:none;stroke:#000000;stroke-width:2px " 
		cx="91.5mm"
		cy="91.5mm"
		r="3mm"
		id="oomID19892"
	/>
	<circle
		style="fill:none;stroke:#000000;stroke-width:2px " 
		cx="91.5mm"
		cy="71.5mm"
		r="3mm"
		id="oomID19893"
	/>
	<circle
		style="fill:none;stroke:#000000;stroke-width:2px " 
		cx="91.5mm"
		cy="51.5mm"
		r="3mm"
		id="oomID19894"
	/>
	<circle
		style="fill:none;stroke:#000000;stroke-width:2px " 
		cx="91.5mm"
		cy="31.5mm"
		r="3mm"
		id="oomID19895"
	/>
	<circle
		style="fill:none;stroke:#000000;stroke-width:2px " 
		cx="91.5mm"
		cy="11.5mm"
		r="3mm"
		id="oomID19896"
	/>
	<circle
		style="fill:none;stroke:#000000;stroke-width:2px " 
		cx="111.5mm"
		cy="91.5mm"
		r="3mm"
		id="oomID19897"
	/>
	<circle
		style="fill:none;stroke:#000000;stroke-width:2px " 
		cx="111.5mm"
		cy="71.5mm"
		r="3mm"
		id="oomID19898"
	/>
	<circle
		style="fill:none;stroke:#000000;stroke-width:2px " 
		cx="111.5mm"
		cy="51.5mm"
		r="3mm"
		id="oomID19899"
	/>
	<circle
		style="fill:none;stroke:#000000;stroke-width:2px " 
		cx="111.5mm"
		cy="31.5mm"
		r="3mm"
		id="oomID19900"
	/>
	<circle
		style="fill:none;stroke:#000000;stroke-width:2px " 
		cx="111.5mm"
		cy="11.5mm"
		r="3mm"
		id="oomID19901"
	/>
	<circle
		style="fill:none;stroke:#000000;stroke-width:2px " 
		cx="131.5mm"
		cy="91.5mm"
		r="3mm"
		id="oomID19902"
	/>
	<circle
		style="fill:none;stroke:#000000;stroke-width:2px " 
		cx="131.5mm"
		cy="71.5mm"
		r="3mm"
		id="oomID19903"
	/>
	<circle
		style="fill:none;stroke:#000000;stroke-width:2px " 
		cx="131.5mm"
		cy="51.5mm"
		r="3mm"
		id="oomID19904"
	/>
	<circle
		style="fill:none;stroke:#000000;stroke-width:2px " 
		cx="131.5mm"
		cy="31.5mm"
		r="3mm"
		id="oomID19905"
	/>
	<circle
		style="fill:none;stroke:#000000;stroke-width:2px " 
		cx="131.5mm"
		cy="11.5mm"
		r="3mm"
		id="oomID19906"
	/>
	<circle
		style="fill:none;stroke:#000000;stroke-width:2px " 
		cx="151.5mm"
		cy="91.5mm"
		r="3mm"
		id="oomID19907"
	/>
	<circle
		style="fill:none;stroke:#000000;stroke-width:2px " 
		cx="151.5mm"
		cy="71.5mm"
		r="3mm"
		id="oomID19908"
	/>
	<circle
		style="fill:none;stroke:#000000;stroke-width:2px " 
		cx="151.5mm"
		cy="51.5mm"
		r="3mm"
		id="oomID19909"
	/>
	<circle
		style="fill:none;stroke:#000000;stroke-width:2px " 
		cx="151.5mm"
		cy="31.5mm"
		r="3mm"
		id="oomID19910"
	/>
	<circle
		style="fill:none;stroke:#000000;stroke-width:2px " 
		cx="151.5mm"
		cy="11.5mm"
		r="3mm"
		id="oomID19911"
	/>
	<circle
		style="fill:none;stroke:#000000;stroke-width:2px " 
		cx="171.5mm"
		cy="91.5mm"
		r="3mm"
		id="oomID19912"
	/>
	<circle
		style="fill:none;stroke:#000000;stroke-width:2px " 
		cx="171.5mm"
		cy="71.5mm"
		r="3mm"
		id="oomID19913"
	/>
	<circle
		style="fill:none;stroke:#000000;stroke-width:2px " 
		cx="171.5mm"
		cy="51.5mm"
		r="3mm"
		id="oomID19914"
	/>
	<circle
		style="fill:none;stroke:#000000;stroke-width:2px " 
		cx="171.5mm"
		cy="31.5mm"
		r="3mm"
		id="oomID19915"
	/>
	<circle
		style="fill:none;stroke:#000000;stroke-width:2px " 
		cx="171.5mm"
		cy="11.5mm"
		r="3mm"
		id="oomID19916"
	/>
	<circle
		style="fill:none;stroke:#000000;stroke-width:2px " 
		cx="191.5mm"
		cy="91.5mm"
		r="3mm"
		id="oomID19917"
	/>
	<circle
		style="fill:none;stroke:#000000;stroke-width:2px " 
		cx="191.5mm"
		cy="71.5mm"
		r="3mm"
		id="oomID19918"
	/>
	<circle
		style="fill:none;stroke:#000000;stroke-width:2px " 
		cx="191.5mm"
		cy="51.5mm"
		r="3mm"
		id="oomID19919"
	/>
	<circle
		style="fill:none;stroke:#000000;stroke-width:2px " 
		cx="191.5mm"
		cy="31.5mm"
		r="3mm"
		id="oomID19920"
	/>
	<circle
		style="fill:none;stroke:#000000;stroke-width:2px " 
		cx="191.5mm"
		cy="11.5mm"
		r="3mm"
		id="oomID19921"
	/>
	<circle
		style="fill:none;stroke:#000000;stroke-width:2px " 
		cx="211.5mm"
		cy="91.5mm"
		r="3mm"
		id="oomID19922"
	/>
	<circle
		style="fill:none;stroke:#000000;stroke-width:2px " 
		cx="211.5mm"
		cy="71.5mm"
		r="3mm"
		id="oomID19923"
	/>
	<circle
		style="fill:none;stroke:#000000;stroke-width:2px " 
		cx="211.5mm"
		cy="51.5mm"
		r="3mm"
		id="oomID19924"
	/>
	<circle
		style="fill:none;stroke:#000000;stroke-width:2px " 
		cx="211.5mm"
		cy="31.5mm"
		r="3mm"
		id="oomID19925"
	/>
	<circle
		style="fill:none;stroke:#000000;stroke-width:2px " 
		cx="211.5mm"
		cy="11.5mm"
		r="3mm"
		id="oomID19926"
	/>
	<circle
		style="fill:none;stroke:#000000;stroke-width:2px " 
		cx="231.5mm"
		cy="91.5mm"
		r="3mm"
		id="oomID19927"
	/>
	<circle
		style="fill:none;stroke:#000000;stroke-width:2px " 
		cx="231.5mm"
		cy="71.5mm"
		r="3mm"
		id="oomID19928"
	/>
	<circle
		style="fill:none;stroke:#000000;stroke-width:2px " 
		cx="231.5mm"
		cy="51.5mm"
		r="3mm"
		id="oomID19929"
	/>
	<circle
		style="fill:none;stroke:#000000;stroke-width:2px " 
		cx="231.5mm"
		cy="31.5mm"
		r="3mm"
		id="oomID19930"
	/>
	<circle
		style="fill:none;stroke:#000000;stroke-width:2px " 
		cx="231.5mm"
		cy="11.5mm"
		r="3mm"
		id="oomID19931"
	/>
	<circle
		style="fill:none;stroke:#000000;stroke-width:2px " 
		cx="251.5mm"
		cy="91.5mm"
		r="3mm"
		id="oomID19932"
	/>
	<circle
		style="fill:none;stroke:#000000;stroke-width:2px " 
		cx="251.5mm"
		cy="71.5mm"
		r="3mm"
		id="oomID19933"
	/>
	<circle
		style="fill:none;stroke:#000000;stroke-width:2px " 
		cx="251.5mm"
		cy="51.5mm"
		r="3mm"
		id="oomID19934"
	/>
	<circle
		style="fill:none;stroke:#000000;stroke-width:2px " 
		cx="251.5mm"
		cy="31.5mm"
		r="3mm"
		id="oomID19935"
	/>
	<circle
		style="fill:none;stroke:#000000;stroke-width:2px " 
		cx="251.5mm"
		cy="11.5mm"
		r="3mm"
		id="oomID19936"
	/>
	<circle
		style="fill:none;stroke:#000000;stroke-width:2px " 
		cx="271.5mm"
		cy="91.5mm"
		r="3mm"
		id="oomID19937"
	/>
	<circle
		style="fill:none;stroke:#000000;stroke-width:2px " 
		cx="271.5mm"
		cy="71.5mm"
		r="3mm"
		id="oomID19938"
	/>
	<circle
		style="fill:none;stroke:#000000;stroke-width:2px " 
		cx="271.5mm"
		cy="51.5mm"
		r="3mm"
		id="oomID19939"
	/>
	<circle
		style="fill:none;stroke:#000000;stroke-width:2px " 
		cx="271.5mm"
		cy="31.5mm"
		r="3mm"
		id="oomID19940"
	/>
	<circle
		style="fill:none;stroke:#000000;stroke-width:2px " 
		cx="271.5mm"
		cy="11.5mm"
		r="3mm"
		id="oomID19941"
	/>
	<rect
		style="fill:none;stroke:#000000;stroke-width:2px " 
		x="10mm"
		y="78.5mm"
		width="3mm"
		height="6mm"
		id="oomID19942"
	/>
	<rect
		style="fill:none;stroke:#000000;stroke-width:2px " 
		x="10mm"
		y="58.5mm"
		width="3mm"
		height="6mm"
		id="oomID19943"
	/>
	<rect
		style="fill:none;stroke:#000000;stroke-width:2px " 
		x="10mm"
		y="38.5mm"
		width="3mm"
		height="6mm"
		id="oomID19944"
	/>
	<rect
		style="fill:none;stroke:#000000;stroke-width:2px " 
		x="10mm"
		y="18.5mm"
		width="3mm"
		height="6mm"
		id="oomID19945"
	/>
	<rect
		style="fill:none;stroke:#000000;stroke-width:2px " 
		x="30mm"
		y="78.5mm"
		width="3mm"
		height="6mm"
		id="oomID19946"
	/>
	<rect
		style="fill:none;stroke:#000000;stroke-width:2px " 
		x="30mm"
		y="58.5mm"
		width="3mm"
		height="6mm"
		id="oomID19947"
	/>
	<rect
		style="fill:none;stroke:#000000;stroke-width:2px " 
		x="30mm"
		y="38.5mm"
		width="3mm"
		height="6mm"
		id="oomID19948"
	/>
	<rect
		style="fill:none;stroke:#000000;stroke-width:2px " 
		x="30mm"
		y="18.5mm"
		width="3mm"
		height="6mm"
		id="oomID19949"
	/>
	<rect
		style="fill:none;stroke:#000000;stroke-width:2px " 
		x="50mm"
		y="78.5mm"
		width="3mm"
		height="6mm"
		id="oomID19950"
	/>
	<rect
		style="fill:none;stroke:#000000;stroke-width:2px " 
		x="50mm"
		y="58.5mm"
		width="3mm"
		height="6mm"
		id="oomID19951"
	/>
	<rect
		style="fill:none;stroke:#000000;stroke-width:2px " 
		x="50mm"
		y="38.5mm"
		width="3mm"
		height="6mm"
		id="oomID19952"
	/>
	<rect
		style="fill:none;stroke:#000000;stroke-width:2px " 
		x="50mm"
		y="18.5mm"
		width="3mm"
		height="6mm"
		id="oomID19953"
	/>
	<rect
		style="fill:none;stroke:#000000;stroke-width:2px " 
		x="70mm"
		y="78.5mm"
		width="3mm"
		height="6mm"
		id="oomID19954"
	/>
	<rect
		style="fill:none;stroke:#000000;stroke-width:2px " 
		x="70mm"
		y="58.5mm"
		width="3mm"
		height="6mm"
		id="oomID19955"
	/>
	<rect
		style="fill:none;stroke:#000000;stroke-width:2px " 
		x="70mm"
		y="38.5mm"
		width="3mm"
		height="6mm"
		id="oomID19956"
	/>
	<rect
		style="fill:none;stroke:#000000;stroke-width:2px " 
		x="70mm"
		y="18.5mm"
		width="3mm"
		height="6mm"
		id="oomID19957"
	/>
	<rect
		style="fill:none;stroke:#000000;stroke-width:2px " 
		x="90mm"
		y="78.5mm"
		width="3mm"
		height="6mm"
		id="oomID19958"
	/>
	<rect
		style="fill:none;stroke:#000000;stroke-width:2px " 
		x="90mm"
		y="58.5mm"
		width="3mm"
		height="6mm"
		id="oomID19959"
	/>
	<rect
		style="fill:none;stroke:#000000;stroke-width:2px " 
		x="90mm"
		y="38.5mm"
		width="3mm"
		height="6mm"
		id="oomID19960"
	/>
	<rect
		style="fill:none;stroke:#000000;stroke-width:2px " 
		x="90mm"
		y="18.5mm"
		width="3mm"
		height="6mm"
		id="oomID19961"
	/>
	<rect
		style="fill:none;stroke:#000000;stroke-width:2px " 
		x="110mm"
		y="78.5mm"
		width="3mm"
		height="6mm"
		id="oomID19962"
	/>
	<rect
		style="fill:none;stroke:#000000;stroke-width:2px " 
		x="110mm"
		y="58.5mm"
		width="3mm"
		height="6mm"
		id="oomID19963"
	/>
	<rect
		style="fill:none;stroke:#000000;stroke-width:2px " 
		x="110mm"
		y="38.5mm"
		width="3mm"
		height="6mm"
		id="oomID19964"
	/>
	<rect
		style="fill:none;stroke:#000000;stroke-width:2px " 
		x="110mm"
		y="18.5mm"
		width="3mm"
		height="6mm"
		id="oomID19965"
	/>
	<rect
		style="fill:none;stroke:#000000;stroke-width:2px " 
		x="130mm"
		y="78.5mm"
		width="3mm"
		height="6mm"
		id="oomID19966"
	/>
	<rect
		style="fill:none;stroke:#000000;stroke-width:2px " 
		x="130mm"
		y="58.5mm"
		width="3mm"
		height="6mm"
		id="oomID19967"
	/>
	<rect
		style="fill:none;stroke:#000000;stroke-width:2px " 
		x="130mm"
		y="38.5mm"
		width="3mm"
		height="6mm"
		id="oomID19968"
	/>
	<rect
		style="fill:none;stroke:#000000;stroke-width:2px " 
		x="130mm"
		y="18.5mm"
		width="3mm"
		height="6mm"
		id="oomID19969"
	/>
	<rect
		style="fill:none;stroke:#000000;stroke-width:2px " 
		x="150mm"
		y="78.5mm"
		width="3mm"
		height="6mm"
		id="oomID19970"
	/>
	<rect
		style="fill:none;stroke:#000000;stroke-width:2px " 
		x="150mm"
		y="58.5mm"
		width="3mm"
		height="6mm"
		id="oomID19971"
	/>
	<rect
		style="fill:none;stroke:#000000;stroke-width:2px " 
		x="150mm"
		y="38.5mm"
		width="3mm"
		height="6mm"
		id="oomID19972"
	/>
	<rect
		style="fill:none;stroke:#000000;stroke-width:2px " 
		x="150mm"
		y="18.5mm"
		width="3mm"
		height="6mm"
		id="oomID19973"
	/>
	<rect
		style="fill:none;stroke:#000000;stroke-width:2px " 
		x="170mm"
		y="78.5mm"
		width="3mm"
		height="6mm"
		id="oomID19974"
	/>
	<rect
		style="fill:none;stroke:#000000;stroke-width:2px " 
		x="170mm"
		y="58.5mm"
		width="3mm"
		height="6mm"
		id="oomID19975"
	/>
	<rect
		style="fill:none;stroke:#000000;stroke-width:2px " 
		x="170mm"
		y="38.5mm"
		width="3mm"
		height="6mm"
		id="oomID19976"
	/>
	<rect
		style="fill:none;stroke:#000000;stroke-width:2px " 
		x="170mm"
		y="18.5mm"
		width="3mm"
		height="6mm"
		id="oomID19977"
	/>
	<rect
		style="fill:none;stroke:#000000;stroke-width:2px " 
		x="190mm"
		y="78.5mm"
		width="3mm"
		height="6mm"
		id="oomID19978"
	/>
	<rect
		style="fill:none;stroke:#000000;stroke-width:2px " 
		x="190mm"
		y="58.5mm"
		width="3mm"
		height="6mm"
		id="oomID19979"
	/>
	<rect
		style="fill:none;stroke:#000000;stroke-width:2px " 
		x="190mm"
		y="38.5mm"
		width="3mm"
		height="6mm"
		id="oomID19980"
	/>
	<rect
		style="fill:none;stroke:#000000;stroke-width:2px " 
		x="190mm"
		y="18.5mm"
		width="3mm"
		height="6mm"
		id="oomID19981"
	/>
	<rect
		style="fill:none;stroke:#000000;stroke-width:2px " 
		x="210mm"
		y="78.5mm"
		width="3mm"
		height="6mm"
		id="oomID19982"
	/>
	<rect
		style="fill:none;stroke:#000000;stroke-width:2px " 
		x="210mm"
		y="58.5mm"
		width="3mm"
		height="6mm"
		id="oomID19983"
	/>
	<rect
		style="fill:none;stroke:#000000;stroke-width:2px " 
		x="210mm"
		y="38.5mm"
		width="3mm"
		height="6mm"
		id="oomID19984"
	/>
	<rect
		style="fill:none;stroke:#000000;stroke-width:2px " 
		x="210mm"
		y="18.5mm"
		width="3mm"
		height="6mm"
		id="oomID19985"
	/>
	<rect
		style="fill:none;stroke:#000000;stroke-width:2px " 
		x="230mm"
		y="78.5mm"
		width="3mm"
		height="6mm"
		id="oomID19986"
	/>
	<rect
		style="fill:none;stroke:#000000;stroke-width:2px " 
		x="230mm"
		y="58.5mm"
		width="3mm"
		height="6mm"
		id="oomID19987"
	/>
	<rect
		style="fill:none;stroke:#000000;stroke-width:2px " 
		x="230mm"
		y="38.5mm"
		width="3mm"
		height="6mm"
		id="oomID19988"
	/>
	<rect
		style="fill:none;stroke:#000000;stroke-width:2px " 
		x="230mm"
		y="18.5mm"
		width="3mm"
		height="6mm"
		id="oomID19989"
	/>
	<rect
		style="fill:none;stroke:#000000;stroke-width:2px " 
		x="250mm"
		y="78.5mm"
		width="3mm"
		height="6mm"
		id="oomID19990"
	/>
	<rect
		style="fill:none;stroke:#000000;stroke-width:2px " 
		x="250mm"
		y="58.5mm"
		width="3mm"
		height="6mm"
		id="oomID19991"
	/>
	<rect
		style="fill:none;stroke:#000000;stroke-width:2px " 
		x="250mm"
		y="38.5mm"
		width="3mm"
		height="6mm"
		id="oomID19992"
	/>
	<rect
		style="fill:none;stroke:#000000;stroke-width:2px " 
		x="250mm"
		y="18.5mm"
		width="3mm"
		height="6mm"
		id="oomID19993"
	/>
	<rect
		style="fill:none;stroke:#000000;stroke-width:2px " 
		x="270mm"
		y="78.5mm"
		width="3mm"
		height="6mm"
		id="oomID19994"
	/>
	<rect
		style="fill:none;stroke:#000000;stroke-width:2px " 
		x="270mm"
		y="58.5mm"
		width="3mm"
		height="6mm"
		id="oomID19995"
	/>
	<rect
		style="fill:none;stroke:#000000;stroke-width:2px " 
		x="270mm"
		y="38.5mm"
		width="3mm"
		height="6mm"
		id="oomID19996"
	/>
	<rect
		style="fill:none;stroke:#000000;stroke-width:2px " 
		x="270mm"
		y="18.5mm"
		width="3mm"
		height="6mm"
		id="oomID19997"
	/>
	<rect
		style="fill:none;stroke:#000000;stroke-width:2px " 
		x="18.5mm"
		y="90mm"
		width="6mm"
		height="3mm"
		id="oomID19998"
	/>
	<rect
		style="fill:none;stroke:#000000;stroke-width:2px " 
		x="18.5mm"
		y="70mm"
		width="6mm"
		height="3mm"
		id="oomID19999"
	/>
	<rect
		style="fill:none;stroke:#000000;stroke-width:2px " 
		x="18.5mm"
		y="50mm"
		width="6mm"
		height="3mm"
		id="oomID20000"
	/>
	<rect
		style="fill:none;stroke:#000000;stroke-width:2px " 
		x="18.5mm"
		y="30mm"
		width="6mm"
		height="3mm"
		id="oomID20001"
	/>
	<rect
		style="fill:none;stroke:#000000;stroke-width:2px " 
		x="18.5mm"
		y="10mm"
		width="6mm"
		height="3mm"
		id="oomID20002"
	/>
	<rect
		style="fill:none;stroke:#000000;stroke-width:2px " 
		x="38.5mm"
		y="90mm"
		width="6mm"
		height="3mm"
		id="oomID20003"
	/>
	<rect
		style="fill:none;stroke:#000000;stroke-width:2px " 
		x="38.5mm"
		y="70mm"
		width="6mm"
		height="3mm"
		id="oomID20004"
	/>
	<rect
		style="fill:none;stroke:#000000;stroke-width:2px " 
		x="38.5mm"
		y="50mm"
		width="6mm"
		height="3mm"
		id="oomID20005"
	/>
	<rect
		style="fill:none;stroke:#000000;stroke-width:2px " 
		x="38.5mm"
		y="30mm"
		width="6mm"
		height="3mm"
		id="oomID20006"
	/>
	<rect
		style="fill:none;stroke:#000000;stroke-width:2px " 
		x="38.5mm"
		y="10mm"
		width="6mm"
		height="3mm"
		id="oomID20007"
	/>
	<rect
		style="fill:none;stroke:#000000;stroke-width:2px " 
		x="58.5mm"
		y="90mm"
		width="6mm"
		height="3mm"
		id="oomID20008"
	/>
	<rect
		style="fill:none;stroke:#000000;stroke-width:2px " 
		x="58.5mm"
		y="70mm"
		width="6mm"
		height="3mm"
		id="oomID20009"
	/>
	<rect
		style="fill:none;stroke:#000000;stroke-width:2px " 
		x="58.5mm"
		y="50mm"
		width="6mm"
		height="3mm"
		id="oomID20010"
	/>
	<rect
		style="fill:none;stroke:#000000;stroke-width:2px " 
		x="58.5mm"
		y="30mm"
		width="6mm"
		height="3mm"
		id="oomID20011"
	/>
	<rect
		style="fill:none;stroke:#000000;stroke-width:2px " 
		x="58.5mm"
		y="10mm"
		width="6mm"
		height="3mm"
		id="oomID20012"
	/>
	<rect
		style="fill:none;stroke:#000000;stroke-width:2px " 
		x="78.5mm"
		y="90mm"
		width="6mm"
		height="3mm"
		id="oomID20013"
	/>
	<rect
		style="fill:none;stroke:#000000;stroke-width:2px " 
		x="78.5mm"
		y="70mm"
		width="6mm"
		height="3mm"
		id="oomID20014"
	/>
	<rect
		style="fill:none;stroke:#000000;stroke-width:2px " 
		x="78.5mm"
		y="50mm"
		width="6mm"
		height="3mm"
		id="oomID20015"
	/>
	<rect
		style="fill:none;stroke:#000000;stroke-width:2px " 
		x="78.5mm"
		y="30mm"
		width="6mm"
		height="3mm"
		id="oomID20016"
	/>
	<rect
		style="fill:none;stroke:#000000;stroke-width:2px " 
		x="78.5mm"
		y="10mm"
		width="6mm"
		height="3mm"
		id="oomID20017"
	/>
	<rect
		style="fill:none;stroke:#000000;stroke-width:2px " 
		x="98.5mm"
		y="90mm"
		width="6mm"
		height="3mm"
		id="oomID20018"
	/>
	<rect
		style="fill:none;stroke:#000000;stroke-width:2px " 
		x="98.5mm"
		y="70mm"
		width="6mm"
		height="3mm"
		id="oomID20019"
	/>
	<rect
		style="fill:none;stroke:#000000;stroke-width:2px " 
		x="98.5mm"
		y="50mm"
		width="6mm"
		height="3mm"
		id="oomID20020"
	/>
	<rect
		style="fill:none;stroke:#000000;stroke-width:2px " 
		x="98.5mm"
		y="30mm"
		width="6mm"
		height="3mm"
		id="oomID20021"
	/>
	<rect
		style="fill:none;stroke:#000000;stroke-width:2px " 
		x="98.5mm"
		y="10mm"
		width="6mm"
		height="3mm"
		id="oomID20022"
	/>
	<rect
		style="fill:none;stroke:#000000;stroke-width:2px " 
		x="118.5mm"
		y="90mm"
		width="6mm"
		height="3mm"
		id="oomID20023"
	/>
	<rect
		style="fill:none;stroke:#000000;stroke-width:2px " 
		x="118.5mm"
		y="70mm"
		width="6mm"
		height="3mm"
		id="oomID20024"
	/>
	<rect
		style="fill:none;stroke:#000000;stroke-width:2px " 
		x="118.5mm"
		y="50mm"
		width="6mm"
		height="3mm"
		id="oomID20025"
	/>
	<rect
		style="fill:none;stroke:#000000;stroke-width:2px " 
		x="118.5mm"
		y="30mm"
		width="6mm"
		height="3mm"
		id="oomID20026"
	/>
	<rect
		style="fill:none;stroke:#000000;stroke-width:2px " 
		x="118.5mm"
		y="10mm"
		width="6mm"
		height="3mm"
		id="oomID20027"
	/>
	<rect
		style="fill:none;stroke:#000000;stroke-width:2px " 
		x="138.5mm"
		y="90mm"
		width="6mm"
		height="3mm"
		id="oomID20028"
	/>
	<rect
		style="fill:none;stroke:#000000;stroke-width:2px " 
		x="138.5mm"
		y="70mm"
		width="6mm"
		height="3mm"
		id="oomID20029"
	/>
	<rect
		style="fill:none;stroke:#000000;stroke-width:2px " 
		x="138.5mm"
		y="50mm"
		width="6mm"
		height="3mm"
		id="oomID20030"
	/>
	<rect
		style="fill:none;stroke:#000000;stroke-width:2px " 
		x="138.5mm"
		y="30mm"
		width="6mm"
		height="3mm"
		id="oomID20031"
	/>
	<rect
		style="fill:none;stroke:#000000;stroke-width:2px " 
		x="138.5mm"
		y="10mm"
		width="6mm"
		height="3mm"
		id="oomID20032"
	/>
	<rect
		style="fill:none;stroke:#000000;stroke-width:2px " 
		x="158.5mm"
		y="90mm"
		width="6mm"
		height="3mm"
		id="oomID20033"
	/>
	<rect
		style="fill:none;stroke:#000000;stroke-width:2px " 
		x="158.5mm"
		y="70mm"
		width="6mm"
		height="3mm"
		id="oomID20034"
	/>
	<rect
		style="fill:none;stroke:#000000;stroke-width:2px " 
		x="158.5mm"
		y="50mm"
		width="6mm"
		height="3mm"
		id="oomID20035"
	/>
	<rect
		style="fill:none;stroke:#000000;stroke-width:2px " 
		x="158.5mm"
		y="30mm"
		width="6mm"
		height="3mm"
		id="oomID20036"
	/>
	<rect
		style="fill:none;stroke:#000000;stroke-width:2px " 
		x="158.5mm"
		y="10mm"
		width="6mm"
		height="3mm"
		id="oomID20037"
	/>
	<rect
		style="fill:none;stroke:#000000;stroke-width:2px " 
		x="178.5mm"
		y="90mm"
		width="6mm"
		height="3mm"
		id="oomID20038"
	/>
	<rect
		style="fill:none;stroke:#000000;stroke-width:2px " 
		x="178.5mm"
		y="70mm"
		width="6mm"
		height="3mm"
		id="oomID20039"
	/>
	<rect
		style="fill:none;stroke:#000000;stroke-width:2px " 
		x="178.5mm"
		y="50mm"
		width="6mm"
		height="3mm"
		id="oomID20040"
	/>
	<rect
		style="fill:none;stroke:#000000;stroke-width:2px " 
		x="178.5mm"
		y="30mm"
		width="6mm"
		height="3mm"
		id="oomID20041"
	/>
	<rect
		style="fill:none;stroke:#000000;stroke-width:2px " 
		x="178.5mm"
		y="10mm"
		width="6mm"
		height="3mm"
		id="oomID20042"
	/>
	<rect
		style="fill:none;stroke:#000000;stroke-width:2px " 
		x="198.5mm"
		y="90mm"
		width="6mm"
		height="3mm"
		id="oomID20043"
	/>
	<rect
		style="fill:none;stroke:#000000;stroke-width:2px " 
		x="198.5mm"
		y="70mm"
		width="6mm"
		height="3mm"
		id="oomID20044"
	/>
	<rect
		style="fill:none;stroke:#000000;stroke-width:2px " 
		x="198.5mm"
		y="50mm"
		width="6mm"
		height="3mm"
		id="oomID20045"
	/>
	<rect
		style="fill:none;stroke:#000000;stroke-width:2px " 
		x="198.5mm"
		y="30mm"
		width="6mm"
		height="3mm"
		id="oomID20046"
	/>
	<rect
		style="fill:none;stroke:#000000;stroke-width:2px " 
		x="198.5mm"
		y="10mm"
		width="6mm"
		height="3mm"
		id="oomID20047"
	/>
	<rect
		style="fill:none;stroke:#000000;stroke-width:2px " 
		x="218.5mm"
		y="90mm"
		width="6mm"
		height="3mm"
		id="oomID20048"
	/>
	<rect
		style="fill:none;stroke:#000000;stroke-width:2px " 
		x="218.5mm"
		y="70mm"
		width="6mm"
		height="3mm"
		id="oomID20049"
	/>
	<rect
		style="fill:none;stroke:#000000;stroke-width:2px " 
		x="218.5mm"
		y="50mm"
		width="6mm"
		height="3mm"
		id="oomID20050"
	/>
	<rect
		style="fill:none;stroke:#000000;stroke-width:2px " 
		x="218.5mm"
		y="30mm"
		width="6mm"
		height="3mm"
		id="oomID20051"
	/>
	<rect
		style="fill:none;stroke:#000000;stroke-width:2px " 
		x="218.5mm"
		y="10mm"
		width="6mm"
		height="3mm"
		id="oomID20052"
	/>
	<rect
		style="fill:none;stroke:#000000;stroke-width:2px " 
		x="238.5mm"
		y="90mm"
		width="6mm"
		height="3mm"
		id="oomID20053"
	/>
	<rect
		style="fill:none;stroke:#000000;stroke-width:2px " 
		x="238.5mm"
		y="70mm"
		width="6mm"
		height="3mm"
		id="oomID20054"
	/>
	<rect
		style="fill:none;stroke:#000000;stroke-width:2px " 
		x="238.5mm"
		y="50mm"
		width="6mm"
		height="3mm"
		id="oomID20055"
	/>
	<rect
		style="fill:none;stroke:#000000;stroke-width:2px " 
		x="238.5mm"
		y="30mm"
		width="6mm"
		height="3mm"
		id="oomID20056"
	/>
	<rect
		style="fill:none;stroke:#000000;stroke-width:2px " 
		x="238.5mm"
		y="10mm"
		width="6mm"
		height="3mm"
		id="oomID20057"
	/>
	<rect
		style="fill:none;stroke:#000000;stroke-width:2px " 
		x="258.5mm"
		y="90mm"
		width="6mm"
		height="3mm"
		id="oomID20058"
	/>
	<rect
		style="fill:none;stroke:#000000;stroke-width:2px " 
		x="258.5mm"
		y="70mm"
		width="6mm"
		height="3mm"
		id="oomID20059"
	/>
	<rect
		style="fill:none;stroke:#000000;stroke-width:2px " 
		x="258.5mm"
		y="50mm"
		width="6mm"
		height="3mm"
		id="oomID20060"
	/>
	<rect
		style="fill:none;stroke:#000000;stroke-width:2px " 
		x="258.5mm"
		y="30mm"
		width="6mm"
		height="3mm"
		id="oomID20061"
	/>
	<rect
		style="fill:none;stroke:#000000;stroke-width:2px " 
		x="258.5mm"
		y="10mm"
		width="6mm"
		height="3mm"
		id="oomID20062"
	/>
	<text x="21.5mm" y="81.5mm"
	style="text-anchor: middle; text-align: center; font-family: ENG_HelvLine; -inkscape-font-specification: ENG_HelvLine; font-size: 12pt; fill:none; font-style:normal;font-weight:normal;line-height:100%;letter-spacing:0px;word-spacing:0px;fill-opacity:1;stroke:#FFA500"
	><tspan sodipodi:role="line">PL</tspan><tspan sodipodi:role="line">14-05</tspan></text>
</svg>
