  0
SECTION
  2
HEADER
  9
$ACADVER
  1
AC1021
  9
$ACADMAINTVER
 70
    25
  9
$DWGCODEPAGE
  3
ANSI_1252
  9
$INSBASE
 10
0.0
 20
0.0
 30
0.0
  9
$EXTMIN
 10
-15.17646
 20
-16.52646
 30
0.0
  9
$EXTMAX
 10
-5.82354
 20
-13.17354
 30
0.0
  9
$LIMMIN
 10
0.0
 20
0.0
  9
$LIMMAX
 10
12.0
 20
9.0
  9
$ORTHOMODE
 70
     0
  9
$REGENMODE
 70
     1
  9
$FILLMODE
 70
     1
  9
$QTEXTMODE
 70
     0
  9
$MIRRTEXT
 70
     1
  9
$LTSCALE
 40
1.0
  9
$ATTMODE
 70
     1
  9
$TEXTSIZE
 40
0.2
  9
$TRACEWID
 40
0.05
  9
$TEXTSTYLE
  7
Standard
  9
$CLAYER
  8
0
  9
$CELTYPE
  6
ByLayer
  9
$CECOLOR
 62
   256
  9
$CELTSCALE
 40
1.0
  9
$DISPSILH
 70
     0
  9
$DIMSCALE
 40
1.0
  9
$DIMASZ
 40
0.18
  9
$DIMEXO
 40
0.0625
  9
$DIMDLI
 40
0.38
  9
$DIMRND
 40
0.0
  9
$DIMDLE
 40
0.0
  9
$DIMEXE
 40
0.18
  9
$DIMTP
 40
0.0
  9
$DIMTM
 40
0.0
  9
$DIMTXT
 40
0.18
  9
$DIMCEN
 40
0.09
  9
$DIMTSZ
 40
0.0
  9
$DIMTOL
 70
     0
  9
$DIMLIM
 70
     0
  9
$DIMTIH
 70
     1
  9
$DIMTOH
 70
     1
  9
$DIMSE1
 70
     0
  9
$DIMSE2
 70
     0
  9
$DIMTAD
 70
     0
  9
$DIMZIN
 70
     0
  9
$DIMBLK
  1

  9
$DIMASO
 70
     1
  9
$DIMSHO
 70
     1
  9
$DIMPOST
  1

  9
$DIMAPOST
  1

  9
$DIMALT
 70
     0
  9
$DIMALTD
 70
     2
  9
$DIMALTF
 40
25.4
  9
$DIMLFAC
 40
1.0
  9
$DIMTOFL
 70
     0
  9
$DIMTVP
 40
0.0
  9
$DIMTIX
 70
     0
  9
$DIMSOXD
 70
     0
  9
$DIMSAH
 70
     0
  9
$DIMBLK1
  1

  9
$DIMBLK2
  1

  9
$DIMSTYLE
  2
Standard
  9
$DIMCLRD
 70
     0
  9
$DIMCLRE
 70
     0
  9
$DIMCLRT
 70
     0
  9
$DIMTFAC
 40
1.0
  9
$DIMGAP
 40
0.09
  9
$DIMJUST
 70
     0
  9
$DIMSD1
 70
     0
  9
$DIMSD2
 70
     0
  9
$DIMTOLJ
 70
     1
  9
$DIMTZIN
 70
     0
  9
$DIMALTZ
 70
     0
  9
$DIMALTTZ
 70
     0
  9
$DIMUPT
 70
     0
  9
$DIMDEC
 70
     4
  9
$DIMTDEC
 70
     4
  9
$DIMALTU
 70
     2
  9
$DIMALTTD
 70
     2
  9
$DIMTXSTY
  7
Standard
  9
$DIMAUNIT
 70
     0
  9
$DIMADEC
 70
     0
  9
$DIMALTRND
 40
0.0
  9
$DIMAZIN
 70
     0
  9
$DIMDSEP
 70
    46
  9
$DIMATFIT
 70
     3
  9
$DIMFRAC
 70
     0
  9
$DIMLDRBLK
  1

  9
$DIMLUNIT
 70
     2
  9
$DIMLWD
 70
    -2
  9
$DIMLWE
 70
    -2
  9
$DIMTMOVE
 70
     0
  9
$DIMFXL
 40
1.0
  9
$DIMFXLON
 70
     0
  9
$DIMJOGANG
 40
0.7853981633974483
  9
$DIMTFILL
 70
     0
  9
$DIMTFILLCLR
 70
     0
  9
$DIMARCSYM
 70
     0
  9
$DIMLTYPE
  6

  9
$DIMLTEX1
  6

  9
$DIMLTEX2
  6

  9
$LUNITS
 70
     2
  9
$LUPREC
 70
     4
  9
$SKETCHINC
 40
0.1
  9
$FILLETRAD
 40
0.5
  9
$AUNITS
 70
     0
  9
$AUPREC
 70
     0
  9
$MENU
  1
.
  9
$ELEVATION
 40
0.0
  9
$PELEVATION
 40
0.0
  9
$THICKNESS
 40
0.0
  9
$LIMCHECK
 70
     0
  9
$CHAMFERA
 40
0.5
  9
$CHAMFERB
 40
0.5
  9
$CHAMFERC
 40
1.0
  9
$CHAMFERD
 40
0.0
  9
$SKPOLY
 70
     0
  9
$TDCREATE
 40
2458698.789631945
  9
$TDUCREATE
 40
2458698.747965278
  9
$TDUPDATE
 40
2458698.789631956
  9
$TDUUPDATE
 40
2458698.747965289
  9
$TDINDWG
 40
0.0000000116
  9
$TDUSRTIMER
 40
0.0000000116
  9
$USRTIMER
 70
     1
  9
$ANGBASE
 50
0.0
  9
$ANGDIR
 70
     0
  9
$PDMODE
 70
     0
  9
$PDSIZE
 40
0.0
  9
$PLINEWID
 40
0.0
  9
$SPLFRAME
 70
     0
  9
$SPLINETYPE
 70
     6
  9
$SPLINESEGS
 70
     8
  9
$HANDSEED
  5
82
  9
$SURFTAB1
 70
     6
  9
$SURFTAB2
 70
     6
  9
$SURFTYPE
 70
     6
  9
$SURFU
 70
     6
  9
$SURFV
 70
     6
  9
$UCSBASE
  2

  9
$UCSNAME
  2

  9
$UCSORG
 10
0.0
 20
0.0
 30
0.0
  9
$UCSXDIR
 10
1.0
 20
0.0
 30
0.0
  9
$UCSYDIR
 10
0.0
 20
1.0
 30
0.0
  9
$UCSORTHOREF
  2

  9
$UCSORTHOVIEW
 70
     0
  9
$UCSORGTOP
 10
0.0
 20
0.0
 30
0.0
  9
$UCSORGBOTTOM
 10
0.0
 20
0.0
 30
0.0
  9
$UCSORGLEFT
 10
0.0
 20
0.0
 30
0.0
  9
$UCSORGRIGHT
 10
0.0
 20
0.0
 30
0.0
  9
$UCSORGFRONT
 10
0.0
 20
0.0
 30
0.0
  9
$UCSORGBACK
 10
0.0
 20
0.0
 30
0.0
  9
$PUCSBASE
  2

  9
$PUCSNAME
  2

  9
$PUCSORG
 10
0.0
 20
0.0
 30
0.0
  9
$PUCSXDIR
 10
1.0
 20
0.0
 30
0.0
  9
$PUCSYDIR
 10
0.0
 20
1.0
 30
0.0
  9
$PUCSORTHOREF
  2

  9
$PUCSORTHOVIEW
 70
     0
  9
$PUCSORGTOP
 10
0.0
 20
0.0
 30
0.0
  9
$PUCSORGBOTTOM
 10
0.0
 20
0.0
 30
0.0
  9
$PUCSORGLEFT
 10
0.0
 20
0.0
 30
0.0
  9
$PUCSORGRIGHT
 10
0.0
 20
0.0
 30
0.0
  9
$PUCSORGFRONT
 10
0.0
 20
0.0
 30
0.0
  9
$PUCSORGBACK
 10
0.0
 20
0.0
 30
0.0
  9
$USERI1
 70
     0
  9
$USERI2
 70
     0
  9
$USERI3
 70
     0
  9
$USERI4
 70
     0
  9
$USERI5
 70
     0
  9
$USERR1
 40
0.0
  9
$USERR2
 40
0.0
  9
$USERR3
 40
0.0
  9
$USERR4
 40
0.0
  9
$USERR5
 40
0.0
  9
$WORLDVIEW
 70
     1
  9
$SHADEDGE
 70
     3
  9
$SHADEDIF
 70
    70
  9
$TILEMODE
 70
     1
  9
$MAXACTVP
 70
    64
  9
$PINSBASE
 10
0.0
 20
0.0
 30
0.0
  9
$PLIMCHECK
 70
     0
  9
$PEXTMIN
 10
1.000000000000000E+20
 20
1.000000000000000E+20
 30
1.000000000000000E+20
  9
$PEXTMAX
 10
-1.000000000000000E+20
 20
-1.000000000000000E+20
 30
-1.000000000000000E+20
  9
$PLIMMIN
 10
0.0
 20
0.0
  9
$PLIMMAX
 10
12.0
 20
9.0
  9
$UNITMODE
 70
     0
  9
$VISRETAIN
 70
     1
  9
$PLINEGEN
 70
     0
  9
$PSLTSCALE
 70
     1
  9
$TREEDEPTH
 70
  3020
  9
$CMLSTYLE
  2
Standard
  9
$CMLJUST
 70
     0
  9
$CMLSCALE
 40
1.0
  9
$PROXYGRAPHICS
 70
     1
  9
$MEASUREMENT
 70
     0
  9
$CELWEIGHT
370
    -1
  9
$ENDCAPS
280
     0
  9
$JOINSTYLE
280
     0
  9
$LWDISPLAY
290
     0
  9
$INSUNITS
 70
     5
  9
$HYPERLINKBASE
  1

  9
$STYLESHEET
  1

  9
$XEDIT
290
     1
  9
$CEPSNTYPE
380
     0
  9
$PSTYLEMODE
290
     1
  9
$FINGERPRINTGUID
  2
{DAA1EF54-2312-4A31-BBA3-892D3FF9EDA0}
  9
$VERSIONGUID
  2
{FAEB1C32-E019-11D5-929B-00C0DF256EC4}
  9
$EXTNAMES
290
     1
  9
$PSVPSCALE
 40
0.0
  9
$OLESTARTUP
290
     0
  9
$SORTENTS
280
   127
  9
$INDEXCTL
280
     0
  9
$HIDETEXT
280
     1
  9
$XCLIPFRAME
290
     0
  9
$HALOGAP
280
     0
  9
$OBSCOLOR
 70
   257
  9
$OBSLTYPE
280
     0
  9
$INTERSECTIONDISPLAY
280
     0
  9
$INTERSECTIONCOLOR
 70
   257
  9
$DIMASSOC
280
     2
  9
$PROJECTNAME
  1

  9
$CAMERADISPLAY
290
     0
  9
$LENSLENGTH
 40
50.0
  9
$CAMERAHEIGHT
 40
0.0
  9
$STEPSPERSEC
 40
2.0
  9
$STEPSIZE
 40
6.0
  9
$3DDWFPREC
 40
2.0
  9
$PSOLWIDTH
 40
0.25
  9
$PSOLHEIGHT
 40
4.0
  9
$LOFTANG1
 40
1.570796326794897
  9
$LOFTANG2
 40
1.570796326794897
  9
$LOFTMAG1
 40
0.0
  9
$LOFTMAG2
 40
0.0
  9
$LOFTPARAM
 70
     7
  9
$LOFTNORMALS
280
     1
  9
$LATITUDE
 40
37.795
  9
$LONGITUDE
 40
-122.394
  9
$NORTHDIRECTION
 40
0.0
  9
$TIMEZONE
 70
 -8000
  9
$LIGHTGLYPHDISPLAY
280
     1
  9
$TILEMODELIGHTSYNCH
280
     1
  9
$SOLIDHIST
280
     1
  9
$SHOWHIST
280
     1
  9
$DWFFRAME
280
     2
  9
$DGNFRAME
280
     2
  9
$REALWORLDSCALE
290
     1
  9
$INTERFERECOLOR
 62
   256
  9
$CSHADOW
280
     0
  9
$SHADOWPLANELOCATION
 40
0.0
  0
ENDSEC
  0
SECTION
  2
CLASSES
  0
CLASS
  1
ACDBDICTIONARYWDFLT
  2
AcDbDictionaryWithDefault
  3
ObjectDBX Classes
 90
        0
 91
        3
280
     0
281
     0
  0
CLASS
  1
VISUALSTYLE
  2
AcDbVisualStyle
  3
ObjectDBX Classes
 90
     4095
 91
        3
280
     0
281
     0
  0
CLASS
  1
SCALE
  2
AcDbScale
  3
ObjectDBX Classes
 90
     1153
 91
        3
280
     0
281
     0
  0
ENDSEC
  0
SECTION
  2
TABLES
  0
TABLE
  2
VPORT
  5
8
330
0
100
AcDbSymbolTable
 70
     1
  0
VPORT
  5
29
330
8
100
AcDbSymbolTableRecord
100
AcDbViewportTableRecord
  2
*Active
 70
     0
 10
0.0
 20
0.0
 11
1.0
 21
1.0
 12
10.42990654205607
 22
4.5
 13
0.0
 23
0.0
 14
0.5
 24
0.5
 15
0.5
 25
0.5
 16
0.0
 26
0.0
 36
1.0
 17
0.0
 27
0.0
 37
0.0
 40
9.0
 41
1.972972972850329
 42
50.0
 43
0.0
 44
0.0
 50
0.0
 51
0.0
 71
     0
 72
   100
 73
     1
 74
     3
 75
     0
 76
     0
 77
     0
 78
     0
281
     0
 65
     1
110
0.0
120
0.0
130
0.0
111
1.0
121
0.0
131
0.0
112
0.0
122
1.0
132
0.0
 79
     0
146
0.0
 60
     3
 61
     5
292
     1
282
     1
141
0.0
142
0.0
 63
   256
  0
ENDTAB
  0
TABLE
  2
LTYPE
  5
5
330
0
100
AcDbSymbolTable
 70
     1
  0
LTYPE
  5
14
330
5
100
AcDbSymbolTableRecord
100
AcDbLinetypeTableRecord
  2
ByBlock
 70
     0
  3

 72
    65
 73
     0
 40
0.0
  0
LTYPE
  5
15
330
5
100
AcDbSymbolTableRecord
100
AcDbLinetypeTableRecord
  2
ByLayer
 70
     0
  3

 72
    65
 73
     0
 40
0.0
  0
LTYPE
  5
16
330
5
100
AcDbSymbolTableRecord
100
AcDbLinetypeTableRecord
  2
Continuous
 70
     0
  3
Solid line
 72
    65
 73
     0
 40
0.0
  0
ENDTAB
  0
TABLE
  2
LAYER
  5
2
330
0
100
AcDbSymbolTable
 70
     2
  0
LAYER
  5
10
330
2
100
AcDbSymbolTableRecord
100
AcDbLayerTableRecord
  2
0
 70
     0
 62
     7
  6
Continuous
370
    -3
390
F
347
0
  0
LAYER
  5
5E
330
2
100
AcDbSymbolTableRecord
100
AcDbLayerTableRecord
  2
Layer 1
 70
     0
 62
     7
  6
Continuous
370
    -3
390
F
347
0
  0
ENDTAB
  0
TABLE
  2
STYLE
  5
3
330
0
100
AcDbSymbolTable
 70
     1
  0
STYLE
  5
11
330
3
100
AcDbSymbolTableRecord
100
AcDbTextStyleTableRecord
  2
Standard
 70
     0
 40
0.0
 41
1.0
 50
0.0
 71
     0
 42
0.2
  3
txt
  4

  0
ENDTAB
  0
TABLE
  2
VIEW
  5
6
330
0
100
AcDbSymbolTable
 70
     0
  0
ENDTAB
  0
TABLE
  2
UCS
  5
7
330
0
100
AcDbSymbolTable
 70
     0
  0
ENDTAB
  0
TABLE
  2
APPID
  5
9
330
0
100
AcDbSymbolTable
 70
     2
  0
APPID
  5
12
330
9
100
AcDbSymbolTableRecord
100
AcDbRegAppTableRecord
  2
ACAD
 70
     0
  0
APPID
  5
5D
330
9
100
AcDbSymbolTableRecord
100
AcDbRegAppTableRecord
  2
ODA
 70
     0
  0
ENDTAB
  0
TABLE
  2
DIMSTYLE
  5
A
330
0
100
AcDbSymbolTable
 70
     1
100
AcDbDimStyleTable
  0
DIMSTYLE
105
27
330
A
100
AcDbSymbolTableRecord
100
AcDbDimStyleTableRecord
  2
Standard
 70
     0
340
11
  0
ENDTAB
  0
TABLE
  2
BLOCK_RECORD
  5
1
330
0
100
AcDbSymbolTable
 70
     1
  0
BLOCK_RECORD
  5
1F
330
1
100
AcDbSymbolTableRecord
100
AcDbBlockTableRecord
  2
*Model_Space
340
22
 70
     0
280
     1
281
     0
  0
BLOCK_RECORD
  5
1B
330
1
100
AcDbSymbolTableRecord
100
AcDbBlockTableRecord
  2
*Paper_Space
340
1E
 70
     0
280
     1
281
     0
  0
BLOCK_RECORD
  5
23
330
1
100
AcDbSymbolTableRecord
100
AcDbBlockTableRecord
  2
*Paper_Space0
340
26
 70
     0
280
     1
281
     0
  0
ENDTAB
  0
ENDSEC
  0
SECTION
  2
BLOCKS
  0
BLOCK
  5
20
330
1F
100
AcDbEntity
  8
0
100
AcDbBlockBegin
  2
*Model_Space
 70
     0
 10
0.0
 20
0.0
 30
0.0
  3
*Model_Space
  1

  0
ENDBLK
  5
21
330
1F
100
AcDbEntity
  8
0
100
AcDbBlockEnd
  0
BLOCK
  5
1C
330
1B
100
AcDbEntity
 67
     1
  8
0
100
AcDbBlockBegin
  2
*Paper_Space
 70
     0
 10
0.0
 20
0.0
 30
0.0
  3
*Paper_Space
  1

  0
ENDBLK
  5
1D
330
1B
100
AcDbEntity
 67
     1
  8
0
100
AcDbBlockEnd
  0
BLOCK
  5
24
330
23
100
AcDbEntity
  8
0
100
AcDbBlockBegin
  2
*Paper_Space0
 70
     0
 10
0.0
 20
0.0
 30
0.0
  3
*Paper_Space0
  1

  0
ENDBLK
  5
25
330
23
100
AcDbEntity
  8
0
100
AcDbBlockEnd
  0
ENDSEC
  0
SECTION
  2
ENTITIES
  0
SPLINE
  5
5F
330
1F
100
AcDbEntity
  8
Layer 1
370
    53
100
AcDbSpline
210
0.0
220
0.0
230
1.0
 70
    11
 71
     3
 72
    84
 73
    80
 74
     0
 42
0.0000000001
 43
0.0000000001
 40
0.0
 40
0.0
 40
0.0
 40
0.0
 40
0.05
 40
0.05
 40
0.05
 40
0.05
 40
0.1
 40
0.1
 40
0.1
 40
0.1
 40
0.15
 40
0.15
 40
0.15
 40
0.15
 40
0.2
 40
0.2
 40
0.2
 40
0.2
 40
0.25
 40
0.25
 40
0.25
 40
0.25
 40
0.3
 40
0.3
 40
0.3
 40
0.3
 40
0.35
 40
0.35
 40
0.35
 40
0.35
 40
0.4
 40
0.4
 40
0.4
 40
0.4
 40
0.45
 40
0.45
 40
0.45
 40
0.45
 40
0.4999999999999999
 40
0.4999999999999999
 40
0.4999999999999999
 40
0.4999999999999999
 40
0.5499999999999999
 40
0.5499999999999999
 40
0.5499999999999999
 40
0.5499999999999999
 40
0.6
 40
0.6
 40
0.6
 40
0.6
 40
0.65
 40
0.65
 40
0.65
 40
0.65
 40
0.7000000000000001
 40
0.7000000000000001
 40
0.7000000000000001
 40
0.7000000000000001
 40
0.7500000000000001
 40
0.7500000000000001
 40
0.7500000000000001
 40
0.7500000000000001
 40
0.8000000000000002
 40
0.8000000000000002
 40
0.8000000000000002
 40
0.8000000000000002
 40
0.8500000000000002
 40
0.8500000000000002
 40
0.8500000000000002
 40
0.8500000000000002
 40
0.9000000000000002
 40
0.9000000000000002
 40
0.9000000000000002
 40
0.9000000000000002
 40
0.9500000000000003
 40
0.9500000000000003
 40
0.9500000000000003
 40
0.9500000000000003
 40
1.0
 40
1.0
 40
1.0
 40
1.0
 10
-14.8
 20
-15.7
 30
0.0
 10
-14.8
 20
-15.7
 30
0.0
 10
-14.75985
 20
-15.7
 30
0.0
 10
-14.75985
 20
-15.7
 30
0.0
 10
-14.75985
 20
-15.7
 30
0.0
 10
-14.7335
 20
-15.65447
 30
0.0
 10
-14.69553
 20
-15.6165
 30
0.0
 10
-14.65
 20
-15.59015
 30
0.0
 10
-14.65
 20
-15.59015
 30
0.0
 10
-14.65
 20
-15.59015
 30
0.0
 10
-14.65
 20
-15.55
 30
0.0
 10
-14.65
 20
-15.55
 30
0.0
 10
-14.65
 20
-15.55
 30
0.0
 10
-14.65
 20
-15.55
 30
0.0
 10
-14.5
 20
-15.55
 30
0.0
 10
-14.5
 20
-15.55
 30
0.0
 10
-14.5
 20
-15.55
 30
0.0
 10
-14.5
 20
-15.55
 30
0.0
 10
-14.35
 20
-15.55
 30
0.0
 10
-14.35
 20
-15.55
 30
0.0
 10
-14.35
 20
-15.55
 30
0.0
 10
-14.35
 20
-15.55
 30
0.0
 10
-14.35
 20
-15.59015
 30
0.0
 10
-14.35
 20
-15.59015
 30
0.0
 10
-14.35
 20
-15.59015
 30
0.0
 10
-14.30447
 20
-15.6165
 30
0.0
 10
-14.2665
 20
-15.65447
 30
0.0
 10
-14.24015
 20
-15.7
 30
0.0
 10
-14.24015
 20
-15.7
 30
0.0
 10
-14.24015
 20
-15.7
 30
0.0
 10
-14.2
 20
-15.7
 30
0.0
 10
-14.2
 20
-15.7
 30
0.0
 10
-14.2
 20
-15.7
 30
0.0
 10
-14.2
 20
-15.7
 30
0.0
 10
-14.2
 20
-15.85
 30
0.0
 10
-14.2
 20
-15.85
 30
0.0
 10
-14.2
 20
-15.85
 30
0.0
 10
-14.2
 20
-15.85
 30
0.0
 10
-14.2
 20
-16.0
 30
0.0
 10
-14.2
 20
-16.0
 30
0.0
 10
-14.2
 20
-16.0
 30
0.0
 10
-14.2
 20
-16.0
 30
0.0
 10
-14.24015
 20
-16.0
 30
0.0
 10
-14.24015
 20
-16.0
 30
0.0
 10
-14.24015
 20
-16.0
 30
0.0
 10
-14.2665
 20
-16.04553
 30
0.0
 10
-14.30447
 20
-16.0835
 30
0.0
 10
-14.35
 20
-16.10985
 30
0.0
 10
-14.35
 20
-16.10985
 30
0.0
 10
-14.35
 20
-16.10985
 30
0.0
 10
-14.35
 20
-16.15
 30
0.0
 10
-14.35
 20
-16.15
 30
0.0
 10
-14.35
 20
-16.15
 30
0.0
 10
-14.35
 20
-16.15
 30
0.0
 10
-14.5
 20
-16.15
 30
0.0
 10
-14.5
 20
-16.15
 30
0.0
 10
-14.5
 20
-16.15
 30
0.0
 10
-14.5
 20
-16.15
 30
0.0
 10
-14.65
 20
-16.15
 30
0.0
 10
-14.65
 20
-16.15
 30
0.0
 10
-14.65
 20
-16.15
 30
0.0
 10
-14.65
 20
-16.15
 30
0.0
 10
-14.65
 20
-16.10985
 30
0.0
 10
-14.65
 20
-16.10985
 30
0.0
 10
-14.65
 20
-16.10985
 30
0.0
 10
-14.69553
 20
-16.0835
 30
0.0
 10
-14.7335
 20
-16.04553
 30
0.0
 10
-14.75985
 20
-16.0
 30
0.0
 10
-14.75985
 20
-16.0
 30
0.0
 10
-14.75985
 20
-16.0
 30
0.0
 10
-14.8
 20
-16.0
 30
0.0
 10
-14.8
 20
-16.0
 30
0.0
 10
-14.8
 20
-16.0
 30
0.0
 10
-14.8
 20
-16.0
 30
0.0
 10
-14.8
 20
-15.85
 30
0.0
 10
-14.8
 20
-15.85
 30
0.0
 10
-14.8
 20
-15.85
 30
0.0
 10
-14.8
 20
-15.85
 30
0.0
 10
-14.8
 20
-15.7
 30
0.0
 10
-14.8
 20
-15.7
 30
0.0
  0
SPLINE
  5
60
330
1F
100
AcDbEntity
  8
Layer 1
370
    53
100
AcDbSpline
210
0.0
220
0.0
230
1.0
 70
    11
 71
     3
 72
    84
 73
    80
 74
     0
 42
0.0000000001
 43
0.0000000001
 40
0.0
 40
0.0
 40
0.0
 40
0.0
 40
0.05
 40
0.05
 40
0.05
 40
0.05
 40
0.1
 40
0.1
 40
0.1
 40
0.1
 40
0.15
 40
0.15
 40
0.15
 40
0.15
 40
0.2
 40
0.2
 40
0.2
 40
0.2
 40
0.25
 40
0.25
 40
0.25
 40
0.25
 40
0.3
 40
0.3
 40
0.3
 40
0.3
 40
0.35
 40
0.35
 40
0.35
 40
0.35
 40
0.4
 40
0.4
 40
0.4
 40
0.4
 40
0.45
 40
0.45
 40
0.45
 40
0.45
 40
0.4999999999999999
 40
0.4999999999999999
 40
0.4999999999999999
 40
0.4999999999999999
 40
0.5499999999999999
 40
0.5499999999999999
 40
0.5499999999999999
 40
0.5499999999999999
 40
0.6
 40
0.6
 40
0.6
 40
0.6
 40
0.65
 40
0.65
 40
0.65
 40
0.65
 40
0.7000000000000001
 40
0.7000000000000001
 40
0.7000000000000001
 40
0.7000000000000001
 40
0.7500000000000001
 40
0.7500000000000001
 40
0.7500000000000001
 40
0.7500000000000001
 40
0.8000000000000002
 40
0.8000000000000002
 40
0.8000000000000002
 40
0.8000000000000002
 40
0.8500000000000002
 40
0.8500000000000002
 40
0.8500000000000002
 40
0.8500000000000002
 40
0.9000000000000002
 40
0.9000000000000002
 40
0.9000000000000002
 40
0.9000000000000002
 40
0.9500000000000003
 40
0.9500000000000003
 40
0.9500000000000003
 40
0.9500000000000003
 40
1.0
 40
1.0
 40
1.0
 40
1.0
 10
-14.8
 20
-13.7
 30
0.0
 10
-14.8
 20
-13.7
 30
0.0
 10
-14.75985
 20
-13.7
 30
0.0
 10
-14.75985
 20
-13.7
 30
0.0
 10
-14.75985
 20
-13.7
 30
0.0
 10
-14.7335
 20
-13.65447
 30
0.0
 10
-14.69553
 20
-13.6165
 30
0.0
 10
-14.65
 20
-13.59015
 30
0.0
 10
-14.65
 20
-13.59015
 30
0.0
 10
-14.65
 20
-13.59015
 30
0.0
 10
-14.65
 20
-13.55
 30
0.0
 10
-14.65
 20
-13.55
 30
0.0
 10
-14.65
 20
-13.55
 30
0.0
 10
-14.65
 20
-13.55
 30
0.0
 10
-14.5
 20
-13.55
 30
0.0
 10
-14.5
 20
-13.55
 30
0.0
 10
-14.5
 20
-13.55
 30
0.0
 10
-14.5
 20
-13.55
 30
0.0
 10
-14.35
 20
-13.55
 30
0.0
 10
-14.35
 20
-13.55
 30
0.0
 10
-14.35
 20
-13.55
 30
0.0
 10
-14.35
 20
-13.55
 30
0.0
 10
-14.35
 20
-13.59015
 30
0.0
 10
-14.35
 20
-13.59015
 30
0.0
 10
-14.35
 20
-13.59015
 30
0.0
 10
-14.30447
 20
-13.6165
 30
0.0
 10
-14.2665
 20
-13.65447
 30
0.0
 10
-14.24015
 20
-13.7
 30
0.0
 10
-14.24015
 20
-13.7
 30
0.0
 10
-14.24015
 20
-13.7
 30
0.0
 10
-14.2
 20
-13.7
 30
0.0
 10
-14.2
 20
-13.7
 30
0.0
 10
-14.2
 20
-13.7
 30
0.0
 10
-14.2
 20
-13.7
 30
0.0
 10
-14.2
 20
-13.85
 30
0.0
 10
-14.2
 20
-13.85
 30
0.0
 10
-14.2
 20
-13.85
 30
0.0
 10
-14.2
 20
-13.85
 30
0.0
 10
-14.2
 20
-14.0
 30
0.0
 10
-14.2
 20
-14.0
 30
0.0
 10
-14.2
 20
-14.0
 30
0.0
 10
-14.2
 20
-14.0
 30
0.0
 10
-14.24015
 20
-14.0
 30
0.0
 10
-14.24015
 20
-14.0
 30
0.0
 10
-14.24015
 20
-14.0
 30
0.0
 10
-14.2665
 20
-14.04553
 30
0.0
 10
-14.30447
 20
-14.0835
 30
0.0
 10
-14.35
 20
-14.10985
 30
0.0
 10
-14.35
 20
-14.10985
 30
0.0
 10
-14.35
 20
-14.10985
 30
0.0
 10
-14.35
 20
-14.15
 30
0.0
 10
-14.35
 20
-14.15
 30
0.0
 10
-14.35
 20
-14.15
 30
0.0
 10
-14.35
 20
-14.15
 30
0.0
 10
-14.5
 20
-14.15
 30
0.0
 10
-14.5
 20
-14.15
 30
0.0
 10
-14.5
 20
-14.15
 30
0.0
 10
-14.5
 20
-14.15
 30
0.0
 10
-14.65
 20
-14.15
 30
0.0
 10
-14.65
 20
-14.15
 30
0.0
 10
-14.65
 20
-14.15
 30
0.0
 10
-14.65
 20
-14.15
 30
0.0
 10
-14.65
 20
-14.10985
 30
0.0
 10
-14.65
 20
-14.10985
 30
0.0
 10
-14.65
 20
-14.10985
 30
0.0
 10
-14.69553
 20
-14.0835
 30
0.0
 10
-14.7335
 20
-14.04553
 30
0.0
 10
-14.75985
 20
-14.0
 30
0.0
 10
-14.75985
 20
-14.0
 30
0.0
 10
-14.75985
 20
-14.0
 30
0.0
 10
-14.8
 20
-14.0
 30
0.0
 10
-14.8
 20
-14.0
 30
0.0
 10
-14.8
 20
-14.0
 30
0.0
 10
-14.8
 20
-14.0
 30
0.0
 10
-14.8
 20
-13.85
 30
0.0
 10
-14.8
 20
-13.85
 30
0.0
 10
-14.8
 20
-13.85
 30
0.0
 10
-14.8
 20
-13.85
 30
0.0
 10
-14.8
 20
-13.7
 30
0.0
 10
-14.8
 20
-13.7
 30
0.0
  0
LWPOLYLINE
  5
61
330
1F
100
AcDbEntity
  8
Layer 1
 62
   250
370
    53
100
AcDbPolyline
 90
        5
 70
     1
 43
0.0
 10
-14.65
 20
-15.15
 10
-14.35
 20
-15.15
 10
-14.35
 20
-14.55
 10
-14.65
 20
-14.55
 10
-14.65
 20
-15.15
  0
SPLINE
  5
62
330
1F
100
AcDbEntity
  8
Layer 1
370
    53
100
AcDbSpline
210
0.0
220
0.0
230
1.0
 70
    11
 71
     3
 72
    84
 73
    80
 74
     0
 42
0.0000000001
 43
0.0000000001
 40
0.0
 40
0.0
 40
0.0
 40
0.0
 40
0.05
 40
0.05
 40
0.05
 40
0.05
 40
0.1
 40
0.1
 40
0.1
 40
0.1
 40
0.15
 40
0.15
 40
0.15
 40
0.15
 40
0.2
 40
0.2
 40
0.2
 40
0.2
 40
0.25
 40
0.25
 40
0.25
 40
0.25
 40
0.3
 40
0.3
 40
0.3
 40
0.3
 40
0.35
 40
0.35
 40
0.35
 40
0.35
 40
0.4
 40
0.4
 40
0.4
 40
0.4
 40
0.45
 40
0.45
 40
0.45
 40
0.45
 40
0.4999999999999999
 40
0.4999999999999999
 40
0.4999999999999999
 40
0.4999999999999999
 40
0.5499999999999999
 40
0.5499999999999999
 40
0.5499999999999999
 40
0.5499999999999999
 40
0.6
 40
0.6
 40
0.6
 40
0.6
 40
0.65
 40
0.65
 40
0.65
 40
0.65
 40
0.7000000000000001
 40
0.7000000000000001
 40
0.7000000000000001
 40
0.7000000000000001
 40
0.7500000000000001
 40
0.7500000000000001
 40
0.7500000000000001
 40
0.7500000000000001
 40
0.8000000000000002
 40
0.8000000000000002
 40
0.8000000000000002
 40
0.8000000000000002
 40
0.8500000000000002
 40
0.8500000000000002
 40
0.8500000000000002
 40
0.8500000000000002
 40
0.9000000000000002
 40
0.9000000000000002
 40
0.9000000000000002
 40
0.9000000000000002
 40
0.9500000000000003
 40
0.9500000000000003
 40
0.9500000000000003
 40
0.9500000000000003
 40
1.0
 40
1.0
 40
1.0
 40
1.0
 10
-12.8
 20
-15.7
 30
0.0
 10
-12.8
 20
-15.7
 30
0.0
 10
-12.75985
 20
-15.7
 30
0.0
 10
-12.75985
 20
-15.7
 30
0.0
 10
-12.75985
 20
-15.7
 30
0.0
 10
-12.7335
 20
-15.65447
 30
0.0
 10
-12.69553
 20
-15.6165
 30
0.0
 10
-12.65
 20
-15.59015
 30
0.0
 10
-12.65
 20
-15.59015
 30
0.0
 10
-12.65
 20
-15.59015
 30
0.0
 10
-12.65
 20
-15.55
 30
0.0
 10
-12.65
 20
-15.55
 30
0.0
 10
-12.65
 20
-15.55
 30
0.0
 10
-12.65
 20
-15.55
 30
0.0
 10
-12.5
 20
-15.55
 30
0.0
 10
-12.5
 20
-15.55
 30
0.0
 10
-12.5
 20
-15.55
 30
0.0
 10
-12.5
 20
-15.55
 30
0.0
 10
-12.35
 20
-15.55
 30
0.0
 10
-12.35
 20
-15.55
 30
0.0
 10
-12.35
 20
-15.55
 30
0.0
 10
-12.35
 20
-15.55
 30
0.0
 10
-12.35
 20
-15.59015
 30
0.0
 10
-12.35
 20
-15.59015
 30
0.0
 10
-12.35
 20
-15.59015
 30
0.0
 10
-12.30447
 20
-15.6165
 30
0.0
 10
-12.2665
 20
-15.65447
 30
0.0
 10
-12.24015
 20
-15.7
 30
0.0
 10
-12.24015
 20
-15.7
 30
0.0
 10
-12.24015
 20
-15.7
 30
0.0
 10
-12.2
 20
-15.7
 30
0.0
 10
-12.2
 20
-15.7
 30
0.0
 10
-12.2
 20
-15.7
 30
0.0
 10
-12.2
 20
-15.7
 30
0.0
 10
-12.2
 20
-15.85
 30
0.0
 10
-12.2
 20
-15.85
 30
0.0
 10
-12.2
 20
-15.85
 30
0.0
 10
-12.2
 20
-15.85
 30
0.0
 10
-12.2
 20
-16.0
 30
0.0
 10
-12.2
 20
-16.0
 30
0.0
 10
-12.2
 20
-16.0
 30
0.0
 10
-12.2
 20
-16.0
 30
0.0
 10
-12.24015
 20
-16.0
 30
0.0
 10
-12.24015
 20
-16.0
 30
0.0
 10
-12.24015
 20
-16.0
 30
0.0
 10
-12.2665
 20
-16.04553
 30
0.0
 10
-12.30447
 20
-16.0835
 30
0.0
 10
-12.35
 20
-16.10985
 30
0.0
 10
-12.35
 20
-16.10985
 30
0.0
 10
-12.35
 20
-16.10985
 30
0.0
 10
-12.35
 20
-16.15
 30
0.0
 10
-12.35
 20
-16.15
 30
0.0
 10
-12.35
 20
-16.15
 30
0.0
 10
-12.35
 20
-16.15
 30
0.0
 10
-12.5
 20
-16.15
 30
0.0
 10
-12.5
 20
-16.15
 30
0.0
 10
-12.5
 20
-16.15
 30
0.0
 10
-12.5
 20
-16.15
 30
0.0
 10
-12.65
 20
-16.15
 30
0.0
 10
-12.65
 20
-16.15
 30
0.0
 10
-12.65
 20
-16.15
 30
0.0
 10
-12.65
 20
-16.15
 30
0.0
 10
-12.65
 20
-16.10985
 30
0.0
 10
-12.65
 20
-16.10985
 30
0.0
 10
-12.65
 20
-16.10985
 30
0.0
 10
-12.69553
 20
-16.0835
 30
0.0
 10
-12.7335
 20
-16.04553
 30
0.0
 10
-12.75985
 20
-16.0
 30
0.0
 10
-12.75985
 20
-16.0
 30
0.0
 10
-12.75985
 20
-16.0
 30
0.0
 10
-12.8
 20
-16.0
 30
0.0
 10
-12.8
 20
-16.0
 30
0.0
 10
-12.8
 20
-16.0
 30
0.0
 10
-12.8
 20
-16.0
 30
0.0
 10
-12.8
 20
-15.85
 30
0.0
 10
-12.8
 20
-15.85
 30
0.0
 10
-12.8
 20
-15.85
 30
0.0
 10
-12.8
 20
-15.85
 30
0.0
 10
-12.8
 20
-15.7
 30
0.0
 10
-12.8
 20
-15.7
 30
0.0
  0
SPLINE
  5
63
330
1F
100
AcDbEntity
  8
Layer 1
370
    53
100
AcDbSpline
210
0.0
220
0.0
230
1.0
 70
    11
 71
     3
 72
    84
 73
    80
 74
     0
 42
0.0000000001
 43
0.0000000001
 40
0.0
 40
0.0
 40
0.0
 40
0.0
 40
0.05
 40
0.05
 40
0.05
 40
0.05
 40
0.1
 40
0.1
 40
0.1
 40
0.1
 40
0.15
 40
0.15
 40
0.15
 40
0.15
 40
0.2
 40
0.2
 40
0.2
 40
0.2
 40
0.25
 40
0.25
 40
0.25
 40
0.25
 40
0.3
 40
0.3
 40
0.3
 40
0.3
 40
0.35
 40
0.35
 40
0.35
 40
0.35
 40
0.4
 40
0.4
 40
0.4
 40
0.4
 40
0.45
 40
0.45
 40
0.45
 40
0.45
 40
0.4999999999999999
 40
0.4999999999999999
 40
0.4999999999999999
 40
0.4999999999999999
 40
0.5499999999999999
 40
0.5499999999999999
 40
0.5499999999999999
 40
0.5499999999999999
 40
0.6
 40
0.6
 40
0.6
 40
0.6
 40
0.65
 40
0.65
 40
0.65
 40
0.65
 40
0.7000000000000001
 40
0.7000000000000001
 40
0.7000000000000001
 40
0.7000000000000001
 40
0.7500000000000001
 40
0.7500000000000001
 40
0.7500000000000001
 40
0.7500000000000001
 40
0.8000000000000002
 40
0.8000000000000002
 40
0.8000000000000002
 40
0.8000000000000002
 40
0.8500000000000002
 40
0.8500000000000002
 40
0.8500000000000002
 40
0.8500000000000002
 40
0.9000000000000002
 40
0.9000000000000002
 40
0.9000000000000002
 40
0.9000000000000002
 40
0.9500000000000003
 40
0.9500000000000003
 40
0.9500000000000003
 40
0.9500000000000003
 40
1.0
 40
1.0
 40
1.0
 40
1.0
 10
-12.8
 20
-13.7
 30
0.0
 10
-12.8
 20
-13.7
 30
0.0
 10
-12.75985
 20
-13.7
 30
0.0
 10
-12.75985
 20
-13.7
 30
0.0
 10
-12.75985
 20
-13.7
 30
0.0
 10
-12.7335
 20
-13.65447
 30
0.0
 10
-12.69553
 20
-13.6165
 30
0.0
 10
-12.65
 20
-13.59015
 30
0.0
 10
-12.65
 20
-13.59015
 30
0.0
 10
-12.65
 20
-13.59015
 30
0.0
 10
-12.65
 20
-13.55
 30
0.0
 10
-12.65
 20
-13.55
 30
0.0
 10
-12.65
 20
-13.55
 30
0.0
 10
-12.65
 20
-13.55
 30
0.0
 10
-12.5
 20
-13.55
 30
0.0
 10
-12.5
 20
-13.55
 30
0.0
 10
-12.5
 20
-13.55
 30
0.0
 10
-12.5
 20
-13.55
 30
0.0
 10
-12.35
 20
-13.55
 30
0.0
 10
-12.35
 20
-13.55
 30
0.0
 10
-12.35
 20
-13.55
 30
0.0
 10
-12.35
 20
-13.55
 30
0.0
 10
-12.35
 20
-13.59015
 30
0.0
 10
-12.35
 20
-13.59015
 30
0.0
 10
-12.35
 20
-13.59015
 30
0.0
 10
-12.30447
 20
-13.6165
 30
0.0
 10
-12.2665
 20
-13.65447
 30
0.0
 10
-12.24015
 20
-13.7
 30
0.0
 10
-12.24015
 20
-13.7
 30
0.0
 10
-12.24015
 20
-13.7
 30
0.0
 10
-12.2
 20
-13.7
 30
0.0
 10
-12.2
 20
-13.7
 30
0.0
 10
-12.2
 20
-13.7
 30
0.0
 10
-12.2
 20
-13.7
 30
0.0
 10
-12.2
 20
-13.85
 30
0.0
 10
-12.2
 20
-13.85
 30
0.0
 10
-12.2
 20
-13.85
 30
0.0
 10
-12.2
 20
-13.85
 30
0.0
 10
-12.2
 20
-14.0
 30
0.0
 10
-12.2
 20
-14.0
 30
0.0
 10
-12.2
 20
-14.0
 30
0.0
 10
-12.2
 20
-14.0
 30
0.0
 10
-12.24015
 20
-14.0
 30
0.0
 10
-12.24015
 20
-14.0
 30
0.0
 10
-12.24015
 20
-14.0
 30
0.0
 10
-12.2665
 20
-14.04553
 30
0.0
 10
-12.30447
 20
-14.0835
 30
0.0
 10
-12.35
 20
-14.10985
 30
0.0
 10
-12.35
 20
-14.10985
 30
0.0
 10
-12.35
 20
-14.10985
 30
0.0
 10
-12.35
 20
-14.15
 30
0.0
 10
-12.35
 20
-14.15
 30
0.0
 10
-12.35
 20
-14.15
 30
0.0
 10
-12.35
 20
-14.15
 30
0.0
 10
-12.5
 20
-14.15
 30
0.0
 10
-12.5
 20
-14.15
 30
0.0
 10
-12.5
 20
-14.15
 30
0.0
 10
-12.5
 20
-14.15
 30
0.0
 10
-12.65
 20
-14.15
 30
0.0
 10
-12.65
 20
-14.15
 30
0.0
 10
-12.65
 20
-14.15
 30
0.0
 10
-12.65
 20
-14.15
 30
0.0
 10
-12.65
 20
-14.10985
 30
0.0
 10
-12.65
 20
-14.10985
 30
0.0
 10
-12.65
 20
-14.10985
 30
0.0
 10
-12.69553
 20
-14.0835
 30
0.0
 10
-12.7335
 20
-14.04553
 30
0.0
 10
-12.75985
 20
-14.0
 30
0.0
 10
-12.75985
 20
-14.0
 30
0.0
 10
-12.75985
 20
-14.0
 30
0.0
 10
-12.8
 20
-14.0
 30
0.0
 10
-12.8
 20
-14.0
 30
0.0
 10
-12.8
 20
-14.0
 30
0.0
 10
-12.8
 20
-14.0
 30
0.0
 10
-12.8
 20
-13.85
 30
0.0
 10
-12.8
 20
-13.85
 30
0.0
 10
-12.8
 20
-13.85
 30
0.0
 10
-12.8
 20
-13.85
 30
0.0
 10
-12.8
 20
-13.7
 30
0.0
 10
-12.8
 20
-13.7
 30
0.0
  0
LWPOLYLINE
  5
64
330
1F
100
AcDbEntity
  8
Layer 1
 62
   250
370
    53
100
AcDbPolyline
 90
        5
 70
     1
 43
0.0
 10
-12.65
 20
-15.15
 10
-12.35
 20
-15.15
 10
-12.35
 20
-14.55
 10
-12.65
 20
-14.55
 10
-12.65
 20
-15.15
  0
SPLINE
  5
65
330
1F
100
AcDbEntity
  8
Layer 1
370
    53
100
AcDbSpline
210
0.0
220
0.0
230
1.0
 70
    11
 71
     3
 72
    84
 73
    80
 74
     0
 42
0.0000000001
 43
0.0000000001
 40
0.0
 40
0.0
 40
0.0
 40
0.0
 40
0.05
 40
0.05
 40
0.05
 40
0.05
 40
0.1
 40
0.1
 40
0.1
 40
0.1
 40
0.15
 40
0.15
 40
0.15
 40
0.15
 40
0.2
 40
0.2
 40
0.2
 40
0.2
 40
0.25
 40
0.25
 40
0.25
 40
0.25
 40
0.3
 40
0.3
 40
0.3
 40
0.3
 40
0.35
 40
0.35
 40
0.35
 40
0.35
 40
0.4
 40
0.4
 40
0.4
 40
0.4
 40
0.45
 40
0.45
 40
0.45
 40
0.45
 40
0.4999999999999999
 40
0.4999999999999999
 40
0.4999999999999999
 40
0.4999999999999999
 40
0.5499999999999999
 40
0.5499999999999999
 40
0.5499999999999999
 40
0.5499999999999999
 40
0.6
 40
0.6
 40
0.6
 40
0.6
 40
0.65
 40
0.65
 40
0.65
 40
0.65
 40
0.7000000000000001
 40
0.7000000000000001
 40
0.7000000000000001
 40
0.7000000000000001
 40
0.7500000000000001
 40
0.7500000000000001
 40
0.7500000000000001
 40
0.7500000000000001
 40
0.8000000000000002
 40
0.8000000000000002
 40
0.8000000000000002
 40
0.8000000000000002
 40
0.8500000000000002
 40
0.8500000000000002
 40
0.8500000000000002
 40
0.8500000000000002
 40
0.9000000000000002
 40
0.9000000000000002
 40
0.9000000000000002
 40
0.9000000000000002
 40
0.9500000000000003
 40
0.9500000000000003
 40
0.9500000000000003
 40
0.9500000000000003
 40
1.0
 40
1.0
 40
1.0
 40
1.0
 10
-10.8
 20
-15.7
 30
0.0
 10
-10.8
 20
-15.7
 30
0.0
 10
-10.75985
 20
-15.7
 30
0.0
 10
-10.75985
 20
-15.7
 30
0.0
 10
-10.75985
 20
-15.7
 30
0.0
 10
-10.7335
 20
-15.65447
 30
0.0
 10
-10.69553
 20
-15.6165
 30
0.0
 10
-10.65
 20
-15.59015
 30
0.0
 10
-10.65
 20
-15.59015
 30
0.0
 10
-10.65
 20
-15.59015
 30
0.0
 10
-10.65
 20
-15.55
 30
0.0
 10
-10.65
 20
-15.55
 30
0.0
 10
-10.65
 20
-15.55
 30
0.0
 10
-10.65
 20
-15.55
 30
0.0
 10
-10.5
 20
-15.55
 30
0.0
 10
-10.5
 20
-15.55
 30
0.0
 10
-10.5
 20
-15.55
 30
0.0
 10
-10.5
 20
-15.55
 30
0.0
 10
-10.35
 20
-15.55
 30
0.0
 10
-10.35
 20
-15.55
 30
0.0
 10
-10.35
 20
-15.55
 30
0.0
 10
-10.35
 20
-15.55
 30
0.0
 10
-10.35
 20
-15.59015
 30
0.0
 10
-10.35
 20
-15.59015
 30
0.0
 10
-10.35
 20
-15.59015
 30
0.0
 10
-10.30447
 20
-15.6165
 30
0.0
 10
-10.2665
 20
-15.65447
 30
0.0
 10
-10.24015
 20
-15.7
 30
0.0
 10
-10.24015
 20
-15.7
 30
0.0
 10
-10.24015
 20
-15.7
 30
0.0
 10
-10.2
 20
-15.7
 30
0.0
 10
-10.2
 20
-15.7
 30
0.0
 10
-10.2
 20
-15.7
 30
0.0
 10
-10.2
 20
-15.7
 30
0.0
 10
-10.2
 20
-15.85
 30
0.0
 10
-10.2
 20
-15.85
 30
0.0
 10
-10.2
 20
-15.85
 30
0.0
 10
-10.2
 20
-15.85
 30
0.0
 10
-10.2
 20
-16.0
 30
0.0
 10
-10.2
 20
-16.0
 30
0.0
 10
-10.2
 20
-16.0
 30
0.0
 10
-10.2
 20
-16.0
 30
0.0
 10
-10.24015
 20
-16.0
 30
0.0
 10
-10.24015
 20
-16.0
 30
0.0
 10
-10.24015
 20
-16.0
 30
0.0
 10
-10.2665
 20
-16.04553
 30
0.0
 10
-10.30447
 20
-16.0835
 30
0.0
 10
-10.35
 20
-16.10985
 30
0.0
 10
-10.35
 20
-16.10985
 30
0.0
 10
-10.35
 20
-16.10985
 30
0.0
 10
-10.35
 20
-16.15
 30
0.0
 10
-10.35
 20
-16.15
 30
0.0
 10
-10.35
 20
-16.15
 30
0.0
 10
-10.35
 20
-16.15
 30
0.0
 10
-10.5
 20
-16.15
 30
0.0
 10
-10.5
 20
-16.15
 30
0.0
 10
-10.5
 20
-16.15
 30
0.0
 10
-10.5
 20
-16.15
 30
0.0
 10
-10.65
 20
-16.15
 30
0.0
 10
-10.65
 20
-16.15
 30
0.0
 10
-10.65
 20
-16.15
 30
0.0
 10
-10.65
 20
-16.15
 30
0.0
 10
-10.65
 20
-16.10985
 30
0.0
 10
-10.65
 20
-16.10985
 30
0.0
 10
-10.65
 20
-16.10985
 30
0.0
 10
-10.69553
 20
-16.0835
 30
0.0
 10
-10.7335
 20
-16.04553
 30
0.0
 10
-10.75985
 20
-16.0
 30
0.0
 10
-10.75985
 20
-16.0
 30
0.0
 10
-10.75985
 20
-16.0
 30
0.0
 10
-10.8
 20
-16.0
 30
0.0
 10
-10.8
 20
-16.0
 30
0.0
 10
-10.8
 20
-16.0
 30
0.0
 10
-10.8
 20
-16.0
 30
0.0
 10
-10.8
 20
-15.85
 30
0.0
 10
-10.8
 20
-15.85
 30
0.0
 10
-10.8
 20
-15.85
 30
0.0
 10
-10.8
 20
-15.85
 30
0.0
 10
-10.8
 20
-15.7
 30
0.0
 10
-10.8
 20
-15.7
 30
0.0
  0
SPLINE
  5
66
330
1F
100
AcDbEntity
  8
Layer 1
370
    53
100
AcDbSpline
210
0.0
220
0.0
230
1.0
 70
    11
 71
     3
 72
    84
 73
    80
 74
     0
 42
0.0000000001
 43
0.0000000001
 40
0.0
 40
0.0
 40
0.0
 40
0.0
 40
0.05
 40
0.05
 40
0.05
 40
0.05
 40
0.1
 40
0.1
 40
0.1
 40
0.1
 40
0.15
 40
0.15
 40
0.15
 40
0.15
 40
0.2
 40
0.2
 40
0.2
 40
0.2
 40
0.25
 40
0.25
 40
0.25
 40
0.25
 40
0.3
 40
0.3
 40
0.3
 40
0.3
 40
0.35
 40
0.35
 40
0.35
 40
0.35
 40
0.4
 40
0.4
 40
0.4
 40
0.4
 40
0.45
 40
0.45
 40
0.45
 40
0.45
 40
0.4999999999999999
 40
0.4999999999999999
 40
0.4999999999999999
 40
0.4999999999999999
 40
0.5499999999999999
 40
0.5499999999999999
 40
0.5499999999999999
 40
0.5499999999999999
 40
0.6
 40
0.6
 40
0.6
 40
0.6
 40
0.65
 40
0.65
 40
0.65
 40
0.65
 40
0.7000000000000001
 40
0.7000000000000001
 40
0.7000000000000001
 40
0.7000000000000001
 40
0.7500000000000001
 40
0.7500000000000001
 40
0.7500000000000001
 40
0.7500000000000001
 40
0.8000000000000002
 40
0.8000000000000002
 40
0.8000000000000002
 40
0.8000000000000002
 40
0.8500000000000002
 40
0.8500000000000002
 40
0.8500000000000002
 40
0.8500000000000002
 40
0.9000000000000002
 40
0.9000000000000002
 40
0.9000000000000002
 40
0.9000000000000002
 40
0.9500000000000003
 40
0.9500000000000003
 40
0.9500000000000003
 40
0.9500000000000003
 40
1.0
 40
1.0
 40
1.0
 40
1.0
 10
-10.8
 20
-13.7
 30
0.0
 10
-10.8
 20
-13.7
 30
0.0
 10
-10.75985
 20
-13.7
 30
0.0
 10
-10.75985
 20
-13.7
 30
0.0
 10
-10.75985
 20
-13.7
 30
0.0
 10
-10.7335
 20
-13.65447
 30
0.0
 10
-10.69553
 20
-13.6165
 30
0.0
 10
-10.65
 20
-13.59015
 30
0.0
 10
-10.65
 20
-13.59015
 30
0.0
 10
-10.65
 20
-13.59015
 30
0.0
 10
-10.65
 20
-13.55
 30
0.0
 10
-10.65
 20
-13.55
 30
0.0
 10
-10.65
 20
-13.55
 30
0.0
 10
-10.65
 20
-13.55
 30
0.0
 10
-10.5
 20
-13.55
 30
0.0
 10
-10.5
 20
-13.55
 30
0.0
 10
-10.5
 20
-13.55
 30
0.0
 10
-10.5
 20
-13.55
 30
0.0
 10
-10.35
 20
-13.55
 30
0.0
 10
-10.35
 20
-13.55
 30
0.0
 10
-10.35
 20
-13.55
 30
0.0
 10
-10.35
 20
-13.55
 30
0.0
 10
-10.35
 20
-13.59015
 30
0.0
 10
-10.35
 20
-13.59015
 30
0.0
 10
-10.35
 20
-13.59015
 30
0.0
 10
-10.30447
 20
-13.6165
 30
0.0
 10
-10.2665
 20
-13.65447
 30
0.0
 10
-10.24015
 20
-13.7
 30
0.0
 10
-10.24015
 20
-13.7
 30
0.0
 10
-10.24015
 20
-13.7
 30
0.0
 10
-10.2
 20
-13.7
 30
0.0
 10
-10.2
 20
-13.7
 30
0.0
 10
-10.2
 20
-13.7
 30
0.0
 10
-10.2
 20
-13.7
 30
0.0
 10
-10.2
 20
-13.85
 30
0.0
 10
-10.2
 20
-13.85
 30
0.0
 10
-10.2
 20
-13.85
 30
0.0
 10
-10.2
 20
-13.85
 30
0.0
 10
-10.2
 20
-14.0
 30
0.0
 10
-10.2
 20
-14.0
 30
0.0
 10
-10.2
 20
-14.0
 30
0.0
 10
-10.2
 20
-14.0
 30
0.0
 10
-10.24015
 20
-14.0
 30
0.0
 10
-10.24015
 20
-14.0
 30
0.0
 10
-10.24015
 20
-14.0
 30
0.0
 10
-10.2665
 20
-14.04553
 30
0.0
 10
-10.30447
 20
-14.0835
 30
0.0
 10
-10.35
 20
-14.10985
 30
0.0
 10
-10.35
 20
-14.10985
 30
0.0
 10
-10.35
 20
-14.10985
 30
0.0
 10
-10.35
 20
-14.15
 30
0.0
 10
-10.35
 20
-14.15
 30
0.0
 10
-10.35
 20
-14.15
 30
0.0
 10
-10.35
 20
-14.15
 30
0.0
 10
-10.5
 20
-14.15
 30
0.0
 10
-10.5
 20
-14.15
 30
0.0
 10
-10.5
 20
-14.15
 30
0.0
 10
-10.5
 20
-14.15
 30
0.0
 10
-10.65
 20
-14.15
 30
0.0
 10
-10.65
 20
-14.15
 30
0.0
 10
-10.65
 20
-14.15
 30
0.0
 10
-10.65
 20
-14.15
 30
0.0
 10
-10.65
 20
-14.10985
 30
0.0
 10
-10.65
 20
-14.10985
 30
0.0
 10
-10.65
 20
-14.10985
 30
0.0
 10
-10.69553
 20
-14.0835
 30
0.0
 10
-10.7335
 20
-14.04553
 30
0.0
 10
-10.75985
 20
-14.0
 30
0.0
 10
-10.75985
 20
-14.0
 30
0.0
 10
-10.75985
 20
-14.0
 30
0.0
 10
-10.8
 20
-14.0
 30
0.0
 10
-10.8
 20
-14.0
 30
0.0
 10
-10.8
 20
-14.0
 30
0.0
 10
-10.8
 20
-14.0
 30
0.0
 10
-10.8
 20
-13.85
 30
0.0
 10
-10.8
 20
-13.85
 30
0.0
 10
-10.8
 20
-13.85
 30
0.0
 10
-10.8
 20
-13.85
 30
0.0
 10
-10.8
 20
-13.7
 30
0.0
 10
-10.8
 20
-13.7
 30
0.0
  0
LWPOLYLINE
  5
67
330
1F
100
AcDbEntity
  8
Layer 1
 62
   250
370
    53
100
AcDbPolyline
 90
        5
 70
     1
 43
0.0
 10
-10.65
 20
-15.15
 10
-10.35
 20
-15.15
 10
-10.35
 20
-14.55
 10
-10.65
 20
-14.55
 10
-10.65
 20
-15.15
  0
SPLINE
  5
68
330
1F
100
AcDbEntity
  8
Layer 1
370
    53
100
AcDbSpline
210
0.0
220
0.0
230
1.0
 70
    11
 71
     3
 72
    84
 73
    80
 74
     0
 42
0.0000000001
 43
0.0000000001
 40
0.0
 40
0.0
 40
0.0
 40
0.0
 40
0.05
 40
0.05
 40
0.05
 40
0.05
 40
0.1
 40
0.1
 40
0.1
 40
0.1
 40
0.15
 40
0.15
 40
0.15
 40
0.15
 40
0.2
 40
0.2
 40
0.2
 40
0.2
 40
0.25
 40
0.25
 40
0.25
 40
0.25
 40
0.3
 40
0.3
 40
0.3
 40
0.3
 40
0.35
 40
0.35
 40
0.35
 40
0.35
 40
0.4
 40
0.4
 40
0.4
 40
0.4
 40
0.45
 40
0.45
 40
0.45
 40
0.45
 40
0.4999999999999999
 40
0.4999999999999999
 40
0.4999999999999999
 40
0.4999999999999999
 40
0.5499999999999999
 40
0.5499999999999999
 40
0.5499999999999999
 40
0.5499999999999999
 40
0.6
 40
0.6
 40
0.6
 40
0.6
 40
0.65
 40
0.65
 40
0.65
 40
0.65
 40
0.7000000000000001
 40
0.7000000000000001
 40
0.7000000000000001
 40
0.7000000000000001
 40
0.7500000000000001
 40
0.7500000000000001
 40
0.7500000000000001
 40
0.7500000000000001
 40
0.8000000000000002
 40
0.8000000000000002
 40
0.8000000000000002
 40
0.8000000000000002
 40
0.8500000000000002
 40
0.8500000000000002
 40
0.8500000000000002
 40
0.8500000000000002
 40
0.9000000000000002
 40
0.9000000000000002
 40
0.9000000000000002
 40
0.9000000000000002
 40
0.9500000000000003
 40
0.9500000000000003
 40
0.9500000000000003
 40
0.9500000000000003
 40
1.0
 40
1.0
 40
1.0
 40
1.0
 10
-8.8
 20
-15.7
 30
0.0
 10
-8.8
 20
-15.7
 30
0.0
 10
-8.75985
 20
-15.7
 30
0.0
 10
-8.75985
 20
-15.7
 30
0.0
 10
-8.75985
 20
-15.7
 30
0.0
 10
-8.7335
 20
-15.65447
 30
0.0
 10
-8.69553
 20
-15.6165
 30
0.0
 10
-8.65
 20
-15.59015
 30
0.0
 10
-8.65
 20
-15.59015
 30
0.0
 10
-8.65
 20
-15.59015
 30
0.0
 10
-8.65
 20
-15.55
 30
0.0
 10
-8.65
 20
-15.55
 30
0.0
 10
-8.65
 20
-15.55
 30
0.0
 10
-8.65
 20
-15.55
 30
0.0
 10
-8.5
 20
-15.55
 30
0.0
 10
-8.5
 20
-15.55
 30
0.0
 10
-8.5
 20
-15.55
 30
0.0
 10
-8.5
 20
-15.55
 30
0.0
 10
-8.35
 20
-15.55
 30
0.0
 10
-8.35
 20
-15.55
 30
0.0
 10
-8.35
 20
-15.55
 30
0.0
 10
-8.35
 20
-15.55
 30
0.0
 10
-8.35
 20
-15.59015
 30
0.0
 10
-8.35
 20
-15.59015
 30
0.0
 10
-8.35
 20
-15.59015
 30
0.0
 10
-8.30447
 20
-15.6165
 30
0.0
 10
-8.2665
 20
-15.65447
 30
0.0
 10
-8.24015
 20
-15.7
 30
0.0
 10
-8.24015
 20
-15.7
 30
0.0
 10
-8.24015
 20
-15.7
 30
0.0
 10
-8.2
 20
-15.7
 30
0.0
 10
-8.2
 20
-15.7
 30
0.0
 10
-8.2
 20
-15.7
 30
0.0
 10
-8.2
 20
-15.7
 30
0.0
 10
-8.2
 20
-15.85
 30
0.0
 10
-8.2
 20
-15.85
 30
0.0
 10
-8.2
 20
-15.85
 30
0.0
 10
-8.2
 20
-15.85
 30
0.0
 10
-8.2
 20
-16.0
 30
0.0
 10
-8.2
 20
-16.0
 30
0.0
 10
-8.2
 20
-16.0
 30
0.0
 10
-8.2
 20
-16.0
 30
0.0
 10
-8.24015
 20
-16.0
 30
0.0
 10
-8.24015
 20
-16.0
 30
0.0
 10
-8.24015
 20
-16.0
 30
0.0
 10
-8.2665
 20
-16.04553
 30
0.0
 10
-8.30447
 20
-16.0835
 30
0.0
 10
-8.35
 20
-16.10985
 30
0.0
 10
-8.35
 20
-16.10985
 30
0.0
 10
-8.35
 20
-16.10985
 30
0.0
 10
-8.35
 20
-16.15
 30
0.0
 10
-8.35
 20
-16.15
 30
0.0
 10
-8.35
 20
-16.15
 30
0.0
 10
-8.35
 20
-16.15
 30
0.0
 10
-8.5
 20
-16.15
 30
0.0
 10
-8.5
 20
-16.15
 30
0.0
 10
-8.5
 20
-16.15
 30
0.0
 10
-8.5
 20
-16.15
 30
0.0
 10
-8.65
 20
-16.15
 30
0.0
 10
-8.65
 20
-16.15
 30
0.0
 10
-8.65
 20
-16.15
 30
0.0
 10
-8.65
 20
-16.15
 30
0.0
 10
-8.65
 20
-16.10985
 30
0.0
 10
-8.65
 20
-16.10985
 30
0.0
 10
-8.65
 20
-16.10985
 30
0.0
 10
-8.69553
 20
-16.0835
 30
0.0
 10
-8.7335
 20
-16.04553
 30
0.0
 10
-8.75985
 20
-16.0
 30
0.0
 10
-8.75985
 20
-16.0
 30
0.0
 10
-8.75985
 20
-16.0
 30
0.0
 10
-8.8
 20
-16.0
 30
0.0
 10
-8.8
 20
-16.0
 30
0.0
 10
-8.8
 20
-16.0
 30
0.0
 10
-8.8
 20
-16.0
 30
0.0
 10
-8.8
 20
-15.85
 30
0.0
 10
-8.8
 20
-15.85
 30
0.0
 10
-8.8
 20
-15.85
 30
0.0
 10
-8.8
 20
-15.85
 30
0.0
 10
-8.8
 20
-15.7
 30
0.0
 10
-8.8
 20
-15.7
 30
0.0
  0
SPLINE
  5
69
330
1F
100
AcDbEntity
  8
Layer 1
370
    53
100
AcDbSpline
210
0.0
220
0.0
230
1.0
 70
    11
 71
     3
 72
    84
 73
    80
 74
     0
 42
0.0000000001
 43
0.0000000001
 40
0.0
 40
0.0
 40
0.0
 40
0.0
 40
0.05
 40
0.05
 40
0.05
 40
0.05
 40
0.1
 40
0.1
 40
0.1
 40
0.1
 40
0.15
 40
0.15
 40
0.15
 40
0.15
 40
0.2
 40
0.2
 40
0.2
 40
0.2
 40
0.25
 40
0.25
 40
0.25
 40
0.25
 40
0.3
 40
0.3
 40
0.3
 40
0.3
 40
0.35
 40
0.35
 40
0.35
 40
0.35
 40
0.4
 40
0.4
 40
0.4
 40
0.4
 40
0.45
 40
0.45
 40
0.45
 40
0.45
 40
0.4999999999999999
 40
0.4999999999999999
 40
0.4999999999999999
 40
0.4999999999999999
 40
0.5499999999999999
 40
0.5499999999999999
 40
0.5499999999999999
 40
0.5499999999999999
 40
0.6
 40
0.6
 40
0.6
 40
0.6
 40
0.65
 40
0.65
 40
0.65
 40
0.65
 40
0.7000000000000001
 40
0.7000000000000001
 40
0.7000000000000001
 40
0.7000000000000001
 40
0.7500000000000001
 40
0.7500000000000001
 40
0.7500000000000001
 40
0.7500000000000001
 40
0.8000000000000002
 40
0.8000000000000002
 40
0.8000000000000002
 40
0.8000000000000002
 40
0.8500000000000002
 40
0.8500000000000002
 40
0.8500000000000002
 40
0.8500000000000002
 40
0.9000000000000002
 40
0.9000000000000002
 40
0.9000000000000002
 40
0.9000000000000002
 40
0.9500000000000003
 40
0.9500000000000003
 40
0.9500000000000003
 40
0.9500000000000003
 40
1.0
 40
1.0
 40
1.0
 40
1.0
 10
-8.8
 20
-13.7
 30
0.0
 10
-8.8
 20
-13.7
 30
0.0
 10
-8.75985
 20
-13.7
 30
0.0
 10
-8.75985
 20
-13.7
 30
0.0
 10
-8.75985
 20
-13.7
 30
0.0
 10
-8.7335
 20
-13.65447
 30
0.0
 10
-8.69553
 20
-13.6165
 30
0.0
 10
-8.65
 20
-13.59015
 30
0.0
 10
-8.65
 20
-13.59015
 30
0.0
 10
-8.65
 20
-13.59015
 30
0.0
 10
-8.65
 20
-13.55
 30
0.0
 10
-8.65
 20
-13.55
 30
0.0
 10
-8.65
 20
-13.55
 30
0.0
 10
-8.65
 20
-13.55
 30
0.0
 10
-8.5
 20
-13.55
 30
0.0
 10
-8.5
 20
-13.55
 30
0.0
 10
-8.5
 20
-13.55
 30
0.0
 10
-8.5
 20
-13.55
 30
0.0
 10
-8.35
 20
-13.55
 30
0.0
 10
-8.35
 20
-13.55
 30
0.0
 10
-8.35
 20
-13.55
 30
0.0
 10
-8.35
 20
-13.55
 30
0.0
 10
-8.35
 20
-13.59015
 30
0.0
 10
-8.35
 20
-13.59015
 30
0.0
 10
-8.35
 20
-13.59015
 30
0.0
 10
-8.30447
 20
-13.6165
 30
0.0
 10
-8.2665
 20
-13.65447
 30
0.0
 10
-8.24015
 20
-13.7
 30
0.0
 10
-8.24015
 20
-13.7
 30
0.0
 10
-8.24015
 20
-13.7
 30
0.0
 10
-8.2
 20
-13.7
 30
0.0
 10
-8.2
 20
-13.7
 30
0.0
 10
-8.2
 20
-13.7
 30
0.0
 10
-8.2
 20
-13.7
 30
0.0
 10
-8.2
 20
-13.85
 30
0.0
 10
-8.2
 20
-13.85
 30
0.0
 10
-8.2
 20
-13.85
 30
0.0
 10
-8.2
 20
-13.85
 30
0.0
 10
-8.2
 20
-14.0
 30
0.0
 10
-8.2
 20
-14.0
 30
0.0
 10
-8.2
 20
-14.0
 30
0.0
 10
-8.2
 20
-14.0
 30
0.0
 10
-8.24015
 20
-14.0
 30
0.0
 10
-8.24015
 20
-14.0
 30
0.0
 10
-8.24015
 20
-14.0
 30
0.0
 10
-8.2665
 20
-14.04553
 30
0.0
 10
-8.30447
 20
-14.0835
 30
0.0
 10
-8.35
 20
-14.10985
 30
0.0
 10
-8.35
 20
-14.10985
 30
0.0
 10
-8.35
 20
-14.10985
 30
0.0
 10
-8.35
 20
-14.15
 30
0.0
 10
-8.35
 20
-14.15
 30
0.0
 10
-8.35
 20
-14.15
 30
0.0
 10
-8.35
 20
-14.15
 30
0.0
 10
-8.5
 20
-14.15
 30
0.0
 10
-8.5
 20
-14.15
 30
0.0
 10
-8.5
 20
-14.15
 30
0.0
 10
-8.5
 20
-14.15
 30
0.0
 10
-8.65
 20
-14.15
 30
0.0
 10
-8.65
 20
-14.15
 30
0.0
 10
-8.65
 20
-14.15
 30
0.0
 10
-8.65
 20
-14.15
 30
0.0
 10
-8.65
 20
-14.10985
 30
0.0
 10
-8.65
 20
-14.10985
 30
0.0
 10
-8.65
 20
-14.10985
 30
0.0
 10
-8.69553
 20
-14.0835
 30
0.0
 10
-8.7335
 20
-14.04553
 30
0.0
 10
-8.75985
 20
-14.0
 30
0.0
 10
-8.75985
 20
-14.0
 30
0.0
 10
-8.75985
 20
-14.0
 30
0.0
 10
-8.8
 20
-14.0
 30
0.0
 10
-8.8
 20
-14.0
 30
0.0
 10
-8.8
 20
-14.0
 30
0.0
 10
-8.8
 20
-14.0
 30
0.0
 10
-8.8
 20
-13.85
 30
0.0
 10
-8.8
 20
-13.85
 30
0.0
 10
-8.8
 20
-13.85
 30
0.0
 10
-8.8
 20
-13.85
 30
0.0
 10
-8.8
 20
-13.7
 30
0.0
 10
-8.8
 20
-13.7
 30
0.0
  0
LWPOLYLINE
  5
6A
330
1F
100
AcDbEntity
  8
Layer 1
 62
   250
370
    53
100
AcDbPolyline
 90
        5
 70
     1
 43
0.0
 10
-8.65
 20
-15.15
 10
-8.35
 20
-15.15
 10
-8.35
 20
-14.55
 10
-8.65
 20
-14.55
 10
-8.65
 20
-15.15
  0
SPLINE
  5
6B
330
1F
100
AcDbEntity
  8
Layer 1
370
    53
100
AcDbSpline
210
0.0
220
0.0
230
1.0
 70
    11
 71
     3
 72
    84
 73
    80
 74
     0
 42
0.0000000001
 43
0.0000000001
 40
0.0
 40
0.0
 40
0.0
 40
0.0
 40
0.05
 40
0.05
 40
0.05
 40
0.05
 40
0.1
 40
0.1
 40
0.1
 40
0.1
 40
0.15
 40
0.15
 40
0.15
 40
0.15
 40
0.2
 40
0.2
 40
0.2
 40
0.2
 40
0.25
 40
0.25
 40
0.25
 40
0.25
 40
0.3
 40
0.3
 40
0.3
 40
0.3
 40
0.35
 40
0.35
 40
0.35
 40
0.35
 40
0.4
 40
0.4
 40
0.4
 40
0.4
 40
0.45
 40
0.45
 40
0.45
 40
0.45
 40
0.4999999999999999
 40
0.4999999999999999
 40
0.4999999999999999
 40
0.4999999999999999
 40
0.5499999999999999
 40
0.5499999999999999
 40
0.5499999999999999
 40
0.5499999999999999
 40
0.6
 40
0.6
 40
0.6
 40
0.6
 40
0.65
 40
0.65
 40
0.65
 40
0.65
 40
0.7000000000000001
 40
0.7000000000000001
 40
0.7000000000000001
 40
0.7000000000000001
 40
0.7500000000000001
 40
0.7500000000000001
 40
0.7500000000000001
 40
0.7500000000000001
 40
0.8000000000000002
 40
0.8000000000000002
 40
0.8000000000000002
 40
0.8000000000000002
 40
0.8500000000000002
 40
0.8500000000000002
 40
0.8500000000000002
 40
0.8500000000000002
 40
0.9000000000000002
 40
0.9000000000000002
 40
0.9000000000000002
 40
0.9000000000000002
 40
0.9500000000000003
 40
0.9500000000000003
 40
0.9500000000000003
 40
0.9500000000000003
 40
1.0
 40
1.0
 40
1.0
 40
1.0
 10
-6.8
 20
-15.7
 30
0.0
 10
-6.8
 20
-15.7
 30
0.0
 10
-6.75985
 20
-15.7
 30
0.0
 10
-6.75985
 20
-15.7
 30
0.0
 10
-6.75985
 20
-15.7
 30
0.0
 10
-6.7335
 20
-15.65447
 30
0.0
 10
-6.69553
 20
-15.6165
 30
0.0
 10
-6.65
 20
-15.59015
 30
0.0
 10
-6.65
 20
-15.59015
 30
0.0
 10
-6.65
 20
-15.59015
 30
0.0
 10
-6.65
 20
-15.55
 30
0.0
 10
-6.65
 20
-15.55
 30
0.0
 10
-6.65
 20
-15.55
 30
0.0
 10
-6.65
 20
-15.55
 30
0.0
 10
-6.5
 20
-15.55
 30
0.0
 10
-6.5
 20
-15.55
 30
0.0
 10
-6.5
 20
-15.55
 30
0.0
 10
-6.5
 20
-15.55
 30
0.0
 10
-6.35
 20
-15.55
 30
0.0
 10
-6.35
 20
-15.55
 30
0.0
 10
-6.35
 20
-15.55
 30
0.0
 10
-6.35
 20
-15.55
 30
0.0
 10
-6.35
 20
-15.59015
 30
0.0
 10
-6.35
 20
-15.59015
 30
0.0
 10
-6.35
 20
-15.59015
 30
0.0
 10
-6.30447
 20
-15.6165
 30
0.0
 10
-6.2665
 20
-15.65447
 30
0.0
 10
-6.24015
 20
-15.7
 30
0.0
 10
-6.24015
 20
-15.7
 30
0.0
 10
-6.24015
 20
-15.7
 30
0.0
 10
-6.2
 20
-15.7
 30
0.0
 10
-6.2
 20
-15.7
 30
0.0
 10
-6.2
 20
-15.7
 30
0.0
 10
-6.2
 20
-15.7
 30
0.0
 10
-6.2
 20
-15.85
 30
0.0
 10
-6.2
 20
-15.85
 30
0.0
 10
-6.2
 20
-15.85
 30
0.0
 10
-6.2
 20
-15.85
 30
0.0
 10
-6.2
 20
-16.0
 30
0.0
 10
-6.2
 20
-16.0
 30
0.0
 10
-6.2
 20
-16.0
 30
0.0
 10
-6.2
 20
-16.0
 30
0.0
 10
-6.24015
 20
-16.0
 30
0.0
 10
-6.24015
 20
-16.0
 30
0.0
 10
-6.24015
 20
-16.0
 30
0.0
 10
-6.2665
 20
-16.04553
 30
0.0
 10
-6.30447
 20
-16.0835
 30
0.0
 10
-6.35
 20
-16.10985
 30
0.0
 10
-6.35
 20
-16.10985
 30
0.0
 10
-6.35
 20
-16.10985
 30
0.0
 10
-6.35
 20
-16.15
 30
0.0
 10
-6.35
 20
-16.15
 30
0.0
 10
-6.35
 20
-16.15
 30
0.0
 10
-6.35
 20
-16.15
 30
0.0
 10
-6.5
 20
-16.15
 30
0.0
 10
-6.5
 20
-16.15
 30
0.0
 10
-6.5
 20
-16.15
 30
0.0
 10
-6.5
 20
-16.15
 30
0.0
 10
-6.65
 20
-16.15
 30
0.0
 10
-6.65
 20
-16.15
 30
0.0
 10
-6.65
 20
-16.15
 30
0.0
 10
-6.65
 20
-16.15
 30
0.0
 10
-6.65
 20
-16.10985
 30
0.0
 10
-6.65
 20
-16.10985
 30
0.0
 10
-6.65
 20
-16.10985
 30
0.0
 10
-6.69553
 20
-16.0835
 30
0.0
 10
-6.7335
 20
-16.04553
 30
0.0
 10
-6.75985
 20
-16.0
 30
0.0
 10
-6.75985
 20
-16.0
 30
0.0
 10
-6.75985
 20
-16.0
 30
0.0
 10
-6.8
 20
-16.0
 30
0.0
 10
-6.8
 20
-16.0
 30
0.0
 10
-6.8
 20
-16.0
 30
0.0
 10
-6.8
 20
-16.0
 30
0.0
 10
-6.8
 20
-15.85
 30
0.0
 10
-6.8
 20
-15.85
 30
0.0
 10
-6.8
 20
-15.85
 30
0.0
 10
-6.8
 20
-15.85
 30
0.0
 10
-6.8
 20
-15.7
 30
0.0
 10
-6.8
 20
-15.7
 30
0.0
  0
SPLINE
  5
6C
330
1F
100
AcDbEntity
  8
Layer 1
370
    53
100
AcDbSpline
210
0.0
220
0.0
230
1.0
 70
    11
 71
     3
 72
    84
 73
    80
 74
     0
 42
0.0000000001
 43
0.0000000001
 40
0.0
 40
0.0
 40
0.0
 40
0.0
 40
0.05
 40
0.05
 40
0.05
 40
0.05
 40
0.1
 40
0.1
 40
0.1
 40
0.1
 40
0.15
 40
0.15
 40
0.15
 40
0.15
 40
0.2
 40
0.2
 40
0.2
 40
0.2
 40
0.25
 40
0.25
 40
0.25
 40
0.25
 40
0.3
 40
0.3
 40
0.3
 40
0.3
 40
0.35
 40
0.35
 40
0.35
 40
0.35
 40
0.4
 40
0.4
 40
0.4
 40
0.4
 40
0.45
 40
0.45
 40
0.45
 40
0.45
 40
0.4999999999999999
 40
0.4999999999999999
 40
0.4999999999999999
 40
0.4999999999999999
 40
0.5499999999999999
 40
0.5499999999999999
 40
0.5499999999999999
 40
0.5499999999999999
 40
0.6
 40
0.6
 40
0.6
 40
0.6
 40
0.65
 40
0.65
 40
0.65
 40
0.65
 40
0.7000000000000001
 40
0.7000000000000001
 40
0.7000000000000001
 40
0.7000000000000001
 40
0.7500000000000001
 40
0.7500000000000001
 40
0.7500000000000001
 40
0.7500000000000001
 40
0.8000000000000002
 40
0.8000000000000002
 40
0.8000000000000002
 40
0.8000000000000002
 40
0.8500000000000002
 40
0.8500000000000002
 40
0.8500000000000002
 40
0.8500000000000002
 40
0.9000000000000002
 40
0.9000000000000002
 40
0.9000000000000002
 40
0.9000000000000002
 40
0.9500000000000003
 40
0.9500000000000003
 40
0.9500000000000003
 40
0.9500000000000003
 40
1.0
 40
1.0
 40
1.0
 40
1.0
 10
-6.8
 20
-13.7
 30
0.0
 10
-6.8
 20
-13.7
 30
0.0
 10
-6.75985
 20
-13.7
 30
0.0
 10
-6.75985
 20
-13.7
 30
0.0
 10
-6.75985
 20
-13.7
 30
0.0
 10
-6.7335
 20
-13.65447
 30
0.0
 10
-6.69553
 20
-13.6165
 30
0.0
 10
-6.65
 20
-13.59015
 30
0.0
 10
-6.65
 20
-13.59015
 30
0.0
 10
-6.65
 20
-13.59015
 30
0.0
 10
-6.65
 20
-13.55
 30
0.0
 10
-6.65
 20
-13.55
 30
0.0
 10
-6.65
 20
-13.55
 30
0.0
 10
-6.65
 20
-13.55
 30
0.0
 10
-6.5
 20
-13.55
 30
0.0
 10
-6.5
 20
-13.55
 30
0.0
 10
-6.5
 20
-13.55
 30
0.0
 10
-6.5
 20
-13.55
 30
0.0
 10
-6.35
 20
-13.55
 30
0.0
 10
-6.35
 20
-13.55
 30
0.0
 10
-6.35
 20
-13.55
 30
0.0
 10
-6.35
 20
-13.55
 30
0.0
 10
-6.35
 20
-13.59015
 30
0.0
 10
-6.35
 20
-13.59015
 30
0.0
 10
-6.35
 20
-13.59015
 30
0.0
 10
-6.30447
 20
-13.6165
 30
0.0
 10
-6.2665
 20
-13.65447
 30
0.0
 10
-6.24015
 20
-13.7
 30
0.0
 10
-6.24015
 20
-13.7
 30
0.0
 10
-6.24015
 20
-13.7
 30
0.0
 10
-6.2
 20
-13.7
 30
0.0
 10
-6.2
 20
-13.7
 30
0.0
 10
-6.2
 20
-13.7
 30
0.0
 10
-6.2
 20
-13.7
 30
0.0
 10
-6.2
 20
-13.85
 30
0.0
 10
-6.2
 20
-13.85
 30
0.0
 10
-6.2
 20
-13.85
 30
0.0
 10
-6.2
 20
-13.85
 30
0.0
 10
-6.2
 20
-14.0
 30
0.0
 10
-6.2
 20
-14.0
 30
0.0
 10
-6.2
 20
-14.0
 30
0.0
 10
-6.2
 20
-14.0
 30
0.0
 10
-6.24015
 20
-14.0
 30
0.0
 10
-6.24015
 20
-14.0
 30
0.0
 10
-6.24015
 20
-14.0
 30
0.0
 10
-6.2665
 20
-14.04553
 30
0.0
 10
-6.30447
 20
-14.0835
 30
0.0
 10
-6.35
 20
-14.10985
 30
0.0
 10
-6.35
 20
-14.10985
 30
0.0
 10
-6.35
 20
-14.10985
 30
0.0
 10
-6.35
 20
-14.15
 30
0.0
 10
-6.35
 20
-14.15
 30
0.0
 10
-6.35
 20
-14.15
 30
0.0
 10
-6.35
 20
-14.15
 30
0.0
 10
-6.5
 20
-14.15
 30
0.0
 10
-6.5
 20
-14.15
 30
0.0
 10
-6.5
 20
-14.15
 30
0.0
 10
-6.5
 20
-14.15
 30
0.0
 10
-6.65
 20
-14.15
 30
0.0
 10
-6.65
 20
-14.15
 30
0.0
 10
-6.65
 20
-14.15
 30
0.0
 10
-6.65
 20
-14.15
 30
0.0
 10
-6.65
 20
-14.10985
 30
0.0
 10
-6.65
 20
-14.10985
 30
0.0
 10
-6.65
 20
-14.10985
 30
0.0
 10
-6.69553
 20
-14.0835
 30
0.0
 10
-6.7335
 20
-14.04553
 30
0.0
 10
-6.75985
 20
-14.0
 30
0.0
 10
-6.75985
 20
-14.0
 30
0.0
 10
-6.75985
 20
-14.0
 30
0.0
 10
-6.8
 20
-14.0
 30
0.0
 10
-6.8
 20
-14.0
 30
0.0
 10
-6.8
 20
-14.0
 30
0.0
 10
-6.8
 20
-14.0
 30
0.0
 10
-6.8
 20
-13.85
 30
0.0
 10
-6.8
 20
-13.85
 30
0.0
 10
-6.8
 20
-13.85
 30
0.0
 10
-6.8
 20
-13.85
 30
0.0
 10
-6.8
 20
-13.7
 30
0.0
 10
-6.8
 20
-13.7
 30
0.0
  0
LWPOLYLINE
  5
6D
330
1F
100
AcDbEntity
  8
Layer 1
 62
   250
370
    53
100
AcDbPolyline
 90
        5
 70
     1
 43
0.0
 10
-6.65
 20
-15.15
 10
-6.35
 20
-15.15
 10
-6.35
 20
-14.55
 10
-6.65
 20
-14.55
 10
-6.65
 20
-15.15
  0
LWPOLYLINE
  5
6E
330
1F
100
AcDbEntity
  8
Layer 1
 62
   250
370
    53
100
AcDbPolyline
 90
        5
 70
     1
 43
0.0
 10
-13.8
 20
-16.0
 10
-13.2
 20
-16.0
 10
-13.2
 20
-15.7
 10
-13.8
 20
-15.7
 10
-13.8
 20
-16.0
  0
LWPOLYLINE
  5
6F
330
1F
100
AcDbEntity
  8
Layer 1
 62
   250
370
    53
100
AcDbPolyline
 90
        5
 70
     1
 43
0.0
 10
-11.8
 20
-16.0
 10
-11.2
 20
-16.0
 10
-11.2
 20
-15.7
 10
-11.8
 20
-15.7
 10
-11.8
 20
-16.0
  0
LWPOLYLINE
  5
70
330
1F
100
AcDbEntity
  8
Layer 1
 62
   250
370
    53
100
AcDbPolyline
 90
        5
 70
     1
 43
0.0
 10
-9.8
 20
-16.0
 10
-9.2
 20
-16.0
 10
-9.2
 20
-15.7
 10
-9.8
 20
-15.7
 10
-9.8
 20
-16.0
  0
LWPOLYLINE
  5
71
330
1F
100
AcDbEntity
  8
Layer 1
 62
   250
370
    53
100
AcDbPolyline
 90
        5
 70
     1
 43
0.0
 10
-7.8
 20
-16.0
 10
-7.2
 20
-16.0
 10
-7.2
 20
-15.7
 10
-7.8
 20
-15.7
 10
-7.8
 20
-16.0
  0
LWPOLYLINE
  5
72
330
1F
100
AcDbEntity
  8
Layer 1
 62
   250
370
    53
100
AcDbPolyline
 90
        5
 70
     1
 43
0.0
 10
-13.8
 20
-14.0
 10
-13.2
 20
-14.0
 10
-13.2
 20
-13.7
 10
-13.8
 20
-13.7
 10
-13.8
 20
-14.0
  0
LWPOLYLINE
  5
73
330
1F
100
AcDbEntity
  8
Layer 1
 62
   250
370
    53
100
AcDbPolyline
 90
        5
 70
     1
 43
0.0
 10
-11.8
 20
-14.0
 10
-11.2
 20
-14.0
 10
-11.2
 20
-13.7
 10
-11.8
 20
-13.7
 10
-11.8
 20
-14.0
  0
LWPOLYLINE
  5
74
330
1F
100
AcDbEntity
  8
Layer 1
 62
   250
370
    53
100
AcDbPolyline
 90
        5
 70
     1
 43
0.0
 10
-9.8
 20
-14.0
 10
-9.2
 20
-14.0
 10
-9.2
 20
-13.7
 10
-9.8
 20
-13.7
 10
-9.8
 20
-14.0
  0
LWPOLYLINE
  5
75
330
1F
100
AcDbEntity
  8
Layer 1
 62
   250
370
    53
100
AcDbPolyline
 90
        5
 70
     1
 43
0.0
 10
-7.8
 20
-14.0
 10
-7.2
 20
-14.0
 10
-7.2
 20
-13.7
 10
-7.8
 20
-13.7
 10
-7.8
 20
-14.0
  0
SPLINE
  5
76
330
1F
100
AcDbEntity
  8
Layer 1
 62
     5
370
    53
100
AcDbSpline
210
0.0
220
0.0
230
1.0
 70
    11
 71
     3
 72
    92
 73
    88
 74
     0
 42
0.0000000001
 43
0.0000000001
 40
0.0
 40
0.0
 40
0.0
 40
0.0
 40
0.0454545454545455
 40
0.0454545454545455
 40
0.0454545454545455
 40
0.0454545454545455
 40
0.0909090909090909
 40
0.0909090909090909
 40
0.0909090909090909
 40
0.0909090909090909
 40
0.1363636363636364
 40
0.1363636363636364
 40
0.1363636363636364
 40
0.1363636363636364
 40
0.1818181818181818
 40
0.1818181818181818
 40
0.1818181818181818
 40
0.1818181818181818
 40
0.2272727272727273
 40
0.2272727272727273
 40
0.2272727272727273
 40
0.2272727272727273
 40
0.2727272727272728
 40
0.2727272727272728
 40
0.2727272727272728
 40
0.2727272727272728
 40
0.3181818181818182
 40
0.3181818181818182
 40
0.3181818181818182
 40
0.3181818181818182
 40
0.3636363636363637
 40
0.3636363636363637
 40
0.3636363636363637
 40
0.3636363636363637
 40
0.4090909090909092
 40
0.4090909090909092
 40
0.4090909090909092
 40
0.4090909090909092
 40
0.4545454545454546
 40
0.4545454545454546
 40
0.4545454545454546
 40
0.4545454545454546
 40
0.5000000000000001
 40
0.5000000000000001
 40
0.5000000000000001
 40
0.5000000000000001
 40
0.5454545454545455
 40
0.5454545454545455
 40
0.5454545454545455
 40
0.5454545454545455
 40
0.5909090909090909
 40
0.5909090909090909
 40
0.5909090909090909
 40
0.5909090909090909
 40
0.6363636363636364
 40
0.6363636363636364
 40
0.6363636363636364
 40
0.6363636363636364
 40
0.6818181818181818
 40
0.6818181818181818
 40
0.6818181818181818
 40
0.6818181818181818
 40
0.7272727272727272
 40
0.7272727272727272
 40
0.7272727272727272
 40
0.7272727272727272
 40
0.7727272727272726
 40
0.7727272727272726
 40
0.7727272727272726
 40
0.7727272727272726
 40
0.818181818181818
 40
0.818181818181818
 40
0.818181818181818
 40
0.818181818181818
 40
0.8636363636363634
 40
0.8636363636363634
 40
0.8636363636363634
 40
0.8636363636363634
 40
0.9090909090909088
 40
0.9090909090909088
 40
0.9090909090909088
 40
0.9090909090909088
 40
0.9545454545454543
 40
0.9545454545454543
 40
0.9545454545454543
 40
0.9545454545454543
 40
1.0
 40
1.0
 40
1.0
 40
1.0
 10
-13.71759
 20
-14.71432
 30
0.0
 10
-13.71759
 20
-14.71432
 30
0.0
 10
-13.71759
 20
-14.4091
 30
0.0
 10
-13.71759
 20
-14.4091
 30
0.0
 10
-13.71759
 20
-14.4091
 30
0.0
 10
-13.71759
 20
-14.4091
 30
0.0
 10
-13.62022
 20
-14.4091
 30
0.0
 10
-13.62022
 20
-14.4091
 30
0.0
 10
-13.62022
 20
-14.4091
 30
0.0
 10
-13.60075
 20
-14.40917
 30
0.0
 10
-13.58474
 20
-14.41136
 30
0.0
 10
-13.57211
 20
-14.41559
 30
0.0
 10
-13.57211
 20
-14.41559
 30
0.0
 10
-13.55955
 20
-14.41975
 30
0.0
 10
-13.54967
 20
-14.42554
 30
0.0
 10
-13.54254
 20
-14.43288
 30
0.0
 10
-13.54254
 20
-14.43288
 30
0.0
 10
-13.53542
 20
-14.44014
 30
0.0
 10
-13.53034
 20
-14.44847
 30
0.0
 10
-13.52723
 20
-14.45785
 30
0.0
 10
-13.52723
 20
-14.45785
 30
0.0
 10
-13.5242
 20
-14.46724
 30
0.0
 10
-13.52244
 20
-14.47704
 30
0.0
 10
-13.52201
 20
-14.48742
 30
0.0
 10
-13.52201
 20
-14.48742
 30
0.0
 10
-13.52152
 20
-14.49779
 30
0.0
 10
-13.52272
 20
-14.50795
 30
0.0
 10
-13.52554
 20
-14.51782
 30
0.0
 10
-13.52554
 20
-14.51782
 30
0.0
 10
-13.52843
 20
-14.5277
 30
0.0
 10
-13.5333
 20
-14.53666
 30
0.0
 10
-13.54029
 20
-14.54471
 30
0.0
 10
-13.54029
 20
-14.54471
 30
0.0
 10
-13.5472
 20
-14.55275
 30
0.0
 10
-13.55658
 20
-14.55917
 30
0.0
 10
-13.56837
 20
-14.5639
 30
0.0
 10
-13.56837
 20
-14.5639
 30
0.0
 10
-13.58015
 20
-14.56869
 30
0.0
 10
-13.59475
 20
-14.57109
 30
0.0
 10
-13.61218
 20
-14.57123
 30
0.0
 10
-13.61218
 20
-14.57123
 30
0.0
 10
-13.61218
 20
-14.57123
 30
0.0
 10
-13.71759
 20
-14.57123
 30
0.0
 10
-13.71759
 20
-14.57123
 30
0.0
 10
-13.71759
 20
-14.57123
 30
0.0
 10
-13.71759
 20
-14.57123
 30
0.0
 10
-13.61218
 20
-14.57123
 30
0.0
 10
-13.61218
 20
-14.57123
 30
0.0
 10
-13.61218
 20
-14.57123
 30
0.0
 10
-13.59511
 20
-14.57109
 30
0.0
 10
-13.58064
 20
-14.56869
 30
0.0
 10
-13.56893
 20
-14.5639
 30
0.0
 10
-13.56893
 20
-14.5639
 30
0.0
 10
-13.55715
 20
-14.55917
 30
0.0
 10
-13.54776
 20
-14.55275
 30
0.0
 10
-13.54071
 20
-14.54471
 30
0.0
 10
-13.54071
 20
-14.54471
 30
0.0
 10
-13.53372
 20
-14.53666
 30
0.0
 10
-13.52871
 20
-14.5277
 30
0.0
 10
-13.52575
 20
-14.51782
 30
0.0
 10
-13.52575
 20
-14.51782
 30
0.0
 10
-13.52279
 20
-14.50795
 30
0.0
 10
-13.52152
 20
-14.49779
 30
0.0
 10
-13.52201
 20
-14.48742
 30
0.0
 10
-13.52201
 20
-14.48742
 30
0.0
 10
-13.52244
 20
-14.47704
 30
0.0
 10
-13.5242
 20
-14.46724
 30
0.0
 10
-13.52737
 20
-14.45785
 30
0.0
 10
-13.52737
 20
-14.45785
 30
0.0
 10
-13.53048
 20
-14.44847
 30
0.0
 10
-13.5357
 20
-14.44014
 30
0.0
 10
-13.54283
 20
-14.43288
 30
0.0
 10
-13.54283
 20
-14.43288
 30
0.0
 10
-13.55002
 20
-14.42554
 30
0.0
 10
-13.5599
 20
-14.41975
 30
0.0
 10
-13.57246
 20
-14.41559
 30
0.0
 10
-13.57246
 20
-14.41559
 30
0.0
 10
-13.58509
 20
-14.41136
 30
0.0
 10
-13.60096
 20
-14.40917
 30
0.0
 10
-13.62022
 20
-14.4091
 30
0.0
 10
-13.62022
 20
-14.4091
 30
0.0
 10
-13.62022
 20
-14.4091
 30
0.0
 10
-13.71759
 20
-14.4091
 30
0.0
 10
-13.71759
 20
-14.4091
 30
0.0
 10
-13.71759
 20
-14.4091
 30
0.0
 10
-13.71759
 20
-14.4091
 30
0.0
 10
-13.71759
 20
-14.71432
 30
0.0
 10
-13.71759
 20
-14.71432
 30
0.0
  0
SPLINE
  5
77
330
1F
100
AcDbEntity
  8
Layer 1
 62
     5
370
    53
100
AcDbSpline
210
0.0
220
0.0
230
1.0
 70
    11
 71
     3
 72
    20
 73
    16
 74
     0
 42
0.0000000001
 43
0.0000000001
 40
0.0
 40
0.0
 40
0.0
 40
0.0
 40
0.25
 40
0.25
 40
0.25
 40
0.25
 40
0.5
 40
0.5
 40
0.5
 40
0.5
 40
0.75
 40
0.75
 40
0.75
 40
0.75
 40
1.0
 40
1.0
 40
1.0
 40
1.0
 10
-13.19309
 20
-14.71432
 30
0.0
 10
-13.19309
 20
-14.71432
 30
0.0
 10
-13.37131
 20
-14.71432
 30
0.0
 10
-13.37131
 20
-14.71432
 30
0.0
 10
-13.37131
 20
-14.71432
 30
0.0
 10
-13.37131
 20
-14.71432
 30
0.0
 10
-13.37131
 20
-14.4091
 30
0.0
 10
-13.37131
 20
-14.4091
 30
0.0
 10
-13.37131
 20
-14.4091
 30
0.0
 10
-13.37131
 20
-14.4091
 30
0.0
 10
-13.37131
 20
-14.71432
 30
0.0
 10
-13.37131
 20
-14.71432
 30
0.0
 10
-13.37131
 20
-14.71432
 30
0.0
 10
-13.37131
 20
-14.71432
 30
0.0
 10
-13.19309
 20
-14.71432
 30
0.0
 10
-13.19309
 20
-14.71432
 30
0.0
  0
SPLINE
  5
78
330
1F
100
AcDbEntity
  8
Layer 1
 62
     5
370
    53
100
AcDbSpline
210
0.0
220
0.0
230
1.0
 70
    11
 71
     3
 72
    84
 73
    80
 74
     0
 42
0.0000000001
 43
0.0000000001
 40
0.0
 40
0.0
 40
0.0
 40
0.0
 40
0.05
 40
0.05
 40
0.05
 40
0.05
 40
0.1
 40
0.1
 40
0.1
 40
0.1
 40
0.15
 40
0.15
 40
0.15
 40
0.15
 40
0.2
 40
0.2
 40
0.2
 40
0.2
 40
0.25
 40
0.25
 40
0.25
 40
0.25
 40
0.3
 40
0.3
 40
0.3
 40
0.3
 40
0.35
 40
0.35
 40
0.35
 40
0.35
 40
0.4
 40
0.4
 40
0.4
 40
0.4
 40
0.45
 40
0.45
 40
0.45
 40
0.45
 40
0.4999999999999999
 40
0.4999999999999999
 40
0.4999999999999999
 40
0.4999999999999999
 40
0.5499999999999999
 40
0.5499999999999999
 40
0.5499999999999999
 40
0.5499999999999999
 40
0.6
 40
0.6
 40
0.6
 40
0.6
 40
0.65
 40
0.65
 40
0.65
 40
0.65
 40
0.7000000000000001
 40
0.7000000000000001
 40
0.7000000000000001
 40
0.7000000000000001
 40
0.7500000000000001
 40
0.7500000000000001
 40
0.7500000000000001
 40
0.7500000000000001
 40
0.8000000000000002
 40
0.8000000000000002
 40
0.8000000000000002
 40
0.8000000000000002
 40
0.8500000000000002
 40
0.8500000000000002
 40
0.8500000000000002
 40
0.8500000000000002
 40
0.9000000000000002
 40
0.9000000000000002
 40
0.9000000000000002
 40
0.9000000000000002
 40
0.9500000000000003
 40
0.9500000000000003
 40
0.9500000000000003
 40
0.9500000000000003
 40
1.0
 40
1.0
 40
1.0
 40
1.0
 10
-14.01117
 20
-15.28963
 30
0.0
 10
-13.99636
 20
-15.28956
 30
0.0
 10
-13.98359
 20
-15.28695
 30
0.0
 10
-13.97293
 20
-15.28187
 30
0.0
 10
-13.97293
 20
-15.28187
 30
0.0
 10
-13.96235
 20
-15.27679
 30
0.0
 10
-13.95353
 20
-15.26952
 30
0.0
 10
-13.94648
 20
-15.26028
 30
0.0
 10
-13.94648
 20
-15.26028
 30
0.0
 10
-13.93949
 20
-15.25097
 30
0.0
 10
-13.93399
 20
-15.23996
 30
0.0
 10
-13.9299
 20
-15.22726
 30
0.0
 10
-13.9299
 20
-15.22726
 30
0.0
 10
-13.92587
 20
-15.21456
 30
0.0
 10
-13.92298
 20
-15.20066
 30
0.0
 10
-13.92136
 20
-15.18542
 30
0.0
 10
-13.92136
 20
-15.18542
 30
0.0
 10
-13.91966
 20
-15.17018
 30
0.0
 10
-13.91882
 20
-15.15416
 30
0.0
 10
-13.91889
 20
-15.13723
 30
0.0
 10
-13.91889
 20
-15.13723
 30
0.0
 10
-13.91882
 20
-15.12037
 30
0.0
 10
-13.91966
 20
-15.10435
 30
0.0
 10
-13.92136
 20
-15.08918
 30
0.0
 10
-13.92136
 20
-15.08918
 30
0.0
 10
-13.92298
 20
-15.07401
 30
0.0
 10
-13.92587
 20
-15.06004
 30
0.0
 10
-13.9299
 20
-15.04734
 30
0.0
 10
-13.9299
 20
-15.04734
 30
0.0
 10
-13.93399
 20
-15.03471
 30
0.0
 10
-13.93949
 20
-15.02371
 30
0.0
 10
-13.94648
 20
-15.01432
 30
0.0
 10
-13.94648
 20
-15.01432
 30
0.0
 10
-13.95353
 20
-15.00501
 30
0.0
 10
-13.96235
 20
-14.99774
 30
0.0
 10
-13.97293
 20
-14.99266
 30
0.0
 10
-13.97293
 20
-14.99266
 30
0.0
 10
-13.98359
 20
-14.98751
 30
0.0
 10
-13.99636
 20
-14.9849
 30
0.0
 10
-14.01117
 20
-14.98483
 30
0.0
 10
-14.01117
 20
-14.98483
 30
0.0
 10
-14.02599
 20
-14.9849
 30
0.0
 10
-14.03876
 20
-14.98751
 30
0.0
 10
-14.04942
 20
-14.99266
 30
0.0
 10
-14.04942
 20
-14.99266
 30
0.0
 10
-14.06
 20
-14.99774
 30
0.0
 10
-14.06882
 20
-15.00501
 30
0.0
 10
-14.07587
 20
-15.01432
 30
0.0
 10
-14.07587
 20
-15.01432
 30
0.0
 10
-14.08286
 20
-15.02371
 30
0.0
 10
-14.08836
 20
-15.03471
 30
0.0
 10
-14.09245
 20
-15.04734
 30
0.0
 10
-14.09245
 20
-15.04734
 30
0.0
 10
-14.09648
 20
-15.06004
 30
0.0
 10
-14.09937
 20
-15.07401
 30
0.0
 10
-14.10099
 20
-15.08918
 30
0.0
 10
-14.10099
 20
-15.08918
 30
0.0
 10
-14.10268
 20
-15.10435
 30
0.0
 10
-14.10353
 20
-15.12037
 30
0.0
 10
-14.10346
 20
-15.13723
 30
0.0
 10
-14.10346
 20
-15.13723
 30
0.0
 10
-14.10353
 20
-15.15416
 30
0.0
 10
-14.10268
 20
-15.17018
 30
0.0
 10
-14.10099
 20
-15.18542
 30
0.0
 10
-14.10099
 20
-15.18542
 30
0.0
 10
-14.09937
 20
-15.20066
 30
0.0
 10
-14.09648
 20
-15.21456
 30
0.0
 10
-14.09245
 20
-15.22726
 30
0.0
 10
-14.09245
 20
-15.22726
 30
0.0
 10
-14.08836
 20
-15.23996
 30
0.0
 10
-14.08286
 20
-15.25097
 30
0.0
 10
-14.07587
 20
-15.26028
 30
0.0
 10
-14.07587
 20
-15.26028
 30
0.0
 10
-14.06882
 20
-15.26952
 30
0.0
 10
-14.06
 20
-15.27679
 30
0.0
 10
-14.04942
 20
-15.28187
 30
0.0
 10
-14.04942
 20
-15.28187
 30
0.0
 10
-14.03876
 20
-15.28695
 30
0.0
 10
-14.02599
 20
-15.28956
 30
0.0
 10
-14.01117
 20
-15.28963
 30
0.0
  0
SPLINE
  5
79
330
1F
100
AcDbEntity
  8
Layer 1
 62
     5
370
    53
100
AcDbSpline
210
0.0
220
0.0
230
1.0
 70
    11
 71
     3
 72
    84
 73
    80
 74
     0
 42
0.0000000001
 43
0.0000000001
 40
0.0
 40
0.0
 40
0.0
 40
0.0
 40
0.05
 40
0.05
 40
0.05
 40
0.05
 40
0.1
 40
0.1
 40
0.1
 40
0.1
 40
0.15
 40
0.15
 40
0.15
 40
0.15
 40
0.2
 40
0.2
 40
0.2
 40
0.2
 40
0.25
 40
0.25
 40
0.25
 40
0.25
 40
0.3
 40
0.3
 40
0.3
 40
0.3
 40
0.35
 40
0.35
 40
0.35
 40
0.35
 40
0.4
 40
0.4
 40
0.4
 40
0.4
 40
0.45
 40
0.45
 40
0.45
 40
0.45
 40
0.4999999999999999
 40
0.4999999999999999
 40
0.4999999999999999
 40
0.4999999999999999
 40
0.5499999999999999
 40
0.5499999999999999
 40
0.5499999999999999
 40
0.5499999999999999
 40
0.6
 40
0.6
 40
0.6
 40
0.6
 40
0.65
 40
0.65
 40
0.65
 40
0.65
 40
0.7000000000000001
 40
0.7000000000000001
 40
0.7000000000000001
 40
0.7000000000000001
 40
0.7500000000000001
 40
0.7500000000000001
 40
0.7500000000000001
 40
0.7500000000000001
 40
0.8000000000000002
 40
0.8000000000000002
 40
0.8000000000000002
 40
0.8000000000000002
 40
0.8500000000000002
 40
0.8500000000000002
 40
0.8500000000000002
 40
0.8500000000000002
 40
0.9000000000000002
 40
0.9000000000000002
 40
0.9000000000000002
 40
0.9000000000000002
 40
0.9500000000000003
 40
0.9500000000000003
 40
0.9500000000000003
 40
0.9500000000000003
 40
1.0
 40
1.0
 40
1.0
 40
1.0
 10
-14.01117
 20
-15.28963
 30
0.0
 10
-13.99636
 20
-15.28956
 30
0.0
 10
-13.98359
 20
-15.28695
 30
0.0
 10
-13.97293
 20
-15.28187
 30
0.0
 10
-13.97293
 20
-15.28187
 30
0.0
 10
-13.96235
 20
-15.27679
 30
0.0
 10
-13.95353
 20
-15.26952
 30
0.0
 10
-13.94648
 20
-15.26028
 30
0.0
 10
-13.94648
 20
-15.26028
 30
0.0
 10
-13.93949
 20
-15.25097
 30
0.0
 10
-13.93399
 20
-15.23996
 30
0.0
 10
-13.9299
 20
-15.22726
 30
0.0
 10
-13.9299
 20
-15.22726
 30
0.0
 10
-13.92587
 20
-15.21456
 30
0.0
 10
-13.92298
 20
-15.20066
 30
0.0
 10
-13.92136
 20
-15.18542
 30
0.0
 10
-13.92136
 20
-15.18542
 30
0.0
 10
-13.91966
 20
-15.17018
 30
0.0
 10
-13.91882
 20
-15.15416
 30
0.0
 10
-13.91889
 20
-15.13723
 30
0.0
 10
-13.91889
 20
-15.13723
 30
0.0
 10
-13.91882
 20
-15.12037
 30
0.0
 10
-13.91966
 20
-15.10435
 30
0.0
 10
-13.92136
 20
-15.08918
 30
0.0
 10
-13.92136
 20
-15.08918
 30
0.0
 10
-13.92298
 20
-15.07401
 30
0.0
 10
-13.92587
 20
-15.06004
 30
0.0
 10
-13.9299
 20
-15.04734
 30
0.0
 10
-13.9299
 20
-15.04734
 30
0.0
 10
-13.93399
 20
-15.03471
 30
0.0
 10
-13.93949
 20
-15.02371
 30
0.0
 10
-13.94648
 20
-15.01432
 30
0.0
 10
-13.94648
 20
-15.01432
 30
0.0
 10
-13.95353
 20
-15.00501
 30
0.0
 10
-13.96235
 20
-14.99774
 30
0.0
 10
-13.97293
 20
-14.99266
 30
0.0
 10
-13.97293
 20
-14.99266
 30
0.0
 10
-13.98359
 20
-14.98751
 30
0.0
 10
-13.99636
 20
-14.9849
 30
0.0
 10
-14.01117
 20
-14.98483
 30
0.0
 10
-14.01117
 20
-14.98483
 30
0.0
 10
-14.02599
 20
-14.9849
 30
0.0
 10
-14.03876
 20
-14.98751
 30
0.0
 10
-14.04942
 20
-14.99266
 30
0.0
 10
-14.04942
 20
-14.99266
 30
0.0
 10
-14.06
 20
-14.99774
 30
0.0
 10
-14.06882
 20
-15.00501
 30
0.0
 10
-14.07587
 20
-15.01432
 30
0.0
 10
-14.07587
 20
-15.01432
 30
0.0
 10
-14.08286
 20
-15.02371
 30
0.0
 10
-14.08836
 20
-15.03471
 30
0.0
 10
-14.09245
 20
-15.04734
 30
0.0
 10
-14.09245
 20
-15.04734
 30
0.0
 10
-14.09648
 20
-15.06004
 30
0.0
 10
-14.09937
 20
-15.07401
 30
0.0
 10
-14.10099
 20
-15.08918
 30
0.0
 10
-14.10099
 20
-15.08918
 30
0.0
 10
-14.10268
 20
-15.10435
 30
0.0
 10
-14.10353
 20
-15.12037
 30
0.0
 10
-14.10346
 20
-15.13723
 30
0.0
 10
-14.10346
 20
-15.13723
 30
0.0
 10
-14.10353
 20
-15.15416
 30
0.0
 10
-14.10268
 20
-15.17018
 30
0.0
 10
-14.10099
 20
-15.18542
 30
0.0
 10
-14.10099
 20
-15.18542
 30
0.0
 10
-14.09937
 20
-15.20066
 30
0.0
 10
-14.09648
 20
-15.21456
 30
0.0
 10
-14.09245
 20
-15.22726
 30
0.0
 10
-14.09245
 20
-15.22726
 30
0.0
 10
-14.08836
 20
-15.23996
 30
0.0
 10
-14.08286
 20
-15.25097
 30
0.0
 10
-14.07587
 20
-15.26028
 30
0.0
 10
-14.07587
 20
-15.26028
 30
0.0
 10
-14.06882
 20
-15.26952
 30
0.0
 10
-14.06
 20
-15.27679
 30
0.0
 10
-14.04942
 20
-15.28187
 30
0.0
 10
-14.04942
 20
-15.28187
 30
0.0
 10
-14.03876
 20
-15.28695
 30
0.0
 10
-14.02599
 20
-15.28956
 30
0.0
 10
-14.01117
 20
-15.28963
 30
0.0
  0
SPLINE
  5
7A
330
1F
100
AcDbEntity
  8
Layer 1
 62
     5
370
    53
100
AcDbSpline
210
0.0
220
0.0
230
1.0
 70
    11
 71
     3
 72
   180
 73
   176
 74
     0
 42
0.0000000001
 43
0.0000000001
 40
0.0
 40
0.0
 40
0.0
 40
0.0
 40
0.0227272727272727
 40
0.0227272727272727
 40
0.0227272727272727
 40
0.0227272727272727
 40
0.0454545454545455
 40
0.0454545454545455
 40
0.0454545454545455
 40
0.0454545454545455
 40
0.0681818181818182
 40
0.0681818181818182
 40
0.0681818181818182
 40
0.0681818181818182
 40
0.0909090909090909
 40
0.0909090909090909
 40
0.0909090909090909
 40
0.0909090909090909
 40
0.1136363636363636
 40
0.1136363636363636
 40
0.1136363636363636
 40
0.1136363636363636
 40
0.1363636363636364
 40
0.1363636363636364
 40
0.1363636363636364
 40
0.1363636363636364
 40
0.1590909090909091
 40
0.1590909090909091
 40
0.1590909090909091
 40
0.1590909090909091
 40
0.1818181818181819
 40
0.1818181818181819
 40
0.1818181818181819
 40
0.1818181818181819
 40
0.2045454545454546
 40
0.2045454545454546
 40
0.2045454545454546
 40
0.2045454545454546
 40
0.2272727272727273
 40
0.2272727272727273
 40
0.2272727272727273
 40
0.2272727272727273
 40
0.2500000000000001
 40
0.2500000000000001
 40
0.2500000000000001
 40
0.2500000000000001
 40
0.2727272727272728
 40
0.2727272727272728
 40
0.2727272727272728
 40
0.2727272727272728
 40
0.2954545454545455
 40
0.2954545454545455
 40
0.2954545454545455
 40
0.2954545454545455
 40
0.3181818181818182
 40
0.3181818181818182
 40
0.3181818181818182
 40
0.3181818181818182
 40
0.3409090909090909
 40
0.3409090909090909
 40
0.3409090909090909
 40
0.3409090909090909
 40
0.3636363636363636
 40
0.3636363636363636
 40
0.3636363636363636
 40
0.3636363636363636
 40
0.3863636363636363
 40
0.3863636363636363
 40
0.3863636363636363
 40
0.3863636363636363
 40
0.409090909090909
 40
0.409090909090909
 40
0.409090909090909
 40
0.409090909090909
 40
0.4318181818181817
 40
0.4318181818181817
 40
0.4318181818181817
 40
0.4318181818181817
 40
0.4545454545454544
 40
0.4545454545454544
 40
0.4545454545454544
 40
0.4545454545454544
 40
0.4772727272727271
 40
0.4772727272727271
 40
0.4772727272727271
 40
0.4772727272727271
 40
0.4999999999999998
 40
0.4999999999999998
 40
0.4999999999999998
 40
0.4999999999999998
 40
0.5227272727272726
 40
0.5227272727272726
 40
0.5227272727272726
 40
0.5227272727272726
 40
0.5454545454545453
 40
0.5454545454545453
 40
0.5454545454545453
 40
0.5454545454545453
 40
0.568181818181818
 40
0.568181818181818
 40
0.568181818181818
 40
0.568181818181818
 40
0.5909090909090907
 40
0.5909090909090907
 40
0.5909090909090907
 40
0.5909090909090907
 40
0.6136363636363634
 40
0.6136363636363634
 40
0.6136363636363634
 40
0.6136363636363634
 40
0.6363636363636361
 40
0.6363636363636361
 40
0.6363636363636361
 40
0.6363636363636361
 40
0.6590909090909088
 40
0.6590909090909088
 40
0.6590909090909088
 40
0.6590909090909088
 40
0.6818181818181815
 40
0.6818181818181815
 40
0.6818181818181815
 40
0.6818181818181815
 40
0.7045454545454543
 40
0.7045454545454543
 40
0.7045454545454543
 40
0.7045454545454543
 40
0.727272727272727
 40
0.727272727272727
 40
0.727272727272727
 40
0.727272727272727
 40
0.7499999999999997
 40
0.7499999999999997
 40
0.7499999999999997
 40
0.7499999999999997
 40
0.7727272727272724
 40
0.7727272727272724
 40
0.7727272727272724
 40
0.7727272727272724
 40
0.7954545454545451
 40
0.7954545454545451
 40
0.7954545454545451
 40
0.7954545454545451
 40
0.8181818181818178
 40
0.8181818181818178
 40
0.8181818181818178
 40
0.8181818181818178
 40
0.8409090909090905
 40
0.8409090909090905
 40
0.8409090909090905
 40
0.8409090909090905
 40
0.8636363636363632
 40
0.8636363636363632
 40
0.8636363636363632
 40
0.8636363636363632
 40
0.8863636363636359
 40
0.8863636363636359
 40
0.8863636363636359
 40
0.8863636363636359
 40
0.9090909090909086
 40
0.9090909090909086
 40
0.9090909090909086
 40
0.9090909090909086
 40
0.9318181818181813
 40
0.9318181818181813
 40
0.9318181818181813
 40
0.9318181818181813
 40
0.954545454545454
 40
0.954545454545454
 40
0.954545454545454
 40
0.954545454545454
 40
0.9772727272727267
 40
0.9772727272727267
 40
0.9772727272727267
 40
0.9772727272727267
 40
1.0
 40
1.0
 40
1.0
 40
1.0
 10
-13.64711
 20
-14.98441
 30
0.0
 10
-13.64711
 20
-14.98441
 30
0.0
 10
-13.77411
 20
-14.98441
 30
0.0
 10
-13.77411
 20
-14.98441
 30
0.0
 10
-13.77411
 20
-14.98441
 30
0.0
 10
-13.77411
 20
-14.98441
 30
0.0
 10
-13.80798
 20
-15.13596
 30
0.0
 10
-13.80798
 20
-15.13596
 30
0.0
 10
-13.80798
 20
-15.13596
 30
0.0
 10
-13.80205
 20
-15.13088
 30
0.0
 10
-13.79641
 20
-15.1263
 30
0.0
 10
-13.79097
 20
-15.12227
 30
0.0
 10
-13.79097
 20
-15.12227
 30
0.0
 10
-13.78561
 20
-15.11825
 30
0.0
 10
-13.77997
 20
-15.11487
 30
0.0
 10
-13.77397
 20
-15.11204
 30
0.0
 10
-13.77397
 20
-15.11204
 30
0.0
 10
-13.76804
 20
-15.10922
 30
0.0
 10
-13.76127
 20
-15.1071
 30
0.0
 10
-13.75365
 20
-15.10562
 30
0.0
 10
-13.75365
 20
-15.10562
 30
0.0
 10
-13.7461
 20
-15.10414
 30
0.0
 10
-13.73707
 20
-15.10336
 30
0.0
 10
-13.7267
 20
-15.10336
 30
0.0
 10
-13.7267
 20
-15.10336
 30
0.0
 10
-13.71823
 20
-15.10336
 30
0.0
 10
-13.70976
 20
-15.10449
 30
0.0
 10
-13.7013
 20
-15.10682
 30
0.0
 10
-13.7013
 20
-15.10682
 30
0.0
 10
-13.69283
 20
-15.10908
 30
0.0
 10
-13.68479
 20
-15.11254
 30
0.0
 10
-13.67717
 20
-15.11712
 30
0.0
 10
-13.67717
 20
-15.11712
 30
0.0
 10
-13.66948
 20
-15.12178
 30
0.0
 10
-13.6627
 20
-15.12757
 30
0.0
 10
-13.65678
 20
-15.13455
 30
0.0
 10
-13.65678
 20
-15.13455
 30
0.0
 10
-13.65078
 20
-15.14154
 30
0.0
 10
-13.64605
 20
-15.14972
 30
0.0
 10
-13.64267
 20
-15.1591
 30
0.0
 10
-13.64267
 20
-15.1591
 30
0.0
 10
-13.63921
 20
-15.16849
 30
0.0
 10
-13.63745
 20
-15.17914
 30
0.0
 10
-13.63738
 20
-15.19099
 30
0.0
 10
-13.63738
 20
-15.19099
 30
0.0
 10
-13.6373
 20
-15.19537
 30
0.0
 10
-13.6378
 20
-15.20087
 30
0.0
 10
-13.63879
 20
-15.20736
 30
0.0
 10
-13.63879
 20
-15.20736
 30
0.0
 10
-13.6397
 20
-15.21385
 30
0.0
 10
-13.6414
 20
-15.22091
 30
0.0
 10
-13.6438
 20
-15.22839
 30
0.0
 10
-13.6438
 20
-15.22839
 30
0.0
 10
-13.64619
 20
-15.23587
 30
0.0
 10
-13.64958
 20
-15.24328
 30
0.0
 10
-13.65388
 20
-15.25061
 30
0.0
 10
-13.65388
 20
-15.25061
 30
0.0
 10
-13.65819
 20
-15.25795
 30
0.0
 10
-13.66369
 20
-15.26465
 30
0.0
 10
-13.67032
 20
-15.27072
 30
0.0
 10
-13.67032
 20
-15.27072
 30
0.0
 10
-13.67696
 20
-15.27679
 30
0.0
 10
-13.685
 20
-15.28166
 30
0.0
 10
-13.69438
 20
-15.28533
 30
0.0
 10
-13.69438
 20
-15.28533
 30
0.0
 10
-13.70384
 20
-15.28892
 30
0.0
 10
-13.71492
 20
-15.29083
 30
0.0
 10
-13.72754
 20
-15.2909
 30
0.0
 10
-13.72754
 20
-15.2909
 30
0.0
 10
-13.74264
 20
-15.29083
 30
0.0
 10
-13.75534
 20
-15.28921
 30
0.0
 10
-13.76564
 20
-15.28617
 30
0.0
 10
-13.76564
 20
-15.28617
 30
0.0
 10
-13.77595
 20
-15.28307
 30
0.0
 10
-13.78434
 20
-15.27905
 30
0.0
 10
-13.79083
 20
-15.27397
 30
0.0
 10
-13.79083
 20
-15.27397
 30
0.0
 10
-13.79739
 20
-15.26889
 30
0.0
 10
-13.80247
 20
-15.26331
 30
0.0
 10
-13.80614
 20
-15.25725
 30
0.0
 10
-13.80614
 20
-15.25725
 30
0.0
 10
-13.80981
 20
-15.25118
 30
0.0
 10
-13.81256
 20
-15.24511
 30
0.0
 10
-13.8144
 20
-15.23904
 30
0.0
 10
-13.8144
 20
-15.23904
 30
0.0
 10
-13.81623
 20
-15.23297
 30
0.0
 10
-13.81764
 20
-15.2274
 30
0.0
 10
-13.81856
 20
-15.22232
 30
0.0
 10
-13.81856
 20
-15.22232
 30
0.0
 10
-13.81764
 20
-15.2274
 30
0.0
 10
-13.81623
 20
-15.23297
 30
0.0
 10
-13.8144
 20
-15.23904
 30
0.0
 10
-13.8144
 20
-15.23904
 30
0.0
 10
-13.81256
 20
-15.24511
 30
0.0
 10
-13.80981
 20
-15.25118
 30
0.0
 10
-13.80614
 20
-15.25725
 30
0.0
 10
-13.80614
 20
-15.25725
 30
0.0
 10
-13.80247
 20
-15.26331
 30
0.0
 10
-13.79739
 20
-15.26889
 30
0.0
 10
-13.79083
 20
-15.27397
 30
0.0
 10
-13.79083
 20
-15.27397
 30
0.0
 10
-13.78434
 20
-15.27905
 30
0.0
 10
-13.77595
 20
-15.28307
 30
0.0
 10
-13.76564
 20
-15.28617
 30
0.0
 10
-13.76564
 20
-15.28617
 30
0.0
 10
-13.75534
 20
-15.28921
 30
0.0
 10
-13.74264
 20
-15.29083
 30
0.0
 10
-13.72754
 20
-15.2909
 30
0.0
 10
-13.72754
 20
-15.2909
 30
0.0
 10
-13.71492
 20
-15.29083
 30
0.0
 10
-13.70384
 20
-15.28892
 30
0.0
 10
-13.69438
 20
-15.28533
 30
0.0
 10
-13.69438
 20
-15.28533
 30
0.0
 10
-13.685
 20
-15.28166
 30
0.0
 10
-13.67696
 20
-15.27679
 30
0.0
 10
-13.67032
 20
-15.27072
 30
0.0
 10
-13.67032
 20
-15.27072
 30
0.0
 10
-13.66369
 20
-15.26465
 30
0.0
 10
-13.65819
 20
-15.25795
 30
0.0
 10
-13.65388
 20
-15.25061
 30
0.0
 10
-13.65388
 20
-15.25061
 30
0.0
 10
-13.64958
 20
-15.24328
 30
0.0
 10
-13.64619
 20
-15.23587
 30
0.0
 10
-13.6438
 20
-15.22839
 30
0.0
 10
-13.6438
 20
-15.22839
 30
0.0
 10
-13.6414
 20
-15.22091
 30
0.0
 10
-13.6397
 20
-15.21385
 30
0.0
 10
-13.63879
 20
-15.20736
 30
0.0
 10
-13.63879
 20
-15.20736
 30
0.0
 10
-13.6378
 20
-15.20087
 30
0.0
 10
-13.6373
 20
-15.19537
 30
0.0
 10
-13.63738
 20
-15.19099
 30
0.0
 10
-13.63738
 20
-15.19099
 30
0.0
 10
-13.63745
 20
-15.17914
 30
0.0
 10
-13.63921
 20
-15.16849
 30
0.0
 10
-13.64267
 20
-15.1591
 30
0.0
 10
-13.64267
 20
-15.1591
 30
0.0
 10
-13.64605
 20
-15.14972
 30
0.0
 10
-13.65078
 20
-15.14154
 30
0.0
 10
-13.65678
 20
-15.13455
 30
0.0
 10
-13.65678
 20
-15.13455
 30
0.0
 10
-13.6627
 20
-15.12757
 30
0.0
 10
-13.66948
 20
-15.12178
 30
0.0
 10
-13.67717
 20
-15.11712
 30
0.0
 10
-13.67717
 20
-15.11712
 30
0.0
 10
-13.68479
 20
-15.11254
 30
0.0
 10
-13.69283
 20
-15.10908
 30
0.0
 10
-13.7013
 20
-15.10682
 30
0.0
 10
-13.7013
 20
-15.10682
 30
0.0
 10
-13.70976
 20
-15.10449
 30
0.0
 10
-13.71823
 20
-15.10336
 30
0.0
 10
-13.7267
 20
-15.10336
 30
0.0
 10
-13.7267
 20
-15.10336
 30
0.0
 10
-13.73707
 20
-15.10336
 30
0.0
 10
-13.7461
 20
-15.10414
 30
0.0
 10
-13.75365
 20
-15.10562
 30
0.0
 10
-13.75365
 20
-15.10562
 30
0.0
 10
-13.76127
 20
-15.1071
 30
0.0
 10
-13.76804
 20
-15.10922
 30
0.0
 10
-13.77397
 20
-15.11204
 30
0.0
 10
-13.77397
 20
-15.11204
 30
0.0
 10
-13.77997
 20
-15.11487
 30
0.0
 10
-13.78561
 20
-15.11825
 30
0.0
 10
-13.79097
 20
-15.12227
 30
0.0
 10
-13.79097
 20
-15.12227
 30
0.0
 10
-13.79641
 20
-15.1263
 30
0.0
 10
-13.80205
 20
-15.13088
 30
0.0
 10
-13.80798
 20
-15.13596
 30
0.0
 10
-13.80798
 20
-15.13596
 30
0.0
 10
-13.80798
 20
-15.13596
 30
0.0
 10
-13.77411
 20
-14.98441
 30
0.0
 10
-13.77411
 20
-14.98441
 30
0.0
 10
-13.77411
 20
-14.98441
 30
0.0
 10
-13.77411
 20
-14.98441
 30
0.0
 10
-13.64711
 20
-14.98441
 30
0.0
 10
-13.64711
 20
-14.98441
 30
0.0
  0
SPLINE
  5
7B
330
1F
100
AcDbEntity
  8
Layer 1
 62
     5
370
    53
100
AcDbSpline
210
0.0
220
0.0
230
1.0
 70
    27
 71
     3
 72
    12
 73
     8
 74
     0
 42
0.0000000001
 43
0.0000000001
 40
0.0
 40
0.0
 40
0.0
 40
0.0
 40
0.5
 40
0.5
 40
0.5
 40
0.5
 40
1.0
 40
1.0
 40
1.0
 40
1.0
 10
-13.53747
 20
-15.13003
 30
0.0
 10
-13.53747
 20
-15.13003
 30
0.0
 10
-13.41428
 20
-15.13003
 30
0.0
 10
-13.41428
 20
-15.13003
 30
0.0
 10
-13.41428
 20
-15.13003
 30
0.0
 10
-13.41428
 20
-15.13003
 30
0.0
 10
-13.53747
 20
-15.13003
 30
0.0
 10
-13.53747
 20
-15.13003
 30
0.0
  0
SPLINE
  5
7C
330
1F
100
AcDbEntity
  8
Layer 1
 62
     5
370
    53
100
AcDbSpline
210
0.0
220
0.0
230
1.0
 70
    11
 71
     3
 72
    84
 73
    80
 74
     0
 42
0.0000000001
 43
0.0000000001
 40
0.0
 40
0.0
 40
0.0
 40
0.0
 40
0.05
 40
0.05
 40
0.05
 40
0.05
 40
0.1
 40
0.1
 40
0.1
 40
0.1
 40
0.15
 40
0.15
 40
0.15
 40
0.15
 40
0.2
 40
0.2
 40
0.2
 40
0.2
 40
0.25
 40
0.25
 40
0.25
 40
0.25
 40
0.3
 40
0.3
 40
0.3
 40
0.3
 40
0.35
 40
0.35
 40
0.35
 40
0.35
 40
0.4
 40
0.4
 40
0.4
 40
0.4
 40
0.45
 40
0.45
 40
0.45
 40
0.45
 40
0.4999999999999999
 40
0.4999999999999999
 40
0.4999999999999999
 40
0.4999999999999999
 40
0.5499999999999999
 40
0.5499999999999999
 40
0.5499999999999999
 40
0.5499999999999999
 40
0.6
 40
0.6
 40
0.6
 40
0.6
 40
0.65
 40
0.65
 40
0.65
 40
0.65
 40
0.7000000000000001
 40
0.7000000000000001
 40
0.7000000000000001
 40
0.7000000000000001
 40
0.7500000000000001
 40
0.7500000000000001
 40
0.7500000000000001
 40
0.7500000000000001
 40
0.8000000000000002
 40
0.8000000000000002
 40
0.8000000000000002
 40
0.8000000000000002
 40
0.8500000000000002
 40
0.8500000000000002
 40
0.8500000000000002
 40
0.8500000000000002
 40
0.9000000000000002
 40
0.9000000000000002
 40
0.9000000000000002
 40
0.9000000000000002
 40
0.9500000000000003
 40
0.9500000000000003
 40
0.9500000000000003
 40
0.9500000000000003
 40
1.0
 40
1.0
 40
1.0
 40
1.0
 10
-13.22505
 20
-15.28963
 30
0.0
 10
-13.21024
 20
-15.28956
 30
0.0
 10
-13.19747
 20
-15.28695
 30
0.0
 10
-13.18681
 20
-15.28187
 30
0.0
 10
-13.18681
 20
-15.28187
 30
0.0
 10
-13.17623
 20
-15.27679
 30
0.0
 10
-13.16741
 20
-15.26952
 30
0.0
 10
-13.16036
 20
-15.26028
 30
0.0
 10
-13.16036
 20
-15.26028
 30
0.0
 10
-13.15337
 20
-15.25097
 30
0.0
 10
-13.14787
 20
-15.23996
 30
0.0
 10
-13.14378
 20
-15.22726
 30
0.0
 10
-13.14378
 20
-15.22726
 30
0.0
 10
-13.13975
 20
-15.21456
 30
0.0
 10
-13.13686
 20
-15.20066
 30
0.0
 10
-13.13524
 20
-15.18542
 30
0.0
 10
-13.13524
 20
-15.18542
 30
0.0
 10
-13.13354
 20
-15.17018
 30
0.0
 10
-13.1327
 20
-15.15416
 30
0.0
 10
-13.13277
 20
-15.13723
 30
0.0
 10
-13.13277
 20
-15.13723
 30
0.0
 10
-13.1327
 20
-15.12037
 30
0.0
 10
-13.13354
 20
-15.10435
 30
0.0
 10
-13.13524
 20
-15.08918
 30
0.0
 10
-13.13524
 20
-15.08918
 30
0.0
 10
-13.13686
 20
-15.07401
 30
0.0
 10
-13.13975
 20
-15.06004
 30
0.0
 10
-13.14378
 20
-15.04734
 30
0.0
 10
-13.14378
 20
-15.04734
 30
0.0
 10
-13.14787
 20
-15.03471
 30
0.0
 10
-13.15337
 20
-15.02371
 30
0.0
 10
-13.16036
 20
-15.01432
 30
0.0
 10
-13.16036
 20
-15.01432
 30
0.0
 10
-13.16741
 20
-15.00501
 30
0.0
 10
-13.17623
 20
-14.99774
 30
0.0
 10
-13.18681
 20
-14.99266
 30
0.0
 10
-13.18681
 20
-14.99266
 30
0.0
 10
-13.19747
 20
-14.98751
 30
0.0
 10
-13.21024
 20
-14.9849
 30
0.0
 10
-13.22505
 20
-14.98483
 30
0.0
 10
-13.22505
 20
-14.98483
 30
0.0
 10
-13.23987
 20
-14.9849
 30
0.0
 10
-13.25264
 20
-14.98751
 30
0.0
 10
-13.2633
 20
-14.99266
 30
0.0
 10
-13.2633
 20
-14.99266
 30
0.0
 10
-13.27388
 20
-14.99774
 30
0.0
 10
-13.2827
 20
-15.00501
 30
0.0
 10
-13.28975
 20
-15.01432
 30
0.0
 10
-13.28975
 20
-15.01432
 30
0.0
 10
-13.29674
 20
-15.02371
 30
0.0
 10
-13.30224
 20
-15.03471
 30
0.0
 10
-13.30633
 20
-15.04734
 30
0.0
 10
-13.30633
 20
-15.04734
 30
0.0
 10
-13.31036
 20
-15.06004
 30
0.0
 10
-13.31325
 20
-15.07401
 30
0.0
 10
-13.31487
 20
-15.08918
 30
0.0
 10
-13.31487
 20
-15.08918
 30
0.0
 10
-13.31656
 20
-15.10435
 30
0.0
 10
-13.31741
 20
-15.12037
 30
0.0
 10
-13.31734
 20
-15.13723
 30
0.0
 10
-13.31734
 20
-15.13723
 30
0.0
 10
-13.31741
 20
-15.15416
 30
0.0
 10
-13.31656
 20
-15.17018
 30
0.0
 10
-13.31487
 20
-15.18542
 30
0.0
 10
-13.31487
 20
-15.18542
 30
0.0
 10
-13.31325
 20
-15.20066
 30
0.0
 10
-13.31036
 20
-15.21456
 30
0.0
 10
-13.30633
 20
-15.22726
 30
0.0
 10
-13.30633
 20
-15.22726
 30
0.0
 10
-13.30224
 20
-15.23996
 30
0.0
 10
-13.29674
 20
-15.25097
 30
0.0
 10
-13.28975
 20
-15.26028
 30
0.0
 10
-13.28975
 20
-15.26028
 30
0.0
 10
-13.2827
 20
-15.26952
 30
0.0
 10
-13.27388
 20
-15.27679
 30
0.0
 10
-13.2633
 20
-15.28187
 30
0.0
 10
-13.2633
 20
-15.28187
 30
0.0
 10
-13.25264
 20
-15.28695
 30
0.0
 10
-13.23987
 20
-15.28956
 30
0.0
 10
-13.22505
 20
-15.28963
 30
0.0
  0
SPLINE
  5
7D
330
1F
100
AcDbEntity
  8
Layer 1
 62
     5
370
    53
100
AcDbSpline
210
0.0
220
0.0
230
1.0
 70
    11
 71
     3
 72
    84
 73
    80
 74
     0
 42
0.0000000001
 43
0.0000000001
 40
0.0
 40
0.0
 40
0.0
 40
0.0
 40
0.05
 40
0.05
 40
0.05
 40
0.05
 40
0.1
 40
0.1
 40
0.1
 40
0.1
 40
0.15
 40
0.15
 40
0.15
 40
0.15
 40
0.2
 40
0.2
 40
0.2
 40
0.2
 40
0.25
 40
0.25
 40
0.25
 40
0.25
 40
0.3
 40
0.3
 40
0.3
 40
0.3
 40
0.35
 40
0.35
 40
0.35
 40
0.35
 40
0.4
 40
0.4
 40
0.4
 40
0.4
 40
0.45
 40
0.45
 40
0.45
 40
0.45
 40
0.4999999999999999
 40
0.4999999999999999
 40
0.4999999999999999
 40
0.4999999999999999
 40
0.5499999999999999
 40
0.5499999999999999
 40
0.5499999999999999
 40
0.5499999999999999
 40
0.6
 40
0.6
 40
0.6
 40
0.6
 40
0.65
 40
0.65
 40
0.65
 40
0.65
 40
0.7000000000000001
 40
0.7000000000000001
 40
0.7000000000000001
 40
0.7000000000000001
 40
0.7500000000000001
 40
0.7500000000000001
 40
0.7500000000000001
 40
0.7500000000000001
 40
0.8000000000000002
 40
0.8000000000000002
 40
0.8000000000000002
 40
0.8000000000000002
 40
0.8500000000000002
 40
0.8500000000000002
 40
0.8500000000000002
 40
0.8500000000000002
 40
0.9000000000000002
 40
0.9000000000000002
 40
0.9000000000000002
 40
0.9000000000000002
 40
0.9500000000000003
 40
0.9500000000000003
 40
0.9500000000000003
 40
0.9500000000000003
 40
1.0
 40
1.0
 40
1.0
 40
1.0
 10
-13.22505
 20
-15.28963
 30
0.0
 10
-13.21024
 20
-15.28956
 30
0.0
 10
-13.19747
 20
-15.28695
 30
0.0
 10
-13.18681
 20
-15.28187
 30
0.0
 10
-13.18681
 20
-15.28187
 30
0.0
 10
-13.17623
 20
-15.27679
 30
0.0
 10
-13.16741
 20
-15.26952
 30
0.0
 10
-13.16036
 20
-15.26028
 30
0.0
 10
-13.16036
 20
-15.26028
 30
0.0
 10
-13.15337
 20
-15.25097
 30
0.0
 10
-13.14787
 20
-15.23996
 30
0.0
 10
-13.14378
 20
-15.22726
 30
0.0
 10
-13.14378
 20
-15.22726
 30
0.0
 10
-13.13975
 20
-15.21456
 30
0.0
 10
-13.13686
 20
-15.20066
 30
0.0
 10
-13.13524
 20
-15.18542
 30
0.0
 10
-13.13524
 20
-15.18542
 30
0.0
 10
-13.13354
 20
-15.17018
 30
0.0
 10
-13.1327
 20
-15.15416
 30
0.0
 10
-13.13277
 20
-15.13723
 30
0.0
 10
-13.13277
 20
-15.13723
 30
0.0
 10
-13.1327
 20
-15.12037
 30
0.0
 10
-13.13354
 20
-15.10435
 30
0.0
 10
-13.13524
 20
-15.08918
 30
0.0
 10
-13.13524
 20
-15.08918
 30
0.0
 10
-13.13686
 20
-15.07401
 30
0.0
 10
-13.13975
 20
-15.06004
 30
0.0
 10
-13.14378
 20
-15.04734
 30
0.0
 10
-13.14378
 20
-15.04734
 30
0.0
 10
-13.14787
 20
-15.03471
 30
0.0
 10
-13.15337
 20
-15.02371
 30
0.0
 10
-13.16036
 20
-15.01432
 30
0.0
 10
-13.16036
 20
-15.01432
 30
0.0
 10
-13.16741
 20
-15.00501
 30
0.0
 10
-13.17623
 20
-14.99774
 30
0.0
 10
-13.18681
 20
-14.99266
 30
0.0
 10
-13.18681
 20
-14.99266
 30
0.0
 10
-13.19747
 20
-14.98751
 30
0.0
 10
-13.21024
 20
-14.9849
 30
0.0
 10
-13.22505
 20
-14.98483
 30
0.0
 10
-13.22505
 20
-14.98483
 30
0.0
 10
-13.23987
 20
-14.9849
 30
0.0
 10
-13.25264
 20
-14.98751
 30
0.0
 10
-13.2633
 20
-14.99266
 30
0.0
 10
-13.2633
 20
-14.99266
 30
0.0
 10
-13.27388
 20
-14.99774
 30
0.0
 10
-13.2827
 20
-15.00501
 30
0.0
 10
-13.28975
 20
-15.01432
 30
0.0
 10
-13.28975
 20
-15.01432
 30
0.0
 10
-13.29674
 20
-15.02371
 30
0.0
 10
-13.30224
 20
-15.03471
 30
0.0
 10
-13.30633
 20
-15.04734
 30
0.0
 10
-13.30633
 20
-15.04734
 30
0.0
 10
-13.31036
 20
-15.06004
 30
0.0
 10
-13.31325
 20
-15.07401
 30
0.0
 10
-13.31487
 20
-15.08918
 30
0.0
 10
-13.31487
 20
-15.08918
 30
0.0
 10
-13.31656
 20
-15.10435
 30
0.0
 10
-13.31741
 20
-15.12037
 30
0.0
 10
-13.31734
 20
-15.13723
 30
0.0
 10
-13.31734
 20
-15.13723
 30
0.0
 10
-13.31741
 20
-15.15416
 30
0.0
 10
-13.31656
 20
-15.17018
 30
0.0
 10
-13.31487
 20
-15.18542
 30
0.0
 10
-13.31487
 20
-15.18542
 30
0.0
 10
-13.31325
 20
-15.20066
 30
0.0
 10
-13.31036
 20
-15.21456
 30
0.0
 10
-13.30633
 20
-15.22726
 30
0.0
 10
-13.30633
 20
-15.22726
 30
0.0
 10
-13.30224
 20
-15.23996
 30
0.0
 10
-13.29674
 20
-15.25097
 30
0.0
 10
-13.28975
 20
-15.26028
 30
0.0
 10
-13.28975
 20
-15.26028
 30
0.0
 10
-13.2827
 20
-15.26952
 30
0.0
 10
-13.27388
 20
-15.27679
 30
0.0
 10
-13.2633
 20
-15.28187
 30
0.0
 10
-13.2633
 20
-15.28187
 30
0.0
 10
-13.25264
 20
-15.28695
 30
0.0
 10
-13.23987
 20
-15.28956
 30
0.0
 10
-13.22505
 20
-15.28963
 30
0.0
  0
SPLINE
  5
7E
330
1F
100
AcDbEntity
  8
Layer 1
 62
     5
370
    53
100
AcDbSpline
210
0.0
220
0.0
230
1.0
 70
    11
 71
     3
 72
   172
 73
   168
 74
     0
 42
0.0000000001
 43
0.0000000001
 40
0.0
 40
0.0
 40
0.0
 40
0.0
 40
0.0238095238095238
 40
0.0238095238095238
 40
0.0238095238095238
 40
0.0238095238095238
 40
0.0476190476190476
 40
0.0476190476190476
 40
0.0476190476190476
 40
0.0476190476190476
 40
0.0714285714285714
 40
0.0714285714285714
 40
0.0714285714285714
 40
0.0714285714285714
 40
0.0952380952380952
 40
0.0952380952380952
 40
0.0952380952380952
 40
0.0952380952380952
 40
0.119047619047619
 40
0.119047619047619
 40
0.119047619047619
 40
0.119047619047619
 40
0.1428571428571428
 40
0.1428571428571428
 40
0.1428571428571428
 40
0.1428571428571428
 40
0.1666666666666667
 40
0.1666666666666667
 40
0.1666666666666667
 40
0.1666666666666667
 40
0.1904761904761905
 40
0.1904761904761905
 40
0.1904761904761905
 40
0.1904761904761905
 40
0.2142857142857143
 40
0.2142857142857143
 40
0.2142857142857143
 40
0.2142857142857143
 40
0.2380952380952381
 40
0.2380952380952381
 40
0.2380952380952381
 40
0.2380952380952381
 40
0.2619047619047619
 40
0.2619047619047619
 40
0.2619047619047619
 40
0.2619047619047619
 40
0.2857142857142857
 40
0.2857142857142857
 40
0.2857142857142857
 40
0.2857142857142857
 40
0.3095238095238095
 40
0.3095238095238095
 40
0.3095238095238095
 40
0.3095238095238095
 40
0.3333333333333334
 40
0.3333333333333334
 40
0.3333333333333334
 40
0.3333333333333334
 40
0.3571428571428572
 40
0.3571428571428572
 40
0.3571428571428572
 40
0.3571428571428572
 40
0.380952380952381
 40
0.380952380952381
 40
0.380952380952381
 40
0.380952380952381
 40
0.4047619047619049
 40
0.4047619047619049
 40
0.4047619047619049
 40
0.4047619047619049
 40
0.4285714285714287
 40
0.4285714285714287
 40
0.4285714285714287
 40
0.4285714285714287
 40
0.4523809523809526
 40
0.4523809523809526
 40
0.4523809523809526
 40
0.4523809523809526
 40
0.4761904761904764
 40
0.4761904761904764
 40
0.4761904761904764
 40
0.4761904761904764
 40
0.5000000000000002
 40
0.5000000000000002
 40
0.5000000000000002
 40
0.5000000000000002
 40
0.5238095238095241
 40
0.5238095238095241
 40
0.5238095238095241
 40
0.5238095238095241
 40
0.5476190476190479
 40
0.5476190476190479
 40
0.5476190476190479
 40
0.5476190476190479
 40
0.5714285714285717
 40
0.5714285714285717
 40
0.5714285714285717
 40
0.5714285714285717
 40
0.5952380952380956
 40
0.5952380952380956
 40
0.5952380952380956
 40
0.5952380952380956
 40
0.6190476190476194
 40
0.6190476190476194
 40
0.6190476190476194
 40
0.6190476190476194
 40
0.6428571428571432
 40
0.6428571428571432
 40
0.6428571428571432
 40
0.6428571428571432
 40
0.6666666666666671
 40
0.6666666666666671
 40
0.6666666666666671
 40
0.6666666666666671
 40
0.6904761904761909
 40
0.6904761904761909
 40
0.6904761904761909
 40
0.6904761904761909
 40
0.7142857142857147
 40
0.7142857142857147
 40
0.7142857142857147
 40
0.7142857142857147
 40
0.7380952380952386
 40
0.7380952380952386
 40
0.7380952380952386
 40
0.7380952380952386
 40
0.7619047619047624
 40
0.7619047619047624
 40
0.7619047619047624
 40
0.7619047619047624
 40
0.7857142857142863
 40
0.7857142857142863
 40
0.7857142857142863
 40
0.7857142857142863
 40
0.8095238095238101
 40
0.8095238095238101
 40
0.8095238095238101
 40
0.8095238095238101
 40
0.8333333333333339
 40
0.8333333333333339
 40
0.8333333333333339
 40
0.8333333333333339
 40
0.8571428571428578
 40
0.8571428571428578
 40
0.8571428571428578
 40
0.8571428571428578
 40
0.8809523809523816
 40
0.8809523809523816
 40
0.8809523809523816
 40
0.8809523809523816
 40
0.9047619047619054
 40
0.9047619047619054
 40
0.9047619047619054
 40
0.9047619047619054
 40
0.9285714285714293
 40
0.9285714285714293
 40
0.9285714285714293
 40
0.9285714285714293
 40
0.9523809523809531
 40
0.9523809523809531
 40
0.9523809523809531
 40
0.9523809523809531
 40
0.9761904761904769
 40
0.9761904761904769
 40
0.9761904761904769
 40
0.9761904761904769
 40
1.0
 40
1.0
 40
1.0
 40
1.0
 10
-12.85083
 20
-15.28963
 30
0.0
 10
-12.85083
 20
-15.28963
 30
0.0
 10
-13.03244
 20
-15.28963
 30
0.0
 10
-13.03244
 20
-15.28963
 30
0.0
 10
-13.03244
 20
-15.28963
 30
0.0
 10
-13.03209
 20
-15.27735
 30
0.0
 10
-13.03054
 20
-15.26649
 30
0.0
 10
-13.02792
 20
-15.25717
 30
0.0
 10
-13.02792
 20
-15.25717
 30
0.0
 10
-13.02524
 20
-15.24786
 30
0.0
 10
-13.02165
 20
-15.23968
 30
0.0
 10
-13.0172
 20
-15.23262
 30
0.0
 10
-13.0172
 20
-15.23262
 30
0.0
 10
-13.01268
 20
-15.22557
 30
0.0
 10
-13.00753
 20
-15.21929
 30
0.0
 10
-13.00168
 20
-15.21378
 30
0.0
 10
-13.00168
 20
-15.21378
 30
0.0
 10
-12.99582
 20
-15.20821
 30
0.0
 10
-12.98954
 20
-15.20313
 30
0.0
 10
-12.98277
 20
-15.19833
 30
0.0
 10
-12.98277
 20
-15.19833
 30
0.0
 10
-12.976
 20
-15.1936
 30
0.0
 10
-12.96901
 20
-15.18888
 30
0.0
 10
-12.96174
 20
-15.18422
 30
0.0
 10
-12.96174
 20
-15.18422
 30
0.0
 10
-12.96174
 20
-15.18422
 30
0.0
 10
-12.88935
 20
-15.13596
 30
0.0
 10
-12.88935
 20
-15.13596
 30
0.0
 10
-12.88935
 20
-15.13596
 30
0.0
 10
-12.88195
 20
-15.13074
 30
0.0
 10
-12.87616
 20
-15.12503
 30
0.0
 10
-12.87207
 20
-15.11889
 30
0.0
 10
-12.87207
 20
-15.11889
 30
0.0
 10
-12.86791
 20
-15.11275
 30
0.0
 10
-12.86501
 20
-15.10626
 30
0.0
 10
-12.86325
 20
-15.09941
 30
0.0
 10
-12.86325
 20
-15.09941
 30
0.0
 10
-12.86156
 20
-15.09264
 30
0.0
 10
-12.8605
 20
-15.08566
 30
0.0
 10
-12.86015
 20
-15.0786
 30
0.0
 10
-12.86015
 20
-15.0786
 30
0.0
 10
-12.85979
 20
-15.07147
 30
0.0
 10
-12.85965
 20
-15.06435
 30
0.0
 10
-12.85972
 20
-15.05722
 30
0.0
 10
-12.85972
 20
-15.05722
 30
0.0
 10
-12.85972
 20
-15.05137
 30
0.0
 10
-12.8605
 20
-15.04509
 30
0.0
 10
-12.86205
 20
-15.03831
 30
0.0
 10
-12.86205
 20
-15.03831
 30
0.0
 10
-12.86367
 20
-15.03161
 30
0.0
 10
-12.86621
 20
-15.02491
 30
0.0
 10
-12.86981
 20
-15.01828
 30
0.0
 10
-12.86981
 20
-15.01828
 30
0.0
 10
-12.87341
 20
-15.01164
 30
0.0
 10
-12.87821
 20
-15.00558
 30
0.0
 10
-12.8842
 20
-15.00007
 30
0.0
 10
-12.8842
 20
-15.00007
 30
0.0
 10
-12.8902
 20
-14.99464
 30
0.0
 10
-12.89761
 20
-14.99027
 30
0.0
 10
-12.90643
 20
-14.98695
 30
0.0
 10
-12.90643
 20
-14.98695
 30
0.0
 10
-12.91525
 20
-14.98363
 30
0.0
 10
-12.92562
 20
-14.98194
 30
0.0
 10
-12.93761
 20
-14.98187
 30
0.0
 10
-12.93761
 20
-14.98187
 30
0.0
 10
-12.94968
 20
-14.98194
 30
0.0
 10
-12.96033
 20
-14.98363
 30
0.0
 10
-12.96951
 20
-14.98688
 30
0.0
 10
-12.96951
 20
-14.98688
 30
0.0
 10
-12.97868
 20
-14.99012
 30
0.0
 10
-12.98651
 20
-14.99464
 30
0.0
 10
-12.993
 20
-15.00035
 30
0.0
 10
-12.993
 20
-15.00035
 30
0.0
 10
-12.99949
 20
-15.00607
 30
0.0
 10
-13.00471
 20
-15.0127
 30
0.0
 10
-13.0088
 20
-15.02011
 30
0.0
 10
-13.0088
 20
-15.02011
 30
0.0
 10
-13.0129
 20
-15.02752
 30
0.0
 10
-13.01586
 20
-15.03542
 30
0.0
 10
-13.01776
 20
-15.04375
 30
0.0
 10
-13.01776
 20
-15.04375
 30
0.0
 10
-13.01967
 20
-15.05207
 30
0.0
 10
-13.02059
 20
-15.06054
 30
0.0
 10
-13.02059
 20
-15.06908
 30
0.0
 10
-13.02059
 20
-15.06908
 30
0.0
 10
-13.02059
 20
-15.06054
 30
0.0
 10
-13.01967
 20
-15.05207
 30
0.0
 10
-13.01776
 20
-15.04375
 30
0.0
 10
-13.01776
 20
-15.04375
 30
0.0
 10
-13.01586
 20
-15.03542
 30
0.0
 10
-13.0129
 20
-15.02752
 30
0.0
 10
-13.0088
 20
-15.02011
 30
0.0
 10
-13.0088
 20
-15.02011
 30
0.0
 10
-13.00471
 20
-15.0127
 30
0.0
 10
-12.99949
 20
-15.00607
 30
0.0
 10
-12.993
 20
-15.00035
 30
0.0
 10
-12.993
 20
-15.00035
 30
0.0
 10
-12.98651
 20
-14.99464
 30
0.0
 10
-12.97868
 20
-14.99012
 30
0.0
 10
-12.96951
 20
-14.98688
 30
0.0
 10
-12.96951
 20
-14.98688
 30
0.0
 10
-12.96033
 20
-14.98363
 30
0.0
 10
-12.94968
 20
-14.98194
 30
0.0
 10
-12.93761
 20
-14.98187
 30
0.0
 10
-12.93761
 20
-14.98187
 30
0.0
 10
-12.92562
 20
-14.98194
 30
0.0
 10
-12.91525
 20
-14.98363
 30
0.0
 10
-12.90643
 20
-14.98695
 30
0.0
 10
-12.90643
 20
-14.98695
 30
0.0
 10
-12.89761
 20
-14.99027
 30
0.0
 10
-12.8902
 20
-14.99464
 30
0.0
 10
-12.8842
 20
-15.00007
 30
0.0
 10
-12.8842
 20
-15.00007
 30
0.0
 10
-12.87821
 20
-15.00558
 30
0.0
 10
-12.87341
 20
-15.01164
 30
0.0
 10
-12.86981
 20
-15.01828
 30
0.0
 10
-12.86981
 20
-15.01828
 30
0.0
 10
-12.86621
 20
-15.02491
 30
0.0
 10
-12.86367
 20
-15.03161
 30
0.0
 10
-12.86205
 20
-15.03831
 30
0.0
 10
-12.86205
 20
-15.03831
 30
0.0
 10
-12.8605
 20
-15.04509
 30
0.0
 10
-12.85972
 20
-15.05137
 30
0.0
 10
-12.85972
 20
-15.05722
 30
0.0
 10
-12.85972
 20
-15.05722
 30
0.0
 10
-12.85965
 20
-15.06435
 30
0.0
 10
-12.85979
 20
-15.07147
 30
0.0
 10
-12.86015
 20
-15.0786
 30
0.0
 10
-12.86015
 20
-15.0786
 30
0.0
 10
-12.8605
 20
-15.08566
 30
0.0
 10
-12.86156
 20
-15.09264
 30
0.0
 10
-12.86325
 20
-15.09941
 30
0.0
 10
-12.86325
 20
-15.09941
 30
0.0
 10
-12.86501
 20
-15.10626
 30
0.0
 10
-12.86791
 20
-15.11275
 30
0.0
 10
-12.87207
 20
-15.11889
 30
0.0
 10
-12.87207
 20
-15.11889
 30
0.0
 10
-12.87616
 20
-15.12503
 30
0.0
 10
-12.88195
 20
-15.13074
 30
0.0
 10
-12.88935
 20
-15.13596
 30
0.0
 10
-12.88935
 20
-15.13596
 30
0.0
 10
-12.88935
 20
-15.13596
 30
0.0
 10
-12.96174
 20
-15.18422
 30
0.0
 10
-12.96174
 20
-15.18422
 30
0.0
 10
-12.96174
 20
-15.18422
 30
0.0
 10
-12.96901
 20
-15.18888
 30
0.0
 10
-12.976
 20
-15.1936
 30
0.0
 10
-12.98277
 20
-15.19833
 30
0.0
 10
-12.98277
 20
-15.19833
 30
0.0
 10
-12.98954
 20
-15.20313
 30
0.0
 10
-12.99582
 20
-15.20821
 30
0.0
 10
-13.00168
 20
-15.21378
 30
0.0
 10
-13.00168
 20
-15.21378
 30
0.0
 10
-13.00753
 20
-15.21929
 30
0.0
 10
-13.01268
 20
-15.22557
 30
0.0
 10
-13.0172
 20
-15.23262
 30
0.0
 10
-13.0172
 20
-15.23262
 30
0.0
 10
-13.02165
 20
-15.23968
 30
0.0
 10
-13.02524
 20
-15.24786
 30
0.0
 10
-13.02792
 20
-15.25717
 30
0.0
 10
-13.02792
 20
-15.25717
 30
0.0
 10
-13.03054
 20
-15.26649
 30
0.0
 10
-13.03209
 20
-15.27735
 30
0.0
 10
-13.03244
 20
-15.28963
 30
0.0
 10
-13.03244
 20
-15.28963
 30
0.0
 10
-13.03244
 20
-15.28963
 30
0.0
 10
-12.85083
 20
-15.28963
 30
0.0
 10
-12.85083
 20
-15.28963
 30
0.0
  0
SPLINE
  5
7F
330
1F
100
AcDbEntity
  8
Layer 1
 62
   250
370
    53
100
AcDbSpline
210
0.0
220
0.0
230
1.0
 70
    11
 71
     3
 72
    36
 73
    32
 74
     0
 42
0.0000000001
 43
0.0000000001
 40
0.0
 40
0.0
 40
0.0
 40
0.0
 40
0.125
 40
0.125
 40
0.125
 40
0.125
 40
0.25
 40
0.25
 40
0.25
 40
0.25
 40
0.375
 40
0.375
 40
0.375
 40
0.375
 40
0.5
 40
0.5
 40
0.5
 40
0.5
 40
0.625
 40
0.625
 40
0.625
 40
0.625
 40
0.75
 40
0.75
 40
0.75
 40
0.75
 40
0.875
 40
0.875
 40
0.875
 40
0.875
 40
1.0
 40
1.0
 40
1.0
 40
1.0
 10
-15.15
 20
-16.0
 30
0.0
 10
-15.15
 20
-16.0
 30
0.0
 10
-15.15
 20
-13.7
 30
0.0
 10
-15.15
 20
-13.7
 30
0.0
 10
-15.15
 20
-13.7
 30
0.0
 10
-15.15
 20
-13.42391
 30
0.0
 10
-14.92609
 20
-13.2
 30
0.0
 10
-14.65
 20
-13.2
 30
0.0
 10
-14.65
 20
-13.2
 30
0.0
 10
-14.65
 20
-13.2
 30
0.0
 10
-6.35
 20
-13.2
 30
0.0
 10
-6.35
 20
-13.2
 30
0.0
 10
-6.35
 20
-13.2
 30
0.0
 10
-6.07391
 20
-13.2
 30
0.0
 10
-5.85
 20
-13.42391
 30
0.0
 10
-5.85
 20
-13.7
 30
0.0
 10
-5.85
 20
-13.7
 30
0.0
 10
-5.85
 20
-13.7
 30
0.0
 10
-5.85
 20
-16.0
 30
0.0
 10
-5.85
 20
-16.0
 30
0.0
 10
-5.85
 20
-16.0
 30
0.0
 10
-5.85
 20
-16.27609
 30
0.0
 10
-6.07391
 20
-16.5
 30
0.0
 10
-6.35
 20
-16.5
 30
0.0
 10
-6.35
 20
-16.5
 30
0.0
 10
-6.35
 20
-16.5
 30
0.0
 10
-14.65
 20
-16.5
 30
0.0
 10
-14.65
 20
-16.5
 30
0.0
 10
-14.65
 20
-16.5
 30
0.0
 10
-14.92609
 20
-16.5
 30
0.0
 10
-15.15
 20
-16.27609
 30
0.0
 10
-15.15
 20
-16.0
 30
0.0
  0
ENDSEC
  0
SECTION
  2
OBJECTS
  0
DICTIONARY
  5
C
330
0
100
AcDbDictionary
281
     1
  3
ACAD_GROUP
350
D
  3
ACAD_LAYOUT
350
1A
  3
ACAD_MLEADERSTYLE
350
81
  3
ACAD_MLINESTYLE
350
17
  3
ACAD_PLOTSETTINGS
350
19
  3
ACAD_PLOTSTYLENAME
350
E
  3
ACAD_SCALELIST
350
3B
  3
ACAD_TABLESTYLE
350
80
  3
ACAD_VISUALSTYLE
350
2A
  0
DICTIONARY
  5
D
102
{ACAD_REACTORS
330
C
102
}
330
C
100
AcDbDictionary
281
     1
  0
DICTIONARY
  5
1A
102
{ACAD_REACTORS
330
C
102
}
330
C
100
AcDbDictionary
281
     1
  3
Layout1
350
1E
  3
Layout2
350
26
  3
Model
350
22
  0
DICTIONARY
  5
81
102
{ACAD_REACTORS
330
C
102
}
330
C
100
AcDbDictionary
281
     1
  0
DICTIONARY
  5
17
102
{ACAD_REACTORS
330
C
102
}
330
C
100
AcDbDictionary
281
     1
  3
Standard
350
18
  0
DICTIONARY
  5
19
102
{ACAD_REACTORS
330
C
102
}
330
C
100
AcDbDictionary
281
     1
  0
ACDBDICTIONARYWDFLT
  5
E
102
{ACAD_REACTORS
330
C
102
}
330
C
100
AcDbDictionary
281
     1
  3
Normal
350
F
100
AcDbDictionaryWithDefault
340
F
  0
DICTIONARY
  5
3B
102
{ACAD_REACTORS
330
C
102
}
330
C
100
AcDbDictionary
281
     1
  3
A0
350
3C
  3
A1
350
3D
  3
A2
350
3E
  3
A3
350
3F
  3
A4
350
40
  3
A5
350
41
  3
A6
350
42
  3
A7
350
43
  3
A8
350
44
  3
A9
350
45
  3
B0
350
46
  3
B1
350
47
  3
B2
350
48
  3
B3
350
49
  3
B4
350
4A
  3
B5
350
4B
  3
B6
350
4C
  3
B7
350
4D
  3
B8
350
4E
  3
B9
350
4F
  3
C0
350
50
  3
C1
350
51
  3
C2
350
52
  3
C3
350
53
  3
C4
350
54
  3
C5
350
55
  3
C6
350
56
  3
C7
350
57
  3
C8
350
58
  3
C9
350
59
  3
D0
350
5A
  3
D1
350
5B
  3
D2
350
5C
  0
DICTIONARY
  5
80
102
{ACAD_REACTORS
330
C
102
}
330
C
100
AcDbDictionary
281
     1
  0
DICTIONARY
  5
2A
102
{ACAD_REACTORS
330
C
102
}
330
C
100
AcDbDictionary
281
     1
  3
2dWireframe
350
2F
  3
3D Hidden
350
31
  3
3dWireframe
350
30
  3
Basic
350
32
  3
Brighten
350
36
  3
ColorChange
350
3A
  3
Conceptual
350
34
  3
Dim
350
35
  3
Facepattern
350
39
  3
Flat
350
2B
  3
FlatWithEdges
350
2C
  3
Gouraud
350
2D
  3
GouraudWithEdges
350
2E
  3
Linepattern
350
38
  3
Realistic
350
33
  3
Thicken
350
37
  0
LAYOUT
  5
1E
102
{ACAD_REACTORS
330
1A
102
}
330
1A
100
AcDbPlotSettings
  1

  2
none_device
  4

  6

 40
0.0
 41
0.0
 42
0.0
 43
0.0
 44
0.0
 45
0.0
 46
0.0
 47
0.0
 48
0.0
 49
0.0
140
0.0
141
0.0
142
1.0
143
1.0
 70
   688
 72
     0
 73
     0
 74
     5
  7

 75
    16
 76
     0
 77
     2
 78
   300
147
1.0
148
0.0
149
0.0
100
AcDbLayout
  1
Layout1
 70
     1
 71
     1
 10
0.0
 20
0.0
 11
12.0
 21
9.0
 12
0.0
 22
0.0
 32
0.0
 14
1.000000000000000E+20
 24
1.000000000000000E+20
 34
1.000000000000000E+20
 15
-1.000000000000000E+20
 25
-1.000000000000000E+20
 35
-1.000000000000000E+20
146
0.0
 13
0.0
 23
0.0
 33
0.0
 16
1.0
 26
0.0
 36
0.0
 17
0.0
 27
1.0
 37
0.0
 76
     0
330
1B
  0
LAYOUT
  5
26
102
{ACAD_REACTORS
330
1A
102
}
330
1A
100
AcDbPlotSettings
  1

  2
none_device
  4

  6

 40
0.0
 41
0.0
 42
0.0
 43
0.0
 44
0.0
 45
0.0
 46
0.0
 47
0.0
 48
0.0
 49
0.0
140
0.0
141
0.0
142
1.0
143
1.0
 70
   688
 72
     0
 73
     0
 74
     5
  7

 75
    16
 76
     0
 77
     2
 78
   300
147
1.0
148
0.0
149
0.0
100
AcDbLayout
  1
Layout2
 70
     1
 71
     2
 10
0.0
 20
0.0
 11
0.0
 21
0.0
 12
0.0
 22
0.0
 32
0.0
 14
0.0
 24
0.0
 34
0.0
 15
0.0
 25
0.0
 35
0.0
146
0.0
 13
0.0
 23
0.0
 33
0.0
 16
1.0
 26
0.0
 36
0.0
 17
0.0
 27
1.0
 37
0.0
 76
     0
330
23
  0
LAYOUT
  5
22
102
{ACAD_REACTORS
330
1A
102
}
330
1A
100
AcDbPlotSettings
  1

  2
none_device
  4

  6

 40
0.0
 41
0.0
 42
0.0
 43
0.0
 44
0.0
 45
0.0
 46
0.0
 47
0.0
 48
0.0
 49
0.0
140
0.0
141
0.0
142
1.0
143
1.0
 70
  1712
 72
     0
 73
     0
 74
     0
  7

 75
     0
 76
     0
 77
     2
 78
   300
147
1.0
148
0.0
149
0.0
100
AcDbLayout
  1
Model
 70
     1
 71
     0
 10
0.0
 20
0.0
 11
12.0
 21
9.0
 12
0.0
 22
0.0
 32
0.0
 14
-15.17646
 24
-16.52646
 34
0.0
 15
-5.82354
 25
-13.17354
 35
0.0
146
0.0
 13
0.0
 23
0.0
 33
0.0
 16
1.0
 26
0.0
 36
0.0
 17
0.0
 27
1.0
 37
0.0
 76
     0
330
1F
331
29
  0
MLINESTYLE
  5
18
102
{ACAD_REACTORS
330
17
102
}
330
17
100
AcDbMlineStyle
  2
Standard
 70
     0
  3

 62
   256
 51
90.0
 52
90.0
 71
     2
 49
0.5
 62
   256
  6
BYLAYER
 49
-0.5
 62
   256
  6
BYLAYER
  0
ACDBPLACEHOLDER
  5
F
102
{ACAD_REACTORS
330
E
102
}
330
E
  0
SCALE
  5
3C
102
{ACAD_REACTORS
330
3B
102
}
330
3B
100
AcDbScale
 70
     0
300
1:1
140
1.0
141
1.0
290
     1
  0
SCALE
  5
3D
102
{ACAD_REACTORS
330
3B
102
}
330
3B
100
AcDbScale
 70
     0
300
1:2
140
1.0
141
2.0
290
     0
  0
SCALE
  5
3E
102
{ACAD_REACTORS
330
3B
102
}
330
3B
100
AcDbScale
 70
     0
300
1:4
140
1.0
141
4.0
290
     0
  0
SCALE
  5
3F
102
{ACAD_REACTORS
330
3B
102
}
330
3B
100
AcDbScale
 70
     0
300
1:5
140
1.0
141
5.0
290
     0
  0
SCALE
  5
40
102
{ACAD_REACTORS
330
3B
102
}
330
3B
100
AcDbScale
 70
     0
300
1:8
140
1.0
141
8.0
290
     0
  0
SCALE
  5
41
102
{ACAD_REACTORS
330
3B
102
}
330
3B
100
AcDbScale
 70
     0
300
1:10
140
1.0
141
10.0
290
     0
  0
SCALE
  5
42
102
{ACAD_REACTORS
330
3B
102
}
330
3B
100
AcDbScale
 70
     0
300
1:16
140
1.0
141
16.0
290
     0
  0
SCALE
  5
43
102
{ACAD_REACTORS
330
3B
102
}
330
3B
100
AcDbScale
 70
     0
300
1:20
140
1.0
141
20.0
290
     0
  0
SCALE
  5
44
102
{ACAD_REACTORS
330
3B
102
}
330
3B
100
AcDbScale
 70
     0
300
1:30
140
1.0
141
30.0
290
     0
  0
SCALE
  5
45
102
{ACAD_REACTORS
330
3B
102
}
330
3B
100
AcDbScale
 70
     0
300
1:40
140
1.0
141
40.0
290
     0
  0
SCALE
  5
46
102
{ACAD_REACTORS
330
3B
102
}
330
3B
100
AcDbScale
 70
     0
300
1:50
140
1.0
141
50.0
290
     0
  0
SCALE
  5
47
102
{ACAD_REACTORS
330
3B
102
}
330
3B
100
AcDbScale
 70
     0
300
1:100
140
1.0
141
100.0
290
     0
  0
SCALE
  5
48
102
{ACAD_REACTORS
330
3B
102
}
330
3B
100
AcDbScale
 70
     0
300
2:1
140
2.0
141
1.0
290
     0
  0
SCALE
  5
49
102
{ACAD_REACTORS
330
3B
102
}
330
3B
100
AcDbScale
 70
     0
300
4:1
140
4.0
141
1.0
290
     0
  0
SCALE
  5
4A
102
{ACAD_REACTORS
330
3B
102
}
330
3B
100
AcDbScale
 70
     0
300
8:1
140
8.0
141
1.0
290
     0
  0
SCALE
  5
4B
102
{ACAD_REACTORS
330
3B
102
}
330
3B
100
AcDbScale
 70
     0
300
10:1
140
10.0
141
1.0
290
     0
  0
SCALE
  5
4C
102
{ACAD_REACTORS
330
3B
102
}
330
3B
100
AcDbScale
 70
     0
300
100:1
140
100.0
141
1.0
290
     0
  0
SCALE
  5
4D
102
{ACAD_REACTORS
330
3B
102
}
330
3B
100
AcDbScale
 70
     0
300
1/128" = 1'-0"
140
0.0078125
141
12.0
290
     0
  0
SCALE
  5
4E
102
{ACAD_REACTORS
330
3B
102
}
330
3B
100
AcDbScale
 70
     0
300
1/64" = 1'-0"
140
0.015625
141
12.0
290
     0
  0
SCALE
  5
4F
102
{ACAD_REACTORS
330
3B
102
}
330
3B
100
AcDbScale
 70
     0
300
1/32" = 1'-0"
140
0.03125
141
12.0
290
     0
  0
SCALE
  5
50
102
{ACAD_REACTORS
330
3B
102
}
330
3B
100
AcDbScale
 70
     0
300
1/16" = 1'-0"
140
0.0625
141
12.0
290
     0
  0
SCALE
  5
51
102
{ACAD_REACTORS
330
3B
102
}
330
3B
100
AcDbScale
 70
     0
300
3/32" = 1'-0"
140
0.09375
141
12.0
290
     0
  0
SCALE
  5
52
102
{ACAD_REACTORS
330
3B
102
}
330
3B
100
AcDbScale
 70
     0
300
1/8" = 1'-0"
140
0.125
141
12.0
290
     0
  0
SCALE
  5
53
102
{ACAD_REACTORS
330
3B
102
}
330
3B
100
AcDbScale
 70
     0
300
3/16" = 1'-0"
140
0.1875
141
12.0
290
     0
  0
SCALE
  5
54
102
{ACAD_REACTORS
330
3B
102
}
330
3B
100
AcDbScale
 70
     0
300
1/4" = 1'-0"
140
0.25
141
12.0
290
     0
  0
SCALE
  5
55
102
{ACAD_REACTORS
330
3B
102
}
330
3B
100
AcDbScale
 70
     0
300
3/8" = 1'-0"
140
0.375
141
12.0
290
     0
  0
SCALE
  5
56
102
{ACAD_REACTORS
330
3B
102
}
330
3B
100
AcDbScale
 70
     0
300
1/2" = 1'-0"
140
0.5
141
12.0
290
     0
  0
SCALE
  5
57
102
{ACAD_REACTORS
330
3B
102
}
330
3B
100
AcDbScale
 70
     0
300
3/4" = 1'-0"
140
0.75
141
12.0
290
     0
  0
SCALE
  5
58
102
{ACAD_REACTORS
330
3B
102
}
330
3B
100
AcDbScale
 70
     0
300
1" = 1'-0"
140
1.0
141
12.0
290
     0
  0
SCALE
  5
59
102
{ACAD_REACTORS
330
3B
102
}
330
3B
100
AcDbScale
 70
     0
300
1-1/2" = 1'-0"
140
1.5
141
12.0
290
     0
  0
SCALE
  5
5A
102
{ACAD_REACTORS
330
3B
102
}
330
3B
100
AcDbScale
 70
     0
300
3" = 1'-0"
140
3.0
141
12.0
290
     0
  0
SCALE
  5
5B
102
{ACAD_REACTORS
330
3B
102
}
330
3B
100
AcDbScale
 70
     0
300
6" = 1'-0"
140
6.0
141
12.0
290
     0
  0
SCALE
  5
5C
102
{ACAD_REACTORS
330
3B
102
}
330
3B
100
AcDbScale
 70
     0
300
1'-0" = 1'-0"
140
12.0
141
12.0
290
     0
  0
VISUALSTYLE
  5
2F
102
{ACAD_REACTORS
330
2A
102
}
330
2A
100
AcDbVisualStyle
  2
2dWireframe
 70
     4
 71
     0
 72
     2
 73
     0
 90
        0
 40
-0.6
 41
-30.0
 62
     5
 63
     7
421
 16777215
 74
     1
 91
        4
 64
     7
 65
   257
 75
     1
175
     1
 42
1.0
 92
        0
 66
   257
 43
1.0
 76
     1
 77
     6
 78
     2
 67
     7
 79
     5
170
     0
171
     0
290
     0
174
     0
 93
        1
 44
0.0
173
     0
291
     0
 45
0.0
  0
VISUALSTYLE
  5
31
102
{ACAD_REACTORS
330
2A
102
}
330
2A
100
AcDbVisualStyle
  2
3D Hidden
 70
     6
 71
     1
 72
     2
 73
     2
 90
        0
 40
-0.6
 41
-30.0
 62
     5
 63
     7
421
 16777215
 74
     2
 91
        2
 64
     7
 65
   257
 75
     2
175
     1
 42
40.0
 92
        0
 66
   257
 43
1.0
 76
     1
 77
     6
 78
     2
 67
     7
 79
     3
170
     0
171
     0
290
     0
174
     0
 93
        1
 44
0.0
173
     0
291
     0
 45
0.0
  0
VISUALSTYLE
  5
30
102
{ACAD_REACTORS
330
2A
102
}
330
2A
100
AcDbVisualStyle
  2
3dWireframe
 70
     5
 71
     0
 72
     2
 73
     0
 90
        0
 40
-0.6
 41
-30.0
 62
     5
 63
     7
421
 16777215
 74
     1
 91
        4
 64
     7
 65
   257
 75
     1
175
     1
 42
1.0
 92
        0
 66
   257
 43
1.0
 76
     1
 77
     6
 78
     2
 67
     7
 79
     5
170
     0
171
     0
290
     0
174
     0
 93
        1
 44
0.0
173
     0
291
     0
 45
0.0
  0
VISUALSTYLE
  5
32
102
{ACAD_REACTORS
330
2A
102
}
330
2A
100
AcDbVisualStyle
  2
Basic
 70
     7
 71
     1
 72
     0
 73
     1
 90
        0
 40
-0.6
 41
-30.0
 62
     5
 63
     7
421
 16777215
 74
     0
 91
        4
 64
     7
 65
   257
 75
     1
175
     1
 42
1.0
 92
        8
 66
     7
 43
1.0
 76
     1
 77
     6
 78
     2
 67
     7
 79
     5
170
     0
171
     0
290
     0
174
     0
 93
        1
 44
0.0
173
     0
291
     1
 45
0.0
  0
VISUALSTYLE
  5
36
102
{ACAD_REACTORS
330
2A
102
}
330
2A
100
AcDbVisualStyle
  2
Brighten
 70
    12
 71
     2
 72
     2
 73
     0
 90
        0
 40
-0.6
 41
-30.0
 62
     5
 63
     7
421
 16777215
 74
     1
 91
        4
 64
     7
 65
   257
 75
     1
175
     1
 42
1.0
 92
        8
 66
     7
 43
1.0
 76
     1
 77
     6
 78
     2
 67
     7
 79
     5
170
     0
171
     0
290
     0
174
     0
 93
        1
 44
50.0
173
     0
291
     1
 45
0.0
  0
VISUALSTYLE
  5
3A
102
{ACAD_REACTORS
330
2A
102
}
330
2A
100
AcDbVisualStyle
  2
ColorChange
 70
    16
 71
     2
 72
     2
 73
     3
 90
        0
 40
-0.6
 41
-30.0
 62
     5
 63
     8
421
  8421504
 74
     1
 91
        4
 64
     7
 65
   257
 75
     1
175
     1
 42
1.0
 92
        8
 66
     8
424
  8421504
 43
1.0
 76
     1
 77
     6
 78
     2
 67
     7
 79
     5
170
     0
171
     0
290
     0
174
     0
 93
        1
 44
0.0
173
     0
291
     1
 45
0.0
  0
VISUALSTYLE
  5
34
102
{ACAD_REACTORS
330
2A
102
}
330
2A
100
AcDbVisualStyle
  2
Conceptual
 70
     9
 71
     3
 72
     2
 73
     0
 90
        0
 40
-0.6
 41
-30.0
 62
     5
 63
     7
421
 16777215
 74
     2
 91
        2
 64
     7
 65
   257
 75
     1
175
     1
 42
40.0
 92
        8
 66
     7
 43
1.0
 76
     1
 77
     6
 78
     2
 67
     7
 79
     3
170
     0
171
     0
290
     0
174
     0
 93
        1
 44
0.0
173
     0
291
     0
 45
0.0
  0
VISUALSTYLE
  5
35
102
{ACAD_REACTORS
330
2A
102
}
330
2A
100
AcDbVisualStyle
  2
Dim
 70
    11
 71
     2
 72
     2
 73
     0
 90
        0
 40
-0.6
 41
-30.0
 62
     5
 63
     7
421
 16777215
 74
     1
 91
        4
 64
     7
 65
   257
 75
     1
175
     1
 42
1.0
 92
        8
 66
     7
 43
1.0
 76
     1
 77
     6
 78
     2
 67
     7
 79
     5
170
     0
171
     0
290
     0
174
     0
 93
        1
 44
-50.0
173
     0
291
     1
 45
0.0
  0
VISUALSTYLE
  5
39
102
{ACAD_REACTORS
330
2A
102
}
330
2A
100
AcDbVisualStyle
  2
Facepattern
 70
    15
 71
     2
 72
     2
 73
     0
 90
        0
 40
-0.6
 41
-30.0
 62
     5
 63
     7
421
 16777215
 74
     1
 91
        4
 64
     7
 65
   257
 75
     1
175
     1
 42
1.0
 92
        8
 66
     7
 43
1.0
 76
     1
 77
     6
 78
     2
 67
     7
 79
     5
170
     0
171
     0
290
     0
174
     0
 93
        1
 44
0.0
173
     0
291
     1
 45
0.0
  0
VISUALSTYLE
  5
2B
102
{ACAD_REACTORS
330
2A
102
}
330
2A
100
AcDbVisualStyle
  2
Flat
 70
     0
 71
     2
 72
     1
 73
     1
 90
        2
 40
-0.6
 41
30.0
 62
     5
 63
     7
421
 16777215
 74
     0
 91
        4
 64
     7
 65
   257
 75
     1
175
     1
 42
1.0
 92
        8
 66
     7
 43
1.0
 76
     1
 77
     6
 78
     2
 67
     7
 79
     5
170
     0
171
     0
290
     0
174
     0
 93
       13
 44
0.0
173
     0
291
     1
 45
0.0
  0
VISUALSTYLE
  5
2C
102
{ACAD_REACTORS
330
2A
102
}
330
2A
100
AcDbVisualStyle
  2
FlatWithEdges
 70
     1
 71
     2
 72
     1
 73
     1
 90
        2
 40
-0.6
 41
30.0
 62
     5
 63
     7
421
 16777215
 74
     1
 91
        4
 64
     7
 65
   257
 75
     1
175
     1
 42
1.0
 92
        0
 66
   257
 43
1.0
 76
     1
 77
     6
 78
     2
 67
     7
 79
     5
170
     0
171
     0
290
     0
174
     0
 93
       13
 44
0.0
173
     0
291
     1
 45
0.0
  0
VISUALSTYLE
  5
2D
102
{ACAD_REACTORS
330
2A
102
}
330
2A
100
AcDbVisualStyle
  2
Gouraud
 70
     2
 71
     2
 72
     2
 73
     1
 90
        2
 40
-0.6
 41
30.0
 62
     5
 63
     7
421
 16777215
 74
     0
 91
        4
 64
     7
 65
   257
 75
     1
175
     1
 42
1.0
 92
        0
 66
     7
 43
1.0
 76
     1
 77
     6
 78
     2
 67
     7
 79
     5
170
     0
171
     0
290
     0
174
     0
 93
       13
 44
0.0
173
     0
291
     1
 45
0.0
  0
VISUALSTYLE
  5
2E
102
{ACAD_REACTORS
330
2A
102
}
330
2A
100
AcDbVisualStyle
  2
GouraudWithEdges
 70
     3
 71
     2
 72
     2
 73
     1
 90
        2
 40
-0.6
 41
30.0
 62
     5
 63
     7
421
 16777215
 74
     1
 91
        4
 64
     7
 65
   257
 75
     1
175
     1
 42
1.0
 92
        0
 66
   257
 43
1.0
 76
     1
 77
     6
 78
     2
 67
     7
 79
     5
170
     0
171
     0
290
     0
174
     0
 93
       13
 44
0.0
173
     0
291
     1
 45
0.0
  0
VISUALSTYLE
  5
38
102
{ACAD_REACTORS
330
2A
102
}
330
2A
100
AcDbVisualStyle
  2
Linepattern
 70
    14
 71
     2
 72
     2
 73
     0
 90
        0
 40
-0.6
 41
-30.0
 62
     5
 63
     7
421
 16777215
 74
     1
 91
        4
 64
     7
 65
   257
 75
     7
175
     7
 42
1.0
 92
        8
 66
     7
 43
1.0
 76
     1
 77
     6
 78
     2
 67
     7
 79
     5
170
     0
171
     0
290
     0
174
     0
 93
        1
 44
0.0
173
     0
291
     1
 45
0.0
  0
VISUALSTYLE
  5
33
102
{ACAD_REACTORS
330
2A
102
}
330
2A
100
AcDbVisualStyle
  2
Realistic
 70
     8
 71
     2
 72
     2
 73
     0
 90
        0
 40
-0.6
 41
-30.0
 62
     5
 63
     7
421
 16777215
 74
     1
 91
        0
 64
     7
 65
   257
 75
     1
175
     1
 42
1.0
 92
        8
 66
     8
424
  7895160
 43
1.0
 76
     1
 77
     6
 78
     2
 67
     7
 79
     5
170
     0
171
     0
290
     0
174
     0
 93
       13
 44
0.0
173
     0
291
     0
 45
0.0
  0
VISUALSTYLE
  5
37
102
{ACAD_REACTORS
330
2A
102
}
330
2A
100
AcDbVisualStyle
  2
Thicken
 70
    13
 71
     2
 72
     2
 73
     0
 90
        0
 40
-0.6
 41
-30.0
 62
     5
 63
     7
421
 16777215
 74
     1
 91
        4
 64
     7
 65
   257
 75
     1
175
     1
 42
1.0
 92
       12
 66
     7
 43
1.0
 76
     1
 77
     6
 78
     2
 67
     7
 79
     5
170
     0
171
     0
290
     0
174
     0
 93
        1
 44
0.0
173
     0
291
     1
 45
0.0
  0
ENDSEC
  0
EOF
