<?xml version="1.0" encoding="UTF-8"?>
<!DOCTYPE svg PUBLIC "-//W3C//DTD SVG 1.1//EN" "http://www.w3.org/Graphics/SVG/1.1/DTD/svg11.dtd">
<!-- Creator: CorelDRAW -->
<svg xmlns="http://www.w3.org/2000/svg" xml:space="preserve" width="210mm" height="297mm" style="shape-rendering:geometricPrecision; text-rendering:geometricPrecision; image-rendering:optimizeQuality; fill-rule:evenodd; clip-rule:evenodd"
viewBox="0 0 210 297"
 xmlns:xlink="http://www.w3.org/1999/xlink">
 <defs>
  <style type="text/css">
   <![CDATA[
    .str0 {stroke:#1F1A17;stroke-width:0.5644;stroke-linecap:round;stroke-linejoin:round}
    .str1 {stroke:#E77817;stroke-width:0.5644;stroke-linecap:round;stroke-linejoin:round}
    .fil0 {fill:none}
   ]]>
  </style>
 </defs>
 <g id="Layer_x0020_1">
  <metadata id="CorelCorpID_0Corel-Layer"/>
  <g id="_124843200">
   <path id="_126509776" class="fil0 str0" d="M50 286.5c1.6566,0 3,1.3434 3,3 0,1.6566 -1.3434,3 -3,3 -1.6566,0 -3,-1.3434 -3,-3 0,-1.6566 1.3434,-3 3,-3z"/>
   <polygon id="_126510112" class="fil0 str0" points="37,287.913 43,287.913 43,291.087 37,291.087 "/>
   <path id="_126509416" class="fil0 str0" d="M30 286.5c1.6566,0 3,1.3434 3,3 0,1.6566 -1.3434,3 -3,3 -1.6566,0 -3,-1.3434 -3,-3 0,-1.6566 1.3434,-3 3,-3z"/>
   <polygon id="_126510328" class="fil0 str0" points="17,287.913 23,287.913 23,291.087 17,291.087 "/>
   <path id="_126509560" class="fil0 str0" d="M-62.9993 291.087l6.0156 -0.0115 -0.0156 -3.1634 -6 0c0.0467,-2.7205 2.2673,-4.9125 4.9989,-4.9125l116.002 0c2.7316,0 4.9522,2.192 4.9989,4.9125l-6 0 0 3.1749 6 0c0,6.6376 0,13.2752 0,19.9126l-6 0 0 -3 -4 0 0 -5 2 -0.0001 0 -5.9999c-3.8333,0 -6.1667,0 -10,0l0 5.9999 2 0.0001 0 5.0001 -4 -0.0001 0 3 -6 0 0 -3 -4 0 0 -5 2 -0.0001 0 -5.9999c-3.8333,0 -6.1667,0 -10,0l0 5.9999 2 0.0001 0 5.0001 -4 -0.0001 0 3 -6 0 0 -3 -4 0 0 -5 2 -0.0001 0 -5.9999c-3.8333,0 -6.1667,0 -10,0l0 5.9999 2 0.0001 0 5.0001 -4 -0.0001 0 3 -6 0 0 -3 -4 0 0 -5 2 -0.0001 0 -5.9999c-3.8333,0 -6.1667,0 -10,0l0 5.9999 2 0.0001 0 5.0001 -4 -0.0001 0 3 -6 0 0 -3 -4 0 0 -5 2 -0.0001 0 -5.9999c-3.8333,0 -6.1667,0 -10,0l0 5.9999 2 0.0001 0 5.0001 -4 -0.0001 0 3 -6 0 0 -3 -4 0 0 -5 2 -0.0001 0 -5.9999c-3.8333,0 -6.1667,0 -10,0l0 5.9999 2 0.0001 0 5.0001 -4 -0.0001 0 3 -5.9993 0 0 -19.9126z"/>
   <path id="_126509728" class="fil0 str1" d="M2.4022 294.611c0.0007,-0.1383 0.0232,-0.2632 0.0684,-0.3761 0.0444,-0.1122 0.1072,-0.2088 0.1884,-0.29 0.0804,-0.0804 0.1757,-0.1425 0.2843,-0.1862 0.1087,-0.0438 0.2279,-0.0656 0.3563,-0.0664 0.1291,-0.0007 0.2498,0.0156 0.362,0.048 0.1122,0.0318 0.2102,0.084 0.2956,0.156 0.0854,0.0712 0.1524,0.1658 0.2004,0.2836 0.0479,0.1178 0.0726,0.261 0.0733,0.4311 -0.0007,0.17 -0.0254,0.3132 -0.0733,0.4311 -0.048,0.1178 -0.115,0.2123 -0.2004,0.2836 -0.0854,0.072 -0.1834,0.1242 -0.2956,0.1559 -0.1122,0.0325 -0.2329,0.0487 -0.362,0.048 -0.1284,-0.0007 -0.2462,-0.0226 -0.3542,-0.0663 -0.1072,-0.0438 -0.2003,-0.1059 -0.2801,-0.187 -0.0797,-0.0804 -0.1425,-0.1771 -0.1876,-0.29 -0.0459,-0.1122 -0.0706,-0.237 -0.0755,-0.3753 -0.0029,-0.0699 -0.0064,-0.1531 -0.0113,-0.2498 -0.005,-0.0974 -0.0078,-0.2032 -0.0085,-0.3168 -0.0007,-0.1143 0.0028,-0.2321 0.012,-0.3528 0.0085,-0.1213 0.0254,-0.2406 0.0501,-0.3584 0.0247,-0.1171 0.06,-0.2279 0.1065,-0.3316 0.0466,-0.1037 0.1066,-0.1954 0.1807,-0.2752 0.0747,-0.0797 0.1658,-0.1425 0.2737,-0.1883 0.108,-0.0452 0.2357,-0.0685 0.3831,-0.0692 0.1284,0.0007 0.2371,0.0134 0.3274,0.0381 0.0903,0.0247 0.1644,0.0579 0.2237,0.0988 0.0585,0.0416 0.1051,0.0868 0.1389,0.1369 0.0339,0.0494 0.0593,0.0995 0.0748,0.1496 0.0163,0.05 0.0268,0.0966 0.0311,0.1397 -0.0043,-0.0431 -0.0148,-0.0897 -0.0311,-0.1397 -0.0155,-0.0501 -0.0409,-0.1002 -0.0748,-0.1496 -0.0338,-0.0501 -0.0804,-0.0953 -0.1389,-0.1369 -0.0593,-0.0409 -0.1334,-0.0741 -0.2237,-0.0988 -0.0903,-0.0247 -0.199,-0.0374 -0.3274,-0.0381 -0.1474,0.0007 -0.2751,0.024 -0.3831,0.0692 -0.1079,0.0458 -0.199,0.1086 -0.2737,0.1883 -0.0741,0.0798 -0.1341,0.1715 -0.1807,0.2752 -0.0465,0.1037 -0.0818,0.2145 -0.1065,0.3316 -0.0247,0.1178 -0.0416,0.2371 -0.0501,0.3584 -0.0092,0.1207 -0.0127,0.2385 -0.012,0.3528 0.0007,0.1136 0.0035,0.2194 0.0085,0.3168 0.0049,0.0967 0.0084,0.1799 0.0113,0.2498 0.0049,0.1383 0.0296,0.2631 0.0755,0.3753 0.0451,0.1129 0.1079,0.2096 0.1876,0.29 0.0798,0.0811 0.1729,0.1432 0.2801,0.187 0.108,0.0437 0.2258,0.0656 0.3542,0.0663 0.1291,0.0007 0.2498,-0.0155 0.362,-0.048 0.1122,-0.0317 0.2102,-0.0839 0.2956,-0.1559 0.0854,-0.0713 0.1524,-0.1658 0.2004,-0.2836 0.0479,-0.1179 0.0726,-0.2611 0.0733,-0.4311 -0.0007,-0.1701 -0.0254,-0.3133 -0.0733,-0.4311 -0.048,-0.1178 -0.115,-0.2124 -0.2004,-0.2836 -0.0854,-0.072 -0.1834,-0.1242 -0.2956,-0.156 -0.1122,-0.0324 -0.2329,-0.0487 -0.362,-0.048 -0.1284,0.0008 -0.2476,0.0226 -0.3563,0.0664 -0.1086,0.0437 -0.2039,0.1058 -0.2843,0.1862 -0.0812,0.0812 -0.144,0.1778 -0.1884,0.29 -0.0452,0.1129 -0.0677,0.2378 -0.0684,0.3761z"/>
   <path id="_126509392" class="fil0 str1" d="M0.2771 295.53c0.1481,-0.0007 0.2758,-0.0268 0.3824,-0.0776 0.1058,-0.0508 0.194,-0.1235 0.2645,-0.2159 0.0699,-0.0931 0.1249,-0.2032 0.1658,-0.3302 0.0403,-0.127 0.0692,-0.266 0.0854,-0.4184 0.017,-0.1524 0.0254,-0.3126 0.0247,-0.4819 0.0007,-0.1686 -0.0077,-0.3288 -0.0247,-0.4805 -0.0162,-0.1517 -0.0451,-0.2914 -0.0854,-0.4184 -0.0409,-0.1263 -0.0959,-0.2363 -0.1658,-0.3302 -0.0705,-0.0931 -0.1587,-0.1658 -0.2645,-0.2166 -0.1066,-0.0515 -0.2343,-0.0776 -0.3824,-0.0783 -0.1482,0.0007 -0.2759,0.0268 -0.3825,0.0783 -0.1058,0.0508 -0.194,0.1235 -0.2645,0.2166 -0.0699,0.0939 -0.1249,0.2039 -0.1658,0.3302 -0.0403,0.127 -0.0692,0.2667 -0.0854,0.4184 -0.0169,0.1517 -0.0254,0.3119 -0.0247,0.4805 -0.0007,0.1693 0.0078,0.3295 0.0247,0.4819 0.0162,0.1524 0.0451,0.2914 0.0854,0.4184 0.0409,0.127 0.0959,0.2371 0.1658,0.3302 0.0705,0.0924 0.1587,0.1651 0.2645,0.2159 0.1066,0.0508 0.2343,0.0769 0.3825,0.0776z"/>
   <path id="_126510208" class="fil0 str1" d="M0.2771 295.53c0.1481,-0.0007 0.2758,-0.0268 0.3824,-0.0776 0.1058,-0.0508 0.194,-0.1235 0.2645,-0.2159 0.0699,-0.0931 0.1249,-0.2032 0.1658,-0.3302 0.0403,-0.127 0.0692,-0.266 0.0854,-0.4184 0.017,-0.1524 0.0254,-0.3126 0.0247,-0.4819 0.0007,-0.1686 -0.0077,-0.3288 -0.0247,-0.4805 -0.0162,-0.1517 -0.0451,-0.2914 -0.0854,-0.4184 -0.0409,-0.1263 -0.0959,-0.2363 -0.1658,-0.3302 -0.0705,-0.0931 -0.1587,-0.1658 -0.2645,-0.2166 -0.1066,-0.0515 -0.2343,-0.0776 -0.3824,-0.0783 -0.1482,0.0007 -0.2759,0.0268 -0.3825,0.0783 -0.1058,0.0508 -0.194,0.1235 -0.2645,0.2166 -0.0699,0.0939 -0.1249,0.2039 -0.1658,0.3302 -0.0403,0.127 -0.0692,0.2667 -0.0854,0.4184 -0.0169,0.1517 -0.0254,0.3119 -0.0247,0.4805 -0.0007,0.1693 0.0078,0.3295 0.0247,0.4819 0.0162,0.1524 0.0451,0.2914 0.0854,0.4184 0.0409,0.127 0.0959,0.2371 0.1658,0.3302 0.0705,0.0924 0.1587,0.1651 0.2645,0.2159 0.1066,0.0508 0.2343,0.0769 0.3825,0.0776z"/>
   <polygon id="_124842456" class="fil0 str1" points="-2.8471,293.934 -1.6152,293.934 "/>
   <polygon id="_124843440" class="fil0 str1" points="-5.9247,294.569 -4.2653,294.569 "/>
   <polygon id="_124843344" class="fil0 str1" points="-6.3057,295.53 -5.095,292.478 -3.88,295.53 -5.095,292.478 "/>
   <path id="_124843080" class="fil0 str1" d="M-7.2878 292.495l-0.0042 2.3707c0,0.0769 -0.0163,0.1545 -0.0473,0.2314 -0.0318,0.0776 -0.0783,0.1482 -0.1397,0.2131 -0.0621,0.0642 -0.1376,0.1164 -0.2272,0.1552 -0.0903,0.0395 -0.1933,0.0593 -0.3097,0.0607 -0.1165,0 -0.2216,-0.0191 -0.3147,-0.0565 -0.0932,-0.0381 -0.1729,-0.0889 -0.2385,-0.1531 -0.0663,-0.0642 -0.1164,-0.1347 -0.1517,-0.2131 -0.0353,-0.0783 -0.0529,-0.1573 -0.0529,-0.2377l0 -0.3133 0 0.3133c0,0.0804 0.0176,0.1594 0.0529,0.2377 0.0353,0.0784 0.0854,0.1489 0.1517,0.2131 0.0656,0.0642 0.1453,0.115 0.2385,0.1531 0.0931,0.0374 0.1982,0.0565 0.3147,0.0565 0.1164,-0.0014 0.2194,-0.0212 0.3097,-0.0607 0.0896,-0.0388 0.1651,-0.091 0.2272,-0.1552 0.0614,-0.0649 0.1079,-0.1355 0.1397,-0.2131 0.031,-0.0769 0.0473,-0.1545 0.0473,-0.2314l0.0042 -2.3707z"/>
   <path id="_124842648" class="fil0 str0" d="M10 286.5c1.6566,0 3,1.3434 3,3 0,1.6566 -1.3434,3 -3,3 -1.6566,0 -3,-1.3434 -3,-3 0,-1.6566 1.3434,-3 3,-3z"/>
   <polygon id="_124842168" class="fil0 str0" points="-3,287.913 3,287.913 3,291.087 -3,291.087 "/>
   <path id="_124842840" class="fil0 str0" d="M-10 286.5c1.6566,0 3,1.3434 3,3 0,1.6566 -1.3434,3 -3,3 -1.6566,0 -3,-1.3434 -3,-3 0,-1.6566 1.3434,-3 3,-3z"/>
   <path id="_124842600" class="fil0 str0" d="M-50 286.5c1.6566,0 3,1.3434 3,3 0,1.6566 -1.3434,3 -3,3 -1.6566,0 -3,-1.3434 -3,-3 0,-1.6566 1.3434,-3 3,-3z"/>
   <polygon id="_124843392" class="fil0 str0" points="-43,287.913 -37,287.913 -37,291.087 -43,291.087 "/>
   <polygon id="_124842480" class="fil0 str0" points="-23,287.913 -17,287.913 -17,291.087 -23,291.087 "/>
   <path id="_124843416" class="fil0 str0" d="M-30 286.5c1.6566,0 3,1.3434 3,3 0,1.6566 -1.3434,3 -3,3 -1.6566,0 -3,-1.3434 -3,-3 0,-1.6566 1.3434,-3 3,-3z"/>
  </g>
 </g>
</svg>
