<?xml version="1.0" encoding="UTF-8"?>
<!DOCTYPE svg PUBLIC "-//W3C//DTD SVG 1.1//EN" "http://www.w3.org/Graphics/SVG/1.1/DTD/svg11.dtd">
<!-- Creator: CorelDRAW -->
<svg xmlns="http://www.w3.org/2000/svg" xml:space="preserve" width="126.564mm" height="28.5644mm" style="shape-rendering:geometricPrecision; text-rendering:geometricPrecision; image-rendering:optimizeQuality; fill-rule:evenodd; clip-rule:evenodd"
viewBox="0 0 47.594 10.7416"
 xmlns:xlink="http://www.w3.org/1999/xlink">
 <defs>
  <style type="text/css">
   <![CDATA[
    .str0 {stroke:#1F1A17;stroke-width:0.212241;stroke-linecap:round;stroke-linejoin:round}
    .str1 {stroke:#E77817;stroke-width:0.212241;stroke-linecap:round;stroke-linejoin:round}
    .fil0 {fill:none}
   ]]>
  </style>
 </defs>
 <g id="Layer_x0020_1">
  <metadata id="CorelCorpID_0Corel-Layer"/>
  <g id="_127565928">
   <path id="_127563696" class="fil0 str0" d="M42.5992 1.42229c0.62296,0 1.12814,0.505182 1.12814,1.12814 0,0.62296 -0.505182,1.12814 -1.12814,1.12814 -0.62296,0 -1.12814,-0.505182 -1.12814,-1.12814 0,-0.62296 0.505182,-1.12814 1.12814,-1.12814z"/>
   <polygon id="_127563456" class="fil0 str0" points="37.7106,1.95345 39.9669,1.95345 39.9669,3.14741 37.7106,3.14741 "/>
   <path id="_127565952" class="fil0 str0" d="M35.0783 1.42229c0.62296,0 1.12814,0.505182 1.12814,1.12814 0,0.62296 -0.505182,1.12814 -1.12814,1.12814 -0.62296,0 -1.12814,-0.505182 -1.12814,-1.12814 0,-0.62296 0.505182,-1.12814 1.12814,-1.12814z"/>
   <polygon id="_127565760" class="fil0 str0" points="30.1897,1.95345 32.4459,1.95345 32.4459,3.14741 30.1897,3.14741 "/>
   <path id="_127563552" class="fil0 str0" d="M0.106121 3.14737l2.26215 -0.00432455 -0.00586634 -1.18959 -2.25629 0c0.0175614,-1.02304 0.852613,-1.84733 1.87982,-1.84733l43.6221 0c1.02721,0 1.86226,0.824296 1.87982,1.84733l-2.25629 0 0 1.19391 2.25629 0c0,2.49605 0,4.99211 0,7.48808l-2.25629 0 0 -1.12814 -1.50419 0 0 -1.88024 0.752095 -3.76048e-005 0 -2.25625c-1.4415,0 -2.31897,0 -3.76048,0l0 2.25625 0.752095 3.76048e-005 0 1.88028 -1.50419 -3.76048e-005 0 1.12814 -2.25629 0 0 -1.12814 -1.50419 0 0 -1.88024 0.752095 -3.76048e-005 0 -2.25625c-1.4415,0 -2.31897,0 -3.76048,0l0 2.25625 0.752095 3.76048e-005 0 1.88028 -1.50419 -3.76048e-005 0 1.12814 -2.25629 0 0 -1.12814 -1.50419 0 0 -1.88024 0.752095 -3.76048e-005 0 -2.25625c-1.4415,0 -2.31897,0 -3.76048,0l0 2.25625 0.752095 3.76048e-005 0 1.88028 -1.50419 -3.76048e-005 0 1.12814 -2.25629 0 0 -1.12814 -1.50419 0 0 -1.88024 0.752095 -3.76048e-005 0 -2.25625c-1.4415,0 -2.31897,0 -3.76048,0l0 2.25625 0.752095 3.76048e-005 0 1.88028 -1.50419 -3.76048e-005 0 1.12814 -2.25629 0 0 -1.12814 -1.50419 0 0 -1.88024 0.752095 -3.76048e-005 0 -2.25625c-1.4415,0 -2.31897,0 -3.76048,0l0 2.25625 0.752095 3.76048e-005 0 1.88028 -1.50419 -3.76048e-005 0 1.12814 -2.25629 0 0 -1.12814 -1.50419 0 0 -1.88024 0.752095 -3.76048e-005 0 -2.25625c-1.4415,0 -2.31897,0 -3.76048,0l0 2.25625 0.752095 3.76048e-005 0 1.88028 -1.50419 -3.76048e-005 0 1.12814 -2.25602 0 0 -7.48808z"/>
   <path id="_127566336" class="fil0 str1" d="M24.7002 4.47256c0.000263233,-0.0520074 0.0087243,-0.0989757 0.0257217,-0.141431 0.0166965,-0.0421925 0.0403123,-0.0785187 0.0708474,-0.109054 0.0302342,-0.0302342 0.0660716,-0.0535868 0.10691,-0.0700201 0.0408764,-0.0164709 0.0857012,-0.0246687 0.133986,-0.0249696 0.0485477,-0.000263233 0.0939367,0.00586634 0.136129,0.0180503 0.0421925,0.0119583 0.0790452,0.031588 0.11116,0.0586634 0.0321145,0.0267746 0.0573097,0.0623487 0.0753599,0.106647 0.0180127,0.0442984 0.0273011,0.0981484 0.0275643,0.162114 -0.000263233,0.0639281 -0.00955161,0.117778 -0.0275643,0.162114 -0.0180503,0.0442984 -0.0432455,0.0798349 -0.0753599,0.106647 -0.0321145,0.0270754 -0.0689671,0.0467051 -0.11116,0.0586258 -0.0421925,0.0122215 -0.0875815,0.0183135 -0.136129,0.0180503 -0.0482845,-0.000263233 -0.0925829,-0.00849868 -0.133196,-0.024932 -0.0403123,-0.0164709 -0.0753223,-0.0398234 -0.105331,-0.0703209 -0.029971,-0.0302342 -0.0535868,-0.066598 -0.0705465,-0.109054 -0.0172606,-0.0421925 -0.026549,-0.0891233 -0.0283916,-0.141131 -0.00109054,-0.0262857 -0.0024067,-0.0575729 -0.00424934,-0.0939367 -0.00188024,-0.036627 -0.00293317,-0.0764129 -0.0031964,-0.119132 -0.000263233,-0.0429822 0.00105293,-0.0872806 0.00451257,-0.13267 0.0031964,-0.0456146 0.00955161,-0.090477 0.01884,-0.134775 0.00928838,-0.0440352 0.0225629,-0.0857012 0.0400491,-0.124697 0.0175238,-0.0389961 0.0400867,-0.0734797 0.0679518,-0.103488 0.0280908,-0.029971 0.0623487,-0.0535868 0.102924,-0.0708098 0.0406131,-0.0169974 0.0886344,-0.0257593 0.144064,-0.0260225 0.0482845,0.000263233 0.0891609,0.00503904 0.123118,0.0143274 0.0339571,0.00928838 0.0618222,0.0217732 0.0841218,0.0371535 0.0219988,0.0156436 0.0395226,0.0326409 0.052233,0.0514809 0.012748,0.0185768 0.0222996,0.0374167 0.0281284,0.0562567 0.00612958,0.0188024 0.0100781,0.0363262 0.0116951,0.0525338 -0.001617,-0.0162077 -0.0055655,-0.0337315 -0.0116951,-0.0525338 -0.00582874,-0.01884 -0.0153803,-0.03768 -0.0281284,-0.0562567 -0.0127104,-0.01884 -0.0302342,-0.0358373 -0.052233,-0.0514809 -0.0222996,-0.0153803 -0.0501647,-0.0278651 -0.0841218,-0.0371535 -0.0339571,-0.00928838 -0.0748335,-0.0140642 -0.123118,-0.0143274 -0.0554294,0.000263233 -0.103451,0.00902514 -0.144064,0.0260225 -0.0405755,0.017223 -0.0748335,0.0408388 -0.102924,0.0708098 -0.0278651,0.0300086 -0.050428,0.0644922 -0.0679518,0.103488 -0.0174862,0.0389961 -0.0307607,0.0806622 -0.0400491,0.124697 -0.00928838,0.0442984 -0.0156436,0.0891609 -0.01884,0.134775 -0.00345964,0.0453889 -0.0047758,0.0896873 -0.00451257,0.13267 0.000263233,0.042719 0.00131617,0.0825048 0.0031964,0.119132 0.00184263,0.0363638 0.0031588,0.067651 0.00424934,0.0939367 0.00184263,0.0520074 0.011131,0.0989381 0.0283916,0.141131 0.0169597,0.0424558 0.0405755,0.0788196 0.0705465,0.109054 0.0300086,0.0304975 0.0650186,0.05385 0.105331,0.0703209 0.0406131,0.0164333 0.0849115,0.0246687 0.133196,0.024932 0.0485477,0.000263233 0.0939367,-0.00582874 0.136129,-0.0180503 0.0421925,-0.0119207 0.0790452,-0.0315504 0.11116,-0.0586258 0.0321145,-0.0268122 0.0573097,-0.0623487 0.0753599,-0.106647 0.0180127,-0.044336 0.0273011,-0.098186 0.0275643,-0.162114 -0.000263233,-0.0639657 -0.00955161,-0.117816 -0.0275643,-0.162114 -0.0180503,-0.0442984 -0.0432455,-0.0798725 -0.0753599,-0.106647 -0.0321145,-0.0270754 -0.0689671,-0.0467051 -0.11116,-0.0586634 -0.0421925,-0.0121839 -0.0875815,-0.0183135 -0.136129,-0.0180503 -0.0482845,0.000300838 -0.0931094,0.00849868 -0.133986,0.0249696 -0.0408388,0.0164333 -0.0766761,0.0397858 -0.10691,0.0700201 -0.0305351,0.0305351 -0.0541509,0.0668613 -0.0708474,0.109054 -0.0169974,0.0424558 -0.0254584,0.0894241 -0.0257217,0.141431z"/>
   <path id="_127564392" class="fil0 str1" d="M23.9011 4.818c0.0556926,-0.000263233 0.103714,-0.0100781 0.143801,-0.0291813 0.0397858,-0.0191032 0.0729532,-0.0464419 0.0994646,-0.0811887 0.0262857,-0.03501 0.0469683,-0.0764129 0.0623487,-0.124171 0.0151547,-0.047758 0.0260225,-0.100029 0.0321145,-0.157338 0.00639281,-0.0573097 0.00955161,-0.117552 0.00928838,-0.181217 0.000263233,-0.0634016 -0.00289557,-0.123644 -0.00928838,-0.180691 -0.00609197,-0.0570464 -0.0169597,-0.10958 -0.0321145,-0.157338 -0.0153803,-0.0474948 -0.036063,-0.08886 -0.0623487,-0.124171 -0.0265114,-0.03501 -0.0596788,-0.0623487 -0.0994646,-0.0814519 -0.0400867,-0.0193665 -0.0881079,-0.0291813 -0.143801,-0.0294445 -0.0557303,0.000263233 -0.103752,0.0100781 -0.143838,0.0294445 -0.0397858,0.0191032 -0.0729532,0.0464419 -0.0994646,0.0814519 -0.0262857,0.0353109 -0.0469683,0.0766761 -0.0623487,0.124171 -0.0151547,0.047758 -0.0260225,0.100292 -0.0321145,0.157338 -0.0063552,0.0570464 -0.00955161,0.117289 -0.00928838,0.180691 -0.000263233,0.0636649 0.00293317,0.123908 0.00928838,0.181217 0.00609197,0.0573097 0.0169597,0.10958 0.0321145,0.157338 0.0153803,0.047758 0.036063,0.0891609 0.0623487,0.124171 0.0265114,0.0347468 0.0596788,0.0620855 0.0994646,0.0811887 0.0400867,0.0191032 0.0881079,0.0289181 0.143838,0.0291813z"/>
   <path id="_127565976" class="fil0 str1" d="M23.9011 4.818c0.0556926,-0.000263233 0.103714,-0.0100781 0.143801,-0.0291813 0.0397858,-0.0191032 0.0729532,-0.0464419 0.0994646,-0.0811887 0.0262857,-0.03501 0.0469683,-0.0764129 0.0623487,-0.124171 0.0151547,-0.047758 0.0260225,-0.100029 0.0321145,-0.157338 0.00639281,-0.0573097 0.00955161,-0.117552 0.00928838,-0.181217 0.000263233,-0.0634016 -0.00289557,-0.123644 -0.00928838,-0.180691 -0.00609197,-0.0570464 -0.0169597,-0.10958 -0.0321145,-0.157338 -0.0153803,-0.0474948 -0.036063,-0.08886 -0.0623487,-0.124171 -0.0265114,-0.03501 -0.0596788,-0.0623487 -0.0994646,-0.0814519 -0.0400867,-0.0193665 -0.0881079,-0.0291813 -0.143801,-0.0294445 -0.0557303,0.000263233 -0.103752,0.0100781 -0.143838,0.0294445 -0.0397858,0.0191032 -0.0729532,0.0464419 -0.0994646,0.0814519 -0.0262857,0.0353109 -0.0469683,0.0766761 -0.0623487,0.124171 -0.0151547,0.047758 -0.0260225,0.100292 -0.0321145,0.157338 -0.0063552,0.0570464 -0.00955161,0.117289 -0.00928838,0.180691 -0.000263233,0.0636649 0.00293317,0.123908 0.00928838,0.181217 0.00609197,0.0573097 0.0169597,0.10958 0.0321145,0.157338 0.0153803,0.047758 0.036063,0.0891609 0.0623487,0.124171 0.0265114,0.0347468 0.0596788,0.0620855 0.0994646,0.0811887 0.0400867,0.0191032 0.0881079,0.0289181 0.143838,0.0291813z"/>
   <polygon id="_127563624" class="fil0 str1" points="22.7262,4.21782 23.1895,4.21782 "/>
   <polygon id="_127564656" class="fil0 str1" points="21.5689,4.45662 22.1929,4.45662 "/>
   <polygon id="_127565112" class="fil0 str1" points="21.4256,4.818 21.8809,3.67022 22.3378,4.818 21.8809,3.67022 "/>
   <path id="_127563840" class="fil0 str1" d="M21.0563 3.67658l-0.0015794 0.891496c0,0.0289181 -0.00612958,0.0580994 -0.0177871,0.0870174 -0.0119583,0.0291813 -0.0294445,0.0557303 -0.0525338,0.0801357 -0.0233526,0.0241423 -0.0517441,0.0437719 -0.085438,0.0583626 -0.0339571,0.0148539 -0.07269,0.0222996 -0.116462,0.0228261 -0.0438095,0 -0.0833321,-0.00718251 -0.118342,-0.0212467 -0.0350476,-0.0143274 -0.0650186,-0.0334306 -0.0896873,-0.0575729 -0.024932,-0.0241423 -0.0437719,-0.0506536 -0.0570464,-0.0801357 -0.0132745,-0.0294445 -0.0198929,-0.0591523 -0.0198929,-0.0893865l0 -0.117816 0 0.117816c0,0.0302342 0.00661844,0.059942 0.0198929,0.0893865 0.0132745,0.0294821 0.0321145,0.0559935 0.0570464,0.0801357 0.0246687,0.0241423 0.0546397,0.0432455 0.0896873,0.0575729 0.03501,0.0140642 0.0745326,0.0212467 0.118342,0.0212467 0.0437719,-0.000526467 0.0825048,-0.00797221 0.116462,-0.0228261 0.0336939,-0.0145906 0.0620855,-0.0342203 0.085438,-0.0583626 0.0230893,-0.0244055 0.0405755,-0.0509544 0.0525338,-0.0801357 0.0116575,-0.0289181 0.0177871,-0.0580994 0.0177871,-0.0870174l0.0015794 -0.891496z"/>
   <path id="_127564776" class="fil0 str0" d="M27.5573 1.42229c0.62296,0 1.12814,0.505182 1.12814,1.12814 0,0.62296 -0.505182,1.12814 -1.12814,1.12814 -0.62296,0 -1.12814,-0.505182 -1.12814,-1.12814 0,-0.62296 0.505182,-1.12814 1.12814,-1.12814z"/>
   <polygon id="_127566048" class="fil0 str0" points="22.6687,1.95345 24.925,1.95345 24.925,3.14741 22.6687,3.14741 "/>
   <path id="_127564560" class="fil0 str0" d="M20.0364 1.42229c0.62296,0 1.12814,0.505182 1.12814,1.12814 0,0.62296 -0.505182,1.12814 -1.12814,1.12814 -0.62296,0 -1.12814,-0.505182 -1.12814,-1.12814 0,-0.62296 0.505182,-1.12814 1.12814,-1.12814z"/>
   <path id="_127563312" class="fil0 str0" d="M4.99448 1.42229c0.62296,0 1.12814,0.505182 1.12814,1.12814 0,0.62296 -0.505182,1.12814 -1.12814,1.12814 -0.62296,0 -1.12814,-0.505182 -1.12814,-1.12814 0,-0.62296 0.505182,-1.12814 1.12814,-1.12814z"/>
   <polygon id="_127565640" class="fil0 str0" points="7.62681,1.95345 9.88309,1.95345 9.88309,3.14741 7.62681,3.14741 "/>
   <polygon id="_127565256" class="fil0 str0" points="15.1478,1.95345 17.404,1.95345 17.404,3.14741 15.1478,3.14741 "/>
   <path id="_127565016" class="fil0 str0" d="M12.5154 1.42229c0.62296,0 1.12814,0.505182 1.12814,1.12814 0,0.62296 -0.505182,1.12814 -1.12814,1.12814 -0.62296,0 -1.12814,-0.505182 -1.12814,-1.12814 0,-0.62296 0.505182,-1.12814 1.12814,-1.12814z"/>
  </g>
 </g>
</svg>
