<?xml version="1.0" standalone="no"?>
<!DOCTYPE svg PUBLIC "-//W3C//DTD SVG 1.1//EN" "http://www.w3.org/Graphics/SVG/1.1/DTD/svg11.dtd">
<svg width="372mm" height="12mm" viewBox="-186 -6 372 12" xmlns="http://www.w3.org/2000/svg" version="1.1">
<title>OpenSCAD Model</title>
<path d="
M 182.243,5.84291 L 183.409,5.38153 L 184.423,4.64484 L 185.222,3.67914 L 185.755,2.54509 L 186,1
 L 186,-1 L 185.843,-2.24345 L 185.382,-3.40877 L 184.645,-4.42273 L 183.679,-5.22163 L 182.545,-5.75528
 L 181,-6 L -181,-6 L -182.243,-5.84291 L -183.409,-5.38153 L -184.423,-4.64484 L -185.222,-3.67914
 L -185.755,-2.54509 L -186,-1 L -186,1 L -185.843,2.24345 L -185.382,3.40877 L -184.645,4.42273
 L -183.679,5.22163 L -182.545,5.75528 L -181,6 L 181,6 z
M 104.438,2.94685 L 103.723,2.71448 L 103.088,2.31154 L 102.573,1.76335 L 102.211,1.10437 L 102.024,0.375992
 L 102.024,-0.375992 L 102.211,-1.10437 L 102.573,-1.76335 L 103.088,-2.31154 L 103.723,-2.71448 L 104.438,-2.94685
 L 105.188,-2.99408 L 105.927,-2.85316 L 106.607,-2.53297 L 107.187,-2.05363 L 107.629,-1.44525 L 107.906,-0.746063
 L 108,-0 L 107.906,0.746063 L 107.629,1.44525 L 107.187,2.05363 L 106.607,2.53297 L 105.927,2.85316
 L 105.188,2.99408 z
M -60.5621,2.94685 L -61.2773,2.71448 L -61.9123,2.31154 L -62.427,1.76335 L -62.7893,1.10437 L -62.9763,0.375992
 L -62.9763,-0.375992 L -62.7893,-1.10437 L -62.427,-1.76335 L -61.9123,-2.31154 L -61.2773,-2.71448 L -60.5621,-2.94685
 L -59.8116,-2.99408 L -59.0729,-2.85316 L -58.3925,-2.53297 L -57.8131,-2.05363 L -57.3711,-1.44525 L -57.0942,-0.746063
 L -57,-0 L -57.0942,0.746063 L -57.3711,1.44525 L -57.8131,2.05363 L -58.3925,2.53297 L -59.0729,2.85316
 L -59.8116,2.99408 z
M -150.562,2.94685 L -151.277,2.71448 L -151.912,2.31154 L -152.427,1.76335 L -152.789,1.10437 L -152.976,0.375992
 L -152.976,-0.375992 L -152.789,-1.10437 L -152.427,-1.76335 L -151.912,-2.31154 L -151.277,-2.71448 L -150.562,-2.94685
 L -149.812,-2.99408 L -149.073,-2.85316 L -148.393,-2.53297 L -147.813,-2.05363 L -147.371,-1.44525 L -147.094,-0.746063
 L -147,-0 L -147.094,0.746063 L -147.371,1.44525 L -147.813,2.05363 L -148.393,2.53297 L -149.073,2.85316
 L -149.812,2.99408 z
M -120.562,2.94685 L -121.277,2.71448 L -121.912,2.31154 L -122.427,1.76335 L -122.789,1.10437 L -122.976,0.375992
 L -122.976,-0.375992 L -122.789,-1.10437 L -122.427,-1.76335 L -121.912,-2.31154 L -121.277,-2.71448 L -120.562,-2.94685
 L -119.812,-2.99408 L -119.073,-2.85316 L -118.393,-2.53297 L -117.813,-2.05363 L -117.371,-1.44525 L -117.094,-0.746063
 L -117,-0 L -117.094,0.746063 L -117.371,1.44525 L -117.813,2.05363 L -118.393,2.53297 L -119.073,2.85316
 L -119.812,2.99408 z
M 134.438,2.94685 L 133.723,2.71448 L 133.088,2.31154 L 132.573,1.76335 L 132.211,1.10437 L 132.024,0.375992
 L 132.024,-0.375992 L 132.211,-1.10437 L 132.573,-1.76335 L 133.088,-2.31154 L 133.723,-2.71448 L 134.438,-2.94685
 L 135.188,-2.99408 L 135.927,-2.85316 L 136.607,-2.53297 L 137.187,-2.05363 L 137.629,-1.44525 L 137.906,-0.746063
 L 138,-0 L 137.906,0.746063 L 137.629,1.44525 L 137.187,2.05363 L 136.607,2.53297 L 135.927,2.85316
 L 135.188,2.99408 z
M 14.4379,2.94685 L 13.7227,2.71448 L 13.0877,2.31154 L 12.5729,1.76335 L 12.2107,1.10437 L 12.0237,0.375992
 L 12.0237,-0.375992 L 12.2107,-1.10437 L 12.5729,-1.76335 L 13.0877,-2.31154 L 13.7227,-2.71448 L 14.4379,-2.94685
 L 15.1884,-2.99408 L 15.927,-2.85316 L 16.6075,-2.53297 L 17.1869,-2.05363 L 17.6289,-1.44525 L 17.9057,-0.746063
 L 18,-0 L 17.9057,0.746063 L 17.6289,1.44525 L 17.1869,2.05363 L 16.6075,2.53297 L 15.927,2.85316
 L 15.1884,2.99408 z
M 29.4379,2.94685 L 28.7227,2.71448 L 28.0877,2.31154 L 27.5729,1.76335 L 27.2107,1.10437 L 27.0237,0.375992
 L 27.0237,-0.375992 L 27.2107,-1.10437 L 27.5729,-1.76335 L 28.0877,-2.31154 L 28.7227,-2.71448 L 29.4379,-2.94685
 L 30.1884,-2.99408 L 30.927,-2.85316 L 31.6075,-2.53297 L 32.1869,-2.05363 L 32.6289,-1.44525 L 32.9057,-0.746063
 L 33,-0 L 32.9057,0.746063 L 32.6289,1.44525 L 32.1869,2.05363 L 31.6075,2.53297 L 30.927,2.85316
 L 30.1884,2.99408 z
M -0.562134,2.94685 L -1.27733,2.71448 L -1.91226,2.31154 L -2.42705,1.76335 L -2.78932,1.10437 L -2.97633,0.375992
 L -2.97633,-0.375992 L -2.78932,-1.10437 L -2.42705,-1.76335 L -1.91226,-2.31154 L -1.27733,-2.71448 L -0.562134,-2.94685
 L 0.18837,-2.99408 L 0.927048,-2.85316 L 1.60747,-2.53297 L 2.1869,-2.05363 L 2.62891,-1.44525 L 2.90575,-0.746063
 L 3,-0 L 2.90575,0.746063 L 2.62891,1.44525 L 2.1869,2.05363 L 1.60747,2.53297 L 0.927048,2.85316
 L 0.18837,2.99408 z
M -15.5621,2.94685 L -16.2773,2.71448 L -16.9123,2.31154 L -17.427,1.76335 L -17.7893,1.10437 L -17.9763,0.375992
 L -17.9763,-0.375992 L -17.7893,-1.10437 L -17.427,-1.76335 L -16.9123,-2.31154 L -16.2773,-2.71448 L -15.5621,-2.94685
 L -14.8116,-2.99408 L -14.0729,-2.85316 L -13.3925,-2.53297 L -12.8131,-2.05363 L -12.3711,-1.44525 L -12.0942,-0.746063
 L -12,-0 L -12.0942,0.746063 L -12.3711,1.44525 L -12.8131,2.05363 L -13.3925,2.53297 L -14.0729,2.85316
 L -14.8116,2.99408 z
M -90.5621,2.94685 L -91.2773,2.71448 L -91.9123,2.31154 L -92.427,1.76335 L -92.7893,1.10437 L -92.9763,0.375992
 L -92.9763,-0.375992 L -92.7893,-1.10437 L -92.427,-1.76335 L -91.9123,-2.31154 L -91.2773,-2.71448 L -90.5621,-2.94685
 L -89.8116,-2.99408 L -89.073,-2.85316 L -88.3925,-2.53297 L -87.8131,-2.05363 L -87.3711,-1.44525 L -87.0943,-0.746063
 L -87,-0 L -87.0943,0.746063 L -87.3711,1.44525 L -87.8131,2.05363 L -88.3925,2.53297 L -89.073,2.85316
 L -89.8116,2.99408 z
M -30.5621,2.94685 L -31.2773,2.71448 L -31.9123,2.31154 L -32.427,1.76335 L -32.7893,1.10437 L -32.9763,0.375992
 L -32.9763,-0.375992 L -32.7893,-1.10437 L -32.427,-1.76335 L -31.9123,-2.31154 L -31.2773,-2.71448 L -30.5621,-2.94685
 L -29.8116,-2.99408 L -29.0729,-2.85316 L -28.3925,-2.53297 L -27.8131,-2.05363 L -27.3711,-1.44525 L -27.0942,-0.746063
 L -27,-0 L -27.0942,0.746063 L -27.3711,1.44525 L -27.8131,2.05363 L -28.3925,2.53297 L -29.0729,2.85316
 L -29.8116,2.99408 z
M -105.562,2.94685 L -106.277,2.71448 L -106.912,2.31154 L -107.427,1.76335 L -107.789,1.10437 L -107.976,0.375992
 L -107.976,-0.375992 L -107.789,-1.10437 L -107.427,-1.76335 L -106.912,-2.31154 L -106.277,-2.71448 L -105.562,-2.94685
 L -104.812,-2.99408 L -104.073,-2.85316 L -103.393,-2.53297 L -102.813,-2.05363 L -102.371,-1.44525 L -102.094,-0.746063
 L -102,-0 L -102.094,0.746063 L -102.371,1.44525 L -102.813,2.05363 L -103.393,2.53297 L -104.073,2.85316
 L -104.812,2.99408 z
M -180.562,2.94685 L -181.277,2.71448 L -181.912,2.31154 L -182.427,1.76335 L -182.789,1.10437 L -182.976,0.375992
 L -182.976,-0.375992 L -182.789,-1.10437 L -182.427,-1.76335 L -181.912,-2.31154 L -181.277,-2.71448 L -180.562,-2.94685
 L -179.812,-2.99408 L -179.073,-2.85316 L -178.393,-2.53297 L -177.813,-2.05363 L -177.371,-1.44525 L -177.094,-0.746063
 L -177,-0 L -177.094,0.746063 L -177.371,1.44525 L -177.813,2.05363 L -178.393,2.53297 L -179.073,2.85316
 L -179.812,2.99408 z
M 119.438,2.94685 L 118.723,2.71448 L 118.088,2.31154 L 117.573,1.76335 L 117.211,1.10437 L 117.024,0.375992
 L 117.024,-0.375992 L 117.211,-1.10437 L 117.573,-1.76335 L 118.088,-2.31154 L 118.723,-2.71448 L 119.438,-2.94685
 L 120.188,-2.99408 L 120.927,-2.85316 L 121.607,-2.53297 L 122.187,-2.05363 L 122.629,-1.44525 L 122.906,-0.746063
 L 123,-0 L 122.906,0.746063 L 122.629,1.44525 L 122.187,2.05363 L 121.607,2.53297 L 120.927,2.85316
 L 120.188,2.99408 z
M -135.562,2.94685 L -136.277,2.71448 L -136.912,2.31154 L -137.427,1.76335 L -137.789,1.10437 L -137.976,0.375992
 L -137.976,-0.375992 L -137.789,-1.10437 L -137.427,-1.76335 L -136.912,-2.31154 L -136.277,-2.71448 L -135.562,-2.94685
 L -134.812,-2.99408 L -134.073,-2.85316 L -133.393,-2.53297 L -132.813,-2.05363 L -132.371,-1.44525 L -132.094,-0.746063
 L -132,-0 L -132.094,0.746063 L -132.371,1.44525 L -132.813,2.05363 L -133.393,2.53297 L -134.073,2.85316
 L -134.812,2.99408 z
M -45.5621,2.94685 L -46.2773,2.71448 L -46.9123,2.31154 L -47.427,1.76335 L -47.7893,1.10437 L -47.9763,0.375992
 L -47.9763,-0.375992 L -47.7893,-1.10437 L -47.427,-1.76335 L -46.9123,-2.31154 L -46.2773,-2.71448 L -45.5621,-2.94685
 L -44.8116,-2.99408 L -44.0729,-2.85316 L -43.3925,-2.53297 L -42.8131,-2.05363 L -42.3711,-1.44525 L -42.0942,-0.746063
 L -42,-0 L -42.0942,0.746063 L -42.3711,1.44525 L -42.8131,2.05363 L -43.3925,2.53297 L -44.0729,2.85316
 L -44.8116,2.99408 z
M 59.4379,2.94685 L 58.7227,2.71448 L 58.0877,2.31154 L 57.5729,1.76335 L 57.2107,1.10437 L 57.0237,0.375992
 L 57.0237,-0.375992 L 57.2107,-1.10437 L 57.5729,-1.76335 L 58.0877,-2.31154 L 58.7227,-2.71448 L 59.4379,-2.94685
 L 60.1884,-2.99408 L 60.927,-2.85316 L 61.6075,-2.53297 L 62.1869,-2.05363 L 62.6289,-1.44525 L 62.9057,-0.746063
 L 63,-0 L 62.9057,0.746063 L 62.6289,1.44525 L 62.1869,2.05363 L 61.6075,2.53297 L 60.927,2.85316
 L 60.1884,2.99408 z
M 89.4379,2.94685 L 88.7227,2.71448 L 88.0877,2.31154 L 87.573,1.76335 L 87.2107,1.10437 L 87.0237,0.375992
 L 87.0237,-0.375992 L 87.2107,-1.10437 L 87.573,-1.76335 L 88.0877,-2.31154 L 88.7227,-2.71448 L 89.4379,-2.94685
 L 90.1884,-2.99408 L 90.927,-2.85316 L 91.6075,-2.53297 L 92.1869,-2.05363 L 92.6289,-1.44525 L 92.9057,-0.746063
 L 93,-0 L 92.9057,0.746063 L 92.6289,1.44525 L 92.1869,2.05363 L 91.6075,2.53297 L 90.927,2.85316
 L 90.1884,2.99408 z
M -75.5621,2.94685 L -76.2773,2.71448 L -76.9123,2.31154 L -77.427,1.76335 L -77.7893,1.10437 L -77.9763,0.375992
 L -77.9763,-0.375992 L -77.7893,-1.10437 L -77.427,-1.76335 L -76.9123,-2.31154 L -76.2773,-2.71448 L -75.5621,-2.94685
 L -74.8116,-2.99408 L -74.073,-2.85316 L -73.3925,-2.53297 L -72.8131,-2.05363 L -72.3711,-1.44525 L -72.0943,-0.746063
 L -72,-0 L -72.0943,0.746063 L -72.3711,1.44525 L -72.8131,2.05363 L -73.3925,2.53297 L -74.073,2.85316
 L -74.8116,2.99408 z
M 44.4379,2.94685 L 43.7227,2.71448 L 43.0877,2.31154 L 42.5729,1.76335 L 42.2107,1.10437 L 42.0237,0.375992
 L 42.0237,-0.375992 L 42.2107,-1.10437 L 42.5729,-1.76335 L 43.0877,-2.31154 L 43.7227,-2.71448 L 44.4379,-2.94685
 L 45.1884,-2.99408 L 45.927,-2.85316 L 46.6075,-2.53297 L 47.1869,-2.05363 L 47.6289,-1.44525 L 47.9057,-0.746063
 L 48,-0 L 47.9057,0.746063 L 47.6289,1.44525 L 47.1869,2.05363 L 46.6075,2.53297 L 45.927,2.85316
 L 45.1884,2.99408 z
M 74.4379,2.94685 L 73.7227,2.71448 L 73.0877,2.31154 L 72.573,1.76335 L 72.2107,1.10437 L 72.0237,0.375992
 L 72.0237,-0.375992 L 72.2107,-1.10437 L 72.573,-1.76335 L 73.0877,-2.31154 L 73.7227,-2.71448 L 74.4379,-2.94685
 L 75.1884,-2.99408 L 75.927,-2.85316 L 76.6075,-2.53297 L 77.1869,-2.05363 L 77.6289,-1.44525 L 77.9057,-0.746063
 L 78,-0 L 77.9057,0.746063 L 77.6289,1.44525 L 77.1869,2.05363 L 76.6075,2.53297 L 75.927,2.85316
 L 75.1884,2.99408 z
M 149.438,2.94685 L 148.723,2.71448 L 148.088,2.31154 L 147.573,1.76335 L 147.211,1.10437 L 147.024,0.375992
 L 147.024,-0.375992 L 147.211,-1.10437 L 147.573,-1.76335 L 148.088,-2.31154 L 148.723,-2.71448 L 149.438,-2.94685
 L 150.188,-2.99408 L 150.927,-2.85316 L 151.607,-2.53297 L 152.187,-2.05363 L 152.629,-1.44525 L 152.906,-0.746063
 L 153,-0 L 152.906,0.746063 L 152.629,1.44525 L 152.187,2.05363 L 151.607,2.53297 L 150.927,2.85316
 L 150.188,2.99408 z
M 179.438,2.94685 L 178.723,2.71448 L 178.088,2.31154 L 177.573,1.76335 L 177.211,1.10437 L 177.024,0.375992
 L 177.024,-0.375992 L 177.211,-1.10437 L 177.573,-1.76335 L 178.088,-2.31154 L 178.723,-2.71448 L 179.438,-2.94685
 L 180.188,-2.99408 L 180.927,-2.85316 L 181.607,-2.53297 L 182.187,-2.05363 L 182.629,-1.44525 L 182.906,-0.746063
 L 183,-0 L 182.906,0.746063 L 182.629,1.44525 L 182.187,2.05363 L 181.607,2.53297 L 180.927,2.85316
 L 180.188,2.99408 z
M 164.438,2.94685 L 163.723,2.71448 L 163.088,2.31154 L 162.573,1.76335 L 162.211,1.10437 L 162.024,0.375992
 L 162.024,-0.375992 L 162.211,-1.10437 L 162.573,-1.76335 L 163.088,-2.31154 L 163.723,-2.71448 L 164.438,-2.94685
 L 165.188,-2.99408 L 165.927,-2.85316 L 166.607,-2.53297 L 167.187,-2.05363 L 167.629,-1.44525 L 167.906,-0.746063
 L 168,-0 L 167.906,0.746063 L 167.629,1.44525 L 167.187,2.05363 L 166.607,2.53297 L 165.927,2.85316
 L 165.188,2.99408 z
M -165.562,2.94685 L -166.277,2.71448 L -166.912,2.31154 L -167.427,1.76335 L -167.789,1.10437 L -167.976,0.375992
 L -167.976,-0.375992 L -167.789,-1.10437 L -167.427,-1.76335 L -166.912,-2.31154 L -166.277,-2.71448 L -165.562,-2.94685
 L -164.812,-2.99408 L -164.073,-2.85316 L -163.393,-2.53297 L -162.813,-2.05363 L -162.371,-1.44525 L -162.094,-0.746063
 L -162,-0 L -162.094,0.746063 L -162.371,1.44525 L -162.813,2.05363 L -163.393,2.53297 L -164.073,2.85316
 L -164.812,2.99408 z
" stroke="black" fill="lightgray" stroke-width="0.5"/>
</svg>
