  0
SECTION
  2
BLOCKS
  0
ENDSEC
  0
SECTION
  2
ENTITIES
  0
LINE
  8
0
 10
369.158
 20
1.53778
 11
369.799
 21
1.66537
  0
LINE
  8
0
 10
369.799
 20
1.66537
 11
370.418
 21
1.87561
  0
LINE
  8
0
 10
370.418
 20
1.87561
 11
371.005
 21
2.16489
  0
LINE
  8
0
 10
371.005
 20
2.16489
 11
371.549
 21
2.52824
  0
LINE
  8
0
 10
371.549
 20
2.52824
 11
372.041
 21
2.95947
  0
LINE
  8
0
 10
372.041
 20
2.95947
 11
372.472
 21
3.4512
  0
LINE
  8
0
 10
372.472
 20
3.4512
 11
372.835
 21
3.99501
  0
LINE
  8
0
 10
372.835
 20
3.99501
 11
373.124
 21
4.58159
  0
LINE
  8
0
 10
373.124
 20
4.58159
 11
373.335
 21
5.20091
  0
LINE
  8
0
 10
373.335
 20
5.20091
 11
373.462
 21
5.84238
  0
LINE
  8
0
 10
373.462
 20
5.84238
 11
373.505
 21
6.49501
  0
LINE
  8
0
 10
373.505
 20
6.49501
 11
373.505
 21
8.50499
  0
LINE
  8
0
 10
373.505
 20
8.50499
 11
373.462
 21
9.15762
  0
LINE
  8
0
 10
373.462
 20
9.15762
 11
373.335
 21
9.79909
  0
LINE
  8
0
 10
373.335
 20
9.79909
 11
373.124
 21
10.4184
  0
LINE
  8
0
 10
373.124
 20
10.4184
 11
372.835
 21
11.005
  0
LINE
  8
0
 10
372.835
 20
11.005
 11
372.472
 21
11.5488
  0
LINE
  8
0
 10
372.472
 20
11.5488
 11
372.041
 21
12.0405
  0
LINE
  8
0
 10
372.041
 20
12.0405
 11
371.549
 21
12.4718
  0
LINE
  8
0
 10
371.549
 20
12.4718
 11
371.005
 21
12.8351
  0
LINE
  8
0
 10
371.005
 20
12.8351
 11
370.418
 21
13.1244
  0
LINE
  8
0
 10
370.418
 20
13.1244
 11
369.799
 21
13.3346
  0
LINE
  8
0
 10
369.799
 20
13.3346
 11
369.158
 21
13.4622
  0
LINE
  8
0
 10
369.158
 20
13.4622
 11
368.505
 21
13.505
  0
LINE
  8
0
 10
368.505
 20
13.505
 11
6.49501
 21
13.505
  0
LINE
  8
0
 10
6.49501
 20
13.505
 11
5.84238
 21
13.4622
  0
LINE
  8
0
 10
5.84238
 20
13.4622
 11
5.20091
 21
13.3346
  0
LINE
  8
0
 10
5.20091
 20
13.3346
 11
4.58159
 21
13.1244
  0
LINE
  8
0
 10
4.58159
 20
13.1244
 11
3.99501
 21
12.8351
  0
LINE
  8
0
 10
3.99501
 20
12.8351
 11
3.4512
 21
12.4718
  0
LINE
  8
0
 10
3.4512
 20
12.4718
 11
2.95947
 21
12.0405
  0
LINE
  8
0
 10
2.95947
 20
12.0405
 11
2.52824
 21
11.5488
  0
LINE
  8
0
 10
2.52824
 20
11.5488
 11
2.16489
 21
11.005
  0
LINE
  8
0
 10
2.16489
 20
11.005
 11
1.87561
 21
10.4184
  0
LINE
  8
0
 10
1.87561
 20
10.4184
 11
1.66537
 21
9.79909
  0
LINE
  8
0
 10
1.66537
 20
9.79909
 11
1.53778
 21
9.15762
  0
LINE
  8
0
 10
1.53778
 20
9.15762
 11
1.49501
 21
8.50499
  0
LINE
  8
0
 10
1.49501
 20
8.50499
 11
1.49501
 21
6.49501
  0
LINE
  8
0
 10
1.49501
 20
6.49501
 11
1.53778
 21
5.84238
  0
LINE
  8
0
 10
1.53778
 20
5.84238
 11
1.66537
 21
5.20091
  0
LINE
  8
0
 10
1.66537
 20
5.20091
 11
1.87561
 21
4.58159
  0
LINE
  8
0
 10
1.87561
 20
4.58159
 11
2.16489
 21
3.99501
  0
LINE
  8
0
 10
2.16489
 20
3.99501
 11
2.52824
 21
3.4512
  0
LINE
  8
0
 10
2.52824
 20
3.4512
 11
2.95947
 21
2.95947
  0
LINE
  8
0
 10
2.95947
 20
2.95947
 11
3.4512
 21
2.52824
  0
LINE
  8
0
 10
3.4512
 20
2.52824
 11
3.99501
 21
2.16489
  0
LINE
  8
0
 10
3.99501
 20
2.16489
 11
4.58159
 21
1.87561
  0
LINE
  8
0
 10
4.58159
 20
1.87561
 11
5.20091
 21
1.66537
  0
LINE
  8
0
 10
5.20091
 20
1.66537
 11
5.84238
 21
1.53778
  0
LINE
  8
0
 10
5.84238
 20
1.53778
 11
6.49501
 21
1.49501
  0
LINE
  8
0
 10
6.49501
 20
1.49501
 11
368.505
 21
1.49501
  0
LINE
  8
0
 10
368.505
 20
1.49501
 11
369.158
 21
1.53778
  0
LINE
  8
0
 10
52.1084
 20
4.52567
 11
51.7235
 21
4.60222
  0
LINE
  8
0
 10
51.7235
 20
4.60222
 11
51.3519
 21
4.72835
  0
LINE
  8
0
 10
51.3519
 20
4.72835
 11
51
 21
4.90192
  0
LINE
  8
0
 10
51
 20
4.90192
 11
50.6737
 21
5.11993
  0
LINE
  8
0
 10
50.6737
 20
5.11993
 11
50.3787
 21
5.37868
  0
LINE
  8
0
 10
50.3787
 20
5.37868
 11
50.1199
 21
5.67371
  0
LINE
  8
0
 10
50.1199
 20
5.67371
 11
49.9019
 21
6
  0
LINE
  8
0
 10
49.9019
 20
6
 11
49.7284
 21
6.35194
  0
LINE
  8
0
 10
49.7284
 20
6.35194
 11
49.6022
 21
6.72354
  0
LINE
  8
0
 10
49.6022
 20
6.72354
 11
49.5257
 21
7.10841
  0
LINE
  8
0
 10
49.5257
 20
7.10841
 11
49.5
 21
7.5
  0
LINE
  8
0
 10
49.5
 20
7.5
 11
49.5257
 21
7.89157
  0
LINE
  8
0
 10
49.5257
 20
7.89157
 11
49.6022
 21
8.27644
  0
LINE
  8
0
 10
49.6022
 20
8.27644
 11
49.7284
 21
8.64804
  0
LINE
  8
0
 10
49.7284
 20
8.64804
 11
49.9019
 21
9
  0
LINE
  8
0
 10
49.9019
 20
9
 11
50.1199
 21
9.32628
  0
LINE
  8
0
 10
50.1199
 20
9.32628
 11
50.3787
 21
9.62131
  0
LINE
  8
0
 10
50.3787
 20
9.62131
 11
50.6737
 21
9.88005
  0
LINE
  8
0
 10
50.6737
 20
9.88005
 11
51
 21
10.0981
  0
LINE
  8
0
 10
51
 20
10.0981
 11
51.3519
 21
10.2716
  0
LINE
  8
0
 10
51.3519
 20
10.2716
 11
51.7235
 21
10.3978
  0
LINE
  8
0
 10
51.7235
 20
10.3978
 11
52.1084
 21
10.4743
  0
LINE
  8
0
 10
52.1084
 20
10.4743
 11
52.5
 21
10.5
  0
LINE
  8
0
 10
52.5
 20
10.5
 11
52.8916
 21
10.4743
  0
LINE
  8
0
 10
52.8916
 20
10.4743
 11
53.2765
 21
10.3978
  0
LINE
  8
0
 10
53.2765
 20
10.3978
 11
53.648
 21
10.2716
  0
LINE
  8
0
 10
53.648
 20
10.2716
 11
54
 21
10.0981
  0
LINE
  8
0
 10
54
 20
10.0981
 11
54.3263
 21
9.88005
  0
LINE
  8
0
 10
54.3263
 20
9.88005
 11
54.6213
 21
9.62131
  0
LINE
  8
0
 10
54.6213
 20
9.62131
 11
54.8801
 21
9.32628
  0
LINE
  8
0
 10
54.8801
 20
9.32628
 11
55.0981
 21
9
  0
LINE
  8
0
 10
55.0981
 20
9
 11
55.2716
 21
8.64804
  0
LINE
  8
0
 10
55.2716
 20
8.64804
 11
55.3978
 21
8.27644
  0
LINE
  8
0
 10
55.3978
 20
8.27644
 11
55.4743
 21
7.89157
  0
LINE
  8
0
 10
55.4743
 20
7.89157
 11
55.5
 21
7.5
  0
LINE
  8
0
 10
55.5
 20
7.5
 11
55.4743
 21
7.10841
  0
LINE
  8
0
 10
55.4743
 20
7.10841
 11
55.3978
 21
6.72354
  0
LINE
  8
0
 10
55.3978
 20
6.72354
 11
55.2716
 21
6.35194
  0
LINE
  8
0
 10
55.2716
 20
6.35194
 11
55.0981
 21
6
  0
LINE
  8
0
 10
55.0981
 20
6
 11
54.8801
 21
5.67371
  0
LINE
  8
0
 10
54.8801
 20
5.67371
 11
54.6213
 21
5.37868
  0
LINE
  8
0
 10
54.6213
 20
5.37868
 11
54.3263
 21
5.11993
  0
LINE
  8
0
 10
54.3263
 20
5.11993
 11
54
 21
4.90192
  0
LINE
  8
0
 10
54
 20
4.90192
 11
53.648
 21
4.72835
  0
LINE
  8
0
 10
53.648
 20
4.72835
 11
53.2765
 21
4.60222
  0
LINE
  8
0
 10
53.2765
 20
4.60222
 11
52.8916
 21
4.52567
  0
LINE
  8
0
 10
52.8916
 20
4.52567
 11
52.5
 21
4.5
  0
LINE
  8
0
 10
52.5
 20
4.5
 11
52.1084
 21
4.52567
  0
LINE
  8
0
 10
127.108
 20
4.52567
 11
126.724
 21
4.60222
  0
LINE
  8
0
 10
126.724
 20
4.60222
 11
126.352
 21
4.72835
  0
LINE
  8
0
 10
126.352
 20
4.72835
 11
126
 21
4.90192
  0
LINE
  8
0
 10
126
 20
4.90192
 11
125.674
 21
5.11993
  0
LINE
  8
0
 10
125.674
 20
5.11993
 11
125.379
 21
5.37868
  0
LINE
  8
0
 10
125.379
 20
5.37868
 11
125.12
 21
5.67371
  0
LINE
  8
0
 10
125.12
 20
5.67371
 11
124.902
 21
6
  0
LINE
  8
0
 10
124.902
 20
6
 11
124.728
 21
6.35194
  0
LINE
  8
0
 10
124.728
 20
6.35194
 11
124.602
 21
6.72354
  0
LINE
  8
0
 10
124.602
 20
6.72354
 11
124.526
 21
7.10841
  0
LINE
  8
0
 10
124.526
 20
7.10841
 11
124.5
 21
7.5
  0
LINE
  8
0
 10
124.5
 20
7.5
 11
124.526
 21
7.89157
  0
LINE
  8
0
 10
124.526
 20
7.89157
 11
124.602
 21
8.27644
  0
LINE
  8
0
 10
124.602
 20
8.27644
 11
124.728
 21
8.64804
  0
LINE
  8
0
 10
124.728
 20
8.64804
 11
124.902
 21
9
  0
LINE
  8
0
 10
124.902
 20
9
 11
125.12
 21
9.32628
  0
LINE
  8
0
 10
125.12
 20
9.32628
 11
125.379
 21
9.62131
  0
LINE
  8
0
 10
125.379
 20
9.62131
 11
125.674
 21
9.88005
  0
LINE
  8
0
 10
125.674
 20
9.88005
 11
126
 21
10.0981
  0
LINE
  8
0
 10
126
 20
10.0981
 11
126.352
 21
10.2716
  0
LINE
  8
0
 10
126.352
 20
10.2716
 11
126.724
 21
10.3978
  0
LINE
  8
0
 10
126.724
 20
10.3978
 11
127.108
 21
10.4743
  0
LINE
  8
0
 10
127.108
 20
10.4743
 11
127.5
 21
10.5
  0
LINE
  8
0
 10
127.5
 20
10.5
 11
127.892
 21
10.4743
  0
LINE
  8
0
 10
127.892
 20
10.4743
 11
128.276
 21
10.3978
  0
LINE
  8
0
 10
128.276
 20
10.3978
 11
128.648
 21
10.2716
  0
LINE
  8
0
 10
128.648
 20
10.2716
 11
129
 21
10.0981
  0
LINE
  8
0
 10
129
 20
10.0981
 11
129.326
 21
9.88005
  0
LINE
  8
0
 10
129.326
 20
9.88005
 11
129.621
 21
9.62131
  0
LINE
  8
0
 10
129.621
 20
9.62131
 11
129.88
 21
9.32628
  0
LINE
  8
0
 10
129.88
 20
9.32628
 11
130.098
 21
9
  0
LINE
  8
0
 10
130.098
 20
9
 11
130.272
 21
8.64804
  0
LINE
  8
0
 10
130.272
 20
8.64804
 11
130.398
 21
8.27644
  0
LINE
  8
0
 10
130.398
 20
8.27644
 11
130.474
 21
7.89157
  0
LINE
  8
0
 10
130.474
 20
7.89157
 11
130.5
 21
7.5
  0
LINE
  8
0
 10
130.5
 20
7.5
 11
130.474
 21
7.10841
  0
LINE
  8
0
 10
130.474
 20
7.10841
 11
130.398
 21
6.72354
  0
LINE
  8
0
 10
130.398
 20
6.72354
 11
130.272
 21
6.35194
  0
LINE
  8
0
 10
130.272
 20
6.35194
 11
130.098
 21
6
  0
LINE
  8
0
 10
130.098
 20
6
 11
129.88
 21
5.67371
  0
LINE
  8
0
 10
129.88
 20
5.67371
 11
129.621
 21
5.37868
  0
LINE
  8
0
 10
129.621
 20
5.37868
 11
129.326
 21
5.11993
  0
LINE
  8
0
 10
129.326
 20
5.11993
 11
129
 21
4.90192
  0
LINE
  8
0
 10
129
 20
4.90192
 11
128.648
 21
4.72835
  0
LINE
  8
0
 10
128.648
 20
4.72835
 11
128.276
 21
4.60222
  0
LINE
  8
0
 10
128.276
 20
4.60222
 11
127.892
 21
4.52567
  0
LINE
  8
0
 10
127.892
 20
4.52567
 11
127.5
 21
4.5
  0
LINE
  8
0
 10
127.5
 20
4.5
 11
127.108
 21
4.52567
  0
LINE
  8
0
 10
112.108
 20
4.52567
 11
111.724
 21
4.60222
  0
LINE
  8
0
 10
111.724
 20
4.60222
 11
111.352
 21
4.72835
  0
LINE
  8
0
 10
111.352
 20
4.72835
 11
111
 21
4.90192
  0
LINE
  8
0
 10
111
 20
4.90192
 11
110.674
 21
5.11993
  0
LINE
  8
0
 10
110.674
 20
5.11993
 11
110.379
 21
5.37868
  0
LINE
  8
0
 10
110.379
 20
5.37868
 11
110.12
 21
5.67371
  0
LINE
  8
0
 10
110.12
 20
5.67371
 11
109.902
 21
6
  0
LINE
  8
0
 10
109.902
 20
6
 11
109.728
 21
6.35194
  0
LINE
  8
0
 10
109.728
 20
6.35194
 11
109.602
 21
6.72354
  0
LINE
  8
0
 10
109.602
 20
6.72354
 11
109.526
 21
7.10841
  0
LINE
  8
0
 10
109.526
 20
7.10841
 11
109.5
 21
7.5
  0
LINE
  8
0
 10
109.5
 20
7.5
 11
109.526
 21
7.89157
  0
LINE
  8
0
 10
109.526
 20
7.89157
 11
109.602
 21
8.27644
  0
LINE
  8
0
 10
109.602
 20
8.27644
 11
109.728
 21
8.64804
  0
LINE
  8
0
 10
109.728
 20
8.64804
 11
109.902
 21
9
  0
LINE
  8
0
 10
109.902
 20
9
 11
110.12
 21
9.32628
  0
LINE
  8
0
 10
110.12
 20
9.32628
 11
110.379
 21
9.62131
  0
LINE
  8
0
 10
110.379
 20
9.62131
 11
110.674
 21
9.88005
  0
LINE
  8
0
 10
110.674
 20
9.88005
 11
111
 21
10.0981
  0
LINE
  8
0
 10
111
 20
10.0981
 11
111.352
 21
10.2716
  0
LINE
  8
0
 10
111.352
 20
10.2716
 11
111.724
 21
10.3978
  0
LINE
  8
0
 10
111.724
 20
10.3978
 11
112.108
 21
10.4743
  0
LINE
  8
0
 10
112.108
 20
10.4743
 11
112.5
 21
10.5
  0
LINE
  8
0
 10
112.5
 20
10.5
 11
112.892
 21
10.4743
  0
LINE
  8
0
 10
112.892
 20
10.4743
 11
113.276
 21
10.3978
  0
LINE
  8
0
 10
113.276
 20
10.3978
 11
113.648
 21
10.2716
  0
LINE
  8
0
 10
113.648
 20
10.2716
 11
114
 21
10.0981
  0
LINE
  8
0
 10
114
 20
10.0981
 11
114.326
 21
9.88005
  0
LINE
  8
0
 10
114.326
 20
9.88005
 11
114.621
 21
9.62131
  0
LINE
  8
0
 10
114.621
 20
9.62131
 11
114.88
 21
9.32628
  0
LINE
  8
0
 10
114.88
 20
9.32628
 11
115.098
 21
9
  0
LINE
  8
0
 10
115.098
 20
9
 11
115.272
 21
8.64804
  0
LINE
  8
0
 10
115.272
 20
8.64804
 11
115.398
 21
8.27644
  0
LINE
  8
0
 10
115.398
 20
8.27644
 11
115.474
 21
7.89157
  0
LINE
  8
0
 10
115.474
 20
7.89157
 11
115.5
 21
7.5
  0
LINE
  8
0
 10
115.5
 20
7.5
 11
115.474
 21
7.10841
  0
LINE
  8
0
 10
115.474
 20
7.10841
 11
115.398
 21
6.72354
  0
LINE
  8
0
 10
115.398
 20
6.72354
 11
115.272
 21
6.35194
  0
LINE
  8
0
 10
115.272
 20
6.35194
 11
115.098
 21
6
  0
LINE
  8
0
 10
115.098
 20
6
 11
114.88
 21
5.67371
  0
LINE
  8
0
 10
114.88
 20
5.67371
 11
114.621
 21
5.37868
  0
LINE
  8
0
 10
114.621
 20
5.37868
 11
114.326
 21
5.11993
  0
LINE
  8
0
 10
114.326
 20
5.11993
 11
114
 21
4.90192
  0
LINE
  8
0
 10
114
 20
4.90192
 11
113.648
 21
4.72835
  0
LINE
  8
0
 10
113.648
 20
4.72835
 11
113.276
 21
4.60222
  0
LINE
  8
0
 10
113.276
 20
4.60222
 11
112.892
 21
4.52567
  0
LINE
  8
0
 10
112.892
 20
4.52567
 11
112.5
 21
4.5
  0
LINE
  8
0
 10
112.5
 20
4.5
 11
112.108
 21
4.52567
  0
LINE
  8
0
 10
187.108
 20
4.52567
 11
186.724
 21
4.60222
  0
LINE
  8
0
 10
186.724
 20
4.60222
 11
186.352
 21
4.72835
  0
LINE
  8
0
 10
186.352
 20
4.72835
 11
186
 21
4.90192
  0
LINE
  8
0
 10
186
 20
4.90192
 11
185.674
 21
5.11993
  0
LINE
  8
0
 10
185.674
 20
5.11993
 11
185.379
 21
5.37868
  0
LINE
  8
0
 10
185.379
 20
5.37868
 11
185.12
 21
5.67371
  0
LINE
  8
0
 10
185.12
 20
5.67371
 11
184.902
 21
6
  0
LINE
  8
0
 10
184.902
 20
6
 11
184.728
 21
6.35194
  0
LINE
  8
0
 10
184.728
 20
6.35194
 11
184.602
 21
6.72354
  0
LINE
  8
0
 10
184.602
 20
6.72354
 11
184.526
 21
7.10841
  0
LINE
  8
0
 10
184.526
 20
7.10841
 11
184.5
 21
7.5
  0
LINE
  8
0
 10
184.5
 20
7.5
 11
184.526
 21
7.89157
  0
LINE
  8
0
 10
184.526
 20
7.89157
 11
184.602
 21
8.27644
  0
LINE
  8
0
 10
184.602
 20
8.27644
 11
184.728
 21
8.64804
  0
LINE
  8
0
 10
184.728
 20
8.64804
 11
184.902
 21
9
  0
LINE
  8
0
 10
184.902
 20
9
 11
185.12
 21
9.32628
  0
LINE
  8
0
 10
185.12
 20
9.32628
 11
185.379
 21
9.62131
  0
LINE
  8
0
 10
185.379
 20
9.62131
 11
185.674
 21
9.88005
  0
LINE
  8
0
 10
185.674
 20
9.88005
 11
186
 21
10.0981
  0
LINE
  8
0
 10
186
 20
10.0981
 11
186.352
 21
10.2716
  0
LINE
  8
0
 10
186.352
 20
10.2716
 11
186.724
 21
10.3978
  0
LINE
  8
0
 10
186.724
 20
10.3978
 11
187.108
 21
10.4743
  0
LINE
  8
0
 10
187.108
 20
10.4743
 11
187.5
 21
10.5
  0
LINE
  8
0
 10
187.5
 20
10.5
 11
187.892
 21
10.4743
  0
LINE
  8
0
 10
187.892
 20
10.4743
 11
188.276
 21
10.3978
  0
LINE
  8
0
 10
188.276
 20
10.3978
 11
188.648
 21
10.2716
  0
LINE
  8
0
 10
188.648
 20
10.2716
 11
189
 21
10.0981
  0
LINE
  8
0
 10
189
 20
10.0981
 11
189.326
 21
9.88005
  0
LINE
  8
0
 10
189.326
 20
9.88005
 11
189.621
 21
9.62131
  0
LINE
  8
0
 10
189.621
 20
9.62131
 11
189.88
 21
9.32628
  0
LINE
  8
0
 10
189.88
 20
9.32628
 11
190.098
 21
9
  0
LINE
  8
0
 10
190.098
 20
9
 11
190.272
 21
8.64804
  0
LINE
  8
0
 10
190.272
 20
8.64804
 11
190.398
 21
8.27644
  0
LINE
  8
0
 10
190.398
 20
8.27644
 11
190.474
 21
7.89157
  0
LINE
  8
0
 10
190.474
 20
7.89157
 11
190.5
 21
7.5
  0
LINE
  8
0
 10
190.5
 20
7.5
 11
190.474
 21
7.10841
  0
LINE
  8
0
 10
190.474
 20
7.10841
 11
190.398
 21
6.72354
  0
LINE
  8
0
 10
190.398
 20
6.72354
 11
190.272
 21
6.35194
  0
LINE
  8
0
 10
190.272
 20
6.35194
 11
190.098
 21
6
  0
LINE
  8
0
 10
190.098
 20
6
 11
189.88
 21
5.67371
  0
LINE
  8
0
 10
189.88
 20
5.67371
 11
189.621
 21
5.37868
  0
LINE
  8
0
 10
189.621
 20
5.37868
 11
189.326
 21
5.11993
  0
LINE
  8
0
 10
189.326
 20
5.11993
 11
189
 21
4.90192
  0
LINE
  8
0
 10
189
 20
4.90192
 11
188.648
 21
4.72835
  0
LINE
  8
0
 10
188.648
 20
4.72835
 11
188.276
 21
4.60222
  0
LINE
  8
0
 10
188.276
 20
4.60222
 11
187.892
 21
4.52567
  0
LINE
  8
0
 10
187.892
 20
4.52567
 11
187.5
 21
4.5
  0
LINE
  8
0
 10
187.5
 20
4.5
 11
187.108
 21
4.52567
  0
LINE
  8
0
 10
142.108
 20
4.52567
 11
141.724
 21
4.60222
  0
LINE
  8
0
 10
141.724
 20
4.60222
 11
141.352
 21
4.72835
  0
LINE
  8
0
 10
141.352
 20
4.72835
 11
141
 21
4.90192
  0
LINE
  8
0
 10
141
 20
4.90192
 11
140.674
 21
5.11993
  0
LINE
  8
0
 10
140.674
 20
5.11993
 11
140.379
 21
5.37868
  0
LINE
  8
0
 10
140.379
 20
5.37868
 11
140.12
 21
5.67371
  0
LINE
  8
0
 10
140.12
 20
5.67371
 11
139.902
 21
6
  0
LINE
  8
0
 10
139.902
 20
6
 11
139.728
 21
6.35194
  0
LINE
  8
0
 10
139.728
 20
6.35194
 11
139.602
 21
6.72354
  0
LINE
  8
0
 10
139.602
 20
6.72354
 11
139.526
 21
7.10841
  0
LINE
  8
0
 10
139.526
 20
7.10841
 11
139.5
 21
7.5
  0
LINE
  8
0
 10
139.5
 20
7.5
 11
139.526
 21
7.89157
  0
LINE
  8
0
 10
139.526
 20
7.89157
 11
139.602
 21
8.27644
  0
LINE
  8
0
 10
139.602
 20
8.27644
 11
139.728
 21
8.64804
  0
LINE
  8
0
 10
139.728
 20
8.64804
 11
139.902
 21
9
  0
LINE
  8
0
 10
139.902
 20
9
 11
140.12
 21
9.32628
  0
LINE
  8
0
 10
140.12
 20
9.32628
 11
140.379
 21
9.62131
  0
LINE
  8
0
 10
140.379
 20
9.62131
 11
140.674
 21
9.88005
  0
LINE
  8
0
 10
140.674
 20
9.88005
 11
141
 21
10.0981
  0
LINE
  8
0
 10
141
 20
10.0981
 11
141.352
 21
10.2716
  0
LINE
  8
0
 10
141.352
 20
10.2716
 11
141.724
 21
10.3978
  0
LINE
  8
0
 10
141.724
 20
10.3978
 11
142.108
 21
10.4743
  0
LINE
  8
0
 10
142.108
 20
10.4743
 11
142.5
 21
10.5
  0
LINE
  8
0
 10
142.5
 20
10.5
 11
142.892
 21
10.4743
  0
LINE
  8
0
 10
142.892
 20
10.4743
 11
143.276
 21
10.3978
  0
LINE
  8
0
 10
143.276
 20
10.3978
 11
143.648
 21
10.2716
  0
LINE
  8
0
 10
143.648
 20
10.2716
 11
144
 21
10.0981
  0
LINE
  8
0
 10
144
 20
10.0981
 11
144.326
 21
9.88005
  0
LINE
  8
0
 10
144.326
 20
9.88005
 11
144.621
 21
9.62131
  0
LINE
  8
0
 10
144.621
 20
9.62131
 11
144.88
 21
9.32628
  0
LINE
  8
0
 10
144.88
 20
9.32628
 11
145.098
 21
9
  0
LINE
  8
0
 10
145.098
 20
9
 11
145.272
 21
8.64804
  0
LINE
  8
0
 10
145.272
 20
8.64804
 11
145.398
 21
8.27644
  0
LINE
  8
0
 10
145.398
 20
8.27644
 11
145.474
 21
7.89157
  0
LINE
  8
0
 10
145.474
 20
7.89157
 11
145.5
 21
7.5
  0
LINE
  8
0
 10
145.5
 20
7.5
 11
145.474
 21
7.10841
  0
LINE
  8
0
 10
145.474
 20
7.10841
 11
145.398
 21
6.72354
  0
LINE
  8
0
 10
145.398
 20
6.72354
 11
145.272
 21
6.35194
  0
LINE
  8
0
 10
145.272
 20
6.35194
 11
145.098
 21
6
  0
LINE
  8
0
 10
145.098
 20
6
 11
144.88
 21
5.67371
  0
LINE
  8
0
 10
144.88
 20
5.67371
 11
144.621
 21
5.37868
  0
LINE
  8
0
 10
144.621
 20
5.37868
 11
144.326
 21
5.11993
  0
LINE
  8
0
 10
144.326
 20
5.11993
 11
144
 21
4.90192
  0
LINE
  8
0
 10
144
 20
4.90192
 11
143.648
 21
4.72835
  0
LINE
  8
0
 10
143.648
 20
4.72835
 11
143.276
 21
4.60222
  0
LINE
  8
0
 10
143.276
 20
4.60222
 11
142.892
 21
4.52567
  0
LINE
  8
0
 10
142.892
 20
4.52567
 11
142.5
 21
4.5
  0
LINE
  8
0
 10
142.5
 20
4.5
 11
142.108
 21
4.52567
  0
LINE
  8
0
 10
202.108
 20
4.52567
 11
201.724
 21
4.60222
  0
LINE
  8
0
 10
201.724
 20
4.60222
 11
201.352
 21
4.72835
  0
LINE
  8
0
 10
201.352
 20
4.72835
 11
201
 21
4.90192
  0
LINE
  8
0
 10
201
 20
4.90192
 11
200.674
 21
5.11993
  0
LINE
  8
0
 10
200.674
 20
5.11993
 11
200.379
 21
5.37868
  0
LINE
  8
0
 10
200.379
 20
5.37868
 11
200.12
 21
5.67371
  0
LINE
  8
0
 10
200.12
 20
5.67371
 11
199.902
 21
6
  0
LINE
  8
0
 10
199.902
 20
6
 11
199.728
 21
6.35194
  0
LINE
  8
0
 10
199.728
 20
6.35194
 11
199.602
 21
6.72354
  0
LINE
  8
0
 10
199.602
 20
6.72354
 11
199.526
 21
7.10841
  0
LINE
  8
0
 10
199.526
 20
7.10841
 11
199.5
 21
7.5
  0
LINE
  8
0
 10
199.5
 20
7.5
 11
199.526
 21
7.89157
  0
LINE
  8
0
 10
199.526
 20
7.89157
 11
199.602
 21
8.27644
  0
LINE
  8
0
 10
199.602
 20
8.27644
 11
199.728
 21
8.64804
  0
LINE
  8
0
 10
199.728
 20
8.64804
 11
199.902
 21
9
  0
LINE
  8
0
 10
199.902
 20
9
 11
200.12
 21
9.32628
  0
LINE
  8
0
 10
200.12
 20
9.32628
 11
200.379
 21
9.62131
  0
LINE
  8
0
 10
200.379
 20
9.62131
 11
200.674
 21
9.88005
  0
LINE
  8
0
 10
200.674
 20
9.88005
 11
201
 21
10.0981
  0
LINE
  8
0
 10
201
 20
10.0981
 11
201.352
 21
10.2716
  0
LINE
  8
0
 10
201.352
 20
10.2716
 11
201.724
 21
10.3978
  0
LINE
  8
0
 10
201.724
 20
10.3978
 11
202.108
 21
10.4743
  0
LINE
  8
0
 10
202.108
 20
10.4743
 11
202.5
 21
10.5
  0
LINE
  8
0
 10
202.5
 20
10.5
 11
202.892
 21
10.4743
  0
LINE
  8
0
 10
202.892
 20
10.4743
 11
203.276
 21
10.3978
  0
LINE
  8
0
 10
203.276
 20
10.3978
 11
203.648
 21
10.2716
  0
LINE
  8
0
 10
203.648
 20
10.2716
 11
204
 21
10.0981
  0
LINE
  8
0
 10
204
 20
10.0981
 11
204.326
 21
9.88005
  0
LINE
  8
0
 10
204.326
 20
9.88005
 11
204.621
 21
9.62131
  0
LINE
  8
0
 10
204.621
 20
9.62131
 11
204.88
 21
9.32628
  0
LINE
  8
0
 10
204.88
 20
9.32628
 11
205.098
 21
9
  0
LINE
  8
0
 10
205.098
 20
9
 11
205.272
 21
8.64804
  0
LINE
  8
0
 10
205.272
 20
8.64804
 11
205.398
 21
8.27644
  0
LINE
  8
0
 10
205.398
 20
8.27644
 11
205.474
 21
7.89157
  0
LINE
  8
0
 10
205.474
 20
7.89157
 11
205.5
 21
7.5
  0
LINE
  8
0
 10
205.5
 20
7.5
 11
205.474
 21
7.10841
  0
LINE
  8
0
 10
205.474
 20
7.10841
 11
205.398
 21
6.72354
  0
LINE
  8
0
 10
205.398
 20
6.72354
 11
205.272
 21
6.35194
  0
LINE
  8
0
 10
205.272
 20
6.35194
 11
205.098
 21
6
  0
LINE
  8
0
 10
205.098
 20
6
 11
204.88
 21
5.67371
  0
LINE
  8
0
 10
204.88
 20
5.67371
 11
204.621
 21
5.37868
  0
LINE
  8
0
 10
204.621
 20
5.37868
 11
204.326
 21
5.11993
  0
LINE
  8
0
 10
204.326
 20
5.11993
 11
204
 21
4.90192
  0
LINE
  8
0
 10
204
 20
4.90192
 11
203.648
 21
4.72835
  0
LINE
  8
0
 10
203.648
 20
4.72835
 11
203.276
 21
4.60222
  0
LINE
  8
0
 10
203.276
 20
4.60222
 11
202.892
 21
4.52567
  0
LINE
  8
0
 10
202.892
 20
4.52567
 11
202.5
 21
4.5
  0
LINE
  8
0
 10
202.5
 20
4.5
 11
202.108
 21
4.52567
  0
LINE
  8
0
 10
292.108
 20
4.52567
 11
291.724
 21
4.60222
  0
LINE
  8
0
 10
291.724
 20
4.60222
 11
291.352
 21
4.72835
  0
LINE
  8
0
 10
291.352
 20
4.72835
 11
291
 21
4.90192
  0
LINE
  8
0
 10
291
 20
4.90192
 11
290.674
 21
5.11993
  0
LINE
  8
0
 10
290.674
 20
5.11993
 11
290.379
 21
5.37868
  0
LINE
  8
0
 10
290.379
 20
5.37868
 11
290.12
 21
5.67371
  0
LINE
  8
0
 10
290.12
 20
5.67371
 11
289.902
 21
6
  0
LINE
  8
0
 10
289.902
 20
6
 11
289.728
 21
6.35194
  0
LINE
  8
0
 10
289.728
 20
6.35194
 11
289.602
 21
6.72354
  0
LINE
  8
0
 10
289.602
 20
6.72354
 11
289.526
 21
7.10841
  0
LINE
  8
0
 10
289.526
 20
7.10841
 11
289.5
 21
7.5
  0
LINE
  8
0
 10
289.5
 20
7.5
 11
289.526
 21
7.89157
  0
LINE
  8
0
 10
289.526
 20
7.89157
 11
289.602
 21
8.27644
  0
LINE
  8
0
 10
289.602
 20
8.27644
 11
289.728
 21
8.64804
  0
LINE
  8
0
 10
289.728
 20
8.64804
 11
289.902
 21
9
  0
LINE
  8
0
 10
289.902
 20
9
 11
290.12
 21
9.32628
  0
LINE
  8
0
 10
290.12
 20
9.32628
 11
290.379
 21
9.62131
  0
LINE
  8
0
 10
290.379
 20
9.62131
 11
290.674
 21
9.88005
  0
LINE
  8
0
 10
290.674
 20
9.88005
 11
291
 21
10.0981
  0
LINE
  8
0
 10
291
 20
10.0981
 11
291.352
 21
10.2716
  0
LINE
  8
0
 10
291.352
 20
10.2716
 11
291.724
 21
10.3978
  0
LINE
  8
0
 10
291.724
 20
10.3978
 11
292.108
 21
10.4743
  0
LINE
  8
0
 10
292.108
 20
10.4743
 11
292.5
 21
10.5
  0
LINE
  8
0
 10
292.5
 20
10.5
 11
292.892
 21
10.4743
  0
LINE
  8
0
 10
292.892
 20
10.4743
 11
293.276
 21
10.3978
  0
LINE
  8
0
 10
293.276
 20
10.3978
 11
293.648
 21
10.2716
  0
LINE
  8
0
 10
293.648
 20
10.2716
 11
294
 21
10.0981
  0
LINE
  8
0
 10
294
 20
10.0981
 11
294.326
 21
9.88005
  0
LINE
  8
0
 10
294.326
 20
9.88005
 11
294.621
 21
9.62131
  0
LINE
  8
0
 10
294.621
 20
9.62131
 11
294.88
 21
9.32628
  0
LINE
  8
0
 10
294.88
 20
9.32628
 11
295.098
 21
9
  0
LINE
  8
0
 10
295.098
 20
9
 11
295.272
 21
8.64804
  0
LINE
  8
0
 10
295.272
 20
8.64804
 11
295.398
 21
8.27644
  0
LINE
  8
0
 10
295.398
 20
8.27644
 11
295.474
 21
7.89157
  0
LINE
  8
0
 10
295.474
 20
7.89157
 11
295.5
 21
7.5
  0
LINE
  8
0
 10
295.5
 20
7.5
 11
295.474
 21
7.10841
  0
LINE
  8
0
 10
295.474
 20
7.10841
 11
295.398
 21
6.72354
  0
LINE
  8
0
 10
295.398
 20
6.72354
 11
295.272
 21
6.35194
  0
LINE
  8
0
 10
295.272
 20
6.35194
 11
295.098
 21
6
  0
LINE
  8
0
 10
295.098
 20
6
 11
294.88
 21
5.67371
  0
LINE
  8
0
 10
294.88
 20
5.67371
 11
294.621
 21
5.37868
  0
LINE
  8
0
 10
294.621
 20
5.37868
 11
294.326
 21
5.11993
  0
LINE
  8
0
 10
294.326
 20
5.11993
 11
294
 21
4.90192
  0
LINE
  8
0
 10
294
 20
4.90192
 11
293.648
 21
4.72835
  0
LINE
  8
0
 10
293.648
 20
4.72835
 11
293.276
 21
4.60222
  0
LINE
  8
0
 10
293.276
 20
4.60222
 11
292.892
 21
4.52567
  0
LINE
  8
0
 10
292.892
 20
4.52567
 11
292.5
 21
4.5
  0
LINE
  8
0
 10
292.5
 20
4.5
 11
292.108
 21
4.52567
  0
LINE
  8
0
 10
232.108
 20
4.52567
 11
231.724
 21
4.60222
  0
LINE
  8
0
 10
231.724
 20
4.60222
 11
231.352
 21
4.72835
  0
LINE
  8
0
 10
231.352
 20
4.72835
 11
231
 21
4.90192
  0
LINE
  8
0
 10
231
 20
4.90192
 11
230.674
 21
5.11993
  0
LINE
  8
0
 10
230.674
 20
5.11993
 11
230.379
 21
5.37868
  0
LINE
  8
0
 10
230.379
 20
5.37868
 11
230.12
 21
5.67371
  0
LINE
  8
0
 10
230.12
 20
5.67371
 11
229.902
 21
6
  0
LINE
  8
0
 10
229.902
 20
6
 11
229.728
 21
6.35194
  0
LINE
  8
0
 10
229.728
 20
6.35194
 11
229.602
 21
6.72354
  0
LINE
  8
0
 10
229.602
 20
6.72354
 11
229.526
 21
7.10841
  0
LINE
  8
0
 10
229.526
 20
7.10841
 11
229.5
 21
7.5
  0
LINE
  8
0
 10
229.5
 20
7.5
 11
229.526
 21
7.89157
  0
LINE
  8
0
 10
229.526
 20
7.89157
 11
229.602
 21
8.27644
  0
LINE
  8
0
 10
229.602
 20
8.27644
 11
229.728
 21
8.64804
  0
LINE
  8
0
 10
229.728
 20
8.64804
 11
229.902
 21
9
  0
LINE
  8
0
 10
229.902
 20
9
 11
230.12
 21
9.32628
  0
LINE
  8
0
 10
230.12
 20
9.32628
 11
230.379
 21
9.62131
  0
LINE
  8
0
 10
230.379
 20
9.62131
 11
230.674
 21
9.88005
  0
LINE
  8
0
 10
230.674
 20
9.88005
 11
231
 21
10.0981
  0
LINE
  8
0
 10
231
 20
10.0981
 11
231.352
 21
10.2716
  0
LINE
  8
0
 10
231.352
 20
10.2716
 11
231.724
 21
10.3978
  0
LINE
  8
0
 10
231.724
 20
10.3978
 11
232.108
 21
10.4743
  0
LINE
  8
0
 10
232.108
 20
10.4743
 11
232.5
 21
10.5
  0
LINE
  8
0
 10
232.5
 20
10.5
 11
232.892
 21
10.4743
  0
LINE
  8
0
 10
232.892
 20
10.4743
 11
233.276
 21
10.3978
  0
LINE
  8
0
 10
233.276
 20
10.3978
 11
233.648
 21
10.2716
  0
LINE
  8
0
 10
233.648
 20
10.2716
 11
234
 21
10.0981
  0
LINE
  8
0
 10
234
 20
10.0981
 11
234.326
 21
9.88005
  0
LINE
  8
0
 10
234.326
 20
9.88005
 11
234.621
 21
9.62131
  0
LINE
  8
0
 10
234.621
 20
9.62131
 11
234.88
 21
9.32628
  0
LINE
  8
0
 10
234.88
 20
9.32628
 11
235.098
 21
9
  0
LINE
  8
0
 10
235.098
 20
9
 11
235.272
 21
8.64804
  0
LINE
  8
0
 10
235.272
 20
8.64804
 11
235.398
 21
8.27644
  0
LINE
  8
0
 10
235.398
 20
8.27644
 11
235.474
 21
7.89157
  0
LINE
  8
0
 10
235.474
 20
7.89157
 11
235.5
 21
7.5
  0
LINE
  8
0
 10
235.5
 20
7.5
 11
235.474
 21
7.10841
  0
LINE
  8
0
 10
235.474
 20
7.10841
 11
235.398
 21
6.72354
  0
LINE
  8
0
 10
235.398
 20
6.72354
 11
235.272
 21
6.35194
  0
LINE
  8
0
 10
235.272
 20
6.35194
 11
235.098
 21
6
  0
LINE
  8
0
 10
235.098
 20
6
 11
234.88
 21
5.67371
  0
LINE
  8
0
 10
234.88
 20
5.67371
 11
234.621
 21
5.37868
  0
LINE
  8
0
 10
234.621
 20
5.37868
 11
234.326
 21
5.11993
  0
LINE
  8
0
 10
234.326
 20
5.11993
 11
234
 21
4.90192
  0
LINE
  8
0
 10
234
 20
4.90192
 11
233.648
 21
4.72835
  0
LINE
  8
0
 10
233.648
 20
4.72835
 11
233.276
 21
4.60222
  0
LINE
  8
0
 10
233.276
 20
4.60222
 11
232.892
 21
4.52567
  0
LINE
  8
0
 10
232.892
 20
4.52567
 11
232.5
 21
4.5
  0
LINE
  8
0
 10
232.5
 20
4.5
 11
232.108
 21
4.52567
  0
LINE
  8
0
 10
247.108
 20
4.52567
 11
246.724
 21
4.60222
  0
LINE
  8
0
 10
246.724
 20
4.60222
 11
246.352
 21
4.72835
  0
LINE
  8
0
 10
246.352
 20
4.72835
 11
246
 21
4.90192
  0
LINE
  8
0
 10
246
 20
4.90192
 11
245.674
 21
5.11993
  0
LINE
  8
0
 10
245.674
 20
5.11993
 11
245.379
 21
5.37868
  0
LINE
  8
0
 10
245.379
 20
5.37868
 11
245.12
 21
5.67371
  0
LINE
  8
0
 10
245.12
 20
5.67371
 11
244.902
 21
6
  0
LINE
  8
0
 10
244.902
 20
6
 11
244.728
 21
6.35194
  0
LINE
  8
0
 10
244.728
 20
6.35194
 11
244.602
 21
6.72354
  0
LINE
  8
0
 10
244.602
 20
6.72354
 11
244.526
 21
7.10841
  0
LINE
  8
0
 10
244.526
 20
7.10841
 11
244.5
 21
7.5
  0
LINE
  8
0
 10
244.5
 20
7.5
 11
244.526
 21
7.89157
  0
LINE
  8
0
 10
244.526
 20
7.89157
 11
244.602
 21
8.27644
  0
LINE
  8
0
 10
244.602
 20
8.27644
 11
244.728
 21
8.64804
  0
LINE
  8
0
 10
244.728
 20
8.64804
 11
244.902
 21
9
  0
LINE
  8
0
 10
244.902
 20
9
 11
245.12
 21
9.32628
  0
LINE
  8
0
 10
245.12
 20
9.32628
 11
245.379
 21
9.62131
  0
LINE
  8
0
 10
245.379
 20
9.62131
 11
245.674
 21
9.88005
  0
LINE
  8
0
 10
245.674
 20
9.88005
 11
246
 21
10.0981
  0
LINE
  8
0
 10
246
 20
10.0981
 11
246.352
 21
10.2716
  0
LINE
  8
0
 10
246.352
 20
10.2716
 11
246.724
 21
10.3978
  0
LINE
  8
0
 10
246.724
 20
10.3978
 11
247.108
 21
10.4743
  0
LINE
  8
0
 10
247.108
 20
10.4743
 11
247.5
 21
10.5
  0
LINE
  8
0
 10
247.5
 20
10.5
 11
247.892
 21
10.4743
  0
LINE
  8
0
 10
247.892
 20
10.4743
 11
248.276
 21
10.3978
  0
LINE
  8
0
 10
248.276
 20
10.3978
 11
248.648
 21
10.2716
  0
LINE
  8
0
 10
248.648
 20
10.2716
 11
249
 21
10.0981
  0
LINE
  8
0
 10
249
 20
10.0981
 11
249.326
 21
9.88005
  0
LINE
  8
0
 10
249.326
 20
9.88005
 11
249.621
 21
9.62131
  0
LINE
  8
0
 10
249.621
 20
9.62131
 11
249.88
 21
9.32628
  0
LINE
  8
0
 10
249.88
 20
9.32628
 11
250.098
 21
9
  0
LINE
  8
0
 10
250.098
 20
9
 11
250.272
 21
8.64804
  0
LINE
  8
0
 10
250.272
 20
8.64804
 11
250.398
 21
8.27644
  0
LINE
  8
0
 10
250.398
 20
8.27644
 11
250.474
 21
7.89157
  0
LINE
  8
0
 10
250.474
 20
7.89157
 11
250.5
 21
7.5
  0
LINE
  8
0
 10
250.5
 20
7.5
 11
250.474
 21
7.10841
  0
LINE
  8
0
 10
250.474
 20
7.10841
 11
250.398
 21
6.72354
  0
LINE
  8
0
 10
250.398
 20
6.72354
 11
250.272
 21
6.35194
  0
LINE
  8
0
 10
250.272
 20
6.35194
 11
250.098
 21
6
  0
LINE
  8
0
 10
250.098
 20
6
 11
249.88
 21
5.67371
  0
LINE
  8
0
 10
249.88
 20
5.67371
 11
249.621
 21
5.37868
  0
LINE
  8
0
 10
249.621
 20
5.37868
 11
249.326
 21
5.11993
  0
LINE
  8
0
 10
249.326
 20
5.11993
 11
249
 21
4.90192
  0
LINE
  8
0
 10
249
 20
4.90192
 11
248.648
 21
4.72835
  0
LINE
  8
0
 10
248.648
 20
4.72835
 11
248.276
 21
4.60222
  0
LINE
  8
0
 10
248.276
 20
4.60222
 11
247.892
 21
4.52567
  0
LINE
  8
0
 10
247.892
 20
4.52567
 11
247.5
 21
4.5
  0
LINE
  8
0
 10
247.5
 20
4.5
 11
247.108
 21
4.52567
  0
LINE
  8
0
 10
277.108
 20
4.52567
 11
276.724
 21
4.60222
  0
LINE
  8
0
 10
276.724
 20
4.60222
 11
276.352
 21
4.72835
  0
LINE
  8
0
 10
276.352
 20
4.72835
 11
276
 21
4.90192
  0
LINE
  8
0
 10
276
 20
4.90192
 11
275.674
 21
5.11993
  0
LINE
  8
0
 10
275.674
 20
5.11993
 11
275.379
 21
5.37868
  0
LINE
  8
0
 10
275.379
 20
5.37868
 11
275.12
 21
5.67371
  0
LINE
  8
0
 10
275.12
 20
5.67371
 11
274.902
 21
6
  0
LINE
  8
0
 10
274.902
 20
6
 11
274.728
 21
6.35194
  0
LINE
  8
0
 10
274.728
 20
6.35194
 11
274.602
 21
6.72354
  0
LINE
  8
0
 10
274.602
 20
6.72354
 11
274.526
 21
7.10841
  0
LINE
  8
0
 10
274.526
 20
7.10841
 11
274.5
 21
7.5
  0
LINE
  8
0
 10
274.5
 20
7.5
 11
274.526
 21
7.89157
  0
LINE
  8
0
 10
274.526
 20
7.89157
 11
274.602
 21
8.27644
  0
LINE
  8
0
 10
274.602
 20
8.27644
 11
274.728
 21
8.64804
  0
LINE
  8
0
 10
274.728
 20
8.64804
 11
274.902
 21
9
  0
LINE
  8
0
 10
274.902
 20
9
 11
275.12
 21
9.32628
  0
LINE
  8
0
 10
275.12
 20
9.32628
 11
275.379
 21
9.62131
  0
LINE
  8
0
 10
275.379
 20
9.62131
 11
275.674
 21
9.88005
  0
LINE
  8
0
 10
275.674
 20
9.88005
 11
276
 21
10.0981
  0
LINE
  8
0
 10
276
 20
10.0981
 11
276.352
 21
10.2716
  0
LINE
  8
0
 10
276.352
 20
10.2716
 11
276.724
 21
10.3978
  0
LINE
  8
0
 10
276.724
 20
10.3978
 11
277.108
 21
10.4743
  0
LINE
  8
0
 10
277.108
 20
10.4743
 11
277.5
 21
10.5
  0
LINE
  8
0
 10
277.5
 20
10.5
 11
277.892
 21
10.4743
  0
LINE
  8
0
 10
277.892
 20
10.4743
 11
278.276
 21
10.3978
  0
LINE
  8
0
 10
278.276
 20
10.3978
 11
278.648
 21
10.2716
  0
LINE
  8
0
 10
278.648
 20
10.2716
 11
279
 21
10.0981
  0
LINE
  8
0
 10
279
 20
10.0981
 11
279.326
 21
9.88005
  0
LINE
  8
0
 10
279.326
 20
9.88005
 11
279.621
 21
9.62131
  0
LINE
  8
0
 10
279.621
 20
9.62131
 11
279.88
 21
9.32628
  0
LINE
  8
0
 10
279.88
 20
9.32628
 11
280.098
 21
9
  0
LINE
  8
0
 10
280.098
 20
9
 11
280.272
 21
8.64804
  0
LINE
  8
0
 10
280.272
 20
8.64804
 11
280.398
 21
8.27644
  0
LINE
  8
0
 10
280.398
 20
8.27644
 11
280.474
 21
7.89157
  0
LINE
  8
0
 10
280.474
 20
7.89157
 11
280.5
 21
7.5
  0
LINE
  8
0
 10
280.5
 20
7.5
 11
280.474
 21
7.10841
  0
LINE
  8
0
 10
280.474
 20
7.10841
 11
280.398
 21
6.72354
  0
LINE
  8
0
 10
280.398
 20
6.72354
 11
280.272
 21
6.35194
  0
LINE
  8
0
 10
280.272
 20
6.35194
 11
280.098
 21
6
  0
LINE
  8
0
 10
280.098
 20
6
 11
279.88
 21
5.67371
  0
LINE
  8
0
 10
279.88
 20
5.67371
 11
279.621
 21
5.37868
  0
LINE
  8
0
 10
279.621
 20
5.37868
 11
279.326
 21
5.11993
  0
LINE
  8
0
 10
279.326
 20
5.11993
 11
279
 21
4.90192
  0
LINE
  8
0
 10
279
 20
4.90192
 11
278.648
 21
4.72835
  0
LINE
  8
0
 10
278.648
 20
4.72835
 11
278.276
 21
4.60222
  0
LINE
  8
0
 10
278.276
 20
4.60222
 11
277.892
 21
4.52567
  0
LINE
  8
0
 10
277.892
 20
4.52567
 11
277.5
 21
4.5
  0
LINE
  8
0
 10
277.5
 20
4.5
 11
277.108
 21
4.52567
  0
LINE
  8
0
 10
217.108
 20
4.52567
 11
216.724
 21
4.60222
  0
LINE
  8
0
 10
216.724
 20
4.60222
 11
216.352
 21
4.72835
  0
LINE
  8
0
 10
216.352
 20
4.72835
 11
216
 21
4.90192
  0
LINE
  8
0
 10
216
 20
4.90192
 11
215.674
 21
5.11993
  0
LINE
  8
0
 10
215.674
 20
5.11993
 11
215.379
 21
5.37868
  0
LINE
  8
0
 10
215.379
 20
5.37868
 11
215.12
 21
5.67371
  0
LINE
  8
0
 10
215.12
 20
5.67371
 11
214.902
 21
6
  0
LINE
  8
0
 10
214.902
 20
6
 11
214.728
 21
6.35194
  0
LINE
  8
0
 10
214.728
 20
6.35194
 11
214.602
 21
6.72354
  0
LINE
  8
0
 10
214.602
 20
6.72354
 11
214.526
 21
7.10841
  0
LINE
  8
0
 10
214.526
 20
7.10841
 11
214.5
 21
7.5
  0
LINE
  8
0
 10
214.5
 20
7.5
 11
214.526
 21
7.89157
  0
LINE
  8
0
 10
214.526
 20
7.89157
 11
214.602
 21
8.27644
  0
LINE
  8
0
 10
214.602
 20
8.27644
 11
214.728
 21
8.64804
  0
LINE
  8
0
 10
214.728
 20
8.64804
 11
214.902
 21
9
  0
LINE
  8
0
 10
214.902
 20
9
 11
215.12
 21
9.32628
  0
LINE
  8
0
 10
215.12
 20
9.32628
 11
215.379
 21
9.62131
  0
LINE
  8
0
 10
215.379
 20
9.62131
 11
215.674
 21
9.88005
  0
LINE
  8
0
 10
215.674
 20
9.88005
 11
216
 21
10.0981
  0
LINE
  8
0
 10
216
 20
10.0981
 11
216.352
 21
10.2716
  0
LINE
  8
0
 10
216.352
 20
10.2716
 11
216.724
 21
10.3978
  0
LINE
  8
0
 10
216.724
 20
10.3978
 11
217.108
 21
10.4743
  0
LINE
  8
0
 10
217.108
 20
10.4743
 11
217.5
 21
10.5
  0
LINE
  8
0
 10
217.5
 20
10.5
 11
217.892
 21
10.4743
  0
LINE
  8
0
 10
217.892
 20
10.4743
 11
218.276
 21
10.3978
  0
LINE
  8
0
 10
218.276
 20
10.3978
 11
218.648
 21
10.2716
  0
LINE
  8
0
 10
218.648
 20
10.2716
 11
219
 21
10.0981
  0
LINE
  8
0
 10
219
 20
10.0981
 11
219.326
 21
9.88005
  0
LINE
  8
0
 10
219.326
 20
9.88005
 11
219.621
 21
9.62131
  0
LINE
  8
0
 10
219.621
 20
9.62131
 11
219.88
 21
9.32628
  0
LINE
  8
0
 10
219.88
 20
9.32628
 11
220.098
 21
9
  0
LINE
  8
0
 10
220.098
 20
9
 11
220.272
 21
8.64804
  0
LINE
  8
0
 10
220.272
 20
8.64804
 11
220.398
 21
8.27644
  0
LINE
  8
0
 10
220.398
 20
8.27644
 11
220.474
 21
7.89157
  0
LINE
  8
0
 10
220.474
 20
7.89157
 11
220.5
 21
7.5
  0
LINE
  8
0
 10
220.5
 20
7.5
 11
220.474
 21
7.10841
  0
LINE
  8
0
 10
220.474
 20
7.10841
 11
220.398
 21
6.72354
  0
LINE
  8
0
 10
220.398
 20
6.72354
 11
220.272
 21
6.35194
  0
LINE
  8
0
 10
220.272
 20
6.35194
 11
220.098
 21
6
  0
LINE
  8
0
 10
220.098
 20
6
 11
219.88
 21
5.67371
  0
LINE
  8
0
 10
219.88
 20
5.67371
 11
219.621
 21
5.37868
  0
LINE
  8
0
 10
219.621
 20
5.37868
 11
219.326
 21
5.11993
  0
LINE
  8
0
 10
219.326
 20
5.11993
 11
219
 21
4.90192
  0
LINE
  8
0
 10
219
 20
4.90192
 11
218.648
 21
4.72835
  0
LINE
  8
0
 10
218.648
 20
4.72835
 11
218.276
 21
4.60222
  0
LINE
  8
0
 10
218.276
 20
4.60222
 11
217.892
 21
4.52567
  0
LINE
  8
0
 10
217.892
 20
4.52567
 11
217.5
 21
4.5
  0
LINE
  8
0
 10
217.5
 20
4.5
 11
217.108
 21
4.52567
  0
LINE
  8
0
 10
262.108
 20
4.52567
 11
261.724
 21
4.60222
  0
LINE
  8
0
 10
261.724
 20
4.60222
 11
261.352
 21
4.72835
  0
LINE
  8
0
 10
261.352
 20
4.72835
 11
261
 21
4.90192
  0
LINE
  8
0
 10
261
 20
4.90192
 11
260.674
 21
5.11993
  0
LINE
  8
0
 10
260.674
 20
5.11993
 11
260.379
 21
5.37868
  0
LINE
  8
0
 10
260.379
 20
5.37868
 11
260.12
 21
5.67371
  0
LINE
  8
0
 10
260.12
 20
5.67371
 11
259.902
 21
6
  0
LINE
  8
0
 10
259.902
 20
6
 11
259.728
 21
6.35194
  0
LINE
  8
0
 10
259.728
 20
6.35194
 11
259.602
 21
6.72354
  0
LINE
  8
0
 10
259.602
 20
6.72354
 11
259.526
 21
7.10841
  0
LINE
  8
0
 10
259.526
 20
7.10841
 11
259.5
 21
7.5
  0
LINE
  8
0
 10
259.5
 20
7.5
 11
259.526
 21
7.89157
  0
LINE
  8
0
 10
259.526
 20
7.89157
 11
259.602
 21
8.27644
  0
LINE
  8
0
 10
259.602
 20
8.27644
 11
259.728
 21
8.64804
  0
LINE
  8
0
 10
259.728
 20
8.64804
 11
259.902
 21
9
  0
LINE
  8
0
 10
259.902
 20
9
 11
260.12
 21
9.32628
  0
LINE
  8
0
 10
260.12
 20
9.32628
 11
260.379
 21
9.62131
  0
LINE
  8
0
 10
260.379
 20
9.62131
 11
260.674
 21
9.88005
  0
LINE
  8
0
 10
260.674
 20
9.88005
 11
261
 21
10.0981
  0
LINE
  8
0
 10
261
 20
10.0981
 11
261.352
 21
10.2716
  0
LINE
  8
0
 10
261.352
 20
10.2716
 11
261.724
 21
10.3978
  0
LINE
  8
0
 10
261.724
 20
10.3978
 11
262.108
 21
10.4743
  0
LINE
  8
0
 10
262.108
 20
10.4743
 11
262.5
 21
10.5
  0
LINE
  8
0
 10
262.5
 20
10.5
 11
262.892
 21
10.4743
  0
LINE
  8
0
 10
262.892
 20
10.4743
 11
263.276
 21
10.3978
  0
LINE
  8
0
 10
263.276
 20
10.3978
 11
263.648
 21
10.2716
  0
LINE
  8
0
 10
263.648
 20
10.2716
 11
264
 21
10.0981
  0
LINE
  8
0
 10
264
 20
10.0981
 11
264.326
 21
9.88005
  0
LINE
  8
0
 10
264.326
 20
9.88005
 11
264.621
 21
9.62131
  0
LINE
  8
0
 10
264.621
 20
9.62131
 11
264.88
 21
9.32628
  0
LINE
  8
0
 10
264.88
 20
9.32628
 11
265.098
 21
9
  0
LINE
  8
0
 10
265.098
 20
9
 11
265.272
 21
8.64804
  0
LINE
  8
0
 10
265.272
 20
8.64804
 11
265.398
 21
8.27644
  0
LINE
  8
0
 10
265.398
 20
8.27644
 11
265.474
 21
7.89157
  0
LINE
  8
0
 10
265.474
 20
7.89157
 11
265.5
 21
7.5
  0
LINE
  8
0
 10
265.5
 20
7.5
 11
265.474
 21
7.10841
  0
LINE
  8
0
 10
265.474
 20
7.10841
 11
265.398
 21
6.72354
  0
LINE
  8
0
 10
265.398
 20
6.72354
 11
265.272
 21
6.35194
  0
LINE
  8
0
 10
265.272
 20
6.35194
 11
265.098
 21
6
  0
LINE
  8
0
 10
265.098
 20
6
 11
264.88
 21
5.67371
  0
LINE
  8
0
 10
264.88
 20
5.67371
 11
264.621
 21
5.37868
  0
LINE
  8
0
 10
264.621
 20
5.37868
 11
264.326
 21
5.11993
  0
LINE
  8
0
 10
264.326
 20
5.11993
 11
264
 21
4.90192
  0
LINE
  8
0
 10
264
 20
4.90192
 11
263.648
 21
4.72835
  0
LINE
  8
0
 10
263.648
 20
4.72835
 11
263.276
 21
4.60222
  0
LINE
  8
0
 10
263.276
 20
4.60222
 11
262.892
 21
4.52567
  0
LINE
  8
0
 10
262.892
 20
4.52567
 11
262.5
 21
4.5
  0
LINE
  8
0
 10
262.5
 20
4.5
 11
262.108
 21
4.52567
  0
LINE
  8
0
 10
307.108
 20
4.52567
 11
306.724
 21
4.60222
  0
LINE
  8
0
 10
306.724
 20
4.60222
 11
306.352
 21
4.72835
  0
LINE
  8
0
 10
306.352
 20
4.72835
 11
306
 21
4.90192
  0
LINE
  8
0
 10
306
 20
4.90192
 11
305.674
 21
5.11993
  0
LINE
  8
0
 10
305.674
 20
5.11993
 11
305.379
 21
5.37868
  0
LINE
  8
0
 10
305.379
 20
5.37868
 11
305.12
 21
5.67371
  0
LINE
  8
0
 10
305.12
 20
5.67371
 11
304.902
 21
6
  0
LINE
  8
0
 10
304.902
 20
6
 11
304.728
 21
6.35194
  0
LINE
  8
0
 10
304.728
 20
6.35194
 11
304.602
 21
6.72354
  0
LINE
  8
0
 10
304.602
 20
6.72354
 11
304.526
 21
7.10841
  0
LINE
  8
0
 10
304.526
 20
7.10841
 11
304.5
 21
7.5
  0
LINE
  8
0
 10
304.5
 20
7.5
 11
304.526
 21
7.89157
  0
LINE
  8
0
 10
304.526
 20
7.89157
 11
304.602
 21
8.27644
  0
LINE
  8
0
 10
304.602
 20
8.27644
 11
304.728
 21
8.64804
  0
LINE
  8
0
 10
304.728
 20
8.64804
 11
304.902
 21
9
  0
LINE
  8
0
 10
304.902
 20
9
 11
305.12
 21
9.32628
  0
LINE
  8
0
 10
305.12
 20
9.32628
 11
305.379
 21
9.62131
  0
LINE
  8
0
 10
305.379
 20
9.62131
 11
305.674
 21
9.88005
  0
LINE
  8
0
 10
305.674
 20
9.88005
 11
306
 21
10.0981
  0
LINE
  8
0
 10
306
 20
10.0981
 11
306.352
 21
10.2716
  0
LINE
  8
0
 10
306.352
 20
10.2716
 11
306.724
 21
10.3978
  0
LINE
  8
0
 10
306.724
 20
10.3978
 11
307.108
 21
10.4743
  0
LINE
  8
0
 10
307.108
 20
10.4743
 11
307.5
 21
10.5
  0
LINE
  8
0
 10
307.5
 20
10.5
 11
307.892
 21
10.4743
  0
LINE
  8
0
 10
307.892
 20
10.4743
 11
308.276
 21
10.3978
  0
LINE
  8
0
 10
308.276
 20
10.3978
 11
308.648
 21
10.2716
  0
LINE
  8
0
 10
308.648
 20
10.2716
 11
309
 21
10.0981
  0
LINE
  8
0
 10
309
 20
10.0981
 11
309.326
 21
9.88005
  0
LINE
  8
0
 10
309.326
 20
9.88005
 11
309.621
 21
9.62131
  0
LINE
  8
0
 10
309.621
 20
9.62131
 11
309.88
 21
9.32628
  0
LINE
  8
0
 10
309.88
 20
9.32628
 11
310.098
 21
9
  0
LINE
  8
0
 10
310.098
 20
9
 11
310.272
 21
8.64804
  0
LINE
  8
0
 10
310.272
 20
8.64804
 11
310.398
 21
8.27644
  0
LINE
  8
0
 10
310.398
 20
8.27644
 11
310.474
 21
7.89157
  0
LINE
  8
0
 10
310.474
 20
7.89157
 11
310.5
 21
7.5
  0
LINE
  8
0
 10
310.5
 20
7.5
 11
310.474
 21
7.10841
  0
LINE
  8
0
 10
310.474
 20
7.10841
 11
310.398
 21
6.72354
  0
LINE
  8
0
 10
310.398
 20
6.72354
 11
310.272
 21
6.35194
  0
LINE
  8
0
 10
310.272
 20
6.35194
 11
310.098
 21
6
  0
LINE
  8
0
 10
310.098
 20
6
 11
309.88
 21
5.67371
  0
LINE
  8
0
 10
309.88
 20
5.67371
 11
309.621
 21
5.37868
  0
LINE
  8
0
 10
309.621
 20
5.37868
 11
309.326
 21
5.11993
  0
LINE
  8
0
 10
309.326
 20
5.11993
 11
309
 21
4.90192
  0
LINE
  8
0
 10
309
 20
4.90192
 11
308.648
 21
4.72835
  0
LINE
  8
0
 10
308.648
 20
4.72835
 11
308.276
 21
4.60222
  0
LINE
  8
0
 10
308.276
 20
4.60222
 11
307.892
 21
4.52567
  0
LINE
  8
0
 10
307.892
 20
4.52567
 11
307.5
 21
4.5
  0
LINE
  8
0
 10
307.5
 20
4.5
 11
307.108
 21
4.52567
  0
LINE
  8
0
 10
323.276
 20
10.3978
 11
323.648
 21
10.2716
  0
LINE
  8
0
 10
323.648
 20
10.2716
 11
324
 21
10.0981
  0
LINE
  8
0
 10
324
 20
10.0981
 11
324.326
 21
9.88005
  0
LINE
  8
0
 10
324.326
 20
9.88005
 11
324.621
 21
9.62131
  0
LINE
  8
0
 10
324.621
 20
9.62131
 11
324.88
 21
9.32628
  0
LINE
  8
0
 10
324.88
 20
9.32628
 11
325.098
 21
9
  0
LINE
  8
0
 10
325.098
 20
9
 11
325.272
 21
8.64804
  0
LINE
  8
0
 10
325.272
 20
8.64804
 11
325.398
 21
8.27644
  0
LINE
  8
0
 10
325.398
 20
8.27644
 11
325.474
 21
7.89157
  0
LINE
  8
0
 10
325.474
 20
7.89157
 11
325.5
 21
7.5
  0
LINE
  8
0
 10
325.5
 20
7.5
 11
325.474
 21
7.10841
  0
LINE
  8
0
 10
325.474
 20
7.10841
 11
325.398
 21
6.72354
  0
LINE
  8
0
 10
325.398
 20
6.72354
 11
325.272
 21
6.35194
  0
LINE
  8
0
 10
325.272
 20
6.35194
 11
325.098
 21
6
  0
LINE
  8
0
 10
325.098
 20
6
 11
324.88
 21
5.67371
  0
LINE
  8
0
 10
324.88
 20
5.67371
 11
324.621
 21
5.37868
  0
LINE
  8
0
 10
324.621
 20
5.37868
 11
324.326
 21
5.11993
  0
LINE
  8
0
 10
324.326
 20
5.11993
 11
324
 21
4.90192
  0
LINE
  8
0
 10
324
 20
4.90192
 11
323.648
 21
4.72835
  0
LINE
  8
0
 10
323.648
 20
4.72835
 11
323.276
 21
4.60222
  0
LINE
  8
0
 10
323.276
 20
4.60222
 11
322.892
 21
4.52567
  0
LINE
  8
0
 10
322.892
 20
4.52567
 11
322.5
 21
4.5
  0
LINE
  8
0
 10
322.5
 20
4.5
 11
322.108
 21
4.52567
  0
LINE
  8
0
 10
322.108
 20
4.52567
 11
321.724
 21
4.60222
  0
LINE
  8
0
 10
321.724
 20
4.60222
 11
321.352
 21
4.72835
  0
LINE
  8
0
 10
321.352
 20
4.72835
 11
321
 21
4.90192
  0
LINE
  8
0
 10
321
 20
4.90192
 11
320.674
 21
5.11993
  0
LINE
  8
0
 10
320.674
 20
5.11993
 11
320.379
 21
5.37868
  0
LINE
  8
0
 10
320.379
 20
5.37868
 11
320.12
 21
5.67371
  0
LINE
  8
0
 10
320.12
 20
5.67371
 11
319.902
 21
6
  0
LINE
  8
0
 10
319.902
 20
6
 11
319.728
 21
6.35194
  0
LINE
  8
0
 10
319.728
 20
6.35194
 11
319.602
 21
6.72354
  0
LINE
  8
0
 10
319.602
 20
6.72354
 11
319.526
 21
7.10841
  0
LINE
  8
0
 10
319.526
 20
7.10841
 11
319.5
 21
7.5
  0
LINE
  8
0
 10
319.5
 20
7.5
 11
319.526
 21
7.89157
  0
LINE
  8
0
 10
319.526
 20
7.89157
 11
319.602
 21
8.27644
  0
LINE
  8
0
 10
319.602
 20
8.27644
 11
319.728
 21
8.64804
  0
LINE
  8
0
 10
319.728
 20
8.64804
 11
319.902
 21
9
  0
LINE
  8
0
 10
319.902
 20
9
 11
320.12
 21
9.32628
  0
LINE
  8
0
 10
320.12
 20
9.32628
 11
320.379
 21
9.62131
  0
LINE
  8
0
 10
320.379
 20
9.62131
 11
320.674
 21
9.88005
  0
LINE
  8
0
 10
320.674
 20
9.88005
 11
321
 21
10.0981
  0
LINE
  8
0
 10
321
 20
10.0981
 11
321.352
 21
10.2716
  0
LINE
  8
0
 10
321.352
 20
10.2716
 11
321.724
 21
10.3978
  0
LINE
  8
0
 10
321.724
 20
10.3978
 11
322.108
 21
10.4743
  0
LINE
  8
0
 10
322.108
 20
10.4743
 11
322.5
 21
10.5
  0
LINE
  8
0
 10
322.5
 20
10.5
 11
322.892
 21
10.4743
  0
LINE
  8
0
 10
322.892
 20
10.4743
 11
323.276
 21
10.3978
  0
LINE
  8
0
 10
67.1084
 20
4.52567
 11
66.7235
 21
4.60222
  0
LINE
  8
0
 10
66.7235
 20
4.60222
 11
66.3519
 21
4.72835
  0
LINE
  8
0
 10
66.3519
 20
4.72835
 11
66
 21
4.90192
  0
LINE
  8
0
 10
66
 20
4.90192
 11
65.6737
 21
5.11993
  0
LINE
  8
0
 10
65.6737
 20
5.11993
 11
65.3787
 21
5.37868
  0
LINE
  8
0
 10
65.3787
 20
5.37868
 11
65.1199
 21
5.67371
  0
LINE
  8
0
 10
65.1199
 20
5.67371
 11
64.9019
 21
6
  0
LINE
  8
0
 10
64.9019
 20
6
 11
64.7284
 21
6.35194
  0
LINE
  8
0
 10
64.7284
 20
6.35194
 11
64.6022
 21
6.72354
  0
LINE
  8
0
 10
64.6022
 20
6.72354
 11
64.5257
 21
7.10841
  0
LINE
  8
0
 10
64.5257
 20
7.10841
 11
64.5
 21
7.5
  0
LINE
  8
0
 10
64.5
 20
7.5
 11
64.5257
 21
7.89157
  0
LINE
  8
0
 10
64.5257
 20
7.89157
 11
64.6022
 21
8.27644
  0
LINE
  8
0
 10
64.6022
 20
8.27644
 11
64.7284
 21
8.64804
  0
LINE
  8
0
 10
64.7284
 20
8.64804
 11
64.9019
 21
9
  0
LINE
  8
0
 10
64.9019
 20
9
 11
65.1199
 21
9.32628
  0
LINE
  8
0
 10
65.1199
 20
9.32628
 11
65.3787
 21
9.62131
  0
LINE
  8
0
 10
65.3787
 20
9.62131
 11
65.6737
 21
9.88005
  0
LINE
  8
0
 10
65.6737
 20
9.88005
 11
66
 21
10.0981
  0
LINE
  8
0
 10
66
 20
10.0981
 11
66.3519
 21
10.2716
  0
LINE
  8
0
 10
66.3519
 20
10.2716
 11
66.7235
 21
10.3978
  0
LINE
  8
0
 10
66.7235
 20
10.3978
 11
67.1084
 21
10.4743
  0
LINE
  8
0
 10
67.1084
 20
10.4743
 11
67.5
 21
10.5
  0
LINE
  8
0
 10
67.5
 20
10.5
 11
67.8916
 21
10.4743
  0
LINE
  8
0
 10
67.8916
 20
10.4743
 11
68.2765
 21
10.3978
  0
LINE
  8
0
 10
68.2765
 20
10.3978
 11
68.648
 21
10.2716
  0
LINE
  8
0
 10
68.648
 20
10.2716
 11
69
 21
10.0981
  0
LINE
  8
0
 10
69
 20
10.0981
 11
69.3263
 21
9.88005
  0
LINE
  8
0
 10
69.3263
 20
9.88005
 11
69.6213
 21
9.62131
  0
LINE
  8
0
 10
69.6213
 20
9.62131
 11
69.8801
 21
9.32628
  0
LINE
  8
0
 10
69.8801
 20
9.32628
 11
70.0981
 21
9
  0
LINE
  8
0
 10
70.0981
 20
9
 11
70.2716
 21
8.64804
  0
LINE
  8
0
 10
70.2716
 20
8.64804
 11
70.3978
 21
8.27644
  0
LINE
  8
0
 10
70.3978
 20
8.27644
 11
70.4743
 21
7.89157
  0
LINE
  8
0
 10
70.4743
 20
7.89157
 11
70.5
 21
7.5
  0
LINE
  8
0
 10
70.5
 20
7.5
 11
70.4743
 21
7.10841
  0
LINE
  8
0
 10
70.4743
 20
7.10841
 11
70.3978
 21
6.72354
  0
LINE
  8
0
 10
70.3978
 20
6.72354
 11
70.2716
 21
6.35194
  0
LINE
  8
0
 10
70.2716
 20
6.35194
 11
70.0981
 21
6
  0
LINE
  8
0
 10
70.0981
 20
6
 11
69.8801
 21
5.67371
  0
LINE
  8
0
 10
69.8801
 20
5.67371
 11
69.6213
 21
5.37868
  0
LINE
  8
0
 10
69.6213
 20
5.37868
 11
69.3263
 21
5.11993
  0
LINE
  8
0
 10
69.3263
 20
5.11993
 11
69
 21
4.90192
  0
LINE
  8
0
 10
69
 20
4.90192
 11
68.648
 21
4.72835
  0
LINE
  8
0
 10
68.648
 20
4.72835
 11
68.2765
 21
4.60222
  0
LINE
  8
0
 10
68.2765
 20
4.60222
 11
67.8916
 21
4.52567
  0
LINE
  8
0
 10
67.8916
 20
4.52567
 11
67.5
 21
4.5
  0
LINE
  8
0
 10
67.5
 20
4.5
 11
67.1084
 21
4.52567
  0
LINE
  8
0
 10
97.1084
 20
4.52567
 11
96.7235
 21
4.60222
  0
LINE
  8
0
 10
96.7235
 20
4.60222
 11
96.3519
 21
4.72835
  0
LINE
  8
0
 10
96.3519
 20
4.72835
 11
96
 21
4.90192
  0
LINE
  8
0
 10
96
 20
4.90192
 11
95.6737
 21
5.11993
  0
LINE
  8
0
 10
95.6737
 20
5.11993
 11
95.3787
 21
5.37868
  0
LINE
  8
0
 10
95.3787
 20
5.37868
 11
95.1199
 21
5.67371
  0
LINE
  8
0
 10
95.1199
 20
5.67371
 11
94.9019
 21
6
  0
LINE
  8
0
 10
94.9019
 20
6
 11
94.7284
 21
6.35194
  0
LINE
  8
0
 10
94.7284
 20
6.35194
 11
94.6022
 21
6.72354
  0
LINE
  8
0
 10
94.6022
 20
6.72354
 11
94.5257
 21
7.10841
  0
LINE
  8
0
 10
94.5257
 20
7.10841
 11
94.5
 21
7.5
  0
LINE
  8
0
 10
94.5
 20
7.5
 11
94.5257
 21
7.89157
  0
LINE
  8
0
 10
94.5257
 20
7.89157
 11
94.6022
 21
8.27644
  0
LINE
  8
0
 10
94.6022
 20
8.27644
 11
94.7284
 21
8.64804
  0
LINE
  8
0
 10
94.7284
 20
8.64804
 11
94.9019
 21
9
  0
LINE
  8
0
 10
94.9019
 20
9
 11
95.1199
 21
9.32628
  0
LINE
  8
0
 10
95.1199
 20
9.32628
 11
95.3787
 21
9.62131
  0
LINE
  8
0
 10
95.3787
 20
9.62131
 11
95.6737
 21
9.88005
  0
LINE
  8
0
 10
95.6737
 20
9.88005
 11
96
 21
10.0981
  0
LINE
  8
0
 10
96
 20
10.0981
 11
96.3519
 21
10.2716
  0
LINE
  8
0
 10
96.3519
 20
10.2716
 11
96.7235
 21
10.3978
  0
LINE
  8
0
 10
96.7235
 20
10.3978
 11
97.1084
 21
10.4743
  0
LINE
  8
0
 10
97.1084
 20
10.4743
 11
97.5
 21
10.5
  0
LINE
  8
0
 10
97.5
 20
10.5
 11
97.8916
 21
10.4743
  0
LINE
  8
0
 10
97.8916
 20
10.4743
 11
98.2765
 21
10.3978
  0
LINE
  8
0
 10
98.2765
 20
10.3978
 11
98.648
 21
10.2716
  0
LINE
  8
0
 10
98.648
 20
10.2716
 11
99
 21
10.0981
  0
LINE
  8
0
 10
99
 20
10.0981
 11
99.3263
 21
9.88005
  0
LINE
  8
0
 10
99.3263
 20
9.88005
 11
99.6213
 21
9.62131
  0
LINE
  8
0
 10
99.6213
 20
9.62131
 11
99.8801
 21
9.32628
  0
LINE
  8
0
 10
99.8801
 20
9.32628
 11
100.098
 21
9
  0
LINE
  8
0
 10
100.098
 20
9
 11
100.272
 21
8.64804
  0
LINE
  8
0
 10
100.272
 20
8.64804
 11
100.398
 21
8.27644
  0
LINE
  8
0
 10
100.398
 20
8.27644
 11
100.474
 21
7.89157
  0
LINE
  8
0
 10
100.474
 20
7.89157
 11
100.5
 21
7.5
  0
LINE
  8
0
 10
100.5
 20
7.5
 11
100.474
 21
7.10841
  0
LINE
  8
0
 10
100.474
 20
7.10841
 11
100.398
 21
6.72354
  0
LINE
  8
0
 10
100.398
 20
6.72354
 11
100.272
 21
6.35194
  0
LINE
  8
0
 10
100.272
 20
6.35194
 11
100.098
 21
6
  0
LINE
  8
0
 10
100.098
 20
6
 11
99.8801
 21
5.67371
  0
LINE
  8
0
 10
99.8801
 20
5.67371
 11
99.6213
 21
5.37868
  0
LINE
  8
0
 10
99.6213
 20
5.37868
 11
99.3263
 21
5.11993
  0
LINE
  8
0
 10
99.3263
 20
5.11993
 11
99
 21
4.90192
  0
LINE
  8
0
 10
99
 20
4.90192
 11
98.648
 21
4.72835
  0
LINE
  8
0
 10
98.648
 20
4.72835
 11
98.2765
 21
4.60222
  0
LINE
  8
0
 10
98.2765
 20
4.60222
 11
97.8916
 21
4.52567
  0
LINE
  8
0
 10
97.8916
 20
4.52567
 11
97.5
 21
4.5
  0
LINE
  8
0
 10
97.5
 20
4.5
 11
97.1084
 21
4.52567
  0
LINE
  8
0
 10
172.108
 20
4.52567
 11
171.724
 21
4.60222
  0
LINE
  8
0
 10
171.724
 20
4.60222
 11
171.352
 21
4.72835
  0
LINE
  8
0
 10
171.352
 20
4.72835
 11
171
 21
4.90192
  0
LINE
  8
0
 10
171
 20
4.90192
 11
170.674
 21
5.11993
  0
LINE
  8
0
 10
170.674
 20
5.11993
 11
170.379
 21
5.37868
  0
LINE
  8
0
 10
170.379
 20
5.37868
 11
170.12
 21
5.67371
  0
LINE
  8
0
 10
170.12
 20
5.67371
 11
169.902
 21
6
  0
LINE
  8
0
 10
169.902
 20
6
 11
169.728
 21
6.35194
  0
LINE
  8
0
 10
169.728
 20
6.35194
 11
169.602
 21
6.72354
  0
LINE
  8
0
 10
169.602
 20
6.72354
 11
169.526
 21
7.10841
  0
LINE
  8
0
 10
169.526
 20
7.10841
 11
169.5
 21
7.5
  0
LINE
  8
0
 10
169.5
 20
7.5
 11
169.526
 21
7.89157
  0
LINE
  8
0
 10
169.526
 20
7.89157
 11
169.602
 21
8.27644
  0
LINE
  8
0
 10
169.602
 20
8.27644
 11
169.728
 21
8.64804
  0
LINE
  8
0
 10
169.728
 20
8.64804
 11
169.902
 21
9
  0
LINE
  8
0
 10
169.902
 20
9
 11
170.12
 21
9.32628
  0
LINE
  8
0
 10
170.12
 20
9.32628
 11
170.379
 21
9.62131
  0
LINE
  8
0
 10
170.379
 20
9.62131
 11
170.674
 21
9.88005
  0
LINE
  8
0
 10
170.674
 20
9.88005
 11
171
 21
10.0981
  0
LINE
  8
0
 10
171
 20
10.0981
 11
171.352
 21
10.2716
  0
LINE
  8
0
 10
171.352
 20
10.2716
 11
171.724
 21
10.3978
  0
LINE
  8
0
 10
171.724
 20
10.3978
 11
172.108
 21
10.4743
  0
LINE
  8
0
 10
172.108
 20
10.4743
 11
172.5
 21
10.5
  0
LINE
  8
0
 10
172.5
 20
10.5
 11
172.892
 21
10.4743
  0
LINE
  8
0
 10
172.892
 20
10.4743
 11
173.276
 21
10.3978
  0
LINE
  8
0
 10
173.276
 20
10.3978
 11
173.648
 21
10.2716
  0
LINE
  8
0
 10
173.648
 20
10.2716
 11
174
 21
10.0981
  0
LINE
  8
0
 10
174
 20
10.0981
 11
174.326
 21
9.88005
  0
LINE
  8
0
 10
174.326
 20
9.88005
 11
174.621
 21
9.62131
  0
LINE
  8
0
 10
174.621
 20
9.62131
 11
174.88
 21
9.32628
  0
LINE
  8
0
 10
174.88
 20
9.32628
 11
175.098
 21
9
  0
LINE
  8
0
 10
175.098
 20
9
 11
175.272
 21
8.64804
  0
LINE
  8
0
 10
175.272
 20
8.64804
 11
175.398
 21
8.27644
  0
LINE
  8
0
 10
175.398
 20
8.27644
 11
175.474
 21
7.89157
  0
LINE
  8
0
 10
175.474
 20
7.89157
 11
175.5
 21
7.5
  0
LINE
  8
0
 10
175.5
 20
7.5
 11
175.474
 21
7.10841
  0
LINE
  8
0
 10
175.474
 20
7.10841
 11
175.398
 21
6.72354
  0
LINE
  8
0
 10
175.398
 20
6.72354
 11
175.272
 21
6.35194
  0
LINE
  8
0
 10
175.272
 20
6.35194
 11
175.098
 21
6
  0
LINE
  8
0
 10
175.098
 20
6
 11
174.88
 21
5.67371
  0
LINE
  8
0
 10
174.88
 20
5.67371
 11
174.621
 21
5.37868
  0
LINE
  8
0
 10
174.621
 20
5.37868
 11
174.326
 21
5.11993
  0
LINE
  8
0
 10
174.326
 20
5.11993
 11
174
 21
4.90192
  0
LINE
  8
0
 10
174
 20
4.90192
 11
173.648
 21
4.72835
  0
LINE
  8
0
 10
173.648
 20
4.72835
 11
173.276
 21
4.60222
  0
LINE
  8
0
 10
173.276
 20
4.60222
 11
172.892
 21
4.52567
  0
LINE
  8
0
 10
172.892
 20
4.52567
 11
172.5
 21
4.5
  0
LINE
  8
0
 10
172.5
 20
4.5
 11
172.108
 21
4.52567
  0
LINE
  8
0
 10
157.108
 20
4.52567
 11
156.724
 21
4.60222
  0
LINE
  8
0
 10
156.724
 20
4.60222
 11
156.352
 21
4.72835
  0
LINE
  8
0
 10
156.352
 20
4.72835
 11
156
 21
4.90192
  0
LINE
  8
0
 10
156
 20
4.90192
 11
155.674
 21
5.11993
  0
LINE
  8
0
 10
155.674
 20
5.11993
 11
155.379
 21
5.37868
  0
LINE
  8
0
 10
155.379
 20
5.37868
 11
155.12
 21
5.67371
  0
LINE
  8
0
 10
155.12
 20
5.67371
 11
154.902
 21
6
  0
LINE
  8
0
 10
154.902
 20
6
 11
154.728
 21
6.35194
  0
LINE
  8
0
 10
154.728
 20
6.35194
 11
154.602
 21
6.72354
  0
LINE
  8
0
 10
154.602
 20
6.72354
 11
154.526
 21
7.10841
  0
LINE
  8
0
 10
154.526
 20
7.10841
 11
154.5
 21
7.5
  0
LINE
  8
0
 10
154.5
 20
7.5
 11
154.526
 21
7.89157
  0
LINE
  8
0
 10
154.526
 20
7.89157
 11
154.602
 21
8.27644
  0
LINE
  8
0
 10
154.602
 20
8.27644
 11
154.728
 21
8.64804
  0
LINE
  8
0
 10
154.728
 20
8.64804
 11
154.902
 21
9
  0
LINE
  8
0
 10
154.902
 20
9
 11
155.12
 21
9.32628
  0
LINE
  8
0
 10
155.12
 20
9.32628
 11
155.379
 21
9.62131
  0
LINE
  8
0
 10
155.379
 20
9.62131
 11
155.674
 21
9.88005
  0
LINE
  8
0
 10
155.674
 20
9.88005
 11
156
 21
10.0981
  0
LINE
  8
0
 10
156
 20
10.0981
 11
156.352
 21
10.2716
  0
LINE
  8
0
 10
156.352
 20
10.2716
 11
156.724
 21
10.3978
  0
LINE
  8
0
 10
156.724
 20
10.3978
 11
157.108
 21
10.4743
  0
LINE
  8
0
 10
157.108
 20
10.4743
 11
157.5
 21
10.5
  0
LINE
  8
0
 10
157.5
 20
10.5
 11
157.892
 21
10.4743
  0
LINE
  8
0
 10
157.892
 20
10.4743
 11
158.276
 21
10.3978
  0
LINE
  8
0
 10
158.276
 20
10.3978
 11
158.648
 21
10.2716
  0
LINE
  8
0
 10
158.648
 20
10.2716
 11
159
 21
10.0981
  0
LINE
  8
0
 10
159
 20
10.0981
 11
159.326
 21
9.88005
  0
LINE
  8
0
 10
159.326
 20
9.88005
 11
159.621
 21
9.62131
  0
LINE
  8
0
 10
159.621
 20
9.62131
 11
159.88
 21
9.32628
  0
LINE
  8
0
 10
159.88
 20
9.32628
 11
160.098
 21
9
  0
LINE
  8
0
 10
160.098
 20
9
 11
160.272
 21
8.64804
  0
LINE
  8
0
 10
160.272
 20
8.64804
 11
160.398
 21
8.27644
  0
LINE
  8
0
 10
160.398
 20
8.27644
 11
160.474
 21
7.89157
  0
LINE
  8
0
 10
160.474
 20
7.89157
 11
160.5
 21
7.5
  0
LINE
  8
0
 10
160.5
 20
7.5
 11
160.474
 21
7.10841
  0
LINE
  8
0
 10
160.474
 20
7.10841
 11
160.398
 21
6.72354
  0
LINE
  8
0
 10
160.398
 20
6.72354
 11
160.272
 21
6.35194
  0
LINE
  8
0
 10
160.272
 20
6.35194
 11
160.098
 21
6
  0
LINE
  8
0
 10
160.098
 20
6
 11
159.88
 21
5.67371
  0
LINE
  8
0
 10
159.88
 20
5.67371
 11
159.621
 21
5.37868
  0
LINE
  8
0
 10
159.621
 20
5.37868
 11
159.326
 21
5.11993
  0
LINE
  8
0
 10
159.326
 20
5.11993
 11
159
 21
4.90192
  0
LINE
  8
0
 10
159
 20
4.90192
 11
158.648
 21
4.72835
  0
LINE
  8
0
 10
158.648
 20
4.72835
 11
158.276
 21
4.60222
  0
LINE
  8
0
 10
158.276
 20
4.60222
 11
157.892
 21
4.52567
  0
LINE
  8
0
 10
157.892
 20
4.52567
 11
157.5
 21
4.5
  0
LINE
  8
0
 10
157.5
 20
4.5
 11
157.108
 21
4.52567
  0
LINE
  8
0
 10
82.1084
 20
4.52567
 11
81.7235
 21
4.60222
  0
LINE
  8
0
 10
81.7235
 20
4.60222
 11
81.3519
 21
4.72835
  0
LINE
  8
0
 10
81.3519
 20
4.72835
 11
81
 21
4.90192
  0
LINE
  8
0
 10
81
 20
4.90192
 11
80.6737
 21
5.11993
  0
LINE
  8
0
 10
80.6737
 20
5.11993
 11
80.3787
 21
5.37868
  0
LINE
  8
0
 10
80.3787
 20
5.37868
 11
80.1199
 21
5.67371
  0
LINE
  8
0
 10
80.1199
 20
5.67371
 11
79.9019
 21
6
  0
LINE
  8
0
 10
79.9019
 20
6
 11
79.7284
 21
6.35194
  0
LINE
  8
0
 10
79.7284
 20
6.35194
 11
79.6022
 21
6.72354
  0
LINE
  8
0
 10
79.6022
 20
6.72354
 11
79.5257
 21
7.10841
  0
LINE
  8
0
 10
79.5257
 20
7.10841
 11
79.5
 21
7.5
  0
LINE
  8
0
 10
79.5
 20
7.5
 11
79.5257
 21
7.89157
  0
LINE
  8
0
 10
79.5257
 20
7.89157
 11
79.6022
 21
8.27644
  0
LINE
  8
0
 10
79.6022
 20
8.27644
 11
79.7284
 21
8.64804
  0
LINE
  8
0
 10
79.7284
 20
8.64804
 11
79.9019
 21
9
  0
LINE
  8
0
 10
79.9019
 20
9
 11
80.1199
 21
9.32628
  0
LINE
  8
0
 10
80.1199
 20
9.32628
 11
80.3787
 21
9.62131
  0
LINE
  8
0
 10
80.3787
 20
9.62131
 11
80.6737
 21
9.88005
  0
LINE
  8
0
 10
80.6737
 20
9.88005
 11
81
 21
10.0981
  0
LINE
  8
0
 10
81
 20
10.0981
 11
81.3519
 21
10.2716
  0
LINE
  8
0
 10
81.3519
 20
10.2716
 11
81.7235
 21
10.3978
  0
LINE
  8
0
 10
81.7235
 20
10.3978
 11
82.1084
 21
10.4743
  0
LINE
  8
0
 10
82.1084
 20
10.4743
 11
82.5
 21
10.5
  0
LINE
  8
0
 10
82.5
 20
10.5
 11
82.8916
 21
10.4743
  0
LINE
  8
0
 10
82.8916
 20
10.4743
 11
83.2765
 21
10.3978
  0
LINE
  8
0
 10
83.2765
 20
10.3978
 11
83.648
 21
10.2716
  0
LINE
  8
0
 10
83.648
 20
10.2716
 11
84
 21
10.0981
  0
LINE
  8
0
 10
84
 20
10.0981
 11
84.3263
 21
9.88005
  0
LINE
  8
0
 10
84.3263
 20
9.88005
 11
84.6213
 21
9.62131
  0
LINE
  8
0
 10
84.6213
 20
9.62131
 11
84.8801
 21
9.32628
  0
LINE
  8
0
 10
84.8801
 20
9.32628
 11
85.0981
 21
9
  0
LINE
  8
0
 10
85.0981
 20
9
 11
85.2716
 21
8.64804
  0
LINE
  8
0
 10
85.2716
 20
8.64804
 11
85.3978
 21
8.27644
  0
LINE
  8
0
 10
85.3978
 20
8.27644
 11
85.4743
 21
7.89157
  0
LINE
  8
0
 10
85.4743
 20
7.89157
 11
85.5
 21
7.5
  0
LINE
  8
0
 10
85.5
 20
7.5
 11
85.4743
 21
7.10841
  0
LINE
  8
0
 10
85.4743
 20
7.10841
 11
85.3978
 21
6.72354
  0
LINE
  8
0
 10
85.3978
 20
6.72354
 11
85.2716
 21
6.35194
  0
LINE
  8
0
 10
85.2716
 20
6.35194
 11
85.0981
 21
6
  0
LINE
  8
0
 10
85.0981
 20
6
 11
84.8801
 21
5.67371
  0
LINE
  8
0
 10
84.8801
 20
5.67371
 11
84.6213
 21
5.37868
  0
LINE
  8
0
 10
84.6213
 20
5.37868
 11
84.3263
 21
5.11993
  0
LINE
  8
0
 10
84.3263
 20
5.11993
 11
84
 21
4.90192
  0
LINE
  8
0
 10
84
 20
4.90192
 11
83.648
 21
4.72835
  0
LINE
  8
0
 10
83.648
 20
4.72835
 11
83.2765
 21
4.60222
  0
LINE
  8
0
 10
83.2765
 20
4.60222
 11
82.8916
 21
4.52567
  0
LINE
  8
0
 10
82.8916
 20
4.52567
 11
82.5
 21
4.5
  0
LINE
  8
0
 10
82.5
 20
4.5
 11
82.1084
 21
4.52567
  0
LINE
  8
0
 10
37.1084
 20
4.52567
 11
36.7235
 21
4.60222
  0
LINE
  8
0
 10
36.7235
 20
4.60222
 11
36.3519
 21
4.72835
  0
LINE
  8
0
 10
36.3519
 20
4.72835
 11
36
 21
4.90192
  0
LINE
  8
0
 10
36
 20
4.90192
 11
35.6737
 21
5.11993
  0
LINE
  8
0
 10
35.6737
 20
5.11993
 11
35.3787
 21
5.37868
  0
LINE
  8
0
 10
35.3787
 20
5.37868
 11
35.1199
 21
5.67371
  0
LINE
  8
0
 10
35.1199
 20
5.67371
 11
34.9019
 21
6
  0
LINE
  8
0
 10
34.9019
 20
6
 11
34.7284
 21
6.35194
  0
LINE
  8
0
 10
34.7284
 20
6.35194
 11
34.6022
 21
6.72354
  0
LINE
  8
0
 10
34.6022
 20
6.72354
 11
34.5257
 21
7.10841
  0
LINE
  8
0
 10
34.5257
 20
7.10841
 11
34.5
 21
7.5
  0
LINE
  8
0
 10
34.5
 20
7.5
 11
34.5257
 21
7.89157
  0
LINE
  8
0
 10
34.5257
 20
7.89157
 11
34.6022
 21
8.27644
  0
LINE
  8
0
 10
34.6022
 20
8.27644
 11
34.7284
 21
8.64804
  0
LINE
  8
0
 10
34.7284
 20
8.64804
 11
34.9019
 21
9
  0
LINE
  8
0
 10
34.9019
 20
9
 11
35.1199
 21
9.32628
  0
LINE
  8
0
 10
35.1199
 20
9.32628
 11
35.3787
 21
9.62131
  0
LINE
  8
0
 10
35.3787
 20
9.62131
 11
35.6737
 21
9.88005
  0
LINE
  8
0
 10
35.6737
 20
9.88005
 11
36
 21
10.0981
  0
LINE
  8
0
 10
36
 20
10.0981
 11
36.3519
 21
10.2716
  0
LINE
  8
0
 10
36.3519
 20
10.2716
 11
36.7235
 21
10.3978
  0
LINE
  8
0
 10
36.7235
 20
10.3978
 11
37.1084
 21
10.4743
  0
LINE
  8
0
 10
37.1084
 20
10.4743
 11
37.5
 21
10.5
  0
LINE
  8
0
 10
37.5
 20
10.5
 11
37.8916
 21
10.4743
  0
LINE
  8
0
 10
37.8916
 20
10.4743
 11
38.2765
 21
10.3978
  0
LINE
  8
0
 10
38.2765
 20
10.3978
 11
38.648
 21
10.2716
  0
LINE
  8
0
 10
38.648
 20
10.2716
 11
39
 21
10.0981
  0
LINE
  8
0
 10
39
 20
10.0981
 11
39.3263
 21
9.88005
  0
LINE
  8
0
 10
39.3263
 20
9.88005
 11
39.6213
 21
9.62131
  0
LINE
  8
0
 10
39.6213
 20
9.62131
 11
39.8801
 21
9.32628
  0
LINE
  8
0
 10
39.8801
 20
9.32628
 11
40.0981
 21
9
  0
LINE
  8
0
 10
40.0981
 20
9
 11
40.2716
 21
8.64804
  0
LINE
  8
0
 10
40.2716
 20
8.64804
 11
40.3978
 21
8.27644
  0
LINE
  8
0
 10
40.3978
 20
8.27644
 11
40.4743
 21
7.89157
  0
LINE
  8
0
 10
40.4743
 20
7.89157
 11
40.5
 21
7.5
  0
LINE
  8
0
 10
40.5
 20
7.5
 11
40.4743
 21
7.10841
  0
LINE
  8
0
 10
40.4743
 20
7.10841
 11
40.3978
 21
6.72354
  0
LINE
  8
0
 10
40.3978
 20
6.72354
 11
40.2716
 21
6.35194
  0
LINE
  8
0
 10
40.2716
 20
6.35194
 11
40.0981
 21
6
  0
LINE
  8
0
 10
40.0981
 20
6
 11
39.8801
 21
5.67371
  0
LINE
  8
0
 10
39.8801
 20
5.67371
 11
39.6213
 21
5.37868
  0
LINE
  8
0
 10
39.6213
 20
5.37868
 11
39.3263
 21
5.11993
  0
LINE
  8
0
 10
39.3263
 20
5.11993
 11
39
 21
4.90192
  0
LINE
  8
0
 10
39
 20
4.90192
 11
38.648
 21
4.72835
  0
LINE
  8
0
 10
38.648
 20
4.72835
 11
38.2765
 21
4.60222
  0
LINE
  8
0
 10
38.2765
 20
4.60222
 11
37.8916
 21
4.52567
  0
LINE
  8
0
 10
37.8916
 20
4.52567
 11
37.5
 21
4.5
  0
LINE
  8
0
 10
37.5
 20
4.5
 11
37.1084
 21
4.52567
  0
LINE
  8
0
 10
367.108
 20
4.52567
 11
366.724
 21
4.60222
  0
LINE
  8
0
 10
366.724
 20
4.60222
 11
366.352
 21
4.72835
  0
LINE
  8
0
 10
366.352
 20
4.72835
 11
366
 21
4.90192
  0
LINE
  8
0
 10
366
 20
4.90192
 11
365.674
 21
5.11993
  0
LINE
  8
0
 10
365.674
 20
5.11993
 11
365.379
 21
5.37868
  0
LINE
  8
0
 10
365.379
 20
5.37868
 11
365.12
 21
5.67371
  0
LINE
  8
0
 10
365.12
 20
5.67371
 11
364.902
 21
6
  0
LINE
  8
0
 10
364.902
 20
6
 11
364.728
 21
6.35194
  0
LINE
  8
0
 10
364.728
 20
6.35194
 11
364.602
 21
6.72354
  0
LINE
  8
0
 10
364.602
 20
6.72354
 11
364.526
 21
7.10841
  0
LINE
  8
0
 10
364.526
 20
7.10841
 11
364.5
 21
7.5
  0
LINE
  8
0
 10
364.5
 20
7.5
 11
364.526
 21
7.89157
  0
LINE
  8
0
 10
364.526
 20
7.89157
 11
364.602
 21
8.27644
  0
LINE
  8
0
 10
364.602
 20
8.27644
 11
364.728
 21
8.64804
  0
LINE
  8
0
 10
364.728
 20
8.64804
 11
364.902
 21
9
  0
LINE
  8
0
 10
364.902
 20
9
 11
365.12
 21
9.32628
  0
LINE
  8
0
 10
365.12
 20
9.32628
 11
365.379
 21
9.62131
  0
LINE
  8
0
 10
365.379
 20
9.62131
 11
365.674
 21
9.88005
  0
LINE
  8
0
 10
365.674
 20
9.88005
 11
366
 21
10.0981
  0
LINE
  8
0
 10
366
 20
10.0981
 11
366.352
 21
10.2716
  0
LINE
  8
0
 10
366.352
 20
10.2716
 11
366.724
 21
10.3978
  0
LINE
  8
0
 10
366.724
 20
10.3978
 11
367.108
 21
10.4743
  0
LINE
  8
0
 10
367.108
 20
10.4743
 11
367.5
 21
10.5
  0
LINE
  8
0
 10
367.5
 20
10.5
 11
367.892
 21
10.4743
  0
LINE
  8
0
 10
367.892
 20
10.4743
 11
368.276
 21
10.3978
  0
LINE
  8
0
 10
368.276
 20
10.3978
 11
368.648
 21
10.2716
  0
LINE
  8
0
 10
368.648
 20
10.2716
 11
369
 21
10.0981
  0
LINE
  8
0
 10
369
 20
10.0981
 11
369.326
 21
9.88005
  0
LINE
  8
0
 10
369.326
 20
9.88005
 11
369.621
 21
9.62131
  0
LINE
  8
0
 10
369.621
 20
9.62131
 11
369.88
 21
9.32628
  0
LINE
  8
0
 10
369.88
 20
9.32628
 11
370.098
 21
9
  0
LINE
  8
0
 10
370.098
 20
9
 11
370.272
 21
8.64804
  0
LINE
  8
0
 10
370.272
 20
8.64804
 11
370.398
 21
8.27644
  0
LINE
  8
0
 10
370.398
 20
8.27644
 11
370.474
 21
7.89157
  0
LINE
  8
0
 10
370.474
 20
7.89157
 11
370.5
 21
7.5
  0
LINE
  8
0
 10
370.5
 20
7.5
 11
370.474
 21
7.10841
  0
LINE
  8
0
 10
370.474
 20
7.10841
 11
370.398
 21
6.72354
  0
LINE
  8
0
 10
370.398
 20
6.72354
 11
370.272
 21
6.35194
  0
LINE
  8
0
 10
370.272
 20
6.35194
 11
370.098
 21
6
  0
LINE
  8
0
 10
370.098
 20
6
 11
369.88
 21
5.67371
  0
LINE
  8
0
 10
369.88
 20
5.67371
 11
369.621
 21
5.37868
  0
LINE
  8
0
 10
369.621
 20
5.37868
 11
369.326
 21
5.11993
  0
LINE
  8
0
 10
369.326
 20
5.11993
 11
369
 21
4.90192
  0
LINE
  8
0
 10
369
 20
4.90192
 11
368.648
 21
4.72835
  0
LINE
  8
0
 10
368.648
 20
4.72835
 11
368.276
 21
4.60222
  0
LINE
  8
0
 10
368.276
 20
4.60222
 11
367.892
 21
4.52567
  0
LINE
  8
0
 10
367.892
 20
4.52567
 11
367.5
 21
4.5
  0
LINE
  8
0
 10
367.5
 20
4.5
 11
367.108
 21
4.52567
  0
LINE
  8
0
 10
352.108
 20
4.52567
 11
351.724
 21
4.60222
  0
LINE
  8
0
 10
351.724
 20
4.60222
 11
351.352
 21
4.72835
  0
LINE
  8
0
 10
351.352
 20
4.72835
 11
351
 21
4.90192
  0
LINE
  8
0
 10
351
 20
4.90192
 11
350.674
 21
5.11993
  0
LINE
  8
0
 10
350.674
 20
5.11993
 11
350.379
 21
5.37868
  0
LINE
  8
0
 10
350.379
 20
5.37868
 11
350.12
 21
5.67371
  0
LINE
  8
0
 10
350.12
 20
5.67371
 11
349.902
 21
6
  0
LINE
  8
0
 10
349.902
 20
6
 11
349.728
 21
6.35194
  0
LINE
  8
0
 10
349.728
 20
6.35194
 11
349.602
 21
6.72354
  0
LINE
  8
0
 10
349.602
 20
6.72354
 11
349.526
 21
7.10841
  0
LINE
  8
0
 10
349.526
 20
7.10841
 11
349.5
 21
7.5
  0
LINE
  8
0
 10
349.5
 20
7.5
 11
349.526
 21
7.89157
  0
LINE
  8
0
 10
349.526
 20
7.89157
 11
349.602
 21
8.27644
  0
LINE
  8
0
 10
349.602
 20
8.27644
 11
349.728
 21
8.64804
  0
LINE
  8
0
 10
349.728
 20
8.64804
 11
349.902
 21
9
  0
LINE
  8
0
 10
349.902
 20
9
 11
350.12
 21
9.32628
  0
LINE
  8
0
 10
350.12
 20
9.32628
 11
350.379
 21
9.62131
  0
LINE
  8
0
 10
350.379
 20
9.62131
 11
350.674
 21
9.88005
  0
LINE
  8
0
 10
350.674
 20
9.88005
 11
351
 21
10.0981
  0
LINE
  8
0
 10
351
 20
10.0981
 11
351.352
 21
10.2716
  0
LINE
  8
0
 10
351.352
 20
10.2716
 11
351.724
 21
10.3978
  0
LINE
  8
0
 10
351.724
 20
10.3978
 11
352.108
 21
10.4743
  0
LINE
  8
0
 10
352.108
 20
10.4743
 11
352.5
 21
10.5
  0
LINE
  8
0
 10
352.5
 20
10.5
 11
352.892
 21
10.4743
  0
LINE
  8
0
 10
352.892
 20
10.4743
 11
353.276
 21
10.3978
  0
LINE
  8
0
 10
353.276
 20
10.3978
 11
353.648
 21
10.2716
  0
LINE
  8
0
 10
353.648
 20
10.2716
 11
354
 21
10.0981
  0
LINE
  8
0
 10
354
 20
10.0981
 11
354.326
 21
9.88005
  0
LINE
  8
0
 10
354.326
 20
9.88005
 11
354.621
 21
9.62131
  0
LINE
  8
0
 10
354.621
 20
9.62131
 11
354.88
 21
9.32628
  0
LINE
  8
0
 10
354.88
 20
9.32628
 11
355.098
 21
9
  0
LINE
  8
0
 10
355.098
 20
9
 11
355.272
 21
8.64804
  0
LINE
  8
0
 10
355.272
 20
8.64804
 11
355.398
 21
8.27644
  0
LINE
  8
0
 10
355.398
 20
8.27644
 11
355.474
 21
7.89157
  0
LINE
  8
0
 10
355.474
 20
7.89157
 11
355.5
 21
7.5
  0
LINE
  8
0
 10
355.5
 20
7.5
 11
355.474
 21
7.10841
  0
LINE
  8
0
 10
355.474
 20
7.10841
 11
355.398
 21
6.72354
  0
LINE
  8
0
 10
355.398
 20
6.72354
 11
355.272
 21
6.35194
  0
LINE
  8
0
 10
355.272
 20
6.35194
 11
355.098
 21
6
  0
LINE
  8
0
 10
355.098
 20
6
 11
354.88
 21
5.67371
  0
LINE
  8
0
 10
354.88
 20
5.67371
 11
354.621
 21
5.37868
  0
LINE
  8
0
 10
354.621
 20
5.37868
 11
354.326
 21
5.11993
  0
LINE
  8
0
 10
354.326
 20
5.11993
 11
354
 21
4.90192
  0
LINE
  8
0
 10
354
 20
4.90192
 11
353.648
 21
4.72835
  0
LINE
  8
0
 10
353.648
 20
4.72835
 11
353.276
 21
4.60222
  0
LINE
  8
0
 10
353.276
 20
4.60222
 11
352.892
 21
4.52567
  0
LINE
  8
0
 10
352.892
 20
4.52567
 11
352.5
 21
4.5
  0
LINE
  8
0
 10
352.5
 20
4.5
 11
352.108
 21
4.52567
  0
LINE
  8
0
 10
22.1084
 20
4.52567
 11
21.7235
 21
4.60222
  0
LINE
  8
0
 10
21.7235
 20
4.60222
 11
21.3519
 21
4.72835
  0
LINE
  8
0
 10
21.3519
 20
4.72835
 11
21
 21
4.90192
  0
LINE
  8
0
 10
21
 20
4.90192
 11
20.6737
 21
5.11993
  0
LINE
  8
0
 10
20.6737
 20
5.11993
 11
20.3787
 21
5.37868
  0
LINE
  8
0
 10
20.3787
 20
5.37868
 11
20.1199
 21
5.67371
  0
LINE
  8
0
 10
20.1199
 20
5.67371
 11
19.9019
 21
6
  0
LINE
  8
0
 10
19.9019
 20
6
 11
19.7283
 21
6.35194
  0
LINE
  8
0
 10
19.7283
 20
6.35194
 11
19.6022
 21
6.72354
  0
LINE
  8
0
 10
19.6022
 20
6.72354
 11
19.5257
 21
7.10841
  0
LINE
  8
0
 10
19.5257
 20
7.10841
 11
19.5
 21
7.5
  0
LINE
  8
0
 10
19.5
 20
7.5
 11
19.5257
 21
7.89157
  0
LINE
  8
0
 10
19.5257
 20
7.89157
 11
19.6022
 21
8.27644
  0
LINE
  8
0
 10
19.6022
 20
8.27644
 11
19.7283
 21
8.64804
  0
LINE
  8
0
 10
19.7283
 20
8.64804
 11
19.9019
 21
9
  0
LINE
  8
0
 10
19.9019
 20
9
 11
20.1199
 21
9.32628
  0
LINE
  8
0
 10
20.1199
 20
9.32628
 11
20.3787
 21
9.62131
  0
LINE
  8
0
 10
20.3787
 20
9.62131
 11
20.6737
 21
9.88005
  0
LINE
  8
0
 10
20.6737
 20
9.88005
 11
21
 21
10.0981
  0
LINE
  8
0
 10
21
 20
10.0981
 11
21.3519
 21
10.2716
  0
LINE
  8
0
 10
21.3519
 20
10.2716
 11
21.7235
 21
10.3978
  0
LINE
  8
0
 10
21.7235
 20
10.3978
 11
22.1084
 21
10.4743
  0
LINE
  8
0
 10
22.1084
 20
10.4743
 11
22.5
 21
10.5
  0
LINE
  8
0
 10
22.5
 20
10.5
 11
22.8916
 21
10.4743
  0
LINE
  8
0
 10
22.8916
 20
10.4743
 11
23.2764
 21
10.3978
  0
LINE
  8
0
 10
23.2764
 20
10.3978
 11
23.648
 21
10.2716
  0
LINE
  8
0
 10
23.648
 20
10.2716
 11
24
 21
10.0981
  0
LINE
  8
0
 10
24
 20
10.0981
 11
24.3263
 21
9.88005
  0
LINE
  8
0
 10
24.3263
 20
9.88005
 11
24.6213
 21
9.62131
  0
LINE
  8
0
 10
24.6213
 20
9.62131
 11
24.8801
 21
9.32628
  0
LINE
  8
0
 10
24.8801
 20
9.32628
 11
25.0981
 21
9
  0
LINE
  8
0
 10
25.0981
 20
9
 11
25.2716
 21
8.64804
  0
LINE
  8
0
 10
25.2716
 20
8.64804
 11
25.3978
 21
8.27644
  0
LINE
  8
0
 10
25.3978
 20
8.27644
 11
25.4743
 21
7.89157
  0
LINE
  8
0
 10
25.4743
 20
7.89157
 11
25.5
 21
7.5
  0
LINE
  8
0
 10
25.5
 20
7.5
 11
25.4743
 21
7.10841
  0
LINE
  8
0
 10
25.4743
 20
7.10841
 11
25.3978
 21
6.72354
  0
LINE
  8
0
 10
25.3978
 20
6.72354
 11
25.2716
 21
6.35194
  0
LINE
  8
0
 10
25.2716
 20
6.35194
 11
25.0981
 21
6
  0
LINE
  8
0
 10
25.0981
 20
6
 11
24.8801
 21
5.67371
  0
LINE
  8
0
 10
24.8801
 20
5.67371
 11
24.6213
 21
5.37868
  0
LINE
  8
0
 10
24.6213
 20
5.37868
 11
24.3263
 21
5.11993
  0
LINE
  8
0
 10
24.3263
 20
5.11993
 11
24
 21
4.90192
  0
LINE
  8
0
 10
24
 20
4.90192
 11
23.648
 21
4.72835
  0
LINE
  8
0
 10
23.648
 20
4.72835
 11
23.2764
 21
4.60222
  0
LINE
  8
0
 10
23.2764
 20
4.60222
 11
22.8916
 21
4.52567
  0
LINE
  8
0
 10
22.8916
 20
4.52567
 11
22.5
 21
4.5
  0
LINE
  8
0
 10
22.5
 20
4.5
 11
22.1084
 21
4.52567
  0
LINE
  8
0
 10
7.10841
 20
4.52567
 11
6.72354
 21
4.60222
  0
LINE
  8
0
 10
6.72354
 20
4.60222
 11
6.35194
 21
4.72835
  0
LINE
  8
0
 10
6.35194
 20
4.72835
 11
6
 21
4.90192
  0
LINE
  8
0
 10
6
 20
4.90192
 11
5.67371
 21
5.11993
  0
LINE
  8
0
 10
5.67371
 20
5.11993
 11
5.37868
 21
5.37868
  0
LINE
  8
0
 10
5.37868
 20
5.37868
 11
5.11993
 21
5.67371
  0
LINE
  8
0
 10
5.11993
 20
5.67371
 11
4.90192
 21
6
  0
LINE
  8
0
 10
4.90192
 20
6
 11
4.72835
 21
6.35194
  0
LINE
  8
0
 10
4.72835
 20
6.35194
 11
4.60222
 21
6.72354
  0
LINE
  8
0
 10
4.60222
 20
6.72354
 11
4.52567
 21
7.10841
  0
LINE
  8
0
 10
4.52567
 20
7.10841
 11
4.5
 21
7.5
  0
LINE
  8
0
 10
4.5
 20
7.5
 11
4.52567
 21
7.89157
  0
LINE
  8
0
 10
4.52567
 20
7.89157
 11
4.60222
 21
8.27644
  0
LINE
  8
0
 10
4.60222
 20
8.27644
 11
4.72835
 21
8.64804
  0
LINE
  8
0
 10
4.72835
 20
8.64804
 11
4.90192
 21
9
  0
LINE
  8
0
 10
4.90192
 20
9
 11
5.11993
 21
9.32628
  0
LINE
  8
0
 10
5.11993
 20
9.32628
 11
5.37868
 21
9.62131
  0
LINE
  8
0
 10
5.37868
 20
9.62131
 11
5.67371
 21
9.88005
  0
LINE
  8
0
 10
5.67371
 20
9.88005
 11
6
 21
10.0981
  0
LINE
  8
0
 10
6
 20
10.0981
 11
6.35194
 21
10.2716
  0
LINE
  8
0
 10
6.35194
 20
10.2716
 11
6.72354
 21
10.3978
  0
LINE
  8
0
 10
6.72354
 20
10.3978
 11
7.10841
 21
10.4743
  0
LINE
  8
0
 10
7.10841
 20
10.4743
 11
7.5
 21
10.5
  0
LINE
  8
0
 10
7.5
 20
10.5
 11
7.89157
 21
10.4743
  0
LINE
  8
0
 10
7.89157
 20
10.4743
 11
8.27644
 21
10.3978
  0
LINE
  8
0
 10
8.27644
 20
10.3978
 11
8.64804
 21
10.2716
  0
LINE
  8
0
 10
8.64804
 20
10.2716
 11
9
 21
10.0981
  0
LINE
  8
0
 10
9
 20
10.0981
 11
9.32628
 21
9.88005
  0
LINE
  8
0
 10
9.32628
 20
9.88005
 11
9.62131
 21
9.62131
  0
LINE
  8
0
 10
9.62131
 20
9.62131
 11
9.88005
 21
9.32628
  0
LINE
  8
0
 10
9.88005
 20
9.32628
 11
10.0981
 21
9
  0
LINE
  8
0
 10
10.0981
 20
9
 11
10.2716
 21
8.64804
  0
LINE
  8
0
 10
10.2716
 20
8.64804
 11
10.3978
 21
8.27644
  0
LINE
  8
0
 10
10.3978
 20
8.27644
 11
10.4743
 21
7.89157
  0
LINE
  8
0
 10
10.4743
 20
7.89157
 11
10.5
 21
7.5
  0
LINE
  8
0
 10
10.5
 20
7.5
 11
10.4743
 21
7.10841
  0
LINE
  8
0
 10
10.4743
 20
7.10841
 11
10.3978
 21
6.72354
  0
LINE
  8
0
 10
10.3978
 20
6.72354
 11
10.2716
 21
6.35194
  0
LINE
  8
0
 10
10.2716
 20
6.35194
 11
10.0981
 21
6
  0
LINE
  8
0
 10
10.0981
 20
6
 11
9.88005
 21
5.67371
  0
LINE
  8
0
 10
9.88005
 20
5.67371
 11
9.62131
 21
5.37868
  0
LINE
  8
0
 10
9.62131
 20
5.37868
 11
9.32628
 21
5.11993
  0
LINE
  8
0
 10
9.32628
 20
5.11993
 11
9
 21
4.90192
  0
LINE
  8
0
 10
9
 20
4.90192
 11
8.64804
 21
4.72835
  0
LINE
  8
0
 10
8.64804
 20
4.72835
 11
8.27644
 21
4.60222
  0
LINE
  8
0
 10
8.27644
 20
4.60222
 11
7.89157
 21
4.52567
  0
LINE
  8
0
 10
7.89157
 20
4.52567
 11
7.5
 21
4.5
  0
LINE
  8
0
 10
7.5
 20
4.5
 11
7.10841
 21
4.52567
  0
LINE
  8
0
 10
337.108
 20
4.52567
 11
336.724
 21
4.60222
  0
LINE
  8
0
 10
336.724
 20
4.60222
 11
336.352
 21
4.72835
  0
LINE
  8
0
 10
336.352
 20
4.72835
 11
336
 21
4.90192
  0
LINE
  8
0
 10
336
 20
4.90192
 11
335.674
 21
5.11993
  0
LINE
  8
0
 10
335.674
 20
5.11993
 11
335.379
 21
5.37868
  0
LINE
  8
0
 10
335.379
 20
5.37868
 11
335.12
 21
5.67371
  0
LINE
  8
0
 10
335.12
 20
5.67371
 11
334.902
 21
6
  0
LINE
  8
0
 10
334.902
 20
6
 11
334.728
 21
6.35194
  0
LINE
  8
0
 10
334.728
 20
6.35194
 11
334.602
 21
6.72354
  0
LINE
  8
0
 10
334.602
 20
6.72354
 11
334.526
 21
7.10841
  0
LINE
  8
0
 10
334.526
 20
7.10841
 11
334.5
 21
7.5
  0
LINE
  8
0
 10
334.5
 20
7.5
 11
334.526
 21
7.89157
  0
LINE
  8
0
 10
334.526
 20
7.89157
 11
334.602
 21
8.27644
  0
LINE
  8
0
 10
334.602
 20
8.27644
 11
334.728
 21
8.64804
  0
LINE
  8
0
 10
334.728
 20
8.64804
 11
334.902
 21
9
  0
LINE
  8
0
 10
334.902
 20
9
 11
335.12
 21
9.32628
  0
LINE
  8
0
 10
335.12
 20
9.32628
 11
335.379
 21
9.62131
  0
LINE
  8
0
 10
335.379
 20
9.62131
 11
335.674
 21
9.88005
  0
LINE
  8
0
 10
335.674
 20
9.88005
 11
336
 21
10.0981
  0
LINE
  8
0
 10
336
 20
10.0981
 11
336.352
 21
10.2716
  0
LINE
  8
0
 10
336.352
 20
10.2716
 11
336.724
 21
10.3978
  0
LINE
  8
0
 10
336.724
 20
10.3978
 11
337.108
 21
10.4743
  0
LINE
  8
0
 10
337.108
 20
10.4743
 11
337.5
 21
10.5
  0
LINE
  8
0
 10
337.5
 20
10.5
 11
337.892
 21
10.4743
  0
LINE
  8
0
 10
337.892
 20
10.4743
 11
338.276
 21
10.3978
  0
LINE
  8
0
 10
338.276
 20
10.3978
 11
338.648
 21
10.2716
  0
LINE
  8
0
 10
338.648
 20
10.2716
 11
339
 21
10.0981
  0
LINE
  8
0
 10
339
 20
10.0981
 11
339.326
 21
9.88005
  0
LINE
  8
0
 10
339.326
 20
9.88005
 11
339.621
 21
9.62131
  0
LINE
  8
0
 10
339.621
 20
9.62131
 11
339.88
 21
9.32628
  0
LINE
  8
0
 10
339.88
 20
9.32628
 11
340.098
 21
9
  0
LINE
  8
0
 10
340.098
 20
9
 11
340.272
 21
8.64804
  0
LINE
  8
0
 10
340.272
 20
8.64804
 11
340.398
 21
8.27644
  0
LINE
  8
0
 10
340.398
 20
8.27644
 11
340.474
 21
7.89157
  0
LINE
  8
0
 10
340.474
 20
7.89157
 11
340.5
 21
7.5
  0
LINE
  8
0
 10
340.5
 20
7.5
 11
340.474
 21
7.10841
  0
LINE
  8
0
 10
340.474
 20
7.10841
 11
340.398
 21
6.72354
  0
LINE
  8
0
 10
340.398
 20
6.72354
 11
340.272
 21
6.35194
  0
LINE
  8
0
 10
340.272
 20
6.35194
 11
340.098
 21
6
  0
LINE
  8
0
 10
340.098
 20
6
 11
339.88
 21
5.67371
  0
LINE
  8
0
 10
339.88
 20
5.67371
 11
339.621
 21
5.37868
  0
LINE
  8
0
 10
339.621
 20
5.37868
 11
339.326
 21
5.11993
  0
LINE
  8
0
 10
339.326
 20
5.11993
 11
339
 21
4.90192
  0
LINE
  8
0
 10
339
 20
4.90192
 11
338.648
 21
4.72835
  0
LINE
  8
0
 10
338.648
 20
4.72835
 11
338.276
 21
4.60222
  0
LINE
  8
0
 10
338.276
 20
4.60222
 11
337.892
 21
4.52567
  0
LINE
  8
0
 10
337.892
 20
4.52567
 11
337.5
 21
4.5
  0
LINE
  8
0
 10
337.5
 20
4.5
 11
337.108
 21
4.52567
  0
ENDSEC
  0
SECTION
  2
OBJECTS
  0
DICTIONARY
  0
ENDSEC
  0
EOF
