<?xml version="1.0" standalone="no"?>
<!DOCTYPE svg PUBLIC "-//W3C//DTD SVG 1.1//EN" "http://www.w3.org/Graphics/SVG/1.1/DTD/svg11.dtd">
<svg width="373mm" height="13mm" viewBox="1 -14 373 13" xmlns="http://www.w3.org/2000/svg" version="1.1">
<title>OpenSCAD Model</title>
<path d="
M 369.158,-1.53778 L 369.799,-1.66537 L 370.418,-1.87561 L 371.005,-2.16489 L 371.549,-2.52824 L 372.041,-2.95947
 L 372.472,-3.4512 L 372.835,-3.99501 L 373.124,-4.58159 L 373.335,-5.20091 L 373.462,-5.84238 L 373.505,-6.49501
 L 373.505,-8.50499 L 373.462,-9.15762 L 373.335,-9.79909 L 373.124,-10.4184 L 372.835,-11.005 L 372.472,-11.5488
 L 372.041,-12.0405 L 371.549,-12.4718 L 371.005,-12.8351 L 370.418,-13.1244 L 369.799,-13.3346 L 369.158,-13.4622
 L 368.505,-13.505 L 6.49501,-13.505 L 5.84238,-13.4622 L 5.20091,-13.3346 L 4.58159,-13.1244 L 3.99501,-12.8351
 L 3.4512,-12.4718 L 2.95947,-12.0405 L 2.52824,-11.5488 L 2.16489,-11.005 L 1.87561,-10.4184 L 1.66537,-9.79909
 L 1.53778,-9.15762 L 1.49501,-8.50499 L 1.49501,-6.49501 L 1.53778,-5.84238 L 1.66537,-5.20091 L 1.87561,-4.58159
 L 2.16489,-3.99501 L 2.52824,-3.4512 L 2.95947,-2.95947 L 3.4512,-2.52824 L 3.99501,-2.16489 L 4.58159,-1.87561
 L 5.20091,-1.66537 L 5.84238,-1.53778 L 6.49501,-1.49501 L 368.505,-1.49501 z
M 52.0758,-4.2778 L 51.6588,-4.36073 L 51.2563,-4.49739 L 50.875,-4.68541 L 50.5215,-4.9216 L 50.2019,-5.20189
 L 49.9216,-5.52151 L 49.6854,-5.875 L 49.4974,-6.25627 L 49.3607,-6.65883 L 49.2778,-7.07578 L 49.25,-7.5
 L 49.2778,-7.92421 L 49.3607,-8.34116 L 49.4974,-8.74371 L 49.6854,-9.125 L 49.9216,-9.47847 L 50.2019,-9.7981
 L 50.5215,-10.0784 L 50.875,-10.3146 L 51.2563,-10.5026 L 51.6588,-10.6393 L 52.0758,-10.7222 L 52.5,-10.75
 L 52.9242,-10.7222 L 53.3412,-10.6393 L 53.7437,-10.5026 L 54.125,-10.3146 L 54.4785,-10.0784 L 54.7981,-9.7981
 L 55.0784,-9.47847 L 55.3146,-9.125 L 55.5026,-8.74371 L 55.6393,-8.34116 L 55.7222,-7.92421 L 55.75,-7.5
 L 55.7222,-7.07578 L 55.6393,-6.65883 L 55.5026,-6.25627 L 55.3146,-5.875 L 55.0784,-5.52151 L 54.7981,-5.20189
 L 54.4785,-4.9216 L 54.125,-4.68541 L 53.7437,-4.49739 L 53.3412,-4.36073 L 52.9242,-4.2778 L 52.5,-4.25
 z
M 127.076,-4.2778 L 126.659,-4.36073 L 126.256,-4.49739 L 125.875,-4.68541 L 125.522,-4.9216 L 125.202,-5.20189
 L 124.922,-5.52151 L 124.685,-5.875 L 124.497,-6.25627 L 124.361,-6.65883 L 124.278,-7.07578 L 124.25,-7.5
 L 124.278,-7.92421 L 124.361,-8.34116 L 124.497,-8.74371 L 124.685,-9.125 L 124.922,-9.47847 L 125.202,-9.7981
 L 125.522,-10.0784 L 125.875,-10.3146 L 126.256,-10.5026 L 126.659,-10.6393 L 127.076,-10.7222 L 127.5,-10.75
 L 127.924,-10.7222 L 128.341,-10.6393 L 128.744,-10.5026 L 129.125,-10.3146 L 129.478,-10.0784 L 129.798,-9.7981
 L 130.078,-9.47847 L 130.315,-9.125 L 130.503,-8.74371 L 130.639,-8.34116 L 130.722,-7.92421 L 130.75,-7.5
 L 130.722,-7.07578 L 130.639,-6.65883 L 130.503,-6.25627 L 130.315,-5.875 L 130.078,-5.52151 L 129.798,-5.20189
 L 129.478,-4.9216 L 129.125,-4.68541 L 128.744,-4.49739 L 128.341,-4.36073 L 127.924,-4.2778 L 127.5,-4.25
 z
M 112.076,-4.2778 L 111.659,-4.36073 L 111.256,-4.49739 L 110.875,-4.68541 L 110.522,-4.9216 L 110.202,-5.20189
 L 109.922,-5.52151 L 109.685,-5.875 L 109.497,-6.25627 L 109.361,-6.65883 L 109.278,-7.07578 L 109.25,-7.5
 L 109.278,-7.92421 L 109.361,-8.34116 L 109.497,-8.74371 L 109.685,-9.125 L 109.922,-9.47847 L 110.202,-9.7981
 L 110.522,-10.0784 L 110.875,-10.3146 L 111.256,-10.5026 L 111.659,-10.6393 L 112.076,-10.7222 L 112.5,-10.75
 L 112.924,-10.7222 L 113.341,-10.6393 L 113.744,-10.5026 L 114.125,-10.3146 L 114.478,-10.0784 L 114.798,-9.7981
 L 115.078,-9.47847 L 115.315,-9.125 L 115.503,-8.74371 L 115.639,-8.34116 L 115.722,-7.92421 L 115.75,-7.5
 L 115.722,-7.07578 L 115.639,-6.65883 L 115.503,-6.25627 L 115.315,-5.875 L 115.078,-5.52151 L 114.798,-5.20189
 L 114.478,-4.9216 L 114.125,-4.68541 L 113.744,-4.49739 L 113.341,-4.36073 L 112.924,-4.2778 L 112.5,-4.25
 z
M 187.076,-4.2778 L 186.659,-4.36073 L 186.256,-4.49739 L 185.875,-4.68541 L 185.522,-4.9216 L 185.202,-5.20189
 L 184.922,-5.52151 L 184.685,-5.875 L 184.497,-6.25627 L 184.361,-6.65883 L 184.278,-7.07578 L 184.25,-7.5
 L 184.278,-7.92421 L 184.361,-8.34116 L 184.497,-8.74371 L 184.685,-9.125 L 184.922,-9.47847 L 185.202,-9.7981
 L 185.522,-10.0784 L 185.875,-10.3146 L 186.256,-10.5026 L 186.659,-10.6393 L 187.076,-10.7222 L 187.5,-10.75
 L 187.924,-10.7222 L 188.341,-10.6393 L 188.744,-10.5026 L 189.125,-10.3146 L 189.478,-10.0784 L 189.798,-9.7981
 L 190.078,-9.47847 L 190.315,-9.125 L 190.503,-8.74371 L 190.639,-8.34116 L 190.722,-7.92421 L 190.75,-7.5
 L 190.722,-7.07578 L 190.639,-6.65883 L 190.503,-6.25627 L 190.315,-5.875 L 190.078,-5.52151 L 189.798,-5.20189
 L 189.478,-4.9216 L 189.125,-4.68541 L 188.744,-4.49739 L 188.341,-4.36073 L 187.924,-4.2778 L 187.5,-4.25
 z
M 142.076,-4.2778 L 141.659,-4.36073 L 141.256,-4.49739 L 140.875,-4.68541 L 140.522,-4.9216 L 140.202,-5.20189
 L 139.922,-5.52151 L 139.685,-5.875 L 139.497,-6.25627 L 139.361,-6.65883 L 139.278,-7.07578 L 139.25,-7.5
 L 139.278,-7.92421 L 139.361,-8.34116 L 139.497,-8.74371 L 139.685,-9.125 L 139.922,-9.47847 L 140.202,-9.7981
 L 140.522,-10.0784 L 140.875,-10.3146 L 141.256,-10.5026 L 141.659,-10.6393 L 142.076,-10.7222 L 142.5,-10.75
 L 142.924,-10.7222 L 143.341,-10.6393 L 143.744,-10.5026 L 144.125,-10.3146 L 144.478,-10.0784 L 144.798,-9.7981
 L 145.078,-9.47847 L 145.315,-9.125 L 145.503,-8.74371 L 145.639,-8.34116 L 145.722,-7.92421 L 145.75,-7.5
 L 145.722,-7.07578 L 145.639,-6.65883 L 145.503,-6.25627 L 145.315,-5.875 L 145.078,-5.52151 L 144.798,-5.20189
 L 144.478,-4.9216 L 144.125,-4.68541 L 143.744,-4.49739 L 143.341,-4.36073 L 142.924,-4.2778 L 142.5,-4.25
 z
M 202.076,-4.2778 L 201.659,-4.36073 L 201.256,-4.49739 L 200.875,-4.68541 L 200.522,-4.9216 L 200.202,-5.20189
 L 199.922,-5.52151 L 199.685,-5.875 L 199.497,-6.25627 L 199.361,-6.65883 L 199.278,-7.07578 L 199.25,-7.5
 L 199.278,-7.92421 L 199.361,-8.34116 L 199.497,-8.74371 L 199.685,-9.125 L 199.922,-9.47847 L 200.202,-9.7981
 L 200.522,-10.0784 L 200.875,-10.3146 L 201.256,-10.5026 L 201.659,-10.6393 L 202.076,-10.7222 L 202.5,-10.75
 L 202.924,-10.7222 L 203.341,-10.6393 L 203.744,-10.5026 L 204.125,-10.3146 L 204.478,-10.0784 L 204.798,-9.7981
 L 205.078,-9.47847 L 205.315,-9.125 L 205.503,-8.74371 L 205.639,-8.34116 L 205.722,-7.92421 L 205.75,-7.5
 L 205.722,-7.07578 L 205.639,-6.65883 L 205.503,-6.25627 L 205.315,-5.875 L 205.078,-5.52151 L 204.798,-5.20189
 L 204.478,-4.9216 L 204.125,-4.68541 L 203.744,-4.49739 L 203.341,-4.36073 L 202.924,-4.2778 L 202.5,-4.25
 z
M 232.076,-4.2778 L 231.659,-4.36073 L 231.256,-4.49739 L 230.875,-4.68541 L 230.522,-4.9216 L 230.202,-5.20189
 L 229.922,-5.52151 L 229.685,-5.875 L 229.497,-6.25627 L 229.361,-6.65883 L 229.278,-7.07578 L 229.25,-7.5
 L 229.278,-7.92421 L 229.361,-8.34116 L 229.497,-8.74371 L 229.685,-9.125 L 229.922,-9.47847 L 230.202,-9.7981
 L 230.522,-10.0784 L 230.875,-10.3146 L 231.256,-10.5026 L 231.659,-10.6393 L 232.076,-10.7222 L 232.5,-10.75
 L 232.924,-10.7222 L 233.341,-10.6393 L 233.744,-10.5026 L 234.125,-10.3146 L 234.478,-10.0784 L 234.798,-9.7981
 L 235.078,-9.47847 L 235.315,-9.125 L 235.503,-8.74371 L 235.639,-8.34116 L 235.722,-7.92421 L 235.75,-7.5
 L 235.722,-7.07578 L 235.639,-6.65883 L 235.503,-6.25627 L 235.315,-5.875 L 235.078,-5.52151 L 234.798,-5.20189
 L 234.478,-4.9216 L 234.125,-4.68541 L 233.744,-4.49739 L 233.341,-4.36073 L 232.924,-4.2778 L 232.5,-4.25
 z
M 247.076,-4.2778 L 246.659,-4.36073 L 246.256,-4.49739 L 245.875,-4.68541 L 245.522,-4.9216 L 245.202,-5.20189
 L 244.922,-5.52151 L 244.685,-5.875 L 244.497,-6.25627 L 244.361,-6.65883 L 244.278,-7.07578 L 244.25,-7.5
 L 244.278,-7.92421 L 244.361,-8.34116 L 244.497,-8.74371 L 244.685,-9.125 L 244.922,-9.47847 L 245.202,-9.7981
 L 245.522,-10.0784 L 245.875,-10.3146 L 246.256,-10.5026 L 246.659,-10.6393 L 247.076,-10.7222 L 247.5,-10.75
 L 247.924,-10.7222 L 248.341,-10.6393 L 248.744,-10.5026 L 249.125,-10.3146 L 249.478,-10.0784 L 249.798,-9.7981
 L 250.078,-9.47847 L 250.315,-9.125 L 250.503,-8.74371 L 250.639,-8.34116 L 250.722,-7.92421 L 250.75,-7.5
 L 250.722,-7.07578 L 250.639,-6.65883 L 250.503,-6.25627 L 250.315,-5.875 L 250.078,-5.52151 L 249.798,-5.20189
 L 249.478,-4.9216 L 249.125,-4.68541 L 248.744,-4.49739 L 248.341,-4.36073 L 247.924,-4.2778 L 247.5,-4.25
 z
M 277.076,-4.2778 L 276.659,-4.36073 L 276.256,-4.49739 L 275.875,-4.68541 L 275.522,-4.9216 L 275.202,-5.20189
 L 274.922,-5.52151 L 274.685,-5.875 L 274.497,-6.25627 L 274.361,-6.65883 L 274.278,-7.07578 L 274.25,-7.5
 L 274.278,-7.92421 L 274.361,-8.34116 L 274.497,-8.74371 L 274.685,-9.125 L 274.922,-9.47847 L 275.202,-9.7981
 L 275.522,-10.0784 L 275.875,-10.3146 L 276.256,-10.5026 L 276.659,-10.6393 L 277.076,-10.7222 L 277.5,-10.75
 L 277.924,-10.7222 L 278.341,-10.6393 L 278.744,-10.5026 L 279.125,-10.3146 L 279.478,-10.0784 L 279.798,-9.7981
 L 280.078,-9.47847 L 280.315,-9.125 L 280.503,-8.74371 L 280.639,-8.34116 L 280.722,-7.92421 L 280.75,-7.5
 L 280.722,-7.07578 L 280.639,-6.65883 L 280.503,-6.25627 L 280.315,-5.875 L 280.078,-5.52151 L 279.798,-5.20189
 L 279.478,-4.9216 L 279.125,-4.68541 L 278.744,-4.49739 L 278.341,-4.36073 L 277.924,-4.2778 L 277.5,-4.25
 z
M 217.076,-4.2778 L 216.659,-4.36073 L 216.256,-4.49739 L 215.875,-4.68541 L 215.522,-4.9216 L 215.202,-5.20189
 L 214.922,-5.52151 L 214.685,-5.875 L 214.497,-6.25627 L 214.361,-6.65883 L 214.278,-7.07578 L 214.25,-7.5
 L 214.278,-7.92421 L 214.361,-8.34116 L 214.497,-8.74371 L 214.685,-9.125 L 214.922,-9.47847 L 215.202,-9.7981
 L 215.522,-10.0784 L 215.875,-10.3146 L 216.256,-10.5026 L 216.659,-10.6393 L 217.076,-10.7222 L 217.5,-10.75
 L 217.924,-10.7222 L 218.341,-10.6393 L 218.744,-10.5026 L 219.125,-10.3146 L 219.478,-10.0784 L 219.798,-9.7981
 L 220.078,-9.47847 L 220.315,-9.125 L 220.503,-8.74371 L 220.639,-8.34116 L 220.722,-7.92421 L 220.75,-7.5
 L 220.722,-7.07578 L 220.639,-6.65883 L 220.503,-6.25627 L 220.315,-5.875 L 220.078,-5.52151 L 219.798,-5.20189
 L 219.478,-4.9216 L 219.125,-4.68541 L 218.744,-4.49739 L 218.341,-4.36073 L 217.924,-4.2778 L 217.5,-4.25
 z
M 292.076,-4.2778 L 291.659,-4.36073 L 291.256,-4.49739 L 290.875,-4.68541 L 290.522,-4.9216 L 290.202,-5.20189
 L 289.922,-5.52151 L 289.685,-5.875 L 289.497,-6.25627 L 289.361,-6.65883 L 289.278,-7.07578 L 289.25,-7.5
 L 289.278,-7.92421 L 289.361,-8.34116 L 289.497,-8.74371 L 289.685,-9.125 L 289.922,-9.47847 L 290.202,-9.7981
 L 290.522,-10.0784 L 290.875,-10.3146 L 291.256,-10.5026 L 291.659,-10.6393 L 292.076,-10.7222 L 292.5,-10.75
 L 292.924,-10.7222 L 293.341,-10.6393 L 293.744,-10.5026 L 294.125,-10.3146 L 294.478,-10.0784 L 294.798,-9.7981
 L 295.078,-9.47847 L 295.315,-9.125 L 295.503,-8.74371 L 295.639,-8.34116 L 295.722,-7.92421 L 295.75,-7.5
 L 295.722,-7.07578 L 295.639,-6.65883 L 295.503,-6.25627 L 295.315,-5.875 L 295.078,-5.52151 L 294.798,-5.20189
 L 294.478,-4.9216 L 294.125,-4.68541 L 293.744,-4.49739 L 293.341,-4.36073 L 292.924,-4.2778 L 292.5,-4.25
 z
M 262.076,-4.2778 L 261.659,-4.36073 L 261.256,-4.49739 L 260.875,-4.68541 L 260.522,-4.9216 L 260.202,-5.20189
 L 259.922,-5.52151 L 259.685,-5.875 L 259.497,-6.25627 L 259.361,-6.65883 L 259.278,-7.07578 L 259.25,-7.5
 L 259.278,-7.92421 L 259.361,-8.34116 L 259.497,-8.74371 L 259.685,-9.125 L 259.922,-9.47847 L 260.202,-9.7981
 L 260.522,-10.0784 L 260.875,-10.3146 L 261.256,-10.5026 L 261.659,-10.6393 L 262.076,-10.7222 L 262.5,-10.75
 L 262.924,-10.7222 L 263.341,-10.6393 L 263.744,-10.5026 L 264.125,-10.3146 L 264.478,-10.0784 L 264.798,-9.7981
 L 265.078,-9.47847 L 265.315,-9.125 L 265.503,-8.74371 L 265.639,-8.34116 L 265.722,-7.92421 L 265.75,-7.5
 L 265.722,-7.07578 L 265.639,-6.65883 L 265.503,-6.25627 L 265.315,-5.875 L 265.078,-5.52151 L 264.798,-5.20189
 L 264.478,-4.9216 L 264.125,-4.68541 L 263.744,-4.49739 L 263.341,-4.36073 L 262.924,-4.2778 L 262.5,-4.25
 z
M 307.076,-4.2778 L 306.659,-4.36073 L 306.256,-4.49739 L 305.875,-4.68541 L 305.522,-4.9216 L 305.202,-5.20189
 L 304.922,-5.52151 L 304.685,-5.875 L 304.497,-6.25627 L 304.361,-6.65883 L 304.278,-7.07578 L 304.25,-7.5
 L 304.278,-7.92421 L 304.361,-8.34116 L 304.497,-8.74371 L 304.685,-9.125 L 304.922,-9.47847 L 305.202,-9.7981
 L 305.522,-10.0784 L 305.875,-10.3146 L 306.256,-10.5026 L 306.659,-10.6393 L 307.076,-10.7222 L 307.5,-10.75
 L 307.924,-10.7222 L 308.341,-10.6393 L 308.744,-10.5026 L 309.125,-10.3146 L 309.478,-10.0784 L 309.798,-9.7981
 L 310.078,-9.47847 L 310.315,-9.125 L 310.503,-8.74371 L 310.639,-8.34116 L 310.722,-7.92421 L 310.75,-7.5
 L 310.722,-7.07578 L 310.639,-6.65883 L 310.503,-6.25627 L 310.315,-5.875 L 310.078,-5.52151 L 309.798,-5.20189
 L 309.478,-4.9216 L 309.125,-4.68541 L 308.744,-4.49739 L 308.341,-4.36073 L 307.924,-4.2778 L 307.5,-4.25
 z
M 68.3412,-10.6393 L 68.7437,-10.5026 L 69.125,-10.3146 L 69.4785,-10.0784 L 69.7981,-9.7981 L 70.0784,-9.47847
 L 70.3146,-9.125 L 70.5026,-8.74371 L 70.6393,-8.34116 L 70.7222,-7.92421 L 70.75,-7.5 L 70.7222,-7.07578
 L 70.6393,-6.65883 L 70.5026,-6.25627 L 70.3146,-5.875 L 70.0784,-5.52151 L 69.7981,-5.20189 L 69.4785,-4.9216
 L 69.125,-4.68541 L 68.7437,-4.49739 L 68.3412,-4.36073 L 67.9242,-4.2778 L 67.5,-4.25 L 67.0758,-4.2778
 L 66.6588,-4.36073 L 66.2563,-4.49739 L 65.875,-4.68541 L 65.5215,-4.9216 L 65.2019,-5.20189 L 64.9216,-5.52151
 L 64.6854,-5.875 L 64.4974,-6.25627 L 64.3607,-6.65883 L 64.2778,-7.07578 L 64.25,-7.5 L 64.2778,-7.92421
 L 64.3607,-8.34116 L 64.4974,-8.74371 L 64.6854,-9.125 L 64.9216,-9.47847 L 65.2019,-9.7981 L 65.5215,-10.0784
 L 65.875,-10.3146 L 66.2563,-10.5026 L 66.6588,-10.6393 L 67.0758,-10.7222 L 67.5,-10.75 L 67.9242,-10.7222
 z
M 97.0758,-4.2778 L 96.6588,-4.36073 L 96.2563,-4.49739 L 95.875,-4.68541 L 95.5215,-4.9216 L 95.2019,-5.20189
 L 94.9216,-5.52151 L 94.6854,-5.875 L 94.4974,-6.25627 L 94.3607,-6.65883 L 94.2778,-7.07578 L 94.25,-7.5
 L 94.2778,-7.92421 L 94.3607,-8.34116 L 94.4974,-8.74371 L 94.6854,-9.125 L 94.9216,-9.47847 L 95.2019,-9.7981
 L 95.5215,-10.0784 L 95.875,-10.3146 L 96.2563,-10.5026 L 96.6588,-10.6393 L 97.0758,-10.7222 L 97.5,-10.75
 L 97.9242,-10.7222 L 98.3412,-10.6393 L 98.7437,-10.5026 L 99.125,-10.3146 L 99.4785,-10.0784 L 99.7981,-9.7981
 L 100.078,-9.47847 L 100.315,-9.125 L 100.503,-8.74371 L 100.639,-8.34116 L 100.722,-7.92421 L 100.75,-7.5
 L 100.722,-7.07578 L 100.639,-6.65883 L 100.503,-6.25627 L 100.315,-5.875 L 100.078,-5.52151 L 99.7981,-5.20189
 L 99.4785,-4.9216 L 99.125,-4.68541 L 98.7437,-4.49739 L 98.3412,-4.36073 L 97.9242,-4.2778 L 97.5,-4.25
 z
M 172.076,-4.2778 L 171.659,-4.36073 L 171.256,-4.49739 L 170.875,-4.68541 L 170.522,-4.9216 L 170.202,-5.20189
 L 169.922,-5.52151 L 169.685,-5.875 L 169.497,-6.25627 L 169.361,-6.65883 L 169.278,-7.07578 L 169.25,-7.5
 L 169.278,-7.92421 L 169.361,-8.34116 L 169.497,-8.74371 L 169.685,-9.125 L 169.922,-9.47847 L 170.202,-9.7981
 L 170.522,-10.0784 L 170.875,-10.3146 L 171.256,-10.5026 L 171.659,-10.6393 L 172.076,-10.7222 L 172.5,-10.75
 L 172.924,-10.7222 L 173.341,-10.6393 L 173.744,-10.5026 L 174.125,-10.3146 L 174.478,-10.0784 L 174.798,-9.7981
 L 175.078,-9.47847 L 175.315,-9.125 L 175.503,-8.74371 L 175.639,-8.34116 L 175.722,-7.92421 L 175.75,-7.5
 L 175.722,-7.07578 L 175.639,-6.65883 L 175.503,-6.25627 L 175.315,-5.875 L 175.078,-5.52151 L 174.798,-5.20189
 L 174.478,-4.9216 L 174.125,-4.68541 L 173.744,-4.49739 L 173.341,-4.36073 L 172.924,-4.2778 L 172.5,-4.25
 z
M 157.076,-4.2778 L 156.659,-4.36073 L 156.256,-4.49739 L 155.875,-4.68541 L 155.522,-4.9216 L 155.202,-5.20189
 L 154.922,-5.52151 L 154.685,-5.875 L 154.497,-6.25627 L 154.361,-6.65883 L 154.278,-7.07578 L 154.25,-7.5
 L 154.278,-7.92421 L 154.361,-8.34116 L 154.497,-8.74371 L 154.685,-9.125 L 154.922,-9.47847 L 155.202,-9.7981
 L 155.522,-10.0784 L 155.875,-10.3146 L 156.256,-10.5026 L 156.659,-10.6393 L 157.076,-10.7222 L 157.5,-10.75
 L 157.924,-10.7222 L 158.341,-10.6393 L 158.744,-10.5026 L 159.125,-10.3146 L 159.478,-10.0784 L 159.798,-9.7981
 L 160.078,-9.47847 L 160.315,-9.125 L 160.503,-8.74371 L 160.639,-8.34116 L 160.722,-7.92421 L 160.75,-7.5
 L 160.722,-7.07578 L 160.639,-6.65883 L 160.503,-6.25627 L 160.315,-5.875 L 160.078,-5.52151 L 159.798,-5.20189
 L 159.478,-4.9216 L 159.125,-4.68541 L 158.744,-4.49739 L 158.341,-4.36073 L 157.924,-4.2778 L 157.5,-4.25
 z
M 37.0758,-4.2778 L 36.6588,-4.36073 L 36.2563,-4.49739 L 35.875,-4.68541 L 35.5215,-4.9216 L 35.2019,-5.20189
 L 34.9216,-5.52151 L 34.6854,-5.875 L 34.4974,-6.25627 L 34.3607,-6.65883 L 34.2778,-7.07578 L 34.25,-7.5
 L 34.2778,-7.92421 L 34.3607,-8.34116 L 34.4974,-8.74371 L 34.6854,-9.125 L 34.9216,-9.47847 L 35.2019,-9.7981
 L 35.5215,-10.0784 L 35.875,-10.3146 L 36.2563,-10.5026 L 36.6588,-10.6393 L 37.0758,-10.7222 L 37.5,-10.75
 L 37.9242,-10.7222 L 38.3412,-10.6393 L 38.7437,-10.5026 L 39.125,-10.3146 L 39.4785,-10.0784 L 39.7981,-9.7981
 L 40.0784,-9.47847 L 40.3146,-9.125 L 40.5026,-8.74371 L 40.6393,-8.34116 L 40.7222,-7.92421 L 40.75,-7.5
 L 40.7222,-7.07578 L 40.6393,-6.65883 L 40.5026,-6.25627 L 40.3146,-5.875 L 40.0784,-5.52151 L 39.7981,-5.20189
 L 39.4785,-4.9216 L 39.125,-4.68541 L 38.7437,-4.49739 L 38.3412,-4.36073 L 37.9242,-4.2778 L 37.5,-4.25
 z
M 367.076,-4.2778 L 366.659,-4.36073 L 366.256,-4.49739 L 365.875,-4.68541 L 365.522,-4.9216 L 365.202,-5.20189
 L 364.922,-5.52151 L 364.685,-5.875 L 364.497,-6.25627 L 364.361,-6.65883 L 364.278,-7.07578 L 364.25,-7.5
 L 364.278,-7.92421 L 364.361,-8.34116 L 364.497,-8.74371 L 364.685,-9.125 L 364.922,-9.47847 L 365.202,-9.7981
 L 365.522,-10.0784 L 365.875,-10.3146 L 366.256,-10.5026 L 366.659,-10.6393 L 367.076,-10.7222 L 367.5,-10.75
 L 367.924,-10.7222 L 368.341,-10.6393 L 368.744,-10.5026 L 369.125,-10.3146 L 369.478,-10.0784 L 369.798,-9.7981
 L 370.078,-9.47847 L 370.315,-9.125 L 370.503,-8.74371 L 370.639,-8.34116 L 370.722,-7.92421 L 370.75,-7.5
 L 370.722,-7.07578 L 370.639,-6.65883 L 370.503,-6.25627 L 370.315,-5.875 L 370.078,-5.52151 L 369.798,-5.20189
 L 369.478,-4.9216 L 369.125,-4.68541 L 368.744,-4.49739 L 368.341,-4.36073 L 367.924,-4.2778 L 367.5,-4.25
 z
M 352.076,-4.2778 L 351.659,-4.36073 L 351.256,-4.49739 L 350.875,-4.68541 L 350.522,-4.9216 L 350.202,-5.20189
 L 349.922,-5.52151 L 349.685,-5.875 L 349.497,-6.25627 L 349.361,-6.65883 L 349.278,-7.07578 L 349.25,-7.5
 L 349.278,-7.92421 L 349.361,-8.34116 L 349.497,-8.74371 L 349.685,-9.125 L 349.922,-9.47847 L 350.202,-9.7981
 L 350.522,-10.0784 L 350.875,-10.3146 L 351.256,-10.5026 L 351.659,-10.6393 L 352.076,-10.7222 L 352.5,-10.75
 L 352.924,-10.7222 L 353.341,-10.6393 L 353.744,-10.5026 L 354.125,-10.3146 L 354.478,-10.0784 L 354.798,-9.7981
 L 355.078,-9.47847 L 355.315,-9.125 L 355.503,-8.74371 L 355.639,-8.34116 L 355.722,-7.92421 L 355.75,-7.5
 L 355.722,-7.07578 L 355.639,-6.65883 L 355.503,-6.25627 L 355.315,-5.875 L 355.078,-5.52151 L 354.798,-5.20189
 L 354.478,-4.9216 L 354.125,-4.68541 L 353.744,-4.49739 L 353.341,-4.36073 L 352.924,-4.2778 L 352.5,-4.25
 z
M 22.0758,-4.2778 L 21.6588,-4.36073 L 21.2563,-4.49739 L 20.875,-4.68541 L 20.5215,-4.9216 L 20.2019,-5.20189
 L 19.9216,-5.52151 L 19.6854,-5.875 L 19.4974,-6.25627 L 19.3607,-6.65883 L 19.2778,-7.07578 L 19.25,-7.5
 L 19.2778,-7.92421 L 19.3607,-8.34116 L 19.4974,-8.74371 L 19.6854,-9.125 L 19.9216,-9.47847 L 20.2019,-9.7981
 L 20.5215,-10.0784 L 20.875,-10.3146 L 21.2563,-10.5026 L 21.6588,-10.6393 L 22.0758,-10.7222 L 22.5,-10.75
 L 22.9242,-10.7222 L 23.3412,-10.6393 L 23.7437,-10.5026 L 24.125,-10.3146 L 24.4785,-10.0784 L 24.7981,-9.7981
 L 25.0784,-9.47847 L 25.3146,-9.125 L 25.5026,-8.74371 L 25.6393,-8.34116 L 25.7222,-7.92421 L 25.75,-7.5
 L 25.7222,-7.07578 L 25.6393,-6.65883 L 25.5026,-6.25627 L 25.3146,-5.875 L 25.0784,-5.52151 L 24.7981,-5.20189
 L 24.4785,-4.9216 L 24.125,-4.68541 L 23.7437,-4.49739 L 23.3412,-4.36073 L 22.9242,-4.2778 L 22.5,-4.25
 z
M 7.07578,-4.2778 L 6.65883,-4.36073 L 6.25627,-4.49739 L 5.875,-4.68541 L 5.52151,-4.9216 L 5.20189,-5.20189
 L 4.9216,-5.52151 L 4.68541,-5.875 L 4.49739,-6.25627 L 4.36073,-6.65883 L 4.2778,-7.07578 L 4.25,-7.5
 L 4.2778,-7.92421 L 4.36073,-8.34116 L 4.49739,-8.74371 L 4.68541,-9.125 L 4.9216,-9.47847 L 5.20189,-9.7981
 L 5.52151,-10.0784 L 5.875,-10.3146 L 6.25627,-10.5026 L 6.65883,-10.6393 L 7.07578,-10.7222 L 7.5,-10.75
 L 7.92421,-10.7222 L 8.34116,-10.6393 L 8.74371,-10.5026 L 9.125,-10.3146 L 9.47847,-10.0784 L 9.7981,-9.7981
 L 10.0784,-9.47847 L 10.3146,-9.125 L 10.5026,-8.74371 L 10.6393,-8.34116 L 10.7222,-7.92421 L 10.75,-7.5
 L 10.7222,-7.07578 L 10.6393,-6.65883 L 10.5026,-6.25627 L 10.3146,-5.875 L 10.0784,-5.52151 L 9.7981,-5.20189
 L 9.47847,-4.9216 L 9.125,-4.68541 L 8.74371,-4.49739 L 8.34116,-4.36073 L 7.92421,-4.2778 L 7.5,-4.25
 z
M 322.076,-4.2778 L 321.659,-4.36073 L 321.256,-4.49739 L 320.875,-4.68541 L 320.522,-4.9216 L 320.202,-5.20189
 L 319.922,-5.52151 L 319.685,-5.875 L 319.497,-6.25627 L 319.361,-6.65883 L 319.278,-7.07578 L 319.25,-7.5
 L 319.278,-7.92421 L 319.361,-8.34116 L 319.497,-8.74371 L 319.685,-9.125 L 319.922,-9.47847 L 320.202,-9.7981
 L 320.522,-10.0784 L 320.875,-10.3146 L 321.256,-10.5026 L 321.659,-10.6393 L 322.076,-10.7222 L 322.5,-10.75
 L 322.924,-10.7222 L 323.341,-10.6393 L 323.744,-10.5026 L 324.125,-10.3146 L 324.478,-10.0784 L 324.798,-9.7981
 L 325.078,-9.47847 L 325.315,-9.125 L 325.503,-8.74371 L 325.639,-8.34116 L 325.722,-7.92421 L 325.75,-7.5
 L 325.722,-7.07578 L 325.639,-6.65883 L 325.503,-6.25627 L 325.315,-5.875 L 325.078,-5.52151 L 324.798,-5.20189
 L 324.478,-4.9216 L 324.125,-4.68541 L 323.744,-4.49739 L 323.341,-4.36073 L 322.924,-4.2778 L 322.5,-4.25
 z
M 338.341,-10.6393 L 338.744,-10.5026 L 339.125,-10.3146 L 339.478,-10.0784 L 339.798,-9.7981 L 340.078,-9.47847
 L 340.315,-9.125 L 340.503,-8.74371 L 340.639,-8.34116 L 340.722,-7.92421 L 340.75,-7.5 L 340.722,-7.07578
 L 340.639,-6.65883 L 340.503,-6.25627 L 340.315,-5.875 L 340.078,-5.52151 L 339.798,-5.20189 L 339.478,-4.9216
 L 339.125,-4.68541 L 338.744,-4.49739 L 338.341,-4.36073 L 337.924,-4.2778 L 337.5,-4.25 L 337.076,-4.2778
 L 336.659,-4.36073 L 336.256,-4.49739 L 335.875,-4.68541 L 335.522,-4.9216 L 335.202,-5.20189 L 334.922,-5.52151
 L 334.685,-5.875 L 334.497,-6.25627 L 334.361,-6.65883 L 334.278,-7.07578 L 334.25,-7.5 L 334.278,-7.92421
 L 334.361,-8.34116 L 334.497,-8.74371 L 334.685,-9.125 L 334.922,-9.47847 L 335.202,-9.7981 L 335.522,-10.0784
 L 335.875,-10.3146 L 336.256,-10.5026 L 336.659,-10.6393 L 337.076,-10.7222 L 337.5,-10.75 L 337.924,-10.7222
 z
M 82.0758,-4.2778 L 81.6588,-4.36073 L 81.2563,-4.49739 L 80.875,-4.68541 L 80.5215,-4.9216 L 80.2019,-5.20189
 L 79.9216,-5.52151 L 79.6854,-5.875 L 79.4974,-6.25627 L 79.3607,-6.65883 L 79.2778,-7.07578 L 79.25,-7.5
 L 79.2778,-7.92421 L 79.3607,-8.34116 L 79.4974,-8.74371 L 79.6854,-9.125 L 79.9216,-9.47847 L 80.2019,-9.7981
 L 80.5215,-10.0784 L 80.875,-10.3146 L 81.2563,-10.5026 L 81.6588,-10.6393 L 82.0758,-10.7222 L 82.5,-10.75
 L 82.9242,-10.7222 L 83.3412,-10.6393 L 83.7437,-10.5026 L 84.125,-10.3146 L 84.4785,-10.0784 L 84.7981,-9.7981
 L 85.0784,-9.47847 L 85.3146,-9.125 L 85.5026,-8.74371 L 85.6393,-8.34116 L 85.7222,-7.92421 L 85.75,-7.5
 L 85.7222,-7.07578 L 85.6393,-6.65883 L 85.5026,-6.25627 L 85.3146,-5.875 L 85.0784,-5.52151 L 84.7981,-5.20189
 L 84.4785,-4.9216 L 84.125,-4.68541 L 83.7437,-4.49739 L 83.3412,-4.36073 L 82.9242,-4.2778 L 82.5,-4.25
 z
" stroke="black" fill="lightgray" stroke-width="0.5"/>
</svg>
