<?xml version="1.0" standalone="no"?>
<!DOCTYPE svg PUBLIC "-//W3C//DTD SVG 1.1//EN" "http://www.w3.org/Graphics/SVG/1.1/DTD/svg11.dtd">
<svg width="374mm" height="14mm" viewBox="-187 -7 374 14" xmlns="http://www.w3.org/2000/svg" version="1.1">
<title>OpenSCAD Model</title>
<path d="
M 181.658,5.96222 L 182.299,5.83463 L 182.918,5.62439 L 183.505,5.33511 L 184.049,4.97176 L 184.541,4.54053
 L 184.972,4.0488 L 185.335,3.50499 L 185.624,2.91841 L 185.835,2.29909 L 185.962,1.65762 L 186.005,1.00499
 L 186.005,-1.00499 L 185.962,-1.65762 L 185.835,-2.29909 L 185.624,-2.91841 L 185.335,-3.50499 L 184.972,-4.0488
 L 184.541,-4.54053 L 184.049,-4.97176 L 183.505,-5.33511 L 182.918,-5.62439 L 182.299,-5.83463 L 181.658,-5.96222
 L 181.005,-6.00499 L -181.005,-6.00499 L -181.658,-5.96222 L -182.299,-5.83463 L -182.918,-5.62439 L -183.505,-5.33511
 L -184.049,-4.97176 L -184.541,-4.54053 L -184.972,-4.0488 L -185.335,-3.50499 L -185.624,-2.91841 L -185.835,-2.29909
 L -185.962,-1.65762 L -186.005,-1.00499 L -186.005,1.00499 L -185.962,1.65762 L -185.835,2.29909 L -185.624,2.91841
 L -185.335,3.50499 L -184.972,4.0488 L -184.541,4.54053 L -184.049,4.97176 L -183.505,5.33511 L -182.918,5.62439
 L -182.299,5.83463 L -181.658,5.96222 L -181.005,6.00499 L 181.005,6.00499 z
M -135.424,3.22218 L -135.841,3.13925 L -136.244,3.00259 L -136.625,2.81458 L -136.978,2.57838 L -137.298,2.2981
 L -137.578,1.97847 L -137.815,1.625 L -138.003,1.24371 L -138.139,0.841156 L -138.222,0.42421 L -138.25,-0
 L -138.222,-0.42421 L -138.139,-0.841156 L -138.003,-1.24371 L -137.815,-1.625 L -137.578,-1.97847 L -137.298,-2.2981
 L -136.978,-2.57838 L -136.625,-2.81458 L -136.244,-3.00259 L -135.841,-3.13925 L -135.424,-3.22218 L -135,-3.25
 L -134.576,-3.22218 L -134.159,-3.13925 L -133.756,-3.00259 L -133.375,-2.81458 L -133.022,-2.57838 L -132.702,-2.2981
 L -132.422,-1.97847 L -132.185,-1.625 L -131.997,-1.24371 L -131.861,-0.841156 L -131.778,-0.42421 L -131.75,-0
 L -131.778,0.42421 L -131.861,0.841156 L -131.997,1.24371 L -132.185,1.625 L -132.422,1.97847 L -132.702,2.2981
 L -133.022,2.57838 L -133.375,2.81458 L -133.756,3.00259 L -134.159,3.13925 L -134.576,3.22218 L -135,3.25
 z
M -60.4242,3.22218 L -60.8412,3.13925 L -61.2437,3.00259 L -61.625,2.81458 L -61.9785,2.57838 L -62.2981,2.2981
 L -62.5784,1.97847 L -62.8146,1.625 L -63.0026,1.24371 L -63.1393,0.841156 L -63.2222,0.42421 L -63.25,-0
 L -63.2222,-0.42421 L -63.1393,-0.841156 L -63.0026,-1.24371 L -62.8146,-1.625 L -62.5784,-1.97847 L -62.2981,-2.2981
 L -61.9785,-2.57838 L -61.625,-2.81458 L -61.2437,-3.00259 L -60.8412,-3.13925 L -60.4242,-3.22218 L -60,-3.25
 L -59.5758,-3.22218 L -59.1588,-3.13925 L -58.7563,-3.00259 L -58.375,-2.81458 L -58.0215,-2.57838 L -57.7019,-2.2981
 L -57.4216,-1.97847 L -57.1854,-1.625 L -56.9974,-1.24371 L -56.8607,-0.841156 L -56.7778,-0.42421 L -56.75,-0
 L -56.7778,0.42421 L -56.8607,0.841156 L -56.9974,1.24371 L -57.1854,1.625 L -57.4216,1.97847 L -57.7019,2.2981
 L -58.0215,2.57838 L -58.375,2.81458 L -58.7563,3.00259 L -59.1588,3.13925 L -59.5758,3.22218 L -60,3.25
 z
M -75.4242,3.22218 L -75.8412,3.13925 L -76.2437,3.00259 L -76.625,2.81458 L -76.9785,2.57838 L -77.2981,2.2981
 L -77.5784,1.97847 L -77.8146,1.625 L -78.0026,1.24371 L -78.1393,0.841156 L -78.2222,0.42421 L -78.25,-0
 L -78.2222,-0.42421 L -78.1393,-0.841156 L -78.0026,-1.24371 L -77.8146,-1.625 L -77.5784,-1.97847 L -77.2981,-2.2981
 L -76.9785,-2.57838 L -76.625,-2.81458 L -76.2437,-3.00259 L -75.8412,-3.13925 L -75.4242,-3.22218 L -75,-3.25
 L -74.5758,-3.22218 L -74.1588,-3.13925 L -73.7563,-3.00259 L -73.375,-2.81458 L -73.0215,-2.57838 L -72.7019,-2.2981
 L -72.4216,-1.97847 L -72.1854,-1.625 L -71.9974,-1.24371 L -71.8607,-0.841156 L -71.7778,-0.42421 L -71.75,-0
 L -71.7778,0.42421 L -71.8607,0.841156 L -71.9974,1.24371 L -72.1854,1.625 L -72.4216,1.97847 L -72.7019,2.2981
 L -73.0215,2.57838 L -73.375,2.81458 L -73.7563,3.00259 L -74.1588,3.13925 L -74.5758,3.22218 L -75,3.25
 z
M -0.42421,3.22218 L -0.841156,3.13925 L -1.24371,3.00259 L -1.625,2.81458 L -1.97847,2.57838 L -2.2981,2.2981
 L -2.57838,1.97847 L -2.81458,1.625 L -3.00259,1.24371 L -3.13925,0.841156 L -3.22218,0.42421 L -3.25,-0
 L -3.22218,-0.42421 L -3.13925,-0.841156 L -3.00259,-1.24371 L -2.81458,-1.625 L -2.57838,-1.97847 L -2.2981,-2.2981
 L -1.97847,-2.57838 L -1.625,-2.81458 L -1.24371,-3.00259 L -0.841156,-3.13925 L -0.42421,-3.22218 L 0,-3.25
 L 0.42421,-3.22218 L 0.841156,-3.13925 L 1.24371,-3.00259 L 1.625,-2.81458 L 1.97847,-2.57838 L 2.2981,-2.2981
 L 2.57838,-1.97847 L 2.81458,-1.625 L 3.00259,-1.24371 L 3.13925,-0.841156 L 3.22218,-0.42421 L 3.25,-0
 L 3.22218,0.42421 L 3.13925,0.841156 L 3.00259,1.24371 L 2.81458,1.625 L 2.57838,1.97847 L 2.2981,2.2981
 L 1.97847,2.57838 L 1.625,2.81458 L 1.24371,3.00259 L 0.841156,3.13925 L 0.42421,3.22218 L 0,3.25
 z
M -45.4242,3.22218 L -45.8412,3.13925 L -46.2437,3.00259 L -46.625,2.81458 L -46.9785,2.57838 L -47.2981,2.2981
 L -47.5784,1.97847 L -47.8146,1.625 L -48.0026,1.24371 L -48.1393,0.841156 L -48.2222,0.42421 L -48.25,-0
 L -48.2222,-0.42421 L -48.1393,-0.841156 L -48.0026,-1.24371 L -47.8146,-1.625 L -47.5784,-1.97847 L -47.2981,-2.2981
 L -46.9785,-2.57838 L -46.625,-2.81458 L -46.2437,-3.00259 L -45.8412,-3.13925 L -45.4242,-3.22218 L -45,-3.25
 L -44.5758,-3.22218 L -44.1588,-3.13925 L -43.7563,-3.00259 L -43.375,-2.81458 L -43.0215,-2.57838 L -42.7019,-2.2981
 L -42.4216,-1.97847 L -42.1854,-1.625 L -41.9974,-1.24371 L -41.8607,-0.841156 L -41.7778,-0.42421 L -41.75,-0
 L -41.7778,0.42421 L -41.8607,0.841156 L -41.9974,1.24371 L -42.1854,1.625 L -42.4216,1.97847 L -42.7019,2.2981
 L -43.0215,2.57838 L -43.375,2.81458 L -43.7563,3.00259 L -44.1588,3.13925 L -44.5758,3.22218 L -45,3.25
 z
M 14.5758,3.22218 L 14.1588,3.13925 L 13.7563,3.00259 L 13.375,2.81458 L 13.0215,2.57838 L 12.7019,2.2981
 L 12.4216,1.97847 L 12.1854,1.625 L 11.9974,1.24371 L 11.8607,0.841156 L 11.7778,0.42421 L 11.75,-0
 L 11.7778,-0.42421 L 11.8607,-0.841156 L 11.9974,-1.24371 L 12.1854,-1.625 L 12.4216,-1.97847 L 12.7019,-2.2981
 L 13.0215,-2.57838 L 13.375,-2.81458 L 13.7563,-3.00259 L 14.1588,-3.13925 L 14.5758,-3.22218 L 15,-3.25
 L 15.4242,-3.22218 L 15.8412,-3.13925 L 16.2437,-3.00259 L 16.625,-2.81458 L 16.9785,-2.57838 L 17.2981,-2.2981
 L 17.5784,-1.97847 L 17.8146,-1.625 L 18.0026,-1.24371 L 18.1393,-0.841156 L 18.2222,-0.42421 L 18.25,-0
 L 18.2222,0.42421 L 18.1393,0.841156 L 18.0026,1.24371 L 17.8146,1.625 L 17.5784,1.97847 L 17.2981,2.2981
 L 16.9785,2.57838 L 16.625,2.81458 L 16.2437,3.00259 L 15.8412,3.13925 L 15.4242,3.22218 L 15,3.25
 z
M 44.5758,3.22218 L 44.1588,3.13925 L 43.7563,3.00259 L 43.375,2.81458 L 43.0215,2.57838 L 42.7019,2.2981
 L 42.4216,1.97847 L 42.1854,1.625 L 41.9974,1.24371 L 41.8607,0.841156 L 41.7778,0.42421 L 41.75,-0
 L 41.7778,-0.42421 L 41.8607,-0.841156 L 41.9974,-1.24371 L 42.1854,-1.625 L 42.4216,-1.97847 L 42.7019,-2.2981
 L 43.0215,-2.57838 L 43.375,-2.81458 L 43.7563,-3.00259 L 44.1588,-3.13925 L 44.5758,-3.22218 L 45,-3.25
 L 45.4242,-3.22218 L 45.8412,-3.13925 L 46.2437,-3.00259 L 46.625,-2.81458 L 46.9785,-2.57838 L 47.2981,-2.2981
 L 47.5784,-1.97847 L 47.8146,-1.625 L 48.0026,-1.24371 L 48.1393,-0.841156 L 48.2222,-0.42421 L 48.25,-0
 L 48.2222,0.42421 L 48.1393,0.841156 L 48.0026,1.24371 L 47.8146,1.625 L 47.5784,1.97847 L 47.2981,2.2981
 L 46.9785,2.57838 L 46.625,2.81458 L 46.2437,3.00259 L 45.8412,3.13925 L 45.4242,3.22218 L 45,3.25
 z
M 59.5758,3.22218 L 59.1588,3.13925 L 58.7563,3.00259 L 58.375,2.81458 L 58.0215,2.57838 L 57.7019,2.2981
 L 57.4216,1.97847 L 57.1854,1.625 L 56.9974,1.24371 L 56.8607,0.841156 L 56.7778,0.42421 L 56.75,-0
 L 56.7778,-0.42421 L 56.8607,-0.841156 L 56.9974,-1.24371 L 57.1854,-1.625 L 57.4216,-1.97847 L 57.7019,-2.2981
 L 58.0215,-2.57838 L 58.375,-2.81458 L 58.7563,-3.00259 L 59.1588,-3.13925 L 59.5758,-3.22218 L 60,-3.25
 L 60.4242,-3.22218 L 60.8412,-3.13925 L 61.2437,-3.00259 L 61.625,-2.81458 L 61.9785,-2.57838 L 62.2981,-2.2981
 L 62.5784,-1.97847 L 62.8146,-1.625 L 63.0026,-1.24371 L 63.1393,-0.841156 L 63.2222,-0.42421 L 63.25,-0
 L 63.2222,0.42421 L 63.1393,0.841156 L 63.0026,1.24371 L 62.8146,1.625 L 62.5784,1.97847 L 62.2981,2.2981
 L 61.9785,2.57838 L 61.625,2.81458 L 61.2437,3.00259 L 60.8412,3.13925 L 60.4242,3.22218 L 60,3.25
 z
M 89.5758,3.22218 L 89.1588,3.13925 L 88.7563,3.00259 L 88.375,2.81458 L 88.0215,2.57838 L 87.7019,2.2981
 L 87.4216,1.97847 L 87.1854,1.625 L 86.9974,1.24371 L 86.8607,0.841156 L 86.7778,0.42421 L 86.75,-0
 L 86.7778,-0.42421 L 86.8607,-0.841156 L 86.9974,-1.24371 L 87.1854,-1.625 L 87.4216,-1.97847 L 87.7019,-2.2981
 L 88.0215,-2.57838 L 88.375,-2.81458 L 88.7563,-3.00259 L 89.1588,-3.13925 L 89.5758,-3.22218 L 90,-3.25
 L 90.4242,-3.22218 L 90.8412,-3.13925 L 91.2437,-3.00259 L 91.625,-2.81458 L 91.9785,-2.57838 L 92.2981,-2.2981
 L 92.5784,-1.97847 L 92.8146,-1.625 L 93.0026,-1.24371 L 93.1393,-0.841156 L 93.2222,-0.42421 L 93.25,-0
 L 93.2222,0.42421 L 93.1393,0.841156 L 93.0026,1.24371 L 92.8146,1.625 L 92.5784,1.97847 L 92.2981,2.2981
 L 91.9785,2.57838 L 91.625,2.81458 L 91.2437,3.00259 L 90.8412,3.13925 L 90.4242,3.22218 L 90,3.25
 z
M 29.5758,3.22218 L 29.1588,3.13925 L 28.7563,3.00259 L 28.375,2.81458 L 28.0215,2.57838 L 27.7019,2.2981
 L 27.4216,1.97847 L 27.1854,1.625 L 26.9974,1.24371 L 26.8607,0.841156 L 26.7778,0.42421 L 26.75,-0
 L 26.7778,-0.42421 L 26.8607,-0.841156 L 26.9974,-1.24371 L 27.1854,-1.625 L 27.4216,-1.97847 L 27.7019,-2.2981
 L 28.0215,-2.57838 L 28.375,-2.81458 L 28.7563,-3.00259 L 29.1588,-3.13925 L 29.5758,-3.22218 L 30,-3.25
 L 30.4242,-3.22218 L 30.8412,-3.13925 L 31.2437,-3.00259 L 31.625,-2.81458 L 31.9785,-2.57838 L 32.2981,-2.2981
 L 32.5784,-1.97847 L 32.8146,-1.625 L 33.0026,-1.24371 L 33.1393,-0.841156 L 33.2222,-0.42421 L 33.25,-0
 L 33.2222,0.42421 L 33.1393,0.841156 L 33.0026,1.24371 L 32.8146,1.625 L 32.5784,1.97847 L 32.2981,2.2981
 L 31.9785,2.57838 L 31.625,2.81458 L 31.2437,3.00259 L 30.8412,3.13925 L 30.4242,3.22218 L 30,3.25
 z
M 104.576,3.22218 L 104.159,3.13925 L 103.756,3.00259 L 103.375,2.81458 L 103.022,2.57838 L 102.702,2.2981
 L 102.422,1.97847 L 102.185,1.625 L 101.997,1.24371 L 101.861,0.841156 L 101.778,0.42421 L 101.75,-0
 L 101.778,-0.42421 L 101.861,-0.841156 L 101.997,-1.24371 L 102.185,-1.625 L 102.422,-1.97847 L 102.702,-2.2981
 L 103.022,-2.57838 L 103.375,-2.81458 L 103.756,-3.00259 L 104.159,-3.13925 L 104.576,-3.22218 L 105,-3.25
 L 105.424,-3.22218 L 105.841,-3.13925 L 106.244,-3.00259 L 106.625,-2.81458 L 106.978,-2.57838 L 107.298,-2.2981
 L 107.578,-1.97847 L 107.815,-1.625 L 108.003,-1.24371 L 108.139,-0.841156 L 108.222,-0.42421 L 108.25,-0
 L 108.222,0.42421 L 108.139,0.841156 L 108.003,1.24371 L 107.815,1.625 L 107.578,1.97847 L 107.298,2.2981
 L 106.978,2.57838 L 106.625,2.81458 L 106.244,3.00259 L 105.841,3.13925 L 105.424,3.22218 L 105,3.25
 z
M 74.5758,3.22218 L 74.1588,3.13925 L 73.7563,3.00259 L 73.375,2.81458 L 73.0215,2.57838 L 72.7019,2.2981
 L 72.4216,1.97847 L 72.1854,1.625 L 71.9974,1.24371 L 71.8607,0.841156 L 71.7778,0.42421 L 71.75,-0
 L 71.7778,-0.42421 L 71.8607,-0.841156 L 71.9974,-1.24371 L 72.1854,-1.625 L 72.4216,-1.97847 L 72.7019,-2.2981
 L 73.0215,-2.57838 L 73.375,-2.81458 L 73.7563,-3.00259 L 74.1588,-3.13925 L 74.5758,-3.22218 L 75,-3.25
 L 75.4242,-3.22218 L 75.8412,-3.13925 L 76.2437,-3.00259 L 76.625,-2.81458 L 76.9785,-2.57838 L 77.2981,-2.2981
 L 77.5784,-1.97847 L 77.8146,-1.625 L 78.0026,-1.24371 L 78.1393,-0.841156 L 78.2222,-0.42421 L 78.25,-0
 L 78.2222,0.42421 L 78.1393,0.841156 L 78.0026,1.24371 L 77.8146,1.625 L 77.5784,1.97847 L 77.2981,2.2981
 L 76.9785,2.57838 L 76.625,2.81458 L 76.2437,3.00259 L 75.8412,3.13925 L 75.4242,3.22218 L 75,3.25
 z
M 119.576,3.22218 L 119.159,3.13925 L 118.756,3.00259 L 118.375,2.81458 L 118.022,2.57838 L 117.702,2.2981
 L 117.422,1.97847 L 117.185,1.625 L 116.997,1.24371 L 116.861,0.841156 L 116.778,0.42421 L 116.75,-0
 L 116.778,-0.42421 L 116.861,-0.841156 L 116.997,-1.24371 L 117.185,-1.625 L 117.422,-1.97847 L 117.702,-2.2981
 L 118.022,-2.57838 L 118.375,-2.81458 L 118.756,-3.00259 L 119.159,-3.13925 L 119.576,-3.22218 L 120,-3.25
 L 120.424,-3.22218 L 120.841,-3.13925 L 121.244,-3.00259 L 121.625,-2.81458 L 121.978,-2.57838 L 122.298,-2.2981
 L 122.578,-1.97847 L 122.815,-1.625 L 123.003,-1.24371 L 123.139,-0.841156 L 123.222,-0.42421 L 123.25,-0
 L 123.222,0.42421 L 123.139,0.841156 L 123.003,1.24371 L 122.815,1.625 L 122.578,1.97847 L 122.298,2.2981
 L 121.978,2.57838 L 121.625,2.81458 L 121.244,3.00259 L 120.841,3.13925 L 120.424,3.22218 L 120,3.25
 z
M -119.159,-3.13925 L -118.756,-3.00259 L -118.375,-2.81458 L -118.022,-2.57838 L -117.702,-2.2981 L -117.422,-1.97847
 L -117.185,-1.625 L -116.997,-1.24371 L -116.861,-0.841156 L -116.778,-0.42421 L -116.75,-0 L -116.778,0.42421
 L -116.861,0.841156 L -116.997,1.24371 L -117.185,1.625 L -117.422,1.97847 L -117.702,2.2981 L -118.022,2.57838
 L -118.375,2.81458 L -118.756,3.00259 L -119.159,3.13925 L -119.576,3.22218 L -120,3.25 L -120.424,3.22218
 L -120.841,3.13925 L -121.244,3.00259 L -121.625,2.81458 L -121.978,2.57838 L -122.298,2.2981 L -122.578,1.97847
 L -122.815,1.625 L -123.003,1.24371 L -123.139,0.841156 L -123.222,0.42421 L -123.25,-0 L -123.222,-0.42421
 L -123.139,-0.841156 L -123.003,-1.24371 L -122.815,-1.625 L -122.578,-1.97847 L -122.298,-2.2981 L -121.978,-2.57838
 L -121.625,-2.81458 L -121.244,-3.00259 L -120.841,-3.13925 L -120.424,-3.22218 L -120,-3.25 L -119.576,-3.22218
 z
M -90.4242,3.22218 L -90.8412,3.13925 L -91.2437,3.00259 L -91.625,2.81458 L -91.9785,2.57838 L -92.2981,2.2981
 L -92.5784,1.97847 L -92.8146,1.625 L -93.0026,1.24371 L -93.1393,0.841156 L -93.2222,0.42421 L -93.25,-0
 L -93.2222,-0.42421 L -93.1393,-0.841156 L -93.0026,-1.24371 L -92.8146,-1.625 L -92.5784,-1.97847 L -92.2981,-2.2981
 L -91.9785,-2.57838 L -91.625,-2.81458 L -91.2437,-3.00259 L -90.8412,-3.13925 L -90.4242,-3.22218 L -90,-3.25
 L -89.5758,-3.22218 L -89.1588,-3.13925 L -88.7563,-3.00259 L -88.375,-2.81458 L -88.0215,-2.57838 L -87.7019,-2.2981
 L -87.4216,-1.97847 L -87.1854,-1.625 L -86.9974,-1.24371 L -86.8607,-0.841156 L -86.7778,-0.42421 L -86.75,-0
 L -86.7778,0.42421 L -86.8607,0.841156 L -86.9974,1.24371 L -87.1854,1.625 L -87.4216,1.97847 L -87.7019,2.2981
 L -88.0215,2.57838 L -88.375,2.81458 L -88.7563,3.00259 L -89.1588,3.13925 L -89.5758,3.22218 L -90,3.25
 z
M -15.4242,3.22218 L -15.8412,3.13925 L -16.2437,3.00259 L -16.625,2.81458 L -16.9785,2.57838 L -17.2981,2.2981
 L -17.5784,1.97847 L -17.8146,1.625 L -18.0026,1.24371 L -18.1393,0.841156 L -18.2222,0.42421 L -18.25,-0
 L -18.2222,-0.42421 L -18.1393,-0.841156 L -18.0026,-1.24371 L -17.8146,-1.625 L -17.5784,-1.97847 L -17.2981,-2.2981
 L -16.9785,-2.57838 L -16.625,-2.81458 L -16.2437,-3.00259 L -15.8412,-3.13925 L -15.4242,-3.22218 L -15,-3.25
 L -14.5758,-3.22218 L -14.1588,-3.13925 L -13.7563,-3.00259 L -13.375,-2.81458 L -13.0215,-2.57838 L -12.7019,-2.2981
 L -12.4216,-1.97847 L -12.1854,-1.625 L -11.9974,-1.24371 L -11.8607,-0.841156 L -11.7778,-0.42421 L -11.75,-0
 L -11.7778,0.42421 L -11.8607,0.841156 L -11.9974,1.24371 L -12.1854,1.625 L -12.4216,1.97847 L -12.7019,2.2981
 L -13.0215,2.57838 L -13.375,2.81458 L -13.7563,3.00259 L -14.1588,3.13925 L -14.5758,3.22218 L -15,3.25
 z
M -30.4242,3.22218 L -30.8412,3.13925 L -31.2437,3.00259 L -31.625,2.81458 L -31.9785,2.57838 L -32.2981,2.2981
 L -32.5784,1.97847 L -32.8146,1.625 L -33.0026,1.24371 L -33.1393,0.841156 L -33.2222,0.42421 L -33.25,-0
 L -33.2222,-0.42421 L -33.1393,-0.841156 L -33.0026,-1.24371 L -32.8146,-1.625 L -32.5784,-1.97847 L -32.2981,-2.2981
 L -31.9785,-2.57838 L -31.625,-2.81458 L -31.2437,-3.00259 L -30.8412,-3.13925 L -30.4242,-3.22218 L -30,-3.25
 L -29.5758,-3.22218 L -29.1588,-3.13925 L -28.7563,-3.00259 L -28.375,-2.81458 L -28.0215,-2.57838 L -27.7019,-2.2981
 L -27.4216,-1.97847 L -27.1854,-1.625 L -26.9974,-1.24371 L -26.8607,-0.841156 L -26.7778,-0.42421 L -26.75,-0
 L -26.7778,0.42421 L -26.8607,0.841156 L -26.9974,1.24371 L -27.1854,1.625 L -27.4216,1.97847 L -27.7019,2.2981
 L -28.0215,2.57838 L -28.375,2.81458 L -28.7563,3.00259 L -29.1588,3.13925 L -29.5758,3.22218 L -30,3.25
 z
M -150.424,3.22218 L -150.841,3.13925 L -151.244,3.00259 L -151.625,2.81458 L -151.978,2.57838 L -152.298,2.2981
 L -152.578,1.97847 L -152.815,1.625 L -153.003,1.24371 L -153.139,0.841156 L -153.222,0.42421 L -153.25,-0
 L -153.222,-0.42421 L -153.139,-0.841156 L -153.003,-1.24371 L -152.815,-1.625 L -152.578,-1.97847 L -152.298,-2.2981
 L -151.978,-2.57838 L -151.625,-2.81458 L -151.244,-3.00259 L -150.841,-3.13925 L -150.424,-3.22218 L -150,-3.25
 L -149.576,-3.22218 L -149.159,-3.13925 L -148.756,-3.00259 L -148.375,-2.81458 L -148.022,-2.57838 L -147.702,-2.2981
 L -147.422,-1.97847 L -147.185,-1.625 L -146.997,-1.24371 L -146.861,-0.841156 L -146.778,-0.42421 L -146.75,-0
 L -146.778,0.42421 L -146.861,0.841156 L -146.997,1.24371 L -147.185,1.625 L -147.422,1.97847 L -147.702,2.2981
 L -148.022,2.57838 L -148.375,2.81458 L -148.756,3.00259 L -149.159,3.13925 L -149.576,3.22218 L -150,3.25
 z
M 179.576,3.22218 L 179.159,3.13925 L 178.756,3.00259 L 178.375,2.81458 L 178.022,2.57838 L 177.702,2.2981
 L 177.422,1.97847 L 177.185,1.625 L 176.997,1.24371 L 176.861,0.841156 L 176.778,0.42421 L 176.75,-0
 L 176.778,-0.42421 L 176.861,-0.841156 L 176.997,-1.24371 L 177.185,-1.625 L 177.422,-1.97847 L 177.702,-2.2981
 L 178.022,-2.57838 L 178.375,-2.81458 L 178.756,-3.00259 L 179.159,-3.13925 L 179.576,-3.22218 L 180,-3.25
 L 180.424,-3.22218 L 180.841,-3.13925 L 181.244,-3.00259 L 181.625,-2.81458 L 181.978,-2.57838 L 182.298,-2.2981
 L 182.578,-1.97847 L 182.815,-1.625 L 183.003,-1.24371 L 183.139,-0.841156 L 183.222,-0.42421 L 183.25,-0
 L 183.222,0.42421 L 183.139,0.841156 L 183.003,1.24371 L 182.815,1.625 L 182.578,1.97847 L 182.298,2.2981
 L 181.978,2.57838 L 181.625,2.81458 L 181.244,3.00259 L 180.841,3.13925 L 180.424,3.22218 L 180,3.25
 z
M 164.576,3.22218 L 164.159,3.13925 L 163.756,3.00259 L 163.375,2.81458 L 163.022,2.57838 L 162.702,2.2981
 L 162.422,1.97847 L 162.185,1.625 L 161.997,1.24371 L 161.861,0.841156 L 161.778,0.42421 L 161.75,-0
 L 161.778,-0.42421 L 161.861,-0.841156 L 161.997,-1.24371 L 162.185,-1.625 L 162.422,-1.97847 L 162.702,-2.2981
 L 163.022,-2.57838 L 163.375,-2.81458 L 163.756,-3.00259 L 164.159,-3.13925 L 164.576,-3.22218 L 165,-3.25
 L 165.424,-3.22218 L 165.841,-3.13925 L 166.244,-3.00259 L 166.625,-2.81458 L 166.978,-2.57838 L 167.298,-2.2981
 L 167.578,-1.97847 L 167.815,-1.625 L 168.003,-1.24371 L 168.139,-0.841156 L 168.222,-0.42421 L 168.25,-0
 L 168.222,0.42421 L 168.139,0.841156 L 168.003,1.24371 L 167.815,1.625 L 167.578,1.97847 L 167.298,2.2981
 L 166.978,2.57838 L 166.625,2.81458 L 166.244,3.00259 L 165.841,3.13925 L 165.424,3.22218 L 165,3.25
 z
M -165.424,3.22218 L -165.841,3.13925 L -166.244,3.00259 L -166.625,2.81458 L -166.978,2.57838 L -167.298,2.2981
 L -167.578,1.97847 L -167.815,1.625 L -168.003,1.24371 L -168.139,0.841156 L -168.222,0.42421 L -168.25,-0
 L -168.222,-0.42421 L -168.139,-0.841156 L -168.003,-1.24371 L -167.815,-1.625 L -167.578,-1.97847 L -167.298,-2.2981
 L -166.978,-2.57838 L -166.625,-2.81458 L -166.244,-3.00259 L -165.841,-3.13925 L -165.424,-3.22218 L -165,-3.25
 L -164.576,-3.22218 L -164.159,-3.13925 L -163.756,-3.00259 L -163.375,-2.81458 L -163.022,-2.57838 L -162.702,-2.2981
 L -162.422,-1.97847 L -162.185,-1.625 L -161.997,-1.24371 L -161.861,-0.841156 L -161.778,-0.42421 L -161.75,-0
 L -161.778,0.42421 L -161.861,0.841156 L -161.997,1.24371 L -162.185,1.625 L -162.422,1.97847 L -162.702,2.2981
 L -163.022,2.57838 L -163.375,2.81458 L -163.756,3.00259 L -164.159,3.13925 L -164.576,3.22218 L -165,3.25
 z
M -180.424,3.22218 L -180.841,3.13925 L -181.244,3.00259 L -181.625,2.81458 L -181.978,2.57838 L -182.298,2.2981
 L -182.578,1.97847 L -182.815,1.625 L -183.003,1.24371 L -183.139,0.841156 L -183.222,0.42421 L -183.25,-0
 L -183.222,-0.42421 L -183.139,-0.841156 L -183.003,-1.24371 L -182.815,-1.625 L -182.578,-1.97847 L -182.298,-2.2981
 L -181.978,-2.57838 L -181.625,-2.81458 L -181.244,-3.00259 L -180.841,-3.13925 L -180.424,-3.22218 L -180,-3.25
 L -179.576,-3.22218 L -179.159,-3.13925 L -178.756,-3.00259 L -178.375,-2.81458 L -178.022,-2.57838 L -177.702,-2.2981
 L -177.422,-1.97847 L -177.185,-1.625 L -176.997,-1.24371 L -176.861,-0.841156 L -176.778,-0.42421 L -176.75,-0
 L -176.778,0.42421 L -176.861,0.841156 L -176.997,1.24371 L -177.185,1.625 L -177.422,1.97847 L -177.702,2.2981
 L -178.022,2.57838 L -178.375,2.81458 L -178.756,3.00259 L -179.159,3.13925 L -179.576,3.22218 L -180,3.25
 z
M 134.576,3.22218 L 134.159,3.13925 L 133.756,3.00259 L 133.375,2.81458 L 133.022,2.57838 L 132.702,2.2981
 L 132.422,1.97847 L 132.185,1.625 L 131.997,1.24371 L 131.861,0.841156 L 131.778,0.42421 L 131.75,-0
 L 131.778,-0.42421 L 131.861,-0.841156 L 131.997,-1.24371 L 132.185,-1.625 L 132.422,-1.97847 L 132.702,-2.2981
 L 133.022,-2.57838 L 133.375,-2.81458 L 133.756,-3.00259 L 134.159,-3.13925 L 134.576,-3.22218 L 135,-3.25
 L 135.424,-3.22218 L 135.841,-3.13925 L 136.244,-3.00259 L 136.625,-2.81458 L 136.978,-2.57838 L 137.298,-2.2981
 L 137.578,-1.97847 L 137.815,-1.625 L 138.003,-1.24371 L 138.139,-0.841156 L 138.222,-0.42421 L 138.25,-0
 L 138.222,0.42421 L 138.139,0.841156 L 138.003,1.24371 L 137.815,1.625 L 137.578,1.97847 L 137.298,2.2981
 L 136.978,2.57838 L 136.625,2.81458 L 136.244,3.00259 L 135.841,3.13925 L 135.424,3.22218 L 135,3.25
 z
M 150.841,-3.13925 L 151.244,-3.00259 L 151.625,-2.81458 L 151.978,-2.57838 L 152.298,-2.2981 L 152.578,-1.97847
 L 152.815,-1.625 L 153.003,-1.24371 L 153.139,-0.841156 L 153.222,-0.42421 L 153.25,-0 L 153.222,0.42421
 L 153.139,0.841156 L 153.003,1.24371 L 152.815,1.625 L 152.578,1.97847 L 152.298,2.2981 L 151.978,2.57838
 L 151.625,2.81458 L 151.244,3.00259 L 150.841,3.13925 L 150.424,3.22218 L 150,3.25 L 149.576,3.22218
 L 149.159,3.13925 L 148.756,3.00259 L 148.375,2.81458 L 148.022,2.57838 L 147.702,2.2981 L 147.422,1.97847
 L 147.185,1.625 L 146.997,1.24371 L 146.861,0.841156 L 146.778,0.42421 L 146.75,-0 L 146.778,-0.42421
 L 146.861,-0.841156 L 146.997,-1.24371 L 147.185,-1.625 L 147.422,-1.97847 L 147.702,-2.2981 L 148.022,-2.57838
 L 148.375,-2.81458 L 148.756,-3.00259 L 149.159,-3.13925 L 149.576,-3.22218 L 150,-3.25 L 150.424,-3.22218
 z
M -105.424,3.22218 L -105.841,3.13925 L -106.244,3.00259 L -106.625,2.81458 L -106.978,2.57838 L -107.298,2.2981
 L -107.578,1.97847 L -107.815,1.625 L -108.003,1.24371 L -108.139,0.841156 L -108.222,0.42421 L -108.25,-0
 L -108.222,-0.42421 L -108.139,-0.841156 L -108.003,-1.24371 L -107.815,-1.625 L -107.578,-1.97847 L -107.298,-2.2981
 L -106.978,-2.57838 L -106.625,-2.81458 L -106.244,-3.00259 L -105.841,-3.13925 L -105.424,-3.22218 L -105,-3.25
 L -104.576,-3.22218 L -104.159,-3.13925 L -103.756,-3.00259 L -103.375,-2.81458 L -103.022,-2.57838 L -102.702,-2.2981
 L -102.422,-1.97847 L -102.185,-1.625 L -101.997,-1.24371 L -101.861,-0.841156 L -101.778,-0.42421 L -101.75,-0
 L -101.778,0.42421 L -101.861,0.841156 L -101.997,1.24371 L -102.185,1.625 L -102.422,1.97847 L -102.702,2.2981
 L -103.022,2.57838 L -103.375,2.81458 L -103.756,3.00259 L -104.159,3.13925 L -104.576,3.22218 L -105,3.25
 z
" stroke="black" fill="lightgray" stroke-width="0.5"/>
</svg>
