  0
SECTION
  2
BLOCKS
  0
ENDSEC
  0
SECTION
  2
ENTITIES
  0
LINE
  8
0
 10
181.658
 20
-5.96222
 11
182.299
 21
-5.83463
  0
LINE
  8
0
 10
182.299
 20
-5.83463
 11
182.918
 21
-5.62439
  0
LINE
  8
0
 10
182.918
 20
-5.62439
 11
183.505
 21
-5.33511
  0
LINE
  8
0
 10
183.505
 20
-5.33511
 11
184.049
 21
-4.97176
  0
LINE
  8
0
 10
184.049
 20
-4.97176
 11
184.541
 21
-4.54053
  0
LINE
  8
0
 10
184.541
 20
-4.54053
 11
184.972
 21
-4.0488
  0
LINE
  8
0
 10
184.972
 20
-4.0488
 11
185.335
 21
-3.50499
  0
LINE
  8
0
 10
185.335
 20
-3.50499
 11
185.624
 21
-2.91841
  0
LINE
  8
0
 10
185.624
 20
-2.91841
 11
185.835
 21
-2.29909
  0
LINE
  8
0
 10
185.835
 20
-2.29909
 11
185.962
 21
-1.65762
  0
LINE
  8
0
 10
185.962
 20
-1.65762
 11
186.005
 21
-1.00499
  0
LINE
  8
0
 10
186.005
 20
-1.00499
 11
186.005
 21
1.00499
  0
LINE
  8
0
 10
186.005
 20
1.00499
 11
185.962
 21
1.65762
  0
LINE
  8
0
 10
185.962
 20
1.65762
 11
185.835
 21
2.29909
  0
LINE
  8
0
 10
185.835
 20
2.29909
 11
185.624
 21
2.91841
  0
LINE
  8
0
 10
185.624
 20
2.91841
 11
185.335
 21
3.50499
  0
LINE
  8
0
 10
185.335
 20
3.50499
 11
184.972
 21
4.0488
  0
LINE
  8
0
 10
184.972
 20
4.0488
 11
184.541
 21
4.54053
  0
LINE
  8
0
 10
184.541
 20
4.54053
 11
184.049
 21
4.97176
  0
LINE
  8
0
 10
184.049
 20
4.97176
 11
183.505
 21
5.33511
  0
LINE
  8
0
 10
183.505
 20
5.33511
 11
182.918
 21
5.62439
  0
LINE
  8
0
 10
182.918
 20
5.62439
 11
182.299
 21
5.83463
  0
LINE
  8
0
 10
182.299
 20
5.83463
 11
181.658
 21
5.96222
  0
LINE
  8
0
 10
181.658
 20
5.96222
 11
181.005
 21
6.00499
  0
LINE
  8
0
 10
181.005
 20
6.00499
 11
-181.005
 21
6.00499
  0
LINE
  8
0
 10
-181.005
 20
6.00499
 11
-181.658
 21
5.96222
  0
LINE
  8
0
 10
-181.658
 20
5.96222
 11
-182.299
 21
5.83463
  0
LINE
  8
0
 10
-182.299
 20
5.83463
 11
-182.918
 21
5.62439
  0
LINE
  8
0
 10
-182.918
 20
5.62439
 11
-183.505
 21
5.33511
  0
LINE
  8
0
 10
-183.505
 20
5.33511
 11
-184.049
 21
4.97176
  0
LINE
  8
0
 10
-184.049
 20
4.97176
 11
-184.541
 21
4.54053
  0
LINE
  8
0
 10
-184.541
 20
4.54053
 11
-184.972
 21
4.0488
  0
LINE
  8
0
 10
-184.972
 20
4.0488
 11
-185.335
 21
3.50499
  0
LINE
  8
0
 10
-185.335
 20
3.50499
 11
-185.624
 21
2.91841
  0
LINE
  8
0
 10
-185.624
 20
2.91841
 11
-185.835
 21
2.29909
  0
LINE
  8
0
 10
-185.835
 20
2.29909
 11
-185.962
 21
1.65762
  0
LINE
  8
0
 10
-185.962
 20
1.65762
 11
-186.005
 21
1.00499
  0
LINE
  8
0
 10
-186.005
 20
1.00499
 11
-186.005
 21
-1.00499
  0
LINE
  8
0
 10
-186.005
 20
-1.00499
 11
-185.962
 21
-1.65762
  0
LINE
  8
0
 10
-185.962
 20
-1.65762
 11
-185.835
 21
-2.29909
  0
LINE
  8
0
 10
-185.835
 20
-2.29909
 11
-185.624
 21
-2.91841
  0
LINE
  8
0
 10
-185.624
 20
-2.91841
 11
-185.335
 21
-3.50499
  0
LINE
  8
0
 10
-185.335
 20
-3.50499
 11
-184.972
 21
-4.0488
  0
LINE
  8
0
 10
-184.972
 20
-4.0488
 11
-184.541
 21
-4.54053
  0
LINE
  8
0
 10
-184.541
 20
-4.54053
 11
-184.049
 21
-4.97176
  0
LINE
  8
0
 10
-184.049
 20
-4.97176
 11
-183.505
 21
-5.33511
  0
LINE
  8
0
 10
-183.505
 20
-5.33511
 11
-182.918
 21
-5.62439
  0
LINE
  8
0
 10
-182.918
 20
-5.62439
 11
-182.299
 21
-5.83463
  0
LINE
  8
0
 10
-182.299
 20
-5.83463
 11
-181.658
 21
-5.96222
  0
LINE
  8
0
 10
-181.658
 20
-5.96222
 11
-181.005
 21
-6.00499
  0
LINE
  8
0
 10
-181.005
 20
-6.00499
 11
181.005
 21
-6.00499
  0
LINE
  8
0
 10
181.005
 20
-6.00499
 11
181.658
 21
-5.96222
  0
LINE
  8
0
 10
-135.424
 20
-3.22218
 11
-135.841
 21
-3.13925
  0
LINE
  8
0
 10
-135.841
 20
-3.13925
 11
-136.244
 21
-3.00259
  0
LINE
  8
0
 10
-136.244
 20
-3.00259
 11
-136.625
 21
-2.81458
  0
LINE
  8
0
 10
-136.625
 20
-2.81458
 11
-136.978
 21
-2.57838
  0
LINE
  8
0
 10
-136.978
 20
-2.57838
 11
-137.298
 21
-2.2981
  0
LINE
  8
0
 10
-137.298
 20
-2.2981
 11
-137.578
 21
-1.97847
  0
LINE
  8
0
 10
-137.578
 20
-1.97847
 11
-137.815
 21
-1.625
  0
LINE
  8
0
 10
-137.815
 20
-1.625
 11
-138.003
 21
-1.24371
  0
LINE
  8
0
 10
-138.003
 20
-1.24371
 11
-138.139
 21
-0.841156
  0
LINE
  8
0
 10
-138.139
 20
-0.841156
 11
-138.222
 21
-0.42421
  0
LINE
  8
0
 10
-138.222
 20
-0.42421
 11
-138.25
 21
0
  0
LINE
  8
0
 10
-138.25
 20
0
 11
-138.222
 21
0.42421
  0
LINE
  8
0
 10
-138.222
 20
0.42421
 11
-138.139
 21
0.841156
  0
LINE
  8
0
 10
-138.139
 20
0.841156
 11
-138.003
 21
1.24371
  0
LINE
  8
0
 10
-138.003
 20
1.24371
 11
-137.815
 21
1.625
  0
LINE
  8
0
 10
-137.815
 20
1.625
 11
-137.578
 21
1.97847
  0
LINE
  8
0
 10
-137.578
 20
1.97847
 11
-137.298
 21
2.2981
  0
LINE
  8
0
 10
-137.298
 20
2.2981
 11
-136.978
 21
2.57838
  0
LINE
  8
0
 10
-136.978
 20
2.57838
 11
-136.625
 21
2.81458
  0
LINE
  8
0
 10
-136.625
 20
2.81458
 11
-136.244
 21
3.00259
  0
LINE
  8
0
 10
-136.244
 20
3.00259
 11
-135.841
 21
3.13925
  0
LINE
  8
0
 10
-135.841
 20
3.13925
 11
-135.424
 21
3.22218
  0
LINE
  8
0
 10
-135.424
 20
3.22218
 11
-135
 21
3.25
  0
LINE
  8
0
 10
-135
 20
3.25
 11
-134.576
 21
3.22218
  0
LINE
  8
0
 10
-134.576
 20
3.22218
 11
-134.159
 21
3.13925
  0
LINE
  8
0
 10
-134.159
 20
3.13925
 11
-133.756
 21
3.00259
  0
LINE
  8
0
 10
-133.756
 20
3.00259
 11
-133.375
 21
2.81458
  0
LINE
  8
0
 10
-133.375
 20
2.81458
 11
-133.022
 21
2.57838
  0
LINE
  8
0
 10
-133.022
 20
2.57838
 11
-132.702
 21
2.2981
  0
LINE
  8
0
 10
-132.702
 20
2.2981
 11
-132.422
 21
1.97847
  0
LINE
  8
0
 10
-132.422
 20
1.97847
 11
-132.185
 21
1.625
  0
LINE
  8
0
 10
-132.185
 20
1.625
 11
-131.997
 21
1.24371
  0
LINE
  8
0
 10
-131.997
 20
1.24371
 11
-131.861
 21
0.841156
  0
LINE
  8
0
 10
-131.861
 20
0.841156
 11
-131.778
 21
0.42421
  0
LINE
  8
0
 10
-131.778
 20
0.42421
 11
-131.75
 21
0
  0
LINE
  8
0
 10
-131.75
 20
0
 11
-131.778
 21
-0.42421
  0
LINE
  8
0
 10
-131.778
 20
-0.42421
 11
-131.861
 21
-0.841156
  0
LINE
  8
0
 10
-131.861
 20
-0.841156
 11
-131.997
 21
-1.24371
  0
LINE
  8
0
 10
-131.997
 20
-1.24371
 11
-132.185
 21
-1.625
  0
LINE
  8
0
 10
-132.185
 20
-1.625
 11
-132.422
 21
-1.97847
  0
LINE
  8
0
 10
-132.422
 20
-1.97847
 11
-132.702
 21
-2.2981
  0
LINE
  8
0
 10
-132.702
 20
-2.2981
 11
-133.022
 21
-2.57838
  0
LINE
  8
0
 10
-133.022
 20
-2.57838
 11
-133.375
 21
-2.81458
  0
LINE
  8
0
 10
-133.375
 20
-2.81458
 11
-133.756
 21
-3.00259
  0
LINE
  8
0
 10
-133.756
 20
-3.00259
 11
-134.159
 21
-3.13925
  0
LINE
  8
0
 10
-134.159
 20
-3.13925
 11
-134.576
 21
-3.22218
  0
LINE
  8
0
 10
-134.576
 20
-3.22218
 11
-135
 21
-3.25
  0
LINE
  8
0
 10
-135
 20
-3.25
 11
-135.424
 21
-3.22218
  0
LINE
  8
0
 10
-60.4242
 20
-3.22218
 11
-60.8412
 21
-3.13925
  0
LINE
  8
0
 10
-60.8412
 20
-3.13925
 11
-61.2437
 21
-3.00259
  0
LINE
  8
0
 10
-61.2437
 20
-3.00259
 11
-61.625
 21
-2.81458
  0
LINE
  8
0
 10
-61.625
 20
-2.81458
 11
-61.9785
 21
-2.57838
  0
LINE
  8
0
 10
-61.9785
 20
-2.57838
 11
-62.2981
 21
-2.2981
  0
LINE
  8
0
 10
-62.2981
 20
-2.2981
 11
-62.5784
 21
-1.97847
  0
LINE
  8
0
 10
-62.5784
 20
-1.97847
 11
-62.8146
 21
-1.625
  0
LINE
  8
0
 10
-62.8146
 20
-1.625
 11
-63.0026
 21
-1.24371
  0
LINE
  8
0
 10
-63.0026
 20
-1.24371
 11
-63.1393
 21
-0.841156
  0
LINE
  8
0
 10
-63.1393
 20
-0.841156
 11
-63.2222
 21
-0.42421
  0
LINE
  8
0
 10
-63.2222
 20
-0.42421
 11
-63.25
 21
0
  0
LINE
  8
0
 10
-63.25
 20
0
 11
-63.2222
 21
0.42421
  0
LINE
  8
0
 10
-63.2222
 20
0.42421
 11
-63.1393
 21
0.841156
  0
LINE
  8
0
 10
-63.1393
 20
0.841156
 11
-63.0026
 21
1.24371
  0
LINE
  8
0
 10
-63.0026
 20
1.24371
 11
-62.8146
 21
1.625
  0
LINE
  8
0
 10
-62.8146
 20
1.625
 11
-62.5784
 21
1.97847
  0
LINE
  8
0
 10
-62.5784
 20
1.97847
 11
-62.2981
 21
2.2981
  0
LINE
  8
0
 10
-62.2981
 20
2.2981
 11
-61.9785
 21
2.57838
  0
LINE
  8
0
 10
-61.9785
 20
2.57838
 11
-61.625
 21
2.81458
  0
LINE
  8
0
 10
-61.625
 20
2.81458
 11
-61.2437
 21
3.00259
  0
LINE
  8
0
 10
-61.2437
 20
3.00259
 11
-60.8412
 21
3.13925
  0
LINE
  8
0
 10
-60.8412
 20
3.13925
 11
-60.4242
 21
3.22218
  0
LINE
  8
0
 10
-60.4242
 20
3.22218
 11
-60
 21
3.25
  0
LINE
  8
0
 10
-60
 20
3.25
 11
-59.5758
 21
3.22218
  0
LINE
  8
0
 10
-59.5758
 20
3.22218
 11
-59.1588
 21
3.13925
  0
LINE
  8
0
 10
-59.1588
 20
3.13925
 11
-58.7563
 21
3.00259
  0
LINE
  8
0
 10
-58.7563
 20
3.00259
 11
-58.375
 21
2.81458
  0
LINE
  8
0
 10
-58.375
 20
2.81458
 11
-58.0215
 21
2.57838
  0
LINE
  8
0
 10
-58.0215
 20
2.57838
 11
-57.7019
 21
2.2981
  0
LINE
  8
0
 10
-57.7019
 20
2.2981
 11
-57.4216
 21
1.97847
  0
LINE
  8
0
 10
-57.4216
 20
1.97847
 11
-57.1854
 21
1.625
  0
LINE
  8
0
 10
-57.1854
 20
1.625
 11
-56.9974
 21
1.24371
  0
LINE
  8
0
 10
-56.9974
 20
1.24371
 11
-56.8607
 21
0.841156
  0
LINE
  8
0
 10
-56.8607
 20
0.841156
 11
-56.7778
 21
0.42421
  0
LINE
  8
0
 10
-56.7778
 20
0.42421
 11
-56.75
 21
0
  0
LINE
  8
0
 10
-56.75
 20
0
 11
-56.7778
 21
-0.42421
  0
LINE
  8
0
 10
-56.7778
 20
-0.42421
 11
-56.8607
 21
-0.841156
  0
LINE
  8
0
 10
-56.8607
 20
-0.841156
 11
-56.9974
 21
-1.24371
  0
LINE
  8
0
 10
-56.9974
 20
-1.24371
 11
-57.1854
 21
-1.625
  0
LINE
  8
0
 10
-57.1854
 20
-1.625
 11
-57.4216
 21
-1.97847
  0
LINE
  8
0
 10
-57.4216
 20
-1.97847
 11
-57.7019
 21
-2.2981
  0
LINE
  8
0
 10
-57.7019
 20
-2.2981
 11
-58.0215
 21
-2.57838
  0
LINE
  8
0
 10
-58.0215
 20
-2.57838
 11
-58.375
 21
-2.81458
  0
LINE
  8
0
 10
-58.375
 20
-2.81458
 11
-58.7563
 21
-3.00259
  0
LINE
  8
0
 10
-58.7563
 20
-3.00259
 11
-59.1588
 21
-3.13925
  0
LINE
  8
0
 10
-59.1588
 20
-3.13925
 11
-59.5758
 21
-3.22218
  0
LINE
  8
0
 10
-59.5758
 20
-3.22218
 11
-60
 21
-3.25
  0
LINE
  8
0
 10
-60
 20
-3.25
 11
-60.4242
 21
-3.22218
  0
LINE
  8
0
 10
-75.4242
 20
-3.22218
 11
-75.8412
 21
-3.13925
  0
LINE
  8
0
 10
-75.8412
 20
-3.13925
 11
-76.2437
 21
-3.00259
  0
LINE
  8
0
 10
-76.2437
 20
-3.00259
 11
-76.625
 21
-2.81458
  0
LINE
  8
0
 10
-76.625
 20
-2.81458
 11
-76.9785
 21
-2.57838
  0
LINE
  8
0
 10
-76.9785
 20
-2.57838
 11
-77.2981
 21
-2.2981
  0
LINE
  8
0
 10
-77.2981
 20
-2.2981
 11
-77.5784
 21
-1.97847
  0
LINE
  8
0
 10
-77.5784
 20
-1.97847
 11
-77.8146
 21
-1.625
  0
LINE
  8
0
 10
-77.8146
 20
-1.625
 11
-78.0026
 21
-1.24371
  0
LINE
  8
0
 10
-78.0026
 20
-1.24371
 11
-78.1393
 21
-0.841156
  0
LINE
  8
0
 10
-78.1393
 20
-0.841156
 11
-78.2222
 21
-0.42421
  0
LINE
  8
0
 10
-78.2222
 20
-0.42421
 11
-78.25
 21
0
  0
LINE
  8
0
 10
-78.25
 20
0
 11
-78.2222
 21
0.42421
  0
LINE
  8
0
 10
-78.2222
 20
0.42421
 11
-78.1393
 21
0.841156
  0
LINE
  8
0
 10
-78.1393
 20
0.841156
 11
-78.0026
 21
1.24371
  0
LINE
  8
0
 10
-78.0026
 20
1.24371
 11
-77.8146
 21
1.625
  0
LINE
  8
0
 10
-77.8146
 20
1.625
 11
-77.5784
 21
1.97847
  0
LINE
  8
0
 10
-77.5784
 20
1.97847
 11
-77.2981
 21
2.2981
  0
LINE
  8
0
 10
-77.2981
 20
2.2981
 11
-76.9785
 21
2.57838
  0
LINE
  8
0
 10
-76.9785
 20
2.57838
 11
-76.625
 21
2.81458
  0
LINE
  8
0
 10
-76.625
 20
2.81458
 11
-76.2437
 21
3.00259
  0
LINE
  8
0
 10
-76.2437
 20
3.00259
 11
-75.8412
 21
3.13925
  0
LINE
  8
0
 10
-75.8412
 20
3.13925
 11
-75.4242
 21
3.22218
  0
LINE
  8
0
 10
-75.4242
 20
3.22218
 11
-75
 21
3.25
  0
LINE
  8
0
 10
-75
 20
3.25
 11
-74.5758
 21
3.22218
  0
LINE
  8
0
 10
-74.5758
 20
3.22218
 11
-74.1588
 21
3.13925
  0
LINE
  8
0
 10
-74.1588
 20
3.13925
 11
-73.7563
 21
3.00259
  0
LINE
  8
0
 10
-73.7563
 20
3.00259
 11
-73.375
 21
2.81458
  0
LINE
  8
0
 10
-73.375
 20
2.81458
 11
-73.0215
 21
2.57838
  0
LINE
  8
0
 10
-73.0215
 20
2.57838
 11
-72.7019
 21
2.2981
  0
LINE
  8
0
 10
-72.7019
 20
2.2981
 11
-72.4216
 21
1.97847
  0
LINE
  8
0
 10
-72.4216
 20
1.97847
 11
-72.1854
 21
1.625
  0
LINE
  8
0
 10
-72.1854
 20
1.625
 11
-71.9974
 21
1.24371
  0
LINE
  8
0
 10
-71.9974
 20
1.24371
 11
-71.8607
 21
0.841156
  0
LINE
  8
0
 10
-71.8607
 20
0.841156
 11
-71.7778
 21
0.42421
  0
LINE
  8
0
 10
-71.7778
 20
0.42421
 11
-71.75
 21
0
  0
LINE
  8
0
 10
-71.75
 20
0
 11
-71.7778
 21
-0.42421
  0
LINE
  8
0
 10
-71.7778
 20
-0.42421
 11
-71.8607
 21
-0.841156
  0
LINE
  8
0
 10
-71.8607
 20
-0.841156
 11
-71.9974
 21
-1.24371
  0
LINE
  8
0
 10
-71.9974
 20
-1.24371
 11
-72.1854
 21
-1.625
  0
LINE
  8
0
 10
-72.1854
 20
-1.625
 11
-72.4216
 21
-1.97847
  0
LINE
  8
0
 10
-72.4216
 20
-1.97847
 11
-72.7019
 21
-2.2981
  0
LINE
  8
0
 10
-72.7019
 20
-2.2981
 11
-73.0215
 21
-2.57838
  0
LINE
  8
0
 10
-73.0215
 20
-2.57838
 11
-73.375
 21
-2.81458
  0
LINE
  8
0
 10
-73.375
 20
-2.81458
 11
-73.7563
 21
-3.00259
  0
LINE
  8
0
 10
-73.7563
 20
-3.00259
 11
-74.1588
 21
-3.13925
  0
LINE
  8
0
 10
-74.1588
 20
-3.13925
 11
-74.5758
 21
-3.22218
  0
LINE
  8
0
 10
-74.5758
 20
-3.22218
 11
-75
 21
-3.25
  0
LINE
  8
0
 10
-75
 20
-3.25
 11
-75.4242
 21
-3.22218
  0
LINE
  8
0
 10
-0.42421
 20
-3.22218
 11
-0.841156
 21
-3.13925
  0
LINE
  8
0
 10
-0.841156
 20
-3.13925
 11
-1.24371
 21
-3.00259
  0
LINE
  8
0
 10
-1.24371
 20
-3.00259
 11
-1.625
 21
-2.81458
  0
LINE
  8
0
 10
-1.625
 20
-2.81458
 11
-1.97847
 21
-2.57838
  0
LINE
  8
0
 10
-1.97847
 20
-2.57838
 11
-2.2981
 21
-2.2981
  0
LINE
  8
0
 10
-2.2981
 20
-2.2981
 11
-2.57838
 21
-1.97847
  0
LINE
  8
0
 10
-2.57838
 20
-1.97847
 11
-2.81458
 21
-1.625
  0
LINE
  8
0
 10
-2.81458
 20
-1.625
 11
-3.00259
 21
-1.24371
  0
LINE
  8
0
 10
-3.00259
 20
-1.24371
 11
-3.13925
 21
-0.841156
  0
LINE
  8
0
 10
-3.13925
 20
-0.841156
 11
-3.22218
 21
-0.42421
  0
LINE
  8
0
 10
-3.22218
 20
-0.42421
 11
-3.25
 21
0
  0
LINE
  8
0
 10
-3.25
 20
0
 11
-3.22218
 21
0.42421
  0
LINE
  8
0
 10
-3.22218
 20
0.42421
 11
-3.13925
 21
0.841156
  0
LINE
  8
0
 10
-3.13925
 20
0.841156
 11
-3.00259
 21
1.24371
  0
LINE
  8
0
 10
-3.00259
 20
1.24371
 11
-2.81458
 21
1.625
  0
LINE
  8
0
 10
-2.81458
 20
1.625
 11
-2.57838
 21
1.97847
  0
LINE
  8
0
 10
-2.57838
 20
1.97847
 11
-2.2981
 21
2.2981
  0
LINE
  8
0
 10
-2.2981
 20
2.2981
 11
-1.97847
 21
2.57838
  0
LINE
  8
0
 10
-1.97847
 20
2.57838
 11
-1.625
 21
2.81458
  0
LINE
  8
0
 10
-1.625
 20
2.81458
 11
-1.24371
 21
3.00259
  0
LINE
  8
0
 10
-1.24371
 20
3.00259
 11
-0.841156
 21
3.13925
  0
LINE
  8
0
 10
-0.841156
 20
3.13925
 11
-0.42421
 21
3.22218
  0
LINE
  8
0
 10
-0.42421
 20
3.22218
 11
0
 21
3.25
  0
LINE
  8
0
 10
0
 20
3.25
 11
0.42421
 21
3.22218
  0
LINE
  8
0
 10
0.42421
 20
3.22218
 11
0.841156
 21
3.13925
  0
LINE
  8
0
 10
0.841156
 20
3.13925
 11
1.24371
 21
3.00259
  0
LINE
  8
0
 10
1.24371
 20
3.00259
 11
1.625
 21
2.81458
  0
LINE
  8
0
 10
1.625
 20
2.81458
 11
1.97847
 21
2.57838
  0
LINE
  8
0
 10
1.97847
 20
2.57838
 11
2.2981
 21
2.2981
  0
LINE
  8
0
 10
2.2981
 20
2.2981
 11
2.57838
 21
1.97847
  0
LINE
  8
0
 10
2.57838
 20
1.97847
 11
2.81458
 21
1.625
  0
LINE
  8
0
 10
2.81458
 20
1.625
 11
3.00259
 21
1.24371
  0
LINE
  8
0
 10
3.00259
 20
1.24371
 11
3.13925
 21
0.841156
  0
LINE
  8
0
 10
3.13925
 20
0.841156
 11
3.22218
 21
0.42421
  0
LINE
  8
0
 10
3.22218
 20
0.42421
 11
3.25
 21
0
  0
LINE
  8
0
 10
3.25
 20
0
 11
3.22218
 21
-0.42421
  0
LINE
  8
0
 10
3.22218
 20
-0.42421
 11
3.13925
 21
-0.841156
  0
LINE
  8
0
 10
3.13925
 20
-0.841156
 11
3.00259
 21
-1.24371
  0
LINE
  8
0
 10
3.00259
 20
-1.24371
 11
2.81458
 21
-1.625
  0
LINE
  8
0
 10
2.81458
 20
-1.625
 11
2.57838
 21
-1.97847
  0
LINE
  8
0
 10
2.57838
 20
-1.97847
 11
2.2981
 21
-2.2981
  0
LINE
  8
0
 10
2.2981
 20
-2.2981
 11
1.97847
 21
-2.57838
  0
LINE
  8
0
 10
1.97847
 20
-2.57838
 11
1.625
 21
-2.81458
  0
LINE
  8
0
 10
1.625
 20
-2.81458
 11
1.24371
 21
-3.00259
  0
LINE
  8
0
 10
1.24371
 20
-3.00259
 11
0.841156
 21
-3.13925
  0
LINE
  8
0
 10
0.841156
 20
-3.13925
 11
0.42421
 21
-3.22218
  0
LINE
  8
0
 10
0.42421
 20
-3.22218
 11
0
 21
-3.25
  0
LINE
  8
0
 10
0
 20
-3.25
 11
-0.42421
 21
-3.22218
  0
LINE
  8
0
 10
-45.4242
 20
-3.22218
 11
-45.8412
 21
-3.13925
  0
LINE
  8
0
 10
-45.8412
 20
-3.13925
 11
-46.2437
 21
-3.00259
  0
LINE
  8
0
 10
-46.2437
 20
-3.00259
 11
-46.625
 21
-2.81458
  0
LINE
  8
0
 10
-46.625
 20
-2.81458
 11
-46.9785
 21
-2.57838
  0
LINE
  8
0
 10
-46.9785
 20
-2.57838
 11
-47.2981
 21
-2.2981
  0
LINE
  8
0
 10
-47.2981
 20
-2.2981
 11
-47.5784
 21
-1.97847
  0
LINE
  8
0
 10
-47.5784
 20
-1.97847
 11
-47.8146
 21
-1.625
  0
LINE
  8
0
 10
-47.8146
 20
-1.625
 11
-48.0026
 21
-1.24371
  0
LINE
  8
0
 10
-48.0026
 20
-1.24371
 11
-48.1393
 21
-0.841156
  0
LINE
  8
0
 10
-48.1393
 20
-0.841156
 11
-48.2222
 21
-0.42421
  0
LINE
  8
0
 10
-48.2222
 20
-0.42421
 11
-48.25
 21
0
  0
LINE
  8
0
 10
-48.25
 20
0
 11
-48.2222
 21
0.42421
  0
LINE
  8
0
 10
-48.2222
 20
0.42421
 11
-48.1393
 21
0.841156
  0
LINE
  8
0
 10
-48.1393
 20
0.841156
 11
-48.0026
 21
1.24371
  0
LINE
  8
0
 10
-48.0026
 20
1.24371
 11
-47.8146
 21
1.625
  0
LINE
  8
0
 10
-47.8146
 20
1.625
 11
-47.5784
 21
1.97847
  0
LINE
  8
0
 10
-47.5784
 20
1.97847
 11
-47.2981
 21
2.2981
  0
LINE
  8
0
 10
-47.2981
 20
2.2981
 11
-46.9785
 21
2.57838
  0
LINE
  8
0
 10
-46.9785
 20
2.57838
 11
-46.625
 21
2.81458
  0
LINE
  8
0
 10
-46.625
 20
2.81458
 11
-46.2437
 21
3.00259
  0
LINE
  8
0
 10
-46.2437
 20
3.00259
 11
-45.8412
 21
3.13925
  0
LINE
  8
0
 10
-45.8412
 20
3.13925
 11
-45.4242
 21
3.22218
  0
LINE
  8
0
 10
-45.4242
 20
3.22218
 11
-45
 21
3.25
  0
LINE
  8
0
 10
-45
 20
3.25
 11
-44.5758
 21
3.22218
  0
LINE
  8
0
 10
-44.5758
 20
3.22218
 11
-44.1588
 21
3.13925
  0
LINE
  8
0
 10
-44.1588
 20
3.13925
 11
-43.7563
 21
3.00259
  0
LINE
  8
0
 10
-43.7563
 20
3.00259
 11
-43.375
 21
2.81458
  0
LINE
  8
0
 10
-43.375
 20
2.81458
 11
-43.0215
 21
2.57838
  0
LINE
  8
0
 10
-43.0215
 20
2.57838
 11
-42.7019
 21
2.2981
  0
LINE
  8
0
 10
-42.7019
 20
2.2981
 11
-42.4216
 21
1.97847
  0
LINE
  8
0
 10
-42.4216
 20
1.97847
 11
-42.1854
 21
1.625
  0
LINE
  8
0
 10
-42.1854
 20
1.625
 11
-41.9974
 21
1.24371
  0
LINE
  8
0
 10
-41.9974
 20
1.24371
 11
-41.8607
 21
0.841156
  0
LINE
  8
0
 10
-41.8607
 20
0.841156
 11
-41.7778
 21
0.42421
  0
LINE
  8
0
 10
-41.7778
 20
0.42421
 11
-41.75
 21
0
  0
LINE
  8
0
 10
-41.75
 20
0
 11
-41.7778
 21
-0.42421
  0
LINE
  8
0
 10
-41.7778
 20
-0.42421
 11
-41.8607
 21
-0.841156
  0
LINE
  8
0
 10
-41.8607
 20
-0.841156
 11
-41.9974
 21
-1.24371
  0
LINE
  8
0
 10
-41.9974
 20
-1.24371
 11
-42.1854
 21
-1.625
  0
LINE
  8
0
 10
-42.1854
 20
-1.625
 11
-42.4216
 21
-1.97847
  0
LINE
  8
0
 10
-42.4216
 20
-1.97847
 11
-42.7019
 21
-2.2981
  0
LINE
  8
0
 10
-42.7019
 20
-2.2981
 11
-43.0215
 21
-2.57838
  0
LINE
  8
0
 10
-43.0215
 20
-2.57838
 11
-43.375
 21
-2.81458
  0
LINE
  8
0
 10
-43.375
 20
-2.81458
 11
-43.7563
 21
-3.00259
  0
LINE
  8
0
 10
-43.7563
 20
-3.00259
 11
-44.1588
 21
-3.13925
  0
LINE
  8
0
 10
-44.1588
 20
-3.13925
 11
-44.5758
 21
-3.22218
  0
LINE
  8
0
 10
-44.5758
 20
-3.22218
 11
-45
 21
-3.25
  0
LINE
  8
0
 10
-45
 20
-3.25
 11
-45.4242
 21
-3.22218
  0
LINE
  8
0
 10
14.5758
 20
-3.22218
 11
14.1588
 21
-3.13925
  0
LINE
  8
0
 10
14.1588
 20
-3.13925
 11
13.7563
 21
-3.00259
  0
LINE
  8
0
 10
13.7563
 20
-3.00259
 11
13.375
 21
-2.81458
  0
LINE
  8
0
 10
13.375
 20
-2.81458
 11
13.0215
 21
-2.57838
  0
LINE
  8
0
 10
13.0215
 20
-2.57838
 11
12.7019
 21
-2.2981
  0
LINE
  8
0
 10
12.7019
 20
-2.2981
 11
12.4216
 21
-1.97847
  0
LINE
  8
0
 10
12.4216
 20
-1.97847
 11
12.1854
 21
-1.625
  0
LINE
  8
0
 10
12.1854
 20
-1.625
 11
11.9974
 21
-1.24371
  0
LINE
  8
0
 10
11.9974
 20
-1.24371
 11
11.8607
 21
-0.841156
  0
LINE
  8
0
 10
11.8607
 20
-0.841156
 11
11.7778
 21
-0.42421
  0
LINE
  8
0
 10
11.7778
 20
-0.42421
 11
11.75
 21
0
  0
LINE
  8
0
 10
11.75
 20
0
 11
11.7778
 21
0.42421
  0
LINE
  8
0
 10
11.7778
 20
0.42421
 11
11.8607
 21
0.841156
  0
LINE
  8
0
 10
11.8607
 20
0.841156
 11
11.9974
 21
1.24371
  0
LINE
  8
0
 10
11.9974
 20
1.24371
 11
12.1854
 21
1.625
  0
LINE
  8
0
 10
12.1854
 20
1.625
 11
12.4216
 21
1.97847
  0
LINE
  8
0
 10
12.4216
 20
1.97847
 11
12.7019
 21
2.2981
  0
LINE
  8
0
 10
12.7019
 20
2.2981
 11
13.0215
 21
2.57838
  0
LINE
  8
0
 10
13.0215
 20
2.57838
 11
13.375
 21
2.81458
  0
LINE
  8
0
 10
13.375
 20
2.81458
 11
13.7563
 21
3.00259
  0
LINE
  8
0
 10
13.7563
 20
3.00259
 11
14.1588
 21
3.13925
  0
LINE
  8
0
 10
14.1588
 20
3.13925
 11
14.5758
 21
3.22218
  0
LINE
  8
0
 10
14.5758
 20
3.22218
 11
15
 21
3.25
  0
LINE
  8
0
 10
15
 20
3.25
 11
15.4242
 21
3.22218
  0
LINE
  8
0
 10
15.4242
 20
3.22218
 11
15.8412
 21
3.13925
  0
LINE
  8
0
 10
15.8412
 20
3.13925
 11
16.2437
 21
3.00259
  0
LINE
  8
0
 10
16.2437
 20
3.00259
 11
16.625
 21
2.81458
  0
LINE
  8
0
 10
16.625
 20
2.81458
 11
16.9785
 21
2.57838
  0
LINE
  8
0
 10
16.9785
 20
2.57838
 11
17.2981
 21
2.2981
  0
LINE
  8
0
 10
17.2981
 20
2.2981
 11
17.5784
 21
1.97847
  0
LINE
  8
0
 10
17.5784
 20
1.97847
 11
17.8146
 21
1.625
  0
LINE
  8
0
 10
17.8146
 20
1.625
 11
18.0026
 21
1.24371
  0
LINE
  8
0
 10
18.0026
 20
1.24371
 11
18.1393
 21
0.841156
  0
LINE
  8
0
 10
18.1393
 20
0.841156
 11
18.2222
 21
0.42421
  0
LINE
  8
0
 10
18.2222
 20
0.42421
 11
18.25
 21
0
  0
LINE
  8
0
 10
18.25
 20
0
 11
18.2222
 21
-0.42421
  0
LINE
  8
0
 10
18.2222
 20
-0.42421
 11
18.1393
 21
-0.841156
  0
LINE
  8
0
 10
18.1393
 20
-0.841156
 11
18.0026
 21
-1.24371
  0
LINE
  8
0
 10
18.0026
 20
-1.24371
 11
17.8146
 21
-1.625
  0
LINE
  8
0
 10
17.8146
 20
-1.625
 11
17.5784
 21
-1.97847
  0
LINE
  8
0
 10
17.5784
 20
-1.97847
 11
17.2981
 21
-2.2981
  0
LINE
  8
0
 10
17.2981
 20
-2.2981
 11
16.9785
 21
-2.57838
  0
LINE
  8
0
 10
16.9785
 20
-2.57838
 11
16.625
 21
-2.81458
  0
LINE
  8
0
 10
16.625
 20
-2.81458
 11
16.2437
 21
-3.00259
  0
LINE
  8
0
 10
16.2437
 20
-3.00259
 11
15.8412
 21
-3.13925
  0
LINE
  8
0
 10
15.8412
 20
-3.13925
 11
15.4242
 21
-3.22218
  0
LINE
  8
0
 10
15.4242
 20
-3.22218
 11
15
 21
-3.25
  0
LINE
  8
0
 10
15
 20
-3.25
 11
14.5758
 21
-3.22218
  0
LINE
  8
0
 10
44.5758
 20
-3.22218
 11
44.1588
 21
-3.13925
  0
LINE
  8
0
 10
44.1588
 20
-3.13925
 11
43.7563
 21
-3.00259
  0
LINE
  8
0
 10
43.7563
 20
-3.00259
 11
43.375
 21
-2.81458
  0
LINE
  8
0
 10
43.375
 20
-2.81458
 11
43.0215
 21
-2.57838
  0
LINE
  8
0
 10
43.0215
 20
-2.57838
 11
42.7019
 21
-2.2981
  0
LINE
  8
0
 10
42.7019
 20
-2.2981
 11
42.4216
 21
-1.97847
  0
LINE
  8
0
 10
42.4216
 20
-1.97847
 11
42.1854
 21
-1.625
  0
LINE
  8
0
 10
42.1854
 20
-1.625
 11
41.9974
 21
-1.24371
  0
LINE
  8
0
 10
41.9974
 20
-1.24371
 11
41.8607
 21
-0.841156
  0
LINE
  8
0
 10
41.8607
 20
-0.841156
 11
41.7778
 21
-0.42421
  0
LINE
  8
0
 10
41.7778
 20
-0.42421
 11
41.75
 21
0
  0
LINE
  8
0
 10
41.75
 20
0
 11
41.7778
 21
0.42421
  0
LINE
  8
0
 10
41.7778
 20
0.42421
 11
41.8607
 21
0.841156
  0
LINE
  8
0
 10
41.8607
 20
0.841156
 11
41.9974
 21
1.24371
  0
LINE
  8
0
 10
41.9974
 20
1.24371
 11
42.1854
 21
1.625
  0
LINE
  8
0
 10
42.1854
 20
1.625
 11
42.4216
 21
1.97847
  0
LINE
  8
0
 10
42.4216
 20
1.97847
 11
42.7019
 21
2.2981
  0
LINE
  8
0
 10
42.7019
 20
2.2981
 11
43.0215
 21
2.57838
  0
LINE
  8
0
 10
43.0215
 20
2.57838
 11
43.375
 21
2.81458
  0
LINE
  8
0
 10
43.375
 20
2.81458
 11
43.7563
 21
3.00259
  0
LINE
  8
0
 10
43.7563
 20
3.00259
 11
44.1588
 21
3.13925
  0
LINE
  8
0
 10
44.1588
 20
3.13925
 11
44.5758
 21
3.22218
  0
LINE
  8
0
 10
44.5758
 20
3.22218
 11
45
 21
3.25
  0
LINE
  8
0
 10
45
 20
3.25
 11
45.4242
 21
3.22218
  0
LINE
  8
0
 10
45.4242
 20
3.22218
 11
45.8412
 21
3.13925
  0
LINE
  8
0
 10
45.8412
 20
3.13925
 11
46.2437
 21
3.00259
  0
LINE
  8
0
 10
46.2437
 20
3.00259
 11
46.625
 21
2.81458
  0
LINE
  8
0
 10
46.625
 20
2.81458
 11
46.9785
 21
2.57838
  0
LINE
  8
0
 10
46.9785
 20
2.57838
 11
47.2981
 21
2.2981
  0
LINE
  8
0
 10
47.2981
 20
2.2981
 11
47.5784
 21
1.97847
  0
LINE
  8
0
 10
47.5784
 20
1.97847
 11
47.8146
 21
1.625
  0
LINE
  8
0
 10
47.8146
 20
1.625
 11
48.0026
 21
1.24371
  0
LINE
  8
0
 10
48.0026
 20
1.24371
 11
48.1393
 21
0.841156
  0
LINE
  8
0
 10
48.1393
 20
0.841156
 11
48.2222
 21
0.42421
  0
LINE
  8
0
 10
48.2222
 20
0.42421
 11
48.25
 21
0
  0
LINE
  8
0
 10
48.25
 20
0
 11
48.2222
 21
-0.42421
  0
LINE
  8
0
 10
48.2222
 20
-0.42421
 11
48.1393
 21
-0.841156
  0
LINE
  8
0
 10
48.1393
 20
-0.841156
 11
48.0026
 21
-1.24371
  0
LINE
  8
0
 10
48.0026
 20
-1.24371
 11
47.8146
 21
-1.625
  0
LINE
  8
0
 10
47.8146
 20
-1.625
 11
47.5784
 21
-1.97847
  0
LINE
  8
0
 10
47.5784
 20
-1.97847
 11
47.2981
 21
-2.2981
  0
LINE
  8
0
 10
47.2981
 20
-2.2981
 11
46.9785
 21
-2.57838
  0
LINE
  8
0
 10
46.9785
 20
-2.57838
 11
46.625
 21
-2.81458
  0
LINE
  8
0
 10
46.625
 20
-2.81458
 11
46.2437
 21
-3.00259
  0
LINE
  8
0
 10
46.2437
 20
-3.00259
 11
45.8412
 21
-3.13925
  0
LINE
  8
0
 10
45.8412
 20
-3.13925
 11
45.4242
 21
-3.22218
  0
LINE
  8
0
 10
45.4242
 20
-3.22218
 11
45
 21
-3.25
  0
LINE
  8
0
 10
45
 20
-3.25
 11
44.5758
 21
-3.22218
  0
LINE
  8
0
 10
59.5758
 20
-3.22218
 11
59.1588
 21
-3.13925
  0
LINE
  8
0
 10
59.1588
 20
-3.13925
 11
58.7563
 21
-3.00259
  0
LINE
  8
0
 10
58.7563
 20
-3.00259
 11
58.375
 21
-2.81458
  0
LINE
  8
0
 10
58.375
 20
-2.81458
 11
58.0215
 21
-2.57838
  0
LINE
  8
0
 10
58.0215
 20
-2.57838
 11
57.7019
 21
-2.2981
  0
LINE
  8
0
 10
57.7019
 20
-2.2981
 11
57.4216
 21
-1.97847
  0
LINE
  8
0
 10
57.4216
 20
-1.97847
 11
57.1854
 21
-1.625
  0
LINE
  8
0
 10
57.1854
 20
-1.625
 11
56.9974
 21
-1.24371
  0
LINE
  8
0
 10
56.9974
 20
-1.24371
 11
56.8607
 21
-0.841156
  0
LINE
  8
0
 10
56.8607
 20
-0.841156
 11
56.7778
 21
-0.42421
  0
LINE
  8
0
 10
56.7778
 20
-0.42421
 11
56.75
 21
0
  0
LINE
  8
0
 10
56.75
 20
0
 11
56.7778
 21
0.42421
  0
LINE
  8
0
 10
56.7778
 20
0.42421
 11
56.8607
 21
0.841156
  0
LINE
  8
0
 10
56.8607
 20
0.841156
 11
56.9974
 21
1.24371
  0
LINE
  8
0
 10
56.9974
 20
1.24371
 11
57.1854
 21
1.625
  0
LINE
  8
0
 10
57.1854
 20
1.625
 11
57.4216
 21
1.97847
  0
LINE
  8
0
 10
57.4216
 20
1.97847
 11
57.7019
 21
2.2981
  0
LINE
  8
0
 10
57.7019
 20
2.2981
 11
58.0215
 21
2.57838
  0
LINE
  8
0
 10
58.0215
 20
2.57838
 11
58.375
 21
2.81458
  0
LINE
  8
0
 10
58.375
 20
2.81458
 11
58.7563
 21
3.00259
  0
LINE
  8
0
 10
58.7563
 20
3.00259
 11
59.1588
 21
3.13925
  0
LINE
  8
0
 10
59.1588
 20
3.13925
 11
59.5758
 21
3.22218
  0
LINE
  8
0
 10
59.5758
 20
3.22218
 11
60
 21
3.25
  0
LINE
  8
0
 10
60
 20
3.25
 11
60.4242
 21
3.22218
  0
LINE
  8
0
 10
60.4242
 20
3.22218
 11
60.8412
 21
3.13925
  0
LINE
  8
0
 10
60.8412
 20
3.13925
 11
61.2437
 21
3.00259
  0
LINE
  8
0
 10
61.2437
 20
3.00259
 11
61.625
 21
2.81458
  0
LINE
  8
0
 10
61.625
 20
2.81458
 11
61.9785
 21
2.57838
  0
LINE
  8
0
 10
61.9785
 20
2.57838
 11
62.2981
 21
2.2981
  0
LINE
  8
0
 10
62.2981
 20
2.2981
 11
62.5784
 21
1.97847
  0
LINE
  8
0
 10
62.5784
 20
1.97847
 11
62.8146
 21
1.625
  0
LINE
  8
0
 10
62.8146
 20
1.625
 11
63.0026
 21
1.24371
  0
LINE
  8
0
 10
63.0026
 20
1.24371
 11
63.1393
 21
0.841156
  0
LINE
  8
0
 10
63.1393
 20
0.841156
 11
63.2222
 21
0.42421
  0
LINE
  8
0
 10
63.2222
 20
0.42421
 11
63.25
 21
0
  0
LINE
  8
0
 10
63.25
 20
0
 11
63.2222
 21
-0.42421
  0
LINE
  8
0
 10
63.2222
 20
-0.42421
 11
63.1393
 21
-0.841156
  0
LINE
  8
0
 10
63.1393
 20
-0.841156
 11
63.0026
 21
-1.24371
  0
LINE
  8
0
 10
63.0026
 20
-1.24371
 11
62.8146
 21
-1.625
  0
LINE
  8
0
 10
62.8146
 20
-1.625
 11
62.5784
 21
-1.97847
  0
LINE
  8
0
 10
62.5784
 20
-1.97847
 11
62.2981
 21
-2.2981
  0
LINE
  8
0
 10
62.2981
 20
-2.2981
 11
61.9785
 21
-2.57838
  0
LINE
  8
0
 10
61.9785
 20
-2.57838
 11
61.625
 21
-2.81458
  0
LINE
  8
0
 10
61.625
 20
-2.81458
 11
61.2437
 21
-3.00259
  0
LINE
  8
0
 10
61.2437
 20
-3.00259
 11
60.8412
 21
-3.13925
  0
LINE
  8
0
 10
60.8412
 20
-3.13925
 11
60.4242
 21
-3.22218
  0
LINE
  8
0
 10
60.4242
 20
-3.22218
 11
60
 21
-3.25
  0
LINE
  8
0
 10
60
 20
-3.25
 11
59.5758
 21
-3.22218
  0
LINE
  8
0
 10
89.5758
 20
-3.22218
 11
89.1588
 21
-3.13925
  0
LINE
  8
0
 10
89.1588
 20
-3.13925
 11
88.7563
 21
-3.00259
  0
LINE
  8
0
 10
88.7563
 20
-3.00259
 11
88.375
 21
-2.81458
  0
LINE
  8
0
 10
88.375
 20
-2.81458
 11
88.0215
 21
-2.57838
  0
LINE
  8
0
 10
88.0215
 20
-2.57838
 11
87.7019
 21
-2.2981
  0
LINE
  8
0
 10
87.7019
 20
-2.2981
 11
87.4216
 21
-1.97847
  0
LINE
  8
0
 10
87.4216
 20
-1.97847
 11
87.1854
 21
-1.625
  0
LINE
  8
0
 10
87.1854
 20
-1.625
 11
86.9974
 21
-1.24371
  0
LINE
  8
0
 10
86.9974
 20
-1.24371
 11
86.8607
 21
-0.841156
  0
LINE
  8
0
 10
86.8607
 20
-0.841156
 11
86.7778
 21
-0.42421
  0
LINE
  8
0
 10
86.7778
 20
-0.42421
 11
86.75
 21
0
  0
LINE
  8
0
 10
86.75
 20
0
 11
86.7778
 21
0.42421
  0
LINE
  8
0
 10
86.7778
 20
0.42421
 11
86.8607
 21
0.841156
  0
LINE
  8
0
 10
86.8607
 20
0.841156
 11
86.9974
 21
1.24371
  0
LINE
  8
0
 10
86.9974
 20
1.24371
 11
87.1854
 21
1.625
  0
LINE
  8
0
 10
87.1854
 20
1.625
 11
87.4216
 21
1.97847
  0
LINE
  8
0
 10
87.4216
 20
1.97847
 11
87.7019
 21
2.2981
  0
LINE
  8
0
 10
87.7019
 20
2.2981
 11
88.0215
 21
2.57838
  0
LINE
  8
0
 10
88.0215
 20
2.57838
 11
88.375
 21
2.81458
  0
LINE
  8
0
 10
88.375
 20
2.81458
 11
88.7563
 21
3.00259
  0
LINE
  8
0
 10
88.7563
 20
3.00259
 11
89.1588
 21
3.13925
  0
LINE
  8
0
 10
89.1588
 20
3.13925
 11
89.5758
 21
3.22218
  0
LINE
  8
0
 10
89.5758
 20
3.22218
 11
90
 21
3.25
  0
LINE
  8
0
 10
90
 20
3.25
 11
90.4242
 21
3.22218
  0
LINE
  8
0
 10
90.4242
 20
3.22218
 11
90.8412
 21
3.13925
  0
LINE
  8
0
 10
90.8412
 20
3.13925
 11
91.2437
 21
3.00259
  0
LINE
  8
0
 10
91.2437
 20
3.00259
 11
91.625
 21
2.81458
  0
LINE
  8
0
 10
91.625
 20
2.81458
 11
91.9785
 21
2.57838
  0
LINE
  8
0
 10
91.9785
 20
2.57838
 11
92.2981
 21
2.2981
  0
LINE
  8
0
 10
92.2981
 20
2.2981
 11
92.5784
 21
1.97847
  0
LINE
  8
0
 10
92.5784
 20
1.97847
 11
92.8146
 21
1.625
  0
LINE
  8
0
 10
92.8146
 20
1.625
 11
93.0026
 21
1.24371
  0
LINE
  8
0
 10
93.0026
 20
1.24371
 11
93.1393
 21
0.841156
  0
LINE
  8
0
 10
93.1393
 20
0.841156
 11
93.2222
 21
0.42421
  0
LINE
  8
0
 10
93.2222
 20
0.42421
 11
93.25
 21
0
  0
LINE
  8
0
 10
93.25
 20
0
 11
93.2222
 21
-0.42421
  0
LINE
  8
0
 10
93.2222
 20
-0.42421
 11
93.1393
 21
-0.841156
  0
LINE
  8
0
 10
93.1393
 20
-0.841156
 11
93.0026
 21
-1.24371
  0
LINE
  8
0
 10
93.0026
 20
-1.24371
 11
92.8146
 21
-1.625
  0
LINE
  8
0
 10
92.8146
 20
-1.625
 11
92.5784
 21
-1.97847
  0
LINE
  8
0
 10
92.5784
 20
-1.97847
 11
92.2981
 21
-2.2981
  0
LINE
  8
0
 10
92.2981
 20
-2.2981
 11
91.9785
 21
-2.57838
  0
LINE
  8
0
 10
91.9785
 20
-2.57838
 11
91.625
 21
-2.81458
  0
LINE
  8
0
 10
91.625
 20
-2.81458
 11
91.2437
 21
-3.00259
  0
LINE
  8
0
 10
91.2437
 20
-3.00259
 11
90.8412
 21
-3.13925
  0
LINE
  8
0
 10
90.8412
 20
-3.13925
 11
90.4242
 21
-3.22218
  0
LINE
  8
0
 10
90.4242
 20
-3.22218
 11
90
 21
-3.25
  0
LINE
  8
0
 10
90
 20
-3.25
 11
89.5758
 21
-3.22218
  0
LINE
  8
0
 10
29.5758
 20
-3.22218
 11
29.1588
 21
-3.13925
  0
LINE
  8
0
 10
29.1588
 20
-3.13925
 11
28.7563
 21
-3.00259
  0
LINE
  8
0
 10
28.7563
 20
-3.00259
 11
28.375
 21
-2.81458
  0
LINE
  8
0
 10
28.375
 20
-2.81458
 11
28.0215
 21
-2.57838
  0
LINE
  8
0
 10
28.0215
 20
-2.57838
 11
27.7019
 21
-2.2981
  0
LINE
  8
0
 10
27.7019
 20
-2.2981
 11
27.4216
 21
-1.97847
  0
LINE
  8
0
 10
27.4216
 20
-1.97847
 11
27.1854
 21
-1.625
  0
LINE
  8
0
 10
27.1854
 20
-1.625
 11
26.9974
 21
-1.24371
  0
LINE
  8
0
 10
26.9974
 20
-1.24371
 11
26.8607
 21
-0.841156
  0
LINE
  8
0
 10
26.8607
 20
-0.841156
 11
26.7778
 21
-0.42421
  0
LINE
  8
0
 10
26.7778
 20
-0.42421
 11
26.75
 21
0
  0
LINE
  8
0
 10
26.75
 20
0
 11
26.7778
 21
0.42421
  0
LINE
  8
0
 10
26.7778
 20
0.42421
 11
26.8607
 21
0.841156
  0
LINE
  8
0
 10
26.8607
 20
0.841156
 11
26.9974
 21
1.24371
  0
LINE
  8
0
 10
26.9974
 20
1.24371
 11
27.1854
 21
1.625
  0
LINE
  8
0
 10
27.1854
 20
1.625
 11
27.4216
 21
1.97847
  0
LINE
  8
0
 10
27.4216
 20
1.97847
 11
27.7019
 21
2.2981
  0
LINE
  8
0
 10
27.7019
 20
2.2981
 11
28.0215
 21
2.57838
  0
LINE
  8
0
 10
28.0215
 20
2.57838
 11
28.375
 21
2.81458
  0
LINE
  8
0
 10
28.375
 20
2.81458
 11
28.7563
 21
3.00259
  0
LINE
  8
0
 10
28.7563
 20
3.00259
 11
29.1588
 21
3.13925
  0
LINE
  8
0
 10
29.1588
 20
3.13925
 11
29.5758
 21
3.22218
  0
LINE
  8
0
 10
29.5758
 20
3.22218
 11
30
 21
3.25
  0
LINE
  8
0
 10
30
 20
3.25
 11
30.4242
 21
3.22218
  0
LINE
  8
0
 10
30.4242
 20
3.22218
 11
30.8412
 21
3.13925
  0
LINE
  8
0
 10
30.8412
 20
3.13925
 11
31.2437
 21
3.00259
  0
LINE
  8
0
 10
31.2437
 20
3.00259
 11
31.625
 21
2.81458
  0
LINE
  8
0
 10
31.625
 20
2.81458
 11
31.9785
 21
2.57838
  0
LINE
  8
0
 10
31.9785
 20
2.57838
 11
32.2981
 21
2.2981
  0
LINE
  8
0
 10
32.2981
 20
2.2981
 11
32.5784
 21
1.97847
  0
LINE
  8
0
 10
32.5784
 20
1.97847
 11
32.8146
 21
1.625
  0
LINE
  8
0
 10
32.8146
 20
1.625
 11
33.0026
 21
1.24371
  0
LINE
  8
0
 10
33.0026
 20
1.24371
 11
33.1393
 21
0.841156
  0
LINE
  8
0
 10
33.1393
 20
0.841156
 11
33.2222
 21
0.42421
  0
LINE
  8
0
 10
33.2222
 20
0.42421
 11
33.25
 21
0
  0
LINE
  8
0
 10
33.25
 20
0
 11
33.2222
 21
-0.42421
  0
LINE
  8
0
 10
33.2222
 20
-0.42421
 11
33.1393
 21
-0.841156
  0
LINE
  8
0
 10
33.1393
 20
-0.841156
 11
33.0026
 21
-1.24371
  0
LINE
  8
0
 10
33.0026
 20
-1.24371
 11
32.8146
 21
-1.625
  0
LINE
  8
0
 10
32.8146
 20
-1.625
 11
32.5784
 21
-1.97847
  0
LINE
  8
0
 10
32.5784
 20
-1.97847
 11
32.2981
 21
-2.2981
  0
LINE
  8
0
 10
32.2981
 20
-2.2981
 11
31.9785
 21
-2.57838
  0
LINE
  8
0
 10
31.9785
 20
-2.57838
 11
31.625
 21
-2.81458
  0
LINE
  8
0
 10
31.625
 20
-2.81458
 11
31.2437
 21
-3.00259
  0
LINE
  8
0
 10
31.2437
 20
-3.00259
 11
30.8412
 21
-3.13925
  0
LINE
  8
0
 10
30.8412
 20
-3.13925
 11
30.4242
 21
-3.22218
  0
LINE
  8
0
 10
30.4242
 20
-3.22218
 11
30
 21
-3.25
  0
LINE
  8
0
 10
30
 20
-3.25
 11
29.5758
 21
-3.22218
  0
LINE
  8
0
 10
104.576
 20
-3.22218
 11
104.159
 21
-3.13925
  0
LINE
  8
0
 10
104.159
 20
-3.13925
 11
103.756
 21
-3.00259
  0
LINE
  8
0
 10
103.756
 20
-3.00259
 11
103.375
 21
-2.81458
  0
LINE
  8
0
 10
103.375
 20
-2.81458
 11
103.022
 21
-2.57838
  0
LINE
  8
0
 10
103.022
 20
-2.57838
 11
102.702
 21
-2.2981
  0
LINE
  8
0
 10
102.702
 20
-2.2981
 11
102.422
 21
-1.97847
  0
LINE
  8
0
 10
102.422
 20
-1.97847
 11
102.185
 21
-1.625
  0
LINE
  8
0
 10
102.185
 20
-1.625
 11
101.997
 21
-1.24371
  0
LINE
  8
0
 10
101.997
 20
-1.24371
 11
101.861
 21
-0.841156
  0
LINE
  8
0
 10
101.861
 20
-0.841156
 11
101.778
 21
-0.42421
  0
LINE
  8
0
 10
101.778
 20
-0.42421
 11
101.75
 21
0
  0
LINE
  8
0
 10
101.75
 20
0
 11
101.778
 21
0.42421
  0
LINE
  8
0
 10
101.778
 20
0.42421
 11
101.861
 21
0.841156
  0
LINE
  8
0
 10
101.861
 20
0.841156
 11
101.997
 21
1.24371
  0
LINE
  8
0
 10
101.997
 20
1.24371
 11
102.185
 21
1.625
  0
LINE
  8
0
 10
102.185
 20
1.625
 11
102.422
 21
1.97847
  0
LINE
  8
0
 10
102.422
 20
1.97847
 11
102.702
 21
2.2981
  0
LINE
  8
0
 10
102.702
 20
2.2981
 11
103.022
 21
2.57838
  0
LINE
  8
0
 10
103.022
 20
2.57838
 11
103.375
 21
2.81458
  0
LINE
  8
0
 10
103.375
 20
2.81458
 11
103.756
 21
3.00259
  0
LINE
  8
0
 10
103.756
 20
3.00259
 11
104.159
 21
3.13925
  0
LINE
  8
0
 10
104.159
 20
3.13925
 11
104.576
 21
3.22218
  0
LINE
  8
0
 10
104.576
 20
3.22218
 11
105
 21
3.25
  0
LINE
  8
0
 10
105
 20
3.25
 11
105.424
 21
3.22218
  0
LINE
  8
0
 10
105.424
 20
3.22218
 11
105.841
 21
3.13925
  0
LINE
  8
0
 10
105.841
 20
3.13925
 11
106.244
 21
3.00259
  0
LINE
  8
0
 10
106.244
 20
3.00259
 11
106.625
 21
2.81458
  0
LINE
  8
0
 10
106.625
 20
2.81458
 11
106.978
 21
2.57838
  0
LINE
  8
0
 10
106.978
 20
2.57838
 11
107.298
 21
2.2981
  0
LINE
  8
0
 10
107.298
 20
2.2981
 11
107.578
 21
1.97847
  0
LINE
  8
0
 10
107.578
 20
1.97847
 11
107.815
 21
1.625
  0
LINE
  8
0
 10
107.815
 20
1.625
 11
108.003
 21
1.24371
  0
LINE
  8
0
 10
108.003
 20
1.24371
 11
108.139
 21
0.841156
  0
LINE
  8
0
 10
108.139
 20
0.841156
 11
108.222
 21
0.42421
  0
LINE
  8
0
 10
108.222
 20
0.42421
 11
108.25
 21
0
  0
LINE
  8
0
 10
108.25
 20
0
 11
108.222
 21
-0.42421
  0
LINE
  8
0
 10
108.222
 20
-0.42421
 11
108.139
 21
-0.841156
  0
LINE
  8
0
 10
108.139
 20
-0.841156
 11
108.003
 21
-1.24371
  0
LINE
  8
0
 10
108.003
 20
-1.24371
 11
107.815
 21
-1.625
  0
LINE
  8
0
 10
107.815
 20
-1.625
 11
107.578
 21
-1.97847
  0
LINE
  8
0
 10
107.578
 20
-1.97847
 11
107.298
 21
-2.2981
  0
LINE
  8
0
 10
107.298
 20
-2.2981
 11
106.978
 21
-2.57838
  0
LINE
  8
0
 10
106.978
 20
-2.57838
 11
106.625
 21
-2.81458
  0
LINE
  8
0
 10
106.625
 20
-2.81458
 11
106.244
 21
-3.00259
  0
LINE
  8
0
 10
106.244
 20
-3.00259
 11
105.841
 21
-3.13925
  0
LINE
  8
0
 10
105.841
 20
-3.13925
 11
105.424
 21
-3.22218
  0
LINE
  8
0
 10
105.424
 20
-3.22218
 11
105
 21
-3.25
  0
LINE
  8
0
 10
105
 20
-3.25
 11
104.576
 21
-3.22218
  0
LINE
  8
0
 10
74.5758
 20
-3.22218
 11
74.1588
 21
-3.13925
  0
LINE
  8
0
 10
74.1588
 20
-3.13925
 11
73.7563
 21
-3.00259
  0
LINE
  8
0
 10
73.7563
 20
-3.00259
 11
73.375
 21
-2.81458
  0
LINE
  8
0
 10
73.375
 20
-2.81458
 11
73.0215
 21
-2.57838
  0
LINE
  8
0
 10
73.0215
 20
-2.57838
 11
72.7019
 21
-2.2981
  0
LINE
  8
0
 10
72.7019
 20
-2.2981
 11
72.4216
 21
-1.97847
  0
LINE
  8
0
 10
72.4216
 20
-1.97847
 11
72.1854
 21
-1.625
  0
LINE
  8
0
 10
72.1854
 20
-1.625
 11
71.9974
 21
-1.24371
  0
LINE
  8
0
 10
71.9974
 20
-1.24371
 11
71.8607
 21
-0.841156
  0
LINE
  8
0
 10
71.8607
 20
-0.841156
 11
71.7778
 21
-0.42421
  0
LINE
  8
0
 10
71.7778
 20
-0.42421
 11
71.75
 21
0
  0
LINE
  8
0
 10
71.75
 20
0
 11
71.7778
 21
0.42421
  0
LINE
  8
0
 10
71.7778
 20
0.42421
 11
71.8607
 21
0.841156
  0
LINE
  8
0
 10
71.8607
 20
0.841156
 11
71.9974
 21
1.24371
  0
LINE
  8
0
 10
71.9974
 20
1.24371
 11
72.1854
 21
1.625
  0
LINE
  8
0
 10
72.1854
 20
1.625
 11
72.4216
 21
1.97847
  0
LINE
  8
0
 10
72.4216
 20
1.97847
 11
72.7019
 21
2.2981
  0
LINE
  8
0
 10
72.7019
 20
2.2981
 11
73.0215
 21
2.57838
  0
LINE
  8
0
 10
73.0215
 20
2.57838
 11
73.375
 21
2.81458
  0
LINE
  8
0
 10
73.375
 20
2.81458
 11
73.7563
 21
3.00259
  0
LINE
  8
0
 10
73.7563
 20
3.00259
 11
74.1588
 21
3.13925
  0
LINE
  8
0
 10
74.1588
 20
3.13925
 11
74.5758
 21
3.22218
  0
LINE
  8
0
 10
74.5758
 20
3.22218
 11
75
 21
3.25
  0
LINE
  8
0
 10
75
 20
3.25
 11
75.4242
 21
3.22218
  0
LINE
  8
0
 10
75.4242
 20
3.22218
 11
75.8412
 21
3.13925
  0
LINE
  8
0
 10
75.8412
 20
3.13925
 11
76.2437
 21
3.00259
  0
LINE
  8
0
 10
76.2437
 20
3.00259
 11
76.625
 21
2.81458
  0
LINE
  8
0
 10
76.625
 20
2.81458
 11
76.9785
 21
2.57838
  0
LINE
  8
0
 10
76.9785
 20
2.57838
 11
77.2981
 21
2.2981
  0
LINE
  8
0
 10
77.2981
 20
2.2981
 11
77.5784
 21
1.97847
  0
LINE
  8
0
 10
77.5784
 20
1.97847
 11
77.8146
 21
1.625
  0
LINE
  8
0
 10
77.8146
 20
1.625
 11
78.0026
 21
1.24371
  0
LINE
  8
0
 10
78.0026
 20
1.24371
 11
78.1393
 21
0.841156
  0
LINE
  8
0
 10
78.1393
 20
0.841156
 11
78.2222
 21
0.42421
  0
LINE
  8
0
 10
78.2222
 20
0.42421
 11
78.25
 21
0
  0
LINE
  8
0
 10
78.25
 20
0
 11
78.2222
 21
-0.42421
  0
LINE
  8
0
 10
78.2222
 20
-0.42421
 11
78.1393
 21
-0.841156
  0
LINE
  8
0
 10
78.1393
 20
-0.841156
 11
78.0026
 21
-1.24371
  0
LINE
  8
0
 10
78.0026
 20
-1.24371
 11
77.8146
 21
-1.625
  0
LINE
  8
0
 10
77.8146
 20
-1.625
 11
77.5784
 21
-1.97847
  0
LINE
  8
0
 10
77.5784
 20
-1.97847
 11
77.2981
 21
-2.2981
  0
LINE
  8
0
 10
77.2981
 20
-2.2981
 11
76.9785
 21
-2.57838
  0
LINE
  8
0
 10
76.9785
 20
-2.57838
 11
76.625
 21
-2.81458
  0
LINE
  8
0
 10
76.625
 20
-2.81458
 11
76.2437
 21
-3.00259
  0
LINE
  8
0
 10
76.2437
 20
-3.00259
 11
75.8412
 21
-3.13925
  0
LINE
  8
0
 10
75.8412
 20
-3.13925
 11
75.4242
 21
-3.22218
  0
LINE
  8
0
 10
75.4242
 20
-3.22218
 11
75
 21
-3.25
  0
LINE
  8
0
 10
75
 20
-3.25
 11
74.5758
 21
-3.22218
  0
LINE
  8
0
 10
119.576
 20
-3.22218
 11
119.159
 21
-3.13925
  0
LINE
  8
0
 10
119.159
 20
-3.13925
 11
118.756
 21
-3.00259
  0
LINE
  8
0
 10
118.756
 20
-3.00259
 11
118.375
 21
-2.81458
  0
LINE
  8
0
 10
118.375
 20
-2.81458
 11
118.022
 21
-2.57838
  0
LINE
  8
0
 10
118.022
 20
-2.57838
 11
117.702
 21
-2.2981
  0
LINE
  8
0
 10
117.702
 20
-2.2981
 11
117.422
 21
-1.97847
  0
LINE
  8
0
 10
117.422
 20
-1.97847
 11
117.185
 21
-1.625
  0
LINE
  8
0
 10
117.185
 20
-1.625
 11
116.997
 21
-1.24371
  0
LINE
  8
0
 10
116.997
 20
-1.24371
 11
116.861
 21
-0.841156
  0
LINE
  8
0
 10
116.861
 20
-0.841156
 11
116.778
 21
-0.42421
  0
LINE
  8
0
 10
116.778
 20
-0.42421
 11
116.75
 21
0
  0
LINE
  8
0
 10
116.75
 20
0
 11
116.778
 21
0.42421
  0
LINE
  8
0
 10
116.778
 20
0.42421
 11
116.861
 21
0.841156
  0
LINE
  8
0
 10
116.861
 20
0.841156
 11
116.997
 21
1.24371
  0
LINE
  8
0
 10
116.997
 20
1.24371
 11
117.185
 21
1.625
  0
LINE
  8
0
 10
117.185
 20
1.625
 11
117.422
 21
1.97847
  0
LINE
  8
0
 10
117.422
 20
1.97847
 11
117.702
 21
2.2981
  0
LINE
  8
0
 10
117.702
 20
2.2981
 11
118.022
 21
2.57838
  0
LINE
  8
0
 10
118.022
 20
2.57838
 11
118.375
 21
2.81458
  0
LINE
  8
0
 10
118.375
 20
2.81458
 11
118.756
 21
3.00259
  0
LINE
  8
0
 10
118.756
 20
3.00259
 11
119.159
 21
3.13925
  0
LINE
  8
0
 10
119.159
 20
3.13925
 11
119.576
 21
3.22218
  0
LINE
  8
0
 10
119.576
 20
3.22218
 11
120
 21
3.25
  0
LINE
  8
0
 10
120
 20
3.25
 11
120.424
 21
3.22218
  0
LINE
  8
0
 10
120.424
 20
3.22218
 11
120.841
 21
3.13925
  0
LINE
  8
0
 10
120.841
 20
3.13925
 11
121.244
 21
3.00259
  0
LINE
  8
0
 10
121.244
 20
3.00259
 11
121.625
 21
2.81458
  0
LINE
  8
0
 10
121.625
 20
2.81458
 11
121.978
 21
2.57838
  0
LINE
  8
0
 10
121.978
 20
2.57838
 11
122.298
 21
2.2981
  0
LINE
  8
0
 10
122.298
 20
2.2981
 11
122.578
 21
1.97847
  0
LINE
  8
0
 10
122.578
 20
1.97847
 11
122.815
 21
1.625
  0
LINE
  8
0
 10
122.815
 20
1.625
 11
123.003
 21
1.24371
  0
LINE
  8
0
 10
123.003
 20
1.24371
 11
123.139
 21
0.841156
  0
LINE
  8
0
 10
123.139
 20
0.841156
 11
123.222
 21
0.42421
  0
LINE
  8
0
 10
123.222
 20
0.42421
 11
123.25
 21
0
  0
LINE
  8
0
 10
123.25
 20
0
 11
123.222
 21
-0.42421
  0
LINE
  8
0
 10
123.222
 20
-0.42421
 11
123.139
 21
-0.841156
  0
LINE
  8
0
 10
123.139
 20
-0.841156
 11
123.003
 21
-1.24371
  0
LINE
  8
0
 10
123.003
 20
-1.24371
 11
122.815
 21
-1.625
  0
LINE
  8
0
 10
122.815
 20
-1.625
 11
122.578
 21
-1.97847
  0
LINE
  8
0
 10
122.578
 20
-1.97847
 11
122.298
 21
-2.2981
  0
LINE
  8
0
 10
122.298
 20
-2.2981
 11
121.978
 21
-2.57838
  0
LINE
  8
0
 10
121.978
 20
-2.57838
 11
121.625
 21
-2.81458
  0
LINE
  8
0
 10
121.625
 20
-2.81458
 11
121.244
 21
-3.00259
  0
LINE
  8
0
 10
121.244
 20
-3.00259
 11
120.841
 21
-3.13925
  0
LINE
  8
0
 10
120.841
 20
-3.13925
 11
120.424
 21
-3.22218
  0
LINE
  8
0
 10
120.424
 20
-3.22218
 11
120
 21
-3.25
  0
LINE
  8
0
 10
120
 20
-3.25
 11
119.576
 21
-3.22218
  0
LINE
  8
0
 10
-119.159
 20
3.13925
 11
-118.756
 21
3.00259
  0
LINE
  8
0
 10
-118.756
 20
3.00259
 11
-118.375
 21
2.81458
  0
LINE
  8
0
 10
-118.375
 20
2.81458
 11
-118.022
 21
2.57838
  0
LINE
  8
0
 10
-118.022
 20
2.57838
 11
-117.702
 21
2.2981
  0
LINE
  8
0
 10
-117.702
 20
2.2981
 11
-117.422
 21
1.97847
  0
LINE
  8
0
 10
-117.422
 20
1.97847
 11
-117.185
 21
1.625
  0
LINE
  8
0
 10
-117.185
 20
1.625
 11
-116.997
 21
1.24371
  0
LINE
  8
0
 10
-116.997
 20
1.24371
 11
-116.861
 21
0.841156
  0
LINE
  8
0
 10
-116.861
 20
0.841156
 11
-116.778
 21
0.42421
  0
LINE
  8
0
 10
-116.778
 20
0.42421
 11
-116.75
 21
0
  0
LINE
  8
0
 10
-116.75
 20
0
 11
-116.778
 21
-0.42421
  0
LINE
  8
0
 10
-116.778
 20
-0.42421
 11
-116.861
 21
-0.841156
  0
LINE
  8
0
 10
-116.861
 20
-0.841156
 11
-116.997
 21
-1.24371
  0
LINE
  8
0
 10
-116.997
 20
-1.24371
 11
-117.185
 21
-1.625
  0
LINE
  8
0
 10
-117.185
 20
-1.625
 11
-117.422
 21
-1.97847
  0
LINE
  8
0
 10
-117.422
 20
-1.97847
 11
-117.702
 21
-2.2981
  0
LINE
  8
0
 10
-117.702
 20
-2.2981
 11
-118.022
 21
-2.57838
  0
LINE
  8
0
 10
-118.022
 20
-2.57838
 11
-118.375
 21
-2.81458
  0
LINE
  8
0
 10
-118.375
 20
-2.81458
 11
-118.756
 21
-3.00259
  0
LINE
  8
0
 10
-118.756
 20
-3.00259
 11
-119.159
 21
-3.13925
  0
LINE
  8
0
 10
-119.159
 20
-3.13925
 11
-119.576
 21
-3.22218
  0
LINE
  8
0
 10
-119.576
 20
-3.22218
 11
-120
 21
-3.25
  0
LINE
  8
0
 10
-120
 20
-3.25
 11
-120.424
 21
-3.22218
  0
LINE
  8
0
 10
-120.424
 20
-3.22218
 11
-120.841
 21
-3.13925
  0
LINE
  8
0
 10
-120.841
 20
-3.13925
 11
-121.244
 21
-3.00259
  0
LINE
  8
0
 10
-121.244
 20
-3.00259
 11
-121.625
 21
-2.81458
  0
LINE
  8
0
 10
-121.625
 20
-2.81458
 11
-121.978
 21
-2.57838
  0
LINE
  8
0
 10
-121.978
 20
-2.57838
 11
-122.298
 21
-2.2981
  0
LINE
  8
0
 10
-122.298
 20
-2.2981
 11
-122.578
 21
-1.97847
  0
LINE
  8
0
 10
-122.578
 20
-1.97847
 11
-122.815
 21
-1.625
  0
LINE
  8
0
 10
-122.815
 20
-1.625
 11
-123.003
 21
-1.24371
  0
LINE
  8
0
 10
-123.003
 20
-1.24371
 11
-123.139
 21
-0.841156
  0
LINE
  8
0
 10
-123.139
 20
-0.841156
 11
-123.222
 21
-0.42421
  0
LINE
  8
0
 10
-123.222
 20
-0.42421
 11
-123.25
 21
0
  0
LINE
  8
0
 10
-123.25
 20
0
 11
-123.222
 21
0.42421
  0
LINE
  8
0
 10
-123.222
 20
0.42421
 11
-123.139
 21
0.841156
  0
LINE
  8
0
 10
-123.139
 20
0.841156
 11
-123.003
 21
1.24371
  0
LINE
  8
0
 10
-123.003
 20
1.24371
 11
-122.815
 21
1.625
  0
LINE
  8
0
 10
-122.815
 20
1.625
 11
-122.578
 21
1.97847
  0
LINE
  8
0
 10
-122.578
 20
1.97847
 11
-122.298
 21
2.2981
  0
LINE
  8
0
 10
-122.298
 20
2.2981
 11
-121.978
 21
2.57838
  0
LINE
  8
0
 10
-121.978
 20
2.57838
 11
-121.625
 21
2.81458
  0
LINE
  8
0
 10
-121.625
 20
2.81458
 11
-121.244
 21
3.00259
  0
LINE
  8
0
 10
-121.244
 20
3.00259
 11
-120.841
 21
3.13925
  0
LINE
  8
0
 10
-120.841
 20
3.13925
 11
-120.424
 21
3.22218
  0
LINE
  8
0
 10
-120.424
 20
3.22218
 11
-120
 21
3.25
  0
LINE
  8
0
 10
-120
 20
3.25
 11
-119.576
 21
3.22218
  0
LINE
  8
0
 10
-119.576
 20
3.22218
 11
-119.159
 21
3.13925
  0
LINE
  8
0
 10
-90.4242
 20
-3.22218
 11
-90.8412
 21
-3.13925
  0
LINE
  8
0
 10
-90.8412
 20
-3.13925
 11
-91.2437
 21
-3.00259
  0
LINE
  8
0
 10
-91.2437
 20
-3.00259
 11
-91.625
 21
-2.81458
  0
LINE
  8
0
 10
-91.625
 20
-2.81458
 11
-91.9785
 21
-2.57838
  0
LINE
  8
0
 10
-91.9785
 20
-2.57838
 11
-92.2981
 21
-2.2981
  0
LINE
  8
0
 10
-92.2981
 20
-2.2981
 11
-92.5784
 21
-1.97847
  0
LINE
  8
0
 10
-92.5784
 20
-1.97847
 11
-92.8146
 21
-1.625
  0
LINE
  8
0
 10
-92.8146
 20
-1.625
 11
-93.0026
 21
-1.24371
  0
LINE
  8
0
 10
-93.0026
 20
-1.24371
 11
-93.1393
 21
-0.841156
  0
LINE
  8
0
 10
-93.1393
 20
-0.841156
 11
-93.2222
 21
-0.42421
  0
LINE
  8
0
 10
-93.2222
 20
-0.42421
 11
-93.25
 21
0
  0
LINE
  8
0
 10
-93.25
 20
0
 11
-93.2222
 21
0.42421
  0
LINE
  8
0
 10
-93.2222
 20
0.42421
 11
-93.1393
 21
0.841156
  0
LINE
  8
0
 10
-93.1393
 20
0.841156
 11
-93.0026
 21
1.24371
  0
LINE
  8
0
 10
-93.0026
 20
1.24371
 11
-92.8146
 21
1.625
  0
LINE
  8
0
 10
-92.8146
 20
1.625
 11
-92.5784
 21
1.97847
  0
LINE
  8
0
 10
-92.5784
 20
1.97847
 11
-92.2981
 21
2.2981
  0
LINE
  8
0
 10
-92.2981
 20
2.2981
 11
-91.9785
 21
2.57838
  0
LINE
  8
0
 10
-91.9785
 20
2.57838
 11
-91.625
 21
2.81458
  0
LINE
  8
0
 10
-91.625
 20
2.81458
 11
-91.2437
 21
3.00259
  0
LINE
  8
0
 10
-91.2437
 20
3.00259
 11
-90.8412
 21
3.13925
  0
LINE
  8
0
 10
-90.8412
 20
3.13925
 11
-90.4242
 21
3.22218
  0
LINE
  8
0
 10
-90.4242
 20
3.22218
 11
-90
 21
3.25
  0
LINE
  8
0
 10
-90
 20
3.25
 11
-89.5758
 21
3.22218
  0
LINE
  8
0
 10
-89.5758
 20
3.22218
 11
-89.1588
 21
3.13925
  0
LINE
  8
0
 10
-89.1588
 20
3.13925
 11
-88.7563
 21
3.00259
  0
LINE
  8
0
 10
-88.7563
 20
3.00259
 11
-88.375
 21
2.81458
  0
LINE
  8
0
 10
-88.375
 20
2.81458
 11
-88.0215
 21
2.57838
  0
LINE
  8
0
 10
-88.0215
 20
2.57838
 11
-87.7019
 21
2.2981
  0
LINE
  8
0
 10
-87.7019
 20
2.2981
 11
-87.4216
 21
1.97847
  0
LINE
  8
0
 10
-87.4216
 20
1.97847
 11
-87.1854
 21
1.625
  0
LINE
  8
0
 10
-87.1854
 20
1.625
 11
-86.9974
 21
1.24371
  0
LINE
  8
0
 10
-86.9974
 20
1.24371
 11
-86.8607
 21
0.841156
  0
LINE
  8
0
 10
-86.8607
 20
0.841156
 11
-86.7778
 21
0.42421
  0
LINE
  8
0
 10
-86.7778
 20
0.42421
 11
-86.75
 21
0
  0
LINE
  8
0
 10
-86.75
 20
0
 11
-86.7778
 21
-0.42421
  0
LINE
  8
0
 10
-86.7778
 20
-0.42421
 11
-86.8607
 21
-0.841156
  0
LINE
  8
0
 10
-86.8607
 20
-0.841156
 11
-86.9974
 21
-1.24371
  0
LINE
  8
0
 10
-86.9974
 20
-1.24371
 11
-87.1854
 21
-1.625
  0
LINE
  8
0
 10
-87.1854
 20
-1.625
 11
-87.4216
 21
-1.97847
  0
LINE
  8
0
 10
-87.4216
 20
-1.97847
 11
-87.7019
 21
-2.2981
  0
LINE
  8
0
 10
-87.7019
 20
-2.2981
 11
-88.0215
 21
-2.57838
  0
LINE
  8
0
 10
-88.0215
 20
-2.57838
 11
-88.375
 21
-2.81458
  0
LINE
  8
0
 10
-88.375
 20
-2.81458
 11
-88.7563
 21
-3.00259
  0
LINE
  8
0
 10
-88.7563
 20
-3.00259
 11
-89.1588
 21
-3.13925
  0
LINE
  8
0
 10
-89.1588
 20
-3.13925
 11
-89.5758
 21
-3.22218
  0
LINE
  8
0
 10
-89.5758
 20
-3.22218
 11
-90
 21
-3.25
  0
LINE
  8
0
 10
-90
 20
-3.25
 11
-90.4242
 21
-3.22218
  0
LINE
  8
0
 10
-15.4242
 20
-3.22218
 11
-15.8412
 21
-3.13925
  0
LINE
  8
0
 10
-15.8412
 20
-3.13925
 11
-16.2437
 21
-3.00259
  0
LINE
  8
0
 10
-16.2437
 20
-3.00259
 11
-16.625
 21
-2.81458
  0
LINE
  8
0
 10
-16.625
 20
-2.81458
 11
-16.9785
 21
-2.57838
  0
LINE
  8
0
 10
-16.9785
 20
-2.57838
 11
-17.2981
 21
-2.2981
  0
LINE
  8
0
 10
-17.2981
 20
-2.2981
 11
-17.5784
 21
-1.97847
  0
LINE
  8
0
 10
-17.5784
 20
-1.97847
 11
-17.8146
 21
-1.625
  0
LINE
  8
0
 10
-17.8146
 20
-1.625
 11
-18.0026
 21
-1.24371
  0
LINE
  8
0
 10
-18.0026
 20
-1.24371
 11
-18.1393
 21
-0.841156
  0
LINE
  8
0
 10
-18.1393
 20
-0.841156
 11
-18.2222
 21
-0.42421
  0
LINE
  8
0
 10
-18.2222
 20
-0.42421
 11
-18.25
 21
0
  0
LINE
  8
0
 10
-18.25
 20
0
 11
-18.2222
 21
0.42421
  0
LINE
  8
0
 10
-18.2222
 20
0.42421
 11
-18.1393
 21
0.841156
  0
LINE
  8
0
 10
-18.1393
 20
0.841156
 11
-18.0026
 21
1.24371
  0
LINE
  8
0
 10
-18.0026
 20
1.24371
 11
-17.8146
 21
1.625
  0
LINE
  8
0
 10
-17.8146
 20
1.625
 11
-17.5784
 21
1.97847
  0
LINE
  8
0
 10
-17.5784
 20
1.97847
 11
-17.2981
 21
2.2981
  0
LINE
  8
0
 10
-17.2981
 20
2.2981
 11
-16.9785
 21
2.57838
  0
LINE
  8
0
 10
-16.9785
 20
2.57838
 11
-16.625
 21
2.81458
  0
LINE
  8
0
 10
-16.625
 20
2.81458
 11
-16.2437
 21
3.00259
  0
LINE
  8
0
 10
-16.2437
 20
3.00259
 11
-15.8412
 21
3.13925
  0
LINE
  8
0
 10
-15.8412
 20
3.13925
 11
-15.4242
 21
3.22218
  0
LINE
  8
0
 10
-15.4242
 20
3.22218
 11
-15
 21
3.25
  0
LINE
  8
0
 10
-15
 20
3.25
 11
-14.5758
 21
3.22218
  0
LINE
  8
0
 10
-14.5758
 20
3.22218
 11
-14.1588
 21
3.13925
  0
LINE
  8
0
 10
-14.1588
 20
3.13925
 11
-13.7563
 21
3.00259
  0
LINE
  8
0
 10
-13.7563
 20
3.00259
 11
-13.375
 21
2.81458
  0
LINE
  8
0
 10
-13.375
 20
2.81458
 11
-13.0215
 21
2.57838
  0
LINE
  8
0
 10
-13.0215
 20
2.57838
 11
-12.7019
 21
2.2981
  0
LINE
  8
0
 10
-12.7019
 20
2.2981
 11
-12.4216
 21
1.97847
  0
LINE
  8
0
 10
-12.4216
 20
1.97847
 11
-12.1854
 21
1.625
  0
LINE
  8
0
 10
-12.1854
 20
1.625
 11
-11.9974
 21
1.24371
  0
LINE
  8
0
 10
-11.9974
 20
1.24371
 11
-11.8607
 21
0.841156
  0
LINE
  8
0
 10
-11.8607
 20
0.841156
 11
-11.7778
 21
0.42421
  0
LINE
  8
0
 10
-11.7778
 20
0.42421
 11
-11.75
 21
0
  0
LINE
  8
0
 10
-11.75
 20
0
 11
-11.7778
 21
-0.42421
  0
LINE
  8
0
 10
-11.7778
 20
-0.42421
 11
-11.8607
 21
-0.841156
  0
LINE
  8
0
 10
-11.8607
 20
-0.841156
 11
-11.9974
 21
-1.24371
  0
LINE
  8
0
 10
-11.9974
 20
-1.24371
 11
-12.1854
 21
-1.625
  0
LINE
  8
0
 10
-12.1854
 20
-1.625
 11
-12.4216
 21
-1.97847
  0
LINE
  8
0
 10
-12.4216
 20
-1.97847
 11
-12.7019
 21
-2.2981
  0
LINE
  8
0
 10
-12.7019
 20
-2.2981
 11
-13.0215
 21
-2.57838
  0
LINE
  8
0
 10
-13.0215
 20
-2.57838
 11
-13.375
 21
-2.81458
  0
LINE
  8
0
 10
-13.375
 20
-2.81458
 11
-13.7563
 21
-3.00259
  0
LINE
  8
0
 10
-13.7563
 20
-3.00259
 11
-14.1588
 21
-3.13925
  0
LINE
  8
0
 10
-14.1588
 20
-3.13925
 11
-14.5758
 21
-3.22218
  0
LINE
  8
0
 10
-14.5758
 20
-3.22218
 11
-15
 21
-3.25
  0
LINE
  8
0
 10
-15
 20
-3.25
 11
-15.4242
 21
-3.22218
  0
LINE
  8
0
 10
-30.4242
 20
-3.22218
 11
-30.8412
 21
-3.13925
  0
LINE
  8
0
 10
-30.8412
 20
-3.13925
 11
-31.2437
 21
-3.00259
  0
LINE
  8
0
 10
-31.2437
 20
-3.00259
 11
-31.625
 21
-2.81458
  0
LINE
  8
0
 10
-31.625
 20
-2.81458
 11
-31.9785
 21
-2.57838
  0
LINE
  8
0
 10
-31.9785
 20
-2.57838
 11
-32.2981
 21
-2.2981
  0
LINE
  8
0
 10
-32.2981
 20
-2.2981
 11
-32.5784
 21
-1.97847
  0
LINE
  8
0
 10
-32.5784
 20
-1.97847
 11
-32.8146
 21
-1.625
  0
LINE
  8
0
 10
-32.8146
 20
-1.625
 11
-33.0026
 21
-1.24371
  0
LINE
  8
0
 10
-33.0026
 20
-1.24371
 11
-33.1393
 21
-0.841156
  0
LINE
  8
0
 10
-33.1393
 20
-0.841156
 11
-33.2222
 21
-0.42421
  0
LINE
  8
0
 10
-33.2222
 20
-0.42421
 11
-33.25
 21
0
  0
LINE
  8
0
 10
-33.25
 20
0
 11
-33.2222
 21
0.42421
  0
LINE
  8
0
 10
-33.2222
 20
0.42421
 11
-33.1393
 21
0.841156
  0
LINE
  8
0
 10
-33.1393
 20
0.841156
 11
-33.0026
 21
1.24371
  0
LINE
  8
0
 10
-33.0026
 20
1.24371
 11
-32.8146
 21
1.625
  0
LINE
  8
0
 10
-32.8146
 20
1.625
 11
-32.5784
 21
1.97847
  0
LINE
  8
0
 10
-32.5784
 20
1.97847
 11
-32.2981
 21
2.2981
  0
LINE
  8
0
 10
-32.2981
 20
2.2981
 11
-31.9785
 21
2.57838
  0
LINE
  8
0
 10
-31.9785
 20
2.57838
 11
-31.625
 21
2.81458
  0
LINE
  8
0
 10
-31.625
 20
2.81458
 11
-31.2437
 21
3.00259
  0
LINE
  8
0
 10
-31.2437
 20
3.00259
 11
-30.8412
 21
3.13925
  0
LINE
  8
0
 10
-30.8412
 20
3.13925
 11
-30.4242
 21
3.22218
  0
LINE
  8
0
 10
-30.4242
 20
3.22218
 11
-30
 21
3.25
  0
LINE
  8
0
 10
-30
 20
3.25
 11
-29.5758
 21
3.22218
  0
LINE
  8
0
 10
-29.5758
 20
3.22218
 11
-29.1588
 21
3.13925
  0
LINE
  8
0
 10
-29.1588
 20
3.13925
 11
-28.7563
 21
3.00259
  0
LINE
  8
0
 10
-28.7563
 20
3.00259
 11
-28.375
 21
2.81458
  0
LINE
  8
0
 10
-28.375
 20
2.81458
 11
-28.0215
 21
2.57838
  0
LINE
  8
0
 10
-28.0215
 20
2.57838
 11
-27.7019
 21
2.2981
  0
LINE
  8
0
 10
-27.7019
 20
2.2981
 11
-27.4216
 21
1.97847
  0
LINE
  8
0
 10
-27.4216
 20
1.97847
 11
-27.1854
 21
1.625
  0
LINE
  8
0
 10
-27.1854
 20
1.625
 11
-26.9974
 21
1.24371
  0
LINE
  8
0
 10
-26.9974
 20
1.24371
 11
-26.8607
 21
0.841156
  0
LINE
  8
0
 10
-26.8607
 20
0.841156
 11
-26.7778
 21
0.42421
  0
LINE
  8
0
 10
-26.7778
 20
0.42421
 11
-26.75
 21
0
  0
LINE
  8
0
 10
-26.75
 20
0
 11
-26.7778
 21
-0.42421
  0
LINE
  8
0
 10
-26.7778
 20
-0.42421
 11
-26.8607
 21
-0.841156
  0
LINE
  8
0
 10
-26.8607
 20
-0.841156
 11
-26.9974
 21
-1.24371
  0
LINE
  8
0
 10
-26.9974
 20
-1.24371
 11
-27.1854
 21
-1.625
  0
LINE
  8
0
 10
-27.1854
 20
-1.625
 11
-27.4216
 21
-1.97847
  0
LINE
  8
0
 10
-27.4216
 20
-1.97847
 11
-27.7019
 21
-2.2981
  0
LINE
  8
0
 10
-27.7019
 20
-2.2981
 11
-28.0215
 21
-2.57838
  0
LINE
  8
0
 10
-28.0215
 20
-2.57838
 11
-28.375
 21
-2.81458
  0
LINE
  8
0
 10
-28.375
 20
-2.81458
 11
-28.7563
 21
-3.00259
  0
LINE
  8
0
 10
-28.7563
 20
-3.00259
 11
-29.1588
 21
-3.13925
  0
LINE
  8
0
 10
-29.1588
 20
-3.13925
 11
-29.5758
 21
-3.22218
  0
LINE
  8
0
 10
-29.5758
 20
-3.22218
 11
-30
 21
-3.25
  0
LINE
  8
0
 10
-30
 20
-3.25
 11
-30.4242
 21
-3.22218
  0
LINE
  8
0
 10
-150.424
 20
-3.22218
 11
-150.841
 21
-3.13925
  0
LINE
  8
0
 10
-150.841
 20
-3.13925
 11
-151.244
 21
-3.00259
  0
LINE
  8
0
 10
-151.244
 20
-3.00259
 11
-151.625
 21
-2.81458
  0
LINE
  8
0
 10
-151.625
 20
-2.81458
 11
-151.978
 21
-2.57838
  0
LINE
  8
0
 10
-151.978
 20
-2.57838
 11
-152.298
 21
-2.2981
  0
LINE
  8
0
 10
-152.298
 20
-2.2981
 11
-152.578
 21
-1.97847
  0
LINE
  8
0
 10
-152.578
 20
-1.97847
 11
-152.815
 21
-1.625
  0
LINE
  8
0
 10
-152.815
 20
-1.625
 11
-153.003
 21
-1.24371
  0
LINE
  8
0
 10
-153.003
 20
-1.24371
 11
-153.139
 21
-0.841156
  0
LINE
  8
0
 10
-153.139
 20
-0.841156
 11
-153.222
 21
-0.42421
  0
LINE
  8
0
 10
-153.222
 20
-0.42421
 11
-153.25
 21
0
  0
LINE
  8
0
 10
-153.25
 20
0
 11
-153.222
 21
0.42421
  0
LINE
  8
0
 10
-153.222
 20
0.42421
 11
-153.139
 21
0.841156
  0
LINE
  8
0
 10
-153.139
 20
0.841156
 11
-153.003
 21
1.24371
  0
LINE
  8
0
 10
-153.003
 20
1.24371
 11
-152.815
 21
1.625
  0
LINE
  8
0
 10
-152.815
 20
1.625
 11
-152.578
 21
1.97847
  0
LINE
  8
0
 10
-152.578
 20
1.97847
 11
-152.298
 21
2.2981
  0
LINE
  8
0
 10
-152.298
 20
2.2981
 11
-151.978
 21
2.57838
  0
LINE
  8
0
 10
-151.978
 20
2.57838
 11
-151.625
 21
2.81458
  0
LINE
  8
0
 10
-151.625
 20
2.81458
 11
-151.244
 21
3.00259
  0
LINE
  8
0
 10
-151.244
 20
3.00259
 11
-150.841
 21
3.13925
  0
LINE
  8
0
 10
-150.841
 20
3.13925
 11
-150.424
 21
3.22218
  0
LINE
  8
0
 10
-150.424
 20
3.22218
 11
-150
 21
3.25
  0
LINE
  8
0
 10
-150
 20
3.25
 11
-149.576
 21
3.22218
  0
LINE
  8
0
 10
-149.576
 20
3.22218
 11
-149.159
 21
3.13925
  0
LINE
  8
0
 10
-149.159
 20
3.13925
 11
-148.756
 21
3.00259
  0
LINE
  8
0
 10
-148.756
 20
3.00259
 11
-148.375
 21
2.81458
  0
LINE
  8
0
 10
-148.375
 20
2.81458
 11
-148.022
 21
2.57838
  0
LINE
  8
0
 10
-148.022
 20
2.57838
 11
-147.702
 21
2.2981
  0
LINE
  8
0
 10
-147.702
 20
2.2981
 11
-147.422
 21
1.97847
  0
LINE
  8
0
 10
-147.422
 20
1.97847
 11
-147.185
 21
1.625
  0
LINE
  8
0
 10
-147.185
 20
1.625
 11
-146.997
 21
1.24371
  0
LINE
  8
0
 10
-146.997
 20
1.24371
 11
-146.861
 21
0.841156
  0
LINE
  8
0
 10
-146.861
 20
0.841156
 11
-146.778
 21
0.42421
  0
LINE
  8
0
 10
-146.778
 20
0.42421
 11
-146.75
 21
0
  0
LINE
  8
0
 10
-146.75
 20
0
 11
-146.778
 21
-0.42421
  0
LINE
  8
0
 10
-146.778
 20
-0.42421
 11
-146.861
 21
-0.841156
  0
LINE
  8
0
 10
-146.861
 20
-0.841156
 11
-146.997
 21
-1.24371
  0
LINE
  8
0
 10
-146.997
 20
-1.24371
 11
-147.185
 21
-1.625
  0
LINE
  8
0
 10
-147.185
 20
-1.625
 11
-147.422
 21
-1.97847
  0
LINE
  8
0
 10
-147.422
 20
-1.97847
 11
-147.702
 21
-2.2981
  0
LINE
  8
0
 10
-147.702
 20
-2.2981
 11
-148.022
 21
-2.57838
  0
LINE
  8
0
 10
-148.022
 20
-2.57838
 11
-148.375
 21
-2.81458
  0
LINE
  8
0
 10
-148.375
 20
-2.81458
 11
-148.756
 21
-3.00259
  0
LINE
  8
0
 10
-148.756
 20
-3.00259
 11
-149.159
 21
-3.13925
  0
LINE
  8
0
 10
-149.159
 20
-3.13925
 11
-149.576
 21
-3.22218
  0
LINE
  8
0
 10
-149.576
 20
-3.22218
 11
-150
 21
-3.25
  0
LINE
  8
0
 10
-150
 20
-3.25
 11
-150.424
 21
-3.22218
  0
LINE
  8
0
 10
179.576
 20
-3.22218
 11
179.159
 21
-3.13925
  0
LINE
  8
0
 10
179.159
 20
-3.13925
 11
178.756
 21
-3.00259
  0
LINE
  8
0
 10
178.756
 20
-3.00259
 11
178.375
 21
-2.81458
  0
LINE
  8
0
 10
178.375
 20
-2.81458
 11
178.022
 21
-2.57838
  0
LINE
  8
0
 10
178.022
 20
-2.57838
 11
177.702
 21
-2.2981
  0
LINE
  8
0
 10
177.702
 20
-2.2981
 11
177.422
 21
-1.97847
  0
LINE
  8
0
 10
177.422
 20
-1.97847
 11
177.185
 21
-1.625
  0
LINE
  8
0
 10
177.185
 20
-1.625
 11
176.997
 21
-1.24371
  0
LINE
  8
0
 10
176.997
 20
-1.24371
 11
176.861
 21
-0.841156
  0
LINE
  8
0
 10
176.861
 20
-0.841156
 11
176.778
 21
-0.42421
  0
LINE
  8
0
 10
176.778
 20
-0.42421
 11
176.75
 21
0
  0
LINE
  8
0
 10
176.75
 20
0
 11
176.778
 21
0.42421
  0
LINE
  8
0
 10
176.778
 20
0.42421
 11
176.861
 21
0.841156
  0
LINE
  8
0
 10
176.861
 20
0.841156
 11
176.997
 21
1.24371
  0
LINE
  8
0
 10
176.997
 20
1.24371
 11
177.185
 21
1.625
  0
LINE
  8
0
 10
177.185
 20
1.625
 11
177.422
 21
1.97847
  0
LINE
  8
0
 10
177.422
 20
1.97847
 11
177.702
 21
2.2981
  0
LINE
  8
0
 10
177.702
 20
2.2981
 11
178.022
 21
2.57838
  0
LINE
  8
0
 10
178.022
 20
2.57838
 11
178.375
 21
2.81458
  0
LINE
  8
0
 10
178.375
 20
2.81458
 11
178.756
 21
3.00259
  0
LINE
  8
0
 10
178.756
 20
3.00259
 11
179.159
 21
3.13925
  0
LINE
  8
0
 10
179.159
 20
3.13925
 11
179.576
 21
3.22218
  0
LINE
  8
0
 10
179.576
 20
3.22218
 11
180
 21
3.25
  0
LINE
  8
0
 10
180
 20
3.25
 11
180.424
 21
3.22218
  0
LINE
  8
0
 10
180.424
 20
3.22218
 11
180.841
 21
3.13925
  0
LINE
  8
0
 10
180.841
 20
3.13925
 11
181.244
 21
3.00259
  0
LINE
  8
0
 10
181.244
 20
3.00259
 11
181.625
 21
2.81458
  0
LINE
  8
0
 10
181.625
 20
2.81458
 11
181.978
 21
2.57838
  0
LINE
  8
0
 10
181.978
 20
2.57838
 11
182.298
 21
2.2981
  0
LINE
  8
0
 10
182.298
 20
2.2981
 11
182.578
 21
1.97847
  0
LINE
  8
0
 10
182.578
 20
1.97847
 11
182.815
 21
1.625
  0
LINE
  8
0
 10
182.815
 20
1.625
 11
183.003
 21
1.24371
  0
LINE
  8
0
 10
183.003
 20
1.24371
 11
183.139
 21
0.841156
  0
LINE
  8
0
 10
183.139
 20
0.841156
 11
183.222
 21
0.42421
  0
LINE
  8
0
 10
183.222
 20
0.42421
 11
183.25
 21
0
  0
LINE
  8
0
 10
183.25
 20
0
 11
183.222
 21
-0.42421
  0
LINE
  8
0
 10
183.222
 20
-0.42421
 11
183.139
 21
-0.841156
  0
LINE
  8
0
 10
183.139
 20
-0.841156
 11
183.003
 21
-1.24371
  0
LINE
  8
0
 10
183.003
 20
-1.24371
 11
182.815
 21
-1.625
  0
LINE
  8
0
 10
182.815
 20
-1.625
 11
182.578
 21
-1.97847
  0
LINE
  8
0
 10
182.578
 20
-1.97847
 11
182.298
 21
-2.2981
  0
LINE
  8
0
 10
182.298
 20
-2.2981
 11
181.978
 21
-2.57838
  0
LINE
  8
0
 10
181.978
 20
-2.57838
 11
181.625
 21
-2.81458
  0
LINE
  8
0
 10
181.625
 20
-2.81458
 11
181.244
 21
-3.00259
  0
LINE
  8
0
 10
181.244
 20
-3.00259
 11
180.841
 21
-3.13925
  0
LINE
  8
0
 10
180.841
 20
-3.13925
 11
180.424
 21
-3.22218
  0
LINE
  8
0
 10
180.424
 20
-3.22218
 11
180
 21
-3.25
  0
LINE
  8
0
 10
180
 20
-3.25
 11
179.576
 21
-3.22218
  0
LINE
  8
0
 10
164.576
 20
-3.22218
 11
164.159
 21
-3.13925
  0
LINE
  8
0
 10
164.159
 20
-3.13925
 11
163.756
 21
-3.00259
  0
LINE
  8
0
 10
163.756
 20
-3.00259
 11
163.375
 21
-2.81458
  0
LINE
  8
0
 10
163.375
 20
-2.81458
 11
163.022
 21
-2.57838
  0
LINE
  8
0
 10
163.022
 20
-2.57838
 11
162.702
 21
-2.2981
  0
LINE
  8
0
 10
162.702
 20
-2.2981
 11
162.422
 21
-1.97847
  0
LINE
  8
0
 10
162.422
 20
-1.97847
 11
162.185
 21
-1.625
  0
LINE
  8
0
 10
162.185
 20
-1.625
 11
161.997
 21
-1.24371
  0
LINE
  8
0
 10
161.997
 20
-1.24371
 11
161.861
 21
-0.841156
  0
LINE
  8
0
 10
161.861
 20
-0.841156
 11
161.778
 21
-0.42421
  0
LINE
  8
0
 10
161.778
 20
-0.42421
 11
161.75
 21
0
  0
LINE
  8
0
 10
161.75
 20
0
 11
161.778
 21
0.42421
  0
LINE
  8
0
 10
161.778
 20
0.42421
 11
161.861
 21
0.841156
  0
LINE
  8
0
 10
161.861
 20
0.841156
 11
161.997
 21
1.24371
  0
LINE
  8
0
 10
161.997
 20
1.24371
 11
162.185
 21
1.625
  0
LINE
  8
0
 10
162.185
 20
1.625
 11
162.422
 21
1.97847
  0
LINE
  8
0
 10
162.422
 20
1.97847
 11
162.702
 21
2.2981
  0
LINE
  8
0
 10
162.702
 20
2.2981
 11
163.022
 21
2.57838
  0
LINE
  8
0
 10
163.022
 20
2.57838
 11
163.375
 21
2.81458
  0
LINE
  8
0
 10
163.375
 20
2.81458
 11
163.756
 21
3.00259
  0
LINE
  8
0
 10
163.756
 20
3.00259
 11
164.159
 21
3.13925
  0
LINE
  8
0
 10
164.159
 20
3.13925
 11
164.576
 21
3.22218
  0
LINE
  8
0
 10
164.576
 20
3.22218
 11
165
 21
3.25
  0
LINE
  8
0
 10
165
 20
3.25
 11
165.424
 21
3.22218
  0
LINE
  8
0
 10
165.424
 20
3.22218
 11
165.841
 21
3.13925
  0
LINE
  8
0
 10
165.841
 20
3.13925
 11
166.244
 21
3.00259
  0
LINE
  8
0
 10
166.244
 20
3.00259
 11
166.625
 21
2.81458
  0
LINE
  8
0
 10
166.625
 20
2.81458
 11
166.978
 21
2.57838
  0
LINE
  8
0
 10
166.978
 20
2.57838
 11
167.298
 21
2.2981
  0
LINE
  8
0
 10
167.298
 20
2.2981
 11
167.578
 21
1.97847
  0
LINE
  8
0
 10
167.578
 20
1.97847
 11
167.815
 21
1.625
  0
LINE
  8
0
 10
167.815
 20
1.625
 11
168.003
 21
1.24371
  0
LINE
  8
0
 10
168.003
 20
1.24371
 11
168.139
 21
0.841156
  0
LINE
  8
0
 10
168.139
 20
0.841156
 11
168.222
 21
0.42421
  0
LINE
  8
0
 10
168.222
 20
0.42421
 11
168.25
 21
0
  0
LINE
  8
0
 10
168.25
 20
0
 11
168.222
 21
-0.42421
  0
LINE
  8
0
 10
168.222
 20
-0.42421
 11
168.139
 21
-0.841156
  0
LINE
  8
0
 10
168.139
 20
-0.841156
 11
168.003
 21
-1.24371
  0
LINE
  8
0
 10
168.003
 20
-1.24371
 11
167.815
 21
-1.625
  0
LINE
  8
0
 10
167.815
 20
-1.625
 11
167.578
 21
-1.97847
  0
LINE
  8
0
 10
167.578
 20
-1.97847
 11
167.298
 21
-2.2981
  0
LINE
  8
0
 10
167.298
 20
-2.2981
 11
166.978
 21
-2.57838
  0
LINE
  8
0
 10
166.978
 20
-2.57838
 11
166.625
 21
-2.81458
  0
LINE
  8
0
 10
166.625
 20
-2.81458
 11
166.244
 21
-3.00259
  0
LINE
  8
0
 10
166.244
 20
-3.00259
 11
165.841
 21
-3.13925
  0
LINE
  8
0
 10
165.841
 20
-3.13925
 11
165.424
 21
-3.22218
  0
LINE
  8
0
 10
165.424
 20
-3.22218
 11
165
 21
-3.25
  0
LINE
  8
0
 10
165
 20
-3.25
 11
164.576
 21
-3.22218
  0
LINE
  8
0
 10
-165.424
 20
-3.22218
 11
-165.841
 21
-3.13925
  0
LINE
  8
0
 10
-165.841
 20
-3.13925
 11
-166.244
 21
-3.00259
  0
LINE
  8
0
 10
-166.244
 20
-3.00259
 11
-166.625
 21
-2.81458
  0
LINE
  8
0
 10
-166.625
 20
-2.81458
 11
-166.978
 21
-2.57838
  0
LINE
  8
0
 10
-166.978
 20
-2.57838
 11
-167.298
 21
-2.2981
  0
LINE
  8
0
 10
-167.298
 20
-2.2981
 11
-167.578
 21
-1.97847
  0
LINE
  8
0
 10
-167.578
 20
-1.97847
 11
-167.815
 21
-1.625
  0
LINE
  8
0
 10
-167.815
 20
-1.625
 11
-168.003
 21
-1.24371
  0
LINE
  8
0
 10
-168.003
 20
-1.24371
 11
-168.139
 21
-0.841156
  0
LINE
  8
0
 10
-168.139
 20
-0.841156
 11
-168.222
 21
-0.42421
  0
LINE
  8
0
 10
-168.222
 20
-0.42421
 11
-168.25
 21
0
  0
LINE
  8
0
 10
-168.25
 20
0
 11
-168.222
 21
0.42421
  0
LINE
  8
0
 10
-168.222
 20
0.42421
 11
-168.139
 21
0.841156
  0
LINE
  8
0
 10
-168.139
 20
0.841156
 11
-168.003
 21
1.24371
  0
LINE
  8
0
 10
-168.003
 20
1.24371
 11
-167.815
 21
1.625
  0
LINE
  8
0
 10
-167.815
 20
1.625
 11
-167.578
 21
1.97847
  0
LINE
  8
0
 10
-167.578
 20
1.97847
 11
-167.298
 21
2.2981
  0
LINE
  8
0
 10
-167.298
 20
2.2981
 11
-166.978
 21
2.57838
  0
LINE
  8
0
 10
-166.978
 20
2.57838
 11
-166.625
 21
2.81458
  0
LINE
  8
0
 10
-166.625
 20
2.81458
 11
-166.244
 21
3.00259
  0
LINE
  8
0
 10
-166.244
 20
3.00259
 11
-165.841
 21
3.13925
  0
LINE
  8
0
 10
-165.841
 20
3.13925
 11
-165.424
 21
3.22218
  0
LINE
  8
0
 10
-165.424
 20
3.22218
 11
-165
 21
3.25
  0
LINE
  8
0
 10
-165
 20
3.25
 11
-164.576
 21
3.22218
  0
LINE
  8
0
 10
-164.576
 20
3.22218
 11
-164.159
 21
3.13925
  0
LINE
  8
0
 10
-164.159
 20
3.13925
 11
-163.756
 21
3.00259
  0
LINE
  8
0
 10
-163.756
 20
3.00259
 11
-163.375
 21
2.81458
  0
LINE
  8
0
 10
-163.375
 20
2.81458
 11
-163.022
 21
2.57838
  0
LINE
  8
0
 10
-163.022
 20
2.57838
 11
-162.702
 21
2.2981
  0
LINE
  8
0
 10
-162.702
 20
2.2981
 11
-162.422
 21
1.97847
  0
LINE
  8
0
 10
-162.422
 20
1.97847
 11
-162.185
 21
1.625
  0
LINE
  8
0
 10
-162.185
 20
1.625
 11
-161.997
 21
1.24371
  0
LINE
  8
0
 10
-161.997
 20
1.24371
 11
-161.861
 21
0.841156
  0
LINE
  8
0
 10
-161.861
 20
0.841156
 11
-161.778
 21
0.42421
  0
LINE
  8
0
 10
-161.778
 20
0.42421
 11
-161.75
 21
0
  0
LINE
  8
0
 10
-161.75
 20
0
 11
-161.778
 21
-0.42421
  0
LINE
  8
0
 10
-161.778
 20
-0.42421
 11
-161.861
 21
-0.841156
  0
LINE
  8
0
 10
-161.861
 20
-0.841156
 11
-161.997
 21
-1.24371
  0
LINE
  8
0
 10
-161.997
 20
-1.24371
 11
-162.185
 21
-1.625
  0
LINE
  8
0
 10
-162.185
 20
-1.625
 11
-162.422
 21
-1.97847
  0
LINE
  8
0
 10
-162.422
 20
-1.97847
 11
-162.702
 21
-2.2981
  0
LINE
  8
0
 10
-162.702
 20
-2.2981
 11
-163.022
 21
-2.57838
  0
LINE
  8
0
 10
-163.022
 20
-2.57838
 11
-163.375
 21
-2.81458
  0
LINE
  8
0
 10
-163.375
 20
-2.81458
 11
-163.756
 21
-3.00259
  0
LINE
  8
0
 10
-163.756
 20
-3.00259
 11
-164.159
 21
-3.13925
  0
LINE
  8
0
 10
-164.159
 20
-3.13925
 11
-164.576
 21
-3.22218
  0
LINE
  8
0
 10
-164.576
 20
-3.22218
 11
-165
 21
-3.25
  0
LINE
  8
0
 10
-165
 20
-3.25
 11
-165.424
 21
-3.22218
  0
LINE
  8
0
 10
-180.424
 20
-3.22218
 11
-180.841
 21
-3.13925
  0
LINE
  8
0
 10
-180.841
 20
-3.13925
 11
-181.244
 21
-3.00259
  0
LINE
  8
0
 10
-181.244
 20
-3.00259
 11
-181.625
 21
-2.81458
  0
LINE
  8
0
 10
-181.625
 20
-2.81458
 11
-181.978
 21
-2.57838
  0
LINE
  8
0
 10
-181.978
 20
-2.57838
 11
-182.298
 21
-2.2981
  0
LINE
  8
0
 10
-182.298
 20
-2.2981
 11
-182.578
 21
-1.97847
  0
LINE
  8
0
 10
-182.578
 20
-1.97847
 11
-182.815
 21
-1.625
  0
LINE
  8
0
 10
-182.815
 20
-1.625
 11
-183.003
 21
-1.24371
  0
LINE
  8
0
 10
-183.003
 20
-1.24371
 11
-183.139
 21
-0.841156
  0
LINE
  8
0
 10
-183.139
 20
-0.841156
 11
-183.222
 21
-0.42421
  0
LINE
  8
0
 10
-183.222
 20
-0.42421
 11
-183.25
 21
0
  0
LINE
  8
0
 10
-183.25
 20
0
 11
-183.222
 21
0.42421
  0
LINE
  8
0
 10
-183.222
 20
0.42421
 11
-183.139
 21
0.841156
  0
LINE
  8
0
 10
-183.139
 20
0.841156
 11
-183.003
 21
1.24371
  0
LINE
  8
0
 10
-183.003
 20
1.24371
 11
-182.815
 21
1.625
  0
LINE
  8
0
 10
-182.815
 20
1.625
 11
-182.578
 21
1.97847
  0
LINE
  8
0
 10
-182.578
 20
1.97847
 11
-182.298
 21
2.2981
  0
LINE
  8
0
 10
-182.298
 20
2.2981
 11
-181.978
 21
2.57838
  0
LINE
  8
0
 10
-181.978
 20
2.57838
 11
-181.625
 21
2.81458
  0
LINE
  8
0
 10
-181.625
 20
2.81458
 11
-181.244
 21
3.00259
  0
LINE
  8
0
 10
-181.244
 20
3.00259
 11
-180.841
 21
3.13925
  0
LINE
  8
0
 10
-180.841
 20
3.13925
 11
-180.424
 21
3.22218
  0
LINE
  8
0
 10
-180.424
 20
3.22218
 11
-180
 21
3.25
  0
LINE
  8
0
 10
-180
 20
3.25
 11
-179.576
 21
3.22218
  0
LINE
  8
0
 10
-179.576
 20
3.22218
 11
-179.159
 21
3.13925
  0
LINE
  8
0
 10
-179.159
 20
3.13925
 11
-178.756
 21
3.00259
  0
LINE
  8
0
 10
-178.756
 20
3.00259
 11
-178.375
 21
2.81458
  0
LINE
  8
0
 10
-178.375
 20
2.81458
 11
-178.022
 21
2.57838
  0
LINE
  8
0
 10
-178.022
 20
2.57838
 11
-177.702
 21
2.2981
  0
LINE
  8
0
 10
-177.702
 20
2.2981
 11
-177.422
 21
1.97847
  0
LINE
  8
0
 10
-177.422
 20
1.97847
 11
-177.185
 21
1.625
  0
LINE
  8
0
 10
-177.185
 20
1.625
 11
-176.997
 21
1.24371
  0
LINE
  8
0
 10
-176.997
 20
1.24371
 11
-176.861
 21
0.841156
  0
LINE
  8
0
 10
-176.861
 20
0.841156
 11
-176.778
 21
0.42421
  0
LINE
  8
0
 10
-176.778
 20
0.42421
 11
-176.75
 21
0
  0
LINE
  8
0
 10
-176.75
 20
0
 11
-176.778
 21
-0.42421
  0
LINE
  8
0
 10
-176.778
 20
-0.42421
 11
-176.861
 21
-0.841156
  0
LINE
  8
0
 10
-176.861
 20
-0.841156
 11
-176.997
 21
-1.24371
  0
LINE
  8
0
 10
-176.997
 20
-1.24371
 11
-177.185
 21
-1.625
  0
LINE
  8
0
 10
-177.185
 20
-1.625
 11
-177.422
 21
-1.97847
  0
LINE
  8
0
 10
-177.422
 20
-1.97847
 11
-177.702
 21
-2.2981
  0
LINE
  8
0
 10
-177.702
 20
-2.2981
 11
-178.022
 21
-2.57838
  0
LINE
  8
0
 10
-178.022
 20
-2.57838
 11
-178.375
 21
-2.81458
  0
LINE
  8
0
 10
-178.375
 20
-2.81458
 11
-178.756
 21
-3.00259
  0
LINE
  8
0
 10
-178.756
 20
-3.00259
 11
-179.159
 21
-3.13925
  0
LINE
  8
0
 10
-179.159
 20
-3.13925
 11
-179.576
 21
-3.22218
  0
LINE
  8
0
 10
-179.576
 20
-3.22218
 11
-180
 21
-3.25
  0
LINE
  8
0
 10
-180
 20
-3.25
 11
-180.424
 21
-3.22218
  0
LINE
  8
0
 10
134.576
 20
-3.22218
 11
134.159
 21
-3.13925
  0
LINE
  8
0
 10
134.159
 20
-3.13925
 11
133.756
 21
-3.00259
  0
LINE
  8
0
 10
133.756
 20
-3.00259
 11
133.375
 21
-2.81458
  0
LINE
  8
0
 10
133.375
 20
-2.81458
 11
133.022
 21
-2.57838
  0
LINE
  8
0
 10
133.022
 20
-2.57838
 11
132.702
 21
-2.2981
  0
LINE
  8
0
 10
132.702
 20
-2.2981
 11
132.422
 21
-1.97847
  0
LINE
  8
0
 10
132.422
 20
-1.97847
 11
132.185
 21
-1.625
  0
LINE
  8
0
 10
132.185
 20
-1.625
 11
131.997
 21
-1.24371
  0
LINE
  8
0
 10
131.997
 20
-1.24371
 11
131.861
 21
-0.841156
  0
LINE
  8
0
 10
131.861
 20
-0.841156
 11
131.778
 21
-0.42421
  0
LINE
  8
0
 10
131.778
 20
-0.42421
 11
131.75
 21
0
  0
LINE
  8
0
 10
131.75
 20
0
 11
131.778
 21
0.42421
  0
LINE
  8
0
 10
131.778
 20
0.42421
 11
131.861
 21
0.841156
  0
LINE
  8
0
 10
131.861
 20
0.841156
 11
131.997
 21
1.24371
  0
LINE
  8
0
 10
131.997
 20
1.24371
 11
132.185
 21
1.625
  0
LINE
  8
0
 10
132.185
 20
1.625
 11
132.422
 21
1.97847
  0
LINE
  8
0
 10
132.422
 20
1.97847
 11
132.702
 21
2.2981
  0
LINE
  8
0
 10
132.702
 20
2.2981
 11
133.022
 21
2.57838
  0
LINE
  8
0
 10
133.022
 20
2.57838
 11
133.375
 21
2.81458
  0
LINE
  8
0
 10
133.375
 20
2.81458
 11
133.756
 21
3.00259
  0
LINE
  8
0
 10
133.756
 20
3.00259
 11
134.159
 21
3.13925
  0
LINE
  8
0
 10
134.159
 20
3.13925
 11
134.576
 21
3.22218
  0
LINE
  8
0
 10
134.576
 20
3.22218
 11
135
 21
3.25
  0
LINE
  8
0
 10
135
 20
3.25
 11
135.424
 21
3.22218
  0
LINE
  8
0
 10
135.424
 20
3.22218
 11
135.841
 21
3.13925
  0
LINE
  8
0
 10
135.841
 20
3.13925
 11
136.244
 21
3.00259
  0
LINE
  8
0
 10
136.244
 20
3.00259
 11
136.625
 21
2.81458
  0
LINE
  8
0
 10
136.625
 20
2.81458
 11
136.978
 21
2.57838
  0
LINE
  8
0
 10
136.978
 20
2.57838
 11
137.298
 21
2.2981
  0
LINE
  8
0
 10
137.298
 20
2.2981
 11
137.578
 21
1.97847
  0
LINE
  8
0
 10
137.578
 20
1.97847
 11
137.815
 21
1.625
  0
LINE
  8
0
 10
137.815
 20
1.625
 11
138.003
 21
1.24371
  0
LINE
  8
0
 10
138.003
 20
1.24371
 11
138.139
 21
0.841156
  0
LINE
  8
0
 10
138.139
 20
0.841156
 11
138.222
 21
0.42421
  0
LINE
  8
0
 10
138.222
 20
0.42421
 11
138.25
 21
0
  0
LINE
  8
0
 10
138.25
 20
0
 11
138.222
 21
-0.42421
  0
LINE
  8
0
 10
138.222
 20
-0.42421
 11
138.139
 21
-0.841156
  0
LINE
  8
0
 10
138.139
 20
-0.841156
 11
138.003
 21
-1.24371
  0
LINE
  8
0
 10
138.003
 20
-1.24371
 11
137.815
 21
-1.625
  0
LINE
  8
0
 10
137.815
 20
-1.625
 11
137.578
 21
-1.97847
  0
LINE
  8
0
 10
137.578
 20
-1.97847
 11
137.298
 21
-2.2981
  0
LINE
  8
0
 10
137.298
 20
-2.2981
 11
136.978
 21
-2.57838
  0
LINE
  8
0
 10
136.978
 20
-2.57838
 11
136.625
 21
-2.81458
  0
LINE
  8
0
 10
136.625
 20
-2.81458
 11
136.244
 21
-3.00259
  0
LINE
  8
0
 10
136.244
 20
-3.00259
 11
135.841
 21
-3.13925
  0
LINE
  8
0
 10
135.841
 20
-3.13925
 11
135.424
 21
-3.22218
  0
LINE
  8
0
 10
135.424
 20
-3.22218
 11
135
 21
-3.25
  0
LINE
  8
0
 10
135
 20
-3.25
 11
134.576
 21
-3.22218
  0
LINE
  8
0
 10
150.841
 20
3.13925
 11
151.244
 21
3.00259
  0
LINE
  8
0
 10
151.244
 20
3.00259
 11
151.625
 21
2.81458
  0
LINE
  8
0
 10
151.625
 20
2.81458
 11
151.978
 21
2.57838
  0
LINE
  8
0
 10
151.978
 20
2.57838
 11
152.298
 21
2.2981
  0
LINE
  8
0
 10
152.298
 20
2.2981
 11
152.578
 21
1.97847
  0
LINE
  8
0
 10
152.578
 20
1.97847
 11
152.815
 21
1.625
  0
LINE
  8
0
 10
152.815
 20
1.625
 11
153.003
 21
1.24371
  0
LINE
  8
0
 10
153.003
 20
1.24371
 11
153.139
 21
0.841156
  0
LINE
  8
0
 10
153.139
 20
0.841156
 11
153.222
 21
0.42421
  0
LINE
  8
0
 10
153.222
 20
0.42421
 11
153.25
 21
0
  0
LINE
  8
0
 10
153.25
 20
0
 11
153.222
 21
-0.42421
  0
LINE
  8
0
 10
153.222
 20
-0.42421
 11
153.139
 21
-0.841156
  0
LINE
  8
0
 10
153.139
 20
-0.841156
 11
153.003
 21
-1.24371
  0
LINE
  8
0
 10
153.003
 20
-1.24371
 11
152.815
 21
-1.625
  0
LINE
  8
0
 10
152.815
 20
-1.625
 11
152.578
 21
-1.97847
  0
LINE
  8
0
 10
152.578
 20
-1.97847
 11
152.298
 21
-2.2981
  0
LINE
  8
0
 10
152.298
 20
-2.2981
 11
151.978
 21
-2.57838
  0
LINE
  8
0
 10
151.978
 20
-2.57838
 11
151.625
 21
-2.81458
  0
LINE
  8
0
 10
151.625
 20
-2.81458
 11
151.244
 21
-3.00259
  0
LINE
  8
0
 10
151.244
 20
-3.00259
 11
150.841
 21
-3.13925
  0
LINE
  8
0
 10
150.841
 20
-3.13925
 11
150.424
 21
-3.22218
  0
LINE
  8
0
 10
150.424
 20
-3.22218
 11
150
 21
-3.25
  0
LINE
  8
0
 10
150
 20
-3.25
 11
149.576
 21
-3.22218
  0
LINE
  8
0
 10
149.576
 20
-3.22218
 11
149.159
 21
-3.13925
  0
LINE
  8
0
 10
149.159
 20
-3.13925
 11
148.756
 21
-3.00259
  0
LINE
  8
0
 10
148.756
 20
-3.00259
 11
148.375
 21
-2.81458
  0
LINE
  8
0
 10
148.375
 20
-2.81458
 11
148.022
 21
-2.57838
  0
LINE
  8
0
 10
148.022
 20
-2.57838
 11
147.702
 21
-2.2981
  0
LINE
  8
0
 10
147.702
 20
-2.2981
 11
147.422
 21
-1.97847
  0
LINE
  8
0
 10
147.422
 20
-1.97847
 11
147.185
 21
-1.625
  0
LINE
  8
0
 10
147.185
 20
-1.625
 11
146.997
 21
-1.24371
  0
LINE
  8
0
 10
146.997
 20
-1.24371
 11
146.861
 21
-0.841156
  0
LINE
  8
0
 10
146.861
 20
-0.841156
 11
146.778
 21
-0.42421
  0
LINE
  8
0
 10
146.778
 20
-0.42421
 11
146.75
 21
0
  0
LINE
  8
0
 10
146.75
 20
0
 11
146.778
 21
0.42421
  0
LINE
  8
0
 10
146.778
 20
0.42421
 11
146.861
 21
0.841156
  0
LINE
  8
0
 10
146.861
 20
0.841156
 11
146.997
 21
1.24371
  0
LINE
  8
0
 10
146.997
 20
1.24371
 11
147.185
 21
1.625
  0
LINE
  8
0
 10
147.185
 20
1.625
 11
147.422
 21
1.97847
  0
LINE
  8
0
 10
147.422
 20
1.97847
 11
147.702
 21
2.2981
  0
LINE
  8
0
 10
147.702
 20
2.2981
 11
148.022
 21
2.57838
  0
LINE
  8
0
 10
148.022
 20
2.57838
 11
148.375
 21
2.81458
  0
LINE
  8
0
 10
148.375
 20
2.81458
 11
148.756
 21
3.00259
  0
LINE
  8
0
 10
148.756
 20
3.00259
 11
149.159
 21
3.13925
  0
LINE
  8
0
 10
149.159
 20
3.13925
 11
149.576
 21
3.22218
  0
LINE
  8
0
 10
149.576
 20
3.22218
 11
150
 21
3.25
  0
LINE
  8
0
 10
150
 20
3.25
 11
150.424
 21
3.22218
  0
LINE
  8
0
 10
150.424
 20
3.22218
 11
150.841
 21
3.13925
  0
LINE
  8
0
 10
-105.424
 20
-3.22218
 11
-105.841
 21
-3.13925
  0
LINE
  8
0
 10
-105.841
 20
-3.13925
 11
-106.244
 21
-3.00259
  0
LINE
  8
0
 10
-106.244
 20
-3.00259
 11
-106.625
 21
-2.81458
  0
LINE
  8
0
 10
-106.625
 20
-2.81458
 11
-106.978
 21
-2.57838
  0
LINE
  8
0
 10
-106.978
 20
-2.57838
 11
-107.298
 21
-2.2981
  0
LINE
  8
0
 10
-107.298
 20
-2.2981
 11
-107.578
 21
-1.97847
  0
LINE
  8
0
 10
-107.578
 20
-1.97847
 11
-107.815
 21
-1.625
  0
LINE
  8
0
 10
-107.815
 20
-1.625
 11
-108.003
 21
-1.24371
  0
LINE
  8
0
 10
-108.003
 20
-1.24371
 11
-108.139
 21
-0.841156
  0
LINE
  8
0
 10
-108.139
 20
-0.841156
 11
-108.222
 21
-0.42421
  0
LINE
  8
0
 10
-108.222
 20
-0.42421
 11
-108.25
 21
0
  0
LINE
  8
0
 10
-108.25
 20
0
 11
-108.222
 21
0.42421
  0
LINE
  8
0
 10
-108.222
 20
0.42421
 11
-108.139
 21
0.841156
  0
LINE
  8
0
 10
-108.139
 20
0.841156
 11
-108.003
 21
1.24371
  0
LINE
  8
0
 10
-108.003
 20
1.24371
 11
-107.815
 21
1.625
  0
LINE
  8
0
 10
-107.815
 20
1.625
 11
-107.578
 21
1.97847
  0
LINE
  8
0
 10
-107.578
 20
1.97847
 11
-107.298
 21
2.2981
  0
LINE
  8
0
 10
-107.298
 20
2.2981
 11
-106.978
 21
2.57838
  0
LINE
  8
0
 10
-106.978
 20
2.57838
 11
-106.625
 21
2.81458
  0
LINE
  8
0
 10
-106.625
 20
2.81458
 11
-106.244
 21
3.00259
  0
LINE
  8
0
 10
-106.244
 20
3.00259
 11
-105.841
 21
3.13925
  0
LINE
  8
0
 10
-105.841
 20
3.13925
 11
-105.424
 21
3.22218
  0
LINE
  8
0
 10
-105.424
 20
3.22218
 11
-105
 21
3.25
  0
LINE
  8
0
 10
-105
 20
3.25
 11
-104.576
 21
3.22218
  0
LINE
  8
0
 10
-104.576
 20
3.22218
 11
-104.159
 21
3.13925
  0
LINE
  8
0
 10
-104.159
 20
3.13925
 11
-103.756
 21
3.00259
  0
LINE
  8
0
 10
-103.756
 20
3.00259
 11
-103.375
 21
2.81458
  0
LINE
  8
0
 10
-103.375
 20
2.81458
 11
-103.022
 21
2.57838
  0
LINE
  8
0
 10
-103.022
 20
2.57838
 11
-102.702
 21
2.2981
  0
LINE
  8
0
 10
-102.702
 20
2.2981
 11
-102.422
 21
1.97847
  0
LINE
  8
0
 10
-102.422
 20
1.97847
 11
-102.185
 21
1.625
  0
LINE
  8
0
 10
-102.185
 20
1.625
 11
-101.997
 21
1.24371
  0
LINE
  8
0
 10
-101.997
 20
1.24371
 11
-101.861
 21
0.841156
  0
LINE
  8
0
 10
-101.861
 20
0.841156
 11
-101.778
 21
0.42421
  0
LINE
  8
0
 10
-101.778
 20
0.42421
 11
-101.75
 21
0
  0
LINE
  8
0
 10
-101.75
 20
0
 11
-101.778
 21
-0.42421
  0
LINE
  8
0
 10
-101.778
 20
-0.42421
 11
-101.861
 21
-0.841156
  0
LINE
  8
0
 10
-101.861
 20
-0.841156
 11
-101.997
 21
-1.24371
  0
LINE
  8
0
 10
-101.997
 20
-1.24371
 11
-102.185
 21
-1.625
  0
LINE
  8
0
 10
-102.185
 20
-1.625
 11
-102.422
 21
-1.97847
  0
LINE
  8
0
 10
-102.422
 20
-1.97847
 11
-102.702
 21
-2.2981
  0
LINE
  8
0
 10
-102.702
 20
-2.2981
 11
-103.022
 21
-2.57838
  0
LINE
  8
0
 10
-103.022
 20
-2.57838
 11
-103.375
 21
-2.81458
  0
LINE
  8
0
 10
-103.375
 20
-2.81458
 11
-103.756
 21
-3.00259
  0
LINE
  8
0
 10
-103.756
 20
-3.00259
 11
-104.159
 21
-3.13925
  0
LINE
  8
0
 10
-104.159
 20
-3.13925
 11
-104.576
 21
-3.22218
  0
LINE
  8
0
 10
-104.576
 20
-3.22218
 11
-105
 21
-3.25
  0
LINE
  8
0
 10
-105
 20
-3.25
 11
-105.424
 21
-3.22218
  0
ENDSEC
  0
SECTION
  2
OBJECTS
  0
DICTIONARY
  0
ENDSEC
  0
EOF
