<?xml version="1.0" standalone="no"?>
<!DOCTYPE svg PUBLIC "-//W3C//DTD SVG 1.1//EN" "http://www.w3.org/Graphics/SVG/1.1/DTD/svg11.dtd">
<svg width="132mm" height="132mm" viewBox="9 -141 132 132" xmlns="http://www.w3.org/2000/svg" version="1.1">
<title>OpenSCAD Model</title>
<path d="
M 136,-9.02962 L 136.314,-9.00986 L 137.545,-9.24471 L 138.679,-9.77835 L 139.645,-10.5773 L 140.382,-11.5912
 L 140.843,-12.7565 L 141,-14 L 141,-136 L 140.843,-137.243 L 140.382,-138.409 L 139.645,-139.423
 L 138.679,-140.222 L 137.545,-140.755 L 136.314,-140.99 L 136,-140.97 L 136,-141 L 14,-141
 L 14,-140.97 L 13.0631,-140.911 L 11.8711,-140.524 L 10.8129,-139.853 L 9.95491,-138.939 L 9.3511,-137.841
 L 9.03941,-136.627 L 9.03941,-136 L 9,-136 L 9,-14 L 9.03941,-14 L 9.03941,-13.3733
 L 9.3511,-12.1594 L 9.95491,-11.0611 L 10.8129,-10.1474 L 11.8711,-9.47586 L 13.0631,-9.08856 L 14,-9.02962
 L 14,-9 L 136,-9 z
" stroke="black" fill="lightgray" stroke-width="0.5"/>
</svg>
