<?xml version="1.0" standalone="no"?>
<!DOCTYPE svg PUBLIC "-//W3C//DTD SVG 1.1//EN" "http://www.w3.org/Graphics/SVG/1.1/DTD/svg11.dtd">
<svg width="132mm" height="132mm" viewBox="9 -141 132 132" xmlns="http://www.w3.org/2000/svg" version="1.1">
<title>OpenSCAD Model</title>
<path d="
M 136,-9.00986 L 136.314,-9.00986 L 136.937,-9.08856 L 137.545,-9.24471 L 138.129,-9.47586 L 138.679,-9.77835
 L 139.187,-10.1474 L 139.645,-10.5773 L 140.045,-11.0611 L 140.382,-11.5912 L 140.649,-12.1594 L 140.843,-12.7565
 L 140.961,-13.3733 L 141,-14 L 141,-136 L 140.961,-136.627 L 140.843,-137.243 L 140.649,-137.841
 L 140.382,-138.409 L 140.045,-138.939 L 139.645,-139.423 L 139.187,-139.853 L 138.679,-140.222 L 138.129,-140.524
 L 137.545,-140.755 L 136.937,-140.911 L 136.314,-140.99 L 136,-140.99 L 136,-141 L 14,-141
 L 14,-140.99 L 13.686,-140.99 L 13.0631,-140.911 L 12.4549,-140.755 L 11.8711,-140.524 L 11.3209,-140.222
 L 10.8129,-139.853 L 10.3551,-139.423 L 9.95491,-138.939 L 9.61845,-138.409 L 9.3511,-137.841 L 9.15707,-137.243
 L 9.03941,-136.627 L 9,-136 L 9,-14 L 9.03941,-13.3733 L 9.15707,-12.7565 L 9.3511,-12.1594
 L 9.61845,-11.5912 L 9.95491,-11.0611 L 10.3551,-10.5773 L 10.8129,-10.1474 L 11.3209,-9.77835 L 11.8711,-9.47586
 L 12.4549,-9.24471 L 13.0631,-9.08856 L 13.686,-9.00986 L 14,-9.00986 L 14,-9 L 136,-9
 z
" stroke="black" fill="lightgray" stroke-width="0.5"/>
</svg>
