  0
SECTION
  2
BLOCKS
  0
ENDSEC
  0
SECTION
  2
ENTITIES
  0
LINE
  8
0
 10
69.7435
 20
-5.84291
 11
70.9088
 21
-5.38153
  0
LINE
  8
0
 10
70.9088
 20
-5.38153
 11
71.9227
 21
-4.64484
  0
LINE
  8
0
 10
71.9227
 20
-4.64484
 11
72.7216
 21
-3.67914
  0
LINE
  8
0
 10
72.7216
 20
-3.67914
 11
73.2553
 21
-2.54509
  0
LINE
  8
0
 10
73.2553
 20
-2.54509
 11
73.5
 21
-1
  0
LINE
  8
0
 10
73.5
 20
-1
 11
73.5
 21
1
  0
LINE
  8
0
 10
73.5
 20
1
 11
73.3429
 21
2.24345
  0
LINE
  8
0
 10
73.3429
 20
2.24345
 11
72.8815
 21
3.40877
  0
LINE
  8
0
 10
72.8815
 20
3.40877
 11
72.1448
 21
4.42273
  0
LINE
  8
0
 10
72.1448
 20
4.42273
 11
71.1791
 21
5.22163
  0
LINE
  8
0
 10
71.1791
 20
5.22163
 11
70.0451
 21
5.75528
  0
LINE
  8
0
 10
70.0451
 20
5.75528
 11
68.5
 21
6
  0
LINE
  8
0
 10
68.5
 20
6
 11
-68.5
 21
6
  0
LINE
  8
0
 10
-68.5
 20
6
 11
-69.7435
 21
5.84291
  0
LINE
  8
0
 10
-69.7435
 20
5.84291
 11
-70.9088
 21
5.38153
  0
LINE
  8
0
 10
-70.9088
 20
5.38153
 11
-71.9227
 21
4.64484
  0
LINE
  8
0
 10
-71.9227
 20
4.64484
 11
-72.7216
 21
3.67914
  0
LINE
  8
0
 10
-72.7216
 20
3.67914
 11
-73.2553
 21
2.54509
  0
LINE
  8
0
 10
-73.2553
 20
2.54509
 11
-73.5
 21
1
  0
LINE
  8
0
 10
-73.5
 20
1
 11
-73.5
 21
-1
  0
LINE
  8
0
 10
-73.5
 20
-1
 11
-73.3429
 21
-2.24345
  0
LINE
  8
0
 10
-73.3429
 20
-2.24345
 11
-72.8815
 21
-3.40877
  0
LINE
  8
0
 10
-72.8815
 20
-3.40877
 11
-72.1448
 21
-4.42273
  0
LINE
  8
0
 10
-72.1448
 20
-4.42273
 11
-71.1791
 21
-5.22163
  0
LINE
  8
0
 10
-71.1791
 20
-5.22163
 11
-70.0451
 21
-5.75528
  0
LINE
  8
0
 10
-70.0451
 20
-5.75528
 11
-68.5
 21
-6
  0
LINE
  8
0
 10
-68.5
 20
-6
 11
68.5
 21
-6
  0
LINE
  8
0
 10
68.5
 20
-6
 11
69.7435
 21
-5.84291
  0
LINE
  8
0
 10
-68.0621
 20
-2.94685
 11
-68.7773
 21
-2.71448
  0
LINE
  8
0
 10
-68.7773
 20
-2.71448
 11
-69.4123
 21
-2.31154
  0
LINE
  8
0
 10
-69.4123
 20
-2.31154
 11
-69.927
 21
-1.76335
  0
LINE
  8
0
 10
-69.927
 20
-1.76335
 11
-70.2893
 21
-1.10437
  0
LINE
  8
0
 10
-70.2893
 20
-1.10437
 11
-70.4763
 21
-0.375992
  0
LINE
  8
0
 10
-70.4763
 20
-0.375992
 11
-70.4763
 21
0.375992
  0
LINE
  8
0
 10
-70.4763
 20
0.375992
 11
-70.2893
 21
1.10437
  0
LINE
  8
0
 10
-70.2893
 20
1.10437
 11
-69.927
 21
1.76335
  0
LINE
  8
0
 10
-69.927
 20
1.76335
 11
-69.4123
 21
2.31154
  0
LINE
  8
0
 10
-69.4123
 20
2.31154
 11
-68.7773
 21
2.71448
  0
LINE
  8
0
 10
-68.7773
 20
2.71448
 11
-68.0621
 21
2.94685
  0
LINE
  8
0
 10
-68.0621
 20
2.94685
 11
-67.3116
 21
2.99408
  0
LINE
  8
0
 10
-67.3116
 20
2.99408
 11
-66.573
 21
2.85316
  0
LINE
  8
0
 10
-66.573
 20
2.85316
 11
-65.8925
 21
2.53297
  0
LINE
  8
0
 10
-65.8925
 20
2.53297
 11
-65.3131
 21
2.05363
  0
LINE
  8
0
 10
-65.3131
 20
2.05363
 11
-64.8711
 21
1.44525
  0
LINE
  8
0
 10
-64.8711
 20
1.44525
 11
-64.5943
 21
0.746063
  0
LINE
  8
0
 10
-64.5943
 20
0.746063
 11
-64.5
 21
0
  0
LINE
  8
0
 10
-64.5
 20
0
 11
-64.5943
 21
-0.746063
  0
LINE
  8
0
 10
-64.5943
 20
-0.746063
 11
-64.8711
 21
-1.44525
  0
LINE
  8
0
 10
-64.8711
 20
-1.44525
 11
-65.3131
 21
-2.05363
  0
LINE
  8
0
 10
-65.3131
 20
-2.05363
 11
-65.8925
 21
-2.53297
  0
LINE
  8
0
 10
-65.8925
 20
-2.53297
 11
-66.573
 21
-2.85316
  0
LINE
  8
0
 10
-66.573
 20
-2.85316
 11
-67.3116
 21
-2.99408
  0
LINE
  8
0
 10
-67.3116
 20
-2.99408
 11
-68.0621
 21
-2.94685
  0
LINE
  8
0
 10
36.9379
 20
-2.94685
 11
36.2227
 21
-2.71448
  0
LINE
  8
0
 10
36.2227
 20
-2.71448
 11
35.5877
 21
-2.31154
  0
LINE
  8
0
 10
35.5877
 20
-2.31154
 11
35.0729
 21
-1.76335
  0
LINE
  8
0
 10
35.0729
 20
-1.76335
 11
34.7107
 21
-1.10437
  0
LINE
  8
0
 10
34.7107
 20
-1.10437
 11
34.5237
 21
-0.375992
  0
LINE
  8
0
 10
34.5237
 20
-0.375992
 11
34.5237
 21
0.375992
  0
LINE
  8
0
 10
34.5237
 20
0.375992
 11
34.7107
 21
1.10437
  0
LINE
  8
0
 10
34.7107
 20
1.10437
 11
35.0729
 21
1.76335
  0
LINE
  8
0
 10
35.0729
 20
1.76335
 11
35.5877
 21
2.31154
  0
LINE
  8
0
 10
35.5877
 20
2.31154
 11
36.2227
 21
2.71448
  0
LINE
  8
0
 10
36.2227
 20
2.71448
 11
36.9379
 21
2.94685
  0
LINE
  8
0
 10
36.9379
 20
2.94685
 11
37.6884
 21
2.99408
  0
LINE
  8
0
 10
37.6884
 20
2.99408
 11
38.427
 21
2.85316
  0
LINE
  8
0
 10
38.427
 20
2.85316
 11
39.1075
 21
2.53297
  0
LINE
  8
0
 10
39.1075
 20
2.53297
 11
39.6869
 21
2.05363
  0
LINE
  8
0
 10
39.6869
 20
2.05363
 11
40.1289
 21
1.44525
  0
LINE
  8
0
 10
40.1289
 20
1.44525
 11
40.4057
 21
0.746063
  0
LINE
  8
0
 10
40.4057
 20
0.746063
 11
40.5
 21
0
  0
LINE
  8
0
 10
40.5
 20
0
 11
40.4057
 21
-0.746063
  0
LINE
  8
0
 10
40.4057
 20
-0.746063
 11
40.1289
 21
-1.44525
  0
LINE
  8
0
 10
40.1289
 20
-1.44525
 11
39.6869
 21
-2.05363
  0
LINE
  8
0
 10
39.6869
 20
-2.05363
 11
39.1075
 21
-2.53297
  0
LINE
  8
0
 10
39.1075
 20
-2.53297
 11
38.427
 21
-2.85316
  0
LINE
  8
0
 10
38.427
 20
-2.85316
 11
37.6884
 21
-2.99408
  0
LINE
  8
0
 10
37.6884
 20
-2.99408
 11
36.9379
 21
-2.94685
  0
LINE
  8
0
 10
-53.0621
 20
-2.94685
 11
-53.7773
 21
-2.71448
  0
LINE
  8
0
 10
-53.7773
 20
-2.71448
 11
-54.4123
 21
-2.31154
  0
LINE
  8
0
 10
-54.4123
 20
-2.31154
 11
-54.927
 21
-1.76335
  0
LINE
  8
0
 10
-54.927
 20
-1.76335
 11
-55.2893
 21
-1.10437
  0
LINE
  8
0
 10
-55.2893
 20
-1.10437
 11
-55.4763
 21
-0.375992
  0
LINE
  8
0
 10
-55.4763
 20
-0.375992
 11
-55.4763
 21
0.375992
  0
LINE
  8
0
 10
-55.4763
 20
0.375992
 11
-55.2893
 21
1.10437
  0
LINE
  8
0
 10
-55.2893
 20
1.10437
 11
-54.927
 21
1.76335
  0
LINE
  8
0
 10
-54.927
 20
1.76335
 11
-54.4123
 21
2.31154
  0
LINE
  8
0
 10
-54.4123
 20
2.31154
 11
-53.7773
 21
2.71448
  0
LINE
  8
0
 10
-53.7773
 20
2.71448
 11
-53.0621
 21
2.94685
  0
LINE
  8
0
 10
-53.0621
 20
2.94685
 11
-52.3116
 21
2.99408
  0
LINE
  8
0
 10
-52.3116
 20
2.99408
 11
-51.5729
 21
2.85316
  0
LINE
  8
0
 10
-51.5729
 20
2.85316
 11
-50.8925
 21
2.53297
  0
LINE
  8
0
 10
-50.8925
 20
2.53297
 11
-50.3131
 21
2.05363
  0
LINE
  8
0
 10
-50.3131
 20
2.05363
 11
-49.8711
 21
1.44525
  0
LINE
  8
0
 10
-49.8711
 20
1.44525
 11
-49.5942
 21
0.746063
  0
LINE
  8
0
 10
-49.5942
 20
0.746063
 11
-49.5
 21
0
  0
LINE
  8
0
 10
-49.5
 20
0
 11
-49.5942
 21
-0.746063
  0
LINE
  8
0
 10
-49.5942
 20
-0.746063
 11
-49.8711
 21
-1.44525
  0
LINE
  8
0
 10
-49.8711
 20
-1.44525
 11
-50.3131
 21
-2.05363
  0
LINE
  8
0
 10
-50.3131
 20
-2.05363
 11
-50.8925
 21
-2.53297
  0
LINE
  8
0
 10
-50.8925
 20
-2.53297
 11
-51.5729
 21
-2.85316
  0
LINE
  8
0
 10
-51.5729
 20
-2.85316
 11
-52.3116
 21
-2.99408
  0
LINE
  8
0
 10
-52.3116
 20
-2.99408
 11
-53.0621
 21
-2.94685
  0
LINE
  8
0
 10
51.9379
 20
-2.94685
 11
51.2227
 21
-2.71448
  0
LINE
  8
0
 10
51.2227
 20
-2.71448
 11
50.5877
 21
-2.31154
  0
LINE
  8
0
 10
50.5877
 20
-2.31154
 11
50.0729
 21
-1.76335
  0
LINE
  8
0
 10
50.0729
 20
-1.76335
 11
49.7107
 21
-1.10437
  0
LINE
  8
0
 10
49.7107
 20
-1.10437
 11
49.5237
 21
-0.375992
  0
LINE
  8
0
 10
49.5237
 20
-0.375992
 11
49.5237
 21
0.375992
  0
LINE
  8
0
 10
49.5237
 20
0.375992
 11
49.7107
 21
1.10437
  0
LINE
  8
0
 10
49.7107
 20
1.10437
 11
50.0729
 21
1.76335
  0
LINE
  8
0
 10
50.0729
 20
1.76335
 11
50.5877
 21
2.31154
  0
LINE
  8
0
 10
50.5877
 20
2.31154
 11
51.2227
 21
2.71448
  0
LINE
  8
0
 10
51.2227
 20
2.71448
 11
51.9379
 21
2.94685
  0
LINE
  8
0
 10
51.9379
 20
2.94685
 11
52.6884
 21
2.99408
  0
LINE
  8
0
 10
52.6884
 20
2.99408
 11
53.427
 21
2.85316
  0
LINE
  8
0
 10
53.427
 20
2.85316
 11
54.1075
 21
2.53297
  0
LINE
  8
0
 10
54.1075
 20
2.53297
 11
54.6869
 21
2.05363
  0
LINE
  8
0
 10
54.6869
 20
2.05363
 11
55.1289
 21
1.44525
  0
LINE
  8
0
 10
55.1289
 20
1.44525
 11
55.4057
 21
0.746063
  0
LINE
  8
0
 10
55.4057
 20
0.746063
 11
55.5
 21
0
  0
LINE
  8
0
 10
55.5
 20
0
 11
55.4057
 21
-0.746063
  0
LINE
  8
0
 10
55.4057
 20
-0.746063
 11
55.1289
 21
-1.44525
  0
LINE
  8
0
 10
55.1289
 20
-1.44525
 11
54.6869
 21
-2.05363
  0
LINE
  8
0
 10
54.6869
 20
-2.05363
 11
54.1075
 21
-2.53297
  0
LINE
  8
0
 10
54.1075
 20
-2.53297
 11
53.427
 21
-2.85316
  0
LINE
  8
0
 10
53.427
 20
-2.85316
 11
52.6884
 21
-2.99408
  0
LINE
  8
0
 10
52.6884
 20
-2.99408
 11
51.9379
 21
-2.94685
  0
LINE
  8
0
 10
66.9379
 20
-2.94685
 11
66.2227
 21
-2.71448
  0
LINE
  8
0
 10
66.2227
 20
-2.71448
 11
65.5877
 21
-2.31154
  0
LINE
  8
0
 10
65.5877
 20
-2.31154
 11
65.073
 21
-1.76335
  0
LINE
  8
0
 10
65.073
 20
-1.76335
 11
64.7107
 21
-1.10437
  0
LINE
  8
0
 10
64.7107
 20
-1.10437
 11
64.5237
 21
-0.375992
  0
LINE
  8
0
 10
64.5237
 20
-0.375992
 11
64.5237
 21
0.375992
  0
LINE
  8
0
 10
64.5237
 20
0.375992
 11
64.7107
 21
1.10437
  0
LINE
  8
0
 10
64.7107
 20
1.10437
 11
65.073
 21
1.76335
  0
LINE
  8
0
 10
65.073
 20
1.76335
 11
65.5877
 21
2.31154
  0
LINE
  8
0
 10
65.5877
 20
2.31154
 11
66.2227
 21
2.71448
  0
LINE
  8
0
 10
66.2227
 20
2.71448
 11
66.9379
 21
2.94685
  0
LINE
  8
0
 10
66.9379
 20
2.94685
 11
67.6884
 21
2.99408
  0
LINE
  8
0
 10
67.6884
 20
2.99408
 11
68.427
 21
2.85316
  0
LINE
  8
0
 10
68.427
 20
2.85316
 11
69.1075
 21
2.53297
  0
LINE
  8
0
 10
69.1075
 20
2.53297
 11
69.6869
 21
2.05363
  0
LINE
  8
0
 10
69.6869
 20
2.05363
 11
70.1289
 21
1.44525
  0
LINE
  8
0
 10
70.1289
 20
1.44525
 11
70.4057
 21
0.746063
  0
LINE
  8
0
 10
70.4057
 20
0.746063
 11
70.5
 21
0
  0
LINE
  8
0
 10
70.5
 20
0
 11
70.4057
 21
-0.746063
  0
LINE
  8
0
 10
70.4057
 20
-0.746063
 11
70.1289
 21
-1.44525
  0
LINE
  8
0
 10
70.1289
 20
-1.44525
 11
69.6869
 21
-2.05363
  0
LINE
  8
0
 10
69.6869
 20
-2.05363
 11
69.1075
 21
-2.53297
  0
LINE
  8
0
 10
69.1075
 20
-2.53297
 11
68.427
 21
-2.85316
  0
LINE
  8
0
 10
68.427
 20
-2.85316
 11
67.6884
 21
-2.99408
  0
LINE
  8
0
 10
67.6884
 20
-2.99408
 11
66.9379
 21
-2.94685
  0
LINE
  8
0
 10
-38.0621
 20
-2.94685
 11
-38.7773
 21
-2.71448
  0
LINE
  8
0
 10
-38.7773
 20
-2.71448
 11
-39.4123
 21
-2.31154
  0
LINE
  8
0
 10
-39.4123
 20
-2.31154
 11
-39.927
 21
-1.76335
  0
LINE
  8
0
 10
-39.927
 20
-1.76335
 11
-40.2893
 21
-1.10437
  0
LINE
  8
0
 10
-40.2893
 20
-1.10437
 11
-40.4763
 21
-0.375992
  0
LINE
  8
0
 10
-40.4763
 20
-0.375992
 11
-40.4763
 21
0.375992
  0
LINE
  8
0
 10
-40.4763
 20
0.375992
 11
-40.2893
 21
1.10437
  0
LINE
  8
0
 10
-40.2893
 20
1.10437
 11
-39.927
 21
1.76335
  0
LINE
  8
0
 10
-39.927
 20
1.76335
 11
-39.4123
 21
2.31154
  0
LINE
  8
0
 10
-39.4123
 20
2.31154
 11
-38.7773
 21
2.71448
  0
LINE
  8
0
 10
-38.7773
 20
2.71448
 11
-38.0621
 21
2.94685
  0
LINE
  8
0
 10
-38.0621
 20
2.94685
 11
-37.3116
 21
2.99408
  0
LINE
  8
0
 10
-37.3116
 20
2.99408
 11
-36.5729
 21
2.85316
  0
LINE
  8
0
 10
-36.5729
 20
2.85316
 11
-35.8925
 21
2.53297
  0
LINE
  8
0
 10
-35.8925
 20
2.53297
 11
-35.3131
 21
2.05363
  0
LINE
  8
0
 10
-35.3131
 20
2.05363
 11
-34.8711
 21
1.44525
  0
LINE
  8
0
 10
-34.8711
 20
1.44525
 11
-34.5942
 21
0.746063
  0
LINE
  8
0
 10
-34.5942
 20
0.746063
 11
-34.5
 21
0
  0
LINE
  8
0
 10
-34.5
 20
0
 11
-34.5942
 21
-0.746063
  0
LINE
  8
0
 10
-34.5942
 20
-0.746063
 11
-34.8711
 21
-1.44525
  0
LINE
  8
0
 10
-34.8711
 20
-1.44525
 11
-35.3131
 21
-2.05363
  0
LINE
  8
0
 10
-35.3131
 20
-2.05363
 11
-35.8925
 21
-2.53297
  0
LINE
  8
0
 10
-35.8925
 20
-2.53297
 11
-36.5729
 21
-2.85316
  0
LINE
  8
0
 10
-36.5729
 20
-2.85316
 11
-37.3116
 21
-2.99408
  0
LINE
  8
0
 10
-37.3116
 20
-2.99408
 11
-38.0621
 21
-2.94685
  0
LINE
  8
0
 10
6.93785
 20
-2.94685
 11
6.22266
 21
-2.71448
  0
LINE
  8
0
 10
6.22266
 20
-2.71448
 11
5.58772
 21
-2.31154
  0
LINE
  8
0
 10
5.58772
 20
-2.31154
 11
5.07294
 21
-1.76335
  0
LINE
  8
0
 10
5.07294
 20
-1.76335
 11
4.71066
 21
-1.10437
  0
LINE
  8
0
 10
4.71066
 20
-1.10437
 11
4.52365
 21
-0.375992
  0
LINE
  8
0
 10
4.52365
 20
-0.375992
 11
4.52365
 21
0.375992
  0
LINE
  8
0
 10
4.52365
 20
0.375992
 11
4.71066
 21
1.10437
  0
LINE
  8
0
 10
4.71066
 20
1.10437
 11
5.07294
 21
1.76335
  0
LINE
  8
0
 10
5.07294
 20
1.76335
 11
5.58772
 21
2.31154
  0
LINE
  8
0
 10
5.58772
 20
2.31154
 11
6.22266
 21
2.71448
  0
LINE
  8
0
 10
6.22266
 20
2.71448
 11
6.93785
 21
2.94685
  0
LINE
  8
0
 10
6.93785
 20
2.94685
 11
7.68837
 21
2.99408
  0
LINE
  8
0
 10
7.68837
 20
2.99408
 11
8.42705
 21
2.85316
  0
LINE
  8
0
 10
8.42705
 20
2.85316
 11
9.10747
 21
2.53297
  0
LINE
  8
0
 10
9.10747
 20
2.53297
 11
9.6869
 21
2.05363
  0
LINE
  8
0
 10
9.6869
 20
2.05363
 11
10.1289
 21
1.44525
  0
LINE
  8
0
 10
10.1289
 20
1.44525
 11
10.4057
 21
0.746063
  0
LINE
  8
0
 10
10.4057
 20
0.746063
 11
10.5
 21
0
  0
LINE
  8
0
 10
10.5
 20
0
 11
10.4057
 21
-0.746063
  0
LINE
  8
0
 10
10.4057
 20
-0.746063
 11
10.1289
 21
-1.44525
  0
LINE
  8
0
 10
10.1289
 20
-1.44525
 11
9.6869
 21
-2.05363
  0
LINE
  8
0
 10
9.6869
 20
-2.05363
 11
9.10747
 21
-2.53297
  0
LINE
  8
0
 10
9.10747
 20
-2.53297
 11
8.42705
 21
-2.85316
  0
LINE
  8
0
 10
8.42705
 20
-2.85316
 11
7.68837
 21
-2.99408
  0
LINE
  8
0
 10
7.68837
 20
-2.99408
 11
6.93785
 21
-2.94685
  0
LINE
  8
0
 10
21.9379
 20
-2.94685
 11
21.2227
 21
-2.71448
  0
LINE
  8
0
 10
21.2227
 20
-2.71448
 11
20.5877
 21
-2.31154
  0
LINE
  8
0
 10
20.5877
 20
-2.31154
 11
20.0729
 21
-1.76335
  0
LINE
  8
0
 10
20.0729
 20
-1.76335
 11
19.7107
 21
-1.10437
  0
LINE
  8
0
 10
19.7107
 20
-1.10437
 11
19.5237
 21
-0.375992
  0
LINE
  8
0
 10
19.5237
 20
-0.375992
 11
19.5237
 21
0.375992
  0
LINE
  8
0
 10
19.5237
 20
0.375992
 11
19.7107
 21
1.10437
  0
LINE
  8
0
 10
19.7107
 20
1.10437
 11
20.0729
 21
1.76335
  0
LINE
  8
0
 10
20.0729
 20
1.76335
 11
20.5877
 21
2.31154
  0
LINE
  8
0
 10
20.5877
 20
2.31154
 11
21.2227
 21
2.71448
  0
LINE
  8
0
 10
21.2227
 20
2.71448
 11
21.9379
 21
2.94685
  0
LINE
  8
0
 10
21.9379
 20
2.94685
 11
22.6884
 21
2.99408
  0
LINE
  8
0
 10
22.6884
 20
2.99408
 11
23.427
 21
2.85316
  0
LINE
  8
0
 10
23.427
 20
2.85316
 11
24.1075
 21
2.53297
  0
LINE
  8
0
 10
24.1075
 20
2.53297
 11
24.6869
 21
2.05363
  0
LINE
  8
0
 10
24.6869
 20
2.05363
 11
25.1289
 21
1.44525
  0
LINE
  8
0
 10
25.1289
 20
1.44525
 11
25.4057
 21
0.746063
  0
LINE
  8
0
 10
25.4057
 20
0.746063
 11
25.5
 21
0
  0
LINE
  8
0
 10
25.5
 20
0
 11
25.4057
 21
-0.746063
  0
LINE
  8
0
 10
25.4057
 20
-0.746063
 11
25.1289
 21
-1.44525
  0
LINE
  8
0
 10
25.1289
 20
-1.44525
 11
24.6869
 21
-2.05363
  0
LINE
  8
0
 10
24.6869
 20
-2.05363
 11
24.1075
 21
-2.53297
  0
LINE
  8
0
 10
24.1075
 20
-2.53297
 11
23.427
 21
-2.85316
  0
LINE
  8
0
 10
23.427
 20
-2.85316
 11
22.6884
 21
-2.99408
  0
LINE
  8
0
 10
22.6884
 20
-2.99408
 11
21.9379
 21
-2.94685
  0
LINE
  8
0
 10
-23.0621
 20
-2.94685
 11
-23.7773
 21
-2.71448
  0
LINE
  8
0
 10
-23.7773
 20
-2.71448
 11
-24.4123
 21
-2.31154
  0
LINE
  8
0
 10
-24.4123
 20
-2.31154
 11
-24.927
 21
-1.76335
  0
LINE
  8
0
 10
-24.927
 20
-1.76335
 11
-25.2893
 21
-1.10437
  0
LINE
  8
0
 10
-25.2893
 20
-1.10437
 11
-25.4763
 21
-0.375992
  0
LINE
  8
0
 10
-25.4763
 20
-0.375992
 11
-25.4763
 21
0.375992
  0
LINE
  8
0
 10
-25.4763
 20
0.375992
 11
-25.2893
 21
1.10437
  0
LINE
  8
0
 10
-25.2893
 20
1.10437
 11
-24.927
 21
1.76335
  0
LINE
  8
0
 10
-24.927
 20
1.76335
 11
-24.4123
 21
2.31154
  0
LINE
  8
0
 10
-24.4123
 20
2.31154
 11
-23.7773
 21
2.71448
  0
LINE
  8
0
 10
-23.7773
 20
2.71448
 11
-23.0621
 21
2.94685
  0
LINE
  8
0
 10
-23.0621
 20
2.94685
 11
-22.3116
 21
2.99408
  0
LINE
  8
0
 10
-22.3116
 20
2.99408
 11
-21.5729
 21
2.85316
  0
LINE
  8
0
 10
-21.5729
 20
2.85316
 11
-20.8925
 21
2.53297
  0
LINE
  8
0
 10
-20.8925
 20
2.53297
 11
-20.3131
 21
2.05363
  0
LINE
  8
0
 10
-20.3131
 20
2.05363
 11
-19.8711
 21
1.44525
  0
LINE
  8
0
 10
-19.8711
 20
1.44525
 11
-19.5942
 21
0.746063
  0
LINE
  8
0
 10
-19.5942
 20
0.746063
 11
-19.5
 21
0
  0
LINE
  8
0
 10
-19.5
 20
0
 11
-19.5942
 21
-0.746063
  0
LINE
  8
0
 10
-19.5942
 20
-0.746063
 11
-19.8711
 21
-1.44525
  0
LINE
  8
0
 10
-19.8711
 20
-1.44525
 11
-20.3131
 21
-2.05363
  0
LINE
  8
0
 10
-20.3131
 20
-2.05363
 11
-20.8925
 21
-2.53297
  0
LINE
  8
0
 10
-20.8925
 20
-2.53297
 11
-21.5729
 21
-2.85316
  0
LINE
  8
0
 10
-21.5729
 20
-2.85316
 11
-22.3116
 21
-2.99408
  0
LINE
  8
0
 10
-22.3116
 20
-2.99408
 11
-23.0621
 21
-2.94685
  0
LINE
  8
0
 10
-8.06213
 20
-2.94685
 11
-8.77733
 21
-2.71448
  0
LINE
  8
0
 10
-8.77733
 20
-2.71448
 11
-9.41226
 21
-2.31154
  0
LINE
  8
0
 10
-9.41226
 20
-2.31154
 11
-9.92705
 21
-1.76335
  0
LINE
  8
0
 10
-9.92705
 20
-1.76335
 11
-10.2893
 21
-1.10437
  0
LINE
  8
0
 10
-10.2893
 20
-1.10437
 11
-10.4763
 21
-0.375992
  0
LINE
  8
0
 10
-10.4763
 20
-0.375992
 11
-10.4763
 21
0.375992
  0
LINE
  8
0
 10
-10.4763
 20
0.375992
 11
-10.2893
 21
1.10437
  0
LINE
  8
0
 10
-10.2893
 20
1.10437
 11
-9.92705
 21
1.76335
  0
LINE
  8
0
 10
-9.92705
 20
1.76335
 11
-9.41226
 21
2.31154
  0
LINE
  8
0
 10
-9.41226
 20
2.31154
 11
-8.77733
 21
2.71448
  0
LINE
  8
0
 10
-8.77733
 20
2.71448
 11
-8.06213
 21
2.94685
  0
LINE
  8
0
 10
-8.06213
 20
2.94685
 11
-7.31161
 21
2.99408
  0
LINE
  8
0
 10
-7.31161
 20
2.99408
 11
-6.57294
 21
2.85316
  0
LINE
  8
0
 10
-6.57294
 20
2.85316
 11
-5.89252
 21
2.53297
  0
LINE
  8
0
 10
-5.89252
 20
2.53297
 11
-5.31308
 21
2.05363
  0
LINE
  8
0
 10
-5.31308
 20
2.05363
 11
-4.87108
 21
1.44525
  0
LINE
  8
0
 10
-4.87108
 20
1.44525
 11
-4.59424
 21
0.746063
  0
LINE
  8
0
 10
-4.59424
 20
0.746063
 11
-4.5
 21
0
  0
LINE
  8
0
 10
-4.5
 20
0
 11
-4.59424
 21
-0.746063
  0
LINE
  8
0
 10
-4.59424
 20
-0.746063
 11
-4.87108
 21
-1.44525
  0
LINE
  8
0
 10
-4.87108
 20
-1.44525
 11
-5.31308
 21
-2.05363
  0
LINE
  8
0
 10
-5.31308
 20
-2.05363
 11
-5.89252
 21
-2.53297
  0
LINE
  8
0
 10
-5.89252
 20
-2.53297
 11
-6.57294
 21
-2.85316
  0
LINE
  8
0
 10
-6.57294
 20
-2.85316
 11
-7.31161
 21
-2.99408
  0
LINE
  8
0
 10
-7.31161
 20
-2.99408
 11
-8.06213
 21
-2.94685
  0
ENDSEC
  0
SECTION
  2
OBJECTS
  0
DICTIONARY
  0
ENDSEC
  0
EOF
