<?xml version="1.0" standalone="no"?>
<!DOCTYPE svg PUBLIC "-//W3C//DTD SVG 1.1//EN" "http://www.w3.org/Graphics/SVG/1.1/DTD/svg11.dtd">
<svg width="147mm" height="12mm" viewBox="9 -21 147 12" xmlns="http://www.w3.org/2000/svg" version="1.1">
<title>OpenSCAD Model</title>
<path d="
M 151,-9.00986 L 151.314,-9.00986 L 151.937,-9.08856 L 152.545,-9.24471 L 153.129,-9.47586 L 153.679,-9.77835
 L 154.187,-10.1474 L 154.645,-10.5773 L 155.045,-11.0611 L 155.382,-11.5912 L 155.649,-12.1594 L 155.843,-12.7565
 L 155.961,-13.3733 L 156,-14 L 156,-16 L 155.961,-16.6267 L 155.843,-17.2434 L 155.649,-17.8406
 L 155.382,-18.4088 L 155.045,-18.9389 L 154.645,-19.4227 L 154.187,-19.8526 L 153.679,-20.2216 L 153.129,-20.5241
 L 152.545,-20.7553 L 151.937,-20.9114 L 151.314,-20.9901 L 151,-20.9901 L 151,-21 L 14,-21
 L 14,-20.9901 L 13.686,-20.9901 L 13.0631,-20.9114 L 12.4549,-20.7553 L 11.8711,-20.5241 L 11.3209,-20.2216
 L 10.8129,-19.8526 L 10.3551,-19.4227 L 9.95491,-18.9389 L 9.61845,-18.4088 L 9.3511,-17.8406 L 9.15707,-17.2434
 L 9.03941,-16.6267 L 9,-16 L 9,-14 L 9.03941,-13.3733 L 9.15707,-12.7565 L 9.3511,-12.1594
 L 9.61845,-11.5912 L 9.95491,-11.0611 L 10.3551,-10.5773 L 10.8129,-10.1474 L 11.3209,-9.77835 L 11.8711,-9.47586
 L 12.4549,-9.24471 L 13.0631,-9.08856 L 13.686,-9.00986 L 14,-9.00986 L 14,-9 L 151,-9
 z
" stroke="black" fill="lightgray" stroke-width="0.5"/>
</svg>
