  0
SECTION
  2
BLOCKS
  0
ENDSEC
  0
SECTION
  2
ENTITIES
  0
LINE
  8
0
 10
68.8139
 20
-5.99013
 11
69.1267
 21
-5.96057
  0
LINE
  8
0
 10
69.1267
 20
-5.96057
 11
69.4369
 21
-5.91144
  0
LINE
  8
0
 10
69.4369
 20
-5.91144
 11
69.7435
 21
-5.84291
  0
LINE
  8
0
 10
69.7435
 20
-5.84291
 11
70.0451
 21
-5.75528
  0
LINE
  8
0
 10
70.0451
 20
-5.75528
 11
70.3406
 21
-5.64888
  0
LINE
  8
0
 10
70.3406
 20
-5.64888
 11
70.6289
 21
-5.52414
  0
LINE
  8
0
 10
70.6289
 20
-5.52414
 11
70.9088
 21
-5.38153
  0
LINE
  8
0
 10
70.9088
 20
-5.38153
 11
71.1791
 21
-5.22163
  0
LINE
  8
0
 10
71.1791
 20
-5.22163
 11
71.4389
 21
-5.04509
  0
LINE
  8
0
 10
71.4389
 20
-5.04509
 11
71.6871
 21
-4.85257
  0
LINE
  8
0
 10
71.6871
 20
-4.85257
 11
71.9227
 21
-4.64484
  0
LINE
  8
0
 10
71.9227
 20
-4.64484
 11
72.1448
 21
-4.42273
  0
LINE
  8
0
 10
72.1448
 20
-4.42273
 11
72.3526
 21
-4.18712
  0
LINE
  8
0
 10
72.3526
 20
-4.18712
 11
72.5451
 21
-3.93892
  0
LINE
  8
0
 10
72.5451
 20
-3.93892
 11
72.7216
 21
-3.67914
  0
LINE
  8
0
 10
72.7216
 20
-3.67914
 11
72.8815
 21
-3.40877
  0
LINE
  8
0
 10
72.8815
 20
-3.40877
 11
73.0241
 21
-3.12889
  0
LINE
  8
0
 10
73.0241
 20
-3.12889
 11
73.1489
 21
-2.84062
  0
LINE
  8
0
 10
73.1489
 20
-2.84062
 11
73.2553
 21
-2.54509
  0
LINE
  8
0
 10
73.2553
 20
-2.54509
 11
73.3429
 21
-2.24345
  0
LINE
  8
0
 10
73.3429
 20
-2.24345
 11
73.4114
 21
-1.9369
  0
LINE
  8
0
 10
73.4114
 20
-1.9369
 11
73.4606
 21
-1.62666
  0
LINE
  8
0
 10
73.4606
 20
-1.62666
 11
73.4901
 21
-1.31395
  0
LINE
  8
0
 10
73.4901
 20
-1.31395
 11
73.5
 21
-1
  0
LINE
  8
0
 10
73.5
 20
-1
 11
73.5
 21
1
  0
LINE
  8
0
 10
73.5
 20
1
 11
73.4901
 21
1.31395
  0
LINE
  8
0
 10
73.4901
 20
1.31395
 11
73.4606
 21
1.62666
  0
LINE
  8
0
 10
73.4606
 20
1.62666
 11
73.4114
 21
1.9369
  0
LINE
  8
0
 10
73.4114
 20
1.9369
 11
73.3429
 21
2.24345
  0
LINE
  8
0
 10
73.3429
 20
2.24345
 11
73.2553
 21
2.54509
  0
LINE
  8
0
 10
73.2553
 20
2.54509
 11
73.1489
 21
2.84062
  0
LINE
  8
0
 10
73.1489
 20
2.84062
 11
73.0241
 21
3.12889
  0
LINE
  8
0
 10
73.0241
 20
3.12889
 11
72.8815
 21
3.40877
  0
LINE
  8
0
 10
72.8815
 20
3.40877
 11
72.7216
 21
3.67914
  0
LINE
  8
0
 10
72.7216
 20
3.67914
 11
72.5451
 21
3.93892
  0
LINE
  8
0
 10
72.5451
 20
3.93892
 11
72.3526
 21
4.18712
  0
LINE
  8
0
 10
72.3526
 20
4.18712
 11
72.1448
 21
4.42273
  0
LINE
  8
0
 10
72.1448
 20
4.42273
 11
71.9227
 21
4.64484
  0
LINE
  8
0
 10
71.9227
 20
4.64484
 11
71.6871
 21
4.85257
  0
LINE
  8
0
 10
71.6871
 20
4.85257
 11
71.4389
 21
5.04509
  0
LINE
  8
0
 10
71.4389
 20
5.04509
 11
71.1791
 21
5.22163
  0
LINE
  8
0
 10
71.1791
 20
5.22163
 11
70.9088
 21
5.38153
  0
LINE
  8
0
 10
70.9088
 20
5.38153
 11
70.6289
 21
5.52414
  0
LINE
  8
0
 10
70.6289
 20
5.52414
 11
70.3406
 21
5.64888
  0
LINE
  8
0
 10
70.3406
 20
5.64888
 11
70.0451
 21
5.75528
  0
LINE
  8
0
 10
70.0451
 20
5.75528
 11
69.7435
 21
5.84291
  0
LINE
  8
0
 10
69.7435
 20
5.84291
 11
69.4369
 21
5.91144
  0
LINE
  8
0
 10
69.4369
 20
5.91144
 11
69.1267
 21
5.96057
  0
LINE
  8
0
 10
69.1267
 20
5.96057
 11
68.8139
 21
5.99013
  0
LINE
  8
0
 10
68.8139
 20
5.99013
 11
68.5
 21
6
  0
LINE
  8
0
 10
68.5
 20
6
 11
-68.5
 21
6
  0
LINE
  8
0
 10
-68.5
 20
6
 11
-68.8139
 21
5.99013
  0
LINE
  8
0
 10
-68.8139
 20
5.99013
 11
-69.1267
 21
5.96057
  0
LINE
  8
0
 10
-69.1267
 20
5.96057
 11
-69.4369
 21
5.91144
  0
LINE
  8
0
 10
-69.4369
 20
5.91144
 11
-69.7435
 21
5.84291
  0
LINE
  8
0
 10
-69.7435
 20
5.84291
 11
-70.0451
 21
5.75528
  0
LINE
  8
0
 10
-70.0451
 20
5.75528
 11
-70.3406
 21
5.64888
  0
LINE
  8
0
 10
-70.3406
 20
5.64888
 11
-70.6289
 21
5.52414
  0
LINE
  8
0
 10
-70.6289
 20
5.52414
 11
-70.9088
 21
5.38153
  0
LINE
  8
0
 10
-70.9088
 20
5.38153
 11
-71.1791
 21
5.22163
  0
LINE
  8
0
 10
-71.1791
 20
5.22163
 11
-71.4389
 21
5.04509
  0
LINE
  8
0
 10
-71.4389
 20
5.04509
 11
-71.6871
 21
4.85257
  0
LINE
  8
0
 10
-71.6871
 20
4.85257
 11
-71.9227
 21
4.64484
  0
LINE
  8
0
 10
-71.9227
 20
4.64484
 11
-72.1448
 21
4.42273
  0
LINE
  8
0
 10
-72.1448
 20
4.42273
 11
-72.3526
 21
4.18712
  0
LINE
  8
0
 10
-72.3526
 20
4.18712
 11
-72.5451
 21
3.93892
  0
LINE
  8
0
 10
-72.5451
 20
3.93892
 11
-72.7216
 21
3.67914
  0
LINE
  8
0
 10
-72.7216
 20
3.67914
 11
-72.8815
 21
3.40877
  0
LINE
  8
0
 10
-72.8815
 20
3.40877
 11
-73.0241
 21
3.12889
  0
LINE
  8
0
 10
-73.0241
 20
3.12889
 11
-73.1489
 21
2.84062
  0
LINE
  8
0
 10
-73.1489
 20
2.84062
 11
-73.2553
 21
2.54509
  0
LINE
  8
0
 10
-73.2553
 20
2.54509
 11
-73.3429
 21
2.24345
  0
LINE
  8
0
 10
-73.3429
 20
2.24345
 11
-73.4114
 21
1.9369
  0
LINE
  8
0
 10
-73.4114
 20
1.9369
 11
-73.4606
 21
1.62666
  0
LINE
  8
0
 10
-73.4606
 20
1.62666
 11
-73.4901
 21
1.31395
  0
LINE
  8
0
 10
-73.4901
 20
1.31395
 11
-73.5
 21
1
  0
LINE
  8
0
 10
-73.5
 20
1
 11
-73.5
 21
-1
  0
LINE
  8
0
 10
-73.5
 20
-1
 11
-73.4901
 21
-1.31395
  0
LINE
  8
0
 10
-73.4901
 20
-1.31395
 11
-73.4606
 21
-1.62666
  0
LINE
  8
0
 10
-73.4606
 20
-1.62666
 11
-73.4114
 21
-1.9369
  0
LINE
  8
0
 10
-73.4114
 20
-1.9369
 11
-73.3429
 21
-2.24345
  0
LINE
  8
0
 10
-73.3429
 20
-2.24345
 11
-73.2553
 21
-2.54509
  0
LINE
  8
0
 10
-73.2553
 20
-2.54509
 11
-73.1489
 21
-2.84062
  0
LINE
  8
0
 10
-73.1489
 20
-2.84062
 11
-73.0241
 21
-3.12889
  0
LINE
  8
0
 10
-73.0241
 20
-3.12889
 11
-72.8815
 21
-3.40877
  0
LINE
  8
0
 10
-72.8815
 20
-3.40877
 11
-72.7216
 21
-3.67914
  0
LINE
  8
0
 10
-72.7216
 20
-3.67914
 11
-72.5451
 21
-3.93892
  0
LINE
  8
0
 10
-72.5451
 20
-3.93892
 11
-72.3526
 21
-4.18712
  0
LINE
  8
0
 10
-72.3526
 20
-4.18712
 11
-72.1448
 21
-4.42273
  0
LINE
  8
0
 10
-72.1448
 20
-4.42273
 11
-71.9227
 21
-4.64484
  0
LINE
  8
0
 10
-71.9227
 20
-4.64484
 11
-71.6871
 21
-4.85257
  0
LINE
  8
0
 10
-71.6871
 20
-4.85257
 11
-71.4389
 21
-5.04509
  0
LINE
  8
0
 10
-71.4389
 20
-5.04509
 11
-71.1791
 21
-5.22163
  0
LINE
  8
0
 10
-71.1791
 20
-5.22163
 11
-70.9088
 21
-5.38153
  0
LINE
  8
0
 10
-70.9088
 20
-5.38153
 11
-70.6289
 21
-5.52414
  0
LINE
  8
0
 10
-70.6289
 20
-5.52414
 11
-70.3406
 21
-5.64888
  0
LINE
  8
0
 10
-70.3406
 20
-5.64888
 11
-70.0451
 21
-5.75528
  0
LINE
  8
0
 10
-70.0451
 20
-5.75528
 11
-69.7435
 21
-5.84291
  0
LINE
  8
0
 10
-69.7435
 20
-5.84291
 11
-69.4369
 21
-5.91144
  0
LINE
  8
0
 10
-69.4369
 20
-5.91144
 11
-69.1267
 21
-5.96057
  0
LINE
  8
0
 10
-69.1267
 20
-5.96057
 11
-68.8139
 21
-5.99013
  0
LINE
  8
0
 10
-68.8139
 20
-5.99013
 11
-68.5
 21
-6
  0
LINE
  8
0
 10
-68.5
 20
-6
 11
68.5
 21
-6
  0
LINE
  8
0
 10
68.5
 20
-6
 11
68.8139
 21
-5.99013
  0
LINE
  8
0
 10
7.87599
 20
2.97633
 11
8.06213
 21
2.94685
  0
LINE
  8
0
 10
8.06213
 20
2.94685
 11
8.24606
 21
2.90575
  0
LINE
  8
0
 10
8.24606
 20
2.90575
 11
8.42705
 21
2.85316
  0
LINE
  8
0
 10
8.42705
 20
2.85316
 11
8.60437
 21
2.78932
  0
LINE
  8
0
 10
8.60437
 20
2.78932
 11
8.77733
 21
2.71448
  0
LINE
  8
0
 10
8.77733
 20
2.71448
 11
8.94525
 21
2.62891
  0
LINE
  8
0
 10
8.94525
 20
2.62891
 11
9.10747
 21
2.53297
  0
LINE
  8
0
 10
9.10747
 20
2.53297
 11
9.26335
 21
2.42705
  0
LINE
  8
0
 10
9.26335
 20
2.42705
 11
9.41226
 21
2.31154
  0
LINE
  8
0
 10
9.41226
 20
2.31154
 11
9.55363
 21
2.1869
  0
LINE
  8
0
 10
9.55363
 20
2.1869
 11
9.6869
 21
2.05363
  0
LINE
  8
0
 10
9.6869
 20
2.05363
 11
9.81154
 21
1.91226
  0
LINE
  8
0
 10
9.81154
 20
1.91226
 11
9.92705
 21
1.76335
  0
LINE
  8
0
 10
9.92705
 20
1.76335
 11
10.033
 21
1.60747
  0
LINE
  8
0
 10
10.033
 20
1.60747
 11
10.1289
 21
1.44525
  0
LINE
  8
0
 10
10.1289
 20
1.44525
 11
10.2145
 21
1.27733
  0
LINE
  8
0
 10
10.2145
 20
1.27733
 11
10.2893
 21
1.10437
  0
LINE
  8
0
 10
10.2893
 20
1.10437
 11
10.3532
 21
0.927048
  0
LINE
  8
0
 10
10.3532
 20
0.927048
 11
10.4057
 21
0.746063
  0
LINE
  8
0
 10
10.4057
 20
0.746063
 11
10.4469
 21
0.562134
  0
LINE
  8
0
 10
10.4469
 20
0.562134
 11
10.4763
 21
0.375992
  0
LINE
  8
0
 10
10.4763
 20
0.375992
 11
10.4941
 21
0.18837
  0
LINE
  8
0
 10
10.4941
 20
0.18837
 11
10.5
 21
0
  0
LINE
  8
0
 10
10.5
 20
0
 11
10.4941
 21
-0.18837
  0
LINE
  8
0
 10
10.4941
 20
-0.18837
 11
10.4763
 21
-0.375992
  0
LINE
  8
0
 10
10.4763
 20
-0.375992
 11
10.4469
 21
-0.562134
  0
LINE
  8
0
 10
10.4469
 20
-0.562134
 11
10.4057
 21
-0.746063
  0
LINE
  8
0
 10
10.4057
 20
-0.746063
 11
10.3532
 21
-0.927048
  0
LINE
  8
0
 10
10.3532
 20
-0.927048
 11
10.2893
 21
-1.10437
  0
LINE
  8
0
 10
10.2893
 20
-1.10437
 11
10.2145
 21
-1.27733
  0
LINE
  8
0
 10
10.2145
 20
-1.27733
 11
10.1289
 21
-1.44525
  0
LINE
  8
0
 10
10.1289
 20
-1.44525
 11
10.033
 21
-1.60747
  0
LINE
  8
0
 10
10.033
 20
-1.60747
 11
9.92705
 21
-1.76335
  0
LINE
  8
0
 10
9.92705
 20
-1.76335
 11
9.81154
 21
-1.91226
  0
LINE
  8
0
 10
9.81154
 20
-1.91226
 11
9.6869
 21
-2.05363
  0
LINE
  8
0
 10
9.6869
 20
-2.05363
 11
9.55363
 21
-2.1869
  0
LINE
  8
0
 10
9.55363
 20
-2.1869
 11
9.41226
 21
-2.31154
  0
LINE
  8
0
 10
9.41226
 20
-2.31154
 11
9.26335
 21
-2.42705
  0
LINE
  8
0
 10
9.26335
 20
-2.42705
 11
9.10747
 21
-2.53297
  0
LINE
  8
0
 10
9.10747
 20
-2.53297
 11
8.94525
 21
-2.62891
  0
LINE
  8
0
 10
8.94525
 20
-2.62891
 11
8.77733
 21
-2.71448
  0
LINE
  8
0
 10
8.77733
 20
-2.71448
 11
8.60437
 21
-2.78932
  0
LINE
  8
0
 10
8.60437
 20
-2.78932
 11
8.42705
 21
-2.85316
  0
LINE
  8
0
 10
8.42705
 20
-2.85316
 11
8.24606
 21
-2.90575
  0
LINE
  8
0
 10
8.24606
 20
-2.90575
 11
8.06213
 21
-2.94685
  0
LINE
  8
0
 10
8.06213
 20
-2.94685
 11
7.87599
 21
-2.97633
  0
LINE
  8
0
 10
7.87599
 20
-2.97633
 11
7.68837
 21
-2.99408
  0
LINE
  8
0
 10
7.68837
 20
-2.99408
 11
7.5
 21
-3
  0
LINE
  8
0
 10
7.5
 20
-3
 11
7.31161
 21
-2.99408
  0
LINE
  8
0
 10
7.31161
 20
-2.99408
 11
7.12399
 21
-2.97633
  0
LINE
  8
0
 10
7.12399
 20
-2.97633
 11
6.93785
 21
-2.94685
  0
LINE
  8
0
 10
6.93785
 20
-2.94685
 11
6.75392
 21
-2.90575
  0
LINE
  8
0
 10
6.75392
 20
-2.90575
 11
6.57294
 21
-2.85316
  0
LINE
  8
0
 10
6.57294
 20
-2.85316
 11
6.39561
 21
-2.78932
  0
LINE
  8
0
 10
6.39561
 20
-2.78932
 11
6.22266
 21
-2.71448
  0
LINE
  8
0
 10
6.22266
 20
-2.71448
 11
6.05473
 21
-2.62891
  0
LINE
  8
0
 10
6.05473
 20
-2.62891
 11
5.89252
 21
-2.53297
  0
LINE
  8
0
 10
5.89252
 20
-2.53297
 11
5.73663
 21
-2.42705
  0
LINE
  8
0
 10
5.73663
 20
-2.42705
 11
5.58772
 21
-2.31154
  0
LINE
  8
0
 10
5.58772
 20
-2.31154
 11
5.44635
 21
-2.1869
  0
LINE
  8
0
 10
5.44635
 20
-2.1869
 11
5.31308
 21
-2.05363
  0
LINE
  8
0
 10
5.31308
 20
-2.05363
 11
5.18845
 21
-1.91226
  0
LINE
  8
0
 10
5.18845
 20
-1.91226
 11
5.07294
 21
-1.76335
  0
LINE
  8
0
 10
5.07294
 20
-1.76335
 11
4.96701
 21
-1.60747
  0
LINE
  8
0
 10
4.96701
 20
-1.60747
 11
4.87108
 21
-1.44525
  0
LINE
  8
0
 10
4.87108
 20
-1.44525
 11
4.78551
 21
-1.27733
  0
LINE
  8
0
 10
4.78551
 20
-1.27733
 11
4.71066
 21
-1.10437
  0
LINE
  8
0
 10
4.71066
 20
-1.10437
 11
4.64682
 21
-0.927048
  0
LINE
  8
0
 10
4.64682
 20
-0.927048
 11
4.59424
 21
-0.746063
  0
LINE
  8
0
 10
4.59424
 20
-0.746063
 11
4.55313
 21
-0.562134
  0
LINE
  8
0
 10
4.55313
 20
-0.562134
 11
4.52365
 21
-0.375992
  0
LINE
  8
0
 10
4.52365
 20
-0.375992
 11
4.50591
 21
-0.18837
  0
LINE
  8
0
 10
4.50591
 20
-0.18837
 11
4.5
 21
0
  0
LINE
  8
0
 10
4.5
 20
0
 11
4.50591
 21
0.18837
  0
LINE
  8
0
 10
4.50591
 20
0.18837
 11
4.52365
 21
0.375992
  0
LINE
  8
0
 10
4.52365
 20
0.375992
 11
4.55313
 21
0.562134
  0
LINE
  8
0
 10
4.55313
 20
0.562134
 11
4.59424
 21
0.746063
  0
LINE
  8
0
 10
4.59424
 20
0.746063
 11
4.64682
 21
0.927048
  0
LINE
  8
0
 10
4.64682
 20
0.927048
 11
4.71066
 21
1.10437
  0
LINE
  8
0
 10
4.71066
 20
1.10437
 11
4.78551
 21
1.27733
  0
LINE
  8
0
 10
4.78551
 20
1.27733
 11
4.87108
 21
1.44525
  0
LINE
  8
0
 10
4.87108
 20
1.44525
 11
4.96701
 21
1.60747
  0
LINE
  8
0
 10
4.96701
 20
1.60747
 11
5.07294
 21
1.76335
  0
LINE
  8
0
 10
5.07294
 20
1.76335
 11
5.18845
 21
1.91226
  0
LINE
  8
0
 10
5.18845
 20
1.91226
 11
5.31308
 21
2.05363
  0
LINE
  8
0
 10
5.31308
 20
2.05363
 11
5.44635
 21
2.1869
  0
LINE
  8
0
 10
5.44635
 20
2.1869
 11
5.58772
 21
2.31154
  0
LINE
  8
0
 10
5.58772
 20
2.31154
 11
5.73663
 21
2.42705
  0
LINE
  8
0
 10
5.73663
 20
2.42705
 11
5.89252
 21
2.53297
  0
LINE
  8
0
 10
5.89252
 20
2.53297
 11
6.05473
 21
2.62891
  0
LINE
  8
0
 10
6.05473
 20
2.62891
 11
6.22266
 21
2.71448
  0
LINE
  8
0
 10
6.22266
 20
2.71448
 11
6.39561
 21
2.78932
  0
LINE
  8
0
 10
6.39561
 20
2.78932
 11
6.57294
 21
2.85316
  0
LINE
  8
0
 10
6.57294
 20
2.85316
 11
6.75392
 21
2.90575
  0
LINE
  8
0
 10
6.75392
 20
2.90575
 11
6.93785
 21
2.94685
  0
LINE
  8
0
 10
6.93785
 20
2.94685
 11
7.12399
 21
2.97633
  0
LINE
  8
0
 10
7.12399
 20
2.97633
 11
7.31161
 21
2.99408
  0
LINE
  8
0
 10
7.31161
 20
2.99408
 11
7.5
 21
3
  0
LINE
  8
0
 10
7.5
 20
3
 11
7.68837
 21
2.99408
  0
LINE
  8
0
 10
7.68837
 20
2.99408
 11
7.87599
 21
2.97633
  0
LINE
  8
0
 10
-67.6884
 20
-2.99408
 11
-67.876
 21
-2.97633
  0
LINE
  8
0
 10
-67.876
 20
-2.97633
 11
-68.0621
 21
-2.94685
  0
LINE
  8
0
 10
-68.0621
 20
-2.94685
 11
-68.2461
 21
-2.90575
  0
LINE
  8
0
 10
-68.2461
 20
-2.90575
 11
-68.427
 21
-2.85316
  0
LINE
  8
0
 10
-68.427
 20
-2.85316
 11
-68.6044
 21
-2.78932
  0
LINE
  8
0
 10
-68.6044
 20
-2.78932
 11
-68.7773
 21
-2.71448
  0
LINE
  8
0
 10
-68.7773
 20
-2.71448
 11
-68.9453
 21
-2.62891
  0
LINE
  8
0
 10
-68.9453
 20
-2.62891
 11
-69.1075
 21
-2.53297
  0
LINE
  8
0
 10
-69.1075
 20
-2.53297
 11
-69.2634
 21
-2.42705
  0
LINE
  8
0
 10
-69.2634
 20
-2.42705
 11
-69.4123
 21
-2.31154
  0
LINE
  8
0
 10
-69.4123
 20
-2.31154
 11
-69.5536
 21
-2.1869
  0
LINE
  8
0
 10
-69.5536
 20
-2.1869
 11
-69.6869
 21
-2.05363
  0
LINE
  8
0
 10
-69.6869
 20
-2.05363
 11
-69.8115
 21
-1.91226
  0
LINE
  8
0
 10
-69.8115
 20
-1.91226
 11
-69.927
 21
-1.76335
  0
LINE
  8
0
 10
-69.927
 20
-1.76335
 11
-70.033
 21
-1.60747
  0
LINE
  8
0
 10
-70.033
 20
-1.60747
 11
-70.1289
 21
-1.44525
  0
LINE
  8
0
 10
-70.1289
 20
-1.44525
 11
-70.2145
 21
-1.27733
  0
LINE
  8
0
 10
-70.2145
 20
-1.27733
 11
-70.2893
 21
-1.10437
  0
LINE
  8
0
 10
-70.2893
 20
-1.10437
 11
-70.3532
 21
-0.927048
  0
LINE
  8
0
 10
-70.3532
 20
-0.927048
 11
-70.4057
 21
-0.746063
  0
LINE
  8
0
 10
-70.4057
 20
-0.746063
 11
-70.4469
 21
-0.562134
  0
LINE
  8
0
 10
-70.4469
 20
-0.562134
 11
-70.4763
 21
-0.375992
  0
LINE
  8
0
 10
-70.4763
 20
-0.375992
 11
-70.4941
 21
-0.18837
  0
LINE
  8
0
 10
-70.4941
 20
-0.18837
 11
-70.5
 21
0
  0
LINE
  8
0
 10
-70.5
 20
0
 11
-70.4941
 21
0.18837
  0
LINE
  8
0
 10
-70.4941
 20
0.18837
 11
-70.4763
 21
0.375992
  0
LINE
  8
0
 10
-70.4763
 20
0.375992
 11
-70.4469
 21
0.562134
  0
LINE
  8
0
 10
-70.4469
 20
0.562134
 11
-70.4057
 21
0.746063
  0
LINE
  8
0
 10
-70.4057
 20
0.746063
 11
-70.3532
 21
0.927048
  0
LINE
  8
0
 10
-70.3532
 20
0.927048
 11
-70.2893
 21
1.10437
  0
LINE
  8
0
 10
-70.2893
 20
1.10437
 11
-70.2145
 21
1.27733
  0
LINE
  8
0
 10
-70.2145
 20
1.27733
 11
-70.1289
 21
1.44525
  0
LINE
  8
0
 10
-70.1289
 20
1.44525
 11
-70.033
 21
1.60747
  0
LINE
  8
0
 10
-70.033
 20
1.60747
 11
-69.927
 21
1.76335
  0
LINE
  8
0
 10
-69.927
 20
1.76335
 11
-69.8115
 21
1.91226
  0
LINE
  8
0
 10
-69.8115
 20
1.91226
 11
-69.6869
 21
2.05363
  0
LINE
  8
0
 10
-69.6869
 20
2.05363
 11
-69.5536
 21
2.1869
  0
LINE
  8
0
 10
-69.5536
 20
2.1869
 11
-69.4123
 21
2.31154
  0
LINE
  8
0
 10
-69.4123
 20
2.31154
 11
-69.2634
 21
2.42705
  0
LINE
  8
0
 10
-69.2634
 20
2.42705
 11
-69.1075
 21
2.53297
  0
LINE
  8
0
 10
-69.1075
 20
2.53297
 11
-68.9453
 21
2.62891
  0
LINE
  8
0
 10
-68.9453
 20
2.62891
 11
-68.7773
 21
2.71448
  0
LINE
  8
0
 10
-68.7773
 20
2.71448
 11
-68.6044
 21
2.78932
  0
LINE
  8
0
 10
-68.6044
 20
2.78932
 11
-68.427
 21
2.85316
  0
LINE
  8
0
 10
-68.427
 20
2.85316
 11
-68.2461
 21
2.90575
  0
LINE
  8
0
 10
-68.2461
 20
2.90575
 11
-68.0621
 21
2.94685
  0
LINE
  8
0
 10
-68.0621
 20
2.94685
 11
-67.876
 21
2.97633
  0
LINE
  8
0
 10
-67.876
 20
2.97633
 11
-67.6884
 21
2.99408
  0
LINE
  8
0
 10
-67.6884
 20
2.99408
 11
-67.5
 21
3
  0
LINE
  8
0
 10
-67.5
 20
3
 11
-67.3116
 21
2.99408
  0
LINE
  8
0
 10
-67.3116
 20
2.99408
 11
-67.124
 21
2.97633
  0
LINE
  8
0
 10
-67.124
 20
2.97633
 11
-66.9379
 21
2.94685
  0
LINE
  8
0
 10
-66.9379
 20
2.94685
 11
-66.7539
 21
2.90575
  0
LINE
  8
0
 10
-66.7539
 20
2.90575
 11
-66.573
 21
2.85316
  0
LINE
  8
0
 10
-66.573
 20
2.85316
 11
-66.3956
 21
2.78932
  0
LINE
  8
0
 10
-66.3956
 20
2.78932
 11
-66.2227
 21
2.71448
  0
LINE
  8
0
 10
-66.2227
 20
2.71448
 11
-66.0547
 21
2.62891
  0
LINE
  8
0
 10
-66.0547
 20
2.62891
 11
-65.8925
 21
2.53297
  0
LINE
  8
0
 10
-65.8925
 20
2.53297
 11
-65.7366
 21
2.42705
  0
LINE
  8
0
 10
-65.7366
 20
2.42705
 11
-65.5877
 21
2.31154
  0
LINE
  8
0
 10
-65.5877
 20
2.31154
 11
-65.4464
 21
2.1869
  0
LINE
  8
0
 10
-65.4464
 20
2.1869
 11
-65.3131
 21
2.05363
  0
LINE
  8
0
 10
-65.3131
 20
2.05363
 11
-65.1885
 21
1.91226
  0
LINE
  8
0
 10
-65.1885
 20
1.91226
 11
-65.073
 21
1.76335
  0
LINE
  8
0
 10
-65.073
 20
1.76335
 11
-64.967
 21
1.60747
  0
LINE
  8
0
 10
-64.967
 20
1.60747
 11
-64.8711
 21
1.44525
  0
LINE
  8
0
 10
-64.8711
 20
1.44525
 11
-64.7855
 21
1.27733
  0
LINE
  8
0
 10
-64.7855
 20
1.27733
 11
-64.7107
 21
1.10437
  0
LINE
  8
0
 10
-64.7107
 20
1.10437
 11
-64.6468
 21
0.927048
  0
LINE
  8
0
 10
-64.6468
 20
0.927048
 11
-64.5943
 21
0.746063
  0
LINE
  8
0
 10
-64.5943
 20
0.746063
 11
-64.5531
 21
0.562134
  0
LINE
  8
0
 10
-64.5531
 20
0.562134
 11
-64.5237
 21
0.375992
  0
LINE
  8
0
 10
-64.5237
 20
0.375992
 11
-64.5059
 21
0.18837
  0
LINE
  8
0
 10
-64.5059
 20
0.18837
 11
-64.5
 21
0
  0
LINE
  8
0
 10
-64.5
 20
0
 11
-64.5059
 21
-0.18837
  0
LINE
  8
0
 10
-64.5059
 20
-0.18837
 11
-64.5237
 21
-0.375992
  0
LINE
  8
0
 10
-64.5237
 20
-0.375992
 11
-64.5531
 21
-0.562134
  0
LINE
  8
0
 10
-64.5531
 20
-0.562134
 11
-64.5943
 21
-0.746063
  0
LINE
  8
0
 10
-64.5943
 20
-0.746063
 11
-64.6468
 21
-0.927048
  0
LINE
  8
0
 10
-64.6468
 20
-0.927048
 11
-64.7107
 21
-1.10437
  0
LINE
  8
0
 10
-64.7107
 20
-1.10437
 11
-64.7855
 21
-1.27733
  0
LINE
  8
0
 10
-64.7855
 20
-1.27733
 11
-64.8711
 21
-1.44525
  0
LINE
  8
0
 10
-64.8711
 20
-1.44525
 11
-64.967
 21
-1.60747
  0
LINE
  8
0
 10
-64.967
 20
-1.60747
 11
-65.073
 21
-1.76335
  0
LINE
  8
0
 10
-65.073
 20
-1.76335
 11
-65.1885
 21
-1.91226
  0
LINE
  8
0
 10
-65.1885
 20
-1.91226
 11
-65.3131
 21
-2.05363
  0
LINE
  8
0
 10
-65.3131
 20
-2.05363
 11
-65.4464
 21
-2.1869
  0
LINE
  8
0
 10
-65.4464
 20
-2.1869
 11
-65.5877
 21
-2.31154
  0
LINE
  8
0
 10
-65.5877
 20
-2.31154
 11
-65.7366
 21
-2.42705
  0
LINE
  8
0
 10
-65.7366
 20
-2.42705
 11
-65.8925
 21
-2.53297
  0
LINE
  8
0
 10
-65.8925
 20
-2.53297
 11
-66.0547
 21
-2.62891
  0
LINE
  8
0
 10
-66.0547
 20
-2.62891
 11
-66.2227
 21
-2.71448
  0
LINE
  8
0
 10
-66.2227
 20
-2.71448
 11
-66.3956
 21
-2.78932
  0
LINE
  8
0
 10
-66.3956
 20
-2.78932
 11
-66.573
 21
-2.85316
  0
LINE
  8
0
 10
-66.573
 20
-2.85316
 11
-66.7539
 21
-2.90575
  0
LINE
  8
0
 10
-66.7539
 20
-2.90575
 11
-66.9379
 21
-2.94685
  0
LINE
  8
0
 10
-66.9379
 20
-2.94685
 11
-67.124
 21
-2.97633
  0
LINE
  8
0
 10
-67.124
 20
-2.97633
 11
-67.3116
 21
-2.99408
  0
LINE
  8
0
 10
-67.3116
 20
-2.99408
 11
-67.5
 21
-3
  0
LINE
  8
0
 10
-67.5
 20
-3
 11
-67.6884
 21
-2.99408
  0
LINE
  8
0
 10
-52.6884
 20
-2.99408
 11
-52.876
 21
-2.97633
  0
LINE
  8
0
 10
-52.876
 20
-2.97633
 11
-53.0621
 21
-2.94685
  0
LINE
  8
0
 10
-53.0621
 20
-2.94685
 11
-53.2461
 21
-2.90575
  0
LINE
  8
0
 10
-53.2461
 20
-2.90575
 11
-53.427
 21
-2.85316
  0
LINE
  8
0
 10
-53.427
 20
-2.85316
 11
-53.6044
 21
-2.78932
  0
LINE
  8
0
 10
-53.6044
 20
-2.78932
 11
-53.7773
 21
-2.71448
  0
LINE
  8
0
 10
-53.7773
 20
-2.71448
 11
-53.9453
 21
-2.62891
  0
LINE
  8
0
 10
-53.9453
 20
-2.62891
 11
-54.1075
 21
-2.53297
  0
LINE
  8
0
 10
-54.1075
 20
-2.53297
 11
-54.2634
 21
-2.42705
  0
LINE
  8
0
 10
-54.2634
 20
-2.42705
 11
-54.4123
 21
-2.31154
  0
LINE
  8
0
 10
-54.4123
 20
-2.31154
 11
-54.5536
 21
-2.1869
  0
LINE
  8
0
 10
-54.5536
 20
-2.1869
 11
-54.6869
 21
-2.05363
  0
LINE
  8
0
 10
-54.6869
 20
-2.05363
 11
-54.8115
 21
-1.91226
  0
LINE
  8
0
 10
-54.8115
 20
-1.91226
 11
-54.927
 21
-1.76335
  0
LINE
  8
0
 10
-54.927
 20
-1.76335
 11
-55.033
 21
-1.60747
  0
LINE
  8
0
 10
-55.033
 20
-1.60747
 11
-55.1289
 21
-1.44525
  0
LINE
  8
0
 10
-55.1289
 20
-1.44525
 11
-55.2145
 21
-1.27733
  0
LINE
  8
0
 10
-55.2145
 20
-1.27733
 11
-55.2893
 21
-1.10437
  0
LINE
  8
0
 10
-55.2893
 20
-1.10437
 11
-55.3532
 21
-0.927048
  0
LINE
  8
0
 10
-55.3532
 20
-0.927048
 11
-55.4057
 21
-0.746063
  0
LINE
  8
0
 10
-55.4057
 20
-0.746063
 11
-55.4469
 21
-0.562134
  0
LINE
  8
0
 10
-55.4469
 20
-0.562134
 11
-55.4763
 21
-0.375992
  0
LINE
  8
0
 10
-55.4763
 20
-0.375992
 11
-55.4941
 21
-0.18837
  0
LINE
  8
0
 10
-55.4941
 20
-0.18837
 11
-55.5
 21
0
  0
LINE
  8
0
 10
-55.5
 20
0
 11
-55.4941
 21
0.18837
  0
LINE
  8
0
 10
-55.4941
 20
0.18837
 11
-55.4763
 21
0.375992
  0
LINE
  8
0
 10
-55.4763
 20
0.375992
 11
-55.4469
 21
0.562134
  0
LINE
  8
0
 10
-55.4469
 20
0.562134
 11
-55.4057
 21
0.746063
  0
LINE
  8
0
 10
-55.4057
 20
0.746063
 11
-55.3532
 21
0.927048
  0
LINE
  8
0
 10
-55.3532
 20
0.927048
 11
-55.2893
 21
1.10437
  0
LINE
  8
0
 10
-55.2893
 20
1.10437
 11
-55.2145
 21
1.27733
  0
LINE
  8
0
 10
-55.2145
 20
1.27733
 11
-55.1289
 21
1.44525
  0
LINE
  8
0
 10
-55.1289
 20
1.44525
 11
-55.033
 21
1.60747
  0
LINE
  8
0
 10
-55.033
 20
1.60747
 11
-54.927
 21
1.76335
  0
LINE
  8
0
 10
-54.927
 20
1.76335
 11
-54.8115
 21
1.91226
  0
LINE
  8
0
 10
-54.8115
 20
1.91226
 11
-54.6869
 21
2.05363
  0
LINE
  8
0
 10
-54.6869
 20
2.05363
 11
-54.5536
 21
2.1869
  0
LINE
  8
0
 10
-54.5536
 20
2.1869
 11
-54.4123
 21
2.31154
  0
LINE
  8
0
 10
-54.4123
 20
2.31154
 11
-54.2634
 21
2.42705
  0
LINE
  8
0
 10
-54.2634
 20
2.42705
 11
-54.1075
 21
2.53297
  0
LINE
  8
0
 10
-54.1075
 20
2.53297
 11
-53.9453
 21
2.62891
  0
LINE
  8
0
 10
-53.9453
 20
2.62891
 11
-53.7773
 21
2.71448
  0
LINE
  8
0
 10
-53.7773
 20
2.71448
 11
-53.6044
 21
2.78932
  0
LINE
  8
0
 10
-53.6044
 20
2.78932
 11
-53.427
 21
2.85316
  0
LINE
  8
0
 10
-53.427
 20
2.85316
 11
-53.2461
 21
2.90575
  0
LINE
  8
0
 10
-53.2461
 20
2.90575
 11
-53.0621
 21
2.94685
  0
LINE
  8
0
 10
-53.0621
 20
2.94685
 11
-52.876
 21
2.97633
  0
LINE
  8
0
 10
-52.876
 20
2.97633
 11
-52.6884
 21
2.99408
  0
LINE
  8
0
 10
-52.6884
 20
2.99408
 11
-52.5
 21
3
  0
LINE
  8
0
 10
-52.5
 20
3
 11
-52.3116
 21
2.99408
  0
LINE
  8
0
 10
-52.3116
 20
2.99408
 11
-52.124
 21
2.97633
  0
LINE
  8
0
 10
-52.124
 20
2.97633
 11
-51.9379
 21
2.94685
  0
LINE
  8
0
 10
-51.9379
 20
2.94685
 11
-51.7539
 21
2.90575
  0
LINE
  8
0
 10
-51.7539
 20
2.90575
 11
-51.5729
 21
2.85316
  0
LINE
  8
0
 10
-51.5729
 20
2.85316
 11
-51.3956
 21
2.78932
  0
LINE
  8
0
 10
-51.3956
 20
2.78932
 11
-51.2227
 21
2.71448
  0
LINE
  8
0
 10
-51.2227
 20
2.71448
 11
-51.0547
 21
2.62891
  0
LINE
  8
0
 10
-51.0547
 20
2.62891
 11
-50.8925
 21
2.53297
  0
LINE
  8
0
 10
-50.8925
 20
2.53297
 11
-50.7366
 21
2.42705
  0
LINE
  8
0
 10
-50.7366
 20
2.42705
 11
-50.5877
 21
2.31154
  0
LINE
  8
0
 10
-50.5877
 20
2.31154
 11
-50.4464
 21
2.1869
  0
LINE
  8
0
 10
-50.4464
 20
2.1869
 11
-50.3131
 21
2.05363
  0
LINE
  8
0
 10
-50.3131
 20
2.05363
 11
-50.1885
 21
1.91226
  0
LINE
  8
0
 10
-50.1885
 20
1.91226
 11
-50.0729
 21
1.76335
  0
LINE
  8
0
 10
-50.0729
 20
1.76335
 11
-49.967
 21
1.60747
  0
LINE
  8
0
 10
-49.967
 20
1.60747
 11
-49.8711
 21
1.44525
  0
LINE
  8
0
 10
-49.8711
 20
1.44525
 11
-49.7855
 21
1.27733
  0
LINE
  8
0
 10
-49.7855
 20
1.27733
 11
-49.7107
 21
1.10437
  0
LINE
  8
0
 10
-49.7107
 20
1.10437
 11
-49.6468
 21
0.927048
  0
LINE
  8
0
 10
-49.6468
 20
0.927048
 11
-49.5942
 21
0.746063
  0
LINE
  8
0
 10
-49.5942
 20
0.746063
 11
-49.5531
 21
0.562134
  0
LINE
  8
0
 10
-49.5531
 20
0.562134
 11
-49.5237
 21
0.375992
  0
LINE
  8
0
 10
-49.5237
 20
0.375992
 11
-49.5059
 21
0.18837
  0
LINE
  8
0
 10
-49.5059
 20
0.18837
 11
-49.5
 21
0
  0
LINE
  8
0
 10
-49.5
 20
0
 11
-49.5059
 21
-0.18837
  0
LINE
  8
0
 10
-49.5059
 20
-0.18837
 11
-49.5237
 21
-0.375992
  0
LINE
  8
0
 10
-49.5237
 20
-0.375992
 11
-49.5531
 21
-0.562134
  0
LINE
  8
0
 10
-49.5531
 20
-0.562134
 11
-49.5942
 21
-0.746063
  0
LINE
  8
0
 10
-49.5942
 20
-0.746063
 11
-49.6468
 21
-0.927048
  0
LINE
  8
0
 10
-49.6468
 20
-0.927048
 11
-49.7107
 21
-1.10437
  0
LINE
  8
0
 10
-49.7107
 20
-1.10437
 11
-49.7855
 21
-1.27733
  0
LINE
  8
0
 10
-49.7855
 20
-1.27733
 11
-49.8711
 21
-1.44525
  0
LINE
  8
0
 10
-49.8711
 20
-1.44525
 11
-49.967
 21
-1.60747
  0
LINE
  8
0
 10
-49.967
 20
-1.60747
 11
-50.0729
 21
-1.76335
  0
LINE
  8
0
 10
-50.0729
 20
-1.76335
 11
-50.1885
 21
-1.91226
  0
LINE
  8
0
 10
-50.1885
 20
-1.91226
 11
-50.3131
 21
-2.05363
  0
LINE
  8
0
 10
-50.3131
 20
-2.05363
 11
-50.4464
 21
-2.1869
  0
LINE
  8
0
 10
-50.4464
 20
-2.1869
 11
-50.5877
 21
-2.31154
  0
LINE
  8
0
 10
-50.5877
 20
-2.31154
 11
-50.7366
 21
-2.42705
  0
LINE
  8
0
 10
-50.7366
 20
-2.42705
 11
-50.8925
 21
-2.53297
  0
LINE
  8
0
 10
-50.8925
 20
-2.53297
 11
-51.0547
 21
-2.62891
  0
LINE
  8
0
 10
-51.0547
 20
-2.62891
 11
-51.2227
 21
-2.71448
  0
LINE
  8
0
 10
-51.2227
 20
-2.71448
 11
-51.3956
 21
-2.78932
  0
LINE
  8
0
 10
-51.3956
 20
-2.78932
 11
-51.5729
 21
-2.85316
  0
LINE
  8
0
 10
-51.5729
 20
-2.85316
 11
-51.7539
 21
-2.90575
  0
LINE
  8
0
 10
-51.7539
 20
-2.90575
 11
-51.9379
 21
-2.94685
  0
LINE
  8
0
 10
-51.9379
 20
-2.94685
 11
-52.124
 21
-2.97633
  0
LINE
  8
0
 10
-52.124
 20
-2.97633
 11
-52.3116
 21
-2.99408
  0
LINE
  8
0
 10
-52.3116
 20
-2.99408
 11
-52.5
 21
-3
  0
LINE
  8
0
 10
-52.5
 20
-3
 11
-52.6884
 21
-2.99408
  0
LINE
  8
0
 10
-37.6884
 20
-2.99408
 11
-37.876
 21
-2.97633
  0
LINE
  8
0
 10
-37.876
 20
-2.97633
 11
-38.0621
 21
-2.94685
  0
LINE
  8
0
 10
-38.0621
 20
-2.94685
 11
-38.2461
 21
-2.90575
  0
LINE
  8
0
 10
-38.2461
 20
-2.90575
 11
-38.427
 21
-2.85316
  0
LINE
  8
0
 10
-38.427
 20
-2.85316
 11
-38.6044
 21
-2.78932
  0
LINE
  8
0
 10
-38.6044
 20
-2.78932
 11
-38.7773
 21
-2.71448
  0
LINE
  8
0
 10
-38.7773
 20
-2.71448
 11
-38.9453
 21
-2.62891
  0
LINE
  8
0
 10
-38.9453
 20
-2.62891
 11
-39.1075
 21
-2.53297
  0
LINE
  8
0
 10
-39.1075
 20
-2.53297
 11
-39.2634
 21
-2.42705
  0
LINE
  8
0
 10
-39.2634
 20
-2.42705
 11
-39.4123
 21
-2.31154
  0
LINE
  8
0
 10
-39.4123
 20
-2.31154
 11
-39.5536
 21
-2.1869
  0
LINE
  8
0
 10
-39.5536
 20
-2.1869
 11
-39.6869
 21
-2.05363
  0
LINE
  8
0
 10
-39.6869
 20
-2.05363
 11
-39.8115
 21
-1.91226
  0
LINE
  8
0
 10
-39.8115
 20
-1.91226
 11
-39.927
 21
-1.76335
  0
LINE
  8
0
 10
-39.927
 20
-1.76335
 11
-40.033
 21
-1.60747
  0
LINE
  8
0
 10
-40.033
 20
-1.60747
 11
-40.1289
 21
-1.44525
  0
LINE
  8
0
 10
-40.1289
 20
-1.44525
 11
-40.2145
 21
-1.27733
  0
LINE
  8
0
 10
-40.2145
 20
-1.27733
 11
-40.2893
 21
-1.10437
  0
LINE
  8
0
 10
-40.2893
 20
-1.10437
 11
-40.3532
 21
-0.927048
  0
LINE
  8
0
 10
-40.3532
 20
-0.927048
 11
-40.4057
 21
-0.746063
  0
LINE
  8
0
 10
-40.4057
 20
-0.746063
 11
-40.4469
 21
-0.562134
  0
LINE
  8
0
 10
-40.4469
 20
-0.562134
 11
-40.4763
 21
-0.375992
  0
LINE
  8
0
 10
-40.4763
 20
-0.375992
 11
-40.4941
 21
-0.18837
  0
LINE
  8
0
 10
-40.4941
 20
-0.18837
 11
-40.5
 21
0
  0
LINE
  8
0
 10
-40.5
 20
0
 11
-40.4941
 21
0.18837
  0
LINE
  8
0
 10
-40.4941
 20
0.18837
 11
-40.4763
 21
0.375992
  0
LINE
  8
0
 10
-40.4763
 20
0.375992
 11
-40.4469
 21
0.562134
  0
LINE
  8
0
 10
-40.4469
 20
0.562134
 11
-40.4057
 21
0.746063
  0
LINE
  8
0
 10
-40.4057
 20
0.746063
 11
-40.3532
 21
0.927048
  0
LINE
  8
0
 10
-40.3532
 20
0.927048
 11
-40.2893
 21
1.10437
  0
LINE
  8
0
 10
-40.2893
 20
1.10437
 11
-40.2145
 21
1.27733
  0
LINE
  8
0
 10
-40.2145
 20
1.27733
 11
-40.1289
 21
1.44525
  0
LINE
  8
0
 10
-40.1289
 20
1.44525
 11
-40.033
 21
1.60747
  0
LINE
  8
0
 10
-40.033
 20
1.60747
 11
-39.927
 21
1.76335
  0
LINE
  8
0
 10
-39.927
 20
1.76335
 11
-39.8115
 21
1.91226
  0
LINE
  8
0
 10
-39.8115
 20
1.91226
 11
-39.6869
 21
2.05363
  0
LINE
  8
0
 10
-39.6869
 20
2.05363
 11
-39.5536
 21
2.1869
  0
LINE
  8
0
 10
-39.5536
 20
2.1869
 11
-39.4123
 21
2.31154
  0
LINE
  8
0
 10
-39.4123
 20
2.31154
 11
-39.2634
 21
2.42705
  0
LINE
  8
0
 10
-39.2634
 20
2.42705
 11
-39.1075
 21
2.53297
  0
LINE
  8
0
 10
-39.1075
 20
2.53297
 11
-38.9453
 21
2.62891
  0
LINE
  8
0
 10
-38.9453
 20
2.62891
 11
-38.7773
 21
2.71448
  0
LINE
  8
0
 10
-38.7773
 20
2.71448
 11
-38.6044
 21
2.78932
  0
LINE
  8
0
 10
-38.6044
 20
2.78932
 11
-38.427
 21
2.85316
  0
LINE
  8
0
 10
-38.427
 20
2.85316
 11
-38.2461
 21
2.90575
  0
LINE
  8
0
 10
-38.2461
 20
2.90575
 11
-38.0621
 21
2.94685
  0
LINE
  8
0
 10
-38.0621
 20
2.94685
 11
-37.876
 21
2.97633
  0
LINE
  8
0
 10
-37.876
 20
2.97633
 11
-37.6884
 21
2.99408
  0
LINE
  8
0
 10
-37.6884
 20
2.99408
 11
-37.5
 21
3
  0
LINE
  8
0
 10
-37.5
 20
3
 11
-37.3116
 21
2.99408
  0
LINE
  8
0
 10
-37.3116
 20
2.99408
 11
-37.124
 21
2.97633
  0
LINE
  8
0
 10
-37.124
 20
2.97633
 11
-36.9379
 21
2.94685
  0
LINE
  8
0
 10
-36.9379
 20
2.94685
 11
-36.7539
 21
2.90575
  0
LINE
  8
0
 10
-36.7539
 20
2.90575
 11
-36.5729
 21
2.85316
  0
LINE
  8
0
 10
-36.5729
 20
2.85316
 11
-36.3956
 21
2.78932
  0
LINE
  8
0
 10
-36.3956
 20
2.78932
 11
-36.2227
 21
2.71448
  0
LINE
  8
0
 10
-36.2227
 20
2.71448
 11
-36.0547
 21
2.62891
  0
LINE
  8
0
 10
-36.0547
 20
2.62891
 11
-35.8925
 21
2.53297
  0
LINE
  8
0
 10
-35.8925
 20
2.53297
 11
-35.7366
 21
2.42705
  0
LINE
  8
0
 10
-35.7366
 20
2.42705
 11
-35.5877
 21
2.31154
  0
LINE
  8
0
 10
-35.5877
 20
2.31154
 11
-35.4464
 21
2.1869
  0
LINE
  8
0
 10
-35.4464
 20
2.1869
 11
-35.3131
 21
2.05363
  0
LINE
  8
0
 10
-35.3131
 20
2.05363
 11
-35.1885
 21
1.91226
  0
LINE
  8
0
 10
-35.1885
 20
1.91226
 11
-35.0729
 21
1.76335
  0
LINE
  8
0
 10
-35.0729
 20
1.76335
 11
-34.967
 21
1.60747
  0
LINE
  8
0
 10
-34.967
 20
1.60747
 11
-34.8711
 21
1.44525
  0
LINE
  8
0
 10
-34.8711
 20
1.44525
 11
-34.7855
 21
1.27733
  0
LINE
  8
0
 10
-34.7855
 20
1.27733
 11
-34.7107
 21
1.10437
  0
LINE
  8
0
 10
-34.7107
 20
1.10437
 11
-34.6468
 21
0.927048
  0
LINE
  8
0
 10
-34.6468
 20
0.927048
 11
-34.5942
 21
0.746063
  0
LINE
  8
0
 10
-34.5942
 20
0.746063
 11
-34.5531
 21
0.562134
  0
LINE
  8
0
 10
-34.5531
 20
0.562134
 11
-34.5237
 21
0.375992
  0
LINE
  8
0
 10
-34.5237
 20
0.375992
 11
-34.5059
 21
0.18837
  0
LINE
  8
0
 10
-34.5059
 20
0.18837
 11
-34.5
 21
0
  0
LINE
  8
0
 10
-34.5
 20
0
 11
-34.5059
 21
-0.18837
  0
LINE
  8
0
 10
-34.5059
 20
-0.18837
 11
-34.5237
 21
-0.375992
  0
LINE
  8
0
 10
-34.5237
 20
-0.375992
 11
-34.5531
 21
-0.562134
  0
LINE
  8
0
 10
-34.5531
 20
-0.562134
 11
-34.5942
 21
-0.746063
  0
LINE
  8
0
 10
-34.5942
 20
-0.746063
 11
-34.6468
 21
-0.927048
  0
LINE
  8
0
 10
-34.6468
 20
-0.927048
 11
-34.7107
 21
-1.10437
  0
LINE
  8
0
 10
-34.7107
 20
-1.10437
 11
-34.7855
 21
-1.27733
  0
LINE
  8
0
 10
-34.7855
 20
-1.27733
 11
-34.8711
 21
-1.44525
  0
LINE
  8
0
 10
-34.8711
 20
-1.44525
 11
-34.967
 21
-1.60747
  0
LINE
  8
0
 10
-34.967
 20
-1.60747
 11
-35.0729
 21
-1.76335
  0
LINE
  8
0
 10
-35.0729
 20
-1.76335
 11
-35.1885
 21
-1.91226
  0
LINE
  8
0
 10
-35.1885
 20
-1.91226
 11
-35.3131
 21
-2.05363
  0
LINE
  8
0
 10
-35.3131
 20
-2.05363
 11
-35.4464
 21
-2.1869
  0
LINE
  8
0
 10
-35.4464
 20
-2.1869
 11
-35.5877
 21
-2.31154
  0
LINE
  8
0
 10
-35.5877
 20
-2.31154
 11
-35.7366
 21
-2.42705
  0
LINE
  8
0
 10
-35.7366
 20
-2.42705
 11
-35.8925
 21
-2.53297
  0
LINE
  8
0
 10
-35.8925
 20
-2.53297
 11
-36.0547
 21
-2.62891
  0
LINE
  8
0
 10
-36.0547
 20
-2.62891
 11
-36.2227
 21
-2.71448
  0
LINE
  8
0
 10
-36.2227
 20
-2.71448
 11
-36.3956
 21
-2.78932
  0
LINE
  8
0
 10
-36.3956
 20
-2.78932
 11
-36.5729
 21
-2.85316
  0
LINE
  8
0
 10
-36.5729
 20
-2.85316
 11
-36.7539
 21
-2.90575
  0
LINE
  8
0
 10
-36.7539
 20
-2.90575
 11
-36.9379
 21
-2.94685
  0
LINE
  8
0
 10
-36.9379
 20
-2.94685
 11
-37.124
 21
-2.97633
  0
LINE
  8
0
 10
-37.124
 20
-2.97633
 11
-37.3116
 21
-2.99408
  0
LINE
  8
0
 10
-37.3116
 20
-2.99408
 11
-37.5
 21
-3
  0
LINE
  8
0
 10
-37.5
 20
-3
 11
-37.6884
 21
-2.99408
  0
LINE
  8
0
 10
37.3116
 20
-2.99408
 11
37.124
 21
-2.97633
  0
LINE
  8
0
 10
37.124
 20
-2.97633
 11
36.9379
 21
-2.94685
  0
LINE
  8
0
 10
36.9379
 20
-2.94685
 11
36.7539
 21
-2.90575
  0
LINE
  8
0
 10
36.7539
 20
-2.90575
 11
36.5729
 21
-2.85316
  0
LINE
  8
0
 10
36.5729
 20
-2.85316
 11
36.3956
 21
-2.78932
  0
LINE
  8
0
 10
36.3956
 20
-2.78932
 11
36.2227
 21
-2.71448
  0
LINE
  8
0
 10
36.2227
 20
-2.71448
 11
36.0547
 21
-2.62891
  0
LINE
  8
0
 10
36.0547
 20
-2.62891
 11
35.8925
 21
-2.53297
  0
LINE
  8
0
 10
35.8925
 20
-2.53297
 11
35.7366
 21
-2.42705
  0
LINE
  8
0
 10
35.7366
 20
-2.42705
 11
35.5877
 21
-2.31154
  0
LINE
  8
0
 10
35.5877
 20
-2.31154
 11
35.4464
 21
-2.1869
  0
LINE
  8
0
 10
35.4464
 20
-2.1869
 11
35.3131
 21
-2.05363
  0
LINE
  8
0
 10
35.3131
 20
-2.05363
 11
35.1885
 21
-1.91226
  0
LINE
  8
0
 10
35.1885
 20
-1.91226
 11
35.0729
 21
-1.76335
  0
LINE
  8
0
 10
35.0729
 20
-1.76335
 11
34.967
 21
-1.60747
  0
LINE
  8
0
 10
34.967
 20
-1.60747
 11
34.8711
 21
-1.44525
  0
LINE
  8
0
 10
34.8711
 20
-1.44525
 11
34.7855
 21
-1.27733
  0
LINE
  8
0
 10
34.7855
 20
-1.27733
 11
34.7107
 21
-1.10437
  0
LINE
  8
0
 10
34.7107
 20
-1.10437
 11
34.6468
 21
-0.927048
  0
LINE
  8
0
 10
34.6468
 20
-0.927048
 11
34.5942
 21
-0.746063
  0
LINE
  8
0
 10
34.5942
 20
-0.746063
 11
34.5531
 21
-0.562134
  0
LINE
  8
0
 10
34.5531
 20
-0.562134
 11
34.5237
 21
-0.375992
  0
LINE
  8
0
 10
34.5237
 20
-0.375992
 11
34.5059
 21
-0.18837
  0
LINE
  8
0
 10
34.5059
 20
-0.18837
 11
34.5
 21
0
  0
LINE
  8
0
 10
34.5
 20
0
 11
34.5059
 21
0.18837
  0
LINE
  8
0
 10
34.5059
 20
0.18837
 11
34.5237
 21
0.375992
  0
LINE
  8
0
 10
34.5237
 20
0.375992
 11
34.5531
 21
0.562134
  0
LINE
  8
0
 10
34.5531
 20
0.562134
 11
34.5942
 21
0.746063
  0
LINE
  8
0
 10
34.5942
 20
0.746063
 11
34.6468
 21
0.927048
  0
LINE
  8
0
 10
34.6468
 20
0.927048
 11
34.7107
 21
1.10437
  0
LINE
  8
0
 10
34.7107
 20
1.10437
 11
34.7855
 21
1.27733
  0
LINE
  8
0
 10
34.7855
 20
1.27733
 11
34.8711
 21
1.44525
  0
LINE
  8
0
 10
34.8711
 20
1.44525
 11
34.967
 21
1.60747
  0
LINE
  8
0
 10
34.967
 20
1.60747
 11
35.0729
 21
1.76335
  0
LINE
  8
0
 10
35.0729
 20
1.76335
 11
35.1885
 21
1.91226
  0
LINE
  8
0
 10
35.1885
 20
1.91226
 11
35.3131
 21
2.05363
  0
LINE
  8
0
 10
35.3131
 20
2.05363
 11
35.4464
 21
2.1869
  0
LINE
  8
0
 10
35.4464
 20
2.1869
 11
35.5877
 21
2.31154
  0
LINE
  8
0
 10
35.5877
 20
2.31154
 11
35.7366
 21
2.42705
  0
LINE
  8
0
 10
35.7366
 20
2.42705
 11
35.8925
 21
2.53297
  0
LINE
  8
0
 10
35.8925
 20
2.53297
 11
36.0547
 21
2.62891
  0
LINE
  8
0
 10
36.0547
 20
2.62891
 11
36.2227
 21
2.71448
  0
LINE
  8
0
 10
36.2227
 20
2.71448
 11
36.3956
 21
2.78932
  0
LINE
  8
0
 10
36.3956
 20
2.78932
 11
36.5729
 21
2.85316
  0
LINE
  8
0
 10
36.5729
 20
2.85316
 11
36.7539
 21
2.90575
  0
LINE
  8
0
 10
36.7539
 20
2.90575
 11
36.9379
 21
2.94685
  0
LINE
  8
0
 10
36.9379
 20
2.94685
 11
37.124
 21
2.97633
  0
LINE
  8
0
 10
37.124
 20
2.97633
 11
37.3116
 21
2.99408
  0
LINE
  8
0
 10
37.3116
 20
2.99408
 11
37.5
 21
3
  0
LINE
  8
0
 10
37.5
 20
3
 11
37.6884
 21
2.99408
  0
LINE
  8
0
 10
37.6884
 20
2.99408
 11
37.876
 21
2.97633
  0
LINE
  8
0
 10
37.876
 20
2.97633
 11
38.0621
 21
2.94685
  0
LINE
  8
0
 10
38.0621
 20
2.94685
 11
38.2461
 21
2.90575
  0
LINE
  8
0
 10
38.2461
 20
2.90575
 11
38.427
 21
2.85316
  0
LINE
  8
0
 10
38.427
 20
2.85316
 11
38.6044
 21
2.78932
  0
LINE
  8
0
 10
38.6044
 20
2.78932
 11
38.7773
 21
2.71448
  0
LINE
  8
0
 10
38.7773
 20
2.71448
 11
38.9453
 21
2.62891
  0
LINE
  8
0
 10
38.9453
 20
2.62891
 11
39.1075
 21
2.53297
  0
LINE
  8
0
 10
39.1075
 20
2.53297
 11
39.2634
 21
2.42705
  0
LINE
  8
0
 10
39.2634
 20
2.42705
 11
39.4123
 21
2.31154
  0
LINE
  8
0
 10
39.4123
 20
2.31154
 11
39.5536
 21
2.1869
  0
LINE
  8
0
 10
39.5536
 20
2.1869
 11
39.6869
 21
2.05363
  0
LINE
  8
0
 10
39.6869
 20
2.05363
 11
39.8115
 21
1.91226
  0
LINE
  8
0
 10
39.8115
 20
1.91226
 11
39.927
 21
1.76335
  0
LINE
  8
0
 10
39.927
 20
1.76335
 11
40.033
 21
1.60747
  0
LINE
  8
0
 10
40.033
 20
1.60747
 11
40.1289
 21
1.44525
  0
LINE
  8
0
 10
40.1289
 20
1.44525
 11
40.2145
 21
1.27733
  0
LINE
  8
0
 10
40.2145
 20
1.27733
 11
40.2893
 21
1.10437
  0
LINE
  8
0
 10
40.2893
 20
1.10437
 11
40.3532
 21
0.927048
  0
LINE
  8
0
 10
40.3532
 20
0.927048
 11
40.4057
 21
0.746063
  0
LINE
  8
0
 10
40.4057
 20
0.746063
 11
40.4469
 21
0.562134
  0
LINE
  8
0
 10
40.4469
 20
0.562134
 11
40.4763
 21
0.375992
  0
LINE
  8
0
 10
40.4763
 20
0.375992
 11
40.4941
 21
0.18837
  0
LINE
  8
0
 10
40.4941
 20
0.18837
 11
40.5
 21
0
  0
LINE
  8
0
 10
40.5
 20
0
 11
40.4941
 21
-0.18837
  0
LINE
  8
0
 10
40.4941
 20
-0.18837
 11
40.4763
 21
-0.375992
  0
LINE
  8
0
 10
40.4763
 20
-0.375992
 11
40.4469
 21
-0.562134
  0
LINE
  8
0
 10
40.4469
 20
-0.562134
 11
40.4057
 21
-0.746063
  0
LINE
  8
0
 10
40.4057
 20
-0.746063
 11
40.3532
 21
-0.927048
  0
LINE
  8
0
 10
40.3532
 20
-0.927048
 11
40.2893
 21
-1.10437
  0
LINE
  8
0
 10
40.2893
 20
-1.10437
 11
40.2145
 21
-1.27733
  0
LINE
  8
0
 10
40.2145
 20
-1.27733
 11
40.1289
 21
-1.44525
  0
LINE
  8
0
 10
40.1289
 20
-1.44525
 11
40.033
 21
-1.60747
  0
LINE
  8
0
 10
40.033
 20
-1.60747
 11
39.927
 21
-1.76335
  0
LINE
  8
0
 10
39.927
 20
-1.76335
 11
39.8115
 21
-1.91226
  0
LINE
  8
0
 10
39.8115
 20
-1.91226
 11
39.6869
 21
-2.05363
  0
LINE
  8
0
 10
39.6869
 20
-2.05363
 11
39.5536
 21
-2.1869
  0
LINE
  8
0
 10
39.5536
 20
-2.1869
 11
39.4123
 21
-2.31154
  0
LINE
  8
0
 10
39.4123
 20
-2.31154
 11
39.2634
 21
-2.42705
  0
LINE
  8
0
 10
39.2634
 20
-2.42705
 11
39.1075
 21
-2.53297
  0
LINE
  8
0
 10
39.1075
 20
-2.53297
 11
38.9453
 21
-2.62891
  0
LINE
  8
0
 10
38.9453
 20
-2.62891
 11
38.7773
 21
-2.71448
  0
LINE
  8
0
 10
38.7773
 20
-2.71448
 11
38.6044
 21
-2.78932
  0
LINE
  8
0
 10
38.6044
 20
-2.78932
 11
38.427
 21
-2.85316
  0
LINE
  8
0
 10
38.427
 20
-2.85316
 11
38.2461
 21
-2.90575
  0
LINE
  8
0
 10
38.2461
 20
-2.90575
 11
38.0621
 21
-2.94685
  0
LINE
  8
0
 10
38.0621
 20
-2.94685
 11
37.876
 21
-2.97633
  0
LINE
  8
0
 10
37.876
 20
-2.97633
 11
37.6884
 21
-2.99408
  0
LINE
  8
0
 10
37.6884
 20
-2.99408
 11
37.5
 21
-3
  0
LINE
  8
0
 10
37.5
 20
-3
 11
37.3116
 21
-2.99408
  0
LINE
  8
0
 10
52.3116
 20
-2.99408
 11
52.124
 21
-2.97633
  0
LINE
  8
0
 10
52.124
 20
-2.97633
 11
51.9379
 21
-2.94685
  0
LINE
  8
0
 10
51.9379
 20
-2.94685
 11
51.7539
 21
-2.90575
  0
LINE
  8
0
 10
51.7539
 20
-2.90575
 11
51.5729
 21
-2.85316
  0
LINE
  8
0
 10
51.5729
 20
-2.85316
 11
51.3956
 21
-2.78932
  0
LINE
  8
0
 10
51.3956
 20
-2.78932
 11
51.2227
 21
-2.71448
  0
LINE
  8
0
 10
51.2227
 20
-2.71448
 11
51.0547
 21
-2.62891
  0
LINE
  8
0
 10
51.0547
 20
-2.62891
 11
50.8925
 21
-2.53297
  0
LINE
  8
0
 10
50.8925
 20
-2.53297
 11
50.7366
 21
-2.42705
  0
LINE
  8
0
 10
50.7366
 20
-2.42705
 11
50.5877
 21
-2.31154
  0
LINE
  8
0
 10
50.5877
 20
-2.31154
 11
50.4464
 21
-2.1869
  0
LINE
  8
0
 10
50.4464
 20
-2.1869
 11
50.3131
 21
-2.05363
  0
LINE
  8
0
 10
50.3131
 20
-2.05363
 11
50.1885
 21
-1.91226
  0
LINE
  8
0
 10
50.1885
 20
-1.91226
 11
50.0729
 21
-1.76335
  0
LINE
  8
0
 10
50.0729
 20
-1.76335
 11
49.967
 21
-1.60747
  0
LINE
  8
0
 10
49.967
 20
-1.60747
 11
49.8711
 21
-1.44525
  0
LINE
  8
0
 10
49.8711
 20
-1.44525
 11
49.7855
 21
-1.27733
  0
LINE
  8
0
 10
49.7855
 20
-1.27733
 11
49.7107
 21
-1.10437
  0
LINE
  8
0
 10
49.7107
 20
-1.10437
 11
49.6468
 21
-0.927048
  0
LINE
  8
0
 10
49.6468
 20
-0.927048
 11
49.5942
 21
-0.746063
  0
LINE
  8
0
 10
49.5942
 20
-0.746063
 11
49.5531
 21
-0.562134
  0
LINE
  8
0
 10
49.5531
 20
-0.562134
 11
49.5237
 21
-0.375992
  0
LINE
  8
0
 10
49.5237
 20
-0.375992
 11
49.5059
 21
-0.18837
  0
LINE
  8
0
 10
49.5059
 20
-0.18837
 11
49.5
 21
0
  0
LINE
  8
0
 10
49.5
 20
0
 11
49.5059
 21
0.18837
  0
LINE
  8
0
 10
49.5059
 20
0.18837
 11
49.5237
 21
0.375992
  0
LINE
  8
0
 10
49.5237
 20
0.375992
 11
49.5531
 21
0.562134
  0
LINE
  8
0
 10
49.5531
 20
0.562134
 11
49.5942
 21
0.746063
  0
LINE
  8
0
 10
49.5942
 20
0.746063
 11
49.6468
 21
0.927048
  0
LINE
  8
0
 10
49.6468
 20
0.927048
 11
49.7107
 21
1.10437
  0
LINE
  8
0
 10
49.7107
 20
1.10437
 11
49.7855
 21
1.27733
  0
LINE
  8
0
 10
49.7855
 20
1.27733
 11
49.8711
 21
1.44525
  0
LINE
  8
0
 10
49.8711
 20
1.44525
 11
49.967
 21
1.60747
  0
LINE
  8
0
 10
49.967
 20
1.60747
 11
50.0729
 21
1.76335
  0
LINE
  8
0
 10
50.0729
 20
1.76335
 11
50.1885
 21
1.91226
  0
LINE
  8
0
 10
50.1885
 20
1.91226
 11
50.3131
 21
2.05363
  0
LINE
  8
0
 10
50.3131
 20
2.05363
 11
50.4464
 21
2.1869
  0
LINE
  8
0
 10
50.4464
 20
2.1869
 11
50.5877
 21
2.31154
  0
LINE
  8
0
 10
50.5877
 20
2.31154
 11
50.7366
 21
2.42705
  0
LINE
  8
0
 10
50.7366
 20
2.42705
 11
50.8925
 21
2.53297
  0
LINE
  8
0
 10
50.8925
 20
2.53297
 11
51.0547
 21
2.62891
  0
LINE
  8
0
 10
51.0547
 20
2.62891
 11
51.2227
 21
2.71448
  0
LINE
  8
0
 10
51.2227
 20
2.71448
 11
51.3956
 21
2.78932
  0
LINE
  8
0
 10
51.3956
 20
2.78932
 11
51.5729
 21
2.85316
  0
LINE
  8
0
 10
51.5729
 20
2.85316
 11
51.7539
 21
2.90575
  0
LINE
  8
0
 10
51.7539
 20
2.90575
 11
51.9379
 21
2.94685
  0
LINE
  8
0
 10
51.9379
 20
2.94685
 11
52.124
 21
2.97633
  0
LINE
  8
0
 10
52.124
 20
2.97633
 11
52.3116
 21
2.99408
  0
LINE
  8
0
 10
52.3116
 20
2.99408
 11
52.5
 21
3
  0
LINE
  8
0
 10
52.5
 20
3
 11
52.6884
 21
2.99408
  0
LINE
  8
0
 10
52.6884
 20
2.99408
 11
52.876
 21
2.97633
  0
LINE
  8
0
 10
52.876
 20
2.97633
 11
53.0621
 21
2.94685
  0
LINE
  8
0
 10
53.0621
 20
2.94685
 11
53.2461
 21
2.90575
  0
LINE
  8
0
 10
53.2461
 20
2.90575
 11
53.427
 21
2.85316
  0
LINE
  8
0
 10
53.427
 20
2.85316
 11
53.6044
 21
2.78932
  0
LINE
  8
0
 10
53.6044
 20
2.78932
 11
53.7773
 21
2.71448
  0
LINE
  8
0
 10
53.7773
 20
2.71448
 11
53.9453
 21
2.62891
  0
LINE
  8
0
 10
53.9453
 20
2.62891
 11
54.1075
 21
2.53297
  0
LINE
  8
0
 10
54.1075
 20
2.53297
 11
54.2634
 21
2.42705
  0
LINE
  8
0
 10
54.2634
 20
2.42705
 11
54.4123
 21
2.31154
  0
LINE
  8
0
 10
54.4123
 20
2.31154
 11
54.5536
 21
2.1869
  0
LINE
  8
0
 10
54.5536
 20
2.1869
 11
54.6869
 21
2.05363
  0
LINE
  8
0
 10
54.6869
 20
2.05363
 11
54.8115
 21
1.91226
  0
LINE
  8
0
 10
54.8115
 20
1.91226
 11
54.927
 21
1.76335
  0
LINE
  8
0
 10
54.927
 20
1.76335
 11
55.033
 21
1.60747
  0
LINE
  8
0
 10
55.033
 20
1.60747
 11
55.1289
 21
1.44525
  0
LINE
  8
0
 10
55.1289
 20
1.44525
 11
55.2145
 21
1.27733
  0
LINE
  8
0
 10
55.2145
 20
1.27733
 11
55.2893
 21
1.10437
  0
LINE
  8
0
 10
55.2893
 20
1.10437
 11
55.3532
 21
0.927048
  0
LINE
  8
0
 10
55.3532
 20
0.927048
 11
55.4057
 21
0.746063
  0
LINE
  8
0
 10
55.4057
 20
0.746063
 11
55.4469
 21
0.562134
  0
LINE
  8
0
 10
55.4469
 20
0.562134
 11
55.4763
 21
0.375992
  0
LINE
  8
0
 10
55.4763
 20
0.375992
 11
55.4941
 21
0.18837
  0
LINE
  8
0
 10
55.4941
 20
0.18837
 11
55.5
 21
0
  0
LINE
  8
0
 10
55.5
 20
0
 11
55.4941
 21
-0.18837
  0
LINE
  8
0
 10
55.4941
 20
-0.18837
 11
55.4763
 21
-0.375992
  0
LINE
  8
0
 10
55.4763
 20
-0.375992
 11
55.4469
 21
-0.562134
  0
LINE
  8
0
 10
55.4469
 20
-0.562134
 11
55.4057
 21
-0.746063
  0
LINE
  8
0
 10
55.4057
 20
-0.746063
 11
55.3532
 21
-0.927048
  0
LINE
  8
0
 10
55.3532
 20
-0.927048
 11
55.2893
 21
-1.10437
  0
LINE
  8
0
 10
55.2893
 20
-1.10437
 11
55.2145
 21
-1.27733
  0
LINE
  8
0
 10
55.2145
 20
-1.27733
 11
55.1289
 21
-1.44525
  0
LINE
  8
0
 10
55.1289
 20
-1.44525
 11
55.033
 21
-1.60747
  0
LINE
  8
0
 10
55.033
 20
-1.60747
 11
54.927
 21
-1.76335
  0
LINE
  8
0
 10
54.927
 20
-1.76335
 11
54.8115
 21
-1.91226
  0
LINE
  8
0
 10
54.8115
 20
-1.91226
 11
54.6869
 21
-2.05363
  0
LINE
  8
0
 10
54.6869
 20
-2.05363
 11
54.5536
 21
-2.1869
  0
LINE
  8
0
 10
54.5536
 20
-2.1869
 11
54.4123
 21
-2.31154
  0
LINE
  8
0
 10
54.4123
 20
-2.31154
 11
54.2634
 21
-2.42705
  0
LINE
  8
0
 10
54.2634
 20
-2.42705
 11
54.1075
 21
-2.53297
  0
LINE
  8
0
 10
54.1075
 20
-2.53297
 11
53.9453
 21
-2.62891
  0
LINE
  8
0
 10
53.9453
 20
-2.62891
 11
53.7773
 21
-2.71448
  0
LINE
  8
0
 10
53.7773
 20
-2.71448
 11
53.6044
 21
-2.78932
  0
LINE
  8
0
 10
53.6044
 20
-2.78932
 11
53.427
 21
-2.85316
  0
LINE
  8
0
 10
53.427
 20
-2.85316
 11
53.2461
 21
-2.90575
  0
LINE
  8
0
 10
53.2461
 20
-2.90575
 11
53.0621
 21
-2.94685
  0
LINE
  8
0
 10
53.0621
 20
-2.94685
 11
52.876
 21
-2.97633
  0
LINE
  8
0
 10
52.876
 20
-2.97633
 11
52.6884
 21
-2.99408
  0
LINE
  8
0
 10
52.6884
 20
-2.99408
 11
52.5
 21
-3
  0
LINE
  8
0
 10
52.5
 20
-3
 11
52.3116
 21
-2.99408
  0
LINE
  8
0
 10
67.3116
 20
-2.99408
 11
67.124
 21
-2.97633
  0
LINE
  8
0
 10
67.124
 20
-2.97633
 11
66.9379
 21
-2.94685
  0
LINE
  8
0
 10
66.9379
 20
-2.94685
 11
66.7539
 21
-2.90575
  0
LINE
  8
0
 10
66.7539
 20
-2.90575
 11
66.573
 21
-2.85316
  0
LINE
  8
0
 10
66.573
 20
-2.85316
 11
66.3956
 21
-2.78932
  0
LINE
  8
0
 10
66.3956
 20
-2.78932
 11
66.2227
 21
-2.71448
  0
LINE
  8
0
 10
66.2227
 20
-2.71448
 11
66.0547
 21
-2.62891
  0
LINE
  8
0
 10
66.0547
 20
-2.62891
 11
65.8925
 21
-2.53297
  0
LINE
  8
0
 10
65.8925
 20
-2.53297
 11
65.7366
 21
-2.42705
  0
LINE
  8
0
 10
65.7366
 20
-2.42705
 11
65.5877
 21
-2.31154
  0
LINE
  8
0
 10
65.5877
 20
-2.31154
 11
65.4464
 21
-2.1869
  0
LINE
  8
0
 10
65.4464
 20
-2.1869
 11
65.3131
 21
-2.05363
  0
LINE
  8
0
 10
65.3131
 20
-2.05363
 11
65.1885
 21
-1.91226
  0
LINE
  8
0
 10
65.1885
 20
-1.91226
 11
65.073
 21
-1.76335
  0
LINE
  8
0
 10
65.073
 20
-1.76335
 11
64.967
 21
-1.60747
  0
LINE
  8
0
 10
64.967
 20
-1.60747
 11
64.8711
 21
-1.44525
  0
LINE
  8
0
 10
64.8711
 20
-1.44525
 11
64.7855
 21
-1.27733
  0
LINE
  8
0
 10
64.7855
 20
-1.27733
 11
64.7107
 21
-1.10437
  0
LINE
  8
0
 10
64.7107
 20
-1.10437
 11
64.6468
 21
-0.927048
  0
LINE
  8
0
 10
64.6468
 20
-0.927048
 11
64.5943
 21
-0.746063
  0
LINE
  8
0
 10
64.5943
 20
-0.746063
 11
64.5531
 21
-0.562134
  0
LINE
  8
0
 10
64.5531
 20
-0.562134
 11
64.5237
 21
-0.375992
  0
LINE
  8
0
 10
64.5237
 20
-0.375992
 11
64.5059
 21
-0.18837
  0
LINE
  8
0
 10
64.5059
 20
-0.18837
 11
64.5
 21
0
  0
LINE
  8
0
 10
64.5
 20
0
 11
64.5059
 21
0.18837
  0
LINE
  8
0
 10
64.5059
 20
0.18837
 11
64.5237
 21
0.375992
  0
LINE
  8
0
 10
64.5237
 20
0.375992
 11
64.5531
 21
0.562134
  0
LINE
  8
0
 10
64.5531
 20
0.562134
 11
64.5943
 21
0.746063
  0
LINE
  8
0
 10
64.5943
 20
0.746063
 11
64.6468
 21
0.927048
  0
LINE
  8
0
 10
64.6468
 20
0.927048
 11
64.7107
 21
1.10437
  0
LINE
  8
0
 10
64.7107
 20
1.10437
 11
64.7855
 21
1.27733
  0
LINE
  8
0
 10
64.7855
 20
1.27733
 11
64.8711
 21
1.44525
  0
LINE
  8
0
 10
64.8711
 20
1.44525
 11
64.967
 21
1.60747
  0
LINE
  8
0
 10
64.967
 20
1.60747
 11
65.073
 21
1.76335
  0
LINE
  8
0
 10
65.073
 20
1.76335
 11
65.1885
 21
1.91226
  0
LINE
  8
0
 10
65.1885
 20
1.91226
 11
65.3131
 21
2.05363
  0
LINE
  8
0
 10
65.3131
 20
2.05363
 11
65.4464
 21
2.1869
  0
LINE
  8
0
 10
65.4464
 20
2.1869
 11
65.5877
 21
2.31154
  0
LINE
  8
0
 10
65.5877
 20
2.31154
 11
65.7366
 21
2.42705
  0
LINE
  8
0
 10
65.7366
 20
2.42705
 11
65.8925
 21
2.53297
  0
LINE
  8
0
 10
65.8925
 20
2.53297
 11
66.0547
 21
2.62891
  0
LINE
  8
0
 10
66.0547
 20
2.62891
 11
66.2227
 21
2.71448
  0
LINE
  8
0
 10
66.2227
 20
2.71448
 11
66.3956
 21
2.78932
  0
LINE
  8
0
 10
66.3956
 20
2.78932
 11
66.573
 21
2.85316
  0
LINE
  8
0
 10
66.573
 20
2.85316
 11
66.7539
 21
2.90575
  0
LINE
  8
0
 10
66.7539
 20
2.90575
 11
66.9379
 21
2.94685
  0
LINE
  8
0
 10
66.9379
 20
2.94685
 11
67.124
 21
2.97633
  0
LINE
  8
0
 10
67.124
 20
2.97633
 11
67.3116
 21
2.99408
  0
LINE
  8
0
 10
67.3116
 20
2.99408
 11
67.5
 21
3
  0
LINE
  8
0
 10
67.5
 20
3
 11
67.6884
 21
2.99408
  0
LINE
  8
0
 10
67.6884
 20
2.99408
 11
67.876
 21
2.97633
  0
LINE
  8
0
 10
67.876
 20
2.97633
 11
68.0621
 21
2.94685
  0
LINE
  8
0
 10
68.0621
 20
2.94685
 11
68.2461
 21
2.90575
  0
LINE
  8
0
 10
68.2461
 20
2.90575
 11
68.427
 21
2.85316
  0
LINE
  8
0
 10
68.427
 20
2.85316
 11
68.6044
 21
2.78932
  0
LINE
  8
0
 10
68.6044
 20
2.78932
 11
68.7773
 21
2.71448
  0
LINE
  8
0
 10
68.7773
 20
2.71448
 11
68.9453
 21
2.62891
  0
LINE
  8
0
 10
68.9453
 20
2.62891
 11
69.1075
 21
2.53297
  0
LINE
  8
0
 10
69.1075
 20
2.53297
 11
69.2634
 21
2.42705
  0
LINE
  8
0
 10
69.2634
 20
2.42705
 11
69.4123
 21
2.31154
  0
LINE
  8
0
 10
69.4123
 20
2.31154
 11
69.5536
 21
2.1869
  0
LINE
  8
0
 10
69.5536
 20
2.1869
 11
69.6869
 21
2.05363
  0
LINE
  8
0
 10
69.6869
 20
2.05363
 11
69.8115
 21
1.91226
  0
LINE
  8
0
 10
69.8115
 20
1.91226
 11
69.927
 21
1.76335
  0
LINE
  8
0
 10
69.927
 20
1.76335
 11
70.033
 21
1.60747
  0
LINE
  8
0
 10
70.033
 20
1.60747
 11
70.1289
 21
1.44525
  0
LINE
  8
0
 10
70.1289
 20
1.44525
 11
70.2145
 21
1.27733
  0
LINE
  8
0
 10
70.2145
 20
1.27733
 11
70.2893
 21
1.10437
  0
LINE
  8
0
 10
70.2893
 20
1.10437
 11
70.3532
 21
0.927048
  0
LINE
  8
0
 10
70.3532
 20
0.927048
 11
70.4057
 21
0.746063
  0
LINE
  8
0
 10
70.4057
 20
0.746063
 11
70.4469
 21
0.562134
  0
LINE
  8
0
 10
70.4469
 20
0.562134
 11
70.4763
 21
0.375992
  0
LINE
  8
0
 10
70.4763
 20
0.375992
 11
70.4941
 21
0.18837
  0
LINE
  8
0
 10
70.4941
 20
0.18837
 11
70.5
 21
0
  0
LINE
  8
0
 10
70.5
 20
0
 11
70.4941
 21
-0.18837
  0
LINE
  8
0
 10
70.4941
 20
-0.18837
 11
70.4763
 21
-0.375992
  0
LINE
  8
0
 10
70.4763
 20
-0.375992
 11
70.4469
 21
-0.562134
  0
LINE
  8
0
 10
70.4469
 20
-0.562134
 11
70.4057
 21
-0.746063
  0
LINE
  8
0
 10
70.4057
 20
-0.746063
 11
70.3532
 21
-0.927048
  0
LINE
  8
0
 10
70.3532
 20
-0.927048
 11
70.2893
 21
-1.10437
  0
LINE
  8
0
 10
70.2893
 20
-1.10437
 11
70.2145
 21
-1.27733
  0
LINE
  8
0
 10
70.2145
 20
-1.27733
 11
70.1289
 21
-1.44525
  0
LINE
  8
0
 10
70.1289
 20
-1.44525
 11
70.033
 21
-1.60747
  0
LINE
  8
0
 10
70.033
 20
-1.60747
 11
69.927
 21
-1.76335
  0
LINE
  8
0
 10
69.927
 20
-1.76335
 11
69.8115
 21
-1.91226
  0
LINE
  8
0
 10
69.8115
 20
-1.91226
 11
69.6869
 21
-2.05363
  0
LINE
  8
0
 10
69.6869
 20
-2.05363
 11
69.5536
 21
-2.1869
  0
LINE
  8
0
 10
69.5536
 20
-2.1869
 11
69.4123
 21
-2.31154
  0
LINE
  8
0
 10
69.4123
 20
-2.31154
 11
69.2634
 21
-2.42705
  0
LINE
  8
0
 10
69.2634
 20
-2.42705
 11
69.1075
 21
-2.53297
  0
LINE
  8
0
 10
69.1075
 20
-2.53297
 11
68.9453
 21
-2.62891
  0
LINE
  8
0
 10
68.9453
 20
-2.62891
 11
68.7773
 21
-2.71448
  0
LINE
  8
0
 10
68.7773
 20
-2.71448
 11
68.6044
 21
-2.78932
  0
LINE
  8
0
 10
68.6044
 20
-2.78932
 11
68.427
 21
-2.85316
  0
LINE
  8
0
 10
68.427
 20
-2.85316
 11
68.2461
 21
-2.90575
  0
LINE
  8
0
 10
68.2461
 20
-2.90575
 11
68.0621
 21
-2.94685
  0
LINE
  8
0
 10
68.0621
 20
-2.94685
 11
67.876
 21
-2.97633
  0
LINE
  8
0
 10
67.876
 20
-2.97633
 11
67.6884
 21
-2.99408
  0
LINE
  8
0
 10
67.6884
 20
-2.99408
 11
67.5
 21
-3
  0
LINE
  8
0
 10
67.5
 20
-3
 11
67.3116
 21
-2.99408
  0
LINE
  8
0
 10
-7.68837
 20
-2.99408
 11
-7.87599
 21
-2.97633
  0
LINE
  8
0
 10
-7.87599
 20
-2.97633
 11
-8.06213
 21
-2.94685
  0
LINE
  8
0
 10
-8.06213
 20
-2.94685
 11
-8.24606
 21
-2.90575
  0
LINE
  8
0
 10
-8.24606
 20
-2.90575
 11
-8.42705
 21
-2.85316
  0
LINE
  8
0
 10
-8.42705
 20
-2.85316
 11
-8.60437
 21
-2.78932
  0
LINE
  8
0
 10
-8.60437
 20
-2.78932
 11
-8.77733
 21
-2.71448
  0
LINE
  8
0
 10
-8.77733
 20
-2.71448
 11
-8.94525
 21
-2.62891
  0
LINE
  8
0
 10
-8.94525
 20
-2.62891
 11
-9.10747
 21
-2.53297
  0
LINE
  8
0
 10
-9.10747
 20
-2.53297
 11
-9.26335
 21
-2.42705
  0
LINE
  8
0
 10
-9.26335
 20
-2.42705
 11
-9.41226
 21
-2.31154
  0
LINE
  8
0
 10
-9.41226
 20
-2.31154
 11
-9.55363
 21
-2.1869
  0
LINE
  8
0
 10
-9.55363
 20
-2.1869
 11
-9.6869
 21
-2.05363
  0
LINE
  8
0
 10
-9.6869
 20
-2.05363
 11
-9.81154
 21
-1.91226
  0
LINE
  8
0
 10
-9.81154
 20
-1.91226
 11
-9.92705
 21
-1.76335
  0
LINE
  8
0
 10
-9.92705
 20
-1.76335
 11
-10.033
 21
-1.60747
  0
LINE
  8
0
 10
-10.033
 20
-1.60747
 11
-10.1289
 21
-1.44525
  0
LINE
  8
0
 10
-10.1289
 20
-1.44525
 11
-10.2145
 21
-1.27733
  0
LINE
  8
0
 10
-10.2145
 20
-1.27733
 11
-10.2893
 21
-1.10437
  0
LINE
  8
0
 10
-10.2893
 20
-1.10437
 11
-10.3532
 21
-0.927048
  0
LINE
  8
0
 10
-10.3532
 20
-0.927048
 11
-10.4057
 21
-0.746063
  0
LINE
  8
0
 10
-10.4057
 20
-0.746063
 11
-10.4469
 21
-0.562134
  0
LINE
  8
0
 10
-10.4469
 20
-0.562134
 11
-10.4763
 21
-0.375992
  0
LINE
  8
0
 10
-10.4763
 20
-0.375992
 11
-10.4941
 21
-0.18837
  0
LINE
  8
0
 10
-10.4941
 20
-0.18837
 11
-10.5
 21
0
  0
LINE
  8
0
 10
-10.5
 20
0
 11
-10.4941
 21
0.18837
  0
LINE
  8
0
 10
-10.4941
 20
0.18837
 11
-10.4763
 21
0.375992
  0
LINE
  8
0
 10
-10.4763
 20
0.375992
 11
-10.4469
 21
0.562134
  0
LINE
  8
0
 10
-10.4469
 20
0.562134
 11
-10.4057
 21
0.746063
  0
LINE
  8
0
 10
-10.4057
 20
0.746063
 11
-10.3532
 21
0.927048
  0
LINE
  8
0
 10
-10.3532
 20
0.927048
 11
-10.2893
 21
1.10437
  0
LINE
  8
0
 10
-10.2893
 20
1.10437
 11
-10.2145
 21
1.27733
  0
LINE
  8
0
 10
-10.2145
 20
1.27733
 11
-10.1289
 21
1.44525
  0
LINE
  8
0
 10
-10.1289
 20
1.44525
 11
-10.033
 21
1.60747
  0
LINE
  8
0
 10
-10.033
 20
1.60747
 11
-9.92705
 21
1.76335
  0
LINE
  8
0
 10
-9.92705
 20
1.76335
 11
-9.81154
 21
1.91226
  0
LINE
  8
0
 10
-9.81154
 20
1.91226
 11
-9.6869
 21
2.05363
  0
LINE
  8
0
 10
-9.6869
 20
2.05363
 11
-9.55363
 21
2.1869
  0
LINE
  8
0
 10
-9.55363
 20
2.1869
 11
-9.41226
 21
2.31154
  0
LINE
  8
0
 10
-9.41226
 20
2.31154
 11
-9.26335
 21
2.42705
  0
LINE
  8
0
 10
-9.26335
 20
2.42705
 11
-9.10747
 21
2.53297
  0
LINE
  8
0
 10
-9.10747
 20
2.53297
 11
-8.94525
 21
2.62891
  0
LINE
  8
0
 10
-8.94525
 20
2.62891
 11
-8.77733
 21
2.71448
  0
LINE
  8
0
 10
-8.77733
 20
2.71448
 11
-8.60437
 21
2.78932
  0
LINE
  8
0
 10
-8.60437
 20
2.78932
 11
-8.42705
 21
2.85316
  0
LINE
  8
0
 10
-8.42705
 20
2.85316
 11
-8.24606
 21
2.90575
  0
LINE
  8
0
 10
-8.24606
 20
2.90575
 11
-8.06213
 21
2.94685
  0
LINE
  8
0
 10
-8.06213
 20
2.94685
 11
-7.87599
 21
2.97633
  0
LINE
  8
0
 10
-7.87599
 20
2.97633
 11
-7.68837
 21
2.99408
  0
LINE
  8
0
 10
-7.68837
 20
2.99408
 11
-7.5
 21
3
  0
LINE
  8
0
 10
-7.5
 20
3
 11
-7.31161
 21
2.99408
  0
LINE
  8
0
 10
-7.31161
 20
2.99408
 11
-7.12399
 21
2.97633
  0
LINE
  8
0
 10
-7.12399
 20
2.97633
 11
-6.93785
 21
2.94685
  0
LINE
  8
0
 10
-6.93785
 20
2.94685
 11
-6.75392
 21
2.90575
  0
LINE
  8
0
 10
-6.75392
 20
2.90575
 11
-6.57294
 21
2.85316
  0
LINE
  8
0
 10
-6.57294
 20
2.85316
 11
-6.39561
 21
2.78932
  0
LINE
  8
0
 10
-6.39561
 20
2.78932
 11
-6.22266
 21
2.71448
  0
LINE
  8
0
 10
-6.22266
 20
2.71448
 11
-6.05473
 21
2.62891
  0
LINE
  8
0
 10
-6.05473
 20
2.62891
 11
-5.89252
 21
2.53297
  0
LINE
  8
0
 10
-5.89252
 20
2.53297
 11
-5.73663
 21
2.42705
  0
LINE
  8
0
 10
-5.73663
 20
2.42705
 11
-5.58772
 21
2.31154
  0
LINE
  8
0
 10
-5.58772
 20
2.31154
 11
-5.44635
 21
2.1869
  0
LINE
  8
0
 10
-5.44635
 20
2.1869
 11
-5.31308
 21
2.05363
  0
LINE
  8
0
 10
-5.31308
 20
2.05363
 11
-5.18845
 21
1.91226
  0
LINE
  8
0
 10
-5.18845
 20
1.91226
 11
-5.07294
 21
1.76335
  0
LINE
  8
0
 10
-5.07294
 20
1.76335
 11
-4.96701
 21
1.60747
  0
LINE
  8
0
 10
-4.96701
 20
1.60747
 11
-4.87108
 21
1.44525
  0
LINE
  8
0
 10
-4.87108
 20
1.44525
 11
-4.78551
 21
1.27733
  0
LINE
  8
0
 10
-4.78551
 20
1.27733
 11
-4.71066
 21
1.10437
  0
LINE
  8
0
 10
-4.71066
 20
1.10437
 11
-4.64682
 21
0.927048
  0
LINE
  8
0
 10
-4.64682
 20
0.927048
 11
-4.59424
 21
0.746063
  0
LINE
  8
0
 10
-4.59424
 20
0.746063
 11
-4.55313
 21
0.562134
  0
LINE
  8
0
 10
-4.55313
 20
0.562134
 11
-4.52365
 21
0.375992
  0
LINE
  8
0
 10
-4.52365
 20
0.375992
 11
-4.50591
 21
0.18837
  0
LINE
  8
0
 10
-4.50591
 20
0.18837
 11
-4.5
 21
0
  0
LINE
  8
0
 10
-4.5
 20
0
 11
-4.50591
 21
-0.18837
  0
LINE
  8
0
 10
-4.50591
 20
-0.18837
 11
-4.52365
 21
-0.375992
  0
LINE
  8
0
 10
-4.52365
 20
-0.375992
 11
-4.55313
 21
-0.562134
  0
LINE
  8
0
 10
-4.55313
 20
-0.562134
 11
-4.59424
 21
-0.746063
  0
LINE
  8
0
 10
-4.59424
 20
-0.746063
 11
-4.64682
 21
-0.927048
  0
LINE
  8
0
 10
-4.64682
 20
-0.927048
 11
-4.71066
 21
-1.10437
  0
LINE
  8
0
 10
-4.71066
 20
-1.10437
 11
-4.78551
 21
-1.27733
  0
LINE
  8
0
 10
-4.78551
 20
-1.27733
 11
-4.87108
 21
-1.44525
  0
LINE
  8
0
 10
-4.87108
 20
-1.44525
 11
-4.96701
 21
-1.60747
  0
LINE
  8
0
 10
-4.96701
 20
-1.60747
 11
-5.07294
 21
-1.76335
  0
LINE
  8
0
 10
-5.07294
 20
-1.76335
 11
-5.18845
 21
-1.91226
  0
LINE
  8
0
 10
-5.18845
 20
-1.91226
 11
-5.31308
 21
-2.05363
  0
LINE
  8
0
 10
-5.31308
 20
-2.05363
 11
-5.44635
 21
-2.1869
  0
LINE
  8
0
 10
-5.44635
 20
-2.1869
 11
-5.58772
 21
-2.31154
  0
LINE
  8
0
 10
-5.58772
 20
-2.31154
 11
-5.73663
 21
-2.42705
  0
LINE
  8
0
 10
-5.73663
 20
-2.42705
 11
-5.89252
 21
-2.53297
  0
LINE
  8
0
 10
-5.89252
 20
-2.53297
 11
-6.05473
 21
-2.62891
  0
LINE
  8
0
 10
-6.05473
 20
-2.62891
 11
-6.22266
 21
-2.71448
  0
LINE
  8
0
 10
-6.22266
 20
-2.71448
 11
-6.39561
 21
-2.78932
  0
LINE
  8
0
 10
-6.39561
 20
-2.78932
 11
-6.57294
 21
-2.85316
  0
LINE
  8
0
 10
-6.57294
 20
-2.85316
 11
-6.75392
 21
-2.90575
  0
LINE
  8
0
 10
-6.75392
 20
-2.90575
 11
-6.93785
 21
-2.94685
  0
LINE
  8
0
 10
-6.93785
 20
-2.94685
 11
-7.12399
 21
-2.97633
  0
LINE
  8
0
 10
-7.12399
 20
-2.97633
 11
-7.31161
 21
-2.99408
  0
LINE
  8
0
 10
-7.31161
 20
-2.99408
 11
-7.5
 21
-3
  0
LINE
  8
0
 10
-7.5
 20
-3
 11
-7.68837
 21
-2.99408
  0
LINE
  8
0
 10
-22.6884
 20
-2.99408
 11
-22.876
 21
-2.97633
  0
LINE
  8
0
 10
-22.876
 20
-2.97633
 11
-23.0621
 21
-2.94685
  0
LINE
  8
0
 10
-23.0621
 20
-2.94685
 11
-23.2461
 21
-2.90575
  0
LINE
  8
0
 10
-23.2461
 20
-2.90575
 11
-23.427
 21
-2.85316
  0
LINE
  8
0
 10
-23.427
 20
-2.85316
 11
-23.6044
 21
-2.78932
  0
LINE
  8
0
 10
-23.6044
 20
-2.78932
 11
-23.7773
 21
-2.71448
  0
LINE
  8
0
 10
-23.7773
 20
-2.71448
 11
-23.9453
 21
-2.62891
  0
LINE
  8
0
 10
-23.9453
 20
-2.62891
 11
-24.1075
 21
-2.53297
  0
LINE
  8
0
 10
-24.1075
 20
-2.53297
 11
-24.2634
 21
-2.42705
  0
LINE
  8
0
 10
-24.2634
 20
-2.42705
 11
-24.4123
 21
-2.31154
  0
LINE
  8
0
 10
-24.4123
 20
-2.31154
 11
-24.5536
 21
-2.1869
  0
LINE
  8
0
 10
-24.5536
 20
-2.1869
 11
-24.6869
 21
-2.05363
  0
LINE
  8
0
 10
-24.6869
 20
-2.05363
 11
-24.8115
 21
-1.91226
  0
LINE
  8
0
 10
-24.8115
 20
-1.91226
 11
-24.927
 21
-1.76335
  0
LINE
  8
0
 10
-24.927
 20
-1.76335
 11
-25.033
 21
-1.60747
  0
LINE
  8
0
 10
-25.033
 20
-1.60747
 11
-25.1289
 21
-1.44525
  0
LINE
  8
0
 10
-25.1289
 20
-1.44525
 11
-25.2145
 21
-1.27733
  0
LINE
  8
0
 10
-25.2145
 20
-1.27733
 11
-25.2893
 21
-1.10437
  0
LINE
  8
0
 10
-25.2893
 20
-1.10437
 11
-25.3532
 21
-0.927048
  0
LINE
  8
0
 10
-25.3532
 20
-0.927048
 11
-25.4057
 21
-0.746063
  0
LINE
  8
0
 10
-25.4057
 20
-0.746063
 11
-25.4469
 21
-0.562134
  0
LINE
  8
0
 10
-25.4469
 20
-0.562134
 11
-25.4763
 21
-0.375992
  0
LINE
  8
0
 10
-25.4763
 20
-0.375992
 11
-25.4941
 21
-0.18837
  0
LINE
  8
0
 10
-25.4941
 20
-0.18837
 11
-25.5
 21
0
  0
LINE
  8
0
 10
-25.5
 20
0
 11
-25.4941
 21
0.18837
  0
LINE
  8
0
 10
-25.4941
 20
0.18837
 11
-25.4763
 21
0.375992
  0
LINE
  8
0
 10
-25.4763
 20
0.375992
 11
-25.4469
 21
0.562134
  0
LINE
  8
0
 10
-25.4469
 20
0.562134
 11
-25.4057
 21
0.746063
  0
LINE
  8
0
 10
-25.4057
 20
0.746063
 11
-25.3532
 21
0.927048
  0
LINE
  8
0
 10
-25.3532
 20
0.927048
 11
-25.2893
 21
1.10437
  0
LINE
  8
0
 10
-25.2893
 20
1.10437
 11
-25.2145
 21
1.27733
  0
LINE
  8
0
 10
-25.2145
 20
1.27733
 11
-25.1289
 21
1.44525
  0
LINE
  8
0
 10
-25.1289
 20
1.44525
 11
-25.033
 21
1.60747
  0
LINE
  8
0
 10
-25.033
 20
1.60747
 11
-24.927
 21
1.76335
  0
LINE
  8
0
 10
-24.927
 20
1.76335
 11
-24.8115
 21
1.91226
  0
LINE
  8
0
 10
-24.8115
 20
1.91226
 11
-24.6869
 21
2.05363
  0
LINE
  8
0
 10
-24.6869
 20
2.05363
 11
-24.5536
 21
2.1869
  0
LINE
  8
0
 10
-24.5536
 20
2.1869
 11
-24.4123
 21
2.31154
  0
LINE
  8
0
 10
-24.4123
 20
2.31154
 11
-24.2634
 21
2.42705
  0
LINE
  8
0
 10
-24.2634
 20
2.42705
 11
-24.1075
 21
2.53297
  0
LINE
  8
0
 10
-24.1075
 20
2.53297
 11
-23.9453
 21
2.62891
  0
LINE
  8
0
 10
-23.9453
 20
2.62891
 11
-23.7773
 21
2.71448
  0
LINE
  8
0
 10
-23.7773
 20
2.71448
 11
-23.6044
 21
2.78932
  0
LINE
  8
0
 10
-23.6044
 20
2.78932
 11
-23.427
 21
2.85316
  0
LINE
  8
0
 10
-23.427
 20
2.85316
 11
-23.2461
 21
2.90575
  0
LINE
  8
0
 10
-23.2461
 20
2.90575
 11
-23.0621
 21
2.94685
  0
LINE
  8
0
 10
-23.0621
 20
2.94685
 11
-22.876
 21
2.97633
  0
LINE
  8
0
 10
-22.876
 20
2.97633
 11
-22.6884
 21
2.99408
  0
LINE
  8
0
 10
-22.6884
 20
2.99408
 11
-22.5
 21
3
  0
LINE
  8
0
 10
-22.5
 20
3
 11
-22.3116
 21
2.99408
  0
LINE
  8
0
 10
-22.3116
 20
2.99408
 11
-22.124
 21
2.97633
  0
LINE
  8
0
 10
-22.124
 20
2.97633
 11
-21.9379
 21
2.94685
  0
LINE
  8
0
 10
-21.9379
 20
2.94685
 11
-21.7539
 21
2.90575
  0
LINE
  8
0
 10
-21.7539
 20
2.90575
 11
-21.5729
 21
2.85316
  0
LINE
  8
0
 10
-21.5729
 20
2.85316
 11
-21.3956
 21
2.78932
  0
LINE
  8
0
 10
-21.3956
 20
2.78932
 11
-21.2227
 21
2.71448
  0
LINE
  8
0
 10
-21.2227
 20
2.71448
 11
-21.0547
 21
2.62891
  0
LINE
  8
0
 10
-21.0547
 20
2.62891
 11
-20.8925
 21
2.53297
  0
LINE
  8
0
 10
-20.8925
 20
2.53297
 11
-20.7366
 21
2.42705
  0
LINE
  8
0
 10
-20.7366
 20
2.42705
 11
-20.5877
 21
2.31154
  0
LINE
  8
0
 10
-20.5877
 20
2.31154
 11
-20.4464
 21
2.1869
  0
LINE
  8
0
 10
-20.4464
 20
2.1869
 11
-20.3131
 21
2.05363
  0
LINE
  8
0
 10
-20.3131
 20
2.05363
 11
-20.1884
 21
1.91226
  0
LINE
  8
0
 10
-20.1884
 20
1.91226
 11
-20.0729
 21
1.76335
  0
LINE
  8
0
 10
-20.0729
 20
1.76335
 11
-19.967
 21
1.60747
  0
LINE
  8
0
 10
-19.967
 20
1.60747
 11
-19.8711
 21
1.44525
  0
LINE
  8
0
 10
-19.8711
 20
1.44525
 11
-19.7855
 21
1.27733
  0
LINE
  8
0
 10
-19.7855
 20
1.27733
 11
-19.7107
 21
1.10437
  0
LINE
  8
0
 10
-19.7107
 20
1.10437
 11
-19.6468
 21
0.927048
  0
LINE
  8
0
 10
-19.6468
 20
0.927048
 11
-19.5942
 21
0.746063
  0
LINE
  8
0
 10
-19.5942
 20
0.746063
 11
-19.5531
 21
0.562134
  0
LINE
  8
0
 10
-19.5531
 20
0.562134
 11
-19.5237
 21
0.375992
  0
LINE
  8
0
 10
-19.5237
 20
0.375992
 11
-19.5059
 21
0.18837
  0
LINE
  8
0
 10
-19.5059
 20
0.18837
 11
-19.5
 21
0
  0
LINE
  8
0
 10
-19.5
 20
0
 11
-19.5059
 21
-0.18837
  0
LINE
  8
0
 10
-19.5059
 20
-0.18837
 11
-19.5237
 21
-0.375992
  0
LINE
  8
0
 10
-19.5237
 20
-0.375992
 11
-19.5531
 21
-0.562134
  0
LINE
  8
0
 10
-19.5531
 20
-0.562134
 11
-19.5942
 21
-0.746063
  0
LINE
  8
0
 10
-19.5942
 20
-0.746063
 11
-19.6468
 21
-0.927048
  0
LINE
  8
0
 10
-19.6468
 20
-0.927048
 11
-19.7107
 21
-1.10437
  0
LINE
  8
0
 10
-19.7107
 20
-1.10437
 11
-19.7855
 21
-1.27733
  0
LINE
  8
0
 10
-19.7855
 20
-1.27733
 11
-19.8711
 21
-1.44525
  0
LINE
  8
0
 10
-19.8711
 20
-1.44525
 11
-19.967
 21
-1.60747
  0
LINE
  8
0
 10
-19.967
 20
-1.60747
 11
-20.0729
 21
-1.76335
  0
LINE
  8
0
 10
-20.0729
 20
-1.76335
 11
-20.1884
 21
-1.91226
  0
LINE
  8
0
 10
-20.1884
 20
-1.91226
 11
-20.3131
 21
-2.05363
  0
LINE
  8
0
 10
-20.3131
 20
-2.05363
 11
-20.4464
 21
-2.1869
  0
LINE
  8
0
 10
-20.4464
 20
-2.1869
 11
-20.5877
 21
-2.31154
  0
LINE
  8
0
 10
-20.5877
 20
-2.31154
 11
-20.7366
 21
-2.42705
  0
LINE
  8
0
 10
-20.7366
 20
-2.42705
 11
-20.8925
 21
-2.53297
  0
LINE
  8
0
 10
-20.8925
 20
-2.53297
 11
-21.0547
 21
-2.62891
  0
LINE
  8
0
 10
-21.0547
 20
-2.62891
 11
-21.2227
 21
-2.71448
  0
LINE
  8
0
 10
-21.2227
 20
-2.71448
 11
-21.3956
 21
-2.78932
  0
LINE
  8
0
 10
-21.3956
 20
-2.78932
 11
-21.5729
 21
-2.85316
  0
LINE
  8
0
 10
-21.5729
 20
-2.85316
 11
-21.7539
 21
-2.90575
  0
LINE
  8
0
 10
-21.7539
 20
-2.90575
 11
-21.9379
 21
-2.94685
  0
LINE
  8
0
 10
-21.9379
 20
-2.94685
 11
-22.124
 21
-2.97633
  0
LINE
  8
0
 10
-22.124
 20
-2.97633
 11
-22.3116
 21
-2.99408
  0
LINE
  8
0
 10
-22.3116
 20
-2.99408
 11
-22.5
 21
-3
  0
LINE
  8
0
 10
-22.5
 20
-3
 11
-22.6884
 21
-2.99408
  0
LINE
  8
0
 10
22.3116
 20
-2.99408
 11
22.124
 21
-2.97633
  0
LINE
  8
0
 10
22.124
 20
-2.97633
 11
21.9379
 21
-2.94685
  0
LINE
  8
0
 10
21.9379
 20
-2.94685
 11
21.7539
 21
-2.90575
  0
LINE
  8
0
 10
21.7539
 20
-2.90575
 11
21.5729
 21
-2.85316
  0
LINE
  8
0
 10
21.5729
 20
-2.85316
 11
21.3956
 21
-2.78932
  0
LINE
  8
0
 10
21.3956
 20
-2.78932
 11
21.2227
 21
-2.71448
  0
LINE
  8
0
 10
21.2227
 20
-2.71448
 11
21.0547
 21
-2.62891
  0
LINE
  8
0
 10
21.0547
 20
-2.62891
 11
20.8925
 21
-2.53297
  0
LINE
  8
0
 10
20.8925
 20
-2.53297
 11
20.7366
 21
-2.42705
  0
LINE
  8
0
 10
20.7366
 20
-2.42705
 11
20.5877
 21
-2.31154
  0
LINE
  8
0
 10
20.5877
 20
-2.31154
 11
20.4464
 21
-2.1869
  0
LINE
  8
0
 10
20.4464
 20
-2.1869
 11
20.3131
 21
-2.05363
  0
LINE
  8
0
 10
20.3131
 20
-2.05363
 11
20.1884
 21
-1.91226
  0
LINE
  8
0
 10
20.1884
 20
-1.91226
 11
20.0729
 21
-1.76335
  0
LINE
  8
0
 10
20.0729
 20
-1.76335
 11
19.967
 21
-1.60747
  0
LINE
  8
0
 10
19.967
 20
-1.60747
 11
19.8711
 21
-1.44525
  0
LINE
  8
0
 10
19.8711
 20
-1.44525
 11
19.7855
 21
-1.27733
  0
LINE
  8
0
 10
19.7855
 20
-1.27733
 11
19.7107
 21
-1.10437
  0
LINE
  8
0
 10
19.7107
 20
-1.10437
 11
19.6468
 21
-0.927048
  0
LINE
  8
0
 10
19.6468
 20
-0.927048
 11
19.5942
 21
-0.746063
  0
LINE
  8
0
 10
19.5942
 20
-0.746063
 11
19.5531
 21
-0.562134
  0
LINE
  8
0
 10
19.5531
 20
-0.562134
 11
19.5237
 21
-0.375992
  0
LINE
  8
0
 10
19.5237
 20
-0.375992
 11
19.5059
 21
-0.18837
  0
LINE
  8
0
 10
19.5059
 20
-0.18837
 11
19.5
 21
0
  0
LINE
  8
0
 10
19.5
 20
0
 11
19.5059
 21
0.18837
  0
LINE
  8
0
 10
19.5059
 20
0.18837
 11
19.5237
 21
0.375992
  0
LINE
  8
0
 10
19.5237
 20
0.375992
 11
19.5531
 21
0.562134
  0
LINE
  8
0
 10
19.5531
 20
0.562134
 11
19.5942
 21
0.746063
  0
LINE
  8
0
 10
19.5942
 20
0.746063
 11
19.6468
 21
0.927048
  0
LINE
  8
0
 10
19.6468
 20
0.927048
 11
19.7107
 21
1.10437
  0
LINE
  8
0
 10
19.7107
 20
1.10437
 11
19.7855
 21
1.27733
  0
LINE
  8
0
 10
19.7855
 20
1.27733
 11
19.8711
 21
1.44525
  0
LINE
  8
0
 10
19.8711
 20
1.44525
 11
19.967
 21
1.60747
  0
LINE
  8
0
 10
19.967
 20
1.60747
 11
20.0729
 21
1.76335
  0
LINE
  8
0
 10
20.0729
 20
1.76335
 11
20.1884
 21
1.91226
  0
LINE
  8
0
 10
20.1884
 20
1.91226
 11
20.3131
 21
2.05363
  0
LINE
  8
0
 10
20.3131
 20
2.05363
 11
20.4464
 21
2.1869
  0
LINE
  8
0
 10
20.4464
 20
2.1869
 11
20.5877
 21
2.31154
  0
LINE
  8
0
 10
20.5877
 20
2.31154
 11
20.7366
 21
2.42705
  0
LINE
  8
0
 10
20.7366
 20
2.42705
 11
20.8925
 21
2.53297
  0
LINE
  8
0
 10
20.8925
 20
2.53297
 11
21.0547
 21
2.62891
  0
LINE
  8
0
 10
21.0547
 20
2.62891
 11
21.2227
 21
2.71448
  0
LINE
  8
0
 10
21.2227
 20
2.71448
 11
21.3956
 21
2.78932
  0
LINE
  8
0
 10
21.3956
 20
2.78932
 11
21.5729
 21
2.85316
  0
LINE
  8
0
 10
21.5729
 20
2.85316
 11
21.7539
 21
2.90575
  0
LINE
  8
0
 10
21.7539
 20
2.90575
 11
21.9379
 21
2.94685
  0
LINE
  8
0
 10
21.9379
 20
2.94685
 11
22.124
 21
2.97633
  0
LINE
  8
0
 10
22.124
 20
2.97633
 11
22.3116
 21
2.99408
  0
LINE
  8
0
 10
22.3116
 20
2.99408
 11
22.5
 21
3
  0
LINE
  8
0
 10
22.5
 20
3
 11
22.6884
 21
2.99408
  0
LINE
  8
0
 10
22.6884
 20
2.99408
 11
22.876
 21
2.97633
  0
LINE
  8
0
 10
22.876
 20
2.97633
 11
23.0621
 21
2.94685
  0
LINE
  8
0
 10
23.0621
 20
2.94685
 11
23.2461
 21
2.90575
  0
LINE
  8
0
 10
23.2461
 20
2.90575
 11
23.427
 21
2.85316
  0
LINE
  8
0
 10
23.427
 20
2.85316
 11
23.6044
 21
2.78932
  0
LINE
  8
0
 10
23.6044
 20
2.78932
 11
23.7773
 21
2.71448
  0
LINE
  8
0
 10
23.7773
 20
2.71448
 11
23.9453
 21
2.62891
  0
LINE
  8
0
 10
23.9453
 20
2.62891
 11
24.1075
 21
2.53297
  0
LINE
  8
0
 10
24.1075
 20
2.53297
 11
24.2634
 21
2.42705
  0
LINE
  8
0
 10
24.2634
 20
2.42705
 11
24.4123
 21
2.31154
  0
LINE
  8
0
 10
24.4123
 20
2.31154
 11
24.5536
 21
2.1869
  0
LINE
  8
0
 10
24.5536
 20
2.1869
 11
24.6869
 21
2.05363
  0
LINE
  8
0
 10
24.6869
 20
2.05363
 11
24.8115
 21
1.91226
  0
LINE
  8
0
 10
24.8115
 20
1.91226
 11
24.927
 21
1.76335
  0
LINE
  8
0
 10
24.927
 20
1.76335
 11
25.033
 21
1.60747
  0
LINE
  8
0
 10
25.033
 20
1.60747
 11
25.1289
 21
1.44525
  0
LINE
  8
0
 10
25.1289
 20
1.44525
 11
25.2145
 21
1.27733
  0
LINE
  8
0
 10
25.2145
 20
1.27733
 11
25.2893
 21
1.10437
  0
LINE
  8
0
 10
25.2893
 20
1.10437
 11
25.3532
 21
0.927048
  0
LINE
  8
0
 10
25.3532
 20
0.927048
 11
25.4057
 21
0.746063
  0
LINE
  8
0
 10
25.4057
 20
0.746063
 11
25.4469
 21
0.562134
  0
LINE
  8
0
 10
25.4469
 20
0.562134
 11
25.4763
 21
0.375992
  0
LINE
  8
0
 10
25.4763
 20
0.375992
 11
25.4941
 21
0.18837
  0
LINE
  8
0
 10
25.4941
 20
0.18837
 11
25.5
 21
0
  0
LINE
  8
0
 10
25.5
 20
0
 11
25.4941
 21
-0.18837
  0
LINE
  8
0
 10
25.4941
 20
-0.18837
 11
25.4763
 21
-0.375992
  0
LINE
  8
0
 10
25.4763
 20
-0.375992
 11
25.4469
 21
-0.562134
  0
LINE
  8
0
 10
25.4469
 20
-0.562134
 11
25.4057
 21
-0.746063
  0
LINE
  8
0
 10
25.4057
 20
-0.746063
 11
25.3532
 21
-0.927048
  0
LINE
  8
0
 10
25.3532
 20
-0.927048
 11
25.2893
 21
-1.10437
  0
LINE
  8
0
 10
25.2893
 20
-1.10437
 11
25.2145
 21
-1.27733
  0
LINE
  8
0
 10
25.2145
 20
-1.27733
 11
25.1289
 21
-1.44525
  0
LINE
  8
0
 10
25.1289
 20
-1.44525
 11
25.033
 21
-1.60747
  0
LINE
  8
0
 10
25.033
 20
-1.60747
 11
24.927
 21
-1.76335
  0
LINE
  8
0
 10
24.927
 20
-1.76335
 11
24.8115
 21
-1.91226
  0
LINE
  8
0
 10
24.8115
 20
-1.91226
 11
24.6869
 21
-2.05363
  0
LINE
  8
0
 10
24.6869
 20
-2.05363
 11
24.5536
 21
-2.1869
  0
LINE
  8
0
 10
24.5536
 20
-2.1869
 11
24.4123
 21
-2.31154
  0
LINE
  8
0
 10
24.4123
 20
-2.31154
 11
24.2634
 21
-2.42705
  0
LINE
  8
0
 10
24.2634
 20
-2.42705
 11
24.1075
 21
-2.53297
  0
LINE
  8
0
 10
24.1075
 20
-2.53297
 11
23.9453
 21
-2.62891
  0
LINE
  8
0
 10
23.9453
 20
-2.62891
 11
23.7773
 21
-2.71448
  0
LINE
  8
0
 10
23.7773
 20
-2.71448
 11
23.6044
 21
-2.78932
  0
LINE
  8
0
 10
23.6044
 20
-2.78932
 11
23.427
 21
-2.85316
  0
LINE
  8
0
 10
23.427
 20
-2.85316
 11
23.2461
 21
-2.90575
  0
LINE
  8
0
 10
23.2461
 20
-2.90575
 11
23.0621
 21
-2.94685
  0
LINE
  8
0
 10
23.0621
 20
-2.94685
 11
22.876
 21
-2.97633
  0
LINE
  8
0
 10
22.876
 20
-2.97633
 11
22.6884
 21
-2.99408
  0
LINE
  8
0
 10
22.6884
 20
-2.99408
 11
22.5
 21
-3
  0
LINE
  8
0
 10
22.5
 20
-3
 11
22.3116
 21
-2.99408
  0
ENDSEC
  0
SECTION
  2
OBJECTS
  0
DICTIONARY
  0
ENDSEC
  0
EOF
