<?xml version="1.0" standalone="no"?>
<!DOCTYPE svg PUBLIC "-//W3C//DTD SVG 1.1//EN" "http://www.w3.org/Graphics/SVG/1.1/DTD/svg11.dtd">
<svg width="148mm" height="14mm" viewBox="-74 -7 148 14" xmlns="http://www.w3.org/2000/svg" version="1.1">
<title>OpenSCAD Model</title>
<path d="
M 69.1576,5.96222 L 69.7991,5.83463 L 70.4184,5.62439 L 71.005,5.33511 L 71.5488,4.97176 L 72.0405,4.54053
 L 72.4718,4.0488 L 72.8351,3.50499 L 73.1244,2.91841 L 73.3346,2.29909 L 73.4622,1.65762 L 73.505,1.00499
 L 73.505,-1.00499 L 73.4622,-1.65762 L 73.3346,-2.29909 L 73.1244,-2.91841 L 72.8351,-3.50499 L 72.4718,-4.0488
 L 72.0405,-4.54053 L 71.5488,-4.97176 L 71.005,-5.33511 L 70.4184,-5.62439 L 69.7991,-5.83463 L 69.1576,-5.96222
 L 68.505,-6.00499 L -68.505,-6.00499 L -69.1576,-5.96222 L -69.7991,-5.83463 L -70.4184,-5.62439 L -71.005,-5.33511
 L -71.5488,-4.97176 L -72.0405,-4.54053 L -72.4718,-4.0488 L -72.8351,-3.50499 L -73.1244,-2.91841 L -73.3346,-2.29909
 L -73.4622,-1.65762 L -73.505,-1.00499 L -73.505,1.00499 L -73.4622,1.65762 L -73.3346,2.29909 L -73.1244,2.91841
 L -72.8351,3.50499 L -72.4718,4.0488 L -72.0405,4.54053 L -71.5488,4.97176 L -71.005,5.33511 L -70.4184,5.62439
 L -69.7991,5.83463 L -69.1576,5.96222 L -68.505,6.00499 L 68.505,6.00499 z
M 23.2764,-2.89777 L 23.648,-2.77164 L 24,-2.59807 L 24.3263,-2.38005 L 24.6213,-2.12131 L 24.8801,-1.82628
 L 25.0981,-1.5 L 25.2716,-1.14804 L 25.3978,-0.776443 L 25.4743,-0.391571 L 25.5,-0 L 25.4743,0.391571
 L 25.3978,0.776443 L 25.2716,1.14804 L 25.0981,1.5 L 24.8801,1.82628 L 24.6213,2.12131 L 24.3263,2.38005
 L 24,2.59807 L 23.648,2.77164 L 23.2764,2.89777 L 22.8916,2.97432 L 22.5,3 L 22.1084,2.97432
 L 21.7235,2.89777 L 21.3519,2.77164 L 21,2.59807 L 20.6737,2.38005 L 20.3787,2.12131 L 20.1199,1.82628
 L 19.9019,1.5 L 19.7283,1.14804 L 19.6022,0.776443 L 19.5257,0.391571 L 19.5,-0 L 19.5257,-0.391571
 L 19.6022,-0.776443 L 19.7283,-1.14804 L 19.9019,-1.5 L 20.1199,-1.82628 L 20.3787,-2.12131 L 20.6737,-2.38005
 L 21,-2.59807 L 21.3519,-2.77164 L 21.7235,-2.89777 L 22.1084,-2.97432 L 22.5,-3 L 22.8916,-2.97432
 z
M -67.8916,2.97432 L -68.2765,2.89777 L -68.648,2.77164 L -69,2.59807 L -69.3263,2.38005 L -69.6213,2.12131
 L -69.8801,1.82628 L -70.0981,1.5 L -70.2716,1.14804 L -70.3978,0.776443 L -70.4743,0.391571 L -70.5,-0
 L -70.4743,-0.391571 L -70.3978,-0.776443 L -70.2716,-1.14804 L -70.0981,-1.5 L -69.8801,-1.82628 L -69.6213,-2.12131
 L -69.3263,-2.38005 L -69,-2.59807 L -68.648,-2.77164 L -68.2765,-2.89777 L -67.8916,-2.97432 L -67.5,-3
 L -67.1084,-2.97432 L -66.7235,-2.89777 L -66.3519,-2.77164 L -66,-2.59807 L -65.6737,-2.38005 L -65.3787,-2.12131
 L -65.1199,-1.82628 L -64.9019,-1.5 L -64.7284,-1.14804 L -64.6022,-0.776443 L -64.5257,-0.391571 L -64.5,-0
 L -64.5257,0.391571 L -64.6022,0.776443 L -64.7284,1.14804 L -64.9019,1.5 L -65.1199,1.82628 L -65.3787,2.12131
 L -65.6737,2.38005 L -66,2.59807 L -66.3519,2.77164 L -66.7235,2.89777 L -67.1084,2.97432 L -67.5,3
 z
M -52.8916,2.97432 L -53.2765,2.89777 L -53.648,2.77164 L -54,2.59807 L -54.3263,2.38005 L -54.6213,2.12131
 L -54.8801,1.82628 L -55.0981,1.5 L -55.2716,1.14804 L -55.3978,0.776443 L -55.4743,0.391571 L -55.5,-0
 L -55.4743,-0.391571 L -55.3978,-0.776443 L -55.2716,-1.14804 L -55.0981,-1.5 L -54.8801,-1.82628 L -54.6213,-2.12131
 L -54.3263,-2.38005 L -54,-2.59807 L -53.648,-2.77164 L -53.2765,-2.89777 L -52.8916,-2.97432 L -52.5,-3
 L -52.1084,-2.97432 L -51.7235,-2.89777 L -51.3519,-2.77164 L -51,-2.59807 L -50.6737,-2.38005 L -50.3787,-2.12131
 L -50.1199,-1.82628 L -49.9019,-1.5 L -49.7284,-1.14804 L -49.6022,-0.776443 L -49.5257,-0.391571 L -49.5,-0
 L -49.5257,0.391571 L -49.6022,0.776443 L -49.7284,1.14804 L -49.9019,1.5 L -50.1199,1.82628 L -50.3787,2.12131
 L -50.6737,2.38005 L -51,2.59807 L -51.3519,2.77164 L -51.7235,2.89777 L -52.1084,2.97432 L -52.5,3
 z
M 52.1084,2.97432 L 51.7235,2.89777 L 51.3519,2.77164 L 51,2.59807 L 50.6737,2.38005 L 50.3787,2.12131
 L 50.1199,1.82628 L 49.9019,1.5 L 49.7284,1.14804 L 49.6022,0.776443 L 49.5257,0.391571 L 49.5,-0
 L 49.5257,-0.391571 L 49.6022,-0.776443 L 49.7284,-1.14804 L 49.9019,-1.5 L 50.1199,-1.82628 L 50.3787,-2.12131
 L 50.6737,-2.38005 L 51,-2.59807 L 51.3519,-2.77164 L 51.7235,-2.89777 L 52.1084,-2.97432 L 52.5,-3
 L 52.8916,-2.97432 L 53.2765,-2.89777 L 53.648,-2.77164 L 54,-2.59807 L 54.3263,-2.38005 L 54.6213,-2.12131
 L 54.8801,-1.82628 L 55.0981,-1.5 L 55.2716,-1.14804 L 55.3978,-0.776443 L 55.4743,-0.391571 L 55.5,-0
 L 55.4743,0.391571 L 55.3978,0.776443 L 55.2716,1.14804 L 55.0981,1.5 L 54.8801,1.82628 L 54.6213,2.12131
 L 54.3263,2.38005 L 54,2.59807 L 53.648,2.77164 L 53.2765,2.89777 L 52.8916,2.97432 L 52.5,3
 z
M 67.1084,2.97432 L 66.7235,2.89777 L 66.3519,2.77164 L 66,2.59807 L 65.6737,2.38005 L 65.3787,2.12131
 L 65.1199,1.82628 L 64.9019,1.5 L 64.7284,1.14804 L 64.6022,0.776443 L 64.5257,0.391571 L 64.5,-0
 L 64.5257,-0.391571 L 64.6022,-0.776443 L 64.7284,-1.14804 L 64.9019,-1.5 L 65.1199,-1.82628 L 65.3787,-2.12131
 L 65.6737,-2.38005 L 66,-2.59807 L 66.3519,-2.77164 L 66.7235,-2.89777 L 67.1084,-2.97432 L 67.5,-3
 L 67.8916,-2.97432 L 68.2765,-2.89777 L 68.648,-2.77164 L 69,-2.59807 L 69.3263,-2.38005 L 69.6213,-2.12131
 L 69.8801,-1.82628 L 70.0981,-1.5 L 70.2716,-1.14804 L 70.3978,-0.776443 L 70.4743,-0.391571 L 70.5,-0
 L 70.4743,0.391571 L 70.3978,0.776443 L 70.2716,1.14804 L 70.0981,1.5 L 69.8801,1.82628 L 69.6213,2.12131
 L 69.3263,2.38005 L 69,2.59807 L 68.648,2.77164 L 68.2765,2.89777 L 67.8916,2.97432 L 67.5,3
 z
M -22.8916,2.97432 L -23.2764,2.89777 L -23.648,2.77164 L -24,2.59807 L -24.3263,2.38005 L -24.6213,2.12131
 L -24.8801,1.82628 L -25.0981,1.5 L -25.2716,1.14804 L -25.3978,0.776443 L -25.4743,0.391571 L -25.5,-0
 L -25.4743,-0.391571 L -25.3978,-0.776443 L -25.2716,-1.14804 L -25.0981,-1.5 L -24.8801,-1.82628 L -24.6213,-2.12131
 L -24.3263,-2.38005 L -24,-2.59807 L -23.648,-2.77164 L -23.2764,-2.89777 L -22.8916,-2.97432 L -22.5,-3
 L -22.1084,-2.97432 L -21.7235,-2.89777 L -21.3519,-2.77164 L -21,-2.59807 L -20.6737,-2.38005 L -20.3787,-2.12131
 L -20.1199,-1.82628 L -19.9019,-1.5 L -19.7283,-1.14804 L -19.6022,-0.776443 L -19.5257,-0.391571 L -19.5,-0
 L -19.5257,0.391571 L -19.6022,0.776443 L -19.7283,1.14804 L -19.9019,1.5 L -20.1199,1.82628 L -20.3787,2.12131
 L -20.6737,2.38005 L -21,2.59807 L -21.3519,2.77164 L -21.7235,2.89777 L -22.1084,2.97432 L -22.5,3
 z
M -37.8916,2.97432 L -38.2765,2.89777 L -38.648,2.77164 L -39,2.59807 L -39.3263,2.38005 L -39.6213,2.12131
 L -39.8801,1.82628 L -40.0981,1.5 L -40.2716,1.14804 L -40.3978,0.776443 L -40.4743,0.391571 L -40.5,-0
 L -40.4743,-0.391571 L -40.3978,-0.776443 L -40.2716,-1.14804 L -40.0981,-1.5 L -39.8801,-1.82628 L -39.6213,-2.12131
 L -39.3263,-2.38005 L -39,-2.59807 L -38.648,-2.77164 L -38.2765,-2.89777 L -37.8916,-2.97432 L -37.5,-3
 L -37.1084,-2.97432 L -36.7235,-2.89777 L -36.3519,-2.77164 L -36,-2.59807 L -35.6737,-2.38005 L -35.3787,-2.12131
 L -35.1199,-1.82628 L -34.9019,-1.5 L -34.7284,-1.14804 L -34.6022,-0.776443 L -34.5257,-0.391571 L -34.5,-0
 L -34.5257,0.391571 L -34.6022,0.776443 L -34.7284,1.14804 L -34.9019,1.5 L -35.1199,1.82628 L -35.3787,2.12131
 L -35.6737,2.38005 L -36,2.59807 L -36.3519,2.77164 L -36.7235,2.89777 L -37.1084,2.97432 L -37.5,3
 z
M 7.10841,2.97432 L 6.72354,2.89777 L 6.35194,2.77164 L 6,2.59807 L 5.67371,2.38005 L 5.37868,2.12131
 L 5.11993,1.82628 L 4.90192,1.5 L 4.72835,1.14804 L 4.60222,0.776443 L 4.52567,0.391571 L 4.5,-0
 L 4.52567,-0.391571 L 4.60222,-0.776443 L 4.72835,-1.14804 L 4.90192,-1.5 L 5.11993,-1.82628 L 5.37868,-2.12131
 L 5.67371,-2.38005 L 6,-2.59807 L 6.35194,-2.77164 L 6.72354,-2.89777 L 7.10841,-2.97432 L 7.5,-3
 L 7.89157,-2.97432 L 8.27644,-2.89777 L 8.64804,-2.77164 L 9,-2.59807 L 9.32628,-2.38005 L 9.62131,-2.12131
 L 9.88005,-1.82628 L 10.0981,-1.5 L 10.2716,-1.14804 L 10.3978,-0.776443 L 10.4743,-0.391571 L 10.5,-0
 L 10.4743,0.391571 L 10.3978,0.776443 L 10.2716,1.14804 L 10.0981,1.5 L 9.88005,1.82628 L 9.62131,2.12131
 L 9.32628,2.38005 L 9,2.59807 L 8.64804,2.77164 L 8.27644,2.89777 L 7.89157,2.97432 L 7.5,3
 z
M -7.89157,2.97432 L -8.27644,2.89777 L -8.64804,2.77164 L -9,2.59807 L -9.32628,2.38005 L -9.62131,2.12131
 L -9.88005,1.82628 L -10.0981,1.5 L -10.2716,1.14804 L -10.3978,0.776443 L -10.4743,0.391571 L -10.5,-0
 L -10.4743,-0.391571 L -10.3978,-0.776443 L -10.2716,-1.14804 L -10.0981,-1.5 L -9.88005,-1.82628 L -9.62131,-2.12131
 L -9.32628,-2.38005 L -9,-2.59807 L -8.64804,-2.77164 L -8.27644,-2.89777 L -7.89157,-2.97432 L -7.5,-3
 L -7.10841,-2.97432 L -6.72354,-2.89777 L -6.35194,-2.77164 L -6,-2.59807 L -5.67371,-2.38005 L -5.37868,-2.12131
 L -5.11993,-1.82628 L -4.90192,-1.5 L -4.72835,-1.14804 L -4.60222,-0.776443 L -4.52567,-0.391571 L -4.5,-0
 L -4.52567,0.391571 L -4.60222,0.776443 L -4.72835,1.14804 L -4.90192,1.5 L -5.11993,1.82628 L -5.37868,2.12131
 L -5.67371,2.38005 L -6,2.59807 L -6.35194,2.77164 L -6.72354,2.89777 L -7.10841,2.97432 L -7.5,3
 z
M 37.1084,2.97432 L 36.7235,2.89777 L 36.3519,2.77164 L 36,2.59807 L 35.6737,2.38005 L 35.3787,2.12131
 L 35.1199,1.82628 L 34.9019,1.5 L 34.7284,1.14804 L 34.6022,0.776443 L 34.5257,0.391571 L 34.5,-0
 L 34.5257,-0.391571 L 34.6022,-0.776443 L 34.7284,-1.14804 L 34.9019,-1.5 L 35.1199,-1.82628 L 35.3787,-2.12131
 L 35.6737,-2.38005 L 36,-2.59807 L 36.3519,-2.77164 L 36.7235,-2.89777 L 37.1084,-2.97432 L 37.5,-3
 L 37.8916,-2.97432 L 38.2765,-2.89777 L 38.648,-2.77164 L 39,-2.59807 L 39.3263,-2.38005 L 39.6213,-2.12131
 L 39.8801,-1.82628 L 40.0981,-1.5 L 40.2716,-1.14804 L 40.3978,-0.776443 L 40.4743,-0.391571 L 40.5,-0
 L 40.4743,0.391571 L 40.3978,0.776443 L 40.2716,1.14804 L 40.0981,1.5 L 39.8801,1.82628 L 39.6213,2.12131
 L 39.3263,2.38005 L 39,2.59807 L 38.648,2.77164 L 38.2765,2.89777 L 37.8916,2.97432 L 37.5,3
 z
" stroke="black" fill="lightgray" stroke-width="0.5"/>
</svg>
