<?xml version="1.0" standalone="no"?>
<!DOCTYPE svg PUBLIC "-//W3C//DTD SVG 1.1//EN" "http://www.w3.org/Graphics/SVG/1.1/DTD/svg11.dtd">
<svg width="207mm" height="12mm" viewBox="9 -21 207 12" xmlns="http://www.w3.org/2000/svg" version="1.1">
<title>OpenSCAD Model</title>
<path d="
M 211,-9.00986 L 211.314,-9.00986 L 211.937,-9.08856 L 212.545,-9.24471 L 213.129,-9.47586 L 213.679,-9.77835
 L 214.187,-10.1474 L 214.645,-10.5773 L 215.045,-11.0611 L 215.382,-11.5912 L 215.649,-12.1594 L 215.843,-12.7565
 L 215.961,-13.3733 L 216,-14 L 216,-16 L 215.961,-16.6267 L 215.843,-17.2434 L 215.649,-17.8406
 L 215.382,-18.4088 L 215.045,-18.9389 L 214.645,-19.4227 L 214.187,-19.8526 L 213.679,-20.2216 L 213.129,-20.5241
 L 212.545,-20.7553 L 211.937,-20.9114 L 211.314,-20.9901 L 211,-20.9901 L 211,-21 L 14,-21
 L 14,-20.9901 L 13.686,-20.9901 L 13.0631,-20.9114 L 12.4549,-20.7553 L 11.8711,-20.5241 L 11.3209,-20.2216
 L 10.8129,-19.8526 L 10.3551,-19.4227 L 9.95491,-18.9389 L 9.61845,-18.4088 L 9.3511,-17.8406 L 9.15707,-17.2434
 L 9.03941,-16.6267 L 9,-16 L 9,-14 L 9.03941,-13.3733 L 9.15707,-12.7565 L 9.3511,-12.1594
 L 9.61845,-11.5912 L 9.95491,-11.0611 L 10.3551,-10.5773 L 10.8129,-10.1474 L 11.3209,-9.77835 L 11.8711,-9.47586
 L 12.4549,-9.24471 L 13.0631,-9.08856 L 13.686,-9.00986 L 14,-9.00986 L 14,-9 L 211,-9
 z
M 209.812,-12.0059 L 209.438,-12.0531 L 209.073,-12.1468 L 208.723,-12.2855 L 208.393,-12.467 L 208.088,-12.6884
 L 207.813,-12.9464 L 207.573,-13.2366 L 207.371,-13.5547 L 207.211,-13.8956 L 207.094,-14.2539 L 207.024,-14.624
 L 207,-15 L 207.024,-15.376 L 207.094,-15.7461 L 207.211,-16.1044 L 207.371,-16.4453 L 207.573,-16.7634
 L 207.813,-17.0536 L 208.088,-17.3115 L 208.393,-17.533 L 208.723,-17.7145 L 209.073,-17.8532 L 209.438,-17.9469
 L 209.812,-17.9941 L 210.188,-17.9941 L 210.562,-17.9469 L 210.927,-17.8532 L 211.277,-17.7145 L 211.607,-17.533
 L 211.912,-17.3115 L 212.187,-17.0536 L 212.427,-16.7634 L 212.629,-16.4453 L 212.789,-16.1044 L 212.906,-15.7461
 L 212.976,-15.376 L 213,-15 L 212.976,-14.624 L 212.906,-14.2539 L 212.789,-13.8956 L 212.629,-13.5547
 L 212.427,-13.2366 L 212.187,-12.9464 L 211.912,-12.6884 L 211.607,-12.467 L 211.277,-12.2855 L 210.927,-12.1468
 L 210.562,-12.0531 L 210.188,-12.0059 z
M 194.812,-12.0059 L 194.438,-12.0531 L 194.073,-12.1468 L 193.723,-12.2855 L 193.393,-12.467 L 193.088,-12.6884
 L 192.813,-12.9464 L 192.573,-13.2366 L 192.371,-13.5547 L 192.211,-13.8956 L 192.094,-14.2539 L 192.024,-14.624
 L 192,-15 L 192.024,-15.376 L 192.094,-15.7461 L 192.211,-16.1044 L 192.371,-16.4453 L 192.573,-16.7634
 L 192.813,-17.0536 L 193.088,-17.3115 L 193.393,-17.533 L 193.723,-17.7145 L 194.073,-17.8532 L 194.438,-17.9469
 L 194.812,-17.9941 L 195.188,-17.9941 L 195.562,-17.9469 L 195.927,-17.8532 L 196.277,-17.7145 L 196.607,-17.533
 L 196.912,-17.3115 L 197.187,-17.0536 L 197.427,-16.7634 L 197.629,-16.4453 L 197.789,-16.1044 L 197.906,-15.7461
 L 197.976,-15.376 L 198,-15 L 197.976,-14.624 L 197.906,-14.2539 L 197.789,-13.8956 L 197.629,-13.5547
 L 197.427,-13.2366 L 197.187,-12.9464 L 196.912,-12.6884 L 196.607,-12.467 L 196.277,-12.2855 L 195.927,-12.1468
 L 195.562,-12.0531 L 195.188,-12.0059 z
M 179.812,-12.0059 L 179.438,-12.0531 L 179.073,-12.1468 L 178.723,-12.2855 L 178.393,-12.467 L 178.088,-12.6884
 L 177.813,-12.9464 L 177.573,-13.2366 L 177.371,-13.5547 L 177.211,-13.8956 L 177.094,-14.2539 L 177.024,-14.624
 L 177,-15 L 177.024,-15.376 L 177.094,-15.7461 L 177.211,-16.1044 L 177.371,-16.4453 L 177.573,-16.7634
 L 177.813,-17.0536 L 178.088,-17.3115 L 178.393,-17.533 L 178.723,-17.7145 L 179.073,-17.8532 L 179.438,-17.9469
 L 179.812,-17.9941 L 180.188,-17.9941 L 180.562,-17.9469 L 180.927,-17.8532 L 181.277,-17.7145 L 181.607,-17.533
 L 181.912,-17.3115 L 182.187,-17.0536 L 182.427,-16.7634 L 182.629,-16.4453 L 182.789,-16.1044 L 182.906,-15.7461
 L 182.976,-15.376 L 183,-15 L 182.976,-14.624 L 182.906,-14.2539 L 182.789,-13.8956 L 182.629,-13.5547
 L 182.427,-13.2366 L 182.187,-12.9464 L 181.912,-12.6884 L 181.607,-12.467 L 181.277,-12.2855 L 180.927,-12.1468
 L 180.562,-12.0531 L 180.188,-12.0059 z
M 164.812,-12.0059 L 164.438,-12.0531 L 164.073,-12.1468 L 163.723,-12.2855 L 163.393,-12.467 L 163.088,-12.6884
 L 162.813,-12.9464 L 162.573,-13.2366 L 162.371,-13.5547 L 162.211,-13.8956 L 162.094,-14.2539 L 162.024,-14.624
 L 162,-15 L 162.024,-15.376 L 162.094,-15.7461 L 162.211,-16.1044 L 162.371,-16.4453 L 162.573,-16.7634
 L 162.813,-17.0536 L 163.088,-17.3115 L 163.393,-17.533 L 163.723,-17.7145 L 164.073,-17.8532 L 164.438,-17.9469
 L 164.812,-17.9941 L 165.188,-17.9941 L 165.562,-17.9469 L 165.927,-17.8532 L 166.277,-17.7145 L 166.607,-17.533
 L 166.912,-17.3115 L 167.187,-17.0536 L 167.427,-16.7634 L 167.629,-16.4453 L 167.789,-16.1044 L 167.906,-15.7461
 L 167.976,-15.376 L 168,-15 L 167.976,-14.624 L 167.906,-14.2539 L 167.789,-13.8956 L 167.629,-13.5547
 L 167.427,-13.2366 L 167.187,-12.9464 L 166.912,-12.6884 L 166.607,-12.467 L 166.277,-12.2855 L 165.927,-12.1468
 L 165.562,-12.0531 L 165.188,-12.0059 z
M 149.812,-12.0059 L 149.438,-12.0531 L 149.073,-12.1468 L 148.723,-12.2855 L 148.393,-12.467 L 148.088,-12.6884
 L 147.813,-12.9464 L 147.573,-13.2366 L 147.371,-13.5547 L 147.211,-13.8956 L 147.094,-14.2539 L 147.024,-14.624
 L 147,-15 L 147.024,-15.376 L 147.094,-15.7461 L 147.211,-16.1044 L 147.371,-16.4453 L 147.573,-16.7634
 L 147.813,-17.0536 L 148.088,-17.3115 L 148.393,-17.533 L 148.723,-17.7145 L 149.073,-17.8532 L 149.438,-17.9469
 L 149.812,-17.9941 L 150.188,-17.9941 L 150.562,-17.9469 L 150.927,-17.8532 L 151.277,-17.7145 L 151.607,-17.533
 L 151.912,-17.3115 L 152.187,-17.0536 L 152.427,-16.7634 L 152.629,-16.4453 L 152.789,-16.1044 L 152.906,-15.7461
 L 152.976,-15.376 L 153,-15 L 152.976,-14.624 L 152.906,-14.2539 L 152.789,-13.8956 L 152.629,-13.5547
 L 152.427,-13.2366 L 152.187,-12.9464 L 151.912,-12.6884 L 151.607,-12.467 L 151.277,-12.2855 L 150.927,-12.1468
 L 150.562,-12.0531 L 150.188,-12.0059 z
M 134.812,-12.0059 L 134.438,-12.0531 L 134.073,-12.1468 L 133.723,-12.2855 L 133.393,-12.467 L 133.088,-12.6884
 L 132.813,-12.9464 L 132.573,-13.2366 L 132.371,-13.5547 L 132.211,-13.8956 L 132.094,-14.2539 L 132.024,-14.624
 L 132,-15 L 132.024,-15.376 L 132.094,-15.7461 L 132.211,-16.1044 L 132.371,-16.4453 L 132.573,-16.7634
 L 132.813,-17.0536 L 133.088,-17.3115 L 133.393,-17.533 L 133.723,-17.7145 L 134.073,-17.8532 L 134.438,-17.9469
 L 134.812,-17.9941 L 135.188,-17.9941 L 135.562,-17.9469 L 135.927,-17.8532 L 136.277,-17.7145 L 136.607,-17.533
 L 136.912,-17.3115 L 137.187,-17.0536 L 137.427,-16.7634 L 137.629,-16.4453 L 137.789,-16.1044 L 137.906,-15.7461
 L 137.976,-15.376 L 138,-15 L 137.976,-14.624 L 137.906,-14.2539 L 137.789,-13.8956 L 137.629,-13.5547
 L 137.427,-13.2366 L 137.187,-12.9464 L 136.912,-12.6884 L 136.607,-12.467 L 136.277,-12.2855 L 135.927,-12.1468
 L 135.562,-12.0531 L 135.188,-12.0059 z
M 119.812,-12.0059 L 119.438,-12.0531 L 119.073,-12.1468 L 118.723,-12.2855 L 118.393,-12.467 L 118.088,-12.6884
 L 117.813,-12.9464 L 117.573,-13.2366 L 117.371,-13.5547 L 117.211,-13.8956 L 117.094,-14.2539 L 117.024,-14.624
 L 117,-15 L 117.024,-15.376 L 117.094,-15.7461 L 117.211,-16.1044 L 117.371,-16.4453 L 117.573,-16.7634
 L 117.813,-17.0536 L 118.088,-17.3115 L 118.393,-17.533 L 118.723,-17.7145 L 119.073,-17.8532 L 119.438,-17.9469
 L 119.812,-17.9941 L 120.188,-17.9941 L 120.562,-17.9469 L 120.927,-17.8532 L 121.277,-17.7145 L 121.607,-17.533
 L 121.912,-17.3115 L 122.187,-17.0536 L 122.427,-16.7634 L 122.629,-16.4453 L 122.789,-16.1044 L 122.906,-15.7461
 L 122.976,-15.376 L 123,-15 L 122.976,-14.624 L 122.906,-14.2539 L 122.789,-13.8956 L 122.629,-13.5547
 L 122.427,-13.2366 L 122.187,-12.9464 L 121.912,-12.6884 L 121.607,-12.467 L 121.277,-12.2855 L 120.927,-12.1468
 L 120.562,-12.0531 L 120.188,-12.0059 z
M 104.812,-12.0059 L 104.438,-12.0531 L 104.073,-12.1468 L 103.723,-12.2855 L 103.393,-12.467 L 103.088,-12.6884
 L 102.813,-12.9464 L 102.573,-13.2366 L 102.371,-13.5547 L 102.211,-13.8956 L 102.094,-14.2539 L 102.024,-14.624
 L 102,-15 L 102.024,-15.376 L 102.094,-15.7461 L 102.211,-16.1044 L 102.371,-16.4453 L 102.573,-16.7634
 L 102.813,-17.0536 L 103.088,-17.3115 L 103.393,-17.533 L 103.723,-17.7145 L 104.073,-17.8532 L 104.438,-17.9469
 L 104.812,-17.9941 L 105.188,-17.9941 L 105.562,-17.9469 L 105.927,-17.8532 L 106.277,-17.7145 L 106.607,-17.533
 L 106.912,-17.3115 L 107.187,-17.0536 L 107.427,-16.7634 L 107.629,-16.4453 L 107.789,-16.1044 L 107.906,-15.7461
 L 107.976,-15.376 L 108,-15 L 107.976,-14.624 L 107.906,-14.2539 L 107.789,-13.8956 L 107.629,-13.5547
 L 107.427,-13.2366 L 107.187,-12.9464 L 106.912,-12.6884 L 106.607,-12.467 L 106.277,-12.2855 L 105.927,-12.1468
 L 105.562,-12.0531 L 105.188,-12.0059 z
M 89.8116,-12.0059 L 89.4379,-12.0531 L 89.0729,-12.1468 L 88.7227,-12.2855 L 88.3925,-12.467 L 88.0877,-12.6884
 L 87.8131,-12.9464 L 87.5729,-13.2366 L 87.3711,-13.5547 L 87.2107,-13.8956 L 87.0942,-14.2539 L 87.0237,-14.624
 L 87,-15 L 87.0237,-15.376 L 87.0942,-15.7461 L 87.2107,-16.1044 L 87.3711,-16.4453 L 87.5729,-16.7634
 L 87.8131,-17.0536 L 88.0877,-17.3115 L 88.3925,-17.533 L 88.7227,-17.7145 L 89.0729,-17.8532 L 89.4379,-17.9469
 L 89.8116,-17.9941 L 90.1884,-17.9941 L 90.5621,-17.9469 L 90.927,-17.8532 L 91.2773,-17.7145 L 91.6075,-17.533
 L 91.9123,-17.3115 L 92.1869,-17.0536 L 92.427,-16.7634 L 92.6289,-16.4453 L 92.7893,-16.1044 L 92.9057,-15.7461
 L 92.9763,-15.376 L 93,-15 L 92.9763,-14.624 L 92.9057,-14.2539 L 92.7893,-13.8956 L 92.6289,-13.5547
 L 92.427,-13.2366 L 92.1869,-12.9464 L 91.9123,-12.6884 L 91.6075,-12.467 L 91.2773,-12.2855 L 90.927,-12.1468
 L 90.5621,-12.0531 L 90.1884,-12.0059 z
M 74.8116,-12.0059 L 74.4379,-12.0531 L 74.0729,-12.1468 L 73.7227,-12.2855 L 73.3925,-12.467 L 73.0877,-12.6884
 L 72.8131,-12.9464 L 72.5729,-13.2366 L 72.3711,-13.5547 L 72.2107,-13.8956 L 72.0942,-14.2539 L 72.0237,-14.624
 L 72,-15 L 72.0237,-15.376 L 72.0942,-15.7461 L 72.2107,-16.1044 L 72.3711,-16.4453 L 72.5729,-16.7634
 L 72.8131,-17.0536 L 73.0877,-17.3115 L 73.3925,-17.533 L 73.7227,-17.7145 L 74.0729,-17.8532 L 74.4379,-17.9469
 L 74.8116,-17.9941 L 75.1884,-17.9941 L 75.5621,-17.9469 L 75.927,-17.8532 L 76.2773,-17.7145 L 76.6075,-17.533
 L 76.9123,-17.3115 L 77.1869,-17.0536 L 77.427,-16.7634 L 77.6289,-16.4453 L 77.7893,-16.1044 L 77.9057,-15.7461
 L 77.9763,-15.376 L 78,-15 L 77.9763,-14.624 L 77.9057,-14.2539 L 77.7893,-13.8956 L 77.6289,-13.5547
 L 77.427,-13.2366 L 77.1869,-12.9464 L 76.9123,-12.6884 L 76.6075,-12.467 L 76.2773,-12.2855 L 75.927,-12.1468
 L 75.5621,-12.0531 L 75.1884,-12.0059 z
M 59.8116,-12.0059 L 59.4379,-12.0531 L 59.0729,-12.1468 L 58.7227,-12.2855 L 58.3925,-12.467 L 58.0877,-12.6884
 L 57.8131,-12.9464 L 57.5729,-13.2366 L 57.3711,-13.5547 L 57.2107,-13.8956 L 57.0942,-14.2539 L 57.0237,-14.624
 L 57,-15 L 57.0237,-15.376 L 57.0942,-15.7461 L 57.2107,-16.1044 L 57.3711,-16.4453 L 57.5729,-16.7634
 L 57.8131,-17.0536 L 58.0877,-17.3115 L 58.3925,-17.533 L 58.7227,-17.7145 L 59.0729,-17.8532 L 59.4379,-17.9469
 L 59.8116,-17.9941 L 60.1884,-17.9941 L 60.5621,-17.9469 L 60.927,-17.8532 L 61.2773,-17.7145 L 61.6075,-17.533
 L 61.9123,-17.3115 L 62.1869,-17.0536 L 62.427,-16.7634 L 62.6289,-16.4453 L 62.7893,-16.1044 L 62.9057,-15.7461
 L 62.9763,-15.376 L 63,-15 L 62.9763,-14.624 L 62.9057,-14.2539 L 62.7893,-13.8956 L 62.6289,-13.5547
 L 62.427,-13.2366 L 62.1869,-12.9464 L 61.9123,-12.6884 L 61.6075,-12.467 L 61.2773,-12.2855 L 60.927,-12.1468
 L 60.5621,-12.0531 L 60.1884,-12.0059 z
M 44.8116,-12.0059 L 44.4379,-12.0531 L 44.0729,-12.1468 L 43.7227,-12.2855 L 43.3925,-12.467 L 43.0877,-12.6884
 L 42.8131,-12.9464 L 42.5729,-13.2366 L 42.3711,-13.5547 L 42.2107,-13.8956 L 42.0942,-14.2539 L 42.0237,-14.624
 L 42,-15 L 42.0237,-15.376 L 42.0942,-15.7461 L 42.2107,-16.1044 L 42.3711,-16.4453 L 42.5729,-16.7634
 L 42.8131,-17.0536 L 43.0877,-17.3115 L 43.3925,-17.533 L 43.7227,-17.7145 L 44.0729,-17.8532 L 44.4379,-17.9469
 L 44.8116,-17.9941 L 45.1884,-17.9941 L 45.5621,-17.9469 L 45.927,-17.8532 L 46.2773,-17.7145 L 46.6075,-17.533
 L 46.9123,-17.3115 L 47.1869,-17.0536 L 47.427,-16.7634 L 47.6289,-16.4453 L 47.7893,-16.1044 L 47.9057,-15.7461
 L 47.9763,-15.376 L 48,-15 L 47.9763,-14.624 L 47.9057,-14.2539 L 47.7893,-13.8956 L 47.6289,-13.5547
 L 47.427,-13.2366 L 47.1869,-12.9464 L 46.9123,-12.6884 L 46.6075,-12.467 L 46.2773,-12.2855 L 45.927,-12.1468
 L 45.5621,-12.0531 L 45.1884,-12.0059 z
M 29.8116,-12.0059 L 29.4379,-12.0531 L 29.0729,-12.1468 L 28.7227,-12.2855 L 28.3925,-12.467 L 28.0877,-12.6884
 L 27.8131,-12.9464 L 27.5729,-13.2366 L 27.3711,-13.5547 L 27.2107,-13.8956 L 27.0942,-14.2539 L 27.0237,-14.624
 L 27,-15 L 27.0237,-15.376 L 27.0942,-15.7461 L 27.2107,-16.1044 L 27.3711,-16.4453 L 27.5729,-16.7634
 L 27.8131,-17.0536 L 28.0877,-17.3115 L 28.3925,-17.533 L 28.7227,-17.7145 L 29.0729,-17.8532 L 29.4379,-17.9469
 L 29.8116,-17.9941 L 30.1884,-17.9941 L 30.5621,-17.9469 L 30.927,-17.8532 L 31.2773,-17.7145 L 31.6075,-17.533
 L 31.9123,-17.3115 L 32.1869,-17.0536 L 32.427,-16.7634 L 32.6289,-16.4453 L 32.7893,-16.1044 L 32.9057,-15.7461
 L 32.9763,-15.376 L 33,-15 L 32.9763,-14.624 L 32.9057,-14.2539 L 32.7893,-13.8956 L 32.6289,-13.5547
 L 32.427,-13.2366 L 32.1869,-12.9464 L 31.9123,-12.6884 L 31.6075,-12.467 L 31.2773,-12.2855 L 30.927,-12.1468
 L 30.5621,-12.0531 L 30.1884,-12.0059 z
M 14.8116,-12.0059 L 14.4379,-12.0531 L 14.0729,-12.1468 L 13.7227,-12.2855 L 13.3925,-12.467 L 13.0877,-12.6884
 L 12.8131,-12.9464 L 12.5729,-13.2366 L 12.3711,-13.5547 L 12.2107,-13.8956 L 12.0942,-14.2539 L 12.0237,-14.624
 L 12,-15 L 12.0237,-15.376 L 12.0942,-15.7461 L 12.2107,-16.1044 L 12.3711,-16.4453 L 12.5729,-16.7634
 L 12.8131,-17.0536 L 13.0877,-17.3115 L 13.3925,-17.533 L 13.7227,-17.7145 L 14.0729,-17.8532 L 14.4379,-17.9469
 L 14.8116,-17.9941 L 15.1884,-17.9941 L 15.5621,-17.9469 L 15.927,-17.8532 L 16.2773,-17.7145 L 16.6075,-17.533
 L 16.9123,-17.3115 L 17.1869,-17.0536 L 17.427,-16.7634 L 17.6289,-16.4453 L 17.7893,-16.1044 L 17.9057,-15.7461
 L 17.9763,-15.376 L 18,-15 L 17.9763,-14.624 L 17.9057,-14.2539 L 17.7893,-13.8956 L 17.6289,-13.5547
 L 17.427,-13.2366 L 17.1869,-12.9464 L 16.9123,-12.6884 L 16.6075,-12.467 L 16.2773,-12.2855 L 15.927,-12.1468
 L 15.5621,-12.0531 L 15.1884,-12.0059 z
" stroke="black" fill="lightgray" stroke-width="0.5"/>
</svg>
