<?xml version="1.0" standalone="no"?>
<!DOCTYPE svg PUBLIC "-//W3C//DTD SVG 1.1//EN" "http://www.w3.org/Graphics/SVG/1.1/DTD/svg11.dtd">
<svg width="208mm" height="12mm" viewBox="-104 -6 208 12" xmlns="http://www.w3.org/2000/svg" version="1.1">
<title>OpenSCAD Model</title>
<path d="
M 99.7435,5.84291 L 100.909,5.38153 L 101.923,4.64484 L 102.722,3.67914 L 103.255,2.54509 L 103.5,1
 L 103.5,-1 L 103.343,-2.24345 L 102.882,-3.40877 L 102.145,-4.42273 L 101.179,-5.22163 L 100.045,-5.75528
 L 98.5,-6 L -98.5,-6 L -99.7435,-5.84291 L -100.909,-5.38153 L -101.923,-4.64484 L -102.722,-3.67914
 L -103.255,-2.54509 L -103.5,-1 L -103.5,1 L -103.343,2.24345 L -102.882,3.40877 L -102.145,4.42273
 L -101.179,5.22163 L -100.045,5.75528 L -98.5,6 L 98.5,6 z
M -8.06213,2.94685 L -8.77733,2.71448 L -9.41226,2.31154 L -9.92705,1.76335 L -10.2893,1.10437 L -10.4763,0.375992
 L -10.4763,-0.375992 L -10.2893,-1.10437 L -9.92705,-1.76335 L -9.41226,-2.31154 L -8.77733,-2.71448 L -8.06213,-2.94685
 L -7.31161,-2.99408 L -6.57294,-2.85316 L -5.89252,-2.53297 L -5.31308,-2.05363 L -4.87108,-1.44525 L -4.59424,-0.746063
 L -4.5,-0 L -4.59424,0.746063 L -4.87108,1.44525 L -5.31308,2.05363 L -5.89252,2.53297 L -6.57294,2.85316
 L -7.31161,2.99408 z
M -98.0621,2.94685 L -98.7773,2.71448 L -99.4123,2.31154 L -99.927,1.76335 L -100.289,1.10437 L -100.476,0.375992
 L -100.476,-0.375992 L -100.289,-1.10437 L -99.927,-1.76335 L -99.4123,-2.31154 L -98.7773,-2.71448 L -98.0621,-2.94685
 L -97.3116,-2.99408 L -96.573,-2.85316 L -95.8925,-2.53297 L -95.3131,-2.05363 L -94.8711,-1.44525 L -94.5943,-0.746063
 L -94.5,-0 L -94.5943,0.746063 L -94.8711,1.44525 L -95.3131,2.05363 L -95.8925,2.53297 L -96.573,2.85316
 L -97.3116,2.99408 z
M -53.0621,2.94685 L -53.7773,2.71448 L -54.4123,2.31154 L -54.927,1.76335 L -55.2893,1.10437 L -55.4763,0.375992
 L -55.4763,-0.375992 L -55.2893,-1.10437 L -54.927,-1.76335 L -54.4123,-2.31154 L -53.7773,-2.71448 L -53.0621,-2.94685
 L -52.3116,-2.99408 L -51.5729,-2.85316 L -50.8925,-2.53297 L -50.3131,-2.05363 L -49.8711,-1.44525 L -49.5942,-0.746063
 L -49.5,-0 L -49.5942,0.746063 L -49.8711,1.44525 L -50.3131,2.05363 L -50.8925,2.53297 L -51.5729,2.85316
 L -52.3116,2.99408 z
M -35.8925,-2.53297 L -35.3131,-2.05363 L -34.8711,-1.44525 L -34.5942,-0.746063 L -34.5,-0 L -34.5942,0.746063
 L -34.8711,1.44525 L -35.3131,2.05363 L -35.8925,2.53297 L -36.5729,2.85316 L -37.3116,2.99408 L -38.0621,2.94685
 L -38.7773,2.71448 L -39.4123,2.31154 L -39.927,1.76335 L -40.2893,1.10437 L -40.4763,0.375992 L -40.4763,-0.375992
 L -40.2893,-1.10437 L -39.927,-1.76335 L -39.4123,-2.31154 L -38.7773,-2.71448 L -38.0621,-2.94685 L -37.3116,-2.99408
 L -36.5729,-2.85316 z
M -83.0621,2.94685 L -83.7773,2.71448 L -84.4123,2.31154 L -84.927,1.76335 L -85.2893,1.10437 L -85.4763,0.375992
 L -85.4763,-0.375992 L -85.2893,-1.10437 L -84.927,-1.76335 L -84.4123,-2.31154 L -83.7773,-2.71448 L -83.0621,-2.94685
 L -82.3116,-2.99408 L -81.573,-2.85316 L -80.8925,-2.53297 L -80.3131,-2.05363 L -79.8711,-1.44525 L -79.5943,-0.746063
 L -79.5,-0 L -79.5943,0.746063 L -79.8711,1.44525 L -80.3131,2.05363 L -80.8925,2.53297 L -81.573,2.85316
 L -82.3116,2.99408 z
M 81.9379,2.94685 L 81.2227,2.71448 L 80.5877,2.31154 L 80.073,1.76335 L 79.7107,1.10437 L 79.5237,0.375992
 L 79.5237,-0.375992 L 79.7107,-1.10437 L 80.073,-1.76335 L 80.5877,-2.31154 L 81.2227,-2.71448 L 81.9379,-2.94685
 L 82.6884,-2.99408 L 83.427,-2.85316 L 84.1075,-2.53297 L 84.6869,-2.05363 L 85.1289,-1.44525 L 85.4057,-0.746063
 L 85.5,-0 L 85.4057,0.746063 L 85.1289,1.44525 L 84.6869,2.05363 L 84.1075,2.53297 L 83.427,2.85316
 L 82.6884,2.99408 z
M 96.9379,2.94685 L 96.2227,2.71448 L 95.5877,2.31154 L 95.073,1.76335 L 94.7107,1.10437 L 94.5237,0.375992
 L 94.5237,-0.375992 L 94.7107,-1.10437 L 95.073,-1.76335 L 95.5877,-2.31154 L 96.2227,-2.71448 L 96.9379,-2.94685
 L 97.6884,-2.99408 L 98.427,-2.85316 L 99.1075,-2.53297 L 99.6869,-2.05363 L 100.129,-1.44525 L 100.406,-0.746063
 L 100.5,-0 L 100.406,0.746063 L 100.129,1.44525 L 99.6869,2.05363 L 99.1075,2.53297 L 98.427,2.85316
 L 97.6884,2.99408 z
M 66.9379,2.94685 L 66.2227,2.71448 L 65.5877,2.31154 L 65.073,1.76335 L 64.7107,1.10437 L 64.5237,0.375992
 L 64.5237,-0.375992 L 64.7107,-1.10437 L 65.073,-1.76335 L 65.5877,-2.31154 L 66.2227,-2.71448 L 66.9379,-2.94685
 L 67.6884,-2.99408 L 68.427,-2.85316 L 69.1075,-2.53297 L 69.6869,-2.05363 L 70.1289,-1.44525 L 70.4057,-0.746063
 L 70.5,-0 L 70.4057,0.746063 L 70.1289,1.44525 L 69.6869,2.05363 L 69.1075,2.53297 L 68.427,2.85316
 L 67.6884,2.99408 z
M -68.0621,2.94685 L -68.7773,2.71448 L -69.4123,2.31154 L -69.927,1.76335 L -70.2893,1.10437 L -70.4763,0.375992
 L -70.4763,-0.375992 L -70.2893,-1.10437 L -69.927,-1.76335 L -69.4123,-2.31154 L -68.7773,-2.71448 L -68.0621,-2.94685
 L -67.3116,-2.99408 L -66.573,-2.85316 L -65.8925,-2.53297 L -65.3131,-2.05363 L -64.8711,-1.44525 L -64.5943,-0.746063
 L -64.5,-0 L -64.5943,0.746063 L -64.8711,1.44525 L -65.3131,2.05363 L -65.8925,2.53297 L -66.573,2.85316
 L -67.3116,2.99408 z
M 21.9379,2.94685 L 21.2227,2.71448 L 20.5877,2.31154 L 20.0729,1.76335 L 19.7107,1.10437 L 19.5237,0.375992
 L 19.5237,-0.375992 L 19.7107,-1.10437 L 20.0729,-1.76335 L 20.5877,-2.31154 L 21.2227,-2.71448 L 21.9379,-2.94685
 L 22.6884,-2.99408 L 23.427,-2.85316 L 24.1075,-2.53297 L 24.6869,-2.05363 L 25.1289,-1.44525 L 25.4057,-0.746063
 L 25.5,-0 L 25.4057,0.746063 L 25.1289,1.44525 L 24.6869,2.05363 L 24.1075,2.53297 L 23.427,2.85316
 L 22.6884,2.99408 z
M 6.93785,2.94685 L 6.22266,2.71448 L 5.58772,2.31154 L 5.07294,1.76335 L 4.71066,1.10437 L 4.52365,0.375992
 L 4.52365,-0.375992 L 4.71066,-1.10437 L 5.07294,-1.76335 L 5.58772,-2.31154 L 6.22266,-2.71448 L 6.93785,-2.94685
 L 7.68837,-2.99408 L 8.42705,-2.85316 L 9.10747,-2.53297 L 9.6869,-2.05363 L 10.1289,-1.44525 L 10.4057,-0.746063
 L 10.5,-0 L 10.4057,0.746063 L 10.1289,1.44525 L 9.6869,2.05363 L 9.10747,2.53297 L 8.42705,2.85316
 L 7.68837,2.99408 z
M 36.9379,2.94685 L 36.2227,2.71448 L 35.5877,2.31154 L 35.0729,1.76335 L 34.7107,1.10437 L 34.5237,0.375992
 L 34.5237,-0.375992 L 34.7107,-1.10437 L 35.0729,-1.76335 L 35.5877,-2.31154 L 36.2227,-2.71448 L 36.9379,-2.94685
 L 37.6884,-2.99408 L 38.427,-2.85316 L 39.1075,-2.53297 L 39.6869,-2.05363 L 40.1289,-1.44525 L 40.4057,-0.746063
 L 40.5,-0 L 40.4057,0.746063 L 40.1289,1.44525 L 39.6869,2.05363 L 39.1075,2.53297 L 38.427,2.85316
 L 37.6884,2.99408 z
M 51.9379,2.94685 L 51.2227,2.71448 L 50.5877,2.31154 L 50.0729,1.76335 L 49.7107,1.10437 L 49.5237,0.375992
 L 49.5237,-0.375992 L 49.7107,-1.10437 L 50.0729,-1.76335 L 50.5877,-2.31154 L 51.2227,-2.71448 L 51.9379,-2.94685
 L 52.6884,-2.99408 L 53.427,-2.85316 L 54.1075,-2.53297 L 54.6869,-2.05363 L 55.1289,-1.44525 L 55.4057,-0.746063
 L 55.5,-0 L 55.4057,0.746063 L 55.1289,1.44525 L 54.6869,2.05363 L 54.1075,2.53297 L 53.427,2.85316
 L 52.6884,2.99408 z
M -23.0621,2.94685 L -23.7773,2.71448 L -24.4123,2.31154 L -24.927,1.76335 L -25.2893,1.10437 L -25.4763,0.375992
 L -25.4763,-0.375992 L -25.2893,-1.10437 L -24.927,-1.76335 L -24.4123,-2.31154 L -23.7773,-2.71448 L -23.0621,-2.94685
 L -22.3116,-2.99408 L -21.5729,-2.85316 L -20.8925,-2.53297 L -20.3131,-2.05363 L -19.8711,-1.44525 L -19.5942,-0.746063
 L -19.5,-0 L -19.5942,0.746063 L -19.8711,1.44525 L -20.3131,2.05363 L -20.8925,2.53297 L -21.5729,2.85316
 L -22.3116,2.99408 z
" stroke="black" fill="lightgray" stroke-width="0.5"/>
</svg>
