  0
SECTION
  2
BLOCKS
  0
ENDSEC
  0
SECTION
  2
ENTITIES
  0
LINE
  8
0
 10
226
 20
9.02962
 11
226.314
 21
9.00986
  0
LINE
  8
0
 10
226.314
 20
9.00986
 11
227.545
 21
9.24471
  0
LINE
  8
0
 10
227.545
 20
9.24471
 11
228.679
 21
9.77835
  0
LINE
  8
0
 10
228.679
 20
9.77835
 11
229.645
 21
10.5773
  0
LINE
  8
0
 10
229.645
 20
10.5773
 11
230.382
 21
11.5912
  0
LINE
  8
0
 10
230.382
 20
11.5912
 11
230.843
 21
12.7565
  0
LINE
  8
0
 10
230.843
 20
12.7565
 11
231
 21
14
  0
LINE
  8
0
 10
231
 20
14
 11
231
 21
46
  0
LINE
  8
0
 10
231
 20
46
 11
230.843
 21
47.2434
  0
LINE
  8
0
 10
230.843
 20
47.2434
 11
230.382
 21
48.4088
  0
LINE
  8
0
 10
230.382
 20
48.4088
 11
229.645
 21
49.4227
  0
LINE
  8
0
 10
229.645
 20
49.4227
 11
228.679
 21
50.2216
  0
LINE
  8
0
 10
228.679
 20
50.2216
 11
227.545
 21
50.7553
  0
LINE
  8
0
 10
227.545
 20
50.7553
 11
226.314
 21
50.9901
  0
LINE
  8
0
 10
226.314
 20
50.9901
 11
226
 21
50.9704
  0
LINE
  8
0
 10
226
 20
50.9704
 11
226
 21
51
  0
LINE
  8
0
 10
226
 20
51
 11
14
 21
51
  0
LINE
  8
0
 10
14
 20
51
 11
14
 21
50.9704
  0
LINE
  8
0
 10
14
 20
50.9704
 11
13.0631
 21
50.9114
  0
LINE
  8
0
 10
13.0631
 20
50.9114
 11
11.8711
 21
50.5241
  0
LINE
  8
0
 10
11.8711
 20
50.5241
 11
10.8129
 21
49.8526
  0
LINE
  8
0
 10
10.8129
 20
49.8526
 11
9.95491
 21
48.9389
  0
LINE
  8
0
 10
9.95491
 20
48.9389
 11
9.3511
 21
47.8406
  0
LINE
  8
0
 10
9.3511
 20
47.8406
 11
9.03941
 21
46.6267
  0
LINE
  8
0
 10
9.03941
 20
46.6267
 11
9.03941
 21
46
  0
LINE
  8
0
 10
9.03941
 20
46
 11
9
 21
46
  0
LINE
  8
0
 10
9
 20
46
 11
9
 21
14
  0
LINE
  8
0
 10
9
 20
14
 11
9.03941
 21
14
  0
LINE
  8
0
 10
9.03941
 20
14
 11
9.03941
 21
13.3733
  0
LINE
  8
0
 10
9.03941
 20
13.3733
 11
9.3511
 21
12.1594
  0
LINE
  8
0
 10
9.3511
 20
12.1594
 11
9.95491
 21
11.0611
  0
LINE
  8
0
 10
9.95491
 20
11.0611
 11
10.8129
 21
10.1474
  0
LINE
  8
0
 10
10.8129
 20
10.1474
 11
11.8711
 21
9.47586
  0
LINE
  8
0
 10
11.8711
 20
9.47586
 11
13.0631
 21
9.08856
  0
LINE
  8
0
 10
13.0631
 20
9.08856
 11
14
 21
9.02962
  0
LINE
  8
0
 10
14
 20
9.02962
 11
14
 21
9
  0
LINE
  8
0
 10
14
 20
9
 11
226
 21
9
  0
LINE
  8
0
 10
226
 20
9
 11
226
 21
9.02962
  0
ENDSEC
  0
SECTION
  2
OBJECTS
  0
DICTIONARY
  0
ENDSEC
  0
EOF
