<?xml version="1.0" standalone="no"?>
<!DOCTYPE svg PUBLIC "-//W3C//DTD SVG 1.1//EN" "http://www.w3.org/Graphics/SVG/1.1/DTD/svg11.dtd">
<svg width="222mm" height="42mm" viewBox="-111 -21 222 42" xmlns="http://www.w3.org/2000/svg" version="1.1">
<title>OpenSCAD Model</title>
<path d="
M 107.243,20.8429 L 108.409,20.3815 L 109.423,19.6448 L 110.222,18.6791 L 110.755,17.5451 L 111,16
 L 111,-16 L 110.843,-17.2435 L 110.382,-18.4088 L 109.645,-19.4227 L 108.679,-20.2216 L 107.545,-20.7553
 L 106,-21 L -106,-21 L -107.243,-20.8429 L -108.409,-20.3815 L -109.423,-19.6448 L -110.222,-18.6791
 L -110.755,-17.5451 L -111,-16 L -111,16 L -110.843,17.2435 L -110.382,18.4088 L -109.645,19.4227
 L -108.679,20.2216 L -107.545,20.7553 L -106,21 L 106,21 z
M 29.4379,-12.0531 L 28.7227,-12.2855 L 28.0877,-12.6884 L 27.5729,-13.2366 L 27.2107,-13.8956 L 27.0237,-14.624
 L 27.0237,-15.376 L 27.2107,-16.1044 L 27.5729,-16.7634 L 28.0877,-17.3115 L 28.7227,-17.7145 L 29.4379,-17.9469
 L 30.1884,-17.9941 L 30.927,-17.8532 L 31.6075,-17.533 L 32.1869,-17.0536 L 32.6289,-16.4453 L 32.9057,-15.7461
 L 33,-15 L 32.9057,-14.2539 L 32.6289,-13.5547 L 32.1869,-12.9464 L 31.6075,-12.467 L 30.927,-12.1468
 L 30.1884,-12.0059 z
M -58.3925,-17.533 L -57.8131,-17.0536 L -57.3711,-16.4453 L -57.0942,-15.7461 L -57,-15 L -57.0942,-14.2539
 L -57.3711,-13.5547 L -57.8131,-12.9464 L -58.3925,-12.467 L -59.0729,-12.1468 L -59.8116,-12.0059 L -60.5621,-12.0531
 L -61.2773,-12.2855 L -61.9123,-12.6884 L -62.427,-13.2366 L -62.7893,-13.8956 L -62.9763,-14.624 L -62.9763,-15.376
 L -62.7893,-16.1044 L -62.427,-16.7634 L -61.9123,-17.3115 L -61.2773,-17.7145 L -60.5621,-17.9469 L -59.8116,-17.9941
 L -59.0729,-17.8532 z
M -75.5621,-12.0531 L -76.2773,-12.2855 L -76.9123,-12.6884 L -77.427,-13.2366 L -77.7893,-13.8956 L -77.9763,-14.624
 L -77.9763,-15.376 L -77.7893,-16.1044 L -77.427,-16.7634 L -76.9123,-17.3115 L -76.2773,-17.7145 L -75.5621,-17.9469
 L -74.8116,-17.9941 L -74.073,-17.8532 L -73.3925,-17.533 L -72.8131,-17.0536 L -72.3711,-16.4453 L -72.0943,-15.7461
 L -72,-15 L -72.0943,-14.2539 L -72.3711,-13.5547 L -72.8131,-12.9464 L -73.3925,-12.467 L -74.073,-12.1468
 L -74.8116,-12.0059 z
M 14.4379,-12.0531 L 13.7227,-12.2855 L 13.0877,-12.6884 L 12.5729,-13.2366 L 12.2107,-13.8956 L 12.0237,-14.624
 L 12.0237,-15.376 L 12.2107,-16.1044 L 12.5729,-16.7634 L 13.0877,-17.3115 L 13.7227,-17.7145 L 14.4379,-17.9469
 L 15.1884,-17.9941 L 15.927,-17.8532 L 16.6075,-17.533 L 17.1869,-17.0536 L 17.6289,-16.4453 L 17.9057,-15.7461
 L 18,-15 L 17.9057,-14.2539 L 17.6289,-13.5547 L 17.1869,-12.9464 L 16.6075,-12.467 L 15.927,-12.1468
 L 15.1884,-12.0059 z
M 59.4379,-12.0531 L 58.7227,-12.2855 L 58.0877,-12.6884 L 57.5729,-13.2366 L 57.2107,-13.8956 L 57.0237,-14.624
 L 57.0237,-15.376 L 57.2107,-16.1044 L 57.5729,-16.7634 L 58.0877,-17.3115 L 58.7227,-17.7145 L 59.4379,-17.9469
 L 60.1884,-17.9941 L 60.927,-17.8532 L 61.6075,-17.533 L 62.1869,-17.0536 L 62.6289,-16.4453 L 62.9057,-15.7461
 L 63,-15 L 62.9057,-14.2539 L 62.6289,-13.5547 L 62.1869,-12.9464 L 61.6075,-12.467 L 60.927,-12.1468
 L 60.1884,-12.0059 z
M 76.6075,-17.533 L 77.1869,-17.0536 L 77.6289,-16.4453 L 77.9057,-15.7461 L 78,-15 L 77.9057,-14.2539
 L 77.6289,-13.5547 L 77.1869,-12.9464 L 76.6075,-12.467 L 75.927,-12.1468 L 75.1884,-12.0059 L 74.4379,-12.0531
 L 73.7227,-12.2855 L 73.0877,-12.6884 L 72.573,-13.2366 L 72.2107,-13.8956 L 72.0237,-14.624 L 72.0237,-15.376
 L 72.2107,-16.1044 L 72.573,-16.7634 L 73.0877,-17.3115 L 73.7227,-17.7145 L 74.4379,-17.9469 L 75.1884,-17.9941
 L 75.927,-17.8532 z
M -105.562,-12.0531 L -106.277,-12.2855 L -106.912,-12.6884 L -107.427,-13.2366 L -107.789,-13.8956 L -107.976,-14.624
 L -107.976,-15.376 L -107.789,-16.1044 L -107.427,-16.7634 L -106.912,-17.3115 L -106.277,-17.7145 L -105.562,-17.9469
 L -104.812,-17.9941 L -104.073,-17.8532 L -103.393,-17.533 L -102.813,-17.0536 L -102.371,-16.4453 L -102.094,-15.7461
 L -102,-15 L -102.094,-14.2539 L -102.371,-13.5547 L -102.813,-12.9464 L -103.393,-12.467 L -104.073,-12.1468
 L -104.812,-12.0059 z
M 104.438,-12.0531 L 103.723,-12.2855 L 103.088,-12.6884 L 102.573,-13.2366 L 102.211,-13.8956 L 102.024,-14.624
 L 102.024,-15.376 L 102.211,-16.1044 L 102.573,-16.7634 L 103.088,-17.3115 L 103.723,-17.7145 L 104.438,-17.9469
 L 105.188,-17.9941 L 105.927,-17.8532 L 106.607,-17.533 L 107.187,-17.0536 L 107.629,-16.4453 L 107.906,-15.7461
 L 108,-15 L 107.906,-14.2539 L 107.629,-13.5547 L 107.187,-12.9464 L 106.607,-12.467 L 105.927,-12.1468
 L 105.188,-12.0059 z
M 89.4379,-12.0531 L 88.7227,-12.2855 L 88.0877,-12.6884 L 87.573,-13.2366 L 87.2107,-13.8956 L 87.0237,-14.624
 L 87.0237,-15.376 L 87.2107,-16.1044 L 87.573,-16.7634 L 88.0877,-17.3115 L 88.7227,-17.7145 L 89.4379,-17.9469
 L 90.1884,-17.9941 L 90.927,-17.8532 L 91.6075,-17.533 L 92.1869,-17.0536 L 92.6289,-16.4453 L 92.9057,-15.7461
 L 93,-15 L 92.9057,-14.2539 L 92.6289,-13.5547 L 92.1869,-12.9464 L 91.6075,-12.467 L 90.927,-12.1468
 L 90.1884,-12.0059 z
M 44.4379,-12.0531 L 43.7227,-12.2855 L 43.0877,-12.6884 L 42.5729,-13.2366 L 42.2107,-13.8956 L 42.0237,-14.624
 L 42.0237,-15.376 L 42.2107,-16.1044 L 42.5729,-16.7634 L 43.0877,-17.3115 L 43.7227,-17.7145 L 44.4379,-17.9469
 L 45.1884,-17.9941 L 45.927,-17.8532 L 46.6075,-17.533 L 47.1869,-17.0536 L 47.6289,-16.4453 L 47.9057,-15.7461
 L 48,-15 L 47.9057,-14.2539 L 47.6289,-13.5547 L 47.1869,-12.9464 L 46.6075,-12.467 L 45.927,-12.1468
 L 45.1884,-12.0059 z
M -0.562134,-12.0531 L -1.27733,-12.2855 L -1.91226,-12.6884 L -2.42705,-13.2366 L -2.78932,-13.8956 L -2.97633,-14.624
 L -2.97633,-15.376 L -2.78932,-16.1044 L -2.42705,-16.7634 L -1.91226,-17.3115 L -1.27733,-17.7145 L -0.562134,-17.9469
 L 0.18837,-17.9941 L 0.927048,-17.8532 L 1.60747,-17.533 L 2.1869,-17.0536 L 2.62891,-16.4453 L 2.90575,-15.7461
 L 3,-15 L 2.90575,-14.2539 L 2.62891,-13.5547 L 2.1869,-12.9464 L 1.60747,-12.467 L 0.927048,-12.1468
 L 0.18837,-12.0059 z
M -90.5621,-12.0531 L -91.2773,-12.2855 L -91.9123,-12.6884 L -92.427,-13.2366 L -92.7893,-13.8956 L -92.9763,-14.624
 L -92.9763,-15.376 L -92.7893,-16.1044 L -92.427,-16.7634 L -91.9123,-17.3115 L -91.2773,-17.7145 L -90.5621,-17.9469
 L -89.8116,-17.9941 L -89.073,-17.8532 L -88.3925,-17.533 L -87.8131,-17.0536 L -87.3711,-16.4453 L -87.0943,-15.7461
 L -87,-15 L -87.0943,-14.2539 L -87.3711,-13.5547 L -87.8131,-12.9464 L -88.3925,-12.467 L -89.073,-12.1468
 L -89.8116,-12.0059 z
M -45.5621,-12.0531 L -46.2773,-12.2855 L -46.9123,-12.6884 L -47.427,-13.2366 L -47.7893,-13.8956 L -47.9763,-14.624
 L -47.9763,-15.376 L -47.7893,-16.1044 L -47.427,-16.7634 L -46.9123,-17.3115 L -46.2773,-17.7145 L -45.5621,-17.9469
 L -44.8116,-17.9941 L -44.0729,-17.8532 L -43.3925,-17.533 L -42.8131,-17.0536 L -42.3711,-16.4453 L -42.0942,-15.7461
 L -42,-15 L -42.0942,-14.2539 L -42.3711,-13.5547 L -42.8131,-12.9464 L -43.3925,-12.467 L -44.0729,-12.1468
 L -44.8116,-12.0059 z
M -30.5621,-12.0531 L -31.2773,-12.2855 L -31.9123,-12.6884 L -32.427,-13.2366 L -32.7893,-13.8956 L -32.9763,-14.624
 L -32.9763,-15.376 L -32.7893,-16.1044 L -32.427,-16.7634 L -31.9123,-17.3115 L -31.2773,-17.7145 L -30.5621,-17.9469
 L -29.8116,-17.9941 L -29.0729,-17.8532 L -28.3925,-17.533 L -27.8131,-17.0536 L -27.3711,-16.4453 L -27.0942,-15.7461
 L -27,-15 L -27.0942,-14.2539 L -27.3711,-13.5547 L -27.8131,-12.9464 L -28.3925,-12.467 L -29.0729,-12.1468
 L -29.8116,-12.0059 z
M -13.3925,-17.533 L -12.8131,-17.0536 L -12.3711,-16.4453 L -12.0942,-15.7461 L -12,-15 L -12.0942,-14.2539
 L -12.3711,-13.5547 L -12.8131,-12.9464 L -13.3925,-12.467 L -14.0729,-12.1468 L -14.8116,-12.0059 L -15.5621,-12.0531
 L -16.2773,-12.2855 L -16.9123,-12.6884 L -17.427,-13.2366 L -17.7893,-13.8956 L -17.9763,-14.624 L -17.9763,-15.376
 L -17.7893,-16.1044 L -17.427,-16.7634 L -16.9123,-17.3115 L -16.2773,-17.7145 L -15.5621,-17.9469 L -14.8116,-17.9941
 L -14.0729,-17.8532 z
M -0.562134,2.94685 L -1.27733,2.71448 L -1.91226,2.31154 L -2.42705,1.76335 L -2.78932,1.10437 L -2.97633,0.375992
 L -2.97633,-0.375992 L -2.78932,-1.10437 L -2.42705,-1.76335 L -1.91226,-2.31154 L -1.27733,-2.71448 L -0.562134,-2.94685
 L 0.18837,-2.99408 L 0.927048,-2.85316 L 1.60747,-2.53297 L 2.1869,-2.05363 L 2.62891,-1.44525 L 2.90575,-0.746063
 L 3,-0 L 2.90575,0.746063 L 2.62891,1.44525 L 2.1869,2.05363 L 1.60747,2.53297 L 0.927048,2.85316
 L 0.18837,2.99408 z
M 59.4379,2.94685 L 58.7227,2.71448 L 58.0877,2.31154 L 57.5729,1.76335 L 57.2107,1.10437 L 57.0237,0.375992
 L 57.0237,-0.375992 L 57.2107,-1.10437 L 57.5729,-1.76335 L 58.0877,-2.31154 L 58.7227,-2.71448 L 59.4379,-2.94685
 L 60.1884,-2.99408 L 60.927,-2.85316 L 61.6075,-2.53297 L 62.1869,-2.05363 L 62.6289,-1.44525 L 62.9057,-0.746063
 L 63,-0 L 62.9057,0.746063 L 62.6289,1.44525 L 62.1869,2.05363 L 61.6075,2.53297 L 60.927,2.85316
 L 60.1884,2.99408 z
M 44.4379,2.94685 L 43.7227,2.71448 L 43.0877,2.31154 L 42.5729,1.76335 L 42.2107,1.10437 L 42.0237,0.375992
 L 42.0237,-0.375992 L 42.2107,-1.10437 L 42.5729,-1.76335 L 43.0877,-2.31154 L 43.7227,-2.71448 L 44.4379,-2.94685
 L 45.1884,-2.99408 L 45.927,-2.85316 L 46.6075,-2.53297 L 47.1869,-2.05363 L 47.6289,-1.44525 L 47.9057,-0.746063
 L 48,-0 L 47.9057,0.746063 L 47.6289,1.44525 L 47.1869,2.05363 L 46.6075,2.53297 L 45.927,2.85316
 L 45.1884,2.99408 z
M 29.4379,2.94685 L 28.7227,2.71448 L 28.0877,2.31154 L 27.5729,1.76335 L 27.2107,1.10437 L 27.0237,0.375992
 L 27.0237,-0.375992 L 27.2107,-1.10437 L 27.5729,-1.76335 L 28.0877,-2.31154 L 28.7227,-2.71448 L 29.4379,-2.94685
 L 30.1884,-2.99408 L 30.927,-2.85316 L 31.6075,-2.53297 L 32.1869,-2.05363 L 32.6289,-1.44525 L 32.9057,-0.746063
 L 33,-0 L 32.9057,0.746063 L 32.6289,1.44525 L 32.1869,2.05363 L 31.6075,2.53297 L 30.927,2.85316
 L 30.1884,2.99408 z
M -15.5621,2.94685 L -16.2773,2.71448 L -16.9123,2.31154 L -17.427,1.76335 L -17.7893,1.10437 L -17.9763,0.375992
 L -17.9763,-0.375992 L -17.7893,-1.10437 L -17.427,-1.76335 L -16.9123,-2.31154 L -16.2773,-2.71448 L -15.5621,-2.94685
 L -14.8116,-2.99408 L -14.0729,-2.85316 L -13.3925,-2.53297 L -12.8131,-2.05363 L -12.3711,-1.44525 L -12.0942,-0.746063
 L -12,-0 L -12.0942,0.746063 L -12.3711,1.44525 L -12.8131,2.05363 L -13.3925,2.53297 L -14.0729,2.85316
 L -14.8116,2.99408 z
M 74.4379,2.94685 L 73.7227,2.71448 L 73.0877,2.31154 L 72.573,1.76335 L 72.2107,1.10437 L 72.0237,0.375992
 L 72.0237,-0.375992 L 72.2107,-1.10437 L 72.573,-1.76335 L 73.0877,-2.31154 L 73.7227,-2.71448 L 74.4379,-2.94685
 L 75.1884,-2.99408 L 75.927,-2.85316 L 76.6075,-2.53297 L 77.1869,-2.05363 L 77.6289,-1.44525 L 77.9057,-0.746063
 L 78,-0 L 77.9057,0.746063 L 77.6289,1.44525 L 77.1869,2.05363 L 76.6075,2.53297 L 75.927,2.85316
 L 75.1884,2.99408 z
M -90.5621,2.94685 L -91.2773,2.71448 L -91.9123,2.31154 L -92.427,1.76335 L -92.7893,1.10437 L -92.9763,0.375992
 L -92.9763,-0.375992 L -92.7893,-1.10437 L -92.427,-1.76335 L -91.9123,-2.31154 L -91.2773,-2.71448 L -90.5621,-2.94685
 L -89.8116,-2.99408 L -89.073,-2.85316 L -88.3925,-2.53297 L -87.8131,-2.05363 L -87.3711,-1.44525 L -87.0943,-0.746063
 L -87,-0 L -87.0943,0.746063 L -87.3711,1.44525 L -87.8131,2.05363 L -88.3925,2.53297 L -89.073,2.85316
 L -89.8116,2.99408 z
M -75.5621,2.94685 L -76.2773,2.71448 L -76.9123,2.31154 L -77.427,1.76335 L -77.7893,1.10437 L -77.9763,0.375992
 L -77.9763,-0.375992 L -77.7893,-1.10437 L -77.427,-1.76335 L -76.9123,-2.31154 L -76.2773,-2.71448 L -75.5621,-2.94685
 L -74.8116,-2.99408 L -74.073,-2.85316 L -73.3925,-2.53297 L -72.8131,-2.05363 L -72.3711,-1.44525 L -72.0943,-0.746063
 L -72,-0 L -72.0943,0.746063 L -72.3711,1.44525 L -72.8131,2.05363 L -73.3925,2.53297 L -74.073,2.85316
 L -74.8116,2.99408 z
M 89.4379,2.94685 L 88.7227,2.71448 L 88.0877,2.31154 L 87.573,1.76335 L 87.2107,1.10437 L 87.0237,0.375992
 L 87.0237,-0.375992 L 87.2107,-1.10437 L 87.573,-1.76335 L 88.0877,-2.31154 L 88.7227,-2.71448 L 89.4379,-2.94685
 L 90.1884,-2.99408 L 90.927,-2.85316 L 91.6075,-2.53297 L 92.1869,-2.05363 L 92.6289,-1.44525 L 92.9057,-0.746063
 L 93,-0 L 92.9057,0.746063 L 92.6289,1.44525 L 92.1869,2.05363 L 91.6075,2.53297 L 90.927,2.85316
 L 90.1884,2.99408 z
M 14.4379,2.94685 L 13.7227,2.71448 L 13.0877,2.31154 L 12.5729,1.76335 L 12.2107,1.10437 L 12.0237,0.375992
 L 12.0237,-0.375992 L 12.2107,-1.10437 L 12.5729,-1.76335 L 13.0877,-2.31154 L 13.7227,-2.71448 L 14.4379,-2.94685
 L 15.1884,-2.99408 L 15.927,-2.85316 L 16.6075,-2.53297 L 17.1869,-2.05363 L 17.6289,-1.44525 L 17.9057,-0.746063
 L 18,-0 L 17.9057,0.746063 L 17.6289,1.44525 L 17.1869,2.05363 L 16.6075,2.53297 L 15.927,2.85316
 L 15.1884,2.99408 z
M -60.5621,2.94685 L -61.2773,2.71448 L -61.9123,2.31154 L -62.427,1.76335 L -62.7893,1.10437 L -62.9763,0.375992
 L -62.9763,-0.375992 L -62.7893,-1.10437 L -62.427,-1.76335 L -61.9123,-2.31154 L -61.2773,-2.71448 L -60.5621,-2.94685
 L -59.8116,-2.99408 L -59.0729,-2.85316 L -58.3925,-2.53297 L -57.8131,-2.05363 L -57.3711,-1.44525 L -57.0942,-0.746063
 L -57,-0 L -57.0942,0.746063 L -57.3711,1.44525 L -57.8131,2.05363 L -58.3925,2.53297 L -59.0729,2.85316
 L -59.8116,2.99408 z
M -105.562,2.94685 L -106.277,2.71448 L -106.912,2.31154 L -107.427,1.76335 L -107.789,1.10437 L -107.976,0.375992
 L -107.976,-0.375992 L -107.789,-1.10437 L -107.427,-1.76335 L -106.912,-2.31154 L -106.277,-2.71448 L -105.562,-2.94685
 L -104.812,-2.99408 L -104.073,-2.85316 L -103.393,-2.53297 L -102.813,-2.05363 L -102.371,-1.44525 L -102.094,-0.746063
 L -102,-0 L -102.094,0.746063 L -102.371,1.44525 L -102.813,2.05363 L -103.393,2.53297 L -104.073,2.85316
 L -104.812,2.99408 z
M -30.5621,2.94685 L -31.2773,2.71448 L -31.9123,2.31154 L -32.427,1.76335 L -32.7893,1.10437 L -32.9763,0.375992
 L -32.9763,-0.375992 L -32.7893,-1.10437 L -32.427,-1.76335 L -31.9123,-2.31154 L -31.2773,-2.71448 L -30.5621,-2.94685
 L -29.8116,-2.99408 L -29.0729,-2.85316 L -28.3925,-2.53297 L -27.8131,-2.05363 L -27.3711,-1.44525 L -27.0942,-0.746063
 L -27,-0 L -27.0942,0.746063 L -27.3711,1.44525 L -27.8131,2.05363 L -28.3925,2.53297 L -29.0729,2.85316
 L -29.8116,2.99408 z
M 104.438,2.94685 L 103.723,2.71448 L 103.088,2.31154 L 102.573,1.76335 L 102.211,1.10437 L 102.024,0.375992
 L 102.024,-0.375992 L 102.211,-1.10437 L 102.573,-1.76335 L 103.088,-2.31154 L 103.723,-2.71448 L 104.438,-2.94685
 L 105.188,-2.99408 L 105.927,-2.85316 L 106.607,-2.53297 L 107.187,-2.05363 L 107.629,-1.44525 L 107.906,-0.746063
 L 108,-0 L 107.906,0.746063 L 107.629,1.44525 L 107.187,2.05363 L 106.607,2.53297 L 105.927,2.85316
 L 105.188,2.99408 z
M -45.5621,2.94685 L -46.2773,2.71448 L -46.9123,2.31154 L -47.427,1.76335 L -47.7893,1.10437 L -47.9763,0.375992
 L -47.9763,-0.375992 L -47.7893,-1.10437 L -47.427,-1.76335 L -46.9123,-2.31154 L -46.2773,-2.71448 L -45.5621,-2.94685
 L -44.8116,-2.99408 L -44.0729,-2.85316 L -43.3925,-2.53297 L -42.8131,-2.05363 L -42.3711,-1.44525 L -42.0942,-0.746063
 L -42,-0 L -42.0942,0.746063 L -42.3711,1.44525 L -42.8131,2.05363 L -43.3925,2.53297 L -44.0729,2.85316
 L -44.8116,2.99408 z
M -30.5621,17.9469 L -31.2773,17.7145 L -31.9123,17.3115 L -32.427,16.7634 L -32.7893,16.1044 L -32.9763,15.376
 L -32.9763,14.624 L -32.7893,13.8956 L -32.427,13.2366 L -31.9123,12.6884 L -31.2773,12.2855 L -30.5621,12.0531
 L -29.8116,12.0059 L -29.0729,12.1468 L -28.3925,12.467 L -27.8131,12.9464 L -27.3711,13.5547 L -27.0942,14.2539
 L -27,15 L -27.0942,15.7461 L -27.3711,16.4453 L -27.8131,17.0536 L -28.3925,17.533 L -29.0729,17.8532
 L -29.8116,17.9941 z
M 29.4379,17.9469 L 28.7227,17.7145 L 28.0877,17.3115 L 27.5729,16.7634 L 27.2107,16.1044 L 27.0237,15.376
 L 27.0237,14.624 L 27.2107,13.8956 L 27.5729,13.2366 L 28.0877,12.6884 L 28.7227,12.2855 L 29.4379,12.0531
 L 30.1884,12.0059 L 30.927,12.1468 L 31.6075,12.467 L 32.1869,12.9464 L 32.6289,13.5547 L 32.9057,14.2539
 L 33,15 L 32.9057,15.7461 L 32.6289,16.4453 L 32.1869,17.0536 L 31.6075,17.533 L 30.927,17.8532
 L 30.1884,17.9941 z
M -75.5621,17.9469 L -76.2773,17.7145 L -76.9123,17.3115 L -77.427,16.7634 L -77.7893,16.1044 L -77.9763,15.376
 L -77.9763,14.624 L -77.7893,13.8956 L -77.427,13.2366 L -76.9123,12.6884 L -76.2773,12.2855 L -75.5621,12.0531
 L -74.8116,12.0059 L -74.073,12.1468 L -73.3925,12.467 L -72.8131,12.9464 L -72.3711,13.5547 L -72.0943,14.2539
 L -72,15 L -72.0943,15.7461 L -72.3711,16.4453 L -72.8131,17.0536 L -73.3925,17.533 L -74.073,17.8532
 L -74.8116,17.9941 z
M -45.5621,17.9469 L -46.2773,17.7145 L -46.9123,17.3115 L -47.427,16.7634 L -47.7893,16.1044 L -47.9763,15.376
 L -47.9763,14.624 L -47.7893,13.8956 L -47.427,13.2366 L -46.9123,12.6884 L -46.2773,12.2855 L -45.5621,12.0531
 L -44.8116,12.0059 L -44.0729,12.1468 L -43.3925,12.467 L -42.8131,12.9464 L -42.3711,13.5547 L -42.0942,14.2539
 L -42,15 L -42.0942,15.7461 L -42.3711,16.4453 L -42.8131,17.0536 L -43.3925,17.533 L -44.0729,17.8532
 L -44.8116,17.9941 z
M -0.562134,17.9469 L -1.27733,17.7145 L -1.91226,17.3115 L -2.42705,16.7634 L -2.78932,16.1044 L -2.97633,15.376
 L -2.97633,14.624 L -2.78932,13.8956 L -2.42705,13.2366 L -1.91226,12.6884 L -1.27733,12.2855 L -0.562134,12.0531
 L 0.18837,12.0059 L 0.927048,12.1468 L 1.60747,12.467 L 2.1869,12.9464 L 2.62891,13.5547 L 2.90575,14.2539
 L 3,15 L 2.90575,15.7461 L 2.62891,16.4453 L 2.1869,17.0536 L 1.60747,17.533 L 0.927048,17.8532
 L 0.18837,17.9941 z
M 59.4379,17.9469 L 58.7227,17.7145 L 58.0877,17.3115 L 57.5729,16.7634 L 57.2107,16.1044 L 57.0237,15.376
 L 57.0237,14.624 L 57.2107,13.8956 L 57.5729,13.2366 L 58.0877,12.6884 L 58.7227,12.2855 L 59.4379,12.0531
 L 60.1884,12.0059 L 60.927,12.1468 L 61.6075,12.467 L 62.1869,12.9464 L 62.6289,13.5547 L 62.9057,14.2539
 L 63,15 L 62.9057,15.7461 L 62.6289,16.4453 L 62.1869,17.0536 L 61.6075,17.533 L 60.927,17.8532
 L 60.1884,17.9941 z
M -60.5621,17.9469 L -61.2773,17.7145 L -61.9123,17.3115 L -62.427,16.7634 L -62.7893,16.1044 L -62.9763,15.376
 L -62.9763,14.624 L -62.7893,13.8956 L -62.427,13.2366 L -61.9123,12.6884 L -61.2773,12.2855 L -60.5621,12.0531
 L -59.8116,12.0059 L -59.0729,12.1468 L -58.3925,12.467 L -57.8131,12.9464 L -57.3711,13.5547 L -57.0942,14.2539
 L -57,15 L -57.0942,15.7461 L -57.3711,16.4453 L -57.8131,17.0536 L -58.3925,17.533 L -59.0729,17.8532
 L -59.8116,17.9941 z
M -15.5621,17.9469 L -16.2773,17.7145 L -16.9123,17.3115 L -17.427,16.7634 L -17.7893,16.1044 L -17.9763,15.376
 L -17.9763,14.624 L -17.7893,13.8956 L -17.427,13.2366 L -16.9123,12.6884 L -16.2773,12.2855 L -15.5621,12.0531
 L -14.8116,12.0059 L -14.0729,12.1468 L -13.3925,12.467 L -12.8131,12.9464 L -12.3711,13.5547 L -12.0942,14.2539
 L -12,15 L -12.0942,15.7461 L -12.3711,16.4453 L -12.8131,17.0536 L -13.3925,17.533 L -14.0729,17.8532
 L -14.8116,17.9941 z
M 14.4379,17.9469 L 13.7227,17.7145 L 13.0877,17.3115 L 12.5729,16.7634 L 12.2107,16.1044 L 12.0237,15.376
 L 12.0237,14.624 L 12.2107,13.8956 L 12.5729,13.2366 L 13.0877,12.6884 L 13.7227,12.2855 L 14.4379,12.0531
 L 15.1884,12.0059 L 15.927,12.1468 L 16.6075,12.467 L 17.1869,12.9464 L 17.6289,13.5547 L 17.9057,14.2539
 L 18,15 L 17.9057,15.7461 L 17.6289,16.4453 L 17.1869,17.0536 L 16.6075,17.533 L 15.927,17.8532
 L 15.1884,17.9941 z
M 44.4379,17.9469 L 43.7227,17.7145 L 43.0877,17.3115 L 42.5729,16.7634 L 42.2107,16.1044 L 42.0237,15.376
 L 42.0237,14.624 L 42.2107,13.8956 L 42.5729,13.2366 L 43.0877,12.6884 L 43.7227,12.2855 L 44.4379,12.0531
 L 45.1884,12.0059 L 45.927,12.1468 L 46.6075,12.467 L 47.1869,12.9464 L 47.6289,13.5547 L 47.9057,14.2539
 L 48,15 L 47.9057,15.7461 L 47.6289,16.4453 L 47.1869,17.0536 L 46.6075,17.533 L 45.927,17.8532
 L 45.1884,17.9941 z
M 74.4379,17.9469 L 73.7227,17.7145 L 73.0877,17.3115 L 72.573,16.7634 L 72.2107,16.1044 L 72.0237,15.376
 L 72.0237,14.624 L 72.2107,13.8956 L 72.573,13.2366 L 73.0877,12.6884 L 73.7227,12.2855 L 74.4379,12.0531
 L 75.1884,12.0059 L 75.927,12.1468 L 76.6075,12.467 L 77.1869,12.9464 L 77.6289,13.5547 L 77.9057,14.2539
 L 78,15 L 77.9057,15.7461 L 77.6289,16.4453 L 77.1869,17.0536 L 76.6075,17.533 L 75.927,17.8532
 L 75.1884,17.9941 z
M 104.438,17.9469 L 103.723,17.7145 L 103.088,17.3115 L 102.573,16.7634 L 102.211,16.1044 L 102.024,15.376
 L 102.024,14.624 L 102.211,13.8956 L 102.573,13.2366 L 103.088,12.6884 L 103.723,12.2855 L 104.438,12.0531
 L 105.188,12.0059 L 105.927,12.1468 L 106.607,12.467 L 107.187,12.9464 L 107.629,13.5547 L 107.906,14.2539
 L 108,15 L 107.906,15.7461 L 107.629,16.4453 L 107.187,17.0536 L 106.607,17.533 L 105.927,17.8532
 L 105.188,17.9941 z
M 89.4379,17.9469 L 88.7227,17.7145 L 88.0877,17.3115 L 87.573,16.7634 L 87.2107,16.1044 L 87.0237,15.376
 L 87.0237,14.624 L 87.2107,13.8956 L 87.573,13.2366 L 88.0877,12.6884 L 88.7227,12.2855 L 89.4379,12.0531
 L 90.1884,12.0059 L 90.927,12.1468 L 91.6075,12.467 L 92.1869,12.9464 L 92.6289,13.5547 L 92.9057,14.2539
 L 93,15 L 92.9057,15.7461 L 92.6289,16.4453 L 92.1869,17.0536 L 91.6075,17.533 L 90.927,17.8532
 L 90.1884,17.9941 z
M -90.5621,17.9469 L -91.2773,17.7145 L -91.9123,17.3115 L -92.427,16.7634 L -92.7893,16.1044 L -92.9763,15.376
 L -92.9763,14.624 L -92.7893,13.8956 L -92.427,13.2366 L -91.9123,12.6884 L -91.2773,12.2855 L -90.5621,12.0531
 L -89.8116,12.0059 L -89.073,12.1468 L -88.3925,12.467 L -87.8131,12.9464 L -87.3711,13.5547 L -87.0943,14.2539
 L -87,15 L -87.0943,15.7461 L -87.3711,16.4453 L -87.8131,17.0536 L -88.3925,17.533 L -89.073,17.8532
 L -89.8116,17.9941 z
M -105.562,17.9469 L -106.277,17.7145 L -106.912,17.3115 L -107.427,16.7634 L -107.789,16.1044 L -107.976,15.376
 L -107.976,14.624 L -107.789,13.8956 L -107.427,13.2366 L -106.912,12.6884 L -106.277,12.2855 L -105.562,12.0531
 L -104.812,12.0059 L -104.073,12.1468 L -103.393,12.467 L -102.813,12.9464 L -102.371,13.5547 L -102.094,14.2539
 L -102,15 L -102.094,15.7461 L -102.371,16.4453 L -102.813,17.0536 L -103.393,17.533 L -104.073,17.8532
 L -104.812,17.9941 z
" stroke="black" fill="lightgray" stroke-width="0.5"/>
</svg>
