<?xml version="1.0" standalone="no"?>
<!DOCTYPE svg PUBLIC "-//W3C//DTD SVG 1.1//EN" "http://www.w3.org/Graphics/SVG/1.1/DTD/svg11.dtd">
<svg width="74mm" height="44mm" viewBox="-37 -22 74 44" xmlns="http://www.w3.org/2000/svg" version="1.1">
<title>OpenSCAD Model</title>
<path d="
M 31.6576,20.9622 L 32.2991,20.8346 L 32.9184,20.6244 L 33.505,20.3351 L 34.0488,19.9718 L 34.5405,19.5405
 L 34.9718,19.0488 L 35.3351,18.505 L 35.6244,17.9184 L 35.8346,17.2991 L 35.9622,16.6576 L 36.005,16.005
 L 36.005,-16.005 L 35.9622,-16.6576 L 35.8346,-17.2991 L 35.6244,-17.9184 L 35.3351,-18.505 L 34.9718,-19.0488
 L 34.5405,-19.5405 L 34.0488,-19.9718 L 33.505,-20.3351 L 32.9184,-20.6244 L 32.2991,-20.8346 L 31.6576,-20.9622
 L 31.005,-21.005 L -31.005,-21.005 L -31.6576,-20.9622 L -32.2991,-20.8346 L -32.9184,-20.6244 L -33.505,-20.3351
 L -34.0488,-19.9718 L -34.5405,-19.5405 L -34.9718,-19.0488 L -35.3351,-18.505 L -35.6244,-17.9184 L -35.8346,-17.2991
 L -35.9622,-16.6576 L -36.005,-16.005 L -36.005,16.005 L -35.9622,16.6576 L -35.8346,17.2991 L -35.6244,17.9184
 L -35.3351,18.505 L -34.9718,19.0488 L -34.5405,19.5405 L -34.0488,19.9718 L -33.505,20.3351 L -32.9184,20.6244
 L -32.2991,20.8346 L -31.6576,20.9622 L -31.005,21.005 L 31.005,21.005 z
M -17.9662,-4.81403 L -17.1842,-7.1179 L -16.1081,-9.29999 L -14.7564,-11.323 L -13.1522,-13.1522 L -11.323,-14.7564
 L -9.29999,-16.1081 L -7.1179,-17.1842 L -4.81403,-17.9662 L -2.42778,-18.4409 L 0,-18.6 L 2.42778,-18.4409
 L 4.81403,-17.9662 L 7.1179,-17.1842 L 9.29999,-16.1081 L 11.323,-14.7564 L 13.1522,-13.1522 L 14.7564,-11.323
 L 16.1081,-9.29999 L 17.1842,-7.1179 L 17.9662,-4.81403 L 18.4409,-2.42778 L 18.6,-0 L 18.4409,2.42778
 L 17.9662,4.81403 L 17.1842,7.1179 L 16.1081,9.29999 L 14.7564,11.323 L 13.1522,13.1522 L 11.323,14.7564
 L 9.29999,16.1081 L 7.1179,17.1842 L 4.81403,17.9662 L 2.42778,18.4409 L 0,18.6 L -2.42778,18.4409
 L -4.81403,17.9662 L -7.1179,17.1842 L -9.29999,16.1081 L -11.323,14.7564 L -13.1522,13.1522 L -14.7564,11.323
 L -16.1081,9.29999 L -17.1842,7.1179 L -17.9662,4.81403 L -18.4409,2.42778 L -18.6,-0 L -18.4409,-2.42778
 z
M 1.61852,12.2939 L 3.20935,11.9775 L 4.74527,11.4561 L 6.2,10.7387 L 7.54863,9.83757 L 8.76811,8.76811
 L 9.83757,7.54863 L 10.7387,6.2 L 11.4561,4.74527 L 11.9775,3.20935 L 12.2939,1.61852 L 12.4,-0
 L 12.2939,-1.61852 L 11.9775,-3.20935 L 11.4561,-4.74527 L 10.7387,-6.2 L 9.83757,-7.54863 L 8.76811,-8.76811
 L 7.54863,-9.83757 L 6.2,-10.7387 L 4.74527,-11.4561 L 3.20935,-11.9775 L 1.61852,-12.2939 L 0,-12.4
 L -1.61852,-12.2939 L -3.20935,-11.9775 L -4.74527,-11.4561 L -6.2,-10.7387 L -7.54863,-9.83757 L -8.76811,-8.76811
 L -9.83757,-7.54863 L -10.7387,-6.2 L -11.4561,-4.74527 L -11.9775,-3.20935 L -12.2939,-1.61852 L -12.4,-0
 L -12.2939,1.61852 L -11.9775,3.20935 L -11.4561,4.74527 L -10.7387,6.2 L -9.83757,7.54863 L -8.76811,8.76811
 L -7.54863,9.83757 L -6.2,10.7387 L -4.74527,11.4561 L -3.20935,11.9775 L -1.61852,12.2939 L 0,12.4
 z
M -5.7272,-2.0808 L -6.14415,-2.16373 L -6.54671,-2.30038 L -6.92799,-2.4884 L -7.28146,-2.72459 L -7.60109,-3.0049
 L -7.88139,-3.32452 L -8.11757,-3.67799 L -8.3056,-4.05927 L -8.44225,-4.46184 L -8.52519,-4.87878 L -8.55299,-5.30299
 L -8.52519,-5.7272 L -8.44225,-6.14415 L -8.3056,-6.54671 L -8.11757,-6.92799 L -7.88139,-7.28146 L -7.60109,-7.60109
 L -7.28146,-7.88139 L -6.92799,-8.11757 L -6.54671,-8.3056 L -6.14415,-8.44225 L -5.7272,-8.52519 L -5.30299,-8.55299
 L -4.87878,-8.52519 L -4.46184,-8.44225 L -4.05927,-8.3056 L -3.67799,-8.11757 L -3.32452,-7.88139 L -3.0049,-7.60109
 L -2.72459,-7.28146 L -2.4884,-6.92799 L -2.30038,-6.54671 L -2.16373,-6.14415 L -2.0808,-5.7272 L -2.05299,-5.30299
 L -2.0808,-4.87878 L -2.16373,-4.46184 L -2.30038,-4.05927 L -2.4884,-3.67799 L -2.72459,-3.32452 L -3.0049,-3.0049
 L -3.32452,-2.72459 L -3.67799,-2.4884 L -4.05927,-2.30038 L -4.46184,-2.16373 L -4.87878,-2.0808 L -5.30299,-2.05299
 z
M 5.0811,-3.61754 L 4.86301,-3.66092 L 4.65244,-3.73239 L 4.45299,-3.83075 L 4.2681,-3.95428 L 4.10091,-4.10091
 L 3.95428,-4.2681 L 3.83075,-4.45299 L 3.73239,-4.65244 L 3.66092,-4.86301 L 3.61754,-5.0811 L 3.603,-5.30299
 L 3.61754,-5.52489 L 3.66092,-5.74298 L 3.73239,-5.95355 L 3.83075,-6.153 L 3.95428,-6.33789 L 4.10091,-6.50508
 L 4.2681,-6.65169 L 4.45299,-6.77524 L 4.65244,-6.87358 L 4.86301,-6.94507 L 5.0811,-6.98845 L 5.30299,-7.00299
 L 5.52489,-6.98845 L 5.74298,-6.94507 L 5.95355,-6.87358 L 6.153,-6.77524 L 6.33789,-6.65169 L 6.50508,-6.50508
 L 6.65169,-6.33789 L 6.77524,-6.153 L 6.87358,-5.95355 L 6.94507,-5.74298 L 6.98845,-5.52489 L 7.00299,-5.30299
 L 6.98845,-5.0811 L 6.94507,-4.86301 L 6.87358,-4.65244 L 6.77524,-4.45299 L 6.65169,-4.2681 L 6.50508,-4.10091
 L 6.33789,-3.95428 L 6.153,-3.83075 L 5.95355,-3.73239 L 5.74298,-3.66092 L 5.52489,-3.61754 L 5.30299,-3.603
 z
M 4.87878,8.52519 L 4.46184,8.44225 L 4.05927,8.3056 L 3.67799,8.11757 L 3.32452,7.88139 L 3.0049,7.60109
 L 2.72459,7.28146 L 2.4884,6.92799 L 2.30038,6.54671 L 2.16373,6.14415 L 2.0808,5.7272 L 2.05299,5.30299
 L 2.0808,4.87878 L 2.16373,4.46184 L 2.30038,4.05927 L 2.4884,3.67799 L 2.72459,3.32452 L 3.0049,3.0049
 L 3.32452,2.72459 L 3.67799,2.4884 L 4.05927,2.30038 L 4.46184,2.16373 L 4.87878,2.0808 L 5.30299,2.05299
 L 5.7272,2.0808 L 6.14415,2.16373 L 6.54671,2.30038 L 6.92799,2.4884 L 7.28146,2.72459 L 7.60109,3.0049
 L 7.88139,3.32452 L 8.11757,3.67799 L 8.3056,4.05927 L 8.44225,4.46184 L 8.52519,4.87878 L 8.55299,5.30299
 L 8.52519,5.7272 L 8.44225,6.14415 L 8.3056,6.54671 L 8.11757,6.92799 L 7.88139,7.28146 L 7.60109,7.60109
 L 7.28146,7.88139 L 6.92799,8.11757 L 6.54671,8.3056 L 6.14415,8.44225 L 5.7272,8.52519 L 5.30299,8.55299
 z
M -5.52489,6.98845 L -5.74298,6.94507 L -5.95355,6.87358 L -6.153,6.77524 L -6.33789,6.65169 L -6.50508,6.50508
 L -6.65169,6.33789 L -6.77524,6.153 L -6.87358,5.95355 L -6.94507,5.74298 L -6.98845,5.52489 L -7.00299,5.30299
 L -6.98845,5.0811 L -6.94507,4.86301 L -6.87358,4.65244 L -6.77524,4.45299 L -6.65169,4.2681 L -6.50508,4.10091
 L -6.33789,3.95428 L -6.153,3.83075 L -5.95355,3.73239 L -5.74298,3.66092 L -5.52489,3.61754 L -5.30299,3.603
 L -5.0811,3.61754 L -4.86301,3.66092 L -4.65244,3.73239 L -4.45299,3.83075 L -4.2681,3.95428 L -4.10091,4.10091
 L -3.95428,4.2681 L -3.83075,4.45299 L -3.73239,4.65244 L -3.66092,4.86301 L -3.61754,5.0811 L -3.603,5.30299
 L -3.61754,5.52489 L -3.66092,5.74298 L -3.73239,5.95355 L -3.83075,6.153 L -3.95428,6.33789 L -4.10091,6.50508
 L -4.2681,6.65169 L -4.45299,6.77524 L -4.65244,6.87358 L -4.86301,6.94507 L -5.0811,6.98845 L -5.30299,7.00299
 z
M 29.5758,-11.7778 L 29.1588,-11.8607 L 28.7563,-11.9974 L 28.375,-12.1854 L 28.0215,-12.4216 L 27.7019,-12.7019
 L 27.4216,-13.0215 L 27.1854,-13.375 L 26.9974,-13.7563 L 26.8607,-14.1588 L 26.7778,-14.5758 L 26.75,-15
 L 26.7778,-15.4242 L 26.8607,-15.8412 L 26.9974,-16.2437 L 27.1854,-16.625 L 27.4216,-16.9785 L 27.7019,-17.2981
 L 28.0215,-17.5784 L 28.375,-17.8146 L 28.7563,-18.0026 L 29.1588,-18.1393 L 29.5758,-18.2222 L 30,-18.25
 L 30.4242,-18.2222 L 30.8412,-18.1393 L 31.2437,-18.0026 L 31.625,-17.8146 L 31.9785,-17.5784 L 32.2981,-17.2981
 L 32.5784,-16.9785 L 32.8146,-16.625 L 33.0026,-16.2437 L 33.1393,-15.8412 L 33.2222,-15.4242 L 33.25,-15
 L 33.2222,-14.5758 L 33.1393,-14.1588 L 33.0026,-13.7563 L 32.8146,-13.375 L 32.5784,-13.0215 L 32.2981,-12.7019
 L 31.9785,-12.4216 L 31.625,-12.1854 L 31.2437,-11.9974 L 30.8412,-11.8607 L 30.4242,-11.7778 L 30,-11.75
 z
M -30.4242,-11.7778 L -30.8412,-11.8607 L -31.2437,-11.9974 L -31.625,-12.1854 L -31.9785,-12.4216 L -32.2981,-12.7019
 L -32.5784,-13.0215 L -32.8146,-13.375 L -33.0026,-13.7563 L -33.1393,-14.1588 L -33.2222,-14.5758 L -33.25,-15
 L -33.2222,-15.4242 L -33.1393,-15.8412 L -33.0026,-16.2437 L -32.8146,-16.625 L -32.5784,-16.9785 L -32.2981,-17.2981
 L -31.9785,-17.5784 L -31.625,-17.8146 L -31.2437,-18.0026 L -30.8412,-18.1393 L -30.4242,-18.2222 L -30,-18.25
 L -29.5758,-18.2222 L -29.1588,-18.1393 L -28.7563,-18.0026 L -28.375,-17.8146 L -28.0215,-17.5784 L -27.7019,-17.2981
 L -27.4216,-16.9785 L -27.1854,-16.625 L -26.9974,-16.2437 L -26.8607,-15.8412 L -26.7778,-15.4242 L -26.75,-15
 L -26.7778,-14.5758 L -26.8607,-14.1588 L -26.9974,-13.7563 L -27.1854,-13.375 L -27.4216,-13.0215 L -27.7019,-12.7019
 L -28.0215,-12.4216 L -28.375,-12.1854 L -28.7563,-11.9974 L -29.1588,-11.8607 L -29.5758,-11.7778 L -30,-11.75
 z
M 15.7781,-14.3145 L 15.56,-14.3579 L 15.3494,-14.4294 L 15.15,-14.5278 L 14.9651,-14.6513 L 14.7979,-14.7979
 L 14.6513,-14.9651 L 14.5278,-15.15 L 14.4294,-15.3494 L 14.3579,-15.56 L 14.3145,-15.7781 L 14.3,-16
 L 14.3145,-16.2219 L 14.3579,-16.44 L 14.4294,-16.6506 L 14.5278,-16.85 L 14.6513,-17.0349 L 14.7979,-17.2021
 L 14.9651,-17.3487 L 15.15,-17.4722 L 15.3494,-17.5706 L 15.56,-17.6421 L 15.7781,-17.6855 L 16,-17.7
 L 16.2219,-17.6855 L 16.44,-17.6421 L 16.6506,-17.5706 L 16.85,-17.4722 L 17.0349,-17.3487 L 17.2021,-17.2021
 L 17.3487,-17.0349 L 17.4722,-16.85 L 17.5706,-16.6506 L 17.6421,-16.44 L 17.6855,-16.2219 L 17.7,-16
 L 17.6855,-15.7781 L 17.6421,-15.56 L 17.5706,-15.3494 L 17.4722,-15.15 L 17.3487,-14.9651 L 17.2021,-14.7979
 L 17.0349,-14.6513 L 16.85,-14.5278 L 16.6506,-14.4294 L 16.44,-14.3579 L 16.2219,-14.3145 L 16,-14.3
 z
M -16.2219,-14.3145 L -16.44,-14.3579 L -16.6506,-14.4294 L -16.85,-14.5278 L -17.0349,-14.6513 L -17.2021,-14.7979
 L -17.3487,-14.9651 L -17.4722,-15.15 L -17.5706,-15.3494 L -17.6421,-15.56 L -17.6855,-15.7781 L -17.7,-16
 L -17.6855,-16.2219 L -17.6421,-16.44 L -17.5706,-16.6506 L -17.4722,-16.85 L -17.3487,-17.0349 L -17.2021,-17.2021
 L -17.0349,-17.3487 L -16.85,-17.4722 L -16.6506,-17.5706 L -16.44,-17.6421 L -16.2219,-17.6855 L -16,-17.7
 L -15.7781,-17.6855 L -15.56,-17.6421 L -15.3494,-17.5706 L -15.15,-17.4722 L -14.9651,-17.3487 L -14.7979,-17.2021
 L -14.6513,-17.0349 L -14.5278,-16.85 L -14.4294,-16.6506 L -14.3579,-16.44 L -14.3145,-16.2219 L -14.3,-16
 L -14.3145,-15.7781 L -14.3579,-15.56 L -14.4294,-15.3494 L -14.5278,-15.15 L -14.6513,-14.9651 L -14.7979,-14.7979
 L -14.9651,-14.6513 L -15.15,-14.5278 L -15.3494,-14.4294 L -15.56,-14.3579 L -15.7781,-14.3145 L -16,-14.3
 z
M 29.5758,3.22218 L 29.1588,3.13925 L 28.7563,3.00259 L 28.375,2.81458 L 28.0215,2.57838 L 27.7019,2.2981
 L 27.4216,1.97847 L 27.1854,1.625 L 26.9974,1.24371 L 26.8607,0.841156 L 26.7778,0.42421 L 26.75,-0
 L 26.7778,-0.42421 L 26.8607,-0.841156 L 26.9974,-1.24371 L 27.1854,-1.625 L 27.4216,-1.97847 L 27.7019,-2.2981
 L 28.0215,-2.57838 L 28.375,-2.81458 L 28.7563,-3.00259 L 29.1588,-3.13925 L 29.5758,-3.22218 L 30,-3.25
 L 30.4242,-3.22218 L 30.8412,-3.13925 L 31.2437,-3.00259 L 31.625,-2.81458 L 31.9785,-2.57838 L 32.2981,-2.2981
 L 32.5784,-1.97847 L 32.8146,-1.625 L 33.0026,-1.24371 L 33.1393,-0.841156 L 33.2222,-0.42421 L 33.25,-0
 L 33.2222,0.42421 L 33.1393,0.841156 L 33.0026,1.24371 L 32.8146,1.625 L 32.5784,1.97847 L 32.2981,2.2981
 L 31.9785,2.57838 L 31.625,2.81458 L 31.2437,3.00259 L 30.8412,3.13925 L 30.4242,3.22218 L 30,3.25
 z
M -30.4242,18.2222 L -30.8412,18.1393 L -31.2437,18.0026 L -31.625,17.8146 L -31.9785,17.5784 L -32.2981,17.2981
 L -32.5784,16.9785 L -32.8146,16.625 L -33.0026,16.2437 L -33.1393,15.8412 L -33.2222,15.4242 L -33.25,15
 L -33.2222,14.5758 L -33.1393,14.1588 L -33.0026,13.7563 L -32.8146,13.375 L -32.5784,13.0215 L -32.2981,12.7019
 L -31.9785,12.4216 L -31.625,12.1854 L -31.2437,11.9974 L -30.8412,11.8607 L -30.4242,11.7778 L -30,11.75
 L -29.5758,11.7778 L -29.1588,11.8607 L -28.7563,11.9974 L -28.375,12.1854 L -28.0215,12.4216 L -27.7019,12.7019
 L -27.4216,13.0215 L -27.1854,13.375 L -26.9974,13.7563 L -26.8607,14.1588 L -26.7778,14.5758 L -26.75,15
 L -26.7778,15.4242 L -26.8607,15.8412 L -26.9974,16.2437 L -27.1854,16.625 L -27.4216,16.9785 L -27.7019,17.2981
 L -28.0215,17.5784 L -28.375,17.8146 L -28.7563,18.0026 L -29.1588,18.1393 L -29.5758,18.2222 L -30,18.25
 z
M 29.5758,18.2222 L 29.1588,18.1393 L 28.7563,18.0026 L 28.375,17.8146 L 28.0215,17.5784 L 27.7019,17.2981
 L 27.4216,16.9785 L 27.1854,16.625 L 26.9974,16.2437 L 26.8607,15.8412 L 26.7778,15.4242 L 26.75,15
 L 26.7778,14.5758 L 26.8607,14.1588 L 26.9974,13.7563 L 27.1854,13.375 L 27.4216,13.0215 L 27.7019,12.7019
 L 28.0215,12.4216 L 28.375,12.1854 L 28.7563,11.9974 L 29.1588,11.8607 L 29.5758,11.7778 L 30,11.75
 L 30.4242,11.7778 L 30.8412,11.8607 L 31.2437,11.9974 L 31.625,12.1854 L 31.9785,12.4216 L 32.2981,12.7019
 L 32.5784,13.0215 L 32.8146,13.375 L 33.0026,13.7563 L 33.1393,14.1588 L 33.2222,14.5758 L 33.25,15
 L 33.2222,15.4242 L 33.1393,15.8412 L 33.0026,16.2437 L 32.8146,16.625 L 32.5784,16.9785 L 32.2981,17.2981
 L 31.9785,17.5784 L 31.625,17.8146 L 31.2437,18.0026 L 30.8412,18.1393 L 30.4242,18.2222 L 30,18.25
 z
M -16.2219,17.6855 L -16.44,17.6421 L -16.6506,17.5706 L -16.85,17.4722 L -17.0349,17.3487 L -17.2021,17.2021
 L -17.3487,17.0349 L -17.4722,16.85 L -17.5706,16.6506 L -17.6421,16.44 L -17.6855,16.2219 L -17.7,16
 L -17.6855,15.7781 L -17.6421,15.56 L -17.5706,15.3494 L -17.4722,15.15 L -17.3487,14.9651 L -17.2021,14.7979
 L -17.0349,14.6513 L -16.85,14.5278 L -16.6506,14.4294 L -16.44,14.3579 L -16.2219,14.3145 L -16,14.3
 L -15.7781,14.3145 L -15.56,14.3579 L -15.3494,14.4294 L -15.15,14.5278 L -14.9651,14.6513 L -14.7979,14.7979
 L -14.6513,14.9651 L -14.5278,15.15 L -14.4294,15.3494 L -14.3579,15.56 L -14.3145,15.7781 L -14.3,16
 L -14.3145,16.2219 L -14.3579,16.44 L -14.4294,16.6506 L -14.5278,16.85 L -14.6513,17.0349 L -14.7979,17.2021
 L -14.9651,17.3487 L -15.15,17.4722 L -15.3494,17.5706 L -15.56,17.6421 L -15.7781,17.6855 L -16,17.7
 z
M 15.7781,17.6855 L 15.56,17.6421 L 15.3494,17.5706 L 15.15,17.4722 L 14.9651,17.3487 L 14.7979,17.2021
 L 14.6513,17.0349 L 14.5278,16.85 L 14.4294,16.6506 L 14.3579,16.44 L 14.3145,16.2219 L 14.3,16
 L 14.3145,15.7781 L 14.3579,15.56 L 14.4294,15.3494 L 14.5278,15.15 L 14.6513,14.9651 L 14.7979,14.7979
 L 14.9651,14.6513 L 15.15,14.5278 L 15.3494,14.4294 L 15.56,14.3579 L 15.7781,14.3145 L 16,14.3
 L 16.2219,14.3145 L 16.44,14.3579 L 16.6506,14.4294 L 16.85,14.5278 L 17.0349,14.6513 L 17.2021,14.7979
 L 17.3487,14.9651 L 17.4722,15.15 L 17.5706,15.3494 L 17.6421,15.56 L 17.6855,15.7781 L 17.7,16
 L 17.6855,16.2219 L 17.6421,16.44 L 17.5706,16.6506 L 17.4722,16.85 L 17.3487,17.0349 L 17.2021,17.2021
 L 17.0349,17.3487 L 16.85,17.4722 L 16.6506,17.5706 L 16.44,17.6421 L 16.2219,17.6855 L 16,17.7
 z
M -26.8607,0.841156 L -26.9974,1.24371 L -27.1854,1.625 L -27.4216,1.97847 L -27.7019,2.2981 L -28.0215,2.57838
 L -28.375,2.81458 L -28.7563,3.00259 L -29.1588,3.13925 L -29.5758,3.22218 L -30,3.25 L -30.4242,3.22218
 L -30.8412,3.13925 L -31.2437,3.00259 L -31.625,2.81458 L -31.9785,2.57838 L -32.2981,2.2981 L -32.5784,1.97847
 L -32.8146,1.625 L -33.0026,1.24371 L -33.1393,0.841156 L -33.2222,0.42421 L -33.25,-0 L -33.2222,-0.42421
 L -33.1393,-0.841156 L -33.0026,-1.24371 L -32.8146,-1.625 L -32.5784,-1.97847 L -32.2981,-2.2981 L -31.9785,-2.57838
 L -31.625,-2.81458 L -31.2437,-3.00259 L -30.8412,-3.13925 L -30.4242,-3.22218 L -30,-3.25 L -29.5758,-3.22218
 L -29.1588,-3.13925 L -28.7563,-3.00259 L -28.375,-2.81458 L -28.0215,-2.57838 L -27.7019,-2.2981 L -27.4216,-1.97847
 L -27.1854,-1.625 L -26.9974,-1.24371 L -26.8607,-0.841156 L -26.7778,-0.42421 L -26.75,-0 L -26.7778,0.42421
 z
" stroke="black" fill="lightgray" stroke-width="0.5"/>
</svg>
