<?xml version="1.0" standalone="no"?>
<!DOCTYPE svg PUBLIC "-//W3C//DTD SVG 1.1//EN" "http://www.w3.org/Graphics/SVG/1.1/DTD/svg11.dtd">
<svg width="74mm" height="44mm" viewBox="-37 -22 74 44" xmlns="http://www.w3.org/2000/svg" version="1.1">
<title>OpenSCAD Model</title>
<path d="
M 31.6576,20.9622 L 32.2991,20.8346 L 32.9184,20.6244 L 33.505,20.3351 L 34.0488,19.9718 L 34.5405,19.5405
 L 34.9718,19.0488 L 35.3351,18.505 L 35.6244,17.9184 L 35.8346,17.2991 L 35.9622,16.6576 L 36.005,16.005
 L 36.005,-16.005 L 35.9622,-16.6576 L 35.8346,-17.2991 L 35.6244,-17.9184 L 35.3351,-18.505 L 34.9718,-19.0488
 L 34.5405,-19.5405 L 34.0488,-19.9718 L 33.505,-20.3351 L 32.9184,-20.6244 L 32.2991,-20.8346 L 31.6576,-20.9622
 L 31.005,-21.005 L -31.005,-21.005 L -31.6576,-20.9622 L -32.2991,-20.8346 L -32.9184,-20.6244 L -33.505,-20.3351
 L -34.0488,-19.9718 L -34.5405,-19.5405 L -34.9718,-19.0488 L -35.3351,-18.505 L -35.6244,-17.9184 L -35.8346,-17.2991
 L -35.9622,-16.6576 L -36.005,-16.005 L -36.005,16.005 L -35.9622,16.6576 L -35.8346,17.2991 L -35.6244,17.9184
 L -35.3351,18.505 L -34.9718,19.0488 L -34.5405,19.5405 L -34.0488,19.9718 L -33.505,20.3351 L -32.9184,20.6244
 L -32.2991,20.8346 L -31.6576,20.9622 L -31.005,21.005 L 31.005,21.005 z
M -2.41473,18.3417 L -4.78815,17.8696 L -7.07964,17.0918 L -9.25,16.0215 L -11.2621,14.677 L -13.0815,13.0815
 L -14.677,11.2621 L -16.0215,9.25 L -17.0918,7.07964 L -17.8696,4.78815 L -18.3417,2.41473 L -18.5,-0
 L -18.3417,-2.41473 L -17.8696,-4.78815 L -17.0918,-7.07964 L -16.0215,-9.25 L -14.677,-11.2621 L -13.0815,-13.0815
 L -11.2621,-14.677 L -9.25,-16.0215 L -7.07964,-17.0918 L -4.78815,-17.8696 L -2.41473,-18.3417 L 0,-18.5
 L 2.41473,-18.3417 L 4.78815,-17.8696 L 7.07964,-17.0918 L 9.25,-16.0215 L 11.2621,-14.677 L 13.0815,-13.0815
 L 14.677,-11.2621 L 16.0215,-9.25 L 17.0918,-7.07964 L 17.8696,-4.78815 L 18.3417,-2.41473 L 18.5,-0
 L 18.3417,2.41473 L 17.8696,4.78815 L 17.0918,7.07964 L 16.0215,9.25 L 14.677,11.2621 L 13.0815,13.0815
 L 11.2621,14.677 L 9.25,16.0215 L 7.07964,17.0918 L 4.78815,17.8696 L 2.41473,18.3417 L 0,18.5
 z
M 1.63158,12.3931 L 3.23523,12.0741 L 4.78354,11.5485 L 6.25,10.8253 L 7.60951,9.91692 L 8.83882,8.83882
 L 9.91692,7.60951 L 10.8253,6.25 L 11.5485,4.78354 L 12.0741,3.23523 L 12.3931,1.63158 L 12.5,-0
 L 12.3931,-1.63158 L 12.0741,-3.23523 L 11.5485,-4.78354 L 10.8253,-6.25 L 9.91692,-7.60951 L 8.83882,-8.83882
 L 7.60951,-9.91692 L 6.25,-10.8253 L 4.78354,-11.5485 L 3.23523,-12.0741 L 1.63158,-12.3931 L 0,-12.5
 L -1.63158,-12.3931 L -3.23523,-12.0741 L -4.78354,-11.5485 L -6.25,-10.8253 L -7.60951,-9.91692 L -8.83882,-8.83882
 L -9.91692,-7.60951 L -10.8253,-6.25 L -11.5485,-4.78354 L -12.0741,-3.23523 L -12.3931,-1.63158 L -12.5,-0
 L -12.3931,1.63158 L -12.0741,3.23523 L -11.5485,4.78354 L -10.8253,6.25 L -9.91692,7.60951 L -8.83882,8.83882
 L -7.60951,9.91692 L -6.25,10.8253 L -4.78354,11.5485 L -3.23523,12.0741 L -1.63158,12.3931 L 0,12.5
 z
M -5.69456,-2.32866 L -6.07945,-2.40521 L -6.45105,-2.53136 L -6.80299,-2.70491 L -7.12927,-2.92293 L -7.42432,-3.18167
 L -7.68306,-3.47672 L -7.90106,-3.80299 L -8.07463,-4.15494 L -8.20078,-4.52654 L -8.27733,-4.91141 L -8.30299,-5.30299
 L -8.27733,-5.69456 L -8.20078,-6.07945 L -8.07463,-6.45105 L -7.90106,-6.80299 L -7.68306,-7.12927 L -7.42432,-7.42432
 L -7.12927,-7.68306 L -6.80299,-7.90106 L -6.45105,-8.07463 L -6.07945,-8.20078 L -5.69456,-8.27733 L -5.30299,-8.30299
 L -4.91141,-8.27733 L -4.52654,-8.20078 L -4.15494,-8.07463 L -3.80299,-7.90106 L -3.47672,-7.68306 L -3.18167,-7.42432
 L -2.92293,-7.12927 L -2.70491,-6.80299 L -2.53136,-6.45105 L -2.40521,-6.07945 L -2.32866,-5.69456 L -2.30299,-5.30299
 L -2.32866,-4.91141 L -2.40521,-4.52654 L -2.53136,-4.15494 L -2.70491,-3.80299 L -2.92293,-3.47672 L -3.18167,-3.18167
 L -3.47672,-2.92293 L -3.80299,-2.70491 L -4.15494,-2.53136 L -4.52654,-2.40521 L -4.91141,-2.32866 L -5.30299,-2.30299
 z
M 5.10721,-3.81583 L 4.91476,-3.85411 L 4.72897,-3.91718 L 4.55299,-4.00395 L 4.38985,-4.11296 L 4.24232,-4.24232
 L 4.11296,-4.38985 L 4.00395,-4.55299 L 3.91718,-4.72897 L 3.85411,-4.91476 L 3.81583,-5.10721 L 3.80299,-5.30299
 L 3.81583,-5.49878 L 3.85411,-5.69122 L 3.91718,-5.87701 L 4.00395,-6.05299 L 4.11296,-6.21614 L 4.24232,-6.36365
 L 4.38985,-6.49303 L 4.55299,-6.60204 L 4.72897,-6.68881 L 4.91476,-6.75188 L 5.10721,-6.79016 L 5.30299,-6.80299
 L 5.49878,-6.79016 L 5.69122,-6.75188 L 5.87701,-6.68881 L 6.05299,-6.60204 L 6.21614,-6.49303 L 6.36365,-6.36365
 L 6.49303,-6.21614 L 6.60204,-6.05299 L 6.68881,-5.87701 L 6.75188,-5.69122 L 6.79016,-5.49878 L 6.80299,-5.30299
 L 6.79016,-5.10721 L 6.75188,-4.91476 L 6.68881,-4.72897 L 6.60204,-4.55299 L 6.49303,-4.38985 L 6.36365,-4.24232
 L 6.21614,-4.11296 L 6.05299,-4.00395 L 5.87701,-3.91718 L 5.69122,-3.85411 L 5.49878,-3.81583 L 5.30299,-3.80299
 z
M 4.91141,8.27733 L 4.52654,8.20078 L 4.15494,8.07463 L 3.80299,7.90106 L 3.47672,7.68306 L 3.18167,7.42432
 L 2.92293,7.12927 L 2.70491,6.80299 L 2.53136,6.45105 L 2.40521,6.07945 L 2.32866,5.69456 L 2.30299,5.30299
 L 2.32866,4.91141 L 2.40521,4.52654 L 2.53136,4.15494 L 2.70491,3.80299 L 2.92293,3.47672 L 3.18167,3.18167
 L 3.47672,2.92293 L 3.80299,2.70491 L 4.15494,2.53136 L 4.52654,2.40521 L 4.91141,2.32866 L 5.30299,2.30299
 L 5.69456,2.32866 L 6.07945,2.40521 L 6.45105,2.53136 L 6.80299,2.70491 L 7.12927,2.92293 L 7.42432,3.18167
 L 7.68306,3.47672 L 7.90106,3.80299 L 8.07463,4.15494 L 8.20078,4.52654 L 8.27733,4.91141 L 8.30299,5.30299
 L 8.27733,5.69456 L 8.20078,6.07945 L 8.07463,6.45105 L 7.90106,6.80299 L 7.68306,7.12927 L 7.42432,7.42432
 L 7.12927,7.68306 L 6.80299,7.90106 L 6.45105,8.07463 L 6.07945,8.20078 L 5.69456,8.27733 L 5.30299,8.30299
 z
M -5.49878,6.79016 L -5.69122,6.75188 L -5.87701,6.68881 L -6.05299,6.60204 L -6.21614,6.49303 L -6.36365,6.36365
 L -6.49303,6.21614 L -6.60204,6.05299 L -6.68881,5.87701 L -6.75188,5.69122 L -6.79016,5.49878 L -6.80299,5.30299
 L -6.79016,5.10721 L -6.75188,4.91476 L -6.68881,4.72897 L -6.60204,4.55299 L -6.49303,4.38985 L -6.36365,4.24232
 L -6.21614,4.11296 L -6.05299,4.00395 L -5.87701,3.91718 L -5.69122,3.85411 L -5.49878,3.81583 L -5.30299,3.80299
 L -5.10721,3.81583 L -4.91476,3.85411 L -4.72897,3.91718 L -4.55299,4.00395 L -4.38985,4.11296 L -4.24232,4.24232
 L -4.11296,4.38985 L -4.00395,4.55299 L -3.91718,4.72897 L -3.85411,4.91476 L -3.81583,5.10721 L -3.80299,5.30299
 L -3.81583,5.49878 L -3.85411,5.69122 L -3.91718,5.87701 L -4.00395,6.05299 L -4.11296,6.21614 L -4.24232,6.36365
 L -4.38985,6.49303 L -4.55299,6.60204 L -4.72897,6.68881 L -4.91476,6.75188 L -5.10721,6.79016 L -5.30299,6.80299
 z
M -30.3916,-12.0257 L -30.7764,-12.1022 L -31.148,-12.2283 L -31.5,-12.4019 L -31.8263,-12.6199 L -32.1213,-12.8787
 L -32.3801,-13.1737 L -32.5981,-13.5 L -32.7716,-13.8519 L -32.8978,-14.2235 L -32.9743,-14.6084 L -33,-15
 L -32.9743,-15.3916 L -32.8978,-15.7764 L -32.7716,-16.148 L -32.5981,-16.5 L -32.3801,-16.8263 L -32.1213,-17.1213
 L -31.8263,-17.3801 L -31.5,-17.5981 L -31.148,-17.7716 L -30.7764,-17.8978 L -30.3916,-17.9743 L -30,-18
 L -29.6084,-17.9743 L -29.2235,-17.8978 L -28.8519,-17.7716 L -28.5,-17.5981 L -28.1737,-17.3801 L -27.8787,-17.1213
 L -27.6199,-16.8263 L -27.4019,-16.5 L -27.2283,-16.148 L -27.1022,-15.7764 L -27.0257,-15.3916 L -27,-15
 L -27.0257,-14.6084 L -27.1022,-14.2235 L -27.2283,-13.8519 L -27.4019,-13.5 L -27.6199,-13.1737 L -27.8787,-12.8787
 L -28.1737,-12.6199 L -28.5,-12.4019 L -28.8519,-12.2283 L -29.2235,-12.1022 L -29.6084,-12.0257 L -30,-12
 z
M 29.6084,-12.0257 L 29.2235,-12.1022 L 28.8519,-12.2283 L 28.5,-12.4019 L 28.1737,-12.6199 L 27.8787,-12.8787
 L 27.6199,-13.1737 L 27.4019,-13.5 L 27.2283,-13.8519 L 27.1022,-14.2235 L 27.0257,-14.6084 L 27,-15
 L 27.0257,-15.3916 L 27.1022,-15.7764 L 27.2283,-16.148 L 27.4019,-16.5 L 27.6199,-16.8263 L 27.8787,-17.1213
 L 28.1737,-17.3801 L 28.5,-17.5981 L 28.8519,-17.7716 L 29.2235,-17.8978 L 29.6084,-17.9743 L 30,-18
 L 30.3916,-17.9743 L 30.7764,-17.8978 L 31.148,-17.7716 L 31.5,-17.5981 L 31.8263,-17.3801 L 32.1213,-17.1213
 L 32.3801,-16.8263 L 32.5981,-16.5 L 32.7716,-16.148 L 32.8978,-15.7764 L 32.9743,-15.3916 L 33,-15
 L 32.9743,-14.6084 L 32.8978,-14.2235 L 32.7716,-13.8519 L 32.5981,-13.5 L 32.3801,-13.1737 L 32.1213,-12.8787
 L 31.8263,-12.6199 L 31.5,-12.4019 L 31.148,-12.2283 L 30.7764,-12.1022 L 30.3916,-12.0257 L 30,-12
 z
M 15.8042,-14.5128 L 15.6118,-14.5511 L 15.426,-14.6142 L 15.25,-14.701 L 15.0869,-14.81 L 14.9393,-14.9393
 L 14.81,-15.0869 L 14.701,-15.25 L 14.6142,-15.426 L 14.5511,-15.6118 L 14.5128,-15.8042 L 14.5,-16
 L 14.5128,-16.1958 L 14.5511,-16.3882 L 14.6142,-16.574 L 14.701,-16.75 L 14.81,-16.9131 L 14.9393,-17.0607
 L 15.0869,-17.19 L 15.25,-17.299 L 15.426,-17.3858 L 15.6118,-17.4489 L 15.8042,-17.4872 L 16,-17.5
 L 16.1958,-17.4872 L 16.3882,-17.4489 L 16.574,-17.3858 L 16.75,-17.299 L 16.9131,-17.19 L 17.0607,-17.0607
 L 17.19,-16.9131 L 17.299,-16.75 L 17.3858,-16.574 L 17.4489,-16.3882 L 17.4872,-16.1958 L 17.5,-16
 L 17.4872,-15.8042 L 17.4489,-15.6118 L 17.3858,-15.426 L 17.299,-15.25 L 17.19,-15.0869 L 17.0607,-14.9393
 L 16.9131,-14.81 L 16.75,-14.701 L 16.574,-14.6142 L 16.3882,-14.5511 L 16.1958,-14.5128 L 16,-14.5
 z
M -16.1958,-14.5128 L -16.3882,-14.5511 L -16.574,-14.6142 L -16.75,-14.701 L -16.9131,-14.81 L -17.0607,-14.9393
 L -17.19,-15.0869 L -17.299,-15.25 L -17.3858,-15.426 L -17.4489,-15.6118 L -17.4872,-15.8042 L -17.5,-16
 L -17.4872,-16.1958 L -17.4489,-16.3882 L -17.3858,-16.574 L -17.299,-16.75 L -17.19,-16.9131 L -17.0607,-17.0607
 L -16.9131,-17.19 L -16.75,-17.299 L -16.574,-17.3858 L -16.3882,-17.4489 L -16.1958,-17.4872 L -16,-17.5
 L -15.8042,-17.4872 L -15.6118,-17.4489 L -15.426,-17.3858 L -15.25,-17.299 L -15.0869,-17.19 L -14.9393,-17.0607
 L -14.81,-16.9131 L -14.701,-16.75 L -14.6142,-16.574 L -14.5511,-16.3882 L -14.5128,-16.1958 L -14.5,-16
 L -14.5128,-15.8042 L -14.5511,-15.6118 L -14.6142,-15.426 L -14.701,-15.25 L -14.81,-15.0869 L -14.9393,-14.9393
 L -15.0869,-14.81 L -15.25,-14.701 L -15.426,-14.6142 L -15.6118,-14.5511 L -15.8042,-14.5128 L -16,-14.5
 z
M 29.6084,2.97432 L 29.2235,2.89777 L 28.8519,2.77164 L 28.5,2.59807 L 28.1737,2.38005 L 27.8787,2.12131
 L 27.6199,1.82628 L 27.4019,1.5 L 27.2283,1.14804 L 27.1022,0.776443 L 27.0257,0.391571 L 27,-0
 L 27.0257,-0.391571 L 27.1022,-0.776443 L 27.2283,-1.14804 L 27.4019,-1.5 L 27.6199,-1.82628 L 27.8787,-2.12131
 L 28.1737,-2.38005 L 28.5,-2.59807 L 28.8519,-2.77164 L 29.2235,-2.89777 L 29.6084,-2.97432 L 30,-3
 L 30.3916,-2.97432 L 30.7764,-2.89777 L 31.148,-2.77164 L 31.5,-2.59807 L 31.8263,-2.38005 L 32.1213,-2.12131
 L 32.3801,-1.82628 L 32.5981,-1.5 L 32.7716,-1.14804 L 32.8978,-0.776443 L 32.9743,-0.391571 L 33,-0
 L 32.9743,0.391571 L 32.8978,0.776443 L 32.7716,1.14804 L 32.5981,1.5 L 32.3801,1.82628 L 32.1213,2.12131
 L 31.8263,2.38005 L 31.5,2.59807 L 31.148,2.77164 L 30.7764,2.89777 L 30.3916,2.97432 L 30,3
 z
M -30.3916,2.97432 L -30.7764,2.89777 L -31.148,2.77164 L -31.5,2.59807 L -31.8263,2.38005 L -32.1213,2.12131
 L -32.3801,1.82628 L -32.5981,1.5 L -32.7716,1.14804 L -32.8978,0.776443 L -32.9743,0.391571 L -33,-0
 L -32.9743,-0.391571 L -32.8978,-0.776443 L -32.7716,-1.14804 L -32.5981,-1.5 L -32.3801,-1.82628 L -32.1213,-2.12131
 L -31.8263,-2.38005 L -31.5,-2.59807 L -31.148,-2.77164 L -30.7764,-2.89777 L -30.3916,-2.97432 L -30,-3
 L -29.6084,-2.97432 L -29.2235,-2.89777 L -28.8519,-2.77164 L -28.5,-2.59807 L -28.1737,-2.38005 L -27.8787,-2.12131
 L -27.6199,-1.82628 L -27.4019,-1.5 L -27.2283,-1.14804 L -27.1022,-0.776443 L -27.0257,-0.391571 L -27,-0
 L -27.0257,0.391571 L -27.1022,0.776443 L -27.2283,1.14804 L -27.4019,1.5 L -27.6199,1.82628 L -27.8787,2.12131
 L -28.1737,2.38005 L -28.5,2.59807 L -28.8519,2.77164 L -29.2235,2.89777 L -29.6084,2.97432 L -30,3
 z
M -30.3916,17.9743 L -30.7764,17.8978 L -31.148,17.7716 L -31.5,17.5981 L -31.8263,17.3801 L -32.1213,17.1213
 L -32.3801,16.8263 L -32.5981,16.5 L -32.7716,16.148 L -32.8978,15.7764 L -32.9743,15.3916 L -33,15
 L -32.9743,14.6084 L -32.8978,14.2235 L -32.7716,13.8519 L -32.5981,13.5 L -32.3801,13.1737 L -32.1213,12.8787
 L -31.8263,12.6199 L -31.5,12.4019 L -31.148,12.2283 L -30.7764,12.1022 L -30.3916,12.0257 L -30,12
 L -29.6084,12.0257 L -29.2235,12.1022 L -28.8519,12.2283 L -28.5,12.4019 L -28.1737,12.6199 L -27.8787,12.8787
 L -27.6199,13.1737 L -27.4019,13.5 L -27.2283,13.8519 L -27.1022,14.2235 L -27.0257,14.6084 L -27,15
 L -27.0257,15.3916 L -27.1022,15.7764 L -27.2283,16.148 L -27.4019,16.5 L -27.6199,16.8263 L -27.8787,17.1213
 L -28.1737,17.3801 L -28.5,17.5981 L -28.8519,17.7716 L -29.2235,17.8978 L -29.6084,17.9743 L -30,18
 z
M 29.6084,17.9743 L 29.2235,17.8978 L 28.8519,17.7716 L 28.5,17.5981 L 28.1737,17.3801 L 27.8787,17.1213
 L 27.6199,16.8263 L 27.4019,16.5 L 27.2283,16.148 L 27.1022,15.7764 L 27.0257,15.3916 L 27,15
 L 27.0257,14.6084 L 27.1022,14.2235 L 27.2283,13.8519 L 27.4019,13.5 L 27.6199,13.1737 L 27.8787,12.8787
 L 28.1737,12.6199 L 28.5,12.4019 L 28.8519,12.2283 L 29.2235,12.1022 L 29.6084,12.0257 L 30,12
 L 30.3916,12.0257 L 30.7764,12.1022 L 31.148,12.2283 L 31.5,12.4019 L 31.8263,12.6199 L 32.1213,12.8787
 L 32.3801,13.1737 L 32.5981,13.5 L 32.7716,13.8519 L 32.8978,14.2235 L 32.9743,14.6084 L 33,15
 L 32.9743,15.3916 L 32.8978,15.7764 L 32.7716,16.148 L 32.5981,16.5 L 32.3801,16.8263 L 32.1213,17.1213
 L 31.8263,17.3801 L 31.5,17.5981 L 31.148,17.7716 L 30.7764,17.8978 L 30.3916,17.9743 L 30,18
 z
M -16.1958,17.4872 L -16.3882,17.4489 L -16.574,17.3858 L -16.75,17.299 L -16.9131,17.19 L -17.0607,17.0607
 L -17.19,16.9131 L -17.299,16.75 L -17.3858,16.574 L -17.4489,16.3882 L -17.4872,16.1958 L -17.5,16
 L -17.4872,15.8042 L -17.4489,15.6118 L -17.3858,15.426 L -17.299,15.25 L -17.19,15.0869 L -17.0607,14.9393
 L -16.9131,14.81 L -16.75,14.701 L -16.574,14.6142 L -16.3882,14.5511 L -16.1958,14.5128 L -16,14.5
 L -15.8042,14.5128 L -15.6118,14.5511 L -15.426,14.6142 L -15.25,14.701 L -15.0869,14.81 L -14.9393,14.9393
 L -14.81,15.0869 L -14.701,15.25 L -14.6142,15.426 L -14.5511,15.6118 L -14.5128,15.8042 L -14.5,16
 L -14.5128,16.1958 L -14.5511,16.3882 L -14.6142,16.574 L -14.701,16.75 L -14.81,16.9131 L -14.9393,17.0607
 L -15.0869,17.19 L -15.25,17.299 L -15.426,17.3858 L -15.6118,17.4489 L -15.8042,17.4872 L -16,17.5
 z
M 15.8042,17.4872 L 15.6118,17.4489 L 15.426,17.3858 L 15.25,17.299 L 15.0869,17.19 L 14.9393,17.0607
 L 14.81,16.9131 L 14.701,16.75 L 14.6142,16.574 L 14.5511,16.3882 L 14.5128,16.1958 L 14.5,16
 L 14.5128,15.8042 L 14.5511,15.6118 L 14.6142,15.426 L 14.701,15.25 L 14.81,15.0869 L 14.9393,14.9393
 L 15.0869,14.81 L 15.25,14.701 L 15.426,14.6142 L 15.6118,14.5511 L 15.8042,14.5128 L 16,14.5
 L 16.1958,14.5128 L 16.3882,14.5511 L 16.574,14.6142 L 16.75,14.701 L 16.9131,14.81 L 17.0607,14.9393
 L 17.19,15.0869 L 17.299,15.25 L 17.3858,15.426 L 17.4489,15.6118 L 17.4872,15.8042 L 17.5,16
 L 17.4872,16.1958 L 17.4489,16.3882 L 17.3858,16.574 L 17.299,16.75 L 17.19,16.9131 L 17.0607,17.0607
 L 16.9131,17.19 L 16.75,17.299 L 16.574,17.3858 L 16.3882,17.4489 L 16.1958,17.4872 L 16,17.5
 z
" stroke="black" fill="lightgray" stroke-width="0.5"/>
</svg>
