<?xml version="1.0" standalone="no"?>
<!DOCTYPE svg PUBLIC "-//W3C//DTD SVG 1.1//EN" "http://www.w3.org/Graphics/SVG/1.1/DTD/svg11.dtd">
<svg width="102mm" height="102mm" viewBox="-51 -51 102 102" xmlns="http://www.w3.org/2000/svg" version="1.1">
<title>OpenSCAD Model</title>
<path d="
M 9.55644,50.0966 L 15.7599,48.5039 L 21.7147,46.1462 L 27.3272,43.0607 L 32.5086,39.2962 L 37.1774,34.9119
 L 41.2599,29.977 L 44.6916,24.5694 L 47.4186,18.7743 L 49.3977,12.6832 L 50.5978,6.39198 L 51,-0
 L 50.5978,-6.39198 L 49.3977,-12.6832 L 47.4186,-18.7743 L 44.6916,-24.5694 L 41.2599,-29.977 L 37.1774,-34.9119
 L 32.5086,-39.2962 L 27.3272,-43.0607 L 21.7147,-46.1462 L 15.7599,-48.5039 L 9.55644,-50.0966 L 3.20232,-50.8994
 L -3.20232,-50.8994 L -9.55644,-50.0966 L -15.7599,-48.5039 L -21.7147,-46.1462 L -27.3272,-43.0607 L -32.5086,-39.2962
 L -37.1774,-34.9119 L -41.2599,-29.977 L -44.6916,-24.5694 L -47.4186,-18.7743 L -49.3977,-12.6832 L -50.5978,-6.39198
 L -51,-0 L -50.5978,6.39198 L -49.3977,12.6832 L -47.4186,18.7743 L -44.6916,24.5694 L -41.2599,29.977
 L -37.1774,34.9119 L -32.5086,39.2962 L -27.3272,43.0607 L -21.7147,46.1462 L -15.7599,48.5039 L -9.55644,50.0966
 L -3.20232,50.8994 L 3.20232,50.8994 z
" stroke="black" fill="lightgray" stroke-width="0.5"/>
</svg>
