<?xml version="1.0" standalone="no"?>
<!DOCTYPE svg PUBLIC "-//W3C//DTD SVG 1.1//EN" "http://www.w3.org/Graphics/SVG/1.1/DTD/svg11.dtd">
<svg width="44mm" height="44mm" viewBox="-22 -22 44 44" xmlns="http://www.w3.org/2000/svg" version="1.1">
<title>OpenSCAD Model</title>
<path d="
M 16.6576,20.9622 L 17.2991,20.8346 L 17.9184,20.6244 L 18.505,20.3351 L 19.0488,19.9718 L 19.5405,19.5405
 L 19.9718,19.0488 L 20.3351,18.505 L 20.6244,17.9184 L 20.8346,17.2991 L 20.9622,16.6576 L 21.005,16.005
 L 21.005,-16.005 L 20.9622,-16.6576 L 20.8346,-17.2991 L 20.6244,-17.9184 L 20.3351,-18.505 L 19.9718,-19.0488
 L 19.5405,-19.5405 L 19.0488,-19.9718 L 18.505,-20.3351 L 17.9184,-20.6244 L 17.2991,-20.8346 L 16.6576,-20.9622
 L 16.005,-21.005 L -16.005,-21.005 L -16.6576,-20.9622 L -17.2991,-20.8346 L -17.9184,-20.6244 L -18.505,-20.3351
 L -19.0488,-19.9718 L -19.5405,-19.5405 L -19.9718,-19.0488 L -20.3351,-18.505 L -20.6244,-17.9184 L -20.8346,-17.2991
 L -20.9622,-16.6576 L -21.005,-16.005 L -21.005,16.005 L -20.9622,16.6576 L -20.8346,17.2991 L -20.6244,17.9184
 L -20.3351,18.505 L -19.9718,19.0488 L -19.5405,19.5405 L -19.0488,19.9718 L -18.505,20.3351 L -17.9184,20.6244
 L -17.2991,20.8346 L -16.6576,20.9622 L -16.005,21.005 L 16.005,21.005 z
M -15.4242,-11.7778 L -15.8412,-11.8607 L -16.2437,-11.9974 L -16.625,-12.1854 L -16.9785,-12.4216 L -17.2981,-12.7019
 L -17.5784,-13.0215 L -17.8146,-13.375 L -18.0026,-13.7563 L -18.1393,-14.1588 L -18.2222,-14.5758 L -18.25,-15
 L -18.2222,-15.4242 L -18.1393,-15.8412 L -18.0026,-16.2437 L -17.8146,-16.625 L -17.5784,-16.9785 L -17.2981,-17.2981
 L -16.9785,-17.5784 L -16.625,-17.8146 L -16.2437,-18.0026 L -15.8412,-18.1393 L -15.4242,-18.2222 L -15,-18.25
 L -14.5758,-18.2222 L -14.1588,-18.1393 L -13.7563,-18.0026 L -13.375,-17.8146 L -13.0215,-17.5784 L -12.7019,-17.2981
 L -12.4216,-16.9785 L -12.1854,-16.625 L -11.9974,-16.2437 L -11.8607,-15.8412 L -11.7778,-15.4242 L -11.75,-15
 L -11.7778,-14.5758 L -11.8607,-14.1588 L -11.9974,-13.7563 L -12.1854,-13.375 L -12.4216,-13.0215 L -12.7019,-12.7019
 L -13.0215,-12.4216 L -13.375,-12.1854 L -13.7563,-11.9974 L -14.1588,-11.8607 L -14.5758,-11.7778 L -15,-11.75
 z
M 14.5758,-11.7778 L 14.1588,-11.8607 L 13.7563,-11.9974 L 13.375,-12.1854 L 13.0215,-12.4216 L 12.7019,-12.7019
 L 12.4216,-13.0215 L 12.1854,-13.375 L 11.9974,-13.7563 L 11.8607,-14.1588 L 11.7778,-14.5758 L 11.75,-15
 L 11.7778,-15.4242 L 11.8607,-15.8412 L 11.9974,-16.2437 L 12.1854,-16.625 L 12.4216,-16.9785 L 12.7019,-17.2981
 L 13.0215,-17.5784 L 13.375,-17.8146 L 13.7563,-18.0026 L 14.1588,-18.1393 L 14.5758,-18.2222 L 15,-18.25
 L 15.4242,-18.2222 L 15.8412,-18.1393 L 16.2437,-18.0026 L 16.625,-17.8146 L 16.9785,-17.5784 L 17.2981,-17.2981
 L 17.5784,-16.9785 L 17.8146,-16.625 L 18.0026,-16.2437 L 18.1393,-15.8412 L 18.2222,-15.4242 L 18.25,-15
 L 18.2222,-14.5758 L 18.1393,-14.1588 L 18.0026,-13.7563 L 17.8146,-13.375 L 17.5784,-13.0215 L 17.2981,-12.7019
 L 16.9785,-12.4216 L 16.625,-12.1854 L 16.2437,-11.9974 L 15.8412,-11.8607 L 15.4242,-11.7778 L 15,-11.75
 z
M -0.42421,-11.7778 L -0.841156,-11.8607 L -1.24371,-11.9974 L -1.625,-12.1854 L -1.97847,-12.4216 L -2.2981,-12.7019
 L -2.57838,-13.0215 L -2.81458,-13.375 L -3.00259,-13.7563 L -3.13925,-14.1588 L -3.22218,-14.5758 L -3.25,-15
 L -3.22218,-15.4242 L -3.13925,-15.8412 L -3.00259,-16.2437 L -2.81458,-16.625 L -2.57838,-16.9785 L -2.2981,-17.2981
 L -1.97847,-17.5784 L -1.625,-17.8146 L -1.24371,-18.0026 L -0.841156,-18.1393 L -0.42421,-18.2222 L 0,-18.25
 L 0.42421,-18.2222 L 0.841156,-18.1393 L 1.24371,-18.0026 L 1.625,-17.8146 L 1.97847,-17.5784 L 2.2981,-17.2981
 L 2.57838,-16.9785 L 2.81458,-16.625 L 3.00259,-16.2437 L 3.13925,-15.8412 L 3.22218,-15.4242 L 3.25,-15
 L 3.22218,-14.5758 L 3.13925,-14.1588 L 3.00259,-13.7563 L 2.81458,-13.375 L 2.57838,-13.0215 L 2.2981,-12.7019
 L 1.97847,-12.4216 L 1.625,-12.1854 L 1.24371,-11.9974 L 0.841156,-11.8607 L 0.42421,-11.7778 L 0,-11.75
 z
M -9.66689,-7.75954 L -9.88498,-7.80292 L -10.0956,-7.87439 L -10.295,-7.97275 L -10.4799,-8.0963 L -10.6471,-8.2429
 L -10.7937,-8.4101 L -10.9172,-8.59499 L -11.0156,-8.79443 L -11.0871,-9.005 L -11.1304,-9.2231 L -11.145,-9.44499
 L -11.1304,-9.66689 L -11.0871,-9.88498 L -11.0156,-10.0956 L -10.9172,-10.295 L -10.7937,-10.4799 L -10.6471,-10.6471
 L -10.4799,-10.7937 L -10.295,-10.9172 L -10.0956,-11.0156 L -9.88498,-11.0871 L -9.66689,-11.1304 L -9.44499,-11.145
 L -9.2231,-11.1304 L -9.005,-11.0871 L -8.79443,-11.0156 L -8.59499,-10.9172 L -8.4101,-10.7937 L -8.2429,-10.6471
 L -8.0963,-10.4799 L -7.97275,-10.295 L -7.87439,-10.0956 L -7.80292,-9.88498 L -7.75954,-9.66689 L -7.745,-9.44499
 L -7.75954,-9.2231 L -7.80292,-9.005 L -7.87439,-8.79443 L -7.97275,-8.59499 L -8.0963,-8.4101 L -8.2429,-8.2429
 L -8.4101,-8.0963 L -8.59499,-7.97275 L -8.79443,-7.87439 L -9.005,-7.80292 L -9.2231,-7.75954 L -9.44499,-7.745
 z
M 9.2231,-7.75954 L 9.005,-7.80292 L 8.79443,-7.87439 L 8.59499,-7.97275 L 8.4101,-8.0963 L 8.2429,-8.2429
 L 8.0963,-8.4101 L 7.97275,-8.59499 L 7.87439,-8.79443 L 7.80292,-9.005 L 7.75954,-9.2231 L 7.745,-9.44499
 L 7.75954,-9.66689 L 7.80292,-9.88498 L 7.87439,-10.0956 L 7.97275,-10.295 L 8.0963,-10.4799 L 8.2429,-10.6471
 L 8.4101,-10.7937 L 8.59499,-10.9172 L 8.79443,-11.0156 L 9.005,-11.0871 L 9.2231,-11.1304 L 9.44499,-11.145
 L 9.66689,-11.1304 L 9.88498,-11.0871 L 10.0956,-11.0156 L 10.295,-10.9172 L 10.4799,-10.7937 L 10.6471,-10.6471
 L 10.7937,-10.4799 L 10.9172,-10.295 L 11.0156,-10.0956 L 11.0871,-9.88498 L 11.1304,-9.66689 L 11.145,-9.44499
 L 11.1304,-9.2231 L 11.0871,-9.005 L 11.0156,-8.79443 L 10.9172,-8.59499 L 10.7937,-8.4101 L 10.6471,-8.2429
 L 10.4799,-8.0963 L 10.295,-7.97275 L 10.0956,-7.87439 L 9.88498,-7.80292 L 9.66689,-7.75954 L 9.44499,-7.745
 z
M -1.12578,8.55121 L -2.2323,8.3311 L -3.30064,7.96846 L -4.3125,7.46947 L -5.25056,6.84267 L -6.09879,6.09879
 L -6.84267,5.25056 L -7.46947,4.3125 L -7.96846,3.30064 L -8.3311,2.2323 L -8.55121,1.12578 L -8.625,-0
 L -8.55121,-1.12578 L -8.3311,-2.2323 L -7.96846,-3.30064 L -7.46947,-4.3125 L -6.84267,-5.25056 L -6.09879,-6.09879
 L -5.25056,-6.84267 L -4.3125,-7.46947 L -3.30064,-7.96846 L -2.2323,-8.3311 L -1.12578,-8.55121 L 0,-8.625
 L 1.12578,-8.55121 L 2.2323,-8.3311 L 3.30064,-7.96846 L 4.3125,-7.46947 L 5.25056,-6.84267 L 6.09879,-6.09879
 L 6.84267,-5.25056 L 7.46947,-4.3125 L 7.96846,-3.30064 L 8.3311,-2.2323 L 8.55121,-1.12578 L 8.625,-0
 L 8.55121,1.12578 L 8.3311,2.2323 L 7.96846,3.30064 L 7.46947,4.3125 L 6.84267,5.25056 L 6.09879,6.09879
 L 5.25056,6.84267 L 4.3125,7.46947 L 3.30064,7.96846 L 2.2323,8.3311 L 1.12578,8.55121 L 0,8.625
 z
M -15.4242,3.22218 L -15.8412,3.13925 L -16.2437,3.00259 L -16.625,2.81458 L -16.9785,2.57838 L -17.2981,2.2981
 L -17.5784,1.97847 L -17.8146,1.625 L -18.0026,1.24371 L -18.1393,0.841156 L -18.2222,0.42421 L -18.25,-0
 L -18.2222,-0.42421 L -18.1393,-0.841156 L -18.0026,-1.24371 L -17.8146,-1.625 L -17.5784,-1.97847 L -17.2981,-2.2981
 L -16.9785,-2.57838 L -16.625,-2.81458 L -16.2437,-3.00259 L -15.8412,-3.13925 L -15.4242,-3.22218 L -15,-3.25
 L -14.5758,-3.22218 L -14.1588,-3.13925 L -13.7563,-3.00259 L -13.375,-2.81458 L -13.0215,-2.57838 L -12.7019,-2.2981
 L -12.4216,-1.97847 L -12.1854,-1.625 L -11.9974,-1.24371 L -11.8607,-0.841156 L -11.7778,-0.42421 L -11.75,-0
 L -11.7778,0.42421 L -11.8607,0.841156 L -11.9974,1.24371 L -12.1854,1.625 L -12.4216,1.97847 L -12.7019,2.2981
 L -13.0215,2.57838 L -13.375,2.81458 L -13.7563,3.00259 L -14.1588,3.13925 L -14.5758,3.22218 L -15,3.25
 z
M 14.5758,3.22218 L 14.1588,3.13925 L 13.7563,3.00259 L 13.375,2.81458 L 13.0215,2.57838 L 12.7019,2.2981
 L 12.4216,1.97847 L 12.1854,1.625 L 11.9974,1.24371 L 11.8607,0.841156 L 11.7778,0.42421 L 11.75,-0
 L 11.7778,-0.42421 L 11.8607,-0.841156 L 11.9974,-1.24371 L 12.1854,-1.625 L 12.4216,-1.97847 L 12.7019,-2.2981
 L 13.0215,-2.57838 L 13.375,-2.81458 L 13.7563,-3.00259 L 14.1588,-3.13925 L 14.5758,-3.22218 L 15,-3.25
 L 15.4242,-3.22218 L 15.8412,-3.13925 L 16.2437,-3.00259 L 16.625,-2.81458 L 16.9785,-2.57838 L 17.2981,-2.2981
 L 17.5784,-1.97847 L 17.8146,-1.625 L 18.0026,-1.24371 L 18.1393,-0.841156 L 18.2222,-0.42421 L 18.25,-0
 L 18.2222,0.42421 L 18.1393,0.841156 L 18.0026,1.24371 L 17.8146,1.625 L 17.5784,1.97847 L 17.2981,2.2981
 L 16.9785,2.57838 L 16.625,2.81458 L 16.2437,3.00259 L 15.8412,3.13925 L 15.4242,3.22218 L 15,3.25
 z
M 9.2231,11.1304 L 9.005,11.0871 L 8.79443,11.0156 L 8.59499,10.9172 L 8.4101,10.7937 L 8.2429,10.6471
 L 8.0963,10.4799 L 7.97275,10.295 L 7.87439,10.0956 L 7.80292,9.88498 L 7.75954,9.66689 L 7.745,9.44499
 L 7.75954,9.2231 L 7.80292,9.005 L 7.87439,8.79443 L 7.97275,8.59499 L 8.0963,8.4101 L 8.2429,8.2429
 L 8.4101,8.0963 L 8.59499,7.97275 L 8.79443,7.87439 L 9.005,7.80292 L 9.2231,7.75954 L 9.44499,7.745
 L 9.66689,7.75954 L 9.88498,7.80292 L 10.0956,7.87439 L 10.295,7.97275 L 10.4799,8.0963 L 10.6471,8.2429
 L 10.7937,8.4101 L 10.9172,8.59499 L 11.0156,8.79443 L 11.0871,9.005 L 11.1304,9.2231 L 11.145,9.44499
 L 11.1304,9.66689 L 11.0871,9.88498 L 11.0156,10.0956 L 10.9172,10.295 L 10.7937,10.4799 L 10.6471,10.6471
 L 10.4799,10.7937 L 10.295,10.9172 L 10.0956,11.0156 L 9.88498,11.0871 L 9.66689,11.1304 L 9.44499,11.145
 z
M -9.66689,11.1304 L -9.88498,11.0871 L -10.0956,11.0156 L -10.295,10.9172 L -10.4799,10.7937 L -10.6471,10.6471
 L -10.7937,10.4799 L -10.9172,10.295 L -11.0156,10.0956 L -11.0871,9.88498 L -11.1304,9.66689 L -11.145,9.44499
 L -11.1304,9.2231 L -11.0871,9.005 L -11.0156,8.79443 L -10.9172,8.59499 L -10.7937,8.4101 L -10.6471,8.2429
 L -10.4799,8.0963 L -10.295,7.97275 L -10.0956,7.87439 L -9.88498,7.80292 L -9.66689,7.75954 L -9.44499,7.745
 L -9.2231,7.75954 L -9.005,7.80292 L -8.79443,7.87439 L -8.59499,7.97275 L -8.4101,8.0963 L -8.2429,8.2429
 L -8.0963,8.4101 L -7.97275,8.59499 L -7.87439,8.79443 L -7.80292,9.005 L -7.75954,9.2231 L -7.745,9.44499
 L -7.75954,9.66689 L -7.80292,9.88498 L -7.87439,10.0956 L -7.97275,10.295 L -8.0963,10.4799 L -8.2429,10.6471
 L -8.4101,10.7937 L -8.59499,10.9172 L -8.79443,11.0156 L -9.005,11.0871 L -9.2231,11.1304 L -9.44499,11.145
 z
M -15.4242,18.2222 L -15.8412,18.1393 L -16.2437,18.0026 L -16.625,17.8146 L -16.9785,17.5784 L -17.2981,17.2981
 L -17.5784,16.9785 L -17.8146,16.625 L -18.0026,16.2437 L -18.1393,15.8412 L -18.2222,15.4242 L -18.25,15
 L -18.2222,14.5758 L -18.1393,14.1588 L -18.0026,13.7563 L -17.8146,13.375 L -17.5784,13.0215 L -17.2981,12.7019
 L -16.9785,12.4216 L -16.625,12.1854 L -16.2437,11.9974 L -15.8412,11.8607 L -15.4242,11.7778 L -15,11.75
 L -14.5758,11.7778 L -14.1588,11.8607 L -13.7563,11.9974 L -13.375,12.1854 L -13.0215,12.4216 L -12.7019,12.7019
 L -12.4216,13.0215 L -12.1854,13.375 L -11.9974,13.7563 L -11.8607,14.1588 L -11.7778,14.5758 L -11.75,15
 L -11.7778,15.4242 L -11.8607,15.8412 L -11.9974,16.2437 L -12.1854,16.625 L -12.4216,16.9785 L -12.7019,17.2981
 L -13.0215,17.5784 L -13.375,17.8146 L -13.7563,18.0026 L -14.1588,18.1393 L -14.5758,18.2222 L -15,18.25
 z
M 14.5758,18.2222 L 14.1588,18.1393 L 13.7563,18.0026 L 13.375,17.8146 L 13.0215,17.5784 L 12.7019,17.2981
 L 12.4216,16.9785 L 12.1854,16.625 L 11.9974,16.2437 L 11.8607,15.8412 L 11.7778,15.4242 L 11.75,15
 L 11.7778,14.5758 L 11.8607,14.1588 L 11.9974,13.7563 L 12.1854,13.375 L 12.4216,13.0215 L 12.7019,12.7019
 L 13.0215,12.4216 L 13.375,12.1854 L 13.7563,11.9974 L 14.1588,11.8607 L 14.5758,11.7778 L 15,11.75
 L 15.4242,11.7778 L 15.8412,11.8607 L 16.2437,11.9974 L 16.625,12.1854 L 16.9785,12.4216 L 17.2981,12.7019
 L 17.5784,13.0215 L 17.8146,13.375 L 18.0026,13.7563 L 18.1393,14.1588 L 18.2222,14.5758 L 18.25,15
 L 18.2222,15.4242 L 18.1393,15.8412 L 18.0026,16.2437 L 17.8146,16.625 L 17.5784,16.9785 L 17.2981,17.2981
 L 16.9785,17.5784 L 16.625,17.8146 L 16.2437,18.0026 L 15.8412,18.1393 L 15.4242,18.2222 L 15,18.25
 z
M -0.42421,18.2222 L -0.841156,18.1393 L -1.24371,18.0026 L -1.625,17.8146 L -1.97847,17.5784 L -2.2981,17.2981
 L -2.57838,16.9785 L -2.81458,16.625 L -3.00259,16.2437 L -3.13925,15.8412 L -3.22218,15.4242 L -3.25,15
 L -3.22218,14.5758 L -3.13925,14.1588 L -3.00259,13.7563 L -2.81458,13.375 L -2.57838,13.0215 L -2.2981,12.7019
 L -1.97847,12.4216 L -1.625,12.1854 L -1.24371,11.9974 L -0.841156,11.8607 L -0.42421,11.7778 L 0,11.75
 L 0.42421,11.7778 L 0.841156,11.8607 L 1.24371,11.9974 L 1.625,12.1854 L 1.97847,12.4216 L 2.2981,12.7019
 L 2.57838,13.0215 L 2.81458,13.375 L 3.00259,13.7563 L 3.13925,14.1588 L 3.22218,14.5758 L 3.25,15
 L 3.22218,15.4242 L 3.13925,15.8412 L 3.00259,16.2437 L 2.81458,16.625 L 2.57838,16.9785 L 2.2981,17.2981
 L 1.97847,17.5784 L 1.625,17.8146 L 1.24371,18.0026 L 0.841156,18.1393 L 0.42421,18.2222 L 0,18.25
 z
" stroke="black" fill="lightgray" stroke-width="0.5"/>
</svg>
