  0
SECTION
  2
BLOCKS
  0
ENDSEC
  0
SECTION
  2
ENTITIES
  0
LINE
  8
0
 10
16.6576
 20
-20.9622
 11
17.2991
 21
-20.8346
  0
LINE
  8
0
 10
17.2991
 20
-20.8346
 11
17.9184
 21
-20.6244
  0
LINE
  8
0
 10
17.9184
 20
-20.6244
 11
18.505
 21
-20.3351
  0
LINE
  8
0
 10
18.505
 20
-20.3351
 11
19.0488
 21
-19.9718
  0
LINE
  8
0
 10
19.0488
 20
-19.9718
 11
19.5405
 21
-19.5405
  0
LINE
  8
0
 10
19.5405
 20
-19.5405
 11
19.9718
 21
-19.0488
  0
LINE
  8
0
 10
19.9718
 20
-19.0488
 11
20.3351
 21
-18.505
  0
LINE
  8
0
 10
20.3351
 20
-18.505
 11
20.6244
 21
-17.9184
  0
LINE
  8
0
 10
20.6244
 20
-17.9184
 11
20.8346
 21
-17.2991
  0
LINE
  8
0
 10
20.8346
 20
-17.2991
 11
20.9622
 21
-16.6576
  0
LINE
  8
0
 10
20.9622
 20
-16.6576
 11
21.005
 21
-16.005
  0
LINE
  8
0
 10
21.005
 20
-16.005
 11
21.005
 21
16.005
  0
LINE
  8
0
 10
21.005
 20
16.005
 11
20.9622
 21
16.6576
  0
LINE
  8
0
 10
20.9622
 20
16.6576
 11
20.8346
 21
17.2991
  0
LINE
  8
0
 10
20.8346
 20
17.2991
 11
20.6244
 21
17.9184
  0
LINE
  8
0
 10
20.6244
 20
17.9184
 11
20.3351
 21
18.505
  0
LINE
  8
0
 10
20.3351
 20
18.505
 11
19.9718
 21
19.0488
  0
LINE
  8
0
 10
19.9718
 20
19.0488
 11
19.5405
 21
19.5405
  0
LINE
  8
0
 10
19.5405
 20
19.5405
 11
19.0488
 21
19.9718
  0
LINE
  8
0
 10
19.0488
 20
19.9718
 11
18.505
 21
20.3351
  0
LINE
  8
0
 10
18.505
 20
20.3351
 11
17.9184
 21
20.6244
  0
LINE
  8
0
 10
17.9184
 20
20.6244
 11
17.2991
 21
20.8346
  0
LINE
  8
0
 10
17.2991
 20
20.8346
 11
16.6576
 21
20.9622
  0
LINE
  8
0
 10
16.6576
 20
20.9622
 11
16.005
 21
21.005
  0
LINE
  8
0
 10
16.005
 20
21.005
 11
-16.005
 21
21.005
  0
LINE
  8
0
 10
-16.005
 20
21.005
 11
-16.6576
 21
20.9622
  0
LINE
  8
0
 10
-16.6576
 20
20.9622
 11
-17.2991
 21
20.8346
  0
LINE
  8
0
 10
-17.2991
 20
20.8346
 11
-17.9184
 21
20.6244
  0
LINE
  8
0
 10
-17.9184
 20
20.6244
 11
-18.505
 21
20.3351
  0
LINE
  8
0
 10
-18.505
 20
20.3351
 11
-19.0488
 21
19.9718
  0
LINE
  8
0
 10
-19.0488
 20
19.9718
 11
-19.5405
 21
19.5405
  0
LINE
  8
0
 10
-19.5405
 20
19.5405
 11
-19.9718
 21
19.0488
  0
LINE
  8
0
 10
-19.9718
 20
19.0488
 11
-20.3351
 21
18.505
  0
LINE
  8
0
 10
-20.3351
 20
18.505
 11
-20.6244
 21
17.9184
  0
LINE
  8
0
 10
-20.6244
 20
17.9184
 11
-20.8346
 21
17.2991
  0
LINE
  8
0
 10
-20.8346
 20
17.2991
 11
-20.9622
 21
16.6576
  0
LINE
  8
0
 10
-20.9622
 20
16.6576
 11
-21.005
 21
16.005
  0
LINE
  8
0
 10
-21.005
 20
16.005
 11
-21.005
 21
-16.005
  0
LINE
  8
0
 10
-21.005
 20
-16.005
 11
-20.9622
 21
-16.6576
  0
LINE
  8
0
 10
-20.9622
 20
-16.6576
 11
-20.8346
 21
-17.2991
  0
LINE
  8
0
 10
-20.8346
 20
-17.2991
 11
-20.6244
 21
-17.9184
  0
LINE
  8
0
 10
-20.6244
 20
-17.9184
 11
-20.3351
 21
-18.505
  0
LINE
  8
0
 10
-20.3351
 20
-18.505
 11
-19.9718
 21
-19.0488
  0
LINE
  8
0
 10
-19.9718
 20
-19.0488
 11
-19.5405
 21
-19.5405
  0
LINE
  8
0
 10
-19.5405
 20
-19.5405
 11
-19.0488
 21
-19.9718
  0
LINE
  8
0
 10
-19.0488
 20
-19.9718
 11
-18.505
 21
-20.3351
  0
LINE
  8
0
 10
-18.505
 20
-20.3351
 11
-17.9184
 21
-20.6244
  0
LINE
  8
0
 10
-17.9184
 20
-20.6244
 11
-17.2991
 21
-20.8346
  0
LINE
  8
0
 10
-17.2991
 20
-20.8346
 11
-16.6576
 21
-20.9622
  0
LINE
  8
0
 10
-16.6576
 20
-20.9622
 11
-16.005
 21
-21.005
  0
LINE
  8
0
 10
-16.005
 20
-21.005
 11
16.005
 21
-21.005
  0
LINE
  8
0
 10
16.005
 20
-21.005
 11
16.6576
 21
-20.9622
  0
LINE
  8
0
 10
-0.391571
 20
12.0257
 11
-0.776443
 21
12.1022
  0
LINE
  8
0
 10
-0.776443
 20
12.1022
 11
-1.14804
 21
12.2283
  0
LINE
  8
0
 10
-1.14804
 20
12.2283
 11
-1.5
 21
12.4019
  0
LINE
  8
0
 10
-1.5
 20
12.4019
 11
-1.82628
 21
12.6199
  0
LINE
  8
0
 10
-1.82628
 20
12.6199
 11
-2.12131
 21
12.8787
  0
LINE
  8
0
 10
-2.12131
 20
12.8787
 11
-2.38005
 21
13.1737
  0
LINE
  8
0
 10
-2.38005
 20
13.1737
 11
-2.59807
 21
13.5
  0
LINE
  8
0
 10
-2.59807
 20
13.5
 11
-2.77164
 21
13.8519
  0
LINE
  8
0
 10
-2.77164
 20
13.8519
 11
-2.89777
 21
14.2235
  0
LINE
  8
0
 10
-2.89777
 20
14.2235
 11
-2.97432
 21
14.6084
  0
LINE
  8
0
 10
-2.97432
 20
14.6084
 11
-3
 21
15
  0
LINE
  8
0
 10
-3
 20
15
 11
-2.97432
 21
15.3916
  0
LINE
  8
0
 10
-2.97432
 20
15.3916
 11
-2.89777
 21
15.7764
  0
LINE
  8
0
 10
-2.89777
 20
15.7764
 11
-2.77164
 21
16.148
  0
LINE
  8
0
 10
-2.77164
 20
16.148
 11
-2.59807
 21
16.5
  0
LINE
  8
0
 10
-2.59807
 20
16.5
 11
-2.38005
 21
16.8263
  0
LINE
  8
0
 10
-2.38005
 20
16.8263
 11
-2.12131
 21
17.1213
  0
LINE
  8
0
 10
-2.12131
 20
17.1213
 11
-1.82628
 21
17.3801
  0
LINE
  8
0
 10
-1.82628
 20
17.3801
 11
-1.5
 21
17.5981
  0
LINE
  8
0
 10
-1.5
 20
17.5981
 11
-1.14804
 21
17.7716
  0
LINE
  8
0
 10
-1.14804
 20
17.7716
 11
-0.776443
 21
17.8978
  0
LINE
  8
0
 10
-0.776443
 20
17.8978
 11
-0.391571
 21
17.9743
  0
LINE
  8
0
 10
-0.391571
 20
17.9743
 11
0
 21
18
  0
LINE
  8
0
 10
0
 20
18
 11
0.391571
 21
17.9743
  0
LINE
  8
0
 10
0.391571
 20
17.9743
 11
0.776443
 21
17.8978
  0
LINE
  8
0
 10
0.776443
 20
17.8978
 11
1.14804
 21
17.7716
  0
LINE
  8
0
 10
1.14804
 20
17.7716
 11
1.5
 21
17.5981
  0
LINE
  8
0
 10
1.5
 20
17.5981
 11
1.82628
 21
17.3801
  0
LINE
  8
0
 10
1.82628
 20
17.3801
 11
2.12131
 21
17.1213
  0
LINE
  8
0
 10
2.12131
 20
17.1213
 11
2.38005
 21
16.8263
  0
LINE
  8
0
 10
2.38005
 20
16.8263
 11
2.59807
 21
16.5
  0
LINE
  8
0
 10
2.59807
 20
16.5
 11
2.77164
 21
16.148
  0
LINE
  8
0
 10
2.77164
 20
16.148
 11
2.89777
 21
15.7764
  0
LINE
  8
0
 10
2.89777
 20
15.7764
 11
2.97432
 21
15.3916
  0
LINE
  8
0
 10
2.97432
 20
15.3916
 11
3
 21
15
  0
LINE
  8
0
 10
3
 20
15
 11
2.97432
 21
14.6084
  0
LINE
  8
0
 10
2.97432
 20
14.6084
 11
2.89777
 21
14.2235
  0
LINE
  8
0
 10
2.89777
 20
14.2235
 11
2.77164
 21
13.8519
  0
LINE
  8
0
 10
2.77164
 20
13.8519
 11
2.59807
 21
13.5
  0
LINE
  8
0
 10
2.59807
 20
13.5
 11
2.38005
 21
13.1737
  0
LINE
  8
0
 10
2.38005
 20
13.1737
 11
2.12131
 21
12.8787
  0
LINE
  8
0
 10
2.12131
 20
12.8787
 11
1.82628
 21
12.6199
  0
LINE
  8
0
 10
1.82628
 20
12.6199
 11
1.5
 21
12.4019
  0
LINE
  8
0
 10
1.5
 20
12.4019
 11
1.14804
 21
12.2283
  0
LINE
  8
0
 10
1.14804
 20
12.2283
 11
0.776443
 21
12.1022
  0
LINE
  8
0
 10
0.776443
 20
12.1022
 11
0.391571
 21
12.0257
  0
LINE
  8
0
 10
0.391571
 20
12.0257
 11
0
 21
12
  0
LINE
  8
0
 10
0
 20
12
 11
-0.391571
 21
12.0257
  0
LINE
  8
0
 10
-15.3916
 20
12.0257
 11
-15.7764
 21
12.1022
  0
LINE
  8
0
 10
-15.7764
 20
12.1022
 11
-16.148
 21
12.2283
  0
LINE
  8
0
 10
-16.148
 20
12.2283
 11
-16.5
 21
12.4019
  0
LINE
  8
0
 10
-16.5
 20
12.4019
 11
-16.8263
 21
12.6199
  0
LINE
  8
0
 10
-16.8263
 20
12.6199
 11
-17.1213
 21
12.8787
  0
LINE
  8
0
 10
-17.1213
 20
12.8787
 11
-17.3801
 21
13.1737
  0
LINE
  8
0
 10
-17.3801
 20
13.1737
 11
-17.5981
 21
13.5
  0
LINE
  8
0
 10
-17.5981
 20
13.5
 11
-17.7716
 21
13.8519
  0
LINE
  8
0
 10
-17.7716
 20
13.8519
 11
-17.8978
 21
14.2235
  0
LINE
  8
0
 10
-17.8978
 20
14.2235
 11
-17.9743
 21
14.6084
  0
LINE
  8
0
 10
-17.9743
 20
14.6084
 11
-18
 21
15
  0
LINE
  8
0
 10
-18
 20
15
 11
-17.9743
 21
15.3916
  0
LINE
  8
0
 10
-17.9743
 20
15.3916
 11
-17.8978
 21
15.7764
  0
LINE
  8
0
 10
-17.8978
 20
15.7764
 11
-17.7716
 21
16.148
  0
LINE
  8
0
 10
-17.7716
 20
16.148
 11
-17.5981
 21
16.5
  0
LINE
  8
0
 10
-17.5981
 20
16.5
 11
-17.3801
 21
16.8263
  0
LINE
  8
0
 10
-17.3801
 20
16.8263
 11
-17.1213
 21
17.1213
  0
LINE
  8
0
 10
-17.1213
 20
17.1213
 11
-16.8263
 21
17.3801
  0
LINE
  8
0
 10
-16.8263
 20
17.3801
 11
-16.5
 21
17.5981
  0
LINE
  8
0
 10
-16.5
 20
17.5981
 11
-16.148
 21
17.7716
  0
LINE
  8
0
 10
-16.148
 20
17.7716
 11
-15.7764
 21
17.8978
  0
LINE
  8
0
 10
-15.7764
 20
17.8978
 11
-15.3916
 21
17.9743
  0
LINE
  8
0
 10
-15.3916
 20
17.9743
 11
-15
 21
18
  0
LINE
  8
0
 10
-15
 20
18
 11
-14.6084
 21
17.9743
  0
LINE
  8
0
 10
-14.6084
 20
17.9743
 11
-14.2235
 21
17.8978
  0
LINE
  8
0
 10
-14.2235
 20
17.8978
 11
-13.8519
 21
17.7716
  0
LINE
  8
0
 10
-13.8519
 20
17.7716
 11
-13.5
 21
17.5981
  0
LINE
  8
0
 10
-13.5
 20
17.5981
 11
-13.1737
 21
17.3801
  0
LINE
  8
0
 10
-13.1737
 20
17.3801
 11
-12.8787
 21
17.1213
  0
LINE
  8
0
 10
-12.8787
 20
17.1213
 11
-12.6199
 21
16.8263
  0
LINE
  8
0
 10
-12.6199
 20
16.8263
 11
-12.4019
 21
16.5
  0
LINE
  8
0
 10
-12.4019
 20
16.5
 11
-12.2283
 21
16.148
  0
LINE
  8
0
 10
-12.2283
 20
16.148
 11
-12.1022
 21
15.7764
  0
LINE
  8
0
 10
-12.1022
 20
15.7764
 11
-12.0257
 21
15.3916
  0
LINE
  8
0
 10
-12.0257
 20
15.3916
 11
-12
 21
15
  0
LINE
  8
0
 10
-12
 20
15
 11
-12.0257
 21
14.6084
  0
LINE
  8
0
 10
-12.0257
 20
14.6084
 11
-12.1022
 21
14.2235
  0
LINE
  8
0
 10
-12.1022
 20
14.2235
 11
-12.2283
 21
13.8519
  0
LINE
  8
0
 10
-12.2283
 20
13.8519
 11
-12.4019
 21
13.5
  0
LINE
  8
0
 10
-12.4019
 20
13.5
 11
-12.6199
 21
13.1737
  0
LINE
  8
0
 10
-12.6199
 20
13.1737
 11
-12.8787
 21
12.8787
  0
LINE
  8
0
 10
-12.8787
 20
12.8787
 11
-13.1737
 21
12.6199
  0
LINE
  8
0
 10
-13.1737
 20
12.6199
 11
-13.5
 21
12.4019
  0
LINE
  8
0
 10
-13.5
 20
12.4019
 11
-13.8519
 21
12.2283
  0
LINE
  8
0
 10
-13.8519
 20
12.2283
 11
-14.2235
 21
12.1022
  0
LINE
  8
0
 10
-14.2235
 20
12.1022
 11
-14.6084
 21
12.0257
  0
LINE
  8
0
 10
-14.6084
 20
12.0257
 11
-15
 21
12
  0
LINE
  8
0
 10
-15
 20
12
 11
-15.3916
 21
12.0257
  0
LINE
  8
0
 10
14.6084
 20
12.0257
 11
14.2235
 21
12.1022
  0
LINE
  8
0
 10
14.2235
 20
12.1022
 11
13.8519
 21
12.2283
  0
LINE
  8
0
 10
13.8519
 20
12.2283
 11
13.5
 21
12.4019
  0
LINE
  8
0
 10
13.5
 20
12.4019
 11
13.1737
 21
12.6199
  0
LINE
  8
0
 10
13.1737
 20
12.6199
 11
12.8787
 21
12.8787
  0
LINE
  8
0
 10
12.8787
 20
12.8787
 11
12.6199
 21
13.1737
  0
LINE
  8
0
 10
12.6199
 20
13.1737
 11
12.4019
 21
13.5
  0
LINE
  8
0
 10
12.4019
 20
13.5
 11
12.2283
 21
13.8519
  0
LINE
  8
0
 10
12.2283
 20
13.8519
 11
12.1022
 21
14.2235
  0
LINE
  8
0
 10
12.1022
 20
14.2235
 11
12.0257
 21
14.6084
  0
LINE
  8
0
 10
12.0257
 20
14.6084
 11
12
 21
15
  0
LINE
  8
0
 10
12
 20
15
 11
12.0257
 21
15.3916
  0
LINE
  8
0
 10
12.0257
 20
15.3916
 11
12.1022
 21
15.7764
  0
LINE
  8
0
 10
12.1022
 20
15.7764
 11
12.2283
 21
16.148
  0
LINE
  8
0
 10
12.2283
 20
16.148
 11
12.4019
 21
16.5
  0
LINE
  8
0
 10
12.4019
 20
16.5
 11
12.6199
 21
16.8263
  0
LINE
  8
0
 10
12.6199
 20
16.8263
 11
12.8787
 21
17.1213
  0
LINE
  8
0
 10
12.8787
 20
17.1213
 11
13.1737
 21
17.3801
  0
LINE
  8
0
 10
13.1737
 20
17.3801
 11
13.5
 21
17.5981
  0
LINE
  8
0
 10
13.5
 20
17.5981
 11
13.8519
 21
17.7716
  0
LINE
  8
0
 10
13.8519
 20
17.7716
 11
14.2235
 21
17.8978
  0
LINE
  8
0
 10
14.2235
 20
17.8978
 11
14.6084
 21
17.9743
  0
LINE
  8
0
 10
14.6084
 20
17.9743
 11
15
 21
18
  0
LINE
  8
0
 10
15
 20
18
 11
15.3916
 21
17.9743
  0
LINE
  8
0
 10
15.3916
 20
17.9743
 11
15.7764
 21
17.8978
  0
LINE
  8
0
 10
15.7764
 20
17.8978
 11
16.148
 21
17.7716
  0
LINE
  8
0
 10
16.148
 20
17.7716
 11
16.5
 21
17.5981
  0
LINE
  8
0
 10
16.5
 20
17.5981
 11
16.8263
 21
17.3801
  0
LINE
  8
0
 10
16.8263
 20
17.3801
 11
17.1213
 21
17.1213
  0
LINE
  8
0
 10
17.1213
 20
17.1213
 11
17.3801
 21
16.8263
  0
LINE
  8
0
 10
17.3801
 20
16.8263
 11
17.5981
 21
16.5
  0
LINE
  8
0
 10
17.5981
 20
16.5
 11
17.7716
 21
16.148
  0
LINE
  8
0
 10
17.7716
 20
16.148
 11
17.8978
 21
15.7764
  0
LINE
  8
0
 10
17.8978
 20
15.7764
 11
17.9743
 21
15.3916
  0
LINE
  8
0
 10
17.9743
 20
15.3916
 11
18
 21
15
  0
LINE
  8
0
 10
18
 20
15
 11
17.9743
 21
14.6084
  0
LINE
  8
0
 10
17.9743
 20
14.6084
 11
17.8978
 21
14.2235
  0
LINE
  8
0
 10
17.8978
 20
14.2235
 11
17.7716
 21
13.8519
  0
LINE
  8
0
 10
17.7716
 20
13.8519
 11
17.5981
 21
13.5
  0
LINE
  8
0
 10
17.5981
 20
13.5
 11
17.3801
 21
13.1737
  0
LINE
  8
0
 10
17.3801
 20
13.1737
 11
17.1213
 21
12.8787
  0
LINE
  8
0
 10
17.1213
 20
12.8787
 11
16.8263
 21
12.6199
  0
LINE
  8
0
 10
16.8263
 20
12.6199
 11
16.5
 21
12.4019
  0
LINE
  8
0
 10
16.5
 20
12.4019
 11
16.148
 21
12.2283
  0
LINE
  8
0
 10
16.148
 20
12.2283
 11
15.7764
 21
12.1022
  0
LINE
  8
0
 10
15.7764
 20
12.1022
 11
15.3916
 21
12.0257
  0
LINE
  8
0
 10
15.3916
 20
12.0257
 11
15
 21
12
  0
LINE
  8
0
 10
15
 20
12
 11
14.6084
 21
12.0257
  0
LINE
  8
0
 10
-9.64078
 20
7.95782
 11
-9.83322
 21
7.99611
  0
LINE
  8
0
 10
-9.83322
 20
7.99611
 11
-10.019
 21
8.05917
  0
LINE
  8
0
 10
-10.019
 20
8.05917
 11
-10.195
 21
8.14595
  0
LINE
  8
0
 10
-10.195
 20
8.14595
 11
-10.3581
 21
8.25496
  0
LINE
  8
0
 10
-10.3581
 20
8.25496
 11
-10.5056
 21
8.38434
  0
LINE
  8
0
 10
-10.5056
 20
8.38434
 11
-10.635
 21
8.53185
  0
LINE
  8
0
 10
-10.635
 20
8.53185
 11
-10.744
 21
8.69499
  0
LINE
  8
0
 10
-10.744
 20
8.69499
 11
-10.8308
 21
8.87097
  0
LINE
  8
0
 10
-10.8308
 20
8.87097
 11
-10.8939
 21
9.05676
  0
LINE
  8
0
 10
-10.8939
 20
9.05676
 11
-10.9322
 21
9.24921
  0
LINE
  8
0
 10
-10.9322
 20
9.24921
 11
-10.945
 21
9.44499
  0
LINE
  8
0
 10
-10.945
 20
9.44499
 11
-10.9322
 21
9.64078
  0
LINE
  8
0
 10
-10.9322
 20
9.64078
 11
-10.8939
 21
9.83322
  0
LINE
  8
0
 10
-10.8939
 20
9.83322
 11
-10.8308
 21
10.019
  0
LINE
  8
0
 10
-10.8308
 20
10.019
 11
-10.744
 21
10.195
  0
LINE
  8
0
 10
-10.744
 20
10.195
 11
-10.635
 21
10.3581
  0
LINE
  8
0
 10
-10.635
 20
10.3581
 11
-10.5056
 21
10.5056
  0
LINE
  8
0
 10
-10.5056
 20
10.5056
 11
-10.3581
 21
10.635
  0
LINE
  8
0
 10
-10.3581
 20
10.635
 11
-10.195
 21
10.744
  0
LINE
  8
0
 10
-10.195
 20
10.744
 11
-10.019
 21
10.8308
  0
LINE
  8
0
 10
-10.019
 20
10.8308
 11
-9.83322
 21
10.8939
  0
LINE
  8
0
 10
-9.83322
 20
10.8939
 11
-9.64078
 21
10.9322
  0
LINE
  8
0
 10
-9.64078
 20
10.9322
 11
-9.44499
 21
10.945
  0
LINE
  8
0
 10
-9.44499
 20
10.945
 11
-9.24921
 21
10.9322
  0
LINE
  8
0
 10
-9.24921
 20
10.9322
 11
-9.05676
 21
10.8939
  0
LINE
  8
0
 10
-9.05676
 20
10.8939
 11
-8.87097
 21
10.8308
  0
LINE
  8
0
 10
-8.87097
 20
10.8308
 11
-8.69499
 21
10.744
  0
LINE
  8
0
 10
-8.69499
 20
10.744
 11
-8.53185
 21
10.635
  0
LINE
  8
0
 10
-8.53185
 20
10.635
 11
-8.38434
 21
10.5056
  0
LINE
  8
0
 10
-8.38434
 20
10.5056
 11
-8.25496
 21
10.3581
  0
LINE
  8
0
 10
-8.25496
 20
10.3581
 11
-8.14595
 21
10.195
  0
LINE
  8
0
 10
-8.14595
 20
10.195
 11
-8.05917
 21
10.019
  0
LINE
  8
0
 10
-8.05917
 20
10.019
 11
-7.99611
 21
9.83322
  0
LINE
  8
0
 10
-7.99611
 20
9.83322
 11
-7.95782
 21
9.64078
  0
LINE
  8
0
 10
-7.95782
 20
9.64078
 11
-7.94499
 21
9.44499
  0
LINE
  8
0
 10
-7.94499
 20
9.44499
 11
-7.95782
 21
9.24921
  0
LINE
  8
0
 10
-7.95782
 20
9.24921
 11
-7.99611
 21
9.05676
  0
LINE
  8
0
 10
-7.99611
 20
9.05676
 11
-8.05917
 21
8.87097
  0
LINE
  8
0
 10
-8.05917
 20
8.87097
 11
-8.14595
 21
8.69499
  0
LINE
  8
0
 10
-8.14595
 20
8.69499
 11
-8.25496
 21
8.53185
  0
LINE
  8
0
 10
-8.25496
 20
8.53185
 11
-8.38434
 21
8.38434
  0
LINE
  8
0
 10
-8.38434
 20
8.38434
 11
-8.53185
 21
8.25496
  0
LINE
  8
0
 10
-8.53185
 20
8.25496
 11
-8.69499
 21
8.14595
  0
LINE
  8
0
 10
-8.69499
 20
8.14595
 11
-8.87097
 21
8.05917
  0
LINE
  8
0
 10
-8.87097
 20
8.05917
 11
-9.05676
 21
7.99611
  0
LINE
  8
0
 10
-9.05676
 20
7.99611
 11
-9.24921
 21
7.95782
  0
LINE
  8
0
 10
-9.24921
 20
7.95782
 11
-9.44499
 21
7.94499
  0
LINE
  8
0
 10
-9.44499
 20
7.94499
 11
-9.64078
 21
7.95782
  0
LINE
  8
0
 10
9.24921
 20
7.95782
 11
9.05676
 21
7.99611
  0
LINE
  8
0
 10
9.05676
 20
7.99611
 11
8.87097
 21
8.05917
  0
LINE
  8
0
 10
8.87097
 20
8.05917
 11
8.69499
 21
8.14595
  0
LINE
  8
0
 10
8.69499
 20
8.14595
 11
8.53185
 21
8.25496
  0
LINE
  8
0
 10
8.53185
 20
8.25496
 11
8.38434
 21
8.38434
  0
LINE
  8
0
 10
8.38434
 20
8.38434
 11
8.25496
 21
8.53185
  0
LINE
  8
0
 10
8.25496
 20
8.53185
 11
8.14595
 21
8.69499
  0
LINE
  8
0
 10
8.14595
 20
8.69499
 11
8.05917
 21
8.87097
  0
LINE
  8
0
 10
8.05917
 20
8.87097
 11
7.99611
 21
9.05676
  0
LINE
  8
0
 10
7.99611
 20
9.05676
 11
7.95782
 21
9.24921
  0
LINE
  8
0
 10
7.95782
 20
9.24921
 11
7.94499
 21
9.44499
  0
LINE
  8
0
 10
7.94499
 20
9.44499
 11
7.95782
 21
9.64078
  0
LINE
  8
0
 10
7.95782
 20
9.64078
 11
7.99611
 21
9.83322
  0
LINE
  8
0
 10
7.99611
 20
9.83322
 11
8.05917
 21
10.019
  0
LINE
  8
0
 10
8.05917
 20
10.019
 11
8.14595
 21
10.195
  0
LINE
  8
0
 10
8.14595
 20
10.195
 11
8.25496
 21
10.3581
  0
LINE
  8
0
 10
8.25496
 20
10.3581
 11
8.38434
 21
10.5056
  0
LINE
  8
0
 10
8.38434
 20
10.5056
 11
8.53185
 21
10.635
  0
LINE
  8
0
 10
8.53185
 20
10.635
 11
8.69499
 21
10.744
  0
LINE
  8
0
 10
8.69499
 20
10.744
 11
8.87097
 21
10.8308
  0
LINE
  8
0
 10
8.87097
 20
10.8308
 11
9.05676
 21
10.8939
  0
LINE
  8
0
 10
9.05676
 20
10.8939
 11
9.24921
 21
10.9322
  0
LINE
  8
0
 10
9.24921
 20
10.9322
 11
9.44499
 21
10.945
  0
LINE
  8
0
 10
9.44499
 20
10.945
 11
9.64078
 21
10.9322
  0
LINE
  8
0
 10
9.64078
 20
10.9322
 11
9.83322
 21
10.8939
  0
LINE
  8
0
 10
9.83322
 20
10.8939
 11
10.019
 21
10.8308
  0
LINE
  8
0
 10
10.019
 20
10.8308
 11
10.195
 21
10.744
  0
LINE
  8
0
 10
10.195
 20
10.744
 11
10.3581
 21
10.635
  0
LINE
  8
0
 10
10.3581
 20
10.635
 11
10.5056
 21
10.5056
  0
LINE
  8
0
 10
10.5056
 20
10.5056
 11
10.635
 21
10.3581
  0
LINE
  8
0
 10
10.635
 20
10.3581
 11
10.744
 21
10.195
  0
LINE
  8
0
 10
10.744
 20
10.195
 11
10.8308
 21
10.019
  0
LINE
  8
0
 10
10.8308
 20
10.019
 11
10.8939
 21
9.83322
  0
LINE
  8
0
 10
10.8939
 20
9.83322
 11
10.9322
 21
9.64078
  0
LINE
  8
0
 10
10.9322
 20
9.64078
 11
10.945
 21
9.44499
  0
LINE
  8
0
 10
10.945
 20
9.44499
 11
10.9322
 21
9.24921
  0
LINE
  8
0
 10
10.9322
 20
9.24921
 11
10.8939
 21
9.05676
  0
LINE
  8
0
 10
10.8939
 20
9.05676
 11
10.8308
 21
8.87097
  0
LINE
  8
0
 10
10.8308
 20
8.87097
 11
10.744
 21
8.69499
  0
LINE
  8
0
 10
10.744
 20
8.69499
 11
10.635
 21
8.53185
  0
LINE
  8
0
 10
10.635
 20
8.53185
 11
10.5056
 21
8.38434
  0
LINE
  8
0
 10
10.5056
 20
8.38434
 11
10.3581
 21
8.25496
  0
LINE
  8
0
 10
10.3581
 20
8.25496
 11
10.195
 21
8.14595
  0
LINE
  8
0
 10
10.195
 20
8.14595
 11
10.019
 21
8.05917
  0
LINE
  8
0
 10
10.019
 20
8.05917
 11
9.83322
 21
7.99611
  0
LINE
  8
0
 10
9.83322
 20
7.99611
 11
9.64078
 21
7.95782
  0
LINE
  8
0
 10
9.64078
 20
7.95782
 11
9.44499
 21
7.94499
  0
LINE
  8
0
 10
9.44499
 20
7.94499
 11
9.24921
 21
7.95782
  0
LINE
  8
0
 10
-1.10947
 20
-8.42728
 11
-2.19995
 21
-8.21036
  0
LINE
  8
0
 10
-2.19995
 20
-8.21036
 11
-3.25281
 21
-7.85297
  0
LINE
  8
0
 10
-3.25281
 20
-7.85297
 11
-4.25
 21
-7.36121
  0
LINE
  8
0
 10
-4.25
 20
-7.36121
 11
-5.17447
 21
-6.7435
  0
LINE
  8
0
 10
-5.17447
 20
-6.7435
 11
-6.01041
 21
-6.01041
  0
LINE
  8
0
 10
-6.01041
 20
-6.01041
 11
-6.7435
 21
-5.17447
  0
LINE
  8
0
 10
-6.7435
 20
-5.17447
 11
-7.36121
 21
-4.25
  0
LINE
  8
0
 10
-7.36121
 20
-4.25
 11
-7.85297
 21
-3.25281
  0
LINE
  8
0
 10
-7.85297
 20
-3.25281
 11
-8.21036
 21
-2.19995
  0
LINE
  8
0
 10
-8.21036
 20
-2.19995
 11
-8.42728
 21
-1.10947
  0
LINE
  8
0
 10
-8.42728
 20
-1.10947
 11
-8.5
 21
0
  0
LINE
  8
0
 10
-8.5
 20
0
 11
-8.42728
 21
1.10947
  0
LINE
  8
0
 10
-8.42728
 20
1.10947
 11
-8.21036
 21
2.19995
  0
LINE
  8
0
 10
-8.21036
 20
2.19995
 11
-7.85297
 21
3.25281
  0
LINE
  8
0
 10
-7.85297
 20
3.25281
 11
-7.36121
 21
4.25
  0
LINE
  8
0
 10
-7.36121
 20
4.25
 11
-6.7435
 21
5.17447
  0
LINE
  8
0
 10
-6.7435
 20
5.17447
 11
-6.01041
 21
6.01041
  0
LINE
  8
0
 10
-6.01041
 20
6.01041
 11
-5.17447
 21
6.7435
  0
LINE
  8
0
 10
-5.17447
 20
6.7435
 11
-4.25
 21
7.36121
  0
LINE
  8
0
 10
-4.25
 20
7.36121
 11
-3.25281
 21
7.85297
  0
LINE
  8
0
 10
-3.25281
 20
7.85297
 11
-2.19995
 21
8.21036
  0
LINE
  8
0
 10
-2.19995
 20
8.21036
 11
-1.10947
 21
8.42728
  0
LINE
  8
0
 10
-1.10947
 20
8.42728
 11
0
 21
8.5
  0
LINE
  8
0
 10
0
 20
8.5
 11
1.10947
 21
8.42728
  0
LINE
  8
0
 10
1.10947
 20
8.42728
 11
2.19995
 21
8.21036
  0
LINE
  8
0
 10
2.19995
 20
8.21036
 11
3.25281
 21
7.85297
  0
LINE
  8
0
 10
3.25281
 20
7.85297
 11
4.25
 21
7.36121
  0
LINE
  8
0
 10
4.25
 20
7.36121
 11
5.17447
 21
6.7435
  0
LINE
  8
0
 10
5.17447
 20
6.7435
 11
6.01041
 21
6.01041
  0
LINE
  8
0
 10
6.01041
 20
6.01041
 11
6.7435
 21
5.17447
  0
LINE
  8
0
 10
6.7435
 20
5.17447
 11
7.36121
 21
4.25
  0
LINE
  8
0
 10
7.36121
 20
4.25
 11
7.85297
 21
3.25281
  0
LINE
  8
0
 10
7.85297
 20
3.25281
 11
8.21036
 21
2.19995
  0
LINE
  8
0
 10
8.21036
 20
2.19995
 11
8.42728
 21
1.10947
  0
LINE
  8
0
 10
8.42728
 20
1.10947
 11
8.5
 21
0
  0
LINE
  8
0
 10
8.5
 20
0
 11
8.42728
 21
-1.10947
  0
LINE
  8
0
 10
8.42728
 20
-1.10947
 11
8.21036
 21
-2.19995
  0
LINE
  8
0
 10
8.21036
 20
-2.19995
 11
7.85297
 21
-3.25281
  0
LINE
  8
0
 10
7.85297
 20
-3.25281
 11
7.36121
 21
-4.25
  0
LINE
  8
0
 10
7.36121
 20
-4.25
 11
6.7435
 21
-5.17447
  0
LINE
  8
0
 10
6.7435
 20
-5.17447
 11
6.01041
 21
-6.01041
  0
LINE
  8
0
 10
6.01041
 20
-6.01041
 11
5.17447
 21
-6.7435
  0
LINE
  8
0
 10
5.17447
 20
-6.7435
 11
4.25
 21
-7.36121
  0
LINE
  8
0
 10
4.25
 20
-7.36121
 11
3.25281
 21
-7.85297
  0
LINE
  8
0
 10
3.25281
 20
-7.85297
 11
2.19995
 21
-8.21036
  0
LINE
  8
0
 10
2.19995
 20
-8.21036
 11
1.10947
 21
-8.42728
  0
LINE
  8
0
 10
1.10947
 20
-8.42728
 11
0
 21
-8.5
  0
LINE
  8
0
 10
0
 20
-8.5
 11
-1.10947
 21
-8.42728
  0
LINE
  8
0
 10
14.6084
 20
-2.97432
 11
14.2235
 21
-2.89777
  0
LINE
  8
0
 10
14.2235
 20
-2.89777
 11
13.8519
 21
-2.77164
  0
LINE
  8
0
 10
13.8519
 20
-2.77164
 11
13.5
 21
-2.59807
  0
LINE
  8
0
 10
13.5
 20
-2.59807
 11
13.1737
 21
-2.38005
  0
LINE
  8
0
 10
13.1737
 20
-2.38005
 11
12.8787
 21
-2.12131
  0
LINE
  8
0
 10
12.8787
 20
-2.12131
 11
12.6199
 21
-1.82628
  0
LINE
  8
0
 10
12.6199
 20
-1.82628
 11
12.4019
 21
-1.5
  0
LINE
  8
0
 10
12.4019
 20
-1.5
 11
12.2283
 21
-1.14804
  0
LINE
  8
0
 10
12.2283
 20
-1.14804
 11
12.1022
 21
-0.776443
  0
LINE
  8
0
 10
12.1022
 20
-0.776443
 11
12.0257
 21
-0.391571
  0
LINE
  8
0
 10
12.0257
 20
-0.391571
 11
12
 21
0
  0
LINE
  8
0
 10
12
 20
0
 11
12.0257
 21
0.391571
  0
LINE
  8
0
 10
12.0257
 20
0.391571
 11
12.1022
 21
0.776443
  0
LINE
  8
0
 10
12.1022
 20
0.776443
 11
12.2283
 21
1.14804
  0
LINE
  8
0
 10
12.2283
 20
1.14804
 11
12.4019
 21
1.5
  0
LINE
  8
0
 10
12.4019
 20
1.5
 11
12.6199
 21
1.82628
  0
LINE
  8
0
 10
12.6199
 20
1.82628
 11
12.8787
 21
2.12131
  0
LINE
  8
0
 10
12.8787
 20
2.12131
 11
13.1737
 21
2.38005
  0
LINE
  8
0
 10
13.1737
 20
2.38005
 11
13.5
 21
2.59807
  0
LINE
  8
0
 10
13.5
 20
2.59807
 11
13.8519
 21
2.77164
  0
LINE
  8
0
 10
13.8519
 20
2.77164
 11
14.2235
 21
2.89777
  0
LINE
  8
0
 10
14.2235
 20
2.89777
 11
14.6084
 21
2.97432
  0
LINE
  8
0
 10
14.6084
 20
2.97432
 11
15
 21
3
  0
LINE
  8
0
 10
15
 20
3
 11
15.3916
 21
2.97432
  0
LINE
  8
0
 10
15.3916
 20
2.97432
 11
15.7764
 21
2.89777
  0
LINE
  8
0
 10
15.7764
 20
2.89777
 11
16.148
 21
2.77164
  0
LINE
  8
0
 10
16.148
 20
2.77164
 11
16.5
 21
2.59807
  0
LINE
  8
0
 10
16.5
 20
2.59807
 11
16.8263
 21
2.38005
  0
LINE
  8
0
 10
16.8263
 20
2.38005
 11
17.1213
 21
2.12131
  0
LINE
  8
0
 10
17.1213
 20
2.12131
 11
17.3801
 21
1.82628
  0
LINE
  8
0
 10
17.3801
 20
1.82628
 11
17.5981
 21
1.5
  0
LINE
  8
0
 10
17.5981
 20
1.5
 11
17.7716
 21
1.14804
  0
LINE
  8
0
 10
17.7716
 20
1.14804
 11
17.8978
 21
0.776443
  0
LINE
  8
0
 10
17.8978
 20
0.776443
 11
17.9743
 21
0.391571
  0
LINE
  8
0
 10
17.9743
 20
0.391571
 11
18
 21
0
  0
LINE
  8
0
 10
18
 20
0
 11
17.9743
 21
-0.391571
  0
LINE
  8
0
 10
17.9743
 20
-0.391571
 11
17.8978
 21
-0.776443
  0
LINE
  8
0
 10
17.8978
 20
-0.776443
 11
17.7716
 21
-1.14804
  0
LINE
  8
0
 10
17.7716
 20
-1.14804
 11
17.5981
 21
-1.5
  0
LINE
  8
0
 10
17.5981
 20
-1.5
 11
17.3801
 21
-1.82628
  0
LINE
  8
0
 10
17.3801
 20
-1.82628
 11
17.1213
 21
-2.12131
  0
LINE
  8
0
 10
17.1213
 20
-2.12131
 11
16.8263
 21
-2.38005
  0
LINE
  8
0
 10
16.8263
 20
-2.38005
 11
16.5
 21
-2.59807
  0
LINE
  8
0
 10
16.5
 20
-2.59807
 11
16.148
 21
-2.77164
  0
LINE
  8
0
 10
16.148
 20
-2.77164
 11
15.7764
 21
-2.89777
  0
LINE
  8
0
 10
15.7764
 20
-2.89777
 11
15.3916
 21
-2.97432
  0
LINE
  8
0
 10
15.3916
 20
-2.97432
 11
15
 21
-3
  0
LINE
  8
0
 10
15
 20
-3
 11
14.6084
 21
-2.97432
  0
LINE
  8
0
 10
-15.3916
 20
-2.97432
 11
-15.7764
 21
-2.89777
  0
LINE
  8
0
 10
-15.7764
 20
-2.89777
 11
-16.148
 21
-2.77164
  0
LINE
  8
0
 10
-16.148
 20
-2.77164
 11
-16.5
 21
-2.59807
  0
LINE
  8
0
 10
-16.5
 20
-2.59807
 11
-16.8263
 21
-2.38005
  0
LINE
  8
0
 10
-16.8263
 20
-2.38005
 11
-17.1213
 21
-2.12131
  0
LINE
  8
0
 10
-17.1213
 20
-2.12131
 11
-17.3801
 21
-1.82628
  0
LINE
  8
0
 10
-17.3801
 20
-1.82628
 11
-17.5981
 21
-1.5
  0
LINE
  8
0
 10
-17.5981
 20
-1.5
 11
-17.7716
 21
-1.14804
  0
LINE
  8
0
 10
-17.7716
 20
-1.14804
 11
-17.8978
 21
-0.776443
  0
LINE
  8
0
 10
-17.8978
 20
-0.776443
 11
-17.9743
 21
-0.391571
  0
LINE
  8
0
 10
-17.9743
 20
-0.391571
 11
-18
 21
0
  0
LINE
  8
0
 10
-18
 20
0
 11
-17.9743
 21
0.391571
  0
LINE
  8
0
 10
-17.9743
 20
0.391571
 11
-17.8978
 21
0.776443
  0
LINE
  8
0
 10
-17.8978
 20
0.776443
 11
-17.7716
 21
1.14804
  0
LINE
  8
0
 10
-17.7716
 20
1.14804
 11
-17.5981
 21
1.5
  0
LINE
  8
0
 10
-17.5981
 20
1.5
 11
-17.3801
 21
1.82628
  0
LINE
  8
0
 10
-17.3801
 20
1.82628
 11
-17.1213
 21
2.12131
  0
LINE
  8
0
 10
-17.1213
 20
2.12131
 11
-16.8263
 21
2.38005
  0
LINE
  8
0
 10
-16.8263
 20
2.38005
 11
-16.5
 21
2.59807
  0
LINE
  8
0
 10
-16.5
 20
2.59807
 11
-16.148
 21
2.77164
  0
LINE
  8
0
 10
-16.148
 20
2.77164
 11
-15.7764
 21
2.89777
  0
LINE
  8
0
 10
-15.7764
 20
2.89777
 11
-15.3916
 21
2.97432
  0
LINE
  8
0
 10
-15.3916
 20
2.97432
 11
-15
 21
3
  0
LINE
  8
0
 10
-15
 20
3
 11
-14.6084
 21
2.97432
  0
LINE
  8
0
 10
-14.6084
 20
2.97432
 11
-14.2235
 21
2.89777
  0
LINE
  8
0
 10
-14.2235
 20
2.89777
 11
-13.8519
 21
2.77164
  0
LINE
  8
0
 10
-13.8519
 20
2.77164
 11
-13.5
 21
2.59807
  0
LINE
  8
0
 10
-13.5
 20
2.59807
 11
-13.1737
 21
2.38005
  0
LINE
  8
0
 10
-13.1737
 20
2.38005
 11
-12.8787
 21
2.12131
  0
LINE
  8
0
 10
-12.8787
 20
2.12131
 11
-12.6199
 21
1.82628
  0
LINE
  8
0
 10
-12.6199
 20
1.82628
 11
-12.4019
 21
1.5
  0
LINE
  8
0
 10
-12.4019
 20
1.5
 11
-12.2283
 21
1.14804
  0
LINE
  8
0
 10
-12.2283
 20
1.14804
 11
-12.1022
 21
0.776443
  0
LINE
  8
0
 10
-12.1022
 20
0.776443
 11
-12.0257
 21
0.391571
  0
LINE
  8
0
 10
-12.0257
 20
0.391571
 11
-12
 21
0
  0
LINE
  8
0
 10
-12
 20
0
 11
-12.0257
 21
-0.391571
  0
LINE
  8
0
 10
-12.0257
 20
-0.391571
 11
-12.1022
 21
-0.776443
  0
LINE
  8
0
 10
-12.1022
 20
-0.776443
 11
-12.2283
 21
-1.14804
  0
LINE
  8
0
 10
-12.2283
 20
-1.14804
 11
-12.4019
 21
-1.5
  0
LINE
  8
0
 10
-12.4019
 20
-1.5
 11
-12.6199
 21
-1.82628
  0
LINE
  8
0
 10
-12.6199
 20
-1.82628
 11
-12.8787
 21
-2.12131
  0
LINE
  8
0
 10
-12.8787
 20
-2.12131
 11
-13.1737
 21
-2.38005
  0
LINE
  8
0
 10
-13.1737
 20
-2.38005
 11
-13.5
 21
-2.59807
  0
LINE
  8
0
 10
-13.5
 20
-2.59807
 11
-13.8519
 21
-2.77164
  0
LINE
  8
0
 10
-13.8519
 20
-2.77164
 11
-14.2235
 21
-2.89777
  0
LINE
  8
0
 10
-14.2235
 20
-2.89777
 11
-14.6084
 21
-2.97432
  0
LINE
  8
0
 10
-14.6084
 20
-2.97432
 11
-15
 21
-3
  0
LINE
  8
0
 10
-15
 20
-3
 11
-15.3916
 21
-2.97432
  0
LINE
  8
0
 10
-9.64078
 20
-10.9322
 11
-9.83322
 21
-10.8939
  0
LINE
  8
0
 10
-9.83322
 20
-10.8939
 11
-10.019
 21
-10.8308
  0
LINE
  8
0
 10
-10.019
 20
-10.8308
 11
-10.195
 21
-10.744
  0
LINE
  8
0
 10
-10.195
 20
-10.744
 11
-10.3581
 21
-10.635
  0
LINE
  8
0
 10
-10.3581
 20
-10.635
 11
-10.5056
 21
-10.5056
  0
LINE
  8
0
 10
-10.5056
 20
-10.5056
 11
-10.635
 21
-10.3581
  0
LINE
  8
0
 10
-10.635
 20
-10.3581
 11
-10.744
 21
-10.195
  0
LINE
  8
0
 10
-10.744
 20
-10.195
 11
-10.8308
 21
-10.019
  0
LINE
  8
0
 10
-10.8308
 20
-10.019
 11
-10.8939
 21
-9.83322
  0
LINE
  8
0
 10
-10.8939
 20
-9.83322
 11
-10.9322
 21
-9.64078
  0
LINE
  8
0
 10
-10.9322
 20
-9.64078
 11
-10.945
 21
-9.44499
  0
LINE
  8
0
 10
-10.945
 20
-9.44499
 11
-10.9322
 21
-9.24921
  0
LINE
  8
0
 10
-10.9322
 20
-9.24921
 11
-10.8939
 21
-9.05676
  0
LINE
  8
0
 10
-10.8939
 20
-9.05676
 11
-10.8308
 21
-8.87097
  0
LINE
  8
0
 10
-10.8308
 20
-8.87097
 11
-10.744
 21
-8.69499
  0
LINE
  8
0
 10
-10.744
 20
-8.69499
 11
-10.635
 21
-8.53185
  0
LINE
  8
0
 10
-10.635
 20
-8.53185
 11
-10.5056
 21
-8.38434
  0
LINE
  8
0
 10
-10.5056
 20
-8.38434
 11
-10.3581
 21
-8.25496
  0
LINE
  8
0
 10
-10.3581
 20
-8.25496
 11
-10.195
 21
-8.14595
  0
LINE
  8
0
 10
-10.195
 20
-8.14595
 11
-10.019
 21
-8.05917
  0
LINE
  8
0
 10
-10.019
 20
-8.05917
 11
-9.83322
 21
-7.99611
  0
LINE
  8
0
 10
-9.83322
 20
-7.99611
 11
-9.64078
 21
-7.95782
  0
LINE
  8
0
 10
-9.64078
 20
-7.95782
 11
-9.44499
 21
-7.94499
  0
LINE
  8
0
 10
-9.44499
 20
-7.94499
 11
-9.24921
 21
-7.95782
  0
LINE
  8
0
 10
-9.24921
 20
-7.95782
 11
-9.05676
 21
-7.99611
  0
LINE
  8
0
 10
-9.05676
 20
-7.99611
 11
-8.87097
 21
-8.05917
  0
LINE
  8
0
 10
-8.87097
 20
-8.05917
 11
-8.69499
 21
-8.14595
  0
LINE
  8
0
 10
-8.69499
 20
-8.14595
 11
-8.53185
 21
-8.25496
  0
LINE
  8
0
 10
-8.53185
 20
-8.25496
 11
-8.38434
 21
-8.38434
  0
LINE
  8
0
 10
-8.38434
 20
-8.38434
 11
-8.25496
 21
-8.53185
  0
LINE
  8
0
 10
-8.25496
 20
-8.53185
 11
-8.14595
 21
-8.69499
  0
LINE
  8
0
 10
-8.14595
 20
-8.69499
 11
-8.05917
 21
-8.87097
  0
LINE
  8
0
 10
-8.05917
 20
-8.87097
 11
-7.99611
 21
-9.05676
  0
LINE
  8
0
 10
-7.99611
 20
-9.05676
 11
-7.95782
 21
-9.24921
  0
LINE
  8
0
 10
-7.95782
 20
-9.24921
 11
-7.94499
 21
-9.44499
  0
LINE
  8
0
 10
-7.94499
 20
-9.44499
 11
-7.95782
 21
-9.64078
  0
LINE
  8
0
 10
-7.95782
 20
-9.64078
 11
-7.99611
 21
-9.83322
  0
LINE
  8
0
 10
-7.99611
 20
-9.83322
 11
-8.05917
 21
-10.019
  0
LINE
  8
0
 10
-8.05917
 20
-10.019
 11
-8.14595
 21
-10.195
  0
LINE
  8
0
 10
-8.14595
 20
-10.195
 11
-8.25496
 21
-10.3581
  0
LINE
  8
0
 10
-8.25496
 20
-10.3581
 11
-8.38434
 21
-10.5056
  0
LINE
  8
0
 10
-8.38434
 20
-10.5056
 11
-8.53185
 21
-10.635
  0
LINE
  8
0
 10
-8.53185
 20
-10.635
 11
-8.69499
 21
-10.744
  0
LINE
  8
0
 10
-8.69499
 20
-10.744
 11
-8.87097
 21
-10.8308
  0
LINE
  8
0
 10
-8.87097
 20
-10.8308
 11
-9.05676
 21
-10.8939
  0
LINE
  8
0
 10
-9.05676
 20
-10.8939
 11
-9.24921
 21
-10.9322
  0
LINE
  8
0
 10
-9.24921
 20
-10.9322
 11
-9.44499
 21
-10.945
  0
LINE
  8
0
 10
-9.44499
 20
-10.945
 11
-9.64078
 21
-10.9322
  0
LINE
  8
0
 10
9.24921
 20
-10.9322
 11
9.05676
 21
-10.8939
  0
LINE
  8
0
 10
9.05676
 20
-10.8939
 11
8.87097
 21
-10.8308
  0
LINE
  8
0
 10
8.87097
 20
-10.8308
 11
8.69499
 21
-10.744
  0
LINE
  8
0
 10
8.69499
 20
-10.744
 11
8.53185
 21
-10.635
  0
LINE
  8
0
 10
8.53185
 20
-10.635
 11
8.38434
 21
-10.5056
  0
LINE
  8
0
 10
8.38434
 20
-10.5056
 11
8.25496
 21
-10.3581
  0
LINE
  8
0
 10
8.25496
 20
-10.3581
 11
8.14595
 21
-10.195
  0
LINE
  8
0
 10
8.14595
 20
-10.195
 11
8.05917
 21
-10.019
  0
LINE
  8
0
 10
8.05917
 20
-10.019
 11
7.99611
 21
-9.83322
  0
LINE
  8
0
 10
7.99611
 20
-9.83322
 11
7.95782
 21
-9.64078
  0
LINE
  8
0
 10
7.95782
 20
-9.64078
 11
7.94499
 21
-9.44499
  0
LINE
  8
0
 10
7.94499
 20
-9.44499
 11
7.95782
 21
-9.24921
  0
LINE
  8
0
 10
7.95782
 20
-9.24921
 11
7.99611
 21
-9.05676
  0
LINE
  8
0
 10
7.99611
 20
-9.05676
 11
8.05917
 21
-8.87097
  0
LINE
  8
0
 10
8.05917
 20
-8.87097
 11
8.14595
 21
-8.69499
  0
LINE
  8
0
 10
8.14595
 20
-8.69499
 11
8.25496
 21
-8.53185
  0
LINE
  8
0
 10
8.25496
 20
-8.53185
 11
8.38434
 21
-8.38434
  0
LINE
  8
0
 10
8.38434
 20
-8.38434
 11
8.53185
 21
-8.25496
  0
LINE
  8
0
 10
8.53185
 20
-8.25496
 11
8.69499
 21
-8.14595
  0
LINE
  8
0
 10
8.69499
 20
-8.14595
 11
8.87097
 21
-8.05917
  0
LINE
  8
0
 10
8.87097
 20
-8.05917
 11
9.05676
 21
-7.99611
  0
LINE
  8
0
 10
9.05676
 20
-7.99611
 11
9.24921
 21
-7.95782
  0
LINE
  8
0
 10
9.24921
 20
-7.95782
 11
9.44499
 21
-7.94499
  0
LINE
  8
0
 10
9.44499
 20
-7.94499
 11
9.64078
 21
-7.95782
  0
LINE
  8
0
 10
9.64078
 20
-7.95782
 11
9.83322
 21
-7.99611
  0
LINE
  8
0
 10
9.83322
 20
-7.99611
 11
10.019
 21
-8.05917
  0
LINE
  8
0
 10
10.019
 20
-8.05917
 11
10.195
 21
-8.14595
  0
LINE
  8
0
 10
10.195
 20
-8.14595
 11
10.3581
 21
-8.25496
  0
LINE
  8
0
 10
10.3581
 20
-8.25496
 11
10.5056
 21
-8.38434
  0
LINE
  8
0
 10
10.5056
 20
-8.38434
 11
10.635
 21
-8.53185
  0
LINE
  8
0
 10
10.635
 20
-8.53185
 11
10.744
 21
-8.69499
  0
LINE
  8
0
 10
10.744
 20
-8.69499
 11
10.8308
 21
-8.87097
  0
LINE
  8
0
 10
10.8308
 20
-8.87097
 11
10.8939
 21
-9.05676
  0
LINE
  8
0
 10
10.8939
 20
-9.05676
 11
10.9322
 21
-9.24921
  0
LINE
  8
0
 10
10.9322
 20
-9.24921
 11
10.945
 21
-9.44499
  0
LINE
  8
0
 10
10.945
 20
-9.44499
 11
10.9322
 21
-9.64078
  0
LINE
  8
0
 10
10.9322
 20
-9.64078
 11
10.8939
 21
-9.83322
  0
LINE
  8
0
 10
10.8939
 20
-9.83322
 11
10.8308
 21
-10.019
  0
LINE
  8
0
 10
10.8308
 20
-10.019
 11
10.744
 21
-10.195
  0
LINE
  8
0
 10
10.744
 20
-10.195
 11
10.635
 21
-10.3581
  0
LINE
  8
0
 10
10.635
 20
-10.3581
 11
10.5056
 21
-10.5056
  0
LINE
  8
0
 10
10.5056
 20
-10.5056
 11
10.3581
 21
-10.635
  0
LINE
  8
0
 10
10.3581
 20
-10.635
 11
10.195
 21
-10.744
  0
LINE
  8
0
 10
10.195
 20
-10.744
 11
10.019
 21
-10.8308
  0
LINE
  8
0
 10
10.019
 20
-10.8308
 11
9.83322
 21
-10.8939
  0
LINE
  8
0
 10
9.83322
 20
-10.8939
 11
9.64078
 21
-10.9322
  0
LINE
  8
0
 10
9.64078
 20
-10.9322
 11
9.44499
 21
-10.945
  0
LINE
  8
0
 10
9.44499
 20
-10.945
 11
9.24921
 21
-10.9322
  0
LINE
  8
0
 10
-15.3916
 20
-17.9743
 11
-15.7764
 21
-17.8978
  0
LINE
  8
0
 10
-15.7764
 20
-17.8978
 11
-16.148
 21
-17.7716
  0
LINE
  8
0
 10
-16.148
 20
-17.7716
 11
-16.5
 21
-17.5981
  0
LINE
  8
0
 10
-16.5
 20
-17.5981
 11
-16.8263
 21
-17.3801
  0
LINE
  8
0
 10
-16.8263
 20
-17.3801
 11
-17.1213
 21
-17.1213
  0
LINE
  8
0
 10
-17.1213
 20
-17.1213
 11
-17.3801
 21
-16.8263
  0
LINE
  8
0
 10
-17.3801
 20
-16.8263
 11
-17.5981
 21
-16.5
  0
LINE
  8
0
 10
-17.5981
 20
-16.5
 11
-17.7716
 21
-16.148
  0
LINE
  8
0
 10
-17.7716
 20
-16.148
 11
-17.8978
 21
-15.7764
  0
LINE
  8
0
 10
-17.8978
 20
-15.7764
 11
-17.9743
 21
-15.3916
  0
LINE
  8
0
 10
-17.9743
 20
-15.3916
 11
-18
 21
-15
  0
LINE
  8
0
 10
-18
 20
-15
 11
-17.9743
 21
-14.6084
  0
LINE
  8
0
 10
-17.9743
 20
-14.6084
 11
-17.8978
 21
-14.2235
  0
LINE
  8
0
 10
-17.8978
 20
-14.2235
 11
-17.7716
 21
-13.8519
  0
LINE
  8
0
 10
-17.7716
 20
-13.8519
 11
-17.5981
 21
-13.5
  0
LINE
  8
0
 10
-17.5981
 20
-13.5
 11
-17.3801
 21
-13.1737
  0
LINE
  8
0
 10
-17.3801
 20
-13.1737
 11
-17.1213
 21
-12.8787
  0
LINE
  8
0
 10
-17.1213
 20
-12.8787
 11
-16.8263
 21
-12.6199
  0
LINE
  8
0
 10
-16.8263
 20
-12.6199
 11
-16.5
 21
-12.4019
  0
LINE
  8
0
 10
-16.5
 20
-12.4019
 11
-16.148
 21
-12.2283
  0
LINE
  8
0
 10
-16.148
 20
-12.2283
 11
-15.7764
 21
-12.1022
  0
LINE
  8
0
 10
-15.7764
 20
-12.1022
 11
-15.3916
 21
-12.0257
  0
LINE
  8
0
 10
-15.3916
 20
-12.0257
 11
-15
 21
-12
  0
LINE
  8
0
 10
-15
 20
-12
 11
-14.6084
 21
-12.0257
  0
LINE
  8
0
 10
-14.6084
 20
-12.0257
 11
-14.2235
 21
-12.1022
  0
LINE
  8
0
 10
-14.2235
 20
-12.1022
 11
-13.8519
 21
-12.2283
  0
LINE
  8
0
 10
-13.8519
 20
-12.2283
 11
-13.5
 21
-12.4019
  0
LINE
  8
0
 10
-13.5
 20
-12.4019
 11
-13.1737
 21
-12.6199
  0
LINE
  8
0
 10
-13.1737
 20
-12.6199
 11
-12.8787
 21
-12.8787
  0
LINE
  8
0
 10
-12.8787
 20
-12.8787
 11
-12.6199
 21
-13.1737
  0
LINE
  8
0
 10
-12.6199
 20
-13.1737
 11
-12.4019
 21
-13.5
  0
LINE
  8
0
 10
-12.4019
 20
-13.5
 11
-12.2283
 21
-13.8519
  0
LINE
  8
0
 10
-12.2283
 20
-13.8519
 11
-12.1022
 21
-14.2235
  0
LINE
  8
0
 10
-12.1022
 20
-14.2235
 11
-12.0257
 21
-14.6084
  0
LINE
  8
0
 10
-12.0257
 20
-14.6084
 11
-12
 21
-15
  0
LINE
  8
0
 10
-12
 20
-15
 11
-12.0257
 21
-15.3916
  0
LINE
  8
0
 10
-12.0257
 20
-15.3916
 11
-12.1022
 21
-15.7764
  0
LINE
  8
0
 10
-12.1022
 20
-15.7764
 11
-12.2283
 21
-16.148
  0
LINE
  8
0
 10
-12.2283
 20
-16.148
 11
-12.4019
 21
-16.5
  0
LINE
  8
0
 10
-12.4019
 20
-16.5
 11
-12.6199
 21
-16.8263
  0
LINE
  8
0
 10
-12.6199
 20
-16.8263
 11
-12.8787
 21
-17.1213
  0
LINE
  8
0
 10
-12.8787
 20
-17.1213
 11
-13.1737
 21
-17.3801
  0
LINE
  8
0
 10
-13.1737
 20
-17.3801
 11
-13.5
 21
-17.5981
  0
LINE
  8
0
 10
-13.5
 20
-17.5981
 11
-13.8519
 21
-17.7716
  0
LINE
  8
0
 10
-13.8519
 20
-17.7716
 11
-14.2235
 21
-17.8978
  0
LINE
  8
0
 10
-14.2235
 20
-17.8978
 11
-14.6084
 21
-17.9743
  0
LINE
  8
0
 10
-14.6084
 20
-17.9743
 11
-15
 21
-18
  0
LINE
  8
0
 10
-15
 20
-18
 11
-15.3916
 21
-17.9743
  0
LINE
  8
0
 10
14.6084
 20
-17.9743
 11
14.2235
 21
-17.8978
  0
LINE
  8
0
 10
14.2235
 20
-17.8978
 11
13.8519
 21
-17.7716
  0
LINE
  8
0
 10
13.8519
 20
-17.7716
 11
13.5
 21
-17.5981
  0
LINE
  8
0
 10
13.5
 20
-17.5981
 11
13.1737
 21
-17.3801
  0
LINE
  8
0
 10
13.1737
 20
-17.3801
 11
12.8787
 21
-17.1213
  0
LINE
  8
0
 10
12.8787
 20
-17.1213
 11
12.6199
 21
-16.8263
  0
LINE
  8
0
 10
12.6199
 20
-16.8263
 11
12.4019
 21
-16.5
  0
LINE
  8
0
 10
12.4019
 20
-16.5
 11
12.2283
 21
-16.148
  0
LINE
  8
0
 10
12.2283
 20
-16.148
 11
12.1022
 21
-15.7764
  0
LINE
  8
0
 10
12.1022
 20
-15.7764
 11
12.0257
 21
-15.3916
  0
LINE
  8
0
 10
12.0257
 20
-15.3916
 11
12
 21
-15
  0
LINE
  8
0
 10
12
 20
-15
 11
12.0257
 21
-14.6084
  0
LINE
  8
0
 10
12.0257
 20
-14.6084
 11
12.1022
 21
-14.2235
  0
LINE
  8
0
 10
12.1022
 20
-14.2235
 11
12.2283
 21
-13.8519
  0
LINE
  8
0
 10
12.2283
 20
-13.8519
 11
12.4019
 21
-13.5
  0
LINE
  8
0
 10
12.4019
 20
-13.5
 11
12.6199
 21
-13.1737
  0
LINE
  8
0
 10
12.6199
 20
-13.1737
 11
12.8787
 21
-12.8787
  0
LINE
  8
0
 10
12.8787
 20
-12.8787
 11
13.1737
 21
-12.6199
  0
LINE
  8
0
 10
13.1737
 20
-12.6199
 11
13.5
 21
-12.4019
  0
LINE
  8
0
 10
13.5
 20
-12.4019
 11
13.8519
 21
-12.2283
  0
LINE
  8
0
 10
13.8519
 20
-12.2283
 11
14.2235
 21
-12.1022
  0
LINE
  8
0
 10
14.2235
 20
-12.1022
 11
14.6084
 21
-12.0257
  0
LINE
  8
0
 10
14.6084
 20
-12.0257
 11
15
 21
-12
  0
LINE
  8
0
 10
15
 20
-12
 11
15.3916
 21
-12.0257
  0
LINE
  8
0
 10
15.3916
 20
-12.0257
 11
15.7764
 21
-12.1022
  0
LINE
  8
0
 10
15.7764
 20
-12.1022
 11
16.148
 21
-12.2283
  0
LINE
  8
0
 10
16.148
 20
-12.2283
 11
16.5
 21
-12.4019
  0
LINE
  8
0
 10
16.5
 20
-12.4019
 11
16.8263
 21
-12.6199
  0
LINE
  8
0
 10
16.8263
 20
-12.6199
 11
17.1213
 21
-12.8787
  0
LINE
  8
0
 10
17.1213
 20
-12.8787
 11
17.3801
 21
-13.1737
  0
LINE
  8
0
 10
17.3801
 20
-13.1737
 11
17.5981
 21
-13.5
  0
LINE
  8
0
 10
17.5981
 20
-13.5
 11
17.7716
 21
-13.8519
  0
LINE
  8
0
 10
17.7716
 20
-13.8519
 11
17.8978
 21
-14.2235
  0
LINE
  8
0
 10
17.8978
 20
-14.2235
 11
17.9743
 21
-14.6084
  0
LINE
  8
0
 10
17.9743
 20
-14.6084
 11
18
 21
-15
  0
LINE
  8
0
 10
18
 20
-15
 11
17.9743
 21
-15.3916
  0
LINE
  8
0
 10
17.9743
 20
-15.3916
 11
17.8978
 21
-15.7764
  0
LINE
  8
0
 10
17.8978
 20
-15.7764
 11
17.7716
 21
-16.148
  0
LINE
  8
0
 10
17.7716
 20
-16.148
 11
17.5981
 21
-16.5
  0
LINE
  8
0
 10
17.5981
 20
-16.5
 11
17.3801
 21
-16.8263
  0
LINE
  8
0
 10
17.3801
 20
-16.8263
 11
17.1213
 21
-17.1213
  0
LINE
  8
0
 10
17.1213
 20
-17.1213
 11
16.8263
 21
-17.3801
  0
LINE
  8
0
 10
16.8263
 20
-17.3801
 11
16.5
 21
-17.5981
  0
LINE
  8
0
 10
16.5
 20
-17.5981
 11
16.148
 21
-17.7716
  0
LINE
  8
0
 10
16.148
 20
-17.7716
 11
15.7764
 21
-17.8978
  0
LINE
  8
0
 10
15.7764
 20
-17.8978
 11
15.3916
 21
-17.9743
  0
LINE
  8
0
 10
15.3916
 20
-17.9743
 11
15
 21
-18
  0
LINE
  8
0
 10
15
 20
-18
 11
14.6084
 21
-17.9743
  0
LINE
  8
0
 10
-0.391571
 20
-17.9743
 11
-0.776443
 21
-17.8978
  0
LINE
  8
0
 10
-0.776443
 20
-17.8978
 11
-1.14804
 21
-17.7716
  0
LINE
  8
0
 10
-1.14804
 20
-17.7716
 11
-1.5
 21
-17.5981
  0
LINE
  8
0
 10
-1.5
 20
-17.5981
 11
-1.82628
 21
-17.3801
  0
LINE
  8
0
 10
-1.82628
 20
-17.3801
 11
-2.12131
 21
-17.1213
  0
LINE
  8
0
 10
-2.12131
 20
-17.1213
 11
-2.38005
 21
-16.8263
  0
LINE
  8
0
 10
-2.38005
 20
-16.8263
 11
-2.59807
 21
-16.5
  0
LINE
  8
0
 10
-2.59807
 20
-16.5
 11
-2.77164
 21
-16.148
  0
LINE
  8
0
 10
-2.77164
 20
-16.148
 11
-2.89777
 21
-15.7764
  0
LINE
  8
0
 10
-2.89777
 20
-15.7764
 11
-2.97432
 21
-15.3916
  0
LINE
  8
0
 10
-2.97432
 20
-15.3916
 11
-3
 21
-15
  0
LINE
  8
0
 10
-3
 20
-15
 11
-2.97432
 21
-14.6084
  0
LINE
  8
0
 10
-2.97432
 20
-14.6084
 11
-2.89777
 21
-14.2235
  0
LINE
  8
0
 10
-2.89777
 20
-14.2235
 11
-2.77164
 21
-13.8519
  0
LINE
  8
0
 10
-2.77164
 20
-13.8519
 11
-2.59807
 21
-13.5
  0
LINE
  8
0
 10
-2.59807
 20
-13.5
 11
-2.38005
 21
-13.1737
  0
LINE
  8
0
 10
-2.38005
 20
-13.1737
 11
-2.12131
 21
-12.8787
  0
LINE
  8
0
 10
-2.12131
 20
-12.8787
 11
-1.82628
 21
-12.6199
  0
LINE
  8
0
 10
-1.82628
 20
-12.6199
 11
-1.5
 21
-12.4019
  0
LINE
  8
0
 10
-1.5
 20
-12.4019
 11
-1.14804
 21
-12.2283
  0
LINE
  8
0
 10
-1.14804
 20
-12.2283
 11
-0.776443
 21
-12.1022
  0
LINE
  8
0
 10
-0.776443
 20
-12.1022
 11
-0.391571
 21
-12.0257
  0
LINE
  8
0
 10
-0.391571
 20
-12.0257
 11
0
 21
-12
  0
LINE
  8
0
 10
0
 20
-12
 11
0.391571
 21
-12.0257
  0
LINE
  8
0
 10
0.391571
 20
-12.0257
 11
0.776443
 21
-12.1022
  0
LINE
  8
0
 10
0.776443
 20
-12.1022
 11
1.14804
 21
-12.2283
  0
LINE
  8
0
 10
1.14804
 20
-12.2283
 11
1.5
 21
-12.4019
  0
LINE
  8
0
 10
1.5
 20
-12.4019
 11
1.82628
 21
-12.6199
  0
LINE
  8
0
 10
1.82628
 20
-12.6199
 11
2.12131
 21
-12.8787
  0
LINE
  8
0
 10
2.12131
 20
-12.8787
 11
2.38005
 21
-13.1737
  0
LINE
  8
0
 10
2.38005
 20
-13.1737
 11
2.59807
 21
-13.5
  0
LINE
  8
0
 10
2.59807
 20
-13.5
 11
2.77164
 21
-13.8519
  0
LINE
  8
0
 10
2.77164
 20
-13.8519
 11
2.89777
 21
-14.2235
  0
LINE
  8
0
 10
2.89777
 20
-14.2235
 11
2.97432
 21
-14.6084
  0
LINE
  8
0
 10
2.97432
 20
-14.6084
 11
3
 21
-15
  0
LINE
  8
0
 10
3
 20
-15
 11
2.97432
 21
-15.3916
  0
LINE
  8
0
 10
2.97432
 20
-15.3916
 11
2.89777
 21
-15.7764
  0
LINE
  8
0
 10
2.89777
 20
-15.7764
 11
2.77164
 21
-16.148
  0
LINE
  8
0
 10
2.77164
 20
-16.148
 11
2.59807
 21
-16.5
  0
LINE
  8
0
 10
2.59807
 20
-16.5
 11
2.38005
 21
-16.8263
  0
LINE
  8
0
 10
2.38005
 20
-16.8263
 11
2.12131
 21
-17.1213
  0
LINE
  8
0
 10
2.12131
 20
-17.1213
 11
1.82628
 21
-17.3801
  0
LINE
  8
0
 10
1.82628
 20
-17.3801
 11
1.5
 21
-17.5981
  0
LINE
  8
0
 10
1.5
 20
-17.5981
 11
1.14804
 21
-17.7716
  0
LINE
  8
0
 10
1.14804
 20
-17.7716
 11
0.776443
 21
-17.8978
  0
LINE
  8
0
 10
0.776443
 20
-17.8978
 11
0.391571
 21
-17.9743
  0
LINE
  8
0
 10
0.391571
 20
-17.9743
 11
0
 21
-18
  0
LINE
  8
0
 10
0
 20
-18
 11
-0.391571
 21
-17.9743
  0
ENDSEC
  0
SECTION
  2
OBJECTS
  0
DICTIONARY
  0
ENDSEC
  0
EOF
