<?xml version="1.0" standalone="no"?>
<!DOCTYPE svg PUBLIC "-//W3C//DTD SVG 1.1//EN" "http://www.w3.org/Graphics/SVG/1.1/DTD/svg11.dtd">
<svg width="42mm" height="42mm" viewBox="-21 -21 42 42" xmlns="http://www.w3.org/2000/svg" version="1.1">
<title>OpenSCAD Model</title>
<path d="
M 17.2435,20.8429 L 18.4088,20.3815 L 19.4227,19.6448 L 20.2216,18.6791 L 20.7553,17.5451 L 21,16
 L 21,-16 L 20.8429,-17.2435 L 20.3815,-18.4088 L 19.6448,-19.4227 L 18.6791,-20.2216 L 17.5451,-20.7553
 L 16,-21 L -16,-21 L -17.2435,-20.8429 L -18.4088,-20.3815 L -19.4227,-19.6448 L -20.2216,-18.6791
 L -20.7553,-17.5451 L -21,-16 L -21,16 L -20.8429,17.2435 L -20.3815,18.4088 L -19.6448,19.4227
 L -18.6791,20.2216 L -17.5451,20.7553 L -16,21 L 16,21 z
M 14.4379,-12.0531 L 13.7227,-12.2855 L 13.0877,-12.6884 L 12.5729,-13.2366 L 12.2107,-13.8956 L 12.0237,-14.624
 L 12.0237,-15.376 L 12.2107,-16.1044 L 12.5729,-16.7634 L 13.0877,-17.3115 L 13.7227,-17.7145 L 14.4379,-17.9469
 L 15.1884,-17.9941 L 15.927,-17.8532 L 16.6075,-17.533 L 17.1869,-17.0536 L 17.6289,-16.4453 L 17.9057,-15.7461
 L 18,-15 L 17.9057,-14.2539 L 17.6289,-13.5547 L 17.1869,-12.9464 L 16.6075,-12.467 L 15.927,-12.1468
 L 15.1884,-12.0059 z
M -15.5621,-12.0531 L -16.2773,-12.2855 L -16.9123,-12.6884 L -17.427,-13.2366 L -17.7893,-13.8956 L -17.9763,-14.624
 L -17.9763,-15.376 L -17.7893,-16.1044 L -17.427,-16.7634 L -16.9123,-17.3115 L -16.2773,-17.7145 L -15.5621,-17.9469
 L -14.8116,-17.9941 L -14.0729,-17.8532 L -13.3925,-17.533 L -12.8131,-17.0536 L -12.3711,-16.4453 L -12.0942,-15.7461
 L -12,-15 L -12.0942,-14.2539 L -12.3711,-13.5547 L -12.8131,-12.9464 L -13.3925,-12.467 L -14.0729,-12.1468
 L -14.8116,-12.0059 z
M 9.16393,-7.97156 L 8.80632,-8.08775 L 8.48886,-8.28922 L 8.23146,-8.56331 L 8.05032,-8.89281 L 7.95682,-9.25699
 L 7.95682,-9.633 L 8.05032,-9.99718 L 8.23146,-10.3267 L 8.48886,-10.6008 L 8.80632,-10.8022 L 9.16393,-10.9184
 L 9.53918,-10.942 L 9.90852,-10.8716 L 10.2487,-10.7115 L 10.5385,-10.4718 L 10.7594,-10.1676 L 10.8979,-9.81802
 L 10.945,-9.44499 L 10.8979,-9.07196 L 10.7594,-8.72237 L 10.5385,-8.41817 L 10.2487,-8.1785 L 9.90852,-8.0184
 L 9.53918,-7.94795 z
M -9.72606,-7.97156 L -10.0837,-8.08775 L -10.4011,-8.28922 L -10.6585,-8.56331 L -10.8397,-8.89281 L -10.9332,-9.25699
 L -10.9332,-9.633 L -10.8397,-9.99718 L -10.6585,-10.3267 L -10.4011,-10.6008 L -10.0837,-10.8022 L -9.72606,-10.9184
 L -9.3508,-10.942 L -8.98146,-10.8716 L -8.64125,-10.7115 L -8.35153,-10.4718 L -8.13054,-10.1676 L -7.99211,-9.81802
 L -7.94499,-9.44499 L -7.99211,-9.07196 L -8.13054,-8.72237 L -8.35153,-8.41817 L -8.64125,-8.1785 L -8.98146,-8.0184
 L -9.3508,-7.94795 z
M -1.59273,8.34944 L -3.61911,7.69102 L -5.41809,6.54936 L -6.87663,4.99617 L -7.90309,3.12904 L -8.43297,1.06532
 L -8.43297,-1.06532 L -7.90309,-3.12904 L -6.87663,-4.99617 L -5.41809,-6.54936 L -3.61911,-7.69102 L -1.59273,-8.34944
 L 0.533707,-8.48322 L 2.62663,-8.08397 L 4.55452,-7.17677 L 6.19623,-5.81865 L 7.44859,-4.09489 L 8.23296,-2.11386
 L 8.5,-0 L 8.23296,2.11386 L 7.44859,4.09489 L 6.19623,5.81865 L 4.55452,7.17677 L 2.62663,8.08397
 L 0.533707,8.48322 z
M -9.72606,10.9184 L -10.0837,10.8022 L -10.4011,10.6008 L -10.6585,10.3267 L -10.8397,9.99718 L -10.9332,9.633
 L -10.9332,9.25699 L -10.8397,8.89281 L -10.6585,8.56331 L -10.4011,8.28922 L -10.0837,8.08775 L -9.72606,7.97156
 L -9.3508,7.94795 L -8.98146,8.0184 L -8.64125,8.1785 L -8.35153,8.41817 L -8.13054,8.72237 L -7.99211,9.07196
 L -7.94499,9.44499 L -7.99211,9.81802 L -8.13054,10.1676 L -8.35153,10.4718 L -8.64125,10.7115 L -8.98146,10.8716
 L -9.3508,10.942 z
M 9.16393,10.9184 L 8.80632,10.8022 L 8.48886,10.6008 L 8.23146,10.3267 L 8.05032,9.99718 L 7.95682,9.633
 L 7.95682,9.25699 L 8.05032,8.89281 L 8.23146,8.56331 L 8.48886,8.28922 L 8.80632,8.08775 L 9.16393,7.97156
 L 9.53918,7.94795 L 9.90852,8.0184 L 10.2487,8.1785 L 10.5385,8.41817 L 10.7594,8.72237 L 10.8979,9.07196
 L 10.945,9.44499 L 10.8979,9.81802 L 10.7594,10.1676 L 10.5385,10.4718 L 10.2487,10.7115 L 9.90852,10.8716
 L 9.53918,10.942 z
M -15.5621,17.9469 L -16.2773,17.7145 L -16.9123,17.3115 L -17.427,16.7634 L -17.7893,16.1044 L -17.9763,15.376
 L -17.9763,14.624 L -17.7893,13.8956 L -17.427,13.2366 L -16.9123,12.6884 L -16.2773,12.2855 L -15.5621,12.0531
 L -14.8116,12.0059 L -14.0729,12.1468 L -13.3925,12.467 L -12.8131,12.9464 L -12.3711,13.5547 L -12.0942,14.2539
 L -12,15 L -12.0942,15.7461 L -12.3711,16.4453 L -12.8131,17.0536 L -13.3925,17.533 L -14.0729,17.8532
 L -14.8116,17.9941 z
M 14.4379,17.9469 L 13.7227,17.7145 L 13.0877,17.3115 L 12.5729,16.7634 L 12.2107,16.1044 L 12.0237,15.376
 L 12.0237,14.624 L 12.2107,13.8956 L 12.5729,13.2366 L 13.0877,12.6884 L 13.7227,12.2855 L 14.4379,12.0531
 L 15.1884,12.0059 L 15.927,12.1468 L 16.6075,12.467 L 17.1869,12.9464 L 17.6289,13.5547 L 17.9057,14.2539
 L 18,15 L 17.9057,15.7461 L 17.6289,16.4453 L 17.1869,17.0536 L 16.6075,17.533 L 15.927,17.8532
 L 15.1884,17.9941 z
" stroke="black" fill="lightgray" stroke-width="0.5"/>
</svg>
