<?xml version="1.0" standalone="no"?>
<!DOCTYPE svg PUBLIC "-//W3C//DTD SVG 1.1//EN" "http://www.w3.org/Graphics/SVG/1.1/DTD/svg11.dtd">
<svg width="42mm" height="42mm" viewBox="-21 -21 42 42" xmlns="http://www.w3.org/2000/svg" version="1.1">
<title>OpenSCAD Model</title>
<path d="
M 17.2435,20.8429 L 18.4088,20.3815 L 19.4227,19.6448 L 20.2216,18.6791 L 20.7553,17.5451 L 21,16
 L 21,-16 L 20.8429,-17.2435 L 20.3815,-18.4088 L 19.6448,-19.4227 L 18.6791,-20.2216 L 17.5451,-20.7553
 L 16,-21 L -16,-21 L -17.2435,-20.8429 L -18.4088,-20.3815 L -19.4227,-19.6448 L -20.2216,-18.6791
 L -20.7553,-17.5451 L -21,-16 L -21,16 L -20.8429,17.2435 L -20.3815,18.4088 L -19.6448,19.4227
 L -18.6791,20.2216 L -17.5451,20.7553 L -16,21 L 16,21 z
M -15.5621,-12.0531 L -16.2773,-12.2855 L -16.9123,-12.6884 L -17.427,-13.2366 L -17.7893,-13.8956 L -17.9763,-14.624
 L -17.9763,-15.376 L -17.7893,-16.1044 L -17.427,-16.7634 L -16.9123,-17.3115 L -16.2773,-17.7145 L -15.5621,-17.9469
 L -14.8116,-17.9941 L -14.0729,-17.8532 L -13.3925,-17.533 L -12.8131,-17.0536 L -12.3711,-16.4453 L -12.0942,-15.7461
 L -12,-15 L -12.0942,-14.2539 L -12.3711,-13.5547 L -12.8131,-12.9464 L -13.3925,-12.467 L -14.0729,-12.1468
 L -14.8116,-12.0059 z
M 14.4379,-12.0531 L 13.7227,-12.2855 L 13.0877,-12.6884 L 12.5729,-13.2366 L 12.2107,-13.8956 L 12.0237,-14.624
 L 12.0237,-15.376 L 12.2107,-16.1044 L 12.5729,-16.7634 L 13.0877,-17.3115 L 13.7227,-17.7145 L 14.4379,-17.9469
 L 15.1884,-17.9941 L 15.927,-17.8532 L 16.6075,-17.533 L 17.1869,-17.0536 L 17.6289,-16.4453 L 17.9057,-15.7461
 L 18,-15 L 17.9057,-14.2539 L 17.6289,-13.5547 L 17.1869,-12.9464 L 16.6075,-12.467 L 15.927,-12.1468
 L 15.1884,-12.0059 z
M -0.281067,-13.5266 L -0.638657,-13.6427 L -0.956131,-13.8442 L -1.21352,-14.1183 L -1.39465,-14.4478 L -1.48816,-14.812
 L -1.48816,-15.188 L -1.39465,-15.5522 L -1.21352,-15.8817 L -0.956131,-16.1558 L -0.638657,-16.3572 L -0.281067,-16.4734
 L 0.0941772,-16.497 L 0.463516,-16.4266 L 0.803726,-16.2665 L 1.09344,-16.0268 L 1.31445,-15.7226 L 1.45287,-15.373
 L 1.5,-15 L 1.45287,-14.627 L 1.31445,-14.2774 L 1.09344,-13.9732 L 0.803726,-13.7335 L 0.463516,-13.5734
 L 0.0941772,-13.5029 z
M -1.31166,6.87601 L -2.98045,6.33379 L -4.46196,5.39359 L -5.66312,4.11449 L -6.50842,2.57686 L -6.94479,0.877319
 L -6.94479,-0.877319 L -6.50842,-2.57686 L -5.66312,-4.11449 L -4.46196,-5.39359 L -2.98045,-6.33379 L -1.31166,-6.87601
 L 0.439529,-6.98618 L 2.16312,-6.65739 L 3.75078,-5.91029 L 5.10277,-4.79182 L 6.13414,-3.37227 L 6.78008,-1.74081
 L 7,-0 L 6.78008,1.74081 L 6.13414,3.37227 L 5.10277,4.79182 L 3.75078,5.91029 L 2.16312,6.65739
 L 0.439529,6.98618 z
M -14.9058,1.49704 L -15.2811,1.47342 L -15.6387,1.35724 L -15.9561,1.15576 L -16.2135,0.881668 L -16.3947,0.552185
 L -16.4882,0.187988 L -16.4882,-0.187988 L -16.3947,-0.552185 L -16.2135,-0.881668 L -15.9561,-1.15576 L -15.6387,-1.35724
 L -15.2811,-1.47342 L -14.9058,-1.49704 L -14.5365,-1.42657 L -14.1963,-1.26648 L -13.9065,-1.02681 L -13.6855,-0.722626
 L -13.5471,-0.373032 L -13.5,-0 L -13.5471,0.373032 L -13.6855,0.722626 L -13.9065,1.02681 L -14.1963,1.26648
 L -14.5365,1.42657 z
M 15.0942,1.49704 L 14.7189,1.47342 L 14.3613,1.35724 L 14.0439,1.15576 L 13.7865,0.881668 L 13.6053,0.552185
 L 13.5118,0.187988 L 13.5118,-0.187988 L 13.6053,-0.552185 L 13.7865,-0.881668 L 14.0439,-1.15576 L 14.3613,-1.35724
 L 14.7189,-1.47342 L 15.0942,-1.49704 L 15.4635,-1.42657 L 15.8037,-1.26648 L 16.0934,-1.02681 L 16.3145,-0.722626
 L 16.4529,-0.373032 L 16.5,-0 L 16.4529,0.373032 L 16.3145,0.722626 L 16.0934,1.02681 L 15.8037,1.26648
 L 15.4635,1.42657 z
M -15.5621,17.9469 L -16.2773,17.7145 L -16.9123,17.3115 L -17.427,16.7634 L -17.7893,16.1044 L -17.9763,15.376
 L -17.9763,14.624 L -17.7893,13.8956 L -17.427,13.2366 L -16.9123,12.6884 L -16.2773,12.2855 L -15.5621,12.0531
 L -14.8116,12.0059 L -14.0729,12.1468 L -13.3925,12.467 L -12.8131,12.9464 L -12.3711,13.5547 L -12.0942,14.2539
 L -12,15 L -12.0942,15.7461 L -12.3711,16.4453 L -12.8131,17.0536 L -13.3925,17.533 L -14.0729,17.8532
 L -14.8116,17.9941 z
M 14.4379,17.9469 L 13.7227,17.7145 L 13.0877,17.3115 L 12.5729,16.7634 L 12.2107,16.1044 L 12.0237,15.376
 L 12.0237,14.624 L 12.2107,13.8956 L 12.5729,13.2366 L 13.0877,12.6884 L 13.7227,12.2855 L 14.4379,12.0531
 L 15.1884,12.0059 L 15.927,12.1468 L 16.6075,12.467 L 17.1869,12.9464 L 17.6289,13.5547 L 17.9057,14.2539
 L 18,15 L 17.9057,15.7461 L 17.6289,16.4453 L 17.1869,17.0536 L 16.6075,17.533 L 15.927,17.8532
 L 15.1884,17.9941 z
M -0.281067,16.4734 L -0.638657,16.3572 L -0.956131,16.1558 L -1.21352,15.8817 L -1.39465,15.5522 L -1.48816,15.188
 L -1.48816,14.812 L -1.39465,14.4478 L -1.21352,14.1183 L -0.956131,13.8442 L -0.638657,13.6427 L -0.281067,13.5266
 L 0.0941772,13.5029 L 0.463516,13.5734 L 0.803726,13.7335 L 1.09344,13.9732 L 1.31445,14.2774 L 1.45287,14.627
 L 1.5,15 L 1.45287,15.373 L 1.31445,15.7226 L 1.09344,16.0268 L 0.803726,16.2665 L 0.463516,16.4266
 L 0.0941772,16.497 z
" stroke="black" fill="lightgray" stroke-width="0.5"/>
</svg>
