  0
SECTION
  2
BLOCKS
  0
ENDSEC
  0
SECTION
  2
ENTITIES
  0
LINE
  8
0
 10
46
 20
9.02962
 11
46.3139
 21
9.00986
  0
LINE
  8
0
 10
46.3139
 20
9.00986
 11
47.5451
 21
9.24471
  0
LINE
  8
0
 10
47.5451
 20
9.24471
 11
48.6791
 21
9.77835
  0
LINE
  8
0
 10
48.6791
 20
9.77835
 11
49.6448
 21
10.5773
  0
LINE
  8
0
 10
49.6448
 20
10.5773
 11
50.3815
 21
11.5912
  0
LINE
  8
0
 10
50.3815
 20
11.5912
 11
50.8429
 21
12.7565
  0
LINE
  8
0
 10
50.8429
 20
12.7565
 11
51
 21
14
  0
LINE
  8
0
 10
51
 20
14
 11
51
 21
31
  0
LINE
  8
0
 10
51
 20
31
 11
50.8429
 21
32.2434
  0
LINE
  8
0
 10
50.8429
 20
32.2434
 11
50.3815
 21
33.4088
  0
LINE
  8
0
 10
50.3815
 20
33.4088
 11
49.6448
 21
34.4227
  0
LINE
  8
0
 10
49.6448
 20
34.4227
 11
48.6791
 21
35.2216
  0
LINE
  8
0
 10
48.6791
 20
35.2216
 11
47.5451
 21
35.7553
  0
LINE
  8
0
 10
47.5451
 20
35.7553
 11
46.3139
 21
35.9901
  0
LINE
  8
0
 10
46.3139
 20
35.9901
 11
46
 21
35.9704
  0
LINE
  8
0
 10
46
 20
35.9704
 11
46
 21
36
  0
LINE
  8
0
 10
46
 20
36
 11
14
 21
36
  0
LINE
  8
0
 10
14
 20
36
 11
14
 21
35.9704
  0
LINE
  8
0
 10
14
 20
35.9704
 11
13.0631
 21
35.9114
  0
LINE
  8
0
 10
13.0631
 20
35.9114
 11
11.8711
 21
35.5241
  0
LINE
  8
0
 10
11.8711
 20
35.5241
 11
10.8129
 21
34.8526
  0
LINE
  8
0
 10
10.8129
 20
34.8526
 11
9.95491
 21
33.9389
  0
LINE
  8
0
 10
9.95491
 20
33.9389
 11
9.3511
 21
32.8406
  0
LINE
  8
0
 10
9.3511
 20
32.8406
 11
9.03941
 21
31.6267
  0
LINE
  8
0
 10
9.03941
 20
31.6267
 11
9.03941
 21
31
  0
LINE
  8
0
 10
9.03941
 20
31
 11
9
 21
31
  0
LINE
  8
0
 10
9
 20
31
 11
9
 21
14
  0
LINE
  8
0
 10
9
 20
14
 11
9.03941
 21
14
  0
LINE
  8
0
 10
9.03941
 20
14
 11
9.03941
 21
13.3733
  0
LINE
  8
0
 10
9.03941
 20
13.3733
 11
9.3511
 21
12.1594
  0
LINE
  8
0
 10
9.3511
 20
12.1594
 11
9.95491
 21
11.0611
  0
LINE
  8
0
 10
9.95491
 20
11.0611
 11
10.8129
 21
10.1474
  0
LINE
  8
0
 10
10.8129
 20
10.1474
 11
11.8711
 21
9.47586
  0
LINE
  8
0
 10
11.8711
 20
9.47586
 11
13.0631
 21
9.08856
  0
LINE
  8
0
 10
13.0631
 20
9.08856
 11
14
 21
9.02962
  0
LINE
  8
0
 10
14
 20
9.02962
 11
14
 21
9
  0
LINE
  8
0
 10
14
 20
9
 11
46
 21
9
  0
LINE
  8
0
 10
46
 20
9
 11
46
 21
9.02962
  0
ENDSEC
  0
SECTION
  2
OBJECTS
  0
DICTIONARY
  0
ENDSEC
  0
EOF
