<?xml version="1.0" standalone="no"?>
<!DOCTYPE svg PUBLIC "-//W3C//DTD SVG 1.1//EN" "http://www.w3.org/Graphics/SVG/1.1/DTD/svg11.dtd">
<svg width="42mm" height="27mm" viewBox="9 -36 42 27" xmlns="http://www.w3.org/2000/svg" version="1.1">
<title>OpenSCAD Model</title>
<path d="
M 46,-9.02962 L 46.3139,-9.00986 L 47.5451,-9.24471 L 48.6791,-9.77835 L 49.6448,-10.5773 L 50.3815,-11.5912
 L 50.8429,-12.7565 L 51,-14 L 51,-31 L 50.8429,-32.2434 L 50.3815,-33.4088 L 49.6448,-34.4227
 L 48.6791,-35.2216 L 47.5451,-35.7553 L 46.3139,-35.9901 L 46,-35.9704 L 46,-36 L 14,-36
 L 14,-35.9704 L 13.0631,-35.9114 L 11.8711,-35.5241 L 10.8129,-34.8526 L 9.95491,-33.9389 L 9.3511,-32.8406
 L 9.03941,-31.6267 L 9.03941,-31 L 9,-31 L 9,-14 L 9.03941,-14 L 9.03941,-13.3733
 L 9.3511,-12.1594 L 9.95491,-11.0611 L 10.8129,-10.1474 L 11.8711,-9.47586 L 13.0631,-9.08856 L 14,-9.02962
 L 14,-9 L 46,-9 z
" stroke="black" fill="lightgray" stroke-width="0.5"/>
</svg>
