<?xml version="1.0" standalone="no"?>
<!DOCTYPE svg PUBLIC "-//W3C//DTD SVG 1.1//EN" "http://www.w3.org/Graphics/SVG/1.1/DTD/svg11.dtd">
<svg width="44mm" height="28mm" viewBox="-22 -14 44 28" xmlns="http://www.w3.org/2000/svg" version="1.1">
<title>OpenSCAD Model</title>
<path d="
M 16.6576,13.4622 L 17.2991,13.3346 L 17.9184,13.1244 L 18.505,12.8351 L 19.0488,12.4718 L 19.5405,12.0405
 L 19.9718,11.5488 L 20.3351,11.005 L 20.6244,10.4184 L 20.8346,9.79909 L 20.9622,9.15762 L 21.005,8.50499
 L 21.005,-8.50499 L 20.9622,-9.15762 L 20.8346,-9.79909 L 20.6244,-10.4184 L 20.3351,-11.005 L 19.9718,-11.5488
 L 19.5405,-12.0405 L 19.0488,-12.4718 L 18.505,-12.8351 L 17.9184,-13.1244 L 17.2991,-13.3346 L 16.6576,-13.4622
 L 16.005,-13.505 L -16.005,-13.505 L -16.6576,-13.4622 L -17.2991,-13.3346 L -17.9184,-13.1244 L -18.505,-12.8351
 L -19.0488,-12.4718 L -19.5405,-12.0405 L -19.9718,-11.5488 L -20.3351,-11.005 L -20.6244,-10.4184 L -20.8346,-9.79909
 L -20.9622,-9.15762 L -21.005,-8.50499 L -21.005,8.50499 L -20.9622,9.15762 L -20.8346,9.79909 L -20.6244,10.4184
 L -20.3351,11.005 L -19.9718,11.5488 L -19.5405,12.0405 L -19.0488,12.4718 L -18.505,12.8351 L -17.9184,13.1244
 L -17.2991,13.3346 L -16.6576,13.4622 L -16.005,13.505 L 16.005,13.505 z
M -15.3916,-4.52567 L -15.7764,-4.60222 L -16.148,-4.72835 L -16.5,-4.90192 L -16.8263,-5.11993 L -17.1213,-5.37868
 L -17.3801,-5.67371 L -17.5981,-6 L -17.7716,-6.35194 L -17.8978,-6.72354 L -17.9743,-7.10841 L -18,-7.5
 L -17.9743,-7.89157 L -17.8978,-8.27644 L -17.7716,-8.64804 L -17.5981,-9 L -17.3801,-9.32628 L -17.1213,-9.62131
 L -16.8263,-9.88005 L -16.5,-10.0981 L -16.148,-10.2716 L -15.7764,-10.3978 L -15.3916,-10.4743 L -15,-10.5
 L -14.6084,-10.4743 L -14.2235,-10.3978 L -13.8519,-10.2716 L -13.5,-10.0981 L -13.1737,-9.88005 L -12.8787,-9.62131
 L -12.6199,-9.32628 L -12.4019,-9 L -12.2283,-8.64804 L -12.1022,-8.27644 L -12.0257,-7.89157 L -12,-7.5
 L -12.0257,-7.10841 L -12.1022,-6.72354 L -12.2283,-6.35194 L -12.4019,-6 L -12.6199,-5.67371 L -12.8787,-5.37868
 L -13.1737,-5.11993 L -13.5,-4.90192 L -13.8519,-4.72835 L -14.2235,-4.60222 L -14.6084,-4.52567 L -15,-4.5
 z
M -0.391571,-4.52567 L -0.776443,-4.60222 L -1.14804,-4.72835 L -1.5,-4.90192 L -1.82628,-5.11993 L -2.12131,-5.37868
 L -2.38005,-5.67371 L -2.59807,-6 L -2.77164,-6.35194 L -2.89777,-6.72354 L -2.97432,-7.10841 L -3,-7.5
 L -2.97432,-7.89157 L -2.89777,-8.27644 L -2.77164,-8.64804 L -2.59807,-9 L -2.38005,-9.32628 L -2.12131,-9.62131
 L -1.82628,-9.88005 L -1.5,-10.0981 L -1.14804,-10.2716 L -0.776443,-10.3978 L -0.391571,-10.4743 L 0,-10.5
 L 0.391571,-10.4743 L 0.776443,-10.3978 L 1.14804,-10.2716 L 1.5,-10.0981 L 1.82628,-9.88005 L 2.12131,-9.62131
 L 2.38005,-9.32628 L 2.59807,-9 L 2.77164,-8.64804 L 2.89777,-8.27644 L 2.97432,-7.89157 L 3,-7.5
 L 2.97432,-7.10841 L 2.89777,-6.72354 L 2.77164,-6.35194 L 2.59807,-6 L 2.38005,-5.67371 L 2.12131,-5.37868
 L 1.82628,-5.11993 L 1.5,-4.90192 L 1.14804,-4.72835 L 0.776443,-4.60222 L 0.391571,-4.52567 L 0,-4.5
 z
M 14.6084,-4.52567 L 14.2235,-4.60222 L 13.8519,-4.72835 L 13.5,-4.90192 L 13.1737,-5.11993 L 12.8787,-5.37868
 L 12.6199,-5.67371 L 12.4019,-6 L 12.2283,-6.35194 L 12.1022,-6.72354 L 12.0257,-7.10841 L 12,-7.5
 L 12.0257,-7.89157 L 12.1022,-8.27644 L 12.2283,-8.64804 L 12.4019,-9 L 12.6199,-9.32628 L 12.8787,-9.62131
 L 13.1737,-9.88005 L 13.5,-10.0981 L 13.8519,-10.2716 L 14.2235,-10.3978 L 14.6084,-10.4743 L 15,-10.5
 L 15.3916,-10.4743 L 15.7764,-10.3978 L 16.148,-10.2716 L 16.5,-10.0981 L 16.8263,-9.88005 L 17.1213,-9.62131
 L 17.3801,-9.32628 L 17.5981,-9 L 17.7716,-8.64804 L 17.8978,-8.27644 L 17.9743,-7.89157 L 18,-7.5
 L 17.9743,-7.10841 L 17.8978,-6.72354 L 17.7716,-6.35194 L 17.5981,-6 L 17.3801,-5.67371 L 17.1213,-5.37868
 L 16.8263,-5.11993 L 16.5,-4.90192 L 16.148,-4.72835 L 15.7764,-4.60222 L 15.3916,-4.52567 L 15,-4.5
 z
M -15.3916,10.4743 L -15.7764,10.3978 L -16.148,10.2716 L -16.5,10.0981 L -16.8263,9.88005 L -17.1213,9.62131
 L -17.3801,9.32628 L -17.5981,9 L -17.7716,8.64804 L -17.8978,8.27644 L -17.9743,7.89157 L -18,7.5
 L -17.9743,7.10841 L -17.8978,6.72354 L -17.7716,6.35194 L -17.5981,6 L -17.3801,5.67371 L -17.1213,5.37868
 L -16.8263,5.11993 L -16.5,4.90192 L -16.148,4.72835 L -15.7764,4.60222 L -15.3916,4.52567 L -15,4.5
 L -14.6084,4.52567 L -14.2235,4.60222 L -13.8519,4.72835 L -13.5,4.90192 L -13.1737,5.11993 L -12.8787,5.37868
 L -12.6199,5.67371 L -12.4019,6 L -12.2283,6.35194 L -12.1022,6.72354 L -12.0257,7.10841 L -12,7.5
 L -12.0257,7.89157 L -12.1022,8.27644 L -12.2283,8.64804 L -12.4019,9 L -12.6199,9.32628 L -12.8787,9.62131
 L -13.1737,9.88005 L -13.5,10.0981 L -13.8519,10.2716 L -14.2235,10.3978 L -14.6084,10.4743 L -15,10.5
 z
M 14.6084,10.4743 L 14.2235,10.3978 L 13.8519,10.2716 L 13.5,10.0981 L 13.1737,9.88005 L 12.8787,9.62131
 L 12.6199,9.32628 L 12.4019,9 L 12.2283,8.64804 L 12.1022,8.27644 L 12.0257,7.89157 L 12,7.5
 L 12.0257,7.10841 L 12.1022,6.72354 L 12.2283,6.35194 L 12.4019,6 L 12.6199,5.67371 L 12.8787,5.37868
 L 13.1737,5.11993 L 13.5,4.90192 L 13.8519,4.72835 L 14.2235,4.60222 L 14.6084,4.52567 L 15,4.5
 L 15.3916,4.52567 L 15.7764,4.60222 L 16.148,4.72835 L 16.5,4.90192 L 16.8263,5.11993 L 17.1213,5.37868
 L 17.3801,5.67371 L 17.5981,6 L 17.7716,6.35194 L 17.8978,6.72354 L 17.9743,7.10841 L 18,7.5
 L 17.9743,7.89157 L 17.8978,8.27644 L 17.7716,8.64804 L 17.5981,9 L 17.3801,9.32628 L 17.1213,9.62131
 L 16.8263,9.88005 L 16.5,10.0981 L 16.148,10.2716 L 15.7764,10.3978 L 15.3916,10.4743 L 15,10.5
 z
M -0.391571,10.4743 L -0.776443,10.3978 L -1.14804,10.2716 L -1.5,10.0981 L -1.82628,9.88005 L -2.12131,9.62131
 L -2.38005,9.32628 L -2.59807,9 L -2.77164,8.64804 L -2.89777,8.27644 L -2.97432,7.89157 L -3,7.5
 L -2.97432,7.10841 L -2.89777,6.72354 L -2.77164,6.35194 L -2.59807,6 L -2.38005,5.67371 L -2.12131,5.37868
 L -1.82628,5.11993 L -1.5,4.90192 L -1.14804,4.72835 L -0.776443,4.60222 L -0.391571,4.52567 L 0,4.5
 L 0.391571,4.52567 L 0.776443,4.60222 L 1.14804,4.72835 L 1.5,4.90192 L 1.82628,5.11993 L 2.12131,5.37868
 L 2.38005,5.67371 L 2.59807,6 L 2.77164,6.35194 L 2.89777,6.72354 L 2.97432,7.10841 L 3,7.5
 L 2.97432,7.89157 L 2.89777,8.27644 L 2.77164,8.64804 L 2.59807,9 L 2.38005,9.32628 L 2.12131,9.62131
 L 1.82628,9.88005 L 1.5,10.0981 L 1.14804,10.2716 L 0.776443,10.3978 L 0.391571,10.4743 L 0,10.5
 z
" stroke="black" fill="lightgray" stroke-width="0.5"/>
</svg>
