  0
SECTION
  2
BLOCKS
  0
ENDSEC
  0
SECTION
  2
ENTITIES
  0
LINE
  8
0
 10
39.1576
 20
1.53778
 11
39.7991
 21
1.66537
  0
LINE
  8
0
 10
39.7991
 20
1.66537
 11
40.4184
 21
1.87561
  0
LINE
  8
0
 10
40.4184
 20
1.87561
 11
41.005
 21
2.16489
  0
LINE
  8
0
 10
41.005
 20
2.16489
 11
41.5488
 21
2.52824
  0
LINE
  8
0
 10
41.5488
 20
2.52824
 11
42.0405
 21
2.95947
  0
LINE
  8
0
 10
42.0405
 20
2.95947
 11
42.4718
 21
3.4512
  0
LINE
  8
0
 10
42.4718
 20
3.4512
 11
42.8351
 21
3.99501
  0
LINE
  8
0
 10
42.8351
 20
3.99501
 11
43.1244
 21
4.58159
  0
LINE
  8
0
 10
43.1244
 20
4.58159
 11
43.3346
 21
5.20091
  0
LINE
  8
0
 10
43.3346
 20
5.20091
 11
43.4622
 21
5.84238
  0
LINE
  8
0
 10
43.4622
 20
5.84238
 11
43.505
 21
6.49501
  0
LINE
  8
0
 10
43.505
 20
6.49501
 11
43.505
 21
23.505
  0
LINE
  8
0
 10
43.505
 20
23.505
 11
43.4622
 21
24.1576
  0
LINE
  8
0
 10
43.4622
 20
24.1576
 11
43.3346
 21
24.7991
  0
LINE
  8
0
 10
43.3346
 20
24.7991
 11
43.1244
 21
25.4184
  0
LINE
  8
0
 10
43.1244
 20
25.4184
 11
42.8351
 21
26.005
  0
LINE
  8
0
 10
42.8351
 20
26.005
 11
42.4718
 21
26.5488
  0
LINE
  8
0
 10
42.4718
 20
26.5488
 11
42.0405
 21
27.0405
  0
LINE
  8
0
 10
42.0405
 20
27.0405
 11
41.5488
 21
27.4718
  0
LINE
  8
0
 10
41.5488
 20
27.4718
 11
41.005
 21
27.8351
  0
LINE
  8
0
 10
41.005
 20
27.8351
 11
40.4184
 21
28.1244
  0
LINE
  8
0
 10
40.4184
 20
28.1244
 11
39.7991
 21
28.3346
  0
LINE
  8
0
 10
39.7991
 20
28.3346
 11
39.1576
 21
28.4622
  0
LINE
  8
0
 10
39.1576
 20
28.4622
 11
38.505
 21
28.505
  0
LINE
  8
0
 10
38.505
 20
28.505
 11
6.49501
 21
28.505
  0
LINE
  8
0
 10
6.49501
 20
28.505
 11
5.84238
 21
28.4622
  0
LINE
  8
0
 10
5.84238
 20
28.4622
 11
5.20091
 21
28.3346
  0
LINE
  8
0
 10
5.20091
 20
28.3346
 11
4.58159
 21
28.1244
  0
LINE
  8
0
 10
4.58159
 20
28.1244
 11
3.99501
 21
27.8351
  0
LINE
  8
0
 10
3.99501
 20
27.8351
 11
3.4512
 21
27.4718
  0
LINE
  8
0
 10
3.4512
 20
27.4718
 11
2.95947
 21
27.0405
  0
LINE
  8
0
 10
2.95947
 20
27.0405
 11
2.52824
 21
26.5488
  0
LINE
  8
0
 10
2.52824
 20
26.5488
 11
2.16489
 21
26.005
  0
LINE
  8
0
 10
2.16489
 20
26.005
 11
1.87561
 21
25.4184
  0
LINE
  8
0
 10
1.87561
 20
25.4184
 11
1.66537
 21
24.7991
  0
LINE
  8
0
 10
1.66537
 20
24.7991
 11
1.53778
 21
24.1576
  0
LINE
  8
0
 10
1.53778
 20
24.1576
 11
1.49501
 21
23.505
  0
LINE
  8
0
 10
1.49501
 20
23.505
 11
1.49501
 21
6.49501
  0
LINE
  8
0
 10
1.49501
 20
6.49501
 11
1.53778
 21
5.84238
  0
LINE
  8
0
 10
1.53778
 20
5.84238
 11
1.66537
 21
5.20091
  0
LINE
  8
0
 10
1.66537
 20
5.20091
 11
1.87561
 21
4.58159
  0
LINE
  8
0
 10
1.87561
 20
4.58159
 11
2.16489
 21
3.99501
  0
LINE
  8
0
 10
2.16489
 20
3.99501
 11
2.52824
 21
3.4512
  0
LINE
  8
0
 10
2.52824
 20
3.4512
 11
2.95947
 21
2.95947
  0
LINE
  8
0
 10
2.95947
 20
2.95947
 11
3.4512
 21
2.52824
  0
LINE
  8
0
 10
3.4512
 20
2.52824
 11
3.99501
 21
2.16489
  0
LINE
  8
0
 10
3.99501
 20
2.16489
 11
4.58159
 21
1.87561
  0
LINE
  8
0
 10
4.58159
 20
1.87561
 11
5.20091
 21
1.66537
  0
LINE
  8
0
 10
5.20091
 20
1.66537
 11
5.84238
 21
1.53778
  0
LINE
  8
0
 10
5.84238
 20
1.53778
 11
6.49501
 21
1.49501
  0
LINE
  8
0
 10
6.49501
 20
1.49501
 11
38.505
 21
1.49501
  0
LINE
  8
0
 10
38.505
 20
1.49501
 11
39.1576
 21
1.53778
  0
LINE
  8
0
 10
7.07578
 20
19.2778
 11
6.65883
 21
19.3607
  0
LINE
  8
0
 10
6.65883
 20
19.3607
 11
6.25627
 21
19.4974
  0
LINE
  8
0
 10
6.25627
 20
19.4974
 11
5.875
 21
19.6854
  0
LINE
  8
0
 10
5.875
 20
19.6854
 11
5.52151
 21
19.9216
  0
LINE
  8
0
 10
5.52151
 20
19.9216
 11
5.20189
 21
20.2019
  0
LINE
  8
0
 10
5.20189
 20
20.2019
 11
4.9216
 21
20.5215
  0
LINE
  8
0
 10
4.9216
 20
20.5215
 11
4.68541
 21
20.875
  0
LINE
  8
0
 10
4.68541
 20
20.875
 11
4.49739
 21
21.2563
  0
LINE
  8
0
 10
4.49739
 20
21.2563
 11
4.36073
 21
21.6588
  0
LINE
  8
0
 10
4.36073
 20
21.6588
 11
4.2778
 21
22.0758
  0
LINE
  8
0
 10
4.2778
 20
22.0758
 11
4.25
 21
22.5
  0
LINE
  8
0
 10
4.25
 20
22.5
 11
4.2778
 21
22.9242
  0
LINE
  8
0
 10
4.2778
 20
22.9242
 11
4.36073
 21
23.3412
  0
LINE
  8
0
 10
4.36073
 20
23.3412
 11
4.49739
 21
23.7437
  0
LINE
  8
0
 10
4.49739
 20
23.7437
 11
4.68541
 21
24.125
  0
LINE
  8
0
 10
4.68541
 20
24.125
 11
4.9216
 21
24.4785
  0
LINE
  8
0
 10
4.9216
 20
24.4785
 11
5.20189
 21
24.7981
  0
LINE
  8
0
 10
5.20189
 20
24.7981
 11
5.52151
 21
25.0784
  0
LINE
  8
0
 10
5.52151
 20
25.0784
 11
5.875
 21
25.3146
  0
LINE
  8
0
 10
5.875
 20
25.3146
 11
6.25627
 21
25.5026
  0
LINE
  8
0
 10
6.25627
 20
25.5026
 11
6.65883
 21
25.6393
  0
LINE
  8
0
 10
6.65883
 20
25.6393
 11
7.07578
 21
25.7222
  0
LINE
  8
0
 10
7.07578
 20
25.7222
 11
7.5
 21
25.75
  0
LINE
  8
0
 10
7.5
 20
25.75
 11
7.92421
 21
25.7222
  0
LINE
  8
0
 10
7.92421
 20
25.7222
 11
8.34116
 21
25.6393
  0
LINE
  8
0
 10
8.34116
 20
25.6393
 11
8.74371
 21
25.5026
  0
LINE
  8
0
 10
8.74371
 20
25.5026
 11
9.125
 21
25.3146
  0
LINE
  8
0
 10
9.125
 20
25.3146
 11
9.47847
 21
25.0784
  0
LINE
  8
0
 10
9.47847
 20
25.0784
 11
9.7981
 21
24.7981
  0
LINE
  8
0
 10
9.7981
 20
24.7981
 11
10.0784
 21
24.4785
  0
LINE
  8
0
 10
10.0784
 20
24.4785
 11
10.3146
 21
24.125
  0
LINE
  8
0
 10
10.3146
 20
24.125
 11
10.5026
 21
23.7437
  0
LINE
  8
0
 10
10.5026
 20
23.7437
 11
10.6393
 21
23.3412
  0
LINE
  8
0
 10
10.6393
 20
23.3412
 11
10.7222
 21
22.9242
  0
LINE
  8
0
 10
10.7222
 20
22.9242
 11
10.75
 21
22.5
  0
LINE
  8
0
 10
10.75
 20
22.5
 11
10.7222
 21
22.0758
  0
LINE
  8
0
 10
10.7222
 20
22.0758
 11
10.6393
 21
21.6588
  0
LINE
  8
0
 10
10.6393
 20
21.6588
 11
10.5026
 21
21.2563
  0
LINE
  8
0
 10
10.5026
 20
21.2563
 11
10.3146
 21
20.875
  0
LINE
  8
0
 10
10.3146
 20
20.875
 11
10.0784
 21
20.5215
  0
LINE
  8
0
 10
10.0784
 20
20.5215
 11
9.7981
 21
20.2019
  0
LINE
  8
0
 10
9.7981
 20
20.2019
 11
9.47847
 21
19.9216
  0
LINE
  8
0
 10
9.47847
 20
19.9216
 11
9.125
 21
19.6854
  0
LINE
  8
0
 10
9.125
 20
19.6854
 11
8.74371
 21
19.4974
  0
LINE
  8
0
 10
8.74371
 20
19.4974
 11
8.34116
 21
19.3607
  0
LINE
  8
0
 10
8.34116
 20
19.3607
 11
7.92421
 21
19.2778
  0
LINE
  8
0
 10
7.92421
 20
19.2778
 11
7.5
 21
19.25
  0
LINE
  8
0
 10
7.5
 20
19.25
 11
7.07578
 21
19.2778
  0
LINE
  8
0
 10
22.0758
 20
19.2778
 11
21.6588
 21
19.3607
  0
LINE
  8
0
 10
21.6588
 20
19.3607
 11
21.2563
 21
19.4974
  0
LINE
  8
0
 10
21.2563
 20
19.4974
 11
20.875
 21
19.6854
  0
LINE
  8
0
 10
20.875
 20
19.6854
 11
20.5215
 21
19.9216
  0
LINE
  8
0
 10
20.5215
 20
19.9216
 11
20.2019
 21
20.2019
  0
LINE
  8
0
 10
20.2019
 20
20.2019
 11
19.9216
 21
20.5215
  0
LINE
  8
0
 10
19.9216
 20
20.5215
 11
19.6854
 21
20.875
  0
LINE
  8
0
 10
19.6854
 20
20.875
 11
19.4974
 21
21.2563
  0
LINE
  8
0
 10
19.4974
 20
21.2563
 11
19.3607
 21
21.6588
  0
LINE
  8
0
 10
19.3607
 20
21.6588
 11
19.2778
 21
22.0758
  0
LINE
  8
0
 10
19.2778
 20
22.0758
 11
19.25
 21
22.5
  0
LINE
  8
0
 10
19.25
 20
22.5
 11
19.2778
 21
22.9242
  0
LINE
  8
0
 10
19.2778
 20
22.9242
 11
19.3607
 21
23.3412
  0
LINE
  8
0
 10
19.3607
 20
23.3412
 11
19.4974
 21
23.7437
  0
LINE
  8
0
 10
19.4974
 20
23.7437
 11
19.6854
 21
24.125
  0
LINE
  8
0
 10
19.6854
 20
24.125
 11
19.9216
 21
24.4785
  0
LINE
  8
0
 10
19.9216
 20
24.4785
 11
20.2019
 21
24.7981
  0
LINE
  8
0
 10
20.2019
 20
24.7981
 11
20.5215
 21
25.0784
  0
LINE
  8
0
 10
20.5215
 20
25.0784
 11
20.875
 21
25.3146
  0
LINE
  8
0
 10
20.875
 20
25.3146
 11
21.2563
 21
25.5026
  0
LINE
  8
0
 10
21.2563
 20
25.5026
 11
21.6588
 21
25.6393
  0
LINE
  8
0
 10
21.6588
 20
25.6393
 11
22.0758
 21
25.7222
  0
LINE
  8
0
 10
22.0758
 20
25.7222
 11
22.5
 21
25.75
  0
LINE
  8
0
 10
22.5
 20
25.75
 11
22.9242
 21
25.7222
  0
LINE
  8
0
 10
22.9242
 20
25.7222
 11
23.3412
 21
25.6393
  0
LINE
  8
0
 10
23.3412
 20
25.6393
 11
23.7437
 21
25.5026
  0
LINE
  8
0
 10
23.7437
 20
25.5026
 11
24.125
 21
25.3146
  0
LINE
  8
0
 10
24.125
 20
25.3146
 11
24.4785
 21
25.0784
  0
LINE
  8
0
 10
24.4785
 20
25.0784
 11
24.7981
 21
24.7981
  0
LINE
  8
0
 10
24.7981
 20
24.7981
 11
25.0784
 21
24.4785
  0
LINE
  8
0
 10
25.0784
 20
24.4785
 11
25.3146
 21
24.125
  0
LINE
  8
0
 10
25.3146
 20
24.125
 11
25.5026
 21
23.7437
  0
LINE
  8
0
 10
25.5026
 20
23.7437
 11
25.6393
 21
23.3412
  0
LINE
  8
0
 10
25.6393
 20
23.3412
 11
25.7222
 21
22.9242
  0
LINE
  8
0
 10
25.7222
 20
22.9242
 11
25.75
 21
22.5
  0
LINE
  8
0
 10
25.75
 20
22.5
 11
25.7222
 21
22.0758
  0
LINE
  8
0
 10
25.7222
 20
22.0758
 11
25.6393
 21
21.6588
  0
LINE
  8
0
 10
25.6393
 20
21.6588
 11
25.5026
 21
21.2563
  0
LINE
  8
0
 10
25.5026
 20
21.2563
 11
25.3146
 21
20.875
  0
LINE
  8
0
 10
25.3146
 20
20.875
 11
25.0784
 21
20.5215
  0
LINE
  8
0
 10
25.0784
 20
20.5215
 11
24.7981
 21
20.2019
  0
LINE
  8
0
 10
24.7981
 20
20.2019
 11
24.4785
 21
19.9216
  0
LINE
  8
0
 10
24.4785
 20
19.9216
 11
24.125
 21
19.6854
  0
LINE
  8
0
 10
24.125
 20
19.6854
 11
23.7437
 21
19.4974
  0
LINE
  8
0
 10
23.7437
 20
19.4974
 11
23.3412
 21
19.3607
  0
LINE
  8
0
 10
23.3412
 20
19.3607
 11
22.9242
 21
19.2778
  0
LINE
  8
0
 10
22.9242
 20
19.2778
 11
22.5
 21
19.25
  0
LINE
  8
0
 10
22.5
 20
19.25
 11
22.0758
 21
19.2778
  0
LINE
  8
0
 10
37.0758
 20
19.2778
 11
36.6588
 21
19.3607
  0
LINE
  8
0
 10
36.6588
 20
19.3607
 11
36.2563
 21
19.4974
  0
LINE
  8
0
 10
36.2563
 20
19.4974
 11
35.875
 21
19.6854
  0
LINE
  8
0
 10
35.875
 20
19.6854
 11
35.5215
 21
19.9216
  0
LINE
  8
0
 10
35.5215
 20
19.9216
 11
35.2019
 21
20.2019
  0
LINE
  8
0
 10
35.2019
 20
20.2019
 11
34.9216
 21
20.5215
  0
LINE
  8
0
 10
34.9216
 20
20.5215
 11
34.6854
 21
20.875
  0
LINE
  8
0
 10
34.6854
 20
20.875
 11
34.4974
 21
21.2563
  0
LINE
  8
0
 10
34.4974
 20
21.2563
 11
34.3607
 21
21.6588
  0
LINE
  8
0
 10
34.3607
 20
21.6588
 11
34.2778
 21
22.0758
  0
LINE
  8
0
 10
34.2778
 20
22.0758
 11
34.25
 21
22.5
  0
LINE
  8
0
 10
34.25
 20
22.5
 11
34.2778
 21
22.9242
  0
LINE
  8
0
 10
34.2778
 20
22.9242
 11
34.3607
 21
23.3412
  0
LINE
  8
0
 10
34.3607
 20
23.3412
 11
34.4974
 21
23.7437
  0
LINE
  8
0
 10
34.4974
 20
23.7437
 11
34.6854
 21
24.125
  0
LINE
  8
0
 10
34.6854
 20
24.125
 11
34.9216
 21
24.4785
  0
LINE
  8
0
 10
34.9216
 20
24.4785
 11
35.2019
 21
24.7981
  0
LINE
  8
0
 10
35.2019
 20
24.7981
 11
35.5215
 21
25.0784
  0
LINE
  8
0
 10
35.5215
 20
25.0784
 11
35.875
 21
25.3146
  0
LINE
  8
0
 10
35.875
 20
25.3146
 11
36.2563
 21
25.5026
  0
LINE
  8
0
 10
36.2563
 20
25.5026
 11
36.6588
 21
25.6393
  0
LINE
  8
0
 10
36.6588
 20
25.6393
 11
37.0758
 21
25.7222
  0
LINE
  8
0
 10
37.0758
 20
25.7222
 11
37.5
 21
25.75
  0
LINE
  8
0
 10
37.5
 20
25.75
 11
37.9242
 21
25.7222
  0
LINE
  8
0
 10
37.9242
 20
25.7222
 11
38.3412
 21
25.6393
  0
LINE
  8
0
 10
38.3412
 20
25.6393
 11
38.7437
 21
25.5026
  0
LINE
  8
0
 10
38.7437
 20
25.5026
 11
39.125
 21
25.3146
  0
LINE
  8
0
 10
39.125
 20
25.3146
 11
39.4785
 21
25.0784
  0
LINE
  8
0
 10
39.4785
 20
25.0784
 11
39.7981
 21
24.7981
  0
LINE
  8
0
 10
39.7981
 20
24.7981
 11
40.0784
 21
24.4785
  0
LINE
  8
0
 10
40.0784
 20
24.4785
 11
40.3146
 21
24.125
  0
LINE
  8
0
 10
40.3146
 20
24.125
 11
40.5026
 21
23.7437
  0
LINE
  8
0
 10
40.5026
 20
23.7437
 11
40.6393
 21
23.3412
  0
LINE
  8
0
 10
40.6393
 20
23.3412
 11
40.7222
 21
22.9242
  0
LINE
  8
0
 10
40.7222
 20
22.9242
 11
40.75
 21
22.5
  0
LINE
  8
0
 10
40.75
 20
22.5
 11
40.7222
 21
22.0758
  0
LINE
  8
0
 10
40.7222
 20
22.0758
 11
40.6393
 21
21.6588
  0
LINE
  8
0
 10
40.6393
 20
21.6588
 11
40.5026
 21
21.2563
  0
LINE
  8
0
 10
40.5026
 20
21.2563
 11
40.3146
 21
20.875
  0
LINE
  8
0
 10
40.3146
 20
20.875
 11
40.0784
 21
20.5215
  0
LINE
  8
0
 10
40.0784
 20
20.5215
 11
39.7981
 21
20.2019
  0
LINE
  8
0
 10
39.7981
 20
20.2019
 11
39.4785
 21
19.9216
  0
LINE
  8
0
 10
39.4785
 20
19.9216
 11
39.125
 21
19.6854
  0
LINE
  8
0
 10
39.125
 20
19.6854
 11
38.7437
 21
19.4974
  0
LINE
  8
0
 10
38.7437
 20
19.4974
 11
38.3412
 21
19.3607
  0
LINE
  8
0
 10
38.3412
 20
19.3607
 11
37.9242
 21
19.2778
  0
LINE
  8
0
 10
37.9242
 20
19.2778
 11
37.5
 21
19.25
  0
LINE
  8
0
 10
37.5
 20
19.25
 11
37.0758
 21
19.2778
  0
LINE
  8
0
 10
7.07578
 20
4.2778
 11
6.65883
 21
4.36073
  0
LINE
  8
0
 10
6.65883
 20
4.36073
 11
6.25627
 21
4.49739
  0
LINE
  8
0
 10
6.25627
 20
4.49739
 11
5.875
 21
4.68541
  0
LINE
  8
0
 10
5.875
 20
4.68541
 11
5.52151
 21
4.9216
  0
LINE
  8
0
 10
5.52151
 20
4.9216
 11
5.20189
 21
5.20189
  0
LINE
  8
0
 10
5.20189
 20
5.20189
 11
4.9216
 21
5.52151
  0
LINE
  8
0
 10
4.9216
 20
5.52151
 11
4.68541
 21
5.875
  0
LINE
  8
0
 10
4.68541
 20
5.875
 11
4.49739
 21
6.25627
  0
LINE
  8
0
 10
4.49739
 20
6.25627
 11
4.36073
 21
6.65883
  0
LINE
  8
0
 10
4.36073
 20
6.65883
 11
4.2778
 21
7.07578
  0
LINE
  8
0
 10
4.2778
 20
7.07578
 11
4.25
 21
7.5
  0
LINE
  8
0
 10
4.25
 20
7.5
 11
4.2778
 21
7.92421
  0
LINE
  8
0
 10
4.2778
 20
7.92421
 11
4.36073
 21
8.34116
  0
LINE
  8
0
 10
4.36073
 20
8.34116
 11
4.49739
 21
8.74371
  0
LINE
  8
0
 10
4.49739
 20
8.74371
 11
4.68541
 21
9.125
  0
LINE
  8
0
 10
4.68541
 20
9.125
 11
4.9216
 21
9.47847
  0
LINE
  8
0
 10
4.9216
 20
9.47847
 11
5.20189
 21
9.7981
  0
LINE
  8
0
 10
5.20189
 20
9.7981
 11
5.52151
 21
10.0784
  0
LINE
  8
0
 10
5.52151
 20
10.0784
 11
5.875
 21
10.3146
  0
LINE
  8
0
 10
5.875
 20
10.3146
 11
6.25627
 21
10.5026
  0
LINE
  8
0
 10
6.25627
 20
10.5026
 11
6.65883
 21
10.6393
  0
LINE
  8
0
 10
6.65883
 20
10.6393
 11
7.07578
 21
10.7222
  0
LINE
  8
0
 10
7.07578
 20
10.7222
 11
7.5
 21
10.75
  0
LINE
  8
0
 10
7.5
 20
10.75
 11
7.92421
 21
10.7222
  0
LINE
  8
0
 10
7.92421
 20
10.7222
 11
8.34116
 21
10.6393
  0
LINE
  8
0
 10
8.34116
 20
10.6393
 11
8.74371
 21
10.5026
  0
LINE
  8
0
 10
8.74371
 20
10.5026
 11
9.125
 21
10.3146
  0
LINE
  8
0
 10
9.125
 20
10.3146
 11
9.47847
 21
10.0784
  0
LINE
  8
0
 10
9.47847
 20
10.0784
 11
9.7981
 21
9.7981
  0
LINE
  8
0
 10
9.7981
 20
9.7981
 11
10.0784
 21
9.47847
  0
LINE
  8
0
 10
10.0784
 20
9.47847
 11
10.3146
 21
9.125
  0
LINE
  8
0
 10
10.3146
 20
9.125
 11
10.5026
 21
8.74371
  0
LINE
  8
0
 10
10.5026
 20
8.74371
 11
10.6393
 21
8.34116
  0
LINE
  8
0
 10
10.6393
 20
8.34116
 11
10.7222
 21
7.92421
  0
LINE
  8
0
 10
10.7222
 20
7.92421
 11
10.75
 21
7.5
  0
LINE
  8
0
 10
10.75
 20
7.5
 11
10.7222
 21
7.07578
  0
LINE
  8
0
 10
10.7222
 20
7.07578
 11
10.6393
 21
6.65883
  0
LINE
  8
0
 10
10.6393
 20
6.65883
 11
10.5026
 21
6.25627
  0
LINE
  8
0
 10
10.5026
 20
6.25627
 11
10.3146
 21
5.875
  0
LINE
  8
0
 10
10.3146
 20
5.875
 11
10.0784
 21
5.52151
  0
LINE
  8
0
 10
10.0784
 20
5.52151
 11
9.7981
 21
5.20189
  0
LINE
  8
0
 10
9.7981
 20
5.20189
 11
9.47847
 21
4.9216
  0
LINE
  8
0
 10
9.47847
 20
4.9216
 11
9.125
 21
4.68541
  0
LINE
  8
0
 10
9.125
 20
4.68541
 11
8.74371
 21
4.49739
  0
LINE
  8
0
 10
8.74371
 20
4.49739
 11
8.34116
 21
4.36073
  0
LINE
  8
0
 10
8.34116
 20
4.36073
 11
7.92421
 21
4.2778
  0
LINE
  8
0
 10
7.92421
 20
4.2778
 11
7.5
 21
4.25
  0
LINE
  8
0
 10
7.5
 20
4.25
 11
7.07578
 21
4.2778
  0
LINE
  8
0
 10
37.0758
 20
4.2778
 11
36.6588
 21
4.36073
  0
LINE
  8
0
 10
36.6588
 20
4.36073
 11
36.2563
 21
4.49739
  0
LINE
  8
0
 10
36.2563
 20
4.49739
 11
35.875
 21
4.68541
  0
LINE
  8
0
 10
35.875
 20
4.68541
 11
35.5215
 21
4.9216
  0
LINE
  8
0
 10
35.5215
 20
4.9216
 11
35.2019
 21
5.20189
  0
LINE
  8
0
 10
35.2019
 20
5.20189
 11
34.9216
 21
5.52151
  0
LINE
  8
0
 10
34.9216
 20
5.52151
 11
34.6854
 21
5.875
  0
LINE
  8
0
 10
34.6854
 20
5.875
 11
34.4974
 21
6.25627
  0
LINE
  8
0
 10
34.4974
 20
6.25627
 11
34.3607
 21
6.65883
  0
LINE
  8
0
 10
34.3607
 20
6.65883
 11
34.2778
 21
7.07578
  0
LINE
  8
0
 10
34.2778
 20
7.07578
 11
34.25
 21
7.5
  0
LINE
  8
0
 10
34.25
 20
7.5
 11
34.2778
 21
7.92421
  0
LINE
  8
0
 10
34.2778
 20
7.92421
 11
34.3607
 21
8.34116
  0
LINE
  8
0
 10
34.3607
 20
8.34116
 11
34.4974
 21
8.74371
  0
LINE
  8
0
 10
34.4974
 20
8.74371
 11
34.6854
 21
9.125
  0
LINE
  8
0
 10
34.6854
 20
9.125
 11
34.9216
 21
9.47847
  0
LINE
  8
0
 10
34.9216
 20
9.47847
 11
35.2019
 21
9.7981
  0
LINE
  8
0
 10
35.2019
 20
9.7981
 11
35.5215
 21
10.0784
  0
LINE
  8
0
 10
35.5215
 20
10.0784
 11
35.875
 21
10.3146
  0
LINE
  8
0
 10
35.875
 20
10.3146
 11
36.2563
 21
10.5026
  0
LINE
  8
0
 10
36.2563
 20
10.5026
 11
36.6588
 21
10.6393
  0
LINE
  8
0
 10
36.6588
 20
10.6393
 11
37.0758
 21
10.7222
  0
LINE
  8
0
 10
37.0758
 20
10.7222
 11
37.5
 21
10.75
  0
LINE
  8
0
 10
37.5
 20
10.75
 11
37.9242
 21
10.7222
  0
LINE
  8
0
 10
37.9242
 20
10.7222
 11
38.3412
 21
10.6393
  0
LINE
  8
0
 10
38.3412
 20
10.6393
 11
38.7437
 21
10.5026
  0
LINE
  8
0
 10
38.7437
 20
10.5026
 11
39.125
 21
10.3146
  0
LINE
  8
0
 10
39.125
 20
10.3146
 11
39.4785
 21
10.0784
  0
LINE
  8
0
 10
39.4785
 20
10.0784
 11
39.7981
 21
9.7981
  0
LINE
  8
0
 10
39.7981
 20
9.7981
 11
40.0784
 21
9.47847
  0
LINE
  8
0
 10
40.0784
 20
9.47847
 11
40.3146
 21
9.125
  0
LINE
  8
0
 10
40.3146
 20
9.125
 11
40.5026
 21
8.74371
  0
LINE
  8
0
 10
40.5026
 20
8.74371
 11
40.6393
 21
8.34116
  0
LINE
  8
0
 10
40.6393
 20
8.34116
 11
40.7222
 21
7.92421
  0
LINE
  8
0
 10
40.7222
 20
7.92421
 11
40.75
 21
7.5
  0
LINE
  8
0
 10
40.75
 20
7.5
 11
40.7222
 21
7.07578
  0
LINE
  8
0
 10
40.7222
 20
7.07578
 11
40.6393
 21
6.65883
  0
LINE
  8
0
 10
40.6393
 20
6.65883
 11
40.5026
 21
6.25627
  0
LINE
  8
0
 10
40.5026
 20
6.25627
 11
40.3146
 21
5.875
  0
LINE
  8
0
 10
40.3146
 20
5.875
 11
40.0784
 21
5.52151
  0
LINE
  8
0
 10
40.0784
 20
5.52151
 11
39.7981
 21
5.20189
  0
LINE
  8
0
 10
39.7981
 20
5.20189
 11
39.4785
 21
4.9216
  0
LINE
  8
0
 10
39.4785
 20
4.9216
 11
39.125
 21
4.68541
  0
LINE
  8
0
 10
39.125
 20
4.68541
 11
38.7437
 21
4.49739
  0
LINE
  8
0
 10
38.7437
 20
4.49739
 11
38.3412
 21
4.36073
  0
LINE
  8
0
 10
38.3412
 20
4.36073
 11
37.9242
 21
4.2778
  0
LINE
  8
0
 10
37.9242
 20
4.2778
 11
37.5
 21
4.25
  0
LINE
  8
0
 10
37.5
 20
4.25
 11
37.0758
 21
4.2778
  0
LINE
  8
0
 10
22.0758
 20
4.2778
 11
21.6588
 21
4.36073
  0
LINE
  8
0
 10
21.6588
 20
4.36073
 11
21.2563
 21
4.49739
  0
LINE
  8
0
 10
21.2563
 20
4.49739
 11
20.875
 21
4.68541
  0
LINE
  8
0
 10
20.875
 20
4.68541
 11
20.5215
 21
4.9216
  0
LINE
  8
0
 10
20.5215
 20
4.9216
 11
20.2019
 21
5.20189
  0
LINE
  8
0
 10
20.2019
 20
5.20189
 11
19.9216
 21
5.52151
  0
LINE
  8
0
 10
19.9216
 20
5.52151
 11
19.6854
 21
5.875
  0
LINE
  8
0
 10
19.6854
 20
5.875
 11
19.4974
 21
6.25627
  0
LINE
  8
0
 10
19.4974
 20
6.25627
 11
19.3607
 21
6.65883
  0
LINE
  8
0
 10
19.3607
 20
6.65883
 11
19.2778
 21
7.07578
  0
LINE
  8
0
 10
19.2778
 20
7.07578
 11
19.25
 21
7.5
  0
LINE
  8
0
 10
19.25
 20
7.5
 11
19.2778
 21
7.92421
  0
LINE
  8
0
 10
19.2778
 20
7.92421
 11
19.3607
 21
8.34116
  0
LINE
  8
0
 10
19.3607
 20
8.34116
 11
19.4974
 21
8.74371
  0
LINE
  8
0
 10
19.4974
 20
8.74371
 11
19.6854
 21
9.125
  0
LINE
  8
0
 10
19.6854
 20
9.125
 11
19.9216
 21
9.47847
  0
LINE
  8
0
 10
19.9216
 20
9.47847
 11
20.2019
 21
9.7981
  0
LINE
  8
0
 10
20.2019
 20
9.7981
 11
20.5215
 21
10.0784
  0
LINE
  8
0
 10
20.5215
 20
10.0784
 11
20.875
 21
10.3146
  0
LINE
  8
0
 10
20.875
 20
10.3146
 11
21.2563
 21
10.5026
  0
LINE
  8
0
 10
21.2563
 20
10.5026
 11
21.6588
 21
10.6393
  0
LINE
  8
0
 10
21.6588
 20
10.6393
 11
22.0758
 21
10.7222
  0
LINE
  8
0
 10
22.0758
 20
10.7222
 11
22.5
 21
10.75
  0
LINE
  8
0
 10
22.5
 20
10.75
 11
22.9242
 21
10.7222
  0
LINE
  8
0
 10
22.9242
 20
10.7222
 11
23.3412
 21
10.6393
  0
LINE
  8
0
 10
23.3412
 20
10.6393
 11
23.7437
 21
10.5026
  0
LINE
  8
0
 10
23.7437
 20
10.5026
 11
24.125
 21
10.3146
  0
LINE
  8
0
 10
24.125
 20
10.3146
 11
24.4785
 21
10.0784
  0
LINE
  8
0
 10
24.4785
 20
10.0784
 11
24.7981
 21
9.7981
  0
LINE
  8
0
 10
24.7981
 20
9.7981
 11
25.0784
 21
9.47847
  0
LINE
  8
0
 10
25.0784
 20
9.47847
 11
25.3146
 21
9.125
  0
LINE
  8
0
 10
25.3146
 20
9.125
 11
25.5026
 21
8.74371
  0
LINE
  8
0
 10
25.5026
 20
8.74371
 11
25.6393
 21
8.34116
  0
LINE
  8
0
 10
25.6393
 20
8.34116
 11
25.7222
 21
7.92421
  0
LINE
  8
0
 10
25.7222
 20
7.92421
 11
25.75
 21
7.5
  0
LINE
  8
0
 10
25.75
 20
7.5
 11
25.7222
 21
7.07578
  0
LINE
  8
0
 10
25.7222
 20
7.07578
 11
25.6393
 21
6.65883
  0
LINE
  8
0
 10
25.6393
 20
6.65883
 11
25.5026
 21
6.25627
  0
LINE
  8
0
 10
25.5026
 20
6.25627
 11
25.3146
 21
5.875
  0
LINE
  8
0
 10
25.3146
 20
5.875
 11
25.0784
 21
5.52151
  0
LINE
  8
0
 10
25.0784
 20
5.52151
 11
24.7981
 21
5.20189
  0
LINE
  8
0
 10
24.7981
 20
5.20189
 11
24.4785
 21
4.9216
  0
LINE
  8
0
 10
24.4785
 20
4.9216
 11
24.125
 21
4.68541
  0
LINE
  8
0
 10
24.125
 20
4.68541
 11
23.7437
 21
4.49739
  0
LINE
  8
0
 10
23.7437
 20
4.49739
 11
23.3412
 21
4.36073
  0
LINE
  8
0
 10
23.3412
 20
4.36073
 11
22.9242
 21
4.2778
  0
LINE
  8
0
 10
22.9242
 20
4.2778
 11
22.5
 21
4.25
  0
LINE
  8
0
 10
22.5
 20
4.25
 11
22.0758
 21
4.2778
  0
ENDSEC
  0
SECTION
  2
OBJECTS
  0
DICTIONARY
  0
ENDSEC
  0
EOF
