<?xml version="1.0" encoding="UTF-8"?>
<!DOCTYPE svg PUBLIC "-//W3C//DTD SVG 1.1//EN" "http://www.w3.org/Graphics/SVG/1.1/DTD/svg11.dtd">
<!-- Creator: CorelDRAW -->
<svg xmlns="http://www.w3.org/2000/svg" xml:space="preserve" width="60.5302mm" height="28.5292mm" style="shape-rendering:geometricPrecision; text-rendering:geometricPrecision; image-rendering:optimizeQuality; fill-rule:evenodd; clip-rule:evenodd"
viewBox="0 0 13.5434 6.38331"
 xmlns:xlink="http://www.w3.org/1999/xlink">
 <defs>
  <style type="text/css">
   <![CDATA[
    .str1 {stroke:#1F1A17;stroke-width:0.118407;stroke-linecap:round;stroke-linejoin:round}
    .str0 {stroke:black;stroke-width:0.118407;stroke-linecap:round;stroke-linejoin:round}
    .fil0 {fill:none}
   ]]>
  </style>
 </defs>
 <g id="Layer_x0020_1">
  <metadata id="CorelCorpID_0Corel-Layer"/>
  <path class="fil0 str0" d="M11.5508 2.20717l0 -0.105071c-0.0896105,-0.0560038 -0.165483,-0.131921 -0.221509,-0.221509l-0.105049 0 0 -0.367034 0 -0.367034 0.105049 0c0.0560261,-0.0895881 0.131899,-0.165505 0.221509,-0.221531l0 -0.105049 0.367034 0 0.367056 0 0 0.105049c0.0896105,0.0560261 0.165483,0.131943 0.221509,0.221531l0.105049 0 0 0.367034 0 0.367034 -0.105049 0c-0.0560261,0.0895881 -0.131899,0.165505 -0.221509,0.221509l0 0.105071 -0.367056 0 -0.367034 0z"/>
  <path class="fil0 str0" d="M7.0759 2.20717l0 -0.105071c-0.0896105,-0.0560038 -0.165483,-0.131921 -0.221509,-0.221509l-0.105049 0 0 -0.367034 0 -0.367034 0.105049 0c0.0560261,-0.0895881 0.131899,-0.165505 0.221509,-0.221531l0 -0.105049 0.367034 0 0.367056 0 0 0.105049c0.0896105,0.0560261 0.165483,0.131943 0.221509,0.221531l0.105049 0 0 0.367034 0 0.367034 -0.105049 0c-0.0560261,0.0895881 -0.131899,0.165505 -0.221509,0.221509l0 0.105071 -0.367056 0 -0.367034 0z"/>
  <path class="fil0 str0" d="M12.3655 0.0592033c0.611186,0 1.10806,0.490452 1.11851,1.09915l0.000246121 4.49453 0 -2.23747e-005 0 0 -3.13268 0 0 0.67124 -1.34248 0 0 -0.67124 -0.894986 0 0 -1.11873 0.447493 -2.23747e-005 0 -1.34246c-0.857688,0 -1.37978,0 -2.23747,0l0 1.34246 0.447493 2.23747e-005 0 1.11873 -0.894785 0 0 0.67124 -0.000201372 0 -1.34228 0 -0.000201372 0 0 -0.67124 -0.894986 2.23747e-005 0 -1.11876 0.447493 -2.23747e-005 0 -1.34246c-0.857688,0 -1.37978,0 -2.23747,0l0 1.34246 0.447493 2.23747e-005 0 1.11873 -0.894986 0 0 0.67124 -1.31451 0 -0.0279683 0 0 -0.894986 0.0232025 0 -0.0189066 -3.53799 1.33818 0 0 -0.755145 -1.34226 0c0.010449,-0.608703 0.507323,-1.07678 1.11851,-1.07678l11.1875 0z"/>
  <path class="fil0 str0" d="M2.60096 2.20717l0 -0.105071c-0.0896105,-0.0560038 -0.165483,-0.131921 -0.221509,-0.221509l-0.105049 0 0 -0.367034 0 -0.367034 0.105049 0c0.0560261,-0.0895881 0.131899,-0.165505 0.221509,-0.221531l0 -0.105049 0.367034 0 0.367056 0 0 0.105049c0.0896105,0.0560261 0.165483,0.131943 0.221509,0.221531l0.105049 0 0 0.367034 0 0.367034 -0.105049 0c-0.0560261,0.0895881 -0.131899,0.165505 -0.221509,0.221509l0 0.105071 -0.367056 0 -0.367034 0z"/>
  <rect class="fil0 str1" x="4.51185" y="1.15556" width="1.38723" height="0.715989"/>
  <rect class="fil0 str1" x="8.98678" y="1.15556" width="1.38723" height="0.715989"/>
 </g>
</svg>
