<?xml version="1.0" standalone="no"?>
<!DOCTYPE svg PUBLIC "-//W3C//DTD SVG 1.1//EN" "http://www.w3.org/Graphics/SVG/1.1/DTD/svg11.dtd">
<svg width="147mm" height="12mm" viewBox="9 -21 147 12" xmlns="http://www.w3.org/2000/svg" version="1.1">
<title>OpenSCAD Model</title>
<path d="
M 151,-9.00986 L 151.314,-9.00986 L 151.937,-9.08856 L 152.545,-9.24471 L 153.129,-9.47586 L 153.679,-9.77835
 L 154.187,-10.1474 L 154.645,-10.5773 L 155.045,-11.0611 L 155.382,-11.5912 L 155.649,-12.1594 L 155.843,-12.7565
 L 155.961,-13.3733 L 156,-14 L 156,-16 L 155.961,-16.6267 L 155.843,-17.2434 L 155.649,-17.8406
 L 155.382,-18.4088 L 155.045,-18.9389 L 154.645,-19.4227 L 154.187,-19.8526 L 153.679,-20.2216 L 153.129,-20.5241
 L 152.545,-20.7553 L 151.937,-20.9114 L 151.314,-20.9901 L 151,-20.9901 L 151,-21 L 14,-21
 L 14,-20.9901 L 13.686,-20.9901 L 13.0631,-20.9114 L 12.4549,-20.7553 L 11.8711,-20.5241 L 11.3209,-20.2216
 L 10.8129,-19.8526 L 10.3551,-19.4227 L 9.95491,-18.9389 L 9.61845,-18.4088 L 9.3511,-17.8406 L 9.15707,-17.2434
 L 9.03941,-16.6267 L 9,-16 L 9,-14 L 9.03941,-13.3733 L 9.15707,-12.7565 L 9.3511,-12.1594
 L 9.61845,-11.5912 L 9.95491,-11.0611 L 10.3551,-10.5773 L 10.8129,-10.1474 L 11.3209,-9.77835 L 11.8711,-9.47586
 L 12.4549,-9.24471 L 13.0631,-9.08856 L 13.686,-9.00986 L 14,-9.00986 L 14,-9 L 151,-9
 z
M 149.796,-11.7564 L 149.391,-11.8076 L 148.996,-11.9091 L 148.616,-12.0593 L 148.259,-12.2559 L 147.928,-12.4958
 L 147.631,-12.7752 L 147.371,-13.0897 L 147.152,-13.4343 L 146.978,-13.8036 L 146.852,-14.1918 L 146.776,-14.5927
 L 146.75,-15 L 146.776,-15.4073 L 146.852,-15.8082 L 146.978,-16.1964 L 147.152,-16.5657 L 147.371,-16.9103
 L 147.631,-17.2248 L 147.928,-17.5042 L 148.259,-17.7441 L 148.616,-17.9407 L 148.996,-18.0909 L 149.391,-18.1924
 L 149.796,-18.2436 L 150.204,-18.2436 L 150.609,-18.1924 L 151.004,-18.0909 L 151.384,-17.9407 L 151.741,-17.7441
 L 152.072,-17.5042 L 152.369,-17.2248 L 152.629,-16.9103 L 152.848,-16.5657 L 153.022,-16.1964 L 153.148,-15.8082
 L 153.224,-15.4073 L 153.25,-15 L 153.224,-14.5927 L 153.148,-14.1918 L 153.022,-13.8036 L 152.848,-13.4343
 L 152.629,-13.0897 L 152.369,-12.7752 L 152.072,-12.4958 L 151.741,-12.2559 L 151.384,-12.0593 L 151.004,-11.9091
 L 150.609,-11.8076 L 150.204,-11.7564 z
M 134.796,-11.7564 L 134.391,-11.8076 L 133.996,-11.9091 L 133.616,-12.0593 L 133.259,-12.2559 L 132.928,-12.4958
 L 132.631,-12.7752 L 132.371,-13.0897 L 132.152,-13.4343 L 131.978,-13.8036 L 131.852,-14.1918 L 131.776,-14.5927
 L 131.75,-15 L 131.776,-15.4073 L 131.852,-15.8082 L 131.978,-16.1964 L 132.152,-16.5657 L 132.371,-16.9103
 L 132.631,-17.2248 L 132.928,-17.5042 L 133.259,-17.7441 L 133.616,-17.9407 L 133.996,-18.0909 L 134.391,-18.1924
 L 134.796,-18.2436 L 135.204,-18.2436 L 135.609,-18.1924 L 136.004,-18.0909 L 136.384,-17.9407 L 136.741,-17.7441
 L 137.072,-17.5042 L 137.369,-17.2248 L 137.629,-16.9103 L 137.848,-16.5657 L 138.022,-16.1964 L 138.148,-15.8082
 L 138.224,-15.4073 L 138.25,-15 L 138.224,-14.5927 L 138.148,-14.1918 L 138.022,-13.8036 L 137.848,-13.4343
 L 137.629,-13.0897 L 137.369,-12.7752 L 137.072,-12.4958 L 136.741,-12.2559 L 136.384,-12.0593 L 136.004,-11.9091
 L 135.609,-11.8076 L 135.204,-11.7564 z
M 119.796,-11.7564 L 119.391,-11.8076 L 118.996,-11.9091 L 118.616,-12.0593 L 118.259,-12.2559 L 117.928,-12.4958
 L 117.631,-12.7752 L 117.371,-13.0897 L 117.152,-13.4343 L 116.978,-13.8036 L 116.852,-14.1918 L 116.776,-14.5927
 L 116.75,-15 L 116.776,-15.4073 L 116.852,-15.8082 L 116.978,-16.1964 L 117.152,-16.5657 L 117.371,-16.9103
 L 117.631,-17.2248 L 117.928,-17.5042 L 118.259,-17.7441 L 118.616,-17.9407 L 118.996,-18.0909 L 119.391,-18.1924
 L 119.796,-18.2436 L 120.204,-18.2436 L 120.609,-18.1924 L 121.004,-18.0909 L 121.384,-17.9407 L 121.741,-17.7441
 L 122.072,-17.5042 L 122.369,-17.2248 L 122.629,-16.9103 L 122.848,-16.5657 L 123.022,-16.1964 L 123.148,-15.8082
 L 123.224,-15.4073 L 123.25,-15 L 123.224,-14.5927 L 123.148,-14.1918 L 123.022,-13.8036 L 122.848,-13.4343
 L 122.629,-13.0897 L 122.369,-12.7752 L 122.072,-12.4958 L 121.741,-12.2559 L 121.384,-12.0593 L 121.004,-11.9091
 L 120.609,-11.8076 L 120.204,-11.7564 z
M 104.796,-11.7564 L 104.391,-11.8076 L 103.996,-11.9091 L 103.616,-12.0593 L 103.259,-12.2559 L 102.928,-12.4958
 L 102.631,-12.7752 L 102.371,-13.0897 L 102.152,-13.4343 L 101.978,-13.8036 L 101.852,-14.1918 L 101.776,-14.5927
 L 101.75,-15 L 101.776,-15.4073 L 101.852,-15.8082 L 101.978,-16.1964 L 102.152,-16.5657 L 102.371,-16.9103
 L 102.631,-17.2248 L 102.928,-17.5042 L 103.259,-17.7441 L 103.616,-17.9407 L 103.996,-18.0909 L 104.391,-18.1924
 L 104.796,-18.2436 L 105.204,-18.2436 L 105.609,-18.1924 L 106.004,-18.0909 L 106.384,-17.9407 L 106.741,-17.7441
 L 107.072,-17.5042 L 107.369,-17.2248 L 107.629,-16.9103 L 107.848,-16.5657 L 108.022,-16.1964 L 108.148,-15.8082
 L 108.224,-15.4073 L 108.25,-15 L 108.224,-14.5927 L 108.148,-14.1918 L 108.022,-13.8036 L 107.848,-13.4343
 L 107.629,-13.0897 L 107.369,-12.7752 L 107.072,-12.4958 L 106.741,-12.2559 L 106.384,-12.0593 L 106.004,-11.9091
 L 105.609,-11.8076 L 105.204,-11.7564 z
M 89.7959,-11.7564 L 89.391,-11.8076 L 88.9957,-11.9091 L 88.6162,-12.0593 L 88.2586,-12.2559 L 87.9284,-12.4958
 L 87.6308,-12.7752 L 87.3707,-13.0897 L 87.152,-13.4343 L 86.9782,-13.8036 L 86.8521,-14.1918 L 86.7756,-14.5927
 L 86.75,-15 L 86.7756,-15.4073 L 86.8521,-15.8082 L 86.9782,-16.1964 L 87.152,-16.5657 L 87.3707,-16.9103
 L 87.6308,-17.2248 L 87.9284,-17.5042 L 88.2586,-17.7441 L 88.6162,-17.9407 L 88.9957,-18.0909 L 89.391,-18.1924
 L 89.7959,-18.2436 L 90.2041,-18.2436 L 90.609,-18.1924 L 91.0043,-18.0909 L 91.3838,-17.9407 L 91.7414,-17.7441
 L 92.0716,-17.5042 L 92.3691,-17.2248 L 92.6293,-16.9103 L 92.848,-16.5657 L 93.0218,-16.1964 L 93.1479,-15.8082
 L 93.2244,-15.4073 L 93.25,-15 L 93.2244,-14.5927 L 93.1479,-14.1918 L 93.0218,-13.8036 L 92.848,-13.4343
 L 92.6293,-13.0897 L 92.3691,-12.7752 L 92.0716,-12.4958 L 91.7414,-12.2559 L 91.3838,-12.0593 L 91.0043,-11.9091
 L 90.609,-11.8076 L 90.2041,-11.7564 z
M 74.7959,-11.7564 L 74.391,-11.8076 L 73.9957,-11.9091 L 73.6162,-12.0593 L 73.2586,-12.2559 L 72.9284,-12.4958
 L 72.6308,-12.7752 L 72.3707,-13.0897 L 72.152,-13.4343 L 71.9782,-13.8036 L 71.8521,-14.1918 L 71.7756,-14.5927
 L 71.75,-15 L 71.7756,-15.4073 L 71.8521,-15.8082 L 71.9782,-16.1964 L 72.152,-16.5657 L 72.3707,-16.9103
 L 72.6308,-17.2248 L 72.9284,-17.5042 L 73.2586,-17.7441 L 73.6162,-17.9407 L 73.9957,-18.0909 L 74.391,-18.1924
 L 74.7959,-18.2436 L 75.2041,-18.2436 L 75.609,-18.1924 L 76.0043,-18.0909 L 76.3838,-17.9407 L 76.7414,-17.7441
 L 77.0716,-17.5042 L 77.3691,-17.2248 L 77.6293,-16.9103 L 77.848,-16.5657 L 78.0218,-16.1964 L 78.1479,-15.8082
 L 78.2244,-15.4073 L 78.25,-15 L 78.2244,-14.5927 L 78.1479,-14.1918 L 78.0218,-13.8036 L 77.848,-13.4343
 L 77.6293,-13.0897 L 77.3691,-12.7752 L 77.0716,-12.4958 L 76.7414,-12.2559 L 76.3838,-12.0593 L 76.0043,-11.9091
 L 75.609,-11.8076 L 75.2041,-11.7564 z
M 59.7959,-11.7564 L 59.391,-11.8076 L 58.9957,-11.9091 L 58.6162,-12.0593 L 58.2586,-12.2559 L 57.9284,-12.4958
 L 57.6308,-12.7752 L 57.3707,-13.0897 L 57.152,-13.4343 L 56.9782,-13.8036 L 56.8521,-14.1918 L 56.7756,-14.5927
 L 56.75,-15 L 56.7756,-15.4073 L 56.8521,-15.8082 L 56.9782,-16.1964 L 57.152,-16.5657 L 57.3707,-16.9103
 L 57.6308,-17.2248 L 57.9284,-17.5042 L 58.2586,-17.7441 L 58.6162,-17.9407 L 58.9957,-18.0909 L 59.391,-18.1924
 L 59.7959,-18.2436 L 60.2041,-18.2436 L 60.609,-18.1924 L 61.0043,-18.0909 L 61.3838,-17.9407 L 61.7414,-17.7441
 L 62.0716,-17.5042 L 62.3691,-17.2248 L 62.6293,-16.9103 L 62.848,-16.5657 L 63.0218,-16.1964 L 63.1479,-15.8082
 L 63.2244,-15.4073 L 63.25,-15 L 63.2244,-14.5927 L 63.1479,-14.1918 L 63.0218,-13.8036 L 62.848,-13.4343
 L 62.6293,-13.0897 L 62.3691,-12.7752 L 62.0716,-12.4958 L 61.7414,-12.2559 L 61.3838,-12.0593 L 61.0043,-11.9091
 L 60.609,-11.8076 L 60.2041,-11.7564 z
M 44.7959,-11.7564 L 44.391,-11.8076 L 43.9957,-11.9091 L 43.6162,-12.0593 L 43.2586,-12.2559 L 42.9284,-12.4958
 L 42.6308,-12.7752 L 42.3707,-13.0897 L 42.152,-13.4343 L 41.9782,-13.8036 L 41.8521,-14.1918 L 41.7756,-14.5927
 L 41.75,-15 L 41.7756,-15.4073 L 41.8521,-15.8082 L 41.9782,-16.1964 L 42.152,-16.5657 L 42.3707,-16.9103
 L 42.6308,-17.2248 L 42.9284,-17.5042 L 43.2586,-17.7441 L 43.6162,-17.9407 L 43.9957,-18.0909 L 44.391,-18.1924
 L 44.7959,-18.2436 L 45.2041,-18.2436 L 45.609,-18.1924 L 46.0043,-18.0909 L 46.3838,-17.9407 L 46.7414,-17.7441
 L 47.0716,-17.5042 L 47.3691,-17.2248 L 47.6293,-16.9103 L 47.848,-16.5657 L 48.0218,-16.1964 L 48.1479,-15.8082
 L 48.2244,-15.4073 L 48.25,-15 L 48.2244,-14.5927 L 48.1479,-14.1918 L 48.0218,-13.8036 L 47.848,-13.4343
 L 47.6293,-13.0897 L 47.3691,-12.7752 L 47.0716,-12.4958 L 46.7414,-12.2559 L 46.3838,-12.0593 L 46.0043,-11.9091
 L 45.609,-11.8076 L 45.2041,-11.7564 z
M 29.7959,-11.7564 L 29.391,-11.8076 L 28.9957,-11.9091 L 28.6162,-12.0593 L 28.2586,-12.2559 L 27.9284,-12.4958
 L 27.6308,-12.7752 L 27.3707,-13.0897 L 27.152,-13.4343 L 26.9782,-13.8036 L 26.8521,-14.1918 L 26.7756,-14.5927
 L 26.75,-15 L 26.7756,-15.4073 L 26.8521,-15.8082 L 26.9782,-16.1964 L 27.152,-16.5657 L 27.3707,-16.9103
 L 27.6308,-17.2248 L 27.9284,-17.5042 L 28.2586,-17.7441 L 28.6162,-17.9407 L 28.9957,-18.0909 L 29.391,-18.1924
 L 29.7959,-18.2436 L 30.2041,-18.2436 L 30.609,-18.1924 L 31.0043,-18.0909 L 31.3838,-17.9407 L 31.7414,-17.7441
 L 32.0716,-17.5042 L 32.3691,-17.2248 L 32.6293,-16.9103 L 32.848,-16.5657 L 33.0218,-16.1964 L 33.1479,-15.8082
 L 33.2244,-15.4073 L 33.25,-15 L 33.2244,-14.5927 L 33.1479,-14.1918 L 33.0218,-13.8036 L 32.848,-13.4343
 L 32.6293,-13.0897 L 32.3691,-12.7752 L 32.0716,-12.4958 L 31.7414,-12.2559 L 31.3838,-12.0593 L 31.0043,-11.9091
 L 30.609,-11.8076 L 30.2041,-11.7564 z
M 14.7959,-11.7564 L 14.391,-11.8076 L 13.9957,-11.9091 L 13.6162,-12.0593 L 13.2586,-12.2559 L 12.9284,-12.4958
 L 12.6308,-12.7752 L 12.3707,-13.0897 L 12.152,-13.4343 L 11.9782,-13.8036 L 11.8521,-14.1918 L 11.7756,-14.5927
 L 11.75,-15 L 11.7756,-15.4073 L 11.8521,-15.8082 L 11.9782,-16.1964 L 12.152,-16.5657 L 12.3707,-16.9103
 L 12.6308,-17.2248 L 12.9284,-17.5042 L 13.2586,-17.7441 L 13.6162,-17.9407 L 13.9957,-18.0909 L 14.391,-18.1924
 L 14.7959,-18.2436 L 15.2041,-18.2436 L 15.609,-18.1924 L 16.0043,-18.0909 L 16.3838,-17.9407 L 16.7414,-17.7441
 L 17.0716,-17.5042 L 17.3691,-17.2248 L 17.6293,-16.9103 L 17.848,-16.5657 L 18.0218,-16.1964 L 18.1479,-15.8082
 L 18.2244,-15.4073 L 18.25,-15 L 18.2244,-14.5927 L 18.1479,-14.1918 L 18.0218,-13.8036 L 17.848,-13.4343
 L 17.6293,-13.0897 L 17.3691,-12.7752 L 17.0716,-12.4958 L 16.7414,-12.2559 L 16.3838,-12.0593 L 16.0043,-11.9091
 L 15.609,-11.8076 L 15.2041,-11.7564 z
" stroke="black" fill="lightgray" stroke-width="0.5"/>
</svg>
