G04 #@! TF.GenerationSoftware,KiCad,Pcbnew,(5.0.2)-1*
G04 #@! TF.CreationDate,2021-08-06T22:30:58+01:00*
G04 #@! TF.ProjectId,CN-BA3-03-03-kicad,434e2d42-4133-42d3-9033-2d30332d6b69,rev?*
G04 #@! TF.SameCoordinates,Original*
G04 #@! TF.FileFunction,Copper,L2,Bot*
G04 #@! TF.FilePolarity,Positive*
%FSLAX46Y46*%
G04 Gerber Fmt 4.6, Leading zero omitted, Abs format (unit mm)*
G04 Created by KiCad (PCBNEW (5.0.2)-1) date 06/08/2021 22:30:58*
%MOMM*%
%LPD*%
G01*
G04 APERTURE LIST*
G04 #@! TA.AperFunction,ComponentPad*
%ADD10O,4.000000X2.500000*%
G04 #@! TD*
G04 #@! TA.AperFunction,ComponentPad*
%ADD11O,4.000000X3.000000*%
G04 #@! TD*
G04 #@! TA.AperFunction,ComponentPad*
%ADD12O,3.000000X4.000000*%
G04 #@! TD*
G04 #@! TA.AperFunction,ComponentPad*
%ADD13O,2.000000X3.000000*%
G04 #@! TD*
G04 #@! TA.AperFunction,ComponentPad*
%ADD14R,2.000000X3.000000*%
G04 #@! TD*
G04 #@! TA.AperFunction,Conductor*
%ADD15C,0.800000*%
G04 #@! TD*
G04 APERTURE END LIST*
D10*
G04 #@! TO.P,SW1,2*
G04 #@! TO.N,Net-(J2-Pad2)*
X-15413000Y-12000000D03*
G04 #@! TO.P,SW1,1*
G04 #@! TO.N,+5V*
X-15413000Y-16699000D03*
G04 #@! TO.P,SW1,3*
G04 #@! TO.N,GND*
X-15413000Y-7301000D03*
G04 #@! TO.P,SW1,6*
G04 #@! TO.N,+5V*
X-10587000Y-7301000D03*
G04 #@! TO.P,SW1,5*
G04 #@! TO.N,Net-(J2-Pad1)*
X-10587000Y-12000000D03*
G04 #@! TO.P,SW1,4*
G04 #@! TO.N,GND*
X-10587000Y-16699000D03*
G04 #@! TD*
G04 #@! TO.P,SW2,2*
G04 #@! TO.N,Net-(J3-Pad2)*
X10587000Y-12000000D03*
G04 #@! TO.P,SW2,1*
G04 #@! TO.N,+5V*
X10587000Y-16699000D03*
G04 #@! TO.P,SW2,3*
G04 #@! TO.N,GND*
X10587000Y-7301000D03*
G04 #@! TO.P,SW2,6*
G04 #@! TO.N,+5V*
X15413000Y-7301000D03*
G04 #@! TO.P,SW2,5*
G04 #@! TO.N,Net-(J3-Pad1)*
X15413000Y-12000000D03*
G04 #@! TO.P,SW2,4*
G04 #@! TO.N,GND*
X15413000Y-16699000D03*
G04 #@! TD*
D11*
G04 #@! TO.P,J1,2*
G04 #@! TO.N,Net-(J1-Pad2)*
X0Y-13493400D03*
G04 #@! TO.P,J1,1*
G04 #@! TO.N,+5V*
X0Y-7498600D03*
D12*
G04 #@! TO.P,J1,3*
G04 #@! TO.N,GND*
X-4699000Y-10499600D03*
G04 #@! TD*
D13*
G04 #@! TO.P,J2,2*
G04 #@! TO.N,Net-(J2-Pad2)*
X-8770000Y11685000D03*
D14*
G04 #@! TO.P,J2,1*
G04 #@! TO.N,Net-(J2-Pad1)*
X-6230000Y11685000D03*
G04 #@! TD*
G04 #@! TO.P,J3,1*
G04 #@! TO.N,Net-(J3-Pad1)*
X8770000Y11685000D03*
D13*
G04 #@! TO.P,J3,2*
G04 #@! TO.N,Net-(J3-Pad2)*
X6230000Y11685000D03*
G04 #@! TD*
D15*
G04 #@! TO.N,+5V*
X-197600Y-7301000D02*
X0Y-7498600D01*
X197600Y-7301000D02*
X0Y-7498600D01*
X-14663000Y-16699000D02*
X-15413000Y-16699000D01*
X-12613000Y-14649000D02*
X-14663000Y-16699000D01*
X-9869691Y-14649000D02*
X-12613000Y-14649000D01*
X-7787000Y-12566309D02*
X-9869691Y-14649000D01*
X-7787000Y-9351000D02*
X-7787000Y-12566309D01*
X-9837000Y-7301000D02*
X-7787000Y-9351000D01*
X-10587000Y-7301000D02*
X-9837000Y-7301000D01*
X-5934600Y-7498600D02*
X0Y-7498600D01*
X-7787000Y-9351000D02*
X-5934600Y-7498600D01*
X12637000Y-18749000D02*
X10587000Y-16699000D01*
X16729309Y-18749000D02*
X12637000Y-18749000D01*
X18013010Y-17465299D02*
X16729309Y-18749000D01*
X18013010Y-9151010D02*
X18013010Y-17465299D01*
X16163000Y-7301000D02*
X18013010Y-9151010D01*
X15413000Y-7301000D02*
X16163000Y-7301000D01*
G04 #@! TO.N,GND*
X-12637000Y-18749000D02*
X-10587000Y-16699000D01*
X-16729309Y-18749000D02*
X-12637000Y-18749000D01*
X-18213000Y-17265309D02*
X-16729309Y-18749000D01*
X-18213000Y-9351000D02*
X-18213000Y-17265309D01*
X-16163000Y-7301000D02*
X-18213000Y-9351000D01*
X-15413000Y-7301000D02*
X-16163000Y-7301000D01*
X-4699000Y-13299600D02*
X-4699000Y-10499600D01*
X-4699000Y-13611000D02*
X-4699000Y-13299600D01*
X-7787000Y-16699000D02*
X-4699000Y-13611000D01*
X-10587000Y-16699000D02*
X-7787000Y-16699000D01*
X14663000Y-16699000D02*
X15413000Y-16699000D01*
X9869691Y-14649000D02*
X12613000Y-14649000D01*
X7787000Y-12566309D02*
X9869691Y-14649000D01*
X12613000Y-14649000D02*
X14663000Y-16699000D01*
X7787000Y-9351000D02*
X7787000Y-12566309D01*
X9837000Y-7301000D02*
X7787000Y-9351000D01*
X10587000Y-7301000D02*
X9837000Y-7301000D01*
X-2399000Y-10499600D02*
X-4699000Y-10499600D01*
X4588400Y-10499600D02*
X-2399000Y-10499600D01*
X7787000Y-7301000D02*
X4588400Y-10499600D01*
X10587000Y-7301000D02*
X7787000Y-7301000D01*
G04 #@! TD*
M02*
