solid OpenSCAD_Model
  facet normal 0 0 -1
    outer loop
      vertex 14.036 35.6401 0.2
      vertex 13.686 35.9901 0.2
      vertex 14 35.9901 0.2
    endloop
  endfacet
  facet normal 0 0 -1
    outer loop
      vertex 13.4131 35.5614 0.2
      vertex 13.686 35.9901 0.2
      vertex 14.036 35.6401 0.2
    endloop
  endfacet
  facet normal 0 0 -1
    outer loop
      vertex 13.4131 35.5614 0.2
      vertex 13.0631 35.9114 0.2
      vertex 13.686 35.9901 0.2
    endloop
  endfacet
  facet normal 0 0 -1
    outer loop
      vertex 12.8049 35.4053 0.2
      vertex 13.0631 35.9114 0.2
      vertex 13.4131 35.5614 0.2
    endloop
  endfacet
  facet normal 0 0 -1
    outer loop
      vertex 12.8049 35.4053 0.2
      vertex 12.4549 35.7553 0.2
      vertex 13.0631 35.9114 0.2
    endloop
  endfacet
  facet normal 0 0 -1
    outer loop
      vertex 12.2211 35.1741 0.2
      vertex 12.4549 35.7553 0.2
      vertex 12.8049 35.4053 0.2
    endloop
  endfacet
  facet normal 0 0 -1
    outer loop
      vertex 12.2211 35.1741 0.2
      vertex 11.8711 35.5241 0.2
      vertex 12.4549 35.7553 0.2
    endloop
  endfacet
  facet normal 0 0 -1
    outer loop
      vertex 11.6709 34.8716 0.2
      vertex 11.8711 35.5241 0.2
      vertex 12.2211 35.1741 0.2
    endloop
  endfacet
  facet normal 0 0 -1
    outer loop
      vertex 11.6709 34.8716 0.2
      vertex 11.3209 35.2216 0.2
      vertex 11.8711 35.5241 0.2
    endloop
  endfacet
  facet normal 0 0 -1
    outer loop
      vertex 11.1629 34.5026 0.2
      vertex 11.3209 35.2216 0.2
      vertex 11.6709 34.8716 0.2
    endloop
  endfacet
  facet normal 0 0 -1
    outer loop
      vertex 11.1629 34.5026 0.2
      vertex 10.8129 34.8526 0.2
      vertex 11.3209 35.2216 0.2
    endloop
  endfacet
  facet normal 0 0 -1
    outer loop
      vertex 10.7052 34.0727 0.2
      vertex 10.8129 34.8526 0.2
      vertex 11.1629 34.5026 0.2
    endloop
  endfacet
  facet normal 0 0 -1
    outer loop
      vertex 10.7052 34.0727 0.2
      vertex 10.3551 34.4227 0.2
      vertex 10.8129 34.8526 0.2
    endloop
  endfacet
  facet normal 0 0 -1
    outer loop
      vertex 9.95491 33.9389 0.2
      vertex 10.7052 34.0727 0.2
      vertex 10.3049 33.5889 0.2
    endloop
  endfacet
  facet normal 0 0 -1
    outer loop
      vertex 9.61845 33.4088 0.2
      vertex 10.3049 33.5889 0.2
      vertex 9.96846 33.0588 0.2
    endloop
  endfacet
  facet normal -0 0 -1
    outer loop
      vertex 10.7052 34.0727 0.2
      vertex 9.95491 33.9389 0.2
      vertex 10.3551 34.4227 0.2
    endloop
  endfacet
  facet normal 0 0 -1
    outer loop
      vertex 9.3511 32.8406 0.2
      vertex 9.96846 33.0588 0.2
      vertex 9.70111 32.4906 0.2
    endloop
  endfacet
  facet normal -0 0 -1
    outer loop
      vertex 10.3049 33.5889 0.2
      vertex 9.61845 33.4088 0.2
      vertex 9.95491 33.9389 0.2
    endloop
  endfacet
  facet normal 0 0 -1
    outer loop
      vertex 9.15707 32.2434 0.2
      vertex 9.70111 32.4906 0.2
      vertex 9.50708 31.8934 0.2
    endloop
  endfacet
  facet normal 0 0 -1
    outer loop
      vertex 9.03941 31.6267 0.2
      vertex 9.50708 31.8934 0.2
      vertex 9.38942 31.2767 0.2
    endloop
  endfacet
  facet normal -0 0 -1
    outer loop
      vertex 9.96846 33.0588 0.2
      vertex 9.3511 32.8406 0.2
      vertex 9.61845 33.4088 0.2
    endloop
  endfacet
  facet normal 0 0 -1
    outer loop
      vertex 9 31 0.2
      vertex 9.38942 31.2767 0.2
      vertex 9.34999 30.65 0.2
    endloop
  endfacet
  facet normal -0 0 -1
    outer loop
      vertex 9.34999 14.35 0.2
      vertex 9 14 0.2
      vertex 9.34999 30.65 0.2
    endloop
  endfacet
  facet normal 0 0 -1
    outer loop
      vertex 9 31 0.2
      vertex 9.34999 30.65 0.2
      vertex 9 14 0.2
    endloop
  endfacet
  facet normal 0 0 -1
    outer loop
      vertex 9 14 0.2
      vertex 9.15707 12.7565 0.2
      vertex 9.03941 13.3733 0.2
    endloop
  endfacet
  facet normal -0 0 -1
    outer loop
      vertex 9.38942 31.2767 0.2
      vertex 9 31 0.2
      vertex 9.03941 31.6267 0.2
    endloop
  endfacet
  facet normal -0 0 -1
    outer loop
      vertex 9.70111 32.4906 0.2
      vertex 9.15707 32.2434 0.2
      vertex 9.3511 32.8406 0.2
    endloop
  endfacet
  facet normal -0 0 -1
    outer loop
      vertex 9.50708 31.8934 0.2
      vertex 9.03941 31.6267 0.2
      vertex 9.15707 32.2434 0.2
    endloop
  endfacet
  facet normal 0 0 -1
    outer loop
      vertex 14.35 35.6401 0.2
      vertex 14.036 35.6401 0.2
      vertex 14.35 35.65 0.2
    endloop
  endfacet
  facet normal 0 0 -1
    outer loop
      vertex 45.65 9.34999 0.2
      vertex 46 9.00986 0.2
      vertex 46 9 0.2
    endloop
  endfacet
  facet normal 0 0 -1
    outer loop
      vertex 46 9.00986 0.2
      vertex 45.65 9.34999 0.2
      vertex 45.9639 9.35986 0.2
    endloop
  endfacet
  facet normal 0 0 -1
    outer loop
      vertex 46 9 0.2
      vertex 14.35 9.34999 0.2
      vertex 45.65 9.34999 0.2
    endloop
  endfacet
  facet normal 0 0 -1
    outer loop
      vertex 14.35 9.34999 0.2
      vertex 14.036 9.35986 0.2
      vertex 14.35 9.35986 0.2
    endloop
  endfacet
  facet normal 0 0 -1
    outer loop
      vertex 14 9 0.2
      vertex 14.35 9.34999 0.2
      vertex 46 9 0.2
    endloop
  endfacet
  facet normal 0 0 -1
    outer loop
      vertex 14 9.00986 0.2
      vertex 14.35 9.34999 0.2
      vertex 14 9 0.2
    endloop
  endfacet
  facet normal -0 0 -1
    outer loop
      vertex 14.35 9.34999 0.2
      vertex 14 9.00986 0.2
      vertex 14.036 9.35986 0.2
    endloop
  endfacet
  facet normal 0 0 -1
    outer loop
      vertex 13.686 9.00986 0.2
      vertex 14.036 9.35986 0.2
      vertex 14 9.00986 0.2
    endloop
  endfacet
  facet normal 0 0 -1
    outer loop
      vertex 13.686 9.00986 0.2
      vertex 13.4131 9.43855 0.2
      vertex 14.036 9.35986 0.2
    endloop
  endfacet
  facet normal 0 0 -1
    outer loop
      vertex 13.0631 9.08856 0.2
      vertex 13.4131 9.43855 0.2
      vertex 13.686 9.00986 0.2
    endloop
  endfacet
  facet normal 0 0 -1
    outer loop
      vertex 13.0631 9.08856 0.2
      vertex 12.8049 9.59471 0.2
      vertex 13.4131 9.43855 0.2
    endloop
  endfacet
  facet normal 0 0 -1
    outer loop
      vertex 12.4549 9.24471 0.2
      vertex 12.8049 9.59471 0.2
      vertex 13.0631 9.08856 0.2
    endloop
  endfacet
  facet normal 0 0 -1
    outer loop
      vertex 12.4549 9.24471 0.2
      vertex 12.2211 9.82585 0.2
      vertex 12.8049 9.59471 0.2
    endloop
  endfacet
  facet normal 0 0 -1
    outer loop
      vertex 11.8711 9.47586 0.2
      vertex 12.2211 9.82585 0.2
      vertex 12.4549 9.24471 0.2
    endloop
  endfacet
  facet normal 0 0 -1
    outer loop
      vertex 11.8711 9.47586 0.2
      vertex 11.6709 10.1284 0.2
      vertex 12.2211 9.82585 0.2
    endloop
  endfacet
  facet normal 0 0 -1
    outer loop
      vertex 11.3209 9.77835 0.2
      vertex 11.6709 10.1284 0.2
      vertex 11.8711 9.47586 0.2
    endloop
  endfacet
  facet normal 0 0 -1
    outer loop
      vertex 11.3209 9.77835 0.2
      vertex 11.1629 10.4974 0.2
      vertex 11.6709 10.1284 0.2
    endloop
  endfacet
  facet normal 0 0 -1
    outer loop
      vertex 10.8129 10.1474 0.2
      vertex 11.1629 10.4974 0.2
      vertex 11.3209 9.77835 0.2
    endloop
  endfacet
  facet normal 0 0 -1
    outer loop
      vertex 10.8129 10.1474 0.2
      vertex 10.7052 10.9273 0.2
      vertex 11.1629 10.4974 0.2
    endloop
  endfacet
  facet normal 0 0 -1
    outer loop
      vertex 10.3551 10.5773 0.2
      vertex 10.7052 10.9273 0.2
      vertex 10.8129 10.1474 0.2
    endloop
  endfacet
  facet normal 0 0 -1
    outer loop
      vertex 9.95491 11.0611 0.2
      vertex 10.7052 10.9273 0.2
      vertex 10.3551 10.5773 0.2
    endloop
  endfacet
  facet normal 0 0 -1
    outer loop
      vertex 10.7052 10.9273 0.2
      vertex 9.95491 11.0611 0.2
      vertex 10.3049 11.4111 0.2
    endloop
  endfacet
  facet normal 0 0 -1
    outer loop
      vertex 9.61845 11.5912 0.2
      vertex 10.3049 11.4111 0.2
      vertex 9.95491 11.0611 0.2
    endloop
  endfacet
  facet normal 0 0 -1
    outer loop
      vertex 10.3049 11.4111 0.2
      vertex 9.61845 11.5912 0.2
      vertex 9.96846 11.9412 0.2
    endloop
  endfacet
  facet normal 0 0 -1
    outer loop
      vertex 9.3511 12.1594 0.2
      vertex 9.96846 11.9412 0.2
      vertex 9.61845 11.5912 0.2
    endloop
  endfacet
  facet normal 0 0 -1
    outer loop
      vertex 9.96846 11.9412 0.2
      vertex 9.3511 12.1594 0.2
      vertex 9.70111 12.5094 0.2
    endloop
  endfacet
  facet normal 0 0 -1
    outer loop
      vertex 9.15707 12.7565 0.2
      vertex 9.70111 12.5094 0.2
      vertex 9.3511 12.1594 0.2
    endloop
  endfacet
  facet normal 0 0 -1
    outer loop
      vertex 9.70111 12.5094 0.2
      vertex 9.15707 12.7565 0.2
      vertex 9.50708 13.1065 0.2
    endloop
  endfacet
  facet normal -0 0 -1
    outer loop
      vertex 9.50708 13.1065 0.2
      vertex 9.15707 12.7565 0.2
      vertex 9.38942 13.7233 0.2
    endloop
  endfacet
  facet normal 0 0 -1
    outer loop
      vertex 9.38942 13.7233 0.2
      vertex 9 14 0.2
      vertex 9.34999 14.35 0.2
    endloop
  endfacet
  facet normal 0 0 -1
    outer loop
      vertex 9 14 0.2
      vertex 9.38942 13.7233 0.2
      vertex 9.15707 12.7565 0.2
    endloop
  endfacet
  facet normal 0 0 -1
    outer loop
      vertex 50.6106 13.7233 0.2
      vertex 51 14 0.2
      vertex 50.9606 13.3733 0.2
    endloop
  endfacet
  facet normal 0 0 -1
    outer loop
      vertex 51 14 0.2
      vertex 50.65 14.35 0.2
      vertex 51 31 0.2
    endloop
  endfacet
  facet normal 0 0 -1
    outer loop
      vertex 50.4929 13.1065 0.2
      vertex 50.9606 13.3733 0.2
      vertex 50.8429 12.7565 0.2
    endloop
  endfacet
  facet normal 0 0 -1
    outer loop
      vertex 50.65 30.65 0.2
      vertex 51 31 0.2
      vertex 50.65 14.35 0.2
    endloop
  endfacet
  facet normal 0 0 -1
    outer loop
      vertex 50.6106 31.2767 0.2
      vertex 51 31 0.2
      vertex 50.65 30.65 0.2
    endloop
  endfacet
  facet normal 0 0 -1
    outer loop
      vertex 50.2989 12.5094 0.2
      vertex 50.8429 12.7565 0.2
      vertex 50.6489 12.1594 0.2
    endloop
  endfacet
  facet normal -0 0 -1
    outer loop
      vertex 51 14 0.2
      vertex 50.6106 13.7233 0.2
      vertex 50.65 14.35 0.2
    endloop
  endfacet
  facet normal -0 0 -1
    outer loop
      vertex 50.9606 13.3733 0.2
      vertex 50.4929 13.1065 0.2
      vertex 50.6106 13.7233 0.2
    endloop
  endfacet
  facet normal 0 0 -1
    outer loop
      vertex 50.0315 11.9412 0.2
      vertex 50.6489 12.1594 0.2
      vertex 50.3815 11.5912 0.2
    endloop
  endfacet
  facet normal -0 0 -1
    outer loop
      vertex 50.8429 12.7565 0.2
      vertex 50.2989 12.5094 0.2
      vertex 50.4929 13.1065 0.2
    endloop
  endfacet
  facet normal 0 0 -1
    outer loop
      vertex 49.6951 11.4111 0.2
      vertex 50.3815 11.5912 0.2
      vertex 50.0451 11.0611 0.2
    endloop
  endfacet
  facet normal -0 0 -1
    outer loop
      vertex 50.6489 12.1594 0.2
      vertex 50.0315 11.9412 0.2
      vertex 50.2989 12.5094 0.2
    endloop
  endfacet
  facet normal -0 0 -1
    outer loop
      vertex 50.3815 11.5912 0.2
      vertex 49.6951 11.4111 0.2
      vertex 50.0315 11.9412 0.2
    endloop
  endfacet
  facet normal 0 0 -1
    outer loop
      vertex 49.2948 10.9273 0.2
      vertex 50.0451 11.0611 0.2
      vertex 49.6448 10.5773 0.2
    endloop
  endfacet
  facet normal -0 0 -1
    outer loop
      vertex 50.0451 11.0611 0.2
      vertex 49.2948 10.9273 0.2
      vertex 49.6951 11.4111 0.2
    endloop
  endfacet
  facet normal 0 0 -1
    outer loop
      vertex 49.1871 10.1474 0.2
      vertex 49.2948 10.9273 0.2
      vertex 49.6448 10.5773 0.2
    endloop
  endfacet
  facet normal 0 0 -1
    outer loop
      vertex 49.1871 10.1474 0.2
      vertex 48.8371 10.4974 0.2
      vertex 49.2948 10.9273 0.2
    endloop
  endfacet
  facet normal 0 0 -1
    outer loop
      vertex 48.6791 9.77835 0.2
      vertex 48.8371 10.4974 0.2
      vertex 49.1871 10.1474 0.2
    endloop
  endfacet
  facet normal 0 0 -1
    outer loop
      vertex 48.6791 9.77835 0.2
      vertex 48.3291 10.1284 0.2
      vertex 48.8371 10.4974 0.2
    endloop
  endfacet
  facet normal 0 0 -1
    outer loop
      vertex 48.1289 9.47586 0.2
      vertex 48.3291 10.1284 0.2
      vertex 48.6791 9.77835 0.2
    endloop
  endfacet
  facet normal 0 0 -1
    outer loop
      vertex 48.1289 9.47586 0.2
      vertex 47.7789 9.82585 0.2
      vertex 48.3291 10.1284 0.2
    endloop
  endfacet
  facet normal 0 0 -1
    outer loop
      vertex 47.5451 9.24471 0.2
      vertex 47.7789 9.82585 0.2
      vertex 48.1289 9.47586 0.2
    endloop
  endfacet
  facet normal 0 0 -1
    outer loop
      vertex 47.5451 9.24471 0.2
      vertex 47.1951 9.59471 0.2
      vertex 47.7789 9.82585 0.2
    endloop
  endfacet
  facet normal 0 0 -1
    outer loop
      vertex 46.9369 9.08856 0.2
      vertex 47.1951 9.59471 0.2
      vertex 47.5451 9.24471 0.2
    endloop
  endfacet
  facet normal 0 0 -1
    outer loop
      vertex 46.9369 9.08856 0.2
      vertex 46.5869 9.43855 0.2
      vertex 47.1951 9.59471 0.2
    endloop
  endfacet
  facet normal 0 0 -1
    outer loop
      vertex 46.3139 9.00986 0.2
      vertex 46.5869 9.43855 0.2
      vertex 46.9369 9.08856 0.2
    endloop
  endfacet
  facet normal 0 0 -1
    outer loop
      vertex 45.9639 9.35986 0.2
      vertex 46.3139 9.00986 0.2
      vertex 46 9.00986 0.2
    endloop
  endfacet
  facet normal 0 0 -1
    outer loop
      vertex 46.3139 9.00986 0.2
      vertex 45.9639 9.35986 0.2
      vertex 46.5869 9.43855 0.2
    endloop
  endfacet
  facet normal 0 0 -1
    outer loop
      vertex 51 31 0.2
      vertex 50.6106 31.2767 0.2
      vertex 50.9606 31.6267 0.2
    endloop
  endfacet
  facet normal 0 0 -1
    outer loop
      vertex 50.4929 31.8934 0.2
      vertex 50.9606 31.6267 0.2
      vertex 50.6106 31.2767 0.2
    endloop
  endfacet
  facet normal 0 0 -1
    outer loop
      vertex 50.9606 31.6267 0.2
      vertex 50.4929 31.8934 0.2
      vertex 50.8429 32.2434 0.2
    endloop
  endfacet
  facet normal 0 0 -1
    outer loop
      vertex 50.2989 32.4906 0.2
      vertex 50.8429 32.2434 0.2
      vertex 50.4929 31.8934 0.2
    endloop
  endfacet
  facet normal 0 0 -1
    outer loop
      vertex 50.8429 32.2434 0.2
      vertex 50.2989 32.4906 0.2
      vertex 50.6489 32.8406 0.2
    endloop
  endfacet
  facet normal 0 0 -1
    outer loop
      vertex 50.0315 33.0588 0.2
      vertex 50.6489 32.8406 0.2
      vertex 50.2989 32.4906 0.2
    endloop
  endfacet
  facet normal 0 0 -1
    outer loop
      vertex 50.6489 32.8406 0.2
      vertex 50.0315 33.0588 0.2
      vertex 50.3815 33.4088 0.2
    endloop
  endfacet
  facet normal 0 0 -1
    outer loop
      vertex 49.6951 33.5889 0.2
      vertex 50.3815 33.4088 0.2
      vertex 50.0315 33.0588 0.2
    endloop
  endfacet
  facet normal 0 0 -1
    outer loop
      vertex 50.3815 33.4088 0.2
      vertex 49.6951 33.5889 0.2
      vertex 50.0451 33.9389 0.2
    endloop
  endfacet
  facet normal 0 0 -1
    outer loop
      vertex 49.2948 34.0727 0.2
      vertex 50.0451 33.9389 0.2
      vertex 49.6951 33.5889 0.2
    endloop
  endfacet
  facet normal 0 0 -1
    outer loop
      vertex 50.0451 33.9389 0.2
      vertex 49.2948 34.0727 0.2
      vertex 49.6448 34.4227 0.2
    endloop
  endfacet
  facet normal 0 0 -1
    outer loop
      vertex 49.2948 34.0727 0.2
      vertex 49.1871 34.8526 0.2
      vertex 49.6448 34.4227 0.2
    endloop
  endfacet
  facet normal 0 0 -1
    outer loop
      vertex 48.8371 34.5026 0.2
      vertex 49.1871 34.8526 0.2
      vertex 49.2948 34.0727 0.2
    endloop
  endfacet
  facet normal 0 0 -1
    outer loop
      vertex 48.8371 34.5026 0.2
      vertex 48.6791 35.2216 0.2
      vertex 49.1871 34.8526 0.2
    endloop
  endfacet
  facet normal 0 0 -1
    outer loop
      vertex 48.3291 34.8716 0.2
      vertex 48.6791 35.2216 0.2
      vertex 48.8371 34.5026 0.2
    endloop
  endfacet
  facet normal 0 0 -1
    outer loop
      vertex 48.3291 34.8716 0.2
      vertex 48.1289 35.5241 0.2
      vertex 48.6791 35.2216 0.2
    endloop
  endfacet
  facet normal 0 0 -1
    outer loop
      vertex 47.7789 35.1741 0.2
      vertex 48.1289 35.5241 0.2
      vertex 48.3291 34.8716 0.2
    endloop
  endfacet
  facet normal 0 0 -1
    outer loop
      vertex 47.7789 35.1741 0.2
      vertex 47.5451 35.7553 0.2
      vertex 48.1289 35.5241 0.2
    endloop
  endfacet
  facet normal 0 0 -1
    outer loop
      vertex 47.1951 35.4053 0.2
      vertex 47.5451 35.7553 0.2
      vertex 47.7789 35.1741 0.2
    endloop
  endfacet
  facet normal 0 0 -1
    outer loop
      vertex 47.1951 35.4053 0.2
      vertex 46.9369 35.9114 0.2
      vertex 47.5451 35.7553 0.2
    endloop
  endfacet
  facet normal 0 0 -1
    outer loop
      vertex 46.5869 35.5614 0.2
      vertex 46.9369 35.9114 0.2
      vertex 47.1951 35.4053 0.2
    endloop
  endfacet
  facet normal 0 0 -1
    outer loop
      vertex 46.5869 35.5614 0.2
      vertex 46.3139 35.9901 0.2
      vertex 46.9369 35.9114 0.2
    endloop
  endfacet
  facet normal 0 0 -1
    outer loop
      vertex 45.9639 35.6401 0.2
      vertex 46.3139 35.9901 0.2
      vertex 46.5869 35.5614 0.2
    endloop
  endfacet
  facet normal -0 0 -1
    outer loop
      vertex 46.3139 35.9901 0.2
      vertex 45.9639 35.6401 0.2
      vertex 46 35.9901 0.2
    endloop
  endfacet
  facet normal 0 0 -1
    outer loop
      vertex 45.65 35.65 0.2
      vertex 46 35.9901 0.2
      vertex 45.9639 35.6401 0.2
    endloop
  endfacet
  facet normal 0 0 -1
    outer loop
      vertex 45.65 35.65 0.2
      vertex 45.9639 35.6401 0.2
      vertex 45.65 35.6401 0.2
    endloop
  endfacet
  facet normal -0 0 -1
    outer loop
      vertex 46 35.9901 0.2
      vertex 45.65 35.65 0.2
      vertex 46 36 0.2
    endloop
  endfacet
  facet normal 0 0 -1
    outer loop
      vertex 14.35 35.65 0.2
      vertex 46 36 0.2
      vertex 45.65 35.65 0.2
    endloop
  endfacet
  facet normal 0 0 -1
    outer loop
      vertex 14 35.9901 0.2
      vertex 14.35 35.65 0.2
      vertex 14.036 35.6401 0.2
    endloop
  endfacet
  facet normal 0 0 -1
    outer loop
      vertex 14 36 0.2
      vertex 14.35 35.65 0.2
      vertex 14 35.9901 0.2
    endloop
  endfacet
  facet normal 0 0 -1
    outer loop
      vertex 14.35 35.65 0.2
      vertex 14 36 0.2
      vertex 46 36 0.2
    endloop
  endfacet
  facet normal -0 0 -1
    outer loop
      vertex 45.9639 9.35986 0.2
      vertex 45.65 9.34999 0.2
      vertex 45.65 9.35986 0.2
    endloop
  endfacet
  facet normal 0 0 1
    outer loop
      vertex 13.0631 35.9114 6
      vertex 14 35.9901 6
      vertex 13.686 35.9901 6
    endloop
  endfacet
  facet normal 0 0 1
    outer loop
      vertex 14 35.9901 6
      vertex 9 31 6
      vertex 14 9.00986 6
    endloop
  endfacet
  facet normal 0 0 1
    outer loop
      vertex 14 35.9901 6
      vertex 13.0631 35.9114 6
      vertex 9 31 6
    endloop
  endfacet
  facet normal -0 0 1
    outer loop
      vertex 9 14 6
      vertex 14 9.00986 6
      vertex 9 31 6
    endloop
  endfacet
  facet normal 0 0 1
    outer loop
      vertex 9 31 6
      vertex 13.0631 35.9114 6
      vertex 12.4549 35.7553 6
    endloop
  endfacet
  facet normal -0 -0 1
    outer loop
      vertex 13.0631 9.08856 6
      vertex 14 9.00986 6
      vertex 9 14 6
    endloop
  endfacet
  facet normal 0 0 1
    outer loop
      vertex 9 31 6
      vertex 12.4549 35.7553 6
      vertex 11.8711 35.5241 6
    endloop
  endfacet
  facet normal 0 0 1
    outer loop
      vertex 14 9.00986 6
      vertex 13.0631 9.08856 6
      vertex 13.686 9.00986 6
    endloop
  endfacet
  facet normal 0 0 1
    outer loop
      vertex 9 31 6
      vertex 11.8711 35.5241 6
      vertex 11.3209 35.2216 6
    endloop
  endfacet
  facet normal 0 0 1
    outer loop
      vertex 13.0631 9.08856 6
      vertex 9 14 6
      vertex 12.4549 9.24471 6
    endloop
  endfacet
  facet normal 0 0 1
    outer loop
      vertex 9 31 6
      vertex 11.3209 35.2216 6
      vertex 10.8129 34.8526 6
    endloop
  endfacet
  facet normal 0 0 1
    outer loop
      vertex 12.4549 9.24471 6
      vertex 9 14 6
      vertex 11.8711 9.47586 6
    endloop
  endfacet
  facet normal 0 0 1
    outer loop
      vertex 9 31 6
      vertex 10.8129 34.8526 6
      vertex 10.3551 34.4227 6
    endloop
  endfacet
  facet normal 0 0 1
    outer loop
      vertex 11.8711 9.47586 6
      vertex 9 14 6
      vertex 11.3209 9.77835 6
    endloop
  endfacet
  facet normal 0 0 1
    outer loop
      vertex 9 31 6
      vertex 10.3551 34.4227 6
      vertex 9.95491 33.9389 6
    endloop
  endfacet
  facet normal 0 0 1
    outer loop
      vertex 11.3209 9.77835 6
      vertex 9 14 6
      vertex 10.8129 10.1474 6
    endloop
  endfacet
  facet normal 0 0 1
    outer loop
      vertex 9 31 6
      vertex 9.95491 33.9389 6
      vertex 9.61845 33.4088 6
    endloop
  endfacet
  facet normal 0 0 1
    outer loop
      vertex 10.8129 10.1474 6
      vertex 9 14 6
      vertex 10.3551 10.5773 6
    endloop
  endfacet
  facet normal 0 0 1
    outer loop
      vertex 9 31 6
      vertex 9.61845 33.4088 6
      vertex 9.3511 32.8406 6
    endloop
  endfacet
  facet normal 0 0 1
    outer loop
      vertex 10.3551 10.5773 6
      vertex 9 14 6
      vertex 9.95491 11.0611 6
    endloop
  endfacet
  facet normal 0 0 1
    outer loop
      vertex 9 31 6
      vertex 9.3511 32.8406 6
      vertex 9.15707 32.2434 6
    endloop
  endfacet
  facet normal 0 0 1
    outer loop
      vertex 9.95491 11.0611 6
      vertex 9 14 6
      vertex 9.61845 11.5912 6
    endloop
  endfacet
  facet normal 0 0 1
    outer loop
      vertex 9 31 6
      vertex 9.15707 32.2434 6
      vertex 9.03941 31.6267 6
    endloop
  endfacet
  facet normal 0 0 1
    outer loop
      vertex 9.61845 11.5912 6
      vertex 9 14 6
      vertex 9.3511 12.1594 6
    endloop
  endfacet
  facet normal 0 0 1
    outer loop
      vertex 9.3511 12.1594 6
      vertex 9 14 6
      vertex 9.15707 12.7565 6
    endloop
  endfacet
  facet normal 0 0 1
    outer loop
      vertex 9.15707 12.7565 6
      vertex 9 14 6
      vertex 9.03941 13.3733 6
    endloop
  endfacet
  facet normal 0 0 1
    outer loop
      vertex 14 35.9901 6
      vertex 46 35.9901 6
      vertex 46 36 6
    endloop
  endfacet
  facet normal 0 0 1
    outer loop
      vertex 46 35.9901 6
      vertex 14 35.9901 6
      vertex 46 9.00986 6
    endloop
  endfacet
  facet normal 0 0 1
    outer loop
      vertex 14 35.9901 6
      vertex 46 36 6
      vertex 14 36 6
    endloop
  endfacet
  facet normal 0 0 1
    outer loop
      vertex 14 9.00986 6
      vertex 46 9.00986 6
      vertex 14 35.9901 6
    endloop
  endfacet
  facet normal 0 0 1
    outer loop
      vertex 46 9.00986 6
      vertex 14 9.00986 6
      vertex 46 9 6
    endloop
  endfacet
  facet normal 0 0 1
    outer loop
      vertex 46 9 6
      vertex 14 9.00986 6
      vertex 14 9 6
    endloop
  endfacet
  facet normal 0 0 1
    outer loop
      vertex 46 35.9901 6
      vertex 51 31 6
      vertex 50.9606 31.6267 6
    endloop
  endfacet
  facet normal 0 0 1
    outer loop
      vertex 51 31 6
      vertex 46 35.9901 6
      vertex 51 14 6
    endloop
  endfacet
  facet normal 0 0 1
    outer loop
      vertex 46 35.9901 6
      vertex 50.9606 31.6267 6
      vertex 50.8429 32.2434 6
    endloop
  endfacet
  facet normal 0 0 1
    outer loop
      vertex 46 9.00986 6
      vertex 51 14 6
      vertex 46 35.9901 6
    endloop
  endfacet
  facet normal 0 0 1
    outer loop
      vertex 46 35.9901 6
      vertex 50.8429 32.2434 6
      vertex 50.6489 32.8406 6
    endloop
  endfacet
  facet normal 0 0 1
    outer loop
      vertex 51 14 6
      vertex 46 9.00986 6
      vertex 50.9606 13.3733 6
    endloop
  endfacet
  facet normal 0 0 1
    outer loop
      vertex 46 35.9901 6
      vertex 50.6489 32.8406 6
      vertex 50.3815 33.4088 6
    endloop
  endfacet
  facet normal 0 0 1
    outer loop
      vertex 50.9606 13.3733 6
      vertex 46 9.00986 6
      vertex 50.8429 12.7565 6
    endloop
  endfacet
  facet normal 0 0 1
    outer loop
      vertex 46 35.9901 6
      vertex 50.3815 33.4088 6
      vertex 50.0451 33.9389 6
    endloop
  endfacet
  facet normal 0 0 1
    outer loop
      vertex 50.8429 12.7565 6
      vertex 46 9.00986 6
      vertex 50.6489 12.1594 6
    endloop
  endfacet
  facet normal 0 0 1
    outer loop
      vertex 46 35.9901 6
      vertex 50.0451 33.9389 6
      vertex 49.6448 34.4227 6
    endloop
  endfacet
  facet normal 0 0 1
    outer loop
      vertex 50.6489 12.1594 6
      vertex 46 9.00986 6
      vertex 50.3815 11.5912 6
    endloop
  endfacet
  facet normal 0 0 1
    outer loop
      vertex 46 35.9901 6
      vertex 49.6448 34.4227 6
      vertex 49.1871 34.8526 6
    endloop
  endfacet
  facet normal 0 0 1
    outer loop
      vertex 50.3815 11.5912 6
      vertex 46 9.00986 6
      vertex 50.0451 11.0611 6
    endloop
  endfacet
  facet normal 0 0 1
    outer loop
      vertex 46 35.9901 6
      vertex 49.1871 34.8526 6
      vertex 48.6791 35.2216 6
    endloop
  endfacet
  facet normal 0 0 1
    outer loop
      vertex 50.0451 11.0611 6
      vertex 46 9.00986 6
      vertex 49.6448 10.5773 6
    endloop
  endfacet
  facet normal 0 0 1
    outer loop
      vertex 46 35.9901 6
      vertex 48.6791 35.2216 6
      vertex 48.1289 35.5241 6
    endloop
  endfacet
  facet normal 0 0 1
    outer loop
      vertex 49.6448 10.5773 6
      vertex 46 9.00986 6
      vertex 49.1871 10.1474 6
    endloop
  endfacet
  facet normal 0 0 1
    outer loop
      vertex 46 35.9901 6
      vertex 48.1289 35.5241 6
      vertex 47.5451 35.7553 6
    endloop
  endfacet
  facet normal 0 0 1
    outer loop
      vertex 49.1871 10.1474 6
      vertex 46 9.00986 6
      vertex 48.6791 9.77835 6
    endloop
  endfacet
  facet normal 0 0 1
    outer loop
      vertex 46 35.9901 6
      vertex 47.5451 35.7553 6
      vertex 46.9369 35.9114 6
    endloop
  endfacet
  facet normal 0 0 1
    outer loop
      vertex 48.6791 9.77835 6
      vertex 46 9.00986 6
      vertex 48.1289 9.47586 6
    endloop
  endfacet
  facet normal -0 0 1
    outer loop
      vertex 46 35.9901 6
      vertex 46.9369 35.9114 6
      vertex 46.3139 35.9901 6
    endloop
  endfacet
  facet normal 0 0 1
    outer loop
      vertex 48.1289 9.47586 6
      vertex 46 9.00986 6
      vertex 47.5451 9.24471 6
    endloop
  endfacet
  facet normal 0 0 1
    outer loop
      vertex 47.5451 9.24471 6
      vertex 46 9.00986 6
      vertex 46.9369 9.08856 6
    endloop
  endfacet
  facet normal 0 0 1
    outer loop
      vertex 46.9369 9.08856 6
      vertex 46 9.00986 6
      vertex 46.3139 9.00986 6
    endloop
  endfacet
  facet normal -0.982288 -0.18738 0
    outer loop
      vertex 9.15707 12.7565 0.2
      vertex 9.03941 13.3733 6
      vertex 9.03941 13.3733 0.2
    endloop
  endfacet
  facet normal -0.982288 -0.18738 0
    outer loop
      vertex 9.03941 13.3733 6
      vertex 9.15707 12.7565 0.2
      vertex 9.15707 12.7565 6
    endloop
  endfacet
  facet normal -0.951047 -0.309046 0
    outer loop
      vertex 9.3511 12.1594 0.2
      vertex 9.15707 12.7565 6
      vertex 9.15707 12.7565 0.2
    endloop
  endfacet
  facet normal -0.951047 -0.309046 0
    outer loop
      vertex 9.15707 12.7565 6
      vertex 9.3511 12.1594 0.2
      vertex 9.3511 12.1594 6
    endloop
  endfacet
  facet normal -0.904842 -0.425747 0
    outer loop
      vertex 9.61845 11.5912 0.2
      vertex 9.3511 12.1594 6
      vertex 9.3511 12.1594 0.2
    endloop
  endfacet
  facet normal -0.904842 -0.425747 0
    outer loop
      vertex 9.3511 12.1594 6
      vertex 9.61845 11.5912 0.2
      vertex 9.61845 11.5912 6
    endloop
  endfacet
  facet normal -0.844293 -0.535882 0
    outer loop
      vertex 9.95491 11.0611 0.2
      vertex 9.61845 11.5912 6
      vertex 9.61845 11.5912 0.2
    endloop
  endfacet
  facet normal -0.844293 -0.535882 0
    outer loop
      vertex 9.61845 11.5912 6
      vertex 9.95491 11.0611 0.2
      vertex 9.95491 11.0611 6
    endloop
  endfacet
  facet normal -0.770548 -0.637382 0
    outer loop
      vertex 10.3551 10.5773 0.2
      vertex 9.95491 11.0611 6
      vertex 9.95491 11.0611 0.2
    endloop
  endfacet
  facet normal -0.770548 -0.637382 0
    outer loop
      vertex 9.95491 11.0611 6
      vertex 10.3551 10.5773 0.2
      vertex 10.3551 10.5773 6
    endloop
  endfacet
  facet normal -0.684545 -0.728971 0
    outer loop
      vertex 10.3551 10.5773 0.2
      vertex 10.8129 10.1474 6
      vertex 10.3551 10.5773 6
    endloop
  endfacet
  facet normal -0.684545 -0.728971 -0
    outer loop
      vertex 10.8129 10.1474 6
      vertex 10.3551 10.5773 0.2
      vertex 10.8129 10.1474 0.2
    endloop
  endfacet
  facet normal -0.58775 -0.809042 0
    outer loop
      vertex 10.8129 10.1474 0.2
      vertex 11.3209 9.77835 6
      vertex 10.8129 10.1474 6
    endloop
  endfacet
  facet normal -0.58775 -0.809042 -0
    outer loop
      vertex 11.3209 9.77835 6
      vertex 10.8129 10.1474 0.2
      vertex 11.3209 9.77835 0.2
    endloop
  endfacet
  facet normal -0.481772 -0.876297 0
    outer loop
      vertex 11.3209 9.77835 0.2
      vertex 11.8711 9.47586 6
      vertex 11.3209 9.77835 6
    endloop
  endfacet
  facet normal -0.481772 -0.876297 -0
    outer loop
      vertex 11.8711 9.47586 6
      vertex 11.3209 9.77835 0.2
      vertex 11.8711 9.47586 0.2
    endloop
  endfacet
  facet normal -0.368135 -0.929773 0
    outer loop
      vertex 11.8711 9.47586 0.2
      vertex 12.4549 9.24471 6
      vertex 11.8711 9.47586 6
    endloop
  endfacet
  facet normal -0.368135 -0.929773 -0
    outer loop
      vertex 12.4549 9.24471 6
      vertex 11.8711 9.47586 0.2
      vertex 12.4549 9.24471 0.2
    endloop
  endfacet
  facet normal -0.248676 -0.968587 0
    outer loop
      vertex 12.4549 9.24471 0.2
      vertex 13.0631 9.08856 6
      vertex 12.4549 9.24471 6
    endloop
  endfacet
  facet normal -0.248676 -0.968587 -0
    outer loop
      vertex 13.0631 9.08856 6
      vertex 12.4549 9.24471 0.2
      vertex 13.0631 9.08856 0.2
    endloop
  endfacet
  facet normal -0.125348 -0.992113 0
    outer loop
      vertex 13.0631 9.08856 0.2
      vertex 13.686 9.00986 6
      vertex 13.0631 9.08856 6
    endloop
  endfacet
  facet normal -0.125348 -0.992113 -0
    outer loop
      vertex 13.686 9.00986 6
      vertex 13.0631 9.08856 0.2
      vertex 13.686 9.00986 0.2
    endloop
  endfacet
  facet normal 0 -1 0
    outer loop
      vertex 13.686 9.00986 0.2
      vertex 14 9.00986 6
      vertex 13.686 9.00986 6
    endloop
  endfacet
  facet normal 0 -1 -0
    outer loop
      vertex 14 9.00986 6
      vertex 13.686 9.00986 0.2
      vertex 14 9.00986 0.2
    endloop
  endfacet
  facet normal -1 0 0
    outer loop
      vertex 14 9 0.2
      vertex 14 9.00986 6
      vertex 14 9.00986 0.2
    endloop
  endfacet
  facet normal -1 -0 0
    outer loop
      vertex 14 9.00986 6
      vertex 14 9 0.2
      vertex 14 9 6
    endloop
  endfacet
  facet normal 0 -1 0
    outer loop
      vertex 14 9 0.2
      vertex 46 9 6
      vertex 14 9 6
    endloop
  endfacet
  facet normal 0 -1 -0
    outer loop
      vertex 46 9 6
      vertex 14 9 0.2
      vertex 46 9 0.2
    endloop
  endfacet
  facet normal 1 -0 0
    outer loop
      vertex 46 9 6
      vertex 46 9.00986 0.2
      vertex 46 9.00986 6
    endloop
  endfacet
  facet normal 1 0 0
    outer loop
      vertex 46 9.00986 0.2
      vertex 46 9 6
      vertex 46 9 0.2
    endloop
  endfacet
  facet normal 0 -1 0
    outer loop
      vertex 46 9.00986 0.2
      vertex 46.3139 9.00986 6
      vertex 46 9.00986 6
    endloop
  endfacet
  facet normal 0 -1 -0
    outer loop
      vertex 46.3139 9.00986 6
      vertex 46 9.00986 0.2
      vertex 46.3139 9.00986 0.2
    endloop
  endfacet
  facet normal 0.125328 -0.992115 0
    outer loop
      vertex 46.3139 9.00986 0.2
      vertex 46.9369 9.08856 6
      vertex 46.3139 9.00986 6
    endloop
  endfacet
  facet normal 0.125328 -0.992115 0
    outer loop
      vertex 46.9369 9.08856 6
      vertex 46.3139 9.00986 0.2
      vertex 46.9369 9.08856 0.2
    endloop
  endfacet
  facet normal 0.248676 -0.968587 0
    outer loop
      vertex 46.9369 9.08856 0.2
      vertex 47.5451 9.24471 6
      vertex 46.9369 9.08856 6
    endloop
  endfacet
  facet normal 0.248676 -0.968587 0
    outer loop
      vertex 47.5451 9.24471 6
      vertex 46.9369 9.08856 0.2
      vertex 47.5451 9.24471 0.2
    endloop
  endfacet
  facet normal 0.368135 -0.929773 0
    outer loop
      vertex 47.5451 9.24471 0.2
      vertex 48.1289 9.47586 6
      vertex 47.5451 9.24471 6
    endloop
  endfacet
  facet normal 0.368135 -0.929773 0
    outer loop
      vertex 48.1289 9.47586 6
      vertex 47.5451 9.24471 0.2
      vertex 48.1289 9.47586 0.2
    endloop
  endfacet
  facet normal 0.481772 -0.876297 0
    outer loop
      vertex 48.1289 9.47586 0.2
      vertex 48.6791 9.77835 6
      vertex 48.1289 9.47586 6
    endloop
  endfacet
  facet normal 0.481772 -0.876297 0
    outer loop
      vertex 48.6791 9.77835 6
      vertex 48.1289 9.47586 0.2
      vertex 48.6791 9.77835 0.2
    endloop
  endfacet
  facet normal 0.58775 -0.809042 0
    outer loop
      vertex 48.6791 9.77835 0.2
      vertex 49.1871 10.1474 6
      vertex 48.6791 9.77835 6
    endloop
  endfacet
  facet normal 0.58775 -0.809042 0
    outer loop
      vertex 49.1871 10.1474 6
      vertex 48.6791 9.77835 0.2
      vertex 49.1871 10.1474 0.2
    endloop
  endfacet
  facet normal 0.684624 -0.728896 0
    outer loop
      vertex 49.1871 10.1474 0.2
      vertex 49.6448 10.5773 6
      vertex 49.1871 10.1474 6
    endloop
  endfacet
  facet normal 0.684624 -0.728896 0
    outer loop
      vertex 49.6448 10.5773 6
      vertex 49.1871 10.1474 0.2
      vertex 49.6448 10.5773 0.2
    endloop
  endfacet
  facet normal 0.770462 -0.637486 0
    outer loop
      vertex 49.6448 10.5773 6
      vertex 50.0451 11.0611 0.2
      vertex 50.0451 11.0611 6
    endloop
  endfacet
  facet normal 0.770462 -0.637486 0
    outer loop
      vertex 50.0451 11.0611 0.2
      vertex 49.6448 10.5773 6
      vertex 49.6448 10.5773 0.2
    endloop
  endfacet
  facet normal 0.844336 -0.535814 0
    outer loop
      vertex 50.0451 11.0611 6
      vertex 50.3815 11.5912 0.2
      vertex 50.3815 11.5912 6
    endloop
  endfacet
  facet normal 0.844336 -0.535814 0
    outer loop
      vertex 50.3815 11.5912 0.2
      vertex 50.0451 11.0611 6
      vertex 50.0451 11.0611 0.2
    endloop
  endfacet
  facet normal 0.904811 -0.425812 0
    outer loop
      vertex 50.3815 11.5912 6
      vertex 50.6489 12.1594 0.2
      vertex 50.6489 12.1594 6
    endloop
  endfacet
  facet normal 0.904811 -0.425812 0
    outer loop
      vertex 50.6489 12.1594 0.2
      vertex 50.3815 11.5912 6
      vertex 50.3815 11.5912 0.2
    endloop
  endfacet
  facet normal 0.951061 -0.309003 0
    outer loop
      vertex 50.6489 12.1594 6
      vertex 50.8429 12.7565 0.2
      vertex 50.8429 12.7565 6
    endloop
  endfacet
  facet normal 0.951061 -0.309003 0
    outer loop
      vertex 50.8429 12.7565 0.2
      vertex 50.6489 12.1594 6
      vertex 50.6489 12.1594 0.2
    endloop
  endfacet
  facet normal 0.982276 -0.187441 0
    outer loop
      vertex 50.8429 12.7565 6
      vertex 50.9606 13.3733 0.2
      vertex 50.9606 13.3733 6
    endloop
  endfacet
  facet normal 0.982276 -0.187441 0
    outer loop
      vertex 50.9606 13.3733 0.2
      vertex 50.8429 12.7565 6
      vertex 50.8429 12.7565 0.2
    endloop
  endfacet
  facet normal 0.99803 -0.0627451 0
    outer loop
      vertex 50.9606 13.3733 6
      vertex 51 14 0.2
      vertex 51 14 6
    endloop
  endfacet
  facet normal 0.99803 -0.0627451 0
    outer loop
      vertex 51 14 0.2
      vertex 50.9606 13.3733 6
      vertex 50.9606 13.3733 0.2
    endloop
  endfacet
  facet normal 1 -0 0
    outer loop
      vertex 51 14 6
      vertex 51 31 0.2
      vertex 51 31 6
    endloop
  endfacet
  facet normal 1 0 0
    outer loop
      vertex 51 31 0.2
      vertex 51 14 6
      vertex 51 14 0.2
    endloop
  endfacet
  facet normal 0.99803 0.0627451 0
    outer loop
      vertex 51 31 6
      vertex 50.9606 31.6267 0.2
      vertex 50.9606 31.6267 6
    endloop
  endfacet
  facet normal 0.99803 0.0627451 0
    outer loop
      vertex 50.9606 31.6267 0.2
      vertex 51 31 6
      vertex 51 31 0.2
    endloop
  endfacet
  facet normal 0.98227 0.187471 0
    outer loop
      vertex 50.9606 31.6267 6
      vertex 50.8429 32.2434 0.2
      vertex 50.8429 32.2434 6
    endloop
  endfacet
  facet normal 0.98227 0.187471 0
    outer loop
      vertex 50.8429 32.2434 0.2
      vertex 50.9606 31.6267 6
      vertex 50.9606 31.6267 0.2
    endloop
  endfacet
  facet normal 0.951076 0.308956 0
    outer loop
      vertex 50.8429 32.2434 6
      vertex 50.6489 32.8406 0.2
      vertex 50.6489 32.8406 6
    endloop
  endfacet
  facet normal 0.951076 0.308956 0
    outer loop
      vertex 50.6489 32.8406 0.2
      vertex 50.8429 32.2434 6
      vertex 50.8429 32.2434 0.2
    endloop
  endfacet
  facet normal 0.904811 0.425812 0
    outer loop
      vertex 50.6489 32.8406 6
      vertex 50.3815 33.4088 0.2
      vertex 50.3815 33.4088 6
    endloop
  endfacet
  facet normal 0.904811 0.425812 0
    outer loop
      vertex 50.3815 33.4088 0.2
      vertex 50.6489 32.8406 6
      vertex 50.6489 32.8406 0.2
    endloop
  endfacet
  facet normal 0.844336 0.535814 0
    outer loop
      vertex 50.3815 33.4088 6
      vertex 50.0451 33.9389 0.2
      vertex 50.0451 33.9389 6
    endloop
  endfacet
  facet normal 0.844336 0.535814 0
    outer loop
      vertex 50.0451 33.9389 0.2
      vertex 50.3815 33.4088 6
      vertex 50.3815 33.4088 0.2
    endloop
  endfacet
  facet normal 0.770462 0.637486 0
    outer loop
      vertex 50.0451 33.9389 6
      vertex 49.6448 34.4227 0.2
      vertex 49.6448 34.4227 6
    endloop
  endfacet
  facet normal 0.770462 0.637486 0
    outer loop
      vertex 49.6448 34.4227 0.2
      vertex 50.0451 33.9389 6
      vertex 50.0451 33.9389 0.2
    endloop
  endfacet
  facet normal 0.684624 0.728896 -0
    outer loop
      vertex 49.6448 34.4227 0.2
      vertex 49.1871 34.8526 6
      vertex 49.6448 34.4227 6
    endloop
  endfacet
  facet normal 0.684624 0.728896 0
    outer loop
      vertex 49.1871 34.8526 6
      vertex 49.6448 34.4227 0.2
      vertex 49.1871 34.8526 0.2
    endloop
  endfacet
  facet normal 0.587698 0.80908 -0
    outer loop
      vertex 49.1871 34.8526 0.2
      vertex 48.6791 35.2216 6
      vertex 49.1871 34.8526 6
    endloop
  endfacet
  facet normal 0.587698 0.80908 0
    outer loop
      vertex 48.6791 35.2216 6
      vertex 49.1871 34.8526 0.2
      vertex 48.6791 35.2216 0.2
    endloop
  endfacet
  facet normal 0.481784 0.87629 -0
    outer loop
      vertex 48.6791 35.2216 0.2
      vertex 48.1289 35.5241 6
      vertex 48.6791 35.2216 6
    endloop
  endfacet
  facet normal 0.481784 0.87629 0
    outer loop
      vertex 48.1289 35.5241 6
      vertex 48.6791 35.2216 0.2
      vertex 48.1289 35.5241 0.2
    endloop
  endfacet
  facet normal 0.368203 0.929745 -0
    outer loop
      vertex 48.1289 35.5241 0.2
      vertex 47.5451 35.7553 6
      vertex 48.1289 35.5241 6
    endloop
  endfacet
  facet normal 0.368203 0.929745 0
    outer loop
      vertex 47.5451 35.7553 6
      vertex 48.1289 35.5241 0.2
      vertex 47.5451 35.7553 0.2
    endloop
  endfacet
  facet normal 0.248601 0.968606 -0
    outer loop
      vertex 47.5451 35.7553 0.2
      vertex 46.9369 35.9114 6
      vertex 47.5451 35.7553 6
    endloop
  endfacet
  facet normal 0.248601 0.968606 0
    outer loop
      vertex 46.9369 35.9114 6
      vertex 47.5451 35.7553 0.2
      vertex 46.9369 35.9114 0.2
    endloop
  endfacet
  facet normal 0.125328 0.992115 -0
    outer loop
      vertex 46.9369 35.9114 0.2
      vertex 46.3139 35.9901 6
      vertex 46.9369 35.9114 6
    endloop
  endfacet
  facet normal 0.125328 0.992115 0
    outer loop
      vertex 46.3139 35.9901 6
      vertex 46.9369 35.9114 0.2
      vertex 46.3139 35.9901 0.2
    endloop
  endfacet
  facet normal 0 1 -0
    outer loop
      vertex 46.3139 35.9901 0.2
      vertex 46 35.9901 6
      vertex 46.3139 35.9901 6
    endloop
  endfacet
  facet normal 0 1 0
    outer loop
      vertex 46 35.9901 6
      vertex 46.3139 35.9901 0.2
      vertex 46 35.9901 0.2
    endloop
  endfacet
  facet normal 1 -0 0
    outer loop
      vertex 46 35.9901 6
      vertex 46 36 0.2
      vertex 46 36 6
    endloop
  endfacet
  facet normal 1 0 0
    outer loop
      vertex 46 36 0.2
      vertex 46 35.9901 6
      vertex 46 35.9901 0.2
    endloop
  endfacet
  facet normal 0 1 -0
    outer loop
      vertex 46 36 0.2
      vertex 14 36 6
      vertex 46 36 6
    endloop
  endfacet
  facet normal 0 1 0
    outer loop
      vertex 14 36 6
      vertex 46 36 0.2
      vertex 14 36 0.2
    endloop
  endfacet
  facet normal -1 0 0
    outer loop
      vertex 14 35.9901 0.2
      vertex 14 36 6
      vertex 14 36 0.2
    endloop
  endfacet
  facet normal -1 -0 0
    outer loop
      vertex 14 36 6
      vertex 14 35.9901 0.2
      vertex 14 35.9901 6
    endloop
  endfacet
  facet normal 0 1 -0
    outer loop
      vertex 14 35.9901 0.2
      vertex 13.686 35.9901 6
      vertex 14 35.9901 6
    endloop
  endfacet
  facet normal 0 1 0
    outer loop
      vertex 13.686 35.9901 6
      vertex 14 35.9901 0.2
      vertex 13.686 35.9901 0.2
    endloop
  endfacet
  facet normal -0.125348 0.992113 0
    outer loop
      vertex 13.686 35.9901 0.2
      vertex 13.0631 35.9114 6
      vertex 13.686 35.9901 6
    endloop
  endfacet
  facet normal -0.125348 0.992113 0
    outer loop
      vertex 13.0631 35.9114 6
      vertex 13.686 35.9901 0.2
      vertex 13.0631 35.9114 0.2
    endloop
  endfacet
  facet normal -0.248601 0.968606 0
    outer loop
      vertex 13.0631 35.9114 0.2
      vertex 12.4549 35.7553 6
      vertex 13.0631 35.9114 6
    endloop
  endfacet
  facet normal -0.248601 0.968606 0
    outer loop
      vertex 12.4549 35.7553 6
      vertex 13.0631 35.9114 0.2
      vertex 12.4549 35.7553 0.2
    endloop
  endfacet
  facet normal -0.368203 0.929745 0
    outer loop
      vertex 12.4549 35.7553 0.2
      vertex 11.8711 35.5241 6
      vertex 12.4549 35.7553 6
    endloop
  endfacet
  facet normal -0.368203 0.929745 0
    outer loop
      vertex 11.8711 35.5241 6
      vertex 12.4549 35.7553 0.2
      vertex 11.8711 35.5241 0.2
    endloop
  endfacet
  facet normal -0.481784 0.87629 0
    outer loop
      vertex 11.8711 35.5241 0.2
      vertex 11.3209 35.2216 6
      vertex 11.8711 35.5241 6
    endloop
  endfacet
  facet normal -0.481784 0.87629 0
    outer loop
      vertex 11.3209 35.2216 6
      vertex 11.8711 35.5241 0.2
      vertex 11.3209 35.2216 0.2
    endloop
  endfacet
  facet normal -0.587698 0.80908 0
    outer loop
      vertex 11.3209 35.2216 0.2
      vertex 10.8129 34.8526 6
      vertex 11.3209 35.2216 6
    endloop
  endfacet
  facet normal -0.587698 0.80908 0
    outer loop
      vertex 10.8129 34.8526 6
      vertex 11.3209 35.2216 0.2
      vertex 10.8129 34.8526 0.2
    endloop
  endfacet
  facet normal -0.684545 0.728971 0
    outer loop
      vertex 10.8129 34.8526 0.2
      vertex 10.3551 34.4227 6
      vertex 10.8129 34.8526 6
    endloop
  endfacet
  facet normal -0.684545 0.728971 0
    outer loop
      vertex 10.3551 34.4227 6
      vertex 10.8129 34.8526 0.2
      vertex 10.3551 34.4227 0.2
    endloop
  endfacet
  facet normal -0.770548 0.637382 0
    outer loop
      vertex 9.95491 33.9389 0.2
      vertex 10.3551 34.4227 6
      vertex 10.3551 34.4227 0.2
    endloop
  endfacet
  facet normal -0.770548 0.637382 0
    outer loop
      vertex 10.3551 34.4227 6
      vertex 9.95491 33.9389 0.2
      vertex 9.95491 33.9389 6
    endloop
  endfacet
  facet normal -0.844293 0.535882 0
    outer loop
      vertex 9.61845 33.4088 0.2
      vertex 9.95491 33.9389 6
      vertex 9.95491 33.9389 0.2
    endloop
  endfacet
  facet normal -0.844293 0.535882 0
    outer loop
      vertex 9.95491 33.9389 6
      vertex 9.61845 33.4088 0.2
      vertex 9.61845 33.4088 6
    endloop
  endfacet
  facet normal -0.904842 0.425747 0
    outer loop
      vertex 9.3511 32.8406 0.2
      vertex 9.61845 33.4088 6
      vertex 9.61845 33.4088 0.2
    endloop
  endfacet
  facet normal -0.904842 0.425747 0
    outer loop
      vertex 9.61845 33.4088 6
      vertex 9.3511 32.8406 0.2
      vertex 9.3511 32.8406 6
    endloop
  endfacet
  facet normal -0.951062 0.309 0
    outer loop
      vertex 9.15707 32.2434 0.2
      vertex 9.3511 32.8406 6
      vertex 9.3511 32.8406 0.2
    endloop
  endfacet
  facet normal -0.951062 0.309 0
    outer loop
      vertex 9.3511 32.8406 6
      vertex 9.15707 32.2434 0.2
      vertex 9.15707 32.2434 6
    endloop
  endfacet
  facet normal -0.982282 0.187409 0
    outer loop
      vertex 9.03941 31.6267 0.2
      vertex 9.15707 32.2434 6
      vertex 9.15707 32.2434 0.2
    endloop
  endfacet
  facet normal -0.982282 0.187409 0
    outer loop
      vertex 9.15707 32.2434 6
      vertex 9.03941 31.6267 0.2
      vertex 9.03941 31.6267 6
    endloop
  endfacet
  facet normal -0.998029 0.062761 0
    outer loop
      vertex 9 31 0.2
      vertex 9.03941 31.6267 6
      vertex 9.03941 31.6267 0.2
    endloop
  endfacet
  facet normal -0.998029 0.062761 0
    outer loop
      vertex 9.03941 31.6267 6
      vertex 9 31 0.2
      vertex 9 31 6
    endloop
  endfacet
  facet normal -1 0 0
    outer loop
      vertex 9 14 0.2
      vertex 9 31 6
      vertex 9 31 0.2
    endloop
  endfacet
  facet normal -1 -0 0
    outer loop
      vertex 9 31 6
      vertex 9 14 0.2
      vertex 9 14 6
    endloop
  endfacet
  facet normal -0.998029 -0.062761 0
    outer loop
      vertex 9.03941 13.3733 0.2
      vertex 9 14 6
      vertex 9 14 0.2
    endloop
  endfacet
  facet normal -0.998029 -0.062761 0
    outer loop
      vertex 9 14 6
      vertex 9.03941 13.3733 0.2
      vertex 9.03941 13.3733 6
    endloop
  endfacet
  facet normal 0 0 -1
    outer loop
      vertex 13.4131 9.43855 0
      vertex 14.35 9.35986 0
      vertex 14.036 9.35986 0
    endloop
  endfacet
  facet normal 0 0 -1
    outer loop
      vertex 14.35 9.35986 0
      vertex 9.34999 14.35 0
      vertex 14.35 35.6401 0
    endloop
  endfacet
  facet normal 0 0 -1
    outer loop
      vertex 14.35 9.35986 0
      vertex 13.4131 9.43855 0
      vertex 9.34999 14.35 0
    endloop
  endfacet
  facet normal 0 0 -1
    outer loop
      vertex 9.34999 30.65 0
      vertex 14.35 35.6401 0
      vertex 9.34999 14.35 0
    endloop
  endfacet
  facet normal 0 0 -1
    outer loop
      vertex 9.34999 14.35 0
      vertex 13.4131 9.43855 0
      vertex 12.8049 9.59471 0
    endloop
  endfacet
  facet normal 0 -0 -1
    outer loop
      vertex 13.4131 35.5614 0
      vertex 14.35 35.6401 0
      vertex 9.34999 30.65 0
    endloop
  endfacet
  facet normal 0 0 -1
    outer loop
      vertex 9.34999 14.35 0
      vertex 12.8049 9.59471 0
      vertex 12.2211 9.82585 0
    endloop
  endfacet
  facet normal -0 0 -1
    outer loop
      vertex 14.35 35.6401 0
      vertex 13.4131 35.5614 0
      vertex 14.036 35.6401 0
    endloop
  endfacet
  facet normal 0 0 -1
    outer loop
      vertex 9.34999 14.35 0
      vertex 12.2211 9.82585 0
      vertex 11.6709 10.1284 0
    endloop
  endfacet
  facet normal 0 0 -1
    outer loop
      vertex 13.4131 35.5614 0
      vertex 9.34999 30.65 0
      vertex 12.8049 35.4053 0
    endloop
  endfacet
  facet normal 0 0 -1
    outer loop
      vertex 9.34999 14.35 0
      vertex 11.6709 10.1284 0
      vertex 11.1629 10.4974 0
    endloop
  endfacet
  facet normal 0 0 -1
    outer loop
      vertex 12.8049 35.4053 0
      vertex 9.34999 30.65 0
      vertex 12.2211 35.1741 0
    endloop
  endfacet
  facet normal 0 0 -1
    outer loop
      vertex 9.34999 14.35 0
      vertex 11.1629 10.4974 0
      vertex 10.7052 10.9273 0
    endloop
  endfacet
  facet normal 0 0 -1
    outer loop
      vertex 12.2211 35.1741 0
      vertex 9.34999 30.65 0
      vertex 11.6709 34.8716 0
    endloop
  endfacet
  facet normal 0 0 -1
    outer loop
      vertex 9.34999 14.35 0
      vertex 10.7052 10.9273 0
      vertex 10.3049 11.4111 0
    endloop
  endfacet
  facet normal 0 0 -1
    outer loop
      vertex 11.6709 34.8716 0
      vertex 9.34999 30.65 0
      vertex 11.1629 34.5026 0
    endloop
  endfacet
  facet normal 0 0 -1
    outer loop
      vertex 9.34999 14.35 0
      vertex 10.3049 11.4111 0
      vertex 9.96846 11.9412 0
    endloop
  endfacet
  facet normal 0 0 -1
    outer loop
      vertex 11.1629 34.5026 0
      vertex 9.34999 30.65 0
      vertex 10.7052 34.0727 0
    endloop
  endfacet
  facet normal 0 0 -1
    outer loop
      vertex 9.34999 14.35 0
      vertex 9.96846 11.9412 0
      vertex 9.70111 12.5094 0
    endloop
  endfacet
  facet normal 0 0 -1
    outer loop
      vertex 10.7052 34.0727 0
      vertex 9.34999 30.65 0
      vertex 10.3049 33.5889 0
    endloop
  endfacet
  facet normal 0 0 -1
    outer loop
      vertex 9.34999 14.35 0
      vertex 9.70111 12.5094 0
      vertex 9.50708 13.1065 0
    endloop
  endfacet
  facet normal 0 0 -1
    outer loop
      vertex 10.3049 33.5889 0
      vertex 9.34999 30.65 0
      vertex 9.96846 33.0588 0
    endloop
  endfacet
  facet normal 0 0 -1
    outer loop
      vertex 9.34999 14.35 0
      vertex 9.50708 13.1065 0
      vertex 9.38942 13.7233 0
    endloop
  endfacet
  facet normal 0 0 -1
    outer loop
      vertex 9.96846 33.0588 0
      vertex 9.34999 30.65 0
      vertex 9.70111 32.4906 0
    endloop
  endfacet
  facet normal 0 0 -1
    outer loop
      vertex 9.70111 32.4906 0
      vertex 9.34999 30.65 0
      vertex 9.50708 31.8934 0
    endloop
  endfacet
  facet normal 0 0 -1
    outer loop
      vertex 9.50708 31.8934 0
      vertex 9.34999 30.65 0
      vertex 9.38942 31.2767 0
    endloop
  endfacet
  facet normal 0 0 -1
    outer loop
      vertex 14.35 9.35986 0
      vertex 45.65 9.35986 0
      vertex 45.65 9.34999 0
    endloop
  endfacet
  facet normal 0 0 -1
    outer loop
      vertex 45.65 9.35986 0
      vertex 14.35 9.35986 0
      vertex 45.65 35.6401 0
    endloop
  endfacet
  facet normal 0 0 -1
    outer loop
      vertex 14.35 9.35986 0
      vertex 45.65 9.34999 0
      vertex 14.35 9.34999 0
    endloop
  endfacet
  facet normal 0 0 -1
    outer loop
      vertex 14.35 35.6401 0
      vertex 45.65 35.6401 0
      vertex 14.35 9.35986 0
    endloop
  endfacet
  facet normal 0 0 -1
    outer loop
      vertex 45.65 35.6401 0
      vertex 14.35 35.6401 0
      vertex 45.65 35.65 0
    endloop
  endfacet
  facet normal -0 0 -1
    outer loop
      vertex 45.65 35.65 0
      vertex 14.35 35.6401 0
      vertex 14.35 35.65 0
    endloop
  endfacet
  facet normal 0 0 -1
    outer loop
      vertex 45.65 9.35986 0
      vertex 50.65 14.35 0
      vertex 50.6106 13.7233 0
    endloop
  endfacet
  facet normal -0 0 -1
    outer loop
      vertex 50.65 14.35 0
      vertex 45.65 9.35986 0
      vertex 50.65 30.65 0
    endloop
  endfacet
  facet normal 0 0 -1
    outer loop
      vertex 45.65 9.35986 0
      vertex 50.6106 13.7233 0
      vertex 50.4929 13.1065 0
    endloop
  endfacet
  facet normal 0 0 -1
    outer loop
      vertex 45.65 35.6401 0
      vertex 50.65 30.65 0
      vertex 45.65 9.35986 0
    endloop
  endfacet
  facet normal 0 0 -1
    outer loop
      vertex 45.65 9.35986 0
      vertex 50.4929 13.1065 0
      vertex 50.2989 12.5094 0
    endloop
  endfacet
  facet normal 0 0 -1
    outer loop
      vertex 50.65 30.65 0
      vertex 45.65 35.6401 0
      vertex 50.6106 31.2767 0
    endloop
  endfacet
  facet normal 0 0 -1
    outer loop
      vertex 45.65 9.35986 0
      vertex 50.2989 12.5094 0
      vertex 50.0315 11.9412 0
    endloop
  endfacet
  facet normal 0 0 -1
    outer loop
      vertex 50.6106 31.2767 0
      vertex 45.65 35.6401 0
      vertex 50.4929 31.8934 0
    endloop
  endfacet
  facet normal 0 0 -1
    outer loop
      vertex 45.65 9.35986 0
      vertex 50.0315 11.9412 0
      vertex 49.6951 11.4111 0
    endloop
  endfacet
  facet normal 0 0 -1
    outer loop
      vertex 50.4929 31.8934 0
      vertex 45.65 35.6401 0
      vertex 50.2989 32.4906 0
    endloop
  endfacet
  facet normal 0 0 -1
    outer loop
      vertex 45.65 9.35986 0
      vertex 49.6951 11.4111 0
      vertex 49.2948 10.9273 0
    endloop
  endfacet
  facet normal 0 0 -1
    outer loop
      vertex 50.2989 32.4906 0
      vertex 45.65 35.6401 0
      vertex 50.0315 33.0588 0
    endloop
  endfacet
  facet normal 0 0 -1
    outer loop
      vertex 45.65 9.35986 0
      vertex 49.2948 10.9273 0
      vertex 48.8371 10.4974 0
    endloop
  endfacet
  facet normal 0 0 -1
    outer loop
      vertex 50.0315 33.0588 0
      vertex 45.65 35.6401 0
      vertex 49.6951 33.5889 0
    endloop
  endfacet
  facet normal 0 0 -1
    outer loop
      vertex 45.65 9.35986 0
      vertex 48.8371 10.4974 0
      vertex 48.3291 10.1284 0
    endloop
  endfacet
  facet normal 0 0 -1
    outer loop
      vertex 49.6951 33.5889 0
      vertex 45.65 35.6401 0
      vertex 49.2948 34.0727 0
    endloop
  endfacet
  facet normal 0 0 -1
    outer loop
      vertex 45.65 9.35986 0
      vertex 48.3291 10.1284 0
      vertex 47.7789 9.82585 0
    endloop
  endfacet
  facet normal 0 0 -1
    outer loop
      vertex 49.2948 34.0727 0
      vertex 45.65 35.6401 0
      vertex 48.8371 34.5026 0
    endloop
  endfacet
  facet normal 0 0 -1
    outer loop
      vertex 45.65 9.35986 0
      vertex 47.7789 9.82585 0
      vertex 47.1951 9.59471 0
    endloop
  endfacet
  facet normal 0 0 -1
    outer loop
      vertex 48.8371 34.5026 0
      vertex 45.65 35.6401 0
      vertex 48.3291 34.8716 0
    endloop
  endfacet
  facet normal 0 0 -1
    outer loop
      vertex 45.65 9.35986 0
      vertex 47.1951 9.59471 0
      vertex 46.5869 9.43855 0
    endloop
  endfacet
  facet normal 0 0 -1
    outer loop
      vertex 48.3291 34.8716 0
      vertex 45.65 35.6401 0
      vertex 47.7789 35.1741 0
    endloop
  endfacet
  facet normal 0 0 -1
    outer loop
      vertex 45.65 9.35986 0
      vertex 46.5869 9.43855 0
      vertex 45.9639 9.35986 0
    endloop
  endfacet
  facet normal 0 0 -1
    outer loop
      vertex 47.7789 35.1741 0
      vertex 45.65 35.6401 0
      vertex 47.1951 35.4053 0
    endloop
  endfacet
  facet normal 0 0 -1
    outer loop
      vertex 47.1951 35.4053 0
      vertex 45.65 35.6401 0
      vertex 46.5869 35.5614 0
    endloop
  endfacet
  facet normal 0 0 -1
    outer loop
      vertex 46.5869 35.5614 0
      vertex 45.65 35.6401 0
      vertex 45.9639 35.6401 0
    endloop
  endfacet
  facet normal -0.982288 -0.18738 0
    outer loop
      vertex 9.50708 13.1065 0
      vertex 9.38942 13.7233 0.2
      vertex 9.38942 13.7233 0
    endloop
  endfacet
  facet normal -0.982288 -0.18738 0
    outer loop
      vertex 9.38942 13.7233 0.2
      vertex 9.50708 13.1065 0
      vertex 9.50708 13.1065 0.2
    endloop
  endfacet
  facet normal -0.951047 -0.309046 0
    outer loop
      vertex 9.70111 12.5094 0
      vertex 9.50708 13.1065 0.2
      vertex 9.50708 13.1065 0
    endloop
  endfacet
  facet normal -0.951047 -0.309046 0
    outer loop
      vertex 9.50708 13.1065 0.2
      vertex 9.70111 12.5094 0
      vertex 9.70111 12.5094 0.2
    endloop
  endfacet
  facet normal -0.904842 -0.425747 0
    outer loop
      vertex 9.96846 11.9412 0
      vertex 9.70111 12.5094 0.2
      vertex 9.70111 12.5094 0
    endloop
  endfacet
  facet normal -0.904842 -0.425747 0
    outer loop
      vertex 9.70111 12.5094 0.2
      vertex 9.96846 11.9412 0
      vertex 9.96846 11.9412 0.2
    endloop
  endfacet
  facet normal -0.844308 -0.535859 0
    outer loop
      vertex 10.3049 11.4111 0
      vertex 9.96846 11.9412 0.2
      vertex 9.96846 11.9412 0
    endloop
  endfacet
  facet normal -0.844308 -0.535859 0
    outer loop
      vertex 9.96846 11.9412 0.2
      vertex 10.3049 11.4111 0
      vertex 10.3049 11.4111 0.2
    endloop
  endfacet
  facet normal -0.770462 -0.637486 0
    outer loop
      vertex 10.7052 10.9273 0
      vertex 10.3049 11.4111 0.2
      vertex 10.3049 11.4111 0
    endloop
  endfacet
  facet normal -0.770462 -0.637486 0
    outer loop
      vertex 10.3049 11.4111 0.2
      vertex 10.7052 10.9273 0
      vertex 10.7052 10.9273 0.2
    endloop
  endfacet
  facet normal -0.684624 -0.728896 0
    outer loop
      vertex 10.7052 10.9273 0
      vertex 11.1629 10.4974 0.2
      vertex 10.7052 10.9273 0.2
    endloop
  endfacet
  facet normal -0.684624 -0.728896 -0
    outer loop
      vertex 11.1629 10.4974 0.2
      vertex 10.7052 10.9273 0
      vertex 11.1629 10.4974 0
    endloop
  endfacet
  facet normal -0.587698 -0.80908 0
    outer loop
      vertex 11.1629 10.4974 0
      vertex 11.6709 10.1284 0.2
      vertex 11.1629 10.4974 0.2
    endloop
  endfacet
  facet normal -0.587698 -0.80908 -0
    outer loop
      vertex 11.6709 10.1284 0.2
      vertex 11.1629 10.4974 0
      vertex 11.6709 10.1284 0
    endloop
  endfacet
  facet normal -0.481845 -0.876256 0
    outer loop
      vertex 11.6709 10.1284 0
      vertex 12.2211 9.82585 0.2
      vertex 11.6709 10.1284 0.2
    endloop
  endfacet
  facet normal -0.481845 -0.876256 -0
    outer loop
      vertex 12.2211 9.82585 0.2
      vertex 11.6709 10.1284 0
      vertex 12.2211 9.82585 0
    endloop
  endfacet
  facet normal -0.368121 -0.929778 0
    outer loop
      vertex 12.2211 9.82585 0
      vertex 12.8049 9.59471 0.2
      vertex 12.2211 9.82585 0.2
    endloop
  endfacet
  facet normal -0.368121 -0.929778 -0
    outer loop
      vertex 12.8049 9.59471 0.2
      vertex 12.2211 9.82585 0
      vertex 12.8049 9.59471 0
    endloop
  endfacet
  facet normal -0.248691 -0.968583 0
    outer loop
      vertex 12.8049 9.59471 0
      vertex 13.4131 9.43855 0.2
      vertex 12.8049 9.59471 0.2
    endloop
  endfacet
  facet normal -0.248691 -0.968583 -0
    outer loop
      vertex 13.4131 9.43855 0.2
      vertex 12.8049 9.59471 0
      vertex 13.4131 9.43855 0
    endloop
  endfacet
  facet normal -0.125332 -0.992115 0
    outer loop
      vertex 13.4131 9.43855 0
      vertex 14.036 9.35986 0.2
      vertex 13.4131 9.43855 0.2
    endloop
  endfacet
  facet normal -0.125332 -0.992115 -0
    outer loop
      vertex 14.036 9.35986 0.2
      vertex 13.4131 9.43855 0
      vertex 14.036 9.35986 0
    endloop
  endfacet
  facet normal 0 -1 0
    outer loop
      vertex 14.036 9.35986 0
      vertex 14.35 9.35986 0.2
      vertex 14.036 9.35986 0.2
    endloop
  endfacet
  facet normal 0 -1 -0
    outer loop
      vertex 14.35 9.35986 0.2
      vertex 14.036 9.35986 0
      vertex 14.35 9.35986 0
    endloop
  endfacet
  facet normal -1 0 0
    outer loop
      vertex 14.35 9.34999 0
      vertex 14.35 9.35986 0.2
      vertex 14.35 9.35986 0
    endloop
  endfacet
  facet normal -1 -0 0
    outer loop
      vertex 14.35 9.35986 0.2
      vertex 14.35 9.34999 0
      vertex 14.35 9.34999 0.2
    endloop
  endfacet
  facet normal 0 -1 0
    outer loop
      vertex 14.35 9.34999 0
      vertex 45.65 9.34999 0.2
      vertex 14.35 9.34999 0.2
    endloop
  endfacet
  facet normal 0 -1 -0
    outer loop
      vertex 45.65 9.34999 0.2
      vertex 14.35 9.34999 0
      vertex 45.65 9.34999 0
    endloop
  endfacet
  facet normal 1 -0 0
    outer loop
      vertex 45.65 9.34999 0.2
      vertex 45.65 9.35986 0
      vertex 45.65 9.35986 0.2
    endloop
  endfacet
  facet normal 1 0 0
    outer loop
      vertex 45.65 9.35986 0
      vertex 45.65 9.34999 0.2
      vertex 45.65 9.34999 0
    endloop
  endfacet
  facet normal 0 -1 0
    outer loop
      vertex 45.65 9.35986 0
      vertex 45.9639 9.35986 0.2
      vertex 45.65 9.35986 0.2
    endloop
  endfacet
  facet normal 0 -1 -0
    outer loop
      vertex 45.9639 9.35986 0.2
      vertex 45.65 9.35986 0
      vertex 45.9639 9.35986 0
    endloop
  endfacet
  facet normal 0.125313 -0.992117 0
    outer loop
      vertex 45.9639 9.35986 0
      vertex 46.5869 9.43855 0.2
      vertex 45.9639 9.35986 0.2
    endloop
  endfacet
  facet normal 0.125313 -0.992117 0
    outer loop
      vertex 46.5869 9.43855 0.2
      vertex 45.9639 9.35986 0
      vertex 46.5869 9.43855 0
    endloop
  endfacet
  facet normal 0.248691 -0.968583 0
    outer loop
      vertex 46.5869 9.43855 0
      vertex 47.1951 9.59471 0.2
      vertex 46.5869 9.43855 0.2
    endloop
  endfacet
  facet normal 0.248691 -0.968583 0
    outer loop
      vertex 47.1951 9.59471 0.2
      vertex 46.5869 9.43855 0
      vertex 47.1951 9.59471 0
    endloop
  endfacet
  facet normal 0.368121 -0.929778 0
    outer loop
      vertex 47.1951 9.59471 0
      vertex 47.7789 9.82585 0.2
      vertex 47.1951 9.59471 0.2
    endloop
  endfacet
  facet normal 0.368121 -0.929778 0
    outer loop
      vertex 47.7789 9.82585 0.2
      vertex 47.1951 9.59471 0
      vertex 47.7789 9.82585 0
    endloop
  endfacet
  facet normal 0.481845 -0.876256 0
    outer loop
      vertex 47.7789 9.82585 0
      vertex 48.3291 10.1284 0.2
      vertex 47.7789 9.82585 0.2
    endloop
  endfacet
  facet normal 0.481845 -0.876256 0
    outer loop
      vertex 48.3291 10.1284 0.2
      vertex 47.7789 9.82585 0
      vertex 48.3291 10.1284 0
    endloop
  endfacet
  facet normal 0.587698 -0.80908 0
    outer loop
      vertex 48.3291 10.1284 0
      vertex 48.8371 10.4974 0.2
      vertex 48.3291 10.1284 0.2
    endloop
  endfacet
  facet normal 0.587698 -0.80908 0
    outer loop
      vertex 48.8371 10.4974 0.2
      vertex 48.3291 10.1284 0
      vertex 48.8371 10.4974 0
    endloop
  endfacet
  facet normal 0.684624 -0.728896 0
    outer loop
      vertex 48.8371 10.4974 0
      vertex 49.2948 10.9273 0.2
      vertex 48.8371 10.4974 0.2
    endloop
  endfacet
  facet normal 0.684624 -0.728896 0
    outer loop
      vertex 49.2948 10.9273 0.2
      vertex 48.8371 10.4974 0
      vertex 49.2948 10.9273 0
    endloop
  endfacet
  facet normal 0.770462 -0.637486 0
    outer loop
      vertex 49.2948 10.9273 0.2
      vertex 49.6951 11.4111 0
      vertex 49.6951 11.4111 0.2
    endloop
  endfacet
  facet normal 0.770462 -0.637486 0
    outer loop
      vertex 49.6951 11.4111 0
      vertex 49.2948 10.9273 0.2
      vertex 49.2948 10.9273 0
    endloop
  endfacet
  facet normal 0.844336 -0.535814 0
    outer loop
      vertex 49.6951 11.4111 0.2
      vertex 50.0315 11.9412 0
      vertex 50.0315 11.9412 0.2
    endloop
  endfacet
  facet normal 0.844336 -0.535814 0
    outer loop
      vertex 50.0315 11.9412 0
      vertex 49.6951 11.4111 0.2
      vertex 49.6951 11.4111 0
    endloop
  endfacet
  facet normal 0.904811 -0.425812 0
    outer loop
      vertex 50.0315 11.9412 0.2
      vertex 50.2989 12.5094 0
      vertex 50.2989 12.5094 0.2
    endloop
  endfacet
  facet normal 0.904811 -0.425812 0
    outer loop
      vertex 50.2989 12.5094 0
      vertex 50.0315 11.9412 0.2
      vertex 50.0315 11.9412 0
    endloop
  endfacet
  facet normal 0.951061 -0.309003 0
    outer loop
      vertex 50.2989 12.5094 0.2
      vertex 50.4929 13.1065 0
      vertex 50.4929 13.1065 0.2
    endloop
  endfacet
  facet normal 0.951061 -0.309003 0
    outer loop
      vertex 50.4929 13.1065 0
      vertex 50.2989 12.5094 0.2
      vertex 50.2989 12.5094 0
    endloop
  endfacet
  facet normal 0.982276 -0.187441 0
    outer loop
      vertex 50.4929 13.1065 0.2
      vertex 50.6106 13.7233 0
      vertex 50.6106 13.7233 0.2
    endloop
  endfacet
  facet normal 0.982276 -0.187441 0
    outer loop
      vertex 50.6106 13.7233 0
      vertex 50.4929 13.1065 0.2
      vertex 50.4929 13.1065 0
    endloop
  endfacet
  facet normal 0.99803 -0.0627451 0
    outer loop
      vertex 50.6106 13.7233 0.2
      vertex 50.65 14.35 0
      vertex 50.65 14.35 0.2
    endloop
  endfacet
  facet normal 0.99803 -0.0627451 0
    outer loop
      vertex 50.65 14.35 0
      vertex 50.6106 13.7233 0.2
      vertex 50.6106 13.7233 0
    endloop
  endfacet
  facet normal 1 -0 0
    outer loop
      vertex 50.65 14.35 0.2
      vertex 50.65 30.65 0
      vertex 50.65 30.65 0.2
    endloop
  endfacet
  facet normal 1 0 0
    outer loop
      vertex 50.65 30.65 0
      vertex 50.65 14.35 0.2
      vertex 50.65 14.35 0
    endloop
  endfacet
  facet normal 0.99803 0.0627451 0
    outer loop
      vertex 50.65 30.65 0.2
      vertex 50.6106 31.2767 0
      vertex 50.6106 31.2767 0.2
    endloop
  endfacet
  facet normal 0.99803 0.0627451 0
    outer loop
      vertex 50.6106 31.2767 0
      vertex 50.65 30.65 0.2
      vertex 50.65 30.65 0
    endloop
  endfacet
  facet normal 0.98227 0.187471 0
    outer loop
      vertex 50.6106 31.2767 0.2
      vertex 50.4929 31.8934 0
      vertex 50.4929 31.8934 0.2
    endloop
  endfacet
  facet normal 0.98227 0.187471 0
    outer loop
      vertex 50.4929 31.8934 0
      vertex 50.6106 31.2767 0.2
      vertex 50.6106 31.2767 0
    endloop
  endfacet
  facet normal 0.951076 0.308956 0
    outer loop
      vertex 50.4929 31.8934 0.2
      vertex 50.2989 32.4906 0
      vertex 50.2989 32.4906 0.2
    endloop
  endfacet
  facet normal 0.951076 0.308956 0
    outer loop
      vertex 50.2989 32.4906 0
      vertex 50.4929 31.8934 0.2
      vertex 50.4929 31.8934 0
    endloop
  endfacet
  facet normal 0.904811 0.425812 0
    outer loop
      vertex 50.2989 32.4906 0.2
      vertex 50.0315 33.0588 0
      vertex 50.0315 33.0588 0.2
    endloop
  endfacet
  facet normal 0.904811 0.425812 0
    outer loop
      vertex 50.0315 33.0588 0
      vertex 50.2989 32.4906 0.2
      vertex 50.2989 32.4906 0
    endloop
  endfacet
  facet normal 0.844336 0.535814 0
    outer loop
      vertex 50.0315 33.0588 0.2
      vertex 49.6951 33.5889 0
      vertex 49.6951 33.5889 0.2
    endloop
  endfacet
  facet normal 0.844336 0.535814 0
    outer loop
      vertex 49.6951 33.5889 0
      vertex 50.0315 33.0588 0.2
      vertex 50.0315 33.0588 0
    endloop
  endfacet
  facet normal 0.770462 0.637486 0
    outer loop
      vertex 49.6951 33.5889 0.2
      vertex 49.2948 34.0727 0
      vertex 49.2948 34.0727 0.2
    endloop
  endfacet
  facet normal 0.770462 0.637486 0
    outer loop
      vertex 49.2948 34.0727 0
      vertex 49.6951 33.5889 0.2
      vertex 49.6951 33.5889 0
    endloop
  endfacet
  facet normal 0.684624 0.728896 -0
    outer loop
      vertex 49.2948 34.0727 0
      vertex 48.8371 34.5026 0.2
      vertex 49.2948 34.0727 0.2
    endloop
  endfacet
  facet normal 0.684624 0.728896 0
    outer loop
      vertex 48.8371 34.5026 0.2
      vertex 49.2948 34.0727 0
      vertex 48.8371 34.5026 0
    endloop
  endfacet
  facet normal 0.587698 0.80908 -0
    outer loop
      vertex 48.8371 34.5026 0
      vertex 48.3291 34.8716 0.2
      vertex 48.8371 34.5026 0.2
    endloop
  endfacet
  facet normal 0.587698 0.80908 0
    outer loop
      vertex 48.3291 34.8716 0.2
      vertex 48.8371 34.5026 0
      vertex 48.3291 34.8716 0
    endloop
  endfacet
  facet normal 0.481784 0.87629 -0
    outer loop
      vertex 48.3291 34.8716 0
      vertex 47.7789 35.1741 0.2
      vertex 48.3291 34.8716 0.2
    endloop
  endfacet
  facet normal 0.481784 0.87629 0
    outer loop
      vertex 47.7789 35.1741 0.2
      vertex 48.3291 34.8716 0
      vertex 47.7789 35.1741 0
    endloop
  endfacet
  facet normal 0.368203 0.929745 -0
    outer loop
      vertex 47.7789 35.1741 0
      vertex 47.1951 35.4053 0.2
      vertex 47.7789 35.1741 0.2
    endloop
  endfacet
  facet normal 0.368203 0.929745 0
    outer loop
      vertex 47.1951 35.4053 0.2
      vertex 47.7789 35.1741 0
      vertex 47.1951 35.4053 0
    endloop
  endfacet
  facet normal 0.248601 0.968606 -0
    outer loop
      vertex 47.1951 35.4053 0
      vertex 46.5869 35.5614 0.2
      vertex 47.1951 35.4053 0.2
    endloop
  endfacet
  facet normal 0.248601 0.968606 0
    outer loop
      vertex 46.5869 35.5614 0.2
      vertex 47.1951 35.4053 0
      vertex 46.5869 35.5614 0
    endloop
  endfacet
  facet normal 0.125328 0.992115 -0
    outer loop
      vertex 46.5869 35.5614 0
      vertex 45.9639 35.6401 0.2
      vertex 46.5869 35.5614 0.2
    endloop
  endfacet
  facet normal 0.125328 0.992115 0
    outer loop
      vertex 45.9639 35.6401 0.2
      vertex 46.5869 35.5614 0
      vertex 45.9639 35.6401 0
    endloop
  endfacet
  facet normal 0 1 -0
    outer loop
      vertex 45.9639 35.6401 0
      vertex 45.65 35.6401 0.2
      vertex 45.9639 35.6401 0.2
    endloop
  endfacet
  facet normal 0 1 0
    outer loop
      vertex 45.65 35.6401 0.2
      vertex 45.9639 35.6401 0
      vertex 45.65 35.6401 0
    endloop
  endfacet
  facet normal 1 -0 0
    outer loop
      vertex 45.65 35.6401 0.2
      vertex 45.65 35.65 0
      vertex 45.65 35.65 0.2
    endloop
  endfacet
  facet normal 1 0 0
    outer loop
      vertex 45.65 35.65 0
      vertex 45.65 35.6401 0.2
      vertex 45.65 35.6401 0
    endloop
  endfacet
  facet normal 0 1 -0
    outer loop
      vertex 45.65 35.65 0
      vertex 14.35 35.65 0.2
      vertex 45.65 35.65 0.2
    endloop
  endfacet
  facet normal 0 1 0
    outer loop
      vertex 14.35 35.65 0.2
      vertex 45.65 35.65 0
      vertex 14.35 35.65 0
    endloop
  endfacet
  facet normal -1 0 0
    outer loop
      vertex 14.35 35.6401 0
      vertex 14.35 35.65 0.2
      vertex 14.35 35.65 0
    endloop
  endfacet
  facet normal -1 -0 0
    outer loop
      vertex 14.35 35.65 0.2
      vertex 14.35 35.6401 0
      vertex 14.35 35.6401 0.2
    endloop
  endfacet
  facet normal 0 1 -0
    outer loop
      vertex 14.35 35.6401 0
      vertex 14.036 35.6401 0.2
      vertex 14.35 35.6401 0.2
    endloop
  endfacet
  facet normal 0 1 0
    outer loop
      vertex 14.036 35.6401 0.2
      vertex 14.35 35.6401 0
      vertex 14.036 35.6401 0
    endloop
  endfacet
  facet normal -0.125348 0.992113 0
    outer loop
      vertex 14.036 35.6401 0
      vertex 13.4131 35.5614 0.2
      vertex 14.036 35.6401 0.2
    endloop
  endfacet
  facet normal -0.125348 0.992113 0
    outer loop
      vertex 13.4131 35.5614 0.2
      vertex 14.036 35.6401 0
      vertex 13.4131 35.5614 0
    endloop
  endfacet
  facet normal -0.248601 0.968606 0
    outer loop
      vertex 13.4131 35.5614 0
      vertex 12.8049 35.4053 0.2
      vertex 13.4131 35.5614 0.2
    endloop
  endfacet
  facet normal -0.248601 0.968606 0
    outer loop
      vertex 12.8049 35.4053 0.2
      vertex 13.4131 35.5614 0
      vertex 12.8049 35.4053 0
    endloop
  endfacet
  facet normal -0.368203 0.929745 0
    outer loop
      vertex 12.8049 35.4053 0
      vertex 12.2211 35.1741 0.2
      vertex 12.8049 35.4053 0.2
    endloop
  endfacet
  facet normal -0.368203 0.929745 0
    outer loop
      vertex 12.2211 35.1741 0.2
      vertex 12.8049 35.4053 0
      vertex 12.2211 35.1741 0
    endloop
  endfacet
  facet normal -0.481784 0.87629 0
    outer loop
      vertex 12.2211 35.1741 0
      vertex 11.6709 34.8716 0.2
      vertex 12.2211 35.1741 0.2
    endloop
  endfacet
  facet normal -0.481784 0.87629 0
    outer loop
      vertex 11.6709 34.8716 0.2
      vertex 12.2211 35.1741 0
      vertex 11.6709 34.8716 0
    endloop
  endfacet
  facet normal -0.587698 0.80908 0
    outer loop
      vertex 11.6709 34.8716 0
      vertex 11.1629 34.5026 0.2
      vertex 11.6709 34.8716 0.2
    endloop
  endfacet
  facet normal -0.587698 0.80908 0
    outer loop
      vertex 11.1629 34.5026 0.2
      vertex 11.6709 34.8716 0
      vertex 11.1629 34.5026 0
    endloop
  endfacet
  facet normal -0.684624 0.728896 0
    outer loop
      vertex 11.1629 34.5026 0
      vertex 10.7052 34.0727 0.2
      vertex 11.1629 34.5026 0.2
    endloop
  endfacet
  facet normal -0.684624 0.728896 0
    outer loop
      vertex 10.7052 34.0727 0.2
      vertex 11.1629 34.5026 0
      vertex 10.7052 34.0727 0
    endloop
  endfacet
  facet normal -0.770462 0.637486 0
    outer loop
      vertex 10.3049 33.5889 0
      vertex 10.7052 34.0727 0.2
      vertex 10.7052 34.0727 0
    endloop
  endfacet
  facet normal -0.770462 0.637486 0
    outer loop
      vertex 10.7052 34.0727 0.2
      vertex 10.3049 33.5889 0
      vertex 10.3049 33.5889 0.2
    endloop
  endfacet
  facet normal -0.844308 0.535859 0
    outer loop
      vertex 9.96846 33.0588 0
      vertex 10.3049 33.5889 0.2
      vertex 10.3049 33.5889 0
    endloop
  endfacet
  facet normal -0.844308 0.535859 0
    outer loop
      vertex 10.3049 33.5889 0.2
      vertex 9.96846 33.0588 0
      vertex 9.96846 33.0588 0.2
    endloop
  endfacet
  facet normal -0.904842 0.425747 0
    outer loop
      vertex 9.70111 32.4906 0
      vertex 9.96846 33.0588 0.2
      vertex 9.96846 33.0588 0
    endloop
  endfacet
  facet normal -0.904842 0.425747 0
    outer loop
      vertex 9.96846 33.0588 0.2
      vertex 9.70111 32.4906 0
      vertex 9.70111 32.4906 0.2
    endloop
  endfacet
  facet normal -0.951062 0.309 0
    outer loop
      vertex 9.50708 31.8934 0
      vertex 9.70111 32.4906 0.2
      vertex 9.70111 32.4906 0
    endloop
  endfacet
  facet normal -0.951062 0.309 0
    outer loop
      vertex 9.70111 32.4906 0.2
      vertex 9.50708 31.8934 0
      vertex 9.50708 31.8934 0.2
    endloop
  endfacet
  facet normal -0.982282 0.187409 0
    outer loop
      vertex 9.38942 31.2767 0
      vertex 9.50708 31.8934 0.2
      vertex 9.50708 31.8934 0
    endloop
  endfacet
  facet normal -0.982282 0.187409 0
    outer loop
      vertex 9.50708 31.8934 0.2
      vertex 9.38942 31.2767 0
      vertex 9.38942 31.2767 0.2
    endloop
  endfacet
  facet normal -0.998027 0.0627927 0
    outer loop
      vertex 9.34999 30.65 0
      vertex 9.38942 31.2767 0.2
      vertex 9.38942 31.2767 0
    endloop
  endfacet
  facet normal -0.998027 0.0627927 0
    outer loop
      vertex 9.38942 31.2767 0.2
      vertex 9.34999 30.65 0
      vertex 9.34999 30.65 0.2
    endloop
  endfacet
  facet normal -1 0 0
    outer loop
      vertex 9.34999 14.35 0
      vertex 9.34999 30.65 0.2
      vertex 9.34999 30.65 0
    endloop
  endfacet
  facet normal -1 -0 0
    outer loop
      vertex 9.34999 30.65 0.2
      vertex 9.34999 14.35 0
      vertex 9.34999 14.35 0.2
    endloop
  endfacet
  facet normal -0.998027 -0.0627927 0
    outer loop
      vertex 9.38942 13.7233 0
      vertex 9.34999 14.35 0.2
      vertex 9.34999 14.35 0
    endloop
  endfacet
  facet normal -0.998027 -0.0627927 0
    outer loop
      vertex 9.34999 14.35 0.2
      vertex 9.38942 13.7233 0
      vertex 9.38942 13.7233 0.2
    endloop
  endfacet
endsolid OpenSCAD_Model
