<?xml version="1.0" encoding="UTF-8"?>
<!DOCTYPE svg PUBLIC "-//W3C//DTD SVG 1.1//EN" "http://www.w3.org/Graphics/SVG/1.1/DTD/svg11.dtd">
<!-- Creator: CorelDRAW -->
<svg xmlns="http://www.w3.org/2000/svg" xml:space="preserve" width="600px" height="300px" style="shape-rendering:geometricPrecision; text-rendering:geometricPrecision; image-rendering:optimizeQuality; fill-rule:evenodd; clip-rule:evenodd"
viewBox="0 0 600 375.973"
 xmlns:xlink="http://www.w3.org/1999/xlink">
 <defs>
  <style type="text/css">
   <![CDATA[
    .str0 {stroke:black;stroke-width:6.32204}
    .fil0 {fill:none;fill-rule:nonzero}
   ]]>
  </style>
 </defs>
 <g id="Layer_x0020_1">
  <metadata id="CorelCorpID_0Corel-Layer"/>
  <path class="fil0 str0" d="M59.1778 3.16102l481.643 0c31.0434,0 56.0179,24.9891 56.0179,56.0168l0 257.616c0,31.0434 -24.9745,56.0179 -56.0179,56.0179l-481.643 0c-31.0277,0 -56.0168,-24.9745 -56.0168,-56.0179l0 -257.616c0,-31.0277 24.9891,-56.0168 56.0168,-56.0168zm0 0z"/>
  <path class="fil0 str0" d="M59.1778 109.577l0 -4.49286c-5.10893,-2.94819 -9.35648,-7.20806 -12.3047,-12.3013l-4.50518 0 0 -16.8099 0 -16.7953 4.50518 0c2.94819,-5.10893 7.19574,-9.35648 12.3047,-12.3047l0 -4.50518 16.7942 0 16.811 0 0 4.50518c5.09325,2.94819 9.35312,7.19574 12.3013,12.3047l4.49286 0 0 16.7953 0 16.8099 -4.49286 0c-2.94819,5.09325 -7.20806,9.35312 -12.3013,12.3013l0 4.49286 -16.811 0 -16.7942 0zm0 0z"/>
  <path class="fil0 str0" d="M59.1778 333.612l0 -4.50854c-5.10893,-2.94819 -9.35648,-7.20806 -12.3047,-12.3013l-4.50518 0 0 -16.7942 0 -16.8099 4.50518 0c2.94819,-5.09437 7.19574,-9.35424 12.3047,-12.3013l0 -4.49286 16.7942 0 16.811 0 0 4.49286c5.09325,2.94707 9.35312,7.20694 12.3013,12.3013l4.49286 0 0 16.8099 0 16.7942 -4.49286 0c-2.94819,5.09325 -7.20806,9.35312 -12.3013,12.3013l0 4.50854 -16.811 0 -16.7942 0zm0 0z"/>
  <path class="fil0 str0" d="M283.198 109.577l0 -4.49286c-5.09437,-2.94819 -9.35424,-7.20806 -12.3013,-12.3013l-4.49286 0 0 -16.8099 0 -16.7953 4.49286 0c2.94707,-5.10893 7.20694,-9.35648 12.3013,-12.3047l0 -4.50518 16.8099 0 16.7942 0 0 4.50518c5.09325,2.94819 9.35312,7.19574 12.3013,12.3047l4.50854 0 0 16.7953 0 16.8099 -4.50854 0c-2.94819,5.09325 -7.20806,9.35312 -12.3013,12.3013l0 4.49286 -16.7942 0 -16.8099 0zm0 0z"/>
  <path class="fil0 str0" d="M283.198 333.612l0 -4.50854c-5.09437,-2.94819 -9.35424,-7.20806 -12.3013,-12.3013l-4.49286 0 0 -16.7942 0 -16.8099 4.49286 0c2.94707,-5.09437 7.20694,-9.35424 12.3013,-12.3013l0 -4.49286 16.8099 0 16.7942 0 0 4.49286c5.09325,2.94707 9.35312,7.20694 12.3013,12.3013l4.50854 0 0 16.8099 0 16.7942 -4.50854 0c-2.94819,5.09325 -7.20806,9.35312 -12.3013,12.3013l0 4.50854 -16.7942 0 -16.8099 0zm0 0z"/>
  <path class="fil0 str0" d="M507.217 109.577l0 -4.49286c-5.09325,-2.94819 -9.33744,-7.20806 -12.3013,-12.3013l-4.49286 0 0 -16.8099 0 -16.7953 4.49286 0c2.96388,-5.10893 7.20806,-9.35648 12.3013,-12.3047l0 -4.50518 16.8099 0 16.7942 0 0 4.50518c5.11005,2.94819 9.3576,7.19574 12.3058,12.3047l4.50406 0 0 16.7953 0 16.8099 -4.50406 0c-2.94819,5.09325 -7.19574,9.35312 -12.3058,12.3013l0 4.49286 -16.7942 0 -16.8099 0zm0 0z"/>
  <path class="fil0 str0" d="M507.217 333.612l0 -4.50854c-5.09325,-2.94819 -9.33744,-7.20806 -12.3013,-12.3013l-4.49286 0 0 -16.7942 0 -16.8099 4.49286 0c2.96388,-5.09437 7.20806,-9.35424 12.3013,-12.3013l0 -4.49286 16.8099 0 16.7942 0 0 4.49286c5.11005,2.94707 9.3576,7.20694 12.3058,12.3013l4.50406 0 0 16.8099 0 16.7942 -4.50406 0c-2.94819,5.09325 -7.19574,9.35312 -12.3058,12.3013l0 4.50854 -16.7942 0 -16.8099 0zm0 0z"/>
  <polygon class="fil0 str0" points="59.1778,154.384 92.783,154.384 92.783,221.593 59.1778,221.593 "/>
  <polygon class="fil0 str0" points="283.198,154.384 316.802,154.384 316.802,221.593 283.198,221.593 "/>
  <polygon class="fil0 str0" points="507.217,154.384 540.821,154.384 540.821,221.593 507.217,221.593 "/>
  <polygon class="fil0 str0" points="154.384,283.198 221.593,283.198 221.593,316.802 154.384,316.802 "/>
  <polygon class="fil0 str0" points="154.384,59.1778 221.593,59.1778 221.593,92.783 154.384,92.783 "/>
  <polygon class="fil0 str0" points="378.407,283.198 445.615,283.198 445.615,316.802 378.407,316.802 "/>
  <polygon class="fil0 str0" points="378.407,59.1778 445.615,59.1778 445.615,92.783 378.407,92.783 "/>
 </g>
</svg>
