  0
SECTION
  2
HEADER
  9
$ACADVER
  1
AC1021
  9
$ACADMAINTVER
 70
    25
  9
$DWGCODEPAGE
  3
ANSI_1252
  9
$INSBASE
 10
0.0
 20
0.0
 30
0.0
  9
$EXTMIN
 10
-11.37146
 20
-36.17646
 30
0.0
  9
$EXTMAX
 10
26.32646
 20
-33.52354
 30
0.0
  9
$LIMMIN
 10
0.0
 20
0.0
  9
$LIMMAX
 10
12.0
 20
9.0
  9
$ORTHOMODE
 70
     0
  9
$REGENMODE
 70
     1
  9
$FILLMODE
 70
     1
  9
$QTEXTMODE
 70
     0
  9
$MIRRTEXT
 70
     1
  9
$LTSCALE
 40
1.0
  9
$ATTMODE
 70
     1
  9
$TEXTSIZE
 40
0.2
  9
$TRACEWID
 40
0.05
  9
$TEXTSTYLE
  7
Standard
  9
$CLAYER
  8
0
  9
$CELTYPE
  6
ByLayer
  9
$CECOLOR
 62
   256
  9
$CELTSCALE
 40
1.0
  9
$DISPSILH
 70
     0
  9
$DIMSCALE
 40
1.0
  9
$DIMASZ
 40
0.18
  9
$DIMEXO
 40
0.0625
  9
$DIMDLI
 40
0.38
  9
$DIMRND
 40
0.0
  9
$DIMDLE
 40
0.0
  9
$DIMEXE
 40
0.18
  9
$DIMTP
 40
0.0
  9
$DIMTM
 40
0.0
  9
$DIMTXT
 40
0.18
  9
$DIMCEN
 40
0.09
  9
$DIMTSZ
 40
0.0
  9
$DIMTOL
 70
     0
  9
$DIMLIM
 70
     0
  9
$DIMTIH
 70
     1
  9
$DIMTOH
 70
     1
  9
$DIMSE1
 70
     0
  9
$DIMSE2
 70
     0
  9
$DIMTAD
 70
     0
  9
$DIMZIN
 70
     0
  9
$DIMBLK
  1

  9
$DIMASO
 70
     1
  9
$DIMSHO
 70
     1
  9
$DIMPOST
  1

  9
$DIMAPOST
  1

  9
$DIMALT
 70
     0
  9
$DIMALTD
 70
     2
  9
$DIMALTF
 40
25.4
  9
$DIMLFAC
 40
1.0
  9
$DIMTOFL
 70
     0
  9
$DIMTVP
 40
0.0
  9
$DIMTIX
 70
     0
  9
$DIMSOXD
 70
     0
  9
$DIMSAH
 70
     0
  9
$DIMBLK1
  1

  9
$DIMBLK2
  1

  9
$DIMSTYLE
  2
Standard
  9
$DIMCLRD
 70
     0
  9
$DIMCLRE
 70
     0
  9
$DIMCLRT
 70
     0
  9
$DIMTFAC
 40
1.0
  9
$DIMGAP
 40
0.09
  9
$DIMJUST
 70
     0
  9
$DIMSD1
 70
     0
  9
$DIMSD2
 70
     0
  9
$DIMTOLJ
 70
     1
  9
$DIMTZIN
 70
     0
  9
$DIMALTZ
 70
     0
  9
$DIMALTTZ
 70
     0
  9
$DIMUPT
 70
     0
  9
$DIMDEC
 70
     4
  9
$DIMTDEC
 70
     4
  9
$DIMALTU
 70
     2
  9
$DIMALTTD
 70
     2
  9
$DIMTXSTY
  7
Standard
  9
$DIMAUNIT
 70
     0
  9
$DIMADEC
 70
     0
  9
$DIMALTRND
 40
0.0
  9
$DIMAZIN
 70
     0
  9
$DIMDSEP
 70
    46
  9
$DIMATFIT
 70
     3
  9
$DIMFRAC
 70
     0
  9
$DIMLDRBLK
  1

  9
$DIMLUNIT
 70
     2
  9
$DIMLWD
 70
    -2
  9
$DIMLWE
 70
    -2
  9
$DIMTMOVE
 70
     0
  9
$DIMFXL
 40
1.0
  9
$DIMFXLON
 70
     0
  9
$DIMJOGANG
 40
0.7853981633974483
  9
$DIMTFILL
 70
     0
  9
$DIMTFILLCLR
 70
     0
  9
$DIMARCSYM
 70
     0
  9
$DIMLTYPE
  6

  9
$DIMLTEX1
  6

  9
$DIMLTEX2
  6

  9
$LUNITS
 70
     2
  9
$LUPREC
 70
     4
  9
$SKETCHINC
 40
0.1
  9
$FILLETRAD
 40
0.5
  9
$AUNITS
 70
     0
  9
$AUPREC
 70
     0
  9
$MENU
  1
.
  9
$ELEVATION
 40
0.0
  9
$PELEVATION
 40
0.0
  9
$THICKNESS
 40
0.0
  9
$LIMCHECK
 70
     0
  9
$CHAMFERA
 40
0.5
  9
$CHAMFERB
 40
0.5
  9
$CHAMFERC
 40
1.0
  9
$CHAMFERD
 40
0.0
  9
$SKPOLY
 70
     0
  9
$TDCREATE
 40
2458791.885882512
  9
$TDUCREATE
 40
2458791.885882512
  9
$TDUPDATE
 40
2458791.885882523
  9
$TDUUPDATE
 40
2458791.885882523
  9
$TDINDWG
 40
0.0000000116
  9
$TDUSRTIMER
 40
0.0000000116
  9
$USRTIMER
 70
     1
  9
$ANGBASE
 50
0.0
  9
$ANGDIR
 70
     0
  9
$PDMODE
 70
     0
  9
$PDSIZE
 40
0.0
  9
$PLINEWID
 40
0.0
  9
$SPLFRAME
 70
     0
  9
$SPLINETYPE
 70
     6
  9
$SPLINESEGS
 70
     8
  9
$HANDSEED
  5
70
  9
$SURFTAB1
 70
     6
  9
$SURFTAB2
 70
     6
  9
$SURFTYPE
 70
     6
  9
$SURFU
 70
     6
  9
$SURFV
 70
     6
  9
$UCSBASE
  2

  9
$UCSNAME
  2

  9
$UCSORG
 10
0.0
 20
0.0
 30
0.0
  9
$UCSXDIR
 10
1.0
 20
0.0
 30
0.0
  9
$UCSYDIR
 10
0.0
 20
1.0
 30
0.0
  9
$UCSORTHOREF
  2

  9
$UCSORTHOVIEW
 70
     0
  9
$UCSORGTOP
 10
0.0
 20
0.0
 30
0.0
  9
$UCSORGBOTTOM
 10
0.0
 20
0.0
 30
0.0
  9
$UCSORGLEFT
 10
0.0
 20
0.0
 30
0.0
  9
$UCSORGRIGHT
 10
0.0
 20
0.0
 30
0.0
  9
$UCSORGFRONT
 10
0.0
 20
0.0
 30
0.0
  9
$UCSORGBACK
 10
0.0
 20
0.0
 30
0.0
  9
$PUCSBASE
  2

  9
$PUCSNAME
  2

  9
$PUCSORG
 10
0.0
 20
0.0
 30
0.0
  9
$PUCSXDIR
 10
1.0
 20
0.0
 30
0.0
  9
$PUCSYDIR
 10
0.0
 20
1.0
 30
0.0
  9
$PUCSORTHOREF
  2

  9
$PUCSORTHOVIEW
 70
     0
  9
$PUCSORGTOP
 10
0.0
 20
0.0
 30
0.0
  9
$PUCSORGBOTTOM
 10
0.0
 20
0.0
 30
0.0
  9
$PUCSORGLEFT
 10
0.0
 20
0.0
 30
0.0
  9
$PUCSORGRIGHT
 10
0.0
 20
0.0
 30
0.0
  9
$PUCSORGFRONT
 10
0.0
 20
0.0
 30
0.0
  9
$PUCSORGBACK
 10
0.0
 20
0.0
 30
0.0
  9
$USERI1
 70
     0
  9
$USERI2
 70
     0
  9
$USERI3
 70
     0
  9
$USERI4
 70
     0
  9
$USERI5
 70
     0
  9
$USERR1
 40
0.0
  9
$USERR2
 40
0.0
  9
$USERR3
 40
0.0
  9
$USERR4
 40
0.0
  9
$USERR5
 40
0.0
  9
$WORLDVIEW
 70
     1
  9
$SHADEDGE
 70
     3
  9
$SHADEDIF
 70
    70
  9
$TILEMODE
 70
     1
  9
$MAXACTVP
 70
    64
  9
$PINSBASE
 10
0.0
 20
0.0
 30
0.0
  9
$PLIMCHECK
 70
     0
  9
$PEXTMIN
 10
1.000000000000000E+20
 20
1.000000000000000E+20
 30
1.000000000000000E+20
  9
$PEXTMAX
 10
-1.000000000000000E+20
 20
-1.000000000000000E+20
 30
-1.000000000000000E+20
  9
$PLIMMIN
 10
0.0
 20
0.0
  9
$PLIMMAX
 10
12.0
 20
9.0
  9
$UNITMODE
 70
     0
  9
$VISRETAIN
 70
     1
  9
$PLINEGEN
 70
     0
  9
$PSLTSCALE
 70
     1
  9
$TREEDEPTH
 70
  3020
  9
$CMLSTYLE
  2
Standard
  9
$CMLJUST
 70
     0
  9
$CMLSCALE
 40
1.0
  9
$PROXYGRAPHICS
 70
     1
  9
$MEASUREMENT
 70
     0
  9
$CELWEIGHT
370
    -1
  9
$ENDCAPS
280
     0
  9
$JOINSTYLE
280
     0
  9
$LWDISPLAY
290
     0
  9
$INSUNITS
 70
     5
  9
$HYPERLINKBASE
  1

  9
$STYLESHEET
  1

  9
$XEDIT
290
     1
  9
$CEPSNTYPE
380
     0
  9
$PSTYLEMODE
290
     1
  9
$FINGERPRINTGUID
  2
{CE6469D7-9C3F-4F60-9964-287610FA208E}
  9
$VERSIONGUID
  2
{FAEB1C32-E019-11D5-929B-00C0DF256EC4}
  9
$EXTNAMES
290
     1
  9
$PSVPSCALE
 40
0.0
  9
$OLESTARTUP
290
     0
  9
$SORTENTS
280
   127
  9
$INDEXCTL
280
     0
  9
$HIDETEXT
280
     1
  9
$XCLIPFRAME
290
     0
  9
$HALOGAP
280
     0
  9
$OBSCOLOR
 70
   257
  9
$OBSLTYPE
280
     0
  9
$INTERSECTIONDISPLAY
280
     0
  9
$INTERSECTIONCOLOR
 70
   257
  9
$DIMASSOC
280
     2
  9
$PROJECTNAME
  1

  9
$CAMERADISPLAY
290
     0
  9
$LENSLENGTH
 40
50.0
  9
$CAMERAHEIGHT
 40
0.0
  9
$STEPSPERSEC
 40
2.0
  9
$STEPSIZE
 40
6.0
  9
$3DDWFPREC
 40
2.0
  9
$PSOLWIDTH
 40
0.25
  9
$PSOLHEIGHT
 40
4.0
  9
$LOFTANG1
 40
1.570796326794897
  9
$LOFTANG2
 40
1.570796326794897
  9
$LOFTMAG1
 40
0.0
  9
$LOFTMAG2
 40
0.0
  9
$LOFTPARAM
 70
     7
  9
$LOFTNORMALS
280
     1
  9
$LATITUDE
 40
37.795
  9
$LONGITUDE
 40
-122.394
  9
$NORTHDIRECTION
 40
0.0
  9
$TIMEZONE
 70
 -8000
  9
$LIGHTGLYPHDISPLAY
280
     1
  9
$TILEMODELIGHTSYNCH
280
     1
  9
$SOLIDHIST
280
     1
  9
$SHOWHIST
280
     1
  9
$DWFFRAME
280
     2
  9
$DGNFRAME
280
     2
  9
$REALWORLDSCALE
290
     1
  9
$INTERFERECOLOR
 62
   256
  9
$CSHADOW
280
     0
  9
$SHADOWPLANELOCATION
 40
0.0
  0
ENDSEC
  0
SECTION
  2
CLASSES
  0
CLASS
  1
ACDBDICTIONARYWDFLT
  2
AcDbDictionaryWithDefault
  3
ObjectDBX Classes
 90
        0
 91
        3
280
     0
281
     0
  0
CLASS
  1
VISUALSTYLE
  2
AcDbVisualStyle
  3
ObjectDBX Classes
 90
     4095
 91
        3
280
     0
281
     0
  0
CLASS
  1
SCALE
  2
AcDbScale
  3
ObjectDBX Classes
 90
     1153
 91
        3
280
     0
281
     0
  0
ENDSEC
  0
SECTION
  2
TABLES
  0
TABLE
  2
VPORT
  5
8
330
0
100
AcDbSymbolTable
 70
     1
  0
VPORT
  5
29
330
8
100
AcDbSymbolTableRecord
100
AcDbViewportTableRecord
  2
*Active
 70
     0
 10
0.0
 20
0.0
 11
1.0
 21
1.0
 12
10.42990654205607
 22
4.5
 13
0.0
 23
0.0
 14
0.5
 24
0.5
 15
0.5
 25
0.5
 16
0.0
 26
0.0
 36
1.0
 17
0.0
 27
0.0
 37
0.0
 40
9.0
 41
1.972972972850329
 42
50.0
 43
0.0
 44
0.0
 50
0.0
 51
0.0
 71
     0
 72
   100
 73
     1
 74
     3
 75
     0
 76
     0
 77
     0
 78
     0
281
     0
 65
     1
110
0.0
120
0.0
130
0.0
111
1.0
121
0.0
131
0.0
112
0.0
122
1.0
132
0.0
 79
     0
146
0.0
 60
     3
 61
     5
292
     1
282
     1
141
0.0
142
0.0
 63
   256
  0
ENDTAB
  0
TABLE
  2
LTYPE
  5
5
330
0
100
AcDbSymbolTable
 70
     1
  0
LTYPE
  5
14
330
5
100
AcDbSymbolTableRecord
100
AcDbLinetypeTableRecord
  2
ByBlock
 70
     0
  3

 72
    65
 73
     0
 40
0.0
  0
LTYPE
  5
15
330
5
100
AcDbSymbolTableRecord
100
AcDbLinetypeTableRecord
  2
ByLayer
 70
     0
  3

 72
    65
 73
     0
 40
0.0
  0
LTYPE
  5
16
330
5
100
AcDbSymbolTableRecord
100
AcDbLinetypeTableRecord
  2
Continuous
 70
     0
  3
Solid line
 72
    65
 73
     0
 40
0.0
  0
ENDTAB
  0
TABLE
  2
LAYER
  5
2
330
0
100
AcDbSymbolTable
 70
     2
  0
LAYER
  5
10
330
2
100
AcDbSymbolTableRecord
100
AcDbLayerTableRecord
  2
0
 70
     0
 62
     7
  6
Continuous
370
    -3
390
F
347
0
  0
LAYER
  5
5E
330
2
100
AcDbSymbolTableRecord
100
AcDbLayerTableRecord
  2
Layer 1
 70
     0
 62
     7
  6
Continuous
370
    -3
390
F
347
0
  0
ENDTAB
  0
TABLE
  2
STYLE
  5
3
330
0
100
AcDbSymbolTable
 70
     1
  0
STYLE
  5
11
330
3
100
AcDbSymbolTableRecord
100
AcDbTextStyleTableRecord
  2
Standard
 70
     0
 40
0.0
 41
1.0
 50
0.0
 71
     0
 42
0.2
  3
txt
  4

  0
ENDTAB
  0
TABLE
  2
VIEW
  5
6
330
0
100
AcDbSymbolTable
 70
     0
  0
ENDTAB
  0
TABLE
  2
UCS
  5
7
330
0
100
AcDbSymbolTable
 70
     0
  0
ENDTAB
  0
TABLE
  2
APPID
  5
9
330
0
100
AcDbSymbolTable
 70
     2
  0
APPID
  5
12
330
9
100
AcDbSymbolTableRecord
100
AcDbRegAppTableRecord
  2
ACAD
 70
     0
  0
APPID
  5
5D
330
9
100
AcDbSymbolTableRecord
100
AcDbRegAppTableRecord
  2
ODA
 70
     0
  0
ENDTAB
  0
TABLE
  2
DIMSTYLE
  5
A
330
0
100
AcDbSymbolTable
 70
     1
100
AcDbDimStyleTable
  0
DIMSTYLE
105
27
330
A
100
AcDbSymbolTableRecord
100
AcDbDimStyleTableRecord
  2
Standard
 70
     0
340
11
  0
ENDTAB
  0
TABLE
  2
BLOCK_RECORD
  5
1
330
0
100
AcDbSymbolTable
 70
     1
  0
BLOCK_RECORD
  5
1F
330
1
100
AcDbSymbolTableRecord
100
AcDbBlockTableRecord
  2
*Model_Space
340
22
 70
     0
280
     1
281
     0
  0
BLOCK_RECORD
  5
1B
330
1
100
AcDbSymbolTableRecord
100
AcDbBlockTableRecord
  2
*Paper_Space
340
1E
 70
     0
280
     1
281
     0
  0
BLOCK_RECORD
  5
23
330
1
100
AcDbSymbolTableRecord
100
AcDbBlockTableRecord
  2
*Paper_Space0
340
26
 70
     0
280
     1
281
     0
  0
ENDTAB
  0
ENDSEC
  0
SECTION
  2
BLOCKS
  0
BLOCK
  5
20
330
1F
100
AcDbEntity
  8
0
100
AcDbBlockBegin
  2
*Model_Space
 70
     0
 10
0.0
 20
0.0
 30
0.0
  3
*Model_Space
  1

  0
ENDBLK
  5
21
330
1F
100
AcDbEntity
  8
0
100
AcDbBlockEnd
  0
BLOCK
  5
1C
330
1B
100
AcDbEntity
 67
     1
  8
0
100
AcDbBlockBegin
  2
*Paper_Space
 70
     0
 10
0.0
 20
0.0
 30
0.0
  3
*Paper_Space
  1

  0
ENDBLK
  5
1D
330
1B
100
AcDbEntity
 67
     1
  8
0
100
AcDbBlockEnd
  0
BLOCK
  5
24
330
23
100
AcDbEntity
  8
0
100
AcDbBlockBegin
  2
*Paper_Space0
 70
     0
 10
0.0
 20
0.0
 30
0.0
  3
*Paper_Space0
  1

  0
ENDBLK
  5
25
330
23
100
AcDbEntity
  8
0
100
AcDbBlockEnd
  0
ENDSEC
  0
SECTION
  2
ENTITIES
  0
ELLIPSE
  5
5F
330
1F
100
AcDbEntity
  8
Layer 1
370
    53
100
AcDbEllipse
 10
-10.5
 20
-34.85
 30
0.0
 11
0.0
 21
0.845
 31
0.0
210
0.0
220
0.0
230
1.0
 40
1.0
 41
0.0
 42
6.283185307179586
  0
ELLIPSE
  5
60
330
1F
100
AcDbEntity
  8
Layer 1
370
    53
100
AcDbEllipse
 10
-10.5
 20
-34.85
 30
0.0
 11
0.0
 21
0.355
 31
0.0
210
0.0
220
0.0
230
1.0
 40
1.0
 41
0.0
 42
6.283185307179586
  0
SPLINE
  5
61
330
1F
100
AcDbEntity
  8
Layer 1
 62
   250
370
    53
100
AcDbSpline
210
0.0
220
0.0
230
1.0
 70
    11
 71
     3
 72
   152
 73
   148
 74
     0
 42
0.0000000001
 43
0.0000000001
 40
0.0
 40
0.0
 40
0.0
 40
0.0
 40
0.027027027027027
 40
0.027027027027027
 40
0.027027027027027
 40
0.027027027027027
 40
0.0540540540540541
 40
0.0540540540540541
 40
0.0540540540540541
 40
0.0540540540540541
 40
0.0810810810810811
 40
0.0810810810810811
 40
0.0810810810810811
 40
0.0810810810810811
 40
0.1081081081081081
 40
0.1081081081081081
 40
0.1081081081081081
 40
0.1081081081081081
 40
0.1351351351351351
 40
0.1351351351351351
 40
0.1351351351351351
 40
0.1351351351351351
 40
0.1621621621621622
 40
0.1621621621621622
 40
0.1621621621621622
 40
0.1621621621621622
 40
0.1891891891891892
 40
0.1891891891891892
 40
0.1891891891891892
 40
0.1891891891891892
 40
0.2162162162162162
 40
0.2162162162162162
 40
0.2162162162162162
 40
0.2162162162162162
 40
0.2432432432432433
 40
0.2432432432432433
 40
0.2432432432432433
 40
0.2432432432432433
 40
0.2702702702702703
 40
0.2702702702702703
 40
0.2702702702702703
 40
0.2702702702702703
 40
0.2972972972972973
 40
0.2972972972972973
 40
0.2972972972972973
 40
0.2972972972972973
 40
0.3243243243243243
 40
0.3243243243243243
 40
0.3243243243243243
 40
0.3243243243243243
 40
0.3513513513513514
 40
0.3513513513513514
 40
0.3513513513513514
 40
0.3513513513513514
 40
0.3783783783783784
 40
0.3783783783783784
 40
0.3783783783783784
 40
0.3783783783783784
 40
0.4054054054054054
 40
0.4054054054054054
 40
0.4054054054054054
 40
0.4054054054054054
 40
0.4324324324324325
 40
0.4324324324324325
 40
0.4324324324324325
 40
0.4324324324324325
 40
0.4594594594594595
 40
0.4594594594594595
 40
0.4594594594594595
 40
0.4594594594594595
 40
0.4864864864864865
 40
0.4864864864864865
 40
0.4864864864864865
 40
0.4864864864864865
 40
0.5135135135135136
 40
0.5135135135135136
 40
0.5135135135135136
 40
0.5135135135135136
 40
0.5405405405405406
 40
0.5405405405405406
 40
0.5405405405405406
 40
0.5405405405405406
 40
0.5675675675675675
 40
0.5675675675675675
 40
0.5675675675675675
 40
0.5675675675675675
 40
0.5945945945945945
 40
0.5945945945945945
 40
0.5945945945945945
 40
0.5945945945945945
 40
0.6216216216216215
 40
0.6216216216216215
 40
0.6216216216216215
 40
0.6216216216216215
 40
0.6486486486486485
 40
0.6486486486486485
 40
0.6486486486486485
 40
0.6486486486486485
 40
0.6756756756756754
 40
0.6756756756756754
 40
0.6756756756756754
 40
0.6756756756756754
 40
0.7027027027027024
 40
0.7027027027027024
 40
0.7027027027027024
 40
0.7027027027027024
 40
0.7297297297297294
 40
0.7297297297297294
 40
0.7297297297297294
 40
0.7297297297297294
 40
0.7567567567567564
 40
0.7567567567567564
 40
0.7567567567567564
 40
0.7567567567567564
 40
0.7837837837837833
 40
0.7837837837837833
 40
0.7837837837837833
 40
0.7837837837837833
 40
0.8108108108108103
 40
0.8108108108108103
 40
0.8108108108108103
 40
0.8108108108108103
 40
0.8378378378378373
 40
0.8378378378378373
 40
0.8378378378378373
 40
0.8378378378378373
 40
0.8648648648648642
 40
0.8648648648648642
 40
0.8648648648648642
 40
0.8648648648648642
 40
0.8918918918918912
 40
0.8918918918918912
 40
0.8918918918918912
 40
0.8918918918918912
 40
0.9189189189189182
 40
0.9189189189189182
 40
0.9189189189189182
 40
0.9189189189189182
 40
0.9459459459459452
 40
0.9459459459459452
 40
0.9459459459459452
 40
0.9459459459459452
 40
0.9729729729729721
 40
0.9729729729729721
 40
0.9729729729729721
 40
0.9729729729729721
 40
1.0
 40
1.0
 40
1.0
 40
1.0
 10
18.3
 20
-34.05
 30
0.0
 10
18.3
 20
-33.77391
 30
0.0
 10
18.07609
 20
-33.55
 30
0.0
 10
17.8
 20
-33.55
 30
0.0
 10
17.8
 20
-33.55
 30
0.0
 10
17.8
 20
-33.55
 30
0.0
 10
16.0
 20
-33.55
 30
0.0
 10
16.0
 20
-33.55
 30
0.0
 10
16.0
 20
-33.55
 30
0.0
 10
16.0
 20
-33.55
 30
0.0
 10
16.0
 20
-34.56132
 30
0.0
 10
16.0
 20
-34.56132
 30
0.0
 10
16.0
 20
-34.56132
 30
0.0
 10
16.0
 20
-34.56132
 30
0.0
 10
16.0
 20
-34.85
 30
0.0
 10
16.0
 20
-34.85
 30
0.0
 10
16.0
 20
-34.85
 30
0.0
 10
16.0
 20
-34.85
 30
0.0
 10
16.0
 20
-35.13868
 30
0.0
 10
16.0
 20
-35.13868
 30
0.0
 10
16.0
 20
-35.13868
 30
0.0
 10
16.0
 20
-35.13868
 30
0.0
 10
15.75
 20
-35.28301
 30
0.0
 10
15.75
 20
-35.28301
 30
0.0
 10
15.75
 20
-35.28301
 30
0.0
 10
15.75
 20
-35.28301
 30
0.0
 10
15.5
 20
-35.42735
 30
0.0
 10
15.5
 20
-35.42735
 30
0.0
 10
15.5
 20
-35.42735
 30
0.0
 10
15.5
 20
-35.42735
 30
0.0
 10
15.25
 20
-35.28301
 30
0.0
 10
15.25
 20
-35.28301
 30
0.0
 10
15.25
 20
-35.28301
 30
0.0
 10
15.25
 20
-35.28301
 30
0.0
 10
15.0
 20
-35.13868
 30
0.0
 10
15.0
 20
-35.13868
 30
0.0
 10
15.0
 20
-35.13868
 30
0.0
 10
15.0
 20
-35.13868
 30
0.0
 10
15.0
 20
-34.85
 30
0.0
 10
15.0
 20
-34.85
 30
0.0
 10
15.0
 20
-34.85
 30
0.0
 10
15.0
 20
-34.85
 30
0.0
 10
15.0
 20
-34.56132
 30
0.0
 10
15.0
 20
-34.56132
 30
0.0
 10
15.0
 20
-34.56132
 30
0.0
 10
15.0
 20
-34.56132
 30
0.0
 10
15.0
 20
-33.55
 30
0.0
 10
15.0
 20
-33.55
 30
0.0
 10
15.0
 20
-33.55
 30
0.0
 10
15.0
 20
-33.55
 30
0.0
 10
13.2
 20
-33.55
 30
0.0
 10
13.2
 20
-33.55
 30
0.0
 10
13.2
 20
-33.55
 30
0.0
 10
12.92391
 20
-33.55
 30
0.0
 10
12.7
 20
-33.77391
 30
0.0
 10
12.7
 20
-34.05
 30
0.0
 10
12.7
 20
-34.05
 30
0.0
 10
12.7
 20
-34.05
 30
0.0
 10
12.7
 20
-34.34997
 30
0.0
 10
12.7
 20
-34.34997
 30
0.0
 10
12.7
 20
-34.34997
 30
0.0
 10
12.7
 20
-34.34997
 30
0.0
 10
13.49998
 20
-34.34997
 30
0.0
 10
13.49998
 20
-34.34997
 30
0.0
 10
13.49998
 20
-34.34997
 30
0.0
 10
13.49998
 20
-34.34997
 30
0.0
 10
13.78865
 20
-34.34997
 30
0.0
 10
13.78865
 20
-34.34997
 30
0.0
 10
13.78865
 20
-34.34997
 30
0.0
 10
13.78865
 20
-34.34997
 30
0.0
 10
13.93298
 20
-34.59996
 30
0.0
 10
13.93298
 20
-34.59996
 30
0.0
 10
13.93298
 20
-34.59996
 30
0.0
 10
13.93298
 20
-34.59996
 30
0.0
 10
14.07732
 20
-34.84997
 30
0.0
 10
14.07732
 20
-34.84997
 30
0.0
 10
14.07732
 20
-34.84997
 30
0.0
 10
14.07732
 20
-34.84997
 30
0.0
 10
13.93298
 20
-35.09996
 30
0.0
 10
13.93298
 20
-35.09996
 30
0.0
 10
13.93298
 20
-35.09996
 30
0.0
 10
13.93298
 20
-35.09996
 30
0.0
 10
13.78865
 20
-35.34996
 30
0.0
 10
13.78865
 20
-35.34996
 30
0.0
 10
13.78865
 20
-35.34996
 30
0.0
 10
13.78865
 20
-35.34996
 30
0.0
 10
13.49998
 20
-35.34995
 30
0.0
 10
13.49998
 20
-35.34995
 30
0.0
 10
13.49998
 20
-35.34995
 30
0.0
 10
13.49998
 20
-35.34995
 30
0.0
 10
12.7
 20
-35.34995
 30
0.0
 10
12.7
 20
-35.34995
 30
0.0
 10
12.7
 20
-35.34995
 30
0.0
 10
12.7
 20
-35.34995
 30
0.0
 10
12.7
 20
-35.65
 30
0.0
 10
12.7
 20
-35.65
 30
0.0
 10
12.7
 20
-35.65
 30
0.0
 10
12.7
 20
-35.92609
 30
0.0
 10
12.92391
 20
-36.15
 30
0.0
 10
13.2
 20
-36.15
 30
0.0
 10
13.2
 20
-36.15
 30
0.0
 10
17.2666
 20
-36.15
 30
0.0
 10
15.91635
 20
-36.15
 30
0.0
 10
17.8
 20
-36.15
 30
0.0
 10
17.8
 20
-36.15
 30
0.0
 10
18.07609
 20
-36.15
 30
0.0
 10
18.3
 20
-35.92609
 30
0.0
 10
18.3
 20
-35.65
 30
0.0
 10
18.3
 20
-35.65
 30
0.0
 10
18.3
 20
-35.65
 30
0.0
 10
18.3
 20
-35.34996
 30
0.0
 10
18.3
 20
-35.34996
 30
0.0
 10
18.3
 20
-35.34996
 30
0.0
 10
18.3
 20
-35.34996
 30
0.0
 10
17.49998
 20
-35.34996
 30
0.0
 10
17.49998
 20
-35.34996
 30
0.0
 10
17.49998
 20
-35.34996
 30
0.0
 10
17.49998
 20
-35.34996
 30
0.0
 10
17.2113
 20
-35.34996
 30
0.0
 10
17.2113
 20
-35.34996
 30
0.0
 10
17.2113
 20
-35.34996
 30
0.0
 10
17.2113
 20
-35.34996
 30
0.0
 10
17.06696
 20
-35.09996
 30
0.0
 10
17.06696
 20
-35.09996
 30
0.0
 10
17.06696
 20
-35.09996
 30
0.0
 10
17.06696
 20
-35.09996
 30
0.0
 10
16.92263
 20
-34.84996
 30
0.0
 10
16.92263
 20
-34.84996
 30
0.0
 10
16.92263
 20
-34.84996
 30
0.0
 10
16.92263
 20
-34.84996
 30
0.0
 10
17.06696
 20
-34.59996
 30
0.0
 10
17.06696
 20
-34.59996
 30
0.0
 10
17.06696
 20
-34.59996
 30
0.0
 10
17.06696
 20
-34.59996
 30
0.0
 10
17.2113
 20
-34.34996
 30
0.0
 10
17.2113
 20
-34.34996
 30
0.0
 10
17.2113
 20
-34.34996
 30
0.0
 10
17.2113
 20
-34.34996
 30
0.0
 10
17.49998
 20
-34.34996
 30
0.0
 10
17.49998
 20
-34.34996
 30
0.0
 10
17.49998
 20
-34.34996
 30
0.0
 10
17.49998
 20
-34.34996
 30
0.0
 10
18.3
 20
-34.34996
 30
0.0
 10
18.3
 20
-34.34996
 30
0.0
 10
18.3
 20
-34.34996
 30
0.0
 10
18.3
 20
-34.34996
 30
0.0
 10
18.3
 20
-34.05
 30
0.0
 10
18.3
 20
-34.05
 30
0.0
  0
SPLINE
  5
62
330
1F
100
AcDbEntity
  8
Layer 1
370
    53
100
AcDbSpline
210
0.0
220
0.0
230
1.0
 70
    11
 71
     3
 72
    92
 73
    88
 74
     0
 42
0.0000000001
 43
0.0000000001
 40
0.0
 40
0.0
 40
0.0
 40
0.0
 40
0.0454545454545455
 40
0.0454545454545455
 40
0.0454545454545455
 40
0.0454545454545455
 40
0.0909090909090909
 40
0.0909090909090909
 40
0.0909090909090909
 40
0.0909090909090909
 40
0.1363636363636364
 40
0.1363636363636364
 40
0.1363636363636364
 40
0.1363636363636364
 40
0.1818181818181818
 40
0.1818181818181818
 40
0.1818181818181818
 40
0.1818181818181818
 40
0.2272727272727273
 40
0.2272727272727273
 40
0.2272727272727273
 40
0.2272727272727273
 40
0.2727272727272728
 40
0.2727272727272728
 40
0.2727272727272728
 40
0.2727272727272728
 40
0.3181818181818182
 40
0.3181818181818182
 40
0.3181818181818182
 40
0.3181818181818182
 40
0.3636363636363637
 40
0.3636363636363637
 40
0.3636363636363637
 40
0.3636363636363637
 40
0.4090909090909092
 40
0.4090909090909092
 40
0.4090909090909092
 40
0.4090909090909092
 40
0.4545454545454546
 40
0.4545454545454546
 40
0.4545454545454546
 40
0.4545454545454546
 40
0.5000000000000001
 40
0.5000000000000001
 40
0.5000000000000001
 40
0.5000000000000001
 40
0.5454545454545455
 40
0.5454545454545455
 40
0.5454545454545455
 40
0.5454545454545455
 40
0.5909090909090909
 40
0.5909090909090909
 40
0.5909090909090909
 40
0.5909090909090909
 40
0.6363636363636364
 40
0.6363636363636364
 40
0.6363636363636364
 40
0.6363636363636364
 40
0.6818181818181818
 40
0.6818181818181818
 40
0.6818181818181818
 40
0.6818181818181818
 40
0.7272727272727272
 40
0.7272727272727272
 40
0.7272727272727272
 40
0.7272727272727272
 40
0.7727272727272726
 40
0.7727272727272726
 40
0.7727272727272726
 40
0.7727272727272726
 40
0.818181818181818
 40
0.818181818181818
 40
0.818181818181818
 40
0.818181818181818
 40
0.8636363636363634
 40
0.8636363636363634
 40
0.8636363636363634
 40
0.8636363636363634
 40
0.9090909090909088
 40
0.9090909090909088
 40
0.9090909090909088
 40
0.9090909090909088
 40
0.9545454545454543
 40
0.9545454545454543
 40
0.9545454545454543
 40
0.9545454545454543
 40
1.0
 40
1.0
 40
1.0
 40
1.0
 10
25.19003
 20
-34.69495
 30
0.0
 10
25.19003
 20
-34.69495
 30
0.0
 10
25.23157
 20
-34.69495
 30
0.0
 10
25.23157
 20
-34.69495
 30
0.0
 10
25.23157
 20
-34.69495
 30
0.0
 10
25.25877
 20
-34.64792
 30
0.0
 10
25.29799
 20
-34.60873
 30
0.0
 10
25.34501
 20
-34.58153
 30
0.0
 10
25.34501
 20
-34.58153
 30
0.0
 10
25.34501
 20
-34.58153
 30
0.0
 10
25.34501
 20
-34.53997
 30
0.0
 10
25.34501
 20
-34.53997
 30
0.0
 10
25.34501
 20
-34.53997
 30
0.0
 10
25.34501
 20
-34.53997
 30
0.0
 10
25.65498
 20
-34.53997
 30
0.0
 10
25.65498
 20
-34.53997
 30
0.0
 10
25.65498
 20
-34.53997
 30
0.0
 10
25.65498
 20
-34.53997
 30
0.0
 10
25.65498
 20
-34.5815
 30
0.0
 10
25.65498
 20
-34.5815
 30
0.0
 10
25.65498
 20
-34.5815
 30
0.0
 10
25.70203
 20
-34.6087
 30
0.0
 10
25.74128
 20
-34.64791
 30
0.0
 10
25.76851
 20
-34.69495
 30
0.0
 10
25.76851
 20
-34.69495
 30
0.0
 10
25.76851
 20
-34.69495
 30
0.0
 10
25.80997
 20
-34.69495
 30
0.0
 10
25.80997
 20
-34.69495
 30
0.0
 10
25.80997
 20
-34.69495
 30
0.0
 10
25.80997
 20
-34.69495
 30
0.0
 10
25.80997
 20
-34.84521
 30
0.0
 10
25.80997
 20
-34.84521
 30
0.0
 10
25.80997
 20
-34.84521
 30
0.0
 10
25.80997
 20
-34.84521
 30
0.0
 10
25.81003
 20
-34.85001
 30
0.0
 10
25.81003
 20
-34.85001
 30
0.0
 10
25.81003
 20
-34.85001
 30
0.0
 10
25.81003
 20
-34.85001
 30
0.0
 10
25.80997
 20
-34.85481
 30
0.0
 10
25.80997
 20
-34.85481
 30
0.0
 10
25.80997
 20
-34.85481
 30
0.0
 10
25.80997
 20
-34.85481
 30
0.0
 10
25.80997
 20
-35.00492
 30
0.0
 10
25.80997
 20
-35.00492
 30
0.0
 10
25.80997
 20
-35.00492
 30
0.0
 10
25.80997
 20
-35.00492
 30
0.0
 10
25.76857
 20
-35.00492
 30
0.0
 10
25.76857
 20
-35.00492
 30
0.0
 10
25.76857
 20
-35.00492
 30
0.0
 10
25.74134
 20
-35.05201
 30
0.0
 10
25.70208
 20
-35.09128
 30
0.0
 10
25.65498
 20
-35.11852
 30
0.0
 10
25.65498
 20
-35.11852
 30
0.0
 10
25.65498
 20
-35.11852
 30
0.0
 10
25.65498
 20
-35.15991
 30
0.0
 10
25.65498
 20
-35.15991
 30
0.0
 10
25.65498
 20
-35.15991
 30
0.0
 10
25.65498
 20
-35.15991
 30
0.0
 10
25.50694
 20
-35.15991
 30
0.0
 10
25.50694
 20
-35.15991
 30
0.0
 10
25.50694
 20
-35.15991
 30
0.0
 10
25.50694
 20
-35.15991
 30
0.0
 10
25.50005
 20
-35.15999
 30
0.0
 10
25.50005
 20
-35.15999
 30
0.0
 10
25.50005
 20
-35.15999
 30
0.0
 10
25.50005
 20
-35.15999
 30
0.0
 10
25.49315
 20
-35.15991
 30
0.0
 10
25.49315
 20
-35.15991
 30
0.0
 10
25.49315
 20
-35.15991
 30
0.0
 10
25.49315
 20
-35.15991
 30
0.0
 10
25.34501
 20
-35.15991
 30
0.0
 10
25.34501
 20
-35.15991
 30
0.0
 10
25.34501
 20
-35.15991
 30
0.0
 10
25.34501
 20
-35.15991
 30
0.0
 10
25.34501
 20
-35.11847
 30
0.0
 10
25.34501
 20
-35.11847
 30
0.0
 10
25.34501
 20
-35.11847
 30
0.0
 10
25.29796
 20
-35.09124
 30
0.0
 10
25.25872
 20
-35.05199
 30
0.0
 10
25.23151
 20
-35.00492
 30
0.0
 10
25.23151
 20
-35.00492
 30
0.0
 10
25.23151
 20
-35.00492
 30
0.0
 10
25.19003
 20
-35.00492
 30
0.0
 10
25.19003
 20
-35.00492
 30
0.0
 10
25.19003
 20
-35.00492
 30
0.0
 10
25.19003
 20
-35.00492
 30
0.0
 10
25.19003
 20
-34.69495
 30
0.0
 10
25.19003
 20
-34.69495
 30
0.0
  0
SPLINE
  5
63
330
1F
100
AcDbEntity
  8
Layer 1
370
    53
100
AcDbSpline
210
0.0
220
0.0
230
1.0
 70
    11
 71
     3
 72
    92
 73
    88
 74
     0
 42
0.0000000001
 43
0.0000000001
 40
0.0
 40
0.0
 40
0.0
 40
0.0
 40
0.0454545454545455
 40
0.0454545454545455
 40
0.0454545454545455
 40
0.0454545454545455
 40
0.0909090909090909
 40
0.0909090909090909
 40
0.0909090909090909
 40
0.0909090909090909
 40
0.1363636363636364
 40
0.1363636363636364
 40
0.1363636363636364
 40
0.1363636363636364
 40
0.1818181818181818
 40
0.1818181818181818
 40
0.1818181818181818
 40
0.1818181818181818
 40
0.2272727272727273
 40
0.2272727272727273
 40
0.2272727272727273
 40
0.2272727272727273
 40
0.2727272727272728
 40
0.2727272727272728
 40
0.2727272727272728
 40
0.2727272727272728
 40
0.3181818181818182
 40
0.3181818181818182
 40
0.3181818181818182
 40
0.3181818181818182
 40
0.3636363636363637
 40
0.3636363636363637
 40
0.3636363636363637
 40
0.3636363636363637
 40
0.4090909090909092
 40
0.4090909090909092
 40
0.4090909090909092
 40
0.4090909090909092
 40
0.4545454545454546
 40
0.4545454545454546
 40
0.4545454545454546
 40
0.4545454545454546
 40
0.5000000000000001
 40
0.5000000000000001
 40
0.5000000000000001
 40
0.5000000000000001
 40
0.5454545454545455
 40
0.5454545454545455
 40
0.5454545454545455
 40
0.5454545454545455
 40
0.5909090909090909
 40
0.5909090909090909
 40
0.5909090909090909
 40
0.5909090909090909
 40
0.6363636363636364
 40
0.6363636363636364
 40
0.6363636363636364
 40
0.6363636363636364
 40
0.6818181818181818
 40
0.6818181818181818
 40
0.6818181818181818
 40
0.6818181818181818
 40
0.7272727272727272
 40
0.7272727272727272
 40
0.7272727272727272
 40
0.7272727272727272
 40
0.7727272727272726
 40
0.7727272727272726
 40
0.7727272727272726
 40
0.7727272727272726
 40
0.818181818181818
 40
0.818181818181818
 40
0.818181818181818
 40
0.818181818181818
 40
0.8636363636363634
 40
0.8636363636363634
 40
0.8636363636363634
 40
0.8636363636363634
 40
0.9090909090909088
 40
0.9090909090909088
 40
0.9090909090909088
 40
0.9090909090909088
 40
0.9545454545454543
 40
0.9545454545454543
 40
0.9545454545454543
 40
0.9545454545454543
 40
1.0
 40
1.0
 40
1.0
 40
1.0
 10
21.19003
 20
-34.69495
 30
0.0
 10
21.19003
 20
-34.69495
 30
0.0
 10
21.23157
 20
-34.69495
 30
0.0
 10
21.23157
 20
-34.69495
 30
0.0
 10
21.23157
 20
-34.69495
 30
0.0
 10
21.25877
 20
-34.64792
 30
0.0
 10
21.29799
 20
-34.60873
 30
0.0
 10
21.34501
 20
-34.58153
 30
0.0
 10
21.34501
 20
-34.58153
 30
0.0
 10
21.34501
 20
-34.58153
 30
0.0
 10
21.34501
 20
-34.53997
 30
0.0
 10
21.34501
 20
-34.53997
 30
0.0
 10
21.34501
 20
-34.53997
 30
0.0
 10
21.34501
 20
-34.53997
 30
0.0
 10
21.65498
 20
-34.53997
 30
0.0
 10
21.65498
 20
-34.53997
 30
0.0
 10
21.65498
 20
-34.53997
 30
0.0
 10
21.65498
 20
-34.53997
 30
0.0
 10
21.65498
 20
-34.5815
 30
0.0
 10
21.65498
 20
-34.5815
 30
0.0
 10
21.65498
 20
-34.5815
 30
0.0
 10
21.70203
 20
-34.6087
 30
0.0
 10
21.74128
 20
-34.64791
 30
0.0
 10
21.76851
 20
-34.69495
 30
0.0
 10
21.76851
 20
-34.69495
 30
0.0
 10
21.76851
 20
-34.69495
 30
0.0
 10
21.80997
 20
-34.69495
 30
0.0
 10
21.80997
 20
-34.69495
 30
0.0
 10
21.80997
 20
-34.69495
 30
0.0
 10
21.80997
 20
-34.69495
 30
0.0
 10
21.80997
 20
-34.84521
 30
0.0
 10
21.80997
 20
-34.84521
 30
0.0
 10
21.80997
 20
-34.84521
 30
0.0
 10
21.80997
 20
-34.84521
 30
0.0
 10
21.81003
 20
-34.85001
 30
0.0
 10
21.81003
 20
-34.85001
 30
0.0
 10
21.81003
 20
-34.85001
 30
0.0
 10
21.81003
 20
-34.85001
 30
0.0
 10
21.80997
 20
-34.85481
 30
0.0
 10
21.80997
 20
-34.85481
 30
0.0
 10
21.80997
 20
-34.85481
 30
0.0
 10
21.80997
 20
-34.85481
 30
0.0
 10
21.80997
 20
-35.00492
 30
0.0
 10
21.80997
 20
-35.00492
 30
0.0
 10
21.80997
 20
-35.00492
 30
0.0
 10
21.80997
 20
-35.00492
 30
0.0
 10
21.76857
 20
-35.00492
 30
0.0
 10
21.76857
 20
-35.00492
 30
0.0
 10
21.76857
 20
-35.00492
 30
0.0
 10
21.74134
 20
-35.05201
 30
0.0
 10
21.70208
 20
-35.09128
 30
0.0
 10
21.65498
 20
-35.11852
 30
0.0
 10
21.65498
 20
-35.11852
 30
0.0
 10
21.65498
 20
-35.11852
 30
0.0
 10
21.65498
 20
-35.15991
 30
0.0
 10
21.65498
 20
-35.15991
 30
0.0
 10
21.65498
 20
-35.15991
 30
0.0
 10
21.65498
 20
-35.15991
 30
0.0
 10
21.50694
 20
-35.15991
 30
0.0
 10
21.50694
 20
-35.15991
 30
0.0
 10
21.50694
 20
-35.15991
 30
0.0
 10
21.50694
 20
-35.15991
 30
0.0
 10
21.50005
 20
-35.15999
 30
0.0
 10
21.50005
 20
-35.15999
 30
0.0
 10
21.50005
 20
-35.15999
 30
0.0
 10
21.50005
 20
-35.15999
 30
0.0
 10
21.49315
 20
-35.15991
 30
0.0
 10
21.49315
 20
-35.15991
 30
0.0
 10
21.49315
 20
-35.15991
 30
0.0
 10
21.49315
 20
-35.15991
 30
0.0
 10
21.34501
 20
-35.15991
 30
0.0
 10
21.34501
 20
-35.15991
 30
0.0
 10
21.34501
 20
-35.15991
 30
0.0
 10
21.34501
 20
-35.15991
 30
0.0
 10
21.34501
 20
-35.11847
 30
0.0
 10
21.34501
 20
-35.11847
 30
0.0
 10
21.34501
 20
-35.11847
 30
0.0
 10
21.29796
 20
-35.09124
 30
0.0
 10
21.25872
 20
-35.05199
 30
0.0
 10
21.23151
 20
-35.00492
 30
0.0
 10
21.23151
 20
-35.00492
 30
0.0
 10
21.23151
 20
-35.00492
 30
0.0
 10
21.19003
 20
-35.00492
 30
0.0
 10
21.19003
 20
-35.00492
 30
0.0
 10
21.19003
 20
-35.00492
 30
0.0
 10
21.19003
 20
-35.00492
 30
0.0
 10
21.19003
 20
-34.69495
 30
0.0
 10
21.19003
 20
-34.69495
 30
0.0
  0
SPLINE
  5
64
330
1F
100
AcDbEntity
  8
Layer 1
 62
   250
370
    53
100
AcDbSpline
210
0.0
220
0.0
230
1.0
 70
    11
 71
     3
 72
    36
 73
    32
 74
     0
 42
0.0000000001
 43
0.0000000001
 40
0.0
 40
0.0
 40
0.0
 40
0.0
 40
0.125
 40
0.125
 40
0.125
 40
0.125
 40
0.25
 40
0.25
 40
0.25
 40
0.25
 40
0.375
 40
0.375
 40
0.375
 40
0.375
 40
0.5
 40
0.5
 40
0.5
 40
0.5
 40
0.625
 40
0.625
 40
0.625
 40
0.625
 40
0.75
 40
0.75
 40
0.75
 40
0.75
 40
0.875
 40
0.875
 40
0.875
 40
0.875
 40
1.0
 40
1.0
 40
1.0
 40
1.0
 10
26.3
 20
-34.05
 30
0.0
 10
26.3
 20
-33.77391
 30
0.0
 10
26.07609
 20
-33.55
 30
0.0
 10
25.8
 20
-33.55
 30
0.0
 10
25.8
 20
-33.55
 30
0.0
 10
25.8
 20
-33.55
 30
0.0
 10
21.2
 20
-33.55
 30
0.0
 10
21.2
 20
-33.55
 30
0.0
 10
21.2
 20
-33.55
 30
0.0
 10
20.92391
 20
-33.55
 30
0.0
 10
20.7
 20
-33.77391
 30
0.0
 10
20.7
 20
-34.05
 30
0.0
 10
20.7
 20
-34.05
 30
0.0
 10
20.7
 20
-34.05
 30
0.0
 10
20.7
 20
-35.65
 30
0.0
 10
20.7
 20
-35.65
 30
0.0
 10
20.7
 20
-35.65
 30
0.0
 10
20.7
 20
-35.92609
 30
0.0
 10
20.92391
 20
-36.15
 30
0.0
 10
21.2
 20
-36.15
 30
0.0
 10
21.2
 20
-36.15
 30
0.0
 10
25.2666
 20
-36.15
 30
0.0
 10
23.91635
 20
-36.15
 30
0.0
 10
25.8
 20
-36.15
 30
0.0
 10
25.8
 20
-36.15
 30
0.0
 10
26.07609
 20
-36.15
 30
0.0
 10
26.3
 20
-35.92609
 30
0.0
 10
26.3
 20
-35.65
 30
0.0
 10
26.3
 20
-35.65
 30
0.0
 10
26.3
 20
-35.65
 30
0.0
 10
26.3
 20
-34.05
 30
0.0
 10
26.3
 20
-34.05
 30
0.0
  0
ELLIPSE
  5
65
330
1F
100
AcDbEntity
  8
Layer 1
370
    53
100
AcDbEllipse
 10
1.5
 20
-34.85
 30
0.0
 11
0.0
 21
0.845
 31
0.0
210
0.0
220
0.0
230
1.0
 40
1.0
 41
0.0
 42
6.283185307179586
  0
ELLIPSE
  5
66
330
1F
100
AcDbEntity
  8
Layer 1
370
    53
100
AcDbEllipse
 10
1.5
 20
-34.85
 30
0.0
 11
0.0
 21
0.355
 31
0.0
210
0.0
220
0.0
230
1.0
 40
1.0
 41
0.0
 42
6.283185307179586
  0
ELLIPSE
  5
67
330
1F
100
AcDbEntity
  8
Layer 1
370
    53
100
AcDbEllipse
 10
7.5
 20
-34.85
 30
0.0
 11
0.0
 21
1.1
 31
0.0
210
0.0
220
0.0
230
1.0
 40
1.0
 41
0.0
 42
6.283185307179586
  0
ELLIPSE
  5
68
330
1F
100
AcDbEntity
  8
Layer 1
370
    53
100
AcDbEllipse
 10
7.5
 20
-34.85
 30
0.0
 11
0.0
 21
0.355
 31
0.0
210
0.0
220
0.0
230
1.0
 40
1.0
 41
0.0
 42
6.283185307179586
  0
SPLINE
  5
69
330
1F
100
AcDbEntity
  8
Layer 1
370
    53
100
AcDbSpline
210
0.0
220
0.0
230
1.0
 70
    11
 71
     3
 72
    28
 73
    24
 74
     0
 42
0.0000000001
 43
0.0000000001
 40
0.0
 40
0.0
 40
0.0
 40
0.0
 40
0.1666666666666667
 40
0.1666666666666667
 40
0.1666666666666667
 40
0.1666666666666667
 40
0.3333333333333333
 40
0.3333333333333333
 40
0.3333333333333333
 40
0.3333333333333333
 40
0.5
 40
0.5
 40
0.5
 40
0.5
 40
0.6666666666666666
 40
0.6666666666666666
 40
0.6666666666666666
 40
0.6666666666666666
 40
0.8333333333333333
 40
0.8333333333333333
 40
0.8333333333333333
 40
0.8333333333333333
 40
1.0
 40
1.0
 40
1.0
 40
1.0
 10
-4.2
 20
-34.05989
 30
0.0
 10
-3.88147
 20
-34.18095
 30
0.0
 10
-3.655
 20
-34.48905
 30
0.0
 10
-3.655
 20
-34.85
 30
0.0
 10
-3.655
 20
-34.85
 30
0.0
 10
-3.655
 20
-35.21095
 30
0.0
 10
-3.88147
 20
-35.51905
 30
0.0
 10
-4.2
 20
-35.64011
 30
0.0
 10
-4.2
 20
-35.64011
 30
0.0
 10
-4.2
 20
-35.64011
 30
0.0
 10
-4.2
 20
-35.03984
 30
0.0
 10
-4.2
 20
-35.03984
 30
0.0
 10
-4.2
 20
-35.03984
 30
0.0
 10
-4.16518
 20
-34.98493
 30
0.0
 10
-4.145
 20
-34.91982
 30
0.0
 10
-4.145
 20
-34.85
 30
0.0
 10
-4.145
 20
-34.85
 30
0.0
 10
-4.145
 20
-34.78018
 30
0.0
 10
-4.16518
 20
-34.71507
 30
0.0
 10
-4.2
 20
-34.66016
 30
0.0
 10
-4.2
 20
-34.66016
 30
0.0
 10
-4.2
 20
-34.66016
 30
0.0
 10
-4.2
 20
-34.05989
 30
0.0
 10
-4.2
 20
-34.05989
 30
0.0
  0
SPLINE
  5
6A
330
1F
100
AcDbEntity
  8
Layer 1
370
    53
100
AcDbSpline
210
0.0
220
0.0
230
1.0
 70
    11
 71
     3
 72
    28
 73
    24
 74
     0
 42
0.0000000001
 43
0.0000000001
 40
0.0
 40
0.0
 40
0.0
 40
0.0
 40
0.1666666666666667
 40
0.1666666666666667
 40
0.1666666666666667
 40
0.1666666666666667
 40
0.3333333333333333
 40
0.3333333333333333
 40
0.3333333333333333
 40
0.3333333333333333
 40
0.5
 40
0.5
 40
0.5
 40
0.5
 40
0.6666666666666666
 40
0.6666666666666666
 40
0.6666666666666666
 40
0.6666666666666666
 40
0.8333333333333333
 40
0.8333333333333333
 40
0.8333333333333333
 40
0.8333333333333333
 40
1.0
 40
1.0
 40
1.0
 40
1.0
 10
-4.8
 20
-35.64011
 30
0.0
 10
-5.11853
 20
-35.51905
 30
0.0
 10
-5.345
 20
-35.21095
 30
0.0
 10
-5.345
 20
-34.85
 30
0.0
 10
-5.345
 20
-34.85
 30
0.0
 10
-5.345
 20
-34.48905
 30
0.0
 10
-5.11853
 20
-34.18095
 30
0.0
 10
-4.8
 20
-34.05989
 30
0.0
 10
-4.8
 20
-34.05989
 30
0.0
 10
-4.8
 20
-34.05989
 30
0.0
 10
-4.8
 20
-34.66016
 30
0.0
 10
-4.8
 20
-34.66016
 30
0.0
 10
-4.8
 20
-34.66016
 30
0.0
 10
-4.83482
 20
-34.71507
 30
0.0
 10
-4.855
 20
-34.78018
 30
0.0
 10
-4.855
 20
-34.85
 30
0.0
 10
-4.855
 20
-34.85
 30
0.0
 10
-4.855
 20
-34.91982
 30
0.0
 10
-4.83482
 20
-34.98493
 30
0.0
 10
-4.8
 20
-35.03984
 30
0.0
 10
-4.8
 20
-35.03984
 30
0.0
 10
-4.8
 20
-35.03984
 30
0.0
 10
-4.8
 20
-35.64011
 30
0.0
 10
-4.8
 20
-35.64011
 30
0.0
  0
SPLINE
  5
6B
330
1F
100
AcDbEntity
  8
Layer 1
370
    53
100
AcDbSpline
210
0.0
220
0.0
230
1.0
 70
    11
 71
     3
 72
    92
 73
    88
 74
     0
 42
0.0000000001
 43
0.0000000001
 40
0.0
 40
0.0
 40
0.0
 40
0.0
 40
0.0454545454545455
 40
0.0454545454545455
 40
0.0454545454545455
 40
0.0454545454545455
 40
0.0909090909090909
 40
0.0909090909090909
 40
0.0909090909090909
 40
0.0909090909090909
 40
0.1363636363636364
 40
0.1363636363636364
 40
0.1363636363636364
 40
0.1363636363636364
 40
0.1818181818181818
 40
0.1818181818181818
 40
0.1818181818181818
 40
0.1818181818181818
 40
0.2272727272727273
 40
0.2272727272727273
 40
0.2272727272727273
 40
0.2272727272727273
 40
0.2727272727272728
 40
0.2727272727272728
 40
0.2727272727272728
 40
0.2727272727272728
 40
0.3181818181818182
 40
0.3181818181818182
 40
0.3181818181818182
 40
0.3181818181818182
 40
0.3636363636363637
 40
0.3636363636363637
 40
0.3636363636363637
 40
0.3636363636363637
 40
0.4090909090909092
 40
0.4090909090909092
 40
0.4090909090909092
 40
0.4090909090909092
 40
0.4545454545454546
 40
0.4545454545454546
 40
0.4545454545454546
 40
0.4545454545454546
 40
0.5000000000000001
 40
0.5000000000000001
 40
0.5000000000000001
 40
0.5000000000000001
 40
0.5454545454545455
 40
0.5454545454545455
 40
0.5454545454545455
 40
0.5454545454545455
 40
0.5909090909090909
 40
0.5909090909090909
 40
0.5909090909090909
 40
0.5909090909090909
 40
0.6363636363636364
 40
0.6363636363636364
 40
0.6363636363636364
 40
0.6363636363636364
 40
0.6818181818181818
 40
0.6818181818181818
 40
0.6818181818181818
 40
0.6818181818181818
 40
0.7272727272727272
 40
0.7272727272727272
 40
0.7272727272727272
 40
0.7272727272727272
 40
0.7727272727272726
 40
0.7727272727272726
 40
0.7727272727272726
 40
0.7727272727272726
 40
0.818181818181818
 40
0.818181818181818
 40
0.818181818181818
 40
0.818181818181818
 40
0.8636363636363634
 40
0.8636363636363634
 40
0.8636363636363634
 40
0.8636363636363634
 40
0.9090909090909088
 40
0.9090909090909088
 40
0.9090909090909088
 40
0.9090909090909088
 40
0.9545454545454543
 40
0.9545454545454543
 40
0.9545454545454543
 40
0.9545454545454543
 40
1.0
 40
1.0
 40
1.0
 40
1.0
 10
23.19003
 20
-34.69495
 30
0.0
 10
23.19003
 20
-34.69495
 30
0.0
 10
23.23157
 20
-34.69495
 30
0.0
 10
23.23157
 20
-34.69495
 30
0.0
 10
23.23157
 20
-34.69495
 30
0.0
 10
23.25877
 20
-34.64792
 30
0.0
 10
23.29799
 20
-34.60873
 30
0.0
 10
23.34501
 20
-34.58153
 30
0.0
 10
23.34501
 20
-34.58153
 30
0.0
 10
23.34501
 20
-34.58153
 30
0.0
 10
23.34501
 20
-34.53997
 30
0.0
 10
23.34501
 20
-34.53997
 30
0.0
 10
23.34501
 20
-34.53997
 30
0.0
 10
23.34501
 20
-34.53997
 30
0.0
 10
23.65498
 20
-34.53997
 30
0.0
 10
23.65498
 20
-34.53997
 30
0.0
 10
23.65498
 20
-34.53997
 30
0.0
 10
23.65498
 20
-34.53997
 30
0.0
 10
23.65498
 20
-34.5815
 30
0.0
 10
23.65498
 20
-34.5815
 30
0.0
 10
23.65498
 20
-34.5815
 30
0.0
 10
23.70203
 20
-34.6087
 30
0.0
 10
23.74128
 20
-34.64791
 30
0.0
 10
23.76851
 20
-34.69495
 30
0.0
 10
23.76851
 20
-34.69495
 30
0.0
 10
23.76851
 20
-34.69495
 30
0.0
 10
23.80997
 20
-34.69495
 30
0.0
 10
23.80997
 20
-34.69495
 30
0.0
 10
23.80997
 20
-34.69495
 30
0.0
 10
23.80997
 20
-34.69495
 30
0.0
 10
23.80997
 20
-34.84521
 30
0.0
 10
23.80997
 20
-34.84521
 30
0.0
 10
23.80997
 20
-34.84521
 30
0.0
 10
23.80997
 20
-34.84521
 30
0.0
 10
23.81003
 20
-34.85001
 30
0.0
 10
23.81003
 20
-34.85001
 30
0.0
 10
23.81003
 20
-34.85001
 30
0.0
 10
23.81003
 20
-34.85001
 30
0.0
 10
23.80997
 20
-34.85481
 30
0.0
 10
23.80997
 20
-34.85481
 30
0.0
 10
23.80997
 20
-34.85481
 30
0.0
 10
23.80997
 20
-34.85481
 30
0.0
 10
23.80997
 20
-35.00492
 30
0.0
 10
23.80997
 20
-35.00492
 30
0.0
 10
23.80997
 20
-35.00492
 30
0.0
 10
23.80997
 20
-35.00492
 30
0.0
 10
23.76857
 20
-35.00492
 30
0.0
 10
23.76857
 20
-35.00492
 30
0.0
 10
23.76857
 20
-35.00492
 30
0.0
 10
23.74134
 20
-35.05201
 30
0.0
 10
23.70208
 20
-35.09128
 30
0.0
 10
23.65498
 20
-35.11852
 30
0.0
 10
23.65498
 20
-35.11852
 30
0.0
 10
23.65498
 20
-35.11852
 30
0.0
 10
23.65498
 20
-35.15991
 30
0.0
 10
23.65498
 20
-35.15991
 30
0.0
 10
23.65498
 20
-35.15991
 30
0.0
 10
23.65498
 20
-35.15991
 30
0.0
 10
23.50694
 20
-35.15991
 30
0.0
 10
23.50694
 20
-35.15991
 30
0.0
 10
23.50694
 20
-35.15991
 30
0.0
 10
23.50694
 20
-35.15991
 30
0.0
 10
23.50005
 20
-35.15999
 30
0.0
 10
23.50005
 20
-35.15999
 30
0.0
 10
23.50005
 20
-35.15999
 30
0.0
 10
23.50005
 20
-35.15999
 30
0.0
 10
23.49315
 20
-35.15991
 30
0.0
 10
23.49315
 20
-35.15991
 30
0.0
 10
23.49315
 20
-35.15991
 30
0.0
 10
23.49315
 20
-35.15991
 30
0.0
 10
23.34501
 20
-35.15991
 30
0.0
 10
23.34501
 20
-35.15991
 30
0.0
 10
23.34501
 20
-35.15991
 30
0.0
 10
23.34501
 20
-35.15991
 30
0.0
 10
23.34501
 20
-35.11847
 30
0.0
 10
23.34501
 20
-35.11847
 30
0.0
 10
23.34501
 20
-35.11847
 30
0.0
 10
23.29796
 20
-35.09124
 30
0.0
 10
23.25872
 20
-35.05199
 30
0.0
 10
23.23151
 20
-35.00492
 30
0.0
 10
23.23151
 20
-35.00492
 30
0.0
 10
23.23151
 20
-35.00492
 30
0.0
 10
23.19003
 20
-35.00492
 30
0.0
 10
23.19003
 20
-35.00492
 30
0.0
 10
23.19003
 20
-35.00492
 30
0.0
 10
23.19003
 20
-35.00492
 30
0.0
 10
23.19003
 20
-34.69495
 30
0.0
 10
23.19003
 20
-34.69495
 30
0.0
  0
LWPOLYLINE
  5
6C
330
1F
100
AcDbEntity
  8
Layer 1
 62
   250
370
    53
100
AcDbPolyline
 90
        5
 70
     1
 43
0.0
 10
22.19003
 20
-35.00998
 10
22.81003
 20
-35.00998
 10
22.81003
 20
-34.68998
 10
22.19003
 20
-34.68998
 10
22.19003
 20
-35.00998
  0
LWPOLYLINE
  5
6D
330
1F
100
AcDbEntity
  8
Layer 1
 62
   250
370
    53
100
AcDbPolyline
 90
        5
 70
     1
 43
0.0
 10
24.19003
 20
-35.00998
 10
24.81003
 20
-35.00998
 10
24.81003
 20
-34.68998
 10
24.19003
 20
-34.68998
 10
24.19003
 20
-35.00998
  0
ENDSEC
  0
SECTION
  2
OBJECTS
  0
DICTIONARY
  5
C
330
0
100
AcDbDictionary
281
     1
  3
ACAD_GROUP
350
D
  3
ACAD_LAYOUT
350
1A
  3
ACAD_MLEADERSTYLE
350
6F
  3
ACAD_MLINESTYLE
350
17
  3
ACAD_PLOTSETTINGS
350
19
  3
ACAD_PLOTSTYLENAME
350
E
  3
ACAD_SCALELIST
350
3B
  3
ACAD_TABLESTYLE
350
6E
  3
ACAD_VISUALSTYLE
350
2A
  0
DICTIONARY
  5
D
102
{ACAD_REACTORS
330
C
102
}
330
C
100
AcDbDictionary
281
     1
  0
DICTIONARY
  5
1A
102
{ACAD_REACTORS
330
C
102
}
330
C
100
AcDbDictionary
281
     1
  3
Layout1
350
1E
  3
Layout2
350
26
  3
Model
350
22
  0
DICTIONARY
  5
6F
102
{ACAD_REACTORS
330
C
102
}
330
C
100
AcDbDictionary
281
     1
  0
DICTIONARY
  5
17
102
{ACAD_REACTORS
330
C
102
}
330
C
100
AcDbDictionary
281
     1
  3
Standard
350
18
  0
DICTIONARY
  5
19
102
{ACAD_REACTORS
330
C
102
}
330
C
100
AcDbDictionary
281
     1
  0
ACDBDICTIONARYWDFLT
  5
E
102
{ACAD_REACTORS
330
C
102
}
330
C
100
AcDbDictionary
281
     1
  3
Normal
350
F
100
AcDbDictionaryWithDefault
340
F
  0
DICTIONARY
  5
3B
102
{ACAD_REACTORS
330
C
102
}
330
C
100
AcDbDictionary
281
     1
  3
A0
350
3C
  3
A1
350
3D
  3
A2
350
3E
  3
A3
350
3F
  3
A4
350
40
  3
A5
350
41
  3
A6
350
42
  3
A7
350
43
  3
A8
350
44
  3
A9
350
45
  3
B0
350
46
  3
B1
350
47
  3
B2
350
48
  3
B3
350
49
  3
B4
350
4A
  3
B5
350
4B
  3
B6
350
4C
  3
B7
350
4D
  3
B8
350
4E
  3
B9
350
4F
  3
C0
350
50
  3
C1
350
51
  3
C2
350
52
  3
C3
350
53
  3
C4
350
54
  3
C5
350
55
  3
C6
350
56
  3
C7
350
57
  3
C8
350
58
  3
C9
350
59
  3
D0
350
5A
  3
D1
350
5B
  3
D2
350
5C
  0
DICTIONARY
  5
6E
102
{ACAD_REACTORS
330
C
102
}
330
C
100
AcDbDictionary
281
     1
  0
DICTIONARY
  5
2A
102
{ACAD_REACTORS
330
C
102
}
330
C
100
AcDbDictionary
281
     1
  3
2dWireframe
350
2F
  3
3D Hidden
350
31
  3
3dWireframe
350
30
  3
Basic
350
32
  3
Brighten
350
36
  3
ColorChange
350
3A
  3
Conceptual
350
34
  3
Dim
350
35
  3
Facepattern
350
39
  3
Flat
350
2B
  3
FlatWithEdges
350
2C
  3
Gouraud
350
2D
  3
GouraudWithEdges
350
2E
  3
Linepattern
350
38
  3
Realistic
350
33
  3
Thicken
350
37
  0
LAYOUT
  5
1E
102
{ACAD_REACTORS
330
1A
102
}
330
1A
100
AcDbPlotSettings
  1

  2
none_device
  4

  6

 40
0.0
 41
0.0
 42
0.0
 43
0.0
 44
0.0
 45
0.0
 46
0.0
 47
0.0
 48
0.0
 49
0.0
140
0.0
141
0.0
142
1.0
143
1.0
 70
   688
 72
     0
 73
     0
 74
     5
  7

 75
    16
 76
     0
 77
     2
 78
   300
147
1.0
148
0.0
149
0.0
100
AcDbLayout
  1
Layout1
 70
     1
 71
     1
 10
0.0
 20
0.0
 11
12.0
 21
9.0
 12
0.0
 22
0.0
 32
0.0
 14
1.000000000000000E+20
 24
1.000000000000000E+20
 34
1.000000000000000E+20
 15
-1.000000000000000E+20
 25
-1.000000000000000E+20
 35
-1.000000000000000E+20
146
0.0
 13
0.0
 23
0.0
 33
0.0
 16
1.0
 26
0.0
 36
0.0
 17
0.0
 27
1.0
 37
0.0
 76
     0
330
1B
  0
LAYOUT
  5
26
102
{ACAD_REACTORS
330
1A
102
}
330
1A
100
AcDbPlotSettings
  1

  2
none_device
  4

  6

 40
0.0
 41
0.0
 42
0.0
 43
0.0
 44
0.0
 45
0.0
 46
0.0
 47
0.0
 48
0.0
 49
0.0
140
0.0
141
0.0
142
1.0
143
1.0
 70
   688
 72
     0
 73
     0
 74
     5
  7

 75
    16
 76
     0
 77
     2
 78
   300
147
1.0
148
0.0
149
0.0
100
AcDbLayout
  1
Layout2
 70
     1
 71
     2
 10
0.0
 20
0.0
 11
0.0
 21
0.0
 12
0.0
 22
0.0
 32
0.0
 14
0.0
 24
0.0
 34
0.0
 15
0.0
 25
0.0
 35
0.0
146
0.0
 13
0.0
 23
0.0
 33
0.0
 16
1.0
 26
0.0
 36
0.0
 17
0.0
 27
1.0
 37
0.0
 76
     0
330
23
  0
LAYOUT
  5
22
102
{ACAD_REACTORS
330
1A
102
}
330
1A
100
AcDbPlotSettings
  1

  2
none_device
  4

  6

 40
0.0
 41
0.0
 42
0.0
 43
0.0
 44
0.0
 45
0.0
 46
0.0
 47
0.0
 48
0.0
 49
0.0
140
0.0
141
0.0
142
1.0
143
1.0
 70
  1712
 72
     0
 73
     0
 74
     0
  7

 75
     0
 76
     0
 77
     2
 78
   300
147
1.0
148
0.0
149
0.0
100
AcDbLayout
  1
Model
 70
     1
 71
     0
 10
0.0
 20
0.0
 11
12.0
 21
9.0
 12
0.0
 22
0.0
 32
0.0
 14
-11.37146
 24
-36.17646
 34
0.0
 15
26.32646
 25
-33.52354
 35
0.0
146
0.0
 13
0.0
 23
0.0
 33
0.0
 16
1.0
 26
0.0
 36
0.0
 17
0.0
 27
1.0
 37
0.0
 76
     0
330
1F
331
29
  0
MLINESTYLE
  5
18
102
{ACAD_REACTORS
330
17
102
}
330
17
100
AcDbMlineStyle
  2
Standard
 70
     0
  3

 62
   256
 51
90.0
 52
90.0
 71
     2
 49
0.5
 62
   256
  6
BYLAYER
 49
-0.5
 62
   256
  6
BYLAYER
  0
ACDBPLACEHOLDER
  5
F
102
{ACAD_REACTORS
330
E
102
}
330
E
  0
SCALE
  5
3C
102
{ACAD_REACTORS
330
3B
102
}
330
3B
100
AcDbScale
 70
     0
300
1:1
140
1.0
141
1.0
290
     1
  0
SCALE
  5
3D
102
{ACAD_REACTORS
330
3B
102
}
330
3B
100
AcDbScale
 70
     0
300
1:2
140
1.0
141
2.0
290
     0
  0
SCALE
  5
3E
102
{ACAD_REACTORS
330
3B
102
}
330
3B
100
AcDbScale
 70
     0
300
1:4
140
1.0
141
4.0
290
     0
  0
SCALE
  5
3F
102
{ACAD_REACTORS
330
3B
102
}
330
3B
100
AcDbScale
 70
     0
300
1:5
140
1.0
141
5.0
290
     0
  0
SCALE
  5
40
102
{ACAD_REACTORS
330
3B
102
}
330
3B
100
AcDbScale
 70
     0
300
1:8
140
1.0
141
8.0
290
     0
  0
SCALE
  5
41
102
{ACAD_REACTORS
330
3B
102
}
330
3B
100
AcDbScale
 70
     0
300
1:10
140
1.0
141
10.0
290
     0
  0
SCALE
  5
42
102
{ACAD_REACTORS
330
3B
102
}
330
3B
100
AcDbScale
 70
     0
300
1:16
140
1.0
141
16.0
290
     0
  0
SCALE
  5
43
102
{ACAD_REACTORS
330
3B
102
}
330
3B
100
AcDbScale
 70
     0
300
1:20
140
1.0
141
20.0
290
     0
  0
SCALE
  5
44
102
{ACAD_REACTORS
330
3B
102
}
330
3B
100
AcDbScale
 70
     0
300
1:30
140
1.0
141
30.0
290
     0
  0
SCALE
  5
45
102
{ACAD_REACTORS
330
3B
102
}
330
3B
100
AcDbScale
 70
     0
300
1:40
140
1.0
141
40.0
290
     0
  0
SCALE
  5
46
102
{ACAD_REACTORS
330
3B
102
}
330
3B
100
AcDbScale
 70
     0
300
1:50
140
1.0
141
50.0
290
     0
  0
SCALE
  5
47
102
{ACAD_REACTORS
330
3B
102
}
330
3B
100
AcDbScale
 70
     0
300
1:100
140
1.0
141
100.0
290
     0
  0
SCALE
  5
48
102
{ACAD_REACTORS
330
3B
102
}
330
3B
100
AcDbScale
 70
     0
300
2:1
140
2.0
141
1.0
290
     0
  0
SCALE
  5
49
102
{ACAD_REACTORS
330
3B
102
}
330
3B
100
AcDbScale
 70
     0
300
4:1
140
4.0
141
1.0
290
     0
  0
SCALE
  5
4A
102
{ACAD_REACTORS
330
3B
102
}
330
3B
100
AcDbScale
 70
     0
300
8:1
140
8.0
141
1.0
290
     0
  0
SCALE
  5
4B
102
{ACAD_REACTORS
330
3B
102
}
330
3B
100
AcDbScale
 70
     0
300
10:1
140
10.0
141
1.0
290
     0
  0
SCALE
  5
4C
102
{ACAD_REACTORS
330
3B
102
}
330
3B
100
AcDbScale
 70
     0
300
100:1
140
100.0
141
1.0
290
     0
  0
SCALE
  5
4D
102
{ACAD_REACTORS
330
3B
102
}
330
3B
100
AcDbScale
 70
     0
300
1/128" = 1'-0"
140
0.0078125
141
12.0
290
     0
  0
SCALE
  5
4E
102
{ACAD_REACTORS
330
3B
102
}
330
3B
100
AcDbScale
 70
     0
300
1/64" = 1'-0"
140
0.015625
141
12.0
290
     0
  0
SCALE
  5
4F
102
{ACAD_REACTORS
330
3B
102
}
330
3B
100
AcDbScale
 70
     0
300
1/32" = 1'-0"
140
0.03125
141
12.0
290
     0
  0
SCALE
  5
50
102
{ACAD_REACTORS
330
3B
102
}
330
3B
100
AcDbScale
 70
     0
300
1/16" = 1'-0"
140
0.0625
141
12.0
290
     0
  0
SCALE
  5
51
102
{ACAD_REACTORS
330
3B
102
}
330
3B
100
AcDbScale
 70
     0
300
3/32" = 1'-0"
140
0.09375
141
12.0
290
     0
  0
SCALE
  5
52
102
{ACAD_REACTORS
330
3B
102
}
330
3B
100
AcDbScale
 70
     0
300
1/8" = 1'-0"
140
0.125
141
12.0
290
     0
  0
SCALE
  5
53
102
{ACAD_REACTORS
330
3B
102
}
330
3B
100
AcDbScale
 70
     0
300
3/16" = 1'-0"
140
0.1875
141
12.0
290
     0
  0
SCALE
  5
54
102
{ACAD_REACTORS
330
3B
102
}
330
3B
100
AcDbScale
 70
     0
300
1/4" = 1'-0"
140
0.25
141
12.0
290
     0
  0
SCALE
  5
55
102
{ACAD_REACTORS
330
3B
102
}
330
3B
100
AcDbScale
 70
     0
300
3/8" = 1'-0"
140
0.375
141
12.0
290
     0
  0
SCALE
  5
56
102
{ACAD_REACTORS
330
3B
102
}
330
3B
100
AcDbScale
 70
     0
300
1/2" = 1'-0"
140
0.5
141
12.0
290
     0
  0
SCALE
  5
57
102
{ACAD_REACTORS
330
3B
102
}
330
3B
100
AcDbScale
 70
     0
300
3/4" = 1'-0"
140
0.75
141
12.0
290
     0
  0
SCALE
  5
58
102
{ACAD_REACTORS
330
3B
102
}
330
3B
100
AcDbScale
 70
     0
300
1" = 1'-0"
140
1.0
141
12.0
290
     0
  0
SCALE
  5
59
102
{ACAD_REACTORS
330
3B
102
}
330
3B
100
AcDbScale
 70
     0
300
1-1/2" = 1'-0"
140
1.5
141
12.0
290
     0
  0
SCALE
  5
5A
102
{ACAD_REACTORS
330
3B
102
}
330
3B
100
AcDbScale
 70
     0
300
3" = 1'-0"
140
3.0
141
12.0
290
     0
  0
SCALE
  5
5B
102
{ACAD_REACTORS
330
3B
102
}
330
3B
100
AcDbScale
 70
     0
300
6" = 1'-0"
140
6.0
141
12.0
290
     0
  0
SCALE
  5
5C
102
{ACAD_REACTORS
330
3B
102
}
330
3B
100
AcDbScale
 70
     0
300
1'-0" = 1'-0"
140
12.0
141
12.0
290
     0
  0
VISUALSTYLE
  5
2F
102
{ACAD_REACTORS
330
2A
102
}
330
2A
100
AcDbVisualStyle
  2
2dWireframe
 70
     4
 71
     0
 72
     2
 73
     0
 90
        0
 40
-0.6
 41
-30.0
 62
     5
 63
     7
421
 16777215
 74
     1
 91
        4
 64
     7
 65
   257
 75
     1
175
     1
 42
1.0
 92
        0
 66
   257
 43
1.0
 76
     1
 77
     6
 78
     2
 67
     7
 79
     5
170
     0
171
     0
290
     0
174
     0
 93
        1
 44
0.0
173
     0
291
     0
 45
0.0
  0
VISUALSTYLE
  5
31
102
{ACAD_REACTORS
330
2A
102
}
330
2A
100
AcDbVisualStyle
  2
3D Hidden
 70
     6
 71
     1
 72
     2
 73
     2
 90
        0
 40
-0.6
 41
-30.0
 62
     5
 63
     7
421
 16777215
 74
     2
 91
        2
 64
     7
 65
   257
 75
     2
175
     1
 42
40.0
 92
        0
 66
   257
 43
1.0
 76
     1
 77
     6
 78
     2
 67
     7
 79
     3
170
     0
171
     0
290
     0
174
     0
 93
        1
 44
0.0
173
     0
291
     0
 45
0.0
  0
VISUALSTYLE
  5
30
102
{ACAD_REACTORS
330
2A
102
}
330
2A
100
AcDbVisualStyle
  2
3dWireframe
 70
     5
 71
     0
 72
     2
 73
     0
 90
        0
 40
-0.6
 41
-30.0
 62
     5
 63
     7
421
 16777215
 74
     1
 91
        4
 64
     7
 65
   257
 75
     1
175
     1
 42
1.0
 92
        0
 66
   257
 43
1.0
 76
     1
 77
     6
 78
     2
 67
     7
 79
     5
170
     0
171
     0
290
     0
174
     0
 93
        1
 44
0.0
173
     0
291
     0
 45
0.0
  0
VISUALSTYLE
  5
32
102
{ACAD_REACTORS
330
2A
102
}
330
2A
100
AcDbVisualStyle
  2
Basic
 70
     7
 71
     1
 72
     0
 73
     1
 90
        0
 40
-0.6
 41
-30.0
 62
     5
 63
     7
421
 16777215
 74
     0
 91
        4
 64
     7
 65
   257
 75
     1
175
     1
 42
1.0
 92
        8
 66
     7
 43
1.0
 76
     1
 77
     6
 78
     2
 67
     7
 79
     5
170
     0
171
     0
290
     0
174
     0
 93
        1
 44
0.0
173
     0
291
     1
 45
0.0
  0
VISUALSTYLE
  5
36
102
{ACAD_REACTORS
330
2A
102
}
330
2A
100
AcDbVisualStyle
  2
Brighten
 70
    12
 71
     2
 72
     2
 73
     0
 90
        0
 40
-0.6
 41
-30.0
 62
     5
 63
     7
421
 16777215
 74
     1
 91
        4
 64
     7
 65
   257
 75
     1
175
     1
 42
1.0
 92
        8
 66
     7
 43
1.0
 76
     1
 77
     6
 78
     2
 67
     7
 79
     5
170
     0
171
     0
290
     0
174
     0
 93
        1
 44
50.0
173
     0
291
     1
 45
0.0
  0
VISUALSTYLE
  5
3A
102
{ACAD_REACTORS
330
2A
102
}
330
2A
100
AcDbVisualStyle
  2
ColorChange
 70
    16
 71
     2
 72
     2
 73
     3
 90
        0
 40
-0.6
 41
-30.0
 62
     5
 63
     8
421
  8421504
 74
     1
 91
        4
 64
     7
 65
   257
 75
     1
175
     1
 42
1.0
 92
        8
 66
     8
424
  8421504
 43
1.0
 76
     1
 77
     6
 78
     2
 67
     7
 79
     5
170
     0
171
     0
290
     0
174
     0
 93
        1
 44
0.0
173
     0
291
     1
 45
0.0
  0
VISUALSTYLE
  5
34
102
{ACAD_REACTORS
330
2A
102
}
330
2A
100
AcDbVisualStyle
  2
Conceptual
 70
     9
 71
     3
 72
     2
 73
     0
 90
        0
 40
-0.6
 41
-30.0
 62
     5
 63
     7
421
 16777215
 74
     2
 91
        2
 64
     7
 65
   257
 75
     1
175
     1
 42
40.0
 92
        8
 66
     7
 43
1.0
 76
     1
 77
     6
 78
     2
 67
     7
 79
     3
170
     0
171
     0
290
     0
174
     0
 93
        1
 44
0.0
173
     0
291
     0
 45
0.0
  0
VISUALSTYLE
  5
35
102
{ACAD_REACTORS
330
2A
102
}
330
2A
100
AcDbVisualStyle
  2
Dim
 70
    11
 71
     2
 72
     2
 73
     0
 90
        0
 40
-0.6
 41
-30.0
 62
     5
 63
     7
421
 16777215
 74
     1
 91
        4
 64
     7
 65
   257
 75
     1
175
     1
 42
1.0
 92
        8
 66
     7
 43
1.0
 76
     1
 77
     6
 78
     2
 67
     7
 79
     5
170
     0
171
     0
290
     0
174
     0
 93
        1
 44
-50.0
173
     0
291
     1
 45
0.0
  0
VISUALSTYLE
  5
39
102
{ACAD_REACTORS
330
2A
102
}
330
2A
100
AcDbVisualStyle
  2
Facepattern
 70
    15
 71
     2
 72
     2
 73
     0
 90
        0
 40
-0.6
 41
-30.0
 62
     5
 63
     7
421
 16777215
 74
     1
 91
        4
 64
     7
 65
   257
 75
     1
175
     1
 42
1.0
 92
        8
 66
     7
 43
1.0
 76
     1
 77
     6
 78
     2
 67
     7
 79
     5
170
     0
171
     0
290
     0
174
     0
 93
        1
 44
0.0
173
     0
291
     1
 45
0.0
  0
VISUALSTYLE
  5
2B
102
{ACAD_REACTORS
330
2A
102
}
330
2A
100
AcDbVisualStyle
  2
Flat
 70
     0
 71
     2
 72
     1
 73
     1
 90
        2
 40
-0.6
 41
30.0
 62
     5
 63
     7
421
 16777215
 74
     0
 91
        4
 64
     7
 65
   257
 75
     1
175
     1
 42
1.0
 92
        8
 66
     7
 43
1.0
 76
     1
 77
     6
 78
     2
 67
     7
 79
     5
170
     0
171
     0
290
     0
174
     0
 93
       13
 44
0.0
173
     0
291
     1
 45
0.0
  0
VISUALSTYLE
  5
2C
102
{ACAD_REACTORS
330
2A
102
}
330
2A
100
AcDbVisualStyle
  2
FlatWithEdges
 70
     1
 71
     2
 72
     1
 73
     1
 90
        2
 40
-0.6
 41
30.0
 62
     5
 63
     7
421
 16777215
 74
     1
 91
        4
 64
     7
 65
   257
 75
     1
175
     1
 42
1.0
 92
        0
 66
   257
 43
1.0
 76
     1
 77
     6
 78
     2
 67
     7
 79
     5
170
     0
171
     0
290
     0
174
     0
 93
       13
 44
0.0
173
     0
291
     1
 45
0.0
  0
VISUALSTYLE
  5
2D
102
{ACAD_REACTORS
330
2A
102
}
330
2A
100
AcDbVisualStyle
  2
Gouraud
 70
     2
 71
     2
 72
     2
 73
     1
 90
        2
 40
-0.6
 41
30.0
 62
     5
 63
     7
421
 16777215
 74
     0
 91
        4
 64
     7
 65
   257
 75
     1
175
     1
 42
1.0
 92
        0
 66
     7
 43
1.0
 76
     1
 77
     6
 78
     2
 67
     7
 79
     5
170
     0
171
     0
290
     0
174
     0
 93
       13
 44
0.0
173
     0
291
     1
 45
0.0
  0
VISUALSTYLE
  5
2E
102
{ACAD_REACTORS
330
2A
102
}
330
2A
100
AcDbVisualStyle
  2
GouraudWithEdges
 70
     3
 71
     2
 72
     2
 73
     1
 90
        2
 40
-0.6
 41
30.0
 62
     5
 63
     7
421
 16777215
 74
     1
 91
        4
 64
     7
 65
   257
 75
     1
175
     1
 42
1.0
 92
        0
 66
   257
 43
1.0
 76
     1
 77
     6
 78
     2
 67
     7
 79
     5
170
     0
171
     0
290
     0
174
     0
 93
       13
 44
0.0
173
     0
291
     1
 45
0.0
  0
VISUALSTYLE
  5
38
102
{ACAD_REACTORS
330
2A
102
}
330
2A
100
AcDbVisualStyle
  2
Linepattern
 70
    14
 71
     2
 72
     2
 73
     0
 90
        0
 40
-0.6
 41
-30.0
 62
     5
 63
     7
421
 16777215
 74
     1
 91
        4
 64
     7
 65
   257
 75
     7
175
     7
 42
1.0
 92
        8
 66
     7
 43
1.0
 76
     1
 77
     6
 78
     2
 67
     7
 79
     5
170
     0
171
     0
290
     0
174
     0
 93
        1
 44
0.0
173
     0
291
     1
 45
0.0
  0
VISUALSTYLE
  5
33
102
{ACAD_REACTORS
330
2A
102
}
330
2A
100
AcDbVisualStyle
  2
Realistic
 70
     8
 71
     2
 72
     2
 73
     0
 90
        0
 40
-0.6
 41
-30.0
 62
     5
 63
     7
421
 16777215
 74
     1
 91
        0
 64
     7
 65
   257
 75
     1
175
     1
 42
1.0
 92
        8
 66
     8
424
  7895160
 43
1.0
 76
     1
 77
     6
 78
     2
 67
     7
 79
     5
170
     0
171
     0
290
     0
174
     0
 93
       13
 44
0.0
173
     0
291
     0
 45
0.0
  0
VISUALSTYLE
  5
37
102
{ACAD_REACTORS
330
2A
102
}
330
2A
100
AcDbVisualStyle
  2
Thicken
 70
    13
 71
     2
 72
     2
 73
     0
 90
        0
 40
-0.6
 41
-30.0
 62
     5
 63
     7
421
 16777215
 74
     1
 91
        4
 64
     7
 65
   257
 75
     1
175
     1
 42
1.0
 92
       12
 66
     7
 43
1.0
 76
     1
 77
     6
 78
     2
 67
     7
 79
     5
170
     0
171
     0
290
     0
174
     0
 93
        1
 44
0.0
173
     0
291
     1
 45
0.0
  0
ENDSEC
  0
EOF
