<?xml version="1.0" encoding="UTF-8"?>
<!DOCTYPE svg PUBLIC "-//W3C//DTD SVG 1.1//EN" "http://www.w3.org/Graphics/SVG/1.1/DTD/svg11.dtd">
<!-- Creator: CorelDRAW -->
<svg xmlns="http://www.w3.org/2000/svg" xml:space="preserve" width="210mm" height="297mm" style="shape-rendering:geometricPrecision; text-rendering:geometricPrecision; image-rendering:optimizeQuality; fill-rule:evenodd; clip-rule:evenodd"
viewBox="0 0 210 297"
 xmlns:xlink="http://www.w3.org/1999/xlink">
 <defs>
  <style type="text/css">
   <![CDATA[
    .str1 {stroke:orange;stroke-width:0.2822}
    .str0 {stroke:black;stroke-width:0.5644}
    .fil0 {fill:none;fill-rule:nonzero}
   ]]>
  </style>
 </defs>
 <g id="Layer_x0020_1">
  <metadata id="CorelCorpID_0Corel-Layer"/>
  <g id="OOBB-PL-05-02.pdf">
   <path id="_33083392" class="fil0 str0" d="M63.5005 132l82.9991 0c2.77,0 5.001,2.231 5.001,5.001l0 22.9993c0,2.7701 -2.231,4.9996 -5.001,4.9996l-82.9991 0c-2.77,0 -5.001,-2.2295 -5.001,-4.9996l0 -22.9993c0,-2.77 2.231,-5.001 5.001,-5.001zm0 0z"/>
   <path id="_33083416" class="fil0 str0" d="M67.9998 158.501c0,1.6563 -1.3423,3.0001 -3,3.0001 -1.6566,0 -3,-1.3438 -3,-3.0001 0,-1.6577 1.3434,-3 3,-3 1.6577,0 3,1.3423 3,3zm0 0z"/>
   <path id="_33080776" class="fil0 str0" d="M67.9998 138.5c0,1.6577 -1.3423,3 -3,3 -1.6566,0 -3,-1.3423 -3,-3 0,-1.6566 1.3434,-3 3,-3 1.6577,0 3,1.3434 3,3zm0 0z"/>
   <path id="_33084712" class="fil0 str0" d="M88.0006 158.501c0,1.6563 -1.3438,3.0001 -3.0001,3.0001 -1.6577,0 -3,-1.3438 -3,-3.0001 0,-1.6577 1.3423,-3 3,-3 1.6563,0 3.0001,1.3423 3.0001,3zm0 0z"/>
   <path id="_33084664" class="fil0 str0" d="M88.0006 138.5c0,1.6577 -1.3438,3 -3.0001,3 -1.6577,0 -3,-1.3423 -3,-3 0,-1.6566 1.3423,-3 3,-3 1.6563,0 3.0001,1.3434 3.0001,3zm0 0z"/>
   <path id="_33084160" class="fil0 str0" d="M108 158.501c0,1.6563 -1.3434,3.0001 -3,3.0001 -1.6563,0 -3.0001,-1.3438 -3.0001,-3.0001 0,-1.6577 1.3438,-3 3.0001,-3 1.6566,0 3,1.3423 3,3zm0 0z"/>
   <path id="_33082264" class="fil0 str0" d="M108 138.5c0,1.6577 -1.3434,3 -3,3 -1.6563,0 -3.0001,-1.3423 -3.0001,-3 0,-1.6566 1.3438,-3 3.0001,-3 1.6566,0 3,1.3434 3,3zm0 0z"/>
   <path id="_33084376" class="fil0 str0" d="M128 158.501c0,1.6563 -1.3424,3.0001 -3.0001,3.0001 -1.6566,0 -3,-1.3438 -3,-3.0001 0,-1.6577 1.3434,-3 3,-3 1.6577,0 3.0001,1.3423 3.0001,3zm0 0z"/>
   <path id="_33080728" class="fil0 str0" d="M128 138.5c0,1.6577 -1.3424,3 -3.0001,3 -1.6566,0 -3,-1.3423 -3,-3 0,-1.6566 1.3434,-3 3,-3 1.6577,0 3.0001,1.3434 3.0001,3zm0 0z"/>
   <path id="_33083824" class="fil0 str0" d="M148 158.501c0,1.6563 -1.3437,3.0001 -3,3.0001 -1.6577,0 -3,-1.3438 -3,-3.0001 0,-1.6577 1.3423,-3 3,-3 1.6563,0 3,1.3423 3,3zm0 0z"/>
   <path id="_33082072" class="fil0 str0" d="M148 138.5c0,1.6577 -1.3437,3 -3,3 -1.6577,0 -3,-1.3423 -3,-3 0,-1.6566 1.3423,-3 3,-3 1.6563,0 3,1.3434 3,3zm0 0z"/>
   <polygon id="_33081520" class="fil0 str0" points="63.5005,145.5 66.5005,145.5 66.5005,151.5 63.5005,151.5 "/>
   <polygon id="_33082120" class="fil0 str0" points="83.4998,145.5 86.4998,145.5 86.4998,151.5 83.4998,151.5 "/>
   <polygon id="_33083464" class="fil0 str0" points="103.499,145.5 106.499,145.5 106.499,151.5 103.499,151.5 "/>
   <polygon id="_33084568" class="fil0 str0" points="123.5,145.5 126.5,145.5 126.5,151.5 123.5,151.5 "/>
   <polygon id="_33082240" class="fil0 str0" points="143.5,145.5 146.5,145.5 146.5,151.5 143.5,151.5 "/>
   <polygon id="_33084256" class="fil0 str0" points="72,157 78,157 78,160 72,160 "/>
   <polygon id="_33082096" class="fil0 str0" points="72,137.001 78,137.001 78,140.001 72,140.001 "/>
   <polygon id="_33084760" class="fil0 str0" points="91.9996,157 97.9997,157 97.9997,160 91.9996,160 "/>
   <polygon id="_33083248" class="fil0 str0" points="91.9996,137.001 97.9997,137.001 97.9997,140.001 91.9996,140.001 "/>
   <polygon id="_33084448" class="fil0 str0" points="112,157 118,157 118,160 112,160 "/>
   <polygon id="_33082528" class="fil0 str0" points="112,137.001 118,137.001 118,140.001 112,140.001 "/>
   <polygon id="_33082288" class="fil0 str0" points="132,157 138,157 138,160 132,160 "/>
   <polygon id="_33081856" class="fil0 str0" points="132,137.001 138,137.001 138,140.001 132,140.001 "/>
   <path id="_33082912" class="fil0 str1" d="M72.5542 148.5l0 -3.0522 0.9729 0c0.2562,0.0028 0.4562,0.0398 0.598,0.1114 0.139,0.0731 0.2371,0.1683 0.2935,0.2868 0.055,0.1186 0.0854,0.2466 0.091,0.3846 0.0067,0.1404 -0.0165,0.2741 -0.0716,0.4007 -0.0554,0.127 -0.1503,0.2318 -0.2826,0.3129 -0.1351,0.0815 -0.3171,0.1228 -0.5485,0.1256l-1.0527 0 1.0527 0c0.2275,-0.0028 0.4078,-0.0441 0.5429,-0.1256 0.1337,-0.0811 0.2289,-0.1859 0.2854,-0.3129 0.055,-0.1266 0.0797,-0.2603 0.0744,-0.4007 -0.0056,-0.138 -0.036,-0.266 -0.0924,-0.3846 -0.0579,-0.1185 -0.157,-0.2137 -0.2963,-0.2868 -0.1418,-0.0716 -0.3405,-0.1086 -0.5938,-0.1114l-0.9729 0 0 3.0522zm5.2461 0l-1.7818 0 0 -3.0522 0 3.0522 1.7818 0zm0 0z"/>
   <path id="_33081952" class="fil0 str1" d="M69.6163 152.734c0.2451,-0.0024 0.4353,-0.0716 0.5704,-0.2067 0.1337,-0.1348 0.2272,-0.3168 0.2797,-0.5468 0.0508,-0.229 0.0759,-0.4851 0.0731,-0.7705 0.0028,-0.2811 -0.0223,-0.5373 -0.0731,-0.7676 -0.0525,-0.2272 -0.146,-0.4092 -0.2797,-0.5472 -0.1351,-0.1347 -0.3253,-0.2053 -0.5704,-0.2092 -0.247,0.0039 -0.4371,0.0745 -0.5708,0.2092 -0.1348,0.138 -0.2272,0.32 -0.2784,0.5472 -0.0522,0.2303 -0.0769,0.4865 -0.073,0.7676 -0.0039,0.2854 0.0208,0.5415 0.073,0.7705 0.0512,0.23 0.1436,0.412 0.2784,0.5468 0.1337,0.1351 0.3238,0.2043 0.5708,0.2067zm0 0c0.2451,-0.0024 0.4353,-0.0716 0.5704,-0.2067 0.1337,-0.1348 0.2272,-0.3168 0.2797,-0.5468 0.0508,-0.229 0.0759,-0.4851 0.0731,-0.7705 0.0028,-0.2811 -0.0223,-0.5373 -0.0731,-0.7676 -0.0525,-0.2272 -0.146,-0.4092 -0.2797,-0.5472 -0.1351,-0.1347 -0.3253,-0.2053 -0.5704,-0.2092 -0.247,0.0039 -0.4371,0.0745 -0.5708,0.2092 -0.1348,0.138 -0.2272,0.32 -0.2784,0.5472 -0.0522,0.2303 -0.0769,0.4865 -0.073,0.7676 -0.0039,0.2854 0.0208,0.5415 0.073,0.7705 0.0512,0.23 0.1436,0.412 0.2784,0.5468 0.1337,0.1351 0.3238,0.2043 0.5708,0.2067zm3.6448 -3.0522l-1.2707 0 -0.3376 1.5159c0.0773,-0.0663 0.1517,-0.1256 0.2248,-0.175 0.0702,-0.0483 0.1513,-0.0854 0.2437,-0.1118 0.091,-0.0247 0.2053,-0.0371 0.3433,-0.0399 0.1418,0.0014 0.2811,0.0332 0.4173,0.0967 0.1351,0.0645 0.2484,0.1612 0.3376,0.2892 0.0882,0.1309 0.1351,0.295 0.1394,0.4904 0,0.0692 -0.0124,0.1573 -0.0346,0.266 -0.0247,0.109 -0.0688,0.2191 -0.1323,0.3309 -0.0646,0.1129 -0.1556,0.2081 -0.2741,0.284 -0.1199,0.0769 -0.2741,0.1157 -0.4618,0.1182 -0.2508,-0.0039 -0.4381,-0.0441 -0.562,-0.121 -0.127,-0.0773 -0.2123,-0.1697 -0.2578,-0.2759 -0.0484,-0.1044 -0.0784,-0.1997 -0.0896,-0.2879 0.0112,0.0882 0.0412,0.1835 0.0896,0.2879 0.0455,0.1062 0.1308,0.1986 0.2578,0.2759 0.1239,0.0769 0.3112,0.1171 0.562,0.121 0.1877,-0.0025 0.3419,-0.0413 0.4618,-0.1182 0.1185,-0.0759 0.2095,-0.1711 0.2741,-0.284 0.0635,-0.1118 0.1076,-0.2219 0.1323,-0.3309 0.0222,-0.1087 0.0346,-0.1968 0.0346,-0.266 -0.0043,-0.1954 -0.0512,-0.3595 -0.1394,-0.4904 -0.0892,-0.128 -0.2025,-0.2247 -0.3376,-0.2892 -0.1362,-0.0635 -0.2755,-0.0953 -0.4173,-0.0967 -0.138,0.0028 -0.2523,0.0152 -0.3433,0.0399 -0.0924,0.0264 -0.1735,0.0635 -0.2437,0.1118 -0.0731,0.0494 -0.1475,0.1087 -0.2248,0.175l0.3376 -1.5159 1.2707 0zm1.0968 1.4566l1.2319 0 -1.2319 0zm3.1214 1.5956c0.2452,-0.0024 0.4353,-0.0716 0.5705,-0.2067 0.1337,-0.1348 0.2271,-0.3168 0.2797,-0.5468 0.0508,-0.229 0.0759,-0.4851 0.073,-0.7705 0.0029,-0.2811 -0.0222,-0.5373 -0.073,-0.7676 -0.0526,-0.2272 -0.146,-0.4092 -0.2797,-0.5472 -0.1352,-0.1347 -0.3253,-0.2053 -0.5705,-0.2092 -0.2469,0.0039 -0.4371,0.0745 -0.5708,0.2092 -0.1347,0.138 -0.2272,0.32 -0.2783,0.5472 -0.0522,0.2303 -0.0769,0.4865 -0.073,0.7676 -0.0039,0.2854 0.0208,0.5415 0.073,0.7705 0.0511,0.23 0.1436,0.412 0.2783,0.5468 0.1337,0.1351 0.3239,0.2043 0.5708,0.2067zm0 0c0.2452,-0.0024 0.4353,-0.0716 0.5705,-0.2067 0.1337,-0.1348 0.2271,-0.3168 0.2797,-0.5468 0.0508,-0.229 0.0759,-0.4851 0.073,-0.7705 0.0029,-0.2811 -0.0222,-0.5373 -0.073,-0.7676 -0.0526,-0.2272 -0.146,-0.4092 -0.2797,-0.5472 -0.1352,-0.1347 -0.3253,-0.2053 -0.5705,-0.2092 -0.2469,0.0039 -0.4371,0.0745 -0.5708,0.2092 -0.1347,0.138 -0.2272,0.32 -0.2783,0.5472 -0.0522,0.2303 -0.0769,0.4865 -0.073,0.7676 -0.0039,0.2854 0.0208,0.5415 0.073,0.7705 0.0511,0.23 0.1436,0.412 0.2783,0.5468 0.1337,0.1351 0.3239,0.2043 0.5708,0.2067zm3.7469 0l-1.8165 0c0.0057,-0.2025 0.0427,-0.3665 0.1104,-0.4946 0.066,-0.1266 0.1517,-0.2328 0.2562,-0.3182 0.1033,-0.0829 0.2166,-0.164 0.3404,-0.2413l0.7235 -0.4822c0.1433,-0.1048 0.23,-0.2276 0.2604,-0.3651 0.0289,-0.138 0.0413,-0.2784 0.036,-0.4234 0.0014,-0.0977 -0.0223,-0.2053 -0.0688,-0.3224 -0.0484,-0.1143 -0.1284,-0.2134 -0.2413,-0.2988 -0.1143,-0.0829 -0.2703,-0.127 -0.4685,-0.1309 -0.2011,0.0039 -0.3637,0.048 -0.4851,0.1323 -0.1228,0.0854 -0.211,0.194 -0.2646,0.3253 -0.055,0.1333 -0.0815,0.2712 -0.0801,0.4131 -0.0014,-0.1419 0.0251,-0.2798 0.0801,-0.4131 0.0536,-0.1313 0.1418,-0.2399 0.2646,-0.3253 0.1214,-0.0843 0.284,-0.1284 0.4851,-0.1323 0.1982,0.0039 0.3542,0.048 0.4685,0.1309 0.1129,0.0854 0.1929,0.1845 0.2413,0.2988 0.0465,0.1171 0.0702,0.2247 0.0688,0.3224 0.0053,0.145 -0.0071,0.2854 -0.036,0.4234 -0.0304,0.1375 -0.1171,0.2603 -0.2604,0.3651l-0.7235 0.4822c-0.1238,0.0773 -0.2371,0.1584 -0.3404,0.2413 -0.1045,0.0854 -0.1902,0.1916 -0.2562,0.3182 -0.0677,0.1281 -0.1047,0.2921 -0.1104,0.4946l1.8165 0zm0 0z"/>
  </g>
 </g>
</svg>
