  0
SECTION
  2
HEADER
  9
$ACADVER
  1
AC1021
  9
$ACADMAINTVER
 70
    25
  9
$DWGCODEPAGE
  3
ANSI_1252
  9
$INSBASE
 10
0.0
 20
0.0
 30
0.0
  9
$EXTMIN
 10
-13.17646
 20
-16.52646
 30
0.0
  9
$EXTMAX
 10
-7.82354
 20
-13.17354
 30
0.0
  9
$LIMMIN
 10
0.0
 20
0.0
  9
$LIMMAX
 10
12.0
 20
9.0
  9
$ORTHOMODE
 70
     0
  9
$REGENMODE
 70
     1
  9
$FILLMODE
 70
     1
  9
$QTEXTMODE
 70
     0
  9
$MIRRTEXT
 70
     1
  9
$LTSCALE
 40
1.0
  9
$ATTMODE
 70
     1
  9
$TEXTSIZE
 40
0.2
  9
$TRACEWID
 40
0.05
  9
$TEXTSTYLE
  7
Standard
  9
$CLAYER
  8
0
  9
$CELTYPE
  6
ByLayer
  9
$CECOLOR
 62
   256
  9
$CELTSCALE
 40
1.0
  9
$DISPSILH
 70
     0
  9
$DIMSCALE
 40
1.0
  9
$DIMASZ
 40
0.18
  9
$DIMEXO
 40
0.0625
  9
$DIMDLI
 40
0.38
  9
$DIMRND
 40
0.0
  9
$DIMDLE
 40
0.0
  9
$DIMEXE
 40
0.18
  9
$DIMTP
 40
0.0
  9
$DIMTM
 40
0.0
  9
$DIMTXT
 40
0.18
  9
$DIMCEN
 40
0.09
  9
$DIMTSZ
 40
0.0
  9
$DIMTOL
 70
     0
  9
$DIMLIM
 70
     0
  9
$DIMTIH
 70
     1
  9
$DIMTOH
 70
     1
  9
$DIMSE1
 70
     0
  9
$DIMSE2
 70
     0
  9
$DIMTAD
 70
     0
  9
$DIMZIN
 70
     0
  9
$DIMBLK
  1

  9
$DIMASO
 70
     1
  9
$DIMSHO
 70
     1
  9
$DIMPOST
  1

  9
$DIMAPOST
  1

  9
$DIMALT
 70
     0
  9
$DIMALTD
 70
     2
  9
$DIMALTF
 40
25.4
  9
$DIMLFAC
 40
1.0
  9
$DIMTOFL
 70
     0
  9
$DIMTVP
 40
0.0
  9
$DIMTIX
 70
     0
  9
$DIMSOXD
 70
     0
  9
$DIMSAH
 70
     0
  9
$DIMBLK1
  1

  9
$DIMBLK2
  1

  9
$DIMSTYLE
  2
Standard
  9
$DIMCLRD
 70
     0
  9
$DIMCLRE
 70
     0
  9
$DIMCLRT
 70
     0
  9
$DIMTFAC
 40
1.0
  9
$DIMGAP
 40
0.09
  9
$DIMJUST
 70
     0
  9
$DIMSD1
 70
     0
  9
$DIMSD2
 70
     0
  9
$DIMTOLJ
 70
     1
  9
$DIMTZIN
 70
     0
  9
$DIMALTZ
 70
     0
  9
$DIMALTTZ
 70
     0
  9
$DIMUPT
 70
     0
  9
$DIMDEC
 70
     4
  9
$DIMTDEC
 70
     4
  9
$DIMALTU
 70
     2
  9
$DIMALTTD
 70
     2
  9
$DIMTXSTY
  7
Standard
  9
$DIMAUNIT
 70
     0
  9
$DIMADEC
 70
     0
  9
$DIMALTRND
 40
0.0
  9
$DIMAZIN
 70
     0
  9
$DIMDSEP
 70
    46
  9
$DIMATFIT
 70
     3
  9
$DIMFRAC
 70
     0
  9
$DIMLDRBLK
  1

  9
$DIMLUNIT
 70
     2
  9
$DIMLWD
 70
    -2
  9
$DIMLWE
 70
    -2
  9
$DIMTMOVE
 70
     0
  9
$DIMFXL
 40
1.0
  9
$DIMFXLON
 70
     0
  9
$DIMJOGANG
 40
0.7853981633974483
  9
$DIMTFILL
 70
     0
  9
$DIMTFILLCLR
 70
     0
  9
$DIMARCSYM
 70
     0
  9
$DIMLTYPE
  6

  9
$DIMLTEX1
  6

  9
$DIMLTEX2
  6

  9
$LUNITS
 70
     2
  9
$LUPREC
 70
     4
  9
$SKETCHINC
 40
0.1
  9
$FILLETRAD
 40
0.5
  9
$AUNITS
 70
     0
  9
$AUPREC
 70
     0
  9
$MENU
  1
.
  9
$ELEVATION
 40
0.0
  9
$PELEVATION
 40
0.0
  9
$THICKNESS
 40
0.0
  9
$LIMCHECK
 70
     0
  9
$CHAMFERA
 40
0.5
  9
$CHAMFERB
 40
0.5
  9
$CHAMFERC
 40
1.0
  9
$CHAMFERD
 40
0.0
  9
$SKPOLY
 70
     0
  9
$TDCREATE
 40
2457799.534618495
  9
$TDUCREATE
 40
2457799.534618495
  9
$TDUPDATE
 40
2457799.534618507
  9
$TDUUPDATE
 40
2457799.534618507
  9
$TDINDWG
 40
0.0000000116
  9
$TDUSRTIMER
 40
0.0000000116
  9
$USRTIMER
 70
     1
  9
$ANGBASE
 50
0.0
  9
$ANGDIR
 70
     0
  9
$PDMODE
 70
     0
  9
$PDSIZE
 40
0.0
  9
$PLINEWID
 40
0.0
  9
$SPLFRAME
 70
     0
  9
$SPLINETYPE
 70
     6
  9
$SPLINESEGS
 70
     8
  9
$HANDSEED
  5
7B
  9
$SURFTAB1
 70
     6
  9
$SURFTAB2
 70
     6
  9
$SURFTYPE
 70
     6
  9
$SURFU
 70
     6
  9
$SURFV
 70
     6
  9
$UCSBASE
  2

  9
$UCSNAME
  2

  9
$UCSORG
 10
0.0
 20
0.0
 30
0.0
  9
$UCSXDIR
 10
1.0
 20
0.0
 30
0.0
  9
$UCSYDIR
 10
0.0
 20
1.0
 30
0.0
  9
$UCSORTHOREF
  2

  9
$UCSORTHOVIEW
 70
     0
  9
$UCSORGTOP
 10
0.0
 20
0.0
 30
0.0
  9
$UCSORGBOTTOM
 10
0.0
 20
0.0
 30
0.0
  9
$UCSORGLEFT
 10
0.0
 20
0.0
 30
0.0
  9
$UCSORGRIGHT
 10
0.0
 20
0.0
 30
0.0
  9
$UCSORGFRONT
 10
0.0
 20
0.0
 30
0.0
  9
$UCSORGBACK
 10
0.0
 20
0.0
 30
0.0
  9
$PUCSBASE
  2

  9
$PUCSNAME
  2

  9
$PUCSORG
 10
0.0
 20
0.0
 30
0.0
  9
$PUCSXDIR
 10
1.0
 20
0.0
 30
0.0
  9
$PUCSYDIR
 10
0.0
 20
1.0
 30
0.0
  9
$PUCSORTHOREF
  2

  9
$PUCSORTHOVIEW
 70
     0
  9
$PUCSORGTOP
 10
0.0
 20
0.0
 30
0.0
  9
$PUCSORGBOTTOM
 10
0.0
 20
0.0
 30
0.0
  9
$PUCSORGLEFT
 10
0.0
 20
0.0
 30
0.0
  9
$PUCSORGRIGHT
 10
0.0
 20
0.0
 30
0.0
  9
$PUCSORGFRONT
 10
0.0
 20
0.0
 30
0.0
  9
$PUCSORGBACK
 10
0.0
 20
0.0
 30
0.0
  9
$USERI1
 70
     0
  9
$USERI2
 70
     0
  9
$USERI3
 70
     0
  9
$USERI4
 70
     0
  9
$USERI5
 70
     0
  9
$USERR1
 40
0.0
  9
$USERR2
 40
0.0
  9
$USERR3
 40
0.0
  9
$USERR4
 40
0.0
  9
$USERR5
 40
0.0
  9
$WORLDVIEW
 70
     1
  9
$SHADEDGE
 70
     3
  9
$SHADEDIF
 70
    70
  9
$TILEMODE
 70
     1
  9
$MAXACTVP
 70
    64
  9
$PINSBASE
 10
0.0
 20
0.0
 30
0.0
  9
$PLIMCHECK
 70
     0
  9
$PEXTMIN
 10
1.000000000000000E+20
 20
1.000000000000000E+20
 30
1.000000000000000E+20
  9
$PEXTMAX
 10
-1.000000000000000E+20
 20
-1.000000000000000E+20
 30
-1.000000000000000E+20
  9
$PLIMMIN
 10
0.0
 20
0.0
  9
$PLIMMAX
 10
12.0
 20
9.0
  9
$UNITMODE
 70
     0
  9
$VISRETAIN
 70
     1
  9
$PLINEGEN
 70
     0
  9
$PSLTSCALE
 70
     1
  9
$TREEDEPTH
 70
  3020
  9
$CMLSTYLE
  2
Standard
  9
$CMLJUST
 70
     0
  9
$CMLSCALE
 40
1.0
  9
$PROXYGRAPHICS
 70
     1
  9
$MEASUREMENT
 70
     0
  9
$CELWEIGHT
370
    -1
  9
$ENDCAPS
280
     0
  9
$JOINSTYLE
280
     0
  9
$LWDISPLAY
290
     0
  9
$INSUNITS
 70
     5
  9
$HYPERLINKBASE
  1

  9
$STYLESHEET
  1

  9
$XEDIT
290
     1
  9
$CEPSNTYPE
380
     0
  9
$PSTYLEMODE
290
     1
  9
$FINGERPRINTGUID
  2
{6FF183FE-92F1-4C65-8964-97520EC32B10}
  9
$VERSIONGUID
  2
{FAEB1C32-E019-11D5-929B-00C0DF256EC4}
  9
$EXTNAMES
290
     1
  9
$PSVPSCALE
 40
0.0
  9
$OLESTARTUP
290
     0
  9
$SORTENTS
280
   127
  9
$INDEXCTL
280
     0
  9
$HIDETEXT
280
     1
  9
$XCLIPFRAME
290
     0
  9
$HALOGAP
280
     0
  9
$OBSCOLOR
 70
   257
  9
$OBSLTYPE
280
     0
  9
$INTERSECTIONDISPLAY
280
     0
  9
$INTERSECTIONCOLOR
 70
   257
  9
$DIMASSOC
280
     2
  9
$PROJECTNAME
  1

  9
$CAMERADISPLAY
290
     0
  9
$LENSLENGTH
 40
50.0
  9
$CAMERAHEIGHT
 40
0.0
  9
$STEPSPERSEC
 40
2.0
  9
$STEPSIZE
 40
6.0
  9
$3DDWFPREC
 40
2.0
  9
$PSOLWIDTH
 40
0.25
  9
$PSOLHEIGHT
 40
4.0
  9
$LOFTANG1
 40
1.570796326794897
  9
$LOFTANG2
 40
1.570796326794897
  9
$LOFTMAG1
 40
0.0
  9
$LOFTMAG2
 40
0.0
  9
$LOFTPARAM
 70
     7
  9
$LOFTNORMALS
280
     1
  9
$LATITUDE
 40
37.795
  9
$LONGITUDE
 40
-122.394
  9
$NORTHDIRECTION
 40
0.0
  9
$TIMEZONE
 70
 -8000
  9
$LIGHTGLYPHDISPLAY
280
     1
  9
$TILEMODELIGHTSYNCH
280
     1
  9
$SOLIDHIST
280
     1
  9
$SHOWHIST
280
     1
  9
$DWFFRAME
280
     2
  9
$DGNFRAME
280
     2
  9
$REALWORLDSCALE
290
     1
  9
$INTERFERECOLOR
 62
   256
  9
$CSHADOW
280
     0
  9
$SHADOWPLANELOCATION
 40
0.0
  0
ENDSEC
  0
SECTION
  2
CLASSES
  0
CLASS
  1
ACDBDICTIONARYWDFLT
  2
AcDbDictionaryWithDefault
  3
ObjectDBX Classes
 90
        0
 91
        3
280
     0
281
     0
  0
CLASS
  1
VISUALSTYLE
  2
AcDbVisualStyle
  3
ObjectDBX Classes
 90
     4095
 91
        3
280
     0
281
     0
  0
CLASS
  1
SCALE
  2
AcDbScale
  3
ObjectDBX Classes
 90
     1153
 91
        3
280
     0
281
     0
  0
ENDSEC
  0
SECTION
  2
TABLES
  0
TABLE
  2
VPORT
  5
8
330
0
100
AcDbSymbolTable
 70
     1
  0
VPORT
  5
29
330
8
100
AcDbSymbolTableRecord
100
AcDbViewportTableRecord
  2
*Active
 70
     0
 10
0.0
 20
0.0
 11
1.0
 21
1.0
 12
10.42990654205607
 22
4.5
 13
0.0
 23
0.0
 14
0.5
 24
0.5
 15
0.5
 25
0.5
 16
0.0
 26
0.0
 36
1.0
 17
0.0
 27
0.0
 37
0.0
 40
9.0
 41
1.972972972850329
 42
50.0
 43
0.0
 44
0.0
 50
0.0
 51
0.0
 71
     0
 72
   100
 73
     1
 74
     3
 75
     0
 76
     0
 77
     0
 78
     0
281
     0
 65
     1
110
0.0
120
0.0
130
0.0
111
1.0
121
0.0
131
0.0
112
0.0
122
1.0
132
0.0
 79
     0
146
0.0
 60
     3
 61
     5
292
     1
282
     1
141
0.0
142
0.0
 63
   256
  0
ENDTAB
  0
TABLE
  2
LTYPE
  5
5
330
0
100
AcDbSymbolTable
 70
     1
  0
LTYPE
  5
14
330
5
100
AcDbSymbolTableRecord
100
AcDbLinetypeTableRecord
  2
ByBlock
 70
     0
  3

 72
    65
 73
     0
 40
0.0
  0
LTYPE
  5
15
330
5
100
AcDbSymbolTableRecord
100
AcDbLinetypeTableRecord
  2
ByLayer
 70
     0
  3

 72
    65
 73
     0
 40
0.0
  0
LTYPE
  5
16
330
5
100
AcDbSymbolTableRecord
100
AcDbLinetypeTableRecord
  2
Continuous
 70
     0
  3
Solid line
 72
    65
 73
     0
 40
0.0
  0
ENDTAB
  0
TABLE
  2
LAYER
  5
2
330
0
100
AcDbSymbolTable
 70
     2
  0
LAYER
  5
10
330
2
100
AcDbSymbolTableRecord
100
AcDbLayerTableRecord
  2
0
 70
     0
 62
     7
  6
Continuous
370
    -3
390
F
347
0
  0
LAYER
  5
5E
330
2
100
AcDbSymbolTableRecord
100
AcDbLayerTableRecord
  2
Layer 1
 70
     0
 62
     7
  6
Continuous
370
    -3
390
F
347
0
  0
ENDTAB
  0
TABLE
  2
STYLE
  5
3
330
0
100
AcDbSymbolTable
 70
     1
  0
STYLE
  5
11
330
3
100
AcDbSymbolTableRecord
100
AcDbTextStyleTableRecord
  2
Standard
 70
     0
 40
0.0
 41
1.0
 50
0.0
 71
     0
 42
0.2
  3
txt
  4

  0
ENDTAB
  0
TABLE
  2
VIEW
  5
6
330
0
100
AcDbSymbolTable
 70
     0
  0
ENDTAB
  0
TABLE
  2
UCS
  5
7
330
0
100
AcDbSymbolTable
 70
     0
  0
ENDTAB
  0
TABLE
  2
APPID
  5
9
330
0
100
AcDbSymbolTable
 70
     2
  0
APPID
  5
12
330
9
100
AcDbSymbolTableRecord
100
AcDbRegAppTableRecord
  2
ACAD
 70
     0
  0
APPID
  5
5D
330
9
100
AcDbSymbolTableRecord
100
AcDbRegAppTableRecord
  2
ODA
 70
     0
  0
ENDTAB
  0
TABLE
  2
DIMSTYLE
  5
A
330
0
100
AcDbSymbolTable
 70
     1
100
AcDbDimStyleTable
  0
DIMSTYLE
105
27
330
A
100
AcDbSymbolTableRecord
100
AcDbDimStyleTableRecord
  2
Standard
 70
     0
340
11
  0
ENDTAB
  0
TABLE
  2
BLOCK_RECORD
  5
1
330
0
100
AcDbSymbolTable
 70
     1
  0
BLOCK_RECORD
  5
1F
330
1
100
AcDbSymbolTableRecord
100
AcDbBlockTableRecord
  2
*Model_Space
340
22
 70
     0
280
     1
281
     0
  0
BLOCK_RECORD
  5
1B
330
1
100
AcDbSymbolTableRecord
100
AcDbBlockTableRecord
  2
*Paper_Space
340
1E
 70
     0
280
     1
281
     0
  0
BLOCK_RECORD
  5
23
330
1
100
AcDbSymbolTableRecord
100
AcDbBlockTableRecord
  2
*Paper_Space0
340
26
 70
     0
280
     1
281
     0
  0
ENDTAB
  0
ENDSEC
  0
SECTION
  2
BLOCKS
  0
BLOCK
  5
20
330
1F
100
AcDbEntity
  8
0
100
AcDbBlockBegin
  2
*Model_Space
 70
     0
 10
0.0
 20
0.0
 30
0.0
  3
*Model_Space
  1

  0
ENDBLK
  5
21
330
1F
100
AcDbEntity
  8
0
100
AcDbBlockEnd
  0
BLOCK
  5
1C
330
1B
100
AcDbEntity
 67
     1
  8
0
100
AcDbBlockBegin
  2
*Paper_Space
 70
     0
 10
0.0
 20
0.0
 30
0.0
  3
*Paper_Space
  1

  0
ENDBLK
  5
1D
330
1B
100
AcDbEntity
 67
     1
  8
0
100
AcDbBlockEnd
  0
BLOCK
  5
24
330
23
100
AcDbEntity
  8
0
100
AcDbBlockBegin
  2
*Paper_Space0
 70
     0
 10
0.0
 20
0.0
 30
0.0
  3
*Paper_Space0
  1

  0
ENDBLK
  5
25
330
23
100
AcDbEntity
  8
0
100
AcDbBlockEnd
  0
ENDSEC
  0
SECTION
  2
ENTITIES
  0
SPLINE
  5
5F
330
1F
100
AcDbEntity
  8
Layer 1
370
    53
100
AcDbSpline
210
0.0
220
0.0
230
1.0
 70
    11
 71
     3
 72
    84
 73
    80
 74
     0
 42
0.0000000001
 43
0.0000000001
 40
0.0
 40
0.0
 40
0.0
 40
0.0
 40
0.05
 40
0.05
 40
0.05
 40
0.05
 40
0.1
 40
0.1
 40
0.1
 40
0.1
 40
0.15
 40
0.15
 40
0.15
 40
0.15
 40
0.2
 40
0.2
 40
0.2
 40
0.2
 40
0.25
 40
0.25
 40
0.25
 40
0.25
 40
0.3
 40
0.3
 40
0.3
 40
0.3
 40
0.35
 40
0.35
 40
0.35
 40
0.35
 40
0.4
 40
0.4
 40
0.4
 40
0.4
 40
0.45
 40
0.45
 40
0.45
 40
0.45
 40
0.4999999999999999
 40
0.4999999999999999
 40
0.4999999999999999
 40
0.4999999999999999
 40
0.5499999999999999
 40
0.5499999999999999
 40
0.5499999999999999
 40
0.5499999999999999
 40
0.6
 40
0.6
 40
0.6
 40
0.6
 40
0.65
 40
0.65
 40
0.65
 40
0.65
 40
0.7000000000000001
 40
0.7000000000000001
 40
0.7000000000000001
 40
0.7000000000000001
 40
0.7500000000000001
 40
0.7500000000000001
 40
0.7500000000000001
 40
0.7500000000000001
 40
0.8000000000000002
 40
0.8000000000000002
 40
0.8000000000000002
 40
0.8000000000000002
 40
0.8500000000000002
 40
0.8500000000000002
 40
0.8500000000000002
 40
0.8500000000000002
 40
0.9000000000000002
 40
0.9000000000000002
 40
0.9000000000000002
 40
0.9000000000000002
 40
0.9500000000000003
 40
0.9500000000000003
 40
0.9500000000000003
 40
0.9500000000000003
 40
1.0
 40
1.0
 40
1.0
 40
1.0
 10
-12.8
 20
-13.7
 30
0.0
 10
-12.8
 20
-13.7
 30
0.0
 10
-12.75985
 20
-13.7
 30
0.0
 10
-12.75985
 20
-13.7
 30
0.0
 10
-12.75985
 20
-13.7
 30
0.0
 10
-12.7335
 20
-13.65447
 30
0.0
 10
-12.69553
 20
-13.6165
 30
0.0
 10
-12.65
 20
-13.59015
 30
0.0
 10
-12.65
 20
-13.59015
 30
0.0
 10
-12.65
 20
-13.59015
 30
0.0
 10
-12.65
 20
-13.55
 30
0.0
 10
-12.65
 20
-13.55
 30
0.0
 10
-12.65
 20
-13.55
 30
0.0
 10
-12.65
 20
-13.55
 30
0.0
 10
-12.5
 20
-13.55
 30
0.0
 10
-12.5
 20
-13.55
 30
0.0
 10
-12.5
 20
-13.55
 30
0.0
 10
-12.5
 20
-13.55
 30
0.0
 10
-12.35
 20
-13.55
 30
0.0
 10
-12.35
 20
-13.55
 30
0.0
 10
-12.35
 20
-13.55
 30
0.0
 10
-12.35
 20
-13.55
 30
0.0
 10
-12.35
 20
-13.59015
 30
0.0
 10
-12.35
 20
-13.59015
 30
0.0
 10
-12.35
 20
-13.59015
 30
0.0
 10
-12.30447
 20
-13.6165
 30
0.0
 10
-12.2665
 20
-13.65447
 30
0.0
 10
-12.24015
 20
-13.7
 30
0.0
 10
-12.24015
 20
-13.7
 30
0.0
 10
-12.24015
 20
-13.7
 30
0.0
 10
-12.2
 20
-13.7
 30
0.0
 10
-12.2
 20
-13.7
 30
0.0
 10
-12.2
 20
-13.7
 30
0.0
 10
-12.2
 20
-13.7
 30
0.0
 10
-12.2
 20
-13.85
 30
0.0
 10
-12.2
 20
-13.85
 30
0.0
 10
-12.2
 20
-13.85
 30
0.0
 10
-12.2
 20
-13.85
 30
0.0
 10
-12.2
 20
-14.0
 30
0.0
 10
-12.2
 20
-14.0
 30
0.0
 10
-12.2
 20
-14.0
 30
0.0
 10
-12.2
 20
-14.0
 30
0.0
 10
-12.24015
 20
-14.0
 30
0.0
 10
-12.24015
 20
-14.0
 30
0.0
 10
-12.24015
 20
-14.0
 30
0.0
 10
-12.2665
 20
-14.04553
 30
0.0
 10
-12.30447
 20
-14.0835
 30
0.0
 10
-12.35
 20
-14.10985
 30
0.0
 10
-12.35
 20
-14.10985
 30
0.0
 10
-12.35
 20
-14.10985
 30
0.0
 10
-12.35
 20
-14.15
 30
0.0
 10
-12.35
 20
-14.15
 30
0.0
 10
-12.35
 20
-14.15
 30
0.0
 10
-12.35
 20
-14.15
 30
0.0
 10
-12.5
 20
-14.15
 30
0.0
 10
-12.5
 20
-14.15
 30
0.0
 10
-12.5
 20
-14.15
 30
0.0
 10
-12.5
 20
-14.15
 30
0.0
 10
-12.65
 20
-14.15
 30
0.0
 10
-12.65
 20
-14.15
 30
0.0
 10
-12.65
 20
-14.15
 30
0.0
 10
-12.65
 20
-14.15
 30
0.0
 10
-12.65
 20
-14.10985
 30
0.0
 10
-12.65
 20
-14.10985
 30
0.0
 10
-12.65
 20
-14.10985
 30
0.0
 10
-12.69553
 20
-14.0835
 30
0.0
 10
-12.7335
 20
-14.04553
 30
0.0
 10
-12.75985
 20
-14.0
 30
0.0
 10
-12.75985
 20
-14.0
 30
0.0
 10
-12.75985
 20
-14.0
 30
0.0
 10
-12.8
 20
-14.0
 30
0.0
 10
-12.8
 20
-14.0
 30
0.0
 10
-12.8
 20
-14.0
 30
0.0
 10
-12.8
 20
-14.0
 30
0.0
 10
-12.8
 20
-13.85
 30
0.0
 10
-12.8
 20
-13.85
 30
0.0
 10
-12.8
 20
-13.85
 30
0.0
 10
-12.8
 20
-13.85
 30
0.0
 10
-12.8
 20
-13.7
 30
0.0
 10
-12.8
 20
-13.7
 30
0.0
  0
LWPOLYLINE
  5
60
330
1F
100
AcDbEntity
  8
Layer 1
370
    53
100
AcDbPolyline
 90
        5
 70
     1
 43
0.0
 10
-12.65
 20
-15.15
 10
-12.35
 20
-15.15
 10
-12.35
 20
-14.55
 10
-12.65
 20
-14.55
 10
-12.65
 20
-15.15
  0
SPLINE
  5
61
330
1F
100
AcDbEntity
  8
Layer 1
370
    53
100
AcDbSpline
210
0.0
220
0.0
230
1.0
 70
    11
 71
     3
 72
    84
 73
    80
 74
     0
 42
0.0000000001
 43
0.0000000001
 40
0.0
 40
0.0
 40
0.0
 40
0.0
 40
0.05
 40
0.05
 40
0.05
 40
0.05
 40
0.1
 40
0.1
 40
0.1
 40
0.1
 40
0.15
 40
0.15
 40
0.15
 40
0.15
 40
0.2
 40
0.2
 40
0.2
 40
0.2
 40
0.25
 40
0.25
 40
0.25
 40
0.25
 40
0.3
 40
0.3
 40
0.3
 40
0.3
 40
0.35
 40
0.35
 40
0.35
 40
0.35
 40
0.4
 40
0.4
 40
0.4
 40
0.4
 40
0.45
 40
0.45
 40
0.45
 40
0.45
 40
0.4999999999999999
 40
0.4999999999999999
 40
0.4999999999999999
 40
0.4999999999999999
 40
0.5499999999999999
 40
0.5499999999999999
 40
0.5499999999999999
 40
0.5499999999999999
 40
0.6
 40
0.6
 40
0.6
 40
0.6
 40
0.65
 40
0.65
 40
0.65
 40
0.65
 40
0.7000000000000001
 40
0.7000000000000001
 40
0.7000000000000001
 40
0.7000000000000001
 40
0.7500000000000001
 40
0.7500000000000001
 40
0.7500000000000001
 40
0.7500000000000001
 40
0.8000000000000002
 40
0.8000000000000002
 40
0.8000000000000002
 40
0.8000000000000002
 40
0.8500000000000002
 40
0.8500000000000002
 40
0.8500000000000002
 40
0.8500000000000002
 40
0.9000000000000002
 40
0.9000000000000002
 40
0.9000000000000002
 40
0.9000000000000002
 40
0.9500000000000003
 40
0.9500000000000003
 40
0.9500000000000003
 40
0.9500000000000003
 40
1.0
 40
1.0
 40
1.0
 40
1.0
 10
-10.8
 20
-13.7
 30
0.0
 10
-10.8
 20
-13.7
 30
0.0
 10
-10.75985
 20
-13.7
 30
0.0
 10
-10.75985
 20
-13.7
 30
0.0
 10
-10.75985
 20
-13.7
 30
0.0
 10
-10.7335
 20
-13.65447
 30
0.0
 10
-10.69553
 20
-13.6165
 30
0.0
 10
-10.65
 20
-13.59015
 30
0.0
 10
-10.65
 20
-13.59015
 30
0.0
 10
-10.65
 20
-13.59015
 30
0.0
 10
-10.65
 20
-13.55
 30
0.0
 10
-10.65
 20
-13.55
 30
0.0
 10
-10.65
 20
-13.55
 30
0.0
 10
-10.65
 20
-13.55
 30
0.0
 10
-10.5
 20
-13.55
 30
0.0
 10
-10.5
 20
-13.55
 30
0.0
 10
-10.5
 20
-13.55
 30
0.0
 10
-10.5
 20
-13.55
 30
0.0
 10
-10.35
 20
-13.55
 30
0.0
 10
-10.35
 20
-13.55
 30
0.0
 10
-10.35
 20
-13.55
 30
0.0
 10
-10.35
 20
-13.55
 30
0.0
 10
-10.35
 20
-13.59015
 30
0.0
 10
-10.35
 20
-13.59015
 30
0.0
 10
-10.35
 20
-13.59015
 30
0.0
 10
-10.30447
 20
-13.6165
 30
0.0
 10
-10.2665
 20
-13.65447
 30
0.0
 10
-10.24015
 20
-13.7
 30
0.0
 10
-10.24015
 20
-13.7
 30
0.0
 10
-10.24015
 20
-13.7
 30
0.0
 10
-10.2
 20
-13.7
 30
0.0
 10
-10.2
 20
-13.7
 30
0.0
 10
-10.2
 20
-13.7
 30
0.0
 10
-10.2
 20
-13.7
 30
0.0
 10
-10.2
 20
-13.85
 30
0.0
 10
-10.2
 20
-13.85
 30
0.0
 10
-10.2
 20
-13.85
 30
0.0
 10
-10.2
 20
-13.85
 30
0.0
 10
-10.2
 20
-14.0
 30
0.0
 10
-10.2
 20
-14.0
 30
0.0
 10
-10.2
 20
-14.0
 30
0.0
 10
-10.2
 20
-14.0
 30
0.0
 10
-10.24015
 20
-14.0
 30
0.0
 10
-10.24015
 20
-14.0
 30
0.0
 10
-10.24015
 20
-14.0
 30
0.0
 10
-10.2665
 20
-14.04553
 30
0.0
 10
-10.30447
 20
-14.0835
 30
0.0
 10
-10.35
 20
-14.10985
 30
0.0
 10
-10.35
 20
-14.10985
 30
0.0
 10
-10.35
 20
-14.10985
 30
0.0
 10
-10.35
 20
-14.15
 30
0.0
 10
-10.35
 20
-14.15
 30
0.0
 10
-10.35
 20
-14.15
 30
0.0
 10
-10.35
 20
-14.15
 30
0.0
 10
-10.5
 20
-14.15
 30
0.0
 10
-10.5
 20
-14.15
 30
0.0
 10
-10.5
 20
-14.15
 30
0.0
 10
-10.5
 20
-14.15
 30
0.0
 10
-10.65
 20
-14.15
 30
0.0
 10
-10.65
 20
-14.15
 30
0.0
 10
-10.65
 20
-14.15
 30
0.0
 10
-10.65
 20
-14.15
 30
0.0
 10
-10.65
 20
-14.10985
 30
0.0
 10
-10.65
 20
-14.10985
 30
0.0
 10
-10.65
 20
-14.10985
 30
0.0
 10
-10.69553
 20
-14.0835
 30
0.0
 10
-10.7335
 20
-14.04553
 30
0.0
 10
-10.75985
 20
-14.0
 30
0.0
 10
-10.75985
 20
-14.0
 30
0.0
 10
-10.75985
 20
-14.0
 30
0.0
 10
-10.8
 20
-14.0
 30
0.0
 10
-10.8
 20
-14.0
 30
0.0
 10
-10.8
 20
-14.0
 30
0.0
 10
-10.8
 20
-14.0
 30
0.0
 10
-10.8
 20
-13.85
 30
0.0
 10
-10.8
 20
-13.85
 30
0.0
 10
-10.8
 20
-13.85
 30
0.0
 10
-10.8
 20
-13.85
 30
0.0
 10
-10.8
 20
-13.7
 30
0.0
 10
-10.8
 20
-13.7
 30
0.0
  0
LWPOLYLINE
  5
62
330
1F
100
AcDbEntity
  8
Layer 1
370
    53
100
AcDbPolyline
 90
        5
 70
     1
 43
0.0
 10
-10.65
 20
-15.15
 10
-10.35
 20
-15.15
 10
-10.35
 20
-14.55
 10
-10.65
 20
-14.55
 10
-10.65
 20
-15.15
  0
SPLINE
  5
63
330
1F
100
AcDbEntity
  8
Layer 1
370
    53
100
AcDbSpline
210
0.0
220
0.0
230
1.0
 70
    11
 71
     3
 72
    84
 73
    80
 74
     0
 42
0.0000000001
 43
0.0000000001
 40
0.0
 40
0.0
 40
0.0
 40
0.0
 40
0.05
 40
0.05
 40
0.05
 40
0.05
 40
0.1
 40
0.1
 40
0.1
 40
0.1
 40
0.15
 40
0.15
 40
0.15
 40
0.15
 40
0.2
 40
0.2
 40
0.2
 40
0.2
 40
0.25
 40
0.25
 40
0.25
 40
0.25
 40
0.3
 40
0.3
 40
0.3
 40
0.3
 40
0.35
 40
0.35
 40
0.35
 40
0.35
 40
0.4
 40
0.4
 40
0.4
 40
0.4
 40
0.45
 40
0.45
 40
0.45
 40
0.45
 40
0.4999999999999999
 40
0.4999999999999999
 40
0.4999999999999999
 40
0.4999999999999999
 40
0.5499999999999999
 40
0.5499999999999999
 40
0.5499999999999999
 40
0.5499999999999999
 40
0.6
 40
0.6
 40
0.6
 40
0.6
 40
0.65
 40
0.65
 40
0.65
 40
0.65
 40
0.7000000000000001
 40
0.7000000000000001
 40
0.7000000000000001
 40
0.7000000000000001
 40
0.7500000000000001
 40
0.7500000000000001
 40
0.7500000000000001
 40
0.7500000000000001
 40
0.8000000000000002
 40
0.8000000000000002
 40
0.8000000000000002
 40
0.8000000000000002
 40
0.8500000000000002
 40
0.8500000000000002
 40
0.8500000000000002
 40
0.8500000000000002
 40
0.9000000000000002
 40
0.9000000000000002
 40
0.9000000000000002
 40
0.9000000000000002
 40
0.9500000000000003
 40
0.9500000000000003
 40
0.9500000000000003
 40
0.9500000000000003
 40
1.0
 40
1.0
 40
1.0
 40
1.0
 10
-8.8
 20
-13.7
 30
0.0
 10
-8.8
 20
-13.7
 30
0.0
 10
-8.75985
 20
-13.7
 30
0.0
 10
-8.75985
 20
-13.7
 30
0.0
 10
-8.75985
 20
-13.7
 30
0.0
 10
-8.7335
 20
-13.65447
 30
0.0
 10
-8.69553
 20
-13.6165
 30
0.0
 10
-8.65
 20
-13.59015
 30
0.0
 10
-8.65
 20
-13.59015
 30
0.0
 10
-8.65
 20
-13.59015
 30
0.0
 10
-8.65
 20
-13.55
 30
0.0
 10
-8.65
 20
-13.55
 30
0.0
 10
-8.65
 20
-13.55
 30
0.0
 10
-8.65
 20
-13.55
 30
0.0
 10
-8.5
 20
-13.55
 30
0.0
 10
-8.5
 20
-13.55
 30
0.0
 10
-8.5
 20
-13.55
 30
0.0
 10
-8.5
 20
-13.55
 30
0.0
 10
-8.35
 20
-13.55
 30
0.0
 10
-8.35
 20
-13.55
 30
0.0
 10
-8.35
 20
-13.55
 30
0.0
 10
-8.35
 20
-13.55
 30
0.0
 10
-8.35
 20
-13.59015
 30
0.0
 10
-8.35
 20
-13.59015
 30
0.0
 10
-8.35
 20
-13.59015
 30
0.0
 10
-8.30447
 20
-13.6165
 30
0.0
 10
-8.2665
 20
-13.65447
 30
0.0
 10
-8.24015
 20
-13.7
 30
0.0
 10
-8.24015
 20
-13.7
 30
0.0
 10
-8.24015
 20
-13.7
 30
0.0
 10
-8.2
 20
-13.7
 30
0.0
 10
-8.2
 20
-13.7
 30
0.0
 10
-8.2
 20
-13.7
 30
0.0
 10
-8.2
 20
-13.7
 30
0.0
 10
-8.2
 20
-13.85
 30
0.0
 10
-8.2
 20
-13.85
 30
0.0
 10
-8.2
 20
-13.85
 30
0.0
 10
-8.2
 20
-13.85
 30
0.0
 10
-8.2
 20
-14.0
 30
0.0
 10
-8.2
 20
-14.0
 30
0.0
 10
-8.2
 20
-14.0
 30
0.0
 10
-8.2
 20
-14.0
 30
0.0
 10
-8.24015
 20
-14.0
 30
0.0
 10
-8.24015
 20
-14.0
 30
0.0
 10
-8.24015
 20
-14.0
 30
0.0
 10
-8.2665
 20
-14.04553
 30
0.0
 10
-8.30447
 20
-14.0835
 30
0.0
 10
-8.35
 20
-14.10985
 30
0.0
 10
-8.35
 20
-14.10985
 30
0.0
 10
-8.35
 20
-14.10985
 30
0.0
 10
-8.35
 20
-14.15
 30
0.0
 10
-8.35
 20
-14.15
 30
0.0
 10
-8.35
 20
-14.15
 30
0.0
 10
-8.35
 20
-14.15
 30
0.0
 10
-8.5
 20
-14.15
 30
0.0
 10
-8.5
 20
-14.15
 30
0.0
 10
-8.5
 20
-14.15
 30
0.0
 10
-8.5
 20
-14.15
 30
0.0
 10
-8.65
 20
-14.15
 30
0.0
 10
-8.65
 20
-14.15
 30
0.0
 10
-8.65
 20
-14.15
 30
0.0
 10
-8.65
 20
-14.15
 30
0.0
 10
-8.65
 20
-14.10985
 30
0.0
 10
-8.65
 20
-14.10985
 30
0.0
 10
-8.65
 20
-14.10985
 30
0.0
 10
-8.69553
 20
-14.0835
 30
0.0
 10
-8.7335
 20
-14.04553
 30
0.0
 10
-8.75985
 20
-14.0
 30
0.0
 10
-8.75985
 20
-14.0
 30
0.0
 10
-8.75985
 20
-14.0
 30
0.0
 10
-8.8
 20
-14.0
 30
0.0
 10
-8.8
 20
-14.0
 30
0.0
 10
-8.8
 20
-14.0
 30
0.0
 10
-8.8
 20
-14.0
 30
0.0
 10
-8.8
 20
-13.85
 30
0.0
 10
-8.8
 20
-13.85
 30
0.0
 10
-8.8
 20
-13.85
 30
0.0
 10
-8.8
 20
-13.85
 30
0.0
 10
-8.8
 20
-13.7
 30
0.0
 10
-8.8
 20
-13.7
 30
0.0
  0
LWPOLYLINE
  5
64
330
1F
100
AcDbEntity
  8
Layer 1
370
    53
100
AcDbPolyline
 90
        5
 70
     1
 43
0.0
 10
-8.65
 20
-15.15
 10
-8.35
 20
-15.15
 10
-8.35
 20
-14.55
 10
-8.65
 20
-14.55
 10
-8.65
 20
-15.15
  0
LWPOLYLINE
  5
65
330
1F
100
AcDbEntity
  8
Layer 1
370
    53
100
AcDbPolyline
 90
        5
 70
     1
 43
0.0
 10
-11.8
 20
-14.0
 10
-11.2
 20
-14.0
 10
-11.2
 20
-13.7
 10
-11.8
 20
-13.7
 10
-11.8
 20
-14.0
  0
LWPOLYLINE
  5
66
330
1F
100
AcDbEntity
  8
Layer 1
370
    53
100
AcDbPolyline
 90
        5
 70
     1
 43
0.0
 10
-9.8
 20
-14.0
 10
-9.2
 20
-14.0
 10
-9.2
 20
-13.7
 10
-9.8
 20
-13.7
 10
-9.8
 20
-14.0
  0
SPLINE
  5
67
330
1F
100
AcDbEntity
  8
Layer 1
 62
     5
370
    53
100
AcDbSpline
210
0.0
220
0.0
230
1.0
 70
    11
 71
     3
 72
    36
 73
    32
 74
     0
 42
0.0000000001
 43
0.0000000001
 40
0.0
 40
0.0
 40
0.0
 40
0.0
 40
0.125
 40
0.125
 40
0.125
 40
0.125
 40
0.25
 40
0.25
 40
0.25
 40
0.25
 40
0.375
 40
0.375
 40
0.375
 40
0.375
 40
0.5
 40
0.5
 40
0.5
 40
0.5
 40
0.625
 40
0.625
 40
0.625
 40
0.625
 40
0.75
 40
0.75
 40
0.75
 40
0.75
 40
0.875
 40
0.875
 40
0.875
 40
0.875
 40
1.0
 40
1.0
 40
1.0
 40
1.0
 10
-11.78532
 20
-14.4273
 30
0.0
 10
-11.78532
 20
-14.4273
 30
0.0
 10
-11.78532
 20
-14.12208
 30
0.0
 10
-11.78532
 20
-14.12208
 30
0.0
 10
-11.78532
 20
-14.12208
 30
0.0
 10
-11.78532
 20
-14.12208
 30
0.0
 10
-11.65409
 20
-14.4273
 30
0.0
 10
-11.65409
 20
-14.4273
 30
0.0
 10
-11.65409
 20
-14.4273
 30
0.0
 10
-11.65409
 20
-14.4273
 30
0.0
 10
-11.52243
 20
-14.12208
 30
0.0
 10
-11.52243
 20
-14.12208
 30
0.0
 10
-11.52243
 20
-14.12208
 30
0.0
 10
-11.52243
 20
-14.12208
 30
0.0
 10
-11.52243
 20
-14.4273
 30
0.0
 10
-11.52243
 20
-14.4273
 30
0.0
 10
-11.52243
 20
-14.4273
 30
0.0
 10
-11.52243
 20
-14.4273
 30
0.0
 10
-11.52243
 20
-14.12208
 30
0.0
 10
-11.52243
 20
-14.12208
 30
0.0
 10
-11.52243
 20
-14.12208
 30
0.0
 10
-11.52243
 20
-14.12208
 30
0.0
 10
-11.65409
 20
-14.4273
 30
0.0
 10
-11.65409
 20
-14.4273
 30
0.0
 10
-11.65409
 20
-14.4273
 30
0.0
 10
-11.65409
 20
-14.4273
 30
0.0
 10
-11.78532
 20
-14.12208
 30
0.0
 10
-11.78532
 20
-14.12208
 30
0.0
 10
-11.78532
 20
-14.12208
 30
0.0
 10
-11.78532
 20
-14.12208
 30
0.0
 10
-11.78532
 20
-14.4273
 30
0.0
 10
-11.78532
 20
-14.4273
 30
0.0
  0
SPLINE
  5
68
330
1F
100
AcDbEntity
  8
Layer 1
 62
     5
370
    53
100
AcDbSpline
210
0.0
220
0.0
230
1.0
 70
    11
 71
     3
 72
    92
 73
    88
 74
     0
 42
0.0000000001
 43
0.0000000001
 40
0.0
 40
0.0
 40
0.0
 40
0.0
 40
0.0454545454545455
 40
0.0454545454545455
 40
0.0454545454545455
 40
0.0454545454545455
 40
0.0909090909090909
 40
0.0909090909090909
 40
0.0909090909090909
 40
0.0909090909090909
 40
0.1363636363636364
 40
0.1363636363636364
 40
0.1363636363636364
 40
0.1363636363636364
 40
0.1818181818181818
 40
0.1818181818181818
 40
0.1818181818181818
 40
0.1818181818181818
 40
0.2272727272727273
 40
0.2272727272727273
 40
0.2272727272727273
 40
0.2272727272727273
 40
0.2727272727272728
 40
0.2727272727272728
 40
0.2727272727272728
 40
0.2727272727272728
 40
0.3181818181818182
 40
0.3181818181818182
 40
0.3181818181818182
 40
0.3181818181818182
 40
0.3636363636363637
 40
0.3636363636363637
 40
0.3636363636363637
 40
0.3636363636363637
 40
0.4090909090909092
 40
0.4090909090909092
 40
0.4090909090909092
 40
0.4090909090909092
 40
0.4545454545454546
 40
0.4545454545454546
 40
0.4545454545454546
 40
0.4545454545454546
 40
0.5000000000000001
 40
0.5000000000000001
 40
0.5000000000000001
 40
0.5000000000000001
 40
0.5454545454545455
 40
0.5454545454545455
 40
0.5454545454545455
 40
0.5454545454545455
 40
0.5909090909090909
 40
0.5909090909090909
 40
0.5909090909090909
 40
0.5909090909090909
 40
0.6363636363636364
 40
0.6363636363636364
 40
0.6363636363636364
 40
0.6363636363636364
 40
0.6818181818181818
 40
0.6818181818181818
 40
0.6818181818181818
 40
0.6818181818181818
 40
0.7272727272727272
 40
0.7272727272727272
 40
0.7272727272727272
 40
0.7272727272727272
 40
0.7727272727272726
 40
0.7727272727272726
 40
0.7727272727272726
 40
0.7727272727272726
 40
0.818181818181818
 40
0.818181818181818
 40
0.818181818181818
 40
0.818181818181818
 40
0.8636363636363634
 40
0.8636363636363634
 40
0.8636363636363634
 40
0.8636363636363634
 40
0.9090909090909088
 40
0.9090909090909088
 40
0.9090909090909088
 40
0.9090909090909088
 40
0.9545454545454543
 40
0.9545454545454543
 40
0.9545454545454543
 40
0.9545454545454543
 40
1.0
 40
1.0
 40
1.0
 40
1.0
 10
-11.32262
 20
-14.4273
 30
0.0
 10
-11.32262
 20
-14.4273
 30
0.0
 10
-11.32262
 20
-14.12208
 30
0.0
 10
-11.32262
 20
-14.12208
 30
0.0
 10
-11.32262
 20
-14.12208
 30
0.0
 10
-11.32262
 20
-14.12208
 30
0.0
 10
-11.22525
 20
-14.12208
 30
0.0
 10
-11.22525
 20
-14.12208
 30
0.0
 10
-11.22525
 20
-14.12208
 30
0.0
 10
-11.20578
 20
-14.12215
 30
0.0
 10
-11.18977
 20
-14.12434
 30
0.0
 10
-11.17714
 20
-14.12857
 30
0.0
 10
-11.17714
 20
-14.12857
 30
0.0
 10
-11.16458
 20
-14.13273
 30
0.0
 10
-11.1547
 20
-14.13852
 30
0.0
 10
-11.14757
 20
-14.14586
 30
0.0
 10
-11.14757
 20
-14.14586
 30
0.0
 10
-11.14045
 20
-14.15312
 30
0.0
 10
-11.13537
 20
-14.16145
 30
0.0
 10
-11.13226
 20
-14.17083
 30
0.0
 10
-11.13226
 20
-14.17083
 30
0.0
 10
-11.12923
 20
-14.18022
 30
0.0
 10
-11.12747
 20
-14.19002
 30
0.0
 10
-11.12704
 20
-14.2004
 30
0.0
 10
-11.12704
 20
-14.2004
 30
0.0
 10
-11.12655
 20
-14.21077
 30
0.0
 10
-11.12775
 20
-14.22093
 30
0.0
 10
-11.13057
 20
-14.2308
 30
0.0
 10
-11.13057
 20
-14.2308
 30
0.0
 10
-11.13346
 20
-14.24068
 30
0.0
 10
-11.13833
 20
-14.24964
 30
0.0
 10
-11.14532
 20
-14.25769
 30
0.0
 10
-11.14532
 20
-14.25769
 30
0.0
 10
-11.15223
 20
-14.26573
 30
0.0
 10
-11.16161
 20
-14.27215
 30
0.0
 10
-11.1734
 20
-14.27688
 30
0.0
 10
-11.1734
 20
-14.27688
 30
0.0
 10
-11.18518
 20
-14.28167
 30
0.0
 10
-11.19978
 20
-14.28407
 30
0.0
 10
-11.21721
 20
-14.28421
 30
0.0
 10
-11.21721
 20
-14.28421
 30
0.0
 10
-11.21721
 20
-14.28421
 30
0.0
 10
-11.32262
 20
-14.28421
 30
0.0
 10
-11.32262
 20
-14.28421
 30
0.0
 10
-11.32262
 20
-14.28421
 30
0.0
 10
-11.32262
 20
-14.28421
 30
0.0
 10
-11.21721
 20
-14.28421
 30
0.0
 10
-11.21721
 20
-14.28421
 30
0.0
 10
-11.21721
 20
-14.28421
 30
0.0
 10
-11.20014
 20
-14.28407
 30
0.0
 10
-11.18567
 20
-14.28167
 30
0.0
 10
-11.17396
 20
-14.27688
 30
0.0
 10
-11.17396
 20
-14.27688
 30
0.0
 10
-11.16218
 20
-14.27215
 30
0.0
 10
-11.15279
 20
-14.26573
 30
0.0
 10
-11.14574
 20
-14.25769
 30
0.0
 10
-11.14574
 20
-14.25769
 30
0.0
 10
-11.13875
 20
-14.24964
 30
0.0
 10
-11.13374
 20
-14.24068
 30
0.0
 10
-11.13078
 20
-14.2308
 30
0.0
 10
-11.13078
 20
-14.2308
 30
0.0
 10
-11.12782
 20
-14.22093
 30
0.0
 10
-11.12655
 20
-14.21077
 30
0.0
 10
-11.12704
 20
-14.2004
 30
0.0
 10
-11.12704
 20
-14.2004
 30
0.0
 10
-11.12747
 20
-14.19002
 30
0.0
 10
-11.12923
 20
-14.18022
 30
0.0
 10
-11.1324
 20
-14.17083
 30
0.0
 10
-11.1324
 20
-14.17083
 30
0.0
 10
-11.13551
 20
-14.16145
 30
0.0
 10
-11.14073
 20
-14.15312
 30
0.0
 10
-11.14786
 20
-14.14586
 30
0.0
 10
-11.14786
 20
-14.14586
 30
0.0
 10
-11.15505
 20
-14.13852
 30
0.0
 10
-11.16493
 20
-14.13273
 30
0.0
 10
-11.17749
 20
-14.12857
 30
0.0
 10
-11.17749
 20
-14.12857
 30
0.0
 10
-11.19012
 20
-14.12434
 30
0.0
 10
-11.20599
 20
-14.12215
 30
0.0
 10
-11.22525
 20
-14.12208
 30
0.0
 10
-11.22525
 20
-14.12208
 30
0.0
 10
-11.22525
 20
-14.12208
 30
0.0
 10
-11.32262
 20
-14.12208
 30
0.0
 10
-11.32262
 20
-14.12208
 30
0.0
 10
-11.32262
 20
-14.12208
 30
0.0
 10
-11.32262
 20
-14.12208
 30
0.0
 10
-11.32262
 20
-14.4273
 30
0.0
 10
-11.32262
 20
-14.4273
 30
0.0
  0
SPLINE
  5
69
330
1F
100
AcDbEntity
  8
Layer 1
 62
     5
370
    53
100
AcDbSpline
210
0.0
220
0.0
230
1.0
 70
    11
 71
     3
 72
    92
 73
    88
 74
     0
 42
0.0000000001
 43
0.0000000001
 40
0.0
 40
0.0
 40
0.0
 40
0.0
 40
0.0454545454545455
 40
0.0454545454545455
 40
0.0454545454545455
 40
0.0454545454545455
 40
0.0909090909090909
 40
0.0909090909090909
 40
0.0909090909090909
 40
0.0909090909090909
 40
0.1363636363636364
 40
0.1363636363636364
 40
0.1363636363636364
 40
0.1363636363636364
 40
0.1818181818181818
 40
0.1818181818181818
 40
0.1818181818181818
 40
0.1818181818181818
 40
0.2272727272727273
 40
0.2272727272727273
 40
0.2272727272727273
 40
0.2272727272727273
 40
0.2727272727272728
 40
0.2727272727272728
 40
0.2727272727272728
 40
0.2727272727272728
 40
0.3181818181818182
 40
0.3181818181818182
 40
0.3181818181818182
 40
0.3181818181818182
 40
0.3636363636363637
 40
0.3636363636363637
 40
0.3636363636363637
 40
0.3636363636363637
 40
0.4090909090909092
 40
0.4090909090909092
 40
0.4090909090909092
 40
0.4090909090909092
 40
0.4545454545454546
 40
0.4545454545454546
 40
0.4545454545454546
 40
0.4545454545454546
 40
0.5000000000000001
 40
0.5000000000000001
 40
0.5000000000000001
 40
0.5000000000000001
 40
0.5454545454545455
 40
0.5454545454545455
 40
0.5454545454545455
 40
0.5454545454545455
 40
0.5909090909090909
 40
0.5909090909090909
 40
0.5909090909090909
 40
0.5909090909090909
 40
0.6363636363636364
 40
0.6363636363636364
 40
0.6363636363636364
 40
0.6363636363636364
 40
0.6818181818181818
 40
0.6818181818181818
 40
0.6818181818181818
 40
0.6818181818181818
 40
0.7272727272727272
 40
0.7272727272727272
 40
0.7272727272727272
 40
0.7272727272727272
 40
0.7727272727272726
 40
0.7727272727272726
 40
0.7727272727272726
 40
0.7727272727272726
 40
0.818181818181818
 40
0.818181818181818
 40
0.818181818181818
 40
0.818181818181818
 40
0.8636363636363634
 40
0.8636363636363634
 40
0.8636363636363634
 40
0.8636363636363634
 40
0.9090909090909088
 40
0.9090909090909088
 40
0.9090909090909088
 40
0.9090909090909088
 40
0.9545454545454543
 40
0.9545454545454543
 40
0.9545454545454543
 40
0.9545454545454543
 40
1.0
 40
1.0
 40
1.0
 40
1.0
 10
-12.07721
 20
-15.00261
 30
0.0
 10
-12.07721
 20
-15.00261
 30
0.0
 10
-12.07721
 20
-14.69739
 30
0.0
 10
-12.07721
 20
-14.69739
 30
0.0
 10
-12.07721
 20
-14.69739
 30
0.0
 10
-12.07721
 20
-14.69739
 30
0.0
 10
-11.97984
 20
-14.69739
 30
0.0
 10
-11.97984
 20
-14.69739
 30
0.0
 10
-11.97984
 20
-14.69739
 30
0.0
 10
-11.96037
 20
-14.69746
 30
0.0
 10
-11.94436
 20
-14.69965
 30
0.0
 10
-11.93173
 20
-14.70388
 30
0.0
 10
-11.93173
 20
-14.70388
 30
0.0
 10
-11.91917
 20
-14.70804
 30
0.0
 10
-11.90929
 20
-14.71383
 30
0.0
 10
-11.90216
 20
-14.72117
 30
0.0
 10
-11.90216
 20
-14.72117
 30
0.0
 10
-11.89504
 20
-14.72843
 30
0.0
 10
-11.88996
 20
-14.73676
 30
0.0
 10
-11.88685
 20
-14.74614
 30
0.0
 10
-11.88685
 20
-14.74614
 30
0.0
 10
-11.88382
 20
-14.75553
 30
0.0
 10
-11.88206
 20
-14.76533
 30
0.0
 10
-11.88163
 20
-14.77571
 30
0.0
 10
-11.88163
 20
-14.77571
 30
0.0
 10
-11.88114
 20
-14.78608
 30
0.0
 10
-11.88234
 20
-14.79624
 30
0.0
 10
-11.88516
 20
-14.80611
 30
0.0
 10
-11.88516
 20
-14.80611
 30
0.0
 10
-11.88805
 20
-14.81599
 30
0.0
 10
-11.89292
 20
-14.82495
 30
0.0
 10
-11.89991
 20
-14.833
 30
0.0
 10
-11.89991
 20
-14.833
 30
0.0
 10
-11.90682
 20
-14.84104
 30
0.0
 10
-11.9162
 20
-14.84746
 30
0.0
 10
-11.92799
 20
-14.85219
 30
0.0
 10
-11.92799
 20
-14.85219
 30
0.0
 10
-11.93977
 20
-14.85698
 30
0.0
 10
-11.95437
 20
-14.85938
 30
0.0
 10
-11.9718
 20
-14.85952
 30
0.0
 10
-11.9718
 20
-14.85952
 30
0.0
 10
-11.9718
 20
-14.85952
 30
0.0
 10
-12.07721
 20
-14.85952
 30
0.0
 10
-12.07721
 20
-14.85952
 30
0.0
 10
-12.07721
 20
-14.85952
 30
0.0
 10
-12.07721
 20
-14.85952
 30
0.0
 10
-11.9718
 20
-14.85952
 30
0.0
 10
-11.9718
 20
-14.85952
 30
0.0
 10
-11.9718
 20
-14.85952
 30
0.0
 10
-11.95473
 20
-14.85938
 30
0.0
 10
-11.94026
 20
-14.85698
 30
0.0
 10
-11.92855
 20
-14.85219
 30
0.0
 10
-11.92855
 20
-14.85219
 30
0.0
 10
-11.91677
 20
-14.84746
 30
0.0
 10
-11.90738
 20
-14.84104
 30
0.0
 10
-11.90033
 20
-14.833
 30
0.0
 10
-11.90033
 20
-14.833
 30
0.0
 10
-11.89334
 20
-14.82495
 30
0.0
 10
-11.88833
 20
-14.81599
 30
0.0
 10
-11.88537
 20
-14.80611
 30
0.0
 10
-11.88537
 20
-14.80611
 30
0.0
 10
-11.88241
 20
-14.79624
 30
0.0
 10
-11.88114
 20
-14.78608
 30
0.0
 10
-11.88163
 20
-14.77571
 30
0.0
 10
-11.88163
 20
-14.77571
 30
0.0
 10
-11.88206
 20
-14.76533
 30
0.0
 10
-11.88382
 20
-14.75553
 30
0.0
 10
-11.88699
 20
-14.74614
 30
0.0
 10
-11.88699
 20
-14.74614
 30
0.0
 10
-11.8901
 20
-14.73676
 30
0.0
 10
-11.89532
 20
-14.72843
 30
0.0
 10
-11.90245
 20
-14.72117
 30
0.0
 10
-11.90245
 20
-14.72117
 30
0.0
 10
-11.90964
 20
-14.71383
 30
0.0
 10
-11.91952
 20
-14.70804
 30
0.0
 10
-11.93208
 20
-14.70388
 30
0.0
 10
-11.93208
 20
-14.70388
 30
0.0
 10
-11.94471
 20
-14.69965
 30
0.0
 10
-11.96058
 20
-14.69746
 30
0.0
 10
-11.97984
 20
-14.69739
 30
0.0
 10
-11.97984
 20
-14.69739
 30
0.0
 10
-11.97984
 20
-14.69739
 30
0.0
 10
-12.07721
 20
-14.69739
 30
0.0
 10
-12.07721
 20
-14.69739
 30
0.0
 10
-12.07721
 20
-14.69739
 30
0.0
 10
-12.07721
 20
-14.69739
 30
0.0
 10
-12.07721
 20
-15.00261
 30
0.0
 10
-12.07721
 20
-15.00261
 30
0.0
  0
SPLINE
  5
6A
330
1F
100
AcDbEntity
  8
Layer 1
 62
     5
370
    53
100
AcDbSpline
210
0.0
220
0.0
230
1.0
 70
    11
 71
     3
 72
    60
 73
    56
 74
     0
 42
0.0000000001
 43
0.0000000001
 40
0.0
 40
0.0
 40
0.0
 40
0.0
 40
0.0714285714285714
 40
0.0714285714285714
 40
0.0714285714285714
 40
0.0714285714285714
 40
0.1428571428571428
 40
0.1428571428571428
 40
0.1428571428571428
 40
0.1428571428571428
 40
0.2142857142857143
 40
0.2142857142857143
 40
0.2142857142857143
 40
0.2142857142857143
 40
0.2857142857142857
 40
0.2857142857142857
 40
0.2857142857142857
 40
0.2857142857142857
 40
0.3571428571428571
 40
0.3571428571428571
 40
0.3571428571428571
 40
0.3571428571428571
 40
0.4285714285714285
 40
0.4285714285714285
 40
0.4285714285714285
 40
0.4285714285714285
 40
0.4999999999999999
 40
0.4999999999999999
 40
0.4999999999999999
 40
0.4999999999999999
 40
0.5714285714285713
 40
0.5714285714285713
 40
0.5714285714285713
 40
0.5714285714285713
 40
0.6428571428571427
 40
0.6428571428571427
 40
0.6428571428571427
 40
0.6428571428571427
 40
0.7142857142857141
 40
0.7142857142857141
 40
0.7142857142857141
 40
0.7142857142857141
 40
0.7857142857142855
 40
0.7857142857142855
 40
0.7857142857142855
 40
0.7857142857142855
 40
0.8571428571428569
 40
0.8571428571428569
 40
0.8571428571428569
 40
0.8571428571428569
 40
0.9285714285714283
 40
0.9285714285714283
 40
0.9285714285714283
 40
0.9285714285714283
 40
1.0
 40
1.0
 40
1.0
 40
1.0
 10
-11.51376
 20
-15.00261
 30
0.0
 10
-11.51658
 20
-15.00056
 30
0.0
 10
-11.5187
 20
-14.99809
 30
0.0
 10
-11.52025
 20
-14.9952
 30
0.0
 10
-11.52025
 20
-14.9952
 30
0.0
 10
-11.52181
 20
-14.99231
 30
0.0
 10
-11.52286
 20
-14.98942
 30
0.0
 10
-11.5235
 20
-14.98659
 30
0.0
 10
-11.5235
 20
-14.98659
 30
0.0
 10
-11.52406
 20
-14.98384
 30
0.0
 10
-11.52435
 20
-14.98151
 30
0.0
 10
-11.52435
 20
-14.97975
 30
0.0
 10
-11.52435
 20
-14.97975
 30
0.0
 10
-11.52435
 20
-14.97975
 30
0.0
 10
-11.53197
 20
-14.9027
 30
0.0
 10
-11.53197
 20
-14.9027
 30
0.0
 10
-11.53197
 20
-14.9027
 30
0.0
 10
-11.53281
 20
-14.89163
 30
0.0
 10
-11.53606
 20
-14.88189
 30
0.0
 10
-11.54163
 20
-14.87356
 30
0.0
 10
-11.54163
 20
-14.87356
 30
0.0
 10
-11.54728
 20
-14.86517
 30
0.0
 10
-11.55532
 20
-14.85868
 30
0.0
 10
-11.5659
 20
-14.85395
 30
0.0
 10
-11.5659
 20
-14.85395
 30
0.0
 10
-11.57642
 20
-14.84929
 30
0.0
 10
-11.58954
 20
-14.8469
 30
0.0
 10
-11.6052
 20
-14.84682
 30
0.0
 10
-11.6052
 20
-14.84682
 30
0.0
 10
-11.58954
 20
-14.8469
 30
0.0
 10
-11.57642
 20
-14.84929
 30
0.0
 10
-11.5659
 20
-14.85395
 30
0.0
 10
-11.5659
 20
-14.85395
 30
0.0
 10
-11.55532
 20
-14.85868
 30
0.0
 10
-11.54728
 20
-14.86517
 30
0.0
 10
-11.54163
 20
-14.87356
 30
0.0
 10
-11.54163
 20
-14.87356
 30
0.0
 10
-11.53606
 20
-14.88189
 30
0.0
 10
-11.53281
 20
-14.89163
 30
0.0
 10
-11.53197
 20
-14.9027
 30
0.0
 10
-11.53197
 20
-14.9027
 30
0.0
 10
-11.53197
 20
-14.9027
 30
0.0
 10
-11.52435
 20
-14.97975
 30
0.0
 10
-11.52435
 20
-14.97975
 30
0.0
 10
-11.52435
 20
-14.97975
 30
0.0
 10
-11.52435
 20
-14.98151
 30
0.0
 10
-11.52406
 20
-14.98384
 30
0.0
 10
-11.5235
 20
-14.98659
 30
0.0
 10
-11.5235
 20
-14.98659
 30
0.0
 10
-11.52286
 20
-14.98942
 30
0.0
 10
-11.52181
 20
-14.99231
 30
0.0
 10
-11.52025
 20
-14.9952
 30
0.0
 10
-11.52025
 20
-14.9952
 30
0.0
 10
-11.5187
 20
-14.99809
 30
0.0
 10
-11.51658
 20
-15.00056
 30
0.0
 10
-11.51376
 20
-15.00261
 30
0.0
  0
SPLINE
  5
6B
330
1F
100
AcDbEntity
  8
Layer 1
 62
     5
370
    53
100
AcDbSpline
210
0.0
220
0.0
230
1.0
 70
    11
 71
     3
 72
    96
 73
    92
 74
     0
 42
0.0000000001
 43
0.0000000001
 40
0.0
 40
0.0
 40
0.0
 40
0.0
 40
0.0434782608695652
 40
0.0434782608695652
 40
0.0434782608695652
 40
0.0434782608695652
 40
0.0869565217391304
 40
0.0869565217391304
 40
0.0869565217391304
 40
0.0869565217391304
 40
0.1304347826086956
 40
0.1304347826086956
 40
0.1304347826086956
 40
0.1304347826086956
 40
0.1739130434782609
 40
0.1739130434782609
 40
0.1739130434782609
 40
0.1739130434782609
 40
0.2173913043478261
 40
0.2173913043478261
 40
0.2173913043478261
 40
0.2173913043478261
 40
0.2608695652173913
 40
0.2608695652173913
 40
0.2608695652173913
 40
0.2608695652173913
 40
0.3043478260869565
 40
0.3043478260869565
 40
0.3043478260869565
 40
0.3043478260869565
 40
0.3478260869565217
 40
0.3478260869565217
 40
0.3478260869565217
 40
0.3478260869565217
 40
0.3913043478260869
 40
0.3913043478260869
 40
0.3913043478260869
 40
0.3913043478260869
 40
0.4347826086956521
 40
0.4347826086956521
 40
0.4347826086956521
 40
0.4347826086956521
 40
0.4782608695652173
 40
0.4782608695652173
 40
0.4782608695652173
 40
0.4782608695652173
 40
0.5217391304347825
 40
0.5217391304347825
 40
0.5217391304347825
 40
0.5217391304347825
 40
0.5652173913043477
 40
0.5652173913043477
 40
0.5652173913043477
 40
0.5652173913043477
 40
0.6086956521739129
 40
0.6086956521739129
 40
0.6086956521739129
 40
0.6086956521739129
 40
0.652173913043478
 40
0.652173913043478
 40
0.652173913043478
 40
0.652173913043478
 40
0.6956521739130432
 40
0.6956521739130432
 40
0.6956521739130432
 40
0.6956521739130432
 40
0.7391304347826084
 40
0.7391304347826084
 40
0.7391304347826084
 40
0.7391304347826084
 40
0.7826086956521736
 40
0.7826086956521736
 40
0.7826086956521736
 40
0.7826086956521736
 40
0.8260869565217388
 40
0.8260869565217388
 40
0.8260869565217388
 40
0.8260869565217388
 40
0.869565217391304
 40
0.869565217391304
 40
0.869565217391304
 40
0.869565217391304
 40
0.9130434782608692
 40
0.9130434782608692
 40
0.9130434782608692
 40
0.9130434782608692
 40
0.9565217391304344
 40
0.9565217391304344
 40
0.9565217391304344
 40
0.9565217391304344
 40
1.0
 40
1.0
 40
1.0
 40
1.0
 10
-11.73093
 20
-15.00261
 30
0.0
 10
-11.73093
 20
-15.00261
 30
0.0
 10
-11.73093
 20
-14.69739
 30
0.0
 10
-11.73093
 20
-14.69739
 30
0.0
 10
-11.73093
 20
-14.69739
 30
0.0
 10
-11.73093
 20
-14.69739
 30
0.0
 10
-11.61959
 20
-14.69739
 30
0.0
 10
-11.61959
 20
-14.69739
 30
0.0
 10
-11.61959
 20
-14.69739
 30
0.0
 10
-11.60407
 20
-14.69739
 30
0.0
 10
-11.59081
 20
-14.69845
 30
0.0
 10
-11.57987
 20
-14.70049
 30
0.0
 10
-11.57987
 20
-14.70049
 30
0.0
 10
-11.56887
 20
-14.70254
 30
0.0
 10
-11.55976
 20
-14.7055
 30
0.0
 10
-11.55257
 20
-14.70938
 30
0.0
 10
-11.55257
 20
-14.70938
 30
0.0
 10
-11.54537
 20
-14.71326
 30
0.0
 10
-11.53973
 20
-14.71799
 30
0.0
 10
-11.53556
 20
-14.72356
 30
0.0
 10
-11.53556
 20
-14.72356
 30
0.0
 10
-11.53133
 20
-14.72907
 30
0.0
 10
-11.52837
 20
-14.73535
 30
0.0
 10
-11.52646
 20
-14.74233
 30
0.0
 10
-11.52646
 20
-14.74233
 30
0.0
 10
-11.52456
 20
-14.74932
 30
0.0
 10
-11.52343
 20
-14.75687
 30
0.0
 10
-11.52308
 20
-14.76512
 30
0.0
 10
-11.52308
 20
-14.76512
 30
0.0
 10
-11.52258
 20
-14.77549
 30
0.0
 10
-11.52371
 20
-14.78551
 30
0.0
 10
-11.52639
 20
-14.79518
 30
0.0
 10
-11.52639
 20
-14.79518
 30
0.0
 10
-11.52914
 20
-14.80491
 30
0.0
 10
-11.53387
 20
-14.81359
 30
0.0
 10
-11.54057
 20
-14.82135
 30
0.0
 10
-11.54057
 20
-14.82135
 30
0.0
 10
-11.54735
 20
-14.82912
 30
0.0
 10
-11.55645
 20
-14.83525
 30
0.0
 10
-11.56802
 20
-14.83984
 30
0.0
 10
-11.56802
 20
-14.83984
 30
0.0
 10
-11.57959
 20
-14.84436
 30
0.0
 10
-11.59391
 20
-14.84675
 30
0.0
 10
-11.61113
 20
-14.84682
 30
0.0
 10
-11.61113
 20
-14.84682
 30
0.0
 10
-11.61113
 20
-14.84682
 30
0.0
 10
-11.73093
 20
-14.84682
 30
0.0
 10
-11.73093
 20
-14.84682
 30
0.0
 10
-11.73093
 20
-14.84682
 30
0.0
 10
-11.73093
 20
-14.84682
 30
0.0
 10
-11.61113
 20
-14.84682
 30
0.0
 10
-11.61113
 20
-14.84682
 30
0.0
 10
-11.61113
 20
-14.84682
 30
0.0
 10
-11.59427
 20
-14.84675
 30
0.0
 10
-11.58008
 20
-14.84436
 30
0.0
 10
-11.56858
 20
-14.83984
 30
0.0
 10
-11.56858
 20
-14.83984
 30
0.0
 10
-11.55708
 20
-14.83525
 30
0.0
 10
-11.54791
 20
-14.82912
 30
0.0
 10
-11.54107
 20
-14.82135
 30
0.0
 10
-11.54107
 20
-14.82135
 30
0.0
 10
-11.53422
 20
-14.81359
 30
0.0
 10
-11.52943
 20
-14.80491
 30
0.0
 10
-11.5266
 20
-14.79518
 30
0.0
 10
-11.5266
 20
-14.79518
 30
0.0
 10
-11.52378
 20
-14.78551
 30
0.0
 10
-11.52258
 20
-14.77549
 30
0.0
 10
-11.52308
 20
-14.76512
 30
0.0
 10
-11.52308
 20
-14.76512
 30
0.0
 10
-11.5235
 20
-14.75482
 30
0.0
 10
-11.52526
 20
-14.74551
 30
0.0
 10
-11.52837
 20
-14.73718
 30
0.0
 10
-11.52837
 20
-14.73718
 30
0.0
 10
-11.5314
 20
-14.72893
 30
0.0
 10
-11.53648
 20
-14.7218
 30
0.0
 10
-11.54354
 20
-14.71587
 30
0.0
 10
-11.54354
 20
-14.71587
 30
0.0
 10
-11.55059
 20
-14.70995
 30
0.0
 10
-11.56033
 20
-14.70536
 30
0.0
 10
-11.57268
 20
-14.70219
 30
0.0
 10
-11.57268
 20
-14.70219
 30
0.0
 10
-11.58502
 20
-14.69901
 30
0.0
 10
-11.60069
 20
-14.69739
 30
0.0
 10
-11.61959
 20
-14.69739
 30
0.0
 10
-11.61959
 20
-14.69739
 30
0.0
 10
-11.61959
 20
-14.69739
 30
0.0
 10
-11.73093
 20
-14.69739
 30
0.0
 10
-11.73093
 20
-14.69739
 30
0.0
 10
-11.73093
 20
-14.69739
 30
0.0
 10
-11.73093
 20
-14.69739
 30
0.0
 10
-11.73093
 20
-15.00261
 30
0.0
 10
-11.73093
 20
-15.00261
 30
0.0
  0
SPLINE
  5
6C
330
1F
100
AcDbEntity
  8
Layer 1
 62
     5
370
    53
100
AcDbSpline
210
0.0
220
0.0
230
1.0
 70
    11
 71
     3
 72
    84
 73
    80
 74
     0
 42
0.0000000001
 43
0.0000000001
 40
0.0
 40
0.0
 40
0.0
 40
0.0
 40
0.05
 40
0.05
 40
0.05
 40
0.05
 40
0.1
 40
0.1
 40
0.1
 40
0.1
 40
0.15
 40
0.15
 40
0.15
 40
0.15
 40
0.2
 40
0.2
 40
0.2
 40
0.2
 40
0.25
 40
0.25
 40
0.25
 40
0.25
 40
0.3
 40
0.3
 40
0.3
 40
0.3
 40
0.35
 40
0.35
 40
0.35
 40
0.35
 40
0.4
 40
0.4
 40
0.4
 40
0.4
 40
0.45
 40
0.45
 40
0.45
 40
0.45
 40
0.4999999999999999
 40
0.4999999999999999
 40
0.4999999999999999
 40
0.4999999999999999
 40
0.5499999999999999
 40
0.5499999999999999
 40
0.5499999999999999
 40
0.5499999999999999
 40
0.6
 40
0.6
 40
0.6
 40
0.6
 40
0.65
 40
0.65
 40
0.65
 40
0.65
 40
0.7000000000000001
 40
0.7000000000000001
 40
0.7000000000000001
 40
0.7000000000000001
 40
0.7500000000000001
 40
0.7500000000000001
 40
0.7500000000000001
 40
0.7500000000000001
 40
0.8000000000000002
 40
0.8000000000000002
 40
0.8000000000000002
 40
0.8000000000000002
 40
0.8500000000000002
 40
0.8500000000000002
 40
0.8500000000000002
 40
0.8500000000000002
 40
0.9000000000000002
 40
0.9000000000000002
 40
0.9000000000000002
 40
0.9000000000000002
 40
0.9500000000000003
 40
0.9500000000000003
 40
0.9500000000000003
 40
0.9500000000000003
 40
1.0
 40
1.0
 40
1.0
 40
1.0
 10
-11.275
 20
-15.00515
 30
0.0
 10
-11.26011
 20
-15.00522
 30
0.0
 10
-11.246
 20
-15.00346
 30
0.0
 10
-11.23253
 20
-15.0
 30
0.0
 10
-11.23253
 20
-15.0
 30
0.0
 10
-11.21912
 20
-14.99647
 30
0.0
 10
-11.20685
 20
-14.99097
 30
0.0
 10
-11.19563
 20
-14.98335
 30
0.0
 10
-11.19563
 20
-14.98335
 30
0.0
 10
-11.18441
 20
-14.9758
 30
0.0
 10
-11.17467
 20
-14.96585
 30
0.0
 10
-11.16642
 20
-14.95357
 30
0.0
 10
-11.16642
 20
-14.95357
 30
0.0
 10
-11.15816
 20
-14.9413
 30
0.0
 10
-11.15181
 20
-14.92641
 30
0.0
 10
-11.1473
 20
-14.90891
 30
0.0
 10
-11.1473
 20
-14.90891
 30
0.0
 10
-11.14271
 20
-14.89142
 30
0.0
 10
-11.14045
 20
-14.87102
 30
0.0
 10
-11.14038
 20
-14.84767
 30
0.0
 10
-11.14038
 20
-14.84767
 30
0.0
 10
-11.14045
 20
-14.82432
 30
0.0
 10
-11.14271
 20
-14.80393
 30
0.0
 10
-11.1473
 20
-14.78636
 30
0.0
 10
-11.1473
 20
-14.78636
 30
0.0
 10
-11.15181
 20
-14.76879
 30
0.0
 10
-11.15816
 20
-14.75383
 30
0.0
 10
-11.16642
 20
-14.74149
 30
0.0
 10
-11.16642
 20
-14.74149
 30
0.0
 10
-11.17467
 20
-14.72914
 30
0.0
 10
-11.18441
 20
-14.71912
 30
0.0
 10
-11.19563
 20
-14.71143
 30
0.0
 10
-11.19563
 20
-14.71143
 30
0.0
 10
-11.20685
 20
-14.70374
 30
0.0
 10
-11.21912
 20
-14.69817
 30
0.0
 10
-11.23253
 20
-14.69457
 30
0.0
 10
-11.23253
 20
-14.69457
 30
0.0
 10
-11.246
 20
-14.69104
 30
0.0
 10
-11.26011
 20
-14.68928
 30
0.0
 10
-11.275
 20
-14.68935
 30
0.0
 10
-11.275
 20
-14.68935
 30
0.0
 10
-11.28989
 20
-14.68928
 30
0.0
 10
-11.304
 20
-14.69104
 30
0.0
 10
-11.31748
 20
-14.69457
 30
0.0
 10
-11.31748
 20
-14.69457
 30
0.0
 10
-11.33088
 20
-14.69817
 30
0.0
 10
-11.34316
 20
-14.70374
 30
0.0
 10
-11.35438
 20
-14.71143
 30
0.0
 10
-11.35438
 20
-14.71143
 30
0.0
 10
-11.36559
 20
-14.71912
 30
0.0
 10
-11.37533
 20
-14.72914
 30
0.0
 10
-11.38359
 20
-14.74149
 30
0.0
 10
-11.38359
 20
-14.74149
 30
0.0
 10
-11.39184
 20
-14.75383
 30
0.0
 10
-11.39819
 20
-14.76879
 30
0.0
 10
-11.40271
 20
-14.78636
 30
0.0
 10
-11.40271
 20
-14.78636
 30
0.0
 10
-11.40729
 20
-14.80393
 30
0.0
 10
-11.40955
 20
-14.82432
 30
0.0
 10
-11.40962
 20
-14.84767
 30
0.0
 10
-11.40962
 20
-14.84767
 30
0.0
 10
-11.40955
 20
-14.87102
 30
0.0
 10
-11.40729
 20
-14.89142
 30
0.0
 10
-11.40271
 20
-14.90891
 30
0.0
 10
-11.40271
 20
-14.90891
 30
0.0
 10
-11.39819
 20
-14.92641
 30
0.0
 10
-11.39184
 20
-14.9413
 30
0.0
 10
-11.38359
 20
-14.95357
 30
0.0
 10
-11.38359
 20
-14.95357
 30
0.0
 10
-11.37533
 20
-14.96585
 30
0.0
 10
-11.36559
 20
-14.9758
 30
0.0
 10
-11.35438
 20
-14.98335
 30
0.0
 10
-11.35438
 20
-14.98335
 30
0.0
 10
-11.34316
 20
-14.99097
 30
0.0
 10
-11.33088
 20
-14.99647
 30
0.0
 10
-11.31748
 20
-15.0
 30
0.0
 10
-11.31748
 20
-15.0
 30
0.0
 10
-11.304
 20
-15.00346
 30
0.0
 10
-11.28989
 20
-15.00522
 30
0.0
 10
-11.275
 20
-15.00515
 30
0.0
  0
SPLINE
  5
6D
330
1F
100
AcDbEntity
  8
Layer 1
 62
     5
370
    53
100
AcDbSpline
210
0.0
220
0.0
230
1.0
 70
    11
 71
     3
 72
    84
 73
    80
 74
     0
 42
0.0000000001
 43
0.0000000001
 40
0.0
 40
0.0
 40
0.0
 40
0.0
 40
0.05
 40
0.05
 40
0.05
 40
0.05
 40
0.1
 40
0.1
 40
0.1
 40
0.1
 40
0.15
 40
0.15
 40
0.15
 40
0.15
 40
0.2
 40
0.2
 40
0.2
 40
0.2
 40
0.25
 40
0.25
 40
0.25
 40
0.25
 40
0.3
 40
0.3
 40
0.3
 40
0.3
 40
0.35
 40
0.35
 40
0.35
 40
0.35
 40
0.4
 40
0.4
 40
0.4
 40
0.4
 40
0.45
 40
0.45
 40
0.45
 40
0.45
 40
0.4999999999999999
 40
0.4999999999999999
 40
0.4999999999999999
 40
0.4999999999999999
 40
0.5499999999999999
 40
0.5499999999999999
 40
0.5499999999999999
 40
0.5499999999999999
 40
0.6
 40
0.6
 40
0.6
 40
0.6
 40
0.65
 40
0.65
 40
0.65
 40
0.65
 40
0.7000000000000001
 40
0.7000000000000001
 40
0.7000000000000001
 40
0.7000000000000001
 40
0.7500000000000001
 40
0.7500000000000001
 40
0.7500000000000001
 40
0.7500000000000001
 40
0.8000000000000002
 40
0.8000000000000002
 40
0.8000000000000002
 40
0.8000000000000002
 40
0.8500000000000002
 40
0.8500000000000002
 40
0.8500000000000002
 40
0.8500000000000002
 40
0.9000000000000002
 40
0.9000000000000002
 40
0.9000000000000002
 40
0.9000000000000002
 40
0.9500000000000003
 40
0.9500000000000003
 40
0.9500000000000003
 40
0.9500000000000003
 40
1.0
 40
1.0
 40
1.0
 40
1.0
 10
-11.275
 20
-15.00515
 30
0.0
 10
-11.26011
 20
-15.00522
 30
0.0
 10
-11.246
 20
-15.00346
 30
0.0
 10
-11.23253
 20
-15.0
 30
0.0
 10
-11.23253
 20
-15.0
 30
0.0
 10
-11.21912
 20
-14.99647
 30
0.0
 10
-11.20685
 20
-14.99097
 30
0.0
 10
-11.19563
 20
-14.98335
 30
0.0
 10
-11.19563
 20
-14.98335
 30
0.0
 10
-11.18441
 20
-14.9758
 30
0.0
 10
-11.17467
 20
-14.96585
 30
0.0
 10
-11.16642
 20
-14.95357
 30
0.0
 10
-11.16642
 20
-14.95357
 30
0.0
 10
-11.15816
 20
-14.9413
 30
0.0
 10
-11.15181
 20
-14.92641
 30
0.0
 10
-11.1473
 20
-14.90891
 30
0.0
 10
-11.1473
 20
-14.90891
 30
0.0
 10
-11.14271
 20
-14.89142
 30
0.0
 10
-11.14045
 20
-14.87102
 30
0.0
 10
-11.14038
 20
-14.84767
 30
0.0
 10
-11.14038
 20
-14.84767
 30
0.0
 10
-11.14045
 20
-14.82432
 30
0.0
 10
-11.14271
 20
-14.80393
 30
0.0
 10
-11.1473
 20
-14.78636
 30
0.0
 10
-11.1473
 20
-14.78636
 30
0.0
 10
-11.15181
 20
-14.76879
 30
0.0
 10
-11.15816
 20
-14.75383
 30
0.0
 10
-11.16642
 20
-14.74149
 30
0.0
 10
-11.16642
 20
-14.74149
 30
0.0
 10
-11.17467
 20
-14.72914
 30
0.0
 10
-11.18441
 20
-14.71912
 30
0.0
 10
-11.19563
 20
-14.71143
 30
0.0
 10
-11.19563
 20
-14.71143
 30
0.0
 10
-11.20685
 20
-14.70374
 30
0.0
 10
-11.21912
 20
-14.69817
 30
0.0
 10
-11.23253
 20
-14.69457
 30
0.0
 10
-11.23253
 20
-14.69457
 30
0.0
 10
-11.246
 20
-14.69104
 30
0.0
 10
-11.26011
 20
-14.68928
 30
0.0
 10
-11.275
 20
-14.68935
 30
0.0
 10
-11.275
 20
-14.68935
 30
0.0
 10
-11.28989
 20
-14.68928
 30
0.0
 10
-11.304
 20
-14.69104
 30
0.0
 10
-11.31748
 20
-14.69457
 30
0.0
 10
-11.31748
 20
-14.69457
 30
0.0
 10
-11.33088
 20
-14.69817
 30
0.0
 10
-11.34316
 20
-14.70374
 30
0.0
 10
-11.35438
 20
-14.71143
 30
0.0
 10
-11.35438
 20
-14.71143
 30
0.0
 10
-11.36559
 20
-14.71912
 30
0.0
 10
-11.37533
 20
-14.72914
 30
0.0
 10
-11.38359
 20
-14.74149
 30
0.0
 10
-11.38359
 20
-14.74149
 30
0.0
 10
-11.39184
 20
-14.75383
 30
0.0
 10
-11.39819
 20
-14.76879
 30
0.0
 10
-11.40271
 20
-14.78636
 30
0.0
 10
-11.40271
 20
-14.78636
 30
0.0
 10
-11.40729
 20
-14.80393
 30
0.0
 10
-11.40955
 20
-14.82432
 30
0.0
 10
-11.40962
 20
-14.84767
 30
0.0
 10
-11.40962
 20
-14.84767
 30
0.0
 10
-11.40955
 20
-14.87102
 30
0.0
 10
-11.40729
 20
-14.89142
 30
0.0
 10
-11.40271
 20
-14.90891
 30
0.0
 10
-11.40271
 20
-14.90891
 30
0.0
 10
-11.39819
 20
-14.92641
 30
0.0
 10
-11.39184
 20
-14.9413
 30
0.0
 10
-11.38359
 20
-14.95357
 30
0.0
 10
-11.38359
 20
-14.95357
 30
0.0
 10
-11.37533
 20
-14.96585
 30
0.0
 10
-11.36559
 20
-14.9758
 30
0.0
 10
-11.35438
 20
-14.98335
 30
0.0
 10
-11.35438
 20
-14.98335
 30
0.0
 10
-11.34316
 20
-14.99097
 30
0.0
 10
-11.33088
 20
-14.99647
 30
0.0
 10
-11.31748
 20
-15.0
 30
0.0
 10
-11.31748
 20
-15.0
 30
0.0
 10
-11.304
 20
-15.00346
 30
0.0
 10
-11.28989
 20
-15.00522
 30
0.0
 10
-11.275
 20
-15.00515
 30
0.0
  0
SPLINE
  5
6E
330
1F
100
AcDbEntity
  8
Layer 1
 62
     5
370
    53
100
AcDbSpline
210
0.0
220
0.0
230
1.0
 70
    11
 71
     3
 72
    36
 73
    32
 74
     0
 42
0.0000000001
 43
0.0000000001
 40
0.0
 40
0.0
 40
0.0
 40
0.0
 40
0.125
 40
0.125
 40
0.125
 40
0.125
 40
0.25
 40
0.25
 40
0.25
 40
0.25
 40
0.375
 40
0.375
 40
0.375
 40
0.375
 40
0.5
 40
0.5
 40
0.5
 40
0.5
 40
0.625
 40
0.625
 40
0.625
 40
0.625
 40
0.75
 40
0.75
 40
0.75
 40
0.75
 40
0.875
 40
0.875
 40
0.875
 40
0.875
 40
1.0
 40
1.0
 40
1.0
 40
1.0
 10
-11.03582
 20
-15.00049
 30
0.0
 10
-11.03582
 20
-15.00049
 30
0.0
 10
-10.93337
 20
-14.84894
 30
0.0
 10
-10.93337
 20
-14.84894
 30
0.0
 10
-10.93337
 20
-14.84894
 30
0.0
 10
-10.93337
 20
-14.84894
 30
0.0
 10
-11.03413
 20
-14.69739
 30
0.0
 10
-11.03413
 20
-14.69739
 30
0.0
 10
-11.03413
 20
-14.69739
 30
0.0
 10
-11.03413
 20
-14.69739
 30
0.0
 10
-10.93337
 20
-14.84894
 30
0.0
 10
-10.93337
 20
-14.84894
 30
0.0
 10
-10.93337
 20
-14.84894
 30
0.0
 10
-10.93337
 20
-14.84894
 30
0.0
 10
-10.83135
 20
-14.69739
 30
0.0
 10
-10.83135
 20
-14.69739
 30
0.0
 10
-10.83135
 20
-14.69739
 30
0.0
 10
-10.83135
 20
-14.69739
 30
0.0
 10
-10.93337
 20
-14.84894
 30
0.0
 10
-10.93337
 20
-14.84894
 30
0.0
 10
-10.93337
 20
-14.84894
 30
0.0
 10
-10.93337
 20
-14.84894
 30
0.0
 10
-10.83135
 20
-15.00261
 30
0.0
 10
-10.83135
 20
-15.00261
 30
0.0
 10
-10.83135
 20
-15.00261
 30
0.0
 10
-10.83135
 20
-15.00261
 30
0.0
 10
-10.93337
 20
-14.84894
 30
0.0
 10
-10.93337
 20
-14.84894
 30
0.0
 10
-10.93337
 20
-14.84894
 30
0.0
 10
-10.93337
 20
-14.84894
 30
0.0
 10
-11.03582
 20
-15.00049
 30
0.0
 10
-11.03582
 20
-15.00049
 30
0.0
  0
SPLINE
  5
6F
330
1F
100
AcDbEntity
  8
Layer 1
 62
     5
370
    53
100
AcDbSpline
210
0.0
220
0.0
230
1.0
 70
    11
 71
     3
 72
    84
 73
    80
 74
     0
 42
0.0000000001
 43
0.0000000001
 40
0.0
 40
0.0
 40
0.0
 40
0.0
 40
0.05
 40
0.05
 40
0.05
 40
0.05
 40
0.1
 40
0.1
 40
0.1
 40
0.1
 40
0.15
 40
0.15
 40
0.15
 40
0.15
 40
0.2
 40
0.2
 40
0.2
 40
0.2
 40
0.25
 40
0.25
 40
0.25
 40
0.25
 40
0.3
 40
0.3
 40
0.3
 40
0.3
 40
0.35
 40
0.35
 40
0.35
 40
0.35
 40
0.4
 40
0.4
 40
0.4
 40
0.4
 40
0.45
 40
0.45
 40
0.45
 40
0.45
 40
0.4999999999999999
 40
0.4999999999999999
 40
0.4999999999999999
 40
0.4999999999999999
 40
0.5499999999999999
 40
0.5499999999999999
 40
0.5499999999999999
 40
0.5499999999999999
 40
0.6
 40
0.6
 40
0.6
 40
0.6
 40
0.65
 40
0.65
 40
0.65
 40
0.65
 40
0.7000000000000001
 40
0.7000000000000001
 40
0.7000000000000001
 40
0.7000000000000001
 40
0.7500000000000001
 40
0.7500000000000001
 40
0.7500000000000001
 40
0.7500000000000001
 40
0.8000000000000002
 40
0.8000000000000002
 40
0.8000000000000002
 40
0.8000000000000002
 40
0.8500000000000002
 40
0.8500000000000002
 40
0.8500000000000002
 40
0.8500000000000002
 40
0.9000000000000002
 40
0.9000000000000002
 40
0.9000000000000002
 40
0.9000000000000002
 40
0.9500000000000003
 40
0.9500000000000003
 40
0.9500000000000003
 40
0.9500000000000003
 40
1.0
 40
1.0
 40
1.0
 40
1.0
 10
-12.00926
 20
-15.57792
 30
0.0
 10
-11.99445
 20
-15.57785
 30
0.0
 10
-11.98168
 20
-15.57524
 30
0.0
 10
-11.97102
 20
-15.57016
 30
0.0
 10
-11.97102
 20
-15.57016
 30
0.0
 10
-11.96044
 20
-15.56508
 30
0.0
 10
-11.95162
 20
-15.55781
 30
0.0
 10
-11.94457
 20
-15.54857
 30
0.0
 10
-11.94457
 20
-15.54857
 30
0.0
 10
-11.93758
 20
-15.53926
 30
0.0
 10
-11.93208
 20
-15.52825
 30
0.0
 10
-11.92799
 20
-15.51555
 30
0.0
 10
-11.92799
 20
-15.51555
 30
0.0
 10
-11.92396
 20
-15.50285
 30
0.0
 10
-11.92107
 20
-15.48895
 30
0.0
 10
-11.91945
 20
-15.47371
 30
0.0
 10
-11.91945
 20
-15.47371
 30
0.0
 10
-11.91775
 20
-15.45847
 30
0.0
 10
-11.91691
 20
-15.44245
 30
0.0
 10
-11.91698
 20
-15.42552
 30
0.0
 10
-11.91698
 20
-15.42552
 30
0.0
 10
-11.91691
 20
-15.40866
 30
0.0
 10
-11.91775
 20
-15.39264
 30
0.0
 10
-11.91945
 20
-15.37747
 30
0.0
 10
-11.91945
 20
-15.37747
 30
0.0
 10
-11.92107
 20
-15.3623
 30
0.0
 10
-11.92396
 20
-15.34833
 30
0.0
 10
-11.92799
 20
-15.33563
 30
0.0
 10
-11.92799
 20
-15.33563
 30
0.0
 10
-11.93208
 20
-15.323
 30
0.0
 10
-11.93758
 20
-15.312
 30
0.0
 10
-11.94457
 20
-15.30261
 30
0.0
 10
-11.94457
 20
-15.30261
 30
0.0
 10
-11.95162
 20
-15.2933
 30
0.0
 10
-11.96044
 20
-15.28603
 30
0.0
 10
-11.97102
 20
-15.28095
 30
0.0
 10
-11.97102
 20
-15.28095
 30
0.0
 10
-11.98168
 20
-15.2758
 30
0.0
 10
-11.99445
 20
-15.27319
 30
0.0
 10
-12.00926
 20
-15.27312
 30
0.0
 10
-12.00926
 20
-15.27312
 30
0.0
 10
-12.02408
 20
-15.27319
 30
0.0
 10
-12.03685
 20
-15.2758
 30
0.0
 10
-12.04751
 20
-15.28095
 30
0.0
 10
-12.04751
 20
-15.28095
 30
0.0
 10
-12.05809
 20
-15.28603
 30
0.0
 10
-12.06691
 20
-15.2933
 30
0.0
 10
-12.07396
 20
-15.30261
 30
0.0
 10
-12.07396
 20
-15.30261
 30
0.0
 10
-12.08095
 20
-15.312
 30
0.0
 10
-12.08645
 20
-15.323
 30
0.0
 10
-12.09054
 20
-15.33563
 30
0.0
 10
-12.09054
 20
-15.33563
 30
0.0
 10
-12.09457
 20
-15.34833
 30
0.0
 10
-12.09746
 20
-15.3623
 30
0.0
 10
-12.09908
 20
-15.37747
 30
0.0
 10
-12.09908
 20
-15.37747
 30
0.0
 10
-12.10077
 20
-15.39264
 30
0.0
 10
-12.10162
 20
-15.40866
 30
0.0
 10
-12.10155
 20
-15.42552
 30
0.0
 10
-12.10155
 20
-15.42552
 30
0.0
 10
-12.10162
 20
-15.44245
 30
0.0
 10
-12.10077
 20
-15.45847
 30
0.0
 10
-12.09908
 20
-15.47371
 30
0.0
 10
-12.09908
 20
-15.47371
 30
0.0
 10
-12.09746
 20
-15.48895
 30
0.0
 10
-12.09457
 20
-15.50285
 30
0.0
 10
-12.09054
 20
-15.51555
 30
0.0
 10
-12.09054
 20
-15.51555
 30
0.0
 10
-12.08645
 20
-15.52825
 30
0.0
 10
-12.08095
 20
-15.53926
 30
0.0
 10
-12.07396
 20
-15.54857
 30
0.0
 10
-12.07396
 20
-15.54857
 30
0.0
 10
-12.06691
 20
-15.55781
 30
0.0
 10
-12.05809
 20
-15.56508
 30
0.0
 10
-12.04751
 20
-15.57016
 30
0.0
 10
-12.04751
 20
-15.57016
 30
0.0
 10
-12.03685
 20
-15.57524
 30
0.0
 10
-12.02408
 20
-15.57785
 30
0.0
 10
-12.00926
 20
-15.57792
 30
0.0
  0
SPLINE
  5
70
330
1F
100
AcDbEntity
  8
Layer 1
 62
     5
370
    53
100
AcDbSpline
210
0.0
220
0.0
230
1.0
 70
    11
 71
     3
 72
    84
 73
    80
 74
     0
 42
0.0000000001
 43
0.0000000001
 40
0.0
 40
0.0
 40
0.0
 40
0.0
 40
0.05
 40
0.05
 40
0.05
 40
0.05
 40
0.1
 40
0.1
 40
0.1
 40
0.1
 40
0.15
 40
0.15
 40
0.15
 40
0.15
 40
0.2
 40
0.2
 40
0.2
 40
0.2
 40
0.25
 40
0.25
 40
0.25
 40
0.25
 40
0.3
 40
0.3
 40
0.3
 40
0.3
 40
0.35
 40
0.35
 40
0.35
 40
0.35
 40
0.4
 40
0.4
 40
0.4
 40
0.4
 40
0.45
 40
0.45
 40
0.45
 40
0.45
 40
0.4999999999999999
 40
0.4999999999999999
 40
0.4999999999999999
 40
0.4999999999999999
 40
0.5499999999999999
 40
0.5499999999999999
 40
0.5499999999999999
 40
0.5499999999999999
 40
0.6
 40
0.6
 40
0.6
 40
0.6
 40
0.65
 40
0.65
 40
0.65
 40
0.65
 40
0.7000000000000001
 40
0.7000000000000001
 40
0.7000000000000001
 40
0.7000000000000001
 40
0.7500000000000001
 40
0.7500000000000001
 40
0.7500000000000001
 40
0.7500000000000001
 40
0.8000000000000002
 40
0.8000000000000002
 40
0.8000000000000002
 40
0.8000000000000002
 40
0.8500000000000002
 40
0.8500000000000002
 40
0.8500000000000002
 40
0.8500000000000002
 40
0.9000000000000002
 40
0.9000000000000002
 40
0.9000000000000002
 40
0.9000000000000002
 40
0.9500000000000003
 40
0.9500000000000003
 40
0.9500000000000003
 40
0.9500000000000003
 40
1.0
 40
1.0
 40
1.0
 40
1.0
 10
-12.00926
 20
-15.57792
 30
0.0
 10
-11.99445
 20
-15.57785
 30
0.0
 10
-11.98168
 20
-15.57524
 30
0.0
 10
-11.97102
 20
-15.57016
 30
0.0
 10
-11.97102
 20
-15.57016
 30
0.0
 10
-11.96044
 20
-15.56508
 30
0.0
 10
-11.95162
 20
-15.55781
 30
0.0
 10
-11.94457
 20
-15.54857
 30
0.0
 10
-11.94457
 20
-15.54857
 30
0.0
 10
-11.93758
 20
-15.53926
 30
0.0
 10
-11.93208
 20
-15.52825
 30
0.0
 10
-11.92799
 20
-15.51555
 30
0.0
 10
-11.92799
 20
-15.51555
 30
0.0
 10
-11.92396
 20
-15.50285
 30
0.0
 10
-11.92107
 20
-15.48895
 30
0.0
 10
-11.91945
 20
-15.47371
 30
0.0
 10
-11.91945
 20
-15.47371
 30
0.0
 10
-11.91775
 20
-15.45847
 30
0.0
 10
-11.91691
 20
-15.44245
 30
0.0
 10
-11.91698
 20
-15.42552
 30
0.0
 10
-11.91698
 20
-15.42552
 30
0.0
 10
-11.91691
 20
-15.40866
 30
0.0
 10
-11.91775
 20
-15.39264
 30
0.0
 10
-11.91945
 20
-15.37747
 30
0.0
 10
-11.91945
 20
-15.37747
 30
0.0
 10
-11.92107
 20
-15.3623
 30
0.0
 10
-11.92396
 20
-15.34833
 30
0.0
 10
-11.92799
 20
-15.33563
 30
0.0
 10
-11.92799
 20
-15.33563
 30
0.0
 10
-11.93208
 20
-15.323
 30
0.0
 10
-11.93758
 20
-15.312
 30
0.0
 10
-11.94457
 20
-15.30261
 30
0.0
 10
-11.94457
 20
-15.30261
 30
0.0
 10
-11.95162
 20
-15.2933
 30
0.0
 10
-11.96044
 20
-15.28603
 30
0.0
 10
-11.97102
 20
-15.28095
 30
0.0
 10
-11.97102
 20
-15.28095
 30
0.0
 10
-11.98168
 20
-15.2758
 30
0.0
 10
-11.99445
 20
-15.27319
 30
0.0
 10
-12.00926
 20
-15.27312
 30
0.0
 10
-12.00926
 20
-15.27312
 30
0.0
 10
-12.02408
 20
-15.27319
 30
0.0
 10
-12.03685
 20
-15.2758
 30
0.0
 10
-12.04751
 20
-15.28095
 30
0.0
 10
-12.04751
 20
-15.28095
 30
0.0
 10
-12.05809
 20
-15.28603
 30
0.0
 10
-12.06691
 20
-15.2933
 30
0.0
 10
-12.07396
 20
-15.30261
 30
0.0
 10
-12.07396
 20
-15.30261
 30
0.0
 10
-12.08095
 20
-15.312
 30
0.0
 10
-12.08645
 20
-15.323
 30
0.0
 10
-12.09054
 20
-15.33563
 30
0.0
 10
-12.09054
 20
-15.33563
 30
0.0
 10
-12.09457
 20
-15.34833
 30
0.0
 10
-12.09746
 20
-15.3623
 30
0.0
 10
-12.09908
 20
-15.37747
 30
0.0
 10
-12.09908
 20
-15.37747
 30
0.0
 10
-12.10077
 20
-15.39264
 30
0.0
 10
-12.10162
 20
-15.40866
 30
0.0
 10
-12.10155
 20
-15.42552
 30
0.0
 10
-12.10155
 20
-15.42552
 30
0.0
 10
-12.10162
 20
-15.44245
 30
0.0
 10
-12.10077
 20
-15.45847
 30
0.0
 10
-12.09908
 20
-15.47371
 30
0.0
 10
-12.09908
 20
-15.47371
 30
0.0
 10
-12.09746
 20
-15.48895
 30
0.0
 10
-12.09457
 20
-15.50285
 30
0.0
 10
-12.09054
 20
-15.51555
 30
0.0
 10
-12.09054
 20
-15.51555
 30
0.0
 10
-12.08645
 20
-15.52825
 30
0.0
 10
-12.08095
 20
-15.53926
 30
0.0
 10
-12.07396
 20
-15.54857
 30
0.0
 10
-12.07396
 20
-15.54857
 30
0.0
 10
-12.06691
 20
-15.55781
 30
0.0
 10
-12.05809
 20
-15.56508
 30
0.0
 10
-12.04751
 20
-15.57016
 30
0.0
 10
-12.04751
 20
-15.57016
 30
0.0
 10
-12.03685
 20
-15.57524
 30
0.0
 10
-12.02408
 20
-15.57785
 30
0.0
 10
-12.00926
 20
-15.57792
 30
0.0
  0
SPLINE
  5
71
330
1F
100
AcDbEntity
  8
Layer 1
 62
     5
370
    53
100
AcDbSpline
210
0.0
220
0.0
230
1.0
 70
    11
 71
     3
 72
   180
 73
   176
 74
     0
 42
0.0000000001
 43
0.0000000001
 40
0.0
 40
0.0
 40
0.0
 40
0.0
 40
0.0227272727272727
 40
0.0227272727272727
 40
0.0227272727272727
 40
0.0227272727272727
 40
0.0454545454545455
 40
0.0454545454545455
 40
0.0454545454545455
 40
0.0454545454545455
 40
0.0681818181818182
 40
0.0681818181818182
 40
0.0681818181818182
 40
0.0681818181818182
 40
0.0909090909090909
 40
0.0909090909090909
 40
0.0909090909090909
 40
0.0909090909090909
 40
0.1136363636363636
 40
0.1136363636363636
 40
0.1136363636363636
 40
0.1136363636363636
 40
0.1363636363636364
 40
0.1363636363636364
 40
0.1363636363636364
 40
0.1363636363636364
 40
0.1590909090909091
 40
0.1590909090909091
 40
0.1590909090909091
 40
0.1590909090909091
 40
0.1818181818181819
 40
0.1818181818181819
 40
0.1818181818181819
 40
0.1818181818181819
 40
0.2045454545454546
 40
0.2045454545454546
 40
0.2045454545454546
 40
0.2045454545454546
 40
0.2272727272727273
 40
0.2272727272727273
 40
0.2272727272727273
 40
0.2272727272727273
 40
0.2500000000000001
 40
0.2500000000000001
 40
0.2500000000000001
 40
0.2500000000000001
 40
0.2727272727272728
 40
0.2727272727272728
 40
0.2727272727272728
 40
0.2727272727272728
 40
0.2954545454545455
 40
0.2954545454545455
 40
0.2954545454545455
 40
0.2954545454545455
 40
0.3181818181818182
 40
0.3181818181818182
 40
0.3181818181818182
 40
0.3181818181818182
 40
0.3409090909090909
 40
0.3409090909090909
 40
0.3409090909090909
 40
0.3409090909090909
 40
0.3636363636363636
 40
0.3636363636363636
 40
0.3636363636363636
 40
0.3636363636363636
 40
0.3863636363636363
 40
0.3863636363636363
 40
0.3863636363636363
 40
0.3863636363636363
 40
0.409090909090909
 40
0.409090909090909
 40
0.409090909090909
 40
0.409090909090909
 40
0.4318181818181817
 40
0.4318181818181817
 40
0.4318181818181817
 40
0.4318181818181817
 40
0.4545454545454544
 40
0.4545454545454544
 40
0.4545454545454544
 40
0.4545454545454544
 40
0.4772727272727271
 40
0.4772727272727271
 40
0.4772727272727271
 40
0.4772727272727271
 40
0.4999999999999998
 40
0.4999999999999998
 40
0.4999999999999998
 40
0.4999999999999998
 40
0.5227272727272726
 40
0.5227272727272726
 40
0.5227272727272726
 40
0.5227272727272726
 40
0.5454545454545453
 40
0.5454545454545453
 40
0.5454545454545453
 40
0.5454545454545453
 40
0.568181818181818
 40
0.568181818181818
 40
0.568181818181818
 40
0.568181818181818
 40
0.5909090909090907
 40
0.5909090909090907
 40
0.5909090909090907
 40
0.5909090909090907
 40
0.6136363636363634
 40
0.6136363636363634
 40
0.6136363636363634
 40
0.6136363636363634
 40
0.6363636363636361
 40
0.6363636363636361
 40
0.6363636363636361
 40
0.6363636363636361
 40
0.6590909090909088
 40
0.6590909090909088
 40
0.6590909090909088
 40
0.6590909090909088
 40
0.6818181818181815
 40
0.6818181818181815
 40
0.6818181818181815
 40
0.6818181818181815
 40
0.7045454545454543
 40
0.7045454545454543
 40
0.7045454545454543
 40
0.7045454545454543
 40
0.727272727272727
 40
0.727272727272727
 40
0.727272727272727
 40
0.727272727272727
 40
0.7499999999999997
 40
0.7499999999999997
 40
0.7499999999999997
 40
0.7499999999999997
 40
0.7727272727272724
 40
0.7727272727272724
 40
0.7727272727272724
 40
0.7727272727272724
 40
0.7954545454545451
 40
0.7954545454545451
 40
0.7954545454545451
 40
0.7954545454545451
 40
0.8181818181818178
 40
0.8181818181818178
 40
0.8181818181818178
 40
0.8181818181818178
 40
0.8409090909090905
 40
0.8409090909090905
 40
0.8409090909090905
 40
0.8409090909090905
 40
0.8636363636363632
 40
0.8636363636363632
 40
0.8636363636363632
 40
0.8636363636363632
 40
0.8863636363636359
 40
0.8863636363636359
 40
0.8863636363636359
 40
0.8863636363636359
 40
0.9090909090909086
 40
0.9090909090909086
 40
0.9090909090909086
 40
0.9090909090909086
 40
0.9318181818181813
 40
0.9318181818181813
 40
0.9318181818181813
 40
0.9318181818181813
 40
0.954545454545454
 40
0.954545454545454
 40
0.954545454545454
 40
0.954545454545454
 40
0.9772727272727267
 40
0.9772727272727267
 40
0.9772727272727267
 40
0.9772727272727267
 40
1.0
 40
1.0
 40
1.0
 40
1.0
 10
-11.81665
 20
-15.5013
 30
0.0
 10
-11.81658
 20
-15.51654
 30
0.0
 10
-11.81305
 20
-15.5298
 30
0.0
 10
-11.80607
 20
-15.5413
 30
0.0
 10
-11.80607
 20
-15.5413
 30
0.0
 10
-11.79908
 20
-15.55273
 30
0.0
 10
-11.78913
 20
-15.56169
 30
0.0
 10
-11.77615
 20
-15.56811
 30
0.0
 10
-11.77615
 20
-15.56811
 30
0.0
 10
-11.76317
 20
-15.57453
 30
0.0
 10
-11.74758
 20
-15.57778
 30
0.0
 10
-11.72944
 20
-15.57792
 30
0.0
 10
-11.72944
 20
-15.57792
 30
0.0
 10
-11.71583
 20
-15.57792
 30
0.0
 10
-11.70348
 20
-15.57651
 30
0.0
 10
-11.69226
 20
-15.57355
 30
0.0
 10
-11.69226
 20
-15.57355
 30
0.0
 10
-11.68111
 20
-15.57058
 30
0.0
 10
-11.67152
 20
-15.566
 30
0.0
 10
-11.6634
 20
-15.55972
 30
0.0
 10
-11.6634
 20
-15.55972
 30
0.0
 10
-11.65529
 20
-15.55344
 30
0.0
 10
-11.64908
 20
-15.54532
 30
0.0
 10
-11.64464
 20
-15.53545
 30
0.0
 10
-11.64464
 20
-15.53545
 30
0.0
 10
-11.64026
 20
-15.5255
 30
0.0
 10
-11.63808
 20
-15.51357
 30
0.0
 10
-11.63801
 20
-15.4996
 30
0.0
 10
-11.63801
 20
-15.4996
 30
0.0
 10
-11.63793
 20
-15.48098
 30
0.0
 10
-11.64174
 20
-15.46524
 30
0.0
 10
-11.64929
 20
-15.45247
 30
0.0
 10
-11.64929
 20
-15.45247
 30
0.0
 10
-11.65684
 20
-15.4397
 30
0.0
 10
-11.66856
 20
-15.43011
 30
0.0
 10
-11.68429
 20
-15.42355
 30
0.0
 10
-11.68429
 20
-15.42355
 30
0.0
 10
-11.70002
 20
-15.41698
 30
0.0
 10
-11.7202
 20
-15.41367
 30
0.0
 10
-11.74468
 20
-15.41367
 30
0.0
 10
-11.74468
 20
-15.41367
 30
0.0
 10
-11.72641
 20
-15.41374
 30
0.0
 10
-11.7111
 20
-15.41205
 30
0.0
 10
-11.69861
 20
-15.40859
 30
0.0
 10
-11.69861
 20
-15.40859
 30
0.0
 10
-11.68619
 20
-15.40513
 30
0.0
 10
-11.67625
 20
-15.40026
 30
0.0
 10
-11.66877
 20
-15.39391
 30
0.0
 10
-11.66877
 20
-15.39391
 30
0.0
 10
-11.66129
 20
-15.38763
 30
0.0
 10
-11.65586
 20
-15.38015
 30
0.0
 10
-11.65261
 20
-15.37155
 30
0.0
 10
-11.65261
 20
-15.37155
 30
0.0
 10
-11.64929
 20
-15.36301
 30
0.0
 10
-11.64767
 20
-15.35363
 30
0.0
 10
-11.64774
 20
-15.3434
 30
0.0
 10
-11.64774
 20
-15.3434
 30
0.0
 10
-11.64767
 20
-15.33316
 30
0.0
 10
-11.64908
 20
-15.32371
 30
0.0
 10
-11.6519
 20
-15.31496
 30
0.0
 10
-11.6519
 20
-15.31496
 30
0.0
 10
-11.65466
 20
-15.30621
 30
0.0
 10
-11.65917
 20
-15.29852
 30
0.0
 10
-11.66531
 20
-15.29196
 30
0.0
 10
-11.66531
 20
-15.29196
 30
0.0
 10
-11.67145
 20
-15.2854
 30
0.0
 10
-11.67956
 20
-15.28025
 30
0.0
 10
-11.68951
 20
-15.27658
 30
0.0
 10
-11.68951
 20
-15.27658
 30
0.0
 10
-11.69953
 20
-15.27291
 30
0.0
 10
-11.71174
 20
-15.27108
 30
0.0
 10
-11.72606
 20
-15.27101
 30
0.0
 10
-11.72606
 20
-15.27101
 30
0.0
 10
-11.74031
 20
-15.27108
 30
0.0
 10
-11.7528
 20
-15.27319
 30
0.0
 10
-11.76338
 20
-15.27729
 30
0.0
 10
-11.76338
 20
-15.27729
 30
0.0
 10
-11.77404
 20
-15.28138
 30
0.0
 10
-11.78278
 20
-15.28695
 30
0.0
 10
-11.78984
 20
-15.29408
 30
0.0
 10
-11.78984
 20
-15.29408
 30
0.0
 10
-11.79682
 20
-15.3012
 30
0.0
 10
-11.80205
 20
-15.30932
 30
0.0
 10
-11.8055
 20
-15.31849
 30
0.0
 10
-11.8055
 20
-15.31849
 30
0.0
 10
-11.80903
 20
-15.32766
 30
0.0
 10
-11.81072
 20
-15.3374
 30
0.0
 10
-11.81072
 20
-15.34763
 30
0.0
 10
-11.81072
 20
-15.34763
 30
0.0
 10
-11.81072
 20
-15.3374
 30
0.0
 10
-11.80903
 20
-15.32766
 30
0.0
 10
-11.8055
 20
-15.31849
 30
0.0
 10
-11.8055
 20
-15.31849
 30
0.0
 10
-11.80205
 20
-15.30932
 30
0.0
 10
-11.79682
 20
-15.3012
 30
0.0
 10
-11.78984
 20
-15.29408
 30
0.0
 10
-11.78984
 20
-15.29408
 30
0.0
 10
-11.78278
 20
-15.28695
 30
0.0
 10
-11.77404
 20
-15.28138
 30
0.0
 10
-11.76338
 20
-15.27729
 30
0.0
 10
-11.76338
 20
-15.27729
 30
0.0
 10
-11.7528
 20
-15.27319
 30
0.0
 10
-11.74031
 20
-15.27108
 30
0.0
 10
-11.72606
 20
-15.27101
 30
0.0
 10
-11.72606
 20
-15.27101
 30
0.0
 10
-11.71174
 20
-15.27108
 30
0.0
 10
-11.69953
 20
-15.27291
 30
0.0
 10
-11.68951
 20
-15.27658
 30
0.0
 10
-11.68951
 20
-15.27658
 30
0.0
 10
-11.67956
 20
-15.28025
 30
0.0
 10
-11.67145
 20
-15.2854
 30
0.0
 10
-11.66531
 20
-15.29196
 30
0.0
 10
-11.66531
 20
-15.29196
 30
0.0
 10
-11.65917
 20
-15.29852
 30
0.0
 10
-11.65466
 20
-15.30621
 30
0.0
 10
-11.6519
 20
-15.31496
 30
0.0
 10
-11.6519
 20
-15.31496
 30
0.0
 10
-11.64908
 20
-15.32371
 30
0.0
 10
-11.64767
 20
-15.33316
 30
0.0
 10
-11.64774
 20
-15.3434
 30
0.0
 10
-11.64774
 20
-15.3434
 30
0.0
 10
-11.64767
 20
-15.35363
 30
0.0
 10
-11.64929
 20
-15.36301
 30
0.0
 10
-11.65261
 20
-15.37155
 30
0.0
 10
-11.65261
 20
-15.37155
 30
0.0
 10
-11.65586
 20
-15.38015
 30
0.0
 10
-11.66129
 20
-15.38763
 30
0.0
 10
-11.66877
 20
-15.39391
 30
0.0
 10
-11.66877
 20
-15.39391
 30
0.0
 10
-11.67625
 20
-15.40026
 30
0.0
 10
-11.68619
 20
-15.40513
 30
0.0
 10
-11.69861
 20
-15.40859
 30
0.0
 10
-11.69861
 20
-15.40859
 30
0.0
 10
-11.7111
 20
-15.41205
 30
0.0
 10
-11.72641
 20
-15.41374
 30
0.0
 10
-11.74468
 20
-15.41367
 30
0.0
 10
-11.74468
 20
-15.41367
 30
0.0
 10
-11.7202
 20
-15.41367
 30
0.0
 10
-11.70002
 20
-15.41698
 30
0.0
 10
-11.68429
 20
-15.42355
 30
0.0
 10
-11.68429
 20
-15.42355
 30
0.0
 10
-11.66856
 20
-15.43011
 30
0.0
 10
-11.65684
 20
-15.4397
 30
0.0
 10
-11.64929
 20
-15.45247
 30
0.0
 10
-11.64929
 20
-15.45247
 30
0.0
 10
-11.64174
 20
-15.46524
 30
0.0
 10
-11.63793
 20
-15.48098
 30
0.0
 10
-11.63801
 20
-15.4996
 30
0.0
 10
-11.63801
 20
-15.4996
 30
0.0
 10
-11.63808
 20
-15.51357
 30
0.0
 10
-11.64026
 20
-15.5255
 30
0.0
 10
-11.64464
 20
-15.53545
 30
0.0
 10
-11.64464
 20
-15.53545
 30
0.0
 10
-11.64908
 20
-15.54532
 30
0.0
 10
-11.65529
 20
-15.55344
 30
0.0
 10
-11.6634
 20
-15.55972
 30
0.0
 10
-11.6634
 20
-15.55972
 30
0.0
 10
-11.67152
 20
-15.566
 30
0.0
 10
-11.68111
 20
-15.57058
 30
0.0
 10
-11.69226
 20
-15.57355
 30
0.0
 10
-11.69226
 20
-15.57355
 30
0.0
 10
-11.70348
 20
-15.57651
 30
0.0
 10
-11.71583
 20
-15.57792
 30
0.0
 10
-11.72944
 20
-15.57792
 30
0.0
 10
-11.72944
 20
-15.57792
 30
0.0
 10
-11.74758
 20
-15.57778
 30
0.0
 10
-11.76317
 20
-15.57453
 30
0.0
 10
-11.77615
 20
-15.56811
 30
0.0
 10
-11.77615
 20
-15.56811
 30
0.0
 10
-11.78913
 20
-15.56169
 30
0.0
 10
-11.79908
 20
-15.55273
 30
0.0
 10
-11.80607
 20
-15.5413
 30
0.0
 10
-11.80607
 20
-15.5413
 30
0.0
 10
-11.81305
 20
-15.5298
 30
0.0
 10
-11.81658
 20
-15.51654
 30
0.0
 10
-11.81665
 20
-15.5013
 30
0.0
  0
SPLINE
  5
72
330
1F
100
AcDbEntity
  8
Layer 1
 62
     5
370
    53
100
AcDbSpline
210
0.0
220
0.0
230
1.0
 70
    27
 71
     3
 72
    12
 73
     8
 74
     0
 42
0.0000000001
 43
0.0000000001
 40
0.0
 40
0.0
 40
0.0
 40
0.0
 40
0.5
 40
0.5
 40
0.5
 40
0.5
 40
1.0
 40
1.0
 40
1.0
 40
1.0
 10
-11.5381
 20
-15.41832
 30
0.0
 10
-11.5381
 20
-15.41832
 30
0.0
 10
-11.41491
 20
-15.41832
 30
0.0
 10
-11.41491
 20
-15.41832
 30
0.0
 10
-11.41491
 20
-15.41832
 30
0.0
 10
-11.41491
 20
-15.41832
 30
0.0
 10
-11.5381
 20
-15.41832
 30
0.0
 10
-11.5381
 20
-15.41832
 30
0.0
  0
SPLINE
  5
73
330
1F
100
AcDbEntity
  8
Layer 1
 62
     5
370
    53
100
AcDbSpline
210
0.0
220
0.0
230
1.0
 70
    11
 71
     3
 72
    84
 73
    80
 74
     0
 42
0.0000000001
 43
0.0000000001
 40
0.0
 40
0.0
 40
0.0
 40
0.0
 40
0.05
 40
0.05
 40
0.05
 40
0.05
 40
0.1
 40
0.1
 40
0.1
 40
0.1
 40
0.15
 40
0.15
 40
0.15
 40
0.15
 40
0.2
 40
0.2
 40
0.2
 40
0.2
 40
0.25
 40
0.25
 40
0.25
 40
0.25
 40
0.3
 40
0.3
 40
0.3
 40
0.3
 40
0.35
 40
0.35
 40
0.35
 40
0.35
 40
0.4
 40
0.4
 40
0.4
 40
0.4
 40
0.45
 40
0.45
 40
0.45
 40
0.45
 40
0.4999999999999999
 40
0.4999999999999999
 40
0.4999999999999999
 40
0.4999999999999999
 40
0.5499999999999999
 40
0.5499999999999999
 40
0.5499999999999999
 40
0.5499999999999999
 40
0.6
 40
0.6
 40
0.6
 40
0.6
 40
0.65
 40
0.65
 40
0.65
 40
0.65
 40
0.7000000000000001
 40
0.7000000000000001
 40
0.7000000000000001
 40
0.7000000000000001
 40
0.7500000000000001
 40
0.7500000000000001
 40
0.7500000000000001
 40
0.7500000000000001
 40
0.8000000000000002
 40
0.8000000000000002
 40
0.8000000000000002
 40
0.8000000000000002
 40
0.8500000000000002
 40
0.8500000000000002
 40
0.8500000000000002
 40
0.8500000000000002
 40
0.9000000000000002
 40
0.9000000000000002
 40
0.9000000000000002
 40
0.9000000000000002
 40
0.9500000000000003
 40
0.9500000000000003
 40
0.9500000000000003
 40
0.9500000000000003
 40
1.0
 40
1.0
 40
1.0
 40
1.0
 10
-11.22568
 20
-15.57792
 30
0.0
 10
-11.21087
 20
-15.57785
 30
0.0
 10
-11.1981
 20
-15.57524
 30
0.0
 10
-11.18744
 20
-15.57016
 30
0.0
 10
-11.18744
 20
-15.57016
 30
0.0
 10
-11.17686
 20
-15.56508
 30
0.0
 10
-11.16804
 20
-15.55781
 30
0.0
 10
-11.16099
 20
-15.54857
 30
0.0
 10
-11.16099
 20
-15.54857
 30
0.0
 10
-11.154
 20
-15.53926
 30
0.0
 10
-11.1485
 20
-15.52825
 30
0.0
 10
-11.14441
 20
-15.51555
 30
0.0
 10
-11.14441
 20
-15.51555
 30
0.0
 10
-11.14038
 20
-15.50285
 30
0.0
 10
-11.13749
 20
-15.48895
 30
0.0
 10
-11.13587
 20
-15.47371
 30
0.0
 10
-11.13587
 20
-15.47371
 30
0.0
 10
-11.13417
 20
-15.45847
 30
0.0
 10
-11.13333
 20
-15.44245
 30
0.0
 10
-11.1334
 20
-15.42552
 30
0.0
 10
-11.1334
 20
-15.42552
 30
0.0
 10
-11.13333
 20
-15.40866
 30
0.0
 10
-11.13417
 20
-15.39264
 30
0.0
 10
-11.13587
 20
-15.37747
 30
0.0
 10
-11.13587
 20
-15.37747
 30
0.0
 10
-11.13749
 20
-15.3623
 30
0.0
 10
-11.14038
 20
-15.34833
 30
0.0
 10
-11.14441
 20
-15.33563
 30
0.0
 10
-11.14441
 20
-15.33563
 30
0.0
 10
-11.1485
 20
-15.323
 30
0.0
 10
-11.154
 20
-15.312
 30
0.0
 10
-11.16099
 20
-15.30261
 30
0.0
 10
-11.16099
 20
-15.30261
 30
0.0
 10
-11.16804
 20
-15.2933
 30
0.0
 10
-11.17686
 20
-15.28603
 30
0.0
 10
-11.18744
 20
-15.28095
 30
0.0
 10
-11.18744
 20
-15.28095
 30
0.0
 10
-11.1981
 20
-15.2758
 30
0.0
 10
-11.21087
 20
-15.27319
 30
0.0
 10
-11.22568
 20
-15.27312
 30
0.0
 10
-11.22568
 20
-15.27312
 30
0.0
 10
-11.2405
 20
-15.27319
 30
0.0
 10
-11.25327
 20
-15.2758
 30
0.0
 10
-11.26393
 20
-15.28095
 30
0.0
 10
-11.26393
 20
-15.28095
 30
0.0
 10
-11.27451
 20
-15.28603
 30
0.0
 10
-11.28333
 20
-15.2933
 30
0.0
 10
-11.29038
 20
-15.30261
 30
0.0
 10
-11.29038
 20
-15.30261
 30
0.0
 10
-11.29737
 20
-15.312
 30
0.0
 10
-11.30287
 20
-15.323
 30
0.0
 10
-11.30696
 20
-15.33563
 30
0.0
 10
-11.30696
 20
-15.33563
 30
0.0
 10
-11.31099
 20
-15.34833
 30
0.0
 10
-11.31388
 20
-15.3623
 30
0.0
 10
-11.3155
 20
-15.37747
 30
0.0
 10
-11.3155
 20
-15.37747
 30
0.0
 10
-11.31719
 20
-15.39264
 30
0.0
 10
-11.31804
 20
-15.40866
 30
0.0
 10
-11.31797
 20
-15.42552
 30
0.0
 10
-11.31797
 20
-15.42552
 30
0.0
 10
-11.31804
 20
-15.44245
 30
0.0
 10
-11.31719
 20
-15.45847
 30
0.0
 10
-11.3155
 20
-15.47371
 30
0.0
 10
-11.3155
 20
-15.47371
 30
0.0
 10
-11.31388
 20
-15.48895
 30
0.0
 10
-11.31099
 20
-15.50285
 30
0.0
 10
-11.30696
 20
-15.51555
 30
0.0
 10
-11.30696
 20
-15.51555
 30
0.0
 10
-11.30287
 20
-15.52825
 30
0.0
 10
-11.29737
 20
-15.53926
 30
0.0
 10
-11.29038
 20
-15.54857
 30
0.0
 10
-11.29038
 20
-15.54857
 30
0.0
 10
-11.28333
 20
-15.55781
 30
0.0
 10
-11.27451
 20
-15.56508
 30
0.0
 10
-11.26393
 20
-15.57016
 30
0.0
 10
-11.26393
 20
-15.57016
 30
0.0
 10
-11.25327
 20
-15.57524
 30
0.0
 10
-11.2405
 20
-15.57785
 30
0.0
 10
-11.22568
 20
-15.57792
 30
0.0
  0
SPLINE
  5
74
330
1F
100
AcDbEntity
  8
Layer 1
 62
     5
370
    53
100
AcDbSpline
210
0.0
220
0.0
230
1.0
 70
    11
 71
     3
 72
    84
 73
    80
 74
     0
 42
0.0000000001
 43
0.0000000001
 40
0.0
 40
0.0
 40
0.0
 40
0.0
 40
0.05
 40
0.05
 40
0.05
 40
0.05
 40
0.1
 40
0.1
 40
0.1
 40
0.1
 40
0.15
 40
0.15
 40
0.15
 40
0.15
 40
0.2
 40
0.2
 40
0.2
 40
0.2
 40
0.25
 40
0.25
 40
0.25
 40
0.25
 40
0.3
 40
0.3
 40
0.3
 40
0.3
 40
0.35
 40
0.35
 40
0.35
 40
0.35
 40
0.4
 40
0.4
 40
0.4
 40
0.4
 40
0.45
 40
0.45
 40
0.45
 40
0.45
 40
0.4999999999999999
 40
0.4999999999999999
 40
0.4999999999999999
 40
0.4999999999999999
 40
0.5499999999999999
 40
0.5499999999999999
 40
0.5499999999999999
 40
0.5499999999999999
 40
0.6
 40
0.6
 40
0.6
 40
0.6
 40
0.65
 40
0.65
 40
0.65
 40
0.65
 40
0.7000000000000001
 40
0.7000000000000001
 40
0.7000000000000001
 40
0.7000000000000001
 40
0.7500000000000001
 40
0.7500000000000001
 40
0.7500000000000001
 40
0.7500000000000001
 40
0.8000000000000002
 40
0.8000000000000002
 40
0.8000000000000002
 40
0.8000000000000002
 40
0.8500000000000002
 40
0.8500000000000002
 40
0.8500000000000002
 40
0.8500000000000002
 40
0.9000000000000002
 40
0.9000000000000002
 40
0.9000000000000002
 40
0.9000000000000002
 40
0.9500000000000003
 40
0.9500000000000003
 40
0.9500000000000003
 40
0.9500000000000003
 40
1.0
 40
1.0
 40
1.0
 40
1.0
 10
-11.22568
 20
-15.57792
 30
0.0
 10
-11.21087
 20
-15.57785
 30
0.0
 10
-11.1981
 20
-15.57524
 30
0.0
 10
-11.18744
 20
-15.57016
 30
0.0
 10
-11.18744
 20
-15.57016
 30
0.0
 10
-11.17686
 20
-15.56508
 30
0.0
 10
-11.16804
 20
-15.55781
 30
0.0
 10
-11.16099
 20
-15.54857
 30
0.0
 10
-11.16099
 20
-15.54857
 30
0.0
 10
-11.154
 20
-15.53926
 30
0.0
 10
-11.1485
 20
-15.52825
 30
0.0
 10
-11.14441
 20
-15.51555
 30
0.0
 10
-11.14441
 20
-15.51555
 30
0.0
 10
-11.14038
 20
-15.50285
 30
0.0
 10
-11.13749
 20
-15.48895
 30
0.0
 10
-11.13587
 20
-15.47371
 30
0.0
 10
-11.13587
 20
-15.47371
 30
0.0
 10
-11.13417
 20
-15.45847
 30
0.0
 10
-11.13333
 20
-15.44245
 30
0.0
 10
-11.1334
 20
-15.42552
 30
0.0
 10
-11.1334
 20
-15.42552
 30
0.0
 10
-11.13333
 20
-15.40866
 30
0.0
 10
-11.13417
 20
-15.39264
 30
0.0
 10
-11.13587
 20
-15.37747
 30
0.0
 10
-11.13587
 20
-15.37747
 30
0.0
 10
-11.13749
 20
-15.3623
 30
0.0
 10
-11.14038
 20
-15.34833
 30
0.0
 10
-11.14441
 20
-15.33563
 30
0.0
 10
-11.14441
 20
-15.33563
 30
0.0
 10
-11.1485
 20
-15.323
 30
0.0
 10
-11.154
 20
-15.312
 30
0.0
 10
-11.16099
 20
-15.30261
 30
0.0
 10
-11.16099
 20
-15.30261
 30
0.0
 10
-11.16804
 20
-15.2933
 30
0.0
 10
-11.17686
 20
-15.28603
 30
0.0
 10
-11.18744
 20
-15.28095
 30
0.0
 10
-11.18744
 20
-15.28095
 30
0.0
 10
-11.1981
 20
-15.2758
 30
0.0
 10
-11.21087
 20
-15.27319
 30
0.0
 10
-11.22568
 20
-15.27312
 30
0.0
 10
-11.22568
 20
-15.27312
 30
0.0
 10
-11.2405
 20
-15.27319
 30
0.0
 10
-11.25327
 20
-15.2758
 30
0.0
 10
-11.26393
 20
-15.28095
 30
0.0
 10
-11.26393
 20
-15.28095
 30
0.0
 10
-11.27451
 20
-15.28603
 30
0.0
 10
-11.28333
 20
-15.2933
 30
0.0
 10
-11.29038
 20
-15.30261
 30
0.0
 10
-11.29038
 20
-15.30261
 30
0.0
 10
-11.29737
 20
-15.312
 30
0.0
 10
-11.30287
 20
-15.323
 30
0.0
 10
-11.30696
 20
-15.33563
 30
0.0
 10
-11.30696
 20
-15.33563
 30
0.0
 10
-11.31099
 20
-15.34833
 30
0.0
 10
-11.31388
 20
-15.3623
 30
0.0
 10
-11.3155
 20
-15.37747
 30
0.0
 10
-11.3155
 20
-15.37747
 30
0.0
 10
-11.31719
 20
-15.39264
 30
0.0
 10
-11.31804
 20
-15.40866
 30
0.0
 10
-11.31797
 20
-15.42552
 30
0.0
 10
-11.31797
 20
-15.42552
 30
0.0
 10
-11.31804
 20
-15.44245
 30
0.0
 10
-11.31719
 20
-15.45847
 30
0.0
 10
-11.3155
 20
-15.47371
 30
0.0
 10
-11.3155
 20
-15.47371
 30
0.0
 10
-11.31388
 20
-15.48895
 30
0.0
 10
-11.31099
 20
-15.50285
 30
0.0
 10
-11.30696
 20
-15.51555
 30
0.0
 10
-11.30696
 20
-15.51555
 30
0.0
 10
-11.30287
 20
-15.52825
 30
0.0
 10
-11.29737
 20
-15.53926
 30
0.0
 10
-11.29038
 20
-15.54857
 30
0.0
 10
-11.29038
 20
-15.54857
 30
0.0
 10
-11.28333
 20
-15.55781
 30
0.0
 10
-11.27451
 20
-15.56508
 30
0.0
 10
-11.26393
 20
-15.57016
 30
0.0
 10
-11.26393
 20
-15.57016
 30
0.0
 10
-11.25327
 20
-15.57524
 30
0.0
 10
-11.2405
 20
-15.57785
 30
0.0
 10
-11.22568
 20
-15.57792
 30
0.0
  0
SPLINE
  5
75
330
1F
100
AcDbEntity
  8
Layer 1
 62
     5
370
    53
100
AcDbSpline
210
0.0
220
0.0
230
1.0
 70
    11
 71
     3
 72
   172
 73
   168
 74
     0
 42
0.0000000001
 43
0.0000000001
 40
0.0
 40
0.0
 40
0.0
 40
0.0
 40
0.0238095238095238
 40
0.0238095238095238
 40
0.0238095238095238
 40
0.0238095238095238
 40
0.0476190476190476
 40
0.0476190476190476
 40
0.0476190476190476
 40
0.0476190476190476
 40
0.0714285714285714
 40
0.0714285714285714
 40
0.0714285714285714
 40
0.0714285714285714
 40
0.0952380952380952
 40
0.0952380952380952
 40
0.0952380952380952
 40
0.0952380952380952
 40
0.119047619047619
 40
0.119047619047619
 40
0.119047619047619
 40
0.119047619047619
 40
0.1428571428571428
 40
0.1428571428571428
 40
0.1428571428571428
 40
0.1428571428571428
 40
0.1666666666666667
 40
0.1666666666666667
 40
0.1666666666666667
 40
0.1666666666666667
 40
0.1904761904761905
 40
0.1904761904761905
 40
0.1904761904761905
 40
0.1904761904761905
 40
0.2142857142857143
 40
0.2142857142857143
 40
0.2142857142857143
 40
0.2142857142857143
 40
0.2380952380952381
 40
0.2380952380952381
 40
0.2380952380952381
 40
0.2380952380952381
 40
0.2619047619047619
 40
0.2619047619047619
 40
0.2619047619047619
 40
0.2619047619047619
 40
0.2857142857142857
 40
0.2857142857142857
 40
0.2857142857142857
 40
0.2857142857142857
 40
0.3095238095238095
 40
0.3095238095238095
 40
0.3095238095238095
 40
0.3095238095238095
 40
0.3333333333333334
 40
0.3333333333333334
 40
0.3333333333333334
 40
0.3333333333333334
 40
0.3571428571428572
 40
0.3571428571428572
 40
0.3571428571428572
 40
0.3571428571428572
 40
0.380952380952381
 40
0.380952380952381
 40
0.380952380952381
 40
0.380952380952381
 40
0.4047619047619049
 40
0.4047619047619049
 40
0.4047619047619049
 40
0.4047619047619049
 40
0.4285714285714287
 40
0.4285714285714287
 40
0.4285714285714287
 40
0.4285714285714287
 40
0.4523809523809526
 40
0.4523809523809526
 40
0.4523809523809526
 40
0.4523809523809526
 40
0.4761904761904764
 40
0.4761904761904764
 40
0.4761904761904764
 40
0.4761904761904764
 40
0.5000000000000002
 40
0.5000000000000002
 40
0.5000000000000002
 40
0.5000000000000002
 40
0.5238095238095241
 40
0.5238095238095241
 40
0.5238095238095241
 40
0.5238095238095241
 40
0.5476190476190479
 40
0.5476190476190479
 40
0.5476190476190479
 40
0.5476190476190479
 40
0.5714285714285717
 40
0.5714285714285717
 40
0.5714285714285717
 40
0.5714285714285717
 40
0.5952380952380956
 40
0.5952380952380956
 40
0.5952380952380956
 40
0.5952380952380956
 40
0.6190476190476194
 40
0.6190476190476194
 40
0.6190476190476194
 40
0.6190476190476194
 40
0.6428571428571432
 40
0.6428571428571432
 40
0.6428571428571432
 40
0.6428571428571432
 40
0.6666666666666671
 40
0.6666666666666671
 40
0.6666666666666671
 40
0.6666666666666671
 40
0.6904761904761909
 40
0.6904761904761909
 40
0.6904761904761909
 40
0.6904761904761909
 40
0.7142857142857147
 40
0.7142857142857147
 40
0.7142857142857147
 40
0.7142857142857147
 40
0.7380952380952386
 40
0.7380952380952386
 40
0.7380952380952386
 40
0.7380952380952386
 40
0.7619047619047624
 40
0.7619047619047624
 40
0.7619047619047624
 40
0.7619047619047624
 40
0.7857142857142863
 40
0.7857142857142863
 40
0.7857142857142863
 40
0.7857142857142863
 40
0.8095238095238101
 40
0.8095238095238101
 40
0.8095238095238101
 40
0.8095238095238101
 40
0.8333333333333339
 40
0.8333333333333339
 40
0.8333333333333339
 40
0.8333333333333339
 40
0.8571428571428578
 40
0.8571428571428578
 40
0.8571428571428578
 40
0.8571428571428578
 40
0.8809523809523816
 40
0.8809523809523816
 40
0.8809523809523816
 40
0.8809523809523816
 40
0.9047619047619054
 40
0.9047619047619054
 40
0.9047619047619054
 40
0.9047619047619054
 40
0.9285714285714293
 40
0.9285714285714293
 40
0.9285714285714293
 40
0.9285714285714293
 40
0.9523809523809531
 40
0.9523809523809531
 40
0.9523809523809531
 40
0.9523809523809531
 40
0.9761904761904769
 40
0.9761904761904769
 40
0.9761904761904769
 40
0.9761904761904769
 40
1.0
 40
1.0
 40
1.0
 40
1.0
 10
-10.85146
 20
-15.57792
 30
0.0
 10
-10.85146
 20
-15.57792
 30
0.0
 10
-11.03307
 20
-15.57792
 30
0.0
 10
-11.03307
 20
-15.57792
 30
0.0
 10
-11.03307
 20
-15.57792
 30
0.0
 10
-11.03272
 20
-15.56564
 30
0.0
 10
-11.03117
 20
-15.55478
 30
0.0
 10
-11.02855
 20
-15.54546
 30
0.0
 10
-11.02855
 20
-15.54546
 30
0.0
 10
-11.02587
 20
-15.53615
 30
0.0
 10
-11.02228
 20
-15.52797
 30
0.0
 10
-11.01783
 20
-15.52091
 30
0.0
 10
-11.01783
 20
-15.52091
 30
0.0
 10
-11.01331
 20
-15.51386
 30
0.0
 10
-11.00816
 20
-15.50758
 30
0.0
 10
-11.00231
 20
-15.50207
 30
0.0
 10
-11.00231
 20
-15.50207
 30
0.0
 10
-10.99645
 20
-15.4965
 30
0.0
 10
-10.99017
 20
-15.49142
 30
0.0
 10
-10.9834
 20
-15.48662
 30
0.0
 10
-10.9834
 20
-15.48662
 30
0.0
 10
-10.97663
 20
-15.48189
 30
0.0
 10
-10.96964
 20
-15.47717
 30
0.0
 10
-10.96237
 20
-15.47251
 30
0.0
 10
-10.96237
 20
-15.47251
 30
0.0
 10
-10.96237
 20
-15.47251
 30
0.0
 10
-10.88998
 20
-15.42425
 30
0.0
 10
-10.88998
 20
-15.42425
 30
0.0
 10
-10.88998
 20
-15.42425
 30
0.0
 10
-10.88258
 20
-15.41903
 30
0.0
 10
-10.87679
 20
-15.41332
 30
0.0
 10
-10.8727
 20
-15.40718
 30
0.0
 10
-10.8727
 20
-15.40718
 30
0.0
 10
-10.86854
 20
-15.40104
 30
0.0
 10
-10.86564
 20
-15.39455
 30
0.0
 10
-10.86388
 20
-15.3877
 30
0.0
 10
-10.86388
 20
-15.3877
 30
0.0
 10
-10.86219
 20
-15.38093
 30
0.0
 10
-10.86113
 20
-15.37395
 30
0.0
 10
-10.86078
 20
-15.36689
 30
0.0
 10
-10.86078
 20
-15.36689
 30
0.0
 10
-10.86042
 20
-15.35976
 30
0.0
 10
-10.86028
 20
-15.35264
 30
0.0
 10
-10.86035
 20
-15.34551
 30
0.0
 10
-10.86035
 20
-15.34551
 30
0.0
 10
-10.86035
 20
-15.33966
 30
0.0
 10
-10.86113
 20
-15.33338
 30
0.0
 10
-10.86268
 20
-15.3266
 30
0.0
 10
-10.86268
 20
-15.3266
 30
0.0
 10
-10.8643
 20
-15.3199
 30
0.0
 10
-10.86684
 20
-15.3132
 30
0.0
 10
-10.87044
 20
-15.30657
 30
0.0
 10
-10.87044
 20
-15.30657
 30
0.0
 10
-10.87404
 20
-15.29993
 30
0.0
 10
-10.87884
 20
-15.29387
 30
0.0
 10
-10.88483
 20
-15.28836
 30
0.0
 10
-10.88483
 20
-15.28836
 30
0.0
 10
-10.89083
 20
-15.28293
 30
0.0
 10
-10.89824
 20
-15.27856
 30
0.0
 10
-10.90706
 20
-15.27524
 30
0.0
 10
-10.90706
 20
-15.27524
 30
0.0
 10
-10.91588
 20
-15.27192
 30
0.0
 10
-10.92625
 20
-15.27023
 30
0.0
 10
-10.93824
 20
-15.27016
 30
0.0
 10
-10.93824
 20
-15.27016
 30
0.0
 10
-10.95031
 20
-15.27023
 30
0.0
 10
-10.96096
 20
-15.27192
 30
0.0
 10
-10.97014
 20
-15.27517
 30
0.0
 10
-10.97014
 20
-15.27517
 30
0.0
 10
-10.97931
 20
-15.27841
 30
0.0
 10
-10.98714
 20
-15.28293
 30
0.0
 10
-10.99363
 20
-15.28864
 30
0.0
 10
-10.99363
 20
-15.28864
 30
0.0
 10
-11.00012
 20
-15.29436
 30
0.0
 10
-11.00534
 20
-15.30099
 30
0.0
 10
-11.00943
 20
-15.3084
 30
0.0
 10
-11.00943
 20
-15.3084
 30
0.0
 10
-11.01353
 20
-15.31581
 30
0.0
 10
-11.01649
 20
-15.32371
 30
0.0
 10
-11.01839
 20
-15.33204
 30
0.0
 10
-11.01839
 20
-15.33204
 30
0.0
 10
-11.0203
 20
-15.34036
 30
0.0
 10
-11.02122
 20
-15.34883
 30
0.0
 10
-11.02122
 20
-15.35737
 30
0.0
 10
-11.02122
 20
-15.35737
 30
0.0
 10
-11.02122
 20
-15.34883
 30
0.0
 10
-11.0203
 20
-15.34036
 30
0.0
 10
-11.01839
 20
-15.33204
 30
0.0
 10
-11.01839
 20
-15.33204
 30
0.0
 10
-11.01649
 20
-15.32371
 30
0.0
 10
-11.01353
 20
-15.31581
 30
0.0
 10
-11.00943
 20
-15.3084
 30
0.0
 10
-11.00943
 20
-15.3084
 30
0.0
 10
-11.00534
 20
-15.30099
 30
0.0
 10
-11.00012
 20
-15.29436
 30
0.0
 10
-10.99363
 20
-15.28864
 30
0.0
 10
-10.99363
 20
-15.28864
 30
0.0
 10
-10.98714
 20
-15.28293
 30
0.0
 10
-10.97931
 20
-15.27841
 30
0.0
 10
-10.97014
 20
-15.27517
 30
0.0
 10
-10.97014
 20
-15.27517
 30
0.0
 10
-10.96096
 20
-15.27192
 30
0.0
 10
-10.95031
 20
-15.27023
 30
0.0
 10
-10.93824
 20
-15.27016
 30
0.0
 10
-10.93824
 20
-15.27016
 30
0.0
 10
-10.92625
 20
-15.27023
 30
0.0
 10
-10.91588
 20
-15.27192
 30
0.0
 10
-10.90706
 20
-15.27524
 30
0.0
 10
-10.90706
 20
-15.27524
 30
0.0
 10
-10.89824
 20
-15.27856
 30
0.0
 10
-10.89083
 20
-15.28293
 30
0.0
 10
-10.88483
 20
-15.28836
 30
0.0
 10
-10.88483
 20
-15.28836
 30
0.0
 10
-10.87884
 20
-15.29387
 30
0.0
 10
-10.87404
 20
-15.29993
 30
0.0
 10
-10.87044
 20
-15.30657
 30
0.0
 10
-10.87044
 20
-15.30657
 30
0.0
 10
-10.86684
 20
-15.3132
 30
0.0
 10
-10.8643
 20
-15.3199
 30
0.0
 10
-10.86268
 20
-15.3266
 30
0.0
 10
-10.86268
 20
-15.3266
 30
0.0
 10
-10.86113
 20
-15.33338
 30
0.0
 10
-10.86035
 20
-15.33966
 30
0.0
 10
-10.86035
 20
-15.34551
 30
0.0
 10
-10.86035
 20
-15.34551
 30
0.0
 10
-10.86028
 20
-15.35264
 30
0.0
 10
-10.86042
 20
-15.35976
 30
0.0
 10
-10.86078
 20
-15.36689
 30
0.0
 10
-10.86078
 20
-15.36689
 30
0.0
 10
-10.86113
 20
-15.37395
 30
0.0
 10
-10.86219
 20
-15.38093
 30
0.0
 10
-10.86388
 20
-15.3877
 30
0.0
 10
-10.86388
 20
-15.3877
 30
0.0
 10
-10.86564
 20
-15.39455
 30
0.0
 10
-10.86854
 20
-15.40104
 30
0.0
 10
-10.8727
 20
-15.40718
 30
0.0
 10
-10.8727
 20
-15.40718
 30
0.0
 10
-10.87679
 20
-15.41332
 30
0.0
 10
-10.88258
 20
-15.41903
 30
0.0
 10
-10.88998
 20
-15.42425
 30
0.0
 10
-10.88998
 20
-15.42425
 30
0.0
 10
-10.88998
 20
-15.42425
 30
0.0
 10
-10.96237
 20
-15.47251
 30
0.0
 10
-10.96237
 20
-15.47251
 30
0.0
 10
-10.96237
 20
-15.47251
 30
0.0
 10
-10.96964
 20
-15.47717
 30
0.0
 10
-10.97663
 20
-15.48189
 30
0.0
 10
-10.9834
 20
-15.48662
 30
0.0
 10
-10.9834
 20
-15.48662
 30
0.0
 10
-10.99017
 20
-15.49142
 30
0.0
 10
-10.99645
 20
-15.4965
 30
0.0
 10
-11.00231
 20
-15.50207
 30
0.0
 10
-11.00231
 20
-15.50207
 30
0.0
 10
-11.00816
 20
-15.50758
 30
0.0
 10
-11.01331
 20
-15.51386
 30
0.0
 10
-11.01783
 20
-15.52091
 30
0.0
 10
-11.01783
 20
-15.52091
 30
0.0
 10
-11.02228
 20
-15.52797
 30
0.0
 10
-11.02587
 20
-15.53615
 30
0.0
 10
-11.02855
 20
-15.54546
 30
0.0
 10
-11.02855
 20
-15.54546
 30
0.0
 10
-11.03117
 20
-15.55478
 30
0.0
 10
-11.03272
 20
-15.56564
 30
0.0
 10
-11.03307
 20
-15.57792
 30
0.0
 10
-11.03307
 20
-15.57792
 30
0.0
 10
-11.03307
 20
-15.57792
 30
0.0
 10
-10.85146
 20
-15.57792
 30
0.0
 10
-10.85146
 20
-15.57792
 30
0.0
  0
SPLINE
  5
76
330
1F
100
AcDbEntity
  8
Layer 1
370
    53
100
AcDbSpline
210
0.0
220
0.0
230
1.0
 70
    11
 71
     3
 72
    36
 73
    32
 74
     0
 42
0.0000000001
 43
0.0000000001
 40
0.0
 40
0.0
 40
0.0
 40
0.0
 40
0.125
 40
0.125
 40
0.125
 40
0.125
 40
0.25
 40
0.25
 40
0.25
 40
0.25
 40
0.375
 40
0.375
 40
0.375
 40
0.375
 40
0.5
 40
0.5
 40
0.5
 40
0.5
 40
0.625
 40
0.625
 40
0.625
 40
0.625
 40
0.75
 40
0.75
 40
0.75
 40
0.75
 40
0.875
 40
0.875
 40
0.875
 40
0.875
 40
1.0
 40
1.0
 40
1.0
 40
1.0
 10
-13.15
 20
-16.0
 30
0.0
 10
-13.15
 20
-16.0
 30
0.0
 10
-13.15
 20
-13.7
 30
0.0
 10
-13.15
 20
-13.7
 30
0.0
 10
-13.15
 20
-13.7
 30
0.0
 10
-13.15
 20
-13.42391
 30
0.0
 10
-12.92609
 20
-13.2
 30
0.0
 10
-12.65
 20
-13.2
 30
0.0
 10
-12.65
 20
-13.2
 30
0.0
 10
-12.65
 20
-13.2
 30
0.0
 10
-8.35
 20
-13.2
 30
0.0
 10
-8.35
 20
-13.2
 30
0.0
 10
-8.35
 20
-13.2
 30
0.0
 10
-8.07391
 20
-13.2
 30
0.0
 10
-7.85
 20
-13.42391
 30
0.0
 10
-7.85
 20
-13.7
 30
0.0
 10
-7.85
 20
-13.7
 30
0.0
 10
-7.85
 20
-13.7
 30
0.0
 10
-7.85
 20
-16.0
 30
0.0
 10
-7.85
 20
-16.0
 30
0.0
 10
-7.85
 20
-16.0
 30
0.0
 10
-7.85
 20
-16.27609
 30
0.0
 10
-8.07391
 20
-16.5
 30
0.0
 10
-8.35
 20
-16.5
 30
0.0
 10
-8.35
 20
-16.5
 30
0.0
 10
-8.35
 20
-16.5
 30
0.0
 10
-12.65
 20
-16.5
 30
0.0
 10
-12.65
 20
-16.5
 30
0.0
 10
-12.65
 20
-16.5
 30
0.0
 10
-12.92609
 20
-16.5
 30
0.0
 10
-13.15
 20
-16.27609
 30
0.0
 10
-13.15
 20
-16.0
 30
0.0
  0
SPLINE
  5
77
330
1F
100
AcDbEntity
  8
Layer 1
370
    53
100
AcDbSpline
210
0.0
220
0.0
230
1.0
 70
    11
 71
     3
 72
    20
 73
    16
 74
     0
 42
0.0000000001
 43
0.0000000001
 40
0.0
 40
0.0
 40
0.0
 40
0.0
 40
0.25
 40
0.25
 40
0.25
 40
0.25
 40
0.5
 40
0.5
 40
0.5
 40
0.5
 40
0.75
 40
0.75
 40
0.75
 40
0.75
 40
1.0
 40
1.0
 40
1.0
 40
1.0
 10
-12.35
 20
-15.685
 30
0.0
 10
-12.25912
 20
-15.685
 30
0.0
 10
-12.185
 20
-15.75912
 30
0.0
 10
-12.185
 20
-15.85
 30
0.0
 10
-12.185
 20
-15.85
 30
0.0
 10
-12.185
 20
-15.94088
 30
0.0
 10
-12.25912
 20
-16.015
 30
0.0
 10
-12.35
 20
-16.015
 30
0.0
 10
-12.35
 20
-16.015
 30
0.0
 10
-12.44088
 20
-16.015
 30
0.0
 10
-12.515
 20
-15.94088
 30
0.0
 10
-12.515
 20
-15.85
 30
0.0
 10
-12.515
 20
-15.85
 30
0.0
 10
-12.515
 20
-15.75912
 30
0.0
 10
-12.44088
 20
-15.685
 30
0.0
 10
-12.35
 20
-15.685
 30
0.0
  0
SPLINE
  5
78
330
1F
100
AcDbEntity
  8
Layer 1
370
    53
100
AcDbSpline
210
0.0
220
0.0
230
1.0
 70
    11
 71
     3
 72
    20
 73
    16
 74
     0
 42
0.0000000001
 43
0.0000000001
 40
0.0
 40
0.0
 40
0.0
 40
0.0
 40
0.25
 40
0.25
 40
0.25
 40
0.25
 40
0.5
 40
0.5
 40
0.5
 40
0.5
 40
0.75
 40
0.75
 40
0.75
 40
0.75
 40
1.0
 40
1.0
 40
1.0
 40
1.0
 10
-8.65
 20
-15.685
 30
0.0
 10
-8.74088
 20
-15.685
 30
0.0
 10
-8.815
 20
-15.75912
 30
0.0
 10
-8.815
 20
-15.85
 30
0.0
 10
-8.815
 20
-15.85
 30
0.0
 10
-8.815
 20
-15.94088
 30
0.0
 10
-8.74088
 20
-16.015
 30
0.0
 10
-8.65
 20
-16.015
 30
0.0
 10
-8.65
 20
-16.015
 30
0.0
 10
-8.55912
 20
-16.015
 30
0.0
 10
-8.485
 20
-15.94088
 30
0.0
 10
-8.485
 20
-15.85
 30
0.0
 10
-8.485
 20
-15.85
 30
0.0
 10
-8.485
 20
-15.75912
 30
0.0
 10
-8.55912
 20
-15.685
 30
0.0
 10
-8.65
 20
-15.685
 30
0.0
  0
ENDSEC
  0
SECTION
  2
OBJECTS
  0
DICTIONARY
  5
C
330
0
100
AcDbDictionary
281
     1
  3
ACAD_GROUP
350
D
  3
ACAD_LAYOUT
350
1A
  3
ACAD_MLEADERSTYLE
350
7A
  3
ACAD_MLINESTYLE
350
17
  3
ACAD_PLOTSETTINGS
350
19
  3
ACAD_PLOTSTYLENAME
350
E
  3
ACAD_SCALELIST
350
3B
  3
ACAD_TABLESTYLE
350
79
  3
ACAD_VISUALSTYLE
350
2A
  0
DICTIONARY
  5
D
102
{ACAD_REACTORS
330
C
102
}
330
C
100
AcDbDictionary
281
     1
  0
DICTIONARY
  5
1A
102
{ACAD_REACTORS
330
C
102
}
330
C
100
AcDbDictionary
281
     1
  3
Layout1
350
1E
  3
Layout2
350
26
  3
Model
350
22
  0
DICTIONARY
  5
7A
102
{ACAD_REACTORS
330
C
102
}
330
C
100
AcDbDictionary
281
     1
  0
DICTIONARY
  5
17
102
{ACAD_REACTORS
330
C
102
}
330
C
100
AcDbDictionary
281
     1
  3
Standard
350
18
  0
DICTIONARY
  5
19
102
{ACAD_REACTORS
330
C
102
}
330
C
100
AcDbDictionary
281
     1
  0
ACDBDICTIONARYWDFLT
  5
E
102
{ACAD_REACTORS
330
C
102
}
330
C
100
AcDbDictionary
281
     1
  3
Normal
350
F
100
AcDbDictionaryWithDefault
340
F
  0
DICTIONARY
  5
3B
102
{ACAD_REACTORS
330
C
102
}
330
C
100
AcDbDictionary
281
     1
  3
A0
350
3C
  3
A1
350
3D
  3
A2
350
3E
  3
A3
350
3F
  3
A4
350
40
  3
A5
350
41
  3
A6
350
42
  3
A7
350
43
  3
A8
350
44
  3
A9
350
45
  3
B0
350
46
  3
B1
350
47
  3
B2
350
48
  3
B3
350
49
  3
B4
350
4A
  3
B5
350
4B
  3
B6
350
4C
  3
B7
350
4D
  3
B8
350
4E
  3
B9
350
4F
  3
C0
350
50
  3
C1
350
51
  3
C2
350
52
  3
C3
350
53
  3
C4
350
54
  3
C5
350
55
  3
C6
350
56
  3
C7
350
57
  3
C8
350
58
  3
C9
350
59
  3
D0
350
5A
  3
D1
350
5B
  3
D2
350
5C
  0
DICTIONARY
  5
79
102
{ACAD_REACTORS
330
C
102
}
330
C
100
AcDbDictionary
281
     1
  0
DICTIONARY
  5
2A
102
{ACAD_REACTORS
330
C
102
}
330
C
100
AcDbDictionary
281
     1
  3
2dWireframe
350
2F
  3
3D Hidden
350
31
  3
3dWireframe
350
30
  3
Basic
350
32
  3
Brighten
350
36
  3
ColorChange
350
3A
  3
Conceptual
350
34
  3
Dim
350
35
  3
Facepattern
350
39
  3
Flat
350
2B
  3
FlatWithEdges
350
2C
  3
Gouraud
350
2D
  3
GouraudWithEdges
350
2E
  3
Linepattern
350
38
  3
Realistic
350
33
  3
Thicken
350
37
  0
LAYOUT
  5
1E
102
{ACAD_REACTORS
330
1A
102
}
330
1A
100
AcDbPlotSettings
  1

  2
none_device
  4

  6

 40
0.0
 41
0.0
 42
0.0
 43
0.0
 44
0.0
 45
0.0
 46
0.0
 47
0.0
 48
0.0
 49
0.0
140
0.0
141
0.0
142
1.0
143
1.0
 70
   688
 72
     0
 73
     0
 74
     5
  7

 75
    16
 76
     0
 77
     2
 78
   300
147
1.0
148
0.0
149
0.0
100
AcDbLayout
  1
Layout1
 70
     1
 71
     1
 10
0.0
 20
0.0
 11
12.0
 21
9.0
 12
0.0
 22
0.0
 32
0.0
 14
1.000000000000000E+20
 24
1.000000000000000E+20
 34
1.000000000000000E+20
 15
-1.000000000000000E+20
 25
-1.000000000000000E+20
 35
-1.000000000000000E+20
146
0.0
 13
0.0
 23
0.0
 33
0.0
 16
1.0
 26
0.0
 36
0.0
 17
0.0
 27
1.0
 37
0.0
 76
     0
330
1B
  0
LAYOUT
  5
26
102
{ACAD_REACTORS
330
1A
102
}
330
1A
100
AcDbPlotSettings
  1

  2
none_device
  4

  6

 40
0.0
 41
0.0
 42
0.0
 43
0.0
 44
0.0
 45
0.0
 46
0.0
 47
0.0
 48
0.0
 49
0.0
140
0.0
141
0.0
142
1.0
143
1.0
 70
   688
 72
     0
 73
     0
 74
     5
  7

 75
    16
 76
     0
 77
     2
 78
   300
147
1.0
148
0.0
149
0.0
100
AcDbLayout
  1
Layout2
 70
     1
 71
     2
 10
0.0
 20
0.0
 11
0.0
 21
0.0
 12
0.0
 22
0.0
 32
0.0
 14
0.0
 24
0.0
 34
0.0
 15
0.0
 25
0.0
 35
0.0
146
0.0
 13
0.0
 23
0.0
 33
0.0
 16
1.0
 26
0.0
 36
0.0
 17
0.0
 27
1.0
 37
0.0
 76
     0
330
23
  0
LAYOUT
  5
22
102
{ACAD_REACTORS
330
1A
102
}
330
1A
100
AcDbPlotSettings
  1

  2
none_device
  4

  6

 40
0.0
 41
0.0
 42
0.0
 43
0.0
 44
0.0
 45
0.0
 46
0.0
 47
0.0
 48
0.0
 49
0.0
140
0.0
141
0.0
142
1.0
143
1.0
 70
  1712
 72
     0
 73
     0
 74
     0
  7

 75
     0
 76
     0
 77
     2
 78
   300
147
1.0
148
0.0
149
0.0
100
AcDbLayout
  1
Model
 70
     1
 71
     0
 10
0.0
 20
0.0
 11
12.0
 21
9.0
 12
0.0
 22
0.0
 32
0.0
 14
-13.17646
 24
-16.52646
 34
0.0
 15
-7.82354
 25
-13.17354
 35
0.0
146
0.0
 13
0.0
 23
0.0
 33
0.0
 16
1.0
 26
0.0
 36
0.0
 17
0.0
 27
1.0
 37
0.0
 76
     0
330
1F
331
29
  0
MLINESTYLE
  5
18
102
{ACAD_REACTORS
330
17
102
}
330
17
100
AcDbMlineStyle
  2
Standard
 70
     0
  3

 62
   256
 51
90.0
 52
90.0
 71
     2
 49
0.5
 62
   256
  6
BYLAYER
 49
-0.5
 62
   256
  6
BYLAYER
  0
ACDBPLACEHOLDER
  5
F
102
{ACAD_REACTORS
330
E
102
}
330
E
  0
SCALE
  5
3C
102
{ACAD_REACTORS
330
3B
102
}
330
3B
100
AcDbScale
 70
     0
300
1:1
140
1.0
141
1.0
290
     1
  0
SCALE
  5
3D
102
{ACAD_REACTORS
330
3B
102
}
330
3B
100
AcDbScale
 70
     0
300
1:2
140
1.0
141
2.0
290
     0
  0
SCALE
  5
3E
102
{ACAD_REACTORS
330
3B
102
}
330
3B
100
AcDbScale
 70
     0
300
1:4
140
1.0
141
4.0
290
     0
  0
SCALE
  5
3F
102
{ACAD_REACTORS
330
3B
102
}
330
3B
100
AcDbScale
 70
     0
300
1:5
140
1.0
141
5.0
290
     0
  0
SCALE
  5
40
102
{ACAD_REACTORS
330
3B
102
}
330
3B
100
AcDbScale
 70
     0
300
1:8
140
1.0
141
8.0
290
     0
  0
SCALE
  5
41
102
{ACAD_REACTORS
330
3B
102
}
330
3B
100
AcDbScale
 70
     0
300
1:10
140
1.0
141
10.0
290
     0
  0
SCALE
  5
42
102
{ACAD_REACTORS
330
3B
102
}
330
3B
100
AcDbScale
 70
     0
300
1:16
140
1.0
141
16.0
290
     0
  0
SCALE
  5
43
102
{ACAD_REACTORS
330
3B
102
}
330
3B
100
AcDbScale
 70
     0
300
1:20
140
1.0
141
20.0
290
     0
  0
SCALE
  5
44
102
{ACAD_REACTORS
330
3B
102
}
330
3B
100
AcDbScale
 70
     0
300
1:30
140
1.0
141
30.0
290
     0
  0
SCALE
  5
45
102
{ACAD_REACTORS
330
3B
102
}
330
3B
100
AcDbScale
 70
     0
300
1:40
140
1.0
141
40.0
290
     0
  0
SCALE
  5
46
102
{ACAD_REACTORS
330
3B
102
}
330
3B
100
AcDbScale
 70
     0
300
1:50
140
1.0
141
50.0
290
     0
  0
SCALE
  5
47
102
{ACAD_REACTORS
330
3B
102
}
330
3B
100
AcDbScale
 70
     0
300
1:100
140
1.0
141
100.0
290
     0
  0
SCALE
  5
48
102
{ACAD_REACTORS
330
3B
102
}
330
3B
100
AcDbScale
 70
     0
300
2:1
140
2.0
141
1.0
290
     0
  0
SCALE
  5
49
102
{ACAD_REACTORS
330
3B
102
}
330
3B
100
AcDbScale
 70
     0
300
4:1
140
4.0
141
1.0
290
     0
  0
SCALE
  5
4A
102
{ACAD_REACTORS
330
3B
102
}
330
3B
100
AcDbScale
 70
     0
300
8:1
140
8.0
141
1.0
290
     0
  0
SCALE
  5
4B
102
{ACAD_REACTORS
330
3B
102
}
330
3B
100
AcDbScale
 70
     0
300
10:1
140
10.0
141
1.0
290
     0
  0
SCALE
  5
4C
102
{ACAD_REACTORS
330
3B
102
}
330
3B
100
AcDbScale
 70
     0
300
100:1
140
100.0
141
1.0
290
     0
  0
SCALE
  5
4D
102
{ACAD_REACTORS
330
3B
102
}
330
3B
100
AcDbScale
 70
     0
300
1/128" = 1'-0"
140
0.0078125
141
12.0
290
     0
  0
SCALE
  5
4E
102
{ACAD_REACTORS
330
3B
102
}
330
3B
100
AcDbScale
 70
     0
300
1/64" = 1'-0"
140
0.015625
141
12.0
290
     0
  0
SCALE
  5
4F
102
{ACAD_REACTORS
330
3B
102
}
330
3B
100
AcDbScale
 70
     0
300
1/32" = 1'-0"
140
0.03125
141
12.0
290
     0
  0
SCALE
  5
50
102
{ACAD_REACTORS
330
3B
102
}
330
3B
100
AcDbScale
 70
     0
300
1/16" = 1'-0"
140
0.0625
141
12.0
290
     0
  0
SCALE
  5
51
102
{ACAD_REACTORS
330
3B
102
}
330
3B
100
AcDbScale
 70
     0
300
3/32" = 1'-0"
140
0.09375
141
12.0
290
     0
  0
SCALE
  5
52
102
{ACAD_REACTORS
330
3B
102
}
330
3B
100
AcDbScale
 70
     0
300
1/8" = 1'-0"
140
0.125
141
12.0
290
     0
  0
SCALE
  5
53
102
{ACAD_REACTORS
330
3B
102
}
330
3B
100
AcDbScale
 70
     0
300
3/16" = 1'-0"
140
0.1875
141
12.0
290
     0
  0
SCALE
  5
54
102
{ACAD_REACTORS
330
3B
102
}
330
3B
100
AcDbScale
 70
     0
300
1/4" = 1'-0"
140
0.25
141
12.0
290
     0
  0
SCALE
  5
55
102
{ACAD_REACTORS
330
3B
102
}
330
3B
100
AcDbScale
 70
     0
300
3/8" = 1'-0"
140
0.375
141
12.0
290
     0
  0
SCALE
  5
56
102
{ACAD_REACTORS
330
3B
102
}
330
3B
100
AcDbScale
 70
     0
300
1/2" = 1'-0"
140
0.5
141
12.0
290
     0
  0
SCALE
  5
57
102
{ACAD_REACTORS
330
3B
102
}
330
3B
100
AcDbScale
 70
     0
300
3/4" = 1'-0"
140
0.75
141
12.0
290
     0
  0
SCALE
  5
58
102
{ACAD_REACTORS
330
3B
102
}
330
3B
100
AcDbScale
 70
     0
300
1" = 1'-0"
140
1.0
141
12.0
290
     0
  0
SCALE
  5
59
102
{ACAD_REACTORS
330
3B
102
}
330
3B
100
AcDbScale
 70
     0
300
1-1/2" = 1'-0"
140
1.5
141
12.0
290
     0
  0
SCALE
  5
5A
102
{ACAD_REACTORS
330
3B
102
}
330
3B
100
AcDbScale
 70
     0
300
3" = 1'-0"
140
3.0
141
12.0
290
     0
  0
SCALE
  5
5B
102
{ACAD_REACTORS
330
3B
102
}
330
3B
100
AcDbScale
 70
     0
300
6" = 1'-0"
140
6.0
141
12.0
290
     0
  0
SCALE
  5
5C
102
{ACAD_REACTORS
330
3B
102
}
330
3B
100
AcDbScale
 70
     0
300
1'-0" = 1'-0"
140
12.0
141
12.0
290
     0
  0
VISUALSTYLE
  5
2F
102
{ACAD_REACTORS
330
2A
102
}
330
2A
100
AcDbVisualStyle
  2
2dWireframe
 70
     4
 71
     0
 72
     2
 73
     0
 90
        0
 40
-0.6
 41
-30.0
 62
     5
 63
     7
421
 16777215
 74
     1
 91
        4
 64
     7
 65
   257
 75
     1
175
     1
 42
1.0
 92
        0
 66
   257
 43
1.0
 76
     1
 77
     6
 78
     2
 67
     7
 79
     5
170
     0
171
     0
290
     0
174
     0
 93
        1
 44
0.0
173
     0
291
     0
 45
0.0
  0
VISUALSTYLE
  5
31
102
{ACAD_REACTORS
330
2A
102
}
330
2A
100
AcDbVisualStyle
  2
3D Hidden
 70
     6
 71
     1
 72
     2
 73
     2
 90
        0
 40
-0.6
 41
-30.0
 62
     5
 63
     7
421
 16777215
 74
     2
 91
        2
 64
     7
 65
   257
 75
     2
175
     1
 42
40.0
 92
        0
 66
   257
 43
1.0
 76
     1
 77
     6
 78
     2
 67
     7
 79
     3
170
     0
171
     0
290
     0
174
     0
 93
        1
 44
0.0
173
     0
291
     0
 45
0.0
  0
VISUALSTYLE
  5
30
102
{ACAD_REACTORS
330
2A
102
}
330
2A
100
AcDbVisualStyle
  2
3dWireframe
 70
     5
 71
     0
 72
     2
 73
     0
 90
        0
 40
-0.6
 41
-30.0
 62
     5
 63
     7
421
 16777215
 74
     1
 91
        4
 64
     7
 65
   257
 75
     1
175
     1
 42
1.0
 92
        0
 66
   257
 43
1.0
 76
     1
 77
     6
 78
     2
 67
     7
 79
     5
170
     0
171
     0
290
     0
174
     0
 93
        1
 44
0.0
173
     0
291
     0
 45
0.0
  0
VISUALSTYLE
  5
32
102
{ACAD_REACTORS
330
2A
102
}
330
2A
100
AcDbVisualStyle
  2
Basic
 70
     7
 71
     1
 72
     0
 73
     1
 90
        0
 40
-0.6
 41
-30.0
 62
     5
 63
     7
421
 16777215
 74
     0
 91
        4
 64
     7
 65
   257
 75
     1
175
     1
 42
1.0
 92
        8
 66
     7
 43
1.0
 76
     1
 77
     6
 78
     2
 67
     7
 79
     5
170
     0
171
     0
290
     0
174
     0
 93
        1
 44
0.0
173
     0
291
     1
 45
0.0
  0
VISUALSTYLE
  5
36
102
{ACAD_REACTORS
330
2A
102
}
330
2A
100
AcDbVisualStyle
  2
Brighten
 70
    12
 71
     2
 72
     2
 73
     0
 90
        0
 40
-0.6
 41
-30.0
 62
     5
 63
     7
421
 16777215
 74
     1
 91
        4
 64
     7
 65
   257
 75
     1
175
     1
 42
1.0
 92
        8
 66
     7
 43
1.0
 76
     1
 77
     6
 78
     2
 67
     7
 79
     5
170
     0
171
     0
290
     0
174
     0
 93
        1
 44
50.0
173
     0
291
     1
 45
0.0
  0
VISUALSTYLE
  5
3A
102
{ACAD_REACTORS
330
2A
102
}
330
2A
100
AcDbVisualStyle
  2
ColorChange
 70
    16
 71
     2
 72
     2
 73
     3
 90
        0
 40
-0.6
 41
-30.0
 62
     5
 63
     8
421
  8421504
 74
     1
 91
        4
 64
     7
 65
   257
 75
     1
175
     1
 42
1.0
 92
        8
 66
     8
424
  8421504
 43
1.0
 76
     1
 77
     6
 78
     2
 67
     7
 79
     5
170
     0
171
     0
290
     0
174
     0
 93
        1
 44
0.0
173
     0
291
     1
 45
0.0
  0
VISUALSTYLE
  5
34
102
{ACAD_REACTORS
330
2A
102
}
330
2A
100
AcDbVisualStyle
  2
Conceptual
 70
     9
 71
     3
 72
     2
 73
     0
 90
        0
 40
-0.6
 41
-30.0
 62
     5
 63
     7
421
 16777215
 74
     2
 91
        2
 64
     7
 65
   257
 75
     1
175
     1
 42
40.0
 92
        8
 66
     7
 43
1.0
 76
     1
 77
     6
 78
     2
 67
     7
 79
     3
170
     0
171
     0
290
     0
174
     0
 93
        1
 44
0.0
173
     0
291
     0
 45
0.0
  0
VISUALSTYLE
  5
35
102
{ACAD_REACTORS
330
2A
102
}
330
2A
100
AcDbVisualStyle
  2
Dim
 70
    11
 71
     2
 72
     2
 73
     0
 90
        0
 40
-0.6
 41
-30.0
 62
     5
 63
     7
421
 16777215
 74
     1
 91
        4
 64
     7
 65
   257
 75
     1
175
     1
 42
1.0
 92
        8
 66
     7
 43
1.0
 76
     1
 77
     6
 78
     2
 67
     7
 79
     5
170
     0
171
     0
290
     0
174
     0
 93
        1
 44
-50.0
173
     0
291
     1
 45
0.0
  0
VISUALSTYLE
  5
39
102
{ACAD_REACTORS
330
2A
102
}
330
2A
100
AcDbVisualStyle
  2
Facepattern
 70
    15
 71
     2
 72
     2
 73
     0
 90
        0
 40
-0.6
 41
-30.0
 62
     5
 63
     7
421
 16777215
 74
     1
 91
        4
 64
     7
 65
   257
 75
     1
175
     1
 42
1.0
 92
        8
 66
     7
 43
1.0
 76
     1
 77
     6
 78
     2
 67
     7
 79
     5
170
     0
171
     0
290
     0
174
     0
 93
        1
 44
0.0
173
     0
291
     1
 45
0.0
  0
VISUALSTYLE
  5
2B
102
{ACAD_REACTORS
330
2A
102
}
330
2A
100
AcDbVisualStyle
  2
Flat
 70
     0
 71
     2
 72
     1
 73
     1
 90
        2
 40
-0.6
 41
30.0
 62
     5
 63
     7
421
 16777215
 74
     0
 91
        4
 64
     7
 65
   257
 75
     1
175
     1
 42
1.0
 92
        8
 66
     7
 43
1.0
 76
     1
 77
     6
 78
     2
 67
     7
 79
     5
170
     0
171
     0
290
     0
174
     0
 93
       13
 44
0.0
173
     0
291
     1
 45
0.0
  0
VISUALSTYLE
  5
2C
102
{ACAD_REACTORS
330
2A
102
}
330
2A
100
AcDbVisualStyle
  2
FlatWithEdges
 70
     1
 71
     2
 72
     1
 73
     1
 90
        2
 40
-0.6
 41
30.0
 62
     5
 63
     7
421
 16777215
 74
     1
 91
        4
 64
     7
 65
   257
 75
     1
175
     1
 42
1.0
 92
        0
 66
   257
 43
1.0
 76
     1
 77
     6
 78
     2
 67
     7
 79
     5
170
     0
171
     0
290
     0
174
     0
 93
       13
 44
0.0
173
     0
291
     1
 45
0.0
  0
VISUALSTYLE
  5
2D
102
{ACAD_REACTORS
330
2A
102
}
330
2A
100
AcDbVisualStyle
  2
Gouraud
 70
     2
 71
     2
 72
     2
 73
     1
 90
        2
 40
-0.6
 41
30.0
 62
     5
 63
     7
421
 16777215
 74
     0
 91
        4
 64
     7
 65
   257
 75
     1
175
     1
 42
1.0
 92
        0
 66
     7
 43
1.0
 76
     1
 77
     6
 78
     2
 67
     7
 79
     5
170
     0
171
     0
290
     0
174
     0
 93
       13
 44
0.0
173
     0
291
     1
 45
0.0
  0
VISUALSTYLE
  5
2E
102
{ACAD_REACTORS
330
2A
102
}
330
2A
100
AcDbVisualStyle
  2
GouraudWithEdges
 70
     3
 71
     2
 72
     2
 73
     1
 90
        2
 40
-0.6
 41
30.0
 62
     5
 63
     7
421
 16777215
 74
     1
 91
        4
 64
     7
 65
   257
 75
     1
175
     1
 42
1.0
 92
        0
 66
   257
 43
1.0
 76
     1
 77
     6
 78
     2
 67
     7
 79
     5
170
     0
171
     0
290
     0
174
     0
 93
       13
 44
0.0
173
     0
291
     1
 45
0.0
  0
VISUALSTYLE
  5
38
102
{ACAD_REACTORS
330
2A
102
}
330
2A
100
AcDbVisualStyle
  2
Linepattern
 70
    14
 71
     2
 72
     2
 73
     0
 90
        0
 40
-0.6
 41
-30.0
 62
     5
 63
     7
421
 16777215
 74
     1
 91
        4
 64
     7
 65
   257
 75
     7
175
     7
 42
1.0
 92
        8
 66
     7
 43
1.0
 76
     1
 77
     6
 78
     2
 67
     7
 79
     5
170
     0
171
     0
290
     0
174
     0
 93
        1
 44
0.0
173
     0
291
     1
 45
0.0
  0
VISUALSTYLE
  5
33
102
{ACAD_REACTORS
330
2A
102
}
330
2A
100
AcDbVisualStyle
  2
Realistic
 70
     8
 71
     2
 72
     2
 73
     0
 90
        0
 40
-0.6
 41
-30.0
 62
     5
 63
     7
421
 16777215
 74
     1
 91
        0
 64
     7
 65
   257
 75
     1
175
     1
 42
1.0
 92
        8
 66
     8
424
  7895160
 43
1.0
 76
     1
 77
     6
 78
     2
 67
     7
 79
     5
170
     0
171
     0
290
     0
174
     0
 93
       13
 44
0.0
173
     0
291
     0
 45
0.0
  0
VISUALSTYLE
  5
37
102
{ACAD_REACTORS
330
2A
102
}
330
2A
100
AcDbVisualStyle
  2
Thicken
 70
    13
 71
     2
 72
     2
 73
     0
 90
        0
 40
-0.6
 41
-30.0
 62
     5
 63
     7
421
 16777215
 74
     1
 91
        4
 64
     7
 65
   257
 75
     1
175
     1
 42
1.0
 92
       12
 66
     7
 43
1.0
 76
     1
 77
     6
 78
     2
 67
     7
 79
     5
170
     0
171
     0
290
     0
174
     0
 93
        1
 44
0.0
173
     0
291
     1
 45
0.0
  0
ENDSEC
  0
EOF
