solid OpenSCAD_Model
  facet normal -0.980738 -0.195327 0
    outer loop
      vertex 0 5 0
      vertex 0.381 3.087 0
      vertex 0 5 3
    endloop
  endfacet
  facet normal -0.980738 -0.195327 0
    outer loop
      vertex 0 5 3
      vertex 0.381 3.087 0
      vertex 0.381 3.087 3
    endloop
  endfacet
  facet normal 0 0 -1
    outer loop
      vertex 0 5 0
      vertex 0 28 0
      vertex 0.381 3.087 0
    endloop
  endfacet
  facet normal 0 0 -1
    outer loop
      vertex 0.381 3.087 0
      vertex 0 28 0
      vertex 0.381 29.913 0
    endloop
  endfacet
  facet normal 0 0 -1
    outer loop
      vertex 0.381 3.087 0
      vertex 0.381 29.913 0
      vertex 1.464 31.536 0
    endloop
  endfacet
  facet normal 0 0 -1
    outer loop
      vertex 0.381 3.087 0
      vertex 1.464 31.536 0
      vertex 3.087 32.619 0
    endloop
  endfacet
  facet normal 0 0 -1
    outer loop
      vertex 3.5 28 0
      vertex 3.087 32.619 0
      vertex 5 33 0
    endloop
  endfacet
  facet normal 0 0 -1
    outer loop
      vertex 9.5 28 0
      vertex 5 33 0
      vertex 28 33 0
    endloop
  endfacet
  facet normal 0 0 -1
    outer loop
      vertex 25 29.5 0
      vertex 28 33 0
      vertex 29.913 32.619 0
    endloop
  endfacet
  facet normal 0 0 -1
    outer loop
      vertex 28 28.937 0
      vertex 29.913 32.619 0
      vertex 31.536 31.536 0
    endloop
  endfacet
  facet normal 0 0 -1
    outer loop
      vertex 29.5 28 0
      vertex 31.536 31.536 0
      vertex 32.619 29.913 0
    endloop
  endfacet
  facet normal 0 0 -1
    outer loop
      vertex 28 23.5 0
      vertex 8.927 8.263 0
      vertex 8 8.937 0
    endloop
  endfacet
  facet normal 0 0 -1
    outer loop
      vertex 28 4.063 0
      vertex 33 5 0
      vertex 32.619 3.087 0
    endloop
  endfacet
  facet normal 0 0 -1
    outer loop
      vertex 0.381 3.087 0
      vertex 32.619 3.087 0
      vertex 31.536 1.464 0
    endloop
  endfacet
  facet normal 0 0 -1
    outer loop
      vertex 0.381 3.087 0
      vertex 31.536 1.464 0
      vertex 29.913 0.381 0
    endloop
  endfacet
  facet normal 0 0 -1
    outer loop
      vertex 0.381 3.087 0
      vertex 29.913 0.381 0
      vertex 28 0 0
    endloop
  endfacet
  facet normal 0 0 -1
    outer loop
      vertex 0.381 3.087 0
      vertex 28 0 0
      vertex 5 0 0
    endloop
  endfacet
  facet normal 0 0 -1
    outer loop
      vertex 0.381 3.087 0
      vertex 5 0 0
      vertex 3.087 0.381 0
    endloop
  endfacet
  facet normal 0 0 -1
    outer loop
      vertex 0.381 3.087 0
      vertex 3.087 0.381 0
      vertex 1.464 1.464 0
    endloop
  endfacet
  facet normal 0 0 -1
    outer loop
      vertex 5 9.5 0
      vertex 3.5 8 0
      vertex 28 33 0
    endloop
  endfacet
  facet normal 0 0 -1
    outer loop
      vertex 8 3.5 0
      vertex 0.381 3.087 0
      vertex 5 3.5 0
    endloop
  endfacet
  facet normal 0 0 -1
    outer loop
      vertex 0.381 3.087 0
      vertex 3.5 5 0
      vertex 3.988 5 0
    endloop
  endfacet
  facet normal 0 0 -1
    outer loop
      vertex 0.381 3.087 0
      vertex 3.988 5 0
      vertex 4.073 4.737 0
    endloop
  endfacet
  facet normal 0 0 -1
    outer loop
      vertex 5 9.5 0
      vertex 23.5 25 0
      vertex 23.988 25 0
    endloop
  endfacet
  facet normal 0 0 -1
    outer loop
      vertex 0.381 3.087 0
      vertex 4.073 4.737 0
      vertex 5 4.063 0
    endloop
  endfacet
  facet normal 0 0 -1
    outer loop
      vertex 0.381 3.087 0
      vertex 5 4.063 0
      vertex 5 3.5 0
    endloop
  endfacet
  facet normal 0 0 -1
    outer loop
      vertex 0.381 3.087 0
      vertex 8 3.5 0
      vertex 32.619 3.087 0
    endloop
  endfacet
  facet normal 0 0 -1
    outer loop
      vertex 25 4.063 0
      vertex 8 3.5 0
      vertex 8 4.063 0
    endloop
  endfacet
  facet normal 0 0 -1
    outer loop
      vertex 29.5 8 0
      vertex 33 28 0
      vertex 33 5 0
    endloop
  endfacet
  facet normal 0 0 -1
    outer loop
      vertex 28 23.5 0
      vertex 33 28 0
      vertex 9.5 5 0
    endloop
  endfacet
  facet normal 0 0 -1
    outer loop
      vertex 8.927 4.737 0
      vertex 24.073 4.737 0
      vertex 8 4.063 0
    endloop
  endfacet
  facet normal 0 0 -1
    outer loop
      vertex 9.012 5 0
      vertex 9.5 5 0
      vertex 8.927 4.737 0
    endloop
  endfacet
  facet normal 0 0 -1
    outer loop
      vertex 9.5 5 0
      vertex 23.5 5 0
      vertex 8.927 4.737 0
    endloop
  endfacet
  facet normal 0 0 -1
    outer loop
      vertex 4.073 8.263 0
      vertex 3.5 8 0
      vertex 5 9.5 0
    endloop
  endfacet
  facet normal 0 0 -1
    outer loop
      vertex 4.073 8.263 0
      vertex 5 9.5 0
      vertex 5 8.937 0
    endloop
  endfacet
  facet normal 0 0 -1
    outer loop
      vertex 3.5 5 0
      vertex 0.381 3.087 0
      vertex 3.5 8 0
    endloop
  endfacet
  facet normal 0 0 -1
    outer loop
      vertex 0.381 3.087 0
      vertex 3.087 32.619 0
      vertex 3.5 28 0
    endloop
  endfacet
  facet normal 0 0 -1
    outer loop
      vertex 4.073 28.263 0
      vertex 3.5 28 0
      vertex 5 33 0
    endloop
  endfacet
  facet normal 0 0 -1
    outer loop
      vertex 0.381 3.087 0
      vertex 3.5 28 0
      vertex 3.5 25 0
    endloop
  endfacet
  facet normal 0 0 -1
    outer loop
      vertex 5 24.063 0
      vertex 3.5 8 0
      vertex 4.073 24.737 0
    endloop
  endfacet
  facet normal 0 0 -1
    outer loop
      vertex 0.381 3.087 0
      vertex 3.988 25 0
      vertex 3.5 8 0
    endloop
  endfacet
  facet normal 0 0 -1
    outer loop
      vertex 29.5 8 0
      vertex 33 5 0
      vertex 29.5 5 0
    endloop
  endfacet
  facet normal 0 0 -1
    outer loop
      vertex 3.988 25 0
      vertex 4.073 24.737 0
      vertex 3.5 8 0
    endloop
  endfacet
  facet normal 0 0 -1
    outer loop
      vertex 9.5 28 0
      vertex 28 33 0
      vertex 9.5 25 0
    endloop
  endfacet
  facet normal 0 0 -1
    outer loop
      vertex 3.5 8 0
      vertex 5 24.063 0
      vertex 5 23.5 0
    endloop
  endfacet
  facet normal 0 0 -1
    outer loop
      vertex 3.5 8 0
      vertex 5 23.5 0
      vertex 8 23.5 0
    endloop
  endfacet
  facet normal 0 0 -1
    outer loop
      vertex 3.5 8 0
      vertex 8 23.5 0
      vertex 28 33 0
    endloop
  endfacet
  facet normal 0 0 -1
    outer loop
      vertex 8 23.5 0
      vertex 8 24.063 0
      vertex 28 33 0
    endloop
  endfacet
  facet normal 0 0 -1
    outer loop
      vertex 8 24.063 0
      vertex 8.927 24.737 0
      vertex 28 33 0
    endloop
  endfacet
  facet normal 0 0 -1
    outer loop
      vertex 8.927 24.737 0
      vertex 9.012 25 0
      vertex 9.5 25 0
    endloop
  endfacet
  facet normal 0 0 -1
    outer loop
      vertex 8.927 24.737 0
      vertex 9.5 25 0
      vertex 28 33 0
    endloop
  endfacet
  facet normal 0 0 -1
    outer loop
      vertex 8 29.5 0
      vertex 5 33 0
      vertex 9.5 28 0
    endloop
  endfacet
  facet normal 0 0 -1
    outer loop
      vertex 8 29.5 0
      vertex 8.927 28.263 0
      vertex 8 28.937 0
    endloop
  endfacet
  facet normal 0 0 -1
    outer loop
      vertex 4.073 28.263 0
      vertex 5 29.5 0
      vertex 5 28.937 0
    endloop
  endfacet
  facet normal 0 0 -1
    outer loop
      vertex 9.012 28 0
      vertex 8.927 28.263 0
      vertex 9.5 28 0
    endloop
  endfacet
  facet normal 0 0 -1
    outer loop
      vertex 4.073 28.263 0
      vertex 5 33 0
      vertex 5 29.5 0
    endloop
  endfacet
  facet normal 0 0 -1
    outer loop
      vertex 5 29.5 0
      vertex 5 33 0
      vertex 8 29.5 0
    endloop
  endfacet
  facet normal 0 0 -1
    outer loop
      vertex 8.927 28.263 0
      vertex 8 29.5 0
      vertex 9.5 28 0
    endloop
  endfacet
  facet normal 0 0 -1
    outer loop
      vertex 3.988 28 0
      vertex 3.5 28 0
      vertex 4.073 28.263 0
    endloop
  endfacet
  facet normal 0 0 -1
    outer loop
      vertex 24.073 4.737 0
      vertex 8.927 4.737 0
      vertex 23.988 5 0
    endloop
  endfacet
  facet normal 0 0 -1
    outer loop
      vertex 9.5 5 0
      vertex 33 28 0
      vertex 23.5 8 0
    endloop
  endfacet
  facet normal 0 0 -1
    outer loop
      vertex 9.5 5 0
      vertex 23.5 8 0
      vertex 23.5 5 0
    endloop
  endfacet
  facet normal 0 0 -1
    outer loop
      vertex 9.5 8 0
      vertex 28 23.5 0
      vertex 9.5 5 0
    endloop
  endfacet
  facet normal 0 0 -1
    outer loop
      vertex 25 4.063 0
      vertex 8 4.063 0
      vertex 24.073 4.737 0
    endloop
  endfacet
  facet normal 0 0 -1
    outer loop
      vertex 29.5 5 0
      vertex 33 5 0
      vertex 28.927 4.737 0
    endloop
  endfacet
  facet normal 0 0 -1
    outer loop
      vertex 8 3.5 0
      vertex 25 4.063 0
      vertex 25 3.5 0
    endloop
  endfacet
  facet normal 0 0 -1
    outer loop
      vertex 8 3.5 0
      vertex 25 3.5 0
      vertex 32.619 3.087 0
    endloop
  endfacet
  facet normal 0 0 -1
    outer loop
      vertex 25 3.5 0
      vertex 28 3.5 0
      vertex 32.619 3.087 0
    endloop
  endfacet
  facet normal 0 0 -1
    outer loop
      vertex 29.012 5 0
      vertex 29.5 5 0
      vertex 28.927 4.737 0
    endloop
  endfacet
  facet normal 0 0 -1
    outer loop
      vertex 28.927 4.737 0
      vertex 33 5 0
      vertex 28 4.063 0
    endloop
  endfacet
  facet normal 0 0 -1
    outer loop
      vertex 28 4.063 0
      vertex 32.619 3.087 0
      vertex 28 3.5 0
    endloop
  endfacet
  facet normal 0 0 -1
    outer loop
      vertex 28.927 8.263 0
      vertex 33 28 0
      vertex 29.012 8 0
    endloop
  endfacet
  facet normal 0 0 -1
    outer loop
      vertex 23.988 8 0
      vertex 23.5 8 0
      vertex 24.073 8.263 0
    endloop
  endfacet
  facet normal 0 0 -1
    outer loop
      vertex 33 28 0
      vertex 29.5 8 0
      vertex 29.012 8 0
    endloop
  endfacet
  facet normal 0 0 -1
    outer loop
      vertex 28 8.937 0
      vertex 33 28 0
      vertex 28.927 8.263 0
    endloop
  endfacet
  facet normal 0 0 -1
    outer loop
      vertex 23.5 28 0
      vertex 24.073 28.263 0
      vertex 23.988 28 0
    endloop
  endfacet
  facet normal 0 0 -1
    outer loop
      vertex 28 9.5 0
      vertex 33 28 0
      vertex 28 8.937 0
    endloop
  endfacet
  facet normal 0 0 -1
    outer loop
      vertex 28 23.5 0
      vertex 8 8.937 0
      vertex 25 23.5 0
    endloop
  endfacet
  facet normal 0 0 -1
    outer loop
      vertex 25 9.5 0
      vertex 33 28 0
      vertex 28 9.5 0
    endloop
  endfacet
  facet normal 0 0 -1
    outer loop
      vertex 23.5 8 0
      vertex 33 28 0
      vertex 25 9.5 0
    endloop
  endfacet
  facet normal 0 0 -1
    outer loop
      vertex 23.5 8 0
      vertex 25 9.5 0
      vertex 25 8.937 0
    endloop
  endfacet
  facet normal 0 0 -1
    outer loop
      vertex 23.5 8 0
      vertex 25 8.937 0
      vertex 24.073 8.263 0
    endloop
  endfacet
  facet normal 0 0 -1
    outer loop
      vertex 5 9.5 0
      vertex 24.073 24.737 0
      vertex 8 9.5 0
    endloop
  endfacet
  facet normal 0 0 -1
    outer loop
      vertex 5 9.5 0
      vertex 23.988 25 0
      vertex 24.073 24.737 0
    endloop
  endfacet
  facet normal 0 0 -1
    outer loop
      vertex 25 23.5 0
      vertex 8 9.5 0
      vertex 25 24.063 0
    endloop
  endfacet
  facet normal 0 0 -1
    outer loop
      vertex 28 23.5 0
      vertex 9.012 8 0
      vertex 8.927 8.263 0
    endloop
  endfacet
  facet normal 0 0 -1
    outer loop
      vertex 23.5 5 0
      vertex 23.988 5 0
      vertex 8.927 4.737 0
    endloop
  endfacet
  facet normal 0 0 -1
    outer loop
      vertex 29.5 25 0
      vertex 33 28 0
      vertex 28 23.5 0
    endloop
  endfacet
  facet normal 0 0 -1
    outer loop
      vertex 23.5 25 0
      vertex 5 9.5 0
      vertex 23.5 28 0
    endloop
  endfacet
  facet normal 0 0 -1
    outer loop
      vertex 25 28.937 0
      vertex 23.5 28 0
      vertex 25 29.5 0
    endloop
  endfacet
  facet normal 0 0 -1
    outer loop
      vertex 25 24.063 0
      vertex 8 9.5 0
      vertex 24.073 24.737 0
    endloop
  endfacet
  facet normal 0 0 -1
    outer loop
      vertex 29.5 28 0
      vertex 33 28 0
      vertex 29.5 25 0
    endloop
  endfacet
  facet normal 0 0 -1
    outer loop
      vertex 29.012 28 0
      vertex 31.536 31.536 0
      vertex 29.5 28 0
    endloop
  endfacet
  facet normal 0 0 -1
    outer loop
      vertex 28 28.937 0
      vertex 31.536 31.536 0
      vertex 28.927 28.263 0
    endloop
  endfacet
  facet normal 0 0 -1
    outer loop
      vertex 28.927 28.263 0
      vertex 31.536 31.536 0
      vertex 29.012 28 0
    endloop
  endfacet
  facet normal 0 0 -1
    outer loop
      vertex 28 29.5 0
      vertex 29.913 32.619 0
      vertex 28 28.937 0
    endloop
  endfacet
  facet normal 0 0 -1
    outer loop
      vertex 25 29.5 0
      vertex 29.913 32.619 0
      vertex 28 29.5 0
    endloop
  endfacet
  facet normal 0 0 -1
    outer loop
      vertex 23.5 28 0
      vertex 28 33 0
      vertex 25 29.5 0
    endloop
  endfacet
  facet normal 0 0 -1
    outer loop
      vertex 24.073 28.263 0
      vertex 23.5 28 0
      vertex 25 28.937 0
    endloop
  endfacet
  facet normal 0 0 -1
    outer loop
      vertex 3.988 25 0
      vertex 0.381 3.087 0
      vertex 3.5 25 0
    endloop
  endfacet
  facet normal 0 0 -1
    outer loop
      vertex 3.5 8 0
      vertex 4.073 8.263 0
      vertex 3.988 8 0
    endloop
  endfacet
  facet normal 0 0 -1
    outer loop
      vertex 29.5 25 0
      vertex 28.927 24.737 0
      vertex 29.012 25 0
    endloop
  endfacet
  facet normal 0 0 -1
    outer loop
      vertex 29.5 28 0
      vertex 32.619 29.913 0
      vertex 33 28 0
    endloop
  endfacet
  facet normal 0 0 -1
    outer loop
      vertex 28 24.063 0
      vertex 28.927 24.737 0
      vertex 29.5 25 0
    endloop
  endfacet
  facet normal 0 0 -1
    outer loop
      vertex 28 24.063 0
      vertex 29.5 25 0
      vertex 28 23.5 0
    endloop
  endfacet
  facet normal 0 0 -1
    outer loop
      vertex 28 23.5 0
      vertex 9.5 8 0
      vertex 9.012 8 0
    endloop
  endfacet
  facet normal 0 0 -1
    outer loop
      vertex 8 9.5 0
      vertex 25 23.5 0
      vertex 8 8.937 0
    endloop
  endfacet
  facet normal 0 0 -1
    outer loop
      vertex 5 9.5 0
      vertex 28 33 0
      vertex 23.5 28 0
    endloop
  endfacet
  facet normal -1 0 0
    outer loop
      vertex 0 5 0
      vertex 0 5 3
      vertex 0 28 0
    endloop
  endfacet
  facet normal -1 0 0
    outer loop
      vertex 0 28 0
      vertex 0 5 3
      vertex 0 28 3
    endloop
  endfacet
  facet normal 0 0 1
    outer loop
      vertex 0 28 3
      vertex 0 5 3
      vertex 0.381 3.087 3
    endloop
  endfacet
  facet normal 0 0 1
    outer loop
      vertex 3.087 0.381 3
      vertex 0 28 3
      vertex 1.464 1.464 3
    endloop
  endfacet
  facet normal 0 0 1
    outer loop
      vertex 1.464 1.464 3
      vertex 0 28 3
      vertex 0.381 3.087 3
    endloop
  endfacet
  facet normal 0 0 1
    outer loop
      vertex 3.5 5 3
      vertex 0 28 3
      vertex 3.087 0.381 3
    endloop
  endfacet
  facet normal 0 0 1
    outer loop
      vertex 23.5 5 3
      vertex 0 28 3
      vertex 28 0 3
    endloop
  endfacet
  facet normal 0 0 1
    outer loop
      vertex 28 9.5 3
      vertex 28 8.937 3
      vertex 28.927 8.263 3
    endloop
  endfacet
  facet normal 0 0 1
    outer loop
      vertex 3.5 25 3
      vertex 3.5 28 3
      vertex 0 28 3
    endloop
  endfacet
  facet normal 0 0 1
    outer loop
      vertex 23.5 25 3
      vertex 9.5 28 3
      vertex 33 5 3
    endloop
  endfacet
  facet normal 0 0 1
    outer loop
      vertex 3.988 28 3
      vertex 4.073 28.263 3
      vertex 3.5 28 3
    endloop
  endfacet
  facet normal 0 0 1
    outer loop
      vertex 8 29.5 3
      vertex 29.913 32.619 3
      vertex 28 33 3
    endloop
  endfacet
  facet normal 0 0 1
    outer loop
      vertex 3.087 32.619 3
      vertex 0 28 3
      vertex 5 33 3
    endloop
  endfacet
  facet normal 0 0 1
    outer loop
      vertex 1.464 31.536 3
      vertex 0 28 3
      vertex 3.087 32.619 3
    endloop
  endfacet
  facet normal 0 0 1
    outer loop
      vertex 0.381 29.913 3
      vertex 0 28 3
      vertex 1.464 31.536 3
    endloop
  endfacet
  facet normal 0 0 1
    outer loop
      vertex 5 0 3
      vertex 3.5 5 3
      vertex 3.087 0.381 3
    endloop
  endfacet
  facet normal 0 0 1
    outer loop
      vertex 3.5 8 3
      vertex 0 28 3
      vertex 3.5 5 3
    endloop
  endfacet
  facet normal 0 0 1
    outer loop
      vertex 4.073 8.263 3
      vertex 0 28 3
      vertex 3.988 8 3
    endloop
  endfacet
  facet normal 0 0 1
    outer loop
      vertex 8 3.5 3
      vertex 5 3.5 3
      vertex 5 0 3
    endloop
  endfacet
  facet normal 0 0 1
    outer loop
      vertex 5 8.937 3
      vertex 0 28 3
      vertex 4.073 8.263 3
    endloop
  endfacet
  facet normal 0 0 1
    outer loop
      vertex 5 3.5 3
      vertex 4.073 4.737 3
      vertex 5 0 3
    endloop
  endfacet
  facet normal 0 0 1
    outer loop
      vertex 5 9.5 3
      vertex 0 28 3
      vertex 5 8.937 3
    endloop
  endfacet
  facet normal 0 0 1
    outer loop
      vertex 5 4.063 3
      vertex 4.073 4.737 3
      vertex 5 3.5 3
    endloop
  endfacet
  facet normal 0 0 1
    outer loop
      vertex 8 9.5 3
      vertex 0 28 3
      vertex 5 9.5 3
    endloop
  endfacet
  facet normal 0 0 1
    outer loop
      vertex 28 0 3
      vertex 0 28 3
      vertex 8 9.5 3
    endloop
  endfacet
  facet normal 0 0 1
    outer loop
      vertex 28 0 3
      vertex 8 9.5 3
      vertex 8 8.937 3
    endloop
  endfacet
  facet normal 0 0 1
    outer loop
      vertex 28 0 3
      vertex 8 8.937 3
      vertex 8.927 8.263 3
    endloop
  endfacet
  facet normal 0 0 1
    outer loop
      vertex 3.988 25 3
      vertex 3.5 25 3
      vertex 4.073 24.737 3
    endloop
  endfacet
  facet normal 0 0 1
    outer loop
      vertex 9.5 8 3
      vertex 8.927 8.263 3
      vertex 9.012 8 3
    endloop
  endfacet
  facet normal 0 0 1
    outer loop
      vertex 28 0 3
      vertex 8.927 8.263 3
      vertex 9.5 8 3
    endloop
  endfacet
  facet normal 0 0 1
    outer loop
      vertex 28 0 3
      vertex 9.5 5 3
      vertex 5 0 3
    endloop
  endfacet
  facet normal 0 0 1
    outer loop
      vertex 8 4.063 3
      vertex 8 3.5 3
      vertex 8.927 4.737 3
    endloop
  endfacet
  facet normal 0 0 1
    outer loop
      vertex 9.5 5 3
      vertex 9.012 5 3
      vertex 8.927 4.737 3
    endloop
  endfacet
  facet normal 0 0 1
    outer loop
      vertex 9.5 5 3
      vertex 8 3.5 3
      vertex 5 0 3
    endloop
  endfacet
  facet normal 0 0 1
    outer loop
      vertex 9.5 5 3
      vertex 8.927 4.737 3
      vertex 8 3.5 3
    endloop
  endfacet
  facet normal 0 0 1
    outer loop
      vertex 23.5 5 3
      vertex 5 23.5 3
      vertex 0 28 3
    endloop
  endfacet
  facet normal 0 0 1
    outer loop
      vertex 5 0 3
      vertex 4.073 4.737 3
      vertex 3.5 5 3
    endloop
  endfacet
  facet normal 0 0 1
    outer loop
      vertex 4.073 28.263 3
      vertex 5 28.937 3
      vertex 0 28 3
    endloop
  endfacet
  facet normal 0 0 1
    outer loop
      vertex 4.073 4.737 3
      vertex 3.988 5 3
      vertex 3.5 5 3
    endloop
  endfacet
  facet normal 0 0 1
    outer loop
      vertex 23.988 5 3
      vertex 23.5 5 3
      vertex 24.073 4.737 3
    endloop
  endfacet
  facet normal 0 0 1
    outer loop
      vertex 5 23.5 3
      vertex 5 24.063 3
      vertex 4.073 24.737 3
    endloop
  endfacet
  facet normal 0 0 1
    outer loop
      vertex 9.5 28 3
      vertex 9.5 25 3
      vertex 28 9.5 3
    endloop
  endfacet
  facet normal 0 0 1
    outer loop
      vertex 8 28.937 3
      vertex 8.927 28.263 3
      vertex 25 29.5 3
    endloop
  endfacet
  facet normal 0 0 1
    outer loop
      vertex 5 33 3
      vertex 5 29.5 3
      vertex 28 33 3
    endloop
  endfacet
  facet normal 0 0 1
    outer loop
      vertex 5 29.5 3
      vertex 0 28 3
      vertex 5 28.937 3
    endloop
  endfacet
  facet normal 0 0 1
    outer loop
      vertex 5 33 3
      vertex 0 28 3
      vertex 5 29.5 3
    endloop
  endfacet
  facet normal 0 0 1
    outer loop
      vertex 8 28.937 3
      vertex 25 29.5 3
      vertex 31.536 31.536 3
    endloop
  endfacet
  facet normal 0 0 1
    outer loop
      vertex 28 33 3
      vertex 5 29.5 3
      vertex 8 29.5 3
    endloop
  endfacet
  facet normal 0 0 1
    outer loop
      vertex 29.913 32.619 3
      vertex 8 28.937 3
      vertex 31.536 31.536 3
    endloop
  endfacet
  facet normal 0 0 1
    outer loop
      vertex 8 29.5 3
      vertex 8 28.937 3
      vertex 29.913 32.619 3
    endloop
  endfacet
  facet normal 0 0 1
    outer loop
      vertex 25 29.5 3
      vertex 28 29.5 3
      vertex 32.619 29.913 3
    endloop
  endfacet
  facet normal 0 0 1
    outer loop
      vertex 29.012 8 3
      vertex 29.5 8 3
      vertex 28.927 8.263 3
    endloop
  endfacet
  facet normal 0 0 1
    outer loop
      vertex 23.5 28 3
      vertex 9.5 28 3
      vertex 23.5 25 3
    endloop
  endfacet
  facet normal 0 0 1
    outer loop
      vertex 8.927 28.263 3
      vertex 9.012 28 3
      vertex 9.5 28 3
    endloop
  endfacet
  facet normal 0 0 1
    outer loop
      vertex 29.5 8 3
      vertex 32.619 3.087 3
      vertex 33 5 3
    endloop
  endfacet
  facet normal 0 0 1
    outer loop
      vertex 5 23.5 3
      vertex 4.073 24.737 3
      vertex 3.5 25 3
    endloop
  endfacet
  facet normal 0 0 1
    outer loop
      vertex 9.5 28 3
      vertex 28 9.5 3
      vertex 33 5 3
    endloop
  endfacet
  facet normal 0 0 1
    outer loop
      vertex 3.5 28 3
      vertex 4.073 28.263 3
      vertex 0 28 3
    endloop
  endfacet
  facet normal 0 0 1
    outer loop
      vertex 3.5 25 3
      vertex 0 28 3
      vertex 5 23.5 3
    endloop
  endfacet
  facet normal 0 0 1
    outer loop
      vertex 23.5 5 3
      vertex 23.5 8 3
      vertex 8 23.5 3
    endloop
  endfacet
  facet normal 0 0 1
    outer loop
      vertex 23.5 5 3
      vertex 8 23.5 3
      vertex 5 23.5 3
    endloop
  endfacet
  facet normal 0 0 1
    outer loop
      vertex 25 9.5 3
      vertex 9.5 25 3
      vertex 9.012 25 3
    endloop
  endfacet
  facet normal 0 0 1
    outer loop
      vertex 25 3.5 3
      vertex 23.5 5 3
      vertex 28 0 3
    endloop
  endfacet
  facet normal 0 0 1
    outer loop
      vertex 23.988 28 3
      vertex 24.073 28.263 3
      vertex 8.927 28.263 3
    endloop
  endfacet
  facet normal 0 0 1
    outer loop
      vertex 25 9.5 3
      vertex 8 24.063 3
      vertex 8 23.5 3
    endloop
  endfacet
  facet normal 0 0 1
    outer loop
      vertex 25 9.5 3
      vertex 28 9.5 3
      vertex 9.5 25 3
    endloop
  endfacet
  facet normal 0 0 1
    outer loop
      vertex 29.5 5 3
      vertex 29.012 5 3
      vertex 32.619 3.087 3
    endloop
  endfacet
  facet normal 0 0 1
    outer loop
      vertex 29.5 8 3
      vertex 29.5 5 3
      vertex 32.619 3.087 3
    endloop
  endfacet
  facet normal 0 0 1
    outer loop
      vertex 8 23.5 3
      vertex 25 8.937 3
      vertex 25 9.5 3
    endloop
  endfacet
  facet normal 0 0 1
    outer loop
      vertex 28 9.5 3
      vertex 29.5 8 3
      vertex 33 5 3
    endloop
  endfacet
  facet normal 0 0 1
    outer loop
      vertex 28.927 4.737 3
      vertex 28 4.063 3
      vertex 31.536 1.464 3
    endloop
  endfacet
  facet normal 0 0 1
    outer loop
      vertex 25 9.5 3
      vertex 8.927 24.737 3
      vertex 8 24.063 3
    endloop
  endfacet
  facet normal 0 0 1
    outer loop
      vertex 32.619 3.087 3
      vertex 29.012 5 3
      vertex 31.536 1.464 3
    endloop
  endfacet
  facet normal 0 0 1
    outer loop
      vertex 29.012 5 3
      vertex 28.927 4.737 3
      vertex 31.536 1.464 3
    endloop
  endfacet
  facet normal 0 0 1
    outer loop
      vertex 31.536 1.464 3
      vertex 28 4.063 3
      vertex 29.913 0.381 3
    endloop
  endfacet
  facet normal 0 0 1
    outer loop
      vertex 25 3.5 3
      vertex 25 4.063 3
      vertex 23.5 5 3
    endloop
  endfacet
  facet normal 0 0 1
    outer loop
      vertex 28 4.063 3
      vertex 28 3.5 3
      vertex 29.913 0.381 3
    endloop
  endfacet
  facet normal 0 0 1
    outer loop
      vertex 29.913 0.381 3
      vertex 25 3.5 3
      vertex 28 0 3
    endloop
  endfacet
  facet normal 0 0 1
    outer loop
      vertex 25 4.063 3
      vertex 24.073 4.737 3
      vertex 23.5 5 3
    endloop
  endfacet
  facet normal 0 0 1
    outer loop
      vertex 28 3.5 3
      vertex 25 3.5 3
      vertex 29.913 0.381 3
    endloop
  endfacet
  facet normal 0 0 1
    outer loop
      vertex 29.5 25 3
      vertex 29.012 25 3
      vertex 33 5 3
    endloop
  endfacet
  facet normal 0 0 1
    outer loop
      vertex 24.073 24.737 3
      vertex 23.988 25 3
      vertex 23.5 25 3
    endloop
  endfacet
  facet normal 0 0 1
    outer loop
      vertex 8.927 28.263 3
      vertex 9.5 28 3
      vertex 23.5 28 3
    endloop
  endfacet
  facet normal 0 0 1
    outer loop
      vertex 8.927 28.263 3
      vertex 23.5 28 3
      vertex 23.988 28 3
    endloop
  endfacet
  facet normal 0 0 1
    outer loop
      vertex 25 28.937 3
      vertex 8.927 28.263 3
      vertex 24.073 28.263 3
    endloop
  endfacet
  facet normal 0 0 1
    outer loop
      vertex 28.927 28.263 3
      vertex 29.5 28 3
      vertex 33 28 3
    endloop
  endfacet
  facet normal 0 0 1
    outer loop
      vertex 28 29.5 3
      vertex 28 28.937 3
      vertex 32.619 29.913 3
    endloop
  endfacet
  facet normal 0 0 1
    outer loop
      vertex 31.536 31.536 3
      vertex 25 29.5 3
      vertex 32.619 29.913 3
    endloop
  endfacet
  facet normal 0 0 1
    outer loop
      vertex 28.927 28.263 3
      vertex 29.012 28 3
      vertex 29.5 28 3
    endloop
  endfacet
  facet normal 0 0 1
    outer loop
      vertex 32.619 29.913 3
      vertex 28 28.937 3
      vertex 33 28 3
    endloop
  endfacet
  facet normal 0 0 1
    outer loop
      vertex 28 28.937 3
      vertex 28.927 28.263 3
      vertex 33 28 3
    endloop
  endfacet
  facet normal 0 0 1
    outer loop
      vertex 29.5 28 3
      vertex 29.5 25 3
      vertex 33 28 3
    endloop
  endfacet
  facet normal 0 0 1
    outer loop
      vertex 25 28.937 3
      vertex 25 29.5 3
      vertex 8.927 28.263 3
    endloop
  endfacet
  facet normal 0 0 1
    outer loop
      vertex 33 28 3
      vertex 29.5 25 3
      vertex 33 5 3
    endloop
  endfacet
  facet normal 0 0 1
    outer loop
      vertex 25 23.5 3
      vertex 23.5 25 3
      vertex 33 5 3
    endloop
  endfacet
  facet normal 0 0 1
    outer loop
      vertex 29.012 25 3
      vertex 28.927 24.737 3
      vertex 33 5 3
    endloop
  endfacet
  facet normal 0 0 1
    outer loop
      vertex 28.927 24.737 3
      vertex 28 24.063 3
      vertex 33 5 3
    endloop
  endfacet
  facet normal 0 0 1
    outer loop
      vertex 28 24.063 3
      vertex 28 23.5 3
      vertex 33 5 3
    endloop
  endfacet
  facet normal 0 0 1
    outer loop
      vertex 28 23.5 3
      vertex 25 23.5 3
      vertex 33 5 3
    endloop
  endfacet
  facet normal 0 0 1
    outer loop
      vertex 25 24.063 3
      vertex 23.5 25 3
      vertex 25 23.5 3
    endloop
  endfacet
  facet normal 0 0 1
    outer loop
      vertex 24.073 24.737 3
      vertex 23.5 25 3
      vertex 25 24.063 3
    endloop
  endfacet
  facet normal 0 0 1
    outer loop
      vertex 25 9.5 3
      vertex 9.012 25 3
      vertex 8.927 24.737 3
    endloop
  endfacet
  facet normal 0 0 1
    outer loop
      vertex 3.5 8 3
      vertex 3.988 8 3
      vertex 0 28 3
    endloop
  endfacet
  facet normal 0 0 1
    outer loop
      vertex 9.5 8 3
      vertex 9.5 5 3
      vertex 28 0 3
    endloop
  endfacet
  facet normal 0 0 1
    outer loop
      vertex 28 9.5 3
      vertex 28.927 8.263 3
      vertex 29.5 8 3
    endloop
  endfacet
  facet normal 0 0 1
    outer loop
      vertex 8 23.5 3
      vertex 23.988 8 3
      vertex 24.073 8.263 3
    endloop
  endfacet
  facet normal 0 0 1
    outer loop
      vertex 8 23.5 3
      vertex 23.5 8 3
      vertex 23.988 8 3
    endloop
  endfacet
  facet normal 0 0 1
    outer loop
      vertex 24.073 8.263 3
      vertex 25 8.937 3
      vertex 8 23.5 3
    endloop
  endfacet
  facet normal -0.831814 -0.555055 0
    outer loop
      vertex 0.381 3.087 0
      vertex 1.464 1.464 0
      vertex 0.381 3.087 3
    endloop
  endfacet
  facet normal -0.831814 -0.555055 0
    outer loop
      vertex 0.381 3.087 3
      vertex 1.464 1.464 0
      vertex 1.464 1.464 3
    endloop
  endfacet
  facet normal -0.555055 -0.831814 0
    outer loop
      vertex 1.464 1.464 3
      vertex 1.464 1.464 0
      vertex 3.087 0.381 0
    endloop
  endfacet
  facet normal -0.555055 -0.831814 0
    outer loop
      vertex 3.087 0.381 3
      vertex 1.464 1.464 3
      vertex 3.087 0.381 0
    endloop
  endfacet
  facet normal -0.195327 -0.980738 0
    outer loop
      vertex 3.087 0.381 3
      vertex 3.087 0.381 0
      vertex 5 0 0
    endloop
  endfacet
  facet normal -0.195327 -0.980738 0
    outer loop
      vertex 5 0 3
      vertex 3.087 0.381 3
      vertex 5 0 0
    endloop
  endfacet
  facet normal 0 -1 0
    outer loop
      vertex 5 0 3
      vertex 5 0 0
      vertex 28 0 0
    endloop
  endfacet
  facet normal 0 -1 0
    outer loop
      vertex 28 0 3
      vertex 5 0 3
      vertex 28 0 0
    endloop
  endfacet
  facet normal 0.195327 -0.980738 0
    outer loop
      vertex 28 0 3
      vertex 28 0 0
      vertex 29.913 0.381 0
    endloop
  endfacet
  facet normal 0.195327 -0.980738 0
    outer loop
      vertex 29.913 0.381 3
      vertex 28 0 3
      vertex 29.913 0.381 0
    endloop
  endfacet
  facet normal 0.555055 -0.831814 0
    outer loop
      vertex 29.913 0.381 3
      vertex 29.913 0.381 0
      vertex 31.536 1.464 0
    endloop
  endfacet
  facet normal 0.555055 -0.831814 0
    outer loop
      vertex 31.536 1.464 3
      vertex 29.913 0.381 3
      vertex 31.536 1.464 0
    endloop
  endfacet
  facet normal 0.831814 -0.555055 0
    outer loop
      vertex 31.536 1.464 3
      vertex 31.536 1.464 0
      vertex 32.619 3.087 0
    endloop
  endfacet
  facet normal 0.831814 -0.555055 0
    outer loop
      vertex 32.619 3.087 3
      vertex 31.536 1.464 3
      vertex 32.619 3.087 0
    endloop
  endfacet
  facet normal 0.980738 -0.195327 0
    outer loop
      vertex 32.619 3.087 3
      vertex 32.619 3.087 0
      vertex 33 5 0
    endloop
  endfacet
  facet normal 0.980738 -0.195327 0
    outer loop
      vertex 33 5 3
      vertex 32.619 3.087 3
      vertex 33 5 0
    endloop
  endfacet
  facet normal 1 0 0
    outer loop
      vertex 33 5 3
      vertex 33 5 0
      vertex 33 28 0
    endloop
  endfacet
  facet normal 1 0 0
    outer loop
      vertex 33 28 3
      vertex 33 5 3
      vertex 33 28 0
    endloop
  endfacet
  facet normal 0.980738 0.195327 0
    outer loop
      vertex 33 28 0
      vertex 32.619 29.913 0
      vertex 32.619 29.913 3
    endloop
  endfacet
  facet normal 0.980738 0.195327 0
    outer loop
      vertex 33 28 3
      vertex 33 28 0
      vertex 32.619 29.913 3
    endloop
  endfacet
  facet normal 0.831814 0.555055 0
    outer loop
      vertex 32.619 29.913 0
      vertex 31.536 31.536 0
      vertex 31.536 31.536 3
    endloop
  endfacet
  facet normal 0.831814 0.555055 0
    outer loop
      vertex 32.619 29.913 3
      vertex 32.619 29.913 0
      vertex 31.536 31.536 3
    endloop
  endfacet
  facet normal 0.555055 0.831814 0
    outer loop
      vertex 29.913 32.619 0
      vertex 29.913 32.619 3
      vertex 31.536 31.536 0
    endloop
  endfacet
  facet normal 0.555055 0.831814 0
    outer loop
      vertex 31.536 31.536 0
      vertex 29.913 32.619 3
      vertex 31.536 31.536 3
    endloop
  endfacet
  facet normal 0.195327 0.980738 0
    outer loop
      vertex 28 33 0
      vertex 28 33 3
      vertex 29.913 32.619 0
    endloop
  endfacet
  facet normal 0.195327 0.980738 0
    outer loop
      vertex 29.913 32.619 0
      vertex 28 33 3
      vertex 29.913 32.619 3
    endloop
  endfacet
  facet normal 0 1 0
    outer loop
      vertex 5 33 0
      vertex 5 33 3
      vertex 28 33 0
    endloop
  endfacet
  facet normal 0 1 0
    outer loop
      vertex 28 33 0
      vertex 5 33 3
      vertex 28 33 3
    endloop
  endfacet
  facet normal -0.195327 0.980738 0
    outer loop
      vertex 3.087 32.619 0
      vertex 3.087 32.619 3
      vertex 5 33 0
    endloop
  endfacet
  facet normal -0.195327 0.980738 0
    outer loop
      vertex 5 33 0
      vertex 3.087 32.619 3
      vertex 5 33 3
    endloop
  endfacet
  facet normal -0.555055 0.831814 0
    outer loop
      vertex 1.464 31.536 0
      vertex 1.464 31.536 3
      vertex 3.087 32.619 0
    endloop
  endfacet
  facet normal -0.555055 0.831814 0
    outer loop
      vertex 3.087 32.619 0
      vertex 1.464 31.536 3
      vertex 3.087 32.619 3
    endloop
  endfacet
  facet normal -0.831814 0.555055 0
    outer loop
      vertex 0.381 29.913 0
      vertex 0.381 29.913 3
      vertex 1.464 31.536 0
    endloop
  endfacet
  facet normal -0.831814 0.555055 0
    outer loop
      vertex 1.464 31.536 0
      vertex 0.381 29.913 3
      vertex 1.464 31.536 3
    endloop
  endfacet
  facet normal -0.980738 0.195327 0
    outer loop
      vertex 0 28 0
      vertex 0 28 3
      vertex 0.381 29.913 0
    endloop
  endfacet
  facet normal -0.980738 0.195327 0
    outer loop
      vertex 0.381 29.913 0
      vertex 0 28 3
      vertex 0.381 29.913 3
    endloop
  endfacet
  facet normal 0 -1 0
    outer loop
      vertex 3.988 8 0
      vertex 3.988 8 3
      vertex 3.5 8 3
    endloop
  endfacet
  facet normal 0 -1 0
    outer loop
      vertex 3.5 8 0
      vertex 3.988 8 0
      vertex 3.5 8 3
    endloop
  endfacet
  facet normal 1 0 0
    outer loop
      vertex 3.5 8 0
      vertex 3.5 8 3
      vertex 3.5 5 3
    endloop
  endfacet
  facet normal 1 0 0
    outer loop
      vertex 3.5 5 0
      vertex 3.5 8 0
      vertex 3.5 5 3
    endloop
  endfacet
  facet normal 0.951538 -0.307531 0
    outer loop
      vertex 4.073 8.263 0
      vertex 4.073 8.263 3
      vertex 3.988 8 3
    endloop
  endfacet
  facet normal 0.951538 -0.307531 0
    outer loop
      vertex 3.988 8 0
      vertex 4.073 8.263 0
      vertex 3.988 8 3
    endloop
  endfacet
  facet normal 0.588068 -0.808812 0
    outer loop
      vertex 5 8.937 0
      vertex 5 8.937 3
      vertex 4.073 8.263 3
    endloop
  endfacet
  facet normal 0.588068 -0.808812 0
    outer loop
      vertex 4.073 8.263 0
      vertex 5 8.937 0
      vertex 4.073 8.263 3
    endloop
  endfacet
  facet normal 1 0 0
    outer loop
      vertex 5 9.5 0
      vertex 5 9.5 3
      vertex 5 8.937 3
    endloop
  endfacet
  facet normal 1 0 0
    outer loop
      vertex 5 8.937 0
      vertex 5 9.5 0
      vertex 5 8.937 3
    endloop
  endfacet
  facet normal 0 -1 0
    outer loop
      vertex 8 9.5 0
      vertex 8 9.5 3
      vertex 5 9.5 3
    endloop
  endfacet
  facet normal 0 -1 0
    outer loop
      vertex 5 9.5 0
      vertex 8 9.5 0
      vertex 5 9.5 3
    endloop
  endfacet
  facet normal -1 0 0
    outer loop
      vertex 8 9.5 3
      vertex 8 9.5 0
      vertex 8 8.937 3
    endloop
  endfacet
  facet normal -1 0 0
    outer loop
      vertex 8 8.937 3
      vertex 8 9.5 0
      vertex 8 8.937 0
    endloop
  endfacet
  facet normal -0.588068 -0.808812 0
    outer loop
      vertex 8.927 8.263 0
      vertex 8.927 8.263 3
      vertex 8 8.937 3
    endloop
  endfacet
  facet normal -0.588068 -0.808812 0
    outer loop
      vertex 8 8.937 0
      vertex 8.927 8.263 0
      vertex 8 8.937 3
    endloop
  endfacet
  facet normal -0.951538 -0.307531 0
    outer loop
      vertex 9.012 8 3
      vertex 8.927 8.263 3
      vertex 9.012 8 0
    endloop
  endfacet
  facet normal -0.951538 -0.307531 0
    outer loop
      vertex 9.012 8 0
      vertex 8.927 8.263 3
      vertex 8.927 8.263 0
    endloop
  endfacet
  facet normal 0 -1 0
    outer loop
      vertex 9.5 8 0
      vertex 9.5 8 3
      vertex 9.012 8 3
    endloop
  endfacet
  facet normal 0 -1 0
    outer loop
      vertex 9.012 8 0
      vertex 9.5 8 0
      vertex 9.012 8 3
    endloop
  endfacet
  facet normal -1 0 0
    outer loop
      vertex 9.5 8 3
      vertex 9.5 8 0
      vertex 9.5 5 3
    endloop
  endfacet
  facet normal -1 0 0
    outer loop
      vertex 9.5 5 3
      vertex 9.5 8 0
      vertex 9.5 5 0
    endloop
  endfacet
  facet normal 0 1 0
    outer loop
      vertex 9.5 5 3
      vertex 9.5 5 0
      vertex 9.012 5 3
    endloop
  endfacet
  facet normal 0 1 0
    outer loop
      vertex 9.012 5 3
      vertex 9.5 5 0
      vertex 9.012 5 0
    endloop
  endfacet
  facet normal -0.951538 0.307531 0
    outer loop
      vertex 9.012 5 3
      vertex 9.012 5 0
      vertex 8.927 4.737 3
    endloop
  endfacet
  facet normal -0.951538 0.307531 0
    outer loop
      vertex 8.927 4.737 3
      vertex 9.012 5 0
      vertex 8.927 4.737 0
    endloop
  endfacet
  facet normal -0.588068 0.808812 0
    outer loop
      vertex 8.927 4.737 3
      vertex 8.927 4.737 0
      vertex 8 4.063 3
    endloop
  endfacet
  facet normal -0.588068 0.808812 0
    outer loop
      vertex 8 4.063 3
      vertex 8.927 4.737 0
      vertex 8 4.063 0
    endloop
  endfacet
  facet normal -1 0 0
    outer loop
      vertex 8 4.063 3
      vertex 8 4.063 0
      vertex 8 3.5 3
    endloop
  endfacet
  facet normal -1 0 0
    outer loop
      vertex 8 3.5 3
      vertex 8 4.063 0
      vertex 8 3.5 0
    endloop
  endfacet
  facet normal 0 1 0
    outer loop
      vertex 8 3.5 3
      vertex 8 3.5 0
      vertex 5 3.5 3
    endloop
  endfacet
  facet normal 0 1 0
    outer loop
      vertex 5 3.5 3
      vertex 8 3.5 0
      vertex 5 3.5 0
    endloop
  endfacet
  facet normal 1 0 0
    outer loop
      vertex 5 4.063 0
      vertex 5 4.063 3
      vertex 5 3.5 3
    endloop
  endfacet
  facet normal 1 0 0
    outer loop
      vertex 5 3.5 0
      vertex 5 4.063 0
      vertex 5 3.5 3
    endloop
  endfacet
  facet normal 0.588068 0.808812 0
    outer loop
      vertex 5 4.063 3
      vertex 5 4.063 0
      vertex 4.073 4.737 3
    endloop
  endfacet
  facet normal 0.588068 0.808812 0
    outer loop
      vertex 4.073 4.737 3
      vertex 5 4.063 0
      vertex 4.073 4.737 0
    endloop
  endfacet
  facet normal 0.951538 0.307531 0
    outer loop
      vertex 3.988 5 3
      vertex 4.073 4.737 3
      vertex 4.073 4.737 0
    endloop
  endfacet
  facet normal 0.951538 0.307531 0
    outer loop
      vertex 3.988 5 0
      vertex 3.988 5 3
      vertex 4.073 4.737 0
    endloop
  endfacet
  facet normal 0 1 0
    outer loop
      vertex 3.988 5 3
      vertex 3.988 5 0
      vertex 3.5 5 3
    endloop
  endfacet
  facet normal 0 1 0
    outer loop
      vertex 3.5 5 3
      vertex 3.988 5 0
      vertex 3.5 5 0
    endloop
  endfacet
  facet normal 0 -1 0
    outer loop
      vertex 3.988 28 0
      vertex 3.988 28 3
      vertex 3.5 28 3
    endloop
  endfacet
  facet normal 0 -1 0
    outer loop
      vertex 3.5 28 0
      vertex 3.988 28 0
      vertex 3.5 28 3
    endloop
  endfacet
  facet normal 1 0 0
    outer loop
      vertex 3.5 28 0
      vertex 3.5 28 3
      vertex 3.5 25 3
    endloop
  endfacet
  facet normal 1 0 0
    outer loop
      vertex 3.5 25 0
      vertex 3.5 28 0
      vertex 3.5 25 3
    endloop
  endfacet
  facet normal 0.951538 -0.307531 0
    outer loop
      vertex 4.073 28.263 0
      vertex 4.073 28.263 3
      vertex 3.988 28 3
    endloop
  endfacet
  facet normal 0.951538 -0.307531 0
    outer loop
      vertex 3.988 28 0
      vertex 4.073 28.263 0
      vertex 3.988 28 3
    endloop
  endfacet
  facet normal 0.588068 -0.808812 0
    outer loop
      vertex 5 28.937 0
      vertex 5 28.937 3
      vertex 4.073 28.263 3
    endloop
  endfacet
  facet normal 0.588068 -0.808812 0
    outer loop
      vertex 4.073 28.263 0
      vertex 5 28.937 0
      vertex 4.073 28.263 3
    endloop
  endfacet
  facet normal 1 0 0
    outer loop
      vertex 5 29.5 0
      vertex 5 29.5 3
      vertex 5 28.937 3
    endloop
  endfacet
  facet normal 1 0 0
    outer loop
      vertex 5 28.937 0
      vertex 5 29.5 0
      vertex 5 28.937 3
    endloop
  endfacet
  facet normal 0 -1 0
    outer loop
      vertex 8 29.5 0
      vertex 8 29.5 3
      vertex 5 29.5 3
    endloop
  endfacet
  facet normal 0 -1 0
    outer loop
      vertex 5 29.5 0
      vertex 8 29.5 0
      vertex 5 29.5 3
    endloop
  endfacet
  facet normal -1 0 0
    outer loop
      vertex 8 29.5 3
      vertex 8 29.5 0
      vertex 8 28.937 3
    endloop
  endfacet
  facet normal -1 0 0
    outer loop
      vertex 8 28.937 3
      vertex 8 29.5 0
      vertex 8 28.937 0
    endloop
  endfacet
  facet normal -0.588068 -0.808812 0
    outer loop
      vertex 8.927 28.263 0
      vertex 8.927 28.263 3
      vertex 8 28.937 3
    endloop
  endfacet
  facet normal -0.588068 -0.808812 0
    outer loop
      vertex 8 28.937 0
      vertex 8.927 28.263 0
      vertex 8 28.937 3
    endloop
  endfacet
  facet normal -0.951538 -0.307531 0
    outer loop
      vertex 9.012 28 3
      vertex 8.927 28.263 3
      vertex 9.012 28 0
    endloop
  endfacet
  facet normal -0.951538 -0.307531 0
    outer loop
      vertex 9.012 28 0
      vertex 8.927 28.263 3
      vertex 8.927 28.263 0
    endloop
  endfacet
  facet normal 0 -1 0
    outer loop
      vertex 9.5 28 0
      vertex 9.5 28 3
      vertex 9.012 28 3
    endloop
  endfacet
  facet normal 0 -1 0
    outer loop
      vertex 9.012 28 0
      vertex 9.5 28 0
      vertex 9.012 28 3
    endloop
  endfacet
  facet normal -1 0 0
    outer loop
      vertex 9.5 28 3
      vertex 9.5 28 0
      vertex 9.5 25 3
    endloop
  endfacet
  facet normal -1 0 0
    outer loop
      vertex 9.5 25 3
      vertex 9.5 28 0
      vertex 9.5 25 0
    endloop
  endfacet
  facet normal 0 1 0
    outer loop
      vertex 9.5 25 3
      vertex 9.5 25 0
      vertex 9.012 25 3
    endloop
  endfacet
  facet normal 0 1 0
    outer loop
      vertex 9.012 25 3
      vertex 9.5 25 0
      vertex 9.012 25 0
    endloop
  endfacet
  facet normal -0.951538 0.307531 0
    outer loop
      vertex 9.012 25 3
      vertex 9.012 25 0
      vertex 8.927 24.737 3
    endloop
  endfacet
  facet normal -0.951538 0.307531 0
    outer loop
      vertex 8.927 24.737 3
      vertex 9.012 25 0
      vertex 8.927 24.737 0
    endloop
  endfacet
  facet normal -0.588068 0.808812 0
    outer loop
      vertex 8.927 24.737 3
      vertex 8.927 24.737 0
      vertex 8 24.063 3
    endloop
  endfacet
  facet normal -0.588068 0.808812 0
    outer loop
      vertex 8 24.063 3
      vertex 8.927 24.737 0
      vertex 8 24.063 0
    endloop
  endfacet
  facet normal -1 0 0
    outer loop
      vertex 8 24.063 3
      vertex 8 24.063 0
      vertex 8 23.5 3
    endloop
  endfacet
  facet normal -1 0 0
    outer loop
      vertex 8 23.5 3
      vertex 8 24.063 0
      vertex 8 23.5 0
    endloop
  endfacet
  facet normal 0 1 0
    outer loop
      vertex 8 23.5 3
      vertex 8 23.5 0
      vertex 5 23.5 3
    endloop
  endfacet
  facet normal 0 1 0
    outer loop
      vertex 5 23.5 3
      vertex 8 23.5 0
      vertex 5 23.5 0
    endloop
  endfacet
  facet normal 1 0 0
    outer loop
      vertex 5 24.063 0
      vertex 5 24.063 3
      vertex 5 23.5 3
    endloop
  endfacet
  facet normal 1 0 0
    outer loop
      vertex 5 23.5 0
      vertex 5 24.063 0
      vertex 5 23.5 3
    endloop
  endfacet
  facet normal 0.588068 0.808812 0
    outer loop
      vertex 5 24.063 3
      vertex 5 24.063 0
      vertex 4.073 24.737 3
    endloop
  endfacet
  facet normal 0.588068 0.808812 0
    outer loop
      vertex 4.073 24.737 3
      vertex 5 24.063 0
      vertex 4.073 24.737 0
    endloop
  endfacet
  facet normal 0.951538 0.307531 0
    outer loop
      vertex 3.988 25 3
      vertex 4.073 24.737 3
      vertex 4.073 24.737 0
    endloop
  endfacet
  facet normal 0.951538 0.307531 0
    outer loop
      vertex 3.988 25 0
      vertex 3.988 25 3
      vertex 4.073 24.737 0
    endloop
  endfacet
  facet normal 0 1 0
    outer loop
      vertex 3.988 25 3
      vertex 3.988 25 0
      vertex 3.5 25 3
    endloop
  endfacet
  facet normal 0 1 0
    outer loop
      vertex 3.5 25 3
      vertex 3.988 25 0
      vertex 3.5 25 0
    endloop
  endfacet
  facet normal 0 -1 0
    outer loop
      vertex 23.988 8 0
      vertex 23.988 8 3
      vertex 23.5 8 3
    endloop
  endfacet
  facet normal 0 -1 0
    outer loop
      vertex 23.5 8 0
      vertex 23.988 8 0
      vertex 23.5 8 3
    endloop
  endfacet
  facet normal 1 0 0
    outer loop
      vertex 23.5 8 0
      vertex 23.5 8 3
      vertex 23.5 5 3
    endloop
  endfacet
  facet normal 1 0 0
    outer loop
      vertex 23.5 5 0
      vertex 23.5 8 0
      vertex 23.5 5 3
    endloop
  endfacet
  facet normal 0.951538 -0.307531 0
    outer loop
      vertex 24.073 8.263 0
      vertex 24.073 8.263 3
      vertex 23.988 8 3
    endloop
  endfacet
  facet normal 0.951538 -0.307531 0
    outer loop
      vertex 23.988 8 0
      vertex 24.073 8.263 0
      vertex 23.988 8 3
    endloop
  endfacet
  facet normal 0.588068 -0.808812 0
    outer loop
      vertex 25 8.937 0
      vertex 25 8.937 3
      vertex 24.073 8.263 3
    endloop
  endfacet
  facet normal 0.588068 -0.808812 0
    outer loop
      vertex 24.073 8.263 0
      vertex 25 8.937 0
      vertex 24.073 8.263 3
    endloop
  endfacet
  facet normal 1 0 0
    outer loop
      vertex 25 9.5 0
      vertex 25 9.5 3
      vertex 25 8.937 3
    endloop
  endfacet
  facet normal 1 0 0
    outer loop
      vertex 25 8.937 0
      vertex 25 9.5 0
      vertex 25 8.937 3
    endloop
  endfacet
  facet normal 0 -1 0
    outer loop
      vertex 28 9.5 0
      vertex 28 9.5 3
      vertex 25 9.5 3
    endloop
  endfacet
  facet normal 0 -1 0
    outer loop
      vertex 25 9.5 0
      vertex 28 9.5 0
      vertex 25 9.5 3
    endloop
  endfacet
  facet normal -1 0 0
    outer loop
      vertex 28 9.5 3
      vertex 28 9.5 0
      vertex 28 8.937 3
    endloop
  endfacet
  facet normal -1 0 0
    outer loop
      vertex 28 8.937 3
      vertex 28 9.5 0
      vertex 28 8.937 0
    endloop
  endfacet
  facet normal -0.588068 -0.808812 0
    outer loop
      vertex 28.927 8.263 0
      vertex 28.927 8.263 3
      vertex 28 8.937 3
    endloop
  endfacet
  facet normal -0.588068 -0.808812 0
    outer loop
      vertex 28 8.937 0
      vertex 28.927 8.263 0
      vertex 28 8.937 3
    endloop
  endfacet
  facet normal -0.951538 -0.307531 0
    outer loop
      vertex 29.012 8 3
      vertex 28.927 8.263 3
      vertex 29.012 8 0
    endloop
  endfacet
  facet normal -0.951538 -0.307531 0
    outer loop
      vertex 29.012 8 0
      vertex 28.927 8.263 3
      vertex 28.927 8.263 0
    endloop
  endfacet
  facet normal 0 -1 0
    outer loop
      vertex 29.5 8 0
      vertex 29.5 8 3
      vertex 29.012 8 3
    endloop
  endfacet
  facet normal 0 -1 0
    outer loop
      vertex 29.012 8 0
      vertex 29.5 8 0
      vertex 29.012 8 3
    endloop
  endfacet
  facet normal -1 0 0
    outer loop
      vertex 29.5 8 3
      vertex 29.5 8 0
      vertex 29.5 5 3
    endloop
  endfacet
  facet normal -1 0 0
    outer loop
      vertex 29.5 5 3
      vertex 29.5 8 0
      vertex 29.5 5 0
    endloop
  endfacet
  facet normal 0 1 0
    outer loop
      vertex 29.5 5 3
      vertex 29.5 5 0
      vertex 29.012 5 3
    endloop
  endfacet
  facet normal 0 1 0
    outer loop
      vertex 29.012 5 3
      vertex 29.5 5 0
      vertex 29.012 5 0
    endloop
  endfacet
  facet normal -0.951538 0.307531 0
    outer loop
      vertex 29.012 5 3
      vertex 29.012 5 0
      vertex 28.927 4.737 3
    endloop
  endfacet
  facet normal -0.951538 0.307531 0
    outer loop
      vertex 28.927 4.737 3
      vertex 29.012 5 0
      vertex 28.927 4.737 0
    endloop
  endfacet
  facet normal -0.588068 0.808812 0
    outer loop
      vertex 28.927 4.737 3
      vertex 28.927 4.737 0
      vertex 28 4.063 3
    endloop
  endfacet
  facet normal -0.588068 0.808812 0
    outer loop
      vertex 28 4.063 3
      vertex 28.927 4.737 0
      vertex 28 4.063 0
    endloop
  endfacet
  facet normal -1 0 0
    outer loop
      vertex 28 4.063 3
      vertex 28 4.063 0
      vertex 28 3.5 3
    endloop
  endfacet
  facet normal -1 0 0
    outer loop
      vertex 28 3.5 3
      vertex 28 4.063 0
      vertex 28 3.5 0
    endloop
  endfacet
  facet normal 0 1 0
    outer loop
      vertex 28 3.5 3
      vertex 28 3.5 0
      vertex 25 3.5 3
    endloop
  endfacet
  facet normal 0 1 0
    outer loop
      vertex 25 3.5 3
      vertex 28 3.5 0
      vertex 25 3.5 0
    endloop
  endfacet
  facet normal 1 0 0
    outer loop
      vertex 25 4.063 0
      vertex 25 4.063 3
      vertex 25 3.5 3
    endloop
  endfacet
  facet normal 1 0 0
    outer loop
      vertex 25 3.5 0
      vertex 25 4.063 0
      vertex 25 3.5 3
    endloop
  endfacet
  facet normal 0.588068 0.808812 0
    outer loop
      vertex 25 4.063 3
      vertex 25 4.063 0
      vertex 24.073 4.737 3
    endloop
  endfacet
  facet normal 0.588068 0.808812 0
    outer loop
      vertex 24.073 4.737 3
      vertex 25 4.063 0
      vertex 24.073 4.737 0
    endloop
  endfacet
  facet normal 0.951538 0.307531 0
    outer loop
      vertex 23.988 5 3
      vertex 24.073 4.737 3
      vertex 24.073 4.737 0
    endloop
  endfacet
  facet normal 0.951538 0.307531 0
    outer loop
      vertex 23.988 5 0
      vertex 23.988 5 3
      vertex 24.073 4.737 0
    endloop
  endfacet
  facet normal 0 1 0
    outer loop
      vertex 23.988 5 3
      vertex 23.988 5 0
      vertex 23.5 5 3
    endloop
  endfacet
  facet normal 0 1 0
    outer loop
      vertex 23.5 5 3
      vertex 23.988 5 0
      vertex 23.5 5 0
    endloop
  endfacet
  facet normal 0 -1 0
    outer loop
      vertex 23.988 28 0
      vertex 23.988 28 3
      vertex 23.5 28 3
    endloop
  endfacet
  facet normal 0 -1 0
    outer loop
      vertex 23.5 28 0
      vertex 23.988 28 0
      vertex 23.5 28 3
    endloop
  endfacet
  facet normal 1 0 0
    outer loop
      vertex 23.5 28 0
      vertex 23.5 28 3
      vertex 23.5 25 3
    endloop
  endfacet
  facet normal 1 0 0
    outer loop
      vertex 23.5 25 0
      vertex 23.5 28 0
      vertex 23.5 25 3
    endloop
  endfacet
  facet normal 0.951538 -0.307531 0
    outer loop
      vertex 24.073 28.263 0
      vertex 24.073 28.263 3
      vertex 23.988 28 3
    endloop
  endfacet
  facet normal 0.951538 -0.307531 0
    outer loop
      vertex 23.988 28 0
      vertex 24.073 28.263 0
      vertex 23.988 28 3
    endloop
  endfacet
  facet normal 0.588068 -0.808812 0
    outer loop
      vertex 25 28.937 0
      vertex 25 28.937 3
      vertex 24.073 28.263 3
    endloop
  endfacet
  facet normal 0.588068 -0.808812 0
    outer loop
      vertex 24.073 28.263 0
      vertex 25 28.937 0
      vertex 24.073 28.263 3
    endloop
  endfacet
  facet normal 1 0 0
    outer loop
      vertex 25 29.5 0
      vertex 25 29.5 3
      vertex 25 28.937 3
    endloop
  endfacet
  facet normal 1 0 0
    outer loop
      vertex 25 28.937 0
      vertex 25 29.5 0
      vertex 25 28.937 3
    endloop
  endfacet
  facet normal 0 -1 0
    outer loop
      vertex 28 29.5 0
      vertex 28 29.5 3
      vertex 25 29.5 3
    endloop
  endfacet
  facet normal 0 -1 0
    outer loop
      vertex 25 29.5 0
      vertex 28 29.5 0
      vertex 25 29.5 3
    endloop
  endfacet
  facet normal -1 0 0
    outer loop
      vertex 28 29.5 3
      vertex 28 29.5 0
      vertex 28 28.937 3
    endloop
  endfacet
  facet normal -1 0 0
    outer loop
      vertex 28 28.937 3
      vertex 28 29.5 0
      vertex 28 28.937 0
    endloop
  endfacet
  facet normal -0.588068 -0.808812 0
    outer loop
      vertex 28.927 28.263 0
      vertex 28.927 28.263 3
      vertex 28 28.937 3
    endloop
  endfacet
  facet normal -0.588068 -0.808812 0
    outer loop
      vertex 28 28.937 0
      vertex 28.927 28.263 0
      vertex 28 28.937 3
    endloop
  endfacet
  facet normal -0.951538 -0.307531 0
    outer loop
      vertex 29.012 28 3
      vertex 28.927 28.263 3
      vertex 29.012 28 0
    endloop
  endfacet
  facet normal -0.951538 -0.307531 0
    outer loop
      vertex 29.012 28 0
      vertex 28.927 28.263 3
      vertex 28.927 28.263 0
    endloop
  endfacet
  facet normal 0 -1 0
    outer loop
      vertex 29.5 28 0
      vertex 29.5 28 3
      vertex 29.012 28 3
    endloop
  endfacet
  facet normal 0 -1 0
    outer loop
      vertex 29.012 28 0
      vertex 29.5 28 0
      vertex 29.012 28 3
    endloop
  endfacet
  facet normal -1 0 0
    outer loop
      vertex 29.5 28 3
      vertex 29.5 28 0
      vertex 29.5 25 3
    endloop
  endfacet
  facet normal -1 0 0
    outer loop
      vertex 29.5 25 3
      vertex 29.5 28 0
      vertex 29.5 25 0
    endloop
  endfacet
  facet normal 0 1 0
    outer loop
      vertex 29.5 25 3
      vertex 29.5 25 0
      vertex 29.012 25 3
    endloop
  endfacet
  facet normal 0 1 0
    outer loop
      vertex 29.012 25 3
      vertex 29.5 25 0
      vertex 29.012 25 0
    endloop
  endfacet
  facet normal -0.951538 0.307531 0
    outer loop
      vertex 29.012 25 3
      vertex 29.012 25 0
      vertex 28.927 24.737 3
    endloop
  endfacet
  facet normal -0.951538 0.307531 0
    outer loop
      vertex 28.927 24.737 3
      vertex 29.012 25 0
      vertex 28.927 24.737 0
    endloop
  endfacet
  facet normal -0.588068 0.808812 0
    outer loop
      vertex 28.927 24.737 3
      vertex 28.927 24.737 0
      vertex 28 24.063 3
    endloop
  endfacet
  facet normal -0.588068 0.808812 0
    outer loop
      vertex 28 24.063 3
      vertex 28.927 24.737 0
      vertex 28 24.063 0
    endloop
  endfacet
  facet normal -1 0 0
    outer loop
      vertex 28 24.063 3
      vertex 28 24.063 0
      vertex 28 23.5 3
    endloop
  endfacet
  facet normal -1 0 0
    outer loop
      vertex 28 23.5 3
      vertex 28 24.063 0
      vertex 28 23.5 0
    endloop
  endfacet
  facet normal 0 1 0
    outer loop
      vertex 28 23.5 3
      vertex 28 23.5 0
      vertex 25 23.5 3
    endloop
  endfacet
  facet normal 0 1 0
    outer loop
      vertex 25 23.5 3
      vertex 28 23.5 0
      vertex 25 23.5 0
    endloop
  endfacet
  facet normal 1 0 0
    outer loop
      vertex 25 24.063 0
      vertex 25 24.063 3
      vertex 25 23.5 3
    endloop
  endfacet
  facet normal 1 0 0
    outer loop
      vertex 25 23.5 0
      vertex 25 24.063 0
      vertex 25 23.5 3
    endloop
  endfacet
  facet normal 0.588068 0.808812 0
    outer loop
      vertex 25 24.063 3
      vertex 25 24.063 0
      vertex 24.073 24.737 3
    endloop
  endfacet
  facet normal 0.588068 0.808812 0
    outer loop
      vertex 24.073 24.737 3
      vertex 25 24.063 0
      vertex 24.073 24.737 0
    endloop
  endfacet
  facet normal 0.951538 0.307531 0
    outer loop
      vertex 23.988 25 3
      vertex 24.073 24.737 3
      vertex 24.073 24.737 0
    endloop
  endfacet
  facet normal 0.951538 0.307531 0
    outer loop
      vertex 23.988 25 0
      vertex 23.988 25 3
      vertex 24.073 24.737 0
    endloop
  endfacet
  facet normal 0 1 0
    outer loop
      vertex 23.988 25 3
      vertex 23.988 25 0
      vertex 23.5 25 3
    endloop
  endfacet
  facet normal 0 1 0
    outer loop
      vertex 23.5 25 3
      vertex 23.988 25 0
      vertex 23.5 25 0
    endloop
  endfacet
endsolid OpenSCAD_Model
