  0
SECTION
  2
HEADER
  9
$ACADVER
  1
AC1014
  9
$ACADMAINTVER
 70
     9
  9
$DWGCODEPAGE
  3
ANSI_1252
  9
$INSBASE
 10
0.0
 20
0.0
 30
0.0
  9
$EXTMIN
 10
-51.7649
 20
-355.2649
 30
0.0
  9
$EXTMAX
 10
321.7649
 20
-301.7351
 30
0.0
  9
$LIMMIN
 10
0.0
 20
0.0
  9
$LIMMAX
 10
12.0
 20
9.0
  9
$ORTHOMODE
 70
     0
  9
$REGENMODE
 70
     1
  9
$FILLMODE
 70
     1
  9
$QTEXTMODE
 70
     0
  9
$MIRRTEXT
 70
     1
  9
$DRAGMODE
 70
     2
  9
$LTSCALE
 40
1.0
  9
$OSMODE
 70
    37
  9
$ATTMODE
 70
     1
  9
$TEXTSIZE
 40
0.2
  9
$TRACEWID
 40
0.05
  9
$TEXTSTYLE
  7
STANDARD
  9
$CLAYER
  8
0
  9
$CELTYPE
  6
BYLAYER
  9
$CECOLOR
 62
   256
  9
$CELTSCALE
 40
1.0
  9
$DELOBJ
 70
     1
  9
$DISPSILH
 70
     0
  9
$DIMSCALE
 40
1.0
  9
$DIMASZ
 40
0.18
  9
$DIMEXO
 40
0.0625
  9
$DIMDLI
 40
0.38
  9
$DIMRND
 40
0.0
  9
$DIMDLE
 40
0.0
  9
$DIMEXE
 40
0.18
  9
$DIMTP
 40
0.0
  9
$DIMTM
 40
0.0
  9
$DIMTXT
 40
0.18
  9
$DIMCEN
 40
0.09
  9
$DIMTSZ
 40
0.0
  9
$DIMTOL
 70
     0
  9
$DIMLIM
 70
     0
  9
$DIMTIH
 70
     1
  9
$DIMTOH
 70
     1
  9
$DIMSE1
 70
     0
  9
$DIMSE2
 70
     0
  9
$DIMTAD
 70
     0
  9
$DIMZIN
 70
     0
  9
$DIMBLK
  1

  9
$DIMASO
 70
     1
  9
$DIMSHO
 70
     1
  9
$DIMPOST
  1

  9
$DIMAPOST
  1

  9
$DIMALT
 70
     0
  9
$DIMALTD
 70
     2
  9
$DIMALTF
 40
25.4
  9
$DIMLFAC
 40
1.0
  9
$DIMTOFL
 70
     0
  9
$DIMTVP
 40
0.0
  9
$DIMTIX
 70
     0
  9
$DIMSOXD
 70
     0
  9
$DIMSAH
 70
     0
  9
$DIMBLK1
  1

  9
$DIMBLK2
  1

  9
$DIMSTYLE
  2
STANDARD
  9
$DIMCLRD
 70
     0
  9
$DIMCLRE
 70
     0
  9
$DIMCLRT
 70
     0
  9
$DIMTFAC
 40
1.0
  9
$DIMGAP
 40
0.09
  9
$DIMJUST
 70
     0
  9
$DIMSD1
 70
     0
  9
$DIMSD2
 70
     0
  9
$DIMTOLJ
 70
     1
  9
$DIMTZIN
 70
     0
  9
$DIMALTZ
 70
     0
  9
$DIMALTTZ
 70
     0
  9
$DIMFIT
 70
     3
  9
$DIMUPT
 70
     0
  9
$DIMUNIT
 70
     2
  9
$DIMDEC
 70
     4
  9
$DIMTDEC
 70
     4
  9
$DIMALTU
 70
     2
  9
$DIMALTTD
 70
     2
  9
$DIMTXSTY
  7
STANDARD
  9
$DIMAUNIT
 70
     0
  9
$LUNITS
 70
     2
  9
$LUPREC
 70
     4
  9
$SKETCHINC
 40
0.1
  9
$FILLETRAD
 40
0.5
  9
$AUNITS
 70
     0
  9
$AUPREC
 70
     0
  9
$MENU
  1
.
  9
$ELEVATION
 40
0.0
  9
$PELEVATION
 40
0.0
  9
$THICKNESS
 40
0.0
  9
$LIMCHECK
 70
     0
  9
$CHAMFERA
 40
0.5
  9
$CHAMFERB
 40
0.5
  9
$CHAMFERC
 40
1.0
  9
$CHAMFERD
 40
0.0
  9
$SKPOLY
 70
     0
  9
$TDCREATE
 40
2458769.821640382
  9
$TDUPDATE
 40
2458769.821640394
  9
$TDINDWG
 40
0.0000000116
  9
$TDUSRTIMER
 40
0.0000000116
  9
$USRTIMER
 70
     1
  9
$ANGBASE
 50
0.0
  9
$ANGDIR
 70
     0
  9
$PDMODE
 70
     0
  9
$PDSIZE
 40
0.0
  9
$PLINEWID
 40
0.0
  9
$COORDS
 70
     1
  9
$SPLFRAME
 70
     0
  9
$SPLINETYPE
 70
     6
  9
$SPLINESEGS
 70
     8
  9
$ATTDIA
 70
     0
  9
$ATTREQ
 70
     1
  9
$HANDLING
 70
     1
  9
$HANDSEED
  5
C5
  9
$SURFTAB1
 70
     6
  9
$SURFTAB2
 70
     6
  9
$SURFTYPE
 70
     6
  9
$SURFU
 70
     6
  9
$SURFV
 70
     6
  9
$UCSNAME
  2

  9
$UCSORG
 10
0.0
 20
0.0
 30
0.0
  9
$UCSXDIR
 10
1.0
 20
0.0
 30
0.0
  9
$UCSYDIR
 10
0.0
 20
1.0
 30
0.0
  9
$PUCSNAME
  2

  9
$PUCSORG
 10
0.0
 20
0.0
 30
0.0
  9
$PUCSXDIR
 10
1.0
 20
0.0
 30
0.0
  9
$PUCSYDIR
 10
0.0
 20
1.0
 30
0.0
  9
$USERI1
 70
     0
  9
$USERI2
 70
     0
  9
$USERI3
 70
     0
  9
$USERI4
 70
     0
  9
$USERI5
 70
     0
  9
$USERR1
 40
0.0
  9
$USERR2
 40
0.0
  9
$USERR3
 40
0.0
  9
$USERR4
 40
0.0
  9
$USERR5
 40
0.0
  9
$WORLDVIEW
 70
     1
  9
$SHADEDGE
 70
     3
  9
$SHADEDIF
 70
    70
  9
$TILEMODE
 70
     1
  9
$MAXACTVP
 70
    64
  9
$PINSBASE
 10
0.0
 20
0.0
 30
0.0
  9
$PLIMCHECK
 70
     0
  9
$PEXTMIN
 10
1.000000000000000E+20
 20
1.000000000000000E+20
 30
1.000000000000000E+20
  9
$PEXTMAX
 10
-1.000000000000000E+20
 20
-1.000000000000000E+20
 30
-1.000000000000000E+20
  9
$PLIMMIN
 10
0.0
 20
0.0
  9
$PLIMMAX
 10
12.0
 20
9.0
  9
$UNITMODE
 70
     0
  9
$VISRETAIN
 70
     1
  9
$PLINEGEN
 70
     0
  9
$PSLTSCALE
 70
     1
  9
$TREEDEPTH
 70
  3020
  9
$PICKSTYLE
 70
     1
  9
$CMLSTYLE
  2
STANDARD
  9
$CMLJUST
 70
     0
  9
$CMLSCALE
 40
1.0
  9
$PROXYGRAPHICS
 70
     1
  9
$MEASUREMENT
 70
     0
  0
ENDSEC
  0
SECTION
  2
CLASSES
  0
CLASS
  1
ACDBDICTIONARYWDFLT
  2
AcDbDictionaryWithDefault
  3
ObjectDBX Classes
 90
        0
280
     0
281
     0
  0
CLASS
  1
VISUALSTYLE
  2
AcDbVisualStyle
  3
ObjectDBX Classes
 90
     4095
280
     0
281
     0
  0
CLASS
  1
SCALE
  2
AcDbScale
  3
ObjectDBX Classes
 90
     1153
280
     0
281
     0
  0
CLASS
  1
DICTIONARYVAR
  2
AcDbDictionaryVar
  3
ObjectDBX Classes
 90
        0
280
     0
281
     0
  0
CLASS
  1
XRECORD
  2
AcDbXrecord
  3
AutoCAD 2000
 90
        0
280
     0
281
     0
  0
CLASS
  1
LWPOLYLINE
  2
AcDbPolyline
  3
AutoCAD 2000
 90
        0
280
     0
281
     1
  0
CLASS
  1
HATCH
  2
AcDbHatch
  3
AutoCAD 2000
 90
        0
280
     0
281
     1
  0
CLASS
  1
ACDBPLACEHOLDER
  2
AcDbPlaceHolder
  3
ObjectDBX Classes
 90
        0
280
     0
281
     0
  0
CLASS
  1
LAYOUT
  2
AcDbLayout
  3
ObjectDBX Classes
 90
        0
280
     0
281
     0
  0
ENDSEC
  0
SECTION
  2
TABLES
  0
TABLE
  2
VPORT
  5
8
330
0
100
AcDbSymbolTable
 70
     1
  0
VPORT
  5
29
330
8
100
AcDbSymbolTableRecord
100
AcDbViewportTableRecord
  2
*ACTIVE
 70
     0
 10
0.0
 20
0.0
 11
1.0
 21
1.0
 12
10.42990654205607
 22
4.5
 13
0.0
 23
0.0
 14
0.5
 24
0.5
 15
0.5
 25
0.5
 16
0.0
 26
0.0
 36
1.0
 17
0.0
 27
0.0
 37
0.0
 40
9.0
 41
1.972972972850329
 42
50.0
 43
0.0
 44
0.0
 50
0.0
 51
0.0
 71
     0
 72
   100
 73
     1
 74
     3
 75
     0
 76
     0
 77
     0
 78
     0
  0
ENDTAB
  0
TABLE
  2
LTYPE
  5
5
330
0
100
AcDbSymbolTable
 70
     1
  0
LTYPE
  5
14
330
5
100
AcDbSymbolTableRecord
100
AcDbLinetypeTableRecord
  2
BYBLOCK
 70
     0
  3

 72
    65
 73
     0
 40
0.0
  0
LTYPE
  5
15
330
5
100
AcDbSymbolTableRecord
100
AcDbLinetypeTableRecord
  2
BYLAYER
 70
     0
  3

 72
    65
 73
     0
 40
0.0
  0
LTYPE
  5
16
330
5
100
AcDbSymbolTableRecord
100
AcDbLinetypeTableRecord
  2
CONTINUOUS
 70
     0
  3
Solid line
 72
    65
 73
     0
 40
0.0
  0
ENDTAB
  0
TABLE
  2
LAYER
  5
2
330
0
100
AcDbSymbolTable
 70
     2
  0
LAYER
  5
10
330
2
100
AcDbSymbolTableRecord
100
AcDbLayerTableRecord
  2
0
 70
     0
 62
     7
  6
CONTINUOUS
  0
LAYER
  5
5E
330
2
100
AcDbSymbolTableRecord
100
AcDbLayerTableRecord
  2
LAYER_1
 70
     0
 62
     7
  6
CONTINUOUS
  0
ENDTAB
  0
TABLE
  2
STYLE
  5
3
330
0
100
AcDbSymbolTable
 70
     1
  0
STYLE
  5
11
330
3
100
AcDbSymbolTableRecord
100
AcDbTextStyleTableRecord
  2
STANDARD
 70
     0
 40
0.0
 41
1.0
 50
0.0
 71
     0
 42
0.2
  3
txt
  4

  0
ENDTAB
  0
TABLE
  2
VIEW
  5
6
330
0
100
AcDbSymbolTable
 70
     0
  0
ENDTAB
  0
TABLE
  2
UCS
  5
7
330
0
100
AcDbSymbolTable
 70
     0
  0
ENDTAB
  0
TABLE
  2
APPID
  5
9
330
0
100
AcDbSymbolTable
 70
     2
  0
APPID
  5
12
330
9
100
AcDbSymbolTableRecord
100
AcDbRegAppTableRecord
  2
ACAD
 70
     0
  0
APPID
  5
5D
330
9
100
AcDbSymbolTableRecord
100
AcDbRegAppTableRecord
  2
ODA
 70
     0
  0
ENDTAB
  0
TABLE
  2
DIMSTYLE
  5
A
330
0
100
AcDbSymbolTable
 70
     1
  0
DIMSTYLE
105
27
330
A
100
AcDbSymbolTableRecord
100
AcDbDimStyleTableRecord
  2
STANDARD
 70
     0
  3

  4

  5

  6

  7

 40
1.0
 41
0.18
 42
0.0625
 43
0.38
 44
0.18
 45
0.0
 46
0.0
 47
0.0
 48
0.0
140
0.18
141
0.09
142
0.0
143
25.4
144
1.0
145
0.0
146
1.0
147
0.09
 71
     0
 72
     0
 73
     1
 74
     1
 75
     0
 76
     0
 77
     0
 78
     0
170
     0
171
     2
172
     0
173
     0
174
     0
175
     0
176
     0
177
     0
178
     0
270
     2
271
     4
272
     4
273
     2
274
     2
340
11
275
     0
280
     0
281
     0
282
     0
283
     1
284
     0
285
     0
286
     0
287
     3
288
     0
  0
ENDTAB
  0
TABLE
  2
BLOCK_RECORD
  5
1
330
0
100
AcDbSymbolTable
 70
     1
  0
BLOCK_RECORD
  5
1F
330
1
100
AcDbSymbolTableRecord
100
AcDbBlockTableRecord
  2
*MODEL_SPACE
  0
BLOCK_RECORD
  5
1B
330
1
100
AcDbSymbolTableRecord
100
AcDbBlockTableRecord
  2
*PAPER_SPACE
  0
ENDTAB
  0
ENDSEC
  0
SECTION
  2
BLOCKS
  0
BLOCK
  5
20
330
1F
100
AcDbEntity
  8
0
100
AcDbBlockBegin
  2
*MODEL_SPACE
 70
     0
 10
0.0
 20
0.0
 30
0.0
  3
*MODEL_SPACE
  1

  0
ENDBLK
  5
21
330
1F
100
AcDbEntity
  8
0
100
AcDbBlockEnd
  0
BLOCK
  5
1C
330
1B
100
AcDbEntity
 67
     1
  8
0
100
AcDbBlockBegin
  2
*PAPER_SPACE
 70
     0
 10
0.0
 20
0.0
 30
0.0
  3
*PAPER_SPACE
  1

  0
ENDBLK
  5
1D
330
1B
100
AcDbEntity
 67
     1
  8
0
100
AcDbBlockEnd
  0
ENDSEC
  0
SECTION
  2
ENTITIES
  0
SPLINE
  5
5F
330
1F
100
AcDbEntity
  8
LAYER_1
100
AcDbSpline
210
0.0
220
0.0
230
1.0
 70
    11
 71
     3
 72
    60
 73
    56
 74
     0
 42
0.0000000001
 43
0.0000000001
 40
0.0
 40
0.0
 40
0.0
 40
0.0
 40
0.0714285714285714
 40
0.0714285714285714
 40
0.0714285714285714
 40
0.0714285714285714
 40
0.1428571428571428
 40
0.1428571428571428
 40
0.1428571428571428
 40
0.1428571428571428
 40
0.2142857142857143
 40
0.2142857142857143
 40
0.2142857142857143
 40
0.2142857142857143
 40
0.2857142857142857
 40
0.2857142857142857
 40
0.2857142857142857
 40
0.2857142857142857
 40
0.3571428571428571
 40
0.3571428571428571
 40
0.3571428571428571
 40
0.3571428571428571
 40
0.4285714285714285
 40
0.4285714285714285
 40
0.4285714285714285
 40
0.4285714285714285
 40
0.4999999999999999
 40
0.4999999999999999
 40
0.4999999999999999
 40
0.4999999999999999
 40
0.5714285714285713
 40
0.5714285714285713
 40
0.5714285714285713
 40
0.5714285714285713
 40
0.6428571428571427
 40
0.6428571428571427
 40
0.6428571428571427
 40
0.6428571428571427
 40
0.7142857142857141
 40
0.7142857142857141
 40
0.7142857142857141
 40
0.7142857142857141
 40
0.7857142857142855
 40
0.7857142857142855
 40
0.7857142857142855
 40
0.7857142857142855
 40
0.8571428571428569
 40
0.8571428571428569
 40
0.8571428571428569
 40
0.8571428571428569
 40
0.9285714285714283
 40
0.9285714285714283
 40
0.9285714285714283
 40
0.9285714285714283
 40
1.0
 40
1.0
 40
1.0
 40
1.0
 10
-42.7495
 20
-335.3753
 30
0.0
 10
-42.7495
 20
-335.3753
 30
0.0
 10
-42.7495
 20
-329.4003
 30
0.0
 10
-42.7495
 20
-329.4003
 30
0.0
 10
-42.7495
 20
-329.4003
 30
0.0
 10
-42.7495
 20
-329.4003
 30
0.0
 10
-44.9996
 20
-329.4003
 30
0.0
 10
-44.9996
 20
-329.4003
 30
0.0
 10
-44.9996
 20
-329.4003
 30
0.0
 10
-45.4966
 20
-329.4003
 30
0.0
 10
-45.8996
 20
-328.9973
 30
0.0
 10
-45.8996
 20
-328.5003
 30
0.0
 10
-45.8996
 20
-328.5003
 30
0.0
 10
-45.8996
 20
-328.0033
 30
0.0
 10
-45.4966
 20
-327.6003
 30
0.0
 10
-44.9996
 20
-327.6003
 30
0.0
 10
-44.9996
 20
-327.6003
 30
0.0
 10
-44.9996
 20
-327.6003
 30
0.0
 10
-42.7495
 20
-327.6003
 30
0.0
 10
-42.7495
 20
-327.6003
 30
0.0
 10
-42.7495
 20
-327.6003
 30
0.0
 10
-42.7495
 20
-327.6003
 30
0.0
 10
-42.7495
 20
-321.6253
 30
0.0
 10
-42.7495
 20
-321.6253
 30
0.0
 10
-42.7495
 20
-321.6253
 30
0.0
 10
-33.3625
 20
-321.6253
 30
0.0
 10
-27.3866
 20
-321.6253
 30
0.0
 10
-17.9996
 20
-321.6253
 30
0.0
 10
-17.9996
 20
-321.6253
 30
0.0
 10
-17.9996
 20
-321.6253
 30
0.0
 10
-17.9996
 20
-327.6003
 30
0.0
 10
-17.9996
 20
-327.6003
 30
0.0
 10
-17.9996
 20
-327.6003
 30
0.0
 10
-17.9996
 20
-327.6003
 30
0.0
 10
-15.7496
 20
-327.6003
 30
0.0
 10
-15.7496
 20
-327.6003
 30
0.0
 10
-15.7496
 20
-327.6003
 30
0.0
 10
-15.2526
 20
-327.6003
 30
0.0
 10
-14.8496
 20
-328.0033
 30
0.0
 10
-14.8496
 20
-328.5003
 30
0.0
 10
-14.8496
 20
-328.5003
 30
0.0
 10
-14.8496
 20
-328.9973
 30
0.0
 10
-15.2526
 20
-329.4003
 30
0.0
 10
-15.7496
 20
-329.4003
 30
0.0
 10
-15.7496
 20
-329.4003
 30
0.0
 10
-15.7496
 20
-329.4003
 30
0.0
 10
-17.9996
 20
-329.4003
 30
0.0
 10
-17.9996
 20
-329.4003
 30
0.0
 10
-17.9996
 20
-329.4003
 30
0.0
 10
-17.9996
 20
-329.4003
 30
0.0
 10
-17.9996
 20
-335.3753
 30
0.0
 10
-17.9996
 20
-335.3753
 30
0.0
 10
-17.9996
 20
-335.3753
 30
0.0
 10
-27.6104
 20
-335.3753
 30
0.0
 10
-33.1387
 20
-335.3753
 30
0.0
 10
-42.7495
 20
-335.3753
 30
0.0
  0
SPLINE
  5
60
330
1F
100
AcDbEntity
  8
LAYER_1
100
AcDbSpline
210
0.0
220
0.0
230
1.0
 70
    11
 71
     3
 72
    44
 73
    40
 74
     0
 42
0.0000000001
 43
0.0000000001
 40
0.0
 40
0.0
 40
0.0
 40
0.0
 40
0.1
 40
0.1
 40
0.1
 40
0.1
 40
0.2
 40
0.2
 40
0.2
 40
0.2
 40
0.3
 40
0.3
 40
0.3
 40
0.3
 40
0.4
 40
0.4
 40
0.4
 40
0.4
 40
0.5
 40
0.5
 40
0.5
 40
0.5
 40
0.6
 40
0.6
 40
0.6
 40
0.6
 40
0.7
 40
0.7
 40
0.7
 40
0.7
 40
0.7999999999999999
 40
0.7999999999999999
 40
0.7999999999999999
 40
0.7999999999999999
 40
0.8999999999999999
 40
0.8999999999999999
 40
0.8999999999999999
 40
0.8999999999999999
 40
1.0
 40
1.0
 40
1.0
 40
1.0
 10
-51.5001
 20
-347.9983
 30
0.0
 10
-51.5001
 20
-347.9983
 30
0.0
 10
-51.5003
 20
-349.9994
 30
0.0
 10
-51.5003
 20
-349.9994
 30
0.0
 10
-51.5003
 20
-349.9994
 30
0.0
 10
-51.5003
 20
-352.7694
 30
0.0
 10
-49.2694
 20
-355.0003
 30
0.0
 10
-46.4994
 20
-355.0003
 30
0.0
 10
-46.4994
 20
-355.0003
 30
0.0
 10
-46.4994
 20
-355.0003
 30
0.0
 10
-3.5007
 20
-355.0003
 30
0.0
 10
-3.5007
 20
-355.0003
 30
0.0
 10
-3.5007
 20
-355.0003
 30
0.0
 10
-0.7293
 20
-355.0003
 30
0.0
 10
1.5003
 20
-352.7694
 30
0.0
 10
1.5003
 20
-349.9994
 30
0.0
 10
1.5003
 20
-349.9994
 30
0.0
 10
1.5003
 20
-349.9994
 30
0.0
 10
1.5003
 20
-307.0007
 30
0.0
 10
1.5003
 20
-307.0007
 30
0.0
 10
1.5003
 20
-307.0007
 30
0.0
 10
1.5003
 20
-304.2293
 30
0.0
 10
-0.7293
 20
-301.9997
 30
0.0
 10
-3.5007
 20
-301.9997
 30
0.0
 10
-3.5007
 20
-301.9997
 30
0.0
 10
-3.5007
 20
-301.9997
 30
0.0
 10
-46.4994
 20
-301.9997
 30
0.0
 10
-46.4994
 20
-301.9997
 30
0.0
 10
-46.4994
 20
-301.9997
 30
0.0
 10
-49.2694
 20
-301.9997
 30
0.0
 10
-51.5003
 20
-304.2293
 30
0.0
 10
-51.5003
 20
-307.0007
 30
0.0
 10
-51.5003
 20
-307.0007
 30
0.0
 10
-51.5003
 20
-307.0007
 30
0.0
 10
-51.5003
 20
-324.6555
 30
0.0
 10
-51.5003
 20
-324.6555
 30
0.0
 10
-51.5003
 20
-324.6555
 30
0.0
 10
-51.5003
 20
-324.6555
 30
0.0
 10
-51.5001
 20
-347.9983
 30
0.0
 10
-51.5001
 20
-347.9983
 30
0.0
  0
SPLINE
  5
61
330
1F
100
AcDbEntity
  8
LAYER_1
100
AcDbSpline
210
0.0
220
0.0
230
1.0
 70
    11
 71
     3
 72
    84
 73
    80
 74
     0
 42
0.0000000001
 43
0.0000000001
 40
0.0
 40
0.0
 40
0.0
 40
0.0
 40
0.05
 40
0.05
 40
0.05
 40
0.05
 40
0.1
 40
0.1
 40
0.1
 40
0.1
 40
0.15
 40
0.15
 40
0.15
 40
0.15
 40
0.2
 40
0.2
 40
0.2
 40
0.2
 40
0.25
 40
0.25
 40
0.25
 40
0.25
 40
0.3
 40
0.3
 40
0.3
 40
0.3
 40
0.35
 40
0.35
 40
0.35
 40
0.35
 40
0.4
 40
0.4
 40
0.4
 40
0.4
 40
0.45
 40
0.45
 40
0.45
 40
0.45
 40
0.4999999999999999
 40
0.4999999999999999
 40
0.4999999999999999
 40
0.4999999999999999
 40
0.5499999999999999
 40
0.5499999999999999
 40
0.5499999999999999
 40
0.5499999999999999
 40
0.6
 40
0.6
 40
0.6
 40
0.6
 40
0.65
 40
0.65
 40
0.65
 40
0.65
 40
0.7000000000000001
 40
0.7000000000000001
 40
0.7000000000000001
 40
0.7000000000000001
 40
0.7500000000000001
 40
0.7500000000000001
 40
0.7500000000000001
 40
0.7500000000000001
 40
0.8000000000000002
 40
0.8000000000000002
 40
0.8000000000000002
 40
0.8000000000000002
 40
0.8500000000000002
 40
0.8500000000000002
 40
0.8500000000000002
 40
0.8500000000000002
 40
0.9000000000000002
 40
0.9000000000000002
 40
0.9000000000000002
 40
0.9000000000000002
 40
0.9500000000000003
 40
0.9500000000000003
 40
0.9500000000000003
 40
0.9500000000000003
 40
1.0
 40
1.0
 40
1.0
 40
1.0
 10
-6.5493
 20
-311.6
 30
0.0
 10
-6.5493
 20
-311.6
 30
0.0
 10
-6.5493
 20
-311.1855
 30
0.0
 10
-6.5493
 20
-311.1855
 30
0.0
 10
-6.5493
 20
-311.1855
 30
0.0
 10
-7.0206
 20
-310.9135
 30
0.0
 10
-7.4124
 20
-310.5206
 30
0.0
 10
-7.6844
 20
-310.0507
 30
0.0
 10
-7.6844
 20
-310.0507
 30
0.0
 10
-7.6844
 20
-310.0507
 30
0.0
 10
-8.1
 20
-310.0507
 30
0.0
 10
-8.1
 20
-310.0507
 30
0.0
 10
-8.1
 20
-310.0507
 30
0.0
 10
-8.1
 20
-310.0507
 30
0.0
 10
-8.1
 20
-308.5
 30
0.0
 10
-8.1
 20
-308.5
 30
0.0
 10
-8.1
 20
-308.5
 30
0.0
 10
-8.1
 20
-308.5
 30
0.0
 10
-8.1
 20
-306.9508
 30
0.0
 10
-8.1
 20
-306.9508
 30
0.0
 10
-8.1
 20
-306.9508
 30
0.0
 10
-8.1
 20
-306.9508
 30
0.0
 10
-7.6844
 20
-306.9508
 30
0.0
 10
-7.6844
 20
-306.9508
 30
0.0
 10
-7.6844
 20
-306.9508
 30
0.0
 10
-7.4124
 20
-306.4794
 30
0.0
 10
-7.0206
 20
-306.0879
 30
0.0
 10
-6.5493
 20
-305.816
 30
0.0
 10
-6.5493
 20
-305.816
 30
0.0
 10
-6.5493
 20
-305.816
 30
0.0
 10
-6.5493
 20
-305.4001
 30
0.0
 10
-6.5493
 20
-305.4001
 30
0.0
 10
-6.5493
 20
-305.4001
 30
0.0
 10
-6.5493
 20
-305.4001
 30
0.0
 10
-5.0
 20
-305.4001
 30
0.0
 10
-5.0
 20
-305.4001
 30
0.0
 10
-5.0
 20
-305.4001
 30
0.0
 10
-5.0
 20
-305.4001
 30
0.0
 10
-3.4492
 20
-305.4001
 30
0.0
 10
-3.4492
 20
-305.4001
 30
0.0
 10
-3.4492
 20
-305.4001
 30
0.0
 10
-3.4492
 20
-305.4001
 30
0.0
 10
-3.4492
 20
-305.816
 30
0.0
 10
-3.4492
 20
-305.816
 30
0.0
 10
-3.4492
 20
-305.816
 30
0.0
 10
-2.9794
 20
-306.0879
 30
0.0
 10
-2.5864
 20
-306.4794
 30
0.0
 10
-2.3144
 20
-306.9508
 30
0.0
 10
-2.3144
 20
-306.9508
 30
0.0
 10
-2.3144
 20
-306.9508
 30
0.0
 10
-1.9
 20
-306.9508
 30
0.0
 10
-1.9
 20
-306.9508
 30
0.0
 10
-1.9
 20
-306.9508
 30
0.0
 10
-1.9
 20
-306.9508
 30
0.0
 10
-1.9
 20
-308.5
 30
0.0
 10
-1.9
 20
-308.5
 30
0.0
 10
-1.9
 20
-308.5
 30
0.0
 10
-1.9
 20
-308.5
 30
0.0
 10
-1.9
 20
-310.0507
 30
0.0
 10
-1.9
 20
-310.0507
 30
0.0
 10
-1.9
 20
-310.0507
 30
0.0
 10
-1.9
 20
-310.0507
 30
0.0
 10
-2.3144
 20
-310.0507
 30
0.0
 10
-2.3144
 20
-310.0507
 30
0.0
 10
-2.3144
 20
-310.0507
 30
0.0
 10
-2.5864
 20
-310.5206
 30
0.0
 10
-2.9794
 20
-310.9135
 30
0.0
 10
-3.4492
 20
-311.1855
 30
0.0
 10
-3.4492
 20
-311.1855
 30
0.0
 10
-3.4492
 20
-311.1855
 30
0.0
 10
-3.4492
 20
-311.6
 30
0.0
 10
-3.4492
 20
-311.6
 30
0.0
 10
-3.4492
 20
-311.6
 30
0.0
 10
-3.4492
 20
-311.6
 30
0.0
 10
-5.0
 20
-311.6
 30
0.0
 10
-5.0
 20
-311.6
 30
0.0
 10
-5.0
 20
-311.6
 30
0.0
 10
-5.0
 20
-311.6
 30
0.0
 10
-6.5493
 20
-311.6
 30
0.0
 10
-6.5493
 20
-311.6
 30
0.0
  0
SPLINE
  5
62
330
1F
100
AcDbEntity
  8
LAYER_1
100
AcDbSpline
210
0.0
220
0.0
230
1.0
 70
    11
 71
     3
 72
    84
 73
    80
 74
     0
 42
0.0000000001
 43
0.0000000001
 40
0.0
 40
0.0
 40
0.0
 40
0.0
 40
0.05
 40
0.05
 40
0.05
 40
0.05
 40
0.1
 40
0.1
 40
0.1
 40
0.1
 40
0.15
 40
0.15
 40
0.15
 40
0.15
 40
0.2
 40
0.2
 40
0.2
 40
0.2
 40
0.25
 40
0.25
 40
0.25
 40
0.25
 40
0.3
 40
0.3
 40
0.3
 40
0.3
 40
0.35
 40
0.35
 40
0.35
 40
0.35
 40
0.4
 40
0.4
 40
0.4
 40
0.4
 40
0.45
 40
0.45
 40
0.45
 40
0.45
 40
0.4999999999999999
 40
0.4999999999999999
 40
0.4999999999999999
 40
0.4999999999999999
 40
0.5499999999999999
 40
0.5499999999999999
 40
0.5499999999999999
 40
0.5499999999999999
 40
0.6
 40
0.6
 40
0.6
 40
0.6
 40
0.65
 40
0.65
 40
0.65
 40
0.65
 40
0.7000000000000001
 40
0.7000000000000001
 40
0.7000000000000001
 40
0.7000000000000001
 40
0.7500000000000001
 40
0.7500000000000001
 40
0.7500000000000001
 40
0.7500000000000001
 40
0.8000000000000002
 40
0.8000000000000002
 40
0.8000000000000002
 40
0.8000000000000002
 40
0.8500000000000002
 40
0.8500000000000002
 40
0.8500000000000002
 40
0.8500000000000002
 40
0.9000000000000002
 40
0.9000000000000002
 40
0.9000000000000002
 40
0.9000000000000002
 40
0.9500000000000003
 40
0.9500000000000003
 40
0.9500000000000003
 40
0.9500000000000003
 40
1.0
 40
1.0
 40
1.0
 40
1.0
 10
-46.5493
 20
-311.6
 30
0.0
 10
-46.5493
 20
-311.6
 30
0.0
 10
-46.5493
 20
-311.1855
 30
0.0
 10
-46.5493
 20
-311.1855
 30
0.0
 10
-46.5493
 20
-311.1855
 30
0.0
 10
-47.0206
 20
-310.9135
 30
0.0
 10
-47.4124
 20
-310.5206
 30
0.0
 10
-47.6844
 20
-310.0507
 30
0.0
 10
-47.6844
 20
-310.0507
 30
0.0
 10
-47.6844
 20
-310.0507
 30
0.0
 10
-48.1
 20
-310.0507
 30
0.0
 10
-48.1
 20
-310.0507
 30
0.0
 10
-48.1
 20
-310.0507
 30
0.0
 10
-48.1
 20
-310.0507
 30
0.0
 10
-48.1
 20
-308.5
 30
0.0
 10
-48.1
 20
-308.5
 30
0.0
 10
-48.1
 20
-308.5
 30
0.0
 10
-48.1
 20
-308.5
 30
0.0
 10
-48.1
 20
-306.9508
 30
0.0
 10
-48.1
 20
-306.9508
 30
0.0
 10
-48.1
 20
-306.9508
 30
0.0
 10
-48.1
 20
-306.9508
 30
0.0
 10
-47.6844
 20
-306.9508
 30
0.0
 10
-47.6844
 20
-306.9508
 30
0.0
 10
-47.6844
 20
-306.9508
 30
0.0
 10
-47.4124
 20
-306.4794
 30
0.0
 10
-47.0206
 20
-306.0879
 30
0.0
 10
-46.5493
 20
-305.816
 30
0.0
 10
-46.5493
 20
-305.816
 30
0.0
 10
-46.5493
 20
-305.816
 30
0.0
 10
-46.5493
 20
-305.4001
 30
0.0
 10
-46.5493
 20
-305.4001
 30
0.0
 10
-46.5493
 20
-305.4001
 30
0.0
 10
-46.5493
 20
-305.4001
 30
0.0
 10
-45.0
 20
-305.4001
 30
0.0
 10
-45.0
 20
-305.4001
 30
0.0
 10
-45.0
 20
-305.4001
 30
0.0
 10
-45.0
 20
-305.4001
 30
0.0
 10
-43.4492
 20
-305.4001
 30
0.0
 10
-43.4492
 20
-305.4001
 30
0.0
 10
-43.4492
 20
-305.4001
 30
0.0
 10
-43.4492
 20
-305.4001
 30
0.0
 10
-43.4492
 20
-305.816
 30
0.0
 10
-43.4492
 20
-305.816
 30
0.0
 10
-43.4492
 20
-305.816
 30
0.0
 10
-42.9794
 20
-306.0879
 30
0.0
 10
-42.5864
 20
-306.4794
 30
0.0
 10
-42.3144
 20
-306.9508
 30
0.0
 10
-42.3144
 20
-306.9508
 30
0.0
 10
-42.3144
 20
-306.9508
 30
0.0
 10
-41.9
 20
-306.9508
 30
0.0
 10
-41.9
 20
-306.9508
 30
0.0
 10
-41.9
 20
-306.9508
 30
0.0
 10
-41.9
 20
-306.9508
 30
0.0
 10
-41.9
 20
-308.5
 30
0.0
 10
-41.9
 20
-308.5
 30
0.0
 10
-41.9
 20
-308.5
 30
0.0
 10
-41.9
 20
-308.5
 30
0.0
 10
-41.9
 20
-310.0507
 30
0.0
 10
-41.9
 20
-310.0507
 30
0.0
 10
-41.9
 20
-310.0507
 30
0.0
 10
-41.9
 20
-310.0507
 30
0.0
 10
-42.3144
 20
-310.0507
 30
0.0
 10
-42.3144
 20
-310.0507
 30
0.0
 10
-42.3144
 20
-310.0507
 30
0.0
 10
-42.5864
 20
-310.5206
 30
0.0
 10
-42.9794
 20
-310.9135
 30
0.0
 10
-43.4492
 20
-311.1855
 30
0.0
 10
-43.4492
 20
-311.1855
 30
0.0
 10
-43.4492
 20
-311.1855
 30
0.0
 10
-43.4492
 20
-311.6
 30
0.0
 10
-43.4492
 20
-311.6
 30
0.0
 10
-43.4492
 20
-311.6
 30
0.0
 10
-43.4492
 20
-311.6
 30
0.0
 10
-45.0
 20
-311.6
 30
0.0
 10
-45.0
 20
-311.6
 30
0.0
 10
-45.0
 20
-311.6
 30
0.0
 10
-45.0
 20
-311.6
 30
0.0
 10
-46.5493
 20
-311.6
 30
0.0
 10
-46.5493
 20
-311.6
 30
0.0
  0
SPLINE
  5
63
330
1F
100
AcDbEntity
  8
LAYER_1
100
AcDbSpline
210
0.0
220
0.0
230
1.0
 70
    11
 71
     3
 72
    84
 73
    80
 74
     0
 42
0.0000000001
 43
0.0000000001
 40
0.0
 40
0.0
 40
0.0
 40
0.0
 40
0.05
 40
0.05
 40
0.05
 40
0.05
 40
0.1
 40
0.1
 40
0.1
 40
0.1
 40
0.15
 40
0.15
 40
0.15
 40
0.15
 40
0.2
 40
0.2
 40
0.2
 40
0.2
 40
0.25
 40
0.25
 40
0.25
 40
0.25
 40
0.3
 40
0.3
 40
0.3
 40
0.3
 40
0.35
 40
0.35
 40
0.35
 40
0.35
 40
0.4
 40
0.4
 40
0.4
 40
0.4
 40
0.45
 40
0.45
 40
0.45
 40
0.45
 40
0.4999999999999999
 40
0.4999999999999999
 40
0.4999999999999999
 40
0.4999999999999999
 40
0.5499999999999999
 40
0.5499999999999999
 40
0.5499999999999999
 40
0.5499999999999999
 40
0.6
 40
0.6
 40
0.6
 40
0.6
 40
0.65
 40
0.65
 40
0.65
 40
0.65
 40
0.7000000000000001
 40
0.7000000000000001
 40
0.7000000000000001
 40
0.7000000000000001
 40
0.7500000000000001
 40
0.7500000000000001
 40
0.7500000000000001
 40
0.7500000000000001
 40
0.8000000000000002
 40
0.8000000000000002
 40
0.8000000000000002
 40
0.8000000000000002
 40
0.8500000000000002
 40
0.8500000000000002
 40
0.8500000000000002
 40
0.8500000000000002
 40
0.9000000000000002
 40
0.9000000000000002
 40
0.9000000000000002
 40
0.9000000000000002
 40
0.9500000000000003
 40
0.9500000000000003
 40
0.9500000000000003
 40
0.9500000000000003
 40
1.0
 40
1.0
 40
1.0
 40
1.0
 10
-6.5493
 20
-351.6
 30
0.0
 10
-6.5493
 20
-351.6
 30
0.0
 10
-6.5493
 20
-351.1855
 30
0.0
 10
-6.5493
 20
-351.1855
 30
0.0
 10
-6.5493
 20
-351.1855
 30
0.0
 10
-7.0206
 20
-350.9135
 30
0.0
 10
-7.4124
 20
-350.5206
 30
0.0
 10
-7.6844
 20
-350.0507
 30
0.0
 10
-7.6844
 20
-350.0507
 30
0.0
 10
-7.6844
 20
-350.0507
 30
0.0
 10
-8.1
 20
-350.0507
 30
0.0
 10
-8.1
 20
-350.0507
 30
0.0
 10
-8.1
 20
-350.0507
 30
0.0
 10
-8.1
 20
-350.0507
 30
0.0
 10
-8.1
 20
-348.5
 30
0.0
 10
-8.1
 20
-348.5
 30
0.0
 10
-8.1
 20
-348.5
 30
0.0
 10
-8.1
 20
-348.5
 30
0.0
 10
-8.1
 20
-346.9508
 30
0.0
 10
-8.1
 20
-346.9508
 30
0.0
 10
-8.1
 20
-346.9508
 30
0.0
 10
-8.1
 20
-346.9508
 30
0.0
 10
-7.6844
 20
-346.9508
 30
0.0
 10
-7.6844
 20
-346.9508
 30
0.0
 10
-7.6844
 20
-346.9508
 30
0.0
 10
-7.4124
 20
-346.4794
 30
0.0
 10
-7.0206
 20
-346.0879
 30
0.0
 10
-6.5493
 20
-345.816
 30
0.0
 10
-6.5493
 20
-345.816
 30
0.0
 10
-6.5493
 20
-345.816
 30
0.0
 10
-6.5493
 20
-345.4001
 30
0.0
 10
-6.5493
 20
-345.4001
 30
0.0
 10
-6.5493
 20
-345.4001
 30
0.0
 10
-6.5493
 20
-345.4001
 30
0.0
 10
-5.0
 20
-345.4001
 30
0.0
 10
-5.0
 20
-345.4001
 30
0.0
 10
-5.0
 20
-345.4001
 30
0.0
 10
-5.0
 20
-345.4001
 30
0.0
 10
-3.4492
 20
-345.4001
 30
0.0
 10
-3.4492
 20
-345.4001
 30
0.0
 10
-3.4492
 20
-345.4001
 30
0.0
 10
-3.4492
 20
-345.4001
 30
0.0
 10
-3.4492
 20
-345.816
 30
0.0
 10
-3.4492
 20
-345.816
 30
0.0
 10
-3.4492
 20
-345.816
 30
0.0
 10
-2.9794
 20
-346.0879
 30
0.0
 10
-2.5864
 20
-346.4794
 30
0.0
 10
-2.3144
 20
-346.9508
 30
0.0
 10
-2.3144
 20
-346.9508
 30
0.0
 10
-2.3144
 20
-346.9508
 30
0.0
 10
-1.9
 20
-346.9508
 30
0.0
 10
-1.9
 20
-346.9508
 30
0.0
 10
-1.9
 20
-346.9508
 30
0.0
 10
-1.9
 20
-346.9508
 30
0.0
 10
-1.9
 20
-348.5
 30
0.0
 10
-1.9
 20
-348.5
 30
0.0
 10
-1.9
 20
-348.5
 30
0.0
 10
-1.9
 20
-348.5
 30
0.0
 10
-1.9
 20
-350.0507
 30
0.0
 10
-1.9
 20
-350.0507
 30
0.0
 10
-1.9
 20
-350.0507
 30
0.0
 10
-1.9
 20
-350.0507
 30
0.0
 10
-2.3144
 20
-350.0507
 30
0.0
 10
-2.3144
 20
-350.0507
 30
0.0
 10
-2.3144
 20
-350.0507
 30
0.0
 10
-2.5864
 20
-350.5206
 30
0.0
 10
-2.9794
 20
-350.9135
 30
0.0
 10
-3.4492
 20
-351.1855
 30
0.0
 10
-3.4492
 20
-351.1855
 30
0.0
 10
-3.4492
 20
-351.1855
 30
0.0
 10
-3.4492
 20
-351.6
 30
0.0
 10
-3.4492
 20
-351.6
 30
0.0
 10
-3.4492
 20
-351.6
 30
0.0
 10
-3.4492
 20
-351.6
 30
0.0
 10
-5.0
 20
-351.6
 30
0.0
 10
-5.0
 20
-351.6
 30
0.0
 10
-5.0
 20
-351.6
 30
0.0
 10
-5.0
 20
-351.6
 30
0.0
 10
-6.5493
 20
-351.6
 30
0.0
 10
-6.5493
 20
-351.6
 30
0.0
  0
SPLINE
  5
64
330
1F
100
AcDbEntity
  8
LAYER_1
100
AcDbSpline
210
0.0
220
0.0
230
1.0
 70
    11
 71
     3
 72
    84
 73
    80
 74
     0
 42
0.0000000001
 43
0.0000000001
 40
0.0
 40
0.0
 40
0.0
 40
0.0
 40
0.05
 40
0.05
 40
0.05
 40
0.05
 40
0.1
 40
0.1
 40
0.1
 40
0.1
 40
0.15
 40
0.15
 40
0.15
 40
0.15
 40
0.2
 40
0.2
 40
0.2
 40
0.2
 40
0.25
 40
0.25
 40
0.25
 40
0.25
 40
0.3
 40
0.3
 40
0.3
 40
0.3
 40
0.35
 40
0.35
 40
0.35
 40
0.35
 40
0.4
 40
0.4
 40
0.4
 40
0.4
 40
0.45
 40
0.45
 40
0.45
 40
0.45
 40
0.4999999999999999
 40
0.4999999999999999
 40
0.4999999999999999
 40
0.4999999999999999
 40
0.5499999999999999
 40
0.5499999999999999
 40
0.5499999999999999
 40
0.5499999999999999
 40
0.6
 40
0.6
 40
0.6
 40
0.6
 40
0.65
 40
0.65
 40
0.65
 40
0.65
 40
0.7000000000000001
 40
0.7000000000000001
 40
0.7000000000000001
 40
0.7000000000000001
 40
0.7500000000000001
 40
0.7500000000000001
 40
0.7500000000000001
 40
0.7500000000000001
 40
0.8000000000000002
 40
0.8000000000000002
 40
0.8000000000000002
 40
0.8000000000000002
 40
0.8500000000000002
 40
0.8500000000000002
 40
0.8500000000000002
 40
0.8500000000000002
 40
0.9000000000000002
 40
0.9000000000000002
 40
0.9000000000000002
 40
0.9000000000000002
 40
0.9500000000000003
 40
0.9500000000000003
 40
0.9500000000000003
 40
0.9500000000000003
 40
1.0
 40
1.0
 40
1.0
 40
1.0
 10
-46.5493
 20
-351.6
 30
0.0
 10
-46.5493
 20
-351.6
 30
0.0
 10
-46.5493
 20
-351.1855
 30
0.0
 10
-46.5493
 20
-351.1855
 30
0.0
 10
-46.5493
 20
-351.1855
 30
0.0
 10
-47.0206
 20
-350.9135
 30
0.0
 10
-47.4124
 20
-350.5206
 30
0.0
 10
-47.6844
 20
-350.0507
 30
0.0
 10
-47.6844
 20
-350.0507
 30
0.0
 10
-47.6844
 20
-350.0507
 30
0.0
 10
-48.1
 20
-350.0507
 30
0.0
 10
-48.1
 20
-350.0507
 30
0.0
 10
-48.1
 20
-350.0507
 30
0.0
 10
-48.1
 20
-350.0507
 30
0.0
 10
-48.1
 20
-348.5
 30
0.0
 10
-48.1
 20
-348.5
 30
0.0
 10
-48.1
 20
-348.5
 30
0.0
 10
-48.1
 20
-348.5
 30
0.0
 10
-48.1
 20
-346.9508
 30
0.0
 10
-48.1
 20
-346.9508
 30
0.0
 10
-48.1
 20
-346.9508
 30
0.0
 10
-48.1
 20
-346.9508
 30
0.0
 10
-47.6844
 20
-346.9508
 30
0.0
 10
-47.6844
 20
-346.9508
 30
0.0
 10
-47.6844
 20
-346.9508
 30
0.0
 10
-47.4124
 20
-346.4794
 30
0.0
 10
-47.0206
 20
-346.0879
 30
0.0
 10
-46.5493
 20
-345.816
 30
0.0
 10
-46.5493
 20
-345.816
 30
0.0
 10
-46.5493
 20
-345.816
 30
0.0
 10
-46.5493
 20
-345.4001
 30
0.0
 10
-46.5493
 20
-345.4001
 30
0.0
 10
-46.5493
 20
-345.4001
 30
0.0
 10
-46.5493
 20
-345.4001
 30
0.0
 10
-45.0
 20
-345.4001
 30
0.0
 10
-45.0
 20
-345.4001
 30
0.0
 10
-45.0
 20
-345.4001
 30
0.0
 10
-45.0
 20
-345.4001
 30
0.0
 10
-43.4492
 20
-345.4001
 30
0.0
 10
-43.4492
 20
-345.4001
 30
0.0
 10
-43.4492
 20
-345.4001
 30
0.0
 10
-43.4492
 20
-345.4001
 30
0.0
 10
-43.4492
 20
-345.816
 30
0.0
 10
-43.4492
 20
-345.816
 30
0.0
 10
-43.4492
 20
-345.816
 30
0.0
 10
-42.9794
 20
-346.0879
 30
0.0
 10
-42.5864
 20
-346.4794
 30
0.0
 10
-42.3144
 20
-346.9508
 30
0.0
 10
-42.3144
 20
-346.9508
 30
0.0
 10
-42.3144
 20
-346.9508
 30
0.0
 10
-41.9
 20
-346.9508
 30
0.0
 10
-41.9
 20
-346.9508
 30
0.0
 10
-41.9
 20
-346.9508
 30
0.0
 10
-41.9
 20
-346.9508
 30
0.0
 10
-41.9
 20
-348.5
 30
0.0
 10
-41.9
 20
-348.5
 30
0.0
 10
-41.9
 20
-348.5
 30
0.0
 10
-41.9
 20
-348.5
 30
0.0
 10
-41.9
 20
-350.0507
 30
0.0
 10
-41.9
 20
-350.0507
 30
0.0
 10
-41.9
 20
-350.0507
 30
0.0
 10
-41.9
 20
-350.0507
 30
0.0
 10
-42.3144
 20
-350.0507
 30
0.0
 10
-42.3144
 20
-350.0507
 30
0.0
 10
-42.3144
 20
-350.0507
 30
0.0
 10
-42.5864
 20
-350.5206
 30
0.0
 10
-42.9794
 20
-350.9135
 30
0.0
 10
-43.4492
 20
-351.1855
 30
0.0
 10
-43.4492
 20
-351.1855
 30
0.0
 10
-43.4492
 20
-351.1855
 30
0.0
 10
-43.4492
 20
-351.6
 30
0.0
 10
-43.4492
 20
-351.6
 30
0.0
 10
-43.4492
 20
-351.6
 30
0.0
 10
-43.4492
 20
-351.6
 30
0.0
 10
-45.0
 20
-351.6
 30
0.0
 10
-45.0
 20
-351.6
 30
0.0
 10
-45.0
 20
-351.6
 30
0.0
 10
-45.0
 20
-351.6
 30
0.0
 10
-46.5493
 20
-351.6
 30
0.0
 10
-46.5493
 20
-351.6
 30
0.0
  0
SPLINE
  5
65
330
1F
100
AcDbEntity
  8
LAYER_1
100
AcDbSpline
210
0.0
220
0.0
230
1.0
 70
    11
 71
     3
 72
    20
 73
    16
 74
     0
 42
0.0000000001
 43
0.0000000001
 40
0.0
 40
0.0
 40
0.0
 40
0.0
 40
0.25
 40
0.25
 40
0.25
 40
0.25
 40
0.5
 40
0.5
 40
0.5
 40
0.5
 40
0.75
 40
0.75
 40
0.75
 40
0.75
 40
1.0
 40
1.0
 40
1.0
 40
1.0
 10
32.7505
 20
-335.3753
 30
0.0
 10
32.7505
 20
-335.3753
 30
0.0
 10
32.7505
 20
-321.6253
 30
0.0
 10
32.7505
 20
-321.6253
 30
0.0
 10
32.7505
 20
-321.6253
 30
0.0
 10
42.1375
 20
-321.6253
 30
0.0
 10
57.1134
 20
-321.6253
 30
0.0
 10
66.5004
 20
-321.6253
 30
0.0
 10
66.5004
 20
-321.6253
 30
0.0
 10
66.5004
 20
-321.6253
 30
0.0
 10
66.5004
 20
-335.3753
 30
0.0
 10
66.5004
 20
-335.3753
 30
0.0
 10
66.5004
 20
-335.3753
 30
0.0
 10
56.8896
 20
-335.3753
 30
0.0
 10
42.3613
 20
-335.3753
 30
0.0
 10
32.7505
 20
-335.3753
 30
0.0
  0
SPLINE
  5
66
330
1F
100
AcDbEntity
  8
LAYER_1
100
AcDbSpline
210
0.0
220
0.0
230
1.0
 70
    11
 71
     3
 72
   136
 73
   132
 74
     0
 42
0.0000000001
 43
0.0000000001
 40
0.0
 40
0.0
 40
0.0
 40
0.0
 40
0.0303030303030303
 40
0.0303030303030303
 40
0.0303030303030303
 40
0.0303030303030303
 40
0.0606060606060606
 40
0.0606060606060606
 40
0.0606060606060606
 40
0.0606060606060606
 40
0.0909090909090909
 40
0.0909090909090909
 40
0.0909090909090909
 40
0.0909090909090909
 40
0.1212121212121212
 40
0.1212121212121212
 40
0.1212121212121212
 40
0.1212121212121212
 40
0.1515151515151515
 40
0.1515151515151515
 40
0.1515151515151515
 40
0.1515151515151515
 40
0.1818181818181818
 40
0.1818181818181818
 40
0.1818181818181818
 40
0.1818181818181818
 40
0.2121212121212121
 40
0.2121212121212121
 40
0.2121212121212121
 40
0.2121212121212121
 40
0.2424242424242424
 40
0.2424242424242424
 40
0.2424242424242424
 40
0.2424242424242424
 40
0.2727272727272727
 40
0.2727272727272727
 40
0.2727272727272727
 40
0.2727272727272727
 40
0.303030303030303
 40
0.303030303030303
 40
0.303030303030303
 40
0.303030303030303
 40
0.3333333333333333
 40
0.3333333333333333
 40
0.3333333333333333
 40
0.3333333333333333
 40
0.3636363636363635
 40
0.3636363636363635
 40
0.3636363636363635
 40
0.3636363636363635
 40
0.3939393939393938
 40
0.3939393939393938
 40
0.3939393939393938
 40
0.3939393939393938
 40
0.4242424242424241
 40
0.4242424242424241
 40
0.4242424242424241
 40
0.4242424242424241
 40
0.4545454545454544
 40
0.4545454545454544
 40
0.4545454545454544
 40
0.4545454545454544
 40
0.4848484848484846
 40
0.4848484848484846
 40
0.4848484848484846
 40
0.4848484848484846
 40
0.5151515151515149
 40
0.5151515151515149
 40
0.5151515151515149
 40
0.5151515151515149
 40
0.5454545454545452
 40
0.5454545454545452
 40
0.5454545454545452
 40
0.5454545454545452
 40
0.5757575757575755
 40
0.5757575757575755
 40
0.5757575757575755
 40
0.5757575757575755
 40
0.6060606060606057
 40
0.6060606060606057
 40
0.6060606060606057
 40
0.6060606060606057
 40
0.636363636363636
 40
0.636363636363636
 40
0.636363636363636
 40
0.636363636363636
 40
0.6666666666666663
 40
0.6666666666666663
 40
0.6666666666666663
 40
0.6666666666666663
 40
0.6969696969696966
 40
0.6969696969696966
 40
0.6969696969696966
 40
0.6969696969696966
 40
0.7272727272727268
 40
0.7272727272727268
 40
0.7272727272727268
 40
0.7272727272727268
 40
0.7575757575757571
 40
0.7575757575757571
 40
0.7575757575757571
 40
0.7575757575757571
 40
0.7878787878787874
 40
0.7878787878787874
 40
0.7878787878787874
 40
0.7878787878787874
 40
0.8181818181818177
 40
0.8181818181818177
 40
0.8181818181818177
 40
0.8181818181818177
 40
0.848484848484848
 40
0.848484848484848
 40
0.848484848484848
 40
0.848484848484848
 40
0.8787878787878782
 40
0.8787878787878782
 40
0.8787878787878782
 40
0.8787878787878782
 40
0.9090909090909085
 40
0.9090909090909085
 40
0.9090909090909085
 40
0.9090909090909085
 40
0.9393939393939388
 40
0.9393939393939388
 40
0.9393939393939388
 40
0.9393939393939388
 40
0.9696969696969691
 40
0.9696969696969691
 40
0.9696969696969691
 40
0.9696969696969691
 40
1.0
 40
1.0
 40
1.0
 40
1.0
 10
241.5
 20
-341.19
 30
0.0
 10
240.6717
 20
-341.19
 30
0.0
 10
240.0
 20
-340.5183
 30
0.0
 10
240.0
 20
-339.69
 30
0.0
 10
240.0
 20
-339.69
 30
0.0
 10
240.0
 20
-338.8617
 30
0.0
 10
240.6717
 20
-338.19
 30
0.0
 10
241.5
 20
-338.19
 30
0.0
 10
241.5
 20
-338.19
 30
0.0
 10
241.5
 20
-338.19
 30
0.0
 10
241.5
 20
-333.68
 30
0.0
 10
241.5
 20
-333.68
 30
0.0
 10
241.5
 20
-333.68
 30
0.0
 10
241.5
 20
-333.68
 30
0.0
 10
235.3699
 20
-333.68
 30
0.0
 10
235.3699
 20
-333.68
 30
0.0
 10
235.3699
 20
-333.68
 30
0.0
 10
235.3699
 20
-333.68
 30
0.0
 10
235.3699
 20
-336.22
 30
0.0
 10
235.3699
 20
-336.22
 30
0.0
 10
235.3699
 20
-336.22
 30
0.0
 10
235.3699
 20
-336.22
 30
0.0
 10
232.6299
 20
-336.22
 30
0.0
 10
232.6299
 20
-336.22
 30
0.0
 10
232.6299
 20
-336.22
 30
0.0
 10
232.6299
 20
-336.22
 30
0.0
 10
232.6299
 20
-331.04
 30
0.0
 10
232.6299
 20
-331.04
 30
0.0
 10
232.6299
 20
-331.04
 30
0.0
 10
232.6299
 20
-331.04
 30
0.0
 10
218.7299
 20
-331.04
 30
0.0
 10
218.7299
 20
-331.04
 30
0.0
 10
218.7299
 20
-331.04
 30
0.0
 10
218.7299
 20
-331.04
 30
0.0
 10
218.7302
 20
-330.04
 30
0.0
 10
218.7302
 20
-330.04
 30
0.0
 10
218.7302
 20
-330.04
 30
0.0
 10
218.7302
 20
-330.04
 30
0.0
 10
208.9998
 20
-330.04
 30
0.0
 10
208.9998
 20
-330.04
 30
0.0
 10
208.9998
 20
-330.04
 30
0.0
 10
208.9998
 20
-330.04
 30
0.0
 10
206.25
 20
-330.04
 30
0.0
 10
206.25
 20
-330.04
 30
0.0
 10
206.25
 20
-330.04
 30
0.0
 10
205.4217
 20
-330.04
 30
0.0
 10
204.75
 20
-329.3683
 30
0.0
 10
204.75
 20
-328.5401
 30
0.0
 10
204.75
 20
-328.5401
 30
0.0
 10
204.75
 20
-328.5401
 30
0.0
 10
204.7501
 20
-325.9201
 30
0.0
 10
204.7501
 20
-325.9201
 30
0.0
 10
204.7501
 20
-325.9201
 30
0.0
 10
204.7501
 20
-325.0917
 30
0.0
 10
205.4218
 20
-324.42
 30
0.0
 10
206.2501
 20
-324.42
 30
0.0
 10
206.2501
 20
-324.42
 30
0.0
 10
206.2501
 20
-324.42
 30
0.0
 10
208.9998
 20
-324.42
 30
0.0
 10
208.9998
 20
-324.42
 30
0.0
 10
208.9998
 20
-324.42
 30
0.0
 10
208.9998
 20
-324.42
 30
0.0
 10
218.7302
 20
-324.42
 30
0.0
 10
218.7302
 20
-324.42
 30
0.0
 10
218.7302
 20
-324.42
 30
0.0
 10
218.7302
 20
-324.42
 30
0.0
 10
218.7299
 20
-323.42
 30
0.0
 10
218.7299
 20
-323.42
 30
0.0
 10
218.7299
 20
-323.42
 30
0.0
 10
218.7299
 20
-323.42
 30
0.0
 10
232.6299
 20
-323.42
 30
0.0
 10
232.6299
 20
-323.42
 30
0.0
 10
232.6299
 20
-323.42
 30
0.0
 10
232.6299
 20
-323.42
 30
0.0
 10
232.6299
 20
-320.78
 30
0.0
 10
232.6299
 20
-320.78
 30
0.0
 10
232.6299
 20
-320.78
 30
0.0
 10
232.6299
 20
-320.78
 30
0.0
 10
235.3699
 20
-320.78
 30
0.0
 10
235.3699
 20
-320.78
 30
0.0
 10
235.3699
 20
-320.78
 30
0.0
 10
235.3699
 20
-320.78
 30
0.0
 10
235.3699
 20
-323.32
 30
0.0
 10
235.3699
 20
-323.32
 30
0.0
 10
235.3699
 20
-323.32
 30
0.0
 10
235.3699
 20
-323.32
 30
0.0
 10
241.5
 20
-323.32
 30
0.0
 10
241.5
 20
-323.32
 30
0.0
 10
241.5
 20
-323.32
 30
0.0
 10
241.5
 20
-323.32
 30
0.0
 10
241.5003
 20
-307.0007
 30
0.0
 10
241.5003
 20
-307.0007
 30
0.0
 10
241.5003
 20
-307.0007
 30
0.0
 10
241.5003
 20
-304.2293
 30
0.0
 10
239.2707
 20
-301.9997
 30
0.0
 10
236.4993
 20
-301.9997
 30
0.0
 10
236.4993
 20
-301.9997
 30
0.0
 10
236.4993
 20
-301.9997
 30
0.0
 10
193.5006
 20
-301.9997
 30
0.0
 10
193.5006
 20
-301.9997
 30
0.0
 10
193.5006
 20
-301.9997
 30
0.0
 10
190.7306
 20
-301.9997
 30
0.0
 10
188.4997
 20
-304.2293
 30
0.0
 10
188.4997
 20
-307.0007
 30
0.0
 10
188.4997
 20
-307.0007
 30
0.0
 10
188.4997
 20
-307.0007
 30
0.0
 10
188.4997
 20
-324.6555
 30
0.0
 10
188.4997
 20
-324.6555
 30
0.0
 10
188.4997
 20
-324.6555
 30
0.0
 10
188.4997
 20
-324.6555
 30
0.0
 10
188.4999
 20
-347.9983
 30
0.0
 10
188.4999
 20
-347.9983
 30
0.0
 10
188.4999
 20
-347.9983
 30
0.0
 10
188.4999
 20
-347.9983
 30
0.0
 10
188.4997
 20
-349.9994
 30
0.0
 10
188.4997
 20
-349.9994
 30
0.0
 10
188.4997
 20
-349.9994
 30
0.0
 10
188.4997
 20
-352.7694
 30
0.0
 10
190.7306
 20
-355.0003
 30
0.0
 10
193.5006
 20
-355.0003
 30
0.0
 10
193.5006
 20
-355.0003
 30
0.0
 10
193.5006
 20
-355.0003
 30
0.0
 10
236.4993
 20
-355.0003
 30
0.0
 10
236.4993
 20
-355.0003
 30
0.0
 10
236.4993
 20
-355.0003
 30
0.0
 10
239.2707
 20
-355.0003
 30
0.0
 10
241.5003
 20
-352.7694
 30
0.0
 10
241.5003
 20
-349.9994
 30
0.0
 10
241.5003
 20
-349.9994
 30
0.0
 10
241.5003
 20
-349.9994
 30
0.0
 10
241.5
 20
-341.19
 30
0.0
 10
241.5
 20
-341.19
 30
0.0
  0
SPLINE
  5
67
330
1F
100
AcDbEntity
  8
LAYER_1
100
AcDbSpline
210
0.0
220
0.0
230
1.0
 70
    11
 71
     3
 72
    20
 73
    16
 74
     0
 42
0.0000000001
 43
0.0000000001
 40
0.0
 40
0.0
 40
0.0
 40
0.0
 40
0.25
 40
0.25
 40
0.25
 40
0.25
 40
0.5
 40
0.5
 40
0.5
 40
0.5
 40
0.75
 40
0.75
 40
0.75
 40
0.75
 40
1.0
 40
1.0
 40
1.0
 40
1.0
 10
-38.2
 20
-310.1
 30
0.0
 10
-38.2
 20
-310.1
 30
0.0
 10
-38.2
 20
-306.9
 30
0.0
 10
-38.2
 20
-306.9
 30
0.0
 10
-38.2
 20
-306.9
 30
0.0
 10
-38.2
 20
-306.9
 30
0.0
 10
-31.8
 20
-306.9
 30
0.0
 10
-31.8
 20
-306.9
 30
0.0
 10
-31.8
 20
-306.9
 30
0.0
 10
-31.8
 20
-306.9
 30
0.0
 10
-31.8
 20
-310.1
 30
0.0
 10
-31.8
 20
-310.1
 30
0.0
 10
-31.8
 20
-310.1
 30
0.0
 10
-31.8
 20
-310.1
 30
0.0
 10
-38.2
 20
-310.1
 30
0.0
 10
-38.2
 20
-310.1
 30
0.0
  0
SPLINE
  5
68
330
1F
100
AcDbEntity
  8
LAYER_1
100
AcDbSpline
210
0.0
220
0.0
230
1.0
 70
    11
 71
     3
 72
    20
 73
    16
 74
     0
 42
0.0000000001
 43
0.0000000001
 40
0.0
 40
0.0
 40
0.0
 40
0.0
 40
0.25
 40
0.25
 40
0.25
 40
0.25
 40
0.5
 40
0.5
 40
0.5
 40
0.5
 40
0.75
 40
0.75
 40
0.75
 40
0.75
 40
1.0
 40
1.0
 40
1.0
 40
1.0
 10
-18.2
 20
-310.1
 30
0.0
 10
-18.2
 20
-310.1
 30
0.0
 10
-18.2
 20
-306.9
 30
0.0
 10
-18.2
 20
-306.9
 30
0.0
 10
-18.2
 20
-306.9
 30
0.0
 10
-18.2
 20
-306.9
 30
0.0
 10
-11.8
 20
-306.9
 30
0.0
 10
-11.8
 20
-306.9
 30
0.0
 10
-11.8
 20
-306.9
 30
0.0
 10
-11.8
 20
-306.9
 30
0.0
 10
-11.8
 20
-310.1
 30
0.0
 10
-11.8
 20
-310.1
 30
0.0
 10
-11.8
 20
-310.1
 30
0.0
 10
-11.8
 20
-310.1
 30
0.0
 10
-18.2
 20
-310.1
 30
0.0
 10
-18.2
 20
-310.1
 30
0.0
  0
SPLINE
  5
69
330
1F
100
AcDbEntity
  8
LAYER_1
100
AcDbSpline
210
0.0
220
0.0
230
1.0
 70
    11
 71
     3
 72
    20
 73
    16
 74
     0
 42
0.0000000001
 43
0.0000000001
 40
0.0
 40
0.0
 40
0.0
 40
0.0
 40
0.25
 40
0.25
 40
0.25
 40
0.25
 40
0.5
 40
0.5
 40
0.5
 40
0.5
 40
0.75
 40
0.75
 40
0.75
 40
0.75
 40
1.0
 40
1.0
 40
1.0
 40
1.0
 10
-38.2
 20
-350.1
 30
0.0
 10
-38.2
 20
-350.1
 30
0.0
 10
-38.2
 20
-346.9
 30
0.0
 10
-38.2
 20
-346.9
 30
0.0
 10
-38.2
 20
-346.9
 30
0.0
 10
-38.2
 20
-346.9
 30
0.0
 10
-31.8
 20
-346.9
 30
0.0
 10
-31.8
 20
-346.9
 30
0.0
 10
-31.8
 20
-346.9
 30
0.0
 10
-31.8
 20
-346.9
 30
0.0
 10
-31.8
 20
-350.1
 30
0.0
 10
-31.8
 20
-350.1
 30
0.0
 10
-31.8
 20
-350.1
 30
0.0
 10
-31.8
 20
-350.1
 30
0.0
 10
-38.2
 20
-350.1
 30
0.0
 10
-38.2
 20
-350.1
 30
0.0
  0
SPLINE
  5
6A
330
1F
100
AcDbEntity
  8
LAYER_1
100
AcDbSpline
210
0.0
220
0.0
230
1.0
 70
    11
 71
     3
 72
    20
 73
    16
 74
     0
 42
0.0000000001
 43
0.0000000001
 40
0.0
 40
0.0
 40
0.0
 40
0.0
 40
0.25
 40
0.25
 40
0.25
 40
0.25
 40
0.5
 40
0.5
 40
0.5
 40
0.5
 40
0.75
 40
0.75
 40
0.75
 40
0.75
 40
1.0
 40
1.0
 40
1.0
 40
1.0
 10
-18.2
 20
-350.1
 30
0.0
 10
-18.2
 20
-350.1
 30
0.0
 10
-18.2
 20
-346.9
 30
0.0
 10
-18.2
 20
-346.9
 30
0.0
 10
-18.2
 20
-346.9
 30
0.0
 10
-18.2
 20
-346.9
 30
0.0
 10
-11.8
 20
-346.9
 30
0.0
 10
-11.8
 20
-346.9
 30
0.0
 10
-11.8
 20
-346.9
 30
0.0
 10
-11.8
 20
-346.9
 30
0.0
 10
-11.8
 20
-350.1
 30
0.0
 10
-11.8
 20
-350.1
 30
0.0
 10
-11.8
 20
-350.1
 30
0.0
 10
-11.8
 20
-350.1
 30
0.0
 10
-18.2
 20
-350.1
 30
0.0
 10
-18.2
 20
-350.1
 30
0.0
  0
SPLINE
  5
6B
330
1F
100
AcDbEntity
  8
LAYER_1
100
AcDbSpline
210
0.0
220
0.0
230
1.0
 70
    11
 71
     3
 72
    84
 73
    80
 74
     0
 42
0.0000000001
 43
0.0000000001
 40
0.0
 40
0.0
 40
0.0
 40
0.0
 40
0.05
 40
0.05
 40
0.05
 40
0.05
 40
0.1
 40
0.1
 40
0.1
 40
0.1
 40
0.15
 40
0.15
 40
0.15
 40
0.15
 40
0.2
 40
0.2
 40
0.2
 40
0.2
 40
0.25
 40
0.25
 40
0.25
 40
0.25
 40
0.3
 40
0.3
 40
0.3
 40
0.3
 40
0.35
 40
0.35
 40
0.35
 40
0.35
 40
0.4
 40
0.4
 40
0.4
 40
0.4
 40
0.45
 40
0.45
 40
0.45
 40
0.45
 40
0.4999999999999999
 40
0.4999999999999999
 40
0.4999999999999999
 40
0.4999999999999999
 40
0.5499999999999999
 40
0.5499999999999999
 40
0.5499999999999999
 40
0.5499999999999999
 40
0.6
 40
0.6
 40
0.6
 40
0.6
 40
0.65
 40
0.65
 40
0.65
 40
0.65
 40
0.7000000000000001
 40
0.7000000000000001
 40
0.7000000000000001
 40
0.7000000000000001
 40
0.7500000000000001
 40
0.7500000000000001
 40
0.7500000000000001
 40
0.7500000000000001
 40
0.8000000000000002
 40
0.8000000000000002
 40
0.8000000000000002
 40
0.8000000000000002
 40
0.8500000000000002
 40
0.8500000000000002
 40
0.8500000000000002
 40
0.8500000000000002
 40
0.9000000000000002
 40
0.9000000000000002
 40
0.9000000000000002
 40
0.9000000000000002
 40
0.9500000000000003
 40
0.9500000000000003
 40
0.9500000000000003
 40
0.9500000000000003
 40
1.0
 40
1.0
 40
1.0
 40
1.0
 10
-26.5493
 20
-311.6
 30
0.0
 10
-26.5493
 20
-311.6
 30
0.0
 10
-26.5493
 20
-311.1855
 30
0.0
 10
-26.5493
 20
-311.1855
 30
0.0
 10
-26.5493
 20
-311.1855
 30
0.0
 10
-27.0206
 20
-310.9135
 30
0.0
 10
-27.4124
 20
-310.5206
 30
0.0
 10
-27.6844
 20
-310.0507
 30
0.0
 10
-27.6844
 20
-310.0507
 30
0.0
 10
-27.6844
 20
-310.0507
 30
0.0
 10
-28.1
 20
-310.0507
 30
0.0
 10
-28.1
 20
-310.0507
 30
0.0
 10
-28.1
 20
-310.0507
 30
0.0
 10
-28.1
 20
-310.0507
 30
0.0
 10
-28.1
 20
-308.5
 30
0.0
 10
-28.1
 20
-308.5
 30
0.0
 10
-28.1
 20
-308.5
 30
0.0
 10
-28.1
 20
-308.5
 30
0.0
 10
-28.1
 20
-306.9508
 30
0.0
 10
-28.1
 20
-306.9508
 30
0.0
 10
-28.1
 20
-306.9508
 30
0.0
 10
-28.1
 20
-306.9508
 30
0.0
 10
-27.6844
 20
-306.9508
 30
0.0
 10
-27.6844
 20
-306.9508
 30
0.0
 10
-27.6844
 20
-306.9508
 30
0.0
 10
-27.4124
 20
-306.4794
 30
0.0
 10
-27.0206
 20
-306.0879
 30
0.0
 10
-26.5493
 20
-305.816
 30
0.0
 10
-26.5493
 20
-305.816
 30
0.0
 10
-26.5493
 20
-305.816
 30
0.0
 10
-26.5493
 20
-305.4001
 30
0.0
 10
-26.5493
 20
-305.4001
 30
0.0
 10
-26.5493
 20
-305.4001
 30
0.0
 10
-26.5493
 20
-305.4001
 30
0.0
 10
-25.0
 20
-305.4001
 30
0.0
 10
-25.0
 20
-305.4001
 30
0.0
 10
-25.0
 20
-305.4001
 30
0.0
 10
-25.0
 20
-305.4001
 30
0.0
 10
-23.4492
 20
-305.4001
 30
0.0
 10
-23.4492
 20
-305.4001
 30
0.0
 10
-23.4492
 20
-305.4001
 30
0.0
 10
-23.4492
 20
-305.4001
 30
0.0
 10
-23.4492
 20
-305.816
 30
0.0
 10
-23.4492
 20
-305.816
 30
0.0
 10
-23.4492
 20
-305.816
 30
0.0
 10
-22.9794
 20
-306.0879
 30
0.0
 10
-22.5864
 20
-306.4794
 30
0.0
 10
-22.3144
 20
-306.9508
 30
0.0
 10
-22.3144
 20
-306.9508
 30
0.0
 10
-22.3144
 20
-306.9508
 30
0.0
 10
-21.9
 20
-306.9508
 30
0.0
 10
-21.9
 20
-306.9508
 30
0.0
 10
-21.9
 20
-306.9508
 30
0.0
 10
-21.9
 20
-306.9508
 30
0.0
 10
-21.9
 20
-308.5
 30
0.0
 10
-21.9
 20
-308.5
 30
0.0
 10
-21.9
 20
-308.5
 30
0.0
 10
-21.9
 20
-308.5
 30
0.0
 10
-21.9
 20
-310.0507
 30
0.0
 10
-21.9
 20
-310.0507
 30
0.0
 10
-21.9
 20
-310.0507
 30
0.0
 10
-21.9
 20
-310.0507
 30
0.0
 10
-22.3144
 20
-310.0507
 30
0.0
 10
-22.3144
 20
-310.0507
 30
0.0
 10
-22.3144
 20
-310.0507
 30
0.0
 10
-22.5864
 20
-310.5206
 30
0.0
 10
-22.9794
 20
-310.9135
 30
0.0
 10
-23.4492
 20
-311.1855
 30
0.0
 10
-23.4492
 20
-311.1855
 30
0.0
 10
-23.4492
 20
-311.1855
 30
0.0
 10
-23.4492
 20
-311.6
 30
0.0
 10
-23.4492
 20
-311.6
 30
0.0
 10
-23.4492
 20
-311.6
 30
0.0
 10
-23.4492
 20
-311.6
 30
0.0
 10
-25.0
 20
-311.6
 30
0.0
 10
-25.0
 20
-311.6
 30
0.0
 10
-25.0
 20
-311.6
 30
0.0
 10
-25.0
 20
-311.6
 30
0.0
 10
-26.5493
 20
-311.6
 30
0.0
 10
-26.5493
 20
-311.6
 30
0.0
  0
SPLINE
  5
6C
330
1F
100
AcDbEntity
  8
LAYER_1
100
AcDbSpline
210
0.0
220
0.0
230
1.0
 70
    11
 71
     3
 72
    84
 73
    80
 74
     0
 42
0.0000000001
 43
0.0000000001
 40
0.0
 40
0.0
 40
0.0
 40
0.0
 40
0.05
 40
0.05
 40
0.05
 40
0.05
 40
0.1
 40
0.1
 40
0.1
 40
0.1
 40
0.15
 40
0.15
 40
0.15
 40
0.15
 40
0.2
 40
0.2
 40
0.2
 40
0.2
 40
0.25
 40
0.25
 40
0.25
 40
0.25
 40
0.3
 40
0.3
 40
0.3
 40
0.3
 40
0.35
 40
0.35
 40
0.35
 40
0.35
 40
0.4
 40
0.4
 40
0.4
 40
0.4
 40
0.45
 40
0.45
 40
0.45
 40
0.45
 40
0.4999999999999999
 40
0.4999999999999999
 40
0.4999999999999999
 40
0.4999999999999999
 40
0.5499999999999999
 40
0.5499999999999999
 40
0.5499999999999999
 40
0.5499999999999999
 40
0.6
 40
0.6
 40
0.6
 40
0.6
 40
0.65
 40
0.65
 40
0.65
 40
0.65
 40
0.7000000000000001
 40
0.7000000000000001
 40
0.7000000000000001
 40
0.7000000000000001
 40
0.7500000000000001
 40
0.7500000000000001
 40
0.7500000000000001
 40
0.7500000000000001
 40
0.8000000000000002
 40
0.8000000000000002
 40
0.8000000000000002
 40
0.8000000000000002
 40
0.8500000000000002
 40
0.8500000000000002
 40
0.8500000000000002
 40
0.8500000000000002
 40
0.9000000000000002
 40
0.9000000000000002
 40
0.9000000000000002
 40
0.9000000000000002
 40
0.9500000000000003
 40
0.9500000000000003
 40
0.9500000000000003
 40
0.9500000000000003
 40
1.0
 40
1.0
 40
1.0
 40
1.0
 10
-26.5493
 20
-351.6
 30
0.0
 10
-26.5493
 20
-351.6
 30
0.0
 10
-26.5493
 20
-351.1855
 30
0.0
 10
-26.5493
 20
-351.1855
 30
0.0
 10
-26.5493
 20
-351.1855
 30
0.0
 10
-27.0206
 20
-350.9135
 30
0.0
 10
-27.4124
 20
-350.5206
 30
0.0
 10
-27.6844
 20
-350.0507
 30
0.0
 10
-27.6844
 20
-350.0507
 30
0.0
 10
-27.6844
 20
-350.0507
 30
0.0
 10
-28.1
 20
-350.0507
 30
0.0
 10
-28.1
 20
-350.0507
 30
0.0
 10
-28.1
 20
-350.0507
 30
0.0
 10
-28.1
 20
-350.0507
 30
0.0
 10
-28.1
 20
-348.5
 30
0.0
 10
-28.1
 20
-348.5
 30
0.0
 10
-28.1
 20
-348.5
 30
0.0
 10
-28.1
 20
-348.5
 30
0.0
 10
-28.1
 20
-346.9508
 30
0.0
 10
-28.1
 20
-346.9508
 30
0.0
 10
-28.1
 20
-346.9508
 30
0.0
 10
-28.1
 20
-346.9508
 30
0.0
 10
-27.6844
 20
-346.9508
 30
0.0
 10
-27.6844
 20
-346.9508
 30
0.0
 10
-27.6844
 20
-346.9508
 30
0.0
 10
-27.4124
 20
-346.4794
 30
0.0
 10
-27.0206
 20
-346.0879
 30
0.0
 10
-26.5493
 20
-345.816
 30
0.0
 10
-26.5493
 20
-345.816
 30
0.0
 10
-26.5493
 20
-345.816
 30
0.0
 10
-26.5493
 20
-345.4001
 30
0.0
 10
-26.5493
 20
-345.4001
 30
0.0
 10
-26.5493
 20
-345.4001
 30
0.0
 10
-26.5493
 20
-345.4001
 30
0.0
 10
-25.0
 20
-345.4001
 30
0.0
 10
-25.0
 20
-345.4001
 30
0.0
 10
-25.0
 20
-345.4001
 30
0.0
 10
-25.0
 20
-345.4001
 30
0.0
 10
-23.4492
 20
-345.4001
 30
0.0
 10
-23.4492
 20
-345.4001
 30
0.0
 10
-23.4492
 20
-345.4001
 30
0.0
 10
-23.4492
 20
-345.4001
 30
0.0
 10
-23.4492
 20
-345.816
 30
0.0
 10
-23.4492
 20
-345.816
 30
0.0
 10
-23.4492
 20
-345.816
 30
0.0
 10
-22.9794
 20
-346.0879
 30
0.0
 10
-22.5864
 20
-346.4794
 30
0.0
 10
-22.3144
 20
-346.9508
 30
0.0
 10
-22.3144
 20
-346.9508
 30
0.0
 10
-22.3144
 20
-346.9508
 30
0.0
 10
-21.9
 20
-346.9508
 30
0.0
 10
-21.9
 20
-346.9508
 30
0.0
 10
-21.9
 20
-346.9508
 30
0.0
 10
-21.9
 20
-346.9508
 30
0.0
 10
-21.9
 20
-348.5
 30
0.0
 10
-21.9
 20
-348.5
 30
0.0
 10
-21.9
 20
-348.5
 30
0.0
 10
-21.9
 20
-348.5
 30
0.0
 10
-21.9
 20
-350.0507
 30
0.0
 10
-21.9
 20
-350.0507
 30
0.0
 10
-21.9
 20
-350.0507
 30
0.0
 10
-21.9
 20
-350.0507
 30
0.0
 10
-22.3144
 20
-350.0507
 30
0.0
 10
-22.3144
 20
-350.0507
 30
0.0
 10
-22.3144
 20
-350.0507
 30
0.0
 10
-22.5864
 20
-350.5206
 30
0.0
 10
-22.9794
 20
-350.9135
 30
0.0
 10
-23.4492
 20
-351.1855
 30
0.0
 10
-23.4492
 20
-351.1855
 30
0.0
 10
-23.4492
 20
-351.1855
 30
0.0
 10
-23.4492
 20
-351.6
 30
0.0
 10
-23.4492
 20
-351.6
 30
0.0
 10
-23.4492
 20
-351.6
 30
0.0
 10
-23.4492
 20
-351.6
 30
0.0
 10
-25.0
 20
-351.6
 30
0.0
 10
-25.0
 20
-351.6
 30
0.0
 10
-25.0
 20
-351.6
 30
0.0
 10
-25.0
 20
-351.6
 30
0.0
 10
-26.5493
 20
-351.6
 30
0.0
 10
-26.5493
 20
-351.6
 30
0.0
  0
SPLINE
  5
6D
330
1F
100
AcDbEntity
  8
LAYER_1
100
AcDbSpline
210
0.0
220
0.0
230
1.0
 70
    11
 71
     3
 72
    44
 73
    40
 74
     0
 42
0.0000000001
 43
0.0000000001
 40
0.0
 40
0.0
 40
0.0
 40
0.0
 40
0.1
 40
0.1
 40
0.1
 40
0.1
 40
0.2
 40
0.2
 40
0.2
 40
0.2
 40
0.3
 40
0.3
 40
0.3
 40
0.3
 40
0.4
 40
0.4
 40
0.4
 40
0.4
 40
0.5
 40
0.5
 40
0.5
 40
0.5
 40
0.6
 40
0.6
 40
0.6
 40
0.6
 40
0.7
 40
0.7
 40
0.7
 40
0.7
 40
0.7999999999999999
 40
0.7999999999999999
 40
0.7999999999999999
 40
0.7999999999999999
 40
0.8999999999999999
 40
0.8999999999999999
 40
0.8999999999999999
 40
0.8999999999999999
 40
1.0
 40
1.0
 40
1.0
 40
1.0
 10
28.4999
 20
-347.9983
 30
0.0
 10
28.4999
 20
-347.9983
 30
0.0
 10
28.4997
 20
-349.9994
 30
0.0
 10
28.4997
 20
-349.9994
 30
0.0
 10
28.4997
 20
-349.9994
 30
0.0
 10
28.4997
 20
-352.7694
 30
0.0
 10
30.7306
 20
-355.0003
 30
0.0
 10
33.5006
 20
-355.0003
 30
0.0
 10
33.5006
 20
-355.0003
 30
0.0
 10
33.5006
 20
-355.0003
 30
0.0
 10
76.4993
 20
-355.0003
 30
0.0
 10
76.4993
 20
-355.0003
 30
0.0
 10
76.4993
 20
-355.0003
 30
0.0
 10
79.2707
 20
-355.0003
 30
0.0
 10
81.5003
 20
-352.7694
 30
0.0
 10
81.5003
 20
-349.9994
 30
0.0
 10
81.5003
 20
-349.9994
 30
0.0
 10
81.5003
 20
-349.9994
 30
0.0
 10
81.5003
 20
-307.0007
 30
0.0
 10
81.5003
 20
-307.0007
 30
0.0
 10
81.5003
 20
-307.0007
 30
0.0
 10
81.5003
 20
-304.2293
 30
0.0
 10
79.2707
 20
-301.9997
 30
0.0
 10
76.4993
 20
-301.9997
 30
0.0
 10
76.4993
 20
-301.9997
 30
0.0
 10
76.4993
 20
-301.9997
 30
0.0
 10
33.5006
 20
-301.9997
 30
0.0
 10
33.5006
 20
-301.9997
 30
0.0
 10
33.5006
 20
-301.9997
 30
0.0
 10
30.7306
 20
-301.9997
 30
0.0
 10
28.4997
 20
-304.2293
 30
0.0
 10
28.4997
 20
-307.0007
 30
0.0
 10
28.4997
 20
-307.0007
 30
0.0
 10
28.4997
 20
-307.0007
 30
0.0
 10
28.4997
 20
-324.6555
 30
0.0
 10
28.4997
 20
-324.6555
 30
0.0
 10
28.4997
 20
-324.6555
 30
0.0
 10
28.4997
 20
-324.6555
 30
0.0
 10
28.4999
 20
-347.9983
 30
0.0
 10
28.4999
 20
-347.9983
 30
0.0
  0
SPLINE
  5
6E
330
1F
100
AcDbEntity
  8
LAYER_1
100
AcDbSpline
210
0.0
220
0.0
230
1.0
 70
    11
 71
     3
 72
    84
 73
    80
 74
     0
 42
0.0000000001
 43
0.0000000001
 40
0.0
 40
0.0
 40
0.0
 40
0.0
 40
0.05
 40
0.05
 40
0.05
 40
0.05
 40
0.1
 40
0.1
 40
0.1
 40
0.1
 40
0.15
 40
0.15
 40
0.15
 40
0.15
 40
0.2
 40
0.2
 40
0.2
 40
0.2
 40
0.25
 40
0.25
 40
0.25
 40
0.25
 40
0.3
 40
0.3
 40
0.3
 40
0.3
 40
0.35
 40
0.35
 40
0.35
 40
0.35
 40
0.4
 40
0.4
 40
0.4
 40
0.4
 40
0.45
 40
0.45
 40
0.45
 40
0.45
 40
0.4999999999999999
 40
0.4999999999999999
 40
0.4999999999999999
 40
0.4999999999999999
 40
0.5499999999999999
 40
0.5499999999999999
 40
0.5499999999999999
 40
0.5499999999999999
 40
0.6
 40
0.6
 40
0.6
 40
0.6
 40
0.65
 40
0.65
 40
0.65
 40
0.65
 40
0.7000000000000001
 40
0.7000000000000001
 40
0.7000000000000001
 40
0.7000000000000001
 40
0.7500000000000001
 40
0.7500000000000001
 40
0.7500000000000001
 40
0.7500000000000001
 40
0.8000000000000002
 40
0.8000000000000002
 40
0.8000000000000002
 40
0.8000000000000002
 40
0.8500000000000002
 40
0.8500000000000002
 40
0.8500000000000002
 40
0.8500000000000002
 40
0.9000000000000002
 40
0.9000000000000002
 40
0.9000000000000002
 40
0.9000000000000002
 40
0.9500000000000003
 40
0.9500000000000003
 40
0.9500000000000003
 40
0.9500000000000003
 40
1.0
 40
1.0
 40
1.0
 40
1.0
 10
73.4507
 20
-311.6
 30
0.0
 10
73.4507
 20
-311.6
 30
0.0
 10
73.4507
 20
-311.1855
 30
0.0
 10
73.4507
 20
-311.1855
 30
0.0
 10
73.4507
 20
-311.1855
 30
0.0
 10
72.9794
 20
-310.9135
 30
0.0
 10
72.5876
 20
-310.5206
 30
0.0
 10
72.3156
 20
-310.0507
 30
0.0
 10
72.3156
 20
-310.0507
 30
0.0
 10
72.3156
 20
-310.0507
 30
0.0
 10
71.9
 20
-310.0507
 30
0.0
 10
71.9
 20
-310.0507
 30
0.0
 10
71.9
 20
-310.0507
 30
0.0
 10
71.9
 20
-310.0507
 30
0.0
 10
71.9
 20
-308.5
 30
0.0
 10
71.9
 20
-308.5
 30
0.0
 10
71.9
 20
-308.5
 30
0.0
 10
71.9
 20
-308.5
 30
0.0
 10
71.9
 20
-306.9508
 30
0.0
 10
71.9
 20
-306.9508
 30
0.0
 10
71.9
 20
-306.9508
 30
0.0
 10
71.9
 20
-306.9508
 30
0.0
 10
72.3156
 20
-306.9508
 30
0.0
 10
72.3156
 20
-306.9508
 30
0.0
 10
72.3156
 20
-306.9508
 30
0.0
 10
72.5876
 20
-306.4794
 30
0.0
 10
72.9794
 20
-306.0879
 30
0.0
 10
73.4507
 20
-305.816
 30
0.0
 10
73.4507
 20
-305.816
 30
0.0
 10
73.4507
 20
-305.816
 30
0.0
 10
73.4507
 20
-305.4001
 30
0.0
 10
73.4507
 20
-305.4001
 30
0.0
 10
73.4507
 20
-305.4001
 30
0.0
 10
73.4507
 20
-305.4001
 30
0.0
 10
75.0
 20
-305.4001
 30
0.0
 10
75.0
 20
-305.4001
 30
0.0
 10
75.0
 20
-305.4001
 30
0.0
 10
75.0
 20
-305.4001
 30
0.0
 10
76.5508
 20
-305.4001
 30
0.0
 10
76.5508
 20
-305.4001
 30
0.0
 10
76.5508
 20
-305.4001
 30
0.0
 10
76.5508
 20
-305.4001
 30
0.0
 10
76.5508
 20
-305.816
 30
0.0
 10
76.5508
 20
-305.816
 30
0.0
 10
76.5508
 20
-305.816
 30
0.0
 10
77.0206
 20
-306.0879
 30
0.0
 10
77.4136
 20
-306.4794
 30
0.0
 10
77.6856
 20
-306.9508
 30
0.0
 10
77.6856
 20
-306.9508
 30
0.0
 10
77.6856
 20
-306.9508
 30
0.0
 10
78.1
 20
-306.9508
 30
0.0
 10
78.1
 20
-306.9508
 30
0.0
 10
78.1
 20
-306.9508
 30
0.0
 10
78.1
 20
-306.9508
 30
0.0
 10
78.1
 20
-308.5
 30
0.0
 10
78.1
 20
-308.5
 30
0.0
 10
78.1
 20
-308.5
 30
0.0
 10
78.1
 20
-308.5
 30
0.0
 10
78.1
 20
-310.0507
 30
0.0
 10
78.1
 20
-310.0507
 30
0.0
 10
78.1
 20
-310.0507
 30
0.0
 10
78.1
 20
-310.0507
 30
0.0
 10
77.6856
 20
-310.0507
 30
0.0
 10
77.6856
 20
-310.0507
 30
0.0
 10
77.6856
 20
-310.0507
 30
0.0
 10
77.4136
 20
-310.5206
 30
0.0
 10
77.0206
 20
-310.9135
 30
0.0
 10
76.5508
 20
-311.1855
 30
0.0
 10
76.5508
 20
-311.1855
 30
0.0
 10
76.5508
 20
-311.1855
 30
0.0
 10
76.5508
 20
-311.6
 30
0.0
 10
76.5508
 20
-311.6
 30
0.0
 10
76.5508
 20
-311.6
 30
0.0
 10
76.5508
 20
-311.6
 30
0.0
 10
75.0
 20
-311.6
 30
0.0
 10
75.0
 20
-311.6
 30
0.0
 10
75.0
 20
-311.6
 30
0.0
 10
75.0
 20
-311.6
 30
0.0
 10
73.4507
 20
-311.6
 30
0.0
 10
73.4507
 20
-311.6
 30
0.0
  0
SPLINE
  5
6F
330
1F
100
AcDbEntity
  8
LAYER_1
100
AcDbSpline
210
0.0
220
0.0
230
1.0
 70
    11
 71
     3
 72
    84
 73
    80
 74
     0
 42
0.0000000001
 43
0.0000000001
 40
0.0
 40
0.0
 40
0.0
 40
0.0
 40
0.05
 40
0.05
 40
0.05
 40
0.05
 40
0.1
 40
0.1
 40
0.1
 40
0.1
 40
0.15
 40
0.15
 40
0.15
 40
0.15
 40
0.2
 40
0.2
 40
0.2
 40
0.2
 40
0.25
 40
0.25
 40
0.25
 40
0.25
 40
0.3
 40
0.3
 40
0.3
 40
0.3
 40
0.35
 40
0.35
 40
0.35
 40
0.35
 40
0.4
 40
0.4
 40
0.4
 40
0.4
 40
0.45
 40
0.45
 40
0.45
 40
0.45
 40
0.4999999999999999
 40
0.4999999999999999
 40
0.4999999999999999
 40
0.4999999999999999
 40
0.5499999999999999
 40
0.5499999999999999
 40
0.5499999999999999
 40
0.5499999999999999
 40
0.6
 40
0.6
 40
0.6
 40
0.6
 40
0.65
 40
0.65
 40
0.65
 40
0.65
 40
0.7000000000000001
 40
0.7000000000000001
 40
0.7000000000000001
 40
0.7000000000000001
 40
0.7500000000000001
 40
0.7500000000000001
 40
0.7500000000000001
 40
0.7500000000000001
 40
0.8000000000000002
 40
0.8000000000000002
 40
0.8000000000000002
 40
0.8000000000000002
 40
0.8500000000000002
 40
0.8500000000000002
 40
0.8500000000000002
 40
0.8500000000000002
 40
0.9000000000000002
 40
0.9000000000000002
 40
0.9000000000000002
 40
0.9000000000000002
 40
0.9500000000000003
 40
0.9500000000000003
 40
0.9500000000000003
 40
0.9500000000000003
 40
1.0
 40
1.0
 40
1.0
 40
1.0
 10
33.4507
 20
-311.6
 30
0.0
 10
33.4507
 20
-311.6
 30
0.0
 10
33.4507
 20
-311.1855
 30
0.0
 10
33.4507
 20
-311.1855
 30
0.0
 10
33.4507
 20
-311.1855
 30
0.0
 10
32.9794
 20
-310.9135
 30
0.0
 10
32.5876
 20
-310.5206
 30
0.0
 10
32.3156
 20
-310.0507
 30
0.0
 10
32.3156
 20
-310.0507
 30
0.0
 10
32.3156
 20
-310.0507
 30
0.0
 10
31.9
 20
-310.0507
 30
0.0
 10
31.9
 20
-310.0507
 30
0.0
 10
31.9
 20
-310.0507
 30
0.0
 10
31.9
 20
-310.0507
 30
0.0
 10
31.9
 20
-308.5
 30
0.0
 10
31.9
 20
-308.5
 30
0.0
 10
31.9
 20
-308.5
 30
0.0
 10
31.9
 20
-308.5
 30
0.0
 10
31.9
 20
-306.9508
 30
0.0
 10
31.9
 20
-306.9508
 30
0.0
 10
31.9
 20
-306.9508
 30
0.0
 10
31.9
 20
-306.9508
 30
0.0
 10
32.3156
 20
-306.9508
 30
0.0
 10
32.3156
 20
-306.9508
 30
0.0
 10
32.3156
 20
-306.9508
 30
0.0
 10
32.5876
 20
-306.4794
 30
0.0
 10
32.9794
 20
-306.0879
 30
0.0
 10
33.4507
 20
-305.816
 30
0.0
 10
33.4507
 20
-305.816
 30
0.0
 10
33.4507
 20
-305.816
 30
0.0
 10
33.4507
 20
-305.4001
 30
0.0
 10
33.4507
 20
-305.4001
 30
0.0
 10
33.4507
 20
-305.4001
 30
0.0
 10
33.4507
 20
-305.4001
 30
0.0
 10
35.0
 20
-305.4001
 30
0.0
 10
35.0
 20
-305.4001
 30
0.0
 10
35.0
 20
-305.4001
 30
0.0
 10
35.0
 20
-305.4001
 30
0.0
 10
36.5508
 20
-305.4001
 30
0.0
 10
36.5508
 20
-305.4001
 30
0.0
 10
36.5508
 20
-305.4001
 30
0.0
 10
36.5508
 20
-305.4001
 30
0.0
 10
36.5508
 20
-305.816
 30
0.0
 10
36.5508
 20
-305.816
 30
0.0
 10
36.5508
 20
-305.816
 30
0.0
 10
37.0206
 20
-306.0879
 30
0.0
 10
37.4136
 20
-306.4794
 30
0.0
 10
37.6856
 20
-306.9508
 30
0.0
 10
37.6856
 20
-306.9508
 30
0.0
 10
37.6856
 20
-306.9508
 30
0.0
 10
38.1
 20
-306.9508
 30
0.0
 10
38.1
 20
-306.9508
 30
0.0
 10
38.1
 20
-306.9508
 30
0.0
 10
38.1
 20
-306.9508
 30
0.0
 10
38.1
 20
-308.5
 30
0.0
 10
38.1
 20
-308.5
 30
0.0
 10
38.1
 20
-308.5
 30
0.0
 10
38.1
 20
-308.5
 30
0.0
 10
38.1
 20
-310.0507
 30
0.0
 10
38.1
 20
-310.0507
 30
0.0
 10
38.1
 20
-310.0507
 30
0.0
 10
38.1
 20
-310.0507
 30
0.0
 10
37.6856
 20
-310.0507
 30
0.0
 10
37.6856
 20
-310.0507
 30
0.0
 10
37.6856
 20
-310.0507
 30
0.0
 10
37.4136
 20
-310.5206
 30
0.0
 10
37.0206
 20
-310.9135
 30
0.0
 10
36.5508
 20
-311.1855
 30
0.0
 10
36.5508
 20
-311.1855
 30
0.0
 10
36.5508
 20
-311.1855
 30
0.0
 10
36.5508
 20
-311.6
 30
0.0
 10
36.5508
 20
-311.6
 30
0.0
 10
36.5508
 20
-311.6
 30
0.0
 10
36.5508
 20
-311.6
 30
0.0
 10
35.0
 20
-311.6
 30
0.0
 10
35.0
 20
-311.6
 30
0.0
 10
35.0
 20
-311.6
 30
0.0
 10
35.0
 20
-311.6
 30
0.0
 10
33.4507
 20
-311.6
 30
0.0
 10
33.4507
 20
-311.6
 30
0.0
  0
SPLINE
  5
70
330
1F
100
AcDbEntity
  8
LAYER_1
100
AcDbSpline
210
0.0
220
0.0
230
1.0
 70
    11
 71
     3
 72
    84
 73
    80
 74
     0
 42
0.0000000001
 43
0.0000000001
 40
0.0
 40
0.0
 40
0.0
 40
0.0
 40
0.05
 40
0.05
 40
0.05
 40
0.05
 40
0.1
 40
0.1
 40
0.1
 40
0.1
 40
0.15
 40
0.15
 40
0.15
 40
0.15
 40
0.2
 40
0.2
 40
0.2
 40
0.2
 40
0.25
 40
0.25
 40
0.25
 40
0.25
 40
0.3
 40
0.3
 40
0.3
 40
0.3
 40
0.35
 40
0.35
 40
0.35
 40
0.35
 40
0.4
 40
0.4
 40
0.4
 40
0.4
 40
0.45
 40
0.45
 40
0.45
 40
0.45
 40
0.4999999999999999
 40
0.4999999999999999
 40
0.4999999999999999
 40
0.4999999999999999
 40
0.5499999999999999
 40
0.5499999999999999
 40
0.5499999999999999
 40
0.5499999999999999
 40
0.6
 40
0.6
 40
0.6
 40
0.6
 40
0.65
 40
0.65
 40
0.65
 40
0.65
 40
0.7000000000000001
 40
0.7000000000000001
 40
0.7000000000000001
 40
0.7000000000000001
 40
0.7500000000000001
 40
0.7500000000000001
 40
0.7500000000000001
 40
0.7500000000000001
 40
0.8000000000000002
 40
0.8000000000000002
 40
0.8000000000000002
 40
0.8000000000000002
 40
0.8500000000000002
 40
0.8500000000000002
 40
0.8500000000000002
 40
0.8500000000000002
 40
0.9000000000000002
 40
0.9000000000000002
 40
0.9000000000000002
 40
0.9000000000000002
 40
0.9500000000000003
 40
0.9500000000000003
 40
0.9500000000000003
 40
0.9500000000000003
 40
1.0
 40
1.0
 40
1.0
 40
1.0
 10
73.4507
 20
-351.6
 30
0.0
 10
73.4507
 20
-351.6
 30
0.0
 10
73.4507
 20
-351.1855
 30
0.0
 10
73.4507
 20
-351.1855
 30
0.0
 10
73.4507
 20
-351.1855
 30
0.0
 10
72.9794
 20
-350.9135
 30
0.0
 10
72.5876
 20
-350.5206
 30
0.0
 10
72.3156
 20
-350.0507
 30
0.0
 10
72.3156
 20
-350.0507
 30
0.0
 10
72.3156
 20
-350.0507
 30
0.0
 10
71.9
 20
-350.0507
 30
0.0
 10
71.9
 20
-350.0507
 30
0.0
 10
71.9
 20
-350.0507
 30
0.0
 10
71.9
 20
-350.0507
 30
0.0
 10
71.9
 20
-348.5
 30
0.0
 10
71.9
 20
-348.5
 30
0.0
 10
71.9
 20
-348.5
 30
0.0
 10
71.9
 20
-348.5
 30
0.0
 10
71.9
 20
-346.9508
 30
0.0
 10
71.9
 20
-346.9508
 30
0.0
 10
71.9
 20
-346.9508
 30
0.0
 10
71.9
 20
-346.9508
 30
0.0
 10
72.3156
 20
-346.9508
 30
0.0
 10
72.3156
 20
-346.9508
 30
0.0
 10
72.3156
 20
-346.9508
 30
0.0
 10
72.5876
 20
-346.4794
 30
0.0
 10
72.9794
 20
-346.0879
 30
0.0
 10
73.4507
 20
-345.816
 30
0.0
 10
73.4507
 20
-345.816
 30
0.0
 10
73.4507
 20
-345.816
 30
0.0
 10
73.4507
 20
-345.4001
 30
0.0
 10
73.4507
 20
-345.4001
 30
0.0
 10
73.4507
 20
-345.4001
 30
0.0
 10
73.4507
 20
-345.4001
 30
0.0
 10
75.0
 20
-345.4001
 30
0.0
 10
75.0
 20
-345.4001
 30
0.0
 10
75.0
 20
-345.4001
 30
0.0
 10
75.0
 20
-345.4001
 30
0.0
 10
76.5508
 20
-345.4001
 30
0.0
 10
76.5508
 20
-345.4001
 30
0.0
 10
76.5508
 20
-345.4001
 30
0.0
 10
76.5508
 20
-345.4001
 30
0.0
 10
76.5508
 20
-345.816
 30
0.0
 10
76.5508
 20
-345.816
 30
0.0
 10
76.5508
 20
-345.816
 30
0.0
 10
77.0206
 20
-346.0879
 30
0.0
 10
77.4136
 20
-346.4794
 30
0.0
 10
77.6856
 20
-346.9508
 30
0.0
 10
77.6856
 20
-346.9508
 30
0.0
 10
77.6856
 20
-346.9508
 30
0.0
 10
78.1
 20
-346.9508
 30
0.0
 10
78.1
 20
-346.9508
 30
0.0
 10
78.1
 20
-346.9508
 30
0.0
 10
78.1
 20
-346.9508
 30
0.0
 10
78.1
 20
-348.5
 30
0.0
 10
78.1
 20
-348.5
 30
0.0
 10
78.1
 20
-348.5
 30
0.0
 10
78.1
 20
-348.5
 30
0.0
 10
78.1
 20
-350.0507
 30
0.0
 10
78.1
 20
-350.0507
 30
0.0
 10
78.1
 20
-350.0507
 30
0.0
 10
78.1
 20
-350.0507
 30
0.0
 10
77.6856
 20
-350.0507
 30
0.0
 10
77.6856
 20
-350.0507
 30
0.0
 10
77.6856
 20
-350.0507
 30
0.0
 10
77.4136
 20
-350.5206
 30
0.0
 10
77.0206
 20
-350.9135
 30
0.0
 10
76.5508
 20
-351.1855
 30
0.0
 10
76.5508
 20
-351.1855
 30
0.0
 10
76.5508
 20
-351.1855
 30
0.0
 10
76.5508
 20
-351.6
 30
0.0
 10
76.5508
 20
-351.6
 30
0.0
 10
76.5508
 20
-351.6
 30
0.0
 10
76.5508
 20
-351.6
 30
0.0
 10
75.0
 20
-351.6
 30
0.0
 10
75.0
 20
-351.6
 30
0.0
 10
75.0
 20
-351.6
 30
0.0
 10
75.0
 20
-351.6
 30
0.0
 10
73.4507
 20
-351.6
 30
0.0
 10
73.4507
 20
-351.6
 30
0.0
  0
SPLINE
  5
71
330
1F
100
AcDbEntity
  8
LAYER_1
100
AcDbSpline
210
0.0
220
0.0
230
1.0
 70
    11
 71
     3
 72
    84
 73
    80
 74
     0
 42
0.0000000001
 43
0.0000000001
 40
0.0
 40
0.0
 40
0.0
 40
0.0
 40
0.05
 40
0.05
 40
0.05
 40
0.05
 40
0.1
 40
0.1
 40
0.1
 40
0.1
 40
0.15
 40
0.15
 40
0.15
 40
0.15
 40
0.2
 40
0.2
 40
0.2
 40
0.2
 40
0.25
 40
0.25
 40
0.25
 40
0.25
 40
0.3
 40
0.3
 40
0.3
 40
0.3
 40
0.35
 40
0.35
 40
0.35
 40
0.35
 40
0.4
 40
0.4
 40
0.4
 40
0.4
 40
0.45
 40
0.45
 40
0.45
 40
0.45
 40
0.4999999999999999
 40
0.4999999999999999
 40
0.4999999999999999
 40
0.4999999999999999
 40
0.5499999999999999
 40
0.5499999999999999
 40
0.5499999999999999
 40
0.5499999999999999
 40
0.6
 40
0.6
 40
0.6
 40
0.6
 40
0.65
 40
0.65
 40
0.65
 40
0.65
 40
0.7000000000000001
 40
0.7000000000000001
 40
0.7000000000000001
 40
0.7000000000000001
 40
0.7500000000000001
 40
0.7500000000000001
 40
0.7500000000000001
 40
0.7500000000000001
 40
0.8000000000000002
 40
0.8000000000000002
 40
0.8000000000000002
 40
0.8000000000000002
 40
0.8500000000000002
 40
0.8500000000000002
 40
0.8500000000000002
 40
0.8500000000000002
 40
0.9000000000000002
 40
0.9000000000000002
 40
0.9000000000000002
 40
0.9000000000000002
 40
0.9500000000000003
 40
0.9500000000000003
 40
0.9500000000000003
 40
0.9500000000000003
 40
1.0
 40
1.0
 40
1.0
 40
1.0
 10
33.4507
 20
-351.6
 30
0.0
 10
33.4507
 20
-351.6
 30
0.0
 10
33.4507
 20
-351.1855
 30
0.0
 10
33.4507
 20
-351.1855
 30
0.0
 10
33.4507
 20
-351.1855
 30
0.0
 10
32.9794
 20
-350.9135
 30
0.0
 10
32.5876
 20
-350.5206
 30
0.0
 10
32.3156
 20
-350.0507
 30
0.0
 10
32.3156
 20
-350.0507
 30
0.0
 10
32.3156
 20
-350.0507
 30
0.0
 10
31.9
 20
-350.0507
 30
0.0
 10
31.9
 20
-350.0507
 30
0.0
 10
31.9
 20
-350.0507
 30
0.0
 10
31.9
 20
-350.0507
 30
0.0
 10
31.9
 20
-348.5
 30
0.0
 10
31.9
 20
-348.5
 30
0.0
 10
31.9
 20
-348.5
 30
0.0
 10
31.9
 20
-348.5
 30
0.0
 10
31.9
 20
-346.9508
 30
0.0
 10
31.9
 20
-346.9508
 30
0.0
 10
31.9
 20
-346.9508
 30
0.0
 10
31.9
 20
-346.9508
 30
0.0
 10
32.3156
 20
-346.9508
 30
0.0
 10
32.3156
 20
-346.9508
 30
0.0
 10
32.3156
 20
-346.9508
 30
0.0
 10
32.5876
 20
-346.4794
 30
0.0
 10
32.9794
 20
-346.0879
 30
0.0
 10
33.4507
 20
-345.816
 30
0.0
 10
33.4507
 20
-345.816
 30
0.0
 10
33.4507
 20
-345.816
 30
0.0
 10
33.4507
 20
-345.4001
 30
0.0
 10
33.4507
 20
-345.4001
 30
0.0
 10
33.4507
 20
-345.4001
 30
0.0
 10
33.4507
 20
-345.4001
 30
0.0
 10
35.0
 20
-345.4001
 30
0.0
 10
35.0
 20
-345.4001
 30
0.0
 10
35.0
 20
-345.4001
 30
0.0
 10
35.0
 20
-345.4001
 30
0.0
 10
36.5508
 20
-345.4001
 30
0.0
 10
36.5508
 20
-345.4001
 30
0.0
 10
36.5508
 20
-345.4001
 30
0.0
 10
36.5508
 20
-345.4001
 30
0.0
 10
36.5508
 20
-345.816
 30
0.0
 10
36.5508
 20
-345.816
 30
0.0
 10
36.5508
 20
-345.816
 30
0.0
 10
37.0206
 20
-346.0879
 30
0.0
 10
37.4136
 20
-346.4794
 30
0.0
 10
37.6856
 20
-346.9508
 30
0.0
 10
37.6856
 20
-346.9508
 30
0.0
 10
37.6856
 20
-346.9508
 30
0.0
 10
38.1
 20
-346.9508
 30
0.0
 10
38.1
 20
-346.9508
 30
0.0
 10
38.1
 20
-346.9508
 30
0.0
 10
38.1
 20
-346.9508
 30
0.0
 10
38.1
 20
-348.5
 30
0.0
 10
38.1
 20
-348.5
 30
0.0
 10
38.1
 20
-348.5
 30
0.0
 10
38.1
 20
-348.5
 30
0.0
 10
38.1
 20
-350.0507
 30
0.0
 10
38.1
 20
-350.0507
 30
0.0
 10
38.1
 20
-350.0507
 30
0.0
 10
38.1
 20
-350.0507
 30
0.0
 10
37.6856
 20
-350.0507
 30
0.0
 10
37.6856
 20
-350.0507
 30
0.0
 10
37.6856
 20
-350.0507
 30
0.0
 10
37.4136
 20
-350.5206
 30
0.0
 10
37.0206
 20
-350.9135
 30
0.0
 10
36.5508
 20
-351.1855
 30
0.0
 10
36.5508
 20
-351.1855
 30
0.0
 10
36.5508
 20
-351.1855
 30
0.0
 10
36.5508
 20
-351.6
 30
0.0
 10
36.5508
 20
-351.6
 30
0.0
 10
36.5508
 20
-351.6
 30
0.0
 10
36.5508
 20
-351.6
 30
0.0
 10
35.0
 20
-351.6
 30
0.0
 10
35.0
 20
-351.6
 30
0.0
 10
35.0
 20
-351.6
 30
0.0
 10
35.0
 20
-351.6
 30
0.0
 10
33.4507
 20
-351.6
 30
0.0
 10
33.4507
 20
-351.6
 30
0.0
  0
SPLINE
  5
72
330
1F
100
AcDbEntity
  8
LAYER_1
100
AcDbSpline
210
0.0
220
0.0
230
1.0
 70
    11
 71
     3
 72
    20
 73
    16
 74
     0
 42
0.0000000001
 43
0.0000000001
 40
0.0
 40
0.0
 40
0.0
 40
0.0
 40
0.25
 40
0.25
 40
0.25
 40
0.25
 40
0.5
 40
0.5
 40
0.5
 40
0.5
 40
0.75
 40
0.75
 40
0.75
 40
0.75
 40
1.0
 40
1.0
 40
1.0
 40
1.0
 10
41.8
 20
-310.1
 30
0.0
 10
41.8
 20
-310.1
 30
0.0
 10
41.8
 20
-306.9
 30
0.0
 10
41.8
 20
-306.9
 30
0.0
 10
41.8
 20
-306.9
 30
0.0
 10
41.8
 20
-306.9
 30
0.0
 10
48.2
 20
-306.9
 30
0.0
 10
48.2
 20
-306.9
 30
0.0
 10
48.2
 20
-306.9
 30
0.0
 10
48.2
 20
-306.9
 30
0.0
 10
48.2
 20
-310.1
 30
0.0
 10
48.2
 20
-310.1
 30
0.0
 10
48.2
 20
-310.1
 30
0.0
 10
48.2
 20
-310.1
 30
0.0
 10
41.8
 20
-310.1
 30
0.0
 10
41.8
 20
-310.1
 30
0.0
  0
SPLINE
  5
73
330
1F
100
AcDbEntity
  8
LAYER_1
100
AcDbSpline
210
0.0
220
0.0
230
1.0
 70
    11
 71
     3
 72
    20
 73
    16
 74
     0
 42
0.0000000001
 43
0.0000000001
 40
0.0
 40
0.0
 40
0.0
 40
0.0
 40
0.25
 40
0.25
 40
0.25
 40
0.25
 40
0.5
 40
0.5
 40
0.5
 40
0.5
 40
0.75
 40
0.75
 40
0.75
 40
0.75
 40
1.0
 40
1.0
 40
1.0
 40
1.0
 10
61.8
 20
-310.1
 30
0.0
 10
61.8
 20
-310.1
 30
0.0
 10
61.8
 20
-306.9
 30
0.0
 10
61.8
 20
-306.9
 30
0.0
 10
61.8
 20
-306.9
 30
0.0
 10
61.8
 20
-306.9
 30
0.0
 10
68.2
 20
-306.9
 30
0.0
 10
68.2
 20
-306.9
 30
0.0
 10
68.2
 20
-306.9
 30
0.0
 10
68.2
 20
-306.9
 30
0.0
 10
68.2
 20
-310.1
 30
0.0
 10
68.2
 20
-310.1
 30
0.0
 10
68.2
 20
-310.1
 30
0.0
 10
68.2
 20
-310.1
 30
0.0
 10
61.8
 20
-310.1
 30
0.0
 10
61.8
 20
-310.1
 30
0.0
  0
SPLINE
  5
74
330
1F
100
AcDbEntity
  8
LAYER_1
100
AcDbSpline
210
0.0
220
0.0
230
1.0
 70
    11
 71
     3
 72
    20
 73
    16
 74
     0
 42
0.0000000001
 43
0.0000000001
 40
0.0
 40
0.0
 40
0.0
 40
0.0
 40
0.25
 40
0.25
 40
0.25
 40
0.25
 40
0.5
 40
0.5
 40
0.5
 40
0.5
 40
0.75
 40
0.75
 40
0.75
 40
0.75
 40
1.0
 40
1.0
 40
1.0
 40
1.0
 10
41.8
 20
-350.1
 30
0.0
 10
41.8
 20
-350.1
 30
0.0
 10
41.8
 20
-346.9
 30
0.0
 10
41.8
 20
-346.9
 30
0.0
 10
41.8
 20
-346.9
 30
0.0
 10
41.8
 20
-346.9
 30
0.0
 10
48.2
 20
-346.9
 30
0.0
 10
48.2
 20
-346.9
 30
0.0
 10
48.2
 20
-346.9
 30
0.0
 10
48.2
 20
-346.9
 30
0.0
 10
48.2
 20
-350.1
 30
0.0
 10
48.2
 20
-350.1
 30
0.0
 10
48.2
 20
-350.1
 30
0.0
 10
48.2
 20
-350.1
 30
0.0
 10
41.8
 20
-350.1
 30
0.0
 10
41.8
 20
-350.1
 30
0.0
  0
SPLINE
  5
75
330
1F
100
AcDbEntity
  8
LAYER_1
100
AcDbSpline
210
0.0
220
0.0
230
1.0
 70
    11
 71
     3
 72
    20
 73
    16
 74
     0
 42
0.0000000001
 43
0.0000000001
 40
0.0
 40
0.0
 40
0.0
 40
0.0
 40
0.25
 40
0.25
 40
0.25
 40
0.25
 40
0.5
 40
0.5
 40
0.5
 40
0.5
 40
0.75
 40
0.75
 40
0.75
 40
0.75
 40
1.0
 40
1.0
 40
1.0
 40
1.0
 10
61.8
 20
-350.1
 30
0.0
 10
61.8
 20
-350.1
 30
0.0
 10
61.8
 20
-346.9
 30
0.0
 10
61.8
 20
-346.9
 30
0.0
 10
61.8
 20
-346.9
 30
0.0
 10
61.8
 20
-346.9
 30
0.0
 10
68.2
 20
-346.9
 30
0.0
 10
68.2
 20
-346.9
 30
0.0
 10
68.2
 20
-346.9
 30
0.0
 10
68.2
 20
-346.9
 30
0.0
 10
68.2
 20
-350.1
 30
0.0
 10
68.2
 20
-350.1
 30
0.0
 10
68.2
 20
-350.1
 30
0.0
 10
68.2
 20
-350.1
 30
0.0
 10
61.8
 20
-350.1
 30
0.0
 10
61.8
 20
-350.1
 30
0.0
  0
SPLINE
  5
76
330
1F
100
AcDbEntity
  8
LAYER_1
100
AcDbSpline
210
0.0
220
0.0
230
1.0
 70
    11
 71
     3
 72
    84
 73
    80
 74
     0
 42
0.0000000001
 43
0.0000000001
 40
0.0
 40
0.0
 40
0.0
 40
0.0
 40
0.05
 40
0.05
 40
0.05
 40
0.05
 40
0.1
 40
0.1
 40
0.1
 40
0.1
 40
0.15
 40
0.15
 40
0.15
 40
0.15
 40
0.2
 40
0.2
 40
0.2
 40
0.2
 40
0.25
 40
0.25
 40
0.25
 40
0.25
 40
0.3
 40
0.3
 40
0.3
 40
0.3
 40
0.35
 40
0.35
 40
0.35
 40
0.35
 40
0.4
 40
0.4
 40
0.4
 40
0.4
 40
0.45
 40
0.45
 40
0.45
 40
0.45
 40
0.4999999999999999
 40
0.4999999999999999
 40
0.4999999999999999
 40
0.4999999999999999
 40
0.5499999999999999
 40
0.5499999999999999
 40
0.5499999999999999
 40
0.5499999999999999
 40
0.6
 40
0.6
 40
0.6
 40
0.6
 40
0.65
 40
0.65
 40
0.65
 40
0.65
 40
0.7000000000000001
 40
0.7000000000000001
 40
0.7000000000000001
 40
0.7000000000000001
 40
0.7500000000000001
 40
0.7500000000000001
 40
0.7500000000000001
 40
0.7500000000000001
 40
0.8000000000000002
 40
0.8000000000000002
 40
0.8000000000000002
 40
0.8000000000000002
 40
0.8500000000000002
 40
0.8500000000000002
 40
0.8500000000000002
 40
0.8500000000000002
 40
0.9000000000000002
 40
0.9000000000000002
 40
0.9000000000000002
 40
0.9000000000000002
 40
0.9500000000000003
 40
0.9500000000000003
 40
0.9500000000000003
 40
0.9500000000000003
 40
1.0
 40
1.0
 40
1.0
 40
1.0
 10
53.4507
 20
-311.6
 30
0.0
 10
53.4507
 20
-311.6
 30
0.0
 10
53.4507
 20
-311.1855
 30
0.0
 10
53.4507
 20
-311.1855
 30
0.0
 10
53.4507
 20
-311.1855
 30
0.0
 10
52.9794
 20
-310.9135
 30
0.0
 10
52.5876
 20
-310.5206
 30
0.0
 10
52.3156
 20
-310.0507
 30
0.0
 10
52.3156
 20
-310.0507
 30
0.0
 10
52.3156
 20
-310.0507
 30
0.0
 10
51.9
 20
-310.0507
 30
0.0
 10
51.9
 20
-310.0507
 30
0.0
 10
51.9
 20
-310.0507
 30
0.0
 10
51.9
 20
-310.0507
 30
0.0
 10
51.9
 20
-308.5
 30
0.0
 10
51.9
 20
-308.5
 30
0.0
 10
51.9
 20
-308.5
 30
0.0
 10
51.9
 20
-308.5
 30
0.0
 10
51.9
 20
-306.9508
 30
0.0
 10
51.9
 20
-306.9508
 30
0.0
 10
51.9
 20
-306.9508
 30
0.0
 10
51.9
 20
-306.9508
 30
0.0
 10
52.3156
 20
-306.9508
 30
0.0
 10
52.3156
 20
-306.9508
 30
0.0
 10
52.3156
 20
-306.9508
 30
0.0
 10
52.5876
 20
-306.4794
 30
0.0
 10
52.9794
 20
-306.0879
 30
0.0
 10
53.4507
 20
-305.816
 30
0.0
 10
53.4507
 20
-305.816
 30
0.0
 10
53.4507
 20
-305.816
 30
0.0
 10
53.4507
 20
-305.4001
 30
0.0
 10
53.4507
 20
-305.4001
 30
0.0
 10
53.4507
 20
-305.4001
 30
0.0
 10
53.4507
 20
-305.4001
 30
0.0
 10
55.0
 20
-305.4001
 30
0.0
 10
55.0
 20
-305.4001
 30
0.0
 10
55.0
 20
-305.4001
 30
0.0
 10
55.0
 20
-305.4001
 30
0.0
 10
56.5508
 20
-305.4001
 30
0.0
 10
56.5508
 20
-305.4001
 30
0.0
 10
56.5508
 20
-305.4001
 30
0.0
 10
56.5508
 20
-305.4001
 30
0.0
 10
56.5508
 20
-305.816
 30
0.0
 10
56.5508
 20
-305.816
 30
0.0
 10
56.5508
 20
-305.816
 30
0.0
 10
57.0206
 20
-306.0879
 30
0.0
 10
57.4136
 20
-306.4794
 30
0.0
 10
57.6856
 20
-306.9508
 30
0.0
 10
57.6856
 20
-306.9508
 30
0.0
 10
57.6856
 20
-306.9508
 30
0.0
 10
58.1
 20
-306.9508
 30
0.0
 10
58.1
 20
-306.9508
 30
0.0
 10
58.1
 20
-306.9508
 30
0.0
 10
58.1
 20
-306.9508
 30
0.0
 10
58.1
 20
-308.5
 30
0.0
 10
58.1
 20
-308.5
 30
0.0
 10
58.1
 20
-308.5
 30
0.0
 10
58.1
 20
-308.5
 30
0.0
 10
58.1
 20
-310.0507
 30
0.0
 10
58.1
 20
-310.0507
 30
0.0
 10
58.1
 20
-310.0507
 30
0.0
 10
58.1
 20
-310.0507
 30
0.0
 10
57.6856
 20
-310.0507
 30
0.0
 10
57.6856
 20
-310.0507
 30
0.0
 10
57.6856
 20
-310.0507
 30
0.0
 10
57.4136
 20
-310.5206
 30
0.0
 10
57.0206
 20
-310.9135
 30
0.0
 10
56.5508
 20
-311.1855
 30
0.0
 10
56.5508
 20
-311.1855
 30
0.0
 10
56.5508
 20
-311.1855
 30
0.0
 10
56.5508
 20
-311.6
 30
0.0
 10
56.5508
 20
-311.6
 30
0.0
 10
56.5508
 20
-311.6
 30
0.0
 10
56.5508
 20
-311.6
 30
0.0
 10
55.0
 20
-311.6
 30
0.0
 10
55.0
 20
-311.6
 30
0.0
 10
55.0
 20
-311.6
 30
0.0
 10
55.0
 20
-311.6
 30
0.0
 10
53.4507
 20
-311.6
 30
0.0
 10
53.4507
 20
-311.6
 30
0.0
  0
SPLINE
  5
77
330
1F
100
AcDbEntity
  8
LAYER_1
100
AcDbSpline
210
0.0
220
0.0
230
1.0
 70
    11
 71
     3
 72
    84
 73
    80
 74
     0
 42
0.0000000001
 43
0.0000000001
 40
0.0
 40
0.0
 40
0.0
 40
0.0
 40
0.05
 40
0.05
 40
0.05
 40
0.05
 40
0.1
 40
0.1
 40
0.1
 40
0.1
 40
0.15
 40
0.15
 40
0.15
 40
0.15
 40
0.2
 40
0.2
 40
0.2
 40
0.2
 40
0.25
 40
0.25
 40
0.25
 40
0.25
 40
0.3
 40
0.3
 40
0.3
 40
0.3
 40
0.35
 40
0.35
 40
0.35
 40
0.35
 40
0.4
 40
0.4
 40
0.4
 40
0.4
 40
0.45
 40
0.45
 40
0.45
 40
0.45
 40
0.4999999999999999
 40
0.4999999999999999
 40
0.4999999999999999
 40
0.4999999999999999
 40
0.5499999999999999
 40
0.5499999999999999
 40
0.5499999999999999
 40
0.5499999999999999
 40
0.6
 40
0.6
 40
0.6
 40
0.6
 40
0.65
 40
0.65
 40
0.65
 40
0.65
 40
0.7000000000000001
 40
0.7000000000000001
 40
0.7000000000000001
 40
0.7000000000000001
 40
0.7500000000000001
 40
0.7500000000000001
 40
0.7500000000000001
 40
0.7500000000000001
 40
0.8000000000000002
 40
0.8000000000000002
 40
0.8000000000000002
 40
0.8000000000000002
 40
0.8500000000000002
 40
0.8500000000000002
 40
0.8500000000000002
 40
0.8500000000000002
 40
0.9000000000000002
 40
0.9000000000000002
 40
0.9000000000000002
 40
0.9000000000000002
 40
0.9500000000000003
 40
0.9500000000000003
 40
0.9500000000000003
 40
0.9500000000000003
 40
1.0
 40
1.0
 40
1.0
 40
1.0
 10
53.4507
 20
-351.6
 30
0.0
 10
53.4507
 20
-351.6
 30
0.0
 10
53.4507
 20
-351.1855
 30
0.0
 10
53.4507
 20
-351.1855
 30
0.0
 10
53.4507
 20
-351.1855
 30
0.0
 10
52.9794
 20
-350.9135
 30
0.0
 10
52.5876
 20
-350.5206
 30
0.0
 10
52.3156
 20
-350.0507
 30
0.0
 10
52.3156
 20
-350.0507
 30
0.0
 10
52.3156
 20
-350.0507
 30
0.0
 10
51.9
 20
-350.0507
 30
0.0
 10
51.9
 20
-350.0507
 30
0.0
 10
51.9
 20
-350.0507
 30
0.0
 10
51.9
 20
-350.0507
 30
0.0
 10
51.9
 20
-348.5
 30
0.0
 10
51.9
 20
-348.5
 30
0.0
 10
51.9
 20
-348.5
 30
0.0
 10
51.9
 20
-348.5
 30
0.0
 10
51.9
 20
-346.9508
 30
0.0
 10
51.9
 20
-346.9508
 30
0.0
 10
51.9
 20
-346.9508
 30
0.0
 10
51.9
 20
-346.9508
 30
0.0
 10
52.3156
 20
-346.9508
 30
0.0
 10
52.3156
 20
-346.9508
 30
0.0
 10
52.3156
 20
-346.9508
 30
0.0
 10
52.5876
 20
-346.4794
 30
0.0
 10
52.9794
 20
-346.0879
 30
0.0
 10
53.4507
 20
-345.816
 30
0.0
 10
53.4507
 20
-345.816
 30
0.0
 10
53.4507
 20
-345.816
 30
0.0
 10
53.4507
 20
-345.4001
 30
0.0
 10
53.4507
 20
-345.4001
 30
0.0
 10
53.4507
 20
-345.4001
 30
0.0
 10
53.4507
 20
-345.4001
 30
0.0
 10
55.0
 20
-345.4001
 30
0.0
 10
55.0
 20
-345.4001
 30
0.0
 10
55.0
 20
-345.4001
 30
0.0
 10
55.0
 20
-345.4001
 30
0.0
 10
56.5508
 20
-345.4001
 30
0.0
 10
56.5508
 20
-345.4001
 30
0.0
 10
56.5508
 20
-345.4001
 30
0.0
 10
56.5508
 20
-345.4001
 30
0.0
 10
56.5508
 20
-345.816
 30
0.0
 10
56.5508
 20
-345.816
 30
0.0
 10
56.5508
 20
-345.816
 30
0.0
 10
57.0206
 20
-346.0879
 30
0.0
 10
57.4136
 20
-346.4794
 30
0.0
 10
57.6856
 20
-346.9508
 30
0.0
 10
57.6856
 20
-346.9508
 30
0.0
 10
57.6856
 20
-346.9508
 30
0.0
 10
58.1
 20
-346.9508
 30
0.0
 10
58.1
 20
-346.9508
 30
0.0
 10
58.1
 20
-346.9508
 30
0.0
 10
58.1
 20
-346.9508
 30
0.0
 10
58.1
 20
-348.5
 30
0.0
 10
58.1
 20
-348.5
 30
0.0
 10
58.1
 20
-348.5
 30
0.0
 10
58.1
 20
-348.5
 30
0.0
 10
58.1
 20
-350.0507
 30
0.0
 10
58.1
 20
-350.0507
 30
0.0
 10
58.1
 20
-350.0507
 30
0.0
 10
58.1
 20
-350.0507
 30
0.0
 10
57.6856
 20
-350.0507
 30
0.0
 10
57.6856
 20
-350.0507
 30
0.0
 10
57.6856
 20
-350.0507
 30
0.0
 10
57.4136
 20
-350.5206
 30
0.0
 10
57.0206
 20
-350.9135
 30
0.0
 10
56.5508
 20
-351.1855
 30
0.0
 10
56.5508
 20
-351.1855
 30
0.0
 10
56.5508
 20
-351.1855
 30
0.0
 10
56.5508
 20
-351.6
 30
0.0
 10
56.5508
 20
-351.6
 30
0.0
 10
56.5508
 20
-351.6
 30
0.0
 10
56.5508
 20
-351.6
 30
0.0
 10
55.0
 20
-351.6
 30
0.0
 10
55.0
 20
-351.6
 30
0.0
 10
55.0
 20
-351.6
 30
0.0
 10
55.0
 20
-351.6
 30
0.0
 10
53.4507
 20
-351.6
 30
0.0
 10
53.4507
 20
-351.6
 30
0.0
  0
SPLINE
  5
78
330
1F
100
AcDbEntity
  8
LAYER_1
100
AcDbSpline
210
0.0
220
0.0
230
1.0
 70
    11
 71
     3
 72
    44
 73
    40
 74
     0
 42
0.0000000001
 43
0.0000000001
 40
0.0
 40
0.0
 40
0.0
 40
0.0
 40
0.1
 40
0.1
 40
0.1
 40
0.1
 40
0.2
 40
0.2
 40
0.2
 40
0.2
 40
0.3
 40
0.3
 40
0.3
 40
0.3
 40
0.4
 40
0.4
 40
0.4
 40
0.4
 40
0.5
 40
0.5
 40
0.5
 40
0.5
 40
0.6
 40
0.6
 40
0.6
 40
0.6
 40
0.7
 40
0.7
 40
0.7
 40
0.7
 40
0.7999999999999999
 40
0.7999999999999999
 40
0.7999999999999999
 40
0.7999999999999999
 40
0.8999999999999999
 40
0.8999999999999999
 40
0.8999999999999999
 40
0.8999999999999999
 40
1.0
 40
1.0
 40
1.0
 40
1.0
 10
108.4999
 20
-347.9983
 30
0.0
 10
108.4999
 20
-347.9983
 30
0.0
 10
108.4997
 20
-349.9994
 30
0.0
 10
108.4997
 20
-349.9994
 30
0.0
 10
108.4997
 20
-349.9994
 30
0.0
 10
108.4997
 20
-352.7694
 30
0.0
 10
110.7306
 20
-355.0003
 30
0.0
 10
113.5006
 20
-355.0003
 30
0.0
 10
113.5006
 20
-355.0003
 30
0.0
 10
113.5006
 20
-355.0003
 30
0.0
 10
156.4993
 20
-355.0003
 30
0.0
 10
156.4993
 20
-355.0003
 30
0.0
 10
156.4993
 20
-355.0003
 30
0.0
 10
159.2707
 20
-355.0003
 30
0.0
 10
161.5003
 20
-352.7694
 30
0.0
 10
161.5003
 20
-349.9994
 30
0.0
 10
161.5003
 20
-349.9994
 30
0.0
 10
161.5003
 20
-349.9994
 30
0.0
 10
161.5003
 20
-307.0007
 30
0.0
 10
161.5003
 20
-307.0007
 30
0.0
 10
161.5003
 20
-307.0007
 30
0.0
 10
161.5003
 20
-304.2293
 30
0.0
 10
159.2707
 20
-301.9997
 30
0.0
 10
156.4993
 20
-301.9997
 30
0.0
 10
156.4993
 20
-301.9997
 30
0.0
 10
156.4993
 20
-301.9997
 30
0.0
 10
113.5006
 20
-301.9997
 30
0.0
 10
113.5006
 20
-301.9997
 30
0.0
 10
113.5006
 20
-301.9997
 30
0.0
 10
110.7306
 20
-301.9997
 30
0.0
 10
108.4997
 20
-304.2293
 30
0.0
 10
108.4997
 20
-307.0007
 30
0.0
 10
108.4997
 20
-307.0007
 30
0.0
 10
108.4997
 20
-307.0007
 30
0.0
 10
108.4997
 20
-324.6555
 30
0.0
 10
108.4997
 20
-324.6555
 30
0.0
 10
108.4997
 20
-324.6555
 30
0.0
 10
108.4997
 20
-324.6555
 30
0.0
 10
108.4999
 20
-347.9983
 30
0.0
 10
108.4999
 20
-347.9983
 30
0.0
  0
SPLINE
  5
79
330
1F
100
AcDbEntity
  8
LAYER_1
100
AcDbSpline
210
0.0
220
0.0
230
1.0
 70
    11
 71
     3
 72
    84
 73
    80
 74
     0
 42
0.0000000001
 43
0.0000000001
 40
0.0
 40
0.0
 40
0.0
 40
0.0
 40
0.05
 40
0.05
 40
0.05
 40
0.05
 40
0.1
 40
0.1
 40
0.1
 40
0.1
 40
0.15
 40
0.15
 40
0.15
 40
0.15
 40
0.2
 40
0.2
 40
0.2
 40
0.2
 40
0.25
 40
0.25
 40
0.25
 40
0.25
 40
0.3
 40
0.3
 40
0.3
 40
0.3
 40
0.35
 40
0.35
 40
0.35
 40
0.35
 40
0.4
 40
0.4
 40
0.4
 40
0.4
 40
0.45
 40
0.45
 40
0.45
 40
0.45
 40
0.4999999999999999
 40
0.4999999999999999
 40
0.4999999999999999
 40
0.4999999999999999
 40
0.5499999999999999
 40
0.5499999999999999
 40
0.5499999999999999
 40
0.5499999999999999
 40
0.6
 40
0.6
 40
0.6
 40
0.6
 40
0.65
 40
0.65
 40
0.65
 40
0.65
 40
0.7000000000000001
 40
0.7000000000000001
 40
0.7000000000000001
 40
0.7000000000000001
 40
0.7500000000000001
 40
0.7500000000000001
 40
0.7500000000000001
 40
0.7500000000000001
 40
0.8000000000000002
 40
0.8000000000000002
 40
0.8000000000000002
 40
0.8000000000000002
 40
0.8500000000000002
 40
0.8500000000000002
 40
0.8500000000000002
 40
0.8500000000000002
 40
0.9000000000000002
 40
0.9000000000000002
 40
0.9000000000000002
 40
0.9000000000000002
 40
0.9500000000000003
 40
0.9500000000000003
 40
0.9500000000000003
 40
0.9500000000000003
 40
1.0
 40
1.0
 40
1.0
 40
1.0
 10
153.4507
 20
-311.6
 30
0.0
 10
153.4507
 20
-311.6
 30
0.0
 10
153.4507
 20
-311.1855
 30
0.0
 10
153.4507
 20
-311.1855
 30
0.0
 10
153.4507
 20
-311.1855
 30
0.0
 10
152.9794
 20
-310.9135
 30
0.0
 10
152.5876
 20
-310.5206
 30
0.0
 10
152.3156
 20
-310.0507
 30
0.0
 10
152.3156
 20
-310.0507
 30
0.0
 10
152.3156
 20
-310.0507
 30
0.0
 10
151.9
 20
-310.0507
 30
0.0
 10
151.9
 20
-310.0507
 30
0.0
 10
151.9
 20
-310.0507
 30
0.0
 10
151.9
 20
-310.0507
 30
0.0
 10
151.9
 20
-308.5
 30
0.0
 10
151.9
 20
-308.5
 30
0.0
 10
151.9
 20
-308.5
 30
0.0
 10
151.9
 20
-308.5
 30
0.0
 10
151.9
 20
-306.9508
 30
0.0
 10
151.9
 20
-306.9508
 30
0.0
 10
151.9
 20
-306.9508
 30
0.0
 10
151.9
 20
-306.9508
 30
0.0
 10
152.3156
 20
-306.9508
 30
0.0
 10
152.3156
 20
-306.9508
 30
0.0
 10
152.3156
 20
-306.9508
 30
0.0
 10
152.5876
 20
-306.4794
 30
0.0
 10
152.9794
 20
-306.0879
 30
0.0
 10
153.4507
 20
-305.816
 30
0.0
 10
153.4507
 20
-305.816
 30
0.0
 10
153.4507
 20
-305.816
 30
0.0
 10
153.4507
 20
-305.4001
 30
0.0
 10
153.4507
 20
-305.4001
 30
0.0
 10
153.4507
 20
-305.4001
 30
0.0
 10
153.4507
 20
-305.4001
 30
0.0
 10
155.0
 20
-305.4001
 30
0.0
 10
155.0
 20
-305.4001
 30
0.0
 10
155.0
 20
-305.4001
 30
0.0
 10
155.0
 20
-305.4001
 30
0.0
 10
156.5508
 20
-305.4001
 30
0.0
 10
156.5508
 20
-305.4001
 30
0.0
 10
156.5508
 20
-305.4001
 30
0.0
 10
156.5508
 20
-305.4001
 30
0.0
 10
156.5508
 20
-305.816
 30
0.0
 10
156.5508
 20
-305.816
 30
0.0
 10
156.5508
 20
-305.816
 30
0.0
 10
157.0206
 20
-306.0879
 30
0.0
 10
157.4136
 20
-306.4794
 30
0.0
 10
157.6856
 20
-306.9508
 30
0.0
 10
157.6856
 20
-306.9508
 30
0.0
 10
157.6856
 20
-306.9508
 30
0.0
 10
158.1
 20
-306.9508
 30
0.0
 10
158.1
 20
-306.9508
 30
0.0
 10
158.1
 20
-306.9508
 30
0.0
 10
158.1
 20
-306.9508
 30
0.0
 10
158.1
 20
-308.5
 30
0.0
 10
158.1
 20
-308.5
 30
0.0
 10
158.1
 20
-308.5
 30
0.0
 10
158.1
 20
-308.5
 30
0.0
 10
158.1
 20
-310.0507
 30
0.0
 10
158.1
 20
-310.0507
 30
0.0
 10
158.1
 20
-310.0507
 30
0.0
 10
158.1
 20
-310.0507
 30
0.0
 10
157.6856
 20
-310.0507
 30
0.0
 10
157.6856
 20
-310.0507
 30
0.0
 10
157.6856
 20
-310.0507
 30
0.0
 10
157.4136
 20
-310.5206
 30
0.0
 10
157.0206
 20
-310.9135
 30
0.0
 10
156.5508
 20
-311.1855
 30
0.0
 10
156.5508
 20
-311.1855
 30
0.0
 10
156.5508
 20
-311.1855
 30
0.0
 10
156.5508
 20
-311.6
 30
0.0
 10
156.5508
 20
-311.6
 30
0.0
 10
156.5508
 20
-311.6
 30
0.0
 10
156.5508
 20
-311.6
 30
0.0
 10
155.0
 20
-311.6
 30
0.0
 10
155.0
 20
-311.6
 30
0.0
 10
155.0
 20
-311.6
 30
0.0
 10
155.0
 20
-311.6
 30
0.0
 10
153.4507
 20
-311.6
 30
0.0
 10
153.4507
 20
-311.6
 30
0.0
  0
SPLINE
  5
7A
330
1F
100
AcDbEntity
  8
LAYER_1
100
AcDbSpline
210
0.0
220
0.0
230
1.0
 70
    11
 71
     3
 72
    84
 73
    80
 74
     0
 42
0.0000000001
 43
0.0000000001
 40
0.0
 40
0.0
 40
0.0
 40
0.0
 40
0.05
 40
0.05
 40
0.05
 40
0.05
 40
0.1
 40
0.1
 40
0.1
 40
0.1
 40
0.15
 40
0.15
 40
0.15
 40
0.15
 40
0.2
 40
0.2
 40
0.2
 40
0.2
 40
0.25
 40
0.25
 40
0.25
 40
0.25
 40
0.3
 40
0.3
 40
0.3
 40
0.3
 40
0.35
 40
0.35
 40
0.35
 40
0.35
 40
0.4
 40
0.4
 40
0.4
 40
0.4
 40
0.45
 40
0.45
 40
0.45
 40
0.45
 40
0.4999999999999999
 40
0.4999999999999999
 40
0.4999999999999999
 40
0.4999999999999999
 40
0.5499999999999999
 40
0.5499999999999999
 40
0.5499999999999999
 40
0.5499999999999999
 40
0.6
 40
0.6
 40
0.6
 40
0.6
 40
0.65
 40
0.65
 40
0.65
 40
0.65
 40
0.7000000000000001
 40
0.7000000000000001
 40
0.7000000000000001
 40
0.7000000000000001
 40
0.7500000000000001
 40
0.7500000000000001
 40
0.7500000000000001
 40
0.7500000000000001
 40
0.8000000000000002
 40
0.8000000000000002
 40
0.8000000000000002
 40
0.8000000000000002
 40
0.8500000000000002
 40
0.8500000000000002
 40
0.8500000000000002
 40
0.8500000000000002
 40
0.9000000000000002
 40
0.9000000000000002
 40
0.9000000000000002
 40
0.9000000000000002
 40
0.9500000000000003
 40
0.9500000000000003
 40
0.9500000000000003
 40
0.9500000000000003
 40
1.0
 40
1.0
 40
1.0
 40
1.0
 10
113.4507
 20
-311.6
 30
0.0
 10
113.4507
 20
-311.6
 30
0.0
 10
113.4507
 20
-311.1855
 30
0.0
 10
113.4507
 20
-311.1855
 30
0.0
 10
113.4507
 20
-311.1855
 30
0.0
 10
112.9794
 20
-310.9135
 30
0.0
 10
112.5876
 20
-310.5206
 30
0.0
 10
112.3156
 20
-310.0507
 30
0.0
 10
112.3156
 20
-310.0507
 30
0.0
 10
112.3156
 20
-310.0507
 30
0.0
 10
111.9
 20
-310.0507
 30
0.0
 10
111.9
 20
-310.0507
 30
0.0
 10
111.9
 20
-310.0507
 30
0.0
 10
111.9
 20
-310.0507
 30
0.0
 10
111.9
 20
-308.5
 30
0.0
 10
111.9
 20
-308.5
 30
0.0
 10
111.9
 20
-308.5
 30
0.0
 10
111.9
 20
-308.5
 30
0.0
 10
111.9
 20
-306.9508
 30
0.0
 10
111.9
 20
-306.9508
 30
0.0
 10
111.9
 20
-306.9508
 30
0.0
 10
111.9
 20
-306.9508
 30
0.0
 10
112.3156
 20
-306.9508
 30
0.0
 10
112.3156
 20
-306.9508
 30
0.0
 10
112.3156
 20
-306.9508
 30
0.0
 10
112.5876
 20
-306.4794
 30
0.0
 10
112.9794
 20
-306.0879
 30
0.0
 10
113.4507
 20
-305.816
 30
0.0
 10
113.4507
 20
-305.816
 30
0.0
 10
113.4507
 20
-305.816
 30
0.0
 10
113.4507
 20
-305.4001
 30
0.0
 10
113.4507
 20
-305.4001
 30
0.0
 10
113.4507
 20
-305.4001
 30
0.0
 10
113.4507
 20
-305.4001
 30
0.0
 10
115.0
 20
-305.4001
 30
0.0
 10
115.0
 20
-305.4001
 30
0.0
 10
115.0
 20
-305.4001
 30
0.0
 10
115.0
 20
-305.4001
 30
0.0
 10
116.5508
 20
-305.4001
 30
0.0
 10
116.5508
 20
-305.4001
 30
0.0
 10
116.5508
 20
-305.4001
 30
0.0
 10
116.5508
 20
-305.4001
 30
0.0
 10
116.5508
 20
-305.816
 30
0.0
 10
116.5508
 20
-305.816
 30
0.0
 10
116.5508
 20
-305.816
 30
0.0
 10
117.0206
 20
-306.0879
 30
0.0
 10
117.4136
 20
-306.4794
 30
0.0
 10
117.6856
 20
-306.9508
 30
0.0
 10
117.6856
 20
-306.9508
 30
0.0
 10
117.6856
 20
-306.9508
 30
0.0
 10
118.1
 20
-306.9508
 30
0.0
 10
118.1
 20
-306.9508
 30
0.0
 10
118.1
 20
-306.9508
 30
0.0
 10
118.1
 20
-306.9508
 30
0.0
 10
118.1
 20
-308.5
 30
0.0
 10
118.1
 20
-308.5
 30
0.0
 10
118.1
 20
-308.5
 30
0.0
 10
118.1
 20
-308.5
 30
0.0
 10
118.1
 20
-310.0507
 30
0.0
 10
118.1
 20
-310.0507
 30
0.0
 10
118.1
 20
-310.0507
 30
0.0
 10
118.1
 20
-310.0507
 30
0.0
 10
117.6856
 20
-310.0507
 30
0.0
 10
117.6856
 20
-310.0507
 30
0.0
 10
117.6856
 20
-310.0507
 30
0.0
 10
117.4136
 20
-310.5206
 30
0.0
 10
117.0206
 20
-310.9135
 30
0.0
 10
116.5508
 20
-311.1855
 30
0.0
 10
116.5508
 20
-311.1855
 30
0.0
 10
116.5508
 20
-311.1855
 30
0.0
 10
116.5508
 20
-311.6
 30
0.0
 10
116.5508
 20
-311.6
 30
0.0
 10
116.5508
 20
-311.6
 30
0.0
 10
116.5508
 20
-311.6
 30
0.0
 10
115.0
 20
-311.6
 30
0.0
 10
115.0
 20
-311.6
 30
0.0
 10
115.0
 20
-311.6
 30
0.0
 10
115.0
 20
-311.6
 30
0.0
 10
113.4507
 20
-311.6
 30
0.0
 10
113.4507
 20
-311.6
 30
0.0
  0
SPLINE
  5
7B
330
1F
100
AcDbEntity
  8
LAYER_1
100
AcDbSpline
210
0.0
220
0.0
230
1.0
 70
    11
 71
     3
 72
    84
 73
    80
 74
     0
 42
0.0000000001
 43
0.0000000001
 40
0.0
 40
0.0
 40
0.0
 40
0.0
 40
0.05
 40
0.05
 40
0.05
 40
0.05
 40
0.1
 40
0.1
 40
0.1
 40
0.1
 40
0.15
 40
0.15
 40
0.15
 40
0.15
 40
0.2
 40
0.2
 40
0.2
 40
0.2
 40
0.25
 40
0.25
 40
0.25
 40
0.25
 40
0.3
 40
0.3
 40
0.3
 40
0.3
 40
0.35
 40
0.35
 40
0.35
 40
0.35
 40
0.4
 40
0.4
 40
0.4
 40
0.4
 40
0.45
 40
0.45
 40
0.45
 40
0.45
 40
0.4999999999999999
 40
0.4999999999999999
 40
0.4999999999999999
 40
0.4999999999999999
 40
0.5499999999999999
 40
0.5499999999999999
 40
0.5499999999999999
 40
0.5499999999999999
 40
0.6
 40
0.6
 40
0.6
 40
0.6
 40
0.65
 40
0.65
 40
0.65
 40
0.65
 40
0.7000000000000001
 40
0.7000000000000001
 40
0.7000000000000001
 40
0.7000000000000001
 40
0.7500000000000001
 40
0.7500000000000001
 40
0.7500000000000001
 40
0.7500000000000001
 40
0.8000000000000002
 40
0.8000000000000002
 40
0.8000000000000002
 40
0.8000000000000002
 40
0.8500000000000002
 40
0.8500000000000002
 40
0.8500000000000002
 40
0.8500000000000002
 40
0.9000000000000002
 40
0.9000000000000002
 40
0.9000000000000002
 40
0.9000000000000002
 40
0.9500000000000003
 40
0.9500000000000003
 40
0.9500000000000003
 40
0.9500000000000003
 40
1.0
 40
1.0
 40
1.0
 40
1.0
 10
153.4507
 20
-351.6
 30
0.0
 10
153.4507
 20
-351.6
 30
0.0
 10
153.4507
 20
-351.1855
 30
0.0
 10
153.4507
 20
-351.1855
 30
0.0
 10
153.4507
 20
-351.1855
 30
0.0
 10
152.9794
 20
-350.9135
 30
0.0
 10
152.5876
 20
-350.5206
 30
0.0
 10
152.3156
 20
-350.0507
 30
0.0
 10
152.3156
 20
-350.0507
 30
0.0
 10
152.3156
 20
-350.0507
 30
0.0
 10
151.9
 20
-350.0507
 30
0.0
 10
151.9
 20
-350.0507
 30
0.0
 10
151.9
 20
-350.0507
 30
0.0
 10
151.9
 20
-350.0507
 30
0.0
 10
151.9
 20
-348.5
 30
0.0
 10
151.9
 20
-348.5
 30
0.0
 10
151.9
 20
-348.5
 30
0.0
 10
151.9
 20
-348.5
 30
0.0
 10
151.9
 20
-346.9508
 30
0.0
 10
151.9
 20
-346.9508
 30
0.0
 10
151.9
 20
-346.9508
 30
0.0
 10
151.9
 20
-346.9508
 30
0.0
 10
152.3156
 20
-346.9508
 30
0.0
 10
152.3156
 20
-346.9508
 30
0.0
 10
152.3156
 20
-346.9508
 30
0.0
 10
152.5876
 20
-346.4794
 30
0.0
 10
152.9794
 20
-346.0879
 30
0.0
 10
153.4507
 20
-345.816
 30
0.0
 10
153.4507
 20
-345.816
 30
0.0
 10
153.4507
 20
-345.816
 30
0.0
 10
153.4507
 20
-345.4001
 30
0.0
 10
153.4507
 20
-345.4001
 30
0.0
 10
153.4507
 20
-345.4001
 30
0.0
 10
153.4507
 20
-345.4001
 30
0.0
 10
155.0
 20
-345.4001
 30
0.0
 10
155.0
 20
-345.4001
 30
0.0
 10
155.0
 20
-345.4001
 30
0.0
 10
155.0
 20
-345.4001
 30
0.0
 10
156.5508
 20
-345.4001
 30
0.0
 10
156.5508
 20
-345.4001
 30
0.0
 10
156.5508
 20
-345.4001
 30
0.0
 10
156.5508
 20
-345.4001
 30
0.0
 10
156.5508
 20
-345.816
 30
0.0
 10
156.5508
 20
-345.816
 30
0.0
 10
156.5508
 20
-345.816
 30
0.0
 10
157.0206
 20
-346.0879
 30
0.0
 10
157.4136
 20
-346.4794
 30
0.0
 10
157.6856
 20
-346.9508
 30
0.0
 10
157.6856
 20
-346.9508
 30
0.0
 10
157.6856
 20
-346.9508
 30
0.0
 10
158.1
 20
-346.9508
 30
0.0
 10
158.1
 20
-346.9508
 30
0.0
 10
158.1
 20
-346.9508
 30
0.0
 10
158.1
 20
-346.9508
 30
0.0
 10
158.1
 20
-348.5
 30
0.0
 10
158.1
 20
-348.5
 30
0.0
 10
158.1
 20
-348.5
 30
0.0
 10
158.1
 20
-348.5
 30
0.0
 10
158.1
 20
-350.0507
 30
0.0
 10
158.1
 20
-350.0507
 30
0.0
 10
158.1
 20
-350.0507
 30
0.0
 10
158.1
 20
-350.0507
 30
0.0
 10
157.6856
 20
-350.0507
 30
0.0
 10
157.6856
 20
-350.0507
 30
0.0
 10
157.6856
 20
-350.0507
 30
0.0
 10
157.4136
 20
-350.5206
 30
0.0
 10
157.0206
 20
-350.9135
 30
0.0
 10
156.5508
 20
-351.1855
 30
0.0
 10
156.5508
 20
-351.1855
 30
0.0
 10
156.5508
 20
-351.1855
 30
0.0
 10
156.5508
 20
-351.6
 30
0.0
 10
156.5508
 20
-351.6
 30
0.0
 10
156.5508
 20
-351.6
 30
0.0
 10
156.5508
 20
-351.6
 30
0.0
 10
155.0
 20
-351.6
 30
0.0
 10
155.0
 20
-351.6
 30
0.0
 10
155.0
 20
-351.6
 30
0.0
 10
155.0
 20
-351.6
 30
0.0
 10
153.4507
 20
-351.6
 30
0.0
 10
153.4507
 20
-351.6
 30
0.0
  0
SPLINE
  5
7C
330
1F
100
AcDbEntity
  8
LAYER_1
100
AcDbSpline
210
0.0
220
0.0
230
1.0
 70
    11
 71
     3
 72
    84
 73
    80
 74
     0
 42
0.0000000001
 43
0.0000000001
 40
0.0
 40
0.0
 40
0.0
 40
0.0
 40
0.05
 40
0.05
 40
0.05
 40
0.05
 40
0.1
 40
0.1
 40
0.1
 40
0.1
 40
0.15
 40
0.15
 40
0.15
 40
0.15
 40
0.2
 40
0.2
 40
0.2
 40
0.2
 40
0.25
 40
0.25
 40
0.25
 40
0.25
 40
0.3
 40
0.3
 40
0.3
 40
0.3
 40
0.35
 40
0.35
 40
0.35
 40
0.35
 40
0.4
 40
0.4
 40
0.4
 40
0.4
 40
0.45
 40
0.45
 40
0.45
 40
0.45
 40
0.4999999999999999
 40
0.4999999999999999
 40
0.4999999999999999
 40
0.4999999999999999
 40
0.5499999999999999
 40
0.5499999999999999
 40
0.5499999999999999
 40
0.5499999999999999
 40
0.6
 40
0.6
 40
0.6
 40
0.6
 40
0.65
 40
0.65
 40
0.65
 40
0.65
 40
0.7000000000000001
 40
0.7000000000000001
 40
0.7000000000000001
 40
0.7000000000000001
 40
0.7500000000000001
 40
0.7500000000000001
 40
0.7500000000000001
 40
0.7500000000000001
 40
0.8000000000000002
 40
0.8000000000000002
 40
0.8000000000000002
 40
0.8000000000000002
 40
0.8500000000000002
 40
0.8500000000000002
 40
0.8500000000000002
 40
0.8500000000000002
 40
0.9000000000000002
 40
0.9000000000000002
 40
0.9000000000000002
 40
0.9000000000000002
 40
0.9500000000000003
 40
0.9500000000000003
 40
0.9500000000000003
 40
0.9500000000000003
 40
1.0
 40
1.0
 40
1.0
 40
1.0
 10
113.4507
 20
-351.6
 30
0.0
 10
113.4507
 20
-351.6
 30
0.0
 10
113.4507
 20
-351.1855
 30
0.0
 10
113.4507
 20
-351.1855
 30
0.0
 10
113.4507
 20
-351.1855
 30
0.0
 10
112.9794
 20
-350.9135
 30
0.0
 10
112.5876
 20
-350.5206
 30
0.0
 10
112.3156
 20
-350.0507
 30
0.0
 10
112.3156
 20
-350.0507
 30
0.0
 10
112.3156
 20
-350.0507
 30
0.0
 10
111.9
 20
-350.0507
 30
0.0
 10
111.9
 20
-350.0507
 30
0.0
 10
111.9
 20
-350.0507
 30
0.0
 10
111.9
 20
-350.0507
 30
0.0
 10
111.9
 20
-348.5
 30
0.0
 10
111.9
 20
-348.5
 30
0.0
 10
111.9
 20
-348.5
 30
0.0
 10
111.9
 20
-348.5
 30
0.0
 10
111.9
 20
-346.9508
 30
0.0
 10
111.9
 20
-346.9508
 30
0.0
 10
111.9
 20
-346.9508
 30
0.0
 10
111.9
 20
-346.9508
 30
0.0
 10
112.3156
 20
-346.9508
 30
0.0
 10
112.3156
 20
-346.9508
 30
0.0
 10
112.3156
 20
-346.9508
 30
0.0
 10
112.5876
 20
-346.4794
 30
0.0
 10
112.9794
 20
-346.0879
 30
0.0
 10
113.4507
 20
-345.816
 30
0.0
 10
113.4507
 20
-345.816
 30
0.0
 10
113.4507
 20
-345.816
 30
0.0
 10
113.4507
 20
-345.4001
 30
0.0
 10
113.4507
 20
-345.4001
 30
0.0
 10
113.4507
 20
-345.4001
 30
0.0
 10
113.4507
 20
-345.4001
 30
0.0
 10
115.0
 20
-345.4001
 30
0.0
 10
115.0
 20
-345.4001
 30
0.0
 10
115.0
 20
-345.4001
 30
0.0
 10
115.0
 20
-345.4001
 30
0.0
 10
116.5508
 20
-345.4001
 30
0.0
 10
116.5508
 20
-345.4001
 30
0.0
 10
116.5508
 20
-345.4001
 30
0.0
 10
116.5508
 20
-345.4001
 30
0.0
 10
116.5508
 20
-345.816
 30
0.0
 10
116.5508
 20
-345.816
 30
0.0
 10
116.5508
 20
-345.816
 30
0.0
 10
117.0206
 20
-346.0879
 30
0.0
 10
117.4136
 20
-346.4794
 30
0.0
 10
117.6856
 20
-346.9508
 30
0.0
 10
117.6856
 20
-346.9508
 30
0.0
 10
117.6856
 20
-346.9508
 30
0.0
 10
118.1
 20
-346.9508
 30
0.0
 10
118.1
 20
-346.9508
 30
0.0
 10
118.1
 20
-346.9508
 30
0.0
 10
118.1
 20
-346.9508
 30
0.0
 10
118.1
 20
-348.5
 30
0.0
 10
118.1
 20
-348.5
 30
0.0
 10
118.1
 20
-348.5
 30
0.0
 10
118.1
 20
-348.5
 30
0.0
 10
118.1
 20
-350.0507
 30
0.0
 10
118.1
 20
-350.0507
 30
0.0
 10
118.1
 20
-350.0507
 30
0.0
 10
118.1
 20
-350.0507
 30
0.0
 10
117.6856
 20
-350.0507
 30
0.0
 10
117.6856
 20
-350.0507
 30
0.0
 10
117.6856
 20
-350.0507
 30
0.0
 10
117.4136
 20
-350.5206
 30
0.0
 10
117.0206
 20
-350.9135
 30
0.0
 10
116.5508
 20
-351.1855
 30
0.0
 10
116.5508
 20
-351.1855
 30
0.0
 10
116.5508
 20
-351.1855
 30
0.0
 10
116.5508
 20
-351.6
 30
0.0
 10
116.5508
 20
-351.6
 30
0.0
 10
116.5508
 20
-351.6
 30
0.0
 10
116.5508
 20
-351.6
 30
0.0
 10
115.0
 20
-351.6
 30
0.0
 10
115.0
 20
-351.6
 30
0.0
 10
115.0
 20
-351.6
 30
0.0
 10
115.0
 20
-351.6
 30
0.0
 10
113.4507
 20
-351.6
 30
0.0
 10
113.4507
 20
-351.6
 30
0.0
  0
SPLINE
  5
7D
330
1F
100
AcDbEntity
  8
LAYER_1
100
AcDbSpline
210
0.0
220
0.0
230
1.0
 70
    11
 71
     3
 72
    20
 73
    16
 74
     0
 42
0.0000000001
 43
0.0000000001
 40
0.0
 40
0.0
 40
0.0
 40
0.0
 40
0.25
 40
0.25
 40
0.25
 40
0.25
 40
0.5
 40
0.5
 40
0.5
 40
0.5
 40
0.75
 40
0.75
 40
0.75
 40
0.75
 40
1.0
 40
1.0
 40
1.0
 40
1.0
 10
121.8
 20
-310.1
 30
0.0
 10
121.8
 20
-310.1
 30
0.0
 10
121.8
 20
-306.9
 30
0.0
 10
121.8
 20
-306.9
 30
0.0
 10
121.8
 20
-306.9
 30
0.0
 10
121.8
 20
-306.9
 30
0.0
 10
128.2
 20
-306.9
 30
0.0
 10
128.2
 20
-306.9
 30
0.0
 10
128.2
 20
-306.9
 30
0.0
 10
128.2
 20
-306.9
 30
0.0
 10
128.2
 20
-310.1
 30
0.0
 10
128.2
 20
-310.1
 30
0.0
 10
128.2
 20
-310.1
 30
0.0
 10
128.2
 20
-310.1
 30
0.0
 10
121.8
 20
-310.1
 30
0.0
 10
121.8
 20
-310.1
 30
0.0
  0
SPLINE
  5
7E
330
1F
100
AcDbEntity
  8
LAYER_1
100
AcDbSpline
210
0.0
220
0.0
230
1.0
 70
    11
 71
     3
 72
    20
 73
    16
 74
     0
 42
0.0000000001
 43
0.0000000001
 40
0.0
 40
0.0
 40
0.0
 40
0.0
 40
0.25
 40
0.25
 40
0.25
 40
0.25
 40
0.5
 40
0.5
 40
0.5
 40
0.5
 40
0.75
 40
0.75
 40
0.75
 40
0.75
 40
1.0
 40
1.0
 40
1.0
 40
1.0
 10
141.8
 20
-310.1
 30
0.0
 10
141.8
 20
-310.1
 30
0.0
 10
141.8
 20
-306.9
 30
0.0
 10
141.8
 20
-306.9
 30
0.0
 10
141.8
 20
-306.9
 30
0.0
 10
141.8
 20
-306.9
 30
0.0
 10
148.2
 20
-306.9
 30
0.0
 10
148.2
 20
-306.9
 30
0.0
 10
148.2
 20
-306.9
 30
0.0
 10
148.2
 20
-306.9
 30
0.0
 10
148.2
 20
-310.1
 30
0.0
 10
148.2
 20
-310.1
 30
0.0
 10
148.2
 20
-310.1
 30
0.0
 10
148.2
 20
-310.1
 30
0.0
 10
141.8
 20
-310.1
 30
0.0
 10
141.8
 20
-310.1
 30
0.0
  0
SPLINE
  5
7F
330
1F
100
AcDbEntity
  8
LAYER_1
100
AcDbSpline
210
0.0
220
0.0
230
1.0
 70
    11
 71
     3
 72
    20
 73
    16
 74
     0
 42
0.0000000001
 43
0.0000000001
 40
0.0
 40
0.0
 40
0.0
 40
0.0
 40
0.25
 40
0.25
 40
0.25
 40
0.25
 40
0.5
 40
0.5
 40
0.5
 40
0.5
 40
0.75
 40
0.75
 40
0.75
 40
0.75
 40
1.0
 40
1.0
 40
1.0
 40
1.0
 10
121.8
 20
-350.1
 30
0.0
 10
121.8
 20
-350.1
 30
0.0
 10
121.8
 20
-346.9
 30
0.0
 10
121.8
 20
-346.9
 30
0.0
 10
121.8
 20
-346.9
 30
0.0
 10
121.8
 20
-346.9
 30
0.0
 10
128.2
 20
-346.9
 30
0.0
 10
128.2
 20
-346.9
 30
0.0
 10
128.2
 20
-346.9
 30
0.0
 10
128.2
 20
-346.9
 30
0.0
 10
128.2
 20
-350.1
 30
0.0
 10
128.2
 20
-350.1
 30
0.0
 10
128.2
 20
-350.1
 30
0.0
 10
128.2
 20
-350.1
 30
0.0
 10
121.8
 20
-350.1
 30
0.0
 10
121.8
 20
-350.1
 30
0.0
  0
SPLINE
  5
80
330
1F
100
AcDbEntity
  8
LAYER_1
100
AcDbSpline
210
0.0
220
0.0
230
1.0
 70
    11
 71
     3
 72
    20
 73
    16
 74
     0
 42
0.0000000001
 43
0.0000000001
 40
0.0
 40
0.0
 40
0.0
 40
0.0
 40
0.25
 40
0.25
 40
0.25
 40
0.25
 40
0.5
 40
0.5
 40
0.5
 40
0.5
 40
0.75
 40
0.75
 40
0.75
 40
0.75
 40
1.0
 40
1.0
 40
1.0
 40
1.0
 10
141.8
 20
-350.1
 30
0.0
 10
141.8
 20
-350.1
 30
0.0
 10
141.8
 20
-346.9
 30
0.0
 10
141.8
 20
-346.9
 30
0.0
 10
141.8
 20
-346.9
 30
0.0
 10
141.8
 20
-346.9
 30
0.0
 10
148.2
 20
-346.9
 30
0.0
 10
148.2
 20
-346.9
 30
0.0
 10
148.2
 20
-346.9
 30
0.0
 10
148.2
 20
-346.9
 30
0.0
 10
148.2
 20
-350.1
 30
0.0
 10
148.2
 20
-350.1
 30
0.0
 10
148.2
 20
-350.1
 30
0.0
 10
148.2
 20
-350.1
 30
0.0
 10
141.8
 20
-350.1
 30
0.0
 10
141.8
 20
-350.1
 30
0.0
  0
SPLINE
  5
81
330
1F
100
AcDbEntity
  8
LAYER_1
100
AcDbSpline
210
0.0
220
0.0
230
1.0
 70
    11
 71
     3
 72
    84
 73
    80
 74
     0
 42
0.0000000001
 43
0.0000000001
 40
0.0
 40
0.0
 40
0.0
 40
0.0
 40
0.05
 40
0.05
 40
0.05
 40
0.05
 40
0.1
 40
0.1
 40
0.1
 40
0.1
 40
0.15
 40
0.15
 40
0.15
 40
0.15
 40
0.2
 40
0.2
 40
0.2
 40
0.2
 40
0.25
 40
0.25
 40
0.25
 40
0.25
 40
0.3
 40
0.3
 40
0.3
 40
0.3
 40
0.35
 40
0.35
 40
0.35
 40
0.35
 40
0.4
 40
0.4
 40
0.4
 40
0.4
 40
0.45
 40
0.45
 40
0.45
 40
0.45
 40
0.4999999999999999
 40
0.4999999999999999
 40
0.4999999999999999
 40
0.4999999999999999
 40
0.5499999999999999
 40
0.5499999999999999
 40
0.5499999999999999
 40
0.5499999999999999
 40
0.6
 40
0.6
 40
0.6
 40
0.6
 40
0.65
 40
0.65
 40
0.65
 40
0.65
 40
0.7000000000000001
 40
0.7000000000000001
 40
0.7000000000000001
 40
0.7000000000000001
 40
0.7500000000000001
 40
0.7500000000000001
 40
0.7500000000000001
 40
0.7500000000000001
 40
0.8000000000000002
 40
0.8000000000000002
 40
0.8000000000000002
 40
0.8000000000000002
 40
0.8500000000000002
 40
0.8500000000000002
 40
0.8500000000000002
 40
0.8500000000000002
 40
0.9000000000000002
 40
0.9000000000000002
 40
0.9000000000000002
 40
0.9000000000000002
 40
0.9500000000000003
 40
0.9500000000000003
 40
0.9500000000000003
 40
0.9500000000000003
 40
1.0
 40
1.0
 40
1.0
 40
1.0
 10
133.4507
 20
-311.6
 30
0.0
 10
133.4507
 20
-311.6
 30
0.0
 10
133.4507
 20
-311.1855
 30
0.0
 10
133.4507
 20
-311.1855
 30
0.0
 10
133.4507
 20
-311.1855
 30
0.0
 10
132.9794
 20
-310.9135
 30
0.0
 10
132.5876
 20
-310.5206
 30
0.0
 10
132.3156
 20
-310.0507
 30
0.0
 10
132.3156
 20
-310.0507
 30
0.0
 10
132.3156
 20
-310.0507
 30
0.0
 10
131.9
 20
-310.0507
 30
0.0
 10
131.9
 20
-310.0507
 30
0.0
 10
131.9
 20
-310.0507
 30
0.0
 10
131.9
 20
-310.0507
 30
0.0
 10
131.9
 20
-308.5
 30
0.0
 10
131.9
 20
-308.5
 30
0.0
 10
131.9
 20
-308.5
 30
0.0
 10
131.9
 20
-308.5
 30
0.0
 10
131.9
 20
-306.9508
 30
0.0
 10
131.9
 20
-306.9508
 30
0.0
 10
131.9
 20
-306.9508
 30
0.0
 10
131.9
 20
-306.9508
 30
0.0
 10
132.3156
 20
-306.9508
 30
0.0
 10
132.3156
 20
-306.9508
 30
0.0
 10
132.3156
 20
-306.9508
 30
0.0
 10
132.5876
 20
-306.4794
 30
0.0
 10
132.9794
 20
-306.0879
 30
0.0
 10
133.4507
 20
-305.816
 30
0.0
 10
133.4507
 20
-305.816
 30
0.0
 10
133.4507
 20
-305.816
 30
0.0
 10
133.4507
 20
-305.4001
 30
0.0
 10
133.4507
 20
-305.4001
 30
0.0
 10
133.4507
 20
-305.4001
 30
0.0
 10
133.4507
 20
-305.4001
 30
0.0
 10
135.0
 20
-305.4001
 30
0.0
 10
135.0
 20
-305.4001
 30
0.0
 10
135.0
 20
-305.4001
 30
0.0
 10
135.0
 20
-305.4001
 30
0.0
 10
136.5508
 20
-305.4001
 30
0.0
 10
136.5508
 20
-305.4001
 30
0.0
 10
136.5508
 20
-305.4001
 30
0.0
 10
136.5508
 20
-305.4001
 30
0.0
 10
136.5508
 20
-305.816
 30
0.0
 10
136.5508
 20
-305.816
 30
0.0
 10
136.5508
 20
-305.816
 30
0.0
 10
137.0206
 20
-306.0879
 30
0.0
 10
137.4136
 20
-306.4794
 30
0.0
 10
137.6856
 20
-306.9508
 30
0.0
 10
137.6856
 20
-306.9508
 30
0.0
 10
137.6856
 20
-306.9508
 30
0.0
 10
138.1
 20
-306.9508
 30
0.0
 10
138.1
 20
-306.9508
 30
0.0
 10
138.1
 20
-306.9508
 30
0.0
 10
138.1
 20
-306.9508
 30
0.0
 10
138.1
 20
-308.5
 30
0.0
 10
138.1
 20
-308.5
 30
0.0
 10
138.1
 20
-308.5
 30
0.0
 10
138.1
 20
-308.5
 30
0.0
 10
138.1
 20
-310.0507
 30
0.0
 10
138.1
 20
-310.0507
 30
0.0
 10
138.1
 20
-310.0507
 30
0.0
 10
138.1
 20
-310.0507
 30
0.0
 10
137.6856
 20
-310.0507
 30
0.0
 10
137.6856
 20
-310.0507
 30
0.0
 10
137.6856
 20
-310.0507
 30
0.0
 10
137.4136
 20
-310.5206
 30
0.0
 10
137.0206
 20
-310.9135
 30
0.0
 10
136.5508
 20
-311.1855
 30
0.0
 10
136.5508
 20
-311.1855
 30
0.0
 10
136.5508
 20
-311.1855
 30
0.0
 10
136.5508
 20
-311.6
 30
0.0
 10
136.5508
 20
-311.6
 30
0.0
 10
136.5508
 20
-311.6
 30
0.0
 10
136.5508
 20
-311.6
 30
0.0
 10
135.0
 20
-311.6
 30
0.0
 10
135.0
 20
-311.6
 30
0.0
 10
135.0
 20
-311.6
 30
0.0
 10
135.0
 20
-311.6
 30
0.0
 10
133.4507
 20
-311.6
 30
0.0
 10
133.4507
 20
-311.6
 30
0.0
  0
SPLINE
  5
82
330
1F
100
AcDbEntity
  8
LAYER_1
100
AcDbSpline
210
0.0
220
0.0
230
1.0
 70
    11
 71
     3
 72
    84
 73
    80
 74
     0
 42
0.0000000001
 43
0.0000000001
 40
0.0
 40
0.0
 40
0.0
 40
0.0
 40
0.05
 40
0.05
 40
0.05
 40
0.05
 40
0.1
 40
0.1
 40
0.1
 40
0.1
 40
0.15
 40
0.15
 40
0.15
 40
0.15
 40
0.2
 40
0.2
 40
0.2
 40
0.2
 40
0.25
 40
0.25
 40
0.25
 40
0.25
 40
0.3
 40
0.3
 40
0.3
 40
0.3
 40
0.35
 40
0.35
 40
0.35
 40
0.35
 40
0.4
 40
0.4
 40
0.4
 40
0.4
 40
0.45
 40
0.45
 40
0.45
 40
0.45
 40
0.4999999999999999
 40
0.4999999999999999
 40
0.4999999999999999
 40
0.4999999999999999
 40
0.5499999999999999
 40
0.5499999999999999
 40
0.5499999999999999
 40
0.5499999999999999
 40
0.6
 40
0.6
 40
0.6
 40
0.6
 40
0.65
 40
0.65
 40
0.65
 40
0.65
 40
0.7000000000000001
 40
0.7000000000000001
 40
0.7000000000000001
 40
0.7000000000000001
 40
0.7500000000000001
 40
0.7500000000000001
 40
0.7500000000000001
 40
0.7500000000000001
 40
0.8000000000000002
 40
0.8000000000000002
 40
0.8000000000000002
 40
0.8000000000000002
 40
0.8500000000000002
 40
0.8500000000000002
 40
0.8500000000000002
 40
0.8500000000000002
 40
0.9000000000000002
 40
0.9000000000000002
 40
0.9000000000000002
 40
0.9000000000000002
 40
0.9500000000000003
 40
0.9500000000000003
 40
0.9500000000000003
 40
0.9500000000000003
 40
1.0
 40
1.0
 40
1.0
 40
1.0
 10
133.4507
 20
-351.6
 30
0.0
 10
133.4507
 20
-351.6
 30
0.0
 10
133.4507
 20
-351.1855
 30
0.0
 10
133.4507
 20
-351.1855
 30
0.0
 10
133.4507
 20
-351.1855
 30
0.0
 10
132.9794
 20
-350.9135
 30
0.0
 10
132.5876
 20
-350.5206
 30
0.0
 10
132.3156
 20
-350.0507
 30
0.0
 10
132.3156
 20
-350.0507
 30
0.0
 10
132.3156
 20
-350.0507
 30
0.0
 10
131.9
 20
-350.0507
 30
0.0
 10
131.9
 20
-350.0507
 30
0.0
 10
131.9
 20
-350.0507
 30
0.0
 10
131.9
 20
-350.0507
 30
0.0
 10
131.9
 20
-348.5
 30
0.0
 10
131.9
 20
-348.5
 30
0.0
 10
131.9
 20
-348.5
 30
0.0
 10
131.9
 20
-348.5
 30
0.0
 10
131.9
 20
-346.9508
 30
0.0
 10
131.9
 20
-346.9508
 30
0.0
 10
131.9
 20
-346.9508
 30
0.0
 10
131.9
 20
-346.9508
 30
0.0
 10
132.3156
 20
-346.9508
 30
0.0
 10
132.3156
 20
-346.9508
 30
0.0
 10
132.3156
 20
-346.9508
 30
0.0
 10
132.5876
 20
-346.4794
 30
0.0
 10
132.9794
 20
-346.0879
 30
0.0
 10
133.4507
 20
-345.816
 30
0.0
 10
133.4507
 20
-345.816
 30
0.0
 10
133.4507
 20
-345.816
 30
0.0
 10
133.4507
 20
-345.4001
 30
0.0
 10
133.4507
 20
-345.4001
 30
0.0
 10
133.4507
 20
-345.4001
 30
0.0
 10
133.4507
 20
-345.4001
 30
0.0
 10
135.0
 20
-345.4001
 30
0.0
 10
135.0
 20
-345.4001
 30
0.0
 10
135.0
 20
-345.4001
 30
0.0
 10
135.0
 20
-345.4001
 30
0.0
 10
136.5508
 20
-345.4001
 30
0.0
 10
136.5508
 20
-345.4001
 30
0.0
 10
136.5508
 20
-345.4001
 30
0.0
 10
136.5508
 20
-345.4001
 30
0.0
 10
136.5508
 20
-345.816
 30
0.0
 10
136.5508
 20
-345.816
 30
0.0
 10
136.5508
 20
-345.816
 30
0.0
 10
137.0206
 20
-346.0879
 30
0.0
 10
137.4136
 20
-346.4794
 30
0.0
 10
137.6856
 20
-346.9508
 30
0.0
 10
137.6856
 20
-346.9508
 30
0.0
 10
137.6856
 20
-346.9508
 30
0.0
 10
138.1
 20
-346.9508
 30
0.0
 10
138.1
 20
-346.9508
 30
0.0
 10
138.1
 20
-346.9508
 30
0.0
 10
138.1
 20
-346.9508
 30
0.0
 10
138.1
 20
-348.5
 30
0.0
 10
138.1
 20
-348.5
 30
0.0
 10
138.1
 20
-348.5
 30
0.0
 10
138.1
 20
-348.5
 30
0.0
 10
138.1
 20
-350.0507
 30
0.0
 10
138.1
 20
-350.0507
 30
0.0
 10
138.1
 20
-350.0507
 30
0.0
 10
138.1
 20
-350.0507
 30
0.0
 10
137.6856
 20
-350.0507
 30
0.0
 10
137.6856
 20
-350.0507
 30
0.0
 10
137.6856
 20
-350.0507
 30
0.0
 10
137.4136
 20
-350.5206
 30
0.0
 10
137.0206
 20
-350.9135
 30
0.0
 10
136.5508
 20
-351.1855
 30
0.0
 10
136.5508
 20
-351.1855
 30
0.0
 10
136.5508
 20
-351.1855
 30
0.0
 10
136.5508
 20
-351.6
 30
0.0
 10
136.5508
 20
-351.6
 30
0.0
 10
136.5508
 20
-351.6
 30
0.0
 10
136.5508
 20
-351.6
 30
0.0
 10
135.0
 20
-351.6
 30
0.0
 10
135.0
 20
-351.6
 30
0.0
 10
135.0
 20
-351.6
 30
0.0
 10
135.0
 20
-351.6
 30
0.0
 10
133.4507
 20
-351.6
 30
0.0
 10
133.4507
 20
-351.6
 30
0.0
  0
SPLINE
  5
83
330
1F
100
AcDbEntity
  8
LAYER_1
100
AcDbSpline
210
0.0
220
0.0
230
1.0
 70
    11
 71
     3
 72
    84
 73
    80
 74
     0
 42
0.0000000001
 43
0.0000000001
 40
0.0
 40
0.0
 40
0.0
 40
0.0
 40
0.05
 40
0.05
 40
0.05
 40
0.05
 40
0.1
 40
0.1
 40
0.1
 40
0.1
 40
0.15
 40
0.15
 40
0.15
 40
0.15
 40
0.2
 40
0.2
 40
0.2
 40
0.2
 40
0.25
 40
0.25
 40
0.25
 40
0.25
 40
0.3
 40
0.3
 40
0.3
 40
0.3
 40
0.35
 40
0.35
 40
0.35
 40
0.35
 40
0.4
 40
0.4
 40
0.4
 40
0.4
 40
0.45
 40
0.45
 40
0.45
 40
0.45
 40
0.4999999999999999
 40
0.4999999999999999
 40
0.4999999999999999
 40
0.4999999999999999
 40
0.5499999999999999
 40
0.5499999999999999
 40
0.5499999999999999
 40
0.5499999999999999
 40
0.6
 40
0.6
 40
0.6
 40
0.6
 40
0.65
 40
0.65
 40
0.65
 40
0.65
 40
0.7000000000000001
 40
0.7000000000000001
 40
0.7000000000000001
 40
0.7000000000000001
 40
0.7500000000000001
 40
0.7500000000000001
 40
0.7500000000000001
 40
0.7500000000000001
 40
0.8000000000000002
 40
0.8000000000000002
 40
0.8000000000000002
 40
0.8000000000000002
 40
0.8500000000000002
 40
0.8500000000000002
 40
0.8500000000000002
 40
0.8500000000000002
 40
0.9000000000000002
 40
0.9000000000000002
 40
0.9000000000000002
 40
0.9000000000000002
 40
0.9500000000000003
 40
0.9500000000000003
 40
0.9500000000000003
 40
0.9500000000000003
 40
1.0
 40
1.0
 40
1.0
 40
1.0
 10
233.4507
 20
-311.6
 30
0.0
 10
233.4507
 20
-311.6
 30
0.0
 10
233.4507
 20
-311.1855
 30
0.0
 10
233.4507
 20
-311.1855
 30
0.0
 10
233.4507
 20
-311.1855
 30
0.0
 10
232.9794
 20
-310.9135
 30
0.0
 10
232.5876
 20
-310.5206
 30
0.0
 10
232.3156
 20
-310.0507
 30
0.0
 10
232.3156
 20
-310.0507
 30
0.0
 10
232.3156
 20
-310.0507
 30
0.0
 10
231.9
 20
-310.0507
 30
0.0
 10
231.9
 20
-310.0507
 30
0.0
 10
231.9
 20
-310.0507
 30
0.0
 10
231.9
 20
-310.0507
 30
0.0
 10
231.9
 20
-308.5
 30
0.0
 10
231.9
 20
-308.5
 30
0.0
 10
231.9
 20
-308.5
 30
0.0
 10
231.9
 20
-308.5
 30
0.0
 10
231.9
 20
-306.9508
 30
0.0
 10
231.9
 20
-306.9508
 30
0.0
 10
231.9
 20
-306.9508
 30
0.0
 10
231.9
 20
-306.9508
 30
0.0
 10
232.3156
 20
-306.9508
 30
0.0
 10
232.3156
 20
-306.9508
 30
0.0
 10
232.3156
 20
-306.9508
 30
0.0
 10
232.5876
 20
-306.4794
 30
0.0
 10
232.9794
 20
-306.0879
 30
0.0
 10
233.4507
 20
-305.816
 30
0.0
 10
233.4507
 20
-305.816
 30
0.0
 10
233.4507
 20
-305.816
 30
0.0
 10
233.4507
 20
-305.4001
 30
0.0
 10
233.4507
 20
-305.4001
 30
0.0
 10
233.4507
 20
-305.4001
 30
0.0
 10
233.4507
 20
-305.4001
 30
0.0
 10
235.0
 20
-305.4001
 30
0.0
 10
235.0
 20
-305.4001
 30
0.0
 10
235.0
 20
-305.4001
 30
0.0
 10
235.0
 20
-305.4001
 30
0.0
 10
236.5508
 20
-305.4001
 30
0.0
 10
236.5508
 20
-305.4001
 30
0.0
 10
236.5508
 20
-305.4001
 30
0.0
 10
236.5508
 20
-305.4001
 30
0.0
 10
236.5508
 20
-305.816
 30
0.0
 10
236.5508
 20
-305.816
 30
0.0
 10
236.5508
 20
-305.816
 30
0.0
 10
237.0206
 20
-306.0879
 30
0.0
 10
237.4136
 20
-306.4794
 30
0.0
 10
237.6856
 20
-306.9508
 30
0.0
 10
237.6856
 20
-306.9508
 30
0.0
 10
237.6856
 20
-306.9508
 30
0.0
 10
238.1
 20
-306.9508
 30
0.0
 10
238.1
 20
-306.9508
 30
0.0
 10
238.1
 20
-306.9508
 30
0.0
 10
238.1
 20
-306.9508
 30
0.0
 10
238.1
 20
-308.5
 30
0.0
 10
238.1
 20
-308.5
 30
0.0
 10
238.1
 20
-308.5
 30
0.0
 10
238.1
 20
-308.5
 30
0.0
 10
238.1
 20
-310.0507
 30
0.0
 10
238.1
 20
-310.0507
 30
0.0
 10
238.1
 20
-310.0507
 30
0.0
 10
238.1
 20
-310.0507
 30
0.0
 10
237.6856
 20
-310.0507
 30
0.0
 10
237.6856
 20
-310.0507
 30
0.0
 10
237.6856
 20
-310.0507
 30
0.0
 10
237.4136
 20
-310.5206
 30
0.0
 10
237.0206
 20
-310.9135
 30
0.0
 10
236.5508
 20
-311.1855
 30
0.0
 10
236.5508
 20
-311.1855
 30
0.0
 10
236.5508
 20
-311.1855
 30
0.0
 10
236.5508
 20
-311.6
 30
0.0
 10
236.5508
 20
-311.6
 30
0.0
 10
236.5508
 20
-311.6
 30
0.0
 10
236.5508
 20
-311.6
 30
0.0
 10
235.0
 20
-311.6
 30
0.0
 10
235.0
 20
-311.6
 30
0.0
 10
235.0
 20
-311.6
 30
0.0
 10
235.0
 20
-311.6
 30
0.0
 10
233.4507
 20
-311.6
 30
0.0
 10
233.4507
 20
-311.6
 30
0.0
  0
SPLINE
  5
84
330
1F
100
AcDbEntity
  8
LAYER_1
100
AcDbSpline
210
0.0
220
0.0
230
1.0
 70
    11
 71
     3
 72
    84
 73
    80
 74
     0
 42
0.0000000001
 43
0.0000000001
 40
0.0
 40
0.0
 40
0.0
 40
0.0
 40
0.05
 40
0.05
 40
0.05
 40
0.05
 40
0.1
 40
0.1
 40
0.1
 40
0.1
 40
0.15
 40
0.15
 40
0.15
 40
0.15
 40
0.2
 40
0.2
 40
0.2
 40
0.2
 40
0.25
 40
0.25
 40
0.25
 40
0.25
 40
0.3
 40
0.3
 40
0.3
 40
0.3
 40
0.35
 40
0.35
 40
0.35
 40
0.35
 40
0.4
 40
0.4
 40
0.4
 40
0.4
 40
0.45
 40
0.45
 40
0.45
 40
0.45
 40
0.4999999999999999
 40
0.4999999999999999
 40
0.4999999999999999
 40
0.4999999999999999
 40
0.5499999999999999
 40
0.5499999999999999
 40
0.5499999999999999
 40
0.5499999999999999
 40
0.6
 40
0.6
 40
0.6
 40
0.6
 40
0.65
 40
0.65
 40
0.65
 40
0.65
 40
0.7000000000000001
 40
0.7000000000000001
 40
0.7000000000000001
 40
0.7000000000000001
 40
0.7500000000000001
 40
0.7500000000000001
 40
0.7500000000000001
 40
0.7500000000000001
 40
0.8000000000000002
 40
0.8000000000000002
 40
0.8000000000000002
 40
0.8000000000000002
 40
0.8500000000000002
 40
0.8500000000000002
 40
0.8500000000000002
 40
0.8500000000000002
 40
0.9000000000000002
 40
0.9000000000000002
 40
0.9000000000000002
 40
0.9000000000000002
 40
0.9500000000000003
 40
0.9500000000000003
 40
0.9500000000000003
 40
0.9500000000000003
 40
1.0
 40
1.0
 40
1.0
 40
1.0
 10
193.4507
 20
-311.6
 30
0.0
 10
193.4507
 20
-311.6
 30
0.0
 10
193.4507
 20
-311.1855
 30
0.0
 10
193.4507
 20
-311.1855
 30
0.0
 10
193.4507
 20
-311.1855
 30
0.0
 10
192.9794
 20
-310.9135
 30
0.0
 10
192.5876
 20
-310.5206
 30
0.0
 10
192.3156
 20
-310.0507
 30
0.0
 10
192.3156
 20
-310.0507
 30
0.0
 10
192.3156
 20
-310.0507
 30
0.0
 10
191.9
 20
-310.0507
 30
0.0
 10
191.9
 20
-310.0507
 30
0.0
 10
191.9
 20
-310.0507
 30
0.0
 10
191.9
 20
-310.0507
 30
0.0
 10
191.9
 20
-308.5
 30
0.0
 10
191.9
 20
-308.5
 30
0.0
 10
191.9
 20
-308.5
 30
0.0
 10
191.9
 20
-308.5
 30
0.0
 10
191.9
 20
-306.9508
 30
0.0
 10
191.9
 20
-306.9508
 30
0.0
 10
191.9
 20
-306.9508
 30
0.0
 10
191.9
 20
-306.9508
 30
0.0
 10
192.3156
 20
-306.9508
 30
0.0
 10
192.3156
 20
-306.9508
 30
0.0
 10
192.3156
 20
-306.9508
 30
0.0
 10
192.5876
 20
-306.4794
 30
0.0
 10
192.9794
 20
-306.0879
 30
0.0
 10
193.4507
 20
-305.816
 30
0.0
 10
193.4507
 20
-305.816
 30
0.0
 10
193.4507
 20
-305.816
 30
0.0
 10
193.4507
 20
-305.4001
 30
0.0
 10
193.4507
 20
-305.4001
 30
0.0
 10
193.4507
 20
-305.4001
 30
0.0
 10
193.4507
 20
-305.4001
 30
0.0
 10
195.0
 20
-305.4001
 30
0.0
 10
195.0
 20
-305.4001
 30
0.0
 10
195.0
 20
-305.4001
 30
0.0
 10
195.0
 20
-305.4001
 30
0.0
 10
196.5508
 20
-305.4001
 30
0.0
 10
196.5508
 20
-305.4001
 30
0.0
 10
196.5508
 20
-305.4001
 30
0.0
 10
196.5508
 20
-305.4001
 30
0.0
 10
196.5508
 20
-305.816
 30
0.0
 10
196.5508
 20
-305.816
 30
0.0
 10
196.5508
 20
-305.816
 30
0.0
 10
197.0206
 20
-306.0879
 30
0.0
 10
197.4136
 20
-306.4794
 30
0.0
 10
197.6856
 20
-306.9508
 30
0.0
 10
197.6856
 20
-306.9508
 30
0.0
 10
197.6856
 20
-306.9508
 30
0.0
 10
198.1
 20
-306.9508
 30
0.0
 10
198.1
 20
-306.9508
 30
0.0
 10
198.1
 20
-306.9508
 30
0.0
 10
198.1
 20
-306.9508
 30
0.0
 10
198.1
 20
-308.5
 30
0.0
 10
198.1
 20
-308.5
 30
0.0
 10
198.1
 20
-308.5
 30
0.0
 10
198.1
 20
-308.5
 30
0.0
 10
198.1
 20
-310.0507
 30
0.0
 10
198.1
 20
-310.0507
 30
0.0
 10
198.1
 20
-310.0507
 30
0.0
 10
198.1
 20
-310.0507
 30
0.0
 10
197.6856
 20
-310.0507
 30
0.0
 10
197.6856
 20
-310.0507
 30
0.0
 10
197.6856
 20
-310.0507
 30
0.0
 10
197.4136
 20
-310.5206
 30
0.0
 10
197.0206
 20
-310.9135
 30
0.0
 10
196.5508
 20
-311.1855
 30
0.0
 10
196.5508
 20
-311.1855
 30
0.0
 10
196.5508
 20
-311.1855
 30
0.0
 10
196.5508
 20
-311.6
 30
0.0
 10
196.5508
 20
-311.6
 30
0.0
 10
196.5508
 20
-311.6
 30
0.0
 10
196.5508
 20
-311.6
 30
0.0
 10
195.0
 20
-311.6
 30
0.0
 10
195.0
 20
-311.6
 30
0.0
 10
195.0
 20
-311.6
 30
0.0
 10
195.0
 20
-311.6
 30
0.0
 10
193.4507
 20
-311.6
 30
0.0
 10
193.4507
 20
-311.6
 30
0.0
  0
SPLINE
  5
85
330
1F
100
AcDbEntity
  8
LAYER_1
100
AcDbSpline
210
0.0
220
0.0
230
1.0
 70
    11
 71
     3
 72
    84
 73
    80
 74
     0
 42
0.0000000001
 43
0.0000000001
 40
0.0
 40
0.0
 40
0.0
 40
0.0
 40
0.05
 40
0.05
 40
0.05
 40
0.05
 40
0.1
 40
0.1
 40
0.1
 40
0.1
 40
0.15
 40
0.15
 40
0.15
 40
0.15
 40
0.2
 40
0.2
 40
0.2
 40
0.2
 40
0.25
 40
0.25
 40
0.25
 40
0.25
 40
0.3
 40
0.3
 40
0.3
 40
0.3
 40
0.35
 40
0.35
 40
0.35
 40
0.35
 40
0.4
 40
0.4
 40
0.4
 40
0.4
 40
0.45
 40
0.45
 40
0.45
 40
0.45
 40
0.4999999999999999
 40
0.4999999999999999
 40
0.4999999999999999
 40
0.4999999999999999
 40
0.5499999999999999
 40
0.5499999999999999
 40
0.5499999999999999
 40
0.5499999999999999
 40
0.6
 40
0.6
 40
0.6
 40
0.6
 40
0.65
 40
0.65
 40
0.65
 40
0.65
 40
0.7000000000000001
 40
0.7000000000000001
 40
0.7000000000000001
 40
0.7000000000000001
 40
0.7500000000000001
 40
0.7500000000000001
 40
0.7500000000000001
 40
0.7500000000000001
 40
0.8000000000000002
 40
0.8000000000000002
 40
0.8000000000000002
 40
0.8000000000000002
 40
0.8500000000000002
 40
0.8500000000000002
 40
0.8500000000000002
 40
0.8500000000000002
 40
0.9000000000000002
 40
0.9000000000000002
 40
0.9000000000000002
 40
0.9000000000000002
 40
0.9500000000000003
 40
0.9500000000000003
 40
0.9500000000000003
 40
0.9500000000000003
 40
1.0
 40
1.0
 40
1.0
 40
1.0
 10
233.4507
 20
-351.6
 30
0.0
 10
233.4507
 20
-351.6
 30
0.0
 10
233.4507
 20
-351.1855
 30
0.0
 10
233.4507
 20
-351.1855
 30
0.0
 10
233.4507
 20
-351.1855
 30
0.0
 10
232.9794
 20
-350.9135
 30
0.0
 10
232.5876
 20
-350.5206
 30
0.0
 10
232.3156
 20
-350.0507
 30
0.0
 10
232.3156
 20
-350.0507
 30
0.0
 10
232.3156
 20
-350.0507
 30
0.0
 10
231.9
 20
-350.0507
 30
0.0
 10
231.9
 20
-350.0507
 30
0.0
 10
231.9
 20
-350.0507
 30
0.0
 10
231.9
 20
-350.0507
 30
0.0
 10
231.9
 20
-348.5
 30
0.0
 10
231.9
 20
-348.5
 30
0.0
 10
231.9
 20
-348.5
 30
0.0
 10
231.9
 20
-348.5
 30
0.0
 10
231.9
 20
-346.9508
 30
0.0
 10
231.9
 20
-346.9508
 30
0.0
 10
231.9
 20
-346.9508
 30
0.0
 10
231.9
 20
-346.9508
 30
0.0
 10
232.3156
 20
-346.9508
 30
0.0
 10
232.3156
 20
-346.9508
 30
0.0
 10
232.3156
 20
-346.9508
 30
0.0
 10
232.5876
 20
-346.4794
 30
0.0
 10
232.9794
 20
-346.0879
 30
0.0
 10
233.4507
 20
-345.816
 30
0.0
 10
233.4507
 20
-345.816
 30
0.0
 10
233.4507
 20
-345.816
 30
0.0
 10
233.4507
 20
-345.4001
 30
0.0
 10
233.4507
 20
-345.4001
 30
0.0
 10
233.4507
 20
-345.4001
 30
0.0
 10
233.4507
 20
-345.4001
 30
0.0
 10
235.0
 20
-345.4001
 30
0.0
 10
235.0
 20
-345.4001
 30
0.0
 10
235.0
 20
-345.4001
 30
0.0
 10
235.0
 20
-345.4001
 30
0.0
 10
236.5508
 20
-345.4001
 30
0.0
 10
236.5508
 20
-345.4001
 30
0.0
 10
236.5508
 20
-345.4001
 30
0.0
 10
236.5508
 20
-345.4001
 30
0.0
 10
236.5508
 20
-345.816
 30
0.0
 10
236.5508
 20
-345.816
 30
0.0
 10
236.5508
 20
-345.816
 30
0.0
 10
237.0206
 20
-346.0879
 30
0.0
 10
237.4136
 20
-346.4794
 30
0.0
 10
237.6856
 20
-346.9508
 30
0.0
 10
237.6856
 20
-346.9508
 30
0.0
 10
237.6856
 20
-346.9508
 30
0.0
 10
238.1
 20
-346.9508
 30
0.0
 10
238.1
 20
-346.9508
 30
0.0
 10
238.1
 20
-346.9508
 30
0.0
 10
238.1
 20
-346.9508
 30
0.0
 10
238.1
 20
-348.5
 30
0.0
 10
238.1
 20
-348.5
 30
0.0
 10
238.1
 20
-348.5
 30
0.0
 10
238.1
 20
-348.5
 30
0.0
 10
238.1
 20
-350.0507
 30
0.0
 10
238.1
 20
-350.0507
 30
0.0
 10
238.1
 20
-350.0507
 30
0.0
 10
238.1
 20
-350.0507
 30
0.0
 10
237.6856
 20
-350.0507
 30
0.0
 10
237.6856
 20
-350.0507
 30
0.0
 10
237.6856
 20
-350.0507
 30
0.0
 10
237.4136
 20
-350.5206
 30
0.0
 10
237.0206
 20
-350.9135
 30
0.0
 10
236.5508
 20
-351.1855
 30
0.0
 10
236.5508
 20
-351.1855
 30
0.0
 10
236.5508
 20
-351.1855
 30
0.0
 10
236.5508
 20
-351.6
 30
0.0
 10
236.5508
 20
-351.6
 30
0.0
 10
236.5508
 20
-351.6
 30
0.0
 10
236.5508
 20
-351.6
 30
0.0
 10
235.0
 20
-351.6
 30
0.0
 10
235.0
 20
-351.6
 30
0.0
 10
235.0
 20
-351.6
 30
0.0
 10
235.0
 20
-351.6
 30
0.0
 10
233.4507
 20
-351.6
 30
0.0
 10
233.4507
 20
-351.6
 30
0.0
  0
SPLINE
  5
86
330
1F
100
AcDbEntity
  8
LAYER_1
100
AcDbSpline
210
0.0
220
0.0
230
1.0
 70
    11
 71
     3
 72
    84
 73
    80
 74
     0
 42
0.0000000001
 43
0.0000000001
 40
0.0
 40
0.0
 40
0.0
 40
0.0
 40
0.05
 40
0.05
 40
0.05
 40
0.05
 40
0.1
 40
0.1
 40
0.1
 40
0.1
 40
0.15
 40
0.15
 40
0.15
 40
0.15
 40
0.2
 40
0.2
 40
0.2
 40
0.2
 40
0.25
 40
0.25
 40
0.25
 40
0.25
 40
0.3
 40
0.3
 40
0.3
 40
0.3
 40
0.35
 40
0.35
 40
0.35
 40
0.35
 40
0.4
 40
0.4
 40
0.4
 40
0.4
 40
0.45
 40
0.45
 40
0.45
 40
0.45
 40
0.4999999999999999
 40
0.4999999999999999
 40
0.4999999999999999
 40
0.4999999999999999
 40
0.5499999999999999
 40
0.5499999999999999
 40
0.5499999999999999
 40
0.5499999999999999
 40
0.6
 40
0.6
 40
0.6
 40
0.6
 40
0.65
 40
0.65
 40
0.65
 40
0.65
 40
0.7000000000000001
 40
0.7000000000000001
 40
0.7000000000000001
 40
0.7000000000000001
 40
0.7500000000000001
 40
0.7500000000000001
 40
0.7500000000000001
 40
0.7500000000000001
 40
0.8000000000000002
 40
0.8000000000000002
 40
0.8000000000000002
 40
0.8000000000000002
 40
0.8500000000000002
 40
0.8500000000000002
 40
0.8500000000000002
 40
0.8500000000000002
 40
0.9000000000000002
 40
0.9000000000000002
 40
0.9000000000000002
 40
0.9000000000000002
 40
0.9500000000000003
 40
0.9500000000000003
 40
0.9500000000000003
 40
0.9500000000000003
 40
1.0
 40
1.0
 40
1.0
 40
1.0
 10
193.4507
 20
-351.6
 30
0.0
 10
193.4507
 20
-351.6
 30
0.0
 10
193.4507
 20
-351.1855
 30
0.0
 10
193.4507
 20
-351.1855
 30
0.0
 10
193.4507
 20
-351.1855
 30
0.0
 10
192.9794
 20
-350.9135
 30
0.0
 10
192.5876
 20
-350.5206
 30
0.0
 10
192.3156
 20
-350.0507
 30
0.0
 10
192.3156
 20
-350.0507
 30
0.0
 10
192.3156
 20
-350.0507
 30
0.0
 10
191.9
 20
-350.0507
 30
0.0
 10
191.9
 20
-350.0507
 30
0.0
 10
191.9
 20
-350.0507
 30
0.0
 10
191.9
 20
-350.0507
 30
0.0
 10
191.9
 20
-348.5
 30
0.0
 10
191.9
 20
-348.5
 30
0.0
 10
191.9
 20
-348.5
 30
0.0
 10
191.9
 20
-348.5
 30
0.0
 10
191.9
 20
-346.9508
 30
0.0
 10
191.9
 20
-346.9508
 30
0.0
 10
191.9
 20
-346.9508
 30
0.0
 10
191.9
 20
-346.9508
 30
0.0
 10
192.3156
 20
-346.9508
 30
0.0
 10
192.3156
 20
-346.9508
 30
0.0
 10
192.3156
 20
-346.9508
 30
0.0
 10
192.5876
 20
-346.4794
 30
0.0
 10
192.9794
 20
-346.0879
 30
0.0
 10
193.4507
 20
-345.816
 30
0.0
 10
193.4507
 20
-345.816
 30
0.0
 10
193.4507
 20
-345.816
 30
0.0
 10
193.4507
 20
-345.4001
 30
0.0
 10
193.4507
 20
-345.4001
 30
0.0
 10
193.4507
 20
-345.4001
 30
0.0
 10
193.4507
 20
-345.4001
 30
0.0
 10
195.0
 20
-345.4001
 30
0.0
 10
195.0
 20
-345.4001
 30
0.0
 10
195.0
 20
-345.4001
 30
0.0
 10
195.0
 20
-345.4001
 30
0.0
 10
196.5508
 20
-345.4001
 30
0.0
 10
196.5508
 20
-345.4001
 30
0.0
 10
196.5508
 20
-345.4001
 30
0.0
 10
196.5508
 20
-345.4001
 30
0.0
 10
196.5508
 20
-345.816
 30
0.0
 10
196.5508
 20
-345.816
 30
0.0
 10
196.5508
 20
-345.816
 30
0.0
 10
197.0206
 20
-346.0879
 30
0.0
 10
197.4136
 20
-346.4794
 30
0.0
 10
197.6856
 20
-346.9508
 30
0.0
 10
197.6856
 20
-346.9508
 30
0.0
 10
197.6856
 20
-346.9508
 30
0.0
 10
198.1
 20
-346.9508
 30
0.0
 10
198.1
 20
-346.9508
 30
0.0
 10
198.1
 20
-346.9508
 30
0.0
 10
198.1
 20
-346.9508
 30
0.0
 10
198.1
 20
-348.5
 30
0.0
 10
198.1
 20
-348.5
 30
0.0
 10
198.1
 20
-348.5
 30
0.0
 10
198.1
 20
-348.5
 30
0.0
 10
198.1
 20
-350.0507
 30
0.0
 10
198.1
 20
-350.0507
 30
0.0
 10
198.1
 20
-350.0507
 30
0.0
 10
198.1
 20
-350.0507
 30
0.0
 10
197.6856
 20
-350.0507
 30
0.0
 10
197.6856
 20
-350.0507
 30
0.0
 10
197.6856
 20
-350.0507
 30
0.0
 10
197.4136
 20
-350.5206
 30
0.0
 10
197.0206
 20
-350.9135
 30
0.0
 10
196.5508
 20
-351.1855
 30
0.0
 10
196.5508
 20
-351.1855
 30
0.0
 10
196.5508
 20
-351.1855
 30
0.0
 10
196.5508
 20
-351.6
 30
0.0
 10
196.5508
 20
-351.6
 30
0.0
 10
196.5508
 20
-351.6
 30
0.0
 10
196.5508
 20
-351.6
 30
0.0
 10
195.0
 20
-351.6
 30
0.0
 10
195.0
 20
-351.6
 30
0.0
 10
195.0
 20
-351.6
 30
0.0
 10
195.0
 20
-351.6
 30
0.0
 10
193.4507
 20
-351.6
 30
0.0
 10
193.4507
 20
-351.6
 30
0.0
  0
SPLINE
  5
87
330
1F
100
AcDbEntity
  8
LAYER_1
100
AcDbSpline
210
0.0
220
0.0
230
1.0
 70
    11
 71
     3
 72
    20
 73
    16
 74
     0
 42
0.0000000001
 43
0.0000000001
 40
0.0
 40
0.0
 40
0.0
 40
0.0
 40
0.25
 40
0.25
 40
0.25
 40
0.25
 40
0.5
 40
0.5
 40
0.5
 40
0.5
 40
0.75
 40
0.75
 40
0.75
 40
0.75
 40
1.0
 40
1.0
 40
1.0
 40
1.0
 10
201.8
 20
-310.1
 30
0.0
 10
201.8
 20
-310.1
 30
0.0
 10
201.8
 20
-306.9
 30
0.0
 10
201.8
 20
-306.9
 30
0.0
 10
201.8
 20
-306.9
 30
0.0
 10
201.8
 20
-306.9
 30
0.0
 10
208.2
 20
-306.9
 30
0.0
 10
208.2
 20
-306.9
 30
0.0
 10
208.2
 20
-306.9
 30
0.0
 10
208.2
 20
-306.9
 30
0.0
 10
208.2
 20
-310.1
 30
0.0
 10
208.2
 20
-310.1
 30
0.0
 10
208.2
 20
-310.1
 30
0.0
 10
208.2
 20
-310.1
 30
0.0
 10
201.8
 20
-310.1
 30
0.0
 10
201.8
 20
-310.1
 30
0.0
  0
SPLINE
  5
88
330
1F
100
AcDbEntity
  8
LAYER_1
100
AcDbSpline
210
0.0
220
0.0
230
1.0
 70
    11
 71
     3
 72
    20
 73
    16
 74
     0
 42
0.0000000001
 43
0.0000000001
 40
0.0
 40
0.0
 40
0.0
 40
0.0
 40
0.25
 40
0.25
 40
0.25
 40
0.25
 40
0.5
 40
0.5
 40
0.5
 40
0.5
 40
0.75
 40
0.75
 40
0.75
 40
0.75
 40
1.0
 40
1.0
 40
1.0
 40
1.0
 10
221.8
 20
-310.1
 30
0.0
 10
221.8
 20
-310.1
 30
0.0
 10
221.8
 20
-306.9
 30
0.0
 10
221.8
 20
-306.9
 30
0.0
 10
221.8
 20
-306.9
 30
0.0
 10
221.8
 20
-306.9
 30
0.0
 10
228.2
 20
-306.9
 30
0.0
 10
228.2
 20
-306.9
 30
0.0
 10
228.2
 20
-306.9
 30
0.0
 10
228.2
 20
-306.9
 30
0.0
 10
228.2
 20
-310.1
 30
0.0
 10
228.2
 20
-310.1
 30
0.0
 10
228.2
 20
-310.1
 30
0.0
 10
228.2
 20
-310.1
 30
0.0
 10
221.8
 20
-310.1
 30
0.0
 10
221.8
 20
-310.1
 30
0.0
  0
SPLINE
  5
89
330
1F
100
AcDbEntity
  8
LAYER_1
100
AcDbSpline
210
0.0
220
0.0
230
1.0
 70
    11
 71
     3
 72
    20
 73
    16
 74
     0
 42
0.0000000001
 43
0.0000000001
 40
0.0
 40
0.0
 40
0.0
 40
0.0
 40
0.25
 40
0.25
 40
0.25
 40
0.25
 40
0.5
 40
0.5
 40
0.5
 40
0.5
 40
0.75
 40
0.75
 40
0.75
 40
0.75
 40
1.0
 40
1.0
 40
1.0
 40
1.0
 10
201.8
 20
-350.1
 30
0.0
 10
201.8
 20
-350.1
 30
0.0
 10
201.8
 20
-346.9
 30
0.0
 10
201.8
 20
-346.9
 30
0.0
 10
201.8
 20
-346.9
 30
0.0
 10
201.8
 20
-346.9
 30
0.0
 10
208.2
 20
-346.9
 30
0.0
 10
208.2
 20
-346.9
 30
0.0
 10
208.2
 20
-346.9
 30
0.0
 10
208.2
 20
-346.9
 30
0.0
 10
208.2
 20
-350.1
 30
0.0
 10
208.2
 20
-350.1
 30
0.0
 10
208.2
 20
-350.1
 30
0.0
 10
208.2
 20
-350.1
 30
0.0
 10
201.8
 20
-350.1
 30
0.0
 10
201.8
 20
-350.1
 30
0.0
  0
SPLINE
  5
8A
330
1F
100
AcDbEntity
  8
LAYER_1
100
AcDbSpline
210
0.0
220
0.0
230
1.0
 70
    11
 71
     3
 72
    20
 73
    16
 74
     0
 42
0.0000000001
 43
0.0000000001
 40
0.0
 40
0.0
 40
0.0
 40
0.0
 40
0.25
 40
0.25
 40
0.25
 40
0.25
 40
0.5
 40
0.5
 40
0.5
 40
0.5
 40
0.75
 40
0.75
 40
0.75
 40
0.75
 40
1.0
 40
1.0
 40
1.0
 40
1.0
 10
221.8
 20
-350.1
 30
0.0
 10
221.8
 20
-350.1
 30
0.0
 10
221.8
 20
-346.9
 30
0.0
 10
221.8
 20
-346.9
 30
0.0
 10
221.8
 20
-346.9
 30
0.0
 10
221.8
 20
-346.9
 30
0.0
 10
228.2
 20
-346.9
 30
0.0
 10
228.2
 20
-346.9
 30
0.0
 10
228.2
 20
-346.9
 30
0.0
 10
228.2
 20
-346.9
 30
0.0
 10
228.2
 20
-350.1
 30
0.0
 10
228.2
 20
-350.1
 30
0.0
 10
228.2
 20
-350.1
 30
0.0
 10
228.2
 20
-350.1
 30
0.0
 10
221.8
 20
-350.1
 30
0.0
 10
221.8
 20
-350.1
 30
0.0
  0
SPLINE
  5
8B
330
1F
100
AcDbEntity
  8
LAYER_1
100
AcDbSpline
210
0.0
220
0.0
230
1.0
 70
    11
 71
     3
 72
    84
 73
    80
 74
     0
 42
0.0000000001
 43
0.0000000001
 40
0.0
 40
0.0
 40
0.0
 40
0.0
 40
0.05
 40
0.05
 40
0.05
 40
0.05
 40
0.1
 40
0.1
 40
0.1
 40
0.1
 40
0.15
 40
0.15
 40
0.15
 40
0.15
 40
0.2
 40
0.2
 40
0.2
 40
0.2
 40
0.25
 40
0.25
 40
0.25
 40
0.25
 40
0.3
 40
0.3
 40
0.3
 40
0.3
 40
0.35
 40
0.35
 40
0.35
 40
0.35
 40
0.4
 40
0.4
 40
0.4
 40
0.4
 40
0.45
 40
0.45
 40
0.45
 40
0.45
 40
0.4999999999999999
 40
0.4999999999999999
 40
0.4999999999999999
 40
0.4999999999999999
 40
0.5499999999999999
 40
0.5499999999999999
 40
0.5499999999999999
 40
0.5499999999999999
 40
0.6
 40
0.6
 40
0.6
 40
0.6
 40
0.65
 40
0.65
 40
0.65
 40
0.65
 40
0.7000000000000001
 40
0.7000000000000001
 40
0.7000000000000001
 40
0.7000000000000001
 40
0.7500000000000001
 40
0.7500000000000001
 40
0.7500000000000001
 40
0.7500000000000001
 40
0.8000000000000002
 40
0.8000000000000002
 40
0.8000000000000002
 40
0.8000000000000002
 40
0.8500000000000002
 40
0.8500000000000002
 40
0.8500000000000002
 40
0.8500000000000002
 40
0.9000000000000002
 40
0.9000000000000002
 40
0.9000000000000002
 40
0.9000000000000002
 40
0.9500000000000003
 40
0.9500000000000003
 40
0.9500000000000003
 40
0.9500000000000003
 40
1.0
 40
1.0
 40
1.0
 40
1.0
 10
213.4507
 20
-311.6
 30
0.0
 10
213.4507
 20
-311.6
 30
0.0
 10
213.4507
 20
-311.1855
 30
0.0
 10
213.4507
 20
-311.1855
 30
0.0
 10
213.4507
 20
-311.1855
 30
0.0
 10
212.9794
 20
-310.9135
 30
0.0
 10
212.5876
 20
-310.5206
 30
0.0
 10
212.3156
 20
-310.0507
 30
0.0
 10
212.3156
 20
-310.0507
 30
0.0
 10
212.3156
 20
-310.0507
 30
0.0
 10
211.9
 20
-310.0507
 30
0.0
 10
211.9
 20
-310.0507
 30
0.0
 10
211.9
 20
-310.0507
 30
0.0
 10
211.9
 20
-310.0507
 30
0.0
 10
211.9
 20
-308.5
 30
0.0
 10
211.9
 20
-308.5
 30
0.0
 10
211.9
 20
-308.5
 30
0.0
 10
211.9
 20
-308.5
 30
0.0
 10
211.9
 20
-306.9508
 30
0.0
 10
211.9
 20
-306.9508
 30
0.0
 10
211.9
 20
-306.9508
 30
0.0
 10
211.9
 20
-306.9508
 30
0.0
 10
212.3156
 20
-306.9508
 30
0.0
 10
212.3156
 20
-306.9508
 30
0.0
 10
212.3156
 20
-306.9508
 30
0.0
 10
212.5876
 20
-306.4794
 30
0.0
 10
212.9794
 20
-306.0879
 30
0.0
 10
213.4507
 20
-305.816
 30
0.0
 10
213.4507
 20
-305.816
 30
0.0
 10
213.4507
 20
-305.816
 30
0.0
 10
213.4507
 20
-305.4001
 30
0.0
 10
213.4507
 20
-305.4001
 30
0.0
 10
213.4507
 20
-305.4001
 30
0.0
 10
213.4507
 20
-305.4001
 30
0.0
 10
215.0
 20
-305.4001
 30
0.0
 10
215.0
 20
-305.4001
 30
0.0
 10
215.0
 20
-305.4001
 30
0.0
 10
215.0
 20
-305.4001
 30
0.0
 10
216.5508
 20
-305.4001
 30
0.0
 10
216.5508
 20
-305.4001
 30
0.0
 10
216.5508
 20
-305.4001
 30
0.0
 10
216.5508
 20
-305.4001
 30
0.0
 10
216.5508
 20
-305.816
 30
0.0
 10
216.5508
 20
-305.816
 30
0.0
 10
216.5508
 20
-305.816
 30
0.0
 10
217.0206
 20
-306.0879
 30
0.0
 10
217.4136
 20
-306.4794
 30
0.0
 10
217.6856
 20
-306.9508
 30
0.0
 10
217.6856
 20
-306.9508
 30
0.0
 10
217.6856
 20
-306.9508
 30
0.0
 10
218.1
 20
-306.9508
 30
0.0
 10
218.1
 20
-306.9508
 30
0.0
 10
218.1
 20
-306.9508
 30
0.0
 10
218.1
 20
-306.9508
 30
0.0
 10
218.1
 20
-308.5
 30
0.0
 10
218.1
 20
-308.5
 30
0.0
 10
218.1
 20
-308.5
 30
0.0
 10
218.1
 20
-308.5
 30
0.0
 10
218.1
 20
-310.0507
 30
0.0
 10
218.1
 20
-310.0507
 30
0.0
 10
218.1
 20
-310.0507
 30
0.0
 10
218.1
 20
-310.0507
 30
0.0
 10
217.6856
 20
-310.0507
 30
0.0
 10
217.6856
 20
-310.0507
 30
0.0
 10
217.6856
 20
-310.0507
 30
0.0
 10
217.4136
 20
-310.5206
 30
0.0
 10
217.0206
 20
-310.9135
 30
0.0
 10
216.5508
 20
-311.1855
 30
0.0
 10
216.5508
 20
-311.1855
 30
0.0
 10
216.5508
 20
-311.1855
 30
0.0
 10
216.5508
 20
-311.6
 30
0.0
 10
216.5508
 20
-311.6
 30
0.0
 10
216.5508
 20
-311.6
 30
0.0
 10
216.5508
 20
-311.6
 30
0.0
 10
215.0
 20
-311.6
 30
0.0
 10
215.0
 20
-311.6
 30
0.0
 10
215.0
 20
-311.6
 30
0.0
 10
215.0
 20
-311.6
 30
0.0
 10
213.4507
 20
-311.6
 30
0.0
 10
213.4507
 20
-311.6
 30
0.0
  0
SPLINE
  5
8C
330
1F
100
AcDbEntity
  8
LAYER_1
100
AcDbSpline
210
0.0
220
0.0
230
1.0
 70
    11
 71
     3
 72
    84
 73
    80
 74
     0
 42
0.0000000001
 43
0.0000000001
 40
0.0
 40
0.0
 40
0.0
 40
0.0
 40
0.05
 40
0.05
 40
0.05
 40
0.05
 40
0.1
 40
0.1
 40
0.1
 40
0.1
 40
0.15
 40
0.15
 40
0.15
 40
0.15
 40
0.2
 40
0.2
 40
0.2
 40
0.2
 40
0.25
 40
0.25
 40
0.25
 40
0.25
 40
0.3
 40
0.3
 40
0.3
 40
0.3
 40
0.35
 40
0.35
 40
0.35
 40
0.35
 40
0.4
 40
0.4
 40
0.4
 40
0.4
 40
0.45
 40
0.45
 40
0.45
 40
0.45
 40
0.4999999999999999
 40
0.4999999999999999
 40
0.4999999999999999
 40
0.4999999999999999
 40
0.5499999999999999
 40
0.5499999999999999
 40
0.5499999999999999
 40
0.5499999999999999
 40
0.6
 40
0.6
 40
0.6
 40
0.6
 40
0.65
 40
0.65
 40
0.65
 40
0.65
 40
0.7000000000000001
 40
0.7000000000000001
 40
0.7000000000000001
 40
0.7000000000000001
 40
0.7500000000000001
 40
0.7500000000000001
 40
0.7500000000000001
 40
0.7500000000000001
 40
0.8000000000000002
 40
0.8000000000000002
 40
0.8000000000000002
 40
0.8000000000000002
 40
0.8500000000000002
 40
0.8500000000000002
 40
0.8500000000000002
 40
0.8500000000000002
 40
0.9000000000000002
 40
0.9000000000000002
 40
0.9000000000000002
 40
0.9000000000000002
 40
0.9500000000000003
 40
0.9500000000000003
 40
0.9500000000000003
 40
0.9500000000000003
 40
1.0
 40
1.0
 40
1.0
 40
1.0
 10
213.4507
 20
-351.6
 30
0.0
 10
213.4507
 20
-351.6
 30
0.0
 10
213.4507
 20
-351.1855
 30
0.0
 10
213.4507
 20
-351.1855
 30
0.0
 10
213.4507
 20
-351.1855
 30
0.0
 10
212.9794
 20
-350.9135
 30
0.0
 10
212.5876
 20
-350.5206
 30
0.0
 10
212.3156
 20
-350.0507
 30
0.0
 10
212.3156
 20
-350.0507
 30
0.0
 10
212.3156
 20
-350.0507
 30
0.0
 10
211.9
 20
-350.0507
 30
0.0
 10
211.9
 20
-350.0507
 30
0.0
 10
211.9
 20
-350.0507
 30
0.0
 10
211.9
 20
-350.0507
 30
0.0
 10
211.9
 20
-348.5
 30
0.0
 10
211.9
 20
-348.5
 30
0.0
 10
211.9
 20
-348.5
 30
0.0
 10
211.9
 20
-348.5
 30
0.0
 10
211.9
 20
-346.9508
 30
0.0
 10
211.9
 20
-346.9508
 30
0.0
 10
211.9
 20
-346.9508
 30
0.0
 10
211.9
 20
-346.9508
 30
0.0
 10
212.3156
 20
-346.9508
 30
0.0
 10
212.3156
 20
-346.9508
 30
0.0
 10
212.3156
 20
-346.9508
 30
0.0
 10
212.5876
 20
-346.4794
 30
0.0
 10
212.9794
 20
-346.0879
 30
0.0
 10
213.4507
 20
-345.816
 30
0.0
 10
213.4507
 20
-345.816
 30
0.0
 10
213.4507
 20
-345.816
 30
0.0
 10
213.4507
 20
-345.4001
 30
0.0
 10
213.4507
 20
-345.4001
 30
0.0
 10
213.4507
 20
-345.4001
 30
0.0
 10
213.4507
 20
-345.4001
 30
0.0
 10
215.0
 20
-345.4001
 30
0.0
 10
215.0
 20
-345.4001
 30
0.0
 10
215.0
 20
-345.4001
 30
0.0
 10
215.0
 20
-345.4001
 30
0.0
 10
216.5508
 20
-345.4001
 30
0.0
 10
216.5508
 20
-345.4001
 30
0.0
 10
216.5508
 20
-345.4001
 30
0.0
 10
216.5508
 20
-345.4001
 30
0.0
 10
216.5508
 20
-345.816
 30
0.0
 10
216.5508
 20
-345.816
 30
0.0
 10
216.5508
 20
-345.816
 30
0.0
 10
217.0206
 20
-346.0879
 30
0.0
 10
217.4136
 20
-346.4794
 30
0.0
 10
217.6856
 20
-346.9508
 30
0.0
 10
217.6856
 20
-346.9508
 30
0.0
 10
217.6856
 20
-346.9508
 30
0.0
 10
218.1
 20
-346.9508
 30
0.0
 10
218.1
 20
-346.9508
 30
0.0
 10
218.1
 20
-346.9508
 30
0.0
 10
218.1
 20
-346.9508
 30
0.0
 10
218.1
 20
-348.5
 30
0.0
 10
218.1
 20
-348.5
 30
0.0
 10
218.1
 20
-348.5
 30
0.0
 10
218.1
 20
-348.5
 30
0.0
 10
218.1
 20
-350.0507
 30
0.0
 10
218.1
 20
-350.0507
 30
0.0
 10
218.1
 20
-350.0507
 30
0.0
 10
218.1
 20
-350.0507
 30
0.0
 10
217.6856
 20
-350.0507
 30
0.0
 10
217.6856
 20
-350.0507
 30
0.0
 10
217.6856
 20
-350.0507
 30
0.0
 10
217.4136
 20
-350.5206
 30
0.0
 10
217.0206
 20
-350.9135
 30
0.0
 10
216.5508
 20
-351.1855
 30
0.0
 10
216.5508
 20
-351.1855
 30
0.0
 10
216.5508
 20
-351.1855
 30
0.0
 10
216.5508
 20
-351.6
 30
0.0
 10
216.5508
 20
-351.6
 30
0.0
 10
216.5508
 20
-351.6
 30
0.0
 10
216.5508
 20
-351.6
 30
0.0
 10
215.0
 20
-351.6
 30
0.0
 10
215.0
 20
-351.6
 30
0.0
 10
215.0
 20
-351.6
 30
0.0
 10
215.0
 20
-351.6
 30
0.0
 10
213.4507
 20
-351.6
 30
0.0
 10
213.4507
 20
-351.6
 30
0.0
  0
SPLINE
  5
8D
330
1F
100
AcDbEntity
  8
LAYER_1
100
AcDbSpline
210
0.0
220
0.0
230
1.0
 70
    11
 71
     3
 72
    52
 73
    48
 74
     0
 42
0.0000000001
 43
0.0000000001
 40
0.0
 40
0.0
 40
0.0
 40
0.0
 40
0.0833333333333333
 40
0.0833333333333333
 40
0.0833333333333333
 40
0.0833333333333333
 40
0.1666666666666667
 40
0.1666666666666667
 40
0.1666666666666667
 40
0.1666666666666667
 40
0.25
 40
0.25
 40
0.25
 40
0.25
 40
0.3333333333333333
 40
0.3333333333333333
 40
0.3333333333333333
 40
0.3333333333333333
 40
0.4166666666666666
 40
0.4166666666666666
 40
0.4166666666666666
 40
0.4166666666666666
 40
0.4999999999999999
 40
0.4999999999999999
 40
0.4999999999999999
 40
0.4999999999999999
 40
0.5833333333333333
 40
0.5833333333333333
 40
0.5833333333333333
 40
0.5833333333333333
 40
0.6666666666666666
 40
0.6666666666666666
 40
0.6666666666666666
 40
0.6666666666666666
 40
0.75
 40
0.75
 40
0.75
 40
0.75
 40
0.8333333333333334
 40
0.8333333333333334
 40
0.8333333333333334
 40
0.8333333333333334
 40
0.9166666666666667
 40
0.9166666666666667
 40
0.9166666666666667
 40
0.9166666666666667
 40
1.0
 40
1.0
 40
1.0
 40
1.0
 10
41.5936
 20
-316.0
 30
0.0
 10
41.5936
 20
-316.0
 30
0.0
 10
42.4452
 20
-314.525
 30
0.0
 10
42.4452
 20
-314.525
 30
0.0
 10
42.4452
 20
-314.525
 30
0.0
 10
42.4452
 20
-314.525
 30
0.0
 10
43.2969
 20
-313.05
 30
0.0
 10
43.2969
 20
-313.05
 30
0.0
 10
43.2969
 20
-313.05
 30
0.0
 10
43.2969
 20
-313.05
 30
0.0
 10
45.0
 20
-313.05
 30
0.0
 10
45.0
 20
-313.05
 30
0.0
 10
45.0
 20
-313.05
 30
0.0
 10
45.0
 20
-313.05
 30
0.0
 10
46.7031
 20
-313.05
 30
0.0
 10
46.7031
 20
-313.05
 30
0.0
 10
46.7031
 20
-313.05
 30
0.0
 10
46.7031
 20
-313.05
 30
0.0
 10
47.5548
 20
-314.525
 30
0.0
 10
47.5548
 20
-314.525
 30
0.0
 10
47.5548
 20
-314.525
 30
0.0
 10
47.5548
 20
-314.525
 30
0.0
 10
48.4064
 20
-316.0
 30
0.0
 10
48.4064
 20
-316.0
 30
0.0
 10
48.4064
 20
-316.0
 30
0.0
 10
48.4064
 20
-316.0
 30
0.0
 10
47.5548
 20
-317.475
 30
0.0
 10
47.5548
 20
-317.475
 30
0.0
 10
47.5548
 20
-317.475
 30
0.0
 10
47.5548
 20
-317.475
 30
0.0
 10
46.7031
 20
-318.95
 30
0.0
 10
46.7031
 20
-318.95
 30
0.0
 10
46.7031
 20
-318.95
 30
0.0
 10
46.7031
 20
-318.95
 30
0.0
 10
45.0
 20
-318.95
 30
0.0
 10
45.0
 20
-318.95
 30
0.0
 10
45.0
 20
-318.95
 30
0.0
 10
45.0
 20
-318.95
 30
0.0
 10
43.2969
 20
-318.95
 30
0.0
 10
43.2969
 20
-318.95
 30
0.0
 10
43.2969
 20
-318.95
 30
0.0
 10
43.2969
 20
-318.95
 30
0.0
 10
42.4452
 20
-317.475
 30
0.0
 10
42.4452
 20
-317.475
 30
0.0
 10
42.4452
 20
-317.475
 30
0.0
 10
42.4452
 20
-317.475
 30
0.0
 10
41.5936
 20
-316.0
 30
0.0
 10
41.5936
 20
-316.0
 30
0.0
  0
ELLIPSE
  5
8E
330
1F
100
AcDbEntity
  8
LAYER_1
100
AcDbEllipse
 10
205.0
 20
-316.0
 30
0.0
 11
0.0
 21
1.6
 31
0.0
210
0.0
220
0.0
230
1.0
 40
1.0
 41
0.0
 42
6.283185307179586
  0
SPLINE
  5
8F
330
1F
100
AcDbEntity
  8
LAYER_1
100
AcDbSpline
210
0.0
220
0.0
230
1.0
 70
    11
 71
     3
 72
    52
 73
    48
 74
     0
 42
0.0000000001
 43
0.0000000001
 40
0.0
 40
0.0
 40
0.0
 40
0.0
 40
0.0833333333333333
 40
0.0833333333333333
 40
0.0833333333333333
 40
0.0833333333333333
 40
0.1666666666666667
 40
0.1666666666666667
 40
0.1666666666666667
 40
0.1666666666666667
 40
0.25
 40
0.25
 40
0.25
 40
0.25
 40
0.3333333333333333
 40
0.3333333333333333
 40
0.3333333333333333
 40
0.3333333333333333
 40
0.4166666666666666
 40
0.4166666666666666
 40
0.4166666666666666
 40
0.4166666666666666
 40
0.4999999999999999
 40
0.4999999999999999
 40
0.4999999999999999
 40
0.4999999999999999
 40
0.5833333333333333
 40
0.5833333333333333
 40
0.5833333333333333
 40
0.5833333333333333
 40
0.6666666666666666
 40
0.6666666666666666
 40
0.6666666666666666
 40
0.6666666666666666
 40
0.75
 40
0.75
 40
0.75
 40
0.75
 40
0.8333333333333334
 40
0.8333333333333334
 40
0.8333333333333334
 40
0.8333333333333334
 40
0.9166666666666667
 40
0.9166666666666667
 40
0.9166666666666667
 40
0.9166666666666667
 40
1.0
 40
1.0
 40
1.0
 40
1.0
 10
41.5936
 20
-341.0
 30
0.0
 10
41.5936
 20
-341.0
 30
0.0
 10
42.4452
 20
-339.525
 30
0.0
 10
42.4452
 20
-339.525
 30
0.0
 10
42.4452
 20
-339.525
 30
0.0
 10
42.4452
 20
-339.525
 30
0.0
 10
43.2968
 20
-338.05
 30
0.0
 10
43.2968
 20
-338.05
 30
0.0
 10
43.2968
 20
-338.05
 30
0.0
 10
43.2968
 20
-338.05
 30
0.0
 10
45.0
 20
-338.05
 30
0.0
 10
45.0
 20
-338.05
 30
0.0
 10
45.0
 20
-338.05
 30
0.0
 10
45.0
 20
-338.05
 30
0.0
 10
46.7032
 20
-338.05
 30
0.0
 10
46.7032
 20
-338.05
 30
0.0
 10
46.7032
 20
-338.05
 30
0.0
 10
46.7032
 20
-338.05
 30
0.0
 10
47.5548
 20
-339.525
 30
0.0
 10
47.5548
 20
-339.525
 30
0.0
 10
47.5548
 20
-339.525
 30
0.0
 10
47.5548
 20
-339.525
 30
0.0
 10
48.4064
 20
-341.0
 30
0.0
 10
48.4064
 20
-341.0
 30
0.0
 10
48.4064
 20
-341.0
 30
0.0
 10
48.4064
 20
-341.0
 30
0.0
 10
47.5548
 20
-342.475
 30
0.0
 10
47.5548
 20
-342.475
 30
0.0
 10
47.5548
 20
-342.475
 30
0.0
 10
47.5548
 20
-342.475
 30
0.0
 10
46.7032
 20
-343.95
 30
0.0
 10
46.7032
 20
-343.95
 30
0.0
 10
46.7032
 20
-343.95
 30
0.0
 10
46.7032
 20
-343.95
 30
0.0
 10
45.0
 20
-343.95
 30
0.0
 10
45.0
 20
-343.95
 30
0.0
 10
45.0
 20
-343.95
 30
0.0
 10
45.0
 20
-343.95
 30
0.0
 10
43.2968
 20
-343.95
 30
0.0
 10
43.2968
 20
-343.95
 30
0.0
 10
43.2968
 20
-343.95
 30
0.0
 10
43.2968
 20
-343.95
 30
0.0
 10
42.4452
 20
-342.475
 30
0.0
 10
42.4452
 20
-342.475
 30
0.0
 10
42.4452
 20
-342.475
 30
0.0
 10
42.4452
 20
-342.475
 30
0.0
 10
41.5936
 20
-341.0
 30
0.0
 10
41.5936
 20
-341.0
 30
0.0
  0
ELLIPSE
  5
90
330
1F
100
AcDbEntity
  8
LAYER_1
100
AcDbEllipse
 10
205.0
 20
-341.0
 30
0.0
 11
0.0
 21
1.6
 31
0.0
210
0.0
220
0.0
230
1.0
 40
1.0
 41
0.0
 42
6.283185307179586
  0
SPLINE
  5
91
330
1F
100
AcDbEntity
  8
LAYER_1
100
AcDbSpline
210
0.0
220
0.0
230
1.0
 70
    11
 71
     3
 72
    60
 73
    56
 74
     0
 42
0.0000000001
 43
0.0000000001
 40
0.0
 40
0.0
 40
0.0
 40
0.0
 40
0.0714285714285714
 40
0.0714285714285714
 40
0.0714285714285714
 40
0.0714285714285714
 40
0.1428571428571428
 40
0.1428571428571428
 40
0.1428571428571428
 40
0.1428571428571428
 40
0.2142857142857143
 40
0.2142857142857143
 40
0.2142857142857143
 40
0.2142857142857143
 40
0.2857142857142857
 40
0.2857142857142857
 40
0.2857142857142857
 40
0.2857142857142857
 40
0.3571428571428571
 40
0.3571428571428571
 40
0.3571428571428571
 40
0.3571428571428571
 40
0.4285714285714285
 40
0.4285714285714285
 40
0.4285714285714285
 40
0.4285714285714285
 40
0.4999999999999999
 40
0.4999999999999999
 40
0.4999999999999999
 40
0.4999999999999999
 40
0.5714285714285713
 40
0.5714285714285713
 40
0.5714285714285713
 40
0.5714285714285713
 40
0.6428571428571427
 40
0.6428571428571427
 40
0.6428571428571427
 40
0.6428571428571427
 40
0.7142857142857141
 40
0.7142857142857141
 40
0.7142857142857141
 40
0.7142857142857141
 40
0.7857142857142855
 40
0.7857142857142855
 40
0.7857142857142855
 40
0.7857142857142855
 40
0.8571428571428569
 40
0.8571428571428569
 40
0.8571428571428569
 40
0.8571428571428569
 40
0.9285714285714283
 40
0.9285714285714283
 40
0.9285714285714283
 40
0.9285714285714283
 40
1.0
 40
1.0
 40
1.0
 40
1.0
 10
126.6
 20
-316.0
 30
0.0
 10
126.6
 20
-315.1165
 30
0.0
 10
125.8835
 20
-314.4
 30
0.0
 10
125.0
 20
-314.4
 30
0.0
 10
125.0
 20
-314.4
 30
0.0
 10
124.1165
 20
-314.4
 30
0.0
 10
123.4
 20
-315.1165
 30
0.0
 10
123.4
 20
-316.0
 30
0.0
 10
123.4
 20
-316.0
 30
0.0
 10
123.4
 20
-316.0
 30
0.0
 10
123.4
 20
-316.6253
 30
0.0
 10
123.4
 20
-316.6253
 30
0.0
 10
123.4
 20
-316.6253
 30
0.0
 10
123.4
 20
-316.6253
 30
0.0
 10
112.7505
 20
-316.6253
 30
0.0
 10
112.7505
 20
-316.6253
 30
0.0
 10
112.7505
 20
-316.6253
 30
0.0
 10
112.7505
 20
-316.6253
 30
0.0
 10
112.7505
 20
-340.3753
 30
0.0
 10
112.7505
 20
-340.3753
 30
0.0
 10
112.7505
 20
-340.3753
 30
0.0
 10
112.7505
 20
-340.3753
 30
0.0
 10
123.4
 20
-340.3753
 30
0.0
 10
123.4
 20
-340.3753
 30
0.0
 10
123.4
 20
-340.3753
 30
0.0
 10
123.4
 20
-340.3753
 30
0.0
 10
123.4
 20
-341.0
 30
0.0
 10
123.4
 20
-341.0
 30
0.0
 10
123.4
 20
-341.0
 30
0.0
 10
123.4
 20
-341.8835
 30
0.0
 10
124.1165
 20
-342.6
 30
0.0
 10
125.0
 20
-342.6
 30
0.0
 10
125.0
 20
-342.6
 30
0.0
 10
125.8835
 20
-342.6
 30
0.0
 10
126.6
 20
-341.8835
 30
0.0
 10
126.6
 20
-341.0
 30
0.0
 10
126.6
 20
-341.0
 30
0.0
 10
126.6
 20
-341.0
 30
0.0
 10
126.6
 20
-340.3753
 30
0.0
 10
126.6
 20
-340.3753
 30
0.0
 10
126.6
 20
-340.3753
 30
0.0
 10
126.6
 20
-340.3753
 30
0.0
 10
152.6299
 20
-340.3753
 30
0.0
 10
152.6299
 20
-340.3753
 30
0.0
 10
152.6299
 20
-340.3753
 30
0.0
 10
152.6299
 20
-340.3753
 30
0.0
 10
152.6299
 20
-316.6253
 30
0.0
 10
152.6299
 20
-316.6253
 30
0.0
 10
152.6299
 20
-316.6253
 30
0.0
 10
152.6299
 20
-316.6253
 30
0.0
 10
126.6
 20
-316.6253
 30
0.0
 10
126.6
 20
-316.6253
 30
0.0
 10
126.6
 20
-316.6253
 30
0.0
 10
126.6
 20
-316.6253
 30
0.0
 10
126.6
 20
-316.0
 30
0.0
 10
126.6
 20
-316.0
 30
0.0
  0
ELLIPSE
  5
92
330
1F
100
AcDbEntity
  8
LAYER_1
100
AcDbEllipse
 10
-35.0
 20
-316.0
 30
0.0
 11
0.0
 21
1.6
 31
0.0
210
0.0
220
0.0
230
1.0
 40
1.0
 41
0.0
 42
6.283185307179586
  0
ELLIPSE
  5
93
330
1F
100
AcDbEntity
  8
LAYER_1
100
AcDbEllipse
 10
-35.0
 20
-341.0
 30
0.0
 11
0.0
 21
1.6
 31
0.0
210
0.0
220
0.0
230
1.0
 40
1.0
 41
0.0
 42
6.283185307179586
  0
ELLIPSE
  5
94
330
1F
100
AcDbEntity
  8
LAYER_1
100
AcDbEllipse
 10
285.0
 20
-316.0
 30
0.0
 11
0.0
 21
2.75
 31
0.0
210
0.0
220
0.0
230
1.0
 40
1.0
 41
0.0
 42
6.283185307179586
  0
ELLIPSE
  5
95
330
1F
100
AcDbEntity
  8
LAYER_1
100
AcDbEllipse
 10
285.0
 20
-341.0
 30
0.0
 11
0.0
 21
2.75
 31
0.0
210
0.0
220
0.0
230
1.0
 40
1.0
 41
0.0
 42
6.283185307179586
  0
SPLINE
  5
96
330
1F
100
AcDbEntity
  8
LAYER_1
100
AcDbSpline
210
0.0
220
0.0
230
1.0
 70
    11
 71
     3
 72
    84
 73
    80
 74
     0
 42
0.0000000001
 43
0.0000000001
 40
0.0
 40
0.0
 40
0.0
 40
0.0
 40
0.05
 40
0.05
 40
0.05
 40
0.05
 40
0.1
 40
0.1
 40
0.1
 40
0.1
 40
0.15
 40
0.15
 40
0.15
 40
0.15
 40
0.2
 40
0.2
 40
0.2
 40
0.2
 40
0.25
 40
0.25
 40
0.25
 40
0.25
 40
0.3
 40
0.3
 40
0.3
 40
0.3
 40
0.35
 40
0.35
 40
0.35
 40
0.35
 40
0.4
 40
0.4
 40
0.4
 40
0.4
 40
0.45
 40
0.45
 40
0.45
 40
0.45
 40
0.4999999999999999
 40
0.4999999999999999
 40
0.4999999999999999
 40
0.4999999999999999
 40
0.5499999999999999
 40
0.5499999999999999
 40
0.5499999999999999
 40
0.5499999999999999
 40
0.6
 40
0.6
 40
0.6
 40
0.6
 40
0.65
 40
0.65
 40
0.65
 40
0.65
 40
0.7000000000000001
 40
0.7000000000000001
 40
0.7000000000000001
 40
0.7000000000000001
 40
0.7500000000000001
 40
0.7500000000000001
 40
0.7500000000000001
 40
0.7500000000000001
 40
0.8000000000000002
 40
0.8000000000000002
 40
0.8000000000000002
 40
0.8000000000000002
 40
0.8500000000000002
 40
0.8500000000000002
 40
0.8500000000000002
 40
0.8500000000000002
 40
0.9000000000000002
 40
0.9000000000000002
 40
0.9000000000000002
 40
0.9000000000000002
 40
0.9500000000000003
 40
0.9500000000000003
 40
0.9500000000000003
 40
0.9500000000000003
 40
1.0
 40
1.0
 40
1.0
 40
1.0
 10
313.4507
 20
-311.6
 30
0.0
 10
313.4507
 20
-311.6
 30
0.0
 10
313.4507
 20
-311.1855
 30
0.0
 10
313.4507
 20
-311.1855
 30
0.0
 10
313.4507
 20
-311.1855
 30
0.0
 10
312.9794
 20
-310.9135
 30
0.0
 10
312.5876
 20
-310.5206
 30
0.0
 10
312.3156
 20
-310.0507
 30
0.0
 10
312.3156
 20
-310.0507
 30
0.0
 10
312.3156
 20
-310.0507
 30
0.0
 10
311.9
 20
-310.0507
 30
0.0
 10
311.9
 20
-310.0507
 30
0.0
 10
311.9
 20
-310.0507
 30
0.0
 10
311.9
 20
-310.0507
 30
0.0
 10
311.9
 20
-308.5
 30
0.0
 10
311.9
 20
-308.5
 30
0.0
 10
311.9
 20
-308.5
 30
0.0
 10
311.9
 20
-308.5
 30
0.0
 10
311.9
 20
-306.9508
 30
0.0
 10
311.9
 20
-306.9508
 30
0.0
 10
311.9
 20
-306.9508
 30
0.0
 10
311.9
 20
-306.9508
 30
0.0
 10
312.3156
 20
-306.9508
 30
0.0
 10
312.3156
 20
-306.9508
 30
0.0
 10
312.3156
 20
-306.9508
 30
0.0
 10
312.5876
 20
-306.4794
 30
0.0
 10
312.9794
 20
-306.0879
 30
0.0
 10
313.4507
 20
-305.816
 30
0.0
 10
313.4507
 20
-305.816
 30
0.0
 10
313.4507
 20
-305.816
 30
0.0
 10
313.4507
 20
-305.4001
 30
0.0
 10
313.4507
 20
-305.4001
 30
0.0
 10
313.4507
 20
-305.4001
 30
0.0
 10
313.4507
 20
-305.4001
 30
0.0
 10
315.0
 20
-305.4001
 30
0.0
 10
315.0
 20
-305.4001
 30
0.0
 10
315.0
 20
-305.4001
 30
0.0
 10
315.0
 20
-305.4001
 30
0.0
 10
316.5508
 20
-305.4001
 30
0.0
 10
316.5508
 20
-305.4001
 30
0.0
 10
316.5508
 20
-305.4001
 30
0.0
 10
316.5508
 20
-305.4001
 30
0.0
 10
316.5508
 20
-305.816
 30
0.0
 10
316.5508
 20
-305.816
 30
0.0
 10
316.5508
 20
-305.816
 30
0.0
 10
317.0206
 20
-306.0879
 30
0.0
 10
317.4136
 20
-306.4794
 30
0.0
 10
317.6856
 20
-306.9508
 30
0.0
 10
317.6856
 20
-306.9508
 30
0.0
 10
317.6856
 20
-306.9508
 30
0.0
 10
318.1
 20
-306.9508
 30
0.0
 10
318.1
 20
-306.9508
 30
0.0
 10
318.1
 20
-306.9508
 30
0.0
 10
318.1
 20
-306.9508
 30
0.0
 10
318.1
 20
-308.5
 30
0.0
 10
318.1
 20
-308.5
 30
0.0
 10
318.1
 20
-308.5
 30
0.0
 10
318.1
 20
-308.5
 30
0.0
 10
318.1
 20
-310.0507
 30
0.0
 10
318.1
 20
-310.0507
 30
0.0
 10
318.1
 20
-310.0507
 30
0.0
 10
318.1
 20
-310.0507
 30
0.0
 10
317.6856
 20
-310.0507
 30
0.0
 10
317.6856
 20
-310.0507
 30
0.0
 10
317.6856
 20
-310.0507
 30
0.0
 10
317.4136
 20
-310.5206
 30
0.0
 10
317.0206
 20
-310.9135
 30
0.0
 10
316.5508
 20
-311.1855
 30
0.0
 10
316.5508
 20
-311.1855
 30
0.0
 10
316.5508
 20
-311.1855
 30
0.0
 10
316.5508
 20
-311.6
 30
0.0
 10
316.5508
 20
-311.6
 30
0.0
 10
316.5508
 20
-311.6
 30
0.0
 10
316.5508
 20
-311.6
 30
0.0
 10
315.0
 20
-311.6
 30
0.0
 10
315.0
 20
-311.6
 30
0.0
 10
315.0
 20
-311.6
 30
0.0
 10
315.0
 20
-311.6
 30
0.0
 10
313.4507
 20
-311.6
 30
0.0
 10
313.4507
 20
-311.6
 30
0.0
  0
SPLINE
  5
97
330
1F
100
AcDbEntity
  8
LAYER_1
100
AcDbSpline
210
0.0
220
0.0
230
1.0
 70
    11
 71
     3
 72
    84
 73
    80
 74
     0
 42
0.0000000001
 43
0.0000000001
 40
0.0
 40
0.0
 40
0.0
 40
0.0
 40
0.05
 40
0.05
 40
0.05
 40
0.05
 40
0.1
 40
0.1
 40
0.1
 40
0.1
 40
0.15
 40
0.15
 40
0.15
 40
0.15
 40
0.2
 40
0.2
 40
0.2
 40
0.2
 40
0.25
 40
0.25
 40
0.25
 40
0.25
 40
0.3
 40
0.3
 40
0.3
 40
0.3
 40
0.35
 40
0.35
 40
0.35
 40
0.35
 40
0.4
 40
0.4
 40
0.4
 40
0.4
 40
0.45
 40
0.45
 40
0.45
 40
0.45
 40
0.4999999999999999
 40
0.4999999999999999
 40
0.4999999999999999
 40
0.4999999999999999
 40
0.5499999999999999
 40
0.5499999999999999
 40
0.5499999999999999
 40
0.5499999999999999
 40
0.6
 40
0.6
 40
0.6
 40
0.6
 40
0.65
 40
0.65
 40
0.65
 40
0.65
 40
0.7000000000000001
 40
0.7000000000000001
 40
0.7000000000000001
 40
0.7000000000000001
 40
0.7500000000000001
 40
0.7500000000000001
 40
0.7500000000000001
 40
0.7500000000000001
 40
0.8000000000000002
 40
0.8000000000000002
 40
0.8000000000000002
 40
0.8000000000000002
 40
0.8500000000000002
 40
0.8500000000000002
 40
0.8500000000000002
 40
0.8500000000000002
 40
0.9000000000000002
 40
0.9000000000000002
 40
0.9000000000000002
 40
0.9000000000000002
 40
0.9500000000000003
 40
0.9500000000000003
 40
0.9500000000000003
 40
0.9500000000000003
 40
1.0
 40
1.0
 40
1.0
 40
1.0
 10
273.4507
 20
-311.6
 30
0.0
 10
273.4507
 20
-311.6
 30
0.0
 10
273.4507
 20
-311.1855
 30
0.0
 10
273.4507
 20
-311.1855
 30
0.0
 10
273.4507
 20
-311.1855
 30
0.0
 10
272.9794
 20
-310.9135
 30
0.0
 10
272.5876
 20
-310.5206
 30
0.0
 10
272.3156
 20
-310.0507
 30
0.0
 10
272.3156
 20
-310.0507
 30
0.0
 10
272.3156
 20
-310.0507
 30
0.0
 10
271.9
 20
-310.0507
 30
0.0
 10
271.9
 20
-310.0507
 30
0.0
 10
271.9
 20
-310.0507
 30
0.0
 10
271.9
 20
-310.0507
 30
0.0
 10
271.9
 20
-308.5
 30
0.0
 10
271.9
 20
-308.5
 30
0.0
 10
271.9
 20
-308.5
 30
0.0
 10
271.9
 20
-308.5
 30
0.0
 10
271.9
 20
-306.9508
 30
0.0
 10
271.9
 20
-306.9508
 30
0.0
 10
271.9
 20
-306.9508
 30
0.0
 10
271.9
 20
-306.9508
 30
0.0
 10
272.3156
 20
-306.9508
 30
0.0
 10
272.3156
 20
-306.9508
 30
0.0
 10
272.3156
 20
-306.9508
 30
0.0
 10
272.5876
 20
-306.4794
 30
0.0
 10
272.9794
 20
-306.0879
 30
0.0
 10
273.4507
 20
-305.816
 30
0.0
 10
273.4507
 20
-305.816
 30
0.0
 10
273.4507
 20
-305.816
 30
0.0
 10
273.4507
 20
-305.4001
 30
0.0
 10
273.4507
 20
-305.4001
 30
0.0
 10
273.4507
 20
-305.4001
 30
0.0
 10
273.4507
 20
-305.4001
 30
0.0
 10
275.0
 20
-305.4001
 30
0.0
 10
275.0
 20
-305.4001
 30
0.0
 10
275.0
 20
-305.4001
 30
0.0
 10
275.0
 20
-305.4001
 30
0.0
 10
276.5508
 20
-305.4001
 30
0.0
 10
276.5508
 20
-305.4001
 30
0.0
 10
276.5508
 20
-305.4001
 30
0.0
 10
276.5508
 20
-305.4001
 30
0.0
 10
276.5508
 20
-305.816
 30
0.0
 10
276.5508
 20
-305.816
 30
0.0
 10
276.5508
 20
-305.816
 30
0.0
 10
277.0206
 20
-306.0879
 30
0.0
 10
277.4136
 20
-306.4794
 30
0.0
 10
277.6856
 20
-306.9508
 30
0.0
 10
277.6856
 20
-306.9508
 30
0.0
 10
277.6856
 20
-306.9508
 30
0.0
 10
278.1
 20
-306.9508
 30
0.0
 10
278.1
 20
-306.9508
 30
0.0
 10
278.1
 20
-306.9508
 30
0.0
 10
278.1
 20
-306.9508
 30
0.0
 10
278.1
 20
-308.5
 30
0.0
 10
278.1
 20
-308.5
 30
0.0
 10
278.1
 20
-308.5
 30
0.0
 10
278.1
 20
-308.5
 30
0.0
 10
278.1
 20
-310.0507
 30
0.0
 10
278.1
 20
-310.0507
 30
0.0
 10
278.1
 20
-310.0507
 30
0.0
 10
278.1
 20
-310.0507
 30
0.0
 10
277.6856
 20
-310.0507
 30
0.0
 10
277.6856
 20
-310.0507
 30
0.0
 10
277.6856
 20
-310.0507
 30
0.0
 10
277.4136
 20
-310.5206
 30
0.0
 10
277.0206
 20
-310.9135
 30
0.0
 10
276.5508
 20
-311.1855
 30
0.0
 10
276.5508
 20
-311.1855
 30
0.0
 10
276.5508
 20
-311.1855
 30
0.0
 10
276.5508
 20
-311.6
 30
0.0
 10
276.5508
 20
-311.6
 30
0.0
 10
276.5508
 20
-311.6
 30
0.0
 10
276.5508
 20
-311.6
 30
0.0
 10
275.0
 20
-311.6
 30
0.0
 10
275.0
 20
-311.6
 30
0.0
 10
275.0
 20
-311.6
 30
0.0
 10
275.0
 20
-311.6
 30
0.0
 10
273.4507
 20
-311.6
 30
0.0
 10
273.4507
 20
-311.6
 30
0.0
  0
SPLINE
  5
98
330
1F
100
AcDbEntity
  8
LAYER_1
100
AcDbSpline
210
0.0
220
0.0
230
1.0
 70
    11
 71
     3
 72
    84
 73
    80
 74
     0
 42
0.0000000001
 43
0.0000000001
 40
0.0
 40
0.0
 40
0.0
 40
0.0
 40
0.05
 40
0.05
 40
0.05
 40
0.05
 40
0.1
 40
0.1
 40
0.1
 40
0.1
 40
0.15
 40
0.15
 40
0.15
 40
0.15
 40
0.2
 40
0.2
 40
0.2
 40
0.2
 40
0.25
 40
0.25
 40
0.25
 40
0.25
 40
0.3
 40
0.3
 40
0.3
 40
0.3
 40
0.35
 40
0.35
 40
0.35
 40
0.35
 40
0.4
 40
0.4
 40
0.4
 40
0.4
 40
0.45
 40
0.45
 40
0.45
 40
0.45
 40
0.4999999999999999
 40
0.4999999999999999
 40
0.4999999999999999
 40
0.4999999999999999
 40
0.5499999999999999
 40
0.5499999999999999
 40
0.5499999999999999
 40
0.5499999999999999
 40
0.6
 40
0.6
 40
0.6
 40
0.6
 40
0.65
 40
0.65
 40
0.65
 40
0.65
 40
0.7000000000000001
 40
0.7000000000000001
 40
0.7000000000000001
 40
0.7000000000000001
 40
0.7500000000000001
 40
0.7500000000000001
 40
0.7500000000000001
 40
0.7500000000000001
 40
0.8000000000000002
 40
0.8000000000000002
 40
0.8000000000000002
 40
0.8000000000000002
 40
0.8500000000000002
 40
0.8500000000000002
 40
0.8500000000000002
 40
0.8500000000000002
 40
0.9000000000000002
 40
0.9000000000000002
 40
0.9000000000000002
 40
0.9000000000000002
 40
0.9500000000000003
 40
0.9500000000000003
 40
0.9500000000000003
 40
0.9500000000000003
 40
1.0
 40
1.0
 40
1.0
 40
1.0
 10
313.4507
 20
-351.6
 30
0.0
 10
313.4507
 20
-351.6
 30
0.0
 10
313.4507
 20
-351.1855
 30
0.0
 10
313.4507
 20
-351.1855
 30
0.0
 10
313.4507
 20
-351.1855
 30
0.0
 10
312.9794
 20
-350.9135
 30
0.0
 10
312.5876
 20
-350.5206
 30
0.0
 10
312.3156
 20
-350.0507
 30
0.0
 10
312.3156
 20
-350.0507
 30
0.0
 10
312.3156
 20
-350.0507
 30
0.0
 10
311.9
 20
-350.0507
 30
0.0
 10
311.9
 20
-350.0507
 30
0.0
 10
311.9
 20
-350.0507
 30
0.0
 10
311.9
 20
-350.0507
 30
0.0
 10
311.9
 20
-348.5
 30
0.0
 10
311.9
 20
-348.5
 30
0.0
 10
311.9
 20
-348.5
 30
0.0
 10
311.9
 20
-348.5
 30
0.0
 10
311.9
 20
-346.9508
 30
0.0
 10
311.9
 20
-346.9508
 30
0.0
 10
311.9
 20
-346.9508
 30
0.0
 10
311.9
 20
-346.9508
 30
0.0
 10
312.3156
 20
-346.9508
 30
0.0
 10
312.3156
 20
-346.9508
 30
0.0
 10
312.3156
 20
-346.9508
 30
0.0
 10
312.5876
 20
-346.4794
 30
0.0
 10
312.9794
 20
-346.0879
 30
0.0
 10
313.4507
 20
-345.816
 30
0.0
 10
313.4507
 20
-345.816
 30
0.0
 10
313.4507
 20
-345.816
 30
0.0
 10
313.4507
 20
-345.4001
 30
0.0
 10
313.4507
 20
-345.4001
 30
0.0
 10
313.4507
 20
-345.4001
 30
0.0
 10
313.4507
 20
-345.4001
 30
0.0
 10
315.0
 20
-345.4001
 30
0.0
 10
315.0
 20
-345.4001
 30
0.0
 10
315.0
 20
-345.4001
 30
0.0
 10
315.0
 20
-345.4001
 30
0.0
 10
316.5508
 20
-345.4001
 30
0.0
 10
316.5508
 20
-345.4001
 30
0.0
 10
316.5508
 20
-345.4001
 30
0.0
 10
316.5508
 20
-345.4001
 30
0.0
 10
316.5508
 20
-345.816
 30
0.0
 10
316.5508
 20
-345.816
 30
0.0
 10
316.5508
 20
-345.816
 30
0.0
 10
317.0206
 20
-346.0879
 30
0.0
 10
317.4136
 20
-346.4794
 30
0.0
 10
317.6856
 20
-346.9508
 30
0.0
 10
317.6856
 20
-346.9508
 30
0.0
 10
317.6856
 20
-346.9508
 30
0.0
 10
318.1
 20
-346.9508
 30
0.0
 10
318.1
 20
-346.9508
 30
0.0
 10
318.1
 20
-346.9508
 30
0.0
 10
318.1
 20
-346.9508
 30
0.0
 10
318.1
 20
-348.5
 30
0.0
 10
318.1
 20
-348.5
 30
0.0
 10
318.1
 20
-348.5
 30
0.0
 10
318.1
 20
-348.5
 30
0.0
 10
318.1
 20
-350.0507
 30
0.0
 10
318.1
 20
-350.0507
 30
0.0
 10
318.1
 20
-350.0507
 30
0.0
 10
318.1
 20
-350.0507
 30
0.0
 10
317.6856
 20
-350.0507
 30
0.0
 10
317.6856
 20
-350.0507
 30
0.0
 10
317.6856
 20
-350.0507
 30
0.0
 10
317.4136
 20
-350.5206
 30
0.0
 10
317.0206
 20
-350.9135
 30
0.0
 10
316.5508
 20
-351.1855
 30
0.0
 10
316.5508
 20
-351.1855
 30
0.0
 10
316.5508
 20
-351.1855
 30
0.0
 10
316.5508
 20
-351.6
 30
0.0
 10
316.5508
 20
-351.6
 30
0.0
 10
316.5508
 20
-351.6
 30
0.0
 10
316.5508
 20
-351.6
 30
0.0
 10
315.0
 20
-351.6
 30
0.0
 10
315.0
 20
-351.6
 30
0.0
 10
315.0
 20
-351.6
 30
0.0
 10
315.0
 20
-351.6
 30
0.0
 10
313.4507
 20
-351.6
 30
0.0
 10
313.4507
 20
-351.6
 30
0.0
  0
SPLINE
  5
99
330
1F
100
AcDbEntity
  8
LAYER_1
100
AcDbSpline
210
0.0
220
0.0
230
1.0
 70
    11
 71
     3
 72
    84
 73
    80
 74
     0
 42
0.0000000001
 43
0.0000000001
 40
0.0
 40
0.0
 40
0.0
 40
0.0
 40
0.05
 40
0.05
 40
0.05
 40
0.05
 40
0.1
 40
0.1
 40
0.1
 40
0.1
 40
0.15
 40
0.15
 40
0.15
 40
0.15
 40
0.2
 40
0.2
 40
0.2
 40
0.2
 40
0.25
 40
0.25
 40
0.25
 40
0.25
 40
0.3
 40
0.3
 40
0.3
 40
0.3
 40
0.35
 40
0.35
 40
0.35
 40
0.35
 40
0.4
 40
0.4
 40
0.4
 40
0.4
 40
0.45
 40
0.45
 40
0.45
 40
0.45
 40
0.4999999999999999
 40
0.4999999999999999
 40
0.4999999999999999
 40
0.4999999999999999
 40
0.5499999999999999
 40
0.5499999999999999
 40
0.5499999999999999
 40
0.5499999999999999
 40
0.6
 40
0.6
 40
0.6
 40
0.6
 40
0.65
 40
0.65
 40
0.65
 40
0.65
 40
0.7000000000000001
 40
0.7000000000000001
 40
0.7000000000000001
 40
0.7000000000000001
 40
0.7500000000000001
 40
0.7500000000000001
 40
0.7500000000000001
 40
0.7500000000000001
 40
0.8000000000000002
 40
0.8000000000000002
 40
0.8000000000000002
 40
0.8000000000000002
 40
0.8500000000000002
 40
0.8500000000000002
 40
0.8500000000000002
 40
0.8500000000000002
 40
0.9000000000000002
 40
0.9000000000000002
 40
0.9000000000000002
 40
0.9000000000000002
 40
0.9500000000000003
 40
0.9500000000000003
 40
0.9500000000000003
 40
0.9500000000000003
 40
1.0
 40
1.0
 40
1.0
 40
1.0
 10
273.4507
 20
-351.6
 30
0.0
 10
273.4507
 20
-351.6
 30
0.0
 10
273.4507
 20
-351.1855
 30
0.0
 10
273.4507
 20
-351.1855
 30
0.0
 10
273.4507
 20
-351.1855
 30
0.0
 10
272.9794
 20
-350.9135
 30
0.0
 10
272.5876
 20
-350.5206
 30
0.0
 10
272.3156
 20
-350.0507
 30
0.0
 10
272.3156
 20
-350.0507
 30
0.0
 10
272.3156
 20
-350.0507
 30
0.0
 10
271.9
 20
-350.0507
 30
0.0
 10
271.9
 20
-350.0507
 30
0.0
 10
271.9
 20
-350.0507
 30
0.0
 10
271.9
 20
-350.0507
 30
0.0
 10
271.9
 20
-348.5
 30
0.0
 10
271.9
 20
-348.5
 30
0.0
 10
271.9
 20
-348.5
 30
0.0
 10
271.9
 20
-348.5
 30
0.0
 10
271.9
 20
-346.9508
 30
0.0
 10
271.9
 20
-346.9508
 30
0.0
 10
271.9
 20
-346.9508
 30
0.0
 10
271.9
 20
-346.9508
 30
0.0
 10
272.3156
 20
-346.9508
 30
0.0
 10
272.3156
 20
-346.9508
 30
0.0
 10
272.3156
 20
-346.9508
 30
0.0
 10
272.5876
 20
-346.4794
 30
0.0
 10
272.9794
 20
-346.0879
 30
0.0
 10
273.4507
 20
-345.816
 30
0.0
 10
273.4507
 20
-345.816
 30
0.0
 10
273.4507
 20
-345.816
 30
0.0
 10
273.4507
 20
-345.4001
 30
0.0
 10
273.4507
 20
-345.4001
 30
0.0
 10
273.4507
 20
-345.4001
 30
0.0
 10
273.4507
 20
-345.4001
 30
0.0
 10
275.0
 20
-345.4001
 30
0.0
 10
275.0
 20
-345.4001
 30
0.0
 10
275.0
 20
-345.4001
 30
0.0
 10
275.0
 20
-345.4001
 30
0.0
 10
276.5508
 20
-345.4001
 30
0.0
 10
276.5508
 20
-345.4001
 30
0.0
 10
276.5508
 20
-345.4001
 30
0.0
 10
276.5508
 20
-345.4001
 30
0.0
 10
276.5508
 20
-345.816
 30
0.0
 10
276.5508
 20
-345.816
 30
0.0
 10
276.5508
 20
-345.816
 30
0.0
 10
277.0206
 20
-346.0879
 30
0.0
 10
277.4136
 20
-346.4794
 30
0.0
 10
277.6856
 20
-346.9508
 30
0.0
 10
277.6856
 20
-346.9508
 30
0.0
 10
277.6856
 20
-346.9508
 30
0.0
 10
278.1
 20
-346.9508
 30
0.0
 10
278.1
 20
-346.9508
 30
0.0
 10
278.1
 20
-346.9508
 30
0.0
 10
278.1
 20
-346.9508
 30
0.0
 10
278.1
 20
-348.5
 30
0.0
 10
278.1
 20
-348.5
 30
0.0
 10
278.1
 20
-348.5
 30
0.0
 10
278.1
 20
-348.5
 30
0.0
 10
278.1
 20
-350.0507
 30
0.0
 10
278.1
 20
-350.0507
 30
0.0
 10
278.1
 20
-350.0507
 30
0.0
 10
278.1
 20
-350.0507
 30
0.0
 10
277.6856
 20
-350.0507
 30
0.0
 10
277.6856
 20
-350.0507
 30
0.0
 10
277.6856
 20
-350.0507
 30
0.0
 10
277.4136
 20
-350.5206
 30
0.0
 10
277.0206
 20
-350.9135
 30
0.0
 10
276.5508
 20
-351.1855
 30
0.0
 10
276.5508
 20
-351.1855
 30
0.0
 10
276.5508
 20
-351.1855
 30
0.0
 10
276.5508
 20
-351.6
 30
0.0
 10
276.5508
 20
-351.6
 30
0.0
 10
276.5508
 20
-351.6
 30
0.0
 10
276.5508
 20
-351.6
 30
0.0
 10
275.0
 20
-351.6
 30
0.0
 10
275.0
 20
-351.6
 30
0.0
 10
275.0
 20
-351.6
 30
0.0
 10
275.0
 20
-351.6
 30
0.0
 10
273.4507
 20
-351.6
 30
0.0
 10
273.4507
 20
-351.6
 30
0.0
  0
SPLINE
  5
9A
330
1F
100
AcDbEntity
  8
LAYER_1
100
AcDbSpline
210
0.0
220
0.0
230
1.0
 70
    11
 71
     3
 72
    20
 73
    16
 74
     0
 42
0.0000000001
 43
0.0000000001
 40
0.0
 40
0.0
 40
0.0
 40
0.0
 40
0.25
 40
0.25
 40
0.25
 40
0.25
 40
0.5
 40
0.5
 40
0.5
 40
0.5
 40
0.75
 40
0.75
 40
0.75
 40
0.75
 40
1.0
 40
1.0
 40
1.0
 40
1.0
 10
281.8
 20
-310.1
 30
0.0
 10
281.8
 20
-310.1
 30
0.0
 10
281.8
 20
-306.9
 30
0.0
 10
281.8
 20
-306.9
 30
0.0
 10
281.8
 20
-306.9
 30
0.0
 10
281.8
 20
-306.9
 30
0.0
 10
288.2
 20
-306.9
 30
0.0
 10
288.2
 20
-306.9
 30
0.0
 10
288.2
 20
-306.9
 30
0.0
 10
288.2
 20
-306.9
 30
0.0
 10
288.2
 20
-310.1
 30
0.0
 10
288.2
 20
-310.1
 30
0.0
 10
288.2
 20
-310.1
 30
0.0
 10
288.2
 20
-310.1
 30
0.0
 10
281.8
 20
-310.1
 30
0.0
 10
281.8
 20
-310.1
 30
0.0
  0
SPLINE
  5
9B
330
1F
100
AcDbEntity
  8
LAYER_1
100
AcDbSpline
210
0.0
220
0.0
230
1.0
 70
    11
 71
     3
 72
    20
 73
    16
 74
     0
 42
0.0000000001
 43
0.0000000001
 40
0.0
 40
0.0
 40
0.0
 40
0.0
 40
0.25
 40
0.25
 40
0.25
 40
0.25
 40
0.5
 40
0.5
 40
0.5
 40
0.5
 40
0.75
 40
0.75
 40
0.75
 40
0.75
 40
1.0
 40
1.0
 40
1.0
 40
1.0
 10
301.8
 20
-310.1
 30
0.0
 10
301.8
 20
-310.1
 30
0.0
 10
301.8
 20
-306.9
 30
0.0
 10
301.8
 20
-306.9
 30
0.0
 10
301.8
 20
-306.9
 30
0.0
 10
301.8
 20
-306.9
 30
0.0
 10
308.2
 20
-306.9
 30
0.0
 10
308.2
 20
-306.9
 30
0.0
 10
308.2
 20
-306.9
 30
0.0
 10
308.2
 20
-306.9
 30
0.0
 10
308.2
 20
-310.1
 30
0.0
 10
308.2
 20
-310.1
 30
0.0
 10
308.2
 20
-310.1
 30
0.0
 10
308.2
 20
-310.1
 30
0.0
 10
301.8
 20
-310.1
 30
0.0
 10
301.8
 20
-310.1
 30
0.0
  0
SPLINE
  5
9C
330
1F
100
AcDbEntity
  8
LAYER_1
100
AcDbSpline
210
0.0
220
0.0
230
1.0
 70
    11
 71
     3
 72
    20
 73
    16
 74
     0
 42
0.0000000001
 43
0.0000000001
 40
0.0
 40
0.0
 40
0.0
 40
0.0
 40
0.25
 40
0.25
 40
0.25
 40
0.25
 40
0.5
 40
0.5
 40
0.5
 40
0.5
 40
0.75
 40
0.75
 40
0.75
 40
0.75
 40
1.0
 40
1.0
 40
1.0
 40
1.0
 10
281.8
 20
-350.1
 30
0.0
 10
281.8
 20
-350.1
 30
0.0
 10
281.8
 20
-346.9
 30
0.0
 10
281.8
 20
-346.9
 30
0.0
 10
281.8
 20
-346.9
 30
0.0
 10
281.8
 20
-346.9
 30
0.0
 10
288.2
 20
-346.9
 30
0.0
 10
288.2
 20
-346.9
 30
0.0
 10
288.2
 20
-346.9
 30
0.0
 10
288.2
 20
-346.9
 30
0.0
 10
288.2
 20
-350.1
 30
0.0
 10
288.2
 20
-350.1
 30
0.0
 10
288.2
 20
-350.1
 30
0.0
 10
288.2
 20
-350.1
 30
0.0
 10
281.8
 20
-350.1
 30
0.0
 10
281.8
 20
-350.1
 30
0.0
  0
SPLINE
  5
9D
330
1F
100
AcDbEntity
  8
LAYER_1
100
AcDbSpline
210
0.0
220
0.0
230
1.0
 70
    11
 71
     3
 72
    20
 73
    16
 74
     0
 42
0.0000000001
 43
0.0000000001
 40
0.0
 40
0.0
 40
0.0
 40
0.0
 40
0.25
 40
0.25
 40
0.25
 40
0.25
 40
0.5
 40
0.5
 40
0.5
 40
0.5
 40
0.75
 40
0.75
 40
0.75
 40
0.75
 40
1.0
 40
1.0
 40
1.0
 40
1.0
 10
301.8
 20
-350.1
 30
0.0
 10
301.8
 20
-350.1
 30
0.0
 10
301.8
 20
-346.9
 30
0.0
 10
301.8
 20
-346.9
 30
0.0
 10
301.8
 20
-346.9
 30
0.0
 10
301.8
 20
-346.9
 30
0.0
 10
308.2
 20
-346.9
 30
0.0
 10
308.2
 20
-346.9
 30
0.0
 10
308.2
 20
-346.9
 30
0.0
 10
308.2
 20
-346.9
 30
0.0
 10
308.2
 20
-350.1
 30
0.0
 10
308.2
 20
-350.1
 30
0.0
 10
308.2
 20
-350.1
 30
0.0
 10
308.2
 20
-350.1
 30
0.0
 10
301.8
 20
-350.1
 30
0.0
 10
301.8
 20
-350.1
 30
0.0
  0
SPLINE
  5
9E
330
1F
100
AcDbEntity
  8
LAYER_1
100
AcDbSpline
210
0.0
220
0.0
230
1.0
 70
    11
 71
     3
 72
    84
 73
    80
 74
     0
 42
0.0000000001
 43
0.0000000001
 40
0.0
 40
0.0
 40
0.0
 40
0.0
 40
0.05
 40
0.05
 40
0.05
 40
0.05
 40
0.1
 40
0.1
 40
0.1
 40
0.1
 40
0.15
 40
0.15
 40
0.15
 40
0.15
 40
0.2
 40
0.2
 40
0.2
 40
0.2
 40
0.25
 40
0.25
 40
0.25
 40
0.25
 40
0.3
 40
0.3
 40
0.3
 40
0.3
 40
0.35
 40
0.35
 40
0.35
 40
0.35
 40
0.4
 40
0.4
 40
0.4
 40
0.4
 40
0.45
 40
0.45
 40
0.45
 40
0.45
 40
0.4999999999999999
 40
0.4999999999999999
 40
0.4999999999999999
 40
0.4999999999999999
 40
0.5499999999999999
 40
0.5499999999999999
 40
0.5499999999999999
 40
0.5499999999999999
 40
0.6
 40
0.6
 40
0.6
 40
0.6
 40
0.65
 40
0.65
 40
0.65
 40
0.65
 40
0.7000000000000001
 40
0.7000000000000001
 40
0.7000000000000001
 40
0.7000000000000001
 40
0.7500000000000001
 40
0.7500000000000001
 40
0.7500000000000001
 40
0.7500000000000001
 40
0.8000000000000002
 40
0.8000000000000002
 40
0.8000000000000002
 40
0.8000000000000002
 40
0.8500000000000002
 40
0.8500000000000002
 40
0.8500000000000002
 40
0.8500000000000002
 40
0.9000000000000002
 40
0.9000000000000002
 40
0.9000000000000002
 40
0.9000000000000002
 40
0.9500000000000003
 40
0.9500000000000003
 40
0.9500000000000003
 40
0.9500000000000003
 40
1.0
 40
1.0
 40
1.0
 40
1.0
 10
293.4507
 20
-311.6
 30
0.0
 10
293.4507
 20
-311.6
 30
0.0
 10
293.4507
 20
-311.1855
 30
0.0
 10
293.4507
 20
-311.1855
 30
0.0
 10
293.4507
 20
-311.1855
 30
0.0
 10
292.9794
 20
-310.9135
 30
0.0
 10
292.5876
 20
-310.5206
 30
0.0
 10
292.3156
 20
-310.0507
 30
0.0
 10
292.3156
 20
-310.0507
 30
0.0
 10
292.3156
 20
-310.0507
 30
0.0
 10
291.9
 20
-310.0507
 30
0.0
 10
291.9
 20
-310.0507
 30
0.0
 10
291.9
 20
-310.0507
 30
0.0
 10
291.9
 20
-310.0507
 30
0.0
 10
291.9
 20
-308.5
 30
0.0
 10
291.9
 20
-308.5
 30
0.0
 10
291.9
 20
-308.5
 30
0.0
 10
291.9
 20
-308.5
 30
0.0
 10
291.9
 20
-306.9508
 30
0.0
 10
291.9
 20
-306.9508
 30
0.0
 10
291.9
 20
-306.9508
 30
0.0
 10
291.9
 20
-306.9508
 30
0.0
 10
292.3156
 20
-306.9508
 30
0.0
 10
292.3156
 20
-306.9508
 30
0.0
 10
292.3156
 20
-306.9508
 30
0.0
 10
292.5876
 20
-306.4794
 30
0.0
 10
292.9794
 20
-306.0879
 30
0.0
 10
293.4507
 20
-305.816
 30
0.0
 10
293.4507
 20
-305.816
 30
0.0
 10
293.4507
 20
-305.816
 30
0.0
 10
293.4507
 20
-305.4001
 30
0.0
 10
293.4507
 20
-305.4001
 30
0.0
 10
293.4507
 20
-305.4001
 30
0.0
 10
293.4507
 20
-305.4001
 30
0.0
 10
295.0
 20
-305.4001
 30
0.0
 10
295.0
 20
-305.4001
 30
0.0
 10
295.0
 20
-305.4001
 30
0.0
 10
295.0
 20
-305.4001
 30
0.0
 10
296.5508
 20
-305.4001
 30
0.0
 10
296.5508
 20
-305.4001
 30
0.0
 10
296.5508
 20
-305.4001
 30
0.0
 10
296.5508
 20
-305.4001
 30
0.0
 10
296.5508
 20
-305.816
 30
0.0
 10
296.5508
 20
-305.816
 30
0.0
 10
296.5508
 20
-305.816
 30
0.0
 10
297.0206
 20
-306.0879
 30
0.0
 10
297.4136
 20
-306.4794
 30
0.0
 10
297.6856
 20
-306.9508
 30
0.0
 10
297.6856
 20
-306.9508
 30
0.0
 10
297.6856
 20
-306.9508
 30
0.0
 10
298.1
 20
-306.9508
 30
0.0
 10
298.1
 20
-306.9508
 30
0.0
 10
298.1
 20
-306.9508
 30
0.0
 10
298.1
 20
-306.9508
 30
0.0
 10
298.1
 20
-308.5
 30
0.0
 10
298.1
 20
-308.5
 30
0.0
 10
298.1
 20
-308.5
 30
0.0
 10
298.1
 20
-308.5
 30
0.0
 10
298.1
 20
-310.0507
 30
0.0
 10
298.1
 20
-310.0507
 30
0.0
 10
298.1
 20
-310.0507
 30
0.0
 10
298.1
 20
-310.0507
 30
0.0
 10
297.6856
 20
-310.0507
 30
0.0
 10
297.6856
 20
-310.0507
 30
0.0
 10
297.6856
 20
-310.0507
 30
0.0
 10
297.4136
 20
-310.5206
 30
0.0
 10
297.0206
 20
-310.9135
 30
0.0
 10
296.5508
 20
-311.1855
 30
0.0
 10
296.5508
 20
-311.1855
 30
0.0
 10
296.5508
 20
-311.1855
 30
0.0
 10
296.5508
 20
-311.6
 30
0.0
 10
296.5508
 20
-311.6
 30
0.0
 10
296.5508
 20
-311.6
 30
0.0
 10
296.5508
 20
-311.6
 30
0.0
 10
295.0
 20
-311.6
 30
0.0
 10
295.0
 20
-311.6
 30
0.0
 10
295.0
 20
-311.6
 30
0.0
 10
295.0
 20
-311.6
 30
0.0
 10
293.4507
 20
-311.6
 30
0.0
 10
293.4507
 20
-311.6
 30
0.0
  0
SPLINE
  5
9F
330
1F
100
AcDbEntity
  8
LAYER_1
100
AcDbSpline
210
0.0
220
0.0
230
1.0
 70
    11
 71
     3
 72
    84
 73
    80
 74
     0
 42
0.0000000001
 43
0.0000000001
 40
0.0
 40
0.0
 40
0.0
 40
0.0
 40
0.05
 40
0.05
 40
0.05
 40
0.05
 40
0.1
 40
0.1
 40
0.1
 40
0.1
 40
0.15
 40
0.15
 40
0.15
 40
0.15
 40
0.2
 40
0.2
 40
0.2
 40
0.2
 40
0.25
 40
0.25
 40
0.25
 40
0.25
 40
0.3
 40
0.3
 40
0.3
 40
0.3
 40
0.35
 40
0.35
 40
0.35
 40
0.35
 40
0.4
 40
0.4
 40
0.4
 40
0.4
 40
0.45
 40
0.45
 40
0.45
 40
0.45
 40
0.4999999999999999
 40
0.4999999999999999
 40
0.4999999999999999
 40
0.4999999999999999
 40
0.5499999999999999
 40
0.5499999999999999
 40
0.5499999999999999
 40
0.5499999999999999
 40
0.6
 40
0.6
 40
0.6
 40
0.6
 40
0.65
 40
0.65
 40
0.65
 40
0.65
 40
0.7000000000000001
 40
0.7000000000000001
 40
0.7000000000000001
 40
0.7000000000000001
 40
0.7500000000000001
 40
0.7500000000000001
 40
0.7500000000000001
 40
0.7500000000000001
 40
0.8000000000000002
 40
0.8000000000000002
 40
0.8000000000000002
 40
0.8000000000000002
 40
0.8500000000000002
 40
0.8500000000000002
 40
0.8500000000000002
 40
0.8500000000000002
 40
0.9000000000000002
 40
0.9000000000000002
 40
0.9000000000000002
 40
0.9000000000000002
 40
0.9500000000000003
 40
0.9500000000000003
 40
0.9500000000000003
 40
0.9500000000000003
 40
1.0
 40
1.0
 40
1.0
 40
1.0
 10
293.4507
 20
-351.6
 30
0.0
 10
293.4507
 20
-351.6
 30
0.0
 10
293.4507
 20
-351.1855
 30
0.0
 10
293.4507
 20
-351.1855
 30
0.0
 10
293.4507
 20
-351.1855
 30
0.0
 10
292.9794
 20
-350.9135
 30
0.0
 10
292.5876
 20
-350.5206
 30
0.0
 10
292.3156
 20
-350.0507
 30
0.0
 10
292.3156
 20
-350.0507
 30
0.0
 10
292.3156
 20
-350.0507
 30
0.0
 10
291.9
 20
-350.0507
 30
0.0
 10
291.9
 20
-350.0507
 30
0.0
 10
291.9
 20
-350.0507
 30
0.0
 10
291.9
 20
-350.0507
 30
0.0
 10
291.9
 20
-348.5
 30
0.0
 10
291.9
 20
-348.5
 30
0.0
 10
291.9
 20
-348.5
 30
0.0
 10
291.9
 20
-348.5
 30
0.0
 10
291.9
 20
-346.9508
 30
0.0
 10
291.9
 20
-346.9508
 30
0.0
 10
291.9
 20
-346.9508
 30
0.0
 10
291.9
 20
-346.9508
 30
0.0
 10
292.3156
 20
-346.9508
 30
0.0
 10
292.3156
 20
-346.9508
 30
0.0
 10
292.3156
 20
-346.9508
 30
0.0
 10
292.5876
 20
-346.4794
 30
0.0
 10
292.9794
 20
-346.0879
 30
0.0
 10
293.4507
 20
-345.816
 30
0.0
 10
293.4507
 20
-345.816
 30
0.0
 10
293.4507
 20
-345.816
 30
0.0
 10
293.4507
 20
-345.4001
 30
0.0
 10
293.4507
 20
-345.4001
 30
0.0
 10
293.4507
 20
-345.4001
 30
0.0
 10
293.4507
 20
-345.4001
 30
0.0
 10
295.0
 20
-345.4001
 30
0.0
 10
295.0
 20
-345.4001
 30
0.0
 10
295.0
 20
-345.4001
 30
0.0
 10
295.0
 20
-345.4001
 30
0.0
 10
296.5508
 20
-345.4001
 30
0.0
 10
296.5508
 20
-345.4001
 30
0.0
 10
296.5508
 20
-345.4001
 30
0.0
 10
296.5508
 20
-345.4001
 30
0.0
 10
296.5508
 20
-345.816
 30
0.0
 10
296.5508
 20
-345.816
 30
0.0
 10
296.5508
 20
-345.816
 30
0.0
 10
297.0206
 20
-346.0879
 30
0.0
 10
297.4136
 20
-346.4794
 30
0.0
 10
297.6856
 20
-346.9508
 30
0.0
 10
297.6856
 20
-346.9508
 30
0.0
 10
297.6856
 20
-346.9508
 30
0.0
 10
298.1
 20
-346.9508
 30
0.0
 10
298.1
 20
-346.9508
 30
0.0
 10
298.1
 20
-346.9508
 30
0.0
 10
298.1
 20
-346.9508
 30
0.0
 10
298.1
 20
-348.5
 30
0.0
 10
298.1
 20
-348.5
 30
0.0
 10
298.1
 20
-348.5
 30
0.0
 10
298.1
 20
-348.5
 30
0.0
 10
298.1
 20
-350.0507
 30
0.0
 10
298.1
 20
-350.0507
 30
0.0
 10
298.1
 20
-350.0507
 30
0.0
 10
298.1
 20
-350.0507
 30
0.0
 10
297.6856
 20
-350.0507
 30
0.0
 10
297.6856
 20
-350.0507
 30
0.0
 10
297.6856
 20
-350.0507
 30
0.0
 10
297.4136
 20
-350.5206
 30
0.0
 10
297.0206
 20
-350.9135
 30
0.0
 10
296.5508
 20
-351.1855
 30
0.0
 10
296.5508
 20
-351.1855
 30
0.0
 10
296.5508
 20
-351.1855
 30
0.0
 10
296.5508
 20
-351.6
 30
0.0
 10
296.5508
 20
-351.6
 30
0.0
 10
296.5508
 20
-351.6
 30
0.0
 10
296.5508
 20
-351.6
 30
0.0
 10
295.0
 20
-351.6
 30
0.0
 10
295.0
 20
-351.6
 30
0.0
 10
295.0
 20
-351.6
 30
0.0
 10
295.0
 20
-351.6
 30
0.0
 10
293.4507
 20
-351.6
 30
0.0
 10
293.4507
 20
-351.6
 30
0.0
  0
SPLINE
  5
A0
330
1F
100
AcDbEntity
  8
LAYER_1
100
AcDbSpline
210
0.0
220
0.0
230
1.0
 70
    11
 71
     3
 72
    44
 73
    40
 74
     0
 42
0.0000000001
 43
0.0000000001
 40
0.0
 40
0.0
 40
0.0
 40
0.0
 40
0.1
 40
0.1
 40
0.1
 40
0.1
 40
0.2
 40
0.2
 40
0.2
 40
0.2
 40
0.3
 40
0.3
 40
0.3
 40
0.3
 40
0.4
 40
0.4
 40
0.4
 40
0.4
 40
0.5
 40
0.5
 40
0.5
 40
0.5
 40
0.6
 40
0.6
 40
0.6
 40
0.6
 40
0.7
 40
0.7
 40
0.7
 40
0.7
 40
0.7999999999999999
 40
0.7999999999999999
 40
0.7999999999999999
 40
0.7999999999999999
 40
0.8999999999999999
 40
0.8999999999999999
 40
0.8999999999999999
 40
0.8999999999999999
 40
1.0
 40
1.0
 40
1.0
 40
1.0
 10
268.4999
 20
-347.9983
 30
0.0
 10
268.4999
 20
-347.9983
 30
0.0
 10
268.4997
 20
-349.9994
 30
0.0
 10
268.4997
 20
-349.9994
 30
0.0
 10
268.4997
 20
-349.9994
 30
0.0
 10
268.4997
 20
-352.7694
 30
0.0
 10
270.7306
 20
-355.0003
 30
0.0
 10
273.5006
 20
-355.0003
 30
0.0
 10
273.5006
 20
-355.0003
 30
0.0
 10
273.5006
 20
-355.0003
 30
0.0
 10
316.4993
 20
-355.0003
 30
0.0
 10
316.4993
 20
-355.0003
 30
0.0
 10
316.4993
 20
-355.0003
 30
0.0
 10
319.2707
 20
-355.0003
 30
0.0
 10
321.5003
 20
-352.7694
 30
0.0
 10
321.5003
 20
-349.9994
 30
0.0
 10
321.5003
 20
-349.9994
 30
0.0
 10
321.5003
 20
-349.9994
 30
0.0
 10
321.5003
 20
-307.0007
 30
0.0
 10
321.5003
 20
-307.0007
 30
0.0
 10
321.5003
 20
-307.0007
 30
0.0
 10
321.5003
 20
-304.2293
 30
0.0
 10
319.2707
 20
-301.9997
 30
0.0
 10
316.4993
 20
-301.9997
 30
0.0
 10
316.4993
 20
-301.9997
 30
0.0
 10
316.4993
 20
-301.9997
 30
0.0
 10
273.5006
 20
-301.9997
 30
0.0
 10
273.5006
 20
-301.9997
 30
0.0
 10
273.5006
 20
-301.9997
 30
0.0
 10
270.7306
 20
-301.9997
 30
0.0
 10
268.4997
 20
-304.2293
 30
0.0
 10
268.4997
 20
-307.0007
 30
0.0
 10
268.4997
 20
-307.0007
 30
0.0
 10
268.4997
 20
-307.0007
 30
0.0
 10
268.4997
 20
-324.6555
 30
0.0
 10
268.4997
 20
-324.6555
 30
0.0
 10
268.4997
 20
-324.6555
 30
0.0
 10
268.4997
 20
-324.6555
 30
0.0
 10
268.4999
 20
-347.9983
 30
0.0
 10
268.4999
 20
-347.9983
 30
0.0
  0
ENDSEC
  0
SECTION
  2
OBJECTS
  0
DICTIONARY
  5
C
330
0
100
AcDbDictionary
  3
ACAD_GROUP
350
D
  3
ACAD_LAYOUT
350
1A
  3
ACAD_MLEADERSTYLE
350
C4
  3
ACAD_MLINESTYLE
350
17
  3
ACAD_PLOTSETTINGS
350
19
  3
ACAD_SCALELIST
350
3B
  3
ACAD_TABLESTYLE
350
C3
  3
ACAD_VISUALSTYLE
350
2A
  3
ACDBHEADERROUNDTRIPXREC
350
A1
  3
ACDBVARIABLEDICTIONARY
350
C1
  0
DICTIONARY
  5
D
102
{ACAD_REACTORS
330
C
102
}
330
C
100
AcDbDictionary
  0
DICTIONARY
  5
1A
102
{ACAD_REACTORS
330
C
102
}
330
C
100
AcDbDictionary
  0
DICTIONARY
  5
C4
102
{ACAD_REACTORS
330
C
102
}
330
C
100
AcDbDictionary
  0
DICTIONARY
  5
17
102
{ACAD_REACTORS
330
C
102
}
330
C
100
AcDbDictionary
  3
STANDARD
350
18
  0
DICTIONARY
  5
19
102
{ACAD_REACTORS
330
C
102
}
330
C
100
AcDbDictionary
  0
DICTIONARY
  5
3B
102
{ACAD_REACTORS
330
C
102
}
330
C
100
AcDbDictionary
  3
A0
350
3C
  3
A1
350
3D
  3
A2
350
3E
  3
A3
350
3F
  3
A4
350
40
  3
A5
350
41
  3
A6
350
42
  3
A7
350
43
  3
A8
350
44
  3
A9
350
45
  3
B0
350
46
  3
B1
350
47
  3
B2
350
48
  3
B3
350
49
  3
B4
350
4A
  3
B5
350
4B
  3
B6
350
4C
  3
B7
350
4D
  3
B8
350
4E
  3
B9
350
4F
  3
C0
350
50
  3
C1
350
51
  3
C2
350
52
  3
C3
350
53
  3
C4
350
54
  3
C5
350
55
  3
C6
350
56
  3
C7
350
57
  3
C8
350
58
  3
C9
350
59
  3
D0
350
5A
  3
D1
350
5B
  3
D2
350
5C
  0
DICTIONARY
  5
C3
102
{ACAD_REACTORS
330
C
102
}
330
C
100
AcDbDictionary
  0
DICTIONARY
  5
2A
102
{ACAD_REACTORS
330
C
102
}
330
C
100
AcDbDictionary
  3
2DWIREFRAME
350
2F
  3
3D_HIDDEN
350
31
  3
3DWIREFRAME
350
30
  3
BASIC
350
32
  3
BRIGHTEN
350
36
  3
COLORCHANGE
350
3A
  3
CONCEPTUAL
350
34
  3
DIM
350
35
  3
FACEPATTERN
350
39
  3
FLAT
350
2B
  3
FLATWITHEDGES
350
2C
  3
GOURAUD
350
2D
  3
GOURAUDWITHEDGES
350
2E
  3
LINEPATTERN
350
38
  3
REALISTIC
350
33
  3
THICKEN
350
37
  0
DICTIONARY
  5
A1
102
{ACAD_REACTORS
330
C
102
}
330
C
100
AcDbDictionary
  3
CEPSNTYPE
350
AA
  3
DIMSTYLEDATA
350
C0
  3
FINGERPRINTGUID
350
AB
  3
HYPERLINKBASE
350
A4
  3
INSUNITS
350
A9
  3
LAYOUTDICT
350
A6
  3
LWETCUNION
350
A8
  3
PLOTSETDICT
350
A7
  3
PSVPSCALE
350
AD
  3
PUCSBASE
350
B0
  3
PUCSORGBACK
350
B6
  3
PUCSORGBOTTOM
350
B2
  3
PUCSORGFRONT
350
B5
  3
PUCSORGLEFT
350
B3
  3
PUCSORGRIGHT
350
B4
  3
PUCSORGTOP
350
B1
  3
PUCSORTHOREF
350
AE
  3
PUCSORTHOVIEW
350
AF
  3
STYLESHEET
350
A5
  3
TSTACKALIGN
350
A2
  3
TSTACKSIZE
350
A3
  3
UCSBASE
350
B9
  3
UCSORGBACK
350
BF
  3
UCSORGBOTTOM
350
BB
  3
UCSORGFRONT
350
BE
  3
UCSORGLEFT
350
BC
  3
UCSORGRIGHT
350
BD
  3
UCSORGTOP
350
BA
  3
UCSORTHOREF
350
B7
  3
UCSORTHOVIEW
350
B8
  3
VERSIONGUID
350
AC
  0
DICTIONARY
  5
C1
102
{ACAD_REACTORS
330
C
102
}
330
C
100
AcDbDictionary
  3
CANNOSCALE
350
C2
  0
MLINESTYLE
  5
18
102
{ACAD_REACTORS
330
17
102
}
330
17
100
AcDbMlineStyle
  2
Standard
 70
     0
  3

 62
   256
 51
90.0
 52
90.0
 71
     2
 49
0.5
 62
   256
  6
BYLAYER
 49
-0.5
 62
   256
  6
BYLAYER
  0
SCALE
  5
3C
102
{ACAD_REACTORS
330
3B
102
}
330
3B
100
AcDbScale
 70
     0
300
1:1
140
1.0
141
1.0
290
     1
  0
SCALE
  5
3D
102
{ACAD_REACTORS
330
3B
102
}
330
3B
100
AcDbScale
 70
     0
300
1:2
140
1.0
141
2.0
290
     0
  0
SCALE
  5
3E
102
{ACAD_REACTORS
330
3B
102
}
330
3B
100
AcDbScale
 70
     0
300
1:4
140
1.0
141
4.0
290
     0
  0
SCALE
  5
3F
102
{ACAD_REACTORS
330
3B
102
}
330
3B
100
AcDbScale
 70
     0
300
1:5
140
1.0
141
5.0
290
     0
  0
SCALE
  5
40
102
{ACAD_REACTORS
330
3B
102
}
330
3B
100
AcDbScale
 70
     0
300
1:8
140
1.0
141
8.0
290
     0
  0
SCALE
  5
41
102
{ACAD_REACTORS
330
3B
102
}
330
3B
100
AcDbScale
 70
     0
300
1:10
140
1.0
141
10.0
290
     0
  0
SCALE
  5
42
102
{ACAD_REACTORS
330
3B
102
}
330
3B
100
AcDbScale
 70
     0
300
1:16
140
1.0
141
16.0
290
     0
  0
SCALE
  5
43
102
{ACAD_REACTORS
330
3B
102
}
330
3B
100
AcDbScale
 70
     0
300
1:20
140
1.0
141
20.0
290
     0
  0
SCALE
  5
44
102
{ACAD_REACTORS
330
3B
102
}
330
3B
100
AcDbScale
 70
     0
300
1:30
140
1.0
141
30.0
290
     0
  0
SCALE
  5
45
102
{ACAD_REACTORS
330
3B
102
}
330
3B
100
AcDbScale
 70
     0
300
1:40
140
1.0
141
40.0
290
     0
  0
SCALE
  5
46
102
{ACAD_REACTORS
330
3B
102
}
330
3B
100
AcDbScale
 70
     0
300
1:50
140
1.0
141
50.0
290
     0
  0
SCALE
  5
47
102
{ACAD_REACTORS
330
3B
102
}
330
3B
100
AcDbScale
 70
     0
300
1:100
140
1.0
141
100.0
290
     0
  0
SCALE
  5
48
102
{ACAD_REACTORS
330
3B
102
}
330
3B
100
AcDbScale
 70
     0
300
2:1
140
2.0
141
1.0
290
     0
  0
SCALE
  5
49
102
{ACAD_REACTORS
330
3B
102
}
330
3B
100
AcDbScale
 70
     0
300
4:1
140
4.0
141
1.0
290
     0
  0
SCALE
  5
4A
102
{ACAD_REACTORS
330
3B
102
}
330
3B
100
AcDbScale
 70
     0
300
8:1
140
8.0
141
1.0
290
     0
  0
SCALE
  5
4B
102
{ACAD_REACTORS
330
3B
102
}
330
3B
100
AcDbScale
 70
     0
300
10:1
140
10.0
141
1.0
290
     0
  0
SCALE
  5
4C
102
{ACAD_REACTORS
330
3B
102
}
330
3B
100
AcDbScale
 70
     0
300
100:1
140
100.0
141
1.0
290
     0
  0
SCALE
  5
4D
102
{ACAD_REACTORS
330
3B
102
}
330
3B
100
AcDbScale
 70
     0
300
1/128" = 1'-0"
140
0.0078125
141
12.0
290
     0
  0
SCALE
  5
4E
102
{ACAD_REACTORS
330
3B
102
}
330
3B
100
AcDbScale
 70
     0
300
1/64" = 1'-0"
140
0.015625
141
12.0
290
     0
  0
SCALE
  5
4F
102
{ACAD_REACTORS
330
3B
102
}
330
3B
100
AcDbScale
 70
     0
300
1/32" = 1'-0"
140
0.03125
141
12.0
290
     0
  0
SCALE
  5
50
102
{ACAD_REACTORS
330
3B
102
}
330
3B
100
AcDbScale
 70
     0
300
1/16" = 1'-0"
140
0.0625
141
12.0
290
     0
  0
SCALE
  5
51
102
{ACAD_REACTORS
330
3B
102
}
330
3B
100
AcDbScale
 70
     0
300
3/32" = 1'-0"
140
0.09375
141
12.0
290
     0
  0
SCALE
  5
52
102
{ACAD_REACTORS
330
3B
102
}
330
3B
100
AcDbScale
 70
     0
300
1/8" = 1'-0"
140
0.125
141
12.0
290
     0
  0
SCALE
  5
53
102
{ACAD_REACTORS
330
3B
102
}
330
3B
100
AcDbScale
 70
     0
300
3/16" = 1'-0"
140
0.1875
141
12.0
290
     0
  0
SCALE
  5
54
102
{ACAD_REACTORS
330
3B
102
}
330
3B
100
AcDbScale
 70
     0
300
1/4" = 1'-0"
140
0.25
141
12.0
290
     0
  0
SCALE
  5
55
102
{ACAD_REACTORS
330
3B
102
}
330
3B
100
AcDbScale
 70
     0
300
3/8" = 1'-0"
140
0.375
141
12.0
290
     0
  0
SCALE
  5
56
102
{ACAD_REACTORS
330
3B
102
}
330
3B
100
AcDbScale
 70
     0
300
1/2" = 1'-0"
140
0.5
141
12.0
290
     0
  0
SCALE
  5
57
102
{ACAD_REACTORS
330
3B
102
}
330
3B
100
AcDbScale
 70
     0
300
3/4" = 1'-0"
140
0.75
141
12.0
290
     0
  0
SCALE
  5
58
102
{ACAD_REACTORS
330
3B
102
}
330
3B
100
AcDbScale
 70
     0
300
1" = 1'-0"
140
1.0
141
12.0
290
     0
  0
SCALE
  5
59
102
{ACAD_REACTORS
330
3B
102
}
330
3B
100
AcDbScale
 70
     0
300
1-1/2" = 1'-0"
140
1.5
141
12.0
290
     0
  0
SCALE
  5
5A
102
{ACAD_REACTORS
330
3B
102
}
330
3B
100
AcDbScale
 70
     0
300
3" = 1'-0"
140
3.0
141
12.0
290
     0
  0
SCALE
  5
5B
102
{ACAD_REACTORS
330
3B
102
}
330
3B
100
AcDbScale
 70
     0
300
6" = 1'-0"
140
6.0
141
12.0
290
     0
  0
SCALE
  5
5C
102
{ACAD_REACTORS
330
3B
102
}
330
3B
100
AcDbScale
 70
     0
300
1'-0" = 1'-0"
140
12.0
141
12.0
290
     0
  0
VISUALSTYLE
  5
2F
102
{ACAD_REACTORS
330
2A
102
}
330
2A
100
AcDbVisualStyle
  2
2dWireframe
 70
     4
 71
     0
 72
     2
 73
     0
 90
        0
 40
-0.6
 41
-30.0
 62
     5
 63
     7
 74
     1
 91
        4
 64
     7
 65
   257
 75
     1
175
     1
 42
1.0
 92
        0
 66
   257
 43
1.0
 76
     1
 77
     6
 78
     2
 67
     7
 79
     5
170
     0
171
     0
290
     0
174
     0
 93
        1
 44
0.0
173
     0
291
     0
 45
0.0
1001
ACAD
1000
AcDbSavedByObjectVersion
1070
     0
  0
VISUALSTYLE
  5
31
102
{ACAD_REACTORS
330
2A
102
}
330
2A
100
AcDbVisualStyle
  2
3D Hidden
 70
     6
 71
     1
 72
     2
 73
     2
 90
        0
 40
-0.6
 41
-30.0
 62
     5
 63
     7
 74
     2
 91
        2
 64
     7
 65
   257
 75
     2
175
     1
 42
40.0
 92
        0
 66
   257
 43
1.0
 76
     1
 77
     6
 78
     2
 67
     7
 79
     3
170
     0
171
     0
290
     0
174
     0
 93
        1
 44
0.0
173
     0
291
     0
 45
0.0
1001
ACAD
1000
AcDbSavedByObjectVersion
1070
     0
  0
VISUALSTYLE
  5
30
102
{ACAD_REACTORS
330
2A
102
}
330
2A
100
AcDbVisualStyle
  2
3dWireframe
 70
     5
 71
     0
 72
     2
 73
     0
 90
        0
 40
-0.6
 41
-30.0
 62
     5
 63
     7
 74
     1
 91
        4
 64
     7
 65
   257
 75
     1
175
     1
 42
1.0
 92
        0
 66
   257
 43
1.0
 76
     1
 77
     6
 78
     2
 67
     7
 79
     5
170
     0
171
     0
290
     0
174
     0
 93
        1
 44
0.0
173
     0
291
     0
 45
0.0
1001
ACAD
1000
AcDbSavedByObjectVersion
1070
     0
  0
VISUALSTYLE
  5
32
102
{ACAD_REACTORS
330
2A
102
}
330
2A
100
AcDbVisualStyle
  2
Basic
 70
     7
 71
     1
 72
     0
 73
     1
 90
        0
 40
-0.6
 41
-30.0
 62
     5
 63
     7
 74
     0
 91
        4
 64
     7
 65
   257
 75
     1
175
     1
 42
1.0
 92
        8
 66
     7
 43
1.0
 76
     1
 77
     6
 78
     2
 67
     7
 79
     5
170
     0
171
     0
290
     0
174
     0
 93
        1
 44
0.0
173
     0
291
     1
 45
0.0
1001
ACAD
1000
AcDbSavedByObjectVersion
1070
     0
  0
VISUALSTYLE
  5
36
102
{ACAD_REACTORS
330
2A
102
}
330
2A
100
AcDbVisualStyle
  2
Brighten
 70
    12
 71
     2
 72
     2
 73
     0
 90
        0
 40
-0.6
 41
-30.0
 62
     5
 63
     7
 74
     1
 91
        4
 64
     7
 65
   257
 75
     1
175
     1
 42
1.0
 92
        8
 66
     7
 43
1.0
 76
     1
 77
     6
 78
     2
 67
     7
 79
     5
170
     0
171
     0
290
     0
174
     0
 93
        1
 44
50.0
173
     0
291
     1
 45
0.0
1001
ACAD
1000
AcDbSavedByObjectVersion
1070
     0
  0
VISUALSTYLE
  5
3A
102
{ACAD_REACTORS
330
2A
102
}
330
2A
100
AcDbVisualStyle
  2
ColorChange
 70
    16
 71
     2
 72
     2
 73
     3
 90
        0
 40
-0.6
 41
-30.0
 62
     5
 63
     8
 74
     1
 91
        4
 64
     7
 65
   257
 75
     1
175
     1
 42
1.0
 92
        8
 66
     8
 43
1.0
 76
     1
 77
     6
 78
     2
 67
     7
 79
     5
170
     0
171
     0
290
     0
174
     0
 93
        1
 44
0.0
173
     0
291
     1
 45
0.0
1001
ACAD
1000
AcDbSavedByObjectVersion
1070
     0
  0
VISUALSTYLE
  5
34
102
{ACAD_REACTORS
330
2A
102
}
330
2A
100
AcDbVisualStyle
  2
Conceptual
 70
     9
 71
     3
 72
     2
 73
     0
 90
        0
 40
-0.6
 41
-30.0
 62
     5
 63
     7
 74
     2
 91
        2
 64
     7
 65
   257
 75
     1
175
     1
 42
40.0
 92
        8
 66
     7
 43
1.0
 76
     1
 77
     6
 78
     2
 67
     7
 79
     3
170
     0
171
     0
290
     0
174
     0
 93
        1
 44
0.0
173
     0
291
     0
 45
0.0
1001
ACAD
1000
AcDbSavedByObjectVersion
1070
     0
  0
VISUALSTYLE
  5
35
102
{ACAD_REACTORS
330
2A
102
}
330
2A
100
AcDbVisualStyle
  2
Dim
 70
    11
 71
     2
 72
     2
 73
     0
 90
        0
 40
-0.6
 41
-30.0
 62
     5
 63
     7
 74
     1
 91
        4
 64
     7
 65
   257
 75
     1
175
     1
 42
1.0
 92
        8
 66
     7
 43
1.0
 76
     1
 77
     6
 78
     2
 67
     7
 79
     5
170
     0
171
     0
290
     0
174
     0
 93
        1
 44
-50.0
173
     0
291
     1
 45
0.0
1001
ACAD
1000
AcDbSavedByObjectVersion
1070
     0
  0
VISUALSTYLE
  5
39
102
{ACAD_REACTORS
330
2A
102
}
330
2A
100
AcDbVisualStyle
  2
Facepattern
 70
    15
 71
     2
 72
     2
 73
     0
 90
        0
 40
-0.6
 41
-30.0
 62
     5
 63
     7
 74
     1
 91
        4
 64
     7
 65
   257
 75
     1
175
     1
 42
1.0
 92
        8
 66
     7
 43
1.0
 76
     1
 77
     6
 78
     2
 67
     7
 79
     5
170
     0
171
     0
290
     0
174
     0
 93
        1
 44
0.0
173
     0
291
     1
 45
0.0
1001
ACAD
1000
AcDbSavedByObjectVersion
1070
     0
  0
VISUALSTYLE
  5
2B
102
{ACAD_REACTORS
330
2A
102
}
330
2A
100
AcDbVisualStyle
  2
Flat
 70
     0
 71
     2
 72
     1
 73
     1
 90
        2
 40
-0.6
 41
30.0
 62
     5
 63
     7
 74
     0
 91
        4
 64
     7
 65
   257
 75
     1
175
     1
 42
1.0
 92
        8
 66
     7
 43
1.0
 76
     1
 77
     6
 78
     2
 67
     7
 79
     5
170
     0
171
     0
290
     0
174
     0
 93
       13
 44
0.0
173
     0
291
     1
 45
0.0
1001
ACAD
1000
AcDbSavedByObjectVersion
1070
     0
  0
VISUALSTYLE
  5
2C
102
{ACAD_REACTORS
330
2A
102
}
330
2A
100
AcDbVisualStyle
  2
FlatWithEdges
 70
     1
 71
     2
 72
     1
 73
     1
 90
        2
 40
-0.6
 41
30.0
 62
     5
 63
     7
 74
     1
 91
        4
 64
     7
 65
   257
 75
     1
175
     1
 42
1.0
 92
        0
 66
   257
 43
1.0
 76
     1
 77
     6
 78
     2
 67
     7
 79
     5
170
     0
171
     0
290
     0
174
     0
 93
       13
 44
0.0
173
     0
291
     1
 45
0.0
1001
ACAD
1000
AcDbSavedByObjectVersion
1070
     0
  0
VISUALSTYLE
  5
2D
102
{ACAD_REACTORS
330
2A
102
}
330
2A
100
AcDbVisualStyle
  2
Gouraud
 70
     2
 71
     2
 72
     2
 73
     1
 90
        2
 40
-0.6
 41
30.0
 62
     5
 63
     7
 74
     0
 91
        4
 64
     7
 65
   257
 75
     1
175
     1
 42
1.0
 92
        0
 66
     7
 43
1.0
 76
     1
 77
     6
 78
     2
 67
     7
 79
     5
170
     0
171
     0
290
     0
174
     0
 93
       13
 44
0.0
173
     0
291
     1
 45
0.0
1001
ACAD
1000
AcDbSavedByObjectVersion
1070
     0
  0
VISUALSTYLE
  5
2E
102
{ACAD_REACTORS
330
2A
102
}
330
2A
100
AcDbVisualStyle
  2
GouraudWithEdges
 70
     3
 71
     2
 72
     2
 73
     1
 90
        2
 40
-0.6
 41
30.0
 62
     5
 63
     7
 74
     1
 91
        4
 64
     7
 65
   257
 75
     1
175
     1
 42
1.0
 92
        0
 66
   257
 43
1.0
 76
     1
 77
     6
 78
     2
 67
     7
 79
     5
170
     0
171
     0
290
     0
174
     0
 93
       13
 44
0.0
173
     0
291
     1
 45
0.0
1001
ACAD
1000
AcDbSavedByObjectVersion
1070
     0
  0
VISUALSTYLE
  5
38
102
{ACAD_REACTORS
330
2A
102
}
330
2A
100
AcDbVisualStyle
  2
Linepattern
 70
    14
 71
     2
 72
     2
 73
     0
 90
        0
 40
-0.6
 41
-30.0
 62
     5
 63
     7
 74
     1
 91
        4
 64
     7
 65
   257
 75
     7
175
     7
 42
1.0
 92
        8
 66
     7
 43
1.0
 76
     1
 77
     6
 78
     2
 67
     7
 79
     5
170
     0
171
     0
290
     0
174
     0
 93
        1
 44
0.0
173
     0
291
     1
 45
0.0
1001
ACAD
1000
AcDbSavedByObjectVersion
1070
     0
  0
VISUALSTYLE
  5
33
102
{ACAD_REACTORS
330
2A
102
}
330
2A
100
AcDbVisualStyle
  2
Realistic
 70
     8
 71
     2
 72
     2
 73
     0
 90
        0
 40
-0.6
 41
-30.0
 62
     5
 63
     7
 74
     1
 91
        0
 64
     7
 65
   257
 75
     1
175
     1
 42
1.0
 92
        8
 66
     8
 43
1.0
 76
     1
 77
     6
 78
     2
 67
     7
 79
     5
170
     0
171
     0
290
     0
174
     0
 93
       13
 44
0.0
173
     0
291
     0
 45
0.0
1001
ACAD
1000
AcDbSavedByObjectVersion
1070
     0
  0
VISUALSTYLE
  5
37
102
{ACAD_REACTORS
330
2A
102
}
330
2A
100
AcDbVisualStyle
  2
Thicken
 70
    13
 71
     2
 72
     2
 73
     0
 90
        0
 40
-0.6
 41
-30.0
 62
     5
 63
     7
 74
     1
 91
        4
 64
     7
 65
   257
 75
     1
175
     1
 42
1.0
 92
       12
 66
     7
 43
1.0
 76
     1
 77
     6
 78
     2
 67
     7
 79
     5
170
     0
171
     0
290
     0
174
     0
 93
        1
 44
0.0
173
     0
291
     1
 45
0.0
1001
ACAD
1000
AcDbSavedByObjectVersion
1070
     0
  0
XRECORD
  5
AA
102
{ACAD_REACTORS
330
A1
102
}
330
A1
100
AcDbXrecord
 90
        0
  0
XRECORD
  5
C0
102
{ACAD_REACTORS
330
A1
102
}
330
A1
100
AcDbXrecord
1000
DSTYLE
1002
{
1070
   340
340
11
1002
}
  0
XRECORD
  5
AB
102
{ACAD_REACTORS
330
A1
102
}
330
A1
100
AcDbXrecord
  1
{F1B34B03-6D41-4A05-9E27-27B69DC89B90}
  0
XRECORD
  5
A4
102
{ACAD_REACTORS
330
A1
102
}
330
A1
100
AcDbXrecord
  1

  0
XRECORD
  5
A9
102
{ACAD_REACTORS
330
A1
102
}
330
A1
100
AcDbXrecord
 90
        4
  0
XRECORD
  5
A6
102
{ACAD_REACTORS
330
A1
102
}
330
A1
100
AcDbXrecord
340
1A
  0
XRECORD
  5
A8
102
{ACAD_REACTORS
330
A1
102
}
330
A1
100
AcDbXrecord
 90
    10781
  0
XRECORD
  5
A7
102
{ACAD_REACTORS
330
A1
102
}
330
A1
100
AcDbXrecord
340
19
  0
XRECORD
  5
AD
102
{ACAD_REACTORS
330
A1
102
}
330
A1
100
AcDbXrecord
 40
0.0
  0
XRECORD
  5
B0
102
{ACAD_REACTORS
330
A1
102
}
330
A1
100
AcDbXrecord
340
0
  0
XRECORD
  5
B6
102
{ACAD_REACTORS
330
A1
102
}
330
A1
100
AcDbXrecord
 10
0.0
 20
0.0
 30
0.0
  0
XRECORD
  5
B2
102
{ACAD_REACTORS
330
A1
102
}
330
A1
100
AcDbXrecord
 10
0.0
 20
0.0
 30
0.0
  0
XRECORD
  5
B5
102
{ACAD_REACTORS
330
A1
102
}
330
A1
100
AcDbXrecord
 10
0.0
 20
0.0
 30
0.0
  0
XRECORD
  5
B3
102
{ACAD_REACTORS
330
A1
102
}
330
A1
100
AcDbXrecord
 10
0.0
 20
0.0
 30
0.0
  0
XRECORD
  5
B4
102
{ACAD_REACTORS
330
A1
102
}
330
A1
100
AcDbXrecord
 10
0.0
 20
0.0
 30
0.0
  0
XRECORD
  5
B1
102
{ACAD_REACTORS
330
A1
102
}
330
A1
100
AcDbXrecord
 10
0.0
 20
0.0
 30
0.0
  0
XRECORD
  5
AE
102
{ACAD_REACTORS
330
A1
102
}
330
A1
100
AcDbXrecord
340
0
  0
XRECORD
  5
AF
102
{ACAD_REACTORS
330
A1
102
}
330
A1
100
AcDbXrecord
 70
     0
  0
XRECORD
  5
A5
102
{ACAD_REACTORS
330
A1
102
}
330
A1
100
AcDbXrecord
  1

  0
XRECORD
  5
A2
102
{ACAD_REACTORS
330
A1
102
}
330
A1
100
AcDbXrecord
 90
        1
  0
XRECORD
  5
A3
102
{ACAD_REACTORS
330
A1
102
}
330
A1
100
AcDbXrecord
 90
       70
  0
XRECORD
  5
B9
102
{ACAD_REACTORS
330
A1
102
}
330
A1
100
AcDbXrecord
340
0
  0
XRECORD
  5
BF
102
{ACAD_REACTORS
330
A1
102
}
330
A1
100
AcDbXrecord
 10
0.0
 20
0.0
 30
0.0
  0
XRECORD
  5
BB
102
{ACAD_REACTORS
330
A1
102
}
330
A1
100
AcDbXrecord
 10
0.0
 20
0.0
 30
0.0
  0
XRECORD
  5
BE
102
{ACAD_REACTORS
330
A1
102
}
330
A1
100
AcDbXrecord
 10
0.0
 20
0.0
 30
0.0
  0
XRECORD
  5
BC
102
{ACAD_REACTORS
330
A1
102
}
330
A1
100
AcDbXrecord
 10
0.0
 20
0.0
 30
0.0
  0
XRECORD
  5
BD
102
{ACAD_REACTORS
330
A1
102
}
330
A1
100
AcDbXrecord
 10
0.0
 20
0.0
 30
0.0
  0
XRECORD
  5
BA
102
{ACAD_REACTORS
330
A1
102
}
330
A1
100
AcDbXrecord
 10
0.0
 20
0.0
 30
0.0
  0
XRECORD
  5
B7
102
{ACAD_REACTORS
330
A1
102
}
330
A1
100
AcDbXrecord
340
0
  0
XRECORD
  5
B8
102
{ACAD_REACTORS
330
A1
102
}
330
A1
100
AcDbXrecord
 70
     0
  0
XRECORD
  5
AC
102
{ACAD_REACTORS
330
A1
102
}
330
A1
100
AcDbXrecord
  1
{FAEB1C32-E019-11D5-929B-00C0DF256EC4}
  0
DICTIONARYVAR
  5
C2
102
{ACAD_REACTORS
330
C1
102
}
330
C1
100
DictionaryVariables
280
     0
  1
1:1
  0
ENDSEC
  0
EOF
