<?xml version="1.0" standalone="no"?>
<!DOCTYPE svg PUBLIC "-//W3C//DTD SVG 1.1//EN" "http://www.w3.org/Graphics/SVG/1.1/DTD/svg11.dtd">
<svg width="118mm" height="72mm" viewBox="-59 -36 118 72" xmlns="http://www.w3.org/2000/svg" version="1.1">
<title>OpenSCAD Model</title>
<path d="
M 53.8139,35.9901 L 54.1267,35.9606 L 54.4369,35.9114 L 54.7435,35.8429 L 55.0451,35.7553 L 55.3406,35.6489
 L 55.6289,35.5241 L 55.9088,35.3815 L 56.1791,35.2216 L 56.4389,35.0451 L 56.6871,34.8526 L 56.9227,34.6448
 L 57.1448,34.4227 L 57.3526,34.1871 L 57.5451,33.9389 L 57.7216,33.6791 L 57.8815,33.4088 L 58.0241,33.1289
 L 58.1489,32.8406 L 58.2553,32.5451 L 58.3429,32.2435 L 58.4114,31.9369 L 58.4606,31.6267 L 58.4901,31.3139
 L 58.5,31 L 58.5,-31 L 58.4901,-31.3139 L 58.4606,-31.6267 L 58.4114,-31.9369 L 58.3429,-32.2435
 L 58.2553,-32.5451 L 58.1489,-32.8406 L 58.0241,-33.1289 L 57.8815,-33.4088 L 57.7216,-33.6791 L 57.5451,-33.9389
 L 57.3526,-34.1871 L 57.1448,-34.4227 L 56.9227,-34.6448 L 56.6871,-34.8526 L 56.4389,-35.0451 L 56.1791,-35.2216
 L 55.9088,-35.3815 L 55.6289,-35.5241 L 55.3406,-35.6489 L 55.0451,-35.7553 L 54.7435,-35.8429 L 54.4369,-35.9114
 L 54.1267,-35.9606 L 53.8139,-35.9901 L 53.5,-36 L -53.5,-36 L -53.8139,-35.9901 L -54.1267,-35.9606
 L -54.4369,-35.9114 L -54.7435,-35.8429 L -55.0451,-35.7553 L -55.3406,-35.6489 L -55.6289,-35.5241 L -55.9088,-35.3815
 L -56.1791,-35.2216 L -56.4389,-35.0451 L -56.6871,-34.8526 L -56.9227,-34.6448 L -57.1448,-34.4227 L -57.3526,-34.1871
 L -57.5451,-33.9389 L -57.7216,-33.6791 L -57.8815,-33.4088 L -58.0241,-33.1289 L -58.1489,-32.8406 L -58.2553,-32.5451
 L -58.3429,-32.2435 L -58.4114,-31.9369 L -58.4606,-31.6267 L -58.4901,-31.3139 L -58.5,-31 L -58.5,31
 L -58.4901,31.3139 L -58.4606,31.6267 L -58.4114,31.9369 L -58.3429,32.2435 L -58.2553,32.5451 L -58.1489,32.8406
 L -58.0241,33.1289 L -57.8815,33.4088 L -57.7216,33.6791 L -57.5451,33.9389 L -57.3526,34.1871 L -57.1448,34.4227
 L -56.9227,34.6448 L -56.6871,34.8526 L -56.4389,35.0451 L -56.1791,35.2216 L -55.9088,35.3815 L -55.6289,35.5241
 L -55.3406,35.6489 L -55.0451,35.7553 L -54.7435,35.8429 L -54.4369,35.9114 L -54.1267,35.9606 L -53.8139,35.9901
 L -53.5,36 L 53.5,36 z
M 52.3116,-27.0059 L 52.124,-27.0237 L 51.9379,-27.0531 L 51.7539,-27.0942 L 51.5729,-27.1468 L 51.3956,-27.2107
 L 51.2227,-27.2855 L 51.0547,-27.3711 L 50.8925,-27.467 L 50.7366,-27.5729 L 50.5877,-27.6884 L 50.4464,-27.8131
 L 50.3131,-27.9464 L 50.1885,-28.0877 L 50.0729,-28.2366 L 49.967,-28.3925 L 49.8711,-28.5547 L 49.7855,-28.7227
 L 49.7107,-28.8956 L 49.6468,-29.0729 L 49.5942,-29.2539 L 49.5531,-29.4379 L 49.5237,-29.624 L 49.5059,-29.8116
 L 49.5,-30 L 49.5059,-30.1884 L 49.5237,-30.376 L 49.5531,-30.5621 L 49.5942,-30.7461 L 49.6468,-30.927
 L 49.7107,-31.1044 L 49.7855,-31.2773 L 49.8711,-31.4453 L 49.967,-31.6075 L 50.0729,-31.7634 L 50.1885,-31.9123
 L 50.3131,-32.0536 L 50.4464,-32.1869 L 50.5877,-32.3115 L 50.7366,-32.427 L 50.8925,-32.533 L 51.0547,-32.6289
 L 51.2227,-32.7145 L 51.3956,-32.7893 L 51.5729,-32.8532 L 51.7539,-32.9057 L 51.9379,-32.9469 L 52.124,-32.9763
 L 52.3116,-32.9941 L 52.5,-33 L 52.6884,-32.9941 L 52.876,-32.9763 L 53.0621,-32.9469 L 53.2461,-32.9057
 L 53.427,-32.8532 L 53.6044,-32.7893 L 53.7773,-32.7145 L 53.9453,-32.6289 L 54.1075,-32.533 L 54.2634,-32.427
 L 54.4123,-32.3115 L 54.5536,-32.1869 L 54.6869,-32.0536 L 54.8115,-31.9123 L 54.927,-31.7634 L 55.033,-31.6075
 L 55.1289,-31.4453 L 55.2145,-31.2773 L 55.2893,-31.1044 L 55.3532,-30.927 L 55.4057,-30.7461 L 55.4469,-30.5621
 L 55.4763,-30.376 L 55.4941,-30.1884 L 55.5,-30 L 55.4941,-29.8116 L 55.4763,-29.624 L 55.4469,-29.4379
 L 55.4057,-29.2539 L 55.3532,-29.0729 L 55.2893,-28.8956 L 55.2145,-28.7227 L 55.1289,-28.5547 L 55.033,-28.3925
 L 54.927,-28.2366 L 54.8115,-28.0877 L 54.6869,-27.9464 L 54.5536,-27.8131 L 54.4123,-27.6884 L 54.2634,-27.5729
 L 54.1075,-27.467 L 53.9453,-27.3711 L 53.7773,-27.2855 L 53.6044,-27.2107 L 53.427,-27.1468 L 53.2461,-27.0942
 L 53.0621,-27.0531 L 52.876,-27.0237 L 52.6884,-27.0059 L 52.5,-27 z
M 7.31161,-27.0059 L 7.12399,-27.0237 L 6.93785,-27.0531 L 6.75392,-27.0942 L 6.57294,-27.1468 L 6.39561,-27.2107
 L 6.22266,-27.2855 L 6.05473,-27.3711 L 5.89252,-27.467 L 5.73663,-27.5729 L 5.58772,-27.6884 L 5.44635,-27.8131
 L 5.31308,-27.9464 L 5.18845,-28.0877 L 5.07294,-28.2366 L 4.96701,-28.3925 L 4.87108,-28.5547 L 4.78551,-28.7227
 L 4.71066,-28.8956 L 4.64682,-29.0729 L 4.59424,-29.2539 L 4.55313,-29.4379 L 4.52365,-29.624 L 4.50591,-29.8116
 L 4.5,-30 L 4.50591,-30.1884 L 4.52365,-30.376 L 4.55313,-30.5621 L 4.59424,-30.7461 L 4.64682,-30.927
 L 4.71066,-31.1044 L 4.78551,-31.2773 L 4.87108,-31.4453 L 4.96701,-31.6075 L 5.07294,-31.7634 L 5.18845,-31.9123
 L 5.31308,-32.0536 L 5.44635,-32.1869 L 5.58772,-32.3115 L 5.73663,-32.427 L 5.89252,-32.533 L 6.05473,-32.6289
 L 6.22266,-32.7145 L 6.39561,-32.7893 L 6.57294,-32.8532 L 6.75392,-32.9057 L 6.93785,-32.9469 L 7.12399,-32.9763
 L 7.31161,-32.9941 L 7.5,-33 L 7.68837,-32.9941 L 7.87599,-32.9763 L 8.06213,-32.9469 L 8.24606,-32.9057
 L 8.42705,-32.8532 L 8.60437,-32.7893 L 8.77733,-32.7145 L 8.94525,-32.6289 L 9.10747,-32.533 L 9.26335,-32.427
 L 9.41226,-32.3115 L 9.55363,-32.1869 L 9.6869,-32.0536 L 9.81154,-31.9123 L 9.92705,-31.7634 L 10.033,-31.6075
 L 10.1289,-31.4453 L 10.2145,-31.2773 L 10.2893,-31.1044 L 10.3532,-30.927 L 10.4057,-30.7461 L 10.4469,-30.5621
 L 10.4763,-30.376 L 10.4941,-30.1884 L 10.5,-30 L 10.4941,-29.8116 L 10.4763,-29.624 L 10.4469,-29.4379
 L 10.4057,-29.2539 L 10.3532,-29.0729 L 10.2893,-28.8956 L 10.2145,-28.7227 L 10.1289,-28.5547 L 10.033,-28.3925
 L 9.92705,-28.2366 L 9.81154,-28.0877 L 9.6869,-27.9464 L 9.55363,-27.8131 L 9.41226,-27.6884 L 9.26335,-27.5729
 L 9.10747,-27.467 L 8.94525,-27.3711 L 8.77733,-27.2855 L 8.60437,-27.2107 L 8.42705,-27.1468 L 8.24606,-27.0942
 L 8.06213,-27.0531 L 7.87599,-27.0237 L 7.68837,-27.0059 L 7.5,-27 z
M 37.3116,-27.0059 L 37.124,-27.0237 L 36.9379,-27.0531 L 36.7539,-27.0942 L 36.5729,-27.1468 L 36.3956,-27.2107
 L 36.2227,-27.2855 L 36.0547,-27.3711 L 35.8925,-27.467 L 35.7366,-27.5729 L 35.5877,-27.6884 L 35.4464,-27.8131
 L 35.3131,-27.9464 L 35.1885,-28.0877 L 35.0729,-28.2366 L 34.967,-28.3925 L 34.8711,-28.5547 L 34.7855,-28.7227
 L 34.7107,-28.8956 L 34.6468,-29.0729 L 34.5942,-29.2539 L 34.5531,-29.4379 L 34.5237,-29.624 L 34.5059,-29.8116
 L 34.5,-30 L 34.5059,-30.1884 L 34.5237,-30.376 L 34.5531,-30.5621 L 34.5942,-30.7461 L 34.6468,-30.927
 L 34.7107,-31.1044 L 34.7855,-31.2773 L 34.8711,-31.4453 L 34.967,-31.6075 L 35.0729,-31.7634 L 35.1885,-31.9123
 L 35.3131,-32.0536 L 35.4464,-32.1869 L 35.5877,-32.3115 L 35.7366,-32.427 L 35.8925,-32.533 L 36.0547,-32.6289
 L 36.2227,-32.7145 L 36.3956,-32.7893 L 36.5729,-32.8532 L 36.7539,-32.9057 L 36.9379,-32.9469 L 37.124,-32.9763
 L 37.3116,-32.9941 L 37.5,-33 L 37.6884,-32.9941 L 37.876,-32.9763 L 38.0621,-32.9469 L 38.2461,-32.9057
 L 38.427,-32.8532 L 38.6044,-32.7893 L 38.7773,-32.7145 L 38.9453,-32.6289 L 39.1075,-32.533 L 39.2634,-32.427
 L 39.4123,-32.3115 L 39.5536,-32.1869 L 39.6869,-32.0536 L 39.8115,-31.9123 L 39.927,-31.7634 L 40.033,-31.6075
 L 40.1289,-31.4453 L 40.2145,-31.2773 L 40.2893,-31.1044 L 40.3532,-30.927 L 40.4057,-30.7461 L 40.4469,-30.5621
 L 40.4763,-30.376 L 40.4941,-30.1884 L 40.5,-30 L 40.4941,-29.8116 L 40.4763,-29.624 L 40.4469,-29.4379
 L 40.4057,-29.2539 L 40.3532,-29.0729 L 40.2893,-28.8956 L 40.2145,-28.7227 L 40.1289,-28.5547 L 40.033,-28.3925
 L 39.927,-28.2366 L 39.8115,-28.0877 L 39.6869,-27.9464 L 39.5536,-27.8131 L 39.4123,-27.6884 L 39.2634,-27.5729
 L 39.1075,-27.467 L 38.9453,-27.3711 L 38.7773,-27.2855 L 38.6044,-27.2107 L 38.427,-27.1468 L 38.2461,-27.0942
 L 38.0621,-27.0531 L 37.876,-27.0237 L 37.6884,-27.0059 L 37.5,-27 z
M -52.6884,-27.0059 L -52.876,-27.0237 L -53.0621,-27.0531 L -53.2461,-27.0942 L -53.427,-27.1468 L -53.6044,-27.2107
 L -53.7773,-27.2855 L -53.9453,-27.3711 L -54.1075,-27.467 L -54.2634,-27.5729 L -54.4123,-27.6884 L -54.5536,-27.8131
 L -54.6869,-27.9464 L -54.8115,-28.0877 L -54.927,-28.2366 L -55.033,-28.3925 L -55.1289,-28.5547 L -55.2145,-28.7227
 L -55.2893,-28.8956 L -55.3532,-29.0729 L -55.4057,-29.2539 L -55.4469,-29.4379 L -55.4763,-29.624 L -55.4941,-29.8116
 L -55.5,-30 L -55.4941,-30.1884 L -55.4763,-30.376 L -55.4469,-30.5621 L -55.4057,-30.7461 L -55.3532,-30.927
 L -55.2893,-31.1044 L -55.2145,-31.2773 L -55.1289,-31.4453 L -55.033,-31.6075 L -54.927,-31.7634 L -54.8115,-31.9123
 L -54.6869,-32.0536 L -54.5536,-32.1869 L -54.4123,-32.3115 L -54.2634,-32.427 L -54.1075,-32.533 L -53.9453,-32.6289
 L -53.7773,-32.7145 L -53.6044,-32.7893 L -53.427,-32.8532 L -53.2461,-32.9057 L -53.0621,-32.9469 L -52.876,-32.9763
 L -52.6884,-32.9941 L -52.5,-33 L -52.3116,-32.9941 L -52.124,-32.9763 L -51.9379,-32.9469 L -51.7539,-32.9057
 L -51.5729,-32.8532 L -51.3956,-32.7893 L -51.2227,-32.7145 L -51.0547,-32.6289 L -50.8925,-32.533 L -50.7366,-32.427
 L -50.5877,-32.3115 L -50.4464,-32.1869 L -50.3131,-32.0536 L -50.1885,-31.9123 L -50.0729,-31.7634 L -49.967,-31.6075
 L -49.8711,-31.4453 L -49.7855,-31.2773 L -49.7107,-31.1044 L -49.6468,-30.927 L -49.5942,-30.7461 L -49.5531,-30.5621
 L -49.5237,-30.376 L -49.5059,-30.1884 L -49.5,-30 L -49.5059,-29.8116 L -49.5237,-29.624 L -49.5531,-29.4379
 L -49.5942,-29.2539 L -49.6468,-29.0729 L -49.7107,-28.8956 L -49.7855,-28.7227 L -49.8711,-28.5547 L -49.967,-28.3925
 L -50.0729,-28.2366 L -50.1885,-28.0877 L -50.3131,-27.9464 L -50.4464,-27.8131 L -50.5877,-27.6884 L -50.7366,-27.5729
 L -50.8925,-27.467 L -51.0547,-27.3711 L -51.2227,-27.2855 L -51.3956,-27.2107 L -51.5729,-27.1468 L -51.7539,-27.0942
 L -51.9379,-27.0531 L -52.124,-27.0237 L -52.3116,-27.0059 L -52.5,-27 z
M 22.3116,-27.0059 L 22.124,-27.0237 L 21.9379,-27.0531 L 21.7539,-27.0942 L 21.5729,-27.1468 L 21.3956,-27.2107
 L 21.2227,-27.2855 L 21.0547,-27.3711 L 20.8925,-27.467 L 20.7366,-27.5729 L 20.5877,-27.6884 L 20.4464,-27.8131
 L 20.3131,-27.9464 L 20.1884,-28.0877 L 20.0729,-28.2366 L 19.967,-28.3925 L 19.8711,-28.5547 L 19.7855,-28.7227
 L 19.7107,-28.8956 L 19.6468,-29.0729 L 19.5942,-29.2539 L 19.5531,-29.4379 L 19.5237,-29.624 L 19.5059,-29.8116
 L 19.5,-30 L 19.5059,-30.1884 L 19.5237,-30.376 L 19.5531,-30.5621 L 19.5942,-30.7461 L 19.6468,-30.927
 L 19.7107,-31.1044 L 19.7855,-31.2773 L 19.8711,-31.4453 L 19.967,-31.6075 L 20.0729,-31.7634 L 20.1884,-31.9123
 L 20.3131,-32.0536 L 20.4464,-32.1869 L 20.5877,-32.3115 L 20.7366,-32.427 L 20.8925,-32.533 L 21.0547,-32.6289
 L 21.2227,-32.7145 L 21.3956,-32.7893 L 21.5729,-32.8532 L 21.7539,-32.9057 L 21.9379,-32.9469 L 22.124,-32.9763
 L 22.3116,-32.9941 L 22.5,-33 L 22.6884,-32.9941 L 22.876,-32.9763 L 23.0621,-32.9469 L 23.2461,-32.9057
 L 23.427,-32.8532 L 23.6044,-32.7893 L 23.7773,-32.7145 L 23.9453,-32.6289 L 24.1075,-32.533 L 24.2634,-32.427
 L 24.4123,-32.3115 L 24.5536,-32.1869 L 24.6869,-32.0536 L 24.8115,-31.9123 L 24.927,-31.7634 L 25.033,-31.6075
 L 25.1289,-31.4453 L 25.2145,-31.2773 L 25.2893,-31.1044 L 25.3532,-30.927 L 25.4057,-30.7461 L 25.4469,-30.5621
 L 25.4763,-30.376 L 25.4941,-30.1884 L 25.5,-30 L 25.4941,-29.8116 L 25.4763,-29.624 L 25.4469,-29.4379
 L 25.4057,-29.2539 L 25.3532,-29.0729 L 25.2893,-28.8956 L 25.2145,-28.7227 L 25.1289,-28.5547 L 25.033,-28.3925
 L 24.927,-28.2366 L 24.8115,-28.0877 L 24.6869,-27.9464 L 24.5536,-27.8131 L 24.4123,-27.6884 L 24.2634,-27.5729
 L 24.1075,-27.467 L 23.9453,-27.3711 L 23.7773,-27.2855 L 23.6044,-27.2107 L 23.427,-27.1468 L 23.2461,-27.0942
 L 23.0621,-27.0531 L 22.876,-27.0237 L 22.6884,-27.0059 L 22.5,-27 z
M -22.6884,-27.0059 L -22.876,-27.0237 L -23.0621,-27.0531 L -23.2461,-27.0942 L -23.427,-27.1468 L -23.6044,-27.2107
 L -23.7773,-27.2855 L -23.9453,-27.3711 L -24.1075,-27.467 L -24.2634,-27.5729 L -24.4123,-27.6884 L -24.5536,-27.8131
 L -24.6869,-27.9464 L -24.8115,-28.0877 L -24.927,-28.2366 L -25.033,-28.3925 L -25.1289,-28.5547 L -25.2145,-28.7227
 L -25.2893,-28.8956 L -25.3532,-29.0729 L -25.4057,-29.2539 L -25.4469,-29.4379 L -25.4763,-29.624 L -25.4941,-29.8116
 L -25.5,-30 L -25.4941,-30.1884 L -25.4763,-30.376 L -25.4469,-30.5621 L -25.4057,-30.7461 L -25.3532,-30.927
 L -25.2893,-31.1044 L -25.2145,-31.2773 L -25.1289,-31.4453 L -25.033,-31.6075 L -24.927,-31.7634 L -24.8115,-31.9123
 L -24.6869,-32.0536 L -24.5536,-32.1869 L -24.4123,-32.3115 L -24.2634,-32.427 L -24.1075,-32.533 L -23.9453,-32.6289
 L -23.7773,-32.7145 L -23.6044,-32.7893 L -23.427,-32.8532 L -23.2461,-32.9057 L -23.0621,-32.9469 L -22.876,-32.9763
 L -22.6884,-32.9941 L -22.5,-33 L -22.3116,-32.9941 L -22.124,-32.9763 L -21.9379,-32.9469 L -21.7539,-32.9057
 L -21.5729,-32.8532 L -21.3956,-32.7893 L -21.2227,-32.7145 L -21.0547,-32.6289 L -20.8925,-32.533 L -20.7366,-32.427
 L -20.5877,-32.3115 L -20.4464,-32.1869 L -20.3131,-32.0536 L -20.1884,-31.9123 L -20.0729,-31.7634 L -19.967,-31.6075
 L -19.8711,-31.4453 L -19.7855,-31.2773 L -19.7107,-31.1044 L -19.6468,-30.927 L -19.5942,-30.7461 L -19.5531,-30.5621
 L -19.5237,-30.376 L -19.5059,-30.1884 L -19.5,-30 L -19.5059,-29.8116 L -19.5237,-29.624 L -19.5531,-29.4379
 L -19.5942,-29.2539 L -19.6468,-29.0729 L -19.7107,-28.8956 L -19.7855,-28.7227 L -19.8711,-28.5547 L -19.967,-28.3925
 L -20.0729,-28.2366 L -20.1884,-28.0877 L -20.3131,-27.9464 L -20.4464,-27.8131 L -20.5877,-27.6884 L -20.7366,-27.5729
 L -20.8925,-27.467 L -21.0547,-27.3711 L -21.2227,-27.2855 L -21.3956,-27.2107 L -21.5729,-27.1468 L -21.7539,-27.0942
 L -21.9379,-27.0531 L -22.124,-27.0237 L -22.3116,-27.0059 L -22.5,-27 z
M -7.68837,-27.0059 L -7.87599,-27.0237 L -8.06213,-27.0531 L -8.24606,-27.0942 L -8.42705,-27.1468 L -8.60437,-27.2107
 L -8.77733,-27.2855 L -8.94525,-27.3711 L -9.10747,-27.467 L -9.26335,-27.5729 L -9.41226,-27.6884 L -9.55363,-27.8131
 L -9.6869,-27.9464 L -9.81154,-28.0877 L -9.92705,-28.2366 L -10.033,-28.3925 L -10.1289,-28.5547 L -10.2145,-28.7227
 L -10.2893,-28.8956 L -10.3532,-29.0729 L -10.4057,-29.2539 L -10.4469,-29.4379 L -10.4763,-29.624 L -10.4941,-29.8116
 L -10.5,-30 L -10.4941,-30.1884 L -10.4763,-30.376 L -10.4469,-30.5621 L -10.4057,-30.7461 L -10.3532,-30.927
 L -10.2893,-31.1044 L -10.2145,-31.2773 L -10.1289,-31.4453 L -10.033,-31.6075 L -9.92705,-31.7634 L -9.81154,-31.9123
 L -9.6869,-32.0536 L -9.55363,-32.1869 L -9.41226,-32.3115 L -9.26335,-32.427 L -9.10747,-32.533 L -8.94525,-32.6289
 L -8.77733,-32.7145 L -8.60437,-32.7893 L -8.42705,-32.8532 L -8.24606,-32.9057 L -8.06213,-32.9469 L -7.87599,-32.9763
 L -7.68837,-32.9941 L -7.5,-33 L -7.31161,-32.9941 L -7.12399,-32.9763 L -6.93785,-32.9469 L -6.75392,-32.9057
 L -6.57294,-32.8532 L -6.39561,-32.7893 L -6.22266,-32.7145 L -6.05473,-32.6289 L -5.89252,-32.533 L -5.73663,-32.427
 L -5.58772,-32.3115 L -5.44635,-32.1869 L -5.31308,-32.0536 L -5.18845,-31.9123 L -5.07294,-31.7634 L -4.96701,-31.6075
 L -4.87108,-31.4453 L -4.78551,-31.2773 L -4.71066,-31.1044 L -4.64682,-30.927 L -4.59424,-30.7461 L -4.55313,-30.5621
 L -4.52365,-30.376 L -4.50591,-30.1884 L -4.5,-30 L -4.50591,-29.8116 L -4.52365,-29.624 L -4.55313,-29.4379
 L -4.59424,-29.2539 L -4.64682,-29.0729 L -4.71066,-28.8956 L -4.78551,-28.7227 L -4.87108,-28.5547 L -4.96701,-28.3925
 L -5.07294,-28.2366 L -5.18845,-28.0877 L -5.31308,-27.9464 L -5.44635,-27.8131 L -5.58772,-27.6884 L -5.73663,-27.5729
 L -5.89252,-27.467 L -6.05473,-27.3711 L -6.22266,-27.2855 L -6.39561,-27.2107 L -6.57294,-27.1468 L -6.75392,-27.0942
 L -6.93785,-27.0531 L -7.12399,-27.0237 L -7.31161,-27.0059 L -7.5,-27 z
M -37.6884,-27.0059 L -37.876,-27.0237 L -38.0621,-27.0531 L -38.2461,-27.0942 L -38.427,-27.1468 L -38.6044,-27.2107
 L -38.7773,-27.2855 L -38.9453,-27.3711 L -39.1075,-27.467 L -39.2634,-27.5729 L -39.4123,-27.6884 L -39.5536,-27.8131
 L -39.6869,-27.9464 L -39.8115,-28.0877 L -39.927,-28.2366 L -40.033,-28.3925 L -40.1289,-28.5547 L -40.2145,-28.7227
 L -40.2893,-28.8956 L -40.3532,-29.0729 L -40.4057,-29.2539 L -40.4469,-29.4379 L -40.4763,-29.624 L -40.4941,-29.8116
 L -40.5,-30 L -40.4941,-30.1884 L -40.4763,-30.376 L -40.4469,-30.5621 L -40.4057,-30.7461 L -40.3532,-30.927
 L -40.2893,-31.1044 L -40.2145,-31.2773 L -40.1289,-31.4453 L -40.033,-31.6075 L -39.927,-31.7634 L -39.8115,-31.9123
 L -39.6869,-32.0536 L -39.5536,-32.1869 L -39.4123,-32.3115 L -39.2634,-32.427 L -39.1075,-32.533 L -38.9453,-32.6289
 L -38.7773,-32.7145 L -38.6044,-32.7893 L -38.427,-32.8532 L -38.2461,-32.9057 L -38.0621,-32.9469 L -37.876,-32.9763
 L -37.6884,-32.9941 L -37.5,-33 L -37.3116,-32.9941 L -37.124,-32.9763 L -36.9379,-32.9469 L -36.7539,-32.9057
 L -36.5729,-32.8532 L -36.3956,-32.7893 L -36.2227,-32.7145 L -36.0547,-32.6289 L -35.8925,-32.533 L -35.7366,-32.427
 L -35.5877,-32.3115 L -35.4464,-32.1869 L -35.3131,-32.0536 L -35.1885,-31.9123 L -35.0729,-31.7634 L -34.967,-31.6075
 L -34.8711,-31.4453 L -34.7855,-31.2773 L -34.7107,-31.1044 L -34.6468,-30.927 L -34.5942,-30.7461 L -34.5531,-30.5621
 L -34.5237,-30.376 L -34.5059,-30.1884 L -34.5,-30 L -34.5059,-29.8116 L -34.5237,-29.624 L -34.5531,-29.4379
 L -34.5942,-29.2539 L -34.6468,-29.0729 L -34.7107,-28.8956 L -34.7855,-28.7227 L -34.8711,-28.5547 L -34.967,-28.3925
 L -35.0729,-28.2366 L -35.1885,-28.0877 L -35.3131,-27.9464 L -35.4464,-27.8131 L -35.5877,-27.6884 L -35.7366,-27.5729
 L -35.8925,-27.467 L -36.0547,-27.3711 L -36.2227,-27.2855 L -36.3956,-27.2107 L -36.5729,-27.1468 L -36.7539,-27.0942
 L -36.9379,-27.0531 L -37.124,-27.0237 L -37.3116,-27.0059 L -37.5,-27 z
M -7.68837,-12.0059 L -7.87599,-12.0237 L -8.06213,-12.0531 L -8.24606,-12.0942 L -8.42705,-12.1468 L -8.60437,-12.2107
 L -8.77733,-12.2855 L -8.94525,-12.3711 L -9.10747,-12.467 L -9.26335,-12.5729 L -9.41226,-12.6884 L -9.55363,-12.8131
 L -9.6869,-12.9464 L -9.81154,-13.0877 L -9.92705,-13.2366 L -10.033,-13.3925 L -10.1289,-13.5547 L -10.2145,-13.7227
 L -10.2893,-13.8956 L -10.3532,-14.0729 L -10.4057,-14.2539 L -10.4469,-14.4379 L -10.4763,-14.624 L -10.4941,-14.8116
 L -10.5,-15 L -10.4941,-15.1884 L -10.4763,-15.376 L -10.4469,-15.5621 L -10.4057,-15.7461 L -10.3532,-15.927
 L -10.2893,-16.1044 L -10.2145,-16.2773 L -10.1289,-16.4453 L -10.033,-16.6075 L -9.92705,-16.7634 L -9.81154,-16.9123
 L -9.6869,-17.0536 L -9.55363,-17.1869 L -9.41226,-17.3115 L -9.26335,-17.427 L -9.10747,-17.533 L -8.94525,-17.6289
 L -8.77733,-17.7145 L -8.60437,-17.7893 L -8.42705,-17.8532 L -8.24606,-17.9057 L -8.06213,-17.9469 L -7.87599,-17.9763
 L -7.68837,-17.9941 L -7.5,-18 L -7.31161,-17.9941 L -7.12399,-17.9763 L -6.93785,-17.9469 L -6.75392,-17.9057
 L -6.57294,-17.8532 L -6.39561,-17.7893 L -6.22266,-17.7145 L -6.05473,-17.6289 L -5.89252,-17.533 L -5.73663,-17.427
 L -5.58772,-17.3115 L -5.44635,-17.1869 L -5.31308,-17.0536 L -5.18845,-16.9123 L -5.07294,-16.7634 L -4.96701,-16.6075
 L -4.87108,-16.4453 L -4.78551,-16.2773 L -4.71066,-16.1044 L -4.64682,-15.927 L -4.59424,-15.7461 L -4.55313,-15.5621
 L -4.52365,-15.376 L -4.50591,-15.1884 L -4.5,-15 L -4.50591,-14.8116 L -4.52365,-14.624 L -4.55313,-14.4379
 L -4.59424,-14.2539 L -4.64682,-14.0729 L -4.71066,-13.8956 L -4.78551,-13.7227 L -4.87108,-13.5547 L -4.96701,-13.3925
 L -5.07294,-13.2366 L -5.18845,-13.0877 L -5.31308,-12.9464 L -5.44635,-12.8131 L -5.58772,-12.6884 L -5.73663,-12.5729
 L -5.89252,-12.467 L -6.05473,-12.3711 L -6.22266,-12.2855 L -6.39561,-12.2107 L -6.57294,-12.1468 L -6.75392,-12.0942
 L -6.93785,-12.0531 L -7.12399,-12.0237 L -7.31161,-12.0059 L -7.5,-12 z
M 19.967,-13.3925 L 19.8711,-13.5547 L 19.7855,-13.7227 L 19.7107,-13.8956 L 19.6468,-14.0729 L 19.5942,-14.2539
 L 19.5531,-14.4379 L 19.5237,-14.624 L 19.5059,-14.8116 L 19.5,-15 L 19.5059,-15.1884 L 19.5237,-15.376
 L 19.5531,-15.5621 L 19.5942,-15.7461 L 19.6468,-15.927 L 19.7107,-16.1044 L 19.7855,-16.2773 L 19.8711,-16.4453
 L 19.967,-16.6075 L 20.0729,-16.7634 L 20.1884,-16.9123 L 20.3131,-17.0536 L 20.4464,-17.1869 L 20.5877,-17.3115
 L 20.7366,-17.427 L 20.8925,-17.533 L 21.0547,-17.6289 L 21.2227,-17.7145 L 21.3956,-17.7893 L 21.5729,-17.8532
 L 21.7539,-17.9057 L 21.9379,-17.9469 L 22.124,-17.9763 L 22.3116,-17.9941 L 22.5,-18 L 22.6884,-17.9941
 L 22.876,-17.9763 L 23.0621,-17.9469 L 23.2461,-17.9057 L 23.427,-17.8532 L 23.6044,-17.7893 L 23.7773,-17.7145
 L 23.9453,-17.6289 L 24.1075,-17.533 L 24.2634,-17.427 L 24.4123,-17.3115 L 24.5536,-17.1869 L 24.6869,-17.0536
 L 24.8115,-16.9123 L 24.927,-16.7634 L 25.033,-16.6075 L 25.1289,-16.4453 L 25.2145,-16.2773 L 25.2893,-16.1044
 L 25.3532,-15.927 L 25.4057,-15.7461 L 25.4469,-15.5621 L 25.4763,-15.376 L 25.4941,-15.1884 L 25.5,-15
 L 25.4941,-14.8116 L 25.4763,-14.624 L 25.4469,-14.4379 L 25.4057,-14.2539 L 25.3532,-14.0729 L 25.2893,-13.8956
 L 25.2145,-13.7227 L 25.1289,-13.5547 L 25.033,-13.3925 L 24.927,-13.2366 L 24.8115,-13.0877 L 24.6869,-12.9464
 L 24.5536,-12.8131 L 24.4123,-12.6884 L 24.2634,-12.5729 L 24.1075,-12.467 L 23.9453,-12.3711 L 23.7773,-12.2855
 L 23.6044,-12.2107 L 23.427,-12.1468 L 23.2461,-12.0942 L 23.0621,-12.0531 L 22.876,-12.0237 L 22.6884,-12.0059
 L 22.5,-12 L 22.3116,-12.0059 L 22.124,-12.0237 L 21.9379,-12.0531 L 21.7539,-12.0942 L 21.5729,-12.1468
 L 21.3956,-12.2107 L 21.2227,-12.2855 L 21.0547,-12.3711 L 20.8925,-12.467 L 20.7366,-12.5729 L 20.5877,-12.6884
 L 20.4464,-12.8131 L 20.3131,-12.9464 L 20.1884,-13.0877 L 20.0729,-13.2366 z
M -52.6884,-12.0059 L -52.876,-12.0237 L -53.0621,-12.0531 L -53.2461,-12.0942 L -53.427,-12.1468 L -53.6044,-12.2107
 L -53.7773,-12.2855 L -53.9453,-12.3711 L -54.1075,-12.467 L -54.2634,-12.5729 L -54.4123,-12.6884 L -54.5536,-12.8131
 L -54.6869,-12.9464 L -54.8115,-13.0877 L -54.927,-13.2366 L -55.033,-13.3925 L -55.1289,-13.5547 L -55.2145,-13.7227
 L -55.2893,-13.8956 L -55.3532,-14.0729 L -55.4057,-14.2539 L -55.4469,-14.4379 L -55.4763,-14.624 L -55.4941,-14.8116
 L -55.5,-15 L -55.4941,-15.1884 L -55.4763,-15.376 L -55.4469,-15.5621 L -55.4057,-15.7461 L -55.3532,-15.927
 L -55.2893,-16.1044 L -55.2145,-16.2773 L -55.1289,-16.4453 L -55.033,-16.6075 L -54.927,-16.7634 L -54.8115,-16.9123
 L -54.6869,-17.0536 L -54.5536,-17.1869 L -54.4123,-17.3115 L -54.2634,-17.427 L -54.1075,-17.533 L -53.9453,-17.6289
 L -53.7773,-17.7145 L -53.6044,-17.7893 L -53.427,-17.8532 L -53.2461,-17.9057 L -53.0621,-17.9469 L -52.876,-17.9763
 L -52.6884,-17.9941 L -52.5,-18 L -52.3116,-17.9941 L -52.124,-17.9763 L -51.9379,-17.9469 L -51.7539,-17.9057
 L -51.5729,-17.8532 L -51.3956,-17.7893 L -51.2227,-17.7145 L -51.0547,-17.6289 L -50.8925,-17.533 L -50.7366,-17.427
 L -50.5877,-17.3115 L -50.4464,-17.1869 L -50.3131,-17.0536 L -50.1885,-16.9123 L -50.0729,-16.7634 L -49.967,-16.6075
 L -49.8711,-16.4453 L -49.7855,-16.2773 L -49.7107,-16.1044 L -49.6468,-15.927 L -49.5942,-15.7461 L -49.5531,-15.5621
 L -49.5237,-15.376 L -49.5059,-15.1884 L -49.5,-15 L -49.5059,-14.8116 L -49.5237,-14.624 L -49.5531,-14.4379
 L -49.5942,-14.2539 L -49.6468,-14.0729 L -49.7107,-13.8956 L -49.7855,-13.7227 L -49.8711,-13.5547 L -49.967,-13.3925
 L -50.0729,-13.2366 L -50.1885,-13.0877 L -50.3131,-12.9464 L -50.4464,-12.8131 L -50.5877,-12.6884 L -50.7366,-12.5729
 L -50.8925,-12.467 L -51.0547,-12.3711 L -51.2227,-12.2855 L -51.3956,-12.2107 L -51.5729,-12.1468 L -51.7539,-12.0942
 L -51.9379,-12.0531 L -52.124,-12.0237 L -52.3116,-12.0059 L -52.5,-12 z
M 52.3116,-12.0059 L 52.124,-12.0237 L 51.9379,-12.0531 L 51.7539,-12.0942 L 51.5729,-12.1468 L 51.3956,-12.2107
 L 51.2227,-12.2855 L 51.0547,-12.3711 L 50.8925,-12.467 L 50.7366,-12.5729 L 50.5877,-12.6884 L 50.4464,-12.8131
 L 50.3131,-12.9464 L 50.1885,-13.0877 L 50.0729,-13.2366 L 49.967,-13.3925 L 49.8711,-13.5547 L 49.7855,-13.7227
 L 49.7107,-13.8956 L 49.6468,-14.0729 L 49.5942,-14.2539 L 49.5531,-14.4379 L 49.5237,-14.624 L 49.5059,-14.8116
 L 49.5,-15 L 49.5059,-15.1884 L 49.5237,-15.376 L 49.5531,-15.5621 L 49.5942,-15.7461 L 49.6468,-15.927
 L 49.7107,-16.1044 L 49.7855,-16.2773 L 49.8711,-16.4453 L 49.967,-16.6075 L 50.0729,-16.7634 L 50.1885,-16.9123
 L 50.3131,-17.0536 L 50.4464,-17.1869 L 50.5877,-17.3115 L 50.7366,-17.427 L 50.8925,-17.533 L 51.0547,-17.6289
 L 51.2227,-17.7145 L 51.3956,-17.7893 L 51.5729,-17.8532 L 51.7539,-17.9057 L 51.9379,-17.9469 L 52.124,-17.9763
 L 52.3116,-17.9941 L 52.5,-18 L 52.6884,-17.9941 L 52.876,-17.9763 L 53.0621,-17.9469 L 53.2461,-17.9057
 L 53.427,-17.8532 L 53.6044,-17.7893 L 53.7773,-17.7145 L 53.9453,-17.6289 L 54.1075,-17.533 L 54.2634,-17.427
 L 54.4123,-17.3115 L 54.5536,-17.1869 L 54.6869,-17.0536 L 54.8115,-16.9123 L 54.927,-16.7634 L 55.033,-16.6075
 L 55.1289,-16.4453 L 55.2145,-16.2773 L 55.2893,-16.1044 L 55.3532,-15.927 L 55.4057,-15.7461 L 55.4469,-15.5621
 L 55.4763,-15.376 L 55.4941,-15.1884 L 55.5,-15 L 55.4941,-14.8116 L 55.4763,-14.624 L 55.4469,-14.4379
 L 55.4057,-14.2539 L 55.3532,-14.0729 L 55.2893,-13.8956 L 55.2145,-13.7227 L 55.1289,-13.5547 L 55.033,-13.3925
 L 54.927,-13.2366 L 54.8115,-13.0877 L 54.6869,-12.9464 L 54.5536,-12.8131 L 54.4123,-12.6884 L 54.2634,-12.5729
 L 54.1075,-12.467 L 53.9453,-12.3711 L 53.7773,-12.2855 L 53.6044,-12.2107 L 53.427,-12.1468 L 53.2461,-12.0942
 L 53.0621,-12.0531 L 52.876,-12.0237 L 52.6884,-12.0059 L 52.5,-12 z
M -22.6884,-12.0059 L -22.876,-12.0237 L -23.0621,-12.0531 L -23.2461,-12.0942 L -23.427,-12.1468 L -23.6044,-12.2107
 L -23.7773,-12.2855 L -23.9453,-12.3711 L -24.1075,-12.467 L -24.2634,-12.5729 L -24.4123,-12.6884 L -24.5536,-12.8131
 L -24.6869,-12.9464 L -24.8115,-13.0877 L -24.927,-13.2366 L -25.033,-13.3925 L -25.1289,-13.5547 L -25.2145,-13.7227
 L -25.2893,-13.8956 L -25.3532,-14.0729 L -25.4057,-14.2539 L -25.4469,-14.4379 L -25.4763,-14.624 L -25.4941,-14.8116
 L -25.5,-15 L -25.4941,-15.1884 L -25.4763,-15.376 L -25.4469,-15.5621 L -25.4057,-15.7461 L -25.3532,-15.927
 L -25.2893,-16.1044 L -25.2145,-16.2773 L -25.1289,-16.4453 L -25.033,-16.6075 L -24.927,-16.7634 L -24.8115,-16.9123
 L -24.6869,-17.0536 L -24.5536,-17.1869 L -24.4123,-17.3115 L -24.2634,-17.427 L -24.1075,-17.533 L -23.9453,-17.6289
 L -23.7773,-17.7145 L -23.6044,-17.7893 L -23.427,-17.8532 L -23.2461,-17.9057 L -23.0621,-17.9469 L -22.876,-17.9763
 L -22.6884,-17.9941 L -22.5,-18 L -22.3116,-17.9941 L -22.124,-17.9763 L -21.9379,-17.9469 L -21.7539,-17.9057
 L -21.5729,-17.8532 L -21.3956,-17.7893 L -21.2227,-17.7145 L -21.0547,-17.6289 L -20.8925,-17.533 L -20.7366,-17.427
 L -20.5877,-17.3115 L -20.4464,-17.1869 L -20.3131,-17.0536 L -20.1884,-16.9123 L -20.0729,-16.7634 L -19.967,-16.6075
 L -19.8711,-16.4453 L -19.7855,-16.2773 L -19.7107,-16.1044 L -19.6468,-15.927 L -19.5942,-15.7461 L -19.5531,-15.5621
 L -19.5237,-15.376 L -19.5059,-15.1884 L -19.5,-15 L -19.5059,-14.8116 L -19.5237,-14.624 L -19.5531,-14.4379
 L -19.5942,-14.2539 L -19.6468,-14.0729 L -19.7107,-13.8956 L -19.7855,-13.7227 L -19.8711,-13.5547 L -19.967,-13.3925
 L -20.0729,-13.2366 L -20.1884,-13.0877 L -20.3131,-12.9464 L -20.4464,-12.8131 L -20.5877,-12.6884 L -20.7366,-12.5729
 L -20.8925,-12.467 L -21.0547,-12.3711 L -21.2227,-12.2855 L -21.3956,-12.2107 L -21.5729,-12.1468 L -21.7539,-12.0942
 L -21.9379,-12.0531 L -22.124,-12.0237 L -22.3116,-12.0059 L -22.5,-12 z
M -37.6884,-12.0059 L -37.876,-12.0237 L -38.0621,-12.0531 L -38.2461,-12.0942 L -38.427,-12.1468 L -38.6044,-12.2107
 L -38.7773,-12.2855 L -38.9453,-12.3711 L -39.1075,-12.467 L -39.2634,-12.5729 L -39.4123,-12.6884 L -39.5536,-12.8131
 L -39.6869,-12.9464 L -39.8115,-13.0877 L -39.927,-13.2366 L -40.033,-13.3925 L -40.1289,-13.5547 L -40.2145,-13.7227
 L -40.2893,-13.8956 L -40.3532,-14.0729 L -40.4057,-14.2539 L -40.4469,-14.4379 L -40.4763,-14.624 L -40.4941,-14.8116
 L -40.5,-15 L -40.4941,-15.1884 L -40.4763,-15.376 L -40.4469,-15.5621 L -40.4057,-15.7461 L -40.3532,-15.927
 L -40.2893,-16.1044 L -40.2145,-16.2773 L -40.1289,-16.4453 L -40.033,-16.6075 L -39.927,-16.7634 L -39.8115,-16.9123
 L -39.6869,-17.0536 L -39.5536,-17.1869 L -39.4123,-17.3115 L -39.2634,-17.427 L -39.1075,-17.533 L -38.9453,-17.6289
 L -38.7773,-17.7145 L -38.6044,-17.7893 L -38.427,-17.8532 L -38.2461,-17.9057 L -38.0621,-17.9469 L -37.876,-17.9763
 L -37.6884,-17.9941 L -37.5,-18 L -37.3116,-17.9941 L -37.124,-17.9763 L -36.9379,-17.9469 L -36.7539,-17.9057
 L -36.5729,-17.8532 L -36.3956,-17.7893 L -36.2227,-17.7145 L -36.0547,-17.6289 L -35.8925,-17.533 L -35.7366,-17.427
 L -35.5877,-17.3115 L -35.4464,-17.1869 L -35.3131,-17.0536 L -35.1885,-16.9123 L -35.0729,-16.7634 L -34.967,-16.6075
 L -34.8711,-16.4453 L -34.7855,-16.2773 L -34.7107,-16.1044 L -34.6468,-15.927 L -34.5942,-15.7461 L -34.5531,-15.5621
 L -34.5237,-15.376 L -34.5059,-15.1884 L -34.5,-15 L -34.5059,-14.8116 L -34.5237,-14.624 L -34.5531,-14.4379
 L -34.5942,-14.2539 L -34.6468,-14.0729 L -34.7107,-13.8956 L -34.7855,-13.7227 L -34.8711,-13.5547 L -34.967,-13.3925
 L -35.0729,-13.2366 L -35.1885,-13.0877 L -35.3131,-12.9464 L -35.4464,-12.8131 L -35.5877,-12.6884 L -35.7366,-12.5729
 L -35.8925,-12.467 L -36.0547,-12.3711 L -36.2227,-12.2855 L -36.3956,-12.2107 L -36.5729,-12.1468 L -36.7539,-12.0942
 L -36.9379,-12.0531 L -37.124,-12.0237 L -37.3116,-12.0059 L -37.5,-12 z
M 37.3116,-12.0059 L 37.124,-12.0237 L 36.9379,-12.0531 L 36.7539,-12.0942 L 36.5729,-12.1468 L 36.3956,-12.2107
 L 36.2227,-12.2855 L 36.0547,-12.3711 L 35.8925,-12.467 L 35.7366,-12.5729 L 35.5877,-12.6884 L 35.4464,-12.8131
 L 35.3131,-12.9464 L 35.1885,-13.0877 L 35.0729,-13.2366 L 34.967,-13.3925 L 34.8711,-13.5547 L 34.7855,-13.7227
 L 34.7107,-13.8956 L 34.6468,-14.0729 L 34.5942,-14.2539 L 34.5531,-14.4379 L 34.5237,-14.624 L 34.5059,-14.8116
 L 34.5,-15 L 34.5059,-15.1884 L 34.5237,-15.376 L 34.5531,-15.5621 L 34.5942,-15.7461 L 34.6468,-15.927
 L 34.7107,-16.1044 L 34.7855,-16.2773 L 34.8711,-16.4453 L 34.967,-16.6075 L 35.0729,-16.7634 L 35.1885,-16.9123
 L 35.3131,-17.0536 L 35.4464,-17.1869 L 35.5877,-17.3115 L 35.7366,-17.427 L 35.8925,-17.533 L 36.0547,-17.6289
 L 36.2227,-17.7145 L 36.3956,-17.7893 L 36.5729,-17.8532 L 36.7539,-17.9057 L 36.9379,-17.9469 L 37.124,-17.9763
 L 37.3116,-17.9941 L 37.5,-18 L 37.6884,-17.9941 L 37.876,-17.9763 L 38.0621,-17.9469 L 38.2461,-17.9057
 L 38.427,-17.8532 L 38.6044,-17.7893 L 38.7773,-17.7145 L 38.9453,-17.6289 L 39.1075,-17.533 L 39.2634,-17.427
 L 39.4123,-17.3115 L 39.5536,-17.1869 L 39.6869,-17.0536 L 39.8115,-16.9123 L 39.927,-16.7634 L 40.033,-16.6075
 L 40.1289,-16.4453 L 40.2145,-16.2773 L 40.2893,-16.1044 L 40.3532,-15.927 L 40.4057,-15.7461 L 40.4469,-15.5621
 L 40.4763,-15.376 L 40.4941,-15.1884 L 40.5,-15 L 40.4941,-14.8116 L 40.4763,-14.624 L 40.4469,-14.4379
 L 40.4057,-14.2539 L 40.3532,-14.0729 L 40.2893,-13.8956 L 40.2145,-13.7227 L 40.1289,-13.5547 L 40.033,-13.3925
 L 39.927,-13.2366 L 39.8115,-13.0877 L 39.6869,-12.9464 L 39.5536,-12.8131 L 39.4123,-12.6884 L 39.2634,-12.5729
 L 39.1075,-12.467 L 38.9453,-12.3711 L 38.7773,-12.2855 L 38.6044,-12.2107 L 38.427,-12.1468 L 38.2461,-12.0942
 L 38.0621,-12.0531 L 37.876,-12.0237 L 37.6884,-12.0059 L 37.5,-12 z
M 37.3116,2.99408 L 37.124,2.97633 L 36.9379,2.94685 L 36.7539,2.90575 L 36.5729,2.85316 L 36.3956,2.78932
 L 36.2227,2.71448 L 36.0547,2.62891 L 35.8925,2.53297 L 35.7366,2.42705 L 35.5877,2.31154 L 35.4464,2.1869
 L 35.3131,2.05363 L 35.1885,1.91226 L 35.0729,1.76335 L 34.967,1.60747 L 34.8711,1.44525 L 34.7855,1.27733
 L 34.7107,1.10437 L 34.6468,0.927048 L 34.5942,0.746063 L 34.5531,0.562134 L 34.5237,0.375992 L 34.5059,0.18837
 L 34.5,-0 L 34.5059,-0.18837 L 34.5237,-0.375992 L 34.5531,-0.562134 L 34.5942,-0.746063 L 34.6468,-0.927048
 L 34.7107,-1.10437 L 34.7855,-1.27733 L 34.8711,-1.44525 L 34.967,-1.60747 L 35.0729,-1.76335 L 35.1885,-1.91226
 L 35.3131,-2.05363 L 35.4464,-2.1869 L 35.5877,-2.31154 L 35.7366,-2.42705 L 35.8925,-2.53297 L 36.0547,-2.62891
 L 36.2227,-2.71448 L 36.3956,-2.78932 L 36.5729,-2.85316 L 36.7539,-2.90575 L 36.9379,-2.94685 L 37.124,-2.97633
 L 37.3116,-2.99408 L 37.5,-3 L 37.6884,-2.99408 L 37.876,-2.97633 L 38.0621,-2.94685 L 38.2461,-2.90575
 L 38.427,-2.85316 L 38.6044,-2.78932 L 38.7773,-2.71448 L 38.9453,-2.62891 L 39.1075,-2.53297 L 39.2634,-2.42705
 L 39.4123,-2.31154 L 39.5536,-2.1869 L 39.6869,-2.05363 L 39.8115,-1.91226 L 39.927,-1.76335 L 40.033,-1.60747
 L 40.1289,-1.44525 L 40.2145,-1.27733 L 40.2893,-1.10437 L 40.3532,-0.927048 L 40.4057,-0.746063 L 40.4469,-0.562134
 L 40.4763,-0.375992 L 40.4941,-0.18837 L 40.5,-0 L 40.4941,0.18837 L 40.4763,0.375992 L 40.4469,0.562134
 L 40.4057,0.746063 L 40.3532,0.927048 L 40.2893,1.10437 L 40.2145,1.27733 L 40.1289,1.44525 L 40.033,1.60747
 L 39.927,1.76335 L 39.8115,1.91226 L 39.6869,2.05363 L 39.5536,2.1869 L 39.4123,2.31154 L 39.2634,2.42705
 L 39.1075,2.53297 L 38.9453,2.62891 L 38.7773,2.71448 L 38.6044,2.78932 L 38.427,2.85316 L 38.2461,2.90575
 L 38.0621,2.94685 L 37.876,2.97633 L 37.6884,2.99408 L 37.5,3 z
M 7.31161,2.99408 L 7.12399,2.97633 L 6.93785,2.94685 L 6.75392,2.90575 L 6.57294,2.85316 L 6.39561,2.78932
 L 6.22266,2.71448 L 6.05473,2.62891 L 5.89252,2.53297 L 5.73663,2.42705 L 5.58772,2.31154 L 5.44635,2.1869
 L 5.31308,2.05363 L 5.18845,1.91226 L 5.07294,1.76335 L 4.96701,1.60747 L 4.87108,1.44525 L 4.78551,1.27733
 L 4.71066,1.10437 L 4.64682,0.927048 L 4.59424,0.746063 L 4.55313,0.562134 L 4.52365,0.375992 L 4.50591,0.18837
 L 4.5,-0 L 4.50591,-0.18837 L 4.52365,-0.375992 L 4.55313,-0.562134 L 4.59424,-0.746063 L 4.64682,-0.927048
 L 4.71066,-1.10437 L 4.78551,-1.27733 L 4.87108,-1.44525 L 4.96701,-1.60747 L 5.07294,-1.76335 L 5.18845,-1.91226
 L 5.31308,-2.05363 L 5.44635,-2.1869 L 5.58772,-2.31154 L 5.73663,-2.42705 L 5.89252,-2.53297 L 6.05473,-2.62891
 L 6.22266,-2.71448 L 6.39561,-2.78932 L 6.57294,-2.85316 L 6.75392,-2.90575 L 6.93785,-2.94685 L 7.12399,-2.97633
 L 7.31161,-2.99408 L 7.5,-3 L 7.68837,-2.99408 L 7.87599,-2.97633 L 8.06213,-2.94685 L 8.24606,-2.90575
 L 8.42705,-2.85316 L 8.60437,-2.78932 L 8.77733,-2.71448 L 8.94525,-2.62891 L 9.10747,-2.53297 L 9.26335,-2.42705
 L 9.41226,-2.31154 L 9.55363,-2.1869 L 9.6869,-2.05363 L 9.81154,-1.91226 L 9.92705,-1.76335 L 10.033,-1.60747
 L 10.1289,-1.44525 L 10.2145,-1.27733 L 10.2893,-1.10437 L 10.3532,-0.927048 L 10.4057,-0.746063 L 10.4469,-0.562134
 L 10.4763,-0.375992 L 10.4941,-0.18837 L 10.5,-0 L 10.4941,0.18837 L 10.4763,0.375992 L 10.4469,0.562134
 L 10.4057,0.746063 L 10.3532,0.927048 L 10.2893,1.10437 L 10.2145,1.27733 L 10.1289,1.44525 L 10.033,1.60747
 L 9.92705,1.76335 L 9.81154,1.91226 L 9.6869,2.05363 L 9.55363,2.1869 L 9.41226,2.31154 L 9.26335,2.42705
 L 9.10747,2.53297 L 8.94525,2.62891 L 8.77733,2.71448 L 8.60437,2.78932 L 8.42705,2.85316 L 8.24606,2.90575
 L 8.06213,2.94685 L 7.87599,2.97633 L 7.68837,2.99408 L 7.5,3 z
M 22.3116,2.99408 L 22.124,2.97633 L 21.9379,2.94685 L 21.7539,2.90575 L 21.5729,2.85316 L 21.3956,2.78932
 L 21.2227,2.71448 L 21.0547,2.62891 L 20.8925,2.53297 L 20.7366,2.42705 L 20.5877,2.31154 L 20.4464,2.1869
 L 20.3131,2.05363 L 20.1884,1.91226 L 20.0729,1.76335 L 19.967,1.60747 L 19.8711,1.44525 L 19.7855,1.27733
 L 19.7107,1.10437 L 19.6468,0.927048 L 19.5942,0.746063 L 19.5531,0.562134 L 19.5237,0.375992 L 19.5059,0.18837
 L 19.5,-0 L 19.5059,-0.18837 L 19.5237,-0.375992 L 19.5531,-0.562134 L 19.5942,-0.746063 L 19.6468,-0.927048
 L 19.7107,-1.10437 L 19.7855,-1.27733 L 19.8711,-1.44525 L 19.967,-1.60747 L 20.0729,-1.76335 L 20.1884,-1.91226
 L 20.3131,-2.05363 L 20.4464,-2.1869 L 20.5877,-2.31154 L 20.7366,-2.42705 L 20.8925,-2.53297 L 21.0547,-2.62891
 L 21.2227,-2.71448 L 21.3956,-2.78932 L 21.5729,-2.85316 L 21.7539,-2.90575 L 21.9379,-2.94685 L 22.124,-2.97633
 L 22.3116,-2.99408 L 22.5,-3 L 22.6884,-2.99408 L 22.876,-2.97633 L 23.0621,-2.94685 L 23.2461,-2.90575
 L 23.427,-2.85316 L 23.6044,-2.78932 L 23.7773,-2.71448 L 23.9453,-2.62891 L 24.1075,-2.53297 L 24.2634,-2.42705
 L 24.4123,-2.31154 L 24.5536,-2.1869 L 24.6869,-2.05363 L 24.8115,-1.91226 L 24.927,-1.76335 L 25.033,-1.60747
 L 25.1289,-1.44525 L 25.2145,-1.27733 L 25.2893,-1.10437 L 25.3532,-0.927048 L 25.4057,-0.746063 L 25.4469,-0.562134
 L 25.4763,-0.375992 L 25.4941,-0.18837 L 25.5,-0 L 25.4941,0.18837 L 25.4763,0.375992 L 25.4469,0.562134
 L 25.4057,0.746063 L 25.3532,0.927048 L 25.2893,1.10437 L 25.2145,1.27733 L 25.1289,1.44525 L 25.033,1.60747
 L 24.927,1.76335 L 24.8115,1.91226 L 24.6869,2.05363 L 24.5536,2.1869 L 24.4123,2.31154 L 24.2634,2.42705
 L 24.1075,2.53297 L 23.9453,2.62891 L 23.7773,2.71448 L 23.6044,2.78932 L 23.427,2.85316 L 23.2461,2.90575
 L 23.0621,2.94685 L 22.876,2.97633 L 22.6884,2.99408 L 22.5,3 z
M -7.68837,2.99408 L -7.87599,2.97633 L -8.06213,2.94685 L -8.24606,2.90575 L -8.42705,2.85316 L -8.60437,2.78932
 L -8.77733,2.71448 L -8.94525,2.62891 L -9.10747,2.53297 L -9.26335,2.42705 L -9.41226,2.31154 L -9.55363,2.1869
 L -9.6869,2.05363 L -9.81154,1.91226 L -9.92705,1.76335 L -10.033,1.60747 L -10.1289,1.44525 L -10.2145,1.27733
 L -10.2893,1.10437 L -10.3532,0.927048 L -10.4057,0.746063 L -10.4469,0.562134 L -10.4763,0.375992 L -10.4941,0.18837
 L -10.5,-0 L -10.4941,-0.18837 L -10.4763,-0.375992 L -10.4469,-0.562134 L -10.4057,-0.746063 L -10.3532,-0.927048
 L -10.2893,-1.10437 L -10.2145,-1.27733 L -10.1289,-1.44525 L -10.033,-1.60747 L -9.92705,-1.76335 L -9.81154,-1.91226
 L -9.6869,-2.05363 L -9.55363,-2.1869 L -9.41226,-2.31154 L -9.26335,-2.42705 L -9.10747,-2.53297 L -8.94525,-2.62891
 L -8.77733,-2.71448 L -8.60437,-2.78932 L -8.42705,-2.85316 L -8.24606,-2.90575 L -8.06213,-2.94685 L -7.87599,-2.97633
 L -7.68837,-2.99408 L -7.5,-3 L -7.31161,-2.99408 L -7.12399,-2.97633 L -6.93785,-2.94685 L -6.75392,-2.90575
 L -6.57294,-2.85316 L -6.39561,-2.78932 L -6.22266,-2.71448 L -6.05473,-2.62891 L -5.89252,-2.53297 L -5.73663,-2.42705
 L -5.58772,-2.31154 L -5.44635,-2.1869 L -5.31308,-2.05363 L -5.18845,-1.91226 L -5.07294,-1.76335 L -4.96701,-1.60747
 L -4.87108,-1.44525 L -4.78551,-1.27733 L -4.71066,-1.10437 L -4.64682,-0.927048 L -4.59424,-0.746063 L -4.55313,-0.562134
 L -4.52365,-0.375992 L -4.50591,-0.18837 L -4.5,-0 L -4.50591,0.18837 L -4.52365,0.375992 L -4.55313,0.562134
 L -4.59424,0.746063 L -4.64682,0.927048 L -4.71066,1.10437 L -4.78551,1.27733 L -4.87108,1.44525 L -4.96701,1.60747
 L -5.07294,1.76335 L -5.18845,1.91226 L -5.31308,2.05363 L -5.44635,2.1869 L -5.58772,2.31154 L -5.73663,2.42705
 L -5.89252,2.53297 L -6.05473,2.62891 L -6.22266,2.71448 L -6.39561,2.78932 L -6.57294,2.85316 L -6.75392,2.90575
 L -6.93785,2.94685 L -7.12399,2.97633 L -7.31161,2.99408 L -7.5,3 z
M -22.6884,2.99408 L -22.876,2.97633 L -23.0621,2.94685 L -23.2461,2.90575 L -23.427,2.85316 L -23.6044,2.78932
 L -23.7773,2.71448 L -23.9453,2.62891 L -24.1075,2.53297 L -24.2634,2.42705 L -24.4123,2.31154 L -24.5536,2.1869
 L -24.6869,2.05363 L -24.8115,1.91226 L -24.927,1.76335 L -25.033,1.60747 L -25.1289,1.44525 L -25.2145,1.27733
 L -25.2893,1.10437 L -25.3532,0.927048 L -25.4057,0.746063 L -25.4469,0.562134 L -25.4763,0.375992 L -25.4941,0.18837
 L -25.5,-0 L -25.4941,-0.18837 L -25.4763,-0.375992 L -25.4469,-0.562134 L -25.4057,-0.746063 L -25.3532,-0.927048
 L -25.2893,-1.10437 L -25.2145,-1.27733 L -25.1289,-1.44525 L -25.033,-1.60747 L -24.927,-1.76335 L -24.8115,-1.91226
 L -24.6869,-2.05363 L -24.5536,-2.1869 L -24.4123,-2.31154 L -24.2634,-2.42705 L -24.1075,-2.53297 L -23.9453,-2.62891
 L -23.7773,-2.71448 L -23.6044,-2.78932 L -23.427,-2.85316 L -23.2461,-2.90575 L -23.0621,-2.94685 L -22.876,-2.97633
 L -22.6884,-2.99408 L -22.5,-3 L -22.3116,-2.99408 L -22.124,-2.97633 L -21.9379,-2.94685 L -21.7539,-2.90575
 L -21.5729,-2.85316 L -21.3956,-2.78932 L -21.2227,-2.71448 L -21.0547,-2.62891 L -20.8925,-2.53297 L -20.7366,-2.42705
 L -20.5877,-2.31154 L -20.4464,-2.1869 L -20.3131,-2.05363 L -20.1884,-1.91226 L -20.0729,-1.76335 L -19.967,-1.60747
 L -19.8711,-1.44525 L -19.7855,-1.27733 L -19.7107,-1.10437 L -19.6468,-0.927048 L -19.5942,-0.746063 L -19.5531,-0.562134
 L -19.5237,-0.375992 L -19.5059,-0.18837 L -19.5,-0 L -19.5059,0.18837 L -19.5237,0.375992 L -19.5531,0.562134
 L -19.5942,0.746063 L -19.6468,0.927048 L -19.7107,1.10437 L -19.7855,1.27733 L -19.8711,1.44525 L -19.967,1.60747
 L -20.0729,1.76335 L -20.1884,1.91226 L -20.3131,2.05363 L -20.4464,2.1869 L -20.5877,2.31154 L -20.7366,2.42705
 L -20.8925,2.53297 L -21.0547,2.62891 L -21.2227,2.71448 L -21.3956,2.78932 L -21.5729,2.85316 L -21.7539,2.90575
 L -21.9379,2.94685 L -22.124,2.97633 L -22.3116,2.99408 L -22.5,3 z
M -40.033,1.60747 L -40.1289,1.44525 L -40.2145,1.27733 L -40.2893,1.10437 L -40.3532,0.927048 L -40.4057,0.746063
 L -40.4469,0.562134 L -40.4763,0.375992 L -40.4941,0.18837 L -40.5,-0 L -40.4941,-0.18837 L -40.4763,-0.375992
 L -40.4469,-0.562134 L -40.4057,-0.746063 L -40.3532,-0.927048 L -40.2893,-1.10437 L -40.2145,-1.27733 L -40.1289,-1.44525
 L -40.033,-1.60747 L -39.927,-1.76335 L -39.8115,-1.91226 L -39.6869,-2.05363 L -39.5536,-2.1869 L -39.4123,-2.31154
 L -39.2634,-2.42705 L -39.1075,-2.53297 L -38.9453,-2.62891 L -38.7773,-2.71448 L -38.6044,-2.78932 L -38.427,-2.85316
 L -38.2461,-2.90575 L -38.0621,-2.94685 L -37.876,-2.97633 L -37.6884,-2.99408 L -37.5,-3 L -37.3116,-2.99408
 L -37.124,-2.97633 L -36.9379,-2.94685 L -36.7539,-2.90575 L -36.5729,-2.85316 L -36.3956,-2.78932 L -36.2227,-2.71448
 L -36.0547,-2.62891 L -35.8925,-2.53297 L -35.7366,-2.42705 L -35.5877,-2.31154 L -35.4464,-2.1869 L -35.3131,-2.05363
 L -35.1885,-1.91226 L -35.0729,-1.76335 L -34.967,-1.60747 L -34.8711,-1.44525 L -34.7855,-1.27733 L -34.7107,-1.10437
 L -34.6468,-0.927048 L -34.5942,-0.746063 L -34.5531,-0.562134 L -34.5237,-0.375992 L -34.5059,-0.18837 L -34.5,-0
 L -34.5059,0.18837 L -34.5237,0.375992 L -34.5531,0.562134 L -34.5942,0.746063 L -34.6468,0.927048 L -34.7107,1.10437
 L -34.7855,1.27733 L -34.8711,1.44525 L -34.967,1.60747 L -35.0729,1.76335 L -35.1885,1.91226 L -35.3131,2.05363
 L -35.4464,2.1869 L -35.5877,2.31154 L -35.7366,2.42705 L -35.8925,2.53297 L -36.0547,2.62891 L -36.2227,2.71448
 L -36.3956,2.78932 L -36.5729,2.85316 L -36.7539,2.90575 L -36.9379,2.94685 L -37.124,2.97633 L -37.3116,2.99408
 L -37.5,3 L -37.6884,2.99408 L -37.876,2.97633 L -38.0621,2.94685 L -38.2461,2.90575 L -38.427,2.85316
 L -38.6044,2.78932 L -38.7773,2.71448 L -38.9453,2.62891 L -39.1075,2.53297 L -39.2634,2.42705 L -39.4123,2.31154
 L -39.5536,2.1869 L -39.6869,2.05363 L -39.8115,1.91226 L -39.927,1.76335 z
M 52.3116,2.99408 L 52.124,2.97633 L 51.9379,2.94685 L 51.7539,2.90575 L 51.5729,2.85316 L 51.3956,2.78932
 L 51.2227,2.71448 L 51.0547,2.62891 L 50.8925,2.53297 L 50.7366,2.42705 L 50.5877,2.31154 L 50.4464,2.1869
 L 50.3131,2.05363 L 50.1885,1.91226 L 50.0729,1.76335 L 49.967,1.60747 L 49.8711,1.44525 L 49.7855,1.27733
 L 49.7107,1.10437 L 49.6468,0.927048 L 49.5942,0.746063 L 49.5531,0.562134 L 49.5237,0.375992 L 49.5059,0.18837
 L 49.5,-0 L 49.5059,-0.18837 L 49.5237,-0.375992 L 49.5531,-0.562134 L 49.5942,-0.746063 L 49.6468,-0.927048
 L 49.7107,-1.10437 L 49.7855,-1.27733 L 49.8711,-1.44525 L 49.967,-1.60747 L 50.0729,-1.76335 L 50.1885,-1.91226
 L 50.3131,-2.05363 L 50.4464,-2.1869 L 50.5877,-2.31154 L 50.7366,-2.42705 L 50.8925,-2.53297 L 51.0547,-2.62891
 L 51.2227,-2.71448 L 51.3956,-2.78932 L 51.5729,-2.85316 L 51.7539,-2.90575 L 51.9379,-2.94685 L 52.124,-2.97633
 L 52.3116,-2.99408 L 52.5,-3 L 52.6884,-2.99408 L 52.876,-2.97633 L 53.0621,-2.94685 L 53.2461,-2.90575
 L 53.427,-2.85316 L 53.6044,-2.78932 L 53.7773,-2.71448 L 53.9453,-2.62891 L 54.1075,-2.53297 L 54.2634,-2.42705
 L 54.4123,-2.31154 L 54.5536,-2.1869 L 54.6869,-2.05363 L 54.8115,-1.91226 L 54.927,-1.76335 L 55.033,-1.60747
 L 55.1289,-1.44525 L 55.2145,-1.27733 L 55.2893,-1.10437 L 55.3532,-0.927048 L 55.4057,-0.746063 L 55.4469,-0.562134
 L 55.4763,-0.375992 L 55.4941,-0.18837 L 55.5,-0 L 55.4941,0.18837 L 55.4763,0.375992 L 55.4469,0.562134
 L 55.4057,0.746063 L 55.3532,0.927048 L 55.2893,1.10437 L 55.2145,1.27733 L 55.1289,1.44525 L 55.033,1.60747
 L 54.927,1.76335 L 54.8115,1.91226 L 54.6869,2.05363 L 54.5536,2.1869 L 54.4123,2.31154 L 54.2634,2.42705
 L 54.1075,2.53297 L 53.9453,2.62891 L 53.7773,2.71448 L 53.6044,2.78932 L 53.427,2.85316 L 53.2461,2.90575
 L 53.0621,2.94685 L 52.876,2.97633 L 52.6884,2.99408 L 52.5,3 z
M 22.3116,17.9941 L 22.124,17.9763 L 21.9379,17.9469 L 21.7539,17.9057 L 21.5729,17.8532 L 21.3956,17.7893
 L 21.2227,17.7145 L 21.0547,17.6289 L 20.8925,17.533 L 20.7366,17.427 L 20.5877,17.3115 L 20.4464,17.1869
 L 20.3131,17.0536 L 20.1884,16.9123 L 20.0729,16.7634 L 19.967,16.6075 L 19.8711,16.4453 L 19.7855,16.2773
 L 19.7107,16.1044 L 19.6468,15.927 L 19.5942,15.7461 L 19.5531,15.5621 L 19.5237,15.376 L 19.5059,15.1884
 L 19.5,15 L 19.5059,14.8116 L 19.5237,14.624 L 19.5531,14.4379 L 19.5942,14.2539 L 19.6468,14.0729
 L 19.7107,13.8956 L 19.7855,13.7227 L 19.8711,13.5547 L 19.967,13.3925 L 20.0729,13.2366 L 20.1884,13.0877
 L 20.3131,12.9464 L 20.4464,12.8131 L 20.5877,12.6884 L 20.7366,12.5729 L 20.8925,12.467 L 21.0547,12.3711
 L 21.2227,12.2855 L 21.3956,12.2107 L 21.5729,12.1468 L 21.7539,12.0942 L 21.9379,12.0531 L 22.124,12.0237
 L 22.3116,12.0059 L 22.5,12 L 22.6884,12.0059 L 22.876,12.0237 L 23.0621,12.0531 L 23.2461,12.0942
 L 23.427,12.1468 L 23.6044,12.2107 L 23.7773,12.2855 L 23.9453,12.3711 L 24.1075,12.467 L 24.2634,12.5729
 L 24.4123,12.6884 L 24.5536,12.8131 L 24.6869,12.9464 L 24.8115,13.0877 L 24.927,13.2366 L 25.033,13.3925
 L 25.1289,13.5547 L 25.2145,13.7227 L 25.2893,13.8956 L 25.3532,14.0729 L 25.4057,14.2539 L 25.4469,14.4379
 L 25.4763,14.624 L 25.4941,14.8116 L 25.5,15 L 25.4941,15.1884 L 25.4763,15.376 L 25.4469,15.5621
 L 25.4057,15.7461 L 25.3532,15.927 L 25.2893,16.1044 L 25.2145,16.2773 L 25.1289,16.4453 L 25.033,16.6075
 L 24.927,16.7634 L 24.8115,16.9123 L 24.6869,17.0536 L 24.5536,17.1869 L 24.4123,17.3115 L 24.2634,17.427
 L 24.1075,17.533 L 23.9453,17.6289 L 23.7773,17.7145 L 23.6044,17.7893 L 23.427,17.8532 L 23.2461,17.9057
 L 23.0621,17.9469 L 22.876,17.9763 L 22.6884,17.9941 L 22.5,18 z
M 37.3116,17.9941 L 37.124,17.9763 L 36.9379,17.9469 L 36.7539,17.9057 L 36.5729,17.8532 L 36.3956,17.7893
 L 36.2227,17.7145 L 36.0547,17.6289 L 35.8925,17.533 L 35.7366,17.427 L 35.5877,17.3115 L 35.4464,17.1869
 L 35.3131,17.0536 L 35.1885,16.9123 L 35.0729,16.7634 L 34.967,16.6075 L 34.8711,16.4453 L 34.7855,16.2773
 L 34.7107,16.1044 L 34.6468,15.927 L 34.5942,15.7461 L 34.5531,15.5621 L 34.5237,15.376 L 34.5059,15.1884
 L 34.5,15 L 34.5059,14.8116 L 34.5237,14.624 L 34.5531,14.4379 L 34.5942,14.2539 L 34.6468,14.0729
 L 34.7107,13.8956 L 34.7855,13.7227 L 34.8711,13.5547 L 34.967,13.3925 L 35.0729,13.2366 L 35.1885,13.0877
 L 35.3131,12.9464 L 35.4464,12.8131 L 35.5877,12.6884 L 35.7366,12.5729 L 35.8925,12.467 L 36.0547,12.3711
 L 36.2227,12.2855 L 36.3956,12.2107 L 36.5729,12.1468 L 36.7539,12.0942 L 36.9379,12.0531 L 37.124,12.0237
 L 37.3116,12.0059 L 37.5,12 L 37.6884,12.0059 L 37.876,12.0237 L 38.0621,12.0531 L 38.2461,12.0942
 L 38.427,12.1468 L 38.6044,12.2107 L 38.7773,12.2855 L 38.9453,12.3711 L 39.1075,12.467 L 39.2634,12.5729
 L 39.4123,12.6884 L 39.5536,12.8131 L 39.6869,12.9464 L 39.8115,13.0877 L 39.927,13.2366 L 40.033,13.3925
 L 40.1289,13.5547 L 40.2145,13.7227 L 40.2893,13.8956 L 40.3532,14.0729 L 40.4057,14.2539 L 40.4469,14.4379
 L 40.4763,14.624 L 40.4941,14.8116 L 40.5,15 L 40.4941,15.1884 L 40.4763,15.376 L 40.4469,15.5621
 L 40.4057,15.7461 L 40.3532,15.927 L 40.2893,16.1044 L 40.2145,16.2773 L 40.1289,16.4453 L 40.033,16.6075
 L 39.927,16.7634 L 39.8115,16.9123 L 39.6869,17.0536 L 39.5536,17.1869 L 39.4123,17.3115 L 39.2634,17.427
 L 39.1075,17.533 L 38.9453,17.6289 L 38.7773,17.7145 L 38.6044,17.7893 L 38.427,17.8532 L 38.2461,17.9057
 L 38.0621,17.9469 L 37.876,17.9763 L 37.6884,17.9941 L 37.5,18 z
M 52.3116,17.9941 L 52.124,17.9763 L 51.9379,17.9469 L 51.7539,17.9057 L 51.5729,17.8532 L 51.3956,17.7893
 L 51.2227,17.7145 L 51.0547,17.6289 L 50.8925,17.533 L 50.7366,17.427 L 50.5877,17.3115 L 50.4464,17.1869
 L 50.3131,17.0536 L 50.1885,16.9123 L 50.0729,16.7634 L 49.967,16.6075 L 49.8711,16.4453 L 49.7855,16.2773
 L 49.7107,16.1044 L 49.6468,15.927 L 49.5942,15.7461 L 49.5531,15.5621 L 49.5237,15.376 L 49.5059,15.1884
 L 49.5,15 L 49.5059,14.8116 L 49.5237,14.624 L 49.5531,14.4379 L 49.5942,14.2539 L 49.6468,14.0729
 L 49.7107,13.8956 L 49.7855,13.7227 L 49.8711,13.5547 L 49.967,13.3925 L 50.0729,13.2366 L 50.1885,13.0877
 L 50.3131,12.9464 L 50.4464,12.8131 L 50.5877,12.6884 L 50.7366,12.5729 L 50.8925,12.467 L 51.0547,12.3711
 L 51.2227,12.2855 L 51.3956,12.2107 L 51.5729,12.1468 L 51.7539,12.0942 L 51.9379,12.0531 L 52.124,12.0237
 L 52.3116,12.0059 L 52.5,12 L 52.6884,12.0059 L 52.876,12.0237 L 53.0621,12.0531 L 53.2461,12.0942
 L 53.427,12.1468 L 53.6044,12.2107 L 53.7773,12.2855 L 53.9453,12.3711 L 54.1075,12.467 L 54.2634,12.5729
 L 54.4123,12.6884 L 54.5536,12.8131 L 54.6869,12.9464 L 54.8115,13.0877 L 54.927,13.2366 L 55.033,13.3925
 L 55.1289,13.5547 L 55.2145,13.7227 L 55.2893,13.8956 L 55.3532,14.0729 L 55.4057,14.2539 L 55.4469,14.4379
 L 55.4763,14.624 L 55.4941,14.8116 L 55.5,15 L 55.4941,15.1884 L 55.4763,15.376 L 55.4469,15.5621
 L 55.4057,15.7461 L 55.3532,15.927 L 55.2893,16.1044 L 55.2145,16.2773 L 55.1289,16.4453 L 55.033,16.6075
 L 54.927,16.7634 L 54.8115,16.9123 L 54.6869,17.0536 L 54.5536,17.1869 L 54.4123,17.3115 L 54.2634,17.427
 L 54.1075,17.533 L 53.9453,17.6289 L 53.7773,17.7145 L 53.6044,17.7893 L 53.427,17.8532 L 53.2461,17.9057
 L 53.0621,17.9469 L 52.876,17.9763 L 52.6884,17.9941 L 52.5,18 z
M -7.68837,17.9941 L -7.87599,17.9763 L -8.06213,17.9469 L -8.24606,17.9057 L -8.42705,17.8532 L -8.60437,17.7893
 L -8.77733,17.7145 L -8.94525,17.6289 L -9.10747,17.533 L -9.26335,17.427 L -9.41226,17.3115 L -9.55363,17.1869
 L -9.6869,17.0536 L -9.81154,16.9123 L -9.92705,16.7634 L -10.033,16.6075 L -10.1289,16.4453 L -10.2145,16.2773
 L -10.2893,16.1044 L -10.3532,15.927 L -10.4057,15.7461 L -10.4469,15.5621 L -10.4763,15.376 L -10.4941,15.1884
 L -10.5,15 L -10.4941,14.8116 L -10.4763,14.624 L -10.4469,14.4379 L -10.4057,14.2539 L -10.3532,14.0729
 L -10.2893,13.8956 L -10.2145,13.7227 L -10.1289,13.5547 L -10.033,13.3925 L -9.92705,13.2366 L -9.81154,13.0877
 L -9.6869,12.9464 L -9.55363,12.8131 L -9.41226,12.6884 L -9.26335,12.5729 L -9.10747,12.467 L -8.94525,12.3711
 L -8.77733,12.2855 L -8.60437,12.2107 L -8.42705,12.1468 L -8.24606,12.0942 L -8.06213,12.0531 L -7.87599,12.0237
 L -7.68837,12.0059 L -7.5,12 L -7.31161,12.0059 L -7.12399,12.0237 L -6.93785,12.0531 L -6.75392,12.0942
 L -6.57294,12.1468 L -6.39561,12.2107 L -6.22266,12.2855 L -6.05473,12.3711 L -5.89252,12.467 L -5.73663,12.5729
 L -5.58772,12.6884 L -5.44635,12.8131 L -5.31308,12.9464 L -5.18845,13.0877 L -5.07294,13.2366 L -4.96701,13.3925
 L -4.87108,13.5547 L -4.78551,13.7227 L -4.71066,13.8956 L -4.64682,14.0729 L -4.59424,14.2539 L -4.55313,14.4379
 L -4.52365,14.624 L -4.50591,14.8116 L -4.5,15 L -4.50591,15.1884 L -4.52365,15.376 L -4.55313,15.5621
 L -4.59424,15.7461 L -4.64682,15.927 L -4.71066,16.1044 L -4.78551,16.2773 L -4.87108,16.4453 L -4.96701,16.6075
 L -5.07294,16.7634 L -5.18845,16.9123 L -5.31308,17.0536 L -5.44635,17.1869 L -5.58772,17.3115 L -5.73663,17.427
 L -5.89252,17.533 L -6.05473,17.6289 L -6.22266,17.7145 L -6.39561,17.7893 L -6.57294,17.8532 L -6.75392,17.9057
 L -6.93785,17.9469 L -7.12399,17.9763 L -7.31161,17.9941 L -7.5,18 z
M -52.6884,17.9941 L -52.876,17.9763 L -53.0621,17.9469 L -53.2461,17.9057 L -53.427,17.8532 L -53.6044,17.7893
 L -53.7773,17.7145 L -53.9453,17.6289 L -54.1075,17.533 L -54.2634,17.427 L -54.4123,17.3115 L -54.5536,17.1869
 L -54.6869,17.0536 L -54.8115,16.9123 L -54.927,16.7634 L -55.033,16.6075 L -55.1289,16.4453 L -55.2145,16.2773
 L -55.2893,16.1044 L -55.3532,15.927 L -55.4057,15.7461 L -55.4469,15.5621 L -55.4763,15.376 L -55.4941,15.1884
 L -55.5,15 L -55.4941,14.8116 L -55.4763,14.624 L -55.4469,14.4379 L -55.4057,14.2539 L -55.3532,14.0729
 L -55.2893,13.8956 L -55.2145,13.7227 L -55.1289,13.5547 L -55.033,13.3925 L -54.927,13.2366 L -54.8115,13.0877
 L -54.6869,12.9464 L -54.5536,12.8131 L -54.4123,12.6884 L -54.2634,12.5729 L -54.1075,12.467 L -53.9453,12.3711
 L -53.7773,12.2855 L -53.6044,12.2107 L -53.427,12.1468 L -53.2461,12.0942 L -53.0621,12.0531 L -52.876,12.0237
 L -52.6884,12.0059 L -52.5,12 L -52.3116,12.0059 L -52.124,12.0237 L -51.9379,12.0531 L -51.7539,12.0942
 L -51.5729,12.1468 L -51.3956,12.2107 L -51.2227,12.2855 L -51.0547,12.3711 L -50.8925,12.467 L -50.7366,12.5729
 L -50.5877,12.6884 L -50.4464,12.8131 L -50.3131,12.9464 L -50.1885,13.0877 L -50.0729,13.2366 L -49.967,13.3925
 L -49.8711,13.5547 L -49.7855,13.7227 L -49.7107,13.8956 L -49.6468,14.0729 L -49.5942,14.2539 L -49.5531,14.4379
 L -49.5237,14.624 L -49.5059,14.8116 L -49.5,15 L -49.5059,15.1884 L -49.5237,15.376 L -49.5531,15.5621
 L -49.5942,15.7461 L -49.6468,15.927 L -49.7107,16.1044 L -49.7855,16.2773 L -49.8711,16.4453 L -49.967,16.6075
 L -50.0729,16.7634 L -50.1885,16.9123 L -50.3131,17.0536 L -50.4464,17.1869 L -50.5877,17.3115 L -50.7366,17.427
 L -50.8925,17.533 L -51.0547,17.6289 L -51.2227,17.7145 L -51.3956,17.7893 L -51.5729,17.8532 L -51.7539,17.9057
 L -51.9379,17.9469 L -52.124,17.9763 L -52.3116,17.9941 L -52.5,18 z
M -37.6884,17.9941 L -37.876,17.9763 L -38.0621,17.9469 L -38.2461,17.9057 L -38.427,17.8532 L -38.6044,17.7893
 L -38.7773,17.7145 L -38.9453,17.6289 L -39.1075,17.533 L -39.2634,17.427 L -39.4123,17.3115 L -39.5536,17.1869
 L -39.6869,17.0536 L -39.8115,16.9123 L -39.927,16.7634 L -40.033,16.6075 L -40.1289,16.4453 L -40.2145,16.2773
 L -40.2893,16.1044 L -40.3532,15.927 L -40.4057,15.7461 L -40.4469,15.5621 L -40.4763,15.376 L -40.4941,15.1884
 L -40.5,15 L -40.4941,14.8116 L -40.4763,14.624 L -40.4469,14.4379 L -40.4057,14.2539 L -40.3532,14.0729
 L -40.2893,13.8956 L -40.2145,13.7227 L -40.1289,13.5547 L -40.033,13.3925 L -39.927,13.2366 L -39.8115,13.0877
 L -39.6869,12.9464 L -39.5536,12.8131 L -39.4123,12.6884 L -39.2634,12.5729 L -39.1075,12.467 L -38.9453,12.3711
 L -38.7773,12.2855 L -38.6044,12.2107 L -38.427,12.1468 L -38.2461,12.0942 L -38.0621,12.0531 L -37.876,12.0237
 L -37.6884,12.0059 L -37.5,12 L -37.3116,12.0059 L -37.124,12.0237 L -36.9379,12.0531 L -36.7539,12.0942
 L -36.5729,12.1468 L -36.3956,12.2107 L -36.2227,12.2855 L -36.0547,12.3711 L -35.8925,12.467 L -35.7366,12.5729
 L -35.5877,12.6884 L -35.4464,12.8131 L -35.3131,12.9464 L -35.1885,13.0877 L -35.0729,13.2366 L -34.967,13.3925
 L -34.8711,13.5547 L -34.7855,13.7227 L -34.7107,13.8956 L -34.6468,14.0729 L -34.5942,14.2539 L -34.5531,14.4379
 L -34.5237,14.624 L -34.5059,14.8116 L -34.5,15 L -34.5059,15.1884 L -34.5237,15.376 L -34.5531,15.5621
 L -34.5942,15.7461 L -34.6468,15.927 L -34.7107,16.1044 L -34.7855,16.2773 L -34.8711,16.4453 L -34.967,16.6075
 L -35.0729,16.7634 L -35.1885,16.9123 L -35.3131,17.0536 L -35.4464,17.1869 L -35.5877,17.3115 L -35.7366,17.427
 L -35.8925,17.533 L -36.0547,17.6289 L -36.2227,17.7145 L -36.3956,17.7893 L -36.5729,17.8532 L -36.7539,17.9057
 L -36.9379,17.9469 L -37.124,17.9763 L -37.3116,17.9941 L -37.5,18 z
M -22.6884,17.9941 L -22.876,17.9763 L -23.0621,17.9469 L -23.2461,17.9057 L -23.427,17.8532 L -23.6044,17.7893
 L -23.7773,17.7145 L -23.9453,17.6289 L -24.1075,17.533 L -24.2634,17.427 L -24.4123,17.3115 L -24.5536,17.1869
 L -24.6869,17.0536 L -24.8115,16.9123 L -24.927,16.7634 L -25.033,16.6075 L -25.1289,16.4453 L -25.2145,16.2773
 L -25.2893,16.1044 L -25.3532,15.927 L -25.4057,15.7461 L -25.4469,15.5621 L -25.4763,15.376 L -25.4941,15.1884
 L -25.5,15 L -25.4941,14.8116 L -25.4763,14.624 L -25.4469,14.4379 L -25.4057,14.2539 L -25.3532,14.0729
 L -25.2893,13.8956 L -25.2145,13.7227 L -25.1289,13.5547 L -25.033,13.3925 L -24.927,13.2366 L -24.8115,13.0877
 L -24.6869,12.9464 L -24.5536,12.8131 L -24.4123,12.6884 L -24.2634,12.5729 L -24.1075,12.467 L -23.9453,12.3711
 L -23.7773,12.2855 L -23.6044,12.2107 L -23.427,12.1468 L -23.2461,12.0942 L -23.0621,12.0531 L -22.876,12.0237
 L -22.6884,12.0059 L -22.5,12 L -22.3116,12.0059 L -22.124,12.0237 L -21.9379,12.0531 L -21.7539,12.0942
 L -21.5729,12.1468 L -21.3956,12.2107 L -21.2227,12.2855 L -21.0547,12.3711 L -20.8925,12.467 L -20.7366,12.5729
 L -20.5877,12.6884 L -20.4464,12.8131 L -20.3131,12.9464 L -20.1884,13.0877 L -20.0729,13.2366 L -19.967,13.3925
 L -19.8711,13.5547 L -19.7855,13.7227 L -19.7107,13.8956 L -19.6468,14.0729 L -19.5942,14.2539 L -19.5531,14.4379
 L -19.5237,14.624 L -19.5059,14.8116 L -19.5,15 L -19.5059,15.1884 L -19.5237,15.376 L -19.5531,15.5621
 L -19.5942,15.7461 L -19.6468,15.927 L -19.7107,16.1044 L -19.7855,16.2773 L -19.8711,16.4453 L -19.967,16.6075
 L -20.0729,16.7634 L -20.1884,16.9123 L -20.3131,17.0536 L -20.4464,17.1869 L -20.5877,17.3115 L -20.7366,17.427
 L -20.8925,17.533 L -21.0547,17.6289 L -21.2227,17.7145 L -21.3956,17.7893 L -21.5729,17.8532 L -21.7539,17.9057
 L -21.9379,17.9469 L -22.124,17.9763 L -22.3116,17.9941 L -22.5,18 z
M 7.31161,17.9941 L 7.12399,17.9763 L 6.93785,17.9469 L 6.75392,17.9057 L 6.57294,17.8532 L 6.39561,17.7893
 L 6.22266,17.7145 L 6.05473,17.6289 L 5.89252,17.533 L 5.73663,17.427 L 5.58772,17.3115 L 5.44635,17.1869
 L 5.31308,17.0536 L 5.18845,16.9123 L 5.07294,16.7634 L 4.96701,16.6075 L 4.87108,16.4453 L 4.78551,16.2773
 L 4.71066,16.1044 L 4.64682,15.927 L 4.59424,15.7461 L 4.55313,15.5621 L 4.52365,15.376 L 4.50591,15.1884
 L 4.5,15 L 4.50591,14.8116 L 4.52365,14.624 L 4.55313,14.4379 L 4.59424,14.2539 L 4.64682,14.0729
 L 4.71066,13.8956 L 4.78551,13.7227 L 4.87108,13.5547 L 4.96701,13.3925 L 5.07294,13.2366 L 5.18845,13.0877
 L 5.31308,12.9464 L 5.44635,12.8131 L 5.58772,12.6884 L 5.73663,12.5729 L 5.89252,12.467 L 6.05473,12.3711
 L 6.22266,12.2855 L 6.39561,12.2107 L 6.57294,12.1468 L 6.75392,12.0942 L 6.93785,12.0531 L 7.12399,12.0237
 L 7.31161,12.0059 L 7.5,12 L 7.68837,12.0059 L 7.87599,12.0237 L 8.06213,12.0531 L 8.24606,12.0942
 L 8.42705,12.1468 L 8.60437,12.2107 L 8.77733,12.2855 L 8.94525,12.3711 L 9.10747,12.467 L 9.26335,12.5729
 L 9.41226,12.6884 L 9.55363,12.8131 L 9.6869,12.9464 L 9.81154,13.0877 L 9.92705,13.2366 L 10.033,13.3925
 L 10.1289,13.5547 L 10.2145,13.7227 L 10.2893,13.8956 L 10.3532,14.0729 L 10.4057,14.2539 L 10.4469,14.4379
 L 10.4763,14.624 L 10.4941,14.8116 L 10.5,15 L 10.4941,15.1884 L 10.4763,15.376 L 10.4469,15.5621
 L 10.4057,15.7461 L 10.3532,15.927 L 10.2893,16.1044 L 10.2145,16.2773 L 10.1289,16.4453 L 10.033,16.6075
 L 9.92705,16.7634 L 9.81154,16.9123 L 9.6869,17.0536 L 9.55363,17.1869 L 9.41226,17.3115 L 9.26335,17.427
 L 9.10747,17.533 L 8.94525,17.6289 L 8.77733,17.7145 L 8.60437,17.7893 L 8.42705,17.8532 L 8.24606,17.9057
 L 8.06213,17.9469 L 7.87599,17.9763 L 7.68837,17.9941 L 7.5,18 z
M -37.6884,32.9941 L -37.876,32.9763 L -38.0621,32.9469 L -38.2461,32.9057 L -38.427,32.8532 L -38.6044,32.7893
 L -38.7773,32.7145 L -38.9453,32.6289 L -39.1075,32.533 L -39.2634,32.427 L -39.4123,32.3115 L -39.5536,32.1869
 L -39.6869,32.0536 L -39.8115,31.9123 L -39.927,31.7634 L -40.033,31.6075 L -40.1289,31.4453 L -40.2145,31.2773
 L -40.2893,31.1044 L -40.3532,30.927 L -40.4057,30.7461 L -40.4469,30.5621 L -40.4763,30.376 L -40.4941,30.1884
 L -40.5,30 L -40.4941,29.8116 L -40.4763,29.624 L -40.4469,29.4379 L -40.4057,29.2539 L -40.3532,29.0729
 L -40.2893,28.8956 L -40.2145,28.7227 L -40.1289,28.5547 L -40.033,28.3925 L -39.927,28.2366 L -39.8115,28.0877
 L -39.6869,27.9464 L -39.5536,27.8131 L -39.4123,27.6884 L -39.2634,27.5729 L -39.1075,27.467 L -38.9453,27.3711
 L -38.7773,27.2855 L -38.6044,27.2107 L -38.427,27.1468 L -38.2461,27.0942 L -38.0621,27.0531 L -37.876,27.0237
 L -37.6884,27.0059 L -37.5,27 L -37.3116,27.0059 L -37.124,27.0237 L -36.9379,27.0531 L -36.7539,27.0942
 L -36.5729,27.1468 L -36.3956,27.2107 L -36.2227,27.2855 L -36.0547,27.3711 L -35.8925,27.467 L -35.7366,27.5729
 L -35.5877,27.6884 L -35.4464,27.8131 L -35.3131,27.9464 L -35.1885,28.0877 L -35.0729,28.2366 L -34.967,28.3925
 L -34.8711,28.5547 L -34.7855,28.7227 L -34.7107,28.8956 L -34.6468,29.0729 L -34.5942,29.2539 L -34.5531,29.4379
 L -34.5237,29.624 L -34.5059,29.8116 L -34.5,30 L -34.5059,30.1884 L -34.5237,30.376 L -34.5531,30.5621
 L -34.5942,30.7461 L -34.6468,30.927 L -34.7107,31.1044 L -34.7855,31.2773 L -34.8711,31.4453 L -34.967,31.6075
 L -35.0729,31.7634 L -35.1885,31.9123 L -35.3131,32.0536 L -35.4464,32.1869 L -35.5877,32.3115 L -35.7366,32.427
 L -35.8925,32.533 L -36.0547,32.6289 L -36.2227,32.7145 L -36.3956,32.7893 L -36.5729,32.8532 L -36.7539,32.9057
 L -36.9379,32.9469 L -37.124,32.9763 L -37.3116,32.9941 L -37.5,33 z
M -22.6884,32.9941 L -22.876,32.9763 L -23.0621,32.9469 L -23.2461,32.9057 L -23.427,32.8532 L -23.6044,32.7893
 L -23.7773,32.7145 L -23.9453,32.6289 L -24.1075,32.533 L -24.2634,32.427 L -24.4123,32.3115 L -24.5536,32.1869
 L -24.6869,32.0536 L -24.8115,31.9123 L -24.927,31.7634 L -25.033,31.6075 L -25.1289,31.4453 L -25.2145,31.2773
 L -25.2893,31.1044 L -25.3532,30.927 L -25.4057,30.7461 L -25.4469,30.5621 L -25.4763,30.376 L -25.4941,30.1884
 L -25.5,30 L -25.4941,29.8116 L -25.4763,29.624 L -25.4469,29.4379 L -25.4057,29.2539 L -25.3532,29.0729
 L -25.2893,28.8956 L -25.2145,28.7227 L -25.1289,28.5547 L -25.033,28.3925 L -24.927,28.2366 L -24.8115,28.0877
 L -24.6869,27.9464 L -24.5536,27.8131 L -24.4123,27.6884 L -24.2634,27.5729 L -24.1075,27.467 L -23.9453,27.3711
 L -23.7773,27.2855 L -23.6044,27.2107 L -23.427,27.1468 L -23.2461,27.0942 L -23.0621,27.0531 L -22.876,27.0237
 L -22.6884,27.0059 L -22.5,27 L -22.3116,27.0059 L -22.124,27.0237 L -21.9379,27.0531 L -21.7539,27.0942
 L -21.5729,27.1468 L -21.3956,27.2107 L -21.2227,27.2855 L -21.0547,27.3711 L -20.8925,27.467 L -20.7366,27.5729
 L -20.5877,27.6884 L -20.4464,27.8131 L -20.3131,27.9464 L -20.1884,28.0877 L -20.0729,28.2366 L -19.967,28.3925
 L -19.8711,28.5547 L -19.7855,28.7227 L -19.7107,28.8956 L -19.6468,29.0729 L -19.5942,29.2539 L -19.5531,29.4379
 L -19.5237,29.624 L -19.5059,29.8116 L -19.5,30 L -19.5059,30.1884 L -19.5237,30.376 L -19.5531,30.5621
 L -19.5942,30.7461 L -19.6468,30.927 L -19.7107,31.1044 L -19.7855,31.2773 L -19.8711,31.4453 L -19.967,31.6075
 L -20.0729,31.7634 L -20.1884,31.9123 L -20.3131,32.0536 L -20.4464,32.1869 L -20.5877,32.3115 L -20.7366,32.427
 L -20.8925,32.533 L -21.0547,32.6289 L -21.2227,32.7145 L -21.3956,32.7893 L -21.5729,32.8532 L -21.7539,32.9057
 L -21.9379,32.9469 L -22.124,32.9763 L -22.3116,32.9941 L -22.5,33 z
M 22.3116,32.9941 L 22.124,32.9763 L 21.9379,32.9469 L 21.7539,32.9057 L 21.5729,32.8532 L 21.3956,32.7893
 L 21.2227,32.7145 L 21.0547,32.6289 L 20.8925,32.533 L 20.7366,32.427 L 20.5877,32.3115 L 20.4464,32.1869
 L 20.3131,32.0536 L 20.1884,31.9123 L 20.0729,31.7634 L 19.967,31.6075 L 19.8711,31.4453 L 19.7855,31.2773
 L 19.7107,31.1044 L 19.6468,30.927 L 19.5942,30.7461 L 19.5531,30.5621 L 19.5237,30.376 L 19.5059,30.1884
 L 19.5,30 L 19.5059,29.8116 L 19.5237,29.624 L 19.5531,29.4379 L 19.5942,29.2539 L 19.6468,29.0729
 L 19.7107,28.8956 L 19.7855,28.7227 L 19.8711,28.5547 L 19.967,28.3925 L 20.0729,28.2366 L 20.1884,28.0877
 L 20.3131,27.9464 L 20.4464,27.8131 L 20.5877,27.6884 L 20.7366,27.5729 L 20.8925,27.467 L 21.0547,27.3711
 L 21.2227,27.2855 L 21.3956,27.2107 L 21.5729,27.1468 L 21.7539,27.0942 L 21.9379,27.0531 L 22.124,27.0237
 L 22.3116,27.0059 L 22.5,27 L 22.6884,27.0059 L 22.876,27.0237 L 23.0621,27.0531 L 23.2461,27.0942
 L 23.427,27.1468 L 23.6044,27.2107 L 23.7773,27.2855 L 23.9453,27.3711 L 24.1075,27.467 L 24.2634,27.5729
 L 24.4123,27.6884 L 24.5536,27.8131 L 24.6869,27.9464 L 24.8115,28.0877 L 24.927,28.2366 L 25.033,28.3925
 L 25.1289,28.5547 L 25.2145,28.7227 L 25.2893,28.8956 L 25.3532,29.0729 L 25.4057,29.2539 L 25.4469,29.4379
 L 25.4763,29.624 L 25.4941,29.8116 L 25.5,30 L 25.4941,30.1884 L 25.4763,30.376 L 25.4469,30.5621
 L 25.4057,30.7461 L 25.3532,30.927 L 25.2893,31.1044 L 25.2145,31.2773 L 25.1289,31.4453 L 25.033,31.6075
 L 24.927,31.7634 L 24.8115,31.9123 L 24.6869,32.0536 L 24.5536,32.1869 L 24.4123,32.3115 L 24.2634,32.427
 L 24.1075,32.533 L 23.9453,32.6289 L 23.7773,32.7145 L 23.6044,32.7893 L 23.427,32.8532 L 23.2461,32.9057
 L 23.0621,32.9469 L 22.876,32.9763 L 22.6884,32.9941 L 22.5,33 z
M 37.3116,32.9941 L 37.124,32.9763 L 36.9379,32.9469 L 36.7539,32.9057 L 36.5729,32.8532 L 36.3956,32.7893
 L 36.2227,32.7145 L 36.0547,32.6289 L 35.8925,32.533 L 35.7366,32.427 L 35.5877,32.3115 L 35.4464,32.1869
 L 35.3131,32.0536 L 35.1885,31.9123 L 35.0729,31.7634 L 34.967,31.6075 L 34.8711,31.4453 L 34.7855,31.2773
 L 34.7107,31.1044 L 34.6468,30.927 L 34.5942,30.7461 L 34.5531,30.5621 L 34.5237,30.376 L 34.5059,30.1884
 L 34.5,30 L 34.5059,29.8116 L 34.5237,29.624 L 34.5531,29.4379 L 34.5942,29.2539 L 34.6468,29.0729
 L 34.7107,28.8956 L 34.7855,28.7227 L 34.8711,28.5547 L 34.967,28.3925 L 35.0729,28.2366 L 35.1885,28.0877
 L 35.3131,27.9464 L 35.4464,27.8131 L 35.5877,27.6884 L 35.7366,27.5729 L 35.8925,27.467 L 36.0547,27.3711
 L 36.2227,27.2855 L 36.3956,27.2107 L 36.5729,27.1468 L 36.7539,27.0942 L 36.9379,27.0531 L 37.124,27.0237
 L 37.3116,27.0059 L 37.5,27 L 37.6884,27.0059 L 37.876,27.0237 L 38.0621,27.0531 L 38.2461,27.0942
 L 38.427,27.1468 L 38.6044,27.2107 L 38.7773,27.2855 L 38.9453,27.3711 L 39.1075,27.467 L 39.2634,27.5729
 L 39.4123,27.6884 L 39.5536,27.8131 L 39.6869,27.9464 L 39.8115,28.0877 L 39.927,28.2366 L 40.033,28.3925
 L 40.1289,28.5547 L 40.2145,28.7227 L 40.2893,28.8956 L 40.3532,29.0729 L 40.4057,29.2539 L 40.4469,29.4379
 L 40.4763,29.624 L 40.4941,29.8116 L 40.5,30 L 40.4941,30.1884 L 40.4763,30.376 L 40.4469,30.5621
 L 40.4057,30.7461 L 40.3532,30.927 L 40.2893,31.1044 L 40.2145,31.2773 L 40.1289,31.4453 L 40.033,31.6075
 L 39.927,31.7634 L 39.8115,31.9123 L 39.6869,32.0536 L 39.5536,32.1869 L 39.4123,32.3115 L 39.2634,32.427
 L 39.1075,32.533 L 38.9453,32.6289 L 38.7773,32.7145 L 38.6044,32.7893 L 38.427,32.8532 L 38.2461,32.9057
 L 38.0621,32.9469 L 37.876,32.9763 L 37.6884,32.9941 L 37.5,33 z
M 52.3116,32.9941 L 52.124,32.9763 L 51.9379,32.9469 L 51.7539,32.9057 L 51.5729,32.8532 L 51.3956,32.7893
 L 51.2227,32.7145 L 51.0547,32.6289 L 50.8925,32.533 L 50.7366,32.427 L 50.5877,32.3115 L 50.4464,32.1869
 L 50.3131,32.0536 L 50.1885,31.9123 L 50.0729,31.7634 L 49.967,31.6075 L 49.8711,31.4453 L 49.7855,31.2773
 L 49.7107,31.1044 L 49.6468,30.927 L 49.5942,30.7461 L 49.5531,30.5621 L 49.5237,30.376 L 49.5059,30.1884
 L 49.5,30 L 49.5059,29.8116 L 49.5237,29.624 L 49.5531,29.4379 L 49.5942,29.2539 L 49.6468,29.0729
 L 49.7107,28.8956 L 49.7855,28.7227 L 49.8711,28.5547 L 49.967,28.3925 L 50.0729,28.2366 L 50.1885,28.0877
 L 50.3131,27.9464 L 50.4464,27.8131 L 50.5877,27.6884 L 50.7366,27.5729 L 50.8925,27.467 L 51.0547,27.3711
 L 51.2227,27.2855 L 51.3956,27.2107 L 51.5729,27.1468 L 51.7539,27.0942 L 51.9379,27.0531 L 52.124,27.0237
 L 52.3116,27.0059 L 52.5,27 L 52.6884,27.0059 L 52.876,27.0237 L 53.0621,27.0531 L 53.2461,27.0942
 L 53.427,27.1468 L 53.6044,27.2107 L 53.7773,27.2855 L 53.9453,27.3711 L 54.1075,27.467 L 54.2634,27.5729
 L 54.4123,27.6884 L 54.5536,27.8131 L 54.6869,27.9464 L 54.8115,28.0877 L 54.927,28.2366 L 55.033,28.3925
 L 55.1289,28.5547 L 55.2145,28.7227 L 55.2893,28.8956 L 55.3532,29.0729 L 55.4057,29.2539 L 55.4469,29.4379
 L 55.4763,29.624 L 55.4941,29.8116 L 55.5,30 L 55.4941,30.1884 L 55.4763,30.376 L 55.4469,30.5621
 L 55.4057,30.7461 L 55.3532,30.927 L 55.2893,31.1044 L 55.2145,31.2773 L 55.1289,31.4453 L 55.033,31.6075
 L 54.927,31.7634 L 54.8115,31.9123 L 54.6869,32.0536 L 54.5536,32.1869 L 54.4123,32.3115 L 54.2634,32.427
 L 54.1075,32.533 L 53.9453,32.6289 L 53.7773,32.7145 L 53.6044,32.7893 L 53.427,32.8532 L 53.2461,32.9057
 L 53.0621,32.9469 L 52.876,32.9763 L 52.6884,32.9941 L 52.5,33 z
M 7.31161,32.9941 L 7.12399,32.9763 L 6.93785,32.9469 L 6.75392,32.9057 L 6.57294,32.8532 L 6.39561,32.7893
 L 6.22266,32.7145 L 6.05473,32.6289 L 5.89252,32.533 L 5.73663,32.427 L 5.58772,32.3115 L 5.44635,32.1869
 L 5.31308,32.0536 L 5.18845,31.9123 L 5.07294,31.7634 L 4.96701,31.6075 L 4.87108,31.4453 L 4.78551,31.2773
 L 4.71066,31.1044 L 4.64682,30.927 L 4.59424,30.7461 L 4.55313,30.5621 L 4.52365,30.376 L 4.50591,30.1884
 L 4.5,30 L 4.50591,29.8116 L 4.52365,29.624 L 4.55313,29.4379 L 4.59424,29.2539 L 4.64682,29.0729
 L 4.71066,28.8956 L 4.78551,28.7227 L 4.87108,28.5547 L 4.96701,28.3925 L 5.07294,28.2366 L 5.18845,28.0877
 L 5.31308,27.9464 L 5.44635,27.8131 L 5.58772,27.6884 L 5.73663,27.5729 L 5.89252,27.467 L 6.05473,27.3711
 L 6.22266,27.2855 L 6.39561,27.2107 L 6.57294,27.1468 L 6.75392,27.0942 L 6.93785,27.0531 L 7.12399,27.0237
 L 7.31161,27.0059 L 7.5,27 L 7.68837,27.0059 L 7.87599,27.0237 L 8.06213,27.0531 L 8.24606,27.0942
 L 8.42705,27.1468 L 8.60437,27.2107 L 8.77733,27.2855 L 8.94525,27.3711 L 9.10747,27.467 L 9.26335,27.5729
 L 9.41226,27.6884 L 9.55363,27.8131 L 9.6869,27.9464 L 9.81154,28.0877 L 9.92705,28.2366 L 10.033,28.3925
 L 10.1289,28.5547 L 10.2145,28.7227 L 10.2893,28.8956 L 10.3532,29.0729 L 10.4057,29.2539 L 10.4469,29.4379
 L 10.4763,29.624 L 10.4941,29.8116 L 10.5,30 L 10.4941,30.1884 L 10.4763,30.376 L 10.4469,30.5621
 L 10.4057,30.7461 L 10.3532,30.927 L 10.2893,31.1044 L 10.2145,31.2773 L 10.1289,31.4453 L 10.033,31.6075
 L 9.92705,31.7634 L 9.81154,31.9123 L 9.6869,32.0536 L 9.55363,32.1869 L 9.41226,32.3115 L 9.26335,32.427
 L 9.10747,32.533 L 8.94525,32.6289 L 8.77733,32.7145 L 8.60437,32.7893 L 8.42705,32.8532 L 8.24606,32.9057
 L 8.06213,32.9469 L 7.87599,32.9763 L 7.68837,32.9941 L 7.5,33 z
M -52.6884,32.9941 L -52.876,32.9763 L -53.0621,32.9469 L -53.2461,32.9057 L -53.427,32.8532 L -53.6044,32.7893
 L -53.7773,32.7145 L -53.9453,32.6289 L -54.1075,32.533 L -54.2634,32.427 L -54.4123,32.3115 L -54.5536,32.1869
 L -54.6869,32.0536 L -54.8115,31.9123 L -54.927,31.7634 L -55.033,31.6075 L -55.1289,31.4453 L -55.2145,31.2773
 L -55.2893,31.1044 L -55.3532,30.927 L -55.4057,30.7461 L -55.4469,30.5621 L -55.4763,30.376 L -55.4941,30.1884
 L -55.5,30 L -55.4941,29.8116 L -55.4763,29.624 L -55.4469,29.4379 L -55.4057,29.2539 L -55.3532,29.0729
 L -55.2893,28.8956 L -55.2145,28.7227 L -55.1289,28.5547 L -55.033,28.3925 L -54.927,28.2366 L -54.8115,28.0877
 L -54.6869,27.9464 L -54.5536,27.8131 L -54.4123,27.6884 L -54.2634,27.5729 L -54.1075,27.467 L -53.9453,27.3711
 L -53.7773,27.2855 L -53.6044,27.2107 L -53.427,27.1468 L -53.2461,27.0942 L -53.0621,27.0531 L -52.876,27.0237
 L -52.6884,27.0059 L -52.5,27 L -52.3116,27.0059 L -52.124,27.0237 L -51.9379,27.0531 L -51.7539,27.0942
 L -51.5729,27.1468 L -51.3956,27.2107 L -51.2227,27.2855 L -51.0547,27.3711 L -50.8925,27.467 L -50.7366,27.5729
 L -50.5877,27.6884 L -50.4464,27.8131 L -50.3131,27.9464 L -50.1885,28.0877 L -50.0729,28.2366 L -49.967,28.3925
 L -49.8711,28.5547 L -49.7855,28.7227 L -49.7107,28.8956 L -49.6468,29.0729 L -49.5942,29.2539 L -49.5531,29.4379
 L -49.5237,29.624 L -49.5059,29.8116 L -49.5,30 L -49.5059,30.1884 L -49.5237,30.376 L -49.5531,30.5621
 L -49.5942,30.7461 L -49.6468,30.927 L -49.7107,31.1044 L -49.7855,31.2773 L -49.8711,31.4453 L -49.967,31.6075
 L -50.0729,31.7634 L -50.1885,31.9123 L -50.3131,32.0536 L -50.4464,32.1869 L -50.5877,32.3115 L -50.7366,32.427
 L -50.8925,32.533 L -51.0547,32.6289 L -51.2227,32.7145 L -51.3956,32.7893 L -51.5729,32.8532 L -51.7539,32.9057
 L -51.9379,32.9469 L -52.124,32.9763 L -52.3116,32.9941 L -52.5,33 z
M -7.68837,32.9941 L -7.87599,32.9763 L -8.06213,32.9469 L -8.24606,32.9057 L -8.42705,32.8532 L -8.60437,32.7893
 L -8.77733,32.7145 L -8.94525,32.6289 L -9.10747,32.533 L -9.26335,32.427 L -9.41226,32.3115 L -9.55363,32.1869
 L -9.6869,32.0536 L -9.81154,31.9123 L -9.92705,31.7634 L -10.033,31.6075 L -10.1289,31.4453 L -10.2145,31.2773
 L -10.2893,31.1044 L -10.3532,30.927 L -10.4057,30.7461 L -10.4469,30.5621 L -10.4763,30.376 L -10.4941,30.1884
 L -10.5,30 L -10.4941,29.8116 L -10.4763,29.624 L -10.4469,29.4379 L -10.4057,29.2539 L -10.3532,29.0729
 L -10.2893,28.8956 L -10.2145,28.7227 L -10.1289,28.5547 L -10.033,28.3925 L -9.92705,28.2366 L -9.81154,28.0877
 L -9.6869,27.9464 L -9.55363,27.8131 L -9.41226,27.6884 L -9.26335,27.5729 L -9.10747,27.467 L -8.94525,27.3711
 L -8.77733,27.2855 L -8.60437,27.2107 L -8.42705,27.1468 L -8.24606,27.0942 L -8.06213,27.0531 L -7.87599,27.0237
 L -7.68837,27.0059 L -7.5,27 L -7.31161,27.0059 L -7.12399,27.0237 L -6.93785,27.0531 L -6.75392,27.0942
 L -6.57294,27.1468 L -6.39561,27.2107 L -6.22266,27.2855 L -6.05473,27.3711 L -5.89252,27.467 L -5.73663,27.5729
 L -5.58772,27.6884 L -5.44635,27.8131 L -5.31308,27.9464 L -5.18845,28.0877 L -5.07294,28.2366 L -4.96701,28.3925
 L -4.87108,28.5547 L -4.78551,28.7227 L -4.71066,28.8956 L -4.64682,29.0729 L -4.59424,29.2539 L -4.55313,29.4379
 L -4.52365,29.624 L -4.50591,29.8116 L -4.5,30 L -4.50591,30.1884 L -4.52365,30.376 L -4.55313,30.5621
 L -4.59424,30.7461 L -4.64682,30.927 L -4.71066,31.1044 L -4.78551,31.2773 L -4.87108,31.4453 L -4.96701,31.6075
 L -5.07294,31.7634 L -5.18845,31.9123 L -5.31308,32.0536 L -5.44635,32.1869 L -5.58772,32.3115 L -5.73663,32.427
 L -5.89252,32.533 L -6.05473,32.6289 L -6.22266,32.7145 L -6.39561,32.7893 L -6.57294,32.8532 L -6.75392,32.9057
 L -6.93785,32.9469 L -7.12399,32.9763 L -7.31161,32.9941 L -7.5,33 z
M 9.55363,-12.8131 L 9.41226,-12.6884 L 9.26335,-12.5729 L 9.10747,-12.467 L 8.94525,-12.3711 L 8.77733,-12.2855
 L 8.60437,-12.2107 L 8.42705,-12.1468 L 8.24606,-12.0942 L 8.06213,-12.0531 L 7.87599,-12.0237 L 7.68837,-12.0059
 L 7.5,-12 L 7.31161,-12.0059 L 7.12399,-12.0237 L 6.93785,-12.0531 L 6.75392,-12.0942 L 6.57294,-12.1468
 L 6.39561,-12.2107 L 6.22266,-12.2855 L 6.05473,-12.3711 L 5.89252,-12.467 L 5.73663,-12.5729 L 5.58772,-12.6884
 L 5.44635,-12.8131 L 5.31308,-12.9464 L 5.18845,-13.0877 L 5.07294,-13.2366 L 4.96701,-13.3925 L 4.87108,-13.5547
 L 4.78551,-13.7227 L 4.71066,-13.8956 L 4.64682,-14.0729 L 4.59424,-14.2539 L 4.55313,-14.4379 L 4.52365,-14.624
 L 4.50591,-14.8116 L 4.5,-15 L 4.50591,-15.1884 L 4.52365,-15.376 L 4.55313,-15.5621 L 4.59424,-15.7461
 L 4.64682,-15.927 L 4.71066,-16.1044 L 4.78551,-16.2773 L 4.87108,-16.4453 L 4.96701,-16.6075 L 5.07294,-16.7634
 L 5.18845,-16.9123 L 5.31308,-17.0536 L 5.44635,-17.1869 L 5.58772,-17.3115 L 5.73663,-17.427 L 5.89252,-17.533
 L 6.05473,-17.6289 L 6.22266,-17.7145 L 6.39561,-17.7893 L 6.57294,-17.8532 L 6.75392,-17.9057 L 6.93785,-17.9469
 L 7.12399,-17.9763 L 7.31161,-17.9941 L 7.5,-18 L 7.68837,-17.9941 L 7.87599,-17.9763 L 8.06213,-17.9469
 L 8.24606,-17.9057 L 8.42705,-17.8532 L 8.60437,-17.7893 L 8.77733,-17.7145 L 8.94525,-17.6289 L 9.10747,-17.533
 L 9.26335,-17.427 L 9.41226,-17.3115 L 9.55363,-17.1869 L 9.6869,-17.0536 L 9.81154,-16.9123 L 9.92705,-16.7634
 L 10.033,-16.6075 L 10.1289,-16.4453 L 10.2145,-16.2773 L 10.2893,-16.1044 L 10.3532,-15.927 L 10.4057,-15.7461
 L 10.4469,-15.5621 L 10.4763,-15.376 L 10.4941,-15.1884 L 10.5,-15 L 10.4941,-14.8116 L 10.4763,-14.624
 L 10.4469,-14.4379 L 10.4057,-14.2539 L 10.3532,-14.0729 L 10.2893,-13.8956 L 10.2145,-13.7227 L 10.1289,-13.5547
 L 10.033,-13.3925 L 9.92705,-13.2366 L 9.81154,-13.0877 L 9.6869,-12.9464 z
M -50.4464,2.1869 L -50.5877,2.31154 L -50.7366,2.42705 L -50.8925,2.53297 L -51.0547,2.62891 L -51.2227,2.71448
 L -51.3956,2.78932 L -51.5729,2.85316 L -51.7539,2.90575 L -51.9379,2.94685 L -52.124,2.97633 L -52.3116,2.99408
 L -52.5,3 L -52.6884,2.99408 L -52.876,2.97633 L -53.0621,2.94685 L -53.2461,2.90575 L -53.427,2.85316
 L -53.6044,2.78932 L -53.7773,2.71448 L -53.9453,2.62891 L -54.1075,2.53297 L -54.2634,2.42705 L -54.4123,2.31154
 L -54.5536,2.1869 L -54.6869,2.05363 L -54.8115,1.91226 L -54.927,1.76335 L -55.033,1.60747 L -55.1289,1.44525
 L -55.2145,1.27733 L -55.2893,1.10437 L -55.3532,0.927048 L -55.4057,0.746063 L -55.4469,0.562134 L -55.4763,0.375992
 L -55.4941,0.18837 L -55.5,-0 L -55.4941,-0.18837 L -55.4763,-0.375992 L -55.4469,-0.562134 L -55.4057,-0.746063
 L -55.3532,-0.927048 L -55.2893,-1.10437 L -55.2145,-1.27733 L -55.1289,-1.44525 L -55.033,-1.60747 L -54.927,-1.76335
 L -54.8115,-1.91226 L -54.6869,-2.05363 L -54.5536,-2.1869 L -54.4123,-2.31154 L -54.2634,-2.42705 L -54.1075,-2.53297
 L -53.9453,-2.62891 L -53.7773,-2.71448 L -53.6044,-2.78932 L -53.427,-2.85316 L -53.2461,-2.90575 L -53.0621,-2.94685
 L -52.876,-2.97633 L -52.6884,-2.99408 L -52.5,-3 L -52.3116,-2.99408 L -52.124,-2.97633 L -51.9379,-2.94685
 L -51.7539,-2.90575 L -51.5729,-2.85316 L -51.3956,-2.78932 L -51.2227,-2.71448 L -51.0547,-2.62891 L -50.8925,-2.53297
 L -50.7366,-2.42705 L -50.5877,-2.31154 L -50.4464,-2.1869 L -50.3131,-2.05363 L -50.1885,-1.91226 L -50.0729,-1.76335
 L -49.967,-1.60747 L -49.8711,-1.44525 L -49.7855,-1.27733 L -49.7107,-1.10437 L -49.6468,-0.927048 L -49.5942,-0.746063
 L -49.5531,-0.562134 L -49.5237,-0.375992 L -49.5059,-0.18837 L -49.5,-0 L -49.5059,0.18837 L -49.5237,0.375992
 L -49.5531,0.562134 L -49.5942,0.746063 L -49.6468,0.927048 L -49.7107,1.10437 L -49.7855,1.27733 L -49.8711,1.44525
 L -49.967,1.60747 L -50.0729,1.76335 L -50.1885,1.91226 L -50.3131,2.05363 z
" stroke="black" fill="lightgray" stroke-width="0.5"/>
</svg>
