  0
SECTION
  2
BLOCKS
  0
ENDSEC
  0
SECTION
  2
ENTITIES
  0
LINE
  8
0
 10
16.6576
 20
-20.9622
 11
17.2991
 21
-20.8346
  0
LINE
  8
0
 10
17.2991
 20
-20.8346
 11
17.9184
 21
-20.6244
  0
LINE
  8
0
 10
17.9184
 20
-20.6244
 11
18.505
 21
-20.3351
  0
LINE
  8
0
 10
18.505
 20
-20.3351
 11
19.0488
 21
-19.9718
  0
LINE
  8
0
 10
19.0488
 20
-19.9718
 11
19.5405
 21
-19.5405
  0
LINE
  8
0
 10
19.5405
 20
-19.5405
 11
19.9718
 21
-19.0488
  0
LINE
  8
0
 10
19.9718
 20
-19.0488
 11
20.3351
 21
-18.505
  0
LINE
  8
0
 10
20.3351
 20
-18.505
 11
20.6244
 21
-17.9184
  0
LINE
  8
0
 10
20.6244
 20
-17.9184
 11
20.8346
 21
-17.2991
  0
LINE
  8
0
 10
20.8346
 20
-17.2991
 11
20.9622
 21
-16.6576
  0
LINE
  8
0
 10
20.9622
 20
-16.6576
 11
21.005
 21
-16.005
  0
LINE
  8
0
 10
21.005
 20
-16.005
 11
21.005
 21
16.005
  0
LINE
  8
0
 10
21.005
 20
16.005
 11
20.9622
 21
16.6576
  0
LINE
  8
0
 10
20.9622
 20
16.6576
 11
20.8346
 21
17.2991
  0
LINE
  8
0
 10
20.8346
 20
17.2991
 11
20.6244
 21
17.9184
  0
LINE
  8
0
 10
20.6244
 20
17.9184
 11
20.3351
 21
18.505
  0
LINE
  8
0
 10
20.3351
 20
18.505
 11
19.9718
 21
19.0488
  0
LINE
  8
0
 10
19.9718
 20
19.0488
 11
19.5405
 21
19.5405
  0
LINE
  8
0
 10
19.5405
 20
19.5405
 11
19.0488
 21
19.9718
  0
LINE
  8
0
 10
19.0488
 20
19.9718
 11
18.505
 21
20.3351
  0
LINE
  8
0
 10
18.505
 20
20.3351
 11
17.9184
 21
20.6244
  0
LINE
  8
0
 10
17.9184
 20
20.6244
 11
17.2991
 21
20.8346
  0
LINE
  8
0
 10
17.2991
 20
20.8346
 11
16.6576
 21
20.9622
  0
LINE
  8
0
 10
16.6576
 20
20.9622
 11
16.005
 21
21.005
  0
LINE
  8
0
 10
16.005
 20
21.005
 11
-16.005
 21
21.005
  0
LINE
  8
0
 10
-16.005
 20
21.005
 11
-16.6576
 21
20.9622
  0
LINE
  8
0
 10
-16.6576
 20
20.9622
 11
-17.2991
 21
20.8346
  0
LINE
  8
0
 10
-17.2991
 20
20.8346
 11
-17.9184
 21
20.6244
  0
LINE
  8
0
 10
-17.9184
 20
20.6244
 11
-18.505
 21
20.3351
  0
LINE
  8
0
 10
-18.505
 20
20.3351
 11
-19.0488
 21
19.9718
  0
LINE
  8
0
 10
-19.0488
 20
19.9718
 11
-19.5405
 21
19.5405
  0
LINE
  8
0
 10
-19.5405
 20
19.5405
 11
-19.9718
 21
19.0488
  0
LINE
  8
0
 10
-19.9718
 20
19.0488
 11
-20.3351
 21
18.505
  0
LINE
  8
0
 10
-20.3351
 20
18.505
 11
-20.6244
 21
17.9184
  0
LINE
  8
0
 10
-20.6244
 20
17.9184
 11
-20.8346
 21
17.2991
  0
LINE
  8
0
 10
-20.8346
 20
17.2991
 11
-20.9622
 21
16.6576
  0
LINE
  8
0
 10
-20.9622
 20
16.6576
 11
-21.005
 21
16.005
  0
LINE
  8
0
 10
-21.005
 20
16.005
 11
-21.005
 21
-16.005
  0
LINE
  8
0
 10
-21.005
 20
-16.005
 11
-20.9622
 21
-16.6576
  0
LINE
  8
0
 10
-20.9622
 20
-16.6576
 11
-20.8346
 21
-17.2991
  0
LINE
  8
0
 10
-20.8346
 20
-17.2991
 11
-20.6244
 21
-17.9184
  0
LINE
  8
0
 10
-20.6244
 20
-17.9184
 11
-20.3351
 21
-18.505
  0
LINE
  8
0
 10
-20.3351
 20
-18.505
 11
-19.9718
 21
-19.0488
  0
LINE
  8
0
 10
-19.9718
 20
-19.0488
 11
-19.5405
 21
-19.5405
  0
LINE
  8
0
 10
-19.5405
 20
-19.5405
 11
-19.0488
 21
-19.9718
  0
LINE
  8
0
 10
-19.0488
 20
-19.9718
 11
-18.505
 21
-20.3351
  0
LINE
  8
0
 10
-18.505
 20
-20.3351
 11
-17.9184
 21
-20.6244
  0
LINE
  8
0
 10
-17.9184
 20
-20.6244
 11
-17.2991
 21
-20.8346
  0
LINE
  8
0
 10
-17.2991
 20
-20.8346
 11
-16.6576
 21
-20.9622
  0
LINE
  8
0
 10
-16.6576
 20
-20.9622
 11
-16.005
 21
-21.005
  0
LINE
  8
0
 10
-16.005
 20
-21.005
 11
16.005
 21
-21.005
  0
LINE
  8
0
 10
16.005
 20
-21.005
 11
16.6576
 21
-20.9622
  0
LINE
  8
0
 10
-15.4242
 20
11.7778
 11
-15.8412
 21
11.8607
  0
LINE
  8
0
 10
-15.8412
 20
11.8607
 11
-16.2437
 21
11.9974
  0
LINE
  8
0
 10
-16.2437
 20
11.9974
 11
-16.625
 21
12.1854
  0
LINE
  8
0
 10
-16.625
 20
12.1854
 11
-16.9785
 21
12.4216
  0
LINE
  8
0
 10
-16.9785
 20
12.4216
 11
-17.2981
 21
12.7019
  0
LINE
  8
0
 10
-17.2981
 20
12.7019
 11
-17.5784
 21
13.0215
  0
LINE
  8
0
 10
-17.5784
 20
13.0215
 11
-17.8146
 21
13.375
  0
LINE
  8
0
 10
-17.8146
 20
13.375
 11
-18.0026
 21
13.7563
  0
LINE
  8
0
 10
-18.0026
 20
13.7563
 11
-18.1393
 21
14.1588
  0
LINE
  8
0
 10
-18.1393
 20
14.1588
 11
-18.2222
 21
14.5758
  0
LINE
  8
0
 10
-18.2222
 20
14.5758
 11
-18.25
 21
15
  0
LINE
  8
0
 10
-18.25
 20
15
 11
-18.2222
 21
15.4242
  0
LINE
  8
0
 10
-18.2222
 20
15.4242
 11
-18.1393
 21
15.8412
  0
LINE
  8
0
 10
-18.1393
 20
15.8412
 11
-18.0026
 21
16.2437
  0
LINE
  8
0
 10
-18.0026
 20
16.2437
 11
-17.8146
 21
16.625
  0
LINE
  8
0
 10
-17.8146
 20
16.625
 11
-17.5784
 21
16.9785
  0
LINE
  8
0
 10
-17.5784
 20
16.9785
 11
-17.2981
 21
17.2981
  0
LINE
  8
0
 10
-17.2981
 20
17.2981
 11
-16.9785
 21
17.5784
  0
LINE
  8
0
 10
-16.9785
 20
17.5784
 11
-16.625
 21
17.8146
  0
LINE
  8
0
 10
-16.625
 20
17.8146
 11
-16.2437
 21
18.0026
  0
LINE
  8
0
 10
-16.2437
 20
18.0026
 11
-15.8412
 21
18.1393
  0
LINE
  8
0
 10
-15.8412
 20
18.1393
 11
-15.4242
 21
18.2222
  0
LINE
  8
0
 10
-15.4242
 20
18.2222
 11
-15
 21
18.25
  0
LINE
  8
0
 10
-15
 20
18.25
 11
-14.5758
 21
18.2222
  0
LINE
  8
0
 10
-14.5758
 20
18.2222
 11
-14.1588
 21
18.1393
  0
LINE
  8
0
 10
-14.1588
 20
18.1393
 11
-13.7563
 21
18.0026
  0
LINE
  8
0
 10
-13.7563
 20
18.0026
 11
-13.375
 21
17.8146
  0
LINE
  8
0
 10
-13.375
 20
17.8146
 11
-13.0215
 21
17.5784
  0
LINE
  8
0
 10
-13.0215
 20
17.5784
 11
-12.7019
 21
17.2981
  0
LINE
  8
0
 10
-12.7019
 20
17.2981
 11
-12.4216
 21
16.9785
  0
LINE
  8
0
 10
-12.4216
 20
16.9785
 11
-12.1854
 21
16.625
  0
LINE
  8
0
 10
-12.1854
 20
16.625
 11
-11.9974
 21
16.2437
  0
LINE
  8
0
 10
-11.9974
 20
16.2437
 11
-11.8607
 21
15.8412
  0
LINE
  8
0
 10
-11.8607
 20
15.8412
 11
-11.7778
 21
15.4242
  0
LINE
  8
0
 10
-11.7778
 20
15.4242
 11
-11.75
 21
15
  0
LINE
  8
0
 10
-11.75
 20
15
 11
-11.7778
 21
14.5758
  0
LINE
  8
0
 10
-11.7778
 20
14.5758
 11
-11.8607
 21
14.1588
  0
LINE
  8
0
 10
-11.8607
 20
14.1588
 11
-11.9974
 21
13.7563
  0
LINE
  8
0
 10
-11.9974
 20
13.7563
 11
-12.1854
 21
13.375
  0
LINE
  8
0
 10
-12.1854
 20
13.375
 11
-12.4216
 21
13.0215
  0
LINE
  8
0
 10
-12.4216
 20
13.0215
 11
-12.7019
 21
12.7019
  0
LINE
  8
0
 10
-12.7019
 20
12.7019
 11
-13.0215
 21
12.4216
  0
LINE
  8
0
 10
-13.0215
 20
12.4216
 11
-13.375
 21
12.1854
  0
LINE
  8
0
 10
-13.375
 20
12.1854
 11
-13.7563
 21
11.9974
  0
LINE
  8
0
 10
-13.7563
 20
11.9974
 11
-14.1588
 21
11.8607
  0
LINE
  8
0
 10
-14.1588
 20
11.8607
 11
-14.5758
 21
11.7778
  0
LINE
  8
0
 10
-14.5758
 20
11.7778
 11
-15
 21
11.75
  0
LINE
  8
0
 10
-15
 20
11.75
 11
-15.4242
 21
11.7778
  0
LINE
  8
0
 10
14.5758
 20
11.7778
 11
14.1588
 21
11.8607
  0
LINE
  8
0
 10
14.1588
 20
11.8607
 11
13.7563
 21
11.9974
  0
LINE
  8
0
 10
13.7563
 20
11.9974
 11
13.375
 21
12.1854
  0
LINE
  8
0
 10
13.375
 20
12.1854
 11
13.0215
 21
12.4216
  0
LINE
  8
0
 10
13.0215
 20
12.4216
 11
12.7019
 21
12.7019
  0
LINE
  8
0
 10
12.7019
 20
12.7019
 11
12.4216
 21
13.0215
  0
LINE
  8
0
 10
12.4216
 20
13.0215
 11
12.1854
 21
13.375
  0
LINE
  8
0
 10
12.1854
 20
13.375
 11
11.9974
 21
13.7563
  0
LINE
  8
0
 10
11.9974
 20
13.7563
 11
11.8607
 21
14.1588
  0
LINE
  8
0
 10
11.8607
 20
14.1588
 11
11.7778
 21
14.5758
  0
LINE
  8
0
 10
11.7778
 20
14.5758
 11
11.75
 21
15
  0
LINE
  8
0
 10
11.75
 20
15
 11
11.7778
 21
15.4242
  0
LINE
  8
0
 10
11.7778
 20
15.4242
 11
11.8607
 21
15.8412
  0
LINE
  8
0
 10
11.8607
 20
15.8412
 11
11.9974
 21
16.2437
  0
LINE
  8
0
 10
11.9974
 20
16.2437
 11
12.1854
 21
16.625
  0
LINE
  8
0
 10
12.1854
 20
16.625
 11
12.4216
 21
16.9785
  0
LINE
  8
0
 10
12.4216
 20
16.9785
 11
12.7019
 21
17.2981
  0
LINE
  8
0
 10
12.7019
 20
17.2981
 11
13.0215
 21
17.5784
  0
LINE
  8
0
 10
13.0215
 20
17.5784
 11
13.375
 21
17.8146
  0
LINE
  8
0
 10
13.375
 20
17.8146
 11
13.7563
 21
18.0026
  0
LINE
  8
0
 10
13.7563
 20
18.0026
 11
14.1588
 21
18.1393
  0
LINE
  8
0
 10
14.1588
 20
18.1393
 11
14.5758
 21
18.2222
  0
LINE
  8
0
 10
14.5758
 20
18.2222
 11
15
 21
18.25
  0
LINE
  8
0
 10
15
 20
18.25
 11
15.4242
 21
18.2222
  0
LINE
  8
0
 10
15.4242
 20
18.2222
 11
15.8412
 21
18.1393
  0
LINE
  8
0
 10
15.8412
 20
18.1393
 11
16.2437
 21
18.0026
  0
LINE
  8
0
 10
16.2437
 20
18.0026
 11
16.625
 21
17.8146
  0
LINE
  8
0
 10
16.625
 20
17.8146
 11
16.9785
 21
17.5784
  0
LINE
  8
0
 10
16.9785
 20
17.5784
 11
17.2981
 21
17.2981
  0
LINE
  8
0
 10
17.2981
 20
17.2981
 11
17.5784
 21
16.9785
  0
LINE
  8
0
 10
17.5784
 20
16.9785
 11
17.8146
 21
16.625
  0
LINE
  8
0
 10
17.8146
 20
16.625
 11
18.0026
 21
16.2437
  0
LINE
  8
0
 10
18.0026
 20
16.2437
 11
18.1393
 21
15.8412
  0
LINE
  8
0
 10
18.1393
 20
15.8412
 11
18.2222
 21
15.4242
  0
LINE
  8
0
 10
18.2222
 20
15.4242
 11
18.25
 21
15
  0
LINE
  8
0
 10
18.25
 20
15
 11
18.2222
 21
14.5758
  0
LINE
  8
0
 10
18.2222
 20
14.5758
 11
18.1393
 21
14.1588
  0
LINE
  8
0
 10
18.1393
 20
14.1588
 11
18.0026
 21
13.7563
  0
LINE
  8
0
 10
18.0026
 20
13.7563
 11
17.8146
 21
13.375
  0
LINE
  8
0
 10
17.8146
 20
13.375
 11
17.5784
 21
13.0215
  0
LINE
  8
0
 10
17.5784
 20
13.0215
 11
17.2981
 21
12.7019
  0
LINE
  8
0
 10
17.2981
 20
12.7019
 11
16.9785
 21
12.4216
  0
LINE
  8
0
 10
16.9785
 20
12.4216
 11
16.625
 21
12.1854
  0
LINE
  8
0
 10
16.625
 20
12.1854
 11
16.2437
 21
11.9974
  0
LINE
  8
0
 10
16.2437
 20
11.9974
 11
15.8412
 21
11.8607
  0
LINE
  8
0
 10
15.8412
 20
11.8607
 11
15.4242
 21
11.7778
  0
LINE
  8
0
 10
15.4242
 20
11.7778
 11
15
 21
11.75
  0
LINE
  8
0
 10
15
 20
11.75
 11
14.5758
 21
11.7778
  0
LINE
  8
0
 10
-0.42421
 20
11.7778
 11
-0.841156
 21
11.8607
  0
LINE
  8
0
 10
-0.841156
 20
11.8607
 11
-1.24371
 21
11.9974
  0
LINE
  8
0
 10
-1.24371
 20
11.9974
 11
-1.625
 21
12.1854
  0
LINE
  8
0
 10
-1.625
 20
12.1854
 11
-1.97847
 21
12.4216
  0
LINE
  8
0
 10
-1.97847
 20
12.4216
 11
-2.2981
 21
12.7019
  0
LINE
  8
0
 10
-2.2981
 20
12.7019
 11
-2.57838
 21
13.0215
  0
LINE
  8
0
 10
-2.57838
 20
13.0215
 11
-2.81458
 21
13.375
  0
LINE
  8
0
 10
-2.81458
 20
13.375
 11
-3.00259
 21
13.7563
  0
LINE
  8
0
 10
-3.00259
 20
13.7563
 11
-3.13925
 21
14.1588
  0
LINE
  8
0
 10
-3.13925
 20
14.1588
 11
-3.22218
 21
14.5758
  0
LINE
  8
0
 10
-3.22218
 20
14.5758
 11
-3.25
 21
15
  0
LINE
  8
0
 10
-3.25
 20
15
 11
-3.22218
 21
15.4242
  0
LINE
  8
0
 10
-3.22218
 20
15.4242
 11
-3.13925
 21
15.8412
  0
LINE
  8
0
 10
-3.13925
 20
15.8412
 11
-3.00259
 21
16.2437
  0
LINE
  8
0
 10
-3.00259
 20
16.2437
 11
-2.81458
 21
16.625
  0
LINE
  8
0
 10
-2.81458
 20
16.625
 11
-2.57838
 21
16.9785
  0
LINE
  8
0
 10
-2.57838
 20
16.9785
 11
-2.2981
 21
17.2981
  0
LINE
  8
0
 10
-2.2981
 20
17.2981
 11
-1.97847
 21
17.5784
  0
LINE
  8
0
 10
-1.97847
 20
17.5784
 11
-1.625
 21
17.8146
  0
LINE
  8
0
 10
-1.625
 20
17.8146
 11
-1.24371
 21
18.0026
  0
LINE
  8
0
 10
-1.24371
 20
18.0026
 11
-0.841156
 21
18.1393
  0
LINE
  8
0
 10
-0.841156
 20
18.1393
 11
-0.42421
 21
18.2222
  0
LINE
  8
0
 10
-0.42421
 20
18.2222
 11
0
 21
18.25
  0
LINE
  8
0
 10
0
 20
18.25
 11
0.42421
 21
18.2222
  0
LINE
  8
0
 10
0.42421
 20
18.2222
 11
0.841156
 21
18.1393
  0
LINE
  8
0
 10
0.841156
 20
18.1393
 11
1.24371
 21
18.0026
  0
LINE
  8
0
 10
1.24371
 20
18.0026
 11
1.625
 21
17.8146
  0
LINE
  8
0
 10
1.625
 20
17.8146
 11
1.97847
 21
17.5784
  0
LINE
  8
0
 10
1.97847
 20
17.5784
 11
2.2981
 21
17.2981
  0
LINE
  8
0
 10
2.2981
 20
17.2981
 11
2.57838
 21
16.9785
  0
LINE
  8
0
 10
2.57838
 20
16.9785
 11
2.81458
 21
16.625
  0
LINE
  8
0
 10
2.81458
 20
16.625
 11
3.00259
 21
16.2437
  0
LINE
  8
0
 10
3.00259
 20
16.2437
 11
3.13925
 21
15.8412
  0
LINE
  8
0
 10
3.13925
 20
15.8412
 11
3.22218
 21
15.4242
  0
LINE
  8
0
 10
3.22218
 20
15.4242
 11
3.25
 21
15
  0
LINE
  8
0
 10
3.25
 20
15
 11
3.22218
 21
14.5758
  0
LINE
  8
0
 10
3.22218
 20
14.5758
 11
3.13925
 21
14.1588
  0
LINE
  8
0
 10
3.13925
 20
14.1588
 11
3.00259
 21
13.7563
  0
LINE
  8
0
 10
3.00259
 20
13.7563
 11
2.81458
 21
13.375
  0
LINE
  8
0
 10
2.81458
 20
13.375
 11
2.57838
 21
13.0215
  0
LINE
  8
0
 10
2.57838
 20
13.0215
 11
2.2981
 21
12.7019
  0
LINE
  8
0
 10
2.2981
 20
12.7019
 11
1.97847
 21
12.4216
  0
LINE
  8
0
 10
1.97847
 20
12.4216
 11
1.625
 21
12.1854
  0
LINE
  8
0
 10
1.625
 20
12.1854
 11
1.24371
 21
11.9974
  0
LINE
  8
0
 10
1.24371
 20
11.9974
 11
0.841156
 21
11.8607
  0
LINE
  8
0
 10
0.841156
 20
11.8607
 11
0.42421
 21
11.7778
  0
LINE
  8
0
 10
0.42421
 20
11.7778
 11
0
 21
11.75
  0
LINE
  8
0
 10
0
 20
11.75
 11
-0.42421
 21
11.7778
  0
LINE
  8
0
 10
-0.42421
 20
-3.22218
 11
-0.841156
 21
-3.13925
  0
LINE
  8
0
 10
-0.841156
 20
-3.13925
 11
-1.24371
 21
-3.00259
  0
LINE
  8
0
 10
-1.24371
 20
-3.00259
 11
-1.625
 21
-2.81458
  0
LINE
  8
0
 10
-1.625
 20
-2.81458
 11
-1.97847
 21
-2.57838
  0
LINE
  8
0
 10
-1.97847
 20
-2.57838
 11
-2.2981
 21
-2.2981
  0
LINE
  8
0
 10
-2.2981
 20
-2.2981
 11
-2.57838
 21
-1.97847
  0
LINE
  8
0
 10
-2.57838
 20
-1.97847
 11
-2.81458
 21
-1.625
  0
LINE
  8
0
 10
-2.81458
 20
-1.625
 11
-3.00259
 21
-1.24371
  0
LINE
  8
0
 10
-3.00259
 20
-1.24371
 11
-3.13925
 21
-0.841156
  0
LINE
  8
0
 10
-3.13925
 20
-0.841156
 11
-3.22218
 21
-0.42421
  0
LINE
  8
0
 10
-3.22218
 20
-0.42421
 11
-3.25
 21
0
  0
LINE
  8
0
 10
-3.25
 20
0
 11
-3.22218
 21
0.42421
  0
LINE
  8
0
 10
-3.22218
 20
0.42421
 11
-3.13925
 21
0.841156
  0
LINE
  8
0
 10
-3.13925
 20
0.841156
 11
-3.00259
 21
1.24371
  0
LINE
  8
0
 10
-3.00259
 20
1.24371
 11
-2.81458
 21
1.625
  0
LINE
  8
0
 10
-2.81458
 20
1.625
 11
-2.57838
 21
1.97847
  0
LINE
  8
0
 10
-2.57838
 20
1.97847
 11
-2.2981
 21
2.2981
  0
LINE
  8
0
 10
-2.2981
 20
2.2981
 11
-1.97847
 21
2.57838
  0
LINE
  8
0
 10
-1.97847
 20
2.57838
 11
-1.625
 21
2.81458
  0
LINE
  8
0
 10
-1.625
 20
2.81458
 11
-1.24371
 21
3.00259
  0
LINE
  8
0
 10
-1.24371
 20
3.00259
 11
-0.841156
 21
3.13925
  0
LINE
  8
0
 10
-0.841156
 20
3.13925
 11
-0.42421
 21
3.22218
  0
LINE
  8
0
 10
-0.42421
 20
3.22218
 11
0
 21
3.25
  0
LINE
  8
0
 10
0
 20
3.25
 11
0.42421
 21
3.22218
  0
LINE
  8
0
 10
0.42421
 20
3.22218
 11
0.841156
 21
3.13925
  0
LINE
  8
0
 10
0.841156
 20
3.13925
 11
1.24371
 21
3.00259
  0
LINE
  8
0
 10
1.24371
 20
3.00259
 11
1.625
 21
2.81458
  0
LINE
  8
0
 10
1.625
 20
2.81458
 11
1.97847
 21
2.57838
  0
LINE
  8
0
 10
1.97847
 20
2.57838
 11
2.2981
 21
2.2981
  0
LINE
  8
0
 10
2.2981
 20
2.2981
 11
2.57838
 21
1.97847
  0
LINE
  8
0
 10
2.57838
 20
1.97847
 11
2.81458
 21
1.625
  0
LINE
  8
0
 10
2.81458
 20
1.625
 11
3.00259
 21
1.24371
  0
LINE
  8
0
 10
3.00259
 20
1.24371
 11
3.13925
 21
0.841156
  0
LINE
  8
0
 10
3.13925
 20
0.841156
 11
3.22218
 21
0.42421
  0
LINE
  8
0
 10
3.22218
 20
0.42421
 11
3.25
 21
0
  0
LINE
  8
0
 10
3.25
 20
0
 11
3.22218
 21
-0.42421
  0
LINE
  8
0
 10
3.22218
 20
-0.42421
 11
3.13925
 21
-0.841156
  0
LINE
  8
0
 10
3.13925
 20
-0.841156
 11
3.00259
 21
-1.24371
  0
LINE
  8
0
 10
3.00259
 20
-1.24371
 11
2.81458
 21
-1.625
  0
LINE
  8
0
 10
2.81458
 20
-1.625
 11
2.57838
 21
-1.97847
  0
LINE
  8
0
 10
2.57838
 20
-1.97847
 11
2.2981
 21
-2.2981
  0
LINE
  8
0
 10
2.2981
 20
-2.2981
 11
1.97847
 21
-2.57838
  0
LINE
  8
0
 10
1.97847
 20
-2.57838
 11
1.625
 21
-2.81458
  0
LINE
  8
0
 10
1.625
 20
-2.81458
 11
1.24371
 21
-3.00259
  0
LINE
  8
0
 10
1.24371
 20
-3.00259
 11
0.841156
 21
-3.13925
  0
LINE
  8
0
 10
0.841156
 20
-3.13925
 11
0.42421
 21
-3.22218
  0
LINE
  8
0
 10
0.42421
 20
-3.22218
 11
0
 21
-3.25
  0
LINE
  8
0
 10
0
 20
-3.25
 11
-0.42421
 21
-3.22218
  0
LINE
  8
0
 10
-15.4242
 20
-3.22218
 11
-15.8412
 21
-3.13925
  0
LINE
  8
0
 10
-15.8412
 20
-3.13925
 11
-16.2437
 21
-3.00259
  0
LINE
  8
0
 10
-16.2437
 20
-3.00259
 11
-16.625
 21
-2.81458
  0
LINE
  8
0
 10
-16.625
 20
-2.81458
 11
-16.9785
 21
-2.57838
  0
LINE
  8
0
 10
-16.9785
 20
-2.57838
 11
-17.2981
 21
-2.2981
  0
LINE
  8
0
 10
-17.2981
 20
-2.2981
 11
-17.5784
 21
-1.97847
  0
LINE
  8
0
 10
-17.5784
 20
-1.97847
 11
-17.8146
 21
-1.625
  0
LINE
  8
0
 10
-17.8146
 20
-1.625
 11
-18.0026
 21
-1.24371
  0
LINE
  8
0
 10
-18.0026
 20
-1.24371
 11
-18.1393
 21
-0.841156
  0
LINE
  8
0
 10
-18.1393
 20
-0.841156
 11
-18.2222
 21
-0.42421
  0
LINE
  8
0
 10
-18.2222
 20
-0.42421
 11
-18.25
 21
0
  0
LINE
  8
0
 10
-18.25
 20
0
 11
-18.2222
 21
0.42421
  0
LINE
  8
0
 10
-18.2222
 20
0.42421
 11
-18.1393
 21
0.841156
  0
LINE
  8
0
 10
-18.1393
 20
0.841156
 11
-18.0026
 21
1.24371
  0
LINE
  8
0
 10
-18.0026
 20
1.24371
 11
-17.8146
 21
1.625
  0
LINE
  8
0
 10
-17.8146
 20
1.625
 11
-17.5784
 21
1.97847
  0
LINE
  8
0
 10
-17.5784
 20
1.97847
 11
-17.2981
 21
2.2981
  0
LINE
  8
0
 10
-17.2981
 20
2.2981
 11
-16.9785
 21
2.57838
  0
LINE
  8
0
 10
-16.9785
 20
2.57838
 11
-16.625
 21
2.81458
  0
LINE
  8
0
 10
-16.625
 20
2.81458
 11
-16.2437
 21
3.00259
  0
LINE
  8
0
 10
-16.2437
 20
3.00259
 11
-15.8412
 21
3.13925
  0
LINE
  8
0
 10
-15.8412
 20
3.13925
 11
-15.4242
 21
3.22218
  0
LINE
  8
0
 10
-15.4242
 20
3.22218
 11
-15
 21
3.25
  0
LINE
  8
0
 10
-15
 20
3.25
 11
-14.5758
 21
3.22218
  0
LINE
  8
0
 10
-14.5758
 20
3.22218
 11
-14.1588
 21
3.13925
  0
LINE
  8
0
 10
-14.1588
 20
3.13925
 11
-13.7563
 21
3.00259
  0
LINE
  8
0
 10
-13.7563
 20
3.00259
 11
-13.375
 21
2.81458
  0
LINE
  8
0
 10
-13.375
 20
2.81458
 11
-13.0215
 21
2.57838
  0
LINE
  8
0
 10
-13.0215
 20
2.57838
 11
-12.7019
 21
2.2981
  0
LINE
  8
0
 10
-12.7019
 20
2.2981
 11
-12.4216
 21
1.97847
  0
LINE
  8
0
 10
-12.4216
 20
1.97847
 11
-12.1854
 21
1.625
  0
LINE
  8
0
 10
-12.1854
 20
1.625
 11
-11.9974
 21
1.24371
  0
LINE
  8
0
 10
-11.9974
 20
1.24371
 11
-11.8607
 21
0.841156
  0
LINE
  8
0
 10
-11.8607
 20
0.841156
 11
-11.7778
 21
0.42421
  0
LINE
  8
0
 10
-11.7778
 20
0.42421
 11
-11.75
 21
0
  0
LINE
  8
0
 10
-11.75
 20
0
 11
-11.7778
 21
-0.42421
  0
LINE
  8
0
 10
-11.7778
 20
-0.42421
 11
-11.8607
 21
-0.841156
  0
LINE
  8
0
 10
-11.8607
 20
-0.841156
 11
-11.9974
 21
-1.24371
  0
LINE
  8
0
 10
-11.9974
 20
-1.24371
 11
-12.1854
 21
-1.625
  0
LINE
  8
0
 10
-12.1854
 20
-1.625
 11
-12.4216
 21
-1.97847
  0
LINE
  8
0
 10
-12.4216
 20
-1.97847
 11
-12.7019
 21
-2.2981
  0
LINE
  8
0
 10
-12.7019
 20
-2.2981
 11
-13.0215
 21
-2.57838
  0
LINE
  8
0
 10
-13.0215
 20
-2.57838
 11
-13.375
 21
-2.81458
  0
LINE
  8
0
 10
-13.375
 20
-2.81458
 11
-13.7563
 21
-3.00259
  0
LINE
  8
0
 10
-13.7563
 20
-3.00259
 11
-14.1588
 21
-3.13925
  0
LINE
  8
0
 10
-14.1588
 20
-3.13925
 11
-14.5758
 21
-3.22218
  0
LINE
  8
0
 10
-14.5758
 20
-3.22218
 11
-15
 21
-3.25
  0
LINE
  8
0
 10
-15
 20
-3.25
 11
-15.4242
 21
-3.22218
  0
LINE
  8
0
 10
14.5758
 20
-3.22218
 11
14.1588
 21
-3.13925
  0
LINE
  8
0
 10
14.1588
 20
-3.13925
 11
13.7563
 21
-3.00259
  0
LINE
  8
0
 10
13.7563
 20
-3.00259
 11
13.375
 21
-2.81458
  0
LINE
  8
0
 10
13.375
 20
-2.81458
 11
13.0215
 21
-2.57838
  0
LINE
  8
0
 10
13.0215
 20
-2.57838
 11
12.7019
 21
-2.2981
  0
LINE
  8
0
 10
12.7019
 20
-2.2981
 11
12.4216
 21
-1.97847
  0
LINE
  8
0
 10
12.4216
 20
-1.97847
 11
12.1854
 21
-1.625
  0
LINE
  8
0
 10
12.1854
 20
-1.625
 11
11.9974
 21
-1.24371
  0
LINE
  8
0
 10
11.9974
 20
-1.24371
 11
11.8607
 21
-0.841156
  0
LINE
  8
0
 10
11.8607
 20
-0.841156
 11
11.7778
 21
-0.42421
  0
LINE
  8
0
 10
11.7778
 20
-0.42421
 11
11.75
 21
0
  0
LINE
  8
0
 10
11.75
 20
0
 11
11.7778
 21
0.42421
  0
LINE
  8
0
 10
11.7778
 20
0.42421
 11
11.8607
 21
0.841156
  0
LINE
  8
0
 10
11.8607
 20
0.841156
 11
11.9974
 21
1.24371
  0
LINE
  8
0
 10
11.9974
 20
1.24371
 11
12.1854
 21
1.625
  0
LINE
  8
0
 10
12.1854
 20
1.625
 11
12.4216
 21
1.97847
  0
LINE
  8
0
 10
12.4216
 20
1.97847
 11
12.7019
 21
2.2981
  0
LINE
  8
0
 10
12.7019
 20
2.2981
 11
13.0215
 21
2.57838
  0
LINE
  8
0
 10
13.0215
 20
2.57838
 11
13.375
 21
2.81458
  0
LINE
  8
0
 10
13.375
 20
2.81458
 11
13.7563
 21
3.00259
  0
LINE
  8
0
 10
13.7563
 20
3.00259
 11
14.1588
 21
3.13925
  0
LINE
  8
0
 10
14.1588
 20
3.13925
 11
14.5758
 21
3.22218
  0
LINE
  8
0
 10
14.5758
 20
3.22218
 11
15
 21
3.25
  0
LINE
  8
0
 10
15
 20
3.25
 11
15.4242
 21
3.22218
  0
LINE
  8
0
 10
15.4242
 20
3.22218
 11
15.8412
 21
3.13925
  0
LINE
  8
0
 10
15.8412
 20
3.13925
 11
16.2437
 21
3.00259
  0
LINE
  8
0
 10
16.2437
 20
3.00259
 11
16.625
 21
2.81458
  0
LINE
  8
0
 10
16.625
 20
2.81458
 11
16.9785
 21
2.57838
  0
LINE
  8
0
 10
16.9785
 20
2.57838
 11
17.2981
 21
2.2981
  0
LINE
  8
0
 10
17.2981
 20
2.2981
 11
17.5784
 21
1.97847
  0
LINE
  8
0
 10
17.5784
 20
1.97847
 11
17.8146
 21
1.625
  0
LINE
  8
0
 10
17.8146
 20
1.625
 11
18.0026
 21
1.24371
  0
LINE
  8
0
 10
18.0026
 20
1.24371
 11
18.1393
 21
0.841156
  0
LINE
  8
0
 10
18.1393
 20
0.841156
 11
18.2222
 21
0.42421
  0
LINE
  8
0
 10
18.2222
 20
0.42421
 11
18.25
 21
0
  0
LINE
  8
0
 10
18.25
 20
0
 11
18.2222
 21
-0.42421
  0
LINE
  8
0
 10
18.2222
 20
-0.42421
 11
18.1393
 21
-0.841156
  0
LINE
  8
0
 10
18.1393
 20
-0.841156
 11
18.0026
 21
-1.24371
  0
LINE
  8
0
 10
18.0026
 20
-1.24371
 11
17.8146
 21
-1.625
  0
LINE
  8
0
 10
17.8146
 20
-1.625
 11
17.5784
 21
-1.97847
  0
LINE
  8
0
 10
17.5784
 20
-1.97847
 11
17.2981
 21
-2.2981
  0
LINE
  8
0
 10
17.2981
 20
-2.2981
 11
16.9785
 21
-2.57838
  0
LINE
  8
0
 10
16.9785
 20
-2.57838
 11
16.625
 21
-2.81458
  0
LINE
  8
0
 10
16.625
 20
-2.81458
 11
16.2437
 21
-3.00259
  0
LINE
  8
0
 10
16.2437
 20
-3.00259
 11
15.8412
 21
-3.13925
  0
LINE
  8
0
 10
15.8412
 20
-3.13925
 11
15.4242
 21
-3.22218
  0
LINE
  8
0
 10
15.4242
 20
-3.22218
 11
15
 21
-3.25
  0
LINE
  8
0
 10
15
 20
-3.25
 11
14.5758
 21
-3.22218
  0
LINE
  8
0
 10
-15.4242
 20
-18.2222
 11
-15.8412
 21
-18.1393
  0
LINE
  8
0
 10
-15.8412
 20
-18.1393
 11
-16.2437
 21
-18.0026
  0
LINE
  8
0
 10
-16.2437
 20
-18.0026
 11
-16.625
 21
-17.8146
  0
LINE
  8
0
 10
-16.625
 20
-17.8146
 11
-16.9785
 21
-17.5784
  0
LINE
  8
0
 10
-16.9785
 20
-17.5784
 11
-17.2981
 21
-17.2981
  0
LINE
  8
0
 10
-17.2981
 20
-17.2981
 11
-17.5784
 21
-16.9785
  0
LINE
  8
0
 10
-17.5784
 20
-16.9785
 11
-17.8146
 21
-16.625
  0
LINE
  8
0
 10
-17.8146
 20
-16.625
 11
-18.0026
 21
-16.2437
  0
LINE
  8
0
 10
-18.0026
 20
-16.2437
 11
-18.1393
 21
-15.8412
  0
LINE
  8
0
 10
-18.1393
 20
-15.8412
 11
-18.2222
 21
-15.4242
  0
LINE
  8
0
 10
-18.2222
 20
-15.4242
 11
-18.25
 21
-15
  0
LINE
  8
0
 10
-18.25
 20
-15
 11
-18.2222
 21
-14.5758
  0
LINE
  8
0
 10
-18.2222
 20
-14.5758
 11
-18.1393
 21
-14.1588
  0
LINE
  8
0
 10
-18.1393
 20
-14.1588
 11
-18.0026
 21
-13.7563
  0
LINE
  8
0
 10
-18.0026
 20
-13.7563
 11
-17.8146
 21
-13.375
  0
LINE
  8
0
 10
-17.8146
 20
-13.375
 11
-17.5784
 21
-13.0215
  0
LINE
  8
0
 10
-17.5784
 20
-13.0215
 11
-17.2981
 21
-12.7019
  0
LINE
  8
0
 10
-17.2981
 20
-12.7019
 11
-16.9785
 21
-12.4216
  0
LINE
  8
0
 10
-16.9785
 20
-12.4216
 11
-16.625
 21
-12.1854
  0
LINE
  8
0
 10
-16.625
 20
-12.1854
 11
-16.2437
 21
-11.9974
  0
LINE
  8
0
 10
-16.2437
 20
-11.9974
 11
-15.8412
 21
-11.8607
  0
LINE
  8
0
 10
-15.8412
 20
-11.8607
 11
-15.4242
 21
-11.7778
  0
LINE
  8
0
 10
-15.4242
 20
-11.7778
 11
-15
 21
-11.75
  0
LINE
  8
0
 10
-15
 20
-11.75
 11
-14.5758
 21
-11.7778
  0
LINE
  8
0
 10
-14.5758
 20
-11.7778
 11
-14.1588
 21
-11.8607
  0
LINE
  8
0
 10
-14.1588
 20
-11.8607
 11
-13.7563
 21
-11.9974
  0
LINE
  8
0
 10
-13.7563
 20
-11.9974
 11
-13.375
 21
-12.1854
  0
LINE
  8
0
 10
-13.375
 20
-12.1854
 11
-13.0215
 21
-12.4216
  0
LINE
  8
0
 10
-13.0215
 20
-12.4216
 11
-12.7019
 21
-12.7019
  0
LINE
  8
0
 10
-12.7019
 20
-12.7019
 11
-12.4216
 21
-13.0215
  0
LINE
  8
0
 10
-12.4216
 20
-13.0215
 11
-12.1854
 21
-13.375
  0
LINE
  8
0
 10
-12.1854
 20
-13.375
 11
-11.9974
 21
-13.7563
  0
LINE
  8
0
 10
-11.9974
 20
-13.7563
 11
-11.8607
 21
-14.1588
  0
LINE
  8
0
 10
-11.8607
 20
-14.1588
 11
-11.7778
 21
-14.5758
  0
LINE
  8
0
 10
-11.7778
 20
-14.5758
 11
-11.75
 21
-15
  0
LINE
  8
0
 10
-11.75
 20
-15
 11
-11.7778
 21
-15.4242
  0
LINE
  8
0
 10
-11.7778
 20
-15.4242
 11
-11.8607
 21
-15.8412
  0
LINE
  8
0
 10
-11.8607
 20
-15.8412
 11
-11.9974
 21
-16.2437
  0
LINE
  8
0
 10
-11.9974
 20
-16.2437
 11
-12.1854
 21
-16.625
  0
LINE
  8
0
 10
-12.1854
 20
-16.625
 11
-12.4216
 21
-16.9785
  0
LINE
  8
0
 10
-12.4216
 20
-16.9785
 11
-12.7019
 21
-17.2981
  0
LINE
  8
0
 10
-12.7019
 20
-17.2981
 11
-13.0215
 21
-17.5784
  0
LINE
  8
0
 10
-13.0215
 20
-17.5784
 11
-13.375
 21
-17.8146
  0
LINE
  8
0
 10
-13.375
 20
-17.8146
 11
-13.7563
 21
-18.0026
  0
LINE
  8
0
 10
-13.7563
 20
-18.0026
 11
-14.1588
 21
-18.1393
  0
LINE
  8
0
 10
-14.1588
 20
-18.1393
 11
-14.5758
 21
-18.2222
  0
LINE
  8
0
 10
-14.5758
 20
-18.2222
 11
-15
 21
-18.25
  0
LINE
  8
0
 10
-15
 20
-18.25
 11
-15.4242
 21
-18.2222
  0
LINE
  8
0
 10
14.5758
 20
-18.2222
 11
14.1588
 21
-18.1393
  0
LINE
  8
0
 10
14.1588
 20
-18.1393
 11
13.7563
 21
-18.0026
  0
LINE
  8
0
 10
13.7563
 20
-18.0026
 11
13.375
 21
-17.8146
  0
LINE
  8
0
 10
13.375
 20
-17.8146
 11
13.0215
 21
-17.5784
  0
LINE
  8
0
 10
13.0215
 20
-17.5784
 11
12.7019
 21
-17.2981
  0
LINE
  8
0
 10
12.7019
 20
-17.2981
 11
12.4216
 21
-16.9785
  0
LINE
  8
0
 10
12.4216
 20
-16.9785
 11
12.1854
 21
-16.625
  0
LINE
  8
0
 10
12.1854
 20
-16.625
 11
11.9974
 21
-16.2437
  0
LINE
  8
0
 10
11.9974
 20
-16.2437
 11
11.8607
 21
-15.8412
  0
LINE
  8
0
 10
11.8607
 20
-15.8412
 11
11.7778
 21
-15.4242
  0
LINE
  8
0
 10
11.7778
 20
-15.4242
 11
11.75
 21
-15
  0
LINE
  8
0
 10
11.75
 20
-15
 11
11.7778
 21
-14.5758
  0
LINE
  8
0
 10
11.7778
 20
-14.5758
 11
11.8607
 21
-14.1588
  0
LINE
  8
0
 10
11.8607
 20
-14.1588
 11
11.9974
 21
-13.7563
  0
LINE
  8
0
 10
11.9974
 20
-13.7563
 11
12.1854
 21
-13.375
  0
LINE
  8
0
 10
12.1854
 20
-13.375
 11
12.4216
 21
-13.0215
  0
LINE
  8
0
 10
12.4216
 20
-13.0215
 11
12.7019
 21
-12.7019
  0
LINE
  8
0
 10
12.7019
 20
-12.7019
 11
13.0215
 21
-12.4216
  0
LINE
  8
0
 10
13.0215
 20
-12.4216
 11
13.375
 21
-12.1854
  0
LINE
  8
0
 10
13.375
 20
-12.1854
 11
13.7563
 21
-11.9974
  0
LINE
  8
0
 10
13.7563
 20
-11.9974
 11
14.1588
 21
-11.8607
  0
LINE
  8
0
 10
14.1588
 20
-11.8607
 11
14.5758
 21
-11.7778
  0
LINE
  8
0
 10
14.5758
 20
-11.7778
 11
15
 21
-11.75
  0
LINE
  8
0
 10
15
 20
-11.75
 11
15.4242
 21
-11.7778
  0
LINE
  8
0
 10
15.4242
 20
-11.7778
 11
15.8412
 21
-11.8607
  0
LINE
  8
0
 10
15.8412
 20
-11.8607
 11
16.2437
 21
-11.9974
  0
LINE
  8
0
 10
16.2437
 20
-11.9974
 11
16.625
 21
-12.1854
  0
LINE
  8
0
 10
16.625
 20
-12.1854
 11
16.9785
 21
-12.4216
  0
LINE
  8
0
 10
16.9785
 20
-12.4216
 11
17.2981
 21
-12.7019
  0
LINE
  8
0
 10
17.2981
 20
-12.7019
 11
17.5784
 21
-13.0215
  0
LINE
  8
0
 10
17.5784
 20
-13.0215
 11
17.8146
 21
-13.375
  0
LINE
  8
0
 10
17.8146
 20
-13.375
 11
18.0026
 21
-13.7563
  0
LINE
  8
0
 10
18.0026
 20
-13.7563
 11
18.1393
 21
-14.1588
  0
LINE
  8
0
 10
18.1393
 20
-14.1588
 11
18.2222
 21
-14.5758
  0
LINE
  8
0
 10
18.2222
 20
-14.5758
 11
18.25
 21
-15
  0
LINE
  8
0
 10
18.25
 20
-15
 11
18.2222
 21
-15.4242
  0
LINE
  8
0
 10
18.2222
 20
-15.4242
 11
18.1393
 21
-15.8412
  0
LINE
  8
0
 10
18.1393
 20
-15.8412
 11
18.0026
 21
-16.2437
  0
LINE
  8
0
 10
18.0026
 20
-16.2437
 11
17.8146
 21
-16.625
  0
LINE
  8
0
 10
17.8146
 20
-16.625
 11
17.5784
 21
-16.9785
  0
LINE
  8
0
 10
17.5784
 20
-16.9785
 11
17.2981
 21
-17.2981
  0
LINE
  8
0
 10
17.2981
 20
-17.2981
 11
16.9785
 21
-17.5784
  0
LINE
  8
0
 10
16.9785
 20
-17.5784
 11
16.625
 21
-17.8146
  0
LINE
  8
0
 10
16.625
 20
-17.8146
 11
16.2437
 21
-18.0026
  0
LINE
  8
0
 10
16.2437
 20
-18.0026
 11
15.8412
 21
-18.1393
  0
LINE
  8
0
 10
15.8412
 20
-18.1393
 11
15.4242
 21
-18.2222
  0
LINE
  8
0
 10
15.4242
 20
-18.2222
 11
15
 21
-18.25
  0
LINE
  8
0
 10
15
 20
-18.25
 11
14.5758
 21
-18.2222
  0
LINE
  8
0
 10
-0.42421
 20
-18.2222
 11
-0.841156
 21
-18.1393
  0
LINE
  8
0
 10
-0.841156
 20
-18.1393
 11
-1.24371
 21
-18.0026
  0
LINE
  8
0
 10
-1.24371
 20
-18.0026
 11
-1.625
 21
-17.8146
  0
LINE
  8
0
 10
-1.625
 20
-17.8146
 11
-1.97847
 21
-17.5784
  0
LINE
  8
0
 10
-1.97847
 20
-17.5784
 11
-2.2981
 21
-17.2981
  0
LINE
  8
0
 10
-2.2981
 20
-17.2981
 11
-2.57838
 21
-16.9785
  0
LINE
  8
0
 10
-2.57838
 20
-16.9785
 11
-2.81458
 21
-16.625
  0
LINE
  8
0
 10
-2.81458
 20
-16.625
 11
-3.00259
 21
-16.2437
  0
LINE
  8
0
 10
-3.00259
 20
-16.2437
 11
-3.13925
 21
-15.8412
  0
LINE
  8
0
 10
-3.13925
 20
-15.8412
 11
-3.22218
 21
-15.4242
  0
LINE
  8
0
 10
-3.22218
 20
-15.4242
 11
-3.25
 21
-15
  0
LINE
  8
0
 10
-3.25
 20
-15
 11
-3.22218
 21
-14.5758
  0
LINE
  8
0
 10
-3.22218
 20
-14.5758
 11
-3.13925
 21
-14.1588
  0
LINE
  8
0
 10
-3.13925
 20
-14.1588
 11
-3.00259
 21
-13.7563
  0
LINE
  8
0
 10
-3.00259
 20
-13.7563
 11
-2.81458
 21
-13.375
  0
LINE
  8
0
 10
-2.81458
 20
-13.375
 11
-2.57838
 21
-13.0215
  0
LINE
  8
0
 10
-2.57838
 20
-13.0215
 11
-2.2981
 21
-12.7019
  0
LINE
  8
0
 10
-2.2981
 20
-12.7019
 11
-1.97847
 21
-12.4216
  0
LINE
  8
0
 10
-1.97847
 20
-12.4216
 11
-1.625
 21
-12.1854
  0
LINE
  8
0
 10
-1.625
 20
-12.1854
 11
-1.24371
 21
-11.9974
  0
LINE
  8
0
 10
-1.24371
 20
-11.9974
 11
-0.841156
 21
-11.8607
  0
LINE
  8
0
 10
-0.841156
 20
-11.8607
 11
-0.42421
 21
-11.7778
  0
LINE
  8
0
 10
-0.42421
 20
-11.7778
 11
0
 21
-11.75
  0
LINE
  8
0
 10
0
 20
-11.75
 11
0.42421
 21
-11.7778
  0
LINE
  8
0
 10
0.42421
 20
-11.7778
 11
0.841156
 21
-11.8607
  0
LINE
  8
0
 10
0.841156
 20
-11.8607
 11
1.24371
 21
-11.9974
  0
LINE
  8
0
 10
1.24371
 20
-11.9974
 11
1.625
 21
-12.1854
  0
LINE
  8
0
 10
1.625
 20
-12.1854
 11
1.97847
 21
-12.4216
  0
LINE
  8
0
 10
1.97847
 20
-12.4216
 11
2.2981
 21
-12.7019
  0
LINE
  8
0
 10
2.2981
 20
-12.7019
 11
2.57838
 21
-13.0215
  0
LINE
  8
0
 10
2.57838
 20
-13.0215
 11
2.81458
 21
-13.375
  0
LINE
  8
0
 10
2.81458
 20
-13.375
 11
3.00259
 21
-13.7563
  0
LINE
  8
0
 10
3.00259
 20
-13.7563
 11
3.13925
 21
-14.1588
  0
LINE
  8
0
 10
3.13925
 20
-14.1588
 11
3.22218
 21
-14.5758
  0
LINE
  8
0
 10
3.22218
 20
-14.5758
 11
3.25
 21
-15
  0
LINE
  8
0
 10
3.25
 20
-15
 11
3.22218
 21
-15.4242
  0
LINE
  8
0
 10
3.22218
 20
-15.4242
 11
3.13925
 21
-15.8412
  0
LINE
  8
0
 10
3.13925
 20
-15.8412
 11
3.00259
 21
-16.2437
  0
LINE
  8
0
 10
3.00259
 20
-16.2437
 11
2.81458
 21
-16.625
  0
LINE
  8
0
 10
2.81458
 20
-16.625
 11
2.57838
 21
-16.9785
  0
LINE
  8
0
 10
2.57838
 20
-16.9785
 11
2.2981
 21
-17.2981
  0
LINE
  8
0
 10
2.2981
 20
-17.2981
 11
1.97847
 21
-17.5784
  0
LINE
  8
0
 10
1.97847
 20
-17.5784
 11
1.625
 21
-17.8146
  0
LINE
  8
0
 10
1.625
 20
-17.8146
 11
1.24371
 21
-18.0026
  0
LINE
  8
0
 10
1.24371
 20
-18.0026
 11
0.841156
 21
-18.1393
  0
LINE
  8
0
 10
0.841156
 20
-18.1393
 11
0.42421
 21
-18.2222
  0
LINE
  8
0
 10
0.42421
 20
-18.2222
 11
0
 21
-18.25
  0
LINE
  8
0
 10
0
 20
-18.25
 11
-0.42421
 21
-18.2222
  0
ENDSEC
  0
SECTION
  2
OBJECTS
  0
DICTIONARY
  0
ENDSEC
  0
EOF
