<?xml version="1.0" encoding="UTF-8"?>
<!DOCTYPE svg PUBLIC "-//W3C//DTD SVG 1.1//EN" "http://www.w3.org/Graphics/SVG/1.1/DTD/svg11.dtd">
<!-- Creator: CorelDRAW -->
<svg xmlns="http://www.w3.org/2000/svg" xml:space="preserve" width="210mm" height="297mm" style="shape-rendering:geometricPrecision; text-rendering:geometricPrecision; image-rendering:optimizeQuality; fill-rule:evenodd; clip-rule:evenodd"
viewBox="0 0 210 297"
 xmlns:xlink="http://www.w3.org/1999/xlink">
 <defs>
  <style type="text/css">
   <![CDATA[
    .str0 {stroke:black;stroke-width:0.5644}
    .fil0 {fill:none;fill-rule:nonzero}
   ]]>
  </style>
 </defs>
 <g id="Layer_x0020_1">
  <metadata id="CorelCorpID_0Corel-Layer"/>
  <g id="OOBB-PL-12-01.pdf">
   <path id="_118808544" class="fil0 str0" d="M-111.499 290.5l223 0c2.7697,0 4.9996,2.2309 4.9996,5.0009l0 3.0001c0,2.7696 -2.2299,4.9992 -4.9996,4.9992l-223 0c-2.77,0 -5.001,-2.2296 -5.001,-4.9992l0 -3.0001c0,-2.77 2.231,-5.0009 5.001,-5.0009zm0 0z"/>
   <path id="_118808952" class="fil0 str0" d="M-111.499 300l0 -0.4011c-0.4561,-0.2632 -0.8354,-0.6435 -1.0986,-1.0982l-0.4021 0 0 -1.5008 0 -1.4993 0.4021 0c0.2632,-0.4561 0.6425,-0.8353 1.0986,-1.0985l0 -0.4022 1.4993 0 1.5007 0 0 0.4022c0.4547,0.2632 0.835,0.6424 1.0982,1.0985l0.4011 0 0 1.4993 0 1.5008 -0.4011 0c-0.2632,0.4547 -0.6435,0.835 -1.0982,1.0982l0 0.4011 -1.5007 0 -1.4993 0zm0 0z"/>
   <path id="_118812288" class="fil0 str0" d="M-91.4998 300l0 -0.4011c-0.4547,-0.2632 -0.835,-0.6435 -1.0982,-1.0982l-0.4011 0 0 -1.5008 0 -1.4993 0.4011 0c0.2632,-0.4561 0.6435,-0.8353 1.0982,-1.0985l0 -0.4022 1.5007 0 1.4993 0 0 0.4022c0.4548,0.2632 0.8351,0.6424 1.0982,1.0985l0.4026 0 0 1.4993 0 1.5008 -0.4026 0c-0.2631,0.4547 -0.6434,0.835 -1.0982,1.0982l0 0.4011 -1.4993 0 -1.5007 0zm0 0z"/>
   <path id="_118808640" class="fil0 str0" d="M-71.5005 300l0 -0.4011c-0.4547,-0.2632 -0.8336,-0.6435 -1.0982,-1.0982l-0.4011 0 0 -1.5008 0 -1.4993 0.4011 0c0.2646,-0.4561 0.6435,-0.8353 1.0982,-1.0985l0 -0.4022 1.5008 0 1.4993 0 0 0.4022c0.4561,0.2632 0.8353,0.6424 1.0985,1.0985l0.4022 0 0 1.4993 0 1.5008 -0.4022 0c-0.2632,0.4547 -0.6424,0.835 -1.0985,1.0982l0 0.4011 -1.4993 0 -1.5008 0zm0 0z"/>
   <path id="_118812264" class="fil0 str0" d="M-51.4994 300l0 -0.4011c-0.4561,-0.2632 -0.835,-0.6435 -1.0982,-1.0982l-0.4025 0 0 -1.5008 0 -1.4993 0.4025 0c0.2632,-0.4561 0.6421,-0.8353 1.0982,-1.0985l0 -0.4022 1.4993 0 1.5008 0 0 0.4022c0.4547,0.2632 0.835,0.6424 1.0982,1.0985l0.4011 0 0 1.4993 0 1.5008 -0.4011 0c-0.2632,0.4547 -0.6435,0.835 -1.0982,1.0982l0 0.4011 -1.5008 0 -1.4993 0zm0 0z"/>
   <path id="_118810584" class="fil0 str0" d="M-31.5 300l0 -0.4011c-0.4548,-0.2632 -0.8351,-0.6435 -1.0982,-1.0982l-0.4011 0 0 -1.5008 0 -1.4993 0.4011 0c0.2631,-0.4561 0.6434,-0.8353 1.0982,-1.0985l0 -0.4022 1.5007 0 1.4993 0 0 0.4022c0.4561,0.2632 0.835,0.6424 1.0982,1.0985l0.4025 0 0 1.4993 0 1.5008 -0.4025 0c-0.2632,0.4547 -0.6421,0.835 -1.0982,1.0982l0 0.4011 -1.4993 0 -1.5007 0zm0 0z"/>
   <path id="_118808520" class="fil0 str0" d="M-11.5004 300l0 -0.4011c-0.4547,-0.2632 -0.8339,-0.6435 -1.0985,-1.0982l-0.4008 0 0 -1.5008 0 -1.4993 0.4008 0c0.2646,-0.4561 0.6438,-0.8353 1.0985,-1.0985l0 -0.4022 1.5008 0 1.4993 0 0 0.4022c0.4557,0.2632 0.835,0.6424 1.0996,1.0985l0.4007 0 0 1.4993 0 1.5008 -0.4007 0c-0.2646,0.4547 -0.6439,0.835 -1.0996,1.0982l0 0.4011 -1.4993 0 -1.5008 0zm0 0z"/>
   <path id="_118811304" class="fil0 str0" d="M8.5004 300l0 -0.4011c-0.4562,-0.2632 -0.8351,-0.6435 -1.0982,-1.0982l-0.4025 0 0 -1.5008 0 -1.4993 0.4025 0c0.2631,-0.4561 0.642,-0.8353 1.0982,-1.0985l0 -0.4022 1.4993 0 1.5007 0 0 0.4022c0.4547,0.2632 0.835,0.6424 1.0982,1.0985l0.4011 0 0 1.4993 0 1.5008 -0.4011 0c-0.2632,0.4547 -0.6435,0.835 -1.0982,1.0982l0 0.4011 -1.5007 0 -1.4993 0zm0 0z"/>
   <path id="_118809600" class="fil0 str0" d="M28.4997 300l0 -0.4011c-0.4547,-0.2632 -0.835,-0.6435 -1.0982,-1.0982l-0.4011 0 0 -1.5008 0 -1.4993 0.4011 0c0.2632,-0.4561 0.6435,-0.8353 1.0982,-1.0985l0 -0.4022 1.5007 0 1.4993 0 0 0.4022c0.4562,0.2632 0.835,0.6424 1.0986,1.0985l0.4021 0 0 1.4993 0 1.5008 -0.4021 0c-0.2636,0.4547 -0.6424,0.835 -1.0986,1.0982l0 0.4011 -1.4993 0 -1.5007 0zm0 0z"/>
   <path id="_118810392" class="fil0 str0" d="M48.5008 300l0 -0.4011c-0.4562,-0.2632 -0.8354,-0.6435 -1.1,-1.0982l-0.4007 0 0 -1.5008 0 -1.4993 0.4007 0c0.2646,-0.4561 0.6438,-0.8353 1.1,-1.0985l0 -0.4022 1.4993 0 1.5007 0 0 0.4022c0.4547,0.2632 0.8336,0.6424 1.0982,1.0985l0.4011 0 0 1.4993 0 1.5008 -0.4011 0c-0.2646,0.4547 -0.6435,0.835 -1.0982,1.0982l0 0.4011 -1.5007 0 -1.4993 0zm0 0z"/>
   <path id="_118809768" class="fil0 str0" d="M68.5001 300l0 -0.4011c-0.4561,-0.2632 -0.835,-0.6435 -1.0982,-1.0982l-0.4025 0 0 -1.5008 0 -1.4993 0.4025 0c0.2632,-0.4561 0.6421,-0.8353 1.0982,-1.0985l0 -0.4022 1.4993 0 1.5007 0 0 0.4022c0.4548,0.2632 0.8351,0.6424 1.0982,1.0985l0.4011 0 0 1.4993 0 1.5008 -0.4011 0c-0.2631,0.4547 -0.6434,0.835 -1.0982,1.0982l0 0.4011 -1.5007 0 -1.4993 0zm0 0z"/>
   <path id="_122064928" class="fil0 str0" d="M88.4994 300l0 -0.4011c-0.4547,-0.2632 -0.835,-0.6435 -1.0982,-1.0982l-0.4011 0 0 -1.5008 0 -1.4993 0.4011 0c0.2632,-0.4561 0.6435,-0.8353 1.0982,-1.0985l0 -0.4022 1.5008 0 1.4993 0 0 0.4022c0.4561,0.2632 0.8353,0.6424 1.0985,1.0985l0.4022 0 0 1.4993 0 1.5008 -0.4022 0c-0.2632,0.4547 -0.6424,0.835 -1.0985,1.0982l0 0.4011 -1.4993 0 -1.5008 0zm0 0z"/>
   <path id="_122065840" class="fil0 str0" d="M108.501 300l0 -0.4011c-0.4561,-0.2632 -0.835,-0.6435 -1.0985,-1.0982l-0.4022 0 0 -1.5008 0 -1.4993 0.4022 0c0.2635,-0.4561 0.6424,-0.8353 1.0985,-1.0985l0 -0.4022 1.4993 0 1.5007 0 0 0.4022c0.4548,0.2632 0.8337,0.6424 1.0982,1.0985l0.4012 0 0 1.4993 0 1.5008 -0.4012 0c-0.2645,0.4547 -0.6434,0.835 -1.0982,1.0982l0 0.4011 -1.5007 0 -1.4993 0zm0 0z"/>
   <polygon id="_122065696" class="fil0 str0" points="-103,295.501 -96.9996,295.501 -96.9996,298.501 -103,298.501 "/>
   <polygon id="_122064424" class="fil0 str0" points="-83,295.501 -76.9999,295.501 -76.9999,298.501 -83,298.501 "/>
   <polygon id="_122063008" class="fil0 str0" points="-62.9992,295.501 -56.9992,295.501 -56.9992,298.501 -62.9992,298.501 "/>
   <polygon id="_122064232" class="fil0 str0" points="-42.9995,295.501 -36.9995,295.501 -36.9995,298.501 -42.9995,298.501 "/>
   <polygon id="_122062912" class="fil0 str0" points="-23.0002,295.501 -17.0002,295.501 -17.0002,298.501 -23.0002,298.501 "/>
   <polygon id="_122065384" class="fil0 str0" points="-2.9995,295.501 3.0006,295.501 3.0006,298.501 -2.9995,298.501 "/>
   <polygon id="_122064064" class="fil0 str0" points="17.0002,295.501 23.0002,295.501 23.0002,298.501 17.0002,298.501 "/>
   <polygon id="_122064448" class="fil0 str0" points="37.0009,295.501 43.001,295.501 43.001,298.501 37.0009,298.501 "/>
   <polygon id="_122066152" class="fil0 str0" points="57.0003,295.501 63.0003,295.501 63.0003,298.501 57.0003,298.501 "/>
   <polygon id="_122064208" class="fil0 str0" points="76.9999,295.501 83,295.501 83,298.501 76.9999,298.501 "/>
   <polygon id="_122065240" class="fil0 str0" points="97.0007,295.501 103.001,295.501 103.001,298.501 97.0007,298.501 "/>
  </g>
 </g>
</svg>
