  0
SECTION
  2
BLOCKS
  0
ENDSEC
  0
SECTION
  2
ENTITIES
  0
LINE
  8
0
 10
3.935
 20
-20.628
 11
6.48935
 21
-19.9722
  0
LINE
  8
0
 10
6.48935
 20
-19.9722
 11
8.94136
 21
-19.0014
  0
LINE
  8
0
 10
8.94136
 20
-19.0014
 11
11.2523
 21
-17.7309
  0
LINE
  8
0
 10
11.2523
 20
-17.7309
 11
13.3859
 21
-16.1808
  0
LINE
  8
0
 10
13.3859
 20
-16.1808
 11
15.3083
 21
-14.3755
  0
LINE
  8
0
 10
15.3083
 20
-14.3755
 11
16.9893
 21
-12.3435
  0
LINE
  8
0
 10
16.9893
 20
-12.3435
 11
18.4024
 21
-10.1168
  0
LINE
  8
0
 10
18.4024
 20
-10.1168
 11
19.5253
 21
-7.73061
  0
LINE
  8
0
 10
19.5253
 20
-7.73061
 11
20.3402
 21
-5.22247
  0
LINE
  8
0
 10
20.3402
 20
-5.22247
 11
20.8344
 21
-2.63199
  0
LINE
  8
0
 10
20.8344
 20
-2.63199
 11
21
 21
0
  0
LINE
  8
0
 10
21
 20
0
 11
20.8344
 21
2.63199
  0
LINE
  8
0
 10
20.8344
 20
2.63199
 11
20.3402
 21
5.22247
  0
LINE
  8
0
 10
20.3402
 20
5.22247
 11
19.5253
 21
7.73061
  0
LINE
  8
0
 10
19.5253
 20
7.73061
 11
18.4024
 21
10.1168
  0
LINE
  8
0
 10
18.4024
 20
10.1168
 11
16.9893
 21
12.3435
  0
LINE
  8
0
 10
16.9893
 20
12.3435
 11
15.3083
 21
14.3755
  0
LINE
  8
0
 10
15.3083
 20
14.3755
 11
13.3859
 21
16.1808
  0
LINE
  8
0
 10
13.3859
 20
16.1808
 11
11.2523
 21
17.7309
  0
LINE
  8
0
 10
11.2523
 20
17.7309
 11
8.94136
 21
19.0014
  0
LINE
  8
0
 10
8.94136
 20
19.0014
 11
6.48935
 21
19.9722
  0
LINE
  8
0
 10
6.48935
 20
19.9722
 11
3.935
 21
20.628
  0
LINE
  8
0
 10
3.935
 20
20.628
 11
1.31859
 21
20.9586
  0
LINE
  8
0
 10
1.31859
 20
20.9586
 11
-1.31859
 21
20.9586
  0
LINE
  8
0
 10
-1.31859
 20
20.9586
 11
-3.935
 21
20.628
  0
LINE
  8
0
 10
-3.935
 20
20.628
 11
-6.48935
 21
19.9722
  0
LINE
  8
0
 10
-6.48935
 20
19.9722
 11
-8.94136
 21
19.0014
  0
LINE
  8
0
 10
-8.94136
 20
19.0014
 11
-11.2523
 21
17.7309
  0
LINE
  8
0
 10
-11.2523
 20
17.7309
 11
-13.3859
 21
16.1808
  0
LINE
  8
0
 10
-13.3859
 20
16.1808
 11
-15.3083
 21
14.3755
  0
LINE
  8
0
 10
-15.3083
 20
14.3755
 11
-16.9893
 21
12.3435
  0
LINE
  8
0
 10
-16.9893
 20
12.3435
 11
-18.4024
 21
10.1168
  0
LINE
  8
0
 10
-18.4024
 20
10.1168
 11
-19.5253
 21
7.73061
  0
LINE
  8
0
 10
-19.5253
 20
7.73061
 11
-20.3402
 21
5.22247
  0
LINE
  8
0
 10
-20.3402
 20
5.22247
 11
-20.8344
 21
2.63199
  0
LINE
  8
0
 10
-20.8344
 20
2.63199
 11
-21
 21
0
  0
LINE
  8
0
 10
-21
 20
0
 11
-20.8344
 21
-2.63199
  0
LINE
  8
0
 10
-20.8344
 20
-2.63199
 11
-20.3402
 21
-5.22247
  0
LINE
  8
0
 10
-20.3402
 20
-5.22247
 11
-19.5253
 21
-7.73061
  0
LINE
  8
0
 10
-19.5253
 20
-7.73061
 11
-18.4024
 21
-10.1168
  0
LINE
  8
0
 10
-18.4024
 20
-10.1168
 11
-16.9893
 21
-12.3435
  0
LINE
  8
0
 10
-16.9893
 20
-12.3435
 11
-15.3083
 21
-14.3755
  0
LINE
  8
0
 10
-15.3083
 20
-14.3755
 11
-13.3859
 21
-16.1808
  0
LINE
  8
0
 10
-13.3859
 20
-16.1808
 11
-11.2523
 21
-17.7309
  0
LINE
  8
0
 10
-11.2523
 20
-17.7309
 11
-8.94136
 21
-19.0014
  0
LINE
  8
0
 10
-8.94136
 20
-19.0014
 11
-6.48935
 21
-19.9722
  0
LINE
  8
0
 10
-6.48935
 20
-19.9722
 11
-3.935
 21
-20.628
  0
LINE
  8
0
 10
-3.935
 20
-20.628
 11
-1.31859
 21
-20.9586
  0
LINE
  8
0
 10
-1.31859
 20
-20.9586
 11
1.31859
 21
-20.9586
  0
LINE
  8
0
 10
1.31859
 20
-20.9586
 11
3.935
 21
-20.628
  0
ENDSEC
  0
SECTION
  2
OBJECTS
  0
DICTIONARY
  0
ENDSEC
  0
EOF
