<?xml version="1.0" encoding="UTF-8"?>
<!DOCTYPE svg PUBLIC "-//W3C//DTD SVG 1.1//EN" "http://www.w3.org/Graphics/SVG/1.1/DTD/svg11.dtd">
<!-- Creator: CorelDRAW -->
<svg xmlns="http://www.w3.org/2000/svg" xml:space="preserve" width="210mm" height="297mm" style="shape-rendering:geometricPrecision; text-rendering:geometricPrecision; image-rendering:optimizeQuality; fill-rule:evenodd; clip-rule:evenodd"
viewBox="0 0 210 297"
 xmlns:xlink="http://www.w3.org/1999/xlink">
 <defs>
  <style type="text/css">
   <![CDATA[
    .str0 {stroke:#1F1A17;stroke-width:0.5644;stroke-linecap:round;stroke-linejoin:round}
    .fil0 {fill:none}
   ]]>
  </style>
 </defs>
 <g id="Layer_x0020_1">
  <metadata id="CorelCorpID_0Corel-Layer"/>
  <g id="_106648192">
   <path id="_106647520" class="fil0 str0" d="M117.699 66.928l0.402 0c0.2633,-0.4552 0.6429,-0.8345 1.098,-1.0978l0 -0.4022 3 0 0 0.4019c0.4553,0.2633 0.8352,0.6428 1.0988,1.0981l0.4012 0 0 1.4542 0.0006 0.0465 -0.0006 0.0464 0 1.4529 -0.4007 0c-0.2635,0.4557 -0.6435,0.8358 -1.0993,1.0994l0 0.4006 -1.4328 0 -0.0667 0.0008 -0.0668 -0.0008 -1.4337 0 0 -0.401c-0.4554,-0.2636 -0.8352,-0.6435 -1.0985,-1.099l-0.4015 0 0 -3z"/>
   <path id="_106646680" class="fil0 str0" d="M-82.3013 266.928l0.402 0c0.2633,-0.4552 0.6429,-0.8345 1.098,-1.0978l0 -0.4022 3 0 0 0.4019c0.4553,0.2633 0.8352,0.6428 1.0988,1.0981l0.4012 0 0 1.4542 0.0006 0.0465 -0.0006 0.0464 0 1.4529 -0.4007 0c-0.2635,0.4557 -0.6435,0.8358 -1.0993,1.0994l0 0.4006 -1.4328 0 -0.0667 0.0008 -0.0668 -0.0008 -1.4337 0 0 -0.401c-0.4554,-0.2636 -0.8352,-0.6435 -1.0985,-1.099l-0.4015 0 0 -3z"/>
   <path id="_106647904" class="fil0 str0" d="M120.7 74.9288c-106.85,0.0002 -193.501,86.6511 -193.501,193.501 -0.0001,3.5883 -2.9109,6.4991 -6.5001,6.4991 -3.5318,0 -6.4067,-2.8185 -6.4977,-6.501 0.0949,-114.058 92.4282,-206.395 206.405,-206.498 3.6816,-0.0014 6.5924,2.9094 6.5924,6.4986 0,3.5892 -2.9108,6.5 -6.4992,6.5002z"/>
  </g>
 </g>
</svg>
