<svg
xmlns:dc="http://purl.org/dc/elements/1.1/"
xmlns:cc="http://creativecommons.org/ns#"
xmlns:rdf="http://www.w3.org/1999/02/22-rdf-syntax-ns#"
xmlns:svg="http://www.w3.org/2000/svg"
xmlns="http://www.w3.org/2000/svg"
xmlns:xlink="http://www.w3.org/1999/xlink"
xmlns:sodipodi="http://sodipodi.sourceforge.net/DTD/sodipodi-0.dtd"
xmlns:inkscape="http://www.inkscape.org/namespaces/inkscape"
width="323mm"
height="123mm"
id="svg2"
version="1.1"
inkscape:version="0.48.1 "
sodipodi:docname="MultiLineTextINK.svg">
	<rect
		style="fill:none;stroke:#000000;stroke-width:2px " 
		x="5mm"
		y="5mm"
		rx="5mm"
		ry="5mm"
		width="313mm"
		height="113mm"
	/>
	<path 
	style="fill:none;stroke:#000000;stroke-width:0.564445573335591px " 
	d=
	"M10 14.5
	l0 -0.4015c-0.4553,-0.2635 -0.8349,-0.6432 -1.0984,-1.0985l-0.4016 0 0 -1.5 0 -1.5 0.4016 0c0.2635,-0.4553 0.6431,-0.835 1.0984,-1.0985l0 -0.4015 1.5 0 1.5 0 0 0.4015c0.4553,0.2635 0.8349,0.6432 1.0984,1.0985l0.4016 0 0 1.5 0 1.5 -0.4016 0c-0.2635,0.4553 -0.6431,0.835 -1.0984,1.0985l0 0.4015 -1.5 0 -1.5 0z"
	transform="scale(3.5433)"
	/>
	<path 
	style="fill:none;stroke:#000000;stroke-width:0.564445573335591px " 
	d=
	"M10 34.5
	l0 -0.4015c-0.4553,-0.2635 -0.8349,-0.6432 -1.0984,-1.0985l-0.4016 0 0 -1.5 0 -1.5 0.4016 0c0.2635,-0.4553 0.6431,-0.835 1.0984,-1.0985l0 -0.4015 1.5 0 1.5 0 0 0.4015c0.4553,0.2635 0.8349,0.6432 1.0984,1.0985l0.4016 0 0 1.5 0 1.5 -0.4016 0c-0.2635,0.4553 -0.6431,0.835 -1.0984,1.0985l0 0.4015 -1.5 0 -1.5 0z"
	transform="scale(3.5433)"
	/>
	<path 
	style="fill:none;stroke:#000000;stroke-width:0.564445573335591px " 
	d=
	"M10 54.5
	l0 -0.4015c-0.4553,-0.2635 -0.8349,-0.6432 -1.0984,-1.0985l-0.4016 0 0 -1.5 0 -1.5 0.4016 0c0.2635,-0.4553 0.6431,-0.835 1.0984,-1.0985l0 -0.4015 1.5 0 1.5 0 0 0.4015c0.4553,0.2635 0.8349,0.6432 1.0984,1.0985l0.4016 0 0 1.5 0 1.5 -0.4016 0c-0.2635,0.4553 -0.6431,0.835 -1.0984,1.0985l0 0.4015 -1.5 0 -1.5 0z"
	transform="scale(3.5433)"
	/>
	<path 
	style="fill:none;stroke:#000000;stroke-width:0.564445573335591px " 
	d=
	"M10 74.5
	l0 -0.4015c-0.4553,-0.2635 -0.8349,-0.6432 -1.0984,-1.0985l-0.4016 0 0 -1.5 0 -1.5 0.4016 0c0.2635,-0.4553 0.6431,-0.835 1.0984,-1.0985l0 -0.4015 1.5 0 1.5 0 0 0.4015c0.4553,0.2635 0.8349,0.6432 1.0984,1.0985l0.4016 0 0 1.5 0 1.5 -0.4016 0c-0.2635,0.4553 -0.6431,0.835 -1.0984,1.0985l0 0.4015 -1.5 0 -1.5 0z"
	transform="scale(3.5433)"
	/>
	<path 
	style="fill:none;stroke:#000000;stroke-width:0.564445573335591px " 
	d=
	"M10 94.5
	l0 -0.4015c-0.4553,-0.2635 -0.8349,-0.6432 -1.0984,-1.0985l-0.4016 0 0 -1.5 0 -1.5 0.4016 0c0.2635,-0.4553 0.6431,-0.835 1.0984,-1.0985l0 -0.4015 1.5 0 1.5 0 0 0.4015c0.4553,0.2635 0.8349,0.6432 1.0984,1.0985l0.4016 0 0 1.5 0 1.5 -0.4016 0c-0.2635,0.4553 -0.6431,0.835 -1.0984,1.0985l0 0.4015 -1.5 0 -1.5 0z"
	transform="scale(3.5433)"
	/>
	<path 
	style="fill:none;stroke:#000000;stroke-width:0.564445573335591px " 
	d=
	"M10 114.5
	l0 -0.4015c-0.4553,-0.2635 -0.8349,-0.6432 -1.0984,-1.0985l-0.4016 0 0 -1.5 0 -1.5 0.4016 0c0.2635,-0.4553 0.6431,-0.835 1.0984,-1.0985l0 -0.4015 1.5 0 1.5 0 0 0.4015c0.4553,0.2635 0.8349,0.6432 1.0984,1.0985l0.4016 0 0 1.5 0 1.5 -0.4016 0c-0.2635,0.4553 -0.6431,0.835 -1.0984,1.0985l0 0.4015 -1.5 0 -1.5 0z"
	transform="scale(3.5433)"
	/>
	<path 
	style="fill:none;stroke:#000000;stroke-width:0.564445573335591px " 
	d=
	"M30 14.5
	l0 -0.4015c-0.4553,-0.2635 -0.8349,-0.6432 -1.0984,-1.0985l-0.4016 0 0 -1.5 0 -1.5 0.4016 0c0.2635,-0.4553 0.6431,-0.835 1.0984,-1.0985l0 -0.4015 1.5 0 1.5 0 0 0.4015c0.4553,0.2635 0.8349,0.6432 1.0984,1.0985l0.4016 0 0 1.5 0 1.5 -0.4016 0c-0.2635,0.4553 -0.6431,0.835 -1.0984,1.0985l0 0.4015 -1.5 0 -1.5 0z"
	transform="scale(3.5433)"
	/>
	<path 
	style="fill:none;stroke:#000000;stroke-width:0.564445573335591px " 
	d=
	"M30 34.5
	l0 -0.4015c-0.4553,-0.2635 -0.8349,-0.6432 -1.0984,-1.0985l-0.4016 0 0 -1.5 0 -1.5 0.4016 0c0.2635,-0.4553 0.6431,-0.835 1.0984,-1.0985l0 -0.4015 1.5 0 1.5 0 0 0.4015c0.4553,0.2635 0.8349,0.6432 1.0984,1.0985l0.4016 0 0 1.5 0 1.5 -0.4016 0c-0.2635,0.4553 -0.6431,0.835 -1.0984,1.0985l0 0.4015 -1.5 0 -1.5 0z"
	transform="scale(3.5433)"
	/>
	<path 
	style="fill:none;stroke:#000000;stroke-width:0.564445573335591px " 
	d=
	"M30 54.5
	l0 -0.4015c-0.4553,-0.2635 -0.8349,-0.6432 -1.0984,-1.0985l-0.4016 0 0 -1.5 0 -1.5 0.4016 0c0.2635,-0.4553 0.6431,-0.835 1.0984,-1.0985l0 -0.4015 1.5 0 1.5 0 0 0.4015c0.4553,0.2635 0.8349,0.6432 1.0984,1.0985l0.4016 0 0 1.5 0 1.5 -0.4016 0c-0.2635,0.4553 -0.6431,0.835 -1.0984,1.0985l0 0.4015 -1.5 0 -1.5 0z"
	transform="scale(3.5433)"
	/>
	<path 
	style="fill:none;stroke:#000000;stroke-width:0.564445573335591px " 
	d=
	"M30 74.5
	l0 -0.4015c-0.4553,-0.2635 -0.8349,-0.6432 -1.0984,-1.0985l-0.4016 0 0 -1.5 0 -1.5 0.4016 0c0.2635,-0.4553 0.6431,-0.835 1.0984,-1.0985l0 -0.4015 1.5 0 1.5 0 0 0.4015c0.4553,0.2635 0.8349,0.6432 1.0984,1.0985l0.4016 0 0 1.5 0 1.5 -0.4016 0c-0.2635,0.4553 -0.6431,0.835 -1.0984,1.0985l0 0.4015 -1.5 0 -1.5 0z"
	transform="scale(3.5433)"
	/>
	<path 
	style="fill:none;stroke:#000000;stroke-width:0.564445573335591px " 
	d=
	"M30 94.5
	l0 -0.4015c-0.4553,-0.2635 -0.8349,-0.6432 -1.0984,-1.0985l-0.4016 0 0 -1.5 0 -1.5 0.4016 0c0.2635,-0.4553 0.6431,-0.835 1.0984,-1.0985l0 -0.4015 1.5 0 1.5 0 0 0.4015c0.4553,0.2635 0.8349,0.6432 1.0984,1.0985l0.4016 0 0 1.5 0 1.5 -0.4016 0c-0.2635,0.4553 -0.6431,0.835 -1.0984,1.0985l0 0.4015 -1.5 0 -1.5 0z"
	transform="scale(3.5433)"
	/>
	<path 
	style="fill:none;stroke:#000000;stroke-width:0.564445573335591px " 
	d=
	"M30 114.5
	l0 -0.4015c-0.4553,-0.2635 -0.8349,-0.6432 -1.0984,-1.0985l-0.4016 0 0 -1.5 0 -1.5 0.4016 0c0.2635,-0.4553 0.6431,-0.835 1.0984,-1.0985l0 -0.4015 1.5 0 1.5 0 0 0.4015c0.4553,0.2635 0.8349,0.6432 1.0984,1.0985l0.4016 0 0 1.5 0 1.5 -0.4016 0c-0.2635,0.4553 -0.6431,0.835 -1.0984,1.0985l0 0.4015 -1.5 0 -1.5 0z"
	transform="scale(3.5433)"
	/>
	<path 
	style="fill:none;stroke:#000000;stroke-width:0.564445573335591px " 
	d=
	"M50 14.5
	l0 -0.4015c-0.4553,-0.2635 -0.8349,-0.6432 -1.0984,-1.0985l-0.4016 0 0 -1.5 0 -1.5 0.4016 0c0.2635,-0.4553 0.6431,-0.835 1.0984,-1.0985l0 -0.4015 1.5 0 1.5 0 0 0.4015c0.4553,0.2635 0.8349,0.6432 1.0984,1.0985l0.4016 0 0 1.5 0 1.5 -0.4016 0c-0.2635,0.4553 -0.6431,0.835 -1.0984,1.0985l0 0.4015 -1.5 0 -1.5 0z"
	transform="scale(3.5433)"
	/>
	<path 
	style="fill:none;stroke:#000000;stroke-width:0.564445573335591px " 
	d=
	"M50 34.5
	l0 -0.4015c-0.4553,-0.2635 -0.8349,-0.6432 -1.0984,-1.0985l-0.4016 0 0 -1.5 0 -1.5 0.4016 0c0.2635,-0.4553 0.6431,-0.835 1.0984,-1.0985l0 -0.4015 1.5 0 1.5 0 0 0.4015c0.4553,0.2635 0.8349,0.6432 1.0984,1.0985l0.4016 0 0 1.5 0 1.5 -0.4016 0c-0.2635,0.4553 -0.6431,0.835 -1.0984,1.0985l0 0.4015 -1.5 0 -1.5 0z"
	transform="scale(3.5433)"
	/>
	<path 
	style="fill:none;stroke:#000000;stroke-width:0.564445573335591px " 
	d=
	"M50 54.5
	l0 -0.4015c-0.4553,-0.2635 -0.8349,-0.6432 -1.0984,-1.0985l-0.4016 0 0 -1.5 0 -1.5 0.4016 0c0.2635,-0.4553 0.6431,-0.835 1.0984,-1.0985l0 -0.4015 1.5 0 1.5 0 0 0.4015c0.4553,0.2635 0.8349,0.6432 1.0984,1.0985l0.4016 0 0 1.5 0 1.5 -0.4016 0c-0.2635,0.4553 -0.6431,0.835 -1.0984,1.0985l0 0.4015 -1.5 0 -1.5 0z"
	transform="scale(3.5433)"
	/>
	<path 
	style="fill:none;stroke:#000000;stroke-width:0.564445573335591px " 
	d=
	"M50 74.5
	l0 -0.4015c-0.4553,-0.2635 -0.8349,-0.6432 -1.0984,-1.0985l-0.4016 0 0 -1.5 0 -1.5 0.4016 0c0.2635,-0.4553 0.6431,-0.835 1.0984,-1.0985l0 -0.4015 1.5 0 1.5 0 0 0.4015c0.4553,0.2635 0.8349,0.6432 1.0984,1.0985l0.4016 0 0 1.5 0 1.5 -0.4016 0c-0.2635,0.4553 -0.6431,0.835 -1.0984,1.0985l0 0.4015 -1.5 0 -1.5 0z"
	transform="scale(3.5433)"
	/>
	<path 
	style="fill:none;stroke:#000000;stroke-width:0.564445573335591px " 
	d=
	"M50 94.5
	l0 -0.4015c-0.4553,-0.2635 -0.8349,-0.6432 -1.0984,-1.0985l-0.4016 0 0 -1.5 0 -1.5 0.4016 0c0.2635,-0.4553 0.6431,-0.835 1.0984,-1.0985l0 -0.4015 1.5 0 1.5 0 0 0.4015c0.4553,0.2635 0.8349,0.6432 1.0984,1.0985l0.4016 0 0 1.5 0 1.5 -0.4016 0c-0.2635,0.4553 -0.6431,0.835 -1.0984,1.0985l0 0.4015 -1.5 0 -1.5 0z"
	transform="scale(3.5433)"
	/>
	<path 
	style="fill:none;stroke:#000000;stroke-width:0.564445573335591px " 
	d=
	"M50 114.5
	l0 -0.4015c-0.4553,-0.2635 -0.8349,-0.6432 -1.0984,-1.0985l-0.4016 0 0 -1.5 0 -1.5 0.4016 0c0.2635,-0.4553 0.6431,-0.835 1.0984,-1.0985l0 -0.4015 1.5 0 1.5 0 0 0.4015c0.4553,0.2635 0.8349,0.6432 1.0984,1.0985l0.4016 0 0 1.5 0 1.5 -0.4016 0c-0.2635,0.4553 -0.6431,0.835 -1.0984,1.0985l0 0.4015 -1.5 0 -1.5 0z"
	transform="scale(3.5433)"
	/>
	<path 
	style="fill:none;stroke:#000000;stroke-width:0.564445573335591px " 
	d=
	"M70 14.5
	l0 -0.4015c-0.4553,-0.2635 -0.8349,-0.6432 -1.0984,-1.0985l-0.4016 0 0 -1.5 0 -1.5 0.4016 0c0.2635,-0.4553 0.6431,-0.835 1.0984,-1.0985l0 -0.4015 1.5 0 1.5 0 0 0.4015c0.4553,0.2635 0.8349,0.6432 1.0984,1.0985l0.4016 0 0 1.5 0 1.5 -0.4016 0c-0.2635,0.4553 -0.6431,0.835 -1.0984,1.0985l0 0.4015 -1.5 0 -1.5 0z"
	transform="scale(3.5433)"
	/>
	<path 
	style="fill:none;stroke:#000000;stroke-width:0.564445573335591px " 
	d=
	"M70 34.5
	l0 -0.4015c-0.4553,-0.2635 -0.8349,-0.6432 -1.0984,-1.0985l-0.4016 0 0 -1.5 0 -1.5 0.4016 0c0.2635,-0.4553 0.6431,-0.835 1.0984,-1.0985l0 -0.4015 1.5 0 1.5 0 0 0.4015c0.4553,0.2635 0.8349,0.6432 1.0984,1.0985l0.4016 0 0 1.5 0 1.5 -0.4016 0c-0.2635,0.4553 -0.6431,0.835 -1.0984,1.0985l0 0.4015 -1.5 0 -1.5 0z"
	transform="scale(3.5433)"
	/>
	<path 
	style="fill:none;stroke:#000000;stroke-width:0.564445573335591px " 
	d=
	"M70 54.5
	l0 -0.4015c-0.4553,-0.2635 -0.8349,-0.6432 -1.0984,-1.0985l-0.4016 0 0 -1.5 0 -1.5 0.4016 0c0.2635,-0.4553 0.6431,-0.835 1.0984,-1.0985l0 -0.4015 1.5 0 1.5 0 0 0.4015c0.4553,0.2635 0.8349,0.6432 1.0984,1.0985l0.4016 0 0 1.5 0 1.5 -0.4016 0c-0.2635,0.4553 -0.6431,0.835 -1.0984,1.0985l0 0.4015 -1.5 0 -1.5 0z"
	transform="scale(3.5433)"
	/>
	<path 
	style="fill:none;stroke:#000000;stroke-width:0.564445573335591px " 
	d=
	"M70 74.5
	l0 -0.4015c-0.4553,-0.2635 -0.8349,-0.6432 -1.0984,-1.0985l-0.4016 0 0 -1.5 0 -1.5 0.4016 0c0.2635,-0.4553 0.6431,-0.835 1.0984,-1.0985l0 -0.4015 1.5 0 1.5 0 0 0.4015c0.4553,0.2635 0.8349,0.6432 1.0984,1.0985l0.4016 0 0 1.5 0 1.5 -0.4016 0c-0.2635,0.4553 -0.6431,0.835 -1.0984,1.0985l0 0.4015 -1.5 0 -1.5 0z"
	transform="scale(3.5433)"
	/>
	<path 
	style="fill:none;stroke:#000000;stroke-width:0.564445573335591px " 
	d=
	"M70 94.5
	l0 -0.4015c-0.4553,-0.2635 -0.8349,-0.6432 -1.0984,-1.0985l-0.4016 0 0 -1.5 0 -1.5 0.4016 0c0.2635,-0.4553 0.6431,-0.835 1.0984,-1.0985l0 -0.4015 1.5 0 1.5 0 0 0.4015c0.4553,0.2635 0.8349,0.6432 1.0984,1.0985l0.4016 0 0 1.5 0 1.5 -0.4016 0c-0.2635,0.4553 -0.6431,0.835 -1.0984,1.0985l0 0.4015 -1.5 0 -1.5 0z"
	transform="scale(3.5433)"
	/>
	<path 
	style="fill:none;stroke:#000000;stroke-width:0.564445573335591px " 
	d=
	"M70 114.5
	l0 -0.4015c-0.4553,-0.2635 -0.8349,-0.6432 -1.0984,-1.0985l-0.4016 0 0 -1.5 0 -1.5 0.4016 0c0.2635,-0.4553 0.6431,-0.835 1.0984,-1.0985l0 -0.4015 1.5 0 1.5 0 0 0.4015c0.4553,0.2635 0.8349,0.6432 1.0984,1.0985l0.4016 0 0 1.5 0 1.5 -0.4016 0c-0.2635,0.4553 -0.6431,0.835 -1.0984,1.0985l0 0.4015 -1.5 0 -1.5 0z"
	transform="scale(3.5433)"
	/>
	<path 
	style="fill:none;stroke:#000000;stroke-width:0.564445573335591px " 
	d=
	"M90 14.5
	l0 -0.4015c-0.4553,-0.2635 -0.8349,-0.6432 -1.0984,-1.0985l-0.4016 0 0 -1.5 0 -1.5 0.4016 0c0.2635,-0.4553 0.6431,-0.835 1.0984,-1.0985l0 -0.4015 1.5 0 1.5 0 0 0.4015c0.4553,0.2635 0.8349,0.6432 1.0984,1.0985l0.4016 0 0 1.5 0 1.5 -0.4016 0c-0.2635,0.4553 -0.6431,0.835 -1.0984,1.0985l0 0.4015 -1.5 0 -1.5 0z"
	transform="scale(3.5433)"
	/>
	<path 
	style="fill:none;stroke:#000000;stroke-width:0.564445573335591px " 
	d=
	"M90 34.5
	l0 -0.4015c-0.4553,-0.2635 -0.8349,-0.6432 -1.0984,-1.0985l-0.4016 0 0 -1.5 0 -1.5 0.4016 0c0.2635,-0.4553 0.6431,-0.835 1.0984,-1.0985l0 -0.4015 1.5 0 1.5 0 0 0.4015c0.4553,0.2635 0.8349,0.6432 1.0984,1.0985l0.4016 0 0 1.5 0 1.5 -0.4016 0c-0.2635,0.4553 -0.6431,0.835 -1.0984,1.0985l0 0.4015 -1.5 0 -1.5 0z"
	transform="scale(3.5433)"
	/>
	<path 
	style="fill:none;stroke:#000000;stroke-width:0.564445573335591px " 
	d=
	"M90 54.5
	l0 -0.4015c-0.4553,-0.2635 -0.8349,-0.6432 -1.0984,-1.0985l-0.4016 0 0 -1.5 0 -1.5 0.4016 0c0.2635,-0.4553 0.6431,-0.835 1.0984,-1.0985l0 -0.4015 1.5 0 1.5 0 0 0.4015c0.4553,0.2635 0.8349,0.6432 1.0984,1.0985l0.4016 0 0 1.5 0 1.5 -0.4016 0c-0.2635,0.4553 -0.6431,0.835 -1.0984,1.0985l0 0.4015 -1.5 0 -1.5 0z"
	transform="scale(3.5433)"
	/>
	<path 
	style="fill:none;stroke:#000000;stroke-width:0.564445573335591px " 
	d=
	"M90 74.5
	l0 -0.4015c-0.4553,-0.2635 -0.8349,-0.6432 -1.0984,-1.0985l-0.4016 0 0 -1.5 0 -1.5 0.4016 0c0.2635,-0.4553 0.6431,-0.835 1.0984,-1.0985l0 -0.4015 1.5 0 1.5 0 0 0.4015c0.4553,0.2635 0.8349,0.6432 1.0984,1.0985l0.4016 0 0 1.5 0 1.5 -0.4016 0c-0.2635,0.4553 -0.6431,0.835 -1.0984,1.0985l0 0.4015 -1.5 0 -1.5 0z"
	transform="scale(3.5433)"
	/>
	<path 
	style="fill:none;stroke:#000000;stroke-width:0.564445573335591px " 
	d=
	"M90 94.5
	l0 -0.4015c-0.4553,-0.2635 -0.8349,-0.6432 -1.0984,-1.0985l-0.4016 0 0 -1.5 0 -1.5 0.4016 0c0.2635,-0.4553 0.6431,-0.835 1.0984,-1.0985l0 -0.4015 1.5 0 1.5 0 0 0.4015c0.4553,0.2635 0.8349,0.6432 1.0984,1.0985l0.4016 0 0 1.5 0 1.5 -0.4016 0c-0.2635,0.4553 -0.6431,0.835 -1.0984,1.0985l0 0.4015 -1.5 0 -1.5 0z"
	transform="scale(3.5433)"
	/>
	<path 
	style="fill:none;stroke:#000000;stroke-width:0.564445573335591px " 
	d=
	"M90 114.5
	l0 -0.4015c-0.4553,-0.2635 -0.8349,-0.6432 -1.0984,-1.0985l-0.4016 0 0 -1.5 0 -1.5 0.4016 0c0.2635,-0.4553 0.6431,-0.835 1.0984,-1.0985l0 -0.4015 1.5 0 1.5 0 0 0.4015c0.4553,0.2635 0.8349,0.6432 1.0984,1.0985l0.4016 0 0 1.5 0 1.5 -0.4016 0c-0.2635,0.4553 -0.6431,0.835 -1.0984,1.0985l0 0.4015 -1.5 0 -1.5 0z"
	transform="scale(3.5433)"
	/>
	<path 
	style="fill:none;stroke:#000000;stroke-width:0.564445573335591px " 
	d=
	"M110 14.5
	l0 -0.4015c-0.4553,-0.2635 -0.8349,-0.6432 -1.0984,-1.0985l-0.4016 0 0 -1.5 0 -1.5 0.4016 0c0.2635,-0.4553 0.6431,-0.835 1.0984,-1.0985l0 -0.4015 1.5 0 1.5 0 0 0.4015c0.4553,0.2635 0.8349,0.6432 1.0984,1.0985l0.4016 0 0 1.5 0 1.5 -0.4016 0c-0.2635,0.4553 -0.6431,0.835 -1.0984,1.0985l0 0.4015 -1.5 0 -1.5 0z"
	transform="scale(3.5433)"
	/>
	<path 
	style="fill:none;stroke:#000000;stroke-width:0.564445573335591px " 
	d=
	"M110 34.5
	l0 -0.4015c-0.4553,-0.2635 -0.8349,-0.6432 -1.0984,-1.0985l-0.4016 0 0 -1.5 0 -1.5 0.4016 0c0.2635,-0.4553 0.6431,-0.835 1.0984,-1.0985l0 -0.4015 1.5 0 1.5 0 0 0.4015c0.4553,0.2635 0.8349,0.6432 1.0984,1.0985l0.4016 0 0 1.5 0 1.5 -0.4016 0c-0.2635,0.4553 -0.6431,0.835 -1.0984,1.0985l0 0.4015 -1.5 0 -1.5 0z"
	transform="scale(3.5433)"
	/>
	<path 
	style="fill:none;stroke:#000000;stroke-width:0.564445573335591px " 
	d=
	"M110 54.5
	l0 -0.4015c-0.4553,-0.2635 -0.8349,-0.6432 -1.0984,-1.0985l-0.4016 0 0 -1.5 0 -1.5 0.4016 0c0.2635,-0.4553 0.6431,-0.835 1.0984,-1.0985l0 -0.4015 1.5 0 1.5 0 0 0.4015c0.4553,0.2635 0.8349,0.6432 1.0984,1.0985l0.4016 0 0 1.5 0 1.5 -0.4016 0c-0.2635,0.4553 -0.6431,0.835 -1.0984,1.0985l0 0.4015 -1.5 0 -1.5 0z"
	transform="scale(3.5433)"
	/>
	<path 
	style="fill:none;stroke:#000000;stroke-width:0.564445573335591px " 
	d=
	"M110 74.5
	l0 -0.4015c-0.4553,-0.2635 -0.8349,-0.6432 -1.0984,-1.0985l-0.4016 0 0 -1.5 0 -1.5 0.4016 0c0.2635,-0.4553 0.6431,-0.835 1.0984,-1.0985l0 -0.4015 1.5 0 1.5 0 0 0.4015c0.4553,0.2635 0.8349,0.6432 1.0984,1.0985l0.4016 0 0 1.5 0 1.5 -0.4016 0c-0.2635,0.4553 -0.6431,0.835 -1.0984,1.0985l0 0.4015 -1.5 0 -1.5 0z"
	transform="scale(3.5433)"
	/>
	<path 
	style="fill:none;stroke:#000000;stroke-width:0.564445573335591px " 
	d=
	"M110 94.5
	l0 -0.4015c-0.4553,-0.2635 -0.8349,-0.6432 -1.0984,-1.0985l-0.4016 0 0 -1.5 0 -1.5 0.4016 0c0.2635,-0.4553 0.6431,-0.835 1.0984,-1.0985l0 -0.4015 1.5 0 1.5 0 0 0.4015c0.4553,0.2635 0.8349,0.6432 1.0984,1.0985l0.4016 0 0 1.5 0 1.5 -0.4016 0c-0.2635,0.4553 -0.6431,0.835 -1.0984,1.0985l0 0.4015 -1.5 0 -1.5 0z"
	transform="scale(3.5433)"
	/>
	<path 
	style="fill:none;stroke:#000000;stroke-width:0.564445573335591px " 
	d=
	"M110 114.5
	l0 -0.4015c-0.4553,-0.2635 -0.8349,-0.6432 -1.0984,-1.0985l-0.4016 0 0 -1.5 0 -1.5 0.4016 0c0.2635,-0.4553 0.6431,-0.835 1.0984,-1.0985l0 -0.4015 1.5 0 1.5 0 0 0.4015c0.4553,0.2635 0.8349,0.6432 1.0984,1.0985l0.4016 0 0 1.5 0 1.5 -0.4016 0c-0.2635,0.4553 -0.6431,0.835 -1.0984,1.0985l0 0.4015 -1.5 0 -1.5 0z"
	transform="scale(3.5433)"
	/>
	<path 
	style="fill:none;stroke:#000000;stroke-width:0.564445573335591px " 
	d=
	"M130 14.5
	l0 -0.4015c-0.4553,-0.2635 -0.8349,-0.6432 -1.0984,-1.0985l-0.4016 0 0 -1.5 0 -1.5 0.4016 0c0.2635,-0.4553 0.6431,-0.835 1.0984,-1.0985l0 -0.4015 1.5 0 1.5 0 0 0.4015c0.4553,0.2635 0.8349,0.6432 1.0984,1.0985l0.4016 0 0 1.5 0 1.5 -0.4016 0c-0.2635,0.4553 -0.6431,0.835 -1.0984,1.0985l0 0.4015 -1.5 0 -1.5 0z"
	transform="scale(3.5433)"
	/>
	<path 
	style="fill:none;stroke:#000000;stroke-width:0.564445573335591px " 
	d=
	"M130 34.5
	l0 -0.4015c-0.4553,-0.2635 -0.8349,-0.6432 -1.0984,-1.0985l-0.4016 0 0 -1.5 0 -1.5 0.4016 0c0.2635,-0.4553 0.6431,-0.835 1.0984,-1.0985l0 -0.4015 1.5 0 1.5 0 0 0.4015c0.4553,0.2635 0.8349,0.6432 1.0984,1.0985l0.4016 0 0 1.5 0 1.5 -0.4016 0c-0.2635,0.4553 -0.6431,0.835 -1.0984,1.0985l0 0.4015 -1.5 0 -1.5 0z"
	transform="scale(3.5433)"
	/>
	<path 
	style="fill:none;stroke:#000000;stroke-width:0.564445573335591px " 
	d=
	"M130 54.5
	l0 -0.4015c-0.4553,-0.2635 -0.8349,-0.6432 -1.0984,-1.0985l-0.4016 0 0 -1.5 0 -1.5 0.4016 0c0.2635,-0.4553 0.6431,-0.835 1.0984,-1.0985l0 -0.4015 1.5 0 1.5 0 0 0.4015c0.4553,0.2635 0.8349,0.6432 1.0984,1.0985l0.4016 0 0 1.5 0 1.5 -0.4016 0c-0.2635,0.4553 -0.6431,0.835 -1.0984,1.0985l0 0.4015 -1.5 0 -1.5 0z"
	transform="scale(3.5433)"
	/>
	<path 
	style="fill:none;stroke:#000000;stroke-width:0.564445573335591px " 
	d=
	"M130 74.5
	l0 -0.4015c-0.4553,-0.2635 -0.8349,-0.6432 -1.0984,-1.0985l-0.4016 0 0 -1.5 0 -1.5 0.4016 0c0.2635,-0.4553 0.6431,-0.835 1.0984,-1.0985l0 -0.4015 1.5 0 1.5 0 0 0.4015c0.4553,0.2635 0.8349,0.6432 1.0984,1.0985l0.4016 0 0 1.5 0 1.5 -0.4016 0c-0.2635,0.4553 -0.6431,0.835 -1.0984,1.0985l0 0.4015 -1.5 0 -1.5 0z"
	transform="scale(3.5433)"
	/>
	<path 
	style="fill:none;stroke:#000000;stroke-width:0.564445573335591px " 
	d=
	"M130 94.5
	l0 -0.4015c-0.4553,-0.2635 -0.8349,-0.6432 -1.0984,-1.0985l-0.4016 0 0 -1.5 0 -1.5 0.4016 0c0.2635,-0.4553 0.6431,-0.835 1.0984,-1.0985l0 -0.4015 1.5 0 1.5 0 0 0.4015c0.4553,0.2635 0.8349,0.6432 1.0984,1.0985l0.4016 0 0 1.5 0 1.5 -0.4016 0c-0.2635,0.4553 -0.6431,0.835 -1.0984,1.0985l0 0.4015 -1.5 0 -1.5 0z"
	transform="scale(3.5433)"
	/>
	<path 
	style="fill:none;stroke:#000000;stroke-width:0.564445573335591px " 
	d=
	"M130 114.5
	l0 -0.4015c-0.4553,-0.2635 -0.8349,-0.6432 -1.0984,-1.0985l-0.4016 0 0 -1.5 0 -1.5 0.4016 0c0.2635,-0.4553 0.6431,-0.835 1.0984,-1.0985l0 -0.4015 1.5 0 1.5 0 0 0.4015c0.4553,0.2635 0.8349,0.6432 1.0984,1.0985l0.4016 0 0 1.5 0 1.5 -0.4016 0c-0.2635,0.4553 -0.6431,0.835 -1.0984,1.0985l0 0.4015 -1.5 0 -1.5 0z"
	transform="scale(3.5433)"
	/>
	<path 
	style="fill:none;stroke:#000000;stroke-width:0.564445573335591px " 
	d=
	"M150 14.5
	l0 -0.4015c-0.4553,-0.2635 -0.8349,-0.6432 -1.0984,-1.0985l-0.4016 0 0 -1.5 0 -1.5 0.4016 0c0.2635,-0.4553 0.6431,-0.835 1.0984,-1.0985l0 -0.4015 1.5 0 1.5 0 0 0.4015c0.4553,0.2635 0.8349,0.6432 1.0984,1.0985l0.4016 0 0 1.5 0 1.5 -0.4016 0c-0.2635,0.4553 -0.6431,0.835 -1.0984,1.0985l0 0.4015 -1.5 0 -1.5 0z"
	transform="scale(3.5433)"
	/>
	<path 
	style="fill:none;stroke:#000000;stroke-width:0.564445573335591px " 
	d=
	"M150 34.5
	l0 -0.4015c-0.4553,-0.2635 -0.8349,-0.6432 -1.0984,-1.0985l-0.4016 0 0 -1.5 0 -1.5 0.4016 0c0.2635,-0.4553 0.6431,-0.835 1.0984,-1.0985l0 -0.4015 1.5 0 1.5 0 0 0.4015c0.4553,0.2635 0.8349,0.6432 1.0984,1.0985l0.4016 0 0 1.5 0 1.5 -0.4016 0c-0.2635,0.4553 -0.6431,0.835 -1.0984,1.0985l0 0.4015 -1.5 0 -1.5 0z"
	transform="scale(3.5433)"
	/>
	<path 
	style="fill:none;stroke:#000000;stroke-width:0.564445573335591px " 
	d=
	"M150 54.5
	l0 -0.4015c-0.4553,-0.2635 -0.8349,-0.6432 -1.0984,-1.0985l-0.4016 0 0 -1.5 0 -1.5 0.4016 0c0.2635,-0.4553 0.6431,-0.835 1.0984,-1.0985l0 -0.4015 1.5 0 1.5 0 0 0.4015c0.4553,0.2635 0.8349,0.6432 1.0984,1.0985l0.4016 0 0 1.5 0 1.5 -0.4016 0c-0.2635,0.4553 -0.6431,0.835 -1.0984,1.0985l0 0.4015 -1.5 0 -1.5 0z"
	transform="scale(3.5433)"
	/>
	<path 
	style="fill:none;stroke:#000000;stroke-width:0.564445573335591px " 
	d=
	"M150 74.5
	l0 -0.4015c-0.4553,-0.2635 -0.8349,-0.6432 -1.0984,-1.0985l-0.4016 0 0 -1.5 0 -1.5 0.4016 0c0.2635,-0.4553 0.6431,-0.835 1.0984,-1.0985l0 -0.4015 1.5 0 1.5 0 0 0.4015c0.4553,0.2635 0.8349,0.6432 1.0984,1.0985l0.4016 0 0 1.5 0 1.5 -0.4016 0c-0.2635,0.4553 -0.6431,0.835 -1.0984,1.0985l0 0.4015 -1.5 0 -1.5 0z"
	transform="scale(3.5433)"
	/>
	<path 
	style="fill:none;stroke:#000000;stroke-width:0.564445573335591px " 
	d=
	"M150 94.5
	l0 -0.4015c-0.4553,-0.2635 -0.8349,-0.6432 -1.0984,-1.0985l-0.4016 0 0 -1.5 0 -1.5 0.4016 0c0.2635,-0.4553 0.6431,-0.835 1.0984,-1.0985l0 -0.4015 1.5 0 1.5 0 0 0.4015c0.4553,0.2635 0.8349,0.6432 1.0984,1.0985l0.4016 0 0 1.5 0 1.5 -0.4016 0c-0.2635,0.4553 -0.6431,0.835 -1.0984,1.0985l0 0.4015 -1.5 0 -1.5 0z"
	transform="scale(3.5433)"
	/>
	<path 
	style="fill:none;stroke:#000000;stroke-width:0.564445573335591px " 
	d=
	"M150 114.5
	l0 -0.4015c-0.4553,-0.2635 -0.8349,-0.6432 -1.0984,-1.0985l-0.4016 0 0 -1.5 0 -1.5 0.4016 0c0.2635,-0.4553 0.6431,-0.835 1.0984,-1.0985l0 -0.4015 1.5 0 1.5 0 0 0.4015c0.4553,0.2635 0.8349,0.6432 1.0984,1.0985l0.4016 0 0 1.5 0 1.5 -0.4016 0c-0.2635,0.4553 -0.6431,0.835 -1.0984,1.0985l0 0.4015 -1.5 0 -1.5 0z"
	transform="scale(3.5433)"
	/>
	<path 
	style="fill:none;stroke:#000000;stroke-width:0.564445573335591px " 
	d=
	"M170 14.5
	l0 -0.4015c-0.4553,-0.2635 -0.8349,-0.6432 -1.0984,-1.0985l-0.4016 0 0 -1.5 0 -1.5 0.4016 0c0.2635,-0.4553 0.6431,-0.835 1.0984,-1.0985l0 -0.4015 1.5 0 1.5 0 0 0.4015c0.4553,0.2635 0.8349,0.6432 1.0984,1.0985l0.4016 0 0 1.5 0 1.5 -0.4016 0c-0.2635,0.4553 -0.6431,0.835 -1.0984,1.0985l0 0.4015 -1.5 0 -1.5 0z"
	transform="scale(3.5433)"
	/>
	<path 
	style="fill:none;stroke:#000000;stroke-width:0.564445573335591px " 
	d=
	"M170 34.5
	l0 -0.4015c-0.4553,-0.2635 -0.8349,-0.6432 -1.0984,-1.0985l-0.4016 0 0 -1.5 0 -1.5 0.4016 0c0.2635,-0.4553 0.6431,-0.835 1.0984,-1.0985l0 -0.4015 1.5 0 1.5 0 0 0.4015c0.4553,0.2635 0.8349,0.6432 1.0984,1.0985l0.4016 0 0 1.5 0 1.5 -0.4016 0c-0.2635,0.4553 -0.6431,0.835 -1.0984,1.0985l0 0.4015 -1.5 0 -1.5 0z"
	transform="scale(3.5433)"
	/>
	<path 
	style="fill:none;stroke:#000000;stroke-width:0.564445573335591px " 
	d=
	"M170 54.5
	l0 -0.4015c-0.4553,-0.2635 -0.8349,-0.6432 -1.0984,-1.0985l-0.4016 0 0 -1.5 0 -1.5 0.4016 0c0.2635,-0.4553 0.6431,-0.835 1.0984,-1.0985l0 -0.4015 1.5 0 1.5 0 0 0.4015c0.4553,0.2635 0.8349,0.6432 1.0984,1.0985l0.4016 0 0 1.5 0 1.5 -0.4016 0c-0.2635,0.4553 -0.6431,0.835 -1.0984,1.0985l0 0.4015 -1.5 0 -1.5 0z"
	transform="scale(3.5433)"
	/>
	<path 
	style="fill:none;stroke:#000000;stroke-width:0.564445573335591px " 
	d=
	"M170 74.5
	l0 -0.4015c-0.4553,-0.2635 -0.8349,-0.6432 -1.0984,-1.0985l-0.4016 0 0 -1.5 0 -1.5 0.4016 0c0.2635,-0.4553 0.6431,-0.835 1.0984,-1.0985l0 -0.4015 1.5 0 1.5 0 0 0.4015c0.4553,0.2635 0.8349,0.6432 1.0984,1.0985l0.4016 0 0 1.5 0 1.5 -0.4016 0c-0.2635,0.4553 -0.6431,0.835 -1.0984,1.0985l0 0.4015 -1.5 0 -1.5 0z"
	transform="scale(3.5433)"
	/>
	<path 
	style="fill:none;stroke:#000000;stroke-width:0.564445573335591px " 
	d=
	"M170 94.5
	l0 -0.4015c-0.4553,-0.2635 -0.8349,-0.6432 -1.0984,-1.0985l-0.4016 0 0 -1.5 0 -1.5 0.4016 0c0.2635,-0.4553 0.6431,-0.835 1.0984,-1.0985l0 -0.4015 1.5 0 1.5 0 0 0.4015c0.4553,0.2635 0.8349,0.6432 1.0984,1.0985l0.4016 0 0 1.5 0 1.5 -0.4016 0c-0.2635,0.4553 -0.6431,0.835 -1.0984,1.0985l0 0.4015 -1.5 0 -1.5 0z"
	transform="scale(3.5433)"
	/>
	<path 
	style="fill:none;stroke:#000000;stroke-width:0.564445573335591px " 
	d=
	"M170 114.5
	l0 -0.4015c-0.4553,-0.2635 -0.8349,-0.6432 -1.0984,-1.0985l-0.4016 0 0 -1.5 0 -1.5 0.4016 0c0.2635,-0.4553 0.6431,-0.835 1.0984,-1.0985l0 -0.4015 1.5 0 1.5 0 0 0.4015c0.4553,0.2635 0.8349,0.6432 1.0984,1.0985l0.4016 0 0 1.5 0 1.5 -0.4016 0c-0.2635,0.4553 -0.6431,0.835 -1.0984,1.0985l0 0.4015 -1.5 0 -1.5 0z"
	transform="scale(3.5433)"
	/>
	<path 
	style="fill:none;stroke:#000000;stroke-width:0.564445573335591px " 
	d=
	"M190 14.5
	l0 -0.4015c-0.4553,-0.2635 -0.8349,-0.6432 -1.0984,-1.0985l-0.4016 0 0 -1.5 0 -1.5 0.4016 0c0.2635,-0.4553 0.6431,-0.835 1.0984,-1.0985l0 -0.4015 1.5 0 1.5 0 0 0.4015c0.4553,0.2635 0.8349,0.6432 1.0984,1.0985l0.4016 0 0 1.5 0 1.5 -0.4016 0c-0.2635,0.4553 -0.6431,0.835 -1.0984,1.0985l0 0.4015 -1.5 0 -1.5 0z"
	transform="scale(3.5433)"
	/>
	<path 
	style="fill:none;stroke:#000000;stroke-width:0.564445573335591px " 
	d=
	"M190 34.5
	l0 -0.4015c-0.4553,-0.2635 -0.8349,-0.6432 -1.0984,-1.0985l-0.4016 0 0 -1.5 0 -1.5 0.4016 0c0.2635,-0.4553 0.6431,-0.835 1.0984,-1.0985l0 -0.4015 1.5 0 1.5 0 0 0.4015c0.4553,0.2635 0.8349,0.6432 1.0984,1.0985l0.4016 0 0 1.5 0 1.5 -0.4016 0c-0.2635,0.4553 -0.6431,0.835 -1.0984,1.0985l0 0.4015 -1.5 0 -1.5 0z"
	transform="scale(3.5433)"
	/>
	<path 
	style="fill:none;stroke:#000000;stroke-width:0.564445573335591px " 
	d=
	"M190 54.5
	l0 -0.4015c-0.4553,-0.2635 -0.8349,-0.6432 -1.0984,-1.0985l-0.4016 0 0 -1.5 0 -1.5 0.4016 0c0.2635,-0.4553 0.6431,-0.835 1.0984,-1.0985l0 -0.4015 1.5 0 1.5 0 0 0.4015c0.4553,0.2635 0.8349,0.6432 1.0984,1.0985l0.4016 0 0 1.5 0 1.5 -0.4016 0c-0.2635,0.4553 -0.6431,0.835 -1.0984,1.0985l0 0.4015 -1.5 0 -1.5 0z"
	transform="scale(3.5433)"
	/>
	<path 
	style="fill:none;stroke:#000000;stroke-width:0.564445573335591px " 
	d=
	"M190 74.5
	l0 -0.4015c-0.4553,-0.2635 -0.8349,-0.6432 -1.0984,-1.0985l-0.4016 0 0 -1.5 0 -1.5 0.4016 0c0.2635,-0.4553 0.6431,-0.835 1.0984,-1.0985l0 -0.4015 1.5 0 1.5 0 0 0.4015c0.4553,0.2635 0.8349,0.6432 1.0984,1.0985l0.4016 0 0 1.5 0 1.5 -0.4016 0c-0.2635,0.4553 -0.6431,0.835 -1.0984,1.0985l0 0.4015 -1.5 0 -1.5 0z"
	transform="scale(3.5433)"
	/>
	<path 
	style="fill:none;stroke:#000000;stroke-width:0.564445573335591px " 
	d=
	"M190 94.5
	l0 -0.4015c-0.4553,-0.2635 -0.8349,-0.6432 -1.0984,-1.0985l-0.4016 0 0 -1.5 0 -1.5 0.4016 0c0.2635,-0.4553 0.6431,-0.835 1.0984,-1.0985l0 -0.4015 1.5 0 1.5 0 0 0.4015c0.4553,0.2635 0.8349,0.6432 1.0984,1.0985l0.4016 0 0 1.5 0 1.5 -0.4016 0c-0.2635,0.4553 -0.6431,0.835 -1.0984,1.0985l0 0.4015 -1.5 0 -1.5 0z"
	transform="scale(3.5433)"
	/>
	<path 
	style="fill:none;stroke:#000000;stroke-width:0.564445573335591px " 
	d=
	"M190 114.5
	l0 -0.4015c-0.4553,-0.2635 -0.8349,-0.6432 -1.0984,-1.0985l-0.4016 0 0 -1.5 0 -1.5 0.4016 0c0.2635,-0.4553 0.6431,-0.835 1.0984,-1.0985l0 -0.4015 1.5 0 1.5 0 0 0.4015c0.4553,0.2635 0.8349,0.6432 1.0984,1.0985l0.4016 0 0 1.5 0 1.5 -0.4016 0c-0.2635,0.4553 -0.6431,0.835 -1.0984,1.0985l0 0.4015 -1.5 0 -1.5 0z"
	transform="scale(3.5433)"
	/>
	<path 
	style="fill:none;stroke:#000000;stroke-width:0.564445573335591px " 
	d=
	"M210 14.5
	l0 -0.4015c-0.4553,-0.2635 -0.8349,-0.6432 -1.0984,-1.0985l-0.4016 0 0 -1.5 0 -1.5 0.4016 0c0.2635,-0.4553 0.6431,-0.835 1.0984,-1.0985l0 -0.4015 1.5 0 1.5 0 0 0.4015c0.4553,0.2635 0.8349,0.6432 1.0984,1.0985l0.4016 0 0 1.5 0 1.5 -0.4016 0c-0.2635,0.4553 -0.6431,0.835 -1.0984,1.0985l0 0.4015 -1.5 0 -1.5 0z"
	transform="scale(3.5433)"
	/>
	<path 
	style="fill:none;stroke:#000000;stroke-width:0.564445573335591px " 
	d=
	"M210 34.5
	l0 -0.4015c-0.4553,-0.2635 -0.8349,-0.6432 -1.0984,-1.0985l-0.4016 0 0 -1.5 0 -1.5 0.4016 0c0.2635,-0.4553 0.6431,-0.835 1.0984,-1.0985l0 -0.4015 1.5 0 1.5 0 0 0.4015c0.4553,0.2635 0.8349,0.6432 1.0984,1.0985l0.4016 0 0 1.5 0 1.5 -0.4016 0c-0.2635,0.4553 -0.6431,0.835 -1.0984,1.0985l0 0.4015 -1.5 0 -1.5 0z"
	transform="scale(3.5433)"
	/>
	<path 
	style="fill:none;stroke:#000000;stroke-width:0.564445573335591px " 
	d=
	"M210 54.5
	l0 -0.4015c-0.4553,-0.2635 -0.8349,-0.6432 -1.0984,-1.0985l-0.4016 0 0 -1.5 0 -1.5 0.4016 0c0.2635,-0.4553 0.6431,-0.835 1.0984,-1.0985l0 -0.4015 1.5 0 1.5 0 0 0.4015c0.4553,0.2635 0.8349,0.6432 1.0984,1.0985l0.4016 0 0 1.5 0 1.5 -0.4016 0c-0.2635,0.4553 -0.6431,0.835 -1.0984,1.0985l0 0.4015 -1.5 0 -1.5 0z"
	transform="scale(3.5433)"
	/>
	<path 
	style="fill:none;stroke:#000000;stroke-width:0.564445573335591px " 
	d=
	"M210 74.5
	l0 -0.4015c-0.4553,-0.2635 -0.8349,-0.6432 -1.0984,-1.0985l-0.4016 0 0 -1.5 0 -1.5 0.4016 0c0.2635,-0.4553 0.6431,-0.835 1.0984,-1.0985l0 -0.4015 1.5 0 1.5 0 0 0.4015c0.4553,0.2635 0.8349,0.6432 1.0984,1.0985l0.4016 0 0 1.5 0 1.5 -0.4016 0c-0.2635,0.4553 -0.6431,0.835 -1.0984,1.0985l0 0.4015 -1.5 0 -1.5 0z"
	transform="scale(3.5433)"
	/>
	<path 
	style="fill:none;stroke:#000000;stroke-width:0.564445573335591px " 
	d=
	"M210 94.5
	l0 -0.4015c-0.4553,-0.2635 -0.8349,-0.6432 -1.0984,-1.0985l-0.4016 0 0 -1.5 0 -1.5 0.4016 0c0.2635,-0.4553 0.6431,-0.835 1.0984,-1.0985l0 -0.4015 1.5 0 1.5 0 0 0.4015c0.4553,0.2635 0.8349,0.6432 1.0984,1.0985l0.4016 0 0 1.5 0 1.5 -0.4016 0c-0.2635,0.4553 -0.6431,0.835 -1.0984,1.0985l0 0.4015 -1.5 0 -1.5 0z"
	transform="scale(3.5433)"
	/>
	<path 
	style="fill:none;stroke:#000000;stroke-width:0.564445573335591px " 
	d=
	"M210 114.5
	l0 -0.4015c-0.4553,-0.2635 -0.8349,-0.6432 -1.0984,-1.0985l-0.4016 0 0 -1.5 0 -1.5 0.4016 0c0.2635,-0.4553 0.6431,-0.835 1.0984,-1.0985l0 -0.4015 1.5 0 1.5 0 0 0.4015c0.4553,0.2635 0.8349,0.6432 1.0984,1.0985l0.4016 0 0 1.5 0 1.5 -0.4016 0c-0.2635,0.4553 -0.6431,0.835 -1.0984,1.0985l0 0.4015 -1.5 0 -1.5 0z"
	transform="scale(3.5433)"
	/>
	<path 
	style="fill:none;stroke:#000000;stroke-width:0.564445573335591px " 
	d=
	"M230 14.5
	l0 -0.4015c-0.4553,-0.2635 -0.8349,-0.6432 -1.0984,-1.0985l-0.4016 0 0 -1.5 0 -1.5 0.4016 0c0.2635,-0.4553 0.6431,-0.835 1.0984,-1.0985l0 -0.4015 1.5 0 1.5 0 0 0.4015c0.4553,0.2635 0.8349,0.6432 1.0984,1.0985l0.4016 0 0 1.5 0 1.5 -0.4016 0c-0.2635,0.4553 -0.6431,0.835 -1.0984,1.0985l0 0.4015 -1.5 0 -1.5 0z"
	transform="scale(3.5433)"
	/>
	<path 
	style="fill:none;stroke:#000000;stroke-width:0.564445573335591px " 
	d=
	"M230 34.5
	l0 -0.4015c-0.4553,-0.2635 -0.8349,-0.6432 -1.0984,-1.0985l-0.4016 0 0 -1.5 0 -1.5 0.4016 0c0.2635,-0.4553 0.6431,-0.835 1.0984,-1.0985l0 -0.4015 1.5 0 1.5 0 0 0.4015c0.4553,0.2635 0.8349,0.6432 1.0984,1.0985l0.4016 0 0 1.5 0 1.5 -0.4016 0c-0.2635,0.4553 -0.6431,0.835 -1.0984,1.0985l0 0.4015 -1.5 0 -1.5 0z"
	transform="scale(3.5433)"
	/>
	<path 
	style="fill:none;stroke:#000000;stroke-width:0.564445573335591px " 
	d=
	"M230 54.5
	l0 -0.4015c-0.4553,-0.2635 -0.8349,-0.6432 -1.0984,-1.0985l-0.4016 0 0 -1.5 0 -1.5 0.4016 0c0.2635,-0.4553 0.6431,-0.835 1.0984,-1.0985l0 -0.4015 1.5 0 1.5 0 0 0.4015c0.4553,0.2635 0.8349,0.6432 1.0984,1.0985l0.4016 0 0 1.5 0 1.5 -0.4016 0c-0.2635,0.4553 -0.6431,0.835 -1.0984,1.0985l0 0.4015 -1.5 0 -1.5 0z"
	transform="scale(3.5433)"
	/>
	<path 
	style="fill:none;stroke:#000000;stroke-width:0.564445573335591px " 
	d=
	"M230 74.5
	l0 -0.4015c-0.4553,-0.2635 -0.8349,-0.6432 -1.0984,-1.0985l-0.4016 0 0 -1.5 0 -1.5 0.4016 0c0.2635,-0.4553 0.6431,-0.835 1.0984,-1.0985l0 -0.4015 1.5 0 1.5 0 0 0.4015c0.4553,0.2635 0.8349,0.6432 1.0984,1.0985l0.4016 0 0 1.5 0 1.5 -0.4016 0c-0.2635,0.4553 -0.6431,0.835 -1.0984,1.0985l0 0.4015 -1.5 0 -1.5 0z"
	transform="scale(3.5433)"
	/>
	<path 
	style="fill:none;stroke:#000000;stroke-width:0.564445573335591px " 
	d=
	"M230 94.5
	l0 -0.4015c-0.4553,-0.2635 -0.8349,-0.6432 -1.0984,-1.0985l-0.4016 0 0 -1.5 0 -1.5 0.4016 0c0.2635,-0.4553 0.6431,-0.835 1.0984,-1.0985l0 -0.4015 1.5 0 1.5 0 0 0.4015c0.4553,0.2635 0.8349,0.6432 1.0984,1.0985l0.4016 0 0 1.5 0 1.5 -0.4016 0c-0.2635,0.4553 -0.6431,0.835 -1.0984,1.0985l0 0.4015 -1.5 0 -1.5 0z"
	transform="scale(3.5433)"
	/>
	<path 
	style="fill:none;stroke:#000000;stroke-width:0.564445573335591px " 
	d=
	"M230 114.5
	l0 -0.4015c-0.4553,-0.2635 -0.8349,-0.6432 -1.0984,-1.0985l-0.4016 0 0 -1.5 0 -1.5 0.4016 0c0.2635,-0.4553 0.6431,-0.835 1.0984,-1.0985l0 -0.4015 1.5 0 1.5 0 0 0.4015c0.4553,0.2635 0.8349,0.6432 1.0984,1.0985l0.4016 0 0 1.5 0 1.5 -0.4016 0c-0.2635,0.4553 -0.6431,0.835 -1.0984,1.0985l0 0.4015 -1.5 0 -1.5 0z"
	transform="scale(3.5433)"
	/>
	<path 
	style="fill:none;stroke:#000000;stroke-width:0.564445573335591px " 
	d=
	"M250 14.5
	l0 -0.4015c-0.4553,-0.2635 -0.8349,-0.6432 -1.0984,-1.0985l-0.4016 0 0 -1.5 0 -1.5 0.4016 0c0.2635,-0.4553 0.6431,-0.835 1.0984,-1.0985l0 -0.4015 1.5 0 1.5 0 0 0.4015c0.4553,0.2635 0.8349,0.6432 1.0984,1.0985l0.4016 0 0 1.5 0 1.5 -0.4016 0c-0.2635,0.4553 -0.6431,0.835 -1.0984,1.0985l0 0.4015 -1.5 0 -1.5 0z"
	transform="scale(3.5433)"
	/>
	<path 
	style="fill:none;stroke:#000000;stroke-width:0.564445573335591px " 
	d=
	"M250 34.5
	l0 -0.4015c-0.4553,-0.2635 -0.8349,-0.6432 -1.0984,-1.0985l-0.4016 0 0 -1.5 0 -1.5 0.4016 0c0.2635,-0.4553 0.6431,-0.835 1.0984,-1.0985l0 -0.4015 1.5 0 1.5 0 0 0.4015c0.4553,0.2635 0.8349,0.6432 1.0984,1.0985l0.4016 0 0 1.5 0 1.5 -0.4016 0c-0.2635,0.4553 -0.6431,0.835 -1.0984,1.0985l0 0.4015 -1.5 0 -1.5 0z"
	transform="scale(3.5433)"
	/>
	<path 
	style="fill:none;stroke:#000000;stroke-width:0.564445573335591px " 
	d=
	"M250 54.5
	l0 -0.4015c-0.4553,-0.2635 -0.8349,-0.6432 -1.0984,-1.0985l-0.4016 0 0 -1.5 0 -1.5 0.4016 0c0.2635,-0.4553 0.6431,-0.835 1.0984,-1.0985l0 -0.4015 1.5 0 1.5 0 0 0.4015c0.4553,0.2635 0.8349,0.6432 1.0984,1.0985l0.4016 0 0 1.5 0 1.5 -0.4016 0c-0.2635,0.4553 -0.6431,0.835 -1.0984,1.0985l0 0.4015 -1.5 0 -1.5 0z"
	transform="scale(3.5433)"
	/>
	<path 
	style="fill:none;stroke:#000000;stroke-width:0.564445573335591px " 
	d=
	"M250 74.5
	l0 -0.4015c-0.4553,-0.2635 -0.8349,-0.6432 -1.0984,-1.0985l-0.4016 0 0 -1.5 0 -1.5 0.4016 0c0.2635,-0.4553 0.6431,-0.835 1.0984,-1.0985l0 -0.4015 1.5 0 1.5 0 0 0.4015c0.4553,0.2635 0.8349,0.6432 1.0984,1.0985l0.4016 0 0 1.5 0 1.5 -0.4016 0c-0.2635,0.4553 -0.6431,0.835 -1.0984,1.0985l0 0.4015 -1.5 0 -1.5 0z"
	transform="scale(3.5433)"
	/>
	<path 
	style="fill:none;stroke:#000000;stroke-width:0.564445573335591px " 
	d=
	"M250 94.5
	l0 -0.4015c-0.4553,-0.2635 -0.8349,-0.6432 -1.0984,-1.0985l-0.4016 0 0 -1.5 0 -1.5 0.4016 0c0.2635,-0.4553 0.6431,-0.835 1.0984,-1.0985l0 -0.4015 1.5 0 1.5 0 0 0.4015c0.4553,0.2635 0.8349,0.6432 1.0984,1.0985l0.4016 0 0 1.5 0 1.5 -0.4016 0c-0.2635,0.4553 -0.6431,0.835 -1.0984,1.0985l0 0.4015 -1.5 0 -1.5 0z"
	transform="scale(3.5433)"
	/>
	<path 
	style="fill:none;stroke:#000000;stroke-width:0.564445573335591px " 
	d=
	"M250 114.5
	l0 -0.4015c-0.4553,-0.2635 -0.8349,-0.6432 -1.0984,-1.0985l-0.4016 0 0 -1.5 0 -1.5 0.4016 0c0.2635,-0.4553 0.6431,-0.835 1.0984,-1.0985l0 -0.4015 1.5 0 1.5 0 0 0.4015c0.4553,0.2635 0.8349,0.6432 1.0984,1.0985l0.4016 0 0 1.5 0 1.5 -0.4016 0c-0.2635,0.4553 -0.6431,0.835 -1.0984,1.0985l0 0.4015 -1.5 0 -1.5 0z"
	transform="scale(3.5433)"
	/>
	<path 
	style="fill:none;stroke:#000000;stroke-width:0.564445573335591px " 
	d=
	"M270 14.5
	l0 -0.4015c-0.4553,-0.2635 -0.8349,-0.6432 -1.0984,-1.0985l-0.4016 0 0 -1.5 0 -1.5 0.4016 0c0.2635,-0.4553 0.6431,-0.835 1.0984,-1.0985l0 -0.4015 1.5 0 1.5 0 0 0.4015c0.4553,0.2635 0.8349,0.6432 1.0984,1.0985l0.4016 0 0 1.5 0 1.5 -0.4016 0c-0.2635,0.4553 -0.6431,0.835 -1.0984,1.0985l0 0.4015 -1.5 0 -1.5 0z"
	transform="scale(3.5433)"
	/>
	<path 
	style="fill:none;stroke:#000000;stroke-width:0.564445573335591px " 
	d=
	"M270 34.5
	l0 -0.4015c-0.4553,-0.2635 -0.8349,-0.6432 -1.0984,-1.0985l-0.4016 0 0 -1.5 0 -1.5 0.4016 0c0.2635,-0.4553 0.6431,-0.835 1.0984,-1.0985l0 -0.4015 1.5 0 1.5 0 0 0.4015c0.4553,0.2635 0.8349,0.6432 1.0984,1.0985l0.4016 0 0 1.5 0 1.5 -0.4016 0c-0.2635,0.4553 -0.6431,0.835 -1.0984,1.0985l0 0.4015 -1.5 0 -1.5 0z"
	transform="scale(3.5433)"
	/>
	<path 
	style="fill:none;stroke:#000000;stroke-width:0.564445573335591px " 
	d=
	"M270 54.5
	l0 -0.4015c-0.4553,-0.2635 -0.8349,-0.6432 -1.0984,-1.0985l-0.4016 0 0 -1.5 0 -1.5 0.4016 0c0.2635,-0.4553 0.6431,-0.835 1.0984,-1.0985l0 -0.4015 1.5 0 1.5 0 0 0.4015c0.4553,0.2635 0.8349,0.6432 1.0984,1.0985l0.4016 0 0 1.5 0 1.5 -0.4016 0c-0.2635,0.4553 -0.6431,0.835 -1.0984,1.0985l0 0.4015 -1.5 0 -1.5 0z"
	transform="scale(3.5433)"
	/>
	<path 
	style="fill:none;stroke:#000000;stroke-width:0.564445573335591px " 
	d=
	"M270 74.5
	l0 -0.4015c-0.4553,-0.2635 -0.8349,-0.6432 -1.0984,-1.0985l-0.4016 0 0 -1.5 0 -1.5 0.4016 0c0.2635,-0.4553 0.6431,-0.835 1.0984,-1.0985l0 -0.4015 1.5 0 1.5 0 0 0.4015c0.4553,0.2635 0.8349,0.6432 1.0984,1.0985l0.4016 0 0 1.5 0 1.5 -0.4016 0c-0.2635,0.4553 -0.6431,0.835 -1.0984,1.0985l0 0.4015 -1.5 0 -1.5 0z"
	transform="scale(3.5433)"
	/>
	<path 
	style="fill:none;stroke:#000000;stroke-width:0.564445573335591px " 
	d=
	"M270 94.5
	l0 -0.4015c-0.4553,-0.2635 -0.8349,-0.6432 -1.0984,-1.0985l-0.4016 0 0 -1.5 0 -1.5 0.4016 0c0.2635,-0.4553 0.6431,-0.835 1.0984,-1.0985l0 -0.4015 1.5 0 1.5 0 0 0.4015c0.4553,0.2635 0.8349,0.6432 1.0984,1.0985l0.4016 0 0 1.5 0 1.5 -0.4016 0c-0.2635,0.4553 -0.6431,0.835 -1.0984,1.0985l0 0.4015 -1.5 0 -1.5 0z"
	transform="scale(3.5433)"
	/>
	<path 
	style="fill:none;stroke:#000000;stroke-width:0.564445573335591px " 
	d=
	"M270 114.5
	l0 -0.4015c-0.4553,-0.2635 -0.8349,-0.6432 -1.0984,-1.0985l-0.4016 0 0 -1.5 0 -1.5 0.4016 0c0.2635,-0.4553 0.6431,-0.835 1.0984,-1.0985l0 -0.4015 1.5 0 1.5 0 0 0.4015c0.4553,0.2635 0.8349,0.6432 1.0984,1.0985l0.4016 0 0 1.5 0 1.5 -0.4016 0c-0.2635,0.4553 -0.6431,0.835 -1.0984,1.0985l0 0.4015 -1.5 0 -1.5 0z"
	transform="scale(3.5433)"
	/>
	<path 
	style="fill:none;stroke:#000000;stroke-width:0.564445573335591px " 
	d=
	"M290 14.5
	l0 -0.4015c-0.4553,-0.2635 -0.8349,-0.6432 -1.0984,-1.0985l-0.4016 0 0 -1.5 0 -1.5 0.4016 0c0.2635,-0.4553 0.6431,-0.835 1.0984,-1.0985l0 -0.4015 1.5 0 1.5 0 0 0.4015c0.4553,0.2635 0.8349,0.6432 1.0984,1.0985l0.4016 0 0 1.5 0 1.5 -0.4016 0c-0.2635,0.4553 -0.6431,0.835 -1.0984,1.0985l0 0.4015 -1.5 0 -1.5 0z"
	transform="scale(3.5433)"
	/>
	<path 
	style="fill:none;stroke:#000000;stroke-width:0.564445573335591px " 
	d=
	"M290 34.5
	l0 -0.4015c-0.4553,-0.2635 -0.8349,-0.6432 -1.0984,-1.0985l-0.4016 0 0 -1.5 0 -1.5 0.4016 0c0.2635,-0.4553 0.6431,-0.835 1.0984,-1.0985l0 -0.4015 1.5 0 1.5 0 0 0.4015c0.4553,0.2635 0.8349,0.6432 1.0984,1.0985l0.4016 0 0 1.5 0 1.5 -0.4016 0c-0.2635,0.4553 -0.6431,0.835 -1.0984,1.0985l0 0.4015 -1.5 0 -1.5 0z"
	transform="scale(3.5433)"
	/>
	<path 
	style="fill:none;stroke:#000000;stroke-width:0.564445573335591px " 
	d=
	"M290 54.5
	l0 -0.4015c-0.4553,-0.2635 -0.8349,-0.6432 -1.0984,-1.0985l-0.4016 0 0 -1.5 0 -1.5 0.4016 0c0.2635,-0.4553 0.6431,-0.835 1.0984,-1.0985l0 -0.4015 1.5 0 1.5 0 0 0.4015c0.4553,0.2635 0.8349,0.6432 1.0984,1.0985l0.4016 0 0 1.5 0 1.5 -0.4016 0c-0.2635,0.4553 -0.6431,0.835 -1.0984,1.0985l0 0.4015 -1.5 0 -1.5 0z"
	transform="scale(3.5433)"
	/>
	<path 
	style="fill:none;stroke:#000000;stroke-width:0.564445573335591px " 
	d=
	"M290 74.5
	l0 -0.4015c-0.4553,-0.2635 -0.8349,-0.6432 -1.0984,-1.0985l-0.4016 0 0 -1.5 0 -1.5 0.4016 0c0.2635,-0.4553 0.6431,-0.835 1.0984,-1.0985l0 -0.4015 1.5 0 1.5 0 0 0.4015c0.4553,0.2635 0.8349,0.6432 1.0984,1.0985l0.4016 0 0 1.5 0 1.5 -0.4016 0c-0.2635,0.4553 -0.6431,0.835 -1.0984,1.0985l0 0.4015 -1.5 0 -1.5 0z"
	transform="scale(3.5433)"
	/>
	<path 
	style="fill:none;stroke:#000000;stroke-width:0.564445573335591px " 
	d=
	"M290 94.5
	l0 -0.4015c-0.4553,-0.2635 -0.8349,-0.6432 -1.0984,-1.0985l-0.4016 0 0 -1.5 0 -1.5 0.4016 0c0.2635,-0.4553 0.6431,-0.835 1.0984,-1.0985l0 -0.4015 1.5 0 1.5 0 0 0.4015c0.4553,0.2635 0.8349,0.6432 1.0984,1.0985l0.4016 0 0 1.5 0 1.5 -0.4016 0c-0.2635,0.4553 -0.6431,0.835 -1.0984,1.0985l0 0.4015 -1.5 0 -1.5 0z"
	transform="scale(3.5433)"
	/>
	<path 
	style="fill:none;stroke:#000000;stroke-width:0.564445573335591px " 
	d=
	"M290 114.5
	l0 -0.4015c-0.4553,-0.2635 -0.8349,-0.6432 -1.0984,-1.0985l-0.4016 0 0 -1.5 0 -1.5 0.4016 0c0.2635,-0.4553 0.6431,-0.835 1.0984,-1.0985l0 -0.4015 1.5 0 1.5 0 0 0.4015c0.4553,0.2635 0.8349,0.6432 1.0984,1.0985l0.4016 0 0 1.5 0 1.5 -0.4016 0c-0.2635,0.4553 -0.6431,0.835 -1.0984,1.0985l0 0.4015 -1.5 0 -1.5 0z"
	transform="scale(3.5433)"
	/>
	<path 
	style="fill:none;stroke:#000000;stroke-width:0.564445573335591px " 
	d=
	"M310 14.5
	l0 -0.4015c-0.4553,-0.2635 -0.8349,-0.6432 -1.0984,-1.0985l-0.4016 0 0 -1.5 0 -1.5 0.4016 0c0.2635,-0.4553 0.6431,-0.835 1.0984,-1.0985l0 -0.4015 1.5 0 1.5 0 0 0.4015c0.4553,0.2635 0.8349,0.6432 1.0984,1.0985l0.4016 0 0 1.5 0 1.5 -0.4016 0c-0.2635,0.4553 -0.6431,0.835 -1.0984,1.0985l0 0.4015 -1.5 0 -1.5 0z"
	transform="scale(3.5433)"
	/>
	<path 
	style="fill:none;stroke:#000000;stroke-width:0.564445573335591px " 
	d=
	"M310 34.5
	l0 -0.4015c-0.4553,-0.2635 -0.8349,-0.6432 -1.0984,-1.0985l-0.4016 0 0 -1.5 0 -1.5 0.4016 0c0.2635,-0.4553 0.6431,-0.835 1.0984,-1.0985l0 -0.4015 1.5 0 1.5 0 0 0.4015c0.4553,0.2635 0.8349,0.6432 1.0984,1.0985l0.4016 0 0 1.5 0 1.5 -0.4016 0c-0.2635,0.4553 -0.6431,0.835 -1.0984,1.0985l0 0.4015 -1.5 0 -1.5 0z"
	transform="scale(3.5433)"
	/>
	<path 
	style="fill:none;stroke:#000000;stroke-width:0.564445573335591px " 
	d=
	"M310 54.5
	l0 -0.4015c-0.4553,-0.2635 -0.8349,-0.6432 -1.0984,-1.0985l-0.4016 0 0 -1.5 0 -1.5 0.4016 0c0.2635,-0.4553 0.6431,-0.835 1.0984,-1.0985l0 -0.4015 1.5 0 1.5 0 0 0.4015c0.4553,0.2635 0.8349,0.6432 1.0984,1.0985l0.4016 0 0 1.5 0 1.5 -0.4016 0c-0.2635,0.4553 -0.6431,0.835 -1.0984,1.0985l0 0.4015 -1.5 0 -1.5 0z"
	transform="scale(3.5433)"
	/>
	<path 
	style="fill:none;stroke:#000000;stroke-width:0.564445573335591px " 
	d=
	"M310 74.5
	l0 -0.4015c-0.4553,-0.2635 -0.8349,-0.6432 -1.0984,-1.0985l-0.4016 0 0 -1.5 0 -1.5 0.4016 0c0.2635,-0.4553 0.6431,-0.835 1.0984,-1.0985l0 -0.4015 1.5 0 1.5 0 0 0.4015c0.4553,0.2635 0.8349,0.6432 1.0984,1.0985l0.4016 0 0 1.5 0 1.5 -0.4016 0c-0.2635,0.4553 -0.6431,0.835 -1.0984,1.0985l0 0.4015 -1.5 0 -1.5 0z"
	transform="scale(3.5433)"
	/>
	<path 
	style="fill:none;stroke:#000000;stroke-width:0.564445573335591px " 
	d=
	"M310 94.5
	l0 -0.4015c-0.4553,-0.2635 -0.8349,-0.6432 -1.0984,-1.0985l-0.4016 0 0 -1.5 0 -1.5 0.4016 0c0.2635,-0.4553 0.6431,-0.835 1.0984,-1.0985l0 -0.4015 1.5 0 1.5 0 0 0.4015c0.4553,0.2635 0.8349,0.6432 1.0984,1.0985l0.4016 0 0 1.5 0 1.5 -0.4016 0c-0.2635,0.4553 -0.6431,0.835 -1.0984,1.0985l0 0.4015 -1.5 0 -1.5 0z"
	transform="scale(3.5433)"
	/>
	<path 
	style="fill:none;stroke:#000000;stroke-width:0.564445573335591px " 
	d=
	"M310 114.5
	l0 -0.4015c-0.4553,-0.2635 -0.8349,-0.6432 -1.0984,-1.0985l-0.4016 0 0 -1.5 0 -1.5 0.4016 0c0.2635,-0.4553 0.6431,-0.835 1.0984,-1.0985l0 -0.4015 1.5 0 1.5 0 0 0.4015c0.4553,0.2635 0.8349,0.6432 1.0984,1.0985l0.4016 0 0 1.5 0 1.5 -0.4016 0c-0.2635,0.4553 -0.6431,0.835 -1.0984,1.0985l0 0.4015 -1.5 0 -1.5 0z"
	transform="scale(3.5433)"
	/>
	<rect
		style="fill:none;stroke:#000000;stroke-width:2px " 
		x="10mm"
		y="98.5mm"
		width="3mm"
		height="6mm"
		id="oomID2064"
	/>
	<rect
		style="fill:none;stroke:#000000;stroke-width:2px " 
		x="10mm"
		y="78.5mm"
		width="3mm"
		height="6mm"
		id="oomID2065"
	/>
	<rect
		style="fill:none;stroke:#000000;stroke-width:2px " 
		x="10mm"
		y="58.5mm"
		width="3mm"
		height="6mm"
		id="oomID2066"
	/>
	<rect
		style="fill:none;stroke:#000000;stroke-width:2px " 
		x="10mm"
		y="38.5mm"
		width="3mm"
		height="6mm"
		id="oomID2067"
	/>
	<rect
		style="fill:none;stroke:#000000;stroke-width:2px " 
		x="10mm"
		y="18.5mm"
		width="3mm"
		height="6mm"
		id="oomID2068"
	/>
	<rect
		style="fill:none;stroke:#000000;stroke-width:2px " 
		x="30mm"
		y="98.5mm"
		width="3mm"
		height="6mm"
		id="oomID2069"
	/>
	<rect
		style="fill:none;stroke:#000000;stroke-width:2px " 
		x="30mm"
		y="78.5mm"
		width="3mm"
		height="6mm"
		id="oomID2070"
	/>
	<rect
		style="fill:none;stroke:#000000;stroke-width:2px " 
		x="30mm"
		y="58.5mm"
		width="3mm"
		height="6mm"
		id="oomID2071"
	/>
	<rect
		style="fill:none;stroke:#000000;stroke-width:2px " 
		x="30mm"
		y="38.5mm"
		width="3mm"
		height="6mm"
		id="oomID2072"
	/>
	<rect
		style="fill:none;stroke:#000000;stroke-width:2px " 
		x="30mm"
		y="18.5mm"
		width="3mm"
		height="6mm"
		id="oomID2073"
	/>
	<rect
		style="fill:none;stroke:#000000;stroke-width:2px " 
		x="50mm"
		y="98.5mm"
		width="3mm"
		height="6mm"
		id="oomID2074"
	/>
	<rect
		style="fill:none;stroke:#000000;stroke-width:2px " 
		x="50mm"
		y="78.5mm"
		width="3mm"
		height="6mm"
		id="oomID2075"
	/>
	<rect
		style="fill:none;stroke:#000000;stroke-width:2px " 
		x="50mm"
		y="58.5mm"
		width="3mm"
		height="6mm"
		id="oomID2076"
	/>
	<rect
		style="fill:none;stroke:#000000;stroke-width:2px " 
		x="50mm"
		y="38.5mm"
		width="3mm"
		height="6mm"
		id="oomID2077"
	/>
	<rect
		style="fill:none;stroke:#000000;stroke-width:2px " 
		x="50mm"
		y="18.5mm"
		width="3mm"
		height="6mm"
		id="oomID2078"
	/>
	<rect
		style="fill:none;stroke:#000000;stroke-width:2px " 
		x="70mm"
		y="98.5mm"
		width="3mm"
		height="6mm"
		id="oomID2079"
	/>
	<rect
		style="fill:none;stroke:#000000;stroke-width:2px " 
		x="70mm"
		y="78.5mm"
		width="3mm"
		height="6mm"
		id="oomID2080"
	/>
	<rect
		style="fill:none;stroke:#000000;stroke-width:2px " 
		x="70mm"
		y="58.5mm"
		width="3mm"
		height="6mm"
		id="oomID2081"
	/>
	<rect
		style="fill:none;stroke:#000000;stroke-width:2px " 
		x="70mm"
		y="38.5mm"
		width="3mm"
		height="6mm"
		id="oomID2082"
	/>
	<rect
		style="fill:none;stroke:#000000;stroke-width:2px " 
		x="70mm"
		y="18.5mm"
		width="3mm"
		height="6mm"
		id="oomID2083"
	/>
	<rect
		style="fill:none;stroke:#000000;stroke-width:2px " 
		x="90mm"
		y="98.5mm"
		width="3mm"
		height="6mm"
		id="oomID2084"
	/>
	<rect
		style="fill:none;stroke:#000000;stroke-width:2px " 
		x="90mm"
		y="78.5mm"
		width="3mm"
		height="6mm"
		id="oomID2085"
	/>
	<rect
		style="fill:none;stroke:#000000;stroke-width:2px " 
		x="90mm"
		y="58.5mm"
		width="3mm"
		height="6mm"
		id="oomID2086"
	/>
	<rect
		style="fill:none;stroke:#000000;stroke-width:2px " 
		x="90mm"
		y="38.5mm"
		width="3mm"
		height="6mm"
		id="oomID2087"
	/>
	<rect
		style="fill:none;stroke:#000000;stroke-width:2px " 
		x="90mm"
		y="18.5mm"
		width="3mm"
		height="6mm"
		id="oomID2088"
	/>
	<rect
		style="fill:none;stroke:#000000;stroke-width:2px " 
		x="110mm"
		y="98.5mm"
		width="3mm"
		height="6mm"
		id="oomID2089"
	/>
	<rect
		style="fill:none;stroke:#000000;stroke-width:2px " 
		x="110mm"
		y="78.5mm"
		width="3mm"
		height="6mm"
		id="oomID2090"
	/>
	<rect
		style="fill:none;stroke:#000000;stroke-width:2px " 
		x="110mm"
		y="58.5mm"
		width="3mm"
		height="6mm"
		id="oomID2091"
	/>
	<rect
		style="fill:none;stroke:#000000;stroke-width:2px " 
		x="110mm"
		y="38.5mm"
		width="3mm"
		height="6mm"
		id="oomID2092"
	/>
	<rect
		style="fill:none;stroke:#000000;stroke-width:2px " 
		x="110mm"
		y="18.5mm"
		width="3mm"
		height="6mm"
		id="oomID2093"
	/>
	<rect
		style="fill:none;stroke:#000000;stroke-width:2px " 
		x="130mm"
		y="98.5mm"
		width="3mm"
		height="6mm"
		id="oomID2094"
	/>
	<rect
		style="fill:none;stroke:#000000;stroke-width:2px " 
		x="130mm"
		y="78.5mm"
		width="3mm"
		height="6mm"
		id="oomID2095"
	/>
	<rect
		style="fill:none;stroke:#000000;stroke-width:2px " 
		x="130mm"
		y="58.5mm"
		width="3mm"
		height="6mm"
		id="oomID2096"
	/>
	<rect
		style="fill:none;stroke:#000000;stroke-width:2px " 
		x="130mm"
		y="38.5mm"
		width="3mm"
		height="6mm"
		id="oomID2097"
	/>
	<rect
		style="fill:none;stroke:#000000;stroke-width:2px " 
		x="130mm"
		y="18.5mm"
		width="3mm"
		height="6mm"
		id="oomID2098"
	/>
	<rect
		style="fill:none;stroke:#000000;stroke-width:2px " 
		x="150mm"
		y="98.5mm"
		width="3mm"
		height="6mm"
		id="oomID2099"
	/>
	<rect
		style="fill:none;stroke:#000000;stroke-width:2px " 
		x="150mm"
		y="78.5mm"
		width="3mm"
		height="6mm"
		id="oomID2100"
	/>
	<rect
		style="fill:none;stroke:#000000;stroke-width:2px " 
		x="150mm"
		y="58.5mm"
		width="3mm"
		height="6mm"
		id="oomID2101"
	/>
	<rect
		style="fill:none;stroke:#000000;stroke-width:2px " 
		x="150mm"
		y="38.5mm"
		width="3mm"
		height="6mm"
		id="oomID2102"
	/>
	<rect
		style="fill:none;stroke:#000000;stroke-width:2px " 
		x="150mm"
		y="18.5mm"
		width="3mm"
		height="6mm"
		id="oomID2103"
	/>
	<rect
		style="fill:none;stroke:#000000;stroke-width:2px " 
		x="170mm"
		y="98.5mm"
		width="3mm"
		height="6mm"
		id="oomID2104"
	/>
	<rect
		style="fill:none;stroke:#000000;stroke-width:2px " 
		x="170mm"
		y="78.5mm"
		width="3mm"
		height="6mm"
		id="oomID2105"
	/>
	<rect
		style="fill:none;stroke:#000000;stroke-width:2px " 
		x="170mm"
		y="58.5mm"
		width="3mm"
		height="6mm"
		id="oomID2106"
	/>
	<rect
		style="fill:none;stroke:#000000;stroke-width:2px " 
		x="170mm"
		y="38.5mm"
		width="3mm"
		height="6mm"
		id="oomID2107"
	/>
	<rect
		style="fill:none;stroke:#000000;stroke-width:2px " 
		x="170mm"
		y="18.5mm"
		width="3mm"
		height="6mm"
		id="oomID2108"
	/>
	<rect
		style="fill:none;stroke:#000000;stroke-width:2px " 
		x="190mm"
		y="98.5mm"
		width="3mm"
		height="6mm"
		id="oomID2109"
	/>
	<rect
		style="fill:none;stroke:#000000;stroke-width:2px " 
		x="190mm"
		y="78.5mm"
		width="3mm"
		height="6mm"
		id="oomID2110"
	/>
	<rect
		style="fill:none;stroke:#000000;stroke-width:2px " 
		x="190mm"
		y="58.5mm"
		width="3mm"
		height="6mm"
		id="oomID2111"
	/>
	<rect
		style="fill:none;stroke:#000000;stroke-width:2px " 
		x="190mm"
		y="38.5mm"
		width="3mm"
		height="6mm"
		id="oomID2112"
	/>
	<rect
		style="fill:none;stroke:#000000;stroke-width:2px " 
		x="190mm"
		y="18.5mm"
		width="3mm"
		height="6mm"
		id="oomID2113"
	/>
	<rect
		style="fill:none;stroke:#000000;stroke-width:2px " 
		x="210mm"
		y="98.5mm"
		width="3mm"
		height="6mm"
		id="oomID2114"
	/>
	<rect
		style="fill:none;stroke:#000000;stroke-width:2px " 
		x="210mm"
		y="78.5mm"
		width="3mm"
		height="6mm"
		id="oomID2115"
	/>
	<rect
		style="fill:none;stroke:#000000;stroke-width:2px " 
		x="210mm"
		y="58.5mm"
		width="3mm"
		height="6mm"
		id="oomID2116"
	/>
	<rect
		style="fill:none;stroke:#000000;stroke-width:2px " 
		x="210mm"
		y="38.5mm"
		width="3mm"
		height="6mm"
		id="oomID2117"
	/>
	<rect
		style="fill:none;stroke:#000000;stroke-width:2px " 
		x="210mm"
		y="18.5mm"
		width="3mm"
		height="6mm"
		id="oomID2118"
	/>
	<rect
		style="fill:none;stroke:#000000;stroke-width:2px " 
		x="230mm"
		y="98.5mm"
		width="3mm"
		height="6mm"
		id="oomID2119"
	/>
	<rect
		style="fill:none;stroke:#000000;stroke-width:2px " 
		x="230mm"
		y="78.5mm"
		width="3mm"
		height="6mm"
		id="oomID2120"
	/>
	<rect
		style="fill:none;stroke:#000000;stroke-width:2px " 
		x="230mm"
		y="58.5mm"
		width="3mm"
		height="6mm"
		id="oomID2121"
	/>
	<rect
		style="fill:none;stroke:#000000;stroke-width:2px " 
		x="230mm"
		y="38.5mm"
		width="3mm"
		height="6mm"
		id="oomID2122"
	/>
	<rect
		style="fill:none;stroke:#000000;stroke-width:2px " 
		x="230mm"
		y="18.5mm"
		width="3mm"
		height="6mm"
		id="oomID2123"
	/>
	<rect
		style="fill:none;stroke:#000000;stroke-width:2px " 
		x="250mm"
		y="98.5mm"
		width="3mm"
		height="6mm"
		id="oomID2124"
	/>
	<rect
		style="fill:none;stroke:#000000;stroke-width:2px " 
		x="250mm"
		y="78.5mm"
		width="3mm"
		height="6mm"
		id="oomID2125"
	/>
	<rect
		style="fill:none;stroke:#000000;stroke-width:2px " 
		x="250mm"
		y="58.5mm"
		width="3mm"
		height="6mm"
		id="oomID2126"
	/>
	<rect
		style="fill:none;stroke:#000000;stroke-width:2px " 
		x="250mm"
		y="38.5mm"
		width="3mm"
		height="6mm"
		id="oomID2127"
	/>
	<rect
		style="fill:none;stroke:#000000;stroke-width:2px " 
		x="250mm"
		y="18.5mm"
		width="3mm"
		height="6mm"
		id="oomID2128"
	/>
	<rect
		style="fill:none;stroke:#000000;stroke-width:2px " 
		x="270mm"
		y="98.5mm"
		width="3mm"
		height="6mm"
		id="oomID2129"
	/>
	<rect
		style="fill:none;stroke:#000000;stroke-width:2px " 
		x="270mm"
		y="78.5mm"
		width="3mm"
		height="6mm"
		id="oomID2130"
	/>
	<rect
		style="fill:none;stroke:#000000;stroke-width:2px " 
		x="270mm"
		y="58.5mm"
		width="3mm"
		height="6mm"
		id="oomID2131"
	/>
	<rect
		style="fill:none;stroke:#000000;stroke-width:2px " 
		x="270mm"
		y="38.5mm"
		width="3mm"
		height="6mm"
		id="oomID2132"
	/>
	<rect
		style="fill:none;stroke:#000000;stroke-width:2px " 
		x="270mm"
		y="18.5mm"
		width="3mm"
		height="6mm"
		id="oomID2133"
	/>
	<rect
		style="fill:none;stroke:#000000;stroke-width:2px " 
		x="290mm"
		y="98.5mm"
		width="3mm"
		height="6mm"
		id="oomID2134"
	/>
	<rect
		style="fill:none;stroke:#000000;stroke-width:2px " 
		x="290mm"
		y="78.5mm"
		width="3mm"
		height="6mm"
		id="oomID2135"
	/>
	<rect
		style="fill:none;stroke:#000000;stroke-width:2px " 
		x="290mm"
		y="58.5mm"
		width="3mm"
		height="6mm"
		id="oomID2136"
	/>
	<rect
		style="fill:none;stroke:#000000;stroke-width:2px " 
		x="290mm"
		y="38.5mm"
		width="3mm"
		height="6mm"
		id="oomID2137"
	/>
	<rect
		style="fill:none;stroke:#000000;stroke-width:2px " 
		x="290mm"
		y="18.5mm"
		width="3mm"
		height="6mm"
		id="oomID2138"
	/>
	<rect
		style="fill:none;stroke:#000000;stroke-width:2px " 
		x="310mm"
		y="98.5mm"
		width="3mm"
		height="6mm"
		id="oomID2139"
	/>
	<rect
		style="fill:none;stroke:#000000;stroke-width:2px " 
		x="310mm"
		y="78.5mm"
		width="3mm"
		height="6mm"
		id="oomID2140"
	/>
	<rect
		style="fill:none;stroke:#000000;stroke-width:2px " 
		x="310mm"
		y="58.5mm"
		width="3mm"
		height="6mm"
		id="oomID2141"
	/>
	<rect
		style="fill:none;stroke:#000000;stroke-width:2px " 
		x="310mm"
		y="38.5mm"
		width="3mm"
		height="6mm"
		id="oomID2142"
	/>
	<rect
		style="fill:none;stroke:#000000;stroke-width:2px " 
		x="310mm"
		y="18.5mm"
		width="3mm"
		height="6mm"
		id="oomID2143"
	/>
	<rect
		style="fill:none;stroke:#000000;stroke-width:2px " 
		x="18.5mm"
		y="110mm"
		width="6mm"
		height="3mm"
		id="oomID2144"
	/>
	<rect
		style="fill:none;stroke:#000000;stroke-width:2px " 
		x="18.5mm"
		y="90mm"
		width="6mm"
		height="3mm"
		id="oomID2145"
	/>
	<rect
		style="fill:none;stroke:#000000;stroke-width:2px " 
		x="18.5mm"
		y="70mm"
		width="6mm"
		height="3mm"
		id="oomID2146"
	/>
	<rect
		style="fill:none;stroke:#000000;stroke-width:2px " 
		x="18.5mm"
		y="50mm"
		width="6mm"
		height="3mm"
		id="oomID2147"
	/>
	<rect
		style="fill:none;stroke:#000000;stroke-width:2px " 
		x="18.5mm"
		y="30mm"
		width="6mm"
		height="3mm"
		id="oomID2148"
	/>
	<rect
		style="fill:none;stroke:#000000;stroke-width:2px " 
		x="18.5mm"
		y="10mm"
		width="6mm"
		height="3mm"
		id="oomID2149"
	/>
	<rect
		style="fill:none;stroke:#000000;stroke-width:2px " 
		x="38.5mm"
		y="110mm"
		width="6mm"
		height="3mm"
		id="oomID2150"
	/>
	<rect
		style="fill:none;stroke:#000000;stroke-width:2px " 
		x="38.5mm"
		y="90mm"
		width="6mm"
		height="3mm"
		id="oomID2151"
	/>
	<rect
		style="fill:none;stroke:#000000;stroke-width:2px " 
		x="38.5mm"
		y="70mm"
		width="6mm"
		height="3mm"
		id="oomID2152"
	/>
	<rect
		style="fill:none;stroke:#000000;stroke-width:2px " 
		x="38.5mm"
		y="50mm"
		width="6mm"
		height="3mm"
		id="oomID2153"
	/>
	<rect
		style="fill:none;stroke:#000000;stroke-width:2px " 
		x="38.5mm"
		y="30mm"
		width="6mm"
		height="3mm"
		id="oomID2154"
	/>
	<rect
		style="fill:none;stroke:#000000;stroke-width:2px " 
		x="38.5mm"
		y="10mm"
		width="6mm"
		height="3mm"
		id="oomID2155"
	/>
	<rect
		style="fill:none;stroke:#000000;stroke-width:2px " 
		x="58.5mm"
		y="110mm"
		width="6mm"
		height="3mm"
		id="oomID2156"
	/>
	<rect
		style="fill:none;stroke:#000000;stroke-width:2px " 
		x="58.5mm"
		y="90mm"
		width="6mm"
		height="3mm"
		id="oomID2157"
	/>
	<rect
		style="fill:none;stroke:#000000;stroke-width:2px " 
		x="58.5mm"
		y="70mm"
		width="6mm"
		height="3mm"
		id="oomID2158"
	/>
	<rect
		style="fill:none;stroke:#000000;stroke-width:2px " 
		x="58.5mm"
		y="50mm"
		width="6mm"
		height="3mm"
		id="oomID2159"
	/>
	<rect
		style="fill:none;stroke:#000000;stroke-width:2px " 
		x="58.5mm"
		y="30mm"
		width="6mm"
		height="3mm"
		id="oomID2160"
	/>
	<rect
		style="fill:none;stroke:#000000;stroke-width:2px " 
		x="58.5mm"
		y="10mm"
		width="6mm"
		height="3mm"
		id="oomID2161"
	/>
	<rect
		style="fill:none;stroke:#000000;stroke-width:2px " 
		x="78.5mm"
		y="110mm"
		width="6mm"
		height="3mm"
		id="oomID2162"
	/>
	<rect
		style="fill:none;stroke:#000000;stroke-width:2px " 
		x="78.5mm"
		y="90mm"
		width="6mm"
		height="3mm"
		id="oomID2163"
	/>
	<rect
		style="fill:none;stroke:#000000;stroke-width:2px " 
		x="78.5mm"
		y="70mm"
		width="6mm"
		height="3mm"
		id="oomID2164"
	/>
	<rect
		style="fill:none;stroke:#000000;stroke-width:2px " 
		x="78.5mm"
		y="50mm"
		width="6mm"
		height="3mm"
		id="oomID2165"
	/>
	<rect
		style="fill:none;stroke:#000000;stroke-width:2px " 
		x="78.5mm"
		y="30mm"
		width="6mm"
		height="3mm"
		id="oomID2166"
	/>
	<rect
		style="fill:none;stroke:#000000;stroke-width:2px " 
		x="78.5mm"
		y="10mm"
		width="6mm"
		height="3mm"
		id="oomID2167"
	/>
	<rect
		style="fill:none;stroke:#000000;stroke-width:2px " 
		x="98.5mm"
		y="110mm"
		width="6mm"
		height="3mm"
		id="oomID2168"
	/>
	<rect
		style="fill:none;stroke:#000000;stroke-width:2px " 
		x="98.5mm"
		y="90mm"
		width="6mm"
		height="3mm"
		id="oomID2169"
	/>
	<rect
		style="fill:none;stroke:#000000;stroke-width:2px " 
		x="98.5mm"
		y="70mm"
		width="6mm"
		height="3mm"
		id="oomID2170"
	/>
	<rect
		style="fill:none;stroke:#000000;stroke-width:2px " 
		x="98.5mm"
		y="50mm"
		width="6mm"
		height="3mm"
		id="oomID2171"
	/>
	<rect
		style="fill:none;stroke:#000000;stroke-width:2px " 
		x="98.5mm"
		y="30mm"
		width="6mm"
		height="3mm"
		id="oomID2172"
	/>
	<rect
		style="fill:none;stroke:#000000;stroke-width:2px " 
		x="98.5mm"
		y="10mm"
		width="6mm"
		height="3mm"
		id="oomID2173"
	/>
	<rect
		style="fill:none;stroke:#000000;stroke-width:2px " 
		x="118.5mm"
		y="110mm"
		width="6mm"
		height="3mm"
		id="oomID2174"
	/>
	<rect
		style="fill:none;stroke:#000000;stroke-width:2px " 
		x="118.5mm"
		y="90mm"
		width="6mm"
		height="3mm"
		id="oomID2175"
	/>
	<rect
		style="fill:none;stroke:#000000;stroke-width:2px " 
		x="118.5mm"
		y="70mm"
		width="6mm"
		height="3mm"
		id="oomID2176"
	/>
	<rect
		style="fill:none;stroke:#000000;stroke-width:2px " 
		x="118.5mm"
		y="50mm"
		width="6mm"
		height="3mm"
		id="oomID2177"
	/>
	<rect
		style="fill:none;stroke:#000000;stroke-width:2px " 
		x="118.5mm"
		y="30mm"
		width="6mm"
		height="3mm"
		id="oomID2178"
	/>
	<rect
		style="fill:none;stroke:#000000;stroke-width:2px " 
		x="118.5mm"
		y="10mm"
		width="6mm"
		height="3mm"
		id="oomID2179"
	/>
	<rect
		style="fill:none;stroke:#000000;stroke-width:2px " 
		x="138.5mm"
		y="110mm"
		width="6mm"
		height="3mm"
		id="oomID2180"
	/>
	<rect
		style="fill:none;stroke:#000000;stroke-width:2px " 
		x="138.5mm"
		y="90mm"
		width="6mm"
		height="3mm"
		id="oomID2181"
	/>
	<rect
		style="fill:none;stroke:#000000;stroke-width:2px " 
		x="138.5mm"
		y="70mm"
		width="6mm"
		height="3mm"
		id="oomID2182"
	/>
	<rect
		style="fill:none;stroke:#000000;stroke-width:2px " 
		x="138.5mm"
		y="50mm"
		width="6mm"
		height="3mm"
		id="oomID2183"
	/>
	<rect
		style="fill:none;stroke:#000000;stroke-width:2px " 
		x="138.5mm"
		y="30mm"
		width="6mm"
		height="3mm"
		id="oomID2184"
	/>
	<rect
		style="fill:none;stroke:#000000;stroke-width:2px " 
		x="138.5mm"
		y="10mm"
		width="6mm"
		height="3mm"
		id="oomID2185"
	/>
	<rect
		style="fill:none;stroke:#000000;stroke-width:2px " 
		x="158.5mm"
		y="110mm"
		width="6mm"
		height="3mm"
		id="oomID2186"
	/>
	<rect
		style="fill:none;stroke:#000000;stroke-width:2px " 
		x="158.5mm"
		y="90mm"
		width="6mm"
		height="3mm"
		id="oomID2187"
	/>
	<rect
		style="fill:none;stroke:#000000;stroke-width:2px " 
		x="158.5mm"
		y="70mm"
		width="6mm"
		height="3mm"
		id="oomID2188"
	/>
	<rect
		style="fill:none;stroke:#000000;stroke-width:2px " 
		x="158.5mm"
		y="50mm"
		width="6mm"
		height="3mm"
		id="oomID2189"
	/>
	<rect
		style="fill:none;stroke:#000000;stroke-width:2px " 
		x="158.5mm"
		y="30mm"
		width="6mm"
		height="3mm"
		id="oomID2190"
	/>
	<rect
		style="fill:none;stroke:#000000;stroke-width:2px " 
		x="158.5mm"
		y="10mm"
		width="6mm"
		height="3mm"
		id="oomID2191"
	/>
	<rect
		style="fill:none;stroke:#000000;stroke-width:2px " 
		x="178.5mm"
		y="110mm"
		width="6mm"
		height="3mm"
		id="oomID2192"
	/>
	<rect
		style="fill:none;stroke:#000000;stroke-width:2px " 
		x="178.5mm"
		y="90mm"
		width="6mm"
		height="3mm"
		id="oomID2193"
	/>
	<rect
		style="fill:none;stroke:#000000;stroke-width:2px " 
		x="178.5mm"
		y="70mm"
		width="6mm"
		height="3mm"
		id="oomID2194"
	/>
	<rect
		style="fill:none;stroke:#000000;stroke-width:2px " 
		x="178.5mm"
		y="50mm"
		width="6mm"
		height="3mm"
		id="oomID2195"
	/>
	<rect
		style="fill:none;stroke:#000000;stroke-width:2px " 
		x="178.5mm"
		y="30mm"
		width="6mm"
		height="3mm"
		id="oomID2196"
	/>
	<rect
		style="fill:none;stroke:#000000;stroke-width:2px " 
		x="178.5mm"
		y="10mm"
		width="6mm"
		height="3mm"
		id="oomID2197"
	/>
	<rect
		style="fill:none;stroke:#000000;stroke-width:2px " 
		x="198.5mm"
		y="110mm"
		width="6mm"
		height="3mm"
		id="oomID2198"
	/>
	<rect
		style="fill:none;stroke:#000000;stroke-width:2px " 
		x="198.5mm"
		y="90mm"
		width="6mm"
		height="3mm"
		id="oomID2199"
	/>
	<rect
		style="fill:none;stroke:#000000;stroke-width:2px " 
		x="198.5mm"
		y="70mm"
		width="6mm"
		height="3mm"
		id="oomID2200"
	/>
	<rect
		style="fill:none;stroke:#000000;stroke-width:2px " 
		x="198.5mm"
		y="50mm"
		width="6mm"
		height="3mm"
		id="oomID2201"
	/>
	<rect
		style="fill:none;stroke:#000000;stroke-width:2px " 
		x="198.5mm"
		y="30mm"
		width="6mm"
		height="3mm"
		id="oomID2202"
	/>
	<rect
		style="fill:none;stroke:#000000;stroke-width:2px " 
		x="198.5mm"
		y="10mm"
		width="6mm"
		height="3mm"
		id="oomID2203"
	/>
	<rect
		style="fill:none;stroke:#000000;stroke-width:2px " 
		x="218.5mm"
		y="110mm"
		width="6mm"
		height="3mm"
		id="oomID2204"
	/>
	<rect
		style="fill:none;stroke:#000000;stroke-width:2px " 
		x="218.5mm"
		y="90mm"
		width="6mm"
		height="3mm"
		id="oomID2205"
	/>
	<rect
		style="fill:none;stroke:#000000;stroke-width:2px " 
		x="218.5mm"
		y="70mm"
		width="6mm"
		height="3mm"
		id="oomID2206"
	/>
	<rect
		style="fill:none;stroke:#000000;stroke-width:2px " 
		x="218.5mm"
		y="50mm"
		width="6mm"
		height="3mm"
		id="oomID2207"
	/>
	<rect
		style="fill:none;stroke:#000000;stroke-width:2px " 
		x="218.5mm"
		y="30mm"
		width="6mm"
		height="3mm"
		id="oomID2208"
	/>
	<rect
		style="fill:none;stroke:#000000;stroke-width:2px " 
		x="218.5mm"
		y="10mm"
		width="6mm"
		height="3mm"
		id="oomID2209"
	/>
	<rect
		style="fill:none;stroke:#000000;stroke-width:2px " 
		x="238.5mm"
		y="110mm"
		width="6mm"
		height="3mm"
		id="oomID2210"
	/>
	<rect
		style="fill:none;stroke:#000000;stroke-width:2px " 
		x="238.5mm"
		y="90mm"
		width="6mm"
		height="3mm"
		id="oomID2211"
	/>
	<rect
		style="fill:none;stroke:#000000;stroke-width:2px " 
		x="238.5mm"
		y="70mm"
		width="6mm"
		height="3mm"
		id="oomID2212"
	/>
	<rect
		style="fill:none;stroke:#000000;stroke-width:2px " 
		x="238.5mm"
		y="50mm"
		width="6mm"
		height="3mm"
		id="oomID2213"
	/>
	<rect
		style="fill:none;stroke:#000000;stroke-width:2px " 
		x="238.5mm"
		y="30mm"
		width="6mm"
		height="3mm"
		id="oomID2214"
	/>
	<rect
		style="fill:none;stroke:#000000;stroke-width:2px " 
		x="238.5mm"
		y="10mm"
		width="6mm"
		height="3mm"
		id="oomID2215"
	/>
	<rect
		style="fill:none;stroke:#000000;stroke-width:2px " 
		x="258.5mm"
		y="110mm"
		width="6mm"
		height="3mm"
		id="oomID2216"
	/>
	<rect
		style="fill:none;stroke:#000000;stroke-width:2px " 
		x="258.5mm"
		y="90mm"
		width="6mm"
		height="3mm"
		id="oomID2217"
	/>
	<rect
		style="fill:none;stroke:#000000;stroke-width:2px " 
		x="258.5mm"
		y="70mm"
		width="6mm"
		height="3mm"
		id="oomID2218"
	/>
	<rect
		style="fill:none;stroke:#000000;stroke-width:2px " 
		x="258.5mm"
		y="50mm"
		width="6mm"
		height="3mm"
		id="oomID2219"
	/>
	<rect
		style="fill:none;stroke:#000000;stroke-width:2px " 
		x="258.5mm"
		y="30mm"
		width="6mm"
		height="3mm"
		id="oomID2220"
	/>
	<rect
		style="fill:none;stroke:#000000;stroke-width:2px " 
		x="258.5mm"
		y="10mm"
		width="6mm"
		height="3mm"
		id="oomID2221"
	/>
	<rect
		style="fill:none;stroke:#000000;stroke-width:2px " 
		x="278.5mm"
		y="110mm"
		width="6mm"
		height="3mm"
		id="oomID2222"
	/>
	<rect
		style="fill:none;stroke:#000000;stroke-width:2px " 
		x="278.5mm"
		y="90mm"
		width="6mm"
		height="3mm"
		id="oomID2223"
	/>
	<rect
		style="fill:none;stroke:#000000;stroke-width:2px " 
		x="278.5mm"
		y="70mm"
		width="6mm"
		height="3mm"
		id="oomID2224"
	/>
	<rect
		style="fill:none;stroke:#000000;stroke-width:2px " 
		x="278.5mm"
		y="50mm"
		width="6mm"
		height="3mm"
		id="oomID2225"
	/>
	<rect
		style="fill:none;stroke:#000000;stroke-width:2px " 
		x="278.5mm"
		y="30mm"
		width="6mm"
		height="3mm"
		id="oomID2226"
	/>
	<rect
		style="fill:none;stroke:#000000;stroke-width:2px " 
		x="278.5mm"
		y="10mm"
		width="6mm"
		height="3mm"
		id="oomID2227"
	/>
	<rect
		style="fill:none;stroke:#000000;stroke-width:2px " 
		x="298.5mm"
		y="110mm"
		width="6mm"
		height="3mm"
		id="oomID2228"
	/>
	<rect
		style="fill:none;stroke:#000000;stroke-width:2px " 
		x="298.5mm"
		y="90mm"
		width="6mm"
		height="3mm"
		id="oomID2229"
	/>
	<rect
		style="fill:none;stroke:#000000;stroke-width:2px " 
		x="298.5mm"
		y="70mm"
		width="6mm"
		height="3mm"
		id="oomID2230"
	/>
	<rect
		style="fill:none;stroke:#000000;stroke-width:2px " 
		x="298.5mm"
		y="50mm"
		width="6mm"
		height="3mm"
		id="oomID2231"
	/>
	<rect
		style="fill:none;stroke:#000000;stroke-width:2px " 
		x="298.5mm"
		y="30mm"
		width="6mm"
		height="3mm"
		id="oomID2232"
	/>
	<rect
		style="fill:none;stroke:#000000;stroke-width:2px " 
		x="298.5mm"
		y="10mm"
		width="6mm"
		height="3mm"
		id="oomID2233"
	/>
	<text x="21.5mm" y="101.5mm"
	style="text-anchor: middle; text-align: center; font-family: ENG_HelvLine; -inkscape-font-specification: ENG_HelvLine; font-size: 12pt; fill:none; font-style:normal;font-weight:normal;line-height:100%;letter-spacing:0px;word-spacing:0px;fill-opacity:1;stroke:#FFA500"
	><tspan sodipodi:role="line">PL</tspan><tspan sodipodi:role="line">16-06</tspan></text>
</svg>
