<?xml version="1.0" standalone="no"?>
<!DOCTYPE svg PUBLIC "-//W3C//DTD SVG 1.1//EN" "http://www.w3.org/Graphics/SVG/1.1/DTD/svg11.dtd">
<svg width="20mm" height="20mm" viewBox="-10 -10 20 20" xmlns="http://www.w3.org/2000/svg" version="1.1">
<title>OpenSCAD Model</title>
<path d="
M 0.82869,8.56996 L 0.877609,8.46812 L 2.64209,8.13153 L 4.58131,7.21899 L 5.33363,6.59663 L 5.47389,6.64584
 L 6.222,6.79562 L 6.79562,6.222 L 6.64584,5.47389 L 6.60095,5.34599 L 7.49242,4.11899 L 8.28137,2.1263
 L 8.43724,0.892456 L 8.56996,0.82869 L 9.20486,0.405609 L 9.20486,-0.405609 L 8.56996,-0.82869 L 8.43724,-0.892456
 L 8.28137,-2.1263 L 7.49242,-4.11899 L 6.60095,-5.34599 L 6.64584,-5.47389 L 6.79562,-6.222 L 6.222,-6.79562
 L 5.47389,-6.64584 L 5.33363,-6.59663 L 4.58131,-7.21899 L 2.64209,-8.13153 L 0.877609,-8.46812 L 0.82869,-8.56996
 L 0.405609,-9.20486 L -0.405609,-9.20486 L -0.82869,-8.56996 L -0.889511,-8.44337 L -1.6021,-8.39854 L -3.64041,-7.73627
 L -5.39967,-6.6198 L -5.47389,-6.64584 L -6.222,-6.79562 L -6.79562,-6.222 L -6.64584,-5.47389 L -6.6051,-5.35779
 L -6.91708,-5.02556 L -7.94958,-3.14746 L -8.48257,-1.07159 L -8.48257,-0.870667 L -8.56996,-0.82869 L -9.20486,-0.405609
 L -9.20486,0.405609 L -8.56996,0.82869 L -8.48257,0.870667 L -8.48257,1.07159 L -7.94958,3.14746 L -6.91708,5.02556
 L -6.6051,5.35779 L -6.64584,5.47389 L -6.79562,6.222 L -6.222,6.79562 L -5.47389,6.64584 L -5.39967,6.6198
 L -3.64041,7.73627 L -1.6021,8.39854 L -0.889511,8.44337 L -0.82869,8.56996 L -0.405609,9.20486 L 0.405609,9.20486
 z
M -1.12428,5.89372 L -2.39999,5.47922 L -2.39999,4.93959 L -2.34178,4.97655 L -1.03059,5.40257 L 0.345337,5.48914
 L 1.69958,5.2308 L 2.94704,4.6438 L 4.00932,3.765 L 4.81967,2.64964 L 5.32719,1.36778 L 5.40524,0.75
 L 1.83749,0.75 L 1.83749,2.13345 L 1.5204,2.39577 L 0.876831,2.69861 L 0.178162,2.83189 L -0.531693,2.78723
 L -1.20815,2.56744 L -1.80869,2.18633 L -1.83749,2.15564 L -1.83749,-2.15564 L -1.80869,-2.18633 L -1.20815,-2.56744
 L -0.531693,-2.78723 L 0.178162,-2.83189 L 0.876831,-2.69861 L 1.5204,-2.39577 L 1.83749,-2.13345 L 1.83749,-0.75
 L 5.40524,-0.75 L 5.32719,-1.36778 L 4.81967,-2.64964 L 4.00932,-3.765 L 2.94704,-4.6438 L 1.69958,-5.2308
 L 0.345337,-5.48914 L -1.03059,-5.40257 L -2.34178,-4.97655 L -2.39999,-4.93959 L -2.39999,-5.47922 L -1.12428,-5.89372
 L 0.37674,-5.98816 L 1.8541,-5.70633 L 3.21495,-5.06596 L 4.37381,-4.10727 L 5.25783,-2.89052 L 5.81149,-1.49213
 L 6,-0 L 5.81149,1.49213 L 5.25783,2.89052 L 4.37381,4.10727 L 3.21495,5.06596 L 1.8541,5.70633
 L 0.37674,5.98816 z
" stroke="black" fill="lightgray" stroke-width="0.5"/>
</svg>
