  0
SECTION
  2
BLOCKS
  0
ENDSEC
  0
SECTION
  2
ENTITIES
  0
LINE
  8
0
 10
0.943771
 20
-8.45551
 11
2.64209
 21
-8.13153
  0
LINE
  8
0
 10
2.64209
 20
-8.13153
 11
4.58131
 21
-7.21899
  0
LINE
  8
0
 10
4.58131
 20
-7.21899
 11
5.2798
 21
-6.64116
  0
LINE
  8
0
 10
5.2798
 20
-6.64116
 11
5.28357
 21
-6.64232
  0
LINE
  8
0
 10
5.28357
 20
-6.64232
 11
6.2097
 21
-6.77328
  0
LINE
  8
0
 10
6.2097
 20
-6.77328
 11
6.77328
 21
-6.2097
  0
LINE
  8
0
 10
6.77328
 20
-6.2097
 11
6.64297
 21
-5.28816
  0
LINE
  8
0
 10
6.64297
 20
-5.28816
 11
7.49242
 21
-4.11899
  0
LINE
  8
0
 10
7.49242
 20
-4.11899
 11
8.28137
 21
-2.1263
  0
LINE
  8
0
 10
8.28137
 20
-2.1263
 11
8.42831
 21
-0.963196
  0
LINE
  8
0
 10
8.42831
 20
-0.963196
 11
8.43289
 21
-0.960785
  0
LINE
  8
0
 10
8.43289
 20
-0.960785
 11
9.18036
 21
-0.398514
  0
LINE
  8
0
 10
9.18036
 20
-0.398514
 11
9.18036
 21
0.398514
  0
LINE
  8
0
 10
9.18036
 20
0.398514
 11
8.43289
 21
0.960785
  0
LINE
  8
0
 10
8.43289
 20
0.960785
 11
8.42831
 21
0.963196
  0
LINE
  8
0
 10
8.42831
 20
0.963196
 11
8.28137
 21
2.1263
  0
LINE
  8
0
 10
8.28137
 20
2.1263
 11
7.49242
 21
4.11899
  0
LINE
  8
0
 10
7.49242
 20
4.11899
 11
6.64296
 21
5.28815
  0
LINE
  8
0
 10
6.64296
 20
5.28815
 11
6.77328
 21
6.2097
  0
LINE
  8
0
 10
6.77328
 20
6.2097
 11
6.2097
 21
6.77328
  0
LINE
  8
0
 10
6.2097
 20
6.77328
 11
5.28357
 21
6.64232
  0
LINE
  8
0
 10
5.28357
 20
6.64232
 11
5.2798
 21
6.64116
  0
LINE
  8
0
 10
5.2798
 20
6.64116
 11
4.58131
 21
7.21899
  0
LINE
  8
0
 10
4.58131
 20
7.21899
 11
2.64209
 21
8.13153
  0
LINE
  8
0
 10
2.64209
 20
8.13153
 11
0.943771
 21
8.45551
  0
LINE
  8
0
 10
0.943771
 20
8.45551
 11
0.398514
 21
9.18036
  0
LINE
  8
0
 10
0.398514
 20
9.18036
 11
-0.398514
 21
9.18036
  0
LINE
  8
0
 10
-0.398514
 20
9.18036
 11
-0.956039
 21
8.43919
  0
LINE
  8
0
 10
-0.956039
 20
8.43919
 11
-1.6021
 21
8.39854
  0
LINE
  8
0
 10
-1.6021
 20
8.39854
 11
-3.64041
 21
7.73627
  0
LINE
  8
0
 10
-3.64041
 20
7.73627
 11
-5.3495
 21
6.65164
  0
LINE
  8
0
 10
-5.3495
 20
6.65164
 11
-6.2097
 21
6.77328
  0
LINE
  8
0
 10
-6.2097
 20
6.77328
 11
-6.77328
 21
6.2097
  0
LINE
  8
0
 10
-6.77328
 20
6.2097
 11
-6.64658
 21
5.31361
  0
LINE
  8
0
 10
-6.64658
 20
5.31361
 11
-6.91708
 21
5.02556
  0
LINE
  8
0
 10
-6.91708
 20
5.02556
 11
-7.94958
 21
3.14746
  0
LINE
  8
0
 10
-7.94958
 20
3.14746
 11
-8.48257
 21
1.07159
  0
LINE
  8
0
 10
-8.48257
 20
1.07159
 11
-8.48257
 21
0.923416
  0
LINE
  8
0
 10
-8.48257
 20
0.923416
 11
-9.18036
 21
0.398514
  0
LINE
  8
0
 10
-9.18036
 20
0.398514
 11
-9.18036
 21
-0.398514
  0
LINE
  8
0
 10
-9.18036
 20
-0.398514
 11
-8.48257
 21
-0.923416
  0
LINE
  8
0
 10
-8.48257
 20
-0.923416
 11
-8.48257
 21
-1.07159
  0
LINE
  8
0
 10
-8.48257
 20
-1.07159
 11
-7.94958
 21
-3.14746
  0
LINE
  8
0
 10
-7.94958
 20
-3.14746
 11
-6.91708
 21
-5.02556
  0
LINE
  8
0
 10
-6.91708
 20
-5.02556
 11
-6.64658
 21
-5.31363
  0
LINE
  8
0
 10
-6.64658
 20
-5.31363
 11
-6.77328
 21
-6.2097
  0
LINE
  8
0
 10
-6.77328
 20
-6.2097
 11
-6.2097
 21
-6.77328
  0
LINE
  8
0
 10
-6.2097
 20
-6.77328
 11
-5.3495
 21
-6.65164
  0
LINE
  8
0
 10
-5.3495
 20
-6.65164
 11
-3.64041
 21
-7.73627
  0
LINE
  8
0
 10
-3.64041
 20
-7.73627
 11
-1.6021
 21
-8.39854
  0
LINE
  8
0
 10
-1.6021
 20
-8.39854
 11
-0.956039
 21
-8.43919
  0
LINE
  8
0
 10
-0.956039
 20
-8.43919
 11
-0.398514
 21
-9.18036
  0
LINE
  8
0
 10
-0.398514
 20
-9.18036
 11
0.398514
 21
-9.18036
  0
LINE
  8
0
 10
0.398514
 20
-9.18036
 11
0.943771
 21
-8.45551
  0
LINE
  8
0
 10
-2.39999
 20
5.47922
 11
-1.41525
 21
5.79918
  0
LINE
  8
0
 10
-1.41525
 20
5.79918
 11
-1.29732
 21
5.3159
  0
LINE
  8
0
 10
-1.29732
 20
5.3159
 11
-2.34178
 21
4.97655
  0
LINE
  8
0
 10
-2.34178
 20
4.97655
 11
-2.39999
 21
4.93959
  0
LINE
  8
0
 10
-2.39999
 20
4.93959
 11
-2.39999
 21
5.47922
  0
LINE
  8
0
 10
1.69958
 20
5.2308
 11
1.29536
 21
5.30791
  0
LINE
  8
0
 10
1.29536
 20
5.30791
 11
1.41313
 21
5.79045
  0
LINE
  8
0
 10
1.41313
 20
5.79045
 11
1.8541
 21
5.70633
  0
LINE
  8
0
 10
1.8541
 20
5.70633
 11
3.10875
 21
5.11594
  0
LINE
  8
0
 10
3.10875
 20
5.11594
 11
2.84969
 21
4.68961
  0
LINE
  8
0
 10
2.84969
 20
4.68961
 11
1.69958
 21
5.2308
  0
LINE
  8
0
 10
5.81149
 20
1.49213
 11
5.82054
 21
1.42047
  0
LINE
  8
0
 10
5.82054
 20
1.42047
 11
5.33549
 21
1.30209
  0
LINE
  8
0
 10
5.33549
 20
1.30209
 11
5.32719
 21
1.36778
  0
LINE
  8
0
 10
5.32719
 20
1.36778
 11
4.81967
 21
2.64964
  0
LINE
  8
0
 10
4.81967
 20
2.64964
 11
4.67902
 21
2.84325
  0
LINE
  8
0
 10
4.67902
 20
2.84325
 11
5.10437
 21
3.10173
  0
LINE
  8
0
 10
5.10437
 20
3.10173
 11
5.25783
 21
2.89052
  0
LINE
  8
0
 10
5.25783
 20
2.89052
 11
5.81149
 21
1.49213
  0
LINE
  8
0
 10
-0.531693
 20
-2.78723
 11
-1.20815
 21
-2.56744
  0
LINE
  8
0
 10
-1.20815
 20
-2.56744
 11
-1.80869
 21
-2.18633
  0
LINE
  8
0
 10
-1.80869
 20
-2.18633
 11
-1.83749
 21
-2.15564
  0
LINE
  8
0
 10
-1.83749
 20
-2.15564
 11
-1.83749
 21
2.15564
  0
LINE
  8
0
 10
-1.83749
 20
2.15564
 11
-1.80869
 21
2.18633
  0
LINE
  8
0
 10
-1.80869
 20
2.18633
 11
-1.20815
 21
2.56744
  0
LINE
  8
0
 10
-1.20815
 20
2.56744
 11
-0.531693
 21
2.78723
  0
LINE
  8
0
 10
-0.531693
 20
2.78723
 11
0.178162
 21
2.83189
  0
LINE
  8
0
 10
0.178162
 20
2.83189
 11
0.876831
 21
2.69861
  0
LINE
  8
0
 10
0.876831
 20
2.69861
 11
1.5204
 21
2.39577
  0
LINE
  8
0
 10
1.5204
 20
2.39577
 11
1.83749
 21
2.13345
  0
LINE
  8
0
 10
1.83749
 20
2.13345
 11
1.83749
 21
0.75
  0
LINE
  8
0
 10
1.83749
 20
0.75
 11
2.90419
 21
0.75
  0
LINE
  8
0
 10
2.90419
 20
0.75
 11
2.90575
 21
0.746063
  0
LINE
  8
0
 10
2.90575
 20
0.746063
 11
3
 21
0
  0
LINE
  8
0
 10
3
 20
0
 11
2.90575
 21
-0.746063
  0
LINE
  8
0
 10
2.90575
 20
-0.746063
 11
2.90419
 21
-0.75
  0
LINE
  8
0
 10
2.90419
 20
-0.75
 11
1.83749
 21
-0.75
  0
LINE
  8
0
 10
1.83749
 20
-0.75
 11
1.83749
 21
-2.13345
  0
LINE
  8
0
 10
1.83749
 20
-2.13345
 11
1.5204
 21
-2.39577
  0
LINE
  8
0
 10
1.5204
 20
-2.39577
 11
0.876831
 21
-2.69861
  0
LINE
  8
0
 10
0.876831
 20
-2.69861
 11
0.178162
 21
-2.83189
  0
LINE
  8
0
 10
0.178162
 20
-2.83189
 11
-0.531693
 21
-2.78723
  0
LINE
  8
0
 10
4.67902
 20
-2.84325
 11
4.81967
 21
-2.64964
  0
LINE
  8
0
 10
4.81967
 20
-2.64964
 11
5.32719
 21
-1.36778
  0
LINE
  8
0
 10
5.32719
 20
-1.36778
 11
5.33549
 21
-1.30209
  0
LINE
  8
0
 10
5.33549
 20
-1.30209
 11
5.82054
 21
-1.42047
  0
LINE
  8
0
 10
5.82054
 20
-1.42047
 11
5.81149
 21
-1.49213
  0
LINE
  8
0
 10
5.81149
 20
-1.49213
 11
5.25783
 21
-2.89052
  0
LINE
  8
0
 10
5.25783
 20
-2.89052
 11
5.10437
 21
-3.10173
  0
LINE
  8
0
 10
5.10437
 20
-3.10173
 11
4.67902
 21
-2.84325
  0
LINE
  8
0
 10
1.41313
 20
-5.79045
 11
1.29536
 21
-5.30791
  0
LINE
  8
0
 10
1.29536
 20
-5.30791
 11
1.69958
 21
-5.2308
  0
LINE
  8
0
 10
1.69958
 20
-5.2308
 11
2.84969
 21
-4.68961
  0
LINE
  8
0
 10
2.84969
 20
-4.68961
 11
3.10875
 21
-5.11594
  0
LINE
  8
0
 10
3.10875
 20
-5.11594
 11
1.8541
 21
-5.70633
  0
LINE
  8
0
 10
1.8541
 20
-5.70633
 11
1.41313
 21
-5.79045
  0
LINE
  8
0
 10
-2.39999
 20
-5.47922
 11
-2.39999
 21
-4.93959
  0
LINE
  8
0
 10
-2.39999
 20
-4.93959
 11
-2.34178
 21
-4.97655
  0
LINE
  8
0
 10
-2.34178
 20
-4.97655
 11
-1.29732
 21
-5.3159
  0
LINE
  8
0
 10
-1.29732
 20
-5.3159
 11
-1.41525
 21
-5.79918
  0
LINE
  8
0
 10
-1.41525
 20
-5.79918
 11
-2.39999
 21
-5.47922
  0
ENDSEC
  0
SECTION
  2
OBJECTS
  0
DICTIONARY
  0
ENDSEC
  0
EOF
