<?xml version="1.0" standalone="no"?>
<!DOCTYPE svg PUBLIC "-//W3C//DTD SVG 1.1//EN" "http://www.w3.org/Graphics/SVG/1.1/DTD/svg11.dtd">
<svg width="20mm" height="20mm" viewBox="-10 -10 20 20" xmlns="http://www.w3.org/2000/svg" version="1.1">
<title>OpenSCAD Model</title>
<path d="
M 1.02914,8.61227 L 1.10799,8.42418 L 2.64209,8.13153 L 4.58131,7.21899 L 5.16443,6.7366 L 5.36208,6.8175
 L 6.02092,6.99155 L 6.99155,6.02092 L 6.8175,5.36208 L 6.73524,5.16115 L 7.49242,4.11899 L 8.28137,2.1263
 L 8.40923,1.11424 L 8.61227,1.02914 L 9.20122,0.68634 L 9.20122,-0.68634 L 8.61227,-1.02914 L 8.40923,-1.11424
 L 8.28137,-2.1263 L 7.49242,-4.11899 L 6.73526,-5.16113 L 6.8175,-5.36208 L 6.99155,-6.02092 L 6.02092,-6.99155
 L 5.36208,-6.8175 L 5.16443,-6.7366 L 4.58131,-7.21899 L 2.64209,-8.13153 L 1.10799,-8.42418 L 1.02914,-8.61227
 L 0.68634,-9.20122 L -0.68634,-9.20122 L -1.02914,-8.61227 L -1.10564,-8.42978 L -1.6021,-8.39854 L -3.64041,-7.73627
 L -5.19556,-6.74934 L -5.36208,-6.8175 L -6.02092,-6.99155 L -6.99155,-6.02092 L -6.8175,-5.36208 L -6.7518,-5.20157
 L -6.91708,-5.02556 L -7.94958,-3.14746 L -8.47914,-1.08495 L -8.61227,-1.02914 L -9.20122,-0.68634 L -9.20122,0.68634
 L -8.61227,1.02914 L -8.47914,1.08495 L -7.94958,3.14746 L -6.91708,5.02556 L -6.7518,5.20157 L -6.8175,5.36208
 L -6.99155,6.02092 L -6.02092,6.99155 L -5.36208,6.8175 L -5.19556,6.74934 L -3.64041,7.73627 L -1.6021,8.39854
 L -1.10564,8.42978 L -1.02914,8.61227 L -0.68634,9.20122 L 0.68634,9.20122 z
M -2.39999,-5.47922 L -1.1534,-5.88426 L -1.05728,-5.39391 L -2.34178,-4.97655 L -2.39999,-4.93959 z
M 2.94704,-4.6438 L 1.69958,-5.2308 L 1.04961,-5.3548 L 1.14503,-5.8416 L 1.8541,-5.70633 L 3.21495,-5.06596
 L 3.33737,-4.96469 L 3.05925,-4.55096 z
M 5.32719,-1.36778 L 4.81967,-2.64964 L 4.53156,-3.0462 L 4.94351,-3.32314 L 5.25783,-2.89052 L 5.81149,-1.49213
 L 5.85501,-1.14766 L 5.3671,-1.05203 z
M -0.531693,2.78723 L -1.20815,2.56744 L -1.80869,2.18633 L -1.83749,2.15564 L -1.83749,-2.15564 L -1.80869,-2.18633
 L -1.20815,-2.56744 L -0.531693,-2.78723 L 0.178162,-2.83189 L 0.876831,-2.69861 L 1.5204,-2.39577 L 1.83749,-2.13345
 L 1.83749,-0.75 L 2.90419,-0.75 L 2.90575,-0.746063 L 3,-0 L 2.90575,0.746063 L 2.90419,0.75
 L 1.83749,0.75 L 1.83749,2.13345 L 1.5204,2.39577 L 0.876831,2.69861 L 0.178162,2.83189 z
M 4.53156,3.0462 L 4.81967,2.64964 L 5.32719,1.36778 L 5.3671,1.05202 L 5.85501,1.14766 L 5.81149,1.49213
 L 5.25783,2.89052 L 4.94351,3.32314 z
M 1.04962,5.3548 L 1.69958,5.2308 L 2.94704,4.6438 L 3.05925,4.55096 L 3.33737,4.96469 L 3.21495,5.06596
 L 1.8541,5.70633 L 1.14503,5.8416 z
M -2.39999,5.47922 L -2.39999,4.93959 L -2.34178,4.97655 L -1.05728,5.39391 L -1.1534,5.88426 z
" stroke="black" fill="lightgray" stroke-width="0.5"/>
</svg>
