<?xml version="1.0" standalone="no"?>
<!DOCTYPE svg PUBLIC "-//W3C//DTD SVG 1.1//EN" "http://www.w3.org/Graphics/SVG/1.1/DTD/svg11.dtd">
<svg width="298mm" height="14mm" viewBox="-149 -7 298 14" xmlns="http://www.w3.org/2000/svg" version="1.1">
<title>OpenSCAD Model</title>
<path d="
M 144.158,5.96222 L 144.799,5.83463 L 145.418,5.62439 L 146.005,5.33511 L 146.549,4.97176 L 147.041,4.54053
 L 147.472,4.0488 L 147.835,3.50499 L 148.124,2.91841 L 148.335,2.29909 L 148.462,1.65762 L 148.505,1.00499
 L 148.505,-1.00499 L 148.462,-1.65762 L 148.335,-2.29909 L 148.124,-2.91841 L 147.835,-3.50499 L 147.472,-4.0488
 L 147.041,-4.54053 L 146.549,-4.97176 L 146.005,-5.33511 L 145.418,-5.62439 L 144.799,-5.83463 L 144.158,-5.96222
 L 143.505,-6.00499 L -143.505,-6.00499 L -144.158,-5.96222 L -144.799,-5.83463 L -145.418,-5.62439 L -146.005,-5.33511
 L -146.549,-4.97176 L -147.041,-4.54053 L -147.472,-4.0488 L -147.835,-3.50499 L -148.124,-2.91841 L -148.335,-2.29909
 L -148.462,-1.65762 L -148.505,-1.00499 L -148.505,1.00499 L -148.462,1.65762 L -148.335,2.29909 L -148.124,2.91841
 L -147.835,3.50499 L -147.472,4.0488 L -147.041,4.54053 L -146.549,4.97176 L -146.005,5.33511 L -145.418,5.62439
 L -144.799,5.83463 L -144.158,5.96222 L -143.505,6.00499 L 143.505,6.00499 z
M -82.9242,3.22218 L -83.3412,3.13925 L -83.7437,3.00259 L -84.125,2.81458 L -84.4785,2.57838 L -84.7981,2.2981
 L -85.0784,1.97847 L -85.3146,1.625 L -85.5026,1.24371 L -85.6393,0.841156 L -85.7222,0.42421 L -85.75,-0
 L -85.7222,-0.42421 L -85.6393,-0.841156 L -85.5026,-1.24371 L -85.3146,-1.625 L -85.0784,-1.97847 L -84.7981,-2.2981
 L -84.4785,-2.57838 L -84.125,-2.81458 L -83.7437,-3.00259 L -83.3412,-3.13925 L -82.9242,-3.22218 L -82.5,-3.25
 L -82.0758,-3.22218 L -81.6588,-3.13925 L -81.2563,-3.00259 L -80.875,-2.81458 L -80.5215,-2.57838 L -80.2019,-2.2981
 L -79.9216,-1.97847 L -79.6854,-1.625 L -79.4974,-1.24371 L -79.3607,-0.841156 L -79.2778,-0.42421 L -79.25,-0
 L -79.2778,0.42421 L -79.3607,0.841156 L -79.4974,1.24371 L -79.6854,1.625 L -79.9216,1.97847 L -80.2019,2.2981
 L -80.5215,2.57838 L -80.875,2.81458 L -81.2563,3.00259 L -81.6588,3.13925 L -82.0758,3.22218 L -82.5,3.25
 z
M -97.9242,3.22218 L -98.3412,3.13925 L -98.7437,3.00259 L -99.125,2.81458 L -99.4785,2.57838 L -99.7981,2.2981
 L -100.078,1.97847 L -100.315,1.625 L -100.503,1.24371 L -100.639,0.841156 L -100.722,0.42421 L -100.75,-0
 L -100.722,-0.42421 L -100.639,-0.841156 L -100.503,-1.24371 L -100.315,-1.625 L -100.078,-1.97847 L -99.7981,-2.2981
 L -99.4785,-2.57838 L -99.125,-2.81458 L -98.7437,-3.00259 L -98.3412,-3.13925 L -97.9242,-3.22218 L -97.5,-3.25
 L -97.0758,-3.22218 L -96.6588,-3.13925 L -96.2563,-3.00259 L -95.875,-2.81458 L -95.5215,-2.57838 L -95.2019,-2.2981
 L -94.9216,-1.97847 L -94.6854,-1.625 L -94.4974,-1.24371 L -94.3607,-0.841156 L -94.2778,-0.42421 L -94.25,-0
 L -94.2778,0.42421 L -94.3607,0.841156 L -94.4974,1.24371 L -94.6854,1.625 L -94.9216,1.97847 L -95.2019,2.2981
 L -95.5215,2.57838 L -95.875,2.81458 L -96.2563,3.00259 L -96.6588,3.13925 L -97.0758,3.22218 L -97.5,3.25
 z
M 52.0758,3.22218 L 51.6588,3.13925 L 51.2563,3.00259 L 50.875,2.81458 L 50.5215,2.57838 L 50.2019,2.2981
 L 49.9216,1.97847 L 49.6854,1.625 L 49.4974,1.24371 L 49.3607,0.841156 L 49.2778,0.42421 L 49.25,-0
 L 49.2778,-0.42421 L 49.3607,-0.841156 L 49.4974,-1.24371 L 49.6854,-1.625 L 49.9216,-1.97847 L 50.2019,-2.2981
 L 50.5215,-2.57838 L 50.875,-2.81458 L 51.2563,-3.00259 L 51.6588,-3.13925 L 52.0758,-3.22218 L 52.5,-3.25
 L 52.9242,-3.22218 L 53.3412,-3.13925 L 53.7437,-3.00259 L 54.125,-2.81458 L 54.4785,-2.57838 L 54.7981,-2.2981
 L 55.0784,-1.97847 L 55.3146,-1.625 L 55.5026,-1.24371 L 55.6393,-0.841156 L 55.7222,-0.42421 L 55.75,-0
 L 55.7222,0.42421 L 55.6393,0.841156 L 55.5026,1.24371 L 55.3146,1.625 L 55.0784,1.97847 L 54.7981,2.2981
 L 54.4785,2.57838 L 54.125,2.81458 L 53.7437,3.00259 L 53.3412,3.13925 L 52.9242,3.22218 L 52.5,3.25
 z
M 22.0758,3.22218 L 21.6588,3.13925 L 21.2563,3.00259 L 20.875,2.81458 L 20.5215,2.57838 L 20.2019,2.2981
 L 19.9216,1.97847 L 19.6854,1.625 L 19.4974,1.24371 L 19.3607,0.841156 L 19.2778,0.42421 L 19.25,-0
 L 19.2778,-0.42421 L 19.3607,-0.841156 L 19.4974,-1.24371 L 19.6854,-1.625 L 19.9216,-1.97847 L 20.2019,-2.2981
 L 20.5215,-2.57838 L 20.875,-2.81458 L 21.2563,-3.00259 L 21.6588,-3.13925 L 22.0758,-3.22218 L 22.5,-3.25
 L 22.9242,-3.22218 L 23.3412,-3.13925 L 23.7437,-3.00259 L 24.125,-2.81458 L 24.4785,-2.57838 L 24.7981,-2.2981
 L 25.0784,-1.97847 L 25.3146,-1.625 L 25.5026,-1.24371 L 25.6393,-0.841156 L 25.7222,-0.42421 L 25.75,-0
 L 25.7222,0.42421 L 25.6393,0.841156 L 25.5026,1.24371 L 25.3146,1.625 L 25.0784,1.97847 L 24.7981,2.2981
 L 24.4785,2.57838 L 24.125,2.81458 L 23.7437,3.00259 L 23.3412,3.13925 L 22.9242,3.22218 L 22.5,3.25
 z
M -7.92421,3.22218 L -8.34116,3.13925 L -8.74371,3.00259 L -9.125,2.81458 L -9.47847,2.57838 L -9.7981,2.2981
 L -10.0784,1.97847 L -10.3146,1.625 L -10.5026,1.24371 L -10.6393,0.841156 L -10.7222,0.42421 L -10.75,-0
 L -10.7222,-0.42421 L -10.6393,-0.841156 L -10.5026,-1.24371 L -10.3146,-1.625 L -10.0784,-1.97847 L -9.7981,-2.2981
 L -9.47847,-2.57838 L -9.125,-2.81458 L -8.74371,-3.00259 L -8.34116,-3.13925 L -7.92421,-3.22218 L -7.5,-3.25
 L -7.07578,-3.22218 L -6.65883,-3.13925 L -6.25627,-3.00259 L -5.875,-2.81458 L -5.52151,-2.57838 L -5.20189,-2.2981
 L -4.9216,-1.97847 L -4.68541,-1.625 L -4.49739,-1.24371 L -4.36073,-0.841156 L -4.2778,-0.42421 L -4.25,-0
 L -4.2778,0.42421 L -4.36073,0.841156 L -4.49739,1.24371 L -4.68541,1.625 L -4.9216,1.97847 L -5.20189,2.2981
 L -5.52151,2.57838 L -5.875,2.81458 L -6.25627,3.00259 L -6.65883,3.13925 L -7.07578,3.22218 L -7.5,3.25
 z
M -112.924,3.22218 L -113.341,3.13925 L -113.744,3.00259 L -114.125,2.81458 L -114.478,2.57838 L -114.798,2.2981
 L -115.078,1.97847 L -115.315,1.625 L -115.503,1.24371 L -115.639,0.841156 L -115.722,0.42421 L -115.75,-0
 L -115.722,-0.42421 L -115.639,-0.841156 L -115.503,-1.24371 L -115.315,-1.625 L -115.078,-1.97847 L -114.798,-2.2981
 L -114.478,-2.57838 L -114.125,-2.81458 L -113.744,-3.00259 L -113.341,-3.13925 L -112.924,-3.22218 L -112.5,-3.25
 L -112.076,-3.22218 L -111.659,-3.13925 L -111.256,-3.00259 L -110.875,-2.81458 L -110.522,-2.57838 L -110.202,-2.2981
 L -109.922,-1.97847 L -109.685,-1.625 L -109.497,-1.24371 L -109.361,-0.841156 L -109.278,-0.42421 L -109.25,-0
 L -109.278,0.42421 L -109.361,0.841156 L -109.497,1.24371 L -109.685,1.625 L -109.922,1.97847 L -110.202,2.2981
 L -110.522,2.57838 L -110.875,2.81458 L -111.256,3.00259 L -111.659,3.13925 L -112.076,3.22218 L -112.5,3.25
 z
M 82.0758,3.22218 L 81.6588,3.13925 L 81.2563,3.00259 L 80.875,2.81458 L 80.5215,2.57838 L 80.2019,2.2981
 L 79.9216,1.97847 L 79.6854,1.625 L 79.4974,1.24371 L 79.3607,0.841156 L 79.2778,0.42421 L 79.25,-0
 L 79.2778,-0.42421 L 79.3607,-0.841156 L 79.4974,-1.24371 L 79.6854,-1.625 L 79.9216,-1.97847 L 80.2019,-2.2981
 L 80.5215,-2.57838 L 80.875,-2.81458 L 81.2563,-3.00259 L 81.6588,-3.13925 L 82.0758,-3.22218 L 82.5,-3.25
 L 82.9242,-3.22218 L 83.3412,-3.13925 L 83.7437,-3.00259 L 84.125,-2.81458 L 84.4785,-2.57838 L 84.7981,-2.2981
 L 85.0784,-1.97847 L 85.3146,-1.625 L 85.5026,-1.24371 L 85.6393,-0.841156 L 85.7222,-0.42421 L 85.75,-0
 L 85.7222,0.42421 L 85.6393,0.841156 L 85.5026,1.24371 L 85.3146,1.625 L 85.0784,1.97847 L 84.7981,2.2981
 L 84.4785,2.57838 L 84.125,2.81458 L 83.7437,3.00259 L 83.3412,3.13925 L 82.9242,3.22218 L 82.5,3.25
 z
M -22.9242,3.22218 L -23.3412,3.13925 L -23.7437,3.00259 L -24.125,2.81458 L -24.4785,2.57838 L -24.7981,2.2981
 L -25.0784,1.97847 L -25.3146,1.625 L -25.5026,1.24371 L -25.6393,0.841156 L -25.7222,0.42421 L -25.75,-0
 L -25.7222,-0.42421 L -25.6393,-0.841156 L -25.5026,-1.24371 L -25.3146,-1.625 L -25.0784,-1.97847 L -24.7981,-2.2981
 L -24.4785,-2.57838 L -24.125,-2.81458 L -23.7437,-3.00259 L -23.3412,-3.13925 L -22.9242,-3.22218 L -22.5,-3.25
 L -22.0758,-3.22218 L -21.6588,-3.13925 L -21.2563,-3.00259 L -20.875,-2.81458 L -20.5215,-2.57838 L -20.2019,-2.2981
 L -19.9216,-1.97847 L -19.6854,-1.625 L -19.4974,-1.24371 L -19.3607,-0.841156 L -19.2778,-0.42421 L -19.25,-0
 L -19.2778,0.42421 L -19.3607,0.841156 L -19.4974,1.24371 L -19.6854,1.625 L -19.9216,1.97847 L -20.2019,2.2981
 L -20.5215,2.57838 L -20.875,2.81458 L -21.2563,3.00259 L -21.6588,3.13925 L -22.0758,3.22218 L -22.5,3.25
 z
M 7.07578,3.22218 L 6.65883,3.13925 L 6.25627,3.00259 L 5.875,2.81458 L 5.52151,2.57838 L 5.20189,2.2981
 L 4.9216,1.97847 L 4.68541,1.625 L 4.49739,1.24371 L 4.36073,0.841156 L 4.2778,0.42421 L 4.25,-0
 L 4.2778,-0.42421 L 4.36073,-0.841156 L 4.49739,-1.24371 L 4.68541,-1.625 L 4.9216,-1.97847 L 5.20189,-2.2981
 L 5.52151,-2.57838 L 5.875,-2.81458 L 6.25627,-3.00259 L 6.65883,-3.13925 L 7.07578,-3.22218 L 7.5,-3.25
 L 7.92421,-3.22218 L 8.34116,-3.13925 L 8.74371,-3.00259 L 9.125,-2.81458 L 9.47847,-2.57838 L 9.7981,-2.2981
 L 10.0784,-1.97847 L 10.3146,-1.625 L 10.5026,-1.24371 L 10.6393,-0.841156 L 10.7222,-0.42421 L 10.75,-0
 L 10.7222,0.42421 L 10.6393,0.841156 L 10.5026,1.24371 L 10.3146,1.625 L 10.0784,1.97847 L 9.7981,2.2981
 L 9.47847,2.57838 L 9.125,2.81458 L 8.74371,3.00259 L 8.34116,3.13925 L 7.92421,3.22218 L 7.5,3.25
 z
M -37.9242,3.22218 L -38.3412,3.13925 L -38.7437,3.00259 L -39.125,2.81458 L -39.4785,2.57838 L -39.7981,2.2981
 L -40.0784,1.97847 L -40.3146,1.625 L -40.5026,1.24371 L -40.6393,0.841156 L -40.7222,0.42421 L -40.75,-0
 L -40.7222,-0.42421 L -40.6393,-0.841156 L -40.5026,-1.24371 L -40.3146,-1.625 L -40.0784,-1.97847 L -39.7981,-2.2981
 L -39.4785,-2.57838 L -39.125,-2.81458 L -38.7437,-3.00259 L -38.3412,-3.13925 L -37.9242,-3.22218 L -37.5,-3.25
 L -37.0758,-3.22218 L -36.6588,-3.13925 L -36.2563,-3.00259 L -35.875,-2.81458 L -35.5215,-2.57838 L -35.2019,-2.2981
 L -34.9216,-1.97847 L -34.6854,-1.625 L -34.4974,-1.24371 L -34.3607,-0.841156 L -34.2778,-0.42421 L -34.25,-0
 L -34.2778,0.42421 L -34.3607,0.841156 L -34.4974,1.24371 L -34.6854,1.625 L -34.9216,1.97847 L -35.2019,2.2981
 L -35.5215,2.57838 L -35.875,2.81458 L -36.2563,3.00259 L -36.6588,3.13925 L -37.0758,3.22218 L -37.5,3.25
 z
M -142.924,3.22218 L -143.341,3.13925 L -143.744,3.00259 L -144.125,2.81458 L -144.478,2.57838 L -144.798,2.2981
 L -145.078,1.97847 L -145.315,1.625 L -145.503,1.24371 L -145.639,0.841156 L -145.722,0.42421 L -145.75,-0
 L -145.722,-0.42421 L -145.639,-0.841156 L -145.503,-1.24371 L -145.315,-1.625 L -145.078,-1.97847 L -144.798,-2.2981
 L -144.478,-2.57838 L -144.125,-2.81458 L -143.744,-3.00259 L -143.341,-3.13925 L -142.924,-3.22218 L -142.5,-3.25
 L -142.076,-3.22218 L -141.659,-3.13925 L -141.256,-3.00259 L -140.875,-2.81458 L -140.522,-2.57838 L -140.202,-2.2981
 L -139.922,-1.97847 L -139.685,-1.625 L -139.497,-1.24371 L -139.361,-0.841156 L -139.278,-0.42421 L -139.25,-0
 L -139.278,0.42421 L -139.361,0.841156 L -139.497,1.24371 L -139.685,1.625 L -139.922,1.97847 L -140.202,2.2981
 L -140.522,2.57838 L -140.875,2.81458 L -141.256,3.00259 L -141.659,3.13925 L -142.076,3.22218 L -142.5,3.25
 z
M 97.0758,3.22218 L 96.6588,3.13925 L 96.2563,3.00259 L 95.875,2.81458 L 95.5215,2.57838 L 95.2019,2.2981
 L 94.9216,1.97847 L 94.6854,1.625 L 94.4974,1.24371 L 94.3607,0.841156 L 94.2778,0.42421 L 94.25,-0
 L 94.2778,-0.42421 L 94.3607,-0.841156 L 94.4974,-1.24371 L 94.6854,-1.625 L 94.9216,-1.97847 L 95.2019,-2.2981
 L 95.5215,-2.57838 L 95.875,-2.81458 L 96.2563,-3.00259 L 96.6588,-3.13925 L 97.0758,-3.22218 L 97.5,-3.25
 L 97.9242,-3.22218 L 98.3412,-3.13925 L 98.7437,-3.00259 L 99.125,-2.81458 L 99.4785,-2.57838 L 99.7981,-2.2981
 L 100.078,-1.97847 L 100.315,-1.625 L 100.503,-1.24371 L 100.639,-0.841156 L 100.722,-0.42421 L 100.75,-0
 L 100.722,0.42421 L 100.639,0.841156 L 100.503,1.24371 L 100.315,1.625 L 100.078,1.97847 L 99.7981,2.2981
 L 99.4785,2.57838 L 99.125,2.81458 L 98.7437,3.00259 L 98.3412,3.13925 L 97.9242,3.22218 L 97.5,3.25
 z
M -67.9242,3.22218 L -68.3412,3.13925 L -68.7437,3.00259 L -69.125,2.81458 L -69.4785,2.57838 L -69.7981,2.2981
 L -70.0784,1.97847 L -70.3146,1.625 L -70.5026,1.24371 L -70.6393,0.841156 L -70.7222,0.42421 L -70.75,-0
 L -70.7222,-0.42421 L -70.6393,-0.841156 L -70.5026,-1.24371 L -70.3146,-1.625 L -70.0784,-1.97847 L -69.7981,-2.2981
 L -69.4785,-2.57838 L -69.125,-2.81458 L -68.7437,-3.00259 L -68.3412,-3.13925 L -67.9242,-3.22218 L -67.5,-3.25
 L -67.0758,-3.22218 L -66.6588,-3.13925 L -66.2563,-3.00259 L -65.875,-2.81458 L -65.5215,-2.57838 L -65.2019,-2.2981
 L -64.9216,-1.97847 L -64.6854,-1.625 L -64.4974,-1.24371 L -64.3607,-0.841156 L -64.2778,-0.42421 L -64.25,-0
 L -64.2778,0.42421 L -64.3607,0.841156 L -64.4974,1.24371 L -64.6854,1.625 L -64.9216,1.97847 L -65.2019,2.2981
 L -65.5215,2.57838 L -65.875,2.81458 L -66.2563,3.00259 L -66.6588,3.13925 L -67.0758,3.22218 L -67.5,3.25
 z
M -52.9242,3.22218 L -53.3412,3.13925 L -53.7437,3.00259 L -54.125,2.81458 L -54.4785,2.57838 L -54.7981,2.2981
 L -55.0784,1.97847 L -55.3146,1.625 L -55.5026,1.24371 L -55.6393,0.841156 L -55.7222,0.42421 L -55.75,-0
 L -55.7222,-0.42421 L -55.6393,-0.841156 L -55.5026,-1.24371 L -55.3146,-1.625 L -55.0784,-1.97847 L -54.7981,-2.2981
 L -54.4785,-2.57838 L -54.125,-2.81458 L -53.7437,-3.00259 L -53.3412,-3.13925 L -52.9242,-3.22218 L -52.5,-3.25
 L -52.0758,-3.22218 L -51.6588,-3.13925 L -51.2563,-3.00259 L -50.875,-2.81458 L -50.5215,-2.57838 L -50.2019,-2.2981
 L -49.9216,-1.97847 L -49.6854,-1.625 L -49.4974,-1.24371 L -49.3607,-0.841156 L -49.2778,-0.42421 L -49.25,-0
 L -49.2778,0.42421 L -49.3607,0.841156 L -49.4974,1.24371 L -49.6854,1.625 L -49.9216,1.97847 L -50.2019,2.2981
 L -50.5215,2.57838 L -50.875,2.81458 L -51.2563,3.00259 L -51.6588,3.13925 L -52.0758,3.22218 L -52.5,3.25
 z
M 67.0758,3.22218 L 66.6588,3.13925 L 66.2563,3.00259 L 65.875,2.81458 L 65.5215,2.57838 L 65.2019,2.2981
 L 64.9216,1.97847 L 64.6854,1.625 L 64.4974,1.24371 L 64.3607,0.841156 L 64.2778,0.42421 L 64.25,-0
 L 64.2778,-0.42421 L 64.3607,-0.841156 L 64.4974,-1.24371 L 64.6854,-1.625 L 64.9216,-1.97847 L 65.2019,-2.2981
 L 65.5215,-2.57838 L 65.875,-2.81458 L 66.2563,-3.00259 L 66.6588,-3.13925 L 67.0758,-3.22218 L 67.5,-3.25
 L 67.9242,-3.22218 L 68.3412,-3.13925 L 68.7437,-3.00259 L 69.125,-2.81458 L 69.4785,-2.57838 L 69.7981,-2.2981
 L 70.0784,-1.97847 L 70.3146,-1.625 L 70.5026,-1.24371 L 70.6393,-0.841156 L 70.7222,-0.42421 L 70.75,-0
 L 70.7222,0.42421 L 70.6393,0.841156 L 70.5026,1.24371 L 70.3146,1.625 L 70.0784,1.97847 L 69.7981,2.2981
 L 69.4785,2.57838 L 69.125,2.81458 L 68.7437,3.00259 L 68.3412,3.13925 L 67.9242,3.22218 L 67.5,3.25
 z
M 37.0758,3.22218 L 36.6588,3.13925 L 36.2563,3.00259 L 35.875,2.81458 L 35.5215,2.57838 L 35.2019,2.2981
 L 34.9216,1.97847 L 34.6854,1.625 L 34.4974,1.24371 L 34.3607,0.841156 L 34.2778,0.42421 L 34.25,-0
 L 34.2778,-0.42421 L 34.3607,-0.841156 L 34.4974,-1.24371 L 34.6854,-1.625 L 34.9216,-1.97847 L 35.2019,-2.2981
 L 35.5215,-2.57838 L 35.875,-2.81458 L 36.2563,-3.00259 L 36.6588,-3.13925 L 37.0758,-3.22218 L 37.5,-3.25
 L 37.9242,-3.22218 L 38.3412,-3.13925 L 38.7437,-3.00259 L 39.125,-2.81458 L 39.4785,-2.57838 L 39.7981,-2.2981
 L 40.0784,-1.97847 L 40.3146,-1.625 L 40.5026,-1.24371 L 40.6393,-0.841156 L 40.7222,-0.42421 L 40.75,-0
 L 40.7222,0.42421 L 40.6393,0.841156 L 40.5026,1.24371 L 40.3146,1.625 L 40.0784,1.97847 L 39.7981,2.2981
 L 39.4785,2.57838 L 39.125,2.81458 L 38.7437,3.00259 L 38.3412,3.13925 L 37.9242,3.22218 L 37.5,3.25
 z
M 112.076,3.22218 L 111.659,3.13925 L 111.256,3.00259 L 110.875,2.81458 L 110.522,2.57838 L 110.202,2.2981
 L 109.922,1.97847 L 109.685,1.625 L 109.497,1.24371 L 109.361,0.841156 L 109.278,0.42421 L 109.25,-0
 L 109.278,-0.42421 L 109.361,-0.841156 L 109.497,-1.24371 L 109.685,-1.625 L 109.922,-1.97847 L 110.202,-2.2981
 L 110.522,-2.57838 L 110.875,-2.81458 L 111.256,-3.00259 L 111.659,-3.13925 L 112.076,-3.22218 L 112.5,-3.25
 L 112.924,-3.22218 L 113.341,-3.13925 L 113.744,-3.00259 L 114.125,-2.81458 L 114.478,-2.57838 L 114.798,-2.2981
 L 115.078,-1.97847 L 115.315,-1.625 L 115.503,-1.24371 L 115.639,-0.841156 L 115.722,-0.42421 L 115.75,-0
 L 115.722,0.42421 L 115.639,0.841156 L 115.503,1.24371 L 115.315,1.625 L 115.078,1.97847 L 114.798,2.2981
 L 114.478,2.57838 L 114.125,2.81458 L 113.744,3.00259 L 113.341,3.13925 L 112.924,3.22218 L 112.5,3.25
 z
M 142.076,3.22218 L 141.659,3.13925 L 141.256,3.00259 L 140.875,2.81458 L 140.522,2.57838 L 140.202,2.2981
 L 139.922,1.97847 L 139.685,1.625 L 139.497,1.24371 L 139.361,0.841156 L 139.278,0.42421 L 139.25,-0
 L 139.278,-0.42421 L 139.361,-0.841156 L 139.497,-1.24371 L 139.685,-1.625 L 139.922,-1.97847 L 140.202,-2.2981
 L 140.522,-2.57838 L 140.875,-2.81458 L 141.256,-3.00259 L 141.659,-3.13925 L 142.076,-3.22218 L 142.5,-3.25
 L 142.924,-3.22218 L 143.341,-3.13925 L 143.744,-3.00259 L 144.125,-2.81458 L 144.478,-2.57838 L 144.798,-2.2981
 L 145.078,-1.97847 L 145.315,-1.625 L 145.503,-1.24371 L 145.639,-0.841156 L 145.722,-0.42421 L 145.75,-0
 L 145.722,0.42421 L 145.639,0.841156 L 145.503,1.24371 L 145.315,1.625 L 145.078,1.97847 L 144.798,2.2981
 L 144.478,2.57838 L 144.125,2.81458 L 143.744,3.00259 L 143.341,3.13925 L 142.924,3.22218 L 142.5,3.25
 z
M 127.076,3.22218 L 126.659,3.13925 L 126.256,3.00259 L 125.875,2.81458 L 125.522,2.57838 L 125.202,2.2981
 L 124.922,1.97847 L 124.685,1.625 L 124.497,1.24371 L 124.361,0.841156 L 124.278,0.42421 L 124.25,-0
 L 124.278,-0.42421 L 124.361,-0.841156 L 124.497,-1.24371 L 124.685,-1.625 L 124.922,-1.97847 L 125.202,-2.2981
 L 125.522,-2.57838 L 125.875,-2.81458 L 126.256,-3.00259 L 126.659,-3.13925 L 127.076,-3.22218 L 127.5,-3.25
 L 127.924,-3.22218 L 128.341,-3.13925 L 128.744,-3.00259 L 129.125,-2.81458 L 129.478,-2.57838 L 129.798,-2.2981
 L 130.078,-1.97847 L 130.315,-1.625 L 130.503,-1.24371 L 130.639,-0.841156 L 130.722,-0.42421 L 130.75,-0
 L 130.722,0.42421 L 130.639,0.841156 L 130.503,1.24371 L 130.315,1.625 L 130.078,1.97847 L 129.798,2.2981
 L 129.478,2.57838 L 129.125,2.81458 L 128.744,3.00259 L 128.341,3.13925 L 127.924,3.22218 L 127.5,3.25
 z
M -127.924,3.22218 L -128.341,3.13925 L -128.744,3.00259 L -129.125,2.81458 L -129.478,2.57838 L -129.798,2.2981
 L -130.078,1.97847 L -130.315,1.625 L -130.503,1.24371 L -130.639,0.841156 L -130.722,0.42421 L -130.75,-0
 L -130.722,-0.42421 L -130.639,-0.841156 L -130.503,-1.24371 L -130.315,-1.625 L -130.078,-1.97847 L -129.798,-2.2981
 L -129.478,-2.57838 L -129.125,-2.81458 L -128.744,-3.00259 L -128.341,-3.13925 L -127.924,-3.22218 L -127.5,-3.25
 L -127.076,-3.22218 L -126.659,-3.13925 L -126.256,-3.00259 L -125.875,-2.81458 L -125.522,-2.57838 L -125.202,-2.2981
 L -124.922,-1.97847 L -124.685,-1.625 L -124.497,-1.24371 L -124.361,-0.841156 L -124.278,-0.42421 L -124.25,-0
 L -124.278,0.42421 L -124.361,0.841156 L -124.497,1.24371 L -124.685,1.625 L -124.922,1.97847 L -125.202,2.2981
 L -125.522,2.57838 L -125.875,2.81458 L -126.256,3.00259 L -126.659,3.13925 L -127.076,3.22218 L -127.5,3.25
 z
" stroke="black" fill="lightgray" stroke-width="0.5"/>
</svg>
