M48
;DRILL file {KiCad (5.0.2)-1} date 15/07/2021 21:47:45
;FORMAT={-:-/ absolute / inch / decimal}
FMAT,2
INCH,TZ
T1C0.0394
T2C0.0591
T3C0.1260
T4C0.2480
%
G90
G05
T1
X0.1673Y0.3051
X0.4232Y0.3051
X0.2453Y0.4124
X0.3453Y0.4124
X-0.3453Y0.4124
X-0.2453Y0.4124
X-0.1453Y0.4124
X-0.4232Y0.3051
X-0.4232Y0.128
X-0.1673Y0.3051
X-0.1673Y0.128
X0.1673Y0.128
X0.4232Y0.128
X0.4453Y0.4124
T3
X-0.5906Y0.
X0.5906Y0.
T4
X-0.5906Y0.5906
X-0.5906Y-0.5906
X0.5906Y0.5906
X0.5906Y-0.5906
T2
X-0.0335Y-0.3464G85X0.0335Y-0.3464
G05
X-0.0335Y-0.5824G85X0.0335Y-0.5824
G05
X0.185Y-0.498G85X0.185Y-0.4311
G05
T0
M30
