<?xml version="1.0" encoding="UTF-8"?>
<!DOCTYPE svg PUBLIC "-//W3C//DTD SVG 1.1//EN" "http://www.w3.org/Graphics/SVG/1.1/DTD/svg11.dtd">
<!-- Creator: CorelDRAW -->
<svg xmlns="http://www.w3.org/2000/svg" xml:space="preserve" width="210mm" height="297mm" style="shape-rendering:geometricPrecision; text-rendering:geometricPrecision; image-rendering:optimizeQuality; fill-rule:evenodd; clip-rule:evenodd"
viewBox="0 0 210 297"
 xmlns:xlink="http://www.w3.org/1999/xlink">
 <defs>
  <style type="text/css">
   <![CDATA[
    .str0 {stroke:black;stroke-width:0.5644}
    .fil0 {fill:none;fill-rule:nonzero}
   ]]>
  </style>
 </defs>
 <g id="Layer_x0020_1">
  <metadata id="CorelCorpID_0Corel-Layer"/>
  <g id="OOBB-PL-30-01.pdf">
   <path id="_119041000" class="fil0 str0" d="M-291.499 290.5l583 0c2.7701,0 4.9996,2.2309 4.9996,5.0009l0 3.0001c0,2.7696 -2.2295,4.9992 -4.9996,4.9992l-583 0c-2.77,0 -5.0009,-2.2296 -5.0009,-4.9992l0 -3.0001c0,-2.77 2.2309,-5.0009 5.0009,-5.0009zm0 0z"/>
   <path id="_119051200" class="fil0 str0" d="M-291.499 300l0 -0.4011c-0.4561,-0.2632 -0.8353,-0.6435 -1.0985,-1.0982l-0.4022 0 0 -1.5008 0 -1.4993 0.4022 0c0.2632,-0.4561 0.6424,-0.8353 1.0985,-1.0985l0 -0.4022 1.4993 0 1.5008 0 0 0.4022c0.4547,0.2632 0.835,0.6424 1.0982,1.0985l0.4011 0 0 1.4993 0 1.5008 -0.4011 0c-0.2632,0.4547 -0.6435,0.835 -1.0982,1.0982l0 0.4011 -1.5008 0 -1.4993 0zm0 0z"/>
   <path id="_119040232" class="fil0 str0" d="M-271.5 300l0 -0.4011c-0.4548,-0.2632 -0.8351,-0.6435 -1.0982,-1.0982l-0.4011 0 0 -1.5008 0 -1.4993 0.4011 0c0.2631,-0.4561 0.6434,-0.8353 1.0982,-1.0985l0 -0.4022 1.5007 0 1.4993 0 0 0.4022c0.4547,0.2632 0.835,0.6424 1.0982,1.0985l0.4025 0 0 1.4993 0 1.5008 -0.4025 0c-0.2632,0.4547 -0.6435,0.835 -1.0982,1.0982l0 0.4011 -1.4993 0 -1.5007 0zm0 0z"/>
   <path id="_119049784" class="fil0 str0" d="M-251.5 300l0 -0.4011c-0.4547,-0.2632 -0.8336,-0.6435 -1.0982,-1.0982l-0.4011 0 0 -1.5008 0 -1.4993 0.4011 0c0.2646,-0.4561 0.6435,-0.8353 1.0982,-1.0985l0 -0.4022 1.5007 0 1.4993 0 0 0.4022c0.4562,0.2632 0.8354,0.6424 1.0986,1.0985l0.4021 0 0 1.4993 0 1.5008 -0.4021 0c-0.2632,0.4547 -0.6424,0.835 -1.0986,1.0982l0 0.4011 -1.4993 0 -1.5007 0zm0 0z"/>
   <path id="_119037160" class="fil0 str0" d="M-231.499 300l0 -0.4011c-0.4562,-0.2632 -0.835,-0.6435 -1.0982,-1.0982l-0.4025 0 0 -1.5008 0 -1.4993 0.4025 0c0.2632,-0.4561 0.642,-0.8353 1.0982,-1.0985l0 -0.4022 1.4993 0 1.5007 0 0 0.4022c0.4547,0.2632 0.835,0.6424 1.0982,1.0985l0.4011 0 0 1.4993 0 1.5008 -0.4011 0c-0.2632,0.4547 -0.6435,0.835 -1.0982,1.0982l0 0.4011 -1.5007 0 -1.4993 0zm0 0z"/>
   <path id="_119042536" class="fil0 str0" d="M-211.5 300l0 -0.4011c-0.4547,-0.2632 -0.835,-0.6435 -1.0982,-1.0982l-0.4011 0 0 -1.5008 0 -1.4993 0.4011 0c0.2632,-0.4561 0.6435,-0.8353 1.0982,-1.0985l0 -0.4022 1.5007 0 1.4993 0 0 0.4022c0.4562,0.2632 0.8351,0.6424 1.0982,1.0985l0.4025 0 0 1.4993 0 1.5008 -0.4025 0c-0.2631,0.4547 -0.642,0.835 -1.0982,1.0982l0 0.4011 -1.4993 0 -1.5007 0zm0 0z"/>
   <path id="_119046976" class="fil0 str0" d="M-191.5 300l0 -0.4011c-0.4547,-0.2632 -0.834,-0.6435 -1.0986,-1.0982l-0.4007 0 0 -1.5008 0 -1.4993 0.4007 0c0.2646,-0.4561 0.6439,-0.8353 1.0986,-1.0985l0 -0.4022 1.5007 0 1.4993 0 0 0.4022c0.4558,0.2632 0.835,0.6424 1.0996,1.0985l0.4008 0 0 1.4993 0 1.5008 -0.4008 0c-0.2646,0.4547 -0.6438,0.835 -1.0996,1.0982l0 0.4011 -1.4993 0 -1.5007 0zm0 0z"/>
   <path id="_119036296" class="fil0 str0" d="M-171.5 300l0 -0.4011c-0.4561,-0.2632 -0.835,-0.6435 -1.0982,-1.0982l-0.4025 0 0 -1.5008 0 -1.4993 0.4025 0c0.2632,-0.4561 0.6421,-0.8353 1.0982,-1.0985l0 -0.4022 1.4993 0 1.5007 0 0 0.4022c0.4548,0.2632 0.8351,0.6424 1.0982,1.0985l0.4012 0 0 1.4993 0 1.5008 -0.4012 0c-0.2631,0.4547 -0.6434,0.835 -1.0982,1.0982l0 0.4011 -1.5007 0 -1.4993 0zm0 0z"/>
   <path id="_119042056" class="fil0 str0" d="M-151.5 300l0 -0.4011c-0.4547,-0.2632 -0.835,-0.6435 -1.0981,-1.0982l-0.4012 0 0 -1.5008 0 -1.4993 0.4012 0c0.2631,-0.4561 0.6434,-0.8353 1.0981,-1.0985l0 -0.4022 1.5008 0 1.4993 0 0 0.4022c0.4561,0.2632 0.835,0.6424 1.0985,1.0985l0.4022 0 0 1.4993 0 1.5008 -0.4022 0c-0.2635,0.4547 -0.6424,0.835 -1.0985,1.0982l0 0.4011 -1.4993 0 -1.5008 0zm0 0z"/>
   <path id="_119039704" class="fil0 str0" d="M-131.499 300l0 -0.4011c-0.4561,-0.2632 -0.8353,-0.6435 -1.0999,-1.0982l-0.4008 0 0 -1.5008 0 -1.4993 0.4008 0c0.2646,-0.4561 0.6438,-0.8353 1.0999,-1.0985l0 -0.4022 1.4993 0 1.5008 0 0 0.4022c0.4547,0.2632 0.8336,0.6424 1.0982,1.0985l0.4011 0 0 1.4993 0 1.5008 -0.4011 0c-0.2646,0.4547 -0.6435,0.835 -1.0982,1.0982l0 0.4011 -1.5008 0 -1.4993 0zm0 0z"/>
   <path id="_119046592" class="fil0 str0" d="M-111.5 300l0 -0.4011c-0.4562,-0.2632 -0.8351,-0.6435 -1.0982,-1.0982l-0.4026 0 0 -1.5008 0 -1.4993 0.4026 0c0.2631,-0.4561 0.642,-0.8353 1.0982,-1.0985l0 -0.4022 1.4993 0 1.5007 0 0 0.4022c0.4547,0.2632 0.835,0.6424 1.0982,1.0985l0.4011 0 0 1.4993 0 1.5008 -0.4011 0c-0.2632,0.4547 -0.6435,0.835 -1.0982,1.0982l0 0.4011 -1.5007 0 -1.4993 0zm0 0z"/>
   <path id="_119037304" class="fil0 str0" d="M-91.5005 300l0 -0.4011c-0.4547,-0.2632 -0.835,-0.6435 -1.0982,-1.0982l-0.4011 0 0 -1.5008 0 -1.4993 0.4011 0c0.2632,-0.4561 0.6435,-0.8353 1.0982,-1.0985l0 -0.4022 1.5007 0 1.4993 0 0 0.4022c0.4561,0.2632 0.8354,0.6424 1.0986,1.0985l0.4021 0 0 1.4993 0 1.5008 -0.4021 0c-0.2632,0.4547 -0.6425,0.835 -1.0986,1.0982l0 0.4011 -1.4993 0 -1.5007 0zm0 0z"/>
   <path id="_119046952" class="fil0 str0" d="M-71.4994 300l0 -0.4011c-0.4562,-0.2632 -0.835,-0.6435 -1.0986,-1.0982l-0.4021 0 0 -1.5008 0 -1.4993 0.4021 0c0.2636,-0.4561 0.6424,-0.8353 1.0986,-1.0985l0 -0.4022 1.4993 0 1.5007 0 0 0.4022c0.4547,0.2632 0.8336,0.6424 1.0982,1.0985l0.4011 0 0 1.4993 0 1.5008 -0.4011 0c-0.2646,0.4547 -0.6435,0.835 -1.0982,1.0982l0 0.4011 -1.5007 0 -1.4993 0zm0 0z"/>
   <path id="_119040928" class="fil0 str0" d="M-51.5001 300l0 -0.4011c-0.4547,-0.2632 -0.835,-0.6435 -1.0982,-1.0982l-0.4025 0 0 -1.5008 0 -1.4993 0.4025 0c0.2632,-0.4561 0.6435,-0.8353 1.0982,-1.0985l0 -0.4022 1.4993 0 1.5007 0 0 0.4022c0.4548,0.2632 0.835,0.6424 1.0982,1.0985l0.4011 0 0 1.4993 0 1.5008 -0.4011 0c-0.2632,0.4547 -0.6434,0.835 -1.0982,1.0982l0 0.4011 -1.5007 0 -1.4993 0zm0 0z"/>
   <path id="_119046328" class="fil0 str0" d="M-31.5004 300l0 -0.4011c-0.4548,-0.2632 -0.8354,-0.6435 -1.0986,-1.0982l-0.4007 0 0 -1.5008 0 -1.4993 0.4007 0c0.2632,-0.4561 0.6438,-0.8353 1.0986,-1.0985l0 -0.4022 1.5003 0 1.4993 0 0 0.4022c0.4562,0.2632 0.8354,0.6424 1.0986,1.0985l0.4022 0 0 1.4993 0 1.5008 -0.4022 0c-0.2632,0.4547 -0.6424,0.835 -1.0986,1.0982l0 0.4011 -1.4993 0 -1.5003 0zm0 0z"/>
   <path id="_119048896" class="fil0 str0" d="M-11.4997 300l0 -0.4011c-0.4561,-0.2632 -0.835,-0.6435 -1.0982,-1.0982l-0.4025 0 0 -1.5008 0 -1.4993 0.4025 0c0.2632,-0.4561 0.6421,-0.8353 1.0982,-1.0985l0 -0.4022 1.4993 0 1.5007 0 0 0.4022c0.4548,0.2632 0.8351,0.6424 1.0982,1.0985l0.4011 0 0 1.4993 0 1.5008 -0.4011 0c-0.2631,0.4547 -0.6434,0.835 -1.0982,1.0982l0 0.4011 -1.5007 0 -1.4993 0zm0 0z"/>
   <path id="_119039824" class="fil0 str0" d="M8.4996 300l0 -0.4011c-0.4547,-0.2632 -0.835,-0.6435 -1.0982,-1.0982l-0.4011 0 0 -1.5008 0 -1.4993 0.4011 0c0.2632,-0.4561 0.6435,-0.8353 1.0982,-1.0985l0 -0.4022 1.5008 0 1.4993 0 0 0.4022c0.4547,0.2632 0.835,0.6424 1.0982,1.0985l0.4025 0 0 1.4993 0 1.5008 -0.4025 0c-0.2632,0.4547 -0.6435,0.835 -1.0982,1.0982l0 0.4011 -1.4993 0 -1.5008 0zm0 0z"/>
   <path id="_119048632" class="fil0 str0" d="M28.4993 300l0 -0.4011c-0.4547,-0.2632 -0.8339,-0.6435 -1.0985,-1.0982l-0.4008 0 0 -1.5008 0 -1.4993 0.4008 0c0.2646,-0.4561 0.6438,-0.8353 1.0985,-1.0985l0 -0.4022 1.5007 0 1.4993 0 0 0.4022c0.4562,0.2632 0.8351,0.6424 1.0982,1.0985l0.4026 0 0 1.4993 0 1.5008 -0.4026 0c-0.2631,0.4547 -0.642,0.835 -1.0982,1.0982l0 0.4011 -1.4993 0 -1.5007 0zm0 0z"/>
   <path id="_119039848" class="fil0 str0" d="M48.5001 300l0 -0.4011c-0.4562,-0.2632 -0.8351,-0.6435 -1.0982,-1.0982l-0.4026 0 0 -1.5008 0 -1.4993 0.4026 0c0.2631,-0.4561 0.642,-0.8353 1.0982,-1.0985l0 -0.4022 1.4993 0 1.5007 0 0 0.4022c0.4547,0.2632 0.835,0.6424 1.0982,1.0985l0.4011 0 0 1.4993 0 1.5008 -0.4011 0c-0.2632,0.4547 -0.6435,0.835 -1.0982,1.0982l0 0.4011 -1.5007 0 -1.4993 0zm0 0z"/>
   <path id="_119041960" class="fil0 str0" d="M68.4994 300l0 -0.4011c-0.4548,-0.2632 -0.835,-0.6435 -1.0982,-1.0982l-0.4011 0 0 -1.5008 0 -1.4993 0.4011 0c0.2632,-0.4561 0.6434,-0.8353 1.0982,-1.0985l0 -0.4022 1.5007 0 1.4993 0 0 0.4022c0.4561,0.2632 0.8354,0.6424 1.0986,1.0985l0.4021 0 0 1.4993 0 1.5008 -0.4021 0c-0.2632,0.4547 -0.6425,0.835 -1.0986,1.0982l0 0.4011 -1.4993 0 -1.5007 0zm0 0z"/>
   <path id="_119035504" class="fil0 str0" d="M88.4991 300l0 -0.4011c-0.4548,-0.2632 -0.8337,-0.6435 -1.0982,-1.0982l-0.4011 0 0 -1.5008 0 -1.4993 0.4011 0c0.2645,-0.4561 0.6434,-0.8353 1.0982,-1.0985l0 -0.4022 1.5007 0 1.4993 0 0 0.4022c0.4561,0.2632 0.835,0.6424 1.0996,1.0985l0.4011 0 0 1.4993 0 1.5008 -0.4011 0c-0.2646,0.4547 -0.6435,0.835 -1.0996,1.0982l0 0.4011 -1.4993 0 -1.5007 0zm0 0z"/>
   <path id="_119048752" class="fil0 str0" d="M108.5 300l0 -0.4011c-0.4561,-0.2632 -0.835,-0.6435 -1.0982,-1.0982l-0.4025 0 0 -1.5008 0 -1.4993 0.4025 0c0.2632,-0.4561 0.6421,-0.8353 1.0982,-1.0985l0 -0.4022 1.4993 0 1.5007 0 0 0.4022c0.4547,0.2632 0.835,0.6424 1.0982,1.0985l0.4011 0 0 1.4993 0 1.5008 -0.4011 0c-0.2632,0.4547 -0.6435,0.835 -1.0982,1.0982l0 0.4011 -1.5007 0 -1.4993 0zm0 0z"/>
   <path id="_119047168" class="fil0 str0" d="M128.5 300l0 -0.4011c-0.4551,-0.2632 -0.8354,-0.6435 -1.0986,-1.0982l-0.4007 0 0 -1.5008 0 -1.4993 0.4007 0c0.2632,-0.4561 0.6435,-0.8353 1.0986,-1.0985l0 -0.4022 1.5003 0 1.4993 0 0 0.4022c0.4562,0.2632 0.8354,0.6424 1.0986,1.0985l0.4022 0 0 1.4993 0 1.5008 -0.4022 0c-0.2632,0.4547 -0.6424,0.835 -1.0986,1.0982l0 0.4011 -1.4993 0 -1.5003 0zm0 0z"/>
   <path id="_119036872" class="fil0 str0" d="M148.5 300l0 -0.4011c-0.4561,-0.2632 -0.835,-0.6435 -1.0996,-1.0982l-0.4011 0 0 -1.5008 0 -1.4993 0.4011 0c0.2646,-0.4561 0.6435,-0.8353 1.0996,-1.0985l0 -0.4022 1.4993 0 1.5007 0 0 0.4022c0.4548,0.2632 0.8336,0.6424 1.0982,1.0985l0.4011 0 0 1.4993 0 1.5008 -0.4011 0c-0.2646,0.4547 -0.6434,0.835 -1.0982,1.0982l0 0.4011 -1.5007 0 -1.4993 0zm0 0z"/>
   <path id="_119038528" class="fil0 str0" d="M168.5 300l0 -0.4011c-0.4561,-0.2632 -0.835,-0.6435 -1.0982,-1.0982l-0.4025 0 0 -1.5008 0 -1.4993 0.4025 0c0.2632,-0.4561 0.6421,-0.8353 1.0982,-1.0985l0 -0.4022 1.4993 0 1.5008 0 0 0.4022c0.4547,0.2632 0.835,0.6424 1.0982,1.0985l0.4011 0 0 1.4993 0 1.5008 -0.4011 0c-0.2632,0.4547 -0.6435,0.835 -1.0982,1.0982l0 0.4011 -1.5008 0 -1.4993 0zm0 0z"/>
   <path id="_119045872" class="fil0 str0" d="M188.499 300l0 -0.4011c-0.4547,-0.2632 -0.8354,-0.6435 -1.0985,-1.0982l-0.4008 0 0 -1.5008 0 -1.4993 0.4008 0c0.2631,-0.4561 0.6438,-0.8353 1.0985,-1.0985l0 -0.4022 1.5007 0 1.4993 0 0 0.4022c0.4562,0.2632 0.8351,0.6424 1.0982,1.0985l0.4022 0 0 1.4993 0 1.5008 -0.4022 0c-0.2631,0.4547 -0.642,0.835 -1.0982,1.0982l0 0.4011 -1.4993 0 -1.5007 0zm0 0z"/>
   <path id="_119040664" class="fil0 str0" d="M208.5 300l0 -0.4011c-0.4561,-0.2632 -0.835,-0.6435 -1.0982,-1.0982l-0.4025 0 0 -1.5008 0 -1.4993 0.4025 0c0.2632,-0.4561 0.6421,-0.8353 1.0982,-1.0985l0 -0.4022 1.4993 0 1.5008 0 0 0.4022c0.4547,0.2632 0.8336,0.6424 1.0982,1.0985l0.4011 0 0 1.4993 0 1.5008 -0.4011 0c-0.2646,0.4547 -0.6435,0.835 -1.0982,1.0982l0 0.4011 -1.5008 0 -1.4993 0zm0 0z"/>
   <path id="_119036056" class="fil0 str0" d="M228.499 300l0 -0.4011c-0.4548,-0.2632 -0.8351,-0.6435 -1.0982,-1.0982l-0.4025 0 0 -1.5008 0 -1.4993 0.4025 0c0.2631,-0.4561 0.6434,-0.8353 1.0982,-1.0985l0 -0.4022 1.4993 0 1.5007 0 0 0.4022c0.4547,0.2632 0.835,0.6424 1.0985,1.0985l0.4008 0 0 1.4993 0 1.5008 -0.4008 0c-0.2635,0.4547 -0.6438,0.835 -1.0985,1.0982l0 0.4011 -1.5007 0 -1.4993 0zm0 0z"/>
   <path id="_119035312" class="fil0 str0" d="M248.499 300l0 -0.4011c-0.4547,-0.2632 -0.835,-0.6435 -1.0981,-1.0982l-0.4012 0 0 -1.5008 0 -1.4993 0.4012 0c0.2631,-0.4561 0.6434,-0.8353 1.0981,-1.0985l0 -0.4022 1.5008 0 1.4993 0 0 0.4022c0.4561,0.2632 0.835,0.6424 1.0982,1.0985l0.4025 0 0 1.4993 0 1.5008 -0.4025 0c-0.2632,0.4547 -0.6421,0.835 -1.0982,1.0982l0 0.4011 -1.4993 0 -1.5008 0zm0 0z"/>
   <path id="_119040064" class="fil0 str0" d="M268.5 300l0 -0.4011c-0.4562,-0.2632 -0.835,-0.6435 -1.0982,-1.0982l-0.4025 0 0 -1.5008 0 -1.4993 0.4025 0c0.2632,-0.4561 0.642,-0.8353 1.0982,-1.0985l0 -0.4022 1.4993 0 1.5007 0 0 0.4022c0.4547,0.2632 0.835,0.6424 1.0982,1.0985l0.4011 0 0 1.4993 0 1.5008 -0.4011 0c-0.2632,0.4547 -0.6435,0.835 -1.0982,1.0982l0 0.4011 -1.5007 0 -1.4993 0zm0 0z"/>
   <path id="_119048008" class="fil0 str0" d="M288.499 300l0 -0.4011c-0.4551,-0.2632 -0.8354,-0.6435 -1.0986,-1.0982l-0.4007 0 0 -1.5008 0 -1.4993 0.4007 0c0.2632,-0.4561 0.6435,-0.8353 1.0986,-1.0985l0 -0.4022 1.5003 0 1.4993 0 0 0.4022c0.4548,0.2632 0.8354,0.6424 1.0986,1.0985l0.4021 0 0 1.4993 0 1.5008 -0.4021 0c-0.2632,0.4547 -0.6438,0.835 -1.0986,1.0982l0 0.4011 -1.4993 0 -1.5003 0zm0 0z"/>
   <polygon id="_119038816" class="fil0 str0" points="-283,295.501 -277,295.501 -277,298.501 -283,298.501 "/>
   <polygon id="_119045464" class="fil0 str0" points="-263,295.501 -257,295.501 -257,298.501 -263,298.501 "/>
   <polygon id="_119040256" class="fil0 str0" points="-242.999,295.501 -236.999,295.501 -236.999,298.501 -242.999,298.501 "/>
   <polygon id="_119046664" class="fil0 str0" points="-223,295.501 -216.999,295.501 -216.999,298.501 -223,298.501 "/>
   <polygon id="_119050528" class="fil0 str0" points="-203,295.501 -197,295.501 -197,298.501 -203,298.501 "/>
   <polygon id="_119043328" class="fil0 str0" points="-182.999,295.501 -176.999,295.501 -176.999,298.501 -182.999,298.501 "/>
   <polygon id="_119040976" class="fil0 str0" points="-163,295.501 -157,295.501 -157,298.501 -163,298.501 "/>
   <polygon id="_119047864" class="fil0 str0" points="-142.999,295.501 -136.999,295.501 -136.999,298.501 -142.999,298.501 "/>
   <polygon id="_119035768" class="fil0 str0" points="-123,295.501 -117,295.501 -117,298.501 -123,298.501 "/>
   <polygon id="_119049856" class="fil0 str0" points="-103,295.501 -97,295.501 -97,298.501 -103,298.501 "/>
   <polygon id="_119044168" class="fil0 str0" points="-82.9993,295.501 -76.9992,295.501 -76.9992,298.501 -82.9993,298.501 "/>
   <polygon id="_119049328" class="fil0 str0" points="-62.9996,295.501 -56.9996,295.501 -56.9996,298.501 -62.9996,298.501 "/>
   <polygon id="_119035696" class="fil0 str0" points="-42.9989,295.501 -36.9988,295.501 -36.9988,298.501 -42.9989,298.501 "/>
   <polygon id="_119045104" class="fil0 str0" points="-22.9995,295.501 -16.9995,295.501 -16.9995,298.501 -22.9995,298.501 "/>
   <polygon id="_119040376" class="fil0 str0" points="-2.9999,295.501 3.0002,295.501 3.0002,298.501 -2.9999,298.501 "/>
   <polygon id="_119050072" class="fil0 str0" points="17.0009,295.501 23.0009,295.501 23.0009,298.501 17.0009,298.501 "/>
   <polygon id="_119050768" class="fil0 str0" points="37.0002,295.501 43.0002,295.501 43.0002,298.501 37.0002,298.501 "/>
   <polygon id="_119042368" class="fil0 str0" points="56.9999,295.501 62.9999,295.501 62.9999,298.501 56.9999,298.501 "/>
   <polygon id="_119037280" class="fil0 str0" points="77.0006,295.501 83.0007,295.501 83.0007,298.501 77.0006,298.501 "/>
   <polygon id="_119049520" class="fil0 str0" points="96.9999,295.501 103,295.501 103,298.501 96.9999,298.501 "/>
   <polygon id="_119048440" class="fil0 str0" points="117.001,295.501 123.001,295.501 123.001,298.501 117.001,298.501 "/>
   <polygon id="_119042080" class="fil0 str0" points="137,295.501 143,295.501 143,298.501 137,298.501 "/>
   <polygon id="_119036560" class="fil0 str0" points="157,295.501 163,295.501 163,298.501 157,298.501 "/>
   <polygon id="_119045224" class="fil0 str0" points="177.001,295.501 183.001,295.501 183.001,298.501 177.001,298.501 "/>
   <polygon id="_119037520" class="fil0 str0" points="197,295.501 203,295.501 203,298.501 197,298.501 "/>
   <polygon id="_119036152" class="fil0 str0" points="217.001,295.501 223.001,295.501 223.001,298.501 217.001,298.501 "/>
   <polygon id="_119049664" class="fil0 str0" points="237.001,295.501 243.001,295.501 243.001,298.501 237.001,298.501 "/>
   <polygon id="_119047120" class="fil0 str0" points="257,295.501 263,295.501 263,298.501 257,298.501 "/>
   <polygon id="_119046040" class="fil0 str0" points="277.001,295.501 283.001,295.501 283.001,298.501 277.001,298.501 "/>
  </g>
 </g>
</svg>
