<?xml version="1.0" standalone="no"?>
<!DOCTYPE svg PUBLIC "-//W3C//DTD SVG 1.1//EN" "http://www.w3.org/Graphics/SVG/1.1/DTD/svg11.dtd">
<svg width="102mm" height="102mm" viewBox="-51 -51 102 102" xmlns="http://www.w3.org/2000/svg" version="1.1">
<title>OpenSCAD Model</title>
<path d="
M 6.65683,50.5637 L 13.1998,49.2622 L 19.5168,47.1178 L 25.5,44.1673 L 31.0468,40.461 L 36.0624,36.0624
 L 40.461,31.0468 L 44.1673,25.5 L 47.1178,19.5168 L 49.2622,13.1998 L 50.5637,6.65683 L 51,-0
 L 50.5637,-6.65683 L 49.2622,-13.1998 L 47.1178,-19.5168 L 44.1673,-25.5 L 40.461,-31.0468 L 36.0624,-36.0624
 L 31.0468,-40.461 L 25.5,-44.1673 L 19.5168,-47.1178 L 13.1998,-49.2622 L 6.65683,-50.5637 L 0,-51
 L -6.65683,-50.5637 L -13.1998,-49.2622 L -19.5168,-47.1178 L -25.5,-44.1673 L -31.0468,-40.461 L -36.0624,-36.0624
 L -40.461,-31.0468 L -44.1673,-25.5 L -47.1178,-19.5168 L -49.2622,-13.1998 L -50.5637,-6.65683 L -51,-0
 L -50.5637,6.65683 L -49.2622,13.1998 L -47.1178,19.5168 L -44.1673,25.5 L -40.461,31.0468 L -36.0624,36.0624
 L -31.0468,40.461 L -25.5,44.1673 L -19.5168,47.1178 L -13.1998,49.2622 L -6.65683,50.5637 L 0,51
 z
M -0.42421,-41.7778 L -0.841156,-41.8607 L -1.24371,-41.9974 L -1.625,-42.1854 L -1.97847,-42.4216 L -2.2981,-42.7019
 L -2.57838,-43.0215 L -2.81458,-43.375 L -3.00259,-43.7563 L -3.13925,-44.1588 L -3.22218,-44.5758 L -3.25,-45
 L -3.22218,-45.4242 L -3.13925,-45.8412 L -3.00259,-46.2437 L -2.81458,-46.625 L -2.57838,-46.9785 L -2.2981,-47.2981
 L -1.97847,-47.5784 L -1.625,-47.8146 L -1.24371,-48.0026 L -0.841156,-48.1393 L -0.42421,-48.2222 L 0,-48.25
 L 0.42421,-48.2222 L 0.841156,-48.1393 L 1.24371,-48.0026 L 1.625,-47.8146 L 1.97847,-47.5784 L 2.2981,-47.2981
 L 2.57838,-46.9785 L 2.81458,-46.625 L 3.00259,-46.2437 L 3.13925,-45.8412 L 3.22218,-45.4242 L 3.25,-45
 L 3.22218,-44.5758 L 3.13925,-44.1588 L 3.00259,-43.7563 L 2.81458,-43.375 L 2.57838,-43.0215 L 2.2981,-42.7019
 L 1.97847,-42.4216 L 1.625,-42.1854 L 1.24371,-41.9974 L 0.841156,-41.8607 L 0.42421,-41.7778 L 0,-41.75
 z
M -15.4242,-41.7778 L -15.8412,-41.8607 L -16.2437,-41.9974 L -16.625,-42.1854 L -16.9785,-42.4216 L -17.2981,-42.7019
 L -17.5784,-43.0215 L -17.8146,-43.375 L -18.0026,-43.7563 L -18.1393,-44.1588 L -18.2222,-44.5758 L -18.25,-45
 L -18.2222,-45.4242 L -18.1393,-45.8412 L -18.0026,-46.2437 L -17.8146,-46.625 L -17.5784,-46.9785 L -17.2981,-47.2981
 L -16.9785,-47.5784 L -16.625,-47.8146 L -16.2437,-48.0026 L -15.8412,-48.1393 L -15.4242,-48.2222 L -15,-48.25
 L -14.5758,-48.2222 L -14.1588,-48.1393 L -13.7563,-48.0026 L -13.375,-47.8146 L -13.0215,-47.5784 L -12.7019,-47.2981
 L -12.4216,-46.9785 L -12.1854,-46.625 L -11.9974,-46.2437 L -11.8607,-45.8412 L -11.7778,-45.4242 L -11.75,-45
 L -11.7778,-44.5758 L -11.8607,-44.1588 L -11.9974,-43.7563 L -12.1854,-43.375 L -12.4216,-43.0215 L -12.7019,-42.7019
 L -13.0215,-42.4216 L -13.375,-42.1854 L -13.7563,-41.9974 L -14.1588,-41.8607 L -14.5758,-41.7778 L -15,-41.75
 z
M 14.5758,-41.7778 L 14.1588,-41.8607 L 13.7563,-41.9974 L 13.375,-42.1854 L 13.0215,-42.4216 L 12.7019,-42.7019
 L 12.4216,-43.0215 L 12.1854,-43.375 L 11.9974,-43.7563 L 11.8607,-44.1588 L 11.7778,-44.5758 L 11.75,-45
 L 11.7778,-45.4242 L 11.8607,-45.8412 L 11.9974,-46.2437 L 12.1854,-46.625 L 12.4216,-46.9785 L 12.7019,-47.2981
 L 13.0215,-47.5784 L 13.375,-47.8146 L 13.7563,-48.0026 L 14.1588,-48.1393 L 14.5758,-48.2222 L 15,-48.25
 L 15.4242,-48.2222 L 15.8412,-48.1393 L 16.2437,-48.0026 L 16.625,-47.8146 L 16.9785,-47.5784 L 17.2981,-47.2981
 L 17.5784,-46.9785 L 17.8146,-46.625 L 18.0026,-46.2437 L 18.1393,-45.8412 L 18.2222,-45.4242 L 18.25,-45
 L 18.2222,-44.5758 L 18.1393,-44.1588 L 18.0026,-43.7563 L 17.8146,-43.375 L 17.5784,-43.0215 L 17.2981,-42.7019
 L 16.9785,-42.4216 L 16.625,-42.1854 L 16.2437,-41.9974 L 15.8412,-41.8607 L 15.4242,-41.7778 L 15,-41.75
 z
M -30.4242,-26.7778 L -30.8412,-26.8607 L -31.2437,-26.9974 L -31.625,-27.1854 L -31.9785,-27.4216 L -32.2981,-27.7019
 L -32.5784,-28.0215 L -32.8146,-28.375 L -33.0026,-28.7563 L -33.1393,-29.1588 L -33.2222,-29.5758 L -33.25,-30
 L -33.2222,-30.4242 L -33.1393,-30.8412 L -33.0026,-31.2437 L -32.8146,-31.625 L -32.5784,-31.9785 L -32.2981,-32.2981
 L -31.9785,-32.5784 L -31.625,-32.8146 L -31.2437,-33.0026 L -30.8412,-33.1393 L -30.4242,-33.2222 L -30,-33.25
 L -29.5758,-33.2222 L -29.1588,-33.1393 L -28.7563,-33.0026 L -28.375,-32.8146 L -28.0215,-32.5784 L -27.7019,-32.2981
 L -27.4216,-31.9785 L -27.1854,-31.625 L -26.9974,-31.2437 L -26.8607,-30.8412 L -26.7778,-30.4242 L -26.75,-30
 L -26.7778,-29.5758 L -26.8607,-29.1588 L -26.9974,-28.7563 L -27.1854,-28.375 L -27.4216,-28.0215 L -27.7019,-27.7019
 L -28.0215,-27.4216 L -28.375,-27.1854 L -28.7563,-26.9974 L -29.1588,-26.8607 L -29.5758,-26.7778 L -30,-26.75
 z
M 29.5758,-26.7778 L 29.1588,-26.8607 L 28.7563,-26.9974 L 28.375,-27.1854 L 28.0215,-27.4216 L 27.7019,-27.7019
 L 27.4216,-28.0215 L 27.1854,-28.375 L 26.9974,-28.7563 L 26.8607,-29.1588 L 26.7778,-29.5758 L 26.75,-30
 L 26.7778,-30.4242 L 26.8607,-30.8412 L 26.9974,-31.2437 L 27.1854,-31.625 L 27.4216,-31.9785 L 27.7019,-32.2981
 L 28.0215,-32.5784 L 28.375,-32.8146 L 28.7563,-33.0026 L 29.1588,-33.1393 L 29.5758,-33.2222 L 30,-33.25
 L 30.4242,-33.2222 L 30.8412,-33.1393 L 31.2437,-33.0026 L 31.625,-32.8146 L 31.9785,-32.5784 L 32.2981,-32.2981
 L 32.5784,-31.9785 L 32.8146,-31.625 L 33.0026,-31.2437 L 33.1393,-30.8412 L 33.2222,-30.4242 L 33.25,-30
 L 33.2222,-29.5758 L 33.1393,-29.1588 L 33.0026,-28.7563 L 32.8146,-28.375 L 32.5784,-28.0215 L 32.2981,-27.7019
 L 31.9785,-27.4216 L 31.625,-27.1854 L 31.2437,-26.9974 L 30.8412,-26.8607 L 30.4242,-26.7778 L 30,-26.75
 z
M 13.375,-32.8146 L 13.7563,-33.0026 L 14.1588,-33.1393 L 14.5758,-33.2222 L 15,-33.25 L 15.4242,-33.2222
 L 15.8412,-33.1393 L 16.2437,-33.0026 L 16.625,-32.8146 L 16.9785,-32.5784 L 17.2981,-32.2981 L 17.5784,-31.9785
 L 17.8146,-31.625 L 18.0026,-31.2437 L 18.1393,-30.8412 L 18.2222,-30.4242 L 18.25,-30 L 18.2222,-29.5758
 L 18.1393,-29.1588 L 18.0026,-28.7563 L 17.8146,-28.375 L 17.5784,-28.0215 L 17.2981,-27.7019 L 16.9785,-27.4216
 L 16.625,-27.1854 L 16.2437,-26.9974 L 15.8412,-26.8607 L 15.4242,-26.7778 L 15,-26.75 L 14.5758,-26.7778
 L 14.1588,-26.8607 L 13.7563,-26.9974 L 13.375,-27.1854 L 13.0215,-27.4216 L 12.7019,-27.7019 L 12.4216,-28.0215
 L 12.1854,-28.375 L 11.9974,-28.7563 L 11.8607,-29.1588 L 11.7778,-29.5758 L 11.75,-30 L 11.7778,-30.4242
 L 11.8607,-30.8412 L 11.9974,-31.2437 L 12.1854,-31.625 L 12.4216,-31.9785 L 12.7019,-32.2981 L 13.0215,-32.5784
 z
M -15.4242,-26.7778 L -15.8412,-26.8607 L -16.2437,-26.9974 L -16.625,-27.1854 L -16.9785,-27.4216 L -17.2981,-27.7019
 L -17.5784,-28.0215 L -17.8146,-28.375 L -18.0026,-28.7563 L -18.1393,-29.1588 L -18.2222,-29.5758 L -18.25,-30
 L -18.2222,-30.4242 L -18.1393,-30.8412 L -18.0026,-31.2437 L -17.8146,-31.625 L -17.5784,-31.9785 L -17.2981,-32.2981
 L -16.9785,-32.5784 L -16.625,-32.8146 L -16.2437,-33.0026 L -15.8412,-33.1393 L -15.4242,-33.2222 L -15,-33.25
 L -14.5758,-33.2222 L -14.1588,-33.1393 L -13.7563,-33.0026 L -13.375,-32.8146 L -13.0215,-32.5784 L -12.7019,-32.2981
 L -12.4216,-31.9785 L -12.1854,-31.625 L -11.9974,-31.2437 L -11.8607,-30.8412 L -11.7778,-30.4242 L -11.75,-30
 L -11.7778,-29.5758 L -11.8607,-29.1588 L -11.9974,-28.7563 L -12.1854,-28.375 L -12.4216,-28.0215 L -12.7019,-27.7019
 L -13.0215,-27.4216 L -13.375,-27.1854 L -13.7563,-26.9974 L -14.1588,-26.8607 L -14.5758,-26.7778 L -15,-26.75
 z
M -45.4242,-11.7778 L -45.8412,-11.8607 L -46.2437,-11.9974 L -46.625,-12.1854 L -46.9785,-12.4216 L -47.2981,-12.7019
 L -47.5784,-13.0215 L -47.8146,-13.375 L -48.0026,-13.7563 L -48.1393,-14.1588 L -48.2222,-14.5758 L -48.25,-15
 L -48.2222,-15.4242 L -48.1393,-15.8412 L -48.0026,-16.2437 L -47.8146,-16.625 L -47.5784,-16.9785 L -47.2981,-17.2981
 L -46.9785,-17.5784 L -46.625,-17.8146 L -46.2437,-18.0026 L -45.8412,-18.1393 L -45.4242,-18.2222 L -45,-18.25
 L -44.5758,-18.2222 L -44.1588,-18.1393 L -43.7563,-18.0026 L -43.375,-17.8146 L -43.0215,-17.5784 L -42.7019,-17.2981
 L -42.4216,-16.9785 L -42.1854,-16.625 L -41.9974,-16.2437 L -41.8607,-15.8412 L -41.7778,-15.4242 L -41.75,-15
 L -41.7778,-14.5758 L -41.8607,-14.1588 L -41.9974,-13.7563 L -42.1854,-13.375 L -42.4216,-13.0215 L -42.7019,-12.7019
 L -43.0215,-12.4216 L -43.375,-12.1854 L -43.7563,-11.9974 L -44.1588,-11.8607 L -44.5758,-11.7778 L -45,-11.75
 z
M -3.00259,-13.7563 L -3.13925,-14.1588 L -3.22218,-14.5758 L -3.25,-15 L -3.22218,-15.4242 L -3.13925,-15.8412
 L -3.00259,-16.2437 L -2.81458,-16.625 L -2.57838,-16.9785 L -2.2981,-17.2981 L -1.97847,-17.5784 L -1.625,-17.8146
 L -1.24371,-18.0026 L -0.841156,-18.1393 L -0.42421,-18.2222 L 0,-18.25 L 0.42421,-18.2222 L 0.841156,-18.1393
 L 1.24371,-18.0026 L 1.625,-17.8146 L 1.97847,-17.5784 L 2.2981,-17.2981 L 2.57838,-16.9785 L 2.81458,-16.625
 L 3.00259,-16.2437 L 3.13925,-15.8412 L 3.22218,-15.4242 L 3.25,-15 L 3.22218,-14.5758 L 3.13925,-14.1588
 L 3.00259,-13.7563 L 2.81458,-13.375 L 2.57838,-13.0215 L 2.2981,-12.7019 L 1.97847,-12.4216 L 1.625,-12.1854
 L 1.24371,-11.9974 L 0.841156,-11.8607 L 0.42421,-11.7778 L 0,-11.75 L -0.42421,-11.7778 L -0.841156,-11.8607
 L -1.24371,-11.9974 L -1.625,-12.1854 L -1.97847,-12.4216 L -2.2981,-12.7019 L -2.57838,-13.0215 L -2.81458,-13.375
 z
M -30.4242,-11.7778 L -30.8412,-11.8607 L -31.2437,-11.9974 L -31.625,-12.1854 L -31.9785,-12.4216 L -32.2981,-12.7019
 L -32.5784,-13.0215 L -32.8146,-13.375 L -33.0026,-13.7563 L -33.1393,-14.1588 L -33.2222,-14.5758 L -33.25,-15
 L -33.2222,-15.4242 L -33.1393,-15.8412 L -33.0026,-16.2437 L -32.8146,-16.625 L -32.5784,-16.9785 L -32.2981,-17.2981
 L -31.9785,-17.5784 L -31.625,-17.8146 L -31.2437,-18.0026 L -30.8412,-18.1393 L -30.4242,-18.2222 L -30,-18.25
 L -29.5758,-18.2222 L -29.1588,-18.1393 L -28.7563,-18.0026 L -28.375,-17.8146 L -28.0215,-17.5784 L -27.7019,-17.2981
 L -27.4216,-16.9785 L -27.1854,-16.625 L -26.9974,-16.2437 L -26.8607,-15.8412 L -26.7778,-15.4242 L -26.75,-15
 L -26.7778,-14.5758 L -26.8607,-14.1588 L -26.9974,-13.7563 L -27.1854,-13.375 L -27.4216,-13.0215 L -27.7019,-12.7019
 L -28.0215,-12.4216 L -28.375,-12.1854 L -28.7563,-11.9974 L -29.1588,-11.8607 L -29.5758,-11.7778 L -30,-11.75
 z
M 29.5758,-11.7778 L 29.1588,-11.8607 L 28.7563,-11.9974 L 28.375,-12.1854 L 28.0215,-12.4216 L 27.7019,-12.7019
 L 27.4216,-13.0215 L 27.1854,-13.375 L 26.9974,-13.7563 L 26.8607,-14.1588 L 26.7778,-14.5758 L 26.75,-15
 L 26.7778,-15.4242 L 26.8607,-15.8412 L 26.9974,-16.2437 L 27.1854,-16.625 L 27.4216,-16.9785 L 27.7019,-17.2981
 L 28.0215,-17.5784 L 28.375,-17.8146 L 28.7563,-18.0026 L 29.1588,-18.1393 L 29.5758,-18.2222 L 30,-18.25
 L 30.4242,-18.2222 L 30.8412,-18.1393 L 31.2437,-18.0026 L 31.625,-17.8146 L 31.9785,-17.5784 L 32.2981,-17.2981
 L 32.5784,-16.9785 L 32.8146,-16.625 L 33.0026,-16.2437 L 33.1393,-15.8412 L 33.2222,-15.4242 L 33.25,-15
 L 33.2222,-14.5758 L 33.1393,-14.1588 L 33.0026,-13.7563 L 32.8146,-13.375 L 32.5784,-13.0215 L 32.2981,-12.7019
 L 31.9785,-12.4216 L 31.625,-12.1854 L 31.2437,-11.9974 L 30.8412,-11.8607 L 30.4242,-11.7778 L 30,-11.75
 z
M 44.5758,-11.7778 L 44.1588,-11.8607 L 43.7563,-11.9974 L 43.375,-12.1854 L 43.0215,-12.4216 L 42.7019,-12.7019
 L 42.4216,-13.0215 L 42.1854,-13.375 L 41.9974,-13.7563 L 41.8607,-14.1588 L 41.7778,-14.5758 L 41.75,-15
 L 41.7778,-15.4242 L 41.8607,-15.8412 L 41.9974,-16.2437 L 42.1854,-16.625 L 42.4216,-16.9785 L 42.7019,-17.2981
 L 43.0215,-17.5784 L 43.375,-17.8146 L 43.7563,-18.0026 L 44.1588,-18.1393 L 44.5758,-18.2222 L 45,-18.25
 L 45.4242,-18.2222 L 45.8412,-18.1393 L 46.2437,-18.0026 L 46.625,-17.8146 L 46.9785,-17.5784 L 47.2981,-17.2981
 L 47.5784,-16.9785 L 47.8146,-16.625 L 48.0026,-16.2437 L 48.1393,-15.8412 L 48.2222,-15.4242 L 48.25,-15
 L 48.2222,-14.5758 L 48.1393,-14.1588 L 48.0026,-13.7563 L 47.8146,-13.375 L 47.5784,-13.0215 L 47.2981,-12.7019
 L 46.9785,-12.4216 L 46.625,-12.1854 L 46.2437,-11.9974 L 45.8412,-11.8607 L 45.4242,-11.7778 L 45,-11.75
 z
M 14.5758,-11.7778 L 14.1588,-11.8607 L 13.7563,-11.9974 L 13.375,-12.1854 L 13.0215,-12.4216 L 12.7019,-12.7019
 L 12.4216,-13.0215 L 12.1854,-13.375 L 11.9974,-13.7563 L 11.8607,-14.1588 L 11.7778,-14.5758 L 11.75,-15
 L 11.7778,-15.4242 L 11.8607,-15.8412 L 11.9974,-16.2437 L 12.1854,-16.625 L 12.4216,-16.9785 L 12.7019,-17.2981
 L 13.0215,-17.5784 L 13.375,-17.8146 L 13.7563,-18.0026 L 14.1588,-18.1393 L 14.5758,-18.2222 L 15,-18.25
 L 15.4242,-18.2222 L 15.8412,-18.1393 L 16.2437,-18.0026 L 16.625,-17.8146 L 16.9785,-17.5784 L 17.2981,-17.2981
 L 17.5784,-16.9785 L 17.8146,-16.625 L 18.0026,-16.2437 L 18.1393,-15.8412 L 18.2222,-15.4242 L 18.25,-15
 L 18.2222,-14.5758 L 18.1393,-14.1588 L 18.0026,-13.7563 L 17.8146,-13.375 L 17.5784,-13.0215 L 17.2981,-12.7019
 L 16.9785,-12.4216 L 16.625,-12.1854 L 16.2437,-11.9974 L 15.8412,-11.8607 L 15.4242,-11.7778 L 15,-11.75
 z
M -15.4242,3.22218 L -15.8412,3.13925 L -16.2437,3.00259 L -16.625,2.81458 L -16.9785,2.57838 L -17.2981,2.2981
 L -17.5784,1.97847 L -17.8146,1.625 L -18.0026,1.24371 L -18.1393,0.841156 L -18.2222,0.42421 L -18.25,-0
 L -18.2222,-0.42421 L -18.1393,-0.841156 L -18.0026,-1.24371 L -17.8146,-1.625 L -17.5784,-1.97847 L -17.2981,-2.2981
 L -16.9785,-2.57838 L -16.625,-2.81458 L -16.2437,-3.00259 L -15.8412,-3.13925 L -15.4242,-3.22218 L -15,-3.25
 L -14.5758,-3.22218 L -14.1588,-3.13925 L -13.7563,-3.00259 L -13.375,-2.81458 L -13.0215,-2.57838 L -12.7019,-2.2981
 L -12.4216,-1.97847 L -12.1854,-1.625 L -11.9974,-1.24371 L -11.8607,-0.841156 L -11.7778,-0.42421 L -11.75,-0
 L -11.7778,0.42421 L -11.8607,0.841156 L -11.9974,1.24371 L -12.1854,1.625 L -12.4216,1.97847 L -12.7019,2.2981
 L -13.0215,2.57838 L -13.375,2.81458 L -13.7563,3.00259 L -14.1588,3.13925 L -14.5758,3.22218 L -15,3.25
 z
M -0.42421,3.22218 L -0.841156,3.13925 L -1.24371,3.00259 L -1.625,2.81458 L -1.97847,2.57838 L -2.2981,2.2981
 L -2.57838,1.97847 L -2.81458,1.625 L -3.00259,1.24371 L -3.13925,0.841156 L -3.22218,0.42421 L -3.25,-0
 L -3.22218,-0.42421 L -3.13925,-0.841156 L -3.00259,-1.24371 L -2.81458,-1.625 L -2.57838,-1.97847 L -2.2981,-2.2981
 L -1.97847,-2.57838 L -1.625,-2.81458 L -1.24371,-3.00259 L -0.841156,-3.13925 L -0.42421,-3.22218 L 0,-3.25
 L 0.42421,-3.22218 L 0.841156,-3.13925 L 1.24371,-3.00259 L 1.625,-2.81458 L 1.97847,-2.57838 L 2.2981,-2.2981
 L 2.57838,-1.97847 L 2.81458,-1.625 L 3.00259,-1.24371 L 3.13925,-0.841156 L 3.22218,-0.42421 L 3.25,-0
 L 3.22218,0.42421 L 3.13925,0.841156 L 3.00259,1.24371 L 2.81458,1.625 L 2.57838,1.97847 L 2.2981,2.2981
 L 1.97847,2.57838 L 1.625,2.81458 L 1.24371,3.00259 L 0.841156,3.13925 L 0.42421,3.22218 L 0,3.25
 z
M 29.5758,3.22218 L 29.1588,3.13925 L 28.7563,3.00259 L 28.375,2.81458 L 28.0215,2.57838 L 27.7019,2.2981
 L 27.4216,1.97847 L 27.1854,1.625 L 26.9974,1.24371 L 26.8607,0.841156 L 26.7778,0.42421 L 26.75,-0
 L 26.7778,-0.42421 L 26.8607,-0.841156 L 26.9974,-1.24371 L 27.1854,-1.625 L 27.4216,-1.97847 L 27.7019,-2.2981
 L 28.0215,-2.57838 L 28.375,-2.81458 L 28.7563,-3.00259 L 29.1588,-3.13925 L 29.5758,-3.22218 L 30,-3.25
 L 30.4242,-3.22218 L 30.8412,-3.13925 L 31.2437,-3.00259 L 31.625,-2.81458 L 31.9785,-2.57838 L 32.2981,-2.2981
 L 32.5784,-1.97847 L 32.8146,-1.625 L 33.0026,-1.24371 L 33.1393,-0.841156 L 33.2222,-0.42421 L 33.25,-0
 L 33.2222,0.42421 L 33.1393,0.841156 L 33.0026,1.24371 L 32.8146,1.625 L 32.5784,1.97847 L 32.2981,2.2981
 L 31.9785,2.57838 L 31.625,2.81458 L 31.2437,3.00259 L 30.8412,3.13925 L 30.4242,3.22218 L 30,3.25
 z
M -45.4242,3.22218 L -45.8412,3.13925 L -46.2437,3.00259 L -46.625,2.81458 L -46.9785,2.57838 L -47.2981,2.2981
 L -47.5784,1.97847 L -47.8146,1.625 L -48.0026,1.24371 L -48.1393,0.841156 L -48.2222,0.42421 L -48.25,-0
 L -48.2222,-0.42421 L -48.1393,-0.841156 L -48.0026,-1.24371 L -47.8146,-1.625 L -47.5784,-1.97847 L -47.2981,-2.2981
 L -46.9785,-2.57838 L -46.625,-2.81458 L -46.2437,-3.00259 L -45.8412,-3.13925 L -45.4242,-3.22218 L -45,-3.25
 L -44.5758,-3.22218 L -44.1588,-3.13925 L -43.7563,-3.00259 L -43.375,-2.81458 L -43.0215,-2.57838 L -42.7019,-2.2981
 L -42.4216,-1.97847 L -42.1854,-1.625 L -41.9974,-1.24371 L -41.8607,-0.841156 L -41.7778,-0.42421 L -41.75,-0
 L -41.7778,0.42421 L -41.8607,0.841156 L -41.9974,1.24371 L -42.1854,1.625 L -42.4216,1.97847 L -42.7019,2.2981
 L -43.0215,2.57838 L -43.375,2.81458 L -43.7563,3.00259 L -44.1588,3.13925 L -44.5758,3.22218 L -45,3.25
 z
M 44.5758,3.22218 L 44.1588,3.13925 L 43.7563,3.00259 L 43.375,2.81458 L 43.0215,2.57838 L 42.7019,2.2981
 L 42.4216,1.97847 L 42.1854,1.625 L 41.9974,1.24371 L 41.8607,0.841156 L 41.7778,0.42421 L 41.75,-0
 L 41.7778,-0.42421 L 41.8607,-0.841156 L 41.9974,-1.24371 L 42.1854,-1.625 L 42.4216,-1.97847 L 42.7019,-2.2981
 L 43.0215,-2.57838 L 43.375,-2.81458 L 43.7563,-3.00259 L 44.1588,-3.13925 L 44.5758,-3.22218 L 45,-3.25
 L 45.4242,-3.22218 L 45.8412,-3.13925 L 46.2437,-3.00259 L 46.625,-2.81458 L 46.9785,-2.57838 L 47.2981,-2.2981
 L 47.5784,-1.97847 L 47.8146,-1.625 L 48.0026,-1.24371 L 48.1393,-0.841156 L 48.2222,-0.42421 L 48.25,-0
 L 48.2222,0.42421 L 48.1393,0.841156 L 48.0026,1.24371 L 47.8146,1.625 L 47.5784,1.97847 L 47.2981,2.2981
 L 46.9785,2.57838 L 46.625,2.81458 L 46.2437,3.00259 L 45.8412,3.13925 L 45.4242,3.22218 L 45,3.25
 z
M -30.4242,3.22218 L -30.8412,3.13925 L -31.2437,3.00259 L -31.625,2.81458 L -31.9785,2.57838 L -32.2981,2.2981
 L -32.5784,1.97847 L -32.8146,1.625 L -33.0026,1.24371 L -33.1393,0.841156 L -33.2222,0.42421 L -33.25,-0
 L -33.2222,-0.42421 L -33.1393,-0.841156 L -33.0026,-1.24371 L -32.8146,-1.625 L -32.5784,-1.97847 L -32.2981,-2.2981
 L -31.9785,-2.57838 L -31.625,-2.81458 L -31.2437,-3.00259 L -30.8412,-3.13925 L -30.4242,-3.22218 L -30,-3.25
 L -29.5758,-3.22218 L -29.1588,-3.13925 L -28.7563,-3.00259 L -28.375,-2.81458 L -28.0215,-2.57838 L -27.7019,-2.2981
 L -27.4216,-1.97847 L -27.1854,-1.625 L -26.9974,-1.24371 L -26.8607,-0.841156 L -26.7778,-0.42421 L -26.75,-0
 L -26.7778,0.42421 L -26.8607,0.841156 L -26.9974,1.24371 L -27.1854,1.625 L -27.4216,1.97847 L -27.7019,2.2981
 L -28.0215,2.57838 L -28.375,2.81458 L -28.7563,3.00259 L -29.1588,3.13925 L -29.5758,3.22218 L -30,3.25
 z
M 14.5758,3.22218 L 14.1588,3.13925 L 13.7563,3.00259 L 13.375,2.81458 L 13.0215,2.57838 L 12.7019,2.2981
 L 12.4216,1.97847 L 12.1854,1.625 L 11.9974,1.24371 L 11.8607,0.841156 L 11.7778,0.42421 L 11.75,-0
 L 11.7778,-0.42421 L 11.8607,-0.841156 L 11.9974,-1.24371 L 12.1854,-1.625 L 12.4216,-1.97847 L 12.7019,-2.2981
 L 13.0215,-2.57838 L 13.375,-2.81458 L 13.7563,-3.00259 L 14.1588,-3.13925 L 14.5758,-3.22218 L 15,-3.25
 L 15.4242,-3.22218 L 15.8412,-3.13925 L 16.2437,-3.00259 L 16.625,-2.81458 L 16.9785,-2.57838 L 17.2981,-2.2981
 L 17.5784,-1.97847 L 17.8146,-1.625 L 18.0026,-1.24371 L 18.1393,-0.841156 L 18.2222,-0.42421 L 18.25,-0
 L 18.2222,0.42421 L 18.1393,0.841156 L 18.0026,1.24371 L 17.8146,1.625 L 17.5784,1.97847 L 17.2981,2.2981
 L 16.9785,2.57838 L 16.625,2.81458 L 16.2437,3.00259 L 15.8412,3.13925 L 15.4242,3.22218 L 15,3.25
 z
M -30.4242,18.2222 L -30.8412,18.1393 L -31.2437,18.0026 L -31.625,17.8146 L -31.9785,17.5784 L -32.2981,17.2981
 L -32.5784,16.9785 L -32.8146,16.625 L -33.0026,16.2437 L -33.1393,15.8412 L -33.2222,15.4242 L -33.25,15
 L -33.2222,14.5758 L -33.1393,14.1588 L -33.0026,13.7563 L -32.8146,13.375 L -32.5784,13.0215 L -32.2981,12.7019
 L -31.9785,12.4216 L -31.625,12.1854 L -31.2437,11.9974 L -30.8412,11.8607 L -30.4242,11.7778 L -30,11.75
 L -29.5758,11.7778 L -29.1588,11.8607 L -28.7563,11.9974 L -28.375,12.1854 L -28.0215,12.4216 L -27.7019,12.7019
 L -27.4216,13.0215 L -27.1854,13.375 L -26.9974,13.7563 L -26.8607,14.1588 L -26.7778,14.5758 L -26.75,15
 L -26.7778,15.4242 L -26.8607,15.8412 L -26.9974,16.2437 L -27.1854,16.625 L -27.4216,16.9785 L -27.7019,17.2981
 L -28.0215,17.5784 L -28.375,17.8146 L -28.7563,18.0026 L -29.1588,18.1393 L -29.5758,18.2222 L -30,18.25
 z
M 41.8607,14.1588 L 41.9974,13.7563 L 42.1854,13.375 L 42.4216,13.0215 L 42.7019,12.7019 L 43.0215,12.4216
 L 43.375,12.1854 L 43.7563,11.9974 L 44.1588,11.8607 L 44.5758,11.7778 L 45,11.75 L 45.4242,11.7778
 L 45.8412,11.8607 L 46.2437,11.9974 L 46.625,12.1854 L 46.9785,12.4216 L 47.2981,12.7019 L 47.5784,13.0215
 L 47.8146,13.375 L 48.0026,13.7563 L 48.1393,14.1588 L 48.2222,14.5758 L 48.25,15 L 48.2222,15.4242
 L 48.1393,15.8412 L 48.0026,16.2437 L 47.8146,16.625 L 47.5784,16.9785 L 47.2981,17.2981 L 46.9785,17.5784
 L 46.625,17.8146 L 46.2437,18.0026 L 45.8412,18.1393 L 45.4242,18.2222 L 45,18.25 L 44.5758,18.2222
 L 44.1588,18.1393 L 43.7563,18.0026 L 43.375,17.8146 L 43.0215,17.5784 L 42.7019,17.2981 L 42.4216,16.9785
 L 42.1854,16.625 L 41.9974,16.2437 L 41.8607,15.8412 L 41.7778,15.4242 L 41.75,15 L 41.7778,14.5758
 z
M 14.5758,18.2222 L 14.1588,18.1393 L 13.7563,18.0026 L 13.375,17.8146 L 13.0215,17.5784 L 12.7019,17.2981
 L 12.4216,16.9785 L 12.1854,16.625 L 11.9974,16.2437 L 11.8607,15.8412 L 11.7778,15.4242 L 11.75,15
 L 11.7778,14.5758 L 11.8607,14.1588 L 11.9974,13.7563 L 12.1854,13.375 L 12.4216,13.0215 L 12.7019,12.7019
 L 13.0215,12.4216 L 13.375,12.1854 L 13.7563,11.9974 L 14.1588,11.8607 L 14.5758,11.7778 L 15,11.75
 L 15.4242,11.7778 L 15.8412,11.8607 L 16.2437,11.9974 L 16.625,12.1854 L 16.9785,12.4216 L 17.2981,12.7019
 L 17.5784,13.0215 L 17.8146,13.375 L 18.0026,13.7563 L 18.1393,14.1588 L 18.2222,14.5758 L 18.25,15
 L 18.2222,15.4242 L 18.1393,15.8412 L 18.0026,16.2437 L 17.8146,16.625 L 17.5784,16.9785 L 17.2981,17.2981
 L 16.9785,17.5784 L 16.625,17.8146 L 16.2437,18.0026 L 15.8412,18.1393 L 15.4242,18.2222 L 15,18.25
 z
M -45.4242,18.2222 L -45.8412,18.1393 L -46.2437,18.0026 L -46.625,17.8146 L -46.9785,17.5784 L -47.2981,17.2981
 L -47.5784,16.9785 L -47.8146,16.625 L -48.0026,16.2437 L -48.1393,15.8412 L -48.2222,15.4242 L -48.25,15
 L -48.2222,14.5758 L -48.1393,14.1588 L -48.0026,13.7563 L -47.8146,13.375 L -47.5784,13.0215 L -47.2981,12.7019
 L -46.9785,12.4216 L -46.625,12.1854 L -46.2437,11.9974 L -45.8412,11.8607 L -45.4242,11.7778 L -45,11.75
 L -44.5758,11.7778 L -44.1588,11.8607 L -43.7563,11.9974 L -43.375,12.1854 L -43.0215,12.4216 L -42.7019,12.7019
 L -42.4216,13.0215 L -42.1854,13.375 L -41.9974,13.7563 L -41.8607,14.1588 L -41.7778,14.5758 L -41.75,15
 L -41.7778,15.4242 L -41.8607,15.8412 L -41.9974,16.2437 L -42.1854,16.625 L -42.4216,16.9785 L -42.7019,17.2981
 L -43.0215,17.5784 L -43.375,17.8146 L -43.7563,18.0026 L -44.1588,18.1393 L -44.5758,18.2222 L -45,18.25
 z
M -15.4242,18.2222 L -15.8412,18.1393 L -16.2437,18.0026 L -16.625,17.8146 L -16.9785,17.5784 L -17.2981,17.2981
 L -17.5784,16.9785 L -17.8146,16.625 L -18.0026,16.2437 L -18.1393,15.8412 L -18.2222,15.4242 L -18.25,15
 L -18.2222,14.5758 L -18.1393,14.1588 L -18.0026,13.7563 L -17.8146,13.375 L -17.5784,13.0215 L -17.2981,12.7019
 L -16.9785,12.4216 L -16.625,12.1854 L -16.2437,11.9974 L -15.8412,11.8607 L -15.4242,11.7778 L -15,11.75
 L -14.5758,11.7778 L -14.1588,11.8607 L -13.7563,11.9974 L -13.375,12.1854 L -13.0215,12.4216 L -12.7019,12.7019
 L -12.4216,13.0215 L -12.1854,13.375 L -11.9974,13.7563 L -11.8607,14.1588 L -11.7778,14.5758 L -11.75,15
 L -11.7778,15.4242 L -11.8607,15.8412 L -11.9974,16.2437 L -12.1854,16.625 L -12.4216,16.9785 L -12.7019,17.2981
 L -13.0215,17.5784 L -13.375,17.8146 L -13.7563,18.0026 L -14.1588,18.1393 L -14.5758,18.2222 L -15,18.25
 z
M -0.42421,18.2222 L -0.841156,18.1393 L -1.24371,18.0026 L -1.625,17.8146 L -1.97847,17.5784 L -2.2981,17.2981
 L -2.57838,16.9785 L -2.81458,16.625 L -3.00259,16.2437 L -3.13925,15.8412 L -3.22218,15.4242 L -3.25,15
 L -3.22218,14.5758 L -3.13925,14.1588 L -3.00259,13.7563 L -2.81458,13.375 L -2.57838,13.0215 L -2.2981,12.7019
 L -1.97847,12.4216 L -1.625,12.1854 L -1.24371,11.9974 L -0.841156,11.8607 L -0.42421,11.7778 L 0,11.75
 L 0.42421,11.7778 L 0.841156,11.8607 L 1.24371,11.9974 L 1.625,12.1854 L 1.97847,12.4216 L 2.2981,12.7019
 L 2.57838,13.0215 L 2.81458,13.375 L 3.00259,13.7563 L 3.13925,14.1588 L 3.22218,14.5758 L 3.25,15
 L 3.22218,15.4242 L 3.13925,15.8412 L 3.00259,16.2437 L 2.81458,16.625 L 2.57838,16.9785 L 2.2981,17.2981
 L 1.97847,17.5784 L 1.625,17.8146 L 1.24371,18.0026 L 0.841156,18.1393 L 0.42421,18.2222 L 0,18.25
 z
M -15.4242,33.2222 L -15.8412,33.1393 L -16.2437,33.0026 L -16.625,32.8146 L -16.9785,32.5784 L -17.2981,32.2981
 L -17.5784,31.9785 L -17.8146,31.625 L -18.0026,31.2437 L -18.1393,30.8412 L -18.2222,30.4242 L -18.25,30
 L -18.2222,29.5758 L -18.1393,29.1588 L -18.0026,28.7563 L -17.8146,28.375 L -17.5784,28.0215 L -17.2981,27.7019
 L -16.9785,27.4216 L -16.625,27.1854 L -16.2437,26.9974 L -15.8412,26.8607 L -15.4242,26.7778 L -15,26.75
 L -14.5758,26.7778 L -14.1588,26.8607 L -13.7563,26.9974 L -13.375,27.1854 L -13.0215,27.4216 L -12.7019,27.7019
 L -12.4216,28.0215 L -12.1854,28.375 L -11.9974,28.7563 L -11.8607,29.1588 L -11.7778,29.5758 L -11.75,30
 L -11.7778,30.4242 L -11.8607,30.8412 L -11.9974,31.2437 L -12.1854,31.625 L -12.4216,31.9785 L -12.7019,32.2981
 L -13.0215,32.5784 L -13.375,32.8146 L -13.7563,33.0026 L -14.1588,33.1393 L -14.5758,33.2222 L -15,33.25
 z
M 14.5758,33.2222 L 14.1588,33.1393 L 13.7563,33.0026 L 13.375,32.8146 L 13.0215,32.5784 L 12.7019,32.2981
 L 12.4216,31.9785 L 12.1854,31.625 L 11.9974,31.2437 L 11.8607,30.8412 L 11.7778,30.4242 L 11.75,30
 L 11.7778,29.5758 L 11.8607,29.1588 L 11.9974,28.7563 L 12.1854,28.375 L 12.4216,28.0215 L 12.7019,27.7019
 L 13.0215,27.4216 L 13.375,27.1854 L 13.7563,26.9974 L 14.1588,26.8607 L 14.5758,26.7778 L 15,26.75
 L 15.4242,26.7778 L 15.8412,26.8607 L 16.2437,26.9974 L 16.625,27.1854 L 16.9785,27.4216 L 17.2981,27.7019
 L 17.5784,28.0215 L 17.8146,28.375 L 18.0026,28.7563 L 18.1393,29.1588 L 18.2222,29.5758 L 18.25,30
 L 18.2222,30.4242 L 18.1393,30.8412 L 18.0026,31.2437 L 17.8146,31.625 L 17.5784,31.9785 L 17.2981,32.2981
 L 16.9785,32.5784 L 16.625,32.8146 L 16.2437,33.0026 L 15.8412,33.1393 L 15.4242,33.2222 L 15,33.25
 z
M -0.42421,33.2222 L -0.841156,33.1393 L -1.24371,33.0026 L -1.625,32.8146 L -1.97847,32.5784 L -2.2981,32.2981
 L -2.57838,31.9785 L -2.81458,31.625 L -3.00259,31.2437 L -3.13925,30.8412 L -3.22218,30.4242 L -3.25,30
 L -3.22218,29.5758 L -3.13925,29.1588 L -3.00259,28.7563 L -2.81458,28.375 L -2.57838,28.0215 L -2.2981,27.7019
 L -1.97847,27.4216 L -1.625,27.1854 L -1.24371,26.9974 L -0.841156,26.8607 L -0.42421,26.7778 L 0,26.75
 L 0.42421,26.7778 L 0.841156,26.8607 L 1.24371,26.9974 L 1.625,27.1854 L 1.97847,27.4216 L 2.2981,27.7019
 L 2.57838,28.0215 L 2.81458,28.375 L 3.00259,28.7563 L 3.13925,29.1588 L 3.22218,29.5758 L 3.25,30
 L 3.22218,30.4242 L 3.13925,30.8412 L 3.00259,31.2437 L 2.81458,31.625 L 2.57838,31.9785 L 2.2981,32.2981
 L 1.97847,32.5784 L 1.625,32.8146 L 1.24371,33.0026 L 0.841156,33.1393 L 0.42421,33.2222 L 0,33.25
 z
M -30.4242,33.2222 L -30.8412,33.1393 L -31.2437,33.0026 L -31.625,32.8146 L -31.9785,32.5784 L -32.2981,32.2981
 L -32.5784,31.9785 L -32.8146,31.625 L -33.0026,31.2437 L -33.1393,30.8412 L -33.2222,30.4242 L -33.25,30
 L -33.2222,29.5758 L -33.1393,29.1588 L -33.0026,28.7563 L -32.8146,28.375 L -32.5784,28.0215 L -32.2981,27.7019
 L -31.9785,27.4216 L -31.625,27.1854 L -31.2437,26.9974 L -30.8412,26.8607 L -30.4242,26.7778 L -30,26.75
 L -29.5758,26.7778 L -29.1588,26.8607 L -28.7563,26.9974 L -28.375,27.1854 L -28.0215,27.4216 L -27.7019,27.7019
 L -27.4216,28.0215 L -27.1854,28.375 L -26.9974,28.7563 L -26.8607,29.1588 L -26.7778,29.5758 L -26.75,30
 L -26.7778,30.4242 L -26.8607,30.8412 L -26.9974,31.2437 L -27.1854,31.625 L -27.4216,31.9785 L -27.7019,32.2981
 L -28.0215,32.5784 L -28.375,32.8146 L -28.7563,33.0026 L -29.1588,33.1393 L -29.5758,33.2222 L -30,33.25
 z
M 29.5758,33.2222 L 29.1588,33.1393 L 28.7563,33.0026 L 28.375,32.8146 L 28.0215,32.5784 L 27.7019,32.2981
 L 27.4216,31.9785 L 27.1854,31.625 L 26.9974,31.2437 L 26.8607,30.8412 L 26.7778,30.4242 L 26.75,30
 L 26.7778,29.5758 L 26.8607,29.1588 L 26.9974,28.7563 L 27.1854,28.375 L 27.4216,28.0215 L 27.7019,27.7019
 L 28.0215,27.4216 L 28.375,27.1854 L 28.7563,26.9974 L 29.1588,26.8607 L 29.5758,26.7778 L 30,26.75
 L 30.4242,26.7778 L 30.8412,26.8607 L 31.2437,26.9974 L 31.625,27.1854 L 31.9785,27.4216 L 32.2981,27.7019
 L 32.5784,28.0215 L 32.8146,28.375 L 33.0026,28.7563 L 33.1393,29.1588 L 33.2222,29.5758 L 33.25,30
 L 33.2222,30.4242 L 33.1393,30.8412 L 33.0026,31.2437 L 32.8146,31.625 L 32.5784,31.9785 L 32.2981,32.2981
 L 31.9785,32.5784 L 31.625,32.8146 L 31.2437,33.0026 L 30.8412,33.1393 L 30.4242,33.2222 L 30,33.25
 z
M -0.42421,48.2222 L -0.841156,48.1393 L -1.24371,48.0026 L -1.625,47.8146 L -1.97847,47.5784 L -2.2981,47.2981
 L -2.57838,46.9785 L -2.81458,46.625 L -3.00259,46.2437 L -3.13925,45.8412 L -3.22218,45.4242 L -3.25,45
 L -3.22218,44.5758 L -3.13925,44.1588 L -3.00259,43.7563 L -2.81458,43.375 L -2.57838,43.0215 L -2.2981,42.7019
 L -1.97847,42.4216 L -1.625,42.1854 L -1.24371,41.9974 L -0.841156,41.8607 L -0.42421,41.7778 L 0,41.75
 L 0.42421,41.7778 L 0.841156,41.8607 L 1.24371,41.9974 L 1.625,42.1854 L 1.97847,42.4216 L 2.2981,42.7019
 L 2.57838,43.0215 L 2.81458,43.375 L 3.00259,43.7563 L 3.13925,44.1588 L 3.22218,44.5758 L 3.25,45
 L 3.22218,45.4242 L 3.13925,45.8412 L 3.00259,46.2437 L 2.81458,46.625 L 2.57838,46.9785 L 2.2981,47.2981
 L 1.97847,47.5784 L 1.625,47.8146 L 1.24371,48.0026 L 0.841156,48.1393 L 0.42421,48.2222 L 0,48.25
 z
M 14.5758,48.2222 L 14.1588,48.1393 L 13.7563,48.0026 L 13.375,47.8146 L 13.0215,47.5784 L 12.7019,47.2981
 L 12.4216,46.9785 L 12.1854,46.625 L 11.9974,46.2437 L 11.8607,45.8412 L 11.7778,45.4242 L 11.75,45
 L 11.7778,44.5758 L 11.8607,44.1588 L 11.9974,43.7563 L 12.1854,43.375 L 12.4216,43.0215 L 12.7019,42.7019
 L 13.0215,42.4216 L 13.375,42.1854 L 13.7563,41.9974 L 14.1588,41.8607 L 14.5758,41.7778 L 15,41.75
 L 15.4242,41.7778 L 15.8412,41.8607 L 16.2437,41.9974 L 16.625,42.1854 L 16.9785,42.4216 L 17.2981,42.7019
 L 17.5784,43.0215 L 17.8146,43.375 L 18.0026,43.7563 L 18.1393,44.1588 L 18.2222,44.5758 L 18.25,45
 L 18.2222,45.4242 L 18.1393,45.8412 L 18.0026,46.2437 L 17.8146,46.625 L 17.5784,46.9785 L 17.2981,47.2981
 L 16.9785,47.5784 L 16.625,47.8146 L 16.2437,48.0026 L 15.8412,48.1393 L 15.4242,48.2222 L 15,48.25
 z
M -15.4242,48.2222 L -15.8412,48.1393 L -16.2437,48.0026 L -16.625,47.8146 L -16.9785,47.5784 L -17.2981,47.2981
 L -17.5784,46.9785 L -17.8146,46.625 L -18.0026,46.2437 L -18.1393,45.8412 L -18.2222,45.4242 L -18.25,45
 L -18.2222,44.5758 L -18.1393,44.1588 L -18.0026,43.7563 L -17.8146,43.375 L -17.5784,43.0215 L -17.2981,42.7019
 L -16.9785,42.4216 L -16.625,42.1854 L -16.2437,41.9974 L -15.8412,41.8607 L -15.4242,41.7778 L -15,41.75
 L -14.5758,41.7778 L -14.1588,41.8607 L -13.7563,41.9974 L -13.375,42.1854 L -13.0215,42.4216 L -12.7019,42.7019
 L -12.4216,43.0215 L -12.1854,43.375 L -11.9974,43.7563 L -11.8607,44.1588 L -11.7778,44.5758 L -11.75,45
 L -11.7778,45.4242 L -11.8607,45.8412 L -11.9974,46.2437 L -12.1854,46.625 L -12.4216,46.9785 L -12.7019,47.2981
 L -13.0215,47.5784 L -13.375,47.8146 L -13.7563,48.0026 L -14.1588,48.1393 L -14.5758,48.2222 L -15,48.25
 z
M 2.81458,-31.625 L 3.00259,-31.2437 L 3.13925,-30.8412 L 3.22218,-30.4242 L 3.25,-30 L 3.22218,-29.5758
 L 3.13925,-29.1588 L 3.00259,-28.7563 L 2.81458,-28.375 L 2.57838,-28.0215 L 2.2981,-27.7019 L 1.97847,-27.4216
 L 1.625,-27.1854 L 1.24371,-26.9974 L 0.841156,-26.8607 L 0.42421,-26.7778 L 0,-26.75 L -0.42421,-26.7778
 L -0.841156,-26.8607 L -1.24371,-26.9974 L -1.625,-27.1854 L -1.97847,-27.4216 L -2.2981,-27.7019 L -2.57838,-28.0215
 L -2.81458,-28.375 L -3.00259,-28.7563 L -3.13925,-29.1588 L -3.22218,-29.5758 L -3.25,-30 L -3.22218,-30.4242
 L -3.13925,-30.8412 L -3.00259,-31.2437 L -2.81458,-31.625 L -2.57838,-31.9785 L -2.2981,-32.2981 L -1.97847,-32.5784
 L -1.625,-32.8146 L -1.24371,-33.0026 L -0.841156,-33.1393 L -0.42421,-33.2222 L 0,-33.25 L 0.42421,-33.2222
 L 0.841156,-33.1393 L 1.24371,-33.0026 L 1.625,-32.8146 L 1.97847,-32.5784 L 2.2981,-32.2981 L 2.57838,-31.9785
 z
M -13.0215,-12.4216 L -13.375,-12.1854 L -13.7563,-11.9974 L -14.1588,-11.8607 L -14.5758,-11.7778 L -15,-11.75
 L -15.4242,-11.7778 L -15.8412,-11.8607 L -16.2437,-11.9974 L -16.625,-12.1854 L -16.9785,-12.4216 L -17.2981,-12.7019
 L -17.5784,-13.0215 L -17.8146,-13.375 L -18.0026,-13.7563 L -18.1393,-14.1588 L -18.2222,-14.5758 L -18.25,-15
 L -18.2222,-15.4242 L -18.1393,-15.8412 L -18.0026,-16.2437 L -17.8146,-16.625 L -17.5784,-16.9785 L -17.2981,-17.2981
 L -16.9785,-17.5784 L -16.625,-17.8146 L -16.2437,-18.0026 L -15.8412,-18.1393 L -15.4242,-18.2222 L -15,-18.25
 L -14.5758,-18.2222 L -14.1588,-18.1393 L -13.7563,-18.0026 L -13.375,-17.8146 L -13.0215,-17.5784 L -12.7019,-17.2981
 L -12.4216,-16.9785 L -12.1854,-16.625 L -11.9974,-16.2437 L -11.8607,-15.8412 L -11.7778,-15.4242 L -11.75,-15
 L -11.7778,-14.5758 L -11.8607,-14.1588 L -11.9974,-13.7563 L -12.1854,-13.375 L -12.4216,-13.0215 L -12.7019,-12.7019
 z
M 33.1393,15.8412 L 33.0026,16.2437 L 32.8146,16.625 L 32.5784,16.9785 L 32.2981,17.2981 L 31.9785,17.5784
 L 31.625,17.8146 L 31.2437,18.0026 L 30.8412,18.1393 L 30.4242,18.2222 L 30,18.25 L 29.5758,18.2222
 L 29.1588,18.1393 L 28.7563,18.0026 L 28.375,17.8146 L 28.0215,17.5784 L 27.7019,17.2981 L 27.4216,16.9785
 L 27.1854,16.625 L 26.9974,16.2437 L 26.8607,15.8412 L 26.7778,15.4242 L 26.75,15 L 26.7778,14.5758
 L 26.8607,14.1588 L 26.9974,13.7563 L 27.1854,13.375 L 27.4216,13.0215 L 27.7019,12.7019 L 28.0215,12.4216
 L 28.375,12.1854 L 28.7563,11.9974 L 29.1588,11.8607 L 29.5758,11.7778 L 30,11.75 L 30.4242,11.7778
 L 30.8412,11.8607 L 31.2437,11.9974 L 31.625,12.1854 L 31.9785,12.4216 L 32.2981,12.7019 L 32.5784,13.0215
 L 32.8146,13.375 L 33.0026,13.7563 L 33.1393,14.1588 L 33.2222,14.5758 L 33.25,15 L 33.2222,15.4242
 z
" stroke="black" fill="lightgray" stroke-width="0.5"/>
</svg>
