  0
SECTION
  2
BLOCKS
  0
ENDSEC
  0
SECTION
  2
ENTITIES
  0
LINE
  8
0
 10
61
 20
9.02962
 11
61.3139
 21
9.00986
  0
LINE
  8
0
 10
61.3139
 20
9.00986
 11
62.5451
 21
9.24471
  0
LINE
  8
0
 10
62.5451
 20
9.24471
 11
63.6791
 21
9.77835
  0
LINE
  8
0
 10
63.6791
 20
9.77835
 11
64.6448
 21
10.5773
  0
LINE
  8
0
 10
64.6448
 20
10.5773
 11
65.3815
 21
11.5912
  0
LINE
  8
0
 10
65.3815
 20
11.5912
 11
65.8429
 21
12.7565
  0
LINE
  8
0
 10
65.8429
 20
12.7565
 11
66
 21
14
  0
LINE
  8
0
 10
66
 20
14
 11
66
 21
16
  0
LINE
  8
0
 10
66
 20
16
 11
65.8429
 21
17.2434
  0
LINE
  8
0
 10
65.8429
 20
17.2434
 11
65.3815
 21
18.4088
  0
LINE
  8
0
 10
65.3815
 20
18.4088
 11
64.6448
 21
19.4227
  0
LINE
  8
0
 10
64.6448
 20
19.4227
 11
63.6791
 21
20.2216
  0
LINE
  8
0
 10
63.6791
 20
20.2216
 11
62.5451
 21
20.7553
  0
LINE
  8
0
 10
62.5451
 20
20.7553
 11
61.3139
 21
20.9901
  0
LINE
  8
0
 10
61.3139
 20
20.9901
 11
61
 21
20.9704
  0
LINE
  8
0
 10
61
 20
20.9704
 11
61
 21
21
  0
LINE
  8
0
 10
61
 20
21
 11
14
 21
21
  0
LINE
  8
0
 10
14
 20
21
 11
14
 21
20.9704
  0
LINE
  8
0
 10
14
 20
20.9704
 11
13.0631
 21
20.9114
  0
LINE
  8
0
 10
13.0631
 20
20.9114
 11
11.8711
 21
20.5241
  0
LINE
  8
0
 10
11.8711
 20
20.5241
 11
10.8129
 21
19.8526
  0
LINE
  8
0
 10
10.8129
 20
19.8526
 11
9.95491
 21
18.9389
  0
LINE
  8
0
 10
9.95491
 20
18.9389
 11
9.3511
 21
17.8406
  0
LINE
  8
0
 10
9.3511
 20
17.8406
 11
9.03941
 21
16.6267
  0
LINE
  8
0
 10
9.03941
 20
16.6267
 11
9.03941
 21
16
  0
LINE
  8
0
 10
9.03941
 20
16
 11
9
 21
16
  0
LINE
  8
0
 10
9
 20
16
 11
9
 21
14
  0
LINE
  8
0
 10
9
 20
14
 11
9.03941
 21
14
  0
LINE
  8
0
 10
9.03941
 20
14
 11
9.03941
 21
13.3733
  0
LINE
  8
0
 10
9.03941
 20
13.3733
 11
9.3511
 21
12.1594
  0
LINE
  8
0
 10
9.3511
 20
12.1594
 11
9.95491
 21
11.0611
  0
LINE
  8
0
 10
9.95491
 20
11.0611
 11
10.8129
 21
10.1474
  0
LINE
  8
0
 10
10.8129
 20
10.1474
 11
11.8711
 21
9.47586
  0
LINE
  8
0
 10
11.8711
 20
9.47586
 11
13.0631
 21
9.08856
  0
LINE
  8
0
 10
13.0631
 20
9.08856
 11
14
 21
9.02962
  0
LINE
  8
0
 10
14
 20
9.02962
 11
14
 21
9
  0
LINE
  8
0
 10
14
 20
9
 11
61
 21
9
  0
LINE
  8
0
 10
61
 20
9
 11
61
 21
9.02962
  0
ENDSEC
  0
SECTION
  2
OBJECTS
  0
DICTIONARY
  0
ENDSEC
  0
EOF
