  0
SECTION
  2
BLOCKS
  0
ENDSEC
  0
SECTION
  2
ENTITIES
  0
LINE
  8
0
 10
61
 20
9.00986
 11
61.3139
 21
9.00986
  0
LINE
  8
0
 10
61.3139
 20
9.00986
 11
61.9369
 21
9.08856
  0
LINE
  8
0
 10
61.9369
 20
9.08856
 11
62.5451
 21
9.24471
  0
LINE
  8
0
 10
62.5451
 20
9.24471
 11
63.1289
 21
9.47586
  0
LINE
  8
0
 10
63.1289
 20
9.47586
 11
63.6791
 21
9.77835
  0
LINE
  8
0
 10
63.6791
 20
9.77835
 11
64.1871
 21
10.1474
  0
LINE
  8
0
 10
64.1871
 20
10.1474
 11
64.6448
 21
10.5773
  0
LINE
  8
0
 10
64.6448
 20
10.5773
 11
65.0451
 21
11.0611
  0
LINE
  8
0
 10
65.0451
 20
11.0611
 11
65.3815
 21
11.5912
  0
LINE
  8
0
 10
65.3815
 20
11.5912
 11
65.6489
 21
12.1594
  0
LINE
  8
0
 10
65.6489
 20
12.1594
 11
65.8429
 21
12.7565
  0
LINE
  8
0
 10
65.8429
 20
12.7565
 11
65.9606
 21
13.3733
  0
LINE
  8
0
 10
65.9606
 20
13.3733
 11
66
 21
14
  0
LINE
  8
0
 10
66
 20
14
 11
66
 21
16
  0
LINE
  8
0
 10
66
 20
16
 11
65.9606
 21
16.6267
  0
LINE
  8
0
 10
65.9606
 20
16.6267
 11
65.8429
 21
17.2434
  0
LINE
  8
0
 10
65.8429
 20
17.2434
 11
65.6489
 21
17.8406
  0
LINE
  8
0
 10
65.6489
 20
17.8406
 11
65.3815
 21
18.4088
  0
LINE
  8
0
 10
65.3815
 20
18.4088
 11
65.0451
 21
18.9389
  0
LINE
  8
0
 10
65.0451
 20
18.9389
 11
64.6448
 21
19.4227
  0
LINE
  8
0
 10
64.6448
 20
19.4227
 11
64.1871
 21
19.8526
  0
LINE
  8
0
 10
64.1871
 20
19.8526
 11
63.6791
 21
20.2216
  0
LINE
  8
0
 10
63.6791
 20
20.2216
 11
63.1289
 21
20.5241
  0
LINE
  8
0
 10
63.1289
 20
20.5241
 11
62.5451
 21
20.7553
  0
LINE
  8
0
 10
62.5451
 20
20.7553
 11
61.9369
 21
20.9114
  0
LINE
  8
0
 10
61.9369
 20
20.9114
 11
61.3139
 21
20.9901
  0
LINE
  8
0
 10
61.3139
 20
20.9901
 11
61
 21
20.9901
  0
LINE
  8
0
 10
61
 20
20.9901
 11
61
 21
21
  0
LINE
  8
0
 10
61
 20
21
 11
14
 21
21
  0
LINE
  8
0
 10
14
 20
21
 11
14
 21
20.9901
  0
LINE
  8
0
 10
14
 20
20.9901
 11
13.686
 21
20.9901
  0
LINE
  8
0
 10
13.686
 20
20.9901
 11
13.0631
 21
20.9114
  0
LINE
  8
0
 10
13.0631
 20
20.9114
 11
12.4549
 21
20.7553
  0
LINE
  8
0
 10
12.4549
 20
20.7553
 11
11.8711
 21
20.5241
  0
LINE
  8
0
 10
11.8711
 20
20.5241
 11
11.3209
 21
20.2216
  0
LINE
  8
0
 10
11.3209
 20
20.2216
 11
10.8129
 21
19.8526
  0
LINE
  8
0
 10
10.8129
 20
19.8526
 11
10.3551
 21
19.4227
  0
LINE
  8
0
 10
10.3551
 20
19.4227
 11
9.95491
 21
18.9389
  0
LINE
  8
0
 10
9.95491
 20
18.9389
 11
9.61845
 21
18.4088
  0
LINE
  8
0
 10
9.61845
 20
18.4088
 11
9.3511
 21
17.8406
  0
LINE
  8
0
 10
9.3511
 20
17.8406
 11
9.15707
 21
17.2434
  0
LINE
  8
0
 10
9.15707
 20
17.2434
 11
9.03941
 21
16.6267
  0
LINE
  8
0
 10
9.03941
 20
16.6267
 11
9
 21
16
  0
LINE
  8
0
 10
9
 20
16
 11
9
 21
14
  0
LINE
  8
0
 10
9
 20
14
 11
9.03941
 21
13.3733
  0
LINE
  8
0
 10
9.03941
 20
13.3733
 11
9.15707
 21
12.7565
  0
LINE
  8
0
 10
9.15707
 20
12.7565
 11
9.3511
 21
12.1594
  0
LINE
  8
0
 10
9.3511
 20
12.1594
 11
9.61845
 21
11.5912
  0
LINE
  8
0
 10
9.61845
 20
11.5912
 11
9.95491
 21
11.0611
  0
LINE
  8
0
 10
9.95491
 20
11.0611
 11
10.3551
 21
10.5773
  0
LINE
  8
0
 10
10.3551
 20
10.5773
 11
10.8129
 21
10.1474
  0
LINE
  8
0
 10
10.8129
 20
10.1474
 11
11.3209
 21
9.77835
  0
LINE
  8
0
 10
11.3209
 20
9.77835
 11
11.8711
 21
9.47586
  0
LINE
  8
0
 10
11.8711
 20
9.47586
 11
12.4549
 21
9.24471
  0
LINE
  8
0
 10
12.4549
 20
9.24471
 11
13.0631
 21
9.08856
  0
LINE
  8
0
 10
13.0631
 20
9.08856
 11
13.686
 21
9.00986
  0
LINE
  8
0
 10
13.686
 20
9.00986
 11
14
 21
9.00986
  0
LINE
  8
0
 10
14
 20
9.00986
 11
14
 21
9
  0
LINE
  8
0
 10
14
 20
9
 11
61
 21
9
  0
LINE
  8
0
 10
61
 20
9
 11
61
 21
9.00986
  0
LINE
  8
0
 10
14.8116
 20
12.0059
 11
14.4379
 21
12.0531
  0
LINE
  8
0
 10
14.4379
 20
12.0531
 11
14.0729
 21
12.1468
  0
LINE
  8
0
 10
14.0729
 20
12.1468
 11
13.7227
 21
12.2855
  0
LINE
  8
0
 10
13.7227
 20
12.2855
 11
13.3925
 21
12.467
  0
LINE
  8
0
 10
13.3925
 20
12.467
 11
13.0877
 21
12.6884
  0
LINE
  8
0
 10
13.0877
 20
12.6884
 11
12.8131
 21
12.9464
  0
LINE
  8
0
 10
12.8131
 20
12.9464
 11
12.5729
 21
13.2366
  0
LINE
  8
0
 10
12.5729
 20
13.2366
 11
12.3711
 21
13.5547
  0
LINE
  8
0
 10
12.3711
 20
13.5547
 11
12.2107
 21
13.8956
  0
LINE
  8
0
 10
12.2107
 20
13.8956
 11
12.0942
 21
14.2539
  0
LINE
  8
0
 10
12.0942
 20
14.2539
 11
12.0237
 21
14.624
  0
LINE
  8
0
 10
12.0237
 20
14.624
 11
12
 21
15
  0
LINE
  8
0
 10
12
 20
15
 11
12.0237
 21
15.376
  0
LINE
  8
0
 10
12.0237
 20
15.376
 11
12.0942
 21
15.7461
  0
LINE
  8
0
 10
12.0942
 20
15.7461
 11
12.2107
 21
16.1044
  0
LINE
  8
0
 10
12.2107
 20
16.1044
 11
12.3711
 21
16.4453
  0
LINE
  8
0
 10
12.3711
 20
16.4453
 11
12.5729
 21
16.7634
  0
LINE
  8
0
 10
12.5729
 20
16.7634
 11
12.8131
 21
17.0536
  0
LINE
  8
0
 10
12.8131
 20
17.0536
 11
13.0877
 21
17.3115
  0
LINE
  8
0
 10
13.0877
 20
17.3115
 11
13.3925
 21
17.533
  0
LINE
  8
0
 10
13.3925
 20
17.533
 11
13.7227
 21
17.7145
  0
LINE
  8
0
 10
13.7227
 20
17.7145
 11
14.0729
 21
17.8532
  0
LINE
  8
0
 10
14.0729
 20
17.8532
 11
14.4379
 21
17.9469
  0
LINE
  8
0
 10
14.4379
 20
17.9469
 11
14.8116
 21
17.9941
  0
LINE
  8
0
 10
14.8116
 20
17.9941
 11
15.1884
 21
17.9941
  0
LINE
  8
0
 10
15.1884
 20
17.9941
 11
15.5621
 21
17.9469
  0
LINE
  8
0
 10
15.5621
 20
17.9469
 11
15.927
 21
17.8532
  0
LINE
  8
0
 10
15.927
 20
17.8532
 11
16.2773
 21
17.7145
  0
LINE
  8
0
 10
16.2773
 20
17.7145
 11
16.6075
 21
17.533
  0
LINE
  8
0
 10
16.6075
 20
17.533
 11
16.9123
 21
17.3115
  0
LINE
  8
0
 10
16.9123
 20
17.3115
 11
17.1869
 21
17.0536
  0
LINE
  8
0
 10
17.1869
 20
17.0536
 11
17.427
 21
16.7634
  0
LINE
  8
0
 10
17.427
 20
16.7634
 11
17.6289
 21
16.4453
  0
LINE
  8
0
 10
17.6289
 20
16.4453
 11
17.7893
 21
16.1044
  0
LINE
  8
0
 10
17.7893
 20
16.1044
 11
17.9057
 21
15.7461
  0
LINE
  8
0
 10
17.9057
 20
15.7461
 11
17.9763
 21
15.376
  0
LINE
  8
0
 10
17.9763
 20
15.376
 11
18
 21
15
  0
LINE
  8
0
 10
18
 20
15
 11
17.9763
 21
14.624
  0
LINE
  8
0
 10
17.9763
 20
14.624
 11
17.9057
 21
14.2539
  0
LINE
  8
0
 10
17.9057
 20
14.2539
 11
17.7893
 21
13.8956
  0
LINE
  8
0
 10
17.7893
 20
13.8956
 11
17.6289
 21
13.5547
  0
LINE
  8
0
 10
17.6289
 20
13.5547
 11
17.427
 21
13.2366
  0
LINE
  8
0
 10
17.427
 20
13.2366
 11
17.1869
 21
12.9464
  0
LINE
  8
0
 10
17.1869
 20
12.9464
 11
16.9123
 21
12.6884
  0
LINE
  8
0
 10
16.9123
 20
12.6884
 11
16.6075
 21
12.467
  0
LINE
  8
0
 10
16.6075
 20
12.467
 11
16.2773
 21
12.2855
  0
LINE
  8
0
 10
16.2773
 20
12.2855
 11
15.927
 21
12.1468
  0
LINE
  8
0
 10
15.927
 20
12.1468
 11
15.5621
 21
12.0531
  0
LINE
  8
0
 10
15.5621
 20
12.0531
 11
15.1884
 21
12.0059
  0
LINE
  8
0
 10
15.1884
 20
12.0059
 11
14.8116
 21
12.0059
  0
LINE
  8
0
 10
29.8116
 20
12.0059
 11
29.4379
 21
12.0531
  0
LINE
  8
0
 10
29.4379
 20
12.0531
 11
29.0729
 21
12.1468
  0
LINE
  8
0
 10
29.0729
 20
12.1468
 11
28.7227
 21
12.2855
  0
LINE
  8
0
 10
28.7227
 20
12.2855
 11
28.3925
 21
12.467
  0
LINE
  8
0
 10
28.3925
 20
12.467
 11
28.0877
 21
12.6884
  0
LINE
  8
0
 10
28.0877
 20
12.6884
 11
27.8131
 21
12.9464
  0
LINE
  8
0
 10
27.8131
 20
12.9464
 11
27.5729
 21
13.2366
  0
LINE
  8
0
 10
27.5729
 20
13.2366
 11
27.3711
 21
13.5547
  0
LINE
  8
0
 10
27.3711
 20
13.5547
 11
27.2107
 21
13.8956
  0
LINE
  8
0
 10
27.2107
 20
13.8956
 11
27.0942
 21
14.2539
  0
LINE
  8
0
 10
27.0942
 20
14.2539
 11
27.0237
 21
14.624
  0
LINE
  8
0
 10
27.0237
 20
14.624
 11
27
 21
15
  0
LINE
  8
0
 10
27
 20
15
 11
27.0237
 21
15.376
  0
LINE
  8
0
 10
27.0237
 20
15.376
 11
27.0942
 21
15.7461
  0
LINE
  8
0
 10
27.0942
 20
15.7461
 11
27.2107
 21
16.1044
  0
LINE
  8
0
 10
27.2107
 20
16.1044
 11
27.3711
 21
16.4453
  0
LINE
  8
0
 10
27.3711
 20
16.4453
 11
27.5729
 21
16.7634
  0
LINE
  8
0
 10
27.5729
 20
16.7634
 11
27.8131
 21
17.0536
  0
LINE
  8
0
 10
27.8131
 20
17.0536
 11
28.0877
 21
17.3115
  0
LINE
  8
0
 10
28.0877
 20
17.3115
 11
28.3925
 21
17.533
  0
LINE
  8
0
 10
28.3925
 20
17.533
 11
28.7227
 21
17.7145
  0
LINE
  8
0
 10
28.7227
 20
17.7145
 11
29.0729
 21
17.8532
  0
LINE
  8
0
 10
29.0729
 20
17.8532
 11
29.4379
 21
17.9469
  0
LINE
  8
0
 10
29.4379
 20
17.9469
 11
29.8116
 21
17.9941
  0
LINE
  8
0
 10
29.8116
 20
17.9941
 11
30.1884
 21
17.9941
  0
LINE
  8
0
 10
30.1884
 20
17.9941
 11
30.5621
 21
17.9469
  0
LINE
  8
0
 10
30.5621
 20
17.9469
 11
30.927
 21
17.8532
  0
LINE
  8
0
 10
30.927
 20
17.8532
 11
31.2773
 21
17.7145
  0
LINE
  8
0
 10
31.2773
 20
17.7145
 11
31.6075
 21
17.533
  0
LINE
  8
0
 10
31.6075
 20
17.533
 11
31.9123
 21
17.3115
  0
LINE
  8
0
 10
31.9123
 20
17.3115
 11
32.1869
 21
17.0536
  0
LINE
  8
0
 10
32.1869
 20
17.0536
 11
32.427
 21
16.7634
  0
LINE
  8
0
 10
32.427
 20
16.7634
 11
32.6289
 21
16.4453
  0
LINE
  8
0
 10
32.6289
 20
16.4453
 11
32.7893
 21
16.1044
  0
LINE
  8
0
 10
32.7893
 20
16.1044
 11
32.9057
 21
15.7461
  0
LINE
  8
0
 10
32.9057
 20
15.7461
 11
32.9763
 21
15.376
  0
LINE
  8
0
 10
32.9763
 20
15.376
 11
33
 21
15
  0
LINE
  8
0
 10
33
 20
15
 11
32.9763
 21
14.624
  0
LINE
  8
0
 10
32.9763
 20
14.624
 11
32.9057
 21
14.2539
  0
LINE
  8
0
 10
32.9057
 20
14.2539
 11
32.7893
 21
13.8956
  0
LINE
  8
0
 10
32.7893
 20
13.8956
 11
32.6289
 21
13.5547
  0
LINE
  8
0
 10
32.6289
 20
13.5547
 11
32.427
 21
13.2366
  0
LINE
  8
0
 10
32.427
 20
13.2366
 11
32.1869
 21
12.9464
  0
LINE
  8
0
 10
32.1869
 20
12.9464
 11
31.9123
 21
12.6884
  0
LINE
  8
0
 10
31.9123
 20
12.6884
 11
31.6075
 21
12.467
  0
LINE
  8
0
 10
31.6075
 20
12.467
 11
31.2773
 21
12.2855
  0
LINE
  8
0
 10
31.2773
 20
12.2855
 11
30.927
 21
12.1468
  0
LINE
  8
0
 10
30.927
 20
12.1468
 11
30.5621
 21
12.0531
  0
LINE
  8
0
 10
30.5621
 20
12.0531
 11
30.1884
 21
12.0059
  0
LINE
  8
0
 10
30.1884
 20
12.0059
 11
29.8116
 21
12.0059
  0
LINE
  8
0
 10
44.8116
 20
12.0059
 11
44.4379
 21
12.0531
  0
LINE
  8
0
 10
44.4379
 20
12.0531
 11
44.0729
 21
12.1468
  0
LINE
  8
0
 10
44.0729
 20
12.1468
 11
43.7227
 21
12.2855
  0
LINE
  8
0
 10
43.7227
 20
12.2855
 11
43.3925
 21
12.467
  0
LINE
  8
0
 10
43.3925
 20
12.467
 11
43.0877
 21
12.6884
  0
LINE
  8
0
 10
43.0877
 20
12.6884
 11
42.8131
 21
12.9464
  0
LINE
  8
0
 10
42.8131
 20
12.9464
 11
42.5729
 21
13.2366
  0
LINE
  8
0
 10
42.5729
 20
13.2366
 11
42.3711
 21
13.5547
  0
LINE
  8
0
 10
42.3711
 20
13.5547
 11
42.2107
 21
13.8956
  0
LINE
  8
0
 10
42.2107
 20
13.8956
 11
42.0942
 21
14.2539
  0
LINE
  8
0
 10
42.0942
 20
14.2539
 11
42.0237
 21
14.624
  0
LINE
  8
0
 10
42.0237
 20
14.624
 11
42
 21
15
  0
LINE
  8
0
 10
42
 20
15
 11
42.0237
 21
15.376
  0
LINE
  8
0
 10
42.0237
 20
15.376
 11
42.0942
 21
15.7461
  0
LINE
  8
0
 10
42.0942
 20
15.7461
 11
42.2107
 21
16.1044
  0
LINE
  8
0
 10
42.2107
 20
16.1044
 11
42.3711
 21
16.4453
  0
LINE
  8
0
 10
42.3711
 20
16.4453
 11
42.5729
 21
16.7634
  0
LINE
  8
0
 10
42.5729
 20
16.7634
 11
42.8131
 21
17.0536
  0
LINE
  8
0
 10
42.8131
 20
17.0536
 11
43.0877
 21
17.3115
  0
LINE
  8
0
 10
43.0877
 20
17.3115
 11
43.3925
 21
17.533
  0
LINE
  8
0
 10
43.3925
 20
17.533
 11
43.7227
 21
17.7145
  0
LINE
  8
0
 10
43.7227
 20
17.7145
 11
44.0729
 21
17.8532
  0
LINE
  8
0
 10
44.0729
 20
17.8532
 11
44.4379
 21
17.9469
  0
LINE
  8
0
 10
44.4379
 20
17.9469
 11
44.8116
 21
17.9941
  0
LINE
  8
0
 10
44.8116
 20
17.9941
 11
45.1884
 21
17.9941
  0
LINE
  8
0
 10
45.1884
 20
17.9941
 11
45.5621
 21
17.9469
  0
LINE
  8
0
 10
45.5621
 20
17.9469
 11
45.927
 21
17.8532
  0
LINE
  8
0
 10
45.927
 20
17.8532
 11
46.2773
 21
17.7145
  0
LINE
  8
0
 10
46.2773
 20
17.7145
 11
46.6075
 21
17.533
  0
LINE
  8
0
 10
46.6075
 20
17.533
 11
46.9123
 21
17.3115
  0
LINE
  8
0
 10
46.9123
 20
17.3115
 11
47.1869
 21
17.0536
  0
LINE
  8
0
 10
47.1869
 20
17.0536
 11
47.427
 21
16.7634
  0
LINE
  8
0
 10
47.427
 20
16.7634
 11
47.6289
 21
16.4453
  0
LINE
  8
0
 10
47.6289
 20
16.4453
 11
47.7893
 21
16.1044
  0
LINE
  8
0
 10
47.7893
 20
16.1044
 11
47.9057
 21
15.7461
  0
LINE
  8
0
 10
47.9057
 20
15.7461
 11
47.9763
 21
15.376
  0
LINE
  8
0
 10
47.9763
 20
15.376
 11
48
 21
15
  0
LINE
  8
0
 10
48
 20
15
 11
47.9763
 21
14.624
  0
LINE
  8
0
 10
47.9763
 20
14.624
 11
47.9057
 21
14.2539
  0
LINE
  8
0
 10
47.9057
 20
14.2539
 11
47.7893
 21
13.8956
  0
LINE
  8
0
 10
47.7893
 20
13.8956
 11
47.6289
 21
13.5547
  0
LINE
  8
0
 10
47.6289
 20
13.5547
 11
47.427
 21
13.2366
  0
LINE
  8
0
 10
47.427
 20
13.2366
 11
47.1869
 21
12.9464
  0
LINE
  8
0
 10
47.1869
 20
12.9464
 11
46.9123
 21
12.6884
  0
LINE
  8
0
 10
46.9123
 20
12.6884
 11
46.6075
 21
12.467
  0
LINE
  8
0
 10
46.6075
 20
12.467
 11
46.2773
 21
12.2855
  0
LINE
  8
0
 10
46.2773
 20
12.2855
 11
45.927
 21
12.1468
  0
LINE
  8
0
 10
45.927
 20
12.1468
 11
45.5621
 21
12.0531
  0
LINE
  8
0
 10
45.5621
 20
12.0531
 11
45.1884
 21
12.0059
  0
LINE
  8
0
 10
45.1884
 20
12.0059
 11
44.8116
 21
12.0059
  0
LINE
  8
0
 10
59.8116
 20
12.0059
 11
59.4379
 21
12.0531
  0
LINE
  8
0
 10
59.4379
 20
12.0531
 11
59.0729
 21
12.1468
  0
LINE
  8
0
 10
59.0729
 20
12.1468
 11
58.7227
 21
12.2855
  0
LINE
  8
0
 10
58.7227
 20
12.2855
 11
58.3925
 21
12.467
  0
LINE
  8
0
 10
58.3925
 20
12.467
 11
58.0877
 21
12.6884
  0
LINE
  8
0
 10
58.0877
 20
12.6884
 11
57.8131
 21
12.9464
  0
LINE
  8
0
 10
57.8131
 20
12.9464
 11
57.5729
 21
13.2366
  0
LINE
  8
0
 10
57.5729
 20
13.2366
 11
57.3711
 21
13.5547
  0
LINE
  8
0
 10
57.3711
 20
13.5547
 11
57.2107
 21
13.8956
  0
LINE
  8
0
 10
57.2107
 20
13.8956
 11
57.0942
 21
14.2539
  0
LINE
  8
0
 10
57.0942
 20
14.2539
 11
57.0237
 21
14.624
  0
LINE
  8
0
 10
57.0237
 20
14.624
 11
57
 21
15
  0
LINE
  8
0
 10
57
 20
15
 11
57.0237
 21
15.376
  0
LINE
  8
0
 10
57.0237
 20
15.376
 11
57.0942
 21
15.7461
  0
LINE
  8
0
 10
57.0942
 20
15.7461
 11
57.2107
 21
16.1044
  0
LINE
  8
0
 10
57.2107
 20
16.1044
 11
57.3711
 21
16.4453
  0
LINE
  8
0
 10
57.3711
 20
16.4453
 11
57.5729
 21
16.7634
  0
LINE
  8
0
 10
57.5729
 20
16.7634
 11
57.8131
 21
17.0536
  0
LINE
  8
0
 10
57.8131
 20
17.0536
 11
58.0877
 21
17.3115
  0
LINE
  8
0
 10
58.0877
 20
17.3115
 11
58.3925
 21
17.533
  0
LINE
  8
0
 10
58.3925
 20
17.533
 11
58.7227
 21
17.7145
  0
LINE
  8
0
 10
58.7227
 20
17.7145
 11
59.0729
 21
17.8532
  0
LINE
  8
0
 10
59.0729
 20
17.8532
 11
59.4379
 21
17.9469
  0
LINE
  8
0
 10
59.4379
 20
17.9469
 11
59.8116
 21
17.9941
  0
LINE
  8
0
 10
59.8116
 20
17.9941
 11
60.1884
 21
17.9941
  0
LINE
  8
0
 10
60.1884
 20
17.9941
 11
60.5621
 21
17.9469
  0
LINE
  8
0
 10
60.5621
 20
17.9469
 11
60.927
 21
17.8532
  0
LINE
  8
0
 10
60.927
 20
17.8532
 11
61.2773
 21
17.7145
  0
LINE
  8
0
 10
61.2773
 20
17.7145
 11
61.6075
 21
17.533
  0
LINE
  8
0
 10
61.6075
 20
17.533
 11
61.9123
 21
17.3115
  0
LINE
  8
0
 10
61.9123
 20
17.3115
 11
62.1869
 21
17.0536
  0
LINE
  8
0
 10
62.1869
 20
17.0536
 11
62.427
 21
16.7634
  0
LINE
  8
0
 10
62.427
 20
16.7634
 11
62.6289
 21
16.4453
  0
LINE
  8
0
 10
62.6289
 20
16.4453
 11
62.7893
 21
16.1044
  0
LINE
  8
0
 10
62.7893
 20
16.1044
 11
62.9057
 21
15.7461
  0
LINE
  8
0
 10
62.9057
 20
15.7461
 11
62.9763
 21
15.376
  0
LINE
  8
0
 10
62.9763
 20
15.376
 11
63
 21
15
  0
LINE
  8
0
 10
63
 20
15
 11
62.9763
 21
14.624
  0
LINE
  8
0
 10
62.9763
 20
14.624
 11
62.9057
 21
14.2539
  0
LINE
  8
0
 10
62.9057
 20
14.2539
 11
62.7893
 21
13.8956
  0
LINE
  8
0
 10
62.7893
 20
13.8956
 11
62.6289
 21
13.5547
  0
LINE
  8
0
 10
62.6289
 20
13.5547
 11
62.427
 21
13.2366
  0
LINE
  8
0
 10
62.427
 20
13.2366
 11
62.1869
 21
12.9464
  0
LINE
  8
0
 10
62.1869
 20
12.9464
 11
61.9123
 21
12.6884
  0
LINE
  8
0
 10
61.9123
 20
12.6884
 11
61.6075
 21
12.467
  0
LINE
  8
0
 10
61.6075
 20
12.467
 11
61.2773
 21
12.2855
  0
LINE
  8
0
 10
61.2773
 20
12.2855
 11
60.927
 21
12.1468
  0
LINE
  8
0
 10
60.927
 20
12.1468
 11
60.5621
 21
12.0531
  0
LINE
  8
0
 10
60.5621
 20
12.0531
 11
60.1884
 21
12.0059
  0
LINE
  8
0
 10
60.1884
 20
12.0059
 11
59.8116
 21
12.0059
  0
ENDSEC
  0
SECTION
  2
OBJECTS
  0
DICTIONARY
  0
ENDSEC
  0
EOF
