<?xml version="1.0" standalone="no"?>
<!DOCTYPE svg PUBLIC "-//W3C//DTD SVG 1.1//EN" "http://www.w3.org/Graphics/SVG/1.1/DTD/svg11.dtd">
<svg width="58mm" height="12mm" viewBox="-29 -6 58 12" xmlns="http://www.w3.org/2000/svg" version="1.1">
<title>OpenSCAD Model</title>
<path d="
M 23.8139,5.99013 L 24.1267,5.96057 L 24.4369,5.91144 L 24.7435,5.84291 L 25.0451,5.75528 L 25.3406,5.64888
 L 25.6289,5.52414 L 25.9088,5.38153 L 26.1791,5.22163 L 26.4389,5.04509 L 26.6871,4.85257 L 26.9227,4.64484
 L 27.1448,4.42273 L 27.3526,4.18712 L 27.5451,3.93892 L 27.7216,3.67914 L 27.8815,3.40877 L 28.0241,3.12889
 L 28.1489,2.84062 L 28.2553,2.54509 L 28.3429,2.24345 L 28.4114,1.9369 L 28.4606,1.62666 L 28.4901,1.31395
 L 28.5,1 L 28.5,-1 L 28.4901,-1.31395 L 28.4606,-1.62666 L 28.4114,-1.9369 L 28.3429,-2.24345
 L 28.2553,-2.54509 L 28.1489,-2.84062 L 28.0241,-3.12889 L 27.8815,-3.40877 L 27.7216,-3.67914 L 27.5451,-3.93892
 L 27.3526,-4.18712 L 27.1448,-4.42273 L 26.9227,-4.64484 L 26.6871,-4.85257 L 26.4389,-5.04509 L 26.1791,-5.22163
 L 25.9088,-5.38153 L 25.6289,-5.52414 L 25.3406,-5.64888 L 25.0451,-5.75528 L 24.7435,-5.84291 L 24.4369,-5.91144
 L 24.1267,-5.96057 L 23.8139,-5.99013 L 23.5,-6 L -23.5,-6 L -23.8139,-5.99013 L -24.1267,-5.96057
 L -24.4369,-5.91144 L -24.7435,-5.84291 L -25.0451,-5.75528 L -25.3406,-5.64888 L -25.6289,-5.52414 L -25.9088,-5.38153
 L -26.1791,-5.22163 L -26.4389,-5.04509 L -26.6871,-4.85257 L -26.9227,-4.64484 L -27.1448,-4.42273 L -27.3526,-4.18712
 L -27.5451,-3.93892 L -27.7216,-3.67914 L -27.8815,-3.40877 L -28.0241,-3.12889 L -28.1489,-2.84062 L -28.2553,-2.54509
 L -28.3429,-2.24345 L -28.4114,-1.9369 L -28.4606,-1.62666 L -28.4901,-1.31395 L -28.5,-1 L -28.5,1
 L -28.4901,1.31395 L -28.4606,1.62666 L -28.4114,1.9369 L -28.3429,2.24345 L -28.2553,2.54509 L -28.1489,2.84062
 L -28.0241,3.12889 L -27.8815,3.40877 L -27.7216,3.67914 L -27.5451,3.93892 L -27.3526,4.18712 L -27.1448,4.42273
 L -26.9227,4.64484 L -26.6871,4.85257 L -26.4389,5.04509 L -26.1791,5.22163 L -25.9088,5.38153 L -25.6289,5.52414
 L -25.3406,5.64888 L -25.0451,5.75528 L -24.7435,5.84291 L -24.4369,5.91144 L -24.1267,5.96057 L -23.8139,5.99013
 L -23.5,6 L 23.5,6 z
M -22.6884,2.99408 L -22.876,2.97633 L -23.0621,2.94685 L -23.2461,2.90575 L -23.427,2.85316 L -23.6044,2.78932
 L -23.7773,2.71448 L -23.9453,2.62891 L -24.1075,2.53297 L -24.2634,2.42705 L -24.4123,2.31154 L -24.5536,2.1869
 L -24.6869,2.05363 L -24.8115,1.91226 L -24.927,1.76335 L -25.033,1.60747 L -25.1289,1.44525 L -25.2145,1.27733
 L -25.2893,1.10437 L -25.3532,0.927048 L -25.4057,0.746063 L -25.4469,0.562134 L -25.4763,0.375992 L -25.4941,0.18837
 L -25.5,-0 L -25.4941,-0.18837 L -25.4763,-0.375992 L -25.4469,-0.562134 L -25.4057,-0.746063 L -25.3532,-0.927048
 L -25.2893,-1.10437 L -25.2145,-1.27733 L -25.1289,-1.44525 L -25.033,-1.60747 L -24.927,-1.76335 L -24.8115,-1.91226
 L -24.6869,-2.05363 L -24.5536,-2.1869 L -24.4123,-2.31154 L -24.2634,-2.42705 L -24.1075,-2.53297 L -23.9453,-2.62891
 L -23.7773,-2.71448 L -23.6044,-2.78932 L -23.427,-2.85316 L -23.2461,-2.90575 L -23.0621,-2.94685 L -22.876,-2.97633
 L -22.6884,-2.99408 L -22.5,-3 L -22.3116,-2.99408 L -22.124,-2.97633 L -21.9379,-2.94685 L -21.7539,-2.90575
 L -21.5729,-2.85316 L -21.3956,-2.78932 L -21.2227,-2.71448 L -21.0547,-2.62891 L -20.8925,-2.53297 L -20.7366,-2.42705
 L -20.5877,-2.31154 L -20.4464,-2.1869 L -20.3131,-2.05363 L -20.1884,-1.91226 L -20.0729,-1.76335 L -19.967,-1.60747
 L -19.8711,-1.44525 L -19.7855,-1.27733 L -19.7107,-1.10437 L -19.6468,-0.927048 L -19.5942,-0.746063 L -19.5531,-0.562134
 L -19.5237,-0.375992 L -19.5059,-0.18837 L -19.5,-0 L -19.5059,0.18837 L -19.5237,0.375992 L -19.5531,0.562134
 L -19.5942,0.746063 L -19.6468,0.927048 L -19.7107,1.10437 L -19.7855,1.27733 L -19.8711,1.44525 L -19.967,1.60747
 L -20.0729,1.76335 L -20.1884,1.91226 L -20.3131,2.05363 L -20.4464,2.1869 L -20.5877,2.31154 L -20.7366,2.42705
 L -20.8925,2.53297 L -21.0547,2.62891 L -21.2227,2.71448 L -21.3956,2.78932 L -21.5729,2.85316 L -21.7539,2.90575
 L -21.9379,2.94685 L -22.124,2.97633 L -22.3116,2.99408 L -22.5,3 z
M -7.68837,2.99408 L -7.87599,2.97633 L -8.06213,2.94685 L -8.24606,2.90575 L -8.42705,2.85316 L -8.60437,2.78932
 L -8.77733,2.71448 L -8.94525,2.62891 L -9.10747,2.53297 L -9.26335,2.42705 L -9.41226,2.31154 L -9.55363,2.1869
 L -9.6869,2.05363 L -9.81154,1.91226 L -9.92705,1.76335 L -10.033,1.60747 L -10.1289,1.44525 L -10.2145,1.27733
 L -10.2893,1.10437 L -10.3532,0.927048 L -10.4057,0.746063 L -10.4469,0.562134 L -10.4763,0.375992 L -10.4941,0.18837
 L -10.5,-0 L -10.4941,-0.18837 L -10.4763,-0.375992 L -10.4469,-0.562134 L -10.4057,-0.746063 L -10.3532,-0.927048
 L -10.2893,-1.10437 L -10.2145,-1.27733 L -10.1289,-1.44525 L -10.033,-1.60747 L -9.92705,-1.76335 L -9.81154,-1.91226
 L -9.6869,-2.05363 L -9.55363,-2.1869 L -9.41226,-2.31154 L -9.26335,-2.42705 L -9.10747,-2.53297 L -8.94525,-2.62891
 L -8.77733,-2.71448 L -8.60437,-2.78932 L -8.42705,-2.85316 L -8.24606,-2.90575 L -8.06213,-2.94685 L -7.87599,-2.97633
 L -7.68837,-2.99408 L -7.5,-3 L -7.31161,-2.99408 L -7.12399,-2.97633 L -6.93785,-2.94685 L -6.75392,-2.90575
 L -6.57294,-2.85316 L -6.39561,-2.78932 L -6.22266,-2.71448 L -6.05473,-2.62891 L -5.89252,-2.53297 L -5.73663,-2.42705
 L -5.58772,-2.31154 L -5.44635,-2.1869 L -5.31308,-2.05363 L -5.18845,-1.91226 L -5.07294,-1.76335 L -4.96701,-1.60747
 L -4.87108,-1.44525 L -4.78551,-1.27733 L -4.71066,-1.10437 L -4.64682,-0.927048 L -4.59424,-0.746063 L -4.55313,-0.562134
 L -4.52365,-0.375992 L -4.50591,-0.18837 L -4.5,-0 L -4.50591,0.18837 L -4.52365,0.375992 L -4.55313,0.562134
 L -4.59424,0.746063 L -4.64682,0.927048 L -4.71066,1.10437 L -4.78551,1.27733 L -4.87108,1.44525 L -4.96701,1.60747
 L -5.07294,1.76335 L -5.18845,1.91226 L -5.31308,2.05363 L -5.44635,2.1869 L -5.58772,2.31154 L -5.73663,2.42705
 L -5.89252,2.53297 L -6.05473,2.62891 L -6.22266,2.71448 L -6.39561,2.78932 L -6.57294,2.85316 L -6.75392,2.90575
 L -6.93785,2.94685 L -7.12399,2.97633 L -7.31161,2.99408 L -7.5,3 z
M 7.31161,2.99408 L 7.12399,2.97633 L 6.93785,2.94685 L 6.75392,2.90575 L 6.57294,2.85316 L 6.39561,2.78932
 L 6.22266,2.71448 L 6.05473,2.62891 L 5.89252,2.53297 L 5.73663,2.42705 L 5.58772,2.31154 L 5.44635,2.1869
 L 5.31308,2.05363 L 5.18845,1.91226 L 5.07294,1.76335 L 4.96701,1.60747 L 4.87108,1.44525 L 4.78551,1.27733
 L 4.71066,1.10437 L 4.64682,0.927048 L 4.59424,0.746063 L 4.55313,0.562134 L 4.52365,0.375992 L 4.50591,0.18837
 L 4.5,-0 L 4.50591,-0.18837 L 4.52365,-0.375992 L 4.55313,-0.562134 L 4.59424,-0.746063 L 4.64682,-0.927048
 L 4.71066,-1.10437 L 4.78551,-1.27733 L 4.87108,-1.44525 L 4.96701,-1.60747 L 5.07294,-1.76335 L 5.18845,-1.91226
 L 5.31308,-2.05363 L 5.44635,-2.1869 L 5.58772,-2.31154 L 5.73663,-2.42705 L 5.89252,-2.53297 L 6.05473,-2.62891
 L 6.22266,-2.71448 L 6.39561,-2.78932 L 6.57294,-2.85316 L 6.75392,-2.90575 L 6.93785,-2.94685 L 7.12399,-2.97633
 L 7.31161,-2.99408 L 7.5,-3 L 7.68837,-2.99408 L 7.87599,-2.97633 L 8.06213,-2.94685 L 8.24606,-2.90575
 L 8.42705,-2.85316 L 8.60437,-2.78932 L 8.77733,-2.71448 L 8.94525,-2.62891 L 9.10747,-2.53297 L 9.26335,-2.42705
 L 9.41226,-2.31154 L 9.55363,-2.1869 L 9.6869,-2.05363 L 9.81154,-1.91226 L 9.92705,-1.76335 L 10.033,-1.60747
 L 10.1289,-1.44525 L 10.2145,-1.27733 L 10.2893,-1.10437 L 10.3532,-0.927048 L 10.4057,-0.746063 L 10.4469,-0.562134
 L 10.4763,-0.375992 L 10.4941,-0.18837 L 10.5,-0 L 10.4941,0.18837 L 10.4763,0.375992 L 10.4469,0.562134
 L 10.4057,0.746063 L 10.3532,0.927048 L 10.2893,1.10437 L 10.2145,1.27733 L 10.1289,1.44525 L 10.033,1.60747
 L 9.92705,1.76335 L 9.81154,1.91226 L 9.6869,2.05363 L 9.55363,2.1869 L 9.41226,2.31154 L 9.26335,2.42705
 L 9.10747,2.53297 L 8.94525,2.62891 L 8.77733,2.71448 L 8.60437,2.78932 L 8.42705,2.85316 L 8.24606,2.90575
 L 8.06213,2.94685 L 7.87599,2.97633 L 7.68837,2.99408 L 7.5,3 z
M 22.3116,2.99408 L 22.124,2.97633 L 21.9379,2.94685 L 21.7539,2.90575 L 21.5729,2.85316 L 21.3956,2.78932
 L 21.2227,2.71448 L 21.0547,2.62891 L 20.8925,2.53297 L 20.7366,2.42705 L 20.5877,2.31154 L 20.4464,2.1869
 L 20.3131,2.05363 L 20.1884,1.91226 L 20.0729,1.76335 L 19.967,1.60747 L 19.8711,1.44525 L 19.7855,1.27733
 L 19.7107,1.10437 L 19.6468,0.927048 L 19.5942,0.746063 L 19.5531,0.562134 L 19.5237,0.375992 L 19.5059,0.18837
 L 19.5,-0 L 19.5059,-0.18837 L 19.5237,-0.375992 L 19.5531,-0.562134 L 19.5942,-0.746063 L 19.6468,-0.927048
 L 19.7107,-1.10437 L 19.7855,-1.27733 L 19.8711,-1.44525 L 19.967,-1.60747 L 20.0729,-1.76335 L 20.1884,-1.91226
 L 20.3131,-2.05363 L 20.4464,-2.1869 L 20.5877,-2.31154 L 20.7366,-2.42705 L 20.8925,-2.53297 L 21.0547,-2.62891
 L 21.2227,-2.71448 L 21.3956,-2.78932 L 21.5729,-2.85316 L 21.7539,-2.90575 L 21.9379,-2.94685 L 22.124,-2.97633
 L 22.3116,-2.99408 L 22.5,-3 L 22.6884,-2.99408 L 22.876,-2.97633 L 23.0621,-2.94685 L 23.2461,-2.90575
 L 23.427,-2.85316 L 23.6044,-2.78932 L 23.7773,-2.71448 L 23.9453,-2.62891 L 24.1075,-2.53297 L 24.2634,-2.42705
 L 24.4123,-2.31154 L 24.5536,-2.1869 L 24.6869,-2.05363 L 24.8115,-1.91226 L 24.927,-1.76335 L 25.033,-1.60747
 L 25.1289,-1.44525 L 25.2145,-1.27733 L 25.2893,-1.10437 L 25.3532,-0.927048 L 25.4057,-0.746063 L 25.4469,-0.562134
 L 25.4763,-0.375992 L 25.4941,-0.18837 L 25.5,-0 L 25.4941,0.18837 L 25.4763,0.375992 L 25.4469,0.562134
 L 25.4057,0.746063 L 25.3532,0.927048 L 25.2893,1.10437 L 25.2145,1.27733 L 25.1289,1.44525 L 25.033,1.60747
 L 24.927,1.76335 L 24.8115,1.91226 L 24.6869,2.05363 L 24.5536,2.1869 L 24.4123,2.31154 L 24.2634,2.42705
 L 24.1075,2.53297 L 23.9453,2.62891 L 23.7773,2.71448 L 23.6044,2.78932 L 23.427,2.85316 L 23.2461,2.90575
 L 23.0621,2.94685 L 22.876,2.97633 L 22.6884,2.99408 L 22.5,3 z
" stroke="black" fill="lightgray" stroke-width="0.5"/>
</svg>
