  0
SECTION
  2
BLOCKS
  0
ENDSEC
  0
SECTION
  2
ENTITIES
  0
LINE
  8
0
 10
54.1576
 20
1.53778
 11
54.7991
 21
1.66537
  0
LINE
  8
0
 10
54.7991
 20
1.66537
 11
55.4184
 21
1.87561
  0
LINE
  8
0
 10
55.4184
 20
1.87561
 11
56.005
 21
2.16489
  0
LINE
  8
0
 10
56.005
 20
2.16489
 11
56.5488
 21
2.52824
  0
LINE
  8
0
 10
56.5488
 20
2.52824
 11
57.0405
 21
2.95947
  0
LINE
  8
0
 10
57.0405
 20
2.95947
 11
57.4718
 21
3.4512
  0
LINE
  8
0
 10
57.4718
 20
3.4512
 11
57.8351
 21
3.99501
  0
LINE
  8
0
 10
57.8351
 20
3.99501
 11
58.1244
 21
4.58159
  0
LINE
  8
0
 10
58.1244
 20
4.58159
 11
58.3346
 21
5.20091
  0
LINE
  8
0
 10
58.3346
 20
5.20091
 11
58.4622
 21
5.84238
  0
LINE
  8
0
 10
58.4622
 20
5.84238
 11
58.505
 21
6.49501
  0
LINE
  8
0
 10
58.505
 20
6.49501
 11
58.505
 21
8.50499
  0
LINE
  8
0
 10
58.505
 20
8.50499
 11
58.4622
 21
9.15762
  0
LINE
  8
0
 10
58.4622
 20
9.15762
 11
58.3346
 21
9.79909
  0
LINE
  8
0
 10
58.3346
 20
9.79909
 11
58.1244
 21
10.4184
  0
LINE
  8
0
 10
58.1244
 20
10.4184
 11
57.8351
 21
11.005
  0
LINE
  8
0
 10
57.8351
 20
11.005
 11
57.4718
 21
11.5488
  0
LINE
  8
0
 10
57.4718
 20
11.5488
 11
57.0405
 21
12.0405
  0
LINE
  8
0
 10
57.0405
 20
12.0405
 11
56.5488
 21
12.4718
  0
LINE
  8
0
 10
56.5488
 20
12.4718
 11
56.005
 21
12.8351
  0
LINE
  8
0
 10
56.005
 20
12.8351
 11
55.4184
 21
13.1244
  0
LINE
  8
0
 10
55.4184
 20
13.1244
 11
54.7991
 21
13.3346
  0
LINE
  8
0
 10
54.7991
 20
13.3346
 11
54.1576
 21
13.4622
  0
LINE
  8
0
 10
54.1576
 20
13.4622
 11
53.505
 21
13.505
  0
LINE
  8
0
 10
53.505
 20
13.505
 11
6.49501
 21
13.505
  0
LINE
  8
0
 10
6.49501
 20
13.505
 11
5.84238
 21
13.4622
  0
LINE
  8
0
 10
5.84238
 20
13.4622
 11
5.20091
 21
13.3346
  0
LINE
  8
0
 10
5.20091
 20
13.3346
 11
4.58159
 21
13.1244
  0
LINE
  8
0
 10
4.58159
 20
13.1244
 11
3.99501
 21
12.8351
  0
LINE
  8
0
 10
3.99501
 20
12.8351
 11
3.4512
 21
12.4718
  0
LINE
  8
0
 10
3.4512
 20
12.4718
 11
2.95947
 21
12.0405
  0
LINE
  8
0
 10
2.95947
 20
12.0405
 11
2.52824
 21
11.5488
  0
LINE
  8
0
 10
2.52824
 20
11.5488
 11
2.16489
 21
11.005
  0
LINE
  8
0
 10
2.16489
 20
11.005
 11
1.87561
 21
10.4184
  0
LINE
  8
0
 10
1.87561
 20
10.4184
 11
1.66537
 21
9.79909
  0
LINE
  8
0
 10
1.66537
 20
9.79909
 11
1.53778
 21
9.15762
  0
LINE
  8
0
 10
1.53778
 20
9.15762
 11
1.49501
 21
8.50499
  0
LINE
  8
0
 10
1.49501
 20
8.50499
 11
1.49501
 21
6.49501
  0
LINE
  8
0
 10
1.49501
 20
6.49501
 11
1.53778
 21
5.84238
  0
LINE
  8
0
 10
1.53778
 20
5.84238
 11
1.66537
 21
5.20091
  0
LINE
  8
0
 10
1.66537
 20
5.20091
 11
1.87561
 21
4.58159
  0
LINE
  8
0
 10
1.87561
 20
4.58159
 11
2.16489
 21
3.99501
  0
LINE
  8
0
 10
2.16489
 20
3.99501
 11
2.52824
 21
3.4512
  0
LINE
  8
0
 10
2.52824
 20
3.4512
 11
2.95947
 21
2.95947
  0
LINE
  8
0
 10
2.95947
 20
2.95947
 11
3.4512
 21
2.52824
  0
LINE
  8
0
 10
3.4512
 20
2.52824
 11
3.99501
 21
2.16489
  0
LINE
  8
0
 10
3.99501
 20
2.16489
 11
4.58159
 21
1.87561
  0
LINE
  8
0
 10
4.58159
 20
1.87561
 11
5.20091
 21
1.66537
  0
LINE
  8
0
 10
5.20091
 20
1.66537
 11
5.84238
 21
1.53778
  0
LINE
  8
0
 10
5.84238
 20
1.53778
 11
6.49501
 21
1.49501
  0
LINE
  8
0
 10
6.49501
 20
1.49501
 11
53.505
 21
1.49501
  0
LINE
  8
0
 10
53.505
 20
1.49501
 11
54.1576
 21
1.53778
  0
LINE
  8
0
 10
7.10841
 20
4.52567
 11
6.72354
 21
4.60222
  0
LINE
  8
0
 10
6.72354
 20
4.60222
 11
6.35194
 21
4.72835
  0
LINE
  8
0
 10
6.35194
 20
4.72835
 11
6
 21
4.90192
  0
LINE
  8
0
 10
6
 20
4.90192
 11
5.67371
 21
5.11993
  0
LINE
  8
0
 10
5.67371
 20
5.11993
 11
5.37868
 21
5.37868
  0
LINE
  8
0
 10
5.37868
 20
5.37868
 11
5.11993
 21
5.67371
  0
LINE
  8
0
 10
5.11993
 20
5.67371
 11
4.90192
 21
6
  0
LINE
  8
0
 10
4.90192
 20
6
 11
4.72835
 21
6.35194
  0
LINE
  8
0
 10
4.72835
 20
6.35194
 11
4.60222
 21
6.72354
  0
LINE
  8
0
 10
4.60222
 20
6.72354
 11
4.52567
 21
7.10841
  0
LINE
  8
0
 10
4.52567
 20
7.10841
 11
4.5
 21
7.5
  0
LINE
  8
0
 10
4.5
 20
7.5
 11
4.52567
 21
7.89157
  0
LINE
  8
0
 10
4.52567
 20
7.89157
 11
4.60222
 21
8.27644
  0
LINE
  8
0
 10
4.60222
 20
8.27644
 11
4.72835
 21
8.64804
  0
LINE
  8
0
 10
4.72835
 20
8.64804
 11
4.90192
 21
9
  0
LINE
  8
0
 10
4.90192
 20
9
 11
5.11993
 21
9.32628
  0
LINE
  8
0
 10
5.11993
 20
9.32628
 11
5.37868
 21
9.62131
  0
LINE
  8
0
 10
5.37868
 20
9.62131
 11
5.67371
 21
9.88005
  0
LINE
  8
0
 10
5.67371
 20
9.88005
 11
6
 21
10.0981
  0
LINE
  8
0
 10
6
 20
10.0981
 11
6.35194
 21
10.2716
  0
LINE
  8
0
 10
6.35194
 20
10.2716
 11
6.72354
 21
10.3978
  0
LINE
  8
0
 10
6.72354
 20
10.3978
 11
7.10841
 21
10.4743
  0
LINE
  8
0
 10
7.10841
 20
10.4743
 11
7.5
 21
10.5
  0
LINE
  8
0
 10
7.5
 20
10.5
 11
7.89157
 21
10.4743
  0
LINE
  8
0
 10
7.89157
 20
10.4743
 11
8.27644
 21
10.3978
  0
LINE
  8
0
 10
8.27644
 20
10.3978
 11
8.64804
 21
10.2716
  0
LINE
  8
0
 10
8.64804
 20
10.2716
 11
9
 21
10.0981
  0
LINE
  8
0
 10
9
 20
10.0981
 11
9.32628
 21
9.88005
  0
LINE
  8
0
 10
9.32628
 20
9.88005
 11
9.62131
 21
9.62131
  0
LINE
  8
0
 10
9.62131
 20
9.62131
 11
9.88005
 21
9.32628
  0
LINE
  8
0
 10
9.88005
 20
9.32628
 11
10.0981
 21
9
  0
LINE
  8
0
 10
10.0981
 20
9
 11
10.2716
 21
8.64804
  0
LINE
  8
0
 10
10.2716
 20
8.64804
 11
10.3978
 21
8.27644
  0
LINE
  8
0
 10
10.3978
 20
8.27644
 11
10.4743
 21
7.89157
  0
LINE
  8
0
 10
10.4743
 20
7.89157
 11
10.5
 21
7.5
  0
LINE
  8
0
 10
10.5
 20
7.5
 11
10.4743
 21
7.10841
  0
LINE
  8
0
 10
10.4743
 20
7.10841
 11
10.3978
 21
6.72354
  0
LINE
  8
0
 10
10.3978
 20
6.72354
 11
10.2716
 21
6.35194
  0
LINE
  8
0
 10
10.2716
 20
6.35194
 11
10.0981
 21
6
  0
LINE
  8
0
 10
10.0981
 20
6
 11
9.88005
 21
5.67371
  0
LINE
  8
0
 10
9.88005
 20
5.67371
 11
9.62131
 21
5.37868
  0
LINE
  8
0
 10
9.62131
 20
5.37868
 11
9.32628
 21
5.11993
  0
LINE
  8
0
 10
9.32628
 20
5.11993
 11
9
 21
4.90192
  0
LINE
  8
0
 10
9
 20
4.90192
 11
8.64804
 21
4.72835
  0
LINE
  8
0
 10
8.64804
 20
4.72835
 11
8.27644
 21
4.60222
  0
LINE
  8
0
 10
8.27644
 20
4.60222
 11
7.89157
 21
4.52567
  0
LINE
  8
0
 10
7.89157
 20
4.52567
 11
7.5
 21
4.5
  0
LINE
  8
0
 10
7.5
 20
4.5
 11
7.10841
 21
4.52567
  0
LINE
  8
0
 10
22.1084
 20
4.52567
 11
21.7235
 21
4.60222
  0
LINE
  8
0
 10
21.7235
 20
4.60222
 11
21.3519
 21
4.72835
  0
LINE
  8
0
 10
21.3519
 20
4.72835
 11
21
 21
4.90192
  0
LINE
  8
0
 10
21
 20
4.90192
 11
20.6737
 21
5.11993
  0
LINE
  8
0
 10
20.6737
 20
5.11993
 11
20.3787
 21
5.37868
  0
LINE
  8
0
 10
20.3787
 20
5.37868
 11
20.1199
 21
5.67371
  0
LINE
  8
0
 10
20.1199
 20
5.67371
 11
19.9019
 21
6
  0
LINE
  8
0
 10
19.9019
 20
6
 11
19.7283
 21
6.35194
  0
LINE
  8
0
 10
19.7283
 20
6.35194
 11
19.6022
 21
6.72354
  0
LINE
  8
0
 10
19.6022
 20
6.72354
 11
19.5257
 21
7.10841
  0
LINE
  8
0
 10
19.5257
 20
7.10841
 11
19.5
 21
7.5
  0
LINE
  8
0
 10
19.5
 20
7.5
 11
19.5257
 21
7.89157
  0
LINE
  8
0
 10
19.5257
 20
7.89157
 11
19.6022
 21
8.27644
  0
LINE
  8
0
 10
19.6022
 20
8.27644
 11
19.7283
 21
8.64804
  0
LINE
  8
0
 10
19.7283
 20
8.64804
 11
19.9019
 21
9
  0
LINE
  8
0
 10
19.9019
 20
9
 11
20.1199
 21
9.32628
  0
LINE
  8
0
 10
20.1199
 20
9.32628
 11
20.3787
 21
9.62131
  0
LINE
  8
0
 10
20.3787
 20
9.62131
 11
20.6737
 21
9.88005
  0
LINE
  8
0
 10
20.6737
 20
9.88005
 11
21
 21
10.0981
  0
LINE
  8
0
 10
21
 20
10.0981
 11
21.3519
 21
10.2716
  0
LINE
  8
0
 10
21.3519
 20
10.2716
 11
21.7235
 21
10.3978
  0
LINE
  8
0
 10
21.7235
 20
10.3978
 11
22.1084
 21
10.4743
  0
LINE
  8
0
 10
22.1084
 20
10.4743
 11
22.5
 21
10.5
  0
LINE
  8
0
 10
22.5
 20
10.5
 11
22.8916
 21
10.4743
  0
LINE
  8
0
 10
22.8916
 20
10.4743
 11
23.2764
 21
10.3978
  0
LINE
  8
0
 10
23.2764
 20
10.3978
 11
23.648
 21
10.2716
  0
LINE
  8
0
 10
23.648
 20
10.2716
 11
24
 21
10.0981
  0
LINE
  8
0
 10
24
 20
10.0981
 11
24.3263
 21
9.88005
  0
LINE
  8
0
 10
24.3263
 20
9.88005
 11
24.6213
 21
9.62131
  0
LINE
  8
0
 10
24.6213
 20
9.62131
 11
24.8801
 21
9.32628
  0
LINE
  8
0
 10
24.8801
 20
9.32628
 11
25.0981
 21
9
  0
LINE
  8
0
 10
25.0981
 20
9
 11
25.2716
 21
8.64804
  0
LINE
  8
0
 10
25.2716
 20
8.64804
 11
25.3978
 21
8.27644
  0
LINE
  8
0
 10
25.3978
 20
8.27644
 11
25.4743
 21
7.89157
  0
LINE
  8
0
 10
25.4743
 20
7.89157
 11
25.5
 21
7.5
  0
LINE
  8
0
 10
25.5
 20
7.5
 11
25.4743
 21
7.10841
  0
LINE
  8
0
 10
25.4743
 20
7.10841
 11
25.3978
 21
6.72354
  0
LINE
  8
0
 10
25.3978
 20
6.72354
 11
25.2716
 21
6.35194
  0
LINE
  8
0
 10
25.2716
 20
6.35194
 11
25.0981
 21
6
  0
LINE
  8
0
 10
25.0981
 20
6
 11
24.8801
 21
5.67371
  0
LINE
  8
0
 10
24.8801
 20
5.67371
 11
24.6213
 21
5.37868
  0
LINE
  8
0
 10
24.6213
 20
5.37868
 11
24.3263
 21
5.11993
  0
LINE
  8
0
 10
24.3263
 20
5.11993
 11
24
 21
4.90192
  0
LINE
  8
0
 10
24
 20
4.90192
 11
23.648
 21
4.72835
  0
LINE
  8
0
 10
23.648
 20
4.72835
 11
23.2764
 21
4.60222
  0
LINE
  8
0
 10
23.2764
 20
4.60222
 11
22.8916
 21
4.52567
  0
LINE
  8
0
 10
22.8916
 20
4.52567
 11
22.5
 21
4.5
  0
LINE
  8
0
 10
22.5
 20
4.5
 11
22.1084
 21
4.52567
  0
LINE
  8
0
 10
37.1084
 20
4.52567
 11
36.7235
 21
4.60222
  0
LINE
  8
0
 10
36.7235
 20
4.60222
 11
36.3519
 21
4.72835
  0
LINE
  8
0
 10
36.3519
 20
4.72835
 11
36
 21
4.90192
  0
LINE
  8
0
 10
36
 20
4.90192
 11
35.6737
 21
5.11993
  0
LINE
  8
0
 10
35.6737
 20
5.11993
 11
35.3787
 21
5.37868
  0
LINE
  8
0
 10
35.3787
 20
5.37868
 11
35.1199
 21
5.67371
  0
LINE
  8
0
 10
35.1199
 20
5.67371
 11
34.9019
 21
6
  0
LINE
  8
0
 10
34.9019
 20
6
 11
34.7284
 21
6.35194
  0
LINE
  8
0
 10
34.7284
 20
6.35194
 11
34.6022
 21
6.72354
  0
LINE
  8
0
 10
34.6022
 20
6.72354
 11
34.5257
 21
7.10841
  0
LINE
  8
0
 10
34.5257
 20
7.10841
 11
34.5
 21
7.5
  0
LINE
  8
0
 10
34.5
 20
7.5
 11
34.5257
 21
7.89157
  0
LINE
  8
0
 10
34.5257
 20
7.89157
 11
34.6022
 21
8.27644
  0
LINE
  8
0
 10
34.6022
 20
8.27644
 11
34.7284
 21
8.64804
  0
LINE
  8
0
 10
34.7284
 20
8.64804
 11
34.9019
 21
9
  0
LINE
  8
0
 10
34.9019
 20
9
 11
35.1199
 21
9.32628
  0
LINE
  8
0
 10
35.1199
 20
9.32628
 11
35.3787
 21
9.62131
  0
LINE
  8
0
 10
35.3787
 20
9.62131
 11
35.6737
 21
9.88005
  0
LINE
  8
0
 10
35.6737
 20
9.88005
 11
36
 21
10.0981
  0
LINE
  8
0
 10
36
 20
10.0981
 11
36.3519
 21
10.2716
  0
LINE
  8
0
 10
36.3519
 20
10.2716
 11
36.7235
 21
10.3978
  0
LINE
  8
0
 10
36.7235
 20
10.3978
 11
37.1084
 21
10.4743
  0
LINE
  8
0
 10
37.1084
 20
10.4743
 11
37.5
 21
10.5
  0
LINE
  8
0
 10
37.5
 20
10.5
 11
37.8916
 21
10.4743
  0
LINE
  8
0
 10
37.8916
 20
10.4743
 11
38.2765
 21
10.3978
  0
LINE
  8
0
 10
38.2765
 20
10.3978
 11
38.648
 21
10.2716
  0
LINE
  8
0
 10
38.648
 20
10.2716
 11
39
 21
10.0981
  0
LINE
  8
0
 10
39
 20
10.0981
 11
39.3263
 21
9.88005
  0
LINE
  8
0
 10
39.3263
 20
9.88005
 11
39.6213
 21
9.62131
  0
LINE
  8
0
 10
39.6213
 20
9.62131
 11
39.8801
 21
9.32628
  0
LINE
  8
0
 10
39.8801
 20
9.32628
 11
40.0981
 21
9
  0
LINE
  8
0
 10
40.0981
 20
9
 11
40.2716
 21
8.64804
  0
LINE
  8
0
 10
40.2716
 20
8.64804
 11
40.3978
 21
8.27644
  0
LINE
  8
0
 10
40.3978
 20
8.27644
 11
40.4743
 21
7.89157
  0
LINE
  8
0
 10
40.4743
 20
7.89157
 11
40.5
 21
7.5
  0
LINE
  8
0
 10
40.5
 20
7.5
 11
40.4743
 21
7.10841
  0
LINE
  8
0
 10
40.4743
 20
7.10841
 11
40.3978
 21
6.72354
  0
LINE
  8
0
 10
40.3978
 20
6.72354
 11
40.2716
 21
6.35194
  0
LINE
  8
0
 10
40.2716
 20
6.35194
 11
40.0981
 21
6
  0
LINE
  8
0
 10
40.0981
 20
6
 11
39.8801
 21
5.67371
  0
LINE
  8
0
 10
39.8801
 20
5.67371
 11
39.6213
 21
5.37868
  0
LINE
  8
0
 10
39.6213
 20
5.37868
 11
39.3263
 21
5.11993
  0
LINE
  8
0
 10
39.3263
 20
5.11993
 11
39
 21
4.90192
  0
LINE
  8
0
 10
39
 20
4.90192
 11
38.648
 21
4.72835
  0
LINE
  8
0
 10
38.648
 20
4.72835
 11
38.2765
 21
4.60222
  0
LINE
  8
0
 10
38.2765
 20
4.60222
 11
37.8916
 21
4.52567
  0
LINE
  8
0
 10
37.8916
 20
4.52567
 11
37.5
 21
4.5
  0
LINE
  8
0
 10
37.5
 20
4.5
 11
37.1084
 21
4.52567
  0
LINE
  8
0
 10
52.1084
 20
4.52567
 11
51.7235
 21
4.60222
  0
LINE
  8
0
 10
51.7235
 20
4.60222
 11
51.3519
 21
4.72835
  0
LINE
  8
0
 10
51.3519
 20
4.72835
 11
51
 21
4.90192
  0
LINE
  8
0
 10
51
 20
4.90192
 11
50.6737
 21
5.11993
  0
LINE
  8
0
 10
50.6737
 20
5.11993
 11
50.3787
 21
5.37868
  0
LINE
  8
0
 10
50.3787
 20
5.37868
 11
50.1199
 21
5.67371
  0
LINE
  8
0
 10
50.1199
 20
5.67371
 11
49.9019
 21
6
  0
LINE
  8
0
 10
49.9019
 20
6
 11
49.7284
 21
6.35194
  0
LINE
  8
0
 10
49.7284
 20
6.35194
 11
49.6022
 21
6.72354
  0
LINE
  8
0
 10
49.6022
 20
6.72354
 11
49.5257
 21
7.10841
  0
LINE
  8
0
 10
49.5257
 20
7.10841
 11
49.5
 21
7.5
  0
LINE
  8
0
 10
49.5
 20
7.5
 11
49.5257
 21
7.89157
  0
LINE
  8
0
 10
49.5257
 20
7.89157
 11
49.6022
 21
8.27644
  0
LINE
  8
0
 10
49.6022
 20
8.27644
 11
49.7284
 21
8.64804
  0
LINE
  8
0
 10
49.7284
 20
8.64804
 11
49.9019
 21
9
  0
LINE
  8
0
 10
49.9019
 20
9
 11
50.1199
 21
9.32628
  0
LINE
  8
0
 10
50.1199
 20
9.32628
 11
50.3787
 21
9.62131
  0
LINE
  8
0
 10
50.3787
 20
9.62131
 11
50.6737
 21
9.88005
  0
LINE
  8
0
 10
50.6737
 20
9.88005
 11
51
 21
10.0981
  0
LINE
  8
0
 10
51
 20
10.0981
 11
51.3519
 21
10.2716
  0
LINE
  8
0
 10
51.3519
 20
10.2716
 11
51.7235
 21
10.3978
  0
LINE
  8
0
 10
51.7235
 20
10.3978
 11
52.1084
 21
10.4743
  0
LINE
  8
0
 10
52.1084
 20
10.4743
 11
52.5
 21
10.5
  0
LINE
  8
0
 10
52.5
 20
10.5
 11
52.8916
 21
10.4743
  0
LINE
  8
0
 10
52.8916
 20
10.4743
 11
53.2765
 21
10.3978
  0
LINE
  8
0
 10
53.2765
 20
10.3978
 11
53.648
 21
10.2716
  0
LINE
  8
0
 10
53.648
 20
10.2716
 11
54
 21
10.0981
  0
LINE
  8
0
 10
54
 20
10.0981
 11
54.3263
 21
9.88005
  0
LINE
  8
0
 10
54.3263
 20
9.88005
 11
54.6213
 21
9.62131
  0
LINE
  8
0
 10
54.6213
 20
9.62131
 11
54.8801
 21
9.32628
  0
LINE
  8
0
 10
54.8801
 20
9.32628
 11
55.0981
 21
9
  0
LINE
  8
0
 10
55.0981
 20
9
 11
55.2716
 21
8.64804
  0
LINE
  8
0
 10
55.2716
 20
8.64804
 11
55.3978
 21
8.27644
  0
LINE
  8
0
 10
55.3978
 20
8.27644
 11
55.4743
 21
7.89157
  0
LINE
  8
0
 10
55.4743
 20
7.89157
 11
55.5
 21
7.5
  0
LINE
  8
0
 10
55.5
 20
7.5
 11
55.4743
 21
7.10841
  0
LINE
  8
0
 10
55.4743
 20
7.10841
 11
55.3978
 21
6.72354
  0
LINE
  8
0
 10
55.3978
 20
6.72354
 11
55.2716
 21
6.35194
  0
LINE
  8
0
 10
55.2716
 20
6.35194
 11
55.0981
 21
6
  0
LINE
  8
0
 10
55.0981
 20
6
 11
54.8801
 21
5.67371
  0
LINE
  8
0
 10
54.8801
 20
5.67371
 11
54.6213
 21
5.37868
  0
LINE
  8
0
 10
54.6213
 20
5.37868
 11
54.3263
 21
5.11993
  0
LINE
  8
0
 10
54.3263
 20
5.11993
 11
54
 21
4.90192
  0
LINE
  8
0
 10
54
 20
4.90192
 11
53.648
 21
4.72835
  0
LINE
  8
0
 10
53.648
 20
4.72835
 11
53.2765
 21
4.60222
  0
LINE
  8
0
 10
53.2765
 20
4.60222
 11
52.8916
 21
4.52567
  0
LINE
  8
0
 10
52.8916
 20
4.52567
 11
52.5
 21
4.5
  0
LINE
  8
0
 10
52.5
 20
4.5
 11
52.1084
 21
4.52567
  0
ENDSEC
  0
SECTION
  2
OBJECTS
  0
DICTIONARY
  0
ENDSEC
  0
EOF
