<?xml version="1.0" standalone="no"?>
<!DOCTYPE svg PUBLIC "-//W3C//DTD SVG 1.1//EN" "http://www.w3.org/Graphics/SVG/1.1/DTD/svg11.dtd">
<svg width="58mm" height="14mm" viewBox="-29 -7 58 14" xmlns="http://www.w3.org/2000/svg" version="1.1">
<title>OpenSCAD Model</title>
<path d="
M 24.1576,5.96222 L 24.7991,5.83463 L 25.4184,5.62439 L 26.005,5.33511 L 26.5488,4.97176 L 27.0405,4.54053
 L 27.4718,4.0488 L 27.8351,3.50499 L 28.1244,2.91841 L 28.3346,2.29909 L 28.4622,1.65762 L 28.505,1.00499
 L 28.505,-1.00499 L 28.4622,-1.65762 L 28.3346,-2.29909 L 28.1244,-2.91841 L 27.8351,-3.50499 L 27.4718,-4.0488
 L 27.0405,-4.54053 L 26.5488,-4.97176 L 26.005,-5.33511 L 25.4184,-5.62439 L 24.7991,-5.83463 L 24.1576,-5.96222
 L 23.505,-6.00499 L -23.505,-6.00499 L -24.1576,-5.96222 L -24.7991,-5.83463 L -25.4184,-5.62439 L -26.005,-5.33511
 L -26.5488,-4.97176 L -27.0405,-4.54053 L -27.4718,-4.0488 L -27.8351,-3.50499 L -28.1244,-2.91841 L -28.3346,-2.29909
 L -28.4622,-1.65762 L -28.505,-1.00499 L -28.505,1.00499 L -28.4622,1.65762 L -28.3346,2.29909 L -28.1244,2.91841
 L -27.8351,3.50499 L -27.4718,4.0488 L -27.0405,4.54053 L -26.5488,4.97176 L -26.005,5.33511 L -25.4184,5.62439
 L -24.7991,5.83463 L -24.1576,5.96222 L -23.505,6.00499 L 23.505,6.00499 z
M -22.8916,2.97432 L -23.2764,2.89777 L -23.648,2.77164 L -24,2.59807 L -24.3263,2.38005 L -24.6213,2.12131
 L -24.8801,1.82628 L -25.0981,1.5 L -25.2716,1.14804 L -25.3978,0.776443 L -25.4743,0.391571 L -25.5,-0
 L -25.4743,-0.391571 L -25.3978,-0.776443 L -25.2716,-1.14804 L -25.0981,-1.5 L -24.8801,-1.82628 L -24.6213,-2.12131
 L -24.3263,-2.38005 L -24,-2.59807 L -23.648,-2.77164 L -23.2764,-2.89777 L -22.8916,-2.97432 L -22.5,-3
 L -22.1084,-2.97432 L -21.7235,-2.89777 L -21.3519,-2.77164 L -21,-2.59807 L -20.6737,-2.38005 L -20.3787,-2.12131
 L -20.1199,-1.82628 L -19.9019,-1.5 L -19.7283,-1.14804 L -19.6022,-0.776443 L -19.5257,-0.391571 L -19.5,-0
 L -19.5257,0.391571 L -19.6022,0.776443 L -19.7283,1.14804 L -19.9019,1.5 L -20.1199,1.82628 L -20.3787,2.12131
 L -20.6737,2.38005 L -21,2.59807 L -21.3519,2.77164 L -21.7235,2.89777 L -22.1084,2.97432 L -22.5,3
 z
M -7.89157,2.97432 L -8.27644,2.89777 L -8.64804,2.77164 L -9,2.59807 L -9.32628,2.38005 L -9.62131,2.12131
 L -9.88005,1.82628 L -10.0981,1.5 L -10.2716,1.14804 L -10.3978,0.776443 L -10.4743,0.391571 L -10.5,-0
 L -10.4743,-0.391571 L -10.3978,-0.776443 L -10.2716,-1.14804 L -10.0981,-1.5 L -9.88005,-1.82628 L -9.62131,-2.12131
 L -9.32628,-2.38005 L -9,-2.59807 L -8.64804,-2.77164 L -8.27644,-2.89777 L -7.89157,-2.97432 L -7.5,-3
 L -7.10841,-2.97432 L -6.72354,-2.89777 L -6.35194,-2.77164 L -6,-2.59807 L -5.67371,-2.38005 L -5.37868,-2.12131
 L -5.11993,-1.82628 L -4.90192,-1.5 L -4.72835,-1.14804 L -4.60222,-0.776443 L -4.52567,-0.391571 L -4.5,-0
 L -4.52567,0.391571 L -4.60222,0.776443 L -4.72835,1.14804 L -4.90192,1.5 L -5.11993,1.82628 L -5.37868,2.12131
 L -5.67371,2.38005 L -6,2.59807 L -6.35194,2.77164 L -6.72354,2.89777 L -7.10841,2.97432 L -7.5,3
 z
M 7.10841,2.97432 L 6.72354,2.89777 L 6.35194,2.77164 L 6,2.59807 L 5.67371,2.38005 L 5.37868,2.12131
 L 5.11993,1.82628 L 4.90192,1.5 L 4.72835,1.14804 L 4.60222,0.776443 L 4.52567,0.391571 L 4.5,-0
 L 4.52567,-0.391571 L 4.60222,-0.776443 L 4.72835,-1.14804 L 4.90192,-1.5 L 5.11993,-1.82628 L 5.37868,-2.12131
 L 5.67371,-2.38005 L 6,-2.59807 L 6.35194,-2.77164 L 6.72354,-2.89777 L 7.10841,-2.97432 L 7.5,-3
 L 7.89157,-2.97432 L 8.27644,-2.89777 L 8.64804,-2.77164 L 9,-2.59807 L 9.32628,-2.38005 L 9.62131,-2.12131
 L 9.88005,-1.82628 L 10.0981,-1.5 L 10.2716,-1.14804 L 10.3978,-0.776443 L 10.4743,-0.391571 L 10.5,-0
 L 10.4743,0.391571 L 10.3978,0.776443 L 10.2716,1.14804 L 10.0981,1.5 L 9.88005,1.82628 L 9.62131,2.12131
 L 9.32628,2.38005 L 9,2.59807 L 8.64804,2.77164 L 8.27644,2.89777 L 7.89157,2.97432 L 7.5,3
 z
M 22.1084,2.97432 L 21.7235,2.89777 L 21.3519,2.77164 L 21,2.59807 L 20.6737,2.38005 L 20.3787,2.12131
 L 20.1199,1.82628 L 19.9019,1.5 L 19.7283,1.14804 L 19.6022,0.776443 L 19.5257,0.391571 L 19.5,-0
 L 19.5257,-0.391571 L 19.6022,-0.776443 L 19.7283,-1.14804 L 19.9019,-1.5 L 20.1199,-1.82628 L 20.3787,-2.12131
 L 20.6737,-2.38005 L 21,-2.59807 L 21.3519,-2.77164 L 21.7235,-2.89777 L 22.1084,-2.97432 L 22.5,-3
 L 22.8916,-2.97432 L 23.2764,-2.89777 L 23.648,-2.77164 L 24,-2.59807 L 24.3263,-2.38005 L 24.6213,-2.12131
 L 24.8801,-1.82628 L 25.0981,-1.5 L 25.2716,-1.14804 L 25.3978,-0.776443 L 25.4743,-0.391571 L 25.5,-0
 L 25.4743,0.391571 L 25.3978,0.776443 L 25.2716,1.14804 L 25.0981,1.5 L 24.8801,1.82628 L 24.6213,2.12131
 L 24.3263,2.38005 L 24,2.59807 L 23.648,2.77164 L 23.2764,2.89777 L 22.8916,2.97432 L 22.5,3
 z
" stroke="black" fill="lightgray" stroke-width="0.5"/>
</svg>
