<svg
xmlns:dc="http://purl.org/dc/elements/1.1/"
xmlns:cc="http://creativecommons.org/ns#"
xmlns:rdf="http://www.w3.org/1999/02/22-rdf-syntax-ns#"
xmlns:svg="http://www.w3.org/2000/svg"
xmlns="http://www.w3.org/2000/svg"
xmlns:xlink="http://www.w3.org/1999/xlink"
xmlns:sodipodi="http://sodipodi.sourceforge.net/DTD/sodipodi-0.dtd"
xmlns:inkscape="http://www.inkscape.org/namespaces/inkscape"
width="403mm"
height="43mm"
id="svg2"
version="1.1"
inkscape:version="0.48.1 "
sodipodi:docname="MultiLineTextINK.svg">
	<rect
		style="fill:none;stroke:#000000;stroke-width:2px " 
		x="5mm"
		y="5mm"
		rx="5mm"
		ry="5mm"
		width="393mm"
		height="33mm"
	/>
	<circle
		style="fill:none;stroke:#000000;stroke-width:2px " 
		cx="11.5mm"
		cy="31.5mm"
		r="3mm"
		id="oomID1218"
	/>
	<circle
		style="fill:none;stroke:#000000;stroke-width:2px " 
		cx="11.5mm"
		cy="11.5mm"
		r="3mm"
		id="oomID1219"
	/>
	<circle
		style="fill:none;stroke:#000000;stroke-width:2px " 
		cx="31.5mm"
		cy="31.5mm"
		r="3mm"
		id="oomID1220"
	/>
	<circle
		style="fill:none;stroke:#000000;stroke-width:2px " 
		cx="31.5mm"
		cy="11.5mm"
		r="3mm"
		id="oomID1221"
	/>
	<circle
		style="fill:none;stroke:#000000;stroke-width:2px " 
		cx="51.5mm"
		cy="31.5mm"
		r="3mm"
		id="oomID1222"
	/>
	<circle
		style="fill:none;stroke:#000000;stroke-width:2px " 
		cx="51.5mm"
		cy="11.5mm"
		r="3mm"
		id="oomID1223"
	/>
	<circle
		style="fill:none;stroke:#000000;stroke-width:2px " 
		cx="71.5mm"
		cy="31.5mm"
		r="3mm"
		id="oomID1224"
	/>
	<circle
		style="fill:none;stroke:#000000;stroke-width:2px " 
		cx="71.5mm"
		cy="11.5mm"
		r="3mm"
		id="oomID1225"
	/>
	<circle
		style="fill:none;stroke:#000000;stroke-width:2px " 
		cx="91.5mm"
		cy="31.5mm"
		r="3mm"
		id="oomID1226"
	/>
	<circle
		style="fill:none;stroke:#000000;stroke-width:2px " 
		cx="91.5mm"
		cy="11.5mm"
		r="3mm"
		id="oomID1227"
	/>
	<circle
		style="fill:none;stroke:#000000;stroke-width:2px " 
		cx="111.5mm"
		cy="31.5mm"
		r="3mm"
		id="oomID1228"
	/>
	<circle
		style="fill:none;stroke:#000000;stroke-width:2px " 
		cx="111.5mm"
		cy="11.5mm"
		r="3mm"
		id="oomID1229"
	/>
	<circle
		style="fill:none;stroke:#000000;stroke-width:2px " 
		cx="131.5mm"
		cy="31.5mm"
		r="3mm"
		id="oomID1230"
	/>
	<circle
		style="fill:none;stroke:#000000;stroke-width:2px " 
		cx="131.5mm"
		cy="11.5mm"
		r="3mm"
		id="oomID1231"
	/>
	<circle
		style="fill:none;stroke:#000000;stroke-width:2px " 
		cx="151.5mm"
		cy="31.5mm"
		r="3mm"
		id="oomID1232"
	/>
	<circle
		style="fill:none;stroke:#000000;stroke-width:2px " 
		cx="151.5mm"
		cy="11.5mm"
		r="3mm"
		id="oomID1233"
	/>
	<circle
		style="fill:none;stroke:#000000;stroke-width:2px " 
		cx="171.5mm"
		cy="31.5mm"
		r="3mm"
		id="oomID1234"
	/>
	<circle
		style="fill:none;stroke:#000000;stroke-width:2px " 
		cx="171.5mm"
		cy="11.5mm"
		r="3mm"
		id="oomID1235"
	/>
	<circle
		style="fill:none;stroke:#000000;stroke-width:2px " 
		cx="191.5mm"
		cy="31.5mm"
		r="3mm"
		id="oomID1236"
	/>
	<circle
		style="fill:none;stroke:#000000;stroke-width:2px " 
		cx="191.5mm"
		cy="11.5mm"
		r="3mm"
		id="oomID1237"
	/>
	<circle
		style="fill:none;stroke:#000000;stroke-width:2px " 
		cx="211.5mm"
		cy="31.5mm"
		r="3mm"
		id="oomID1238"
	/>
	<circle
		style="fill:none;stroke:#000000;stroke-width:2px " 
		cx="211.5mm"
		cy="11.5mm"
		r="3mm"
		id="oomID1239"
	/>
	<circle
		style="fill:none;stroke:#000000;stroke-width:2px " 
		cx="231.5mm"
		cy="31.5mm"
		r="3mm"
		id="oomID1240"
	/>
	<circle
		style="fill:none;stroke:#000000;stroke-width:2px " 
		cx="231.5mm"
		cy="11.5mm"
		r="3mm"
		id="oomID1241"
	/>
	<circle
		style="fill:none;stroke:#000000;stroke-width:2px " 
		cx="251.5mm"
		cy="31.5mm"
		r="3mm"
		id="oomID1242"
	/>
	<circle
		style="fill:none;stroke:#000000;stroke-width:2px " 
		cx="251.5mm"
		cy="11.5mm"
		r="3mm"
		id="oomID1243"
	/>
	<circle
		style="fill:none;stroke:#000000;stroke-width:2px " 
		cx="271.5mm"
		cy="31.5mm"
		r="3mm"
		id="oomID1244"
	/>
	<circle
		style="fill:none;stroke:#000000;stroke-width:2px " 
		cx="271.5mm"
		cy="11.5mm"
		r="3mm"
		id="oomID1245"
	/>
	<circle
		style="fill:none;stroke:#000000;stroke-width:2px " 
		cx="291.5mm"
		cy="31.5mm"
		r="3mm"
		id="oomID1246"
	/>
	<circle
		style="fill:none;stroke:#000000;stroke-width:2px " 
		cx="291.5mm"
		cy="11.5mm"
		r="3mm"
		id="oomID1247"
	/>
	<circle
		style="fill:none;stroke:#000000;stroke-width:2px " 
		cx="311.5mm"
		cy="31.5mm"
		r="3mm"
		id="oomID1248"
	/>
	<circle
		style="fill:none;stroke:#000000;stroke-width:2px " 
		cx="311.5mm"
		cy="11.5mm"
		r="3mm"
		id="oomID1249"
	/>
	<circle
		style="fill:none;stroke:#000000;stroke-width:2px " 
		cx="331.5mm"
		cy="31.5mm"
		r="3mm"
		id="oomID1250"
	/>
	<circle
		style="fill:none;stroke:#000000;stroke-width:2px " 
		cx="331.5mm"
		cy="11.5mm"
		r="3mm"
		id="oomID1251"
	/>
	<circle
		style="fill:none;stroke:#000000;stroke-width:2px " 
		cx="351.5mm"
		cy="31.5mm"
		r="3mm"
		id="oomID1252"
	/>
	<circle
		style="fill:none;stroke:#000000;stroke-width:2px " 
		cx="351.5mm"
		cy="11.5mm"
		r="3mm"
		id="oomID1253"
	/>
	<circle
		style="fill:none;stroke:#000000;stroke-width:2px " 
		cx="371.5mm"
		cy="31.5mm"
		r="3mm"
		id="oomID1254"
	/>
	<circle
		style="fill:none;stroke:#000000;stroke-width:2px " 
		cx="371.5mm"
		cy="11.5mm"
		r="3mm"
		id="oomID1255"
	/>
	<circle
		style="fill:none;stroke:#000000;stroke-width:2px " 
		cx="391.5mm"
		cy="31.5mm"
		r="3mm"
		id="oomID1256"
	/>
	<circle
		style="fill:none;stroke:#000000;stroke-width:2px " 
		cx="391.5mm"
		cy="11.5mm"
		r="3mm"
		id="oomID1257"
	/>
	<rect
		style="fill:none;stroke:#000000;stroke-width:2px " 
		x="10mm"
		y="18.5mm"
		width="3mm"
		height="6mm"
		id="oomID1258"
	/>
	<rect
		style="fill:none;stroke:#000000;stroke-width:2px " 
		x="30mm"
		y="18.5mm"
		width="3mm"
		height="6mm"
		id="oomID1259"
	/>
	<rect
		style="fill:none;stroke:#000000;stroke-width:2px " 
		x="50mm"
		y="18.5mm"
		width="3mm"
		height="6mm"
		id="oomID1260"
	/>
	<rect
		style="fill:none;stroke:#000000;stroke-width:2px " 
		x="70mm"
		y="18.5mm"
		width="3mm"
		height="6mm"
		id="oomID1261"
	/>
	<rect
		style="fill:none;stroke:#000000;stroke-width:2px " 
		x="90mm"
		y="18.5mm"
		width="3mm"
		height="6mm"
		id="oomID1262"
	/>
	<rect
		style="fill:none;stroke:#000000;stroke-width:2px " 
		x="110mm"
		y="18.5mm"
		width="3mm"
		height="6mm"
		id="oomID1263"
	/>
	<rect
		style="fill:none;stroke:#000000;stroke-width:2px " 
		x="130mm"
		y="18.5mm"
		width="3mm"
		height="6mm"
		id="oomID1264"
	/>
	<rect
		style="fill:none;stroke:#000000;stroke-width:2px " 
		x="150mm"
		y="18.5mm"
		width="3mm"
		height="6mm"
		id="oomID1265"
	/>
	<rect
		style="fill:none;stroke:#000000;stroke-width:2px " 
		x="170mm"
		y="18.5mm"
		width="3mm"
		height="6mm"
		id="oomID1266"
	/>
	<rect
		style="fill:none;stroke:#000000;stroke-width:2px " 
		x="190mm"
		y="18.5mm"
		width="3mm"
		height="6mm"
		id="oomID1267"
	/>
	<rect
		style="fill:none;stroke:#000000;stroke-width:2px " 
		x="210mm"
		y="18.5mm"
		width="3mm"
		height="6mm"
		id="oomID1268"
	/>
	<rect
		style="fill:none;stroke:#000000;stroke-width:2px " 
		x="230mm"
		y="18.5mm"
		width="3mm"
		height="6mm"
		id="oomID1269"
	/>
	<rect
		style="fill:none;stroke:#000000;stroke-width:2px " 
		x="250mm"
		y="18.5mm"
		width="3mm"
		height="6mm"
		id="oomID1270"
	/>
	<rect
		style="fill:none;stroke:#000000;stroke-width:2px " 
		x="270mm"
		y="18.5mm"
		width="3mm"
		height="6mm"
		id="oomID1271"
	/>
	<rect
		style="fill:none;stroke:#000000;stroke-width:2px " 
		x="290mm"
		y="18.5mm"
		width="3mm"
		height="6mm"
		id="oomID1272"
	/>
	<rect
		style="fill:none;stroke:#000000;stroke-width:2px " 
		x="310mm"
		y="18.5mm"
		width="3mm"
		height="6mm"
		id="oomID1273"
	/>
	<rect
		style="fill:none;stroke:#000000;stroke-width:2px " 
		x="330mm"
		y="18.5mm"
		width="3mm"
		height="6mm"
		id="oomID1274"
	/>
	<rect
		style="fill:none;stroke:#000000;stroke-width:2px " 
		x="350mm"
		y="18.5mm"
		width="3mm"
		height="6mm"
		id="oomID1275"
	/>
	<rect
		style="fill:none;stroke:#000000;stroke-width:2px " 
		x="370mm"
		y="18.5mm"
		width="3mm"
		height="6mm"
		id="oomID1276"
	/>
	<rect
		style="fill:none;stroke:#000000;stroke-width:2px " 
		x="390mm"
		y="18.5mm"
		width="3mm"
		height="6mm"
		id="oomID1277"
	/>
	<rect
		style="fill:none;stroke:#000000;stroke-width:2px " 
		x="18.5mm"
		y="30mm"
		width="6mm"
		height="3mm"
		id="oomID1278"
	/>
	<rect
		style="fill:none;stroke:#000000;stroke-width:2px " 
		x="18.5mm"
		y="10mm"
		width="6mm"
		height="3mm"
		id="oomID1279"
	/>
	<rect
		style="fill:none;stroke:#000000;stroke-width:2px " 
		x="38.5mm"
		y="30mm"
		width="6mm"
		height="3mm"
		id="oomID1280"
	/>
	<rect
		style="fill:none;stroke:#000000;stroke-width:2px " 
		x="38.5mm"
		y="10mm"
		width="6mm"
		height="3mm"
		id="oomID1281"
	/>
	<rect
		style="fill:none;stroke:#000000;stroke-width:2px " 
		x="58.5mm"
		y="30mm"
		width="6mm"
		height="3mm"
		id="oomID1282"
	/>
	<rect
		style="fill:none;stroke:#000000;stroke-width:2px " 
		x="58.5mm"
		y="10mm"
		width="6mm"
		height="3mm"
		id="oomID1283"
	/>
	<rect
		style="fill:none;stroke:#000000;stroke-width:2px " 
		x="78.5mm"
		y="30mm"
		width="6mm"
		height="3mm"
		id="oomID1284"
	/>
	<rect
		style="fill:none;stroke:#000000;stroke-width:2px " 
		x="78.5mm"
		y="10mm"
		width="6mm"
		height="3mm"
		id="oomID1285"
	/>
	<rect
		style="fill:none;stroke:#000000;stroke-width:2px " 
		x="98.5mm"
		y="30mm"
		width="6mm"
		height="3mm"
		id="oomID1286"
	/>
	<rect
		style="fill:none;stroke:#000000;stroke-width:2px " 
		x="98.5mm"
		y="10mm"
		width="6mm"
		height="3mm"
		id="oomID1287"
	/>
	<rect
		style="fill:none;stroke:#000000;stroke-width:2px " 
		x="118.5mm"
		y="30mm"
		width="6mm"
		height="3mm"
		id="oomID1288"
	/>
	<rect
		style="fill:none;stroke:#000000;stroke-width:2px " 
		x="118.5mm"
		y="10mm"
		width="6mm"
		height="3mm"
		id="oomID1289"
	/>
	<rect
		style="fill:none;stroke:#000000;stroke-width:2px " 
		x="138.5mm"
		y="30mm"
		width="6mm"
		height="3mm"
		id="oomID1290"
	/>
	<rect
		style="fill:none;stroke:#000000;stroke-width:2px " 
		x="138.5mm"
		y="10mm"
		width="6mm"
		height="3mm"
		id="oomID1291"
	/>
	<rect
		style="fill:none;stroke:#000000;stroke-width:2px " 
		x="158.5mm"
		y="30mm"
		width="6mm"
		height="3mm"
		id="oomID1292"
	/>
	<rect
		style="fill:none;stroke:#000000;stroke-width:2px " 
		x="158.5mm"
		y="10mm"
		width="6mm"
		height="3mm"
		id="oomID1293"
	/>
	<rect
		style="fill:none;stroke:#000000;stroke-width:2px " 
		x="178.5mm"
		y="30mm"
		width="6mm"
		height="3mm"
		id="oomID1294"
	/>
	<rect
		style="fill:none;stroke:#000000;stroke-width:2px " 
		x="178.5mm"
		y="10mm"
		width="6mm"
		height="3mm"
		id="oomID1295"
	/>
	<rect
		style="fill:none;stroke:#000000;stroke-width:2px " 
		x="198.5mm"
		y="30mm"
		width="6mm"
		height="3mm"
		id="oomID1296"
	/>
	<rect
		style="fill:none;stroke:#000000;stroke-width:2px " 
		x="198.5mm"
		y="10mm"
		width="6mm"
		height="3mm"
		id="oomID1297"
	/>
	<rect
		style="fill:none;stroke:#000000;stroke-width:2px " 
		x="218.5mm"
		y="30mm"
		width="6mm"
		height="3mm"
		id="oomID1298"
	/>
	<rect
		style="fill:none;stroke:#000000;stroke-width:2px " 
		x="218.5mm"
		y="10mm"
		width="6mm"
		height="3mm"
		id="oomID1299"
	/>
	<rect
		style="fill:none;stroke:#000000;stroke-width:2px " 
		x="238.5mm"
		y="30mm"
		width="6mm"
		height="3mm"
		id="oomID1300"
	/>
	<rect
		style="fill:none;stroke:#000000;stroke-width:2px " 
		x="238.5mm"
		y="10mm"
		width="6mm"
		height="3mm"
		id="oomID1301"
	/>
	<rect
		style="fill:none;stroke:#000000;stroke-width:2px " 
		x="258.5mm"
		y="30mm"
		width="6mm"
		height="3mm"
		id="oomID1302"
	/>
	<rect
		style="fill:none;stroke:#000000;stroke-width:2px " 
		x="258.5mm"
		y="10mm"
		width="6mm"
		height="3mm"
		id="oomID1303"
	/>
	<rect
		style="fill:none;stroke:#000000;stroke-width:2px " 
		x="278.5mm"
		y="30mm"
		width="6mm"
		height="3mm"
		id="oomID1304"
	/>
	<rect
		style="fill:none;stroke:#000000;stroke-width:2px " 
		x="278.5mm"
		y="10mm"
		width="6mm"
		height="3mm"
		id="oomID1305"
	/>
	<rect
		style="fill:none;stroke:#000000;stroke-width:2px " 
		x="298.5mm"
		y="30mm"
		width="6mm"
		height="3mm"
		id="oomID1306"
	/>
	<rect
		style="fill:none;stroke:#000000;stroke-width:2px " 
		x="298.5mm"
		y="10mm"
		width="6mm"
		height="3mm"
		id="oomID1307"
	/>
	<rect
		style="fill:none;stroke:#000000;stroke-width:2px " 
		x="318.5mm"
		y="30mm"
		width="6mm"
		height="3mm"
		id="oomID1308"
	/>
	<rect
		style="fill:none;stroke:#000000;stroke-width:2px " 
		x="318.5mm"
		y="10mm"
		width="6mm"
		height="3mm"
		id="oomID1309"
	/>
	<rect
		style="fill:none;stroke:#000000;stroke-width:2px " 
		x="338.5mm"
		y="30mm"
		width="6mm"
		height="3mm"
		id="oomID1310"
	/>
	<rect
		style="fill:none;stroke:#000000;stroke-width:2px " 
		x="338.5mm"
		y="10mm"
		width="6mm"
		height="3mm"
		id="oomID1311"
	/>
	<rect
		style="fill:none;stroke:#000000;stroke-width:2px " 
		x="358.5mm"
		y="30mm"
		width="6mm"
		height="3mm"
		id="oomID1312"
	/>
	<rect
		style="fill:none;stroke:#000000;stroke-width:2px " 
		x="358.5mm"
		y="10mm"
		width="6mm"
		height="3mm"
		id="oomID1313"
	/>
	<rect
		style="fill:none;stroke:#000000;stroke-width:2px " 
		x="378.5mm"
		y="30mm"
		width="6mm"
		height="3mm"
		id="oomID1314"
	/>
	<rect
		style="fill:none;stroke:#000000;stroke-width:2px " 
		x="378.5mm"
		y="10mm"
		width="6mm"
		height="3mm"
		id="oomID1315"
	/>
	<text x="21.5mm" y="21.5mm"
	style="text-anchor: middle; text-align: center; font-family: ENG_HelvLine; -inkscape-font-specification: ENG_HelvLine; font-size: 12pt; fill:none; font-style:normal;font-weight:normal;line-height:100%;letter-spacing:0px;word-spacing:0px;fill-opacity:1;stroke:#FFA500"
	><tspan sodipodi:role="line">PL</tspan><tspan sodipodi:role="line">20-02</tspan></text>
</svg>
