<?xml version="1.0" encoding="UTF-8"?>
<!DOCTYPE svg PUBLIC "-//W3C//DTD SVG 1.1//EN" "http://www.w3.org/Graphics/SVG/1.1/DTD/svg11.dtd">
<!-- Creator: CorelDRAW -->
<svg xmlns="http://www.w3.org/2000/svg" xml:space="preserve" width="73.5292mm" height="53.5292mm" style="shape-rendering:geometricPrecision; text-rendering:geometricPrecision; image-rendering:optimizeQuality; fill-rule:evenodd; clip-rule:evenodd"
viewBox="0 0 19.0687 13.882"
 xmlns:xlink="http://www.w3.org/1999/xlink">
 <defs>
  <style type="text/css">
   <![CDATA[
    .str2 {stroke:#1F1A17;stroke-width:0.13724}
    .str1 {stroke:#1F1A17;stroke-width:0.13724;stroke-linecap:round;stroke-linejoin:round}
    .str0 {stroke:black;stroke-width:0.13724;stroke-linecap:round;stroke-linejoin:round}
    .fil0 {fill:none}
   ]]>
  </style>
 </defs>
 <g id="Layer_x0020_1">
  <metadata id="CorelCorpID_0Corel-Layer"/>
  <path class="fil0 str0" d="M0.950361 11.7258l0.107598 0c0.0706171,-0.122017 0.172354,-0.223755 0.294372,-0.294372l0 -0.107598 0.40197 0 0.40197 0 0 0.107598c0.122017,0.0706171 0.223755,0.172354 0.294372,0.294372l0.107598 0 0 0.40197 0 0.40197 -0.107598 0c-0.0706171,0.122017 -0.172354,0.223755 -0.294372,0.294372l0 0.107598 -0.40197 0 -0.40197 0 0 -0.107598c-0.122017,-0.0706171 -0.223755,-0.172354 -0.294372,-0.294372l-0.107598 0 0 -0.40197 0 -0.40197z"/>
  <path class="fil0 str0" d="M0.950361 6.53904l0.107598 0c0.0706171,-0.122017 0.172354,-0.223755 0.294372,-0.294372l0 -0.107598 0.40197 0 0.40197 0 0 0.107598c0.122017,0.0706171 0.223755,0.172354 0.294372,0.294372l0.107598 0 0 0.40197 0 0.40197 -0.107598 0c-0.0706171,0.122017 -0.172354,0.223755 -0.294372,0.294372l0 0.107598 -0.40197 0 -0.40197 0 0 -0.107598c-0.122017,-0.0706171 -0.223755,-0.172354 -0.294372,-0.294372l-0.107598 0 0 -0.40197 0 -0.40197z"/>
  <path class="fil0 str0" d="M0.950361 1.35233l0.107598 0c0.0706171,-0.122017 0.172354,-0.223755 0.294372,-0.294372l0 -0.107598 0.40197 0 0.40197 0 0 0.107598c0.122017,0.0706171 0.223755,0.172354 0.294372,0.294372l0.107598 0 0 0.40197 0 0.40197 -0.107598 0c-0.0706171,0.122017 -0.172354,0.223755 -0.294372,0.294372l0 0.107598 -0.40197 0 -0.40197 0 0 -0.107598c-0.122017,-0.0706171 -0.223755,-0.172354 -0.294372,-0.294372l-0.107598 0 0 -0.40197 0 -0.40197z"/>
  <rect class="fil0 str1" x="1.33936" y="8.73043" width="0.829874" height="1.60788"/>
  <rect class="fil0 str1" x="1.33936" y="3.54372" width="0.829874" height="1.60788"/>
  <path class="fil0 str0" d="M6.13707 11.7258l0.107598 0c0.0706171,-0.122017 0.172354,-0.223755 0.294372,-0.294372l0 -0.107598 0.40197 0 0.40197 0 0 0.107598c0.122017,0.0706171 0.223755,0.172354 0.294372,0.294372l0.107598 0 0 0.40197 0 0.40197 -0.107598 0c-0.0706171,0.122017 -0.172354,0.223755 -0.294372,0.294372l0 0.107598 -0.40197 0 -0.40197 0 0 -0.107598c-0.122017,-0.0706171 -0.223755,-0.172354 -0.294372,-0.294372l-0.107598 0 0 -0.40197 0 -0.40197z"/>
  <path class="fil0 str0" d="M6.13707 6.53904l0.107598 0c0.0706171,-0.122017 0.172354,-0.223755 0.294372,-0.294372l0 -0.107598 0.40197 0 0.40197 0 0 0.107598c0.122017,0.0706171 0.223755,0.172354 0.294372,0.294372l0.107598 0 0 0.40197 0 0.40197 -0.107598 0c-0.0706171,0.122017 -0.172354,0.223755 -0.294372,0.294372l0 0.107598 -0.40197 0 -0.40197 0 0 -0.107598c-0.122017,-0.0706171 -0.223755,-0.172354 -0.294372,-0.294372l-0.107598 0 0 -0.40197 0 -0.40197z"/>
  <path class="fil0 str0" d="M6.13707 1.35233l0.107598 0c0.0706171,-0.122017 0.172354,-0.223755 0.294372,-0.294372l0 -0.107598 0.40197 0 0.40197 0 0 0.107598c0.122017,0.0706171 0.223755,0.172354 0.294372,0.294372l0.107598 0 0 0.40197 0 0.40197 -0.107598 0c-0.0706171,0.122017 -0.172354,0.223755 -0.294372,0.294372l0 0.107598 -0.40197 0 -0.40197 0 0 -0.107598c-0.122017,-0.0706171 -0.223755,-0.172354 -0.294372,-0.294372l-0.107598 0 0 -0.40197 0 -0.40197z"/>
  <rect class="fil0 str1" x="6.52608" y="8.73043" width="0.829874" height="1.60788"/>
  <rect class="fil0 str1" x="6.52608" y="3.54372" width="0.829874" height="1.60788"/>
  <path class="fil0 str0" d="M11.3238 11.7258l0.107598 0c0.0706171,-0.122017 0.172354,-0.223755 0.294372,-0.294372l0 -0.107598 0.40197 0 0.40197 0 0 0.107598c0.122017,0.0706171 0.223755,0.172354 0.294372,0.294372l0.107598 0 0 0.40197 0 0.40197 -0.107598 0c-0.0706171,0.122017 -0.172354,0.223755 -0.294372,0.294372l0 0.107598 -0.40197 0 -0.40197 0 0 -0.107598c-0.122017,-0.0706171 -0.223755,-0.172354 -0.294372,-0.294372l-0.107598 0 0 -0.40197 0 -0.40197z"/>
  <path class="fil0 str0" d="M11.3238 6.53904l0.107598 0c0.0706171,-0.122017 0.172354,-0.223755 0.294372,-0.294372l0 -0.107598 0.40197 0 0.40197 0 0 0.107598c0.122017,0.0706171 0.223755,0.172354 0.294372,0.294372l0.107598 0 0 0.40197 0 0.40197 -0.107598 0c-0.0706171,0.122017 -0.172354,0.223755 -0.294372,0.294372l0 0.107598 -0.40197 0 -0.40197 0 0 -0.107598c-0.122017,-0.0706171 -0.223755,-0.172354 -0.294372,-0.294372l-0.107598 0 0 -0.40197 0 -0.40197z"/>
  <path class="fil0 str0" d="M11.3238 1.35233l0.107598 0c0.0706171,-0.122017 0.172354,-0.223755 0.294372,-0.294372l0 -0.107598 0.40197 0 0.40197 0 0 0.107598c0.122017,0.0706171 0.223755,0.172354 0.294372,0.294372l0.107598 0 0 0.40197 0 0.40197 -0.107598 0c-0.0706171,0.122017 -0.172354,0.223755 -0.294372,0.294372l0 0.107598 -0.40197 0 -0.40197 0 0 -0.107598c-0.122017,-0.0706171 -0.223755,-0.172354 -0.294372,-0.294372l-0.107598 0 0 -0.40197 0 -0.40197z"/>
  <rect class="fil0 str1" x="11.7128" y="8.73043" width="0.829874" height="1.60788"/>
  <rect class="fil0 str1" x="11.7128" y="3.54372" width="0.829874" height="1.60788"/>
  <path class="fil0 str0" d="M16.5105 11.7258l0.107598 0c0.0706171,-0.122017 0.172354,-0.223755 0.294372,-0.294372l0 -0.107598 0.40197 0 0.40197 0 0 0.107598c0.122017,0.0706171 0.223755,0.172354 0.294372,0.294372l0.107598 0 0 0.40197 0 0.40197 -0.107598 0c-0.0706171,0.122017 -0.172354,0.223755 -0.294372,0.294372l0 0.107598 -0.40197 0 -0.40197 0 0 -0.107598c-0.122017,-0.0706171 -0.223755,-0.172354 -0.294372,-0.294372l-0.107598 0 0 -0.40197 0 -0.40197z"/>
  <path class="fil0 str0" d="M16.5105 6.53904l0.107598 0c0.0706171,-0.122017 0.172354,-0.223755 0.294372,-0.294372l0 -0.107598 0.40197 0 0.40197 0 0 0.107598c0.122017,0.0706171 0.223755,0.172354 0.294372,0.294372l0.107598 0 0 0.40197 0 0.40197 -0.107598 0c-0.0706171,0.122017 -0.172354,0.223755 -0.294372,0.294372l0 0.107598 -0.40197 0 -0.40197 0 0 -0.107598c-0.122017,-0.0706171 -0.223755,-0.172354 -0.294372,-0.294372l-0.107598 0 0 -0.40197 0 -0.40197z"/>
  <path class="fil0 str0" d="M16.5105 1.35233l0.107598 0c0.0706171,-0.122017 0.172354,-0.223755 0.294372,-0.294372l0 -0.107598 0.40197 0 0.40197 0 0 0.107598c0.122017,0.0706171 0.223755,0.172354 0.294372,0.294372l0.107598 0 0 0.40197 0 0.40197 -0.107598 0c-0.0706171,0.122017 -0.172354,0.223755 -0.294372,0.294372l0 0.107598 -0.40197 0 -0.40197 0 0 -0.107598c-0.122017,-0.0706171 -0.223755,-0.172354 -0.294372,-0.294372l-0.107598 0 0 -0.40197 0 -0.40197z"/>
  <rect class="fil0 str1" x="16.8995" y="8.73043" width="0.829874" height="1.60788"/>
  <rect class="fil0 str1" x="16.8995" y="3.54372" width="0.829874" height="1.60788"/>
  <rect class="fil0 str1" x="3.54372" y="11.7128" width="1.60788" height="0.829874"/>
  <rect class="fil0 str1" x="8.73043" y="11.7128" width="1.60788" height="0.829874"/>
  <rect class="fil0 str1" x="13.9171" y="11.7128" width="1.60788" height="0.829874"/>
  <rect class="fil0 str1" x="3.54372" y="6.52608" width="1.60788" height="0.829874"/>
  <rect class="fil0 str1" x="8.73043" y="6.52608" width="1.60788" height="0.829874"/>
  <rect class="fil0 str1" x="13.9171" y="6.52608" width="1.60788" height="0.829874"/>
  <rect class="fil0 str1" x="3.54372" y="1.33936" width="1.60788" height="0.829874"/>
  <rect class="fil0 str1" x="8.73043" y="1.33936" width="1.60788" height="0.829874"/>
  <rect class="fil0 str1" x="13.9171" y="1.33936" width="1.60788" height="0.829874"/>
  <path class="fil0 str2" d="M0.0686202 12.5167l0 -11.1514c0,-0.716 0.580678,-1.29668 1.29668,-1.29668l16.3381 0c0.716,0 1.29668,0.580678 1.29668,1.29668l0 11.1514c0,0.716 -0.580678,1.29668 -1.29668,1.29668l-16.3381 0c-0.716,0 -1.29668,-0.580678 -1.29668,-1.29668z"/>
 </g>
</svg>
