<?xml version="1.0" standalone="no"?>
<!DOCTYPE svg PUBLIC "-//W3C//DTD SVG 1.1//EN" "http://www.w3.org/Graphics/SVG/1.1/DTD/svg11.dtd">
<svg width="42mm" height="42mm" viewBox="-21 -21 42 42" xmlns="http://www.w3.org/2000/svg" version="1.1">
<title>OpenSCAD Model</title>
<path d="
M 17.2435,20.8429 L 18.4088,20.3815 L 19.4227,19.6448 L 20.2216,18.6791 L 20.7553,17.5451 L 21,16
 L 21,-16 L 20.8429,-17.2435 L 20.3815,-18.4088 L 19.6448,-19.4227 L 18.6791,-20.2216 L 17.5451,-20.7553
 L 16,-21 L -16,-21 L -17.2435,-20.8429 L -18.4088,-20.3815 L -19.4227,-19.6448 L -20.2216,-18.6791
 L -20.7553,-17.5451 L -21,-16 L -21,16 L -20.8429,17.2435 L -20.3815,18.4088 L -19.6448,19.4227
 L -18.6791,20.2216 L -17.5451,20.7553 L -16,21 L 16,21 z
M -15.5621,-12.0531 L -16.2773,-12.2855 L -16.9123,-12.6884 L -17.427,-13.2366 L -17.7893,-13.8956 L -17.9763,-14.624
 L -17.9763,-15.376 L -17.7893,-16.1044 L -17.427,-16.7634 L -16.9123,-17.3115 L -16.2773,-17.7145 L -15.5621,-17.9469
 L -14.8116,-17.9941 L -14.0729,-17.8532 L -13.3925,-17.533 L -12.8131,-17.0536 L -12.3711,-16.4453 L -12.0942,-15.7461
 L -12,-15 L -12.0942,-14.2539 L -12.3711,-13.5547 L -12.8131,-12.9464 L -13.3925,-12.467 L -14.0729,-12.1468
 L -14.8116,-12.0059 z
M 14.4379,-12.0531 L 13.7227,-12.2855 L 13.0877,-12.6884 L 12.5729,-13.2366 L 12.2107,-13.8956 L 12.0237,-14.624
 L 12.0237,-15.376 L 12.2107,-16.1044 L 12.5729,-16.7634 L 13.0877,-17.3115 L 13.7227,-17.7145 L 14.4379,-17.9469
 L 15.1884,-17.9941 L 15.927,-17.8532 L 16.6075,-17.533 L 17.1869,-17.0536 L 17.6289,-16.4453 L 17.9057,-15.7461
 L 18,-15 L 17.9057,-14.2539 L 17.6289,-13.5547 L 17.1869,-12.9464 L 16.6075,-12.467 L 15.927,-12.1468
 L 15.1884,-12.0059 z
M -0.749512,-4.07085 L -1.70311,-4.38069 L -2.54968,-4.91794 L -3.23605,-5.64885 L -3.7191,-6.5275 L -3.96844,-7.49866
 L -3.96844,-8.50133 L -3.7191,-9.47249 L -3.23605,-10.3511 L -2.54968,-11.082 L -1.70311,-11.6193 L -0.749512,-11.9291
 L 0.25116,-11.9921 L 1.23605,-11.8042 L 2.1433,-11.3773 L 2.91586,-10.7382 L 3.50522,-9.927 L 3.87433,-8.99475
 L 4,-8 L 3.87433,-7.00523 L 3.50522,-6.07298 L 2.91586,-5.26181 L 2.1433,-4.62268 L 1.23605,-4.19577
 L 0.25116,-4.00789 z
M 14.7189,1.47342 L 14.3613,1.35724 L 14.0439,1.15576 L 13.7865,0.881668 L 13.6053,0.552185 L 13.5118,0.187988
 L 13.5118,-0.187988 L 13.6053,-0.552185 L 13.7865,-0.881668 L 14.0439,-1.15576 L 14.3613,-1.35724 L 14.7189,-1.47342
 L 15.0942,-1.49704 L 15.4635,-1.42657 L 15.8037,-1.26648 L 16.0934,-1.02681 L 16.3145,-0.722626 L 16.4529,-0.373032
 L 16.5,-0 L 16.4529,0.373032 L 16.3145,0.722626 L 16.0934,1.02681 L 15.8037,1.26648 L 15.4635,1.42657
 L 15.0942,1.49704 z
M -15.2811,1.47342 L -15.6387,1.35724 L -15.9561,1.15576 L -16.2135,0.881668 L -16.3947,0.552185 L -16.4882,0.187988
 L -16.4882,-0.187988 L -16.3947,-0.552185 L -16.2135,-0.881668 L -15.9561,-1.15576 L -15.6387,-1.35724 L -15.2811,-1.47342
 L -14.9058,-1.49704 L -14.5365,-1.42657 L -14.1963,-1.26648 L -13.9065,-1.02681 L -13.6855,-0.722626 L -13.5471,-0.373032
 L -13.5,-0 L -13.5471,0.373032 L -13.6855,0.722626 L -13.9065,1.02681 L -14.1963,1.26648 L -14.5365,1.42657
 L -14.9058,1.49704 z
M -15.5621,17.9469 L -16.2773,17.7145 L -16.9123,17.3115 L -17.427,16.7634 L -17.7893,16.1044 L -17.9763,15.376
 L -17.9763,14.624 L -17.7893,13.8956 L -17.427,13.2366 L -16.9123,12.6884 L -16.2773,12.2855 L -15.5621,12.0531
 L -14.8116,12.0059 L -14.0729,12.1468 L -13.3925,12.467 L -12.8131,12.9464 L -12.3711,13.5547 L -12.0942,14.2539
 L -12,15 L -12.0942,15.7461 L -12.3711,16.4453 L -12.8131,17.0536 L -13.3925,17.533 L -14.0729,17.8532
 L -14.8116,17.9941 z
M 14.4379,17.9469 L 13.7227,17.7145 L 13.0877,17.3115 L 12.5729,16.7634 L 12.2107,16.1044 L 12.0237,15.376
 L 12.0237,14.624 L 12.2107,13.8956 L 12.5729,13.2366 L 13.0877,12.6884 L 13.7227,12.2855 L 14.4379,12.0531
 L 15.1884,12.0059 L 15.927,12.1468 L 16.6075,12.467 L 17.1869,12.9464 L 17.6289,13.5547 L 17.9057,14.2539
 L 18,15 L 17.9057,15.7461 L 17.6289,16.4453 L 17.1869,17.0536 L 16.6075,17.533 L 15.927,17.8532
 L 15.1884,17.9941 z
" stroke="black" fill="lightgray" stroke-width="0.5"/>
</svg>
