  0
SECTION
  2
BLOCKS
  0
ENDSEC
  0
SECTION
  2
ENTITIES
  0
LINE
  8
0
 10
17.2435
 20
-20.8429
 11
18.4088
 21
-20.3815
  0
LINE
  8
0
 10
18.4088
 20
-20.3815
 11
19.4227
 21
-19.6448
  0
LINE
  8
0
 10
19.4227
 20
-19.6448
 11
20.2216
 21
-18.6791
  0
LINE
  8
0
 10
20.2216
 20
-18.6791
 11
20.7553
 21
-17.5451
  0
LINE
  8
0
 10
20.7553
 20
-17.5451
 11
21
 21
-16
  0
LINE
  8
0
 10
21
 20
-16
 11
21
 21
16
  0
LINE
  8
0
 10
21
 20
16
 11
20.8429
 21
17.2435
  0
LINE
  8
0
 10
20.8429
 20
17.2435
 11
20.3815
 21
18.4088
  0
LINE
  8
0
 10
20.3815
 20
18.4088
 11
19.6448
 21
19.4227
  0
LINE
  8
0
 10
19.6448
 20
19.4227
 11
18.6791
 21
20.2216
  0
LINE
  8
0
 10
18.6791
 20
20.2216
 11
17.5451
 21
20.7553
  0
LINE
  8
0
 10
17.5451
 20
20.7553
 11
16
 21
21
  0
LINE
  8
0
 10
16
 20
21
 11
-16
 21
21
  0
LINE
  8
0
 10
-16
 20
21
 11
-17.2435
 21
20.8429
  0
LINE
  8
0
 10
-17.2435
 20
20.8429
 11
-18.4088
 21
20.3815
  0
LINE
  8
0
 10
-18.4088
 20
20.3815
 11
-19.4227
 21
19.6448
  0
LINE
  8
0
 10
-19.4227
 20
19.6448
 11
-20.2216
 21
18.6791
  0
LINE
  8
0
 10
-20.2216
 20
18.6791
 11
-20.7553
 21
17.5451
  0
LINE
  8
0
 10
-20.7553
 20
17.5451
 11
-21
 21
16
  0
LINE
  8
0
 10
-21
 20
16
 11
-21
 21
-16
  0
LINE
  8
0
 10
-21
 20
-16
 11
-20.8429
 21
-17.2435
  0
LINE
  8
0
 10
-20.8429
 20
-17.2435
 11
-20.3815
 21
-18.4088
  0
LINE
  8
0
 10
-20.3815
 20
-18.4088
 11
-19.6448
 21
-19.4227
  0
LINE
  8
0
 10
-19.6448
 20
-19.4227
 11
-18.6791
 21
-20.2216
  0
LINE
  8
0
 10
-18.6791
 20
-20.2216
 11
-17.5451
 21
-20.7553
  0
LINE
  8
0
 10
-17.5451
 20
-20.7553
 11
-16
 21
-21
  0
LINE
  8
0
 10
-16
 20
-21
 11
16
 21
-21
  0
LINE
  8
0
 10
16
 20
-21
 11
17.2435
 21
-20.8429
  0
LINE
  8
0
 10
-15.5621
 20
12.0531
 11
-16.2773
 21
12.2855
  0
LINE
  8
0
 10
-16.2773
 20
12.2855
 11
-16.9123
 21
12.6884
  0
LINE
  8
0
 10
-16.9123
 20
12.6884
 11
-17.427
 21
13.2366
  0
LINE
  8
0
 10
-17.427
 20
13.2366
 11
-17.7893
 21
13.8956
  0
LINE
  8
0
 10
-17.7893
 20
13.8956
 11
-17.9763
 21
14.624
  0
LINE
  8
0
 10
-17.9763
 20
14.624
 11
-17.9763
 21
15.376
  0
LINE
  8
0
 10
-17.9763
 20
15.376
 11
-17.7893
 21
16.1044
  0
LINE
  8
0
 10
-17.7893
 20
16.1044
 11
-17.427
 21
16.7634
  0
LINE
  8
0
 10
-17.427
 20
16.7634
 11
-16.9123
 21
17.3115
  0
LINE
  8
0
 10
-16.9123
 20
17.3115
 11
-16.2773
 21
17.7145
  0
LINE
  8
0
 10
-16.2773
 20
17.7145
 11
-15.5621
 21
17.9469
  0
LINE
  8
0
 10
-15.5621
 20
17.9469
 11
-14.8116
 21
17.9941
  0
LINE
  8
0
 10
-14.8116
 20
17.9941
 11
-14.0729
 21
17.8532
  0
LINE
  8
0
 10
-14.0729
 20
17.8532
 11
-13.3925
 21
17.533
  0
LINE
  8
0
 10
-13.3925
 20
17.533
 11
-12.8131
 21
17.0536
  0
LINE
  8
0
 10
-12.8131
 20
17.0536
 11
-12.3711
 21
16.4453
  0
LINE
  8
0
 10
-12.3711
 20
16.4453
 11
-12.0942
 21
15.7461
  0
LINE
  8
0
 10
-12.0942
 20
15.7461
 11
-12
 21
15
  0
LINE
  8
0
 10
-12
 20
15
 11
-12.0942
 21
14.2539
  0
LINE
  8
0
 10
-12.0942
 20
14.2539
 11
-12.3711
 21
13.5547
  0
LINE
  8
0
 10
-12.3711
 20
13.5547
 11
-12.8131
 21
12.9464
  0
LINE
  8
0
 10
-12.8131
 20
12.9464
 11
-13.3925
 21
12.467
  0
LINE
  8
0
 10
-13.3925
 20
12.467
 11
-14.0729
 21
12.1468
  0
LINE
  8
0
 10
-14.0729
 20
12.1468
 11
-14.8116
 21
12.0059
  0
LINE
  8
0
 10
-14.8116
 20
12.0059
 11
-15.5621
 21
12.0531
  0
LINE
  8
0
 10
14.4379
 20
12.0531
 11
13.7227
 21
12.2855
  0
LINE
  8
0
 10
13.7227
 20
12.2855
 11
13.0877
 21
12.6884
  0
LINE
  8
0
 10
13.0877
 20
12.6884
 11
12.5729
 21
13.2366
  0
LINE
  8
0
 10
12.5729
 20
13.2366
 11
12.2107
 21
13.8956
  0
LINE
  8
0
 10
12.2107
 20
13.8956
 11
12.0237
 21
14.624
  0
LINE
  8
0
 10
12.0237
 20
14.624
 11
12.0237
 21
15.376
  0
LINE
  8
0
 10
12.0237
 20
15.376
 11
12.2107
 21
16.1044
  0
LINE
  8
0
 10
12.2107
 20
16.1044
 11
12.5729
 21
16.7634
  0
LINE
  8
0
 10
12.5729
 20
16.7634
 11
13.0877
 21
17.3115
  0
LINE
  8
0
 10
13.0877
 20
17.3115
 11
13.7227
 21
17.7145
  0
LINE
  8
0
 10
13.7227
 20
17.7145
 11
14.4379
 21
17.9469
  0
LINE
  8
0
 10
14.4379
 20
17.9469
 11
15.1884
 21
17.9941
  0
LINE
  8
0
 10
15.1884
 20
17.9941
 11
15.927
 21
17.8532
  0
LINE
  8
0
 10
15.927
 20
17.8532
 11
16.6075
 21
17.533
  0
LINE
  8
0
 10
16.6075
 20
17.533
 11
17.1869
 21
17.0536
  0
LINE
  8
0
 10
17.1869
 20
17.0536
 11
17.6289
 21
16.4453
  0
LINE
  8
0
 10
17.6289
 20
16.4453
 11
17.9057
 21
15.7461
  0
LINE
  8
0
 10
17.9057
 20
15.7461
 11
18
 21
15
  0
LINE
  8
0
 10
18
 20
15
 11
17.9057
 21
14.2539
  0
LINE
  8
0
 10
17.9057
 20
14.2539
 11
17.6289
 21
13.5547
  0
LINE
  8
0
 10
17.6289
 20
13.5547
 11
17.1869
 21
12.9464
  0
LINE
  8
0
 10
17.1869
 20
12.9464
 11
16.6075
 21
12.467
  0
LINE
  8
0
 10
16.6075
 20
12.467
 11
15.927
 21
12.1468
  0
LINE
  8
0
 10
15.927
 20
12.1468
 11
15.1884
 21
12.0059
  0
LINE
  8
0
 10
15.1884
 20
12.0059
 11
14.4379
 21
12.0531
  0
LINE
  8
0
 10
-0.749512
 20
4.07085
 11
-1.70311
 21
4.38069
  0
LINE
  8
0
 10
-1.70311
 20
4.38069
 11
-2.54968
 21
4.91794
  0
LINE
  8
0
 10
-2.54968
 20
4.91794
 11
-3.23605
 21
5.64885
  0
LINE
  8
0
 10
-3.23605
 20
5.64885
 11
-3.7191
 21
6.5275
  0
LINE
  8
0
 10
-3.7191
 20
6.5275
 11
-3.96844
 21
7.49866
  0
LINE
  8
0
 10
-3.96844
 20
7.49866
 11
-3.96844
 21
8.50133
  0
LINE
  8
0
 10
-3.96844
 20
8.50133
 11
-3.7191
 21
9.47249
  0
LINE
  8
0
 10
-3.7191
 20
9.47249
 11
-3.23605
 21
10.3511
  0
LINE
  8
0
 10
-3.23605
 20
10.3511
 11
-2.54968
 21
11.082
  0
LINE
  8
0
 10
-2.54968
 20
11.082
 11
-1.70311
 21
11.6193
  0
LINE
  8
0
 10
-1.70311
 20
11.6193
 11
-0.749512
 21
11.9291
  0
LINE
  8
0
 10
-0.749512
 20
11.9291
 11
0.25116
 21
11.9921
  0
LINE
  8
0
 10
0.25116
 20
11.9921
 11
1.23605
 21
11.8042
  0
LINE
  8
0
 10
1.23605
 20
11.8042
 11
2.1433
 21
11.3773
  0
LINE
  8
0
 10
2.1433
 20
11.3773
 11
2.91586
 21
10.7382
  0
LINE
  8
0
 10
2.91586
 20
10.7382
 11
3.50522
 21
9.927
  0
LINE
  8
0
 10
3.50522
 20
9.927
 11
3.87433
 21
8.99475
  0
LINE
  8
0
 10
3.87433
 20
8.99475
 11
4
 21
8
  0
LINE
  8
0
 10
4
 20
8
 11
3.87433
 21
7.00523
  0
LINE
  8
0
 10
3.87433
 20
7.00523
 11
3.50522
 21
6.07298
  0
LINE
  8
0
 10
3.50522
 20
6.07298
 11
2.91586
 21
5.26181
  0
LINE
  8
0
 10
2.91586
 20
5.26181
 11
2.1433
 21
4.62268
  0
LINE
  8
0
 10
2.1433
 20
4.62268
 11
1.23605
 21
4.19577
  0
LINE
  8
0
 10
1.23605
 20
4.19577
 11
0.25116
 21
4.00789
  0
LINE
  8
0
 10
0.25116
 20
4.00789
 11
-0.749512
 21
4.07085
  0
LINE
  8
0
 10
14.7189
 20
-1.47342
 11
14.3613
 21
-1.35724
  0
LINE
  8
0
 10
14.3613
 20
-1.35724
 11
14.0439
 21
-1.15576
  0
LINE
  8
0
 10
14.0439
 20
-1.15576
 11
13.7865
 21
-0.881668
  0
LINE
  8
0
 10
13.7865
 20
-0.881668
 11
13.6053
 21
-0.552185
  0
LINE
  8
0
 10
13.6053
 20
-0.552185
 11
13.5118
 21
-0.187988
  0
LINE
  8
0
 10
13.5118
 20
-0.187988
 11
13.5118
 21
0.187988
  0
LINE
  8
0
 10
13.5118
 20
0.187988
 11
13.6053
 21
0.552185
  0
LINE
  8
0
 10
13.6053
 20
0.552185
 11
13.7865
 21
0.881668
  0
LINE
  8
0
 10
13.7865
 20
0.881668
 11
14.0439
 21
1.15576
  0
LINE
  8
0
 10
14.0439
 20
1.15576
 11
14.3613
 21
1.35724
  0
LINE
  8
0
 10
14.3613
 20
1.35724
 11
14.7189
 21
1.47342
  0
LINE
  8
0
 10
14.7189
 20
1.47342
 11
15.0942
 21
1.49704
  0
LINE
  8
0
 10
15.0942
 20
1.49704
 11
15.4635
 21
1.42657
  0
LINE
  8
0
 10
15.4635
 20
1.42657
 11
15.8037
 21
1.26648
  0
LINE
  8
0
 10
15.8037
 20
1.26648
 11
16.0934
 21
1.02681
  0
LINE
  8
0
 10
16.0934
 20
1.02681
 11
16.3145
 21
0.722626
  0
LINE
  8
0
 10
16.3145
 20
0.722626
 11
16.4529
 21
0.373032
  0
LINE
  8
0
 10
16.4529
 20
0.373032
 11
16.5
 21
0
  0
LINE
  8
0
 10
16.5
 20
0
 11
16.4529
 21
-0.373032
  0
LINE
  8
0
 10
16.4529
 20
-0.373032
 11
16.3145
 21
-0.722626
  0
LINE
  8
0
 10
16.3145
 20
-0.722626
 11
16.0934
 21
-1.02681
  0
LINE
  8
0
 10
16.0934
 20
-1.02681
 11
15.8037
 21
-1.26648
  0
LINE
  8
0
 10
15.8037
 20
-1.26648
 11
15.4635
 21
-1.42657
  0
LINE
  8
0
 10
15.4635
 20
-1.42657
 11
15.0942
 21
-1.49704
  0
LINE
  8
0
 10
15.0942
 20
-1.49704
 11
14.7189
 21
-1.47342
  0
LINE
  8
0
 10
-15.2811
 20
-1.47342
 11
-15.6387
 21
-1.35724
  0
LINE
  8
0
 10
-15.6387
 20
-1.35724
 11
-15.9561
 21
-1.15576
  0
LINE
  8
0
 10
-15.9561
 20
-1.15576
 11
-16.2135
 21
-0.881668
  0
LINE
  8
0
 10
-16.2135
 20
-0.881668
 11
-16.3947
 21
-0.552185
  0
LINE
  8
0
 10
-16.3947
 20
-0.552185
 11
-16.4882
 21
-0.187988
  0
LINE
  8
0
 10
-16.4882
 20
-0.187988
 11
-16.4882
 21
0.187988
  0
LINE
  8
0
 10
-16.4882
 20
0.187988
 11
-16.3947
 21
0.552185
  0
LINE
  8
0
 10
-16.3947
 20
0.552185
 11
-16.2135
 21
0.881668
  0
LINE
  8
0
 10
-16.2135
 20
0.881668
 11
-15.9561
 21
1.15576
  0
LINE
  8
0
 10
-15.9561
 20
1.15576
 11
-15.6387
 21
1.35724
  0
LINE
  8
0
 10
-15.6387
 20
1.35724
 11
-15.2811
 21
1.47342
  0
LINE
  8
0
 10
-15.2811
 20
1.47342
 11
-14.9058
 21
1.49704
  0
LINE
  8
0
 10
-14.9058
 20
1.49704
 11
-14.5365
 21
1.42657
  0
LINE
  8
0
 10
-14.5365
 20
1.42657
 11
-14.1963
 21
1.26648
  0
LINE
  8
0
 10
-14.1963
 20
1.26648
 11
-13.9065
 21
1.02681
  0
LINE
  8
0
 10
-13.9065
 20
1.02681
 11
-13.6855
 21
0.722626
  0
LINE
  8
0
 10
-13.6855
 20
0.722626
 11
-13.5471
 21
0.373032
  0
LINE
  8
0
 10
-13.5471
 20
0.373032
 11
-13.5
 21
0
  0
LINE
  8
0
 10
-13.5
 20
0
 11
-13.5471
 21
-0.373032
  0
LINE
  8
0
 10
-13.5471
 20
-0.373032
 11
-13.6855
 21
-0.722626
  0
LINE
  8
0
 10
-13.6855
 20
-0.722626
 11
-13.9065
 21
-1.02681
  0
LINE
  8
0
 10
-13.9065
 20
-1.02681
 11
-14.1963
 21
-1.26648
  0
LINE
  8
0
 10
-14.1963
 20
-1.26648
 11
-14.5365
 21
-1.42657
  0
LINE
  8
0
 10
-14.5365
 20
-1.42657
 11
-14.9058
 21
-1.49704
  0
LINE
  8
0
 10
-14.9058
 20
-1.49704
 11
-15.2811
 21
-1.47342
  0
LINE
  8
0
 10
-15.5621
 20
-17.9469
 11
-16.2773
 21
-17.7145
  0
LINE
  8
0
 10
-16.2773
 20
-17.7145
 11
-16.9123
 21
-17.3115
  0
LINE
  8
0
 10
-16.9123
 20
-17.3115
 11
-17.427
 21
-16.7634
  0
LINE
  8
0
 10
-17.427
 20
-16.7634
 11
-17.7893
 21
-16.1044
  0
LINE
  8
0
 10
-17.7893
 20
-16.1044
 11
-17.9763
 21
-15.376
  0
LINE
  8
0
 10
-17.9763
 20
-15.376
 11
-17.9763
 21
-14.624
  0
LINE
  8
0
 10
-17.9763
 20
-14.624
 11
-17.7893
 21
-13.8956
  0
LINE
  8
0
 10
-17.7893
 20
-13.8956
 11
-17.427
 21
-13.2366
  0
LINE
  8
0
 10
-17.427
 20
-13.2366
 11
-16.9123
 21
-12.6884
  0
LINE
  8
0
 10
-16.9123
 20
-12.6884
 11
-16.2773
 21
-12.2855
  0
LINE
  8
0
 10
-16.2773
 20
-12.2855
 11
-15.5621
 21
-12.0531
  0
LINE
  8
0
 10
-15.5621
 20
-12.0531
 11
-14.8116
 21
-12.0059
  0
LINE
  8
0
 10
-14.8116
 20
-12.0059
 11
-14.0729
 21
-12.1468
  0
LINE
  8
0
 10
-14.0729
 20
-12.1468
 11
-13.3925
 21
-12.467
  0
LINE
  8
0
 10
-13.3925
 20
-12.467
 11
-12.8131
 21
-12.9464
  0
LINE
  8
0
 10
-12.8131
 20
-12.9464
 11
-12.3711
 21
-13.5547
  0
LINE
  8
0
 10
-12.3711
 20
-13.5547
 11
-12.0942
 21
-14.2539
  0
LINE
  8
0
 10
-12.0942
 20
-14.2539
 11
-12
 21
-15
  0
LINE
  8
0
 10
-12
 20
-15
 11
-12.0942
 21
-15.7461
  0
LINE
  8
0
 10
-12.0942
 20
-15.7461
 11
-12.3711
 21
-16.4453
  0
LINE
  8
0
 10
-12.3711
 20
-16.4453
 11
-12.8131
 21
-17.0536
  0
LINE
  8
0
 10
-12.8131
 20
-17.0536
 11
-13.3925
 21
-17.533
  0
LINE
  8
0
 10
-13.3925
 20
-17.533
 11
-14.0729
 21
-17.8532
  0
LINE
  8
0
 10
-14.0729
 20
-17.8532
 11
-14.8116
 21
-17.9941
  0
LINE
  8
0
 10
-14.8116
 20
-17.9941
 11
-15.5621
 21
-17.9469
  0
LINE
  8
0
 10
14.4379
 20
-17.9469
 11
13.7227
 21
-17.7145
  0
LINE
  8
0
 10
13.7227
 20
-17.7145
 11
13.0877
 21
-17.3115
  0
LINE
  8
0
 10
13.0877
 20
-17.3115
 11
12.5729
 21
-16.7634
  0
LINE
  8
0
 10
12.5729
 20
-16.7634
 11
12.2107
 21
-16.1044
  0
LINE
  8
0
 10
12.2107
 20
-16.1044
 11
12.0237
 21
-15.376
  0
LINE
  8
0
 10
12.0237
 20
-15.376
 11
12.0237
 21
-14.624
  0
LINE
  8
0
 10
12.0237
 20
-14.624
 11
12.2107
 21
-13.8956
  0
LINE
  8
0
 10
12.2107
 20
-13.8956
 11
12.5729
 21
-13.2366
  0
LINE
  8
0
 10
12.5729
 20
-13.2366
 11
13.0877
 21
-12.6884
  0
LINE
  8
0
 10
13.0877
 20
-12.6884
 11
13.7227
 21
-12.2855
  0
LINE
  8
0
 10
13.7227
 20
-12.2855
 11
14.4379
 21
-12.0531
  0
LINE
  8
0
 10
14.4379
 20
-12.0531
 11
15.1884
 21
-12.0059
  0
LINE
  8
0
 10
15.1884
 20
-12.0059
 11
15.927
 21
-12.1468
  0
LINE
  8
0
 10
15.927
 20
-12.1468
 11
16.6075
 21
-12.467
  0
LINE
  8
0
 10
16.6075
 20
-12.467
 11
17.1869
 21
-12.9464
  0
LINE
  8
0
 10
17.1869
 20
-12.9464
 11
17.6289
 21
-13.5547
  0
LINE
  8
0
 10
17.6289
 20
-13.5547
 11
17.9057
 21
-14.2539
  0
LINE
  8
0
 10
17.9057
 20
-14.2539
 11
18
 21
-15
  0
LINE
  8
0
 10
18
 20
-15
 11
17.9057
 21
-15.7461
  0
LINE
  8
0
 10
17.9057
 20
-15.7461
 11
17.6289
 21
-16.4453
  0
LINE
  8
0
 10
17.6289
 20
-16.4453
 11
17.1869
 21
-17.0536
  0
LINE
  8
0
 10
17.1869
 20
-17.0536
 11
16.6075
 21
-17.533
  0
LINE
  8
0
 10
16.6075
 20
-17.533
 11
15.927
 21
-17.8532
  0
LINE
  8
0
 10
15.927
 20
-17.8532
 11
15.1884
 21
-17.9941
  0
LINE
  8
0
 10
15.1884
 20
-17.9941
 11
14.4379
 21
-17.9469
  0
ENDSEC
  0
SECTION
  2
OBJECTS
  0
DICTIONARY
  0
ENDSEC
  0
EOF
