<svg
xmlns:dc="http://purl.org/dc/elements/1.1/"
xmlns:cc="http://creativecommons.org/ns#"
xmlns:rdf="http://www.w3.org/1999/02/22-rdf-syntax-ns#"
xmlns:svg="http://www.w3.org/2000/svg"
xmlns="http://www.w3.org/2000/svg"
xmlns:xlink="http://www.w3.org/1999/xlink"
xmlns:sodipodi="http://sodipodi.sourceforge.net/DTD/sodipodi-0.dtd"
xmlns:inkscape="http://www.inkscape.org/namespaces/inkscape"
width="203mm"
height="43mm"
id="svg2"
version="1.1"
inkscape:version="0.48.1 "
sodipodi:docname="MultiLineTextINK.svg">
	<rect
		style="fill:none;stroke:#000000;stroke-width:2px " 
		x="5mm"
		y="5mm"
		rx="5mm"
		ry="5mm"
		width="193mm"
		height="33mm"
	/>
	<path 
	style="fill:none;stroke:#000000;stroke-width:0.564445573335591px " 
	d=
	"M10 14.5
	l0 -0.4015c-0.4553,-0.2635 -0.8349,-0.6432 -1.0984,-1.0985l-0.4016 0 0 -1.5 0 -1.5 0.4016 0c0.2635,-0.4553 0.6431,-0.835 1.0984,-1.0985l0 -0.4015 1.5 0 1.5 0 0 0.4015c0.4553,0.2635 0.8349,0.6432 1.0984,1.0985l0.4016 0 0 1.5 0 1.5 -0.4016 0c-0.2635,0.4553 -0.6431,0.835 -1.0984,1.0985l0 0.4015 -1.5 0 -1.5 0z"
	transform="scale(3.5433)"
	/>
	<path 
	style="fill:none;stroke:#000000;stroke-width:0.564445573335591px " 
	d=
	"M10 34.5
	l0 -0.4015c-0.4553,-0.2635 -0.8349,-0.6432 -1.0984,-1.0985l-0.4016 0 0 -1.5 0 -1.5 0.4016 0c0.2635,-0.4553 0.6431,-0.835 1.0984,-1.0985l0 -0.4015 1.5 0 1.5 0 0 0.4015c0.4553,0.2635 0.8349,0.6432 1.0984,1.0985l0.4016 0 0 1.5 0 1.5 -0.4016 0c-0.2635,0.4553 -0.6431,0.835 -1.0984,1.0985l0 0.4015 -1.5 0 -1.5 0z"
	transform="scale(3.5433)"
	/>
	<path 
	style="fill:none;stroke:#000000;stroke-width:0.564445573335591px " 
	d=
	"M30 14.5
	l0 -0.4015c-0.4553,-0.2635 -0.8349,-0.6432 -1.0984,-1.0985l-0.4016 0 0 -1.5 0 -1.5 0.4016 0c0.2635,-0.4553 0.6431,-0.835 1.0984,-1.0985l0 -0.4015 1.5 0 1.5 0 0 0.4015c0.4553,0.2635 0.8349,0.6432 1.0984,1.0985l0.4016 0 0 1.5 0 1.5 -0.4016 0c-0.2635,0.4553 -0.6431,0.835 -1.0984,1.0985l0 0.4015 -1.5 0 -1.5 0z"
	transform="scale(3.5433)"
	/>
	<path 
	style="fill:none;stroke:#000000;stroke-width:0.564445573335591px " 
	d=
	"M30 34.5
	l0 -0.4015c-0.4553,-0.2635 -0.8349,-0.6432 -1.0984,-1.0985l-0.4016 0 0 -1.5 0 -1.5 0.4016 0c0.2635,-0.4553 0.6431,-0.835 1.0984,-1.0985l0 -0.4015 1.5 0 1.5 0 0 0.4015c0.4553,0.2635 0.8349,0.6432 1.0984,1.0985l0.4016 0 0 1.5 0 1.5 -0.4016 0c-0.2635,0.4553 -0.6431,0.835 -1.0984,1.0985l0 0.4015 -1.5 0 -1.5 0z"
	transform="scale(3.5433)"
	/>
	<path 
	style="fill:none;stroke:#000000;stroke-width:0.564445573335591px " 
	d=
	"M50 14.5
	l0 -0.4015c-0.4553,-0.2635 -0.8349,-0.6432 -1.0984,-1.0985l-0.4016 0 0 -1.5 0 -1.5 0.4016 0c0.2635,-0.4553 0.6431,-0.835 1.0984,-1.0985l0 -0.4015 1.5 0 1.5 0 0 0.4015c0.4553,0.2635 0.8349,0.6432 1.0984,1.0985l0.4016 0 0 1.5 0 1.5 -0.4016 0c-0.2635,0.4553 -0.6431,0.835 -1.0984,1.0985l0 0.4015 -1.5 0 -1.5 0z"
	transform="scale(3.5433)"
	/>
	<path 
	style="fill:none;stroke:#000000;stroke-width:0.564445573335591px " 
	d=
	"M50 34.5
	l0 -0.4015c-0.4553,-0.2635 -0.8349,-0.6432 -1.0984,-1.0985l-0.4016 0 0 -1.5 0 -1.5 0.4016 0c0.2635,-0.4553 0.6431,-0.835 1.0984,-1.0985l0 -0.4015 1.5 0 1.5 0 0 0.4015c0.4553,0.2635 0.8349,0.6432 1.0984,1.0985l0.4016 0 0 1.5 0 1.5 -0.4016 0c-0.2635,0.4553 -0.6431,0.835 -1.0984,1.0985l0 0.4015 -1.5 0 -1.5 0z"
	transform="scale(3.5433)"
	/>
	<path 
	style="fill:none;stroke:#000000;stroke-width:0.564445573335591px " 
	d=
	"M70 14.5
	l0 -0.4015c-0.4553,-0.2635 -0.8349,-0.6432 -1.0984,-1.0985l-0.4016 0 0 -1.5 0 -1.5 0.4016 0c0.2635,-0.4553 0.6431,-0.835 1.0984,-1.0985l0 -0.4015 1.5 0 1.5 0 0 0.4015c0.4553,0.2635 0.8349,0.6432 1.0984,1.0985l0.4016 0 0 1.5 0 1.5 -0.4016 0c-0.2635,0.4553 -0.6431,0.835 -1.0984,1.0985l0 0.4015 -1.5 0 -1.5 0z"
	transform="scale(3.5433)"
	/>
	<path 
	style="fill:none;stroke:#000000;stroke-width:0.564445573335591px " 
	d=
	"M70 34.5
	l0 -0.4015c-0.4553,-0.2635 -0.8349,-0.6432 -1.0984,-1.0985l-0.4016 0 0 -1.5 0 -1.5 0.4016 0c0.2635,-0.4553 0.6431,-0.835 1.0984,-1.0985l0 -0.4015 1.5 0 1.5 0 0 0.4015c0.4553,0.2635 0.8349,0.6432 1.0984,1.0985l0.4016 0 0 1.5 0 1.5 -0.4016 0c-0.2635,0.4553 -0.6431,0.835 -1.0984,1.0985l0 0.4015 -1.5 0 -1.5 0z"
	transform="scale(3.5433)"
	/>
	<path 
	style="fill:none;stroke:#000000;stroke-width:0.564445573335591px " 
	d=
	"M90 14.5
	l0 -0.4015c-0.4553,-0.2635 -0.8349,-0.6432 -1.0984,-1.0985l-0.4016 0 0 -1.5 0 -1.5 0.4016 0c0.2635,-0.4553 0.6431,-0.835 1.0984,-1.0985l0 -0.4015 1.5 0 1.5 0 0 0.4015c0.4553,0.2635 0.8349,0.6432 1.0984,1.0985l0.4016 0 0 1.5 0 1.5 -0.4016 0c-0.2635,0.4553 -0.6431,0.835 -1.0984,1.0985l0 0.4015 -1.5 0 -1.5 0z"
	transform="scale(3.5433)"
	/>
	<path 
	style="fill:none;stroke:#000000;stroke-width:0.564445573335591px " 
	d=
	"M90 34.5
	l0 -0.4015c-0.4553,-0.2635 -0.8349,-0.6432 -1.0984,-1.0985l-0.4016 0 0 -1.5 0 -1.5 0.4016 0c0.2635,-0.4553 0.6431,-0.835 1.0984,-1.0985l0 -0.4015 1.5 0 1.5 0 0 0.4015c0.4553,0.2635 0.8349,0.6432 1.0984,1.0985l0.4016 0 0 1.5 0 1.5 -0.4016 0c-0.2635,0.4553 -0.6431,0.835 -1.0984,1.0985l0 0.4015 -1.5 0 -1.5 0z"
	transform="scale(3.5433)"
	/>
	<path 
	style="fill:none;stroke:#000000;stroke-width:0.564445573335591px " 
	d=
	"M110 14.5
	l0 -0.4015c-0.4553,-0.2635 -0.8349,-0.6432 -1.0984,-1.0985l-0.4016 0 0 -1.5 0 -1.5 0.4016 0c0.2635,-0.4553 0.6431,-0.835 1.0984,-1.0985l0 -0.4015 1.5 0 1.5 0 0 0.4015c0.4553,0.2635 0.8349,0.6432 1.0984,1.0985l0.4016 0 0 1.5 0 1.5 -0.4016 0c-0.2635,0.4553 -0.6431,0.835 -1.0984,1.0985l0 0.4015 -1.5 0 -1.5 0z"
	transform="scale(3.5433)"
	/>
	<path 
	style="fill:none;stroke:#000000;stroke-width:0.564445573335591px " 
	d=
	"M110 34.5
	l0 -0.4015c-0.4553,-0.2635 -0.8349,-0.6432 -1.0984,-1.0985l-0.4016 0 0 -1.5 0 -1.5 0.4016 0c0.2635,-0.4553 0.6431,-0.835 1.0984,-1.0985l0 -0.4015 1.5 0 1.5 0 0 0.4015c0.4553,0.2635 0.8349,0.6432 1.0984,1.0985l0.4016 0 0 1.5 0 1.5 -0.4016 0c-0.2635,0.4553 -0.6431,0.835 -1.0984,1.0985l0 0.4015 -1.5 0 -1.5 0z"
	transform="scale(3.5433)"
	/>
	<path 
	style="fill:none;stroke:#000000;stroke-width:0.564445573335591px " 
	d=
	"M130 14.5
	l0 -0.4015c-0.4553,-0.2635 -0.8349,-0.6432 -1.0984,-1.0985l-0.4016 0 0 -1.5 0 -1.5 0.4016 0c0.2635,-0.4553 0.6431,-0.835 1.0984,-1.0985l0 -0.4015 1.5 0 1.5 0 0 0.4015c0.4553,0.2635 0.8349,0.6432 1.0984,1.0985l0.4016 0 0 1.5 0 1.5 -0.4016 0c-0.2635,0.4553 -0.6431,0.835 -1.0984,1.0985l0 0.4015 -1.5 0 -1.5 0z"
	transform="scale(3.5433)"
	/>
	<path 
	style="fill:none;stroke:#000000;stroke-width:0.564445573335591px " 
	d=
	"M130 34.5
	l0 -0.4015c-0.4553,-0.2635 -0.8349,-0.6432 -1.0984,-1.0985l-0.4016 0 0 -1.5 0 -1.5 0.4016 0c0.2635,-0.4553 0.6431,-0.835 1.0984,-1.0985l0 -0.4015 1.5 0 1.5 0 0 0.4015c0.4553,0.2635 0.8349,0.6432 1.0984,1.0985l0.4016 0 0 1.5 0 1.5 -0.4016 0c-0.2635,0.4553 -0.6431,0.835 -1.0984,1.0985l0 0.4015 -1.5 0 -1.5 0z"
	transform="scale(3.5433)"
	/>
	<path 
	style="fill:none;stroke:#000000;stroke-width:0.564445573335591px " 
	d=
	"M150 14.5
	l0 -0.4015c-0.4553,-0.2635 -0.8349,-0.6432 -1.0984,-1.0985l-0.4016 0 0 -1.5 0 -1.5 0.4016 0c0.2635,-0.4553 0.6431,-0.835 1.0984,-1.0985l0 -0.4015 1.5 0 1.5 0 0 0.4015c0.4553,0.2635 0.8349,0.6432 1.0984,1.0985l0.4016 0 0 1.5 0 1.5 -0.4016 0c-0.2635,0.4553 -0.6431,0.835 -1.0984,1.0985l0 0.4015 -1.5 0 -1.5 0z"
	transform="scale(3.5433)"
	/>
	<path 
	style="fill:none;stroke:#000000;stroke-width:0.564445573335591px " 
	d=
	"M150 34.5
	l0 -0.4015c-0.4553,-0.2635 -0.8349,-0.6432 -1.0984,-1.0985l-0.4016 0 0 -1.5 0 -1.5 0.4016 0c0.2635,-0.4553 0.6431,-0.835 1.0984,-1.0985l0 -0.4015 1.5 0 1.5 0 0 0.4015c0.4553,0.2635 0.8349,0.6432 1.0984,1.0985l0.4016 0 0 1.5 0 1.5 -0.4016 0c-0.2635,0.4553 -0.6431,0.835 -1.0984,1.0985l0 0.4015 -1.5 0 -1.5 0z"
	transform="scale(3.5433)"
	/>
	<path 
	style="fill:none;stroke:#000000;stroke-width:0.564445573335591px " 
	d=
	"M170 14.5
	l0 -0.4015c-0.4553,-0.2635 -0.8349,-0.6432 -1.0984,-1.0985l-0.4016 0 0 -1.5 0 -1.5 0.4016 0c0.2635,-0.4553 0.6431,-0.835 1.0984,-1.0985l0 -0.4015 1.5 0 1.5 0 0 0.4015c0.4553,0.2635 0.8349,0.6432 1.0984,1.0985l0.4016 0 0 1.5 0 1.5 -0.4016 0c-0.2635,0.4553 -0.6431,0.835 -1.0984,1.0985l0 0.4015 -1.5 0 -1.5 0z"
	transform="scale(3.5433)"
	/>
	<path 
	style="fill:none;stroke:#000000;stroke-width:0.564445573335591px " 
	d=
	"M170 34.5
	l0 -0.4015c-0.4553,-0.2635 -0.8349,-0.6432 -1.0984,-1.0985l-0.4016 0 0 -1.5 0 -1.5 0.4016 0c0.2635,-0.4553 0.6431,-0.835 1.0984,-1.0985l0 -0.4015 1.5 0 1.5 0 0 0.4015c0.4553,0.2635 0.8349,0.6432 1.0984,1.0985l0.4016 0 0 1.5 0 1.5 -0.4016 0c-0.2635,0.4553 -0.6431,0.835 -1.0984,1.0985l0 0.4015 -1.5 0 -1.5 0z"
	transform="scale(3.5433)"
	/>
	<path 
	style="fill:none;stroke:#000000;stroke-width:0.564445573335591px " 
	d=
	"M190 14.5
	l0 -0.4015c-0.4553,-0.2635 -0.8349,-0.6432 -1.0984,-1.0985l-0.4016 0 0 -1.5 0 -1.5 0.4016 0c0.2635,-0.4553 0.6431,-0.835 1.0984,-1.0985l0 -0.4015 1.5 0 1.5 0 0 0.4015c0.4553,0.2635 0.8349,0.6432 1.0984,1.0985l0.4016 0 0 1.5 0 1.5 -0.4016 0c-0.2635,0.4553 -0.6431,0.835 -1.0984,1.0985l0 0.4015 -1.5 0 -1.5 0z"
	transform="scale(3.5433)"
	/>
	<path 
	style="fill:none;stroke:#000000;stroke-width:0.564445573335591px " 
	d=
	"M190 34.5
	l0 -0.4015c-0.4553,-0.2635 -0.8349,-0.6432 -1.0984,-1.0985l-0.4016 0 0 -1.5 0 -1.5 0.4016 0c0.2635,-0.4553 0.6431,-0.835 1.0984,-1.0985l0 -0.4015 1.5 0 1.5 0 0 0.4015c0.4553,0.2635 0.8349,0.6432 1.0984,1.0985l0.4016 0 0 1.5 0 1.5 -0.4016 0c-0.2635,0.4553 -0.6431,0.835 -1.0984,1.0985l0 0.4015 -1.5 0 -1.5 0z"
	transform="scale(3.5433)"
	/>
	<rect
		style="fill:none;stroke:#000000;stroke-width:2px " 
		x="10mm"
		y="18.5mm"
		width="3mm"
		height="6mm"
		id="oomID566"
	/>
	<rect
		style="fill:none;stroke:#000000;stroke-width:2px " 
		x="30mm"
		y="18.5mm"
		width="3mm"
		height="6mm"
		id="oomID567"
	/>
	<rect
		style="fill:none;stroke:#000000;stroke-width:2px " 
		x="50mm"
		y="18.5mm"
		width="3mm"
		height="6mm"
		id="oomID568"
	/>
	<rect
		style="fill:none;stroke:#000000;stroke-width:2px " 
		x="70mm"
		y="18.5mm"
		width="3mm"
		height="6mm"
		id="oomID569"
	/>
	<rect
		style="fill:none;stroke:#000000;stroke-width:2px " 
		x="90mm"
		y="18.5mm"
		width="3mm"
		height="6mm"
		id="oomID570"
	/>
	<rect
		style="fill:none;stroke:#000000;stroke-width:2px " 
		x="110mm"
		y="18.5mm"
		width="3mm"
		height="6mm"
		id="oomID571"
	/>
	<rect
		style="fill:none;stroke:#000000;stroke-width:2px " 
		x="130mm"
		y="18.5mm"
		width="3mm"
		height="6mm"
		id="oomID572"
	/>
	<rect
		style="fill:none;stroke:#000000;stroke-width:2px " 
		x="150mm"
		y="18.5mm"
		width="3mm"
		height="6mm"
		id="oomID573"
	/>
	<rect
		style="fill:none;stroke:#000000;stroke-width:2px " 
		x="170mm"
		y="18.5mm"
		width="3mm"
		height="6mm"
		id="oomID574"
	/>
	<rect
		style="fill:none;stroke:#000000;stroke-width:2px " 
		x="190mm"
		y="18.5mm"
		width="3mm"
		height="6mm"
		id="oomID575"
	/>
	<rect
		style="fill:none;stroke:#000000;stroke-width:2px " 
		x="18.5mm"
		y="30mm"
		width="6mm"
		height="3mm"
		id="oomID576"
	/>
	<rect
		style="fill:none;stroke:#000000;stroke-width:2px " 
		x="18.5mm"
		y="10mm"
		width="6mm"
		height="3mm"
		id="oomID577"
	/>
	<rect
		style="fill:none;stroke:#000000;stroke-width:2px " 
		x="38.5mm"
		y="30mm"
		width="6mm"
		height="3mm"
		id="oomID578"
	/>
	<rect
		style="fill:none;stroke:#000000;stroke-width:2px " 
		x="38.5mm"
		y="10mm"
		width="6mm"
		height="3mm"
		id="oomID579"
	/>
	<rect
		style="fill:none;stroke:#000000;stroke-width:2px " 
		x="58.5mm"
		y="30mm"
		width="6mm"
		height="3mm"
		id="oomID580"
	/>
	<rect
		style="fill:none;stroke:#000000;stroke-width:2px " 
		x="58.5mm"
		y="10mm"
		width="6mm"
		height="3mm"
		id="oomID581"
	/>
	<rect
		style="fill:none;stroke:#000000;stroke-width:2px " 
		x="78.5mm"
		y="30mm"
		width="6mm"
		height="3mm"
		id="oomID582"
	/>
	<rect
		style="fill:none;stroke:#000000;stroke-width:2px " 
		x="78.5mm"
		y="10mm"
		width="6mm"
		height="3mm"
		id="oomID583"
	/>
	<rect
		style="fill:none;stroke:#000000;stroke-width:2px " 
		x="98.5mm"
		y="30mm"
		width="6mm"
		height="3mm"
		id="oomID584"
	/>
	<rect
		style="fill:none;stroke:#000000;stroke-width:2px " 
		x="98.5mm"
		y="10mm"
		width="6mm"
		height="3mm"
		id="oomID585"
	/>
	<rect
		style="fill:none;stroke:#000000;stroke-width:2px " 
		x="118.5mm"
		y="30mm"
		width="6mm"
		height="3mm"
		id="oomID586"
	/>
	<rect
		style="fill:none;stroke:#000000;stroke-width:2px " 
		x="118.5mm"
		y="10mm"
		width="6mm"
		height="3mm"
		id="oomID587"
	/>
	<rect
		style="fill:none;stroke:#000000;stroke-width:2px " 
		x="138.5mm"
		y="30mm"
		width="6mm"
		height="3mm"
		id="oomID588"
	/>
	<rect
		style="fill:none;stroke:#000000;stroke-width:2px " 
		x="138.5mm"
		y="10mm"
		width="6mm"
		height="3mm"
		id="oomID589"
	/>
	<rect
		style="fill:none;stroke:#000000;stroke-width:2px " 
		x="158.5mm"
		y="30mm"
		width="6mm"
		height="3mm"
		id="oomID590"
	/>
	<rect
		style="fill:none;stroke:#000000;stroke-width:2px " 
		x="158.5mm"
		y="10mm"
		width="6mm"
		height="3mm"
		id="oomID591"
	/>
	<rect
		style="fill:none;stroke:#000000;stroke-width:2px " 
		x="178.5mm"
		y="30mm"
		width="6mm"
		height="3mm"
		id="oomID592"
	/>
	<rect
		style="fill:none;stroke:#000000;stroke-width:2px " 
		x="178.5mm"
		y="10mm"
		width="6mm"
		height="3mm"
		id="oomID593"
	/>
	<text x="21.5mm" y="21.5mm"
	style="text-anchor: middle; text-align: center; font-family: ENG_HelvLine; -inkscape-font-specification: ENG_HelvLine; font-size: 12pt; fill:none; font-style:normal;font-weight:normal;line-height:100%;letter-spacing:0px;word-spacing:0px;fill-opacity:1;stroke:#FFA500"
	><tspan sodipodi:role="line">PL</tspan><tspan sodipodi:role="line">10-02</tspan></text>
</svg>
