<?xml version="1.0" standalone="no"?>
<!DOCTYPE svg PUBLIC "-//W3C//DTD SVG 1.1//EN" "http://www.w3.org/Graphics/SVG/1.1/DTD/svg11.dtd">
<svg width="88mm" height="28mm" viewBox="-44 -14 88 28" xmlns="http://www.w3.org/2000/svg" version="1.1">
<title>OpenSCAD Model</title>
<path d="
M 39.7435,13.3429 L 40.9088,12.8815 L 41.9227,12.1448 L 42.7216,11.1791 L 43.2553,10.0451 L 43.5,8.5
 L 43.5,-8.5 L 43.3429,-9.74345 L 42.8815,-10.9088 L 42.1448,-11.9227 L 41.1791,-12.7216 L 40.0451,-13.2553
 L 38.5,-13.5 L -38.5,-13.5 L -39.7435,-13.3429 L -40.9088,-12.8815 L -41.9227,-12.1448 L -42.7216,-11.1791
 L -43.2553,-10.0451 L -43.5,-8.5 L -43.5,8.5 L -43.3429,9.74345 L -42.8815,10.9088 L -42.1448,11.9227
 L -41.1791,12.7216 L -40.0451,13.2553 L -38.5,13.5 L 38.5,13.5 z
M -23.0621,-4.55313 L -23.7773,-4.78551 L -24.4123,-5.18845 L -24.927,-5.73663 L -25.2893,-6.39561 L -25.4763,-7.12399
 L -25.4763,-7.87599 L -25.2893,-8.60437 L -24.927,-9.26335 L -24.4123,-9.81154 L -23.7773,-10.2145 L -23.0621,-10.4469
 L -22.3116,-10.4941 L -21.5729,-10.3532 L -20.8925,-10.033 L -20.3131,-9.55363 L -19.8711,-8.94525 L -19.5942,-8.24606
 L -19.5,-7.5 L -19.5942,-6.75392 L -19.8711,-6.05473 L -20.3131,-5.44635 L -20.8925,-4.96701 L -21.5729,-4.64682
 L -22.3116,-4.50591 z
M 6.93785,-4.55313 L 6.22266,-4.78551 L 5.58772,-5.18845 L 5.07294,-5.73663 L 4.71066,-6.39561 L 4.52365,-7.12399
 L 4.52365,-7.87599 L 4.71066,-8.60437 L 5.07294,-9.26335 L 5.58772,-9.81154 L 6.22266,-10.2145 L 6.93785,-10.4469
 L 7.68837,-10.4941 L 8.42705,-10.3532 L 9.10747,-10.033 L 9.6869,-9.55363 L 10.1289,-8.94525 L 10.4057,-8.24606
 L 10.5,-7.5 L 10.4057,-6.75392 L 10.1289,-6.05473 L 9.6869,-5.44635 L 9.10747,-4.96701 L 8.42705,-4.64682
 L 7.68837,-4.50591 z
M -38.0621,-4.55313 L -38.7773,-4.78551 L -39.4123,-5.18845 L -39.927,-5.73663 L -40.2893,-6.39561 L -40.4763,-7.12399
 L -40.4763,-7.87599 L -40.2893,-8.60437 L -39.927,-9.26335 L -39.4123,-9.81154 L -38.7773,-10.2145 L -38.0621,-10.4469
 L -37.3116,-10.4941 L -36.5729,-10.3532 L -35.8925,-10.033 L -35.3131,-9.55363 L -34.8711,-8.94525 L -34.5942,-8.24606
 L -34.5,-7.5 L -34.5942,-6.75392 L -34.8711,-6.05473 L -35.3131,-5.44635 L -35.8925,-4.96701 L -36.5729,-4.64682
 L -37.3116,-4.50591 z
M 36.9379,-4.55313 L 36.2227,-4.78551 L 35.5877,-5.18845 L 35.0729,-5.73663 L 34.7107,-6.39561 L 34.5237,-7.12399
 L 34.5237,-7.87599 L 34.7107,-8.60437 L 35.0729,-9.26335 L 35.5877,-9.81154 L 36.2227,-10.2145 L 36.9379,-10.4469
 L 37.6884,-10.4941 L 38.427,-10.3532 L 39.1075,-10.033 L 39.6869,-9.55363 L 40.1289,-8.94525 L 40.4057,-8.24606
 L 40.5,-7.5 L 40.4057,-6.75392 L 40.1289,-6.05473 L 39.6869,-5.44635 L 39.1075,-4.96701 L 38.427,-4.64682
 L 37.6884,-4.50591 z
M 21.9379,-4.55313 L 21.2227,-4.78551 L 20.5877,-5.18845 L 20.0729,-5.73663 L 19.7107,-6.39561 L 19.5237,-7.12399
 L 19.5237,-7.87599 L 19.7107,-8.60437 L 20.0729,-9.26335 L 20.5877,-9.81154 L 21.2227,-10.2145 L 21.9379,-10.4469
 L 22.6884,-10.4941 L 23.427,-10.3532 L 24.1075,-10.033 L 24.6869,-9.55363 L 25.1289,-8.94525 L 25.4057,-8.24606
 L 25.5,-7.5 L 25.4057,-6.75392 L 25.1289,-6.05473 L 24.6869,-5.44635 L 24.1075,-4.96701 L 23.427,-4.64682
 L 22.6884,-4.50591 z
M -8.06213,-4.55313 L -8.77733,-4.78551 L -9.41226,-5.18845 L -9.92705,-5.73663 L -10.2893,-6.39561 L -10.4763,-7.12399
 L -10.4763,-7.87599 L -10.2893,-8.60437 L -9.92705,-9.26335 L -9.41226,-9.81154 L -8.77733,-10.2145 L -8.06213,-10.4469
 L -7.31161,-10.4941 L -6.57294,-10.3532 L -5.89252,-10.033 L -5.31308,-9.55363 L -4.87108,-8.94525 L -4.59424,-8.24606
 L -4.5,-7.5 L -4.59424,-6.75392 L -4.87108,-6.05473 L -5.31308,-5.44635 L -5.89252,-4.96701 L -6.57294,-4.64682
 L -7.31161,-4.50591 z
M -38.0621,10.4469 L -38.7773,10.2145 L -39.4123,9.81154 L -39.927,9.26335 L -40.2893,8.60437 L -40.4763,7.87599
 L -40.4763,7.12399 L -40.2893,6.39561 L -39.927,5.73663 L -39.4123,5.18845 L -38.7773,4.78551 L -38.0621,4.55313
 L -37.3116,4.50591 L -36.5729,4.64682 L -35.8925,4.96701 L -35.3131,5.44635 L -34.8711,6.05473 L -34.5942,6.75392
 L -34.5,7.5 L -34.5942,8.24606 L -34.8711,8.94525 L -35.3131,9.55363 L -35.8925,10.033 L -36.5729,10.3532
 L -37.3116,10.4941 z
M 6.93785,10.4469 L 6.22266,10.2145 L 5.58772,9.81154 L 5.07294,9.26335 L 4.71066,8.60437 L 4.52365,7.87599
 L 4.52365,7.12399 L 4.71066,6.39561 L 5.07294,5.73663 L 5.58772,5.18845 L 6.22266,4.78551 L 6.93785,4.55313
 L 7.68837,4.50591 L 8.42705,4.64682 L 9.10747,4.96701 L 9.6869,5.44635 L 10.1289,6.05473 L 10.4057,6.75392
 L 10.5,7.5 L 10.4057,8.24606 L 10.1289,8.94525 L 9.6869,9.55363 L 9.10747,10.033 L 8.42705,10.3532
 L 7.68837,10.4941 z
M -23.0621,10.4469 L -23.7773,10.2145 L -24.4123,9.81154 L -24.927,9.26335 L -25.2893,8.60437 L -25.4763,7.87599
 L -25.4763,7.12399 L -25.2893,6.39561 L -24.927,5.73663 L -24.4123,5.18845 L -23.7773,4.78551 L -23.0621,4.55313
 L -22.3116,4.50591 L -21.5729,4.64682 L -20.8925,4.96701 L -20.3131,5.44635 L -19.8711,6.05473 L -19.5942,6.75392
 L -19.5,7.5 L -19.5942,8.24606 L -19.8711,8.94525 L -20.3131,9.55363 L -20.8925,10.033 L -21.5729,10.3532
 L -22.3116,10.4941 z
M 21.9379,10.4469 L 21.2227,10.2145 L 20.5877,9.81154 L 20.0729,9.26335 L 19.7107,8.60437 L 19.5237,7.87599
 L 19.5237,7.12399 L 19.7107,6.39561 L 20.0729,5.73663 L 20.5877,5.18845 L 21.2227,4.78551 L 21.9379,4.55313
 L 22.6884,4.50591 L 23.427,4.64682 L 24.1075,4.96701 L 24.6869,5.44635 L 25.1289,6.05473 L 25.4057,6.75392
 L 25.5,7.5 L 25.4057,8.24606 L 25.1289,8.94525 L 24.6869,9.55363 L 24.1075,10.033 L 23.427,10.3532
 L 22.6884,10.4941 z
M 36.9379,10.4469 L 36.2227,10.2145 L 35.5877,9.81154 L 35.0729,9.26335 L 34.7107,8.60437 L 34.5237,7.87599
 L 34.5237,7.12399 L 34.7107,6.39561 L 35.0729,5.73663 L 35.5877,5.18845 L 36.2227,4.78551 L 36.9379,4.55313
 L 37.6884,4.50591 L 38.427,4.64682 L 39.1075,4.96701 L 39.6869,5.44635 L 40.1289,6.05473 L 40.4057,6.75392
 L 40.5,7.5 L 40.4057,8.24606 L 40.1289,8.94525 L 39.6869,9.55363 L 39.1075,10.033 L 38.427,10.3532
 L 37.6884,10.4941 z
M -8.06213,10.4469 L -8.77733,10.2145 L -9.41226,9.81154 L -9.92705,9.26335 L -10.2893,8.60437 L -10.4763,7.87599
 L -10.4763,7.12399 L -10.2893,6.39561 L -9.92705,5.73663 L -9.41226,5.18845 L -8.77733,4.78551 L -8.06213,4.55313
 L -7.31161,4.50591 L -6.57294,4.64682 L -5.89252,4.96701 L -5.31308,5.44635 L -4.87108,6.05473 L -4.59424,6.75392
 L -4.5,7.5 L -4.59424,8.24606 L -4.87108,8.94525 L -5.31308,9.55363 L -5.89252,10.033 L -6.57294,10.3532
 L -7.31161,10.4941 z
" stroke="black" fill="lightgray" stroke-width="0.5"/>
</svg>
