<?xml version="1.0" standalone="no"?>
<!DOCTYPE svg PUBLIC "-//W3C//DTD SVG 1.1//EN" "http://www.w3.org/Graphics/SVG/1.1/DTD/svg11.dtd">
<svg width="87mm" height="27mm" viewBox="9 -36 87 27" xmlns="http://www.w3.org/2000/svg" version="1.1">
<title>OpenSCAD Model</title>
<path d="
M 91,-9.00986 L 91.3139,-9.00986 L 91.9369,-9.08856 L 92.5451,-9.24471 L 93.1289,-9.47586 L 93.6791,-9.77835
 L 94.1871,-10.1474 L 94.6448,-10.5773 L 95.0451,-11.0611 L 95.3815,-11.5912 L 95.6489,-12.1594 L 95.8429,-12.7565
 L 95.9606,-13.3733 L 96,-14 L 96,-31 L 95.9606,-31.6267 L 95.8429,-32.2434 L 95.6489,-32.8406
 L 95.3815,-33.4088 L 95.0451,-33.9389 L 94.6448,-34.4227 L 94.1871,-34.8526 L 93.6791,-35.2216 L 93.1289,-35.5241
 L 92.5451,-35.7553 L 91.9369,-35.9114 L 91.3139,-35.9901 L 91,-35.9901 L 91,-36 L 14,-36
 L 14,-35.9901 L 13.686,-35.9901 L 13.0631,-35.9114 L 12.4549,-35.7553 L 11.8711,-35.5241 L 11.3209,-35.2216
 L 10.8129,-34.8526 L 10.3551,-34.4227 L 9.95491,-33.9389 L 9.61845,-33.4088 L 9.3511,-32.8406 L 9.15707,-32.2434
 L 9.03941,-31.6267 L 9,-31 L 9,-14 L 9.03941,-13.3733 L 9.15707,-12.7565 L 9.3511,-12.1594
 L 9.61845,-11.5912 L 9.95491,-11.0611 L 10.3551,-10.5773 L 10.8129,-10.1474 L 11.3209,-9.77835 L 11.8711,-9.47586
 L 12.4549,-9.24471 L 13.0631,-9.08856 L 13.686,-9.00986 L 14,-9.00986 L 14,-9 L 91,-9
 z
M 14.7959,-26.7564 L 14.391,-26.8076 L 13.9957,-26.9091 L 13.6162,-27.0593 L 13.2586,-27.2559 L 12.9284,-27.4958
 L 12.6308,-27.7752 L 12.3707,-28.0897 L 12.152,-28.4343 L 11.9782,-28.8036 L 11.8521,-29.1918 L 11.7756,-29.5927
 L 11.75,-30 L 11.7756,-30.4073 L 11.8521,-30.8082 L 11.9782,-31.1964 L 12.152,-31.5657 L 12.3707,-31.9103
 L 12.6308,-32.2248 L 12.9284,-32.5042 L 13.2586,-32.7441 L 13.6162,-32.9407 L 13.9957,-33.0909 L 14.391,-33.1924
 L 14.7959,-33.2436 L 15.2041,-33.2436 L 15.609,-33.1924 L 16.0043,-33.0909 L 16.3838,-32.9407 L 16.7414,-32.7441
 L 17.0716,-32.5042 L 17.3691,-32.2248 L 17.6293,-31.9103 L 17.848,-31.5657 L 18.0218,-31.1964 L 18.1479,-30.8082
 L 18.2244,-30.4073 L 18.25,-30 L 18.2244,-29.5927 L 18.1479,-29.1918 L 18.0218,-28.8036 L 17.848,-28.4343
 L 17.6293,-28.0897 L 17.3691,-27.7752 L 17.0716,-27.4958 L 16.7414,-27.2559 L 16.3838,-27.0593 L 16.0043,-26.9091
 L 15.609,-26.8076 L 15.2041,-26.7564 z
M 89.7959,-26.7564 L 89.391,-26.8076 L 88.9957,-26.9091 L 88.6162,-27.0593 L 88.2586,-27.2559 L 87.9284,-27.4958
 L 87.6308,-27.7752 L 87.3707,-28.0897 L 87.152,-28.4343 L 86.9782,-28.8036 L 86.8521,-29.1918 L 86.7756,-29.5927
 L 86.75,-30 L 86.7756,-30.4073 L 86.8521,-30.8082 L 86.9782,-31.1964 L 87.152,-31.5657 L 87.3707,-31.9103
 L 87.6308,-32.2248 L 87.9284,-32.5042 L 88.2586,-32.7441 L 88.6162,-32.9407 L 88.9957,-33.0909 L 89.391,-33.1924
 L 89.7959,-33.2436 L 90.2041,-33.2436 L 90.609,-33.1924 L 91.0043,-33.0909 L 91.3838,-32.9407 L 91.7414,-32.7441
 L 92.0716,-32.5042 L 92.3691,-32.2248 L 92.6293,-31.9103 L 92.848,-31.5657 L 93.0218,-31.1964 L 93.1479,-30.8082
 L 93.2244,-30.4073 L 93.25,-30 L 93.2244,-29.5927 L 93.1479,-29.1918 L 93.0218,-28.8036 L 92.848,-28.4343
 L 92.6293,-28.0897 L 92.3691,-27.7752 L 92.0716,-27.4958 L 91.7414,-27.2559 L 91.3838,-27.0593 L 91.0043,-26.9091
 L 90.609,-26.8076 L 90.2041,-26.7564 z
M 74.7959,-26.7564 L 74.391,-26.8076 L 73.9957,-26.9091 L 73.6162,-27.0593 L 73.2586,-27.2559 L 72.9284,-27.4958
 L 72.6308,-27.7752 L 72.3707,-28.0897 L 72.152,-28.4343 L 71.9782,-28.8036 L 71.8521,-29.1918 L 71.7756,-29.5927
 L 71.75,-30 L 71.7756,-30.4073 L 71.8521,-30.8082 L 71.9782,-31.1964 L 72.152,-31.5657 L 72.3707,-31.9103
 L 72.6308,-32.2248 L 72.9284,-32.5042 L 73.2586,-32.7441 L 73.6162,-32.9407 L 73.9957,-33.0909 L 74.391,-33.1924
 L 74.7959,-33.2436 L 75.2041,-33.2436 L 75.609,-33.1924 L 76.0043,-33.0909 L 76.3838,-32.9407 L 76.7414,-32.7441
 L 77.0716,-32.5042 L 77.3691,-32.2248 L 77.6293,-31.9103 L 77.848,-31.5657 L 78.0218,-31.1964 L 78.1479,-30.8082
 L 78.2244,-30.4073 L 78.25,-30 L 78.2244,-29.5927 L 78.1479,-29.1918 L 78.0218,-28.8036 L 77.848,-28.4343
 L 77.6293,-28.0897 L 77.3691,-27.7752 L 77.0716,-27.4958 L 76.7414,-27.2559 L 76.3838,-27.0593 L 76.0043,-26.9091
 L 75.609,-26.8076 L 75.2041,-26.7564 z
M 59.7959,-26.7564 L 59.391,-26.8076 L 58.9957,-26.9091 L 58.6162,-27.0593 L 58.2586,-27.2559 L 57.9284,-27.4958
 L 57.6308,-27.7752 L 57.3707,-28.0897 L 57.152,-28.4343 L 56.9782,-28.8036 L 56.8521,-29.1918 L 56.7756,-29.5927
 L 56.75,-30 L 56.7756,-30.4073 L 56.8521,-30.8082 L 56.9782,-31.1964 L 57.152,-31.5657 L 57.3707,-31.9103
 L 57.6308,-32.2248 L 57.9284,-32.5042 L 58.2586,-32.7441 L 58.6162,-32.9407 L 58.9957,-33.0909 L 59.391,-33.1924
 L 59.7959,-33.2436 L 60.2041,-33.2436 L 60.609,-33.1924 L 61.0043,-33.0909 L 61.3838,-32.9407 L 61.7414,-32.7441
 L 62.0716,-32.5042 L 62.3691,-32.2248 L 62.6293,-31.9103 L 62.848,-31.5657 L 63.0218,-31.1964 L 63.1479,-30.8082
 L 63.2244,-30.4073 L 63.25,-30 L 63.2244,-29.5927 L 63.1479,-29.1918 L 63.0218,-28.8036 L 62.848,-28.4343
 L 62.6293,-28.0897 L 62.3691,-27.7752 L 62.0716,-27.4958 L 61.7414,-27.2559 L 61.3838,-27.0593 L 61.0043,-26.9091
 L 60.609,-26.8076 L 60.2041,-26.7564 z
M 44.7959,-26.7564 L 44.391,-26.8076 L 43.9957,-26.9091 L 43.6162,-27.0593 L 43.2586,-27.2559 L 42.9284,-27.4958
 L 42.6308,-27.7752 L 42.3707,-28.0897 L 42.152,-28.4343 L 41.9782,-28.8036 L 41.8521,-29.1918 L 41.7756,-29.5927
 L 41.75,-30 L 41.7756,-30.4073 L 41.8521,-30.8082 L 41.9782,-31.1964 L 42.152,-31.5657 L 42.3707,-31.9103
 L 42.6308,-32.2248 L 42.9284,-32.5042 L 43.2586,-32.7441 L 43.6162,-32.9407 L 43.9957,-33.0909 L 44.391,-33.1924
 L 44.7959,-33.2436 L 45.2041,-33.2436 L 45.609,-33.1924 L 46.0043,-33.0909 L 46.3838,-32.9407 L 46.7414,-32.7441
 L 47.0716,-32.5042 L 47.3691,-32.2248 L 47.6293,-31.9103 L 47.848,-31.5657 L 48.0218,-31.1964 L 48.1479,-30.8082
 L 48.2244,-30.4073 L 48.25,-30 L 48.2244,-29.5927 L 48.1479,-29.1918 L 48.0218,-28.8036 L 47.848,-28.4343
 L 47.6293,-28.0897 L 47.3691,-27.7752 L 47.0716,-27.4958 L 46.7414,-27.2559 L 46.3838,-27.0593 L 46.0043,-26.9091
 L 45.609,-26.8076 L 45.2041,-26.7564 z
M 29.7959,-26.7564 L 29.391,-26.8076 L 28.9957,-26.9091 L 28.6162,-27.0593 L 28.2586,-27.2559 L 27.9284,-27.4958
 L 27.6308,-27.7752 L 27.3707,-28.0897 L 27.152,-28.4343 L 26.9782,-28.8036 L 26.8521,-29.1918 L 26.7756,-29.5927
 L 26.75,-30 L 26.7756,-30.4073 L 26.8521,-30.8082 L 26.9782,-31.1964 L 27.152,-31.5657 L 27.3707,-31.9103
 L 27.6308,-32.2248 L 27.9284,-32.5042 L 28.2586,-32.7441 L 28.6162,-32.9407 L 28.9957,-33.0909 L 29.391,-33.1924
 L 29.7959,-33.2436 L 30.2041,-33.2436 L 30.609,-33.1924 L 31.0043,-33.0909 L 31.3838,-32.9407 L 31.7414,-32.7441
 L 32.0716,-32.5042 L 32.3691,-32.2248 L 32.6293,-31.9103 L 32.848,-31.5657 L 33.0218,-31.1964 L 33.1479,-30.8082
 L 33.2244,-30.4073 L 33.25,-30 L 33.2244,-29.5927 L 33.1479,-29.1918 L 33.0218,-28.8036 L 32.848,-28.4343
 L 32.6293,-28.0897 L 32.3691,-27.7752 L 32.0716,-27.4958 L 31.7414,-27.2559 L 31.3838,-27.0593 L 31.0043,-26.9091
 L 30.609,-26.8076 L 30.2041,-26.7564 z
M 44.7959,-11.7564 L 44.391,-11.8076 L 43.9957,-11.9091 L 43.6162,-12.0593 L 43.2586,-12.2559 L 42.9284,-12.4958
 L 42.6308,-12.7752 L 42.3707,-13.0897 L 42.152,-13.4343 L 41.9782,-13.8036 L 41.8521,-14.1918 L 41.7756,-14.5927
 L 41.75,-15 L 41.7756,-15.4073 L 41.8521,-15.8082 L 41.9782,-16.1964 L 42.152,-16.5657 L 42.3707,-16.9103
 L 42.6308,-17.2248 L 42.9284,-17.5042 L 43.2586,-17.7441 L 43.6162,-17.9407 L 43.9957,-18.0909 L 44.391,-18.1924
 L 44.7959,-18.2436 L 45.2041,-18.2436 L 45.609,-18.1924 L 46.0043,-18.0909 L 46.3838,-17.9407 L 46.7414,-17.7441
 L 47.0716,-17.5042 L 47.3691,-17.2248 L 47.6293,-16.9103 L 47.848,-16.5657 L 48.0218,-16.1964 L 48.1479,-15.8082
 L 48.2244,-15.4073 L 48.25,-15 L 48.2244,-14.5927 L 48.1479,-14.1918 L 48.0218,-13.8036 L 47.848,-13.4343
 L 47.6293,-13.0897 L 47.3691,-12.7752 L 47.0716,-12.4958 L 46.7414,-12.2559 L 46.3838,-12.0593 L 46.0043,-11.9091
 L 45.609,-11.8076 L 45.2041,-11.7564 z
M 14.7959,-11.7564 L 14.391,-11.8076 L 13.9957,-11.9091 L 13.6162,-12.0593 L 13.2586,-12.2559 L 12.9284,-12.4958
 L 12.6308,-12.7752 L 12.3707,-13.0897 L 12.152,-13.4343 L 11.9782,-13.8036 L 11.8521,-14.1918 L 11.7756,-14.5927
 L 11.75,-15 L 11.7756,-15.4073 L 11.8521,-15.8082 L 11.9782,-16.1964 L 12.152,-16.5657 L 12.3707,-16.9103
 L 12.6308,-17.2248 L 12.9284,-17.5042 L 13.2586,-17.7441 L 13.6162,-17.9407 L 13.9957,-18.0909 L 14.391,-18.1924
 L 14.7959,-18.2436 L 15.2041,-18.2436 L 15.609,-18.1924 L 16.0043,-18.0909 L 16.3838,-17.9407 L 16.7414,-17.7441
 L 17.0716,-17.5042 L 17.3691,-17.2248 L 17.6293,-16.9103 L 17.848,-16.5657 L 18.0218,-16.1964 L 18.1479,-15.8082
 L 18.2244,-15.4073 L 18.25,-15 L 18.2244,-14.5927 L 18.1479,-14.1918 L 18.0218,-13.8036 L 17.848,-13.4343
 L 17.6293,-13.0897 L 17.3691,-12.7752 L 17.0716,-12.4958 L 16.7414,-12.2559 L 16.3838,-12.0593 L 16.0043,-11.9091
 L 15.609,-11.8076 L 15.2041,-11.7564 z
M 29.7959,-11.7564 L 29.391,-11.8076 L 28.9957,-11.9091 L 28.6162,-12.0593 L 28.2586,-12.2559 L 27.9284,-12.4958
 L 27.6308,-12.7752 L 27.3707,-13.0897 L 27.152,-13.4343 L 26.9782,-13.8036 L 26.8521,-14.1918 L 26.7756,-14.5927
 L 26.75,-15 L 26.7756,-15.4073 L 26.8521,-15.8082 L 26.9782,-16.1964 L 27.152,-16.5657 L 27.3707,-16.9103
 L 27.6308,-17.2248 L 27.9284,-17.5042 L 28.2586,-17.7441 L 28.6162,-17.9407 L 28.9957,-18.0909 L 29.391,-18.1924
 L 29.7959,-18.2436 L 30.2041,-18.2436 L 30.609,-18.1924 L 31.0043,-18.0909 L 31.3838,-17.9407 L 31.7414,-17.7441
 L 32.0716,-17.5042 L 32.3691,-17.2248 L 32.6293,-16.9103 L 32.848,-16.5657 L 33.0218,-16.1964 L 33.1479,-15.8082
 L 33.2244,-15.4073 L 33.25,-15 L 33.2244,-14.5927 L 33.1479,-14.1918 L 33.0218,-13.8036 L 32.848,-13.4343
 L 32.6293,-13.0897 L 32.3691,-12.7752 L 32.0716,-12.4958 L 31.7414,-12.2559 L 31.3838,-12.0593 L 31.0043,-11.9091
 L 30.609,-11.8076 L 30.2041,-11.7564 z
M 89.7959,-11.7564 L 89.391,-11.8076 L 88.9957,-11.9091 L 88.6162,-12.0593 L 88.2586,-12.2559 L 87.9284,-12.4958
 L 87.6308,-12.7752 L 87.3707,-13.0897 L 87.152,-13.4343 L 86.9782,-13.8036 L 86.8521,-14.1918 L 86.7756,-14.5927
 L 86.75,-15 L 86.7756,-15.4073 L 86.8521,-15.8082 L 86.9782,-16.1964 L 87.152,-16.5657 L 87.3707,-16.9103
 L 87.6308,-17.2248 L 87.9284,-17.5042 L 88.2586,-17.7441 L 88.6162,-17.9407 L 88.9957,-18.0909 L 89.391,-18.1924
 L 89.7959,-18.2436 L 90.2041,-18.2436 L 90.609,-18.1924 L 91.0043,-18.0909 L 91.3838,-17.9407 L 91.7414,-17.7441
 L 92.0716,-17.5042 L 92.3691,-17.2248 L 92.6293,-16.9103 L 92.848,-16.5657 L 93.0218,-16.1964 L 93.1479,-15.8082
 L 93.2244,-15.4073 L 93.25,-15 L 93.2244,-14.5927 L 93.1479,-14.1918 L 93.0218,-13.8036 L 92.848,-13.4343
 L 92.6293,-13.0897 L 92.3691,-12.7752 L 92.0716,-12.4958 L 91.7414,-12.2559 L 91.3838,-12.0593 L 91.0043,-11.9091
 L 90.609,-11.8076 L 90.2041,-11.7564 z
M 74.7959,-11.7564 L 74.391,-11.8076 L 73.9957,-11.9091 L 73.6162,-12.0593 L 73.2586,-12.2559 L 72.9284,-12.4958
 L 72.6308,-12.7752 L 72.3707,-13.0897 L 72.152,-13.4343 L 71.9782,-13.8036 L 71.8521,-14.1918 L 71.7756,-14.5927
 L 71.75,-15 L 71.7756,-15.4073 L 71.8521,-15.8082 L 71.9782,-16.1964 L 72.152,-16.5657 L 72.3707,-16.9103
 L 72.6308,-17.2248 L 72.9284,-17.5042 L 73.2586,-17.7441 L 73.6162,-17.9407 L 73.9957,-18.0909 L 74.391,-18.1924
 L 74.7959,-18.2436 L 75.2041,-18.2436 L 75.609,-18.1924 L 76.0043,-18.0909 L 76.3838,-17.9407 L 76.7414,-17.7441
 L 77.0716,-17.5042 L 77.3691,-17.2248 L 77.6293,-16.9103 L 77.848,-16.5657 L 78.0218,-16.1964 L 78.1479,-15.8082
 L 78.2244,-15.4073 L 78.25,-15 L 78.2244,-14.5927 L 78.1479,-14.1918 L 78.0218,-13.8036 L 77.848,-13.4343
 L 77.6293,-13.0897 L 77.3691,-12.7752 L 77.0716,-12.4958 L 76.7414,-12.2559 L 76.3838,-12.0593 L 76.0043,-11.9091
 L 75.609,-11.8076 L 75.2041,-11.7564 z
M 59.7959,-11.7564 L 59.391,-11.8076 L 58.9957,-11.9091 L 58.6162,-12.0593 L 58.2586,-12.2559 L 57.9284,-12.4958
 L 57.6308,-12.7752 L 57.3707,-13.0897 L 57.152,-13.4343 L 56.9782,-13.8036 L 56.8521,-14.1918 L 56.7756,-14.5927
 L 56.75,-15 L 56.7756,-15.4073 L 56.8521,-15.8082 L 56.9782,-16.1964 L 57.152,-16.5657 L 57.3707,-16.9103
 L 57.6308,-17.2248 L 57.9284,-17.5042 L 58.2586,-17.7441 L 58.6162,-17.9407 L 58.9957,-18.0909 L 59.391,-18.1924
 L 59.7959,-18.2436 L 60.2041,-18.2436 L 60.609,-18.1924 L 61.0043,-18.0909 L 61.3838,-17.9407 L 61.7414,-17.7441
 L 62.0716,-17.5042 L 62.3691,-17.2248 L 62.6293,-16.9103 L 62.848,-16.5657 L 63.0218,-16.1964 L 63.1479,-15.8082
 L 63.2244,-15.4073 L 63.25,-15 L 63.2244,-14.5927 L 63.1479,-14.1918 L 63.0218,-13.8036 L 62.848,-13.4343
 L 62.6293,-13.0897 L 62.3691,-12.7752 L 62.0716,-12.4958 L 61.7414,-12.2559 L 61.3838,-12.0593 L 61.0043,-11.9091
 L 60.609,-11.8076 L 60.2041,-11.7564 z
" stroke="black" fill="lightgray" stroke-width="0.5"/>
</svg>
