<?xml version="1.0" encoding="UTF-8"?>
<!DOCTYPE svg PUBLIC "-//W3C//DTD SVG 1.1//EN" "http://www.w3.org/Graphics/SVG/1.1/DTD/svg11.dtd">
<!-- Creator: CorelDRAW -->
<svg xmlns="http://www.w3.org/2000/svg" xml:space="preserve" width="210mm" height="297mm" style="shape-rendering:geometricPrecision; text-rendering:geometricPrecision; image-rendering:optimizeQuality; fill-rule:evenodd; clip-rule:evenodd"
viewBox="0 0 210 297"
 xmlns:xlink="http://www.w3.org/1999/xlink">
 <defs>
  <style type="text/css">
   <![CDATA[
    .str0 {stroke:black;stroke-width:0.5292}
    .fil0 {fill:none;fill-rule:nonzero}
   ]]>
  </style>
 </defs>
 <g id="Layer_x0020_1">
  <metadata id="CorelCorpID_0Corel-Layer"/>
  <g id="OOBB-PL-05-01.pdf">
   <path id="_113341744" class="fil0 str0" d="M-41.4995 290.5l82.9991 0c2.77,0 5.001,2.2309 5.001,5.0009l0 3.0001c0,2.7696 -2.231,4.9992 -5.001,4.9992l-82.9991 0c-2.77,0 -5.001,-2.2296 -5.001,-4.9992l0 -3.0001c0,-2.77 2.231,-5.0009 5.001,-5.0009zm0 0z"/>
   <path id="_113339776" class="fil0 str0" d="M-41.4995 300l0 -0.4011c-0.4561,-0.2632 -0.8354,-0.6435 -1.0986,-1.0982l-0.4021 0 0 -1.5008 0 -1.4993 0.4021 0c0.2632,-0.4561 0.6425,-0.8353 1.0986,-1.0985l0 -0.4022 1.4993 0 1.5007 0 0 0.4022c0.4547,0.2632 0.835,0.6424 1.0982,1.0985l0.4011 0 0 1.4993 0 1.5008 -0.4011 0c-0.2632,0.4547 -0.6435,0.835 -1.0982,1.0982l0 0.4011 -1.5007 0 -1.4993 0zm0 0z"/>
   <path id="_113339896" class="fil0 str0" d="M-21.5002 300l0 -0.4011c-0.4547,-0.2632 -0.835,-0.6435 -1.0982,-1.0982l-0.4011 0 0 -1.5008 0 -1.4993 0.4011 0c0.2632,-0.4561 0.6435,-0.8353 1.0982,-1.0985l0 -0.4022 1.5007 0 1.4993 0 0 0.4022c0.4548,0.2632 0.8351,0.6424 1.0982,1.0985l0.4026 0 0 1.4993 0 1.5008 -0.4026 0c-0.2631,0.4547 -0.6434,0.835 -1.0982,1.0982l0 0.4011 -1.4993 0 -1.5007 0zm0 0z"/>
   <path id="_113341384" class="fil0 str0" d="M-1.5009 300l0 -0.4011c-0.4547,-0.2632 -0.8336,-0.6435 -1.0982,-1.0982l-0.4011 0 0 -1.5008 0 -1.4993 0.4011 0c0.2646,-0.4561 0.6435,-0.8353 1.0982,-1.0985l0 -0.4022 1.5008 0 1.4993 0 0 0.4022c0.4561,0.2632 0.8353,0.6424 1.0985,1.0985l0.4022 0 0 1.4993 0 1.5008 -0.4022 0c-0.2632,0.4547 -0.6424,0.835 -1.0985,1.0982l0 0.4011 -1.4993 0 -1.5008 0zm0 0z"/>
   <path id="_113461280" class="fil0 str0" d="M18.5002 300l0 -0.4011c-0.4561,-0.2632 -0.835,-0.6435 -1.0982,-1.0982l-0.4025 0 0 -1.5008 0 -1.4993 0.4025 0c0.2632,-0.4561 0.6421,-0.8353 1.0982,-1.0985l0 -0.4022 1.4993 0 1.5008 0 0 0.4022c0.4547,0.2632 0.835,0.6424 1.0982,1.0985l0.4011 0 0 1.4993 0 1.5008 -0.4011 0c-0.2632,0.4547 -0.6435,0.835 -1.0982,1.0982l0 0.4011 -1.5008 0 -1.4993 0zm0 0z"/>
   <path id="_113462264" class="fil0 str0" d="M38.4996 300l0 -0.4011c-0.4548,-0.2632 -0.8351,-0.6435 -1.0982,-1.0982l-0.4011 0 0 -1.5008 0 -1.4993 0.4011 0c0.2631,-0.4561 0.6434,-0.8353 1.0982,-1.0985l0 -0.4022 1.5007 0 1.4993 0 0 0.4022c0.4561,0.2632 0.835,0.6424 1.0982,1.0985l0.4025 0 0 1.4993 0 1.5008 -0.4025 0c-0.2632,0.4547 -0.6421,0.835 -1.0982,1.0982l0 0.4011 -1.4993 0 -1.5007 0zm0 0z"/>
   <polygon id="_113462216" class="fil0 str0" points="-33,295.501 -27,295.501 -27,298.501 -33,298.501 "/>
   <polygon id="_113460992" class="fil0 str0" points="-13.0004,295.501 -7.0003,295.501 -7.0003,298.501 -13.0004,298.501 "/>
   <polygon id="_113460680" class="fil0 str0" points="7.0004,295.501 13.0004,295.501 13.0004,298.501 7.0004,298.501 "/>
   <polygon id="_113460512" class="fil0 str0" points="27.0001,295.501 33.0001,295.501 33.0001,298.501 27.0001,298.501 "/>
  </g>
 </g>
</svg>
