<?xml version="1.0" encoding="UTF-8"?>
<!DOCTYPE svg PUBLIC "-//W3C//DTD SVG 1.1//EN" "http://www.w3.org/Graphics/SVG/1.1/DTD/svg11.dtd">
<!-- Creator: CorelDRAW -->
<svg xmlns="http://www.w3.org/2000/svg" xml:space="preserve" width="93.5292mm" height="13.5292mm" style="shape-rendering:geometricPrecision; text-rendering:geometricPrecision; image-rendering:optimizeQuality; fill-rule:evenodd; clip-rule:evenodd"
viewBox="0 0 28.82 4.16887"
 xmlns:xlink="http://www.w3.org/1999/xlink">
 <defs>
  <style type="text/css">
   <![CDATA[
    .str2 {stroke:#1F1A17;stroke-width:0.163067}
    .str1 {stroke:#1F1A17;stroke-width:0.163067;stroke-linecap:round;stroke-linejoin:round}
    .str0 {stroke:black;stroke-width:0.163067;stroke-linecap:round;stroke-linejoin:round}
    .fil0 {fill:none}
   ]]>
  </style>
 </defs>
 <g id="Layer_x0020_1">
  <metadata id="CorelCorpID_0Corel-Layer"/>
  <path class="fil0 str0" d="M1.16002 1.62223l0.123718 0c0.0811946,-0.140296 0.198195,-0.257296 0.338491,-0.338491l0 -0.123718 0.462209 0 0.462209 0 0 0.123718c0.140296,0.0811946 0.257296,0.198195 0.338491,0.338491l0.123718 0 0 0.462209 0 0.462209 -0.123718 0c-0.0811946,0.140296 -0.198195,0.257296 -0.338491,0.338491l0 0.123718 -0.462209 0 -0.462209 0 0 -0.123718c-0.140296,-0.0811946 -0.257296,-0.198195 -0.338491,-0.338491l-0.123718 0 0 -0.462209 0 -0.462209z"/>
  <path class="fil0 str0" d="M7.3228 1.62223l0.123718 0c0.0811946,-0.140296 0.198195,-0.257296 0.338491,-0.338491l0 -0.123718 0.462209 0 0.462209 0 0 0.123718c0.140296,0.0811946 0.257296,0.198195 0.338491,0.338491l0.123718 0 0 0.462209 0 0.462209 -0.123718 0c-0.0811946,0.140296 -0.198195,0.257296 -0.338491,0.338491l0 0.123718 -0.462209 0 -0.462209 0 0 -0.123718c-0.140296,-0.0811946 -0.257296,-0.198195 -0.338491,-0.338491l-0.123718 0 0 -0.462209 0 -0.462209z"/>
  <path class="fil0 str0" d="M13.4856 1.62223l0.123718 0c0.0811946,-0.140296 0.198195,-0.257296 0.338491,-0.338491l0 -0.123718 0.462209 0 0.462209 0 0 0.123718c0.140296,0.0811946 0.257296,0.198195 0.338491,0.338491l0.123718 0 0 0.462209 0 0.462209 -0.123718 0c-0.0811946,0.140296 -0.198195,0.257296 -0.338491,0.338491l0 0.123718 -0.462209 0 -0.462209 0 0 -0.123718c-0.140296,-0.0811946 -0.257296,-0.198195 -0.338491,-0.338491l-0.123718 0 0 -0.462209 0 -0.462209z"/>
  <path class="fil0 str0" d="M19.6484 1.62223l0.123718 0c0.0811946,-0.140296 0.198195,-0.257296 0.338491,-0.338491l0 -0.123718 0.462209 0 0.462209 0 0 0.123718c0.140296,0.0811946 0.257296,0.198195 0.338491,0.338491l0.123718 0 0 0.462209 0 0.462209 -0.123718 0c-0.0811946,0.140296 -0.198195,0.257296 -0.338491,0.338491l0 0.123718 -0.462209 0 -0.462209 0 0 -0.123718c-0.140296,-0.0811946 -0.257296,-0.198195 -0.338491,-0.338491l-0.123718 0 0 -0.462209 0 -0.462209z"/>
  <path class="fil0 str0" d="M25.8111 1.62223l0.123718 0c0.0811946,-0.140296 0.198195,-0.257296 0.338491,-0.338491l0 -0.123718 0.462209 0 0.462209 0 0 0.123718c0.140296,0.0811946 0.257296,0.198195 0.338491,0.338491l0.123718 0 0 0.462209 0 0.462209 -0.123718 0c-0.0811946,0.140296 -0.198195,0.257296 -0.338491,0.338491l0 0.123718 -0.462209 0 -0.462209 0 0 -0.123718c-0.140296,-0.0811946 -0.257296,-0.198195 -0.338491,-0.338491l-0.123718 0 0 -0.462209 0 -0.462209z"/>
  <rect class="fil0 str1" x="4.24141" y="1.62223" width="1.84883" height="0.924417"/>
  <rect class="fil0 str1" x="10.4042" y="1.62223" width="1.84883" height="0.924417"/>
  <rect class="fil0 str1" x="16.567" y="1.62223" width="1.84883" height="0.924417"/>
  <rect class="fil0 str1" x="22.7298" y="1.62223" width="1.84883" height="0.924417"/>
  <path class="fil0 str2" d="M0.0815336 2.54665l0 -0.924417c0,-0.850741 0.689954,-1.5407 1.5407,-1.5407l25.5755 0c0.850741,0 1.5407,0.689954 1.5407,1.5407l0 0.924417c0,0.850741 -0.689954,1.5407 -1.5407,1.5407l-25.5755 0c-0.850741,0 -1.5407,-0.689954 -1.5407,-1.5407z"/>
 </g>
</svg>
