  0
SECTION
  2
HEADER
  9
$ACADVER
  1
AC1021
  9
$ACADMAINTVER
 70
    25
  9
$DWGCODEPAGE
  3
ANSI_1252
  9
$INSBASE
 10
0.0
 20
0.0
 30
0.0
  9
$EXTMIN
 10
-15.17646
 20
-17.52646
 30
0.0
  9
$EXTMAX
 10
-5.82354
 20
-12.17354
 30
0.0
  9
$LIMMIN
 10
0.0
 20
0.0
  9
$LIMMAX
 10
12.0
 20
9.0
  9
$ORTHOMODE
 70
     0
  9
$REGENMODE
 70
     1
  9
$FILLMODE
 70
     1
  9
$QTEXTMODE
 70
     0
  9
$MIRRTEXT
 70
     1
  9
$LTSCALE
 40
1.0
  9
$ATTMODE
 70
     1
  9
$TEXTSIZE
 40
0.2
  9
$TRACEWID
 40
0.05
  9
$TEXTSTYLE
  7
Standard
  9
$CLAYER
  8
0
  9
$CELTYPE
  6
ByLayer
  9
$CECOLOR
 62
   256
  9
$CELTSCALE
 40
1.0
  9
$DISPSILH
 70
     0
  9
$DIMSCALE
 40
1.0
  9
$DIMASZ
 40
0.18
  9
$DIMEXO
 40
0.0625
  9
$DIMDLI
 40
0.38
  9
$DIMRND
 40
0.0
  9
$DIMDLE
 40
0.0
  9
$DIMEXE
 40
0.18
  9
$DIMTP
 40
0.0
  9
$DIMTM
 40
0.0
  9
$DIMTXT
 40
0.18
  9
$DIMCEN
 40
0.09
  9
$DIMTSZ
 40
0.0
  9
$DIMTOL
 70
     0
  9
$DIMLIM
 70
     0
  9
$DIMTIH
 70
     1
  9
$DIMTOH
 70
     1
  9
$DIMSE1
 70
     0
  9
$DIMSE2
 70
     0
  9
$DIMTAD
 70
     0
  9
$DIMZIN
 70
     0
  9
$DIMBLK
  1

  9
$DIMASO
 70
     1
  9
$DIMSHO
 70
     1
  9
$DIMPOST
  1

  9
$DIMAPOST
  1

  9
$DIMALT
 70
     0
  9
$DIMALTD
 70
     2
  9
$DIMALTF
 40
25.4
  9
$DIMLFAC
 40
1.0
  9
$DIMTOFL
 70
     0
  9
$DIMTVP
 40
0.0
  9
$DIMTIX
 70
     0
  9
$DIMSOXD
 70
     0
  9
$DIMSAH
 70
     0
  9
$DIMBLK1
  1

  9
$DIMBLK2
  1

  9
$DIMSTYLE
  2
Standard
  9
$DIMCLRD
 70
     0
  9
$DIMCLRE
 70
     0
  9
$DIMCLRT
 70
     0
  9
$DIMTFAC
 40
1.0
  9
$DIMGAP
 40
0.09
  9
$DIMJUST
 70
     0
  9
$DIMSD1
 70
     0
  9
$DIMSD2
 70
     0
  9
$DIMTOLJ
 70
     1
  9
$DIMTZIN
 70
     0
  9
$DIMALTZ
 70
     0
  9
$DIMALTTZ
 70
     0
  9
$DIMUPT
 70
     0
  9
$DIMDEC
 70
     4
  9
$DIMTDEC
 70
     4
  9
$DIMALTU
 70
     2
  9
$DIMALTTD
 70
     2
  9
$DIMTXSTY
  7
Standard
  9
$DIMAUNIT
 70
     0
  9
$DIMADEC
 70
     0
  9
$DIMALTRND
 40
0.0
  9
$DIMAZIN
 70
     0
  9
$DIMDSEP
 70
    46
  9
$DIMATFIT
 70
     3
  9
$DIMFRAC
 70
     0
  9
$DIMLDRBLK
  1

  9
$DIMLUNIT
 70
     2
  9
$DIMLWD
 70
    -2
  9
$DIMLWE
 70
    -2
  9
$DIMTMOVE
 70
     0
  9
$DIMFXL
 40
1.0
  9
$DIMFXLON
 70
     0
  9
$DIMJOGANG
 40
0.7853981633974483
  9
$DIMTFILL
 70
     0
  9
$DIMTFILLCLR
 70
     0
  9
$DIMARCSYM
 70
     0
  9
$DIMLTYPE
  6

  9
$DIMLTEX1
  6

  9
$DIMLTEX2
  6

  9
$LUNITS
 70
     2
  9
$LUPREC
 70
     4
  9
$SKETCHINC
 40
0.1
  9
$FILLETRAD
 40
0.5
  9
$AUNITS
 70
     0
  9
$AUPREC
 70
     0
  9
$MENU
  1
.
  9
$ELEVATION
 40
0.0
  9
$PELEVATION
 40
0.0
  9
$THICKNESS
 40
0.0
  9
$LIMCHECK
 70
     0
  9
$CHAMFERA
 40
0.5
  9
$CHAMFERB
 40
0.5
  9
$CHAMFERC
 40
1.0
  9
$CHAMFERD
 40
0.0
  9
$SKPOLY
 70
     0
  9
$TDCREATE
 40
2457799.252017396
  9
$TDUCREATE
 40
2457799.252017396
  9
$TDUPDATE
 40
2457799.252017407
  9
$TDUUPDATE
 40
2457799.252017407
  9
$TDINDWG
 40
0.0000000116
  9
$TDUSRTIMER
 40
0.0000000116
  9
$USRTIMER
 70
     1
  9
$ANGBASE
 50
0.0
  9
$ANGDIR
 70
     0
  9
$PDMODE
 70
     0
  9
$PDSIZE
 40
0.0
  9
$PLINEWID
 40
0.0
  9
$SPLFRAME
 70
     0
  9
$SPLINETYPE
 70
     6
  9
$SPLINESEGS
 70
     8
  9
$HANDSEED
  5
86
  9
$SURFTAB1
 70
     6
  9
$SURFTAB2
 70
     6
  9
$SURFTYPE
 70
     6
  9
$SURFU
 70
     6
  9
$SURFV
 70
     6
  9
$UCSBASE
  2

  9
$UCSNAME
  2

  9
$UCSORG
 10
0.0
 20
0.0
 30
0.0
  9
$UCSXDIR
 10
1.0
 20
0.0
 30
0.0
  9
$UCSYDIR
 10
0.0
 20
1.0
 30
0.0
  9
$UCSORTHOREF
  2

  9
$UCSORTHOVIEW
 70
     0
  9
$UCSORGTOP
 10
0.0
 20
0.0
 30
0.0
  9
$UCSORGBOTTOM
 10
0.0
 20
0.0
 30
0.0
  9
$UCSORGLEFT
 10
0.0
 20
0.0
 30
0.0
  9
$UCSORGRIGHT
 10
0.0
 20
0.0
 30
0.0
  9
$UCSORGFRONT
 10
0.0
 20
0.0
 30
0.0
  9
$UCSORGBACK
 10
0.0
 20
0.0
 30
0.0
  9
$PUCSBASE
  2

  9
$PUCSNAME
  2

  9
$PUCSORG
 10
0.0
 20
0.0
 30
0.0
  9
$PUCSXDIR
 10
1.0
 20
0.0
 30
0.0
  9
$PUCSYDIR
 10
0.0
 20
1.0
 30
0.0
  9
$PUCSORTHOREF
  2

  9
$PUCSORTHOVIEW
 70
     0
  9
$PUCSORGTOP
 10
0.0
 20
0.0
 30
0.0
  9
$PUCSORGBOTTOM
 10
0.0
 20
0.0
 30
0.0
  9
$PUCSORGLEFT
 10
0.0
 20
0.0
 30
0.0
  9
$PUCSORGRIGHT
 10
0.0
 20
0.0
 30
0.0
  9
$PUCSORGFRONT
 10
0.0
 20
0.0
 30
0.0
  9
$PUCSORGBACK
 10
0.0
 20
0.0
 30
0.0
  9
$USERI1
 70
     0
  9
$USERI2
 70
     0
  9
$USERI3
 70
     0
  9
$USERI4
 70
     0
  9
$USERI5
 70
     0
  9
$USERR1
 40
0.0
  9
$USERR2
 40
0.0
  9
$USERR3
 40
0.0
  9
$USERR4
 40
0.0
  9
$USERR5
 40
0.0
  9
$WORLDVIEW
 70
     1
  9
$SHADEDGE
 70
     3
  9
$SHADEDIF
 70
    70
  9
$TILEMODE
 70
     1
  9
$MAXACTVP
 70
    64
  9
$PINSBASE
 10
0.0
 20
0.0
 30
0.0
  9
$PLIMCHECK
 70
     0
  9
$PEXTMIN
 10
1.000000000000000E+20
 20
1.000000000000000E+20
 30
1.000000000000000E+20
  9
$PEXTMAX
 10
-1.000000000000000E+20
 20
-1.000000000000000E+20
 30
-1.000000000000000E+20
  9
$PLIMMIN
 10
0.0
 20
0.0
  9
$PLIMMAX
 10
12.0
 20
9.0
  9
$UNITMODE
 70
     0
  9
$VISRETAIN
 70
     1
  9
$PLINEGEN
 70
     0
  9
$PSLTSCALE
 70
     1
  9
$TREEDEPTH
 70
  3020
  9
$CMLSTYLE
  2
Standard
  9
$CMLJUST
 70
     0
  9
$CMLSCALE
 40
1.0
  9
$PROXYGRAPHICS
 70
     1
  9
$MEASUREMENT
 70
     0
  9
$CELWEIGHT
370
    -1
  9
$ENDCAPS
280
     0
  9
$JOINSTYLE
280
     0
  9
$LWDISPLAY
290
     0
  9
$INSUNITS
 70
     5
  9
$HYPERLINKBASE
  1

  9
$STYLESHEET
  1

  9
$XEDIT
290
     1
  9
$CEPSNTYPE
380
     0
  9
$PSTYLEMODE
290
     1
  9
$FINGERPRINTGUID
  2
{F2179D99-91EE-48DF-92A8-AEB797CE4606}
  9
$VERSIONGUID
  2
{FAEB1C32-E019-11D5-929B-00C0DF256EC4}
  9
$EXTNAMES
290
     1
  9
$PSVPSCALE
 40
0.0
  9
$OLESTARTUP
290
     0
  9
$SORTENTS
280
   127
  9
$INDEXCTL
280
     0
  9
$HIDETEXT
280
     1
  9
$XCLIPFRAME
290
     0
  9
$HALOGAP
280
     0
  9
$OBSCOLOR
 70
   257
  9
$OBSLTYPE
280
     0
  9
$INTERSECTIONDISPLAY
280
     0
  9
$INTERSECTIONCOLOR
 70
   257
  9
$DIMASSOC
280
     2
  9
$PROJECTNAME
  1

  9
$CAMERADISPLAY
290
     0
  9
$LENSLENGTH
 40
50.0
  9
$CAMERAHEIGHT
 40
0.0
  9
$STEPSPERSEC
 40
2.0
  9
$STEPSIZE
 40
6.0
  9
$3DDWFPREC
 40
2.0
  9
$PSOLWIDTH
 40
0.25
  9
$PSOLHEIGHT
 40
4.0
  9
$LOFTANG1
 40
1.570796326794897
  9
$LOFTANG2
 40
1.570796326794897
  9
$LOFTMAG1
 40
0.0
  9
$LOFTMAG2
 40
0.0
  9
$LOFTPARAM
 70
     7
  9
$LOFTNORMALS
280
     1
  9
$LATITUDE
 40
37.795
  9
$LONGITUDE
 40
-122.394
  9
$NORTHDIRECTION
 40
0.0
  9
$TIMEZONE
 70
 -8000
  9
$LIGHTGLYPHDISPLAY
280
     1
  9
$TILEMODELIGHTSYNCH
280
     1
  9
$SOLIDHIST
280
     1
  9
$SHOWHIST
280
     1
  9
$DWFFRAME
280
     2
  9
$DGNFRAME
280
     2
  9
$REALWORLDSCALE
290
     1
  9
$INTERFERECOLOR
 62
   256
  9
$CSHADOW
280
     0
  9
$SHADOWPLANELOCATION
 40
0.0
  0
ENDSEC
  0
SECTION
  2
CLASSES
  0
CLASS
  1
ACDBDICTIONARYWDFLT
  2
AcDbDictionaryWithDefault
  3
ObjectDBX Classes
 90
        0
 91
        3
280
     0
281
     0
  0
CLASS
  1
VISUALSTYLE
  2
AcDbVisualStyle
  3
ObjectDBX Classes
 90
     4095
 91
        3
280
     0
281
     0
  0
CLASS
  1
SCALE
  2
AcDbScale
  3
ObjectDBX Classes
 90
     1153
 91
        3
280
     0
281
     0
  0
ENDSEC
  0
SECTION
  2
TABLES
  0
TABLE
  2
VPORT
  5
8
330
0
100
AcDbSymbolTable
 70
     1
  0
VPORT
  5
29
330
8
100
AcDbSymbolTableRecord
100
AcDbViewportTableRecord
  2
*Active
 70
     0
 10
0.0
 20
0.0
 11
1.0
 21
1.0
 12
10.42990654205607
 22
4.5
 13
0.0
 23
0.0
 14
0.5
 24
0.5
 15
0.5
 25
0.5
 16
0.0
 26
0.0
 36
1.0
 17
0.0
 27
0.0
 37
0.0
 40
9.0
 41
1.972972972850329
 42
50.0
 43
0.0
 44
0.0
 50
0.0
 51
0.0
 71
     0
 72
   100
 73
     1
 74
     3
 75
     0
 76
     0
 77
     0
 78
     0
281
     0
 65
     1
110
0.0
120
0.0
130
0.0
111
1.0
121
0.0
131
0.0
112
0.0
122
1.0
132
0.0
 79
     0
146
0.0
 60
     3
 61
     5
292
     1
282
     1
141
0.0
142
0.0
 63
   256
  0
ENDTAB
  0
TABLE
  2
LTYPE
  5
5
330
0
100
AcDbSymbolTable
 70
     1
  0
LTYPE
  5
14
330
5
100
AcDbSymbolTableRecord
100
AcDbLinetypeTableRecord
  2
ByBlock
 70
     0
  3

 72
    65
 73
     0
 40
0.0
  0
LTYPE
  5
15
330
5
100
AcDbSymbolTableRecord
100
AcDbLinetypeTableRecord
  2
ByLayer
 70
     0
  3

 72
    65
 73
     0
 40
0.0
  0
LTYPE
  5
16
330
5
100
AcDbSymbolTableRecord
100
AcDbLinetypeTableRecord
  2
Continuous
 70
     0
  3
Solid line
 72
    65
 73
     0
 40
0.0
  0
ENDTAB
  0
TABLE
  2
LAYER
  5
2
330
0
100
AcDbSymbolTable
 70
     2
  0
LAYER
  5
10
330
2
100
AcDbSymbolTableRecord
100
AcDbLayerTableRecord
  2
0
 70
     0
 62
     7
  6
Continuous
370
    -3
390
F
347
0
  0
LAYER
  5
5E
330
2
100
AcDbSymbolTableRecord
100
AcDbLayerTableRecord
  2
Layer 1
 70
     0
 62
     7
  6
Continuous
370
    -3
390
F
347
0
  0
ENDTAB
  0
TABLE
  2
STYLE
  5
3
330
0
100
AcDbSymbolTable
 70
     1
  0
STYLE
  5
11
330
3
100
AcDbSymbolTableRecord
100
AcDbTextStyleTableRecord
  2
Standard
 70
     0
 40
0.0
 41
1.0
 50
0.0
 71
     0
 42
0.2
  3
txt
  4

  0
ENDTAB
  0
TABLE
  2
VIEW
  5
6
330
0
100
AcDbSymbolTable
 70
     0
  0
ENDTAB
  0
TABLE
  2
UCS
  5
7
330
0
100
AcDbSymbolTable
 70
     0
  0
ENDTAB
  0
TABLE
  2
APPID
  5
9
330
0
100
AcDbSymbolTable
 70
     2
  0
APPID
  5
12
330
9
100
AcDbSymbolTableRecord
100
AcDbRegAppTableRecord
  2
ACAD
 70
     0
  0
APPID
  5
5D
330
9
100
AcDbSymbolTableRecord
100
AcDbRegAppTableRecord
  2
ODA
 70
     0
  0
ENDTAB
  0
TABLE
  2
DIMSTYLE
  5
A
330
0
100
AcDbSymbolTable
 70
     1
100
AcDbDimStyleTable
  0
DIMSTYLE
105
27
330
A
100
AcDbSymbolTableRecord
100
AcDbDimStyleTableRecord
  2
Standard
 70
     0
340
11
  0
ENDTAB
  0
TABLE
  2
BLOCK_RECORD
  5
1
330
0
100
AcDbSymbolTable
 70
     1
  0
BLOCK_RECORD
  5
1F
330
1
100
AcDbSymbolTableRecord
100
AcDbBlockTableRecord
  2
*Model_Space
340
22
 70
     0
280
     1
281
     0
  0
BLOCK_RECORD
  5
1B
330
1
100
AcDbSymbolTableRecord
100
AcDbBlockTableRecord
  2
*Paper_Space
340
1E
 70
     0
280
     1
281
     0
  0
BLOCK_RECORD
  5
23
330
1
100
AcDbSymbolTableRecord
100
AcDbBlockTableRecord
  2
*Paper_Space0
340
26
 70
     0
280
     1
281
     0
  0
ENDTAB
  0
ENDSEC
  0
SECTION
  2
BLOCKS
  0
BLOCK
  5
20
330
1F
100
AcDbEntity
  8
0
100
AcDbBlockBegin
  2
*Model_Space
 70
     0
 10
0.0
 20
0.0
 30
0.0
  3
*Model_Space
  1

  0
ENDBLK
  5
21
330
1F
100
AcDbEntity
  8
0
100
AcDbBlockEnd
  0
BLOCK
  5
1C
330
1B
100
AcDbEntity
 67
     1
  8
0
100
AcDbBlockBegin
  2
*Paper_Space
 70
     0
 10
0.0
 20
0.0
 30
0.0
  3
*Paper_Space
  1

  0
ENDBLK
  5
1D
330
1B
100
AcDbEntity
 67
     1
  8
0
100
AcDbBlockEnd
  0
BLOCK
  5
24
330
23
100
AcDbEntity
  8
0
100
AcDbBlockBegin
  2
*Paper_Space0
 70
     0
 10
0.0
 20
0.0
 30
0.0
  3
*Paper_Space0
  1

  0
ENDBLK
  5
25
330
23
100
AcDbEntity
  8
0
100
AcDbBlockEnd
  0
ENDSEC
  0
SECTION
  2
ENTITIES
  0
SPLINE
  5
5F
330
1F
100
AcDbEntity
  8
Layer 1
370
    53
100
AcDbSpline
210
0.0
220
0.0
230
1.0
 70
    11
 71
     3
 72
    20
 73
    16
 74
     0
 42
0.0000000001
 43
0.0000000001
 40
0.0
 40
0.0
 40
0.0
 40
0.0
 40
0.25
 40
0.25
 40
0.25
 40
0.25
 40
0.5
 40
0.5
 40
0.5
 40
0.5
 40
0.75
 40
0.75
 40
0.75
 40
0.75
 40
1.0
 40
1.0
 40
1.0
 40
1.0
 10
-11.99993
 20
-14.85001
 30
0.0
 10
-11.99993
 20
-14.02172
 30
0.0
 10
-11.32822
 20
-13.35001
 30
0.0
 10
-10.49993
 20
-13.35001
 30
0.0
 10
-10.49993
 20
-13.35001
 30
0.0
 10
-9.67164
 20
-13.35001
 30
0.0
 10
-8.99993
 20
-14.02172
 30
0.0
 10
-8.99993
 20
-14.85001
 30
0.0
 10
-8.99993
 20
-14.85001
 30
0.0
 10
-8.99993
 20
-15.6783
 30
0.0
 10
-9.67164
 20
-16.35001
 30
0.0
 10
-10.49993
 20
-16.35001
 30
0.0
 10
-10.49993
 20
-16.35001
 30
0.0
 10
-11.32822
 20
-16.35001
 30
0.0
 10
-11.99993
 20
-15.6783
 30
0.0
 10
-11.99993
 20
-14.85001
 30
0.0
  0
SPLINE
  5
60
330
1F
100
AcDbEntity
  8
Layer 1
 62
     5
370
    53
100
AcDbSpline
210
0.0
220
0.0
230
1.0
 70
    11
 71
     3
 72
    20
 73
    16
 74
     0
 42
0.0000000001
 43
0.0000000001
 40
0.0
 40
0.0
 40
0.0
 40
0.0
 40
0.25
 40
0.25
 40
0.25
 40
0.25
 40
0.5
 40
0.5
 40
0.5
 40
0.5
 40
0.75
 40
0.75
 40
0.75
 40
0.75
 40
1.0
 40
1.0
 40
1.0
 40
1.0
 10
-12.59993
 20
-16.95001
 30
0.0
 10
-12.59993
 20
-16.95001
 30
0.0
 10
-12.59993
 20
-12.75001
 30
0.0
 10
-12.59993
 20
-12.75001
 30
0.0
 10
-12.59993
 20
-12.75001
 30
0.0
 10
-12.59993
 20
-12.75001
 30
0.0
 10
-8.39993
 20
-12.75001
 30
0.0
 10
-8.39993
 20
-12.75001
 30
0.0
 10
-8.39993
 20
-12.75001
 30
0.0
 10
-8.39993
 20
-12.75001
 30
0.0
 10
-8.39993
 20
-16.95001
 30
0.0
 10
-8.39993
 20
-16.95001
 30
0.0
 10
-8.39993
 20
-16.95001
 30
0.0
 10
-8.39993
 20
-16.95001
 30
0.0
 10
-12.59993
 20
-16.95001
 30
0.0
 10
-12.59993
 20
-16.95001
 30
0.0
  0
SPLINE
  5
61
330
1F
100
AcDbEntity
  8
Layer 1
370
    53
100
AcDbSpline
210
0.0
220
0.0
230
1.0
 70
    11
 71
     3
 72
    20
 73
    16
 74
     0
 42
0.0000000001
 43
0.0000000001
 40
0.0
 40
0.0
 40
0.0
 40
0.0
 40
0.25
 40
0.25
 40
0.25
 40
0.25
 40
0.5
 40
0.5
 40
0.5
 40
0.5
 40
0.75
 40
0.75
 40
0.75
 40
0.75
 40
1.0
 40
1.0
 40
1.0
 40
1.0
 10
-9.16993
 20
-13.30001
 30
0.0
 10
-9.16993
 20
-13.17852
 30
0.0
 10
-9.07142
 20
-13.08001
 30
0.0
 10
-8.94993
 20
-13.08001
 30
0.0
 10
-8.94993
 20
-13.08001
 30
0.0
 10
-8.82844
 20
-13.08001
 30
0.0
 10
-8.72993
 20
-13.17852
 30
0.0
 10
-8.72993
 20
-13.30001
 30
0.0
 10
-8.72993
 20
-13.30001
 30
0.0
 10
-8.72993
 20
-13.4215
 30
0.0
 10
-8.82844
 20
-13.52001
 30
0.0
 10
-8.94993
 20
-13.52001
 30
0.0
 10
-8.94993
 20
-13.52001
 30
0.0
 10
-9.07142
 20
-13.52001
 30
0.0
 10
-9.16993
 20
-13.4215
 30
0.0
 10
-9.16993
 20
-13.30001
 30
0.0
  0
SPLINE
  5
62
330
1F
100
AcDbEntity
  8
Layer 1
370
    53
100
AcDbSpline
210
0.0
220
0.0
230
1.0
 70
    11
 71
     3
 72
    20
 73
    16
 74
     0
 42
0.0000000001
 43
0.0000000001
 40
0.0
 40
0.0
 40
0.0
 40
0.0
 40
0.25
 40
0.25
 40
0.25
 40
0.25
 40
0.5
 40
0.5
 40
0.5
 40
0.5
 40
0.75
 40
0.75
 40
0.75
 40
0.75
 40
1.0
 40
1.0
 40
1.0
 40
1.0
 10
-9.16993
 20
-16.40001
 30
0.0
 10
-9.16993
 20
-16.27852
 30
0.0
 10
-9.07142
 20
-16.18001
 30
0.0
 10
-8.94993
 20
-16.18001
 30
0.0
 10
-8.94993
 20
-16.18001
 30
0.0
 10
-8.82844
 20
-16.18001
 30
0.0
 10
-8.72993
 20
-16.27852
 30
0.0
 10
-8.72993
 20
-16.40001
 30
0.0
 10
-8.72993
 20
-16.40001
 30
0.0
 10
-8.72993
 20
-16.5215
 30
0.0
 10
-8.82844
 20
-16.62001
 30
0.0
 10
-8.94993
 20
-16.62001
 30
0.0
 10
-8.94993
 20
-16.62001
 30
0.0
 10
-9.07142
 20
-16.62001
 30
0.0
 10
-9.16993
 20
-16.5215
 30
0.0
 10
-9.16993
 20
-16.40001
 30
0.0
  0
SPLINE
  5
63
330
1F
100
AcDbEntity
  8
Layer 1
370
    53
100
AcDbSpline
210
0.0
220
0.0
230
1.0
 70
    11
 71
     3
 72
    20
 73
    16
 74
     0
 42
0.0000000001
 43
0.0000000001
 40
0.0
 40
0.0
 40
0.0
 40
0.0
 40
0.25
 40
0.25
 40
0.25
 40
0.25
 40
0.5
 40
0.5
 40
0.5
 40
0.5
 40
0.75
 40
0.75
 40
0.75
 40
0.75
 40
1.0
 40
1.0
 40
1.0
 40
1.0
 10
-12.26993
 20
-13.30001
 30
0.0
 10
-12.26993
 20
-13.17852
 30
0.0
 10
-12.17142
 20
-13.08001
 30
0.0
 10
-12.04993
 20
-13.08001
 30
0.0
 10
-12.04993
 20
-13.08001
 30
0.0
 10
-11.92844
 20
-13.08001
 30
0.0
 10
-11.82993
 20
-13.17852
 30
0.0
 10
-11.82993
 20
-13.30001
 30
0.0
 10
-11.82993
 20
-13.30001
 30
0.0
 10
-11.82993
 20
-13.4215
 30
0.0
 10
-11.92844
 20
-13.52001
 30
0.0
 10
-12.04993
 20
-13.52001
 30
0.0
 10
-12.04993
 20
-13.52001
 30
0.0
 10
-12.17142
 20
-13.52001
 30
0.0
 10
-12.26993
 20
-13.4215
 30
0.0
 10
-12.26993
 20
-13.30001
 30
0.0
  0
SPLINE
  5
64
330
1F
100
AcDbEntity
  8
Layer 1
370
    53
100
AcDbSpline
210
0.0
220
0.0
230
1.0
 70
    11
 71
     3
 72
    20
 73
    16
 74
     0
 42
0.0000000001
 43
0.0000000001
 40
0.0
 40
0.0
 40
0.0
 40
0.0
 40
0.25
 40
0.25
 40
0.25
 40
0.25
 40
0.5
 40
0.5
 40
0.5
 40
0.5
 40
0.75
 40
0.75
 40
0.75
 40
0.75
 40
1.0
 40
1.0
 40
1.0
 40
1.0
 10
-12.26993
 20
-16.40001
 30
0.0
 10
-12.26993
 20
-16.27852
 30
0.0
 10
-12.17142
 20
-16.18001
 30
0.0
 10
-12.04993
 20
-16.18001
 30
0.0
 10
-12.04993
 20
-16.18001
 30
0.0
 10
-11.92844
 20
-16.18001
 30
0.0
 10
-11.82993
 20
-16.27852
 30
0.0
 10
-11.82993
 20
-16.40001
 30
0.0
 10
-11.82993
 20
-16.40001
 30
0.0
 10
-11.82993
 20
-16.5215
 30
0.0
 10
-11.92844
 20
-16.62001
 30
0.0
 10
-12.04993
 20
-16.62001
 30
0.0
 10
-12.04993
 20
-16.62001
 30
0.0
 10
-12.17142
 20
-16.62001
 30
0.0
 10
-12.26993
 20
-16.5215
 30
0.0
 10
-12.26993
 20
-16.40001
 30
0.0
  0
SPLINE
  5
65
330
1F
100
AcDbEntity
  8
Layer 1
 62
     5
370
    53
100
AcDbSpline
210
0.0
220
0.0
230
1.0
 70
    11
 71
     3
 72
    36
 73
    32
 74
     0
 42
0.0000000001
 43
0.0000000001
 40
0.0
 40
0.0
 40
0.0
 40
0.0
 40
0.125
 40
0.125
 40
0.125
 40
0.125
 40
0.25
 40
0.25
 40
0.25
 40
0.25
 40
0.375
 40
0.375
 40
0.375
 40
0.375
 40
0.5
 40
0.5
 40
0.5
 40
0.5
 40
0.625
 40
0.625
 40
0.625
 40
0.625
 40
0.75
 40
0.75
 40
0.75
 40
0.75
 40
0.875
 40
0.875
 40
0.875
 40
0.875
 40
1.0
 40
1.0
 40
1.0
 40
1.0
 10
-7.94734
 20
-16.54816
 30
0.0
 10
-7.94734
 20
-16.54816
 30
0.0
 10
-8.25256
 20
-16.54816
 30
0.0
 10
-8.25256
 20
-16.54816
 30
0.0
 10
-8.25256
 20
-16.54816
 30
0.0
 10
-8.25256
 20
-16.54816
 30
0.0
 10
-7.94734
 20
-16.41693
 30
0.0
 10
-7.94734
 20
-16.41693
 30
0.0
 10
-7.94734
 20
-16.41693
 30
0.0
 10
-7.94734
 20
-16.41693
 30
0.0
 10
-8.25256
 20
-16.28527
 30
0.0
 10
-8.25256
 20
-16.28527
 30
0.0
 10
-8.25256
 20
-16.28527
 30
0.0
 10
-8.25256
 20
-16.28527
 30
0.0
 10
-7.94734
 20
-16.28527
 30
0.0
 10
-7.94734
 20
-16.28527
 30
0.0
 10
-7.94734
 20
-16.28527
 30
0.0
 10
-7.94734
 20
-16.28527
 30
0.0
 10
-8.25256
 20
-16.28527
 30
0.0
 10
-8.25256
 20
-16.28527
 30
0.0
 10
-8.25256
 20
-16.28527
 30
0.0
 10
-8.25256
 20
-16.28527
 30
0.0
 10
-7.94734
 20
-16.41693
 30
0.0
 10
-7.94734
 20
-16.41693
 30
0.0
 10
-7.94734
 20
-16.41693
 30
0.0
 10
-7.94734
 20
-16.41693
 30
0.0
 10
-8.25256
 20
-16.54816
 30
0.0
 10
-8.25256
 20
-16.54816
 30
0.0
 10
-8.25256
 20
-16.54816
 30
0.0
 10
-8.25256
 20
-16.54816
 30
0.0
 10
-7.94734
 20
-16.54816
 30
0.0
 10
-7.94734
 20
-16.54816
 30
0.0
  0
SPLINE
  5
66
330
1F
100
AcDbEntity
  8
Layer 1
 62
     5
370
    53
100
AcDbSpline
210
0.0
220
0.0
230
1.0
 70
    11
 71
     3
 72
    36
 73
    32
 74
     0
 42
0.0000000001
 43
0.0000000001
 40
0.0
 40
0.0
 40
0.0
 40
0.0
 40
0.125
 40
0.125
 40
0.125
 40
0.125
 40
0.25
 40
0.25
 40
0.25
 40
0.25
 40
0.375
 40
0.375
 40
0.375
 40
0.375
 40
0.5
 40
0.5
 40
0.5
 40
0.5
 40
0.625
 40
0.625
 40
0.625
 40
0.625
 40
0.75
 40
0.75
 40
0.75
 40
0.75
 40
0.875
 40
0.875
 40
0.875
 40
0.875
 40
1.0
 40
1.0
 40
1.0
 40
1.0
 10
-7.94734
 20
-16.08546
 30
0.0
 10
-7.94734
 20
-16.08546
 30
0.0
 10
-8.25256
 20
-16.08546
 30
0.0
 10
-8.25256
 20
-16.08546
 30
0.0
 10
-8.25256
 20
-16.08546
 30
0.0
 10
-8.25256
 20
-16.08546
 30
0.0
 10
-7.94734
 20
-15.95423
 30
0.0
 10
-7.94734
 20
-15.95423
 30
0.0
 10
-7.94734
 20
-15.95423
 30
0.0
 10
-7.94734
 20
-15.95423
 30
0.0
 10
-8.25256
 20
-15.82257
 30
0.0
 10
-8.25256
 20
-15.82257
 30
0.0
 10
-8.25256
 20
-15.82257
 30
0.0
 10
-8.25256
 20
-15.82257
 30
0.0
 10
-7.94734
 20
-15.82257
 30
0.0
 10
-7.94734
 20
-15.82257
 30
0.0
 10
-7.94734
 20
-15.82257
 30
0.0
 10
-7.94734
 20
-15.82257
 30
0.0
 10
-8.25256
 20
-15.82257
 30
0.0
 10
-8.25256
 20
-15.82257
 30
0.0
 10
-8.25256
 20
-15.82257
 30
0.0
 10
-8.25256
 20
-15.82257
 30
0.0
 10
-7.94734
 20
-15.95423
 30
0.0
 10
-7.94734
 20
-15.95423
 30
0.0
 10
-7.94734
 20
-15.95423
 30
0.0
 10
-7.94734
 20
-15.95423
 30
0.0
 10
-8.25256
 20
-16.08546
 30
0.0
 10
-8.25256
 20
-16.08546
 30
0.0
 10
-8.25256
 20
-16.08546
 30
0.0
 10
-8.25256
 20
-16.08546
 30
0.0
 10
-7.94734
 20
-16.08546
 30
0.0
 10
-7.94734
 20
-16.08546
 30
0.0
  0
SPLINE
  5
67
330
1F
100
AcDbEntity
  8
Layer 1
 62
     5
370
    53
100
AcDbSpline
210
0.0
220
0.0
230
1.0
 70
    27
 71
     3
 72
    12
 73
     8
 74
     0
 42
0.0000000001
 43
0.0000000001
 40
0.0
 40
0.0
 40
0.0
 40
0.0
 40
0.5
 40
0.5
 40
0.5
 40
0.5
 40
1.0
 40
1.0
 40
1.0
 40
1.0
 10
-8.10694
 20
-15.66848
 30
0.0
 10
-8.10694
 20
-15.66848
 30
0.0
 10
-8.10694
 20
-15.54529
 30
0.0
 10
-8.10694
 20
-15.54529
 30
0.0
 10
-8.10694
 20
-15.54529
 30
0.0
 10
-8.10694
 20
-15.54529
 30
0.0
 10
-8.10694
 20
-15.66848
 30
0.0
 10
-8.10694
 20
-15.66848
 30
0.0
  0
SPLINE
  5
68
330
1F
100
AcDbEntity
  8
Layer 1
 62
     5
370
    53
100
AcDbSpline
210
0.0
220
0.0
230
1.0
 70
    11
 71
     3
 72
    28
 73
    24
 74
     0
 42
0.0000000001
 43
0.0000000001
 40
0.0
 40
0.0
 40
0.0
 40
0.0
 40
0.1666666666666667
 40
0.1666666666666667
 40
0.1666666666666667
 40
0.1666666666666667
 40
0.3333333333333333
 40
0.3333333333333333
 40
0.3333333333333333
 40
0.3333333333333333
 40
0.5
 40
0.5
 40
0.5
 40
0.5
 40
0.6666666666666666
 40
0.6666666666666666
 40
0.6666666666666666
 40
0.6666666666666666
 40
0.8333333333333333
 40
0.8333333333333333
 40
0.8333333333333333
 40
0.8333333333333333
 40
1.0
 40
1.0
 40
1.0
 40
1.0
 10
-7.94734
 20
-15.40263
 30
0.0
 10
-7.94734
 20
-15.40263
 30
0.0
 10
-8.25256
 20
-15.40263
 30
0.0
 10
-8.25256
 20
-15.40263
 30
0.0
 10
-8.25256
 20
-15.40263
 30
0.0
 10
-8.25256
 20
-15.40263
 30
0.0
 10
-7.94734
 20
-15.18504
 30
0.0
 10
-7.94734
 20
-15.18504
 30
0.0
 10
-7.94734
 20
-15.18504
 30
0.0
 10
-7.94734
 20
-15.18504
 30
0.0
 10
-8.25256
 20
-15.18504
 30
0.0
 10
-8.25256
 20
-15.18504
 30
0.0
 10
-8.25256
 20
-15.18504
 30
0.0
 10
-8.25256
 20
-15.18504
 30
0.0
 10
-7.94734
 20
-15.18504
 30
0.0
 10
-7.94734
 20
-15.18504
 30
0.0
 10
-7.94734
 20
-15.18504
 30
0.0
 10
-7.94734
 20
-15.18504
 30
0.0
 10
-8.25256
 20
-15.40263
 30
0.0
 10
-8.25256
 20
-15.40263
 30
0.0
 10
-8.25256
 20
-15.40263
 30
0.0
 10
-8.25256
 20
-15.40263
 30
0.0
 10
-7.94734
 20
-15.40263
 30
0.0
 10
-7.94734
 20
-15.40263
 30
0.0
  0
SPLINE
  5
69
330
1F
100
AcDbEntity
  8
Layer 1
 62
     5
370
    53
100
AcDbSpline
210
0.0
220
0.0
230
1.0
 70
    11
 71
     3
 72
    52
 73
    48
 74
     0
 42
0.0000000001
 43
0.0000000001
 40
0.0
 40
0.0
 40
0.0
 40
0.0
 40
0.0833333333333333
 40
0.0833333333333333
 40
0.0833333333333333
 40
0.0833333333333333
 40
0.1666666666666667
 40
0.1666666666666667
 40
0.1666666666666667
 40
0.1666666666666667
 40
0.25
 40
0.25
 40
0.25
 40
0.25
 40
0.3333333333333333
 40
0.3333333333333333
 40
0.3333333333333333
 40
0.3333333333333333
 40
0.4166666666666666
 40
0.4166666666666666
 40
0.4166666666666666
 40
0.4166666666666666
 40
0.4999999999999999
 40
0.4999999999999999
 40
0.4999999999999999
 40
0.4999999999999999
 40
0.5833333333333333
 40
0.5833333333333333
 40
0.5833333333333333
 40
0.5833333333333333
 40
0.6666666666666666
 40
0.6666666666666666
 40
0.6666666666666666
 40
0.6666666666666666
 40
0.75
 40
0.75
 40
0.75
 40
0.75
 40
0.8333333333333334
 40
0.8333333333333334
 40
0.8333333333333334
 40
0.8333333333333334
 40
0.9166666666666667
 40
0.9166666666666667
 40
0.9166666666666667
 40
0.9166666666666667
 40
1.0
 40
1.0
 40
1.0
 40
1.0
 10
-7.94734
 20
-14.96109
 30
0.0
 10
-7.94734
 20
-14.96109
 30
0.0
 10
-8.25256
 20
-14.96109
 30
0.0
 10
-8.25256
 20
-14.96109
 30
0.0
 10
-8.25256
 20
-14.96109
 30
0.0
 10
-8.24219
 20
-14.96116
 30
0.0
 10
-8.2333
 20
-14.963
 30
0.0
 10
-8.22589
 20
-14.96653
 30
0.0
 10
-8.22589
 20
-14.96653
 30
0.0
 10
-8.21841
 20
-14.96998
 30
0.0
 10
-8.21227
 20
-14.97457
 30
0.0
 10
-8.20734
 20
-14.98021
 30
0.0
 10
-8.20734
 20
-14.98021
 30
0.0
 10
-8.2024
 20
-14.98586
 30
0.0
 10
-8.19845
 20
-14.99193
 30
0.0
 10
-8.19548
 20
-14.99842
 30
0.0
 10
-8.19548
 20
-14.99842
 30
0.0
 10
-8.19259
 20
-15.00491
 30
0.0
 10
-8.1904
 20
-15.01119
 30
0.0
 10
-8.18906
 20
-15.01726
 30
0.0
 10
-8.18906
 20
-15.01726
 30
0.0
 10
-8.18765
 20
-15.02339
 30
0.0
 10
-8.1868
 20
-15.02862
 30
0.0
 10
-8.18652
 20
-15.03306
 30
0.0
 10
-8.18652
 20
-15.03306
 30
0.0
 10
-8.1868
 20
-15.02862
 30
0.0
 10
-8.18765
 20
-15.02339
 30
0.0
 10
-8.18906
 20
-15.01726
 30
0.0
 10
-8.18906
 20
-15.01726
 30
0.0
 10
-8.1904
 20
-15.01119
 30
0.0
 10
-8.19259
 20
-15.00491
 30
0.0
 10
-8.19548
 20
-14.99842
 30
0.0
 10
-8.19548
 20
-14.99842
 30
0.0
 10
-8.19845
 20
-14.99193
 30
0.0
 10
-8.2024
 20
-14.98586
 30
0.0
 10
-8.20734
 20
-14.98021
 30
0.0
 10
-8.20734
 20
-14.98021
 30
0.0
 10
-8.21227
 20
-14.97457
 30
0.0
 10
-8.21841
 20
-14.96998
 30
0.0
 10
-8.22589
 20
-14.96653
 30
0.0
 10
-8.22589
 20
-14.96653
 30
0.0
 10
-8.2333
 20
-14.963
 30
0.0
 10
-8.24219
 20
-14.96116
 30
0.0
 10
-8.25256
 20
-14.96109
 30
0.0
 10
-8.25256
 20
-14.96109
 30
0.0
 10
-8.25256
 20
-14.96109
 30
0.0
 10
-7.94734
 20
-14.96109
 30
0.0
 10
-7.94734
 20
-14.96109
 30
0.0
  0
SPLINE
  5
6A
330
1F
100
AcDbEntity
  8
Layer 1
 62
     5
370
    53
100
AcDbSpline
210
0.0
220
0.0
230
1.0
 70
    11
 71
     3
 72
    60
 73
    56
 74
     0
 42
0.0000000001
 43
0.0000000001
 40
0.0
 40
0.0
 40
0.0
 40
0.0
 40
0.0714285714285714
 40
0.0714285714285714
 40
0.0714285714285714
 40
0.0714285714285714
 40
0.1428571428571428
 40
0.1428571428571428
 40
0.1428571428571428
 40
0.1428571428571428
 40
0.2142857142857143
 40
0.2142857142857143
 40
0.2142857142857143
 40
0.2142857142857143
 40
0.2857142857142857
 40
0.2857142857142857
 40
0.2857142857142857
 40
0.2857142857142857
 40
0.3571428571428571
 40
0.3571428571428571
 40
0.3571428571428571
 40
0.3571428571428571
 40
0.4285714285714285
 40
0.4285714285714285
 40
0.4285714285714285
 40
0.4285714285714285
 40
0.4999999999999999
 40
0.4999999999999999
 40
0.4999999999999999
 40
0.4999999999999999
 40
0.5714285714285713
 40
0.5714285714285713
 40
0.5714285714285713
 40
0.5714285714285713
 40
0.6428571428571427
 40
0.6428571428571427
 40
0.6428571428571427
 40
0.6428571428571427
 40
0.7142857142857141
 40
0.7142857142857141
 40
0.7142857142857141
 40
0.7142857142857141
 40
0.7857142857142855
 40
0.7857142857142855
 40
0.7857142857142855
 40
0.7857142857142855
 40
0.8571428571428569
 40
0.8571428571428569
 40
0.8571428571428569
 40
0.8571428571428569
 40
0.9285714285714283
 40
0.9285714285714283
 40
0.9285714285714283
 40
0.9285714285714283
 40
1.0
 40
1.0
 40
1.0
 40
1.0
 10
-7.94734
 20
-14.76383
 30
0.0
 10
-7.95912
 20
-14.76362
 30
0.0
 10
-7.97274
 20
-14.76157
 30
0.0
 10
-7.98826
 20
-14.75769
 30
0.0
 10
-7.98826
 20
-14.75769
 30
0.0
 10
-8.00385
 20
-14.75381
 30
0.0
 10
-8.02065
 20
-14.74852
 30
0.0
 10
-8.03864
 20
-14.74181
 30
0.0
 10
-8.03864
 20
-14.74181
 30
0.0
 10
-8.05663
 20
-14.73511
 30
0.0
 10
-8.07512
 20
-14.72735
 30
0.0
 10
-8.09424
 20
-14.7186
 30
0.0
 10
-8.09424
 20
-14.7186
 30
0.0
 10
-8.11336
 20
-14.70992
 30
0.0
 10
-8.13226
 20
-14.70054
 30
0.0
 10
-8.1511
 20
-14.69059
 30
0.0
 10
-8.1511
 20
-14.69059
 30
0.0
 10
-8.16994
 20
-14.68064
 30
0.0
 10
-8.188
 20
-14.67048
 30
0.0
 10
-8.20529
 20
-14.66011
 30
0.0
 10
-8.20529
 20
-14.66011
 30
0.0
 10
-8.2225
 20
-14.64974
 30
0.0
 10
-8.23824
 20
-14.63958
 30
0.0
 10
-8.25256
 20
-14.62963
 30
0.0
 10
-8.25256
 20
-14.62963
 30
0.0
 10
-8.25256
 20
-14.62963
 30
0.0
 10
-8.25256
 20
-14.81886
 30
0.0
 10
-8.25256
 20
-14.81886
 30
0.0
 10
-8.25256
 20
-14.81886
 30
0.0
 10
-8.25256
 20
-14.81886
 30
0.0
 10
-8.25256
 20
-14.62963
 30
0.0
 10
-8.25256
 20
-14.62963
 30
0.0
 10
-8.25256
 20
-14.62963
 30
0.0
 10
-8.23824
 20
-14.63958
 30
0.0
 10
-8.2225
 20
-14.64974
 30
0.0
 10
-8.20529
 20
-14.66011
 30
0.0
 10
-8.20529
 20
-14.66011
 30
0.0
 10
-8.188
 20
-14.67048
 30
0.0
 10
-8.16994
 20
-14.68064
 30
0.0
 10
-8.1511
 20
-14.69059
 30
0.0
 10
-8.1511
 20
-14.69059
 30
0.0
 10
-8.13226
 20
-14.70054
 30
0.0
 10
-8.11336
 20
-14.70992
 30
0.0
 10
-8.09424
 20
-14.7186
 30
0.0
 10
-8.09424
 20
-14.7186
 30
0.0
 10
-8.07512
 20
-14.72735
 30
0.0
 10
-8.05663
 20
-14.73511
 30
0.0
 10
-8.03864
 20
-14.74181
 30
0.0
 10
-8.03864
 20
-14.74181
 30
0.0
 10
-8.02065
 20
-14.74852
 30
0.0
 10
-8.00385
 20
-14.75381
 30
0.0
 10
-7.98826
 20
-14.75769
 30
0.0
 10
-7.98826
 20
-14.75769
 30
0.0
 10
-7.97274
 20
-14.76157
 30
0.0
 10
-7.95912
 20
-14.76362
 30
0.0
 10
-7.94734
 20
-14.76383
 30
0.0
  0
SPLINE
  5
6B
330
1F
100
AcDbEntity
  8
Layer 1
 62
     5
370
    53
100
AcDbSpline
210
0.0
220
0.0
230
1.0
 70
    27
 71
     3
 72
    12
 73
     8
 74
     0
 42
0.0000000001
 43
0.0000000001
 40
0.0
 40
0.0
 40
0.0
 40
0.0
 40
0.5
 40
0.5
 40
0.5
 40
0.5
 40
1.0
 40
1.0
 40
1.0
 40
1.0
 10
-8.10694
 20
-14.5293
 30
0.0
 10
-8.10694
 20
-14.5293
 30
0.0
 10
-8.10694
 20
-14.40611
 30
0.0
 10
-8.10694
 20
-14.40611
 30
0.0
 10
-8.10694
 20
-14.40611
 30
0.0
 10
-8.10694
 20
-14.40611
 30
0.0
 10
-8.10694
 20
-14.5293
 30
0.0
 10
-8.10694
 20
-14.5293
 30
0.0
  0
SPLINE
  5
6C
330
1F
100
AcDbEntity
  8
Layer 1
 62
     5
370
    53
100
AcDbSpline
210
0.0
220
0.0
230
1.0
 70
    11
 71
     3
 72
    84
 73
    80
 74
     0
 42
0.0000000001
 43
0.0000000001
 40
0.0
 40
0.0
 40
0.0
 40
0.0
 40
0.05
 40
0.05
 40
0.05
 40
0.05
 40
0.1
 40
0.1
 40
0.1
 40
0.1
 40
0.15
 40
0.15
 40
0.15
 40
0.15
 40
0.2
 40
0.2
 40
0.2
 40
0.2
 40
0.25
 40
0.25
 40
0.25
 40
0.25
 40
0.3
 40
0.3
 40
0.3
 40
0.3
 40
0.35
 40
0.35
 40
0.35
 40
0.35
 40
0.4
 40
0.4
 40
0.4
 40
0.4
 40
0.45
 40
0.45
 40
0.45
 40
0.45
 40
0.4999999999999999
 40
0.4999999999999999
 40
0.4999999999999999
 40
0.4999999999999999
 40
0.5499999999999999
 40
0.5499999999999999
 40
0.5499999999999999
 40
0.5499999999999999
 40
0.6
 40
0.6
 40
0.6
 40
0.6
 40
0.65
 40
0.65
 40
0.65
 40
0.65
 40
0.7000000000000001
 40
0.7000000000000001
 40
0.7000000000000001
 40
0.7000000000000001
 40
0.7500000000000001
 40
0.7500000000000001
 40
0.7500000000000001
 40
0.7500000000000001
 40
0.8000000000000002
 40
0.8000000000000002
 40
0.8000000000000002
 40
0.8000000000000002
 40
0.8500000000000002
 40
0.8500000000000002
 40
0.8500000000000002
 40
0.8500000000000002
 40
0.9000000000000002
 40
0.9000000000000002
 40
0.9000000000000002
 40
0.9000000000000002
 40
0.9500000000000003
 40
0.9500000000000003
 40
0.9500000000000003
 40
0.9500000000000003
 40
1.0
 40
1.0
 40
1.0
 40
1.0
 10
-7.94734
 20
-14.21688
 30
0.0
 10
-7.94741
 20
-14.20207
 30
0.0
 10
-7.95002
 20
-14.1893
 30
0.0
 10
-7.9551
 20
-14.17864
 30
0.0
 10
-7.9551
 20
-14.17864
 30
0.0
 10
-7.96018
 20
-14.16806
 30
0.0
 10
-7.96745
 20
-14.15924
 30
0.0
 10
-7.97669
 20
-14.15219
 30
0.0
 10
-7.97669
 20
-14.15219
 30
0.0
 10
-7.986
 20
-14.1452
 30
0.0
 10
-7.99701
 20
-14.1397
 30
0.0
 10
-8.00971
 20
-14.13561
 30
0.0
 10
-8.00971
 20
-14.13561
 30
0.0
 10
-8.02241
 20
-14.13158
 30
0.0
 10
-8.03631
 20
-14.12869
 30
0.0
 10
-8.05155
 20
-14.12707
 30
0.0
 10
-8.05155
 20
-14.12707
 30
0.0
 10
-8.06679
 20
-14.12537
 30
0.0
 10
-8.08281
 20
-14.12453
 30
0.0
 10
-8.09974
 20
-14.1246
 30
0.0
 10
-8.09974
 20
-14.1246
 30
0.0
 10
-8.1166
 20
-14.12453
 30
0.0
 10
-8.13262
 20
-14.12537
 30
0.0
 10
-8.14779
 20
-14.12707
 30
0.0
 10
-8.14779
 20
-14.12707
 30
0.0
 10
-8.16296
 20
-14.12869
 30
0.0
 10
-8.17693
 20
-14.13158
 30
0.0
 10
-8.18963
 20
-14.13561
 30
0.0
 10
-8.18963
 20
-14.13561
 30
0.0
 10
-8.20226
 20
-14.1397
 30
0.0
 10
-8.21326
 20
-14.1452
 30
0.0
 10
-8.22265
 20
-14.15219
 30
0.0
 10
-8.22265
 20
-14.15219
 30
0.0
 10
-8.23196
 20
-14.15924
 30
0.0
 10
-8.23923
 20
-14.16806
 30
0.0
 10
-8.24431
 20
-14.17864
 30
0.0
 10
-8.24431
 20
-14.17864
 30
0.0
 10
-8.24946
 20
-14.1893
 30
0.0
 10
-8.25207
 20
-14.20207
 30
0.0
 10
-8.25214
 20
-14.21688
 30
0.0
 10
-8.25214
 20
-14.21688
 30
0.0
 10
-8.25207
 20
-14.2317
 30
0.0
 10
-8.24946
 20
-14.24447
 30
0.0
 10
-8.24431
 20
-14.25513
 30
0.0
 10
-8.24431
 20
-14.25513
 30
0.0
 10
-8.23923
 20
-14.26571
 30
0.0
 10
-8.23196
 20
-14.27453
 30
0.0
 10
-8.22265
 20
-14.28158
 30
0.0
 10
-8.22265
 20
-14.28158
 30
0.0
 10
-8.21326
 20
-14.28857
 30
0.0
 10
-8.20226
 20
-14.29407
 30
0.0
 10
-8.18963
 20
-14.29816
 30
0.0
 10
-8.18963
 20
-14.29816
 30
0.0
 10
-8.17693
 20
-14.30219
 30
0.0
 10
-8.16296
 20
-14.30508
 30
0.0
 10
-8.14779
 20
-14.3067
 30
0.0
 10
-8.14779
 20
-14.3067
 30
0.0
 10
-8.13262
 20
-14.30839
 30
0.0
 10
-8.1166
 20
-14.30924
 30
0.0
 10
-8.09974
 20
-14.30917
 30
0.0
 10
-8.09974
 20
-14.30917
 30
0.0
 10
-8.08281
 20
-14.30924
 30
0.0
 10
-8.06679
 20
-14.30839
 30
0.0
 10
-8.05155
 20
-14.3067
 30
0.0
 10
-8.05155
 20
-14.3067
 30
0.0
 10
-8.03631
 20
-14.30508
 30
0.0
 10
-8.02241
 20
-14.30219
 30
0.0
 10
-8.00971
 20
-14.29816
 30
0.0
 10
-8.00971
 20
-14.29816
 30
0.0
 10
-7.99701
 20
-14.29407
 30
0.0
 10
-7.986
 20
-14.28857
 30
0.0
 10
-7.97669
 20
-14.28158
 30
0.0
 10
-7.97669
 20
-14.28158
 30
0.0
 10
-7.96745
 20
-14.27453
 30
0.0
 10
-7.96018
 20
-14.26571
 30
0.0
 10
-7.9551
 20
-14.25513
 30
0.0
 10
-7.9551
 20
-14.25513
 30
0.0
 10
-7.95002
 20
-14.24447
 30
0.0
 10
-7.94741
 20
-14.2317
 30
0.0
 10
-7.94734
 20
-14.21688
 30
0.0
  0
SPLINE
  5
6D
330
1F
100
AcDbEntity
  8
Layer 1
 62
     5
370
    53
100
AcDbSpline
210
0.0
220
0.0
230
1.0
 70
    11
 71
     3
 72
    84
 73
    80
 74
     0
 42
0.0000000001
 43
0.0000000001
 40
0.0
 40
0.0
 40
0.0
 40
0.0
 40
0.05
 40
0.05
 40
0.05
 40
0.05
 40
0.1
 40
0.1
 40
0.1
 40
0.1
 40
0.15
 40
0.15
 40
0.15
 40
0.15
 40
0.2
 40
0.2
 40
0.2
 40
0.2
 40
0.25
 40
0.25
 40
0.25
 40
0.25
 40
0.3
 40
0.3
 40
0.3
 40
0.3
 40
0.35
 40
0.35
 40
0.35
 40
0.35
 40
0.4
 40
0.4
 40
0.4
 40
0.4
 40
0.45
 40
0.45
 40
0.45
 40
0.45
 40
0.4999999999999999
 40
0.4999999999999999
 40
0.4999999999999999
 40
0.4999999999999999
 40
0.5499999999999999
 40
0.5499999999999999
 40
0.5499999999999999
 40
0.5499999999999999
 40
0.6
 40
0.6
 40
0.6
 40
0.6
 40
0.65
 40
0.65
 40
0.65
 40
0.65
 40
0.7000000000000001
 40
0.7000000000000001
 40
0.7000000000000001
 40
0.7000000000000001
 40
0.7500000000000001
 40
0.7500000000000001
 40
0.7500000000000001
 40
0.7500000000000001
 40
0.8000000000000002
 40
0.8000000000000002
 40
0.8000000000000002
 40
0.8000000000000002
 40
0.8500000000000002
 40
0.8500000000000002
 40
0.8500000000000002
 40
0.8500000000000002
 40
0.9000000000000002
 40
0.9000000000000002
 40
0.9000000000000002
 40
0.9000000000000002
 40
0.9500000000000003
 40
0.9500000000000003
 40
0.9500000000000003
 40
0.9500000000000003
 40
1.0
 40
1.0
 40
1.0
 40
1.0
 10
-7.94734
 20
-14.21688
 30
0.0
 10
-7.94741
 20
-14.20207
 30
0.0
 10
-7.95002
 20
-14.1893
 30
0.0
 10
-7.9551
 20
-14.17864
 30
0.0
 10
-7.9551
 20
-14.17864
 30
0.0
 10
-7.96018
 20
-14.16806
 30
0.0
 10
-7.96745
 20
-14.15924
 30
0.0
 10
-7.97669
 20
-14.15219
 30
0.0
 10
-7.97669
 20
-14.15219
 30
0.0
 10
-7.986
 20
-14.1452
 30
0.0
 10
-7.99701
 20
-14.1397
 30
0.0
 10
-8.00971
 20
-14.13561
 30
0.0
 10
-8.00971
 20
-14.13561
 30
0.0
 10
-8.02241
 20
-14.13158
 30
0.0
 10
-8.03631
 20
-14.12869
 30
0.0
 10
-8.05155
 20
-14.12707
 30
0.0
 10
-8.05155
 20
-14.12707
 30
0.0
 10
-8.06679
 20
-14.12537
 30
0.0
 10
-8.08281
 20
-14.12453
 30
0.0
 10
-8.09974
 20
-14.1246
 30
0.0
 10
-8.09974
 20
-14.1246
 30
0.0
 10
-8.1166
 20
-14.12453
 30
0.0
 10
-8.13262
 20
-14.12537
 30
0.0
 10
-8.14779
 20
-14.12707
 30
0.0
 10
-8.14779
 20
-14.12707
 30
0.0
 10
-8.16296
 20
-14.12869
 30
0.0
 10
-8.17693
 20
-14.13158
 30
0.0
 10
-8.18963
 20
-14.13561
 30
0.0
 10
-8.18963
 20
-14.13561
 30
0.0
 10
-8.20226
 20
-14.1397
 30
0.0
 10
-8.21326
 20
-14.1452
 30
0.0
 10
-8.22265
 20
-14.15219
 30
0.0
 10
-8.22265
 20
-14.15219
 30
0.0
 10
-8.23196
 20
-14.15924
 30
0.0
 10
-8.23923
 20
-14.16806
 30
0.0
 10
-8.24431
 20
-14.17864
 30
0.0
 10
-8.24431
 20
-14.17864
 30
0.0
 10
-8.24946
 20
-14.1893
 30
0.0
 10
-8.25207
 20
-14.20207
 30
0.0
 10
-8.25214
 20
-14.21688
 30
0.0
 10
-8.25214
 20
-14.21688
 30
0.0
 10
-8.25207
 20
-14.2317
 30
0.0
 10
-8.24946
 20
-14.24447
 30
0.0
 10
-8.24431
 20
-14.25513
 30
0.0
 10
-8.24431
 20
-14.25513
 30
0.0
 10
-8.23923
 20
-14.26571
 30
0.0
 10
-8.23196
 20
-14.27453
 30
0.0
 10
-8.22265
 20
-14.28158
 30
0.0
 10
-8.22265
 20
-14.28158
 30
0.0
 10
-8.21326
 20
-14.28857
 30
0.0
 10
-8.20226
 20
-14.29407
 30
0.0
 10
-8.18963
 20
-14.29816
 30
0.0
 10
-8.18963
 20
-14.29816
 30
0.0
 10
-8.17693
 20
-14.30219
 30
0.0
 10
-8.16296
 20
-14.30508
 30
0.0
 10
-8.14779
 20
-14.3067
 30
0.0
 10
-8.14779
 20
-14.3067
 30
0.0
 10
-8.13262
 20
-14.30839
 30
0.0
 10
-8.1166
 20
-14.30924
 30
0.0
 10
-8.09974
 20
-14.30917
 30
0.0
 10
-8.09974
 20
-14.30917
 30
0.0
 10
-8.08281
 20
-14.30924
 30
0.0
 10
-8.06679
 20
-14.30839
 30
0.0
 10
-8.05155
 20
-14.3067
 30
0.0
 10
-8.05155
 20
-14.3067
 30
0.0
 10
-8.03631
 20
-14.30508
 30
0.0
 10
-8.02241
 20
-14.30219
 30
0.0
 10
-8.00971
 20
-14.29816
 30
0.0
 10
-8.00971
 20
-14.29816
 30
0.0
 10
-7.99701
 20
-14.29407
 30
0.0
 10
-7.986
 20
-14.28857
 30
0.0
 10
-7.97669
 20
-14.28158
 30
0.0
 10
-7.97669
 20
-14.28158
 30
0.0
 10
-7.96745
 20
-14.27453
 30
0.0
 10
-7.96018
 20
-14.26571
 30
0.0
 10
-7.9551
 20
-14.25513
 30
0.0
 10
-7.9551
 20
-14.25513
 30
0.0
 10
-7.95002
 20
-14.24447
 30
0.0
 10
-7.94741
 20
-14.2317
 30
0.0
 10
-7.94734
 20
-14.21688
 30
0.0
  0
SPLINE
  5
6E
330
1F
100
AcDbEntity
  8
Layer 1
 62
     5
370
    53
100
AcDbSpline
210
0.0
220
0.0
230
1.0
 70
    11
 71
     3
 72
   180
 73
   176
 74
     0
 42
0.0000000001
 43
0.0000000001
 40
0.0
 40
0.0
 40
0.0
 40
0.0
 40
0.0227272727272727
 40
0.0227272727272727
 40
0.0227272727272727
 40
0.0227272727272727
 40
0.0454545454545455
 40
0.0454545454545455
 40
0.0454545454545455
 40
0.0454545454545455
 40
0.0681818181818182
 40
0.0681818181818182
 40
0.0681818181818182
 40
0.0681818181818182
 40
0.0909090909090909
 40
0.0909090909090909
 40
0.0909090909090909
 40
0.0909090909090909
 40
0.1136363636363636
 40
0.1136363636363636
 40
0.1136363636363636
 40
0.1136363636363636
 40
0.1363636363636364
 40
0.1363636363636364
 40
0.1363636363636364
 40
0.1363636363636364
 40
0.1590909090909091
 40
0.1590909090909091
 40
0.1590909090909091
 40
0.1590909090909091
 40
0.1818181818181819
 40
0.1818181818181819
 40
0.1818181818181819
 40
0.1818181818181819
 40
0.2045454545454546
 40
0.2045454545454546
 40
0.2045454545454546
 40
0.2045454545454546
 40
0.2272727272727273
 40
0.2272727272727273
 40
0.2272727272727273
 40
0.2272727272727273
 40
0.2500000000000001
 40
0.2500000000000001
 40
0.2500000000000001
 40
0.2500000000000001
 40
0.2727272727272728
 40
0.2727272727272728
 40
0.2727272727272728
 40
0.2727272727272728
 40
0.2954545454545455
 40
0.2954545454545455
 40
0.2954545454545455
 40
0.2954545454545455
 40
0.3181818181818182
 40
0.3181818181818182
 40
0.3181818181818182
 40
0.3181818181818182
 40
0.3409090909090909
 40
0.3409090909090909
 40
0.3409090909090909
 40
0.3409090909090909
 40
0.3636363636363636
 40
0.3636363636363636
 40
0.3636363636363636
 40
0.3636363636363636
 40
0.3863636363636363
 40
0.3863636363636363
 40
0.3863636363636363
 40
0.3863636363636363
 40
0.409090909090909
 40
0.409090909090909
 40
0.409090909090909
 40
0.409090909090909
 40
0.4318181818181817
 40
0.4318181818181817
 40
0.4318181818181817
 40
0.4318181818181817
 40
0.4545454545454544
 40
0.4545454545454544
 40
0.4545454545454544
 40
0.4545454545454544
 40
0.4772727272727271
 40
0.4772727272727271
 40
0.4772727272727271
 40
0.4772727272727271
 40
0.4999999999999998
 40
0.4999999999999998
 40
0.4999999999999998
 40
0.4999999999999998
 40
0.5227272727272726
 40
0.5227272727272726
 40
0.5227272727272726
 40
0.5227272727272726
 40
0.5454545454545453
 40
0.5454545454545453
 40
0.5454545454545453
 40
0.5454545454545453
 40
0.568181818181818
 40
0.568181818181818
 40
0.568181818181818
 40
0.568181818181818
 40
0.5909090909090907
 40
0.5909090909090907
 40
0.5909090909090907
 40
0.5909090909090907
 40
0.6136363636363634
 40
0.6136363636363634
 40
0.6136363636363634
 40
0.6136363636363634
 40
0.6363636363636361
 40
0.6363636363636361
 40
0.6363636363636361
 40
0.6363636363636361
 40
0.6590909090909088
 40
0.6590909090909088
 40
0.6590909090909088
 40
0.6590909090909088
 40
0.6818181818181815
 40
0.6818181818181815
 40
0.6818181818181815
 40
0.6818181818181815
 40
0.7045454545454543
 40
0.7045454545454543
 40
0.7045454545454543
 40
0.7045454545454543
 40
0.727272727272727
 40
0.727272727272727
 40
0.727272727272727
 40
0.727272727272727
 40
0.7499999999999997
 40
0.7499999999999997
 40
0.7499999999999997
 40
0.7499999999999997
 40
0.7727272727272724
 40
0.7727272727272724
 40
0.7727272727272724
 40
0.7727272727272724
 40
0.7954545454545451
 40
0.7954545454545451
 40
0.7954545454545451
 40
0.7954545454545451
 40
0.8181818181818178
 40
0.8181818181818178
 40
0.8181818181818178
 40
0.8181818181818178
 40
0.8409090909090905
 40
0.8409090909090905
 40
0.8409090909090905
 40
0.8409090909090905
 40
0.8636363636363632
 40
0.8636363636363632
 40
0.8636363636363632
 40
0.8636363636363632
 40
0.8863636363636359
 40
0.8863636363636359
 40
0.8863636363636359
 40
0.8863636363636359
 40
0.9090909090909086
 40
0.9090909090909086
 40
0.9090909090909086
 40
0.9090909090909086
 40
0.9318181818181813
 40
0.9318181818181813
 40
0.9318181818181813
 40
0.9318181818181813
 40
0.954545454545454
 40
0.954545454545454
 40
0.954545454545454
 40
0.954545454545454
 40
0.9772727272727267
 40
0.9772727272727267
 40
0.9772727272727267
 40
0.9772727272727267
 40
1.0
 40
1.0
 40
1.0
 40
1.0
 10
-8.25256
 20
-13.85282
 30
0.0
 10
-8.25256
 20
-13.85282
 30
0.0
 10
-8.25256
 20
-13.97982
 30
0.0
 10
-8.25256
 20
-13.97982
 30
0.0
 10
-8.25256
 20
-13.97982
 30
0.0
 10
-8.25256
 20
-13.97982
 30
0.0
 10
-8.10101
 20
-14.01369
 30
0.0
 10
-8.10101
 20
-14.01369
 30
0.0
 10
-8.10101
 20
-14.01369
 30
0.0
 10
-8.10609
 20
-14.00776
 30
0.0
 10
-8.11067
 20
-14.00212
 30
0.0
 10
-8.1147
 20
-13.99668
 30
0.0
 10
-8.1147
 20
-13.99668
 30
0.0
 10
-8.11872
 20
-13.99132
 30
0.0
 10
-8.1221
 20
-13.98568
 30
0.0
 10
-8.12493
 20
-13.97968
 30
0.0
 10
-8.12493
 20
-13.97968
 30
0.0
 10
-8.12775
 20
-13.97375
 30
0.0
 10
-8.12987
 20
-13.96698
 30
0.0
 10
-8.13135
 20
-13.95936
 30
0.0
 10
-8.13135
 20
-13.95936
 30
0.0
 10
-8.13283
 20
-13.95181
 30
0.0
 10
-8.13361
 20
-13.94278
 30
0.0
 10
-8.13361
 20
-13.93241
 30
0.0
 10
-8.13361
 20
-13.93241
 30
0.0
 10
-8.13361
 20
-13.92394
 30
0.0
 10
-8.13248
 20
-13.91547
 30
0.0
 10
-8.13015
 20
-13.90701
 30
0.0
 10
-8.13015
 20
-13.90701
 30
0.0
 10
-8.12789
 20
-13.89854
 30
0.0
 10
-8.12443
 20
-13.8905
 30
0.0
 10
-8.11985
 20
-13.88288
 30
0.0
 10
-8.11985
 20
-13.88288
 30
0.0
 10
-8.11519
 20
-13.87519
 30
0.0
 10
-8.1094
 20
-13.86841
 30
0.0
 10
-8.10242
 20
-13.86249
 30
0.0
 10
-8.10242
 20
-13.86249
 30
0.0
 10
-8.09543
 20
-13.85649
 30
0.0
 10
-8.08725
 20
-13.85176
 30
0.0
 10
-8.07787
 20
-13.84838
 30
0.0
 10
-8.07787
 20
-13.84838
 30
0.0
 10
-8.06848
 20
-13.84492
 30
0.0
 10
-8.05783
 20
-13.84316
 30
0.0
 10
-8.04598
 20
-13.84309
 30
0.0
 10
-8.04598
 20
-13.84309
 30
0.0
 10
-8.0416
 20
-13.84301
 30
0.0
 10
-8.0361
 20
-13.84351
 30
0.0
 10
-8.02961
 20
-13.8445
 30
0.0
 10
-8.02961
 20
-13.8445
 30
0.0
 10
-8.02312
 20
-13.84541
 30
0.0
 10
-8.01606
 20
-13.84711
 30
0.0
 10
-8.00858
 20
-13.84951
 30
0.0
 10
-8.00858
 20
-13.84951
 30
0.0
 10
-8.0011
 20
-13.8519
 30
0.0
 10
-7.99369
 20
-13.85529
 30
0.0
 10
-7.98636
 20
-13.85959
 30
0.0
 10
-7.98636
 20
-13.85959
 30
0.0
 10
-7.97902
 20
-13.8639
 30
0.0
 10
-7.97232
 20
-13.8694
 30
0.0
 10
-7.96625
 20
-13.87603
 30
0.0
 10
-7.96625
 20
-13.87603
 30
0.0
 10
-7.96018
 20
-13.88267
 30
0.0
 10
-7.95531
 20
-13.89071
 30
0.0
 10
-7.95164
 20
-13.90009
 30
0.0
 10
-7.95164
 20
-13.90009
 30
0.0
 10
-7.94805
 20
-13.90955
 30
0.0
 10
-7.94614
 20
-13.92063
 30
0.0
 10
-7.94607
 20
-13.93325
 30
0.0
 10
-7.94607
 20
-13.93325
 30
0.0
 10
-7.94614
 20
-13.94835
 30
0.0
 10
-7.94776
 20
-13.96105
 30
0.0
 10
-7.9508
 20
-13.97135
 30
0.0
 10
-7.9508
 20
-13.97135
 30
0.0
 10
-7.9539
 20
-13.98166
 30
0.0
 10
-7.95792
 20
-13.99005
 30
0.0
 10
-7.963
 20
-13.99654
 30
0.0
 10
-7.963
 20
-13.99654
 30
0.0
 10
-7.96808
 20
-14.0031
 30
0.0
 10
-7.97366
 20
-14.00818
 30
0.0
 10
-7.97972
 20
-14.01185
 30
0.0
 10
-7.97972
 20
-14.01185
 30
0.0
 10
-7.98579
 20
-14.01552
 30
0.0
 10
-7.99186
 20
-14.01827
 30
0.0
 10
-7.99793
 20
-14.02011
 30
0.0
 10
-7.99793
 20
-14.02011
 30
0.0
 10
-8.004
 20
-14.02194
 30
0.0
 10
-8.00957
 20
-14.02335
 30
0.0
 10
-8.01465
 20
-14.02427
 30
0.0
 10
-8.01465
 20
-14.02427
 30
0.0
 10
-8.00957
 20
-14.02335
 30
0.0
 10
-8.004
 20
-14.02194
 30
0.0
 10
-7.99793
 20
-14.02011
 30
0.0
 10
-7.99793
 20
-14.02011
 30
0.0
 10
-7.99186
 20
-14.01827
 30
0.0
 10
-7.98579
 20
-14.01552
 30
0.0
 10
-7.97972
 20
-14.01185
 30
0.0
 10
-7.97972
 20
-14.01185
 30
0.0
 10
-7.97366
 20
-14.00818
 30
0.0
 10
-7.96808
 20
-14.0031
 30
0.0
 10
-7.963
 20
-13.99654
 30
0.0
 10
-7.963
 20
-13.99654
 30
0.0
 10
-7.95792
 20
-13.99005
 30
0.0
 10
-7.9539
 20
-13.98166
 30
0.0
 10
-7.9508
 20
-13.97135
 30
0.0
 10
-7.9508
 20
-13.97135
 30
0.0
 10
-7.94776
 20
-13.96105
 30
0.0
 10
-7.94614
 20
-13.94835
 30
0.0
 10
-7.94607
 20
-13.93325
 30
0.0
 10
-7.94607
 20
-13.93325
 30
0.0
 10
-7.94614
 20
-13.92063
 30
0.0
 10
-7.94805
 20
-13.90955
 30
0.0
 10
-7.95164
 20
-13.90009
 30
0.0
 10
-7.95164
 20
-13.90009
 30
0.0
 10
-7.95531
 20
-13.89071
 30
0.0
 10
-7.96018
 20
-13.88267
 30
0.0
 10
-7.96625
 20
-13.87603
 30
0.0
 10
-7.96625
 20
-13.87603
 30
0.0
 10
-7.97232
 20
-13.8694
 30
0.0
 10
-7.97902
 20
-13.8639
 30
0.0
 10
-7.98636
 20
-13.85959
 30
0.0
 10
-7.98636
 20
-13.85959
 30
0.0
 10
-7.99369
 20
-13.85529
 30
0.0
 10
-8.0011
 20
-13.8519
 30
0.0
 10
-8.00858
 20
-13.84951
 30
0.0
 10
-8.00858
 20
-13.84951
 30
0.0
 10
-8.01606
 20
-13.84711
 30
0.0
 10
-8.02312
 20
-13.84541
 30
0.0
 10
-8.02961
 20
-13.8445
 30
0.0
 10
-8.02961
 20
-13.8445
 30
0.0
 10
-8.0361
 20
-13.84351
 30
0.0
 10
-8.0416
 20
-13.84301
 30
0.0
 10
-8.04598
 20
-13.84309
 30
0.0
 10
-8.04598
 20
-13.84309
 30
0.0
 10
-8.05783
 20
-13.84316
 30
0.0
 10
-8.06848
 20
-13.84492
 30
0.0
 10
-8.07787
 20
-13.84838
 30
0.0
 10
-8.07787
 20
-13.84838
 30
0.0
 10
-8.08725
 20
-13.85176
 30
0.0
 10
-8.09543
 20
-13.85649
 30
0.0
 10
-8.10242
 20
-13.86249
 30
0.0
 10
-8.10242
 20
-13.86249
 30
0.0
 10
-8.1094
 20
-13.86841
 30
0.0
 10
-8.11519
 20
-13.87519
 30
0.0
 10
-8.11985
 20
-13.88288
 30
0.0
 10
-8.11985
 20
-13.88288
 30
0.0
 10
-8.12443
 20
-13.8905
 30
0.0
 10
-8.12789
 20
-13.89854
 30
0.0
 10
-8.13015
 20
-13.90701
 30
0.0
 10
-8.13015
 20
-13.90701
 30
0.0
 10
-8.13248
 20
-13.91547
 30
0.0
 10
-8.13361
 20
-13.92394
 30
0.0
 10
-8.13361
 20
-13.93241
 30
0.0
 10
-8.13361
 20
-13.93241
 30
0.0
 10
-8.13361
 20
-13.94278
 30
0.0
 10
-8.13283
 20
-13.95181
 30
0.0
 10
-8.13135
 20
-13.95936
 30
0.0
 10
-8.13135
 20
-13.95936
 30
0.0
 10
-8.12987
 20
-13.96698
 30
0.0
 10
-8.12775
 20
-13.97375
 30
0.0
 10
-8.12493
 20
-13.97968
 30
0.0
 10
-8.12493
 20
-13.97968
 30
0.0
 10
-8.1221
 20
-13.98568
 30
0.0
 10
-8.11872
 20
-13.99132
 30
0.0
 10
-8.1147
 20
-13.99668
 30
0.0
 10
-8.1147
 20
-13.99668
 30
0.0
 10
-8.11067
 20
-14.00212
 30
0.0
 10
-8.10609
 20
-14.00776
 30
0.0
 10
-8.10101
 20
-14.01369
 30
0.0
 10
-8.10101
 20
-14.01369
 30
0.0
 10
-8.10101
 20
-14.01369
 30
0.0
 10
-8.25256
 20
-13.97982
 30
0.0
 10
-8.25256
 20
-13.97982
 30
0.0
 10
-8.25256
 20
-13.97982
 30
0.0
 10
-8.25256
 20
-13.97982
 30
0.0
 10
-8.25256
 20
-13.85282
 30
0.0
 10
-8.25256
 20
-13.85282
 30
0.0
  0
SPLINE
  5
6F
330
1F
100
AcDbEntity
  8
Layer 1
 62
     5
370
    53
100
AcDbSpline
210
0.0
220
0.0
230
1.0
 70
    27
 71
     3
 72
    12
 73
     8
 74
     0
 42
0.0000000001
 43
0.0000000001
 40
0.0
 40
0.0
 40
0.0
 40
0.0
 40
0.5
 40
0.5
 40
0.5
 40
0.5
 40
1.0
 40
1.0
 40
1.0
 40
1.0
 10
-8.10694
 20
-13.74318
 30
0.0
 10
-8.10694
 20
-13.74318
 30
0.0
 10
-8.10694
 20
-13.61999
 30
0.0
 10
-8.10694
 20
-13.61999
 30
0.0
 10
-8.10694
 20
-13.61999
 30
0.0
 10
-8.10694
 20
-13.61999
 30
0.0
 10
-8.10694
 20
-13.74318
 30
0.0
 10
-8.10694
 20
-13.74318
 30
0.0
  0
SPLINE
  5
70
330
1F
100
AcDbEntity
  8
Layer 1
 62
     5
370
    53
100
AcDbSpline
210
0.0
220
0.0
230
1.0
 70
    11
 71
     3
 72
    84
 73
    80
 74
     0
 42
0.0000000001
 43
0.0000000001
 40
0.0
 40
0.0
 40
0.0
 40
0.0
 40
0.05
 40
0.05
 40
0.05
 40
0.05
 40
0.1
 40
0.1
 40
0.1
 40
0.1
 40
0.15
 40
0.15
 40
0.15
 40
0.15
 40
0.2
 40
0.2
 40
0.2
 40
0.2
 40
0.25
 40
0.25
 40
0.25
 40
0.25
 40
0.3
 40
0.3
 40
0.3
 40
0.3
 40
0.35
 40
0.35
 40
0.35
 40
0.35
 40
0.4
 40
0.4
 40
0.4
 40
0.4
 40
0.45
 40
0.45
 40
0.45
 40
0.45
 40
0.4999999999999999
 40
0.4999999999999999
 40
0.4999999999999999
 40
0.4999999999999999
 40
0.5499999999999999
 40
0.5499999999999999
 40
0.5499999999999999
 40
0.5499999999999999
 40
0.6
 40
0.6
 40
0.6
 40
0.6
 40
0.65
 40
0.65
 40
0.65
 40
0.65
 40
0.7000000000000001
 40
0.7000000000000001
 40
0.7000000000000001
 40
0.7000000000000001
 40
0.7500000000000001
 40
0.7500000000000001
 40
0.7500000000000001
 40
0.7500000000000001
 40
0.8000000000000002
 40
0.8000000000000002
 40
0.8000000000000002
 40
0.8000000000000002
 40
0.8500000000000002
 40
0.8500000000000002
 40
0.8500000000000002
 40
0.8500000000000002
 40
0.9000000000000002
 40
0.9000000000000002
 40
0.9000000000000002
 40
0.9000000000000002
 40
0.9500000000000003
 40
0.9500000000000003
 40
0.9500000000000003
 40
0.9500000000000003
 40
1.0
 40
1.0
 40
1.0
 40
1.0
 10
-7.94734
 20
-13.43076
 30
0.0
 10
-7.94741
 20
-13.41595
 30
0.0
 10
-7.95002
 20
-13.40318
 30
0.0
 10
-7.9551
 20
-13.39252
 30
0.0
 10
-7.9551
 20
-13.39252
 30
0.0
 10
-7.96018
 20
-13.38194
 30
0.0
 10
-7.96745
 20
-13.37312
 30
0.0
 10
-7.97669
 20
-13.36607
 30
0.0
 10
-7.97669
 20
-13.36607
 30
0.0
 10
-7.986
 20
-13.35908
 30
0.0
 10
-7.99701
 20
-13.35358
 30
0.0
 10
-8.00971
 20
-13.34949
 30
0.0
 10
-8.00971
 20
-13.34949
 30
0.0
 10
-8.02241
 20
-13.34546
 30
0.0
 10
-8.03631
 20
-13.34257
 30
0.0
 10
-8.05155
 20
-13.34095
 30
0.0
 10
-8.05155
 20
-13.34095
 30
0.0
 10
-8.06679
 20
-13.33925
 30
0.0
 10
-8.08281
 20
-13.33841
 30
0.0
 10
-8.09974
 20
-13.33848
 30
0.0
 10
-8.09974
 20
-13.33848
 30
0.0
 10
-8.1166
 20
-13.33841
 30
0.0
 10
-8.13262
 20
-13.33925
 30
0.0
 10
-8.14779
 20
-13.34095
 30
0.0
 10
-8.14779
 20
-13.34095
 30
0.0
 10
-8.16296
 20
-13.34257
 30
0.0
 10
-8.17693
 20
-13.34546
 30
0.0
 10
-8.18963
 20
-13.34949
 30
0.0
 10
-8.18963
 20
-13.34949
 30
0.0
 10
-8.20226
 20
-13.35358
 30
0.0
 10
-8.21326
 20
-13.35908
 30
0.0
 10
-8.22265
 20
-13.36607
 30
0.0
 10
-8.22265
 20
-13.36607
 30
0.0
 10
-8.23196
 20
-13.37312
 30
0.0
 10
-8.23923
 20
-13.38194
 30
0.0
 10
-8.24431
 20
-13.39252
 30
0.0
 10
-8.24431
 20
-13.39252
 30
0.0
 10
-8.24946
 20
-13.40318
 30
0.0
 10
-8.25207
 20
-13.41595
 30
0.0
 10
-8.25214
 20
-13.43076
 30
0.0
 10
-8.25214
 20
-13.43076
 30
0.0
 10
-8.25207
 20
-13.44558
 30
0.0
 10
-8.24946
 20
-13.45835
 30
0.0
 10
-8.24431
 20
-13.46901
 30
0.0
 10
-8.24431
 20
-13.46901
 30
0.0
 10
-8.23923
 20
-13.47959
 30
0.0
 10
-8.23196
 20
-13.48841
 30
0.0
 10
-8.22265
 20
-13.49546
 30
0.0
 10
-8.22265
 20
-13.49546
 30
0.0
 10
-8.21326
 20
-13.50245
 30
0.0
 10
-8.20226
 20
-13.50795
 30
0.0
 10
-8.18963
 20
-13.51204
 30
0.0
 10
-8.18963
 20
-13.51204
 30
0.0
 10
-8.17693
 20
-13.51607
 30
0.0
 10
-8.16296
 20
-13.51896
 30
0.0
 10
-8.14779
 20
-13.52058
 30
0.0
 10
-8.14779
 20
-13.52058
 30
0.0
 10
-8.13262
 20
-13.52227
 30
0.0
 10
-8.1166
 20
-13.52312
 30
0.0
 10
-8.09974
 20
-13.52305
 30
0.0
 10
-8.09974
 20
-13.52305
 30
0.0
 10
-8.08281
 20
-13.52312
 30
0.0
 10
-8.06679
 20
-13.52227
 30
0.0
 10
-8.05155
 20
-13.52058
 30
0.0
 10
-8.05155
 20
-13.52058
 30
0.0
 10
-8.03631
 20
-13.51896
 30
0.0
 10
-8.02241
 20
-13.51607
 30
0.0
 10
-8.00971
 20
-13.51204
 30
0.0
 10
-8.00971
 20
-13.51204
 30
0.0
 10
-7.99701
 20
-13.50795
 30
0.0
 10
-7.986
 20
-13.50245
 30
0.0
 10
-7.97669
 20
-13.49546
 30
0.0
 10
-7.97669
 20
-13.49546
 30
0.0
 10
-7.96745
 20
-13.48841
 30
0.0
 10
-7.96018
 20
-13.47959
 30
0.0
 10
-7.9551
 20
-13.46901
 30
0.0
 10
-7.9551
 20
-13.46901
 30
0.0
 10
-7.95002
 20
-13.45835
 30
0.0
 10
-7.94741
 20
-13.44558
 30
0.0
 10
-7.94734
 20
-13.43076
 30
0.0
  0
SPLINE
  5
71
330
1F
100
AcDbEntity
  8
Layer 1
 62
     5
370
    53
100
AcDbSpline
210
0.0
220
0.0
230
1.0
 70
    11
 71
     3
 72
    84
 73
    80
 74
     0
 42
0.0000000001
 43
0.0000000001
 40
0.0
 40
0.0
 40
0.0
 40
0.0
 40
0.05
 40
0.05
 40
0.05
 40
0.05
 40
0.1
 40
0.1
 40
0.1
 40
0.1
 40
0.15
 40
0.15
 40
0.15
 40
0.15
 40
0.2
 40
0.2
 40
0.2
 40
0.2
 40
0.25
 40
0.25
 40
0.25
 40
0.25
 40
0.3
 40
0.3
 40
0.3
 40
0.3
 40
0.35
 40
0.35
 40
0.35
 40
0.35
 40
0.4
 40
0.4
 40
0.4
 40
0.4
 40
0.45
 40
0.45
 40
0.45
 40
0.45
 40
0.4999999999999999
 40
0.4999999999999999
 40
0.4999999999999999
 40
0.4999999999999999
 40
0.5499999999999999
 40
0.5499999999999999
 40
0.5499999999999999
 40
0.5499999999999999
 40
0.6
 40
0.6
 40
0.6
 40
0.6
 40
0.65
 40
0.65
 40
0.65
 40
0.65
 40
0.7000000000000001
 40
0.7000000000000001
 40
0.7000000000000001
 40
0.7000000000000001
 40
0.7500000000000001
 40
0.7500000000000001
 40
0.7500000000000001
 40
0.7500000000000001
 40
0.8000000000000002
 40
0.8000000000000002
 40
0.8000000000000002
 40
0.8000000000000002
 40
0.8500000000000002
 40
0.8500000000000002
 40
0.8500000000000002
 40
0.8500000000000002
 40
0.9000000000000002
 40
0.9000000000000002
 40
0.9000000000000002
 40
0.9000000000000002
 40
0.9500000000000003
 40
0.9500000000000003
 40
0.9500000000000003
 40
0.9500000000000003
 40
1.0
 40
1.0
 40
1.0
 40
1.0
 10
-7.94734
 20
-13.43076
 30
0.0
 10
-7.94741
 20
-13.41595
 30
0.0
 10
-7.95002
 20
-13.40318
 30
0.0
 10
-7.9551
 20
-13.39252
 30
0.0
 10
-7.9551
 20
-13.39252
 30
0.0
 10
-7.96018
 20
-13.38194
 30
0.0
 10
-7.96745
 20
-13.37312
 30
0.0
 10
-7.97669
 20
-13.36607
 30
0.0
 10
-7.97669
 20
-13.36607
 30
0.0
 10
-7.986
 20
-13.35908
 30
0.0
 10
-7.99701
 20
-13.35358
 30
0.0
 10
-8.00971
 20
-13.34949
 30
0.0
 10
-8.00971
 20
-13.34949
 30
0.0
 10
-8.02241
 20
-13.34546
 30
0.0
 10
-8.03631
 20
-13.34257
 30
0.0
 10
-8.05155
 20
-13.34095
 30
0.0
 10
-8.05155
 20
-13.34095
 30
0.0
 10
-8.06679
 20
-13.33925
 30
0.0
 10
-8.08281
 20
-13.33841
 30
0.0
 10
-8.09974
 20
-13.33848
 30
0.0
 10
-8.09974
 20
-13.33848
 30
0.0
 10
-8.1166
 20
-13.33841
 30
0.0
 10
-8.13262
 20
-13.33925
 30
0.0
 10
-8.14779
 20
-13.34095
 30
0.0
 10
-8.14779
 20
-13.34095
 30
0.0
 10
-8.16296
 20
-13.34257
 30
0.0
 10
-8.17693
 20
-13.34546
 30
0.0
 10
-8.18963
 20
-13.34949
 30
0.0
 10
-8.18963
 20
-13.34949
 30
0.0
 10
-8.20226
 20
-13.35358
 30
0.0
 10
-8.21326
 20
-13.35908
 30
0.0
 10
-8.22265
 20
-13.36607
 30
0.0
 10
-8.22265
 20
-13.36607
 30
0.0
 10
-8.23196
 20
-13.37312
 30
0.0
 10
-8.23923
 20
-13.38194
 30
0.0
 10
-8.24431
 20
-13.39252
 30
0.0
 10
-8.24431
 20
-13.39252
 30
0.0
 10
-8.24946
 20
-13.40318
 30
0.0
 10
-8.25207
 20
-13.41595
 30
0.0
 10
-8.25214
 20
-13.43076
 30
0.0
 10
-8.25214
 20
-13.43076
 30
0.0
 10
-8.25207
 20
-13.44558
 30
0.0
 10
-8.24946
 20
-13.45835
 30
0.0
 10
-8.24431
 20
-13.46901
 30
0.0
 10
-8.24431
 20
-13.46901
 30
0.0
 10
-8.23923
 20
-13.47959
 30
0.0
 10
-8.23196
 20
-13.48841
 30
0.0
 10
-8.22265
 20
-13.49546
 30
0.0
 10
-8.22265
 20
-13.49546
 30
0.0
 10
-8.21326
 20
-13.50245
 30
0.0
 10
-8.20226
 20
-13.50795
 30
0.0
 10
-8.18963
 20
-13.51204
 30
0.0
 10
-8.18963
 20
-13.51204
 30
0.0
 10
-8.17693
 20
-13.51607
 30
0.0
 10
-8.16296
 20
-13.51896
 30
0.0
 10
-8.14779
 20
-13.52058
 30
0.0
 10
-8.14779
 20
-13.52058
 30
0.0
 10
-8.13262
 20
-13.52227
 30
0.0
 10
-8.1166
 20
-13.52312
 30
0.0
 10
-8.09974
 20
-13.52305
 30
0.0
 10
-8.09974
 20
-13.52305
 30
0.0
 10
-8.08281
 20
-13.52312
 30
0.0
 10
-8.06679
 20
-13.52227
 30
0.0
 10
-8.05155
 20
-13.52058
 30
0.0
 10
-8.05155
 20
-13.52058
 30
0.0
 10
-8.03631
 20
-13.51896
 30
0.0
 10
-8.02241
 20
-13.51607
 30
0.0
 10
-8.00971
 20
-13.51204
 30
0.0
 10
-8.00971
 20
-13.51204
 30
0.0
 10
-7.99701
 20
-13.50795
 30
0.0
 10
-7.986
 20
-13.50245
 30
0.0
 10
-7.97669
 20
-13.49546
 30
0.0
 10
-7.97669
 20
-13.49546
 30
0.0
 10
-7.96745
 20
-13.48841
 30
0.0
 10
-7.96018
 20
-13.47959
 30
0.0
 10
-7.9551
 20
-13.46901
 30
0.0
 10
-7.9551
 20
-13.46901
 30
0.0
 10
-7.95002
 20
-13.45835
 30
0.0
 10
-7.94741
 20
-13.44558
 30
0.0
 10
-7.94734
 20
-13.43076
 30
0.0
  0
SPLINE
  5
72
330
1F
100
AcDbEntity
  8
Layer 1
 62
     5
370
    53
100
AcDbSpline
210
0.0
220
0.0
230
1.0
 70
    11
 71
     3
 72
   180
 73
   176
 74
     0
 42
0.0000000001
 43
0.0000000001
 40
0.0
 40
0.0
 40
0.0
 40
0.0
 40
0.0227272727272727
 40
0.0227272727272727
 40
0.0227272727272727
 40
0.0227272727272727
 40
0.0454545454545455
 40
0.0454545454545455
 40
0.0454545454545455
 40
0.0454545454545455
 40
0.0681818181818182
 40
0.0681818181818182
 40
0.0681818181818182
 40
0.0681818181818182
 40
0.0909090909090909
 40
0.0909090909090909
 40
0.0909090909090909
 40
0.0909090909090909
 40
0.1136363636363636
 40
0.1136363636363636
 40
0.1136363636363636
 40
0.1136363636363636
 40
0.1363636363636364
 40
0.1363636363636364
 40
0.1363636363636364
 40
0.1363636363636364
 40
0.1590909090909091
 40
0.1590909090909091
 40
0.1590909090909091
 40
0.1590909090909091
 40
0.1818181818181819
 40
0.1818181818181819
 40
0.1818181818181819
 40
0.1818181818181819
 40
0.2045454545454546
 40
0.2045454545454546
 40
0.2045454545454546
 40
0.2045454545454546
 40
0.2272727272727273
 40
0.2272727272727273
 40
0.2272727272727273
 40
0.2272727272727273
 40
0.2500000000000001
 40
0.2500000000000001
 40
0.2500000000000001
 40
0.2500000000000001
 40
0.2727272727272728
 40
0.2727272727272728
 40
0.2727272727272728
 40
0.2727272727272728
 40
0.2954545454545455
 40
0.2954545454545455
 40
0.2954545454545455
 40
0.2954545454545455
 40
0.3181818181818182
 40
0.3181818181818182
 40
0.3181818181818182
 40
0.3181818181818182
 40
0.3409090909090909
 40
0.3409090909090909
 40
0.3409090909090909
 40
0.3409090909090909
 40
0.3636363636363636
 40
0.3636363636363636
 40
0.3636363636363636
 40
0.3636363636363636
 40
0.3863636363636363
 40
0.3863636363636363
 40
0.3863636363636363
 40
0.3863636363636363
 40
0.409090909090909
 40
0.409090909090909
 40
0.409090909090909
 40
0.409090909090909
 40
0.4318181818181817
 40
0.4318181818181817
 40
0.4318181818181817
 40
0.4318181818181817
 40
0.4545454545454544
 40
0.4545454545454544
 40
0.4545454545454544
 40
0.4545454545454544
 40
0.4772727272727271
 40
0.4772727272727271
 40
0.4772727272727271
 40
0.4772727272727271
 40
0.4999999999999998
 40
0.4999999999999998
 40
0.4999999999999998
 40
0.4999999999999998
 40
0.5227272727272726
 40
0.5227272727272726
 40
0.5227272727272726
 40
0.5227272727272726
 40
0.5454545454545453
 40
0.5454545454545453
 40
0.5454545454545453
 40
0.5454545454545453
 40
0.568181818181818
 40
0.568181818181818
 40
0.568181818181818
 40
0.568181818181818
 40
0.5909090909090907
 40
0.5909090909090907
 40
0.5909090909090907
 40
0.5909090909090907
 40
0.6136363636363634
 40
0.6136363636363634
 40
0.6136363636363634
 40
0.6136363636363634
 40
0.6363636363636361
 40
0.6363636363636361
 40
0.6363636363636361
 40
0.6363636363636361
 40
0.6590909090909088
 40
0.6590909090909088
 40
0.6590909090909088
 40
0.6590909090909088
 40
0.6818181818181815
 40
0.6818181818181815
 40
0.6818181818181815
 40
0.6818181818181815
 40
0.7045454545454543
 40
0.7045454545454543
 40
0.7045454545454543
 40
0.7045454545454543
 40
0.727272727272727
 40
0.727272727272727
 40
0.727272727272727
 40
0.727272727272727
 40
0.7499999999999997
 40
0.7499999999999997
 40
0.7499999999999997
 40
0.7499999999999997
 40
0.7727272727272724
 40
0.7727272727272724
 40
0.7727272727272724
 40
0.7727272727272724
 40
0.7954545454545451
 40
0.7954545454545451
 40
0.7954545454545451
 40
0.7954545454545451
 40
0.8181818181818178
 40
0.8181818181818178
 40
0.8181818181818178
 40
0.8181818181818178
 40
0.8409090909090905
 40
0.8409090909090905
 40
0.8409090909090905
 40
0.8409090909090905
 40
0.8636363636363632
 40
0.8636363636363632
 40
0.8636363636363632
 40
0.8636363636363632
 40
0.8863636363636359
 40
0.8863636363636359
 40
0.8863636363636359
 40
0.8863636363636359
 40
0.9090909090909086
 40
0.9090909090909086
 40
0.9090909090909086
 40
0.9090909090909086
 40
0.9318181818181813
 40
0.9318181818181813
 40
0.9318181818181813
 40
0.9318181818181813
 40
0.954545454545454
 40
0.954545454545454
 40
0.954545454545454
 40
0.954545454545454
 40
0.9772727272727267
 40
0.9772727272727267
 40
0.9772727272727267
 40
0.9772727272727267
 40
1.0
 40
1.0
 40
1.0
 40
1.0
 10
-8.02396
 20
-13.23815
 30
0.0
 10
-8.00872
 20
-13.23808
 30
0.0
 10
-7.99546
 20
-13.23455
 30
0.0
 10
-7.98396
 20
-13.22757
 30
0.0
 10
-7.98396
 20
-13.22757
 30
0.0
 10
-7.97253
 20
-13.22058
 30
0.0
 10
-7.96357
 20
-13.21063
 30
0.0
 10
-7.95715
 20
-13.19765
 30
0.0
 10
-7.95715
 20
-13.19765
 30
0.0
 10
-7.95073
 20
-13.18467
 30
0.0
 10
-7.94748
 20
-13.16908
 30
0.0
 10
-7.94734
 20
-13.15094
 30
0.0
 10
-7.94734
 20
-13.15094
 30
0.0
 10
-7.94734
 20
-13.13733
 30
0.0
 10
-7.94875
 20
-13.12498
 30
0.0
 10
-7.95171
 20
-13.11376
 30
0.0
 10
-7.95171
 20
-13.11376
 30
0.0
 10
-7.95468
 20
-13.10261
 30
0.0
 10
-7.95926
 20
-13.09302
 30
0.0
 10
-7.96554
 20
-13.0849
 30
0.0
 10
-7.96554
 20
-13.0849
 30
0.0
 10
-7.97182
 20
-13.07679
 30
0.0
 10
-7.97994
 20
-13.07058
 30
0.0
 10
-7.98981
 20
-13.06614
 30
0.0
 10
-7.98981
 20
-13.06614
 30
0.0
 10
-7.99976
 20
-13.06176
 30
0.0
 10
-8.01169
 20
-13.05958
 30
0.0
 10
-8.02566
 20
-13.05951
 30
0.0
 10
-8.02566
 20
-13.05951
 30
0.0
 10
-8.04428
 20
-13.05943
 30
0.0
 10
-8.06002
 20
-13.06324
 30
0.0
 10
-8.07279
 20
-13.07079
 30
0.0
 10
-8.07279
 20
-13.07079
 30
0.0
 10
-8.08556
 20
-13.07834
 30
0.0
 10
-8.09515
 20
-13.09006
 30
0.0
 10
-8.10171
 20
-13.10579
 30
0.0
 10
-8.10171
 20
-13.10579
 30
0.0
 10
-8.10828
 20
-13.12152
 30
0.0
 10
-8.11159
 20
-13.1417
 30
0.0
 10
-8.11159
 20
-13.16618
 30
0.0
 10
-8.11159
 20
-13.16618
 30
0.0
 10
-8.11152
 20
-13.14791
 30
0.0
 10
-8.11321
 20
-13.1326
 30
0.0
 10
-8.11667
 20
-13.12011
 30
0.0
 10
-8.11667
 20
-13.12011
 30
0.0
 10
-8.12013
 20
-13.10769
 30
0.0
 10
-8.125
 20
-13.09775
 30
0.0
 10
-8.13135
 20
-13.09027
 30
0.0
 10
-8.13135
 20
-13.09027
 30
0.0
 10
-8.13763
 20
-13.08279
 30
0.0
 10
-8.14511
 20
-13.07736
 30
0.0
 10
-8.15371
 20
-13.07411
 30
0.0
 10
-8.15371
 20
-13.07411
 30
0.0
 10
-8.16225
 20
-13.07079
 30
0.0
 10
-8.17163
 20
-13.06917
 30
0.0
 10
-8.18186
 20
-13.06924
 30
0.0
 10
-8.18186
 20
-13.06924
 30
0.0
 10
-8.1921
 20
-13.06917
 30
0.0
 10
-8.20155
 20
-13.07058
 30
0.0
 10
-8.2103
 20
-13.0734
 30
0.0
 10
-8.2103
 20
-13.0734
 30
0.0
 10
-8.21905
 20
-13.07616
 30
0.0
 10
-8.22674
 20
-13.08067
 30
0.0
 10
-8.2333
 20
-13.08681
 30
0.0
 10
-8.2333
 20
-13.08681
 30
0.0
 10
-8.23986
 20
-13.09295
 30
0.0
 10
-8.24501
 20
-13.10106
 30
0.0
 10
-8.24868
 20
-13.11101
 30
0.0
 10
-8.24868
 20
-13.11101
 30
0.0
 10
-8.25235
 20
-13.12103
 30
0.0
 10
-8.25418
 20
-13.13324
 30
0.0
 10
-8.25425
 20
-13.14756
 30
0.0
 10
-8.25425
 20
-13.14756
 30
0.0
 10
-8.25418
 20
-13.16181
 30
0.0
 10
-8.25207
 20
-13.1743
 30
0.0
 10
-8.24797
 20
-13.18488
 30
0.0
 10
-8.24797
 20
-13.18488
 30
0.0
 10
-8.24388
 20
-13.19554
 30
0.0
 10
-8.23831
 20
-13.20428
 30
0.0
 10
-8.23118
 20
-13.21134
 30
0.0
 10
-8.23118
 20
-13.21134
 30
0.0
 10
-8.22406
 20
-13.21832
 30
0.0
 10
-8.21594
 20
-13.22355
 30
0.0
 10
-8.20677
 20
-13.227
 30
0.0
 10
-8.20677
 20
-13.227
 30
0.0
 10
-8.1976
 20
-13.23053
 30
0.0
 10
-8.18786
 20
-13.23222
 30
0.0
 10
-8.17763
 20
-13.23222
 30
0.0
 10
-8.17763
 20
-13.23222
 30
0.0
 10
-8.18786
 20
-13.23222
 30
0.0
 10
-8.1976
 20
-13.23053
 30
0.0
 10
-8.20677
 20
-13.227
 30
0.0
 10
-8.20677
 20
-13.227
 30
0.0
 10
-8.21594
 20
-13.22355
 30
0.0
 10
-8.22406
 20
-13.21832
 30
0.0
 10
-8.23118
 20
-13.21134
 30
0.0
 10
-8.23118
 20
-13.21134
 30
0.0
 10
-8.23831
 20
-13.20428
 30
0.0
 10
-8.24388
 20
-13.19554
 30
0.0
 10
-8.24797
 20
-13.18488
 30
0.0
 10
-8.24797
 20
-13.18488
 30
0.0
 10
-8.25207
 20
-13.1743
 30
0.0
 10
-8.25418
 20
-13.16181
 30
0.0
 10
-8.25425
 20
-13.14756
 30
0.0
 10
-8.25425
 20
-13.14756
 30
0.0
 10
-8.25418
 20
-13.13324
 30
0.0
 10
-8.25235
 20
-13.12103
 30
0.0
 10
-8.24868
 20
-13.11101
 30
0.0
 10
-8.24868
 20
-13.11101
 30
0.0
 10
-8.24501
 20
-13.10106
 30
0.0
 10
-8.23986
 20
-13.09295
 30
0.0
 10
-8.2333
 20
-13.08681
 30
0.0
 10
-8.2333
 20
-13.08681
 30
0.0
 10
-8.22674
 20
-13.08067
 30
0.0
 10
-8.21905
 20
-13.07616
 30
0.0
 10
-8.2103
 20
-13.0734
 30
0.0
 10
-8.2103
 20
-13.0734
 30
0.0
 10
-8.20155
 20
-13.07058
 30
0.0
 10
-8.1921
 20
-13.06917
 30
0.0
 10
-8.18186
 20
-13.06924
 30
0.0
 10
-8.18186
 20
-13.06924
 30
0.0
 10
-8.17163
 20
-13.06917
 30
0.0
 10
-8.16225
 20
-13.07079
 30
0.0
 10
-8.15371
 20
-13.07411
 30
0.0
 10
-8.15371
 20
-13.07411
 30
0.0
 10
-8.14511
 20
-13.07736
 30
0.0
 10
-8.13763
 20
-13.08279
 30
0.0
 10
-8.13135
 20
-13.09027
 30
0.0
 10
-8.13135
 20
-13.09027
 30
0.0
 10
-8.125
 20
-13.09775
 30
0.0
 10
-8.12013
 20
-13.10769
 30
0.0
 10
-8.11667
 20
-13.12011
 30
0.0
 10
-8.11667
 20
-13.12011
 30
0.0
 10
-8.11321
 20
-13.1326
 30
0.0
 10
-8.11152
 20
-13.14791
 30
0.0
 10
-8.11159
 20
-13.16618
 30
0.0
 10
-8.11159
 20
-13.16618
 30
0.0
 10
-8.11159
 20
-13.1417
 30
0.0
 10
-8.10828
 20
-13.12152
 30
0.0
 10
-8.10171
 20
-13.10579
 30
0.0
 10
-8.10171
 20
-13.10579
 30
0.0
 10
-8.09515
 20
-13.09006
 30
0.0
 10
-8.08556
 20
-13.07834
 30
0.0
 10
-8.07279
 20
-13.07079
 30
0.0
 10
-8.07279
 20
-13.07079
 30
0.0
 10
-8.06002
 20
-13.06324
 30
0.0
 10
-8.04428
 20
-13.05943
 30
0.0
 10
-8.02566
 20
-13.05951
 30
0.0
 10
-8.02566
 20
-13.05951
 30
0.0
 10
-8.01169
 20
-13.05958
 30
0.0
 10
-7.99976
 20
-13.06176
 30
0.0
 10
-7.98981
 20
-13.06614
 30
0.0
 10
-7.98981
 20
-13.06614
 30
0.0
 10
-7.97994
 20
-13.07058
 30
0.0
 10
-7.97182
 20
-13.07679
 30
0.0
 10
-7.96554
 20
-13.0849
 30
0.0
 10
-7.96554
 20
-13.0849
 30
0.0
 10
-7.95926
 20
-13.09302
 30
0.0
 10
-7.95468
 20
-13.10261
 30
0.0
 10
-7.95171
 20
-13.11376
 30
0.0
 10
-7.95171
 20
-13.11376
 30
0.0
 10
-7.94875
 20
-13.12498
 30
0.0
 10
-7.94734
 20
-13.13733
 30
0.0
 10
-7.94734
 20
-13.15094
 30
0.0
 10
-7.94734
 20
-13.15094
 30
0.0
 10
-7.94748
 20
-13.16908
 30
0.0
 10
-7.95073
 20
-13.18467
 30
0.0
 10
-7.95715
 20
-13.19765
 30
0.0
 10
-7.95715
 20
-13.19765
 30
0.0
 10
-7.96357
 20
-13.21063
 30
0.0
 10
-7.97253
 20
-13.22058
 30
0.0
 10
-7.98396
 20
-13.22757
 30
0.0
 10
-7.98396
 20
-13.22757
 30
0.0
 10
-7.99546
 20
-13.23455
 30
0.0
 10
-8.00872
 20
-13.23808
 30
0.0
 10
-8.02396
 20
-13.23815
 30
0.0
  0
SPLINE
  5
73
330
1F
100
AcDbEntity
  8
Layer 1
370
    53
100
AcDbSpline
210
0.0
220
0.0
230
1.0
 70
    11
 71
     3
 72
    84
 73
    80
 74
     0
 42
0.0000000001
 43
0.0000000001
 40
0.0
 40
0.0
 40
0.0
 40
0.0
 40
0.05
 40
0.05
 40
0.05
 40
0.05
 40
0.1
 40
0.1
 40
0.1
 40
0.1
 40
0.15
 40
0.15
 40
0.15
 40
0.15
 40
0.2
 40
0.2
 40
0.2
 40
0.2
 40
0.25
 40
0.25
 40
0.25
 40
0.25
 40
0.3
 40
0.3
 40
0.3
 40
0.3
 40
0.35
 40
0.35
 40
0.35
 40
0.35
 40
0.4
 40
0.4
 40
0.4
 40
0.4
 40
0.45
 40
0.45
 40
0.45
 40
0.45
 40
0.4999999999999999
 40
0.4999999999999999
 40
0.4999999999999999
 40
0.4999999999999999
 40
0.5499999999999999
 40
0.5499999999999999
 40
0.5499999999999999
 40
0.5499999999999999
 40
0.6
 40
0.6
 40
0.6
 40
0.6
 40
0.65
 40
0.65
 40
0.65
 40
0.65
 40
0.7000000000000001
 40
0.7000000000000001
 40
0.7000000000000001
 40
0.7000000000000001
 40
0.7500000000000001
 40
0.7500000000000001
 40
0.7500000000000001
 40
0.7500000000000001
 40
0.8000000000000002
 40
0.8000000000000002
 40
0.8000000000000002
 40
0.8000000000000002
 40
0.8500000000000002
 40
0.8500000000000002
 40
0.8500000000000002
 40
0.8500000000000002
 40
0.9000000000000002
 40
0.9000000000000002
 40
0.9000000000000002
 40
0.9000000000000002
 40
0.9500000000000003
 40
0.9500000000000003
 40
0.9500000000000003
 40
0.9500000000000003
 40
1.0
 40
1.0
 40
1.0
 40
1.0
 10
-14.8
 20
-16.7
 30
0.0
 10
-14.8
 20
-16.7
 30
0.0
 10
-14.75985
 20
-16.7
 30
0.0
 10
-14.75985
 20
-16.7
 30
0.0
 10
-14.75985
 20
-16.7
 30
0.0
 10
-14.7335
 20
-16.65447
 30
0.0
 10
-14.69553
 20
-16.6165
 30
0.0
 10
-14.65
 20
-16.59015
 30
0.0
 10
-14.65
 20
-16.59015
 30
0.0
 10
-14.65
 20
-16.59015
 30
0.0
 10
-14.65
 20
-16.55
 30
0.0
 10
-14.65
 20
-16.55
 30
0.0
 10
-14.65
 20
-16.55
 30
0.0
 10
-14.65
 20
-16.55
 30
0.0
 10
-14.5
 20
-16.55
 30
0.0
 10
-14.5
 20
-16.55
 30
0.0
 10
-14.5
 20
-16.55
 30
0.0
 10
-14.5
 20
-16.55
 30
0.0
 10
-14.35
 20
-16.55
 30
0.0
 10
-14.35
 20
-16.55
 30
0.0
 10
-14.35
 20
-16.55
 30
0.0
 10
-14.35
 20
-16.55
 30
0.0
 10
-14.35
 20
-16.59015
 30
0.0
 10
-14.35
 20
-16.59015
 30
0.0
 10
-14.35
 20
-16.59015
 30
0.0
 10
-14.30447
 20
-16.6165
 30
0.0
 10
-14.2665
 20
-16.65447
 30
0.0
 10
-14.24015
 20
-16.7
 30
0.0
 10
-14.24015
 20
-16.7
 30
0.0
 10
-14.24015
 20
-16.7
 30
0.0
 10
-14.2
 20
-16.7
 30
0.0
 10
-14.2
 20
-16.7
 30
0.0
 10
-14.2
 20
-16.7
 30
0.0
 10
-14.2
 20
-16.7
 30
0.0
 10
-14.2
 20
-16.85
 30
0.0
 10
-14.2
 20
-16.85
 30
0.0
 10
-14.2
 20
-16.85
 30
0.0
 10
-14.2
 20
-16.85
 30
0.0
 10
-14.2
 20
-17.0
 30
0.0
 10
-14.2
 20
-17.0
 30
0.0
 10
-14.2
 20
-17.0
 30
0.0
 10
-14.2
 20
-17.0
 30
0.0
 10
-14.24015
 20
-17.0
 30
0.0
 10
-14.24015
 20
-17.0
 30
0.0
 10
-14.24015
 20
-17.0
 30
0.0
 10
-14.2665
 20
-17.04553
 30
0.0
 10
-14.30447
 20
-17.0835
 30
0.0
 10
-14.35
 20
-17.10985
 30
0.0
 10
-14.35
 20
-17.10985
 30
0.0
 10
-14.35
 20
-17.10985
 30
0.0
 10
-14.35
 20
-17.15
 30
0.0
 10
-14.35
 20
-17.15
 30
0.0
 10
-14.35
 20
-17.15
 30
0.0
 10
-14.35
 20
-17.15
 30
0.0
 10
-14.5
 20
-17.15
 30
0.0
 10
-14.5
 20
-17.15
 30
0.0
 10
-14.5
 20
-17.15
 30
0.0
 10
-14.5
 20
-17.15
 30
0.0
 10
-14.65
 20
-17.15
 30
0.0
 10
-14.65
 20
-17.15
 30
0.0
 10
-14.65
 20
-17.15
 30
0.0
 10
-14.65
 20
-17.15
 30
0.0
 10
-14.65
 20
-17.10985
 30
0.0
 10
-14.65
 20
-17.10985
 30
0.0
 10
-14.65
 20
-17.10985
 30
0.0
 10
-14.69553
 20
-17.0835
 30
0.0
 10
-14.7335
 20
-17.04553
 30
0.0
 10
-14.75985
 20
-17.0
 30
0.0
 10
-14.75985
 20
-17.0
 30
0.0
 10
-14.75985
 20
-17.0
 30
0.0
 10
-14.8
 20
-17.0
 30
0.0
 10
-14.8
 20
-17.0
 30
0.0
 10
-14.8
 20
-17.0
 30
0.0
 10
-14.8
 20
-17.0
 30
0.0
 10
-14.8
 20
-16.85
 30
0.0
 10
-14.8
 20
-16.85
 30
0.0
 10
-14.8
 20
-16.85
 30
0.0
 10
-14.8
 20
-16.85
 30
0.0
 10
-14.8
 20
-16.7
 30
0.0
 10
-14.8
 20
-16.7
 30
0.0
  0
SPLINE
  5
74
330
1F
100
AcDbEntity
  8
Layer 1
370
    53
100
AcDbSpline
210
0.0
220
0.0
230
1.0
 70
    11
 71
     3
 72
    84
 73
    80
 74
     0
 42
0.0000000001
 43
0.0000000001
 40
0.0
 40
0.0
 40
0.0
 40
0.0
 40
0.05
 40
0.05
 40
0.05
 40
0.05
 40
0.1
 40
0.1
 40
0.1
 40
0.1
 40
0.15
 40
0.15
 40
0.15
 40
0.15
 40
0.2
 40
0.2
 40
0.2
 40
0.2
 40
0.25
 40
0.25
 40
0.25
 40
0.25
 40
0.3
 40
0.3
 40
0.3
 40
0.3
 40
0.35
 40
0.35
 40
0.35
 40
0.35
 40
0.4
 40
0.4
 40
0.4
 40
0.4
 40
0.45
 40
0.45
 40
0.45
 40
0.45
 40
0.4999999999999999
 40
0.4999999999999999
 40
0.4999999999999999
 40
0.4999999999999999
 40
0.5499999999999999
 40
0.5499999999999999
 40
0.5499999999999999
 40
0.5499999999999999
 40
0.6
 40
0.6
 40
0.6
 40
0.6
 40
0.65
 40
0.65
 40
0.65
 40
0.65
 40
0.7000000000000001
 40
0.7000000000000001
 40
0.7000000000000001
 40
0.7000000000000001
 40
0.7500000000000001
 40
0.7500000000000001
 40
0.7500000000000001
 40
0.7500000000000001
 40
0.8000000000000002
 40
0.8000000000000002
 40
0.8000000000000002
 40
0.8000000000000002
 40
0.8500000000000002
 40
0.8500000000000002
 40
0.8500000000000002
 40
0.8500000000000002
 40
0.9000000000000002
 40
0.9000000000000002
 40
0.9000000000000002
 40
0.9000000000000002
 40
0.9500000000000003
 40
0.9500000000000003
 40
0.9500000000000003
 40
0.9500000000000003
 40
1.0
 40
1.0
 40
1.0
 40
1.0
 10
-14.8
 20
-14.7
 30
0.0
 10
-14.8
 20
-14.7
 30
0.0
 10
-14.75985
 20
-14.7
 30
0.0
 10
-14.75985
 20
-14.7
 30
0.0
 10
-14.75985
 20
-14.7
 30
0.0
 10
-14.7335
 20
-14.65447
 30
0.0
 10
-14.69553
 20
-14.6165
 30
0.0
 10
-14.65
 20
-14.59015
 30
0.0
 10
-14.65
 20
-14.59015
 30
0.0
 10
-14.65
 20
-14.59015
 30
0.0
 10
-14.65
 20
-14.55
 30
0.0
 10
-14.65
 20
-14.55
 30
0.0
 10
-14.65
 20
-14.55
 30
0.0
 10
-14.65
 20
-14.55
 30
0.0
 10
-14.5
 20
-14.55
 30
0.0
 10
-14.5
 20
-14.55
 30
0.0
 10
-14.5
 20
-14.55
 30
0.0
 10
-14.5
 20
-14.55
 30
0.0
 10
-14.35
 20
-14.55
 30
0.0
 10
-14.35
 20
-14.55
 30
0.0
 10
-14.35
 20
-14.55
 30
0.0
 10
-14.35
 20
-14.55
 30
0.0
 10
-14.35
 20
-14.59015
 30
0.0
 10
-14.35
 20
-14.59015
 30
0.0
 10
-14.35
 20
-14.59015
 30
0.0
 10
-14.30447
 20
-14.6165
 30
0.0
 10
-14.2665
 20
-14.65447
 30
0.0
 10
-14.24015
 20
-14.7
 30
0.0
 10
-14.24015
 20
-14.7
 30
0.0
 10
-14.24015
 20
-14.7
 30
0.0
 10
-14.2
 20
-14.7
 30
0.0
 10
-14.2
 20
-14.7
 30
0.0
 10
-14.2
 20
-14.7
 30
0.0
 10
-14.2
 20
-14.7
 30
0.0
 10
-14.2
 20
-14.85
 30
0.0
 10
-14.2
 20
-14.85
 30
0.0
 10
-14.2
 20
-14.85
 30
0.0
 10
-14.2
 20
-14.85
 30
0.0
 10
-14.2
 20
-15.0
 30
0.0
 10
-14.2
 20
-15.0
 30
0.0
 10
-14.2
 20
-15.0
 30
0.0
 10
-14.2
 20
-15.0
 30
0.0
 10
-14.24015
 20
-15.0
 30
0.0
 10
-14.24015
 20
-15.0
 30
0.0
 10
-14.24015
 20
-15.0
 30
0.0
 10
-14.2665
 20
-15.04553
 30
0.0
 10
-14.30447
 20
-15.0835
 30
0.0
 10
-14.35
 20
-15.10985
 30
0.0
 10
-14.35
 20
-15.10985
 30
0.0
 10
-14.35
 20
-15.10985
 30
0.0
 10
-14.35
 20
-15.15
 30
0.0
 10
-14.35
 20
-15.15
 30
0.0
 10
-14.35
 20
-15.15
 30
0.0
 10
-14.35
 20
-15.15
 30
0.0
 10
-14.5
 20
-15.15
 30
0.0
 10
-14.5
 20
-15.15
 30
0.0
 10
-14.5
 20
-15.15
 30
0.0
 10
-14.5
 20
-15.15
 30
0.0
 10
-14.65
 20
-15.15
 30
0.0
 10
-14.65
 20
-15.15
 30
0.0
 10
-14.65
 20
-15.15
 30
0.0
 10
-14.65
 20
-15.15
 30
0.0
 10
-14.65
 20
-15.10985
 30
0.0
 10
-14.65
 20
-15.10985
 30
0.0
 10
-14.65
 20
-15.10985
 30
0.0
 10
-14.69553
 20
-15.0835
 30
0.0
 10
-14.7335
 20
-15.04553
 30
0.0
 10
-14.75985
 20
-15.0
 30
0.0
 10
-14.75985
 20
-15.0
 30
0.0
 10
-14.75985
 20
-15.0
 30
0.0
 10
-14.8
 20
-15.0
 30
0.0
 10
-14.8
 20
-15.0
 30
0.0
 10
-14.8
 20
-15.0
 30
0.0
 10
-14.8
 20
-15.0
 30
0.0
 10
-14.8
 20
-14.85
 30
0.0
 10
-14.8
 20
-14.85
 30
0.0
 10
-14.8
 20
-14.85
 30
0.0
 10
-14.8
 20
-14.85
 30
0.0
 10
-14.8
 20
-14.7
 30
0.0
 10
-14.8
 20
-14.7
 30
0.0
  0
SPLINE
  5
75
330
1F
100
AcDbEntity
  8
Layer 1
370
    53
100
AcDbSpline
210
0.0
220
0.0
230
1.0
 70
    11
 71
     3
 72
    84
 73
    80
 74
     0
 42
0.0000000001
 43
0.0000000001
 40
0.0
 40
0.0
 40
0.0
 40
0.0
 40
0.05
 40
0.05
 40
0.05
 40
0.05
 40
0.1
 40
0.1
 40
0.1
 40
0.1
 40
0.15
 40
0.15
 40
0.15
 40
0.15
 40
0.2
 40
0.2
 40
0.2
 40
0.2
 40
0.25
 40
0.25
 40
0.25
 40
0.25
 40
0.3
 40
0.3
 40
0.3
 40
0.3
 40
0.35
 40
0.35
 40
0.35
 40
0.35
 40
0.4
 40
0.4
 40
0.4
 40
0.4
 40
0.45
 40
0.45
 40
0.45
 40
0.45
 40
0.4999999999999999
 40
0.4999999999999999
 40
0.4999999999999999
 40
0.4999999999999999
 40
0.5499999999999999
 40
0.5499999999999999
 40
0.5499999999999999
 40
0.5499999999999999
 40
0.6
 40
0.6
 40
0.6
 40
0.6
 40
0.65
 40
0.65
 40
0.65
 40
0.65
 40
0.7000000000000001
 40
0.7000000000000001
 40
0.7000000000000001
 40
0.7000000000000001
 40
0.7500000000000001
 40
0.7500000000000001
 40
0.7500000000000001
 40
0.7500000000000001
 40
0.8000000000000002
 40
0.8000000000000002
 40
0.8000000000000002
 40
0.8000000000000002
 40
0.8500000000000002
 40
0.8500000000000002
 40
0.8500000000000002
 40
0.8500000000000002
 40
0.9000000000000002
 40
0.9000000000000002
 40
0.9000000000000002
 40
0.9000000000000002
 40
0.9500000000000003
 40
0.9500000000000003
 40
0.9500000000000003
 40
0.9500000000000003
 40
1.0
 40
1.0
 40
1.0
 40
1.0
 10
-14.8
 20
-12.7
 30
0.0
 10
-14.8
 20
-12.7
 30
0.0
 10
-14.75985
 20
-12.7
 30
0.0
 10
-14.75985
 20
-12.7
 30
0.0
 10
-14.75985
 20
-12.7
 30
0.0
 10
-14.7335
 20
-12.65447
 30
0.0
 10
-14.69553
 20
-12.6165
 30
0.0
 10
-14.65
 20
-12.59015
 30
0.0
 10
-14.65
 20
-12.59015
 30
0.0
 10
-14.65
 20
-12.59015
 30
0.0
 10
-14.65
 20
-12.55
 30
0.0
 10
-14.65
 20
-12.55
 30
0.0
 10
-14.65
 20
-12.55
 30
0.0
 10
-14.65
 20
-12.55
 30
0.0
 10
-14.5
 20
-12.55
 30
0.0
 10
-14.5
 20
-12.55
 30
0.0
 10
-14.5
 20
-12.55
 30
0.0
 10
-14.5
 20
-12.55
 30
0.0
 10
-14.35
 20
-12.55
 30
0.0
 10
-14.35
 20
-12.55
 30
0.0
 10
-14.35
 20
-12.55
 30
0.0
 10
-14.35
 20
-12.55
 30
0.0
 10
-14.35
 20
-12.59015
 30
0.0
 10
-14.35
 20
-12.59015
 30
0.0
 10
-14.35
 20
-12.59015
 30
0.0
 10
-14.30447
 20
-12.6165
 30
0.0
 10
-14.2665
 20
-12.65447
 30
0.0
 10
-14.24015
 20
-12.7
 30
0.0
 10
-14.24015
 20
-12.7
 30
0.0
 10
-14.24015
 20
-12.7
 30
0.0
 10
-14.2
 20
-12.7
 30
0.0
 10
-14.2
 20
-12.7
 30
0.0
 10
-14.2
 20
-12.7
 30
0.0
 10
-14.2
 20
-12.7
 30
0.0
 10
-14.2
 20
-12.85
 30
0.0
 10
-14.2
 20
-12.85
 30
0.0
 10
-14.2
 20
-12.85
 30
0.0
 10
-14.2
 20
-12.85
 30
0.0
 10
-14.2
 20
-13.0
 30
0.0
 10
-14.2
 20
-13.0
 30
0.0
 10
-14.2
 20
-13.0
 30
0.0
 10
-14.2
 20
-13.0
 30
0.0
 10
-14.24015
 20
-13.0
 30
0.0
 10
-14.24015
 20
-13.0
 30
0.0
 10
-14.24015
 20
-13.0
 30
0.0
 10
-14.2665
 20
-13.04553
 30
0.0
 10
-14.30447
 20
-13.0835
 30
0.0
 10
-14.35
 20
-13.10985
 30
0.0
 10
-14.35
 20
-13.10985
 30
0.0
 10
-14.35
 20
-13.10985
 30
0.0
 10
-14.35
 20
-13.15
 30
0.0
 10
-14.35
 20
-13.15
 30
0.0
 10
-14.35
 20
-13.15
 30
0.0
 10
-14.35
 20
-13.15
 30
0.0
 10
-14.5
 20
-13.15
 30
0.0
 10
-14.5
 20
-13.15
 30
0.0
 10
-14.5
 20
-13.15
 30
0.0
 10
-14.5
 20
-13.15
 30
0.0
 10
-14.65
 20
-13.15
 30
0.0
 10
-14.65
 20
-13.15
 30
0.0
 10
-14.65
 20
-13.15
 30
0.0
 10
-14.65
 20
-13.15
 30
0.0
 10
-14.65
 20
-13.10985
 30
0.0
 10
-14.65
 20
-13.10985
 30
0.0
 10
-14.65
 20
-13.10985
 30
0.0
 10
-14.69553
 20
-13.0835
 30
0.0
 10
-14.7335
 20
-13.04553
 30
0.0
 10
-14.75985
 20
-13.0
 30
0.0
 10
-14.75985
 20
-13.0
 30
0.0
 10
-14.75985
 20
-13.0
 30
0.0
 10
-14.8
 20
-13.0
 30
0.0
 10
-14.8
 20
-13.0
 30
0.0
 10
-14.8
 20
-13.0
 30
0.0
 10
-14.8
 20
-13.0
 30
0.0
 10
-14.8
 20
-12.85
 30
0.0
 10
-14.8
 20
-12.85
 30
0.0
 10
-14.8
 20
-12.85
 30
0.0
 10
-14.8
 20
-12.85
 30
0.0
 10
-14.8
 20
-12.7
 30
0.0
 10
-14.8
 20
-12.7
 30
0.0
  0
LWPOLYLINE
  5
76
330
1F
100
AcDbEntity
  8
Layer 1
370
    53
100
AcDbPolyline
 90
        5
 70
     1
 43
0.0
 10
-14.65
 20
-16.15
 10
-14.35
 20
-16.15
 10
-14.35
 20
-15.55
 10
-14.65
 20
-15.55
 10
-14.65
 20
-16.15
  0
LWPOLYLINE
  5
77
330
1F
100
AcDbEntity
  8
Layer 1
370
    53
100
AcDbPolyline
 90
        5
 70
     1
 43
0.0
 10
-14.65
 20
-14.15
 10
-14.35
 20
-14.15
 10
-14.35
 20
-13.55
 10
-14.65
 20
-13.55
 10
-14.65
 20
-14.15
  0
SPLINE
  5
78
330
1F
100
AcDbEntity
  8
Layer 1
370
    53
100
AcDbSpline
210
0.0
220
0.0
230
1.0
 70
    11
 71
     3
 72
    84
 73
    80
 74
     0
 42
0.0000000001
 43
0.0000000001
 40
0.0
 40
0.0
 40
0.0
 40
0.0
 40
0.05
 40
0.05
 40
0.05
 40
0.05
 40
0.1
 40
0.1
 40
0.1
 40
0.1
 40
0.15
 40
0.15
 40
0.15
 40
0.15
 40
0.2
 40
0.2
 40
0.2
 40
0.2
 40
0.25
 40
0.25
 40
0.25
 40
0.25
 40
0.3
 40
0.3
 40
0.3
 40
0.3
 40
0.35
 40
0.35
 40
0.35
 40
0.35
 40
0.4
 40
0.4
 40
0.4
 40
0.4
 40
0.45
 40
0.45
 40
0.45
 40
0.45
 40
0.4999999999999999
 40
0.4999999999999999
 40
0.4999999999999999
 40
0.4999999999999999
 40
0.5499999999999999
 40
0.5499999999999999
 40
0.5499999999999999
 40
0.5499999999999999
 40
0.6
 40
0.6
 40
0.6
 40
0.6
 40
0.65
 40
0.65
 40
0.65
 40
0.65
 40
0.7000000000000001
 40
0.7000000000000001
 40
0.7000000000000001
 40
0.7000000000000001
 40
0.7500000000000001
 40
0.7500000000000001
 40
0.7500000000000001
 40
0.7500000000000001
 40
0.8000000000000002
 40
0.8000000000000002
 40
0.8000000000000002
 40
0.8000000000000002
 40
0.8500000000000002
 40
0.8500000000000002
 40
0.8500000000000002
 40
0.8500000000000002
 40
0.9000000000000002
 40
0.9000000000000002
 40
0.9000000000000002
 40
0.9000000000000002
 40
0.9500000000000003
 40
0.9500000000000003
 40
0.9500000000000003
 40
0.9500000000000003
 40
1.0
 40
1.0
 40
1.0
 40
1.0
 10
-6.8
 20
-16.7
 30
0.0
 10
-6.8
 20
-16.7
 30
0.0
 10
-6.75985
 20
-16.7
 30
0.0
 10
-6.75985
 20
-16.7
 30
0.0
 10
-6.75985
 20
-16.7
 30
0.0
 10
-6.7335
 20
-16.65447
 30
0.0
 10
-6.69553
 20
-16.6165
 30
0.0
 10
-6.65
 20
-16.59015
 30
0.0
 10
-6.65
 20
-16.59015
 30
0.0
 10
-6.65
 20
-16.59015
 30
0.0
 10
-6.65
 20
-16.55
 30
0.0
 10
-6.65
 20
-16.55
 30
0.0
 10
-6.65
 20
-16.55
 30
0.0
 10
-6.65
 20
-16.55
 30
0.0
 10
-6.5
 20
-16.55
 30
0.0
 10
-6.5
 20
-16.55
 30
0.0
 10
-6.5
 20
-16.55
 30
0.0
 10
-6.5
 20
-16.55
 30
0.0
 10
-6.35
 20
-16.55
 30
0.0
 10
-6.35
 20
-16.55
 30
0.0
 10
-6.35
 20
-16.55
 30
0.0
 10
-6.35
 20
-16.55
 30
0.0
 10
-6.35
 20
-16.59015
 30
0.0
 10
-6.35
 20
-16.59015
 30
0.0
 10
-6.35
 20
-16.59015
 30
0.0
 10
-6.30447
 20
-16.6165
 30
0.0
 10
-6.2665
 20
-16.65447
 30
0.0
 10
-6.24015
 20
-16.7
 30
0.0
 10
-6.24015
 20
-16.7
 30
0.0
 10
-6.24015
 20
-16.7
 30
0.0
 10
-6.2
 20
-16.7
 30
0.0
 10
-6.2
 20
-16.7
 30
0.0
 10
-6.2
 20
-16.7
 30
0.0
 10
-6.2
 20
-16.7
 30
0.0
 10
-6.2
 20
-16.85
 30
0.0
 10
-6.2
 20
-16.85
 30
0.0
 10
-6.2
 20
-16.85
 30
0.0
 10
-6.2
 20
-16.85
 30
0.0
 10
-6.2
 20
-17.0
 30
0.0
 10
-6.2
 20
-17.0
 30
0.0
 10
-6.2
 20
-17.0
 30
0.0
 10
-6.2
 20
-17.0
 30
0.0
 10
-6.24015
 20
-17.0
 30
0.0
 10
-6.24015
 20
-17.0
 30
0.0
 10
-6.24015
 20
-17.0
 30
0.0
 10
-6.2665
 20
-17.04553
 30
0.0
 10
-6.30447
 20
-17.0835
 30
0.0
 10
-6.35
 20
-17.10985
 30
0.0
 10
-6.35
 20
-17.10985
 30
0.0
 10
-6.35
 20
-17.10985
 30
0.0
 10
-6.35
 20
-17.15
 30
0.0
 10
-6.35
 20
-17.15
 30
0.0
 10
-6.35
 20
-17.15
 30
0.0
 10
-6.35
 20
-17.15
 30
0.0
 10
-6.5
 20
-17.15
 30
0.0
 10
-6.5
 20
-17.15
 30
0.0
 10
-6.5
 20
-17.15
 30
0.0
 10
-6.5
 20
-17.15
 30
0.0
 10
-6.65
 20
-17.15
 30
0.0
 10
-6.65
 20
-17.15
 30
0.0
 10
-6.65
 20
-17.15
 30
0.0
 10
-6.65
 20
-17.15
 30
0.0
 10
-6.65
 20
-17.10985
 30
0.0
 10
-6.65
 20
-17.10985
 30
0.0
 10
-6.65
 20
-17.10985
 30
0.0
 10
-6.69553
 20
-17.0835
 30
0.0
 10
-6.7335
 20
-17.04553
 30
0.0
 10
-6.75985
 20
-17.0
 30
0.0
 10
-6.75985
 20
-17.0
 30
0.0
 10
-6.75985
 20
-17.0
 30
0.0
 10
-6.8
 20
-17.0
 30
0.0
 10
-6.8
 20
-17.0
 30
0.0
 10
-6.8
 20
-17.0
 30
0.0
 10
-6.8
 20
-17.0
 30
0.0
 10
-6.8
 20
-16.85
 30
0.0
 10
-6.8
 20
-16.85
 30
0.0
 10
-6.8
 20
-16.85
 30
0.0
 10
-6.8
 20
-16.85
 30
0.0
 10
-6.8
 20
-16.7
 30
0.0
 10
-6.8
 20
-16.7
 30
0.0
  0
SPLINE
  5
79
330
1F
100
AcDbEntity
  8
Layer 1
370
    53
100
AcDbSpline
210
0.0
220
0.0
230
1.0
 70
    11
 71
     3
 72
    84
 73
    80
 74
     0
 42
0.0000000001
 43
0.0000000001
 40
0.0
 40
0.0
 40
0.0
 40
0.0
 40
0.05
 40
0.05
 40
0.05
 40
0.05
 40
0.1
 40
0.1
 40
0.1
 40
0.1
 40
0.15
 40
0.15
 40
0.15
 40
0.15
 40
0.2
 40
0.2
 40
0.2
 40
0.2
 40
0.25
 40
0.25
 40
0.25
 40
0.25
 40
0.3
 40
0.3
 40
0.3
 40
0.3
 40
0.35
 40
0.35
 40
0.35
 40
0.35
 40
0.4
 40
0.4
 40
0.4
 40
0.4
 40
0.45
 40
0.45
 40
0.45
 40
0.45
 40
0.4999999999999999
 40
0.4999999999999999
 40
0.4999999999999999
 40
0.4999999999999999
 40
0.5499999999999999
 40
0.5499999999999999
 40
0.5499999999999999
 40
0.5499999999999999
 40
0.6
 40
0.6
 40
0.6
 40
0.6
 40
0.65
 40
0.65
 40
0.65
 40
0.65
 40
0.7000000000000001
 40
0.7000000000000001
 40
0.7000000000000001
 40
0.7000000000000001
 40
0.7500000000000001
 40
0.7500000000000001
 40
0.7500000000000001
 40
0.7500000000000001
 40
0.8000000000000002
 40
0.8000000000000002
 40
0.8000000000000002
 40
0.8000000000000002
 40
0.8500000000000002
 40
0.8500000000000002
 40
0.8500000000000002
 40
0.8500000000000002
 40
0.9000000000000002
 40
0.9000000000000002
 40
0.9000000000000002
 40
0.9000000000000002
 40
0.9500000000000003
 40
0.9500000000000003
 40
0.9500000000000003
 40
0.9500000000000003
 40
1.0
 40
1.0
 40
1.0
 40
1.0
 10
-6.8
 20
-14.7
 30
0.0
 10
-6.8
 20
-14.7
 30
0.0
 10
-6.75985
 20
-14.7
 30
0.0
 10
-6.75985
 20
-14.7
 30
0.0
 10
-6.75985
 20
-14.7
 30
0.0
 10
-6.7335
 20
-14.65447
 30
0.0
 10
-6.69553
 20
-14.6165
 30
0.0
 10
-6.65
 20
-14.59015
 30
0.0
 10
-6.65
 20
-14.59015
 30
0.0
 10
-6.65
 20
-14.59015
 30
0.0
 10
-6.65
 20
-14.55
 30
0.0
 10
-6.65
 20
-14.55
 30
0.0
 10
-6.65
 20
-14.55
 30
0.0
 10
-6.65
 20
-14.55
 30
0.0
 10
-6.5
 20
-14.55
 30
0.0
 10
-6.5
 20
-14.55
 30
0.0
 10
-6.5
 20
-14.55
 30
0.0
 10
-6.5
 20
-14.55
 30
0.0
 10
-6.35
 20
-14.55
 30
0.0
 10
-6.35
 20
-14.55
 30
0.0
 10
-6.35
 20
-14.55
 30
0.0
 10
-6.35
 20
-14.55
 30
0.0
 10
-6.35
 20
-14.59015
 30
0.0
 10
-6.35
 20
-14.59015
 30
0.0
 10
-6.35
 20
-14.59015
 30
0.0
 10
-6.30447
 20
-14.6165
 30
0.0
 10
-6.2665
 20
-14.65447
 30
0.0
 10
-6.24015
 20
-14.7
 30
0.0
 10
-6.24015
 20
-14.7
 30
0.0
 10
-6.24015
 20
-14.7
 30
0.0
 10
-6.2
 20
-14.7
 30
0.0
 10
-6.2
 20
-14.7
 30
0.0
 10
-6.2
 20
-14.7
 30
0.0
 10
-6.2
 20
-14.7
 30
0.0
 10
-6.2
 20
-14.85
 30
0.0
 10
-6.2
 20
-14.85
 30
0.0
 10
-6.2
 20
-14.85
 30
0.0
 10
-6.2
 20
-14.85
 30
0.0
 10
-6.2
 20
-15.0
 30
0.0
 10
-6.2
 20
-15.0
 30
0.0
 10
-6.2
 20
-15.0
 30
0.0
 10
-6.2
 20
-15.0
 30
0.0
 10
-6.24015
 20
-15.0
 30
0.0
 10
-6.24015
 20
-15.0
 30
0.0
 10
-6.24015
 20
-15.0
 30
0.0
 10
-6.2665
 20
-15.04553
 30
0.0
 10
-6.30447
 20
-15.0835
 30
0.0
 10
-6.35
 20
-15.10985
 30
0.0
 10
-6.35
 20
-15.10985
 30
0.0
 10
-6.35
 20
-15.10985
 30
0.0
 10
-6.35
 20
-15.15
 30
0.0
 10
-6.35
 20
-15.15
 30
0.0
 10
-6.35
 20
-15.15
 30
0.0
 10
-6.35
 20
-15.15
 30
0.0
 10
-6.5
 20
-15.15
 30
0.0
 10
-6.5
 20
-15.15
 30
0.0
 10
-6.5
 20
-15.15
 30
0.0
 10
-6.5
 20
-15.15
 30
0.0
 10
-6.65
 20
-15.15
 30
0.0
 10
-6.65
 20
-15.15
 30
0.0
 10
-6.65
 20
-15.15
 30
0.0
 10
-6.65
 20
-15.15
 30
0.0
 10
-6.65
 20
-15.10985
 30
0.0
 10
-6.65
 20
-15.10985
 30
0.0
 10
-6.65
 20
-15.10985
 30
0.0
 10
-6.69553
 20
-15.0835
 30
0.0
 10
-6.7335
 20
-15.04553
 30
0.0
 10
-6.75985
 20
-15.0
 30
0.0
 10
-6.75985
 20
-15.0
 30
0.0
 10
-6.75985
 20
-15.0
 30
0.0
 10
-6.8
 20
-15.0
 30
0.0
 10
-6.8
 20
-15.0
 30
0.0
 10
-6.8
 20
-15.0
 30
0.0
 10
-6.8
 20
-15.0
 30
0.0
 10
-6.8
 20
-14.85
 30
0.0
 10
-6.8
 20
-14.85
 30
0.0
 10
-6.8
 20
-14.85
 30
0.0
 10
-6.8
 20
-14.85
 30
0.0
 10
-6.8
 20
-14.7
 30
0.0
 10
-6.8
 20
-14.7
 30
0.0
  0
SPLINE
  5
7A
330
1F
100
AcDbEntity
  8
Layer 1
370
    53
100
AcDbSpline
210
0.0
220
0.0
230
1.0
 70
    11
 71
     3
 72
    84
 73
    80
 74
     0
 42
0.0000000001
 43
0.0000000001
 40
0.0
 40
0.0
 40
0.0
 40
0.0
 40
0.05
 40
0.05
 40
0.05
 40
0.05
 40
0.1
 40
0.1
 40
0.1
 40
0.1
 40
0.15
 40
0.15
 40
0.15
 40
0.15
 40
0.2
 40
0.2
 40
0.2
 40
0.2
 40
0.25
 40
0.25
 40
0.25
 40
0.25
 40
0.3
 40
0.3
 40
0.3
 40
0.3
 40
0.35
 40
0.35
 40
0.35
 40
0.35
 40
0.4
 40
0.4
 40
0.4
 40
0.4
 40
0.45
 40
0.45
 40
0.45
 40
0.45
 40
0.4999999999999999
 40
0.4999999999999999
 40
0.4999999999999999
 40
0.4999999999999999
 40
0.5499999999999999
 40
0.5499999999999999
 40
0.5499999999999999
 40
0.5499999999999999
 40
0.6
 40
0.6
 40
0.6
 40
0.6
 40
0.65
 40
0.65
 40
0.65
 40
0.65
 40
0.7000000000000001
 40
0.7000000000000001
 40
0.7000000000000001
 40
0.7000000000000001
 40
0.7500000000000001
 40
0.7500000000000001
 40
0.7500000000000001
 40
0.7500000000000001
 40
0.8000000000000002
 40
0.8000000000000002
 40
0.8000000000000002
 40
0.8000000000000002
 40
0.8500000000000002
 40
0.8500000000000002
 40
0.8500000000000002
 40
0.8500000000000002
 40
0.9000000000000002
 40
0.9000000000000002
 40
0.9000000000000002
 40
0.9000000000000002
 40
0.9500000000000003
 40
0.9500000000000003
 40
0.9500000000000003
 40
0.9500000000000003
 40
1.0
 40
1.0
 40
1.0
 40
1.0
 10
-6.8
 20
-12.7
 30
0.0
 10
-6.8
 20
-12.7
 30
0.0
 10
-6.75985
 20
-12.7
 30
0.0
 10
-6.75985
 20
-12.7
 30
0.0
 10
-6.75985
 20
-12.7
 30
0.0
 10
-6.7335
 20
-12.65447
 30
0.0
 10
-6.69553
 20
-12.6165
 30
0.0
 10
-6.65
 20
-12.59015
 30
0.0
 10
-6.65
 20
-12.59015
 30
0.0
 10
-6.65
 20
-12.59015
 30
0.0
 10
-6.65
 20
-12.55
 30
0.0
 10
-6.65
 20
-12.55
 30
0.0
 10
-6.65
 20
-12.55
 30
0.0
 10
-6.65
 20
-12.55
 30
0.0
 10
-6.5
 20
-12.55
 30
0.0
 10
-6.5
 20
-12.55
 30
0.0
 10
-6.5
 20
-12.55
 30
0.0
 10
-6.5
 20
-12.55
 30
0.0
 10
-6.35
 20
-12.55
 30
0.0
 10
-6.35
 20
-12.55
 30
0.0
 10
-6.35
 20
-12.55
 30
0.0
 10
-6.35
 20
-12.55
 30
0.0
 10
-6.35
 20
-12.59015
 30
0.0
 10
-6.35
 20
-12.59015
 30
0.0
 10
-6.35
 20
-12.59015
 30
0.0
 10
-6.30447
 20
-12.6165
 30
0.0
 10
-6.2665
 20
-12.65447
 30
0.0
 10
-6.24015
 20
-12.7
 30
0.0
 10
-6.24015
 20
-12.7
 30
0.0
 10
-6.24015
 20
-12.7
 30
0.0
 10
-6.2
 20
-12.7
 30
0.0
 10
-6.2
 20
-12.7
 30
0.0
 10
-6.2
 20
-12.7
 30
0.0
 10
-6.2
 20
-12.7
 30
0.0
 10
-6.2
 20
-12.85
 30
0.0
 10
-6.2
 20
-12.85
 30
0.0
 10
-6.2
 20
-12.85
 30
0.0
 10
-6.2
 20
-12.85
 30
0.0
 10
-6.2
 20
-13.0
 30
0.0
 10
-6.2
 20
-13.0
 30
0.0
 10
-6.2
 20
-13.0
 30
0.0
 10
-6.2
 20
-13.0
 30
0.0
 10
-6.24015
 20
-13.0
 30
0.0
 10
-6.24015
 20
-13.0
 30
0.0
 10
-6.24015
 20
-13.0
 30
0.0
 10
-6.2665
 20
-13.04553
 30
0.0
 10
-6.30447
 20
-13.0835
 30
0.0
 10
-6.35
 20
-13.10985
 30
0.0
 10
-6.35
 20
-13.10985
 30
0.0
 10
-6.35
 20
-13.10985
 30
0.0
 10
-6.35
 20
-13.15
 30
0.0
 10
-6.35
 20
-13.15
 30
0.0
 10
-6.35
 20
-13.15
 30
0.0
 10
-6.35
 20
-13.15
 30
0.0
 10
-6.5
 20
-13.15
 30
0.0
 10
-6.5
 20
-13.15
 30
0.0
 10
-6.5
 20
-13.15
 30
0.0
 10
-6.5
 20
-13.15
 30
0.0
 10
-6.65
 20
-13.15
 30
0.0
 10
-6.65
 20
-13.15
 30
0.0
 10
-6.65
 20
-13.15
 30
0.0
 10
-6.65
 20
-13.15
 30
0.0
 10
-6.65
 20
-13.10985
 30
0.0
 10
-6.65
 20
-13.10985
 30
0.0
 10
-6.65
 20
-13.10985
 30
0.0
 10
-6.69553
 20
-13.0835
 30
0.0
 10
-6.7335
 20
-13.04553
 30
0.0
 10
-6.75985
 20
-13.0
 30
0.0
 10
-6.75985
 20
-13.0
 30
0.0
 10
-6.75985
 20
-13.0
 30
0.0
 10
-6.8
 20
-13.0
 30
0.0
 10
-6.8
 20
-13.0
 30
0.0
 10
-6.8
 20
-13.0
 30
0.0
 10
-6.8
 20
-13.0
 30
0.0
 10
-6.8
 20
-12.85
 30
0.0
 10
-6.8
 20
-12.85
 30
0.0
 10
-6.8
 20
-12.85
 30
0.0
 10
-6.8
 20
-12.85
 30
0.0
 10
-6.8
 20
-12.7
 30
0.0
 10
-6.8
 20
-12.7
 30
0.0
  0
LWPOLYLINE
  5
7B
330
1F
100
AcDbEntity
  8
Layer 1
370
    53
100
AcDbPolyline
 90
        5
 70
     1
 43
0.0
 10
-6.65
 20
-16.15
 10
-6.35
 20
-16.15
 10
-6.35
 20
-15.55
 10
-6.65
 20
-15.55
 10
-6.65
 20
-16.15
  0
LWPOLYLINE
  5
7C
330
1F
100
AcDbEntity
  8
Layer 1
370
    53
100
AcDbPolyline
 90
        5
 70
     1
 43
0.0
 10
-6.65
 20
-14.15
 10
-6.35
 20
-14.15
 10
-6.35
 20
-13.55
 10
-6.65
 20
-13.55
 10
-6.65
 20
-14.15
  0
LWPOLYLINE
  5
7D
330
1F
100
AcDbEntity
  8
Layer 1
370
    53
100
AcDbPolyline
 90
        5
 70
     1
 43
0.0
 10
-13.8
 20
-17.0
 10
-13.2
 20
-17.0
 10
-13.2
 20
-16.7
 10
-13.8
 20
-16.7
 10
-13.8
 20
-17.0
  0
LWPOLYLINE
  5
7E
330
1F
100
AcDbEntity
  8
Layer 1
370
    53
100
AcDbPolyline
 90
        5
 70
     1
 43
0.0
 10
-7.8
 20
-17.0
 10
-7.2
 20
-17.0
 10
-7.2
 20
-16.7
 10
-7.8
 20
-16.7
 10
-7.8
 20
-17.0
  0
LWPOLYLINE
  5
7F
330
1F
100
AcDbEntity
  8
Layer 1
370
    53
100
AcDbPolyline
 90
        5
 70
     1
 43
0.0
 10
-13.8
 20
-15.0
 10
-13.2
 20
-15.0
 10
-13.2
 20
-14.7
 10
-13.8
 20
-14.7
 10
-13.8
 20
-15.0
  0
LWPOLYLINE
  5
80
330
1F
100
AcDbEntity
  8
Layer 1
370
    53
100
AcDbPolyline
 90
        5
 70
     1
 43
0.0
 10
-7.8
 20
-15.0
 10
-7.2
 20
-15.0
 10
-7.2
 20
-14.7
 10
-7.8
 20
-14.7
 10
-7.8
 20
-15.0
  0
LWPOLYLINE
  5
81
330
1F
100
AcDbEntity
  8
Layer 1
370
    53
100
AcDbPolyline
 90
        5
 70
     1
 43
0.0
 10
-13.8
 20
-13.0
 10
-13.2
 20
-13.0
 10
-13.2
 20
-12.7
 10
-13.8
 20
-12.7
 10
-13.8
 20
-13.0
  0
LWPOLYLINE
  5
82
330
1F
100
AcDbEntity
  8
Layer 1
370
    53
100
AcDbPolyline
 90
        5
 70
     1
 43
0.0
 10
-7.8
 20
-13.0
 10
-7.2
 20
-13.0
 10
-7.2
 20
-12.7
 10
-7.8
 20
-12.7
 10
-7.8
 20
-13.0
  0
SPLINE
  5
83
330
1F
100
AcDbEntity
  8
Layer 1
370
    53
100
AcDbSpline
210
0.0
220
0.0
230
1.0
 70
    11
 71
     3
 72
    36
 73
    32
 74
     0
 42
0.0000000001
 43
0.0000000001
 40
0.0
 40
0.0
 40
0.0
 40
0.0
 40
0.125
 40
0.125
 40
0.125
 40
0.125
 40
0.25
 40
0.25
 40
0.25
 40
0.25
 40
0.375
 40
0.375
 40
0.375
 40
0.375
 40
0.5
 40
0.5
 40
0.5
 40
0.5
 40
0.625
 40
0.625
 40
0.625
 40
0.625
 40
0.75
 40
0.75
 40
0.75
 40
0.75
 40
0.875
 40
0.875
 40
0.875
 40
0.875
 40
1.0
 40
1.0
 40
1.0
 40
1.0
 10
-15.15
 20
-17.0
 30
0.0
 10
-15.15
 20
-17.0
 30
0.0
 10
-15.15
 20
-12.7
 30
0.0
 10
-15.15
 20
-12.7
 30
0.0
 10
-15.15
 20
-12.7
 30
0.0
 10
-15.15
 20
-12.42391
 30
0.0
 10
-14.92609
 20
-12.2
 30
0.0
 10
-14.65
 20
-12.2
 30
0.0
 10
-14.65
 20
-12.2
 30
0.0
 10
-14.65
 20
-12.2
 30
0.0
 10
-6.35
 20
-12.2
 30
0.0
 10
-6.35
 20
-12.2
 30
0.0
 10
-6.35
 20
-12.2
 30
0.0
 10
-6.07391
 20
-12.2
 30
0.0
 10
-5.85
 20
-12.42391
 30
0.0
 10
-5.85
 20
-12.7
 30
0.0
 10
-5.85
 20
-12.7
 30
0.0
 10
-5.85
 20
-12.7
 30
0.0
 10
-5.85
 20
-17.0
 30
0.0
 10
-5.85
 20
-17.0
 30
0.0
 10
-5.85
 20
-17.0
 30
0.0
 10
-5.85
 20
-17.27609
 30
0.0
 10
-6.07391
 20
-17.5
 30
0.0
 10
-6.35
 20
-17.5
 30
0.0
 10
-6.35
 20
-17.5
 30
0.0
 10
-6.35
 20
-17.5
 30
0.0
 10
-14.65
 20
-17.5
 30
0.0
 10
-14.65
 20
-17.5
 30
0.0
 10
-14.65
 20
-17.5
 30
0.0
 10
-14.92609
 20
-17.5
 30
0.0
 10
-15.15
 20
-17.27609
 30
0.0
 10
-15.15
 20
-17.0
 30
0.0
  0
ENDSEC
  0
SECTION
  2
OBJECTS
  0
DICTIONARY
  5
C
330
0
100
AcDbDictionary
281
     1
  3
ACAD_GROUP
350
D
  3
ACAD_LAYOUT
350
1A
  3
ACAD_MLEADERSTYLE
350
85
  3
ACAD_MLINESTYLE
350
17
  3
ACAD_PLOTSETTINGS
350
19
  3
ACAD_PLOTSTYLENAME
350
E
  3
ACAD_SCALELIST
350
3B
  3
ACAD_TABLESTYLE
350
84
  3
ACAD_VISUALSTYLE
350
2A
  0
DICTIONARY
  5
D
102
{ACAD_REACTORS
330
C
102
}
330
C
100
AcDbDictionary
281
     1
  0
DICTIONARY
  5
1A
102
{ACAD_REACTORS
330
C
102
}
330
C
100
AcDbDictionary
281
     1
  3
Layout1
350
1E
  3
Layout2
350
26
  3
Model
350
22
  0
DICTIONARY
  5
85
102
{ACAD_REACTORS
330
C
102
}
330
C
100
AcDbDictionary
281
     1
  0
DICTIONARY
  5
17
102
{ACAD_REACTORS
330
C
102
}
330
C
100
AcDbDictionary
281
     1
  3
Standard
350
18
  0
DICTIONARY
  5
19
102
{ACAD_REACTORS
330
C
102
}
330
C
100
AcDbDictionary
281
     1
  0
ACDBDICTIONARYWDFLT
  5
E
102
{ACAD_REACTORS
330
C
102
}
330
C
100
AcDbDictionary
281
     1
  3
Normal
350
F
100
AcDbDictionaryWithDefault
340
F
  0
DICTIONARY
  5
3B
102
{ACAD_REACTORS
330
C
102
}
330
C
100
AcDbDictionary
281
     1
  3
A0
350
3C
  3
A1
350
3D
  3
A2
350
3E
  3
A3
350
3F
  3
A4
350
40
  3
A5
350
41
  3
A6
350
42
  3
A7
350
43
  3
A8
350
44
  3
A9
350
45
  3
B0
350
46
  3
B1
350
47
  3
B2
350
48
  3
B3
350
49
  3
B4
350
4A
  3
B5
350
4B
  3
B6
350
4C
  3
B7
350
4D
  3
B8
350
4E
  3
B9
350
4F
  3
C0
350
50
  3
C1
350
51
  3
C2
350
52
  3
C3
350
53
  3
C4
350
54
  3
C5
350
55
  3
C6
350
56
  3
C7
350
57
  3
C8
350
58
  3
C9
350
59
  3
D0
350
5A
  3
D1
350
5B
  3
D2
350
5C
  0
DICTIONARY
  5
84
102
{ACAD_REACTORS
330
C
102
}
330
C
100
AcDbDictionary
281
     1
  0
DICTIONARY
  5
2A
102
{ACAD_REACTORS
330
C
102
}
330
C
100
AcDbDictionary
281
     1
  3
2dWireframe
350
2F
  3
3D Hidden
350
31
  3
3dWireframe
350
30
  3
Basic
350
32
  3
Brighten
350
36
  3
ColorChange
350
3A
  3
Conceptual
350
34
  3
Dim
350
35
  3
Facepattern
350
39
  3
Flat
350
2B
  3
FlatWithEdges
350
2C
  3
Gouraud
350
2D
  3
GouraudWithEdges
350
2E
  3
Linepattern
350
38
  3
Realistic
350
33
  3
Thicken
350
37
  0
LAYOUT
  5
1E
102
{ACAD_REACTORS
330
1A
102
}
330
1A
100
AcDbPlotSettings
  1

  2
none_device
  4

  6

 40
0.0
 41
0.0
 42
0.0
 43
0.0
 44
0.0
 45
0.0
 46
0.0
 47
0.0
 48
0.0
 49
0.0
140
0.0
141
0.0
142
1.0
143
1.0
 70
   688
 72
     0
 73
     0
 74
     5
  7

 75
    16
 76
     0
 77
     2
 78
   300
147
1.0
148
0.0
149
0.0
100
AcDbLayout
  1
Layout1
 70
     1
 71
     1
 10
0.0
 20
0.0
 11
12.0
 21
9.0
 12
0.0
 22
0.0
 32
0.0
 14
1.000000000000000E+20
 24
1.000000000000000E+20
 34
1.000000000000000E+20
 15
-1.000000000000000E+20
 25
-1.000000000000000E+20
 35
-1.000000000000000E+20
146
0.0
 13
0.0
 23
0.0
 33
0.0
 16
1.0
 26
0.0
 36
0.0
 17
0.0
 27
1.0
 37
0.0
 76
     0
330
1B
  0
LAYOUT
  5
26
102
{ACAD_REACTORS
330
1A
102
}
330
1A
100
AcDbPlotSettings
  1

  2
none_device
  4

  6

 40
0.0
 41
0.0
 42
0.0
 43
0.0
 44
0.0
 45
0.0
 46
0.0
 47
0.0
 48
0.0
 49
0.0
140
0.0
141
0.0
142
1.0
143
1.0
 70
   688
 72
     0
 73
     0
 74
     5
  7

 75
    16
 76
     0
 77
     2
 78
   300
147
1.0
148
0.0
149
0.0
100
AcDbLayout
  1
Layout2
 70
     1
 71
     2
 10
0.0
 20
0.0
 11
0.0
 21
0.0
 12
0.0
 22
0.0
 32
0.0
 14
0.0
 24
0.0
 34
0.0
 15
0.0
 25
0.0
 35
0.0
146
0.0
 13
0.0
 23
0.0
 33
0.0
 16
1.0
 26
0.0
 36
0.0
 17
0.0
 27
1.0
 37
0.0
 76
     0
330
23
  0
LAYOUT
  5
22
102
{ACAD_REACTORS
330
1A
102
}
330
1A
100
AcDbPlotSettings
  1

  2
none_device
  4

  6

 40
0.0
 41
0.0
 42
0.0
 43
0.0
 44
0.0
 45
0.0
 46
0.0
 47
0.0
 48
0.0
 49
0.0
140
0.0
141
0.0
142
1.0
143
1.0
 70
  1712
 72
     0
 73
     0
 74
     0
  7

 75
     0
 76
     0
 77
     2
 78
   300
147
1.0
148
0.0
149
0.0
100
AcDbLayout
  1
Model
 70
     1
 71
     0
 10
0.0
 20
0.0
 11
12.0
 21
9.0
 12
0.0
 22
0.0
 32
0.0
 14
-15.17646
 24
-17.52646
 34
0.0
 15
-5.82354
 25
-12.17354
 35
0.0
146
0.0
 13
0.0
 23
0.0
 33
0.0
 16
1.0
 26
0.0
 36
0.0
 17
0.0
 27
1.0
 37
0.0
 76
     0
330
1F
331
29
  0
MLINESTYLE
  5
18
102
{ACAD_REACTORS
330
17
102
}
330
17
100
AcDbMlineStyle
  2
Standard
 70
     0
  3

 62
   256
 51
90.0
 52
90.0
 71
     2
 49
0.5
 62
   256
  6
BYLAYER
 49
-0.5
 62
   256
  6
BYLAYER
  0
ACDBPLACEHOLDER
  5
F
102
{ACAD_REACTORS
330
E
102
}
330
E
  0
SCALE
  5
3C
102
{ACAD_REACTORS
330
3B
102
}
330
3B
100
AcDbScale
 70
     0
300
1:1
140
1.0
141
1.0
290
     1
  0
SCALE
  5
3D
102
{ACAD_REACTORS
330
3B
102
}
330
3B
100
AcDbScale
 70
     0
300
1:2
140
1.0
141
2.0
290
     0
  0
SCALE
  5
3E
102
{ACAD_REACTORS
330
3B
102
}
330
3B
100
AcDbScale
 70
     0
300
1:4
140
1.0
141
4.0
290
     0
  0
SCALE
  5
3F
102
{ACAD_REACTORS
330
3B
102
}
330
3B
100
AcDbScale
 70
     0
300
1:5
140
1.0
141
5.0
290
     0
  0
SCALE
  5
40
102
{ACAD_REACTORS
330
3B
102
}
330
3B
100
AcDbScale
 70
     0
300
1:8
140
1.0
141
8.0
290
     0
  0
SCALE
  5
41
102
{ACAD_REACTORS
330
3B
102
}
330
3B
100
AcDbScale
 70
     0
300
1:10
140
1.0
141
10.0
290
     0
  0
SCALE
  5
42
102
{ACAD_REACTORS
330
3B
102
}
330
3B
100
AcDbScale
 70
     0
300
1:16
140
1.0
141
16.0
290
     0
  0
SCALE
  5
43
102
{ACAD_REACTORS
330
3B
102
}
330
3B
100
AcDbScale
 70
     0
300
1:20
140
1.0
141
20.0
290
     0
  0
SCALE
  5
44
102
{ACAD_REACTORS
330
3B
102
}
330
3B
100
AcDbScale
 70
     0
300
1:30
140
1.0
141
30.0
290
     0
  0
SCALE
  5
45
102
{ACAD_REACTORS
330
3B
102
}
330
3B
100
AcDbScale
 70
     0
300
1:40
140
1.0
141
40.0
290
     0
  0
SCALE
  5
46
102
{ACAD_REACTORS
330
3B
102
}
330
3B
100
AcDbScale
 70
     0
300
1:50
140
1.0
141
50.0
290
     0
  0
SCALE
  5
47
102
{ACAD_REACTORS
330
3B
102
}
330
3B
100
AcDbScale
 70
     0
300
1:100
140
1.0
141
100.0
290
     0
  0
SCALE
  5
48
102
{ACAD_REACTORS
330
3B
102
}
330
3B
100
AcDbScale
 70
     0
300
2:1
140
2.0
141
1.0
290
     0
  0
SCALE
  5
49
102
{ACAD_REACTORS
330
3B
102
}
330
3B
100
AcDbScale
 70
     0
300
4:1
140
4.0
141
1.0
290
     0
  0
SCALE
  5
4A
102
{ACAD_REACTORS
330
3B
102
}
330
3B
100
AcDbScale
 70
     0
300
8:1
140
8.0
141
1.0
290
     0
  0
SCALE
  5
4B
102
{ACAD_REACTORS
330
3B
102
}
330
3B
100
AcDbScale
 70
     0
300
10:1
140
10.0
141
1.0
290
     0
  0
SCALE
  5
4C
102
{ACAD_REACTORS
330
3B
102
}
330
3B
100
AcDbScale
 70
     0
300
100:1
140
100.0
141
1.0
290
     0
  0
SCALE
  5
4D
102
{ACAD_REACTORS
330
3B
102
}
330
3B
100
AcDbScale
 70
     0
300
1/128" = 1'-0"
140
0.0078125
141
12.0
290
     0
  0
SCALE
  5
4E
102
{ACAD_REACTORS
330
3B
102
}
330
3B
100
AcDbScale
 70
     0
300
1/64" = 1'-0"
140
0.015625
141
12.0
290
     0
  0
SCALE
  5
4F
102
{ACAD_REACTORS
330
3B
102
}
330
3B
100
AcDbScale
 70
     0
300
1/32" = 1'-0"
140
0.03125
141
12.0
290
     0
  0
SCALE
  5
50
102
{ACAD_REACTORS
330
3B
102
}
330
3B
100
AcDbScale
 70
     0
300
1/16" = 1'-0"
140
0.0625
141
12.0
290
     0
  0
SCALE
  5
51
102
{ACAD_REACTORS
330
3B
102
}
330
3B
100
AcDbScale
 70
     0
300
3/32" = 1'-0"
140
0.09375
141
12.0
290
     0
  0
SCALE
  5
52
102
{ACAD_REACTORS
330
3B
102
}
330
3B
100
AcDbScale
 70
     0
300
1/8" = 1'-0"
140
0.125
141
12.0
290
     0
  0
SCALE
  5
53
102
{ACAD_REACTORS
330
3B
102
}
330
3B
100
AcDbScale
 70
     0
300
3/16" = 1'-0"
140
0.1875
141
12.0
290
     0
  0
SCALE
  5
54
102
{ACAD_REACTORS
330
3B
102
}
330
3B
100
AcDbScale
 70
     0
300
1/4" = 1'-0"
140
0.25
141
12.0
290
     0
  0
SCALE
  5
55
102
{ACAD_REACTORS
330
3B
102
}
330
3B
100
AcDbScale
 70
     0
300
3/8" = 1'-0"
140
0.375
141
12.0
290
     0
  0
SCALE
  5
56
102
{ACAD_REACTORS
330
3B
102
}
330
3B
100
AcDbScale
 70
     0
300
1/2" = 1'-0"
140
0.5
141
12.0
290
     0
  0
SCALE
  5
57
102
{ACAD_REACTORS
330
3B
102
}
330
3B
100
AcDbScale
 70
     0
300
3/4" = 1'-0"
140
0.75
141
12.0
290
     0
  0
SCALE
  5
58
102
{ACAD_REACTORS
330
3B
102
}
330
3B
100
AcDbScale
 70
     0
300
1" = 1'-0"
140
1.0
141
12.0
290
     0
  0
SCALE
  5
59
102
{ACAD_REACTORS
330
3B
102
}
330
3B
100
AcDbScale
 70
     0
300
1-1/2" = 1'-0"
140
1.5
141
12.0
290
     0
  0
SCALE
  5
5A
102
{ACAD_REACTORS
330
3B
102
}
330
3B
100
AcDbScale
 70
     0
300
3" = 1'-0"
140
3.0
141
12.0
290
     0
  0
SCALE
  5
5B
102
{ACAD_REACTORS
330
3B
102
}
330
3B
100
AcDbScale
 70
     0
300
6" = 1'-0"
140
6.0
141
12.0
290
     0
  0
SCALE
  5
5C
102
{ACAD_REACTORS
330
3B
102
}
330
3B
100
AcDbScale
 70
     0
300
1'-0" = 1'-0"
140
12.0
141
12.0
290
     0
  0
VISUALSTYLE
  5
2F
102
{ACAD_REACTORS
330
2A
102
}
330
2A
100
AcDbVisualStyle
  2
2dWireframe
 70
     4
 71
     0
 72
     2
 73
     0
 90
        0
 40
-0.6
 41
-30.0
 62
     5
 63
     7
421
 16777215
 74
     1
 91
        4
 64
     7
 65
   257
 75
     1
175
     1
 42
1.0
 92
        0
 66
   257
 43
1.0
 76
     1
 77
     6
 78
     2
 67
     7
 79
     5
170
     0
171
     0
290
     0
174
     0
 93
        1
 44
0.0
173
     0
291
     0
 45
0.0
  0
VISUALSTYLE
  5
31
102
{ACAD_REACTORS
330
2A
102
}
330
2A
100
AcDbVisualStyle
  2
3D Hidden
 70
     6
 71
     1
 72
     2
 73
     2
 90
        0
 40
-0.6
 41
-30.0
 62
     5
 63
     7
421
 16777215
 74
     2
 91
        2
 64
     7
 65
   257
 75
     2
175
     1
 42
40.0
 92
        0
 66
   257
 43
1.0
 76
     1
 77
     6
 78
     2
 67
     7
 79
     3
170
     0
171
     0
290
     0
174
     0
 93
        1
 44
0.0
173
     0
291
     0
 45
0.0
  0
VISUALSTYLE
  5
30
102
{ACAD_REACTORS
330
2A
102
}
330
2A
100
AcDbVisualStyle
  2
3dWireframe
 70
     5
 71
     0
 72
     2
 73
     0
 90
        0
 40
-0.6
 41
-30.0
 62
     5
 63
     7
421
 16777215
 74
     1
 91
        4
 64
     7
 65
   257
 75
     1
175
     1
 42
1.0
 92
        0
 66
   257
 43
1.0
 76
     1
 77
     6
 78
     2
 67
     7
 79
     5
170
     0
171
     0
290
     0
174
     0
 93
        1
 44
0.0
173
     0
291
     0
 45
0.0
  0
VISUALSTYLE
  5
32
102
{ACAD_REACTORS
330
2A
102
}
330
2A
100
AcDbVisualStyle
  2
Basic
 70
     7
 71
     1
 72
     0
 73
     1
 90
        0
 40
-0.6
 41
-30.0
 62
     5
 63
     7
421
 16777215
 74
     0
 91
        4
 64
     7
 65
   257
 75
     1
175
     1
 42
1.0
 92
        8
 66
     7
 43
1.0
 76
     1
 77
     6
 78
     2
 67
     7
 79
     5
170
     0
171
     0
290
     0
174
     0
 93
        1
 44
0.0
173
     0
291
     1
 45
0.0
  0
VISUALSTYLE
  5
36
102
{ACAD_REACTORS
330
2A
102
}
330
2A
100
AcDbVisualStyle
  2
Brighten
 70
    12
 71
     2
 72
     2
 73
     0
 90
        0
 40
-0.6
 41
-30.0
 62
     5
 63
     7
421
 16777215
 74
     1
 91
        4
 64
     7
 65
   257
 75
     1
175
     1
 42
1.0
 92
        8
 66
     7
 43
1.0
 76
     1
 77
     6
 78
     2
 67
     7
 79
     5
170
     0
171
     0
290
     0
174
     0
 93
        1
 44
50.0
173
     0
291
     1
 45
0.0
  0
VISUALSTYLE
  5
3A
102
{ACAD_REACTORS
330
2A
102
}
330
2A
100
AcDbVisualStyle
  2
ColorChange
 70
    16
 71
     2
 72
     2
 73
     3
 90
        0
 40
-0.6
 41
-30.0
 62
     5
 63
     8
421
  8421504
 74
     1
 91
        4
 64
     7
 65
   257
 75
     1
175
     1
 42
1.0
 92
        8
 66
     8
424
  8421504
 43
1.0
 76
     1
 77
     6
 78
     2
 67
     7
 79
     5
170
     0
171
     0
290
     0
174
     0
 93
        1
 44
0.0
173
     0
291
     1
 45
0.0
  0
VISUALSTYLE
  5
34
102
{ACAD_REACTORS
330
2A
102
}
330
2A
100
AcDbVisualStyle
  2
Conceptual
 70
     9
 71
     3
 72
     2
 73
     0
 90
        0
 40
-0.6
 41
-30.0
 62
     5
 63
     7
421
 16777215
 74
     2
 91
        2
 64
     7
 65
   257
 75
     1
175
     1
 42
40.0
 92
        8
 66
     7
 43
1.0
 76
     1
 77
     6
 78
     2
 67
     7
 79
     3
170
     0
171
     0
290
     0
174
     0
 93
        1
 44
0.0
173
     0
291
     0
 45
0.0
  0
VISUALSTYLE
  5
35
102
{ACAD_REACTORS
330
2A
102
}
330
2A
100
AcDbVisualStyle
  2
Dim
 70
    11
 71
     2
 72
     2
 73
     0
 90
        0
 40
-0.6
 41
-30.0
 62
     5
 63
     7
421
 16777215
 74
     1
 91
        4
 64
     7
 65
   257
 75
     1
175
     1
 42
1.0
 92
        8
 66
     7
 43
1.0
 76
     1
 77
     6
 78
     2
 67
     7
 79
     5
170
     0
171
     0
290
     0
174
     0
 93
        1
 44
-50.0
173
     0
291
     1
 45
0.0
  0
VISUALSTYLE
  5
39
102
{ACAD_REACTORS
330
2A
102
}
330
2A
100
AcDbVisualStyle
  2
Facepattern
 70
    15
 71
     2
 72
     2
 73
     0
 90
        0
 40
-0.6
 41
-30.0
 62
     5
 63
     7
421
 16777215
 74
     1
 91
        4
 64
     7
 65
   257
 75
     1
175
     1
 42
1.0
 92
        8
 66
     7
 43
1.0
 76
     1
 77
     6
 78
     2
 67
     7
 79
     5
170
     0
171
     0
290
     0
174
     0
 93
        1
 44
0.0
173
     0
291
     1
 45
0.0
  0
VISUALSTYLE
  5
2B
102
{ACAD_REACTORS
330
2A
102
}
330
2A
100
AcDbVisualStyle
  2
Flat
 70
     0
 71
     2
 72
     1
 73
     1
 90
        2
 40
-0.6
 41
30.0
 62
     5
 63
     7
421
 16777215
 74
     0
 91
        4
 64
     7
 65
   257
 75
     1
175
     1
 42
1.0
 92
        8
 66
     7
 43
1.0
 76
     1
 77
     6
 78
     2
 67
     7
 79
     5
170
     0
171
     0
290
     0
174
     0
 93
       13
 44
0.0
173
     0
291
     1
 45
0.0
  0
VISUALSTYLE
  5
2C
102
{ACAD_REACTORS
330
2A
102
}
330
2A
100
AcDbVisualStyle
  2
FlatWithEdges
 70
     1
 71
     2
 72
     1
 73
     1
 90
        2
 40
-0.6
 41
30.0
 62
     5
 63
     7
421
 16777215
 74
     1
 91
        4
 64
     7
 65
   257
 75
     1
175
     1
 42
1.0
 92
        0
 66
   257
 43
1.0
 76
     1
 77
     6
 78
     2
 67
     7
 79
     5
170
     0
171
     0
290
     0
174
     0
 93
       13
 44
0.0
173
     0
291
     1
 45
0.0
  0
VISUALSTYLE
  5
2D
102
{ACAD_REACTORS
330
2A
102
}
330
2A
100
AcDbVisualStyle
  2
Gouraud
 70
     2
 71
     2
 72
     2
 73
     1
 90
        2
 40
-0.6
 41
30.0
 62
     5
 63
     7
421
 16777215
 74
     0
 91
        4
 64
     7
 65
   257
 75
     1
175
     1
 42
1.0
 92
        0
 66
     7
 43
1.0
 76
     1
 77
     6
 78
     2
 67
     7
 79
     5
170
     0
171
     0
290
     0
174
     0
 93
       13
 44
0.0
173
     0
291
     1
 45
0.0
  0
VISUALSTYLE
  5
2E
102
{ACAD_REACTORS
330
2A
102
}
330
2A
100
AcDbVisualStyle
  2
GouraudWithEdges
 70
     3
 71
     2
 72
     2
 73
     1
 90
        2
 40
-0.6
 41
30.0
 62
     5
 63
     7
421
 16777215
 74
     1
 91
        4
 64
     7
 65
   257
 75
     1
175
     1
 42
1.0
 92
        0
 66
   257
 43
1.0
 76
     1
 77
     6
 78
     2
 67
     7
 79
     5
170
     0
171
     0
290
     0
174
     0
 93
       13
 44
0.0
173
     0
291
     1
 45
0.0
  0
VISUALSTYLE
  5
38
102
{ACAD_REACTORS
330
2A
102
}
330
2A
100
AcDbVisualStyle
  2
Linepattern
 70
    14
 71
     2
 72
     2
 73
     0
 90
        0
 40
-0.6
 41
-30.0
 62
     5
 63
     7
421
 16777215
 74
     1
 91
        4
 64
     7
 65
   257
 75
     7
175
     7
 42
1.0
 92
        8
 66
     7
 43
1.0
 76
     1
 77
     6
 78
     2
 67
     7
 79
     5
170
     0
171
     0
290
     0
174
     0
 93
        1
 44
0.0
173
     0
291
     1
 45
0.0
  0
VISUALSTYLE
  5
33
102
{ACAD_REACTORS
330
2A
102
}
330
2A
100
AcDbVisualStyle
  2
Realistic
 70
     8
 71
     2
 72
     2
 73
     0
 90
        0
 40
-0.6
 41
-30.0
 62
     5
 63
     7
421
 16777215
 74
     1
 91
        0
 64
     7
 65
   257
 75
     1
175
     1
 42
1.0
 92
        8
 66
     8
424
  7895160
 43
1.0
 76
     1
 77
     6
 78
     2
 67
     7
 79
     5
170
     0
171
     0
290
     0
174
     0
 93
       13
 44
0.0
173
     0
291
     0
 45
0.0
  0
VISUALSTYLE
  5
37
102
{ACAD_REACTORS
330
2A
102
}
330
2A
100
AcDbVisualStyle
  2
Thicken
 70
    13
 71
     2
 72
     2
 73
     0
 90
        0
 40
-0.6
 41
-30.0
 62
     5
 63
     7
421
 16777215
 74
     1
 91
        4
 64
     7
 65
   257
 75
     1
175
     1
 42
1.0
 92
       12
 66
     7
 43
1.0
 76
     1
 77
     6
 78
     2
 67
     7
 79
     5
170
     0
171
     0
290
     0
174
     0
 93
        1
 44
0.0
173
     0
291
     1
 45
0.0
  0
ENDSEC
  0
EOF
