<?xml version="1.0" encoding="UTF-8"?>
<!DOCTYPE svg PUBLIC "-//W3C//DTD SVG 1.1//EN" "http://www.w3.org/Graphics/SVG/1.1/DTD/svg11.dtd">
<!-- Creator: CorelDRAW -->
<svg xmlns="http://www.w3.org/2000/svg" xml:space="preserve" width="210mm" height="297mm" style="shape-rendering:geometricPrecision; text-rendering:geometricPrecision; image-rendering:optimizeQuality; fill-rule:evenodd; clip-rule:evenodd"
viewBox="0 0 210 297"
 xmlns:xlink="http://www.w3.org/1999/xlink">
 <defs>
  <style type="text/css">
   <![CDATA[
    .str0 {stroke:black;stroke-width:0.5644}
    .fil0 {fill:none;fill-rule:nonzero}
   ]]>
  </style>
 </defs>
 <g id="Layer_x0020_1">
  <metadata id="CorelCorpID_0Corel-Layer"/>
  <g id="_113954480">
   <path id="_113958800" class="fil0 str0" d="M-141.499 290.5l283 0c2.77,0 4.9995,2.2309 4.9995,5.0009l0 3.0001c0,2.7696 -2.2295,4.9992 -4.9995,4.9992l-283 0c-2.77,0 -5.0009,-2.2296 -5.0009,-4.9992l0 -3.0001c0,-2.77 2.2309,-5.0009 5.0009,-5.0009zm0 0z"/>
   <path id="_113959928" class="fil0 str0" d="M-141.499 300l0 -0.4011c-0.4561,-0.2632 -0.8353,-0.6435 -1.0985,-1.0982l-0.4022 0 0 -1.5008 0 -1.4993 0.4022 0c0.2632,-0.4561 0.6424,-0.8353 1.0985,-1.0985l0 -0.4022 1.4994 0 1.5007 0 0 0.4022c0.4547,0.2632 0.835,0.6424 1.0982,1.0985l0.4011 0 0 1.4993 0 1.5008 -0.4011 0c-0.2632,0.4547 -0.6435,0.835 -1.0982,1.0982l0 0.4011 -1.5007 0 -1.4994 0zm0 0z"/>
   <path id="_113959568" class="fil0 str0" d="M-121.5 300l0 -0.4011c-0.4548,-0.2632 -0.8351,-0.6435 -1.0982,-1.0982l-0.4011 0 0 -1.5008 0 -1.4993 0.4011 0c0.2631,-0.4561 0.6434,-0.8353 1.0982,-1.0985l0 -0.4022 1.5007 0 1.4993 0 0 0.4022c0.4547,0.2632 0.835,0.6424 1.0982,1.0985l0.4025 0 0 1.4993 0 1.5008 -0.4025 0c-0.2632,0.4547 -0.6435,0.835 -1.0982,1.0982l0 0.4011 -1.4993 0 -1.5007 0zm0 0z"/>
   <path id="_113956136" class="fil0 str0" d="M-101.501 300l0 -0.4011c-0.4547,-0.2632 -0.8336,-0.6435 -1.0982,-1.0982l-0.4011 0 0 -1.5008 0 -1.4993 0.4011 0c0.2646,-0.4561 0.6435,-0.8353 1.0982,-1.0985l0 -0.4022 1.5007 0 1.4993 0 0 0.4022c0.4562,0.2632 0.8354,0.6424 1.0986,1.0985l0.4021 0 0 1.4993 0 1.5008 -0.4021 0c-0.2632,0.4547 -0.6424,0.835 -1.0986,1.0982l0 0.4011 -1.4993 0 -1.5007 0zm0 0z"/>
   <path id="_113958656" class="fil0 str0" d="M-81.4994 300l0 -0.4011c-0.4562,-0.2632 -0.835,-0.6435 -1.0982,-1.0982l-0.4025 0 0 -1.5008 0 -1.4993 0.4025 0c0.2632,-0.4561 0.642,-0.8353 1.0982,-1.0985l0 -0.4022 1.4993 0 1.5007 0 0 0.4022c0.4547,0.2632 0.835,0.6424 1.0982,1.0985l0.4011 0 0 1.4993 0 1.5008 -0.4011 0c-0.2632,0.4547 -0.6435,0.835 -1.0982,1.0982l0 0.4011 -1.5007 0 -1.4993 0zm0 0z"/>
   <path id="_113958056" class="fil0 str0" d="M-61.5001 300l0 -0.4011c-0.4547,-0.2632 -0.835,-0.6435 -1.0982,-1.0982l-0.4011 0 0 -1.5008 0 -1.4993 0.4011 0c0.2632,-0.4561 0.6435,-0.8353 1.0982,-1.0985l0 -0.4022 1.5007 0 1.4993 0 0 0.4022c0.4562,0.2632 0.8351,0.6424 1.0982,1.0985l0.4025 0 0 1.4993 0 1.5008 -0.4025 0c-0.2631,0.4547 -0.642,0.835 -1.0982,1.0982l0 0.4011 -1.4993 0 -1.5007 0zm0 0z"/>
   <path id="_113958824" class="fil0 str0" d="M-41.5004 300l0 -0.4011c-0.4547,-0.2632 -0.834,-0.6435 -1.0986,-1.0982l-0.4007 0 0 -1.5008 0 -1.4993 0.4007 0c0.2646,-0.4561 0.6439,-0.8353 1.0986,-1.0985l0 -0.4022 1.5007 0 1.4993 0 0 0.4022c0.4558,0.2632 0.835,0.6424 1.0996,1.0985l0.4008 0 0 1.4993 0 1.5008 -0.4008 0c-0.2646,0.4547 -0.6438,0.835 -1.0996,1.0982l0 0.4011 -1.4993 0 -1.5007 0zm0 0z"/>
   <path id="_113957768" class="fil0 str0" d="M-21.4997 300l0 -0.4011c-0.4561,-0.2632 -0.835,-0.6435 -1.0982,-1.0982l-0.4025 0 0 -1.5008 0 -1.4993 0.4025 0c0.2632,-0.4561 0.6421,-0.8353 1.0982,-1.0985l0 -0.4022 1.4993 0 1.5007 0 0 0.4022c0.4548,0.2632 0.8351,0.6424 1.0982,1.0985l0.4011 0 0 1.4993 0 1.5008 -0.4011 0c-0.2631,0.4547 -0.6434,0.835 -1.0982,1.0982l0 0.4011 -1.5007 0 -1.4993 0zm0 0z"/>
   <path id="_113955344" class="fil0 str0" d="M-1.5004 300l0 -0.4011c-0.4547,-0.2632 -0.835,-0.6435 -1.0982,-1.0982l-0.4011 0 0 -1.5008 0 -1.4993 0.4011 0c0.2632,-0.4561 0.6435,-0.8353 1.0982,-1.0985l0 -0.4022 1.5008 0 1.4993 0 0 0.4022c0.4561,0.2632 0.835,0.6424 1.0985,1.0985l0.4022 0 0 1.4993 0 1.5008 -0.4022 0c-0.2635,0.4547 -0.6424,0.835 -1.0985,1.0982l0 0.4011 -1.4993 0 -1.5008 0zm0 0z"/>
   <path id="_113957336" class="fil0 str0" d="M18.5007 300l0 -0.4011c-0.4561,-0.2632 -0.8353,-0.6435 -1.0999,-1.0982l-0.4008 0 0 -1.5008 0 -1.4993 0.4008 0c0.2646,-0.4561 0.6438,-0.8353 1.0999,-1.0985l0 -0.4022 1.4993 0 1.5008 0 0 0.4022c0.4547,0.2632 0.8336,0.6424 1.0982,1.0985l0.4011 0 0 1.4993 0 1.5008 -0.4011 0c-0.2646,0.4547 -0.6435,0.835 -1.0982,1.0982l0 0.4011 -1.5008 0 -1.4993 0zm0 0z"/>
   <path id="_113961488" class="fil0 str0" d="M38.5001 300l0 -0.4011c-0.4562,-0.2632 -0.8351,-0.6435 -1.0982,-1.0982l-0.4026 0 0 -1.5008 0 -1.4993 0.4026 0c0.2631,-0.4561 0.642,-0.8353 1.0982,-1.0985l0 -0.4022 1.4993 0 1.5007 0 0 0.4022c0.4547,0.2632 0.835,0.6424 1.0982,1.0985l0.4011 0 0 1.4993 0 1.5008 -0.4011 0c-0.2632,0.4547 -0.6435,0.835 -1.0982,1.0982l0 0.4011 -1.5007 0 -1.4993 0zm0 0z"/>
   <path id="_113955848" class="fil0 str0" d="M58.4994 300l0 -0.4011c-0.4547,-0.2632 -0.835,-0.6435 -1.0982,-1.0982l-0.4011 0 0 -1.5008 0 -1.4993 0.4011 0c0.2632,-0.4561 0.6435,-0.8353 1.0982,-1.0985l0 -0.4022 1.5007 0 1.4993 0 0 0.4022c0.4562,0.2632 0.8354,0.6424 1.0986,1.0985l0.4021 0 0 1.4993 0 1.5008 -0.4021 0c-0.2632,0.4547 -0.6424,0.835 -1.0986,1.0982l0 0.4011 -1.4993 0 -1.5007 0zm0 0z"/>
   <path id="_113960480" class="fil0 str0" d="M78.5005 300l0 -0.4011c-0.4562,-0.2632 -0.8351,-0.6435 -1.0986,-1.0982l-0.4021 0 0 -1.5008 0 -1.4993 0.4021 0c0.2635,-0.4561 0.6424,-0.8353 1.0986,-1.0985l0 -0.4022 1.4993 0 1.5007 0 0 0.4022c0.4547,0.2632 0.8336,0.6424 1.0982,1.0985l0.4011 0 0 1.4993 0 1.5008 -0.4011 0c-0.2646,0.4547 -0.6435,0.835 -1.0982,1.0982l0 0.4011 -1.5007 0 -1.4993 0zm0 0z"/>
   <path id="_113955224" class="fil0 str0" d="M98.4998 300l0 -0.4011c-0.4547,-0.2632 -0.835,-0.6435 -1.0982,-1.0982l-0.4025 0 0 -1.5008 0 -1.4993 0.4025 0c0.2632,-0.4561 0.6435,-0.8353 1.0982,-1.0985l0 -0.4022 1.4993 0 1.5007 0 0 0.4022c0.4548,0.2632 0.835,0.6424 1.0982,1.0985l0.4011 0 0 1.4993 0 1.5008 -0.4011 0c-0.2632,0.4547 -0.6434,0.835 -1.0982,1.0982l0 0.4011 -1.5007 0 -1.4993 0zm0 0z"/>
   <path id="_113954504" class="fil0 str0" d="M118.5 300l0 -0.4011c-0.4548,-0.2632 -0.8354,-0.6435 -1.0986,-1.0982l-0.4007 0 0 -1.5008 0 -1.4993 0.4007 0c0.2632,-0.4561 0.6438,-0.8353 1.0986,-1.0985l0 -0.4022 1.5003 0 1.4993 0 0 0.4022c0.4562,0.2632 0.8354,0.6424 1.0986,1.0985l0.4022 0 0 1.4993 0 1.5008 -0.4022 0c-0.2632,0.4547 -0.6424,0.835 -1.0986,1.0982l0 0.4011 -1.4993 0 -1.5003 0zm0 0z"/>
   <polygon id="_113960216" class="fil0 str0" points="-133,295.501 -127,295.501 -127,298.501 -133,298.501 "/>
   <polygon id="_113954192" class="fil0 str0" points="-113,295.501 -107,295.501 -107,298.501 -113,298.501 "/>
   <polygon id="_113955872" class="fil0 str0" points="-92.9993,295.501 -86.9992,295.501 -86.9992,298.501 -92.9993,298.501 "/>
   <polygon id="_113958464" class="fil0 str0" points="-72.9996,295.501 -66.9995,295.501 -66.9995,298.501 -72.9996,298.501 "/>
   <polygon id="_113960864" class="fil0 str0" points="-53.0003,295.501 -47.0002,295.501 -47.0002,298.501 -53.0003,298.501 "/>
   <polygon id="_113956712" class="fil0 str0" points="-32.9995,295.501 -26.9995,295.501 -26.9995,298.501 -32.9995,298.501 "/>
   <polygon id="_113958008" class="fil0 str0" points="-12.9998,295.501 -6.9998,295.501 -6.9998,298.501 -12.9998,298.501 "/>
   <polygon id="_113956376" class="fil0 str0" points="7.0009,295.501 13.0009,295.501 13.0009,298.501 7.0009,298.501 "/>
   <polygon id="_113958848" class="fil0 str0" points="27.0002,295.501 33.0003,295.501 33.0003,298.501 27.0002,298.501 "/>
   <polygon id="_113956808" class="fil0 str0" points="46.9999,295.501 52.9999,295.501 52.9999,298.501 46.9999,298.501 "/>
   <polygon id="_113961296" class="fil0 str0" points="67.0006,295.501 73.0007,295.501 73.0007,298.501 67.0006,298.501 "/>
   <polygon id="_113956304" class="fil0 str0" points="87.0003,295.501 93.0003,295.501 93.0003,298.501 87.0003,298.501 "/>
   <polygon id="_113953952" class="fil0 str0" points="107.001,295.501 113.001,295.501 113.001,298.501 107.001,298.501 "/>
   <path id="_113959352" class="fil0 str0" d="M138.5 300l0 -0.4011c-0.4548,-0.2632 -0.8354,-0.6435 -1.0986,-1.0982l-0.4007 0 0 -1.5008 0 -1.4993 0.4007 0c0.2632,-0.4561 0.6438,-0.8353 1.0986,-1.0985l0 -0.4022 1.5003 0 1.4993 0 0 0.4022c0.4562,0.2632 0.8354,0.6424 1.0986,1.0985l0.4022 0 0 1.4993 0 1.5008 -0.4022 0c-0.2632,0.4547 -0.6424,0.835 -1.0986,1.0982l0 0.4011 -1.4993 0 -1.5003 0zm0 0z"/>
   <polygon id="_113959496" class="fil0 str0" points="127.001,295.501 133.001,295.501 133.001,298.501 127.001,298.501 "/>
  </g>
 </g>
</svg>
