<?xml version="1.0" encoding="UTF-8"?>
<!DOCTYPE svg PUBLIC "-//W3C//DTD SVG 1.1//EN" "http://www.w3.org/Graphics/SVG/1.1/DTD/svg11.dtd">
<!-- Creator: CorelDRAW -->
<svg xmlns="http://www.w3.org/2000/svg" xml:space="preserve" width="210mm" height="297mm" style="shape-rendering:geometricPrecision; text-rendering:geometricPrecision; image-rendering:optimizeQuality; fill-rule:evenodd; clip-rule:evenodd"
viewBox="0 0 210 297"
 xmlns:xlink="http://www.w3.org/1999/xlink">
 <defs>
  <style type="text/css">
   <![CDATA[
    .str1 {stroke:#1F1A17;stroke-width:0.5292;stroke-linecap:round;stroke-linejoin:round}
    .str0 {stroke:black;stroke-width:0.5292;stroke-linecap:round;stroke-linejoin:round}
    .str2 {stroke:blue;stroke-width:0.5292;stroke-linecap:round;stroke-linejoin:round}
    .str3 {stroke:black;stroke-width:0.5644}
    .fil1 {fill:none}
    .fil0 {fill:none;fill-rule:nonzero}
   ]]>
  </style>
 </defs>
 <g id="Layer_x0020_1">
  <metadata id="CorelCorpID_0Corel-Layer"/>
  <g id="_87933280">
   <path id="_120430000" class="fil0 str0" d="M17.4953 295.013l1.2929 -0.1467 1.2362 0.1606 2.599 1.1359 0 1.6747 -2.599 1.1346 -1.2362 0.1619 -1.2929 -0.1486 -0.5709 2.8749 1.2499 0.3585 1.0826 0.6233 1.9638 2.0412 -0.6406 1.5468 -2.8339 0.0565 -1.2036 -0.3261 -1.1404 -0.6311 -1.6264 2.4368 1.0189 0.8099 0.7601 0.9898 1.0337 2.6394 -1.1844 1.1829 -2.6393 -1.0322 -0.9878 -0.7622 -0.812 -1.0189 -2.4349 1.6283 0.6307 1.1385 0.3245 1.2056 -0.0543 2.8324 -1.5473 0.6407 -2.0427 -1.9642 -0.6233 -1.0822 -0.3591 -1.2505 -2.8725 0.5715 0.1467 1.2925 -0.16 1.2385 -1.1364 2.5965 -1.6748 0 -1.1344 -2.5965 -0.162 -1.2385 0.1487 -1.2925 -2.8725 -0.5715 -0.3611 1.2505 -0.6213 1.0822 -2.0428 1.9642 -1.5472 -0.6407 -0.0544 -2.8324 0.3244 -1.2056 0.6307 -1.1385 -2.4368 -1.6283 -0.8099 1.0189 -0.9898 0.7622 -2.6393 1.0322 -1.1824 -1.1829 1.0337 -2.6394 0.7601 -0.9898 1.0189 -0.8099 -1.6283 -2.4368 -1.1385 0.6311 -1.2036 0.3261 -2.8339 -0.0565 -0.6406 -1.5468 1.9638 -2.0412 1.0826 -0.6233 1.2499 -0.3585 -0.5709 -2.8749 -1.2925 0.1486 -1.2387 -0.1619 -2.5969 -1.1346 0 -1.6747 2.5969 -1.1359 1.2387 -0.1606 1.2925 0.1467 0.5709 -2.8725 -1.2499 -0.359 -1.0826 -0.6228 -1.9638 -2.0432 0.6406 -1.5455 2.8339 -0.0557 1.2036 0.324 1.1385 0.6307 1.6283 -2.4345 -1.0189 -0.8124 -0.7601 -0.9877 -1.0337 -2.6394 1.1824 -1.1843 2.6393 1.0342 0.9898 0.7601 0.8099 1.0183 2.4368 -1.6264 -0.6307 -1.1383 -0.3244 -1.2057 0.0544 -2.8339 1.5472 -0.6405 2.0428 1.9637 0.6213 1.0826 0.3611 1.252 2.8725 -0.5729 -0.1487 -1.2926 0.162 -1.2366 1.1344 -2.5968 1.6748 0 1.1364 2.5968 0.16 1.2366 -0.1467 1.2926 2.8725 0.5729 0.3591 -1.252 0.6233 -1.0826 2.0427 -1.9637 1.5473 0.6405 0.0543 2.8339 -0.3245 1.2057 -0.6307 1.1383 2.4349 1.6264 0.812 -1.0183 0.9878 -0.7601 2.6393 -1.0342 1.1844 1.1843 -1.0337 2.6394 -0.7601 0.9877 -1.0189 0.8124 1.6264 2.4345 1.1404 -0.6307 1.2036 -0.324 2.8339 0.0557 0.6406 1.5455 -1.9638 2.0432 -1.0826 0.6228 -1.2499 0.359 0.5709 2.8725zm0 0z"/>
   <polygon id="_120429424" class="fil0 str0" points="-1.5004,304 1.4996,304 1.4996,310 -1.5004,310 "/>
   <polygon id="_87933544" class="fil0 str0" points="-1.5004,283.999 1.4996,283.999 1.4996,289.999 -1.5004,289.999 "/>
   <polygon id="_87933136" class="fil0 str0" points="-12.9999,295.499 -6.9998,295.499 -6.9998,298.499 -12.9999,298.499 "/>
   <polygon id="_87933832" class="fil0 str0" points="7.0008,295.499 13.0008,295.499 13.0008,298.499 7.0008,298.499 "/>
   <path id="_87933160" class="fil1 str1" d="M-7.9549 287.984c-0.2928,-0.2928 -0.7679,-0.2928 -1.0607,0 -0.2928,0.2928 -0.2928,0.7678 0,1.0606l2.8285 2.8285c0.2928,0.2928 0.7678,0.2928 1.0606,0 0.2928,-0.2928 0.2928,-0.7679 0,-1.0607l-2.8284 -2.8284z"/>
   <path id="_87933472" class="fil1 str1" d="M-10.7833 308.844c-0.2928,0.2929 -0.7679,0.2929 -1.0607,0 -0.2928,-0.2928 -0.2928,-0.7678 0,-1.0606l6.0104 -6.0104c0.2928,-0.2928 0.7679,-0.2928 1.0607,0 0.2928,0.2928 0.2928,0.7678 0,1.0606l-6.0104 6.0104z"/>
   <path id="_87933688" class="fil1 str2" d="M-0.7955 300.447l-2.6516 -2.6516 -9.2808 -10.5182c-0.8276,-0.8276 -0.8276,-2.1776 0,-3.0052 0.8276,-0.8276 2.1776,-0.8276 3.0052,0l10.5182 9.2808 2.6516 2.6516 9.2808 10.5182c0.8276,0.8276 0.8276,2.1776 0,3.0052 -0.8276,0.8276 -2.1776,0.8276 -3.0052,0l-10.5182 -9.2808z"/>
   <polygon id="_87933256" class="fil1 str2" points="-10.4126,283.098 -1.7532,289.394 -1.4843,289.674 -1.2435,289.982 -0.941,290.228 -0.5882,290.402 -0.196,290.492 0.1961,290.491 0.5769,290.402 0.9354,290.234 1.2435,289.982 1.4842,289.674 1.7475,289.388 10.407,283.104 10.7823,282.874 11.1911,282.723 11.6225,282.639 12.0649,282.633 12.5018,282.712 12.9163,282.857 13.3027,283.076 13.6388,283.356 13.9245,283.697 14.1429,284.084 14.2886,284.498 14.3614,284.93 14.3558,285.372 14.2773,285.809 14.1262,286.218 13.8965,286.593 7.6064,295.247 7.3262,295.516 7.0183,295.757 6.7663,296.065 6.5982,296.423 6.5086,296.804 6.5085,297.196 6.5925,297.583 6.7662,297.936 7.0182,298.244 7.3263,298.484 7.6064,298.753 13.8964,307.407 14.126,307.782 14.2829,308.197 14.3612,308.634 14.3668,309.076 14.2941,309.507 14.1484,309.922 13.93,310.308 13.65,310.644 13.3083,310.93 12.9217,311.149 12.5072,311.294 12.076,311.367 11.6335,311.361 11.1966,311.283 10.7821,311.126 10.4069,310.897 1.7532,304.606 1.4843,304.326 1.2435,304.018 0.9354,303.766 0.5825,303.593 0.196,303.509 -0.1961,303.509 -0.5769,303.598 -0.9354,303.766 -1.2435,304.018 -1.4843,304.326 -1.7475,304.601 -10.4069,310.897 -10.7821,311.126 -11.1911,311.277 -11.628,311.356 -12.0704,311.361 -12.5017,311.289 -12.9161,311.143 -13.3027,310.924 -13.6444,310.639 -13.9244,310.303 -14.1427,309.916 -14.2885,309.502 -14.3669,309.065 -14.3613,308.622 -14.2773,308.191 -14.126,307.782 -13.8964,307.407 -7.6064,298.742 -7.3263,298.484 -7.0183,298.244 -6.7662,297.936 -6.5982,297.577 -6.5086,297.196 -6.5085,296.804 -6.5982,296.412 -6.7718,296.059 -7.0182,295.757 -7.3263,295.516 -7.6064,295.247 -13.9021,286.587 -14.1317,286.212 -14.2886,285.798 -14.3669,285.361 -14.367,284.924 -14.2998,284.487 -14.1485,284.078 -13.93,283.692 -13.6444,283.35 -13.3083,283.07 -12.9218,282.852 -12.5129,282.7 -12.0761,282.633 -11.6392,282.633 -11.2022,282.712 -10.7878,282.868 "/>
   <path id="_87933088" class="fil1 str1" d="M5.8337 292.227c-0.2928,0.2928 -0.7678,0.2928 -1.0606,0 -0.2928,-0.2929 -0.2928,-0.7679 0,-1.0607l6.0104 -6.0104c0.2928,-0.2928 0.7678,-0.2928 1.0607,0 0.2928,0.2928 0.2928,0.7678 0,1.0607l-6.0105 6.0104z"/>
   <path id="_87933448" class="fil1 str1" d="M6.1872 302.127c-0.2929,-0.2929 -0.7679,-0.2929 -1.0607,0 -0.2928,0.2928 -0.2928,0.7678 0,1.0606l2.8284 2.8284c0.2928,0.2929 0.7679,0.2929 1.0607,0 0.2928,-0.2928 0.2928,-0.7678 0,-1.0606l-2.8284 -2.8284z"/>
   <path id="_87933736" class="fil0 str3" d="M-3 295.499l0.402 0c0.2633,-0.4552 0.6429,-0.8345 1.098,-1.0978l0 -0.4022 3 0 0 0.4019c0.4553,0.2633 0.8352,0.6428 1.0988,1.0981l0.4012 0 0 1.4542 0.0006 0.0465 -0.0006 0.0464 0 1.4529 -0.4007 0c-0.2635,0.4557 -0.6435,0.8358 -1.0993,1.0994l0 0.4006 -1.4328 0 -0.0667 0.0008 -0.0668 -0.0008 -1.4337 0 0 -0.401c-0.4554,-0.2636 -0.8352,-0.6435 -1.0985,-1.099l-0.4015 0 0 -3z"/>
  </g>
 </g>
</svg>
