solid OpenSCAD_Model
  facet normal 0.321452 -0.946926 0
    outer loop
      vertex 2.29909 -5.83463 -9
      vertex 2.91841 -5.62439 0
      vertex 2.29909 -5.83463 0
    endloop
  endfacet
  facet normal 0.321452 -0.946926 0
    outer loop
      vertex 2.91841 -5.62439 0
      vertex 2.29909 -5.83463 -9
      vertex 2.91841 -5.62439 -9
    endloop
  endfacet
  facet normal -0.195081 0.980787 0
    outer loop
      vertex -1.65762 5.96222 -9
      vertex -2.29909 5.83463 0
      vertex -1.65762 5.96222 0
    endloop
  endfacet
  facet normal -0.195081 0.980787 0
    outer loop
      vertex -2.29909 5.83463 0
      vertex -1.65762 5.96222 -9
      vertex -2.29909 5.83463 -9
    endloop
  endfacet
  facet normal 0.195081 -0.980787 0
    outer loop
      vertex 1.65762 -5.96222 -9
      vertex 2.29909 -5.83463 0
      vertex 1.65762 -5.96222 0
    endloop
  endfacet
  facet normal 0.195081 -0.980787 0
    outer loop
      vertex 2.29909 -5.83463 0
      vertex 1.65762 -5.96222 -9
      vertex 2.29909 -5.83463 -9
    endloop
  endfacet
  facet normal 0.946926 0.321452 0
    outer loop
      vertex 5.83463 2.29909 0
      vertex 5.62439 2.91841 -9
      vertex 5.62439 2.91841 0
    endloop
  endfacet
  facet normal 0.946926 0.321452 0
    outer loop
      vertex 5.62439 2.91841 -9
      vertex 5.83463 2.29909 0
      vertex 5.83463 2.29909 -9
    endloop
  endfacet
  facet normal -0.896866 0.442302 0
    outer loop
      vertex -5.62439 2.91841 -9
      vertex -5.33511 3.50499 0
      vertex -5.33511 3.50499 -9
    endloop
  endfacet
  facet normal -0.896866 0.442302 0
    outer loop
      vertex -5.33511 3.50499 0
      vertex -5.62439 2.91841 -9
      vertex -5.62439 2.91841 0
    endloop
  endfacet
  facet normal 0.442302 0.896866 -0
    outer loop
      vertex 3.50499 5.33511 -9
      vertex 2.91841 5.62439 0
      vertex 3.50499 5.33511 0
    endloop
  endfacet
  facet normal 0.442302 0.896866 0
    outer loop
      vertex 2.91841 5.62439 0
      vertex 3.50499 5.33511 -9
      vertex 2.91841 5.62439 -9
    endloop
  endfacet
  facet normal 0.831478 0.555557 0
    outer loop
      vertex 5.33511 3.50499 0
      vertex 4.97176 4.0488 -9
      vertex 4.97176 4.0488 0
    endloop
  endfacet
  facet normal 0.831478 0.555557 0
    outer loop
      vertex 4.97176 4.0488 -9
      vertex 5.33511 3.50499 0
      vertex 5.33511 3.50499 -9
    endloop
  endfacet
  facet normal -0.555557 0.831478 0
    outer loop
      vertex -3.50499 5.33511 -9
      vertex -4.0488 4.97176 0
      vertex -3.50499 5.33511 0
    endloop
  endfacet
  facet normal -0.555557 0.831478 0
    outer loop
      vertex -4.0488 4.97176 0
      vertex -3.50499 5.33511 -9
      vertex -4.0488 4.97176 -9
    endloop
  endfacet
  facet normal -0.751844 0.659341 0
    outer loop
      vertex -4.97176 4.0488 -9
      vertex -4.54053 4.54053 0
      vertex -4.54053 4.54053 -9
    endloop
  endfacet
  facet normal -0.751844 0.659341 0
    outer loop
      vertex -4.54053 4.54053 0
      vertex -4.97176 4.0488 -9
      vertex -4.97176 4.0488 0
    endloop
  endfacet
  facet normal -0.997859 0.0653946 0
    outer loop
      vertex -6.00499 1.00499 -9
      vertex -5.96222 1.65762 0
      vertex -5.96222 1.65762 -9
    endloop
  endfacet
  facet normal -0.997859 0.0653946 0
    outer loop
      vertex -5.96222 1.65762 0
      vertex -6.00499 1.00499 -9
      vertex -6.00499 1.00499 0
    endloop
  endfacet
  facet normal -1 0 0
    outer loop
      vertex -6.00499 -1.00499 -9
      vertex -6.00499 1.00499 0
      vertex -6.00499 1.00499 -9
    endloop
  endfacet
  facet normal -1 -0 0
    outer loop
      vertex -6.00499 1.00499 0
      vertex -6.00499 -1.00499 -9
      vertex -6.00499 -1.00499 0
    endloop
  endfacet
  facet normal 0 0 1
    outer loop
      vertex 3.13926 0.841162 0
      vertex 6.00499 1.00499 0
      vertex 5.96222 1.65762 0
    endloop
  endfacet
  facet normal 0 0 1
    outer loop
      vertex 6.00499 1.00499 0
      vertex 3.25 0 0
      vertex 6.00499 -1.00499 0
    endloop
  endfacet
  facet normal 0 0 1
    outer loop
      vertex 3.00261 1.24372 0
      vertex 5.96222 1.65762 0
      vertex 5.83463 2.29909 0
    endloop
  endfacet
  facet normal -0 0 1
    outer loop
      vertex 3.2222 -0.42421 0
      vertex 6.00499 -1.00499 0
      vertex 3.25 0 0
    endloop
  endfacet
  facet normal 0 0 1
    outer loop
      vertex 3.00261 1.24372 0
      vertex 5.83463 2.29909 0
      vertex 5.62439 2.91841 0
    endloop
  endfacet
  facet normal -0 0 1
    outer loop
      vertex 3.13926 -0.841162 0
      vertex 6.00499 -1.00499 0
      vertex 3.2222 -0.42421 0
    endloop
  endfacet
  facet normal 0 0 1
    outer loop
      vertex 2.81458 1.625 0
      vertex 5.62439 2.91841 0
      vertex 5.33511 3.50499 0
    endloop
  endfacet
  facet normal 0 0 1
    outer loop
      vertex 6.00499 -1.00499 0
      vertex 3.13926 -0.841162 0
      vertex 5.96222 -1.65762 0
    endloop
  endfacet
  facet normal 0 0 1
    outer loop
      vertex 2.5784 1.97847 0
      vertex 5.33511 3.50499 0
      vertex 4.97176 4.0488 0
    endloop
  endfacet
  facet normal -0 0 1
    outer loop
      vertex 3.00261 -1.24372 0
      vertex 5.96222 -1.65762 0
      vertex 3.13926 -0.841162 0
    endloop
  endfacet
  facet normal 0 0 1
    outer loop
      vertex 2.2981 2.2981 0
      vertex 4.97176 4.0488 0
      vertex 4.54053 4.54053 0
    endloop
  endfacet
  facet normal 0 0 1
    outer loop
      vertex 5.96222 -1.65762 0
      vertex 3.00261 -1.24372 0
      vertex 5.83463 -2.29909 0
    endloop
  endfacet
  facet normal 0 0 1
    outer loop
      vertex 2.2981 2.2981 0
      vertex 4.54053 4.54053 0
      vertex 4.0488 4.97176 0
    endloop
  endfacet
  facet normal 0 0 1
    outer loop
      vertex 5.83463 -2.29909 0
      vertex 3.00261 -1.24372 0
      vertex 5.62439 -2.91841 0
    endloop
  endfacet
  facet normal 0 0 1
    outer loop
      vertex 1.97847 2.5784 0
      vertex 4.0488 4.97176 0
      vertex 3.50499 5.33511 0
    endloop
  endfacet
  facet normal -0 0 1
    outer loop
      vertex 2.81458 -1.625 0
      vertex 5.62439 -2.91841 0
      vertex 3.00261 -1.24372 0
    endloop
  endfacet
  facet normal 0 0 1
    outer loop
      vertex 5.62439 -2.91841 0
      vertex 2.81458 -1.625 0
      vertex 5.33511 -3.50499 0
    endloop
  endfacet
  facet normal 0 0 1
    outer loop
      vertex 6.00499 1.00499 0
      vertex 3.2222 0.42421 0
      vertex 3.25 0 0
    endloop
  endfacet
  facet normal 0 0 1
    outer loop
      vertex 6.00499 1.00499 0
      vertex 3.13926 0.841162 0
      vertex 3.2222 0.42421 0
    endloop
  endfacet
  facet normal 0 0 1
    outer loop
      vertex 5.96222 1.65762 0
      vertex 3.00261 1.24372 0
      vertex 3.13926 0.841162 0
    endloop
  endfacet
  facet normal 0 0 1
    outer loop
      vertex 1.625 2.81458 0
      vertex 3.50499 5.33511 0
      vertex 2.91841 5.62439 0
    endloop
  endfacet
  facet normal 0 0 1
    outer loop
      vertex 5.62439 2.91841 0
      vertex 2.81458 1.625 0
      vertex 3.00261 1.24372 0
    endloop
  endfacet
  facet normal 0 0 1
    outer loop
      vertex 5.33511 3.50499 0
      vertex 2.5784 1.97847 0
      vertex 2.81458 1.625 0
    endloop
  endfacet
  facet normal 0 0 1
    outer loop
      vertex 1.625 2.81458 0
      vertex 2.91841 5.62439 0
      vertex 2.29909 5.83463 0
    endloop
  endfacet
  facet normal 0 0 1
    outer loop
      vertex 4.97176 4.0488 0
      vertex 2.2981 2.2981 0
      vertex 2.5784 1.97847 0
    endloop
  endfacet
  facet normal 0 0 1
    outer loop
      vertex 4.0488 4.97176 0
      vertex 1.97847 2.5784 0
      vertex 2.2981 2.2981 0
    endloop
  endfacet
  facet normal 0 0 1
    outer loop
      vertex 1.24372 3.00261 0
      vertex 2.29909 5.83463 0
      vertex 1.65762 5.96222 0
    endloop
  endfacet
  facet normal 0 0 1
    outer loop
      vertex 3.50499 5.33511 0
      vertex 1.625 2.81458 0
      vertex 1.97847 2.5784 0
    endloop
  endfacet
  facet normal 0 0 1
    outer loop
      vertex 2.29909 5.83463 0
      vertex 1.24372 3.00261 0
      vertex 1.625 2.81458 0
    endloop
  endfacet
  facet normal 0 0 1
    outer loop
      vertex 0.841162 3.13926 0
      vertex 1.65762 5.96222 0
      vertex 1.00499 6.00499 0
    endloop
  endfacet
  facet normal 0 0 1
    outer loop
      vertex 1.65762 5.96222 0
      vertex 0.841162 3.13926 0
      vertex 1.24372 3.00261 0
    endloop
  endfacet
  facet normal 0 0 1
    outer loop
      vertex 1.00499 6.00499 0
      vertex 0.42421 3.2222 0
      vertex 0.841162 3.13926 0
    endloop
  endfacet
  facet normal 0 0 1
    outer loop
      vertex 1.00499 6.00499 0
      vertex 0 3.25 0
      vertex 0.42421 3.2222 0
    endloop
  endfacet
  facet normal -0 0 1
    outer loop
      vertex -1.00499 6.00499 0
      vertex 0 3.25 0
      vertex 1.00499 6.00499 0
    endloop
  endfacet
  facet normal 0 0 1
    outer loop
      vertex 0 3.25 0
      vertex -1.00499 6.00499 0
      vertex -0.42421 3.2222 0
    endloop
  endfacet
  facet normal 0 0 1
    outer loop
      vertex -0.42421 3.2222 0
      vertex -1.00499 6.00499 0
      vertex -0.841162 3.13926 0
    endloop
  endfacet
  facet normal -0 0 1
    outer loop
      vertex -1.65762 5.96222 0
      vertex -0.841162 3.13926 0
      vertex -1.00499 6.00499 0
    endloop
  endfacet
  facet normal 0 0 1
    outer loop
      vertex -0.841162 3.13926 0
      vertex -1.65762 5.96222 0
      vertex -1.24372 3.00261 0
    endloop
  endfacet
  facet normal -0 0 1
    outer loop
      vertex -2.29909 5.83463 0
      vertex -1.24372 3.00261 0
      vertex -1.65762 5.96222 0
    endloop
  endfacet
  facet normal 0 0 1
    outer loop
      vertex -1.24372 3.00261 0
      vertex -2.29909 5.83463 0
      vertex -1.625 2.81458 0
    endloop
  endfacet
  facet normal -0 0 1
    outer loop
      vertex -2.91841 5.62439 0
      vertex -1.625 2.81458 0
      vertex -2.29909 5.83463 0
    endloop
  endfacet
  facet normal -0 0 1
    outer loop
      vertex -3.50499 5.33511 0
      vertex -1.625 2.81458 0
      vertex -2.91841 5.62439 0
    endloop
  endfacet
  facet normal 0 0 1
    outer loop
      vertex -1.625 2.81458 0
      vertex -3.50499 5.33511 0
      vertex -1.97847 2.5784 0
    endloop
  endfacet
  facet normal -0 0 1
    outer loop
      vertex -4.0488 4.97176 0
      vertex -1.97847 2.5784 0
      vertex -3.50499 5.33511 0
    endloop
  endfacet
  facet normal 0 0 1
    outer loop
      vertex -1.97847 2.5784 0
      vertex -4.0488 4.97176 0
      vertex -2.2981 2.2981 0
    endloop
  endfacet
  facet normal -0 0 1
    outer loop
      vertex -4.54053 4.54053 0
      vertex -2.2981 2.2981 0
      vertex -4.0488 4.97176 0
    endloop
  endfacet
  facet normal -0 0 1
    outer loop
      vertex -4.97176 4.0488 0
      vertex -2.2981 2.2981 0
      vertex -4.54053 4.54053 0
    endloop
  endfacet
  facet normal 0 0 1
    outer loop
      vertex -2.2981 2.2981 0
      vertex -4.97176 4.0488 0
      vertex -2.5784 1.97847 0
    endloop
  endfacet
  facet normal -0 0 1
    outer loop
      vertex -5.33511 3.50499 0
      vertex -2.5784 1.97847 0
      vertex -4.97176 4.0488 0
    endloop
  endfacet
  facet normal 0 0 1
    outer loop
      vertex -2.5784 1.97847 0
      vertex -5.33511 3.50499 0
      vertex -2.81458 1.625 0
    endloop
  endfacet
  facet normal -0 0 1
    outer loop
      vertex 2.5784 -1.97847 0
      vertex 5.33511 -3.50499 0
      vertex 2.81458 -1.625 0
    endloop
  endfacet
  facet normal 0 0 1
    outer loop
      vertex 5.33511 -3.50499 0
      vertex 2.5784 -1.97847 0
      vertex 4.97176 -4.0488 0
    endloop
  endfacet
  facet normal -0 0 1
    outer loop
      vertex 2.2981 -2.2981 0
      vertex 4.97176 -4.0488 0
      vertex 2.5784 -1.97847 0
    endloop
  endfacet
  facet normal 0 0 1
    outer loop
      vertex 4.97176 -4.0488 0
      vertex 2.2981 -2.2981 0
      vertex 4.54053 -4.54053 0
    endloop
  endfacet
  facet normal 0 0 1
    outer loop
      vertex 4.54053 -4.54053 0
      vertex 2.2981 -2.2981 0
      vertex 4.0488 -4.97176 0
    endloop
  endfacet
  facet normal -0 0 1
    outer loop
      vertex 1.97847 -2.5784 0
      vertex 4.0488 -4.97176 0
      vertex 2.2981 -2.2981 0
    endloop
  endfacet
  facet normal 0 0 1
    outer loop
      vertex 4.0488 -4.97176 0
      vertex 1.97847 -2.5784 0
      vertex 3.50499 -5.33511 0
    endloop
  endfacet
  facet normal -0 0 1
    outer loop
      vertex 1.625 -2.81458 0
      vertex 3.50499 -5.33511 0
      vertex 1.97847 -2.5784 0
    endloop
  endfacet
  facet normal 0 0 1
    outer loop
      vertex 3.50499 -5.33511 0
      vertex 1.625 -2.81458 0
      vertex 2.91841 -5.62439 0
    endloop
  endfacet
  facet normal 0 0 1
    outer loop
      vertex 2.91841 -5.62439 0
      vertex 1.625 -2.81458 0
      vertex 2.29909 -5.83463 0
    endloop
  endfacet
  facet normal -0 0 1
    outer loop
      vertex 1.24372 -3.00261 0
      vertex 2.29909 -5.83463 0
      vertex 1.625 -2.81458 0
    endloop
  endfacet
  facet normal 0 0 1
    outer loop
      vertex 2.29909 -5.83463 0
      vertex 1.24372 -3.00261 0
      vertex 1.65762 -5.96222 0
    endloop
  endfacet
  facet normal -0 0 1
    outer loop
      vertex 0.841162 -3.13926 0
      vertex 1.65762 -5.96222 0
      vertex 1.24372 -3.00261 0
    endloop
  endfacet
  facet normal 0 0 1
    outer loop
      vertex 1.65762 -5.96222 0
      vertex 0.841162 -3.13926 0
      vertex 1.00499 -6.00499 0
    endloop
  endfacet
  facet normal -0 0 1
    outer loop
      vertex 0.42421 -3.2222 0
      vertex 1.00499 -6.00499 0
      vertex 0.841162 -3.13926 0
    endloop
  endfacet
  facet normal -0 0 1
    outer loop
      vertex 0 -3.25 0
      vertex 1.00499 -6.00499 0
      vertex 0.42421 -3.2222 0
    endloop
  endfacet
  facet normal 0 0 1
    outer loop
      vertex -1.00499 -6.00499 0
      vertex 0 -3.25 0
      vertex -0.42421 -3.2222 0
    endloop
  endfacet
  facet normal 0 0 1
    outer loop
      vertex -1.00499 -6.00499 0
      vertex -0.42421 -3.2222 0
      vertex -0.841162 -3.13926 0
    endloop
  endfacet
  facet normal 0 0 1
    outer loop
      vertex 0 -3.25 0
      vertex -1.00499 -6.00499 0
      vertex 1.00499 -6.00499 0
    endloop
  endfacet
  facet normal 0 0 1
    outer loop
      vertex -1.65762 -5.96222 0
      vertex -0.841162 -3.13926 0
      vertex -1.24372 -3.00261 0
    endloop
  endfacet
  facet normal 0 0 1
    outer loop
      vertex -2.29909 -5.83463 0
      vertex -1.24372 -3.00261 0
      vertex -1.625 -2.81458 0
    endloop
  endfacet
  facet normal 0 0 1
    outer loop
      vertex -0.841162 -3.13926 0
      vertex -1.65762 -5.96222 0
      vertex -1.00499 -6.00499 0
    endloop
  endfacet
  facet normal 0 0 1
    outer loop
      vertex -3.50499 -5.33511 0
      vertex -1.625 -2.81458 0
      vertex -1.97847 -2.5784 0
    endloop
  endfacet
  facet normal 0 0 1
    outer loop
      vertex -4.0488 -4.97176 0
      vertex -1.97847 -2.5784 0
      vertex -2.2981 -2.2981 0
    endloop
  endfacet
  facet normal 0 0 1
    outer loop
      vertex -1.24372 -3.00261 0
      vertex -2.29909 -5.83463 0
      vertex -1.65762 -5.96222 0
    endloop
  endfacet
  facet normal 0 0 1
    outer loop
      vertex -4.97176 -4.0488 0
      vertex -2.2981 -2.2981 0
      vertex -2.5784 -1.97847 0
    endloop
  endfacet
  facet normal 0 0 1
    outer loop
      vertex -5.33511 -3.50499 0
      vertex -2.5784 -1.97847 0
      vertex -2.81458 -1.625 0
    endloop
  endfacet
  facet normal 0 0 1
    outer loop
      vertex -1.625 -2.81458 0
      vertex -2.91841 -5.62439 0
      vertex -2.29909 -5.83463 0
    endloop
  endfacet
  facet normal 0 0 1
    outer loop
      vertex -5.62439 -2.91841 0
      vertex -2.81458 -1.625 0
      vertex -3.00261 -1.24372 0
    endloop
  endfacet
  facet normal 0 0 1
    outer loop
      vertex -5.96222 -1.65762 0
      vertex -3.00261 -1.24372 0
      vertex -3.13926 -0.841162 0
    endloop
  endfacet
  facet normal 0 0 1
    outer loop
      vertex -6.00499 -1.00499 0
      vertex -3.13926 -0.841162 0
      vertex -3.2222 -0.42421 0
    endloop
  endfacet
  facet normal 0 0 1
    outer loop
      vertex -6.00499 -1.00499 0
      vertex -3.2222 -0.42421 0
      vertex -3.25 0 0
    endloop
  endfacet
  facet normal 0 0 1
    outer loop
      vertex -1.625 -2.81458 0
      vertex -3.50499 -5.33511 0
      vertex -2.91841 -5.62439 0
    endloop
  endfacet
  facet normal -0 0 1
    outer loop
      vertex -5.62439 2.91841 0
      vertex -2.81458 1.625 0
      vertex -5.33511 3.50499 0
    endloop
  endfacet
  facet normal 0 0 1
    outer loop
      vertex -2.81458 1.625 0
      vertex -5.62439 2.91841 0
      vertex -3.00261 1.24372 0
    endloop
  endfacet
  facet normal 0 0 1
    outer loop
      vertex -6.00499 -1.00499 0
      vertex -3.25 0 0
      vertex -6.00499 1.00499 0
    endloop
  endfacet
  facet normal -0 0 1
    outer loop
      vertex -5.83463 2.29909 0
      vertex -3.00261 1.24372 0
      vertex -5.62439 2.91841 0
    endloop
  endfacet
  facet normal 0 0 1
    outer loop
      vertex -3.13926 -0.841162 0
      vertex -6.00499 -1.00499 0
      vertex -5.96222 -1.65762 0
    endloop
  endfacet
  facet normal -0 0 1
    outer loop
      vertex -5.96222 1.65762 0
      vertex -3.00261 1.24372 0
      vertex -5.83463 2.29909 0
    endloop
  endfacet
  facet normal 0 0 1
    outer loop
      vertex -1.97847 -2.5784 0
      vertex -4.0488 -4.97176 0
      vertex -3.50499 -5.33511 0
    endloop
  endfacet
  facet normal 0 0 1
    outer loop
      vertex -3.00261 1.24372 0
      vertex -5.96222 1.65762 0
      vertex -3.13926 0.841162 0
    endloop
  endfacet
  facet normal 0 0 1
    outer loop
      vertex -2.2981 -2.2981 0
      vertex -4.54053 -4.54053 0
      vertex -4.0488 -4.97176 0
    endloop
  endfacet
  facet normal -0 0 1
    outer loop
      vertex -6.00499 1.00499 0
      vertex -3.13926 0.841162 0
      vertex -5.96222 1.65762 0
    endloop
  endfacet
  facet normal 0 0 1
    outer loop
      vertex -2.2981 -2.2981 0
      vertex -4.97176 -4.0488 0
      vertex -4.54053 -4.54053 0
    endloop
  endfacet
  facet normal 0 0 1
    outer loop
      vertex -3.13926 0.841162 0
      vertex -6.00499 1.00499 0
      vertex -3.2222 0.42421 0
    endloop
  endfacet
  facet normal 0 0 1
    outer loop
      vertex -2.5784 -1.97847 0
      vertex -5.33511 -3.50499 0
      vertex -4.97176 -4.0488 0
    endloop
  endfacet
  facet normal 0 0 1
    outer loop
      vertex -3.2222 0.42421 0
      vertex -6.00499 1.00499 0
      vertex -3.25 0 0
    endloop
  endfacet
  facet normal 0 0 1
    outer loop
      vertex -2.81458 -1.625 0
      vertex -5.62439 -2.91841 0
      vertex -5.33511 -3.50499 0
    endloop
  endfacet
  facet normal 0 0 1
    outer loop
      vertex -3.00261 -1.24372 0
      vertex -5.83463 -2.29909 0
      vertex -5.62439 -2.91841 0
    endloop
  endfacet
  facet normal 0 0 1
    outer loop
      vertex -3.00261 -1.24372 0
      vertex -5.96222 -1.65762 0
      vertex -5.83463 -2.29909 0
    endloop
  endfacet
  facet normal -0.946926 0.321452 0
    outer loop
      vertex -5.83463 2.29909 -9
      vertex -5.62439 2.91841 0
      vertex -5.62439 2.91841 -9
    endloop
  endfacet
  facet normal -0.946926 0.321452 0
    outer loop
      vertex -5.62439 2.91841 0
      vertex -5.83463 2.29909 -9
      vertex -5.83463 2.29909 0
    endloop
  endfacet
  facet normal -0.831478 -0.555557 0
    outer loop
      vertex -4.97176 -4.0488 -9
      vertex -5.33511 -3.50499 0
      vertex -5.33511 -3.50499 -9
    endloop
  endfacet
  facet normal -0.831478 -0.555557 0
    outer loop
      vertex -5.33511 -3.50499 0
      vertex -4.97176 -4.0488 -9
      vertex -4.97176 -4.0488 0
    endloop
  endfacet
  facet normal -0.442302 -0.896866 0
    outer loop
      vertex -3.50499 -5.33511 -9
      vertex -2.91841 -5.62439 0
      vertex -3.50499 -5.33511 0
    endloop
  endfacet
  facet normal -0.442302 -0.896866 -0
    outer loop
      vertex -2.91841 -5.62439 0
      vertex -3.50499 -5.33511 -9
      vertex -2.91841 -5.62439 -9
    endloop
  endfacet
  facet normal -0.659341 -0.751844 0
    outer loop
      vertex -4.54053 -4.54053 -9
      vertex -4.0488 -4.97176 0
      vertex -4.54053 -4.54053 0
    endloop
  endfacet
  facet normal -0.659341 -0.751844 -0
    outer loop
      vertex -4.0488 -4.97176 0
      vertex -4.54053 -4.54053 -9
      vertex -4.0488 -4.97176 -9
    endloop
  endfacet
  facet normal -0.321452 -0.946926 0
    outer loop
      vertex -2.91841 -5.62439 -9
      vertex -2.29909 -5.83463 0
      vertex -2.91841 -5.62439 0
    endloop
  endfacet
  facet normal -0.321452 -0.946926 -0
    outer loop
      vertex -2.29909 -5.83463 0
      vertex -2.91841 -5.62439 -9
      vertex -2.29909 -5.83463 -9
    endloop
  endfacet
  facet normal 0.751844 0.659341 0
    outer loop
      vertex 4.97176 4.0488 0
      vertex 4.54053 4.54053 -9
      vertex 4.54053 4.54053 0
    endloop
  endfacet
  facet normal 0.751844 0.659341 0
    outer loop
      vertex 4.54053 4.54053 -9
      vertex 4.97176 4.0488 0
      vertex 4.97176 4.0488 -9
    endloop
  endfacet
  facet normal 0.659341 0.751844 -0
    outer loop
      vertex 4.54053 4.54053 -9
      vertex 4.0488 4.97176 0
      vertex 4.54053 4.54053 0
    endloop
  endfacet
  facet normal 0.659341 0.751844 0
    outer loop
      vertex 4.0488 4.97176 0
      vertex 4.54053 4.54053 -9
      vertex 4.0488 4.97176 -9
    endloop
  endfacet
  facet normal 0.0653946 0.997859 -0
    outer loop
      vertex 1.65762 5.96222 -9
      vertex 1.00499 6.00499 0
      vertex 1.65762 5.96222 0
    endloop
  endfacet
  facet normal 0.0653946 0.997859 0
    outer loop
      vertex 1.00499 6.00499 0
      vertex 1.65762 5.96222 -9
      vertex 1.00499 6.00499 -9
    endloop
  endfacet
  facet normal 0.321452 0.946926 -0
    outer loop
      vertex 2.91841 5.62439 -9
      vertex 2.29909 5.83463 0
      vertex 2.91841 5.62439 0
    endloop
  endfacet
  facet normal 0.321452 0.946926 0
    outer loop
      vertex 2.29909 5.83463 0
      vertex 2.91841 5.62439 -9
      vertex 2.29909 5.83463 -9
    endloop
  endfacet
  facet normal 0 1 -0
    outer loop
      vertex 1.00499 6.00499 -9
      vertex -1.00499 6.00499 0
      vertex 1.00499 6.00499 0
    endloop
  endfacet
  facet normal 0 1 0
    outer loop
      vertex -1.00499 6.00499 0
      vertex 1.00499 6.00499 -9
      vertex -1.00499 6.00499 -9
    endloop
  endfacet
  facet normal 1 -0 0
    outer loop
      vertex 6.00499 -1.00499 0
      vertex 6.00499 1.00499 -9
      vertex 6.00499 1.00499 0
    endloop
  endfacet
  facet normal 1 0 0
    outer loop
      vertex 6.00499 1.00499 -9
      vertex 6.00499 -1.00499 0
      vertex 6.00499 -1.00499 -9
    endloop
  endfacet
  facet normal 0.980787 0.195081 0
    outer loop
      vertex 5.96222 1.65762 0
      vertex 5.83463 2.29909 -9
      vertex 5.83463 2.29909 0
    endloop
  endfacet
  facet normal 0.980787 0.195081 0
    outer loop
      vertex 5.83463 2.29909 -9
      vertex 5.96222 1.65762 0
      vertex 5.96222 1.65762 -9
    endloop
  endfacet
  facet normal 0.946926 -0.321452 0
    outer loop
      vertex 5.62439 -2.91841 0
      vertex 5.83463 -2.29909 -9
      vertex 5.83463 -2.29909 0
    endloop
  endfacet
  facet normal 0.946926 -0.321452 0
    outer loop
      vertex 5.83463 -2.29909 -9
      vertex 5.62439 -2.91841 0
      vertex 5.62439 -2.91841 -9
    endloop
  endfacet
  facet normal 0.896866 -0.442302 0
    outer loop
      vertex 5.33511 -3.50499 0
      vertex 5.62439 -2.91841 -9
      vertex 5.62439 -2.91841 0
    endloop
  endfacet
  facet normal 0.896866 -0.442302 0
    outer loop
      vertex 5.62439 -2.91841 -9
      vertex 5.33511 -3.50499 0
      vertex 5.33511 -3.50499 -9
    endloop
  endfacet
  facet normal -0.442302 0.896866 0
    outer loop
      vertex -2.91841 5.62439 -9
      vertex -3.50499 5.33511 0
      vertex -2.91841 5.62439 0
    endloop
  endfacet
  facet normal -0.442302 0.896866 0
    outer loop
      vertex -3.50499 5.33511 0
      vertex -2.91841 5.62439 -9
      vertex -3.50499 5.33511 -9
    endloop
  endfacet
  facet normal -0.321452 0.946926 0
    outer loop
      vertex -2.29909 5.83463 -9
      vertex -2.91841 5.62439 0
      vertex -2.29909 5.83463 0
    endloop
  endfacet
  facet normal -0.321452 0.946926 0
    outer loop
      vertex -2.91841 5.62439 0
      vertex -2.29909 5.83463 -9
      vertex -2.91841 5.62439 -9
    endloop
  endfacet
  facet normal -0.659341 0.751844 0
    outer loop
      vertex -4.0488 4.97176 -9
      vertex -4.54053 4.54053 0
      vertex -4.0488 4.97176 0
    endloop
  endfacet
  facet normal -0.659341 0.751844 0
    outer loop
      vertex -4.54053 4.54053 0
      vertex -4.0488 4.97176 -9
      vertex -4.54053 4.54053 -9
    endloop
  endfacet
  facet normal 0 0 -1
    outer loop
      vertex 3.13926 -0.841162 -9
      vertex 6.00499 -1.00499 -9
      vertex 5.96222 -1.65762 -9
    endloop
  endfacet
  facet normal 0 0 -1
    outer loop
      vertex 6.00499 -1.00499 -9
      vertex 3.25 0 -9
      vertex 6.00499 1.00499 -9
    endloop
  endfacet
  facet normal 0 0 -1
    outer loop
      vertex 3.00261 -1.24372 -9
      vertex 5.96222 -1.65762 -9
      vertex 5.83463 -2.29909 -9
    endloop
  endfacet
  facet normal 0 0 -1
    outer loop
      vertex 3.2222 0.42421 -9
      vertex 6.00499 1.00499 -9
      vertex 3.25 0 -9
    endloop
  endfacet
  facet normal 0 0 -1
    outer loop
      vertex 3.00261 -1.24372 -9
      vertex 5.83463 -2.29909 -9
      vertex 5.62439 -2.91841 -9
    endloop
  endfacet
  facet normal 0 0 -1
    outer loop
      vertex 3.13926 0.841162 -9
      vertex 6.00499 1.00499 -9
      vertex 3.2222 0.42421 -9
    endloop
  endfacet
  facet normal 0 0 -1
    outer loop
      vertex 2.81458 -1.625 -9
      vertex 5.62439 -2.91841 -9
      vertex 5.33511 -3.50499 -9
    endloop
  endfacet
  facet normal -0 0 -1
    outer loop
      vertex 6.00499 1.00499 -9
      vertex 3.13926 0.841162 -9
      vertex 5.96222 1.65762 -9
    endloop
  endfacet
  facet normal 0 0 -1
    outer loop
      vertex 2.5784 -1.97847 -9
      vertex 5.33511 -3.50499 -9
      vertex 4.97176 -4.0488 -9
    endloop
  endfacet
  facet normal 0 0 -1
    outer loop
      vertex 3.00261 1.24372 -9
      vertex 5.96222 1.65762 -9
      vertex 3.13926 0.841162 -9
    endloop
  endfacet
  facet normal 0 0 -1
    outer loop
      vertex 2.2981 -2.2981 -9
      vertex 4.97176 -4.0488 -9
      vertex 4.54053 -4.54053 -9
    endloop
  endfacet
  facet normal -0 0 -1
    outer loop
      vertex 5.96222 1.65762 -9
      vertex 3.00261 1.24372 -9
      vertex 5.83463 2.29909 -9
    endloop
  endfacet
  facet normal 0 0 -1
    outer loop
      vertex 2.2981 -2.2981 -9
      vertex 4.54053 -4.54053 -9
      vertex 4.0488 -4.97176 -9
    endloop
  endfacet
  facet normal -0 0 -1
    outer loop
      vertex 5.83463 2.29909 -9
      vertex 3.00261 1.24372 -9
      vertex 5.62439 2.91841 -9
    endloop
  endfacet
  facet normal 0 0 -1
    outer loop
      vertex 1.97847 -2.5784 -9
      vertex 4.0488 -4.97176 -9
      vertex 3.50499 -5.33511 -9
    endloop
  endfacet
  facet normal 0 0 -1
    outer loop
      vertex 2.81458 1.625 -9
      vertex 5.62439 2.91841 -9
      vertex 3.00261 1.24372 -9
    endloop
  endfacet
  facet normal -0 0 -1
    outer loop
      vertex 5.62439 2.91841 -9
      vertex 2.81458 1.625 -9
      vertex 5.33511 3.50499 -9
    endloop
  endfacet
  facet normal 0 0 -1
    outer loop
      vertex 6.00499 -1.00499 -9
      vertex 3.2222 -0.42421 -9
      vertex 3.25 0 -9
    endloop
  endfacet
  facet normal 0 0 -1
    outer loop
      vertex 6.00499 -1.00499 -9
      vertex 3.13926 -0.841162 -9
      vertex 3.2222 -0.42421 -9
    endloop
  endfacet
  facet normal 0 0 -1
    outer loop
      vertex 5.96222 -1.65762 -9
      vertex 3.00261 -1.24372 -9
      vertex 3.13926 -0.841162 -9
    endloop
  endfacet
  facet normal 0 0 -1
    outer loop
      vertex 1.625 -2.81458 -9
      vertex 3.50499 -5.33511 -9
      vertex 2.91841 -5.62439 -9
    endloop
  endfacet
  facet normal 0 0 -1
    outer loop
      vertex 5.62439 -2.91841 -9
      vertex 2.81458 -1.625 -9
      vertex 3.00261 -1.24372 -9
    endloop
  endfacet
  facet normal 0 0 -1
    outer loop
      vertex 5.33511 -3.50499 -9
      vertex 2.5784 -1.97847 -9
      vertex 2.81458 -1.625 -9
    endloop
  endfacet
  facet normal 0 0 -1
    outer loop
      vertex 1.625 -2.81458 -9
      vertex 2.91841 -5.62439 -9
      vertex 2.29909 -5.83463 -9
    endloop
  endfacet
  facet normal 0 0 -1
    outer loop
      vertex 4.97176 -4.0488 -9
      vertex 2.2981 -2.2981 -9
      vertex 2.5784 -1.97847 -9
    endloop
  endfacet
  facet normal 0 0 -1
    outer loop
      vertex 4.0488 -4.97176 -9
      vertex 1.97847 -2.5784 -9
      vertex 2.2981 -2.2981 -9
    endloop
  endfacet
  facet normal 0 0 -1
    outer loop
      vertex 1.24372 -3.00261 -9
      vertex 2.29909 -5.83463 -9
      vertex 1.65762 -5.96222 -9
    endloop
  endfacet
  facet normal 0 0 -1
    outer loop
      vertex 3.50499 -5.33511 -9
      vertex 1.625 -2.81458 -9
      vertex 1.97847 -2.5784 -9
    endloop
  endfacet
  facet normal 0 0 -1
    outer loop
      vertex 2.29909 -5.83463 -9
      vertex 1.24372 -3.00261 -9
      vertex 1.625 -2.81458 -9
    endloop
  endfacet
  facet normal 0 0 -1
    outer loop
      vertex 0.841162 -3.13926 -9
      vertex 1.65762 -5.96222 -9
      vertex 1.00499 -6.00499 -9
    endloop
  endfacet
  facet normal 0 0 -1
    outer loop
      vertex 1.65762 -5.96222 -9
      vertex 0.841162 -3.13926 -9
      vertex 1.24372 -3.00261 -9
    endloop
  endfacet
  facet normal 0 0 -1
    outer loop
      vertex 1.00499 -6.00499 -9
      vertex 0.42421 -3.2222 -9
      vertex 0.841162 -3.13926 -9
    endloop
  endfacet
  facet normal 0 0 -1
    outer loop
      vertex 1.00499 -6.00499 -9
      vertex 0 -3.25 -9
      vertex 0.42421 -3.2222 -9
    endloop
  endfacet
  facet normal 0 0 -1
    outer loop
      vertex -1.00499 -6.00499 -9
      vertex 0 -3.25 -9
      vertex 1.00499 -6.00499 -9
    endloop
  endfacet
  facet normal -0 0 -1
    outer loop
      vertex 0 -3.25 -9
      vertex -1.00499 -6.00499 -9
      vertex -0.42421 -3.2222 -9
    endloop
  endfacet
  facet normal -0 0 -1
    outer loop
      vertex -0.42421 -3.2222 -9
      vertex -1.00499 -6.00499 -9
      vertex -0.841162 -3.13926 -9
    endloop
  endfacet
  facet normal 0 0 -1
    outer loop
      vertex -1.65762 -5.96222 -9
      vertex -0.841162 -3.13926 -9
      vertex -1.00499 -6.00499 -9
    endloop
  endfacet
  facet normal -0 0 -1
    outer loop
      vertex -0.841162 -3.13926 -9
      vertex -1.65762 -5.96222 -9
      vertex -1.24372 -3.00261 -9
    endloop
  endfacet
  facet normal 0 0 -1
    outer loop
      vertex -2.29909 -5.83463 -9
      vertex -1.24372 -3.00261 -9
      vertex -1.65762 -5.96222 -9
    endloop
  endfacet
  facet normal -0 0 -1
    outer loop
      vertex -1.24372 -3.00261 -9
      vertex -2.29909 -5.83463 -9
      vertex -1.625 -2.81458 -9
    endloop
  endfacet
  facet normal 0 0 -1
    outer loop
      vertex -2.91841 -5.62439 -9
      vertex -1.625 -2.81458 -9
      vertex -2.29909 -5.83463 -9
    endloop
  endfacet
  facet normal 0 0 -1
    outer loop
      vertex -3.50499 -5.33511 -9
      vertex -1.625 -2.81458 -9
      vertex -2.91841 -5.62439 -9
    endloop
  endfacet
  facet normal -0 0 -1
    outer loop
      vertex -1.625 -2.81458 -9
      vertex -3.50499 -5.33511 -9
      vertex -1.97847 -2.5784 -9
    endloop
  endfacet
  facet normal 0 0 -1
    outer loop
      vertex -4.0488 -4.97176 -9
      vertex -1.97847 -2.5784 -9
      vertex -3.50499 -5.33511 -9
    endloop
  endfacet
  facet normal -0 0 -1
    outer loop
      vertex -1.97847 -2.5784 -9
      vertex -4.0488 -4.97176 -9
      vertex -2.2981 -2.2981 -9
    endloop
  endfacet
  facet normal 0 0 -1
    outer loop
      vertex -4.54053 -4.54053 -9
      vertex -2.2981 -2.2981 -9
      vertex -4.0488 -4.97176 -9
    endloop
  endfacet
  facet normal 0 0 -1
    outer loop
      vertex -4.97176 -4.0488 -9
      vertex -2.2981 -2.2981 -9
      vertex -4.54053 -4.54053 -9
    endloop
  endfacet
  facet normal -0 0 -1
    outer loop
      vertex -2.2981 -2.2981 -9
      vertex -4.97176 -4.0488 -9
      vertex -2.5784 -1.97847 -9
    endloop
  endfacet
  facet normal 0 0 -1
    outer loop
      vertex -5.33511 -3.50499 -9
      vertex -2.5784 -1.97847 -9
      vertex -4.97176 -4.0488 -9
    endloop
  endfacet
  facet normal -0 0 -1
    outer loop
      vertex -2.5784 -1.97847 -9
      vertex -5.33511 -3.50499 -9
      vertex -2.81458 -1.625 -9
    endloop
  endfacet
  facet normal 0 0 -1
    outer loop
      vertex 2.5784 1.97847 -9
      vertex 5.33511 3.50499 -9
      vertex 2.81458 1.625 -9
    endloop
  endfacet
  facet normal -0 0 -1
    outer loop
      vertex 5.33511 3.50499 -9
      vertex 2.5784 1.97847 -9
      vertex 4.97176 4.0488 -9
    endloop
  endfacet
  facet normal 0 0 -1
    outer loop
      vertex 2.2981 2.2981 -9
      vertex 4.97176 4.0488 -9
      vertex 2.5784 1.97847 -9
    endloop
  endfacet
  facet normal -0 0 -1
    outer loop
      vertex 4.97176 4.0488 -9
      vertex 2.2981 2.2981 -9
      vertex 4.54053 4.54053 -9
    endloop
  endfacet
  facet normal -0 0 -1
    outer loop
      vertex 4.54053 4.54053 -9
      vertex 2.2981 2.2981 -9
      vertex 4.0488 4.97176 -9
    endloop
  endfacet
  facet normal 0 0 -1
    outer loop
      vertex 1.97847 2.5784 -9
      vertex 4.0488 4.97176 -9
      vertex 2.2981 2.2981 -9
    endloop
  endfacet
  facet normal -0 0 -1
    outer loop
      vertex 4.0488 4.97176 -9
      vertex 1.97847 2.5784 -9
      vertex 3.50499 5.33511 -9
    endloop
  endfacet
  facet normal 0 0 -1
    outer loop
      vertex 1.625 2.81458 -9
      vertex 3.50499 5.33511 -9
      vertex 1.97847 2.5784 -9
    endloop
  endfacet
  facet normal -0 0 -1
    outer loop
      vertex 3.50499 5.33511 -9
      vertex 1.625 2.81458 -9
      vertex 2.91841 5.62439 -9
    endloop
  endfacet
  facet normal -0 0 -1
    outer loop
      vertex 2.91841 5.62439 -9
      vertex 1.625 2.81458 -9
      vertex 2.29909 5.83463 -9
    endloop
  endfacet
  facet normal 0 0 -1
    outer loop
      vertex 1.24372 3.00261 -9
      vertex 2.29909 5.83463 -9
      vertex 1.625 2.81458 -9
    endloop
  endfacet
  facet normal -0 0 -1
    outer loop
      vertex 2.29909 5.83463 -9
      vertex 1.24372 3.00261 -9
      vertex 1.65762 5.96222 -9
    endloop
  endfacet
  facet normal 0 0 -1
    outer loop
      vertex 0.841162 3.13926 -9
      vertex 1.65762 5.96222 -9
      vertex 1.24372 3.00261 -9
    endloop
  endfacet
  facet normal -0 0 -1
    outer loop
      vertex 1.65762 5.96222 -9
      vertex 0.841162 3.13926 -9
      vertex 1.00499 6.00499 -9
    endloop
  endfacet
  facet normal 0 0 -1
    outer loop
      vertex 0.42421 3.2222 -9
      vertex 1.00499 6.00499 -9
      vertex 0.841162 3.13926 -9
    endloop
  endfacet
  facet normal 0 0 -1
    outer loop
      vertex 0 3.25 -9
      vertex 1.00499 6.00499 -9
      vertex 0.42421 3.2222 -9
    endloop
  endfacet
  facet normal 0 0 -1
    outer loop
      vertex -1.00499 6.00499 -9
      vertex 0 3.25 -9
      vertex -0.42421 3.2222 -9
    endloop
  endfacet
  facet normal 0 0 -1
    outer loop
      vertex -1.00499 6.00499 -9
      vertex -0.42421 3.2222 -9
      vertex -0.841162 3.13926 -9
    endloop
  endfacet
  facet normal 0 0 -1
    outer loop
      vertex 0 3.25 -9
      vertex -1.00499 6.00499 -9
      vertex 1.00499 6.00499 -9
    endloop
  endfacet
  facet normal 0 0 -1
    outer loop
      vertex -1.65762 5.96222 -9
      vertex -0.841162 3.13926 -9
      vertex -1.24372 3.00261 -9
    endloop
  endfacet
  facet normal 0 0 -1
    outer loop
      vertex -2.29909 5.83463 -9
      vertex -1.24372 3.00261 -9
      vertex -1.625 2.81458 -9
    endloop
  endfacet
  facet normal 0 0 -1
    outer loop
      vertex -0.841162 3.13926 -9
      vertex -1.65762 5.96222 -9
      vertex -1.00499 6.00499 -9
    endloop
  endfacet
  facet normal 0 0 -1
    outer loop
      vertex -3.50499 5.33511 -9
      vertex -1.625 2.81458 -9
      vertex -1.97847 2.5784 -9
    endloop
  endfacet
  facet normal 0 0 -1
    outer loop
      vertex -4.0488 4.97176 -9
      vertex -1.97847 2.5784 -9
      vertex -2.2981 2.2981 -9
    endloop
  endfacet
  facet normal 0 0 -1
    outer loop
      vertex -1.24372 3.00261 -9
      vertex -2.29909 5.83463 -9
      vertex -1.65762 5.96222 -9
    endloop
  endfacet
  facet normal 0 0 -1
    outer loop
      vertex -4.97176 4.0488 -9
      vertex -2.2981 2.2981 -9
      vertex -2.5784 1.97847 -9
    endloop
  endfacet
  facet normal 0 0 -1
    outer loop
      vertex -5.33511 3.50499 -9
      vertex -2.5784 1.97847 -9
      vertex -2.81458 1.625 -9
    endloop
  endfacet
  facet normal 0 0 -1
    outer loop
      vertex -1.625 2.81458 -9
      vertex -2.91841 5.62439 -9
      vertex -2.29909 5.83463 -9
    endloop
  endfacet
  facet normal 0 0 -1
    outer loop
      vertex -5.62439 2.91841 -9
      vertex -2.81458 1.625 -9
      vertex -3.00261 1.24372 -9
    endloop
  endfacet
  facet normal 0 0 -1
    outer loop
      vertex -5.96222 1.65762 -9
      vertex -3.00261 1.24372 -9
      vertex -3.13926 0.841162 -9
    endloop
  endfacet
  facet normal 0 0 -1
    outer loop
      vertex -6.00499 1.00499 -9
      vertex -3.13926 0.841162 -9
      vertex -3.2222 0.42421 -9
    endloop
  endfacet
  facet normal 0 0 -1
    outer loop
      vertex -6.00499 1.00499 -9
      vertex -3.2222 0.42421 -9
      vertex -3.25 0 -9
    endloop
  endfacet
  facet normal 0 0 -1
    outer loop
      vertex -1.625 2.81458 -9
      vertex -3.50499 5.33511 -9
      vertex -2.91841 5.62439 -9
    endloop
  endfacet
  facet normal 0 0 -1
    outer loop
      vertex -5.62439 -2.91841 -9
      vertex -2.81458 -1.625 -9
      vertex -5.33511 -3.50499 -9
    endloop
  endfacet
  facet normal -0 0 -1
    outer loop
      vertex -2.81458 -1.625 -9
      vertex -5.62439 -2.91841 -9
      vertex -3.00261 -1.24372 -9
    endloop
  endfacet
  facet normal 0 0 -1
    outer loop
      vertex -6.00499 1.00499 -9
      vertex -3.25 0 -9
      vertex -6.00499 -1.00499 -9
    endloop
  endfacet
  facet normal 0 0 -1
    outer loop
      vertex -5.83463 -2.29909 -9
      vertex -3.00261 -1.24372 -9
      vertex -5.62439 -2.91841 -9
    endloop
  endfacet
  facet normal 0 0 -1
    outer loop
      vertex -3.13926 0.841162 -9
      vertex -6.00499 1.00499 -9
      vertex -5.96222 1.65762 -9
    endloop
  endfacet
  facet normal 0 0 -1
    outer loop
      vertex -5.96222 -1.65762 -9
      vertex -3.00261 -1.24372 -9
      vertex -5.83463 -2.29909 -9
    endloop
  endfacet
  facet normal 0 0 -1
    outer loop
      vertex -1.97847 2.5784 -9
      vertex -4.0488 4.97176 -9
      vertex -3.50499 5.33511 -9
    endloop
  endfacet
  facet normal -0 0 -1
    outer loop
      vertex -3.00261 -1.24372 -9
      vertex -5.96222 -1.65762 -9
      vertex -3.13926 -0.841162 -9
    endloop
  endfacet
  facet normal 0 0 -1
    outer loop
      vertex -2.2981 2.2981 -9
      vertex -4.54053 4.54053 -9
      vertex -4.0488 4.97176 -9
    endloop
  endfacet
  facet normal 0 0 -1
    outer loop
      vertex -6.00499 -1.00499 -9
      vertex -3.13926 -0.841162 -9
      vertex -5.96222 -1.65762 -9
    endloop
  endfacet
  facet normal 0 0 -1
    outer loop
      vertex -2.2981 2.2981 -9
      vertex -4.97176 4.0488 -9
      vertex -4.54053 4.54053 -9
    endloop
  endfacet
  facet normal -0 0 -1
    outer loop
      vertex -3.13926 -0.841162 -9
      vertex -6.00499 -1.00499 -9
      vertex -3.2222 -0.42421 -9
    endloop
  endfacet
  facet normal 0 0 -1
    outer loop
      vertex -2.5784 1.97847 -9
      vertex -5.33511 3.50499 -9
      vertex -4.97176 4.0488 -9
    endloop
  endfacet
  facet normal -0 0 -1
    outer loop
      vertex -3.2222 -0.42421 -9
      vertex -6.00499 -1.00499 -9
      vertex -3.25 0 -9
    endloop
  endfacet
  facet normal 0 0 -1
    outer loop
      vertex -2.81458 1.625 -9
      vertex -5.62439 2.91841 -9
      vertex -5.33511 3.50499 -9
    endloop
  endfacet
  facet normal 0 0 -1
    outer loop
      vertex -3.00261 1.24372 -9
      vertex -5.83463 2.29909 -9
      vertex -5.62439 2.91841 -9
    endloop
  endfacet
  facet normal 0 0 -1
    outer loop
      vertex -3.00261 1.24372 -9
      vertex -5.96222 1.65762 -9
      vertex -5.83463 2.29909 -9
    endloop
  endfacet
  facet normal -0.997859 -0.0653946 0
    outer loop
      vertex -5.96222 -1.65762 -9
      vertex -6.00499 -1.00499 0
      vertex -6.00499 -1.00499 -9
    endloop
  endfacet
  facet normal -0.997859 -0.0653946 0
    outer loop
      vertex -6.00499 -1.00499 0
      vertex -5.96222 -1.65762 -9
      vertex -5.96222 -1.65762 0
    endloop
  endfacet
  facet normal -0.946926 -0.321452 0
    outer loop
      vertex -5.62439 -2.91841 -9
      vertex -5.83463 -2.29909 0
      vertex -5.83463 -2.29909 -9
    endloop
  endfacet
  facet normal -0.946926 -0.321452 0
    outer loop
      vertex -5.83463 -2.29909 0
      vertex -5.62439 -2.91841 -9
      vertex -5.62439 -2.91841 0
    endloop
  endfacet
  facet normal -0.555557 -0.831478 0
    outer loop
      vertex -4.0488 -4.97176 -9
      vertex -3.50499 -5.33511 0
      vertex -4.0488 -4.97176 0
    endloop
  endfacet
  facet normal -0.555557 -0.831478 -0
    outer loop
      vertex -3.50499 -5.33511 0
      vertex -4.0488 -4.97176 -9
      vertex -3.50499 -5.33511 -9
    endloop
  endfacet
  facet normal -0.195081 -0.980787 0
    outer loop
      vertex -2.29909 -5.83463 -9
      vertex -1.65762 -5.96222 0
      vertex -2.29909 -5.83463 0
    endloop
  endfacet
  facet normal -0.195081 -0.980787 -0
    outer loop
      vertex -1.65762 -5.96222 0
      vertex -2.29909 -5.83463 -9
      vertex -1.65762 -5.96222 -9
    endloop
  endfacet
  facet normal 0 -1 0
    outer loop
      vertex -1.00499 -6.00499 -9
      vertex 1.00499 -6.00499 0
      vertex -1.00499 -6.00499 0
    endloop
  endfacet
  facet normal 0 -1 -0
    outer loop
      vertex 1.00499 -6.00499 0
      vertex -1.00499 -6.00499 -9
      vertex 1.00499 -6.00499 -9
    endloop
  endfacet
  facet normal -0.0653946 -0.997859 0
    outer loop
      vertex -1.65762 -5.96222 -9
      vertex -1.00499 -6.00499 0
      vertex -1.65762 -5.96222 0
    endloop
  endfacet
  facet normal -0.0653946 -0.997859 -0
    outer loop
      vertex -1.00499 -6.00499 0
      vertex -1.65762 -5.96222 -9
      vertex -1.00499 -6.00499 -9
    endloop
  endfacet
  facet normal 0.0653946 -0.997859 0
    outer loop
      vertex 1.00499 -6.00499 -9
      vertex 1.65762 -5.96222 0
      vertex 1.00499 -6.00499 0
    endloop
  endfacet
  facet normal 0.0653946 -0.997859 0
    outer loop
      vertex 1.65762 -5.96222 0
      vertex 1.00499 -6.00499 -9
      vertex 1.65762 -5.96222 -9
    endloop
  endfacet
  facet normal 0.195081 0.980787 -0
    outer loop
      vertex 2.29909 5.83463 -9
      vertex 1.65762 5.96222 0
      vertex 2.29909 5.83463 0
    endloop
  endfacet
  facet normal 0.195081 0.980787 0
    outer loop
      vertex 1.65762 5.96222 0
      vertex 2.29909 5.83463 -9
      vertex 1.65762 5.96222 -9
    endloop
  endfacet
  facet normal -0.0653946 0.997859 0
    outer loop
      vertex -1.00499 6.00499 -9
      vertex -1.65762 5.96222 0
      vertex -1.00499 6.00499 0
    endloop
  endfacet
  facet normal -0.0653946 0.997859 0
    outer loop
      vertex -1.65762 5.96222 0
      vertex -1.00499 6.00499 -9
      vertex -1.65762 5.96222 -9
    endloop
  endfacet
  facet normal 0.980787 -0.195081 0
    outer loop
      vertex 5.83463 -2.29909 0
      vertex 5.96222 -1.65762 -9
      vertex 5.96222 -1.65762 0
    endloop
  endfacet
  facet normal 0.980787 -0.195081 0
    outer loop
      vertex 5.96222 -1.65762 -9
      vertex 5.83463 -2.29909 0
      vertex 5.83463 -2.29909 -9
    endloop
  endfacet
  facet normal 0.997859 -0.0653946 0
    outer loop
      vertex 5.96222 -1.65762 0
      vertex 6.00499 -1.00499 -9
      vertex 6.00499 -1.00499 0
    endloop
  endfacet
  facet normal 0.997859 -0.0653946 0
    outer loop
      vertex 6.00499 -1.00499 -9
      vertex 5.96222 -1.65762 0
      vertex 5.96222 -1.65762 -9
    endloop
  endfacet
  facet normal 0.997859 0.0653946 0
    outer loop
      vertex 6.00499 1.00499 0
      vertex 5.96222 1.65762 -9
      vertex 5.96222 1.65762 0
    endloop
  endfacet
  facet normal 0.997859 0.0653946 0
    outer loop
      vertex 5.96222 1.65762 -9
      vertex 6.00499 1.00499 0
      vertex 6.00499 1.00499 -9
    endloop
  endfacet
  facet normal 0.751844 -0.659341 0
    outer loop
      vertex 4.54053 -4.54053 0
      vertex 4.97176 -4.0488 -9
      vertex 4.97176 -4.0488 0
    endloop
  endfacet
  facet normal 0.751844 -0.659341 0
    outer loop
      vertex 4.97176 -4.0488 -9
      vertex 4.54053 -4.54053 0
      vertex 4.54053 -4.54053 -9
    endloop
  endfacet
  facet normal 0.659341 -0.751844 0
    outer loop
      vertex 4.0488 -4.97176 -9
      vertex 4.54053 -4.54053 0
      vertex 4.0488 -4.97176 0
    endloop
  endfacet
  facet normal 0.659341 -0.751844 0
    outer loop
      vertex 4.54053 -4.54053 0
      vertex 4.0488 -4.97176 -9
      vertex 4.54053 -4.54053 -9
    endloop
  endfacet
  facet normal 0.442302 -0.896866 0
    outer loop
      vertex 2.91841 -5.62439 -9
      vertex 3.50499 -5.33511 0
      vertex 2.91841 -5.62439 0
    endloop
  endfacet
  facet normal 0.442302 -0.896866 0
    outer loop
      vertex 3.50499 -5.33511 0
      vertex 2.91841 -5.62439 -9
      vertex 3.50499 -5.33511 -9
    endloop
  endfacet
  facet normal -0.831478 0.555557 0
    outer loop
      vertex -5.33511 3.50499 -9
      vertex -4.97176 4.0488 0
      vertex -4.97176 4.0488 -9
    endloop
  endfacet
  facet normal -0.831478 0.555557 0
    outer loop
      vertex -4.97176 4.0488 0
      vertex -5.33511 3.50499 -9
      vertex -5.33511 3.50499 0
    endloop
  endfacet
  facet normal -0.980787 -0.195081 0
    outer loop
      vertex -5.83463 -2.29909 -9
      vertex -5.96222 -1.65762 0
      vertex -5.96222 -1.65762 -9
    endloop
  endfacet
  facet normal -0.980787 -0.195081 0
    outer loop
      vertex -5.96222 -1.65762 0
      vertex -5.83463 -2.29909 -9
      vertex -5.83463 -2.29909 0
    endloop
  endfacet
  facet normal -0.980787 0.195081 0
    outer loop
      vertex -5.96222 1.65762 -9
      vertex -5.83463 2.29909 0
      vertex -5.83463 2.29909 -9
    endloop
  endfacet
  facet normal -0.980787 0.195081 0
    outer loop
      vertex -5.83463 2.29909 0
      vertex -5.96222 1.65762 -9
      vertex -5.96222 1.65762 0
    endloop
  endfacet
  facet normal -0.896866 -0.442302 0
    outer loop
      vertex -5.33511 -3.50499 -9
      vertex -5.62439 -2.91841 0
      vertex -5.62439 -2.91841 -9
    endloop
  endfacet
  facet normal -0.896866 -0.442302 0
    outer loop
      vertex -5.62439 -2.91841 0
      vertex -5.33511 -3.50499 -9
      vertex -5.33511 -3.50499 0
    endloop
  endfacet
  facet normal -0.751844 -0.659341 0
    outer loop
      vertex -4.54053 -4.54053 -9
      vertex -4.97176 -4.0488 0
      vertex -4.97176 -4.0488 -9
    endloop
  endfacet
  facet normal -0.751844 -0.659341 0
    outer loop
      vertex -4.97176 -4.0488 0
      vertex -4.54053 -4.54053 -9
      vertex -4.54053 -4.54053 0
    endloop
  endfacet
  facet normal 0.896866 0.442302 0
    outer loop
      vertex 5.62439 2.91841 0
      vertex 5.33511 3.50499 -9
      vertex 5.33511 3.50499 0
    endloop
  endfacet
  facet normal 0.896866 0.442302 0
    outer loop
      vertex 5.33511 3.50499 -9
      vertex 5.62439 2.91841 0
      vertex 5.62439 2.91841 -9
    endloop
  endfacet
  facet normal 0.555557 0.831478 -0
    outer loop
      vertex 4.0488 4.97176 -9
      vertex 3.50499 5.33511 0
      vertex 4.0488 4.97176 0
    endloop
  endfacet
  facet normal 0.555557 0.831478 0
    outer loop
      vertex 3.50499 5.33511 0
      vertex 4.0488 4.97176 -9
      vertex 3.50499 5.33511 -9
    endloop
  endfacet
  facet normal 0.831478 -0.555557 0
    outer loop
      vertex 4.97176 -4.0488 0
      vertex 5.33511 -3.50499 -9
      vertex 5.33511 -3.50499 0
    endloop
  endfacet
  facet normal 0.831478 -0.555557 0
    outer loop
      vertex 5.33511 -3.50499 -9
      vertex 4.97176 -4.0488 0
      vertex 4.97176 -4.0488 -9
    endloop
  endfacet
  facet normal 0.555557 -0.831478 0
    outer loop
      vertex 3.50499 -5.33511 -9
      vertex 4.0488 -4.97176 0
      vertex 3.50499 -5.33511 0
    endloop
  endfacet
  facet normal 0.555557 -0.831478 0
    outer loop
      vertex 4.0488 -4.97176 0
      vertex 3.50499 -5.33511 -9
      vertex 4.0488 -4.97176 -9
    endloop
  endfacet
  facet normal -0.99786 -0.0653933 0
    outer loop
      vertex 3.25 0 -9
      vertex 3.2222 0.42421 0
      vertex 3.2222 0.42421 -9
    endloop
  endfacet
  facet normal -0.99786 -0.0653933 0
    outer loop
      vertex 3.2222 0.42421 0
      vertex 3.25 0 -9
      vertex 3.25 0 0
    endloop
  endfacet
  facet normal 0.99786 -0.0653933 0
    outer loop
      vertex -3.25 0 0
      vertex -3.2222 0.42421 -9
      vertex -3.2222 0.42421 0
    endloop
  endfacet
  facet normal 0.99786 -0.0653933 0
    outer loop
      vertex -3.2222 0.42421 -9
      vertex -3.25 0 0
      vertex -3.25 0 -9
    endloop
  endfacet
  facet normal -0.0653933 -0.99786 0
    outer loop
      vertex 0 3.25 -9
      vertex 0.42421 3.2222 0
      vertex 0 3.25 0
    endloop
  endfacet
  facet normal -0.0653933 -0.99786 -0
    outer loop
      vertex 0.42421 3.2222 0
      vertex 0 3.25 -9
      vertex 0.42421 3.2222 -9
    endloop
  endfacet
  facet normal 0.751849 0.659335 0
    outer loop
      vertex -2.2981 -2.2981 0
      vertex -2.5784 -1.97847 -9
      vertex -2.5784 -1.97847 0
    endloop
  endfacet
  facet normal 0.751849 0.659335 0
    outer loop
      vertex -2.5784 -1.97847 -9
      vertex -2.2981 -2.2981 0
      vertex -2.2981 -2.2981 -9
    endloop
  endfacet
  facet normal -0.659335 -0.751849 0
    outer loop
      vertex 1.97847 2.5784 -9
      vertex 2.2981 2.2981 0
      vertex 1.97847 2.5784 0
    endloop
  endfacet
  facet normal -0.659335 -0.751849 -0
    outer loop
      vertex 2.2981 2.2981 0
      vertex 1.97847 2.5784 -9
      vertex 2.2981 2.2981 -9
    endloop
  endfacet
  facet normal 0.659335 -0.751849 0
    outer loop
      vertex -2.2981 2.2981 -9
      vertex -1.97847 2.5784 0
      vertex -2.2981 2.2981 0
    endloop
  endfacet
  facet normal 0.659335 -0.751849 0
    outer loop
      vertex -1.97847 2.5784 0
      vertex -2.2981 2.2981 -9
      vertex -1.97847 2.5784 -9
    endloop
  endfacet
  facet normal 0.321439 -0.94693 0
    outer loop
      vertex -1.24372 3.00261 -9
      vertex -0.841162 3.13926 0
      vertex -1.24372 3.00261 0
    endloop
  endfacet
  facet normal 0.321439 -0.94693 0
    outer loop
      vertex -0.841162 3.13926 0
      vertex -1.24372 3.00261 -9
      vertex -0.841162 3.13926 -9
    endloop
  endfacet
  facet normal -0.896869 -0.442295 0
    outer loop
      vertex 3.00261 1.24372 -9
      vertex 2.81458 1.625 0
      vertex 2.81458 1.625 -9
    endloop
  endfacet
  facet normal -0.896869 -0.442295 0
    outer loop
      vertex 2.81458 1.625 0
      vertex 3.00261 1.24372 -9
      vertex 3.00261 1.24372 0
    endloop
  endfacet
  facet normal -0.831471 -0.555568 0
    outer loop
      vertex 2.81458 1.625 -9
      vertex 2.5784 1.97847 0
      vertex 2.5784 1.97847 -9
    endloop
  endfacet
  facet normal -0.831471 -0.555568 0
    outer loop
      vertex 2.5784 1.97847 0
      vertex 2.81458 1.625 -9
      vertex 2.81458 1.625 0
    endloop
  endfacet
  facet normal -0.442295 -0.896869 0
    outer loop
      vertex 1.24372 3.00261 -9
      vertex 1.625 2.81458 0
      vertex 1.24372 3.00261 0
    endloop
  endfacet
  facet normal -0.442295 -0.896869 -0
    outer loop
      vertex 1.625 2.81458 0
      vertex 1.24372 3.00261 -9
      vertex 1.625 2.81458 -9
    endloop
  endfacet
  facet normal -0.555568 -0.831471 0
    outer loop
      vertex 1.625 2.81458 -9
      vertex 1.97847 2.5784 0
      vertex 1.625 2.81458 0
    endloop
  endfacet
  facet normal -0.555568 -0.831471 -0
    outer loop
      vertex 1.97847 2.5784 0
      vertex 1.625 2.81458 -9
      vertex 1.97847 2.5784 -9
    endloop
  endfacet
  facet normal 0.896869 -0.442295 0
    outer loop
      vertex -3.00261 1.24372 0
      vertex -2.81458 1.625 -9
      vertex -2.81458 1.625 0
    endloop
  endfacet
  facet normal 0.896869 -0.442295 0
    outer loop
      vertex -2.81458 1.625 -9
      vertex -3.00261 1.24372 0
      vertex -3.00261 1.24372 -9
    endloop
  endfacet
  facet normal 0.751849 -0.659335 0
    outer loop
      vertex -2.5784 1.97847 0
      vertex -2.2981 2.2981 -9
      vertex -2.2981 2.2981 0
    endloop
  endfacet
  facet normal 0.751849 -0.659335 0
    outer loop
      vertex -2.2981 2.2981 -9
      vertex -2.5784 1.97847 0
      vertex -2.5784 1.97847 -9
    endloop
  endfacet
  facet normal 0.0653933 -0.99786 0
    outer loop
      vertex -0.42421 3.2222 -9
      vertex 0 3.25 0
      vertex -0.42421 3.2222 0
    endloop
  endfacet
  facet normal 0.0653933 -0.99786 0
    outer loop
      vertex 0 3.25 0
      vertex -0.42421 3.2222 -9
      vertex 0 3.25 -9
    endloop
  endfacet
  facet normal -0.94693 0.321439 0
    outer loop
      vertex 3.00261 -1.24372 -9
      vertex 3.13926 -0.841162 0
      vertex 3.13926 -0.841162 -9
    endloop
  endfacet
  facet normal -0.94693 0.321439 0
    outer loop
      vertex 3.13926 -0.841162 0
      vertex 3.00261 -1.24372 -9
      vertex 3.00261 -1.24372 0
    endloop
  endfacet
  facet normal -0.0653933 0.99786 0
    outer loop
      vertex 0.42421 -3.2222 -9
      vertex 0 -3.25 0
      vertex 0.42421 -3.2222 0
    endloop
  endfacet
  facet normal -0.0653933 0.99786 0
    outer loop
      vertex 0 -3.25 0
      vertex 0.42421 -3.2222 -9
      vertex 0 -3.25 -9
    endloop
  endfacet
  facet normal 0.659335 0.751849 -0
    outer loop
      vertex -1.97847 -2.5784 -9
      vertex -2.2981 -2.2981 0
      vertex -1.97847 -2.5784 0
    endloop
  endfacet
  facet normal 0.659335 0.751849 0
    outer loop
      vertex -2.2981 -2.2981 0
      vertex -1.97847 -2.5784 -9
      vertex -2.2981 -2.2981 -9
    endloop
  endfacet
  facet normal 0.99786 0.0653933 0
    outer loop
      vertex -3.2222 -0.42421 0
      vertex -3.25 0 -9
      vertex -3.25 0 0
    endloop
  endfacet
  facet normal 0.99786 0.0653933 0
    outer loop
      vertex -3.25 0 -9
      vertex -3.2222 -0.42421 0
      vertex -3.2222 -0.42421 -9
    endloop
  endfacet
  facet normal -0.94693 -0.321439 0
    outer loop
      vertex 3.13926 0.841162 -9
      vertex 3.00261 1.24372 0
      vertex 3.00261 1.24372 -9
    endloop
  endfacet
  facet normal -0.94693 -0.321439 0
    outer loop
      vertex 3.00261 1.24372 0
      vertex 3.13926 0.841162 -9
      vertex 3.13926 0.841162 0
    endloop
  endfacet
  facet normal -0.980784 -0.195097 0
    outer loop
      vertex 3.2222 0.42421 -9
      vertex 3.13926 0.841162 0
      vertex 3.13926 0.841162 -9
    endloop
  endfacet
  facet normal -0.980784 -0.195097 0
    outer loop
      vertex 3.13926 0.841162 0
      vertex 3.2222 0.42421 -9
      vertex 3.2222 0.42421 0
    endloop
  endfacet
  facet normal -0.751849 -0.659335 0
    outer loop
      vertex 2.5784 1.97847 -9
      vertex 2.2981 2.2981 0
      vertex 2.2981 2.2981 -9
    endloop
  endfacet
  facet normal -0.751849 -0.659335 0
    outer loop
      vertex 2.2981 2.2981 0
      vertex 2.5784 1.97847 -9
      vertex 2.5784 1.97847 0
    endloop
  endfacet
  facet normal -0.321439 -0.94693 0
    outer loop
      vertex 0.841162 3.13926 -9
      vertex 1.24372 3.00261 0
      vertex 0.841162 3.13926 0
    endloop
  endfacet
  facet normal -0.321439 -0.94693 -0
    outer loop
      vertex 1.24372 3.00261 0
      vertex 0.841162 3.13926 -9
      vertex 1.24372 3.00261 -9
    endloop
  endfacet
  facet normal -0.195097 -0.980784 0
    outer loop
      vertex 0.42421 3.2222 -9
      vertex 0.841162 3.13926 0
      vertex 0.42421 3.2222 0
    endloop
  endfacet
  facet normal -0.195097 -0.980784 -0
    outer loop
      vertex 0.841162 3.13926 0
      vertex 0.42421 3.2222 -9
      vertex 0.841162 3.13926 -9
    endloop
  endfacet
  facet normal 0.831471 -0.555568 0
    outer loop
      vertex -2.81458 1.625 0
      vertex -2.5784 1.97847 -9
      vertex -2.5784 1.97847 0
    endloop
  endfacet
  facet normal 0.831471 -0.555568 0
    outer loop
      vertex -2.5784 1.97847 -9
      vertex -2.81458 1.625 0
      vertex -2.81458 1.625 -9
    endloop
  endfacet
  facet normal 0.94693 -0.321439 0
    outer loop
      vertex -3.13926 0.841162 0
      vertex -3.00261 1.24372 -9
      vertex -3.00261 1.24372 0
    endloop
  endfacet
  facet normal 0.94693 -0.321439 0
    outer loop
      vertex -3.00261 1.24372 -9
      vertex -3.13926 0.841162 0
      vertex -3.13926 0.841162 -9
    endloop
  endfacet
  facet normal 0.980784 -0.195097 0
    outer loop
      vertex -3.2222 0.42421 0
      vertex -3.13926 0.841162 -9
      vertex -3.13926 0.841162 0
    endloop
  endfacet
  facet normal 0.980784 -0.195097 0
    outer loop
      vertex -3.13926 0.841162 -9
      vertex -3.2222 0.42421 0
      vertex -3.2222 0.42421 -9
    endloop
  endfacet
  facet normal 0.442295 -0.896869 0
    outer loop
      vertex -1.625 2.81458 -9
      vertex -1.24372 3.00261 0
      vertex -1.625 2.81458 0
    endloop
  endfacet
  facet normal 0.442295 -0.896869 0
    outer loop
      vertex -1.24372 3.00261 0
      vertex -1.625 2.81458 -9
      vertex -1.24372 3.00261 -9
    endloop
  endfacet
  facet normal 0.555568 -0.831471 0
    outer loop
      vertex -1.97847 2.5784 -9
      vertex -1.625 2.81458 0
      vertex -1.97847 2.5784 0
    endloop
  endfacet
  facet normal 0.555568 -0.831471 0
    outer loop
      vertex -1.625 2.81458 0
      vertex -1.97847 2.5784 -9
      vertex -1.625 2.81458 -9
    endloop
  endfacet
  facet normal 0.195097 -0.980784 0
    outer loop
      vertex -0.841162 3.13926 -9
      vertex -0.42421 3.2222 0
      vertex -0.841162 3.13926 0
    endloop
  endfacet
  facet normal 0.195097 -0.980784 0
    outer loop
      vertex -0.42421 3.2222 0
      vertex -0.841162 3.13926 -9
      vertex -0.42421 3.2222 -9
    endloop
  endfacet
  facet normal -0.195097 0.980784 0
    outer loop
      vertex 0.841162 -3.13926 -9
      vertex 0.42421 -3.2222 0
      vertex 0.841162 -3.13926 0
    endloop
  endfacet
  facet normal -0.195097 0.980784 0
    outer loop
      vertex 0.42421 -3.2222 0
      vertex 0.841162 -3.13926 -9
      vertex 0.42421 -3.2222 -9
    endloop
  endfacet
  facet normal -0.659335 0.751849 0
    outer loop
      vertex 2.2981 -2.2981 -9
      vertex 1.97847 -2.5784 0
      vertex 2.2981 -2.2981 0
    endloop
  endfacet
  facet normal -0.659335 0.751849 0
    outer loop
      vertex 1.97847 -2.5784 0
      vertex 2.2981 -2.2981 -9
      vertex 1.97847 -2.5784 -9
    endloop
  endfacet
  facet normal -0.442295 0.896869 0
    outer loop
      vertex 1.625 -2.81458 -9
      vertex 1.24372 -3.00261 0
      vertex 1.625 -2.81458 0
    endloop
  endfacet
  facet normal -0.442295 0.896869 0
    outer loop
      vertex 1.24372 -3.00261 0
      vertex 1.625 -2.81458 -9
      vertex 1.24372 -3.00261 -9
    endloop
  endfacet
  facet normal -0.831471 0.555568 0
    outer loop
      vertex 2.5784 -1.97847 -9
      vertex 2.81458 -1.625 0
      vertex 2.81458 -1.625 -9
    endloop
  endfacet
  facet normal -0.831471 0.555568 0
    outer loop
      vertex 2.81458 -1.625 0
      vertex 2.5784 -1.97847 -9
      vertex 2.5784 -1.97847 0
    endloop
  endfacet
  facet normal 0.555568 0.831471 -0
    outer loop
      vertex -1.625 -2.81458 -9
      vertex -1.97847 -2.5784 0
      vertex -1.625 -2.81458 0
    endloop
  endfacet
  facet normal 0.555568 0.831471 0
    outer loop
      vertex -1.97847 -2.5784 0
      vertex -1.625 -2.81458 -9
      vertex -1.97847 -2.5784 -9
    endloop
  endfacet
  facet normal 0.321439 0.94693 -0
    outer loop
      vertex -0.841162 -3.13926 -9
      vertex -1.24372 -3.00261 0
      vertex -0.841162 -3.13926 0
    endloop
  endfacet
  facet normal 0.321439 0.94693 0
    outer loop
      vertex -1.24372 -3.00261 0
      vertex -0.841162 -3.13926 -9
      vertex -1.24372 -3.00261 -9
    endloop
  endfacet
  facet normal 0.0653933 0.99786 -0
    outer loop
      vertex 0 -3.25 -9
      vertex -0.42421 -3.2222 0
      vertex 0 -3.25 0
    endloop
  endfacet
  facet normal 0.0653933 0.99786 0
    outer loop
      vertex -0.42421 -3.2222 0
      vertex 0 -3.25 -9
      vertex -0.42421 -3.2222 -9
    endloop
  endfacet
  facet normal 0.896869 0.442295 0
    outer loop
      vertex -2.81458 -1.625 0
      vertex -3.00261 -1.24372 -9
      vertex -3.00261 -1.24372 0
    endloop
  endfacet
  facet normal 0.896869 0.442295 0
    outer loop
      vertex -3.00261 -1.24372 -9
      vertex -2.81458 -1.625 0
      vertex -2.81458 -1.625 -9
    endloop
  endfacet
  facet normal 0.980784 0.195097 0
    outer loop
      vertex -3.13926 -0.841162 0
      vertex -3.2222 -0.42421 -9
      vertex -3.2222 -0.42421 0
    endloop
  endfacet
  facet normal 0.980784 0.195097 0
    outer loop
      vertex -3.2222 -0.42421 -9
      vertex -3.13926 -0.841162 0
      vertex -3.13926 -0.841162 -9
    endloop
  endfacet
  facet normal -0.321439 0.94693 0
    outer loop
      vertex 1.24372 -3.00261 -9
      vertex 0.841162 -3.13926 0
      vertex 1.24372 -3.00261 0
    endloop
  endfacet
  facet normal -0.321439 0.94693 0
    outer loop
      vertex 0.841162 -3.13926 0
      vertex 1.24372 -3.00261 -9
      vertex 0.841162 -3.13926 -9
    endloop
  endfacet
  facet normal -0.751849 0.659335 0
    outer loop
      vertex 2.2981 -2.2981 -9
      vertex 2.5784 -1.97847 0
      vertex 2.5784 -1.97847 -9
    endloop
  endfacet
  facet normal -0.751849 0.659335 0
    outer loop
      vertex 2.5784 -1.97847 0
      vertex 2.2981 -2.2981 -9
      vertex 2.2981 -2.2981 0
    endloop
  endfacet
  facet normal -0.555568 0.831471 0
    outer loop
      vertex 1.97847 -2.5784 -9
      vertex 1.625 -2.81458 0
      vertex 1.97847 -2.5784 0
    endloop
  endfacet
  facet normal -0.555568 0.831471 0
    outer loop
      vertex 1.625 -2.81458 0
      vertex 1.97847 -2.5784 -9
      vertex 1.625 -2.81458 -9
    endloop
  endfacet
  facet normal -0.980784 0.195097 0
    outer loop
      vertex 3.13926 -0.841162 -9
      vertex 3.2222 -0.42421 0
      vertex 3.2222 -0.42421 -9
    endloop
  endfacet
  facet normal -0.980784 0.195097 0
    outer loop
      vertex 3.2222 -0.42421 0
      vertex 3.13926 -0.841162 -9
      vertex 3.13926 -0.841162 0
    endloop
  endfacet
  facet normal -0.896869 0.442295 0
    outer loop
      vertex 2.81458 -1.625 -9
      vertex 3.00261 -1.24372 0
      vertex 3.00261 -1.24372 -9
    endloop
  endfacet
  facet normal -0.896869 0.442295 0
    outer loop
      vertex 3.00261 -1.24372 0
      vertex 2.81458 -1.625 -9
      vertex 2.81458 -1.625 0
    endloop
  endfacet
  facet normal 0.442295 0.896869 -0
    outer loop
      vertex -1.24372 -3.00261 -9
      vertex -1.625 -2.81458 0
      vertex -1.24372 -3.00261 0
    endloop
  endfacet
  facet normal 0.442295 0.896869 0
    outer loop
      vertex -1.625 -2.81458 0
      vertex -1.24372 -3.00261 -9
      vertex -1.625 -2.81458 -9
    endloop
  endfacet
  facet normal 0.195097 0.980784 -0
    outer loop
      vertex -0.42421 -3.2222 -9
      vertex -0.841162 -3.13926 0
      vertex -0.42421 -3.2222 0
    endloop
  endfacet
  facet normal 0.195097 0.980784 0
    outer loop
      vertex -0.841162 -3.13926 0
      vertex -0.42421 -3.2222 -9
      vertex -0.841162 -3.13926 -9
    endloop
  endfacet
  facet normal 0.831471 0.555568 0
    outer loop
      vertex -2.5784 -1.97847 0
      vertex -2.81458 -1.625 -9
      vertex -2.81458 -1.625 0
    endloop
  endfacet
  facet normal 0.831471 0.555568 0
    outer loop
      vertex -2.81458 -1.625 -9
      vertex -2.5784 -1.97847 0
      vertex -2.5784 -1.97847 -9
    endloop
  endfacet
  facet normal 0.94693 0.321439 0
    outer loop
      vertex -3.00261 -1.24372 0
      vertex -3.13926 -0.841162 -9
      vertex -3.13926 -0.841162 0
    endloop
  endfacet
  facet normal 0.94693 0.321439 0
    outer loop
      vertex -3.13926 -0.841162 -9
      vertex -3.00261 -1.24372 0
      vertex -3.00261 -1.24372 -9
    endloop
  endfacet
  facet normal -0.99786 0.0653933 0
    outer loop
      vertex 3.2222 -0.42421 -9
      vertex 3.25 0 0
      vertex 3.25 0 -9
    endloop
  endfacet
  facet normal -0.99786 0.0653933 0
    outer loop
      vertex 3.25 0 0
      vertex 3.2222 -0.42421 -9
      vertex 3.2222 -0.42421 0
    endloop
  endfacet
endsolid OpenSCAD_Model
