<?xml version="1.0" standalone="no"?>
<!DOCTYPE svg PUBLIC "-//W3C//DTD SVG 1.1//EN" "http://www.w3.org/Graphics/SVG/1.1/DTD/svg11.dtd">
<svg width="14mm" height="14mm" viewBox="-7 -7 14 14" xmlns="http://www.w3.org/2000/svg" version="1.1">
<title>OpenSCAD Model</title>
<path d="
M 1.65762,5.96222 L 2.29909,5.83463 L 2.91841,5.62439 L 3.50499,5.33511 L 4.0488,4.97176 L 4.54053,4.54053
 L 4.97176,4.0488 L 5.33511,3.50499 L 5.62439,2.91841 L 5.83463,2.29909 L 5.96222,1.65762 L 6.00499,1.00499
 L 6.00499,-1.00499 L 5.96222,-1.65762 L 5.83463,-2.29909 L 5.62439,-2.91841 L 5.33511,-3.50499 L 4.97176,-4.0488
 L 4.54053,-4.54053 L 4.0488,-4.97176 L 3.50499,-5.33511 L 2.91841,-5.62439 L 2.29909,-5.83463 L 1.65762,-5.96222
 L 1.00499,-6.00499 L -1.00499,-6.00499 L -1.65762,-5.96222 L -2.29909,-5.83463 L -2.91841,-5.62439 L -3.50499,-5.33511
 L -4.0488,-4.97176 L -4.54053,-4.54053 L -4.97176,-4.0488 L -5.33511,-3.50499 L -5.62439,-2.91841 L -5.83463,-2.29909
 L -5.96222,-1.65762 L -6.00499,-1.00499 L -6.00499,1.00499 L -5.96222,1.65762 L -5.83463,2.29909 L -5.62439,2.91841
 L -5.33511,3.50499 L -4.97176,4.0488 L -4.54053,4.54053 L -4.0488,4.97176 L -3.50499,5.33511 L -2.91841,5.62439
 L -2.29909,5.83463 L -1.65762,5.96222 L -1.00499,6.00499 L 1.00499,6.00499 z
M -0.42421,3.22218 L -0.841156,3.13925 L -1.24371,3.00259 L -1.625,2.81458 L -1.97847,2.57838 L -2.2981,2.2981
 L -2.57838,1.97847 L -2.81458,1.625 L -3.00259,1.24371 L -3.13925,0.841156 L -3.22218,0.42421 L -3.25,-0
 L -3.22218,-0.42421 L -3.13925,-0.841156 L -3.00259,-1.24371 L -2.81458,-1.625 L -2.57838,-1.97847 L -2.2981,-2.2981
 L -1.97847,-2.57838 L -1.625,-2.81458 L -1.24371,-3.00259 L -0.841156,-3.13925 L -0.42421,-3.22218 L 0,-3.25
 L 0.42421,-3.22218 L 0.841156,-3.13925 L 1.24371,-3.00259 L 1.625,-2.81458 L 1.97847,-2.57838 L 2.2981,-2.2981
 L 2.57838,-1.97847 L 2.81458,-1.625 L 3.00259,-1.24371 L 3.13925,-0.841156 L 3.22218,-0.42421 L 3.25,-0
 L 3.22218,0.42421 L 3.13925,0.841156 L 3.00259,1.24371 L 2.81458,1.625 L 2.57838,1.97847 L 2.2981,2.2981
 L 1.97847,2.57838 L 1.625,2.81458 L 1.24371,3.00259 L 0.841156,3.13925 L 0.42421,3.22218 L 0,3.25
 z
" stroke="black" fill="lightgray" stroke-width="0.5"/>
</svg>
