<?xml version="1.0" encoding="UTF-8"?>
<!DOCTYPE svg PUBLIC "-//W3C//DTD SVG 1.1//EN" "http://www.w3.org/Graphics/SVG/1.1/DTD/svg11.dtd">
<!-- Creator: CorelDRAW -->
<svg xmlns="http://www.w3.org/2000/svg" xml:space="preserve" width="210mm" height="297mm" style="shape-rendering:geometricPrecision; text-rendering:geometricPrecision; image-rendering:optimizeQuality; fill-rule:evenodd; clip-rule:evenodd"
viewBox="0 0 210 297"
 xmlns:xlink="http://www.w3.org/1999/xlink">
 <defs>
  <style type="text/css">
   <![CDATA[
    .str0 {stroke:black;stroke-width:0.5292;stroke-linecap:round;stroke-linejoin:round}
    .fil0 {fill:none;fill-rule:nonzero}
   ]]>
  </style>
 </defs>
 <g id="Layer_x0020_1">
  <metadata id="CorelCorpID_0Corel-Layer"/>
  <g id="_113222696">
   <path id="_113221208" class="fil0 str0" d="M7.3784 295.417l1.8655 -0.3991 0.6252 0.0193 2.6893 1.2827 0 1.3601 -2.6893 1.2831 -0.6252 0.0193 -1.8655 -0.3991 -1.0416 2.5154 1.6033 1.0362 0.4261 0.4553 0.9957 2.8088 -0.963 0.9631 -2.8089 -0.9957 -0.4552 -0.4282 -1.0363 -1.6012 -2.5153 1.0416 0.399 1.8655 -0.0193 0.6233 -1.2825 2.6912 -1.3603 0 -1.2831 -2.6912 -0.0193 -0.6233 0.4011 -1.8655 -2.5173 -1.0416 -1.0362 1.6012 -0.4554 0.4282 -2.8087 0.9957 -0.9632 -0.9631 0.9978 -2.8088 0.4262 -0.4553 1.6031 -1.0362 -1.0435 -2.5154 -1.8654 0.3991 -0.6233 -0.0193 -2.6912 -1.2831 0 -1.3601 2.6912 -1.2827 0.6233 -0.0193 1.8654 0.3991 1.0435 -2.5153 -1.6031 -1.0362 -0.4262 -0.4554 -0.9978 -2.8088 0.9632 -0.9631 2.8087 0.9957 0.4554 0.4263 1.0362 1.6031 2.5173 -1.0416 -0.4011 -1.8655 0.0193 -0.6252 1.2831 -2.6891 1.3603 0 1.2825 2.6891 0.0193 0.6252 -0.399 1.8655 2.5153 1.0416 1.0363 -1.6031 0.4552 -0.4263 2.8089 -0.9957 0.963 0.9631 -0.9957 2.8088 -0.4261 0.4554 -1.6033 1.0362 1.0416 2.5153zm0 0z"/>
   <path id="_113222960" class="fil0 str0" d="M3.9999 297c0,2.2088 -1.7912,4 -4,4 -2.2084,0 -4.0002,-1.7912 -4.0002,-4 0,-2.2084 1.7918,-4.0002 4.0002,-4.0002 2.2088,0 4,1.7918 4,4.0002zm0 0z"/>
  </g>
 </g>
</svg>
