<?xml version="1.0" standalone="no"?>
<!DOCTYPE svg PUBLIC "-//W3C//DTD SVG 1.1//EN" "http://www.w3.org/Graphics/SVG/1.1/DTD/svg11.dtd">
<svg width="42mm" height="27mm" viewBox="9 -36 42 27" xmlns="http://www.w3.org/2000/svg" version="1.1">
<title>OpenSCAD Model</title>
<path d="
M 46,-9.00986 L 46.3139,-9.00986 L 46.9369,-9.08856 L 47.5451,-9.24471 L 48.1289,-9.47586 L 48.6791,-9.77835
 L 49.1871,-10.1474 L 49.6448,-10.5773 L 50.0451,-11.0611 L 50.3815,-11.5912 L 50.6489,-12.1594 L 50.8429,-12.7565
 L 50.9606,-13.3733 L 51,-14 L 51,-31 L 50.9606,-31.6267 L 50.8429,-32.2434 L 50.6489,-32.8406
 L 50.3815,-33.4088 L 50.0451,-33.9389 L 49.6448,-34.4227 L 49.1871,-34.8526 L 48.6791,-35.2216 L 48.1289,-35.5241
 L 47.5451,-35.7553 L 46.9369,-35.9114 L 46.3139,-35.9901 L 46,-35.9901 L 46,-36 L 14,-36
 L 14,-35.9901 L 13.686,-35.9901 L 13.0631,-35.9114 L 12.4549,-35.7553 L 11.8711,-35.5241 L 11.3209,-35.2216
 L 10.8129,-34.8526 L 10.3551,-34.4227 L 9.95491,-33.9389 L 9.61845,-33.4088 L 9.3511,-32.8406 L 9.15707,-32.2434
 L 9.03941,-31.6267 L 9,-31 L 9,-14 L 9.03941,-13.3733 L 9.15707,-12.7565 L 9.3511,-12.1594
 L 9.61845,-11.5912 L 9.95491,-11.0611 L 10.3551,-10.5773 L 10.8129,-10.1474 L 11.3209,-9.77835 L 11.8711,-9.47586
 L 12.4549,-9.24471 L 13.0631,-9.08856 L 13.686,-9.00986 L 14,-9.00986 L 14,-9 L 46,-9
 z
M 14.7959,-26.7564 L 14.391,-26.8076 L 13.9957,-26.9091 L 13.6162,-27.0593 L 13.2586,-27.2559 L 12.9284,-27.4958
 L 12.6308,-27.7752 L 12.3707,-28.0897 L 12.152,-28.4343 L 11.9782,-28.8036 L 11.8521,-29.1918 L 11.7756,-29.5927
 L 11.75,-30 L 11.7756,-30.4073 L 11.8521,-30.8082 L 11.9782,-31.1964 L 12.152,-31.5657 L 12.3707,-31.9103
 L 12.6308,-32.2248 L 12.9284,-32.5042 L 13.2586,-32.7441 L 13.6162,-32.9407 L 13.9957,-33.0909 L 14.391,-33.1924
 L 14.7959,-33.2436 L 15.2041,-33.2436 L 15.609,-33.1924 L 16.0043,-33.0909 L 16.3838,-32.9407 L 16.7414,-32.7441
 L 17.0716,-32.5042 L 17.3691,-32.2248 L 17.6293,-31.9103 L 17.848,-31.5657 L 18.0218,-31.1964 L 18.1479,-30.8082
 L 18.2244,-30.4073 L 18.25,-30 L 18.2244,-29.5927 L 18.1479,-29.1918 L 18.0218,-28.8036 L 17.848,-28.4343
 L 17.6293,-28.0897 L 17.3691,-27.7752 L 17.0716,-27.4958 L 16.7414,-27.2559 L 16.3838,-27.0593 L 16.0043,-26.9091
 L 15.609,-26.8076 L 15.2041,-26.7564 z
M 29.7959,-26.7564 L 29.391,-26.8076 L 28.9957,-26.9091 L 28.6162,-27.0593 L 28.2586,-27.2559 L 27.9284,-27.4958
 L 27.6308,-27.7752 L 27.3707,-28.0897 L 27.152,-28.4343 L 26.9782,-28.8036 L 26.8521,-29.1918 L 26.7756,-29.5927
 L 26.75,-30 L 26.7756,-30.4073 L 26.8521,-30.8082 L 26.9782,-31.1964 L 27.152,-31.5657 L 27.3707,-31.9103
 L 27.6308,-32.2248 L 27.9284,-32.5042 L 28.2586,-32.7441 L 28.6162,-32.9407 L 28.9957,-33.0909 L 29.391,-33.1924
 L 29.7959,-33.2436 L 30.2041,-33.2436 L 30.609,-33.1924 L 31.0043,-33.0909 L 31.3838,-32.9407 L 31.7414,-32.7441
 L 32.0716,-32.5042 L 32.3691,-32.2248 L 32.6293,-31.9103 L 32.848,-31.5657 L 33.0218,-31.1964 L 33.1479,-30.8082
 L 33.2244,-30.4073 L 33.25,-30 L 33.2244,-29.5927 L 33.1479,-29.1918 L 33.0218,-28.8036 L 32.848,-28.4343
 L 32.6293,-28.0897 L 32.3691,-27.7752 L 32.0716,-27.4958 L 31.7414,-27.2559 L 31.3838,-27.0593 L 31.0043,-26.9091
 L 30.609,-26.8076 L 30.2041,-26.7564 z
M 44.7959,-26.7564 L 44.391,-26.8076 L 43.9957,-26.9091 L 43.6162,-27.0593 L 43.2586,-27.2559 L 42.9284,-27.4958
 L 42.6308,-27.7752 L 42.3707,-28.0897 L 42.152,-28.4343 L 41.9782,-28.8036 L 41.8521,-29.1918 L 41.7756,-29.5927
 L 41.75,-30 L 41.7756,-30.4073 L 41.8521,-30.8082 L 41.9782,-31.1964 L 42.152,-31.5657 L 42.3707,-31.9103
 L 42.6308,-32.2248 L 42.9284,-32.5042 L 43.2586,-32.7441 L 43.6162,-32.9407 L 43.9957,-33.0909 L 44.391,-33.1924
 L 44.7959,-33.2436 L 45.2041,-33.2436 L 45.609,-33.1924 L 46.0043,-33.0909 L 46.3838,-32.9407 L 46.7414,-32.7441
 L 47.0716,-32.5042 L 47.3691,-32.2248 L 47.6293,-31.9103 L 47.848,-31.5657 L 48.0218,-31.1964 L 48.1479,-30.8082
 L 48.2244,-30.4073 L 48.25,-30 L 48.2244,-29.5927 L 48.1479,-29.1918 L 48.0218,-28.8036 L 47.848,-28.4343
 L 47.6293,-28.0897 L 47.3691,-27.7752 L 47.0716,-27.4958 L 46.7414,-27.2559 L 46.3838,-27.0593 L 46.0043,-26.9091
 L 45.609,-26.8076 L 45.2041,-26.7564 z
M 14.7959,-11.7564 L 14.391,-11.8076 L 13.9957,-11.9091 L 13.6162,-12.0593 L 13.2586,-12.2559 L 12.9284,-12.4958
 L 12.6308,-12.7752 L 12.3707,-13.0897 L 12.152,-13.4343 L 11.9782,-13.8036 L 11.8521,-14.1918 L 11.7756,-14.5927
 L 11.75,-15 L 11.7756,-15.4073 L 11.8521,-15.8082 L 11.9782,-16.1964 L 12.152,-16.5657 L 12.3707,-16.9103
 L 12.6308,-17.2248 L 12.9284,-17.5042 L 13.2586,-17.7441 L 13.6162,-17.9407 L 13.9957,-18.0909 L 14.391,-18.1924
 L 14.7959,-18.2436 L 15.2041,-18.2436 L 15.609,-18.1924 L 16.0043,-18.0909 L 16.3838,-17.9407 L 16.7414,-17.7441
 L 17.0716,-17.5042 L 17.3691,-17.2248 L 17.6293,-16.9103 L 17.848,-16.5657 L 18.0218,-16.1964 L 18.1479,-15.8082
 L 18.2244,-15.4073 L 18.25,-15 L 18.2244,-14.5927 L 18.1479,-14.1918 L 18.0218,-13.8036 L 17.848,-13.4343
 L 17.6293,-13.0897 L 17.3691,-12.7752 L 17.0716,-12.4958 L 16.7414,-12.2559 L 16.3838,-12.0593 L 16.0043,-11.9091
 L 15.609,-11.8076 L 15.2041,-11.7564 z
M 29.7959,-11.7564 L 29.391,-11.8076 L 28.9957,-11.9091 L 28.6162,-12.0593 L 28.2586,-12.2559 L 27.9284,-12.4958
 L 27.6308,-12.7752 L 27.3707,-13.0897 L 27.152,-13.4343 L 26.9782,-13.8036 L 26.8521,-14.1918 L 26.7756,-14.5927
 L 26.75,-15 L 26.7756,-15.4073 L 26.8521,-15.8082 L 26.9782,-16.1964 L 27.152,-16.5657 L 27.3707,-16.9103
 L 27.6308,-17.2248 L 27.9284,-17.5042 L 28.2586,-17.7441 L 28.6162,-17.9407 L 28.9957,-18.0909 L 29.391,-18.1924
 L 29.7959,-18.2436 L 30.2041,-18.2436 L 30.609,-18.1924 L 31.0043,-18.0909 L 31.3838,-17.9407 L 31.7414,-17.7441
 L 32.0716,-17.5042 L 32.3691,-17.2248 L 32.6293,-16.9103 L 32.848,-16.5657 L 33.0218,-16.1964 L 33.1479,-15.8082
 L 33.2244,-15.4073 L 33.25,-15 L 33.2244,-14.5927 L 33.1479,-14.1918 L 33.0218,-13.8036 L 32.848,-13.4343
 L 32.6293,-13.0897 L 32.3691,-12.7752 L 32.0716,-12.4958 L 31.7414,-12.2559 L 31.3838,-12.0593 L 31.0043,-11.9091
 L 30.609,-11.8076 L 30.2041,-11.7564 z
M 44.7959,-11.7564 L 44.391,-11.8076 L 43.9957,-11.9091 L 43.6162,-12.0593 L 43.2586,-12.2559 L 42.9284,-12.4958
 L 42.6308,-12.7752 L 42.3707,-13.0897 L 42.152,-13.4343 L 41.9782,-13.8036 L 41.8521,-14.1918 L 41.7756,-14.5927
 L 41.75,-15 L 41.7756,-15.4073 L 41.8521,-15.8082 L 41.9782,-16.1964 L 42.152,-16.5657 L 42.3707,-16.9103
 L 42.6308,-17.2248 L 42.9284,-17.5042 L 43.2586,-17.7441 L 43.6162,-17.9407 L 43.9957,-18.0909 L 44.391,-18.1924
 L 44.7959,-18.2436 L 45.2041,-18.2436 L 45.609,-18.1924 L 46.0043,-18.0909 L 46.3838,-17.9407 L 46.7414,-17.7441
 L 47.0716,-17.5042 L 47.3691,-17.2248 L 47.6293,-16.9103 L 47.848,-16.5657 L 48.0218,-16.1964 L 48.1479,-15.8082
 L 48.2244,-15.4073 L 48.25,-15 L 48.2244,-14.5927 L 48.1479,-14.1918 L 48.0218,-13.8036 L 47.848,-13.4343
 L 47.6293,-13.0897 L 47.3691,-12.7752 L 47.0716,-12.4958 L 46.7414,-12.2559 L 46.3838,-12.0593 L 46.0043,-11.9091
 L 45.609,-11.8076 L 45.2041,-11.7564 z
" stroke="black" fill="lightgray" stroke-width="0.5"/>
</svg>
