  0
SECTION
  2
HEADER
  9
$ACADVER
  1
AC1021
  9
$ACADMAINTVER
 70
    25
  9
$DWGCODEPAGE
  3
ANSI_1252
  9
$INSBASE
 10
0.0
 20
0.0
 30
0.0
  9
$EXTMIN
 10
-13.17824
 20
-19.52827
 30
0.0
  9
$EXTMAX
 10
-7.82175
 20
-10.17173
 30
0.0
  9
$LIMMIN
 10
0.0
 20
0.0
  9
$LIMMAX
 10
12.0
 20
9.0
  9
$ORTHOMODE
 70
     0
  9
$REGENMODE
 70
     1
  9
$FILLMODE
 70
     1
  9
$QTEXTMODE
 70
     0
  9
$MIRRTEXT
 70
     1
  9
$LTSCALE
 40
1.0
  9
$ATTMODE
 70
     1
  9
$TEXTSIZE
 40
0.2
  9
$TRACEWID
 40
0.05
  9
$TEXTSTYLE
  7
Standard
  9
$CLAYER
  8
0
  9
$CELTYPE
  6
ByLayer
  9
$CECOLOR
 62
   256
  9
$CELTSCALE
 40
1.0
  9
$DISPSILH
 70
     0
  9
$DIMSCALE
 40
1.0
  9
$DIMASZ
 40
0.18
  9
$DIMEXO
 40
0.0625
  9
$DIMDLI
 40
0.38
  9
$DIMRND
 40
0.0
  9
$DIMDLE
 40
0.0
  9
$DIMEXE
 40
0.18
  9
$DIMTP
 40
0.0
  9
$DIMTM
 40
0.0
  9
$DIMTXT
 40
0.18
  9
$DIMCEN
 40
0.09
  9
$DIMTSZ
 40
0.0
  9
$DIMTOL
 70
     0
  9
$DIMLIM
 70
     0
  9
$DIMTIH
 70
     1
  9
$DIMTOH
 70
     1
  9
$DIMSE1
 70
     0
  9
$DIMSE2
 70
     0
  9
$DIMTAD
 70
     0
  9
$DIMZIN
 70
     0
  9
$DIMBLK
  1

  9
$DIMASO
 70
     1
  9
$DIMSHO
 70
     1
  9
$DIMPOST
  1

  9
$DIMAPOST
  1

  9
$DIMALT
 70
     0
  9
$DIMALTD
 70
     2
  9
$DIMALTF
 40
25.4
  9
$DIMLFAC
 40
1.0
  9
$DIMTOFL
 70
     0
  9
$DIMTVP
 40
0.0
  9
$DIMTIX
 70
     0
  9
$DIMSOXD
 70
     0
  9
$DIMSAH
 70
     0
  9
$DIMBLK1
  1

  9
$DIMBLK2
  1

  9
$DIMSTYLE
  2
Standard
  9
$DIMCLRD
 70
     0
  9
$DIMCLRE
 70
     0
  9
$DIMCLRT
 70
     0
  9
$DIMTFAC
 40
1.0
  9
$DIMGAP
 40
0.09
  9
$DIMJUST
 70
     0
  9
$DIMSD1
 70
     0
  9
$DIMSD2
 70
     0
  9
$DIMTOLJ
 70
     1
  9
$DIMTZIN
 70
     0
  9
$DIMALTZ
 70
     0
  9
$DIMALTTZ
 70
     0
  9
$DIMUPT
 70
     0
  9
$DIMDEC
 70
     4
  9
$DIMTDEC
 70
     4
  9
$DIMALTU
 70
     2
  9
$DIMALTTD
 70
     2
  9
$DIMTXSTY
  7
Standard
  9
$DIMAUNIT
 70
     0
  9
$DIMADEC
 70
     0
  9
$DIMALTRND
 40
0.0
  9
$DIMAZIN
 70
     0
  9
$DIMDSEP
 70
    46
  9
$DIMATFIT
 70
     3
  9
$DIMFRAC
 70
     0
  9
$DIMLDRBLK
  1

  9
$DIMLUNIT
 70
     2
  9
$DIMLWD
 70
    -2
  9
$DIMLWE
 70
    -2
  9
$DIMTMOVE
 70
     0
  9
$DIMFXL
 40
1.0
  9
$DIMFXLON
 70
     0
  9
$DIMJOGANG
 40
0.7853981633974483
  9
$DIMTFILL
 70
     0
  9
$DIMTFILLCLR
 70
     0
  9
$DIMARCSYM
 70
     0
  9
$DIMLTYPE
  6

  9
$DIMLTEX1
  6

  9
$DIMLTEX2
  6

  9
$LUNITS
 70
     2
  9
$LUPREC
 70
     4
  9
$SKETCHINC
 40
0.1
  9
$FILLETRAD
 40
0.5
  9
$AUNITS
 70
     0
  9
$AUPREC
 70
     0
  9
$MENU
  1
.
  9
$ELEVATION
 40
0.0
  9
$PELEVATION
 40
0.0
  9
$THICKNESS
 40
0.0
  9
$LIMCHECK
 70
     0
  9
$CHAMFERA
 40
0.5
  9
$CHAMFERB
 40
0.5
  9
$CHAMFERC
 40
1.0
  9
$CHAMFERD
 40
0.0
  9
$SKPOLY
 70
     0
  9
$TDCREATE
 40
2456972.69278353
  9
$TDUCREATE
 40
2456972.69278353
  9
$TDUPDATE
 40
2456972.692783542
  9
$TDUUPDATE
 40
2456972.692783542
  9
$TDINDWG
 40
0.0000000116
  9
$TDUSRTIMER
 40
0.0000000116
  9
$USRTIMER
 70
     1
  9
$ANGBASE
 50
0.0
  9
$ANGDIR
 70
     0
  9
$PDMODE
 70
     0
  9
$PDSIZE
 40
0.0
  9
$PLINEWID
 40
0.0
  9
$SPLFRAME
 70
     0
  9
$SPLINETYPE
 70
     6
  9
$SPLINESEGS
 70
     8
  9
$HANDSEED
  5
97
  9
$SURFTAB1
 70
     6
  9
$SURFTAB2
 70
     6
  9
$SURFTYPE
 70
     6
  9
$SURFU
 70
     6
  9
$SURFV
 70
     6
  9
$UCSBASE
  2

  9
$UCSNAME
  2

  9
$UCSORG
 10
0.0
 20
0.0
 30
0.0
  9
$UCSXDIR
 10
1.0
 20
0.0
 30
0.0
  9
$UCSYDIR
 10
0.0
 20
1.0
 30
0.0
  9
$UCSORTHOREF
  2

  9
$UCSORTHOVIEW
 70
     0
  9
$UCSORGTOP
 10
0.0
 20
0.0
 30
0.0
  9
$UCSORGBOTTOM
 10
0.0
 20
0.0
 30
0.0
  9
$UCSORGLEFT
 10
0.0
 20
0.0
 30
0.0
  9
$UCSORGRIGHT
 10
0.0
 20
0.0
 30
0.0
  9
$UCSORGFRONT
 10
0.0
 20
0.0
 30
0.0
  9
$UCSORGBACK
 10
0.0
 20
0.0
 30
0.0
  9
$PUCSBASE
  2

  9
$PUCSNAME
  2

  9
$PUCSORG
 10
0.0
 20
0.0
 30
0.0
  9
$PUCSXDIR
 10
1.0
 20
0.0
 30
0.0
  9
$PUCSYDIR
 10
0.0
 20
1.0
 30
0.0
  9
$PUCSORTHOREF
  2

  9
$PUCSORTHOVIEW
 70
     0
  9
$PUCSORGTOP
 10
0.0
 20
0.0
 30
0.0
  9
$PUCSORGBOTTOM
 10
0.0
 20
0.0
 30
0.0
  9
$PUCSORGLEFT
 10
0.0
 20
0.0
 30
0.0
  9
$PUCSORGRIGHT
 10
0.0
 20
0.0
 30
0.0
  9
$PUCSORGFRONT
 10
0.0
 20
0.0
 30
0.0
  9
$PUCSORGBACK
 10
0.0
 20
0.0
 30
0.0
  9
$USERI1
 70
     0
  9
$USERI2
 70
     0
  9
$USERI3
 70
     0
  9
$USERI4
 70
     0
  9
$USERI5
 70
     0
  9
$USERR1
 40
0.0
  9
$USERR2
 40
0.0
  9
$USERR3
 40
0.0
  9
$USERR4
 40
0.0
  9
$USERR5
 40
0.0
  9
$WORLDVIEW
 70
     1
  9
$SHADEDGE
 70
     3
  9
$SHADEDIF
 70
    70
  9
$TILEMODE
 70
     1
  9
$MAXACTVP
 70
    64
  9
$PINSBASE
 10
0.0
 20
0.0
 30
0.0
  9
$PLIMCHECK
 70
     0
  9
$PEXTMIN
 10
1.000000000000000E+20
 20
1.000000000000000E+20
 30
1.000000000000000E+20
  9
$PEXTMAX
 10
-1.000000000000000E+20
 20
-1.000000000000000E+20
 30
-1.000000000000000E+20
  9
$PLIMMIN
 10
0.0
 20
0.0
  9
$PLIMMAX
 10
12.0
 20
9.0
  9
$UNITMODE
 70
     0
  9
$VISRETAIN
 70
     1
  9
$PLINEGEN
 70
     0
  9
$PSLTSCALE
 70
     1
  9
$TREEDEPTH
 70
  3020
  9
$CMLSTYLE
  2
Standard
  9
$CMLJUST
 70
     0
  9
$CMLSCALE
 40
1.0
  9
$PROXYGRAPHICS
 70
     1
  9
$MEASUREMENT
 70
     0
  9
$CELWEIGHT
370
    -1
  9
$ENDCAPS
280
     0
  9
$JOINSTYLE
280
     0
  9
$LWDISPLAY
290
     0
  9
$INSUNITS
 70
     5
  9
$HYPERLINKBASE
  1

  9
$STYLESHEET
  1

  9
$XEDIT
290
     1
  9
$CEPSNTYPE
380
     0
  9
$PSTYLEMODE
290
     1
  9
$FINGERPRINTGUID
  2
{42B79DC4-A24C-41DC-8DB4-B5BC20B1A2E0}
  9
$VERSIONGUID
  2
{FAEB1C32-E019-11D5-929B-00C0DF256EC4}
  9
$EXTNAMES
290
     1
  9
$PSVPSCALE
 40
0.0
  9
$OLESTARTUP
290
     0
  9
$SORTENTS
280
   127
  9
$INDEXCTL
280
     0
  9
$HIDETEXT
280
     1
  9
$XCLIPFRAME
290
     0
  9
$HALOGAP
280
     0
  9
$OBSCOLOR
 70
   257
  9
$OBSLTYPE
280
     0
  9
$INTERSECTIONDISPLAY
280
     0
  9
$INTERSECTIONCOLOR
 70
   257
  9
$DIMASSOC
280
     2
  9
$PROJECTNAME
  1

  9
$CAMERADISPLAY
290
     0
  9
$LENSLENGTH
 40
50.0
  9
$CAMERAHEIGHT
 40
0.0
  9
$STEPSPERSEC
 40
2.0
  9
$STEPSIZE
 40
6.0
  9
$3DDWFPREC
 40
2.0
  9
$PSOLWIDTH
 40
0.25
  9
$PSOLHEIGHT
 40
4.0
  9
$LOFTANG1
 40
1.570796326794897
  9
$LOFTANG2
 40
1.570796326794897
  9
$LOFTMAG1
 40
0.0
  9
$LOFTMAG2
 40
0.0
  9
$LOFTPARAM
 70
     7
  9
$LOFTNORMALS
280
     1
  9
$LATITUDE
 40
37.795
  9
$LONGITUDE
 40
-122.394
  9
$NORTHDIRECTION
 40
0.0
  9
$TIMEZONE
 70
 -8000
  9
$LIGHTGLYPHDISPLAY
280
     1
  9
$TILEMODELIGHTSYNCH
280
     1
  9
$SOLIDHIST
280
     1
  9
$SHOWHIST
280
     1
  9
$DWFFRAME
280
     2
  9
$DGNFRAME
280
     2
  9
$REALWORLDSCALE
290
     1
  9
$INTERFERECOLOR
 62
   256
  9
$CSHADOW
280
     0
  9
$SHADOWPLANELOCATION
 40
0.0
  0
ENDSEC
  0
SECTION
  2
CLASSES
  0
CLASS
  1
ACDBDICTIONARYWDFLT
  2
AcDbDictionaryWithDefault
  3
ObjectDBX Classes
 90
        0
 91
        3
280
     0
281
     0
  0
CLASS
  1
VISUALSTYLE
  2
AcDbVisualStyle
  3
ObjectDBX Classes
 90
     4095
 91
        3
280
     0
281
     0
  0
CLASS
  1
SCALE
  2
AcDbScale
  3
ObjectDBX Classes
 90
     1153
 91
        3
280
     0
281
     0
  0
ENDSEC
  0
SECTION
  2
TABLES
  0
TABLE
  2
VPORT
  5
8
330
0
100
AcDbSymbolTable
 70
     1
  0
VPORT
  5
29
330
8
100
AcDbSymbolTableRecord
100
AcDbViewportTableRecord
  2
*Active
 70
     0
 10
0.0
 20
0.0
 11
1.0
 21
1.0
 12
10.42990654205607
 22
4.5
 13
0.0
 23
0.0
 14
0.5
 24
0.5
 15
0.5
 25
0.5
 16
0.0
 26
0.0
 36
1.0
 17
0.0
 27
0.0
 37
0.0
 40
9.0
 41
1.972972972850329
 42
50.0
 43
0.0
 44
0.0
 50
0.0
 51
0.0
 71
     0
 72
   100
 73
     1
 74
     3
 75
     0
 76
     0
 77
     0
 78
     0
281
     0
 65
     1
110
0.0
120
0.0
130
0.0
111
1.0
121
0.0
131
0.0
112
0.0
122
1.0
132
0.0
 79
     0
146
0.0
 60
     3
 61
     5
292
     1
282
     1
141
0.0
142
0.0
 63
   256
  0
ENDTAB
  0
TABLE
  2
LTYPE
  5
5
330
0
100
AcDbSymbolTable
 70
     1
  0
LTYPE
  5
14
330
5
100
AcDbSymbolTableRecord
100
AcDbLinetypeTableRecord
  2
ByBlock
 70
     0
  3

 72
    65
 73
     0
 40
0.0
  0
LTYPE
  5
15
330
5
100
AcDbSymbolTableRecord
100
AcDbLinetypeTableRecord
  2
ByLayer
 70
     0
  3

 72
    65
 73
     0
 40
0.0
  0
LTYPE
  5
16
330
5
100
AcDbSymbolTableRecord
100
AcDbLinetypeTableRecord
  2
Continuous
 70
     0
  3
Solid line
 72
    65
 73
     0
 40
0.0
  0
ENDTAB
  0
TABLE
  2
LAYER
  5
2
330
0
100
AcDbSymbolTable
 70
     2
  0
LAYER
  5
10
330
2
100
AcDbSymbolTableRecord
100
AcDbLayerTableRecord
  2
0
 70
     0
 62
     7
  6
Continuous
370
    -3
390
F
347
0
  0
LAYER
  5
5E
330
2
100
AcDbSymbolTableRecord
100
AcDbLayerTableRecord
  2
Layer 1
 70
     0
 62
     7
  6
Continuous
370
    -3
390
F
347
0
  0
ENDTAB
  0
TABLE
  2
STYLE
  5
3
330
0
100
AcDbSymbolTable
 70
     1
  0
STYLE
  5
11
330
3
100
AcDbSymbolTableRecord
100
AcDbTextStyleTableRecord
  2
Standard
 70
     0
 40
0.0
 41
1.0
 50
0.0
 71
     0
 42
0.2
  3
txt
  4

  0
ENDTAB
  0
TABLE
  2
VIEW
  5
6
330
0
100
AcDbSymbolTable
 70
     0
  0
ENDTAB
  0
TABLE
  2
UCS
  5
7
330
0
100
AcDbSymbolTable
 70
     0
  0
ENDTAB
  0
TABLE
  2
APPID
  5
9
330
0
100
AcDbSymbolTable
 70
     2
  0
APPID
  5
12
330
9
100
AcDbSymbolTableRecord
100
AcDbRegAppTableRecord
  2
ACAD
 70
     0
  0
APPID
  5
5D
330
9
100
AcDbSymbolTableRecord
100
AcDbRegAppTableRecord
  2
ODA
 70
     0
  0
ENDTAB
  0
TABLE
  2
DIMSTYLE
  5
A
330
0
100
AcDbSymbolTable
 70
     1
100
AcDbDimStyleTable
  0
DIMSTYLE
105
27
330
A
100
AcDbSymbolTableRecord
100
AcDbDimStyleTableRecord
  2
Standard
 70
     0
340
11
  0
ENDTAB
  0
TABLE
  2
BLOCK_RECORD
  5
1
330
0
100
AcDbSymbolTable
 70
     1
  0
BLOCK_RECORD
  5
1F
330
1
100
AcDbSymbolTableRecord
100
AcDbBlockTableRecord
  2
*Model_Space
340
22
 70
     0
280
     1
281
     0
  0
BLOCK_RECORD
  5
1B
330
1
100
AcDbSymbolTableRecord
100
AcDbBlockTableRecord
  2
*Paper_Space
340
1E
 70
     0
280
     1
281
     0
  0
BLOCK_RECORD
  5
23
330
1
100
AcDbSymbolTableRecord
100
AcDbBlockTableRecord
  2
*Paper_Space0
340
26
 70
     0
280
     1
281
     0
  0
ENDTAB
  0
ENDSEC
  0
SECTION
  2
BLOCKS
  0
BLOCK
  5
20
330
1F
100
AcDbEntity
  8
0
100
AcDbBlockBegin
  2
*Model_Space
 70
     0
 10
0.0
 20
0.0
 30
0.0
  3
*Model_Space
  1

  0
ENDBLK
  5
21
330
1F
100
AcDbEntity
  8
0
100
AcDbBlockEnd
  0
BLOCK
  5
1C
330
1B
100
AcDbEntity
 67
     1
  8
0
100
AcDbBlockBegin
  2
*Paper_Space
 70
     0
 10
0.0
 20
0.0
 30
0.0
  3
*Paper_Space
  1

  0
ENDBLK
  5
1D
330
1B
100
AcDbEntity
 67
     1
  8
0
100
AcDbBlockEnd
  0
BLOCK
  5
24
330
23
100
AcDbEntity
  8
0
100
AcDbBlockBegin
  2
*Paper_Space0
 70
     0
 10
0.0
 20
0.0
 30
0.0
  3
*Paper_Space0
  1

  0
ENDBLK
  5
25
330
23
100
AcDbEntity
  8
0
100
AcDbBlockEnd
  0
ENDSEC
  0
SECTION
  2
ENTITIES
  0
SPLINE
  5
5F
330
1F
100
AcDbEntity
  8
Layer 1
 62
   250
370
    53
100
AcDbSpline
210
0.0
220
0.0
230
1.0
 70
    11
 71
     3
 72
    20
 73
    16
 74
     0
 42
0.0000000001
 43
0.0000000001
 40
0.0
 40
0.0
 40
0.0
 40
0.0
 40
0.25
 40
0.25
 40
0.25
 40
0.25
 40
0.5
 40
0.5
 40
0.5
 40
0.5
 40
0.75
 40
0.75
 40
0.75
 40
0.75
 40
1.0
 40
1.0
 40
1.0
 40
1.0
 10
-10.5
 20
-13.9
 30
0.0
 10
-9.97541
 20
-13.9
 30
0.0
 10
-9.55
 20
-14.32541
 30
0.0
 10
-9.55
 20
-14.85
 30
0.0
 10
-9.55
 20
-14.85
 30
0.0
 10
-9.55
 20
-15.37459
 30
0.0
 10
-9.97541
 20
-15.8
 30
0.0
 10
-10.5
 20
-15.8
 30
0.0
 10
-10.5
 20
-15.8
 30
0.0
 10
-11.02459
 20
-15.8
 30
0.0
 10
-11.45
 20
-15.37459
 30
0.0
 10
-11.45
 20
-14.85
 30
0.0
 10
-11.45
 20
-14.85
 30
0.0
 10
-11.45
 20
-14.32541
 30
0.0
 10
-11.02459
 20
-13.9
 30
0.0
 10
-10.5
 20
-13.9
 30
0.0
  0
SPLINE
  5
60
330
1F
100
AcDbEntity
  8
Layer 1
370
    53
100
AcDbSpline
210
0.0
220
0.0
230
1.0
 70
    11
 71
     3
 72
    20
 73
    16
 74
     0
 42
0.0000000001
 43
0.0000000001
 40
0.0
 40
0.0
 40
0.0
 40
0.0
 40
0.25
 40
0.25
 40
0.25
 40
0.25
 40
0.5
 40
0.5
 40
0.5
 40
0.5
 40
0.75
 40
0.75
 40
0.75
 40
0.75
 40
1.0
 40
1.0
 40
1.0
 40
1.0
 10
-12.2
 20
-16.85
 30
0.0
 10
-12.2
 20
-17.01567
 30
0.0
 10
-12.33423
 20
-17.15
 30
0.0
 10
-12.50001
 20
-17.15
 30
0.0
 10
-12.50001
 20
-17.15
 30
0.0
 10
-12.66567
 20
-17.15
 30
0.0
 10
-12.80001
 20
-17.01567
 30
0.0
 10
-12.80001
 20
-16.85
 30
0.0
 10
-12.80001
 20
-16.85
 30
0.0
 10
-12.80001
 20
-16.68437
 30
0.0
 10
-12.66567
 20
-16.55
 30
0.0
 10
-12.50001
 20
-16.55
 30
0.0
 10
-12.50001
 20
-16.55
 30
0.0
 10
-12.33423
 20
-16.55
 30
0.0
 10
-12.2
 20
-16.68437
 30
0.0
 10
-12.2
 20
-16.85
 30
0.0
  0
SPLINE
  5
61
330
1F
100
AcDbEntity
  8
Layer 1
370
    53
100
AcDbSpline
210
0.0
220
0.0
230
1.0
 70
    11
 71
     3
 72
    20
 73
    16
 74
     0
 42
0.0000000001
 43
0.0000000001
 40
0.0
 40
0.0
 40
0.0
 40
0.0
 40
0.25
 40
0.25
 40
0.25
 40
0.25
 40
0.5
 40
0.5
 40
0.5
 40
0.5
 40
0.75
 40
0.75
 40
0.75
 40
0.75
 40
1.0
 40
1.0
 40
1.0
 40
1.0
 10
-12.2
 20
-14.85007
 30
0.0
 10
-12.2
 20
-15.0157
 30
0.0
 10
-12.33423
 20
-15.15007
 30
0.0
 10
-12.50001
 20
-15.15007
 30
0.0
 10
-12.50001
 20
-15.15007
 30
0.0
 10
-12.66567
 20
-15.15007
 30
0.0
 10
-12.80001
 20
-15.0157
 30
0.0
 10
-12.80001
 20
-14.85007
 30
0.0
 10
-12.80001
 20
-14.85007
 30
0.0
 10
-12.80001
 20
-14.6843
 30
0.0
 10
-12.66567
 20
-14.55007
 30
0.0
 10
-12.50001
 20
-14.55007
 30
0.0
 10
-12.50001
 20
-14.55007
 30
0.0
 10
-12.33423
 20
-14.55007
 30
0.0
 10
-12.2
 20
-14.6843
 30
0.0
 10
-12.2
 20
-14.85007
 30
0.0
  0
SPLINE
  5
62
330
1F
100
AcDbEntity
  8
Layer 1
370
    53
100
AcDbSpline
210
0.0
220
0.0
230
1.0
 70
    11
 71
     3
 72
    20
 73
    16
 74
     0
 42
0.0000000001
 43
0.0000000001
 40
0.0
 40
0.0
 40
0.0
 40
0.0
 40
0.25
 40
0.25
 40
0.25
 40
0.25
 40
0.5
 40
0.5
 40
0.5
 40
0.5
 40
0.75
 40
0.75
 40
0.75
 40
0.75
 40
1.0
 40
1.0
 40
1.0
 40
1.0
 10
-12.2
 20
-12.85
 30
0.0
 10
-12.2
 20
-13.01577
 30
0.0
 10
-12.33423
 20
-13.15
 30
0.0
 10
-12.50001
 20
-13.15
 30
0.0
 10
-12.50001
 20
-13.15
 30
0.0
 10
-12.66567
 20
-13.15
 30
0.0
 10
-12.80001
 20
-13.01577
 30
0.0
 10
-12.80001
 20
-12.85
 30
0.0
 10
-12.80001
 20
-12.85
 30
0.0
 10
-12.80001
 20
-12.68433
 30
0.0
 10
-12.66567
 20
-12.54999
 30
0.0
 10
-12.50001
 20
-12.54999
 30
0.0
 10
-12.50001
 20
-12.54999
 30
0.0
 10
-12.33423
 20
-12.54999
 30
0.0
 10
-12.2
 20
-12.68433
 30
0.0
 10
-12.2
 20
-12.85
 30
0.0
  0
SPLINE
  5
63
330
1F
100
AcDbEntity
  8
Layer 1
370
    53
100
AcDbSpline
210
0.0
220
0.0
230
1.0
 70
    11
 71
     3
 72
    20
 73
    16
 74
     0
 42
0.0000000001
 43
0.0000000001
 40
0.0
 40
0.0
 40
0.0
 40
0.0
 40
0.25
 40
0.25
 40
0.25
 40
0.25
 40
0.5
 40
0.5
 40
0.5
 40
0.5
 40
0.75
 40
0.75
 40
0.75
 40
0.75
 40
1.0
 40
1.0
 40
1.0
 40
1.0
 10
-10.19993
 20
-16.85
 30
0.0
 10
-10.19993
 20
-17.01567
 30
0.0
 10
-10.3343
 20
-17.15
 30
0.0
 10
-10.49993
 20
-17.15
 30
0.0
 10
-10.49993
 20
-17.15
 30
0.0
 10
-10.6657
 20
-17.15
 30
0.0
 10
-10.79993
 20
-17.01567
 30
0.0
 10
-10.79993
 20
-16.85
 30
0.0
 10
-10.79993
 20
-16.85
 30
0.0
 10
-10.79993
 20
-16.68437
 30
0.0
 10
-10.6657
 20
-16.55
 30
0.0
 10
-10.49993
 20
-16.55
 30
0.0
 10
-10.49993
 20
-16.55
 30
0.0
 10
-10.3343
 20
-16.55
 30
0.0
 10
-10.19993
 20
-16.68437
 30
0.0
 10
-10.19993
 20
-16.85
 30
0.0
  0
SPLINE
  5
64
330
1F
100
AcDbEntity
  8
Layer 1
370
    53
100
AcDbSpline
210
0.0
220
0.0
230
1.0
 70
    11
 71
     3
 72
    20
 73
    16
 74
     0
 42
0.0000000001
 43
0.0000000001
 40
0.0
 40
0.0
 40
0.0
 40
0.0
 40
0.25
 40
0.25
 40
0.25
 40
0.25
 40
0.5
 40
0.5
 40
0.5
 40
0.5
 40
0.75
 40
0.75
 40
0.75
 40
0.75
 40
1.0
 40
1.0
 40
1.0
 40
1.0
 10
-10.19993
 20
-12.85
 30
0.0
 10
-10.19993
 20
-13.01577
 30
0.0
 10
-10.3343
 20
-13.15
 30
0.0
 10
-10.49993
 20
-13.15
 30
0.0
 10
-10.49993
 20
-13.15
 30
0.0
 10
-10.6657
 20
-13.15
 30
0.0
 10
-10.79993
 20
-13.01577
 30
0.0
 10
-10.79993
 20
-12.85
 30
0.0
 10
-10.79993
 20
-12.85
 30
0.0
 10
-10.79993
 20
-12.68433
 30
0.0
 10
-10.6657
 20
-12.54999
 30
0.0
 10
-10.49993
 20
-12.54999
 30
0.0
 10
-10.49993
 20
-12.54999
 30
0.0
 10
-10.3343
 20
-12.54999
 30
0.0
 10
-10.19993
 20
-12.68433
 30
0.0
 10
-10.19993
 20
-12.85
 30
0.0
  0
SPLINE
  5
65
330
1F
100
AcDbEntity
  8
Layer 1
370
    53
100
AcDbSpline
210
0.0
220
0.0
230
1.0
 70
    11
 71
     3
 72
    20
 73
    16
 74
     0
 42
0.0000000001
 43
0.0000000001
 40
0.0
 40
0.0
 40
0.0
 40
0.0
 40
0.25
 40
0.25
 40
0.25
 40
0.25
 40
0.5
 40
0.5
 40
0.5
 40
0.5
 40
0.75
 40
0.75
 40
0.75
 40
0.75
 40
1.0
 40
1.0
 40
1.0
 40
1.0
 10
-8.2
 20
-16.85
 30
0.0
 10
-8.2
 20
-17.01567
 30
0.0
 10
-8.33433
 20
-17.15
 30
0.0
 10
-8.5
 20
-17.15
 30
0.0
 10
-8.5
 20
-17.15
 30
0.0
 10
-8.66563
 20
-17.15
 30
0.0
 10
-8.8
 20
-17.01567
 30
0.0
 10
-8.8
 20
-16.85
 30
0.0
 10
-8.8
 20
-16.85
 30
0.0
 10
-8.8
 20
-16.68437
 30
0.0
 10
-8.66563
 20
-16.55
 30
0.0
 10
-8.5
 20
-16.55
 30
0.0
 10
-8.5
 20
-16.55
 30
0.0
 10
-8.33433
 20
-16.55
 30
0.0
 10
-8.2
 20
-16.68437
 30
0.0
 10
-8.2
 20
-16.85
 30
0.0
  0
SPLINE
  5
66
330
1F
100
AcDbEntity
  8
Layer 1
370
    53
100
AcDbSpline
210
0.0
220
0.0
230
1.0
 70
    11
 71
     3
 72
    20
 73
    16
 74
     0
 42
0.0000000001
 43
0.0000000001
 40
0.0
 40
0.0
 40
0.0
 40
0.0
 40
0.25
 40
0.25
 40
0.25
 40
0.25
 40
0.5
 40
0.5
 40
0.5
 40
0.5
 40
0.75
 40
0.75
 40
0.75
 40
0.75
 40
1.0
 40
1.0
 40
1.0
 40
1.0
 10
-8.2
 20
-14.85007
 30
0.0
 10
-8.2
 20
-15.0157
 30
0.0
 10
-8.33433
 20
-15.15007
 30
0.0
 10
-8.5
 20
-15.15007
 30
0.0
 10
-8.5
 20
-15.15007
 30
0.0
 10
-8.66563
 20
-15.15007
 30
0.0
 10
-8.8
 20
-15.0157
 30
0.0
 10
-8.8
 20
-14.85007
 30
0.0
 10
-8.8
 20
-14.85007
 30
0.0
 10
-8.8
 20
-14.6843
 30
0.0
 10
-8.66563
 20
-14.55007
 30
0.0
 10
-8.5
 20
-14.55007
 30
0.0
 10
-8.5
 20
-14.55007
 30
0.0
 10
-8.33433
 20
-14.55007
 30
0.0
 10
-8.2
 20
-14.6843
 30
0.0
 10
-8.2
 20
-14.85007
 30
0.0
  0
SPLINE
  5
67
330
1F
100
AcDbEntity
  8
Layer 1
370
    53
100
AcDbSpline
210
0.0
220
0.0
230
1.0
 70
    11
 71
     3
 72
    20
 73
    16
 74
     0
 42
0.0000000001
 43
0.0000000001
 40
0.0
 40
0.0
 40
0.0
 40
0.0
 40
0.25
 40
0.25
 40
0.25
 40
0.25
 40
0.5
 40
0.5
 40
0.5
 40
0.5
 40
0.75
 40
0.75
 40
0.75
 40
0.75
 40
1.0
 40
1.0
 40
1.0
 40
1.0
 10
-8.2
 20
-12.85
 30
0.0
 10
-8.2
 20
-13.01577
 30
0.0
 10
-8.33433
 20
-13.15
 30
0.0
 10
-8.5
 20
-13.15
 30
0.0
 10
-8.5
 20
-13.15
 30
0.0
 10
-8.66563
 20
-13.15
 30
0.0
 10
-8.8
 20
-13.01577
 30
0.0
 10
-8.8
 20
-12.85
 30
0.0
 10
-8.8
 20
-12.85
 30
0.0
 10
-8.8
 20
-12.68433
 30
0.0
 10
-8.66563
 20
-12.54999
 30
0.0
 10
-8.5
 20
-12.54999
 30
0.0
 10
-8.5
 20
-12.54999
 30
0.0
 10
-8.33433
 20
-12.54999
 30
0.0
 10
-8.2
 20
-12.68433
 30
0.0
 10
-8.2
 20
-12.85
 30
0.0
  0
SPLINE
  5
68
330
1F
100
AcDbEntity
  8
Layer 1
370
    53
100
AcDbSpline
210
0.0
220
0.0
230
1.0
 70
    11
 71
     3
 72
    20
 73
    16
 74
     0
 42
0.0000000001
 43
0.0000000001
 40
0.0
 40
0.0
 40
0.0
 40
0.0
 40
0.25
 40
0.25
 40
0.25
 40
0.25
 40
0.5
 40
0.5
 40
0.5
 40
0.5
 40
0.75
 40
0.75
 40
0.75
 40
0.75
 40
1.0
 40
1.0
 40
1.0
 40
1.0
 10
-12.64994
 20
-15.54998
 30
0.0
 10
-12.64994
 20
-15.54998
 30
0.0
 10
-12.34993
 20
-15.54998
 30
0.0
 10
-12.34993
 20
-15.54998
 30
0.0
 10
-12.34993
 20
-15.54998
 30
0.0
 10
-12.34993
 20
-15.54998
 30
0.0
 10
-12.34993
 20
-16.14998
 30
0.0
 10
-12.34993
 20
-16.14998
 30
0.0
 10
-12.34993
 20
-16.14998
 30
0.0
 10
-12.34993
 20
-16.14998
 30
0.0
 10
-12.64994
 20
-16.14998
 30
0.0
 10
-12.64994
 20
-16.14998
 30
0.0
 10
-12.64994
 20
-16.14998
 30
0.0
 10
-12.64994
 20
-16.14998
 30
0.0
 10
-12.64994
 20
-15.54998
 30
0.0
 10
-12.64994
 20
-15.54998
 30
0.0
  0
SPLINE
  5
69
330
1F
100
AcDbEntity
  8
Layer 1
370
    53
100
AcDbSpline
210
0.0
220
0.0
230
1.0
 70
    11
 71
     3
 72
    20
 73
    16
 74
     0
 42
0.0000000001
 43
0.0000000001
 40
0.0
 40
0.0
 40
0.0
 40
0.0
 40
0.25
 40
0.25
 40
0.25
 40
0.25
 40
0.5
 40
0.5
 40
0.5
 40
0.5
 40
0.75
 40
0.75
 40
0.75
 40
0.75
 40
1.0
 40
1.0
 40
1.0
 40
1.0
 10
-12.64994
 20
-13.55001
 30
0.0
 10
-12.64994
 20
-13.55001
 30
0.0
 10
-12.34993
 20
-13.55001
 30
0.0
 10
-12.34993
 20
-13.55001
 30
0.0
 10
-12.34993
 20
-13.55001
 30
0.0
 10
-12.34993
 20
-13.55001
 30
0.0
 10
-12.34993
 20
-14.15002
 30
0.0
 10
-12.34993
 20
-14.15002
 30
0.0
 10
-12.34993
 20
-14.15002
 30
0.0
 10
-12.34993
 20
-14.15002
 30
0.0
 10
-12.64994
 20
-14.15002
 30
0.0
 10
-12.64994
 20
-14.15002
 30
0.0
 10
-12.64994
 20
-14.15002
 30
0.0
 10
-12.64994
 20
-14.15002
 30
0.0
 10
-12.64994
 20
-13.55001
 30
0.0
 10
-12.64994
 20
-13.55001
 30
0.0
  0
SPLINE
  5
6A
330
1F
100
AcDbEntity
  8
Layer 1
370
    53
100
AcDbSpline
210
0.0
220
0.0
230
1.0
 70
    11
 71
     3
 72
    20
 73
    16
 74
     0
 42
0.0000000001
 43
0.0000000001
 40
0.0
 40
0.0
 40
0.0
 40
0.0
 40
0.25
 40
0.25
 40
0.25
 40
0.25
 40
0.5
 40
0.5
 40
0.5
 40
0.5
 40
0.75
 40
0.75
 40
0.75
 40
0.75
 40
1.0
 40
1.0
 40
1.0
 40
1.0
 10
-8.65007
 20
-15.54998
 30
0.0
 10
-8.65007
 20
-15.54998
 30
0.0
 10
-8.35007
 20
-15.54998
 30
0.0
 10
-8.35007
 20
-15.54998
 30
0.0
 10
-8.35007
 20
-15.54998
 30
0.0
 10
-8.35007
 20
-15.54998
 30
0.0
 10
-8.35007
 20
-16.14998
 30
0.0
 10
-8.35007
 20
-16.14998
 30
0.0
 10
-8.35007
 20
-16.14998
 30
0.0
 10
-8.35007
 20
-16.14998
 30
0.0
 10
-8.65007
 20
-16.14998
 30
0.0
 10
-8.65007
 20
-16.14998
 30
0.0
 10
-8.65007
 20
-16.14998
 30
0.0
 10
-8.65007
 20
-16.14998
 30
0.0
 10
-8.65007
 20
-15.54998
 30
0.0
 10
-8.65007
 20
-15.54998
 30
0.0
  0
SPLINE
  5
6B
330
1F
100
AcDbEntity
  8
Layer 1
370
    53
100
AcDbSpline
210
0.0
220
0.0
230
1.0
 70
    11
 71
     3
 72
    20
 73
    16
 74
     0
 42
0.0000000001
 43
0.0000000001
 40
0.0
 40
0.0
 40
0.0
 40
0.0
 40
0.25
 40
0.25
 40
0.25
 40
0.25
 40
0.5
 40
0.5
 40
0.5
 40
0.5
 40
0.75
 40
0.75
 40
0.75
 40
0.75
 40
1.0
 40
1.0
 40
1.0
 40
1.0
 10
-8.65007
 20
-13.55001
 30
0.0
 10
-8.65007
 20
-13.55001
 30
0.0
 10
-8.35007
 20
-13.55001
 30
0.0
 10
-8.35007
 20
-13.55001
 30
0.0
 10
-8.35007
 20
-13.55001
 30
0.0
 10
-8.35007
 20
-13.55001
 30
0.0
 10
-8.35007
 20
-14.15002
 30
0.0
 10
-8.35007
 20
-14.15002
 30
0.0
 10
-8.35007
 20
-14.15002
 30
0.0
 10
-8.35007
 20
-14.15002
 30
0.0
 10
-8.65007
 20
-14.15002
 30
0.0
 10
-8.65007
 20
-14.15002
 30
0.0
 10
-8.65007
 20
-14.15002
 30
0.0
 10
-8.65007
 20
-14.15002
 30
0.0
 10
-8.65007
 20
-13.55001
 30
0.0
 10
-8.65007
 20
-13.55001
 30
0.0
  0
SPLINE
  5
6C
330
1F
100
AcDbEntity
  8
Layer 1
370
    53
100
AcDbSpline
210
0.0
220
0.0
230
1.0
 70
    11
 71
     3
 72
    20
 73
    16
 74
     0
 42
0.0000000001
 43
0.0000000001
 40
0.0
 40
0.0
 40
0.0
 40
0.0
 40
0.25
 40
0.25
 40
0.25
 40
0.25
 40
0.5
 40
0.5
 40
0.5
 40
0.5
 40
0.75
 40
0.75
 40
0.75
 40
0.75
 40
1.0
 40
1.0
 40
1.0
 40
1.0
 10
-11.79999
 20
-16.69993
 30
0.0
 10
-11.79999
 20
-16.69993
 30
0.0
 10
-11.19998
 20
-16.69993
 30
0.0
 10
-11.19998
 20
-16.69993
 30
0.0
 10
-11.19998
 20
-16.69993
 30
0.0
 10
-11.19998
 20
-16.69993
 30
0.0
 10
-11.19998
 20
-16.99993
 30
0.0
 10
-11.19998
 20
-16.99993
 30
0.0
 10
-11.19998
 20
-16.99993
 30
0.0
 10
-11.19998
 20
-16.99993
 30
0.0
 10
-11.79999
 20
-16.99993
 30
0.0
 10
-11.79999
 20
-16.99993
 30
0.0
 10
-11.79999
 20
-16.99993
 30
0.0
 10
-11.79999
 20
-16.99993
 30
0.0
 10
-11.79999
 20
-16.69993
 30
0.0
 10
-11.79999
 20
-16.69993
 30
0.0
  0
SPLINE
  5
6D
330
1F
100
AcDbEntity
  8
Layer 1
370
    53
100
AcDbSpline
210
0.0
220
0.0
230
1.0
 70
    11
 71
     3
 72
    20
 73
    16
 74
     0
 42
0.0000000001
 43
0.0000000001
 40
0.0
 40
0.0
 40
0.0
 40
0.0
 40
0.25
 40
0.25
 40
0.25
 40
0.25
 40
0.5
 40
0.5
 40
0.5
 40
0.5
 40
0.75
 40
0.75
 40
0.75
 40
0.75
 40
1.0
 40
1.0
 40
1.0
 40
1.0
 10
-11.79999
 20
-12.70006
 30
0.0
 10
-11.79999
 20
-12.70006
 30
0.0
 10
-11.19998
 20
-12.70006
 30
0.0
 10
-11.19998
 20
-12.70006
 30
0.0
 10
-11.19998
 20
-12.70006
 30
0.0
 10
-11.19998
 20
-12.70006
 30
0.0
 10
-11.19998
 20
-13.00007
 30
0.0
 10
-11.19998
 20
-13.00007
 30
0.0
 10
-11.19998
 20
-13.00007
 30
0.0
 10
-11.19998
 20
-13.00007
 30
0.0
 10
-11.79999
 20
-13.00007
 30
0.0
 10
-11.79999
 20
-13.00007
 30
0.0
 10
-11.79999
 20
-13.00007
 30
0.0
 10
-11.79999
 20
-13.00007
 30
0.0
 10
-11.79999
 20
-12.70006
 30
0.0
 10
-11.79999
 20
-12.70006
 30
0.0
  0
SPLINE
  5
6E
330
1F
100
AcDbEntity
  8
Layer 1
370
    53
100
AcDbSpline
210
0.0
220
0.0
230
1.0
 70
    11
 71
     3
 72
    20
 73
    16
 74
     0
 42
0.0000000001
 43
0.0000000001
 40
0.0
 40
0.0
 40
0.0
 40
0.0
 40
0.25
 40
0.25
 40
0.25
 40
0.25
 40
0.5
 40
0.5
 40
0.5
 40
0.5
 40
0.75
 40
0.75
 40
0.75
 40
0.75
 40
1.0
 40
1.0
 40
1.0
 40
1.0
 10
-9.80002
 20
-16.69993
 30
0.0
 10
-9.80002
 20
-16.69993
 30
0.0
 10
-9.20002
 20
-16.69993
 30
0.0
 10
-9.20002
 20
-16.69993
 30
0.0
 10
-9.20002
 20
-16.69993
 30
0.0
 10
-9.20002
 20
-16.69993
 30
0.0
 10
-9.20002
 20
-16.99993
 30
0.0
 10
-9.20002
 20
-16.99993
 30
0.0
 10
-9.20002
 20
-16.99993
 30
0.0
 10
-9.20002
 20
-16.99993
 30
0.0
 10
-9.80002
 20
-16.99993
 30
0.0
 10
-9.80002
 20
-16.99993
 30
0.0
 10
-9.80002
 20
-16.99993
 30
0.0
 10
-9.80002
 20
-16.99993
 30
0.0
 10
-9.80002
 20
-16.69993
 30
0.0
 10
-9.80002
 20
-16.69993
 30
0.0
  0
SPLINE
  5
6F
330
1F
100
AcDbEntity
  8
Layer 1
370
    53
100
AcDbSpline
210
0.0
220
0.0
230
1.0
 70
    11
 71
     3
 72
    20
 73
    16
 74
     0
 42
0.0000000001
 43
0.0000000001
 40
0.0
 40
0.0
 40
0.0
 40
0.0
 40
0.25
 40
0.25
 40
0.25
 40
0.25
 40
0.5
 40
0.5
 40
0.5
 40
0.5
 40
0.75
 40
0.75
 40
0.75
 40
0.75
 40
1.0
 40
1.0
 40
1.0
 40
1.0
 10
-9.80002
 20
-12.70006
 30
0.0
 10
-9.80002
 20
-12.70006
 30
0.0
 10
-9.20002
 20
-12.70006
 30
0.0
 10
-9.20002
 20
-12.70006
 30
0.0
 10
-9.20002
 20
-12.70006
 30
0.0
 10
-9.20002
 20
-12.70006
 30
0.0
 10
-9.20002
 20
-13.00007
 30
0.0
 10
-9.20002
 20
-13.00007
 30
0.0
 10
-9.20002
 20
-13.00007
 30
0.0
 10
-9.20002
 20
-13.00007
 30
0.0
 10
-9.80002
 20
-13.00007
 30
0.0
 10
-9.80002
 20
-13.00007
 30
0.0
 10
-9.80002
 20
-13.00007
 30
0.0
 10
-9.80002
 20
-13.00007
 30
0.0
 10
-9.80002
 20
-12.70006
 30
0.0
 10
-9.80002
 20
-12.70006
 30
0.0
  0
SPLINE
  5
70
330
1F
100
AcDbEntity
  8
Layer 1
 62
    30
370
    53
100
AcDbSpline
210
0.0
220
0.0
230
1.0
 70
    11
 71
     3
 72
   164
 73
   160
 74
     0
 42
0.0000000001
 43
0.0000000001
 40
0.0
 40
0.0
 40
0.0
 40
0.0
 40
0.025
 40
0.025
 40
0.025
 40
0.025
 40
0.05
 40
0.05
 40
0.05
 40
0.05
 40
0.075
 40
0.075
 40
0.075
 40
0.075
 40
0.1
 40
0.1
 40
0.1
 40
0.1
 40
0.125
 40
0.125
 40
0.125
 40
0.125
 40
0.15
 40
0.15
 40
0.15
 40
0.15
 40
0.175
 40
0.175
 40
0.175
 40
0.175
 40
0.2
 40
0.2
 40
0.2
 40
0.2
 40
0.225
 40
0.225
 40
0.225
 40
0.225
 40
0.25
 40
0.25
 40
0.25
 40
0.25
 40
0.275
 40
0.275
 40
0.275
 40
0.275
 40
0.3
 40
0.3
 40
0.3
 40
0.3
 40
0.325
 40
0.325
 40
0.325
 40
0.325
 40
0.35
 40
0.35
 40
0.35
 40
0.35
 40
0.3750000000000001
 40
0.3750000000000001
 40
0.3750000000000001
 40
0.3750000000000001
 40
0.4000000000000001
 40
0.4000000000000001
 40
0.4000000000000001
 40
0.4000000000000001
 40
0.4250000000000001
 40
0.4250000000000001
 40
0.4250000000000001
 40
0.4250000000000001
 40
0.4500000000000001
 40
0.4500000000000001
 40
0.4500000000000001
 40
0.4500000000000001
 40
0.4750000000000001
 40
0.4750000000000001
 40
0.4750000000000001
 40
0.4750000000000001
 40
0.5000000000000001
 40
0.5000000000000001
 40
0.5000000000000001
 40
0.5000000000000001
 40
0.5250000000000001
 40
0.5250000000000001
 40
0.5250000000000001
 40
0.5250000000000001
 40
0.5500000000000002
 40
0.5500000000000002
 40
0.5500000000000002
 40
0.5500000000000002
 40
0.5750000000000002
 40
0.5750000000000002
 40
0.5750000000000002
 40
0.5750000000000002
 40
0.6000000000000002
 40
0.6000000000000002
 40
0.6000000000000002
 40
0.6000000000000002
 40
0.6250000000000002
 40
0.6250000000000002
 40
0.6250000000000002
 40
0.6250000000000002
 40
0.6500000000000002
 40
0.6500000000000002
 40
0.6500000000000002
 40
0.6500000000000002
 40
0.6750000000000003
 40
0.6750000000000003
 40
0.6750000000000003
 40
0.6750000000000003
 40
0.7000000000000003
 40
0.7000000000000003
 40
0.7000000000000003
 40
0.7000000000000003
 40
0.7250000000000003
 40
0.7250000000000003
 40
0.7250000000000003
 40
0.7250000000000003
 40
0.7500000000000003
 40
0.7500000000000003
 40
0.7500000000000003
 40
0.7500000000000003
 40
0.7750000000000004
 40
0.7750000000000004
 40
0.7750000000000004
 40
0.7750000000000004
 40
0.8000000000000004
 40
0.8000000000000004
 40
0.8000000000000004
 40
0.8000000000000004
 40
0.8250000000000004
 40
0.8250000000000004
 40
0.8250000000000004
 40
0.8250000000000004
 40
0.8500000000000004
 40
0.8500000000000004
 40
0.8500000000000004
 40
0.8500000000000004
 40
0.8750000000000004
 40
0.8750000000000004
 40
0.8750000000000004
 40
0.8750000000000004
 40
0.9000000000000005
 40
0.9000000000000005
 40
0.9000000000000005
 40
0.9000000000000005
 40
0.9250000000000005
 40
0.9250000000000005
 40
0.9250000000000005
 40
0.9250000000000005
 40
0.9500000000000005
 40
0.9500000000000005
 40
0.9500000000000005
 40
0.9500000000000005
 40
0.9750000000000005
 40
0.9750000000000005
 40
0.9750000000000005
 40
0.9750000000000005
 40
1.0
 40
1.0
 40
1.0
 40
1.0
 10
-12.06826
 20
-16.24636
 30
0.0
 10
-12.06826
 20
-16.24636
 30
0.0
 10
-11.951
 20
-16.24636
 30
0.0
 10
-11.951
 20
-16.24636
 30
0.0
 10
-11.951
 20
-16.24636
 30
0.0
 10
-11.93576
 20
-16.24629
 30
0.0
 10
-11.92278
 20
-16.24418
 30
0.0
 10
-11.91184
 20
-16.24001
 30
0.0
 10
-11.91184
 20
-16.24001
 30
0.0
 10
-11.90097
 20
-16.23592
 30
0.0
 10
-11.89216
 20
-16.23035
 30
0.0
 10
-11.88531
 20
-16.22336
 30
0.0
 10
-11.88531
 20
-16.22336
 30
0.0
 10
-11.87847
 20
-16.21638
 30
0.0
 10
-11.87353
 20
-16.20848
 30
0.0
 10
-11.87042
 20
-16.19973
 30
0.0
 10
-11.87042
 20
-16.19973
 30
0.0
 10
-11.86739
 20
-16.19105
 30
0.0
 10
-11.86598
 20
-16.18202
 30
0.0
 10
-11.86633
 20
-16.17271
 30
0.0
 10
-11.86633
 20
-16.17271
 30
0.0
 10
-11.86676
 20
-16.16339
 30
0.0
 10
-11.86873
 20
-16.15436
 30
0.0
 10
-11.87226
 20
-16.14554
 30
0.0
 10
-11.87226
 20
-16.14554
 30
0.0
 10
-11.87572
 20
-16.13672
 30
0.0
 10
-11.88094
 20
-16.12875
 30
0.0
 10
-11.88778
 20
-16.12162
 30
0.0
 10
-11.88778
 20
-16.12162
 30
0.0
 10
-11.89462
 20
-16.1145
 30
0.0
 10
-11.90316
 20
-16.10885
 30
0.0
 10
-11.91353
 20
-16.10469
 30
0.0
 10
-11.91353
 20
-16.10469
 30
0.0
 10
-11.92391
 20
-16.10046
 30
0.0
 10
-11.93611
 20
-16.09827
 30
0.0
 10
-11.95015
 20
-16.0982
 30
0.0
 10
-11.95015
 20
-16.0982
 30
0.0
 10
-11.95015
 20
-16.0982
 30
0.0
 10
-12.06826
 20
-16.0982
 30
0.0
 10
-12.06826
 20
-16.0982
 30
0.0
 10
-12.06826
 20
-16.0982
 30
0.0
 10
-12.06826
 20
-16.0982
 30
0.0
 10
-12.06826
 20
-16.40342
 30
0.0
 10
-12.06826
 20
-16.40342
 30
0.0
 10
-12.06826
 20
-16.40342
 30
0.0
 10
-12.06826
 20
-16.40342
 30
0.0
 10
-11.9383
 20
-16.40342
 30
0.0
 10
-11.9383
 20
-16.40342
 30
0.0
 10
-11.9383
 20
-16.40342
 30
0.0
 10
-11.92616
 20
-16.40342
 30
0.0
 10
-11.91487
 20
-16.40166
 30
0.0
 10
-11.90443
 20
-16.3982
 30
0.0
 10
-11.90443
 20
-16.3982
 30
0.0
 10
-11.89399
 20
-16.39467
 30
0.0
 10
-11.88489
 20
-16.38966
 30
0.0
 10
-11.87699
 20
-16.38296
 30
0.0
 10
-11.87699
 20
-16.38296
 30
0.0
 10
-11.86915
 20
-16.37633
 30
0.0
 10
-11.86302
 20
-16.36828
 30
0.0
 10
-11.85864
 20
-16.35876
 30
0.0
 10
-11.85864
 20
-16.35876
 30
0.0
 10
-11.85427
 20
-16.34923
 30
0.0
 10
-11.85201
 20
-16.33844
 30
0.0
 10
-11.85194
 20
-16.32637
 30
0.0
 10
-11.85194
 20
-16.32637
 30
0.0
 10
-11.85222
 20
-16.31424
 30
0.0
 10
-11.85476
 20
-16.3033
 30
0.0
 10
-11.85963
 20
-16.2935
 30
0.0
 10
-11.85963
 20
-16.2935
 30
0.0
 10
-11.8645
 20
-16.28369
 30
0.0
 10
-11.87127
 20
-16.27529
 30
0.0
 10
-11.88002
 20
-16.26824
 30
0.0
 10
-11.88002
 20
-16.26824
 30
0.0
 10
-11.88877
 20
-16.26125
 30
0.0
 10
-11.89921
 20
-16.25582
 30
0.0
 10
-11.91121
 20
-16.25208
 30
0.0
 10
-11.91121
 20
-16.25208
 30
0.0
 10
-11.9232
 20
-16.24834
 30
0.0
 10
-11.93646
 20
-16.24644
 30
0.0
 10
-11.951
 20
-16.24636
 30
0.0
 10
-11.951
 20
-16.24636
 30
0.0
 10
-11.93646
 20
-16.24644
 30
0.0
 10
-11.9232
 20
-16.24834
 30
0.0
 10
-11.91121
 20
-16.25208
 30
0.0
 10
-11.91121
 20
-16.25208
 30
0.0
 10
-11.89921
 20
-16.25582
 30
0.0
 10
-11.88877
 20
-16.26125
 30
0.0
 10
-11.88002
 20
-16.26824
 30
0.0
 10
-11.88002
 20
-16.26824
 30
0.0
 10
-11.87127
 20
-16.27529
 30
0.0
 10
-11.8645
 20
-16.28369
 30
0.0
 10
-11.85963
 20
-16.2935
 30
0.0
 10
-11.85963
 20
-16.2935
 30
0.0
 10
-11.85476
 20
-16.3033
 30
0.0
 10
-11.85222
 20
-16.31424
 30
0.0
 10
-11.85194
 20
-16.32637
 30
0.0
 10
-11.85194
 20
-16.32637
 30
0.0
 10
-11.85201
 20
-16.33844
 30
0.0
 10
-11.85427
 20
-16.34923
 30
0.0
 10
-11.85864
 20
-16.35876
 30
0.0
 10
-11.85864
 20
-16.35876
 30
0.0
 10
-11.86302
 20
-16.36828
 30
0.0
 10
-11.86915
 20
-16.37633
 30
0.0
 10
-11.87699
 20
-16.38296
 30
0.0
 10
-11.87699
 20
-16.38296
 30
0.0
 10
-11.88489
 20
-16.38966
 30
0.0
 10
-11.89399
 20
-16.39467
 30
0.0
 10
-11.90443
 20
-16.3982
 30
0.0
 10
-11.90443
 20
-16.3982
 30
0.0
 10
-11.91487
 20
-16.40166
 30
0.0
 10
-11.92616
 20
-16.40342
 30
0.0
 10
-11.9383
 20
-16.40342
 30
0.0
 10
-11.9383
 20
-16.40342
 30
0.0
 10
-11.9383
 20
-16.40342
 30
0.0
 10
-12.06826
 20
-16.40342
 30
0.0
 10
-12.06826
 20
-16.40342
 30
0.0
 10
-12.06826
 20
-16.40342
 30
0.0
 10
-12.06826
 20
-16.40342
 30
0.0
 10
-12.06826
 20
-16.0982
 30
0.0
 10
-12.06826
 20
-16.0982
 30
0.0
 10
-12.06826
 20
-16.0982
 30
0.0
 10
-12.06826
 20
-16.0982
 30
0.0
 10
-11.95015
 20
-16.0982
 30
0.0
 10
-11.95015
 20
-16.0982
 30
0.0
 10
-11.95015
 20
-16.0982
 30
0.0
 10
-11.93611
 20
-16.09827
 30
0.0
 10
-11.92391
 20
-16.10046
 30
0.0
 10
-11.91353
 20
-16.10469
 30
0.0
 10
-11.91353
 20
-16.10469
 30
0.0
 10
-11.90316
 20
-16.10885
 30
0.0
 10
-11.89462
 20
-16.1145
 30
0.0
 10
-11.88778
 20
-16.12162
 30
0.0
 10
-11.88778
 20
-16.12162
 30
0.0
 10
-11.88094
 20
-16.12875
 30
0.0
 10
-11.87572
 20
-16.13672
 30
0.0
 10
-11.87226
 20
-16.14554
 30
0.0
 10
-11.87226
 20
-16.14554
 30
0.0
 10
-11.86873
 20
-16.15436
 30
0.0
 10
-11.86676
 20
-16.16339
 30
0.0
 10
-11.86633
 20
-16.17271
 30
0.0
 10
-11.86633
 20
-16.17271
 30
0.0
 10
-11.86598
 20
-16.18202
 30
0.0
 10
-11.86739
 20
-16.19105
 30
0.0
 10
-11.87042
 20
-16.19973
 30
0.0
 10
-11.87042
 20
-16.19973
 30
0.0
 10
-11.87353
 20
-16.20848
 30
0.0
 10
-11.87847
 20
-16.21638
 30
0.0
 10
-11.88531
 20
-16.22336
 30
0.0
 10
-11.88531
 20
-16.22336
 30
0.0
 10
-11.89216
 20
-16.23035
 30
0.0
 10
-11.90097
 20
-16.23592
 30
0.0
 10
-11.91184
 20
-16.24001
 30
0.0
 10
-11.91184
 20
-16.24001
 30
0.0
 10
-11.92278
 20
-16.24418
 30
0.0
 10
-11.93576
 20
-16.24629
 30
0.0
 10
-11.951
 20
-16.24636
 30
0.0
 10
-11.951
 20
-16.24636
 30
0.0
 10
-11.951
 20
-16.24636
 30
0.0
 10
-12.06826
 20
-16.24636
 30
0.0
 10
-12.06826
 20
-16.24636
 30
0.0
  0
SPLINE
  5
71
330
1F
100
AcDbEntity
  8
Layer 1
 62
    30
370
    53
100
AcDbSpline
210
0.0
220
0.0
230
1.0
 70
    11
 71
     3
 72
    92
 73
    88
 74
     0
 42
0.0000000001
 43
0.0000000001
 40
0.0
 40
0.0
 40
0.0
 40
0.0
 40
0.0454545454545455
 40
0.0454545454545455
 40
0.0454545454545455
 40
0.0454545454545455
 40
0.0909090909090909
 40
0.0909090909090909
 40
0.0909090909090909
 40
0.0909090909090909
 40
0.1363636363636364
 40
0.1363636363636364
 40
0.1363636363636364
 40
0.1363636363636364
 40
0.1818181818181818
 40
0.1818181818181818
 40
0.1818181818181818
 40
0.1818181818181818
 40
0.2272727272727273
 40
0.2272727272727273
 40
0.2272727272727273
 40
0.2272727272727273
 40
0.2727272727272728
 40
0.2727272727272728
 40
0.2727272727272728
 40
0.2727272727272728
 40
0.3181818181818182
 40
0.3181818181818182
 40
0.3181818181818182
 40
0.3181818181818182
 40
0.3636363636363637
 40
0.3636363636363637
 40
0.3636363636363637
 40
0.3636363636363637
 40
0.4090909090909092
 40
0.4090909090909092
 40
0.4090909090909092
 40
0.4090909090909092
 40
0.4545454545454546
 40
0.4545454545454546
 40
0.4545454545454546
 40
0.4545454545454546
 40
0.5000000000000001
 40
0.5000000000000001
 40
0.5000000000000001
 40
0.5000000000000001
 40
0.5454545454545455
 40
0.5454545454545455
 40
0.5454545454545455
 40
0.5454545454545455
 40
0.5909090909090909
 40
0.5909090909090909
 40
0.5909090909090909
 40
0.5909090909090909
 40
0.6363636363636364
 40
0.6363636363636364
 40
0.6363636363636364
 40
0.6363636363636364
 40
0.6818181818181818
 40
0.6818181818181818
 40
0.6818181818181818
 40
0.6818181818181818
 40
0.7272727272727272
 40
0.7272727272727272
 40
0.7272727272727272
 40
0.7272727272727272
 40
0.7727272727272726
 40
0.7727272727272726
 40
0.7727272727272726
 40
0.7727272727272726
 40
0.818181818181818
 40
0.818181818181818
 40
0.818181818181818
 40
0.818181818181818
 40
0.8636363636363634
 40
0.8636363636363634
 40
0.8636363636363634
 40
0.8636363636363634
 40
0.9090909090909088
 40
0.9090909090909088
 40
0.9090909090909088
 40
0.9090909090909088
 40
0.9545454545454543
 40
0.9545454545454543
 40
0.9545454545454543
 40
0.9545454545454543
 40
1.0
 40
1.0
 40
1.0
 40
1.0
 10
-11.70208
 20
-16.40342
 30
0.0
 10
-11.70208
 20
-16.40342
 30
0.0
 10
-11.70208
 20
-16.0982
 30
0.0
 10
-11.70208
 20
-16.0982
 30
0.0
 10
-11.70208
 20
-16.0982
 30
0.0
 10
-11.70208
 20
-16.0982
 30
0.0
 10
-11.60471
 20
-16.0982
 30
0.0
 10
-11.60471
 20
-16.0982
 30
0.0
 10
-11.60471
 20
-16.0982
 30
0.0
 10
-11.58524
 20
-16.09827
 30
0.0
 10
-11.56923
 20
-16.10046
 30
0.0
 10
-11.5566
 20
-16.10469
 30
0.0
 10
-11.5566
 20
-16.10469
 30
0.0
 10
-11.54404
 20
-16.10885
 30
0.0
 10
-11.53416
 20
-16.11464
 30
0.0
 10
-11.52703
 20
-16.12198
 30
0.0
 10
-11.52703
 20
-16.12198
 30
0.0
 10
-11.51991
 20
-16.12924
 30
0.0
 10
-11.51483
 20
-16.13757
 30
0.0
 10
-11.51172
 20
-16.14695
 30
0.0
 10
-11.51172
 20
-16.14695
 30
0.0
 10
-11.50869
 20
-16.15634
 30
0.0
 10
-11.50693
 20
-16.16614
 30
0.0
 10
-11.5065
 20
-16.17652
 30
0.0
 10
-11.5065
 20
-16.17652
 30
0.0
 10
-11.50601
 20
-16.18689
 30
0.0
 10
-11.50721
 20
-16.19705
 30
0.0
 10
-11.51003
 20
-16.20692
 30
0.0
 10
-11.51003
 20
-16.20692
 30
0.0
 10
-11.51292
 20
-16.2168
 30
0.0
 10
-11.51779
 20
-16.22576
 30
0.0
 10
-11.52478
 20
-16.23381
 30
0.0
 10
-11.52478
 20
-16.23381
 30
0.0
 10
-11.53169
 20
-16.24185
 30
0.0
 10
-11.54107
 20
-16.24827
 30
0.0
 10
-11.55286
 20
-16.253
 30
0.0
 10
-11.55286
 20
-16.253
 30
0.0
 10
-11.56464
 20
-16.25779
 30
0.0
 10
-11.57924
 20
-16.26019
 30
0.0
 10
-11.59667
 20
-16.26033
 30
0.0
 10
-11.59667
 20
-16.26033
 30
0.0
 10
-11.59667
 20
-16.26033
 30
0.0
 10
-11.70208
 20
-16.26033
 30
0.0
 10
-11.70208
 20
-16.26033
 30
0.0
 10
-11.70208
 20
-16.26033
 30
0.0
 10
-11.70208
 20
-16.26033
 30
0.0
 10
-11.59667
 20
-16.26033
 30
0.0
 10
-11.59667
 20
-16.26033
 30
0.0
 10
-11.59667
 20
-16.26033
 30
0.0
 10
-11.5796
 20
-16.26019
 30
0.0
 10
-11.56513
 20
-16.25779
 30
0.0
 10
-11.55342
 20
-16.253
 30
0.0
 10
-11.55342
 20
-16.253
 30
0.0
 10
-11.54164
 20
-16.24827
 30
0.0
 10
-11.53225
 20
-16.24185
 30
0.0
 10
-11.5252
 20
-16.23381
 30
0.0
 10
-11.5252
 20
-16.23381
 30
0.0
 10
-11.51821
 20
-16.22576
 30
0.0
 10
-11.5132
 20
-16.2168
 30
0.0
 10
-11.51024
 20
-16.20692
 30
0.0
 10
-11.51024
 20
-16.20692
 30
0.0
 10
-11.50728
 20
-16.19705
 30
0.0
 10
-11.50601
 20
-16.18689
 30
0.0
 10
-11.5065
 20
-16.17652
 30
0.0
 10
-11.5065
 20
-16.17652
 30
0.0
 10
-11.50693
 20
-16.16614
 30
0.0
 10
-11.50869
 20
-16.15634
 30
0.0
 10
-11.51186
 20
-16.14695
 30
0.0
 10
-11.51186
 20
-16.14695
 30
0.0
 10
-11.51497
 20
-16.13757
 30
0.0
 10
-11.52019
 20
-16.12924
 30
0.0
 10
-11.52732
 20
-16.12198
 30
0.0
 10
-11.52732
 20
-16.12198
 30
0.0
 10
-11.53451
 20
-16.11464
 30
0.0
 10
-11.54439
 20
-16.10885
 30
0.0
 10
-11.55695
 20
-16.10469
 30
0.0
 10
-11.55695
 20
-16.10469
 30
0.0
 10
-11.56958
 20
-16.10046
 30
0.0
 10
-11.58545
 20
-16.09827
 30
0.0
 10
-11.60471
 20
-16.0982
 30
0.0
 10
-11.60471
 20
-16.0982
 30
0.0
 10
-11.60471
 20
-16.0982
 30
0.0
 10
-11.70208
 20
-16.0982
 30
0.0
 10
-11.70208
 20
-16.0982
 30
0.0
 10
-11.70208
 20
-16.0982
 30
0.0
 10
-11.70208
 20
-16.0982
 30
0.0
 10
-11.70208
 20
-16.40342
 30
0.0
 10
-11.70208
 20
-16.40342
 30
0.0
  0
SPLINE
  5
72
330
1F
100
AcDbEntity
  8
Layer 1
 62
    30
370
    53
100
AcDbSpline
210
0.0
220
0.0
230
1.0
 70
    27
 71
     3
 72
    12
 73
     8
 74
     0
 42
0.0000000001
 43
0.0000000001
 40
0.0
 40
0.0
 40
0.0
 40
0.0
 40
0.5
 40
0.5
 40
0.5
 40
0.5
 40
1.0
 40
1.0
 40
1.0
 40
1.0
 10
-11.40152
 20
-16.24382
 30
0.0
 10
-11.40152
 20
-16.24382
 30
0.0
 10
-11.27833
 20
-16.24382
 30
0.0
 10
-11.27833
 20
-16.24382
 30
0.0
 10
-11.27833
 20
-16.24382
 30
0.0
 10
-11.27833
 20
-16.24382
 30
0.0
 10
-11.40152
 20
-16.24382
 30
0.0
 10
-11.40152
 20
-16.24382
 30
0.0
  0
SPLINE
  5
73
330
1F
100
AcDbEntity
  8
Layer 1
 62
    30
370
    53
100
AcDbSpline
210
0.0
220
0.0
230
1.0
 70
    11
 71
     3
 72
   236
 73
   232
 74
     0
 42
0.0000000001
 43
0.0000000001
 40
0.0
 40
0.0
 40
0.0
 40
0.0
 40
0.0172413793103448
 40
0.0172413793103448
 40
0.0172413793103448
 40
0.0172413793103448
 40
0.0344827586206897
 40
0.0344827586206897
 40
0.0344827586206897
 40
0.0344827586206897
 40
0.0517241379310345
 40
0.0517241379310345
 40
0.0517241379310345
 40
0.0517241379310345
 40
0.0689655172413793
 40
0.0689655172413793
 40
0.0689655172413793
 40
0.0689655172413793
 40
0.0862068965517241
 40
0.0862068965517241
 40
0.0862068965517241
 40
0.0862068965517241
 40
0.103448275862069
 40
0.103448275862069
 40
0.103448275862069
 40
0.103448275862069
 40
0.1206896551724138
 40
0.1206896551724138
 40
0.1206896551724138
 40
0.1206896551724138
 40
0.1379310344827586
 40
0.1379310344827586
 40
0.1379310344827586
 40
0.1379310344827586
 40
0.1551724137931035
 40
0.1551724137931035
 40
0.1551724137931035
 40
0.1551724137931035
 40
0.1724137931034483
 40
0.1724137931034483
 40
0.1724137931034483
 40
0.1724137931034483
 40
0.1896551724137931
 40
0.1896551724137931
 40
0.1896551724137931
 40
0.1896551724137931
 40
0.206896551724138
 40
0.206896551724138
 40
0.206896551724138
 40
0.206896551724138
 40
0.2241379310344828
 40
0.2241379310344828
 40
0.2241379310344828
 40
0.2241379310344828
 40
0.2413793103448277
 40
0.2413793103448277
 40
0.2413793103448277
 40
0.2413793103448277
 40
0.2586206896551725
 40
0.2586206896551725
 40
0.2586206896551725
 40
0.2586206896551725
 40
0.2758620689655173
 40
0.2758620689655173
 40
0.2758620689655173
 40
0.2758620689655173
 40
0.2931034482758621
 40
0.2931034482758621
 40
0.2931034482758621
 40
0.2931034482758621
 40
0.3103448275862069
 40
0.3103448275862069
 40
0.3103448275862069
 40
0.3103448275862069
 40
0.3275862068965517
 40
0.3275862068965517
 40
0.3275862068965517
 40
0.3275862068965517
 40
0.3448275862068965
 40
0.3448275862068965
 40
0.3448275862068965
 40
0.3448275862068965
 40
0.3620689655172413
 40
0.3620689655172413
 40
0.3620689655172413
 40
0.3620689655172413
 40
0.3793103448275861
 40
0.3793103448275861
 40
0.3793103448275861
 40
0.3793103448275861
 40
0.3965517241379309
 40
0.3965517241379309
 40
0.3965517241379309
 40
0.3965517241379309
 40
0.4137931034482757
 40
0.4137931034482757
 40
0.4137931034482757
 40
0.4137931034482757
 40
0.4310344827586206
 40
0.4310344827586206
 40
0.4310344827586206
 40
0.4310344827586206
 40
0.4482758620689654
 40
0.4482758620689654
 40
0.4482758620689654
 40
0.4482758620689654
 40
0.4655172413793102
 40
0.4655172413793102
 40
0.4655172413793102
 40
0.4655172413793102
 40
0.482758620689655
 40
0.482758620689655
 40
0.482758620689655
 40
0.482758620689655
 40
0.4999999999999998
 40
0.4999999999999998
 40
0.4999999999999998
 40
0.4999999999999998
 40
0.5172413793103446
 40
0.5172413793103446
 40
0.5172413793103446
 40
0.5172413793103446
 40
0.5344827586206895
 40
0.5344827586206895
 40
0.5344827586206895
 40
0.5344827586206895
 40
0.5517241379310344
 40
0.5517241379310344
 40
0.5517241379310344
 40
0.5517241379310344
 40
0.5689655172413792
 40
0.5689655172413792
 40
0.5689655172413792
 40
0.5689655172413792
 40
0.5862068965517241
 40
0.5862068965517241
 40
0.5862068965517241
 40
0.5862068965517241
 40
0.603448275862069
 40
0.603448275862069
 40
0.603448275862069
 40
0.603448275862069
 40
0.6206896551724138
 40
0.6206896551724138
 40
0.6206896551724138
 40
0.6206896551724138
 40
0.6379310344827587
 40
0.6379310344827587
 40
0.6379310344827587
 40
0.6379310344827587
 40
0.6551724137931035
 40
0.6551724137931035
 40
0.6551724137931035
 40
0.6551724137931035
 40
0.6724137931034484
 40
0.6724137931034484
 40
0.6724137931034484
 40
0.6724137931034484
 40
0.6896551724137933
 40
0.6896551724137933
 40
0.6896551724137933
 40
0.6896551724137933
 40
0.7068965517241381
 40
0.7068965517241381
 40
0.7068965517241381
 40
0.7068965517241381
 40
0.724137931034483
 40
0.724137931034483
 40
0.724137931034483
 40
0.724137931034483
 40
0.7413793103448278
 40
0.7413793103448278
 40
0.7413793103448278
 40
0.7413793103448278
 40
0.7586206896551727
 40
0.7586206896551727
 40
0.7586206896551727
 40
0.7586206896551727
 40
0.7758620689655176
 40
0.7758620689655176
 40
0.7758620689655176
 40
0.7758620689655176
 40
0.7931034482758624
 40
0.7931034482758624
 40
0.7931034482758624
 40
0.7931034482758624
 40
0.8103448275862073
 40
0.8103448275862073
 40
0.8103448275862073
 40
0.8103448275862073
 40
0.8275862068965522
 40
0.8275862068965522
 40
0.8275862068965522
 40
0.8275862068965522
 40
0.844827586206897
 40
0.844827586206897
 40
0.844827586206897
 40
0.844827586206897
 40
0.8620689655172419
 40
0.8620689655172419
 40
0.8620689655172419
 40
0.8620689655172419
 40
0.8793103448275867
 40
0.8793103448275867
 40
0.8793103448275867
 40
0.8793103448275867
 40
0.8965517241379316
 40
0.8965517241379316
 40
0.8965517241379316
 40
0.8965517241379316
 40
0.9137931034482765
 40
0.9137931034482765
 40
0.9137931034482765
 40
0.9137931034482765
 40
0.9310344827586213
 40
0.9310344827586213
 40
0.9310344827586213
 40
0.9310344827586213
 40
0.9482758620689662
 40
0.9482758620689662
 40
0.9482758620689662
 40
0.9482758620689662
 40
0.965517241379311
 40
0.965517241379311
 40
0.965517241379311
 40
0.965517241379311
 40
0.9827586206896559
 40
0.9827586206896559
 40
0.9827586206896559
 40
0.9827586206896559
 40
1.0
 40
1.0
 40
1.0
 40
1.0
 10
-11.16149
 20
-16.31156
 30
0.0
 10
-11.16142
 20
-16.29773
 30
0.0
 10
-11.15917
 20
-16.28524
 30
0.0
 10
-11.15465
 20
-16.27395
 30
0.0
 10
-11.15465
 20
-16.27395
 30
0.0
 10
-11.15021
 20
-16.26273
 30
0.0
 10
-11.14393
 20
-16.25307
 30
0.0
 10
-11.13581
 20
-16.24495
 30
0.0
 10
-11.13581
 20
-16.24495
 30
0.0
 10
-11.12777
 20
-16.23691
 30
0.0
 10
-11.11824
 20
-16.2307
 30
0.0
 10
-11.10738
 20
-16.22633
 30
0.0
 10
-11.10738
 20
-16.22633
 30
0.0
 10
-11.09651
 20
-16.22195
 30
0.0
 10
-11.08459
 20
-16.21977
 30
0.0
 10
-11.07175
 20
-16.21969
 30
0.0
 10
-11.07175
 20
-16.21969
 30
0.0
 10
-11.05884
 20
-16.21962
 30
0.0
 10
-11.04677
 20
-16.22125
 30
0.0
 10
-11.03555
 20
-16.22449
 30
0.0
 10
-11.03555
 20
-16.22449
 30
0.0
 10
-11.02433
 20
-16.22767
 30
0.0
 10
-11.01453
 20
-16.23289
 30
0.0
 10
-11.00599
 20
-16.24009
 30
0.0
 10
-11.00599
 20
-16.24009
 30
0.0
 10
-10.99745
 20
-16.24721
 30
0.0
 10
-10.99075
 20
-16.25667
 30
0.0
 10
-10.98595
 20
-16.26845
 30
0.0
 10
-10.98595
 20
-16.26845
 30
0.0
 10
-10.98116
 20
-16.28023
 30
0.0
 10
-10.97869
 20
-16.29455
 30
0.0
 10
-10.97862
 20
-16.31156
 30
0.0
 10
-10.97862
 20
-16.31156
 30
0.0
 10
-10.97869
 20
-16.32856
 30
0.0
 10
-10.98116
 20
-16.34288
 30
0.0
 10
-10.98595
 20
-16.35467
 30
0.0
 10
-10.98595
 20
-16.35467
 30
0.0
 10
-10.99075
 20
-16.36645
 30
0.0
 10
-10.99745
 20
-16.3759
 30
0.0
 10
-11.00599
 20
-16.38303
 30
0.0
 10
-11.00599
 20
-16.38303
 30
0.0
 10
-11.01453
 20
-16.39023
 30
0.0
 10
-11.02433
 20
-16.39545
 30
0.0
 10
-11.03555
 20
-16.39862
 30
0.0
 10
-11.03555
 20
-16.39862
 30
0.0
 10
-11.04677
 20
-16.40187
 30
0.0
 10
-11.05884
 20
-16.40349
 30
0.0
 10
-11.07175
 20
-16.40342
 30
0.0
 10
-11.07175
 20
-16.40342
 30
0.0
 10
-11.08459
 20
-16.40335
 30
0.0
 10
-11.09637
 20
-16.40116
 30
0.0
 10
-11.10717
 20
-16.39679
 30
0.0
 10
-11.10717
 20
-16.39679
 30
0.0
 10
-11.11789
 20
-16.39241
 30
0.0
 10
-11.1272
 20
-16.3862
 30
0.0
 10
-11.13518
 20
-16.37809
 30
0.0
 10
-11.13518
 20
-16.37809
 30
0.0
 10
-11.14315
 20
-16.37005
 30
0.0
 10
-11.14943
 20
-16.36038
 30
0.0
 10
-11.15394
 20
-16.34909
 30
0.0
 10
-11.15394
 20
-16.34909
 30
0.0
 10
-11.15853
 20
-16.33787
 30
0.0
 10
-11.161
 20
-16.32539
 30
0.0
 10
-11.16149
 20
-16.31156
 30
0.0
 10
-11.16149
 20
-16.31156
 30
0.0
 10
-11.16178
 20
-16.30457
 30
0.0
 10
-11.16213
 20
-16.29625
 30
0.0
 10
-11.16262
 20
-16.28658
 30
0.0
 10
-11.16262
 20
-16.28658
 30
0.0
 10
-11.16312
 20
-16.27684
 30
0.0
 10
-11.1634
 20
-16.26626
 30
0.0
 10
-11.16347
 20
-16.2549
 30
0.0
 10
-11.16347
 20
-16.2549
 30
0.0
 10
-11.16354
 20
-16.24347
 30
0.0
 10
-11.16319
 20
-16.23169
 30
0.0
 10
-11.16227
 20
-16.21962
 30
0.0
 10
-11.16227
 20
-16.21962
 30
0.0
 10
-11.16142
 20
-16.20749
 30
0.0
 10
-11.15973
 20
-16.19556
 30
0.0
 10
-11.15726
 20
-16.18378
 30
0.0
 10
-11.15726
 20
-16.18378
 30
0.0
 10
-11.15479
 20
-16.17207
 30
0.0
 10
-11.15126
 20
-16.16099
 30
0.0
 10
-11.14661
 20
-16.15062
 30
0.0
 10
-11.14661
 20
-16.15062
 30
0.0
 10
-11.14195
 20
-16.14025
 30
0.0
 10
-11.13595
 20
-16.13108
 30
0.0
 10
-11.12854
 20
-16.1231
 30
0.0
 10
-11.12854
 20
-16.1231
 30
0.0
 10
-11.12107
 20
-16.11513
 30
0.0
 10
-11.11196
 20
-16.10885
 30
0.0
 10
-11.10117
 20
-16.10427
 30
0.0
 10
-11.10117
 20
-16.10427
 30
0.0
 10
-11.09037
 20
-16.09975
 30
0.0
 10
-11.0776
 20
-16.09742
 30
0.0
 10
-11.06286
 20
-16.09735
 30
0.0
 10
-11.06286
 20
-16.09735
 30
0.0
 10
-11.05002
 20
-16.09742
 30
0.0
 10
-11.03915
 20
-16.09869
 30
0.0
 10
-11.03012
 20
-16.10116
 30
0.0
 10
-11.03012
 20
-16.10116
 30
0.0
 10
-11.02109
 20
-16.10363
 30
0.0
 10
-11.01368
 20
-16.10695
 30
0.0
 10
-11.00775
 20
-16.11104
 30
0.0
 10
-11.00775
 20
-16.11104
 30
0.0
 10
-11.0019
 20
-16.1152
 30
0.0
 10
-10.99724
 20
-16.11972
 30
0.0
 10
-10.99386
 20
-16.12473
 30
0.0
 10
-10.99386
 20
-16.12473
 30
0.0
 10
-10.99047
 20
-16.12967
 30
0.0
 10
-10.98793
 20
-16.13468
 30
0.0
 10
-10.98638
 20
-16.13969
 30
0.0
 10
-10.98638
 20
-16.13969
 30
0.0
 10
-10.98475
 20
-16.14469
 30
0.0
 10
-10.9837
 20
-16.14935
 30
0.0
 10
-10.98327
 20
-16.15366
 30
0.0
 10
-10.98327
 20
-16.15366
 30
0.0
 10
-10.9837
 20
-16.14935
 30
0.0
 10
-10.98475
 20
-16.14469
 30
0.0
 10
-10.98638
 20
-16.13969
 30
0.0
 10
-10.98638
 20
-16.13969
 30
0.0
 10
-10.98793
 20
-16.13468
 30
0.0
 10
-10.99047
 20
-16.12967
 30
0.0
 10
-10.99386
 20
-16.12473
 30
0.0
 10
-10.99386
 20
-16.12473
 30
0.0
 10
-10.99724
 20
-16.11972
 30
0.0
 10
-11.0019
 20
-16.1152
 30
0.0
 10
-11.00775
 20
-16.11104
 30
0.0
 10
-11.00775
 20
-16.11104
 30
0.0
 10
-11.01368
 20
-16.10695
 30
0.0
 10
-11.02109
 20
-16.10363
 30
0.0
 10
-11.03012
 20
-16.10116
 30
0.0
 10
-11.03012
 20
-16.10116
 30
0.0
 10
-11.03915
 20
-16.09869
 30
0.0
 10
-11.05002
 20
-16.09742
 30
0.0
 10
-11.06286
 20
-16.09735
 30
0.0
 10
-11.06286
 20
-16.09735
 30
0.0
 10
-11.0776
 20
-16.09742
 30
0.0
 10
-11.09037
 20
-16.09975
 30
0.0
 10
-11.10117
 20
-16.10427
 30
0.0
 10
-11.10117
 20
-16.10427
 30
0.0
 10
-11.11196
 20
-16.10885
 30
0.0
 10
-11.12107
 20
-16.11513
 30
0.0
 10
-11.12854
 20
-16.1231
 30
0.0
 10
-11.12854
 20
-16.1231
 30
0.0
 10
-11.13595
 20
-16.13108
 30
0.0
 10
-11.14195
 20
-16.14025
 30
0.0
 10
-11.14661
 20
-16.15062
 30
0.0
 10
-11.14661
 20
-16.15062
 30
0.0
 10
-11.15126
 20
-16.16099
 30
0.0
 10
-11.15479
 20
-16.17207
 30
0.0
 10
-11.15726
 20
-16.18378
 30
0.0
 10
-11.15726
 20
-16.18378
 30
0.0
 10
-11.15973
 20
-16.19556
 30
0.0
 10
-11.16142
 20
-16.20749
 30
0.0
 10
-11.16227
 20
-16.21962
 30
0.0
 10
-11.16227
 20
-16.21962
 30
0.0
 10
-11.16319
 20
-16.23169
 30
0.0
 10
-11.16354
 20
-16.24347
 30
0.0
 10
-11.16347
 20
-16.2549
 30
0.0
 10
-11.16347
 20
-16.2549
 30
0.0
 10
-11.1634
 20
-16.26626
 30
0.0
 10
-11.16312
 20
-16.27684
 30
0.0
 10
-11.16262
 20
-16.28658
 30
0.0
 10
-11.16262
 20
-16.28658
 30
0.0
 10
-11.16213
 20
-16.29625
 30
0.0
 10
-11.16178
 20
-16.30457
 30
0.0
 10
-11.16149
 20
-16.31156
 30
0.0
 10
-11.16149
 20
-16.31156
 30
0.0
 10
-11.161
 20
-16.32539
 30
0.0
 10
-11.15853
 20
-16.33787
 30
0.0
 10
-11.15394
 20
-16.34909
 30
0.0
 10
-11.15394
 20
-16.34909
 30
0.0
 10
-11.14943
 20
-16.36038
 30
0.0
 10
-11.14315
 20
-16.37005
 30
0.0
 10
-11.13518
 20
-16.37809
 30
0.0
 10
-11.13518
 20
-16.37809
 30
0.0
 10
-11.1272
 20
-16.3862
 30
0.0
 10
-11.11789
 20
-16.39241
 30
0.0
 10
-11.10717
 20
-16.39679
 30
0.0
 10
-11.10717
 20
-16.39679
 30
0.0
 10
-11.09637
 20
-16.40116
 30
0.0
 10
-11.08459
 20
-16.40335
 30
0.0
 10
-11.07175
 20
-16.40342
 30
0.0
 10
-11.07175
 20
-16.40342
 30
0.0
 10
-11.05884
 20
-16.40349
 30
0.0
 10
-11.04677
 20
-16.40187
 30
0.0
 10
-11.03555
 20
-16.39862
 30
0.0
 10
-11.03555
 20
-16.39862
 30
0.0
 10
-11.02433
 20
-16.39545
 30
0.0
 10
-11.01453
 20
-16.39023
 30
0.0
 10
-11.00599
 20
-16.38303
 30
0.0
 10
-11.00599
 20
-16.38303
 30
0.0
 10
-10.99745
 20
-16.3759
 30
0.0
 10
-10.99075
 20
-16.36645
 30
0.0
 10
-10.98595
 20
-16.35467
 30
0.0
 10
-10.98595
 20
-16.35467
 30
0.0
 10
-10.98116
 20
-16.34288
 30
0.0
 10
-10.97869
 20
-16.32856
 30
0.0
 10
-10.97862
 20
-16.31156
 30
0.0
 10
-10.97862
 20
-16.31156
 30
0.0
 10
-10.97869
 20
-16.29455
 30
0.0
 10
-10.98116
 20
-16.28023
 30
0.0
 10
-10.98595
 20
-16.26845
 30
0.0
 10
-10.98595
 20
-16.26845
 30
0.0
 10
-10.99075
 20
-16.25667
 30
0.0
 10
-10.99745
 20
-16.24721
 30
0.0
 10
-11.00599
 20
-16.24009
 30
0.0
 10
-11.00599
 20
-16.24009
 30
0.0
 10
-11.01453
 20
-16.23289
 30
0.0
 10
-11.02433
 20
-16.22767
 30
0.0
 10
-11.03555
 20
-16.22449
 30
0.0
 10
-11.03555
 20
-16.22449
 30
0.0
 10
-11.04677
 20
-16.22125
 30
0.0
 10
-11.05884
 20
-16.21962
 30
0.0
 10
-11.07175
 20
-16.21969
 30
0.0
 10
-11.07175
 20
-16.21969
 30
0.0
 10
-11.08459
 20
-16.21977
 30
0.0
 10
-11.09651
 20
-16.22195
 30
0.0
 10
-11.10738
 20
-16.22633
 30
0.0
 10
-11.10738
 20
-16.22633
 30
0.0
 10
-11.11824
 20
-16.2307
 30
0.0
 10
-11.12777
 20
-16.23691
 30
0.0
 10
-11.13581
 20
-16.24495
 30
0.0
 10
-11.13581
 20
-16.24495
 30
0.0
 10
-11.14393
 20
-16.25307
 30
0.0
 10
-11.15021
 20
-16.26273
 30
0.0
 10
-11.15465
 20
-16.27395
 30
0.0
 10
-11.15465
 20
-16.27395
 30
0.0
 10
-11.15917
 20
-16.28524
 30
0.0
 10
-11.16142
 20
-16.29773
 30
0.0
 10
-11.16149
 20
-16.31156
 30
0.0
  0
SPLINE
  5
74
330
1F
100
AcDbEntity
  8
Layer 1
 62
    30
370
    53
100
AcDbSpline
210
0.0
220
0.0
230
1.0
 70
    11
 71
     3
 72
    84
 73
    80
 74
     0
 42
0.0000000001
 43
0.0000000001
 40
0.0
 40
0.0
 40
0.0
 40
0.0
 40
0.05
 40
0.05
 40
0.05
 40
0.05
 40
0.1
 40
0.1
 40
0.1
 40
0.1
 40
0.15
 40
0.15
 40
0.15
 40
0.15
 40
0.2
 40
0.2
 40
0.2
 40
0.2
 40
0.25
 40
0.25
 40
0.25
 40
0.25
 40
0.3
 40
0.3
 40
0.3
 40
0.3
 40
0.35
 40
0.35
 40
0.35
 40
0.35
 40
0.4
 40
0.4
 40
0.4
 40
0.4
 40
0.45
 40
0.45
 40
0.45
 40
0.45
 40
0.4999999999999999
 40
0.4999999999999999
 40
0.4999999999999999
 40
0.4999999999999999
 40
0.5499999999999999
 40
0.5499999999999999
 40
0.5499999999999999
 40
0.5499999999999999
 40
0.6
 40
0.6
 40
0.6
 40
0.6
 40
0.65
 40
0.65
 40
0.65
 40
0.65
 40
0.7000000000000001
 40
0.7000000000000001
 40
0.7000000000000001
 40
0.7000000000000001
 40
0.7500000000000001
 40
0.7500000000000001
 40
0.7500000000000001
 40
0.7500000000000001
 40
0.8000000000000002
 40
0.8000000000000002
 40
0.8000000000000002
 40
0.8000000000000002
 40
0.8500000000000002
 40
0.8500000000000002
 40
0.8500000000000002
 40
0.8500000000000002
 40
0.9000000000000002
 40
0.9000000000000002
 40
0.9000000000000002
 40
0.9000000000000002
 40
0.9500000000000003
 40
0.9500000000000003
 40
0.9500000000000003
 40
0.9500000000000003
 40
1.0
 40
1.0
 40
1.0
 40
1.0
 10
-10.78515
 20
-16.40342
 30
0.0
 10
-10.77034
 20
-16.40335
 30
0.0
 10
-10.75757
 20
-16.40074
 30
0.0
 10
-10.74691
 20
-16.39566
 30
0.0
 10
-10.74691
 20
-16.39566
 30
0.0
 10
-10.73633
 20
-16.39058
 30
0.0
 10
-10.72751
 20
-16.38331
 30
0.0
 10
-10.72046
 20
-16.37407
 30
0.0
 10
-10.72046
 20
-16.37407
 30
0.0
 10
-10.71347
 20
-16.36476
 30
0.0
 10
-10.70797
 20
-16.35375
 30
0.0
 10
-10.70388
 20
-16.34105
 30
0.0
 10
-10.70388
 20
-16.34105
 30
0.0
 10
-10.69985
 20
-16.32835
 30
0.0
 10
-10.69696
 20
-16.31445
 30
0.0
 10
-10.69534
 20
-16.29921
 30
0.0
 10
-10.69534
 20
-16.29921
 30
0.0
 10
-10.69364
 20
-16.28397
 30
0.0
 10
-10.6928
 20
-16.26795
 30
0.0
 10
-10.69287
 20
-16.25102
 30
0.0
 10
-10.69287
 20
-16.25102
 30
0.0
 10
-10.6928
 20
-16.23416
 30
0.0
 10
-10.69364
 20
-16.21814
 30
0.0
 10
-10.69534
 20
-16.20297
 30
0.0
 10
-10.69534
 20
-16.20297
 30
0.0
 10
-10.69696
 20
-16.1878
 30
0.0
 10
-10.69985
 20
-16.17383
 30
0.0
 10
-10.70388
 20
-16.16113
 30
0.0
 10
-10.70388
 20
-16.16113
 30
0.0
 10
-10.70797
 20
-16.1485
 30
0.0
 10
-10.71347
 20
-16.1375
 30
0.0
 10
-10.72046
 20
-16.12811
 30
0.0
 10
-10.72046
 20
-16.12811
 30
0.0
 10
-10.72751
 20
-16.1188
 30
0.0
 10
-10.73633
 20
-16.11153
 30
0.0
 10
-10.74691
 20
-16.10645
 30
0.0
 10
-10.74691
 20
-16.10645
 30
0.0
 10
-10.75757
 20
-16.1013
 30
0.0
 10
-10.77034
 20
-16.09869
 30
0.0
 10
-10.78515
 20
-16.09862
 30
0.0
 10
-10.78515
 20
-16.09862
 30
0.0
 10
-10.79997
 20
-16.09869
 30
0.0
 10
-10.81274
 20
-16.1013
 30
0.0
 10
-10.8234
 20
-16.10645
 30
0.0
 10
-10.8234
 20
-16.10645
 30
0.0
 10
-10.83398
 20
-16.11153
 30
0.0
 10
-10.8428
 20
-16.1188
 30
0.0
 10
-10.84985
 20
-16.12811
 30
0.0
 10
-10.84985
 20
-16.12811
 30
0.0
 10
-10.85684
 20
-16.1375
 30
0.0
 10
-10.86234
 20
-16.1485
 30
0.0
 10
-10.86643
 20
-16.16113
 30
0.0
 10
-10.86643
 20
-16.16113
 30
0.0
 10
-10.87046
 20
-16.17383
 30
0.0
 10
-10.87335
 20
-16.1878
 30
0.0
 10
-10.87497
 20
-16.20297
 30
0.0
 10
-10.87497
 20
-16.20297
 30
0.0
 10
-10.87666
 20
-16.21814
 30
0.0
 10
-10.87751
 20
-16.23416
 30
0.0
 10
-10.87744
 20
-16.25102
 30
0.0
 10
-10.87744
 20
-16.25102
 30
0.0
 10
-10.87751
 20
-16.26795
 30
0.0
 10
-10.87666
 20
-16.28397
 30
0.0
 10
-10.87497
 20
-16.29921
 30
0.0
 10
-10.87497
 20
-16.29921
 30
0.0
 10
-10.87335
 20
-16.31445
 30
0.0
 10
-10.87046
 20
-16.32835
 30
0.0
 10
-10.86643
 20
-16.34105
 30
0.0
 10
-10.86643
 20
-16.34105
 30
0.0
 10
-10.86234
 20
-16.35375
 30
0.0
 10
-10.85684
 20
-16.36476
 30
0.0
 10
-10.84985
 20
-16.37407
 30
0.0
 10
-10.84985
 20
-16.37407
 30
0.0
 10
-10.8428
 20
-16.38331
 30
0.0
 10
-10.83398
 20
-16.39058
 30
0.0
 10
-10.8234
 20
-16.39566
 30
0.0
 10
-10.8234
 20
-16.39566
 30
0.0
 10
-10.81274
 20
-16.40074
 30
0.0
 10
-10.79997
 20
-16.40335
 30
0.0
 10
-10.78515
 20
-16.40342
 30
0.0
  0
SPLINE
  5
75
330
1F
100
AcDbEntity
  8
Layer 1
 62
    30
370
    53
100
AcDbSpline
210
0.0
220
0.0
230
1.0
 70
    11
 71
     3
 72
    84
 73
    80
 74
     0
 42
0.0000000001
 43
0.0000000001
 40
0.0
 40
0.0
 40
0.0
 40
0.0
 40
0.05
 40
0.05
 40
0.05
 40
0.05
 40
0.1
 40
0.1
 40
0.1
 40
0.1
 40
0.15
 40
0.15
 40
0.15
 40
0.15
 40
0.2
 40
0.2
 40
0.2
 40
0.2
 40
0.25
 40
0.25
 40
0.25
 40
0.25
 40
0.3
 40
0.3
 40
0.3
 40
0.3
 40
0.35
 40
0.35
 40
0.35
 40
0.35
 40
0.4
 40
0.4
 40
0.4
 40
0.4
 40
0.45
 40
0.45
 40
0.45
 40
0.45
 40
0.4999999999999999
 40
0.4999999999999999
 40
0.4999999999999999
 40
0.4999999999999999
 40
0.5499999999999999
 40
0.5499999999999999
 40
0.5499999999999999
 40
0.5499999999999999
 40
0.6
 40
0.6
 40
0.6
 40
0.6
 40
0.65
 40
0.65
 40
0.65
 40
0.65
 40
0.7000000000000001
 40
0.7000000000000001
 40
0.7000000000000001
 40
0.7000000000000001
 40
0.7500000000000001
 40
0.7500000000000001
 40
0.7500000000000001
 40
0.7500000000000001
 40
0.8000000000000002
 40
0.8000000000000002
 40
0.8000000000000002
 40
0.8000000000000002
 40
0.8500000000000002
 40
0.8500000000000002
 40
0.8500000000000002
 40
0.8500000000000002
 40
0.9000000000000002
 40
0.9000000000000002
 40
0.9000000000000002
 40
0.9000000000000002
 40
0.9500000000000003
 40
0.9500000000000003
 40
0.9500000000000003
 40
0.9500000000000003
 40
1.0
 40
1.0
 40
1.0
 40
1.0
 10
-10.78515
 20
-16.40342
 30
0.0
 10
-10.77034
 20
-16.40335
 30
0.0
 10
-10.75757
 20
-16.40074
 30
0.0
 10
-10.74691
 20
-16.39566
 30
0.0
 10
-10.74691
 20
-16.39566
 30
0.0
 10
-10.73633
 20
-16.39058
 30
0.0
 10
-10.72751
 20
-16.38331
 30
0.0
 10
-10.72046
 20
-16.37407
 30
0.0
 10
-10.72046
 20
-16.37407
 30
0.0
 10
-10.71347
 20
-16.36476
 30
0.0
 10
-10.70797
 20
-16.35375
 30
0.0
 10
-10.70388
 20
-16.34105
 30
0.0
 10
-10.70388
 20
-16.34105
 30
0.0
 10
-10.69985
 20
-16.32835
 30
0.0
 10
-10.69696
 20
-16.31445
 30
0.0
 10
-10.69534
 20
-16.29921
 30
0.0
 10
-10.69534
 20
-16.29921
 30
0.0
 10
-10.69364
 20
-16.28397
 30
0.0
 10
-10.6928
 20
-16.26795
 30
0.0
 10
-10.69287
 20
-16.25102
 30
0.0
 10
-10.69287
 20
-16.25102
 30
0.0
 10
-10.6928
 20
-16.23416
 30
0.0
 10
-10.69364
 20
-16.21814
 30
0.0
 10
-10.69534
 20
-16.20297
 30
0.0
 10
-10.69534
 20
-16.20297
 30
0.0
 10
-10.69696
 20
-16.1878
 30
0.0
 10
-10.69985
 20
-16.17383
 30
0.0
 10
-10.70388
 20
-16.16113
 30
0.0
 10
-10.70388
 20
-16.16113
 30
0.0
 10
-10.70797
 20
-16.1485
 30
0.0
 10
-10.71347
 20
-16.1375
 30
0.0
 10
-10.72046
 20
-16.12811
 30
0.0
 10
-10.72046
 20
-16.12811
 30
0.0
 10
-10.72751
 20
-16.1188
 30
0.0
 10
-10.73633
 20
-16.11153
 30
0.0
 10
-10.74691
 20
-16.10645
 30
0.0
 10
-10.74691
 20
-16.10645
 30
0.0
 10
-10.75757
 20
-16.1013
 30
0.0
 10
-10.77034
 20
-16.09869
 30
0.0
 10
-10.78515
 20
-16.09862
 30
0.0
 10
-10.78515
 20
-16.09862
 30
0.0
 10
-10.79997
 20
-16.09869
 30
0.0
 10
-10.81274
 20
-16.1013
 30
0.0
 10
-10.8234
 20
-16.10645
 30
0.0
 10
-10.8234
 20
-16.10645
 30
0.0
 10
-10.83398
 20
-16.11153
 30
0.0
 10
-10.8428
 20
-16.1188
 30
0.0
 10
-10.84985
 20
-16.12811
 30
0.0
 10
-10.84985
 20
-16.12811
 30
0.0
 10
-10.85684
 20
-16.1375
 30
0.0
 10
-10.86234
 20
-16.1485
 30
0.0
 10
-10.86643
 20
-16.16113
 30
0.0
 10
-10.86643
 20
-16.16113
 30
0.0
 10
-10.87046
 20
-16.17383
 30
0.0
 10
-10.87335
 20
-16.1878
 30
0.0
 10
-10.87497
 20
-16.20297
 30
0.0
 10
-10.87497
 20
-16.20297
 30
0.0
 10
-10.87666
 20
-16.21814
 30
0.0
 10
-10.87751
 20
-16.23416
 30
0.0
 10
-10.87744
 20
-16.25102
 30
0.0
 10
-10.87744
 20
-16.25102
 30
0.0
 10
-10.87751
 20
-16.26795
 30
0.0
 10
-10.87666
 20
-16.28397
 30
0.0
 10
-10.87497
 20
-16.29921
 30
0.0
 10
-10.87497
 20
-16.29921
 30
0.0
 10
-10.87335
 20
-16.31445
 30
0.0
 10
-10.87046
 20
-16.32835
 30
0.0
 10
-10.86643
 20
-16.34105
 30
0.0
 10
-10.86643
 20
-16.34105
 30
0.0
 10
-10.86234
 20
-16.35375
 30
0.0
 10
-10.85684
 20
-16.36476
 30
0.0
 10
-10.84985
 20
-16.37407
 30
0.0
 10
-10.84985
 20
-16.37407
 30
0.0
 10
-10.8428
 20
-16.38331
 30
0.0
 10
-10.83398
 20
-16.39058
 30
0.0
 10
-10.8234
 20
-16.39566
 30
0.0
 10
-10.8234
 20
-16.39566
 30
0.0
 10
-10.81274
 20
-16.40074
 30
0.0
 10
-10.79997
 20
-16.40335
 30
0.0
 10
-10.78515
 20
-16.40342
 30
0.0
  0
SPLINE
  5
76
330
1F
100
AcDbEntity
  8
Layer 1
 62
    30
370
    53
100
AcDbSpline
210
0.0
220
0.0
230
1.0
 70
    11
 71
     3
 72
    68
 73
    64
 74
     0
 42
0.0000000001
 43
0.0000000001
 40
0.0
 40
0.0
 40
0.0
 40
0.0
 40
0.0625
 40
0.0625
 40
0.0625
 40
0.0625
 40
0.125
 40
0.125
 40
0.125
 40
0.125
 40
0.1875
 40
0.1875
 40
0.1875
 40
0.1875
 40
0.25
 40
0.25
 40
0.25
 40
0.25
 40
0.3125
 40
0.3125
 40
0.3125
 40
0.3125
 40
0.375
 40
0.375
 40
0.375
 40
0.375
 40
0.4375
 40
0.4375
 40
0.4375
 40
0.4375
 40
0.5
 40
0.5
 40
0.5
 40
0.5
 40
0.5625
 40
0.5625
 40
0.5625
 40
0.5625
 40
0.625
 40
0.625
 40
0.625
 40
0.625
 40
0.6875
 40
0.6875
 40
0.6875
 40
0.6875
 40
0.75
 40
0.75
 40
0.75
 40
0.75
 40
0.8125
 40
0.8125
 40
0.8125
 40
0.8125
 40
0.875
 40
0.875
 40
0.875
 40
0.875
 40
0.9375
 40
0.9375
 40
0.9375
 40
0.9375
 40
1.0
 40
1.0
 40
1.0
 40
1.0
 10
-10.50152
 20
-16.23959
 30
0.0
 10
-10.49066
 20
-16.23959
 30
0.0
 10
-10.4805
 20
-16.23832
 30
0.0
 10
-10.47097
 20
-16.23578
 30
0.0
 10
-10.47097
 20
-16.23578
 30
0.0
 10
-10.46152
 20
-16.23317
 30
0.0
 10
-10.45319
 20
-16.22908
 30
0.0
 10
-10.44593
 20
-16.2235
 30
0.0
 10
-10.44593
 20
-16.2235
 30
0.0
 10
-10.43873
 20
-16.21793
 30
0.0
 10
-10.43309
 20
-16.21066
 30
0.0
 10
-10.42899
 20
-16.2017
 30
0.0
 10
-10.42899
 20
-16.2017
 30
0.0
 10
-10.4249
 20
-16.19281
 30
0.0
 10
-10.42286
 20
-16.18202
 30
0.0
 10
-10.42279
 20
-16.16932
 30
0.0
 10
-10.42279
 20
-16.16932
 30
0.0
 10
-10.42286
 20
-16.15662
 30
0.0
 10
-10.42483
 20
-16.14575
 30
0.0
 10
-10.42871
 20
-16.13672
 30
0.0
 10
-10.42871
 20
-16.13672
 30
0.0
 10
-10.43259
 20
-16.12769
 30
0.0
 10
-10.4381
 20
-16.12028
 30
0.0
 10
-10.44515
 20
-16.11457
 30
0.0
 10
-10.44515
 20
-16.11457
 30
0.0
 10
-10.45221
 20
-16.10892
 30
0.0
 10
-10.46053
 20
-16.10476
 30
0.0
 10
-10.47013
 20
-16.10215
 30
0.0
 10
-10.47013
 20
-16.10215
 30
0.0
 10
-10.47965
 20
-16.09954
 30
0.0
 10
-10.49017
 20
-16.09841
 30
0.0
 10
-10.50152
 20
-16.09862
 30
0.0
 10
-10.50152
 20
-16.09862
 30
0.0
 10
-10.51288
 20
-16.09876
 30
0.0
 10
-10.5234
 20
-16.10025
 30
0.0
 10
-10.53292
 20
-16.10286
 30
0.0
 10
-10.53292
 20
-16.10286
 30
0.0
 10
-10.54252
 20
-16.10554
 30
0.0
 10
-10.55084
 20
-16.10963
 30
0.0
 10
-10.5579
 20
-16.1152
 30
0.0
 10
-10.5579
 20
-16.1152
 30
0.0
 10
-10.56495
 20
-16.12078
 30
0.0
 10
-10.57046
 20
-16.12804
 30
0.0
 10
-10.57434
 20
-16.13693
 30
0.0
 10
-10.57434
 20
-16.13693
 30
0.0
 10
-10.57822
 20
-16.14589
 30
0.0
 10
-10.58019
 20
-16.15662
 30
0.0
 10
-10.58026
 20
-16.16932
 30
0.0
 10
-10.58026
 20
-16.16932
 30
0.0
 10
-10.58019
 20
-16.18202
 30
0.0
 10
-10.57815
 20
-16.19281
 30
0.0
 10
-10.57405
 20
-16.2017
 30
0.0
 10
-10.57405
 20
-16.2017
 30
0.0
 10
-10.56996
 20
-16.21066
 30
0.0
 10
-10.56432
 20
-16.21793
 30
0.0
 10
-10.55705
 20
-16.2235
 30
0.0
 10
-10.55705
 20
-16.2235
 30
0.0
 10
-10.54985
 20
-16.22908
 30
0.0
 10
-10.54153
 20
-16.23317
 30
0.0
 10
-10.53207
 20
-16.23578
 30
0.0
 10
-10.53207
 20
-16.23578
 30
0.0
 10
-10.52255
 20
-16.23832
 30
0.0
 10
-10.51239
 20
-16.23959
 30
0.0
 10
-10.50152
 20
-16.23959
 30
0.0
  0
SPLINE
  5
77
330
1F
100
AcDbEntity
  8
Layer 1
 62
    30
370
    53
100
AcDbSpline
210
0.0
220
0.0
230
1.0
 70
    11
 71
     3
 72
    60
 73
    56
 74
     0
 42
0.0000000001
 43
0.0000000001
 40
0.0
 40
0.0
 40
0.0
 40
0.0
 40
0.0714285714285714
 40
0.0714285714285714
 40
0.0714285714285714
 40
0.0714285714285714
 40
0.1428571428571428
 40
0.1428571428571428
 40
0.1428571428571428
 40
0.1428571428571428
 40
0.2142857142857143
 40
0.2142857142857143
 40
0.2142857142857143
 40
0.2142857142857143
 40
0.2857142857142857
 40
0.2857142857142857
 40
0.2857142857142857
 40
0.2857142857142857
 40
0.3571428571428571
 40
0.3571428571428571
 40
0.3571428571428571
 40
0.3571428571428571
 40
0.4285714285714285
 40
0.4285714285714285
 40
0.4285714285714285
 40
0.4285714285714285
 40
0.4999999999999999
 40
0.4999999999999999
 40
0.4999999999999999
 40
0.4999999999999999
 40
0.5714285714285713
 40
0.5714285714285713
 40
0.5714285714285713
 40
0.5714285714285713
 40
0.6428571428571427
 40
0.6428571428571427
 40
0.6428571428571427
 40
0.6428571428571427
 40
0.7142857142857141
 40
0.7142857142857141
 40
0.7142857142857141
 40
0.7142857142857141
 40
0.7857142857142855
 40
0.7857142857142855
 40
0.7857142857142855
 40
0.7857142857142855
 40
0.8571428571428569
 40
0.8571428571428569
 40
0.8571428571428569
 40
0.8571428571428569
 40
0.9285714285714283
 40
0.9285714285714283
 40
0.9285714285714283
 40
0.9285714285714283
 40
1.0
 40
1.0
 40
1.0
 40
1.0
 10
-10.50152
 20
-16.40342
 30
0.0
 10
-10.48882
 20
-16.40342
 30
0.0
 10
-10.47697
 20
-16.40194
 30
0.0
 10
-10.46596
 20
-16.39883
 30
0.0
 10
-10.46596
 20
-16.39883
 30
0.0
 10
-10.45496
 20
-16.39573
 30
0.0
 10
-10.44529
 20
-16.39086
 30
0.0
 10
-10.4369
 20
-16.38423
 30
0.0
 10
-10.4369
 20
-16.38423
 30
0.0
 10
-10.42857
 20
-16.37767
 30
0.0
 10
-10.42201
 20
-16.3692
 30
0.0
 10
-10.41728
 20
-16.35876
 30
0.0
 10
-10.41728
 20
-16.35876
 30
0.0
 10
-10.41255
 20
-16.34839
 30
0.0
 10
-10.41016
 20
-16.3359
 30
0.0
 10
-10.41009
 20
-16.32129
 30
0.0
 10
-10.41009
 20
-16.32129
 30
0.0
 10
-10.41023
 20
-16.30189
 30
0.0
 10
-10.41404
 20
-16.28616
 30
0.0
 10
-10.42159
 20
-16.27416
 30
0.0
 10
-10.42159
 20
-16.27416
 30
0.0
 10
-10.42913
 20
-16.2621
 30
0.0
 10
-10.43972
 20
-16.25335
 30
0.0
 10
-10.45334
 20
-16.24778
 30
0.0
 10
-10.45334
 20
-16.24778
 30
0.0
 10
-10.46702
 20
-16.24227
 30
0.0
 10
-10.48304
 20
-16.23952
 30
0.0
 10
-10.50152
 20
-16.23959
 30
0.0
 10
-10.50152
 20
-16.23959
 30
0.0
 10
-10.51994
 20
-16.23952
 30
0.0
 10
-10.53603
 20
-16.24227
 30
0.0
 10
-10.54957
 20
-16.24778
 30
0.0
 10
-10.54957
 20
-16.24778
 30
0.0
 10
-10.56319
 20
-16.25335
 30
0.0
 10
-10.5737
 20
-16.2621
 30
0.0
 10
-10.58118
 20
-16.27416
 30
0.0
 10
-10.58118
 20
-16.27416
 30
0.0
 10
-10.58866
 20
-16.28616
 30
0.0
 10
-10.59247
 20
-16.30189
 30
0.0
 10
-10.59254
 20
-16.32129
 30
0.0
 10
-10.59254
 20
-16.32129
 30
0.0
 10
-10.59247
 20
-16.3359
 30
0.0
 10
-10.59007
 20
-16.34839
 30
0.0
 10
-10.58534
 20
-16.35876
 30
0.0
 10
-10.58534
 20
-16.35876
 30
0.0
 10
-10.58062
 20
-16.3692
 30
0.0
 10
-10.57413
 20
-16.37767
 30
0.0
 10
-10.56573
 20
-16.38423
 30
0.0
 10
-10.56573
 20
-16.38423
 30
0.0
 10
-10.5574
 20
-16.39086
 30
0.0
 10
-10.54781
 20
-16.39573
 30
0.0
 10
-10.5368
 20
-16.39883
 30
0.0
 10
-10.5368
 20
-16.39883
 30
0.0
 10
-10.52587
 20
-16.40194
 30
0.0
 10
-10.51408
 20
-16.40342
 30
0.0
 10
-10.50152
 20
-16.40342
 30
0.0
  0
SPLINE
  5
78
330
1F
100
AcDbEntity
  8
Layer 1
 62
    30
370
    53
100
AcDbSpline
210
0.0
220
0.0
230
1.0
 70
    11
 71
     3
 72
    68
 73
    64
 74
     0
 42
0.0000000001
 43
0.0000000001
 40
0.0
 40
0.0
 40
0.0
 40
0.0
 40
0.0625
 40
0.0625
 40
0.0625
 40
0.0625
 40
0.125
 40
0.125
 40
0.125
 40
0.125
 40
0.1875
 40
0.1875
 40
0.1875
 40
0.1875
 40
0.25
 40
0.25
 40
0.25
 40
0.25
 40
0.3125
 40
0.3125
 40
0.3125
 40
0.3125
 40
0.375
 40
0.375
 40
0.375
 40
0.375
 40
0.4375
 40
0.4375
 40
0.4375
 40
0.4375
 40
0.5
 40
0.5
 40
0.5
 40
0.5
 40
0.5625
 40
0.5625
 40
0.5625
 40
0.5625
 40
0.625
 40
0.625
 40
0.625
 40
0.625
 40
0.6875
 40
0.6875
 40
0.6875
 40
0.6875
 40
0.75
 40
0.75
 40
0.75
 40
0.75
 40
0.8125
 40
0.8125
 40
0.8125
 40
0.8125
 40
0.875
 40
0.875
 40
0.875
 40
0.875
 40
0.9375
 40
0.9375
 40
0.9375
 40
0.9375
 40
1.0
 40
1.0
 40
1.0
 40
1.0
 10
-10.50152
 20
-16.23959
 30
0.0
 10
-10.49066
 20
-16.23959
 30
0.0
 10
-10.4805
 20
-16.23832
 30
0.0
 10
-10.47097
 20
-16.23578
 30
0.0
 10
-10.47097
 20
-16.23578
 30
0.0
 10
-10.46152
 20
-16.23317
 30
0.0
 10
-10.45319
 20
-16.22908
 30
0.0
 10
-10.44593
 20
-16.2235
 30
0.0
 10
-10.44593
 20
-16.2235
 30
0.0
 10
-10.43873
 20
-16.21793
 30
0.0
 10
-10.43309
 20
-16.21066
 30
0.0
 10
-10.42899
 20
-16.2017
 30
0.0
 10
-10.42899
 20
-16.2017
 30
0.0
 10
-10.4249
 20
-16.19281
 30
0.0
 10
-10.42286
 20
-16.18202
 30
0.0
 10
-10.42279
 20
-16.16932
 30
0.0
 10
-10.42279
 20
-16.16932
 30
0.0
 10
-10.42286
 20
-16.15662
 30
0.0
 10
-10.42483
 20
-16.14575
 30
0.0
 10
-10.42871
 20
-16.13672
 30
0.0
 10
-10.42871
 20
-16.13672
 30
0.0
 10
-10.43259
 20
-16.12769
 30
0.0
 10
-10.4381
 20
-16.12028
 30
0.0
 10
-10.44515
 20
-16.11457
 30
0.0
 10
-10.44515
 20
-16.11457
 30
0.0
 10
-10.45221
 20
-16.10892
 30
0.0
 10
-10.46053
 20
-16.10476
 30
0.0
 10
-10.47013
 20
-16.10215
 30
0.0
 10
-10.47013
 20
-16.10215
 30
0.0
 10
-10.47965
 20
-16.09954
 30
0.0
 10
-10.49017
 20
-16.09841
 30
0.0
 10
-10.50152
 20
-16.09862
 30
0.0
 10
-10.50152
 20
-16.09862
 30
0.0
 10
-10.51288
 20
-16.09876
 30
0.0
 10
-10.5234
 20
-16.10025
 30
0.0
 10
-10.53292
 20
-16.10286
 30
0.0
 10
-10.53292
 20
-16.10286
 30
0.0
 10
-10.54252
 20
-16.10554
 30
0.0
 10
-10.55084
 20
-16.10963
 30
0.0
 10
-10.5579
 20
-16.1152
 30
0.0
 10
-10.5579
 20
-16.1152
 30
0.0
 10
-10.56495
 20
-16.12078
 30
0.0
 10
-10.57046
 20
-16.12804
 30
0.0
 10
-10.57434
 20
-16.13693
 30
0.0
 10
-10.57434
 20
-16.13693
 30
0.0
 10
-10.57822
 20
-16.14589
 30
0.0
 10
-10.58019
 20
-16.15662
 30
0.0
 10
-10.58026
 20
-16.16932
 30
0.0
 10
-10.58026
 20
-16.16932
 30
0.0
 10
-10.58019
 20
-16.18202
 30
0.0
 10
-10.57815
 20
-16.19281
 30
0.0
 10
-10.57405
 20
-16.2017
 30
0.0
 10
-10.57405
 20
-16.2017
 30
0.0
 10
-10.56996
 20
-16.21066
 30
0.0
 10
-10.56432
 20
-16.21793
 30
0.0
 10
-10.55705
 20
-16.2235
 30
0.0
 10
-10.55705
 20
-16.2235
 30
0.0
 10
-10.54985
 20
-16.22908
 30
0.0
 10
-10.54153
 20
-16.23317
 30
0.0
 10
-10.53207
 20
-16.23578
 30
0.0
 10
-10.53207
 20
-16.23578
 30
0.0
 10
-10.52255
 20
-16.23832
 30
0.0
 10
-10.51239
 20
-16.23959
 30
0.0
 10
-10.50152
 20
-16.23959
 30
0.0
  0
SPLINE
  5
79
330
1F
100
AcDbEntity
  8
Layer 1
 62
    30
370
    53
100
AcDbSpline
210
0.0
220
0.0
230
1.0
 70
    11
 71
     3
 72
    60
 73
    56
 74
     0
 42
0.0000000001
 43
0.0000000001
 40
0.0
 40
0.0
 40
0.0
 40
0.0
 40
0.0714285714285714
 40
0.0714285714285714
 40
0.0714285714285714
 40
0.0714285714285714
 40
0.1428571428571428
 40
0.1428571428571428
 40
0.1428571428571428
 40
0.1428571428571428
 40
0.2142857142857143
 40
0.2142857142857143
 40
0.2142857142857143
 40
0.2142857142857143
 40
0.2857142857142857
 40
0.2857142857142857
 40
0.2857142857142857
 40
0.2857142857142857
 40
0.3571428571428571
 40
0.3571428571428571
 40
0.3571428571428571
 40
0.3571428571428571
 40
0.4285714285714285
 40
0.4285714285714285
 40
0.4285714285714285
 40
0.4285714285714285
 40
0.4999999999999999
 40
0.4999999999999999
 40
0.4999999999999999
 40
0.4999999999999999
 40
0.5714285714285713
 40
0.5714285714285713
 40
0.5714285714285713
 40
0.5714285714285713
 40
0.6428571428571427
 40
0.6428571428571427
 40
0.6428571428571427
 40
0.6428571428571427
 40
0.7142857142857141
 40
0.7142857142857141
 40
0.7142857142857141
 40
0.7142857142857141
 40
0.7857142857142855
 40
0.7857142857142855
 40
0.7857142857142855
 40
0.7857142857142855
 40
0.8571428571428569
 40
0.8571428571428569
 40
0.8571428571428569
 40
0.8571428571428569
 40
0.9285714285714283
 40
0.9285714285714283
 40
0.9285714285714283
 40
0.9285714285714283
 40
1.0
 40
1.0
 40
1.0
 40
1.0
 10
-10.50152
 20
-16.40342
 30
0.0
 10
-10.48882
 20
-16.40342
 30
0.0
 10
-10.47697
 20
-16.40194
 30
0.0
 10
-10.46596
 20
-16.39883
 30
0.0
 10
-10.46596
 20
-16.39883
 30
0.0
 10
-10.45496
 20
-16.39573
 30
0.0
 10
-10.44529
 20
-16.39086
 30
0.0
 10
-10.4369
 20
-16.38423
 30
0.0
 10
-10.4369
 20
-16.38423
 30
0.0
 10
-10.42857
 20
-16.37767
 30
0.0
 10
-10.42201
 20
-16.3692
 30
0.0
 10
-10.41728
 20
-16.35876
 30
0.0
 10
-10.41728
 20
-16.35876
 30
0.0
 10
-10.41255
 20
-16.34839
 30
0.0
 10
-10.41016
 20
-16.3359
 30
0.0
 10
-10.41009
 20
-16.32129
 30
0.0
 10
-10.41009
 20
-16.32129
 30
0.0
 10
-10.41023
 20
-16.30189
 30
0.0
 10
-10.41404
 20
-16.28616
 30
0.0
 10
-10.42159
 20
-16.27416
 30
0.0
 10
-10.42159
 20
-16.27416
 30
0.0
 10
-10.42913
 20
-16.2621
 30
0.0
 10
-10.43972
 20
-16.25335
 30
0.0
 10
-10.45334
 20
-16.24778
 30
0.0
 10
-10.45334
 20
-16.24778
 30
0.0
 10
-10.46702
 20
-16.24227
 30
0.0
 10
-10.48304
 20
-16.23952
 30
0.0
 10
-10.50152
 20
-16.23959
 30
0.0
 10
-10.50152
 20
-16.23959
 30
0.0
 10
-10.51994
 20
-16.23952
 30
0.0
 10
-10.53603
 20
-16.24227
 30
0.0
 10
-10.54957
 20
-16.24778
 30
0.0
 10
-10.54957
 20
-16.24778
 30
0.0
 10
-10.56319
 20
-16.25335
 30
0.0
 10
-10.5737
 20
-16.2621
 30
0.0
 10
-10.58118
 20
-16.27416
 30
0.0
 10
-10.58118
 20
-16.27416
 30
0.0
 10
-10.58866
 20
-16.28616
 30
0.0
 10
-10.59247
 20
-16.30189
 30
0.0
 10
-10.59254
 20
-16.32129
 30
0.0
 10
-10.59254
 20
-16.32129
 30
0.0
 10
-10.59247
 20
-16.3359
 30
0.0
 10
-10.59007
 20
-16.34839
 30
0.0
 10
-10.58534
 20
-16.35876
 30
0.0
 10
-10.58534
 20
-16.35876
 30
0.0
 10
-10.58062
 20
-16.3692
 30
0.0
 10
-10.57413
 20
-16.37767
 30
0.0
 10
-10.56573
 20
-16.38423
 30
0.0
 10
-10.56573
 20
-16.38423
 30
0.0
 10
-10.5574
 20
-16.39086
 30
0.0
 10
-10.54781
 20
-16.39573
 30
0.0
 10
-10.5368
 20
-16.39883
 30
0.0
 10
-10.5368
 20
-16.39883
 30
0.0
 10
-10.52587
 20
-16.40194
 30
0.0
 10
-10.51408
 20
-16.40342
 30
0.0
 10
-10.50152
 20
-16.40342
 30
0.0
  0
SPLINE
  5
7A
330
1F
100
AcDbEntity
  8
Layer 1
 62
    30
370
    53
100
AcDbSpline
210
0.0
220
0.0
230
1.0
 70
    27
 71
     3
 72
    12
 73
     8
 74
     0
 42
0.0000000001
 43
0.0000000001
 40
0.0
 40
0.0
 40
0.0
 40
0.0
 40
0.5
 40
0.5
 40
0.5
 40
0.5
 40
1.0
 40
1.0
 40
1.0
 40
1.0
 10
-10.31018
 20
-16.24382
 30
0.0
 10
-10.31018
 20
-16.24382
 30
0.0
 10
-10.18699
 20
-16.24382
 30
0.0
 10
-10.18699
 20
-16.24382
 30
0.0
 10
-10.18699
 20
-16.24382
 30
0.0
 10
-10.18699
 20
-16.24382
 30
0.0
 10
-10.31018
 20
-16.24382
 30
0.0
 10
-10.31018
 20
-16.24382
 30
0.0
  0
SPLINE
  5
7B
330
1F
100
AcDbEntity
  8
Layer 1
 62
    30
370
    53
100
AcDbSpline
210
0.0
220
0.0
230
1.0
 70
    11
 71
     3
 72
    84
 73
    80
 74
     0
 42
0.0000000001
 43
0.0000000001
 40
0.0
 40
0.0
 40
0.0
 40
0.0
 40
0.05
 40
0.05
 40
0.05
 40
0.05
 40
0.1
 40
0.1
 40
0.1
 40
0.1
 40
0.15
 40
0.15
 40
0.15
 40
0.15
 40
0.2
 40
0.2
 40
0.2
 40
0.2
 40
0.25
 40
0.25
 40
0.25
 40
0.25
 40
0.3
 40
0.3
 40
0.3
 40
0.3
 40
0.35
 40
0.35
 40
0.35
 40
0.35
 40
0.4
 40
0.4
 40
0.4
 40
0.4
 40
0.45
 40
0.45
 40
0.45
 40
0.45
 40
0.4999999999999999
 40
0.4999999999999999
 40
0.4999999999999999
 40
0.4999999999999999
 40
0.5499999999999999
 40
0.5499999999999999
 40
0.5499999999999999
 40
0.5499999999999999
 40
0.6
 40
0.6
 40
0.6
 40
0.6
 40
0.65
 40
0.65
 40
0.65
 40
0.65
 40
0.7000000000000001
 40
0.7000000000000001
 40
0.7000000000000001
 40
0.7000000000000001
 40
0.7500000000000001
 40
0.7500000000000001
 40
0.7500000000000001
 40
0.7500000000000001
 40
0.8000000000000002
 40
0.8000000000000002
 40
0.8000000000000002
 40
0.8000000000000002
 40
0.8500000000000002
 40
0.8500000000000002
 40
0.8500000000000002
 40
0.8500000000000002
 40
0.9000000000000002
 40
0.9000000000000002
 40
0.9000000000000002
 40
0.9000000000000002
 40
0.9500000000000003
 40
0.9500000000000003
 40
0.9500000000000003
 40
0.9500000000000003
 40
1.0
 40
1.0
 40
1.0
 40
1.0
 10
-9.99776
 20
-16.40342
 30
0.0
 10
-9.98295
 20
-16.40335
 30
0.0
 10
-9.97018
 20
-16.40074
 30
0.0
 10
-9.95952
 20
-16.39566
 30
0.0
 10
-9.95952
 20
-16.39566
 30
0.0
 10
-9.94894
 20
-16.39058
 30
0.0
 10
-9.94012
 20
-16.38331
 30
0.0
 10
-9.93307
 20
-16.37407
 30
0.0
 10
-9.93307
 20
-16.37407
 30
0.0
 10
-9.92608
 20
-16.36476
 30
0.0
 10
-9.92058
 20
-16.35375
 30
0.0
 10
-9.91649
 20
-16.34105
 30
0.0
 10
-9.91649
 20
-16.34105
 30
0.0
 10
-9.91246
 20
-16.32835
 30
0.0
 10
-9.90957
 20
-16.31445
 30
0.0
 10
-9.90795
 20
-16.29921
 30
0.0
 10
-9.90795
 20
-16.29921
 30
0.0
 10
-9.90625
 20
-16.28397
 30
0.0
 10
-9.90541
 20
-16.26795
 30
0.0
 10
-9.90548
 20
-16.25102
 30
0.0
 10
-9.90548
 20
-16.25102
 30
0.0
 10
-9.90541
 20
-16.23416
 30
0.0
 10
-9.90625
 20
-16.21814
 30
0.0
 10
-9.90795
 20
-16.20297
 30
0.0
 10
-9.90795
 20
-16.20297
 30
0.0
 10
-9.90957
 20
-16.1878
 30
0.0
 10
-9.91246
 20
-16.17383
 30
0.0
 10
-9.91649
 20
-16.16113
 30
0.0
 10
-9.91649
 20
-16.16113
 30
0.0
 10
-9.92058
 20
-16.1485
 30
0.0
 10
-9.92608
 20
-16.1375
 30
0.0
 10
-9.93307
 20
-16.12811
 30
0.0
 10
-9.93307
 20
-16.12811
 30
0.0
 10
-9.94012
 20
-16.1188
 30
0.0
 10
-9.94894
 20
-16.11153
 30
0.0
 10
-9.95952
 20
-16.10645
 30
0.0
 10
-9.95952
 20
-16.10645
 30
0.0
 10
-9.97018
 20
-16.1013
 30
0.0
 10
-9.98295
 20
-16.09869
 30
0.0
 10
-9.99776
 20
-16.09862
 30
0.0
 10
-9.99776
 20
-16.09862
 30
0.0
 10
-10.01258
 20
-16.09869
 30
0.0
 10
-10.02535
 20
-16.1013
 30
0.0
 10
-10.03601
 20
-16.10645
 30
0.0
 10
-10.03601
 20
-16.10645
 30
0.0
 10
-10.04659
 20
-16.11153
 30
0.0
 10
-10.05541
 20
-16.1188
 30
0.0
 10
-10.06246
 20
-16.12811
 30
0.0
 10
-10.06246
 20
-16.12811
 30
0.0
 10
-10.06945
 20
-16.1375
 30
0.0
 10
-10.07495
 20
-16.1485
 30
0.0
 10
-10.07904
 20
-16.16113
 30
0.0
 10
-10.07904
 20
-16.16113
 30
0.0
 10
-10.08307
 20
-16.17383
 30
0.0
 10
-10.08596
 20
-16.1878
 30
0.0
 10
-10.08758
 20
-16.20297
 30
0.0
 10
-10.08758
 20
-16.20297
 30
0.0
 10
-10.08927
 20
-16.21814
 30
0.0
 10
-10.09012
 20
-16.23416
 30
0.0
 10
-10.09005
 20
-16.25102
 30
0.0
 10
-10.09005
 20
-16.25102
 30
0.0
 10
-10.09012
 20
-16.26795
 30
0.0
 10
-10.08927
 20
-16.28397
 30
0.0
 10
-10.08758
 20
-16.29921
 30
0.0
 10
-10.08758
 20
-16.29921
 30
0.0
 10
-10.08596
 20
-16.31445
 30
0.0
 10
-10.08307
 20
-16.32835
 30
0.0
 10
-10.07904
 20
-16.34105
 30
0.0
 10
-10.07904
 20
-16.34105
 30
0.0
 10
-10.07495
 20
-16.35375
 30
0.0
 10
-10.06945
 20
-16.36476
 30
0.0
 10
-10.06246
 20
-16.37407
 30
0.0
 10
-10.06246
 20
-16.37407
 30
0.0
 10
-10.05541
 20
-16.38331
 30
0.0
 10
-10.04659
 20
-16.39058
 30
0.0
 10
-10.03601
 20
-16.39566
 30
0.0
 10
-10.03601
 20
-16.39566
 30
0.0
 10
-10.02535
 20
-16.40074
 30
0.0
 10
-10.01258
 20
-16.40335
 30
0.0
 10
-9.99776
 20
-16.40342
 30
0.0
  0
SPLINE
  5
7C
330
1F
100
AcDbEntity
  8
Layer 1
 62
    30
370
    53
100
AcDbSpline
210
0.0
220
0.0
230
1.0
 70
    11
 71
     3
 72
    84
 73
    80
 74
     0
 42
0.0000000001
 43
0.0000000001
 40
0.0
 40
0.0
 40
0.0
 40
0.0
 40
0.05
 40
0.05
 40
0.05
 40
0.05
 40
0.1
 40
0.1
 40
0.1
 40
0.1
 40
0.15
 40
0.15
 40
0.15
 40
0.15
 40
0.2
 40
0.2
 40
0.2
 40
0.2
 40
0.25
 40
0.25
 40
0.25
 40
0.25
 40
0.3
 40
0.3
 40
0.3
 40
0.3
 40
0.35
 40
0.35
 40
0.35
 40
0.35
 40
0.4
 40
0.4
 40
0.4
 40
0.4
 40
0.45
 40
0.45
 40
0.45
 40
0.45
 40
0.4999999999999999
 40
0.4999999999999999
 40
0.4999999999999999
 40
0.4999999999999999
 40
0.5499999999999999
 40
0.5499999999999999
 40
0.5499999999999999
 40
0.5499999999999999
 40
0.6
 40
0.6
 40
0.6
 40
0.6
 40
0.65
 40
0.65
 40
0.65
 40
0.65
 40
0.7000000000000001
 40
0.7000000000000001
 40
0.7000000000000001
 40
0.7000000000000001
 40
0.7500000000000001
 40
0.7500000000000001
 40
0.7500000000000001
 40
0.7500000000000001
 40
0.8000000000000002
 40
0.8000000000000002
 40
0.8000000000000002
 40
0.8000000000000002
 40
0.8500000000000002
 40
0.8500000000000002
 40
0.8500000000000002
 40
0.8500000000000002
 40
0.9000000000000002
 40
0.9000000000000002
 40
0.9000000000000002
 40
0.9000000000000002
 40
0.9500000000000003
 40
0.9500000000000003
 40
0.9500000000000003
 40
0.9500000000000003
 40
1.0
 40
1.0
 40
1.0
 40
1.0
 10
-9.99776
 20
-16.40342
 30
0.0
 10
-9.98295
 20
-16.40335
 30
0.0
 10
-9.97018
 20
-16.40074
 30
0.0
 10
-9.95952
 20
-16.39566
 30
0.0
 10
-9.95952
 20
-16.39566
 30
0.0
 10
-9.94894
 20
-16.39058
 30
0.0
 10
-9.94012
 20
-16.38331
 30
0.0
 10
-9.93307
 20
-16.37407
 30
0.0
 10
-9.93307
 20
-16.37407
 30
0.0
 10
-9.92608
 20
-16.36476
 30
0.0
 10
-9.92058
 20
-16.35375
 30
0.0
 10
-9.91649
 20
-16.34105
 30
0.0
 10
-9.91649
 20
-16.34105
 30
0.0
 10
-9.91246
 20
-16.32835
 30
0.0
 10
-9.90957
 20
-16.31445
 30
0.0
 10
-9.90795
 20
-16.29921
 30
0.0
 10
-9.90795
 20
-16.29921
 30
0.0
 10
-9.90625
 20
-16.28397
 30
0.0
 10
-9.90541
 20
-16.26795
 30
0.0
 10
-9.90548
 20
-16.25102
 30
0.0
 10
-9.90548
 20
-16.25102
 30
0.0
 10
-9.90541
 20
-16.23416
 30
0.0
 10
-9.90625
 20
-16.21814
 30
0.0
 10
-9.90795
 20
-16.20297
 30
0.0
 10
-9.90795
 20
-16.20297
 30
0.0
 10
-9.90957
 20
-16.1878
 30
0.0
 10
-9.91246
 20
-16.17383
 30
0.0
 10
-9.91649
 20
-16.16113
 30
0.0
 10
-9.91649
 20
-16.16113
 30
0.0
 10
-9.92058
 20
-16.1485
 30
0.0
 10
-9.92608
 20
-16.1375
 30
0.0
 10
-9.93307
 20
-16.12811
 30
0.0
 10
-9.93307
 20
-16.12811
 30
0.0
 10
-9.94012
 20
-16.1188
 30
0.0
 10
-9.94894
 20
-16.11153
 30
0.0
 10
-9.95952
 20
-16.10645
 30
0.0
 10
-9.95952
 20
-16.10645
 30
0.0
 10
-9.97018
 20
-16.1013
 30
0.0
 10
-9.98295
 20
-16.09869
 30
0.0
 10
-9.99776
 20
-16.09862
 30
0.0
 10
-9.99776
 20
-16.09862
 30
0.0
 10
-10.01258
 20
-16.09869
 30
0.0
 10
-10.02535
 20
-16.1013
 30
0.0
 10
-10.03601
 20
-16.10645
 30
0.0
 10
-10.03601
 20
-16.10645
 30
0.0
 10
-10.04659
 20
-16.11153
 30
0.0
 10
-10.05541
 20
-16.1188
 30
0.0
 10
-10.06246
 20
-16.12811
 30
0.0
 10
-10.06246
 20
-16.12811
 30
0.0
 10
-10.06945
 20
-16.1375
 30
0.0
 10
-10.07495
 20
-16.1485
 30
0.0
 10
-10.07904
 20
-16.16113
 30
0.0
 10
-10.07904
 20
-16.16113
 30
0.0
 10
-10.08307
 20
-16.17383
 30
0.0
 10
-10.08596
 20
-16.1878
 30
0.0
 10
-10.08758
 20
-16.20297
 30
0.0
 10
-10.08758
 20
-16.20297
 30
0.0
 10
-10.08927
 20
-16.21814
 30
0.0
 10
-10.09012
 20
-16.23416
 30
0.0
 10
-10.09005
 20
-16.25102
 30
0.0
 10
-10.09005
 20
-16.25102
 30
0.0
 10
-10.09012
 20
-16.26795
 30
0.0
 10
-10.08927
 20
-16.28397
 30
0.0
 10
-10.08758
 20
-16.29921
 30
0.0
 10
-10.08758
 20
-16.29921
 30
0.0
 10
-10.08596
 20
-16.31445
 30
0.0
 10
-10.08307
 20
-16.32835
 30
0.0
 10
-10.07904
 20
-16.34105
 30
0.0
 10
-10.07904
 20
-16.34105
 30
0.0
 10
-10.07495
 20
-16.35375
 30
0.0
 10
-10.06945
 20
-16.36476
 30
0.0
 10
-10.06246
 20
-16.37407
 30
0.0
 10
-10.06246
 20
-16.37407
 30
0.0
 10
-10.05541
 20
-16.38331
 30
0.0
 10
-10.04659
 20
-16.39058
 30
0.0
 10
-10.03601
 20
-16.39566
 30
0.0
 10
-10.03601
 20
-16.39566
 30
0.0
 10
-10.02535
 20
-16.40074
 30
0.0
 10
-10.01258
 20
-16.40335
 30
0.0
 10
-9.99776
 20
-16.40342
 30
0.0
  0
SPLINE
  5
7D
330
1F
100
AcDbEntity
  8
Layer 1
 62
    30
370
    53
100
AcDbSpline
210
0.0
220
0.0
230
1.0
 70
    11
 71
     3
 72
   180
 73
   176
 74
     0
 42
0.0000000001
 43
0.0000000001
 40
0.0
 40
0.0
 40
0.0
 40
0.0
 40
0.0227272727272727
 40
0.0227272727272727
 40
0.0227272727272727
 40
0.0227272727272727
 40
0.0454545454545455
 40
0.0454545454545455
 40
0.0454545454545455
 40
0.0454545454545455
 40
0.0681818181818182
 40
0.0681818181818182
 40
0.0681818181818182
 40
0.0681818181818182
 40
0.0909090909090909
 40
0.0909090909090909
 40
0.0909090909090909
 40
0.0909090909090909
 40
0.1136363636363636
 40
0.1136363636363636
 40
0.1136363636363636
 40
0.1136363636363636
 40
0.1363636363636364
 40
0.1363636363636364
 40
0.1363636363636364
 40
0.1363636363636364
 40
0.1590909090909091
 40
0.1590909090909091
 40
0.1590909090909091
 40
0.1590909090909091
 40
0.1818181818181819
 40
0.1818181818181819
 40
0.1818181818181819
 40
0.1818181818181819
 40
0.2045454545454546
 40
0.2045454545454546
 40
0.2045454545454546
 40
0.2045454545454546
 40
0.2272727272727273
 40
0.2272727272727273
 40
0.2272727272727273
 40
0.2272727272727273
 40
0.2500000000000001
 40
0.2500000000000001
 40
0.2500000000000001
 40
0.2500000000000001
 40
0.2727272727272728
 40
0.2727272727272728
 40
0.2727272727272728
 40
0.2727272727272728
 40
0.2954545454545455
 40
0.2954545454545455
 40
0.2954545454545455
 40
0.2954545454545455
 40
0.3181818181818182
 40
0.3181818181818182
 40
0.3181818181818182
 40
0.3181818181818182
 40
0.3409090909090909
 40
0.3409090909090909
 40
0.3409090909090909
 40
0.3409090909090909
 40
0.3636363636363636
 40
0.3636363636363636
 40
0.3636363636363636
 40
0.3636363636363636
 40
0.3863636363636363
 40
0.3863636363636363
 40
0.3863636363636363
 40
0.3863636363636363
 40
0.409090909090909
 40
0.409090909090909
 40
0.409090909090909
 40
0.409090909090909
 40
0.4318181818181817
 40
0.4318181818181817
 40
0.4318181818181817
 40
0.4318181818181817
 40
0.4545454545454544
 40
0.4545454545454544
 40
0.4545454545454544
 40
0.4545454545454544
 40
0.4772727272727271
 40
0.4772727272727271
 40
0.4772727272727271
 40
0.4772727272727271
 40
0.4999999999999998
 40
0.4999999999999998
 40
0.4999999999999998
 40
0.4999999999999998
 40
0.5227272727272726
 40
0.5227272727272726
 40
0.5227272727272726
 40
0.5227272727272726
 40
0.5454545454545453
 40
0.5454545454545453
 40
0.5454545454545453
 40
0.5454545454545453
 40
0.568181818181818
 40
0.568181818181818
 40
0.568181818181818
 40
0.568181818181818
 40
0.5909090909090907
 40
0.5909090909090907
 40
0.5909090909090907
 40
0.5909090909090907
 40
0.6136363636363634
 40
0.6136363636363634
 40
0.6136363636363634
 40
0.6136363636363634
 40
0.6363636363636361
 40
0.6363636363636361
 40
0.6363636363636361
 40
0.6363636363636361
 40
0.6590909090909088
 40
0.6590909090909088
 40
0.6590909090909088
 40
0.6590909090909088
 40
0.6818181818181815
 40
0.6818181818181815
 40
0.6818181818181815
 40
0.6818181818181815
 40
0.7045454545454543
 40
0.7045454545454543
 40
0.7045454545454543
 40
0.7045454545454543
 40
0.727272727272727
 40
0.727272727272727
 40
0.727272727272727
 40
0.727272727272727
 40
0.7499999999999997
 40
0.7499999999999997
 40
0.7499999999999997
 40
0.7499999999999997
 40
0.7727272727272724
 40
0.7727272727272724
 40
0.7727272727272724
 40
0.7727272727272724
 40
0.7954545454545451
 40
0.7954545454545451
 40
0.7954545454545451
 40
0.7954545454545451
 40
0.8181818181818178
 40
0.8181818181818178
 40
0.8181818181818178
 40
0.8181818181818178
 40
0.8409090909090905
 40
0.8409090909090905
 40
0.8409090909090905
 40
0.8409090909090905
 40
0.8636363636363632
 40
0.8636363636363632
 40
0.8636363636363632
 40
0.8636363636363632
 40
0.8863636363636359
 40
0.8863636363636359
 40
0.8863636363636359
 40
0.8863636363636359
 40
0.9090909090909086
 40
0.9090909090909086
 40
0.9090909090909086
 40
0.9090909090909086
 40
0.9318181818181813
 40
0.9318181818181813
 40
0.9318181818181813
 40
0.9318181818181813
 40
0.954545454545454
 40
0.954545454545454
 40
0.954545454545454
 40
0.954545454545454
 40
0.9772727272727267
 40
0.9772727272727267
 40
0.9772727272727267
 40
0.9772727272727267
 40
1.0
 40
1.0
 40
1.0
 40
1.0
 10
-9.6337
 20
-16.0982
 30
0.0
 10
-9.6337
 20
-16.0982
 30
0.0
 10
-9.7607
 20
-16.0982
 30
0.0
 10
-9.7607
 20
-16.0982
 30
0.0
 10
-9.7607
 20
-16.0982
 30
0.0
 10
-9.7607
 20
-16.0982
 30
0.0
 10
-9.79457
 20
-16.24975
 30
0.0
 10
-9.79457
 20
-16.24975
 30
0.0
 10
-9.79457
 20
-16.24975
 30
0.0
 10
-9.78864
 20
-16.24467
 30
0.0
 10
-9.783
 20
-16.24009
 30
0.0
 10
-9.77756
 20
-16.23606
 30
0.0
 10
-9.77756
 20
-16.23606
 30
0.0
 10
-9.7722
 20
-16.23204
 30
0.0
 10
-9.76656
 20
-16.22866
 30
0.0
 10
-9.76056
 20
-16.22583
 30
0.0
 10
-9.76056
 20
-16.22583
 30
0.0
 10
-9.75463
 20
-16.22301
 30
0.0
 10
-9.74786
 20
-16.22089
 30
0.0
 10
-9.74024
 20
-16.21941
 30
0.0
 10
-9.74024
 20
-16.21941
 30
0.0
 10
-9.73269
 20
-16.21793
 30
0.0
 10
-9.72366
 20
-16.21715
 30
0.0
 10
-9.71329
 20
-16.21715
 30
0.0
 10
-9.71329
 20
-16.21715
 30
0.0
 10
-9.70482
 20
-16.21715
 30
0.0
 10
-9.69635
 20
-16.21828
 30
0.0
 10
-9.68789
 20
-16.22061
 30
0.0
 10
-9.68789
 20
-16.22061
 30
0.0
 10
-9.67942
 20
-16.22287
 30
0.0
 10
-9.67138
 20
-16.22633
 30
0.0
 10
-9.66376
 20
-16.23091
 30
0.0
 10
-9.66376
 20
-16.23091
 30
0.0
 10
-9.65607
 20
-16.23557
 30
0.0
 10
-9.64929
 20
-16.24136
 30
0.0
 10
-9.64337
 20
-16.24834
 30
0.0
 10
-9.64337
 20
-16.24834
 30
0.0
 10
-9.63737
 20
-16.25533
 30
0.0
 10
-9.63264
 20
-16.26351
 30
0.0
 10
-9.62926
 20
-16.27289
 30
0.0
 10
-9.62926
 20
-16.27289
 30
0.0
 10
-9.6258
 20
-16.28228
 30
0.0
 10
-9.62404
 20
-16.29293
 30
0.0
 10
-9.62397
 20
-16.30478
 30
0.0
 10
-9.62397
 20
-16.30478
 30
0.0
 10
-9.62389
 20
-16.30916
 30
0.0
 10
-9.62439
 20
-16.31466
 30
0.0
 10
-9.62538
 20
-16.32115
 30
0.0
 10
-9.62538
 20
-16.32115
 30
0.0
 10
-9.62629
 20
-16.32764
 30
0.0
 10
-9.62799
 20
-16.3347
 30
0.0
 10
-9.63039
 20
-16.34218
 30
0.0
 10
-9.63039
 20
-16.34218
 30
0.0
 10
-9.63278
 20
-16.34966
 30
0.0
 10
-9.63617
 20
-16.35707
 30
0.0
 10
-9.64047
 20
-16.3644
 30
0.0
 10
-9.64047
 20
-16.3644
 30
0.0
 10
-9.64478
 20
-16.37174
 30
0.0
 10
-9.65028
 20
-16.37844
 30
0.0
 10
-9.65691
 20
-16.38451
 30
0.0
 10
-9.65691
 20
-16.38451
 30
0.0
 10
-9.66355
 20
-16.39058
 30
0.0
 10
-9.67159
 20
-16.39545
 30
0.0
 10
-9.68097
 20
-16.39912
 30
0.0
 10
-9.68097
 20
-16.39912
 30
0.0
 10
-9.69043
 20
-16.40271
 30
0.0
 10
-9.70151
 20
-16.40462
 30
0.0
 10
-9.71413
 20
-16.40469
 30
0.0
 10
-9.71413
 20
-16.40469
 30
0.0
 10
-9.72923
 20
-16.40462
 30
0.0
 10
-9.74193
 20
-16.403
 30
0.0
 10
-9.75223
 20
-16.39996
 30
0.0
 10
-9.75223
 20
-16.39996
 30
0.0
 10
-9.76254
 20
-16.39686
 30
0.0
 10
-9.77093
 20
-16.39284
 30
0.0
 10
-9.77742
 20
-16.38776
 30
0.0
 10
-9.77742
 20
-16.38776
 30
0.0
 10
-9.78398
 20
-16.38268
 30
0.0
 10
-9.78906
 20
-16.3771
 30
0.0
 10
-9.79273
 20
-16.37104
 30
0.0
 10
-9.79273
 20
-16.37104
 30
0.0
 10
-9.7964
 20
-16.36497
 30
0.0
 10
-9.79915
 20
-16.3589
 30
0.0
 10
-9.80099
 20
-16.35283
 30
0.0
 10
-9.80099
 20
-16.35283
 30
0.0
 10
-9.80282
 20
-16.34676
 30
0.0
 10
-9.80423
 20
-16.34119
 30
0.0
 10
-9.80515
 20
-16.33611
 30
0.0
 10
-9.80515
 20
-16.33611
 30
0.0
 10
-9.80423
 20
-16.34119
 30
0.0
 10
-9.80282
 20
-16.34676
 30
0.0
 10
-9.80099
 20
-16.35283
 30
0.0
 10
-9.80099
 20
-16.35283
 30
0.0
 10
-9.79915
 20
-16.3589
 30
0.0
 10
-9.7964
 20
-16.36497
 30
0.0
 10
-9.79273
 20
-16.37104
 30
0.0
 10
-9.79273
 20
-16.37104
 30
0.0
 10
-9.78906
 20
-16.3771
 30
0.0
 10
-9.78398
 20
-16.38268
 30
0.0
 10
-9.77742
 20
-16.38776
 30
0.0
 10
-9.77742
 20
-16.38776
 30
0.0
 10
-9.77093
 20
-16.39284
 30
0.0
 10
-9.76254
 20
-16.39686
 30
0.0
 10
-9.75223
 20
-16.39996
 30
0.0
 10
-9.75223
 20
-16.39996
 30
0.0
 10
-9.74193
 20
-16.403
 30
0.0
 10
-9.72923
 20
-16.40462
 30
0.0
 10
-9.71413
 20
-16.40469
 30
0.0
 10
-9.71413
 20
-16.40469
 30
0.0
 10
-9.70151
 20
-16.40462
 30
0.0
 10
-9.69043
 20
-16.40271
 30
0.0
 10
-9.68097
 20
-16.39912
 30
0.0
 10
-9.68097
 20
-16.39912
 30
0.0
 10
-9.67159
 20
-16.39545
 30
0.0
 10
-9.66355
 20
-16.39058
 30
0.0
 10
-9.65691
 20
-16.38451
 30
0.0
 10
-9.65691
 20
-16.38451
 30
0.0
 10
-9.65028
 20
-16.37844
 30
0.0
 10
-9.64478
 20
-16.37174
 30
0.0
 10
-9.64047
 20
-16.3644
 30
0.0
 10
-9.64047
 20
-16.3644
 30
0.0
 10
-9.63617
 20
-16.35707
 30
0.0
 10
-9.63278
 20
-16.34966
 30
0.0
 10
-9.63039
 20
-16.34218
 30
0.0
 10
-9.63039
 20
-16.34218
 30
0.0
 10
-9.62799
 20
-16.3347
 30
0.0
 10
-9.62629
 20
-16.32764
 30
0.0
 10
-9.62538
 20
-16.32115
 30
0.0
 10
-9.62538
 20
-16.32115
 30
0.0
 10
-9.62439
 20
-16.31466
 30
0.0
 10
-9.62389
 20
-16.30916
 30
0.0
 10
-9.62397
 20
-16.30478
 30
0.0
 10
-9.62397
 20
-16.30478
 30
0.0
 10
-9.62404
 20
-16.29293
 30
0.0
 10
-9.6258
 20
-16.28228
 30
0.0
 10
-9.62926
 20
-16.27289
 30
0.0
 10
-9.62926
 20
-16.27289
 30
0.0
 10
-9.63264
 20
-16.26351
 30
0.0
 10
-9.63737
 20
-16.25533
 30
0.0
 10
-9.64337
 20
-16.24834
 30
0.0
 10
-9.64337
 20
-16.24834
 30
0.0
 10
-9.64929
 20
-16.24136
 30
0.0
 10
-9.65607
 20
-16.23557
 30
0.0
 10
-9.66376
 20
-16.23091
 30
0.0
 10
-9.66376
 20
-16.23091
 30
0.0
 10
-9.67138
 20
-16.22633
 30
0.0
 10
-9.67942
 20
-16.22287
 30
0.0
 10
-9.68789
 20
-16.22061
 30
0.0
 10
-9.68789
 20
-16.22061
 30
0.0
 10
-9.69635
 20
-16.21828
 30
0.0
 10
-9.70482
 20
-16.21715
 30
0.0
 10
-9.71329
 20
-16.21715
 30
0.0
 10
-9.71329
 20
-16.21715
 30
0.0
 10
-9.72366
 20
-16.21715
 30
0.0
 10
-9.73269
 20
-16.21793
 30
0.0
 10
-9.74024
 20
-16.21941
 30
0.0
 10
-9.74024
 20
-16.21941
 30
0.0
 10
-9.74786
 20
-16.22089
 30
0.0
 10
-9.75463
 20
-16.22301
 30
0.0
 10
-9.76056
 20
-16.22583
 30
0.0
 10
-9.76056
 20
-16.22583
 30
0.0
 10
-9.76656
 20
-16.22866
 30
0.0
 10
-9.7722
 20
-16.23204
 30
0.0
 10
-9.77756
 20
-16.23606
 30
0.0
 10
-9.77756
 20
-16.23606
 30
0.0
 10
-9.783
 20
-16.24009
 30
0.0
 10
-9.78864
 20
-16.24467
 30
0.0
 10
-9.79457
 20
-16.24975
 30
0.0
 10
-9.79457
 20
-16.24975
 30
0.0
 10
-9.79457
 20
-16.24975
 30
0.0
 10
-9.7607
 20
-16.0982
 30
0.0
 10
-9.7607
 20
-16.0982
 30
0.0
 10
-9.7607
 20
-16.0982
 30
0.0
 10
-9.7607
 20
-16.0982
 30
0.0
 10
-9.6337
 20
-16.0982
 30
0.0
 10
-9.6337
 20
-16.0982
 30
0.0
  0
SPLINE
  5
7E
330
1F
100
AcDbEntity
  8
Layer 1
 62
    30
370
    53
100
AcDbSpline
210
0.0
220
0.0
230
1.0
 70
    27
 71
     3
 72
    12
 73
     8
 74
     0
 42
0.0000000001
 43
0.0000000001
 40
0.0
 40
0.0
 40
0.0
 40
0.0
 40
0.5
 40
0.5
 40
0.5
 40
0.5
 40
1.0
 40
1.0
 40
1.0
 40
1.0
 10
-9.52406
 20
-16.24382
 30
0.0
 10
-9.52406
 20
-16.24382
 30
0.0
 10
-9.40087
 20
-16.24382
 30
0.0
 10
-9.40087
 20
-16.24382
 30
0.0
 10
-9.40087
 20
-16.24382
 30
0.0
 10
-9.40087
 20
-16.24382
 30
0.0
 10
-9.52406
 20
-16.24382
 30
0.0
 10
-9.52406
 20
-16.24382
 30
0.0
  0
SPLINE
  5
7F
330
1F
100
AcDbEntity
  8
Layer 1
 62
    30
370
    53
100
AcDbSpline
210
0.0
220
0.0
230
1.0
 70
    11
 71
     3
 72
    84
 73
    80
 74
     0
 42
0.0000000001
 43
0.0000000001
 40
0.0
 40
0.0
 40
0.0
 40
0.0
 40
0.05
 40
0.05
 40
0.05
 40
0.05
 40
0.1
 40
0.1
 40
0.1
 40
0.1
 40
0.15
 40
0.15
 40
0.15
 40
0.15
 40
0.2
 40
0.2
 40
0.2
 40
0.2
 40
0.25
 40
0.25
 40
0.25
 40
0.25
 40
0.3
 40
0.3
 40
0.3
 40
0.3
 40
0.35
 40
0.35
 40
0.35
 40
0.35
 40
0.4
 40
0.4
 40
0.4
 40
0.4
 40
0.45
 40
0.45
 40
0.45
 40
0.45
 40
0.4999999999999999
 40
0.4999999999999999
 40
0.4999999999999999
 40
0.4999999999999999
 40
0.5499999999999999
 40
0.5499999999999999
 40
0.5499999999999999
 40
0.5499999999999999
 40
0.6
 40
0.6
 40
0.6
 40
0.6
 40
0.65
 40
0.65
 40
0.65
 40
0.65
 40
0.7000000000000001
 40
0.7000000000000001
 40
0.7000000000000001
 40
0.7000000000000001
 40
0.7500000000000001
 40
0.7500000000000001
 40
0.7500000000000001
 40
0.7500000000000001
 40
0.8000000000000002
 40
0.8000000000000002
 40
0.8000000000000002
 40
0.8000000000000002
 40
0.8500000000000002
 40
0.8500000000000002
 40
0.8500000000000002
 40
0.8500000000000002
 40
0.9000000000000002
 40
0.9000000000000002
 40
0.9000000000000002
 40
0.9000000000000002
 40
0.9500000000000003
 40
0.9500000000000003
 40
0.9500000000000003
 40
0.9500000000000003
 40
1.0
 40
1.0
 40
1.0
 40
1.0
 10
-9.21164
 20
-16.40342
 30
0.0
 10
-9.19683
 20
-16.40335
 30
0.0
 10
-9.18406
 20
-16.40074
 30
0.0
 10
-9.1734
 20
-16.39566
 30
0.0
 10
-9.1734
 20
-16.39566
 30
0.0
 10
-9.16282
 20
-16.39058
 30
0.0
 10
-9.154
 20
-16.38331
 30
0.0
 10
-9.14695
 20
-16.37407
 30
0.0
 10
-9.14695
 20
-16.37407
 30
0.0
 10
-9.13996
 20
-16.36476
 30
0.0
 10
-9.13446
 20
-16.35375
 30
0.0
 10
-9.13037
 20
-16.34105
 30
0.0
 10
-9.13037
 20
-16.34105
 30
0.0
 10
-9.12634
 20
-16.32835
 30
0.0
 10
-9.12345
 20
-16.31445
 30
0.0
 10
-9.12183
 20
-16.29921
 30
0.0
 10
-9.12183
 20
-16.29921
 30
0.0
 10
-9.12013
 20
-16.28397
 30
0.0
 10
-9.11929
 20
-16.26795
 30
0.0
 10
-9.11936
 20
-16.25102
 30
0.0
 10
-9.11936
 20
-16.25102
 30
0.0
 10
-9.11929
 20
-16.23416
 30
0.0
 10
-9.12013
 20
-16.21814
 30
0.0
 10
-9.12183
 20
-16.20297
 30
0.0
 10
-9.12183
 20
-16.20297
 30
0.0
 10
-9.12345
 20
-16.1878
 30
0.0
 10
-9.12634
 20
-16.17383
 30
0.0
 10
-9.13037
 20
-16.16113
 30
0.0
 10
-9.13037
 20
-16.16113
 30
0.0
 10
-9.13446
 20
-16.1485
 30
0.0
 10
-9.13996
 20
-16.1375
 30
0.0
 10
-9.14695
 20
-16.12811
 30
0.0
 10
-9.14695
 20
-16.12811
 30
0.0
 10
-9.154
 20
-16.1188
 30
0.0
 10
-9.16282
 20
-16.11153
 30
0.0
 10
-9.1734
 20
-16.10645
 30
0.0
 10
-9.1734
 20
-16.10645
 30
0.0
 10
-9.18406
 20
-16.1013
 30
0.0
 10
-9.19683
 20
-16.09869
 30
0.0
 10
-9.21164
 20
-16.09862
 30
0.0
 10
-9.21164
 20
-16.09862
 30
0.0
 10
-9.22646
 20
-16.09869
 30
0.0
 10
-9.23923
 20
-16.1013
 30
0.0
 10
-9.24989
 20
-16.10645
 30
0.0
 10
-9.24989
 20
-16.10645
 30
0.0
 10
-9.26047
 20
-16.11153
 30
0.0
 10
-9.26929
 20
-16.1188
 30
0.0
 10
-9.27634
 20
-16.12811
 30
0.0
 10
-9.27634
 20
-16.12811
 30
0.0
 10
-9.28333
 20
-16.1375
 30
0.0
 10
-9.28883
 20
-16.1485
 30
0.0
 10
-9.29292
 20
-16.16113
 30
0.0
 10
-9.29292
 20
-16.16113
 30
0.0
 10
-9.29695
 20
-16.17383
 30
0.0
 10
-9.29984
 20
-16.1878
 30
0.0
 10
-9.30146
 20
-16.20297
 30
0.0
 10
-9.30146
 20
-16.20297
 30
0.0
 10
-9.30315
 20
-16.21814
 30
0.0
 10
-9.304
 20
-16.23416
 30
0.0
 10
-9.30393
 20
-16.25102
 30
0.0
 10
-9.30393
 20
-16.25102
 30
0.0
 10
-9.304
 20
-16.26795
 30
0.0
 10
-9.30315
 20
-16.28397
 30
0.0
 10
-9.30146
 20
-16.29921
 30
0.0
 10
-9.30146
 20
-16.29921
 30
0.0
 10
-9.29984
 20
-16.31445
 30
0.0
 10
-9.29695
 20
-16.32835
 30
0.0
 10
-9.29292
 20
-16.34105
 30
0.0
 10
-9.29292
 20
-16.34105
 30
0.0
 10
-9.28883
 20
-16.35375
 30
0.0
 10
-9.28333
 20
-16.36476
 30
0.0
 10
-9.27634
 20
-16.37407
 30
0.0
 10
-9.27634
 20
-16.37407
 30
0.0
 10
-9.26929
 20
-16.38331
 30
0.0
 10
-9.26047
 20
-16.39058
 30
0.0
 10
-9.24989
 20
-16.39566
 30
0.0
 10
-9.24989
 20
-16.39566
 30
0.0
 10
-9.23923
 20
-16.40074
 30
0.0
 10
-9.22646
 20
-16.40335
 30
0.0
 10
-9.21164
 20
-16.40342
 30
0.0
  0
SPLINE
  5
80
330
1F
100
AcDbEntity
  8
Layer 1
 62
    30
370
    53
100
AcDbSpline
210
0.0
220
0.0
230
1.0
 70
    11
 71
     3
 72
    84
 73
    80
 74
     0
 42
0.0000000001
 43
0.0000000001
 40
0.0
 40
0.0
 40
0.0
 40
0.0
 40
0.05
 40
0.05
 40
0.05
 40
0.05
 40
0.1
 40
0.1
 40
0.1
 40
0.1
 40
0.15
 40
0.15
 40
0.15
 40
0.15
 40
0.2
 40
0.2
 40
0.2
 40
0.2
 40
0.25
 40
0.25
 40
0.25
 40
0.25
 40
0.3
 40
0.3
 40
0.3
 40
0.3
 40
0.35
 40
0.35
 40
0.35
 40
0.35
 40
0.4
 40
0.4
 40
0.4
 40
0.4
 40
0.45
 40
0.45
 40
0.45
 40
0.45
 40
0.4999999999999999
 40
0.4999999999999999
 40
0.4999999999999999
 40
0.4999999999999999
 40
0.5499999999999999
 40
0.5499999999999999
 40
0.5499999999999999
 40
0.5499999999999999
 40
0.6
 40
0.6
 40
0.6
 40
0.6
 40
0.65
 40
0.65
 40
0.65
 40
0.65
 40
0.7000000000000001
 40
0.7000000000000001
 40
0.7000000000000001
 40
0.7000000000000001
 40
0.7500000000000001
 40
0.7500000000000001
 40
0.7500000000000001
 40
0.7500000000000001
 40
0.8000000000000002
 40
0.8000000000000002
 40
0.8000000000000002
 40
0.8000000000000002
 40
0.8500000000000002
 40
0.8500000000000002
 40
0.8500000000000002
 40
0.8500000000000002
 40
0.9000000000000002
 40
0.9000000000000002
 40
0.9000000000000002
 40
0.9000000000000002
 40
0.9500000000000003
 40
0.9500000000000003
 40
0.9500000000000003
 40
0.9500000000000003
 40
1.0
 40
1.0
 40
1.0
 40
1.0
 10
-9.21164
 20
-16.40342
 30
0.0
 10
-9.19683
 20
-16.40335
 30
0.0
 10
-9.18406
 20
-16.40074
 30
0.0
 10
-9.1734
 20
-16.39566
 30
0.0
 10
-9.1734
 20
-16.39566
 30
0.0
 10
-9.16282
 20
-16.39058
 30
0.0
 10
-9.154
 20
-16.38331
 30
0.0
 10
-9.14695
 20
-16.37407
 30
0.0
 10
-9.14695
 20
-16.37407
 30
0.0
 10
-9.13996
 20
-16.36476
 30
0.0
 10
-9.13446
 20
-16.35375
 30
0.0
 10
-9.13037
 20
-16.34105
 30
0.0
 10
-9.13037
 20
-16.34105
 30
0.0
 10
-9.12634
 20
-16.32835
 30
0.0
 10
-9.12345
 20
-16.31445
 30
0.0
 10
-9.12183
 20
-16.29921
 30
0.0
 10
-9.12183
 20
-16.29921
 30
0.0
 10
-9.12013
 20
-16.28397
 30
0.0
 10
-9.11929
 20
-16.26795
 30
0.0
 10
-9.11936
 20
-16.25102
 30
0.0
 10
-9.11936
 20
-16.25102
 30
0.0
 10
-9.11929
 20
-16.23416
 30
0.0
 10
-9.12013
 20
-16.21814
 30
0.0
 10
-9.12183
 20
-16.20297
 30
0.0
 10
-9.12183
 20
-16.20297
 30
0.0
 10
-9.12345
 20
-16.1878
 30
0.0
 10
-9.12634
 20
-16.17383
 30
0.0
 10
-9.13037
 20
-16.16113
 30
0.0
 10
-9.13037
 20
-16.16113
 30
0.0
 10
-9.13446
 20
-16.1485
 30
0.0
 10
-9.13996
 20
-16.1375
 30
0.0
 10
-9.14695
 20
-16.12811
 30
0.0
 10
-9.14695
 20
-16.12811
 30
0.0
 10
-9.154
 20
-16.1188
 30
0.0
 10
-9.16282
 20
-16.11153
 30
0.0
 10
-9.1734
 20
-16.10645
 30
0.0
 10
-9.1734
 20
-16.10645
 30
0.0
 10
-9.18406
 20
-16.1013
 30
0.0
 10
-9.19683
 20
-16.09869
 30
0.0
 10
-9.21164
 20
-16.09862
 30
0.0
 10
-9.21164
 20
-16.09862
 30
0.0
 10
-9.22646
 20
-16.09869
 30
0.0
 10
-9.23923
 20
-16.1013
 30
0.0
 10
-9.24989
 20
-16.10645
 30
0.0
 10
-9.24989
 20
-16.10645
 30
0.0
 10
-9.26047
 20
-16.11153
 30
0.0
 10
-9.26929
 20
-16.1188
 30
0.0
 10
-9.27634
 20
-16.12811
 30
0.0
 10
-9.27634
 20
-16.12811
 30
0.0
 10
-9.28333
 20
-16.1375
 30
0.0
 10
-9.28883
 20
-16.1485
 30
0.0
 10
-9.29292
 20
-16.16113
 30
0.0
 10
-9.29292
 20
-16.16113
 30
0.0
 10
-9.29695
 20
-16.17383
 30
0.0
 10
-9.29984
 20
-16.1878
 30
0.0
 10
-9.30146
 20
-16.20297
 30
0.0
 10
-9.30146
 20
-16.20297
 30
0.0
 10
-9.30315
 20
-16.21814
 30
0.0
 10
-9.304
 20
-16.23416
 30
0.0
 10
-9.30393
 20
-16.25102
 30
0.0
 10
-9.30393
 20
-16.25102
 30
0.0
 10
-9.304
 20
-16.26795
 30
0.0
 10
-9.30315
 20
-16.28397
 30
0.0
 10
-9.30146
 20
-16.29921
 30
0.0
 10
-9.30146
 20
-16.29921
 30
0.0
 10
-9.29984
 20
-16.31445
 30
0.0
 10
-9.29695
 20
-16.32835
 30
0.0
 10
-9.29292
 20
-16.34105
 30
0.0
 10
-9.29292
 20
-16.34105
 30
0.0
 10
-9.28883
 20
-16.35375
 30
0.0
 10
-9.28333
 20
-16.36476
 30
0.0
 10
-9.27634
 20
-16.37407
 30
0.0
 10
-9.27634
 20
-16.37407
 30
0.0
 10
-9.26929
 20
-16.38331
 30
0.0
 10
-9.26047
 20
-16.39058
 30
0.0
 10
-9.24989
 20
-16.39566
 30
0.0
 10
-9.24989
 20
-16.39566
 30
0.0
 10
-9.23923
 20
-16.40074
 30
0.0
 10
-9.22646
 20
-16.40335
 30
0.0
 10
-9.21164
 20
-16.40342
 30
0.0
  0
SPLINE
  5
81
330
1F
100
AcDbEntity
  8
Layer 1
 62
    30
370
    53
100
AcDbSpline
210
0.0
220
0.0
230
1.0
 70
    11
 71
     3
 72
   180
 73
   176
 74
     0
 42
0.0000000001
 43
0.0000000001
 40
0.0
 40
0.0
 40
0.0
 40
0.0
 40
0.0227272727272727
 40
0.0227272727272727
 40
0.0227272727272727
 40
0.0227272727272727
 40
0.0454545454545455
 40
0.0454545454545455
 40
0.0454545454545455
 40
0.0454545454545455
 40
0.0681818181818182
 40
0.0681818181818182
 40
0.0681818181818182
 40
0.0681818181818182
 40
0.0909090909090909
 40
0.0909090909090909
 40
0.0909090909090909
 40
0.0909090909090909
 40
0.1136363636363636
 40
0.1136363636363636
 40
0.1136363636363636
 40
0.1136363636363636
 40
0.1363636363636364
 40
0.1363636363636364
 40
0.1363636363636364
 40
0.1363636363636364
 40
0.1590909090909091
 40
0.1590909090909091
 40
0.1590909090909091
 40
0.1590909090909091
 40
0.1818181818181819
 40
0.1818181818181819
 40
0.1818181818181819
 40
0.1818181818181819
 40
0.2045454545454546
 40
0.2045454545454546
 40
0.2045454545454546
 40
0.2045454545454546
 40
0.2272727272727273
 40
0.2272727272727273
 40
0.2272727272727273
 40
0.2272727272727273
 40
0.2500000000000001
 40
0.2500000000000001
 40
0.2500000000000001
 40
0.2500000000000001
 40
0.2727272727272728
 40
0.2727272727272728
 40
0.2727272727272728
 40
0.2727272727272728
 40
0.2954545454545455
 40
0.2954545454545455
 40
0.2954545454545455
 40
0.2954545454545455
 40
0.3181818181818182
 40
0.3181818181818182
 40
0.3181818181818182
 40
0.3181818181818182
 40
0.3409090909090909
 40
0.3409090909090909
 40
0.3409090909090909
 40
0.3409090909090909
 40
0.3636363636363636
 40
0.3636363636363636
 40
0.3636363636363636
 40
0.3636363636363636
 40
0.3863636363636363
 40
0.3863636363636363
 40
0.3863636363636363
 40
0.3863636363636363
 40
0.409090909090909
 40
0.409090909090909
 40
0.409090909090909
 40
0.409090909090909
 40
0.4318181818181817
 40
0.4318181818181817
 40
0.4318181818181817
 40
0.4318181818181817
 40
0.4545454545454544
 40
0.4545454545454544
 40
0.4545454545454544
 40
0.4545454545454544
 40
0.4772727272727271
 40
0.4772727272727271
 40
0.4772727272727271
 40
0.4772727272727271
 40
0.4999999999999998
 40
0.4999999999999998
 40
0.4999999999999998
 40
0.4999999999999998
 40
0.5227272727272726
 40
0.5227272727272726
 40
0.5227272727272726
 40
0.5227272727272726
 40
0.5454545454545453
 40
0.5454545454545453
 40
0.5454545454545453
 40
0.5454545454545453
 40
0.568181818181818
 40
0.568181818181818
 40
0.568181818181818
 40
0.568181818181818
 40
0.5909090909090907
 40
0.5909090909090907
 40
0.5909090909090907
 40
0.5909090909090907
 40
0.6136363636363634
 40
0.6136363636363634
 40
0.6136363636363634
 40
0.6136363636363634
 40
0.6363636363636361
 40
0.6363636363636361
 40
0.6363636363636361
 40
0.6363636363636361
 40
0.6590909090909088
 40
0.6590909090909088
 40
0.6590909090909088
 40
0.6590909090909088
 40
0.6818181818181815
 40
0.6818181818181815
 40
0.6818181818181815
 40
0.6818181818181815
 40
0.7045454545454543
 40
0.7045454545454543
 40
0.7045454545454543
 40
0.7045454545454543
 40
0.727272727272727
 40
0.727272727272727
 40
0.727272727272727
 40
0.727272727272727
 40
0.7499999999999997
 40
0.7499999999999997
 40
0.7499999999999997
 40
0.7499999999999997
 40
0.7727272727272724
 40
0.7727272727272724
 40
0.7727272727272724
 40
0.7727272727272724
 40
0.7954545454545451
 40
0.7954545454545451
 40
0.7954545454545451
 40
0.7954545454545451
 40
0.8181818181818178
 40
0.8181818181818178
 40
0.8181818181818178
 40
0.8181818181818178
 40
0.8409090909090905
 40
0.8409090909090905
 40
0.8409090909090905
 40
0.8409090909090905
 40
0.8636363636363632
 40
0.8636363636363632
 40
0.8636363636363632
 40
0.8636363636363632
 40
0.8863636363636359
 40
0.8863636363636359
 40
0.8863636363636359
 40
0.8863636363636359
 40
0.9090909090909086
 40
0.9090909090909086
 40
0.9090909090909086
 40
0.9090909090909086
 40
0.9318181818181813
 40
0.9318181818181813
 40
0.9318181818181813
 40
0.9318181818181813
 40
0.954545454545454
 40
0.954545454545454
 40
0.954545454545454
 40
0.954545454545454
 40
0.9772727272727267
 40
0.9772727272727267
 40
0.9772727272727267
 40
0.9772727272727267
 40
1.0
 40
1.0
 40
1.0
 40
1.0
 10
-9.01903
 20
-16.3268
 30
0.0
 10
-9.01896
 20
-16.34204
 30
0.0
 10
-9.01543
 20
-16.3553
 30
0.0
 10
-9.00845
 20
-16.3668
 30
0.0
 10
-9.00845
 20
-16.3668
 30
0.0
 10
-9.00146
 20
-16.37823
 30
0.0
 10
-8.99151
 20
-16.38719
 30
0.0
 10
-8.97853
 20
-16.39361
 30
0.0
 10
-8.97853
 20
-16.39361
 30
0.0
 10
-8.96555
 20
-16.40003
 30
0.0
 10
-8.94996
 20
-16.40328
 30
0.0
 10
-8.93182
 20
-16.40342
 30
0.0
 10
-8.93182
 20
-16.40342
 30
0.0
 10
-8.91821
 20
-16.40342
 30
0.0
 10
-8.90586
 20
-16.40201
 30
0.0
 10
-8.89464
 20
-16.39905
 30
0.0
 10
-8.89464
 20
-16.39905
 30
0.0
 10
-8.88349
 20
-16.39608
 30
0.0
 10
-8.8739
 20
-16.3915
 30
0.0
 10
-8.86578
 20
-16.38522
 30
0.0
 10
-8.86578
 20
-16.38522
 30
0.0
 10
-8.85767
 20
-16.37894
 30
0.0
 10
-8.85146
 20
-16.37082
 30
0.0
 10
-8.84702
 20
-16.36095
 30
0.0
 10
-8.84702
 20
-16.36095
 30
0.0
 10
-8.84264
 20
-16.351
 30
0.0
 10
-8.84046
 20
-16.33907
 30
0.0
 10
-8.84039
 20
-16.3251
 30
0.0
 10
-8.84039
 20
-16.3251
 30
0.0
 10
-8.84031
 20
-16.30648
 30
0.0
 10
-8.84412
 20
-16.29074
 30
0.0
 10
-8.85167
 20
-16.27797
 30
0.0
 10
-8.85167
 20
-16.27797
 30
0.0
 10
-8.85922
 20
-16.2652
 30
0.0
 10
-8.87094
 20
-16.25561
 30
0.0
 10
-8.88667
 20
-16.24905
 30
0.0
 10
-8.88667
 20
-16.24905
 30
0.0
 10
-8.9024
 20
-16.24248
 30
0.0
 10
-8.92258
 20
-16.23917
 30
0.0
 10
-8.94706
 20
-16.23917
 30
0.0
 10
-8.94706
 20
-16.23917
 30
0.0
 10
-8.92879
 20
-16.23924
 30
0.0
 10
-8.91348
 20
-16.23755
 30
0.0
 10
-8.90099
 20
-16.23409
 30
0.0
 10
-8.90099
 20
-16.23409
 30
0.0
 10
-8.88857
 20
-16.23063
 30
0.0
 10
-8.87863
 20
-16.22576
 30
0.0
 10
-8.87115
 20
-16.21941
 30
0.0
 10
-8.87115
 20
-16.21941
 30
0.0
 10
-8.86367
 20
-16.21313
 30
0.0
 10
-8.85824
 20
-16.20565
 30
0.0
 10
-8.85499
 20
-16.19705
 30
0.0
 10
-8.85499
 20
-16.19705
 30
0.0
 10
-8.85167
 20
-16.18851
 30
0.0
 10
-8.85005
 20
-16.17913
 30
0.0
 10
-8.85012
 20
-16.1689
 30
0.0
 10
-8.85012
 20
-16.1689
 30
0.0
 10
-8.85005
 20
-16.15866
 30
0.0
 10
-8.85146
 20
-16.14921
 30
0.0
 10
-8.85428
 20
-16.14046
 30
0.0
 10
-8.85428
 20
-16.14046
 30
0.0
 10
-8.85704
 20
-16.13171
 30
0.0
 10
-8.86155
 20
-16.12402
 30
0.0
 10
-8.86769
 20
-16.11746
 30
0.0
 10
-8.86769
 20
-16.11746
 30
0.0
 10
-8.87383
 20
-16.1109
 30
0.0
 10
-8.88194
 20
-16.10575
 30
0.0
 10
-8.89189
 20
-16.10208
 30
0.0
 10
-8.89189
 20
-16.10208
 30
0.0
 10
-8.90191
 20
-16.09841
 30
0.0
 10
-8.91412
 20
-16.09658
 30
0.0
 10
-8.92844
 20
-16.09651
 30
0.0
 10
-8.92844
 20
-16.09651
 30
0.0
 10
-8.94269
 20
-16.09658
 30
0.0
 10
-8.95518
 20
-16.09869
 30
0.0
 10
-8.96576
 20
-16.10279
 30
0.0
 10
-8.96576
 20
-16.10279
 30
0.0
 10
-8.97642
 20
-16.10688
 30
0.0
 10
-8.98516
 20
-16.11245
 30
0.0
 10
-8.99222
 20
-16.11958
 30
0.0
 10
-8.99222
 20
-16.11958
 30
0.0
 10
-8.9992
 20
-16.1267
 30
0.0
 10
-9.00443
 20
-16.13482
 30
0.0
 10
-9.00788
 20
-16.14399
 30
0.0
 10
-9.00788
 20
-16.14399
 30
0.0
 10
-9.01141
 20
-16.15316
 30
0.0
 10
-9.0131
 20
-16.1629
 30
0.0
 10
-9.0131
 20
-16.17313
 30
0.0
 10
-9.0131
 20
-16.17313
 30
0.0
 10
-9.0131
 20
-16.1629
 30
0.0
 10
-9.01141
 20
-16.15316
 30
0.0
 10
-9.00788
 20
-16.14399
 30
0.0
 10
-9.00788
 20
-16.14399
 30
0.0
 10
-9.00443
 20
-16.13482
 30
0.0
 10
-8.9992
 20
-16.1267
 30
0.0
 10
-8.99222
 20
-16.11958
 30
0.0
 10
-8.99222
 20
-16.11958
 30
0.0
 10
-8.98516
 20
-16.11245
 30
0.0
 10
-8.97642
 20
-16.10688
 30
0.0
 10
-8.96576
 20
-16.10279
 30
0.0
 10
-8.96576
 20
-16.10279
 30
0.0
 10
-8.95518
 20
-16.09869
 30
0.0
 10
-8.94269
 20
-16.09658
 30
0.0
 10
-8.92844
 20
-16.09651
 30
0.0
 10
-8.92844
 20
-16.09651
 30
0.0
 10
-8.91412
 20
-16.09658
 30
0.0
 10
-8.90191
 20
-16.09841
 30
0.0
 10
-8.89189
 20
-16.10208
 30
0.0
 10
-8.89189
 20
-16.10208
 30
0.0
 10
-8.88194
 20
-16.10575
 30
0.0
 10
-8.87383
 20
-16.1109
 30
0.0
 10
-8.86769
 20
-16.11746
 30
0.0
 10
-8.86769
 20
-16.11746
 30
0.0
 10
-8.86155
 20
-16.12402
 30
0.0
 10
-8.85704
 20
-16.13171
 30
0.0
 10
-8.85428
 20
-16.14046
 30
0.0
 10
-8.85428
 20
-16.14046
 30
0.0
 10
-8.85146
 20
-16.14921
 30
0.0
 10
-8.85005
 20
-16.15866
 30
0.0
 10
-8.85012
 20
-16.1689
 30
0.0
 10
-8.85012
 20
-16.1689
 30
0.0
 10
-8.85005
 20
-16.17913
 30
0.0
 10
-8.85167
 20
-16.18851
 30
0.0
 10
-8.85499
 20
-16.19705
 30
0.0
 10
-8.85499
 20
-16.19705
 30
0.0
 10
-8.85824
 20
-16.20565
 30
0.0
 10
-8.86367
 20
-16.21313
 30
0.0
 10
-8.87115
 20
-16.21941
 30
0.0
 10
-8.87115
 20
-16.21941
 30
0.0
 10
-8.87863
 20
-16.22576
 30
0.0
 10
-8.88857
 20
-16.23063
 30
0.0
 10
-8.90099
 20
-16.23409
 30
0.0
 10
-8.90099
 20
-16.23409
 30
0.0
 10
-8.91348
 20
-16.23755
 30
0.0
 10
-8.92879
 20
-16.23924
 30
0.0
 10
-8.94706
 20
-16.23917
 30
0.0
 10
-8.94706
 20
-16.23917
 30
0.0
 10
-8.92258
 20
-16.23917
 30
0.0
 10
-8.9024
 20
-16.24248
 30
0.0
 10
-8.88667
 20
-16.24905
 30
0.0
 10
-8.88667
 20
-16.24905
 30
0.0
 10
-8.87094
 20
-16.25561
 30
0.0
 10
-8.85922
 20
-16.2652
 30
0.0
 10
-8.85167
 20
-16.27797
 30
0.0
 10
-8.85167
 20
-16.27797
 30
0.0
 10
-8.84412
 20
-16.29074
 30
0.0
 10
-8.84031
 20
-16.30648
 30
0.0
 10
-8.84039
 20
-16.3251
 30
0.0
 10
-8.84039
 20
-16.3251
 30
0.0
 10
-8.84046
 20
-16.33907
 30
0.0
 10
-8.84264
 20
-16.351
 30
0.0
 10
-8.84702
 20
-16.36095
 30
0.0
 10
-8.84702
 20
-16.36095
 30
0.0
 10
-8.85146
 20
-16.37082
 30
0.0
 10
-8.85767
 20
-16.37894
 30
0.0
 10
-8.86578
 20
-16.38522
 30
0.0
 10
-8.86578
 20
-16.38522
 30
0.0
 10
-8.8739
 20
-16.3915
 30
0.0
 10
-8.88349
 20
-16.39608
 30
0.0
 10
-8.89464
 20
-16.39905
 30
0.0
 10
-8.89464
 20
-16.39905
 30
0.0
 10
-8.90586
 20
-16.40201
 30
0.0
 10
-8.91821
 20
-16.40342
 30
0.0
 10
-8.93182
 20
-16.40342
 30
0.0
 10
-8.93182
 20
-16.40342
 30
0.0
 10
-8.94996
 20
-16.40328
 30
0.0
 10
-8.96555
 20
-16.40003
 30
0.0
 10
-8.97853
 20
-16.39361
 30
0.0
 10
-8.97853
 20
-16.39361
 30
0.0
 10
-8.99151
 20
-16.38719
 30
0.0
 10
-9.00146
 20
-16.37823
 30
0.0
 10
-9.00845
 20
-16.3668
 30
0.0
 10
-9.00845
 20
-16.3668
 30
0.0
 10
-9.01543
 20
-16.3553
 30
0.0
 10
-9.01896
 20
-16.34204
 30
0.0
 10
-9.01903
 20
-16.3268
 30
0.0
  0
SPLINE
  5
82
330
1F
100
AcDbEntity
  8
Layer 1
 62
    30
370
    53
100
AcDbSpline
210
0.0
220
0.0
230
1.0
 70
    11
 71
     3
 72
    20
 73
    16
 74
     0
 42
0.0000000001
 43
0.0000000001
 40
0.0
 40
0.0
 40
0.0
 40
0.0
 40
0.25
 40
0.25
 40
0.25
 40
0.25
 40
0.5
 40
0.5
 40
0.5
 40
0.5
 40
0.75
 40
0.75
 40
0.75
 40
0.75
 40
1.0
 40
1.0
 40
1.0
 40
1.0
 10
-10.60016
 20
-13.60342
 30
0.0
 10
-10.60016
 20
-13.60342
 30
0.0
 10
-10.47909
 20
-13.2982
 30
0.0
 10
-10.47909
 20
-13.2982
 30
0.0
 10
-10.47909
 20
-13.2982
 30
0.0
 10
-10.47909
 20
-13.2982
 30
0.0
 10
-10.35759
 20
-13.60342
 30
0.0
 10
-10.35759
 20
-13.60342
 30
0.0
 10
-10.35759
 20
-13.60342
 30
0.0
 10
-10.35759
 20
-13.60342
 30
0.0
 10
-10.47909
 20
-13.2982
 30
0.0
 10
-10.47909
 20
-13.2982
 30
0.0
 10
-10.47909
 20
-13.2982
 30
0.0
 10
-10.47909
 20
-13.2982
 30
0.0
 10
-10.60016
 20
-13.60342
 30
0.0
 10
-10.60016
 20
-13.60342
 30
0.0
  0
SPLINE
  5
83
330
1F
100
AcDbEntity
  8
Layer 1
 62
    30
370
    53
100
AcDbSpline
210
0.0
220
0.0
230
1.0
 70
    27
 71
     3
 72
    12
 73
     8
 74
     0
 42
0.0000000001
 43
0.0000000001
 40
0.0
 40
0.0
 40
0.0
 40
0.0
 40
0.5
 40
0.5
 40
0.5
 40
0.5
 40
1.0
 40
1.0
 40
1.0
 40
1.0
 10
-10.56206
 20
-13.50732
 30
0.0
 10
-10.56206
 20
-13.50732
 30
0.0
 10
-10.39612
 20
-13.50732
 30
0.0
 10
-10.39612
 20
-13.50732
 30
0.0
 10
-10.39612
 20
-13.50732
 30
0.0
 10
-10.39612
 20
-13.50732
 30
0.0
 10
-10.56206
 20
-13.50732
 30
0.0
 10
-10.56206
 20
-13.50732
 30
0.0
  0
SPLINE
  5
84
330
1F
100
AcDbEntity
  8
Layer 1
370
    53
100
AcDbSpline
210
0.0
220
0.0
230
1.0
 70
    11
 71
     3
 72
    36
 73
    32
 74
     0
 42
0.0000000001
 43
0.0000000001
 40
0.0
 40
0.0
 40
0.0
 40
0.0
 40
0.125
 40
0.125
 40
0.125
 40
0.125
 40
0.25
 40
0.25
 40
0.25
 40
0.25
 40
0.375
 40
0.375
 40
0.375
 40
0.375
 40
0.5
 40
0.5
 40
0.5
 40
0.5
 40
0.625
 40
0.625
 40
0.625
 40
0.625
 40
0.75
 40
0.75
 40
0.75
 40
0.75
 40
0.875
 40
0.875
 40
0.875
 40
0.875
 40
1.0
 40
1.0
 40
1.0
 40
1.0
 10
-13.15002
 20
-18.99995
 30
0.0
 10
-13.15002
 20
-18.99995
 30
0.0
 10
-13.15002
 20
-10.70005
 30
0.0
 10
-13.15002
 20
-10.70005
 30
0.0
 10
-13.15002
 20
-10.70005
 30
0.0
 10
-13.15002
 20
-10.42305
 30
0.0
 10
-12.92693
 20
-10.19995
 30
0.0
 10
-12.64993
 20
-10.19995
 30
0.0
 10
-12.64993
 20
-10.19995
 30
0.0
 10
-12.64993
 20
-10.19995
 30
0.0
 10
-8.35007
 20
-10.19995
 30
0.0
 10
-8.35007
 20
-10.19995
 30
0.0
 10
-8.35007
 20
-10.19995
 30
0.0
 10
-8.07293
 20
-10.19995
 30
0.0
 10
-7.84997
 20
-10.42305
 30
0.0
 10
-7.84997
 20
-10.70005
 30
0.0
 10
-7.84997
 20
-10.70005
 30
0.0
 10
-7.84997
 20
-10.70005
 30
0.0
 10
-7.84997
 20
-18.99995
 30
0.0
 10
-7.84997
 20
-18.99995
 30
0.0
 10
-7.84997
 20
-18.99995
 30
0.0
 10
-7.84997
 20
-19.27695
 30
0.0
 10
-8.07293
 20
-19.50005
 30
0.0
 10
-8.35007
 20
-19.50005
 30
0.0
 10
-8.35007
 20
-19.50005
 30
0.0
 10
-8.35007
 20
-19.50005
 30
0.0
 10
-12.64993
 20
-19.50005
 30
0.0
 10
-12.64993
 20
-19.50005
 30
0.0
 10
-12.64993
 20
-19.50005
 30
0.0
 10
-12.92693
 20
-19.50005
 30
0.0
 10
-13.15002
 20
-19.27695
 30
0.0
 10
-13.15002
 20
-18.99995
 30
0.0
  0
SPLINE
  5
85
330
1F
100
AcDbEntity
  8
Layer 1
370
    53
100
AcDbSpline
210
0.0
220
0.0
230
1.0
 70
    11
 71
     3
 72
    20
 73
    16
 74
     0
 42
0.0000000001
 43
0.0000000001
 40
0.0
 40
0.0
 40
0.0
 40
0.0
 40
0.25
 40
0.25
 40
0.25
 40
0.25
 40
0.5
 40
0.5
 40
0.5
 40
0.5
 40
0.75
 40
0.75
 40
0.75
 40
0.75
 40
1.0
 40
1.0
 40
1.0
 40
1.0
 10
-8.49999
 20
-18.55002
 30
0.0
 10
-8.33433
 20
-18.55002
 30
0.0
 10
-8.2
 20
-18.68425
 30
0.0
 10
-8.2
 20
-18.85002
 30
0.0
 10
-8.2
 20
-18.85002
 30
0.0
 10
-8.2
 20
-19.01568
 30
0.0
 10
-8.33433
 20
-19.15002
 30
0.0
 10
-8.49999
 20
-19.15002
 30
0.0
 10
-8.49999
 20
-19.15002
 30
0.0
 10
-8.66562
 20
-19.15002
 30
0.0
 10
-8.79999
 20
-19.01568
 30
0.0
 10
-8.79999
 20
-18.85002
 30
0.0
 10
-8.79999
 20
-18.85002
 30
0.0
 10
-8.79999
 20
-18.68425
 30
0.0
 10
-8.66562
 20
-18.55002
 30
0.0
 10
-8.49999
 20
-18.55002
 30
0.0
  0
SPLINE
  5
86
330
1F
100
AcDbEntity
  8
Layer 1
370
    53
100
AcDbSpline
210
0.0
220
0.0
230
1.0
 70
    11
 71
     3
 72
    20
 73
    16
 74
     0
 42
0.0000000001
 43
0.0000000001
 40
0.0
 40
0.0
 40
0.0
 40
0.0
 40
0.25
 40
0.25
 40
0.25
 40
0.25
 40
0.5
 40
0.5
 40
0.5
 40
0.5
 40
0.75
 40
0.75
 40
0.75
 40
0.75
 40
1.0
 40
1.0
 40
1.0
 40
1.0
 10
-10.49992
 20
-18.55002
 30
0.0
 10
-10.33429
 20
-18.55002
 30
0.0
 10
-10.19992
 20
-18.68425
 30
0.0
 10
-10.19992
 20
-18.85002
 30
0.0
 10
-10.19992
 20
-18.85002
 30
0.0
 10
-10.19992
 20
-19.01568
 30
0.0
 10
-10.33429
 20
-19.15002
 30
0.0
 10
-10.49992
 20
-19.15002
 30
0.0
 10
-10.49992
 20
-19.15002
 30
0.0
 10
-10.66569
 20
-19.15002
 30
0.0
 10
-10.79992
 20
-19.01568
 30
0.0
 10
-10.79992
 20
-18.85002
 30
0.0
 10
-10.79992
 20
-18.85002
 30
0.0
 10
-10.79992
 20
-18.68425
 30
0.0
 10
-10.66569
 20
-18.55002
 30
0.0
 10
-10.49992
 20
-18.55002
 30
0.0
  0
SPLINE
  5
87
330
1F
100
AcDbEntity
  8
Layer 1
370
    53
100
AcDbSpline
210
0.0
220
0.0
230
1.0
 70
    11
 71
     3
 72
    20
 73
    16
 74
     0
 42
0.0000000001
 43
0.0000000001
 40
0.0
 40
0.0
 40
0.0
 40
0.0
 40
0.25
 40
0.25
 40
0.25
 40
0.25
 40
0.5
 40
0.5
 40
0.5
 40
0.5
 40
0.75
 40
0.75
 40
0.75
 40
0.75
 40
1.0
 40
1.0
 40
1.0
 40
1.0
 10
-12.49999
 20
-18.55002
 30
0.0
 10
-12.33422
 20
-18.55002
 30
0.0
 10
-12.19999
 20
-18.68425
 30
0.0
 10
-12.19999
 20
-18.85002
 30
0.0
 10
-12.19999
 20
-18.85002
 30
0.0
 10
-12.19999
 20
-19.01568
 30
0.0
 10
-12.33422
 20
-19.15002
 30
0.0
 10
-12.49999
 20
-19.15002
 30
0.0
 10
-12.49999
 20
-19.15002
 30
0.0
 10
-12.66566
 20
-19.15002
 30
0.0
 10
-12.8
 20
-19.01568
 30
0.0
 10
-12.8
 20
-18.85002
 30
0.0
 10
-12.8
 20
-18.85002
 30
0.0
 10
-12.8
 20
-18.68425
 30
0.0
 10
-12.66566
 20
-18.55002
 30
0.0
 10
-12.49999
 20
-18.55002
 30
0.0
  0
SPLINE
  5
88
330
1F
100
AcDbEntity
  8
Layer 1
370
    53
100
AcDbSpline
210
0.0
220
0.0
230
1.0
 70
    11
 71
     3
 72
    20
 73
    16
 74
     0
 42
0.0000000001
 43
0.0000000001
 40
0.0
 40
0.0
 40
0.0
 40
0.0
 40
0.25
 40
0.25
 40
0.25
 40
0.25
 40
0.5
 40
0.5
 40
0.5
 40
0.5
 40
0.75
 40
0.75
 40
0.75
 40
0.75
 40
1.0
 40
1.0
 40
1.0
 40
1.0
 10
-8.49999
 20
-10.54998
 30
0.0
 10
-8.33433
 20
-10.54998
 30
0.0
 10
-8.2
 20
-10.68435
 30
0.0
 10
-8.2
 20
-10.84998
 30
0.0
 10
-8.2
 20
-10.84998
 30
0.0
 10
-8.2
 20
-11.01575
 30
0.0
 10
-8.33433
 20
-11.14998
 30
0.0
 10
-8.49999
 20
-11.14998
 30
0.0
 10
-8.49999
 20
-11.14998
 30
0.0
 10
-8.66562
 20
-11.14998
 30
0.0
 10
-8.79999
 20
-11.01575
 30
0.0
 10
-8.79999
 20
-10.84998
 30
0.0
 10
-8.79999
 20
-10.84998
 30
0.0
 10
-8.79999
 20
-10.68435
 30
0.0
 10
-8.66562
 20
-10.54998
 30
0.0
 10
-8.49999
 20
-10.54998
 30
0.0
  0
SPLINE
  5
89
330
1F
100
AcDbEntity
  8
Layer 1
370
    53
100
AcDbSpline
210
0.0
220
0.0
230
1.0
 70
    11
 71
     3
 72
    20
 73
    16
 74
     0
 42
0.0000000001
 43
0.0000000001
 40
0.0
 40
0.0
 40
0.0
 40
0.0
 40
0.25
 40
0.25
 40
0.25
 40
0.25
 40
0.5
 40
0.5
 40
0.5
 40
0.5
 40
0.75
 40
0.75
 40
0.75
 40
0.75
 40
1.0
 40
1.0
 40
1.0
 40
1.0
 10
-10.49992
 20
-10.54998
 30
0.0
 10
-10.33429
 20
-10.54998
 30
0.0
 10
-10.19992
 20
-10.68435
 30
0.0
 10
-10.19992
 20
-10.84998
 30
0.0
 10
-10.19992
 20
-10.84998
 30
0.0
 10
-10.19992
 20
-11.01575
 30
0.0
 10
-10.33429
 20
-11.14998
 30
0.0
 10
-10.49992
 20
-11.14998
 30
0.0
 10
-10.49992
 20
-11.14998
 30
0.0
 10
-10.66569
 20
-11.14998
 30
0.0
 10
-10.79992
 20
-11.01575
 30
0.0
 10
-10.79992
 20
-10.84998
 30
0.0
 10
-10.79992
 20
-10.84998
 30
0.0
 10
-10.79992
 20
-10.68435
 30
0.0
 10
-10.66569
 20
-10.54998
 30
0.0
 10
-10.49992
 20
-10.54998
 30
0.0
  0
SPLINE
  5
8A
330
1F
100
AcDbEntity
  8
Layer 1
370
    53
100
AcDbSpline
210
0.0
220
0.0
230
1.0
 70
    11
 71
     3
 72
    20
 73
    16
 74
     0
 42
0.0000000001
 43
0.0000000001
 40
0.0
 40
0.0
 40
0.0
 40
0.0
 40
0.25
 40
0.25
 40
0.25
 40
0.25
 40
0.5
 40
0.5
 40
0.5
 40
0.5
 40
0.75
 40
0.75
 40
0.75
 40
0.75
 40
1.0
 40
1.0
 40
1.0
 40
1.0
 10
-12.49999
 20
-10.54998
 30
0.0
 10
-12.33422
 20
-10.54998
 30
0.0
 10
-12.19999
 20
-10.68435
 30
0.0
 10
-12.19999
 20
-10.84998
 30
0.0
 10
-12.19999
 20
-10.84998
 30
0.0
 10
-12.19999
 20
-11.01575
 30
0.0
 10
-12.33422
 20
-11.14998
 30
0.0
 10
-12.49999
 20
-11.14998
 30
0.0
 10
-12.49999
 20
-11.14998
 30
0.0
 10
-12.66566
 20
-11.14998
 30
0.0
 10
-12.8
 20
-11.01575
 30
0.0
 10
-12.8
 20
-10.84998
 30
0.0
 10
-12.8
 20
-10.84998
 30
0.0
 10
-12.8
 20
-10.68435
 30
0.0
 10
-12.66566
 20
-10.54998
 30
0.0
 10
-12.49999
 20
-10.54998
 30
0.0
  0
SPLINE
  5
8B
330
1F
100
AcDbEntity
  8
Layer 1
370
    53
100
AcDbSpline
210
0.0
220
0.0
230
1.0
 70
    11
 71
     3
 72
    20
 73
    16
 74
     0
 42
0.0000000001
 43
0.0000000001
 40
0.0
 40
0.0
 40
0.0
 40
0.0
 40
0.25
 40
0.25
 40
0.25
 40
0.25
 40
0.5
 40
0.5
 40
0.5
 40
0.5
 40
0.75
 40
0.75
 40
0.75
 40
0.75
 40
1.0
 40
1.0
 40
1.0
 40
1.0
 10
-9.80001
 20
-18.99995
 30
0.0
 10
-9.80001
 20
-18.99995
 30
0.0
 10
-9.80001
 20
-18.69995
 30
0.0
 10
-9.80001
 20
-18.69995
 30
0.0
 10
-9.80001
 20
-18.69995
 30
0.0
 10
-9.80001
 20
-18.69995
 30
0.0
 10
-9.20001
 20
-18.69995
 30
0.0
 10
-9.20001
 20
-18.69995
 30
0.0
 10
-9.20001
 20
-18.69995
 30
0.0
 10
-9.20001
 20
-18.69995
 30
0.0
 10
-9.20001
 20
-18.99995
 30
0.0
 10
-9.20001
 20
-18.99995
 30
0.0
 10
-9.20001
 20
-18.99995
 30
0.0
 10
-9.20001
 20
-18.99995
 30
0.0
 10
-9.80001
 20
-18.99995
 30
0.0
 10
-9.80001
 20
-18.99995
 30
0.0
  0
SPLINE
  5
8C
330
1F
100
AcDbEntity
  8
Layer 1
370
    53
100
AcDbSpline
210
0.0
220
0.0
230
1.0
 70
    11
 71
     3
 72
    20
 73
    16
 74
     0
 42
0.0000000001
 43
0.0000000001
 40
0.0
 40
0.0
 40
0.0
 40
0.0
 40
0.25
 40
0.25
 40
0.25
 40
0.25
 40
0.5
 40
0.5
 40
0.5
 40
0.5
 40
0.75
 40
0.75
 40
0.75
 40
0.75
 40
1.0
 40
1.0
 40
1.0
 40
1.0
 10
-11.79998
 20
-18.99995
 30
0.0
 10
-11.79998
 20
-18.99995
 30
0.0
 10
-11.79998
 20
-18.69995
 30
0.0
 10
-11.79998
 20
-18.69995
 30
0.0
 10
-11.79998
 20
-18.69995
 30
0.0
 10
-11.79998
 20
-18.69995
 30
0.0
 10
-11.19997
 20
-18.69995
 30
0.0
 10
-11.19997
 20
-18.69995
 30
0.0
 10
-11.19997
 20
-18.69995
 30
0.0
 10
-11.19997
 20
-18.69995
 30
0.0
 10
-11.19997
 20
-18.99995
 30
0.0
 10
-11.19997
 20
-18.99995
 30
0.0
 10
-11.19997
 20
-18.99995
 30
0.0
 10
-11.19997
 20
-18.99995
 30
0.0
 10
-11.79998
 20
-18.99995
 30
0.0
 10
-11.79998
 20
-18.99995
 30
0.0
  0
SPLINE
  5
8D
330
1F
100
AcDbEntity
  8
Layer 1
370
    53
100
AcDbSpline
210
0.0
220
0.0
230
1.0
 70
    11
 71
     3
 72
    20
 73
    16
 74
     0
 42
0.0000000001
 43
0.0000000001
 40
0.0
 40
0.0
 40
0.0
 40
0.0
 40
0.25
 40
0.25
 40
0.25
 40
0.25
 40
0.5
 40
0.5
 40
0.5
 40
0.5
 40
0.75
 40
0.75
 40
0.75
 40
0.75
 40
1.0
 40
1.0
 40
1.0
 40
1.0
 10
-9.80001
 20
-11.00005
 30
0.0
 10
-9.80001
 20
-11.00005
 30
0.0
 10
-9.80001
 20
-10.70005
 30
0.0
 10
-9.80001
 20
-10.70005
 30
0.0
 10
-9.80001
 20
-10.70005
 30
0.0
 10
-9.80001
 20
-10.70005
 30
0.0
 10
-9.20001
 20
-10.70005
 30
0.0
 10
-9.20001
 20
-10.70005
 30
0.0
 10
-9.20001
 20
-10.70005
 30
0.0
 10
-9.20001
 20
-10.70005
 30
0.0
 10
-9.20001
 20
-11.00005
 30
0.0
 10
-9.20001
 20
-11.00005
 30
0.0
 10
-9.20001
 20
-11.00005
 30
0.0
 10
-9.20001
 20
-11.00005
 30
0.0
 10
-9.80001
 20
-11.00005
 30
0.0
 10
-9.80001
 20
-11.00005
 30
0.0
  0
SPLINE
  5
8E
330
1F
100
AcDbEntity
  8
Layer 1
370
    53
100
AcDbSpline
210
0.0
220
0.0
230
1.0
 70
    11
 71
     3
 72
    20
 73
    16
 74
     0
 42
0.0000000001
 43
0.0000000001
 40
0.0
 40
0.0
 40
0.0
 40
0.0
 40
0.25
 40
0.25
 40
0.25
 40
0.25
 40
0.5
 40
0.5
 40
0.5
 40
0.5
 40
0.75
 40
0.75
 40
0.75
 40
0.75
 40
1.0
 40
1.0
 40
1.0
 40
1.0
 10
-11.79998
 20
-11.00005
 30
0.0
 10
-11.79998
 20
-11.00005
 30
0.0
 10
-11.79998
 20
-10.70005
 30
0.0
 10
-11.79998
 20
-10.70005
 30
0.0
 10
-11.79998
 20
-10.70005
 30
0.0
 10
-11.79998
 20
-10.70005
 30
0.0
 10
-11.19997
 20
-10.70005
 30
0.0
 10
-11.19997
 20
-10.70005
 30
0.0
 10
-11.19997
 20
-10.70005
 30
0.0
 10
-11.19997
 20
-10.70005
 30
0.0
 10
-11.19997
 20
-11.00005
 30
0.0
 10
-11.19997
 20
-11.00005
 30
0.0
 10
-11.19997
 20
-11.00005
 30
0.0
 10
-11.19997
 20
-11.00005
 30
0.0
 10
-11.79998
 20
-11.00005
 30
0.0
 10
-11.79998
 20
-11.00005
 30
0.0
  0
SPLINE
  5
8F
330
1F
100
AcDbEntity
  8
Layer 1
370
    53
100
AcDbSpline
210
0.0
220
0.0
230
1.0
 70
    11
 71
     3
 72
    20
 73
    16
 74
     0
 42
0.0000000001
 43
0.0000000001
 40
0.0
 40
0.0
 40
0.0
 40
0.0
 40
0.25
 40
0.25
 40
0.25
 40
0.25
 40
0.5
 40
0.5
 40
0.5
 40
0.5
 40
0.75
 40
0.75
 40
0.75
 40
0.75
 40
1.0
 40
1.0
 40
1.0
 40
1.0
 10
-8.65006
 20
-18.15
 30
0.0
 10
-8.65006
 20
-18.15
 30
0.0
 10
-8.65006
 20
-17.55
 30
0.0
 10
-8.65006
 20
-17.55
 30
0.0
 10
-8.65006
 20
-17.55
 30
0.0
 10
-8.65006
 20
-17.55
 30
0.0
 10
-8.35007
 20
-17.55
 30
0.0
 10
-8.35007
 20
-17.55
 30
0.0
 10
-8.35007
 20
-17.55
 30
0.0
 10
-8.35007
 20
-17.55
 30
0.0
 10
-8.35007
 20
-18.15
 30
0.0
 10
-8.35007
 20
-18.15
 30
0.0
 10
-8.35007
 20
-18.15
 30
0.0
 10
-8.35007
 20
-18.15
 30
0.0
 10
-8.65006
 20
-18.15
 30
0.0
 10
-8.65006
 20
-18.15
 30
0.0
  0
SPLINE
  5
90
330
1F
100
AcDbEntity
  8
Layer 1
370
    53
100
AcDbSpline
210
0.0
220
0.0
230
1.0
 70
    11
 71
     3
 72
    20
 73
    16
 74
     0
 42
0.0000000001
 43
0.0000000001
 40
0.0
 40
0.0
 40
0.0
 40
0.0
 40
0.25
 40
0.25
 40
0.25
 40
0.25
 40
0.5
 40
0.5
 40
0.5
 40
0.5
 40
0.75
 40
0.75
 40
0.75
 40
0.75
 40
1.0
 40
1.0
 40
1.0
 40
1.0
 10
-10.64999
 20
-18.15
 30
0.0
 10
-10.64999
 20
-18.15
 30
0.0
 10
-10.64999
 20
-17.55
 30
0.0
 10
-10.64999
 20
-17.55
 30
0.0
 10
-10.64999
 20
-17.55
 30
0.0
 10
-10.64999
 20
-17.55
 30
0.0
 10
-10.34999
 20
-17.55
 30
0.0
 10
-10.34999
 20
-17.55
 30
0.0
 10
-10.34999
 20
-17.55
 30
0.0
 10
-10.34999
 20
-17.55
 30
0.0
 10
-10.34999
 20
-18.15
 30
0.0
 10
-10.34999
 20
-18.15
 30
0.0
 10
-10.34999
 20
-18.15
 30
0.0
 10
-10.34999
 20
-18.15
 30
0.0
 10
-10.64999
 20
-18.15
 30
0.0
 10
-10.64999
 20
-18.15
 30
0.0
  0
SPLINE
  5
91
330
1F
100
AcDbEntity
  8
Layer 1
370
    53
100
AcDbSpline
210
0.0
220
0.0
230
1.0
 70
    11
 71
     3
 72
    20
 73
    16
 74
     0
 42
0.0000000001
 43
0.0000000001
 40
0.0
 40
0.0
 40
0.0
 40
0.0
 40
0.25
 40
0.25
 40
0.25
 40
0.25
 40
0.5
 40
0.5
 40
0.5
 40
0.5
 40
0.75
 40
0.75
 40
0.75
 40
0.75
 40
1.0
 40
1.0
 40
1.0
 40
1.0
 10
-12.64993
 20
-18.15
 30
0.0
 10
-12.64993
 20
-18.15
 30
0.0
 10
-12.64993
 20
-17.55
 30
0.0
 10
-12.64993
 20
-17.55
 30
0.0
 10
-12.64993
 20
-17.55
 30
0.0
 10
-12.64993
 20
-17.55
 30
0.0
 10
-12.34992
 20
-17.55
 30
0.0
 10
-12.34992
 20
-17.55
 30
0.0
 10
-12.34992
 20
-17.55
 30
0.0
 10
-12.34992
 20
-17.55
 30
0.0
 10
-12.34992
 20
-18.15
 30
0.0
 10
-12.34992
 20
-18.15
 30
0.0
 10
-12.34992
 20
-18.15
 30
0.0
 10
-12.34992
 20
-18.15
 30
0.0
 10
-12.64993
 20
-18.15
 30
0.0
 10
-12.64993
 20
-18.15
 30
0.0
  0
SPLINE
  5
92
330
1F
100
AcDbEntity
  8
Layer 1
370
    53
100
AcDbSpline
210
0.0
220
0.0
230
1.0
 70
    11
 71
     3
 72
    20
 73
    16
 74
     0
 42
0.0000000001
 43
0.0000000001
 40
0.0
 40
0.0
 40
0.0
 40
0.0
 40
0.25
 40
0.25
 40
0.25
 40
0.25
 40
0.5
 40
0.5
 40
0.5
 40
0.5
 40
0.75
 40
0.75
 40
0.75
 40
0.75
 40
1.0
 40
1.0
 40
1.0
 40
1.0
 10
-8.65006
 20
-12.15
 30
0.0
 10
-8.65006
 20
-12.15
 30
0.0
 10
-8.65006
 20
-11.55
 30
0.0
 10
-8.65006
 20
-11.55
 30
0.0
 10
-8.65006
 20
-11.55
 30
0.0
 10
-8.65006
 20
-11.55
 30
0.0
 10
-8.35007
 20
-11.55
 30
0.0
 10
-8.35007
 20
-11.55
 30
0.0
 10
-8.35007
 20
-11.55
 30
0.0
 10
-8.35007
 20
-11.55
 30
0.0
 10
-8.35007
 20
-12.15
 30
0.0
 10
-8.35007
 20
-12.15
 30
0.0
 10
-8.35007
 20
-12.15
 30
0.0
 10
-8.35007
 20
-12.15
 30
0.0
 10
-8.65006
 20
-12.15
 30
0.0
 10
-8.65006
 20
-12.15
 30
0.0
  0
SPLINE
  5
93
330
1F
100
AcDbEntity
  8
Layer 1
370
    53
100
AcDbSpline
210
0.0
220
0.0
230
1.0
 70
    11
 71
     3
 72
    20
 73
    16
 74
     0
 42
0.0000000001
 43
0.0000000001
 40
0.0
 40
0.0
 40
0.0
 40
0.0
 40
0.25
 40
0.25
 40
0.25
 40
0.25
 40
0.5
 40
0.5
 40
0.5
 40
0.5
 40
0.75
 40
0.75
 40
0.75
 40
0.75
 40
1.0
 40
1.0
 40
1.0
 40
1.0
 10
-10.64999
 20
-12.15
 30
0.0
 10
-10.64999
 20
-12.15
 30
0.0
 10
-10.64999
 20
-11.55
 30
0.0
 10
-10.64999
 20
-11.55
 30
0.0
 10
-10.64999
 20
-11.55
 30
0.0
 10
-10.64999
 20
-11.55
 30
0.0
 10
-10.34999
 20
-11.55
 30
0.0
 10
-10.34999
 20
-11.55
 30
0.0
 10
-10.34999
 20
-11.55
 30
0.0
 10
-10.34999
 20
-11.55
 30
0.0
 10
-10.34999
 20
-12.15
 30
0.0
 10
-10.34999
 20
-12.15
 30
0.0
 10
-10.34999
 20
-12.15
 30
0.0
 10
-10.34999
 20
-12.15
 30
0.0
 10
-10.64999
 20
-12.15
 30
0.0
 10
-10.64999
 20
-12.15
 30
0.0
  0
SPLINE
  5
94
330
1F
100
AcDbEntity
  8
Layer 1
370
    53
100
AcDbSpline
210
0.0
220
0.0
230
1.0
 70
    11
 71
     3
 72
    20
 73
    16
 74
     0
 42
0.0000000001
 43
0.0000000001
 40
0.0
 40
0.0
 40
0.0
 40
0.0
 40
0.25
 40
0.25
 40
0.25
 40
0.25
 40
0.5
 40
0.5
 40
0.5
 40
0.5
 40
0.75
 40
0.75
 40
0.75
 40
0.75
 40
1.0
 40
1.0
 40
1.0
 40
1.0
 10
-12.64993
 20
-12.15
 30
0.0
 10
-12.64993
 20
-12.15
 30
0.0
 10
-12.64993
 20
-11.55
 30
0.0
 10
-12.64993
 20
-11.55
 30
0.0
 10
-12.64993
 20
-11.55
 30
0.0
 10
-12.64993
 20
-11.55
 30
0.0
 10
-12.34992
 20
-11.55
 30
0.0
 10
-12.34992
 20
-11.55
 30
0.0
 10
-12.34992
 20
-11.55
 30
0.0
 10
-12.34992
 20
-11.55
 30
0.0
 10
-12.34992
 20
-12.15
 30
0.0
 10
-12.34992
 20
-12.15
 30
0.0
 10
-12.34992
 20
-12.15
 30
0.0
 10
-12.34992
 20
-12.15
 30
0.0
 10
-12.64993
 20
-12.15
 30
0.0
 10
-12.64993
 20
-12.15
 30
0.0
  0
ENDSEC
  0
SECTION
  2
OBJECTS
  0
DICTIONARY
  5
C
330
0
100
AcDbDictionary
281
     1
  3
ACAD_GROUP
350
D
  3
ACAD_LAYOUT
350
1A
  3
ACAD_MLEADERSTYLE
350
96
  3
ACAD_MLINESTYLE
350
17
  3
ACAD_PLOTSETTINGS
350
19
  3
ACAD_PLOTSTYLENAME
350
E
  3
ACAD_SCALELIST
350
3B
  3
ACAD_TABLESTYLE
350
95
  3
ACAD_VISUALSTYLE
350
2A
  0
DICTIONARY
  5
D
102
{ACAD_REACTORS
330
C
102
}
330
C
100
AcDbDictionary
281
     1
  0
DICTIONARY
  5
1A
102
{ACAD_REACTORS
330
C
102
}
330
C
100
AcDbDictionary
281
     1
  3
Layout1
350
1E
  3
Layout2
350
26
  3
Model
350
22
  0
DICTIONARY
  5
96
102
{ACAD_REACTORS
330
C
102
}
330
C
100
AcDbDictionary
281
     1
  0
DICTIONARY
  5
17
102
{ACAD_REACTORS
330
C
102
}
330
C
100
AcDbDictionary
281
     1
  3
Standard
350
18
  0
DICTIONARY
  5
19
102
{ACAD_REACTORS
330
C
102
}
330
C
100
AcDbDictionary
281
     1
  0
ACDBDICTIONARYWDFLT
  5
E
102
{ACAD_REACTORS
330
C
102
}
330
C
100
AcDbDictionary
281
     1
  3
Normal
350
F
100
AcDbDictionaryWithDefault
340
F
  0
DICTIONARY
  5
3B
102
{ACAD_REACTORS
330
C
102
}
330
C
100
AcDbDictionary
281
     1
  3
A0
350
3C
  3
A1
350
3D
  3
A2
350
3E
  3
A3
350
3F
  3
A4
350
40
  3
A5
350
41
  3
A6
350
42
  3
A7
350
43
  3
A8
350
44
  3
A9
350
45
  3
B0
350
46
  3
B1
350
47
  3
B2
350
48
  3
B3
350
49
  3
B4
350
4A
  3
B5
350
4B
  3
B6
350
4C
  3
B7
350
4D
  3
B8
350
4E
  3
B9
350
4F
  3
C0
350
50
  3
C1
350
51
  3
C2
350
52
  3
C3
350
53
  3
C4
350
54
  3
C5
350
55
  3
C6
350
56
  3
C7
350
57
  3
C8
350
58
  3
C9
350
59
  3
D0
350
5A
  3
D1
350
5B
  3
D2
350
5C
  0
DICTIONARY
  5
95
102
{ACAD_REACTORS
330
C
102
}
330
C
100
AcDbDictionary
281
     1
  0
DICTIONARY
  5
2A
102
{ACAD_REACTORS
330
C
102
}
330
C
100
AcDbDictionary
281
     1
  3
2dWireframe
350
2F
  3
3D Hidden
350
31
  3
3dWireframe
350
30
  3
Basic
350
32
  3
Brighten
350
36
  3
ColorChange
350
3A
  3
Conceptual
350
34
  3
Dim
350
35
  3
Facepattern
350
39
  3
Flat
350
2B
  3
FlatWithEdges
350
2C
  3
Gouraud
350
2D
  3
GouraudWithEdges
350
2E
  3
Linepattern
350
38
  3
Realistic
350
33
  3
Thicken
350
37
  0
LAYOUT
  5
1E
102
{ACAD_REACTORS
330
1A
102
}
330
1A
100
AcDbPlotSettings
  1

  2
none_device
  4

  6

 40
0.0
 41
0.0
 42
0.0
 43
0.0
 44
0.0
 45
0.0
 46
0.0
 47
0.0
 48
0.0
 49
0.0
140
0.0
141
0.0
142
1.0
143
1.0
 70
   688
 72
     0
 73
     0
 74
     5
  7

 75
    16
 76
     0
 77
     2
 78
   300
147
1.0
148
0.0
149
0.0
100
AcDbLayout
  1
Layout1
 70
     1
 71
     1
 10
0.0
 20
0.0
 11
12.0
 21
9.0
 12
0.0
 22
0.0
 32
0.0
 14
1.000000000000000E+20
 24
1.000000000000000E+20
 34
1.000000000000000E+20
 15
-1.000000000000000E+20
 25
-1.000000000000000E+20
 35
-1.000000000000000E+20
146
0.0
 13
0.0
 23
0.0
 33
0.0
 16
1.0
 26
0.0
 36
0.0
 17
0.0
 27
1.0
 37
0.0
 76
     0
330
1B
  0
LAYOUT
  5
26
102
{ACAD_REACTORS
330
1A
102
}
330
1A
100
AcDbPlotSettings
  1

  2
none_device
  4

  6

 40
0.0
 41
0.0
 42
0.0
 43
0.0
 44
0.0
 45
0.0
 46
0.0
 47
0.0
 48
0.0
 49
0.0
140
0.0
141
0.0
142
1.0
143
1.0
 70
   688
 72
     0
 73
     0
 74
     5
  7

 75
    16
 76
     0
 77
     2
 78
   300
147
1.0
148
0.0
149
0.0
100
AcDbLayout
  1
Layout2
 70
     1
 71
     2
 10
0.0
 20
0.0
 11
0.0
 21
0.0
 12
0.0
 22
0.0
 32
0.0
 14
0.0
 24
0.0
 34
0.0
 15
0.0
 25
0.0
 35
0.0
146
0.0
 13
0.0
 23
0.0
 33
0.0
 16
1.0
 26
0.0
 36
0.0
 17
0.0
 27
1.0
 37
0.0
 76
     0
330
23
  0
LAYOUT
  5
22
102
{ACAD_REACTORS
330
1A
102
}
330
1A
100
AcDbPlotSettings
  1

  2
none_device
  4

  6

 40
0.0
 41
0.0
 42
0.0
 43
0.0
 44
0.0
 45
0.0
 46
0.0
 47
0.0
 48
0.0
 49
0.0
140
0.0
141
0.0
142
1.0
143
1.0
 70
  1712
 72
     0
 73
     0
 74
     0
  7

 75
     0
 76
     0
 77
     2
 78
   300
147
1.0
148
0.0
149
0.0
100
AcDbLayout
  1
Model
 70
     1
 71
     0
 10
0.0
 20
0.0
 11
12.0
 21
9.0
 12
0.0
 22
0.0
 32
0.0
 14
-13.17824
 24
-19.52827
 34
0.0
 15
-7.82175
 25
-10.17173
 35
0.0
146
0.0
 13
0.0
 23
0.0
 33
0.0
 16
1.0
 26
0.0
 36
0.0
 17
0.0
 27
1.0
 37
0.0
 76
     0
330
1F
331
29
  0
MLINESTYLE
  5
18
102
{ACAD_REACTORS
330
17
102
}
330
17
100
AcDbMlineStyle
  2
Standard
 70
     0
  3

 62
   256
 51
90.0
 52
90.0
 71
     2
 49
0.5
 62
   256
  6
BYLAYER
 49
-0.5
 62
   256
  6
BYLAYER
  0
ACDBPLACEHOLDER
  5
F
102
{ACAD_REACTORS
330
E
102
}
330
E
  0
SCALE
  5
3C
102
{ACAD_REACTORS
330
3B
102
}
330
3B
100
AcDbScale
 70
     0
300
1:1
140
1.0
141
1.0
290
     1
  0
SCALE
  5
3D
102
{ACAD_REACTORS
330
3B
102
}
330
3B
100
AcDbScale
 70
     0
300
1:2
140
1.0
141
2.0
290
     0
  0
SCALE
  5
3E
102
{ACAD_REACTORS
330
3B
102
}
330
3B
100
AcDbScale
 70
     0
300
1:4
140
1.0
141
4.0
290
     0
  0
SCALE
  5
3F
102
{ACAD_REACTORS
330
3B
102
}
330
3B
100
AcDbScale
 70
     0
300
1:5
140
1.0
141
5.0
290
     0
  0
SCALE
  5
40
102
{ACAD_REACTORS
330
3B
102
}
330
3B
100
AcDbScale
 70
     0
300
1:8
140
1.0
141
8.0
290
     0
  0
SCALE
  5
41
102
{ACAD_REACTORS
330
3B
102
}
330
3B
100
AcDbScale
 70
     0
300
1:10
140
1.0
141
10.0
290
     0
  0
SCALE
  5
42
102
{ACAD_REACTORS
330
3B
102
}
330
3B
100
AcDbScale
 70
     0
300
1:16
140
1.0
141
16.0
290
     0
  0
SCALE
  5
43
102
{ACAD_REACTORS
330
3B
102
}
330
3B
100
AcDbScale
 70
     0
300
1:20
140
1.0
141
20.0
290
     0
  0
SCALE
  5
44
102
{ACAD_REACTORS
330
3B
102
}
330
3B
100
AcDbScale
 70
     0
300
1:30
140
1.0
141
30.0
290
     0
  0
SCALE
  5
45
102
{ACAD_REACTORS
330
3B
102
}
330
3B
100
AcDbScale
 70
     0
300
1:40
140
1.0
141
40.0
290
     0
  0
SCALE
  5
46
102
{ACAD_REACTORS
330
3B
102
}
330
3B
100
AcDbScale
 70
     0
300
1:50
140
1.0
141
50.0
290
     0
  0
SCALE
  5
47
102
{ACAD_REACTORS
330
3B
102
}
330
3B
100
AcDbScale
 70
     0
300
1:100
140
1.0
141
100.0
290
     0
  0
SCALE
  5
48
102
{ACAD_REACTORS
330
3B
102
}
330
3B
100
AcDbScale
 70
     0
300
2:1
140
2.0
141
1.0
290
     0
  0
SCALE
  5
49
102
{ACAD_REACTORS
330
3B
102
}
330
3B
100
AcDbScale
 70
     0
300
4:1
140
4.0
141
1.0
290
     0
  0
SCALE
  5
4A
102
{ACAD_REACTORS
330
3B
102
}
330
3B
100
AcDbScale
 70
     0
300
8:1
140
8.0
141
1.0
290
     0
  0
SCALE
  5
4B
102
{ACAD_REACTORS
330
3B
102
}
330
3B
100
AcDbScale
 70
     0
300
10:1
140
10.0
141
1.0
290
     0
  0
SCALE
  5
4C
102
{ACAD_REACTORS
330
3B
102
}
330
3B
100
AcDbScale
 70
     0
300
100:1
140
100.0
141
1.0
290
     0
  0
SCALE
  5
4D
102
{ACAD_REACTORS
330
3B
102
}
330
3B
100
AcDbScale
 70
     0
300
1/128" = 1'-0"
140
0.0078125
141
12.0
290
     0
  0
SCALE
  5
4E
102
{ACAD_REACTORS
330
3B
102
}
330
3B
100
AcDbScale
 70
     0
300
1/64" = 1'-0"
140
0.015625
141
12.0
290
     0
  0
SCALE
  5
4F
102
{ACAD_REACTORS
330
3B
102
}
330
3B
100
AcDbScale
 70
     0
300
1/32" = 1'-0"
140
0.03125
141
12.0
290
     0
  0
SCALE
  5
50
102
{ACAD_REACTORS
330
3B
102
}
330
3B
100
AcDbScale
 70
     0
300
1/16" = 1'-0"
140
0.0625
141
12.0
290
     0
  0
SCALE
  5
51
102
{ACAD_REACTORS
330
3B
102
}
330
3B
100
AcDbScale
 70
     0
300
3/32" = 1'-0"
140
0.09375
141
12.0
290
     0
  0
SCALE
  5
52
102
{ACAD_REACTORS
330
3B
102
}
330
3B
100
AcDbScale
 70
     0
300
1/8" = 1'-0"
140
0.125
141
12.0
290
     0
  0
SCALE
  5
53
102
{ACAD_REACTORS
330
3B
102
}
330
3B
100
AcDbScale
 70
     0
300
3/16" = 1'-0"
140
0.1875
141
12.0
290
     0
  0
SCALE
  5
54
102
{ACAD_REACTORS
330
3B
102
}
330
3B
100
AcDbScale
 70
     0
300
1/4" = 1'-0"
140
0.25
141
12.0
290
     0
  0
SCALE
  5
55
102
{ACAD_REACTORS
330
3B
102
}
330
3B
100
AcDbScale
 70
     0
300
3/8" = 1'-0"
140
0.375
141
12.0
290
     0
  0
SCALE
  5
56
102
{ACAD_REACTORS
330
3B
102
}
330
3B
100
AcDbScale
 70
     0
300
1/2" = 1'-0"
140
0.5
141
12.0
290
     0
  0
SCALE
  5
57
102
{ACAD_REACTORS
330
3B
102
}
330
3B
100
AcDbScale
 70
     0
300
3/4" = 1'-0"
140
0.75
141
12.0
290
     0
  0
SCALE
  5
58
102
{ACAD_REACTORS
330
3B
102
}
330
3B
100
AcDbScale
 70
     0
300
1" = 1'-0"
140
1.0
141
12.0
290
     0
  0
SCALE
  5
59
102
{ACAD_REACTORS
330
3B
102
}
330
3B
100
AcDbScale
 70
     0
300
1-1/2" = 1'-0"
140
1.5
141
12.0
290
     0
  0
SCALE
  5
5A
102
{ACAD_REACTORS
330
3B
102
}
330
3B
100
AcDbScale
 70
     0
300
3" = 1'-0"
140
3.0
141
12.0
290
     0
  0
SCALE
  5
5B
102
{ACAD_REACTORS
330
3B
102
}
330
3B
100
AcDbScale
 70
     0
300
6" = 1'-0"
140
6.0
141
12.0
290
     0
  0
SCALE
  5
5C
102
{ACAD_REACTORS
330
3B
102
}
330
3B
100
AcDbScale
 70
     0
300
1'-0" = 1'-0"
140
12.0
141
12.0
290
     0
  0
VISUALSTYLE
  5
2F
102
{ACAD_REACTORS
330
2A
102
}
330
2A
100
AcDbVisualStyle
  2
2dWireframe
 70
     4
 71
     0
 72
     2
 73
     0
 90
        0
 40
-0.6
 41
-30.0
 62
     5
 63
     7
421
 16777215
 74
     1
 91
        4
 64
     7
 65
   257
 75
     1
175
     1
 42
1.0
 92
        0
 66
   257
 43
1.0
 76
     1
 77
     6
 78
     2
 67
     7
 79
     5
170
     0
171
     0
290
     0
174
     0
 93
        1
 44
0.0
173
     0
291
     0
 45
0.0
  0
VISUALSTYLE
  5
31
102
{ACAD_REACTORS
330
2A
102
}
330
2A
100
AcDbVisualStyle
  2
3D Hidden
 70
     6
 71
     1
 72
     2
 73
     2
 90
        0
 40
-0.6
 41
-30.0
 62
     5
 63
     7
421
 16777215
 74
     2
 91
        2
 64
     7
 65
   257
 75
     2
175
     1
 42
40.0
 92
        0
 66
   257
 43
1.0
 76
     1
 77
     6
 78
     2
 67
     7
 79
     3
170
     0
171
     0
290
     0
174
     0
 93
        1
 44
0.0
173
     0
291
     0
 45
0.0
  0
VISUALSTYLE
  5
30
102
{ACAD_REACTORS
330
2A
102
}
330
2A
100
AcDbVisualStyle
  2
3dWireframe
 70
     5
 71
     0
 72
     2
 73
     0
 90
        0
 40
-0.6
 41
-30.0
 62
     5
 63
     7
421
 16777215
 74
     1
 91
        4
 64
     7
 65
   257
 75
     1
175
     1
 42
1.0
 92
        0
 66
   257
 43
1.0
 76
     1
 77
     6
 78
     2
 67
     7
 79
     5
170
     0
171
     0
290
     0
174
     0
 93
        1
 44
0.0
173
     0
291
     0
 45
0.0
  0
VISUALSTYLE
  5
32
102
{ACAD_REACTORS
330
2A
102
}
330
2A
100
AcDbVisualStyle
  2
Basic
 70
     7
 71
     1
 72
     0
 73
     1
 90
        0
 40
-0.6
 41
-30.0
 62
     5
 63
     7
421
 16777215
 74
     0
 91
        4
 64
     7
 65
   257
 75
     1
175
     1
 42
1.0
 92
        8
 66
     7
 43
1.0
 76
     1
 77
     6
 78
     2
 67
     7
 79
     5
170
     0
171
     0
290
     0
174
     0
 93
        1
 44
0.0
173
     0
291
     1
 45
0.0
  0
VISUALSTYLE
  5
36
102
{ACAD_REACTORS
330
2A
102
}
330
2A
100
AcDbVisualStyle
  2
Brighten
 70
    12
 71
     2
 72
     2
 73
     0
 90
        0
 40
-0.6
 41
-30.0
 62
     5
 63
     7
421
 16777215
 74
     1
 91
        4
 64
     7
 65
   257
 75
     1
175
     1
 42
1.0
 92
        8
 66
     7
 43
1.0
 76
     1
 77
     6
 78
     2
 67
     7
 79
     5
170
     0
171
     0
290
     0
174
     0
 93
        1
 44
50.0
173
     0
291
     1
 45
0.0
  0
VISUALSTYLE
  5
3A
102
{ACAD_REACTORS
330
2A
102
}
330
2A
100
AcDbVisualStyle
  2
ColorChange
 70
    16
 71
     2
 72
     2
 73
     3
 90
        0
 40
-0.6
 41
-30.0
 62
     5
 63
     8
421
  8421504
 74
     1
 91
        4
 64
     7
 65
   257
 75
     1
175
     1
 42
1.0
 92
        8
 66
     8
424
  8421504
 43
1.0
 76
     1
 77
     6
 78
     2
 67
     7
 79
     5
170
     0
171
     0
290
     0
174
     0
 93
        1
 44
0.0
173
     0
291
     1
 45
0.0
  0
VISUALSTYLE
  5
34
102
{ACAD_REACTORS
330
2A
102
}
330
2A
100
AcDbVisualStyle
  2
Conceptual
 70
     9
 71
     3
 72
     2
 73
     0
 90
        0
 40
-0.6
 41
-30.0
 62
     5
 63
     7
421
 16777215
 74
     2
 91
        2
 64
     7
 65
   257
 75
     1
175
     1
 42
40.0
 92
        8
 66
     7
 43
1.0
 76
     1
 77
     6
 78
     2
 67
     7
 79
     3
170
     0
171
     0
290
     0
174
     0
 93
        1
 44
0.0
173
     0
291
     0
 45
0.0
  0
VISUALSTYLE
  5
35
102
{ACAD_REACTORS
330
2A
102
}
330
2A
100
AcDbVisualStyle
  2
Dim
 70
    11
 71
     2
 72
     2
 73
     0
 90
        0
 40
-0.6
 41
-30.0
 62
     5
 63
     7
421
 16777215
 74
     1
 91
        4
 64
     7
 65
   257
 75
     1
175
     1
 42
1.0
 92
        8
 66
     7
 43
1.0
 76
     1
 77
     6
 78
     2
 67
     7
 79
     5
170
     0
171
     0
290
     0
174
     0
 93
        1
 44
-50.0
173
     0
291
     1
 45
0.0
  0
VISUALSTYLE
  5
39
102
{ACAD_REACTORS
330
2A
102
}
330
2A
100
AcDbVisualStyle
  2
Facepattern
 70
    15
 71
     2
 72
     2
 73
     0
 90
        0
 40
-0.6
 41
-30.0
 62
     5
 63
     7
421
 16777215
 74
     1
 91
        4
 64
     7
 65
   257
 75
     1
175
     1
 42
1.0
 92
        8
 66
     7
 43
1.0
 76
     1
 77
     6
 78
     2
 67
     7
 79
     5
170
     0
171
     0
290
     0
174
     0
 93
        1
 44
0.0
173
     0
291
     1
 45
0.0
  0
VISUALSTYLE
  5
2B
102
{ACAD_REACTORS
330
2A
102
}
330
2A
100
AcDbVisualStyle
  2
Flat
 70
     0
 71
     2
 72
     1
 73
     1
 90
        2
 40
-0.6
 41
30.0
 62
     5
 63
     7
421
 16777215
 74
     0
 91
        4
 64
     7
 65
   257
 75
     1
175
     1
 42
1.0
 92
        8
 66
     7
 43
1.0
 76
     1
 77
     6
 78
     2
 67
     7
 79
     5
170
     0
171
     0
290
     0
174
     0
 93
       13
 44
0.0
173
     0
291
     1
 45
0.0
  0
VISUALSTYLE
  5
2C
102
{ACAD_REACTORS
330
2A
102
}
330
2A
100
AcDbVisualStyle
  2
FlatWithEdges
 70
     1
 71
     2
 72
     1
 73
     1
 90
        2
 40
-0.6
 41
30.0
 62
     5
 63
     7
421
 16777215
 74
     1
 91
        4
 64
     7
 65
   257
 75
     1
175
     1
 42
1.0
 92
        0
 66
   257
 43
1.0
 76
     1
 77
     6
 78
     2
 67
     7
 79
     5
170
     0
171
     0
290
     0
174
     0
 93
       13
 44
0.0
173
     0
291
     1
 45
0.0
  0
VISUALSTYLE
  5
2D
102
{ACAD_REACTORS
330
2A
102
}
330
2A
100
AcDbVisualStyle
  2
Gouraud
 70
     2
 71
     2
 72
     2
 73
     1
 90
        2
 40
-0.6
 41
30.0
 62
     5
 63
     7
421
 16777215
 74
     0
 91
        4
 64
     7
 65
   257
 75
     1
175
     1
 42
1.0
 92
        0
 66
     7
 43
1.0
 76
     1
 77
     6
 78
     2
 67
     7
 79
     5
170
     0
171
     0
290
     0
174
     0
 93
       13
 44
0.0
173
     0
291
     1
 45
0.0
  0
VISUALSTYLE
  5
2E
102
{ACAD_REACTORS
330
2A
102
}
330
2A
100
AcDbVisualStyle
  2
GouraudWithEdges
 70
     3
 71
     2
 72
     2
 73
     1
 90
        2
 40
-0.6
 41
30.0
 62
     5
 63
     7
421
 16777215
 74
     1
 91
        4
 64
     7
 65
   257
 75
     1
175
     1
 42
1.0
 92
        0
 66
   257
 43
1.0
 76
     1
 77
     6
 78
     2
 67
     7
 79
     5
170
     0
171
     0
290
     0
174
     0
 93
       13
 44
0.0
173
     0
291
     1
 45
0.0
  0
VISUALSTYLE
  5
38
102
{ACAD_REACTORS
330
2A
102
}
330
2A
100
AcDbVisualStyle
  2
Linepattern
 70
    14
 71
     2
 72
     2
 73
     0
 90
        0
 40
-0.6
 41
-30.0
 62
     5
 63
     7
421
 16777215
 74
     1
 91
        4
 64
     7
 65
   257
 75
     7
175
     7
 42
1.0
 92
        8
 66
     7
 43
1.0
 76
     1
 77
     6
 78
     2
 67
     7
 79
     5
170
     0
171
     0
290
     0
174
     0
 93
        1
 44
0.0
173
     0
291
     1
 45
0.0
  0
VISUALSTYLE
  5
33
102
{ACAD_REACTORS
330
2A
102
}
330
2A
100
AcDbVisualStyle
  2
Realistic
 70
     8
 71
     2
 72
     2
 73
     0
 90
        0
 40
-0.6
 41
-30.0
 62
     5
 63
     7
421
 16777215
 74
     1
 91
        0
 64
     7
 65
   257
 75
     1
175
     1
 42
1.0
 92
        8
 66
     8
424
  7895160
 43
1.0
 76
     1
 77
     6
 78
     2
 67
     7
 79
     5
170
     0
171
     0
290
     0
174
     0
 93
       13
 44
0.0
173
     0
291
     0
 45
0.0
  0
VISUALSTYLE
  5
37
102
{ACAD_REACTORS
330
2A
102
}
330
2A
100
AcDbVisualStyle
  2
Thicken
 70
    13
 71
     2
 72
     2
 73
     0
 90
        0
 40
-0.6
 41
-30.0
 62
     5
 63
     7
421
 16777215
 74
     1
 91
        4
 64
     7
 65
   257
 75
     1
175
     1
 42
1.0
 92
       12
 66
     7
 43
1.0
 76
     1
 77
     6
 78
     2
 67
     7
 79
     5
170
     0
171
     0
290
     0
174
     0
 93
        1
 44
0.0
173
     0
291
     1
 45
0.0
  0
ENDSEC
  0
EOF
