  0
SECTION
  2
BLOCKS
  0
ENDSEC
  0
SECTION
  2
ENTITIES
  0
LINE
  8
0
 10
32.2435
 20
-28.3429
 11
33.4088
 21
-27.8815
  0
LINE
  8
0
 10
33.4088
 20
-27.8815
 11
34.4227
 21
-27.1448
  0
LINE
  8
0
 10
34.4227
 20
-27.1448
 11
35.2216
 21
-26.1791
  0
LINE
  8
0
 10
35.2216
 20
-26.1791
 11
35.7553
 21
-25.0451
  0
LINE
  8
0
 10
35.7553
 20
-25.0451
 11
36
 21
-23.5
  0
LINE
  8
0
 10
36
 20
-23.5
 11
36
 21
23.5
  0
LINE
  8
0
 10
36
 20
23.5
 11
35.8429
 21
24.7435
  0
LINE
  8
0
 10
35.8429
 20
24.7435
 11
35.3815
 21
25.9088
  0
LINE
  8
0
 10
35.3815
 20
25.9088
 11
34.6448
 21
26.9227
  0
LINE
  8
0
 10
34.6448
 20
26.9227
 11
33.6791
 21
27.7216
  0
LINE
  8
0
 10
33.6791
 20
27.7216
 11
32.5451
 21
28.2553
  0
LINE
  8
0
 10
32.5451
 20
28.2553
 11
31
 21
28.5
  0
LINE
  8
0
 10
31
 20
28.5
 11
-31
 21
28.5
  0
LINE
  8
0
 10
-31
 20
28.5
 11
-32.2435
 21
28.3429
  0
LINE
  8
0
 10
-32.2435
 20
28.3429
 11
-33.4088
 21
27.8815
  0
LINE
  8
0
 10
-33.4088
 20
27.8815
 11
-34.4227
 21
27.1448
  0
LINE
  8
0
 10
-34.4227
 20
27.1448
 11
-35.2216
 21
26.1791
  0
LINE
  8
0
 10
-35.2216
 20
26.1791
 11
-35.7553
 21
25.0451
  0
LINE
  8
0
 10
-35.7553
 20
25.0451
 11
-36
 21
23.5
  0
LINE
  8
0
 10
-36
 20
23.5
 11
-36
 21
-23.5
  0
LINE
  8
0
 10
-36
 20
-23.5
 11
-35.8429
 21
-24.7435
  0
LINE
  8
0
 10
-35.8429
 20
-24.7435
 11
-35.3815
 21
-25.9088
  0
LINE
  8
0
 10
-35.3815
 20
-25.9088
 11
-34.6448
 21
-26.9227
  0
LINE
  8
0
 10
-34.6448
 20
-26.9227
 11
-33.6791
 21
-27.7216
  0
LINE
  8
0
 10
-33.6791
 20
-27.7216
 11
-32.5451
 21
-28.2553
  0
LINE
  8
0
 10
-32.5451
 20
-28.2553
 11
-31
 21
-28.5
  0
LINE
  8
0
 10
-31
 20
-28.5
 11
31
 21
-28.5
  0
LINE
  8
0
 10
31
 20
-28.5
 11
32.2435
 21
-28.3429
  0
LINE
  8
0
 10
-0.562134
 20
19.5531
 11
-1.27733
 21
19.7855
  0
LINE
  8
0
 10
-1.27733
 20
19.7855
 11
-1.91226
 21
20.1884
  0
LINE
  8
0
 10
-1.91226
 20
20.1884
 11
-2.42705
 21
20.7366
  0
LINE
  8
0
 10
-2.42705
 20
20.7366
 11
-2.78932
 21
21.3956
  0
LINE
  8
0
 10
-2.78932
 20
21.3956
 11
-2.97633
 21
22.124
  0
LINE
  8
0
 10
-2.97633
 20
22.124
 11
-2.97633
 21
22.876
  0
LINE
  8
0
 10
-2.97633
 20
22.876
 11
-2.78932
 21
23.6044
  0
LINE
  8
0
 10
-2.78932
 20
23.6044
 11
-2.42705
 21
24.2634
  0
LINE
  8
0
 10
-2.42705
 20
24.2634
 11
-1.91226
 21
24.8115
  0
LINE
  8
0
 10
-1.91226
 20
24.8115
 11
-1.27733
 21
25.2145
  0
LINE
  8
0
 10
-1.27733
 20
25.2145
 11
-0.562134
 21
25.4469
  0
LINE
  8
0
 10
-0.562134
 20
25.4469
 11
0.18837
 21
25.4941
  0
LINE
  8
0
 10
0.18837
 20
25.4941
 11
0.927048
 21
25.3532
  0
LINE
  8
0
 10
0.927048
 20
25.3532
 11
1.60747
 21
25.033
  0
LINE
  8
0
 10
1.60747
 20
25.033
 11
2.1869
 21
24.5536
  0
LINE
  8
0
 10
2.1869
 20
24.5536
 11
2.62891
 21
23.9453
  0
LINE
  8
0
 10
2.62891
 20
23.9453
 11
2.90575
 21
23.2461
  0
LINE
  8
0
 10
2.90575
 20
23.2461
 11
3
 21
22.5
  0
LINE
  8
0
 10
3
 20
22.5
 11
2.90575
 21
21.7539
  0
LINE
  8
0
 10
2.90575
 20
21.7539
 11
2.62891
 21
21.0547
  0
LINE
  8
0
 10
2.62891
 20
21.0547
 11
2.1869
 21
20.4464
  0
LINE
  8
0
 10
2.1869
 20
20.4464
 11
1.60747
 21
19.967
  0
LINE
  8
0
 10
1.60747
 20
19.967
 11
0.927048
 21
19.6468
  0
LINE
  8
0
 10
0.927048
 20
19.6468
 11
0.18837
 21
19.5059
  0
LINE
  8
0
 10
0.18837
 20
19.5059
 11
-0.562134
 21
19.5531
  0
LINE
  8
0
 10
29.4379
 20
19.5531
 11
28.7227
 21
19.7855
  0
LINE
  8
0
 10
28.7227
 20
19.7855
 11
28.0877
 21
20.1884
  0
LINE
  8
0
 10
28.0877
 20
20.1884
 11
27.5729
 21
20.7366
  0
LINE
  8
0
 10
27.5729
 20
20.7366
 11
27.2107
 21
21.3956
  0
LINE
  8
0
 10
27.2107
 20
21.3956
 11
27.0237
 21
22.124
  0
LINE
  8
0
 10
27.0237
 20
22.124
 11
27.0237
 21
22.876
  0
LINE
  8
0
 10
27.0237
 20
22.876
 11
27.2107
 21
23.6044
  0
LINE
  8
0
 10
27.2107
 20
23.6044
 11
27.5729
 21
24.2634
  0
LINE
  8
0
 10
27.5729
 20
24.2634
 11
28.0877
 21
24.8115
  0
LINE
  8
0
 10
28.0877
 20
24.8115
 11
28.7227
 21
25.2145
  0
LINE
  8
0
 10
28.7227
 20
25.2145
 11
29.4379
 21
25.4469
  0
LINE
  8
0
 10
29.4379
 20
25.4469
 11
30.1884
 21
25.4941
  0
LINE
  8
0
 10
30.1884
 20
25.4941
 11
30.927
 21
25.3532
  0
LINE
  8
0
 10
30.927
 20
25.3532
 11
31.6075
 21
25.033
  0
LINE
  8
0
 10
31.6075
 20
25.033
 11
32.1869
 21
24.5536
  0
LINE
  8
0
 10
32.1869
 20
24.5536
 11
32.6289
 21
23.9453
  0
LINE
  8
0
 10
32.6289
 20
23.9453
 11
32.9057
 21
23.2461
  0
LINE
  8
0
 10
32.9057
 20
23.2461
 11
33
 21
22.5
  0
LINE
  8
0
 10
33
 20
22.5
 11
32.9057
 21
21.7539
  0
LINE
  8
0
 10
32.9057
 20
21.7539
 11
32.6289
 21
21.0547
  0
LINE
  8
0
 10
32.6289
 20
21.0547
 11
32.1869
 21
20.4464
  0
LINE
  8
0
 10
32.1869
 20
20.4464
 11
31.6075
 21
19.967
  0
LINE
  8
0
 10
31.6075
 20
19.967
 11
30.927
 21
19.6468
  0
LINE
  8
0
 10
30.927
 20
19.6468
 11
30.1884
 21
19.5059
  0
LINE
  8
0
 10
30.1884
 20
19.5059
 11
29.4379
 21
19.5531
  0
LINE
  8
0
 10
-30.5621
 20
19.5531
 11
-31.2773
 21
19.7855
  0
LINE
  8
0
 10
-31.2773
 20
19.7855
 11
-31.9123
 21
20.1884
  0
LINE
  8
0
 10
-31.9123
 20
20.1884
 11
-32.427
 21
20.7366
  0
LINE
  8
0
 10
-32.427
 20
20.7366
 11
-32.7893
 21
21.3956
  0
LINE
  8
0
 10
-32.7893
 20
21.3956
 11
-32.9763
 21
22.124
  0
LINE
  8
0
 10
-32.9763
 20
22.124
 11
-32.9763
 21
22.876
  0
LINE
  8
0
 10
-32.9763
 20
22.876
 11
-32.7893
 21
23.6044
  0
LINE
  8
0
 10
-32.7893
 20
23.6044
 11
-32.427
 21
24.2634
  0
LINE
  8
0
 10
-32.427
 20
24.2634
 11
-31.9123
 21
24.8115
  0
LINE
  8
0
 10
-31.9123
 20
24.8115
 11
-31.2773
 21
25.2145
  0
LINE
  8
0
 10
-31.2773
 20
25.2145
 11
-30.5621
 21
25.4469
  0
LINE
  8
0
 10
-30.5621
 20
25.4469
 11
-29.8116
 21
25.4941
  0
LINE
  8
0
 10
-29.8116
 20
25.4941
 11
-29.0729
 21
25.3532
  0
LINE
  8
0
 10
-29.0729
 20
25.3532
 11
-28.3925
 21
25.033
  0
LINE
  8
0
 10
-28.3925
 20
25.033
 11
-27.8131
 21
24.5536
  0
LINE
  8
0
 10
-27.8131
 20
24.5536
 11
-27.3711
 21
23.9453
  0
LINE
  8
0
 10
-27.3711
 20
23.9453
 11
-27.0942
 21
23.2461
  0
LINE
  8
0
 10
-27.0942
 20
23.2461
 11
-27
 21
22.5
  0
LINE
  8
0
 10
-27
 20
22.5
 11
-27.0942
 21
21.7539
  0
LINE
  8
0
 10
-27.0942
 20
21.7539
 11
-27.3711
 21
21.0547
  0
LINE
  8
0
 10
-27.3711
 20
21.0547
 11
-27.8131
 21
20.4464
  0
LINE
  8
0
 10
-27.8131
 20
20.4464
 11
-28.3925
 21
19.967
  0
LINE
  8
0
 10
-28.3925
 20
19.967
 11
-29.0729
 21
19.6468
  0
LINE
  8
0
 10
-29.0729
 20
19.6468
 11
-29.8116
 21
19.5059
  0
LINE
  8
0
 10
-29.8116
 20
19.5059
 11
-30.5621
 21
19.5531
  0
LINE
  8
0
 10
-15.5621
 20
19.5531
 11
-16.2773
 21
19.7855
  0
LINE
  8
0
 10
-16.2773
 20
19.7855
 11
-16.9123
 21
20.1884
  0
LINE
  8
0
 10
-16.9123
 20
20.1884
 11
-17.427
 21
20.7366
  0
LINE
  8
0
 10
-17.427
 20
20.7366
 11
-17.7893
 21
21.3956
  0
LINE
  8
0
 10
-17.7893
 20
21.3956
 11
-17.9763
 21
22.124
  0
LINE
  8
0
 10
-17.9763
 20
22.124
 11
-17.9763
 21
22.876
  0
LINE
  8
0
 10
-17.9763
 20
22.876
 11
-17.7893
 21
23.6044
  0
LINE
  8
0
 10
-17.7893
 20
23.6044
 11
-17.427
 21
24.2634
  0
LINE
  8
0
 10
-17.427
 20
24.2634
 11
-16.9123
 21
24.8115
  0
LINE
  8
0
 10
-16.9123
 20
24.8115
 11
-16.2773
 21
25.2145
  0
LINE
  8
0
 10
-16.2773
 20
25.2145
 11
-15.5621
 21
25.4469
  0
LINE
  8
0
 10
-15.5621
 20
25.4469
 11
-14.8116
 21
25.4941
  0
LINE
  8
0
 10
-14.8116
 20
25.4941
 11
-14.0729
 21
25.3532
  0
LINE
  8
0
 10
-14.0729
 20
25.3532
 11
-13.3925
 21
25.033
  0
LINE
  8
0
 10
-13.3925
 20
25.033
 11
-12.8131
 21
24.5536
  0
LINE
  8
0
 10
-12.8131
 20
24.5536
 11
-12.3711
 21
23.9453
  0
LINE
  8
0
 10
-12.3711
 20
23.9453
 11
-12.0942
 21
23.2461
  0
LINE
  8
0
 10
-12.0942
 20
23.2461
 11
-12
 21
22.5
  0
LINE
  8
0
 10
-12
 20
22.5
 11
-12.0942
 21
21.7539
  0
LINE
  8
0
 10
-12.0942
 20
21.7539
 11
-12.3711
 21
21.0547
  0
LINE
  8
0
 10
-12.3711
 20
21.0547
 11
-12.8131
 21
20.4464
  0
LINE
  8
0
 10
-12.8131
 20
20.4464
 11
-13.3925
 21
19.967
  0
LINE
  8
0
 10
-13.3925
 20
19.967
 11
-14.0729
 21
19.6468
  0
LINE
  8
0
 10
-14.0729
 20
19.6468
 11
-14.8116
 21
19.5059
  0
LINE
  8
0
 10
-14.8116
 20
19.5059
 11
-15.5621
 21
19.5531
  0
LINE
  8
0
 10
14.4379
 20
19.5531
 11
13.7227
 21
19.7855
  0
LINE
  8
0
 10
13.7227
 20
19.7855
 11
13.0877
 21
20.1884
  0
LINE
  8
0
 10
13.0877
 20
20.1884
 11
12.5729
 21
20.7366
  0
LINE
  8
0
 10
12.5729
 20
20.7366
 11
12.2107
 21
21.3956
  0
LINE
  8
0
 10
12.2107
 20
21.3956
 11
12.0237
 21
22.124
  0
LINE
  8
0
 10
12.0237
 20
22.124
 11
12.0237
 21
22.876
  0
LINE
  8
0
 10
12.0237
 20
22.876
 11
12.2107
 21
23.6044
  0
LINE
  8
0
 10
12.2107
 20
23.6044
 11
12.5729
 21
24.2634
  0
LINE
  8
0
 10
12.5729
 20
24.2634
 11
13.0877
 21
24.8115
  0
LINE
  8
0
 10
13.0877
 20
24.8115
 11
13.7227
 21
25.2145
  0
LINE
  8
0
 10
13.7227
 20
25.2145
 11
14.4379
 21
25.4469
  0
LINE
  8
0
 10
14.4379
 20
25.4469
 11
15.1884
 21
25.4941
  0
LINE
  8
0
 10
15.1884
 20
25.4941
 11
15.927
 21
25.3532
  0
LINE
  8
0
 10
15.927
 20
25.3532
 11
16.6075
 21
25.033
  0
LINE
  8
0
 10
16.6075
 20
25.033
 11
17.1869
 21
24.5536
  0
LINE
  8
0
 10
17.1869
 20
24.5536
 11
17.6289
 21
23.9453
  0
LINE
  8
0
 10
17.6289
 20
23.9453
 11
17.9057
 21
23.2461
  0
LINE
  8
0
 10
17.9057
 20
23.2461
 11
18
 21
22.5
  0
LINE
  8
0
 10
18
 20
22.5
 11
17.9057
 21
21.7539
  0
LINE
  8
0
 10
17.9057
 20
21.7539
 11
17.6289
 21
21.0547
  0
LINE
  8
0
 10
17.6289
 20
21.0547
 11
17.1869
 21
20.4464
  0
LINE
  8
0
 10
17.1869
 20
20.4464
 11
16.6075
 21
19.967
  0
LINE
  8
0
 10
16.6075
 20
19.967
 11
15.927
 21
19.6468
  0
LINE
  8
0
 10
15.927
 20
19.6468
 11
15.1884
 21
19.5059
  0
LINE
  8
0
 10
15.1884
 20
19.5059
 11
14.4379
 21
19.5531
  0
LINE
  8
0
 10
-15.5621
 20
4.55313
 11
-16.2773
 21
4.78551
  0
LINE
  8
0
 10
-16.2773
 20
4.78551
 11
-16.9123
 21
5.18845
  0
LINE
  8
0
 10
-16.9123
 20
5.18845
 11
-17.427
 21
5.73663
  0
LINE
  8
0
 10
-17.427
 20
5.73663
 11
-17.7893
 21
6.39561
  0
LINE
  8
0
 10
-17.7893
 20
6.39561
 11
-17.9763
 21
7.12399
  0
LINE
  8
0
 10
-17.9763
 20
7.12399
 11
-17.9763
 21
7.87599
  0
LINE
  8
0
 10
-17.9763
 20
7.87599
 11
-17.7893
 21
8.60437
  0
LINE
  8
0
 10
-17.7893
 20
8.60437
 11
-17.427
 21
9.26335
  0
LINE
  8
0
 10
-17.427
 20
9.26335
 11
-16.9123
 21
9.81154
  0
LINE
  8
0
 10
-16.9123
 20
9.81154
 11
-16.2773
 21
10.2145
  0
LINE
  8
0
 10
-16.2773
 20
10.2145
 11
-15.5621
 21
10.4469
  0
LINE
  8
0
 10
-15.5621
 20
10.4469
 11
-14.8116
 21
10.4941
  0
LINE
  8
0
 10
-14.8116
 20
10.4941
 11
-14.0729
 21
10.3532
  0
LINE
  8
0
 10
-14.0729
 20
10.3532
 11
-13.3925
 21
10.033
  0
LINE
  8
0
 10
-13.3925
 20
10.033
 11
-12.8131
 21
9.55363
  0
LINE
  8
0
 10
-12.8131
 20
9.55363
 11
-12.3711
 21
8.94525
  0
LINE
  8
0
 10
-12.3711
 20
8.94525
 11
-12.0942
 21
8.24606
  0
LINE
  8
0
 10
-12.0942
 20
8.24606
 11
-12
 21
7.5
  0
LINE
  8
0
 10
-12
 20
7.5
 11
-12.0942
 21
6.75392
  0
LINE
  8
0
 10
-12.0942
 20
6.75392
 11
-12.3711
 21
6.05473
  0
LINE
  8
0
 10
-12.3711
 20
6.05473
 11
-12.8131
 21
5.44635
  0
LINE
  8
0
 10
-12.8131
 20
5.44635
 11
-13.3925
 21
4.96701
  0
LINE
  8
0
 10
-13.3925
 20
4.96701
 11
-14.0729
 21
4.64682
  0
LINE
  8
0
 10
-14.0729
 20
4.64682
 11
-14.8116
 21
4.50591
  0
LINE
  8
0
 10
-14.8116
 20
4.50591
 11
-15.5621
 21
4.55313
  0
LINE
  8
0
 10
-0.562134
 20
4.55313
 11
-1.27733
 21
4.78551
  0
LINE
  8
0
 10
-1.27733
 20
4.78551
 11
-1.91226
 21
5.18845
  0
LINE
  8
0
 10
-1.91226
 20
5.18845
 11
-2.42705
 21
5.73663
  0
LINE
  8
0
 10
-2.42705
 20
5.73663
 11
-2.78932
 21
6.39561
  0
LINE
  8
0
 10
-2.78932
 20
6.39561
 11
-2.97633
 21
7.12399
  0
LINE
  8
0
 10
-2.97633
 20
7.12399
 11
-2.97633
 21
7.87599
  0
LINE
  8
0
 10
-2.97633
 20
7.87599
 11
-2.78932
 21
8.60437
  0
LINE
  8
0
 10
-2.78932
 20
8.60437
 11
-2.42705
 21
9.26335
  0
LINE
  8
0
 10
-2.42705
 20
9.26335
 11
-1.91226
 21
9.81154
  0
LINE
  8
0
 10
-1.91226
 20
9.81154
 11
-1.27733
 21
10.2145
  0
LINE
  8
0
 10
-1.27733
 20
10.2145
 11
-0.562134
 21
10.4469
  0
LINE
  8
0
 10
-0.562134
 20
10.4469
 11
0.18837
 21
10.4941
  0
LINE
  8
0
 10
0.18837
 20
10.4941
 11
0.927048
 21
10.3532
  0
LINE
  8
0
 10
0.927048
 20
10.3532
 11
1.60747
 21
10.033
  0
LINE
  8
0
 10
1.60747
 20
10.033
 11
2.1869
 21
9.55363
  0
LINE
  8
0
 10
2.1869
 20
9.55363
 11
2.62891
 21
8.94525
  0
LINE
  8
0
 10
2.62891
 20
8.94525
 11
2.90575
 21
8.24606
  0
LINE
  8
0
 10
2.90575
 20
8.24606
 11
3
 21
7.5
  0
LINE
  8
0
 10
3
 20
7.5
 11
2.90575
 21
6.75392
  0
LINE
  8
0
 10
2.90575
 20
6.75392
 11
2.62891
 21
6.05473
  0
LINE
  8
0
 10
2.62891
 20
6.05473
 11
2.1869
 21
5.44635
  0
LINE
  8
0
 10
2.1869
 20
5.44635
 11
1.60747
 21
4.96701
  0
LINE
  8
0
 10
1.60747
 20
4.96701
 11
0.927048
 21
4.64682
  0
LINE
  8
0
 10
0.927048
 20
4.64682
 11
0.18837
 21
4.50591
  0
LINE
  8
0
 10
0.18837
 20
4.50591
 11
-0.562134
 21
4.55313
  0
LINE
  8
0
 10
14.4379
 20
4.55313
 11
13.7227
 21
4.78551
  0
LINE
  8
0
 10
13.7227
 20
4.78551
 11
13.0877
 21
5.18845
  0
LINE
  8
0
 10
13.0877
 20
5.18845
 11
12.5729
 21
5.73663
  0
LINE
  8
0
 10
12.5729
 20
5.73663
 11
12.2107
 21
6.39561
  0
LINE
  8
0
 10
12.2107
 20
6.39561
 11
12.0237
 21
7.12399
  0
LINE
  8
0
 10
12.0237
 20
7.12399
 11
12.0237
 21
7.87599
  0
LINE
  8
0
 10
12.0237
 20
7.87599
 11
12.2107
 21
8.60437
  0
LINE
  8
0
 10
12.2107
 20
8.60437
 11
12.5729
 21
9.26335
  0
LINE
  8
0
 10
12.5729
 20
9.26335
 11
13.0877
 21
9.81154
  0
LINE
  8
0
 10
13.0877
 20
9.81154
 11
13.7227
 21
10.2145
  0
LINE
  8
0
 10
13.7227
 20
10.2145
 11
14.4379
 21
10.4469
  0
LINE
  8
0
 10
14.4379
 20
10.4469
 11
15.1884
 21
10.4941
  0
LINE
  8
0
 10
15.1884
 20
10.4941
 11
15.927
 21
10.3532
  0
LINE
  8
0
 10
15.927
 20
10.3532
 11
16.6075
 21
10.033
  0
LINE
  8
0
 10
16.6075
 20
10.033
 11
17.1869
 21
9.55363
  0
LINE
  8
0
 10
17.1869
 20
9.55363
 11
17.6289
 21
8.94525
  0
LINE
  8
0
 10
17.6289
 20
8.94525
 11
17.9057
 21
8.24606
  0
LINE
  8
0
 10
17.9057
 20
8.24606
 11
18
 21
7.5
  0
LINE
  8
0
 10
18
 20
7.5
 11
17.9057
 21
6.75392
  0
LINE
  8
0
 10
17.9057
 20
6.75392
 11
17.6289
 21
6.05473
  0
LINE
  8
0
 10
17.6289
 20
6.05473
 11
17.1869
 21
5.44635
  0
LINE
  8
0
 10
17.1869
 20
5.44635
 11
16.6075
 21
4.96701
  0
LINE
  8
0
 10
16.6075
 20
4.96701
 11
15.927
 21
4.64682
  0
LINE
  8
0
 10
15.927
 20
4.64682
 11
15.1884
 21
4.50591
  0
LINE
  8
0
 10
15.1884
 20
4.50591
 11
14.4379
 21
4.55313
  0
LINE
  8
0
 10
29.4379
 20
4.55313
 11
28.7227
 21
4.78551
  0
LINE
  8
0
 10
28.7227
 20
4.78551
 11
28.0877
 21
5.18845
  0
LINE
  8
0
 10
28.0877
 20
5.18845
 11
27.5729
 21
5.73663
  0
LINE
  8
0
 10
27.5729
 20
5.73663
 11
27.2107
 21
6.39561
  0
LINE
  8
0
 10
27.2107
 20
6.39561
 11
27.0237
 21
7.12399
  0
LINE
  8
0
 10
27.0237
 20
7.12399
 11
27.0237
 21
7.87599
  0
LINE
  8
0
 10
27.0237
 20
7.87599
 11
27.2107
 21
8.60437
  0
LINE
  8
0
 10
27.2107
 20
8.60437
 11
27.5729
 21
9.26335
  0
LINE
  8
0
 10
27.5729
 20
9.26335
 11
28.0877
 21
9.81154
  0
LINE
  8
0
 10
28.0877
 20
9.81154
 11
28.7227
 21
10.2145
  0
LINE
  8
0
 10
28.7227
 20
10.2145
 11
29.4379
 21
10.4469
  0
LINE
  8
0
 10
29.4379
 20
10.4469
 11
30.1884
 21
10.4941
  0
LINE
  8
0
 10
30.1884
 20
10.4941
 11
30.927
 21
10.3532
  0
LINE
  8
0
 10
30.927
 20
10.3532
 11
31.6075
 21
10.033
  0
LINE
  8
0
 10
31.6075
 20
10.033
 11
32.1869
 21
9.55363
  0
LINE
  8
0
 10
32.1869
 20
9.55363
 11
32.6289
 21
8.94525
  0
LINE
  8
0
 10
32.6289
 20
8.94525
 11
32.9057
 21
8.24606
  0
LINE
  8
0
 10
32.9057
 20
8.24606
 11
33
 21
7.5
  0
LINE
  8
0
 10
33
 20
7.5
 11
32.9057
 21
6.75392
  0
LINE
  8
0
 10
32.9057
 20
6.75392
 11
32.6289
 21
6.05473
  0
LINE
  8
0
 10
32.6289
 20
6.05473
 11
32.1869
 21
5.44635
  0
LINE
  8
0
 10
32.1869
 20
5.44635
 11
31.6075
 21
4.96701
  0
LINE
  8
0
 10
31.6075
 20
4.96701
 11
30.927
 21
4.64682
  0
LINE
  8
0
 10
30.927
 20
4.64682
 11
30.1884
 21
4.50591
  0
LINE
  8
0
 10
30.1884
 20
4.50591
 11
29.4379
 21
4.55313
  0
LINE
  8
0
 10
-30.5621
 20
4.55313
 11
-31.2773
 21
4.78551
  0
LINE
  8
0
 10
-31.2773
 20
4.78551
 11
-31.9123
 21
5.18845
  0
LINE
  8
0
 10
-31.9123
 20
5.18845
 11
-32.427
 21
5.73663
  0
LINE
  8
0
 10
-32.427
 20
5.73663
 11
-32.7893
 21
6.39561
  0
LINE
  8
0
 10
-32.7893
 20
6.39561
 11
-32.9763
 21
7.12399
  0
LINE
  8
0
 10
-32.9763
 20
7.12399
 11
-32.9763
 21
7.87599
  0
LINE
  8
0
 10
-32.9763
 20
7.87599
 11
-32.7893
 21
8.60437
  0
LINE
  8
0
 10
-32.7893
 20
8.60437
 11
-32.427
 21
9.26335
  0
LINE
  8
0
 10
-32.427
 20
9.26335
 11
-31.9123
 21
9.81154
  0
LINE
  8
0
 10
-31.9123
 20
9.81154
 11
-31.2773
 21
10.2145
  0
LINE
  8
0
 10
-31.2773
 20
10.2145
 11
-30.5621
 21
10.4469
  0
LINE
  8
0
 10
-30.5621
 20
10.4469
 11
-29.8116
 21
10.4941
  0
LINE
  8
0
 10
-29.8116
 20
10.4941
 11
-29.0729
 21
10.3532
  0
LINE
  8
0
 10
-29.0729
 20
10.3532
 11
-28.3925
 21
10.033
  0
LINE
  8
0
 10
-28.3925
 20
10.033
 11
-27.8131
 21
9.55363
  0
LINE
  8
0
 10
-27.8131
 20
9.55363
 11
-27.3711
 21
8.94525
  0
LINE
  8
0
 10
-27.3711
 20
8.94525
 11
-27.0942
 21
8.24606
  0
LINE
  8
0
 10
-27.0942
 20
8.24606
 11
-27
 21
7.5
  0
LINE
  8
0
 10
-27
 20
7.5
 11
-27.0942
 21
6.75392
  0
LINE
  8
0
 10
-27.0942
 20
6.75392
 11
-27.3711
 21
6.05473
  0
LINE
  8
0
 10
-27.3711
 20
6.05473
 11
-27.8131
 21
5.44635
  0
LINE
  8
0
 10
-27.8131
 20
5.44635
 11
-28.3925
 21
4.96701
  0
LINE
  8
0
 10
-28.3925
 20
4.96701
 11
-29.0729
 21
4.64682
  0
LINE
  8
0
 10
-29.0729
 20
4.64682
 11
-29.8116
 21
4.50591
  0
LINE
  8
0
 10
-29.8116
 20
4.50591
 11
-30.5621
 21
4.55313
  0
LINE
  8
0
 10
-30.5621
 20
-10.4469
 11
-31.2773
 21
-10.2145
  0
LINE
  8
0
 10
-31.2773
 20
-10.2145
 11
-31.9123
 21
-9.81154
  0
LINE
  8
0
 10
-31.9123
 20
-9.81154
 11
-32.427
 21
-9.26335
  0
LINE
  8
0
 10
-32.427
 20
-9.26335
 11
-32.7893
 21
-8.60437
  0
LINE
  8
0
 10
-32.7893
 20
-8.60437
 11
-32.9763
 21
-7.87599
  0
LINE
  8
0
 10
-32.9763
 20
-7.87599
 11
-32.9763
 21
-7.12399
  0
LINE
  8
0
 10
-32.9763
 20
-7.12399
 11
-32.7893
 21
-6.39561
  0
LINE
  8
0
 10
-32.7893
 20
-6.39561
 11
-32.427
 21
-5.73663
  0
LINE
  8
0
 10
-32.427
 20
-5.73663
 11
-31.9123
 21
-5.18845
  0
LINE
  8
0
 10
-31.9123
 20
-5.18845
 11
-31.2773
 21
-4.78551
  0
LINE
  8
0
 10
-31.2773
 20
-4.78551
 11
-30.5621
 21
-4.55313
  0
LINE
  8
0
 10
-30.5621
 20
-4.55313
 11
-29.8116
 21
-4.50591
  0
LINE
  8
0
 10
-29.8116
 20
-4.50591
 11
-29.0729
 21
-4.64682
  0
LINE
  8
0
 10
-29.0729
 20
-4.64682
 11
-28.3925
 21
-4.96701
  0
LINE
  8
0
 10
-28.3925
 20
-4.96701
 11
-27.8131
 21
-5.44635
  0
LINE
  8
0
 10
-27.8131
 20
-5.44635
 11
-27.3711
 21
-6.05473
  0
LINE
  8
0
 10
-27.3711
 20
-6.05473
 11
-27.0942
 21
-6.75392
  0
LINE
  8
0
 10
-27.0942
 20
-6.75392
 11
-27
 21
-7.5
  0
LINE
  8
0
 10
-27
 20
-7.5
 11
-27.0942
 21
-8.24606
  0
LINE
  8
0
 10
-27.0942
 20
-8.24606
 11
-27.3711
 21
-8.94525
  0
LINE
  8
0
 10
-27.3711
 20
-8.94525
 11
-27.8131
 21
-9.55363
  0
LINE
  8
0
 10
-27.8131
 20
-9.55363
 11
-28.3925
 21
-10.033
  0
LINE
  8
0
 10
-28.3925
 20
-10.033
 11
-29.0729
 21
-10.3532
  0
LINE
  8
0
 10
-29.0729
 20
-10.3532
 11
-29.8116
 21
-10.4941
  0
LINE
  8
0
 10
-29.8116
 20
-10.4941
 11
-30.5621
 21
-10.4469
  0
LINE
  8
0
 10
29.4379
 20
-10.4469
 11
28.7227
 21
-10.2145
  0
LINE
  8
0
 10
28.7227
 20
-10.2145
 11
28.0877
 21
-9.81154
  0
LINE
  8
0
 10
28.0877
 20
-9.81154
 11
27.5729
 21
-9.26335
  0
LINE
  8
0
 10
27.5729
 20
-9.26335
 11
27.2107
 21
-8.60437
  0
LINE
  8
0
 10
27.2107
 20
-8.60437
 11
27.0237
 21
-7.87599
  0
LINE
  8
0
 10
27.0237
 20
-7.87599
 11
27.0237
 21
-7.12399
  0
LINE
  8
0
 10
27.0237
 20
-7.12399
 11
27.2107
 21
-6.39561
  0
LINE
  8
0
 10
27.2107
 20
-6.39561
 11
27.5729
 21
-5.73663
  0
LINE
  8
0
 10
27.5729
 20
-5.73663
 11
28.0877
 21
-5.18845
  0
LINE
  8
0
 10
28.0877
 20
-5.18845
 11
28.7227
 21
-4.78551
  0
LINE
  8
0
 10
28.7227
 20
-4.78551
 11
29.4379
 21
-4.55313
  0
LINE
  8
0
 10
29.4379
 20
-4.55313
 11
30.1884
 21
-4.50591
  0
LINE
  8
0
 10
30.1884
 20
-4.50591
 11
30.927
 21
-4.64682
  0
LINE
  8
0
 10
30.927
 20
-4.64682
 11
31.6075
 21
-4.96701
  0
LINE
  8
0
 10
31.6075
 20
-4.96701
 11
32.1869
 21
-5.44635
  0
LINE
  8
0
 10
32.1869
 20
-5.44635
 11
32.6289
 21
-6.05473
  0
LINE
  8
0
 10
32.6289
 20
-6.05473
 11
32.9057
 21
-6.75392
  0
LINE
  8
0
 10
32.9057
 20
-6.75392
 11
33
 21
-7.5
  0
LINE
  8
0
 10
33
 20
-7.5
 11
32.9057
 21
-8.24606
  0
LINE
  8
0
 10
32.9057
 20
-8.24606
 11
32.6289
 21
-8.94525
  0
LINE
  8
0
 10
32.6289
 20
-8.94525
 11
32.1869
 21
-9.55363
  0
LINE
  8
0
 10
32.1869
 20
-9.55363
 11
31.6075
 21
-10.033
  0
LINE
  8
0
 10
31.6075
 20
-10.033
 11
30.927
 21
-10.3532
  0
LINE
  8
0
 10
30.927
 20
-10.3532
 11
30.1884
 21
-10.4941
  0
LINE
  8
0
 10
30.1884
 20
-10.4941
 11
29.4379
 21
-10.4469
  0
LINE
  8
0
 10
-15.5621
 20
-10.4469
 11
-16.2773
 21
-10.2145
  0
LINE
  8
0
 10
-16.2773
 20
-10.2145
 11
-16.9123
 21
-9.81154
  0
LINE
  8
0
 10
-16.9123
 20
-9.81154
 11
-17.427
 21
-9.26335
  0
LINE
  8
0
 10
-17.427
 20
-9.26335
 11
-17.7893
 21
-8.60437
  0
LINE
  8
0
 10
-17.7893
 20
-8.60437
 11
-17.9763
 21
-7.87599
  0
LINE
  8
0
 10
-17.9763
 20
-7.87599
 11
-17.9763
 21
-7.12399
  0
LINE
  8
0
 10
-17.9763
 20
-7.12399
 11
-17.7893
 21
-6.39561
  0
LINE
  8
0
 10
-17.7893
 20
-6.39561
 11
-17.427
 21
-5.73663
  0
LINE
  8
0
 10
-17.427
 20
-5.73663
 11
-16.9123
 21
-5.18845
  0
LINE
  8
0
 10
-16.9123
 20
-5.18845
 11
-16.2773
 21
-4.78551
  0
LINE
  8
0
 10
-16.2773
 20
-4.78551
 11
-15.5621
 21
-4.55313
  0
LINE
  8
0
 10
-15.5621
 20
-4.55313
 11
-14.8116
 21
-4.50591
  0
LINE
  8
0
 10
-14.8116
 20
-4.50591
 11
-14.0729
 21
-4.64682
  0
LINE
  8
0
 10
-14.0729
 20
-4.64682
 11
-13.3925
 21
-4.96701
  0
LINE
  8
0
 10
-13.3925
 20
-4.96701
 11
-12.8131
 21
-5.44635
  0
LINE
  8
0
 10
-12.8131
 20
-5.44635
 11
-12.3711
 21
-6.05473
  0
LINE
  8
0
 10
-12.3711
 20
-6.05473
 11
-12.0942
 21
-6.75392
  0
LINE
  8
0
 10
-12.0942
 20
-6.75392
 11
-12
 21
-7.5
  0
LINE
  8
0
 10
-12
 20
-7.5
 11
-12.0942
 21
-8.24606
  0
LINE
  8
0
 10
-12.0942
 20
-8.24606
 11
-12.3711
 21
-8.94525
  0
LINE
  8
0
 10
-12.3711
 20
-8.94525
 11
-12.8131
 21
-9.55363
  0
LINE
  8
0
 10
-12.8131
 20
-9.55363
 11
-13.3925
 21
-10.033
  0
LINE
  8
0
 10
-13.3925
 20
-10.033
 11
-14.0729
 21
-10.3532
  0
LINE
  8
0
 10
-14.0729
 20
-10.3532
 11
-14.8116
 21
-10.4941
  0
LINE
  8
0
 10
-14.8116
 20
-10.4941
 11
-15.5621
 21
-10.4469
  0
LINE
  8
0
 10
-0.562134
 20
-10.4469
 11
-1.27733
 21
-10.2145
  0
LINE
  8
0
 10
-1.27733
 20
-10.2145
 11
-1.91226
 21
-9.81154
  0
LINE
  8
0
 10
-1.91226
 20
-9.81154
 11
-2.42705
 21
-9.26335
  0
LINE
  8
0
 10
-2.42705
 20
-9.26335
 11
-2.78932
 21
-8.60437
  0
LINE
  8
0
 10
-2.78932
 20
-8.60437
 11
-2.97633
 21
-7.87599
  0
LINE
  8
0
 10
-2.97633
 20
-7.87599
 11
-2.97633
 21
-7.12399
  0
LINE
  8
0
 10
-2.97633
 20
-7.12399
 11
-2.78932
 21
-6.39561
  0
LINE
  8
0
 10
-2.78932
 20
-6.39561
 11
-2.42705
 21
-5.73663
  0
LINE
  8
0
 10
-2.42705
 20
-5.73663
 11
-1.91226
 21
-5.18845
  0
LINE
  8
0
 10
-1.91226
 20
-5.18845
 11
-1.27733
 21
-4.78551
  0
LINE
  8
0
 10
-1.27733
 20
-4.78551
 11
-0.562134
 21
-4.55313
  0
LINE
  8
0
 10
-0.562134
 20
-4.55313
 11
0.18837
 21
-4.50591
  0
LINE
  8
0
 10
0.18837
 20
-4.50591
 11
0.927048
 21
-4.64682
  0
LINE
  8
0
 10
0.927048
 20
-4.64682
 11
1.60747
 21
-4.96701
  0
LINE
  8
0
 10
1.60747
 20
-4.96701
 11
2.1869
 21
-5.44635
  0
LINE
  8
0
 10
2.1869
 20
-5.44635
 11
2.62891
 21
-6.05473
  0
LINE
  8
0
 10
2.62891
 20
-6.05473
 11
2.90575
 21
-6.75392
  0
LINE
  8
0
 10
2.90575
 20
-6.75392
 11
3
 21
-7.5
  0
LINE
  8
0
 10
3
 20
-7.5
 11
2.90575
 21
-8.24606
  0
LINE
  8
0
 10
2.90575
 20
-8.24606
 11
2.62891
 21
-8.94525
  0
LINE
  8
0
 10
2.62891
 20
-8.94525
 11
2.1869
 21
-9.55363
  0
LINE
  8
0
 10
2.1869
 20
-9.55363
 11
1.60747
 21
-10.033
  0
LINE
  8
0
 10
1.60747
 20
-10.033
 11
0.927048
 21
-10.3532
  0
LINE
  8
0
 10
0.927048
 20
-10.3532
 11
0.18837
 21
-10.4941
  0
LINE
  8
0
 10
0.18837
 20
-10.4941
 11
-0.562134
 21
-10.4469
  0
LINE
  8
0
 10
14.4379
 20
-10.4469
 11
13.7227
 21
-10.2145
  0
LINE
  8
0
 10
13.7227
 20
-10.2145
 11
13.0877
 21
-9.81154
  0
LINE
  8
0
 10
13.0877
 20
-9.81154
 11
12.5729
 21
-9.26335
  0
LINE
  8
0
 10
12.5729
 20
-9.26335
 11
12.2107
 21
-8.60437
  0
LINE
  8
0
 10
12.2107
 20
-8.60437
 11
12.0237
 21
-7.87599
  0
LINE
  8
0
 10
12.0237
 20
-7.87599
 11
12.0237
 21
-7.12399
  0
LINE
  8
0
 10
12.0237
 20
-7.12399
 11
12.2107
 21
-6.39561
  0
LINE
  8
0
 10
12.2107
 20
-6.39561
 11
12.5729
 21
-5.73663
  0
LINE
  8
0
 10
12.5729
 20
-5.73663
 11
13.0877
 21
-5.18845
  0
LINE
  8
0
 10
13.0877
 20
-5.18845
 11
13.7227
 21
-4.78551
  0
LINE
  8
0
 10
13.7227
 20
-4.78551
 11
14.4379
 21
-4.55313
  0
LINE
  8
0
 10
14.4379
 20
-4.55313
 11
15.1884
 21
-4.50591
  0
LINE
  8
0
 10
15.1884
 20
-4.50591
 11
15.927
 21
-4.64682
  0
LINE
  8
0
 10
15.927
 20
-4.64682
 11
16.6075
 21
-4.96701
  0
LINE
  8
0
 10
16.6075
 20
-4.96701
 11
17.1869
 21
-5.44635
  0
LINE
  8
0
 10
17.1869
 20
-5.44635
 11
17.6289
 21
-6.05473
  0
LINE
  8
0
 10
17.6289
 20
-6.05473
 11
17.9057
 21
-6.75392
  0
LINE
  8
0
 10
17.9057
 20
-6.75392
 11
18
 21
-7.5
  0
LINE
  8
0
 10
18
 20
-7.5
 11
17.9057
 21
-8.24606
  0
LINE
  8
0
 10
17.9057
 20
-8.24606
 11
17.6289
 21
-8.94525
  0
LINE
  8
0
 10
17.6289
 20
-8.94525
 11
17.1869
 21
-9.55363
  0
LINE
  8
0
 10
17.1869
 20
-9.55363
 11
16.6075
 21
-10.033
  0
LINE
  8
0
 10
16.6075
 20
-10.033
 11
15.927
 21
-10.3532
  0
LINE
  8
0
 10
15.927
 20
-10.3532
 11
15.1884
 21
-10.4941
  0
LINE
  8
0
 10
15.1884
 20
-10.4941
 11
14.4379
 21
-10.4469
  0
LINE
  8
0
 10
-30.5621
 20
-25.4469
 11
-31.2773
 21
-25.2145
  0
LINE
  8
0
 10
-31.2773
 20
-25.2145
 11
-31.9123
 21
-24.8115
  0
LINE
  8
0
 10
-31.9123
 20
-24.8115
 11
-32.427
 21
-24.2634
  0
LINE
  8
0
 10
-32.427
 20
-24.2634
 11
-32.7893
 21
-23.6044
  0
LINE
  8
0
 10
-32.7893
 20
-23.6044
 11
-32.9763
 21
-22.876
  0
LINE
  8
0
 10
-32.9763
 20
-22.876
 11
-32.9763
 21
-22.124
  0
LINE
  8
0
 10
-32.9763
 20
-22.124
 11
-32.7893
 21
-21.3956
  0
LINE
  8
0
 10
-32.7893
 20
-21.3956
 11
-32.427
 21
-20.7366
  0
LINE
  8
0
 10
-32.427
 20
-20.7366
 11
-31.9123
 21
-20.1884
  0
LINE
  8
0
 10
-31.9123
 20
-20.1884
 11
-31.2773
 21
-19.7855
  0
LINE
  8
0
 10
-31.2773
 20
-19.7855
 11
-30.5621
 21
-19.5531
  0
LINE
  8
0
 10
-30.5621
 20
-19.5531
 11
-29.8116
 21
-19.5059
  0
LINE
  8
0
 10
-29.8116
 20
-19.5059
 11
-29.0729
 21
-19.6468
  0
LINE
  8
0
 10
-29.0729
 20
-19.6468
 11
-28.3925
 21
-19.967
  0
LINE
  8
0
 10
-28.3925
 20
-19.967
 11
-27.8131
 21
-20.4464
  0
LINE
  8
0
 10
-27.8131
 20
-20.4464
 11
-27.3711
 21
-21.0547
  0
LINE
  8
0
 10
-27.3711
 20
-21.0547
 11
-27.0942
 21
-21.7539
  0
LINE
  8
0
 10
-27.0942
 20
-21.7539
 11
-27
 21
-22.5
  0
LINE
  8
0
 10
-27
 20
-22.5
 11
-27.0942
 21
-23.2461
  0
LINE
  8
0
 10
-27.0942
 20
-23.2461
 11
-27.3711
 21
-23.9453
  0
LINE
  8
0
 10
-27.3711
 20
-23.9453
 11
-27.8131
 21
-24.5536
  0
LINE
  8
0
 10
-27.8131
 20
-24.5536
 11
-28.3925
 21
-25.033
  0
LINE
  8
0
 10
-28.3925
 20
-25.033
 11
-29.0729
 21
-25.3532
  0
LINE
  8
0
 10
-29.0729
 20
-25.3532
 11
-29.8116
 21
-25.4941
  0
LINE
  8
0
 10
-29.8116
 20
-25.4941
 11
-30.5621
 21
-25.4469
  0
LINE
  8
0
 10
-15.5621
 20
-25.4469
 11
-16.2773
 21
-25.2145
  0
LINE
  8
0
 10
-16.2773
 20
-25.2145
 11
-16.9123
 21
-24.8115
  0
LINE
  8
0
 10
-16.9123
 20
-24.8115
 11
-17.427
 21
-24.2634
  0
LINE
  8
0
 10
-17.427
 20
-24.2634
 11
-17.7893
 21
-23.6044
  0
LINE
  8
0
 10
-17.7893
 20
-23.6044
 11
-17.9763
 21
-22.876
  0
LINE
  8
0
 10
-17.9763
 20
-22.876
 11
-17.9763
 21
-22.124
  0
LINE
  8
0
 10
-17.9763
 20
-22.124
 11
-17.7893
 21
-21.3956
  0
LINE
  8
0
 10
-17.7893
 20
-21.3956
 11
-17.427
 21
-20.7366
  0
LINE
  8
0
 10
-17.427
 20
-20.7366
 11
-16.9123
 21
-20.1884
  0
LINE
  8
0
 10
-16.9123
 20
-20.1884
 11
-16.2773
 21
-19.7855
  0
LINE
  8
0
 10
-16.2773
 20
-19.7855
 11
-15.5621
 21
-19.5531
  0
LINE
  8
0
 10
-15.5621
 20
-19.5531
 11
-14.8116
 21
-19.5059
  0
LINE
  8
0
 10
-14.8116
 20
-19.5059
 11
-14.0729
 21
-19.6468
  0
LINE
  8
0
 10
-14.0729
 20
-19.6468
 11
-13.3925
 21
-19.967
  0
LINE
  8
0
 10
-13.3925
 20
-19.967
 11
-12.8131
 21
-20.4464
  0
LINE
  8
0
 10
-12.8131
 20
-20.4464
 11
-12.3711
 21
-21.0547
  0
LINE
  8
0
 10
-12.3711
 20
-21.0547
 11
-12.0942
 21
-21.7539
  0
LINE
  8
0
 10
-12.0942
 20
-21.7539
 11
-12
 21
-22.5
  0
LINE
  8
0
 10
-12
 20
-22.5
 11
-12.0942
 21
-23.2461
  0
LINE
  8
0
 10
-12.0942
 20
-23.2461
 11
-12.3711
 21
-23.9453
  0
LINE
  8
0
 10
-12.3711
 20
-23.9453
 11
-12.8131
 21
-24.5536
  0
LINE
  8
0
 10
-12.8131
 20
-24.5536
 11
-13.3925
 21
-25.033
  0
LINE
  8
0
 10
-13.3925
 20
-25.033
 11
-14.0729
 21
-25.3532
  0
LINE
  8
0
 10
-14.0729
 20
-25.3532
 11
-14.8116
 21
-25.4941
  0
LINE
  8
0
 10
-14.8116
 20
-25.4941
 11
-15.5621
 21
-25.4469
  0
LINE
  8
0
 10
14.4379
 20
-25.4469
 11
13.7227
 21
-25.2145
  0
LINE
  8
0
 10
13.7227
 20
-25.2145
 11
13.0877
 21
-24.8115
  0
LINE
  8
0
 10
13.0877
 20
-24.8115
 11
12.5729
 21
-24.2634
  0
LINE
  8
0
 10
12.5729
 20
-24.2634
 11
12.2107
 21
-23.6044
  0
LINE
  8
0
 10
12.2107
 20
-23.6044
 11
12.0237
 21
-22.876
  0
LINE
  8
0
 10
12.0237
 20
-22.876
 11
12.0237
 21
-22.124
  0
LINE
  8
0
 10
12.0237
 20
-22.124
 11
12.2107
 21
-21.3956
  0
LINE
  8
0
 10
12.2107
 20
-21.3956
 11
12.5729
 21
-20.7366
  0
LINE
  8
0
 10
12.5729
 20
-20.7366
 11
13.0877
 21
-20.1884
  0
LINE
  8
0
 10
13.0877
 20
-20.1884
 11
13.7227
 21
-19.7855
  0
LINE
  8
0
 10
13.7227
 20
-19.7855
 11
14.4379
 21
-19.5531
  0
LINE
  8
0
 10
14.4379
 20
-19.5531
 11
15.1884
 21
-19.5059
  0
LINE
  8
0
 10
15.1884
 20
-19.5059
 11
15.927
 21
-19.6468
  0
LINE
  8
0
 10
15.927
 20
-19.6468
 11
16.6075
 21
-19.967
  0
LINE
  8
0
 10
16.6075
 20
-19.967
 11
17.1869
 21
-20.4464
  0
LINE
  8
0
 10
17.1869
 20
-20.4464
 11
17.6289
 21
-21.0547
  0
LINE
  8
0
 10
17.6289
 20
-21.0547
 11
17.9057
 21
-21.7539
  0
LINE
  8
0
 10
17.9057
 20
-21.7539
 11
18
 21
-22.5
  0
LINE
  8
0
 10
18
 20
-22.5
 11
17.9057
 21
-23.2461
  0
LINE
  8
0
 10
17.9057
 20
-23.2461
 11
17.6289
 21
-23.9453
  0
LINE
  8
0
 10
17.6289
 20
-23.9453
 11
17.1869
 21
-24.5536
  0
LINE
  8
0
 10
17.1869
 20
-24.5536
 11
16.6075
 21
-25.033
  0
LINE
  8
0
 10
16.6075
 20
-25.033
 11
15.927
 21
-25.3532
  0
LINE
  8
0
 10
15.927
 20
-25.3532
 11
15.1884
 21
-25.4941
  0
LINE
  8
0
 10
15.1884
 20
-25.4941
 11
14.4379
 21
-25.4469
  0
LINE
  8
0
 10
29.4379
 20
-25.4469
 11
28.7227
 21
-25.2145
  0
LINE
  8
0
 10
28.7227
 20
-25.2145
 11
28.0877
 21
-24.8115
  0
LINE
  8
0
 10
28.0877
 20
-24.8115
 11
27.5729
 21
-24.2634
  0
LINE
  8
0
 10
27.5729
 20
-24.2634
 11
27.2107
 21
-23.6044
  0
LINE
  8
0
 10
27.2107
 20
-23.6044
 11
27.0237
 21
-22.876
  0
LINE
  8
0
 10
27.0237
 20
-22.876
 11
27.0237
 21
-22.124
  0
LINE
  8
0
 10
27.0237
 20
-22.124
 11
27.2107
 21
-21.3956
  0
LINE
  8
0
 10
27.2107
 20
-21.3956
 11
27.5729
 21
-20.7366
  0
LINE
  8
0
 10
27.5729
 20
-20.7366
 11
28.0877
 21
-20.1884
  0
LINE
  8
0
 10
28.0877
 20
-20.1884
 11
28.7227
 21
-19.7855
  0
LINE
  8
0
 10
28.7227
 20
-19.7855
 11
29.4379
 21
-19.5531
  0
LINE
  8
0
 10
29.4379
 20
-19.5531
 11
30.1884
 21
-19.5059
  0
LINE
  8
0
 10
30.1884
 20
-19.5059
 11
30.927
 21
-19.6468
  0
LINE
  8
0
 10
30.927
 20
-19.6468
 11
31.6075
 21
-19.967
  0
LINE
  8
0
 10
31.6075
 20
-19.967
 11
32.1869
 21
-20.4464
  0
LINE
  8
0
 10
32.1869
 20
-20.4464
 11
32.6289
 21
-21.0547
  0
LINE
  8
0
 10
32.6289
 20
-21.0547
 11
32.9057
 21
-21.7539
  0
LINE
  8
0
 10
32.9057
 20
-21.7539
 11
33
 21
-22.5
  0
LINE
  8
0
 10
33
 20
-22.5
 11
32.9057
 21
-23.2461
  0
LINE
  8
0
 10
32.9057
 20
-23.2461
 11
32.6289
 21
-23.9453
  0
LINE
  8
0
 10
32.6289
 20
-23.9453
 11
32.1869
 21
-24.5536
  0
LINE
  8
0
 10
32.1869
 20
-24.5536
 11
31.6075
 21
-25.033
  0
LINE
  8
0
 10
31.6075
 20
-25.033
 11
30.927
 21
-25.3532
  0
LINE
  8
0
 10
30.927
 20
-25.3532
 11
30.1884
 21
-25.4941
  0
LINE
  8
0
 10
30.1884
 20
-25.4941
 11
29.4379
 21
-25.4469
  0
LINE
  8
0
 10
-0.562134
 20
-25.4469
 11
-1.27733
 21
-25.2145
  0
LINE
  8
0
 10
-1.27733
 20
-25.2145
 11
-1.91226
 21
-24.8115
  0
LINE
  8
0
 10
-1.91226
 20
-24.8115
 11
-2.42705
 21
-24.2634
  0
LINE
  8
0
 10
-2.42705
 20
-24.2634
 11
-2.78932
 21
-23.6044
  0
LINE
  8
0
 10
-2.78932
 20
-23.6044
 11
-2.97633
 21
-22.876
  0
LINE
  8
0
 10
-2.97633
 20
-22.876
 11
-2.97633
 21
-22.124
  0
LINE
  8
0
 10
-2.97633
 20
-22.124
 11
-2.78932
 21
-21.3956
  0
LINE
  8
0
 10
-2.78932
 20
-21.3956
 11
-2.42705
 21
-20.7366
  0
LINE
  8
0
 10
-2.42705
 20
-20.7366
 11
-1.91226
 21
-20.1884
  0
LINE
  8
0
 10
-1.91226
 20
-20.1884
 11
-1.27733
 21
-19.7855
  0
LINE
  8
0
 10
-1.27733
 20
-19.7855
 11
-0.562134
 21
-19.5531
  0
LINE
  8
0
 10
-0.562134
 20
-19.5531
 11
0.18837
 21
-19.5059
  0
LINE
  8
0
 10
0.18837
 20
-19.5059
 11
0.927048
 21
-19.6468
  0
LINE
  8
0
 10
0.927048
 20
-19.6468
 11
1.60747
 21
-19.967
  0
LINE
  8
0
 10
1.60747
 20
-19.967
 11
2.1869
 21
-20.4464
  0
LINE
  8
0
 10
2.1869
 20
-20.4464
 11
2.62891
 21
-21.0547
  0
LINE
  8
0
 10
2.62891
 20
-21.0547
 11
2.90575
 21
-21.7539
  0
LINE
  8
0
 10
2.90575
 20
-21.7539
 11
3
 21
-22.5
  0
LINE
  8
0
 10
3
 20
-22.5
 11
2.90575
 21
-23.2461
  0
LINE
  8
0
 10
2.90575
 20
-23.2461
 11
2.62891
 21
-23.9453
  0
LINE
  8
0
 10
2.62891
 20
-23.9453
 11
2.1869
 21
-24.5536
  0
LINE
  8
0
 10
2.1869
 20
-24.5536
 11
1.60747
 21
-25.033
  0
LINE
  8
0
 10
1.60747
 20
-25.033
 11
0.927048
 21
-25.3532
  0
LINE
  8
0
 10
0.927048
 20
-25.3532
 11
0.18837
 21
-25.4941
  0
LINE
  8
0
 10
0.18837
 20
-25.4941
 11
-0.562134
 21
-25.4469
  0
ENDSEC
  0
SECTION
  2
OBJECTS
  0
DICTIONARY
  0
ENDSEC
  0
EOF
