<?xml version="1.0" standalone="no"?>
<!DOCTYPE svg PUBLIC "-//W3C//DTD SVG 1.1//EN" "http://www.w3.org/Graphics/SVG/1.1/DTD/svg11.dtd">
<svg width="72mm" height="58mm" viewBox="-36 -29 72 58" xmlns="http://www.w3.org/2000/svg" version="1.1">
<title>OpenSCAD Model</title>
<path d="
M 32.2435,28.3429 L 33.4088,27.8815 L 34.4227,27.1448 L 35.2216,26.1791 L 35.7553,25.0451 L 36,23.5
 L 36,-23.5 L 35.8429,-24.7435 L 35.3815,-25.9088 L 34.6448,-26.9227 L 33.6791,-27.7216 L 32.5451,-28.2553
 L 31,-28.5 L -31,-28.5 L -32.2435,-28.3429 L -33.4088,-27.8815 L -34.4227,-27.1448 L -35.2216,-26.1791
 L -35.7553,-25.0451 L -36,-23.5 L -36,23.5 L -35.8429,24.7435 L -35.3815,25.9088 L -34.6448,26.9227
 L -33.6791,27.7216 L -32.5451,28.2553 L -31,28.5 L 31,28.5 z
M -0.562134,-19.5531 L -1.27733,-19.7855 L -1.91226,-20.1884 L -2.42705,-20.7366 L -2.78932,-21.3956 L -2.97633,-22.124
 L -2.97633,-22.876 L -2.78932,-23.6044 L -2.42705,-24.2634 L -1.91226,-24.8115 L -1.27733,-25.2145 L -0.562134,-25.4469
 L 0.18837,-25.4941 L 0.927048,-25.3532 L 1.60747,-25.033 L 2.1869,-24.5536 L 2.62891,-23.9453 L 2.90575,-23.2461
 L 3,-22.5 L 2.90575,-21.7539 L 2.62891,-21.0547 L 2.1869,-20.4464 L 1.60747,-19.967 L 0.927048,-19.6468
 L 0.18837,-19.5059 z
M 14.4379,-19.5531 L 13.7227,-19.7855 L 13.0877,-20.1884 L 12.5729,-20.7366 L 12.2107,-21.3956 L 12.0237,-22.124
 L 12.0237,-22.876 L 12.2107,-23.6044 L 12.5729,-24.2634 L 13.0877,-24.8115 L 13.7227,-25.2145 L 14.4379,-25.4469
 L 15.1884,-25.4941 L 15.927,-25.3532 L 16.6075,-25.033 L 17.1869,-24.5536 L 17.6289,-23.9453 L 17.9057,-23.2461
 L 18,-22.5 L 17.9057,-21.7539 L 17.6289,-21.0547 L 17.1869,-20.4464 L 16.6075,-19.967 L 15.927,-19.6468
 L 15.1884,-19.5059 z
M -15.5621,-19.5531 L -16.2773,-19.7855 L -16.9123,-20.1884 L -17.427,-20.7366 L -17.7893,-21.3956 L -17.9763,-22.124
 L -17.9763,-22.876 L -17.7893,-23.6044 L -17.427,-24.2634 L -16.9123,-24.8115 L -16.2773,-25.2145 L -15.5621,-25.4469
 L -14.8116,-25.4941 L -14.0729,-25.3532 L -13.3925,-25.033 L -12.8131,-24.5536 L -12.3711,-23.9453 L -12.0942,-23.2461
 L -12,-22.5 L -12.0942,-21.7539 L -12.3711,-21.0547 L -12.8131,-20.4464 L -13.3925,-19.967 L -14.0729,-19.6468
 L -14.8116,-19.5059 z
M 29.4379,-19.5531 L 28.7227,-19.7855 L 28.0877,-20.1884 L 27.5729,-20.7366 L 27.2107,-21.3956 L 27.0237,-22.124
 L 27.0237,-22.876 L 27.2107,-23.6044 L 27.5729,-24.2634 L 28.0877,-24.8115 L 28.7227,-25.2145 L 29.4379,-25.4469
 L 30.1884,-25.4941 L 30.927,-25.3532 L 31.6075,-25.033 L 32.1869,-24.5536 L 32.6289,-23.9453 L 32.9057,-23.2461
 L 33,-22.5 L 32.9057,-21.7539 L 32.6289,-21.0547 L 32.1869,-20.4464 L 31.6075,-19.967 L 30.927,-19.6468
 L 30.1884,-19.5059 z
M -30.5621,-19.5531 L -31.2773,-19.7855 L -31.9123,-20.1884 L -32.427,-20.7366 L -32.7893,-21.3956 L -32.9763,-22.124
 L -32.9763,-22.876 L -32.7893,-23.6044 L -32.427,-24.2634 L -31.9123,-24.8115 L -31.2773,-25.2145 L -30.5621,-25.4469
 L -29.8116,-25.4941 L -29.0729,-25.3532 L -28.3925,-25.033 L -27.8131,-24.5536 L -27.3711,-23.9453 L -27.0942,-23.2461
 L -27,-22.5 L -27.0942,-21.7539 L -27.3711,-21.0547 L -27.8131,-20.4464 L -28.3925,-19.967 L -29.0729,-19.6468
 L -29.8116,-19.5059 z
M 29.4379,-4.55313 L 28.7227,-4.78551 L 28.0877,-5.18845 L 27.5729,-5.73663 L 27.2107,-6.39561 L 27.0237,-7.12399
 L 27.0237,-7.87599 L 27.2107,-8.60437 L 27.5729,-9.26335 L 28.0877,-9.81154 L 28.7227,-10.2145 L 29.4379,-10.4469
 L 30.1884,-10.4941 L 30.927,-10.3532 L 31.6075,-10.033 L 32.1869,-9.55363 L 32.6289,-8.94525 L 32.9057,-8.24606
 L 33,-7.5 L 32.9057,-6.75392 L 32.6289,-6.05473 L 32.1869,-5.44635 L 31.6075,-4.96701 L 30.927,-4.64682
 L 30.1884,-4.50591 z
M -0.562134,-4.55313 L -1.27733,-4.78551 L -1.91226,-5.18845 L -2.42705,-5.73663 L -2.78932,-6.39561 L -2.97633,-7.12399
 L -2.97633,-7.87599 L -2.78932,-8.60437 L -2.42705,-9.26335 L -1.91226,-9.81154 L -1.27733,-10.2145 L -0.562134,-10.4469
 L 0.18837,-10.4941 L 0.927048,-10.3532 L 1.60747,-10.033 L 2.1869,-9.55363 L 2.62891,-8.94525 L 2.90575,-8.24606
 L 3,-7.5 L 2.90575,-6.75392 L 2.62891,-6.05473 L 2.1869,-5.44635 L 1.60747,-4.96701 L 0.927048,-4.64682
 L 0.18837,-4.50591 z
M -15.5621,-4.55313 L -16.2773,-4.78551 L -16.9123,-5.18845 L -17.427,-5.73663 L -17.7893,-6.39561 L -17.9763,-7.12399
 L -17.9763,-7.87599 L -17.7893,-8.60437 L -17.427,-9.26335 L -16.9123,-9.81154 L -16.2773,-10.2145 L -15.5621,-10.4469
 L -14.8116,-10.4941 L -14.0729,-10.3532 L -13.3925,-10.033 L -12.8131,-9.55363 L -12.3711,-8.94525 L -12.0942,-8.24606
 L -12,-7.5 L -12.0942,-6.75392 L -12.3711,-6.05473 L -12.8131,-5.44635 L -13.3925,-4.96701 L -14.0729,-4.64682
 L -14.8116,-4.50591 z
M 14.4379,-4.55313 L 13.7227,-4.78551 L 13.0877,-5.18845 L 12.5729,-5.73663 L 12.2107,-6.39561 L 12.0237,-7.12399
 L 12.0237,-7.87599 L 12.2107,-8.60437 L 12.5729,-9.26335 L 13.0877,-9.81154 L 13.7227,-10.2145 L 14.4379,-10.4469
 L 15.1884,-10.4941 L 15.927,-10.3532 L 16.6075,-10.033 L 17.1869,-9.55363 L 17.6289,-8.94525 L 17.9057,-8.24606
 L 18,-7.5 L 17.9057,-6.75392 L 17.6289,-6.05473 L 17.1869,-5.44635 L 16.6075,-4.96701 L 15.927,-4.64682
 L 15.1884,-4.50591 z
M -30.5621,-4.55313 L -31.2773,-4.78551 L -31.9123,-5.18845 L -32.427,-5.73663 L -32.7893,-6.39561 L -32.9763,-7.12399
 L -32.9763,-7.87599 L -32.7893,-8.60437 L -32.427,-9.26335 L -31.9123,-9.81154 L -31.2773,-10.2145 L -30.5621,-10.4469
 L -29.8116,-10.4941 L -29.0729,-10.3532 L -28.3925,-10.033 L -27.8131,-9.55363 L -27.3711,-8.94525 L -27.0942,-8.24606
 L -27,-7.5 L -27.0942,-6.75392 L -27.3711,-6.05473 L -27.8131,-5.44635 L -28.3925,-4.96701 L -29.0729,-4.64682
 L -29.8116,-4.50591 z
M 14.4379,10.4469 L 13.7227,10.2145 L 13.0877,9.81154 L 12.5729,9.26335 L 12.2107,8.60437 L 12.0237,7.87599
 L 12.0237,7.12399 L 12.2107,6.39561 L 12.5729,5.73663 L 13.0877,5.18845 L 13.7227,4.78551 L 14.4379,4.55313
 L 15.1884,4.50591 L 15.927,4.64682 L 16.6075,4.96701 L 17.1869,5.44635 L 17.6289,6.05473 L 17.9057,6.75392
 L 18,7.5 L 17.9057,8.24606 L 17.6289,8.94525 L 17.1869,9.55363 L 16.6075,10.033 L 15.927,10.3532
 L 15.1884,10.4941 z
M 29.4379,10.4469 L 28.7227,10.2145 L 28.0877,9.81154 L 27.5729,9.26335 L 27.2107,8.60437 L 27.0237,7.87599
 L 27.0237,7.12399 L 27.2107,6.39561 L 27.5729,5.73663 L 28.0877,5.18845 L 28.7227,4.78551 L 29.4379,4.55313
 L 30.1884,4.50591 L 30.927,4.64682 L 31.6075,4.96701 L 32.1869,5.44635 L 32.6289,6.05473 L 32.9057,6.75392
 L 33,7.5 L 32.9057,8.24606 L 32.6289,8.94525 L 32.1869,9.55363 L 31.6075,10.033 L 30.927,10.3532
 L 30.1884,10.4941 z
M -0.562134,10.4469 L -1.27733,10.2145 L -1.91226,9.81154 L -2.42705,9.26335 L -2.78932,8.60437 L -2.97633,7.87599
 L -2.97633,7.12399 L -2.78932,6.39561 L -2.42705,5.73663 L -1.91226,5.18845 L -1.27733,4.78551 L -0.562134,4.55313
 L 0.18837,4.50591 L 0.927048,4.64682 L 1.60747,4.96701 L 2.1869,5.44635 L 2.62891,6.05473 L 2.90575,6.75392
 L 3,7.5 L 2.90575,8.24606 L 2.62891,8.94525 L 2.1869,9.55363 L 1.60747,10.033 L 0.927048,10.3532
 L 0.18837,10.4941 z
M -30.5621,10.4469 L -31.2773,10.2145 L -31.9123,9.81154 L -32.427,9.26335 L -32.7893,8.60437 L -32.9763,7.87599
 L -32.9763,7.12399 L -32.7893,6.39561 L -32.427,5.73663 L -31.9123,5.18845 L -31.2773,4.78551 L -30.5621,4.55313
 L -29.8116,4.50591 L -29.0729,4.64682 L -28.3925,4.96701 L -27.8131,5.44635 L -27.3711,6.05473 L -27.0942,6.75392
 L -27,7.5 L -27.0942,8.24606 L -27.3711,8.94525 L -27.8131,9.55363 L -28.3925,10.033 L -29.0729,10.3532
 L -29.8116,10.4941 z
M -15.5621,10.4469 L -16.2773,10.2145 L -16.9123,9.81154 L -17.427,9.26335 L -17.7893,8.60437 L -17.9763,7.87599
 L -17.9763,7.12399 L -17.7893,6.39561 L -17.427,5.73663 L -16.9123,5.18845 L -16.2773,4.78551 L -15.5621,4.55313
 L -14.8116,4.50591 L -14.0729,4.64682 L -13.3925,4.96701 L -12.8131,5.44635 L -12.3711,6.05473 L -12.0942,6.75392
 L -12,7.5 L -12.0942,8.24606 L -12.3711,8.94525 L -12.8131,9.55363 L -13.3925,10.033 L -14.0729,10.3532
 L -14.8116,10.4941 z
M -30.5621,25.4469 L -31.2773,25.2145 L -31.9123,24.8115 L -32.427,24.2634 L -32.7893,23.6044 L -32.9763,22.876
 L -32.9763,22.124 L -32.7893,21.3956 L -32.427,20.7366 L -31.9123,20.1884 L -31.2773,19.7855 L -30.5621,19.5531
 L -29.8116,19.5059 L -29.0729,19.6468 L -28.3925,19.967 L -27.8131,20.4464 L -27.3711,21.0547 L -27.0942,21.7539
 L -27,22.5 L -27.0942,23.2461 L -27.3711,23.9453 L -27.8131,24.5536 L -28.3925,25.033 L -29.0729,25.3532
 L -29.8116,25.4941 z
M -15.5621,25.4469 L -16.2773,25.2145 L -16.9123,24.8115 L -17.427,24.2634 L -17.7893,23.6044 L -17.9763,22.876
 L -17.9763,22.124 L -17.7893,21.3956 L -17.427,20.7366 L -16.9123,20.1884 L -16.2773,19.7855 L -15.5621,19.5531
 L -14.8116,19.5059 L -14.0729,19.6468 L -13.3925,19.967 L -12.8131,20.4464 L -12.3711,21.0547 L -12.0942,21.7539
 L -12,22.5 L -12.0942,23.2461 L -12.3711,23.9453 L -12.8131,24.5536 L -13.3925,25.033 L -14.0729,25.3532
 L -14.8116,25.4941 z
M 14.4379,25.4469 L 13.7227,25.2145 L 13.0877,24.8115 L 12.5729,24.2634 L 12.2107,23.6044 L 12.0237,22.876
 L 12.0237,22.124 L 12.2107,21.3956 L 12.5729,20.7366 L 13.0877,20.1884 L 13.7227,19.7855 L 14.4379,19.5531
 L 15.1884,19.5059 L 15.927,19.6468 L 16.6075,19.967 L 17.1869,20.4464 L 17.6289,21.0547 L 17.9057,21.7539
 L 18,22.5 L 17.9057,23.2461 L 17.6289,23.9453 L 17.1869,24.5536 L 16.6075,25.033 L 15.927,25.3532
 L 15.1884,25.4941 z
M 29.4379,25.4469 L 28.7227,25.2145 L 28.0877,24.8115 L 27.5729,24.2634 L 27.2107,23.6044 L 27.0237,22.876
 L 27.0237,22.124 L 27.2107,21.3956 L 27.5729,20.7366 L 28.0877,20.1884 L 28.7227,19.7855 L 29.4379,19.5531
 L 30.1884,19.5059 L 30.927,19.6468 L 31.6075,19.967 L 32.1869,20.4464 L 32.6289,21.0547 L 32.9057,21.7539
 L 33,22.5 L 32.9057,23.2461 L 32.6289,23.9453 L 32.1869,24.5536 L 31.6075,25.033 L 30.927,25.3532
 L 30.1884,25.4941 z
M -0.562134,25.4469 L -1.27733,25.2145 L -1.91226,24.8115 L -2.42705,24.2634 L -2.78932,23.6044 L -2.97633,22.876
 L -2.97633,22.124 L -2.78932,21.3956 L -2.42705,20.7366 L -1.91226,20.1884 L -1.27733,19.7855 L -0.562134,19.5531
 L 0.18837,19.5059 L 0.927048,19.6468 L 1.60747,19.967 L 2.1869,20.4464 L 2.62891,21.0547 L 2.90575,21.7539
 L 3,22.5 L 2.90575,23.2461 L 2.62891,23.9453 L 2.1869,24.5536 L 1.60747,25.033 L 0.927048,25.3532
 L 0.18837,25.4941 z
" stroke="black" fill="lightgray" stroke-width="0.5"/>
</svg>
