  0
SECTION
  2
BLOCKS
  0
ENDSEC
  0
SECTION
  2
ENTITIES
  0
LINE
  8
0
 10
76
 20
9.00986
 11
76.3139
 21
9.00986
  0
LINE
  8
0
 10
76.3139
 20
9.00986
 11
76.9369
 21
9.08856
  0
LINE
  8
0
 10
76.9369
 20
9.08856
 11
77.5451
 21
9.24471
  0
LINE
  8
0
 10
77.5451
 20
9.24471
 11
78.1289
 21
9.47586
  0
LINE
  8
0
 10
78.1289
 20
9.47586
 11
78.6791
 21
9.77835
  0
LINE
  8
0
 10
78.6791
 20
9.77835
 11
79.1871
 21
10.1474
  0
LINE
  8
0
 10
79.1871
 20
10.1474
 11
79.6448
 21
10.5773
  0
LINE
  8
0
 10
79.6448
 20
10.5773
 11
80.0451
 21
11.0611
  0
LINE
  8
0
 10
80.0451
 20
11.0611
 11
80.3815
 21
11.5912
  0
LINE
  8
0
 10
80.3815
 20
11.5912
 11
80.6489
 21
12.1594
  0
LINE
  8
0
 10
80.6489
 20
12.1594
 11
80.8429
 21
12.7565
  0
LINE
  8
0
 10
80.8429
 20
12.7565
 11
80.9606
 21
13.3733
  0
LINE
  8
0
 10
80.9606
 20
13.3733
 11
81
 21
14
  0
LINE
  8
0
 10
81
 20
14
 11
81
 21
61
  0
LINE
  8
0
 10
81
 20
61
 11
80.9606
 21
61.6267
  0
LINE
  8
0
 10
80.9606
 20
61.6267
 11
80.8429
 21
62.2434
  0
LINE
  8
0
 10
80.8429
 20
62.2434
 11
80.6489
 21
62.8406
  0
LINE
  8
0
 10
80.6489
 20
62.8406
 11
80.3815
 21
63.4088
  0
LINE
  8
0
 10
80.3815
 20
63.4088
 11
80.0451
 21
63.9389
  0
LINE
  8
0
 10
80.0451
 20
63.9389
 11
79.6448
 21
64.4227
  0
LINE
  8
0
 10
79.6448
 20
64.4227
 11
79.1871
 21
64.8526
  0
LINE
  8
0
 10
79.1871
 20
64.8526
 11
78.6791
 21
65.2216
  0
LINE
  8
0
 10
78.6791
 20
65.2216
 11
78.1289
 21
65.5241
  0
LINE
  8
0
 10
78.1289
 20
65.5241
 11
77.5451
 21
65.7553
  0
LINE
  8
0
 10
77.5451
 20
65.7553
 11
76.9369
 21
65.9114
  0
LINE
  8
0
 10
76.9369
 20
65.9114
 11
76.3139
 21
65.9901
  0
LINE
  8
0
 10
76.3139
 20
65.9901
 11
76
 21
65.9901
  0
LINE
  8
0
 10
76
 20
65.9901
 11
76
 21
66
  0
LINE
  8
0
 10
76
 20
66
 11
14
 21
66
  0
LINE
  8
0
 10
14
 20
66
 11
14
 21
65.9901
  0
LINE
  8
0
 10
14
 20
65.9901
 11
13.686
 21
65.9901
  0
LINE
  8
0
 10
13.686
 20
65.9901
 11
13.0631
 21
65.9114
  0
LINE
  8
0
 10
13.0631
 20
65.9114
 11
12.4549
 21
65.7553
  0
LINE
  8
0
 10
12.4549
 20
65.7553
 11
11.8711
 21
65.5241
  0
LINE
  8
0
 10
11.8711
 20
65.5241
 11
11.3209
 21
65.2216
  0
LINE
  8
0
 10
11.3209
 20
65.2216
 11
10.8129
 21
64.8526
  0
LINE
  8
0
 10
10.8129
 20
64.8526
 11
10.3551
 21
64.4227
  0
LINE
  8
0
 10
10.3551
 20
64.4227
 11
9.95491
 21
63.9389
  0
LINE
  8
0
 10
9.95491
 20
63.9389
 11
9.61845
 21
63.4088
  0
LINE
  8
0
 10
9.61845
 20
63.4088
 11
9.3511
 21
62.8406
  0
LINE
  8
0
 10
9.3511
 20
62.8406
 11
9.15707
 21
62.2434
  0
LINE
  8
0
 10
9.15707
 20
62.2434
 11
9.03941
 21
61.6267
  0
LINE
  8
0
 10
9.03941
 20
61.6267
 11
9
 21
61
  0
LINE
  8
0
 10
9
 20
61
 11
9
 21
14
  0
LINE
  8
0
 10
9
 20
14
 11
9.03941
 21
13.3733
  0
LINE
  8
0
 10
9.03941
 20
13.3733
 11
9.15707
 21
12.7565
  0
LINE
  8
0
 10
9.15707
 20
12.7565
 11
9.3511
 21
12.1594
  0
LINE
  8
0
 10
9.3511
 20
12.1594
 11
9.61845
 21
11.5912
  0
LINE
  8
0
 10
9.61845
 20
11.5912
 11
9.95491
 21
11.0611
  0
LINE
  8
0
 10
9.95491
 20
11.0611
 11
10.3551
 21
10.5773
  0
LINE
  8
0
 10
10.3551
 20
10.5773
 11
10.8129
 21
10.1474
  0
LINE
  8
0
 10
10.8129
 20
10.1474
 11
11.3209
 21
9.77835
  0
LINE
  8
0
 10
11.3209
 20
9.77835
 11
11.8711
 21
9.47586
  0
LINE
  8
0
 10
11.8711
 20
9.47586
 11
12.4549
 21
9.24471
  0
LINE
  8
0
 10
12.4549
 20
9.24471
 11
13.0631
 21
9.08856
  0
LINE
  8
0
 10
13.0631
 20
9.08856
 11
13.686
 21
9.00986
  0
LINE
  8
0
 10
13.686
 20
9.00986
 11
14
 21
9.00986
  0
LINE
  8
0
 10
14
 20
9.00986
 11
14
 21
9
  0
LINE
  8
0
 10
14
 20
9
 11
76
 21
9
  0
LINE
  8
0
 10
76
 20
9
 11
76
 21
9.00986
  0
ENDSEC
  0
SECTION
  2
OBJECTS
  0
DICTIONARY
  0
ENDSEC
  0
EOF
