  0
SECTION
  2
BLOCKS
  0
ENDSEC
  0
SECTION
  2
ENTITIES
  0
LINE
  8
0
 10
31.3139
 20
-28.4901
 11
31.6267
 21
-28.4606
  0
LINE
  8
0
 10
31.6267
 20
-28.4606
 11
31.9369
 21
-28.4114
  0
LINE
  8
0
 10
31.9369
 20
-28.4114
 11
32.2435
 21
-28.3429
  0
LINE
  8
0
 10
32.2435
 20
-28.3429
 11
32.5451
 21
-28.2553
  0
LINE
  8
0
 10
32.5451
 20
-28.2553
 11
32.8406
 21
-28.1489
  0
LINE
  8
0
 10
32.8406
 20
-28.1489
 11
33.1289
 21
-28.0241
  0
LINE
  8
0
 10
33.1289
 20
-28.0241
 11
33.4088
 21
-27.8815
  0
LINE
  8
0
 10
33.4088
 20
-27.8815
 11
33.6791
 21
-27.7216
  0
LINE
  8
0
 10
33.6791
 20
-27.7216
 11
33.9389
 21
-27.5451
  0
LINE
  8
0
 10
33.9389
 20
-27.5451
 11
34.1871
 21
-27.3526
  0
LINE
  8
0
 10
34.1871
 20
-27.3526
 11
34.4227
 21
-27.1448
  0
LINE
  8
0
 10
34.4227
 20
-27.1448
 11
34.6448
 21
-26.9227
  0
LINE
  8
0
 10
34.6448
 20
-26.9227
 11
34.8526
 21
-26.6871
  0
LINE
  8
0
 10
34.8526
 20
-26.6871
 11
35.0451
 21
-26.4389
  0
LINE
  8
0
 10
35.0451
 20
-26.4389
 11
35.2216
 21
-26.1791
  0
LINE
  8
0
 10
35.2216
 20
-26.1791
 11
35.3815
 21
-25.9088
  0
LINE
  8
0
 10
35.3815
 20
-25.9088
 11
35.5241
 21
-25.6289
  0
LINE
  8
0
 10
35.5241
 20
-25.6289
 11
35.6489
 21
-25.3406
  0
LINE
  8
0
 10
35.6489
 20
-25.3406
 11
35.7553
 21
-25.0451
  0
LINE
  8
0
 10
35.7553
 20
-25.0451
 11
35.8429
 21
-24.7435
  0
LINE
  8
0
 10
35.8429
 20
-24.7435
 11
35.9114
 21
-24.4369
  0
LINE
  8
0
 10
35.9114
 20
-24.4369
 11
35.9606
 21
-24.1267
  0
LINE
  8
0
 10
35.9606
 20
-24.1267
 11
35.9901
 21
-23.8139
  0
LINE
  8
0
 10
35.9901
 20
-23.8139
 11
36
 21
-23.5
  0
LINE
  8
0
 10
36
 20
-23.5
 11
36
 21
23.5
  0
LINE
  8
0
 10
36
 20
23.5
 11
35.9901
 21
23.8139
  0
LINE
  8
0
 10
35.9901
 20
23.8139
 11
35.9606
 21
24.1267
  0
LINE
  8
0
 10
35.9606
 20
24.1267
 11
35.9114
 21
24.4369
  0
LINE
  8
0
 10
35.9114
 20
24.4369
 11
35.8429
 21
24.7435
  0
LINE
  8
0
 10
35.8429
 20
24.7435
 11
35.7553
 21
25.0451
  0
LINE
  8
0
 10
35.7553
 20
25.0451
 11
35.6489
 21
25.3406
  0
LINE
  8
0
 10
35.6489
 20
25.3406
 11
35.5241
 21
25.6289
  0
LINE
  8
0
 10
35.5241
 20
25.6289
 11
35.3815
 21
25.9088
  0
LINE
  8
0
 10
35.3815
 20
25.9088
 11
35.2216
 21
26.1791
  0
LINE
  8
0
 10
35.2216
 20
26.1791
 11
35.0451
 21
26.4389
  0
LINE
  8
0
 10
35.0451
 20
26.4389
 11
34.8526
 21
26.6871
  0
LINE
  8
0
 10
34.8526
 20
26.6871
 11
34.6448
 21
26.9227
  0
LINE
  8
0
 10
34.6448
 20
26.9227
 11
34.4227
 21
27.1448
  0
LINE
  8
0
 10
34.4227
 20
27.1448
 11
34.1871
 21
27.3526
  0
LINE
  8
0
 10
34.1871
 20
27.3526
 11
33.9389
 21
27.5451
  0
LINE
  8
0
 10
33.9389
 20
27.5451
 11
33.6791
 21
27.7216
  0
LINE
  8
0
 10
33.6791
 20
27.7216
 11
33.4088
 21
27.8815
  0
LINE
  8
0
 10
33.4088
 20
27.8815
 11
33.1289
 21
28.0241
  0
LINE
  8
0
 10
33.1289
 20
28.0241
 11
32.8406
 21
28.1489
  0
LINE
  8
0
 10
32.8406
 20
28.1489
 11
32.5451
 21
28.2553
  0
LINE
  8
0
 10
32.5451
 20
28.2553
 11
32.2435
 21
28.3429
  0
LINE
  8
0
 10
32.2435
 20
28.3429
 11
31.9369
 21
28.4114
  0
LINE
  8
0
 10
31.9369
 20
28.4114
 11
31.6267
 21
28.4606
  0
LINE
  8
0
 10
31.6267
 20
28.4606
 11
31.3139
 21
28.4901
  0
LINE
  8
0
 10
31.3139
 20
28.4901
 11
31
 21
28.5
  0
LINE
  8
0
 10
31
 20
28.5
 11
-31
 21
28.5
  0
LINE
  8
0
 10
-31
 20
28.5
 11
-31.3139
 21
28.4901
  0
LINE
  8
0
 10
-31.3139
 20
28.4901
 11
-31.6267
 21
28.4606
  0
LINE
  8
0
 10
-31.6267
 20
28.4606
 11
-31.9369
 21
28.4114
  0
LINE
  8
0
 10
-31.9369
 20
28.4114
 11
-32.2435
 21
28.3429
  0
LINE
  8
0
 10
-32.2435
 20
28.3429
 11
-32.5451
 21
28.2553
  0
LINE
  8
0
 10
-32.5451
 20
28.2553
 11
-32.8406
 21
28.1489
  0
LINE
  8
0
 10
-32.8406
 20
28.1489
 11
-33.1289
 21
28.0241
  0
LINE
  8
0
 10
-33.1289
 20
28.0241
 11
-33.4088
 21
27.8815
  0
LINE
  8
0
 10
-33.4088
 20
27.8815
 11
-33.6791
 21
27.7216
  0
LINE
  8
0
 10
-33.6791
 20
27.7216
 11
-33.9389
 21
27.5451
  0
LINE
  8
0
 10
-33.9389
 20
27.5451
 11
-34.1871
 21
27.3526
  0
LINE
  8
0
 10
-34.1871
 20
27.3526
 11
-34.4227
 21
27.1448
  0
LINE
  8
0
 10
-34.4227
 20
27.1448
 11
-34.6448
 21
26.9227
  0
LINE
  8
0
 10
-34.6448
 20
26.9227
 11
-34.8526
 21
26.6871
  0
LINE
  8
0
 10
-34.8526
 20
26.6871
 11
-35.0451
 21
26.4389
  0
LINE
  8
0
 10
-35.0451
 20
26.4389
 11
-35.2216
 21
26.1791
  0
LINE
  8
0
 10
-35.2216
 20
26.1791
 11
-35.3815
 21
25.9088
  0
LINE
  8
0
 10
-35.3815
 20
25.9088
 11
-35.5241
 21
25.6289
  0
LINE
  8
0
 10
-35.5241
 20
25.6289
 11
-35.6489
 21
25.3406
  0
LINE
  8
0
 10
-35.6489
 20
25.3406
 11
-35.7553
 21
25.0451
  0
LINE
  8
0
 10
-35.7553
 20
25.0451
 11
-35.8429
 21
24.7435
  0
LINE
  8
0
 10
-35.8429
 20
24.7435
 11
-35.9114
 21
24.4369
  0
LINE
  8
0
 10
-35.9114
 20
24.4369
 11
-35.9606
 21
24.1267
  0
LINE
  8
0
 10
-35.9606
 20
24.1267
 11
-35.9901
 21
23.8139
  0
LINE
  8
0
 10
-35.9901
 20
23.8139
 11
-36
 21
23.5
  0
LINE
  8
0
 10
-36
 20
23.5
 11
-36
 21
-23.5
  0
LINE
  8
0
 10
-36
 20
-23.5
 11
-35.9901
 21
-23.8139
  0
LINE
  8
0
 10
-35.9901
 20
-23.8139
 11
-35.9606
 21
-24.1267
  0
LINE
  8
0
 10
-35.9606
 20
-24.1267
 11
-35.9114
 21
-24.4369
  0
LINE
  8
0
 10
-35.9114
 20
-24.4369
 11
-35.8429
 21
-24.7435
  0
LINE
  8
0
 10
-35.8429
 20
-24.7435
 11
-35.7553
 21
-25.0451
  0
LINE
  8
0
 10
-35.7553
 20
-25.0451
 11
-35.6489
 21
-25.3406
  0
LINE
  8
0
 10
-35.6489
 20
-25.3406
 11
-35.5241
 21
-25.6289
  0
LINE
  8
0
 10
-35.5241
 20
-25.6289
 11
-35.3815
 21
-25.9088
  0
LINE
  8
0
 10
-35.3815
 20
-25.9088
 11
-35.2216
 21
-26.1791
  0
LINE
  8
0
 10
-35.2216
 20
-26.1791
 11
-35.0451
 21
-26.4389
  0
LINE
  8
0
 10
-35.0451
 20
-26.4389
 11
-34.8526
 21
-26.6871
  0
LINE
  8
0
 10
-34.8526
 20
-26.6871
 11
-34.6448
 21
-26.9227
  0
LINE
  8
0
 10
-34.6448
 20
-26.9227
 11
-34.4227
 21
-27.1448
  0
LINE
  8
0
 10
-34.4227
 20
-27.1448
 11
-34.1871
 21
-27.3526
  0
LINE
  8
0
 10
-34.1871
 20
-27.3526
 11
-33.9389
 21
-27.5451
  0
LINE
  8
0
 10
-33.9389
 20
-27.5451
 11
-33.6791
 21
-27.7216
  0
LINE
  8
0
 10
-33.6791
 20
-27.7216
 11
-33.4088
 21
-27.8815
  0
LINE
  8
0
 10
-33.4088
 20
-27.8815
 11
-33.1289
 21
-28.0241
  0
LINE
  8
0
 10
-33.1289
 20
-28.0241
 11
-32.8406
 21
-28.1489
  0
LINE
  8
0
 10
-32.8406
 20
-28.1489
 11
-32.5451
 21
-28.2553
  0
LINE
  8
0
 10
-32.5451
 20
-28.2553
 11
-32.2435
 21
-28.3429
  0
LINE
  8
0
 10
-32.2435
 20
-28.3429
 11
-31.9369
 21
-28.4114
  0
LINE
  8
0
 10
-31.9369
 20
-28.4114
 11
-31.6267
 21
-28.4606
  0
LINE
  8
0
 10
-31.6267
 20
-28.4606
 11
-31.3139
 21
-28.4901
  0
LINE
  8
0
 10
-31.3139
 20
-28.4901
 11
-31
 21
-28.5
  0
LINE
  8
0
 10
-31
 20
-28.5
 11
31
 21
-28.5
  0
LINE
  8
0
 10
31
 20
-28.5
 11
31.3139
 21
-28.4901
  0
LINE
  8
0
 10
-0.18837
 20
19.5059
 11
-0.375992
 21
19.5237
  0
LINE
  8
0
 10
-0.375992
 20
19.5237
 11
-0.562134
 21
19.5531
  0
LINE
  8
0
 10
-0.562134
 20
19.5531
 11
-0.746063
 21
19.5942
  0
LINE
  8
0
 10
-0.746063
 20
19.5942
 11
-0.927048
 21
19.6468
  0
LINE
  8
0
 10
-0.927048
 20
19.6468
 11
-1.10437
 21
19.7107
  0
LINE
  8
0
 10
-1.10437
 20
19.7107
 11
-1.27733
 21
19.7855
  0
LINE
  8
0
 10
-1.27733
 20
19.7855
 11
-1.44525
 21
19.8711
  0
LINE
  8
0
 10
-1.44525
 20
19.8711
 11
-1.60747
 21
19.967
  0
LINE
  8
0
 10
-1.60747
 20
19.967
 11
-1.76335
 21
20.0729
  0
LINE
  8
0
 10
-1.76335
 20
20.0729
 11
-1.91226
 21
20.1884
  0
LINE
  8
0
 10
-1.91226
 20
20.1884
 11
-2.05363
 21
20.3131
  0
LINE
  8
0
 10
-2.05363
 20
20.3131
 11
-2.1869
 21
20.4464
  0
LINE
  8
0
 10
-2.1869
 20
20.4464
 11
-2.31154
 21
20.5877
  0
LINE
  8
0
 10
-2.31154
 20
20.5877
 11
-2.42705
 21
20.7366
  0
LINE
  8
0
 10
-2.42705
 20
20.7366
 11
-2.53297
 21
20.8925
  0
LINE
  8
0
 10
-2.53297
 20
20.8925
 11
-2.62891
 21
21.0547
  0
LINE
  8
0
 10
-2.62891
 20
21.0547
 11
-2.71448
 21
21.2227
  0
LINE
  8
0
 10
-2.71448
 20
21.2227
 11
-2.78932
 21
21.3956
  0
LINE
  8
0
 10
-2.78932
 20
21.3956
 11
-2.85316
 21
21.5729
  0
LINE
  8
0
 10
-2.85316
 20
21.5729
 11
-2.90575
 21
21.7539
  0
LINE
  8
0
 10
-2.90575
 20
21.7539
 11
-2.94685
 21
21.9379
  0
LINE
  8
0
 10
-2.94685
 20
21.9379
 11
-2.97633
 21
22.124
  0
LINE
  8
0
 10
-2.97633
 20
22.124
 11
-2.99408
 21
22.3116
  0
LINE
  8
0
 10
-2.99408
 20
22.3116
 11
-3
 21
22.5
  0
LINE
  8
0
 10
-3
 20
22.5
 11
-2.99408
 21
22.6884
  0
LINE
  8
0
 10
-2.99408
 20
22.6884
 11
-2.97633
 21
22.876
  0
LINE
  8
0
 10
-2.97633
 20
22.876
 11
-2.94685
 21
23.0621
  0
LINE
  8
0
 10
-2.94685
 20
23.0621
 11
-2.90575
 21
23.2461
  0
LINE
  8
0
 10
-2.90575
 20
23.2461
 11
-2.85316
 21
23.427
  0
LINE
  8
0
 10
-2.85316
 20
23.427
 11
-2.78932
 21
23.6044
  0
LINE
  8
0
 10
-2.78932
 20
23.6044
 11
-2.71448
 21
23.7773
  0
LINE
  8
0
 10
-2.71448
 20
23.7773
 11
-2.62891
 21
23.9453
  0
LINE
  8
0
 10
-2.62891
 20
23.9453
 11
-2.53297
 21
24.1075
  0
LINE
  8
0
 10
-2.53297
 20
24.1075
 11
-2.42705
 21
24.2634
  0
LINE
  8
0
 10
-2.42705
 20
24.2634
 11
-2.31154
 21
24.4123
  0
LINE
  8
0
 10
-2.31154
 20
24.4123
 11
-2.1869
 21
24.5536
  0
LINE
  8
0
 10
-2.1869
 20
24.5536
 11
-2.05363
 21
24.6869
  0
LINE
  8
0
 10
-2.05363
 20
24.6869
 11
-1.91226
 21
24.8115
  0
LINE
  8
0
 10
-1.91226
 20
24.8115
 11
-1.76335
 21
24.927
  0
LINE
  8
0
 10
-1.76335
 20
24.927
 11
-1.60747
 21
25.033
  0
LINE
  8
0
 10
-1.60747
 20
25.033
 11
-1.44525
 21
25.1289
  0
LINE
  8
0
 10
-1.44525
 20
25.1289
 11
-1.27733
 21
25.2145
  0
LINE
  8
0
 10
-1.27733
 20
25.2145
 11
-1.10437
 21
25.2893
  0
LINE
  8
0
 10
-1.10437
 20
25.2893
 11
-0.927048
 21
25.3532
  0
LINE
  8
0
 10
-0.927048
 20
25.3532
 11
-0.746063
 21
25.4057
  0
LINE
  8
0
 10
-0.746063
 20
25.4057
 11
-0.562134
 21
25.4469
  0
LINE
  8
0
 10
-0.562134
 20
25.4469
 11
-0.375992
 21
25.4763
  0
LINE
  8
0
 10
-0.375992
 20
25.4763
 11
-0.18837
 21
25.4941
  0
LINE
  8
0
 10
-0.18837
 20
25.4941
 11
0
 21
25.5
  0
LINE
  8
0
 10
0
 20
25.5
 11
0.18837
 21
25.4941
  0
LINE
  8
0
 10
0.18837
 20
25.4941
 11
0.375992
 21
25.4763
  0
LINE
  8
0
 10
0.375992
 20
25.4763
 11
0.562134
 21
25.4469
  0
LINE
  8
0
 10
0.562134
 20
25.4469
 11
0.746063
 21
25.4057
  0
LINE
  8
0
 10
0.746063
 20
25.4057
 11
0.927048
 21
25.3532
  0
LINE
  8
0
 10
0.927048
 20
25.3532
 11
1.10437
 21
25.2893
  0
LINE
  8
0
 10
1.10437
 20
25.2893
 11
1.27733
 21
25.2145
  0
LINE
  8
0
 10
1.27733
 20
25.2145
 11
1.44525
 21
25.1289
  0
LINE
  8
0
 10
1.44525
 20
25.1289
 11
1.60747
 21
25.033
  0
LINE
  8
0
 10
1.60747
 20
25.033
 11
1.76335
 21
24.927
  0
LINE
  8
0
 10
1.76335
 20
24.927
 11
1.91226
 21
24.8115
  0
LINE
  8
0
 10
1.91226
 20
24.8115
 11
2.05363
 21
24.6869
  0
LINE
  8
0
 10
2.05363
 20
24.6869
 11
2.1869
 21
24.5536
  0
LINE
  8
0
 10
2.1869
 20
24.5536
 11
2.31154
 21
24.4123
  0
LINE
  8
0
 10
2.31154
 20
24.4123
 11
2.42705
 21
24.2634
  0
LINE
  8
0
 10
2.42705
 20
24.2634
 11
2.53297
 21
24.1075
  0
LINE
  8
0
 10
2.53297
 20
24.1075
 11
2.62891
 21
23.9453
  0
LINE
  8
0
 10
2.62891
 20
23.9453
 11
2.71448
 21
23.7773
  0
LINE
  8
0
 10
2.71448
 20
23.7773
 11
2.78932
 21
23.6044
  0
LINE
  8
0
 10
2.78932
 20
23.6044
 11
2.85316
 21
23.427
  0
LINE
  8
0
 10
2.85316
 20
23.427
 11
2.90575
 21
23.2461
  0
LINE
  8
0
 10
2.90575
 20
23.2461
 11
2.94685
 21
23.0621
  0
LINE
  8
0
 10
2.94685
 20
23.0621
 11
2.97633
 21
22.876
  0
LINE
  8
0
 10
2.97633
 20
22.876
 11
2.99408
 21
22.6884
  0
LINE
  8
0
 10
2.99408
 20
22.6884
 11
3
 21
22.5
  0
LINE
  8
0
 10
3
 20
22.5
 11
2.99408
 21
22.3116
  0
LINE
  8
0
 10
2.99408
 20
22.3116
 11
2.97633
 21
22.124
  0
LINE
  8
0
 10
2.97633
 20
22.124
 11
2.94685
 21
21.9379
  0
LINE
  8
0
 10
2.94685
 20
21.9379
 11
2.90575
 21
21.7539
  0
LINE
  8
0
 10
2.90575
 20
21.7539
 11
2.85316
 21
21.5729
  0
LINE
  8
0
 10
2.85316
 20
21.5729
 11
2.78932
 21
21.3956
  0
LINE
  8
0
 10
2.78932
 20
21.3956
 11
2.71448
 21
21.2227
  0
LINE
  8
0
 10
2.71448
 20
21.2227
 11
2.62891
 21
21.0547
  0
LINE
  8
0
 10
2.62891
 20
21.0547
 11
2.53297
 21
20.8925
  0
LINE
  8
0
 10
2.53297
 20
20.8925
 11
2.42705
 21
20.7366
  0
LINE
  8
0
 10
2.42705
 20
20.7366
 11
2.31154
 21
20.5877
  0
LINE
  8
0
 10
2.31154
 20
20.5877
 11
2.1869
 21
20.4464
  0
LINE
  8
0
 10
2.1869
 20
20.4464
 11
2.05363
 21
20.3131
  0
LINE
  8
0
 10
2.05363
 20
20.3131
 11
1.91226
 21
20.1884
  0
LINE
  8
0
 10
1.91226
 20
20.1884
 11
1.76335
 21
20.0729
  0
LINE
  8
0
 10
1.76335
 20
20.0729
 11
1.60747
 21
19.967
  0
LINE
  8
0
 10
1.60747
 20
19.967
 11
1.44525
 21
19.8711
  0
LINE
  8
0
 10
1.44525
 20
19.8711
 11
1.27733
 21
19.7855
  0
LINE
  8
0
 10
1.27733
 20
19.7855
 11
1.10437
 21
19.7107
  0
LINE
  8
0
 10
1.10437
 20
19.7107
 11
0.927048
 21
19.6468
  0
LINE
  8
0
 10
0.927048
 20
19.6468
 11
0.746063
 21
19.5942
  0
LINE
  8
0
 10
0.746063
 20
19.5942
 11
0.562134
 21
19.5531
  0
LINE
  8
0
 10
0.562134
 20
19.5531
 11
0.375992
 21
19.5237
  0
LINE
  8
0
 10
0.375992
 20
19.5237
 11
0.18837
 21
19.5059
  0
LINE
  8
0
 10
0.18837
 20
19.5059
 11
0
 21
19.5
  0
LINE
  8
0
 10
0
 20
19.5
 11
-0.18837
 21
19.5059
  0
LINE
  8
0
 10
14.8116
 20
19.5059
 11
14.624
 21
19.5237
  0
LINE
  8
0
 10
14.624
 20
19.5237
 11
14.4379
 21
19.5531
  0
LINE
  8
0
 10
14.4379
 20
19.5531
 11
14.2539
 21
19.5942
  0
LINE
  8
0
 10
14.2539
 20
19.5942
 11
14.0729
 21
19.6468
  0
LINE
  8
0
 10
14.0729
 20
19.6468
 11
13.8956
 21
19.7107
  0
LINE
  8
0
 10
13.8956
 20
19.7107
 11
13.7227
 21
19.7855
  0
LINE
  8
0
 10
13.7227
 20
19.7855
 11
13.5547
 21
19.8711
  0
LINE
  8
0
 10
13.5547
 20
19.8711
 11
13.3925
 21
19.967
  0
LINE
  8
0
 10
13.3925
 20
19.967
 11
13.2366
 21
20.0729
  0
LINE
  8
0
 10
13.2366
 20
20.0729
 11
13.0877
 21
20.1884
  0
LINE
  8
0
 10
13.0877
 20
20.1884
 11
12.9464
 21
20.3131
  0
LINE
  8
0
 10
12.9464
 20
20.3131
 11
12.8131
 21
20.4464
  0
LINE
  8
0
 10
12.8131
 20
20.4464
 11
12.6884
 21
20.5877
  0
LINE
  8
0
 10
12.6884
 20
20.5877
 11
12.5729
 21
20.7366
  0
LINE
  8
0
 10
12.5729
 20
20.7366
 11
12.467
 21
20.8925
  0
LINE
  8
0
 10
12.467
 20
20.8925
 11
12.3711
 21
21.0547
  0
LINE
  8
0
 10
12.3711
 20
21.0547
 11
12.2855
 21
21.2227
  0
LINE
  8
0
 10
12.2855
 20
21.2227
 11
12.2107
 21
21.3956
  0
LINE
  8
0
 10
12.2107
 20
21.3956
 11
12.1468
 21
21.5729
  0
LINE
  8
0
 10
12.1468
 20
21.5729
 11
12.0942
 21
21.7539
  0
LINE
  8
0
 10
12.0942
 20
21.7539
 11
12.0531
 21
21.9379
  0
LINE
  8
0
 10
12.0531
 20
21.9379
 11
12.0237
 21
22.124
  0
LINE
  8
0
 10
12.0237
 20
22.124
 11
12.0059
 21
22.3116
  0
LINE
  8
0
 10
12.0059
 20
22.3116
 11
12
 21
22.5
  0
LINE
  8
0
 10
12
 20
22.5
 11
12.0059
 21
22.6884
  0
LINE
  8
0
 10
12.0059
 20
22.6884
 11
12.0237
 21
22.876
  0
LINE
  8
0
 10
12.0237
 20
22.876
 11
12.0531
 21
23.0621
  0
LINE
  8
0
 10
12.0531
 20
23.0621
 11
12.0942
 21
23.2461
  0
LINE
  8
0
 10
12.0942
 20
23.2461
 11
12.1468
 21
23.427
  0
LINE
  8
0
 10
12.1468
 20
23.427
 11
12.2107
 21
23.6044
  0
LINE
  8
0
 10
12.2107
 20
23.6044
 11
12.2855
 21
23.7773
  0
LINE
  8
0
 10
12.2855
 20
23.7773
 11
12.3711
 21
23.9453
  0
LINE
  8
0
 10
12.3711
 20
23.9453
 11
12.467
 21
24.1075
  0
LINE
  8
0
 10
12.467
 20
24.1075
 11
12.5729
 21
24.2634
  0
LINE
  8
0
 10
12.5729
 20
24.2634
 11
12.6884
 21
24.4123
  0
LINE
  8
0
 10
12.6884
 20
24.4123
 11
12.8131
 21
24.5536
  0
LINE
  8
0
 10
12.8131
 20
24.5536
 11
12.9464
 21
24.6869
  0
LINE
  8
0
 10
12.9464
 20
24.6869
 11
13.0877
 21
24.8115
  0
LINE
  8
0
 10
13.0877
 20
24.8115
 11
13.2366
 21
24.927
  0
LINE
  8
0
 10
13.2366
 20
24.927
 11
13.3925
 21
25.033
  0
LINE
  8
0
 10
13.3925
 20
25.033
 11
13.5547
 21
25.1289
  0
LINE
  8
0
 10
13.5547
 20
25.1289
 11
13.7227
 21
25.2145
  0
LINE
  8
0
 10
13.7227
 20
25.2145
 11
13.8956
 21
25.2893
  0
LINE
  8
0
 10
13.8956
 20
25.2893
 11
14.0729
 21
25.3532
  0
LINE
  8
0
 10
14.0729
 20
25.3532
 11
14.2539
 21
25.4057
  0
LINE
  8
0
 10
14.2539
 20
25.4057
 11
14.4379
 21
25.4469
  0
LINE
  8
0
 10
14.4379
 20
25.4469
 11
14.624
 21
25.4763
  0
LINE
  8
0
 10
14.624
 20
25.4763
 11
14.8116
 21
25.4941
  0
LINE
  8
0
 10
14.8116
 20
25.4941
 11
15
 21
25.5
  0
LINE
  8
0
 10
15
 20
25.5
 11
15.1884
 21
25.4941
  0
LINE
  8
0
 10
15.1884
 20
25.4941
 11
15.376
 21
25.4763
  0
LINE
  8
0
 10
15.376
 20
25.4763
 11
15.5621
 21
25.4469
  0
LINE
  8
0
 10
15.5621
 20
25.4469
 11
15.7461
 21
25.4057
  0
LINE
  8
0
 10
15.7461
 20
25.4057
 11
15.927
 21
25.3532
  0
LINE
  8
0
 10
15.927
 20
25.3532
 11
16.1044
 21
25.2893
  0
LINE
  8
0
 10
16.1044
 20
25.2893
 11
16.2773
 21
25.2145
  0
LINE
  8
0
 10
16.2773
 20
25.2145
 11
16.4453
 21
25.1289
  0
LINE
  8
0
 10
16.4453
 20
25.1289
 11
16.6075
 21
25.033
  0
LINE
  8
0
 10
16.6075
 20
25.033
 11
16.7634
 21
24.927
  0
LINE
  8
0
 10
16.7634
 20
24.927
 11
16.9123
 21
24.8115
  0
LINE
  8
0
 10
16.9123
 20
24.8115
 11
17.0536
 21
24.6869
  0
LINE
  8
0
 10
17.0536
 20
24.6869
 11
17.1869
 21
24.5536
  0
LINE
  8
0
 10
17.1869
 20
24.5536
 11
17.3115
 21
24.4123
  0
LINE
  8
0
 10
17.3115
 20
24.4123
 11
17.427
 21
24.2634
  0
LINE
  8
0
 10
17.427
 20
24.2634
 11
17.533
 21
24.1075
  0
LINE
  8
0
 10
17.533
 20
24.1075
 11
17.6289
 21
23.9453
  0
LINE
  8
0
 10
17.6289
 20
23.9453
 11
17.7145
 21
23.7773
  0
LINE
  8
0
 10
17.7145
 20
23.7773
 11
17.7893
 21
23.6044
  0
LINE
  8
0
 10
17.7893
 20
23.6044
 11
17.8532
 21
23.427
  0
LINE
  8
0
 10
17.8532
 20
23.427
 11
17.9057
 21
23.2461
  0
LINE
  8
0
 10
17.9057
 20
23.2461
 11
17.9469
 21
23.0621
  0
LINE
  8
0
 10
17.9469
 20
23.0621
 11
17.9763
 21
22.876
  0
LINE
  8
0
 10
17.9763
 20
22.876
 11
17.9941
 21
22.6884
  0
LINE
  8
0
 10
17.9941
 20
22.6884
 11
18
 21
22.5
  0
LINE
  8
0
 10
18
 20
22.5
 11
17.9941
 21
22.3116
  0
LINE
  8
0
 10
17.9941
 20
22.3116
 11
17.9763
 21
22.124
  0
LINE
  8
0
 10
17.9763
 20
22.124
 11
17.9469
 21
21.9379
  0
LINE
  8
0
 10
17.9469
 20
21.9379
 11
17.9057
 21
21.7539
  0
LINE
  8
0
 10
17.9057
 20
21.7539
 11
17.8532
 21
21.5729
  0
LINE
  8
0
 10
17.8532
 20
21.5729
 11
17.7893
 21
21.3956
  0
LINE
  8
0
 10
17.7893
 20
21.3956
 11
17.7145
 21
21.2227
  0
LINE
  8
0
 10
17.7145
 20
21.2227
 11
17.6289
 21
21.0547
  0
LINE
  8
0
 10
17.6289
 20
21.0547
 11
17.533
 21
20.8925
  0
LINE
  8
0
 10
17.533
 20
20.8925
 11
17.427
 21
20.7366
  0
LINE
  8
0
 10
17.427
 20
20.7366
 11
17.3115
 21
20.5877
  0
LINE
  8
0
 10
17.3115
 20
20.5877
 11
17.1869
 21
20.4464
  0
LINE
  8
0
 10
17.1869
 20
20.4464
 11
17.0536
 21
20.3131
  0
LINE
  8
0
 10
17.0536
 20
20.3131
 11
16.9123
 21
20.1884
  0
LINE
  8
0
 10
16.9123
 20
20.1884
 11
16.7634
 21
20.0729
  0
LINE
  8
0
 10
16.7634
 20
20.0729
 11
16.6075
 21
19.967
  0
LINE
  8
0
 10
16.6075
 20
19.967
 11
16.4453
 21
19.8711
  0
LINE
  8
0
 10
16.4453
 20
19.8711
 11
16.2773
 21
19.7855
  0
LINE
  8
0
 10
16.2773
 20
19.7855
 11
16.1044
 21
19.7107
  0
LINE
  8
0
 10
16.1044
 20
19.7107
 11
15.927
 21
19.6468
  0
LINE
  8
0
 10
15.927
 20
19.6468
 11
15.7461
 21
19.5942
  0
LINE
  8
0
 10
15.7461
 20
19.5942
 11
15.5621
 21
19.5531
  0
LINE
  8
0
 10
15.5621
 20
19.5531
 11
15.376
 21
19.5237
  0
LINE
  8
0
 10
15.376
 20
19.5237
 11
15.1884
 21
19.5059
  0
LINE
  8
0
 10
15.1884
 20
19.5059
 11
15
 21
19.5
  0
LINE
  8
0
 10
15
 20
19.5
 11
14.8116
 21
19.5059
  0
LINE
  8
0
 10
29.8116
 20
19.5059
 11
29.624
 21
19.5237
  0
LINE
  8
0
 10
29.624
 20
19.5237
 11
29.4379
 21
19.5531
  0
LINE
  8
0
 10
29.4379
 20
19.5531
 11
29.2539
 21
19.5942
  0
LINE
  8
0
 10
29.2539
 20
19.5942
 11
29.0729
 21
19.6468
  0
LINE
  8
0
 10
29.0729
 20
19.6468
 11
28.8956
 21
19.7107
  0
LINE
  8
0
 10
28.8956
 20
19.7107
 11
28.7227
 21
19.7855
  0
LINE
  8
0
 10
28.7227
 20
19.7855
 11
28.5547
 21
19.8711
  0
LINE
  8
0
 10
28.5547
 20
19.8711
 11
28.3925
 21
19.967
  0
LINE
  8
0
 10
28.3925
 20
19.967
 11
28.2366
 21
20.0729
  0
LINE
  8
0
 10
28.2366
 20
20.0729
 11
28.0877
 21
20.1884
  0
LINE
  8
0
 10
28.0877
 20
20.1884
 11
27.9464
 21
20.3131
  0
LINE
  8
0
 10
27.9464
 20
20.3131
 11
27.8131
 21
20.4464
  0
LINE
  8
0
 10
27.8131
 20
20.4464
 11
27.6884
 21
20.5877
  0
LINE
  8
0
 10
27.6884
 20
20.5877
 11
27.5729
 21
20.7366
  0
LINE
  8
0
 10
27.5729
 20
20.7366
 11
27.467
 21
20.8925
  0
LINE
  8
0
 10
27.467
 20
20.8925
 11
27.3711
 21
21.0547
  0
LINE
  8
0
 10
27.3711
 20
21.0547
 11
27.2855
 21
21.2227
  0
LINE
  8
0
 10
27.2855
 20
21.2227
 11
27.2107
 21
21.3956
  0
LINE
  8
0
 10
27.2107
 20
21.3956
 11
27.1468
 21
21.5729
  0
LINE
  8
0
 10
27.1468
 20
21.5729
 11
27.0942
 21
21.7539
  0
LINE
  8
0
 10
27.0942
 20
21.7539
 11
27.0531
 21
21.9379
  0
LINE
  8
0
 10
27.0531
 20
21.9379
 11
27.0237
 21
22.124
  0
LINE
  8
0
 10
27.0237
 20
22.124
 11
27.0059
 21
22.3116
  0
LINE
  8
0
 10
27.0059
 20
22.3116
 11
27
 21
22.5
  0
LINE
  8
0
 10
27
 20
22.5
 11
27.0059
 21
22.6884
  0
LINE
  8
0
 10
27.0059
 20
22.6884
 11
27.0237
 21
22.876
  0
LINE
  8
0
 10
27.0237
 20
22.876
 11
27.0531
 21
23.0621
  0
LINE
  8
0
 10
27.0531
 20
23.0621
 11
27.0942
 21
23.2461
  0
LINE
  8
0
 10
27.0942
 20
23.2461
 11
27.1468
 21
23.427
  0
LINE
  8
0
 10
27.1468
 20
23.427
 11
27.2107
 21
23.6044
  0
LINE
  8
0
 10
27.2107
 20
23.6044
 11
27.2855
 21
23.7773
  0
LINE
  8
0
 10
27.2855
 20
23.7773
 11
27.3711
 21
23.9453
  0
LINE
  8
0
 10
27.3711
 20
23.9453
 11
27.467
 21
24.1075
  0
LINE
  8
0
 10
27.467
 20
24.1075
 11
27.5729
 21
24.2634
  0
LINE
  8
0
 10
27.5729
 20
24.2634
 11
27.6884
 21
24.4123
  0
LINE
  8
0
 10
27.6884
 20
24.4123
 11
27.8131
 21
24.5536
  0
LINE
  8
0
 10
27.8131
 20
24.5536
 11
27.9464
 21
24.6869
  0
LINE
  8
0
 10
27.9464
 20
24.6869
 11
28.0877
 21
24.8115
  0
LINE
  8
0
 10
28.0877
 20
24.8115
 11
28.2366
 21
24.927
  0
LINE
  8
0
 10
28.2366
 20
24.927
 11
28.3925
 21
25.033
  0
LINE
  8
0
 10
28.3925
 20
25.033
 11
28.5547
 21
25.1289
  0
LINE
  8
0
 10
28.5547
 20
25.1289
 11
28.7227
 21
25.2145
  0
LINE
  8
0
 10
28.7227
 20
25.2145
 11
28.8956
 21
25.2893
  0
LINE
  8
0
 10
28.8956
 20
25.2893
 11
29.0729
 21
25.3532
  0
LINE
  8
0
 10
29.0729
 20
25.3532
 11
29.2539
 21
25.4057
  0
LINE
  8
0
 10
29.2539
 20
25.4057
 11
29.4379
 21
25.4469
  0
LINE
  8
0
 10
29.4379
 20
25.4469
 11
29.624
 21
25.4763
  0
LINE
  8
0
 10
29.624
 20
25.4763
 11
29.8116
 21
25.4941
  0
LINE
  8
0
 10
29.8116
 20
25.4941
 11
30
 21
25.5
  0
LINE
  8
0
 10
30
 20
25.5
 11
30.1884
 21
25.4941
  0
LINE
  8
0
 10
30.1884
 20
25.4941
 11
30.376
 21
25.4763
  0
LINE
  8
0
 10
30.376
 20
25.4763
 11
30.5621
 21
25.4469
  0
LINE
  8
0
 10
30.5621
 20
25.4469
 11
30.7461
 21
25.4057
  0
LINE
  8
0
 10
30.7461
 20
25.4057
 11
30.927
 21
25.3532
  0
LINE
  8
0
 10
30.927
 20
25.3532
 11
31.1044
 21
25.2893
  0
LINE
  8
0
 10
31.1044
 20
25.2893
 11
31.2773
 21
25.2145
  0
LINE
  8
0
 10
31.2773
 20
25.2145
 11
31.4453
 21
25.1289
  0
LINE
  8
0
 10
31.4453
 20
25.1289
 11
31.6075
 21
25.033
  0
LINE
  8
0
 10
31.6075
 20
25.033
 11
31.7634
 21
24.927
  0
LINE
  8
0
 10
31.7634
 20
24.927
 11
31.9123
 21
24.8115
  0
LINE
  8
0
 10
31.9123
 20
24.8115
 11
32.0536
 21
24.6869
  0
LINE
  8
0
 10
32.0536
 20
24.6869
 11
32.1869
 21
24.5536
  0
LINE
  8
0
 10
32.1869
 20
24.5536
 11
32.3115
 21
24.4123
  0
LINE
  8
0
 10
32.3115
 20
24.4123
 11
32.427
 21
24.2634
  0
LINE
  8
0
 10
32.427
 20
24.2634
 11
32.533
 21
24.1075
  0
LINE
  8
0
 10
32.533
 20
24.1075
 11
32.6289
 21
23.9453
  0
LINE
  8
0
 10
32.6289
 20
23.9453
 11
32.7145
 21
23.7773
  0
LINE
  8
0
 10
32.7145
 20
23.7773
 11
32.7893
 21
23.6044
  0
LINE
  8
0
 10
32.7893
 20
23.6044
 11
32.8532
 21
23.427
  0
LINE
  8
0
 10
32.8532
 20
23.427
 11
32.9057
 21
23.2461
  0
LINE
  8
0
 10
32.9057
 20
23.2461
 11
32.9469
 21
23.0621
  0
LINE
  8
0
 10
32.9469
 20
23.0621
 11
32.9763
 21
22.876
  0
LINE
  8
0
 10
32.9763
 20
22.876
 11
32.9941
 21
22.6884
  0
LINE
  8
0
 10
32.9941
 20
22.6884
 11
33
 21
22.5
  0
LINE
  8
0
 10
33
 20
22.5
 11
32.9941
 21
22.3116
  0
LINE
  8
0
 10
32.9941
 20
22.3116
 11
32.9763
 21
22.124
  0
LINE
  8
0
 10
32.9763
 20
22.124
 11
32.9469
 21
21.9379
  0
LINE
  8
0
 10
32.9469
 20
21.9379
 11
32.9057
 21
21.7539
  0
LINE
  8
0
 10
32.9057
 20
21.7539
 11
32.8532
 21
21.5729
  0
LINE
  8
0
 10
32.8532
 20
21.5729
 11
32.7893
 21
21.3956
  0
LINE
  8
0
 10
32.7893
 20
21.3956
 11
32.7145
 21
21.2227
  0
LINE
  8
0
 10
32.7145
 20
21.2227
 11
32.6289
 21
21.0547
  0
LINE
  8
0
 10
32.6289
 20
21.0547
 11
32.533
 21
20.8925
  0
LINE
  8
0
 10
32.533
 20
20.8925
 11
32.427
 21
20.7366
  0
LINE
  8
0
 10
32.427
 20
20.7366
 11
32.3115
 21
20.5877
  0
LINE
  8
0
 10
32.3115
 20
20.5877
 11
32.1869
 21
20.4464
  0
LINE
  8
0
 10
32.1869
 20
20.4464
 11
32.0536
 21
20.3131
  0
LINE
  8
0
 10
32.0536
 20
20.3131
 11
31.9123
 21
20.1884
  0
LINE
  8
0
 10
31.9123
 20
20.1884
 11
31.7634
 21
20.0729
  0
LINE
  8
0
 10
31.7634
 20
20.0729
 11
31.6075
 21
19.967
  0
LINE
  8
0
 10
31.6075
 20
19.967
 11
31.4453
 21
19.8711
  0
LINE
  8
0
 10
31.4453
 20
19.8711
 11
31.2773
 21
19.7855
  0
LINE
  8
0
 10
31.2773
 20
19.7855
 11
31.1044
 21
19.7107
  0
LINE
  8
0
 10
31.1044
 20
19.7107
 11
30.927
 21
19.6468
  0
LINE
  8
0
 10
30.927
 20
19.6468
 11
30.7461
 21
19.5942
  0
LINE
  8
0
 10
30.7461
 20
19.5942
 11
30.5621
 21
19.5531
  0
LINE
  8
0
 10
30.5621
 20
19.5531
 11
30.376
 21
19.5237
  0
LINE
  8
0
 10
30.376
 20
19.5237
 11
30.1884
 21
19.5059
  0
LINE
  8
0
 10
30.1884
 20
19.5059
 11
30
 21
19.5
  0
LINE
  8
0
 10
30
 20
19.5
 11
29.8116
 21
19.5059
  0
LINE
  8
0
 10
-15.1884
 20
19.5059
 11
-15.376
 21
19.5237
  0
LINE
  8
0
 10
-15.376
 20
19.5237
 11
-15.5621
 21
19.5531
  0
LINE
  8
0
 10
-15.5621
 20
19.5531
 11
-15.7461
 21
19.5942
  0
LINE
  8
0
 10
-15.7461
 20
19.5942
 11
-15.927
 21
19.6468
  0
LINE
  8
0
 10
-15.927
 20
19.6468
 11
-16.1044
 21
19.7107
  0
LINE
  8
0
 10
-16.1044
 20
19.7107
 11
-16.2773
 21
19.7855
  0
LINE
  8
0
 10
-16.2773
 20
19.7855
 11
-16.4453
 21
19.8711
  0
LINE
  8
0
 10
-16.4453
 20
19.8711
 11
-16.6075
 21
19.967
  0
LINE
  8
0
 10
-16.6075
 20
19.967
 11
-16.7634
 21
20.0729
  0
LINE
  8
0
 10
-16.7634
 20
20.0729
 11
-16.9123
 21
20.1884
  0
LINE
  8
0
 10
-16.9123
 20
20.1884
 11
-17.0536
 21
20.3131
  0
LINE
  8
0
 10
-17.0536
 20
20.3131
 11
-17.1869
 21
20.4464
  0
LINE
  8
0
 10
-17.1869
 20
20.4464
 11
-17.3115
 21
20.5877
  0
LINE
  8
0
 10
-17.3115
 20
20.5877
 11
-17.427
 21
20.7366
  0
LINE
  8
0
 10
-17.427
 20
20.7366
 11
-17.533
 21
20.8925
  0
LINE
  8
0
 10
-17.533
 20
20.8925
 11
-17.6289
 21
21.0547
  0
LINE
  8
0
 10
-17.6289
 20
21.0547
 11
-17.7145
 21
21.2227
  0
LINE
  8
0
 10
-17.7145
 20
21.2227
 11
-17.7893
 21
21.3956
  0
LINE
  8
0
 10
-17.7893
 20
21.3956
 11
-17.8532
 21
21.5729
  0
LINE
  8
0
 10
-17.8532
 20
21.5729
 11
-17.9057
 21
21.7539
  0
LINE
  8
0
 10
-17.9057
 20
21.7539
 11
-17.9469
 21
21.9379
  0
LINE
  8
0
 10
-17.9469
 20
21.9379
 11
-17.9763
 21
22.124
  0
LINE
  8
0
 10
-17.9763
 20
22.124
 11
-17.9941
 21
22.3116
  0
LINE
  8
0
 10
-17.9941
 20
22.3116
 11
-18
 21
22.5
  0
LINE
  8
0
 10
-18
 20
22.5
 11
-17.9941
 21
22.6884
  0
LINE
  8
0
 10
-17.9941
 20
22.6884
 11
-17.9763
 21
22.876
  0
LINE
  8
0
 10
-17.9763
 20
22.876
 11
-17.9469
 21
23.0621
  0
LINE
  8
0
 10
-17.9469
 20
23.0621
 11
-17.9057
 21
23.2461
  0
LINE
  8
0
 10
-17.9057
 20
23.2461
 11
-17.8532
 21
23.427
  0
LINE
  8
0
 10
-17.8532
 20
23.427
 11
-17.7893
 21
23.6044
  0
LINE
  8
0
 10
-17.7893
 20
23.6044
 11
-17.7145
 21
23.7773
  0
LINE
  8
0
 10
-17.7145
 20
23.7773
 11
-17.6289
 21
23.9453
  0
LINE
  8
0
 10
-17.6289
 20
23.9453
 11
-17.533
 21
24.1075
  0
LINE
  8
0
 10
-17.533
 20
24.1075
 11
-17.427
 21
24.2634
  0
LINE
  8
0
 10
-17.427
 20
24.2634
 11
-17.3115
 21
24.4123
  0
LINE
  8
0
 10
-17.3115
 20
24.4123
 11
-17.1869
 21
24.5536
  0
LINE
  8
0
 10
-17.1869
 20
24.5536
 11
-17.0536
 21
24.6869
  0
LINE
  8
0
 10
-17.0536
 20
24.6869
 11
-16.9123
 21
24.8115
  0
LINE
  8
0
 10
-16.9123
 20
24.8115
 11
-16.7634
 21
24.927
  0
LINE
  8
0
 10
-16.7634
 20
24.927
 11
-16.6075
 21
25.033
  0
LINE
  8
0
 10
-16.6075
 20
25.033
 11
-16.4453
 21
25.1289
  0
LINE
  8
0
 10
-16.4453
 20
25.1289
 11
-16.2773
 21
25.2145
  0
LINE
  8
0
 10
-16.2773
 20
25.2145
 11
-16.1044
 21
25.2893
  0
LINE
  8
0
 10
-16.1044
 20
25.2893
 11
-15.927
 21
25.3532
  0
LINE
  8
0
 10
-15.927
 20
25.3532
 11
-15.7461
 21
25.4057
  0
LINE
  8
0
 10
-15.7461
 20
25.4057
 11
-15.5621
 21
25.4469
  0
LINE
  8
0
 10
-15.5621
 20
25.4469
 11
-15.376
 21
25.4763
  0
LINE
  8
0
 10
-15.376
 20
25.4763
 11
-15.1884
 21
25.4941
  0
LINE
  8
0
 10
-15.1884
 20
25.4941
 11
-15
 21
25.5
  0
LINE
  8
0
 10
-15
 20
25.5
 11
-14.8116
 21
25.4941
  0
LINE
  8
0
 10
-14.8116
 20
25.4941
 11
-14.624
 21
25.4763
  0
LINE
  8
0
 10
-14.624
 20
25.4763
 11
-14.4379
 21
25.4469
  0
LINE
  8
0
 10
-14.4379
 20
25.4469
 11
-14.2539
 21
25.4057
  0
LINE
  8
0
 10
-14.2539
 20
25.4057
 11
-14.0729
 21
25.3532
  0
LINE
  8
0
 10
-14.0729
 20
25.3532
 11
-13.8956
 21
25.2893
  0
LINE
  8
0
 10
-13.8956
 20
25.2893
 11
-13.7227
 21
25.2145
  0
LINE
  8
0
 10
-13.7227
 20
25.2145
 11
-13.5547
 21
25.1289
  0
LINE
  8
0
 10
-13.5547
 20
25.1289
 11
-13.3925
 21
25.033
  0
LINE
  8
0
 10
-13.3925
 20
25.033
 11
-13.2366
 21
24.927
  0
LINE
  8
0
 10
-13.2366
 20
24.927
 11
-13.0877
 21
24.8115
  0
LINE
  8
0
 10
-13.0877
 20
24.8115
 11
-12.9464
 21
24.6869
  0
LINE
  8
0
 10
-12.9464
 20
24.6869
 11
-12.8131
 21
24.5536
  0
LINE
  8
0
 10
-12.8131
 20
24.5536
 11
-12.6884
 21
24.4123
  0
LINE
  8
0
 10
-12.6884
 20
24.4123
 11
-12.5729
 21
24.2634
  0
LINE
  8
0
 10
-12.5729
 20
24.2634
 11
-12.467
 21
24.1075
  0
LINE
  8
0
 10
-12.467
 20
24.1075
 11
-12.3711
 21
23.9453
  0
LINE
  8
0
 10
-12.3711
 20
23.9453
 11
-12.2855
 21
23.7773
  0
LINE
  8
0
 10
-12.2855
 20
23.7773
 11
-12.2107
 21
23.6044
  0
LINE
  8
0
 10
-12.2107
 20
23.6044
 11
-12.1468
 21
23.427
  0
LINE
  8
0
 10
-12.1468
 20
23.427
 11
-12.0942
 21
23.2461
  0
LINE
  8
0
 10
-12.0942
 20
23.2461
 11
-12.0531
 21
23.0621
  0
LINE
  8
0
 10
-12.0531
 20
23.0621
 11
-12.0237
 21
22.876
  0
LINE
  8
0
 10
-12.0237
 20
22.876
 11
-12.0059
 21
22.6884
  0
LINE
  8
0
 10
-12.0059
 20
22.6884
 11
-12
 21
22.5
  0
LINE
  8
0
 10
-12
 20
22.5
 11
-12.0059
 21
22.3116
  0
LINE
  8
0
 10
-12.0059
 20
22.3116
 11
-12.0237
 21
22.124
  0
LINE
  8
0
 10
-12.0237
 20
22.124
 11
-12.0531
 21
21.9379
  0
LINE
  8
0
 10
-12.0531
 20
21.9379
 11
-12.0942
 21
21.7539
  0
LINE
  8
0
 10
-12.0942
 20
21.7539
 11
-12.1468
 21
21.5729
  0
LINE
  8
0
 10
-12.1468
 20
21.5729
 11
-12.2107
 21
21.3956
  0
LINE
  8
0
 10
-12.2107
 20
21.3956
 11
-12.2855
 21
21.2227
  0
LINE
  8
0
 10
-12.2855
 20
21.2227
 11
-12.3711
 21
21.0547
  0
LINE
  8
0
 10
-12.3711
 20
21.0547
 11
-12.467
 21
20.8925
  0
LINE
  8
0
 10
-12.467
 20
20.8925
 11
-12.5729
 21
20.7366
  0
LINE
  8
0
 10
-12.5729
 20
20.7366
 11
-12.6884
 21
20.5877
  0
LINE
  8
0
 10
-12.6884
 20
20.5877
 11
-12.8131
 21
20.4464
  0
LINE
  8
0
 10
-12.8131
 20
20.4464
 11
-12.9464
 21
20.3131
  0
LINE
  8
0
 10
-12.9464
 20
20.3131
 11
-13.0877
 21
20.1884
  0
LINE
  8
0
 10
-13.0877
 20
20.1884
 11
-13.2366
 21
20.0729
  0
LINE
  8
0
 10
-13.2366
 20
20.0729
 11
-13.3925
 21
19.967
  0
LINE
  8
0
 10
-13.3925
 20
19.967
 11
-13.5547
 21
19.8711
  0
LINE
  8
0
 10
-13.5547
 20
19.8711
 11
-13.7227
 21
19.7855
  0
LINE
  8
0
 10
-13.7227
 20
19.7855
 11
-13.8956
 21
19.7107
  0
LINE
  8
0
 10
-13.8956
 20
19.7107
 11
-14.0729
 21
19.6468
  0
LINE
  8
0
 10
-14.0729
 20
19.6468
 11
-14.2539
 21
19.5942
  0
LINE
  8
0
 10
-14.2539
 20
19.5942
 11
-14.4379
 21
19.5531
  0
LINE
  8
0
 10
-14.4379
 20
19.5531
 11
-14.624
 21
19.5237
  0
LINE
  8
0
 10
-14.624
 20
19.5237
 11
-14.8116
 21
19.5059
  0
LINE
  8
0
 10
-14.8116
 20
19.5059
 11
-15
 21
19.5
  0
LINE
  8
0
 10
-15
 20
19.5
 11
-15.1884
 21
19.5059
  0
LINE
  8
0
 10
-30.1884
 20
19.5059
 11
-30.376
 21
19.5237
  0
LINE
  8
0
 10
-30.376
 20
19.5237
 11
-30.5621
 21
19.5531
  0
LINE
  8
0
 10
-30.5621
 20
19.5531
 11
-30.7461
 21
19.5942
  0
LINE
  8
0
 10
-30.7461
 20
19.5942
 11
-30.927
 21
19.6468
  0
LINE
  8
0
 10
-30.927
 20
19.6468
 11
-31.1044
 21
19.7107
  0
LINE
  8
0
 10
-31.1044
 20
19.7107
 11
-31.2773
 21
19.7855
  0
LINE
  8
0
 10
-31.2773
 20
19.7855
 11
-31.4453
 21
19.8711
  0
LINE
  8
0
 10
-31.4453
 20
19.8711
 11
-31.6075
 21
19.967
  0
LINE
  8
0
 10
-31.6075
 20
19.967
 11
-31.7634
 21
20.0729
  0
LINE
  8
0
 10
-31.7634
 20
20.0729
 11
-31.9123
 21
20.1884
  0
LINE
  8
0
 10
-31.9123
 20
20.1884
 11
-32.0536
 21
20.3131
  0
LINE
  8
0
 10
-32.0536
 20
20.3131
 11
-32.1869
 21
20.4464
  0
LINE
  8
0
 10
-32.1869
 20
20.4464
 11
-32.3115
 21
20.5877
  0
LINE
  8
0
 10
-32.3115
 20
20.5877
 11
-32.427
 21
20.7366
  0
LINE
  8
0
 10
-32.427
 20
20.7366
 11
-32.533
 21
20.8925
  0
LINE
  8
0
 10
-32.533
 20
20.8925
 11
-32.6289
 21
21.0547
  0
LINE
  8
0
 10
-32.6289
 20
21.0547
 11
-32.7145
 21
21.2227
  0
LINE
  8
0
 10
-32.7145
 20
21.2227
 11
-32.7893
 21
21.3956
  0
LINE
  8
0
 10
-32.7893
 20
21.3956
 11
-32.8532
 21
21.5729
  0
LINE
  8
0
 10
-32.8532
 20
21.5729
 11
-32.9057
 21
21.7539
  0
LINE
  8
0
 10
-32.9057
 20
21.7539
 11
-32.9469
 21
21.9379
  0
LINE
  8
0
 10
-32.9469
 20
21.9379
 11
-32.9763
 21
22.124
  0
LINE
  8
0
 10
-32.9763
 20
22.124
 11
-32.9941
 21
22.3116
  0
LINE
  8
0
 10
-32.9941
 20
22.3116
 11
-33
 21
22.5
  0
LINE
  8
0
 10
-33
 20
22.5
 11
-32.9941
 21
22.6884
  0
LINE
  8
0
 10
-32.9941
 20
22.6884
 11
-32.9763
 21
22.876
  0
LINE
  8
0
 10
-32.9763
 20
22.876
 11
-32.9469
 21
23.0621
  0
LINE
  8
0
 10
-32.9469
 20
23.0621
 11
-32.9057
 21
23.2461
  0
LINE
  8
0
 10
-32.9057
 20
23.2461
 11
-32.8532
 21
23.427
  0
LINE
  8
0
 10
-32.8532
 20
23.427
 11
-32.7893
 21
23.6044
  0
LINE
  8
0
 10
-32.7893
 20
23.6044
 11
-32.7145
 21
23.7773
  0
LINE
  8
0
 10
-32.7145
 20
23.7773
 11
-32.6289
 21
23.9453
  0
LINE
  8
0
 10
-32.6289
 20
23.9453
 11
-32.533
 21
24.1075
  0
LINE
  8
0
 10
-32.533
 20
24.1075
 11
-32.427
 21
24.2634
  0
LINE
  8
0
 10
-32.427
 20
24.2634
 11
-32.3115
 21
24.4123
  0
LINE
  8
0
 10
-32.3115
 20
24.4123
 11
-32.1869
 21
24.5536
  0
LINE
  8
0
 10
-32.1869
 20
24.5536
 11
-32.0536
 21
24.6869
  0
LINE
  8
0
 10
-32.0536
 20
24.6869
 11
-31.9123
 21
24.8115
  0
LINE
  8
0
 10
-31.9123
 20
24.8115
 11
-31.7634
 21
24.927
  0
LINE
  8
0
 10
-31.7634
 20
24.927
 11
-31.6075
 21
25.033
  0
LINE
  8
0
 10
-31.6075
 20
25.033
 11
-31.4453
 21
25.1289
  0
LINE
  8
0
 10
-31.4453
 20
25.1289
 11
-31.2773
 21
25.2145
  0
LINE
  8
0
 10
-31.2773
 20
25.2145
 11
-31.1044
 21
25.2893
  0
LINE
  8
0
 10
-31.1044
 20
25.2893
 11
-30.927
 21
25.3532
  0
LINE
  8
0
 10
-30.927
 20
25.3532
 11
-30.7461
 21
25.4057
  0
LINE
  8
0
 10
-30.7461
 20
25.4057
 11
-30.5621
 21
25.4469
  0
LINE
  8
0
 10
-30.5621
 20
25.4469
 11
-30.376
 21
25.4763
  0
LINE
  8
0
 10
-30.376
 20
25.4763
 11
-30.1884
 21
25.4941
  0
LINE
  8
0
 10
-30.1884
 20
25.4941
 11
-30
 21
25.5
  0
LINE
  8
0
 10
-30
 20
25.5
 11
-29.8116
 21
25.4941
  0
LINE
  8
0
 10
-29.8116
 20
25.4941
 11
-29.624
 21
25.4763
  0
LINE
  8
0
 10
-29.624
 20
25.4763
 11
-29.4379
 21
25.4469
  0
LINE
  8
0
 10
-29.4379
 20
25.4469
 11
-29.2539
 21
25.4057
  0
LINE
  8
0
 10
-29.2539
 20
25.4057
 11
-29.0729
 21
25.3532
  0
LINE
  8
0
 10
-29.0729
 20
25.3532
 11
-28.8956
 21
25.2893
  0
LINE
  8
0
 10
-28.8956
 20
25.2893
 11
-28.7227
 21
25.2145
  0
LINE
  8
0
 10
-28.7227
 20
25.2145
 11
-28.5547
 21
25.1289
  0
LINE
  8
0
 10
-28.5547
 20
25.1289
 11
-28.3925
 21
25.033
  0
LINE
  8
0
 10
-28.3925
 20
25.033
 11
-28.2366
 21
24.927
  0
LINE
  8
0
 10
-28.2366
 20
24.927
 11
-28.0877
 21
24.8115
  0
LINE
  8
0
 10
-28.0877
 20
24.8115
 11
-27.9464
 21
24.6869
  0
LINE
  8
0
 10
-27.9464
 20
24.6869
 11
-27.8131
 21
24.5536
  0
LINE
  8
0
 10
-27.8131
 20
24.5536
 11
-27.6884
 21
24.4123
  0
LINE
  8
0
 10
-27.6884
 20
24.4123
 11
-27.5729
 21
24.2634
  0
LINE
  8
0
 10
-27.5729
 20
24.2634
 11
-27.467
 21
24.1075
  0
LINE
  8
0
 10
-27.467
 20
24.1075
 11
-27.3711
 21
23.9453
  0
LINE
  8
0
 10
-27.3711
 20
23.9453
 11
-27.2855
 21
23.7773
  0
LINE
  8
0
 10
-27.2855
 20
23.7773
 11
-27.2107
 21
23.6044
  0
LINE
  8
0
 10
-27.2107
 20
23.6044
 11
-27.1468
 21
23.427
  0
LINE
  8
0
 10
-27.1468
 20
23.427
 11
-27.0942
 21
23.2461
  0
LINE
  8
0
 10
-27.0942
 20
23.2461
 11
-27.0531
 21
23.0621
  0
LINE
  8
0
 10
-27.0531
 20
23.0621
 11
-27.0237
 21
22.876
  0
LINE
  8
0
 10
-27.0237
 20
22.876
 11
-27.0059
 21
22.6884
  0
LINE
  8
0
 10
-27.0059
 20
22.6884
 11
-27
 21
22.5
  0
LINE
  8
0
 10
-27
 20
22.5
 11
-27.0059
 21
22.3116
  0
LINE
  8
0
 10
-27.0059
 20
22.3116
 11
-27.0237
 21
22.124
  0
LINE
  8
0
 10
-27.0237
 20
22.124
 11
-27.0531
 21
21.9379
  0
LINE
  8
0
 10
-27.0531
 20
21.9379
 11
-27.0942
 21
21.7539
  0
LINE
  8
0
 10
-27.0942
 20
21.7539
 11
-27.1468
 21
21.5729
  0
LINE
  8
0
 10
-27.1468
 20
21.5729
 11
-27.2107
 21
21.3956
  0
LINE
  8
0
 10
-27.2107
 20
21.3956
 11
-27.2855
 21
21.2227
  0
LINE
  8
0
 10
-27.2855
 20
21.2227
 11
-27.3711
 21
21.0547
  0
LINE
  8
0
 10
-27.3711
 20
21.0547
 11
-27.467
 21
20.8925
  0
LINE
  8
0
 10
-27.467
 20
20.8925
 11
-27.5729
 21
20.7366
  0
LINE
  8
0
 10
-27.5729
 20
20.7366
 11
-27.6884
 21
20.5877
  0
LINE
  8
0
 10
-27.6884
 20
20.5877
 11
-27.8131
 21
20.4464
  0
LINE
  8
0
 10
-27.8131
 20
20.4464
 11
-27.9464
 21
20.3131
  0
LINE
  8
0
 10
-27.9464
 20
20.3131
 11
-28.0877
 21
20.1884
  0
LINE
  8
0
 10
-28.0877
 20
20.1884
 11
-28.2366
 21
20.0729
  0
LINE
  8
0
 10
-28.2366
 20
20.0729
 11
-28.3925
 21
19.967
  0
LINE
  8
0
 10
-28.3925
 20
19.967
 11
-28.5547
 21
19.8711
  0
LINE
  8
0
 10
-28.5547
 20
19.8711
 11
-28.7227
 21
19.7855
  0
LINE
  8
0
 10
-28.7227
 20
19.7855
 11
-28.8956
 21
19.7107
  0
LINE
  8
0
 10
-28.8956
 20
19.7107
 11
-29.0729
 21
19.6468
  0
LINE
  8
0
 10
-29.0729
 20
19.6468
 11
-29.2539
 21
19.5942
  0
LINE
  8
0
 10
-29.2539
 20
19.5942
 11
-29.4379
 21
19.5531
  0
LINE
  8
0
 10
-29.4379
 20
19.5531
 11
-29.624
 21
19.5237
  0
LINE
  8
0
 10
-29.624
 20
19.5237
 11
-29.8116
 21
19.5059
  0
LINE
  8
0
 10
-29.8116
 20
19.5059
 11
-30
 21
19.5
  0
LINE
  8
0
 10
-30
 20
19.5
 11
-30.1884
 21
19.5059
  0
LINE
  8
0
 10
29.8116
 20
4.50591
 11
29.624
 21
4.52365
  0
LINE
  8
0
 10
29.624
 20
4.52365
 11
29.4379
 21
4.55313
  0
LINE
  8
0
 10
29.4379
 20
4.55313
 11
29.2539
 21
4.59424
  0
LINE
  8
0
 10
29.2539
 20
4.59424
 11
29.0729
 21
4.64682
  0
LINE
  8
0
 10
29.0729
 20
4.64682
 11
28.8956
 21
4.71066
  0
LINE
  8
0
 10
28.8956
 20
4.71066
 11
28.7227
 21
4.78551
  0
LINE
  8
0
 10
28.7227
 20
4.78551
 11
28.5547
 21
4.87108
  0
LINE
  8
0
 10
28.5547
 20
4.87108
 11
28.3925
 21
4.96701
  0
LINE
  8
0
 10
28.3925
 20
4.96701
 11
28.2366
 21
5.07294
  0
LINE
  8
0
 10
28.2366
 20
5.07294
 11
28.0877
 21
5.18845
  0
LINE
  8
0
 10
28.0877
 20
5.18845
 11
27.9464
 21
5.31308
  0
LINE
  8
0
 10
27.9464
 20
5.31308
 11
27.8131
 21
5.44635
  0
LINE
  8
0
 10
27.8131
 20
5.44635
 11
27.6884
 21
5.58772
  0
LINE
  8
0
 10
27.6884
 20
5.58772
 11
27.5729
 21
5.73663
  0
LINE
  8
0
 10
27.5729
 20
5.73663
 11
27.467
 21
5.89252
  0
LINE
  8
0
 10
27.467
 20
5.89252
 11
27.3711
 21
6.05473
  0
LINE
  8
0
 10
27.3711
 20
6.05473
 11
27.2855
 21
6.22266
  0
LINE
  8
0
 10
27.2855
 20
6.22266
 11
27.2107
 21
6.39561
  0
LINE
  8
0
 10
27.2107
 20
6.39561
 11
27.1468
 21
6.57294
  0
LINE
  8
0
 10
27.1468
 20
6.57294
 11
27.0942
 21
6.75392
  0
LINE
  8
0
 10
27.0942
 20
6.75392
 11
27.0531
 21
6.93785
  0
LINE
  8
0
 10
27.0531
 20
6.93785
 11
27.0237
 21
7.12399
  0
LINE
  8
0
 10
27.0237
 20
7.12399
 11
27.0059
 21
7.31161
  0
LINE
  8
0
 10
27.0059
 20
7.31161
 11
27
 21
7.5
  0
LINE
  8
0
 10
27
 20
7.5
 11
27.0059
 21
7.68837
  0
LINE
  8
0
 10
27.0059
 20
7.68837
 11
27.0237
 21
7.87599
  0
LINE
  8
0
 10
27.0237
 20
7.87599
 11
27.0531
 21
8.06213
  0
LINE
  8
0
 10
27.0531
 20
8.06213
 11
27.0942
 21
8.24606
  0
LINE
  8
0
 10
27.0942
 20
8.24606
 11
27.1468
 21
8.42705
  0
LINE
  8
0
 10
27.1468
 20
8.42705
 11
27.2107
 21
8.60437
  0
LINE
  8
0
 10
27.2107
 20
8.60437
 11
27.2855
 21
8.77733
  0
LINE
  8
0
 10
27.2855
 20
8.77733
 11
27.3711
 21
8.94525
  0
LINE
  8
0
 10
27.3711
 20
8.94525
 11
27.467
 21
9.10747
  0
LINE
  8
0
 10
27.467
 20
9.10747
 11
27.5729
 21
9.26335
  0
LINE
  8
0
 10
27.5729
 20
9.26335
 11
27.6884
 21
9.41226
  0
LINE
  8
0
 10
27.6884
 20
9.41226
 11
27.8131
 21
9.55363
  0
LINE
  8
0
 10
27.8131
 20
9.55363
 11
27.9464
 21
9.6869
  0
LINE
  8
0
 10
27.9464
 20
9.6869
 11
28.0877
 21
9.81154
  0
LINE
  8
0
 10
28.0877
 20
9.81154
 11
28.2366
 21
9.92705
  0
LINE
  8
0
 10
28.2366
 20
9.92705
 11
28.3925
 21
10.033
  0
LINE
  8
0
 10
28.3925
 20
10.033
 11
28.5547
 21
10.1289
  0
LINE
  8
0
 10
28.5547
 20
10.1289
 11
28.7227
 21
10.2145
  0
LINE
  8
0
 10
28.7227
 20
10.2145
 11
28.8956
 21
10.2893
  0
LINE
  8
0
 10
28.8956
 20
10.2893
 11
29.0729
 21
10.3532
  0
LINE
  8
0
 10
29.0729
 20
10.3532
 11
29.2539
 21
10.4057
  0
LINE
  8
0
 10
29.2539
 20
10.4057
 11
29.4379
 21
10.4469
  0
LINE
  8
0
 10
29.4379
 20
10.4469
 11
29.624
 21
10.4763
  0
LINE
  8
0
 10
29.624
 20
10.4763
 11
29.8116
 21
10.4941
  0
LINE
  8
0
 10
29.8116
 20
10.4941
 11
30
 21
10.5
  0
LINE
  8
0
 10
30
 20
10.5
 11
30.1884
 21
10.4941
  0
LINE
  8
0
 10
30.1884
 20
10.4941
 11
30.376
 21
10.4763
  0
LINE
  8
0
 10
30.376
 20
10.4763
 11
30.5621
 21
10.4469
  0
LINE
  8
0
 10
30.5621
 20
10.4469
 11
30.7461
 21
10.4057
  0
LINE
  8
0
 10
30.7461
 20
10.4057
 11
30.927
 21
10.3532
  0
LINE
  8
0
 10
30.927
 20
10.3532
 11
31.1044
 21
10.2893
  0
LINE
  8
0
 10
31.1044
 20
10.2893
 11
31.2773
 21
10.2145
  0
LINE
  8
0
 10
31.2773
 20
10.2145
 11
31.4453
 21
10.1289
  0
LINE
  8
0
 10
31.4453
 20
10.1289
 11
31.6075
 21
10.033
  0
LINE
  8
0
 10
31.6075
 20
10.033
 11
31.7634
 21
9.92705
  0
LINE
  8
0
 10
31.7634
 20
9.92705
 11
31.9123
 21
9.81154
  0
LINE
  8
0
 10
31.9123
 20
9.81154
 11
32.0536
 21
9.6869
  0
LINE
  8
0
 10
32.0536
 20
9.6869
 11
32.1869
 21
9.55363
  0
LINE
  8
0
 10
32.1869
 20
9.55363
 11
32.3115
 21
9.41226
  0
LINE
  8
0
 10
32.3115
 20
9.41226
 11
32.427
 21
9.26335
  0
LINE
  8
0
 10
32.427
 20
9.26335
 11
32.533
 21
9.10747
  0
LINE
  8
0
 10
32.533
 20
9.10747
 11
32.6289
 21
8.94525
  0
LINE
  8
0
 10
32.6289
 20
8.94525
 11
32.7145
 21
8.77733
  0
LINE
  8
0
 10
32.7145
 20
8.77733
 11
32.7893
 21
8.60437
  0
LINE
  8
0
 10
32.7893
 20
8.60437
 11
32.8532
 21
8.42705
  0
LINE
  8
0
 10
32.8532
 20
8.42705
 11
32.9057
 21
8.24606
  0
LINE
  8
0
 10
32.9057
 20
8.24606
 11
32.9469
 21
8.06213
  0
LINE
  8
0
 10
32.9469
 20
8.06213
 11
32.9763
 21
7.87599
  0
LINE
  8
0
 10
32.9763
 20
7.87599
 11
32.9941
 21
7.68837
  0
LINE
  8
0
 10
32.9941
 20
7.68837
 11
33
 21
7.5
  0
LINE
  8
0
 10
33
 20
7.5
 11
32.9941
 21
7.31161
  0
LINE
  8
0
 10
32.9941
 20
7.31161
 11
32.9763
 21
7.12399
  0
LINE
  8
0
 10
32.9763
 20
7.12399
 11
32.9469
 21
6.93785
  0
LINE
  8
0
 10
32.9469
 20
6.93785
 11
32.9057
 21
6.75392
  0
LINE
  8
0
 10
32.9057
 20
6.75392
 11
32.8532
 21
6.57294
  0
LINE
  8
0
 10
32.8532
 20
6.57294
 11
32.7893
 21
6.39561
  0
LINE
  8
0
 10
32.7893
 20
6.39561
 11
32.7145
 21
6.22266
  0
LINE
  8
0
 10
32.7145
 20
6.22266
 11
32.6289
 21
6.05473
  0
LINE
  8
0
 10
32.6289
 20
6.05473
 11
32.533
 21
5.89252
  0
LINE
  8
0
 10
32.533
 20
5.89252
 11
32.427
 21
5.73663
  0
LINE
  8
0
 10
32.427
 20
5.73663
 11
32.3115
 21
5.58772
  0
LINE
  8
0
 10
32.3115
 20
5.58772
 11
32.1869
 21
5.44635
  0
LINE
  8
0
 10
32.1869
 20
5.44635
 11
32.0536
 21
5.31308
  0
LINE
  8
0
 10
32.0536
 20
5.31308
 11
31.9123
 21
5.18845
  0
LINE
  8
0
 10
31.9123
 20
5.18845
 11
31.7634
 21
5.07294
  0
LINE
  8
0
 10
31.7634
 20
5.07294
 11
31.6075
 21
4.96701
  0
LINE
  8
0
 10
31.6075
 20
4.96701
 11
31.4453
 21
4.87108
  0
LINE
  8
0
 10
31.4453
 20
4.87108
 11
31.2773
 21
4.78551
  0
LINE
  8
0
 10
31.2773
 20
4.78551
 11
31.1044
 21
4.71066
  0
LINE
  8
0
 10
31.1044
 20
4.71066
 11
30.927
 21
4.64682
  0
LINE
  8
0
 10
30.927
 20
4.64682
 11
30.7461
 21
4.59424
  0
LINE
  8
0
 10
30.7461
 20
4.59424
 11
30.5621
 21
4.55313
  0
LINE
  8
0
 10
30.5621
 20
4.55313
 11
30.376
 21
4.52365
  0
LINE
  8
0
 10
30.376
 20
4.52365
 11
30.1884
 21
4.50591
  0
LINE
  8
0
 10
30.1884
 20
4.50591
 11
30
 21
4.5
  0
LINE
  8
0
 10
30
 20
4.5
 11
29.8116
 21
4.50591
  0
LINE
  8
0
 10
-30.1884
 20
4.50591
 11
-30.376
 21
4.52365
  0
LINE
  8
0
 10
-30.376
 20
4.52365
 11
-30.5621
 21
4.55313
  0
LINE
  8
0
 10
-30.5621
 20
4.55313
 11
-30.7461
 21
4.59424
  0
LINE
  8
0
 10
-30.7461
 20
4.59424
 11
-30.927
 21
4.64682
  0
LINE
  8
0
 10
-30.927
 20
4.64682
 11
-31.1044
 21
4.71066
  0
LINE
  8
0
 10
-31.1044
 20
4.71066
 11
-31.2773
 21
4.78551
  0
LINE
  8
0
 10
-31.2773
 20
4.78551
 11
-31.4453
 21
4.87108
  0
LINE
  8
0
 10
-31.4453
 20
4.87108
 11
-31.6075
 21
4.96701
  0
LINE
  8
0
 10
-31.6075
 20
4.96701
 11
-31.7634
 21
5.07294
  0
LINE
  8
0
 10
-31.7634
 20
5.07294
 11
-31.9123
 21
5.18845
  0
LINE
  8
0
 10
-31.9123
 20
5.18845
 11
-32.0536
 21
5.31308
  0
LINE
  8
0
 10
-32.0536
 20
5.31308
 11
-32.1869
 21
5.44635
  0
LINE
  8
0
 10
-32.1869
 20
5.44635
 11
-32.3115
 21
5.58772
  0
LINE
  8
0
 10
-32.3115
 20
5.58772
 11
-32.427
 21
5.73663
  0
LINE
  8
0
 10
-32.427
 20
5.73663
 11
-32.533
 21
5.89252
  0
LINE
  8
0
 10
-32.533
 20
5.89252
 11
-32.6289
 21
6.05473
  0
LINE
  8
0
 10
-32.6289
 20
6.05473
 11
-32.7145
 21
6.22266
  0
LINE
  8
0
 10
-32.7145
 20
6.22266
 11
-32.7893
 21
6.39561
  0
LINE
  8
0
 10
-32.7893
 20
6.39561
 11
-32.8532
 21
6.57294
  0
LINE
  8
0
 10
-32.8532
 20
6.57294
 11
-32.9057
 21
6.75392
  0
LINE
  8
0
 10
-32.9057
 20
6.75392
 11
-32.9469
 21
6.93785
  0
LINE
  8
0
 10
-32.9469
 20
6.93785
 11
-32.9763
 21
7.12399
  0
LINE
  8
0
 10
-32.9763
 20
7.12399
 11
-32.9941
 21
7.31161
  0
LINE
  8
0
 10
-32.9941
 20
7.31161
 11
-33
 21
7.5
  0
LINE
  8
0
 10
-33
 20
7.5
 11
-32.9941
 21
7.68837
  0
LINE
  8
0
 10
-32.9941
 20
7.68837
 11
-32.9763
 21
7.87599
  0
LINE
  8
0
 10
-32.9763
 20
7.87599
 11
-32.9469
 21
8.06213
  0
LINE
  8
0
 10
-32.9469
 20
8.06213
 11
-32.9057
 21
8.24606
  0
LINE
  8
0
 10
-32.9057
 20
8.24606
 11
-32.8532
 21
8.42705
  0
LINE
  8
0
 10
-32.8532
 20
8.42705
 11
-32.7893
 21
8.60437
  0
LINE
  8
0
 10
-32.7893
 20
8.60437
 11
-32.7145
 21
8.77733
  0
LINE
  8
0
 10
-32.7145
 20
8.77733
 11
-32.6289
 21
8.94525
  0
LINE
  8
0
 10
-32.6289
 20
8.94525
 11
-32.533
 21
9.10747
  0
LINE
  8
0
 10
-32.533
 20
9.10747
 11
-32.427
 21
9.26335
  0
LINE
  8
0
 10
-32.427
 20
9.26335
 11
-32.3115
 21
9.41226
  0
LINE
  8
0
 10
-32.3115
 20
9.41226
 11
-32.1869
 21
9.55363
  0
LINE
  8
0
 10
-32.1869
 20
9.55363
 11
-32.0536
 21
9.6869
  0
LINE
  8
0
 10
-32.0536
 20
9.6869
 11
-31.9123
 21
9.81154
  0
LINE
  8
0
 10
-31.9123
 20
9.81154
 11
-31.7634
 21
9.92705
  0
LINE
  8
0
 10
-31.7634
 20
9.92705
 11
-31.6075
 21
10.033
  0
LINE
  8
0
 10
-31.6075
 20
10.033
 11
-31.4453
 21
10.1289
  0
LINE
  8
0
 10
-31.4453
 20
10.1289
 11
-31.2773
 21
10.2145
  0
LINE
  8
0
 10
-31.2773
 20
10.2145
 11
-31.1044
 21
10.2893
  0
LINE
  8
0
 10
-31.1044
 20
10.2893
 11
-30.927
 21
10.3532
  0
LINE
  8
0
 10
-30.927
 20
10.3532
 11
-30.7461
 21
10.4057
  0
LINE
  8
0
 10
-30.7461
 20
10.4057
 11
-30.5621
 21
10.4469
  0
LINE
  8
0
 10
-30.5621
 20
10.4469
 11
-30.376
 21
10.4763
  0
LINE
  8
0
 10
-30.376
 20
10.4763
 11
-30.1884
 21
10.4941
  0
LINE
  8
0
 10
-30.1884
 20
10.4941
 11
-30
 21
10.5
  0
LINE
  8
0
 10
-30
 20
10.5
 11
-29.8116
 21
10.4941
  0
LINE
  8
0
 10
-29.8116
 20
10.4941
 11
-29.624
 21
10.4763
  0
LINE
  8
0
 10
-29.624
 20
10.4763
 11
-29.4379
 21
10.4469
  0
LINE
  8
0
 10
-29.4379
 20
10.4469
 11
-29.2539
 21
10.4057
  0
LINE
  8
0
 10
-29.2539
 20
10.4057
 11
-29.0729
 21
10.3532
  0
LINE
  8
0
 10
-29.0729
 20
10.3532
 11
-28.8956
 21
10.2893
  0
LINE
  8
0
 10
-28.8956
 20
10.2893
 11
-28.7227
 21
10.2145
  0
LINE
  8
0
 10
-28.7227
 20
10.2145
 11
-28.5547
 21
10.1289
  0
LINE
  8
0
 10
-28.5547
 20
10.1289
 11
-28.3925
 21
10.033
  0
LINE
  8
0
 10
-28.3925
 20
10.033
 11
-28.2366
 21
9.92705
  0
LINE
  8
0
 10
-28.2366
 20
9.92705
 11
-28.0877
 21
9.81154
  0
LINE
  8
0
 10
-28.0877
 20
9.81154
 11
-27.9464
 21
9.6869
  0
LINE
  8
0
 10
-27.9464
 20
9.6869
 11
-27.8131
 21
9.55363
  0
LINE
  8
0
 10
-27.8131
 20
9.55363
 11
-27.6884
 21
9.41226
  0
LINE
  8
0
 10
-27.6884
 20
9.41226
 11
-27.5729
 21
9.26335
  0
LINE
  8
0
 10
-27.5729
 20
9.26335
 11
-27.467
 21
9.10747
  0
LINE
  8
0
 10
-27.467
 20
9.10747
 11
-27.3711
 21
8.94525
  0
LINE
  8
0
 10
-27.3711
 20
8.94525
 11
-27.2855
 21
8.77733
  0
LINE
  8
0
 10
-27.2855
 20
8.77733
 11
-27.2107
 21
8.60437
  0
LINE
  8
0
 10
-27.2107
 20
8.60437
 11
-27.1468
 21
8.42705
  0
LINE
  8
0
 10
-27.1468
 20
8.42705
 11
-27.0942
 21
8.24606
  0
LINE
  8
0
 10
-27.0942
 20
8.24606
 11
-27.0531
 21
8.06213
  0
LINE
  8
0
 10
-27.0531
 20
8.06213
 11
-27.0237
 21
7.87599
  0
LINE
  8
0
 10
-27.0237
 20
7.87599
 11
-27.0059
 21
7.68837
  0
LINE
  8
0
 10
-27.0059
 20
7.68837
 11
-27
 21
7.5
  0
LINE
  8
0
 10
-27
 20
7.5
 11
-27.0059
 21
7.31161
  0
LINE
  8
0
 10
-27.0059
 20
7.31161
 11
-27.0237
 21
7.12399
  0
LINE
  8
0
 10
-27.0237
 20
7.12399
 11
-27.0531
 21
6.93785
  0
LINE
  8
0
 10
-27.0531
 20
6.93785
 11
-27.0942
 21
6.75392
  0
LINE
  8
0
 10
-27.0942
 20
6.75392
 11
-27.1468
 21
6.57294
  0
LINE
  8
0
 10
-27.1468
 20
6.57294
 11
-27.2107
 21
6.39561
  0
LINE
  8
0
 10
-27.2107
 20
6.39561
 11
-27.2855
 21
6.22266
  0
LINE
  8
0
 10
-27.2855
 20
6.22266
 11
-27.3711
 21
6.05473
  0
LINE
  8
0
 10
-27.3711
 20
6.05473
 11
-27.467
 21
5.89252
  0
LINE
  8
0
 10
-27.467
 20
5.89252
 11
-27.5729
 21
5.73663
  0
LINE
  8
0
 10
-27.5729
 20
5.73663
 11
-27.6884
 21
5.58772
  0
LINE
  8
0
 10
-27.6884
 20
5.58772
 11
-27.8131
 21
5.44635
  0
LINE
  8
0
 10
-27.8131
 20
5.44635
 11
-27.9464
 21
5.31308
  0
LINE
  8
0
 10
-27.9464
 20
5.31308
 11
-28.0877
 21
5.18845
  0
LINE
  8
0
 10
-28.0877
 20
5.18845
 11
-28.2366
 21
5.07294
  0
LINE
  8
0
 10
-28.2366
 20
5.07294
 11
-28.3925
 21
4.96701
  0
LINE
  8
0
 10
-28.3925
 20
4.96701
 11
-28.5547
 21
4.87108
  0
LINE
  8
0
 10
-28.5547
 20
4.87108
 11
-28.7227
 21
4.78551
  0
LINE
  8
0
 10
-28.7227
 20
4.78551
 11
-28.8956
 21
4.71066
  0
LINE
  8
0
 10
-28.8956
 20
4.71066
 11
-29.0729
 21
4.64682
  0
LINE
  8
0
 10
-29.0729
 20
4.64682
 11
-29.2539
 21
4.59424
  0
LINE
  8
0
 10
-29.2539
 20
4.59424
 11
-29.4379
 21
4.55313
  0
LINE
  8
0
 10
-29.4379
 20
4.55313
 11
-29.624
 21
4.52365
  0
LINE
  8
0
 10
-29.624
 20
4.52365
 11
-29.8116
 21
4.50591
  0
LINE
  8
0
 10
-29.8116
 20
4.50591
 11
-30
 21
4.5
  0
LINE
  8
0
 10
-30
 20
4.5
 11
-30.1884
 21
4.50591
  0
LINE
  8
0
 10
12.5729
 20
5.73663
 11
12.467
 21
5.89252
  0
LINE
  8
0
 10
12.467
 20
5.89252
 11
12.3711
 21
6.05473
  0
LINE
  8
0
 10
12.3711
 20
6.05473
 11
12.2855
 21
6.22266
  0
LINE
  8
0
 10
12.2855
 20
6.22266
 11
12.2107
 21
6.39561
  0
LINE
  8
0
 10
12.2107
 20
6.39561
 11
12.1468
 21
6.57294
  0
LINE
  8
0
 10
12.1468
 20
6.57294
 11
12.0942
 21
6.75392
  0
LINE
  8
0
 10
12.0942
 20
6.75392
 11
12.0531
 21
6.93785
  0
LINE
  8
0
 10
12.0531
 20
6.93785
 11
12.0237
 21
7.12399
  0
LINE
  8
0
 10
12.0237
 20
7.12399
 11
12.0059
 21
7.31161
  0
LINE
  8
0
 10
12.0059
 20
7.31161
 11
12
 21
7.5
  0
LINE
  8
0
 10
12
 20
7.5
 11
12.0059
 21
7.68837
  0
LINE
  8
0
 10
12.0059
 20
7.68837
 11
12.0237
 21
7.87599
  0
LINE
  8
0
 10
12.0237
 20
7.87599
 11
12.0531
 21
8.06213
  0
LINE
  8
0
 10
12.0531
 20
8.06213
 11
12.0942
 21
8.24606
  0
LINE
  8
0
 10
12.0942
 20
8.24606
 11
12.1468
 21
8.42705
  0
LINE
  8
0
 10
12.1468
 20
8.42705
 11
12.2107
 21
8.60437
  0
LINE
  8
0
 10
12.2107
 20
8.60437
 11
12.2855
 21
8.77733
  0
LINE
  8
0
 10
12.2855
 20
8.77733
 11
12.3711
 21
8.94525
  0
LINE
  8
0
 10
12.3711
 20
8.94525
 11
12.467
 21
9.10747
  0
LINE
  8
0
 10
12.467
 20
9.10747
 11
12.5729
 21
9.26335
  0
LINE
  8
0
 10
12.5729
 20
9.26335
 11
12.6884
 21
9.41226
  0
LINE
  8
0
 10
12.6884
 20
9.41226
 11
12.8131
 21
9.55363
  0
LINE
  8
0
 10
12.8131
 20
9.55363
 11
12.9464
 21
9.6869
  0
LINE
  8
0
 10
12.9464
 20
9.6869
 11
13.0877
 21
9.81154
  0
LINE
  8
0
 10
13.0877
 20
9.81154
 11
13.2366
 21
9.92705
  0
LINE
  8
0
 10
13.2366
 20
9.92705
 11
13.3925
 21
10.033
  0
LINE
  8
0
 10
13.3925
 20
10.033
 11
13.5547
 21
10.1289
  0
LINE
  8
0
 10
13.5547
 20
10.1289
 11
13.7227
 21
10.2145
  0
LINE
  8
0
 10
13.7227
 20
10.2145
 11
13.8956
 21
10.2893
  0
LINE
  8
0
 10
13.8956
 20
10.2893
 11
14.0729
 21
10.3532
  0
LINE
  8
0
 10
14.0729
 20
10.3532
 11
14.2539
 21
10.4057
  0
LINE
  8
0
 10
14.2539
 20
10.4057
 11
14.4379
 21
10.4469
  0
LINE
  8
0
 10
14.4379
 20
10.4469
 11
14.624
 21
10.4763
  0
LINE
  8
0
 10
14.624
 20
10.4763
 11
14.8116
 21
10.4941
  0
LINE
  8
0
 10
14.8116
 20
10.4941
 11
15
 21
10.5
  0
LINE
  8
0
 10
15
 20
10.5
 11
15.1884
 21
10.4941
  0
LINE
  8
0
 10
15.1884
 20
10.4941
 11
15.376
 21
10.4763
  0
LINE
  8
0
 10
15.376
 20
10.4763
 11
15.5621
 21
10.4469
  0
LINE
  8
0
 10
15.5621
 20
10.4469
 11
15.7461
 21
10.4057
  0
LINE
  8
0
 10
15.7461
 20
10.4057
 11
15.927
 21
10.3532
  0
LINE
  8
0
 10
15.927
 20
10.3532
 11
16.1044
 21
10.2893
  0
LINE
  8
0
 10
16.1044
 20
10.2893
 11
16.2773
 21
10.2145
  0
LINE
  8
0
 10
16.2773
 20
10.2145
 11
16.4453
 21
10.1289
  0
LINE
  8
0
 10
16.4453
 20
10.1289
 11
16.6075
 21
10.033
  0
LINE
  8
0
 10
16.6075
 20
10.033
 11
16.7634
 21
9.92705
  0
LINE
  8
0
 10
16.7634
 20
9.92705
 11
16.9123
 21
9.81154
  0
LINE
  8
0
 10
16.9123
 20
9.81154
 11
17.0536
 21
9.6869
  0
LINE
  8
0
 10
17.0536
 20
9.6869
 11
17.1869
 21
9.55363
  0
LINE
  8
0
 10
17.1869
 20
9.55363
 11
17.3115
 21
9.41226
  0
LINE
  8
0
 10
17.3115
 20
9.41226
 11
17.427
 21
9.26335
  0
LINE
  8
0
 10
17.427
 20
9.26335
 11
17.533
 21
9.10747
  0
LINE
  8
0
 10
17.533
 20
9.10747
 11
17.6289
 21
8.94525
  0
LINE
  8
0
 10
17.6289
 20
8.94525
 11
17.7145
 21
8.77733
  0
LINE
  8
0
 10
17.7145
 20
8.77733
 11
17.7893
 21
8.60437
  0
LINE
  8
0
 10
17.7893
 20
8.60437
 11
17.8532
 21
8.42705
  0
LINE
  8
0
 10
17.8532
 20
8.42705
 11
17.9057
 21
8.24606
  0
LINE
  8
0
 10
17.9057
 20
8.24606
 11
17.9469
 21
8.06213
  0
LINE
  8
0
 10
17.9469
 20
8.06213
 11
17.9763
 21
7.87599
  0
LINE
  8
0
 10
17.9763
 20
7.87599
 11
17.9941
 21
7.68837
  0
LINE
  8
0
 10
17.9941
 20
7.68837
 11
18
 21
7.5
  0
LINE
  8
0
 10
18
 20
7.5
 11
17.9941
 21
7.31161
  0
LINE
  8
0
 10
17.9941
 20
7.31161
 11
17.9763
 21
7.12399
  0
LINE
  8
0
 10
17.9763
 20
7.12399
 11
17.9469
 21
6.93785
  0
LINE
  8
0
 10
17.9469
 20
6.93785
 11
17.9057
 21
6.75392
  0
LINE
  8
0
 10
17.9057
 20
6.75392
 11
17.8532
 21
6.57294
  0
LINE
  8
0
 10
17.8532
 20
6.57294
 11
17.7893
 21
6.39561
  0
LINE
  8
0
 10
17.7893
 20
6.39561
 11
17.7145
 21
6.22266
  0
LINE
  8
0
 10
17.7145
 20
6.22266
 11
17.6289
 21
6.05473
  0
LINE
  8
0
 10
17.6289
 20
6.05473
 11
17.533
 21
5.89252
  0
LINE
  8
0
 10
17.533
 20
5.89252
 11
17.427
 21
5.73663
  0
LINE
  8
0
 10
17.427
 20
5.73663
 11
17.3115
 21
5.58772
  0
LINE
  8
0
 10
17.3115
 20
5.58772
 11
17.1869
 21
5.44635
  0
LINE
  8
0
 10
17.1869
 20
5.44635
 11
17.0536
 21
5.31308
  0
LINE
  8
0
 10
17.0536
 20
5.31308
 11
16.9123
 21
5.18845
  0
LINE
  8
0
 10
16.9123
 20
5.18845
 11
16.7634
 21
5.07294
  0
LINE
  8
0
 10
16.7634
 20
5.07294
 11
16.6075
 21
4.96701
  0
LINE
  8
0
 10
16.6075
 20
4.96701
 11
16.4453
 21
4.87108
  0
LINE
  8
0
 10
16.4453
 20
4.87108
 11
16.2773
 21
4.78551
  0
LINE
  8
0
 10
16.2773
 20
4.78551
 11
16.1044
 21
4.71066
  0
LINE
  8
0
 10
16.1044
 20
4.71066
 11
15.927
 21
4.64682
  0
LINE
  8
0
 10
15.927
 20
4.64682
 11
15.7461
 21
4.59424
  0
LINE
  8
0
 10
15.7461
 20
4.59424
 11
15.5621
 21
4.55313
  0
LINE
  8
0
 10
15.5621
 20
4.55313
 11
15.376
 21
4.52365
  0
LINE
  8
0
 10
15.376
 20
4.52365
 11
15.1884
 21
4.50591
  0
LINE
  8
0
 10
15.1884
 20
4.50591
 11
15
 21
4.5
  0
LINE
  8
0
 10
15
 20
4.5
 11
14.8116
 21
4.50591
  0
LINE
  8
0
 10
14.8116
 20
4.50591
 11
14.624
 21
4.52365
  0
LINE
  8
0
 10
14.624
 20
4.52365
 11
14.4379
 21
4.55313
  0
LINE
  8
0
 10
14.4379
 20
4.55313
 11
14.2539
 21
4.59424
  0
LINE
  8
0
 10
14.2539
 20
4.59424
 11
14.0729
 21
4.64682
  0
LINE
  8
0
 10
14.0729
 20
4.64682
 11
13.8956
 21
4.71066
  0
LINE
  8
0
 10
13.8956
 20
4.71066
 11
13.7227
 21
4.78551
  0
LINE
  8
0
 10
13.7227
 20
4.78551
 11
13.5547
 21
4.87108
  0
LINE
  8
0
 10
13.5547
 20
4.87108
 11
13.3925
 21
4.96701
  0
LINE
  8
0
 10
13.3925
 20
4.96701
 11
13.2366
 21
5.07294
  0
LINE
  8
0
 10
13.2366
 20
5.07294
 11
13.0877
 21
5.18845
  0
LINE
  8
0
 10
13.0877
 20
5.18845
 11
12.9464
 21
5.31308
  0
LINE
  8
0
 10
12.9464
 20
5.31308
 11
12.8131
 21
5.44635
  0
LINE
  8
0
 10
12.8131
 20
5.44635
 11
12.6884
 21
5.58772
  0
LINE
  8
0
 10
12.6884
 20
5.58772
 11
12.5729
 21
5.73663
  0
LINE
  8
0
 10
27.467
 20
-9.10747
 11
27.3711
 21
-8.94525
  0
LINE
  8
0
 10
27.3711
 20
-8.94525
 11
27.2855
 21
-8.77733
  0
LINE
  8
0
 10
27.2855
 20
-8.77733
 11
27.2107
 21
-8.60437
  0
LINE
  8
0
 10
27.2107
 20
-8.60437
 11
27.1468
 21
-8.42705
  0
LINE
  8
0
 10
27.1468
 20
-8.42705
 11
27.0942
 21
-8.24606
  0
LINE
  8
0
 10
27.0942
 20
-8.24606
 11
27.0531
 21
-8.06213
  0
LINE
  8
0
 10
27.0531
 20
-8.06213
 11
27.0237
 21
-7.87599
  0
LINE
  8
0
 10
27.0237
 20
-7.87599
 11
27.0059
 21
-7.68837
  0
LINE
  8
0
 10
27.0059
 20
-7.68837
 11
27
 21
-7.5
  0
LINE
  8
0
 10
27
 20
-7.5
 11
27.0059
 21
-7.31161
  0
LINE
  8
0
 10
27.0059
 20
-7.31161
 11
27.0237
 21
-7.12399
  0
LINE
  8
0
 10
27.0237
 20
-7.12399
 11
27.0531
 21
-6.93785
  0
LINE
  8
0
 10
27.0531
 20
-6.93785
 11
27.0942
 21
-6.75392
  0
LINE
  8
0
 10
27.0942
 20
-6.75392
 11
27.1468
 21
-6.57294
  0
LINE
  8
0
 10
27.1468
 20
-6.57294
 11
27.2107
 21
-6.39561
  0
LINE
  8
0
 10
27.2107
 20
-6.39561
 11
27.2855
 21
-6.22266
  0
LINE
  8
0
 10
27.2855
 20
-6.22266
 11
27.3711
 21
-6.05473
  0
LINE
  8
0
 10
27.3711
 20
-6.05473
 11
27.467
 21
-5.89252
  0
LINE
  8
0
 10
27.467
 20
-5.89252
 11
27.5729
 21
-5.73663
  0
LINE
  8
0
 10
27.5729
 20
-5.73663
 11
27.6884
 21
-5.58772
  0
LINE
  8
0
 10
27.6884
 20
-5.58772
 11
27.8131
 21
-5.44635
  0
LINE
  8
0
 10
27.8131
 20
-5.44635
 11
27.9464
 21
-5.31308
  0
LINE
  8
0
 10
27.9464
 20
-5.31308
 11
28.0877
 21
-5.18845
  0
LINE
  8
0
 10
28.0877
 20
-5.18845
 11
28.2366
 21
-5.07294
  0
LINE
  8
0
 10
28.2366
 20
-5.07294
 11
28.3925
 21
-4.96701
  0
LINE
  8
0
 10
28.3925
 20
-4.96701
 11
28.5547
 21
-4.87108
  0
LINE
  8
0
 10
28.5547
 20
-4.87108
 11
28.7227
 21
-4.78551
  0
LINE
  8
0
 10
28.7227
 20
-4.78551
 11
28.8956
 21
-4.71066
  0
LINE
  8
0
 10
28.8956
 20
-4.71066
 11
29.0729
 21
-4.64682
  0
LINE
  8
0
 10
29.0729
 20
-4.64682
 11
29.2539
 21
-4.59424
  0
LINE
  8
0
 10
29.2539
 20
-4.59424
 11
29.4379
 21
-4.55313
  0
LINE
  8
0
 10
29.4379
 20
-4.55313
 11
29.624
 21
-4.52365
  0
LINE
  8
0
 10
29.624
 20
-4.52365
 11
29.8116
 21
-4.50591
  0
LINE
  8
0
 10
29.8116
 20
-4.50591
 11
30
 21
-4.5
  0
LINE
  8
0
 10
30
 20
-4.5
 11
30.1884
 21
-4.50591
  0
LINE
  8
0
 10
30.1884
 20
-4.50591
 11
30.376
 21
-4.52365
  0
LINE
  8
0
 10
30.376
 20
-4.52365
 11
30.5621
 21
-4.55313
  0
LINE
  8
0
 10
30.5621
 20
-4.55313
 11
30.7461
 21
-4.59424
  0
LINE
  8
0
 10
30.7461
 20
-4.59424
 11
30.927
 21
-4.64682
  0
LINE
  8
0
 10
30.927
 20
-4.64682
 11
31.1044
 21
-4.71066
  0
LINE
  8
0
 10
31.1044
 20
-4.71066
 11
31.2773
 21
-4.78551
  0
LINE
  8
0
 10
31.2773
 20
-4.78551
 11
31.4453
 21
-4.87108
  0
LINE
  8
0
 10
31.4453
 20
-4.87108
 11
31.6075
 21
-4.96701
  0
LINE
  8
0
 10
31.6075
 20
-4.96701
 11
31.7634
 21
-5.07294
  0
LINE
  8
0
 10
31.7634
 20
-5.07294
 11
31.9123
 21
-5.18845
  0
LINE
  8
0
 10
31.9123
 20
-5.18845
 11
32.0536
 21
-5.31308
  0
LINE
  8
0
 10
32.0536
 20
-5.31308
 11
32.1869
 21
-5.44635
  0
LINE
  8
0
 10
32.1869
 20
-5.44635
 11
32.3115
 21
-5.58772
  0
LINE
  8
0
 10
32.3115
 20
-5.58772
 11
32.427
 21
-5.73663
  0
LINE
  8
0
 10
32.427
 20
-5.73663
 11
32.533
 21
-5.89252
  0
LINE
  8
0
 10
32.533
 20
-5.89252
 11
32.6289
 21
-6.05473
  0
LINE
  8
0
 10
32.6289
 20
-6.05473
 11
32.7145
 21
-6.22266
  0
LINE
  8
0
 10
32.7145
 20
-6.22266
 11
32.7893
 21
-6.39561
  0
LINE
  8
0
 10
32.7893
 20
-6.39561
 11
32.8532
 21
-6.57294
  0
LINE
  8
0
 10
32.8532
 20
-6.57294
 11
32.9057
 21
-6.75392
  0
LINE
  8
0
 10
32.9057
 20
-6.75392
 11
32.9469
 21
-6.93785
  0
LINE
  8
0
 10
32.9469
 20
-6.93785
 11
32.9763
 21
-7.12399
  0
LINE
  8
0
 10
32.9763
 20
-7.12399
 11
32.9941
 21
-7.31161
  0
LINE
  8
0
 10
32.9941
 20
-7.31161
 11
33
 21
-7.5
  0
LINE
  8
0
 10
33
 20
-7.5
 11
32.9941
 21
-7.68837
  0
LINE
  8
0
 10
32.9941
 20
-7.68837
 11
32.9763
 21
-7.87599
  0
LINE
  8
0
 10
32.9763
 20
-7.87599
 11
32.9469
 21
-8.06213
  0
LINE
  8
0
 10
32.9469
 20
-8.06213
 11
32.9057
 21
-8.24606
  0
LINE
  8
0
 10
32.9057
 20
-8.24606
 11
32.8532
 21
-8.42705
  0
LINE
  8
0
 10
32.8532
 20
-8.42705
 11
32.7893
 21
-8.60437
  0
LINE
  8
0
 10
32.7893
 20
-8.60437
 11
32.7145
 21
-8.77733
  0
LINE
  8
0
 10
32.7145
 20
-8.77733
 11
32.6289
 21
-8.94525
  0
LINE
  8
0
 10
32.6289
 20
-8.94525
 11
32.533
 21
-9.10747
  0
LINE
  8
0
 10
32.533
 20
-9.10747
 11
32.427
 21
-9.26335
  0
LINE
  8
0
 10
32.427
 20
-9.26335
 11
32.3115
 21
-9.41226
  0
LINE
  8
0
 10
32.3115
 20
-9.41226
 11
32.1869
 21
-9.55363
  0
LINE
  8
0
 10
32.1869
 20
-9.55363
 11
32.0536
 21
-9.6869
  0
LINE
  8
0
 10
32.0536
 20
-9.6869
 11
31.9123
 21
-9.81154
  0
LINE
  8
0
 10
31.9123
 20
-9.81154
 11
31.7634
 21
-9.92705
  0
LINE
  8
0
 10
31.7634
 20
-9.92705
 11
31.6075
 21
-10.033
  0
LINE
  8
0
 10
31.6075
 20
-10.033
 11
31.4453
 21
-10.1289
  0
LINE
  8
0
 10
31.4453
 20
-10.1289
 11
31.2773
 21
-10.2145
  0
LINE
  8
0
 10
31.2773
 20
-10.2145
 11
31.1044
 21
-10.2893
  0
LINE
  8
0
 10
31.1044
 20
-10.2893
 11
30.927
 21
-10.3532
  0
LINE
  8
0
 10
30.927
 20
-10.3532
 11
30.7461
 21
-10.4057
  0
LINE
  8
0
 10
30.7461
 20
-10.4057
 11
30.5621
 21
-10.4469
  0
LINE
  8
0
 10
30.5621
 20
-10.4469
 11
30.376
 21
-10.4763
  0
LINE
  8
0
 10
30.376
 20
-10.4763
 11
30.1884
 21
-10.4941
  0
LINE
  8
0
 10
30.1884
 20
-10.4941
 11
30
 21
-10.5
  0
LINE
  8
0
 10
30
 20
-10.5
 11
29.8116
 21
-10.4941
  0
LINE
  8
0
 10
29.8116
 20
-10.4941
 11
29.624
 21
-10.4763
  0
LINE
  8
0
 10
29.624
 20
-10.4763
 11
29.4379
 21
-10.4469
  0
LINE
  8
0
 10
29.4379
 20
-10.4469
 11
29.2539
 21
-10.4057
  0
LINE
  8
0
 10
29.2539
 20
-10.4057
 11
29.0729
 21
-10.3532
  0
LINE
  8
0
 10
29.0729
 20
-10.3532
 11
28.8956
 21
-10.2893
  0
LINE
  8
0
 10
28.8956
 20
-10.2893
 11
28.7227
 21
-10.2145
  0
LINE
  8
0
 10
28.7227
 20
-10.2145
 11
28.5547
 21
-10.1289
  0
LINE
  8
0
 10
28.5547
 20
-10.1289
 11
28.3925
 21
-10.033
  0
LINE
  8
0
 10
28.3925
 20
-10.033
 11
28.2366
 21
-9.92705
  0
LINE
  8
0
 10
28.2366
 20
-9.92705
 11
28.0877
 21
-9.81154
  0
LINE
  8
0
 10
28.0877
 20
-9.81154
 11
27.9464
 21
-9.6869
  0
LINE
  8
0
 10
27.9464
 20
-9.6869
 11
27.8131
 21
-9.55363
  0
LINE
  8
0
 10
27.8131
 20
-9.55363
 11
27.6884
 21
-9.41226
  0
LINE
  8
0
 10
27.6884
 20
-9.41226
 11
27.5729
 21
-9.26335
  0
LINE
  8
0
 10
27.5729
 20
-9.26335
 11
27.467
 21
-9.10747
  0
LINE
  8
0
 10
-0.18837
 20
-10.4941
 11
-0.375992
 21
-10.4763
  0
LINE
  8
0
 10
-0.375992
 20
-10.4763
 11
-0.562134
 21
-10.4469
  0
LINE
  8
0
 10
-0.562134
 20
-10.4469
 11
-0.746063
 21
-10.4057
  0
LINE
  8
0
 10
-0.746063
 20
-10.4057
 11
-0.927048
 21
-10.3532
  0
LINE
  8
0
 10
-0.927048
 20
-10.3532
 11
-1.10437
 21
-10.2893
  0
LINE
  8
0
 10
-1.10437
 20
-10.2893
 11
-1.27733
 21
-10.2145
  0
LINE
  8
0
 10
-1.27733
 20
-10.2145
 11
-1.44525
 21
-10.1289
  0
LINE
  8
0
 10
-1.44525
 20
-10.1289
 11
-1.60747
 21
-10.033
  0
LINE
  8
0
 10
-1.60747
 20
-10.033
 11
-1.76335
 21
-9.92705
  0
LINE
  8
0
 10
-1.76335
 20
-9.92705
 11
-1.91226
 21
-9.81154
  0
LINE
  8
0
 10
-1.91226
 20
-9.81154
 11
-2.05363
 21
-9.6869
  0
LINE
  8
0
 10
-2.05363
 20
-9.6869
 11
-2.1869
 21
-9.55363
  0
LINE
  8
0
 10
-2.1869
 20
-9.55363
 11
-2.31154
 21
-9.41226
  0
LINE
  8
0
 10
-2.31154
 20
-9.41226
 11
-2.42705
 21
-9.26335
  0
LINE
  8
0
 10
-2.42705
 20
-9.26335
 11
-2.53297
 21
-9.10747
  0
LINE
  8
0
 10
-2.53297
 20
-9.10747
 11
-2.62891
 21
-8.94525
  0
LINE
  8
0
 10
-2.62891
 20
-8.94525
 11
-2.71448
 21
-8.77733
  0
LINE
  8
0
 10
-2.71448
 20
-8.77733
 11
-2.78932
 21
-8.60437
  0
LINE
  8
0
 10
-2.78932
 20
-8.60437
 11
-2.85316
 21
-8.42705
  0
LINE
  8
0
 10
-2.85316
 20
-8.42705
 11
-2.90575
 21
-8.24606
  0
LINE
  8
0
 10
-2.90575
 20
-8.24606
 11
-2.94685
 21
-8.06213
  0
LINE
  8
0
 10
-2.94685
 20
-8.06213
 11
-2.97633
 21
-7.87599
  0
LINE
  8
0
 10
-2.97633
 20
-7.87599
 11
-2.99408
 21
-7.68837
  0
LINE
  8
0
 10
-2.99408
 20
-7.68837
 11
-3
 21
-7.5
  0
LINE
  8
0
 10
-3
 20
-7.5
 11
-2.99408
 21
-7.31161
  0
LINE
  8
0
 10
-2.99408
 20
-7.31161
 11
-2.97633
 21
-7.12399
  0
LINE
  8
0
 10
-2.97633
 20
-7.12399
 11
-2.94685
 21
-6.93785
  0
LINE
  8
0
 10
-2.94685
 20
-6.93785
 11
-2.90575
 21
-6.75392
  0
LINE
  8
0
 10
-2.90575
 20
-6.75392
 11
-2.85316
 21
-6.57294
  0
LINE
  8
0
 10
-2.85316
 20
-6.57294
 11
-2.78932
 21
-6.39561
  0
LINE
  8
0
 10
-2.78932
 20
-6.39561
 11
-2.71448
 21
-6.22266
  0
LINE
  8
0
 10
-2.71448
 20
-6.22266
 11
-2.62891
 21
-6.05473
  0
LINE
  8
0
 10
-2.62891
 20
-6.05473
 11
-2.53297
 21
-5.89252
  0
LINE
  8
0
 10
-2.53297
 20
-5.89252
 11
-2.42705
 21
-5.73663
  0
LINE
  8
0
 10
-2.42705
 20
-5.73663
 11
-2.31154
 21
-5.58772
  0
LINE
  8
0
 10
-2.31154
 20
-5.58772
 11
-2.1869
 21
-5.44635
  0
LINE
  8
0
 10
-2.1869
 20
-5.44635
 11
-2.05363
 21
-5.31308
  0
LINE
  8
0
 10
-2.05363
 20
-5.31308
 11
-1.91226
 21
-5.18845
  0
LINE
  8
0
 10
-1.91226
 20
-5.18845
 11
-1.76335
 21
-5.07294
  0
LINE
  8
0
 10
-1.76335
 20
-5.07294
 11
-1.60747
 21
-4.96701
  0
LINE
  8
0
 10
-1.60747
 20
-4.96701
 11
-1.44525
 21
-4.87108
  0
LINE
  8
0
 10
-1.44525
 20
-4.87108
 11
-1.27733
 21
-4.78551
  0
LINE
  8
0
 10
-1.27733
 20
-4.78551
 11
-1.10437
 21
-4.71066
  0
LINE
  8
0
 10
-1.10437
 20
-4.71066
 11
-0.927048
 21
-4.64682
  0
LINE
  8
0
 10
-0.927048
 20
-4.64682
 11
-0.746063
 21
-4.59424
  0
LINE
  8
0
 10
-0.746063
 20
-4.59424
 11
-0.562134
 21
-4.55313
  0
LINE
  8
0
 10
-0.562134
 20
-4.55313
 11
-0.375992
 21
-4.52365
  0
LINE
  8
0
 10
-0.375992
 20
-4.52365
 11
-0.18837
 21
-4.50591
  0
LINE
  8
0
 10
-0.18837
 20
-4.50591
 11
0
 21
-4.5
  0
LINE
  8
0
 10
0
 20
-4.5
 11
0.18837
 21
-4.50591
  0
LINE
  8
0
 10
0.18837
 20
-4.50591
 11
0.375992
 21
-4.52365
  0
LINE
  8
0
 10
0.375992
 20
-4.52365
 11
0.562134
 21
-4.55313
  0
LINE
  8
0
 10
0.562134
 20
-4.55313
 11
0.746063
 21
-4.59424
  0
LINE
  8
0
 10
0.746063
 20
-4.59424
 11
0.927048
 21
-4.64682
  0
LINE
  8
0
 10
0.927048
 20
-4.64682
 11
1.10437
 21
-4.71066
  0
LINE
  8
0
 10
1.10437
 20
-4.71066
 11
1.27733
 21
-4.78551
  0
LINE
  8
0
 10
1.27733
 20
-4.78551
 11
1.44525
 21
-4.87108
  0
LINE
  8
0
 10
1.44525
 20
-4.87108
 11
1.60747
 21
-4.96701
  0
LINE
  8
0
 10
1.60747
 20
-4.96701
 11
1.76335
 21
-5.07294
  0
LINE
  8
0
 10
1.76335
 20
-5.07294
 11
1.91226
 21
-5.18845
  0
LINE
  8
0
 10
1.91226
 20
-5.18845
 11
2.05363
 21
-5.31308
  0
LINE
  8
0
 10
2.05363
 20
-5.31308
 11
2.1869
 21
-5.44635
  0
LINE
  8
0
 10
2.1869
 20
-5.44635
 11
2.31154
 21
-5.58772
  0
LINE
  8
0
 10
2.31154
 20
-5.58772
 11
2.42705
 21
-5.73663
  0
LINE
  8
0
 10
2.42705
 20
-5.73663
 11
2.53297
 21
-5.89252
  0
LINE
  8
0
 10
2.53297
 20
-5.89252
 11
2.62891
 21
-6.05473
  0
LINE
  8
0
 10
2.62891
 20
-6.05473
 11
2.71448
 21
-6.22266
  0
LINE
  8
0
 10
2.71448
 20
-6.22266
 11
2.78932
 21
-6.39561
  0
LINE
  8
0
 10
2.78932
 20
-6.39561
 11
2.85316
 21
-6.57294
  0
LINE
  8
0
 10
2.85316
 20
-6.57294
 11
2.90575
 21
-6.75392
  0
LINE
  8
0
 10
2.90575
 20
-6.75392
 11
2.94685
 21
-6.93785
  0
LINE
  8
0
 10
2.94685
 20
-6.93785
 11
2.97633
 21
-7.12399
  0
LINE
  8
0
 10
2.97633
 20
-7.12399
 11
2.99408
 21
-7.31161
  0
LINE
  8
0
 10
2.99408
 20
-7.31161
 11
3
 21
-7.5
  0
LINE
  8
0
 10
3
 20
-7.5
 11
2.99408
 21
-7.68837
  0
LINE
  8
0
 10
2.99408
 20
-7.68837
 11
2.97633
 21
-7.87599
  0
LINE
  8
0
 10
2.97633
 20
-7.87599
 11
2.94685
 21
-8.06213
  0
LINE
  8
0
 10
2.94685
 20
-8.06213
 11
2.90575
 21
-8.24606
  0
LINE
  8
0
 10
2.90575
 20
-8.24606
 11
2.85316
 21
-8.42705
  0
LINE
  8
0
 10
2.85316
 20
-8.42705
 11
2.78932
 21
-8.60437
  0
LINE
  8
0
 10
2.78932
 20
-8.60437
 11
2.71448
 21
-8.77733
  0
LINE
  8
0
 10
2.71448
 20
-8.77733
 11
2.62891
 21
-8.94525
  0
LINE
  8
0
 10
2.62891
 20
-8.94525
 11
2.53297
 21
-9.10747
  0
LINE
  8
0
 10
2.53297
 20
-9.10747
 11
2.42705
 21
-9.26335
  0
LINE
  8
0
 10
2.42705
 20
-9.26335
 11
2.31154
 21
-9.41226
  0
LINE
  8
0
 10
2.31154
 20
-9.41226
 11
2.1869
 21
-9.55363
  0
LINE
  8
0
 10
2.1869
 20
-9.55363
 11
2.05363
 21
-9.6869
  0
LINE
  8
0
 10
2.05363
 20
-9.6869
 11
1.91226
 21
-9.81154
  0
LINE
  8
0
 10
1.91226
 20
-9.81154
 11
1.76335
 21
-9.92705
  0
LINE
  8
0
 10
1.76335
 20
-9.92705
 11
1.60747
 21
-10.033
  0
LINE
  8
0
 10
1.60747
 20
-10.033
 11
1.44525
 21
-10.1289
  0
LINE
  8
0
 10
1.44525
 20
-10.1289
 11
1.27733
 21
-10.2145
  0
LINE
  8
0
 10
1.27733
 20
-10.2145
 11
1.10437
 21
-10.2893
  0
LINE
  8
0
 10
1.10437
 20
-10.2893
 11
0.927048
 21
-10.3532
  0
LINE
  8
0
 10
0.927048
 20
-10.3532
 11
0.746063
 21
-10.4057
  0
LINE
  8
0
 10
0.746063
 20
-10.4057
 11
0.562134
 21
-10.4469
  0
LINE
  8
0
 10
0.562134
 20
-10.4469
 11
0.375992
 21
-10.4763
  0
LINE
  8
0
 10
0.375992
 20
-10.4763
 11
0.18837
 21
-10.4941
  0
LINE
  8
0
 10
0.18837
 20
-10.4941
 11
0
 21
-10.5
  0
LINE
  8
0
 10
0
 20
-10.5
 11
-0.18837
 21
-10.4941
  0
LINE
  8
0
 10
-30.1884
 20
-10.4941
 11
-30.376
 21
-10.4763
  0
LINE
  8
0
 10
-30.376
 20
-10.4763
 11
-30.5621
 21
-10.4469
  0
LINE
  8
0
 10
-30.5621
 20
-10.4469
 11
-30.7461
 21
-10.4057
  0
LINE
  8
0
 10
-30.7461
 20
-10.4057
 11
-30.927
 21
-10.3532
  0
LINE
  8
0
 10
-30.927
 20
-10.3532
 11
-31.1044
 21
-10.2893
  0
LINE
  8
0
 10
-31.1044
 20
-10.2893
 11
-31.2773
 21
-10.2145
  0
LINE
  8
0
 10
-31.2773
 20
-10.2145
 11
-31.4453
 21
-10.1289
  0
LINE
  8
0
 10
-31.4453
 20
-10.1289
 11
-31.6075
 21
-10.033
  0
LINE
  8
0
 10
-31.6075
 20
-10.033
 11
-31.7634
 21
-9.92705
  0
LINE
  8
0
 10
-31.7634
 20
-9.92705
 11
-31.9123
 21
-9.81154
  0
LINE
  8
0
 10
-31.9123
 20
-9.81154
 11
-32.0536
 21
-9.6869
  0
LINE
  8
0
 10
-32.0536
 20
-9.6869
 11
-32.1869
 21
-9.55363
  0
LINE
  8
0
 10
-32.1869
 20
-9.55363
 11
-32.3115
 21
-9.41226
  0
LINE
  8
0
 10
-32.3115
 20
-9.41226
 11
-32.427
 21
-9.26335
  0
LINE
  8
0
 10
-32.427
 20
-9.26335
 11
-32.533
 21
-9.10747
  0
LINE
  8
0
 10
-32.533
 20
-9.10747
 11
-32.6289
 21
-8.94525
  0
LINE
  8
0
 10
-32.6289
 20
-8.94525
 11
-32.7145
 21
-8.77733
  0
LINE
  8
0
 10
-32.7145
 20
-8.77733
 11
-32.7893
 21
-8.60437
  0
LINE
  8
0
 10
-32.7893
 20
-8.60437
 11
-32.8532
 21
-8.42705
  0
LINE
  8
0
 10
-32.8532
 20
-8.42705
 11
-32.9057
 21
-8.24606
  0
LINE
  8
0
 10
-32.9057
 20
-8.24606
 11
-32.9469
 21
-8.06213
  0
LINE
  8
0
 10
-32.9469
 20
-8.06213
 11
-32.9763
 21
-7.87599
  0
LINE
  8
0
 10
-32.9763
 20
-7.87599
 11
-32.9941
 21
-7.68837
  0
LINE
  8
0
 10
-32.9941
 20
-7.68837
 11
-33
 21
-7.5
  0
LINE
  8
0
 10
-33
 20
-7.5
 11
-32.9941
 21
-7.31161
  0
LINE
  8
0
 10
-32.9941
 20
-7.31161
 11
-32.9763
 21
-7.12399
  0
LINE
  8
0
 10
-32.9763
 20
-7.12399
 11
-32.9469
 21
-6.93785
  0
LINE
  8
0
 10
-32.9469
 20
-6.93785
 11
-32.9057
 21
-6.75392
  0
LINE
  8
0
 10
-32.9057
 20
-6.75392
 11
-32.8532
 21
-6.57294
  0
LINE
  8
0
 10
-32.8532
 20
-6.57294
 11
-32.7893
 21
-6.39561
  0
LINE
  8
0
 10
-32.7893
 20
-6.39561
 11
-32.7145
 21
-6.22266
  0
LINE
  8
0
 10
-32.7145
 20
-6.22266
 11
-32.6289
 21
-6.05473
  0
LINE
  8
0
 10
-32.6289
 20
-6.05473
 11
-32.533
 21
-5.89252
  0
LINE
  8
0
 10
-32.533
 20
-5.89252
 11
-32.427
 21
-5.73663
  0
LINE
  8
0
 10
-32.427
 20
-5.73663
 11
-32.3115
 21
-5.58772
  0
LINE
  8
0
 10
-32.3115
 20
-5.58772
 11
-32.1869
 21
-5.44635
  0
LINE
  8
0
 10
-32.1869
 20
-5.44635
 11
-32.0536
 21
-5.31308
  0
LINE
  8
0
 10
-32.0536
 20
-5.31308
 11
-31.9123
 21
-5.18845
  0
LINE
  8
0
 10
-31.9123
 20
-5.18845
 11
-31.7634
 21
-5.07294
  0
LINE
  8
0
 10
-31.7634
 20
-5.07294
 11
-31.6075
 21
-4.96701
  0
LINE
  8
0
 10
-31.6075
 20
-4.96701
 11
-31.4453
 21
-4.87108
  0
LINE
  8
0
 10
-31.4453
 20
-4.87108
 11
-31.2773
 21
-4.78551
  0
LINE
  8
0
 10
-31.2773
 20
-4.78551
 11
-31.1044
 21
-4.71066
  0
LINE
  8
0
 10
-31.1044
 20
-4.71066
 11
-30.927
 21
-4.64682
  0
LINE
  8
0
 10
-30.927
 20
-4.64682
 11
-30.7461
 21
-4.59424
  0
LINE
  8
0
 10
-30.7461
 20
-4.59424
 11
-30.5621
 21
-4.55313
  0
LINE
  8
0
 10
-30.5621
 20
-4.55313
 11
-30.376
 21
-4.52365
  0
LINE
  8
0
 10
-30.376
 20
-4.52365
 11
-30.1884
 21
-4.50591
  0
LINE
  8
0
 10
-30.1884
 20
-4.50591
 11
-30
 21
-4.5
  0
LINE
  8
0
 10
-30
 20
-4.5
 11
-29.8116
 21
-4.50591
  0
LINE
  8
0
 10
-29.8116
 20
-4.50591
 11
-29.624
 21
-4.52365
  0
LINE
  8
0
 10
-29.624
 20
-4.52365
 11
-29.4379
 21
-4.55313
  0
LINE
  8
0
 10
-29.4379
 20
-4.55313
 11
-29.2539
 21
-4.59424
  0
LINE
  8
0
 10
-29.2539
 20
-4.59424
 11
-29.0729
 21
-4.64682
  0
LINE
  8
0
 10
-29.0729
 20
-4.64682
 11
-28.8956
 21
-4.71066
  0
LINE
  8
0
 10
-28.8956
 20
-4.71066
 11
-28.7227
 21
-4.78551
  0
LINE
  8
0
 10
-28.7227
 20
-4.78551
 11
-28.5547
 21
-4.87108
  0
LINE
  8
0
 10
-28.5547
 20
-4.87108
 11
-28.3925
 21
-4.96701
  0
LINE
  8
0
 10
-28.3925
 20
-4.96701
 11
-28.2366
 21
-5.07294
  0
LINE
  8
0
 10
-28.2366
 20
-5.07294
 11
-28.0877
 21
-5.18845
  0
LINE
  8
0
 10
-28.0877
 20
-5.18845
 11
-27.9464
 21
-5.31308
  0
LINE
  8
0
 10
-27.9464
 20
-5.31308
 11
-27.8131
 21
-5.44635
  0
LINE
  8
0
 10
-27.8131
 20
-5.44635
 11
-27.6884
 21
-5.58772
  0
LINE
  8
0
 10
-27.6884
 20
-5.58772
 11
-27.5729
 21
-5.73663
  0
LINE
  8
0
 10
-27.5729
 20
-5.73663
 11
-27.467
 21
-5.89252
  0
LINE
  8
0
 10
-27.467
 20
-5.89252
 11
-27.3711
 21
-6.05473
  0
LINE
  8
0
 10
-27.3711
 20
-6.05473
 11
-27.2855
 21
-6.22266
  0
LINE
  8
0
 10
-27.2855
 20
-6.22266
 11
-27.2107
 21
-6.39561
  0
LINE
  8
0
 10
-27.2107
 20
-6.39561
 11
-27.1468
 21
-6.57294
  0
LINE
  8
0
 10
-27.1468
 20
-6.57294
 11
-27.0942
 21
-6.75392
  0
LINE
  8
0
 10
-27.0942
 20
-6.75392
 11
-27.0531
 21
-6.93785
  0
LINE
  8
0
 10
-27.0531
 20
-6.93785
 11
-27.0237
 21
-7.12399
  0
LINE
  8
0
 10
-27.0237
 20
-7.12399
 11
-27.0059
 21
-7.31161
  0
LINE
  8
0
 10
-27.0059
 20
-7.31161
 11
-27
 21
-7.5
  0
LINE
  8
0
 10
-27
 20
-7.5
 11
-27.0059
 21
-7.68837
  0
LINE
  8
0
 10
-27.0059
 20
-7.68837
 11
-27.0237
 21
-7.87599
  0
LINE
  8
0
 10
-27.0237
 20
-7.87599
 11
-27.0531
 21
-8.06213
  0
LINE
  8
0
 10
-27.0531
 20
-8.06213
 11
-27.0942
 21
-8.24606
  0
LINE
  8
0
 10
-27.0942
 20
-8.24606
 11
-27.1468
 21
-8.42705
  0
LINE
  8
0
 10
-27.1468
 20
-8.42705
 11
-27.2107
 21
-8.60437
  0
LINE
  8
0
 10
-27.2107
 20
-8.60437
 11
-27.2855
 21
-8.77733
  0
LINE
  8
0
 10
-27.2855
 20
-8.77733
 11
-27.3711
 21
-8.94525
  0
LINE
  8
0
 10
-27.3711
 20
-8.94525
 11
-27.467
 21
-9.10747
  0
LINE
  8
0
 10
-27.467
 20
-9.10747
 11
-27.5729
 21
-9.26335
  0
LINE
  8
0
 10
-27.5729
 20
-9.26335
 11
-27.6884
 21
-9.41226
  0
LINE
  8
0
 10
-27.6884
 20
-9.41226
 11
-27.8131
 21
-9.55363
  0
LINE
  8
0
 10
-27.8131
 20
-9.55363
 11
-27.9464
 21
-9.6869
  0
LINE
  8
0
 10
-27.9464
 20
-9.6869
 11
-28.0877
 21
-9.81154
  0
LINE
  8
0
 10
-28.0877
 20
-9.81154
 11
-28.2366
 21
-9.92705
  0
LINE
  8
0
 10
-28.2366
 20
-9.92705
 11
-28.3925
 21
-10.033
  0
LINE
  8
0
 10
-28.3925
 20
-10.033
 11
-28.5547
 21
-10.1289
  0
LINE
  8
0
 10
-28.5547
 20
-10.1289
 11
-28.7227
 21
-10.2145
  0
LINE
  8
0
 10
-28.7227
 20
-10.2145
 11
-28.8956
 21
-10.2893
  0
LINE
  8
0
 10
-28.8956
 20
-10.2893
 11
-29.0729
 21
-10.3532
  0
LINE
  8
0
 10
-29.0729
 20
-10.3532
 11
-29.2539
 21
-10.4057
  0
LINE
  8
0
 10
-29.2539
 20
-10.4057
 11
-29.4379
 21
-10.4469
  0
LINE
  8
0
 10
-29.4379
 20
-10.4469
 11
-29.624
 21
-10.4763
  0
LINE
  8
0
 10
-29.624
 20
-10.4763
 11
-29.8116
 21
-10.4941
  0
LINE
  8
0
 10
-29.8116
 20
-10.4941
 11
-30
 21
-10.5
  0
LINE
  8
0
 10
-30
 20
-10.5
 11
-30.1884
 21
-10.4941
  0
LINE
  8
0
 10
-15.1884
 20
-10.4941
 11
-15.376
 21
-10.4763
  0
LINE
  8
0
 10
-15.376
 20
-10.4763
 11
-15.5621
 21
-10.4469
  0
LINE
  8
0
 10
-15.5621
 20
-10.4469
 11
-15.7461
 21
-10.4057
  0
LINE
  8
0
 10
-15.7461
 20
-10.4057
 11
-15.927
 21
-10.3532
  0
LINE
  8
0
 10
-15.927
 20
-10.3532
 11
-16.1044
 21
-10.2893
  0
LINE
  8
0
 10
-16.1044
 20
-10.2893
 11
-16.2773
 21
-10.2145
  0
LINE
  8
0
 10
-16.2773
 20
-10.2145
 11
-16.4453
 21
-10.1289
  0
LINE
  8
0
 10
-16.4453
 20
-10.1289
 11
-16.6075
 21
-10.033
  0
LINE
  8
0
 10
-16.6075
 20
-10.033
 11
-16.7634
 21
-9.92705
  0
LINE
  8
0
 10
-16.7634
 20
-9.92705
 11
-16.9123
 21
-9.81154
  0
LINE
  8
0
 10
-16.9123
 20
-9.81154
 11
-17.0536
 21
-9.6869
  0
LINE
  8
0
 10
-17.0536
 20
-9.6869
 11
-17.1869
 21
-9.55363
  0
LINE
  8
0
 10
-17.1869
 20
-9.55363
 11
-17.3115
 21
-9.41226
  0
LINE
  8
0
 10
-17.3115
 20
-9.41226
 11
-17.427
 21
-9.26335
  0
LINE
  8
0
 10
-17.427
 20
-9.26335
 11
-17.533
 21
-9.10747
  0
LINE
  8
0
 10
-17.533
 20
-9.10747
 11
-17.6289
 21
-8.94525
  0
LINE
  8
0
 10
-17.6289
 20
-8.94525
 11
-17.7145
 21
-8.77733
  0
LINE
  8
0
 10
-17.7145
 20
-8.77733
 11
-17.7893
 21
-8.60437
  0
LINE
  8
0
 10
-17.7893
 20
-8.60437
 11
-17.8532
 21
-8.42705
  0
LINE
  8
0
 10
-17.8532
 20
-8.42705
 11
-17.9057
 21
-8.24606
  0
LINE
  8
0
 10
-17.9057
 20
-8.24606
 11
-17.9469
 21
-8.06213
  0
LINE
  8
0
 10
-17.9469
 20
-8.06213
 11
-17.9763
 21
-7.87599
  0
LINE
  8
0
 10
-17.9763
 20
-7.87599
 11
-17.9941
 21
-7.68837
  0
LINE
  8
0
 10
-17.9941
 20
-7.68837
 11
-18
 21
-7.5
  0
LINE
  8
0
 10
-18
 20
-7.5
 11
-17.9941
 21
-7.31161
  0
LINE
  8
0
 10
-17.9941
 20
-7.31161
 11
-17.9763
 21
-7.12399
  0
LINE
  8
0
 10
-17.9763
 20
-7.12399
 11
-17.9469
 21
-6.93785
  0
LINE
  8
0
 10
-17.9469
 20
-6.93785
 11
-17.9057
 21
-6.75392
  0
LINE
  8
0
 10
-17.9057
 20
-6.75392
 11
-17.8532
 21
-6.57294
  0
LINE
  8
0
 10
-17.8532
 20
-6.57294
 11
-17.7893
 21
-6.39561
  0
LINE
  8
0
 10
-17.7893
 20
-6.39561
 11
-17.7145
 21
-6.22266
  0
LINE
  8
0
 10
-17.7145
 20
-6.22266
 11
-17.6289
 21
-6.05473
  0
LINE
  8
0
 10
-17.6289
 20
-6.05473
 11
-17.533
 21
-5.89252
  0
LINE
  8
0
 10
-17.533
 20
-5.89252
 11
-17.427
 21
-5.73663
  0
LINE
  8
0
 10
-17.427
 20
-5.73663
 11
-17.3115
 21
-5.58772
  0
LINE
  8
0
 10
-17.3115
 20
-5.58772
 11
-17.1869
 21
-5.44635
  0
LINE
  8
0
 10
-17.1869
 20
-5.44635
 11
-17.0536
 21
-5.31308
  0
LINE
  8
0
 10
-17.0536
 20
-5.31308
 11
-16.9123
 21
-5.18845
  0
LINE
  8
0
 10
-16.9123
 20
-5.18845
 11
-16.7634
 21
-5.07294
  0
LINE
  8
0
 10
-16.7634
 20
-5.07294
 11
-16.6075
 21
-4.96701
  0
LINE
  8
0
 10
-16.6075
 20
-4.96701
 11
-16.4453
 21
-4.87108
  0
LINE
  8
0
 10
-16.4453
 20
-4.87108
 11
-16.2773
 21
-4.78551
  0
LINE
  8
0
 10
-16.2773
 20
-4.78551
 11
-16.1044
 21
-4.71066
  0
LINE
  8
0
 10
-16.1044
 20
-4.71066
 11
-15.927
 21
-4.64682
  0
LINE
  8
0
 10
-15.927
 20
-4.64682
 11
-15.7461
 21
-4.59424
  0
LINE
  8
0
 10
-15.7461
 20
-4.59424
 11
-15.5621
 21
-4.55313
  0
LINE
  8
0
 10
-15.5621
 20
-4.55313
 11
-15.376
 21
-4.52365
  0
LINE
  8
0
 10
-15.376
 20
-4.52365
 11
-15.1884
 21
-4.50591
  0
LINE
  8
0
 10
-15.1884
 20
-4.50591
 11
-15
 21
-4.5
  0
LINE
  8
0
 10
-15
 20
-4.5
 11
-14.8116
 21
-4.50591
  0
LINE
  8
0
 10
-14.8116
 20
-4.50591
 11
-14.624
 21
-4.52365
  0
LINE
  8
0
 10
-14.624
 20
-4.52365
 11
-14.4379
 21
-4.55313
  0
LINE
  8
0
 10
-14.4379
 20
-4.55313
 11
-14.2539
 21
-4.59424
  0
LINE
  8
0
 10
-14.2539
 20
-4.59424
 11
-14.0729
 21
-4.64682
  0
LINE
  8
0
 10
-14.0729
 20
-4.64682
 11
-13.8956
 21
-4.71066
  0
LINE
  8
0
 10
-13.8956
 20
-4.71066
 11
-13.7227
 21
-4.78551
  0
LINE
  8
0
 10
-13.7227
 20
-4.78551
 11
-13.5547
 21
-4.87108
  0
LINE
  8
0
 10
-13.5547
 20
-4.87108
 11
-13.3925
 21
-4.96701
  0
LINE
  8
0
 10
-13.3925
 20
-4.96701
 11
-13.2366
 21
-5.07294
  0
LINE
  8
0
 10
-13.2366
 20
-5.07294
 11
-13.0877
 21
-5.18845
  0
LINE
  8
0
 10
-13.0877
 20
-5.18845
 11
-12.9464
 21
-5.31308
  0
LINE
  8
0
 10
-12.9464
 20
-5.31308
 11
-12.8131
 21
-5.44635
  0
LINE
  8
0
 10
-12.8131
 20
-5.44635
 11
-12.6884
 21
-5.58772
  0
LINE
  8
0
 10
-12.6884
 20
-5.58772
 11
-12.5729
 21
-5.73663
  0
LINE
  8
0
 10
-12.5729
 20
-5.73663
 11
-12.467
 21
-5.89252
  0
LINE
  8
0
 10
-12.467
 20
-5.89252
 11
-12.3711
 21
-6.05473
  0
LINE
  8
0
 10
-12.3711
 20
-6.05473
 11
-12.2855
 21
-6.22266
  0
LINE
  8
0
 10
-12.2855
 20
-6.22266
 11
-12.2107
 21
-6.39561
  0
LINE
  8
0
 10
-12.2107
 20
-6.39561
 11
-12.1468
 21
-6.57294
  0
LINE
  8
0
 10
-12.1468
 20
-6.57294
 11
-12.0942
 21
-6.75392
  0
LINE
  8
0
 10
-12.0942
 20
-6.75392
 11
-12.0531
 21
-6.93785
  0
LINE
  8
0
 10
-12.0531
 20
-6.93785
 11
-12.0237
 21
-7.12399
  0
LINE
  8
0
 10
-12.0237
 20
-7.12399
 11
-12.0059
 21
-7.31161
  0
LINE
  8
0
 10
-12.0059
 20
-7.31161
 11
-12
 21
-7.5
  0
LINE
  8
0
 10
-12
 20
-7.5
 11
-12.0059
 21
-7.68837
  0
LINE
  8
0
 10
-12.0059
 20
-7.68837
 11
-12.0237
 21
-7.87599
  0
LINE
  8
0
 10
-12.0237
 20
-7.87599
 11
-12.0531
 21
-8.06213
  0
LINE
  8
0
 10
-12.0531
 20
-8.06213
 11
-12.0942
 21
-8.24606
  0
LINE
  8
0
 10
-12.0942
 20
-8.24606
 11
-12.1468
 21
-8.42705
  0
LINE
  8
0
 10
-12.1468
 20
-8.42705
 11
-12.2107
 21
-8.60437
  0
LINE
  8
0
 10
-12.2107
 20
-8.60437
 11
-12.2855
 21
-8.77733
  0
LINE
  8
0
 10
-12.2855
 20
-8.77733
 11
-12.3711
 21
-8.94525
  0
LINE
  8
0
 10
-12.3711
 20
-8.94525
 11
-12.467
 21
-9.10747
  0
LINE
  8
0
 10
-12.467
 20
-9.10747
 11
-12.5729
 21
-9.26335
  0
LINE
  8
0
 10
-12.5729
 20
-9.26335
 11
-12.6884
 21
-9.41226
  0
LINE
  8
0
 10
-12.6884
 20
-9.41226
 11
-12.8131
 21
-9.55363
  0
LINE
  8
0
 10
-12.8131
 20
-9.55363
 11
-12.9464
 21
-9.6869
  0
LINE
  8
0
 10
-12.9464
 20
-9.6869
 11
-13.0877
 21
-9.81154
  0
LINE
  8
0
 10
-13.0877
 20
-9.81154
 11
-13.2366
 21
-9.92705
  0
LINE
  8
0
 10
-13.2366
 20
-9.92705
 11
-13.3925
 21
-10.033
  0
LINE
  8
0
 10
-13.3925
 20
-10.033
 11
-13.5547
 21
-10.1289
  0
LINE
  8
0
 10
-13.5547
 20
-10.1289
 11
-13.7227
 21
-10.2145
  0
LINE
  8
0
 10
-13.7227
 20
-10.2145
 11
-13.8956
 21
-10.2893
  0
LINE
  8
0
 10
-13.8956
 20
-10.2893
 11
-14.0729
 21
-10.3532
  0
LINE
  8
0
 10
-14.0729
 20
-10.3532
 11
-14.2539
 21
-10.4057
  0
LINE
  8
0
 10
-14.2539
 20
-10.4057
 11
-14.4379
 21
-10.4469
  0
LINE
  8
0
 10
-14.4379
 20
-10.4469
 11
-14.624
 21
-10.4763
  0
LINE
  8
0
 10
-14.624
 20
-10.4763
 11
-14.8116
 21
-10.4941
  0
LINE
  8
0
 10
-14.8116
 20
-10.4941
 11
-15
 21
-10.5
  0
LINE
  8
0
 10
-15
 20
-10.5
 11
-15.1884
 21
-10.4941
  0
LINE
  8
0
 10
14.8116
 20
-25.4941
 11
14.624
 21
-25.4763
  0
LINE
  8
0
 10
14.624
 20
-25.4763
 11
14.4379
 21
-25.4469
  0
LINE
  8
0
 10
14.4379
 20
-25.4469
 11
14.2539
 21
-25.4057
  0
LINE
  8
0
 10
14.2539
 20
-25.4057
 11
14.0729
 21
-25.3532
  0
LINE
  8
0
 10
14.0729
 20
-25.3532
 11
13.8956
 21
-25.2893
  0
LINE
  8
0
 10
13.8956
 20
-25.2893
 11
13.7227
 21
-25.2145
  0
LINE
  8
0
 10
13.7227
 20
-25.2145
 11
13.5547
 21
-25.1289
  0
LINE
  8
0
 10
13.5547
 20
-25.1289
 11
13.3925
 21
-25.033
  0
LINE
  8
0
 10
13.3925
 20
-25.033
 11
13.2366
 21
-24.927
  0
LINE
  8
0
 10
13.2366
 20
-24.927
 11
13.0877
 21
-24.8115
  0
LINE
  8
0
 10
13.0877
 20
-24.8115
 11
12.9464
 21
-24.6869
  0
LINE
  8
0
 10
12.9464
 20
-24.6869
 11
12.8131
 21
-24.5536
  0
LINE
  8
0
 10
12.8131
 20
-24.5536
 11
12.6884
 21
-24.4123
  0
LINE
  8
0
 10
12.6884
 20
-24.4123
 11
12.5729
 21
-24.2634
  0
LINE
  8
0
 10
12.5729
 20
-24.2634
 11
12.467
 21
-24.1075
  0
LINE
  8
0
 10
12.467
 20
-24.1075
 11
12.3711
 21
-23.9453
  0
LINE
  8
0
 10
12.3711
 20
-23.9453
 11
12.2855
 21
-23.7773
  0
LINE
  8
0
 10
12.2855
 20
-23.7773
 11
12.2107
 21
-23.6044
  0
LINE
  8
0
 10
12.2107
 20
-23.6044
 11
12.1468
 21
-23.427
  0
LINE
  8
0
 10
12.1468
 20
-23.427
 11
12.0942
 21
-23.2461
  0
LINE
  8
0
 10
12.0942
 20
-23.2461
 11
12.0531
 21
-23.0621
  0
LINE
  8
0
 10
12.0531
 20
-23.0621
 11
12.0237
 21
-22.876
  0
LINE
  8
0
 10
12.0237
 20
-22.876
 11
12.0059
 21
-22.6884
  0
LINE
  8
0
 10
12.0059
 20
-22.6884
 11
12
 21
-22.5
  0
LINE
  8
0
 10
12
 20
-22.5
 11
12.0059
 21
-22.3116
  0
LINE
  8
0
 10
12.0059
 20
-22.3116
 11
12.0237
 21
-22.124
  0
LINE
  8
0
 10
12.0237
 20
-22.124
 11
12.0531
 21
-21.9379
  0
LINE
  8
0
 10
12.0531
 20
-21.9379
 11
12.0942
 21
-21.7539
  0
LINE
  8
0
 10
12.0942
 20
-21.7539
 11
12.1468
 21
-21.5729
  0
LINE
  8
0
 10
12.1468
 20
-21.5729
 11
12.2107
 21
-21.3956
  0
LINE
  8
0
 10
12.2107
 20
-21.3956
 11
12.2855
 21
-21.2227
  0
LINE
  8
0
 10
12.2855
 20
-21.2227
 11
12.3711
 21
-21.0547
  0
LINE
  8
0
 10
12.3711
 20
-21.0547
 11
12.467
 21
-20.8925
  0
LINE
  8
0
 10
12.467
 20
-20.8925
 11
12.5729
 21
-20.7366
  0
LINE
  8
0
 10
12.5729
 20
-20.7366
 11
12.6884
 21
-20.5877
  0
LINE
  8
0
 10
12.6884
 20
-20.5877
 11
12.8131
 21
-20.4464
  0
LINE
  8
0
 10
12.8131
 20
-20.4464
 11
12.9464
 21
-20.3131
  0
LINE
  8
0
 10
12.9464
 20
-20.3131
 11
13.0877
 21
-20.1884
  0
LINE
  8
0
 10
13.0877
 20
-20.1884
 11
13.2366
 21
-20.0729
  0
LINE
  8
0
 10
13.2366
 20
-20.0729
 11
13.3925
 21
-19.967
  0
LINE
  8
0
 10
13.3925
 20
-19.967
 11
13.5547
 21
-19.8711
  0
LINE
  8
0
 10
13.5547
 20
-19.8711
 11
13.7227
 21
-19.7855
  0
LINE
  8
0
 10
13.7227
 20
-19.7855
 11
13.8956
 21
-19.7107
  0
LINE
  8
0
 10
13.8956
 20
-19.7107
 11
14.0729
 21
-19.6468
  0
LINE
  8
0
 10
14.0729
 20
-19.6468
 11
14.2539
 21
-19.5942
  0
LINE
  8
0
 10
14.2539
 20
-19.5942
 11
14.4379
 21
-19.5531
  0
LINE
  8
0
 10
14.4379
 20
-19.5531
 11
14.624
 21
-19.5237
  0
LINE
  8
0
 10
14.624
 20
-19.5237
 11
14.8116
 21
-19.5059
  0
LINE
  8
0
 10
14.8116
 20
-19.5059
 11
15
 21
-19.5
  0
LINE
  8
0
 10
15
 20
-19.5
 11
15.1884
 21
-19.5059
  0
LINE
  8
0
 10
15.1884
 20
-19.5059
 11
15.376
 21
-19.5237
  0
LINE
  8
0
 10
15.376
 20
-19.5237
 11
15.5621
 21
-19.5531
  0
LINE
  8
0
 10
15.5621
 20
-19.5531
 11
15.7461
 21
-19.5942
  0
LINE
  8
0
 10
15.7461
 20
-19.5942
 11
15.927
 21
-19.6468
  0
LINE
  8
0
 10
15.927
 20
-19.6468
 11
16.1044
 21
-19.7107
  0
LINE
  8
0
 10
16.1044
 20
-19.7107
 11
16.2773
 21
-19.7855
  0
LINE
  8
0
 10
16.2773
 20
-19.7855
 11
16.4453
 21
-19.8711
  0
LINE
  8
0
 10
16.4453
 20
-19.8711
 11
16.6075
 21
-19.967
  0
LINE
  8
0
 10
16.6075
 20
-19.967
 11
16.7634
 21
-20.0729
  0
LINE
  8
0
 10
16.7634
 20
-20.0729
 11
16.9123
 21
-20.1884
  0
LINE
  8
0
 10
16.9123
 20
-20.1884
 11
17.0536
 21
-20.3131
  0
LINE
  8
0
 10
17.0536
 20
-20.3131
 11
17.1869
 21
-20.4464
  0
LINE
  8
0
 10
17.1869
 20
-20.4464
 11
17.3115
 21
-20.5877
  0
LINE
  8
0
 10
17.3115
 20
-20.5877
 11
17.427
 21
-20.7366
  0
LINE
  8
0
 10
17.427
 20
-20.7366
 11
17.533
 21
-20.8925
  0
LINE
  8
0
 10
17.533
 20
-20.8925
 11
17.6289
 21
-21.0547
  0
LINE
  8
0
 10
17.6289
 20
-21.0547
 11
17.7145
 21
-21.2227
  0
LINE
  8
0
 10
17.7145
 20
-21.2227
 11
17.7893
 21
-21.3956
  0
LINE
  8
0
 10
17.7893
 20
-21.3956
 11
17.8532
 21
-21.5729
  0
LINE
  8
0
 10
17.8532
 20
-21.5729
 11
17.9057
 21
-21.7539
  0
LINE
  8
0
 10
17.9057
 20
-21.7539
 11
17.9469
 21
-21.9379
  0
LINE
  8
0
 10
17.9469
 20
-21.9379
 11
17.9763
 21
-22.124
  0
LINE
  8
0
 10
17.9763
 20
-22.124
 11
17.9941
 21
-22.3116
  0
LINE
  8
0
 10
17.9941
 20
-22.3116
 11
18
 21
-22.5
  0
LINE
  8
0
 10
18
 20
-22.5
 11
17.9941
 21
-22.6884
  0
LINE
  8
0
 10
17.9941
 20
-22.6884
 11
17.9763
 21
-22.876
  0
LINE
  8
0
 10
17.9763
 20
-22.876
 11
17.9469
 21
-23.0621
  0
LINE
  8
0
 10
17.9469
 20
-23.0621
 11
17.9057
 21
-23.2461
  0
LINE
  8
0
 10
17.9057
 20
-23.2461
 11
17.8532
 21
-23.427
  0
LINE
  8
0
 10
17.8532
 20
-23.427
 11
17.7893
 21
-23.6044
  0
LINE
  8
0
 10
17.7893
 20
-23.6044
 11
17.7145
 21
-23.7773
  0
LINE
  8
0
 10
17.7145
 20
-23.7773
 11
17.6289
 21
-23.9453
  0
LINE
  8
0
 10
17.6289
 20
-23.9453
 11
17.533
 21
-24.1075
  0
LINE
  8
0
 10
17.533
 20
-24.1075
 11
17.427
 21
-24.2634
  0
LINE
  8
0
 10
17.427
 20
-24.2634
 11
17.3115
 21
-24.4123
  0
LINE
  8
0
 10
17.3115
 20
-24.4123
 11
17.1869
 21
-24.5536
  0
LINE
  8
0
 10
17.1869
 20
-24.5536
 11
17.0536
 21
-24.6869
  0
LINE
  8
0
 10
17.0536
 20
-24.6869
 11
16.9123
 21
-24.8115
  0
LINE
  8
0
 10
16.9123
 20
-24.8115
 11
16.7634
 21
-24.927
  0
LINE
  8
0
 10
16.7634
 20
-24.927
 11
16.6075
 21
-25.033
  0
LINE
  8
0
 10
16.6075
 20
-25.033
 11
16.4453
 21
-25.1289
  0
LINE
  8
0
 10
16.4453
 20
-25.1289
 11
16.2773
 21
-25.2145
  0
LINE
  8
0
 10
16.2773
 20
-25.2145
 11
16.1044
 21
-25.2893
  0
LINE
  8
0
 10
16.1044
 20
-25.2893
 11
15.927
 21
-25.3532
  0
LINE
  8
0
 10
15.927
 20
-25.3532
 11
15.7461
 21
-25.4057
  0
LINE
  8
0
 10
15.7461
 20
-25.4057
 11
15.5621
 21
-25.4469
  0
LINE
  8
0
 10
15.5621
 20
-25.4469
 11
15.376
 21
-25.4763
  0
LINE
  8
0
 10
15.376
 20
-25.4763
 11
15.1884
 21
-25.4941
  0
LINE
  8
0
 10
15.1884
 20
-25.4941
 11
15
 21
-25.5
  0
LINE
  8
0
 10
15
 20
-25.5
 11
14.8116
 21
-25.4941
  0
LINE
  8
0
 10
-30.1884
 20
-25.4941
 11
-30.376
 21
-25.4763
  0
LINE
  8
0
 10
-30.376
 20
-25.4763
 11
-30.5621
 21
-25.4469
  0
LINE
  8
0
 10
-30.5621
 20
-25.4469
 11
-30.7461
 21
-25.4057
  0
LINE
  8
0
 10
-30.7461
 20
-25.4057
 11
-30.927
 21
-25.3532
  0
LINE
  8
0
 10
-30.927
 20
-25.3532
 11
-31.1044
 21
-25.2893
  0
LINE
  8
0
 10
-31.1044
 20
-25.2893
 11
-31.2773
 21
-25.2145
  0
LINE
  8
0
 10
-31.2773
 20
-25.2145
 11
-31.4453
 21
-25.1289
  0
LINE
  8
0
 10
-31.4453
 20
-25.1289
 11
-31.6075
 21
-25.033
  0
LINE
  8
0
 10
-31.6075
 20
-25.033
 11
-31.7634
 21
-24.927
  0
LINE
  8
0
 10
-31.7634
 20
-24.927
 11
-31.9123
 21
-24.8115
  0
LINE
  8
0
 10
-31.9123
 20
-24.8115
 11
-32.0536
 21
-24.6869
  0
LINE
  8
0
 10
-32.0536
 20
-24.6869
 11
-32.1869
 21
-24.5536
  0
LINE
  8
0
 10
-32.1869
 20
-24.5536
 11
-32.3115
 21
-24.4123
  0
LINE
  8
0
 10
-32.3115
 20
-24.4123
 11
-32.427
 21
-24.2634
  0
LINE
  8
0
 10
-32.427
 20
-24.2634
 11
-32.533
 21
-24.1075
  0
LINE
  8
0
 10
-32.533
 20
-24.1075
 11
-32.6289
 21
-23.9453
  0
LINE
  8
0
 10
-32.6289
 20
-23.9453
 11
-32.7145
 21
-23.7773
  0
LINE
  8
0
 10
-32.7145
 20
-23.7773
 11
-32.7893
 21
-23.6044
  0
LINE
  8
0
 10
-32.7893
 20
-23.6044
 11
-32.8532
 21
-23.427
  0
LINE
  8
0
 10
-32.8532
 20
-23.427
 11
-32.9057
 21
-23.2461
  0
LINE
  8
0
 10
-32.9057
 20
-23.2461
 11
-32.9469
 21
-23.0621
  0
LINE
  8
0
 10
-32.9469
 20
-23.0621
 11
-32.9763
 21
-22.876
  0
LINE
  8
0
 10
-32.9763
 20
-22.876
 11
-32.9941
 21
-22.6884
  0
LINE
  8
0
 10
-32.9941
 20
-22.6884
 11
-33
 21
-22.5
  0
LINE
  8
0
 10
-33
 20
-22.5
 11
-32.9941
 21
-22.3116
  0
LINE
  8
0
 10
-32.9941
 20
-22.3116
 11
-32.9763
 21
-22.124
  0
LINE
  8
0
 10
-32.9763
 20
-22.124
 11
-32.9469
 21
-21.9379
  0
LINE
  8
0
 10
-32.9469
 20
-21.9379
 11
-32.9057
 21
-21.7539
  0
LINE
  8
0
 10
-32.9057
 20
-21.7539
 11
-32.8532
 21
-21.5729
  0
LINE
  8
0
 10
-32.8532
 20
-21.5729
 11
-32.7893
 21
-21.3956
  0
LINE
  8
0
 10
-32.7893
 20
-21.3956
 11
-32.7145
 21
-21.2227
  0
LINE
  8
0
 10
-32.7145
 20
-21.2227
 11
-32.6289
 21
-21.0547
  0
LINE
  8
0
 10
-32.6289
 20
-21.0547
 11
-32.533
 21
-20.8925
  0
LINE
  8
0
 10
-32.533
 20
-20.8925
 11
-32.427
 21
-20.7366
  0
LINE
  8
0
 10
-32.427
 20
-20.7366
 11
-32.3115
 21
-20.5877
  0
LINE
  8
0
 10
-32.3115
 20
-20.5877
 11
-32.1869
 21
-20.4464
  0
LINE
  8
0
 10
-32.1869
 20
-20.4464
 11
-32.0536
 21
-20.3131
  0
LINE
  8
0
 10
-32.0536
 20
-20.3131
 11
-31.9123
 21
-20.1884
  0
LINE
  8
0
 10
-31.9123
 20
-20.1884
 11
-31.7634
 21
-20.0729
  0
LINE
  8
0
 10
-31.7634
 20
-20.0729
 11
-31.6075
 21
-19.967
  0
LINE
  8
0
 10
-31.6075
 20
-19.967
 11
-31.4453
 21
-19.8711
  0
LINE
  8
0
 10
-31.4453
 20
-19.8711
 11
-31.2773
 21
-19.7855
  0
LINE
  8
0
 10
-31.2773
 20
-19.7855
 11
-31.1044
 21
-19.7107
  0
LINE
  8
0
 10
-31.1044
 20
-19.7107
 11
-30.927
 21
-19.6468
  0
LINE
  8
0
 10
-30.927
 20
-19.6468
 11
-30.7461
 21
-19.5942
  0
LINE
  8
0
 10
-30.7461
 20
-19.5942
 11
-30.5621
 21
-19.5531
  0
LINE
  8
0
 10
-30.5621
 20
-19.5531
 11
-30.376
 21
-19.5237
  0
LINE
  8
0
 10
-30.376
 20
-19.5237
 11
-30.1884
 21
-19.5059
  0
LINE
  8
0
 10
-30.1884
 20
-19.5059
 11
-30
 21
-19.5
  0
LINE
  8
0
 10
-30
 20
-19.5
 11
-29.8116
 21
-19.5059
  0
LINE
  8
0
 10
-29.8116
 20
-19.5059
 11
-29.624
 21
-19.5237
  0
LINE
  8
0
 10
-29.624
 20
-19.5237
 11
-29.4379
 21
-19.5531
  0
LINE
  8
0
 10
-29.4379
 20
-19.5531
 11
-29.2539
 21
-19.5942
  0
LINE
  8
0
 10
-29.2539
 20
-19.5942
 11
-29.0729
 21
-19.6468
  0
LINE
  8
0
 10
-29.0729
 20
-19.6468
 11
-28.8956
 21
-19.7107
  0
LINE
  8
0
 10
-28.8956
 20
-19.7107
 11
-28.7227
 21
-19.7855
  0
LINE
  8
0
 10
-28.7227
 20
-19.7855
 11
-28.5547
 21
-19.8711
  0
LINE
  8
0
 10
-28.5547
 20
-19.8711
 11
-28.3925
 21
-19.967
  0
LINE
  8
0
 10
-28.3925
 20
-19.967
 11
-28.2366
 21
-20.0729
  0
LINE
  8
0
 10
-28.2366
 20
-20.0729
 11
-28.0877
 21
-20.1884
  0
LINE
  8
0
 10
-28.0877
 20
-20.1884
 11
-27.9464
 21
-20.3131
  0
LINE
  8
0
 10
-27.9464
 20
-20.3131
 11
-27.8131
 21
-20.4464
  0
LINE
  8
0
 10
-27.8131
 20
-20.4464
 11
-27.6884
 21
-20.5877
  0
LINE
  8
0
 10
-27.6884
 20
-20.5877
 11
-27.5729
 21
-20.7366
  0
LINE
  8
0
 10
-27.5729
 20
-20.7366
 11
-27.467
 21
-20.8925
  0
LINE
  8
0
 10
-27.467
 20
-20.8925
 11
-27.3711
 21
-21.0547
  0
LINE
  8
0
 10
-27.3711
 20
-21.0547
 11
-27.2855
 21
-21.2227
  0
LINE
  8
0
 10
-27.2855
 20
-21.2227
 11
-27.2107
 21
-21.3956
  0
LINE
  8
0
 10
-27.2107
 20
-21.3956
 11
-27.1468
 21
-21.5729
  0
LINE
  8
0
 10
-27.1468
 20
-21.5729
 11
-27.0942
 21
-21.7539
  0
LINE
  8
0
 10
-27.0942
 20
-21.7539
 11
-27.0531
 21
-21.9379
  0
LINE
  8
0
 10
-27.0531
 20
-21.9379
 11
-27.0237
 21
-22.124
  0
LINE
  8
0
 10
-27.0237
 20
-22.124
 11
-27.0059
 21
-22.3116
  0
LINE
  8
0
 10
-27.0059
 20
-22.3116
 11
-27
 21
-22.5
  0
LINE
  8
0
 10
-27
 20
-22.5
 11
-27.0059
 21
-22.6884
  0
LINE
  8
0
 10
-27.0059
 20
-22.6884
 11
-27.0237
 21
-22.876
  0
LINE
  8
0
 10
-27.0237
 20
-22.876
 11
-27.0531
 21
-23.0621
  0
LINE
  8
0
 10
-27.0531
 20
-23.0621
 11
-27.0942
 21
-23.2461
  0
LINE
  8
0
 10
-27.0942
 20
-23.2461
 11
-27.1468
 21
-23.427
  0
LINE
  8
0
 10
-27.1468
 20
-23.427
 11
-27.2107
 21
-23.6044
  0
LINE
  8
0
 10
-27.2107
 20
-23.6044
 11
-27.2855
 21
-23.7773
  0
LINE
  8
0
 10
-27.2855
 20
-23.7773
 11
-27.3711
 21
-23.9453
  0
LINE
  8
0
 10
-27.3711
 20
-23.9453
 11
-27.467
 21
-24.1075
  0
LINE
  8
0
 10
-27.467
 20
-24.1075
 11
-27.5729
 21
-24.2634
  0
LINE
  8
0
 10
-27.5729
 20
-24.2634
 11
-27.6884
 21
-24.4123
  0
LINE
  8
0
 10
-27.6884
 20
-24.4123
 11
-27.8131
 21
-24.5536
  0
LINE
  8
0
 10
-27.8131
 20
-24.5536
 11
-27.9464
 21
-24.6869
  0
LINE
  8
0
 10
-27.9464
 20
-24.6869
 11
-28.0877
 21
-24.8115
  0
LINE
  8
0
 10
-28.0877
 20
-24.8115
 11
-28.2366
 21
-24.927
  0
LINE
  8
0
 10
-28.2366
 20
-24.927
 11
-28.3925
 21
-25.033
  0
LINE
  8
0
 10
-28.3925
 20
-25.033
 11
-28.5547
 21
-25.1289
  0
LINE
  8
0
 10
-28.5547
 20
-25.1289
 11
-28.7227
 21
-25.2145
  0
LINE
  8
0
 10
-28.7227
 20
-25.2145
 11
-28.8956
 21
-25.2893
  0
LINE
  8
0
 10
-28.8956
 20
-25.2893
 11
-29.0729
 21
-25.3532
  0
LINE
  8
0
 10
-29.0729
 20
-25.3532
 11
-29.2539
 21
-25.4057
  0
LINE
  8
0
 10
-29.2539
 20
-25.4057
 11
-29.4379
 21
-25.4469
  0
LINE
  8
0
 10
-29.4379
 20
-25.4469
 11
-29.624
 21
-25.4763
  0
LINE
  8
0
 10
-29.624
 20
-25.4763
 11
-29.8116
 21
-25.4941
  0
LINE
  8
0
 10
-29.8116
 20
-25.4941
 11
-30
 21
-25.5
  0
LINE
  8
0
 10
-30
 20
-25.5
 11
-30.1884
 21
-25.4941
  0
LINE
  8
0
 10
29.8116
 20
-25.4941
 11
29.624
 21
-25.4763
  0
LINE
  8
0
 10
29.624
 20
-25.4763
 11
29.4379
 21
-25.4469
  0
LINE
  8
0
 10
29.4379
 20
-25.4469
 11
29.2539
 21
-25.4057
  0
LINE
  8
0
 10
29.2539
 20
-25.4057
 11
29.0729
 21
-25.3532
  0
LINE
  8
0
 10
29.0729
 20
-25.3532
 11
28.8956
 21
-25.2893
  0
LINE
  8
0
 10
28.8956
 20
-25.2893
 11
28.7227
 21
-25.2145
  0
LINE
  8
0
 10
28.7227
 20
-25.2145
 11
28.5547
 21
-25.1289
  0
LINE
  8
0
 10
28.5547
 20
-25.1289
 11
28.3925
 21
-25.033
  0
LINE
  8
0
 10
28.3925
 20
-25.033
 11
28.2366
 21
-24.927
  0
LINE
  8
0
 10
28.2366
 20
-24.927
 11
28.0877
 21
-24.8115
  0
LINE
  8
0
 10
28.0877
 20
-24.8115
 11
27.9464
 21
-24.6869
  0
LINE
  8
0
 10
27.9464
 20
-24.6869
 11
27.8131
 21
-24.5536
  0
LINE
  8
0
 10
27.8131
 20
-24.5536
 11
27.6884
 21
-24.4123
  0
LINE
  8
0
 10
27.6884
 20
-24.4123
 11
27.5729
 21
-24.2634
  0
LINE
  8
0
 10
27.5729
 20
-24.2634
 11
27.467
 21
-24.1075
  0
LINE
  8
0
 10
27.467
 20
-24.1075
 11
27.3711
 21
-23.9453
  0
LINE
  8
0
 10
27.3711
 20
-23.9453
 11
27.2855
 21
-23.7773
  0
LINE
  8
0
 10
27.2855
 20
-23.7773
 11
27.2107
 21
-23.6044
  0
LINE
  8
0
 10
27.2107
 20
-23.6044
 11
27.1468
 21
-23.427
  0
LINE
  8
0
 10
27.1468
 20
-23.427
 11
27.0942
 21
-23.2461
  0
LINE
  8
0
 10
27.0942
 20
-23.2461
 11
27.0531
 21
-23.0621
  0
LINE
  8
0
 10
27.0531
 20
-23.0621
 11
27.0237
 21
-22.876
  0
LINE
  8
0
 10
27.0237
 20
-22.876
 11
27.0059
 21
-22.6884
  0
LINE
  8
0
 10
27.0059
 20
-22.6884
 11
27
 21
-22.5
  0
LINE
  8
0
 10
27
 20
-22.5
 11
27.0059
 21
-22.3116
  0
LINE
  8
0
 10
27.0059
 20
-22.3116
 11
27.0237
 21
-22.124
  0
LINE
  8
0
 10
27.0237
 20
-22.124
 11
27.0531
 21
-21.9379
  0
LINE
  8
0
 10
27.0531
 20
-21.9379
 11
27.0942
 21
-21.7539
  0
LINE
  8
0
 10
27.0942
 20
-21.7539
 11
27.1468
 21
-21.5729
  0
LINE
  8
0
 10
27.1468
 20
-21.5729
 11
27.2107
 21
-21.3956
  0
LINE
  8
0
 10
27.2107
 20
-21.3956
 11
27.2855
 21
-21.2227
  0
LINE
  8
0
 10
27.2855
 20
-21.2227
 11
27.3711
 21
-21.0547
  0
LINE
  8
0
 10
27.3711
 20
-21.0547
 11
27.467
 21
-20.8925
  0
LINE
  8
0
 10
27.467
 20
-20.8925
 11
27.5729
 21
-20.7366
  0
LINE
  8
0
 10
27.5729
 20
-20.7366
 11
27.6884
 21
-20.5877
  0
LINE
  8
0
 10
27.6884
 20
-20.5877
 11
27.8131
 21
-20.4464
  0
LINE
  8
0
 10
27.8131
 20
-20.4464
 11
27.9464
 21
-20.3131
  0
LINE
  8
0
 10
27.9464
 20
-20.3131
 11
28.0877
 21
-20.1884
  0
LINE
  8
0
 10
28.0877
 20
-20.1884
 11
28.2366
 21
-20.0729
  0
LINE
  8
0
 10
28.2366
 20
-20.0729
 11
28.3925
 21
-19.967
  0
LINE
  8
0
 10
28.3925
 20
-19.967
 11
28.5547
 21
-19.8711
  0
LINE
  8
0
 10
28.5547
 20
-19.8711
 11
28.7227
 21
-19.7855
  0
LINE
  8
0
 10
28.7227
 20
-19.7855
 11
28.8956
 21
-19.7107
  0
LINE
  8
0
 10
28.8956
 20
-19.7107
 11
29.0729
 21
-19.6468
  0
LINE
  8
0
 10
29.0729
 20
-19.6468
 11
29.2539
 21
-19.5942
  0
LINE
  8
0
 10
29.2539
 20
-19.5942
 11
29.4379
 21
-19.5531
  0
LINE
  8
0
 10
29.4379
 20
-19.5531
 11
29.624
 21
-19.5237
  0
LINE
  8
0
 10
29.624
 20
-19.5237
 11
29.8116
 21
-19.5059
  0
LINE
  8
0
 10
29.8116
 20
-19.5059
 11
30
 21
-19.5
  0
LINE
  8
0
 10
30
 20
-19.5
 11
30.1884
 21
-19.5059
  0
LINE
  8
0
 10
30.1884
 20
-19.5059
 11
30.376
 21
-19.5237
  0
LINE
  8
0
 10
30.376
 20
-19.5237
 11
30.5621
 21
-19.5531
  0
LINE
  8
0
 10
30.5621
 20
-19.5531
 11
30.7461
 21
-19.5942
  0
LINE
  8
0
 10
30.7461
 20
-19.5942
 11
30.927
 21
-19.6468
  0
LINE
  8
0
 10
30.927
 20
-19.6468
 11
31.1044
 21
-19.7107
  0
LINE
  8
0
 10
31.1044
 20
-19.7107
 11
31.2773
 21
-19.7855
  0
LINE
  8
0
 10
31.2773
 20
-19.7855
 11
31.4453
 21
-19.8711
  0
LINE
  8
0
 10
31.4453
 20
-19.8711
 11
31.6075
 21
-19.967
  0
LINE
  8
0
 10
31.6075
 20
-19.967
 11
31.7634
 21
-20.0729
  0
LINE
  8
0
 10
31.7634
 20
-20.0729
 11
31.9123
 21
-20.1884
  0
LINE
  8
0
 10
31.9123
 20
-20.1884
 11
32.0536
 21
-20.3131
  0
LINE
  8
0
 10
32.0536
 20
-20.3131
 11
32.1869
 21
-20.4464
  0
LINE
  8
0
 10
32.1869
 20
-20.4464
 11
32.3115
 21
-20.5877
  0
LINE
  8
0
 10
32.3115
 20
-20.5877
 11
32.427
 21
-20.7366
  0
LINE
  8
0
 10
32.427
 20
-20.7366
 11
32.533
 21
-20.8925
  0
LINE
  8
0
 10
32.533
 20
-20.8925
 11
32.6289
 21
-21.0547
  0
LINE
  8
0
 10
32.6289
 20
-21.0547
 11
32.7145
 21
-21.2227
  0
LINE
  8
0
 10
32.7145
 20
-21.2227
 11
32.7893
 21
-21.3956
  0
LINE
  8
0
 10
32.7893
 20
-21.3956
 11
32.8532
 21
-21.5729
  0
LINE
  8
0
 10
32.8532
 20
-21.5729
 11
32.9057
 21
-21.7539
  0
LINE
  8
0
 10
32.9057
 20
-21.7539
 11
32.9469
 21
-21.9379
  0
LINE
  8
0
 10
32.9469
 20
-21.9379
 11
32.9763
 21
-22.124
  0
LINE
  8
0
 10
32.9763
 20
-22.124
 11
32.9941
 21
-22.3116
  0
LINE
  8
0
 10
32.9941
 20
-22.3116
 11
33
 21
-22.5
  0
LINE
  8
0
 10
33
 20
-22.5
 11
32.9941
 21
-22.6884
  0
LINE
  8
0
 10
32.9941
 20
-22.6884
 11
32.9763
 21
-22.876
  0
LINE
  8
0
 10
32.9763
 20
-22.876
 11
32.9469
 21
-23.0621
  0
LINE
  8
0
 10
32.9469
 20
-23.0621
 11
32.9057
 21
-23.2461
  0
LINE
  8
0
 10
32.9057
 20
-23.2461
 11
32.8532
 21
-23.427
  0
LINE
  8
0
 10
32.8532
 20
-23.427
 11
32.7893
 21
-23.6044
  0
LINE
  8
0
 10
32.7893
 20
-23.6044
 11
32.7145
 21
-23.7773
  0
LINE
  8
0
 10
32.7145
 20
-23.7773
 11
32.6289
 21
-23.9453
  0
LINE
  8
0
 10
32.6289
 20
-23.9453
 11
32.533
 21
-24.1075
  0
LINE
  8
0
 10
32.533
 20
-24.1075
 11
32.427
 21
-24.2634
  0
LINE
  8
0
 10
32.427
 20
-24.2634
 11
32.3115
 21
-24.4123
  0
LINE
  8
0
 10
32.3115
 20
-24.4123
 11
32.1869
 21
-24.5536
  0
LINE
  8
0
 10
32.1869
 20
-24.5536
 11
32.0536
 21
-24.6869
  0
LINE
  8
0
 10
32.0536
 20
-24.6869
 11
31.9123
 21
-24.8115
  0
LINE
  8
0
 10
31.9123
 20
-24.8115
 11
31.7634
 21
-24.927
  0
LINE
  8
0
 10
31.7634
 20
-24.927
 11
31.6075
 21
-25.033
  0
LINE
  8
0
 10
31.6075
 20
-25.033
 11
31.4453
 21
-25.1289
  0
LINE
  8
0
 10
31.4453
 20
-25.1289
 11
31.2773
 21
-25.2145
  0
LINE
  8
0
 10
31.2773
 20
-25.2145
 11
31.1044
 21
-25.2893
  0
LINE
  8
0
 10
31.1044
 20
-25.2893
 11
30.927
 21
-25.3532
  0
LINE
  8
0
 10
30.927
 20
-25.3532
 11
30.7461
 21
-25.4057
  0
LINE
  8
0
 10
30.7461
 20
-25.4057
 11
30.5621
 21
-25.4469
  0
LINE
  8
0
 10
30.5621
 20
-25.4469
 11
30.376
 21
-25.4763
  0
LINE
  8
0
 10
30.376
 20
-25.4763
 11
30.1884
 21
-25.4941
  0
LINE
  8
0
 10
30.1884
 20
-25.4941
 11
30
 21
-25.5
  0
LINE
  8
0
 10
30
 20
-25.5
 11
29.8116
 21
-25.4941
  0
LINE
  8
0
 10
-1.91226
 20
-20.1884
 11
-1.76335
 21
-20.0729
  0
LINE
  8
0
 10
-1.76335
 20
-20.0729
 11
-1.60747
 21
-19.967
  0
LINE
  8
0
 10
-1.60747
 20
-19.967
 11
-1.44525
 21
-19.8711
  0
LINE
  8
0
 10
-1.44525
 20
-19.8711
 11
-1.27733
 21
-19.7855
  0
LINE
  8
0
 10
-1.27733
 20
-19.7855
 11
-1.10437
 21
-19.7107
  0
LINE
  8
0
 10
-1.10437
 20
-19.7107
 11
-0.927048
 21
-19.6468
  0
LINE
  8
0
 10
-0.927048
 20
-19.6468
 11
-0.746063
 21
-19.5942
  0
LINE
  8
0
 10
-0.746063
 20
-19.5942
 11
-0.562134
 21
-19.5531
  0
LINE
  8
0
 10
-0.562134
 20
-19.5531
 11
-0.375992
 21
-19.5237
  0
LINE
  8
0
 10
-0.375992
 20
-19.5237
 11
-0.18837
 21
-19.5059
  0
LINE
  8
0
 10
-0.18837
 20
-19.5059
 11
0
 21
-19.5
  0
LINE
  8
0
 10
0
 20
-19.5
 11
0.18837
 21
-19.5059
  0
LINE
  8
0
 10
0.18837
 20
-19.5059
 11
0.375992
 21
-19.5237
  0
LINE
  8
0
 10
0.375992
 20
-19.5237
 11
0.562134
 21
-19.5531
  0
LINE
  8
0
 10
0.562134
 20
-19.5531
 11
0.746063
 21
-19.5942
  0
LINE
  8
0
 10
0.746063
 20
-19.5942
 11
0.927048
 21
-19.6468
  0
LINE
  8
0
 10
0.927048
 20
-19.6468
 11
1.10437
 21
-19.7107
  0
LINE
  8
0
 10
1.10437
 20
-19.7107
 11
1.27733
 21
-19.7855
  0
LINE
  8
0
 10
1.27733
 20
-19.7855
 11
1.44525
 21
-19.8711
  0
LINE
  8
0
 10
1.44525
 20
-19.8711
 11
1.60747
 21
-19.967
  0
LINE
  8
0
 10
1.60747
 20
-19.967
 11
1.76335
 21
-20.0729
  0
LINE
  8
0
 10
1.76335
 20
-20.0729
 11
1.91226
 21
-20.1884
  0
LINE
  8
0
 10
1.91226
 20
-20.1884
 11
2.05363
 21
-20.3131
  0
LINE
  8
0
 10
2.05363
 20
-20.3131
 11
2.1869
 21
-20.4464
  0
LINE
  8
0
 10
2.1869
 20
-20.4464
 11
2.31154
 21
-20.5877
  0
LINE
  8
0
 10
2.31154
 20
-20.5877
 11
2.42705
 21
-20.7366
  0
LINE
  8
0
 10
2.42705
 20
-20.7366
 11
2.53297
 21
-20.8925
  0
LINE
  8
0
 10
2.53297
 20
-20.8925
 11
2.62891
 21
-21.0547
  0
LINE
  8
0
 10
2.62891
 20
-21.0547
 11
2.71448
 21
-21.2227
  0
LINE
  8
0
 10
2.71448
 20
-21.2227
 11
2.78932
 21
-21.3956
  0
LINE
  8
0
 10
2.78932
 20
-21.3956
 11
2.85316
 21
-21.5729
  0
LINE
  8
0
 10
2.85316
 20
-21.5729
 11
2.90575
 21
-21.7539
  0
LINE
  8
0
 10
2.90575
 20
-21.7539
 11
2.94685
 21
-21.9379
  0
LINE
  8
0
 10
2.94685
 20
-21.9379
 11
2.97633
 21
-22.124
  0
LINE
  8
0
 10
2.97633
 20
-22.124
 11
2.99408
 21
-22.3116
  0
LINE
  8
0
 10
2.99408
 20
-22.3116
 11
3
 21
-22.5
  0
LINE
  8
0
 10
3
 20
-22.5
 11
2.99408
 21
-22.6884
  0
LINE
  8
0
 10
2.99408
 20
-22.6884
 11
2.97633
 21
-22.876
  0
LINE
  8
0
 10
2.97633
 20
-22.876
 11
2.94685
 21
-23.0621
  0
LINE
  8
0
 10
2.94685
 20
-23.0621
 11
2.90575
 21
-23.2461
  0
LINE
  8
0
 10
2.90575
 20
-23.2461
 11
2.85316
 21
-23.427
  0
LINE
  8
0
 10
2.85316
 20
-23.427
 11
2.78932
 21
-23.6044
  0
LINE
  8
0
 10
2.78932
 20
-23.6044
 11
2.71448
 21
-23.7773
  0
LINE
  8
0
 10
2.71448
 20
-23.7773
 11
2.62891
 21
-23.9453
  0
LINE
  8
0
 10
2.62891
 20
-23.9453
 11
2.53297
 21
-24.1075
  0
LINE
  8
0
 10
2.53297
 20
-24.1075
 11
2.42705
 21
-24.2634
  0
LINE
  8
0
 10
2.42705
 20
-24.2634
 11
2.31154
 21
-24.4123
  0
LINE
  8
0
 10
2.31154
 20
-24.4123
 11
2.1869
 21
-24.5536
  0
LINE
  8
0
 10
2.1869
 20
-24.5536
 11
2.05363
 21
-24.6869
  0
LINE
  8
0
 10
2.05363
 20
-24.6869
 11
1.91226
 21
-24.8115
  0
LINE
  8
0
 10
1.91226
 20
-24.8115
 11
1.76335
 21
-24.927
  0
LINE
  8
0
 10
1.76335
 20
-24.927
 11
1.60747
 21
-25.033
  0
LINE
  8
0
 10
1.60747
 20
-25.033
 11
1.44525
 21
-25.1289
  0
LINE
  8
0
 10
1.44525
 20
-25.1289
 11
1.27733
 21
-25.2145
  0
LINE
  8
0
 10
1.27733
 20
-25.2145
 11
1.10437
 21
-25.2893
  0
LINE
  8
0
 10
1.10437
 20
-25.2893
 11
0.927048
 21
-25.3532
  0
LINE
  8
0
 10
0.927048
 20
-25.3532
 11
0.746063
 21
-25.4057
  0
LINE
  8
0
 10
0.746063
 20
-25.4057
 11
0.562134
 21
-25.4469
  0
LINE
  8
0
 10
0.562134
 20
-25.4469
 11
0.375992
 21
-25.4763
  0
LINE
  8
0
 10
0.375992
 20
-25.4763
 11
0.18837
 21
-25.4941
  0
LINE
  8
0
 10
0.18837
 20
-25.4941
 11
0
 21
-25.5
  0
LINE
  8
0
 10
0
 20
-25.5
 11
-0.18837
 21
-25.4941
  0
LINE
  8
0
 10
-0.18837
 20
-25.4941
 11
-0.375992
 21
-25.4763
  0
LINE
  8
0
 10
-0.375992
 20
-25.4763
 11
-0.562134
 21
-25.4469
  0
LINE
  8
0
 10
-0.562134
 20
-25.4469
 11
-0.746063
 21
-25.4057
  0
LINE
  8
0
 10
-0.746063
 20
-25.4057
 11
-0.927048
 21
-25.3532
  0
LINE
  8
0
 10
-0.927048
 20
-25.3532
 11
-1.10437
 21
-25.2893
  0
LINE
  8
0
 10
-1.10437
 20
-25.2893
 11
-1.27733
 21
-25.2145
  0
LINE
  8
0
 10
-1.27733
 20
-25.2145
 11
-1.44525
 21
-25.1289
  0
LINE
  8
0
 10
-1.44525
 20
-25.1289
 11
-1.60747
 21
-25.033
  0
LINE
  8
0
 10
-1.60747
 20
-25.033
 11
-1.76335
 21
-24.927
  0
LINE
  8
0
 10
-1.76335
 20
-24.927
 11
-1.91226
 21
-24.8115
  0
LINE
  8
0
 10
-1.91226
 20
-24.8115
 11
-2.05363
 21
-24.6869
  0
LINE
  8
0
 10
-2.05363
 20
-24.6869
 11
-2.1869
 21
-24.5536
  0
LINE
  8
0
 10
-2.1869
 20
-24.5536
 11
-2.31154
 21
-24.4123
  0
LINE
  8
0
 10
-2.31154
 20
-24.4123
 11
-2.42705
 21
-24.2634
  0
LINE
  8
0
 10
-2.42705
 20
-24.2634
 11
-2.53297
 21
-24.1075
  0
LINE
  8
0
 10
-2.53297
 20
-24.1075
 11
-2.62891
 21
-23.9453
  0
LINE
  8
0
 10
-2.62891
 20
-23.9453
 11
-2.71448
 21
-23.7773
  0
LINE
  8
0
 10
-2.71448
 20
-23.7773
 11
-2.78932
 21
-23.6044
  0
LINE
  8
0
 10
-2.78932
 20
-23.6044
 11
-2.85316
 21
-23.427
  0
LINE
  8
0
 10
-2.85316
 20
-23.427
 11
-2.90575
 21
-23.2461
  0
LINE
  8
0
 10
-2.90575
 20
-23.2461
 11
-2.94685
 21
-23.0621
  0
LINE
  8
0
 10
-2.94685
 20
-23.0621
 11
-2.97633
 21
-22.876
  0
LINE
  8
0
 10
-2.97633
 20
-22.876
 11
-2.99408
 21
-22.6884
  0
LINE
  8
0
 10
-2.99408
 20
-22.6884
 11
-3
 21
-22.5
  0
LINE
  8
0
 10
-3
 20
-22.5
 11
-2.99408
 21
-22.3116
  0
LINE
  8
0
 10
-2.99408
 20
-22.3116
 11
-2.97633
 21
-22.124
  0
LINE
  8
0
 10
-2.97633
 20
-22.124
 11
-2.94685
 21
-21.9379
  0
LINE
  8
0
 10
-2.94685
 20
-21.9379
 11
-2.90575
 21
-21.7539
  0
LINE
  8
0
 10
-2.90575
 20
-21.7539
 11
-2.85316
 21
-21.5729
  0
LINE
  8
0
 10
-2.85316
 20
-21.5729
 11
-2.78932
 21
-21.3956
  0
LINE
  8
0
 10
-2.78932
 20
-21.3956
 11
-2.71448
 21
-21.2227
  0
LINE
  8
0
 10
-2.71448
 20
-21.2227
 11
-2.62891
 21
-21.0547
  0
LINE
  8
0
 10
-2.62891
 20
-21.0547
 11
-2.53297
 21
-20.8925
  0
LINE
  8
0
 10
-2.53297
 20
-20.8925
 11
-2.42705
 21
-20.7366
  0
LINE
  8
0
 10
-2.42705
 20
-20.7366
 11
-2.31154
 21
-20.5877
  0
LINE
  8
0
 10
-2.31154
 20
-20.5877
 11
-2.1869
 21
-20.4464
  0
LINE
  8
0
 10
-2.1869
 20
-20.4464
 11
-2.05363
 21
-20.3131
  0
LINE
  8
0
 10
-2.05363
 20
-20.3131
 11
-1.91226
 21
-20.1884
  0
LINE
  8
0
 10
-13.0877
 20
5.18845
 11
-13.2366
 21
5.07294
  0
LINE
  8
0
 10
-13.2366
 20
5.07294
 11
-13.3925
 21
4.96701
  0
LINE
  8
0
 10
-13.3925
 20
4.96701
 11
-13.5547
 21
4.87108
  0
LINE
  8
0
 10
-13.5547
 20
4.87108
 11
-13.7227
 21
4.78551
  0
LINE
  8
0
 10
-13.7227
 20
4.78551
 11
-13.8956
 21
4.71066
  0
LINE
  8
0
 10
-13.8956
 20
4.71066
 11
-14.0729
 21
4.64682
  0
LINE
  8
0
 10
-14.0729
 20
4.64682
 11
-14.2539
 21
4.59424
  0
LINE
  8
0
 10
-14.2539
 20
4.59424
 11
-14.4379
 21
4.55313
  0
LINE
  8
0
 10
-14.4379
 20
4.55313
 11
-14.624
 21
4.52365
  0
LINE
  8
0
 10
-14.624
 20
4.52365
 11
-14.8116
 21
4.50591
  0
LINE
  8
0
 10
-14.8116
 20
4.50591
 11
-15
 21
4.5
  0
LINE
  8
0
 10
-15
 20
4.5
 11
-15.1884
 21
4.50591
  0
LINE
  8
0
 10
-15.1884
 20
4.50591
 11
-15.376
 21
4.52365
  0
LINE
  8
0
 10
-15.376
 20
4.52365
 11
-15.5621
 21
4.55313
  0
LINE
  8
0
 10
-15.5621
 20
4.55313
 11
-15.7461
 21
4.59424
  0
LINE
  8
0
 10
-15.7461
 20
4.59424
 11
-15.927
 21
4.64682
  0
LINE
  8
0
 10
-15.927
 20
4.64682
 11
-16.1044
 21
4.71066
  0
LINE
  8
0
 10
-16.1044
 20
4.71066
 11
-16.2773
 21
4.78551
  0
LINE
  8
0
 10
-16.2773
 20
4.78551
 11
-16.4453
 21
4.87108
  0
LINE
  8
0
 10
-16.4453
 20
4.87108
 11
-16.6075
 21
4.96701
  0
LINE
  8
0
 10
-16.6075
 20
4.96701
 11
-16.7634
 21
5.07294
  0
LINE
  8
0
 10
-16.7634
 20
5.07294
 11
-16.9123
 21
5.18845
  0
LINE
  8
0
 10
-16.9123
 20
5.18845
 11
-17.0536
 21
5.31308
  0
LINE
  8
0
 10
-17.0536
 20
5.31308
 11
-17.1869
 21
5.44635
  0
LINE
  8
0
 10
-17.1869
 20
5.44635
 11
-17.3115
 21
5.58772
  0
LINE
  8
0
 10
-17.3115
 20
5.58772
 11
-17.427
 21
5.73663
  0
LINE
  8
0
 10
-17.427
 20
5.73663
 11
-17.533
 21
5.89252
  0
LINE
  8
0
 10
-17.533
 20
5.89252
 11
-17.6289
 21
6.05473
  0
LINE
  8
0
 10
-17.6289
 20
6.05473
 11
-17.7145
 21
6.22266
  0
LINE
  8
0
 10
-17.7145
 20
6.22266
 11
-17.7893
 21
6.39561
  0
LINE
  8
0
 10
-17.7893
 20
6.39561
 11
-17.8532
 21
6.57294
  0
LINE
  8
0
 10
-17.8532
 20
6.57294
 11
-17.9057
 21
6.75392
  0
LINE
  8
0
 10
-17.9057
 20
6.75392
 11
-17.9469
 21
6.93785
  0
LINE
  8
0
 10
-17.9469
 20
6.93785
 11
-17.9763
 21
7.12399
  0
LINE
  8
0
 10
-17.9763
 20
7.12399
 11
-17.9941
 21
7.31161
  0
LINE
  8
0
 10
-17.9941
 20
7.31161
 11
-18
 21
7.5
  0
LINE
  8
0
 10
-18
 20
7.5
 11
-17.9941
 21
7.68837
  0
LINE
  8
0
 10
-17.9941
 20
7.68837
 11
-17.9763
 21
7.87599
  0
LINE
  8
0
 10
-17.9763
 20
7.87599
 11
-17.9469
 21
8.06213
  0
LINE
  8
0
 10
-17.9469
 20
8.06213
 11
-17.9057
 21
8.24606
  0
LINE
  8
0
 10
-17.9057
 20
8.24606
 11
-17.8532
 21
8.42705
  0
LINE
  8
0
 10
-17.8532
 20
8.42705
 11
-17.7893
 21
8.60437
  0
LINE
  8
0
 10
-17.7893
 20
8.60437
 11
-17.7145
 21
8.77733
  0
LINE
  8
0
 10
-17.7145
 20
8.77733
 11
-17.6289
 21
8.94525
  0
LINE
  8
0
 10
-17.6289
 20
8.94525
 11
-17.533
 21
9.10747
  0
LINE
  8
0
 10
-17.533
 20
9.10747
 11
-17.427
 21
9.26335
  0
LINE
  8
0
 10
-17.427
 20
9.26335
 11
-17.3115
 21
9.41226
  0
LINE
  8
0
 10
-17.3115
 20
9.41226
 11
-17.1869
 21
9.55363
  0
LINE
  8
0
 10
-17.1869
 20
9.55363
 11
-17.0536
 21
9.6869
  0
LINE
  8
0
 10
-17.0536
 20
9.6869
 11
-16.9123
 21
9.81154
  0
LINE
  8
0
 10
-16.9123
 20
9.81154
 11
-16.7634
 21
9.92705
  0
LINE
  8
0
 10
-16.7634
 20
9.92705
 11
-16.6075
 21
10.033
  0
LINE
  8
0
 10
-16.6075
 20
10.033
 11
-16.4453
 21
10.1289
  0
LINE
  8
0
 10
-16.4453
 20
10.1289
 11
-16.2773
 21
10.2145
  0
LINE
  8
0
 10
-16.2773
 20
10.2145
 11
-16.1044
 21
10.2893
  0
LINE
  8
0
 10
-16.1044
 20
10.2893
 11
-15.927
 21
10.3532
  0
LINE
  8
0
 10
-15.927
 20
10.3532
 11
-15.7461
 21
10.4057
  0
LINE
  8
0
 10
-15.7461
 20
10.4057
 11
-15.5621
 21
10.4469
  0
LINE
  8
0
 10
-15.5621
 20
10.4469
 11
-15.376
 21
10.4763
  0
LINE
  8
0
 10
-15.376
 20
10.4763
 11
-15.1884
 21
10.4941
  0
LINE
  8
0
 10
-15.1884
 20
10.4941
 11
-15
 21
10.5
  0
LINE
  8
0
 10
-15
 20
10.5
 11
-14.8116
 21
10.4941
  0
LINE
  8
0
 10
-14.8116
 20
10.4941
 11
-14.624
 21
10.4763
  0
LINE
  8
0
 10
-14.624
 20
10.4763
 11
-14.4379
 21
10.4469
  0
LINE
  8
0
 10
-14.4379
 20
10.4469
 11
-14.2539
 21
10.4057
  0
LINE
  8
0
 10
-14.2539
 20
10.4057
 11
-14.0729
 21
10.3532
  0
LINE
  8
0
 10
-14.0729
 20
10.3532
 11
-13.8956
 21
10.2893
  0
LINE
  8
0
 10
-13.8956
 20
10.2893
 11
-13.7227
 21
10.2145
  0
LINE
  8
0
 10
-13.7227
 20
10.2145
 11
-13.5547
 21
10.1289
  0
LINE
  8
0
 10
-13.5547
 20
10.1289
 11
-13.3925
 21
10.033
  0
LINE
  8
0
 10
-13.3925
 20
10.033
 11
-13.2366
 21
9.92705
  0
LINE
  8
0
 10
-13.2366
 20
9.92705
 11
-13.0877
 21
9.81154
  0
LINE
  8
0
 10
-13.0877
 20
9.81154
 11
-12.9464
 21
9.6869
  0
LINE
  8
0
 10
-12.9464
 20
9.6869
 11
-12.8131
 21
9.55363
  0
LINE
  8
0
 10
-12.8131
 20
9.55363
 11
-12.6884
 21
9.41226
  0
LINE
  8
0
 10
-12.6884
 20
9.41226
 11
-12.5729
 21
9.26335
  0
LINE
  8
0
 10
-12.5729
 20
9.26335
 11
-12.467
 21
9.10747
  0
LINE
  8
0
 10
-12.467
 20
9.10747
 11
-12.3711
 21
8.94525
  0
LINE
  8
0
 10
-12.3711
 20
8.94525
 11
-12.2855
 21
8.77733
  0
LINE
  8
0
 10
-12.2855
 20
8.77733
 11
-12.2107
 21
8.60437
  0
LINE
  8
0
 10
-12.2107
 20
8.60437
 11
-12.1468
 21
8.42705
  0
LINE
  8
0
 10
-12.1468
 20
8.42705
 11
-12.0942
 21
8.24606
  0
LINE
  8
0
 10
-12.0942
 20
8.24606
 11
-12.0531
 21
8.06213
  0
LINE
  8
0
 10
-12.0531
 20
8.06213
 11
-12.0237
 21
7.87599
  0
LINE
  8
0
 10
-12.0237
 20
7.87599
 11
-12.0059
 21
7.68837
  0
LINE
  8
0
 10
-12.0059
 20
7.68837
 11
-12
 21
7.5
  0
LINE
  8
0
 10
-12
 20
7.5
 11
-12.0059
 21
7.31161
  0
LINE
  8
0
 10
-12.0059
 20
7.31161
 11
-12.0237
 21
7.12399
  0
LINE
  8
0
 10
-12.0237
 20
7.12399
 11
-12.0531
 21
6.93785
  0
LINE
  8
0
 10
-12.0531
 20
6.93785
 11
-12.0942
 21
6.75392
  0
LINE
  8
0
 10
-12.0942
 20
6.75392
 11
-12.1468
 21
6.57294
  0
LINE
  8
0
 10
-12.1468
 20
6.57294
 11
-12.2107
 21
6.39561
  0
LINE
  8
0
 10
-12.2107
 20
6.39561
 11
-12.2855
 21
6.22266
  0
LINE
  8
0
 10
-12.2855
 20
6.22266
 11
-12.3711
 21
6.05473
  0
LINE
  8
0
 10
-12.3711
 20
6.05473
 11
-12.467
 21
5.89252
  0
LINE
  8
0
 10
-12.467
 20
5.89252
 11
-12.5729
 21
5.73663
  0
LINE
  8
0
 10
-12.5729
 20
5.73663
 11
-12.6884
 21
5.58772
  0
LINE
  8
0
 10
-12.6884
 20
5.58772
 11
-12.8131
 21
5.44635
  0
LINE
  8
0
 10
-12.8131
 20
5.44635
 11
-12.9464
 21
5.31308
  0
LINE
  8
0
 10
-12.9464
 20
5.31308
 11
-13.0877
 21
5.18845
  0
LINE
  8
0
 10
-2.42705
 20
5.73663
 11
-2.53297
 21
5.89252
  0
LINE
  8
0
 10
-2.53297
 20
5.89252
 11
-2.62891
 21
6.05473
  0
LINE
  8
0
 10
-2.62891
 20
6.05473
 11
-2.71448
 21
6.22266
  0
LINE
  8
0
 10
-2.71448
 20
6.22266
 11
-2.78932
 21
6.39561
  0
LINE
  8
0
 10
-2.78932
 20
6.39561
 11
-2.85316
 21
6.57294
  0
LINE
  8
0
 10
-2.85316
 20
6.57294
 11
-2.90575
 21
6.75392
  0
LINE
  8
0
 10
-2.90575
 20
6.75392
 11
-2.94685
 21
6.93785
  0
LINE
  8
0
 10
-2.94685
 20
6.93785
 11
-2.97633
 21
7.12399
  0
LINE
  8
0
 10
-2.97633
 20
7.12399
 11
-2.99408
 21
7.31161
  0
LINE
  8
0
 10
-2.99408
 20
7.31161
 11
-3
 21
7.5
  0
LINE
  8
0
 10
-3
 20
7.5
 11
-2.99408
 21
7.68837
  0
LINE
  8
0
 10
-2.99408
 20
7.68837
 11
-2.97633
 21
7.87599
  0
LINE
  8
0
 10
-2.97633
 20
7.87599
 11
-2.94685
 21
8.06213
  0
LINE
  8
0
 10
-2.94685
 20
8.06213
 11
-2.90575
 21
8.24606
  0
LINE
  8
0
 10
-2.90575
 20
8.24606
 11
-2.85316
 21
8.42705
  0
LINE
  8
0
 10
-2.85316
 20
8.42705
 11
-2.78932
 21
8.60437
  0
LINE
  8
0
 10
-2.78932
 20
8.60437
 11
-2.71448
 21
8.77733
  0
LINE
  8
0
 10
-2.71448
 20
8.77733
 11
-2.62891
 21
8.94525
  0
LINE
  8
0
 10
-2.62891
 20
8.94525
 11
-2.53297
 21
9.10747
  0
LINE
  8
0
 10
-2.53297
 20
9.10747
 11
-2.42705
 21
9.26335
  0
LINE
  8
0
 10
-2.42705
 20
9.26335
 11
-2.31154
 21
9.41226
  0
LINE
  8
0
 10
-2.31154
 20
9.41226
 11
-2.1869
 21
9.55363
  0
LINE
  8
0
 10
-2.1869
 20
9.55363
 11
-2.05363
 21
9.6869
  0
LINE
  8
0
 10
-2.05363
 20
9.6869
 11
-1.91226
 21
9.81154
  0
LINE
  8
0
 10
-1.91226
 20
9.81154
 11
-1.76335
 21
9.92705
  0
LINE
  8
0
 10
-1.76335
 20
9.92705
 11
-1.60747
 21
10.033
  0
LINE
  8
0
 10
-1.60747
 20
10.033
 11
-1.44525
 21
10.1289
  0
LINE
  8
0
 10
-1.44525
 20
10.1289
 11
-1.27733
 21
10.2145
  0
LINE
  8
0
 10
-1.27733
 20
10.2145
 11
-1.10437
 21
10.2893
  0
LINE
  8
0
 10
-1.10437
 20
10.2893
 11
-0.927048
 21
10.3532
  0
LINE
  8
0
 10
-0.927048
 20
10.3532
 11
-0.746063
 21
10.4057
  0
LINE
  8
0
 10
-0.746063
 20
10.4057
 11
-0.562134
 21
10.4469
  0
LINE
  8
0
 10
-0.562134
 20
10.4469
 11
-0.375992
 21
10.4763
  0
LINE
  8
0
 10
-0.375992
 20
10.4763
 11
-0.18837
 21
10.4941
  0
LINE
  8
0
 10
-0.18837
 20
10.4941
 11
0
 21
10.5
  0
LINE
  8
0
 10
0
 20
10.5
 11
0.18837
 21
10.4941
  0
LINE
  8
0
 10
0.18837
 20
10.4941
 11
0.375992
 21
10.4763
  0
LINE
  8
0
 10
0.375992
 20
10.4763
 11
0.562134
 21
10.4469
  0
LINE
  8
0
 10
0.562134
 20
10.4469
 11
0.746063
 21
10.4057
  0
LINE
  8
0
 10
0.746063
 20
10.4057
 11
0.927048
 21
10.3532
  0
LINE
  8
0
 10
0.927048
 20
10.3532
 11
1.10437
 21
10.2893
  0
LINE
  8
0
 10
1.10437
 20
10.2893
 11
1.27733
 21
10.2145
  0
LINE
  8
0
 10
1.27733
 20
10.2145
 11
1.44525
 21
10.1289
  0
LINE
  8
0
 10
1.44525
 20
10.1289
 11
1.60747
 21
10.033
  0
LINE
  8
0
 10
1.60747
 20
10.033
 11
1.76335
 21
9.92705
  0
LINE
  8
0
 10
1.76335
 20
9.92705
 11
1.91226
 21
9.81154
  0
LINE
  8
0
 10
1.91226
 20
9.81154
 11
2.05363
 21
9.6869
  0
LINE
  8
0
 10
2.05363
 20
9.6869
 11
2.1869
 21
9.55363
  0
LINE
  8
0
 10
2.1869
 20
9.55363
 11
2.31154
 21
9.41226
  0
LINE
  8
0
 10
2.31154
 20
9.41226
 11
2.42705
 21
9.26335
  0
LINE
  8
0
 10
2.42705
 20
9.26335
 11
2.53297
 21
9.10747
  0
LINE
  8
0
 10
2.53297
 20
9.10747
 11
2.62891
 21
8.94525
  0
LINE
  8
0
 10
2.62891
 20
8.94525
 11
2.71448
 21
8.77733
  0
LINE
  8
0
 10
2.71448
 20
8.77733
 11
2.78932
 21
8.60437
  0
LINE
  8
0
 10
2.78932
 20
8.60437
 11
2.85316
 21
8.42705
  0
LINE
  8
0
 10
2.85316
 20
8.42705
 11
2.90575
 21
8.24606
  0
LINE
  8
0
 10
2.90575
 20
8.24606
 11
2.94685
 21
8.06213
  0
LINE
  8
0
 10
2.94685
 20
8.06213
 11
2.97633
 21
7.87599
  0
LINE
  8
0
 10
2.97633
 20
7.87599
 11
2.99408
 21
7.68837
  0
LINE
  8
0
 10
2.99408
 20
7.68837
 11
3
 21
7.5
  0
LINE
  8
0
 10
3
 20
7.5
 11
2.99408
 21
7.31161
  0
LINE
  8
0
 10
2.99408
 20
7.31161
 11
2.97633
 21
7.12399
  0
LINE
  8
0
 10
2.97633
 20
7.12399
 11
2.94685
 21
6.93785
  0
LINE
  8
0
 10
2.94685
 20
6.93785
 11
2.90575
 21
6.75392
  0
LINE
  8
0
 10
2.90575
 20
6.75392
 11
2.85316
 21
6.57294
  0
LINE
  8
0
 10
2.85316
 20
6.57294
 11
2.78932
 21
6.39561
  0
LINE
  8
0
 10
2.78932
 20
6.39561
 11
2.71448
 21
6.22266
  0
LINE
  8
0
 10
2.71448
 20
6.22266
 11
2.62891
 21
6.05473
  0
LINE
  8
0
 10
2.62891
 20
6.05473
 11
2.53297
 21
5.89252
  0
LINE
  8
0
 10
2.53297
 20
5.89252
 11
2.42705
 21
5.73663
  0
LINE
  8
0
 10
2.42705
 20
5.73663
 11
2.31154
 21
5.58772
  0
LINE
  8
0
 10
2.31154
 20
5.58772
 11
2.1869
 21
5.44635
  0
LINE
  8
0
 10
2.1869
 20
5.44635
 11
2.05363
 21
5.31308
  0
LINE
  8
0
 10
2.05363
 20
5.31308
 11
1.91226
 21
5.18845
  0
LINE
  8
0
 10
1.91226
 20
5.18845
 11
1.76335
 21
5.07294
  0
LINE
  8
0
 10
1.76335
 20
5.07294
 11
1.60747
 21
4.96701
  0
LINE
  8
0
 10
1.60747
 20
4.96701
 11
1.44525
 21
4.87108
  0
LINE
  8
0
 10
1.44525
 20
4.87108
 11
1.27733
 21
4.78551
  0
LINE
  8
0
 10
1.27733
 20
4.78551
 11
1.10437
 21
4.71066
  0
LINE
  8
0
 10
1.10437
 20
4.71066
 11
0.927048
 21
4.64682
  0
LINE
  8
0
 10
0.927048
 20
4.64682
 11
0.746063
 21
4.59424
  0
LINE
  8
0
 10
0.746063
 20
4.59424
 11
0.562134
 21
4.55313
  0
LINE
  8
0
 10
0.562134
 20
4.55313
 11
0.375992
 21
4.52365
  0
LINE
  8
0
 10
0.375992
 20
4.52365
 11
0.18837
 21
4.50591
  0
LINE
  8
0
 10
0.18837
 20
4.50591
 11
0
 21
4.5
  0
LINE
  8
0
 10
0
 20
4.5
 11
-0.18837
 21
4.50591
  0
LINE
  8
0
 10
-0.18837
 20
4.50591
 11
-0.375992
 21
4.52365
  0
LINE
  8
0
 10
-0.375992
 20
4.52365
 11
-0.562134
 21
4.55313
  0
LINE
  8
0
 10
-0.562134
 20
4.55313
 11
-0.746063
 21
4.59424
  0
LINE
  8
0
 10
-0.746063
 20
4.59424
 11
-0.927048
 21
4.64682
  0
LINE
  8
0
 10
-0.927048
 20
4.64682
 11
-1.10437
 21
4.71066
  0
LINE
  8
0
 10
-1.10437
 20
4.71066
 11
-1.27733
 21
4.78551
  0
LINE
  8
0
 10
-1.27733
 20
4.78551
 11
-1.44525
 21
4.87108
  0
LINE
  8
0
 10
-1.44525
 20
4.87108
 11
-1.60747
 21
4.96701
  0
LINE
  8
0
 10
-1.60747
 20
4.96701
 11
-1.76335
 21
5.07294
  0
LINE
  8
0
 10
-1.76335
 20
5.07294
 11
-1.91226
 21
5.18845
  0
LINE
  8
0
 10
-1.91226
 20
5.18845
 11
-2.05363
 21
5.31308
  0
LINE
  8
0
 10
-2.05363
 20
5.31308
 11
-2.1869
 21
5.44635
  0
LINE
  8
0
 10
-2.1869
 20
5.44635
 11
-2.31154
 21
5.58772
  0
LINE
  8
0
 10
-2.31154
 20
5.58772
 11
-2.42705
 21
5.73663
  0
LINE
  8
0
 10
17.0536
 20
-9.6869
 11
16.9123
 21
-9.81154
  0
LINE
  8
0
 10
16.9123
 20
-9.81154
 11
16.7634
 21
-9.92705
  0
LINE
  8
0
 10
16.7634
 20
-9.92705
 11
16.6075
 21
-10.033
  0
LINE
  8
0
 10
16.6075
 20
-10.033
 11
16.4453
 21
-10.1289
  0
LINE
  8
0
 10
16.4453
 20
-10.1289
 11
16.2773
 21
-10.2145
  0
LINE
  8
0
 10
16.2773
 20
-10.2145
 11
16.1044
 21
-10.2893
  0
LINE
  8
0
 10
16.1044
 20
-10.2893
 11
15.927
 21
-10.3532
  0
LINE
  8
0
 10
15.927
 20
-10.3532
 11
15.7461
 21
-10.4057
  0
LINE
  8
0
 10
15.7461
 20
-10.4057
 11
15.5621
 21
-10.4469
  0
LINE
  8
0
 10
15.5621
 20
-10.4469
 11
15.376
 21
-10.4763
  0
LINE
  8
0
 10
15.376
 20
-10.4763
 11
15.1884
 21
-10.4941
  0
LINE
  8
0
 10
15.1884
 20
-10.4941
 11
15
 21
-10.5
  0
LINE
  8
0
 10
15
 20
-10.5
 11
14.8116
 21
-10.4941
  0
LINE
  8
0
 10
14.8116
 20
-10.4941
 11
14.624
 21
-10.4763
  0
LINE
  8
0
 10
14.624
 20
-10.4763
 11
14.4379
 21
-10.4469
  0
LINE
  8
0
 10
14.4379
 20
-10.4469
 11
14.2539
 21
-10.4057
  0
LINE
  8
0
 10
14.2539
 20
-10.4057
 11
14.0729
 21
-10.3532
  0
LINE
  8
0
 10
14.0729
 20
-10.3532
 11
13.8956
 21
-10.2893
  0
LINE
  8
0
 10
13.8956
 20
-10.2893
 11
13.7227
 21
-10.2145
  0
LINE
  8
0
 10
13.7227
 20
-10.2145
 11
13.5547
 21
-10.1289
  0
LINE
  8
0
 10
13.5547
 20
-10.1289
 11
13.3925
 21
-10.033
  0
LINE
  8
0
 10
13.3925
 20
-10.033
 11
13.2366
 21
-9.92705
  0
LINE
  8
0
 10
13.2366
 20
-9.92705
 11
13.0877
 21
-9.81154
  0
LINE
  8
0
 10
13.0877
 20
-9.81154
 11
12.9464
 21
-9.6869
  0
LINE
  8
0
 10
12.9464
 20
-9.6869
 11
12.8131
 21
-9.55363
  0
LINE
  8
0
 10
12.8131
 20
-9.55363
 11
12.6884
 21
-9.41226
  0
LINE
  8
0
 10
12.6884
 20
-9.41226
 11
12.5729
 21
-9.26335
  0
LINE
  8
0
 10
12.5729
 20
-9.26335
 11
12.467
 21
-9.10747
  0
LINE
  8
0
 10
12.467
 20
-9.10747
 11
12.3711
 21
-8.94525
  0
LINE
  8
0
 10
12.3711
 20
-8.94525
 11
12.2855
 21
-8.77733
  0
LINE
  8
0
 10
12.2855
 20
-8.77733
 11
12.2107
 21
-8.60437
  0
LINE
  8
0
 10
12.2107
 20
-8.60437
 11
12.1468
 21
-8.42705
  0
LINE
  8
0
 10
12.1468
 20
-8.42705
 11
12.0942
 21
-8.24606
  0
LINE
  8
0
 10
12.0942
 20
-8.24606
 11
12.0531
 21
-8.06213
  0
LINE
  8
0
 10
12.0531
 20
-8.06213
 11
12.0237
 21
-7.87599
  0
LINE
  8
0
 10
12.0237
 20
-7.87599
 11
12.0059
 21
-7.68837
  0
LINE
  8
0
 10
12.0059
 20
-7.68837
 11
12
 21
-7.5
  0
LINE
  8
0
 10
12
 20
-7.5
 11
12.0059
 21
-7.31161
  0
LINE
  8
0
 10
12.0059
 20
-7.31161
 11
12.0237
 21
-7.12399
  0
LINE
  8
0
 10
12.0237
 20
-7.12399
 11
12.0531
 21
-6.93785
  0
LINE
  8
0
 10
12.0531
 20
-6.93785
 11
12.0942
 21
-6.75392
  0
LINE
  8
0
 10
12.0942
 20
-6.75392
 11
12.1468
 21
-6.57294
  0
LINE
  8
0
 10
12.1468
 20
-6.57294
 11
12.2107
 21
-6.39561
  0
LINE
  8
0
 10
12.2107
 20
-6.39561
 11
12.2855
 21
-6.22266
  0
LINE
  8
0
 10
12.2855
 20
-6.22266
 11
12.3711
 21
-6.05473
  0
LINE
  8
0
 10
12.3711
 20
-6.05473
 11
12.467
 21
-5.89252
  0
LINE
  8
0
 10
12.467
 20
-5.89252
 11
12.5729
 21
-5.73663
  0
LINE
  8
0
 10
12.5729
 20
-5.73663
 11
12.6884
 21
-5.58772
  0
LINE
  8
0
 10
12.6884
 20
-5.58772
 11
12.8131
 21
-5.44635
  0
LINE
  8
0
 10
12.8131
 20
-5.44635
 11
12.9464
 21
-5.31308
  0
LINE
  8
0
 10
12.9464
 20
-5.31308
 11
13.0877
 21
-5.18845
  0
LINE
  8
0
 10
13.0877
 20
-5.18845
 11
13.2366
 21
-5.07294
  0
LINE
  8
0
 10
13.2366
 20
-5.07294
 11
13.3925
 21
-4.96701
  0
LINE
  8
0
 10
13.3925
 20
-4.96701
 11
13.5547
 21
-4.87108
  0
LINE
  8
0
 10
13.5547
 20
-4.87108
 11
13.7227
 21
-4.78551
  0
LINE
  8
0
 10
13.7227
 20
-4.78551
 11
13.8956
 21
-4.71066
  0
LINE
  8
0
 10
13.8956
 20
-4.71066
 11
14.0729
 21
-4.64682
  0
LINE
  8
0
 10
14.0729
 20
-4.64682
 11
14.2539
 21
-4.59424
  0
LINE
  8
0
 10
14.2539
 20
-4.59424
 11
14.4379
 21
-4.55313
  0
LINE
  8
0
 10
14.4379
 20
-4.55313
 11
14.624
 21
-4.52365
  0
LINE
  8
0
 10
14.624
 20
-4.52365
 11
14.8116
 21
-4.50591
  0
LINE
  8
0
 10
14.8116
 20
-4.50591
 11
15
 21
-4.5
  0
LINE
  8
0
 10
15
 20
-4.5
 11
15.1884
 21
-4.50591
  0
LINE
  8
0
 10
15.1884
 20
-4.50591
 11
15.376
 21
-4.52365
  0
LINE
  8
0
 10
15.376
 20
-4.52365
 11
15.5621
 21
-4.55313
  0
LINE
  8
0
 10
15.5621
 20
-4.55313
 11
15.7461
 21
-4.59424
  0
LINE
  8
0
 10
15.7461
 20
-4.59424
 11
15.927
 21
-4.64682
  0
LINE
  8
0
 10
15.927
 20
-4.64682
 11
16.1044
 21
-4.71066
  0
LINE
  8
0
 10
16.1044
 20
-4.71066
 11
16.2773
 21
-4.78551
  0
LINE
  8
0
 10
16.2773
 20
-4.78551
 11
16.4453
 21
-4.87108
  0
LINE
  8
0
 10
16.4453
 20
-4.87108
 11
16.6075
 21
-4.96701
  0
LINE
  8
0
 10
16.6075
 20
-4.96701
 11
16.7634
 21
-5.07294
  0
LINE
  8
0
 10
16.7634
 20
-5.07294
 11
16.9123
 21
-5.18845
  0
LINE
  8
0
 10
16.9123
 20
-5.18845
 11
17.0536
 21
-5.31308
  0
LINE
  8
0
 10
17.0536
 20
-5.31308
 11
17.1869
 21
-5.44635
  0
LINE
  8
0
 10
17.1869
 20
-5.44635
 11
17.3115
 21
-5.58772
  0
LINE
  8
0
 10
17.3115
 20
-5.58772
 11
17.427
 21
-5.73663
  0
LINE
  8
0
 10
17.427
 20
-5.73663
 11
17.533
 21
-5.89252
  0
LINE
  8
0
 10
17.533
 20
-5.89252
 11
17.6289
 21
-6.05473
  0
LINE
  8
0
 10
17.6289
 20
-6.05473
 11
17.7145
 21
-6.22266
  0
LINE
  8
0
 10
17.7145
 20
-6.22266
 11
17.7893
 21
-6.39561
  0
LINE
  8
0
 10
17.7893
 20
-6.39561
 11
17.8532
 21
-6.57294
  0
LINE
  8
0
 10
17.8532
 20
-6.57294
 11
17.9057
 21
-6.75392
  0
LINE
  8
0
 10
17.9057
 20
-6.75392
 11
17.9469
 21
-6.93785
  0
LINE
  8
0
 10
17.9469
 20
-6.93785
 11
17.9763
 21
-7.12399
  0
LINE
  8
0
 10
17.9763
 20
-7.12399
 11
17.9941
 21
-7.31161
  0
LINE
  8
0
 10
17.9941
 20
-7.31161
 11
18
 21
-7.5
  0
LINE
  8
0
 10
18
 20
-7.5
 11
17.9941
 21
-7.68837
  0
LINE
  8
0
 10
17.9941
 20
-7.68837
 11
17.9763
 21
-7.87599
  0
LINE
  8
0
 10
17.9763
 20
-7.87599
 11
17.9469
 21
-8.06213
  0
LINE
  8
0
 10
17.9469
 20
-8.06213
 11
17.9057
 21
-8.24606
  0
LINE
  8
0
 10
17.9057
 20
-8.24606
 11
17.8532
 21
-8.42705
  0
LINE
  8
0
 10
17.8532
 20
-8.42705
 11
17.7893
 21
-8.60437
  0
LINE
  8
0
 10
17.7893
 20
-8.60437
 11
17.7145
 21
-8.77733
  0
LINE
  8
0
 10
17.7145
 20
-8.77733
 11
17.6289
 21
-8.94525
  0
LINE
  8
0
 10
17.6289
 20
-8.94525
 11
17.533
 21
-9.10747
  0
LINE
  8
0
 10
17.533
 20
-9.10747
 11
17.427
 21
-9.26335
  0
LINE
  8
0
 10
17.427
 20
-9.26335
 11
17.3115
 21
-9.41226
  0
LINE
  8
0
 10
17.3115
 20
-9.41226
 11
17.1869
 21
-9.55363
  0
LINE
  8
0
 10
17.1869
 20
-9.55363
 11
17.0536
 21
-9.6869
  0
LINE
  8
0
 10
-12.5729
 20
-20.7366
 11
-12.467
 21
-20.8925
  0
LINE
  8
0
 10
-12.467
 20
-20.8925
 11
-12.3711
 21
-21.0547
  0
LINE
  8
0
 10
-12.3711
 20
-21.0547
 11
-12.2855
 21
-21.2227
  0
LINE
  8
0
 10
-12.2855
 20
-21.2227
 11
-12.2107
 21
-21.3956
  0
LINE
  8
0
 10
-12.2107
 20
-21.3956
 11
-12.1468
 21
-21.5729
  0
LINE
  8
0
 10
-12.1468
 20
-21.5729
 11
-12.0942
 21
-21.7539
  0
LINE
  8
0
 10
-12.0942
 20
-21.7539
 11
-12.0531
 21
-21.9379
  0
LINE
  8
0
 10
-12.0531
 20
-21.9379
 11
-12.0237
 21
-22.124
  0
LINE
  8
0
 10
-12.0237
 20
-22.124
 11
-12.0059
 21
-22.3116
  0
LINE
  8
0
 10
-12.0059
 20
-22.3116
 11
-12
 21
-22.5
  0
LINE
  8
0
 10
-12
 20
-22.5
 11
-12.0059
 21
-22.6884
  0
LINE
  8
0
 10
-12.0059
 20
-22.6884
 11
-12.0237
 21
-22.876
  0
LINE
  8
0
 10
-12.0237
 20
-22.876
 11
-12.0531
 21
-23.0621
  0
LINE
  8
0
 10
-12.0531
 20
-23.0621
 11
-12.0942
 21
-23.2461
  0
LINE
  8
0
 10
-12.0942
 20
-23.2461
 11
-12.1468
 21
-23.427
  0
LINE
  8
0
 10
-12.1468
 20
-23.427
 11
-12.2107
 21
-23.6044
  0
LINE
  8
0
 10
-12.2107
 20
-23.6044
 11
-12.2855
 21
-23.7773
  0
LINE
  8
0
 10
-12.2855
 20
-23.7773
 11
-12.3711
 21
-23.9453
  0
LINE
  8
0
 10
-12.3711
 20
-23.9453
 11
-12.467
 21
-24.1075
  0
LINE
  8
0
 10
-12.467
 20
-24.1075
 11
-12.5729
 21
-24.2634
  0
LINE
  8
0
 10
-12.5729
 20
-24.2634
 11
-12.6884
 21
-24.4123
  0
LINE
  8
0
 10
-12.6884
 20
-24.4123
 11
-12.8131
 21
-24.5536
  0
LINE
  8
0
 10
-12.8131
 20
-24.5536
 11
-12.9464
 21
-24.6869
  0
LINE
  8
0
 10
-12.9464
 20
-24.6869
 11
-13.0877
 21
-24.8115
  0
LINE
  8
0
 10
-13.0877
 20
-24.8115
 11
-13.2366
 21
-24.927
  0
LINE
  8
0
 10
-13.2366
 20
-24.927
 11
-13.3925
 21
-25.033
  0
LINE
  8
0
 10
-13.3925
 20
-25.033
 11
-13.5547
 21
-25.1289
  0
LINE
  8
0
 10
-13.5547
 20
-25.1289
 11
-13.7227
 21
-25.2145
  0
LINE
  8
0
 10
-13.7227
 20
-25.2145
 11
-13.8956
 21
-25.2893
  0
LINE
  8
0
 10
-13.8956
 20
-25.2893
 11
-14.0729
 21
-25.3532
  0
LINE
  8
0
 10
-14.0729
 20
-25.3532
 11
-14.2539
 21
-25.4057
  0
LINE
  8
0
 10
-14.2539
 20
-25.4057
 11
-14.4379
 21
-25.4469
  0
LINE
  8
0
 10
-14.4379
 20
-25.4469
 11
-14.624
 21
-25.4763
  0
LINE
  8
0
 10
-14.624
 20
-25.4763
 11
-14.8116
 21
-25.4941
  0
LINE
  8
0
 10
-14.8116
 20
-25.4941
 11
-15
 21
-25.5
  0
LINE
  8
0
 10
-15
 20
-25.5
 11
-15.1884
 21
-25.4941
  0
LINE
  8
0
 10
-15.1884
 20
-25.4941
 11
-15.376
 21
-25.4763
  0
LINE
  8
0
 10
-15.376
 20
-25.4763
 11
-15.5621
 21
-25.4469
  0
LINE
  8
0
 10
-15.5621
 20
-25.4469
 11
-15.7461
 21
-25.4057
  0
LINE
  8
0
 10
-15.7461
 20
-25.4057
 11
-15.927
 21
-25.3532
  0
LINE
  8
0
 10
-15.927
 20
-25.3532
 11
-16.1044
 21
-25.2893
  0
LINE
  8
0
 10
-16.1044
 20
-25.2893
 11
-16.2773
 21
-25.2145
  0
LINE
  8
0
 10
-16.2773
 20
-25.2145
 11
-16.4453
 21
-25.1289
  0
LINE
  8
0
 10
-16.4453
 20
-25.1289
 11
-16.6075
 21
-25.033
  0
LINE
  8
0
 10
-16.6075
 20
-25.033
 11
-16.7634
 21
-24.927
  0
LINE
  8
0
 10
-16.7634
 20
-24.927
 11
-16.9123
 21
-24.8115
  0
LINE
  8
0
 10
-16.9123
 20
-24.8115
 11
-17.0536
 21
-24.6869
  0
LINE
  8
0
 10
-17.0536
 20
-24.6869
 11
-17.1869
 21
-24.5536
  0
LINE
  8
0
 10
-17.1869
 20
-24.5536
 11
-17.3115
 21
-24.4123
  0
LINE
  8
0
 10
-17.3115
 20
-24.4123
 11
-17.427
 21
-24.2634
  0
LINE
  8
0
 10
-17.427
 20
-24.2634
 11
-17.533
 21
-24.1075
  0
LINE
  8
0
 10
-17.533
 20
-24.1075
 11
-17.6289
 21
-23.9453
  0
LINE
  8
0
 10
-17.6289
 20
-23.9453
 11
-17.7145
 21
-23.7773
  0
LINE
  8
0
 10
-17.7145
 20
-23.7773
 11
-17.7893
 21
-23.6044
  0
LINE
  8
0
 10
-17.7893
 20
-23.6044
 11
-17.8532
 21
-23.427
  0
LINE
  8
0
 10
-17.8532
 20
-23.427
 11
-17.9057
 21
-23.2461
  0
LINE
  8
0
 10
-17.9057
 20
-23.2461
 11
-17.9469
 21
-23.0621
  0
LINE
  8
0
 10
-17.9469
 20
-23.0621
 11
-17.9763
 21
-22.876
  0
LINE
  8
0
 10
-17.9763
 20
-22.876
 11
-17.9941
 21
-22.6884
  0
LINE
  8
0
 10
-17.9941
 20
-22.6884
 11
-18
 21
-22.5
  0
LINE
  8
0
 10
-18
 20
-22.5
 11
-17.9941
 21
-22.3116
  0
LINE
  8
0
 10
-17.9941
 20
-22.3116
 11
-17.9763
 21
-22.124
  0
LINE
  8
0
 10
-17.9763
 20
-22.124
 11
-17.9469
 21
-21.9379
  0
LINE
  8
0
 10
-17.9469
 20
-21.9379
 11
-17.9057
 21
-21.7539
  0
LINE
  8
0
 10
-17.9057
 20
-21.7539
 11
-17.8532
 21
-21.5729
  0
LINE
  8
0
 10
-17.8532
 20
-21.5729
 11
-17.7893
 21
-21.3956
  0
LINE
  8
0
 10
-17.7893
 20
-21.3956
 11
-17.7145
 21
-21.2227
  0
LINE
  8
0
 10
-17.7145
 20
-21.2227
 11
-17.6289
 21
-21.0547
  0
LINE
  8
0
 10
-17.6289
 20
-21.0547
 11
-17.533
 21
-20.8925
  0
LINE
  8
0
 10
-17.533
 20
-20.8925
 11
-17.427
 21
-20.7366
  0
LINE
  8
0
 10
-17.427
 20
-20.7366
 11
-17.3115
 21
-20.5877
  0
LINE
  8
0
 10
-17.3115
 20
-20.5877
 11
-17.1869
 21
-20.4464
  0
LINE
  8
0
 10
-17.1869
 20
-20.4464
 11
-17.0536
 21
-20.3131
  0
LINE
  8
0
 10
-17.0536
 20
-20.3131
 11
-16.9123
 21
-20.1884
  0
LINE
  8
0
 10
-16.9123
 20
-20.1884
 11
-16.7634
 21
-20.0729
  0
LINE
  8
0
 10
-16.7634
 20
-20.0729
 11
-16.6075
 21
-19.967
  0
LINE
  8
0
 10
-16.6075
 20
-19.967
 11
-16.4453
 21
-19.8711
  0
LINE
  8
0
 10
-16.4453
 20
-19.8711
 11
-16.2773
 21
-19.7855
  0
LINE
  8
0
 10
-16.2773
 20
-19.7855
 11
-16.1044
 21
-19.7107
  0
LINE
  8
0
 10
-16.1044
 20
-19.7107
 11
-15.927
 21
-19.6468
  0
LINE
  8
0
 10
-15.927
 20
-19.6468
 11
-15.7461
 21
-19.5942
  0
LINE
  8
0
 10
-15.7461
 20
-19.5942
 11
-15.5621
 21
-19.5531
  0
LINE
  8
0
 10
-15.5621
 20
-19.5531
 11
-15.376
 21
-19.5237
  0
LINE
  8
0
 10
-15.376
 20
-19.5237
 11
-15.1884
 21
-19.5059
  0
LINE
  8
0
 10
-15.1884
 20
-19.5059
 11
-15
 21
-19.5
  0
LINE
  8
0
 10
-15
 20
-19.5
 11
-14.8116
 21
-19.5059
  0
LINE
  8
0
 10
-14.8116
 20
-19.5059
 11
-14.624
 21
-19.5237
  0
LINE
  8
0
 10
-14.624
 20
-19.5237
 11
-14.4379
 21
-19.5531
  0
LINE
  8
0
 10
-14.4379
 20
-19.5531
 11
-14.2539
 21
-19.5942
  0
LINE
  8
0
 10
-14.2539
 20
-19.5942
 11
-14.0729
 21
-19.6468
  0
LINE
  8
0
 10
-14.0729
 20
-19.6468
 11
-13.8956
 21
-19.7107
  0
LINE
  8
0
 10
-13.8956
 20
-19.7107
 11
-13.7227
 21
-19.7855
  0
LINE
  8
0
 10
-13.7227
 20
-19.7855
 11
-13.5547
 21
-19.8711
  0
LINE
  8
0
 10
-13.5547
 20
-19.8711
 11
-13.3925
 21
-19.967
  0
LINE
  8
0
 10
-13.3925
 20
-19.967
 11
-13.2366
 21
-20.0729
  0
LINE
  8
0
 10
-13.2366
 20
-20.0729
 11
-13.0877
 21
-20.1884
  0
LINE
  8
0
 10
-13.0877
 20
-20.1884
 11
-12.9464
 21
-20.3131
  0
LINE
  8
0
 10
-12.9464
 20
-20.3131
 11
-12.8131
 21
-20.4464
  0
LINE
  8
0
 10
-12.8131
 20
-20.4464
 11
-12.6884
 21
-20.5877
  0
LINE
  8
0
 10
-12.6884
 20
-20.5877
 11
-12.5729
 21
-20.7366
  0
ENDSEC
  0
SECTION
  2
OBJECTS
  0
DICTIONARY
  0
ENDSEC
  0
EOF
