<?xml version="1.0" standalone="no"?>
<!DOCTYPE svg PUBLIC "-//W3C//DTD SVG 1.1//EN" "http://www.w3.org/Graphics/SVG/1.1/DTD/svg11.dtd">
<svg width="72mm" height="57mm" viewBox="9 -66 72 57" xmlns="http://www.w3.org/2000/svg" version="1.1">
<title>OpenSCAD Model</title>
<path d="
M 76,-9.00986 L 76.3139,-9.00986 L 76.9369,-9.08856 L 77.5451,-9.24471 L 78.1289,-9.47586 L 78.6791,-9.77835
 L 79.1871,-10.1474 L 79.6448,-10.5773 L 80.0451,-11.0611 L 80.3815,-11.5912 L 80.6489,-12.1594 L 80.8429,-12.7565
 L 80.9606,-13.3733 L 81,-14 L 81,-61 L 80.9606,-61.6267 L 80.8429,-62.2434 L 80.6489,-62.8406
 L 80.3815,-63.4088 L 80.0451,-63.9389 L 79.6448,-64.4227 L 79.1871,-64.8526 L 78.6791,-65.2216 L 78.1289,-65.5241
 L 77.5451,-65.7553 L 76.9369,-65.9114 L 76.3139,-65.9901 L 76,-65.9901 L 76,-66 L 14,-66
 L 14,-65.9901 L 13.686,-65.9901 L 13.0631,-65.9114 L 12.4549,-65.7553 L 11.8711,-65.5241 L 11.3209,-65.2216
 L 10.8129,-64.8526 L 10.3551,-64.4227 L 9.95491,-63.9389 L 9.61845,-63.4088 L 9.3511,-62.8406 L 9.15707,-62.2434
 L 9.03941,-61.6267 L 9,-61 L 9,-14 L 9.03941,-13.3733 L 9.15707,-12.7565 L 9.3511,-12.1594
 L 9.61845,-11.5912 L 9.95491,-11.0611 L 10.3551,-10.5773 L 10.8129,-10.1474 L 11.3209,-9.77835 L 11.8711,-9.47586
 L 12.4549,-9.24471 L 13.0631,-9.08856 L 13.686,-9.00986 L 14,-9.00986 L 14,-9 L 76,-9
 z
" stroke="black" fill="lightgray" stroke-width="0.5"/>
</svg>
