<?xml version="1.0" standalone="no"?>
<!DOCTYPE svg PUBLIC "-//W3C//DTD SVG 1.1//EN" "http://www.w3.org/Graphics/SVG/1.1/DTD/svg11.dtd">
<svg width="74mm" height="58mm" viewBox="-37 -29 74 58" xmlns="http://www.w3.org/2000/svg" version="1.1">
<title>OpenSCAD Model</title>
<path d="
M 31.6576,28.4622 L 32.2991,28.3346 L 32.9184,28.1244 L 33.505,27.8351 L 34.0488,27.4718 L 34.5405,27.0405
 L 34.9718,26.5488 L 35.3351,26.005 L 35.6244,25.4184 L 35.8346,24.7991 L 35.9622,24.1576 L 36.005,23.505
 L 36.005,-23.505 L 35.9622,-24.1576 L 35.8346,-24.7991 L 35.6244,-25.4184 L 35.3351,-26.005 L 34.9718,-26.5488
 L 34.5405,-27.0405 L 34.0488,-27.4718 L 33.505,-27.8351 L 32.9184,-28.1244 L 32.2991,-28.3346 L 31.6576,-28.4622
 L 31.005,-28.505 L -31.005,-28.505 L -31.6576,-28.4622 L -32.2991,-28.3346 L -32.9184,-28.1244 L -33.505,-27.8351
 L -34.0488,-27.4718 L -34.5405,-27.0405 L -34.9718,-26.5488 L -35.3351,-26.005 L -35.6244,-25.4184 L -35.8346,-24.7991
 L -35.9622,-24.1576 L -36.005,-23.505 L -36.005,23.505 L -35.9622,24.1576 L -35.8346,24.7991 L -35.6244,25.4184
 L -35.3351,26.005 L -34.9718,26.5488 L -34.5405,27.0405 L -34.0488,27.4718 L -33.505,27.8351 L -32.9184,28.1244
 L -32.2991,28.3346 L -31.6576,28.4622 L -31.005,28.505 L 31.005,28.505 z
M -0.42421,-19.2778 L -0.841156,-19.3607 L -1.24371,-19.4974 L -1.625,-19.6854 L -1.97847,-19.9216 L -2.2981,-20.2019
 L -2.57838,-20.5215 L -2.81458,-20.875 L -3.00259,-21.2563 L -3.13925,-21.6588 L -3.22218,-22.0758 L -3.25,-22.5
 L -3.22218,-22.9242 L -3.13925,-23.3412 L -3.00259,-23.7437 L -2.81458,-24.125 L -2.57838,-24.4785 L -2.2981,-24.7981
 L -1.97847,-25.0784 L -1.625,-25.3146 L -1.24371,-25.5026 L -0.841156,-25.6393 L -0.42421,-25.7222 L 0,-25.75
 L 0.42421,-25.7222 L 0.841156,-25.6393 L 1.24371,-25.5026 L 1.625,-25.3146 L 1.97847,-25.0784 L 2.2981,-24.7981
 L 2.57838,-24.4785 L 2.81458,-24.125 L 3.00259,-23.7437 L 3.13925,-23.3412 L 3.22218,-22.9242 L 3.25,-22.5
 L 3.22218,-22.0758 L 3.13925,-21.6588 L 3.00259,-21.2563 L 2.81458,-20.875 L 2.57838,-20.5215 L 2.2981,-20.2019
 L 1.97847,-19.9216 L 1.625,-19.6854 L 1.24371,-19.4974 L 0.841156,-19.3607 L 0.42421,-19.2778 L 0,-19.25
 z
M 29.5758,-19.2778 L 29.1588,-19.3607 L 28.7563,-19.4974 L 28.375,-19.6854 L 28.0215,-19.9216 L 27.7019,-20.2019
 L 27.4216,-20.5215 L 27.1854,-20.875 L 26.9974,-21.2563 L 26.8607,-21.6588 L 26.7778,-22.0758 L 26.75,-22.5
 L 26.7778,-22.9242 L 26.8607,-23.3412 L 26.9974,-23.7437 L 27.1854,-24.125 L 27.4216,-24.4785 L 27.7019,-24.7981
 L 28.0215,-25.0784 L 28.375,-25.3146 L 28.7563,-25.5026 L 29.1588,-25.6393 L 29.5758,-25.7222 L 30,-25.75
 L 30.4242,-25.7222 L 30.8412,-25.6393 L 31.2437,-25.5026 L 31.625,-25.3146 L 31.9785,-25.0784 L 32.2981,-24.7981
 L 32.5784,-24.4785 L 32.8146,-24.125 L 33.0026,-23.7437 L 33.1393,-23.3412 L 33.2222,-22.9242 L 33.25,-22.5
 L 33.2222,-22.0758 L 33.1393,-21.6588 L 33.0026,-21.2563 L 32.8146,-20.875 L 32.5784,-20.5215 L 32.2981,-20.2019
 L 31.9785,-19.9216 L 31.625,-19.6854 L 31.2437,-19.4974 L 30.8412,-19.3607 L 30.4242,-19.2778 L 30,-19.25
 z
M -30.4242,-19.2778 L -30.8412,-19.3607 L -31.2437,-19.4974 L -31.625,-19.6854 L -31.9785,-19.9216 L -32.2981,-20.2019
 L -32.5784,-20.5215 L -32.8146,-20.875 L -33.0026,-21.2563 L -33.1393,-21.6588 L -33.2222,-22.0758 L -33.25,-22.5
 L -33.2222,-22.9242 L -33.1393,-23.3412 L -33.0026,-23.7437 L -32.8146,-24.125 L -32.5784,-24.4785 L -32.2981,-24.7981
 L -31.9785,-25.0784 L -31.625,-25.3146 L -31.2437,-25.5026 L -30.8412,-25.6393 L -30.4242,-25.7222 L -30,-25.75
 L -29.5758,-25.7222 L -29.1588,-25.6393 L -28.7563,-25.5026 L -28.375,-25.3146 L -28.0215,-25.0784 L -27.7019,-24.7981
 L -27.4216,-24.4785 L -27.1854,-24.125 L -26.9974,-23.7437 L -26.8607,-23.3412 L -26.7778,-22.9242 L -26.75,-22.5
 L -26.7778,-22.0758 L -26.8607,-21.6588 L -26.9974,-21.2563 L -27.1854,-20.875 L -27.4216,-20.5215 L -27.7019,-20.2019
 L -28.0215,-19.9216 L -28.375,-19.6854 L -28.7563,-19.4974 L -29.1588,-19.3607 L -29.5758,-19.2778 L -30,-19.25
 z
M -15.4242,-19.2778 L -15.8412,-19.3607 L -16.2437,-19.4974 L -16.625,-19.6854 L -16.9785,-19.9216 L -17.2981,-20.2019
 L -17.5784,-20.5215 L -17.8146,-20.875 L -18.0026,-21.2563 L -18.1393,-21.6588 L -18.2222,-22.0758 L -18.25,-22.5
 L -18.2222,-22.9242 L -18.1393,-23.3412 L -18.0026,-23.7437 L -17.8146,-24.125 L -17.5784,-24.4785 L -17.2981,-24.7981
 L -16.9785,-25.0784 L -16.625,-25.3146 L -16.2437,-25.5026 L -15.8412,-25.6393 L -15.4242,-25.7222 L -15,-25.75
 L -14.5758,-25.7222 L -14.1588,-25.6393 L -13.7563,-25.5026 L -13.375,-25.3146 L -13.0215,-25.0784 L -12.7019,-24.7981
 L -12.4216,-24.4785 L -12.1854,-24.125 L -11.9974,-23.7437 L -11.8607,-23.3412 L -11.7778,-22.9242 L -11.75,-22.5
 L -11.7778,-22.0758 L -11.8607,-21.6588 L -11.9974,-21.2563 L -12.1854,-20.875 L -12.4216,-20.5215 L -12.7019,-20.2019
 L -13.0215,-19.9216 L -13.375,-19.6854 L -13.7563,-19.4974 L -14.1588,-19.3607 L -14.5758,-19.2778 L -15,-19.25
 z
M 14.5758,-19.2778 L 14.1588,-19.3607 L 13.7563,-19.4974 L 13.375,-19.6854 L 13.0215,-19.9216 L 12.7019,-20.2019
 L 12.4216,-20.5215 L 12.1854,-20.875 L 11.9974,-21.2563 L 11.8607,-21.6588 L 11.7778,-22.0758 L 11.75,-22.5
 L 11.7778,-22.9242 L 11.8607,-23.3412 L 11.9974,-23.7437 L 12.1854,-24.125 L 12.4216,-24.4785 L 12.7019,-24.7981
 L 13.0215,-25.0784 L 13.375,-25.3146 L 13.7563,-25.5026 L 14.1588,-25.6393 L 14.5758,-25.7222 L 15,-25.75
 L 15.4242,-25.7222 L 15.8412,-25.6393 L 16.2437,-25.5026 L 16.625,-25.3146 L 16.9785,-25.0784 L 17.2981,-24.7981
 L 17.5784,-24.4785 L 17.8146,-24.125 L 18.0026,-23.7437 L 18.1393,-23.3412 L 18.2222,-22.9242 L 18.25,-22.5
 L 18.2222,-22.0758 L 18.1393,-21.6588 L 18.0026,-21.2563 L 17.8146,-20.875 L 17.5784,-20.5215 L 17.2981,-20.2019
 L 16.9785,-19.9216 L 16.625,-19.6854 L 16.2437,-19.4974 L 15.8412,-19.3607 L 15.4242,-19.2778 L 15,-19.25
 z
M 14.5758,-4.2778 L 14.1588,-4.36073 L 13.7563,-4.49739 L 13.375,-4.68541 L 13.0215,-4.9216 L 12.7019,-5.20189
 L 12.4216,-5.52151 L 12.1854,-5.875 L 11.9974,-6.25627 L 11.8607,-6.65883 L 11.7778,-7.07578 L 11.75,-7.5
 L 11.7778,-7.92421 L 11.8607,-8.34116 L 11.9974,-8.74371 L 12.1854,-9.125 L 12.4216,-9.47847 L 12.7019,-9.7981
 L 13.0215,-10.0784 L 13.375,-10.3146 L 13.7563,-10.5026 L 14.1588,-10.6393 L 14.5758,-10.7222 L 15,-10.75
 L 15.4242,-10.7222 L 15.8412,-10.6393 L 16.2437,-10.5026 L 16.625,-10.3146 L 16.9785,-10.0784 L 17.2981,-9.7981
 L 17.5784,-9.47847 L 17.8146,-9.125 L 18.0026,-8.74371 L 18.1393,-8.34116 L 18.2222,-7.92421 L 18.25,-7.5
 L 18.2222,-7.07578 L 18.1393,-6.65883 L 18.0026,-6.25627 L 17.8146,-5.875 L 17.5784,-5.52151 L 17.2981,-5.20189
 L 16.9785,-4.9216 L 16.625,-4.68541 L 16.2437,-4.49739 L 15.8412,-4.36073 L 15.4242,-4.2778 L 15,-4.25
 z
M 29.5758,-4.2778 L 29.1588,-4.36073 L 28.7563,-4.49739 L 28.375,-4.68541 L 28.0215,-4.9216 L 27.7019,-5.20189
 L 27.4216,-5.52151 L 27.1854,-5.875 L 26.9974,-6.25627 L 26.8607,-6.65883 L 26.7778,-7.07578 L 26.75,-7.5
 L 26.7778,-7.92421 L 26.8607,-8.34116 L 26.9974,-8.74371 L 27.1854,-9.125 L 27.4216,-9.47847 L 27.7019,-9.7981
 L 28.0215,-10.0784 L 28.375,-10.3146 L 28.7563,-10.5026 L 29.1588,-10.6393 L 29.5758,-10.7222 L 30,-10.75
 L 30.4242,-10.7222 L 30.8412,-10.6393 L 31.2437,-10.5026 L 31.625,-10.3146 L 31.9785,-10.0784 L 32.2981,-9.7981
 L 32.5784,-9.47847 L 32.8146,-9.125 L 33.0026,-8.74371 L 33.1393,-8.34116 L 33.2222,-7.92421 L 33.25,-7.5
 L 33.2222,-7.07578 L 33.1393,-6.65883 L 33.0026,-6.25627 L 32.8146,-5.875 L 32.5784,-5.52151 L 32.2981,-5.20189
 L 31.9785,-4.9216 L 31.625,-4.68541 L 31.2437,-4.49739 L 30.8412,-4.36073 L 30.4242,-4.2778 L 30,-4.25
 z
M -15.4242,-4.2778 L -15.8412,-4.36073 L -16.2437,-4.49739 L -16.625,-4.68541 L -16.9785,-4.9216 L -17.2981,-5.20189
 L -17.5784,-5.52151 L -17.8146,-5.875 L -18.0026,-6.25627 L -18.1393,-6.65883 L -18.2222,-7.07578 L -18.25,-7.5
 L -18.2222,-7.92421 L -18.1393,-8.34116 L -18.0026,-8.74371 L -17.8146,-9.125 L -17.5784,-9.47847 L -17.2981,-9.7981
 L -16.9785,-10.0784 L -16.625,-10.3146 L -16.2437,-10.5026 L -15.8412,-10.6393 L -15.4242,-10.7222 L -15,-10.75
 L -14.5758,-10.7222 L -14.1588,-10.6393 L -13.7563,-10.5026 L -13.375,-10.3146 L -13.0215,-10.0784 L -12.7019,-9.7981
 L -12.4216,-9.47847 L -12.1854,-9.125 L -11.9974,-8.74371 L -11.8607,-8.34116 L -11.7778,-7.92421 L -11.75,-7.5
 L -11.7778,-7.07578 L -11.8607,-6.65883 L -11.9974,-6.25627 L -12.1854,-5.875 L -12.4216,-5.52151 L -12.7019,-5.20189
 L -13.0215,-4.9216 L -13.375,-4.68541 L -13.7563,-4.49739 L -14.1588,-4.36073 L -14.5758,-4.2778 L -15,-4.25
 z
M -30.4242,-4.2778 L -30.8412,-4.36073 L -31.2437,-4.49739 L -31.625,-4.68541 L -31.9785,-4.9216 L -32.2981,-5.20189
 L -32.5784,-5.52151 L -32.8146,-5.875 L -33.0026,-6.25627 L -33.1393,-6.65883 L -33.2222,-7.07578 L -33.25,-7.5
 L -33.2222,-7.92421 L -33.1393,-8.34116 L -33.0026,-8.74371 L -32.8146,-9.125 L -32.5784,-9.47847 L -32.2981,-9.7981
 L -31.9785,-10.0784 L -31.625,-10.3146 L -31.2437,-10.5026 L -30.8412,-10.6393 L -30.4242,-10.7222 L -30,-10.75
 L -29.5758,-10.7222 L -29.1588,-10.6393 L -28.7563,-10.5026 L -28.375,-10.3146 L -28.0215,-10.0784 L -27.7019,-9.7981
 L -27.4216,-9.47847 L -27.1854,-9.125 L -26.9974,-8.74371 L -26.8607,-8.34116 L -26.7778,-7.92421 L -26.75,-7.5
 L -26.7778,-7.07578 L -26.8607,-6.65883 L -26.9974,-6.25627 L -27.1854,-5.875 L -27.4216,-5.52151 L -27.7019,-5.20189
 L -28.0215,-4.9216 L -28.375,-4.68541 L -28.7563,-4.49739 L -29.1588,-4.36073 L -29.5758,-4.2778 L -30,-4.25
 z
M -0.42421,-4.2778 L -0.841156,-4.36073 L -1.24371,-4.49739 L -1.625,-4.68541 L -1.97847,-4.9216 L -2.2981,-5.20189
 L -2.57838,-5.52151 L -2.81458,-5.875 L -3.00259,-6.25627 L -3.13925,-6.65883 L -3.22218,-7.07578 L -3.25,-7.5
 L -3.22218,-7.92421 L -3.13925,-8.34116 L -3.00259,-8.74371 L -2.81458,-9.125 L -2.57838,-9.47847 L -2.2981,-9.7981
 L -1.97847,-10.0784 L -1.625,-10.3146 L -1.24371,-10.5026 L -0.841156,-10.6393 L -0.42421,-10.7222 L 0,-10.75
 L 0.42421,-10.7222 L 0.841156,-10.6393 L 1.24371,-10.5026 L 1.625,-10.3146 L 1.97847,-10.0784 L 2.2981,-9.7981
 L 2.57838,-9.47847 L 2.81458,-9.125 L 3.00259,-8.74371 L 3.13925,-8.34116 L 3.22218,-7.92421 L 3.25,-7.5
 L 3.22218,-7.07578 L 3.13925,-6.65883 L 3.00259,-6.25627 L 2.81458,-5.875 L 2.57838,-5.52151 L 2.2981,-5.20189
 L 1.97847,-4.9216 L 1.625,-4.68541 L 1.24371,-4.49739 L 0.841156,-4.36073 L 0.42421,-4.2778 L 0,-4.25
 z
M -0.42421,10.7222 L -0.841156,10.6393 L -1.24371,10.5026 L -1.625,10.3146 L -1.97847,10.0784 L -2.2981,9.7981
 L -2.57838,9.47847 L -2.81458,9.125 L -3.00259,8.74371 L -3.13925,8.34116 L -3.22218,7.92421 L -3.25,7.5
 L -3.22218,7.07578 L -3.13925,6.65883 L -3.00259,6.25627 L -2.81458,5.875 L -2.57838,5.52151 L -2.2981,5.20189
 L -1.97847,4.9216 L -1.625,4.68541 L -1.24371,4.49739 L -0.841156,4.36073 L -0.42421,4.2778 L 0,4.25
 L 0.42421,4.2778 L 0.841156,4.36073 L 1.24371,4.49739 L 1.625,4.68541 L 1.97847,4.9216 L 2.2981,5.20189
 L 2.57838,5.52151 L 2.81458,5.875 L 3.00259,6.25627 L 3.13925,6.65883 L 3.22218,7.07578 L 3.25,7.5
 L 3.22218,7.92421 L 3.13925,8.34116 L 3.00259,8.74371 L 2.81458,9.125 L 2.57838,9.47847 L 2.2981,9.7981
 L 1.97847,10.0784 L 1.625,10.3146 L 1.24371,10.5026 L 0.841156,10.6393 L 0.42421,10.7222 L 0,10.75
 z
M 29.5758,10.7222 L 29.1588,10.6393 L 28.7563,10.5026 L 28.375,10.3146 L 28.0215,10.0784 L 27.7019,9.7981
 L 27.4216,9.47847 L 27.1854,9.125 L 26.9974,8.74371 L 26.8607,8.34116 L 26.7778,7.92421 L 26.75,7.5
 L 26.7778,7.07578 L 26.8607,6.65883 L 26.9974,6.25627 L 27.1854,5.875 L 27.4216,5.52151 L 27.7019,5.20189
 L 28.0215,4.9216 L 28.375,4.68541 L 28.7563,4.49739 L 29.1588,4.36073 L 29.5758,4.2778 L 30,4.25
 L 30.4242,4.2778 L 30.8412,4.36073 L 31.2437,4.49739 L 31.625,4.68541 L 31.9785,4.9216 L 32.2981,5.20189
 L 32.5784,5.52151 L 32.8146,5.875 L 33.0026,6.25627 L 33.1393,6.65883 L 33.2222,7.07578 L 33.25,7.5
 L 33.2222,7.92421 L 33.1393,8.34116 L 33.0026,8.74371 L 32.8146,9.125 L 32.5784,9.47847 L 32.2981,9.7981
 L 31.9785,10.0784 L 31.625,10.3146 L 31.2437,10.5026 L 30.8412,10.6393 L 30.4242,10.7222 L 30,10.75
 z
M 14.5758,10.7222 L 14.1588,10.6393 L 13.7563,10.5026 L 13.375,10.3146 L 13.0215,10.0784 L 12.7019,9.7981
 L 12.4216,9.47847 L 12.1854,9.125 L 11.9974,8.74371 L 11.8607,8.34116 L 11.7778,7.92421 L 11.75,7.5
 L 11.7778,7.07578 L 11.8607,6.65883 L 11.9974,6.25627 L 12.1854,5.875 L 12.4216,5.52151 L 12.7019,5.20189
 L 13.0215,4.9216 L 13.375,4.68541 L 13.7563,4.49739 L 14.1588,4.36073 L 14.5758,4.2778 L 15,4.25
 L 15.4242,4.2778 L 15.8412,4.36073 L 16.2437,4.49739 L 16.625,4.68541 L 16.9785,4.9216 L 17.2981,5.20189
 L 17.5784,5.52151 L 17.8146,5.875 L 18.0026,6.25627 L 18.1393,6.65883 L 18.2222,7.07578 L 18.25,7.5
 L 18.2222,7.92421 L 18.1393,8.34116 L 18.0026,8.74371 L 17.8146,9.125 L 17.5784,9.47847 L 17.2981,9.7981
 L 16.9785,10.0784 L 16.625,10.3146 L 16.2437,10.5026 L 15.8412,10.6393 L 15.4242,10.7222 L 15,10.75
 z
M -18.0026,8.74371 L -18.1393,8.34116 L -18.2222,7.92421 L -18.25,7.5 L -18.2222,7.07578 L -18.1393,6.65883
 L -18.0026,6.25627 L -17.8146,5.875 L -17.5784,5.52151 L -17.2981,5.20189 L -16.9785,4.9216 L -16.625,4.68541
 L -16.2437,4.49739 L -15.8412,4.36073 L -15.4242,4.2778 L -15,4.25 L -14.5758,4.2778 L -14.1588,4.36073
 L -13.7563,4.49739 L -13.375,4.68541 L -13.0215,4.9216 L -12.7019,5.20189 L -12.4216,5.52151 L -12.1854,5.875
 L -11.9974,6.25627 L -11.8607,6.65883 L -11.7778,7.07578 L -11.75,7.5 L -11.7778,7.92421 L -11.8607,8.34116
 L -11.9974,8.74371 L -12.1854,9.125 L -12.4216,9.47847 L -12.7019,9.7981 L -13.0215,10.0784 L -13.375,10.3146
 L -13.7563,10.5026 L -14.1588,10.6393 L -14.5758,10.7222 L -15,10.75 L -15.4242,10.7222 L -15.8412,10.6393
 L -16.2437,10.5026 L -16.625,10.3146 L -16.9785,10.0784 L -17.2981,9.7981 L -17.5784,9.47847 L -17.8146,9.125
 z
M -30.4242,25.7222 L -30.8412,25.6393 L -31.2437,25.5026 L -31.625,25.3146 L -31.9785,25.0784 L -32.2981,24.7981
 L -32.5784,24.4785 L -32.8146,24.125 L -33.0026,23.7437 L -33.1393,23.3412 L -33.2222,22.9242 L -33.25,22.5
 L -33.2222,22.0758 L -33.1393,21.6588 L -33.0026,21.2563 L -32.8146,20.875 L -32.5784,20.5215 L -32.2981,20.2019
 L -31.9785,19.9216 L -31.625,19.6854 L -31.2437,19.4974 L -30.8412,19.3607 L -30.4242,19.2778 L -30,19.25
 L -29.5758,19.2778 L -29.1588,19.3607 L -28.7563,19.4974 L -28.375,19.6854 L -28.0215,19.9216 L -27.7019,20.2019
 L -27.4216,20.5215 L -27.1854,20.875 L -26.9974,21.2563 L -26.8607,21.6588 L -26.7778,22.0758 L -26.75,22.5
 L -26.7778,22.9242 L -26.8607,23.3412 L -26.9974,23.7437 L -27.1854,24.125 L -27.4216,24.4785 L -27.7019,24.7981
 L -28.0215,25.0784 L -28.375,25.3146 L -28.7563,25.5026 L -29.1588,25.6393 L -29.5758,25.7222 L -30,25.75
 z
M -15.4242,25.7222 L -15.8412,25.6393 L -16.2437,25.5026 L -16.625,25.3146 L -16.9785,25.0784 L -17.2981,24.7981
 L -17.5784,24.4785 L -17.8146,24.125 L -18.0026,23.7437 L -18.1393,23.3412 L -18.2222,22.9242 L -18.25,22.5
 L -18.2222,22.0758 L -18.1393,21.6588 L -18.0026,21.2563 L -17.8146,20.875 L -17.5784,20.5215 L -17.2981,20.2019
 L -16.9785,19.9216 L -16.625,19.6854 L -16.2437,19.4974 L -15.8412,19.3607 L -15.4242,19.2778 L -15,19.25
 L -14.5758,19.2778 L -14.1588,19.3607 L -13.7563,19.4974 L -13.375,19.6854 L -13.0215,19.9216 L -12.7019,20.2019
 L -12.4216,20.5215 L -12.1854,20.875 L -11.9974,21.2563 L -11.8607,21.6588 L -11.7778,22.0758 L -11.75,22.5
 L -11.7778,22.9242 L -11.8607,23.3412 L -11.9974,23.7437 L -12.1854,24.125 L -12.4216,24.4785 L -12.7019,24.7981
 L -13.0215,25.0784 L -13.375,25.3146 L -13.7563,25.5026 L -14.1588,25.6393 L -14.5758,25.7222 L -15,25.75
 z
M 14.5758,25.7222 L 14.1588,25.6393 L 13.7563,25.5026 L 13.375,25.3146 L 13.0215,25.0784 L 12.7019,24.7981
 L 12.4216,24.4785 L 12.1854,24.125 L 11.9974,23.7437 L 11.8607,23.3412 L 11.7778,22.9242 L 11.75,22.5
 L 11.7778,22.0758 L 11.8607,21.6588 L 11.9974,21.2563 L 12.1854,20.875 L 12.4216,20.5215 L 12.7019,20.2019
 L 13.0215,19.9216 L 13.375,19.6854 L 13.7563,19.4974 L 14.1588,19.3607 L 14.5758,19.2778 L 15,19.25
 L 15.4242,19.2778 L 15.8412,19.3607 L 16.2437,19.4974 L 16.625,19.6854 L 16.9785,19.9216 L 17.2981,20.2019
 L 17.5784,20.5215 L 17.8146,20.875 L 18.0026,21.2563 L 18.1393,21.6588 L 18.2222,22.0758 L 18.25,22.5
 L 18.2222,22.9242 L 18.1393,23.3412 L 18.0026,23.7437 L 17.8146,24.125 L 17.5784,24.4785 L 17.2981,24.7981
 L 16.9785,25.0784 L 16.625,25.3146 L 16.2437,25.5026 L 15.8412,25.6393 L 15.4242,25.7222 L 15,25.75
 z
M 29.5758,25.7222 L 29.1588,25.6393 L 28.7563,25.5026 L 28.375,25.3146 L 28.0215,25.0784 L 27.7019,24.7981
 L 27.4216,24.4785 L 27.1854,24.125 L 26.9974,23.7437 L 26.8607,23.3412 L 26.7778,22.9242 L 26.75,22.5
 L 26.7778,22.0758 L 26.8607,21.6588 L 26.9974,21.2563 L 27.1854,20.875 L 27.4216,20.5215 L 27.7019,20.2019
 L 28.0215,19.9216 L 28.375,19.6854 L 28.7563,19.4974 L 29.1588,19.3607 L 29.5758,19.2778 L 30,19.25
 L 30.4242,19.2778 L 30.8412,19.3607 L 31.2437,19.4974 L 31.625,19.6854 L 31.9785,19.9216 L 32.2981,20.2019
 L 32.5784,20.5215 L 32.8146,20.875 L 33.0026,21.2563 L 33.1393,21.6588 L 33.2222,22.0758 L 33.25,22.5
 L 33.2222,22.9242 L 33.1393,23.3412 L 33.0026,23.7437 L 32.8146,24.125 L 32.5784,24.4785 L 32.2981,24.7981
 L 31.9785,25.0784 L 31.625,25.3146 L 31.2437,25.5026 L 30.8412,25.6393 L 30.4242,25.7222 L 30,25.75
 z
M -0.42421,25.7222 L -0.841156,25.6393 L -1.24371,25.5026 L -1.625,25.3146 L -1.97847,25.0784 L -2.2981,24.7981
 L -2.57838,24.4785 L -2.81458,24.125 L -3.00259,23.7437 L -3.13925,23.3412 L -3.22218,22.9242 L -3.25,22.5
 L -3.22218,22.0758 L -3.13925,21.6588 L -3.00259,21.2563 L -2.81458,20.875 L -2.57838,20.5215 L -2.2981,20.2019
 L -1.97847,19.9216 L -1.625,19.6854 L -1.24371,19.4974 L -0.841156,19.3607 L -0.42421,19.2778 L 0,19.25
 L 0.42421,19.2778 L 0.841156,19.3607 L 1.24371,19.4974 L 1.625,19.6854 L 1.97847,19.9216 L 2.2981,20.2019
 L 2.57838,20.5215 L 2.81458,20.875 L 3.00259,21.2563 L 3.13925,21.6588 L 3.22218,22.0758 L 3.25,22.5
 L 3.22218,22.9242 L 3.13925,23.3412 L 3.00259,23.7437 L 2.81458,24.125 L 2.57838,24.4785 L 2.2981,24.7981
 L 1.97847,25.0784 L 1.625,25.3146 L 1.24371,25.5026 L 0.841156,25.6393 L 0.42421,25.7222 L 0,25.75
 z
M -28.0215,10.0784 L -28.375,10.3146 L -28.7563,10.5026 L -29.1588,10.6393 L -29.5758,10.7222 L -30,10.75
 L -30.4242,10.7222 L -30.8412,10.6393 L -31.2437,10.5026 L -31.625,10.3146 L -31.9785,10.0784 L -32.2981,9.7981
 L -32.5784,9.47847 L -32.8146,9.125 L -33.0026,8.74371 L -33.1393,8.34116 L -33.2222,7.92421 L -33.25,7.5
 L -33.2222,7.07578 L -33.1393,6.65883 L -33.0026,6.25627 L -32.8146,5.875 L -32.5784,5.52151 L -32.2981,5.20189
 L -31.9785,4.9216 L -31.625,4.68541 L -31.2437,4.49739 L -30.8412,4.36073 L -30.4242,4.2778 L -30,4.25
 L -29.5758,4.2778 L -29.1588,4.36073 L -28.7563,4.49739 L -28.375,4.68541 L -28.0215,4.9216 L -27.7019,5.20189
 L -27.4216,5.52151 L -27.1854,5.875 L -26.9974,6.25627 L -26.8607,6.65883 L -26.7778,7.07578 L -26.75,7.5
 L -26.7778,7.92421 L -26.8607,8.34116 L -26.9974,8.74371 L -27.1854,9.125 L -27.4216,9.47847 L -27.7019,9.7981
 z
" stroke="black" fill="lightgray" stroke-width="0.5"/>
</svg>
