G04 #@! TF.GenerationSoftware,KiCad,Pcbnew,(5.0.2)-1*
G04 #@! TF.CreationDate,2021-07-15T21:47:39+01:00*
G04 #@! TF.ProjectId,KICAD-CN-BAS2-03-03,4b494341-442d-4434-9e2d-424153322d30,rev?*
G04 #@! TF.SameCoordinates,Original*
G04 #@! TF.FileFunction,Copper,L1,Top*
G04 #@! TF.FilePolarity,Positive*
%FSLAX46Y46*%
G04 Gerber Fmt 4.6, Leading zero omitted, Abs format (unit mm)*
G04 Created by KiCad (PCBNEW (5.0.2)-1) date 15/07/2021 21:47:39*
%MOMM*%
%LPD*%
G01*
G04 APERTURE LIST*
G04 #@! TA.AperFunction,ComponentPad*
%ADD10R,2.000000X3.000000*%
G04 #@! TD*
G04 #@! TA.AperFunction,ComponentPad*
%ADD11O,2.000000X3.000000*%
G04 #@! TD*
G04 #@! TA.AperFunction,ComponentPad*
%ADD12O,4.000000X3.000000*%
G04 #@! TD*
G04 #@! TA.AperFunction,ComponentPad*
%ADD13O,3.000000X4.000000*%
G04 #@! TD*
G04 #@! TA.AperFunction,ComponentPad*
%ADD14C,2.000000*%
G04 #@! TD*
G04 #@! TA.AperFunction,Conductor*
%ADD15C,0.750000*%
G04 #@! TD*
G04 APERTURE END LIST*
D10*
G04 #@! TO.P,J1,1*
G04 #@! TO.N,Net-(J1-Pad1)*
X-8770000Y11225000D03*
D11*
G04 #@! TO.P,J1,2*
G04 #@! TO.N,Net-(J1-Pad2)*
X-6230000Y11225000D03*
G04 #@! TO.P,J1,3*
G04 #@! TO.N,N/C*
X-3690000Y11225000D03*
G04 #@! TD*
D12*
G04 #@! TO.P,J2,2*
G04 #@! TO.N,Net-(J1-Pad2)*
X0Y-14793400D03*
G04 #@! TO.P,J2,1*
G04 #@! TO.N,Net-(J2-Pad1)*
X0Y-8798600D03*
D13*
G04 #@! TO.P,J2,3*
G04 #@! TO.N,Net-(J2-Pad3)*
X4699000Y-11799600D03*
G04 #@! TD*
D11*
G04 #@! TO.P,J3,3*
G04 #@! TO.N,N/C*
X11310000Y11225000D03*
G04 #@! TO.P,J3,2*
G04 #@! TO.N,Net-(J1-Pad2)*
X8770000Y11225000D03*
D10*
G04 #@! TO.P,J3,1*
G04 #@! TO.N,Net-(J3-Pad1)*
X6230000Y11225000D03*
G04 #@! TD*
D14*
G04 #@! TO.P,S1,2*
G04 #@! TO.N,Net-(J2-Pad1)*
X-10750000Y3250000D03*
G04 #@! TO.P,S1,1*
G04 #@! TO.N,Net-(J1-Pad1)*
X-10750000Y7750000D03*
G04 #@! TO.P,S1,2*
G04 #@! TO.N,Net-(J2-Pad1)*
X-4250000Y3250000D03*
G04 #@! TO.P,S1,1*
G04 #@! TO.N,Net-(J1-Pad1)*
X-4250000Y7750000D03*
G04 #@! TD*
G04 #@! TO.P,S2,1*
G04 #@! TO.N,Net-(J3-Pad1)*
X10750000Y7750000D03*
G04 #@! TO.P,S2,2*
G04 #@! TO.N,Net-(J2-Pad1)*
X10750000Y3250000D03*
G04 #@! TO.P,S2,1*
G04 #@! TO.N,Net-(J3-Pad1)*
X4250000Y7750000D03*
G04 #@! TO.P,S2,2*
G04 #@! TO.N,Net-(J2-Pad1)*
X4250000Y3250000D03*
G04 #@! TD*
D15*
G04 #@! TO.N,Net-(J1-Pad1)*
X-8770000Y9730000D02*
X-10750000Y7750000D01*
X-8770000Y10475000D02*
X-8770000Y9730000D01*
X-10750000Y7750000D02*
X-4250000Y7750000D01*
G04 #@! TO.N,Net-(J1-Pad2)*
X8770000Y12400002D02*
X8770000Y10475000D01*
X7769992Y13400010D02*
X8770000Y12400002D01*
X-6230000Y11553821D02*
X-4383811Y13400010D01*
X-6230000Y10475000D02*
X-6230000Y11553821D01*
X-2675010Y-9868390D02*
X0Y-12543400D01*
X0Y-12543400D02*
X0Y-14793400D01*
X-2675010Y-7897682D02*
X-2675010Y-9868390D01*
X-1270000Y13400010D02*
X-1270000Y-6492672D01*
X-1270000Y-6492672D02*
X-2675010Y-7897682D01*
X-4383811Y13400010D02*
X-1270000Y13400010D01*
X-1270000Y13400010D02*
X7769992Y13400010D01*
G04 #@! TO.N,Net-(J3-Pad1)*
X6230000Y9730000D02*
X4250000Y7750000D01*
X6230000Y10475000D02*
X6230000Y9730000D01*
X4250000Y7750000D02*
X10750000Y7750000D01*
G04 #@! TD*
M02*
