<svg
xmlns:dc="http://purl.org/dc/elements/1.1/"
xmlns:cc="http://creativecommons.org/ns#"
xmlns:rdf="http://www.w3.org/1999/02/22-rdf-syntax-ns#"
xmlns:svg="http://www.w3.org/2000/svg"
xmlns="http://www.w3.org/2000/svg"
xmlns:xlink="http://www.w3.org/1999/xlink"
xmlns:sodipodi="http://sodipodi.sourceforge.net/DTD/sodipodi-0.dtd"
xmlns:inkscape="http://www.inkscape.org/namespaces/inkscape"
width="123mm"
height="103mm"
id="svg2"
version="1.1"
inkscape:version="0.48.1 "
sodipodi:docname="MultiLineTextINK.svg">
	<rect
		style="fill:none;stroke:#000000;stroke-width:2px " 
		x="5mm"
		y="5mm"
		rx="5mm"
		ry="5mm"
		width="113mm"
		height="93mm"
	/>
	<circle
		style="fill:none;stroke:#000000;stroke-width:2px " 
		cx="11.5mm"
		cy="91.5mm"
		r="3mm"
		id="oomID20036"
	/>
	<circle
		style="fill:none;stroke:#000000;stroke-width:2px " 
		cx="11.5mm"
		cy="71.5mm"
		r="3mm"
		id="oomID20037"
	/>
	<circle
		style="fill:none;stroke:#000000;stroke-width:2px " 
		cx="11.5mm"
		cy="51.5mm"
		r="3mm"
		id="oomID20038"
	/>
	<circle
		style="fill:none;stroke:#000000;stroke-width:2px " 
		cx="11.5mm"
		cy="31.5mm"
		r="3mm"
		id="oomID20039"
	/>
	<circle
		style="fill:none;stroke:#000000;stroke-width:2px " 
		cx="11.5mm"
		cy="11.5mm"
		r="3mm"
		id="oomID20040"
	/>
	<circle
		style="fill:none;stroke:#000000;stroke-width:2px " 
		cx="31.5mm"
		cy="91.5mm"
		r="3mm"
		id="oomID20041"
	/>
	<circle
		style="fill:none;stroke:#000000;stroke-width:2px " 
		cx="31.5mm"
		cy="71.5mm"
		r="3mm"
		id="oomID20042"
	/>
	<circle
		style="fill:none;stroke:#000000;stroke-width:2px " 
		cx="31.5mm"
		cy="51.5mm"
		r="3mm"
		id="oomID20043"
	/>
	<circle
		style="fill:none;stroke:#000000;stroke-width:2px " 
		cx="31.5mm"
		cy="31.5mm"
		r="3mm"
		id="oomID20044"
	/>
	<circle
		style="fill:none;stroke:#000000;stroke-width:2px " 
		cx="31.5mm"
		cy="11.5mm"
		r="3mm"
		id="oomID20045"
	/>
	<circle
		style="fill:none;stroke:#000000;stroke-width:2px " 
		cx="51.5mm"
		cy="91.5mm"
		r="3mm"
		id="oomID20046"
	/>
	<circle
		style="fill:none;stroke:#000000;stroke-width:2px " 
		cx="51.5mm"
		cy="71.5mm"
		r="3mm"
		id="oomID20047"
	/>
	<circle
		style="fill:none;stroke:#000000;stroke-width:2px " 
		cx="51.5mm"
		cy="51.5mm"
		r="3mm"
		id="oomID20048"
	/>
	<circle
		style="fill:none;stroke:#000000;stroke-width:2px " 
		cx="51.5mm"
		cy="31.5mm"
		r="3mm"
		id="oomID20049"
	/>
	<circle
		style="fill:none;stroke:#000000;stroke-width:2px " 
		cx="51.5mm"
		cy="11.5mm"
		r="3mm"
		id="oomID20050"
	/>
	<circle
		style="fill:none;stroke:#000000;stroke-width:2px " 
		cx="71.5mm"
		cy="91.5mm"
		r="3mm"
		id="oomID20051"
	/>
	<circle
		style="fill:none;stroke:#000000;stroke-width:2px " 
		cx="71.5mm"
		cy="71.5mm"
		r="3mm"
		id="oomID20052"
	/>
	<circle
		style="fill:none;stroke:#000000;stroke-width:2px " 
		cx="71.5mm"
		cy="51.5mm"
		r="3mm"
		id="oomID20053"
	/>
	<circle
		style="fill:none;stroke:#000000;stroke-width:2px " 
		cx="71.5mm"
		cy="31.5mm"
		r="3mm"
		id="oomID20054"
	/>
	<circle
		style="fill:none;stroke:#000000;stroke-width:2px " 
		cx="71.5mm"
		cy="11.5mm"
		r="3mm"
		id="oomID20055"
	/>
	<circle
		style="fill:none;stroke:#000000;stroke-width:2px " 
		cx="91.5mm"
		cy="91.5mm"
		r="3mm"
		id="oomID20056"
	/>
	<circle
		style="fill:none;stroke:#000000;stroke-width:2px " 
		cx="91.5mm"
		cy="71.5mm"
		r="3mm"
		id="oomID20057"
	/>
	<circle
		style="fill:none;stroke:#000000;stroke-width:2px " 
		cx="91.5mm"
		cy="51.5mm"
		r="3mm"
		id="oomID20058"
	/>
	<circle
		style="fill:none;stroke:#000000;stroke-width:2px " 
		cx="91.5mm"
		cy="31.5mm"
		r="3mm"
		id="oomID20059"
	/>
	<circle
		style="fill:none;stroke:#000000;stroke-width:2px " 
		cx="91.5mm"
		cy="11.5mm"
		r="3mm"
		id="oomID20060"
	/>
	<circle
		style="fill:none;stroke:#000000;stroke-width:2px " 
		cx="111.5mm"
		cy="91.5mm"
		r="3mm"
		id="oomID20061"
	/>
	<circle
		style="fill:none;stroke:#000000;stroke-width:2px " 
		cx="111.5mm"
		cy="71.5mm"
		r="3mm"
		id="oomID20062"
	/>
	<circle
		style="fill:none;stroke:#000000;stroke-width:2px " 
		cx="111.5mm"
		cy="51.5mm"
		r="3mm"
		id="oomID20063"
	/>
	<circle
		style="fill:none;stroke:#000000;stroke-width:2px " 
		cx="111.5mm"
		cy="31.5mm"
		r="3mm"
		id="oomID20064"
	/>
	<circle
		style="fill:none;stroke:#000000;stroke-width:2px " 
		cx="111.5mm"
		cy="11.5mm"
		r="3mm"
		id="oomID20065"
	/>
	<rect
		style="fill:none;stroke:#000000;stroke-width:2px " 
		x="10mm"
		y="78.5mm"
		width="3mm"
		height="6mm"
		id="oomID20066"
	/>
	<rect
		style="fill:none;stroke:#000000;stroke-width:2px " 
		x="10mm"
		y="58.5mm"
		width="3mm"
		height="6mm"
		id="oomID20067"
	/>
	<rect
		style="fill:none;stroke:#000000;stroke-width:2px " 
		x="10mm"
		y="38.5mm"
		width="3mm"
		height="6mm"
		id="oomID20068"
	/>
	<rect
		style="fill:none;stroke:#000000;stroke-width:2px " 
		x="10mm"
		y="18.5mm"
		width="3mm"
		height="6mm"
		id="oomID20069"
	/>
	<rect
		style="fill:none;stroke:#000000;stroke-width:2px " 
		x="30mm"
		y="78.5mm"
		width="3mm"
		height="6mm"
		id="oomID20070"
	/>
	<rect
		style="fill:none;stroke:#000000;stroke-width:2px " 
		x="30mm"
		y="58.5mm"
		width="3mm"
		height="6mm"
		id="oomID20071"
	/>
	<rect
		style="fill:none;stroke:#000000;stroke-width:2px " 
		x="30mm"
		y="38.5mm"
		width="3mm"
		height="6mm"
		id="oomID20072"
	/>
	<rect
		style="fill:none;stroke:#000000;stroke-width:2px " 
		x="30mm"
		y="18.5mm"
		width="3mm"
		height="6mm"
		id="oomID20073"
	/>
	<rect
		style="fill:none;stroke:#000000;stroke-width:2px " 
		x="50mm"
		y="78.5mm"
		width="3mm"
		height="6mm"
		id="oomID20074"
	/>
	<rect
		style="fill:none;stroke:#000000;stroke-width:2px " 
		x="50mm"
		y="58.5mm"
		width="3mm"
		height="6mm"
		id="oomID20075"
	/>
	<rect
		style="fill:none;stroke:#000000;stroke-width:2px " 
		x="50mm"
		y="38.5mm"
		width="3mm"
		height="6mm"
		id="oomID20076"
	/>
	<rect
		style="fill:none;stroke:#000000;stroke-width:2px " 
		x="50mm"
		y="18.5mm"
		width="3mm"
		height="6mm"
		id="oomID20077"
	/>
	<rect
		style="fill:none;stroke:#000000;stroke-width:2px " 
		x="70mm"
		y="78.5mm"
		width="3mm"
		height="6mm"
		id="oomID20078"
	/>
	<rect
		style="fill:none;stroke:#000000;stroke-width:2px " 
		x="70mm"
		y="58.5mm"
		width="3mm"
		height="6mm"
		id="oomID20079"
	/>
	<rect
		style="fill:none;stroke:#000000;stroke-width:2px " 
		x="70mm"
		y="38.5mm"
		width="3mm"
		height="6mm"
		id="oomID20080"
	/>
	<rect
		style="fill:none;stroke:#000000;stroke-width:2px " 
		x="70mm"
		y="18.5mm"
		width="3mm"
		height="6mm"
		id="oomID20081"
	/>
	<rect
		style="fill:none;stroke:#000000;stroke-width:2px " 
		x="90mm"
		y="78.5mm"
		width="3mm"
		height="6mm"
		id="oomID20082"
	/>
	<rect
		style="fill:none;stroke:#000000;stroke-width:2px " 
		x="90mm"
		y="58.5mm"
		width="3mm"
		height="6mm"
		id="oomID20083"
	/>
	<rect
		style="fill:none;stroke:#000000;stroke-width:2px " 
		x="90mm"
		y="38.5mm"
		width="3mm"
		height="6mm"
		id="oomID20084"
	/>
	<rect
		style="fill:none;stroke:#000000;stroke-width:2px " 
		x="90mm"
		y="18.5mm"
		width="3mm"
		height="6mm"
		id="oomID20085"
	/>
	<rect
		style="fill:none;stroke:#000000;stroke-width:2px " 
		x="110mm"
		y="78.5mm"
		width="3mm"
		height="6mm"
		id="oomID20086"
	/>
	<rect
		style="fill:none;stroke:#000000;stroke-width:2px " 
		x="110mm"
		y="58.5mm"
		width="3mm"
		height="6mm"
		id="oomID20087"
	/>
	<rect
		style="fill:none;stroke:#000000;stroke-width:2px " 
		x="110mm"
		y="38.5mm"
		width="3mm"
		height="6mm"
		id="oomID20088"
	/>
	<rect
		style="fill:none;stroke:#000000;stroke-width:2px " 
		x="110mm"
		y="18.5mm"
		width="3mm"
		height="6mm"
		id="oomID20089"
	/>
	<rect
		style="fill:none;stroke:#000000;stroke-width:2px " 
		x="18.5mm"
		y="90mm"
		width="6mm"
		height="3mm"
		id="oomID20090"
	/>
	<rect
		style="fill:none;stroke:#000000;stroke-width:2px " 
		x="18.5mm"
		y="70mm"
		width="6mm"
		height="3mm"
		id="oomID20091"
	/>
	<rect
		style="fill:none;stroke:#000000;stroke-width:2px " 
		x="18.5mm"
		y="50mm"
		width="6mm"
		height="3mm"
		id="oomID20092"
	/>
	<rect
		style="fill:none;stroke:#000000;stroke-width:2px " 
		x="18.5mm"
		y="30mm"
		width="6mm"
		height="3mm"
		id="oomID20093"
	/>
	<rect
		style="fill:none;stroke:#000000;stroke-width:2px " 
		x="18.5mm"
		y="10mm"
		width="6mm"
		height="3mm"
		id="oomID20094"
	/>
	<rect
		style="fill:none;stroke:#000000;stroke-width:2px " 
		x="38.5mm"
		y="90mm"
		width="6mm"
		height="3mm"
		id="oomID20095"
	/>
	<rect
		style="fill:none;stroke:#000000;stroke-width:2px " 
		x="38.5mm"
		y="70mm"
		width="6mm"
		height="3mm"
		id="oomID20096"
	/>
	<rect
		style="fill:none;stroke:#000000;stroke-width:2px " 
		x="38.5mm"
		y="50mm"
		width="6mm"
		height="3mm"
		id="oomID20097"
	/>
	<rect
		style="fill:none;stroke:#000000;stroke-width:2px " 
		x="38.5mm"
		y="30mm"
		width="6mm"
		height="3mm"
		id="oomID20098"
	/>
	<rect
		style="fill:none;stroke:#000000;stroke-width:2px " 
		x="38.5mm"
		y="10mm"
		width="6mm"
		height="3mm"
		id="oomID20099"
	/>
	<rect
		style="fill:none;stroke:#000000;stroke-width:2px " 
		x="58.5mm"
		y="90mm"
		width="6mm"
		height="3mm"
		id="oomID20100"
	/>
	<rect
		style="fill:none;stroke:#000000;stroke-width:2px " 
		x="58.5mm"
		y="70mm"
		width="6mm"
		height="3mm"
		id="oomID20101"
	/>
	<rect
		style="fill:none;stroke:#000000;stroke-width:2px " 
		x="58.5mm"
		y="50mm"
		width="6mm"
		height="3mm"
		id="oomID20102"
	/>
	<rect
		style="fill:none;stroke:#000000;stroke-width:2px " 
		x="58.5mm"
		y="30mm"
		width="6mm"
		height="3mm"
		id="oomID20103"
	/>
	<rect
		style="fill:none;stroke:#000000;stroke-width:2px " 
		x="58.5mm"
		y="10mm"
		width="6mm"
		height="3mm"
		id="oomID20104"
	/>
	<rect
		style="fill:none;stroke:#000000;stroke-width:2px " 
		x="78.5mm"
		y="90mm"
		width="6mm"
		height="3mm"
		id="oomID20105"
	/>
	<rect
		style="fill:none;stroke:#000000;stroke-width:2px " 
		x="78.5mm"
		y="70mm"
		width="6mm"
		height="3mm"
		id="oomID20106"
	/>
	<rect
		style="fill:none;stroke:#000000;stroke-width:2px " 
		x="78.5mm"
		y="50mm"
		width="6mm"
		height="3mm"
		id="oomID20107"
	/>
	<rect
		style="fill:none;stroke:#000000;stroke-width:2px " 
		x="78.5mm"
		y="30mm"
		width="6mm"
		height="3mm"
		id="oomID20108"
	/>
	<rect
		style="fill:none;stroke:#000000;stroke-width:2px " 
		x="78.5mm"
		y="10mm"
		width="6mm"
		height="3mm"
		id="oomID20109"
	/>
	<rect
		style="fill:none;stroke:#000000;stroke-width:2px " 
		x="98.5mm"
		y="90mm"
		width="6mm"
		height="3mm"
		id="oomID20110"
	/>
	<rect
		style="fill:none;stroke:#000000;stroke-width:2px " 
		x="98.5mm"
		y="70mm"
		width="6mm"
		height="3mm"
		id="oomID20111"
	/>
	<rect
		style="fill:none;stroke:#000000;stroke-width:2px " 
		x="98.5mm"
		y="50mm"
		width="6mm"
		height="3mm"
		id="oomID20112"
	/>
	<rect
		style="fill:none;stroke:#000000;stroke-width:2px " 
		x="98.5mm"
		y="30mm"
		width="6mm"
		height="3mm"
		id="oomID20113"
	/>
	<rect
		style="fill:none;stroke:#000000;stroke-width:2px " 
		x="98.5mm"
		y="10mm"
		width="6mm"
		height="3mm"
		id="oomID20114"
	/>
	<text x="21.5mm" y="81.5mm"
	style="text-anchor: middle; text-align: center; font-family: ENG_HelvLine; -inkscape-font-specification: ENG_HelvLine; font-size: 12pt; fill:none; font-style:normal;font-weight:normal;line-height:100%;letter-spacing:0px;word-spacing:0px;fill-opacity:1;stroke:#FFA500"
	><tspan sodipodi:role="line">PL</tspan><tspan sodipodi:role="line">06-05</tspan></text>
</svg>
