solid OpenSCAD_Model
  facet normal 0.535814 -0.844336 0
    outer loop
      vertex 18.4088 -20.3815 -5
      vertex 18.9389 -20.0451 0
      vertex 18.4088 -20.3815 0
    endloop
  endfacet
  facet normal 0.535814 -0.844336 0
    outer loop
      vertex 18.9389 -20.0451 0
      vertex 18.4088 -20.3815 -5
      vertex 18.9389 -20.0451 -5
    endloop
  endfacet
  facet normal 0.637486 -0.770462 0
    outer loop
      vertex 18.9389 -20.0451 -5
      vertex 19.4227 -19.6448 0
      vertex 18.9389 -20.0451 0
    endloop
  endfacet
  facet normal 0.637486 -0.770462 0
    outer loop
      vertex 19.4227 -19.6448 0
      vertex 18.9389 -20.0451 -5
      vertex 19.4227 -19.6448 -5
    endloop
  endfacet
  facet normal 1 -0 0
    outer loop
      vertex 21 15.324 0
      vertex 21 16 -5
      vertex 21 16 0
    endloop
  endfacet
  facet normal 1 0 0
    outer loop
      vertex 21 16 -5
      vertex 21 15.324 0
      vertex 21 15.324 -5
    endloop
  endfacet
  facet normal 1 -0 0
    outer loop
      vertex 21 -16 0
      vertex 21 -15.324 -5
      vertex 21 -15.324 0
    endloop
  endfacet
  facet normal 1 0 0
    outer loop
      vertex 21 -15.324 -5
      vertex 21 -16 0
      vertex 21 -16 -5
    endloop
  endfacet
  facet normal 0 -1 0
    outer loop
      vertex -20 -21 -5
      vertex -15.2425 -21 0
      vertex -20 -21 0
    endloop
  endfacet
  facet normal 0 -1 -0
    outer loop
      vertex -15.2425 -21 0
      vertex -20 -21 -5
      vertex -15.2425 -21 -5
    endloop
  endfacet
  facet normal 0 -1 0
    outer loop
      vertex 15.2425 -21 -5
      vertex 16 -21 0
      vertex 15.2425 -21 0
    endloop
  endfacet
  facet normal 0 -1 -0
    outer loop
      vertex 16 -21 0
      vertex 15.2425 -21 -5
      vertex 16 -21 -5
    endloop
  endfacet
  facet normal 0.425812 -0.904811 0
    outer loop
      vertex 17.8406 -20.6489 -5
      vertex 18.4088 -20.3815 0
      vertex 17.8406 -20.6489 0
    endloop
  endfacet
  facet normal 0.425812 -0.904811 0
    outer loop
      vertex 18.4088 -20.3815 0
      vertex 17.8406 -20.6489 -5
      vertex 18.4088 -20.3815 -5
    endloop
  endfacet
  facet normal 0 1 -0
    outer loop
      vertex -15.2425 21 -5
      vertex -20 21 0
      vertex -15.2425 21 0
    endloop
  endfacet
  facet normal 0 1 0
    outer loop
      vertex -20 21 0
      vertex -15.2425 21 -5
      vertex -20 21 -5
    endloop
  endfacet
  facet normal 0 1 -0
    outer loop
      vertex 16 21 -5
      vertex 15.2425 21 0
      vertex 16 21 0
    endloop
  endfacet
  facet normal 0 1 0
    outer loop
      vertex 15.2425 21 0
      vertex 16 21 -5
      vertex 15.2425 21 -5
    endloop
  endfacet
  facet normal 0.929745 -0.368203 0
    outer loop
      vertex 20.5241 -18.1289 0
      vertex 20.7553 -17.5451 -5
      vertex 20.7553 -17.5451 0
    endloop
  endfacet
  facet normal 0.929745 -0.368203 0
    outer loop
      vertex 20.7553 -17.5451 -5
      vertex 20.5241 -18.1289 0
      vertex 20.5241 -18.1289 -5
    endloop
  endfacet
  facet normal 0 0 -1
    outer loop
      vertex -15.3767 20.9882 -5
      vertex -15.2425 21 -5
      vertex -15.2588 20.9882 -5
    endloop
  endfacet
  facet normal 0 0 -1
    outer loop
      vertex -15.3767 20.9882 -5
      vertex -20 21 -5
      vertex -15.2425 21 -5
    endloop
  endfacet
  facet normal 0 0 -1
    outer loop
      vertex -16.1243 20.8937 -5
      vertex -20 21 -5
      vertex -15.3767 20.9882 -5
    endloop
  endfacet
  facet normal 0 0 -1
    outer loop
      vertex -16.8541 20.7063 -5
      vertex -20 21 -5
      vertex -16.1243 20.8937 -5
    endloop
  endfacet
  facet normal 0 0 -1
    outer loop
      vertex -17.5547 20.429 -5
      vertex -20 21 -5
      vertex -16.8541 20.7063 -5
    endloop
  endfacet
  facet normal 0 0 -1
    outer loop
      vertex -18.215 20.066 -5
      vertex -20 21 -5
      vertex -17.5547 20.429 -5
    endloop
  endfacet
  facet normal 0 0 -1
    outer loop
      vertex -18.8245 19.6231 -5
      vertex -20 21 -5
      vertex -18.215 20.066 -5
    endloop
  endfacet
  facet normal 0 0 -1
    outer loop
      vertex -19.3738 19.1073 -5
      vertex -20 21 -5
      vertex -18.8245 19.6231 -5
    endloop
  endfacet
  facet normal 0 0 -1
    outer loop
      vertex -20.6267 20.9606 -5
      vertex -19.3738 19.1073 -5
      vertex -19.8541 18.5267 -5
    endloop
  endfacet
  facet normal 0 0 -1
    outer loop
      vertex -21.8406 20.6489 -5
      vertex -19.8541 18.5267 -5
      vertex -20.2578 17.8905 -5
    endloop
  endfacet
  facet normal 0 0 -1
    outer loop
      vertex -23.4227 19.6448 -5
      vertex -20.2578 17.8905 -5
      vertex -20.5787 17.2087 -5
    endloop
  endfacet
  facet normal 0 0 -1
    outer loop
      vertex -19.3738 19.1073 -5
      vertex -20.6267 20.9606 -5
      vertex -20 21 -5
    endloop
  endfacet
  facet normal 0 0 -1
    outer loop
      vertex -24.2216 18.6791 -5
      vertex -20.5787 17.2087 -5
      vertex -20.8115 16.4921 -5
    endloop
  endfacet
  facet normal 0 0 -1
    outer loop
      vertex -24.9114 16.9369 -5
      vertex -20.8115 16.4921 -5
      vertex -20.9527 15.752 -5
    endloop
  endfacet
  facet normal 0 0 -1
    outer loop
      vertex -21.0344 15.2824 -5
      vertex -20.9527 15.752 -5
      vertex -20.9779 15.3507 -5
    endloop
  endfacet
  facet normal 0 0 -1
    outer loop
      vertex -25 16 -5
      vertex -20.9527 15.752 -5
      vertex -21.0344 15.2824 -5
    endloop
  endfacet
  facet normal 0 0 -1
    outer loop
      vertex -19.8541 18.5267 -5
      vertex -21.2435 20.8429 -5
      vertex -20.6267 20.9606 -5
    endloop
  endfacet
  facet normal 0 0 -1
    outer loop
      vertex -19.8541 18.5267 -5
      vertex -21.8406 20.6489 -5
      vertex -21.2435 20.8429 -5
    endloop
  endfacet
  facet normal 0 0 -1
    outer loop
      vertex -20.2578 17.8905 -5
      vertex -22.4088 20.3815 -5
      vertex -21.8406 20.6489 -5
    endloop
  endfacet
  facet normal 0 0 -1
    outer loop
      vertex -25 16 -5
      vertex -21.0344 15.2824 -5
      vertex -22.784 12.5256 -5
    endloop
  endfacet
  facet normal 0 0 -1
    outer loop
      vertex -20.2578 17.8905 -5
      vertex -22.9389 20.0451 -5
      vertex -22.4088 20.3815 -5
    endloop
  endfacet
  facet normal 0 0 -1
    outer loop
      vertex -20.2578 17.8905 -5
      vertex -23.4227 19.6448 -5
      vertex -22.9389 20.0451 -5
    endloop
  endfacet
  facet normal 0 0 -1
    outer loop
      vertex -20.5787 17.2087 -5
      vertex -23.8526 19.1871 -5
      vertex -23.4227 19.6448 -5
    endloop
  endfacet
  facet normal 0 0 -1
    outer loop
      vertex -25 16 -5
      vertex -22.784 12.5256 -5
      vertex -24.1742 9.57124 -5
    endloop
  endfacet
  facet normal 0 0 -1
    outer loop
      vertex -20.9527 15.752 -5
      vertex -25 16 -5
      vertex -24.9114 16.9369 -5
    endloop
  endfacet
  facet normal 0 0 -1
    outer loop
      vertex -20.5787 17.2087 -5
      vertex -24.2216 18.6791 -5
      vertex -23.8526 19.1871 -5
    endloop
  endfacet
  facet normal 0 0 -1
    outer loop
      vertex -20.8115 16.4921 -5
      vertex -24.5241 18.1289 -5
      vertex -24.2216 18.6791 -5
    endloop
  endfacet
  facet normal 0 0 -1
    outer loop
      vertex -20.8115 16.4921 -5
      vertex -24.7553 17.5451 -5
      vertex -24.5241 18.1289 -5
    endloop
  endfacet
  facet normal 0 0 -1
    outer loop
      vertex -25 16 -5
      vertex -24.1742 9.57124 -5
      vertex -25 7.02965 -5
    endloop
  endfacet
  facet normal 0 0 -1
    outer loop
      vertex -20.8115 16.4921 -5
      vertex -24.9114 16.9369 -5
      vertex -24.7553 17.5451 -5
    endloop
  endfacet
  facet normal 0 0 -1
    outer loop
      vertex -20 -21 -5
      vertex -16.573 -20.0333 -5
      vertex -15.2425 -21 -5
    endloop
  endfacet
  facet normal 0 0 -1
    outer loop
      vertex -20 -21 -5
      vertex -18.9532 -17.7982 -5
      vertex -16.573 -20.0333 -5
    endloop
  endfacet
  facet normal 0 0 -1
    outer loop
      vertex -20.9369 -20.9114 -5
      vertex -18.9532 -17.7982 -5
      vertex -20 -21 -5
    endloop
  endfacet
  facet normal 0 0 -1
    outer loop
      vertex -21.5451 -20.7553 -5
      vertex -18.9532 -17.7982 -5
      vertex -20.9369 -20.9114 -5
    endloop
  endfacet
  facet normal 0 0 -1
    outer loop
      vertex -22.1289 -20.5241 -5
      vertex -18.9532 -17.7982 -5
      vertex -21.5451 -20.7553 -5
    endloop
  endfacet
  facet normal 0 0 -1
    outer loop
      vertex -22.6791 -20.2216 -5
      vertex -18.9532 -17.7982 -5
      vertex -22.1289 -20.5241 -5
    endloop
  endfacet
  facet normal 0 0 -1
    outer loop
      vertex -23.1871 -19.8526 -5
      vertex -18.9532 -17.7982 -5
      vertex -22.6791 -20.2216 -5
    endloop
  endfacet
  facet normal -0 0 -1
    outer loop
      vertex -18.9532 -17.7982 -5
      vertex -23.1871 -19.8526 -5
      vertex -21.0344 -15.2824 -5
    endloop
  endfacet
  facet normal 0 0 -1
    outer loop
      vertex -23.6448 -19.4227 -5
      vertex -21.0344 -15.2824 -5
      vertex -23.1871 -19.8526 -5
    endloop
  endfacet
  facet normal 0 0 -1
    outer loop
      vertex -24.0451 -18.9389 -5
      vertex -21.0344 -15.2824 -5
      vertex -23.6448 -19.4227 -5
    endloop
  endfacet
  facet normal 0 0 -1
    outer loop
      vertex -24.3815 -18.4088 -5
      vertex -21.0344 -15.2824 -5
      vertex -24.0451 -18.9389 -5
    endloop
  endfacet
  facet normal 0 0 -1
    outer loop
      vertex -24.6489 -17.8406 -5
      vertex -21.0344 -15.2824 -5
      vertex -24.3815 -18.4088 -5
    endloop
  endfacet
  facet normal 0 0 -1
    outer loop
      vertex -24.8429 -17.2435 -5
      vertex -21.0344 -15.2824 -5
      vertex -24.6489 -17.8406 -5
    endloop
  endfacet
  facet normal 0 0 -1
    outer loop
      vertex -24.9606 -16.6267 -5
      vertex -21.0344 -15.2824 -5
      vertex -24.8429 -17.2435 -5
    endloop
  endfacet
  facet normal 0 0 -1
    outer loop
      vertex -25 -16 -5
      vertex -21.0344 -15.2824 -5
      vertex -24.9606 -16.6267 -5
    endloop
  endfacet
  facet normal -0 0 -1
    outer loop
      vertex -21.0344 -15.2824 -5
      vertex -25 -16 -5
      vertex -22.784 -12.5256 -5
    endloop
  endfacet
  facet normal -0 0 -1
    outer loop
      vertex -22.784 -12.5256 -5
      vertex -25 -16 -5
      vertex -24.1742 -9.57124 -5
    endloop
  endfacet
  facet normal -0 0 -1
    outer loop
      vertex -24.1742 -9.57124 -5
      vertex -25 -16 -5
      vertex -25 -7.02965 -5
    endloop
  endfacet
  facet normal 0 0 -1
    outer loop
      vertex 20.9527 -15.752 -5
      vertex 21 -15.324 -5
      vertex 21 -16 -5
    endloop
  endfacet
  facet normal 0 0 -1
    outer loop
      vertex 21 -15.324 -5
      vertex 20.9527 -15.752 -5
      vertex 20.9779 -15.3507 -5
    endloop
  endfacet
  facet normal 0 0 -1
    outer loop
      vertex 20.8115 -16.4921 -5
      vertex 21 -16 -5
      vertex 20.9114 -16.9369 -5
    endloop
  endfacet
  facet normal -0 0 -1
    outer loop
      vertex 21 -16 -5
      vertex 20.8115 -16.4921 -5
      vertex 20.9527 -15.752 -5
    endloop
  endfacet
  facet normal 0 0 -1
    outer loop
      vertex 20.5787 -17.2087 -5
      vertex 20.9114 -16.9369 -5
      vertex 20.7553 -17.5451 -5
    endloop
  endfacet
  facet normal -0 0 -1
    outer loop
      vertex 20.9114 -16.9369 -5
      vertex 20.5787 -17.2087 -5
      vertex 20.8115 -16.4921 -5
    endloop
  endfacet
  facet normal 0 0 -1
    outer loop
      vertex 20.2578 -17.8905 -5
      vertex 20.7553 -17.5451 -5
      vertex 20.5241 -18.1289 -5
    endloop
  endfacet
  facet normal -0 0 -1
    outer loop
      vertex 20.7553 -17.5451 -5
      vertex 20.2578 -17.8905 -5
      vertex 20.5787 -17.2087 -5
    endloop
  endfacet
  facet normal 0 0 -1
    outer loop
      vertex 19.8541 -18.5267 -5
      vertex 20.5241 -18.1289 -5
      vertex 20.2216 -18.6791 -5
    endloop
  endfacet
  facet normal -0 0 -1
    outer loop
      vertex 20.5241 -18.1289 -5
      vertex 19.8541 -18.5267 -5
      vertex 20.2578 -17.8905 -5
    endloop
  endfacet
  facet normal 0 0 -1
    outer loop
      vertex 19.8526 -19.1871 -5
      vertex 19.8541 -18.5267 -5
      vertex 20.2216 -18.6791 -5
    endloop
  endfacet
  facet normal 0 0 -1
    outer loop
      vertex 19.3738 -19.1073 -5
      vertex 19.8526 -19.1871 -5
      vertex 19.4227 -19.6448 -5
    endloop
  endfacet
  facet normal 0 0 -1
    outer loop
      vertex 19.8526 -19.1871 -5
      vertex 19.3738 -19.1073 -5
      vertex 19.8541 -18.5267 -5
    endloop
  endfacet
  facet normal 0 0 -1
    outer loop
      vertex 18.8245 -19.6231 -5
      vertex 19.4227 -19.6448 -5
      vertex 18.9389 -20.0451 -5
    endloop
  endfacet
  facet normal 0 0 -1
    outer loop
      vertex 19.4227 -19.6448 -5
      vertex 18.8245 -19.6231 -5
      vertex 19.3738 -19.1073 -5
    endloop
  endfacet
  facet normal 0 0 -1
    outer loop
      vertex 18.215 -20.066 -5
      vertex 18.9389 -20.0451 -5
      vertex 18.4088 -20.3815 -5
    endloop
  endfacet
  facet normal -0 0 -1
    outer loop
      vertex 18.9389 -20.0451 -5
      vertex 18.215 -20.066 -5
      vertex 18.8245 -19.6231 -5
    endloop
  endfacet
  facet normal 0 0 -1
    outer loop
      vertex 17.8406 -20.6489 -5
      vertex 18.215 -20.066 -5
      vertex 18.4088 -20.3815 -5
    endloop
  endfacet
  facet normal 0 0 -1
    outer loop
      vertex 17.8406 -20.6489 -5
      vertex 17.5547 -20.429 -5
      vertex 18.215 -20.066 -5
    endloop
  endfacet
  facet normal 0 0 -1
    outer loop
      vertex 17.2435 -20.8429 -5
      vertex 17.5547 -20.429 -5
      vertex 17.8406 -20.6489 -5
    endloop
  endfacet
  facet normal 0 0 -1
    outer loop
      vertex 17.2435 -20.8429 -5
      vertex 16.8541 -20.7063 -5
      vertex 17.5547 -20.429 -5
    endloop
  endfacet
  facet normal 0 0 -1
    outer loop
      vertex 16.6267 -20.9606 -5
      vertex 16.8541 -20.7063 -5
      vertex 17.2435 -20.8429 -5
    endloop
  endfacet
  facet normal 0 0 -1
    outer loop
      vertex 16.6267 -20.9606 -5
      vertex 16.1243 -20.8937 -5
      vertex 16.8541 -20.7063 -5
    endloop
  endfacet
  facet normal 0 0 -1
    outer loop
      vertex 16 -21 -5
      vertex 16.1243 -20.8937 -5
      vertex 16.6267 -20.9606 -5
    endloop
  endfacet
  facet normal 0 0 -1
    outer loop
      vertex 16 -21 -5
      vertex 15.3767 -20.9882 -5
      vertex 16.1243 -20.8937 -5
    endloop
  endfacet
  facet normal 0 0 -1
    outer loop
      vertex 15.2425 -21 -5
      vertex 15.3767 -20.9882 -5
      vertex 16 -21 -5
    endloop
  endfacet
  facet normal -0 0 -1
    outer loop
      vertex 15.3767 -20.9882 -5
      vertex 15.2425 -21 -5
      vertex 15.2588 -20.9882 -5
    endloop
  endfacet
  facet normal 0 0 -1
    outer loop
      vertex 20.9527 15.752 -5
      vertex 21 15.324 -5
      vertex 20.9779 15.3507 -5
    endloop
  endfacet
  facet normal 0 0 -1
    outer loop
      vertex 21 15.324 -5
      vertex 20.9527 15.752 -5
      vertex 21 16 -5
    endloop
  endfacet
  facet normal 0 0 -1
    outer loop
      vertex 20.8115 16.4921 -5
      vertex 21 16 -5
      vertex 20.9527 15.752 -5
    endloop
  endfacet
  facet normal 0 0 -1
    outer loop
      vertex 21 16 -5
      vertex 20.8115 16.4921 -5
      vertex 20.9606 16.6267 -5
    endloop
  endfacet
  facet normal 0 0 -1
    outer loop
      vertex 20.5787 17.2087 -5
      vertex 20.9606 16.6267 -5
      vertex 20.8115 16.4921 -5
    endloop
  endfacet
  facet normal 0 0 -1
    outer loop
      vertex 20.9606 16.6267 -5
      vertex 20.5787 17.2087 -5
      vertex 20.8429 17.2435 -5
    endloop
  endfacet
  facet normal -0 0 -1
    outer loop
      vertex 20.8429 17.2435 -5
      vertex 20.5787 17.2087 -5
      vertex 20.6489 17.8406 -5
    endloop
  endfacet
  facet normal 0 0 -1
    outer loop
      vertex 20.2578 17.8905 -5
      vertex 20.6489 17.8406 -5
      vertex 20.5787 17.2087 -5
    endloop
  endfacet
  facet normal 0 0 -1
    outer loop
      vertex 20.6489 17.8406 -5
      vertex 20.2578 17.8905 -5
      vertex 20.3815 18.4088 -5
    endloop
  endfacet
  facet normal 0 0 -1
    outer loop
      vertex 19.8541 18.5267 -5
      vertex 20.3815 18.4088 -5
      vertex 20.2578 17.8905 -5
    endloop
  endfacet
  facet normal 0 0 -1
    outer loop
      vertex 20.3815 18.4088 -5
      vertex 19.8541 18.5267 -5
      vertex 20.0451 18.9389 -5
    endloop
  endfacet
  facet normal 0 0 -1
    outer loop
      vertex 19.3738 19.1073 -5
      vertex 20.0451 18.9389 -5
      vertex 19.8541 18.5267 -5
    endloop
  endfacet
  facet normal 0 0 -1
    outer loop
      vertex 20.0451 18.9389 -5
      vertex 19.3738 19.1073 -5
      vertex 19.6448 19.4227 -5
    endloop
  endfacet
  facet normal 0 0 -1
    outer loop
      vertex 19.3738 19.1073 -5
      vertex 19.1871 19.8526 -5
      vertex 19.6448 19.4227 -5
    endloop
  endfacet
  facet normal 0 0 -1
    outer loop
      vertex 18.8245 19.6231 -5
      vertex 19.1871 19.8526 -5
      vertex 19.3738 19.1073 -5
    endloop
  endfacet
  facet normal 0 0 -1
    outer loop
      vertex 18.8245 19.6231 -5
      vertex 18.6791 20.2216 -5
      vertex 19.1871 19.8526 -5
    endloop
  endfacet
  facet normal 0 0 -1
    outer loop
      vertex 18.215 20.066 -5
      vertex 18.6791 20.2216 -5
      vertex 18.8245 19.6231 -5
    endloop
  endfacet
  facet normal 0 0 -1
    outer loop
      vertex 18.215 20.066 -5
      vertex 18.1289 20.5241 -5
      vertex 18.6791 20.2216 -5
    endloop
  endfacet
  facet normal 0 0 -1
    outer loop
      vertex 17.5547 20.429 -5
      vertex 18.1289 20.5241 -5
      vertex 18.215 20.066 -5
    endloop
  endfacet
  facet normal 0 0 -1
    outer loop
      vertex 17.5547 20.429 -5
      vertex 17.5451 20.7553 -5
      vertex 18.1289 20.5241 -5
    endloop
  endfacet
  facet normal 0 0 -1
    outer loop
      vertex 16.8541 20.7063 -5
      vertex 17.5451 20.7553 -5
      vertex 17.5547 20.429 -5
    endloop
  endfacet
  facet normal -0 0 -1
    outer loop
      vertex 17.5451 20.7553 -5
      vertex 16.8541 20.7063 -5
      vertex 16.9369 20.9114 -5
    endloop
  endfacet
  facet normal 0 0 -1
    outer loop
      vertex 16.1243 20.8937 -5
      vertex 16.9369 20.9114 -5
      vertex 16.8541 20.7063 -5
    endloop
  endfacet
  facet normal 0 0 -1
    outer loop
      vertex 16.1243 20.8937 -5
      vertex 16 21 -5
      vertex 16.9369 20.9114 -5
    endloop
  endfacet
  facet normal 0 0 -1
    outer loop
      vertex 15.3767 20.9882 -5
      vertex 16 21 -5
      vertex 16.1243 20.8937 -5
    endloop
  endfacet
  facet normal 0 0 -1
    outer loop
      vertex 15.2425 21 -5
      vertex 15.3767 20.9882 -5
      vertex 15.2588 20.9882 -5
    endloop
  endfacet
  facet normal 0 0 -1
    outer loop
      vertex 15.3767 20.9882 -5
      vertex 15.2425 21 -5
      vertex 16 21 -5
    endloop
  endfacet
  facet normal 0.309003 -0.951061 0
    outer loop
      vertex 17.2435 -20.8429 -5
      vertex 17.8406 -20.6489 0
      vertex 17.2435 -20.8429 0
    endloop
  endfacet
  facet normal 0.309003 -0.951061 0
    outer loop
      vertex 17.8406 -20.6489 0
      vertex 17.2435 -20.8429 -5
      vertex 17.8406 -20.6489 -5
    endloop
  endfacet
  facet normal 0.684624 0.728896 -0
    outer loop
      vertex 19.6448 19.4227 -5
      vertex 19.1871 19.8526 0
      vertex 19.6448 19.4227 0
    endloop
  endfacet
  facet normal 0.684624 0.728896 0
    outer loop
      vertex 19.1871 19.8526 0
      vertex 19.6448 19.4227 -5
      vertex 19.1871 19.8526 -5
    endloop
  endfacet
  facet normal 0.0941471 0.995558 -0
    outer loop
      vertex 16.9369 20.9114 -5
      vertex 16 21 0
      vertex 16.9369 20.9114 0
    endloop
  endfacet
  facet normal 0.0941471 0.995558 0
    outer loop
      vertex 16 21 0
      vertex 16.9369 20.9114 -5
      vertex 16 21 -5
    endloop
  endfacet
  facet normal 0.995558 -0.0941471 0
    outer loop
      vertex 20.9114 -16.9369 0
      vertex 21 -16 -5
      vertex 21 -16 0
    endloop
  endfacet
  facet normal 0.995558 -0.0941471 0
    outer loop
      vertex 21 -16 -5
      vertex 20.9114 -16.9369 0
      vertex 20.9114 -16.9369 -5
    endloop
  endfacet
  facet normal 0.0627451 -0.99803 0
    outer loop
      vertex 16 -21 -5
      vertex 16.6267 -20.9606 0
      vertex 16 -21 0
    endloop
  endfacet
  facet normal 0.0627451 -0.99803 0
    outer loop
      vertex 16.6267 -20.9606 0
      vertex 16 -21 -5
      vertex 16.6267 -20.9606 -5
    endloop
  endfacet
  facet normal 0.481784 0.87629 -0
    outer loop
      vertex 18.6791 20.2216 -5
      vertex 18.1289 20.5241 0
      vertex 18.6791 20.2216 0
    endloop
  endfacet
  facet normal 0.481784 0.87629 0
    outer loop
      vertex 18.1289 20.5241 0
      vertex 18.6791 20.2216 -5
      vertex 18.1289 20.5241 -5
    endloop
  endfacet
  facet normal 0.728896 -0.684624 0
    outer loop
      vertex 19.4227 -19.6448 0
      vertex 19.8526 -19.1871 -5
      vertex 19.8526 -19.1871 0
    endloop
  endfacet
  facet normal 0.728896 -0.684624 0
    outer loop
      vertex 19.8526 -19.1871 -5
      vertex 19.4227 -19.6448 0
      vertex 19.4227 -19.6448 -5
    endloop
  endfacet
  facet normal 0.87629 -0.481784 0
    outer loop
      vertex 20.2216 -18.6791 0
      vertex 20.5241 -18.1289 -5
      vertex 20.5241 -18.1289 0
    endloop
  endfacet
  facet normal 0.87629 -0.481784 0
    outer loop
      vertex 20.5241 -18.1289 -5
      vertex 20.2216 -18.6791 0
      vertex 20.2216 -18.6791 -5
    endloop
  endfacet
  facet normal 0.80908 -0.587698 0
    outer loop
      vertex 19.8526 -19.1871 0
      vertex 20.2216 -18.6791 -5
      vertex 20.2216 -18.6791 0
    endloop
  endfacet
  facet normal 0.80908 -0.587698 0
    outer loop
      vertex 20.2216 -18.6791 -5
      vertex 19.8526 -19.1871 0
      vertex 19.8526 -19.1871 -5
    endloop
  endfacet
  facet normal 0 0 1
    outer loop
      vertex -15.2425 21 0
      vertex -15.3767 20.9882 0
      vertex -15.2588 20.9882 0
    endloop
  endfacet
  facet normal -0 0 1
    outer loop
      vertex -20 21 0
      vertex -15.3767 20.9882 0
      vertex -15.2425 21 0
    endloop
  endfacet
  facet normal 0 0 1
    outer loop
      vertex -20 21 0
      vertex -16.1243 20.8937 0
      vertex -15.3767 20.9882 0
    endloop
  endfacet
  facet normal 0 0 1
    outer loop
      vertex -20 21 0
      vertex -16.8541 20.7063 0
      vertex -16.1243 20.8937 0
    endloop
  endfacet
  facet normal 0 0 1
    outer loop
      vertex -20 21 0
      vertex -17.5547 20.429 0
      vertex -16.8541 20.7063 0
    endloop
  endfacet
  facet normal 0 0 1
    outer loop
      vertex -20 21 0
      vertex -18.215 20.066 0
      vertex -17.5547 20.429 0
    endloop
  endfacet
  facet normal 0 0 1
    outer loop
      vertex -20 21 0
      vertex -18.8245 19.6231 0
      vertex -18.215 20.066 0
    endloop
  endfacet
  facet normal 0 0 1
    outer loop
      vertex -20 21 0
      vertex -19.3738 19.1073 0
      vertex -18.8245 19.6231 0
    endloop
  endfacet
  facet normal -0 0 1
    outer loop
      vertex -20.6267 20.9606 0
      vertex -19.3738 19.1073 0
      vertex -20 21 0
    endloop
  endfacet
  facet normal 0 0 1
    outer loop
      vertex -19.3738 19.1073 0
      vertex -20.6267 20.9606 0
      vertex -19.8541 18.5267 0
    endloop
  endfacet
  facet normal -0 0 1
    outer loop
      vertex -21.2435 20.8429 0
      vertex -19.8541 18.5267 0
      vertex -20.6267 20.9606 0
    endloop
  endfacet
  facet normal -0 0 1
    outer loop
      vertex -21.8406 20.6489 0
      vertex -19.8541 18.5267 0
      vertex -21.2435 20.8429 0
    endloop
  endfacet
  facet normal 0 0 1
    outer loop
      vertex -19.8541 18.5267 0
      vertex -21.8406 20.6489 0
      vertex -20.2578 17.8905 0
    endloop
  endfacet
  facet normal -0 0 1
    outer loop
      vertex -22.4088 20.3815 0
      vertex -20.2578 17.8905 0
      vertex -21.8406 20.6489 0
    endloop
  endfacet
  facet normal -0 0 1
    outer loop
      vertex -22.9389 20.0451 0
      vertex -20.2578 17.8905 0
      vertex -22.4088 20.3815 0
    endloop
  endfacet
  facet normal -0 0 1
    outer loop
      vertex -23.4227 19.6448 0
      vertex -20.2578 17.8905 0
      vertex -22.9389 20.0451 0
    endloop
  endfacet
  facet normal 0 0 1
    outer loop
      vertex -20.2578 17.8905 0
      vertex -23.4227 19.6448 0
      vertex -20.5787 17.2087 0
    endloop
  endfacet
  facet normal -0 0 1
    outer loop
      vertex -23.8526 19.1871 0
      vertex -20.5787 17.2087 0
      vertex -23.4227 19.6448 0
    endloop
  endfacet
  facet normal -0 0 1
    outer loop
      vertex -24.2216 18.6791 0
      vertex -20.5787 17.2087 0
      vertex -23.8526 19.1871 0
    endloop
  endfacet
  facet normal 0 0 1
    outer loop
      vertex -20.5787 17.2087 0
      vertex -24.2216 18.6791 0
      vertex -20.8115 16.4921 0
    endloop
  endfacet
  facet normal -0 0 1
    outer loop
      vertex -24.5241 18.1289 0
      vertex -20.8115 16.4921 0
      vertex -24.2216 18.6791 0
    endloop
  endfacet
  facet normal -0 0 1
    outer loop
      vertex -24.7553 17.5451 0
      vertex -20.8115 16.4921 0
      vertex -24.5241 18.1289 0
    endloop
  endfacet
  facet normal -0 0 1
    outer loop
      vertex -24.9114 16.9369 0
      vertex -20.8115 16.4921 0
      vertex -24.7553 17.5451 0
    endloop
  endfacet
  facet normal 0 0 1
    outer loop
      vertex -20.8115 16.4921 0
      vertex -24.9114 16.9369 0
      vertex -20.9527 15.752 0
    endloop
  endfacet
  facet normal 0 0 1
    outer loop
      vertex -20.9527 15.752 0
      vertex -21.0344 15.2824 0
      vertex -20.9779 15.3507 0
    endloop
  endfacet
  facet normal -0 0 1
    outer loop
      vertex -25 16 0
      vertex -20.9527 15.752 0
      vertex -24.9114 16.9369 0
    endloop
  endfacet
  facet normal 0 0 1
    outer loop
      vertex -20.9527 15.752 0
      vertex -25 16 0
      vertex -21.0344 15.2824 0
    endloop
  endfacet
  facet normal 0 0 1
    outer loop
      vertex -21.0344 15.2824 0
      vertex -25 16 0
      vertex -22.784 12.5256 0
    endloop
  endfacet
  facet normal 0 0 1
    outer loop
      vertex -22.784 12.5256 0
      vertex -25 16 0
      vertex -24.1742 9.57124 0
    endloop
  endfacet
  facet normal 0 0 1
    outer loop
      vertex -24.1742 9.57124 0
      vertex -25 16 0
      vertex -25 7.02965 0
    endloop
  endfacet
  facet normal 0 0 1
    outer loop
      vertex -16.573 -20.0333 0
      vertex -20 -21 0
      vertex -15.2425 -21 0
    endloop
  endfacet
  facet normal 0 0 1
    outer loop
      vertex -18.9532 -17.7982 0
      vertex -20 -21 0
      vertex -16.573 -20.0333 0
    endloop
  endfacet
  facet normal 0 0 1
    outer loop
      vertex -18.9532 -17.7982 0
      vertex -20.9369 -20.9114 0
      vertex -20 -21 0
    endloop
  endfacet
  facet normal 0 0 1
    outer loop
      vertex -23.1871 -19.8526 0
      vertex -18.9532 -17.7982 0
      vertex -21.0344 -15.2824 0
    endloop
  endfacet
  facet normal 0 0 1
    outer loop
      vertex -18.9532 -17.7982 0
      vertex -21.5451 -20.7553 0
      vertex -20.9369 -20.9114 0
    endloop
  endfacet
  facet normal 0 0 1
    outer loop
      vertex -18.9532 -17.7982 0
      vertex -22.1289 -20.5241 0
      vertex -21.5451 -20.7553 0
    endloop
  endfacet
  facet normal 0 0 1
    outer loop
      vertex -18.9532 -17.7982 0
      vertex -22.6791 -20.2216 0
      vertex -22.1289 -20.5241 0
    endloop
  endfacet
  facet normal 0 0 1
    outer loop
      vertex -25 -16 0
      vertex -21.0344 -15.2824 0
      vertex -22.784 -12.5256 0
    endloop
  endfacet
  facet normal 0 0 1
    outer loop
      vertex -18.9532 -17.7982 0
      vertex -23.1871 -19.8526 0
      vertex -22.6791 -20.2216 0
    endloop
  endfacet
  facet normal 0 0 1
    outer loop
      vertex -21.0344 -15.2824 0
      vertex -23.6448 -19.4227 0
      vertex -23.1871 -19.8526 0
    endloop
  endfacet
  facet normal 0 0 1
    outer loop
      vertex -21.0344 -15.2824 0
      vertex -24.0451 -18.9389 0
      vertex -23.6448 -19.4227 0
    endloop
  endfacet
  facet normal 0 0 1
    outer loop
      vertex -25 -16 0
      vertex -22.784 -12.5256 0
      vertex -24.1742 -9.57124 0
    endloop
  endfacet
  facet normal 0 0 1
    outer loop
      vertex -21.0344 -15.2824 0
      vertex -25 -16 0
      vertex -24.9606 -16.6267 0
    endloop
  endfacet
  facet normal 0 0 1
    outer loop
      vertex -21.0344 -15.2824 0
      vertex -24.3815 -18.4088 0
      vertex -24.0451 -18.9389 0
    endloop
  endfacet
  facet normal 0 0 1
    outer loop
      vertex -21.0344 -15.2824 0
      vertex -24.6489 -17.8406 0
      vertex -24.3815 -18.4088 0
    endloop
  endfacet
  facet normal 0 0 1
    outer loop
      vertex -21.0344 -15.2824 0
      vertex -24.8429 -17.2435 0
      vertex -24.6489 -17.8406 0
    endloop
  endfacet
  facet normal 0 0 1
    outer loop
      vertex -25 -16 0
      vertex -24.1742 -9.57124 0
      vertex -25 -7.02965 0
    endloop
  endfacet
  facet normal 0 0 1
    outer loop
      vertex -21.0344 -15.2824 0
      vertex -24.9606 -16.6267 0
      vertex -24.8429 -17.2435 0
    endloop
  endfacet
  facet normal 0 0 1
    outer loop
      vertex 20.9527 -15.752 0
      vertex 21 -15.324 0
      vertex 20.9779 -15.3507 0
    endloop
  endfacet
  facet normal 0 0 1
    outer loop
      vertex 21 -15.324 0
      vertex 20.9527 -15.752 0
      vertex 21 -16 0
    endloop
  endfacet
  facet normal 0 0 1
    outer loop
      vertex 20.8115 -16.4921 0
      vertex 21 -16 0
      vertex 20.9527 -15.752 0
    endloop
  endfacet
  facet normal 0 0 1
    outer loop
      vertex 21 -16 0
      vertex 20.8115 -16.4921 0
      vertex 20.9114 -16.9369 0
    endloop
  endfacet
  facet normal 0 0 1
    outer loop
      vertex 20.5787 -17.2087 0
      vertex 20.9114 -16.9369 0
      vertex 20.8115 -16.4921 0
    endloop
  endfacet
  facet normal 0 0 1
    outer loop
      vertex 20.9114 -16.9369 0
      vertex 20.5787 -17.2087 0
      vertex 20.7553 -17.5451 0
    endloop
  endfacet
  facet normal 0 0 1
    outer loop
      vertex 20.2578 -17.8905 0
      vertex 20.7553 -17.5451 0
      vertex 20.5787 -17.2087 0
    endloop
  endfacet
  facet normal 0 0 1
    outer loop
      vertex 20.7553 -17.5451 0
      vertex 20.2578 -17.8905 0
      vertex 20.5241 -18.1289 0
    endloop
  endfacet
  facet normal 0 0 1
    outer loop
      vertex 19.8541 -18.5267 0
      vertex 20.5241 -18.1289 0
      vertex 20.2578 -17.8905 0
    endloop
  endfacet
  facet normal 0 0 1
    outer loop
      vertex 20.5241 -18.1289 0
      vertex 19.8541 -18.5267 0
      vertex 20.2216 -18.6791 0
    endloop
  endfacet
  facet normal 0 0 1
    outer loop
      vertex 19.8541 -18.5267 0
      vertex 19.8526 -19.1871 0
      vertex 20.2216 -18.6791 0
    endloop
  endfacet
  facet normal -0 0 1
    outer loop
      vertex 19.3738 -19.1073 0
      vertex 19.8526 -19.1871 0
      vertex 19.8541 -18.5267 0
    endloop
  endfacet
  facet normal 0 0 1
    outer loop
      vertex 19.8526 -19.1871 0
      vertex 19.3738 -19.1073 0
      vertex 19.4227 -19.6448 0
    endloop
  endfacet
  facet normal -0 0 1
    outer loop
      vertex 18.8245 -19.6231 0
      vertex 19.4227 -19.6448 0
      vertex 19.3738 -19.1073 0
    endloop
  endfacet
  facet normal 0 0 1
    outer loop
      vertex 19.4227 -19.6448 0
      vertex 18.8245 -19.6231 0
      vertex 18.9389 -20.0451 0
    endloop
  endfacet
  facet normal 0 0 1
    outer loop
      vertex 18.215 -20.066 0
      vertex 18.9389 -20.0451 0
      vertex 18.8245 -19.6231 0
    endloop
  endfacet
  facet normal 0 0 1
    outer loop
      vertex 18.9389 -20.0451 0
      vertex 18.215 -20.066 0
      vertex 18.4088 -20.3815 0
    endloop
  endfacet
  facet normal 0 0 1
    outer loop
      vertex 18.215 -20.066 0
      vertex 17.8406 -20.6489 0
      vertex 18.4088 -20.3815 0
    endloop
  endfacet
  facet normal -0 0 1
    outer loop
      vertex 17.5547 -20.429 0
      vertex 17.8406 -20.6489 0
      vertex 18.215 -20.066 0
    endloop
  endfacet
  facet normal 0 0 1
    outer loop
      vertex 17.5547 -20.429 0
      vertex 17.2435 -20.8429 0
      vertex 17.8406 -20.6489 0
    endloop
  endfacet
  facet normal -0 0 1
    outer loop
      vertex 16.8541 -20.7063 0
      vertex 17.2435 -20.8429 0
      vertex 17.5547 -20.429 0
    endloop
  endfacet
  facet normal 0 0 1
    outer loop
      vertex 16.8541 -20.7063 0
      vertex 16.6267 -20.9606 0
      vertex 17.2435 -20.8429 0
    endloop
  endfacet
  facet normal -0 0 1
    outer loop
      vertex 16.1243 -20.8937 0
      vertex 16.6267 -20.9606 0
      vertex 16.8541 -20.7063 0
    endloop
  endfacet
  facet normal 0 0 1
    outer loop
      vertex 16.1243 -20.8937 0
      vertex 16 -21 0
      vertex 16.6267 -20.9606 0
    endloop
  endfacet
  facet normal -0 0 1
    outer loop
      vertex 15.3767 -20.9882 0
      vertex 16 -21 0
      vertex 16.1243 -20.8937 0
    endloop
  endfacet
  facet normal 0 0 1
    outer loop
      vertex 15.2425 -21 0
      vertex 15.3767 -20.9882 0
      vertex 15.2588 -20.9882 0
    endloop
  endfacet
  facet normal 0 0 1
    outer loop
      vertex 15.3767 -20.9882 0
      vertex 15.2425 -21 0
      vertex 16 -21 0
    endloop
  endfacet
  facet normal -0 0 1
    outer loop
      vertex 20.9527 15.752 0
      vertex 21 15.324 0
      vertex 21 16 0
    endloop
  endfacet
  facet normal -0 0 1
    outer loop
      vertex 20.8115 16.4921 0
      vertex 21 16 0
      vertex 20.9606 16.6267 0
    endloop
  endfacet
  facet normal 0 0 1
    outer loop
      vertex 21 15.324 0
      vertex 20.9527 15.752 0
      vertex 20.9779 15.3507 0
    endloop
  endfacet
  facet normal -0 0 1
    outer loop
      vertex 20.5787 17.2087 0
      vertex 20.9606 16.6267 0
      vertex 20.8429 17.2435 0
    endloop
  endfacet
  facet normal 0 0 1
    outer loop
      vertex 21 16 0
      vertex 20.8115 16.4921 0
      vertex 20.9527 15.752 0
    endloop
  endfacet
  facet normal 0 0 1
    outer loop
      vertex 20.5787 17.2087 0
      vertex 20.8429 17.2435 0
      vertex 20.6489 17.8406 0
    endloop
  endfacet
  facet normal 0 0 1
    outer loop
      vertex 20.9606 16.6267 0
      vertex 20.5787 17.2087 0
      vertex 20.8115 16.4921 0
    endloop
  endfacet
  facet normal -0 0 1
    outer loop
      vertex 20.2578 17.8905 0
      vertex 20.6489 17.8406 0
      vertex 20.3815 18.4088 0
    endloop
  endfacet
  facet normal 0 0 1
    outer loop
      vertex 20.6489 17.8406 0
      vertex 20.2578 17.8905 0
      vertex 20.5787 17.2087 0
    endloop
  endfacet
  facet normal -0 0 1
    outer loop
      vertex 19.8541 18.5267 0
      vertex 20.3815 18.4088 0
      vertex 20.0451 18.9389 0
    endloop
  endfacet
  facet normal 0 0 1
    outer loop
      vertex 20.3815 18.4088 0
      vertex 19.8541 18.5267 0
      vertex 20.2578 17.8905 0
    endloop
  endfacet
  facet normal -0 0 1
    outer loop
      vertex 19.3738 19.1073 0
      vertex 20.0451 18.9389 0
      vertex 19.6448 19.4227 0
    endloop
  endfacet
  facet normal 0 0 1
    outer loop
      vertex 20.0451 18.9389 0
      vertex 19.3738 19.1073 0
      vertex 19.8541 18.5267 0
    endloop
  endfacet
  facet normal 0 0 1
    outer loop
      vertex 19.1871 19.8526 0
      vertex 19.3738 19.1073 0
      vertex 19.6448 19.4227 0
    endloop
  endfacet
  facet normal 0 0 1
    outer loop
      vertex 19.1871 19.8526 0
      vertex 18.8245 19.6231 0
      vertex 19.3738 19.1073 0
    endloop
  endfacet
  facet normal 0 0 1
    outer loop
      vertex 18.6791 20.2216 0
      vertex 18.8245 19.6231 0
      vertex 19.1871 19.8526 0
    endloop
  endfacet
  facet normal 0 0 1
    outer loop
      vertex 18.6791 20.2216 0
      vertex 18.215 20.066 0
      vertex 18.8245 19.6231 0
    endloop
  endfacet
  facet normal 0 0 1
    outer loop
      vertex 18.1289 20.5241 0
      vertex 18.215 20.066 0
      vertex 18.6791 20.2216 0
    endloop
  endfacet
  facet normal 0 0 1
    outer loop
      vertex 18.1289 20.5241 0
      vertex 17.5547 20.429 0
      vertex 18.215 20.066 0
    endloop
  endfacet
  facet normal 0 0 1
    outer loop
      vertex 17.5451 20.7553 0
      vertex 17.5547 20.429 0
      vertex 18.1289 20.5241 0
    endloop
  endfacet
  facet normal 0 0 1
    outer loop
      vertex 16.8541 20.7063 0
      vertex 17.5451 20.7553 0
      vertex 16.9369 20.9114 0
    endloop
  endfacet
  facet normal 0 0 1
    outer loop
      vertex 17.5451 20.7553 0
      vertex 16.8541 20.7063 0
      vertex 17.5547 20.429 0
    endloop
  endfacet
  facet normal 0 0 1
    outer loop
      vertex 16.9369 20.9114 0
      vertex 16.1243 20.8937 0
      vertex 16.8541 20.7063 0
    endloop
  endfacet
  facet normal 0 0 1
    outer loop
      vertex 16 21 0
      vertex 16.1243 20.8937 0
      vertex 16.9369 20.9114 0
    endloop
  endfacet
  facet normal 0 0 1
    outer loop
      vertex 16 21 0
      vertex 15.3767 20.9882 0
      vertex 16.1243 20.8937 0
    endloop
  endfacet
  facet normal -0 0 1
    outer loop
      vertex 15.2425 21 0
      vertex 15.3767 20.9882 0
      vertex 16 21 0
    endloop
  endfacet
  facet normal 0 0 1
    outer loop
      vertex 15.3767 20.9882 0
      vertex 15.2425 21 0
      vertex 15.2588 20.9882 0
    endloop
  endfacet
  facet normal 0.187441 -0.982276 0
    outer loop
      vertex 16.6267 -20.9606 -5
      vertex 17.2435 -20.8429 0
      vertex 16.6267 -20.9606 0
    endloop
  endfacet
  facet normal 0.187441 -0.982276 0
    outer loop
      vertex 17.2435 -20.8429 0
      vertex 16.6267 -20.9606 -5
      vertex 17.2435 -20.8429 -5
    endloop
  endfacet
  facet normal 0.587698 0.80908 -0
    outer loop
      vertex 19.1871 19.8526 -5
      vertex 18.6791 20.2216 0
      vertex 19.1871 19.8526 0
    endloop
  endfacet
  facet normal 0.587698 0.80908 0
    outer loop
      vertex 18.6791 20.2216 0
      vertex 19.1871 19.8526 -5
      vertex 18.6791 20.2216 -5
    endloop
  endfacet
  facet normal 0.248601 0.968606 -0
    outer loop
      vertex 17.5451 20.7553 -5
      vertex 16.9369 20.9114 0
      vertex 17.5451 20.7553 0
    endloop
  endfacet
  facet normal 0.248601 0.968606 0
    outer loop
      vertex 16.9369 20.9114 0
      vertex 17.5451 20.7553 -5
      vertex 16.9369 20.9114 -5
    endloop
  endfacet
  facet normal 0.368203 0.929745 -0
    outer loop
      vertex 18.1289 20.5241 -5
      vertex 17.5451 20.7553 0
      vertex 18.1289 20.5241 0
    endloop
  endfacet
  facet normal 0.368203 0.929745 0
    outer loop
      vertex 17.5451 20.7553 0
      vertex 18.1289 20.5241 -5
      vertex 17.5451 20.7553 -5
    endloop
  endfacet
  facet normal 0.951061 0.309003 0
    outer loop
      vertex 20.8429 17.2435 0
      vertex 20.6489 17.8406 -5
      vertex 20.6489 17.8406 0
    endloop
  endfacet
  facet normal 0.951061 0.309003 0
    outer loop
      vertex 20.6489 17.8406 -5
      vertex 20.8429 17.2435 0
      vertex 20.8429 17.2435 -5
    endloop
  endfacet
  facet normal 0.99803 0.0627451 0
    outer loop
      vertex 21 16 0
      vertex 20.9606 16.6267 -5
      vertex 20.9606 16.6267 0
    endloop
  endfacet
  facet normal 0.99803 0.0627451 0
    outer loop
      vertex 20.9606 16.6267 -5
      vertex 21 16 0
      vertex 21 16 -5
    endloop
  endfacet
  facet normal 0.770462 0.637486 0
    outer loop
      vertex 20.0451 18.9389 0
      vertex 19.6448 19.4227 -5
      vertex 19.6448 19.4227 0
    endloop
  endfacet
  facet normal 0.770462 0.637486 0
    outer loop
      vertex 19.6448 19.4227 -5
      vertex 20.0451 18.9389 0
      vertex 20.0451 18.9389 -5
    endloop
  endfacet
  facet normal 0.968606 -0.248601 0
    outer loop
      vertex 20.7553 -17.5451 0
      vertex 20.9114 -16.9369 -5
      vertex 20.9114 -16.9369 0
    endloop
  endfacet
  facet normal 0.968606 -0.248601 0
    outer loop
      vertex 20.9114 -16.9369 -5
      vertex 20.7553 -17.5451 0
      vertex 20.7553 -17.5451 -5
    endloop
  endfacet
  facet normal 0.982276 0.187441 0
    outer loop
      vertex 20.9606 16.6267 0
      vertex 20.8429 17.2435 -5
      vertex 20.8429 17.2435 0
    endloop
  endfacet
  facet normal 0.982276 0.187441 0
    outer loop
      vertex 20.8429 17.2435 -5
      vertex 20.9606 16.6267 0
      vertex 20.9606 16.6267 -5
    endloop
  endfacet
  facet normal 0.844336 0.535814 0
    outer loop
      vertex 20.3815 18.4088 0
      vertex 20.0451 18.9389 -5
      vertex 20.0451 18.9389 0
    endloop
  endfacet
  facet normal 0.844336 0.535814 0
    outer loop
      vertex 20.0451 18.9389 -5
      vertex 20.3815 18.4088 0
      vertex 20.3815 18.4088 -5
    endloop
  endfacet
  facet normal 0.904811 0.425812 0
    outer loop
      vertex 20.6489 17.8406 0
      vertex 20.3815 18.4088 -5
      vertex 20.3815 18.4088 0
    endloop
  endfacet
  facet normal 0.904811 0.425812 0
    outer loop
      vertex 20.3815 18.4088 -5
      vertex 20.6489 17.8406 0
      vertex 20.6489 17.8406 -5
    endloop
  endfacet
  facet normal -0.0941471 -0.995558 0
    outer loop
      vertex -20.9369 -20.9114 -5
      vertex -20 -21 0
      vertex -20.9369 -20.9114 0
    endloop
  endfacet
  facet normal -0.0941471 -0.995558 -0
    outer loop
      vertex -20 -21 0
      vertex -20.9369 -20.9114 -5
      vertex -20 -21 -5
    endloop
  endfacet
  facet normal -0.535814 0.844336 0
    outer loop
      vertex -22.4088 20.3815 -5
      vertex -22.9389 20.0451 0
      vertex -22.4088 20.3815 0
    endloop
  endfacet
  facet normal -0.535814 0.844336 0
    outer loop
      vertex -22.9389 20.0451 0
      vertex -22.4088 20.3815 -5
      vertex -22.9389 20.0451 -5
    endloop
  endfacet
  facet normal -0.995558 0.0941471 0
    outer loop
      vertex -25 16 -5
      vertex -24.9114 16.9369 0
      vertex -24.9114 16.9369 -5
    endloop
  endfacet
  facet normal -0.995558 0.0941471 0
    outer loop
      vertex -24.9114 16.9369 0
      vertex -25 16 -5
      vertex -25 16 0
    endloop
  endfacet
  facet normal -1 0 0
    outer loop
      vertex -25 7.02965 -5
      vertex -25 16 0
      vertex -25 16 -5
    endloop
  endfacet
  facet normal -1 -0 0
    outer loop
      vertex -25 16 0
      vertex -25 7.02965 -5
      vertex -25 7.02965 0
    endloop
  endfacet
  facet normal -1 0 0
    outer loop
      vertex -25 -16 -5
      vertex -25 -7.02965 0
      vertex -25 -7.02965 -5
    endloop
  endfacet
  facet normal -1 -0 0
    outer loop
      vertex -25 -7.02965 0
      vertex -25 -16 -5
      vertex -25 -16 0
    endloop
  endfacet
  facet normal -0.87629 0.481784 0
    outer loop
      vertex -24.5241 18.1289 -5
      vertex -24.2216 18.6791 0
      vertex -24.2216 18.6791 -5
    endloop
  endfacet
  facet normal -0.87629 0.481784 0
    outer loop
      vertex -24.2216 18.6791 0
      vertex -24.5241 18.1289 -5
      vertex -24.5241 18.1289 0
    endloop
  endfacet
  facet normal -0.684624 -0.728896 0
    outer loop
      vertex -23.6448 -19.4227 -5
      vertex -23.1871 -19.8526 0
      vertex -23.6448 -19.4227 0
    endloop
  endfacet
  facet normal -0.684624 -0.728896 -0
    outer loop
      vertex -23.1871 -19.8526 0
      vertex -23.6448 -19.4227 -5
      vertex -23.1871 -19.8526 -5
    endloop
  endfacet
  facet normal -0.728896 0.684624 0
    outer loop
      vertex -23.8526 19.1871 -5
      vertex -23.4227 19.6448 0
      vertex -23.4227 19.6448 -5
    endloop
  endfacet
  facet normal -0.728896 0.684624 0
    outer loop
      vertex -23.4227 19.6448 0
      vertex -23.8526 19.1871 -5
      vertex -23.8526 19.1871 0
    endloop
  endfacet
  facet normal -0.637486 0.770462 0
    outer loop
      vertex -22.9389 20.0451 -5
      vertex -23.4227 19.6448 0
      vertex -22.9389 20.0451 0
    endloop
  endfacet
  facet normal -0.637486 0.770462 0
    outer loop
      vertex -23.4227 19.6448 0
      vertex -22.9389 20.0451 -5
      vertex -23.4227 19.6448 -5
    endloop
  endfacet
  facet normal -0.80908 0.587698 0
    outer loop
      vertex -24.2216 18.6791 -5
      vertex -23.8526 19.1871 0
      vertex -23.8526 19.1871 -5
    endloop
  endfacet
  facet normal -0.80908 0.587698 0
    outer loop
      vertex -23.8526 19.1871 0
      vertex -24.2216 18.6791 -5
      vertex -24.2216 18.6791 0
    endloop
  endfacet
  facet normal -0.968606 0.248601 0
    outer loop
      vertex -24.9114 16.9369 -5
      vertex -24.7553 17.5451 0
      vertex -24.7553 17.5451 -5
    endloop
  endfacet
  facet normal -0.968606 0.248601 0
    outer loop
      vertex -24.7553 17.5451 0
      vertex -24.9114 16.9369 -5
      vertex -24.9114 16.9369 0
    endloop
  endfacet
  facet normal -0.929745 0.368203 0
    outer loop
      vertex -24.7553 17.5451 -5
      vertex -24.5241 18.1289 0
      vertex -24.5241 18.1289 -5
    endloop
  endfacet
  facet normal -0.929745 0.368203 0
    outer loop
      vertex -24.5241 18.1289 0
      vertex -24.7553 17.5451 -5
      vertex -24.7553 17.5451 0
    endloop
  endfacet
  facet normal -0.99803 -0.0627451 0
    outer loop
      vertex -24.9606 -16.6267 -5
      vertex -25 -16 0
      vertex -25 -16 -5
    endloop
  endfacet
  facet normal -0.99803 -0.0627451 0
    outer loop
      vertex -25 -16 0
      vertex -24.9606 -16.6267 -5
      vertex -24.9606 -16.6267 0
    endloop
  endfacet
  facet normal -0.587698 -0.80908 0
    outer loop
      vertex -23.1871 -19.8526 -5
      vertex -22.6791 -20.2216 0
      vertex -23.1871 -19.8526 0
    endloop
  endfacet
  facet normal -0.587698 -0.80908 -0
    outer loop
      vertex -22.6791 -20.2216 0
      vertex -23.1871 -19.8526 -5
      vertex -22.6791 -20.2216 -5
    endloop
  endfacet
  facet normal -0.368203 -0.929745 0
    outer loop
      vertex -22.1289 -20.5241 -5
      vertex -21.5451 -20.7553 0
      vertex -22.1289 -20.5241 0
    endloop
  endfacet
  facet normal -0.368203 -0.929745 -0
    outer loop
      vertex -21.5451 -20.7553 0
      vertex -22.1289 -20.5241 -5
      vertex -21.5451 -20.7553 -5
    endloop
  endfacet
  facet normal -0.982276 -0.187441 0
    outer loop
      vertex -24.8429 -17.2435 -5
      vertex -24.9606 -16.6267 0
      vertex -24.9606 -16.6267 -5
    endloop
  endfacet
  facet normal -0.982276 -0.187441 0
    outer loop
      vertex -24.9606 -16.6267 0
      vertex -24.8429 -17.2435 -5
      vertex -24.8429 -17.2435 0
    endloop
  endfacet
  facet normal -0.904811 -0.425812 0
    outer loop
      vertex -24.3815 -18.4088 -5
      vertex -24.6489 -17.8406 0
      vertex -24.6489 -17.8406 -5
    endloop
  endfacet
  facet normal -0.904811 -0.425812 0
    outer loop
      vertex -24.6489 -17.8406 0
      vertex -24.3815 -18.4088 -5
      vertex -24.3815 -18.4088 0
    endloop
  endfacet
  facet normal -0.770462 -0.637486 0
    outer loop
      vertex -23.6448 -19.4227 -5
      vertex -24.0451 -18.9389 0
      vertex -24.0451 -18.9389 -5
    endloop
  endfacet
  facet normal -0.770462 -0.637486 0
    outer loop
      vertex -24.0451 -18.9389 0
      vertex -23.6448 -19.4227 -5
      vertex -23.6448 -19.4227 0
    endloop
  endfacet
  facet normal -0.481784 -0.87629 0
    outer loop
      vertex -22.6791 -20.2216 -5
      vertex -22.1289 -20.5241 0
      vertex -22.6791 -20.2216 0
    endloop
  endfacet
  facet normal -0.481784 -0.87629 -0
    outer loop
      vertex -22.1289 -20.5241 0
      vertex -22.6791 -20.2216 -5
      vertex -22.1289 -20.5241 -5
    endloop
  endfacet
  facet normal -0.248601 -0.968606 0
    outer loop
      vertex -21.5451 -20.7553 -5
      vertex -20.9369 -20.9114 0
      vertex -21.5451 -20.7553 0
    endloop
  endfacet
  facet normal -0.248601 -0.968606 -0
    outer loop
      vertex -20.9369 -20.9114 0
      vertex -21.5451 -20.7553 -5
      vertex -20.9369 -20.9114 -5
    endloop
  endfacet
  facet normal -0.425812 0.904811 0
    outer loop
      vertex -21.8406 20.6489 -5
      vertex -22.4088 20.3815 0
      vertex -21.8406 20.6489 0
    endloop
  endfacet
  facet normal -0.425812 0.904811 0
    outer loop
      vertex -22.4088 20.3815 0
      vertex -21.8406 20.6489 -5
      vertex -22.4088 20.3815 -5
    endloop
  endfacet
  facet normal -0.0627451 0.99803 0
    outer loop
      vertex -20 21 -5
      vertex -20.6267 20.9606 0
      vertex -20 21 0
    endloop
  endfacet
  facet normal -0.0627451 0.99803 0
    outer loop
      vertex -20.6267 20.9606 0
      vertex -20 21 -5
      vertex -20.6267 20.9606 -5
    endloop
  endfacet
  facet normal -0.187441 0.982276 0
    outer loop
      vertex -20.6267 20.9606 -5
      vertex -21.2435 20.8429 0
      vertex -20.6267 20.9606 0
    endloop
  endfacet
  facet normal -0.187441 0.982276 0
    outer loop
      vertex -21.2435 20.8429 0
      vertex -20.6267 20.9606 -5
      vertex -21.2435 20.8429 -5
    endloop
  endfacet
  facet normal -0.309003 0.951061 0
    outer loop
      vertex -21.2435 20.8429 -5
      vertex -21.8406 20.6489 0
      vertex -21.2435 20.8429 0
    endloop
  endfacet
  facet normal -0.309003 0.951061 0
    outer loop
      vertex -21.8406 20.6489 0
      vertex -21.2435 20.8429 -5
      vertex -21.8406 20.6489 -5
    endloop
  endfacet
  facet normal -0.951061 -0.309003 0
    outer loop
      vertex -24.6489 -17.8406 -5
      vertex -24.8429 -17.2435 0
      vertex -24.8429 -17.2435 -5
    endloop
  endfacet
  facet normal -0.951061 -0.309003 0
    outer loop
      vertex -24.8429 -17.2435 0
      vertex -24.6489 -17.8406 -5
      vertex -24.6489 -17.8406 0
    endloop
  endfacet
  facet normal -0.844336 -0.535814 0
    outer loop
      vertex -24.0451 -18.9389 -5
      vertex -24.3815 -18.4088 0
      vertex -24.3815 -18.4088 -5
    endloop
  endfacet
  facet normal -0.844336 -0.535814 0
    outer loop
      vertex -24.3815 -18.4088 0
      vertex -24.0451 -18.9389 -5
      vertex -24.0451 -18.9389 0
    endloop
  endfacet
  facet normal 0.904829 0.425775 0
    outer loop
      vertex -22.784 -12.5256 0
      vertex -24.1742 -9.57124 -5
      vertex -24.1742 -9.57124 0
    endloop
  endfacet
  facet normal 0.904829 0.425775 0
    outer loop
      vertex -24.1742 -9.57124 -5
      vertex -22.784 -12.5256 0
      vertex -22.784 -12.5256 -5
    endloop
  endfacet
  facet normal 0.951058 -0.309013 0
    outer loop
      vertex -25 7.02965 0
      vertex -24.1742 9.57124 -5
      vertex -24.1742 9.57124 0
    endloop
  endfacet
  facet normal 0.951058 -0.309013 0
    outer loop
      vertex -24.1742 9.57124 -5
      vertex -25 7.02965 0
      vertex -25 7.02965 -5
    endloop
  endfacet
  facet normal 0.770521 0.637415 0
    outer loop
      vertex -18.9532 -17.7982 0
      vertex -21.0344 -15.2824 -5
      vertex -21.0344 -15.2824 0
    endloop
  endfacet
  facet normal 0.770521 0.637415 0
    outer loop
      vertex -21.0344 -15.2824 -5
      vertex -18.9532 -17.7982 0
      vertex -18.9532 -17.7982 -5
    endloop
  endfacet
  facet normal -0.770345 0.637627 0
    outer loop
      vertex 20.9779 -15.3507 -5
      vertex 21 -15.324 0
      vertex 21 -15.324 -5
    endloop
  endfacet
  facet normal -0.770345 0.637627 0
    outer loop
      vertex 21 -15.324 0
      vertex 20.9779 -15.3507 -5
      vertex 20.9779 -15.3507 0
    endloop
  endfacet
  facet normal 0.904829 -0.425775 0
    outer loop
      vertex -24.1742 9.57124 0
      vertex -22.784 12.5256 -5
      vertex -22.784 12.5256 0
    endloop
  endfacet
  facet normal 0.904829 -0.425775 0
    outer loop
      vertex -22.784 12.5256 -5
      vertex -24.1742 9.57124 0
      vertex -24.1742 9.57124 -5
    endloop
  endfacet
  facet normal 0.684538 0.728977 -0
    outer loop
      vertex -16.573 -20.0333 -5
      vertex -18.9532 -17.7982 0
      vertex -16.573 -20.0333 0
    endloop
  endfacet
  facet normal 0.684538 0.728977 0
    outer loop
      vertex -18.9532 -17.7982 0
      vertex -16.573 -20.0333 -5
      vertex -18.9532 -17.7982 -5
    endloop
  endfacet
  facet normal 0.770528 -0.637406 0
    outer loop
      vertex -21.0344 15.2824 0
      vertex -20.9779 15.3507 -5
      vertex -20.9779 15.3507 0
    endloop
  endfacet
  facet normal 0.770528 -0.637406 0
    outer loop
      vertex -20.9779 15.3507 -5
      vertex -21.0344 15.2824 0
      vertex -21.0344 15.2824 -5
    endloop
  endfacet
  facet normal 0.951058 0.309013 0
    outer loop
      vertex -24.1742 -9.57124 0
      vertex -25 -7.02965 -5
      vertex -25 -7.02965 0
    endloop
  endfacet
  facet normal 0.951058 0.309013 0
    outer loop
      vertex -25 -7.02965 -5
      vertex -24.1742 -9.57124 0
      vertex -24.1742 -9.57124 -5
    endloop
  endfacet
  facet normal 0.844317 0.535845 0
    outer loop
      vertex -21.0344 -15.2824 0
      vertex -22.784 -12.5256 -5
      vertex -22.784 -12.5256 0
    endloop
  endfacet
  facet normal 0.844317 0.535845 0
    outer loop
      vertex -22.784 -12.5256 -5
      vertex -21.0344 -15.2824 0
      vertex -21.0344 -15.2824 -5
    endloop
  endfacet
  facet normal 0.844317 -0.535845 0
    outer loop
      vertex -22.784 12.5256 0
      vertex -21.0344 15.2824 -5
      vertex -21.0344 15.2824 0
    endloop
  endfacet
  facet normal 0.844317 -0.535845 0
    outer loop
      vertex -21.0344 15.2824 -5
      vertex -22.784 12.5256 0
      vertex -22.784 12.5256 -5
    endloop
  endfacet
  facet normal 0.586397 -0.810024 0
    outer loop
      vertex -15.2588 20.9882 -5
      vertex -15.2425 21 0
      vertex -15.2588 20.9882 0
    endloop
  endfacet
  facet normal 0.586397 -0.810024 0
    outer loop
      vertex -15.2425 21 0
      vertex -15.2588 20.9882 -5
      vertex -15.2425 21 -5
    endloop
  endfacet
  facet normal 0.587799 0.809007 -0
    outer loop
      vertex -15.2425 -21 -5
      vertex -16.573 -20.0333 0
      vertex -15.2425 -21 0
    endloop
  endfacet
  facet normal 0.587799 0.809007 0
    outer loop
      vertex -16.573 -20.0333 0
      vertex -15.2425 -21 -5
      vertex -16.573 -20.0333 -5
    endloop
  endfacet
  facet normal -0.586397 0.810024 0
    outer loop
      vertex 15.2588 -20.9882 -5
      vertex 15.2425 -21 0
      vertex 15.2588 -20.9882 0
    endloop
  endfacet
  facet normal -0.586397 0.810024 0
    outer loop
      vertex 15.2425 -21 0
      vertex 15.2588 -20.9882 -5
      vertex 15.2425 -21 -5
    endloop
  endfacet
  facet normal -0.586397 -0.810024 0
    outer loop
      vertex 15.2425 21 -5
      vertex 15.2588 20.9882 0
      vertex 15.2425 21 0
    endloop
  endfacet
  facet normal -0.586397 -0.810024 -0
    outer loop
      vertex 15.2588 20.9882 0
      vertex 15.2425 21 -5
      vertex 15.2588 20.9882 -5
    endloop
  endfacet
  facet normal -0.770345 -0.637627 0
    outer loop
      vertex 21 15.324 -5
      vertex 20.9779 15.3507 0
      vertex 20.9779 15.3507 -5
    endloop
  endfacet
  facet normal -0.770345 -0.637627 0
    outer loop
      vertex 20.9779 15.3507 0
      vertex 21 15.324 -5
      vertex 21 15.324 0
    endloop
  endfacet
  facet normal -0.982283 -0.187405 0
    outer loop
      vertex 20.9527 15.752 -5
      vertex 20.8115 16.4921 0
      vertex 20.8115 16.4921 -5
    endloop
  endfacet
  facet normal -0.982283 -0.187405 0
    outer loop
      vertex 20.8115 16.4921 0
      vertex 20.9527 15.752 -5
      vertex 20.9527 15.752 0
    endloop
  endfacet
  facet normal -0.998034 -0.0626725 0
    outer loop
      vertex 20.9779 15.3507 -5
      vertex 20.9527 15.752 0
      vertex 20.9527 15.752 -5
    endloop
  endfacet
  facet normal -0.998034 -0.0626725 0
    outer loop
      vertex 20.9527 15.752 0
      vertex 20.9779 15.3507 -5
      vertex 20.9779 15.3507 0
    endloop
  endfacet
  facet normal -0.587848 -0.808971 0
    outer loop
      vertex 18.215 20.066 -5
      vertex 18.8245 19.6231 0
      vertex 18.215 20.066 0
    endloop
  endfacet
  facet normal -0.587848 -0.808971 -0
    outer loop
      vertex 18.8245 19.6231 0
      vertex 18.215 20.066 -5
      vertex 18.8245 19.6231 -5
    endloop
  endfacet
  facet normal -0.844355 -0.535784 0
    outer loop
      vertex 20.2578 17.8905 -5
      vertex 19.8541 18.5267 0
      vertex 19.8541 18.5267 -5
    endloop
  endfacet
  facet normal -0.844355 -0.535784 0
    outer loop
      vertex 19.8541 18.5267 0
      vertex 20.2578 17.8905 -5
      vertex 20.2578 17.8905 0
    endloop
  endfacet
  facet normal -0.248714 -0.968577 0
    outer loop
      vertex 16.1243 20.8937 -5
      vertex 16.8541 20.7063 0
      vertex 16.1243 20.8937 0
    endloop
  endfacet
  facet normal -0.248714 -0.968577 -0
    outer loop
      vertex 16.8541 20.7063 0
      vertex 16.1243 20.8937 -5
      vertex 16.8541 20.7063 -5
    endloop
  endfacet
  facet normal -0.481751 -0.876308 0
    outer loop
      vertex 17.5547 20.429 -5
      vertex 18.215 20.066 0
      vertex 17.5547 20.429 0
    endloop
  endfacet
  facet normal -0.481751 -0.876308 -0
    outer loop
      vertex 18.215 20.066 0
      vertex 17.5547 20.429 -5
      vertex 18.215 20.066 -5
    endloop
  endfacet
  facet normal -0.904792 -0.425855 0
    outer loop
      vertex 20.5787 17.2087 -5
      vertex 20.2578 17.8905 0
      vertex 20.2578 17.8905 -5
    endloop
  endfacet
  facet normal -0.904792 -0.425855 0
    outer loop
      vertex 20.2578 17.8905 0
      vertex 20.5787 17.2087 -5
      vertex 20.5787 17.2087 0
    endloop
  endfacet
  facet normal -0.368025 -0.929816 0
    outer loop
      vertex 16.8541 20.7063 -5
      vertex 17.5547 20.429 0
      vertex 16.8541 20.7063 0
    endloop
  endfacet
  facet normal -0.368025 -0.929816 -0
    outer loop
      vertex 17.5547 20.429 0
      vertex 16.8541 20.7063 -5
      vertex 17.5547 20.429 -5
    endloop
  endfacet
  facet normal -0.125407 -0.992105 0
    outer loop
      vertex 15.3767 20.9882 -5
      vertex 16.1243 20.8937 0
      vertex 15.3767 20.9882 0
    endloop
  endfacet
  facet normal -0.125407 -0.992105 -0
    outer loop
      vertex 16.1243 20.8937 0
      vertex 15.3767 20.9882 -5
      vertex 16.1243 20.8937 -5
    endloop
  endfacet
  facet normal 0 -1 0
    outer loop
      vertex 15.2588 20.9882 -5
      vertex 15.3767 20.9882 0
      vertex 15.2588 20.9882 0
    endloop
  endfacet
  facet normal 0 -1 -0
    outer loop
      vertex 15.3767 20.9882 0
      vertex 15.2588 20.9882 -5
      vertex 15.3767 20.9882 -5
    endloop
  endfacet
  facet normal -0.770522 -0.637413 0
    outer loop
      vertex 19.8541 18.5267 -5
      vertex 19.3738 19.1073 0
      vertex 19.3738 19.1073 -5
    endloop
  endfacet
  facet normal -0.770522 -0.637413 0
    outer loop
      vertex 19.3738 19.1073 0
      vertex 19.8541 18.5267 -5
      vertex 19.8541 18.5267 0
    endloop
  endfacet
  facet normal -0.684528 -0.728987 0
    outer loop
      vertex 18.8245 19.6231 -5
      vertex 19.3738 19.1073 0
      vertex 18.8245 19.6231 0
    endloop
  endfacet
  facet normal -0.684528 -0.728987 -0
    outer loop
      vertex 19.3738 19.1073 0
      vertex 18.8245 19.6231 -5
      vertex 19.3738 19.1073 -5
    endloop
  endfacet
  facet normal -0.951071 -0.308972 0
    outer loop
      vertex 20.8115 16.4921 -5
      vertex 20.5787 17.2087 0
      vertex 20.5787 17.2087 -5
    endloop
  endfacet
  facet normal -0.951071 -0.308972 0
    outer loop
      vertex 20.5787 17.2087 0
      vertex 20.8115 16.4921 -5
      vertex 20.8115 16.4921 0
    endloop
  endfacet
  facet normal -0.998034 0.0626725 0
    outer loop
      vertex 20.9527 -15.752 -5
      vertex 20.9779 -15.3507 0
      vertex 20.9779 -15.3507 -5
    endloop
  endfacet
  facet normal -0.998034 0.0626725 0
    outer loop
      vertex 20.9779 -15.3507 0
      vertex 20.9527 -15.752 -5
      vertex 20.9527 -15.752 0
    endloop
  endfacet
  facet normal -0.248714 0.968577 0
    outer loop
      vertex 16.8541 -20.7063 -5
      vertex 16.1243 -20.8937 0
      vertex 16.8541 -20.7063 0
    endloop
  endfacet
  facet normal -0.248714 0.968577 0
    outer loop
      vertex 16.1243 -20.8937 0
      vertex 16.8541 -20.7063 -5
      vertex 16.1243 -20.8937 -5
    endloop
  endfacet
  facet normal -0.125407 0.992105 0
    outer loop
      vertex 16.1243 -20.8937 -5
      vertex 15.3767 -20.9882 0
      vertex 16.1243 -20.8937 0
    endloop
  endfacet
  facet normal -0.125407 0.992105 0
    outer loop
      vertex 15.3767 -20.9882 0
      vertex 16.1243 -20.8937 -5
      vertex 15.3767 -20.9882 -5
    endloop
  endfacet
  facet normal -0.951071 0.308972 0
    outer loop
      vertex 20.5787 -17.2087 -5
      vertex 20.8115 -16.4921 0
      vertex 20.8115 -16.4921 -5
    endloop
  endfacet
  facet normal -0.951071 0.308972 0
    outer loop
      vertex 20.8115 -16.4921 0
      vertex 20.5787 -17.2087 -5
      vertex 20.5787 -17.2087 0
    endloop
  endfacet
  facet normal -0.481751 0.876308 0
    outer loop
      vertex 18.215 -20.066 -5
      vertex 17.5547 -20.429 0
      vertex 18.215 -20.066 0
    endloop
  endfacet
  facet normal -0.481751 0.876308 0
    outer loop
      vertex 17.5547 -20.429 0
      vertex 18.215 -20.066 -5
      vertex 17.5547 -20.429 -5
    endloop
  endfacet
  facet normal -0.684528 0.728987 0
    outer loop
      vertex 19.3738 -19.1073 -5
      vertex 18.8245 -19.6231 0
      vertex 19.3738 -19.1073 0
    endloop
  endfacet
  facet normal -0.684528 0.728987 0
    outer loop
      vertex 18.8245 -19.6231 0
      vertex 19.3738 -19.1073 -5
      vertex 18.8245 -19.6231 -5
    endloop
  endfacet
  facet normal -0.587848 0.808971 0
    outer loop
      vertex 18.8245 -19.6231 -5
      vertex 18.215 -20.066 0
      vertex 18.8245 -19.6231 0
    endloop
  endfacet
  facet normal -0.587848 0.808971 0
    outer loop
      vertex 18.215 -20.066 0
      vertex 18.8245 -19.6231 -5
      vertex 18.215 -20.066 -5
    endloop
  endfacet
  facet normal -0.904792 0.425855 0
    outer loop
      vertex 20.2578 -17.8905 -5
      vertex 20.5787 -17.2087 0
      vertex 20.5787 -17.2087 -5
    endloop
  endfacet
  facet normal -0.904792 0.425855 0
    outer loop
      vertex 20.5787 -17.2087 0
      vertex 20.2578 -17.8905 -5
      vertex 20.2578 -17.8905 0
    endloop
  endfacet
  facet normal -0.770522 0.637413 0
    outer loop
      vertex 19.3738 -19.1073 -5
      vertex 19.8541 -18.5267 0
      vertex 19.8541 -18.5267 -5
    endloop
  endfacet
  facet normal -0.770522 0.637413 0
    outer loop
      vertex 19.8541 -18.5267 0
      vertex 19.3738 -19.1073 -5
      vertex 19.3738 -19.1073 0
    endloop
  endfacet
  facet normal -0.844355 0.535784 0
    outer loop
      vertex 19.8541 -18.5267 -5
      vertex 20.2578 -17.8905 0
      vertex 20.2578 -17.8905 -5
    endloop
  endfacet
  facet normal -0.844355 0.535784 0
    outer loop
      vertex 20.2578 -17.8905 0
      vertex 19.8541 -18.5267 -5
      vertex 19.8541 -18.5267 0
    endloop
  endfacet
  facet normal -0.982283 0.187405 0
    outer loop
      vertex 20.8115 -16.4921 -5
      vertex 20.9527 -15.752 0
      vertex 20.9527 -15.752 -5
    endloop
  endfacet
  facet normal -0.982283 0.187405 0
    outer loop
      vertex 20.9527 -15.752 0
      vertex 20.8115 -16.4921 -5
      vertex 20.8115 -16.4921 0
    endloop
  endfacet
  facet normal 0 1 -0
    outer loop
      vertex 15.3767 -20.9882 -5
      vertex 15.2588 -20.9882 0
      vertex 15.3767 -20.9882 0
    endloop
  endfacet
  facet normal 0 1 0
    outer loop
      vertex 15.2588 -20.9882 0
      vertex 15.3767 -20.9882 -5
      vertex 15.2588 -20.9882 -5
    endloop
  endfacet
  facet normal -0.368025 0.929816 0
    outer loop
      vertex 17.5547 -20.429 -5
      vertex 16.8541 -20.7063 0
      vertex 17.5547 -20.429 0
    endloop
  endfacet
  facet normal -0.368025 0.929816 0
    outer loop
      vertex 16.8541 -20.7063 0
      vertex 17.5547 -20.429 -5
      vertex 16.8541 -20.7063 -5
    endloop
  endfacet
  facet normal 0.125407 -0.992105 0
    outer loop
      vertex -16.1243 20.8937 -5
      vertex -15.3767 20.9882 0
      vertex -16.1243 20.8937 0
    endloop
  endfacet
  facet normal 0.125407 -0.992105 0
    outer loop
      vertex -15.3767 20.9882 0
      vertex -16.1243 20.8937 -5
      vertex -15.3767 20.9882 -5
    endloop
  endfacet
  facet normal 0.770522 -0.637413 0
    outer loop
      vertex -19.8541 18.5267 0
      vertex -19.3738 19.1073 -5
      vertex -19.3738 19.1073 0
    endloop
  endfacet
  facet normal 0.770522 -0.637413 0
    outer loop
      vertex -19.3738 19.1073 -5
      vertex -19.8541 18.5267 0
      vertex -19.8541 18.5267 -5
    endloop
  endfacet
  facet normal 0.368025 -0.929816 0
    outer loop
      vertex -17.5547 20.429 -5
      vertex -16.8541 20.7063 0
      vertex -17.5547 20.429 0
    endloop
  endfacet
  facet normal 0.368025 -0.929816 0
    outer loop
      vertex -16.8541 20.7063 0
      vertex -17.5547 20.429 -5
      vertex -16.8541 20.7063 -5
    endloop
  endfacet
  facet normal 0.481751 -0.876308 0
    outer loop
      vertex -18.215 20.066 -5
      vertex -17.5547 20.429 0
      vertex -18.215 20.066 0
    endloop
  endfacet
  facet normal 0.481751 -0.876308 0
    outer loop
      vertex -17.5547 20.429 0
      vertex -18.215 20.066 -5
      vertex -17.5547 20.429 -5
    endloop
  endfacet
  facet normal 0.587848 -0.808971 0
    outer loop
      vertex -18.8245 19.6231 -5
      vertex -18.215 20.066 0
      vertex -18.8245 19.6231 0
    endloop
  endfacet
  facet normal 0.587848 -0.808971 0
    outer loop
      vertex -18.215 20.066 0
      vertex -18.8245 19.6231 -5
      vertex -18.215 20.066 -5
    endloop
  endfacet
  facet normal 0.951071 -0.308972 0
    outer loop
      vertex -20.8115 16.4921 0
      vertex -20.5787 17.2087 -5
      vertex -20.5787 17.2087 0
    endloop
  endfacet
  facet normal 0.951071 -0.308972 0
    outer loop
      vertex -20.5787 17.2087 -5
      vertex -20.8115 16.4921 0
      vertex -20.8115 16.4921 -5
    endloop
  endfacet
  facet normal 0.844355 -0.535784 0
    outer loop
      vertex -20.2578 17.8905 0
      vertex -19.8541 18.5267 -5
      vertex -19.8541 18.5267 0
    endloop
  endfacet
  facet normal 0.844355 -0.535784 0
    outer loop
      vertex -19.8541 18.5267 -5
      vertex -20.2578 17.8905 0
      vertex -20.2578 17.8905 -5
    endloop
  endfacet
  facet normal 0.982283 -0.187405 0
    outer loop
      vertex -20.9527 15.752 0
      vertex -20.8115 16.4921 -5
      vertex -20.8115 16.4921 0
    endloop
  endfacet
  facet normal 0.982283 -0.187405 0
    outer loop
      vertex -20.8115 16.4921 -5
      vertex -20.9527 15.752 0
      vertex -20.9527 15.752 -5
    endloop
  endfacet
  facet normal 0.904792 -0.425855 0
    outer loop
      vertex -20.5787 17.2087 0
      vertex -20.2578 17.8905 -5
      vertex -20.2578 17.8905 0
    endloop
  endfacet
  facet normal 0.904792 -0.425855 0
    outer loop
      vertex -20.2578 17.8905 -5
      vertex -20.5787 17.2087 0
      vertex -20.5787 17.2087 -5
    endloop
  endfacet
  facet normal 0.998034 -0.0626725 0
    outer loop
      vertex -20.9779 15.3507 0
      vertex -20.9527 15.752 -5
      vertex -20.9527 15.752 0
    endloop
  endfacet
  facet normal 0.998034 -0.0626725 0
    outer loop
      vertex -20.9527 15.752 -5
      vertex -20.9779 15.3507 0
      vertex -20.9779 15.3507 -5
    endloop
  endfacet
  facet normal 0 -1 0
    outer loop
      vertex -15.3767 20.9882 -5
      vertex -15.2588 20.9882 0
      vertex -15.3767 20.9882 0
    endloop
  endfacet
  facet normal 0 -1 -0
    outer loop
      vertex -15.2588 20.9882 0
      vertex -15.3767 20.9882 -5
      vertex -15.2588 20.9882 -5
    endloop
  endfacet
  facet normal 0.248714 -0.968577 0
    outer loop
      vertex -16.8541 20.7063 -5
      vertex -16.1243 20.8937 0
      vertex -16.8541 20.7063 0
    endloop
  endfacet
  facet normal 0.248714 -0.968577 0
    outer loop
      vertex -16.1243 20.8937 0
      vertex -16.8541 20.7063 -5
      vertex -16.1243 20.8937 -5
    endloop
  endfacet
  facet normal 0.684528 -0.728987 0
    outer loop
      vertex -19.3738 19.1073 -5
      vertex -18.8245 19.6231 0
      vertex -19.3738 19.1073 0
    endloop
  endfacet
  facet normal 0.684528 -0.728987 0
    outer loop
      vertex -18.8245 19.6231 0
      vertex -19.3738 19.1073 -5
      vertex -18.8245 19.6231 -5
    endloop
  endfacet
endsolid OpenSCAD_Model
