solid OpenSCAD_Model
  facet normal 0 -1 0
    outer loop
      vertex -20 -21 -5
      vertex 8.71243 -21 0
      vertex -20 -21 0
    endloop
  endfacet
  facet normal 0 -1 -0
    outer loop
      vertex 8.71243 -21 0
      vertex -20 -21 -5
      vertex 8.71243 -21 -5
    endloop
  endfacet
  facet normal 1 -0 0
    outer loop
      vertex 21 -8.74968 0
      vertex 21 8.71243 -5
      vertex 21 8.71243 0
    endloop
  endfacet
  facet normal 1 0 0
    outer loop
      vertex 21 8.71243 -5
      vertex 21 -8.74968 0
      vertex 21 -8.74968 -5
    endloop
  endfacet
  facet normal 0 0 -1
    outer loop
      vertex -5.52449 11.7401 -5
      vertex -8.81159 13.8195 -5
      vertex -8.71243 15.3956 -5
    endloop
  endfacet
  facet normal 0 0 -1
    outer loop
      vertex -5.52449 11.7401 -5
      vertex -9.29959 12.3176 -5
      vertex -8.81159 13.8195 -5
    endloop
  endfacet
  facet normal 0 0 -1
    outer loop
      vertex -8.27058 9.99741 -5
      vertex -10.1458 10.9842 -5
      vertex -9.29959 12.3176 -5
    endloop
  endfacet
  facet normal 0 0 -1
    outer loop
      vertex -11.297 9.90319 -5
      vertex -8.27058 9.99741 -5
      vertex -10.497 7.62651 -5
    endloop
  endfacet
  facet normal -0 0 -1
    outer loop
      vertex -8.27058 9.99741 -5
      vertex -11.297 9.90319 -5
      vertex -10.1458 10.9842 -5
    endloop
  endfacet
  facet normal 0 0 -1
    outer loop
      vertex -12.6808 9.14241 -5
      vertex -10.497 7.62651 -5
      vertex -12.0638 4.77642 -5
    endloop
  endfacet
  facet normal 0 0 -1
    outer loop
      vertex -10.497 7.62651 -5
      vertex -12.6808 9.14241 -5
      vertex -11.297 9.90319 -5
    endloop
  endfacet
  facet normal 0 0 -1
    outer loop
      vertex -14.2104 8.74968 -5
      vertex -12.0638 4.77642 -5
      vertex -12.8727 1.6262 -5
    endloop
  endfacet
  facet normal 0 0 -1
    outer loop
      vertex -12.0638 4.77642 -5
      vertex -14.2104 8.74968 -5
      vertex -12.6808 9.14241 -5
    endloop
  endfacet
  facet normal 0 0 -1
    outer loop
      vertex 4.00949 12.34 -5
      vertex 1.757 12.9568 -5
      vertex 3.514 16 -5
    endloop
  endfacet
  facet normal 0 0 -1
    outer loop
      vertex 0.814707 12.9494 -5
      vertex 1.757 12.9568 -5
      vertex 4.00949 12.34 -5
    endloop
  endfacet
  facet normal 0 0 -1
    outer loop
      vertex 0.814707 12.9494 -5
      vertex -1.757 12.9568 -5
      vertex 1.757 12.9568 -5
    endloop
  endfacet
  facet normal 0 0 -1
    outer loop
      vertex -2.43127 12.7452 -5
      vertex -1.757 12.9568 -5
      vertex 0.814707 12.9494 -5
    endloop
  endfacet
  facet normal 0 0 -1
    outer loop
      vertex -2.43127 12.7452 -5
      vertex -3.514 16 -5
      vertex -1.757 12.9568 -5
    endloop
  endfacet
  facet normal 0 -0 -1
    outer loop
      vertex -3.514 16 -5
      vertex -2.43127 12.7452 -5
      vertex -5.52449 11.7401 -5
    endloop
  endfacet
  facet normal 0 0 -1
    outer loop
      vertex 3.514 -16 -5
      vertex 8.71243 -15.3956 -5
      vertex 8.71243 -21 -5
    endloop
  endfacet
  facet normal 0 -0 -1
    outer loop
      vertex 4.00949 -12.34 -5
      vertex 8.71243 -15.3956 -5
      vertex 3.514 -16 -5
    endloop
  endfacet
  facet normal 0 0 -1
    outer loop
      vertex 8.71243 -15.3956 -5
      vertex 4.00949 -12.34 -5
      vertex 6.95235 -10.9552 -5
    endloop
  endfacet
  facet normal 0 0 -1
    outer loop
      vertex 8.71243 -21 -5
      vertex 1.757 -19.0432 -5
      vertex 3.514 -16 -5
    endloop
  endfacet
  facet normal 0 0 -1
    outer loop
      vertex 8.71243 -21 -5
      vertex -1.757 -19.0432 -5
      vertex 1.757 -19.0432 -5
    endloop
  endfacet
  facet normal 0 0 -1
    outer loop
      vertex -3.514 -16 -5
      vertex -8.27058 -9.99741 -5
      vertex -5.52449 -11.7401 -5
    endloop
  endfacet
  facet normal 0 0 -1
    outer loop
      vertex -20 -21 -5
      vertex -3.514 -16 -5
      vertex -1.757 -19.0432 -5
    endloop
  endfacet
  facet normal -0 0 -1
    outer loop
      vertex -3.514 -16 -5
      vertex -20 -21 -5
      vertex -8.27058 -9.99741 -5
    endloop
  endfacet
  facet normal 0 0 -1
    outer loop
      vertex -25 8.74968 -5
      vertex -12.8727 1.6262 -5
      vertex -12.8727 -1.6262 -5
    endloop
  endfacet
  facet normal 0 0 -1
    outer loop
      vertex -20 -21 -5
      vertex -1.757 -19.0432 -5
      vertex 8.71243 -21 -5
    endloop
  endfacet
  facet normal -0 0 -1
    outer loop
      vertex -8.27058 -9.99741 -5
      vertex -20 -21 -5
      vertex -10.497 -7.62651 -5
    endloop
  endfacet
  facet normal 0 0 -1
    outer loop
      vertex -25 -16 -5
      vertex -10.497 -7.62651 -5
      vertex -20 -21 -5
    endloop
  endfacet
  facet normal -0 0 -1
    outer loop
      vertex -10.497 -7.62651 -5
      vertex -25 -16 -5
      vertex -12.0638 -4.77642 -5
    endloop
  endfacet
  facet normal -0 0 -1
    outer loop
      vertex -12.0638 -4.77642 -5
      vertex -25 -16 -5
      vertex -12.8727 -1.6262 -5
    endloop
  endfacet
  facet normal 0 0 -1
    outer loop
      vertex -25 -16 -5
      vertex -20 -21 -5
      vertex -21.5451 -20.7553 -5
    endloop
  endfacet
  facet normal 0 0 -1
    outer loop
      vertex -25 -16 -5
      vertex -21.5451 -20.7553 -5
      vertex -22.6791 -20.2216 -5
    endloop
  endfacet
  facet normal 0 0 -1
    outer loop
      vertex -25 -16 -5
      vertex -22.6791 -20.2216 -5
      vertex -23.6448 -19.4227 -5
    endloop
  endfacet
  facet normal 0 0 -1
    outer loop
      vertex -25 -16 -5
      vertex -23.6448 -19.4227 -5
      vertex -24.3815 -18.4088 -5
    endloop
  endfacet
  facet normal 0 0 -1
    outer loop
      vertex -25 -16 -5
      vertex -24.3815 -18.4088 -5
      vertex -24.8429 -17.2435 -5
    endloop
  endfacet
  facet normal 0 0 -1
    outer loop
      vertex -25 8.74968 -5
      vertex -12.8727 -1.6262 -5
      vertex -25 -16 -5
    endloop
  endfacet
  facet normal 0 0 -1
    outer loop
      vertex -12.8727 1.6262 -5
      vertex -25 8.74968 -5
      vertex -14.2104 8.74968 -5
    endloop
  endfacet
  facet normal 0 0 -1
    outer loop
      vertex 12.975 0 -5
      vertex 21 8.71243 -5
      vertex 21 -8.74968 -5
    endloop
  endfacet
  facet normal 0 0 -1
    outer loop
      vertex 12.5674 -3.22675 -5
      vertex 21 -8.74968 -5
      vertex 14.2104 -8.74968 -5
    endloop
  endfacet
  facet normal 0 0 -1
    outer loop
      vertex 12.5674 3.22675 -5
      vertex 21 8.71243 -5
      vertex 12.975 0 -5
    endloop
  endfacet
  facet normal -0 0 -1
    outer loop
      vertex 21 8.71243 -5
      vertex 12.5674 3.22675 -5
      vertex 15.3956 8.71243 -5
    endloop
  endfacet
  facet normal 0 0 -1
    outer loop
      vertex 11.3701 -6.25075 -5
      vertex 14.2104 -8.74968 -5
      vertex 12.6808 -9.14241 -5
    endloop
  endfacet
  facet normal 0 0 -1
    outer loop
      vertex 21 -8.74968 -5
      vertex 12.5674 -3.22675 -5
      vertex 12.975 0 -5
    endloop
  endfacet
  facet normal 0 0 -1
    outer loop
      vertex 14.2104 -8.74968 -5
      vertex 11.3701 -6.25075 -5
      vertex 12.5674 -3.22675 -5
    endloop
  endfacet
  facet normal 0 0 -1
    outer loop
      vertex 11.297 -9.90319 -5
      vertex 11.3701 -6.25075 -5
      vertex 12.6808 -9.14241 -5
    endloop
  endfacet
  facet normal 0 0 -1
    outer loop
      vertex 9.45837 -8.882 -5
      vertex 11.297 -9.90319 -5
      vertex 10.1458 -10.9842 -5
    endloop
  endfacet
  facet normal 0 0 -1
    outer loop
      vertex 11.297 -9.90319 -5
      vertex 9.45837 -8.882 -5
      vertex 11.3701 -6.25075 -5
    endloop
  endfacet
  facet normal 0 0 -1
    outer loop
      vertex 6.95235 -10.9552 -5
      vertex 10.1458 -10.9842 -5
      vertex 9.29959 -12.3176 -5
    endloop
  endfacet
  facet normal 0 0 -1
    outer loop
      vertex 6.95235 -10.9552 -5
      vertex 9.29959 -12.3176 -5
      vertex 8.81159 -13.8195 -5
    endloop
  endfacet
  facet normal 0 0 -1
    outer loop
      vertex 10.1458 -10.9842 -5
      vertex 6.95235 -10.9552 -5
      vertex 9.45837 -8.882 -5
    endloop
  endfacet
  facet normal 0 0 -1
    outer loop
      vertex 6.95235 -10.9552 -5
      vertex 8.81159 -13.8195 -5
      vertex 8.71243 -15.3956 -5
    endloop
  endfacet
  facet normal 0 0 -1
    outer loop
      vertex 11.3701 6.25075 -5
      vertex 15.3956 8.71243 -5
      vertex 12.5674 3.22675 -5
    endloop
  endfacet
  facet normal -0 0 -1
    outer loop
      vertex 15.3956 8.71243 -5
      vertex 11.3701 6.25075 -5
      vertex 13.8195 8.81159 -5
    endloop
  endfacet
  facet normal -0 0 -1
    outer loop
      vertex 13.8195 8.81159 -5
      vertex 11.3701 6.25075 -5
      vertex 12.3176 9.29959 -5
    endloop
  endfacet
  facet normal 0 0 -1
    outer loop
      vertex 9.45837 8.882 -5
      vertex 12.3176 9.29959 -5
      vertex 11.3701 6.25075 -5
    endloop
  endfacet
  facet normal -0 0 -1
    outer loop
      vertex 12.3176 9.29959 -5
      vertex 9.45837 8.882 -5
      vertex 10.9842 10.1458 -5
    endloop
  endfacet
  facet normal -0 0 -1
    outer loop
      vertex 10.9842 10.1458 -5
      vertex 9.45837 8.882 -5
      vertex 9.90319 11.297 -5
    endloop
  endfacet
  facet normal 0 0 -1
    outer loop
      vertex 6.95235 10.9552 -5
      vertex 9.90319 11.297 -5
      vertex 9.45837 8.882 -5
    endloop
  endfacet
  facet normal -0 0 -1
    outer loop
      vertex 9.90319 11.297 -5
      vertex 6.95235 10.9552 -5
      vertex 9.14241 12.6808 -5
    endloop
  endfacet
  facet normal -0 0 -1
    outer loop
      vertex 9.14241 12.6808 -5
      vertex 6.95235 10.9552 -5
      vertex 8.74968 14.2104 -5
    endloop
  endfacet
  facet normal 0 0 -1
    outer loop
      vertex 4.00949 12.34 -5
      vertex 8.74968 14.2104 -5
      vertex 6.95235 10.9552 -5
    endloop
  endfacet
  facet normal -0 0 -1
    outer loop
      vertex 8.74968 14.2104 -5
      vertex 4.00949 12.34 -5
      vertex 3.514 16 -5
    endloop
  endfacet
  facet normal 0 0 -1
    outer loop
      vertex 8.74968 14.2104 -5
      vertex 3.514 16 -5
      vertex 8.74968 21 -5
    endloop
  endfacet
  facet normal 0 0 -1
    outer loop
      vertex 1.757 19.0432 -5
      vertex 8.74968 21 -5
      vertex 3.514 16 -5
    endloop
  endfacet
  facet normal 0 0 -1
    outer loop
      vertex -1.757 19.0432 -5
      vertex 8.74968 21 -5
      vertex 1.757 19.0432 -5
    endloop
  endfacet
  facet normal 0 0 -1
    outer loop
      vertex -9.29959 12.3176 -5
      vertex -5.52449 11.7401 -5
      vertex -8.27058 9.99741 -5
    endloop
  endfacet
  facet normal 0 0 -1
    outer loop
      vertex -5.52449 11.7401 -5
      vertex -8.71243 15.3956 -5
      vertex -3.514 16 -5
    endloop
  endfacet
  facet normal 0 0 -1
    outer loop
      vertex -8.71243 21 -5
      vertex -3.514 16 -5
      vertex -8.71243 15.3956 -5
    endloop
  endfacet
  facet normal 0 0 -1
    outer loop
      vertex -1.757 19.0432 -5
      vertex -8.71243 21 -5
      vertex 8.74968 21 -5
    endloop
  endfacet
  facet normal 0 0 -1
    outer loop
      vertex -3.514 16 -5
      vertex -8.71243 21 -5
      vertex -1.757 19.0432 -5
    endloop
  endfacet
  facet normal 0 0 -1
    outer loop
      vertex 1.757 -12.9568 -5
      vertex 4.00949 -12.34 -5
      vertex 3.514 -16 -5
    endloop
  endfacet
  facet normal 0 0 -1
    outer loop
      vertex 1.757 -12.9568 -5
      vertex 0.814707 -12.9494 -5
      vertex 4.00949 -12.34 -5
    endloop
  endfacet
  facet normal 0 0 -1
    outer loop
      vertex -1.757 -12.9568 -5
      vertex 0.814707 -12.9494 -5
      vertex 1.757 -12.9568 -5
    endloop
  endfacet
  facet normal 0 0 -1
    outer loop
      vertex -1.757 -12.9568 -5
      vertex -2.43127 -12.7452 -5
      vertex 0.814707 -12.9494 -5
    endloop
  endfacet
  facet normal 0 0 -1
    outer loop
      vertex -3.514 -16 -5
      vertex -2.43127 -12.7452 -5
      vertex -1.757 -12.9568 -5
    endloop
  endfacet
  facet normal -0 0 -1
    outer loop
      vertex -2.43127 -12.7452 -5
      vertex -3.514 -16 -5
      vertex -5.52449 -11.7401 -5
    endloop
  endfacet
  facet normal 0 1 -0
    outer loop
      vertex 8.74968 21 -5
      vertex -8.71243 21 0
      vertex 8.74968 21 0
    endloop
  endfacet
  facet normal 0 1 0
    outer loop
      vertex -8.71243 21 0
      vertex 8.74968 21 -5
      vertex -8.71243 21 -5
    endloop
  endfacet
  facet normal 0 0 1
    outer loop
      vertex 4.00949 -12.34 0
      vertex 1.64659 -15.5772 0
      vertex 1.7 -16 0
    endloop
  endfacet
  facet normal 0 0 1
    outer loop
      vertex 4.00949 -12.34 0
      vertex 1.48972 -15.181 0
      vertex 1.64659 -15.5772 0
    endloop
  endfacet
  facet normal 0 0 1
    outer loop
      vertex 4.00949 -12.34 0
      vertex 1.23925 -14.8363 0
      vertex 1.48972 -15.181 0
    endloop
  endfacet
  facet normal -0 0 1
    outer loop
      vertex 0.814707 -12.9494 0
      vertex 1.23925 -14.8363 0
      vertex 4.00949 -12.34 0
    endloop
  endfacet
  facet normal 0 0 1
    outer loop
      vertex 1.23925 -14.8363 0
      vertex 0.814707 -12.9494 0
      vertex 0.910905 -14.5646 0
    endloop
  endfacet
  facet normal 0 0 1
    outer loop
      vertex 0.814707 -12.9494 0
      vertex 0.525329 -14.3832 0
      vertex 0.910905 -14.5646 0
    endloop
  endfacet
  facet normal 0 0 1
    outer loop
      vertex 0.814707 -12.9494 0
      vertex 0.106744 -14.3034 0
      vertex 0.525329 -14.3832 0
    endloop
  endfacet
  facet normal 0 0 1
    outer loop
      vertex 0.814707 -12.9494 0
      vertex -0.318548 -14.3301 0
      vertex 0.106744 -14.3034 0
    endloop
  endfacet
  facet normal 0 0 1
    outer loop
      vertex -2.43127 -12.7452 0
      vertex -0.318548 -14.3301 0
      vertex 0.814707 -12.9494 0
    endloop
  endfacet
  facet normal 0 0 1
    outer loop
      vertex -0.318548 -14.3301 0
      vertex -2.43127 -12.7452 0
      vertex -0.723825 -14.4618 0
    endloop
  endfacet
  facet normal 0 0 1
    outer loop
      vertex -5.52449 -11.7401 0
      vertex -1.68659 -15.7869 0
      vertex -2.43127 -12.7452 0
    endloop
  endfacet
  facet normal 0 0 1
    outer loop
      vertex -1.58062 -15.3742 0
      vertex -2.43127 -12.7452 0
      vertex -1.68659 -15.7869 0
    endloop
  endfacet
  facet normal 0 0 1
    outer loop
      vertex -1.37533 -15.0008 0
      vertex -2.43127 -12.7452 0
      vertex -1.58062 -15.3742 0
    endloop
  endfacet
  facet normal 0 0 1
    outer loop
      vertex -1.08362 -14.6901 0
      vertex -2.43127 -12.7452 0
      vertex -1.37533 -15.0008 0
    endloop
  endfacet
  facet normal 0 0 1
    outer loop
      vertex -0.723825 -14.4618 0
      vertex -2.43127 -12.7452 0
      vertex -1.08362 -14.6901 0
    endloop
  endfacet
  facet normal -0 0 1
    outer loop
      vertex 1.64659 16.4228 0
      vertex 8.74968 14.2104 0
      vertex 8.74968 21 0
    endloop
  endfacet
  facet normal 0 0 1
    outer loop
      vertex 8.74968 14.2104 0
      vertex 4.00949 12.34 0
      vertex 6.95235 10.9552 0
    endloop
  endfacet
  facet normal 0 0 1
    outer loop
      vertex 8.74968 14.2104 0
      vertex 1.7 16 0
      vertex 4.00949 12.34 0
    endloop
  endfacet
  facet normal 0 0 1
    outer loop
      vertex 8.74968 14.2104 0
      vertex 1.64659 16.4228 0
      vertex 1.7 16 0
    endloop
  endfacet
  facet normal 0 0 1
    outer loop
      vertex 8.74968 21 0
      vertex 1.48972 16.819 0
      vertex 1.64659 16.4228 0
    endloop
  endfacet
  facet normal 0 0 1
    outer loop
      vertex 8.74968 21 0
      vertex 1.23925 17.1637 0
      vertex 1.48972 16.819 0
    endloop
  endfacet
  facet normal 0 0 1
    outer loop
      vertex 8.74968 21 0
      vertex 0.910905 17.4354 0
      vertex 1.23925 17.1637 0
    endloop
  endfacet
  facet normal 0 0 1
    outer loop
      vertex 8.74968 21 0
      vertex 0.525329 17.6168 0
      vertex 0.910905 17.4354 0
    endloop
  endfacet
  facet normal 0 0 1
    outer loop
      vertex 8.74968 21 0
      vertex 0.106744 17.6966 0
      vertex 0.525329 17.6168 0
    endloop
  endfacet
  facet normal -0 0 1
    outer loop
      vertex -8.71243 21 0
      vertex 0.106744 17.6966 0
      vertex 8.74968 21 0
    endloop
  endfacet
  facet normal 0 0 1
    outer loop
      vertex 0.106744 17.6966 0
      vertex -8.71243 21 0
      vertex -0.318548 17.6699 0
    endloop
  endfacet
  facet normal 0 0 1
    outer loop
      vertex -8.71243 15.3956 0
      vertex -1.68659 15.7869 0
      vertex -1.68659 16.2131 0
    endloop
  endfacet
  facet normal 0 0 1
    outer loop
      vertex -1.68659 15.7869 0
      vertex -5.52449 11.7401 0
      vertex -2.43127 12.7452 0
    endloop
  endfacet
  facet normal 0 0 1
    outer loop
      vertex -8.71243 15.3956 0
      vertex -1.68659 16.2131 0
      vertex -1.58062 16.6258 0
    endloop
  endfacet
  facet normal 0 0 1
    outer loop
      vertex -8.71243 21 0
      vertex -1.58062 16.6258 0
      vertex -1.37533 16.9992 0
    endloop
  endfacet
  facet normal 0 0 1
    outer loop
      vertex -1.68659 15.7869 0
      vertex -8.71243 15.3956 0
      vertex -5.52449 11.7401 0
    endloop
  endfacet
  facet normal 0 0 1
    outer loop
      vertex -8.71243 21 0
      vertex -1.37533 16.9992 0
      vertex -1.08362 17.3099 0
    endloop
  endfacet
  facet normal 0 0 1
    outer loop
      vertex -0.318548 17.6699 0
      vertex -8.71243 21 0
      vertex -0.723825 17.5382 0
    endloop
  endfacet
  facet normal 0 0 1
    outer loop
      vertex -8.71243 21 0
      vertex -1.08362 17.3099 0
      vertex -0.723825 17.5382 0
    endloop
  endfacet
  facet normal 0 0 1
    outer loop
      vertex -1.58062 16.6258 0
      vertex -8.71243 21 0
      vertex -8.71243 15.3956 0
    endloop
  endfacet
  facet normal 0 0 1
    outer loop
      vertex -5.52449 11.7401 0
      vertex -8.71243 15.3956 0
      vertex -8.81159 13.8195 0
    endloop
  endfacet
  facet normal -0 0 1
    outer loop
      vertex -9.29959 12.3176 0
      vertex -5.52449 11.7401 0
      vertex -8.81159 13.8195 0
    endloop
  endfacet
  facet normal 0 0 1
    outer loop
      vertex -5.52449 11.7401 0
      vertex -9.29959 12.3176 0
      vertex -8.27058 9.99741 0
    endloop
  endfacet
  facet normal -0 0 1
    outer loop
      vertex -10.1458 10.9842 0
      vertex -8.27058 9.99741 0
      vertex -9.29959 12.3176 0
    endloop
  endfacet
  facet normal 0 0 1
    outer loop
      vertex -11.297 9.90319 0
      vertex -8.27058 9.99741 0
      vertex -10.1458 10.9842 0
    endloop
  endfacet
  facet normal 0 0 1
    outer loop
      vertex -8.27058 9.99741 0
      vertex -11.297 9.90319 0
      vertex -10.497 7.62651 0
    endloop
  endfacet
  facet normal -0 0 1
    outer loop
      vertex -12.6808 9.14241 0
      vertex -10.497 7.62651 0
      vertex -11.297 9.90319 0
    endloop
  endfacet
  facet normal 0 0 1
    outer loop
      vertex -10.497 7.62651 0
      vertex -12.6808 9.14241 0
      vertex -12.0638 4.77642 0
    endloop
  endfacet
  facet normal -0 0 1
    outer loop
      vertex -14.2104 8.74968 0
      vertex -12.0638 4.77642 0
      vertex -12.6808 9.14241 0
    endloop
  endfacet
  facet normal -0 0 1
    outer loop
      vertex -25 8.74968 0
      vertex -12.8727 1.6262 0
      vertex -14.2104 8.74968 0
    endloop
  endfacet
  facet normal 0 0 1
    outer loop
      vertex -12.0638 4.77642 0
      vertex -14.2104 8.74968 0
      vertex -12.8727 1.6262 0
    endloop
  endfacet
  facet normal 0 0 1
    outer loop
      vertex 21 8.71243 0
      vertex 12.5674 3.22675 0
      vertex 12.975 0 0
    endloop
  endfacet
  facet normal 0 0 1
    outer loop
      vertex 11.3701 6.25075 0
      vertex 13.8195 8.81159 0
      vertex 12.3176 9.29959 0
    endloop
  endfacet
  facet normal 0 0 1
    outer loop
      vertex 15.3956 8.71243 0
      vertex 11.3701 6.25075 0
      vertex 12.5674 3.22675 0
    endloop
  endfacet
  facet normal 0 0 1
    outer loop
      vertex 9.45837 8.882 0
      vertex 12.3176 9.29959 0
      vertex 10.9842 10.1458 0
    endloop
  endfacet
  facet normal 0 0 1
    outer loop
      vertex 9.45837 8.882 0
      vertex 10.9842 10.1458 0
      vertex 9.90319 11.297 0
    endloop
  endfacet
  facet normal 0 0 1
    outer loop
      vertex 12.3176 9.29959 0
      vertex 9.45837 8.882 0
      vertex 11.3701 6.25075 0
    endloop
  endfacet
  facet normal 0 0 1
    outer loop
      vertex 6.95235 10.9552 0
      vertex 9.90319 11.297 0
      vertex 9.14241 12.6808 0
    endloop
  endfacet
  facet normal 0 0 1
    outer loop
      vertex 6.95235 10.9552 0
      vertex 9.14241 12.6808 0
      vertex 8.74968 14.2104 0
    endloop
  endfacet
  facet normal 0 0 1
    outer loop
      vertex 9.90319 11.297 0
      vertex 6.95235 10.9552 0
      vertex 9.45837 8.882 0
    endloop
  endfacet
  facet normal 0 0 1
    outer loop
      vertex 12.5674 3.22675 0
      vertex 21 8.71243 0
      vertex 15.3956 8.71243 0
    endloop
  endfacet
  facet normal 0 0 1
    outer loop
      vertex 21 8.71243 0
      vertex 12.975 0 0
      vertex 21 -8.74968 0
    endloop
  endfacet
  facet normal 0 0 1
    outer loop
      vertex 11.3701 6.25075 0
      vertex 15.3956 8.71243 0
      vertex 13.8195 8.81159 0
    endloop
  endfacet
  facet normal -0 0 1
    outer loop
      vertex 12.5674 -3.22675 0
      vertex 21 -8.74968 0
      vertex 12.975 0 0
    endloop
  endfacet
  facet normal 0 0 1
    outer loop
      vertex 21 -8.74968 0
      vertex 12.5674 -3.22675 0
      vertex 14.2104 -8.74968 0
    endloop
  endfacet
  facet normal -0 0 1
    outer loop
      vertex 11.3701 -6.25075 0
      vertex 14.2104 -8.74968 0
      vertex 12.5674 -3.22675 0
    endloop
  endfacet
  facet normal 0 0 1
    outer loop
      vertex 14.2104 -8.74968 0
      vertex 11.3701 -6.25075 0
      vertex 12.6808 -9.14241 0
    endloop
  endfacet
  facet normal 0 0 1
    outer loop
      vertex 11.3701 -6.25075 0
      vertex 11.297 -9.90319 0
      vertex 12.6808 -9.14241 0
    endloop
  endfacet
  facet normal -0 0 1
    outer loop
      vertex 9.45837 -8.882 0
      vertex 11.297 -9.90319 0
      vertex 11.3701 -6.25075 0
    endloop
  endfacet
  facet normal 0 0 1
    outer loop
      vertex 11.297 -9.90319 0
      vertex 9.45837 -8.882 0
      vertex 10.1458 -10.9842 0
    endloop
  endfacet
  facet normal -0 0 1
    outer loop
      vertex 6.95235 -10.9552 0
      vertex 10.1458 -10.9842 0
      vertex 9.45837 -8.882 0
    endloop
  endfacet
  facet normal 0 0 1
    outer loop
      vertex 10.1458 -10.9842 0
      vertex 6.95235 -10.9552 0
      vertex 9.29959 -12.3176 0
    endloop
  endfacet
  facet normal 0 0 1
    outer loop
      vertex 9.29959 -12.3176 0
      vertex 6.95235 -10.9552 0
      vertex 8.81159 -13.8195 0
    endloop
  endfacet
  facet normal -0 0 1
    outer loop
      vertex 4.00949 -12.34 0
      vertex 8.81159 -13.8195 0
      vertex 6.95235 -10.9552 0
    endloop
  endfacet
  facet normal 0 0 1
    outer loop
      vertex 8.81159 -13.8195 0
      vertex 4.00949 -12.34 0
      vertex 8.71243 -15.3956 0
    endloop
  endfacet
  facet normal 0 0 1
    outer loop
      vertex 1.7 -16 0
      vertex 8.71243 -15.3956 0
      vertex 4.00949 -12.34 0
    endloop
  endfacet
  facet normal 0 0 1
    outer loop
      vertex 1.64659 -16.4228 0
      vertex 8.71243 -15.3956 0
      vertex 1.7 -16 0
    endloop
  endfacet
  facet normal 0 0 1
    outer loop
      vertex 8.71243 -15.3956 0
      vertex 1.64659 -16.4228 0
      vertex 8.71243 -21 0
    endloop
  endfacet
  facet normal -0 0 1
    outer loop
      vertex 1.48972 -16.819 0
      vertex 8.71243 -21 0
      vertex 1.64659 -16.4228 0
    endloop
  endfacet
  facet normal -0 0 1
    outer loop
      vertex 1.23925 -17.1637 0
      vertex 8.71243 -21 0
      vertex 1.48972 -16.819 0
    endloop
  endfacet
  facet normal -0 0 1
    outer loop
      vertex 0.910905 -17.4354 0
      vertex 8.71243 -21 0
      vertex 1.23925 -17.1637 0
    endloop
  endfacet
  facet normal -0 0 1
    outer loop
      vertex 0.525329 -17.6168 0
      vertex 8.71243 -21 0
      vertex 0.910905 -17.4354 0
    endloop
  endfacet
  facet normal -0 0 1
    outer loop
      vertex 0.106744 -17.6966 0
      vertex 8.71243 -21 0
      vertex 0.525329 -17.6168 0
    endloop
  endfacet
  facet normal 0 0 1
    outer loop
      vertex -0.318548 -17.6699 0
      vertex 8.71243 -21 0
      vertex 0.106744 -17.6966 0
    endloop
  endfacet
  facet normal 0 0 1
    outer loop
      vertex -20 -21 0
      vertex -0.318548 -17.6699 0
      vertex -0.723825 -17.5382 0
    endloop
  endfacet
  facet normal 0 0 1
    outer loop
      vertex -1.68659 -15.7869 0
      vertex -5.52449 -11.7401 0
      vertex -1.68659 -16.2131 0
    endloop
  endfacet
  facet normal 0 0 1
    outer loop
      vertex -5.52449 -11.7401 0
      vertex -1.58062 -16.6258 0
      vertex -1.68659 -16.2131 0
    endloop
  endfacet
  facet normal 0 0 1
    outer loop
      vertex -20 -21 0
      vertex -1.58062 -16.6258 0
      vertex -5.52449 -11.7401 0
    endloop
  endfacet
  facet normal 0 0 1
    outer loop
      vertex -20 -21 0
      vertex -5.52449 -11.7401 0
      vertex -8.27058 -9.99741 0
    endloop
  endfacet
  facet normal 0 0 1
    outer loop
      vertex -1.58062 -16.6258 0
      vertex -20 -21 0
      vertex -1.37533 -16.9992 0
    endloop
  endfacet
  facet normal 0 0 1
    outer loop
      vertex -0.318548 -17.6699 0
      vertex -20 -21 0
      vertex 8.71243 -21 0
    endloop
  endfacet
  facet normal 0 0 1
    outer loop
      vertex -1.08362 -17.3099 0
      vertex -20 -21 0
      vertex -0.723825 -17.5382 0
    endloop
  endfacet
  facet normal 0 0 1
    outer loop
      vertex -1.37533 -16.9992 0
      vertex -20 -21 0
      vertex -1.08362 -17.3099 0
    endloop
  endfacet
  facet normal 0 0 1
    outer loop
      vertex -10.497 -7.62651 0
      vertex -20 -21 0
      vertex -8.27058 -9.99741 0
    endloop
  endfacet
  facet normal 0 0 1
    outer loop
      vertex -25 -16 0
      vertex -10.497 -7.62651 0
      vertex -12.0638 -4.77642 0
    endloop
  endfacet
  facet normal 0 0 1
    outer loop
      vertex -25 -16 0
      vertex -12.0638 -4.77642 0
      vertex -12.8727 -1.6262 0
    endloop
  endfacet
  facet normal 0 0 1
    outer loop
      vertex -12.8727 1.6262 0
      vertex -25 8.74968 0
      vertex -12.8727 -1.6262 0
    endloop
  endfacet
  facet normal 0 0 1
    outer loop
      vertex -10.497 -7.62651 0
      vertex -25 -16 0
      vertex -20 -21 0
    endloop
  endfacet
  facet normal 0 0 1
    outer loop
      vertex -20 -21 0
      vertex -25 -16 0
      vertex -21.5451 -20.7553 0
    endloop
  endfacet
  facet normal 0 0 1
    outer loop
      vertex -21.5451 -20.7553 0
      vertex -25 -16 0
      vertex -22.6791 -20.2216 0
    endloop
  endfacet
  facet normal 0 0 1
    outer loop
      vertex -22.6791 -20.2216 0
      vertex -25 -16 0
      vertex -23.6448 -19.4227 0
    endloop
  endfacet
  facet normal 0 0 1
    outer loop
      vertex -23.6448 -19.4227 0
      vertex -25 -16 0
      vertex -24.3815 -18.4088 0
    endloop
  endfacet
  facet normal 0 0 1
    outer loop
      vertex -12.8727 -1.6262 0
      vertex -25 8.74968 0
      vertex -25 -16 0
    endloop
  endfacet
  facet normal 0 0 1
    outer loop
      vertex -24.3815 -18.4088 0
      vertex -25 -16 0
      vertex -24.8429 -17.2435 0
    endloop
  endfacet
  facet normal -0 0 1
    outer loop
      vertex 1.64659 15.5772 0
      vertex 4.00949 12.34 0
      vertex 1.7 16 0
    endloop
  endfacet
  facet normal -0 0 1
    outer loop
      vertex 1.48972 15.181 0
      vertex 4.00949 12.34 0
      vertex 1.64659 15.5772 0
    endloop
  endfacet
  facet normal -0 0 1
    outer loop
      vertex 1.23925 14.8363 0
      vertex 4.00949 12.34 0
      vertex 1.48972 15.181 0
    endloop
  endfacet
  facet normal 0 0 1
    outer loop
      vertex 0.814707 12.9494 0
      vertex 1.23925 14.8363 0
      vertex 0.910905 14.5646 0
    endloop
  endfacet
  facet normal 0 0 1
    outer loop
      vertex 1.23925 14.8363 0
      vertex 0.814707 12.9494 0
      vertex 4.00949 12.34 0
    endloop
  endfacet
  facet normal -0 0 1
    outer loop
      vertex 0.525329 14.3832 0
      vertex 0.814707 12.9494 0
      vertex 0.910905 14.5646 0
    endloop
  endfacet
  facet normal -0 0 1
    outer loop
      vertex 0.106744 14.3034 0
      vertex 0.814707 12.9494 0
      vertex 0.525329 14.3832 0
    endloop
  endfacet
  facet normal 0 0 1
    outer loop
      vertex -0.318548 14.3301 0
      vertex 0.814707 12.9494 0
      vertex 0.106744 14.3034 0
    endloop
  endfacet
  facet normal 0 0 1
    outer loop
      vertex -2.43127 12.7452 0
      vertex -0.318548 14.3301 0
      vertex -0.723825 14.4618 0
    endloop
  endfacet
  facet normal 0 0 1
    outer loop
      vertex -2.43127 12.7452 0
      vertex -0.723825 14.4618 0
      vertex -1.08362 14.6901 0
    endloop
  endfacet
  facet normal 0 0 1
    outer loop
      vertex -0.318548 14.3301 0
      vertex -2.43127 12.7452 0
      vertex 0.814707 12.9494 0
    endloop
  endfacet
  facet normal 0 0 1
    outer loop
      vertex -1.37533 15.0008 0
      vertex -2.43127 12.7452 0
      vertex -1.08362 14.6901 0
    endloop
  endfacet
  facet normal 0 0 1
    outer loop
      vertex -1.58062 15.3742 0
      vertex -2.43127 12.7452 0
      vertex -1.37533 15.0008 0
    endloop
  endfacet
  facet normal 0 0 1
    outer loop
      vertex -2.43127 12.7452 0
      vertex -1.58062 15.3742 0
      vertex -1.68659 15.7869 0
    endloop
  endfacet
  facet normal -1 0 0
    outer loop
      vertex -25 -16 -5
      vertex -25 8.74968 0
      vertex -25 8.74968 -5
    endloop
  endfacet
  facet normal -1 -0 0
    outer loop
      vertex -25 8.74968 0
      vertex -25 -16 -5
      vertex -25 -16 0
    endloop
  endfacet
  facet normal -0.156422 -0.98769 0
    outer loop
      vertex -21.5451 -20.7553 -5
      vertex -20 -21 0
      vertex -21.5451 -20.7553 0
    endloop
  endfacet
  facet normal -0.156422 -0.98769 -0
    outer loop
      vertex -20 -21 0
      vertex -21.5451 -20.7553 -5
      vertex -20 -21 -5
    endloop
  endfacet
  facet normal -0.808995 -0.587816 0
    outer loop
      vertex -23.6448 -19.4227 -5
      vertex -24.3815 -18.4088 0
      vertex -24.3815 -18.4088 -5
    endloop
  endfacet
  facet normal -0.808995 -0.587816 0
    outer loop
      vertex -24.3815 -18.4088 0
      vertex -23.6448 -19.4227 -5
      vertex -23.6448 -19.4227 0
    endloop
  endfacet
  facet normal -0.637426 -0.770512 0
    outer loop
      vertex -23.6448 -19.4227 -5
      vertex -22.6791 -20.2216 0
      vertex -23.6448 -19.4227 0
    endloop
  endfacet
  facet normal -0.637426 -0.770512 -0
    outer loop
      vertex -22.6791 -20.2216 0
      vertex -23.6448 -19.4227 -5
      vertex -22.6791 -20.2216 -5
    endloop
  endfacet
  facet normal -0.425832 -0.904802 0
    outer loop
      vertex -22.6791 -20.2216 -5
      vertex -21.5451 -20.7553 0
      vertex -22.6791 -20.2216 0
    endloop
  endfacet
  facet normal -0.425832 -0.904802 -0
    outer loop
      vertex -21.5451 -20.7553 0
      vertex -22.6791 -20.2216 -5
      vertex -21.5451 -20.7553 -5
    endloop
  endfacet
  facet normal -0.992114 -0.125341 0
    outer loop
      vertex -24.8429 -17.2435 -5
      vertex -25 -16 0
      vertex -25 -16 -5
    endloop
  endfacet
  facet normal -0.992114 -0.125341 0
    outer loop
      vertex -25 -16 0
      vertex -24.8429 -17.2435 -5
      vertex -24.8429 -17.2435 0
    endloop
  endfacet
  facet normal -0.92977 -0.368142 0
    outer loop
      vertex -24.3815 -18.4088 -5
      vertex -24.8429 -17.2435 0
      vertex -24.8429 -17.2435 -5
    endloop
  endfacet
  facet normal -0.92977 -0.368142 0
    outer loop
      vertex -24.8429 -17.2435 0
      vertex -24.3815 -18.4088 -5
      vertex -24.3815 -18.4088 0
    endloop
  endfacet
  facet normal -0.929775 0.368128 0
    outer loop
      vertex 11.3701 -6.25075 -5
      vertex 12.5674 -3.22675 0
      vertex 12.5674 -3.22675 -5
    endloop
  endfacet
  facet normal -0.929775 0.368128 0
    outer loop
      vertex 12.5674 -3.22675 0
      vertex 11.3701 -6.25075 -5
      vertex 11.3701 -6.25075 0
    endloop
  endfacet
  facet normal -0.992116 0.125323 0
    outer loop
      vertex 12.5674 -3.22675 -5
      vertex 12.975 0 0
      vertex 12.975 0 -5
    endloop
  endfacet
  facet normal -0.992116 0.125323 0
    outer loop
      vertex 12.975 0 0
      vertex 12.5674 -3.22675 -5
      vertex 12.5674 -3.22675 0
    endloop
  endfacet
  facet normal -0.18737 0.982289 0
    outer loop
      vertex 4.00949 -12.34 -5
      vertex 0.814707 -12.9494 0
      vertex 4.00949 -12.34 0
    endloop
  endfacet
  facet normal -0.18737 0.982289 0
    outer loop
      vertex 0.814707 -12.9494 0
      vertex 4.00949 -12.34 -5
      vertex 0.814707 -12.9494 -5
    endloop
  endfacet
  facet normal 1 -0 0
    outer loop
      vertex -12.8727 -1.6262 0
      vertex -12.8727 1.6262 -5
      vertex -12.8727 1.6262 0
    endloop
  endfacet
  facet normal 1 0 0
    outer loop
      vertex -12.8727 1.6262 -5
      vertex -12.8727 -1.6262 0
      vertex -12.8727 -1.6262 -5
    endloop
  endfacet
  facet normal 0.0627845 -0.998027 0
    outer loop
      vertex -2.43127 12.7452 -5
      vertex 0.814707 12.9494 0
      vertex -2.43127 12.7452 0
    endloop
  endfacet
  facet normal 0.0627845 -0.998027 0
    outer loop
      vertex 0.814707 12.9494 0
      vertex -2.43127 12.7452 -5
      vertex 0.814707 12.9494 -5
    endloop
  endfacet
  facet normal 0.53582 0.844332 -0
    outer loop
      vertex -5.52449 -11.7401 -5
      vertex -8.27058 -9.99741 0
      vertex -5.52449 -11.7401 0
    endloop
  endfacet
  facet normal 0.53582 0.844332 0
    outer loop
      vertex -8.27058 -9.99741 0
      vertex -5.52449 -11.7401 -5
      vertex -8.27058 -9.99741 -5
    endloop
  endfacet
  facet normal -0.425778 0.904828 0
    outer loop
      vertex 6.95235 -10.9552 -5
      vertex 4.00949 -12.34 0
      vertex 6.95235 -10.9552 0
    endloop
  endfacet
  facet normal -0.425778 0.904828 0
    outer loop
      vertex 4.00949 -12.34 0
      vertex 6.95235 -10.9552 -5
      vertex 4.00949 -12.34 -5
    endloop
  endfacet
  facet normal 0.968579 -0.248707 0
    outer loop
      vertex -12.8727 1.6262 0
      vertex -12.0638 4.77642 -5
      vertex -12.0638 4.77642 0
    endloop
  endfacet
  facet normal 0.968579 -0.248707 0
    outer loop
      vertex -12.0638 4.77642 -5
      vertex -12.8727 1.6262 0
      vertex -12.8727 1.6262 -5
    endloop
  endfacet
  facet normal -0.637431 -0.770507 0
    outer loop
      vertex 6.95235 10.9552 -5
      vertex 9.45837 8.882 0
      vertex 6.95235 10.9552 0
    endloop
  endfacet
  facet normal -0.637431 -0.770507 -0
    outer loop
      vertex 9.45837 8.882 0
      vertex 6.95235 10.9552 -5
      vertex 9.45837 8.882 -5
    endloop
  endfacet
  facet normal 0.728969 -0.684547 0
    outer loop
      vertex -10.497 7.62651 0
      vertex -8.27058 9.99741 -5
      vertex -8.27058 9.99741 0
    endloop
  endfacet
  facet normal 0.728969 -0.684547 0
    outer loop
      vertex -8.27058 9.99741 -5
      vertex -10.497 7.62651 0
      vertex -10.497 7.62651 -5
    endloop
  endfacet
  facet normal 0.876313 -0.481742 0
    outer loop
      vertex -12.0638 4.77642 0
      vertex -10.497 7.62651 -5
      vertex -10.497 7.62651 0
    endloop
  endfacet
  facet normal 0.876313 -0.481742 0
    outer loop
      vertex -10.497 7.62651 -5
      vertex -12.0638 4.77642 0
      vertex -12.0638 4.77642 -5
    endloop
  endfacet
  facet normal 0.0627845 0.998027 -0
    outer loop
      vertex 0.814707 -12.9494 -5
      vertex -2.43127 -12.7452 0
      vertex 0.814707 -12.9494 0
    endloop
  endfacet
  facet normal 0.0627845 0.998027 0
    outer loop
      vertex -2.43127 -12.7452 0
      vertex 0.814707 -12.9494 -5
      vertex -2.43127 -12.7452 -5
    endloop
  endfacet
  facet normal 0.728969 0.684547 0
    outer loop
      vertex -8.27058 -9.99741 0
      vertex -10.497 -7.62651 -5
      vertex -10.497 -7.62651 0
    endloop
  endfacet
  facet normal 0.728969 0.684547 0
    outer loop
      vertex -10.497 -7.62651 -5
      vertex -8.27058 -9.99741 0
      vertex -8.27058 -9.99741 -5
    endloop
  endfacet
  facet normal 0.876313 0.481742 0
    outer loop
      vertex -10.497 -7.62651 0
      vertex -12.0638 -4.77642 -5
      vertex -12.0638 -4.77642 0
    endloop
  endfacet
  facet normal 0.876313 0.481742 0
    outer loop
      vertex -12.0638 -4.77642 -5
      vertex -10.497 -7.62651 0
      vertex -10.497 -7.62651 -5
    endloop
  endfacet
  facet normal 0.968579 0.248707 0
    outer loop
      vertex -12.0638 -4.77642 0
      vertex -12.8727 -1.6262 -5
      vertex -12.8727 -1.6262 0
    endloop
  endfacet
  facet normal 0.968579 0.248707 0
    outer loop
      vertex -12.8727 -1.6262 -5
      vertex -12.0638 -4.77642 0
      vertex -12.0638 -4.77642 -5
    endloop
  endfacet
  facet normal -0.809015 0.587788 0
    outer loop
      vertex 9.45837 -8.882 -5
      vertex 11.3701 -6.25075 0
      vertex 11.3701 -6.25075 -5
    endloop
  endfacet
  facet normal -0.809015 0.587788 0
    outer loop
      vertex 11.3701 -6.25075 0
      vertex 9.45837 -8.882 -5
      vertex 9.45837 -8.882 0
    endloop
  endfacet
  facet normal -0.637431 0.770507 0
    outer loop
      vertex 9.45837 -8.882 -5
      vertex 6.95235 -10.9552 0
      vertex 9.45837 -8.882 0
    endloop
  endfacet
  facet normal -0.637431 0.770507 0
    outer loop
      vertex 6.95235 -10.9552 0
      vertex 9.45837 -8.882 -5
      vertex 6.95235 -10.9552 -5
    endloop
  endfacet
  facet normal -0.18737 -0.982289 0
    outer loop
      vertex 0.814707 12.9494 -5
      vertex 4.00949 12.34 0
      vertex 0.814707 12.9494 0
    endloop
  endfacet
  facet normal -0.18737 -0.982289 -0
    outer loop
      vertex 4.00949 12.34 0
      vertex 0.814707 12.9494 -5
      vertex 4.00949 12.34 -5
    endloop
  endfacet
  facet normal -0.425778 -0.904828 0
    outer loop
      vertex 4.00949 12.34 -5
      vertex 6.95235 10.9552 0
      vertex 4.00949 12.34 0
    endloop
  endfacet
  facet normal -0.425778 -0.904828 -0
    outer loop
      vertex 6.95235 10.9552 0
      vertex 4.00949 12.34 -5
      vertex 6.95235 10.9552 -5
    endloop
  endfacet
  facet normal -0.929775 -0.368128 0
    outer loop
      vertex 12.5674 3.22675 -5
      vertex 11.3701 6.25075 0
      vertex 11.3701 6.25075 -5
    endloop
  endfacet
  facet normal -0.929775 -0.368128 0
    outer loop
      vertex 11.3701 6.25075 0
      vertex 12.5674 3.22675 -5
      vertex 12.5674 3.22675 0
    endloop
  endfacet
  facet normal 0.309031 0.951052 -0
    outer loop
      vertex -2.43127 -12.7452 -5
      vertex -5.52449 -11.7401 0
      vertex -2.43127 -12.7452 0
    endloop
  endfacet
  facet normal 0.309031 0.951052 0
    outer loop
      vertex -5.52449 -11.7401 0
      vertex -2.43127 -12.7452 -5
      vertex -5.52449 -11.7401 -5
    endloop
  endfacet
  facet normal -0.809015 -0.587788 0
    outer loop
      vertex 11.3701 6.25075 -5
      vertex 9.45837 8.882 0
      vertex 9.45837 8.882 -5
    endloop
  endfacet
  facet normal -0.809015 -0.587788 0
    outer loop
      vertex 9.45837 8.882 0
      vertex 11.3701 6.25075 -5
      vertex 11.3701 6.25075 0
    endloop
  endfacet
  facet normal 0.53582 -0.844332 0
    outer loop
      vertex -8.27058 9.99741 -5
      vertex -5.52449 11.7401 0
      vertex -8.27058 9.99741 0
    endloop
  endfacet
  facet normal 0.53582 -0.844332 0
    outer loop
      vertex -5.52449 11.7401 0
      vertex -8.27058 9.99741 -5
      vertex -5.52449 11.7401 -5
    endloop
  endfacet
  facet normal 0.309031 -0.951052 0
    outer loop
      vertex -5.52449 11.7401 -5
      vertex -2.43127 12.7452 0
      vertex -5.52449 11.7401 0
    endloop
  endfacet
  facet normal 0.309031 -0.951052 0
    outer loop
      vertex -2.43127 12.7452 0
      vertex -5.52449 11.7401 -5
      vertex -2.43127 12.7452 -5
    endloop
  endfacet
  facet normal -0.992116 -0.125323 0
    outer loop
      vertex 12.975 0 -5
      vertex 12.5674 3.22675 0
      vertex 12.5674 3.22675 -5
    endloop
  endfacet
  facet normal -0.992116 -0.125323 0
    outer loop
      vertex 12.5674 3.22675 0
      vertex 12.975 0 -5
      vertex 12.975 0 0
    endloop
  endfacet
  facet normal 0.535831 0.844325 -0
    outer loop
      vertex 12.3176 9.29959 -5
      vertex 10.9842 10.1458 0
      vertex 12.3176 9.29959 0
    endloop
  endfacet
  facet normal 0.535831 0.844325 0
    outer loop
      vertex 10.9842 10.1458 0
      vertex 12.3176 9.29959 -5
      vertex 10.9842 10.1458 -5
    endloop
  endfacet
  facet normal 0 1 -0
    outer loop
      vertex 21 8.71243 -5
      vertex 15.3956 8.71243 0
      vertex 21 8.71243 0
    endloop
  endfacet
  facet normal 0 1 0
    outer loop
      vertex 15.3956 8.71243 0
      vertex 21 8.71243 -5
      vertex 15.3956 8.71243 -5
    endloop
  endfacet
  facet normal 0.968584 0.248687 0
    outer loop
      vertex 9.14241 12.6808 0
      vertex 8.74968 14.2104 -5
      vertex 8.74968 14.2104 0
    endloop
  endfacet
  facet normal 0.968584 0.248687 0
    outer loop
      vertex 8.74968 14.2104 -5
      vertex 9.14241 12.6808 0
      vertex 9.14241 12.6808 -5
    endloop
  endfacet
  facet normal 0.0627906 0.998027 -0
    outer loop
      vertex 15.3956 8.71243 -5
      vertex 13.8195 8.81159 0
      vertex 15.3956 8.71243 0
    endloop
  endfacet
  facet normal 0.0627906 0.998027 0
    outer loop
      vertex 13.8195 8.81159 0
      vertex 15.3956 8.71243 -5
      vertex 13.8195 8.81159 -5
    endloop
  endfacet
  facet normal 0.309019 0.951056 -0
    outer loop
      vertex 13.8195 8.81159 -5
      vertex 12.3176 9.29959 0
      vertex 13.8195 8.81159 0
    endloop
  endfacet
  facet normal 0.309019 0.951056 0
    outer loop
      vertex 12.3176 9.29959 0
      vertex 13.8195 8.81159 -5
      vertex 12.3176 9.29959 -5
    endloop
  endfacet
  facet normal 0.876299 0.481768 0
    outer loop
      vertex 9.90319 11.297 0
      vertex 9.14241 12.6808 -5
      vertex 9.14241 12.6808 0
    endloop
  endfacet
  facet normal 0.876299 0.481768 0
    outer loop
      vertex 9.14241 12.6808 -5
      vertex 9.90319 11.297 0
      vertex 9.90319 11.297 -5
    endloop
  endfacet
  facet normal 0.728981 0.684534 0
    outer loop
      vertex 10.9842 10.1458 0
      vertex 9.90319 11.297 -5
      vertex 9.90319 11.297 0
    endloop
  endfacet
  facet normal 0.728981 0.684534 0
    outer loop
      vertex 9.90319 11.297 -5
      vertex 10.9842 10.1458 0
      vertex 10.9842 10.1458 -5
    endloop
  endfacet
  facet normal 1 -0 0
    outer loop
      vertex 8.74968 14.2104 0
      vertex 8.74968 21 -5
      vertex 8.74968 21 0
    endloop
  endfacet
  facet normal 1 0 0
    outer loop
      vertex 8.74968 21 -5
      vertex 8.74968 14.2104 0
      vertex 8.74968 14.2104 -5
    endloop
  endfacet
  facet normal 1 -0 0
    outer loop
      vertex 8.71243 -21 0
      vertex 8.71243 -15.3956 -5
      vertex 8.71243 -15.3956 0
    endloop
  endfacet
  facet normal 1 0 0
    outer loop
      vertex 8.71243 -15.3956 -5
      vertex 8.71243 -21 0
      vertex 8.71243 -21 -5
    endloop
  endfacet
  facet normal 0.998027 -0.0627906 0
    outer loop
      vertex 8.71243 -15.3956 0
      vertex 8.81159 -13.8195 -5
      vertex 8.81159 -13.8195 0
    endloop
  endfacet
  facet normal 0.998027 -0.0627906 0
    outer loop
      vertex 8.81159 -13.8195 -5
      vertex 8.71243 -15.3956 0
      vertex 8.71243 -15.3956 -5
    endloop
  endfacet
  facet normal 0.844325 -0.535831 0
    outer loop
      vertex 9.29959 -12.3176 0
      vertex 10.1458 -10.9842 -5
      vertex 10.1458 -10.9842 0
    endloop
  endfacet
  facet normal 0.844325 -0.535831 0
    outer loop
      vertex 10.1458 -10.9842 -5
      vertex 9.29959 -12.3176 0
      vertex 9.29959 -12.3176 -5
    endloop
  endfacet
  facet normal 0.248687 -0.968584 0
    outer loop
      vertex 12.6808 -9.14241 -5
      vertex 14.2104 -8.74968 0
      vertex 12.6808 -9.14241 0
    endloop
  endfacet
  facet normal 0.248687 -0.968584 0
    outer loop
      vertex 14.2104 -8.74968 0
      vertex 12.6808 -9.14241 -5
      vertex 14.2104 -8.74968 -5
    endloop
  endfacet
  facet normal 0.481768 -0.876299 0
    outer loop
      vertex 11.297 -9.90319 -5
      vertex 12.6808 -9.14241 0
      vertex 11.297 -9.90319 0
    endloop
  endfacet
  facet normal 0.481768 -0.876299 0
    outer loop
      vertex 12.6808 -9.14241 0
      vertex 11.297 -9.90319 -5
      vertex 12.6808 -9.14241 -5
    endloop
  endfacet
  facet normal 0.684534 -0.728981 0
    outer loop
      vertex 10.1458 -10.9842 -5
      vertex 11.297 -9.90319 0
      vertex 10.1458 -10.9842 0
    endloop
  endfacet
  facet normal 0.684534 -0.728981 0
    outer loop
      vertex 11.297 -9.90319 0
      vertex 10.1458 -10.9842 -5
      vertex 11.297 -9.90319 -5
    endloop
  endfacet
  facet normal 0.951056 -0.309019 0
    outer loop
      vertex 8.81159 -13.8195 0
      vertex 9.29959 -12.3176 -5
      vertex 9.29959 -12.3176 0
    endloop
  endfacet
  facet normal 0.951056 -0.309019 0
    outer loop
      vertex 9.29959 -12.3176 -5
      vertex 8.81159 -13.8195 0
      vertex 8.81159 -13.8195 -5
    endloop
  endfacet
  facet normal 0 -1 0
    outer loop
      vertex 14.2104 -8.74968 -5
      vertex 21 -8.74968 0
      vertex 14.2104 -8.74968 0
    endloop
  endfacet
  facet normal 0 -1 -0
    outer loop
      vertex 21 -8.74968 0
      vertex 14.2104 -8.74968 -5
      vertex 21 -8.74968 -5
    endloop
  endfacet
  facet normal -0.844325 0.535831 0
    outer loop
      vertex -10.1458 10.9842 -5
      vertex -9.29959 12.3176 0
      vertex -9.29959 12.3176 -5
    endloop
  endfacet
  facet normal -0.844325 0.535831 0
    outer loop
      vertex -9.29959 12.3176 0
      vertex -10.1458 10.9842 -5
      vertex -10.1458 10.9842 0
    endloop
  endfacet
  facet normal -1 0 0
    outer loop
      vertex -8.71243 15.3956 -5
      vertex -8.71243 21 0
      vertex -8.71243 21 -5
    endloop
  endfacet
  facet normal -1 -0 0
    outer loop
      vertex -8.71243 21 0
      vertex -8.71243 15.3956 -5
      vertex -8.71243 15.3956 0
    endloop
  endfacet
  facet normal -0.248687 0.968584 0
    outer loop
      vertex -12.6808 9.14241 -5
      vertex -14.2104 8.74968 0
      vertex -12.6808 9.14241 0
    endloop
  endfacet
  facet normal -0.248687 0.968584 0
    outer loop
      vertex -14.2104 8.74968 0
      vertex -12.6808 9.14241 -5
      vertex -14.2104 8.74968 -5
    endloop
  endfacet
  facet normal -0.998027 0.0627906 0
    outer loop
      vertex -8.81159 13.8195 -5
      vertex -8.71243 15.3956 0
      vertex -8.71243 15.3956 -5
    endloop
  endfacet
  facet normal -0.998027 0.0627906 0
    outer loop
      vertex -8.71243 15.3956 0
      vertex -8.81159 13.8195 -5
      vertex -8.81159 13.8195 0
    endloop
  endfacet
  facet normal -0.951056 0.309019 0
    outer loop
      vertex -9.29959 12.3176 -5
      vertex -8.81159 13.8195 0
      vertex -8.81159 13.8195 -5
    endloop
  endfacet
  facet normal -0.951056 0.309019 0
    outer loop
      vertex -8.81159 13.8195 0
      vertex -9.29959 12.3176 -5
      vertex -9.29959 12.3176 0
    endloop
  endfacet
  facet normal -0.481768 0.876299 0
    outer loop
      vertex -11.297 9.90319 -5
      vertex -12.6808 9.14241 0
      vertex -11.297 9.90319 0
    endloop
  endfacet
  facet normal -0.481768 0.876299 0
    outer loop
      vertex -12.6808 9.14241 0
      vertex -11.297 9.90319 -5
      vertex -12.6808 9.14241 -5
    endloop
  endfacet
  facet normal 0 1 -0
    outer loop
      vertex -14.2104 8.74968 -5
      vertex -25 8.74968 0
      vertex -14.2104 8.74968 0
    endloop
  endfacet
  facet normal 0 1 0
    outer loop
      vertex -25 8.74968 0
      vertex -14.2104 8.74968 -5
      vertex -25 8.74968 -5
    endloop
  endfacet
  facet normal -0.684534 0.728981 0
    outer loop
      vertex -10.1458 10.9842 -5
      vertex -11.297 9.90319 0
      vertex -10.1458 10.9842 0
    endloop
  endfacet
  facet normal -0.684534 0.728981 0
    outer loop
      vertex -11.297 9.90319 0
      vertex -10.1458 10.9842 -5
      vertex -11.297 9.90319 -5
    endloop
  endfacet
  facet normal -0.808983 0.587833 0
    outer loop
      vertex 1.23925 14.8363 -2.5
      vertex 1.48972 15.181 0
      vertex 1.48972 15.181 -2.5
    endloop
  endfacet
  facet normal -0.808983 0.587833 0
    outer loop
      vertex 1.48972 15.181 0
      vertex 1.23925 14.8363 -2.5
      vertex 1.23925 14.8363 0
    endloop
  endfacet
  facet normal -0.929774 0.368131 0
    outer loop
      vertex 1.48972 15.181 -2.5
      vertex 1.64659 15.5772 0
      vertex 1.64659 15.5772 -2.5
    endloop
  endfacet
  facet normal -0.929774 0.368131 0
    outer loop
      vertex 1.64659 15.5772 0
      vertex 1.48972 15.181 -2.5
      vertex 1.48972 15.181 0
    endloop
  endfacet
  facet normal 0.968579 -0.248705 0
    outer loop
      vertex -1.68659 16.2131 0
      vertex -1.58062 16.6258 -2.5
      vertex -1.58062 16.6258 0
    endloop
  endfacet
  facet normal 0.968579 -0.248705 0
    outer loop
      vertex -1.58062 16.6258 -2.5
      vertex -1.68659 16.2131 0
      vertex -1.68659 16.2131 -2.5
    endloop
  endfacet
  facet normal -0.992115 0.125328 0
    outer loop
      vertex 1.64659 15.5772 -2.5
      vertex 1.7 16 0
      vertex 1.7 16 -2.5
    endloop
  endfacet
  facet normal -0.992115 0.125328 0
    outer loop
      vertex 1.7 16 0
      vertex 1.64659 15.5772 -2.5
      vertex 1.64659 15.5772 0
    endloop
  endfacet
  facet normal -0.425706 0.904862 0
    outer loop
      vertex 0.910905 14.5646 -2.5
      vertex 0.525329 14.3832 0
      vertex 0.910905 14.5646 0
    endloop
  endfacet
  facet normal -0.425706 0.904862 0
    outer loop
      vertex 0.525329 14.3832 0
      vertex 0.910905 14.5646 -2.5
      vertex 0.525329 14.3832 -2.5
    endloop
  endfacet
  facet normal -0.18727 -0.982309 0
    outer loop
      vertex 0.106744 17.6966 -2.5
      vertex 0.525329 17.6168 0
      vertex 0.106744 17.6966 0
    endloop
  endfacet
  facet normal -0.18727 -0.982309 -0
    outer loop
      vertex 0.525329 17.6168 0
      vertex 0.106744 17.6966 -2.5
      vertex 0.525329 17.6168 -2.5
    endloop
  endfacet
  facet normal -0.637521 0.770433 0
    outer loop
      vertex 1.23925 14.8363 -2.5
      vertex 0.910905 14.5646 0
      vertex 1.23925 14.8363 0
    endloop
  endfacet
  facet normal -0.637521 0.770433 0
    outer loop
      vertex 0.910905 14.5646 0
      vertex 1.23925 14.8363 -2.5
      vertex 0.910905 14.5646 -2.5
    endloop
  endfacet
  facet normal -0.18727 0.982309 0
    outer loop
      vertex 0.525329 14.3832 -2.5
      vertex 0.106744 14.3034 0
      vertex 0.525329 14.3832 0
    endloop
  endfacet
  facet normal -0.18727 0.982309 0
    outer loop
      vertex 0.106744 14.3034 0
      vertex 0.525329 14.3832 -2.5
      vertex 0.106744 14.3034 -2.5
    endloop
  endfacet
  facet normal 0.876295 0.481775 0
    outer loop
      vertex -1.37533 15.0008 0
      vertex -1.58062 15.3742 -2.5
      vertex -1.58062 15.3742 0
    endloop
  endfacet
  facet normal 0.876295 0.481775 0
    outer loop
      vertex -1.58062 15.3742 -2.5
      vertex -1.37533 15.0008 0
      vertex -1.37533 15.0008 -2.5
    endloop
  endfacet
  facet normal 0.876295 -0.481775 0
    outer loop
      vertex -1.58062 16.6258 0
      vertex -1.37533 16.9992 -2.5
      vertex -1.37533 16.9992 0
    endloop
  endfacet
  facet normal 0.876295 -0.481775 0
    outer loop
      vertex -1.37533 16.9992 -2.5
      vertex -1.58062 16.6258 0
      vertex -1.58062 16.6258 -2.5
    endloop
  endfacet
  facet normal 0.535772 -0.844363 0
    outer loop
      vertex -1.08362 17.3099 -2.5
      vertex -0.723825 17.5382 0
      vertex -1.08362 17.3099 0
    endloop
  endfacet
  facet normal 0.535772 -0.844363 0
    outer loop
      vertex -0.723825 17.5382 0
      vertex -1.08362 17.3099 -2.5
      vertex -0.723825 17.5382 -2.5
    endloop
  endfacet
  facet normal 0.729035 -0.684476 0
    outer loop
      vertex -1.37533 16.9992 0
      vertex -1.08362 17.3099 -2.5
      vertex -1.08362 17.3099 0
    endloop
  endfacet
  facet normal 0.729035 -0.684476 0
    outer loop
      vertex -1.08362 17.3099 -2.5
      vertex -1.37533 16.9992 0
      vertex -1.37533 16.9992 -2.5
    endloop
  endfacet
  facet normal 0.968579 0.248705 0
    outer loop
      vertex -1.58062 15.3742 0
      vertex -1.68659 15.7869 -2.5
      vertex -1.68659 15.7869 0
    endloop
  endfacet
  facet normal 0.968579 0.248705 0
    outer loop
      vertex -1.68659 15.7869 -2.5
      vertex -1.58062 15.3742 0
      vertex -1.58062 15.3742 -2.5
    endloop
  endfacet
  facet normal 1 -0 0
    outer loop
      vertex -1.68659 15.7869 0
      vertex -1.68659 16.2131 -2.5
      vertex -1.68659 16.2131 0
    endloop
  endfacet
  facet normal 1 0 0
    outer loop
      vertex -1.68659 16.2131 -2.5
      vertex -1.68659 15.7869 0
      vertex -1.68659 15.7869 -2.5
    endloop
  endfacet
  facet normal 0.535772 0.844363 -0
    outer loop
      vertex -0.723825 14.4618 -2.5
      vertex -1.08362 14.6901 0
      vertex -0.723825 14.4618 0
    endloop
  endfacet
  facet normal 0.535772 0.844363 0
    outer loop
      vertex -1.08362 14.6901 0
      vertex -0.723825 14.4618 -2.5
      vertex -1.08362 14.6901 -2.5
    endloop
  endfacet
  facet normal 0.062657 0.998035 -0
    outer loop
      vertex 0.106744 14.3034 -2.5
      vertex -0.318548 14.3301 0
      vertex 0.106744 14.3034 0
    endloop
  endfacet
  facet normal 0.062657 0.998035 0
    outer loop
      vertex -0.318548 14.3301 0
      vertex 0.106744 14.3034 -2.5
      vertex -0.318548 14.3301 -2.5
    endloop
  endfacet
  facet normal 0.309054 0.951044 -0
    outer loop
      vertex -0.318548 14.3301 -2.5
      vertex -0.723825 14.4618 0
      vertex -0.318548 14.3301 0
    endloop
  endfacet
  facet normal 0.309054 0.951044 0
    outer loop
      vertex -0.723825 14.4618 0
      vertex -0.318548 14.3301 -2.5
      vertex -0.723825 14.4618 -2.5
    endloop
  endfacet
  facet normal -0.425706 -0.904862 0
    outer loop
      vertex 0.525329 17.6168 -2.5
      vertex 0.910905 17.4354 0
      vertex 0.525329 17.6168 0
    endloop
  endfacet
  facet normal -0.425706 -0.904862 -0
    outer loop
      vertex 0.910905 17.4354 0
      vertex 0.525329 17.6168 -2.5
      vertex 0.910905 17.4354 -2.5
    endloop
  endfacet
  facet normal -0.808983 -0.587833 0
    outer loop
      vertex 1.48972 16.819 -2.5
      vertex 1.23925 17.1637 0
      vertex 1.23925 17.1637 -2.5
    endloop
  endfacet
  facet normal -0.808983 -0.587833 0
    outer loop
      vertex 1.23925 17.1637 0
      vertex 1.48972 16.819 -2.5
      vertex 1.48972 16.819 0
    endloop
  endfacet
  facet normal -0.929774 -0.368131 0
    outer loop
      vertex 1.64659 16.4228 -2.5
      vertex 1.48972 16.819 0
      vertex 1.48972 16.819 -2.5
    endloop
  endfacet
  facet normal -0.929774 -0.368131 0
    outer loop
      vertex 1.48972 16.819 0
      vertex 1.64659 16.4228 -2.5
      vertex 1.64659 16.4228 0
    endloop
  endfacet
  facet normal -0.637521 -0.770433 0
    outer loop
      vertex 0.910905 17.4354 -2.5
      vertex 1.23925 17.1637 0
      vertex 0.910905 17.4354 0
    endloop
  endfacet
  facet normal -0.637521 -0.770433 -0
    outer loop
      vertex 1.23925 17.1637 0
      vertex 0.910905 17.4354 -2.5
      vertex 1.23925 17.1637 -2.5
    endloop
  endfacet
  facet normal -0.992115 -0.125328 0
    outer loop
      vertex 1.7 16 -2.5
      vertex 1.64659 16.4228 0
      vertex 1.64659 16.4228 -2.5
    endloop
  endfacet
  facet normal -0.992115 -0.125328 0
    outer loop
      vertex 1.64659 16.4228 0
      vertex 1.7 16 -2.5
      vertex 1.7 16 0
    endloop
  endfacet
  facet normal 0.729035 0.684476 0
    outer loop
      vertex -1.08362 14.6901 0
      vertex -1.37533 15.0008 -2.5
      vertex -1.37533 15.0008 0
    endloop
  endfacet
  facet normal 0.729035 0.684476 0
    outer loop
      vertex -1.37533 15.0008 -2.5
      vertex -1.08362 14.6901 0
      vertex -1.08362 14.6901 -2.5
    endloop
  endfacet
  facet normal 0.309054 -0.951044 0
    outer loop
      vertex -0.723825 17.5382 -2.5
      vertex -0.318548 17.6699 0
      vertex -0.723825 17.5382 0
    endloop
  endfacet
  facet normal 0.309054 -0.951044 0
    outer loop
      vertex -0.318548 17.6699 0
      vertex -0.723825 17.5382 -2.5
      vertex -0.318548 17.6699 -2.5
    endloop
  endfacet
  facet normal 0.062657 -0.998035 0
    outer loop
      vertex -0.318548 17.6699 -2.5
      vertex 0.106744 17.6966 0
      vertex -0.318548 17.6699 0
    endloop
  endfacet
  facet normal 0.062657 -0.998035 0
    outer loop
      vertex 0.106744 17.6966 0
      vertex -0.318548 17.6699 -2.5
      vertex 0.106744 17.6966 -2.5
    endloop
  endfacet
  facet normal 0 1 -0
    outer loop
      vertex 1.757 12.9568 -5
      vertex -1.757 12.9568 -2.5
      vertex 1.757 12.9568 -2.5
    endloop
  endfacet
  facet normal 0 1 0
    outer loop
      vertex -1.757 12.9568 -2.5
      vertex 1.757 12.9568 -5
      vertex -1.757 12.9568 -5
    endloop
  endfacet
  facet normal -0.866024 0.500002 0
    outer loop
      vertex 1.757 12.9568 -5
      vertex 3.514 16 -2.5
      vertex 3.514 16 -5
    endloop
  endfacet
  facet normal -0.866024 0.500002 0
    outer loop
      vertex 3.514 16 -2.5
      vertex 1.757 12.9568 -5
      vertex 1.757 12.9568 -2.5
    endloop
  endfacet
  facet normal 0.866024 0.500002 0
    outer loop
      vertex -1.757 12.9568 -2.5
      vertex -3.514 16 -5
      vertex -3.514 16 -2.5
    endloop
  endfacet
  facet normal 0.866024 0.500002 0
    outer loop
      vertex -3.514 16 -5
      vertex -1.757 12.9568 -2.5
      vertex -1.757 12.9568 -5
    endloop
  endfacet
  facet normal 0 0 -1
    outer loop
      vertex 1.48972 15.181 -2.5
      vertex 3.514 16 -2.5
      vertex 1.757 12.9568 -2.5
    endloop
  endfacet
  facet normal 0 0 -1
    outer loop
      vertex 1.64659 16.4228 -2.5
      vertex 3.514 16 -2.5
      vertex 1.7 16 -2.5
    endloop
  endfacet
  facet normal -0 0 -1
    outer loop
      vertex 3.514 16 -2.5
      vertex 1.64659 15.5772 -2.5
      vertex 1.7 16 -2.5
    endloop
  endfacet
  facet normal 0 0 -1
    outer loop
      vertex 3.514 16 -2.5
      vertex 1.48972 15.181 -2.5
      vertex 1.64659 15.5772 -2.5
    endloop
  endfacet
  facet normal 0 0 -1
    outer loop
      vertex 1.757 12.9568 -2.5
      vertex 1.23925 14.8363 -2.5
      vertex 1.48972 15.181 -2.5
    endloop
  endfacet
  facet normal 0 0 -1
    outer loop
      vertex 1.757 12.9568 -2.5
      vertex 0.910905 14.5646 -2.5
      vertex 1.23925 14.8363 -2.5
    endloop
  endfacet
  facet normal 0 0 -1
    outer loop
      vertex 1.757 12.9568 -2.5
      vertex 0.525329 14.3832 -2.5
      vertex 0.910905 14.5646 -2.5
    endloop
  endfacet
  facet normal 0 0 -1
    outer loop
      vertex 1.757 12.9568 -2.5
      vertex 0.106744 14.3034 -2.5
      vertex 0.525329 14.3832 -2.5
    endloop
  endfacet
  facet normal 0 0 -1
    outer loop
      vertex -1.757 12.9568 -2.5
      vertex 0.106744 14.3034 -2.5
      vertex 1.757 12.9568 -2.5
    endloop
  endfacet
  facet normal -0 0 -1
    outer loop
      vertex 0.106744 14.3034 -2.5
      vertex -1.757 12.9568 -2.5
      vertex -0.318548 14.3301 -2.5
    endloop
  endfacet
  facet normal 0 0 -1
    outer loop
      vertex -1.58062 15.3742 -2.5
      vertex -3.514 16 -2.5
      vertex -1.68659 15.7869 -2.5
    endloop
  endfacet
  facet normal 0 0 -1
    outer loop
      vertex -1.37533 15.0008 -2.5
      vertex -3.514 16 -2.5
      vertex -1.58062 15.3742 -2.5
    endloop
  endfacet
  facet normal 0 0 -1
    outer loop
      vertex -3.514 16 -2.5
      vertex -1.37533 15.0008 -2.5
      vertex -1.757 12.9568 -2.5
    endloop
  endfacet
  facet normal -0 0 -1
    outer loop
      vertex -1.08362 14.6901 -2.5
      vertex -1.757 12.9568 -2.5
      vertex -1.37533 15.0008 -2.5
    endloop
  endfacet
  facet normal -0 0 -1
    outer loop
      vertex -0.723825 14.4618 -2.5
      vertex -1.757 12.9568 -2.5
      vertex -1.08362 14.6901 -2.5
    endloop
  endfacet
  facet normal -0 0 -1
    outer loop
      vertex -0.318548 14.3301 -2.5
      vertex -1.757 12.9568 -2.5
      vertex -0.723825 14.4618 -2.5
    endloop
  endfacet
  facet normal 0 0 -1
    outer loop
      vertex 1.48972 16.819 -2.5
      vertex 3.514 16 -2.5
      vertex 1.64659 16.4228 -2.5
    endloop
  endfacet
  facet normal 0 0 -1
    outer loop
      vertex 3.514 16 -2.5
      vertex 1.48972 16.819 -2.5
      vertex 1.757 19.0432 -2.5
    endloop
  endfacet
  facet normal 0 0 -1
    outer loop
      vertex 1.23925 17.1637 -2.5
      vertex 1.757 19.0432 -2.5
      vertex 1.48972 16.819 -2.5
    endloop
  endfacet
  facet normal 0 0 -1
    outer loop
      vertex 0.910905 17.4354 -2.5
      vertex 1.757 19.0432 -2.5
      vertex 1.23925 17.1637 -2.5
    endloop
  endfacet
  facet normal 0 0 -1
    outer loop
      vertex 0.525329 17.6168 -2.5
      vertex 1.757 19.0432 -2.5
      vertex 0.910905 17.4354 -2.5
    endloop
  endfacet
  facet normal 0 0 -1
    outer loop
      vertex 0.106744 17.6966 -2.5
      vertex 1.757 19.0432 -2.5
      vertex 0.525329 17.6168 -2.5
    endloop
  endfacet
  facet normal 0 0 -1
    outer loop
      vertex -1.757 19.0432 -2.5
      vertex 0.106744 17.6966 -2.5
      vertex -0.318548 17.6699 -2.5
    endloop
  endfacet
  facet normal 0 0 -1
    outer loop
      vertex -1.757 19.0432 -2.5
      vertex -0.318548 17.6699 -2.5
      vertex -0.723825 17.5382 -2.5
    endloop
  endfacet
  facet normal 0 0 -1
    outer loop
      vertex 0.106744 17.6966 -2.5
      vertex -1.757 19.0432 -2.5
      vertex 1.757 19.0432 -2.5
    endloop
  endfacet
  facet normal 0 0 -1
    outer loop
      vertex -1.08362 17.3099 -2.5
      vertex -1.757 19.0432 -2.5
      vertex -0.723825 17.5382 -2.5
    endloop
  endfacet
  facet normal 0 0 -1
    outer loop
      vertex -1.37533 16.9992 -2.5
      vertex -1.757 19.0432 -2.5
      vertex -1.08362 17.3099 -2.5
    endloop
  endfacet
  facet normal 0 0 -1
    outer loop
      vertex -3.514 16 -2.5
      vertex -1.37533 16.9992 -2.5
      vertex -1.58062 16.6258 -2.5
    endloop
  endfacet
  facet normal 0 0 -1
    outer loop
      vertex -3.514 16 -2.5
      vertex -1.58062 16.6258 -2.5
      vertex -1.68659 16.2131 -2.5
    endloop
  endfacet
  facet normal 0 0 -1
    outer loop
      vertex -1.68659 15.7869 -2.5
      vertex -3.514 16 -2.5
      vertex -1.68659 16.2131 -2.5
    endloop
  endfacet
  facet normal -0 0 -1
    outer loop
      vertex -1.37533 16.9992 -2.5
      vertex -3.514 16 -2.5
      vertex -1.757 19.0432 -2.5
    endloop
  endfacet
  facet normal 0.866024 -0.500002 0
    outer loop
      vertex -3.514 16 -2.5
      vertex -1.757 19.0432 -5
      vertex -1.757 19.0432 -2.5
    endloop
  endfacet
  facet normal 0.866024 -0.500002 0
    outer loop
      vertex -1.757 19.0432 -5
      vertex -3.514 16 -2.5
      vertex -3.514 16 -5
    endloop
  endfacet
  facet normal 0 -1 0
    outer loop
      vertex -1.757 19.0432 -5
      vertex 1.757 19.0432 -2.5
      vertex -1.757 19.0432 -2.5
    endloop
  endfacet
  facet normal 0 -1 -0
    outer loop
      vertex 1.757 19.0432 -2.5
      vertex -1.757 19.0432 -5
      vertex 1.757 19.0432 -5
    endloop
  endfacet
  facet normal -0.866024 -0.500002 0
    outer loop
      vertex 3.514 16 -5
      vertex 1.757 19.0432 -2.5
      vertex 1.757 19.0432 -5
    endloop
  endfacet
  facet normal -0.866024 -0.500002 0
    outer loop
      vertex 1.757 19.0432 -2.5
      vertex 3.514 16 -5
      vertex 3.514 16 -2.5
    endloop
  endfacet
  facet normal -0.637521 0.770433 0
    outer loop
      vertex 1.23925 -17.1637 -2.5
      vertex 0.910905 -17.4354 0
      vertex 1.23925 -17.1637 0
    endloop
  endfacet
  facet normal -0.637521 0.770433 0
    outer loop
      vertex 0.910905 -17.4354 0
      vertex 1.23925 -17.1637 -2.5
      vertex 0.910905 -17.4354 -2.5
    endloop
  endfacet
  facet normal -0.808983 0.587833 0
    outer loop
      vertex 1.23925 -17.1637 -2.5
      vertex 1.48972 -16.819 0
      vertex 1.48972 -16.819 -2.5
    endloop
  endfacet
  facet normal -0.808983 0.587833 0
    outer loop
      vertex 1.48972 -16.819 0
      vertex 1.23925 -17.1637 -2.5
      vertex 1.23925 -17.1637 0
    endloop
  endfacet
  facet normal -0.929774 0.368131 0
    outer loop
      vertex 1.48972 -16.819 -2.5
      vertex 1.64659 -16.4228 0
      vertex 1.64659 -16.4228 -2.5
    endloop
  endfacet
  facet normal -0.929774 0.368131 0
    outer loop
      vertex 1.64659 -16.4228 0
      vertex 1.48972 -16.819 -2.5
      vertex 1.48972 -16.819 0
    endloop
  endfacet
  facet normal 0.968579 -0.248705 0
    outer loop
      vertex -1.68659 -15.7869 0
      vertex -1.58062 -15.3742 -2.5
      vertex -1.58062 -15.3742 0
    endloop
  endfacet
  facet normal 0.968579 -0.248705 0
    outer loop
      vertex -1.58062 -15.3742 -2.5
      vertex -1.68659 -15.7869 0
      vertex -1.68659 -15.7869 -2.5
    endloop
  endfacet
  facet normal -0.992115 0.125328 0
    outer loop
      vertex 1.64659 -16.4228 -2.5
      vertex 1.7 -16 0
      vertex 1.7 -16 -2.5
    endloop
  endfacet
  facet normal -0.992115 0.125328 0
    outer loop
      vertex 1.7 -16 0
      vertex 1.64659 -16.4228 -2.5
      vertex 1.64659 -16.4228 0
    endloop
  endfacet
  facet normal -0.425706 0.904862 0
    outer loop
      vertex 0.910905 -17.4354 -2.5
      vertex 0.525329 -17.6168 0
      vertex 0.910905 -17.4354 0
    endloop
  endfacet
  facet normal -0.425706 0.904862 0
    outer loop
      vertex 0.525329 -17.6168 0
      vertex 0.910905 -17.4354 -2.5
      vertex 0.525329 -17.6168 -2.5
    endloop
  endfacet
  facet normal -0.18727 -0.982309 0
    outer loop
      vertex 0.106744 -14.3034 -2.5
      vertex 0.525329 -14.3832 0
      vertex 0.106744 -14.3034 0
    endloop
  endfacet
  facet normal -0.18727 -0.982309 -0
    outer loop
      vertex 0.525329 -14.3832 0
      vertex 0.106744 -14.3034 -2.5
      vertex 0.525329 -14.3832 -2.5
    endloop
  endfacet
  facet normal -0.18727 0.982309 0
    outer loop
      vertex 0.525329 -17.6168 -2.5
      vertex 0.106744 -17.6966 0
      vertex 0.525329 -17.6168 0
    endloop
  endfacet
  facet normal -0.18727 0.982309 0
    outer loop
      vertex 0.106744 -17.6966 0
      vertex 0.525329 -17.6168 -2.5
      vertex 0.106744 -17.6966 -2.5
    endloop
  endfacet
  facet normal 0.876295 0.481775 0
    outer loop
      vertex -1.37533 -16.9992 0
      vertex -1.58062 -16.6258 -2.5
      vertex -1.58062 -16.6258 0
    endloop
  endfacet
  facet normal 0.876295 0.481775 0
    outer loop
      vertex -1.58062 -16.6258 -2.5
      vertex -1.37533 -16.9992 0
      vertex -1.37533 -16.9992 -2.5
    endloop
  endfacet
  facet normal 0.309054 0.951044 -0
    outer loop
      vertex -0.318548 -17.6699 -2.5
      vertex -0.723825 -17.5382 0
      vertex -0.318548 -17.6699 0
    endloop
  endfacet
  facet normal 0.309054 0.951044 0
    outer loop
      vertex -0.723825 -17.5382 0
      vertex -0.318548 -17.6699 -2.5
      vertex -0.723825 -17.5382 -2.5
    endloop
  endfacet
  facet normal 0.876295 -0.481775 0
    outer loop
      vertex -1.58062 -15.3742 0
      vertex -1.37533 -15.0008 -2.5
      vertex -1.37533 -15.0008 0
    endloop
  endfacet
  facet normal 0.876295 -0.481775 0
    outer loop
      vertex -1.37533 -15.0008 -2.5
      vertex -1.58062 -15.3742 0
      vertex -1.58062 -15.3742 -2.5
    endloop
  endfacet
  facet normal 0.535772 -0.844363 0
    outer loop
      vertex -1.08362 -14.6901 -2.5
      vertex -0.723825 -14.4618 0
      vertex -1.08362 -14.6901 0
    endloop
  endfacet
  facet normal 0.535772 -0.844363 0
    outer loop
      vertex -0.723825 -14.4618 0
      vertex -1.08362 -14.6901 -2.5
      vertex -0.723825 -14.4618 -2.5
    endloop
  endfacet
  facet normal 0.729035 -0.684476 0
    outer loop
      vertex -1.37533 -15.0008 0
      vertex -1.08362 -14.6901 -2.5
      vertex -1.08362 -14.6901 0
    endloop
  endfacet
  facet normal 0.729035 -0.684476 0
    outer loop
      vertex -1.08362 -14.6901 -2.5
      vertex -1.37533 -15.0008 0
      vertex -1.37533 -15.0008 -2.5
    endloop
  endfacet
  facet normal 0.968579 0.248705 0
    outer loop
      vertex -1.58062 -16.6258 0
      vertex -1.68659 -16.2131 -2.5
      vertex -1.68659 -16.2131 0
    endloop
  endfacet
  facet normal 0.968579 0.248705 0
    outer loop
      vertex -1.68659 -16.2131 -2.5
      vertex -1.58062 -16.6258 0
      vertex -1.58062 -16.6258 -2.5
    endloop
  endfacet
  facet normal 1 -0 0
    outer loop
      vertex -1.68659 -16.2131 0
      vertex -1.68659 -15.7869 -2.5
      vertex -1.68659 -15.7869 0
    endloop
  endfacet
  facet normal 1 0 0
    outer loop
      vertex -1.68659 -15.7869 -2.5
      vertex -1.68659 -16.2131 0
      vertex -1.68659 -16.2131 -2.5
    endloop
  endfacet
  facet normal 0.535772 0.844363 -0
    outer loop
      vertex -0.723825 -17.5382 -2.5
      vertex -1.08362 -17.3099 0
      vertex -0.723825 -17.5382 0
    endloop
  endfacet
  facet normal 0.535772 0.844363 0
    outer loop
      vertex -1.08362 -17.3099 0
      vertex -0.723825 -17.5382 -2.5
      vertex -1.08362 -17.3099 -2.5
    endloop
  endfacet
  facet normal 0.062657 0.998035 -0
    outer loop
      vertex 0.106744 -17.6966 -2.5
      vertex -0.318548 -17.6699 0
      vertex 0.106744 -17.6966 0
    endloop
  endfacet
  facet normal 0.062657 0.998035 0
    outer loop
      vertex -0.318548 -17.6699 0
      vertex 0.106744 -17.6966 -2.5
      vertex -0.318548 -17.6699 -2.5
    endloop
  endfacet
  facet normal -0.425706 -0.904862 0
    outer loop
      vertex 0.525329 -14.3832 -2.5
      vertex 0.910905 -14.5646 0
      vertex 0.525329 -14.3832 0
    endloop
  endfacet
  facet normal -0.425706 -0.904862 -0
    outer loop
      vertex 0.910905 -14.5646 0
      vertex 0.525329 -14.3832 -2.5
      vertex 0.910905 -14.5646 -2.5
    endloop
  endfacet
  facet normal -0.808983 -0.587833 0
    outer loop
      vertex 1.48972 -15.181 -2.5
      vertex 1.23925 -14.8363 0
      vertex 1.23925 -14.8363 -2.5
    endloop
  endfacet
  facet normal -0.808983 -0.587833 0
    outer loop
      vertex 1.23925 -14.8363 0
      vertex 1.48972 -15.181 -2.5
      vertex 1.48972 -15.181 0
    endloop
  endfacet
  facet normal -0.929774 -0.368131 0
    outer loop
      vertex 1.64659 -15.5772 -2.5
      vertex 1.48972 -15.181 0
      vertex 1.48972 -15.181 -2.5
    endloop
  endfacet
  facet normal -0.929774 -0.368131 0
    outer loop
      vertex 1.48972 -15.181 0
      vertex 1.64659 -15.5772 -2.5
      vertex 1.64659 -15.5772 0
    endloop
  endfacet
  facet normal -0.637521 -0.770433 0
    outer loop
      vertex 0.910905 -14.5646 -2.5
      vertex 1.23925 -14.8363 0
      vertex 0.910905 -14.5646 0
    endloop
  endfacet
  facet normal -0.637521 -0.770433 -0
    outer loop
      vertex 1.23925 -14.8363 0
      vertex 0.910905 -14.5646 -2.5
      vertex 1.23925 -14.8363 -2.5
    endloop
  endfacet
  facet normal -0.992115 -0.125328 0
    outer loop
      vertex 1.7 -16 -2.5
      vertex 1.64659 -15.5772 0
      vertex 1.64659 -15.5772 -2.5
    endloop
  endfacet
  facet normal -0.992115 -0.125328 0
    outer loop
      vertex 1.64659 -15.5772 0
      vertex 1.7 -16 -2.5
      vertex 1.7 -16 0
    endloop
  endfacet
  facet normal 0.729035 0.684476 0
    outer loop
      vertex -1.08362 -17.3099 0
      vertex -1.37533 -16.9992 -2.5
      vertex -1.37533 -16.9992 0
    endloop
  endfacet
  facet normal 0.729035 0.684476 0
    outer loop
      vertex -1.37533 -16.9992 -2.5
      vertex -1.08362 -17.3099 0
      vertex -1.08362 -17.3099 -2.5
    endloop
  endfacet
  facet normal 0.309054 -0.951044 0
    outer loop
      vertex -0.723825 -14.4618 -2.5
      vertex -0.318548 -14.3301 0
      vertex -0.723825 -14.4618 0
    endloop
  endfacet
  facet normal 0.309054 -0.951044 0
    outer loop
      vertex -0.318548 -14.3301 0
      vertex -0.723825 -14.4618 -2.5
      vertex -0.318548 -14.3301 -2.5
    endloop
  endfacet
  facet normal 0.062657 -0.998035 0
    outer loop
      vertex -0.318548 -14.3301 -2.5
      vertex 0.106744 -14.3034 0
      vertex -0.318548 -14.3301 0
    endloop
  endfacet
  facet normal 0.062657 -0.998035 0
    outer loop
      vertex 0.106744 -14.3034 0
      vertex -0.318548 -14.3301 -2.5
      vertex 0.106744 -14.3034 -2.5
    endloop
  endfacet
  facet normal -0.866024 0.500002 0
    outer loop
      vertex 1.757 -19.0432 -5
      vertex 3.514 -16 -2.5
      vertex 3.514 -16 -5
    endloop
  endfacet
  facet normal -0.866024 0.500002 0
    outer loop
      vertex 3.514 -16 -2.5
      vertex 1.757 -19.0432 -5
      vertex 1.757 -19.0432 -2.5
    endloop
  endfacet
  facet normal -0.866024 -0.500002 0
    outer loop
      vertex 3.514 -16 -5
      vertex 1.757 -12.9568 -2.5
      vertex 1.757 -12.9568 -5
    endloop
  endfacet
  facet normal -0.866024 -0.500002 0
    outer loop
      vertex 1.757 -12.9568 -2.5
      vertex 3.514 -16 -5
      vertex 3.514 -16 -2.5
    endloop
  endfacet
  facet normal 0.866024 0.500002 0
    outer loop
      vertex -1.757 -19.0432 -2.5
      vertex -3.514 -16 -5
      vertex -3.514 -16 -2.5
    endloop
  endfacet
  facet normal 0.866024 0.500002 0
    outer loop
      vertex -3.514 -16 -5
      vertex -1.757 -19.0432 -2.5
      vertex -1.757 -19.0432 -5
    endloop
  endfacet
  facet normal 0 1 -0
    outer loop
      vertex 1.757 -19.0432 -5
      vertex -1.757 -19.0432 -2.5
      vertex 1.757 -19.0432 -2.5
    endloop
  endfacet
  facet normal 0 1 0
    outer loop
      vertex -1.757 -19.0432 -2.5
      vertex 1.757 -19.0432 -5
      vertex -1.757 -19.0432 -5
    endloop
  endfacet
  facet normal 0 -1 0
    outer loop
      vertex -1.757 -12.9568 -5
      vertex 1.757 -12.9568 -2.5
      vertex -1.757 -12.9568 -2.5
    endloop
  endfacet
  facet normal 0 -1 -0
    outer loop
      vertex 1.757 -12.9568 -2.5
      vertex -1.757 -12.9568 -5
      vertex 1.757 -12.9568 -5
    endloop
  endfacet
  facet normal 0 0 -1
    outer loop
      vertex 1.48972 -16.819 -2.5
      vertex 3.514 -16 -2.5
      vertex 1.757 -19.0432 -2.5
    endloop
  endfacet
  facet normal 0 0 -1
    outer loop
      vertex 1.64659 -15.5772 -2.5
      vertex 3.514 -16 -2.5
      vertex 1.7 -16 -2.5
    endloop
  endfacet
  facet normal -0 0 -1
    outer loop
      vertex 3.514 -16 -2.5
      vertex 1.64659 -16.4228 -2.5
      vertex 1.7 -16 -2.5
    endloop
  endfacet
  facet normal 0 0 -1
    outer loop
      vertex 3.514 -16 -2.5
      vertex 1.48972 -16.819 -2.5
      vertex 1.64659 -16.4228 -2.5
    endloop
  endfacet
  facet normal 0 0 -1
    outer loop
      vertex 1.757 -19.0432 -2.5
      vertex 1.23925 -17.1637 -2.5
      vertex 1.48972 -16.819 -2.5
    endloop
  endfacet
  facet normal 0 0 -1
    outer loop
      vertex 1.757 -19.0432 -2.5
      vertex 0.910905 -17.4354 -2.5
      vertex 1.23925 -17.1637 -2.5
    endloop
  endfacet
  facet normal 0 0 -1
    outer loop
      vertex 1.757 -19.0432 -2.5
      vertex 0.525329 -17.6168 -2.5
      vertex 0.910905 -17.4354 -2.5
    endloop
  endfacet
  facet normal 0 0 -1
    outer loop
      vertex 1.757 -19.0432 -2.5
      vertex 0.106744 -17.6966 -2.5
      vertex 0.525329 -17.6168 -2.5
    endloop
  endfacet
  facet normal 0 0 -1
    outer loop
      vertex -1.757 -19.0432 -2.5
      vertex 0.106744 -17.6966 -2.5
      vertex 1.757 -19.0432 -2.5
    endloop
  endfacet
  facet normal -0 0 -1
    outer loop
      vertex 0.106744 -17.6966 -2.5
      vertex -1.757 -19.0432 -2.5
      vertex -0.318548 -17.6699 -2.5
    endloop
  endfacet
  facet normal 0 0 -1
    outer loop
      vertex -1.58062 -16.6258 -2.5
      vertex -3.514 -16 -2.5
      vertex -1.68659 -16.2131 -2.5
    endloop
  endfacet
  facet normal 0 0 -1
    outer loop
      vertex -1.37533 -16.9992 -2.5
      vertex -3.514 -16 -2.5
      vertex -1.58062 -16.6258 -2.5
    endloop
  endfacet
  facet normal 0 0 -1
    outer loop
      vertex -3.514 -16 -2.5
      vertex -1.37533 -16.9992 -2.5
      vertex -1.757 -19.0432 -2.5
    endloop
  endfacet
  facet normal -0 0 -1
    outer loop
      vertex -1.08362 -17.3099 -2.5
      vertex -1.757 -19.0432 -2.5
      vertex -1.37533 -16.9992 -2.5
    endloop
  endfacet
  facet normal -0 0 -1
    outer loop
      vertex -0.723825 -17.5382 -2.5
      vertex -1.757 -19.0432 -2.5
      vertex -1.08362 -17.3099 -2.5
    endloop
  endfacet
  facet normal -0 0 -1
    outer loop
      vertex -0.318548 -17.6699 -2.5
      vertex -1.757 -19.0432 -2.5
      vertex -0.723825 -17.5382 -2.5
    endloop
  endfacet
  facet normal 0 0 -1
    outer loop
      vertex 1.48972 -15.181 -2.5
      vertex 3.514 -16 -2.5
      vertex 1.64659 -15.5772 -2.5
    endloop
  endfacet
  facet normal 0 0 -1
    outer loop
      vertex 3.514 -16 -2.5
      vertex 1.48972 -15.181 -2.5
      vertex 1.757 -12.9568 -2.5
    endloop
  endfacet
  facet normal 0 0 -1
    outer loop
      vertex 1.23925 -14.8363 -2.5
      vertex 1.757 -12.9568 -2.5
      vertex 1.48972 -15.181 -2.5
    endloop
  endfacet
  facet normal 0 0 -1
    outer loop
      vertex 0.910905 -14.5646 -2.5
      vertex 1.757 -12.9568 -2.5
      vertex 1.23925 -14.8363 -2.5
    endloop
  endfacet
  facet normal 0 0 -1
    outer loop
      vertex 0.525329 -14.3832 -2.5
      vertex 1.757 -12.9568 -2.5
      vertex 0.910905 -14.5646 -2.5
    endloop
  endfacet
  facet normal 0 0 -1
    outer loop
      vertex 0.106744 -14.3034 -2.5
      vertex 1.757 -12.9568 -2.5
      vertex 0.525329 -14.3832 -2.5
    endloop
  endfacet
  facet normal 0 0 -1
    outer loop
      vertex -1.757 -12.9568 -2.5
      vertex 0.106744 -14.3034 -2.5
      vertex -0.318548 -14.3301 -2.5
    endloop
  endfacet
  facet normal 0 0 -1
    outer loop
      vertex -1.757 -12.9568 -2.5
      vertex -0.318548 -14.3301 -2.5
      vertex -0.723825 -14.4618 -2.5
    endloop
  endfacet
  facet normal 0 0 -1
    outer loop
      vertex 0.106744 -14.3034 -2.5
      vertex -1.757 -12.9568 -2.5
      vertex 1.757 -12.9568 -2.5
    endloop
  endfacet
  facet normal 0 0 -1
    outer loop
      vertex -1.08362 -14.6901 -2.5
      vertex -1.757 -12.9568 -2.5
      vertex -0.723825 -14.4618 -2.5
    endloop
  endfacet
  facet normal 0 0 -1
    outer loop
      vertex -1.37533 -15.0008 -2.5
      vertex -1.757 -12.9568 -2.5
      vertex -1.08362 -14.6901 -2.5
    endloop
  endfacet
  facet normal 0 0 -1
    outer loop
      vertex -3.514 -16 -2.5
      vertex -1.37533 -15.0008 -2.5
      vertex -1.58062 -15.3742 -2.5
    endloop
  endfacet
  facet normal 0 0 -1
    outer loop
      vertex -3.514 -16 -2.5
      vertex -1.58062 -15.3742 -2.5
      vertex -1.68659 -15.7869 -2.5
    endloop
  endfacet
  facet normal 0 0 -1
    outer loop
      vertex -1.68659 -16.2131 -2.5
      vertex -3.514 -16 -2.5
      vertex -1.68659 -15.7869 -2.5
    endloop
  endfacet
  facet normal -0 0 -1
    outer loop
      vertex -1.37533 -15.0008 -2.5
      vertex -3.514 -16 -2.5
      vertex -1.757 -12.9568 -2.5
    endloop
  endfacet
  facet normal 0.866024 -0.500002 0
    outer loop
      vertex -3.514 -16 -2.5
      vertex -1.757 -12.9568 -5
      vertex -1.757 -12.9568 -2.5
    endloop
  endfacet
  facet normal 0.866024 -0.500002 0
    outer loop
      vertex -1.757 -12.9568 -5
      vertex -3.514 -16 -2.5
      vertex -3.514 -16 -5
    endloop
  endfacet
endsolid OpenSCAD_Model
