<?xml version="1.0" standalone="no"?>
<!DOCTYPE svg PUBLIC "-//W3C//DTD SVG 1.1//EN" "http://www.w3.org/Graphics/SVG/1.1/DTD/svg11.dtd">
<svg width="46mm" height="42mm" viewBox="-25 -21 46 42" xmlns="http://www.w3.org/2000/svg" version="1.1">
<title>OpenSCAD Model</title>
<path d="
M 9.01183,15.3767 L 9.10626,13.8757 L 9.57103,12.4453 L 10.3769,11.1754 L 11.4733,10.1459 L 12.7912,9.42134
 L 14.248,9.0473 L 21,9.0473 L 21,-9.01183 L 15.3767,-9.01183 L 13.8757,-9.10626 L 12.4453,-9.57103
 L 11.1754,-10.3769 L 10.1459,-11.4733 L 9.42134,-12.7912 L 9.0473,-14.248 L 9.0473,-21 L -9.01183,-21
 L -9.01183,-15.3767 L -9.10626,-13.8757 L -9.57103,-12.4453 L -10.3769,-11.1754 L -11.4733,-10.1459 L -12.7912,-9.42134
 L -14.248,-9.0473 L -25,-9.0473 L -25,16 L -24.8429,17.2435 L -24.3815,18.4088 L -23.6448,19.4227
 L -22.6791,20.2216 L -21.5451,20.7553 L -20,21 L 9.01183,21 z
M -0.281067,-14.5266 L -0.638657,-14.6427 L -0.956131,-14.8442 L -1.21352,-15.1183 L -1.39465,-15.4478 L -1.48816,-15.812
 L -1.48816,-16.188 L -1.39465,-16.5522 L -1.21352,-16.8817 L -0.956131,-17.1558 L -0.638657,-17.3572 L -0.281067,-17.4734
 L 0.0941772,-17.497 L 0.463516,-17.4266 L 0.803726,-17.2665 L 1.09344,-17.0268 L 1.31445,-16.7226 L 1.45287,-16.373
 L 1.5,-16 L 1.45287,-15.627 L 1.31445,-15.2774 L 1.09344,-14.9732 L 0.803726,-14.7335 L 0.463516,-14.5734
 L 0.0941772,-14.5029 z
M -2.43594,12.7697 L -5.53513,11.7627 L -8.2865,10.0167 L -10.5172,7.6412 L -12.0871,4.78561 L -12.8975,1.62932
 L -12.8975,-1.62932 L -12.0871,-4.78561 L -10.5172,-7.6412 L -8.2865,-10.0167 L -5.53513,-11.7627 L -2.43594,-12.7697
 L 0.816269,-12.9743 L 4.01721,-12.3637 L 6.96574,-10.9763 L 9.47658,-8.89911 L 11.392,-6.26279 L 12.5916,-3.23296
 L 13,-0 L 12.5916,3.23296 L 11.392,6.26279 L 9.47658,8.89911 L 6.96574,10.9763 L 4.01721,12.3637
 L 0.816269,12.9743 z
M -0.281067,17.4734 L -0.638657,17.3572 L -0.956131,17.1558 L -1.21352,16.8817 L -1.39465,16.5522 L -1.48816,16.188
 L -1.48816,15.812 L -1.39465,15.4478 L -1.21352,15.1183 L -0.956131,14.8442 L -0.638657,14.6427 L -0.281067,14.5266
 L 0.0941772,14.5029 L 0.463516,14.5734 L 0.803726,14.7335 L 1.09344,14.9732 L 1.31445,15.2774 L 1.45287,15.627
 L 1.5,16 L 1.45287,16.373 L 1.31445,16.7226 L 1.09344,17.0268 L 0.803726,17.2665 L 0.463516,17.4266
 L 0.0941772,17.497 z
" stroke="black" fill="lightgray" stroke-width="0.5"/>
</svg>
