solid OpenSCAD_Model
  facet normal 0 0 1
    outer loop
      vertex 4.01722 -12.3637 0
      vertex 1.45287 -15.627 0
      vertex 1.5 -16 0
    endloop
  endfacet
  facet normal 0 0 1
    outer loop
      vertex 4.01722 -12.3637 0
      vertex 1.31446 -15.2774 0
      vertex 1.45287 -15.627 0
    endloop
  endfacet
  facet normal 0 0 1
    outer loop
      vertex 4.01722 -12.3637 0
      vertex 1.09345 -14.9732 0
      vertex 1.31446 -15.2774 0
    endloop
  endfacet
  facet normal -0 0 1
    outer loop
      vertex 0.816277 -12.9743 0
      vertex 1.09345 -14.9732 0
      vertex 4.01722 -12.3637 0
    endloop
  endfacet
  facet normal 0 0 1
    outer loop
      vertex 0.816277 -12.9743 0
      vertex 0.80374 -14.7335 0
      vertex 1.09345 -14.9732 0
    endloop
  endfacet
  facet normal 0 0 1
    outer loop
      vertex 0.816277 -12.9743 0
      vertex 0.463525 -14.5734 0
      vertex 0.80374 -14.7335 0
    endloop
  endfacet
  facet normal 0 0 1
    outer loop
      vertex 0.816277 -12.9743 0
      vertex 0.0941849 -14.503 0
      vertex 0.463525 -14.5734 0
    endloop
  endfacet
  facet normal 0 0 1
    outer loop
      vertex 0.816277 -12.9743 0
      vertex -0.281072 -14.5266 0
      vertex 0.0941849 -14.503 0
    endloop
  endfacet
  facet normal 0 0 1
    outer loop
      vertex -2.43596 -12.7697 0
      vertex -0.281072 -14.5266 0
      vertex 0.816277 -12.9743 0
    endloop
  endfacet
  facet normal 0 0 1
    outer loop
      vertex -0.281072 -14.5266 0
      vertex -2.43596 -12.7697 0
      vertex -0.638668 -14.6428 0
    endloop
  endfacet
  facet normal 0 0 1
    outer loop
      vertex -5.53513 -11.7628 0
      vertex -1.48817 -15.812 0
      vertex -2.43596 -12.7697 0
    endloop
  endfacet
  facet normal 0 0 1
    outer loop
      vertex -1.39466 -15.4478 0
      vertex -2.43596 -12.7697 0
      vertex -1.48817 -15.812 0
    endloop
  endfacet
  facet normal 0 0 1
    outer loop
      vertex -1.21352 -15.1183 0
      vertex -2.43596 -12.7697 0
      vertex -1.39466 -15.4478 0
    endloop
  endfacet
  facet normal 0 0 1
    outer loop
      vertex -0.956136 -14.8442 0
      vertex -2.43596 -12.7697 0
      vertex -1.21352 -15.1183 0
    endloop
  endfacet
  facet normal 0 0 1
    outer loop
      vertex -0.638668 -14.6428 0
      vertex -2.43596 -12.7697 0
      vertex -0.956136 -14.8442 0
    endloop
  endfacet
  facet normal -0 0 1
    outer loop
      vertex 1.45287 16.373 0
      vertex 9.04731 14.248 0
      vertex 9.04731 21 0
    endloop
  endfacet
  facet normal 0 0 1
    outer loop
      vertex 9.04731 14.248 0
      vertex 4.01722 12.3637 0
      vertex 6.96575 10.9763 0
    endloop
  endfacet
  facet normal 0 0 1
    outer loop
      vertex 9.04731 14.248 0
      vertex 1.5 16 0
      vertex 4.01722 12.3637 0
    endloop
  endfacet
  facet normal 0 0 1
    outer loop
      vertex 9.04731 14.248 0
      vertex 1.45287 16.373 0
      vertex 1.5 16 0
    endloop
  endfacet
  facet normal 0 0 1
    outer loop
      vertex 9.04731 21 0
      vertex 1.31446 16.7226 0
      vertex 1.45287 16.373 0
    endloop
  endfacet
  facet normal 0 0 1
    outer loop
      vertex 9.04731 21 0
      vertex 1.09345 17.0268 0
      vertex 1.31446 16.7226 0
    endloop
  endfacet
  facet normal 0 0 1
    outer loop
      vertex 9.04731 21 0
      vertex 0.80374 17.2665 0
      vertex 1.09345 17.0268 0
    endloop
  endfacet
  facet normal 0 0 1
    outer loop
      vertex 9.04731 21 0
      vertex 0.463525 17.4266 0
      vertex 0.80374 17.2665 0
    endloop
  endfacet
  facet normal 0 0 1
    outer loop
      vertex 9.04731 21 0
      vertex 0.0941849 17.497 0
      vertex 0.463525 17.4266 0
    endloop
  endfacet
  facet normal -0 0 1
    outer loop
      vertex -9.01184 21 0
      vertex 0.0941849 17.497 0
      vertex 9.04731 21 0
    endloop
  endfacet
  facet normal 0 0 1
    outer loop
      vertex 0.0941849 17.497 0
      vertex -9.01184 21 0
      vertex -0.281072 17.4734 0
    endloop
  endfacet
  facet normal 0 0 1
    outer loop
      vertex -9.01184 15.3767 0
      vertex -1.48817 15.812 0
      vertex -1.48817 16.188 0
    endloop
  endfacet
  facet normal 0 0 1
    outer loop
      vertex -9.01184 15.3767 0
      vertex -1.48817 16.188 0
      vertex -1.39466 16.5522 0
    endloop
  endfacet
  facet normal 0 0 1
    outer loop
      vertex -1.48817 15.812 0
      vertex -5.53513 11.7628 0
      vertex -2.43596 12.7697 0
    endloop
  endfacet
  facet normal 0 0 1
    outer loop
      vertex -9.01184 21 0
      vertex -1.39466 16.5522 0
      vertex -1.21352 16.8817 0
    endloop
  endfacet
  facet normal 0 0 1
    outer loop
      vertex -1.48817 15.812 0
      vertex -9.01184 15.3767 0
      vertex -5.53513 11.7628 0
    endloop
  endfacet
  facet normal 0 0 1
    outer loop
      vertex -9.01184 21 0
      vertex -1.21352 16.8817 0
      vertex -0.956136 17.1558 0
    endloop
  endfacet
  facet normal 0 0 1
    outer loop
      vertex -0.281072 17.4734 0
      vertex -9.01184 21 0
      vertex -0.638668 17.3572 0
    endloop
  endfacet
  facet normal 0 0 1
    outer loop
      vertex -9.01184 21 0
      vertex -0.956136 17.1558 0
      vertex -0.638668 17.3572 0
    endloop
  endfacet
  facet normal 0 0 1
    outer loop
      vertex -1.39466 16.5522 0
      vertex -9.01184 21 0
      vertex -9.01184 15.3767 0
    endloop
  endfacet
  facet normal 0 0 1
    outer loop
      vertex -5.53513 11.7628 0
      vertex -9.01184 15.3767 0
      vertex -9.10628 13.8757 0
    endloop
  endfacet
  facet normal -0 0 1
    outer loop
      vertex -9.57104 12.4453 0
      vertex -5.53513 11.7628 0
      vertex -9.10628 13.8757 0
    endloop
  endfacet
  facet normal 0 0 1
    outer loop
      vertex -5.53513 11.7628 0
      vertex -9.57104 12.4453 0
      vertex -8.28651 10.0167 0
    endloop
  endfacet
  facet normal -0 0 1
    outer loop
      vertex -10.3769 11.1755 0
      vertex -8.28651 10.0167 0
      vertex -9.57104 12.4453 0
    endloop
  endfacet
  facet normal -0 0 1
    outer loop
      vertex -11.4733 10.1459 0
      vertex -8.28651 10.0167 0
      vertex -10.3769 11.1755 0
    endloop
  endfacet
  facet normal 0 0 1
    outer loop
      vertex -8.28651 10.0167 0
      vertex -11.4733 10.1459 0
      vertex -10.5172 7.64121 0
    endloop
  endfacet
  facet normal -0 0 1
    outer loop
      vertex -12.7913 9.42134 0
      vertex -10.5172 7.64121 0
      vertex -11.4733 10.1459 0
    endloop
  endfacet
  facet normal 0 0 1
    outer loop
      vertex -10.5172 7.64121 0
      vertex -12.7913 9.42134 0
      vertex -12.0871 4.78562 0
    endloop
  endfacet
  facet normal -0 0 1
    outer loop
      vertex -14.248 9.04731 0
      vertex -12.0871 4.78562 0
      vertex -12.7913 9.42134 0
    endloop
  endfacet
  facet normal -0 0 1
    outer loop
      vertex -25 9.04731 0
      vertex -12.8975 1.62933 0
      vertex -14.248 9.04731 0
    endloop
  endfacet
  facet normal 0 0 1
    outer loop
      vertex -12.0871 4.78562 0
      vertex -14.248 9.04731 0
      vertex -12.8975 1.62933 0
    endloop
  endfacet
  facet normal 0 0 1
    outer loop
      vertex 21 9.01184 0
      vertex 12.5916 3.23297 0
      vertex 13 0 0
    endloop
  endfacet
  facet normal 0 0 1
    outer loop
      vertex 11.392 6.2628 0
      vertex 13.8757 9.10628 0
      vertex 12.4453 9.57104 0
    endloop
  endfacet
  facet normal 0 0 1
    outer loop
      vertex 15.3767 9.01184 0
      vertex 11.392 6.2628 0
      vertex 12.5916 3.23297 0
    endloop
  endfacet
  facet normal 0 0 1
    outer loop
      vertex 9.47659 8.89911 0
      vertex 12.4453 9.57104 0
      vertex 11.1755 10.3769 0
    endloop
  endfacet
  facet normal 0 0 1
    outer loop
      vertex 9.47659 8.89911 0
      vertex 11.1755 10.3769 0
      vertex 10.1459 11.4733 0
    endloop
  endfacet
  facet normal 0 0 1
    outer loop
      vertex 12.4453 9.57104 0
      vertex 9.47659 8.89911 0
      vertex 11.392 6.2628 0
    endloop
  endfacet
  facet normal 0 0 1
    outer loop
      vertex 6.96575 10.9763 0
      vertex 10.1459 11.4733 0
      vertex 9.42134 12.7913 0
    endloop
  endfacet
  facet normal 0 0 1
    outer loop
      vertex 6.96575 10.9763 0
      vertex 9.42134 12.7913 0
      vertex 9.04731 14.248 0
    endloop
  endfacet
  facet normal 0 0 1
    outer loop
      vertex 10.1459 11.4733 0
      vertex 6.96575 10.9763 0
      vertex 9.47659 8.89911 0
    endloop
  endfacet
  facet normal 0 0 1
    outer loop
      vertex 12.5916 3.23297 0
      vertex 21 9.01184 0
      vertex 15.3767 9.01184 0
    endloop
  endfacet
  facet normal 0 0 1
    outer loop
      vertex 21 9.01184 0
      vertex 13 0 0
      vertex 21 -9.04731 0
    endloop
  endfacet
  facet normal 0 0 1
    outer loop
      vertex 11.392 6.2628 0
      vertex 15.3767 9.01184 0
      vertex 13.8757 9.10628 0
    endloop
  endfacet
  facet normal -0 0 1
    outer loop
      vertex 12.5916 -3.23297 0
      vertex 21 -9.04731 0
      vertex 13 0 0
    endloop
  endfacet
  facet normal 0 0 1
    outer loop
      vertex 21 -9.04731 0
      vertex 12.5916 -3.23297 0
      vertex 14.248 -9.04731 0
    endloop
  endfacet
  facet normal -0 0 1
    outer loop
      vertex 11.392 -6.2628 0
      vertex 14.248 -9.04731 0
      vertex 12.5916 -3.23297 0
    endloop
  endfacet
  facet normal 0 0 1
    outer loop
      vertex 14.248 -9.04731 0
      vertex 11.392 -6.2628 0
      vertex 12.7913 -9.42134 0
    endloop
  endfacet
  facet normal -0 0 1
    outer loop
      vertex 9.47659 -8.89911 0
      vertex 12.7913 -9.42134 0
      vertex 11.392 -6.2628 0
    endloop
  endfacet
  facet normal 0 0 1
    outer loop
      vertex 12.7913 -9.42134 0
      vertex 9.47659 -8.89911 0
      vertex 11.4733 -10.1459 0
    endloop
  endfacet
  facet normal 0 0 1
    outer loop
      vertex 11.4733 -10.1459 0
      vertex 9.47659 -8.89911 0
      vertex 10.3769 -11.1755 0
    endloop
  endfacet
  facet normal -0 0 1
    outer loop
      vertex 6.96575 -10.9763 0
      vertex 10.3769 -11.1755 0
      vertex 9.47659 -8.89911 0
    endloop
  endfacet
  facet normal 0 0 1
    outer loop
      vertex 10.3769 -11.1755 0
      vertex 6.96575 -10.9763 0
      vertex 9.57104 -12.4453 0
    endloop
  endfacet
  facet normal 0 0 1
    outer loop
      vertex 9.57104 -12.4453 0
      vertex 6.96575 -10.9763 0
      vertex 9.10628 -13.8757 0
    endloop
  endfacet
  facet normal -0 0 1
    outer loop
      vertex 4.01722 -12.3637 0
      vertex 9.10628 -13.8757 0
      vertex 6.96575 -10.9763 0
    endloop
  endfacet
  facet normal 0 0 1
    outer loop
      vertex 9.10628 -13.8757 0
      vertex 4.01722 -12.3637 0
      vertex 9.01184 -15.3767 0
    endloop
  endfacet
  facet normal 0 0 1
    outer loop
      vertex 1.5 -16 0
      vertex 9.01184 -15.3767 0
      vertex 4.01722 -12.3637 0
    endloop
  endfacet
  facet normal 0 0 1
    outer loop
      vertex 1.45287 -16.373 0
      vertex 9.01184 -15.3767 0
      vertex 1.5 -16 0
    endloop
  endfacet
  facet normal 0 0 1
    outer loop
      vertex 9.01184 -15.3767 0
      vertex 1.45287 -16.373 0
      vertex 9.01184 -21 0
    endloop
  endfacet
  facet normal -0 0 1
    outer loop
      vertex 1.31446 -16.7226 0
      vertex 9.01184 -21 0
      vertex 1.45287 -16.373 0
    endloop
  endfacet
  facet normal -0 0 1
    outer loop
      vertex 1.09345 -17.0268 0
      vertex 9.01184 -21 0
      vertex 1.31446 -16.7226 0
    endloop
  endfacet
  facet normal -0 0 1
    outer loop
      vertex 0.80374 -17.2665 0
      vertex 9.01184 -21 0
      vertex 1.09345 -17.0268 0
    endloop
  endfacet
  facet normal -0 0 1
    outer loop
      vertex 0.463525 -17.4266 0
      vertex 9.01184 -21 0
      vertex 0.80374 -17.2665 0
    endloop
  endfacet
  facet normal -0 0 1
    outer loop
      vertex 0.0941849 -17.497 0
      vertex 9.01184 -21 0
      vertex 0.463525 -17.4266 0
    endloop
  endfacet
  facet normal 0 0 1
    outer loop
      vertex -0.281072 -17.4734 0
      vertex 9.01184 -21 0
      vertex 0.0941849 -17.497 0
    endloop
  endfacet
  facet normal 0 0 1
    outer loop
      vertex -20 -21 0
      vertex -0.281072 -17.4734 0
      vertex -0.638668 -17.3572 0
    endloop
  endfacet
  facet normal 0 0 1
    outer loop
      vertex -1.48817 -15.812 0
      vertex -5.53513 -11.7628 0
      vertex -1.48817 -16.188 0
    endloop
  endfacet
  facet normal 0 0 1
    outer loop
      vertex -1.48817 -16.188 0
      vertex -5.53513 -11.7628 0
      vertex -1.39466 -16.5522 0
    endloop
  endfacet
  facet normal 0 0 1
    outer loop
      vertex -20 -21 0
      vertex -1.39466 -16.5522 0
      vertex -5.53513 -11.7628 0
    endloop
  endfacet
  facet normal 0 0 1
    outer loop
      vertex -20 -21 0
      vertex -5.53513 -11.7628 0
      vertex -8.28651 -10.0167 0
    endloop
  endfacet
  facet normal 0 0 1
    outer loop
      vertex -1.39466 -16.5522 0
      vertex -20 -21 0
      vertex -1.21352 -16.8817 0
    endloop
  endfacet
  facet normal 0 0 1
    outer loop
      vertex -0.281072 -17.4734 0
      vertex -20 -21 0
      vertex 9.01184 -21 0
    endloop
  endfacet
  facet normal 0 0 1
    outer loop
      vertex -0.956136 -17.1558 0
      vertex -20 -21 0
      vertex -0.638668 -17.3572 0
    endloop
  endfacet
  facet normal 0 0 1
    outer loop
      vertex -1.21352 -16.8817 0
      vertex -20 -21 0
      vertex -0.956136 -17.1558 0
    endloop
  endfacet
  facet normal 0 0 1
    outer loop
      vertex -10.5172 -7.64121 0
      vertex -20 -21 0
      vertex -8.28651 -10.0167 0
    endloop
  endfacet
  facet normal 0 0 1
    outer loop
      vertex -25 -16 0
      vertex -10.5172 -7.64121 0
      vertex -12.0871 -4.78562 0
    endloop
  endfacet
  facet normal 0 0 1
    outer loop
      vertex -25 -16 0
      vertex -12.0871 -4.78562 0
      vertex -12.8975 -1.62933 0
    endloop
  endfacet
  facet normal 0 0 1
    outer loop
      vertex -12.8975 1.62933 0
      vertex -25 9.04731 0
      vertex -12.8975 -1.62933 0
    endloop
  endfacet
  facet normal 0 0 1
    outer loop
      vertex -10.5172 -7.64121 0
      vertex -25 -16 0
      vertex -20 -21 0
    endloop
  endfacet
  facet normal 0 0 1
    outer loop
      vertex -20 -21 0
      vertex -25 -16 0
      vertex -21.5451 -20.7553 0
    endloop
  endfacet
  facet normal 0 0 1
    outer loop
      vertex -21.5451 -20.7553 0
      vertex -25 -16 0
      vertex -22.6791 -20.2216 0
    endloop
  endfacet
  facet normal 0 0 1
    outer loop
      vertex -22.6791 -20.2216 0
      vertex -25 -16 0
      vertex -23.6448 -19.4227 0
    endloop
  endfacet
  facet normal 0 0 1
    outer loop
      vertex -23.6448 -19.4227 0
      vertex -25 -16 0
      vertex -24.3815 -18.4088 0
    endloop
  endfacet
  facet normal 0 0 1
    outer loop
      vertex -12.8975 -1.62933 0
      vertex -25 9.04731 0
      vertex -25 -16 0
    endloop
  endfacet
  facet normal 0 0 1
    outer loop
      vertex -24.3815 -18.4088 0
      vertex -25 -16 0
      vertex -24.8429 -17.2435 0
    endloop
  endfacet
  facet normal -0 0 1
    outer loop
      vertex 1.45287 15.627 0
      vertex 4.01722 12.3637 0
      vertex 1.5 16 0
    endloop
  endfacet
  facet normal -0 0 1
    outer loop
      vertex 1.31446 15.2774 0
      vertex 4.01722 12.3637 0
      vertex 1.45287 15.627 0
    endloop
  endfacet
  facet normal -0 0 1
    outer loop
      vertex 1.09345 14.9732 0
      vertex 4.01722 12.3637 0
      vertex 1.31446 15.2774 0
    endloop
  endfacet
  facet normal 0 0 1
    outer loop
      vertex 1.09345 14.9732 0
      vertex 0.816277 12.9743 0
      vertex 4.01722 12.3637 0
    endloop
  endfacet
  facet normal -0 0 1
    outer loop
      vertex 0.80374 14.7335 0
      vertex 0.816277 12.9743 0
      vertex 1.09345 14.9732 0
    endloop
  endfacet
  facet normal -0 0 1
    outer loop
      vertex 0.463525 14.5734 0
      vertex 0.816277 12.9743 0
      vertex 0.80374 14.7335 0
    endloop
  endfacet
  facet normal -0 0 1
    outer loop
      vertex 0.0941849 14.503 0
      vertex 0.816277 12.9743 0
      vertex 0.463525 14.5734 0
    endloop
  endfacet
  facet normal 0 0 1
    outer loop
      vertex -0.281072 14.5266 0
      vertex 0.816277 12.9743 0
      vertex 0.0941849 14.503 0
    endloop
  endfacet
  facet normal 0 0 1
    outer loop
      vertex -2.43596 12.7697 0
      vertex -0.281072 14.5266 0
      vertex -0.638668 14.6428 0
    endloop
  endfacet
  facet normal 0 0 1
    outer loop
      vertex -2.43596 12.7697 0
      vertex -0.638668 14.6428 0
      vertex -0.956136 14.8442 0
    endloop
  endfacet
  facet normal 0 0 1
    outer loop
      vertex -0.281072 14.5266 0
      vertex -2.43596 12.7697 0
      vertex 0.816277 12.9743 0
    endloop
  endfacet
  facet normal 0 0 1
    outer loop
      vertex -1.21352 15.1183 0
      vertex -2.43596 12.7697 0
      vertex -0.956136 14.8442 0
    endloop
  endfacet
  facet normal 0 0 1
    outer loop
      vertex -1.39466 15.4478 0
      vertex -2.43596 12.7697 0
      vertex -1.21352 15.1183 0
    endloop
  endfacet
  facet normal 0 0 1
    outer loop
      vertex -2.43596 12.7697 0
      vertex -1.39466 15.4478 0
      vertex -1.48817 15.812 0
    endloop
  endfacet
  facet normal 0 -1 0
    outer loop
      vertex -20 -21 -5
      vertex 9.01184 -21 0
      vertex -20 -21 0
    endloop
  endfacet
  facet normal 0 -1 -0
    outer loop
      vertex 9.01184 -21 0
      vertex -20 -21 -5
      vertex 9.01184 -21 -5
    endloop
  endfacet
  facet normal 0 1 -0
    outer loop
      vertex 9.04731 21 -5
      vertex -9.01184 21 0
      vertex 9.04731 21 0
    endloop
  endfacet
  facet normal 0 1 0
    outer loop
      vertex -9.01184 21 0
      vertex 9.04731 21 -5
      vertex -9.01184 21 -5
    endloop
  endfacet
  facet normal 1 -0 0
    outer loop
      vertex 21 -9.04731 0
      vertex 21 9.01184 -5
      vertex 21 9.01184 0
    endloop
  endfacet
  facet normal 1 0 0
    outer loop
      vertex 21 9.01184 -5
      vertex 21 -9.04731 0
      vertex 21 -9.04731 -5
    endloop
  endfacet
  facet normal 0 0 -1
    outer loop
      vertex -5.53513 11.7628 -5
      vertex -9.10628 13.8757 -5
      vertex -9.01184 15.3767 -5
    endloop
  endfacet
  facet normal 0 0 -1
    outer loop
      vertex -5.53513 11.7628 -5
      vertex -9.57104 12.4453 -5
      vertex -9.10628 13.8757 -5
    endloop
  endfacet
  facet normal 0 0 -1
    outer loop
      vertex -8.28651 10.0167 -5
      vertex -10.3769 11.1755 -5
      vertex -9.57104 12.4453 -5
    endloop
  endfacet
  facet normal 0 0 -1
    outer loop
      vertex -11.4733 10.1459 -5
      vertex -8.28651 10.0167 -5
      vertex -10.5172 7.64121 -5
    endloop
  endfacet
  facet normal 0 0 -1
    outer loop
      vertex -8.28651 10.0167 -5
      vertex -11.4733 10.1459 -5
      vertex -10.3769 11.1755 -5
    endloop
  endfacet
  facet normal 0 0 -1
    outer loop
      vertex -12.7913 9.42134 -5
      vertex -10.5172 7.64121 -5
      vertex -12.0871 4.78562 -5
    endloop
  endfacet
  facet normal 0 0 -1
    outer loop
      vertex -10.5172 7.64121 -5
      vertex -12.7913 9.42134 -5
      vertex -11.4733 10.1459 -5
    endloop
  endfacet
  facet normal 0 0 -1
    outer loop
      vertex -14.248 9.04731 -5
      vertex -12.0871 4.78562 -5
      vertex -12.8975 1.62933 -5
    endloop
  endfacet
  facet normal 0 0 -1
    outer loop
      vertex -12.0871 4.78562 -5
      vertex -14.248 9.04731 -5
      vertex -12.7913 9.42134 -5
    endloop
  endfacet
  facet normal 0 0 -1
    outer loop
      vertex 4.01722 12.3637 -5
      vertex 1.58775 13.2499 -5
      vertex 3.1755 16 -5
    endloop
  endfacet
  facet normal 0 0 -1
    outer loop
      vertex 0.816277 12.9743 -5
      vertex 1.58775 13.2499 -5
      vertex 4.01722 12.3637 -5
    endloop
  endfacet
  facet normal 0 0 -1
    outer loop
      vertex 0.816277 12.9743 -5
      vertex -1.58775 13.2499 -5
      vertex 1.58775 13.2499 -5
    endloop
  endfacet
  facet normal 0 0 -1
    outer loop
      vertex -2.43596 12.7697 -5
      vertex -1.58775 13.2499 -5
      vertex 0.816277 12.9743 -5
    endloop
  endfacet
  facet normal 0 0 -1
    outer loop
      vertex -2.43596 12.7697 -5
      vertex -3.1755 16 -5
      vertex -1.58775 13.2499 -5
    endloop
  endfacet
  facet normal 0 -0 -1
    outer loop
      vertex -3.1755 16 -5
      vertex -2.43596 12.7697 -5
      vertex -5.53513 11.7628 -5
    endloop
  endfacet
  facet normal 0 0 -1
    outer loop
      vertex 3.1755 -16 -5
      vertex 9.01184 -15.3767 -5
      vertex 9.01184 -21 -5
    endloop
  endfacet
  facet normal 0 -0 -1
    outer loop
      vertex 4.01722 -12.3637 -5
      vertex 9.01184 -15.3767 -5
      vertex 3.1755 -16 -5
    endloop
  endfacet
  facet normal 0 0 -1
    outer loop
      vertex 9.01184 -15.3767 -5
      vertex 4.01722 -12.3637 -5
      vertex 6.96575 -10.9763 -5
    endloop
  endfacet
  facet normal 0 0 -1
    outer loop
      vertex 9.01184 -21 -5
      vertex 1.58775 -18.7501 -5
      vertex 3.1755 -16 -5
    endloop
  endfacet
  facet normal 0 0 -1
    outer loop
      vertex 9.01184 -21 -5
      vertex -1.58775 -18.7501 -5
      vertex 1.58775 -18.7501 -5
    endloop
  endfacet
  facet normal 0 0 -1
    outer loop
      vertex -3.1755 -16 -5
      vertex -8.28651 -10.0167 -5
      vertex -5.53513 -11.7628 -5
    endloop
  endfacet
  facet normal 0 0 -1
    outer loop
      vertex -20 -21 -5
      vertex -3.1755 -16 -5
      vertex -1.58775 -18.7501 -5
    endloop
  endfacet
  facet normal -0 0 -1
    outer loop
      vertex -3.1755 -16 -5
      vertex -20 -21 -5
      vertex -8.28651 -10.0167 -5
    endloop
  endfacet
  facet normal 0 0 -1
    outer loop
      vertex -25 9.04731 -5
      vertex -12.8975 1.62933 -5
      vertex -12.8975 -1.62933 -5
    endloop
  endfacet
  facet normal 0 0 -1
    outer loop
      vertex -20 -21 -5
      vertex -1.58775 -18.7501 -5
      vertex 9.01184 -21 -5
    endloop
  endfacet
  facet normal -0 0 -1
    outer loop
      vertex -8.28651 -10.0167 -5
      vertex -20 -21 -5
      vertex -10.5172 -7.64121 -5
    endloop
  endfacet
  facet normal 0 0 -1
    outer loop
      vertex -25 -16 -5
      vertex -10.5172 -7.64121 -5
      vertex -20 -21 -5
    endloop
  endfacet
  facet normal -0 0 -1
    outer loop
      vertex -10.5172 -7.64121 -5
      vertex -25 -16 -5
      vertex -12.0871 -4.78562 -5
    endloop
  endfacet
  facet normal -0 0 -1
    outer loop
      vertex -12.0871 -4.78562 -5
      vertex -25 -16 -5
      vertex -12.8975 -1.62933 -5
    endloop
  endfacet
  facet normal 0 0 -1
    outer loop
      vertex -25 -16 -5
      vertex -20 -21 -5
      vertex -21.5451 -20.7553 -5
    endloop
  endfacet
  facet normal 0 0 -1
    outer loop
      vertex -25 -16 -5
      vertex -21.5451 -20.7553 -5
      vertex -22.6791 -20.2216 -5
    endloop
  endfacet
  facet normal 0 0 -1
    outer loop
      vertex -25 -16 -5
      vertex -22.6791 -20.2216 -5
      vertex -23.6448 -19.4227 -5
    endloop
  endfacet
  facet normal 0 0 -1
    outer loop
      vertex -25 -16 -5
      vertex -23.6448 -19.4227 -5
      vertex -24.3815 -18.4088 -5
    endloop
  endfacet
  facet normal 0 0 -1
    outer loop
      vertex -25 -16 -5
      vertex -24.3815 -18.4088 -5
      vertex -24.8429 -17.2435 -5
    endloop
  endfacet
  facet normal 0 0 -1
    outer loop
      vertex -25 9.04731 -5
      vertex -12.8975 -1.62933 -5
      vertex -25 -16 -5
    endloop
  endfacet
  facet normal 0 0 -1
    outer loop
      vertex -12.8975 1.62933 -5
      vertex -25 9.04731 -5
      vertex -14.248 9.04731 -5
    endloop
  endfacet
  facet normal 0 0 -1
    outer loop
      vertex 13 0 -5
      vertex 21 9.01184 -5
      vertex 21 -9.04731 -5
    endloop
  endfacet
  facet normal 0 0 -1
    outer loop
      vertex 12.5916 -3.23297 -5
      vertex 21 -9.04731 -5
      vertex 14.248 -9.04731 -5
    endloop
  endfacet
  facet normal 0 0 -1
    outer loop
      vertex 12.5916 3.23297 -5
      vertex 21 9.01184 -5
      vertex 13 0 -5
    endloop
  endfacet
  facet normal -0 0 -1
    outer loop
      vertex 21 9.01184 -5
      vertex 12.5916 3.23297 -5
      vertex 15.3767 9.01184 -5
    endloop
  endfacet
  facet normal 0 0 -1
    outer loop
      vertex 11.392 -6.2628 -5
      vertex 14.248 -9.04731 -5
      vertex 12.7913 -9.42134 -5
    endloop
  endfacet
  facet normal 0 0 -1
    outer loop
      vertex 21 -9.04731 -5
      vertex 12.5916 -3.23297 -5
      vertex 13 0 -5
    endloop
  endfacet
  facet normal 0 0 -1
    outer loop
      vertex 9.47659 -8.89911 -5
      vertex 12.7913 -9.42134 -5
      vertex 11.4733 -10.1459 -5
    endloop
  endfacet
  facet normal 0 0 -1
    outer loop
      vertex 14.248 -9.04731 -5
      vertex 11.392 -6.2628 -5
      vertex 12.5916 -3.23297 -5
    endloop
  endfacet
  facet normal 0 0 -1
    outer loop
      vertex 9.47659 -8.89911 -5
      vertex 11.4733 -10.1459 -5
      vertex 10.3769 -11.1755 -5
    endloop
  endfacet
  facet normal 0 0 -1
    outer loop
      vertex 6.96575 -10.9763 -5
      vertex 10.3769 -11.1755 -5
      vertex 9.57104 -12.4453 -5
    endloop
  endfacet
  facet normal 0 0 -1
    outer loop
      vertex 12.7913 -9.42134 -5
      vertex 9.47659 -8.89911 -5
      vertex 11.392 -6.2628 -5
    endloop
  endfacet
  facet normal 0 0 -1
    outer loop
      vertex 6.96575 -10.9763 -5
      vertex 9.57104 -12.4453 -5
      vertex 9.10628 -13.8757 -5
    endloop
  endfacet
  facet normal 0 0 -1
    outer loop
      vertex 10.3769 -11.1755 -5
      vertex 6.96575 -10.9763 -5
      vertex 9.47659 -8.89911 -5
    endloop
  endfacet
  facet normal 0 0 -1
    outer loop
      vertex 6.96575 -10.9763 -5
      vertex 9.10628 -13.8757 -5
      vertex 9.01184 -15.3767 -5
    endloop
  endfacet
  facet normal 0 0 -1
    outer loop
      vertex 11.392 6.2628 -5
      vertex 15.3767 9.01184 -5
      vertex 12.5916 3.23297 -5
    endloop
  endfacet
  facet normal -0 0 -1
    outer loop
      vertex 15.3767 9.01184 -5
      vertex 11.392 6.2628 -5
      vertex 13.8757 9.10628 -5
    endloop
  endfacet
  facet normal -0 0 -1
    outer loop
      vertex 13.8757 9.10628 -5
      vertex 11.392 6.2628 -5
      vertex 12.4453 9.57104 -5
    endloop
  endfacet
  facet normal 0 0 -1
    outer loop
      vertex 9.47659 8.89911 -5
      vertex 12.4453 9.57104 -5
      vertex 11.392 6.2628 -5
    endloop
  endfacet
  facet normal -0 0 -1
    outer loop
      vertex 12.4453 9.57104 -5
      vertex 9.47659 8.89911 -5
      vertex 11.1755 10.3769 -5
    endloop
  endfacet
  facet normal -0 0 -1
    outer loop
      vertex 11.1755 10.3769 -5
      vertex 9.47659 8.89911 -5
      vertex 10.1459 11.4733 -5
    endloop
  endfacet
  facet normal 0 0 -1
    outer loop
      vertex 6.96575 10.9763 -5
      vertex 10.1459 11.4733 -5
      vertex 9.47659 8.89911 -5
    endloop
  endfacet
  facet normal -0 0 -1
    outer loop
      vertex 10.1459 11.4733 -5
      vertex 6.96575 10.9763 -5
      vertex 9.42134 12.7913 -5
    endloop
  endfacet
  facet normal -0 0 -1
    outer loop
      vertex 9.42134 12.7913 -5
      vertex 6.96575 10.9763 -5
      vertex 9.04731 14.248 -5
    endloop
  endfacet
  facet normal 0 0 -1
    outer loop
      vertex 4.01722 12.3637 -5
      vertex 9.04731 14.248 -5
      vertex 6.96575 10.9763 -5
    endloop
  endfacet
  facet normal -0 0 -1
    outer loop
      vertex 9.04731 14.248 -5
      vertex 4.01722 12.3637 -5
      vertex 3.1755 16 -5
    endloop
  endfacet
  facet normal 0 0 -1
    outer loop
      vertex 9.04731 14.248 -5
      vertex 3.1755 16 -5
      vertex 9.04731 21 -5
    endloop
  endfacet
  facet normal 0 0 -1
    outer loop
      vertex 1.58775 18.7501 -5
      vertex 9.04731 21 -5
      vertex 3.1755 16 -5
    endloop
  endfacet
  facet normal 0 0 -1
    outer loop
      vertex -1.58775 18.7501 -5
      vertex 9.04731 21 -5
      vertex 1.58775 18.7501 -5
    endloop
  endfacet
  facet normal 0 0 -1
    outer loop
      vertex -9.57104 12.4453 -5
      vertex -5.53513 11.7628 -5
      vertex -8.28651 10.0167 -5
    endloop
  endfacet
  facet normal 0 0 -1
    outer loop
      vertex -5.53513 11.7628 -5
      vertex -9.01184 15.3767 -5
      vertex -3.1755 16 -5
    endloop
  endfacet
  facet normal 0 0 -1
    outer loop
      vertex -9.01184 21 -5
      vertex -3.1755 16 -5
      vertex -9.01184 15.3767 -5
    endloop
  endfacet
  facet normal 0 0 -1
    outer loop
      vertex -1.58775 18.7501 -5
      vertex -9.01184 21 -5
      vertex 9.04731 21 -5
    endloop
  endfacet
  facet normal 0 0 -1
    outer loop
      vertex -3.1755 16 -5
      vertex -9.01184 21 -5
      vertex -1.58775 18.7501 -5
    endloop
  endfacet
  facet normal 0 0 -1
    outer loop
      vertex 1.58775 -13.2499 -5
      vertex 4.01722 -12.3637 -5
      vertex 3.1755 -16 -5
    endloop
  endfacet
  facet normal 0 0 -1
    outer loop
      vertex 1.58775 -13.2499 -5
      vertex 0.816277 -12.9743 -5
      vertex 4.01722 -12.3637 -5
    endloop
  endfacet
  facet normal 0 0 -1
    outer loop
      vertex -1.58775 -13.2499 -5
      vertex 0.816277 -12.9743 -5
      vertex 1.58775 -13.2499 -5
    endloop
  endfacet
  facet normal 0 0 -1
    outer loop
      vertex -1.58775 -13.2499 -5
      vertex -2.43596 -12.7697 -5
      vertex 0.816277 -12.9743 -5
    endloop
  endfacet
  facet normal 0 0 -1
    outer loop
      vertex -3.1755 -16 -5
      vertex -2.43596 -12.7697 -5
      vertex -1.58775 -13.2499 -5
    endloop
  endfacet
  facet normal -0 0 -1
    outer loop
      vertex -2.43596 -12.7697 -5
      vertex -3.1755 -16 -5
      vertex -5.53513 -11.7628 -5
    endloop
  endfacet
  facet normal -1 0 0
    outer loop
      vertex -25 -16 -5
      vertex -25 9.04731 0
      vertex -25 9.04731 -5
    endloop
  endfacet
  facet normal -1 -0 0
    outer loop
      vertex -25 9.04731 0
      vertex -25 -16 -5
      vertex -25 -16 0
    endloop
  endfacet
  facet normal -0.637426 -0.770512 0
    outer loop
      vertex -23.6448 -19.4227 -5
      vertex -22.6791 -20.2216 0
      vertex -23.6448 -19.4227 0
    endloop
  endfacet
  facet normal -0.637426 -0.770512 -0
    outer loop
      vertex -22.6791 -20.2216 0
      vertex -23.6448 -19.4227 -5
      vertex -22.6791 -20.2216 -5
    endloop
  endfacet
  facet normal -0.156422 -0.98769 0
    outer loop
      vertex -21.5451 -20.7553 -5
      vertex -20 -21 0
      vertex -21.5451 -20.7553 0
    endloop
  endfacet
  facet normal -0.156422 -0.98769 -0
    outer loop
      vertex -20 -21 0
      vertex -21.5451 -20.7553 -5
      vertex -20 -21 -5
    endloop
  endfacet
  facet normal -0.992114 -0.125341 0
    outer loop
      vertex -24.8429 -17.2435 -5
      vertex -25 -16 0
      vertex -25 -16 -5
    endloop
  endfacet
  facet normal -0.992114 -0.125341 0
    outer loop
      vertex -25 -16 0
      vertex -24.8429 -17.2435 -5
      vertex -24.8429 -17.2435 0
    endloop
  endfacet
  facet normal -0.808995 -0.587816 0
    outer loop
      vertex -23.6448 -19.4227 -5
      vertex -24.3815 -18.4088 0
      vertex -24.3815 -18.4088 -5
    endloop
  endfacet
  facet normal -0.808995 -0.587816 0
    outer loop
      vertex -24.3815 -18.4088 0
      vertex -23.6448 -19.4227 -5
      vertex -23.6448 -19.4227 0
    endloop
  endfacet
  facet normal -0.425832 -0.904802 0
    outer loop
      vertex -22.6791 -20.2216 -5
      vertex -21.5451 -20.7553 0
      vertex -22.6791 -20.2216 0
    endloop
  endfacet
  facet normal -0.425832 -0.904802 -0
    outer loop
      vertex -21.5451 -20.7553 0
      vertex -22.6791 -20.2216 -5
      vertex -21.5451 -20.7553 -5
    endloop
  endfacet
  facet normal -0.92977 -0.368142 0
    outer loop
      vertex -24.3815 -18.4088 -5
      vertex -24.8429 -17.2435 0
      vertex -24.8429 -17.2435 -5
    endloop
  endfacet
  facet normal -0.92977 -0.368142 0
    outer loop
      vertex -24.8429 -17.2435 0
      vertex -24.3815 -18.4088 -5
      vertex -24.3815 -18.4088 0
    endloop
  endfacet
  facet normal -0.929776 0.368126 0
    outer loop
      vertex 11.392 -6.2628 -5
      vertex 12.5916 -3.23297 0
      vertex 12.5916 -3.23297 -5
    endloop
  endfacet
  facet normal -0.929776 0.368126 0
    outer loop
      vertex 12.5916 -3.23297 0
      vertex 11.392 -6.2628 -5
      vertex 11.392 -6.2628 0
    endloop
  endfacet
  facet normal -0.992115 0.125327 0
    outer loop
      vertex 12.5916 -3.23297 -5
      vertex 13 0 0
      vertex 13 0 -5
    endloop
  endfacet
  facet normal -0.992115 0.125327 0
    outer loop
      vertex 13 0 0
      vertex 12.5916 -3.23297 -5
      vertex 12.5916 -3.23297 0
    endloop
  endfacet
  facet normal -0.992115 -0.125327 0
    outer loop
      vertex 13 0 -5
      vertex 12.5916 3.23297 0
      vertex 12.5916 3.23297 -5
    endloop
  endfacet
  facet normal -0.992115 -0.125327 0
    outer loop
      vertex 12.5916 3.23297 0
      vertex 13 0 -5
      vertex 13 0 0
    endloop
  endfacet
  facet normal 1 -0 0
    outer loop
      vertex -12.8975 -1.62933 0
      vertex -12.8975 1.62933 -5
      vertex -12.8975 1.62933 0
    endloop
  endfacet
  facet normal 1 0 0
    outer loop
      vertex -12.8975 1.62933 -5
      vertex -12.8975 -1.62933 0
      vertex -12.8975 -1.62933 -5
    endloop
  endfacet
  facet normal -0.187378 0.982288 0
    outer loop
      vertex 4.01722 -12.3637 -5
      vertex 0.816277 -12.9743 0
      vertex 4.01722 -12.3637 0
    endloop
  endfacet
  facet normal -0.187378 0.982288 0
    outer loop
      vertex 0.816277 -12.9743 0
      vertex 4.01722 -12.3637 -5
      vertex 0.816277 -12.9743 -5
    endloop
  endfacet
  facet normal -0.809014 0.587789 0
    outer loop
      vertex 9.47659 -8.89911 -5
      vertex 11.392 -6.2628 0
      vertex 11.392 -6.2628 -5
    endloop
  endfacet
  facet normal -0.809014 0.587789 0
    outer loop
      vertex 11.392 -6.2628 0
      vertex 9.47659 -8.89911 -5
      vertex 9.47659 -8.89911 0
    endloop
  endfacet
  facet normal 0.0627864 -0.998027 0
    outer loop
      vertex -2.43596 12.7697 -5
      vertex 0.816277 12.9743 0
      vertex -2.43596 12.7697 0
    endloop
  endfacet
  facet normal 0.0627864 -0.998027 0
    outer loop
      vertex 0.816277 12.9743 0
      vertex -2.43596 12.7697 -5
      vertex 0.816277 12.9743 -5
    endloop
  endfacet
  facet normal 0.728975 0.68454 0
    outer loop
      vertex -8.28651 -10.0167 0
      vertex -10.5172 -7.64121 -5
      vertex -10.5172 -7.64121 0
    endloop
  endfacet
  facet normal 0.728975 0.68454 0
    outer loop
      vertex -10.5172 -7.64121 -5
      vertex -8.28651 -10.0167 0
      vertex -8.28651 -10.0167 -5
    endloop
  endfacet
  facet normal 0.0627864 0.998027 -0
    outer loop
      vertex 0.816277 -12.9743 -5
      vertex -2.43596 -12.7697 0
      vertex 0.816277 -12.9743 0
    endloop
  endfacet
  facet normal 0.0627864 0.998027 0
    outer loop
      vertex -2.43596 -12.7697 0
      vertex 0.816277 -12.9743 -5
      vertex -2.43596 -12.7697 -5
    endloop
  endfacet
  facet normal 0.535831 0.844325 -0
    outer loop
      vertex -5.53513 -11.7628 -5
      vertex -8.28651 -10.0167 0
      vertex -5.53513 -11.7628 0
    endloop
  endfacet
  facet normal 0.535831 0.844325 0
    outer loop
      vertex -8.28651 -10.0167 0
      vertex -5.53513 -11.7628 -5
      vertex -8.28651 -10.0167 -5
    endloop
  endfacet
  facet normal 0.308994 0.951064 -0
    outer loop
      vertex -2.43596 -12.7697 -5
      vertex -5.53513 -11.7628 0
      vertex -2.43596 -12.7697 0
    endloop
  endfacet
  facet normal 0.308994 0.951064 0
    outer loop
      vertex -5.53513 -11.7628 0
      vertex -2.43596 -12.7697 -5
      vertex -5.53513 -11.7628 -5
    endloop
  endfacet
  facet normal -0.425761 0.904836 0
    outer loop
      vertex 6.96575 -10.9763 -5
      vertex 4.01722 -12.3637 0
      vertex 6.96575 -10.9763 0
    endloop
  endfacet
  facet normal -0.425761 0.904836 0
    outer loop
      vertex 4.01722 -12.3637 0
      vertex 6.96575 -10.9763 -5
      vertex 4.01722 -12.3637 -5
    endloop
  endfacet
  facet normal 0.968583 -0.248691 0
    outer loop
      vertex -12.8975 1.62933 0
      vertex -12.0871 4.78562 -5
      vertex -12.0871 4.78562 0
    endloop
  endfacet
  facet normal 0.968583 -0.248691 0
    outer loop
      vertex -12.0871 4.78562 -5
      vertex -12.8975 1.62933 0
      vertex -12.8975 1.62933 -5
    endloop
  endfacet
  facet normal 0.876303 -0.48176 0
    outer loop
      vertex -12.0871 4.78562 0
      vertex -10.5172 7.64121 -5
      vertex -10.5172 7.64121 0
    endloop
  endfacet
  facet normal 0.876303 -0.48176 0
    outer loop
      vertex -10.5172 7.64121 -5
      vertex -12.0871 4.78562 0
      vertex -12.0871 4.78562 -5
    endloop
  endfacet
  facet normal -0.809014 -0.587789 0
    outer loop
      vertex 11.392 6.2628 -5
      vertex 9.47659 8.89911 0
      vertex 9.47659 8.89911 -5
    endloop
  endfacet
  facet normal -0.809014 -0.587789 0
    outer loop
      vertex 9.47659 8.89911 0
      vertex 11.392 6.2628 -5
      vertex 11.392 6.2628 0
    endloop
  endfacet
  facet normal 0.308994 -0.951064 0
    outer loop
      vertex -5.53513 11.7628 -5
      vertex -2.43596 12.7697 0
      vertex -5.53513 11.7628 0
    endloop
  endfacet
  facet normal 0.308994 -0.951064 0
    outer loop
      vertex -2.43596 12.7697 0
      vertex -5.53513 11.7628 -5
      vertex -2.43596 12.7697 -5
    endloop
  endfacet
  facet normal 0.876303 0.48176 0
    outer loop
      vertex -10.5172 -7.64121 0
      vertex -12.0871 -4.78562 -5
      vertex -12.0871 -4.78562 0
    endloop
  endfacet
  facet normal 0.876303 0.48176 0
    outer loop
      vertex -12.0871 -4.78562 -5
      vertex -10.5172 -7.64121 0
      vertex -10.5172 -7.64121 -5
    endloop
  endfacet
  facet normal 0.968583 0.248691 0
    outer loop
      vertex -12.0871 -4.78562 0
      vertex -12.8975 -1.62933 -5
      vertex -12.8975 -1.62933 0
    endloop
  endfacet
  facet normal 0.968583 0.248691 0
    outer loop
      vertex -12.8975 -1.62933 -5
      vertex -12.0871 -4.78562 0
      vertex -12.0871 -4.78562 -5
    endloop
  endfacet
  facet normal -0.637432 0.770507 0
    outer loop
      vertex 9.47659 -8.89911 -5
      vertex 6.96575 -10.9763 0
      vertex 9.47659 -8.89911 0
    endloop
  endfacet
  facet normal -0.637432 0.770507 0
    outer loop
      vertex 6.96575 -10.9763 0
      vertex 9.47659 -8.89911 -5
      vertex 6.96575 -10.9763 -5
    endloop
  endfacet
  facet normal 0.728975 -0.68454 0
    outer loop
      vertex -10.5172 7.64121 0
      vertex -8.28651 10.0167 -5
      vertex -8.28651 10.0167 0
    endloop
  endfacet
  facet normal 0.728975 -0.68454 0
    outer loop
      vertex -8.28651 10.0167 -5
      vertex -10.5172 7.64121 0
      vertex -10.5172 7.64121 -5
    endloop
  endfacet
  facet normal -0.187378 -0.982288 0
    outer loop
      vertex 0.816277 12.9743 -5
      vertex 4.01722 12.3637 0
      vertex 0.816277 12.9743 0
    endloop
  endfacet
  facet normal -0.187378 -0.982288 -0
    outer loop
      vertex 4.01722 12.3637 0
      vertex 0.816277 12.9743 -5
      vertex 4.01722 12.3637 -5
    endloop
  endfacet
  facet normal 0.535831 -0.844325 0
    outer loop
      vertex -8.28651 10.0167 -5
      vertex -5.53513 11.7628 0
      vertex -8.28651 10.0167 0
    endloop
  endfacet
  facet normal 0.535831 -0.844325 0
    outer loop
      vertex -5.53513 11.7628 0
      vertex -8.28651 10.0167 -5
      vertex -5.53513 11.7628 -5
    endloop
  endfacet
  facet normal -0.425761 -0.904836 0
    outer loop
      vertex 4.01722 12.3637 -5
      vertex 6.96575 10.9763 0
      vertex 4.01722 12.3637 0
    endloop
  endfacet
  facet normal -0.425761 -0.904836 -0
    outer loop
      vertex 6.96575 10.9763 0
      vertex 4.01722 12.3637 -5
      vertex 6.96575 10.9763 -5
    endloop
  endfacet
  facet normal -0.929776 -0.368126 0
    outer loop
      vertex 12.5916 3.23297 -5
      vertex 11.392 6.2628 0
      vertex 11.392 6.2628 -5
    endloop
  endfacet
  facet normal -0.929776 -0.368126 0
    outer loop
      vertex 11.392 6.2628 0
      vertex 12.5916 3.23297 -5
      vertex 12.5916 3.23297 0
    endloop
  endfacet
  facet normal -0.637432 -0.770507 0
    outer loop
      vertex 6.96575 10.9763 -5
      vertex 9.47659 8.89911 0
      vertex 6.96575 10.9763 0
    endloop
  endfacet
  facet normal -0.637432 -0.770507 -0
    outer loop
      vertex 9.47659 8.89911 0
      vertex 6.96575 10.9763 -5
      vertex 9.47659 8.89911 -5
    endloop
  endfacet
  facet normal 0.968581 0.248698 0
    outer loop
      vertex 9.42134 12.7913 0
      vertex 9.04731 14.248 -5
      vertex 9.04731 14.248 0
    endloop
  endfacet
  facet normal 0.968581 0.248698 0
    outer loop
      vertex 9.04731 14.248 -5
      vertex 9.42134 12.7913 0
      vertex 9.42134 12.7913 -5
    endloop
  endfacet
  facet normal 0.0627939 0.998027 -0
    outer loop
      vertex 15.3767 9.01184 -5
      vertex 13.8757 9.10628 0
      vertex 15.3767 9.01184 0
    endloop
  endfacet
  facet normal 0.0627939 0.998027 0
    outer loop
      vertex 13.8757 9.10628 0
      vertex 15.3767 9.01184 -5
      vertex 13.8757 9.10628 -5
    endloop
  endfacet
  facet normal 1 -0 0
    outer loop
      vertex 9.04731 14.248 0
      vertex 9.04731 21 -5
      vertex 9.04731 21 0
    endloop
  endfacet
  facet normal 1 0 0
    outer loop
      vertex 9.04731 21 -5
      vertex 9.04731 14.248 0
      vertex 9.04731 14.248 -5
    endloop
  endfacet
  facet normal 0.728965 0.684551 0
    outer loop
      vertex 11.1755 10.3769 0
      vertex 10.1459 11.4733 -5
      vertex 10.1459 11.4733 0
    endloop
  endfacet
  facet normal 0.728965 0.684551 0
    outer loop
      vertex 10.1459 11.4733 -5
      vertex 11.1755 10.3769 0
      vertex 11.1755 10.3769 -5
    endloop
  endfacet
  facet normal 0.309014 0.951058 -0
    outer loop
      vertex 13.8757 9.10628 -5
      vertex 12.4453 9.57104 0
      vertex 13.8757 9.10628 0
    endloop
  endfacet
  facet normal 0.309014 0.951058 0
    outer loop
      vertex 12.4453 9.57104 0
      vertex 13.8757 9.10628 -5
      vertex 12.4453 9.57104 -5
    endloop
  endfacet
  facet normal 0 1 -0
    outer loop
      vertex 21 9.01184 -5
      vertex 15.3767 9.01184 0
      vertex 21 9.01184 0
    endloop
  endfacet
  facet normal 0 1 0
    outer loop
      vertex 15.3767 9.01184 0
      vertex 21 9.01184 -5
      vertex 15.3767 9.01184 -5
    endloop
  endfacet
  facet normal 0.535836 0.844322 -0
    outer loop
      vertex 12.4453 9.57104 -5
      vertex 11.1755 10.3769 0
      vertex 12.4453 9.57104 0
    endloop
  endfacet
  facet normal 0.535836 0.844322 0
    outer loop
      vertex 11.1755 10.3769 0
      vertex 12.4453 9.57104 -5
      vertex 11.1755 10.3769 -5
    endloop
  endfacet
  facet normal 0.876311 0.481745 0
    outer loop
      vertex 10.1459 11.4733 0
      vertex 9.42134 12.7913 -5
      vertex 9.42134 12.7913 0
    endloop
  endfacet
  facet normal 0.876311 0.481745 0
    outer loop
      vertex 9.42134 12.7913 -5
      vertex 10.1459 11.4733 0
      vertex 10.1459 11.4733 -5
    endloop
  endfacet
  facet normal 0 -1 0
    outer loop
      vertex 14.248 -9.04731 -5
      vertex 21 -9.04731 0
      vertex 14.248 -9.04731 0
    endloop
  endfacet
  facet normal 0 -1 -0
    outer loop
      vertex 21 -9.04731 0
      vertex 14.248 -9.04731 -5
      vertex 21 -9.04731 -5
    endloop
  endfacet
  facet normal 0.951058 -0.309014 0
    outer loop
      vertex 9.10628 -13.8757 0
      vertex 9.57104 -12.4453 -5
      vertex 9.57104 -12.4453 0
    endloop
  endfacet
  facet normal 0.951058 -0.309014 0
    outer loop
      vertex 9.57104 -12.4453 -5
      vertex 9.10628 -13.8757 0
      vertex 9.10628 -13.8757 -5
    endloop
  endfacet
  facet normal 1 -0 0
    outer loop
      vertex 9.01184 -21 0
      vertex 9.01184 -15.3767 -5
      vertex 9.01184 -15.3767 0
    endloop
  endfacet
  facet normal 1 0 0
    outer loop
      vertex 9.01184 -15.3767 -5
      vertex 9.01184 -21 0
      vertex 9.01184 -21 -5
    endloop
  endfacet
  facet normal 0.998027 -0.0627939 0
    outer loop
      vertex 9.01184 -15.3767 0
      vertex 9.10628 -13.8757 -5
      vertex 9.10628 -13.8757 0
    endloop
  endfacet
  facet normal 0.998027 -0.0627939 0
    outer loop
      vertex 9.10628 -13.8757 -5
      vertex 9.01184 -15.3767 0
      vertex 9.01184 -15.3767 -5
    endloop
  endfacet
  facet normal 0.684551 -0.728965 0
    outer loop
      vertex 10.3769 -11.1755 -5
      vertex 11.4733 -10.1459 0
      vertex 10.3769 -11.1755 0
    endloop
  endfacet
  facet normal 0.684551 -0.728965 0
    outer loop
      vertex 11.4733 -10.1459 0
      vertex 10.3769 -11.1755 -5
      vertex 11.4733 -10.1459 -5
    endloop
  endfacet
  facet normal 0.481745 -0.876311 0
    outer loop
      vertex 11.4733 -10.1459 -5
      vertex 12.7913 -9.42134 0
      vertex 11.4733 -10.1459 0
    endloop
  endfacet
  facet normal 0.481745 -0.876311 0
    outer loop
      vertex 12.7913 -9.42134 0
      vertex 11.4733 -10.1459 -5
      vertex 12.7913 -9.42134 -5
    endloop
  endfacet
  facet normal 0.248698 -0.968581 0
    outer loop
      vertex 12.7913 -9.42134 -5
      vertex 14.248 -9.04731 0
      vertex 12.7913 -9.42134 0
    endloop
  endfacet
  facet normal 0.248698 -0.968581 0
    outer loop
      vertex 14.248 -9.04731 0
      vertex 12.7913 -9.42134 -5
      vertex 14.248 -9.04731 -5
    endloop
  endfacet
  facet normal 0.844322 -0.535836 0
    outer loop
      vertex 9.57104 -12.4453 0
      vertex 10.3769 -11.1755 -5
      vertex 10.3769 -11.1755 0
    endloop
  endfacet
  facet normal 0.844322 -0.535836 0
    outer loop
      vertex 10.3769 -11.1755 -5
      vertex 9.57104 -12.4453 0
      vertex 9.57104 -12.4453 -5
    endloop
  endfacet
  facet normal -0.684551 0.728965 0
    outer loop
      vertex -10.3769 11.1755 -5
      vertex -11.4733 10.1459 0
      vertex -10.3769 11.1755 0
    endloop
  endfacet
  facet normal -0.684551 0.728965 0
    outer loop
      vertex -11.4733 10.1459 0
      vertex -10.3769 11.1755 -5
      vertex -11.4733 10.1459 -5
    endloop
  endfacet
  facet normal 0 1 -0
    outer loop
      vertex -14.248 9.04731 -5
      vertex -25 9.04731 0
      vertex -14.248 9.04731 0
    endloop
  endfacet
  facet normal 0 1 0
    outer loop
      vertex -25 9.04731 0
      vertex -14.248 9.04731 -5
      vertex -25 9.04731 -5
    endloop
  endfacet
  facet normal -0.248698 0.968581 0
    outer loop
      vertex -12.7913 9.42134 -5
      vertex -14.248 9.04731 0
      vertex -12.7913 9.42134 0
    endloop
  endfacet
  facet normal -0.248698 0.968581 0
    outer loop
      vertex -14.248 9.04731 0
      vertex -12.7913 9.42134 -5
      vertex -14.248 9.04731 -5
    endloop
  endfacet
  facet normal -0.998027 0.0627939 0
    outer loop
      vertex -9.10628 13.8757 -5
      vertex -9.01184 15.3767 0
      vertex -9.01184 15.3767 -5
    endloop
  endfacet
  facet normal -0.998027 0.0627939 0
    outer loop
      vertex -9.01184 15.3767 0
      vertex -9.10628 13.8757 -5
      vertex -9.10628 13.8757 0
    endloop
  endfacet
  facet normal -0.481745 0.876311 0
    outer loop
      vertex -11.4733 10.1459 -5
      vertex -12.7913 9.42134 0
      vertex -11.4733 10.1459 0
    endloop
  endfacet
  facet normal -0.481745 0.876311 0
    outer loop
      vertex -12.7913 9.42134 0
      vertex -11.4733 10.1459 -5
      vertex -12.7913 9.42134 -5
    endloop
  endfacet
  facet normal -1 0 0
    outer loop
      vertex -9.01184 15.3767 -5
      vertex -9.01184 21 0
      vertex -9.01184 21 -5
    endloop
  endfacet
  facet normal -1 -0 0
    outer loop
      vertex -9.01184 21 0
      vertex -9.01184 15.3767 -5
      vertex -9.01184 15.3767 0
    endloop
  endfacet
  facet normal -0.844322 0.535836 0
    outer loop
      vertex -10.3769 11.1755 -5
      vertex -9.57104 12.4453 0
      vertex -9.57104 12.4453 -5
    endloop
  endfacet
  facet normal -0.844322 0.535836 0
    outer loop
      vertex -9.57104 12.4453 0
      vertex -10.3769 11.1755 -5
      vertex -10.3769 11.1755 0
    endloop
  endfacet
  facet normal -0.951058 0.309014 0
    outer loop
      vertex -9.57104 12.4453 -5
      vertex -9.10628 13.8757 0
      vertex -9.10628 13.8757 -5
    endloop
  endfacet
  facet normal -0.951058 0.309014 0
    outer loop
      vertex -9.10628 13.8757 0
      vertex -9.57104 12.4453 -5
      vertex -9.57104 12.4453 0
    endloop
  endfacet
  facet normal -0.992112 0.125357 0
    outer loop
      vertex 1.45287 15.627 -2.5
      vertex 1.5 16 0
      vertex 1.5 16 -2.5
    endloop
  endfacet
  facet normal -0.992112 0.125357 0
    outer loop
      vertex 1.5 16 0
      vertex 1.45287 15.627 -2.5
      vertex 1.45287 15.627 0
    endloop
  endfacet
  facet normal -0.992112 -0.125357 0
    outer loop
      vertex 1.5 16 -2.5
      vertex 1.45287 16.373 0
      vertex 1.45287 16.373 -2.5
    endloop
  endfacet
  facet normal -0.992112 -0.125357 0
    outer loop
      vertex 1.45287 16.373 0
      vertex 1.5 16 -2.5
      vertex 1.5 16 0
    endloop
  endfacet
  facet normal 0.968584 -0.248688 0
    outer loop
      vertex -1.48817 16.188 0
      vertex -1.39466 16.5522 -2.5
      vertex -1.39466 16.5522 0
    endloop
  endfacet
  facet normal 0.968584 -0.248688 0
    outer loop
      vertex -1.39466 16.5522 -2.5
      vertex -1.48817 16.188 0
      vertex -1.48817 16.188 -2.5
    endloop
  endfacet
  facet normal 1 -0 0
    outer loop
      vertex -1.48817 15.812 0
      vertex -1.48817 16.188 -2.5
      vertex -1.48817 16.188 0
    endloop
  endfacet
  facet normal 1 0 0
    outer loop
      vertex -1.48817 16.188 -2.5
      vertex -1.48817 15.812 0
      vertex -1.48817 15.812 -2.5
    endloop
  endfacet
  facet normal 0.728986 0.684529 0
    outer loop
      vertex -0.956136 14.8442 0
      vertex -1.21352 15.1183 -2.5
      vertex -1.21352 15.1183 0
    endloop
  endfacet
  facet normal 0.728986 0.684529 0
    outer loop
      vertex -1.21352 15.1183 -2.5
      vertex -0.956136 14.8442 0
      vertex -0.956136 14.8442 -2.5
    endloop
  endfacet
  facet normal -0.187239 -0.982314 0
    outer loop
      vertex 0.0941849 17.497 -2.5
      vertex 0.463525 17.4266 0
      vertex 0.0941849 17.497 0
    endloop
  endfacet
  facet normal -0.187239 -0.982314 -0
    outer loop
      vertex 0.463525 17.4266 0
      vertex 0.0941849 17.497 -2.5
      vertex 0.463525 17.4266 -2.5
    endloop
  endfacet
  facet normal 0.968584 0.248688 0
    outer loop
      vertex -1.39466 15.4478 0
      vertex -1.48817 15.812 -2.5
      vertex -1.48817 15.812 0
    endloop
  endfacet
  facet normal 0.968584 0.248688 0
    outer loop
      vertex -1.48817 15.812 -2.5
      vertex -1.39466 15.4478 0
      vertex -1.39466 15.4478 -2.5
    endloop
  endfacet
  facet normal 0.535692 0.844414 -0
    outer loop
      vertex -0.638668 14.6428 -2.5
      vertex -0.956136 14.8442 0
      vertex -0.638668 14.6428 0
    endloop
  endfacet
  facet normal 0.535692 0.844414 0
    outer loop
      vertex -0.956136 14.8442 0
      vertex -0.638668 14.6428 -2.5
      vertex -0.956136 14.8442 -2.5
    endloop
  endfacet
  facet normal 0.0627662 0.998028 -0
    outer loop
      vertex 0.0941849 14.503 -2.5
      vertex -0.281072 14.5266 0
      vertex 0.0941849 14.503 0
    endloop
  endfacet
  facet normal 0.0627662 0.998028 0
    outer loop
      vertex -0.281072 14.5266 0
      vertex 0.0941849 14.503 -2.5
      vertex -0.281072 14.5266 -2.5
    endloop
  endfacet
  facet normal -0.425794 0.90482 0
    outer loop
      vertex 0.80374 14.7335 -2.5
      vertex 0.463525 14.5734 0
      vertex 0.80374 14.7335 0
    endloop
  endfacet
  facet normal -0.425794 0.90482 0
    outer loop
      vertex 0.463525 14.5734 0
      vertex 0.80374 14.7335 -2.5
      vertex 0.463525 14.5734 -2.5
    endloop
  endfacet
  facet normal -0.637473 0.770473 0
    outer loop
      vertex 1.09345 14.9732 -2.5
      vertex 0.80374 14.7335 0
      vertex 1.09345 14.9732 0
    endloop
  endfacet
  facet normal -0.637473 0.770473 0
    outer loop
      vertex 0.80374 14.7335 0
      vertex 1.09345 14.9732 -2.5
      vertex 0.80374 14.7335 -2.5
    endloop
  endfacet
  facet normal -0.929782 0.36811 0
    outer loop
      vertex 1.31446 15.2774 -2.5
      vertex 1.45287 15.627 0
      vertex 1.45287 15.627 -2.5
    endloop
  endfacet
  facet normal -0.929782 0.36811 0
    outer loop
      vertex 1.45287 15.627 0
      vertex 1.31446 15.2774 -2.5
      vertex 1.31446 15.2774 0
    endloop
  endfacet
  facet normal 0.728986 -0.684529 0
    outer loop
      vertex -1.21352 16.8817 0
      vertex -0.956136 17.1558 -2.5
      vertex -0.956136 17.1558 0
    endloop
  endfacet
  facet normal 0.728986 -0.684529 0
    outer loop
      vertex -0.956136 17.1558 -2.5
      vertex -1.21352 16.8817 0
      vertex -1.21352 16.8817 -2.5
    endloop
  endfacet
  facet normal 0.535692 -0.844414 0
    outer loop
      vertex -0.956136 17.1558 -2.5
      vertex -0.638668 17.3572 0
      vertex -0.956136 17.1558 0
    endloop
  endfacet
  facet normal 0.535692 -0.844414 0
    outer loop
      vertex -0.638668 17.3572 0
      vertex -0.956136 17.1558 -2.5
      vertex -0.638668 17.3572 -2.5
    endloop
  endfacet
  facet normal 0.0627662 -0.998028 0
    outer loop
      vertex -0.281072 17.4734 -2.5
      vertex 0.0941849 17.497 0
      vertex -0.281072 17.4734 0
    endloop
  endfacet
  facet normal 0.0627662 -0.998028 0
    outer loop
      vertex 0.0941849 17.497 0
      vertex -0.281072 17.4734 -2.5
      vertex 0.0941849 17.497 -2.5
    endloop
  endfacet
  facet normal -0.809022 -0.587778 0
    outer loop
      vertex 1.31446 16.7226 -2.5
      vertex 1.09345 17.0268 0
      vertex 1.09345 17.0268 -2.5
    endloop
  endfacet
  facet normal -0.809022 -0.587778 0
    outer loop
      vertex 1.09345 17.0268 0
      vertex 1.31446 16.7226 -2.5
      vertex 1.31446 16.7226 0
    endloop
  endfacet
  facet normal -0.929782 -0.36811 0
    outer loop
      vertex 1.45287 16.373 -2.5
      vertex 1.31446 16.7226 0
      vertex 1.31446 16.7226 -2.5
    endloop
  endfacet
  facet normal -0.929782 -0.36811 0
    outer loop
      vertex 1.31446 16.7226 0
      vertex 1.45287 16.373 -2.5
      vertex 1.45287 16.373 0
    endloop
  endfacet
  facet normal 0.876311 0.481745 0
    outer loop
      vertex -1.21352 15.1183 0
      vertex -1.39466 15.4478 -2.5
      vertex -1.39466 15.4478 0
    endloop
  endfacet
  facet normal 0.876311 0.481745 0
    outer loop
      vertex -1.39466 15.4478 -2.5
      vertex -1.21352 15.1183 0
      vertex -1.21352 15.1183 -2.5
    endloop
  endfacet
  facet normal 0.309041 0.951049 -0
    outer loop
      vertex -0.281072 14.5266 -2.5
      vertex -0.638668 14.6428 0
      vertex -0.281072 14.5266 0
    endloop
  endfacet
  facet normal 0.309041 0.951049 0
    outer loop
      vertex -0.638668 14.6428 0
      vertex -0.281072 14.5266 -2.5
      vertex -0.638668 14.6428 -2.5
    endloop
  endfacet
  facet normal -0.187239 0.982314 0
    outer loop
      vertex 0.463525 14.5734 -2.5
      vertex 0.0941849 14.503 0
      vertex 0.463525 14.5734 0
    endloop
  endfacet
  facet normal -0.187239 0.982314 0
    outer loop
      vertex 0.0941849 14.503 0
      vertex 0.463525 14.5734 -2.5
      vertex 0.0941849 14.503 -2.5
    endloop
  endfacet
  facet normal -0.809022 0.587778 0
    outer loop
      vertex 1.09345 14.9732 -2.5
      vertex 1.31446 15.2774 0
      vertex 1.31446 15.2774 -2.5
    endloop
  endfacet
  facet normal -0.809022 0.587778 0
    outer loop
      vertex 1.31446 15.2774 0
      vertex 1.09345 14.9732 -2.5
      vertex 1.09345 14.9732 0
    endloop
  endfacet
  facet normal 0.876311 -0.481745 0
    outer loop
      vertex -1.39466 16.5522 0
      vertex -1.21352 16.8817 -2.5
      vertex -1.21352 16.8817 0
    endloop
  endfacet
  facet normal 0.876311 -0.481745 0
    outer loop
      vertex -1.21352 16.8817 -2.5
      vertex -1.39466 16.5522 0
      vertex -1.39466 16.5522 -2.5
    endloop
  endfacet
  facet normal 0.309041 -0.951049 0
    outer loop
      vertex -0.638668 17.3572 -2.5
      vertex -0.281072 17.4734 0
      vertex -0.638668 17.3572 0
    endloop
  endfacet
  facet normal 0.309041 -0.951049 0
    outer loop
      vertex -0.281072 17.4734 0
      vertex -0.638668 17.3572 -2.5
      vertex -0.281072 17.4734 -2.5
    endloop
  endfacet
  facet normal -0.425794 -0.90482 0
    outer loop
      vertex 0.463525 17.4266 -2.5
      vertex 0.80374 17.2665 0
      vertex 0.463525 17.4266 0
    endloop
  endfacet
  facet normal -0.425794 -0.90482 -0
    outer loop
      vertex 0.80374 17.2665 0
      vertex 0.463525 17.4266 -2.5
      vertex 0.80374 17.2665 -2.5
    endloop
  endfacet
  facet normal -0.637473 -0.770473 0
    outer loop
      vertex 0.80374 17.2665 -2.5
      vertex 1.09345 17.0268 0
      vertex 0.80374 17.2665 0
    endloop
  endfacet
  facet normal -0.637473 -0.770473 -0
    outer loop
      vertex 1.09345 17.0268 0
      vertex 0.80374 17.2665 -2.5
      vertex 1.09345 17.0268 -2.5
    endloop
  endfacet
  facet normal 0.866028 -0.499995 0
    outer loop
      vertex -3.1755 16 -2.5
      vertex -1.58775 18.7501 -5
      vertex -1.58775 18.7501 -2.5
    endloop
  endfacet
  facet normal 0.866028 -0.499995 0
    outer loop
      vertex -1.58775 18.7501 -5
      vertex -3.1755 16 -2.5
      vertex -3.1755 16 -5
    endloop
  endfacet
  facet normal 0 -1 0
    outer loop
      vertex -1.58775 18.7501 -5
      vertex 1.58775 18.7501 -2.5
      vertex -1.58775 18.7501 -2.5
    endloop
  endfacet
  facet normal 0 -1 -0
    outer loop
      vertex 1.58775 18.7501 -2.5
      vertex -1.58775 18.7501 -5
      vertex 1.58775 18.7501 -5
    endloop
  endfacet
  facet normal -0.866028 -0.499995 0
    outer loop
      vertex 3.1755 16 -5
      vertex 1.58775 18.7501 -2.5
      vertex 1.58775 18.7501 -5
    endloop
  endfacet
  facet normal -0.866028 -0.499995 0
    outer loop
      vertex 1.58775 18.7501 -2.5
      vertex 3.1755 16 -5
      vertex 3.1755 16 -2.5
    endloop
  endfacet
  facet normal -0.866028 0.499995 0
    outer loop
      vertex 1.58775 13.2499 -5
      vertex 3.1755 16 -2.5
      vertex 3.1755 16 -5
    endloop
  endfacet
  facet normal -0.866028 0.499995 0
    outer loop
      vertex 3.1755 16 -2.5
      vertex 1.58775 13.2499 -5
      vertex 1.58775 13.2499 -2.5
    endloop
  endfacet
  facet normal 0 0 -1
    outer loop
      vertex 1.31446 15.2774 -2.5
      vertex 3.1755 16 -2.5
      vertex 1.58775 13.2499 -2.5
    endloop
  endfacet
  facet normal 0 0 -1
    outer loop
      vertex 1.45287 16.373 -2.5
      vertex 3.1755 16 -2.5
      vertex 1.5 16 -2.5
    endloop
  endfacet
  facet normal -0 0 -1
    outer loop
      vertex 3.1755 16 -2.5
      vertex 1.45287 15.627 -2.5
      vertex 1.5 16 -2.5
    endloop
  endfacet
  facet normal 0 0 -1
    outer loop
      vertex 3.1755 16 -2.5
      vertex 1.31446 15.2774 -2.5
      vertex 1.45287 15.627 -2.5
    endloop
  endfacet
  facet normal 0 0 -1
    outer loop
      vertex 1.58775 13.2499 -2.5
      vertex 1.09345 14.9732 -2.5
      vertex 1.31446 15.2774 -2.5
    endloop
  endfacet
  facet normal 0 0 -1
    outer loop
      vertex 1.58775 13.2499 -2.5
      vertex 0.80374 14.7335 -2.5
      vertex 1.09345 14.9732 -2.5
    endloop
  endfacet
  facet normal 0 0 -1
    outer loop
      vertex 1.58775 13.2499 -2.5
      vertex 0.463525 14.5734 -2.5
      vertex 0.80374 14.7335 -2.5
    endloop
  endfacet
  facet normal 0 0 -1
    outer loop
      vertex 1.58775 13.2499 -2.5
      vertex 0.0941849 14.503 -2.5
      vertex 0.463525 14.5734 -2.5
    endloop
  endfacet
  facet normal 0 0 -1
    outer loop
      vertex -1.58775 13.2499 -2.5
      vertex 0.0941849 14.503 -2.5
      vertex 1.58775 13.2499 -2.5
    endloop
  endfacet
  facet normal -0 0 -1
    outer loop
      vertex 0.0941849 14.503 -2.5
      vertex -1.58775 13.2499 -2.5
      vertex -0.281072 14.5266 -2.5
    endloop
  endfacet
  facet normal 0 0 -1
    outer loop
      vertex -1.39466 15.4478 -2.5
      vertex -3.1755 16 -2.5
      vertex -1.48817 15.812 -2.5
    endloop
  endfacet
  facet normal 0 0 -1
    outer loop
      vertex -1.21352 15.1183 -2.5
      vertex -3.1755 16 -2.5
      vertex -1.39466 15.4478 -2.5
    endloop
  endfacet
  facet normal 0 0 -1
    outer loop
      vertex -3.1755 16 -2.5
      vertex -1.21352 15.1183 -2.5
      vertex -1.58775 13.2499 -2.5
    endloop
  endfacet
  facet normal -0 0 -1
    outer loop
      vertex -0.956136 14.8442 -2.5
      vertex -1.58775 13.2499 -2.5
      vertex -1.21352 15.1183 -2.5
    endloop
  endfacet
  facet normal -0 0 -1
    outer loop
      vertex -0.638668 14.6428 -2.5
      vertex -1.58775 13.2499 -2.5
      vertex -0.956136 14.8442 -2.5
    endloop
  endfacet
  facet normal -0 0 -1
    outer loop
      vertex -0.281072 14.5266 -2.5
      vertex -1.58775 13.2499 -2.5
      vertex -0.638668 14.6428 -2.5
    endloop
  endfacet
  facet normal 0 0 -1
    outer loop
      vertex 1.31446 16.7226 -2.5
      vertex 3.1755 16 -2.5
      vertex 1.45287 16.373 -2.5
    endloop
  endfacet
  facet normal 0 0 -1
    outer loop
      vertex 3.1755 16 -2.5
      vertex 1.31446 16.7226 -2.5
      vertex 1.58775 18.7501 -2.5
    endloop
  endfacet
  facet normal 0 0 -1
    outer loop
      vertex 1.09345 17.0268 -2.5
      vertex 1.58775 18.7501 -2.5
      vertex 1.31446 16.7226 -2.5
    endloop
  endfacet
  facet normal 0 0 -1
    outer loop
      vertex 0.80374 17.2665 -2.5
      vertex 1.58775 18.7501 -2.5
      vertex 1.09345 17.0268 -2.5
    endloop
  endfacet
  facet normal 0 0 -1
    outer loop
      vertex 0.463525 17.4266 -2.5
      vertex 1.58775 18.7501 -2.5
      vertex 0.80374 17.2665 -2.5
    endloop
  endfacet
  facet normal 0 0 -1
    outer loop
      vertex 0.0941849 17.497 -2.5
      vertex 1.58775 18.7501 -2.5
      vertex 0.463525 17.4266 -2.5
    endloop
  endfacet
  facet normal 0 0 -1
    outer loop
      vertex -1.58775 18.7501 -2.5
      vertex 0.0941849 17.497 -2.5
      vertex -0.281072 17.4734 -2.5
    endloop
  endfacet
  facet normal 0 0 -1
    outer loop
      vertex -1.58775 18.7501 -2.5
      vertex -0.281072 17.4734 -2.5
      vertex -0.638668 17.3572 -2.5
    endloop
  endfacet
  facet normal 0 0 -1
    outer loop
      vertex 0.0941849 17.497 -2.5
      vertex -1.58775 18.7501 -2.5
      vertex 1.58775 18.7501 -2.5
    endloop
  endfacet
  facet normal 0 0 -1
    outer loop
      vertex -0.956136 17.1558 -2.5
      vertex -1.58775 18.7501 -2.5
      vertex -0.638668 17.3572 -2.5
    endloop
  endfacet
  facet normal 0 0 -1
    outer loop
      vertex -1.21352 16.8817 -2.5
      vertex -1.58775 18.7501 -2.5
      vertex -0.956136 17.1558 -2.5
    endloop
  endfacet
  facet normal 0 0 -1
    outer loop
      vertex -3.1755 16 -2.5
      vertex -1.21352 16.8817 -2.5
      vertex -1.39466 16.5522 -2.5
    endloop
  endfacet
  facet normal 0 0 -1
    outer loop
      vertex -3.1755 16 -2.5
      vertex -1.39466 16.5522 -2.5
      vertex -1.48817 16.188 -2.5
    endloop
  endfacet
  facet normal 0 0 -1
    outer loop
      vertex -1.48817 15.812 -2.5
      vertex -3.1755 16 -2.5
      vertex -1.48817 16.188 -2.5
    endloop
  endfacet
  facet normal -0 0 -1
    outer loop
      vertex -1.21352 16.8817 -2.5
      vertex -3.1755 16 -2.5
      vertex -1.58775 18.7501 -2.5
    endloop
  endfacet
  facet normal 0 1 -0
    outer loop
      vertex 1.58775 13.2499 -5
      vertex -1.58775 13.2499 -2.5
      vertex 1.58775 13.2499 -2.5
    endloop
  endfacet
  facet normal 0 1 0
    outer loop
      vertex -1.58775 13.2499 -2.5
      vertex 1.58775 13.2499 -5
      vertex -1.58775 13.2499 -5
    endloop
  endfacet
  facet normal 0.866028 0.499995 0
    outer loop
      vertex -1.58775 13.2499 -2.5
      vertex -3.1755 16 -5
      vertex -3.1755 16 -2.5
    endloop
  endfacet
  facet normal 0.866028 0.499995 0
    outer loop
      vertex -3.1755 16 -5
      vertex -1.58775 13.2499 -2.5
      vertex -1.58775 13.2499 -5
    endloop
  endfacet
  facet normal -0.929782 0.36811 0
    outer loop
      vertex 1.31446 -16.7226 -2.5
      vertex 1.45287 -16.373 0
      vertex 1.45287 -16.373 -2.5
    endloop
  endfacet
  facet normal -0.929782 0.36811 0
    outer loop
      vertex 1.45287 -16.373 0
      vertex 1.31446 -16.7226 -2.5
      vertex 1.31446 -16.7226 0
    endloop
  endfacet
  facet normal -0.992112 0.125357 0
    outer loop
      vertex 1.45287 -16.373 -2.5
      vertex 1.5 -16 0
      vertex 1.5 -16 -2.5
    endloop
  endfacet
  facet normal -0.992112 0.125357 0
    outer loop
      vertex 1.5 -16 0
      vertex 1.45287 -16.373 -2.5
      vertex 1.45287 -16.373 0
    endloop
  endfacet
  facet normal 0.968584 -0.248688 0
    outer loop
      vertex -1.48817 -15.812 0
      vertex -1.39466 -15.4478 -2.5
      vertex -1.39466 -15.4478 0
    endloop
  endfacet
  facet normal 0.968584 -0.248688 0
    outer loop
      vertex -1.39466 -15.4478 -2.5
      vertex -1.48817 -15.812 0
      vertex -1.48817 -15.812 -2.5
    endloop
  endfacet
  facet normal 1 -0 0
    outer loop
      vertex -1.48817 -16.188 0
      vertex -1.48817 -15.812 -2.5
      vertex -1.48817 -15.812 0
    endloop
  endfacet
  facet normal 1 0 0
    outer loop
      vertex -1.48817 -15.812 -2.5
      vertex -1.48817 -16.188 0
      vertex -1.48817 -16.188 -2.5
    endloop
  endfacet
  facet normal 0.728986 0.684529 0
    outer loop
      vertex -0.956136 -17.1558 0
      vertex -1.21352 -16.8817 -2.5
      vertex -1.21352 -16.8817 0
    endloop
  endfacet
  facet normal 0.728986 0.684529 0
    outer loop
      vertex -1.21352 -16.8817 -2.5
      vertex -0.956136 -17.1558 0
      vertex -0.956136 -17.1558 -2.5
    endloop
  endfacet
  facet normal -0.187239 -0.982314 0
    outer loop
      vertex 0.0941849 -14.503 -2.5
      vertex 0.463525 -14.5734 0
      vertex 0.0941849 -14.503 0
    endloop
  endfacet
  facet normal -0.187239 -0.982314 -0
    outer loop
      vertex 0.463525 -14.5734 0
      vertex 0.0941849 -14.503 -2.5
      vertex 0.463525 -14.5734 -2.5
    endloop
  endfacet
  facet normal 0.968584 0.248688 0
    outer loop
      vertex -1.39466 -16.5522 0
      vertex -1.48817 -16.188 -2.5
      vertex -1.48817 -16.188 0
    endloop
  endfacet
  facet normal 0.968584 0.248688 0
    outer loop
      vertex -1.48817 -16.188 -2.5
      vertex -1.39466 -16.5522 0
      vertex -1.39466 -16.5522 -2.5
    endloop
  endfacet
  facet normal 0.535692 0.844414 -0
    outer loop
      vertex -0.638668 -17.3572 -2.5
      vertex -0.956136 -17.1558 0
      vertex -0.638668 -17.3572 0
    endloop
  endfacet
  facet normal 0.535692 0.844414 0
    outer loop
      vertex -0.956136 -17.1558 0
      vertex -0.638668 -17.3572 -2.5
      vertex -0.956136 -17.1558 -2.5
    endloop
  endfacet
  facet normal 0.0627662 0.998028 -0
    outer loop
      vertex 0.0941849 -17.497 -2.5
      vertex -0.281072 -17.4734 0
      vertex 0.0941849 -17.497 0
    endloop
  endfacet
  facet normal 0.0627662 0.998028 0
    outer loop
      vertex -0.281072 -17.4734 0
      vertex 0.0941849 -17.497 -2.5
      vertex -0.281072 -17.4734 -2.5
    endloop
  endfacet
  facet normal -0.425794 0.90482 0
    outer loop
      vertex 0.80374 -17.2665 -2.5
      vertex 0.463525 -17.4266 0
      vertex 0.80374 -17.2665 0
    endloop
  endfacet
  facet normal -0.425794 0.90482 0
    outer loop
      vertex 0.463525 -17.4266 0
      vertex 0.80374 -17.2665 -2.5
      vertex 0.463525 -17.4266 -2.5
    endloop
  endfacet
  facet normal -0.637473 0.770473 0
    outer loop
      vertex 1.09345 -17.0268 -2.5
      vertex 0.80374 -17.2665 0
      vertex 1.09345 -17.0268 0
    endloop
  endfacet
  facet normal -0.637473 0.770473 0
    outer loop
      vertex 0.80374 -17.2665 0
      vertex 1.09345 -17.0268 -2.5
      vertex 0.80374 -17.2665 -2.5
    endloop
  endfacet
  facet normal 0.728986 -0.684529 0
    outer loop
      vertex -1.21352 -15.1183 0
      vertex -0.956136 -14.8442 -2.5
      vertex -0.956136 -14.8442 0
    endloop
  endfacet
  facet normal 0.728986 -0.684529 0
    outer loop
      vertex -0.956136 -14.8442 -2.5
      vertex -1.21352 -15.1183 0
      vertex -1.21352 -15.1183 -2.5
    endloop
  endfacet
  facet normal 0.535692 -0.844414 0
    outer loop
      vertex -0.956136 -14.8442 -2.5
      vertex -0.638668 -14.6428 0
      vertex -0.956136 -14.8442 0
    endloop
  endfacet
  facet normal 0.535692 -0.844414 0
    outer loop
      vertex -0.638668 -14.6428 0
      vertex -0.956136 -14.8442 -2.5
      vertex -0.638668 -14.6428 -2.5
    endloop
  endfacet
  facet normal 0.0627662 -0.998028 0
    outer loop
      vertex -0.281072 -14.5266 -2.5
      vertex 0.0941849 -14.503 0
      vertex -0.281072 -14.5266 0
    endloop
  endfacet
  facet normal 0.0627662 -0.998028 0
    outer loop
      vertex 0.0941849 -14.503 0
      vertex -0.281072 -14.5266 -2.5
      vertex 0.0941849 -14.503 -2.5
    endloop
  endfacet
  facet normal -0.809022 -0.587778 0
    outer loop
      vertex 1.31446 -15.2774 -2.5
      vertex 1.09345 -14.9732 0
      vertex 1.09345 -14.9732 -2.5
    endloop
  endfacet
  facet normal -0.809022 -0.587778 0
    outer loop
      vertex 1.09345 -14.9732 0
      vertex 1.31446 -15.2774 -2.5
      vertex 1.31446 -15.2774 0
    endloop
  endfacet
  facet normal -0.929782 -0.36811 0
    outer loop
      vertex 1.45287 -15.627 -2.5
      vertex 1.31446 -15.2774 0
      vertex 1.31446 -15.2774 -2.5
    endloop
  endfacet
  facet normal -0.929782 -0.36811 0
    outer loop
      vertex 1.31446 -15.2774 0
      vertex 1.45287 -15.627 -2.5
      vertex 1.45287 -15.627 0
    endloop
  endfacet
  facet normal -0.992112 -0.125357 0
    outer loop
      vertex 1.5 -16 -2.5
      vertex 1.45287 -15.627 0
      vertex 1.45287 -15.627 -2.5
    endloop
  endfacet
  facet normal -0.992112 -0.125357 0
    outer loop
      vertex 1.45287 -15.627 0
      vertex 1.5 -16 -2.5
      vertex 1.5 -16 0
    endloop
  endfacet
  facet normal 0.876311 0.481745 0
    outer loop
      vertex -1.21352 -16.8817 0
      vertex -1.39466 -16.5522 -2.5
      vertex -1.39466 -16.5522 0
    endloop
  endfacet
  facet normal 0.876311 0.481745 0
    outer loop
      vertex -1.39466 -16.5522 -2.5
      vertex -1.21352 -16.8817 0
      vertex -1.21352 -16.8817 -2.5
    endloop
  endfacet
  facet normal 0.309041 0.951049 -0
    outer loop
      vertex -0.281072 -17.4734 -2.5
      vertex -0.638668 -17.3572 0
      vertex -0.281072 -17.4734 0
    endloop
  endfacet
  facet normal 0.309041 0.951049 0
    outer loop
      vertex -0.638668 -17.3572 0
      vertex -0.281072 -17.4734 -2.5
      vertex -0.638668 -17.3572 -2.5
    endloop
  endfacet
  facet normal -0.187239 0.982314 0
    outer loop
      vertex 0.463525 -17.4266 -2.5
      vertex 0.0941849 -17.497 0
      vertex 0.463525 -17.4266 0
    endloop
  endfacet
  facet normal -0.187239 0.982314 0
    outer loop
      vertex 0.0941849 -17.497 0
      vertex 0.463525 -17.4266 -2.5
      vertex 0.0941849 -17.497 -2.5
    endloop
  endfacet
  facet normal -0.809022 0.587778 0
    outer loop
      vertex 1.09345 -17.0268 -2.5
      vertex 1.31446 -16.7226 0
      vertex 1.31446 -16.7226 -2.5
    endloop
  endfacet
  facet normal -0.809022 0.587778 0
    outer loop
      vertex 1.31446 -16.7226 0
      vertex 1.09345 -17.0268 -2.5
      vertex 1.09345 -17.0268 0
    endloop
  endfacet
  facet normal 0.876311 -0.481745 0
    outer loop
      vertex -1.39466 -15.4478 0
      vertex -1.21352 -15.1183 -2.5
      vertex -1.21352 -15.1183 0
    endloop
  endfacet
  facet normal 0.876311 -0.481745 0
    outer loop
      vertex -1.21352 -15.1183 -2.5
      vertex -1.39466 -15.4478 0
      vertex -1.39466 -15.4478 -2.5
    endloop
  endfacet
  facet normal 0.309041 -0.951049 0
    outer loop
      vertex -0.638668 -14.6428 -2.5
      vertex -0.281072 -14.5266 0
      vertex -0.638668 -14.6428 0
    endloop
  endfacet
  facet normal 0.309041 -0.951049 0
    outer loop
      vertex -0.281072 -14.5266 0
      vertex -0.638668 -14.6428 -2.5
      vertex -0.281072 -14.5266 -2.5
    endloop
  endfacet
  facet normal -0.425794 -0.90482 0
    outer loop
      vertex 0.463525 -14.5734 -2.5
      vertex 0.80374 -14.7335 0
      vertex 0.463525 -14.5734 0
    endloop
  endfacet
  facet normal -0.425794 -0.90482 -0
    outer loop
      vertex 0.80374 -14.7335 0
      vertex 0.463525 -14.5734 -2.5
      vertex 0.80374 -14.7335 -2.5
    endloop
  endfacet
  facet normal -0.637473 -0.770473 0
    outer loop
      vertex 0.80374 -14.7335 -2.5
      vertex 1.09345 -14.9732 0
      vertex 0.80374 -14.7335 0
    endloop
  endfacet
  facet normal -0.637473 -0.770473 -0
    outer loop
      vertex 1.09345 -14.9732 0
      vertex 0.80374 -14.7335 -2.5
      vertex 1.09345 -14.9732 -2.5
    endloop
  endfacet
  facet normal 0.866028 -0.499995 0
    outer loop
      vertex -3.1755 -16 -2.5
      vertex -1.58775 -13.2499 -5
      vertex -1.58775 -13.2499 -2.5
    endloop
  endfacet
  facet normal 0.866028 -0.499995 0
    outer loop
      vertex -1.58775 -13.2499 -5
      vertex -3.1755 -16 -2.5
      vertex -3.1755 -16 -5
    endloop
  endfacet
  facet normal 0 -1 0
    outer loop
      vertex -1.58775 -13.2499 -5
      vertex 1.58775 -13.2499 -2.5
      vertex -1.58775 -13.2499 -2.5
    endloop
  endfacet
  facet normal 0 -1 -0
    outer loop
      vertex 1.58775 -13.2499 -2.5
      vertex -1.58775 -13.2499 -5
      vertex 1.58775 -13.2499 -5
    endloop
  endfacet
  facet normal -0.866028 -0.499995 0
    outer loop
      vertex 3.1755 -16 -5
      vertex 1.58775 -13.2499 -2.5
      vertex 1.58775 -13.2499 -5
    endloop
  endfacet
  facet normal -0.866028 -0.499995 0
    outer loop
      vertex 1.58775 -13.2499 -2.5
      vertex 3.1755 -16 -5
      vertex 3.1755 -16 -2.5
    endloop
  endfacet
  facet normal -0.866028 0.499995 0
    outer loop
      vertex 1.58775 -18.7501 -5
      vertex 3.1755 -16 -2.5
      vertex 3.1755 -16 -5
    endloop
  endfacet
  facet normal -0.866028 0.499995 0
    outer loop
      vertex 3.1755 -16 -2.5
      vertex 1.58775 -18.7501 -5
      vertex 1.58775 -18.7501 -2.5
    endloop
  endfacet
  facet normal 0 0 -1
    outer loop
      vertex 1.31446 -16.7226 -2.5
      vertex 3.1755 -16 -2.5
      vertex 1.58775 -18.7501 -2.5
    endloop
  endfacet
  facet normal 0 0 -1
    outer loop
      vertex 1.45287 -15.627 -2.5
      vertex 3.1755 -16 -2.5
      vertex 1.5 -16 -2.5
    endloop
  endfacet
  facet normal -0 0 -1
    outer loop
      vertex 3.1755 -16 -2.5
      vertex 1.45287 -16.373 -2.5
      vertex 1.5 -16 -2.5
    endloop
  endfacet
  facet normal 0 0 -1
    outer loop
      vertex 3.1755 -16 -2.5
      vertex 1.31446 -16.7226 -2.5
      vertex 1.45287 -16.373 -2.5
    endloop
  endfacet
  facet normal 0 0 -1
    outer loop
      vertex 1.58775 -18.7501 -2.5
      vertex 1.09345 -17.0268 -2.5
      vertex 1.31446 -16.7226 -2.5
    endloop
  endfacet
  facet normal 0 0 -1
    outer loop
      vertex 1.58775 -18.7501 -2.5
      vertex 0.80374 -17.2665 -2.5
      vertex 1.09345 -17.0268 -2.5
    endloop
  endfacet
  facet normal 0 0 -1
    outer loop
      vertex 1.58775 -18.7501 -2.5
      vertex 0.463525 -17.4266 -2.5
      vertex 0.80374 -17.2665 -2.5
    endloop
  endfacet
  facet normal 0 0 -1
    outer loop
      vertex 1.58775 -18.7501 -2.5
      vertex 0.0941849 -17.497 -2.5
      vertex 0.463525 -17.4266 -2.5
    endloop
  endfacet
  facet normal 0 0 -1
    outer loop
      vertex -1.58775 -18.7501 -2.5
      vertex 0.0941849 -17.497 -2.5
      vertex 1.58775 -18.7501 -2.5
    endloop
  endfacet
  facet normal -0 0 -1
    outer loop
      vertex 0.0941849 -17.497 -2.5
      vertex -1.58775 -18.7501 -2.5
      vertex -0.281072 -17.4734 -2.5
    endloop
  endfacet
  facet normal 0 0 -1
    outer loop
      vertex -1.39466 -16.5522 -2.5
      vertex -3.1755 -16 -2.5
      vertex -1.48817 -16.188 -2.5
    endloop
  endfacet
  facet normal 0 0 -1
    outer loop
      vertex -1.21352 -16.8817 -2.5
      vertex -3.1755 -16 -2.5
      vertex -1.39466 -16.5522 -2.5
    endloop
  endfacet
  facet normal 0 0 -1
    outer loop
      vertex -3.1755 -16 -2.5
      vertex -1.21352 -16.8817 -2.5
      vertex -1.58775 -18.7501 -2.5
    endloop
  endfacet
  facet normal -0 0 -1
    outer loop
      vertex -0.956136 -17.1558 -2.5
      vertex -1.58775 -18.7501 -2.5
      vertex -1.21352 -16.8817 -2.5
    endloop
  endfacet
  facet normal -0 0 -1
    outer loop
      vertex -0.638668 -17.3572 -2.5
      vertex -1.58775 -18.7501 -2.5
      vertex -0.956136 -17.1558 -2.5
    endloop
  endfacet
  facet normal -0 0 -1
    outer loop
      vertex -0.281072 -17.4734 -2.5
      vertex -1.58775 -18.7501 -2.5
      vertex -0.638668 -17.3572 -2.5
    endloop
  endfacet
  facet normal 0 0 -1
    outer loop
      vertex 1.31446 -15.2774 -2.5
      vertex 3.1755 -16 -2.5
      vertex 1.45287 -15.627 -2.5
    endloop
  endfacet
  facet normal 0 0 -1
    outer loop
      vertex 3.1755 -16 -2.5
      vertex 1.31446 -15.2774 -2.5
      vertex 1.58775 -13.2499 -2.5
    endloop
  endfacet
  facet normal 0 0 -1
    outer loop
      vertex 1.09345 -14.9732 -2.5
      vertex 1.58775 -13.2499 -2.5
      vertex 1.31446 -15.2774 -2.5
    endloop
  endfacet
  facet normal 0 0 -1
    outer loop
      vertex 0.80374 -14.7335 -2.5
      vertex 1.58775 -13.2499 -2.5
      vertex 1.09345 -14.9732 -2.5
    endloop
  endfacet
  facet normal 0 0 -1
    outer loop
      vertex 0.463525 -14.5734 -2.5
      vertex 1.58775 -13.2499 -2.5
      vertex 0.80374 -14.7335 -2.5
    endloop
  endfacet
  facet normal 0 0 -1
    outer loop
      vertex 0.0941849 -14.503 -2.5
      vertex 1.58775 -13.2499 -2.5
      vertex 0.463525 -14.5734 -2.5
    endloop
  endfacet
  facet normal 0 0 -1
    outer loop
      vertex -1.58775 -13.2499 -2.5
      vertex 0.0941849 -14.503 -2.5
      vertex -0.281072 -14.5266 -2.5
    endloop
  endfacet
  facet normal 0 0 -1
    outer loop
      vertex -1.58775 -13.2499 -2.5
      vertex -0.281072 -14.5266 -2.5
      vertex -0.638668 -14.6428 -2.5
    endloop
  endfacet
  facet normal 0 0 -1
    outer loop
      vertex 0.0941849 -14.503 -2.5
      vertex -1.58775 -13.2499 -2.5
      vertex 1.58775 -13.2499 -2.5
    endloop
  endfacet
  facet normal 0 0 -1
    outer loop
      vertex -0.956136 -14.8442 -2.5
      vertex -1.58775 -13.2499 -2.5
      vertex -0.638668 -14.6428 -2.5
    endloop
  endfacet
  facet normal 0 0 -1
    outer loop
      vertex -1.21352 -15.1183 -2.5
      vertex -1.58775 -13.2499 -2.5
      vertex -0.956136 -14.8442 -2.5
    endloop
  endfacet
  facet normal 0 0 -1
    outer loop
      vertex -3.1755 -16 -2.5
      vertex -1.21352 -15.1183 -2.5
      vertex -1.39466 -15.4478 -2.5
    endloop
  endfacet
  facet normal 0 0 -1
    outer loop
      vertex -3.1755 -16 -2.5
      vertex -1.39466 -15.4478 -2.5
      vertex -1.48817 -15.812 -2.5
    endloop
  endfacet
  facet normal 0 0 -1
    outer loop
      vertex -1.48817 -16.188 -2.5
      vertex -3.1755 -16 -2.5
      vertex -1.48817 -15.812 -2.5
    endloop
  endfacet
  facet normal -0 0 -1
    outer loop
      vertex -1.21352 -15.1183 -2.5
      vertex -3.1755 -16 -2.5
      vertex -1.58775 -13.2499 -2.5
    endloop
  endfacet
  facet normal 0.866028 0.499995 0
    outer loop
      vertex -1.58775 -18.7501 -2.5
      vertex -3.1755 -16 -5
      vertex -3.1755 -16 -2.5
    endloop
  endfacet
  facet normal 0.866028 0.499995 0
    outer loop
      vertex -3.1755 -16 -5
      vertex -1.58775 -18.7501 -2.5
      vertex -1.58775 -18.7501 -5
    endloop
  endfacet
  facet normal 0 1 -0
    outer loop
      vertex 1.58775 -18.7501 -5
      vertex -1.58775 -18.7501 -2.5
      vertex 1.58775 -18.7501 -2.5
    endloop
  endfacet
  facet normal 0 1 0
    outer loop
      vertex -1.58775 -18.7501 -2.5
      vertex 1.58775 -18.7501 -5
      vertex -1.58775 -18.7501 -5
    endloop
  endfacet
endsolid OpenSCAD_Model
