  0
SECTION
  2
HEADER
  9
$ACADVER
  1
AC1021
  9
$ACADMAINTVER
 70
    25
  9
$DWGCODEPAGE
  3
ANSI_1252
  9
$INSBASE
 10
0.0
 20
0.0
 30
0.0
  9
$EXTMIN
 10
-16.17822
 20
-20.52822
 30
0.0
  9
$EXTMAX
 10
-4.82178
 20
-9.17178
 30
0.0
  9
$LIMMIN
 10
0.0
 20
0.0
  9
$LIMMAX
 10
12.0
 20
9.0
  9
$ORTHOMODE
 70
     0
  9
$REGENMODE
 70
     1
  9
$FILLMODE
 70
     1
  9
$QTEXTMODE
 70
     0
  9
$MIRRTEXT
 70
     1
  9
$LTSCALE
 40
1.0
  9
$ATTMODE
 70
     1
  9
$TEXTSIZE
 40
0.2
  9
$TRACEWID
 40
0.05
  9
$TEXTSTYLE
  7
Standard
  9
$CLAYER
  8
0
  9
$CELTYPE
  6
ByLayer
  9
$CECOLOR
 62
   256
  9
$CELTSCALE
 40
1.0
  9
$DISPSILH
 70
     0
  9
$DIMSCALE
 40
1.0
  9
$DIMASZ
 40
0.18
  9
$DIMEXO
 40
0.0625
  9
$DIMDLI
 40
0.38
  9
$DIMRND
 40
0.0
  9
$DIMDLE
 40
0.0
  9
$DIMEXE
 40
0.18
  9
$DIMTP
 40
0.0
  9
$DIMTM
 40
0.0
  9
$DIMTXT
 40
0.18
  9
$DIMCEN
 40
0.09
  9
$DIMTSZ
 40
0.0
  9
$DIMTOL
 70
     0
  9
$DIMLIM
 70
     0
  9
$DIMTIH
 70
     1
  9
$DIMTOH
 70
     1
  9
$DIMSE1
 70
     0
  9
$DIMSE2
 70
     0
  9
$DIMTAD
 70
     0
  9
$DIMZIN
 70
     0
  9
$DIMBLK
  1

  9
$DIMASO
 70
     1
  9
$DIMSHO
 70
     1
  9
$DIMPOST
  1

  9
$DIMAPOST
  1

  9
$DIMALT
 70
     0
  9
$DIMALTD
 70
     2
  9
$DIMALTF
 40
25.4
  9
$DIMLFAC
 40
1.0
  9
$DIMTOFL
 70
     0
  9
$DIMTVP
 40
0.0
  9
$DIMTIX
 70
     0
  9
$DIMSOXD
 70
     0
  9
$DIMSAH
 70
     0
  9
$DIMBLK1
  1

  9
$DIMBLK2
  1

  9
$DIMSTYLE
  2
Standard
  9
$DIMCLRD
 70
     0
  9
$DIMCLRE
 70
     0
  9
$DIMCLRT
 70
     0
  9
$DIMTFAC
 40
1.0
  9
$DIMGAP
 40
0.09
  9
$DIMJUST
 70
     0
  9
$DIMSD1
 70
     0
  9
$DIMSD2
 70
     0
  9
$DIMTOLJ
 70
     1
  9
$DIMTZIN
 70
     0
  9
$DIMALTZ
 70
     0
  9
$DIMALTTZ
 70
     0
  9
$DIMUPT
 70
     0
  9
$DIMDEC
 70
     4
  9
$DIMTDEC
 70
     4
  9
$DIMALTU
 70
     2
  9
$DIMALTTD
 70
     2
  9
$DIMTXSTY
  7
Standard
  9
$DIMAUNIT
 70
     0
  9
$DIMADEC
 70
     0
  9
$DIMALTRND
 40
0.0
  9
$DIMAZIN
 70
     0
  9
$DIMDSEP
 70
    46
  9
$DIMATFIT
 70
     3
  9
$DIMFRAC
 70
     0
  9
$DIMLDRBLK
  1

  9
$DIMLUNIT
 70
     2
  9
$DIMLWD
 70
    -2
  9
$DIMLWE
 70
    -2
  9
$DIMTMOVE
 70
     0
  9
$DIMFXL
 40
1.0
  9
$DIMFXLON
 70
     0
  9
$DIMJOGANG
 40
0.7853981633974483
  9
$DIMTFILL
 70
     0
  9
$DIMTFILLCLR
 70
     0
  9
$DIMARCSYM
 70
     0
  9
$DIMLTYPE
  6

  9
$DIMLTEX1
  6

  9
$DIMLTEX2
  6

  9
$LUNITS
 70
     2
  9
$LUPREC
 70
     4
  9
$SKETCHINC
 40
0.1
  9
$FILLETRAD
 40
0.5
  9
$AUNITS
 70
     0
  9
$AUPREC
 70
     0
  9
$MENU
  1
.
  9
$ELEVATION
 40
0.0
  9
$PELEVATION
 40
0.0
  9
$THICKNESS
 40
0.0
  9
$LIMCHECK
 70
     0
  9
$CHAMFERA
 40
0.5
  9
$CHAMFERB
 40
0.5
  9
$CHAMFERC
 40
1.0
  9
$CHAMFERD
 40
0.0
  9
$SKPOLY
 70
     0
  9
$TDCREATE
 40
2456974.331837604
  9
$TDUCREATE
 40
2456974.331837604
  9
$TDUPDATE
 40
2456974.331837616
  9
$TDUUPDATE
 40
2456974.331837616
  9
$TDINDWG
 40
0.0000000116
  9
$TDUSRTIMER
 40
0.0000000116
  9
$USRTIMER
 70
     1
  9
$ANGBASE
 50
0.0
  9
$ANGDIR
 70
     0
  9
$PDMODE
 70
     0
  9
$PDSIZE
 40
0.0
  9
$PLINEWID
 40
0.0
  9
$SPLFRAME
 70
     0
  9
$SPLINETYPE
 70
     6
  9
$SPLINESEGS
 70
     8
  9
$HANDSEED
  5
7B
  9
$SURFTAB1
 70
     6
  9
$SURFTAB2
 70
     6
  9
$SURFTYPE
 70
     6
  9
$SURFU
 70
     6
  9
$SURFV
 70
     6
  9
$UCSBASE
  2

  9
$UCSNAME
  2

  9
$UCSORG
 10
0.0
 20
0.0
 30
0.0
  9
$UCSXDIR
 10
1.0
 20
0.0
 30
0.0
  9
$UCSYDIR
 10
0.0
 20
1.0
 30
0.0
  9
$UCSORTHOREF
  2

  9
$UCSORTHOVIEW
 70
     0
  9
$UCSORGTOP
 10
0.0
 20
0.0
 30
0.0
  9
$UCSORGBOTTOM
 10
0.0
 20
0.0
 30
0.0
  9
$UCSORGLEFT
 10
0.0
 20
0.0
 30
0.0
  9
$UCSORGRIGHT
 10
0.0
 20
0.0
 30
0.0
  9
$UCSORGFRONT
 10
0.0
 20
0.0
 30
0.0
  9
$UCSORGBACK
 10
0.0
 20
0.0
 30
0.0
  9
$PUCSBASE
  2

  9
$PUCSNAME
  2

  9
$PUCSORG
 10
0.0
 20
0.0
 30
0.0
  9
$PUCSXDIR
 10
1.0
 20
0.0
 30
0.0
  9
$PUCSYDIR
 10
0.0
 20
1.0
 30
0.0
  9
$PUCSORTHOREF
  2

  9
$PUCSORTHOVIEW
 70
     0
  9
$PUCSORGTOP
 10
0.0
 20
0.0
 30
0.0
  9
$PUCSORGBOTTOM
 10
0.0
 20
0.0
 30
0.0
  9
$PUCSORGLEFT
 10
0.0
 20
0.0
 30
0.0
  9
$PUCSORGRIGHT
 10
0.0
 20
0.0
 30
0.0
  9
$PUCSORGFRONT
 10
0.0
 20
0.0
 30
0.0
  9
$PUCSORGBACK
 10
0.0
 20
0.0
 30
0.0
  9
$USERI1
 70
     0
  9
$USERI2
 70
     0
  9
$USERI3
 70
     0
  9
$USERI4
 70
     0
  9
$USERI5
 70
     0
  9
$USERR1
 40
0.0
  9
$USERR2
 40
0.0
  9
$USERR3
 40
0.0
  9
$USERR4
 40
0.0
  9
$USERR5
 40
0.0
  9
$WORLDVIEW
 70
     1
  9
$SHADEDGE
 70
     3
  9
$SHADEDIF
 70
    70
  9
$TILEMODE
 70
     1
  9
$MAXACTVP
 70
    64
  9
$PINSBASE
 10
0.0
 20
0.0
 30
0.0
  9
$PLIMCHECK
 70
     0
  9
$PEXTMIN
 10
1.000000000000000E+20
 20
1.000000000000000E+20
 30
1.000000000000000E+20
  9
$PEXTMAX
 10
-1.000000000000000E+20
 20
-1.000000000000000E+20
 30
-1.000000000000000E+20
  9
$PLIMMIN
 10
0.0
 20
0.0
  9
$PLIMMAX
 10
12.0
 20
9.0
  9
$UNITMODE
 70
     0
  9
$VISRETAIN
 70
     1
  9
$PLINEGEN
 70
     0
  9
$PSLTSCALE
 70
     1
  9
$TREEDEPTH
 70
  3020
  9
$CMLSTYLE
  2
Standard
  9
$CMLJUST
 70
     0
  9
$CMLSCALE
 40
1.0
  9
$PROXYGRAPHICS
 70
     1
  9
$MEASUREMENT
 70
     0
  9
$CELWEIGHT
370
    -1
  9
$ENDCAPS
280
     0
  9
$JOINSTYLE
280
     0
  9
$LWDISPLAY
290
     0
  9
$INSUNITS
 70
     5
  9
$HYPERLINKBASE
  1

  9
$STYLESHEET
  1

  9
$XEDIT
290
     1
  9
$CEPSNTYPE
380
     0
  9
$PSTYLEMODE
290
     1
  9
$FINGERPRINTGUID
  2
{E0A03168-5508-41BB-8566-357F1E403F50}
  9
$VERSIONGUID
  2
{FAEB1C32-E019-11D5-929B-00C0DF256EC4}
  9
$EXTNAMES
290
     1
  9
$PSVPSCALE
 40
0.0
  9
$OLESTARTUP
290
     0
  9
$SORTENTS
280
   127
  9
$INDEXCTL
280
     0
  9
$HIDETEXT
280
     1
  9
$XCLIPFRAME
290
     0
  9
$HALOGAP
280
     0
  9
$OBSCOLOR
 70
   257
  9
$OBSLTYPE
280
     0
  9
$INTERSECTIONDISPLAY
280
     0
  9
$INTERSECTIONCOLOR
 70
   257
  9
$DIMASSOC
280
     2
  9
$PROJECTNAME
  1

  9
$CAMERADISPLAY
290
     0
  9
$LENSLENGTH
 40
50.0
  9
$CAMERAHEIGHT
 40
0.0
  9
$STEPSPERSEC
 40
2.0
  9
$STEPSIZE
 40
6.0
  9
$3DDWFPREC
 40
2.0
  9
$PSOLWIDTH
 40
0.25
  9
$PSOLHEIGHT
 40
4.0
  9
$LOFTANG1
 40
1.570796326794897
  9
$LOFTANG2
 40
1.570796326794897
  9
$LOFTMAG1
 40
0.0
  9
$LOFTMAG2
 40
0.0
  9
$LOFTPARAM
 70
     7
  9
$LOFTNORMALS
280
     1
  9
$LATITUDE
 40
37.795
  9
$LONGITUDE
 40
-122.394
  9
$NORTHDIRECTION
 40
0.0
  9
$TIMEZONE
 70
 -8000
  9
$LIGHTGLYPHDISPLAY
280
     1
  9
$TILEMODELIGHTSYNCH
280
     1
  9
$SOLIDHIST
280
     1
  9
$SHOWHIST
280
     1
  9
$DWFFRAME
280
     2
  9
$DGNFRAME
280
     2
  9
$REALWORLDSCALE
290
     1
  9
$INTERFERECOLOR
 62
   256
  9
$CSHADOW
280
     0
  9
$SHADOWPLANELOCATION
 40
0.0
  0
ENDSEC
  0
SECTION
  2
CLASSES
  0
CLASS
  1
ACDBDICTIONARYWDFLT
  2
AcDbDictionaryWithDefault
  3
ObjectDBX Classes
 90
        0
 91
        3
280
     0
281
     0
  0
CLASS
  1
VISUALSTYLE
  2
AcDbVisualStyle
  3
ObjectDBX Classes
 90
     4095
 91
        3
280
     0
281
     0
  0
CLASS
  1
SCALE
  2
AcDbScale
  3
ObjectDBX Classes
 90
     1153
 91
        3
280
     0
281
     0
  0
ENDSEC
  0
SECTION
  2
TABLES
  0
TABLE
  2
VPORT
  5
8
330
0
100
AcDbSymbolTable
 70
     1
  0
VPORT
  5
29
330
8
100
AcDbSymbolTableRecord
100
AcDbViewportTableRecord
  2
*Active
 70
     0
 10
0.0
 20
0.0
 11
1.0
 21
1.0
 12
10.42990654205607
 22
4.5
 13
0.0
 23
0.0
 14
0.5
 24
0.5
 15
0.5
 25
0.5
 16
0.0
 26
0.0
 36
1.0
 17
0.0
 27
0.0
 37
0.0
 40
9.0
 41
1.972972972850329
 42
50.0
 43
0.0
 44
0.0
 50
0.0
 51
0.0
 71
     0
 72
   100
 73
     1
 74
     3
 75
     0
 76
     0
 77
     0
 78
     0
281
     0
 65
     1
110
0.0
120
0.0
130
0.0
111
1.0
121
0.0
131
0.0
112
0.0
122
1.0
132
0.0
 79
     0
146
0.0
 60
     3
 61
     5
292
     1
282
     1
141
0.0
142
0.0
 63
   256
  0
ENDTAB
  0
TABLE
  2
LTYPE
  5
5
330
0
100
AcDbSymbolTable
 70
     1
  0
LTYPE
  5
14
330
5
100
AcDbSymbolTableRecord
100
AcDbLinetypeTableRecord
  2
ByBlock
 70
     0
  3

 72
    65
 73
     0
 40
0.0
  0
LTYPE
  5
15
330
5
100
AcDbSymbolTableRecord
100
AcDbLinetypeTableRecord
  2
ByLayer
 70
     0
  3

 72
    65
 73
     0
 40
0.0
  0
LTYPE
  5
16
330
5
100
AcDbSymbolTableRecord
100
AcDbLinetypeTableRecord
  2
Continuous
 70
     0
  3
Solid line
 72
    65
 73
     0
 40
0.0
  0
ENDTAB
  0
TABLE
  2
LAYER
  5
2
330
0
100
AcDbSymbolTable
 70
     2
  0
LAYER
  5
10
330
2
100
AcDbSymbolTableRecord
100
AcDbLayerTableRecord
  2
0
 70
     0
 62
     7
  6
Continuous
370
    -3
390
F
347
0
  0
LAYER
  5
5E
330
2
100
AcDbSymbolTableRecord
100
AcDbLayerTableRecord
  2
Layer 1
 70
     0
 62
     7
  6
Continuous
370
    -3
390
F
347
0
  0
ENDTAB
  0
TABLE
  2
STYLE
  5
3
330
0
100
AcDbSymbolTable
 70
     1
  0
STYLE
  5
11
330
3
100
AcDbSymbolTableRecord
100
AcDbTextStyleTableRecord
  2
Standard
 70
     0
 40
0.0
 41
1.0
 50
0.0
 71
     0
 42
0.2
  3
txt
  4

  0
ENDTAB
  0
TABLE
  2
VIEW
  5
6
330
0
100
AcDbSymbolTable
 70
     0
  0
ENDTAB
  0
TABLE
  2
UCS
  5
7
330
0
100
AcDbSymbolTable
 70
     0
  0
ENDTAB
  0
TABLE
  2
APPID
  5
9
330
0
100
AcDbSymbolTable
 70
     2
  0
APPID
  5
12
330
9
100
AcDbSymbolTableRecord
100
AcDbRegAppTableRecord
  2
ACAD
 70
     0
  0
APPID
  5
5D
330
9
100
AcDbSymbolTableRecord
100
AcDbRegAppTableRecord
  2
ODA
 70
     0
  0
ENDTAB
  0
TABLE
  2
DIMSTYLE
  5
A
330
0
100
AcDbSymbolTable
 70
     1
100
AcDbDimStyleTable
  0
DIMSTYLE
105
27
330
A
100
AcDbSymbolTableRecord
100
AcDbDimStyleTableRecord
  2
Standard
 70
     0
340
11
  0
ENDTAB
  0
TABLE
  2
BLOCK_RECORD
  5
1
330
0
100
AcDbSymbolTable
 70
     1
  0
BLOCK_RECORD
  5
1F
330
1
100
AcDbSymbolTableRecord
100
AcDbBlockTableRecord
  2
*Model_Space
340
22
 70
     0
280
     1
281
     0
  0
BLOCK_RECORD
  5
1B
330
1
100
AcDbSymbolTableRecord
100
AcDbBlockTableRecord
  2
*Paper_Space
340
1E
 70
     0
280
     1
281
     0
  0
BLOCK_RECORD
  5
23
330
1
100
AcDbSymbolTableRecord
100
AcDbBlockTableRecord
  2
*Paper_Space0
340
26
 70
     0
280
     1
281
     0
  0
ENDTAB
  0
ENDSEC
  0
SECTION
  2
BLOCKS
  0
BLOCK
  5
20
330
1F
100
AcDbEntity
  8
0
100
AcDbBlockBegin
  2
*Model_Space
 70
     0
 10
0.0
 20
0.0
 30
0.0
  3
*Model_Space
  1

  0
ENDBLK
  5
21
330
1F
100
AcDbEntity
  8
0
100
AcDbBlockEnd
  0
BLOCK
  5
1C
330
1B
100
AcDbEntity
 67
     1
  8
0
100
AcDbBlockBegin
  2
*Paper_Space
 70
     0
 10
0.0
 20
0.0
 30
0.0
  3
*Paper_Space
  1

  0
ENDBLK
  5
1D
330
1B
100
AcDbEntity
 67
     1
  8
0
100
AcDbBlockEnd
  0
BLOCK
  5
24
330
23
100
AcDbEntity
  8
0
100
AcDbBlockBegin
  2
*Paper_Space0
 70
     0
 10
0.0
 20
0.0
 30
0.0
  3
*Paper_Space0
  1

  0
ENDBLK
  5
25
330
23
100
AcDbEntity
  8
0
100
AcDbBlockEnd
  0
ENDSEC
  0
SECTION
  2
ENTITIES
  0
SPLINE
  5
5F
330
1F
100
AcDbEntity
  8
Layer 1
 62
   250
370
    53
100
AcDbSpline
210
0.0
220
0.0
230
1.0
 70
    11
 71
     3
 72
   388
 73
   384
 74
     0
 42
0.0000000001
 43
0.0000000001
 40
0.0
 40
0.0
 40
0.0
 40
0.0
 40
0.0104166666666667
 40
0.0104166666666667
 40
0.0104166666666667
 40
0.0104166666666667
 40
0.0208333333333333
 40
0.0208333333333333
 40
0.0208333333333333
 40
0.0208333333333333
 40
0.03125
 40
0.03125
 40
0.03125
 40
0.03125
 40
0.0416666666666667
 40
0.0416666666666667
 40
0.0416666666666667
 40
0.0416666666666667
 40
0.0520833333333333
 40
0.0520833333333333
 40
0.0520833333333333
 40
0.0520833333333333
 40
0.0625
 40
0.0625
 40
0.0625
 40
0.0625
 40
0.0729166666666667
 40
0.0729166666666667
 40
0.0729166666666667
 40
0.0729166666666667
 40
0.0833333333333333
 40
0.0833333333333333
 40
0.0833333333333333
 40
0.0833333333333333
 40
0.09375
 40
0.09375
 40
0.09375
 40
0.09375
 40
0.1041666666666667
 40
0.1041666666666667
 40
0.1041666666666667
 40
0.1041666666666667
 40
0.1145833333333333
 40
0.1145833333333333
 40
0.1145833333333333
 40
0.1145833333333333
 40
0.125
 40
0.125
 40
0.125
 40
0.125
 40
0.1354166666666667
 40
0.1354166666666667
 40
0.1354166666666667
 40
0.1354166666666667
 40
0.1458333333333333
 40
0.1458333333333333
 40
0.1458333333333333
 40
0.1458333333333333
 40
0.15625
 40
0.15625
 40
0.15625
 40
0.15625
 40
0.1666666666666666
 40
0.1666666666666666
 40
0.1666666666666666
 40
0.1666666666666666
 40
0.1770833333333333
 40
0.1770833333333333
 40
0.1770833333333333
 40
0.1770833333333333
 40
0.1874999999999999
 40
0.1874999999999999
 40
0.1874999999999999
 40
0.1874999999999999
 40
0.1979166666666666
 40
0.1979166666666666
 40
0.1979166666666666
 40
0.1979166666666666
 40
0.2083333333333333
 40
0.2083333333333333
 40
0.2083333333333333
 40
0.2083333333333333
 40
0.2187499999999999
 40
0.2187499999999999
 40
0.2187499999999999
 40
0.2187499999999999
 40
0.2291666666666666
 40
0.2291666666666666
 40
0.2291666666666666
 40
0.2291666666666666
 40
0.2395833333333332
 40
0.2395833333333332
 40
0.2395833333333332
 40
0.2395833333333332
 40
0.2499999999999999
 40
0.2499999999999999
 40
0.2499999999999999
 40
0.2499999999999999
 40
0.2604166666666666
 40
0.2604166666666666
 40
0.2604166666666666
 40
0.2604166666666666
 40
0.2708333333333333
 40
0.2708333333333333
 40
0.2708333333333333
 40
0.2708333333333333
 40
0.2812499999999999
 40
0.2812499999999999
 40
0.2812499999999999
 40
0.2812499999999999
 40
0.2916666666666666
 40
0.2916666666666666
 40
0.2916666666666666
 40
0.2916666666666666
 40
0.3020833333333333
 40
0.3020833333333333
 40
0.3020833333333333
 40
0.3020833333333333
 40
0.3125
 40
0.3125
 40
0.3125
 40
0.3125
 40
0.3229166666666667
 40
0.3229166666666667
 40
0.3229166666666667
 40
0.3229166666666667
 40
0.3333333333333334
 40
0.3333333333333334
 40
0.3333333333333334
 40
0.3333333333333334
 40
0.3437500000000001
 40
0.3437500000000001
 40
0.3437500000000001
 40
0.3437500000000001
 40
0.3541666666666667
 40
0.3541666666666667
 40
0.3541666666666667
 40
0.3541666666666667
 40
0.3645833333333334
 40
0.3645833333333334
 40
0.3645833333333334
 40
0.3645833333333334
 40
0.3750000000000001
 40
0.3750000000000001
 40
0.3750000000000001
 40
0.3750000000000001
 40
0.3854166666666668
 40
0.3854166666666668
 40
0.3854166666666668
 40
0.3854166666666668
 40
0.3958333333333335
 40
0.3958333333333335
 40
0.3958333333333335
 40
0.3958333333333335
 40
0.4062500000000002
 40
0.4062500000000002
 40
0.4062500000000002
 40
0.4062500000000002
 40
0.4166666666666669
 40
0.4166666666666669
 40
0.4166666666666669
 40
0.4166666666666669
 40
0.4270833333333335
 40
0.4270833333333335
 40
0.4270833333333335
 40
0.4270833333333335
 40
0.4375000000000002
 40
0.4375000000000002
 40
0.4375000000000002
 40
0.4375000000000002
 40
0.4479166666666669
 40
0.4479166666666669
 40
0.4479166666666669
 40
0.4479166666666669
 40
0.4583333333333336
 40
0.4583333333333336
 40
0.4583333333333336
 40
0.4583333333333336
 40
0.4687500000000003
 40
0.4687500000000003
 40
0.4687500000000003
 40
0.4687500000000003
 40
0.479166666666667
 40
0.479166666666667
 40
0.479166666666667
 40
0.479166666666667
 40
0.4895833333333336
 40
0.4895833333333336
 40
0.4895833333333336
 40
0.4895833333333336
 40
0.5000000000000003
 40
0.5000000000000003
 40
0.5000000000000003
 40
0.5000000000000003
 40
0.510416666666667
 40
0.510416666666667
 40
0.510416666666667
 40
0.510416666666667
 40
0.5208333333333336
 40
0.5208333333333336
 40
0.5208333333333336
 40
0.5208333333333336
 40
0.5312500000000002
 40
0.5312500000000002
 40
0.5312500000000002
 40
0.5312500000000002
 40
0.5416666666666669
 40
0.5416666666666669
 40
0.5416666666666669
 40
0.5416666666666669
 40
0.5520833333333335
 40
0.5520833333333335
 40
0.5520833333333335
 40
0.5520833333333335
 40
0.5625000000000001
 40
0.5625000000000001
 40
0.5625000000000001
 40
0.5625000000000001
 40
0.5729166666666667
 40
0.5729166666666667
 40
0.5729166666666667
 40
0.5729166666666667
 40
0.5833333333333334
 40
0.5833333333333334
 40
0.5833333333333334
 40
0.5833333333333334
 40
0.59375
 40
0.59375
 40
0.59375
 40
0.59375
 40
0.6041666666666666
 40
0.6041666666666666
 40
0.6041666666666666
 40
0.6041666666666666
 40
0.6145833333333333
 40
0.6145833333333333
 40
0.6145833333333333
 40
0.6145833333333333
 40
0.6249999999999999
 40
0.6249999999999999
 40
0.6249999999999999
 40
0.6249999999999999
 40
0.6354166666666665
 40
0.6354166666666665
 40
0.6354166666666665
 40
0.6354166666666665
 40
0.6458333333333331
 40
0.6458333333333331
 40
0.6458333333333331
 40
0.6458333333333331
 40
0.6562499999999998
 40
0.6562499999999998
 40
0.6562499999999998
 40
0.6562499999999998
 40
0.6666666666666664
 40
0.6666666666666664
 40
0.6666666666666664
 40
0.6666666666666664
 40
0.677083333333333
 40
0.677083333333333
 40
0.677083333333333
 40
0.677083333333333
 40
0.6874999999999997
 40
0.6874999999999997
 40
0.6874999999999997
 40
0.6874999999999997
 40
0.6979166666666663
 40
0.6979166666666663
 40
0.6979166666666663
 40
0.6979166666666663
 40
0.7083333333333329
 40
0.7083333333333329
 40
0.7083333333333329
 40
0.7083333333333329
 40
0.7187499999999996
 40
0.7187499999999996
 40
0.7187499999999996
 40
0.7187499999999996
 40
0.7291666666666662
 40
0.7291666666666662
 40
0.7291666666666662
 40
0.7291666666666662
 40
0.7395833333333328
 40
0.7395833333333328
 40
0.7395833333333328
 40
0.7395833333333328
 40
0.7499999999999994
 40
0.7499999999999994
 40
0.7499999999999994
 40
0.7499999999999994
 40
0.7604166666666661
 40
0.7604166666666661
 40
0.7604166666666661
 40
0.7604166666666661
 40
0.7708333333333327
 40
0.7708333333333327
 40
0.7708333333333327
 40
0.7708333333333327
 40
0.7812499999999993
 40
0.7812499999999993
 40
0.7812499999999993
 40
0.7812499999999993
 40
0.791666666666666
 40
0.791666666666666
 40
0.791666666666666
 40
0.791666666666666
 40
0.8020833333333326
 40
0.8020833333333326
 40
0.8020833333333326
 40
0.8020833333333326
 40
0.8124999999999992
 40
0.8124999999999992
 40
0.8124999999999992
 40
0.8124999999999992
 40
0.8229166666666659
 40
0.8229166666666659
 40
0.8229166666666659
 40
0.8229166666666659
 40
0.8333333333333325
 40
0.8333333333333325
 40
0.8333333333333325
 40
0.8333333333333325
 40
0.8437499999999991
 40
0.8437499999999991
 40
0.8437499999999991
 40
0.8437499999999991
 40
0.8541666666666657
 40
0.8541666666666657
 40
0.8541666666666657
 40
0.8541666666666657
 40
0.8645833333333324
 40
0.8645833333333324
 40
0.8645833333333324
 40
0.8645833333333324
 40
0.874999999999999
 40
0.874999999999999
 40
0.874999999999999
 40
0.874999999999999
 40
0.8854166666666656
 40
0.8854166666666656
 40
0.8854166666666656
 40
0.8854166666666656
 40
0.8958333333333323
 40
0.8958333333333323
 40
0.8958333333333323
 40
0.8958333333333323
 40
0.9062499999999989
 40
0.9062499999999989
 40
0.9062499999999989
 40
0.9062499999999989
 40
0.9166666666666655
 40
0.9166666666666655
 40
0.9166666666666655
 40
0.9166666666666655
 40
0.9270833333333321
 40
0.9270833333333321
 40
0.9270833333333321
 40
0.9270833333333321
 40
0.9374999999999988
 40
0.9374999999999988
 40
0.9374999999999988
 40
0.9374999999999988
 40
0.9479166666666654
 40
0.9479166666666654
 40
0.9479166666666654
 40
0.9479166666666654
 40
0.958333333333332
 40
0.958333333333332
 40
0.958333333333332
 40
0.958333333333332
 40
0.9687499999999987
 40
0.9687499999999987
 40
0.9687499999999987
 40
0.9687499999999987
 40
0.9791666666666653
 40
0.9791666666666653
 40
0.9791666666666653
 40
0.9791666666666653
 40
0.9895833333333319
 40
0.9895833333333319
 40
0.9895833333333319
 40
0.9895833333333319
 40
1.0
 40
1.0
 40
1.0
 40
1.0
 10
-6.09996
 20
-11.84998
 30
0.0
 10
-6.09996
 20
-11.51866
 30
0.0
 10
-5.83128
 20
-11.24998
 30
0.0
 10
-5.49996
 20
-11.24998
 30
0.0
 10
-5.49996
 20
-11.24998
 30
0.0
 10
-5.49996
 20
-11.24998
 30
0.0
 10
-4.86002
 20
-11.24998
 30
0.0
 10
-4.86002
 20
-11.24998
 30
0.0
 10
-4.86002
 20
-11.24998
 30
0.0
 10
-4.90637
 20
-11.02181
 30
0.0
 10
-5.10816
 20
-10.85
 30
0.0
 10
-5.35
 20
-10.85
 30
0.0
 10
-5.35
 20
-10.85
 30
0.0
 10
-5.35
 20
-10.85
 30
0.0
 10
-6.0
 20
-10.85
 30
0.0
 10
-6.0
 20
-10.85
 30
0.0
 10
-6.0
 20
-10.85
 30
0.0
 10
-6.27609
 20
-10.85
 30
0.0
 10
-6.5
 20
-10.62609
 30
0.0
 10
-6.5
 20
-10.35
 30
0.0
 10
-6.5
 20
-10.35
 30
0.0
 10
-6.5
 20
-10.35
 30
0.0
 10
-6.5
 20
-9.7
 30
0.0
 10
-6.5
 20
-9.7
 30
0.0
 10
-6.5
 20
-9.7
 30
0.0
 10
-6.5
 20
-9.45817
 30
0.0
 10
-6.6718
 20
-9.25638
 30
0.0
 10
-6.89997
 20
-9.21002
 30
0.0
 10
-6.89997
 20
-9.21002
 30
0.0
 10
-6.89997
 20
-9.21002
 30
0.0
 10
-6.89996
 20
-9.84998
 30
0.0
 10
-6.89996
 20
-9.84998
 30
0.0
 10
-6.89996
 20
-9.84998
 30
0.0
 10
-6.89996
 20
-10.1813
 30
0.0
 10
-7.16864
 20
-10.44998
 30
0.0
 10
-7.49996
 20
-10.44998
 30
0.0
 10
-7.49996
 20
-10.44998
 30
0.0
 10
-7.83128
 20
-10.44998
 30
0.0
 10
-8.09996
 20
-10.1813
 30
0.0
 10
-8.09996
 20
-9.84998
 30
0.0
 10
-8.09996
 20
-9.84998
 30
0.0
 10
-8.09996
 20
-9.84998
 30
0.0
 10
-8.09996
 20
-9.2
 30
0.0
 10
-8.09996
 20
-9.2
 30
0.0
 10
-8.09996
 20
-9.2
 30
0.0
 10
-8.09996
 20
-9.2
 30
0.0
 10
-8.89997
 20
-9.2
 30
0.0
 10
-8.89997
 20
-9.2
 30
0.0
 10
-8.89997
 20
-9.2
 30
0.0
 10
-8.89997
 20
-9.2
 30
0.0
 10
-8.89996
 20
-9.84998
 30
0.0
 10
-8.89996
 20
-9.84998
 30
0.0
 10
-8.89996
 20
-9.84998
 30
0.0
 10
-8.89996
 20
-10.1813
 30
0.0
 10
-9.16864
 20
-10.44998
 30
0.0
 10
-9.49996
 20
-10.44998
 30
0.0
 10
-9.49996
 20
-10.44998
 30
0.0
 10
-9.83128
 20
-10.44998
 30
0.0
 10
-10.09996
 20
-10.1813
 30
0.0
 10
-10.09996
 20
-9.84998
 30
0.0
 10
-10.09996
 20
-9.84998
 30
0.0
 10
-10.09996
 20
-9.84998
 30
0.0
 10
-10.09996
 20
-9.2
 30
0.0
 10
-10.09996
 20
-9.2
 30
0.0
 10
-10.09996
 20
-9.2
 30
0.0
 10
-10.09996
 20
-9.2
 30
0.0
 10
-10.89997
 20
-9.2
 30
0.0
 10
-10.89997
 20
-9.2
 30
0.0
 10
-10.89997
 20
-9.2
 30
0.0
 10
-10.89997
 20
-9.2
 30
0.0
 10
-10.89996
 20
-9.84998
 30
0.0
 10
-10.89996
 20
-9.84998
 30
0.0
 10
-10.89996
 20
-9.84998
 30
0.0
 10
-10.89996
 20
-10.1813
 30
0.0
 10
-11.16864
 20
-10.44998
 30
0.0
 10
-11.49996
 20
-10.44998
 30
0.0
 10
-11.49996
 20
-10.44998
 30
0.0
 10
-11.83128
 20
-10.44998
 30
0.0
 10
-12.09996
 20
-10.1813
 30
0.0
 10
-12.09996
 20
-9.84998
 30
0.0
 10
-12.09996
 20
-9.84998
 30
0.0
 10
-12.09996
 20
-9.84998
 30
0.0
 10
-12.09996
 20
-9.2
 30
0.0
 10
-12.09996
 20
-9.2
 30
0.0
 10
-12.09996
 20
-9.2
 30
0.0
 10
-12.09996
 20
-9.2
 30
0.0
 10
-12.89997
 20
-9.2
 30
0.0
 10
-12.89997
 20
-9.2
 30
0.0
 10
-12.89997
 20
-9.2
 30
0.0
 10
-12.89997
 20
-9.2
 30
0.0
 10
-12.89996
 20
-9.84998
 30
0.0
 10
-12.89996
 20
-9.84998
 30
0.0
 10
-12.89996
 20
-9.84998
 30
0.0
 10
-12.89996
 20
-10.1813
 30
0.0
 10
-13.16864
 20
-10.44998
 30
0.0
 10
-13.49996
 20
-10.44998
 30
0.0
 10
-13.49996
 20
-10.44998
 30
0.0
 10
-13.83128
 20
-10.44998
 30
0.0
 10
-14.09996
 20
-10.1813
 30
0.0
 10
-14.09996
 20
-9.84998
 30
0.0
 10
-14.09996
 20
-9.84998
 30
0.0
 10
-14.09996
 20
-9.84998
 30
0.0
 10
-14.09996
 20
-9.20501
 30
0.0
 10
-14.09996
 20
-9.20501
 30
0.0
 10
-14.09996
 20
-9.20501
 30
0.0
 10
-14.32816
 20
-9.25634
 30
0.0
 10
-14.5
 20
-9.45814
 30
0.0
 10
-14.5
 20
-9.7
 30
0.0
 10
-14.5
 20
-9.7
 30
0.0
 10
-14.5
 20
-9.7
 30
0.0
 10
-14.5
 20
-10.35
 30
0.0
 10
-14.5
 20
-10.35
 30
0.0
 10
-14.5
 20
-10.35
 30
0.0
 10
-14.5
 20
-10.62609
 30
0.0
 10
-14.72391
 20
-10.85
 30
0.0
 10
-15.0
 20
-10.85
 30
0.0
 10
-15.0
 20
-10.85
 30
0.0
 10
-15.0
 20
-10.85
 30
0.0
 10
-15.65
 20
-10.85
 30
0.0
 10
-15.65
 20
-10.85
 30
0.0
 10
-15.65
 20
-10.85
 30
0.0
 10
-15.89184
 20
-10.85
 30
0.0
 10
-16.09363
 20
-11.02181
 30
0.0
 10
-16.13998
 20
-11.24998
 30
0.0
 10
-16.13998
 20
-11.24998
 30
0.0
 10
-16.13998
 20
-11.24998
 30
0.0
 10
-15.49996
 20
-11.24998
 30
0.0
 10
-15.49996
 20
-11.24998
 30
0.0
 10
-15.49996
 20
-11.24998
 30
0.0
 10
-15.16864
 20
-11.24998
 30
0.0
 10
-14.89996
 20
-11.51866
 30
0.0
 10
-14.89996
 20
-11.84998
 30
0.0
 10
-14.89996
 20
-11.84998
 30
0.0
 10
-14.89996
 20
-12.1813
 30
0.0
 10
-15.16864
 20
-12.44998
 30
0.0
 10
-15.49996
 20
-12.44997
 30
0.0
 10
-15.49996
 20
-12.44997
 30
0.0
 10
-15.49996
 20
-12.44997
 30
0.0
 10
-16.15
 20
-12.44998
 30
0.0
 10
-16.15
 20
-12.44998
 30
0.0
 10
-16.15
 20
-12.44998
 30
0.0
 10
-16.15
 20
-12.44998
 30
0.0
 10
-16.15
 20
-13.24998
 30
0.0
 10
-16.15
 20
-13.24998
 30
0.0
 10
-16.15
 20
-13.24998
 30
0.0
 10
-16.15
 20
-13.24998
 30
0.0
 10
-15.49996
 20
-13.24998
 30
0.0
 10
-15.49996
 20
-13.24998
 30
0.0
 10
-15.49996
 20
-13.24998
 30
0.0
 10
-15.16864
 20
-13.24998
 30
0.0
 10
-14.89996
 20
-13.51866
 30
0.0
 10
-14.89996
 20
-13.84998
 30
0.0
 10
-14.89996
 20
-13.84998
 30
0.0
 10
-14.89996
 20
-14.1813
 30
0.0
 10
-15.16864
 20
-14.44998
 30
0.0
 10
-15.49996
 20
-14.44997
 30
0.0
 10
-15.49996
 20
-14.44997
 30
0.0
 10
-15.49996
 20
-14.44997
 30
0.0
 10
-16.15
 20
-14.44998
 30
0.0
 10
-16.15
 20
-14.44998
 30
0.0
 10
-16.15
 20
-14.44998
 30
0.0
 10
-16.15
 20
-14.44998
 30
0.0
 10
-16.15
 20
-15.24998
 30
0.0
 10
-16.15
 20
-15.24998
 30
0.0
 10
-16.15
 20
-15.24998
 30
0.0
 10
-16.15
 20
-15.24998
 30
0.0
 10
-15.49996
 20
-15.24998
 30
0.0
 10
-15.49996
 20
-15.24998
 30
0.0
 10
-15.49996
 20
-15.24998
 30
0.0
 10
-15.16864
 20
-15.24998
 30
0.0
 10
-14.89996
 20
-15.51866
 30
0.0
 10
-14.89996
 20
-15.84998
 30
0.0
 10
-14.89996
 20
-15.84998
 30
0.0
 10
-14.89996
 20
-16.1813
 30
0.0
 10
-15.16864
 20
-16.44998
 30
0.0
 10
-15.49996
 20
-16.44997
 30
0.0
 10
-15.49996
 20
-16.44997
 30
0.0
 10
-15.49996
 20
-16.44997
 30
0.0
 10
-16.15
 20
-16.44998
 30
0.0
 10
-16.15
 20
-16.44998
 30
0.0
 10
-16.15
 20
-16.44998
 30
0.0
 10
-16.15
 20
-16.44998
 30
0.0
 10
-16.15
 20
-17.24998
 30
0.0
 10
-16.15
 20
-17.24998
 30
0.0
 10
-16.15
 20
-17.24998
 30
0.0
 10
-16.15
 20
-17.24998
 30
0.0
 10
-15.49996
 20
-17.24998
 30
0.0
 10
-15.49996
 20
-17.24998
 30
0.0
 10
-15.49996
 20
-17.24998
 30
0.0
 10
-15.16864
 20
-17.24998
 30
0.0
 10
-14.89996
 20
-17.51866
 30
0.0
 10
-14.89996
 20
-17.84998
 30
0.0
 10
-14.89996
 20
-17.84998
 30
0.0
 10
-14.89996
 20
-18.1813
 30
0.0
 10
-15.16864
 20
-18.44998
 30
0.0
 10
-15.49996
 20
-18.44997
 30
0.0
 10
-15.49996
 20
-18.44997
 30
0.0
 10
-15.49996
 20
-18.44997
 30
0.0
 10
-16.13999
 20
-18.44998
 30
0.0
 10
-16.13999
 20
-18.44998
 30
0.0
 10
-16.13999
 20
-18.44998
 30
0.0
 10
-16.09365
 20
-18.67818
 30
0.0
 10
-15.89185
 20
-18.85
 30
0.0
 10
-15.65
 20
-18.85
 30
0.0
 10
-15.65
 20
-18.85
 30
0.0
 10
-15.65
 20
-18.85
 30
0.0
 10
-15.0
 20
-18.85
 30
0.0
 10
-15.0
 20
-18.85
 30
0.0
 10
-15.0
 20
-18.85
 30
0.0
 10
-14.72391
 20
-18.85
 30
0.0
 10
-14.5
 20
-19.07391
 30
0.0
 10
-14.5
 20
-19.35
 30
0.0
 10
-14.5
 20
-19.35
 30
0.0
 10
-14.5
 20
-19.35
 30
0.0
 10
-14.5
 20
-20.0
 30
0.0
 10
-14.5
 20
-20.0
 30
0.0
 10
-14.5
 20
-20.0
 30
0.0
 10
-14.5
 20
-20.24186
 30
0.0
 10
-14.32816
 20
-20.44366
 30
0.0
 10
-14.09996
 20
-20.49499
 30
0.0
 10
-14.09996
 20
-20.49499
 30
0.0
 10
-14.09996
 20
-20.49499
 30
0.0
 10
-14.09996
 20
-19.84998
 30
0.0
 10
-14.09996
 20
-19.84998
 30
0.0
 10
-14.09996
 20
-19.84998
 30
0.0
 10
-14.09996
 20
-19.51866
 30
0.0
 10
-13.83128
 20
-19.24998
 30
0.0
 10
-13.49996
 20
-19.24998
 30
0.0
 10
-13.49996
 20
-19.24998
 30
0.0
 10
-13.16864
 20
-19.24998
 30
0.0
 10
-12.89996
 20
-19.51866
 30
0.0
 10
-12.89997
 20
-19.84998
 30
0.0
 10
-12.89997
 20
-19.84998
 30
0.0
 10
-12.89997
 20
-19.84998
 30
0.0
 10
-12.89996
 20
-20.5
 30
0.0
 10
-12.89996
 20
-20.5
 30
0.0
 10
-12.89996
 20
-20.5
 30
0.0
 10
-12.89996
 20
-20.5
 30
0.0
 10
-12.09996
 20
-20.5
 30
0.0
 10
-12.09996
 20
-20.5
 30
0.0
 10
-12.09996
 20
-20.5
 30
0.0
 10
-12.09996
 20
-20.5
 30
0.0
 10
-12.09996
 20
-19.84998
 30
0.0
 10
-12.09996
 20
-19.84998
 30
0.0
 10
-12.09996
 20
-19.84998
 30
0.0
 10
-12.09996
 20
-19.51866
 30
0.0
 10
-11.83128
 20
-19.24998
 30
0.0
 10
-11.49996
 20
-19.24998
 30
0.0
 10
-11.49996
 20
-19.24998
 30
0.0
 10
-11.16864
 20
-19.24998
 30
0.0
 10
-10.89996
 20
-19.51866
 30
0.0
 10
-10.89997
 20
-19.84998
 30
0.0
 10
-10.89997
 20
-19.84998
 30
0.0
 10
-10.89997
 20
-19.84998
 30
0.0
 10
-10.89996
 20
-20.5
 30
0.0
 10
-10.89996
 20
-20.5
 30
0.0
 10
-10.89996
 20
-20.5
 30
0.0
 10
-10.89996
 20
-20.5
 30
0.0
 10
-10.09996
 20
-20.5
 30
0.0
 10
-10.09996
 20
-20.5
 30
0.0
 10
-10.09996
 20
-20.5
 30
0.0
 10
-10.09996
 20
-20.5
 30
0.0
 10
-10.09996
 20
-19.84998
 30
0.0
 10
-10.09996
 20
-19.84998
 30
0.0
 10
-10.09996
 20
-19.84998
 30
0.0
 10
-10.09996
 20
-19.51866
 30
0.0
 10
-9.83128
 20
-19.24998
 30
0.0
 10
-9.49996
 20
-19.24998
 30
0.0
 10
-9.49996
 20
-19.24998
 30
0.0
 10
-9.16864
 20
-19.24998
 30
0.0
 10
-8.89996
 20
-19.51866
 30
0.0
 10
-8.89997
 20
-19.84998
 30
0.0
 10
-8.89997
 20
-19.84998
 30
0.0
 10
-8.89997
 20
-19.84998
 30
0.0
 10
-8.89996
 20
-20.5
 30
0.0
 10
-8.89996
 20
-20.5
 30
0.0
 10
-8.89996
 20
-20.5
 30
0.0
 10
-8.89996
 20
-20.5
 30
0.0
 10
-8.09996
 20
-20.5
 30
0.0
 10
-8.09996
 20
-20.5
 30
0.0
 10
-8.09996
 20
-20.5
 30
0.0
 10
-8.09996
 20
-20.5
 30
0.0
 10
-8.09996
 20
-19.84998
 30
0.0
 10
-8.09996
 20
-19.84998
 30
0.0
 10
-8.09996
 20
-19.84998
 30
0.0
 10
-8.09996
 20
-19.51866
 30
0.0
 10
-7.83128
 20
-19.24998
 30
0.0
 10
-7.49996
 20
-19.24998
 30
0.0
 10
-7.49996
 20
-19.24998
 30
0.0
 10
-7.16864
 20
-19.24998
 30
0.0
 10
-6.89996
 20
-19.51866
 30
0.0
 10
-6.89997
 20
-19.84998
 30
0.0
 10
-6.89997
 20
-19.84998
 30
0.0
 10
-6.89997
 20
-19.84998
 30
0.0
 10
-6.89996
 20
-20.48998
 30
0.0
 10
-6.89996
 20
-20.48998
 30
0.0
 10
-6.89996
 20
-20.48998
 30
0.0
 10
-6.67179
 20
-20.44363
 30
0.0
 10
-6.5
 20
-20.24183
 30
0.0
 10
-6.5
 20
-20.0
 30
0.0
 10
-6.5
 20
-20.0
 30
0.0
 10
-6.5
 20
-20.0
 30
0.0
 10
-6.5
 20
-19.35
 30
0.0
 10
-6.5
 20
-19.35
 30
0.0
 10
-6.5
 20
-19.35
 30
0.0
 10
-6.5
 20
-19.07391
 30
0.0
 10
-6.27609
 20
-18.85
 30
0.0
 10
-6.0
 20
-18.85
 30
0.0
 10
-6.0
 20
-18.85
 30
0.0
 10
-6.0
 20
-18.85
 30
0.0
 10
-5.35
 20
-18.85
 30
0.0
 10
-5.35
 20
-18.85
 30
0.0
 10
-5.35
 20
-18.85
 30
0.0
 10
-5.10815
 20
-18.85
 30
0.0
 10
-4.90635
 20
-18.67817
 30
0.0
 10
-4.86001
 20
-18.44997
 30
0.0
 10
-4.86001
 20
-18.44997
 30
0.0
 10
-4.86001
 20
-18.44997
 30
0.0
 10
-5.49996
 20
-18.44998
 30
0.0
 10
-5.49996
 20
-18.44998
 30
0.0
 10
-5.49996
 20
-18.44998
 30
0.0
 10
-5.83128
 20
-18.44998
 30
0.0
 10
-6.09996
 20
-18.1813
 30
0.0
 10
-6.09996
 20
-17.84998
 30
0.0
 10
-6.09996
 20
-17.84998
 30
0.0
 10
-6.09996
 20
-17.51866
 30
0.0
 10
-5.83128
 20
-17.24998
 30
0.0
 10
-5.49996
 20
-17.24998
 30
0.0
 10
-5.49996
 20
-17.24998
 30
0.0
 10
-5.49996
 20
-17.24998
 30
0.0
 10
-4.85
 20
-17.24998
 30
0.0
 10
-4.85
 20
-17.24998
 30
0.0
 10
-4.85
 20
-17.24998
 30
0.0
 10
-4.85
 20
-17.24998
 30
0.0
 10
-4.85
 20
-16.44997
 30
0.0
 10
-4.85
 20
-16.44997
 30
0.0
 10
-4.85
 20
-16.44997
 30
0.0
 10
-4.85
 20
-16.44997
 30
0.0
 10
-5.49996
 20
-16.44998
 30
0.0
 10
-5.49996
 20
-16.44998
 30
0.0
 10
-5.49996
 20
-16.44998
 30
0.0
 10
-5.83128
 20
-16.44998
 30
0.0
 10
-6.09996
 20
-16.1813
 30
0.0
 10
-6.09996
 20
-15.84998
 30
0.0
 10
-6.09996
 20
-15.84998
 30
0.0
 10
-6.09996
 20
-15.51866
 30
0.0
 10
-5.83128
 20
-15.24998
 30
0.0
 10
-5.49996
 20
-15.24998
 30
0.0
 10
-5.49996
 20
-15.24998
 30
0.0
 10
-5.49996
 20
-15.24998
 30
0.0
 10
-4.85
 20
-15.24998
 30
0.0
 10
-4.85
 20
-15.24998
 30
0.0
 10
-4.85
 20
-15.24998
 30
0.0
 10
-4.85
 20
-15.24998
 30
0.0
 10
-4.85
 20
-14.44997
 30
0.0
 10
-4.85
 20
-14.44997
 30
0.0
 10
-4.85
 20
-14.44997
 30
0.0
 10
-4.85
 20
-14.44997
 30
0.0
 10
-5.49996
 20
-14.44998
 30
0.0
 10
-5.49996
 20
-14.44998
 30
0.0
 10
-5.49996
 20
-14.44998
 30
0.0
 10
-5.83128
 20
-14.44998
 30
0.0
 10
-6.09996
 20
-14.1813
 30
0.0
 10
-6.09996
 20
-13.84998
 30
0.0
 10
-6.09996
 20
-13.84998
 30
0.0
 10
-6.09996
 20
-13.51866
 30
0.0
 10
-5.83128
 20
-13.24998
 30
0.0
 10
-5.49996
 20
-13.24998
 30
0.0
 10
-5.49996
 20
-13.24998
 30
0.0
 10
-5.49996
 20
-13.24998
 30
0.0
 10
-4.85
 20
-13.24998
 30
0.0
 10
-4.85
 20
-13.24998
 30
0.0
 10
-4.85
 20
-13.24998
 30
0.0
 10
-4.85
 20
-13.24998
 30
0.0
 10
-4.85
 20
-12.44997
 30
0.0
 10
-4.85
 20
-12.44997
 30
0.0
 10
-4.85
 20
-12.44997
 30
0.0
 10
-4.85
 20
-12.44997
 30
0.0
 10
-5.49996
 20
-12.44998
 30
0.0
 10
-5.49996
 20
-12.44998
 30
0.0
 10
-5.49996
 20
-12.44998
 30
0.0
 10
-5.83128
 20
-12.44998
 30
0.0
 10
-6.09996
 20
-12.1813
 30
0.0
 10
-6.09996
 20
-11.84998
 30
0.0
  0
SPLINE
  5
60
330
1F
100
AcDbEntity
  8
Layer 1
 62
   250
370
    53
100
AcDbSpline
210
0.0
220
0.0
230
1.0
 70
    11
 71
     3
 72
    20
 73
    16
 74
     0
 42
0.0000000001
 43
0.0000000001
 40
0.0
 40
0.0
 40
0.0
 40
0.0
 40
0.25
 40
0.25
 40
0.25
 40
0.25
 40
0.5
 40
0.5
 40
0.5
 40
0.5
 40
0.75
 40
0.75
 40
0.75
 40
0.75
 40
1.0
 40
1.0
 40
1.0
 40
1.0
 10
-7.49996
 20
-17.24998
 30
0.0
 10
-7.16864
 20
-17.24998
 30
0.0
 10
-6.89996
 20
-17.51866
 30
0.0
 10
-6.89996
 20
-17.84998
 30
0.0
 10
-6.89996
 20
-17.84998
 30
0.0
 10
-6.89996
 20
-18.1813
 30
0.0
 10
-7.16864
 20
-18.44998
 30
0.0
 10
-7.49996
 20
-18.44998
 30
0.0
 10
-7.49996
 20
-18.44998
 30
0.0
 10
-7.83128
 20
-18.44998
 30
0.0
 10
-8.09996
 20
-18.1813
 30
0.0
 10
-8.09996
 20
-17.84998
 30
0.0
 10
-8.09996
 20
-17.84998
 30
0.0
 10
-8.09996
 20
-17.51866
 30
0.0
 10
-7.83128
 20
-17.24998
 30
0.0
 10
-7.49996
 20
-17.24998
 30
0.0
  0
SPLINE
  5
61
330
1F
100
AcDbEntity
  8
Layer 1
 62
   250
370
    53
100
AcDbSpline
210
0.0
220
0.0
230
1.0
 70
    11
 71
     3
 72
    20
 73
    16
 74
     0
 42
0.0000000001
 43
0.0000000001
 40
0.0
 40
0.0
 40
0.0
 40
0.0
 40
0.25
 40
0.25
 40
0.25
 40
0.25
 40
0.5
 40
0.5
 40
0.5
 40
0.5
 40
0.75
 40
0.75
 40
0.75
 40
0.75
 40
1.0
 40
1.0
 40
1.0
 40
1.0
 10
-7.49996
 20
-15.24998
 30
0.0
 10
-7.16864
 20
-15.24998
 30
0.0
 10
-6.89996
 20
-15.51866
 30
0.0
 10
-6.89996
 20
-15.84998
 30
0.0
 10
-6.89996
 20
-15.84998
 30
0.0
 10
-6.89996
 20
-16.1813
 30
0.0
 10
-7.16864
 20
-16.44998
 30
0.0
 10
-7.49996
 20
-16.44998
 30
0.0
 10
-7.49996
 20
-16.44998
 30
0.0
 10
-7.83128
 20
-16.44998
 30
0.0
 10
-8.09996
 20
-16.1813
 30
0.0
 10
-8.09996
 20
-15.84998
 30
0.0
 10
-8.09996
 20
-15.84998
 30
0.0
 10
-8.09996
 20
-15.51866
 30
0.0
 10
-7.83128
 20
-15.24998
 30
0.0
 10
-7.49996
 20
-15.24998
 30
0.0
  0
SPLINE
  5
62
330
1F
100
AcDbEntity
  8
Layer 1
 62
   250
370
    53
100
AcDbSpline
210
0.0
220
0.0
230
1.0
 70
    11
 71
     3
 72
    20
 73
    16
 74
     0
 42
0.0000000001
 43
0.0000000001
 40
0.0
 40
0.0
 40
0.0
 40
0.0
 40
0.25
 40
0.25
 40
0.25
 40
0.25
 40
0.5
 40
0.5
 40
0.5
 40
0.5
 40
0.75
 40
0.75
 40
0.75
 40
0.75
 40
1.0
 40
1.0
 40
1.0
 40
1.0
 10
-7.49996
 20
-13.24998
 30
0.0
 10
-7.16864
 20
-13.24998
 30
0.0
 10
-6.89996
 20
-13.51866
 30
0.0
 10
-6.89996
 20
-13.84998
 30
0.0
 10
-6.89996
 20
-13.84998
 30
0.0
 10
-6.89996
 20
-14.1813
 30
0.0
 10
-7.16864
 20
-14.44998
 30
0.0
 10
-7.49996
 20
-14.44998
 30
0.0
 10
-7.49996
 20
-14.44998
 30
0.0
 10
-7.83128
 20
-14.44998
 30
0.0
 10
-8.09996
 20
-14.1813
 30
0.0
 10
-8.09996
 20
-13.84998
 30
0.0
 10
-8.09996
 20
-13.84998
 30
0.0
 10
-8.09996
 20
-13.51866
 30
0.0
 10
-7.83128
 20
-13.24998
 30
0.0
 10
-7.49996
 20
-13.24998
 30
0.0
  0
SPLINE
  5
63
330
1F
100
AcDbEntity
  8
Layer 1
 62
   250
370
    53
100
AcDbSpline
210
0.0
220
0.0
230
1.0
 70
    11
 71
     3
 72
    20
 73
    16
 74
     0
 42
0.0000000001
 43
0.0000000001
 40
0.0
 40
0.0
 40
0.0
 40
0.0
 40
0.25
 40
0.25
 40
0.25
 40
0.25
 40
0.5
 40
0.5
 40
0.5
 40
0.5
 40
0.75
 40
0.75
 40
0.75
 40
0.75
 40
1.0
 40
1.0
 40
1.0
 40
1.0
 10
-7.49996
 20
-11.24998
 30
0.0
 10
-7.16864
 20
-11.24998
 30
0.0
 10
-6.89996
 20
-11.51866
 30
0.0
 10
-6.89996
 20
-11.84998
 30
0.0
 10
-6.89996
 20
-11.84998
 30
0.0
 10
-6.89996
 20
-12.1813
 30
0.0
 10
-7.16864
 20
-12.44998
 30
0.0
 10
-7.49996
 20
-12.44998
 30
0.0
 10
-7.49996
 20
-12.44998
 30
0.0
 10
-7.83128
 20
-12.44998
 30
0.0
 10
-8.09996
 20
-12.1813
 30
0.0
 10
-8.09996
 20
-11.84998
 30
0.0
 10
-8.09996
 20
-11.84998
 30
0.0
 10
-8.09996
 20
-11.51866
 30
0.0
 10
-7.83128
 20
-11.24998
 30
0.0
 10
-7.49996
 20
-11.24998
 30
0.0
  0
SPLINE
  5
64
330
1F
100
AcDbEntity
  8
Layer 1
 62
    30
370
    53
100
AcDbSpline
210
0.0
220
0.0
230
1.0
 70
    11
 71
     3
 72
   188
 73
   184
 74
     0
 42
0.0000000001
 43
0.0000000001
 40
0.0
 40
0.0
 40
0.0
 40
0.0
 40
0.0217391304347826
 40
0.0217391304347826
 40
0.0217391304347826
 40
0.0217391304347826
 40
0.0434782608695652
 40
0.0434782608695652
 40
0.0434782608695652
 40
0.0434782608695652
 40
0.0652173913043478
 40
0.0652173913043478
 40
0.0652173913043478
 40
0.0652173913043478
 40
0.0869565217391304
 40
0.0869565217391304
 40
0.0869565217391304
 40
0.0869565217391304
 40
0.108695652173913
 40
0.108695652173913
 40
0.108695652173913
 40
0.108695652173913
 40
0.1304347826086956
 40
0.1304347826086956
 40
0.1304347826086956
 40
0.1304347826086956
 40
0.1521739130434783
 40
0.1521739130434783
 40
0.1521739130434783
 40
0.1521739130434783
 40
0.1739130434782609
 40
0.1739130434782609
 40
0.1739130434782609
 40
0.1739130434782609
 40
0.1956521739130435
 40
0.1956521739130435
 40
0.1956521739130435
 40
0.1956521739130435
 40
0.2173913043478261
 40
0.2173913043478261
 40
0.2173913043478261
 40
0.2173913043478261
 40
0.2391304347826086
 40
0.2391304347826086
 40
0.2391304347826086
 40
0.2391304347826086
 40
0.2608695652173912
 40
0.2608695652173912
 40
0.2608695652173912
 40
0.2608695652173912
 40
0.2826086956521738
 40
0.2826086956521738
 40
0.2826086956521738
 40
0.2826086956521738
 40
0.3043478260869564
 40
0.3043478260869564
 40
0.3043478260869564
 40
0.3043478260869564
 40
0.326086956521739
 40
0.326086956521739
 40
0.326086956521739
 40
0.326086956521739
 40
0.3478260869565216
 40
0.3478260869565216
 40
0.3478260869565216
 40
0.3478260869565216
 40
0.3695652173913042
 40
0.3695652173913042
 40
0.3695652173913042
 40
0.3695652173913042
 40
0.3913043478260868
 40
0.3913043478260868
 40
0.3913043478260868
 40
0.3913043478260868
 40
0.4130434782608694
 40
0.4130434782608694
 40
0.4130434782608694
 40
0.4130434782608694
 40
0.434782608695652
 40
0.434782608695652
 40
0.434782608695652
 40
0.434782608695652
 40
0.4565217391304346
 40
0.4565217391304346
 40
0.4565217391304346
 40
0.4565217391304346
 40
0.4782608695652172
 40
0.4782608695652172
 40
0.4782608695652172
 40
0.4782608695652172
 40
0.4999999999999998
 40
0.4999999999999998
 40
0.4999999999999998
 40
0.4999999999999998
 40
0.5217391304347824
 40
0.5217391304347824
 40
0.5217391304347824
 40
0.5217391304347824
 40
0.543478260869565
 40
0.543478260869565
 40
0.543478260869565
 40
0.543478260869565
 40
0.5652173913043476
 40
0.5652173913043476
 40
0.5652173913043476
 40
0.5652173913043476
 40
0.5869565217391302
 40
0.5869565217391302
 40
0.5869565217391302
 40
0.5869565217391302
 40
0.6086956521739127
 40
0.6086956521739127
 40
0.6086956521739127
 40
0.6086956521739127
 40
0.6304347826086953
 40
0.6304347826086953
 40
0.6304347826086953
 40
0.6304347826086953
 40
0.6521739130434779
 40
0.6521739130434779
 40
0.6521739130434779
 40
0.6521739130434779
 40
0.6739130434782605
 40
0.6739130434782605
 40
0.6739130434782605
 40
0.6739130434782605
 40
0.6956521739130431
 40
0.6956521739130431
 40
0.6956521739130431
 40
0.6956521739130431
 40
0.7173913043478257
 40
0.7173913043478257
 40
0.7173913043478257
 40
0.7173913043478257
 40
0.7391304347826083
 40
0.7391304347826083
 40
0.7391304347826083
 40
0.7391304347826083
 40
0.7608695652173909
 40
0.7608695652173909
 40
0.7608695652173909
 40
0.7608695652173909
 40
0.7826086956521735
 40
0.7826086956521735
 40
0.7826086956521735
 40
0.7826086956521735
 40
0.8043478260869561
 40
0.8043478260869561
 40
0.8043478260869561
 40
0.8043478260869561
 40
0.8260869565217387
 40
0.8260869565217387
 40
0.8260869565217387
 40
0.8260869565217387
 40
0.8478260869565213
 40
0.8478260869565213
 40
0.8478260869565213
 40
0.8478260869565213
 40
0.8695652173913039
 40
0.8695652173913039
 40
0.8695652173913039
 40
0.8695652173913039
 40
0.8913043478260865
 40
0.8913043478260865
 40
0.8913043478260865
 40
0.8913043478260865
 40
0.9130434782608691
 40
0.9130434782608691
 40
0.9130434782608691
 40
0.9130434782608691
 40
0.9347826086956517
 40
0.9347826086956517
 40
0.9347826086956517
 40
0.9347826086956517
 40
0.9565217391304343
 40
0.9565217391304343
 40
0.9565217391304343
 40
0.9565217391304343
 40
0.9782608695652169
 40
0.9782608695652169
 40
0.9782608695652169
 40
0.9782608695652169
 40
1.0
 40
1.0
 40
1.0
 40
1.0
 10
-8.7584
 20
-18.62409
 30
0.0
 10
-8.75826
 20
-18.64096
 30
0.0
 10
-8.7553
 20
-18.65542
 30
0.0
 10
-8.74937
 20
-18.66749
 30
0.0
 10
-8.74937
 20
-18.66749
 30
0.0
 10
-8.74351
 20
-18.67948
 30
0.0
 10
-8.73533
 20
-18.68929
 30
0.0
 10
-8.72503
 20
-18.69691
 30
0.0
 10
-8.72503
 20
-18.69691
 30
0.0
 10
-8.71466
 20
-18.70446
 30
0.0
 10
-8.70273
 20
-18.71003
 30
0.0
 10
-8.68926
 20
-18.71363
 30
0.0
 10
-8.68926
 20
-18.71363
 30
0.0
 10
-8.67585
 20
-18.71716
 30
0.0
 10
-8.66146
 20
-18.71892
 30
0.0
 10
-8.64622
 20
-18.71892
 30
0.0
 10
-8.64622
 20
-18.71892
 30
0.0
 10
-8.63084
 20
-18.71885
 30
0.0
 10
-8.61701
 20
-18.71659
 30
0.0
 10
-8.60466
 20
-18.71229
 30
0.0
 10
-8.60466
 20
-18.71229
 30
0.0
 10
-8.59238
 20
-18.70798
 30
0.0
 10
-8.58187
 20
-18.7022
 30
0.0
 10
-8.57305
 20
-18.69493
 30
0.0
 10
-8.57305
 20
-18.69493
 30
0.0
 10
-8.5643
 20
-18.68766
 30
0.0
 10
-8.55753
 20
-18.67955
 30
0.0
 10
-8.55273
 20
-18.67052
 30
0.0
 10
-8.55273
 20
-18.67052
 30
0.0
 10
-8.54793
 20
-18.66149
 30
0.0
 10
-8.54539
 20
-18.65225
 30
0.0
 10
-8.54504
 20
-18.64272
 30
0.0
 10
-8.54504
 20
-18.64272
 30
0.0
 10
-8.54462
 20
-18.63023
 30
0.0
 10
-8.54645
 20
-18.6188
 30
0.0
 10
-8.55047
 20
-18.6085
 30
0.0
 10
-8.55047
 20
-18.6085
 30
0.0
 10
-8.5545
 20
-18.5982
 30
0.0
 10
-8.56071
 20
-18.58959
 30
0.0
 10
-8.5691
 20
-18.58254
 30
0.0
 10
-8.5691
 20
-18.58254
 30
0.0
 10
-8.57743
 20
-18.57548
 30
0.0
 10
-8.58794
 20
-18.57054
 30
0.0
 10
-8.6005
 20
-18.56779
 30
0.0
 10
-8.6005
 20
-18.56779
 30
0.0
 10
-8.6005
 20
-18.56779
 30
0.0
 10
-8.70421
 20
-18.54535
 30
0.0
 10
-8.70421
 20
-18.54535
 30
0.0
 10
-8.70421
 20
-18.54535
 30
0.0
 10
-8.71395
 20
-18.54331
 30
0.0
 10
-8.72235
 20
-18.53985
 30
0.0
 10
-8.72926
 20
-18.53505
 30
0.0
 10
-8.72926
 20
-18.53505
 30
0.0
 10
-8.73618
 20
-18.53019
 30
0.0
 10
-8.74154
 20
-18.52348
 30
0.0
 10
-8.74521
 20
-18.51487
 30
0.0
 10
-8.74521
 20
-18.51487
 30
0.0
 10
-8.74888
 20
-18.50634
 30
0.0
 10
-8.75078
 20
-18.49547
 30
0.0
 10
-8.75078
 20
-18.48228
 30
0.0
 10
-8.75078
 20
-18.48228
 30
0.0
 10
-8.75078
 20
-18.47226
 30
0.0
 10
-8.74873
 20
-18.46281
 30
0.0
 10
-8.74457
 20
-18.45392
 30
0.0
 10
-8.74457
 20
-18.45392
 30
0.0
 10
-8.74048
 20
-18.44503
 30
0.0
 10
-8.73441
 20
-18.43719
 30
0.0
 10
-8.72644
 20
-18.43028
 30
0.0
 10
-8.72644
 20
-18.43028
 30
0.0
 10
-8.71847
 20
-18.42344
 30
0.0
 10
-8.70859
 20
-18.41807
 30
0.0
 10
-8.69688
 20
-18.41419
 30
0.0
 10
-8.69688
 20
-18.41419
 30
0.0
 10
-8.68509
 20
-18.41024
 30
0.0
 10
-8.67162
 20
-18.40827
 30
0.0
 10
-8.65638
 20
-18.4082
 30
0.0
 10
-8.65638
 20
-18.4082
 30
0.0
 10
-8.64107
 20
-18.4082
 30
0.0
 10
-8.62703
 20
-18.40996
 30
0.0
 10
-8.61419
 20
-18.41349
 30
0.0
 10
-8.61419
 20
-18.41349
 30
0.0
 10
-8.60142
 20
-18.41702
 30
0.0
 10
-8.59034
 20
-18.4221
 30
0.0
 10
-8.58103
 20
-18.42887
 30
0.0
 10
-8.58103
 20
-18.42887
 30
0.0
 10
-8.57171
 20
-18.43564
 30
0.0
 10
-8.56452
 20
-18.44397
 30
0.0
 10
-8.55958
 20
-18.4537
 30
0.0
 10
-8.55958
 20
-18.4537
 30
0.0
 10
-8.55464
 20
-18.46351
 30
0.0
 10
-8.55231
 20
-18.47473
 30
0.0
 10
-8.55266
 20
-18.48736
 30
0.0
 10
-8.55266
 20
-18.48736
 30
0.0
 10
-8.55231
 20
-18.47473
 30
0.0
 10
-8.55464
 20
-18.46351
 30
0.0
 10
-8.55958
 20
-18.4537
 30
0.0
 10
-8.55958
 20
-18.4537
 30
0.0
 10
-8.56452
 20
-18.44397
 30
0.0
 10
-8.57171
 20
-18.43564
 30
0.0
 10
-8.58103
 20
-18.42887
 30
0.0
 10
-8.58103
 20
-18.42887
 30
0.0
 10
-8.59034
 20
-18.4221
 30
0.0
 10
-8.60142
 20
-18.41702
 30
0.0
 10
-8.61419
 20
-18.41349
 30
0.0
 10
-8.61419
 20
-18.41349
 30
0.0
 10
-8.62703
 20
-18.40996
 30
0.0
 10
-8.64107
 20
-18.4082
 30
0.0
 10
-8.65638
 20
-18.4082
 30
0.0
 10
-8.65638
 20
-18.4082
 30
0.0
 10
-8.67162
 20
-18.40827
 30
0.0
 10
-8.68509
 20
-18.41024
 30
0.0
 10
-8.69688
 20
-18.41419
 30
0.0
 10
-8.69688
 20
-18.41419
 30
0.0
 10
-8.70859
 20
-18.41807
 30
0.0
 10
-8.71847
 20
-18.42344
 30
0.0
 10
-8.72644
 20
-18.43028
 30
0.0
 10
-8.72644
 20
-18.43028
 30
0.0
 10
-8.73441
 20
-18.43719
 30
0.0
 10
-8.74048
 20
-18.44503
 30
0.0
 10
-8.74457
 20
-18.45392
 30
0.0
 10
-8.74457
 20
-18.45392
 30
0.0
 10
-8.74873
 20
-18.46281
 30
0.0
 10
-8.75078
 20
-18.47226
 30
0.0
 10
-8.75078
 20
-18.48228
 30
0.0
 10
-8.75078
 20
-18.48228
 30
0.0
 10
-8.75078
 20
-18.49547
 30
0.0
 10
-8.74895
 20
-18.50634
 30
0.0
 10
-8.74542
 20
-18.5148
 30
0.0
 10
-8.74542
 20
-18.5148
 30
0.0
 10
-8.74182
 20
-18.52334
 30
0.0
 10
-8.73653
 20
-18.52997
 30
0.0
 10
-8.72961
 20
-18.53484
 30
0.0
 10
-8.72961
 20
-18.53484
 30
0.0
 10
-8.7227
 20
-18.53964
 30
0.0
 10
-8.71423
 20
-18.54317
 30
0.0
 10
-8.70421
 20
-18.54535
 30
0.0
 10
-8.70421
 20
-18.54535
 30
0.0
 10
-8.70421
 20
-18.54535
 30
0.0
 10
-8.6005
 20
-18.56779
 30
0.0
 10
-8.6005
 20
-18.56779
 30
0.0
 10
-8.6005
 20
-18.56779
 30
0.0
 10
-8.58766
 20
-18.57054
 30
0.0
 10
-8.57707
 20
-18.57548
 30
0.0
 10
-8.56875
 20
-18.58254
 30
0.0
 10
-8.56875
 20
-18.58254
 30
0.0
 10
-8.56035
 20
-18.58959
 30
0.0
 10
-8.55421
 20
-18.5982
 30
0.0
 10
-8.55026
 20
-18.6085
 30
0.0
 10
-8.55026
 20
-18.6085
 30
0.0
 10
-8.54638
 20
-18.6188
 30
0.0
 10
-8.54462
 20
-18.63023
 30
0.0
 10
-8.54504
 20
-18.64272
 30
0.0
 10
-8.54504
 20
-18.64272
 30
0.0
 10
-8.54539
 20
-18.65225
 30
0.0
 10
-8.54793
 20
-18.66149
 30
0.0
 10
-8.55273
 20
-18.67052
 30
0.0
 10
-8.55273
 20
-18.67052
 30
0.0
 10
-8.55753
 20
-18.67955
 30
0.0
 10
-8.5643
 20
-18.68766
 30
0.0
 10
-8.57305
 20
-18.69493
 30
0.0
 10
-8.57305
 20
-18.69493
 30
0.0
 10
-8.58187
 20
-18.7022
 30
0.0
 10
-8.59238
 20
-18.70798
 30
0.0
 10
-8.60466
 20
-18.71229
 30
0.0
 10
-8.60466
 20
-18.71229
 30
0.0
 10
-8.61701
 20
-18.71659
 30
0.0
 10
-8.63084
 20
-18.71885
 30
0.0
 10
-8.64622
 20
-18.71892
 30
0.0
 10
-8.64622
 20
-18.71892
 30
0.0
 10
-8.66146
 20
-18.71892
 30
0.0
 10
-8.67585
 20
-18.71716
 30
0.0
 10
-8.68926
 20
-18.71363
 30
0.0
 10
-8.68926
 20
-18.71363
 30
0.0
 10
-8.70273
 20
-18.71003
 30
0.0
 10
-8.71466
 20
-18.70446
 30
0.0
 10
-8.72503
 20
-18.69691
 30
0.0
 10
-8.72503
 20
-18.69691
 30
0.0
 10
-8.73533
 20
-18.68929
 30
0.0
 10
-8.74351
 20
-18.67948
 30
0.0
 10
-8.74937
 20
-18.66749
 30
0.0
 10
-8.74937
 20
-18.66749
 30
0.0
 10
-8.7553
 20
-18.65542
 30
0.0
 10
-8.75826
 20
-18.64096
 30
0.0
 10
-8.7584
 20
-18.62409
 30
0.0
  0
SPLINE
  5
65
330
1F
100
AcDbEntity
  8
Layer 1
 62
    30
370
    53
100
AcDbSpline
210
0.0
220
0.0
230
1.0
 70
    11
 71
     3
 72
    92
 73
    88
 74
     0
 42
0.0000000001
 43
0.0000000001
 40
0.0
 40
0.0
 40
0.0
 40
0.0
 40
0.0454545454545455
 40
0.0454545454545455
 40
0.0454545454545455
 40
0.0454545454545455
 40
0.0909090909090909
 40
0.0909090909090909
 40
0.0909090909090909
 40
0.0909090909090909
 40
0.1363636363636364
 40
0.1363636363636364
 40
0.1363636363636364
 40
0.1363636363636364
 40
0.1818181818181818
 40
0.1818181818181818
 40
0.1818181818181818
 40
0.1818181818181818
 40
0.2272727272727273
 40
0.2272727272727273
 40
0.2272727272727273
 40
0.2272727272727273
 40
0.2727272727272728
 40
0.2727272727272728
 40
0.2727272727272728
 40
0.2727272727272728
 40
0.3181818181818182
 40
0.3181818181818182
 40
0.3181818181818182
 40
0.3181818181818182
 40
0.3636363636363637
 40
0.3636363636363637
 40
0.3636363636363637
 40
0.3636363636363637
 40
0.4090909090909092
 40
0.4090909090909092
 40
0.4090909090909092
 40
0.4090909090909092
 40
0.4545454545454546
 40
0.4545454545454546
 40
0.4545454545454546
 40
0.4545454545454546
 40
0.5000000000000001
 40
0.5000000000000001
 40
0.5000000000000001
 40
0.5000000000000001
 40
0.5454545454545455
 40
0.5454545454545455
 40
0.5454545454545455
 40
0.5454545454545455
 40
0.5909090909090909
 40
0.5909090909090909
 40
0.5909090909090909
 40
0.5909090909090909
 40
0.6363636363636364
 40
0.6363636363636364
 40
0.6363636363636364
 40
0.6363636363636364
 40
0.6818181818181818
 40
0.6818181818181818
 40
0.6818181818181818
 40
0.6818181818181818
 40
0.7272727272727272
 40
0.7272727272727272
 40
0.7272727272727272
 40
0.7272727272727272
 40
0.7727272727272726
 40
0.7727272727272726
 40
0.7727272727272726
 40
0.7727272727272726
 40
0.818181818181818
 40
0.818181818181818
 40
0.818181818181818
 40
0.818181818181818
 40
0.8636363636363634
 40
0.8636363636363634
 40
0.8636363636363634
 40
0.8636363636363634
 40
0.9090909090909088
 40
0.9090909090909088
 40
0.9090909090909088
 40
0.9090909090909088
 40
0.9545454545454543
 40
0.9545454545454543
 40
0.9545454545454543
 40
0.9545454545454543
 40
1.0
 40
1.0
 40
1.0
 40
1.0
 10
-8.39645
 20
-18.71638
 30
0.0
 10
-8.39645
 20
-18.71638
 30
0.0
 10
-8.39645
 20
-18.41116
 30
0.0
 10
-8.39645
 20
-18.41116
 30
0.0
 10
-8.39645
 20
-18.41116
 30
0.0
 10
-8.39645
 20
-18.41116
 30
0.0
 10
-8.29908
 20
-18.41116
 30
0.0
 10
-8.29908
 20
-18.41116
 30
0.0
 10
-8.29908
 20
-18.41116
 30
0.0
 10
-8.27961
 20
-18.41123
 30
0.0
 10
-8.2636
 20
-18.41342
 30
0.0
 10
-8.25097
 20
-18.41765
 30
0.0
 10
-8.25097
 20
-18.41765
 30
0.0
 10
-8.23841
 20
-18.42181
 30
0.0
 10
-8.22853
 20
-18.4276
 30
0.0
 10
-8.2214
 20
-18.43494
 30
0.0
 10
-8.2214
 20
-18.43494
 30
0.0
 10
-8.21428
 20
-18.4422
 30
0.0
 10
-8.2092
 20
-18.45053
 30
0.0
 10
-8.20609
 20
-18.45991
 30
0.0
 10
-8.20609
 20
-18.45991
 30
0.0
 10
-8.20306
 20
-18.4693
 30
0.0
 10
-8.2013
 20
-18.4791
 30
0.0
 10
-8.20087
 20
-18.48948
 30
0.0
 10
-8.20087
 20
-18.48948
 30
0.0
 10
-8.20038
 20
-18.49985
 30
0.0
 10
-8.20158
 20
-18.51001
 30
0.0
 10
-8.2044
 20
-18.51988
 30
0.0
 10
-8.2044
 20
-18.51988
 30
0.0
 10
-8.20729
 20
-18.52976
 30
0.0
 10
-8.21216
 20
-18.53872
 30
0.0
 10
-8.21915
 20
-18.54677
 30
0.0
 10
-8.21915
 20
-18.54677
 30
0.0
 10
-8.22606
 20
-18.55481
 30
0.0
 10
-8.23544
 20
-18.56123
 30
0.0
 10
-8.24723
 20
-18.56596
 30
0.0
 10
-8.24723
 20
-18.56596
 30
0.0
 10
-8.25901
 20
-18.57075
 30
0.0
 10
-8.27361
 20
-18.57315
 30
0.0
 10
-8.29104
 20
-18.57329
 30
0.0
 10
-8.29104
 20
-18.57329
 30
0.0
 10
-8.29104
 20
-18.57329
 30
0.0
 10
-8.39645
 20
-18.57329
 30
0.0
 10
-8.39645
 20
-18.57329
 30
0.0
 10
-8.39645
 20
-18.57329
 30
0.0
 10
-8.39645
 20
-18.57329
 30
0.0
 10
-8.29104
 20
-18.57329
 30
0.0
 10
-8.29104
 20
-18.57329
 30
0.0
 10
-8.29104
 20
-18.57329
 30
0.0
 10
-8.27397
 20
-18.57315
 30
0.0
 10
-8.2595
 20
-18.57075
 30
0.0
 10
-8.24779
 20
-18.56596
 30
0.0
 10
-8.24779
 20
-18.56596
 30
0.0
 10
-8.23601
 20
-18.56123
 30
0.0
 10
-8.22662
 20
-18.55481
 30
0.0
 10
-8.21957
 20
-18.54677
 30
0.0
 10
-8.21957
 20
-18.54677
 30
0.0
 10
-8.21258
 20
-18.53872
 30
0.0
 10
-8.20757
 20
-18.52976
 30
0.0
 10
-8.20461
 20
-18.51988
 30
0.0
 10
-8.20461
 20
-18.51988
 30
0.0
 10
-8.20165
 20
-18.51001
 30
0.0
 10
-8.20038
 20
-18.49985
 30
0.0
 10
-8.20087
 20
-18.48948
 30
0.0
 10
-8.20087
 20
-18.48948
 30
0.0
 10
-8.2013
 20
-18.4791
 30
0.0
 10
-8.20306
 20
-18.4693
 30
0.0
 10
-8.20623
 20
-18.45991
 30
0.0
 10
-8.20623
 20
-18.45991
 30
0.0
 10
-8.20934
 20
-18.45053
 30
0.0
 10
-8.21456
 20
-18.4422
 30
0.0
 10
-8.22169
 20
-18.43494
 30
0.0
 10
-8.22169
 20
-18.43494
 30
0.0
 10
-8.22888
 20
-18.4276
 30
0.0
 10
-8.23876
 20
-18.42181
 30
0.0
 10
-8.25132
 20
-18.41765
 30
0.0
 10
-8.25132
 20
-18.41765
 30
0.0
 10
-8.26395
 20
-18.41342
 30
0.0
 10
-8.27982
 20
-18.41123
 30
0.0
 10
-8.29908
 20
-18.41116
 30
0.0
 10
-8.29908
 20
-18.41116
 30
0.0
 10
-8.29908
 20
-18.41116
 30
0.0
 10
-8.39645
 20
-18.41116
 30
0.0
 10
-8.39645
 20
-18.41116
 30
0.0
 10
-8.39645
 20
-18.41116
 30
0.0
 10
-8.39645
 20
-18.41116
 30
0.0
 10
-8.39645
 20
-18.71638
 30
0.0
 10
-8.39645
 20
-18.71638
 30
0.0
  0
SPLINE
  5
66
330
1F
100
AcDbEntity
  8
Layer 1
 62
    30
370
    53
100
AcDbSpline
210
0.0
220
0.0
230
1.0
 70
    11
 71
     3
 72
    84
 73
    80
 74
     0
 42
0.0000000001
 43
0.0000000001
 40
0.0
 40
0.0
 40
0.0
 40
0.0
 40
0.05
 40
0.05
 40
0.05
 40
0.05
 40
0.1
 40
0.1
 40
0.1
 40
0.1
 40
0.15
 40
0.15
 40
0.15
 40
0.15
 40
0.2
 40
0.2
 40
0.2
 40
0.2
 40
0.25
 40
0.25
 40
0.25
 40
0.25
 40
0.3
 40
0.3
 40
0.3
 40
0.3
 40
0.35
 40
0.35
 40
0.35
 40
0.35
 40
0.4
 40
0.4
 40
0.4
 40
0.4
 40
0.45
 40
0.45
 40
0.45
 40
0.45
 40
0.4999999999999999
 40
0.4999999999999999
 40
0.4999999999999999
 40
0.4999999999999999
 40
0.5499999999999999
 40
0.5499999999999999
 40
0.5499999999999999
 40
0.5499999999999999
 40
0.6
 40
0.6
 40
0.6
 40
0.6
 40
0.65
 40
0.65
 40
0.65
 40
0.65
 40
0.7000000000000001
 40
0.7000000000000001
 40
0.7000000000000001
 40
0.7000000000000001
 40
0.7500000000000001
 40
0.7500000000000001
 40
0.7500000000000001
 40
0.7500000000000001
 40
0.8000000000000002
 40
0.8000000000000002
 40
0.8000000000000002
 40
0.8000000000000002
 40
0.8500000000000002
 40
0.8500000000000002
 40
0.8500000000000002
 40
0.8500000000000002
 40
0.9000000000000002
 40
0.9000000000000002
 40
0.9000000000000002
 40
0.9000000000000002
 40
0.9500000000000003
 40
0.9500000000000003
 40
0.9500000000000003
 40
0.9500000000000003
 40
1.0
 40
1.0
 40
1.0
 40
1.0
 10
-9.03377
 20
-19.29169
 30
0.0
 10
-9.01896
 20
-19.29162
 30
0.0
 10
-9.00619
 20
-19.28901
 30
0.0
 10
-8.99553
 20
-19.28393
 30
0.0
 10
-8.99553
 20
-19.28393
 30
0.0
 10
-8.98495
 20
-19.27885
 30
0.0
 10
-8.97613
 20
-19.27158
 30
0.0
 10
-8.96908
 20
-19.26234
 30
0.0
 10
-8.96908
 20
-19.26234
 30
0.0
 10
-8.96209
 20
-19.25303
 30
0.0
 10
-8.95659
 20
-19.24202
 30
0.0
 10
-8.9525
 20
-19.22932
 30
0.0
 10
-8.9525
 20
-19.22932
 30
0.0
 10
-8.94847
 20
-19.21662
 30
0.0
 10
-8.94558
 20
-19.20272
 30
0.0
 10
-8.94396
 20
-19.18748
 30
0.0
 10
-8.94396
 20
-19.18748
 30
0.0
 10
-8.94226
 20
-19.17224
 30
0.0
 10
-8.94142
 20
-19.15622
 30
0.0
 10
-8.94149
 20
-19.13929
 30
0.0
 10
-8.94149
 20
-19.13929
 30
0.0
 10
-8.94142
 20
-19.12243
 30
0.0
 10
-8.94226
 20
-19.10641
 30
0.0
 10
-8.94396
 20
-19.09124
 30
0.0
 10
-8.94396
 20
-19.09124
 30
0.0
 10
-8.94558
 20
-19.07607
 30
0.0
 10
-8.94847
 20
-19.0621
 30
0.0
 10
-8.9525
 20
-19.0494
 30
0.0
 10
-8.9525
 20
-19.0494
 30
0.0
 10
-8.95659
 20
-19.03677
 30
0.0
 10
-8.96209
 20
-19.02577
 30
0.0
 10
-8.96908
 20
-19.01638
 30
0.0
 10
-8.96908
 20
-19.01638
 30
0.0
 10
-8.97613
 20
-19.00707
 30
0.0
 10
-8.98495
 20
-18.9998
 30
0.0
 10
-8.99553
 20
-18.99472
 30
0.0
 10
-8.99553
 20
-18.99472
 30
0.0
 10
-9.00619
 20
-18.98957
 30
0.0
 10
-9.01896
 20
-18.98696
 30
0.0
 10
-9.03377
 20
-18.98689
 30
0.0
 10
-9.03377
 20
-18.98689
 30
0.0
 10
-9.04859
 20
-18.98696
 30
0.0
 10
-9.06136
 20
-18.98957
 30
0.0
 10
-9.07202
 20
-18.99472
 30
0.0
 10
-9.07202
 20
-18.99472
 30
0.0
 10
-9.0826
 20
-18.9998
 30
0.0
 10
-9.09142
 20
-19.00707
 30
0.0
 10
-9.09847
 20
-19.01638
 30
0.0
 10
-9.09847
 20
-19.01638
 30
0.0
 10
-9.10546
 20
-19.02577
 30
0.0
 10
-9.11096
 20
-19.03677
 30
0.0
 10
-9.11505
 20
-19.0494
 30
0.0
 10
-9.11505
 20
-19.0494
 30
0.0
 10
-9.11908
 20
-19.0621
 30
0.0
 10
-9.12197
 20
-19.07607
 30
0.0
 10
-9.12359
 20
-19.09124
 30
0.0
 10
-9.12359
 20
-19.09124
 30
0.0
 10
-9.12528
 20
-19.10641
 30
0.0
 10
-9.12613
 20
-19.12243
 30
0.0
 10
-9.12606
 20
-19.13929
 30
0.0
 10
-9.12606
 20
-19.13929
 30
0.0
 10
-9.12613
 20
-19.15622
 30
0.0
 10
-9.12528
 20
-19.17224
 30
0.0
 10
-9.12359
 20
-19.18748
 30
0.0
 10
-9.12359
 20
-19.18748
 30
0.0
 10
-9.12197
 20
-19.20272
 30
0.0
 10
-9.11908
 20
-19.21662
 30
0.0
 10
-9.11505
 20
-19.22932
 30
0.0
 10
-9.11505
 20
-19.22932
 30
0.0
 10
-9.11096
 20
-19.24202
 30
0.0
 10
-9.10546
 20
-19.25303
 30
0.0
 10
-9.09847
 20
-19.26234
 30
0.0
 10
-9.09847
 20
-19.26234
 30
0.0
 10
-9.09142
 20
-19.27158
 30
0.0
 10
-9.0826
 20
-19.27885
 30
0.0
 10
-9.07202
 20
-19.28393
 30
0.0
 10
-9.07202
 20
-19.28393
 30
0.0
 10
-9.06136
 20
-19.28901
 30
0.0
 10
-9.04859
 20
-19.29162
 30
0.0
 10
-9.03377
 20
-19.29169
 30
0.0
  0
SPLINE
  5
67
330
1F
100
AcDbEntity
  8
Layer 1
 62
    30
370
    53
100
AcDbSpline
210
0.0
220
0.0
230
1.0
 70
    11
 71
     3
 72
    84
 73
    80
 74
     0
 42
0.0000000001
 43
0.0000000001
 40
0.0
 40
0.0
 40
0.0
 40
0.0
 40
0.05
 40
0.05
 40
0.05
 40
0.05
 40
0.1
 40
0.1
 40
0.1
 40
0.1
 40
0.15
 40
0.15
 40
0.15
 40
0.15
 40
0.2
 40
0.2
 40
0.2
 40
0.2
 40
0.25
 40
0.25
 40
0.25
 40
0.25
 40
0.3
 40
0.3
 40
0.3
 40
0.3
 40
0.35
 40
0.35
 40
0.35
 40
0.35
 40
0.4
 40
0.4
 40
0.4
 40
0.4
 40
0.45
 40
0.45
 40
0.45
 40
0.45
 40
0.4999999999999999
 40
0.4999999999999999
 40
0.4999999999999999
 40
0.4999999999999999
 40
0.5499999999999999
 40
0.5499999999999999
 40
0.5499999999999999
 40
0.5499999999999999
 40
0.6
 40
0.6
 40
0.6
 40
0.6
 40
0.65
 40
0.65
 40
0.65
 40
0.65
 40
0.7000000000000001
 40
0.7000000000000001
 40
0.7000000000000001
 40
0.7000000000000001
 40
0.7500000000000001
 40
0.7500000000000001
 40
0.7500000000000001
 40
0.7500000000000001
 40
0.8000000000000002
 40
0.8000000000000002
 40
0.8000000000000002
 40
0.8000000000000002
 40
0.8500000000000002
 40
0.8500000000000002
 40
0.8500000000000002
 40
0.8500000000000002
 40
0.9000000000000002
 40
0.9000000000000002
 40
0.9000000000000002
 40
0.9000000000000002
 40
0.9500000000000003
 40
0.9500000000000003
 40
0.9500000000000003
 40
0.9500000000000003
 40
1.0
 40
1.0
 40
1.0
 40
1.0
 10
-9.03377
 20
-19.29169
 30
0.0
 10
-9.01896
 20
-19.29162
 30
0.0
 10
-9.00619
 20
-19.28901
 30
0.0
 10
-8.99553
 20
-19.28393
 30
0.0
 10
-8.99553
 20
-19.28393
 30
0.0
 10
-8.98495
 20
-19.27885
 30
0.0
 10
-8.97613
 20
-19.27158
 30
0.0
 10
-8.96908
 20
-19.26234
 30
0.0
 10
-8.96908
 20
-19.26234
 30
0.0
 10
-8.96209
 20
-19.25303
 30
0.0
 10
-8.95659
 20
-19.24202
 30
0.0
 10
-8.9525
 20
-19.22932
 30
0.0
 10
-8.9525
 20
-19.22932
 30
0.0
 10
-8.94847
 20
-19.21662
 30
0.0
 10
-8.94558
 20
-19.20272
 30
0.0
 10
-8.94396
 20
-19.18748
 30
0.0
 10
-8.94396
 20
-19.18748
 30
0.0
 10
-8.94226
 20
-19.17224
 30
0.0
 10
-8.94142
 20
-19.15622
 30
0.0
 10
-8.94149
 20
-19.13929
 30
0.0
 10
-8.94149
 20
-19.13929
 30
0.0
 10
-8.94142
 20
-19.12243
 30
0.0
 10
-8.94226
 20
-19.10641
 30
0.0
 10
-8.94396
 20
-19.09124
 30
0.0
 10
-8.94396
 20
-19.09124
 30
0.0
 10
-8.94558
 20
-19.07607
 30
0.0
 10
-8.94847
 20
-19.0621
 30
0.0
 10
-8.9525
 20
-19.0494
 30
0.0
 10
-8.9525
 20
-19.0494
 30
0.0
 10
-8.95659
 20
-19.03677
 30
0.0
 10
-8.96209
 20
-19.02577
 30
0.0
 10
-8.96908
 20
-19.01638
 30
0.0
 10
-8.96908
 20
-19.01638
 30
0.0
 10
-8.97613
 20
-19.00707
 30
0.0
 10
-8.98495
 20
-18.9998
 30
0.0
 10
-8.99553
 20
-18.99472
 30
0.0
 10
-8.99553
 20
-18.99472
 30
0.0
 10
-9.00619
 20
-18.98957
 30
0.0
 10
-9.01896
 20
-18.98696
 30
0.0
 10
-9.03377
 20
-18.98689
 30
0.0
 10
-9.03377
 20
-18.98689
 30
0.0
 10
-9.04859
 20
-18.98696
 30
0.0
 10
-9.06136
 20
-18.98957
 30
0.0
 10
-9.07202
 20
-18.99472
 30
0.0
 10
-9.07202
 20
-18.99472
 30
0.0
 10
-9.0826
 20
-18.9998
 30
0.0
 10
-9.09142
 20
-19.00707
 30
0.0
 10
-9.09847
 20
-19.01638
 30
0.0
 10
-9.09847
 20
-19.01638
 30
0.0
 10
-9.10546
 20
-19.02577
 30
0.0
 10
-9.11096
 20
-19.03677
 30
0.0
 10
-9.11505
 20
-19.0494
 30
0.0
 10
-9.11505
 20
-19.0494
 30
0.0
 10
-9.11908
 20
-19.0621
 30
0.0
 10
-9.12197
 20
-19.07607
 30
0.0
 10
-9.12359
 20
-19.09124
 30
0.0
 10
-9.12359
 20
-19.09124
 30
0.0
 10
-9.12528
 20
-19.10641
 30
0.0
 10
-9.12613
 20
-19.12243
 30
0.0
 10
-9.12606
 20
-19.13929
 30
0.0
 10
-9.12606
 20
-19.13929
 30
0.0
 10
-9.12613
 20
-19.15622
 30
0.0
 10
-9.12528
 20
-19.17224
 30
0.0
 10
-9.12359
 20
-19.18748
 30
0.0
 10
-9.12359
 20
-19.18748
 30
0.0
 10
-9.12197
 20
-19.20272
 30
0.0
 10
-9.11908
 20
-19.21662
 30
0.0
 10
-9.11505
 20
-19.22932
 30
0.0
 10
-9.11505
 20
-19.22932
 30
0.0
 10
-9.11096
 20
-19.24202
 30
0.0
 10
-9.10546
 20
-19.25303
 30
0.0
 10
-9.09847
 20
-19.26234
 30
0.0
 10
-9.09847
 20
-19.26234
 30
0.0
 10
-9.09142
 20
-19.27158
 30
0.0
 10
-9.0826
 20
-19.27885
 30
0.0
 10
-9.07202
 20
-19.28393
 30
0.0
 10
-9.07202
 20
-19.28393
 30
0.0
 10
-9.06136
 20
-19.28901
 30
0.0
 10
-9.04859
 20
-19.29162
 30
0.0
 10
-9.03377
 20
-19.29169
 30
0.0
  0
SPLINE
  5
68
330
1F
100
AcDbEntity
  8
Layer 1
 62
    30
370
    53
100
AcDbSpline
210
0.0
220
0.0
230
1.0
 70
    11
 71
     3
 72
   236
 73
   232
 74
     0
 42
0.0000000001
 43
0.0000000001
 40
0.0
 40
0.0
 40
0.0
 40
0.0
 40
0.0172413793103448
 40
0.0172413793103448
 40
0.0172413793103448
 40
0.0172413793103448
 40
0.0344827586206897
 40
0.0344827586206897
 40
0.0344827586206897
 40
0.0344827586206897
 40
0.0517241379310345
 40
0.0517241379310345
 40
0.0517241379310345
 40
0.0517241379310345
 40
0.0689655172413793
 40
0.0689655172413793
 40
0.0689655172413793
 40
0.0689655172413793
 40
0.0862068965517241
 40
0.0862068965517241
 40
0.0862068965517241
 40
0.0862068965517241
 40
0.103448275862069
 40
0.103448275862069
 40
0.103448275862069
 40
0.103448275862069
 40
0.1206896551724138
 40
0.1206896551724138
 40
0.1206896551724138
 40
0.1206896551724138
 40
0.1379310344827586
 40
0.1379310344827586
 40
0.1379310344827586
 40
0.1379310344827586
 40
0.1551724137931035
 40
0.1551724137931035
 40
0.1551724137931035
 40
0.1551724137931035
 40
0.1724137931034483
 40
0.1724137931034483
 40
0.1724137931034483
 40
0.1724137931034483
 40
0.1896551724137931
 40
0.1896551724137931
 40
0.1896551724137931
 40
0.1896551724137931
 40
0.206896551724138
 40
0.206896551724138
 40
0.206896551724138
 40
0.206896551724138
 40
0.2241379310344828
 40
0.2241379310344828
 40
0.2241379310344828
 40
0.2241379310344828
 40
0.2413793103448277
 40
0.2413793103448277
 40
0.2413793103448277
 40
0.2413793103448277
 40
0.2586206896551725
 40
0.2586206896551725
 40
0.2586206896551725
 40
0.2586206896551725
 40
0.2758620689655173
 40
0.2758620689655173
 40
0.2758620689655173
 40
0.2758620689655173
 40
0.2931034482758621
 40
0.2931034482758621
 40
0.2931034482758621
 40
0.2931034482758621
 40
0.3103448275862069
 40
0.3103448275862069
 40
0.3103448275862069
 40
0.3103448275862069
 40
0.3275862068965517
 40
0.3275862068965517
 40
0.3275862068965517
 40
0.3275862068965517
 40
0.3448275862068965
 40
0.3448275862068965
 40
0.3448275862068965
 40
0.3448275862068965
 40
0.3620689655172413
 40
0.3620689655172413
 40
0.3620689655172413
 40
0.3620689655172413
 40
0.3793103448275861
 40
0.3793103448275861
 40
0.3793103448275861
 40
0.3793103448275861
 40
0.3965517241379309
 40
0.3965517241379309
 40
0.3965517241379309
 40
0.3965517241379309
 40
0.4137931034482757
 40
0.4137931034482757
 40
0.4137931034482757
 40
0.4137931034482757
 40
0.4310344827586206
 40
0.4310344827586206
 40
0.4310344827586206
 40
0.4310344827586206
 40
0.4482758620689654
 40
0.4482758620689654
 40
0.4482758620689654
 40
0.4482758620689654
 40
0.4655172413793102
 40
0.4655172413793102
 40
0.4655172413793102
 40
0.4655172413793102
 40
0.482758620689655
 40
0.482758620689655
 40
0.482758620689655
 40
0.482758620689655
 40
0.4999999999999998
 40
0.4999999999999998
 40
0.4999999999999998
 40
0.4999999999999998
 40
0.5172413793103446
 40
0.5172413793103446
 40
0.5172413793103446
 40
0.5172413793103446
 40
0.5344827586206895
 40
0.5344827586206895
 40
0.5344827586206895
 40
0.5344827586206895
 40
0.5517241379310344
 40
0.5517241379310344
 40
0.5517241379310344
 40
0.5517241379310344
 40
0.5689655172413792
 40
0.5689655172413792
 40
0.5689655172413792
 40
0.5689655172413792
 40
0.5862068965517241
 40
0.5862068965517241
 40
0.5862068965517241
 40
0.5862068965517241
 40
0.603448275862069
 40
0.603448275862069
 40
0.603448275862069
 40
0.603448275862069
 40
0.6206896551724138
 40
0.6206896551724138
 40
0.6206896551724138
 40
0.6206896551724138
 40
0.6379310344827587
 40
0.6379310344827587
 40
0.6379310344827587
 40
0.6379310344827587
 40
0.6551724137931035
 40
0.6551724137931035
 40
0.6551724137931035
 40
0.6551724137931035
 40
0.6724137931034484
 40
0.6724137931034484
 40
0.6724137931034484
 40
0.6724137931034484
 40
0.6896551724137933
 40
0.6896551724137933
 40
0.6896551724137933
 40
0.6896551724137933
 40
0.7068965517241381
 40
0.7068965517241381
 40
0.7068965517241381
 40
0.7068965517241381
 40
0.724137931034483
 40
0.724137931034483
 40
0.724137931034483
 40
0.724137931034483
 40
0.7413793103448278
 40
0.7413793103448278
 40
0.7413793103448278
 40
0.7413793103448278
 40
0.7586206896551727
 40
0.7586206896551727
 40
0.7586206896551727
 40
0.7586206896551727
 40
0.7758620689655176
 40
0.7758620689655176
 40
0.7758620689655176
 40
0.7758620689655176
 40
0.7931034482758624
 40
0.7931034482758624
 40
0.7931034482758624
 40
0.7931034482758624
 40
0.8103448275862073
 40
0.8103448275862073
 40
0.8103448275862073
 40
0.8103448275862073
 40
0.8275862068965522
 40
0.8275862068965522
 40
0.8275862068965522
 40
0.8275862068965522
 40
0.844827586206897
 40
0.844827586206897
 40
0.844827586206897
 40
0.844827586206897
 40
0.8620689655172419
 40
0.8620689655172419
 40
0.8620689655172419
 40
0.8620689655172419
 40
0.8793103448275867
 40
0.8793103448275867
 40
0.8793103448275867
 40
0.8793103448275867
 40
0.8965517241379316
 40
0.8965517241379316
 40
0.8965517241379316
 40
0.8965517241379316
 40
0.9137931034482765
 40
0.9137931034482765
 40
0.9137931034482765
 40
0.9137931034482765
 40
0.9310344827586213
 40
0.9310344827586213
 40
0.9310344827586213
 40
0.9310344827586213
 40
0.9482758620689662
 40
0.9482758620689662
 40
0.9482758620689662
 40
0.9482758620689662
 40
0.965517241379311
 40
0.965517241379311
 40
0.965517241379311
 40
0.965517241379311
 40
0.9827586206896559
 40
0.9827586206896559
 40
0.9827586206896559
 40
0.9827586206896559
 40
1.0
 40
1.0
 40
1.0
 40
1.0
 10
-8.82126
 20
-19.19983
 30
0.0
 10
-8.82119
 20
-19.186
 30
0.0
 10
-8.81894
 20
-19.17351
 30
0.0
 10
-8.81442
 20
-19.16222
 30
0.0
 10
-8.81442
 20
-19.16222
 30
0.0
 10
-8.80998
 20
-19.151
 30
0.0
 10
-8.8037
 20
-19.14134
 30
0.0
 10
-8.79558
 20
-19.13322
 30
0.0
 10
-8.79558
 20
-19.13322
 30
0.0
 10
-8.78754
 20
-19.12518
 30
0.0
 10
-8.77801
 20
-19.11897
 30
0.0
 10
-8.76715
 20
-19.1146
 30
0.0
 10
-8.76715
 20
-19.1146
 30
0.0
 10
-8.75628
 20
-19.11022
 30
0.0
 10
-8.74436
 20
-19.10804
 30
0.0
 10
-8.73152
 20
-19.10796
 30
0.0
 10
-8.73152
 20
-19.10796
 30
0.0
 10
-8.71861
 20
-19.10789
 30
0.0
 10
-8.70654
 20
-19.10952
 30
0.0
 10
-8.69532
 20
-19.11276
 30
0.0
 10
-8.69532
 20
-19.11276
 30
0.0
 10
-8.6841
 20
-19.11594
 30
0.0
 10
-8.6743
 20
-19.12116
 30
0.0
 10
-8.66576
 20
-19.12836
 30
0.0
 10
-8.66576
 20
-19.12836
 30
0.0
 10
-8.65722
 20
-19.13548
 30
0.0
 10
-8.65052
 20
-19.14494
 30
0.0
 10
-8.64572
 20
-19.15672
 30
0.0
 10
-8.64572
 20
-19.15672
 30
0.0
 10
-8.64093
 20
-19.1685
 30
0.0
 10
-8.63846
 20
-19.18282
 30
0.0
 10
-8.63839
 20
-19.19983
 30
0.0
 10
-8.63839
 20
-19.19983
 30
0.0
 10
-8.63846
 20
-19.21683
 30
0.0
 10
-8.64093
 20
-19.23115
 30
0.0
 10
-8.64572
 20
-19.24294
 30
0.0
 10
-8.64572
 20
-19.24294
 30
0.0
 10
-8.65052
 20
-19.25472
 30
0.0
 10
-8.65722
 20
-19.26417
 30
0.0
 10
-8.66576
 20
-19.2713
 30
0.0
 10
-8.66576
 20
-19.2713
 30
0.0
 10
-8.6743
 20
-19.2785
 30
0.0
 10
-8.6841
 20
-19.28372
 30
0.0
 10
-8.69532
 20
-19.28689
 30
0.0
 10
-8.69532
 20
-19.28689
 30
0.0
 10
-8.70654
 20
-19.29014
 30
0.0
 10
-8.71861
 20
-19.29176
 30
0.0
 10
-8.73152
 20
-19.29169
 30
0.0
 10
-8.73152
 20
-19.29169
 30
0.0
 10
-8.74436
 20
-19.29162
 30
0.0
 10
-8.75614
 20
-19.28943
 30
0.0
 10
-8.76694
 20
-19.28506
 30
0.0
 10
-8.76694
 20
-19.28506
 30
0.0
 10
-8.77766
 20
-19.28068
 30
0.0
 10
-8.78697
 20
-19.27447
 30
0.0
 10
-8.79495
 20
-19.26636
 30
0.0
 10
-8.79495
 20
-19.26636
 30
0.0
 10
-8.80292
 20
-19.25832
 30
0.0
 10
-8.8092
 20
-19.24865
 30
0.0
 10
-8.81371
 20
-19.23736
 30
0.0
 10
-8.81371
 20
-19.23736
 30
0.0
 10
-8.8183
 20
-19.22614
 30
0.0
 10
-8.82077
 20
-19.21366
 30
0.0
 10
-8.82126
 20
-19.19983
 30
0.0
 10
-8.82126
 20
-19.19983
 30
0.0
 10
-8.82155
 20
-19.19284
 30
0.0
 10
-8.8219
 20
-19.18452
 30
0.0
 10
-8.82239
 20
-19.17485
 30
0.0
 10
-8.82239
 20
-19.17485
 30
0.0
 10
-8.82289
 20
-19.16511
 30
0.0
 10
-8.82317
 20
-19.15453
 30
0.0
 10
-8.82324
 20
-19.14317
 30
0.0
 10
-8.82324
 20
-19.14317
 30
0.0
 10
-8.82331
 20
-19.13174
 30
0.0
 10
-8.82296
 20
-19.11996
 30
0.0
 10
-8.82204
 20
-19.10789
 30
0.0
 10
-8.82204
 20
-19.10789
 30
0.0
 10
-8.82119
 20
-19.09576
 30
0.0
 10
-8.8195
 20
-19.08383
 30
0.0
 10
-8.81703
 20
-19.07205
 30
0.0
 10
-8.81703
 20
-19.07205
 30
0.0
 10
-8.81456
 20
-19.06034
 30
0.0
 10
-8.81103
 20
-19.04926
 30
0.0
 10
-8.80638
 20
-19.03889
 30
0.0
 10
-8.80638
 20
-19.03889
 30
0.0
 10
-8.80172
 20
-19.02852
 30
0.0
 10
-8.79572
 20
-19.01935
 30
0.0
 10
-8.78831
 20
-19.01137
 30
0.0
 10
-8.78831
 20
-19.01137
 30
0.0
 10
-8.78084
 20
-19.0034
 30
0.0
 10
-8.77173
 20
-18.99712
 30
0.0
 10
-8.76094
 20
-18.99254
 30
0.0
 10
-8.76094
 20
-18.99254
 30
0.0
 10
-8.75014
 20
-18.98802
 30
0.0
 10
-8.73737
 20
-18.98569
 30
0.0
 10
-8.72263
 20
-18.98562
 30
0.0
 10
-8.72263
 20
-18.98562
 30
0.0
 10
-8.70979
 20
-18.98569
 30
0.0
 10
-8.69892
 20
-18.98696
 30
0.0
 10
-8.68989
 20
-18.98943
 30
0.0
 10
-8.68989
 20
-18.98943
 30
0.0
 10
-8.68086
 20
-18.9919
 30
0.0
 10
-8.67345
 20
-18.99522
 30
0.0
 10
-8.66752
 20
-18.99931
 30
0.0
 10
-8.66752
 20
-18.99931
 30
0.0
 10
-8.66167
 20
-19.00347
 30
0.0
 10
-8.65701
 20
-19.00799
 30
0.0
 10
-8.65363
 20
-19.013
 30
0.0
 10
-8.65363
 20
-19.013
 30
0.0
 10
-8.65024
 20
-19.01794
 30
0.0
 10
-8.6477
 20
-19.02295
 30
0.0
 10
-8.64615
 20
-19.02796
 30
0.0
 10
-8.64615
 20
-19.02796
 30
0.0
 10
-8.64452
 20
-19.03296
 30
0.0
 10
-8.64347
 20
-19.03762
 30
0.0
 10
-8.64304
 20
-19.04193
 30
0.0
 10
-8.64304
 20
-19.04193
 30
0.0
 10
-8.64347
 20
-19.03762
 30
0.0
 10
-8.64452
 20
-19.03296
 30
0.0
 10
-8.64615
 20
-19.02796
 30
0.0
 10
-8.64615
 20
-19.02796
 30
0.0
 10
-8.6477
 20
-19.02295
 30
0.0
 10
-8.65024
 20
-19.01794
 30
0.0
 10
-8.65363
 20
-19.013
 30
0.0
 10
-8.65363
 20
-19.013
 30
0.0
 10
-8.65701
 20
-19.00799
 30
0.0
 10
-8.66167
 20
-19.00347
 30
0.0
 10
-8.66752
 20
-18.99931
 30
0.0
 10
-8.66752
 20
-18.99931
 30
0.0
 10
-8.67345
 20
-18.99522
 30
0.0
 10
-8.68086
 20
-18.9919
 30
0.0
 10
-8.68989
 20
-18.98943
 30
0.0
 10
-8.68989
 20
-18.98943
 30
0.0
 10
-8.69892
 20
-18.98696
 30
0.0
 10
-8.70979
 20
-18.98569
 30
0.0
 10
-8.72263
 20
-18.98562
 30
0.0
 10
-8.72263
 20
-18.98562
 30
0.0
 10
-8.73737
 20
-18.98569
 30
0.0
 10
-8.75014
 20
-18.98802
 30
0.0
 10
-8.76094
 20
-18.99254
 30
0.0
 10
-8.76094
 20
-18.99254
 30
0.0
 10
-8.77173
 20
-18.99712
 30
0.0
 10
-8.78084
 20
-19.0034
 30
0.0
 10
-8.78831
 20
-19.01137
 30
0.0
 10
-8.78831
 20
-19.01137
 30
0.0
 10
-8.79572
 20
-19.01935
 30
0.0
 10
-8.80172
 20
-19.02852
 30
0.0
 10
-8.80638
 20
-19.03889
 30
0.0
 10
-8.80638
 20
-19.03889
 30
0.0
 10
-8.81103
 20
-19.04926
 30
0.0
 10
-8.81456
 20
-19.06034
 30
0.0
 10
-8.81703
 20
-19.07205
 30
0.0
 10
-8.81703
 20
-19.07205
 30
0.0
 10
-8.8195
 20
-19.08383
 30
0.0
 10
-8.82119
 20
-19.09576
 30
0.0
 10
-8.82204
 20
-19.10789
 30
0.0
 10
-8.82204
 20
-19.10789
 30
0.0
 10
-8.82296
 20
-19.11996
 30
0.0
 10
-8.82331
 20
-19.13174
 30
0.0
 10
-8.82324
 20
-19.14317
 30
0.0
 10
-8.82324
 20
-19.14317
 30
0.0
 10
-8.82317
 20
-19.15453
 30
0.0
 10
-8.82289
 20
-19.16511
 30
0.0
 10
-8.82239
 20
-19.17485
 30
0.0
 10
-8.82239
 20
-19.17485
 30
0.0
 10
-8.8219
 20
-19.18452
 30
0.0
 10
-8.82155
 20
-19.19284
 30
0.0
 10
-8.82126
 20
-19.19983
 30
0.0
 10
-8.82126
 20
-19.19983
 30
0.0
 10
-8.82077
 20
-19.21366
 30
0.0
 10
-8.8183
 20
-19.22614
 30
0.0
 10
-8.81371
 20
-19.23736
 30
0.0
 10
-8.81371
 20
-19.23736
 30
0.0
 10
-8.8092
 20
-19.24865
 30
0.0
 10
-8.80292
 20
-19.25832
 30
0.0
 10
-8.79495
 20
-19.26636
 30
0.0
 10
-8.79495
 20
-19.26636
 30
0.0
 10
-8.78697
 20
-19.27447
 30
0.0
 10
-8.77766
 20
-19.28068
 30
0.0
 10
-8.76694
 20
-19.28506
 30
0.0
 10
-8.76694
 20
-19.28506
 30
0.0
 10
-8.75614
 20
-19.28943
 30
0.0
 10
-8.74436
 20
-19.29162
 30
0.0
 10
-8.73152
 20
-19.29169
 30
0.0
 10
-8.73152
 20
-19.29169
 30
0.0
 10
-8.71861
 20
-19.29176
 30
0.0
 10
-8.70654
 20
-19.29014
 30
0.0
 10
-8.69532
 20
-19.28689
 30
0.0
 10
-8.69532
 20
-19.28689
 30
0.0
 10
-8.6841
 20
-19.28372
 30
0.0
 10
-8.6743
 20
-19.2785
 30
0.0
 10
-8.66576
 20
-19.2713
 30
0.0
 10
-8.66576
 20
-19.2713
 30
0.0
 10
-8.65722
 20
-19.26417
 30
0.0
 10
-8.65052
 20
-19.25472
 30
0.0
 10
-8.64572
 20
-19.24294
 30
0.0
 10
-8.64572
 20
-19.24294
 30
0.0
 10
-8.64093
 20
-19.23115
 30
0.0
 10
-8.63846
 20
-19.21683
 30
0.0
 10
-8.63839
 20
-19.19983
 30
0.0
 10
-8.63839
 20
-19.19983
 30
0.0
 10
-8.63846
 20
-19.18282
 30
0.0
 10
-8.64093
 20
-19.1685
 30
0.0
 10
-8.64572
 20
-19.15672
 30
0.0
 10
-8.64572
 20
-19.15672
 30
0.0
 10
-8.65052
 20
-19.14494
 30
0.0
 10
-8.65722
 20
-19.13548
 30
0.0
 10
-8.66576
 20
-19.12836
 30
0.0
 10
-8.66576
 20
-19.12836
 30
0.0
 10
-8.6743
 20
-19.12116
 30
0.0
 10
-8.6841
 20
-19.11594
 30
0.0
 10
-8.69532
 20
-19.11276
 30
0.0
 10
-8.69532
 20
-19.11276
 30
0.0
 10
-8.70654
 20
-19.10952
 30
0.0
 10
-8.71861
 20
-19.10789
 30
0.0
 10
-8.73152
 20
-19.10796
 30
0.0
 10
-8.73152
 20
-19.10796
 30
0.0
 10
-8.74436
 20
-19.10804
 30
0.0
 10
-8.75628
 20
-19.11022
 30
0.0
 10
-8.76715
 20
-19.1146
 30
0.0
 10
-8.76715
 20
-19.1146
 30
0.0
 10
-8.77801
 20
-19.11897
 30
0.0
 10
-8.78754
 20
-19.12518
 30
0.0
 10
-8.79558
 20
-19.13322
 30
0.0
 10
-8.79558
 20
-19.13322
 30
0.0
 10
-8.8037
 20
-19.14134
 30
0.0
 10
-8.80998
 20
-19.151
 30
0.0
 10
-8.81442
 20
-19.16222
 30
0.0
 10
-8.81442
 20
-19.16222
 30
0.0
 10
-8.81894
 20
-19.17351
 30
0.0
 10
-8.82119
 20
-19.186
 30
0.0
 10
-8.82126
 20
-19.19983
 30
0.0
  0
SPLINE
  5
69
330
1F
100
AcDbEntity
  8
Layer 1
 62
    30
370
    53
100
AcDbSpline
210
0.0
220
0.0
230
1.0
 70
    27
 71
     3
 72
    12
 73
     8
 74
     0
 42
0.0000000001
 43
0.0000000001
 40
0.0
 40
0.0
 40
0.0
 40
0.0
 40
0.5
 40
0.5
 40
0.5
 40
0.5
 40
1.0
 40
1.0
 40
1.0
 40
1.0
 10
-8.53721
 20
-19.13209
 30
0.0
 10
-8.53721
 20
-19.13209
 30
0.0
 10
-8.41402
 20
-19.13209
 30
0.0
 10
-8.41402
 20
-19.13209
 30
0.0
 10
-8.41402
 20
-19.13209
 30
0.0
 10
-8.41402
 20
-19.13209
 30
0.0
 10
-8.53721
 20
-19.13209
 30
0.0
 10
-8.53721
 20
-19.13209
 30
0.0
  0
SPLINE
  5
6A
330
1F
100
AcDbEntity
  8
Layer 1
 62
    30
370
    53
100
AcDbSpline
210
0.0
220
0.0
230
1.0
 70
    11
 71
     3
 72
    84
 73
    80
 74
     0
 42
0.0000000001
 43
0.0000000001
 40
0.0
 40
0.0
 40
0.0
 40
0.0
 40
0.05
 40
0.05
 40
0.05
 40
0.05
 40
0.1
 40
0.1
 40
0.1
 40
0.1
 40
0.15
 40
0.15
 40
0.15
 40
0.15
 40
0.2
 40
0.2
 40
0.2
 40
0.2
 40
0.25
 40
0.25
 40
0.25
 40
0.25
 40
0.3
 40
0.3
 40
0.3
 40
0.3
 40
0.35
 40
0.35
 40
0.35
 40
0.35
 40
0.4
 40
0.4
 40
0.4
 40
0.4
 40
0.45
 40
0.45
 40
0.45
 40
0.45
 40
0.4999999999999999
 40
0.4999999999999999
 40
0.4999999999999999
 40
0.4999999999999999
 40
0.5499999999999999
 40
0.5499999999999999
 40
0.5499999999999999
 40
0.5499999999999999
 40
0.6
 40
0.6
 40
0.6
 40
0.6
 40
0.65
 40
0.65
 40
0.65
 40
0.65
 40
0.7000000000000001
 40
0.7000000000000001
 40
0.7000000000000001
 40
0.7000000000000001
 40
0.7500000000000001
 40
0.7500000000000001
 40
0.7500000000000001
 40
0.7500000000000001
 40
0.8000000000000002
 40
0.8000000000000002
 40
0.8000000000000002
 40
0.8000000000000002
 40
0.8500000000000002
 40
0.8500000000000002
 40
0.8500000000000002
 40
0.8500000000000002
 40
0.9000000000000002
 40
0.9000000000000002
 40
0.9000000000000002
 40
0.9000000000000002
 40
0.9500000000000003
 40
0.9500000000000003
 40
0.9500000000000003
 40
0.9500000000000003
 40
1.0
 40
1.0
 40
1.0
 40
1.0
 10
-8.22479
 20
-19.29169
 30
0.0
 10
-8.20998
 20
-19.29162
 30
0.0
 10
-8.19721
 20
-19.28901
 30
0.0
 10
-8.18655
 20
-19.28393
 30
0.0
 10
-8.18655
 20
-19.28393
 30
0.0
 10
-8.17597
 20
-19.27885
 30
0.0
 10
-8.16715
 20
-19.27158
 30
0.0
 10
-8.1601
 20
-19.26234
 30
0.0
 10
-8.1601
 20
-19.26234
 30
0.0
 10
-8.15311
 20
-19.25303
 30
0.0
 10
-8.14761
 20
-19.24202
 30
0.0
 10
-8.14352
 20
-19.22932
 30
0.0
 10
-8.14352
 20
-19.22932
 30
0.0
 10
-8.13949
 20
-19.21662
 30
0.0
 10
-8.1366
 20
-19.20272
 30
0.0
 10
-8.13498
 20
-19.18748
 30
0.0
 10
-8.13498
 20
-19.18748
 30
0.0
 10
-8.13328
 20
-19.17224
 30
0.0
 10
-8.13244
 20
-19.15622
 30
0.0
 10
-8.13251
 20
-19.13929
 30
0.0
 10
-8.13251
 20
-19.13929
 30
0.0
 10
-8.13244
 20
-19.12243
 30
0.0
 10
-8.13328
 20
-19.10641
 30
0.0
 10
-8.13498
 20
-19.09124
 30
0.0
 10
-8.13498
 20
-19.09124
 30
0.0
 10
-8.1366
 20
-19.07607
 30
0.0
 10
-8.13949
 20
-19.0621
 30
0.0
 10
-8.14352
 20
-19.0494
 30
0.0
 10
-8.14352
 20
-19.0494
 30
0.0
 10
-8.14761
 20
-19.03677
 30
0.0
 10
-8.15311
 20
-19.02577
 30
0.0
 10
-8.1601
 20
-19.01638
 30
0.0
 10
-8.1601
 20
-19.01638
 30
0.0
 10
-8.16715
 20
-19.00707
 30
0.0
 10
-8.17597
 20
-18.9998
 30
0.0
 10
-8.18655
 20
-18.99472
 30
0.0
 10
-8.18655
 20
-18.99472
 30
0.0
 10
-8.19721
 20
-18.98957
 30
0.0
 10
-8.20998
 20
-18.98696
 30
0.0
 10
-8.22479
 20
-18.98689
 30
0.0
 10
-8.22479
 20
-18.98689
 30
0.0
 10
-8.23961
 20
-18.98696
 30
0.0
 10
-8.25238
 20
-18.98957
 30
0.0
 10
-8.26304
 20
-18.99472
 30
0.0
 10
-8.26304
 20
-18.99472
 30
0.0
 10
-8.27362
 20
-18.9998
 30
0.0
 10
-8.28244
 20
-19.00707
 30
0.0
 10
-8.28949
 20
-19.01638
 30
0.0
 10
-8.28949
 20
-19.01638
 30
0.0
 10
-8.29648
 20
-19.02577
 30
0.0
 10
-8.30198
 20
-19.03677
 30
0.0
 10
-8.30607
 20
-19.0494
 30
0.0
 10
-8.30607
 20
-19.0494
 30
0.0
 10
-8.3101
 20
-19.0621
 30
0.0
 10
-8.31299
 20
-19.07607
 30
0.0
 10
-8.31461
 20
-19.09124
 30
0.0
 10
-8.31461
 20
-19.09124
 30
0.0
 10
-8.3163
 20
-19.10641
 30
0.0
 10
-8.31715
 20
-19.12243
 30
0.0
 10
-8.31708
 20
-19.13929
 30
0.0
 10
-8.31708
 20
-19.13929
 30
0.0
 10
-8.31715
 20
-19.15622
 30
0.0
 10
-8.3163
 20
-19.17224
 30
0.0
 10
-8.31461
 20
-19.18748
 30
0.0
 10
-8.31461
 20
-19.18748
 30
0.0
 10
-8.31299
 20
-19.20272
 30
0.0
 10
-8.3101
 20
-19.21662
 30
0.0
 10
-8.30607
 20
-19.22932
 30
0.0
 10
-8.30607
 20
-19.22932
 30
0.0
 10
-8.30198
 20
-19.24202
 30
0.0
 10
-8.29648
 20
-19.25303
 30
0.0
 10
-8.28949
 20
-19.26234
 30
0.0
 10
-8.28949
 20
-19.26234
 30
0.0
 10
-8.28244
 20
-19.27158
 30
0.0
 10
-8.27362
 20
-19.27885
 30
0.0
 10
-8.26304
 20
-19.28393
 30
0.0
 10
-8.26304
 20
-19.28393
 30
0.0
 10
-8.25238
 20
-19.28901
 30
0.0
 10
-8.23961
 20
-19.29162
 30
0.0
 10
-8.22479
 20
-19.29169
 30
0.0
  0
SPLINE
  5
6B
330
1F
100
AcDbEntity
  8
Layer 1
 62
    30
370
    53
100
AcDbSpline
210
0.0
220
0.0
230
1.0
 70
    11
 71
     3
 72
    84
 73
    80
 74
     0
 42
0.0000000001
 43
0.0000000001
 40
0.0
 40
0.0
 40
0.0
 40
0.0
 40
0.05
 40
0.05
 40
0.05
 40
0.05
 40
0.1
 40
0.1
 40
0.1
 40
0.1
 40
0.15
 40
0.15
 40
0.15
 40
0.15
 40
0.2
 40
0.2
 40
0.2
 40
0.2
 40
0.25
 40
0.25
 40
0.25
 40
0.25
 40
0.3
 40
0.3
 40
0.3
 40
0.3
 40
0.35
 40
0.35
 40
0.35
 40
0.35
 40
0.4
 40
0.4
 40
0.4
 40
0.4
 40
0.45
 40
0.45
 40
0.45
 40
0.45
 40
0.4999999999999999
 40
0.4999999999999999
 40
0.4999999999999999
 40
0.4999999999999999
 40
0.5499999999999999
 40
0.5499999999999999
 40
0.5499999999999999
 40
0.5499999999999999
 40
0.6
 40
0.6
 40
0.6
 40
0.6
 40
0.65
 40
0.65
 40
0.65
 40
0.65
 40
0.7000000000000001
 40
0.7000000000000001
 40
0.7000000000000001
 40
0.7000000000000001
 40
0.7500000000000001
 40
0.7500000000000001
 40
0.7500000000000001
 40
0.7500000000000001
 40
0.8000000000000002
 40
0.8000000000000002
 40
0.8000000000000002
 40
0.8000000000000002
 40
0.8500000000000002
 40
0.8500000000000002
 40
0.8500000000000002
 40
0.8500000000000002
 40
0.9000000000000002
 40
0.9000000000000002
 40
0.9000000000000002
 40
0.9000000000000002
 40
0.9500000000000003
 40
0.9500000000000003
 40
0.9500000000000003
 40
0.9500000000000003
 40
1.0
 40
1.0
 40
1.0
 40
1.0
 10
-8.22479
 20
-19.29169
 30
0.0
 10
-8.20998
 20
-19.29162
 30
0.0
 10
-8.19721
 20
-19.28901
 30
0.0
 10
-8.18655
 20
-19.28393
 30
0.0
 10
-8.18655
 20
-19.28393
 30
0.0
 10
-8.17597
 20
-19.27885
 30
0.0
 10
-8.16715
 20
-19.27158
 30
0.0
 10
-8.1601
 20
-19.26234
 30
0.0
 10
-8.1601
 20
-19.26234
 30
0.0
 10
-8.15311
 20
-19.25303
 30
0.0
 10
-8.14761
 20
-19.24202
 30
0.0
 10
-8.14352
 20
-19.22932
 30
0.0
 10
-8.14352
 20
-19.22932
 30
0.0
 10
-8.13949
 20
-19.21662
 30
0.0
 10
-8.1366
 20
-19.20272
 30
0.0
 10
-8.13498
 20
-19.18748
 30
0.0
 10
-8.13498
 20
-19.18748
 30
0.0
 10
-8.13328
 20
-19.17224
 30
0.0
 10
-8.13244
 20
-19.15622
 30
0.0
 10
-8.13251
 20
-19.13929
 30
0.0
 10
-8.13251
 20
-19.13929
 30
0.0
 10
-8.13244
 20
-19.12243
 30
0.0
 10
-8.13328
 20
-19.10641
 30
0.0
 10
-8.13498
 20
-19.09124
 30
0.0
 10
-8.13498
 20
-19.09124
 30
0.0
 10
-8.1366
 20
-19.07607
 30
0.0
 10
-8.13949
 20
-19.0621
 30
0.0
 10
-8.14352
 20
-19.0494
 30
0.0
 10
-8.14352
 20
-19.0494
 30
0.0
 10
-8.14761
 20
-19.03677
 30
0.0
 10
-8.15311
 20
-19.02577
 30
0.0
 10
-8.1601
 20
-19.01638
 30
0.0
 10
-8.1601
 20
-19.01638
 30
0.0
 10
-8.16715
 20
-19.00707
 30
0.0
 10
-8.17597
 20
-18.9998
 30
0.0
 10
-8.18655
 20
-18.99472
 30
0.0
 10
-8.18655
 20
-18.99472
 30
0.0
 10
-8.19721
 20
-18.98957
 30
0.0
 10
-8.20998
 20
-18.98696
 30
0.0
 10
-8.22479
 20
-18.98689
 30
0.0
 10
-8.22479
 20
-18.98689
 30
0.0
 10
-8.23961
 20
-18.98696
 30
0.0
 10
-8.25238
 20
-18.98957
 30
0.0
 10
-8.26304
 20
-18.99472
 30
0.0
 10
-8.26304
 20
-18.99472
 30
0.0
 10
-8.27362
 20
-18.9998
 30
0.0
 10
-8.28244
 20
-19.00707
 30
0.0
 10
-8.28949
 20
-19.01638
 30
0.0
 10
-8.28949
 20
-19.01638
 30
0.0
 10
-8.29648
 20
-19.02577
 30
0.0
 10
-8.30198
 20
-19.03677
 30
0.0
 10
-8.30607
 20
-19.0494
 30
0.0
 10
-8.30607
 20
-19.0494
 30
0.0
 10
-8.3101
 20
-19.0621
 30
0.0
 10
-8.31299
 20
-19.07607
 30
0.0
 10
-8.31461
 20
-19.09124
 30
0.0
 10
-8.31461
 20
-19.09124
 30
0.0
 10
-8.3163
 20
-19.10641
 30
0.0
 10
-8.31715
 20
-19.12243
 30
0.0
 10
-8.31708
 20
-19.13929
 30
0.0
 10
-8.31708
 20
-19.13929
 30
0.0
 10
-8.31715
 20
-19.15622
 30
0.0
 10
-8.3163
 20
-19.17224
 30
0.0
 10
-8.31461
 20
-19.18748
 30
0.0
 10
-8.31461
 20
-19.18748
 30
0.0
 10
-8.31299
 20
-19.20272
 30
0.0
 10
-8.3101
 20
-19.21662
 30
0.0
 10
-8.30607
 20
-19.22932
 30
0.0
 10
-8.30607
 20
-19.22932
 30
0.0
 10
-8.30198
 20
-19.24202
 30
0.0
 10
-8.29648
 20
-19.25303
 30
0.0
 10
-8.28949
 20
-19.26234
 30
0.0
 10
-8.28949
 20
-19.26234
 30
0.0
 10
-8.28244
 20
-19.27158
 30
0.0
 10
-8.27362
 20
-19.27885
 30
0.0
 10
-8.26304
 20
-19.28393
 30
0.0
 10
-8.26304
 20
-19.28393
 30
0.0
 10
-8.25238
 20
-19.28901
 30
0.0
 10
-8.23961
 20
-19.29162
 30
0.0
 10
-8.22479
 20
-19.29169
 30
0.0
  0
SPLINE
  5
6C
330
1F
100
AcDbEntity
  8
Layer 1
 62
    30
370
    53
100
AcDbSpline
210
0.0
220
0.0
230
1.0
 70
    11
 71
     3
 72
   236
 73
   232
 74
     0
 42
0.0000000001
 43
0.0000000001
 40
0.0
 40
0.0
 40
0.0
 40
0.0
 40
0.0172413793103448
 40
0.0172413793103448
 40
0.0172413793103448
 40
0.0172413793103448
 40
0.0344827586206897
 40
0.0344827586206897
 40
0.0344827586206897
 40
0.0344827586206897
 40
0.0517241379310345
 40
0.0517241379310345
 40
0.0517241379310345
 40
0.0517241379310345
 40
0.0689655172413793
 40
0.0689655172413793
 40
0.0689655172413793
 40
0.0689655172413793
 40
0.0862068965517241
 40
0.0862068965517241
 40
0.0862068965517241
 40
0.0862068965517241
 40
0.103448275862069
 40
0.103448275862069
 40
0.103448275862069
 40
0.103448275862069
 40
0.1206896551724138
 40
0.1206896551724138
 40
0.1206896551724138
 40
0.1206896551724138
 40
0.1379310344827586
 40
0.1379310344827586
 40
0.1379310344827586
 40
0.1379310344827586
 40
0.1551724137931035
 40
0.1551724137931035
 40
0.1551724137931035
 40
0.1551724137931035
 40
0.1724137931034483
 40
0.1724137931034483
 40
0.1724137931034483
 40
0.1724137931034483
 40
0.1896551724137931
 40
0.1896551724137931
 40
0.1896551724137931
 40
0.1896551724137931
 40
0.206896551724138
 40
0.206896551724138
 40
0.206896551724138
 40
0.206896551724138
 40
0.2241379310344828
 40
0.2241379310344828
 40
0.2241379310344828
 40
0.2241379310344828
 40
0.2413793103448277
 40
0.2413793103448277
 40
0.2413793103448277
 40
0.2413793103448277
 40
0.2586206896551725
 40
0.2586206896551725
 40
0.2586206896551725
 40
0.2586206896551725
 40
0.2758620689655173
 40
0.2758620689655173
 40
0.2758620689655173
 40
0.2758620689655173
 40
0.2931034482758621
 40
0.2931034482758621
 40
0.2931034482758621
 40
0.2931034482758621
 40
0.3103448275862069
 40
0.3103448275862069
 40
0.3103448275862069
 40
0.3103448275862069
 40
0.3275862068965517
 40
0.3275862068965517
 40
0.3275862068965517
 40
0.3275862068965517
 40
0.3448275862068965
 40
0.3448275862068965
 40
0.3448275862068965
 40
0.3448275862068965
 40
0.3620689655172413
 40
0.3620689655172413
 40
0.3620689655172413
 40
0.3620689655172413
 40
0.3793103448275861
 40
0.3793103448275861
 40
0.3793103448275861
 40
0.3793103448275861
 40
0.3965517241379309
 40
0.3965517241379309
 40
0.3965517241379309
 40
0.3965517241379309
 40
0.4137931034482757
 40
0.4137931034482757
 40
0.4137931034482757
 40
0.4137931034482757
 40
0.4310344827586206
 40
0.4310344827586206
 40
0.4310344827586206
 40
0.4310344827586206
 40
0.4482758620689654
 40
0.4482758620689654
 40
0.4482758620689654
 40
0.4482758620689654
 40
0.4655172413793102
 40
0.4655172413793102
 40
0.4655172413793102
 40
0.4655172413793102
 40
0.482758620689655
 40
0.482758620689655
 40
0.482758620689655
 40
0.482758620689655
 40
0.4999999999999998
 40
0.4999999999999998
 40
0.4999999999999998
 40
0.4999999999999998
 40
0.5172413793103446
 40
0.5172413793103446
 40
0.5172413793103446
 40
0.5172413793103446
 40
0.5344827586206895
 40
0.5344827586206895
 40
0.5344827586206895
 40
0.5344827586206895
 40
0.5517241379310344
 40
0.5517241379310344
 40
0.5517241379310344
 40
0.5517241379310344
 40
0.5689655172413792
 40
0.5689655172413792
 40
0.5689655172413792
 40
0.5689655172413792
 40
0.5862068965517241
 40
0.5862068965517241
 40
0.5862068965517241
 40
0.5862068965517241
 40
0.603448275862069
 40
0.603448275862069
 40
0.603448275862069
 40
0.603448275862069
 40
0.6206896551724138
 40
0.6206896551724138
 40
0.6206896551724138
 40
0.6206896551724138
 40
0.6379310344827587
 40
0.6379310344827587
 40
0.6379310344827587
 40
0.6379310344827587
 40
0.6551724137931035
 40
0.6551724137931035
 40
0.6551724137931035
 40
0.6551724137931035
 40
0.6724137931034484
 40
0.6724137931034484
 40
0.6724137931034484
 40
0.6724137931034484
 40
0.6896551724137933
 40
0.6896551724137933
 40
0.6896551724137933
 40
0.6896551724137933
 40
0.7068965517241381
 40
0.7068965517241381
 40
0.7068965517241381
 40
0.7068965517241381
 40
0.724137931034483
 40
0.724137931034483
 40
0.724137931034483
 40
0.724137931034483
 40
0.7413793103448278
 40
0.7413793103448278
 40
0.7413793103448278
 40
0.7413793103448278
 40
0.7586206896551727
 40
0.7586206896551727
 40
0.7586206896551727
 40
0.7586206896551727
 40
0.7758620689655176
 40
0.7758620689655176
 40
0.7758620689655176
 40
0.7758620689655176
 40
0.7931034482758624
 40
0.7931034482758624
 40
0.7931034482758624
 40
0.7931034482758624
 40
0.8103448275862073
 40
0.8103448275862073
 40
0.8103448275862073
 40
0.8103448275862073
 40
0.8275862068965522
 40
0.8275862068965522
 40
0.8275862068965522
 40
0.8275862068965522
 40
0.844827586206897
 40
0.844827586206897
 40
0.844827586206897
 40
0.844827586206897
 40
0.8620689655172419
 40
0.8620689655172419
 40
0.8620689655172419
 40
0.8620689655172419
 40
0.8793103448275867
 40
0.8793103448275867
 40
0.8793103448275867
 40
0.8793103448275867
 40
0.8965517241379316
 40
0.8965517241379316
 40
0.8965517241379316
 40
0.8965517241379316
 40
0.9137931034482765
 40
0.9137931034482765
 40
0.9137931034482765
 40
0.9137931034482765
 40
0.9310344827586213
 40
0.9310344827586213
 40
0.9310344827586213
 40
0.9310344827586213
 40
0.9482758620689662
 40
0.9482758620689662
 40
0.9482758620689662
 40
0.9482758620689662
 40
0.965517241379311
 40
0.965517241379311
 40
0.965517241379311
 40
0.965517241379311
 40
0.9827586206896559
 40
0.9827586206896559
 40
0.9827586206896559
 40
0.9827586206896559
 40
1.0
 40
1.0
 40
1.0
 40
1.0
 10
-8.01228
 20
-19.19983
 30
0.0
 10
-8.01221
 20
-19.186
 30
0.0
 10
-8.00996
 20
-19.17351
 30
0.0
 10
-8.00544
 20
-19.16222
 30
0.0
 10
-8.00544
 20
-19.16222
 30
0.0
 10
-8.001
 20
-19.151
 30
0.0
 10
-7.99472
 20
-19.14134
 30
0.0
 10
-7.9866
 20
-19.13322
 30
0.0
 10
-7.9866
 20
-19.13322
 30
0.0
 10
-7.97856
 20
-19.12518
 30
0.0
 10
-7.96903
 20
-19.11897
 30
0.0
 10
-7.95817
 20
-19.1146
 30
0.0
 10
-7.95817
 20
-19.1146
 30
0.0
 10
-7.9473
 20
-19.11022
 30
0.0
 10
-7.93538
 20
-19.10804
 30
0.0
 10
-7.92254
 20
-19.10796
 30
0.0
 10
-7.92254
 20
-19.10796
 30
0.0
 10
-7.90963
 20
-19.10789
 30
0.0
 10
-7.89756
 20
-19.10952
 30
0.0
 10
-7.88634
 20
-19.11276
 30
0.0
 10
-7.88634
 20
-19.11276
 30
0.0
 10
-7.87512
 20
-19.11594
 30
0.0
 10
-7.86532
 20
-19.12116
 30
0.0
 10
-7.85678
 20
-19.12836
 30
0.0
 10
-7.85678
 20
-19.12836
 30
0.0
 10
-7.84824
 20
-19.13548
 30
0.0
 10
-7.84154
 20
-19.14494
 30
0.0
 10
-7.83674
 20
-19.15672
 30
0.0
 10
-7.83674
 20
-19.15672
 30
0.0
 10
-7.83195
 20
-19.1685
 30
0.0
 10
-7.82948
 20
-19.18282
 30
0.0
 10
-7.82941
 20
-19.19983
 30
0.0
 10
-7.82941
 20
-19.19983
 30
0.0
 10
-7.82948
 20
-19.21683
 30
0.0
 10
-7.83195
 20
-19.23115
 30
0.0
 10
-7.83674
 20
-19.24294
 30
0.0
 10
-7.83674
 20
-19.24294
 30
0.0
 10
-7.84154
 20
-19.25472
 30
0.0
 10
-7.84824
 20
-19.26417
 30
0.0
 10
-7.85678
 20
-19.2713
 30
0.0
 10
-7.85678
 20
-19.2713
 30
0.0
 10
-7.86532
 20
-19.2785
 30
0.0
 10
-7.87512
 20
-19.28372
 30
0.0
 10
-7.88634
 20
-19.28689
 30
0.0
 10
-7.88634
 20
-19.28689
 30
0.0
 10
-7.89756
 20
-19.29014
 30
0.0
 10
-7.90963
 20
-19.29176
 30
0.0
 10
-7.92254
 20
-19.29169
 30
0.0
 10
-7.92254
 20
-19.29169
 30
0.0
 10
-7.93538
 20
-19.29162
 30
0.0
 10
-7.94716
 20
-19.28943
 30
0.0
 10
-7.95796
 20
-19.28506
 30
0.0
 10
-7.95796
 20
-19.28506
 30
0.0
 10
-7.96868
 20
-19.28068
 30
0.0
 10
-7.97799
 20
-19.27447
 30
0.0
 10
-7.98597
 20
-19.26636
 30
0.0
 10
-7.98597
 20
-19.26636
 30
0.0
 10
-7.99394
 20
-19.25832
 30
0.0
 10
-8.00022
 20
-19.24865
 30
0.0
 10
-8.00473
 20
-19.23736
 30
0.0
 10
-8.00473
 20
-19.23736
 30
0.0
 10
-8.00932
 20
-19.22614
 30
0.0
 10
-8.01179
 20
-19.21366
 30
0.0
 10
-8.01228
 20
-19.19983
 30
0.0
 10
-8.01228
 20
-19.19983
 30
0.0
 10
-8.01257
 20
-19.19284
 30
0.0
 10
-8.01292
 20
-19.18452
 30
0.0
 10
-8.01341
 20
-19.17485
 30
0.0
 10
-8.01341
 20
-19.17485
 30
0.0
 10
-8.01391
 20
-19.16511
 30
0.0
 10
-8.01419
 20
-19.15453
 30
0.0
 10
-8.01426
 20
-19.14317
 30
0.0
 10
-8.01426
 20
-19.14317
 30
0.0
 10
-8.01433
 20
-19.13174
 30
0.0
 10
-8.01398
 20
-19.11996
 30
0.0
 10
-8.01306
 20
-19.10789
 30
0.0
 10
-8.01306
 20
-19.10789
 30
0.0
 10
-8.01221
 20
-19.09576
 30
0.0
 10
-8.01052
 20
-19.08383
 30
0.0
 10
-8.00805
 20
-19.07205
 30
0.0
 10
-8.00805
 20
-19.07205
 30
0.0
 10
-8.00558
 20
-19.06034
 30
0.0
 10
-8.00205
 20
-19.04926
 30
0.0
 10
-7.9974
 20
-19.03889
 30
0.0
 10
-7.9974
 20
-19.03889
 30
0.0
 10
-7.99274
 20
-19.02852
 30
0.0
 10
-7.98674
 20
-19.01935
 30
0.0
 10
-7.97933
 20
-19.01137
 30
0.0
 10
-7.97933
 20
-19.01137
 30
0.0
 10
-7.97186
 20
-19.0034
 30
0.0
 10
-7.96275
 20
-18.99712
 30
0.0
 10
-7.95196
 20
-18.99254
 30
0.0
 10
-7.95196
 20
-18.99254
 30
0.0
 10
-7.94116
 20
-18.98802
 30
0.0
 10
-7.92839
 20
-18.98569
 30
0.0
 10
-7.91365
 20
-18.98562
 30
0.0
 10
-7.91365
 20
-18.98562
 30
0.0
 10
-7.90081
 20
-18.98569
 30
0.0
 10
-7.88994
 20
-18.98696
 30
0.0
 10
-7.88091
 20
-18.98943
 30
0.0
 10
-7.88091
 20
-18.98943
 30
0.0
 10
-7.87188
 20
-18.9919
 30
0.0
 10
-7.86447
 20
-18.99522
 30
0.0
 10
-7.85854
 20
-18.99931
 30
0.0
 10
-7.85854
 20
-18.99931
 30
0.0
 10
-7.85269
 20
-19.00347
 30
0.0
 10
-7.84803
 20
-19.00799
 30
0.0
 10
-7.84465
 20
-19.013
 30
0.0
 10
-7.84465
 20
-19.013
 30
0.0
 10
-7.84126
 20
-19.01794
 30
0.0
 10
-7.83872
 20
-19.02295
 30
0.0
 10
-7.83717
 20
-19.02796
 30
0.0
 10
-7.83717
 20
-19.02796
 30
0.0
 10
-7.83554
 20
-19.03296
 30
0.0
 10
-7.83449
 20
-19.03762
 30
0.0
 10
-7.83406
 20
-19.04193
 30
0.0
 10
-7.83406
 20
-19.04193
 30
0.0
 10
-7.83449
 20
-19.03762
 30
0.0
 10
-7.83554
 20
-19.03296
 30
0.0
 10
-7.83717
 20
-19.02796
 30
0.0
 10
-7.83717
 20
-19.02796
 30
0.0
 10
-7.83872
 20
-19.02295
 30
0.0
 10
-7.84126
 20
-19.01794
 30
0.0
 10
-7.84465
 20
-19.013
 30
0.0
 10
-7.84465
 20
-19.013
 30
0.0
 10
-7.84803
 20
-19.00799
 30
0.0
 10
-7.85269
 20
-19.00347
 30
0.0
 10
-7.85854
 20
-18.99931
 30
0.0
 10
-7.85854
 20
-18.99931
 30
0.0
 10
-7.86447
 20
-18.99522
 30
0.0
 10
-7.87188
 20
-18.9919
 30
0.0
 10
-7.88091
 20
-18.98943
 30
0.0
 10
-7.88091
 20
-18.98943
 30
0.0
 10
-7.88994
 20
-18.98696
 30
0.0
 10
-7.90081
 20
-18.98569
 30
0.0
 10
-7.91365
 20
-18.98562
 30
0.0
 10
-7.91365
 20
-18.98562
 30
0.0
 10
-7.92839
 20
-18.98569
 30
0.0
 10
-7.94116
 20
-18.98802
 30
0.0
 10
-7.95196
 20
-18.99254
 30
0.0
 10
-7.95196
 20
-18.99254
 30
0.0
 10
-7.96275
 20
-18.99712
 30
0.0
 10
-7.97186
 20
-19.0034
 30
0.0
 10
-7.97933
 20
-19.01137
 30
0.0
 10
-7.97933
 20
-19.01137
 30
0.0
 10
-7.98674
 20
-19.01935
 30
0.0
 10
-7.99274
 20
-19.02852
 30
0.0
 10
-7.9974
 20
-19.03889
 30
0.0
 10
-7.9974
 20
-19.03889
 30
0.0
 10
-8.00205
 20
-19.04926
 30
0.0
 10
-8.00558
 20
-19.06034
 30
0.0
 10
-8.00805
 20
-19.07205
 30
0.0
 10
-8.00805
 20
-19.07205
 30
0.0
 10
-8.01052
 20
-19.08383
 30
0.0
 10
-8.01221
 20
-19.09576
 30
0.0
 10
-8.01306
 20
-19.10789
 30
0.0
 10
-8.01306
 20
-19.10789
 30
0.0
 10
-8.01398
 20
-19.11996
 30
0.0
 10
-8.01433
 20
-19.13174
 30
0.0
 10
-8.01426
 20
-19.14317
 30
0.0
 10
-8.01426
 20
-19.14317
 30
0.0
 10
-8.01419
 20
-19.15453
 30
0.0
 10
-8.01391
 20
-19.16511
 30
0.0
 10
-8.01341
 20
-19.17485
 30
0.0
 10
-8.01341
 20
-19.17485
 30
0.0
 10
-8.01292
 20
-19.18452
 30
0.0
 10
-8.01257
 20
-19.19284
 30
0.0
 10
-8.01228
 20
-19.19983
 30
0.0
 10
-8.01228
 20
-19.19983
 30
0.0
 10
-8.01179
 20
-19.21366
 30
0.0
 10
-8.00932
 20
-19.22614
 30
0.0
 10
-8.00473
 20
-19.23736
 30
0.0
 10
-8.00473
 20
-19.23736
 30
0.0
 10
-8.00022
 20
-19.24865
 30
0.0
 10
-7.99394
 20
-19.25832
 30
0.0
 10
-7.98597
 20
-19.26636
 30
0.0
 10
-7.98597
 20
-19.26636
 30
0.0
 10
-7.97799
 20
-19.27447
 30
0.0
 10
-7.96868
 20
-19.28068
 30
0.0
 10
-7.95796
 20
-19.28506
 30
0.0
 10
-7.95796
 20
-19.28506
 30
0.0
 10
-7.94716
 20
-19.28943
 30
0.0
 10
-7.93538
 20
-19.29162
 30
0.0
 10
-7.92254
 20
-19.29169
 30
0.0
 10
-7.92254
 20
-19.29169
 30
0.0
 10
-7.90963
 20
-19.29176
 30
0.0
 10
-7.89756
 20
-19.29014
 30
0.0
 10
-7.88634
 20
-19.28689
 30
0.0
 10
-7.88634
 20
-19.28689
 30
0.0
 10
-7.87512
 20
-19.28372
 30
0.0
 10
-7.86532
 20
-19.2785
 30
0.0
 10
-7.85678
 20
-19.2713
 30
0.0
 10
-7.85678
 20
-19.2713
 30
0.0
 10
-7.84824
 20
-19.26417
 30
0.0
 10
-7.84154
 20
-19.25472
 30
0.0
 10
-7.83674
 20
-19.24294
 30
0.0
 10
-7.83674
 20
-19.24294
 30
0.0
 10
-7.83195
 20
-19.23115
 30
0.0
 10
-7.82948
 20
-19.21683
 30
0.0
 10
-7.82941
 20
-19.19983
 30
0.0
 10
-7.82941
 20
-19.19983
 30
0.0
 10
-7.82948
 20
-19.18282
 30
0.0
 10
-7.83195
 20
-19.1685
 30
0.0
 10
-7.83674
 20
-19.15672
 30
0.0
 10
-7.83674
 20
-19.15672
 30
0.0
 10
-7.84154
 20
-19.14494
 30
0.0
 10
-7.84824
 20
-19.13548
 30
0.0
 10
-7.85678
 20
-19.12836
 30
0.0
 10
-7.85678
 20
-19.12836
 30
0.0
 10
-7.86532
 20
-19.12116
 30
0.0
 10
-7.87512
 20
-19.11594
 30
0.0
 10
-7.88634
 20
-19.11276
 30
0.0
 10
-7.88634
 20
-19.11276
 30
0.0
 10
-7.89756
 20
-19.10952
 30
0.0
 10
-7.90963
 20
-19.10789
 30
0.0
 10
-7.92254
 20
-19.10796
 30
0.0
 10
-7.92254
 20
-19.10796
 30
0.0
 10
-7.93538
 20
-19.10804
 30
0.0
 10
-7.9473
 20
-19.11022
 30
0.0
 10
-7.95817
 20
-19.1146
 30
0.0
 10
-7.95817
 20
-19.1146
 30
0.0
 10
-7.96903
 20
-19.11897
 30
0.0
 10
-7.97856
 20
-19.12518
 30
0.0
 10
-7.9866
 20
-19.13322
 30
0.0
 10
-7.9866
 20
-19.13322
 30
0.0
 10
-7.99472
 20
-19.14134
 30
0.0
 10
-8.001
 20
-19.151
 30
0.0
 10
-8.00544
 20
-19.16222
 30
0.0
 10
-8.00544
 20
-19.16222
 30
0.0
 10
-8.00996
 20
-19.17351
 30
0.0
 10
-8.01221
 20
-19.186
 30
0.0
 10
-8.01228
 20
-19.19983
 30
0.0
  0
ELLIPSE
  5
6D
330
1F
100
AcDbEntity
  8
Layer 1
 62
   250
370
    53
100
AcDbEllipse
 10
-13.49996
 20
-17.84998
 30
0.0
 11
0.0
 21
0.6
 31
0.0
210
0.0
220
0.0
230
1.0
 40
1.0
 41
0.0
 42
6.283185307179586
  0
ELLIPSE
  5
6E
330
1F
100
AcDbEntity
  8
Layer 1
 62
   250
370
    53
100
AcDbEllipse
 10
-13.49996
 20
-15.84998
 30
0.0
 11
0.0
 21
0.6
 31
0.0
210
0.0
220
0.0
230
1.0
 40
1.0
 41
0.0
 42
6.283185307179586
  0
ELLIPSE
  5
6F
330
1F
100
AcDbEntity
  8
Layer 1
 62
   250
370
    53
100
AcDbEllipse
 10
-11.49996
 20
-17.84998
 30
0.0
 11
0.0
 21
0.6
 31
0.0
210
0.0
220
0.0
230
1.0
 40
1.0
 41
0.0
 42
6.283185307179586
  0
ELLIPSE
  5
70
330
1F
100
AcDbEntity
  8
Layer 1
 62
   250
370
    53
100
AcDbEllipse
 10
-11.49996
 20
-15.84998
 30
0.0
 11
0.0
 21
0.6
 31
0.0
210
0.0
220
0.0
230
1.0
 40
1.0
 41
0.0
 42
6.283185307179586
  0
ELLIPSE
  5
71
330
1F
100
AcDbEntity
  8
Layer 1
 62
   250
370
    53
100
AcDbEllipse
 10
-9.49996
 20
-17.84998
 30
0.0
 11
0.0
 21
0.6
 31
0.0
210
0.0
220
0.0
230
1.0
 40
1.0
 41
0.0
 42
6.283185307179586
  0
ELLIPSE
  5
72
330
1F
100
AcDbEntity
  8
Layer 1
 62
   250
370
    53
100
AcDbEllipse
 10
-9.49996
 20
-15.84998
 30
0.0
 11
0.0
 21
0.6
 31
0.0
210
0.0
220
0.0
230
1.0
 40
1.0
 41
0.0
 42
6.283185307179586
  0
ELLIPSE
  5
73
330
1F
100
AcDbEntity
  8
Layer 1
 62
   250
370
    53
100
AcDbEllipse
 10
-11.49996
 20
-13.84998
 30
0.0
 11
0.0
 21
0.6
 31
0.0
210
0.0
220
0.0
230
1.0
 40
1.0
 41
0.0
 42
6.283185307179586
  0
ELLIPSE
  5
74
330
1F
100
AcDbEntity
  8
Layer 1
 62
   250
370
    53
100
AcDbEllipse
 10
-11.49996
 20
-11.84998
 30
0.0
 11
0.0
 21
0.6
 31
0.0
210
0.0
220
0.0
230
1.0
 40
1.0
 41
0.0
 42
6.283185307179586
  0
ELLIPSE
  5
75
330
1F
100
AcDbEntity
  8
Layer 1
 62
   250
370
    53
100
AcDbEllipse
 10
-9.49996
 20
-13.84998
 30
0.0
 11
0.0
 21
0.6
 31
0.0
210
0.0
220
0.0
230
1.0
 40
1.0
 41
0.0
 42
6.283185307179586
  0
ELLIPSE
  5
76
330
1F
100
AcDbEntity
  8
Layer 1
 62
   250
370
    53
100
AcDbEllipse
 10
-9.49996
 20
-11.84998
 30
0.0
 11
0.0
 21
0.6
 31
0.0
210
0.0
220
0.0
230
1.0
 40
1.0
 41
0.0
 42
6.283185307179586
  0
ELLIPSE
  5
77
330
1F
100
AcDbEntity
  8
Layer 1
 62
   250
370
    53
100
AcDbEllipse
 10
-13.49996
 20
-13.84998
 30
0.0
 11
0.0
 21
0.6
 31
0.0
210
0.0
220
0.0
230
1.0
 40
1.0
 41
0.0
 42
6.283185307179586
  0
ELLIPSE
  5
78
330
1F
100
AcDbEntity
  8
Layer 1
 62
   250
370
    53
100
AcDbEllipse
 10
-13.49996
 20
-11.84998
 30
0.0
 11
0.0
 21
0.6
 31
0.0
210
0.0
220
0.0
230
1.0
 40
1.0
 41
0.0
 42
6.283185307179586
  0
ENDSEC
  0
SECTION
  2
OBJECTS
  0
DICTIONARY
  5
C
330
0
100
AcDbDictionary
281
     1
  3
ACAD_GROUP
350
D
  3
ACAD_LAYOUT
350
1A
  3
ACAD_MLEADERSTYLE
350
7A
  3
ACAD_MLINESTYLE
350
17
  3
ACAD_PLOTSETTINGS
350
19
  3
ACAD_PLOTSTYLENAME
350
E
  3
ACAD_SCALELIST
350
3B
  3
ACAD_TABLESTYLE
350
79
  3
ACAD_VISUALSTYLE
350
2A
  0
DICTIONARY
  5
D
102
{ACAD_REACTORS
330
C
102
}
330
C
100
AcDbDictionary
281
     1
  0
DICTIONARY
  5
1A
102
{ACAD_REACTORS
330
C
102
}
330
C
100
AcDbDictionary
281
     1
  3
Layout1
350
1E
  3
Layout2
350
26
  3
Model
350
22
  0
DICTIONARY
  5
7A
102
{ACAD_REACTORS
330
C
102
}
330
C
100
AcDbDictionary
281
     1
  0
DICTIONARY
  5
17
102
{ACAD_REACTORS
330
C
102
}
330
C
100
AcDbDictionary
281
     1
  3
Standard
350
18
  0
DICTIONARY
  5
19
102
{ACAD_REACTORS
330
C
102
}
330
C
100
AcDbDictionary
281
     1
  0
ACDBDICTIONARYWDFLT
  5
E
102
{ACAD_REACTORS
330
C
102
}
330
C
100
AcDbDictionary
281
     1
  3
Normal
350
F
100
AcDbDictionaryWithDefault
340
F
  0
DICTIONARY
  5
3B
102
{ACAD_REACTORS
330
C
102
}
330
C
100
AcDbDictionary
281
     1
  3
A0
350
3C
  3
A1
350
3D
  3
A2
350
3E
  3
A3
350
3F
  3
A4
350
40
  3
A5
350
41
  3
A6
350
42
  3
A7
350
43
  3
A8
350
44
  3
A9
350
45
  3
B0
350
46
  3
B1
350
47
  3
B2
350
48
  3
B3
350
49
  3
B4
350
4A
  3
B5
350
4B
  3
B6
350
4C
  3
B7
350
4D
  3
B8
350
4E
  3
B9
350
4F
  3
C0
350
50
  3
C1
350
51
  3
C2
350
52
  3
C3
350
53
  3
C4
350
54
  3
C5
350
55
  3
C6
350
56
  3
C7
350
57
  3
C8
350
58
  3
C9
350
59
  3
D0
350
5A
  3
D1
350
5B
  3
D2
350
5C
  0
DICTIONARY
  5
79
102
{ACAD_REACTORS
330
C
102
}
330
C
100
AcDbDictionary
281
     1
  0
DICTIONARY
  5
2A
102
{ACAD_REACTORS
330
C
102
}
330
C
100
AcDbDictionary
281
     1
  3
2dWireframe
350
2F
  3
3D Hidden
350
31
  3
3dWireframe
350
30
  3
Basic
350
32
  3
Brighten
350
36
  3
ColorChange
350
3A
  3
Conceptual
350
34
  3
Dim
350
35
  3
Facepattern
350
39
  3
Flat
350
2B
  3
FlatWithEdges
350
2C
  3
Gouraud
350
2D
  3
GouraudWithEdges
350
2E
  3
Linepattern
350
38
  3
Realistic
350
33
  3
Thicken
350
37
  0
LAYOUT
  5
1E
102
{ACAD_REACTORS
330
1A
102
}
330
1A
100
AcDbPlotSettings
  1

  2
none_device
  4

  6

 40
0.0
 41
0.0
 42
0.0
 43
0.0
 44
0.0
 45
0.0
 46
0.0
 47
0.0
 48
0.0
 49
0.0
140
0.0
141
0.0
142
1.0
143
1.0
 70
   688
 72
     0
 73
     0
 74
     5
  7

 75
    16
 76
     0
 77
     2
 78
   300
147
1.0
148
0.0
149
0.0
100
AcDbLayout
  1
Layout1
 70
     1
 71
     1
 10
0.0
 20
0.0
 11
12.0
 21
9.0
 12
0.0
 22
0.0
 32
0.0
 14
1.000000000000000E+20
 24
1.000000000000000E+20
 34
1.000000000000000E+20
 15
-1.000000000000000E+20
 25
-1.000000000000000E+20
 35
-1.000000000000000E+20
146
0.0
 13
0.0
 23
0.0
 33
0.0
 16
1.0
 26
0.0
 36
0.0
 17
0.0
 27
1.0
 37
0.0
 76
     0
330
1B
  0
LAYOUT
  5
26
102
{ACAD_REACTORS
330
1A
102
}
330
1A
100
AcDbPlotSettings
  1

  2
none_device
  4

  6

 40
0.0
 41
0.0
 42
0.0
 43
0.0
 44
0.0
 45
0.0
 46
0.0
 47
0.0
 48
0.0
 49
0.0
140
0.0
141
0.0
142
1.0
143
1.0
 70
   688
 72
     0
 73
     0
 74
     5
  7

 75
    16
 76
     0
 77
     2
 78
   300
147
1.0
148
0.0
149
0.0
100
AcDbLayout
  1
Layout2
 70
     1
 71
     2
 10
0.0
 20
0.0
 11
0.0
 21
0.0
 12
0.0
 22
0.0
 32
0.0
 14
0.0
 24
0.0
 34
0.0
 15
0.0
 25
0.0
 35
0.0
146
0.0
 13
0.0
 23
0.0
 33
0.0
 16
1.0
 26
0.0
 36
0.0
 17
0.0
 27
1.0
 37
0.0
 76
     0
330
23
  0
LAYOUT
  5
22
102
{ACAD_REACTORS
330
1A
102
}
330
1A
100
AcDbPlotSettings
  1

  2
none_device
  4

  6

 40
0.0
 41
0.0
 42
0.0
 43
0.0
 44
0.0
 45
0.0
 46
0.0
 47
0.0
 48
0.0
 49
0.0
140
0.0
141
0.0
142
1.0
143
1.0
 70
  1712
 72
     0
 73
     0
 74
     0
  7

 75
     0
 76
     0
 77
     2
 78
   300
147
1.0
148
0.0
149
0.0
100
AcDbLayout
  1
Model
 70
     1
 71
     0
 10
0.0
 20
0.0
 11
12.0
 21
9.0
 12
0.0
 22
0.0
 32
0.0
 14
-16.17822
 24
-20.52822
 34
0.0
 15
-4.82178
 25
-9.17178
 35
0.0
146
0.0
 13
0.0
 23
0.0
 33
0.0
 16
1.0
 26
0.0
 36
0.0
 17
0.0
 27
1.0
 37
0.0
 76
     0
330
1F
331
29
  0
MLINESTYLE
  5
18
102
{ACAD_REACTORS
330
17
102
}
330
17
100
AcDbMlineStyle
  2
Standard
 70
     0
  3

 62
   256
 51
90.0
 52
90.0
 71
     2
 49
0.5
 62
   256
  6
BYLAYER
 49
-0.5
 62
   256
  6
BYLAYER
  0
ACDBPLACEHOLDER
  5
F
102
{ACAD_REACTORS
330
E
102
}
330
E
  0
SCALE
  5
3C
102
{ACAD_REACTORS
330
3B
102
}
330
3B
100
AcDbScale
 70
     0
300
1:1
140
1.0
141
1.0
290
     1
  0
SCALE
  5
3D
102
{ACAD_REACTORS
330
3B
102
}
330
3B
100
AcDbScale
 70
     0
300
1:2
140
1.0
141
2.0
290
     0
  0
SCALE
  5
3E
102
{ACAD_REACTORS
330
3B
102
}
330
3B
100
AcDbScale
 70
     0
300
1:4
140
1.0
141
4.0
290
     0
  0
SCALE
  5
3F
102
{ACAD_REACTORS
330
3B
102
}
330
3B
100
AcDbScale
 70
     0
300
1:5
140
1.0
141
5.0
290
     0
  0
SCALE
  5
40
102
{ACAD_REACTORS
330
3B
102
}
330
3B
100
AcDbScale
 70
     0
300
1:8
140
1.0
141
8.0
290
     0
  0
SCALE
  5
41
102
{ACAD_REACTORS
330
3B
102
}
330
3B
100
AcDbScale
 70
     0
300
1:10
140
1.0
141
10.0
290
     0
  0
SCALE
  5
42
102
{ACAD_REACTORS
330
3B
102
}
330
3B
100
AcDbScale
 70
     0
300
1:16
140
1.0
141
16.0
290
     0
  0
SCALE
  5
43
102
{ACAD_REACTORS
330
3B
102
}
330
3B
100
AcDbScale
 70
     0
300
1:20
140
1.0
141
20.0
290
     0
  0
SCALE
  5
44
102
{ACAD_REACTORS
330
3B
102
}
330
3B
100
AcDbScale
 70
     0
300
1:30
140
1.0
141
30.0
290
     0
  0
SCALE
  5
45
102
{ACAD_REACTORS
330
3B
102
}
330
3B
100
AcDbScale
 70
     0
300
1:40
140
1.0
141
40.0
290
     0
  0
SCALE
  5
46
102
{ACAD_REACTORS
330
3B
102
}
330
3B
100
AcDbScale
 70
     0
300
1:50
140
1.0
141
50.0
290
     0
  0
SCALE
  5
47
102
{ACAD_REACTORS
330
3B
102
}
330
3B
100
AcDbScale
 70
     0
300
1:100
140
1.0
141
100.0
290
     0
  0
SCALE
  5
48
102
{ACAD_REACTORS
330
3B
102
}
330
3B
100
AcDbScale
 70
     0
300
2:1
140
2.0
141
1.0
290
     0
  0
SCALE
  5
49
102
{ACAD_REACTORS
330
3B
102
}
330
3B
100
AcDbScale
 70
     0
300
4:1
140
4.0
141
1.0
290
     0
  0
SCALE
  5
4A
102
{ACAD_REACTORS
330
3B
102
}
330
3B
100
AcDbScale
 70
     0
300
8:1
140
8.0
141
1.0
290
     0
  0
SCALE
  5
4B
102
{ACAD_REACTORS
330
3B
102
}
330
3B
100
AcDbScale
 70
     0
300
10:1
140
10.0
141
1.0
290
     0
  0
SCALE
  5
4C
102
{ACAD_REACTORS
330
3B
102
}
330
3B
100
AcDbScale
 70
     0
300
100:1
140
100.0
141
1.0
290
     0
  0
SCALE
  5
4D
102
{ACAD_REACTORS
330
3B
102
}
330
3B
100
AcDbScale
 70
     0
300
1/128" = 1'-0"
140
0.0078125
141
12.0
290
     0
  0
SCALE
  5
4E
102
{ACAD_REACTORS
330
3B
102
}
330
3B
100
AcDbScale
 70
     0
300
1/64" = 1'-0"
140
0.015625
141
12.0
290
     0
  0
SCALE
  5
4F
102
{ACAD_REACTORS
330
3B
102
}
330
3B
100
AcDbScale
 70
     0
300
1/32" = 1'-0"
140
0.03125
141
12.0
290
     0
  0
SCALE
  5
50
102
{ACAD_REACTORS
330
3B
102
}
330
3B
100
AcDbScale
 70
     0
300
1/16" = 1'-0"
140
0.0625
141
12.0
290
     0
  0
SCALE
  5
51
102
{ACAD_REACTORS
330
3B
102
}
330
3B
100
AcDbScale
 70
     0
300
3/32" = 1'-0"
140
0.09375
141
12.0
290
     0
  0
SCALE
  5
52
102
{ACAD_REACTORS
330
3B
102
}
330
3B
100
AcDbScale
 70
     0
300
1/8" = 1'-0"
140
0.125
141
12.0
290
     0
  0
SCALE
  5
53
102
{ACAD_REACTORS
330
3B
102
}
330
3B
100
AcDbScale
 70
     0
300
3/16" = 1'-0"
140
0.1875
141
12.0
290
     0
  0
SCALE
  5
54
102
{ACAD_REACTORS
330
3B
102
}
330
3B
100
AcDbScale
 70
     0
300
1/4" = 1'-0"
140
0.25
141
12.0
290
     0
  0
SCALE
  5
55
102
{ACAD_REACTORS
330
3B
102
}
330
3B
100
AcDbScale
 70
     0
300
3/8" = 1'-0"
140
0.375
141
12.0
290
     0
  0
SCALE
  5
56
102
{ACAD_REACTORS
330
3B
102
}
330
3B
100
AcDbScale
 70
     0
300
1/2" = 1'-0"
140
0.5
141
12.0
290
     0
  0
SCALE
  5
57
102
{ACAD_REACTORS
330
3B
102
}
330
3B
100
AcDbScale
 70
     0
300
3/4" = 1'-0"
140
0.75
141
12.0
290
     0
  0
SCALE
  5
58
102
{ACAD_REACTORS
330
3B
102
}
330
3B
100
AcDbScale
 70
     0
300
1" = 1'-0"
140
1.0
141
12.0
290
     0
  0
SCALE
  5
59
102
{ACAD_REACTORS
330
3B
102
}
330
3B
100
AcDbScale
 70
     0
300
1-1/2" = 1'-0"
140
1.5
141
12.0
290
     0
  0
SCALE
  5
5A
102
{ACAD_REACTORS
330
3B
102
}
330
3B
100
AcDbScale
 70
     0
300
3" = 1'-0"
140
3.0
141
12.0
290
     0
  0
SCALE
  5
5B
102
{ACAD_REACTORS
330
3B
102
}
330
3B
100
AcDbScale
 70
     0
300
6" = 1'-0"
140
6.0
141
12.0
290
     0
  0
SCALE
  5
5C
102
{ACAD_REACTORS
330
3B
102
}
330
3B
100
AcDbScale
 70
     0
300
1'-0" = 1'-0"
140
12.0
141
12.0
290
     0
  0
VISUALSTYLE
  5
2F
102
{ACAD_REACTORS
330
2A
102
}
330
2A
100
AcDbVisualStyle
  2
2dWireframe
 70
     4
 71
     0
 72
     2
 73
     0
 90
        0
 40
-0.6
 41
-30.0
 62
     5
 63
     7
421
 16777215
 74
     1
 91
        4
 64
     7
 65
   257
 75
     1
175
     1
 42
1.0
 92
        0
 66
   257
 43
1.0
 76
     1
 77
     6
 78
     2
 67
     7
 79
     5
170
     0
171
     0
290
     0
174
     0
 93
        1
 44
0.0
173
     0
291
     0
 45
0.0
  0
VISUALSTYLE
  5
31
102
{ACAD_REACTORS
330
2A
102
}
330
2A
100
AcDbVisualStyle
  2
3D Hidden
 70
     6
 71
     1
 72
     2
 73
     2
 90
        0
 40
-0.6
 41
-30.0
 62
     5
 63
     7
421
 16777215
 74
     2
 91
        2
 64
     7
 65
   257
 75
     2
175
     1
 42
40.0
 92
        0
 66
   257
 43
1.0
 76
     1
 77
     6
 78
     2
 67
     7
 79
     3
170
     0
171
     0
290
     0
174
     0
 93
        1
 44
0.0
173
     0
291
     0
 45
0.0
  0
VISUALSTYLE
  5
30
102
{ACAD_REACTORS
330
2A
102
}
330
2A
100
AcDbVisualStyle
  2
3dWireframe
 70
     5
 71
     0
 72
     2
 73
     0
 90
        0
 40
-0.6
 41
-30.0
 62
     5
 63
     7
421
 16777215
 74
     1
 91
        4
 64
     7
 65
   257
 75
     1
175
     1
 42
1.0
 92
        0
 66
   257
 43
1.0
 76
     1
 77
     6
 78
     2
 67
     7
 79
     5
170
     0
171
     0
290
     0
174
     0
 93
        1
 44
0.0
173
     0
291
     0
 45
0.0
  0
VISUALSTYLE
  5
32
102
{ACAD_REACTORS
330
2A
102
}
330
2A
100
AcDbVisualStyle
  2
Basic
 70
     7
 71
     1
 72
     0
 73
     1
 90
        0
 40
-0.6
 41
-30.0
 62
     5
 63
     7
421
 16777215
 74
     0
 91
        4
 64
     7
 65
   257
 75
     1
175
     1
 42
1.0
 92
        8
 66
     7
 43
1.0
 76
     1
 77
     6
 78
     2
 67
     7
 79
     5
170
     0
171
     0
290
     0
174
     0
 93
        1
 44
0.0
173
     0
291
     1
 45
0.0
  0
VISUALSTYLE
  5
36
102
{ACAD_REACTORS
330
2A
102
}
330
2A
100
AcDbVisualStyle
  2
Brighten
 70
    12
 71
     2
 72
     2
 73
     0
 90
        0
 40
-0.6
 41
-30.0
 62
     5
 63
     7
421
 16777215
 74
     1
 91
        4
 64
     7
 65
   257
 75
     1
175
     1
 42
1.0
 92
        8
 66
     7
 43
1.0
 76
     1
 77
     6
 78
     2
 67
     7
 79
     5
170
     0
171
     0
290
     0
174
     0
 93
        1
 44
50.0
173
     0
291
     1
 45
0.0
  0
VISUALSTYLE
  5
3A
102
{ACAD_REACTORS
330
2A
102
}
330
2A
100
AcDbVisualStyle
  2
ColorChange
 70
    16
 71
     2
 72
     2
 73
     3
 90
        0
 40
-0.6
 41
-30.0
 62
     5
 63
     8
421
  8421504
 74
     1
 91
        4
 64
     7
 65
   257
 75
     1
175
     1
 42
1.0
 92
        8
 66
     8
424
  8421504
 43
1.0
 76
     1
 77
     6
 78
     2
 67
     7
 79
     5
170
     0
171
     0
290
     0
174
     0
 93
        1
 44
0.0
173
     0
291
     1
 45
0.0
  0
VISUALSTYLE
  5
34
102
{ACAD_REACTORS
330
2A
102
}
330
2A
100
AcDbVisualStyle
  2
Conceptual
 70
     9
 71
     3
 72
     2
 73
     0
 90
        0
 40
-0.6
 41
-30.0
 62
     5
 63
     7
421
 16777215
 74
     2
 91
        2
 64
     7
 65
   257
 75
     1
175
     1
 42
40.0
 92
        8
 66
     7
 43
1.0
 76
     1
 77
     6
 78
     2
 67
     7
 79
     3
170
     0
171
     0
290
     0
174
     0
 93
        1
 44
0.0
173
     0
291
     0
 45
0.0
  0
VISUALSTYLE
  5
35
102
{ACAD_REACTORS
330
2A
102
}
330
2A
100
AcDbVisualStyle
  2
Dim
 70
    11
 71
     2
 72
     2
 73
     0
 90
        0
 40
-0.6
 41
-30.0
 62
     5
 63
     7
421
 16777215
 74
     1
 91
        4
 64
     7
 65
   257
 75
     1
175
     1
 42
1.0
 92
        8
 66
     7
 43
1.0
 76
     1
 77
     6
 78
     2
 67
     7
 79
     5
170
     0
171
     0
290
     0
174
     0
 93
        1
 44
-50.0
173
     0
291
     1
 45
0.0
  0
VISUALSTYLE
  5
39
102
{ACAD_REACTORS
330
2A
102
}
330
2A
100
AcDbVisualStyle
  2
Facepattern
 70
    15
 71
     2
 72
     2
 73
     0
 90
        0
 40
-0.6
 41
-30.0
 62
     5
 63
     7
421
 16777215
 74
     1
 91
        4
 64
     7
 65
   257
 75
     1
175
     1
 42
1.0
 92
        8
 66
     7
 43
1.0
 76
     1
 77
     6
 78
     2
 67
     7
 79
     5
170
     0
171
     0
290
     0
174
     0
 93
        1
 44
0.0
173
     0
291
     1
 45
0.0
  0
VISUALSTYLE
  5
2B
102
{ACAD_REACTORS
330
2A
102
}
330
2A
100
AcDbVisualStyle
  2
Flat
 70
     0
 71
     2
 72
     1
 73
     1
 90
        2
 40
-0.6
 41
30.0
 62
     5
 63
     7
421
 16777215
 74
     0
 91
        4
 64
     7
 65
   257
 75
     1
175
     1
 42
1.0
 92
        8
 66
     7
 43
1.0
 76
     1
 77
     6
 78
     2
 67
     7
 79
     5
170
     0
171
     0
290
     0
174
     0
 93
       13
 44
0.0
173
     0
291
     1
 45
0.0
  0
VISUALSTYLE
  5
2C
102
{ACAD_REACTORS
330
2A
102
}
330
2A
100
AcDbVisualStyle
  2
FlatWithEdges
 70
     1
 71
     2
 72
     1
 73
     1
 90
        2
 40
-0.6
 41
30.0
 62
     5
 63
     7
421
 16777215
 74
     1
 91
        4
 64
     7
 65
   257
 75
     1
175
     1
 42
1.0
 92
        0
 66
   257
 43
1.0
 76
     1
 77
     6
 78
     2
 67
     7
 79
     5
170
     0
171
     0
290
     0
174
     0
 93
       13
 44
0.0
173
     0
291
     1
 45
0.0
  0
VISUALSTYLE
  5
2D
102
{ACAD_REACTORS
330
2A
102
}
330
2A
100
AcDbVisualStyle
  2
Gouraud
 70
     2
 71
     2
 72
     2
 73
     1
 90
        2
 40
-0.6
 41
30.0
 62
     5
 63
     7
421
 16777215
 74
     0
 91
        4
 64
     7
 65
   257
 75
     1
175
     1
 42
1.0
 92
        0
 66
     7
 43
1.0
 76
     1
 77
     6
 78
     2
 67
     7
 79
     5
170
     0
171
     0
290
     0
174
     0
 93
       13
 44
0.0
173
     0
291
     1
 45
0.0
  0
VISUALSTYLE
  5
2E
102
{ACAD_REACTORS
330
2A
102
}
330
2A
100
AcDbVisualStyle
  2
GouraudWithEdges
 70
     3
 71
     2
 72
     2
 73
     1
 90
        2
 40
-0.6
 41
30.0
 62
     5
 63
     7
421
 16777215
 74
     1
 91
        4
 64
     7
 65
   257
 75
     1
175
     1
 42
1.0
 92
        0
 66
   257
 43
1.0
 76
     1
 77
     6
 78
     2
 67
     7
 79
     5
170
     0
171
     0
290
     0
174
     0
 93
       13
 44
0.0
173
     0
291
     1
 45
0.0
  0
VISUALSTYLE
  5
38
102
{ACAD_REACTORS
330
2A
102
}
330
2A
100
AcDbVisualStyle
  2
Linepattern
 70
    14
 71
     2
 72
     2
 73
     0
 90
        0
 40
-0.6
 41
-30.0
 62
     5
 63
     7
421
 16777215
 74
     1
 91
        4
 64
     7
 65
   257
 75
     7
175
     7
 42
1.0
 92
        8
 66
     7
 43
1.0
 76
     1
 77
     6
 78
     2
 67
     7
 79
     5
170
     0
171
     0
290
     0
174
     0
 93
        1
 44
0.0
173
     0
291
     1
 45
0.0
  0
VISUALSTYLE
  5
33
102
{ACAD_REACTORS
330
2A
102
}
330
2A
100
AcDbVisualStyle
  2
Realistic
 70
     8
 71
     2
 72
     2
 73
     0
 90
        0
 40
-0.6
 41
-30.0
 62
     5
 63
     7
421
 16777215
 74
     1
 91
        0
 64
     7
 65
   257
 75
     1
175
     1
 42
1.0
 92
        8
 66
     8
424
  7895160
 43
1.0
 76
     1
 77
     6
 78
     2
 67
     7
 79
     5
170
     0
171
     0
290
     0
174
     0
 93
       13
 44
0.0
173
     0
291
     0
 45
0.0
  0
VISUALSTYLE
  5
37
102
{ACAD_REACTORS
330
2A
102
}
330
2A
100
AcDbVisualStyle
  2
Thicken
 70
    13
 71
     2
 72
     2
 73
     0
 90
        0
 40
-0.6
 41
-30.0
 62
     5
 63
     7
421
 16777215
 74
     1
 91
        4
 64
     7
 65
   257
 75
     1
175
     1
 42
1.0
 92
       12
 66
     7
 43
1.0
 76
     1
 77
     6
 78
     2
 67
     7
 79
     5
170
     0
171
     0
290
     0
174
     0
 93
        1
 44
0.0
173
     0
291
     1
 45
0.0
  0
ENDSEC
  0
EOF
