<?xml version="1.0" standalone="no"?>
<!DOCTYPE svg PUBLIC "-//W3C//DTD SVG 1.1//EN" "http://www.w3.org/Graphics/SVG/1.1/DTD/svg11.dtd">
<svg width="297mm" height="297mm" viewBox="9 -306 297 297" xmlns="http://www.w3.org/2000/svg" version="1.1">
<title>OpenSCAD Model</title>
<path d="
M 301,-9.02962 L 301.314,-9.00986 L 302.545,-9.24471 L 303.679,-9.77835 L 304.645,-10.5773 L 305.382,-11.5912
 L 305.843,-12.7565 L 306,-14 L 306,-301 L 305.843,-302.243 L 305.382,-303.409 L 304.645,-304.423
 L 303.679,-305.222 L 302.545,-305.755 L 301.314,-305.99 L 301,-305.97 L 301,-306 L 14,-306
 L 14,-305.97 L 13.0631,-305.911 L 11.8711,-305.524 L 10.8129,-304.853 L 9.95491,-303.939 L 9.3511,-302.841
 L 9.03941,-301.627 L 9.03941,-301 L 9,-301 L 9,-14 L 9.03941,-14 L 9.03941,-13.3733
 L 9.3511,-12.1594 L 9.95491,-11.0611 L 10.8129,-10.1474 L 11.8711,-9.47586 L 13.0631,-9.08856 L 14,-9.02962
 L 14,-9 L 301,-9 z
" stroke="black" fill="lightgray" stroke-width="0.5"/>
</svg>
