  0
SECTION
  2
BLOCKS
  0
ENDSEC
  0
SECTION
  2
ENTITIES
  0
LINE
  8
0
 10
301
 20
9.02962
 11
301.314
 21
9.00986
  0
LINE
  8
0
 10
301.314
 20
9.00986
 11
302.545
 21
9.24471
  0
LINE
  8
0
 10
302.545
 20
9.24471
 11
303.679
 21
9.77835
  0
LINE
  8
0
 10
303.679
 20
9.77835
 11
304.645
 21
10.5773
  0
LINE
  8
0
 10
304.645
 20
10.5773
 11
305.382
 21
11.5912
  0
LINE
  8
0
 10
305.382
 20
11.5912
 11
305.843
 21
12.7565
  0
LINE
  8
0
 10
305.843
 20
12.7565
 11
306
 21
14
  0
LINE
  8
0
 10
306
 20
14
 11
306
 21
301
  0
LINE
  8
0
 10
306
 20
301
 11
305.843
 21
302.243
  0
LINE
  8
0
 10
305.843
 20
302.243
 11
305.382
 21
303.409
  0
LINE
  8
0
 10
305.382
 20
303.409
 11
304.645
 21
304.423
  0
LINE
  8
0
 10
304.645
 20
304.423
 11
303.679
 21
305.222
  0
LINE
  8
0
 10
303.679
 20
305.222
 11
302.545
 21
305.755
  0
LINE
  8
0
 10
302.545
 20
305.755
 11
301.314
 21
305.99
  0
LINE
  8
0
 10
301.314
 20
305.99
 11
301
 21
305.97
  0
LINE
  8
0
 10
301
 20
305.97
 11
301
 21
306
  0
LINE
  8
0
 10
301
 20
306
 11
14
 21
306
  0
LINE
  8
0
 10
14
 20
306
 11
14
 21
305.97
  0
LINE
  8
0
 10
14
 20
305.97
 11
13.0631
 21
305.911
  0
LINE
  8
0
 10
13.0631
 20
305.911
 11
11.8711
 21
305.524
  0
LINE
  8
0
 10
11.8711
 20
305.524
 11
10.8129
 21
304.853
  0
LINE
  8
0
 10
10.8129
 20
304.853
 11
9.95491
 21
303.939
  0
LINE
  8
0
 10
9.95491
 20
303.939
 11
9.3511
 21
302.841
  0
LINE
  8
0
 10
9.3511
 20
302.841
 11
9.03941
 21
301.627
  0
LINE
  8
0
 10
9.03941
 20
301.627
 11
9.03941
 21
301
  0
LINE
  8
0
 10
9.03941
 20
301
 11
9
 21
301
  0
LINE
  8
0
 10
9
 20
301
 11
9
 21
14
  0
LINE
  8
0
 10
9
 20
14
 11
9.03941
 21
14
  0
LINE
  8
0
 10
9.03941
 20
14
 11
9.03941
 21
13.3733
  0
LINE
  8
0
 10
9.03941
 20
13.3733
 11
9.3511
 21
12.1594
  0
LINE
  8
0
 10
9.3511
 20
12.1594
 11
9.95491
 21
11.0611
  0
LINE
  8
0
 10
9.95491
 20
11.0611
 11
10.8129
 21
10.1474
  0
LINE
  8
0
 10
10.8129
 20
10.1474
 11
11.8711
 21
9.47586
  0
LINE
  8
0
 10
11.8711
 20
9.47586
 11
13.0631
 21
9.08856
  0
LINE
  8
0
 10
13.0631
 20
9.08856
 11
14
 21
9.02962
  0
LINE
  8
0
 10
14
 20
9.02962
 11
14
 21
9
  0
LINE
  8
0
 10
14
 20
9
 11
301
 21
9
  0
LINE
  8
0
 10
301
 20
9
 11
301
 21
9.02962
  0
ENDSEC
  0
SECTION
  2
OBJECTS
  0
DICTIONARY
  0
ENDSEC
  0
EOF
