<?xml version="1.0" encoding="UTF-8"?>
<!DOCTYPE svg PUBLIC "-//W3C//DTD SVG 1.1//EN" "http://www.w3.org/Graphics/SVG/1.1/DTD/svg11.dtd">
<!-- Creator: CorelDRAW -->
<svg xmlns="http://www.w3.org/2000/svg" xml:space="preserve" width="210mm" height="297mm" style="shape-rendering:geometricPrecision; text-rendering:geometricPrecision; image-rendering:optimizeQuality; fill-rule:evenodd; clip-rule:evenodd"
viewBox="0 0 210 297"
 xmlns:xlink="http://www.w3.org/1999/xlink">
 <defs>
  <style type="text/css">
   <![CDATA[
    .str0 {stroke:black;stroke-width:0.5292;stroke-linecap:round;stroke-linejoin:round}
    .fil0 {fill:none}
   ]]>
  </style>
 </defs>
 <g id="Layer_x0020_1">
  <metadata id="CorelCorpID_0Corel-Layer"/>
  <g id="_86624312">
   <path id="_86624336" class="fil0 str0" d="M-43 295.5l0.4015 0c0.2635,-0.4553 0.6432,-0.835 1.0985,-1.0985l0 -0.4015 1.5 0 1.5 0 0 0.4015c0.4553,0.2635 0.835,0.6432 1.0985,1.0985l0.4015 0 0 1.5 0 1.5 -0.4015 0c-0.2635,0.4553 -0.6432,0.835 -1.0985,1.0985l0 0.4015 -1.5 0 -1.5 0 0 -0.4015c-0.4553,-0.2635 -0.835,-0.6432 -1.0985,-1.0985l-0.4015 0 0 -1.5 0 -1.5z"/>
   <path id="_86624480" class="fil0 str0" d="M-23 295.5l0.4015 0c0.2635,-0.4553 0.6432,-0.835 1.0985,-1.0985l0 -0.4015 1.5 0 1.5 0 0 0.4015c0.4553,0.2635 0.835,0.6432 1.0985,1.0985l0.4015 0 0 1.5 0 1.5 -0.4015 0c-0.2635,0.4553 -0.6432,0.835 -1.0985,1.0985l0 0.4015 -1.5 0 -1.5 0 0 -0.4015c-0.4553,-0.2635 -0.835,-0.6432 -1.0985,-1.0985l-0.4015 0 0 -1.5 0 -1.5z"/>
   <path id="_86624624" class="fil0 str0" d="M-3 295.5l0.4015 0c0.2635,-0.4553 0.6432,-0.835 1.0985,-1.0985l0 -0.4015 1.5 0 1.5 0 0 0.4015c0.4553,0.2635 0.835,0.6432 1.0985,1.0985l0.4015 0 0 1.5 0 1.5 -0.4015 0c-0.2635,0.4553 -0.6432,0.835 -1.0985,1.0985l0 0.4015 -1.5 0 -1.5 0 0 -0.4015c-0.4553,-0.2635 -0.835,-0.6432 -1.0985,-1.0985l-0.4015 0 0 -1.5 0 -1.5z"/>
   <path id="_86624720" class="fil0 str0" d="M17 295.5l0.4015 0c0.2635,-0.4553 0.6432,-0.835 1.0985,-1.0985l0 -0.4015 1.5 0 1.5 0 0 0.4015c0.4553,0.2635 0.835,0.6432 1.0985,1.0985l0.4015 0 0 1.5 0 1.5 -0.4015 0c-0.2635,0.4553 -0.6432,0.835 -1.0985,1.0985l0 0.4015 -1.5 0 -1.5 0 0 -0.4015c-0.4553,-0.2635 -0.835,-0.6432 -1.0985,-1.0985l-0.4015 0 0 -1.5 0 -1.5z"/>
   <path id="_86624840" class="fil0 str0" d="M37 295.5l0.4015 0c0.2635,-0.4553 0.6432,-0.835 1.0985,-1.0985l0 -0.4015 1.5 0 1.5 0 0 0.4015c0.4553,0.2635 0.835,0.6432 1.0985,1.0985l0.4015 0 0 1.5 0 1.5 -0.4015 0c-0.2635,0.4553 -0.6432,0.835 -1.0985,1.0985l0 0.4015 -1.5 0 -1.5 0 0 -0.4015c-0.4553,-0.2635 -0.835,-0.6432 -1.0985,-1.0985l-0.4015 0 0 -1.5 0 -1.5z"/>
   <path id="_86624936" class="fil0 str0" d="M57 295.5l0.4015 0c0.2635,-0.4553 0.6432,-0.835 1.0985,-1.0985l0 -0.4015 1.5 0 1.5 0 0 0.4015c0.4553,0.2635 0.835,0.6432 1.0985,1.0985l0.4015 0 0 1.5 0 1.5 -0.4015 0c-0.2635,0.4553 -0.6432,0.835 -1.0985,1.0985l0 0.4015 -1.5 0 -1.5 0 0 -0.4015c-0.4553,-0.2635 -0.835,-0.6432 -1.0985,-1.0985l-0.4015 0 0 -1.5 0 -1.5z"/>
   <path id="_86625056" class="fil0 str0" d="M77 295.5l0.4015 0c0.2635,-0.4553 0.6432,-0.835 1.0985,-1.0985l0 -0.4015 1.5 0 1.5 0 0 0.4015c0.4553,0.2635 0.835,0.6432 1.0985,1.0985l0.4015 0 0 1.5 0 1.5 -0.4015 0c-0.2635,0.4553 -0.6432,0.835 -1.0985,1.0985l0 0.4015 -1.5 0 -1.5 0 0 -0.4015c-0.4553,-0.2635 -0.835,-0.6432 -1.0985,-1.0985l-0.4015 0 0 -1.5 0 -1.5z"/>
   <rect id="_86625152" class="fil0 str0" x="-33" y="295.5" width="6" height="3"/>
   <rect id="_86625920" class="fil0 str0" x="-13" y="295.5" width="6" height="3"/>
   <rect id="_86625896" class="fil0 str0" x="7" y="295.5" width="6" height="3"/>
   <rect id="_86625824" class="fil0 str0" x="27" y="295.5" width="6" height="3"/>
   <rect id="_86625248" class="fil0 str0" x="47" y="295.5" width="6" height="3"/>
   <rect id="_86625752" class="fil0 str0" x="67" y="295.5" width="6" height="3"/>
   <path id="_86625680" class="fil0 str0" d="M-86.5 298.5l0 -3c0,-2.7609 2.2391,-5 5,-5l163 0c2.7609,0 5,2.2391 5,5l0 3c0,2.7609 -2.2391,5 -5,5l-163 0c-2.7609,0 -5,-2.2391 -5,-5z"/>
   <path id="_86625608" class="fil0 str0" d="M-63 295.5l0.4015 0c0.2635,-0.4553 0.6432,-0.835 1.0985,-1.0985l0 -0.4015 1.5 0 1.5 0 0 0.4015c0.4553,0.2635 0.835,0.6432 1.0985,1.0985l0.4015 0 0 1.5 0 1.5 -0.4015 0c-0.2635,0.4553 -0.6432,0.835 -1.0985,1.0985l0 0.4015 -1.5 0 -1.5 0 0 -0.4015c-0.4553,-0.2635 -0.835,-0.6432 -1.0985,-1.0985l-0.4015 0 0 -1.5 0 -1.5z"/>
   <rect id="_86625560" class="fil0 str0" x="-53" y="295.5" width="6" height="3"/>
   <path id="_86624000" class="fil0 str0" d="M-83 295.5l0.4015 0c0.2635,-0.4553 0.6432,-0.835 1.0985,-1.0985l0 -0.4015 1.5 0 1.5 0 0 0.4015c0.4553,0.2635 0.835,0.6432 1.0985,1.0985l0.4015 0 0 1.5 0 1.5 -0.4015 0c-0.2635,0.4553 -0.6432,0.835 -1.0985,1.0985l0 0.4015 -1.5 0 -1.5 0 0 -0.4015c-0.4553,-0.2635 -0.835,-0.6432 -1.0985,-1.0985l-0.4015 0 0 -1.5 0 -1.5z"/>
   <rect id="_86624240" class="fil0 str0" x="-73" y="295.5" width="6" height="3"/>
  </g>
 </g>
</svg>
