<?xml version="1.0" encoding="UTF-8"?>
<!DOCTYPE svg PUBLIC "-//W3C//DTD SVG 1.1//EN" "http://www.w3.org/Graphics/SVG/1.1/DTD/svg11.dtd">
<!-- Creator: CorelDRAW -->
<svg xmlns="http://www.w3.org/2000/svg" xml:space="preserve" width="210mm" height="297mm" style="shape-rendering:geometricPrecision; text-rendering:geometricPrecision; image-rendering:optimizeQuality; fill-rule:evenodd; clip-rule:evenodd"
viewBox="0 0 210 297"
 xmlns:xlink="http://www.w3.org/1999/xlink">
 <defs>
  <style type="text/css">
   <![CDATA[
    .str0 {stroke:black;stroke-width:0.5644}
    .fil0 {fill:none;fill-rule:nonzero}
   ]]>
  </style>
 </defs>
 <g id="Layer_x0020_1">
  <metadata id="CorelCorpID_0Corel-Layer"/>
  <g id="OOBB-PL-14-01.pdf">
   <path id="_350747600" class="fil0 str0" d="M-131.499 290.5l263 0c2.77,0 4.9995,2.2309 4.9995,5.0009l0 3.0001c0,2.7696 -2.2295,4.9992 -4.9995,4.9992l-263 0c-2.77,0 -5.0009,-2.2296 -5.0009,-4.9992l0 -3.0001c0,-2.77 2.2309,-5.0009 5.0009,-5.0009zm0 0z"/>
   <path id="_350745752" class="fil0 str0" d="M-131.499 300l0 -0.4011c-0.4561,-0.2632 -0.8353,-0.6435 -1.0985,-1.0982l-0.4022 0 0 -1.5008 0 -1.4993 0.4022 0c0.2632,-0.4561 0.6424,-0.8353 1.0985,-1.0985l0 -0.4022 1.4994 0 1.5007 0 0 0.4022c0.4547,0.2632 0.835,0.6424 1.0982,1.0985l0.4011 0 0 1.4993 0 1.5008 -0.4011 0c-0.2632,0.4547 -0.6435,0.835 -1.0982,1.0982l0 0.4011 -1.5007 0 -1.4994 0zm0 0z"/>
   <path id="_350743160" class="fil0 str0" d="M-111.5 300l0 -0.4011c-0.4548,-0.2632 -0.8351,-0.6435 -1.0982,-1.0982l-0.4011 0 0 -1.5008 0 -1.4993 0.4011 0c0.2631,-0.4561 0.6434,-0.8353 1.0982,-1.0985l0 -0.4022 1.5007 0 1.4993 0 0 0.4022c0.4547,0.2632 0.835,0.6424 1.0982,1.0985l0.4025 0 0 1.4993 0 1.5008 -0.4025 0c-0.2632,0.4547 -0.6435,0.835 -1.0982,1.0982l0 0.4011 -1.4993 0 -1.5007 0zm0 0z"/>
   <path id="_350746304" class="fil0 str0" d="M-91.5005 300l0 -0.4011c-0.4547,-0.2632 -0.8336,-0.6435 -1.0982,-1.0982l-0.4011 0 0 -1.5008 0 -1.4993 0.4011 0c0.2646,-0.4561 0.6435,-0.8353 1.0982,-1.0985l0 -0.4022 1.5007 0 1.4993 0 0 0.4022c0.4562,0.2632 0.8354,0.6424 1.0986,1.0985l0.4021 0 0 1.4993 0 1.5008 -0.4021 0c-0.2632,0.4547 -0.6424,0.835 -1.0986,1.0982l0 0.4011 -1.4993 0 -1.5007 0zm0 0z"/>
   <path id="_350747504" class="fil0 str0" d="M-71.4994 300l0 -0.4011c-0.4562,-0.2632 -0.835,-0.6435 -1.0982,-1.0982l-0.4025 0 0 -1.5008 0 -1.4993 0.4025 0c0.2632,-0.4561 0.642,-0.8353 1.0982,-1.0985l0 -0.4022 1.4993 0 1.5007 0 0 0.4022c0.4547,0.2632 0.835,0.6424 1.0982,1.0985l0.4011 0 0 1.4993 0 1.5008 -0.4011 0c-0.2632,0.4547 -0.6435,0.835 -1.0982,1.0982l0 0.4011 -1.5007 0 -1.4993 0zm0 0z"/>
   <path id="_350743736" class="fil0 str0" d="M-51.5001 300l0 -0.4011c-0.4547,-0.2632 -0.835,-0.6435 -1.0982,-1.0982l-0.4011 0 0 -1.5008 0 -1.4993 0.4011 0c0.2632,-0.4561 0.6435,-0.8353 1.0982,-1.0985l0 -0.4022 1.5007 0 1.4993 0 0 0.4022c0.4562,0.2632 0.8351,0.6424 1.0982,1.0985l0.4025 0 0 1.4993 0 1.5008 -0.4025 0c-0.2631,0.4547 -0.642,0.835 -1.0982,1.0982l0 0.4011 -1.4993 0 -1.5007 0zm0 0z"/>
   <path id="_350750480" class="fil0 str0" d="M-31.5004 300l0 -0.4011c-0.4547,-0.2632 -0.834,-0.6435 -1.0986,-1.0982l-0.4007 0 0 -1.5008 0 -1.4993 0.4007 0c0.2646,-0.4561 0.6439,-0.8353 1.0986,-1.0985l0 -0.4022 1.5007 0 1.4993 0 0 0.4022c0.4558,0.2632 0.835,0.6424 1.0996,1.0985l0.4008 0 0 1.4993 0 1.5008 -0.4008 0c-0.2646,0.4547 -0.6438,0.835 -1.0996,1.0982l0 0.4011 -1.4993 0 -1.5007 0zm0 0z"/>
   <path id="_350747288" class="fil0 str0" d="M-11.4997 300l0 -0.4011c-0.4561,-0.2632 -0.835,-0.6435 -1.0982,-1.0982l-0.4025 0 0 -1.5008 0 -1.4993 0.4025 0c0.2632,-0.4561 0.6421,-0.8353 1.0982,-1.0985l0 -0.4022 1.4993 0 1.5007 0 0 0.4022c0.4548,0.2632 0.8351,0.6424 1.0982,1.0985l0.4011 0 0 1.4993 0 1.5008 -0.4011 0c-0.2631,0.4547 -0.6434,0.835 -1.0982,1.0982l0 0.4011 -1.5007 0 -1.4993 0zm0 0z"/>
   <path id="_350750696" class="fil0 str0" d="M8.4996 300l0 -0.4011c-0.4547,-0.2632 -0.835,-0.6435 -1.0982,-1.0982l-0.4011 0 0 -1.5008 0 -1.4993 0.4011 0c0.2632,-0.4561 0.6435,-0.8353 1.0982,-1.0985l0 -0.4022 1.5008 0 1.4993 0 0 0.4022c0.4561,0.2632 0.835,0.6424 1.0985,1.0985l0.4022 0 0 1.4993 0 1.5008 -0.4022 0c-0.2635,0.4547 -0.6424,0.835 -1.0985,1.0982l0 0.4011 -1.4993 0 -1.5008 0zm0 0z"/>
   <path id="_350745464" class="fil0 str0" d="M28.5007 300l0 -0.4011c-0.4561,-0.2632 -0.8353,-0.6435 -1.0999,-1.0982l-0.4008 0 0 -1.5008 0 -1.4993 0.4008 0c0.2646,-0.4561 0.6438,-0.8353 1.0999,-1.0985l0 -0.4022 1.4993 0 1.5008 0 0 0.4022c0.4547,0.2632 0.8336,0.6424 1.0982,1.0985l0.4011 0 0 1.4993 0 1.5008 -0.4011 0c-0.2646,0.4547 -0.6435,0.835 -1.0982,1.0982l0 0.4011 -1.5008 0 -1.4993 0zm0 0z"/>
   <path id="_350744792" class="fil0 str0" d="M48.5001 300l0 -0.4011c-0.4562,-0.2632 -0.8351,-0.6435 -1.0982,-1.0982l-0.4026 0 0 -1.5008 0 -1.4993 0.4026 0c0.2631,-0.4561 0.642,-0.8353 1.0982,-1.0985l0 -0.4022 1.4993 0 1.5007 0 0 0.4022c0.4547,0.2632 0.835,0.6424 1.0982,1.0985l0.4011 0 0 1.4993 0 1.5008 -0.4011 0c-0.2632,0.4547 -0.6435,0.835 -1.0982,1.0982l0 0.4011 -1.5007 0 -1.4993 0zm0 0z"/>
   <path id="_350745320" class="fil0 str0" d="M68.4994 300l0 -0.4011c-0.4547,-0.2632 -0.835,-0.6435 -1.0982,-1.0982l-0.4011 0 0 -1.5008 0 -1.4993 0.4011 0c0.2632,-0.4561 0.6435,-0.8353 1.0982,-1.0985l0 -0.4022 1.5007 0 1.4993 0 0 0.4022c0.4562,0.2632 0.8354,0.6424 1.0986,1.0985l0.4021 0 0 1.4993 0 1.5008 -0.4021 0c-0.2632,0.4547 -0.6424,0.835 -1.0986,1.0982l0 0.4011 -1.4993 0 -1.5007 0zm0 0z"/>
   <path id="_350749976" class="fil0 str0" d="M88.5005 300l0 -0.4011c-0.4562,-0.2632 -0.8351,-0.6435 -1.0986,-1.0982l-0.4021 0 0 -1.5008 0 -1.4993 0.4021 0c0.2635,-0.4561 0.6424,-0.8353 1.0986,-1.0985l0 -0.4022 1.4993 0 1.5007 0 0 0.4022c0.4547,0.2632 0.8336,0.6424 1.0982,1.0985l0.4011 0 0 1.4993 0 1.5008 -0.4011 0c-0.2646,0.4547 -0.6435,0.835 -1.0982,1.0982l0 0.4011 -1.5007 0 -1.4993 0zm0 0z"/>
   <path id="_350744384" class="fil0 str0" d="M108.5 300l0 -0.4011c-0.4547,-0.2632 -0.835,-0.6435 -1.0982,-1.0982l-0.4025 0 0 -1.5008 0 -1.4993 0.4025 0c0.2632,-0.4561 0.6435,-0.8353 1.0982,-1.0985l0 -0.4022 1.4993 0 1.5007 0 0 0.4022c0.4548,0.2632 0.835,0.6424 1.0982,1.0985l0.4011 0 0 1.4993 0 1.5008 -0.4011 0c-0.2632,0.4547 -0.6434,0.835 -1.0982,1.0982l0 0.4011 -1.5007 0 -1.4993 0zm0 0z"/>
   <path id="_350747216" class="fil0 str0" d="M128.5 300l0 -0.4011c-0.4548,-0.2632 -0.8354,-0.6435 -1.0986,-1.0982l-0.4007 0 0 -1.5008 0 -1.4993 0.4007 0c0.2632,-0.4561 0.6438,-0.8353 1.0986,-1.0985l0 -0.4022 1.5003 0 1.4993 0 0 0.4022c0.4562,0.2632 0.8354,0.6424 1.0986,1.0985l0.4022 0 0 1.4993 0 1.5008 -0.4022 0c-0.2632,0.4547 -0.6424,0.835 -1.0986,1.0982l0 0.4011 -1.4993 0 -1.5003 0zm0 0z"/>
   <polygon id="_350747336" class="fil0 str0" points="-123,295.501 -117,295.501 -117,298.501 -123,298.501 "/>
   <polygon id="_350745944" class="fil0 str0" points="-103,295.501 -97,295.501 -97,298.501 -103,298.501 "/>
   <polygon id="_350745656" class="fil0 str0" points="-82.9993,295.501 -76.9992,295.501 -76.9992,298.501 -82.9993,298.501 "/>
   <polygon id="_350746280" class="fil0 str0" points="-62.9996,295.501 -56.9995,295.501 -56.9995,298.501 -62.9996,298.501 "/>
   <polygon id="_350746616" class="fil0 str0" points="-43.0003,295.501 -37.0002,295.501 -37.0002,298.501 -43.0003,298.501 "/>
   <polygon id="_350748392" class="fil0 str0" points="-22.9995,295.501 -16.9995,295.501 -16.9995,298.501 -22.9995,298.501 "/>
   <polygon id="_350748704" class="fil0 str0" points="-2.9998,295.501 3.0002,295.501 3.0002,298.501 -2.9998,298.501 "/>
   <polygon id="_350744624" class="fil0 str0" points="17.0009,295.501 23.0009,295.501 23.0009,298.501 17.0009,298.501 "/>
   <polygon id="_350744432" class="fil0 str0" points="37.0002,295.501 43.0003,295.501 43.0003,298.501 37.0002,298.501 "/>
   <polygon id="_350744264" class="fil0 str0" points="56.9999,295.501 62.9999,295.501 62.9999,298.501 56.9999,298.501 "/>
   <polygon id="_350744720" class="fil0 str0" points="77.0006,295.501 83.0007,295.501 83.0007,298.501 77.0006,298.501 "/>
   <polygon id="_350744192" class="fil0 str0" points="97.0003,295.501 103,295.501 103,298.501 97.0003,298.501 "/>
   <polygon id="_350748728" class="fil0 str0" points="117.001,295.501 123.001,295.501 123.001,298.501 117.001,298.501 "/>
  </g>
 </g>
</svg>
