<?xml version="1.0" encoding="UTF-8"?>
<!DOCTYPE svg PUBLIC "-//W3C//DTD SVG 1.1//EN" "http://www.w3.org/Graphics/SVG/1.1/DTD/svg11.dtd">
<!-- Creator: CorelDRAW -->
<svg xmlns="http://www.w3.org/2000/svg" xml:space="preserve" width="210mm" height="297mm" style="shape-rendering:geometricPrecision; text-rendering:geometricPrecision; image-rendering:optimizeQuality; fill-rule:evenodd; clip-rule:evenodd"
viewBox="0 0 210 297"
 xmlns:xlink="http://www.w3.org/1999/xlink">
 <defs>
  <style type="text/css">
   <![CDATA[
    .str0 {stroke:black;stroke-width:0.5644}
    .fil0 {fill:none;fill-rule:nonzero}
   ]]>
  </style>
 </defs>
 <g id="Layer_x0020_1">
  <metadata id="CorelCorpID_0Corel-Layer"/>
  <g id="OOBB-PL-20-01.pdf">
   <path id="_115874664" class="fil0 str0" d="M-191.499 290.5l383 0c2.7696,0 4.9996,2.2309 4.9996,5.0009l0 3.0001c0,2.7696 -2.23,4.9992 -4.9996,4.9992l-383 0c-2.77,0 -5.0009,-2.2296 -5.0009,-4.9992l0 -3.0001c0,-2.77 2.2309,-5.0009 5.0009,-5.0009zm0 0z"/>
   <path id="_115876752" class="fil0 str0" d="M-191.499 300l0 -0.4011c-0.4561,-0.2632 -0.8353,-0.6435 -1.0985,-1.0982l-0.4022 0 0 -1.5008 0 -1.4993 0.4022 0c0.2632,-0.4561 0.6424,-0.8353 1.0985,-1.0985l0 -0.4022 1.4994 0 1.5007 0 0 0.4022c0.4547,0.2632 0.835,0.6424 1.0982,1.0985l0.4011 0 0 1.4993 0 1.5008 -0.4011 0c-0.2632,0.4547 -0.6435,0.835 -1.0982,1.0982l0 0.4011 -1.5007 0 -1.4994 0zm0 0z"/>
   <path id="_115870632" class="fil0 str0" d="M-171.5 300l0 -0.4011c-0.4548,-0.2632 -0.8351,-0.6435 -1.0982,-1.0982l-0.4011 0 0 -1.5008 0 -1.4993 0.4011 0c0.2631,-0.4561 0.6434,-0.8353 1.0982,-1.0985l0 -0.4022 1.5007 0 1.4993 0 0 0.4022c0.4547,0.2632 0.835,0.6424 1.0982,1.0985l0.4025 0 0 1.4993 0 1.5008 -0.4025 0c-0.2632,0.4547 -0.6435,0.835 -1.0982,1.0982l0 0.4011 -1.4993 0 -1.5007 0zm0 0z"/>
   <path id="_115870128" class="fil0 str0" d="M-151.5 300l0 -0.4011c-0.4547,-0.2632 -0.8336,-0.6435 -1.0982,-1.0982l-0.4011 0 0 -1.5008 0 -1.4993 0.4011 0c0.2646,-0.4561 0.6435,-0.8353 1.0982,-1.0985l0 -0.4022 1.5007 0 1.4993 0 0 0.4022c0.4562,0.2632 0.8354,0.6424 1.0986,1.0985l0.4021 0 0 1.4993 0 1.5008 -0.4021 0c-0.2632,0.4547 -0.6424,0.835 -1.0986,1.0982l0 0.4011 -1.4993 0 -1.5007 0zm0 0z"/>
   <path id="_115873512" class="fil0 str0" d="M-131.499 300l0 -0.4011c-0.4562,-0.2632 -0.835,-0.6435 -1.0982,-1.0982l-0.4025 0 0 -1.5008 0 -1.4993 0.4025 0c0.2632,-0.4561 0.642,-0.8353 1.0982,-1.0985l0 -0.4022 1.4993 0 1.5007 0 0 0.4022c0.4547,0.2632 0.835,0.6424 1.0982,1.0985l0.4011 0 0 1.4993 0 1.5008 -0.4011 0c-0.2632,0.4547 -0.6435,0.835 -1.0982,1.0982l0 0.4011 -1.5007 0 -1.4993 0zm0 0z"/>
   <path id="_115877040" class="fil0 str0" d="M-111.5 300l0 -0.4011c-0.4547,-0.2632 -0.835,-0.6435 -1.0982,-1.0982l-0.4011 0 0 -1.5008 0 -1.4993 0.4011 0c0.2632,-0.4561 0.6435,-0.8353 1.0982,-1.0985l0 -0.4022 1.5007 0 1.4993 0 0 0.4022c0.4562,0.2632 0.8351,0.6424 1.0982,1.0985l0.4025 0 0 1.4993 0 1.5008 -0.4025 0c-0.2631,0.4547 -0.642,0.835 -1.0982,1.0982l0 0.4011 -1.4993 0 -1.5007 0zm0 0z"/>
   <path id="_115877496" class="fil0 str0" d="M-91.5003 300l0 -0.4011c-0.4547,-0.2632 -0.834,-0.6435 -1.0986,-1.0982l-0.4007 0 0 -1.5008 0 -1.4993 0.4007 0c0.2646,-0.4561 0.6439,-0.8353 1.0986,-1.0985l0 -0.4022 1.5007 0 1.4993 0 0 0.4022c0.4558,0.2632 0.835,0.6424 1.0996,1.0985l0.4008 0 0 1.4993 0 1.5008 -0.4008 0c-0.2646,0.4547 -0.6438,0.835 -1.0996,1.0982l0 0.4011 -1.4993 0 -1.5007 0zm0 0z"/>
   <path id="_115873536" class="fil0 str0" d="M-71.4996 300l0 -0.4011c-0.4561,-0.2632 -0.835,-0.6435 -1.0982,-1.0982l-0.4025 0 0 -1.5008 0 -1.4993 0.4025 0c0.2632,-0.4561 0.6421,-0.8353 1.0982,-1.0985l0 -0.4022 1.4993 0 1.5007 0 0 0.4022c0.4548,0.2632 0.8351,0.6424 1.0982,1.0985l0.4011 0 0 1.4993 0 1.5008 -0.4011 0c-0.2631,0.4547 -0.6434,0.835 -1.0982,1.0982l0 0.4011 -1.5007 0 -1.4993 0zm0 0z"/>
   <path id="_115872648" class="fil0 str0" d="M-51.5003 300l0 -0.4011c-0.4547,-0.2632 -0.835,-0.6435 -1.0982,-1.0982l-0.4011 0 0 -1.5008 0 -1.4993 0.4011 0c0.2632,-0.4561 0.6435,-0.8353 1.0982,-1.0985l0 -0.4022 1.5008 0 1.4993 0 0 0.4022c0.4561,0.2632 0.835,0.6424 1.0985,1.0985l0.4022 0 0 1.4993 0 1.5008 -0.4022 0c-0.2635,0.4547 -0.6424,0.835 -1.0985,1.0982l0 0.4011 -1.4993 0 -1.5008 0zm0 0z"/>
   <path id="_115870080" class="fil0 str0" d="M-31.4992 300l0 -0.4011c-0.4561,-0.2632 -0.8353,-0.6435 -1.0999,-1.0982l-0.4008 0 0 -1.5008 0 -1.4993 0.4008 0c0.2646,-0.4561 0.6438,-0.8353 1.0999,-1.0985l0 -0.4022 1.4993 0 1.5008 0 0 0.4022c0.4547,0.2632 0.8336,0.6424 1.0982,1.0985l0.4011 0 0 1.4993 0 1.5008 -0.4011 0c-0.2646,0.4547 -0.6435,0.835 -1.0982,1.0982l0 0.4011 -1.5008 0 -1.4993 0zm0 0z"/>
   <path id="_115872072" class="fil0 str0" d="M-11.4998 300l0 -0.4011c-0.4562,-0.2632 -0.8351,-0.6435 -1.0982,-1.0982l-0.4026 0 0 -1.5008 0 -1.4993 0.4026 0c0.2631,-0.4561 0.642,-0.8353 1.0982,-1.0985l0 -0.4022 1.4993 0 1.5007 0 0 0.4022c0.4547,0.2632 0.835,0.6424 1.0982,1.0985l0.4011 0 0 1.4993 0 1.5008 -0.4011 0c-0.2632,0.4547 -0.6435,0.835 -1.0982,1.0982l0 0.4011 -1.5007 0 -1.4993 0zm0 0z"/>
   <path id="_115875624" class="fil0 str0" d="M8.4995 300l0 -0.4011c-0.4547,-0.2632 -0.835,-0.6435 -1.0982,-1.0982l-0.4011 0 0 -1.5008 0 -1.4993 0.4011 0c0.2632,-0.4561 0.6435,-0.8353 1.0982,-1.0985l0 -0.4022 1.5007 0 1.4993 0 0 0.4022c0.4562,0.2632 0.8354,0.6424 1.0986,1.0985l0.4021 0 0 1.4993 0 1.5008 -0.4021 0c-0.2632,0.4547 -0.6424,0.835 -1.0986,1.0982l0 0.4011 -1.4993 0 -1.5007 0zm0 0z"/>
   <path id="_115871928" class="fil0 str0" d="M28.5006 300l0 -0.4011c-0.4562,-0.2632 -0.8351,-0.6435 -1.0986,-1.0982l-0.4021 0 0 -1.5008 0 -1.4993 0.4021 0c0.2635,-0.4561 0.6424,-0.8353 1.0986,-1.0985l0 -0.4022 1.4993 0 1.5007 0 0 0.4022c0.4547,0.2632 0.8336,0.6424 1.0982,1.0985l0.4011 0 0 1.4993 0 1.5008 -0.4011 0c-0.2646,0.4547 -0.6435,0.835 -1.0982,1.0982l0 0.4011 -1.5007 0 -1.4993 0zm0 0z"/>
   <path id="_115875432" class="fil0 str0" d="M48.4999 300l0 -0.4011c-0.4547,-0.2632 -0.835,-0.6435 -1.0982,-1.0982l-0.4025 0 0 -1.5008 0 -1.4993 0.4025 0c0.2632,-0.4561 0.6435,-0.8353 1.0982,-1.0985l0 -0.4022 1.4993 0 1.5007 0 0 0.4022c0.4548,0.2632 0.835,0.6424 1.0982,1.0985l0.4011 0 0 1.4993 0 1.5008 -0.4011 0c-0.2632,0.4547 -0.6434,0.835 -1.0982,1.0982l0 0.4011 -1.5007 0 -1.4993 0zm0 0z"/>
   <path id="_115869984" class="fil0 str0" d="M68.4996 300l0 -0.4011c-0.4548,-0.2632 -0.8354,-0.6435 -1.0986,-1.0982l-0.4007 0 0 -1.5008 0 -1.4993 0.4007 0c0.2632,-0.4561 0.6438,-0.8353 1.0986,-1.0985l0 -0.4022 1.5003 0 1.4993 0 0 0.4022c0.4562,0.2632 0.8354,0.6424 1.0986,1.0985l0.4022 0 0 1.4993 0 1.5008 -0.4022 0c-0.2632,0.4547 -0.6424,0.835 -1.0986,1.0982l0 0.4011 -1.4993 0 -1.5003 0zm0 0z"/>
   <path id="_115871304" class="fil0 str0" d="M88.5003 300l0 -0.4011c-0.4561,-0.2632 -0.835,-0.6435 -1.0982,-1.0982l-0.4025 0 0 -1.5008 0 -1.4993 0.4025 0c0.2632,-0.4561 0.6421,-0.8353 1.0982,-1.0985l0 -0.4022 1.4993 0 1.5007 0 0 0.4022c0.4548,0.2632 0.8351,0.6424 1.0982,1.0985l0.4011 0 0 1.4993 0 1.5008 -0.4011 0c-0.2631,0.4547 -0.6434,0.835 -1.0982,1.0982l0 0.4011 -1.5007 0 -1.4993 0zm0 0z"/>
   <path id="_115877160" class="fil0 str0" d="M108.5 300l0 -0.4011c-0.4547,-0.2632 -0.835,-0.6435 -1.0982,-1.0982l-0.4011 0 0 -1.5008 0 -1.4993 0.4011 0c0.2632,-0.4561 0.6435,-0.8353 1.0982,-1.0985l0 -0.4022 1.5008 0 1.4993 0 0 0.4022c0.4547,0.2632 0.835,0.6424 1.0982,1.0985l0.4025 0 0 1.4993 0 1.5008 -0.4025 0c-0.2632,0.4547 -0.6435,0.835 -1.0982,1.0982l0 0.4011 -1.4993 0 -1.5008 0zm0 0z"/>
   <path id="_115872888" class="fil0 str0" d="M128.499 300l0 -0.4011c-0.4547,-0.2632 -0.834,-0.6435 -1.0985,-1.0982l-0.4008 0 0 -1.5008 0 -1.4993 0.4008 0c0.2645,-0.4561 0.6438,-0.8353 1.0985,-1.0985l0 -0.4022 1.5007 0 1.4993 0 0 0.4022c0.4562,0.2632 0.8351,0.6424 1.0982,1.0985l0.4026 0 0 1.4993 0 1.5008 -0.4026 0c-0.2631,0.4547 -0.642,0.835 -1.0982,1.0982l0 0.4011 -1.4993 0 -1.5007 0zm0 0z"/>
   <path id="_115873320" class="fil0 str0" d="M148.5 300l0 -0.4011c-0.4562,-0.2632 -0.8351,-0.6435 -1.0982,-1.0982l-0.4026 0 0 -1.5008 0 -1.4993 0.4026 0c0.2631,-0.4561 0.642,-0.8353 1.0982,-1.0985l0 -0.4022 1.4993 0 1.5007 0 0 0.4022c0.4547,0.2632 0.835,0.6424 1.0982,1.0985l0.4011 0 0 1.4993 0 1.5008 -0.4011 0c-0.2632,0.4547 -0.6435,0.835 -1.0982,1.0982l0 0.4011 -1.5007 0 -1.4993 0zm0 0z"/>
   <path id="_115869912" class="fil0 str0" d="M168.499 300l0 -0.4011c-0.4548,-0.2632 -0.835,-0.6435 -1.0982,-1.0982l-0.4011 0 0 -1.5008 0 -1.4993 0.4011 0c0.2632,-0.4561 0.6434,-0.8353 1.0982,-1.0985l0 -0.4022 1.5007 0 1.4993 0 0 0.4022c0.4561,0.2632 0.8354,0.6424 1.0985,1.0985l0.4022 0 0 1.4993 0 1.5008 -0.4022 0c-0.2631,0.4547 -0.6424,0.835 -1.0985,1.0982l0 0.4011 -1.4993 0 -1.5007 0zm0 0z"/>
   <path id="_115871952" class="fil0 str0" d="M188.499 300l0 -0.4011c-0.4548,-0.2632 -0.8337,-0.6435 -1.0982,-1.0982l-0.4012 0 0 -1.5008 0 -1.4993 0.4012 0c0.2645,-0.4561 0.6434,-0.8353 1.0982,-1.0985l0 -0.4022 1.5007 0 1.4993 0 0 0.4022c0.4561,0.2632 0.835,0.6424 1.0996,1.0985l0.4011 0 0 1.4993 0 1.5008 -0.4011 0c-0.2646,0.4547 -0.6435,0.835 -1.0996,1.0982l0 0.4011 -1.4993 0 -1.5007 0zm0 0z"/>
   <polygon id="_115872576" class="fil0 str0" points="-183,295.501 -177,295.501 -177,298.501 -183,298.501 "/>
   <polygon id="_115876464" class="fil0 str0" points="-163,295.501 -157,295.501 -157,298.501 -163,298.501 "/>
   <polygon id="_115870440" class="fil0 str0" points="-142.999,295.501 -136.999,295.501 -136.999,298.501 -142.999,298.501 "/>
   <polygon id="_115871184" class="fil0 str0" points="-123,295.501 -116.999,295.501 -116.999,298.501 -123,298.501 "/>
   <polygon id="_115873128" class="fil0 str0" points="-103,295.501 -97.0001,295.501 -97.0001,298.501 -103,298.501 "/>
   <polygon id="_115876968" class="fil0 str0" points="-82.9994,295.501 -76.9994,295.501 -76.9994,298.501 -82.9994,298.501 "/>
   <polygon id="_115875312" class="fil0 str0" points="-62.9997,295.501 -56.9997,295.501 -56.9997,298.501 -62.9997,298.501 "/>
   <polygon id="_115873752" class="fil0 str0" points="-42.999,295.501 -36.999,295.501 -36.999,298.501 -42.999,298.501 "/>
   <polygon id="_115874328" class="fil0 str0" points="-22.9997,295.501 -16.9996,295.501 -16.9996,298.501 -22.9997,298.501 "/>
   <polygon id="_115872672" class="fil0 str0" points="-3,295.501 3,295.501 3,298.501 -3,298.501 "/>
   <polygon id="_115876056" class="fil0 str0" points="17.0007,295.501 23.0008,295.501 23.0008,298.501 17.0007,298.501 "/>
   <polygon id="_115871664" class="fil0 str0" points="37.0004,295.501 43.0004,295.501 43.0004,298.501 37.0004,298.501 "/>
   <polygon id="_115874016" class="fil0 str0" points="57.0011,295.501 63.0012,295.501 63.0012,298.501 57.0011,298.501 "/>
   <polygon id="_115874184" class="fil0 str0" points="77.0005,295.501 83.0005,295.501 83.0005,298.501 77.0005,298.501 "/>
   <polygon id="_115877184" class="fil0 str0" points="97.0001,295.501 103,295.501 103,298.501 97.0001,298.501 "/>
   <polygon id="_115874040" class="fil0 str0" points="117.001,295.501 123.001,295.501 123.001,298.501 117.001,298.501 "/>
   <polygon id="_115872528" class="fil0 str0" points="137,295.501 143,295.501 143,298.501 137,298.501 "/>
   <polygon id="_115870056" class="fil0 str0" points="157,295.501 163,295.501 163,298.501 157,298.501 "/>
   <polygon id="_115869840" class="fil0 str0" points="177.001,295.501 183.001,295.501 183.001,298.501 177.001,298.501 "/>
  </g>
 </g>
</svg>
