solid OpenSCAD_Model
  facet normal -0.992115 0.125328 0
    outer loop
      vertex -11.8521 -0.808242 -3
      vertex -11.75 0 0
      vertex -11.75 0 -3
    endloop
  endfacet
  facet normal -0.992115 0.125328 0
    outer loop
      vertex -11.75 0 0
      vertex -11.8521 -0.808242 -3
      vertex -11.8521 -0.808242 0
    endloop
  endfacet
  facet normal -0.992115 -0.125328 0
    outer loop
      vertex -11.75 0 -3
      vertex -11.8521 0.808242 0
      vertex -11.8521 0.808242 -3
    endloop
  endfacet
  facet normal -0.992115 -0.125328 0
    outer loop
      vertex -11.8521 0.808242 0
      vertex -11.75 0 -3
      vertex -11.75 0 0
    endloop
  endfacet
  facet normal 1 -0 0
    outer loop
      vertex -18.2244 -0.407332 0
      vertex -18.2244 0.407332 -3
      vertex -18.2244 0.407332 0
    endloop
  endfacet
  facet normal 1 0 0
    outer loop
      vertex -18.2244 0.407332 -3
      vertex -18.2244 -0.407332 0
      vertex -18.2244 -0.407332 -3
    endloop
  endfacet
  facet normal 0.0627955 0.998026 -0
    outer loop
      vertex -14.7959 -3.24359 -3
      vertex -15.609 -3.19243 0
      vertex -14.7959 -3.24359 0
    endloop
  endfacet
  facet normal 0.0627955 0.998026 0
    outer loop
      vertex -15.609 -3.19243 0
      vertex -14.7959 -3.24359 -3
      vertex -15.609 -3.19243 -3
    endloop
  endfacet
  facet normal 0.0627955 -0.998026 0
    outer loop
      vertex -15.609 3.19243 -3
      vertex -14.7959 3.24359 0
      vertex -15.609 3.19243 0
    endloop
  endfacet
  facet normal 0.0627955 -0.998026 0
    outer loop
      vertex -14.7959 3.24359 0
      vertex -15.609 3.19243 -3
      vertex -14.7959 3.24359 -3
    endloop
  endfacet
  facet normal 0.968583 0.248692 0
    outer loop
      vertex -18.0218 -1.1964 0
      vertex -18.2244 -0.407332 -3
      vertex -18.2244 -0.407332 0
    endloop
  endfacet
  facet normal 0.968583 0.248692 0
    outer loop
      vertex -18.2244 -0.407332 -3
      vertex -18.0218 -1.1964 0
      vertex -18.0218 -1.1964 -3
    endloop
  endfacet
  facet normal -0.637432 0.770506 0
    outer loop
      vertex -12.6309 -2.22478 -3
      vertex -13.2586 -2.74407 0
      vertex -12.6309 -2.22478 0
    endloop
  endfacet
  facet normal -0.637432 0.770506 0
    outer loop
      vertex -13.2586 -2.74407 0
      vertex -12.6309 -2.22478 -3
      vertex -13.2586 -2.74407 -3
    endloop
  endfacet
  facet normal -0.808988 0.587826 0
    outer loop
      vertex -12.6309 -2.22478 -3
      vertex -12.152 -1.5657 0
      vertex -12.152 -1.5657 -3
    endloop
  endfacet
  facet normal -0.808988 0.587826 0
    outer loop
      vertex -12.152 -1.5657 0
      vertex -12.6309 -2.22478 -3
      vertex -12.6309 -2.22478 0
    endloop
  endfacet
  facet normal 0.535852 0.844312 -0
    outer loop
      vertex -16.3838 -2.94069 -3
      vertex -17.0716 -2.50417 0
      vertex -16.3838 -2.94069 0
    endloop
  endfacet
  facet normal 0.535852 0.844312 0
    outer loop
      vertex -17.0716 -2.50417 0
      vertex -16.3838 -2.94069 -3
      vertex -17.0716 -2.50417 -3
    endloop
  endfacet
  facet normal -0.929776 0.368126 0
    outer loop
      vertex -12.152 -1.5657 -3
      vertex -11.8521 -0.808242 0
      vertex -11.8521 -0.808242 -3
    endloop
  endfacet
  facet normal -0.929776 0.368126 0
    outer loop
      vertex -11.8521 -0.808242 0
      vertex -12.152 -1.5657 -3
      vertex -12.152 -1.5657 0
    endloop
  endfacet
  facet normal 0.968583 -0.248692 0
    outer loop
      vertex -18.2244 0.407332 0
      vertex -18.0218 1.1964 -3
      vertex -18.0218 1.1964 0
    endloop
  endfacet
  facet normal 0.968583 -0.248692 0
    outer loop
      vertex -18.0218 1.1964 -3
      vertex -18.2244 0.407332 0
      vertex -18.2244 0.407332 -3
    endloop
  endfacet
  facet normal -0.808988 -0.587826 0
    outer loop
      vertex -12.152 1.5657 -3
      vertex -12.6309 2.22478 0
      vertex -12.6309 2.22478 -3
    endloop
  endfacet
  facet normal -0.808988 -0.587826 0
    outer loop
      vertex -12.6309 2.22478 0
      vertex -12.152 1.5657 -3
      vertex -12.152 1.5657 0
    endloop
  endfacet
  facet normal 0.728957 -0.684559 0
    outer loop
      vertex -17.6293 1.9103 0
      vertex -17.0716 2.50417 -3
      vertex -17.0716 2.50417 0
    endloop
  endfacet
  facet normal 0.728957 -0.684559 0
    outer loop
      vertex -17.0716 2.50417 -3
      vertex -17.6293 1.9103 0
      vertex -17.6293 1.9103 -3
    endloop
  endfacet
  facet normal 0.876291 -0.481782 0
    outer loop
      vertex -18.0218 1.1964 0
      vertex -17.6293 1.9103 -3
      vertex -17.6293 1.9103 0
    endloop
  endfacet
  facet normal 0.876291 -0.481782 0
    outer loop
      vertex -17.6293 1.9103 -3
      vertex -18.0218 1.1964 0
      vertex -18.0218 1.1964 -3
    endloop
  endfacet
  facet normal 0.728957 0.684559 0
    outer loop
      vertex -17.0716 -2.50417 0
      vertex -17.6293 -1.9103 -3
      vertex -17.6293 -1.9103 0
    endloop
  endfacet
  facet normal 0.728957 0.684559 0
    outer loop
      vertex -17.6293 -1.9103 -3
      vertex -17.0716 -2.50417 0
      vertex -17.0716 -2.50417 -3
    endloop
  endfacet
  facet normal 0.876291 0.481782 0
    outer loop
      vertex -17.6293 -1.9103 0
      vertex -18.0218 -1.1964 -3
      vertex -18.0218 -1.1964 0
    endloop
  endfacet
  facet normal 0.876291 0.481782 0
    outer loop
      vertex -18.0218 -1.1964 -3
      vertex -17.6293 -1.9103 0
      vertex -17.6293 -1.9103 -3
    endloop
  endfacet
  facet normal 0.309008 0.951059 -0
    outer loop
      vertex -15.609 -3.19243 -3
      vertex -16.3838 -2.94069 0
      vertex -15.609 -3.19243 0
    endloop
  endfacet
  facet normal 0.309008 0.951059 0
    outer loop
      vertex -16.3838 -2.94069 0
      vertex -15.609 -3.19243 -3
      vertex -16.3838 -2.94069 -3
    endloop
  endfacet
  facet normal -0.187398 0.982284 0
    outer loop
      vertex -13.9957 -3.09093 -3
      vertex -14.7959 -3.24359 0
      vertex -13.9957 -3.09093 0
    endloop
  endfacet
  facet normal -0.187398 0.982284 0
    outer loop
      vertex -14.7959 -3.24359 0
      vertex -13.9957 -3.09093 -3
      vertex -14.7959 -3.24359 -3
    endloop
  endfacet
  facet normal -0.187398 -0.982284 0
    outer loop
      vertex -14.7959 3.24359 -3
      vertex -13.9957 3.09093 0
      vertex -14.7959 3.24359 0
    endloop
  endfacet
  facet normal -0.187398 -0.982284 -0
    outer loop
      vertex -13.9957 3.09093 0
      vertex -14.7959 3.24359 -3
      vertex -13.9957 3.09093 -3
    endloop
  endfacet
  facet normal -0.637432 -0.770506 0
    outer loop
      vertex -13.2586 2.74407 -3
      vertex -12.6309 2.22478 0
      vertex -13.2586 2.74407 0
    endloop
  endfacet
  facet normal -0.637432 -0.770506 -0
    outer loop
      vertex -12.6309 2.22478 0
      vertex -13.2586 2.74407 -3
      vertex -12.6309 2.22478 -3
    endloop
  endfacet
  facet normal -0.425786 -0.904824 0
    outer loop
      vertex -13.9957 3.09093 -3
      vertex -13.2586 2.74407 0
      vertex -13.9957 3.09093 0
    endloop
  endfacet
  facet normal -0.425786 -0.904824 -0
    outer loop
      vertex -13.2586 2.74407 0
      vertex -13.9957 3.09093 -3
      vertex -13.2586 2.74407 -3
    endloop
  endfacet
  facet normal -0.425786 0.904824 0
    outer loop
      vertex -13.2586 -2.74407 -3
      vertex -13.9957 -3.09093 0
      vertex -13.2586 -2.74407 0
    endloop
  endfacet
  facet normal -0.425786 0.904824 0
    outer loop
      vertex -13.9957 -3.09093 0
      vertex -13.2586 -2.74407 -3
      vertex -13.9957 -3.09093 -3
    endloop
  endfacet
  facet normal -0.929776 -0.368126 0
    outer loop
      vertex -11.8521 0.808242 -3
      vertex -12.152 1.5657 0
      vertex -12.152 1.5657 -3
    endloop
  endfacet
  facet normal -0.929776 -0.368126 0
    outer loop
      vertex -12.152 1.5657 0
      vertex -11.8521 0.808242 -3
      vertex -11.8521 0.808242 0
    endloop
  endfacet
  facet normal 0.535852 -0.844312 0
    outer loop
      vertex -17.0716 2.50417 -3
      vertex -16.3838 2.94069 0
      vertex -17.0716 2.50417 0
    endloop
  endfacet
  facet normal 0.535852 -0.844312 0
    outer loop
      vertex -16.3838 2.94069 0
      vertex -17.0716 2.50417 -3
      vertex -16.3838 2.94069 -3
    endloop
  endfacet
  facet normal 0.309008 -0.951059 0
    outer loop
      vertex -16.3838 2.94069 -3
      vertex -15.609 3.19243 0
      vertex -16.3838 2.94069 0
    endloop
  endfacet
  facet normal 0.309008 -0.951059 0
    outer loop
      vertex -15.609 3.19243 0
      vertex -16.3838 2.94069 -3
      vertex -15.609 3.19243 -3
    endloop
  endfacet
  facet normal -0.92978 0.368115 0
    outer loop
      vertex 2.848 -1.5657 -3
      vertex 3.14789 -0.808242 0
      vertex 3.14789 -0.808242 -3
    endloop
  endfacet
  facet normal -0.92978 0.368115 0
    outer loop
      vertex 3.14789 -0.808242 0
      vertex 2.848 -1.5657 -3
      vertex 2.848 -1.5657 0
    endloop
  endfacet
  facet normal -0.992114 0.12534 0
    outer loop
      vertex 3.14789 -0.808242 -3
      vertex 3.25 0 0
      vertex 3.25 0 -3
    endloop
  endfacet
  facet normal -0.992114 0.12534 0
    outer loop
      vertex 3.25 0 0
      vertex 3.14789 -0.808242 -3
      vertex 3.14789 -0.808242 0
    endloop
  endfacet
  facet normal -0.992114 -0.12534 0
    outer loop
      vertex 3.25 0 -3
      vertex 3.14789 0.808242 0
      vertex 3.14789 0.808242 -3
    endloop
  endfacet
  facet normal -0.992114 -0.12534 0
    outer loop
      vertex 3.14789 0.808242 0
      vertex 3.25 0 -3
      vertex 3.25 0 0
    endloop
  endfacet
  facet normal 1 -0 0
    outer loop
      vertex -3.22437 -0.407332 0
      vertex -3.22437 0.407332 -3
      vertex -3.22437 0.407332 0
    endloop
  endfacet
  facet normal 1 0 0
    outer loop
      vertex -3.22437 0.407332 -3
      vertex -3.22437 -0.407332 0
      vertex -3.22437 -0.407332 -3
    endloop
  endfacet
  facet normal 0.0627987 -0.998026 0
    outer loop
      vertex -0.608989 3.19243 -3
      vertex 0.204069 3.24359 0
      vertex -0.608989 3.19243 0
    endloop
  endfacet
  facet normal 0.0627987 -0.998026 0
    outer loop
      vertex 0.204069 3.24359 0
      vertex -0.608989 3.19243 -3
      vertex 0.204069 3.24359 -3
    endloop
  endfacet
  facet normal -0.637426 0.770511 0
    outer loop
      vertex 2.36915 -2.22478 -3
      vertex 1.74144 -2.74407 0
      vertex 2.36915 -2.22478 0
    endloop
  endfacet
  facet normal -0.637426 0.770511 0
    outer loop
      vertex 1.74144 -2.74407 0
      vertex 2.36915 -2.22478 -3
      vertex 1.74144 -2.74407 -3
    endloop
  endfacet
  facet normal -0.809017 0.587786 0
    outer loop
      vertex 2.36915 -2.22478 -3
      vertex 2.848 -1.5657 0
      vertex 2.848 -1.5657 -3
    endloop
  endfacet
  facet normal -0.809017 0.587786 0
    outer loop
      vertex 2.848 -1.5657 0
      vertex 2.36915 -2.22478 -3
      vertex 2.36915 -2.22478 0
    endloop
  endfacet
  facet normal 0.535824 0.84433 -0
    outer loop
      vertex -1.38378 -2.94069 -3
      vertex -2.07163 -2.50417 0
      vertex -1.38378 -2.94069 0
    endloop
  endfacet
  facet normal 0.535824 0.84433 0
    outer loop
      vertex -2.07163 -2.50417 0
      vertex -1.38378 -2.94069 -3
      vertex -2.07163 -2.50417 -3
    endloop
  endfacet
  facet normal 0.0627987 0.998026 -0
    outer loop
      vertex 0.204069 -3.24359 -3
      vertex -0.608989 -3.19243 0
      vertex 0.204069 -3.24359 0
    endloop
  endfacet
  facet normal 0.0627987 0.998026 0
    outer loop
      vertex -0.608989 -3.19243 0
      vertex 0.204069 -3.24359 -3
      vertex -0.608989 -3.19243 -3
    endloop
  endfacet
  facet normal 0.968583 -0.248692 0
    outer loop
      vertex -3.22437 0.407332 0
      vertex -3.02177 1.1964 -3
      vertex -3.02177 1.1964 0
    endloop
  endfacet
  facet normal 0.968583 -0.248692 0
    outer loop
      vertex -3.02177 1.1964 -3
      vertex -3.22437 0.407332 0
      vertex -3.22437 0.407332 -3
    endloop
  endfacet
  facet normal -0.809017 -0.587786 0
    outer loop
      vertex 2.848 1.5657 -3
      vertex 2.36915 2.22478 0
      vertex 2.36915 2.22478 -3
    endloop
  endfacet
  facet normal -0.809017 -0.587786 0
    outer loop
      vertex 2.36915 2.22478 0
      vertex 2.848 1.5657 -3
      vertex 2.848 1.5657 0
    endloop
  endfacet
  facet normal 0.728975 -0.68454 0
    outer loop
      vertex -2.6293 1.9103 0
      vertex -2.07163 2.50417 -3
      vertex -2.07163 2.50417 0
    endloop
  endfacet
  facet normal 0.728975 -0.68454 0
    outer loop
      vertex -2.07163 2.50417 -3
      vertex -2.6293 1.9103 0
      vertex -2.6293 1.9103 -3
    endloop
  endfacet
  facet normal 0.876307 -0.481754 0
    outer loop
      vertex -3.02177 1.1964 0
      vertex -2.6293 1.9103 -3
      vertex -2.6293 1.9103 0
    endloop
  endfacet
  facet normal 0.876307 -0.481754 0
    outer loop
      vertex -2.6293 1.9103 -3
      vertex -3.02177 1.1964 0
      vertex -3.02177 1.1964 -3
    endloop
  endfacet
  facet normal 0.728975 0.68454 0
    outer loop
      vertex -2.07163 -2.50417 0
      vertex -2.6293 -1.9103 -3
      vertex -2.6293 -1.9103 0
    endloop
  endfacet
  facet normal 0.728975 0.68454 0
    outer loop
      vertex -2.6293 -1.9103 -3
      vertex -2.07163 -2.50417 0
      vertex -2.07163 -2.50417 -3
    endloop
  endfacet
  facet normal 0.876307 0.481754 0
    outer loop
      vertex -2.6293 -1.9103 0
      vertex -3.02177 -1.1964 -3
      vertex -3.02177 -1.1964 0
    endloop
  endfacet
  facet normal 0.876307 0.481754 0
    outer loop
      vertex -3.02177 -1.1964 -3
      vertex -2.6293 -1.9103 0
      vertex -2.6293 -1.9103 -3
    endloop
  endfacet
  facet normal 0.968583 0.248692 0
    outer loop
      vertex -3.02177 -1.1964 0
      vertex -3.22437 -0.407332 -3
      vertex -3.22437 -0.407332 0
    endloop
  endfacet
  facet normal 0.968583 0.248692 0
    outer loop
      vertex -3.22437 -0.407332 -3
      vertex -3.02177 -1.1964 0
      vertex -3.02177 -1.1964 -3
    endloop
  endfacet
  facet normal 0.309012 0.951058 -0
    outer loop
      vertex -0.608989 -3.19243 -3
      vertex -1.38378 -2.94069 0
      vertex -0.608989 -3.19243 0
    endloop
  endfacet
  facet normal 0.309012 0.951058 0
    outer loop
      vertex -1.38378 -2.94069 0
      vertex -0.608989 -3.19243 -3
      vertex -1.38378 -2.94069 -3
    endloop
  endfacet
  facet normal -0.187391 0.982285 0
    outer loop
      vertex 1.0043 -3.09093 -3
      vertex 0.204069 -3.24359 0
      vertex 1.0043 -3.09093 0
    endloop
  endfacet
  facet normal -0.187391 0.982285 0
    outer loop
      vertex 0.204069 -3.24359 0
      vertex 1.0043 -3.09093 -3
      vertex 0.204069 -3.24359 -3
    endloop
  endfacet
  facet normal -0.187391 -0.982285 0
    outer loop
      vertex 0.204069 3.24359 -3
      vertex 1.0043 3.09093 0
      vertex 0.204069 3.24359 0
    endloop
  endfacet
  facet normal -0.187391 -0.982285 -0
    outer loop
      vertex 1.0043 3.09093 0
      vertex 0.204069 3.24359 -3
      vertex 1.0043 3.09093 -3
    endloop
  endfacet
  facet normal -0.637426 -0.770511 0
    outer loop
      vertex 1.74144 2.74407 -3
      vertex 2.36915 2.22478 0
      vertex 1.74144 2.74407 0
    endloop
  endfacet
  facet normal -0.637426 -0.770511 -0
    outer loop
      vertex 2.36915 2.22478 0
      vertex 1.74144 2.74407 -3
      vertex 2.36915 2.22478 -3
    endloop
  endfacet
  facet normal -0.425767 -0.904833 0
    outer loop
      vertex 1.0043 3.09093 -3
      vertex 1.74144 2.74407 0
      vertex 1.0043 3.09093 0
    endloop
  endfacet
  facet normal -0.425767 -0.904833 -0
    outer loop
      vertex 1.74144 2.74407 0
      vertex 1.0043 3.09093 -3
      vertex 1.74144 2.74407 -3
    endloop
  endfacet
  facet normal -0.425767 0.904833 0
    outer loop
      vertex 1.74144 -2.74407 -3
      vertex 1.0043 -3.09093 0
      vertex 1.74144 -2.74407 0
    endloop
  endfacet
  facet normal -0.425767 0.904833 0
    outer loop
      vertex 1.0043 -3.09093 0
      vertex 1.74144 -2.74407 -3
      vertex 1.0043 -3.09093 -3
    endloop
  endfacet
  facet normal 0.535824 -0.84433 0
    outer loop
      vertex -2.07163 2.50417 -3
      vertex -1.38378 2.94069 0
      vertex -2.07163 2.50417 0
    endloop
  endfacet
  facet normal 0.535824 -0.84433 0
    outer loop
      vertex -1.38378 2.94069 0
      vertex -2.07163 2.50417 -3
      vertex -1.38378 2.94069 -3
    endloop
  endfacet
  facet normal 0.309012 -0.951058 0
    outer loop
      vertex -1.38378 2.94069 -3
      vertex -0.608989 3.19243 0
      vertex -1.38378 2.94069 0
    endloop
  endfacet
  facet normal 0.309012 -0.951058 0
    outer loop
      vertex -0.608989 3.19243 0
      vertex -1.38378 2.94069 -3
      vertex -0.608989 3.19243 -3
    endloop
  endfacet
  facet normal -0.92978 -0.368115 0
    outer loop
      vertex 3.14789 0.808242 -3
      vertex 2.848 1.5657 0
      vertex 2.848 1.5657 -3
    endloop
  endfacet
  facet normal -0.92978 -0.368115 0
    outer loop
      vertex 2.848 1.5657 0
      vertex 3.14789 0.808242 -3
      vertex 3.14789 0.808242 0
    endloop
  endfacet
  facet normal -0.992115 0.125328 0
    outer loop
      vertex 18.1479 -0.808242 -3
      vertex 18.25 0 0
      vertex 18.25 0 -3
    endloop
  endfacet
  facet normal -0.992115 0.125328 0
    outer loop
      vertex 18.25 0 0
      vertex 18.1479 -0.808242 -3
      vertex 18.1479 -0.808242 0
    endloop
  endfacet
  facet normal -0.992115 -0.125328 0
    outer loop
      vertex 18.25 0 -3
      vertex 18.1479 0.808242 0
      vertex 18.1479 0.808242 -3
    endloop
  endfacet
  facet normal -0.992115 -0.125328 0
    outer loop
      vertex 18.1479 0.808242 0
      vertex 18.25 0 -3
      vertex 18.25 0 0
    endloop
  endfacet
  facet normal 1 -0 0
    outer loop
      vertex 11.7756 -0.407332 0
      vertex 11.7756 0.407332 -3
      vertex 11.7756 0.407332 0
    endloop
  endfacet
  facet normal 1 0 0
    outer loop
      vertex 11.7756 0.407332 -3
      vertex 11.7756 -0.407332 0
      vertex 11.7756 -0.407332 -3
    endloop
  endfacet
  facet normal 0.0627955 -0.998026 0
    outer loop
      vertex 14.391 3.19243 -3
      vertex 15.2041 3.24359 0
      vertex 14.391 3.19243 0
    endloop
  endfacet
  facet normal 0.0627955 -0.998026 0
    outer loop
      vertex 15.2041 3.24359 0
      vertex 14.391 3.19243 -3
      vertex 15.2041 3.24359 -3
    endloop
  endfacet
  facet normal -0.637432 0.770506 0
    outer loop
      vertex 17.3691 -2.22478 -3
      vertex 16.7414 -2.74407 0
      vertex 17.3691 -2.22478 0
    endloop
  endfacet
  facet normal -0.637432 0.770506 0
    outer loop
      vertex 16.7414 -2.74407 0
      vertex 17.3691 -2.22478 -3
      vertex 16.7414 -2.74407 -3
    endloop
  endfacet
  facet normal -0.808988 0.587826 0
    outer loop
      vertex 17.3691 -2.22478 -3
      vertex 17.848 -1.5657 0
      vertex 17.848 -1.5657 -3
    endloop
  endfacet
  facet normal -0.808988 0.587826 0
    outer loop
      vertex 17.848 -1.5657 0
      vertex 17.3691 -2.22478 -3
      vertex 17.3691 -2.22478 0
    endloop
  endfacet
  facet normal 0.535852 0.844312 -0
    outer loop
      vertex 13.6162 -2.94069 -3
      vertex 12.9284 -2.50417 0
      vertex 13.6162 -2.94069 0
    endloop
  endfacet
  facet normal 0.535852 0.844312 0
    outer loop
      vertex 12.9284 -2.50417 0
      vertex 13.6162 -2.94069 -3
      vertex 12.9284 -2.50417 -3
    endloop
  endfacet
  facet normal 0.0627955 0.998026 -0
    outer loop
      vertex 15.2041 -3.24359 -3
      vertex 14.391 -3.19243 0
      vertex 15.2041 -3.24359 0
    endloop
  endfacet
  facet normal 0.0627955 0.998026 0
    outer loop
      vertex 14.391 -3.19243 0
      vertex 15.2041 -3.24359 -3
      vertex 14.391 -3.19243 -3
    endloop
  endfacet
  facet normal -0.929776 0.368126 0
    outer loop
      vertex 17.848 -1.5657 -3
      vertex 18.1479 -0.808242 0
      vertex 18.1479 -0.808242 -3
    endloop
  endfacet
  facet normal -0.929776 0.368126 0
    outer loop
      vertex 18.1479 -0.808242 0
      vertex 17.848 -1.5657 -3
      vertex 17.848 -1.5657 0
    endloop
  endfacet
  facet normal 0.968583 -0.248692 0
    outer loop
      vertex 11.7756 0.407332 0
      vertex 11.9782 1.1964 -3
      vertex 11.9782 1.1964 0
    endloop
  endfacet
  facet normal 0.968583 -0.248692 0
    outer loop
      vertex 11.9782 1.1964 -3
      vertex 11.7756 0.407332 0
      vertex 11.7756 0.407332 -3
    endloop
  endfacet
  facet normal -0.808988 -0.587826 0
    outer loop
      vertex 17.848 1.5657 -3
      vertex 17.3691 2.22478 0
      vertex 17.3691 2.22478 -3
    endloop
  endfacet
  facet normal -0.808988 -0.587826 0
    outer loop
      vertex 17.3691 2.22478 0
      vertex 17.848 1.5657 -3
      vertex 17.848 1.5657 0
    endloop
  endfacet
  facet normal 0.728957 -0.684559 0
    outer loop
      vertex 12.3707 1.9103 0
      vertex 12.9284 2.50417 -3
      vertex 12.9284 2.50417 0
    endloop
  endfacet
  facet normal 0.728957 -0.684559 0
    outer loop
      vertex 12.9284 2.50417 -3
      vertex 12.3707 1.9103 0
      vertex 12.3707 1.9103 -3
    endloop
  endfacet
  facet normal 0.876291 -0.481782 0
    outer loop
      vertex 11.9782 1.1964 0
      vertex 12.3707 1.9103 -3
      vertex 12.3707 1.9103 0
    endloop
  endfacet
  facet normal 0.876291 -0.481782 0
    outer loop
      vertex 12.3707 1.9103 -3
      vertex 11.9782 1.1964 0
      vertex 11.9782 1.1964 -3
    endloop
  endfacet
  facet normal 0.728957 0.684559 0
    outer loop
      vertex 12.9284 -2.50417 0
      vertex 12.3707 -1.9103 -3
      vertex 12.3707 -1.9103 0
    endloop
  endfacet
  facet normal 0.728957 0.684559 0
    outer loop
      vertex 12.3707 -1.9103 -3
      vertex 12.9284 -2.50417 0
      vertex 12.9284 -2.50417 -3
    endloop
  endfacet
  facet normal 0.876291 0.481782 0
    outer loop
      vertex 12.3707 -1.9103 0
      vertex 11.9782 -1.1964 -3
      vertex 11.9782 -1.1964 0
    endloop
  endfacet
  facet normal 0.876291 0.481782 0
    outer loop
      vertex 11.9782 -1.1964 -3
      vertex 12.3707 -1.9103 0
      vertex 12.3707 -1.9103 -3
    endloop
  endfacet
  facet normal 0.968583 0.248692 0
    outer loop
      vertex 11.9782 -1.1964 0
      vertex 11.7756 -0.407332 -3
      vertex 11.7756 -0.407332 0
    endloop
  endfacet
  facet normal 0.968583 0.248692 0
    outer loop
      vertex 11.7756 -0.407332 -3
      vertex 11.9782 -1.1964 0
      vertex 11.9782 -1.1964 -3
    endloop
  endfacet
  facet normal 0.309008 0.951059 -0
    outer loop
      vertex 14.391 -3.19243 -3
      vertex 13.6162 -2.94069 0
      vertex 14.391 -3.19243 0
    endloop
  endfacet
  facet normal 0.309008 0.951059 0
    outer loop
      vertex 13.6162 -2.94069 0
      vertex 14.391 -3.19243 -3
      vertex 13.6162 -2.94069 -3
    endloop
  endfacet
  facet normal -0.187398 0.982284 0
    outer loop
      vertex 16.0043 -3.09093 -3
      vertex 15.2041 -3.24359 0
      vertex 16.0043 -3.09093 0
    endloop
  endfacet
  facet normal -0.187398 0.982284 0
    outer loop
      vertex 15.2041 -3.24359 0
      vertex 16.0043 -3.09093 -3
      vertex 15.2041 -3.24359 -3
    endloop
  endfacet
  facet normal -0.187398 -0.982284 0
    outer loop
      vertex 15.2041 3.24359 -3
      vertex 16.0043 3.09093 0
      vertex 15.2041 3.24359 0
    endloop
  endfacet
  facet normal -0.187398 -0.982284 -0
    outer loop
      vertex 16.0043 3.09093 0
      vertex 15.2041 3.24359 -3
      vertex 16.0043 3.09093 -3
    endloop
  endfacet
  facet normal -0.637432 -0.770506 0
    outer loop
      vertex 16.7414 2.74407 -3
      vertex 17.3691 2.22478 0
      vertex 16.7414 2.74407 0
    endloop
  endfacet
  facet normal -0.637432 -0.770506 -0
    outer loop
      vertex 17.3691 2.22478 0
      vertex 16.7414 2.74407 -3
      vertex 17.3691 2.22478 -3
    endloop
  endfacet
  facet normal -0.425786 -0.904824 0
    outer loop
      vertex 16.0043 3.09093 -3
      vertex 16.7414 2.74407 0
      vertex 16.0043 3.09093 0
    endloop
  endfacet
  facet normal -0.425786 -0.904824 -0
    outer loop
      vertex 16.7414 2.74407 0
      vertex 16.0043 3.09093 -3
      vertex 16.7414 2.74407 -3
    endloop
  endfacet
  facet normal -0.425786 0.904824 0
    outer loop
      vertex 16.7414 -2.74407 -3
      vertex 16.0043 -3.09093 0
      vertex 16.7414 -2.74407 0
    endloop
  endfacet
  facet normal -0.425786 0.904824 0
    outer loop
      vertex 16.0043 -3.09093 0
      vertex 16.7414 -2.74407 -3
      vertex 16.0043 -3.09093 -3
    endloop
  endfacet
  facet normal -0.929776 -0.368126 0
    outer loop
      vertex 18.1479 0.808242 -3
      vertex 17.848 1.5657 0
      vertex 17.848 1.5657 -3
    endloop
  endfacet
  facet normal -0.929776 -0.368126 0
    outer loop
      vertex 17.848 1.5657 0
      vertex 18.1479 0.808242 -3
      vertex 18.1479 0.808242 0
    endloop
  endfacet
  facet normal 0.535852 -0.844312 0
    outer loop
      vertex 12.9284 2.50417 -3
      vertex 13.6162 2.94069 0
      vertex 12.9284 2.50417 0
    endloop
  endfacet
  facet normal 0.535852 -0.844312 0
    outer loop
      vertex 13.6162 2.94069 0
      vertex 12.9284 2.50417 -3
      vertex 13.6162 2.94069 -3
    endloop
  endfacet
  facet normal 0.309008 -0.951059 0
    outer loop
      vertex 13.6162 2.94069 -3
      vertex 14.391 3.19243 0
      vertex 13.6162 2.94069 0
    endloop
  endfacet
  facet normal 0.309008 -0.951059 0
    outer loop
      vertex 14.391 3.19243 0
      vertex 13.6162 2.94069 -3
      vertex 14.391 3.19243 -3
    endloop
  endfacet
  facet normal 0.587811 -0.808999 0
    outer loop
      vertex 18.4088 -5.38153 -3
      vertex 19.4227 -4.64484 0
      vertex 18.4088 -5.38153 0
    endloop
  endfacet
  facet normal 0.587811 -0.808999 0
    outer loop
      vertex 19.4227 -4.64484 0
      vertex 18.4088 -5.38153 -3
      vertex 19.4227 -4.64484 -3
    endloop
  endfacet
  facet normal 0.125333 -0.992115 0
    outer loop
      vertex 16 -6 -3
      vertex 17.2435 -5.84291 0
      vertex 16 -6 0
    endloop
  endfacet
  facet normal 0.125333 -0.992115 0
    outer loop
      vertex 17.2435 -5.84291 0
      vertex 16 -6 -3
      vertex 17.2435 -5.84291 -3
    endloop
  endfacet
  facet normal -0.368128 0.929775 0
    outer loop
      vertex -17.2435 5.84291 -3
      vertex -18.4088 5.38153 0
      vertex -17.2435 5.84291 0
    endloop
  endfacet
  facet normal -0.368128 0.929775 0
    outer loop
      vertex -18.4088 5.38153 0
      vertex -17.2435 5.84291 -3
      vertex -18.4088 5.38153 -3
    endloop
  endfacet
  facet normal 0.368128 -0.929775 0
    outer loop
      vertex 17.2435 -5.84291 -3
      vertex 18.4088 -5.38153 0
      vertex 17.2435 -5.84291 0
    endloop
  endfacet
  facet normal 0.368128 -0.929775 0
    outer loop
      vertex 18.4088 -5.38153 0
      vertex 17.2435 -5.84291 -3
      vertex 18.4088 -5.38153 -3
    endloop
  endfacet
  facet normal 0.425799 0.904818 -0
    outer loop
      vertex 18.6791 5.22163 -3
      vertex 17.5451 5.75528 0
      vertex 18.6791 5.22163 0
    endloop
  endfacet
  facet normal 0.425799 0.904818 0
    outer loop
      vertex 17.5451 5.75528 0
      vertex 18.6791 5.22163 -3
      vertex 17.5451 5.75528 -3
    endloop
  endfacet
  facet normal -0.425799 -0.904818 0
    outer loop
      vertex -18.6791 -5.22163 -3
      vertex -17.5451 -5.75528 0
      vertex -18.6791 -5.22163 0
    endloop
  endfacet
  facet normal -0.425799 -0.904818 -0
    outer loop
      vertex -17.5451 -5.75528 0
      vertex -18.6791 -5.22163 -3
      vertex -17.5451 -5.75528 -3
    endloop
  endfacet
  facet normal -0.156435 -0.987688 0
    outer loop
      vertex -17.5451 -5.75528 -3
      vertex -16 -6 0
      vertex -17.5451 -5.75528 0
    endloop
  endfacet
  facet normal -0.156435 -0.987688 -0
    outer loop
      vertex -16 -6 0
      vertex -17.5451 -5.75528 -3
      vertex -16 -6 -3
    endloop
  endfacet
  facet normal 0.992113 0.125346 0
    outer loop
      vertex 21 1 0
      vertex 20.8429 2.24345 -3
      vertex 20.8429 2.24345 0
    endloop
  endfacet
  facet normal 0.992113 0.125346 0
    outer loop
      vertex 20.8429 2.24345 -3
      vertex 21 1 0
      vertex 21 1 -3
    endloop
  endfacet
  facet normal -1 0 0
    outer loop
      vertex -21 -1 -3
      vertex -21 1 0
      vertex -21 1 -3
    endloop
  endfacet
  facet normal -1 -0 0
    outer loop
      vertex -21 1 0
      vertex -21 -1 -3
      vertex -21 -1 0
    endloop
  endfacet
  facet normal 0 0 -1
    outer loop
      vertex 21 -1 -3
      vertex 18.1479 -0.808242 -3
      vertex 18.25 0 -3
    endloop
  endfacet
  facet normal 0 0 -1
    outer loop
      vertex 19.4227 -4.64484 -3
      vertex 17.848 -1.5657 -3
      vertex 18.1479 -0.808242 -3
    endloop
  endfacet
  facet normal 0 0 -1
    outer loop
      vertex 19.4227 -4.64484 -3
      vertex 17.3691 -2.22478 -3
      vertex 17.848 -1.5657 -3
    endloop
  endfacet
  facet normal 0 0 -1
    outer loop
      vertex 16.7414 -2.74407 -3
      vertex 18.4088 -5.38153 -3
      vertex 17.2435 -5.84291 -3
    endloop
  endfacet
  facet normal 0 0 -1
    outer loop
      vertex 19.4227 -4.64484 -3
      vertex 16.7414 -2.74407 -3
      vertex 17.3691 -2.22478 -3
    endloop
  endfacet
  facet normal 0 0 -1
    outer loop
      vertex 17.2435 -5.84291 -3
      vertex 16.0043 -3.09093 -3
      vertex 16.7414 -2.74407 -3
    endloop
  endfacet
  facet normal 0 0 -1
    outer loop
      vertex 16 -6 -3
      vertex 16.0043 -3.09093 -3
      vertex 17.2435 -5.84291 -3
    endloop
  endfacet
  facet normal 0 0 -1
    outer loop
      vertex 16 -6 -3
      vertex 15.2041 -3.24359 -3
      vertex 16.0043 -3.09093 -3
    endloop
  endfacet
  facet normal 0 0 -1
    outer loop
      vertex 16 -6 -3
      vertex 14.391 -3.19243 -3
      vertex 15.2041 -3.24359 -3
    endloop
  endfacet
  facet normal 0 0 -1
    outer loop
      vertex 16 -6 -3
      vertex 13.6162 -2.94069 -3
      vertex 14.391 -3.19243 -3
    endloop
  endfacet
  facet normal 0 0 -1
    outer loop
      vertex 16 -6 -3
      vertex 12.9284 -2.50417 -3
      vertex 13.6162 -2.94069 -3
    endloop
  endfacet
  facet normal 0 0 -1
    outer loop
      vertex 1.74144 -2.74407 -3
      vertex 12.9284 -2.50417 -3
      vertex 16 -6 -3
    endloop
  endfacet
  facet normal 0 0 -1
    outer loop
      vertex 11.7756 -0.407332 -3
      vertex 3.25 0 -3
      vertex 11.7756 0.407332 -3
    endloop
  endfacet
  facet normal 0 0 -1
    outer loop
      vertex 3.14789 -0.808242 -3
      vertex 11.7756 -0.407332 -3
      vertex 11.9782 -1.1964 -3
    endloop
  endfacet
  facet normal 0 0 -1
    outer loop
      vertex 2.848 -1.5657 -3
      vertex 11.9782 -1.1964 -3
      vertex 12.3707 -1.9103 -3
    endloop
  endfacet
  facet normal 0 -0 -1
    outer loop
      vertex 2.36915 -2.22478 -3
      vertex 12.9284 -2.50417 -3
      vertex 1.74144 -2.74407 -3
    endloop
  endfacet
  facet normal -0 0 -1
    outer loop
      vertex 11.7756 -0.407332 -3
      vertex 3.14789 -0.808242 -3
      vertex 3.25 0 -3
    endloop
  endfacet
  facet normal -0 0 -1
    outer loop
      vertex 11.9782 -1.1964 -3
      vertex 2.848 -1.5657 -3
      vertex 3.14789 -0.808242 -3
    endloop
  endfacet
  facet normal -0 0 -1
    outer loop
      vertex 12.3707 -1.9103 -3
      vertex 2.36915 -2.22478 -3
      vertex 2.848 -1.5657 -3
    endloop
  endfacet
  facet normal 0 0 -1
    outer loop
      vertex 12.9284 -2.50417 -3
      vertex 2.36915 -2.22478 -3
      vertex 12.3707 -1.9103 -3
    endloop
  endfacet
  facet normal 0 0 -1
    outer loop
      vertex 16 -6 -3
      vertex 1.0043 -3.09093 -3
      vertex 1.74144 -2.74407 -3
    endloop
  endfacet
  facet normal 0 0 -1
    outer loop
      vertex 16 -6 -3
      vertex 0.204069 -3.24359 -3
      vertex 1.0043 -3.09093 -3
    endloop
  endfacet
  facet normal 0 0 -1
    outer loop
      vertex -16 -6 -3
      vertex 0.204069 -3.24359 -3
      vertex 16 -6 -3
    endloop
  endfacet
  facet normal 0 0 -1
    outer loop
      vertex -3.22437 -0.407332 -3
      vertex -11.75 0 -3
      vertex -3.22437 0.407332 -3
    endloop
  endfacet
  facet normal 0 0 -1
    outer loop
      vertex -11.8521 -0.808242 -3
      vertex -3.22437 -0.407332 -3
      vertex -3.02177 -1.1964 -3
    endloop
  endfacet
  facet normal 0 0 -1
    outer loop
      vertex -12.152 -1.5657 -3
      vertex -3.02177 -1.1964 -3
      vertex -2.6293 -1.9103 -3
    endloop
  endfacet
  facet normal 0 0 -1
    outer loop
      vertex -12.6309 -2.22478 -3
      vertex -2.6293 -1.9103 -3
      vertex -2.07163 -2.50417 -3
    endloop
  endfacet
  facet normal 0 0 -1
    outer loop
      vertex -16 -6 -3
      vertex -2.07163 -2.50417 -3
      vertex -1.38378 -2.94069 -3
    endloop
  endfacet
  facet normal 0 0 -1
    outer loop
      vertex -16 -6 -3
      vertex -1.38378 -2.94069 -3
      vertex -0.608989 -3.19243 -3
    endloop
  endfacet
  facet normal -0 0 -1
    outer loop
      vertex -3.22437 -0.407332 -3
      vertex -11.8521 -0.808242 -3
      vertex -11.75 0 -3
    endloop
  endfacet
  facet normal -0 0 -1
    outer loop
      vertex -3.02177 -1.1964 -3
      vertex -12.152 -1.5657 -3
      vertex -11.8521 -0.808242 -3
    endloop
  endfacet
  facet normal -0 0 -1
    outer loop
      vertex 0.204069 -3.24359 -3
      vertex -16 -6 -3
      vertex -0.608989 -3.19243 -3
    endloop
  endfacet
  facet normal -0 0 -1
    outer loop
      vertex -2.6293 -1.9103 -3
      vertex -12.6309 -2.22478 -3
      vertex -12.152 -1.5657 -3
    endloop
  endfacet
  facet normal 0 0 -1
    outer loop
      vertex -2.07163 -2.50417 -3
      vertex -16 -6 -3
      vertex -13.2586 -2.74407 -3
    endloop
  endfacet
  facet normal -0 0 -1
    outer loop
      vertex -2.07163 -2.50417 -3
      vertex -13.2586 -2.74407 -3
      vertex -12.6309 -2.22478 -3
    endloop
  endfacet
  facet normal 0 0 -1
    outer loop
      vertex -13.2586 -2.74407 -3
      vertex -16 -6 -3
      vertex -13.9957 -3.09093 -3
    endloop
  endfacet
  facet normal 0 0 -1
    outer loop
      vertex -13.9957 -3.09093 -3
      vertex -16 -6 -3
      vertex -14.7959 -3.24359 -3
    endloop
  endfacet
  facet normal -0 0 -1
    outer loop
      vertex -14.7959 -3.24359 -3
      vertex -16 -6 -3
      vertex -15.609 -3.19243 -3
    endloop
  endfacet
  facet normal 0 0 -1
    outer loop
      vertex -16 -6 -3
      vertex -16.3838 -2.94069 -3
      vertex -15.609 -3.19243 -3
    endloop
  endfacet
  facet normal 0 0 -1
    outer loop
      vertex -17.5451 -5.75528 -3
      vertex -16.3838 -2.94069 -3
      vertex -16 -6 -3
    endloop
  endfacet
  facet normal 0 0 -1
    outer loop
      vertex -18.6791 -5.22163 -3
      vertex -16.3838 -2.94069 -3
      vertex -17.5451 -5.75528 -3
    endloop
  endfacet
  facet normal -0 0 -1
    outer loop
      vertex -16.3838 -2.94069 -3
      vertex -18.6791 -5.22163 -3
      vertex -17.0716 -2.50417 -3
    endloop
  endfacet
  facet normal 0 0 -1
    outer loop
      vertex -19.6448 -4.42273 -3
      vertex -17.0716 -2.50417 -3
      vertex -18.6791 -5.22163 -3
    endloop
  endfacet
  facet normal -0 0 -1
    outer loop
      vertex -17.0716 -2.50417 -3
      vertex -19.6448 -4.42273 -3
      vertex -17.6293 -1.9103 -3
    endloop
  endfacet
  facet normal 0 0 -1
    outer loop
      vertex -21 1 -3
      vertex -18.2244 0.407332 -3
      vertex -18.2244 -0.407332 -3
    endloop
  endfacet
  facet normal 0 0 -1
    outer loop
      vertex -20.3815 -3.40877 -3
      vertex -17.6293 -1.9103 -3
      vertex -19.6448 -4.42273 -3
    endloop
  endfacet
  facet normal -0 0 -1
    outer loop
      vertex -17.6293 -1.9103 -3
      vertex -20.3815 -3.40877 -3
      vertex -18.0218 -1.1964 -3
    endloop
  endfacet
  facet normal 0 0 -1
    outer loop
      vertex -18.2244 0.407332 -3
      vertex -21 1 -3
      vertex -20.7553 2.54509 -3
    endloop
  endfacet
  facet normal 0 0 -1
    outer loop
      vertex -20.8429 -2.24345 -3
      vertex -18.0218 -1.1964 -3
      vertex -20.3815 -3.40877 -3
    endloop
  endfacet
  facet normal 0 0 -1
    outer loop
      vertex -18.2244 0.407332 -3
      vertex -19.4227 4.64484 -3
      vertex -18.4088 5.38153 -3
    endloop
  endfacet
  facet normal 0 0 -1
    outer loop
      vertex -21 -1 -3
      vertex -18.0218 -1.1964 -3
      vertex -20.8429 -2.24345 -3
    endloop
  endfacet
  facet normal 0 0 -1
    outer loop
      vertex -18.2244 0.407332 -3
      vertex -20.2216 3.67914 -3
      vertex -19.4227 4.64484 -3
    endloop
  endfacet
  facet normal 0 0 -1
    outer loop
      vertex -18.0218 -1.1964 -3
      vertex -21 -1 -3
      vertex -18.2244 -0.407332 -3
    endloop
  endfacet
  facet normal -0 0 -1
    outer loop
      vertex -18.2244 -0.407332 -3
      vertex -21 -1 -3
      vertex -21 1 -3
    endloop
  endfacet
  facet normal 0 0 -1
    outer loop
      vertex -18.2244 0.407332 -3
      vertex -20.7553 2.54509 -3
      vertex -20.2216 3.67914 -3
    endloop
  endfacet
  facet normal 0 0 -1
    outer loop
      vertex 18.25 0 -3
      vertex 21 1 -3
      vertex 21 -1 -3
    endloop
  endfacet
  facet normal 0 0 -1
    outer loop
      vertex 18.1479 -0.808242 -3
      vertex 21 -1 -3
      vertex 20.7553 -2.54509 -3
    endloop
  endfacet
  facet normal 0 0 -1
    outer loop
      vertex 18.1479 0.808242 -3
      vertex 21 1 -3
      vertex 18.25 0 -3
    endloop
  endfacet
  facet normal 0 0 -1
    outer loop
      vertex 18.1479 -0.808242 -3
      vertex 20.7553 -2.54509 -3
      vertex 20.2216 -3.67914 -3
    endloop
  endfacet
  facet normal -0 0 -1
    outer loop
      vertex 21 1 -3
      vertex 18.1479 0.808242 -3
      vertex 20.8429 2.24345 -3
    endloop
  endfacet
  facet normal 0 0 -1
    outer loop
      vertex 18.1479 -0.808242 -3
      vertex 20.2216 -3.67914 -3
      vertex 19.4227 -4.64484 -3
    endloop
  endfacet
  facet normal 0 0 -1
    outer loop
      vertex 17.848 1.5657 -3
      vertex 20.8429 2.24345 -3
      vertex 18.1479 0.808242 -3
    endloop
  endfacet
  facet normal 0 0 -1
    outer loop
      vertex 16.7414 -2.74407 -3
      vertex 19.4227 -4.64484 -3
      vertex 18.4088 -5.38153 -3
    endloop
  endfacet
  facet normal -0 0 -1
    outer loop
      vertex 20.8429 2.24345 -3
      vertex 17.848 1.5657 -3
      vertex 20.3815 3.40877 -3
    endloop
  endfacet
  facet normal 0 0 -1
    outer loop
      vertex 17.3691 2.22478 -3
      vertex 20.3815 3.40877 -3
      vertex 17.848 1.5657 -3
    endloop
  endfacet
  facet normal -0 0 -1
    outer loop
      vertex 20.3815 3.40877 -3
      vertex 17.3691 2.22478 -3
      vertex 19.6448 4.42273 -3
    endloop
  endfacet
  facet normal -0 0 -1
    outer loop
      vertex 19.6448 4.42273 -3
      vertex 17.3691 2.22478 -3
      vertex 18.6791 5.22163 -3
    endloop
  endfacet
  facet normal 0 0 -1
    outer loop
      vertex 16.7414 2.74407 -3
      vertex 18.6791 5.22163 -3
      vertex 17.3691 2.22478 -3
    endloop
  endfacet
  facet normal -0 0 -1
    outer loop
      vertex 18.6791 5.22163 -3
      vertex 16.7414 2.74407 -3
      vertex 17.5451 5.75528 -3
    endloop
  endfacet
  facet normal 0 0 -1
    outer loop
      vertex 16.0043 3.09093 -3
      vertex 17.5451 5.75528 -3
      vertex 16.7414 2.74407 -3
    endloop
  endfacet
  facet normal 0 0 -1
    outer loop
      vertex 16.0043 3.09093 -3
      vertex 16 6 -3
      vertex 17.5451 5.75528 -3
    endloop
  endfacet
  facet normal 0 0 -1
    outer loop
      vertex 15.2041 3.24359 -3
      vertex 16 6 -3
      vertex 16.0043 3.09093 -3
    endloop
  endfacet
  facet normal 0 0 -1
    outer loop
      vertex 14.391 3.19243 -3
      vertex 16 6 -3
      vertex 15.2041 3.24359 -3
    endloop
  endfacet
  facet normal 0 0 -1
    outer loop
      vertex 13.6162 2.94069 -3
      vertex 16 6 -3
      vertex 14.391 3.19243 -3
    endloop
  endfacet
  facet normal 0 0 -1
    outer loop
      vertex 12.9284 2.50417 -3
      vertex 16 6 -3
      vertex 13.6162 2.94069 -3
    endloop
  endfacet
  facet normal 0 0 -1
    outer loop
      vertex 2.36915 2.22478 -3
      vertex 12.9284 2.50417 -3
      vertex 12.3707 1.9103 -3
    endloop
  endfacet
  facet normal 0 0 -1
    outer loop
      vertex 3.14789 0.808242 -3
      vertex 11.7756 0.407332 -3
      vertex 3.25 0 -3
    endloop
  endfacet
  facet normal 0 0 -1
    outer loop
      vertex 11.7756 0.407332 -3
      vertex 3.14789 0.808242 -3
      vertex 11.9782 1.1964 -3
    endloop
  endfacet
  facet normal 0 0 -1
    outer loop
      vertex 2.848 1.5657 -3
      vertex 11.9782 1.1964 -3
      vertex 3.14789 0.808242 -3
    endloop
  endfacet
  facet normal 0 0 -1
    outer loop
      vertex 11.9782 1.1964 -3
      vertex 2.848 1.5657 -3
      vertex 12.3707 1.9103 -3
    endloop
  endfacet
  facet normal 0 0 -1
    outer loop
      vertex 2.36915 2.22478 -3
      vertex 12.3707 1.9103 -3
      vertex 2.848 1.5657 -3
    endloop
  endfacet
  facet normal -0 0 -1
    outer loop
      vertex 12.9284 2.50417 -3
      vertex 2.36915 2.22478 -3
      vertex 1.74144 2.74407 -3
    endloop
  endfacet
  facet normal 0 0 -1
    outer loop
      vertex 12.9284 2.50417 -3
      vertex 1.74144 2.74407 -3
      vertex 16 6 -3
    endloop
  endfacet
  facet normal 0 0 -1
    outer loop
      vertex 1.0043 3.09093 -3
      vertex 16 6 -3
      vertex 1.74144 2.74407 -3
    endloop
  endfacet
  facet normal 0 0 -1
    outer loop
      vertex 0.204069 3.24359 -3
      vertex 16 6 -3
      vertex 1.0043 3.09093 -3
    endloop
  endfacet
  facet normal 0 0 -1
    outer loop
      vertex -16 6 -3
      vertex 0.204069 3.24359 -3
      vertex -0.608989 3.19243 -3
    endloop
  endfacet
  facet normal 0 0 -1
    outer loop
      vertex -11.8521 0.808242 -3
      vertex -3.22437 0.407332 -3
      vertex -11.75 0 -3
    endloop
  endfacet
  facet normal 0 0 -1
    outer loop
      vertex -3.22437 0.407332 -3
      vertex -11.8521 0.808242 -3
      vertex -3.02177 1.1964 -3
    endloop
  endfacet
  facet normal 0 0 -1
    outer loop
      vertex -12.152 1.5657 -3
      vertex -3.02177 1.1964 -3
      vertex -11.8521 0.808242 -3
    endloop
  endfacet
  facet normal 0 0 -1
    outer loop
      vertex -3.02177 1.1964 -3
      vertex -12.152 1.5657 -3
      vertex -2.6293 1.9103 -3
    endloop
  endfacet
  facet normal 0 0 -1
    outer loop
      vertex -12.6309 2.22478 -3
      vertex -2.6293 1.9103 -3
      vertex -12.152 1.5657 -3
    endloop
  endfacet
  facet normal 0 0 -1
    outer loop
      vertex -2.6293 1.9103 -3
      vertex -12.6309 2.22478 -3
      vertex -2.07163 2.50417 -3
    endloop
  endfacet
  facet normal 0 0 -1
    outer loop
      vertex -13.2586 2.74407 -3
      vertex -2.07163 2.50417 -3
      vertex -12.6309 2.22478 -3
    endloop
  endfacet
  facet normal 0 0 -1
    outer loop
      vertex -16 6 -3
      vertex -2.07163 2.50417 -3
      vertex -13.2586 2.74407 -3
    endloop
  endfacet
  facet normal 0 0 -1
    outer loop
      vertex -2.07163 2.50417 -3
      vertex -16 6 -3
      vertex -1.38378 2.94069 -3
    endloop
  endfacet
  facet normal 0 0 -1
    outer loop
      vertex -1.38378 2.94069 -3
      vertex -16 6 -3
      vertex -0.608989 3.19243 -3
    endloop
  endfacet
  facet normal 0 0 -1
    outer loop
      vertex -16 6 -3
      vertex -13.2586 2.74407 -3
      vertex -13.9957 3.09093 -3
    endloop
  endfacet
  facet normal 0 0 -1
    outer loop
      vertex -16 6 -3
      vertex -13.9957 3.09093 -3
      vertex -14.7959 3.24359 -3
    endloop
  endfacet
  facet normal 0 0 -1
    outer loop
      vertex -16 6 -3
      vertex -14.7959 3.24359 -3
      vertex -15.609 3.19243 -3
    endloop
  endfacet
  facet normal 0 0 -1
    outer loop
      vertex 0.204069 3.24359 -3
      vertex -16 6 -3
      vertex 16 6 -3
    endloop
  endfacet
  facet normal 0 0 -1
    outer loop
      vertex -17.2435 5.84291 -3
      vertex -15.609 3.19243 -3
      vertex -16.3838 2.94069 -3
    endloop
  endfacet
  facet normal 0 0 -1
    outer loop
      vertex -18.4088 5.38153 -3
      vertex -16.3838 2.94069 -3
      vertex -17.0716 2.50417 -3
    endloop
  endfacet
  facet normal 0 0 -1
    outer loop
      vertex -15.609 3.19243 -3
      vertex -17.2435 5.84291 -3
      vertex -16 6 -3
    endloop
  endfacet
  facet normal 0 0 -1
    outer loop
      vertex -18.4088 5.38153 -3
      vertex -17.0716 2.50417 -3
      vertex -17.6293 1.9103 -3
    endloop
  endfacet
  facet normal 0 0 -1
    outer loop
      vertex -18.4088 5.38153 -3
      vertex -17.6293 1.9103 -3
      vertex -18.0218 1.1964 -3
    endloop
  endfacet
  facet normal 0 0 -1
    outer loop
      vertex -18.4088 5.38153 -3
      vertex -18.0218 1.1964 -3
      vertex -18.2244 0.407332 -3
    endloop
  endfacet
  facet normal 0 0 -1
    outer loop
      vertex -16.3838 2.94069 -3
      vertex -18.4088 5.38153 -3
      vertex -17.2435 5.84291 -3
    endloop
  endfacet
  facet normal 0 -1 0
    outer loop
      vertex -16 -6 -3
      vertex 16 -6 0
      vertex -16 -6 0
    endloop
  endfacet
  facet normal 0 -1 -0
    outer loop
      vertex 16 -6 0
      vertex -16 -6 -3
      vertex 16 -6 -3
    endloop
  endfacet
  facet normal 0 1 -0
    outer loop
      vertex 16 6 -3
      vertex -16 6 0
      vertex 16 6 0
    endloop
  endfacet
  facet normal 0 1 0
    outer loop
      vertex -16 6 0
      vertex 16 6 -3
      vertex -16 6 -3
    endloop
  endfacet
  facet normal 0.156435 0.987688 -0
    outer loop
      vertex 17.5451 5.75528 -3
      vertex 16 6 0
      vertex 17.5451 5.75528 0
    endloop
  endfacet
  facet normal 0.156435 0.987688 0
    outer loop
      vertex 16 6 0
      vertex 17.5451 5.75528 -3
      vertex 16 6 -3
    endloop
  endfacet
  facet normal -0.125333 0.992115 0
    outer loop
      vertex -16 6 -3
      vertex -17.2435 5.84291 0
      vertex -16 6 0
    endloop
  endfacet
  facet normal -0.125333 0.992115 0
    outer loop
      vertex -17.2435 5.84291 0
      vertex -16 6 -3
      vertex -17.2435 5.84291 -3
    endloop
  endfacet
  facet normal -0.90481 0.425816 0
    outer loop
      vertex -20.7553 2.54509 -3
      vertex -20.2216 3.67914 0
      vertex -20.2216 3.67914 -3
    endloop
  endfacet
  facet normal -0.90481 0.425816 0
    outer loop
      vertex -20.2216 3.67914 0
      vertex -20.7553 2.54509 -3
      vertex -20.7553 2.54509 0
    endloop
  endfacet
  facet normal 0 0 1
    outer loop
      vertex 18.1479 0.808242 0
      vertex 21 1 0
      vertex 20.8429 2.24345 0
    endloop
  endfacet
  facet normal 0 0 1
    outer loop
      vertex 21 1 0
      vertex 18.25 0 0
      vertex 21 -1 0
    endloop
  endfacet
  facet normal 0 0 1
    outer loop
      vertex 17.848 1.5657 0
      vertex 20.8429 2.24345 0
      vertex 20.3815 3.40877 0
    endloop
  endfacet
  facet normal -0 0 1
    outer loop
      vertex 18.1479 -0.808242 0
      vertex 21 -1 0
      vertex 18.25 0 0
    endloop
  endfacet
  facet normal 0 0 1
    outer loop
      vertex 17.3691 2.22478 0
      vertex 20.3815 3.40877 0
      vertex 19.6448 4.42273 0
    endloop
  endfacet
  facet normal 0 0 1
    outer loop
      vertex 21 -1 0
      vertex 18.1479 -0.808242 0
      vertex 20.7553 -2.54509 0
    endloop
  endfacet
  facet normal 0 0 1
    outer loop
      vertex 17.3691 2.22478 0
      vertex 19.6448 4.42273 0
      vertex 18.6791 5.22163 0
    endloop
  endfacet
  facet normal -0 0 1
    outer loop
      vertex 17.848 -1.5657 0
      vertex 20.7553 -2.54509 0
      vertex 18.1479 -0.808242 0
    endloop
  endfacet
  facet normal 0 0 1
    outer loop
      vertex 20.7553 -2.54509 0
      vertex 17.848 -1.5657 0
      vertex 20.2216 -3.67914 0
    endloop
  endfacet
  facet normal 0 0 1
    outer loop
      vertex 21 1 0
      vertex 18.1479 0.808242 0
      vertex 18.25 0 0
    endloop
  endfacet
  facet normal 0 0 1
    outer loop
      vertex 20.8429 2.24345 0
      vertex 17.848 1.5657 0
      vertex 18.1479 0.808242 0
    endloop
  endfacet
  facet normal 0 0 1
    outer loop
      vertex 16.7414 2.74407 0
      vertex 18.6791 5.22163 0
      vertex 17.5451 5.75528 0
    endloop
  endfacet
  facet normal 0 0 1
    outer loop
      vertex 20.3815 3.40877 0
      vertex 17.3691 2.22478 0
      vertex 17.848 1.5657 0
    endloop
  endfacet
  facet normal 0 0 1
    outer loop
      vertex 18.6791 5.22163 0
      vertex 16.7414 2.74407 0
      vertex 17.3691 2.22478 0
    endloop
  endfacet
  facet normal 0 0 1
    outer loop
      vertex 17.5451 5.75528 0
      vertex 16.0043 3.09093 0
      vertex 16.7414 2.74407 0
    endloop
  endfacet
  facet normal 0 0 1
    outer loop
      vertex 16 6 0
      vertex 16.0043 3.09093 0
      vertex 17.5451 5.75528 0
    endloop
  endfacet
  facet normal 0 0 1
    outer loop
      vertex 16 6 0
      vertex 15.2041 3.24359 0
      vertex 16.0043 3.09093 0
    endloop
  endfacet
  facet normal 0 0 1
    outer loop
      vertex 16 6 0
      vertex 14.391 3.19243 0
      vertex 15.2041 3.24359 0
    endloop
  endfacet
  facet normal 0 0 1
    outer loop
      vertex 16 6 0
      vertex 13.6162 2.94069 0
      vertex 14.391 3.19243 0
    endloop
  endfacet
  facet normal 0 0 1
    outer loop
      vertex 16 6 0
      vertex 12.9284 2.50417 0
      vertex 13.6162 2.94069 0
    endloop
  endfacet
  facet normal -0 0 1
    outer loop
      vertex 1.74144 2.74407 0
      vertex 12.9284 2.50417 0
      vertex 16 6 0
    endloop
  endfacet
  facet normal 0 0 1
    outer loop
      vertex 11.7756 0.407332 0
      vertex 3.25 0 0
      vertex 11.7756 -0.407332 0
    endloop
  endfacet
  facet normal -0 0 1
    outer loop
      vertex 3.14789 0.808242 0
      vertex 11.7756 0.407332 0
      vertex 11.9782 1.1964 0
    endloop
  endfacet
  facet normal -0 0 1
    outer loop
      vertex 2.848 1.5657 0
      vertex 11.9782 1.1964 0
      vertex 12.3707 1.9103 0
    endloop
  endfacet
  facet normal 0 -0 1
    outer loop
      vertex 2.36915 2.22478 0
      vertex 12.9284 2.50417 0
      vertex 1.74144 2.74407 0
    endloop
  endfacet
  facet normal 0 0 1
    outer loop
      vertex 11.7756 0.407332 0
      vertex 3.14789 0.808242 0
      vertex 3.25 0 0
    endloop
  endfacet
  facet normal 0 0 1
    outer loop
      vertex 11.9782 1.1964 0
      vertex 2.848 1.5657 0
      vertex 3.14789 0.808242 0
    endloop
  endfacet
  facet normal 0 0 1
    outer loop
      vertex 12.3707 1.9103 0
      vertex 2.36915 2.22478 0
      vertex 2.848 1.5657 0
    endloop
  endfacet
  facet normal 0 0 1
    outer loop
      vertex 12.9284 2.50417 0
      vertex 2.36915 2.22478 0
      vertex 12.3707 1.9103 0
    endloop
  endfacet
  facet normal 0 0 1
    outer loop
      vertex 16 6 0
      vertex 1.0043 3.09093 0
      vertex 1.74144 2.74407 0
    endloop
  endfacet
  facet normal 0 0 1
    outer loop
      vertex 16 6 0
      vertex 0.204069 3.24359 0
      vertex 1.0043 3.09093 0
    endloop
  endfacet
  facet normal -0 0 1
    outer loop
      vertex -16 6 0
      vertex 0.204069 3.24359 0
      vertex 16 6 0
    endloop
  endfacet
  facet normal 0 0 1
    outer loop
      vertex -3.22437 0.407332 0
      vertex -11.75 0 0
      vertex -3.22437 -0.407332 0
    endloop
  endfacet
  facet normal -0 0 1
    outer loop
      vertex -11.8521 0.808242 0
      vertex -3.22437 0.407332 0
      vertex -3.02177 1.1964 0
    endloop
  endfacet
  facet normal -0 0 1
    outer loop
      vertex -12.152 1.5657 0
      vertex -3.02177 1.1964 0
      vertex -2.6293 1.9103 0
    endloop
  endfacet
  facet normal -0 0 1
    outer loop
      vertex -12.6309 2.22478 0
      vertex -2.6293 1.9103 0
      vertex -2.07163 2.50417 0
    endloop
  endfacet
  facet normal 0 0 1
    outer loop
      vertex -16 6 0
      vertex -2.07163 2.50417 0
      vertex -1.38378 2.94069 0
    endloop
  endfacet
  facet normal 0 0 1
    outer loop
      vertex -16 6 0
      vertex -1.38378 2.94069 0
      vertex -0.608989 3.19243 0
    endloop
  endfacet
  facet normal 0 0 1
    outer loop
      vertex -3.22437 0.407332 0
      vertex -11.8521 0.808242 0
      vertex -11.75 0 0
    endloop
  endfacet
  facet normal 0 0 1
    outer loop
      vertex -3.02177 1.1964 0
      vertex -12.152 1.5657 0
      vertex -11.8521 0.808242 0
    endloop
  endfacet
  facet normal 0 0 1
    outer loop
      vertex 0.204069 3.24359 0
      vertex -16 6 0
      vertex -0.608989 3.19243 0
    endloop
  endfacet
  facet normal 0 0 1
    outer loop
      vertex -2.6293 1.9103 0
      vertex -12.6309 2.22478 0
      vertex -12.152 1.5657 0
    endloop
  endfacet
  facet normal 0 0 1
    outer loop
      vertex -2.07163 2.50417 0
      vertex -16 6 0
      vertex -13.2586 2.74407 0
    endloop
  endfacet
  facet normal 0 0 1
    outer loop
      vertex -2.07163 2.50417 0
      vertex -13.2586 2.74407 0
      vertex -12.6309 2.22478 0
    endloop
  endfacet
  facet normal 0 0 1
    outer loop
      vertex -13.2586 2.74407 0
      vertex -16 6 0
      vertex -13.9957 3.09093 0
    endloop
  endfacet
  facet normal 0 0 1
    outer loop
      vertex -13.9957 3.09093 0
      vertex -16 6 0
      vertex -14.7959 3.24359 0
    endloop
  endfacet
  facet normal 0 0 1
    outer loop
      vertex -14.7959 3.24359 0
      vertex -16 6 0
      vertex -15.609 3.19243 0
    endloop
  endfacet
  facet normal -0 0 1
    outer loop
      vertex -17.2435 5.84291 0
      vertex -15.609 3.19243 0
      vertex -16 6 0
    endloop
  endfacet
  facet normal 0 0 1
    outer loop
      vertex -15.609 3.19243 0
      vertex -17.2435 5.84291 0
      vertex -16.3838 2.94069 0
    endloop
  endfacet
  facet normal -0 0 1
    outer loop
      vertex -18.4088 5.38153 0
      vertex -16.3838 2.94069 0
      vertex -17.2435 5.84291 0
    endloop
  endfacet
  facet normal 0 0 1
    outer loop
      vertex -16.3838 2.94069 0
      vertex -18.4088 5.38153 0
      vertex -17.0716 2.50417 0
    endloop
  endfacet
  facet normal -0 0 1
    outer loop
      vertex -19.4227 4.64484 0
      vertex -17.0716 2.50417 0
      vertex -18.4088 5.38153 0
    endloop
  endfacet
  facet normal 0 0 1
    outer loop
      vertex -17.0716 2.50417 0
      vertex -19.4227 4.64484 0
      vertex -17.6293 1.9103 0
    endloop
  endfacet
  facet normal -0 0 1
    outer loop
      vertex -20.7553 2.54509 0
      vertex -17.6293 1.9103 0
      vertex -20.2216 3.67914 0
    endloop
  endfacet
  facet normal -0 0 1
    outer loop
      vertex -20.2216 3.67914 0
      vertex -17.6293 1.9103 0
      vertex -19.4227 4.64484 0
    endloop
  endfacet
  facet normal -0 0 1
    outer loop
      vertex 17.3691 -2.22478 0
      vertex 20.2216 -3.67914 0
      vertex 17.848 -1.5657 0
    endloop
  endfacet
  facet normal 0 0 1
    outer loop
      vertex 20.2216 -3.67914 0
      vertex 17.3691 -2.22478 0
      vertex 19.4227 -4.64484 0
    endloop
  endfacet
  facet normal -0 0 1
    outer loop
      vertex 16.7414 -2.74407 0
      vertex 19.4227 -4.64484 0
      vertex 17.3691 -2.22478 0
    endloop
  endfacet
  facet normal 0 0 1
    outer loop
      vertex 19.4227 -4.64484 0
      vertex 16.7414 -2.74407 0
      vertex 18.4088 -5.38153 0
    endloop
  endfacet
  facet normal 0 0 1
    outer loop
      vertex 18.4088 -5.38153 0
      vertex 16.7414 -2.74407 0
      vertex 17.2435 -5.84291 0
    endloop
  endfacet
  facet normal -0 0 1
    outer loop
      vertex 16.0043 -3.09093 0
      vertex 17.2435 -5.84291 0
      vertex 16.7414 -2.74407 0
    endloop
  endfacet
  facet normal 0 0 1
    outer loop
      vertex 16.0043 -3.09093 0
      vertex 16 -6 0
      vertex 17.2435 -5.84291 0
    endloop
  endfacet
  facet normal -0 0 1
    outer loop
      vertex 15.2041 -3.24359 0
      vertex 16 -6 0
      vertex 16.0043 -3.09093 0
    endloop
  endfacet
  facet normal 0 0 1
    outer loop
      vertex 14.391 -3.19243 0
      vertex 16 -6 0
      vertex 15.2041 -3.24359 0
    endloop
  endfacet
  facet normal 0 0 1
    outer loop
      vertex 13.6162 -2.94069 0
      vertex 16 -6 0
      vertex 14.391 -3.19243 0
    endloop
  endfacet
  facet normal 0 0 1
    outer loop
      vertex 12.9284 -2.50417 0
      vertex 16 -6 0
      vertex 13.6162 -2.94069 0
    endloop
  endfacet
  facet normal -0 0 1
    outer loop
      vertex 2.36915 -2.22478 0
      vertex 12.9284 -2.50417 0
      vertex 12.3707 -1.9103 0
    endloop
  endfacet
  facet normal 0 0 1
    outer loop
      vertex 3.14789 -0.808242 0
      vertex 11.7756 -0.407332 0
      vertex 3.25 0 0
    endloop
  endfacet
  facet normal 0 0 1
    outer loop
      vertex 11.7756 -0.407332 0
      vertex 3.14789 -0.808242 0
      vertex 11.9782 -1.1964 0
    endloop
  endfacet
  facet normal 0 0 1
    outer loop
      vertex 2.848 -1.5657 0
      vertex 11.9782 -1.1964 0
      vertex 3.14789 -0.808242 0
    endloop
  endfacet
  facet normal 0 0 1
    outer loop
      vertex 11.9782 -1.1964 0
      vertex 2.848 -1.5657 0
      vertex 12.3707 -1.9103 0
    endloop
  endfacet
  facet normal 0 0 1
    outer loop
      vertex 2.36915 -2.22478 0
      vertex 12.3707 -1.9103 0
      vertex 2.848 -1.5657 0
    endloop
  endfacet
  facet normal 0 0 1
    outer loop
      vertex 12.9284 -2.50417 0
      vertex 2.36915 -2.22478 0
      vertex 1.74144 -2.74407 0
    endloop
  endfacet
  facet normal 0 0 1
    outer loop
      vertex 12.9284 -2.50417 0
      vertex 1.74144 -2.74407 0
      vertex 16 -6 0
    endloop
  endfacet
  facet normal -0 0 1
    outer loop
      vertex 1.0043 -3.09093 0
      vertex 16 -6 0
      vertex 1.74144 -2.74407 0
    endloop
  endfacet
  facet normal -0 0 1
    outer loop
      vertex 0.204069 -3.24359 0
      vertex 16 -6 0
      vertex 1.0043 -3.09093 0
    endloop
  endfacet
  facet normal 0 0 1
    outer loop
      vertex -16 -6 0
      vertex 0.204069 -3.24359 0
      vertex -0.608989 -3.19243 0
    endloop
  endfacet
  facet normal 0 0 1
    outer loop
      vertex -11.8521 -0.808242 0
      vertex -3.22437 -0.407332 0
      vertex -11.75 0 0
    endloop
  endfacet
  facet normal 0 0 1
    outer loop
      vertex -3.22437 -0.407332 0
      vertex -11.8521 -0.808242 0
      vertex -3.02177 -1.1964 0
    endloop
  endfacet
  facet normal 0 0 1
    outer loop
      vertex -12.152 -1.5657 0
      vertex -3.02177 -1.1964 0
      vertex -11.8521 -0.808242 0
    endloop
  endfacet
  facet normal 0 0 1
    outer loop
      vertex -3.02177 -1.1964 0
      vertex -12.152 -1.5657 0
      vertex -2.6293 -1.9103 0
    endloop
  endfacet
  facet normal 0 0 1
    outer loop
      vertex -12.6309 -2.22478 0
      vertex -2.6293 -1.9103 0
      vertex -12.152 -1.5657 0
    endloop
  endfacet
  facet normal 0 0 1
    outer loop
      vertex -2.6293 -1.9103 0
      vertex -12.6309 -2.22478 0
      vertex -2.07163 -2.50417 0
    endloop
  endfacet
  facet normal 0 0 1
    outer loop
      vertex -13.2586 -2.74407 0
      vertex -2.07163 -2.50417 0
      vertex -12.6309 -2.22478 0
    endloop
  endfacet
  facet normal 0 0 1
    outer loop
      vertex -16 -6 0
      vertex -2.07163 -2.50417 0
      vertex -13.2586 -2.74407 0
    endloop
  endfacet
  facet normal 0 0 1
    outer loop
      vertex -2.07163 -2.50417 0
      vertex -16 -6 0
      vertex -1.38378 -2.94069 0
    endloop
  endfacet
  facet normal 0 0 1
    outer loop
      vertex -1.38378 -2.94069 0
      vertex -16 -6 0
      vertex -0.608989 -3.19243 0
    endloop
  endfacet
  facet normal 0 0 1
    outer loop
      vertex -16 -6 0
      vertex -13.2586 -2.74407 0
      vertex -13.9957 -3.09093 0
    endloop
  endfacet
  facet normal 0 0 1
    outer loop
      vertex -16 -6 0
      vertex -13.9957 -3.09093 0
      vertex -14.7959 -3.24359 0
    endloop
  endfacet
  facet normal 0 0 1
    outer loop
      vertex -16 -6 0
      vertex -14.7959 -3.24359 0
      vertex -15.609 -3.19243 0
    endloop
  endfacet
  facet normal 0 0 1
    outer loop
      vertex 0.204069 -3.24359 0
      vertex -16 -6 0
      vertex 16 -6 0
    endloop
  endfacet
  facet normal 0 0 1
    outer loop
      vertex -16.3838 -2.94069 0
      vertex -16 -6 0
      vertex -15.609 -3.19243 0
    endloop
  endfacet
  facet normal 0 0 1
    outer loop
      vertex -18.6791 -5.22163 0
      vertex -16.3838 -2.94069 0
      vertex -17.0716 -2.50417 0
    endloop
  endfacet
  facet normal 0 0 1
    outer loop
      vertex -16.3838 -2.94069 0
      vertex -17.5451 -5.75528 0
      vertex -16 -6 0
    endloop
  endfacet
  facet normal 0 0 1
    outer loop
      vertex -19.6448 -4.42273 0
      vertex -17.0716 -2.50417 0
      vertex -17.6293 -1.9103 0
    endloop
  endfacet
  facet normal 0 0 1
    outer loop
      vertex -20.3815 -3.40877 0
      vertex -17.6293 -1.9103 0
      vertex -18.0218 -1.1964 0
    endloop
  endfacet
  facet normal -0 0 1
    outer loop
      vertex -21 -1 0
      vertex -18.0218 -1.1964 0
      vertex -18.2244 -0.407332 0
    endloop
  endfacet
  facet normal 0 0 1
    outer loop
      vertex -16.3838 -2.94069 0
      vertex -18.6791 -5.22163 0
      vertex -17.5451 -5.75528 0
    endloop
  endfacet
  facet normal 0 0 1
    outer loop
      vertex -17.6293 1.9103 0
      vertex -20.7553 2.54509 0
      vertex -18.0218 1.1964 0
    endloop
  endfacet
  facet normal 0 0 1
    outer loop
      vertex -21 1 0
      vertex -18.0218 1.1964 0
      vertex -20.7553 2.54509 0
    endloop
  endfacet
  facet normal 0 0 1
    outer loop
      vertex -21 -1 0
      vertex -18.2244 -0.407332 0
      vertex -21 1 0
    endloop
  endfacet
  facet normal 0 0 1
    outer loop
      vertex -18.0218 1.1964 0
      vertex -21 1 0
      vertex -18.2244 0.407332 0
    endloop
  endfacet
  facet normal 0 0 1
    outer loop
      vertex -18.0218 -1.1964 0
      vertex -21 -1 0
      vertex -20.8429 -2.24345 0
    endloop
  endfacet
  facet normal 0 0 1
    outer loop
      vertex -18.2244 0.407332 0
      vertex -21 1 0
      vertex -18.2244 -0.407332 0
    endloop
  endfacet
  facet normal 0 0 1
    outer loop
      vertex -17.0716 -2.50417 0
      vertex -19.6448 -4.42273 0
      vertex -18.6791 -5.22163 0
    endloop
  endfacet
  facet normal 0 0 1
    outer loop
      vertex -17.6293 -1.9103 0
      vertex -20.3815 -3.40877 0
      vertex -19.6448 -4.42273 0
    endloop
  endfacet
  facet normal 0 0 1
    outer loop
      vertex -18.0218 -1.1964 0
      vertex -20.8429 -2.24345 0
      vertex -20.3815 -3.40877 0
    endloop
  endfacet
  facet normal -0.98769 0.156423 0
    outer loop
      vertex -21 1 -3
      vertex -20.7553 2.54509 0
      vertex -20.7553 2.54509 -3
    endloop
  endfacet
  facet normal -0.98769 0.156423 0
    outer loop
      vertex -20.7553 2.54509 0
      vertex -21 1 -3
      vertex -21 1 0
    endloop
  endfacet
  facet normal -0.992113 -0.125346 0
    outer loop
      vertex -20.8429 -2.24345 -3
      vertex -21 -1 0
      vertex -21 -1 -3
    endloop
  endfacet
  facet normal -0.992113 -0.125346 0
    outer loop
      vertex -21 -1 0
      vertex -20.8429 -2.24345 -3
      vertex -20.8429 -2.24345 0
    endloop
  endfacet
  facet normal 0.809011 0.587793 0
    outer loop
      vertex 20.3815 3.40877 0
      vertex 19.6448 4.42273 -3
      vertex 19.6448 4.42273 0
    endloop
  endfacet
  facet normal 0.809011 0.587793 0
    outer loop
      vertex 19.6448 4.42273 -3
      vertex 20.3815 3.40877 0
      vertex 20.3815 3.40877 -3
    endloop
  endfacet
  facet normal 0.929772 0.368136 0
    outer loop
      vertex 20.8429 2.24345 0
      vertex 20.3815 3.40877 -3
      vertex 20.3815 3.40877 0
    endloop
  endfacet
  facet normal 0.929772 0.368136 0
    outer loop
      vertex 20.3815 3.40877 -3
      vertex 20.8429 2.24345 0
      vertex 20.8429 2.24345 -3
    endloop
  endfacet
  facet normal 0.637426 0.770512 -0
    outer loop
      vertex 19.6448 4.42273 -3
      vertex 18.6791 5.22163 0
      vertex 19.6448 4.42273 0
    endloop
  endfacet
  facet normal 0.637426 0.770512 0
    outer loop
      vertex 18.6791 5.22163 0
      vertex 19.6448 4.42273 -3
      vertex 18.6791 5.22163 -3
    endloop
  endfacet
  facet normal 0.98769 -0.156423 0
    outer loop
      vertex 20.7553 -2.54509 0
      vertex 21 -1 -3
      vertex 21 -1 0
    endloop
  endfacet
  facet normal 0.98769 -0.156423 0
    outer loop
      vertex 21 -1 -3
      vertex 20.7553 -2.54509 0
      vertex 20.7553 -2.54509 -3
    endloop
  endfacet
  facet normal 0.770512 -0.637426 0
    outer loop
      vertex 19.4227 -4.64484 0
      vertex 20.2216 -3.67914 -3
      vertex 20.2216 -3.67914 0
    endloop
  endfacet
  facet normal 0.770512 -0.637426 0
    outer loop
      vertex 20.2216 -3.67914 -3
      vertex 19.4227 -4.64484 0
      vertex 19.4227 -4.64484 -3
    endloop
  endfacet
  facet normal -0.770512 0.637426 0
    outer loop
      vertex -20.2216 3.67914 -3
      vertex -19.4227 4.64484 0
      vertex -19.4227 4.64484 -3
    endloop
  endfacet
  facet normal -0.770512 0.637426 0
    outer loop
      vertex -19.4227 4.64484 0
      vertex -20.2216 3.67914 -3
      vertex -20.2216 3.67914 0
    endloop
  endfacet
  facet normal -0.587811 0.808999 0
    outer loop
      vertex -18.4088 5.38153 -3
      vertex -19.4227 4.64484 0
      vertex -18.4088 5.38153 0
    endloop
  endfacet
  facet normal -0.587811 0.808999 0
    outer loop
      vertex -19.4227 4.64484 0
      vertex -18.4088 5.38153 -3
      vertex -19.4227 4.64484 -3
    endloop
  endfacet
  facet normal -0.637426 -0.770512 0
    outer loop
      vertex -19.6448 -4.42273 -3
      vertex -18.6791 -5.22163 0
      vertex -19.6448 -4.42273 0
    endloop
  endfacet
  facet normal -0.637426 -0.770512 -0
    outer loop
      vertex -18.6791 -5.22163 0
      vertex -19.6448 -4.42273 -3
      vertex -18.6791 -5.22163 -3
    endloop
  endfacet
  facet normal -0.809011 -0.587793 0
    outer loop
      vertex -19.6448 -4.42273 -3
      vertex -20.3815 -3.40877 0
      vertex -20.3815 -3.40877 -3
    endloop
  endfacet
  facet normal -0.809011 -0.587793 0
    outer loop
      vertex -20.3815 -3.40877 0
      vertex -19.6448 -4.42273 -3
      vertex -19.6448 -4.42273 0
    endloop
  endfacet
  facet normal -0.929772 -0.368136 0
    outer loop
      vertex -20.3815 -3.40877 -3
      vertex -20.8429 -2.24345 0
      vertex -20.8429 -2.24345 -3
    endloop
  endfacet
  facet normal -0.929772 -0.368136 0
    outer loop
      vertex -20.8429 -2.24345 0
      vertex -20.3815 -3.40877 -3
      vertex -20.3815 -3.40877 0
    endloop
  endfacet
  facet normal 1 -0 0
    outer loop
      vertex 21 -1 0
      vertex 21 1 -3
      vertex 21 1 0
    endloop
  endfacet
  facet normal 1 0 0
    outer loop
      vertex 21 1 -3
      vertex 21 -1 0
      vertex 21 -1 -3
    endloop
  endfacet
  facet normal 0.90481 -0.425816 0
    outer loop
      vertex 20.2216 -3.67914 0
      vertex 20.7553 -2.54509 -3
      vertex 20.7553 -2.54509 0
    endloop
  endfacet
  facet normal 0.90481 -0.425816 0
    outer loop
      vertex 20.7553 -2.54509 -3
      vertex 20.2216 -3.67914 0
      vertex 20.2216 -3.67914 -3
    endloop
  endfacet
endsolid OpenSCAD_Model
