<?xml version="1.0" standalone="no"?>
<!DOCTYPE svg PUBLIC "-//W3C//DTD SVG 1.1//EN" "http://www.w3.org/Graphics/SVG/1.1/DTD/svg11.dtd">
<svg width="42mm" height="12mm" viewBox="-21 -6 42 12" xmlns="http://www.w3.org/2000/svg" version="1.1">
<title>OpenSCAD Model</title>
<path d="
M 17.2435,5.84291 L 18.4088,5.38153 L 19.4227,4.64484 L 20.2216,3.67914 L 20.7553,2.54509 L 21,1
 L 21,-1 L 20.8429,-2.24345 L 20.3815,-3.40877 L 19.6448,-4.42273 L 18.6791,-5.22163 L 17.5451,-5.75528
 L 16,-6 L -16,-6 L -17.2435,-5.84291 L -18.4088,-5.38153 L -19.4227,-4.64484 L -20.2216,-3.67914
 L -20.7553,-2.54509 L -21,-1 L -21,1 L -20.8429,2.24345 L -20.3815,3.40877 L -19.6448,4.42273
 L -18.6791,5.22163 L -17.5451,5.75528 L -16,6 L 16,6 z
M -15.5621,2.94685 L -16.2773,2.71448 L -16.9123,2.31154 L -17.427,1.76335 L -17.7893,1.10437 L -17.9763,0.375992
 L -17.9763,-0.375992 L -17.7893,-1.10437 L -17.427,-1.76335 L -16.9123,-2.31154 L -16.2773,-2.71448 L -15.5621,-2.94685
 L -14.8116,-2.99408 L -14.0729,-2.85316 L -13.3925,-2.53297 L -12.8131,-2.05363 L -12.3711,-1.44525 L -12.0942,-0.746063
 L -12,-0 L -12.0942,0.746063 L -12.3711,1.44525 L -12.8131,2.05363 L -13.3925,2.53297 L -14.0729,2.85316
 L -14.8116,2.99408 z
M 14.4379,2.94685 L 13.7227,2.71448 L 13.0877,2.31154 L 12.5729,1.76335 L 12.2107,1.10437 L 12.0237,0.375992
 L 12.0237,-0.375992 L 12.2107,-1.10437 L 12.5729,-1.76335 L 13.0877,-2.31154 L 13.7227,-2.71448 L 14.4379,-2.94685
 L 15.1884,-2.99408 L 15.927,-2.85316 L 16.6075,-2.53297 L 17.1869,-2.05363 L 17.6289,-1.44525 L 17.9057,-0.746063
 L 18,-0 L 17.9057,0.746063 L 17.6289,1.44525 L 17.1869,2.05363 L 16.6075,2.53297 L 15.927,2.85316
 L 15.1884,2.99408 z
M -0.562134,2.94685 L -1.27733,2.71448 L -1.91226,2.31154 L -2.42705,1.76335 L -2.78932,1.10437 L -2.97633,0.375992
 L -2.97633,-0.375992 L -2.78932,-1.10437 L -2.42705,-1.76335 L -1.91226,-2.31154 L -1.27733,-2.71448 L -0.562134,-2.94685
 L 0.18837,-2.99408 L 0.927048,-2.85316 L 1.60747,-2.53297 L 2.1869,-2.05363 L 2.62891,-1.44525 L 2.90575,-0.746063
 L 3,-0 L 2.90575,0.746063 L 2.62891,1.44525 L 2.1869,2.05363 L 1.60747,2.53297 L 0.927048,2.85316
 L 0.18837,2.99408 z
" stroke="black" fill="lightgray" stroke-width="0.5"/>
</svg>
