<?xml version="1.0" standalone="no"?>
<!DOCTYPE svg PUBLIC "-//W3C//DTD SVG 1.1//EN" "http://www.w3.org/Graphics/SVG/1.1/DTD/svg11.dtd">
<svg width="44mm" height="14mm" viewBox="-22 -7 44 14" xmlns="http://www.w3.org/2000/svg" version="1.1">
<title>OpenSCAD Model</title>
<path d="
M 16.6576,5.96222 L 17.2991,5.83463 L 17.9184,5.62439 L 18.505,5.33511 L 19.0488,4.97176 L 19.5405,4.54053
 L 19.9718,4.0488 L 20.3351,3.50499 L 20.6244,2.91841 L 20.8346,2.29909 L 20.9622,1.65762 L 21.005,1.00499
 L 21.005,-1.00499 L 20.9622,-1.65762 L 20.8346,-2.29909 L 20.6244,-2.91841 L 20.3351,-3.50499 L 19.9718,-4.0488
 L 19.5405,-4.54053 L 19.0488,-4.97176 L 18.505,-5.33511 L 17.9184,-5.62439 L 17.2991,-5.83463 L 16.6576,-5.96222
 L 16.005,-6.00499 L -16.005,-6.00499 L -16.6576,-5.96222 L -17.2991,-5.83463 L -17.9184,-5.62439 L -18.505,-5.33511
 L -19.0488,-4.97176 L -19.5405,-4.54053 L -19.9718,-4.0488 L -20.3351,-3.50499 L -20.6244,-2.91841 L -20.8346,-2.29909
 L -20.9622,-1.65762 L -21.005,-1.00499 L -21.005,1.00499 L -20.9622,1.65762 L -20.8346,2.29909 L -20.6244,2.91841
 L -20.3351,3.50499 L -19.9718,4.0488 L -19.5405,4.54053 L -19.0488,4.97176 L -18.505,5.33511 L -17.9184,5.62439
 L -17.2991,5.83463 L -16.6576,5.96222 L -16.005,6.00499 L 16.005,6.00499 z
M -15.4242,3.22218 L -15.8412,3.13925 L -16.2437,3.00259 L -16.625,2.81458 L -16.9785,2.57838 L -17.2981,2.2981
 L -17.5784,1.97847 L -17.8146,1.625 L -18.0026,1.24371 L -18.1393,0.841156 L -18.2222,0.42421 L -18.25,-0
 L -18.2222,-0.42421 L -18.1393,-0.841156 L -18.0026,-1.24371 L -17.8146,-1.625 L -17.5784,-1.97847 L -17.2981,-2.2981
 L -16.9785,-2.57838 L -16.625,-2.81458 L -16.2437,-3.00259 L -15.8412,-3.13925 L -15.4242,-3.22218 L -15,-3.25
 L -14.5758,-3.22218 L -14.1588,-3.13925 L -13.7563,-3.00259 L -13.375,-2.81458 L -13.0215,-2.57838 L -12.7019,-2.2981
 L -12.4216,-1.97847 L -12.1854,-1.625 L -11.9974,-1.24371 L -11.8607,-0.841156 L -11.7778,-0.42421 L -11.75,-0
 L -11.7778,0.42421 L -11.8607,0.841156 L -11.9974,1.24371 L -12.1854,1.625 L -12.4216,1.97847 L -12.7019,2.2981
 L -13.0215,2.57838 L -13.375,2.81458 L -13.7563,3.00259 L -14.1588,3.13925 L -14.5758,3.22218 L -15,3.25
 z
M 14.5758,3.22218 L 14.1588,3.13925 L 13.7563,3.00259 L 13.375,2.81458 L 13.0215,2.57838 L 12.7019,2.2981
 L 12.4216,1.97847 L 12.1854,1.625 L 11.9974,1.24371 L 11.8607,0.841156 L 11.7778,0.42421 L 11.75,-0
 L 11.7778,-0.42421 L 11.8607,-0.841156 L 11.9974,-1.24371 L 12.1854,-1.625 L 12.4216,-1.97847 L 12.7019,-2.2981
 L 13.0215,-2.57838 L 13.375,-2.81458 L 13.7563,-3.00259 L 14.1588,-3.13925 L 14.5758,-3.22218 L 15,-3.25
 L 15.4242,-3.22218 L 15.8412,-3.13925 L 16.2437,-3.00259 L 16.625,-2.81458 L 16.9785,-2.57838 L 17.2981,-2.2981
 L 17.5784,-1.97847 L 17.8146,-1.625 L 18.0026,-1.24371 L 18.1393,-0.841156 L 18.2222,-0.42421 L 18.25,-0
 L 18.2222,0.42421 L 18.1393,0.841156 L 18.0026,1.24371 L 17.8146,1.625 L 17.5784,1.97847 L 17.2981,2.2981
 L 16.9785,2.57838 L 16.625,2.81458 L 16.2437,3.00259 L 15.8412,3.13925 L 15.4242,3.22218 L 15,3.25
 z
M -0.42421,3.22218 L -0.841156,3.13925 L -1.24371,3.00259 L -1.625,2.81458 L -1.97847,2.57838 L -2.2981,2.2981
 L -2.57838,1.97847 L -2.81458,1.625 L -3.00259,1.24371 L -3.13925,0.841156 L -3.22218,0.42421 L -3.25,-0
 L -3.22218,-0.42421 L -3.13925,-0.841156 L -3.00259,-1.24371 L -2.81458,-1.625 L -2.57838,-1.97847 L -2.2981,-2.2981
 L -1.97847,-2.57838 L -1.625,-2.81458 L -1.24371,-3.00259 L -0.841156,-3.13925 L -0.42421,-3.22218 L 0,-3.25
 L 0.42421,-3.22218 L 0.841156,-3.13925 L 1.24371,-3.00259 L 1.625,-2.81458 L 1.97847,-2.57838 L 2.2981,-2.2981
 L 2.57838,-1.97847 L 2.81458,-1.625 L 3.00259,-1.24371 L 3.13925,-0.841156 L 3.22218,-0.42421 L 3.25,-0
 L 3.22218,0.42421 L 3.13925,0.841156 L 3.00259,1.24371 L 2.81458,1.625 L 2.57838,1.97847 L 2.2981,2.2981
 L 1.97847,2.57838 L 1.625,2.81458 L 1.24371,3.00259 L 0.841156,3.13925 L 0.42421,3.22218 L 0,3.25
 z
" stroke="black" fill="lightgray" stroke-width="0.5"/>
</svg>
