<?xml version="1.0" standalone="no"?>
<!DOCTYPE svg PUBLIC "-//W3C//DTD SVG 1.1//EN" "http://www.w3.org/Graphics/SVG/1.1/DTD/svg11.dtd">
<svg width="74mm" height="28mm" viewBox="-37 -14 74 28" xmlns="http://www.w3.org/2000/svg" version="1.1">
<title>OpenSCAD Model</title>
<path d="
M 31.6576,13.4622 L 32.2991,13.3346 L 32.9184,13.1244 L 33.505,12.8351 L 34.0488,12.4718 L 34.5405,12.0405
 L 34.9718,11.5488 L 35.3351,11.005 L 35.6244,10.4184 L 35.8346,9.79909 L 35.9622,9.15762 L 36.005,8.50499
 L 36.005,-8.50499 L 35.9622,-9.15762 L 35.8346,-9.79909 L 35.6244,-10.4184 L 35.3351,-11.005 L 34.9718,-11.5488
 L 34.5405,-12.0405 L 34.0488,-12.4718 L 33.505,-12.8351 L 32.9184,-13.1244 L 32.2991,-13.3346 L 31.6576,-13.4622
 L 31.005,-13.505 L -31.005,-13.505 L -31.6576,-13.4622 L -32.2991,-13.3346 L -32.9184,-13.1244 L -33.505,-12.8351
 L -34.0488,-12.4718 L -34.5405,-12.0405 L -34.9718,-11.5488 L -35.3351,-11.005 L -35.6244,-10.4184 L -35.8346,-9.79909
 L -35.9622,-9.15762 L -36.005,-8.50499 L -36.005,8.50499 L -35.9622,9.15762 L -35.8346,9.79909 L -35.6244,10.4184
 L -35.3351,11.005 L -34.9718,11.5488 L -34.5405,12.0405 L -34.0488,12.4718 L -33.505,12.8351 L -32.9184,13.1244
 L -32.2991,13.3346 L -31.6576,13.4622 L -31.005,13.505 L 31.005,13.505 z
M -30.4895,-3.78207 L -30.9706,-3.87778 L -31.4351,-4.03545 L -31.875,-4.2524 L -32.2829,-4.52492 L -32.6516,-4.84834
 L -32.9751,-5.21713 L -33.2476,-5.625 L -33.4645,-6.06493 L -33.6222,-6.52942 L -33.7179,-7.01051 L -33.75,-7.5
 L -33.7179,-7.98947 L -33.6222,-8.47057 L -33.4645,-8.93506 L -33.2476,-9.375 L -32.9751,-9.78285 L -32.6516,-10.1516
 L -32.2829,-10.4751 L -31.875,-10.7476 L -31.4351,-10.9645 L -30.9706,-11.1222 L -30.4895,-11.2179 L -30,-11.25
 L -29.5105,-11.2179 L -29.0294,-11.1222 L -28.5649,-10.9645 L -28.125,-10.7476 L -27.7171,-10.4751 L -27.3483,-10.1516
 L -27.0249,-9.78285 L -26.7524,-9.375 L -26.5354,-8.93506 L -26.3778,-8.47057 L -26.2821,-7.98947 L -26.25,-7.5
 L -26.2821,-7.01051 L -26.3778,-6.52942 L -26.5354,-6.06493 L -26.7524,-5.625 L -27.0249,-5.21713 L -27.3483,-4.84834
 L -27.7171,-4.52492 L -28.125,-4.2524 L -28.5649,-4.03545 L -29.0294,-3.87778 L -29.5105,-3.78207 L -30,-3.75
 z
M -18.4,10.66 L -18.4,7.12 L -16.9282,7.12 L -17.0349,7.04869 L -17.2021,6.90207 L -17.3487,6.73489
 L -17.4722,6.54999 L -17.5706,6.35056 L -17.6421,6.13998 L -17.6855,5.92189 L -17.7,5.7 L -17.6855,5.4781
 L -17.6421,5.25999 L -17.5706,5.04942 L -17.4722,4.84999 L -17.3487,4.6651 L -17.2021,4.49791 L -17.0349,4.35129
 L -16.9731,4.31 L -18.4,4.31 L -18.4,-4.31 L -16.9731,-4.31 L -17.0349,-4.35129 L -17.2021,-4.49791
 L -17.3487,-4.6651 L -17.4722,-4.84999 L -17.5706,-5.04942 L -17.6421,-5.25999 L -17.6855,-5.4781 L -17.7,-5.7
 L -17.6855,-5.92189 L -17.6421,-6.13998 L -17.5706,-6.35056 L -17.4722,-6.54999 L -17.3487,-6.73489 L -17.2021,-6.90207
 L -17.0349,-7.04869 L -16.9282,-7.12 L -18.4,-7.12 L -18.4,-10.66 L 33.4,-10.66 L 33.4,-7.12
 L 31.9282,-7.12 L 32.0349,-7.04869 L 32.2021,-6.90207 L 32.3487,-6.73489 L 32.4722,-6.54999 L 32.5706,-6.35056
 L 32.6421,-6.13998 L 32.6855,-5.92189 L 32.7,-5.7 L 32.6855,-5.4781 L 32.6421,-5.25999 L 32.5706,-5.04942
 L 32.4722,-4.84999 L 32.3487,-4.6651 L 32.2021,-4.49791 L 32.0349,-4.35129 L 31.85,-4.22775 L 31.6506,-4.12939
 L 31.44,-4.05792 L 31.2219,-4.01454 L 31,-4 L 30.7781,-4.01454 L 30.56,-4.05792 L 30.3494,-4.12939
 L 30.15,-4.22775 L 29.9651,-4.35129 L 29.7979,-4.49791 L 29.6513,-4.6651 L 29.5278,-4.84999 L 29.4294,-5.04942
 L 29.3579,-5.25999 L 29.3145,-5.4781 L 29.3,-5.7 L 29.3145,-5.92189 L 29.3579,-6.13998 L 29.4294,-6.35056
 L 29.5278,-6.54999 L 29.6513,-6.73489 L 29.7979,-6.90207 L 29.9651,-7.04869 L 30.0718,-7.12 L -15.0718,-7.12
 L -14.9651,-7.04869 L -14.7979,-6.90207 L -14.6513,-6.73489 L -14.5278,-6.54999 L -14.4294,-6.35056 L -14.3579,-6.13998
 L -14.3145,-5.92189 L -14.3,-5.7 L -14.3145,-5.4781 L -14.3579,-5.25999 L -14.4294,-5.04942 L -14.5278,-4.84999
 L -14.6513,-4.6651 L -14.7979,-4.49791 L -14.9651,-4.35129 L -15.0269,-4.31 L -14.86,-4.31 L -14.86,4.31
 L -15.0269,4.31 L -14.9651,4.35129 L -14.7979,4.49791 L -14.6513,4.6651 L -14.5278,4.84999 L -14.4294,5.04942
 L -14.3579,5.25999 L -14.3145,5.4781 L -14.3,5.7 L -14.3145,5.92189 L -14.3579,6.13998 L -14.4294,6.35056
 L -14.5278,6.54999 L -14.6513,6.73489 L -14.7979,6.90207 L -14.9651,7.04869 L -15.0718,7.12 L 30.0718,7.12
 L 29.9651,7.04869 L 29.7979,6.90207 L 29.6513,6.73489 L 29.5278,6.54999 L 29.4294,6.35056 L 29.3579,6.13998
 L 29.3145,5.92189 L 29.3,5.7 L 29.3145,5.4781 L 29.3579,5.25999 L 29.4294,5.04942 L 29.5278,4.84999
 L 29.6513,4.6651 L 29.7979,4.49791 L 29.9651,4.35129 L 30.15,4.22775 L 30.3494,4.12939 L 30.56,4.05792
 L 30.7781,4.01454 L 31,4 L 31.2219,4.01454 L 31.44,4.05792 L 31.6506,4.12939 L 31.85,4.22775
 L 32.0349,4.35129 L 32.2021,4.49791 L 32.3487,4.6651 L 32.4722,4.84999 L 32.5706,5.04942 L 32.6421,5.25999
 L 32.6855,5.4781 L 32.7,5.7 L 32.6855,5.92189 L 32.6421,6.13998 L 32.5706,6.35056 L 32.4722,6.54999
 L 32.3487,6.73489 L 32.2021,6.90207 L 32.0349,7.04869 L 31.9282,7.12 L 33.4,7.12 L 33.4,10.66
 z
M -30.4895,11.2179 L -30.9706,11.1222 L -31.4351,10.9645 L -31.875,10.7476 L -32.2829,10.4751 L -32.6516,10.1516
 L -32.9751,9.78285 L -33.2476,9.375 L -33.4645,8.93506 L -33.6222,8.47057 L -33.7179,7.98947 L -33.75,7.5
 L -33.7179,7.01051 L -33.6222,6.52942 L -33.4645,6.06493 L -33.2476,5.625 L -32.9751,5.21713 L -32.6516,4.84834
 L -32.2829,4.52492 L -31.875,4.2524 L -31.4351,4.03545 L -30.9706,3.87778 L -30.4895,3.78207 L -30,3.75
 L -29.5105,3.78207 L -29.0294,3.87778 L -28.5649,4.03545 L -28.125,4.2524 L -27.7171,4.52492 L -27.3483,4.84834
 L -27.0249,5.21713 L -26.7524,5.625 L -26.5354,6.06493 L -26.3778,6.52942 L -26.2821,7.01051 L -26.25,7.5
 L -26.2821,7.98947 L -26.3778,8.47057 L -26.5354,8.93506 L -26.7524,9.375 L -27.0249,9.78285 L -27.3483,10.1516
 L -27.7171,10.4751 L -28.125,10.7476 L -28.5649,10.9645 L -29.0294,11.1222 L -29.5105,11.2179 L -30,11.25
 z
" stroke="black" fill="lightgray" stroke-width="0.5"/>
</svg>
