<?xml version="1.0" standalone="no"?>
<!DOCTYPE svg PUBLIC "-//W3C//DTD SVG 1.1//EN" "http://www.w3.org/Graphics/SVG/1.1/DTD/svg11.dtd">
<svg width="74mm" height="28mm" viewBox="-37 -14 74 28" xmlns="http://www.w3.org/2000/svg" version="1.1">
<title>OpenSCAD Model</title>
<path d="
M 31.6576,13.4622 L 32.2991,13.3346 L 32.9184,13.1244 L 33.505,12.8351 L 34.0488,12.4718 L 34.5405,12.0405
 L 34.9718,11.5488 L 35.3351,11.005 L 35.6244,10.4184 L 35.8346,9.79909 L 35.9622,9.15762 L 36.005,8.50499
 L 36.005,-8.50499 L 35.9622,-9.15762 L 35.8346,-9.79909 L 35.6244,-10.4184 L 35.3351,-11.005 L 34.9718,-11.5488
 L 34.5405,-12.0405 L 34.0488,-12.4718 L 33.505,-12.8351 L 32.9184,-13.1244 L 32.2991,-13.3346 L 31.6576,-13.4622
 L 31.005,-13.505 L -31.005,-13.505 L -31.6576,-13.4622 L -32.2991,-13.3346 L -32.9184,-13.1244 L -33.505,-12.8351
 L -34.0488,-12.4718 L -34.5405,-12.0405 L -34.9718,-11.5488 L -35.3351,-11.005 L -35.6244,-10.4184 L -35.8346,-9.79909
 L -35.9622,-9.15762 L -36.005,-8.50499 L -36.005,8.50499 L -35.9622,9.15762 L -35.8346,9.79909 L -35.6244,10.4184
 L -35.3351,11.005 L -34.9718,11.5488 L -34.5405,12.0405 L -34.0488,12.4718 L -33.505,12.8351 L -32.9184,13.1244
 L -32.2991,13.3346 L -31.6576,13.4622 L -31.005,13.505 L 31.005,13.505 z
M -30.4242,-4.2778 L -30.8412,-4.36073 L -31.2437,-4.49739 L -31.625,-4.68541 L -31.9785,-4.9216 L -32.2981,-5.20189
 L -32.5784,-5.52151 L -32.8146,-5.875 L -33.0026,-6.25627 L -33.1393,-6.65883 L -33.2222,-7.07578 L -33.25,-7.5
 L -33.2222,-7.92421 L -33.1393,-8.34116 L -33.0026,-8.74371 L -32.8146,-9.125 L -32.5784,-9.47847 L -32.2981,-9.7981
 L -31.9785,-10.0784 L -31.625,-10.3146 L -31.2437,-10.5026 L -30.8412,-10.6393 L -30.4242,-10.7222 L -30,-10.75
 L -29.5758,-10.7222 L -29.1588,-10.6393 L -28.7563,-10.5026 L -28.375,-10.3146 L -28.0215,-10.0784 L -27.7019,-9.7981
 L -27.4216,-9.47847 L -27.1854,-9.125 L -26.9974,-8.74371 L -26.8607,-8.34116 L -26.7778,-7.92421 L -26.75,-7.5
 L -26.7778,-7.07578 L -26.8607,-6.65883 L -26.9974,-6.25627 L -27.1854,-5.875 L -27.4216,-5.52151 L -27.7019,-5.20189
 L -28.0215,-4.9216 L -28.375,-4.68541 L -28.7563,-4.49739 L -29.1588,-4.36073 L -29.5758,-4.2778 L -30,-4.25
 z
M -18.4,-7.12 L -18.4,-10.66 L 33.4,-10.66 L 33.4,-7.12 z
M 30.8499,-4.55983 L 30.7023,-4.58917 L 30.5599,-4.63753 L 30.425,-4.70406 L 30.2999,-4.78764 L 30.1868,-4.88683
 L 30.0876,-4.99992 L 30.0041,-5.125 L 29.9375,-5.2599 L 29.8892,-5.40234 L 29.8598,-5.54988 L 29.85,-5.7
 L 29.8598,-5.8501 L 29.8892,-5.99763 L 29.9375,-6.14008 L 30.0041,-6.27499 L 30.0876,-6.40007 L 30.1868,-6.51317
 L 30.2999,-6.61235 L 30.425,-6.69592 L 30.5599,-6.76245 L 30.7023,-6.81081 L 30.8499,-6.84015 L 31,-6.84999
 L 31.1501,-6.84015 L 31.2976,-6.81081 L 31.4401,-6.76245 L 31.575,-6.69592 L 31.7001,-6.61235 L 31.8132,-6.51317
 L 31.9124,-6.40007 L 31.9959,-6.27499 L 32.0625,-6.14008 L 32.1108,-5.99763 L 32.1402,-5.8501 L 32.15,-5.7
 L 32.1402,-5.54988 L 32.1108,-5.40234 L 32.0625,-5.2599 L 31.9959,-5.125 L 31.9124,-4.99992 L 31.8132,-4.88683
 L 31.7001,-4.78764 L 31.575,-4.70406 L 31.4401,-4.63753 L 31.2976,-4.58917 L 31.1501,-4.55983 L 31,-4.54999
 z
M -16.1501,-4.55983 L -16.2976,-4.58917 L -16.4401,-4.63753 L -16.575,-4.70406 L -16.7001,-4.78764 L -16.8132,-4.88683
 L -16.9124,-4.99992 L -16.9959,-5.125 L -17.0625,-5.2599 L -17.1108,-5.40234 L -17.1402,-5.54988 L -17.15,-5.7
 L -17.1402,-5.8501 L -17.1108,-5.99763 L -17.0625,-6.14008 L -16.9959,-6.27499 L -16.9124,-6.40007 L -16.8132,-6.51317
 L -16.7001,-6.61235 L -16.575,-6.69592 L -16.4401,-6.76245 L -16.2976,-6.81081 L -16.1501,-6.84015 L -16,-6.84999
 L -15.8499,-6.84015 L -15.7023,-6.81081 L -15.5599,-6.76245 L -15.425,-6.69592 L -15.2999,-6.61235 L -15.1868,-6.51317
 L -15.0876,-6.40007 L -15.0041,-6.27499 L -14.9375,-6.14008 L -14.8892,-5.99763 L -14.8598,-5.8501 L -14.85,-5.7
 L -14.8598,-5.54988 L -14.8892,-5.40234 L -14.9375,-5.2599 L -15.0041,-5.125 L -15.0876,-4.99992 L -15.1868,-4.88683
 L -15.2999,-4.78764 L -15.425,-4.70406 L -15.5599,-4.63753 L -15.7023,-4.58917 L -15.8499,-4.55983 L -16,-4.54999
 z
M -18.4,4.31 L -18.4,-4.31 L -14.86,-4.31 L -14.86,4.31 z
M -30.4242,10.7222 L -30.8412,10.6393 L -31.2437,10.5026 L -31.625,10.3146 L -31.9785,10.0784 L -32.2981,9.7981
 L -32.5784,9.47847 L -32.8146,9.125 L -33.0026,8.74371 L -33.1393,8.34116 L -33.2222,7.92421 L -33.25,7.5
 L -33.2222,7.07578 L -33.1393,6.65883 L -33.0026,6.25627 L -32.8146,5.875 L -32.5784,5.52151 L -32.2981,5.20189
 L -31.9785,4.9216 L -31.625,4.68541 L -31.2437,4.49739 L -30.8412,4.36073 L -30.4242,4.2778 L -30,4.25
 L -29.5758,4.2778 L -29.1588,4.36073 L -28.7563,4.49739 L -28.375,4.68541 L -28.0215,4.9216 L -27.7019,5.20189
 L -27.4216,5.52151 L -27.1854,5.875 L -26.9974,6.25627 L -26.8607,6.65883 L -26.7778,7.07578 L -26.75,7.5
 L -26.7778,7.92421 L -26.8607,8.34116 L -26.9974,8.74371 L -27.1854,9.125 L -27.4216,9.47847 L -27.7019,9.7981
 L -28.0215,10.0784 L -28.375,10.3146 L -28.7563,10.5026 L -29.1588,10.6393 L -29.5758,10.7222 L -30,10.75
 z
M -16.1501,6.84015 L -16.2976,6.81081 L -16.4401,6.76245 L -16.575,6.69592 L -16.7001,6.61235 L -16.8132,6.51317
 L -16.9124,6.40007 L -16.9959,6.27499 L -17.0625,6.14008 L -17.1108,5.99763 L -17.1402,5.8501 L -17.15,5.7
 L -17.1402,5.54988 L -17.1108,5.40234 L -17.0625,5.2599 L -16.9959,5.125 L -16.9124,4.99992 L -16.8132,4.88683
 L -16.7001,4.78764 L -16.575,4.70406 L -16.4401,4.63753 L -16.2976,4.58917 L -16.1501,4.55983 L -16,4.54999
 L -15.8499,4.55983 L -15.7023,4.58917 L -15.5599,4.63753 L -15.425,4.70406 L -15.2999,4.78764 L -15.1868,4.88683
 L -15.0876,4.99992 L -15.0041,5.125 L -14.9375,5.2599 L -14.8892,5.40234 L -14.8598,5.54988 L -14.85,5.7
 L -14.8598,5.8501 L -14.8892,5.99763 L -14.9375,6.14008 L -15.0041,6.27499 L -15.0876,6.40007 L -15.1868,6.51317
 L -15.2999,6.61235 L -15.425,6.69592 L -15.5599,6.76245 L -15.7023,6.81081 L -15.8499,6.84015 L -16,6.84999
 z
M 30.8499,6.84015 L 30.7023,6.81081 L 30.5599,6.76245 L 30.425,6.69592 L 30.2999,6.61235 L 30.1868,6.51317
 L 30.0876,6.40007 L 30.0041,6.27499 L 29.9375,6.14008 L 29.8892,5.99763 L 29.8598,5.8501 L 29.85,5.7
 L 29.8598,5.54988 L 29.8892,5.40234 L 29.9375,5.2599 L 30.0041,5.125 L 30.0876,4.99992 L 30.1868,4.88683
 L 30.2999,4.78764 L 30.425,4.70406 L 30.5599,4.63753 L 30.7023,4.58917 L 30.8499,4.55983 L 31,4.54999
 L 31.1501,4.55983 L 31.2976,4.58917 L 31.4401,4.63753 L 31.575,4.70406 L 31.7001,4.78764 L 31.8132,4.88683
 L 31.9124,4.99992 L 31.9959,5.125 L 32.0625,5.2599 L 32.1108,5.40234 L 32.1402,5.54988 L 32.15,5.7
 L 32.1402,5.8501 L 32.1108,5.99763 L 32.0625,6.14008 L 31.9959,6.27499 L 31.9124,6.40007 L 31.8132,6.51317
 L 31.7001,6.61235 L 31.575,6.69592 L 31.4401,6.76245 L 31.2976,6.81081 L 31.1501,6.84015 L 31,6.84999
 z
M -18.4,10.66 L -18.4,7.12 L 33.4,7.12 L 33.4,10.66 z
" stroke="black" fill="lightgray" stroke-width="0.5"/>
</svg>
