<?xml version="1.0" encoding="UTF-8"?>
<!DOCTYPE svg PUBLIC "-//W3C//DTD SVG 1.1//EN" "http://www.w3.org/Graphics/SVG/1.1/DTD/svg11.dtd">
<!-- Creator: CorelDRAW -->
<svg xmlns="http://www.w3.org/2000/svg" xml:space="preserve" width="93.5292mm" height="13.5292mm" style="shape-rendering:geometricPrecision; text-rendering:geometricPrecision; image-rendering:optimizeQuality; fill-rule:evenodd; clip-rule:evenodd"
viewBox="0 0 28.82 4.16887"
 xmlns:xlink="http://www.w3.org/1999/xlink">
 <defs>
  <style type="text/css">
   <![CDATA[
    .str2 {stroke:#1F1A17;stroke-width:0.163067}
    .str1 {stroke:#1F1A17;stroke-width:0.163067;stroke-linecap:round;stroke-linejoin:round}
    .str0 {stroke:black;stroke-width:0.163067;stroke-linecap:round;stroke-linejoin:round}
    .fil0 {fill:none}
   ]]>
  </style>
 </defs>
 <g id="Layer_x0020_1">
  <metadata id="CorelCorpID_0Corel-Layer"/>
  <path class="fil0 str0" d="M1.12921 1.60682l0.127847 0c0.0839063,-0.144979 0.204789,-0.265862 0.349769,-0.349769l0 -0.127847 0.477616 0 0.477616 0 0 0.127847c0.144979,0.0839063 0.265862,0.204789 0.349769,0.349769l0.127847 0 0 0.477616 0 0.477616 -0.127847 0c-0.0839063,0.144979 -0.204789,0.265862 -0.349769,0.349769l0 0.127847 -0.477616 0 -0.477616 0 0 -0.127847c-0.144979,-0.0839063 -0.265862,-0.204789 -0.349769,-0.349769l-0.127847 0 0 -0.477616 0 -0.477616z"/>
  <path class="fil0 str0" d="M7.29199 1.60682l0.127847 0c0.0839063,-0.144979 0.204789,-0.265862 0.349769,-0.349769l0 -0.127847 0.477616 0 0.477616 0 0 0.127847c0.144979,0.0839063 0.265862,0.204789 0.349769,0.349769l0.127847 0 0 0.477616 0 0.477616 -0.127847 0c-0.0839063,0.144979 -0.204789,0.265862 -0.349769,0.349769l0 0.127847 -0.477616 0 -0.477616 0 0 -0.127847c-0.144979,-0.0839063 -0.265862,-0.204789 -0.349769,-0.349769l-0.127847 0 0 -0.477616 0 -0.477616z"/>
  <path class="fil0 str0" d="M13.4548 1.60682l0.127847 0c0.0839063,-0.144979 0.204789,-0.265862 0.349769,-0.349769l0 -0.127847 0.477616 0 0.477616 0 0 0.127847c0.144979,0.0839063 0.265862,0.204789 0.349769,0.349769l0.127847 0 0 0.477616 0 0.477616 -0.127847 0c-0.0839063,0.144979 -0.204789,0.265862 -0.349769,0.349769l0 0.127847 -0.477616 0 -0.477616 0 0 -0.127847c-0.144979,-0.0839063 -0.265862,-0.204789 -0.349769,-0.349769l-0.127847 0 0 -0.477616 0 -0.477616z"/>
  <path class="fil0 str0" d="M19.6175 1.60682l0.127847 0c0.0839063,-0.144979 0.204789,-0.265862 0.349769,-0.349769l0 -0.127847 0.477616 0 0.477616 0 0 0.127847c0.144979,0.0839063 0.265862,0.204789 0.349769,0.349769l0.127847 0 0 0.477616 0 0.477616 -0.127847 0c-0.0839063,0.144979 -0.204789,0.265862 -0.349769,0.349769l0 0.127847 -0.477616 0 -0.477616 0 0 -0.127847c-0.144979,-0.0839063 -0.265862,-0.204789 -0.349769,-0.349769l-0.127847 0 0 -0.477616 0 -0.477616z"/>
  <path class="fil0 str0" d="M25.7803 1.60682l0.127847 0c0.0839063,-0.144979 0.204789,-0.265862 0.349769,-0.349769l0 -0.127847 0.477616 0 0.477616 0 0 0.127847c0.144979,0.0839063 0.265862,0.204789 0.349769,0.349769l0.127847 0 0 0.477616 0 0.477616 -0.127847 0c-0.0839063,0.144979 -0.204789,0.265862 -0.349769,0.349769l0 0.127847 -0.477616 0 -0.477616 0 0 -0.127847c-0.144979,-0.0839063 -0.265862,-0.204789 -0.349769,-0.349769l-0.127847 0 0 -0.477616 0 -0.477616z"/>
  <rect class="fil0 str1" x="4.2106" y="1.59141" width="1.91046" height="0.986045"/>
  <rect class="fil0 str1" x="10.3734" y="1.59141" width="1.91046" height="0.986045"/>
  <rect class="fil0 str1" x="16.5362" y="1.59141" width="1.91046" height="0.986045"/>
  <rect class="fil0 str1" x="22.6989" y="1.59141" width="1.91046" height="0.986045"/>
  <path class="fil0 str2" d="M0.0815336 2.54665l0 -0.924417c0,-0.850741 0.689954,-1.5407 1.5407,-1.5407l25.5755 0c0.850741,0 1.5407,0.689954 1.5407,1.5407l0 0.924417c0,0.850741 -0.689954,1.5407 -1.5407,1.5407l-25.5755 0c-0.850741,0 -1.5407,-0.689954 -1.5407,-1.5407z"/>
 </g>
</svg>
