<?xml version="1.0" standalone="no"?>
<!DOCTYPE svg PUBLIC "-//W3C//DTD SVG 1.1//EN" "http://www.w3.org/Graphics/SVG/1.1/DTD/svg11.dtd">
<svg width="32mm" height="21mm" viewBox="-16 -7 32 21" xmlns="http://www.w3.org/2000/svg" version="1.1">
<title>OpenSCAD Model</title>
<path d="
M -10.7434,11 L -13,11 L -13,5 L -10.7434,5 L -10.7434,0.0999908 L -10.75,-0
 L -10.7222,-0.42421 L -10.6393,-0.841156 L -10.5026,-1.24371 L -10.3146,-1.625 L -10.0784,-1.97847 L -9.7981,-2.2981
 L -9.47847,-2.57838 L -9.125,-2.81458 L -8.74371,-3.00259 L -8.34116,-3.13925 L -7.92421,-3.22218 L -7.5,-3.25
 L -7.07578,-3.22218 L -6.65883,-3.13925 L -6.25627,-3.00259 L -5.875,-2.81458 L -5.52151,-2.57838 L -5.20189,-2.2981
 L -4.9216,-1.97847 L -4.68541,-1.625 L -4.49739,-1.24371 L -4.36073,-0.841156 L -4.2778,-0.42421 L -4.25,-0
 L -4.25655,0.0999908 L -4.25655,5 L -2,5 L -2,11 L -4.25655,11 L -4.25655,13.5
 L 4.25655,13.5 L 4.25655,11 L 2,11 L 2,5 L 4.25655,5 L 4.25655,0.0999908
 L 4.25,-0 L 4.2778,-0.42421 L 4.36073,-0.841156 L 4.49739,-1.24371 L 4.68541,-1.625 L 4.9216,-1.97847
 L 5.20189,-2.2981 L 5.52151,-2.57838 L 5.875,-2.81458 L 6.25627,-3.00259 L 6.65883,-3.13925 L 7.07578,-3.22218
 L 7.5,-3.25 L 7.92421,-3.22218 L 8.34116,-3.13925 L 8.74371,-3.00259 L 9.125,-2.81458 L 9.47847,-2.57838
 L 9.7981,-2.2981 L 10.0784,-1.97847 L 10.3146,-1.625 L 10.5026,-1.24371 L 10.6393,-0.841156 L 10.7222,-0.42421
 L 10.75,-0 L 10.7434,0.0999908 L 10.7434,5 L 13,5 L 13,11 L 10.7434,11
 L 10.7434,13.5 L 15,13.5 L 15,1.08112 L 15.005,1.00499 L 15.005,-1.00499 L 14.9622,-1.65762
 L 14.8346,-2.29909 L 14.6244,-2.91841 L 14.3351,-3.50499 L 13.9718,-4.0488 L 13.5405,-4.54053 L 13.0488,-4.97176
 L 12.505,-5.33511 L 11.9184,-5.62439 L 11.2991,-5.83463 L 10.6576,-5.96222 L 10.005,-6.00499 L -10.005,-6.00499
 L -10.6576,-5.96222 L -11.2991,-5.83463 L -11.9184,-5.62439 L -12.505,-5.33511 L -13.0488,-4.97176 L -13.5405,-4.54053
 L -13.9718,-4.0488 L -14.3351,-3.50499 L -14.6244,-2.91841 L -14.8346,-2.29909 L -14.9622,-1.65762 L -15.005,-1.00499
 L -15.005,1.00499 L -15,1.08112 L -15,13.5 L -10.7434,13.5 z
" stroke="black" fill="lightgray" stroke-width="0.5"/>
</svg>
