<?xml version="1.0" standalone="no"?>
<!DOCTYPE svg PUBLIC "-//W3C//DTD SVG 1.1//EN" "http://www.w3.org/Graphics/SVG/1.1/DTD/svg11.dtd">
<svg width="32mm" height="21mm" viewBox="-16 -7 32 21" xmlns="http://www.w3.org/2000/svg" version="1.1">
<title>OpenSCAD Model</title>
<path d="
M -10.4934,10.5 L -12.5,10.5 L -12.5,5.5 L -10.4934,5.5 L -10.4934,0.0999908 L -10.5,-0
 L -10.4743,-0.391571 L -10.3978,-0.776443 L -10.2716,-1.14804 L -10.0981,-1.5 L -9.88005,-1.82628 L -9.62131,-2.12131
 L -9.32628,-2.38005 L -9,-2.59807 L -8.64804,-2.77164 L -8.27644,-2.89777 L -7.89157,-2.97432 L -7.5,-3
 L -7.10841,-2.97432 L -6.72354,-2.89777 L -6.35194,-2.77164 L -6,-2.59807 L -5.67371,-2.38005 L -5.37868,-2.12131
 L -5.11993,-1.82628 L -4.90192,-1.5 L -4.72835,-1.14804 L -4.60222,-0.776443 L -4.52567,-0.391571 L -4.5,-0
 L -4.50655,0.0999908 L -4.50655,5.5 L -2.5,5.5 L -2.5,10.5 L -4.50655,10.5 L -4.50655,13.5
 L 4.50655,13.5 L 4.50655,10.5 L 2.5,10.5 L 2.5,5.5 L 4.50655,5.5 L 4.50655,0.0999908
 L 4.5,-0 L 4.52567,-0.391571 L 4.60222,-0.776443 L 4.72835,-1.14804 L 4.90192,-1.5 L 5.11993,-1.82628
 L 5.37868,-2.12131 L 5.67371,-2.38005 L 6,-2.59807 L 6.35194,-2.77164 L 6.72354,-2.89777 L 7.10841,-2.97432
 L 7.5,-3 L 7.89157,-2.97432 L 8.27644,-2.89777 L 8.64804,-2.77164 L 9,-2.59807 L 9.32628,-2.38005
 L 9.62131,-2.12131 L 9.88005,-1.82628 L 10.0981,-1.5 L 10.2716,-1.14804 L 10.3978,-0.776443 L 10.4743,-0.391571
 L 10.5,-0 L 10.4934,0.0999908 L 10.4934,5.5 L 12.5,5.5 L 12.5,10.5 L 10.4934,10.5
 L 10.4934,13.5 L 15,13.5 L 15,1.08112 L 15.005,1.00499 L 15.005,-1.00499 L 14.9622,-1.65762
 L 14.8346,-2.29909 L 14.6244,-2.91841 L 14.3351,-3.50499 L 13.9718,-4.0488 L 13.5405,-4.54053 L 13.0488,-4.97176
 L 12.505,-5.33511 L 11.9184,-5.62439 L 11.2991,-5.83463 L 10.6576,-5.96222 L 10.005,-6.00499 L -10.005,-6.00499
 L -10.6576,-5.96222 L -11.2991,-5.83463 L -11.9184,-5.62439 L -12.505,-5.33511 L -13.0488,-4.97176 L -13.5405,-4.54053
 L -13.9718,-4.0488 L -14.3351,-3.50499 L -14.6244,-2.91841 L -14.8346,-2.29909 L -14.9622,-1.65762 L -15.005,-1.00499
 L -15.005,1.00499 L -15,1.08112 L -15,13.5 L -10.4934,13.5 z
" stroke="black" fill="lightgray" stroke-width="0.5"/>
</svg>
