<?xml version="1.0" standalone="no"?>
<!DOCTYPE svg PUBLIC "-//W3C//DTD SVG 1.1//EN" "http://www.w3.org/Graphics/SVG/1.1/DTD/svg11.dtd">
<svg width="44mm" height="44mm" viewBox="-22 -22 44 44" xmlns="http://www.w3.org/2000/svg" version="1.1">
<title>OpenSCAD Model</title>
<path d="
M 16.6576,20.9622 L 17.2991,20.8346 L 17.9184,20.6244 L 18.505,20.3351 L 19.0488,19.9718 L 19.5405,19.5405
 L 19.9718,19.0488 L 20.3351,18.505 L 20.6244,17.9184 L 20.8346,17.2991 L 20.9622,16.6576 L 21.005,16.005
 L 21.005,-16.005 L 20.9622,-16.6576 L 20.8346,-17.2991 L 20.6244,-17.9184 L 20.3351,-18.505 L 19.9718,-19.0488
 L 19.5405,-19.5405 L 19.0488,-19.9718 L 18.505,-20.3351 L 17.9184,-20.6244 L 17.2991,-20.8346 L 16.6576,-20.9622
 L 16.005,-21.005 L -16.005,-21.005 L -16.6576,-20.9622 L -17.2991,-20.8346 L -17.9184,-20.6244 L -18.505,-20.3351
 L -19.0488,-19.9718 L -19.5405,-19.5405 L -19.9718,-19.0488 L -20.3351,-18.505 L -20.6244,-17.9184 L -20.8346,-17.2991
 L -20.9622,-16.6576 L -21.005,-16.005 L -21.005,16.005 L -20.9622,16.6576 L -20.8346,17.2991 L -20.6244,17.9184
 L -20.3351,18.505 L -19.9718,19.0488 L -19.5405,19.5405 L -19.0488,19.9718 L -18.505,20.3351 L -17.9184,20.6244
 L -17.2991,20.8346 L -16.6576,20.9622 L -16.005,21.005 L 16.005,21.005 z
M 14.5105,-11.2821 L 14.0294,-11.3778 L 13.5649,-11.5354 L 13.125,-11.7524 L 12.7171,-12.0249 L 12.3483,-12.3483
 L 12.0249,-12.7171 L 11.7524,-13.125 L 11.5354,-13.5649 L 11.3778,-14.0294 L 11.2821,-14.5105 L 11.25,-15
 L 11.2821,-15.4895 L 11.3778,-15.9706 L 11.5354,-16.4351 L 11.7524,-16.875 L 12.0249,-17.2829 L 12.3483,-17.6516
 L 12.7171,-17.9751 L 13.125,-18.2476 L 13.5649,-18.4645 L 14.0294,-18.6222 L 14.5105,-18.7179 L 15,-18.75
 L 15.4895,-18.7179 L 15.9706,-18.6222 L 16.4351,-18.4645 L 16.875,-18.2476 L 17.2829,-17.9751 L 17.6516,-17.6516
 L 17.9751,-17.2829 L 18.2476,-16.875 L 18.4645,-16.4351 L 18.6222,-15.9706 L 18.7179,-15.4895 L 18.75,-15
 L 18.7179,-14.5105 L 18.6222,-14.0294 L 18.4645,-13.5649 L 18.2476,-13.125 L 17.9751,-12.7171 L 17.6516,-12.3483
 L 17.2829,-12.0249 L 16.875,-11.7524 L 16.4351,-11.5354 L 15.9706,-11.3778 L 15.4895,-11.2821 L 15,-11.25
 z
M -15.4895,-11.2821 L -15.9706,-11.3778 L -16.4351,-11.5354 L -16.875,-11.7524 L -17.2829,-12.0249 L -17.6516,-12.3483
 L -17.9751,-12.7171 L -18.2476,-13.125 L -18.4645,-13.5649 L -18.6222,-14.0294 L -18.7179,-14.5105 L -18.75,-15
 L -18.7179,-15.4895 L -18.6222,-15.9706 L -18.4645,-16.4351 L -18.2476,-16.875 L -17.9751,-17.2829 L -17.6516,-17.6516
 L -17.2829,-17.9751 L -16.875,-18.2476 L -16.4351,-18.4645 L -15.9706,-18.6222 L -15.4895,-18.7179 L -15,-18.75
 L -14.5105,-18.7179 L -14.0294,-18.6222 L -13.5649,-18.4645 L -13.125,-18.2476 L -12.7171,-17.9751 L -12.3483,-17.6516
 L -12.0249,-17.2829 L -11.7524,-16.875 L -11.5354,-16.4351 L -11.3778,-15.9706 L -11.2821,-15.4895 L -11.25,-15
 L -11.2821,-14.5105 L -11.3778,-14.0294 L -11.5354,-13.5649 L -11.7524,-13.125 L -12.0249,-12.7171 L -12.3483,-12.3483
 L -12.7171,-12.0249 L -13.125,-11.7524 L -13.5649,-11.5354 L -14.0294,-11.3778 L -14.5105,-11.2821 L -15,-11.25
 z
M -7.78716,-12.8188 L -8.0694,-12.875 L -8.34189,-12.9675 L -8.59999,-13.0947 L -8.83926,-13.2546 L -9.05563,-13.4444
 L -9.24538,-13.6607 L -9.40524,-13.9 L -9.53253,-14.1581 L -9.62503,-14.4306 L -9.68117,-14.7128 L -9.7,-15
 L -9.68117,-15.2872 L -9.62503,-15.5694 L -9.53253,-15.8419 L -9.40524,-16.1 L -9.24538,-16.3393 L -9.05563,-16.5556
 L -8.83926,-16.7454 L -8.59999,-16.9052 L -8.34189,-17.0325 L -8.0694,-17.125 L -7.78716,-17.1812 L -7.5,-17.2
 L -7.21283,-17.1812 L -6.93059,-17.125 L -6.6581,-17.0325 L -6.39999,-16.9052 L -6.16072,-16.7454 L -5.94435,-16.5556
 L -5.75461,-16.3393 L -5.59474,-16.1 L -5.46745,-15.8419 L -5.37495,-15.5694 L -5.31882,-15.2872 L -5.29999,-15
 L -5.31882,-14.7128 L -5.37495,-14.4306 L -5.46745,-14.1581 L -5.59474,-13.9 L -5.75461,-13.6607 L -5.94435,-13.4444
 L -6.16072,-13.2546 L -6.39999,-13.0947 L -6.6581,-12.9675 L -6.93059,-12.875 L -7.21283,-12.8188 L -7.5,-12.8
 z
M 7.21283,-12.8188 L 6.93059,-12.875 L 6.6581,-12.9675 L 6.39999,-13.0947 L 6.16072,-13.2546 L 5.94435,-13.4444
 L 5.75461,-13.6607 L 5.59474,-13.9 L 5.46745,-14.1581 L 5.37495,-14.4306 L 5.31882,-14.7128 L 5.29999,-15
 L 5.31882,-15.2872 L 5.37495,-15.5694 L 5.46745,-15.8419 L 5.59474,-16.1 L 5.75461,-16.3393 L 5.94435,-16.5556
 L 6.16072,-16.7454 L 6.39999,-16.9052 L 6.6581,-17.0325 L 6.93059,-17.125 L 7.21283,-17.1812 L 7.5,-17.2
 L 7.78716,-17.1812 L 8.0694,-17.125 L 8.34189,-17.0325 L 8.59999,-16.9052 L 8.83926,-16.7454 L 9.05563,-16.5556
 L 9.24538,-16.3393 L 9.40524,-16.1 L 9.53253,-15.8419 L 9.62503,-15.5694 L 9.68117,-15.2872 L 9.7,-15
 L 9.68117,-14.7128 L 9.62503,-14.4306 L 9.53253,-14.1581 L 9.40524,-13.9 L 9.24538,-13.6607 L 9.05563,-13.4444
 L 8.83926,-13.2546 L 8.59999,-13.0947 L 8.34189,-12.9675 L 8.0694,-12.875 L 7.78716,-12.8188 L 7.5,-12.8
 z
M -1.77515,13.4836 L -3.51993,13.1366 L -5.20448,12.5648 L -6.79999,11.7779 L -8.27914,10.7896 L -9.61664,9.61664
 L -10.7896,8.27914 L -11.6709,6.96011 L -11.8433,7.15666 L -12.1433,7.41972 L -12.475,7.64137 L -12.8328,7.81783
 L -13.2106,7.94606 L -13.6019,8.0239 L -14,8.04999 L -14.3981,8.0239 L -14.7894,7.94606 L -15.1672,7.81783
 L -15.525,7.64137 L -15.8567,7.41972 L -16.1567,7.15666 L -16.4197,6.85672 L -16.6414,6.52499 L -16.8178,6.16718
 L -16.9461,5.78938 L -17.0239,5.3981 L -17.05,5 L -17.0239,4.60188 L -16.9461,4.2106 L -16.8178,3.83281
 L -16.6414,3.47499 L -16.4197,3.14326 L -16.1567,2.84332 L -15.8567,2.58026 L -15.525,2.35861 L -15.1672,2.18216
 L -14.7894,2.05392 L -14.3981,1.97609 L -14,1.95 L -13.6019,1.97609 L -13.4371,2.00885 L -13.4836,1.77515
 L -13.6,-0 L -13.4836,-1.77515 L -13.4371,-2.00885 L -13.6019,-1.97609 L -14,-1.95 L -14.3981,-1.97609
 L -14.7894,-2.05392 L -15.1672,-2.18216 L -15.525,-2.35861 L -15.8567,-2.58026 L -16.1567,-2.84332 L -16.4197,-3.14326
 L -16.6414,-3.47499 L -16.8178,-3.83281 L -16.9461,-4.2106 L -17.0239,-4.60188 L -17.05,-5 L -17.0239,-5.3981
 L -16.9461,-5.78938 L -16.8178,-6.16718 L -16.6414,-6.52499 L -16.4197,-6.85672 L -16.1567,-7.15666 L -15.8567,-7.41972
 L -15.525,-7.64137 L -15.1672,-7.81783 L -14.7894,-7.94606 L -14.3981,-8.0239 L -14,-8.04999 L -13.6019,-8.0239
 L -13.2106,-7.94606 L -12.8328,-7.81783 L -12.475,-7.64137 L -12.1433,-7.41972 L -11.8433,-7.15666 L -11.6709,-6.96011
 L -10.7896,-8.27914 L -9.61664,-9.61664 L -8.27914,-10.7896 L -6.79999,-11.7779 L -5.20448,-12.5648 L -3.51993,-13.1366
 L -1.77515,-13.4836 L 0,-13.6 L 1.77515,-13.4836 L 3.51993,-13.1366 L 5.20448,-12.5648 L 6.79999,-11.7779
 L 8.27914,-10.7896 L 9.61664,-9.61664 L 10.7896,-8.27914 L 11.7779,-6.79999 L 12.5648,-5.20448 L 13.1366,-3.51993
 L 13.4836,-1.77515 L 13.6,-0 L 13.4836,1.77515 L 13.1366,3.51993 L 12.5648,5.20448 L 11.7779,6.79999
 L 10.7896,8.27914 L 9.61664,9.61664 L 8.27914,10.7896 L 6.79999,11.7779 L 5.20448,12.5648 L 3.51993,13.1366
 L 1.77515,13.4836 L 0,13.6 z
M -15.4895,18.7179 L -15.9706,18.6222 L -16.4351,18.4645 L -16.875,18.2476 L -17.2829,17.9751 L -17.6516,17.6516
 L -17.9751,17.2829 L -18.2476,16.875 L -18.4645,16.4351 L -18.6222,15.9706 L -18.7179,15.4895 L -18.75,15
 L -18.7179,14.5105 L -18.6222,14.0294 L -18.4645,13.5649 L -18.2476,13.125 L -17.9751,12.7171 L -17.6516,12.3483
 L -17.2829,12.0249 L -16.875,11.7524 L -16.4351,11.5354 L -15.9706,11.3778 L -15.4895,11.2821 L -15,11.25
 L -14.5105,11.2821 L -14.0294,11.3778 L -13.5649,11.5354 L -13.125,11.7524 L -12.7171,12.0249 L -12.3483,12.3483
 L -12.0249,12.7171 L -11.7524,13.125 L -11.5354,13.5649 L -11.3778,14.0294 L -11.2821,14.5105 L -11.25,15
 L -11.2821,15.4895 L -11.3778,15.9706 L -11.5354,16.4351 L -11.7524,16.875 L -12.0249,17.2829 L -12.3483,17.6516
 L -12.7171,17.9751 L -13.125,18.2476 L -13.5649,18.4645 L -14.0294,18.6222 L -14.5105,18.7179 L -15,18.75
 z
M 14.5105,18.7179 L 14.0294,18.6222 L 13.5649,18.4645 L 13.125,18.2476 L 12.7171,17.9751 L 12.3483,17.6516
 L 12.0249,17.2829 L 11.7524,16.875 L 11.5354,16.4351 L 11.3778,15.9706 L 11.2821,15.4895 L 11.25,15
 L 11.2821,14.5105 L 11.3778,14.0294 L 11.5354,13.5649 L 11.7524,13.125 L 12.0249,12.7171 L 12.3483,12.3483
 L 12.7171,12.0249 L 13.125,11.7524 L 13.5649,11.5354 L 14.0294,11.3778 L 14.5105,11.2821 L 15,11.25
 L 15.4895,11.2821 L 15.9706,11.3778 L 16.4351,11.5354 L 16.875,11.7524 L 17.2829,12.0249 L 17.6516,12.3483
 L 17.9751,12.7171 L 18.2476,13.125 L 18.4645,13.5649 L 18.6222,14.0294 L 18.7179,14.5105 L 18.75,15
 L 18.7179,15.4895 L 18.6222,15.9706 L 18.4645,16.4351 L 18.2476,16.875 L 17.9751,17.2829 L 17.6516,17.6516
 L 17.2829,17.9751 L 16.875,18.2476 L 16.4351,18.4645 L 15.9706,18.6222 L 15.4895,18.7179 L 15,18.75
 z
M -7.78716,17.1812 L -8.0694,17.125 L -8.34189,17.0325 L -8.59999,16.9052 L -8.83926,16.7454 L -9.05563,16.5556
 L -9.24538,16.3393 L -9.40524,16.1 L -9.53253,15.8419 L -9.62503,15.5694 L -9.68117,15.2872 L -9.7,15
 L -9.68117,14.7128 L -9.62503,14.4306 L -9.53253,14.1581 L -9.40524,13.9 L -9.24538,13.6607 L -9.05563,13.4444
 L -8.83926,13.2546 L -8.59999,13.0947 L -8.34189,12.9675 L -8.0694,12.875 L -7.78716,12.8188 L -7.5,12.8
 L -7.21283,12.8188 L -6.93059,12.875 L -6.6581,12.9675 L -6.39999,13.0947 L -6.16072,13.2546 L -5.94435,13.4444
 L -5.75461,13.6607 L -5.59474,13.9 L -5.46745,14.1581 L -5.37495,14.4306 L -5.31882,14.7128 L -5.29999,15
 L -5.31882,15.2872 L -5.37495,15.5694 L -5.46745,15.8419 L -5.59474,16.1 L -5.75461,16.3393 L -5.94435,16.5556
 L -6.16072,16.7454 L -6.39999,16.9052 L -6.6581,17.0325 L -6.93059,17.125 L -7.21283,17.1812 L -7.5,17.2
 z
M 7.21283,17.1812 L 6.93059,17.125 L 6.6581,17.0325 L 6.39999,16.9052 L 6.16072,16.7454 L 5.94435,16.5556
 L 5.75461,16.3393 L 5.59474,16.1 L 5.46745,15.8419 L 5.37495,15.5694 L 5.31882,15.2872 L 5.29999,15
 L 5.31882,14.7128 L 5.37495,14.4306 L 5.46745,14.1581 L 5.59474,13.9 L 5.75461,13.6607 L 5.94435,13.4444
 L 6.16072,13.2546 L 6.39999,13.0947 L 6.6581,12.9675 L 6.93059,12.875 L 7.21283,12.8188 L 7.5,12.8
 L 7.78716,12.8188 L 8.0694,12.875 L 8.34189,12.9675 L 8.59999,13.0947 L 8.83926,13.2546 L 9.05563,13.4444
 L 9.24538,13.6607 L 9.40524,13.9 L 9.53253,14.1581 L 9.62503,14.4306 L 9.68117,14.7128 L 9.7,15
 L 9.68117,15.2872 L 9.62503,15.5694 L 9.53253,15.8419 L 9.40524,16.1 L 9.24538,16.3393 L 9.05563,16.5556
 L 8.83926,16.7454 L 8.59999,16.9052 L 8.34189,17.0325 L 8.0694,17.125 L 7.78716,17.1812 L 7.5,17.2
 z
" stroke="black" fill="lightgray" stroke-width="0.5"/>
</svg>
