  0
SECTION
  2
BLOCKS
  0
ENDSEC
  0
SECTION
  2
ENTITIES
  0
LINE
  8
0
 10
16.6576
 20
-20.9622
 11
17.2991
 21
-20.8346
  0
LINE
  8
0
 10
17.2991
 20
-20.8346
 11
17.9184
 21
-20.6244
  0
LINE
  8
0
 10
17.9184
 20
-20.6244
 11
18.505
 21
-20.3351
  0
LINE
  8
0
 10
18.505
 20
-20.3351
 11
19.0488
 21
-19.9718
  0
LINE
  8
0
 10
19.0488
 20
-19.9718
 11
19.5405
 21
-19.5405
  0
LINE
  8
0
 10
19.5405
 20
-19.5405
 11
19.9718
 21
-19.0488
  0
LINE
  8
0
 10
19.9718
 20
-19.0488
 11
20.3351
 21
-18.505
  0
LINE
  8
0
 10
20.3351
 20
-18.505
 11
20.6244
 21
-17.9184
  0
LINE
  8
0
 10
20.6244
 20
-17.9184
 11
20.8346
 21
-17.2991
  0
LINE
  8
0
 10
20.8346
 20
-17.2991
 11
20.9622
 21
-16.6576
  0
LINE
  8
0
 10
20.9622
 20
-16.6576
 11
21.005
 21
-16.005
  0
LINE
  8
0
 10
21.005
 20
-16.005
 11
21.005
 21
16.005
  0
LINE
  8
0
 10
21.005
 20
16.005
 11
20.9622
 21
16.6576
  0
LINE
  8
0
 10
20.9622
 20
16.6576
 11
20.8346
 21
17.2991
  0
LINE
  8
0
 10
20.8346
 20
17.2991
 11
20.6244
 21
17.9184
  0
LINE
  8
0
 10
20.6244
 20
17.9184
 11
20.3351
 21
18.505
  0
LINE
  8
0
 10
20.3351
 20
18.505
 11
19.9718
 21
19.0488
  0
LINE
  8
0
 10
19.9718
 20
19.0488
 11
19.5405
 21
19.5405
  0
LINE
  8
0
 10
19.5405
 20
19.5405
 11
19.0488
 21
19.9718
  0
LINE
  8
0
 10
19.0488
 20
19.9718
 11
18.505
 21
20.3351
  0
LINE
  8
0
 10
18.505
 20
20.3351
 11
17.9184
 21
20.6244
  0
LINE
  8
0
 10
17.9184
 20
20.6244
 11
17.2991
 21
20.8346
  0
LINE
  8
0
 10
17.2991
 20
20.8346
 11
16.6576
 21
20.9622
  0
LINE
  8
0
 10
16.6576
 20
20.9622
 11
16.005
 21
21.005
  0
LINE
  8
0
 10
16.005
 20
21.005
 11
-16.005
 21
21.005
  0
LINE
  8
0
 10
-16.005
 20
21.005
 11
-16.6576
 21
20.9622
  0
LINE
  8
0
 10
-16.6576
 20
20.9622
 11
-17.2991
 21
20.8346
  0
LINE
  8
0
 10
-17.2991
 20
20.8346
 11
-17.9184
 21
20.6244
  0
LINE
  8
0
 10
-17.9184
 20
20.6244
 11
-18.505
 21
20.3351
  0
LINE
  8
0
 10
-18.505
 20
20.3351
 11
-19.0488
 21
19.9718
  0
LINE
  8
0
 10
-19.0488
 20
19.9718
 11
-19.5405
 21
19.5405
  0
LINE
  8
0
 10
-19.5405
 20
19.5405
 11
-19.9718
 21
19.0488
  0
LINE
  8
0
 10
-19.9718
 20
19.0488
 11
-20.3351
 21
18.505
  0
LINE
  8
0
 10
-20.3351
 20
18.505
 11
-20.6244
 21
17.9184
  0
LINE
  8
0
 10
-20.6244
 20
17.9184
 11
-20.8346
 21
17.2991
  0
LINE
  8
0
 10
-20.8346
 20
17.2991
 11
-20.9622
 21
16.6576
  0
LINE
  8
0
 10
-20.9622
 20
16.6576
 11
-21.005
 21
16.005
  0
LINE
  8
0
 10
-21.005
 20
16.005
 11
-21.005
 21
-16.005
  0
LINE
  8
0
 10
-21.005
 20
-16.005
 11
-20.9622
 21
-16.6576
  0
LINE
  8
0
 10
-20.9622
 20
-16.6576
 11
-20.8346
 21
-17.2991
  0
LINE
  8
0
 10
-20.8346
 20
-17.2991
 11
-20.6244
 21
-17.9184
  0
LINE
  8
0
 10
-20.6244
 20
-17.9184
 11
-20.3351
 21
-18.505
  0
LINE
  8
0
 10
-20.3351
 20
-18.505
 11
-19.9718
 21
-19.0488
  0
LINE
  8
0
 10
-19.9718
 20
-19.0488
 11
-19.5405
 21
-19.5405
  0
LINE
  8
0
 10
-19.5405
 20
-19.5405
 11
-19.0488
 21
-19.9718
  0
LINE
  8
0
 10
-19.0488
 20
-19.9718
 11
-18.505
 21
-20.3351
  0
LINE
  8
0
 10
-18.505
 20
-20.3351
 11
-17.9184
 21
-20.6244
  0
LINE
  8
0
 10
-17.9184
 20
-20.6244
 11
-17.2991
 21
-20.8346
  0
LINE
  8
0
 10
-17.2991
 20
-20.8346
 11
-16.6576
 21
-20.9622
  0
LINE
  8
0
 10
-16.6576
 20
-20.9622
 11
-16.005
 21
-21.005
  0
LINE
  8
0
 10
-16.005
 20
-21.005
 11
16.005
 21
-21.005
  0
LINE
  8
0
 10
16.005
 20
-21.005
 11
16.6576
 21
-20.9622
  0
LINE
  8
0
 10
14.5105
 20
11.2821
 11
14.0294
 21
11.3778
  0
LINE
  8
0
 10
14.0294
 20
11.3778
 11
13.5649
 21
11.5354
  0
LINE
  8
0
 10
13.5649
 20
11.5354
 11
13.125
 21
11.7524
  0
LINE
  8
0
 10
13.125
 20
11.7524
 11
12.7171
 21
12.0249
  0
LINE
  8
0
 10
12.7171
 20
12.0249
 11
12.3483
 21
12.3483
  0
LINE
  8
0
 10
12.3483
 20
12.3483
 11
12.0249
 21
12.7171
  0
LINE
  8
0
 10
12.0249
 20
12.7171
 11
11.7524
 21
13.125
  0
LINE
  8
0
 10
11.7524
 20
13.125
 11
11.5354
 21
13.5649
  0
LINE
  8
0
 10
11.5354
 20
13.5649
 11
11.3778
 21
14.0294
  0
LINE
  8
0
 10
11.3778
 20
14.0294
 11
11.2821
 21
14.5105
  0
LINE
  8
0
 10
11.2821
 20
14.5105
 11
11.25
 21
15
  0
LINE
  8
0
 10
11.25
 20
15
 11
11.2821
 21
15.4895
  0
LINE
  8
0
 10
11.2821
 20
15.4895
 11
11.3778
 21
15.9706
  0
LINE
  8
0
 10
11.3778
 20
15.9706
 11
11.5354
 21
16.4351
  0
LINE
  8
0
 10
11.5354
 20
16.4351
 11
11.7524
 21
16.875
  0
LINE
  8
0
 10
11.7524
 20
16.875
 11
12.0249
 21
17.2829
  0
LINE
  8
0
 10
12.0249
 20
17.2829
 11
12.3483
 21
17.6516
  0
LINE
  8
0
 10
12.3483
 20
17.6516
 11
12.7171
 21
17.9751
  0
LINE
  8
0
 10
12.7171
 20
17.9751
 11
13.125
 21
18.2476
  0
LINE
  8
0
 10
13.125
 20
18.2476
 11
13.5649
 21
18.4645
  0
LINE
  8
0
 10
13.5649
 20
18.4645
 11
14.0294
 21
18.6222
  0
LINE
  8
0
 10
14.0294
 20
18.6222
 11
14.5105
 21
18.7179
  0
LINE
  8
0
 10
14.5105
 20
18.7179
 11
15
 21
18.75
  0
LINE
  8
0
 10
15
 20
18.75
 11
15.4895
 21
18.7179
  0
LINE
  8
0
 10
15.4895
 20
18.7179
 11
15.9706
 21
18.6222
  0
LINE
  8
0
 10
15.9706
 20
18.6222
 11
16.4351
 21
18.4645
  0
LINE
  8
0
 10
16.4351
 20
18.4645
 11
16.875
 21
18.2476
  0
LINE
  8
0
 10
16.875
 20
18.2476
 11
17.2829
 21
17.9751
  0
LINE
  8
0
 10
17.2829
 20
17.9751
 11
17.6516
 21
17.6516
  0
LINE
  8
0
 10
17.6516
 20
17.6516
 11
17.9751
 21
17.2829
  0
LINE
  8
0
 10
17.9751
 20
17.2829
 11
18.2476
 21
16.875
  0
LINE
  8
0
 10
18.2476
 20
16.875
 11
18.4645
 21
16.4351
  0
LINE
  8
0
 10
18.4645
 20
16.4351
 11
18.6222
 21
15.9706
  0
LINE
  8
0
 10
18.6222
 20
15.9706
 11
18.7179
 21
15.4895
  0
LINE
  8
0
 10
18.7179
 20
15.4895
 11
18.75
 21
15
  0
LINE
  8
0
 10
18.75
 20
15
 11
18.7179
 21
14.5105
  0
LINE
  8
0
 10
18.7179
 20
14.5105
 11
18.6222
 21
14.0294
  0
LINE
  8
0
 10
18.6222
 20
14.0294
 11
18.4645
 21
13.5649
  0
LINE
  8
0
 10
18.4645
 20
13.5649
 11
18.2476
 21
13.125
  0
LINE
  8
0
 10
18.2476
 20
13.125
 11
17.9751
 21
12.7171
  0
LINE
  8
0
 10
17.9751
 20
12.7171
 11
17.6516
 21
12.3483
  0
LINE
  8
0
 10
17.6516
 20
12.3483
 11
17.2829
 21
12.0249
  0
LINE
  8
0
 10
17.2829
 20
12.0249
 11
16.875
 21
11.7524
  0
LINE
  8
0
 10
16.875
 20
11.7524
 11
16.4351
 21
11.5354
  0
LINE
  8
0
 10
16.4351
 20
11.5354
 11
15.9706
 21
11.3778
  0
LINE
  8
0
 10
15.9706
 20
11.3778
 11
15.4895
 21
11.2821
  0
LINE
  8
0
 10
15.4895
 20
11.2821
 11
15
 21
11.25
  0
LINE
  8
0
 10
15
 20
11.25
 11
14.5105
 21
11.2821
  0
LINE
  8
0
 10
-15.4895
 20
11.2821
 11
-15.9706
 21
11.3778
  0
LINE
  8
0
 10
-15.9706
 20
11.3778
 11
-16.4351
 21
11.5354
  0
LINE
  8
0
 10
-16.4351
 20
11.5354
 11
-16.875
 21
11.7524
  0
LINE
  8
0
 10
-16.875
 20
11.7524
 11
-17.2829
 21
12.0249
  0
LINE
  8
0
 10
-17.2829
 20
12.0249
 11
-17.6516
 21
12.3483
  0
LINE
  8
0
 10
-17.6516
 20
12.3483
 11
-17.9751
 21
12.7171
  0
LINE
  8
0
 10
-17.9751
 20
12.7171
 11
-18.2476
 21
13.125
  0
LINE
  8
0
 10
-18.2476
 20
13.125
 11
-18.4645
 21
13.5649
  0
LINE
  8
0
 10
-18.4645
 20
13.5649
 11
-18.6222
 21
14.0294
  0
LINE
  8
0
 10
-18.6222
 20
14.0294
 11
-18.7179
 21
14.5105
  0
LINE
  8
0
 10
-18.7179
 20
14.5105
 11
-18.75
 21
15
  0
LINE
  8
0
 10
-18.75
 20
15
 11
-18.7179
 21
15.4895
  0
LINE
  8
0
 10
-18.7179
 20
15.4895
 11
-18.6222
 21
15.9706
  0
LINE
  8
0
 10
-18.6222
 20
15.9706
 11
-18.4645
 21
16.4351
  0
LINE
  8
0
 10
-18.4645
 20
16.4351
 11
-18.2476
 21
16.875
  0
LINE
  8
0
 10
-18.2476
 20
16.875
 11
-17.9751
 21
17.2829
  0
LINE
  8
0
 10
-17.9751
 20
17.2829
 11
-17.6516
 21
17.6516
  0
LINE
  8
0
 10
-17.6516
 20
17.6516
 11
-17.2829
 21
17.9751
  0
LINE
  8
0
 10
-17.2829
 20
17.9751
 11
-16.875
 21
18.2476
  0
LINE
  8
0
 10
-16.875
 20
18.2476
 11
-16.4351
 21
18.4645
  0
LINE
  8
0
 10
-16.4351
 20
18.4645
 11
-15.9706
 21
18.6222
  0
LINE
  8
0
 10
-15.9706
 20
18.6222
 11
-15.4895
 21
18.7179
  0
LINE
  8
0
 10
-15.4895
 20
18.7179
 11
-15
 21
18.75
  0
LINE
  8
0
 10
-15
 20
18.75
 11
-14.5105
 21
18.7179
  0
LINE
  8
0
 10
-14.5105
 20
18.7179
 11
-14.0294
 21
18.6222
  0
LINE
  8
0
 10
-14.0294
 20
18.6222
 11
-13.5649
 21
18.4645
  0
LINE
  8
0
 10
-13.5649
 20
18.4645
 11
-13.125
 21
18.2476
  0
LINE
  8
0
 10
-13.125
 20
18.2476
 11
-12.7171
 21
17.9751
  0
LINE
  8
0
 10
-12.7171
 20
17.9751
 11
-12.3483
 21
17.6516
  0
LINE
  8
0
 10
-12.3483
 20
17.6516
 11
-12.0249
 21
17.2829
  0
LINE
  8
0
 10
-12.0249
 20
17.2829
 11
-11.7524
 21
16.875
  0
LINE
  8
0
 10
-11.7524
 20
16.875
 11
-11.5354
 21
16.4351
  0
LINE
  8
0
 10
-11.5354
 20
16.4351
 11
-11.3778
 21
15.9706
  0
LINE
  8
0
 10
-11.3778
 20
15.9706
 11
-11.2821
 21
15.4895
  0
LINE
  8
0
 10
-11.2821
 20
15.4895
 11
-11.25
 21
15
  0
LINE
  8
0
 10
-11.25
 20
15
 11
-11.2821
 21
14.5105
  0
LINE
  8
0
 10
-11.2821
 20
14.5105
 11
-11.3778
 21
14.0294
  0
LINE
  8
0
 10
-11.3778
 20
14.0294
 11
-11.5354
 21
13.5649
  0
LINE
  8
0
 10
-11.5354
 20
13.5649
 11
-11.7524
 21
13.125
  0
LINE
  8
0
 10
-11.7524
 20
13.125
 11
-12.0249
 21
12.7171
  0
LINE
  8
0
 10
-12.0249
 20
12.7171
 11
-12.3483
 21
12.3483
  0
LINE
  8
0
 10
-12.3483
 20
12.3483
 11
-12.7171
 21
12.0249
  0
LINE
  8
0
 10
-12.7171
 20
12.0249
 11
-13.125
 21
11.7524
  0
LINE
  8
0
 10
-13.125
 20
11.7524
 11
-13.5649
 21
11.5354
  0
LINE
  8
0
 10
-13.5649
 20
11.5354
 11
-14.0294
 21
11.3778
  0
LINE
  8
0
 10
-14.0294
 20
11.3778
 11
-14.5105
 21
11.2821
  0
LINE
  8
0
 10
-14.5105
 20
11.2821
 11
-15
 21
11.25
  0
LINE
  8
0
 10
-15
 20
11.25
 11
-15.4895
 21
11.2821
  0
LINE
  8
0
 10
-7.78716
 20
12.8188
 11
-8.0694
 21
12.875
  0
LINE
  8
0
 10
-8.0694
 20
12.875
 11
-8.34189
 21
12.9675
  0
LINE
  8
0
 10
-8.34189
 20
12.9675
 11
-8.59999
 21
13.0947
  0
LINE
  8
0
 10
-8.59999
 20
13.0947
 11
-8.83926
 21
13.2546
  0
LINE
  8
0
 10
-8.83926
 20
13.2546
 11
-9.05563
 21
13.4444
  0
LINE
  8
0
 10
-9.05563
 20
13.4444
 11
-9.24538
 21
13.6607
  0
LINE
  8
0
 10
-9.24538
 20
13.6607
 11
-9.40524
 21
13.9
  0
LINE
  8
0
 10
-9.40524
 20
13.9
 11
-9.53253
 21
14.1581
  0
LINE
  8
0
 10
-9.53253
 20
14.1581
 11
-9.62503
 21
14.4306
  0
LINE
  8
0
 10
-9.62503
 20
14.4306
 11
-9.68117
 21
14.7128
  0
LINE
  8
0
 10
-9.68117
 20
14.7128
 11
-9.7
 21
15
  0
LINE
  8
0
 10
-9.7
 20
15
 11
-9.68117
 21
15.2872
  0
LINE
  8
0
 10
-9.68117
 20
15.2872
 11
-9.62503
 21
15.5694
  0
LINE
  8
0
 10
-9.62503
 20
15.5694
 11
-9.53253
 21
15.8419
  0
LINE
  8
0
 10
-9.53253
 20
15.8419
 11
-9.40524
 21
16.1
  0
LINE
  8
0
 10
-9.40524
 20
16.1
 11
-9.24538
 21
16.3393
  0
LINE
  8
0
 10
-9.24538
 20
16.3393
 11
-9.05563
 21
16.5556
  0
LINE
  8
0
 10
-9.05563
 20
16.5556
 11
-8.83926
 21
16.7454
  0
LINE
  8
0
 10
-8.83926
 20
16.7454
 11
-8.59999
 21
16.9052
  0
LINE
  8
0
 10
-8.59999
 20
16.9052
 11
-8.34189
 21
17.0325
  0
LINE
  8
0
 10
-8.34189
 20
17.0325
 11
-8.0694
 21
17.125
  0
LINE
  8
0
 10
-8.0694
 20
17.125
 11
-7.78716
 21
17.1812
  0
LINE
  8
0
 10
-7.78716
 20
17.1812
 11
-7.5
 21
17.2
  0
LINE
  8
0
 10
-7.5
 20
17.2
 11
-7.21283
 21
17.1812
  0
LINE
  8
0
 10
-7.21283
 20
17.1812
 11
-6.93059
 21
17.125
  0
LINE
  8
0
 10
-6.93059
 20
17.125
 11
-6.6581
 21
17.0325
  0
LINE
  8
0
 10
-6.6581
 20
17.0325
 11
-6.39999
 21
16.9052
  0
LINE
  8
0
 10
-6.39999
 20
16.9052
 11
-6.16072
 21
16.7454
  0
LINE
  8
0
 10
-6.16072
 20
16.7454
 11
-5.94435
 21
16.5556
  0
LINE
  8
0
 10
-5.94435
 20
16.5556
 11
-5.75461
 21
16.3393
  0
LINE
  8
0
 10
-5.75461
 20
16.3393
 11
-5.59474
 21
16.1
  0
LINE
  8
0
 10
-5.59474
 20
16.1
 11
-5.46745
 21
15.8419
  0
LINE
  8
0
 10
-5.46745
 20
15.8419
 11
-5.37495
 21
15.5694
  0
LINE
  8
0
 10
-5.37495
 20
15.5694
 11
-5.31882
 21
15.2872
  0
LINE
  8
0
 10
-5.31882
 20
15.2872
 11
-5.29999
 21
15
  0
LINE
  8
0
 10
-5.29999
 20
15
 11
-5.31882
 21
14.7128
  0
LINE
  8
0
 10
-5.31882
 20
14.7128
 11
-5.37495
 21
14.4306
  0
LINE
  8
0
 10
-5.37495
 20
14.4306
 11
-5.46745
 21
14.1581
  0
LINE
  8
0
 10
-5.46745
 20
14.1581
 11
-5.59474
 21
13.9
  0
LINE
  8
0
 10
-5.59474
 20
13.9
 11
-5.75461
 21
13.6607
  0
LINE
  8
0
 10
-5.75461
 20
13.6607
 11
-5.94435
 21
13.4444
  0
LINE
  8
0
 10
-5.94435
 20
13.4444
 11
-6.16072
 21
13.2546
  0
LINE
  8
0
 10
-6.16072
 20
13.2546
 11
-6.39999
 21
13.0947
  0
LINE
  8
0
 10
-6.39999
 20
13.0947
 11
-6.6581
 21
12.9675
  0
LINE
  8
0
 10
-6.6581
 20
12.9675
 11
-6.93059
 21
12.875
  0
LINE
  8
0
 10
-6.93059
 20
12.875
 11
-7.21283
 21
12.8188
  0
LINE
  8
0
 10
-7.21283
 20
12.8188
 11
-7.5
 21
12.8
  0
LINE
  8
0
 10
-7.5
 20
12.8
 11
-7.78716
 21
12.8188
  0
LINE
  8
0
 10
7.21283
 20
12.8188
 11
6.93059
 21
12.875
  0
LINE
  8
0
 10
6.93059
 20
12.875
 11
6.6581
 21
12.9675
  0
LINE
  8
0
 10
6.6581
 20
12.9675
 11
6.39999
 21
13.0947
  0
LINE
  8
0
 10
6.39999
 20
13.0947
 11
6.16072
 21
13.2546
  0
LINE
  8
0
 10
6.16072
 20
13.2546
 11
5.94435
 21
13.4444
  0
LINE
  8
0
 10
5.94435
 20
13.4444
 11
5.75461
 21
13.6607
  0
LINE
  8
0
 10
5.75461
 20
13.6607
 11
5.59474
 21
13.9
  0
LINE
  8
0
 10
5.59474
 20
13.9
 11
5.46745
 21
14.1581
  0
LINE
  8
0
 10
5.46745
 20
14.1581
 11
5.37495
 21
14.4306
  0
LINE
  8
0
 10
5.37495
 20
14.4306
 11
5.31882
 21
14.7128
  0
LINE
  8
0
 10
5.31882
 20
14.7128
 11
5.29999
 21
15
  0
LINE
  8
0
 10
5.29999
 20
15
 11
5.31882
 21
15.2872
  0
LINE
  8
0
 10
5.31882
 20
15.2872
 11
5.37495
 21
15.5694
  0
LINE
  8
0
 10
5.37495
 20
15.5694
 11
5.46745
 21
15.8419
  0
LINE
  8
0
 10
5.46745
 20
15.8419
 11
5.59474
 21
16.1
  0
LINE
  8
0
 10
5.59474
 20
16.1
 11
5.75461
 21
16.3393
  0
LINE
  8
0
 10
5.75461
 20
16.3393
 11
5.94435
 21
16.5556
  0
LINE
  8
0
 10
5.94435
 20
16.5556
 11
6.16072
 21
16.7454
  0
LINE
  8
0
 10
6.16072
 20
16.7454
 11
6.39999
 21
16.9052
  0
LINE
  8
0
 10
6.39999
 20
16.9052
 11
6.6581
 21
17.0325
  0
LINE
  8
0
 10
6.6581
 20
17.0325
 11
6.93059
 21
17.125
  0
LINE
  8
0
 10
6.93059
 20
17.125
 11
7.21283
 21
17.1812
  0
LINE
  8
0
 10
7.21283
 20
17.1812
 11
7.5
 21
17.2
  0
LINE
  8
0
 10
7.5
 20
17.2
 11
7.78716
 21
17.1812
  0
LINE
  8
0
 10
7.78716
 20
17.1812
 11
8.0694
 21
17.125
  0
LINE
  8
0
 10
8.0694
 20
17.125
 11
8.34189
 21
17.0325
  0
LINE
  8
0
 10
8.34189
 20
17.0325
 11
8.59999
 21
16.9052
  0
LINE
  8
0
 10
8.59999
 20
16.9052
 11
8.83926
 21
16.7454
  0
LINE
  8
0
 10
8.83926
 20
16.7454
 11
9.05563
 21
16.5556
  0
LINE
  8
0
 10
9.05563
 20
16.5556
 11
9.24538
 21
16.3393
  0
LINE
  8
0
 10
9.24538
 20
16.3393
 11
9.40524
 21
16.1
  0
LINE
  8
0
 10
9.40524
 20
16.1
 11
9.53253
 21
15.8419
  0
LINE
  8
0
 10
9.53253
 20
15.8419
 11
9.62503
 21
15.5694
  0
LINE
  8
0
 10
9.62503
 20
15.5694
 11
9.68117
 21
15.2872
  0
LINE
  8
0
 10
9.68117
 20
15.2872
 11
9.7
 21
15
  0
LINE
  8
0
 10
9.7
 20
15
 11
9.68117
 21
14.7128
  0
LINE
  8
0
 10
9.68117
 20
14.7128
 11
9.62503
 21
14.4306
  0
LINE
  8
0
 10
9.62503
 20
14.4306
 11
9.53253
 21
14.1581
  0
LINE
  8
0
 10
9.53253
 20
14.1581
 11
9.40524
 21
13.9
  0
LINE
  8
0
 10
9.40524
 20
13.9
 11
9.24538
 21
13.6607
  0
LINE
  8
0
 10
9.24538
 20
13.6607
 11
9.05563
 21
13.4444
  0
LINE
  8
0
 10
9.05563
 20
13.4444
 11
8.83926
 21
13.2546
  0
LINE
  8
0
 10
8.83926
 20
13.2546
 11
8.59999
 21
13.0947
  0
LINE
  8
0
 10
8.59999
 20
13.0947
 11
8.34189
 21
12.9675
  0
LINE
  8
0
 10
8.34189
 20
12.9675
 11
8.0694
 21
12.875
  0
LINE
  8
0
 10
8.0694
 20
12.875
 11
7.78716
 21
12.8188
  0
LINE
  8
0
 10
7.78716
 20
12.8188
 11
7.5
 21
12.8
  0
LINE
  8
0
 10
7.5
 20
12.8
 11
7.21283
 21
12.8188
  0
LINE
  8
0
 10
-1.77515
 20
-13.4836
 11
-3.51993
 21
-13.1366
  0
LINE
  8
0
 10
-3.51993
 20
-13.1366
 11
-5.20448
 21
-12.5648
  0
LINE
  8
0
 10
-5.20448
 20
-12.5648
 11
-6.79999
 21
-11.7779
  0
LINE
  8
0
 10
-6.79999
 20
-11.7779
 11
-8.27914
 21
-10.7896
  0
LINE
  8
0
 10
-8.27914
 20
-10.7896
 11
-9.61664
 21
-9.61664
  0
LINE
  8
0
 10
-9.61664
 20
-9.61664
 11
-10.7896
 21
-8.27914
  0
LINE
  8
0
 10
-10.7896
 20
-8.27914
 11
-11.6709
 21
-6.96011
  0
LINE
  8
0
 10
-11.6709
 20
-6.96011
 11
-11.8433
 21
-7.15666
  0
LINE
  8
0
 10
-11.8433
 20
-7.15666
 11
-12.1433
 21
-7.41972
  0
LINE
  8
0
 10
-12.1433
 20
-7.41972
 11
-12.475
 21
-7.64137
  0
LINE
  8
0
 10
-12.475
 20
-7.64137
 11
-12.8328
 21
-7.81783
  0
LINE
  8
0
 10
-12.8328
 20
-7.81783
 11
-13.2106
 21
-7.94606
  0
LINE
  8
0
 10
-13.2106
 20
-7.94606
 11
-13.6019
 21
-8.0239
  0
LINE
  8
0
 10
-13.6019
 20
-8.0239
 11
-14
 21
-8.04999
  0
LINE
  8
0
 10
-14
 20
-8.04999
 11
-14.3981
 21
-8.0239
  0
LINE
  8
0
 10
-14.3981
 20
-8.0239
 11
-14.7894
 21
-7.94606
  0
LINE
  8
0
 10
-14.7894
 20
-7.94606
 11
-15.1672
 21
-7.81783
  0
LINE
  8
0
 10
-15.1672
 20
-7.81783
 11
-15.525
 21
-7.64137
  0
LINE
  8
0
 10
-15.525
 20
-7.64137
 11
-15.8567
 21
-7.41972
  0
LINE
  8
0
 10
-15.8567
 20
-7.41972
 11
-16.1567
 21
-7.15666
  0
LINE
  8
0
 10
-16.1567
 20
-7.15666
 11
-16.4197
 21
-6.85672
  0
LINE
  8
0
 10
-16.4197
 20
-6.85672
 11
-16.6414
 21
-6.52499
  0
LINE
  8
0
 10
-16.6414
 20
-6.52499
 11
-16.8178
 21
-6.16718
  0
LINE
  8
0
 10
-16.8178
 20
-6.16718
 11
-16.9461
 21
-5.78938
  0
LINE
  8
0
 10
-16.9461
 20
-5.78938
 11
-17.0239
 21
-5.3981
  0
LINE
  8
0
 10
-17.0239
 20
-5.3981
 11
-17.05
 21
-5
  0
LINE
  8
0
 10
-17.05
 20
-5
 11
-17.0239
 21
-4.60188
  0
LINE
  8
0
 10
-17.0239
 20
-4.60188
 11
-16.9461
 21
-4.2106
  0
LINE
  8
0
 10
-16.9461
 20
-4.2106
 11
-16.8178
 21
-3.83281
  0
LINE
  8
0
 10
-16.8178
 20
-3.83281
 11
-16.6414
 21
-3.47499
  0
LINE
  8
0
 10
-16.6414
 20
-3.47499
 11
-16.4197
 21
-3.14326
  0
LINE
  8
0
 10
-16.4197
 20
-3.14326
 11
-16.1567
 21
-2.84332
  0
LINE
  8
0
 10
-16.1567
 20
-2.84332
 11
-15.8567
 21
-2.58026
  0
LINE
  8
0
 10
-15.8567
 20
-2.58026
 11
-15.525
 21
-2.35861
  0
LINE
  8
0
 10
-15.525
 20
-2.35861
 11
-15.1672
 21
-2.18216
  0
LINE
  8
0
 10
-15.1672
 20
-2.18216
 11
-14.7894
 21
-2.05392
  0
LINE
  8
0
 10
-14.7894
 20
-2.05392
 11
-14.3981
 21
-1.97609
  0
LINE
  8
0
 10
-14.3981
 20
-1.97609
 11
-14
 21
-1.95
  0
LINE
  8
0
 10
-14
 20
-1.95
 11
-13.6019
 21
-1.97609
  0
LINE
  8
0
 10
-13.6019
 20
-1.97609
 11
-13.4371
 21
-2.00885
  0
LINE
  8
0
 10
-13.4371
 20
-2.00885
 11
-13.4836
 21
-1.77515
  0
LINE
  8
0
 10
-13.4836
 20
-1.77515
 11
-13.6
 21
0
  0
LINE
  8
0
 10
-13.6
 20
0
 11
-13.4836
 21
1.77515
  0
LINE
  8
0
 10
-13.4836
 20
1.77515
 11
-13.4371
 21
2.00885
  0
LINE
  8
0
 10
-13.4371
 20
2.00885
 11
-13.6019
 21
1.97609
  0
LINE
  8
0
 10
-13.6019
 20
1.97609
 11
-14
 21
1.95
  0
LINE
  8
0
 10
-14
 20
1.95
 11
-14.3981
 21
1.97609
  0
LINE
  8
0
 10
-14.3981
 20
1.97609
 11
-14.7894
 21
2.05392
  0
LINE
  8
0
 10
-14.7894
 20
2.05392
 11
-15.1672
 21
2.18216
  0
LINE
  8
0
 10
-15.1672
 20
2.18216
 11
-15.525
 21
2.35861
  0
LINE
  8
0
 10
-15.525
 20
2.35861
 11
-15.8567
 21
2.58026
  0
LINE
  8
0
 10
-15.8567
 20
2.58026
 11
-16.1567
 21
2.84332
  0
LINE
  8
0
 10
-16.1567
 20
2.84332
 11
-16.4197
 21
3.14326
  0
LINE
  8
0
 10
-16.4197
 20
3.14326
 11
-16.6414
 21
3.47499
  0
LINE
  8
0
 10
-16.6414
 20
3.47499
 11
-16.8178
 21
3.83281
  0
LINE
  8
0
 10
-16.8178
 20
3.83281
 11
-16.9461
 21
4.2106
  0
LINE
  8
0
 10
-16.9461
 20
4.2106
 11
-17.0239
 21
4.60188
  0
LINE
  8
0
 10
-17.0239
 20
4.60188
 11
-17.05
 21
5
  0
LINE
  8
0
 10
-17.05
 20
5
 11
-17.0239
 21
5.3981
  0
LINE
  8
0
 10
-17.0239
 20
5.3981
 11
-16.9461
 21
5.78938
  0
LINE
  8
0
 10
-16.9461
 20
5.78938
 11
-16.8178
 21
6.16718
  0
LINE
  8
0
 10
-16.8178
 20
6.16718
 11
-16.6414
 21
6.52499
  0
LINE
  8
0
 10
-16.6414
 20
6.52499
 11
-16.4197
 21
6.85672
  0
LINE
  8
0
 10
-16.4197
 20
6.85672
 11
-16.1567
 21
7.15666
  0
LINE
  8
0
 10
-16.1567
 20
7.15666
 11
-15.8567
 21
7.41972
  0
LINE
  8
0
 10
-15.8567
 20
7.41972
 11
-15.525
 21
7.64137
  0
LINE
  8
0
 10
-15.525
 20
7.64137
 11
-15.1672
 21
7.81783
  0
LINE
  8
0
 10
-15.1672
 20
7.81783
 11
-14.7894
 21
7.94606
  0
LINE
  8
0
 10
-14.7894
 20
7.94606
 11
-14.3981
 21
8.0239
  0
LINE
  8
0
 10
-14.3981
 20
8.0239
 11
-14
 21
8.04999
  0
LINE
  8
0
 10
-14
 20
8.04999
 11
-13.6019
 21
8.0239
  0
LINE
  8
0
 10
-13.6019
 20
8.0239
 11
-13.2106
 21
7.94606
  0
LINE
  8
0
 10
-13.2106
 20
7.94606
 11
-12.8328
 21
7.81783
  0
LINE
  8
0
 10
-12.8328
 20
7.81783
 11
-12.475
 21
7.64137
  0
LINE
  8
0
 10
-12.475
 20
7.64137
 11
-12.1433
 21
7.41972
  0
LINE
  8
0
 10
-12.1433
 20
7.41972
 11
-11.8433
 21
7.15666
  0
LINE
  8
0
 10
-11.8433
 20
7.15666
 11
-11.6709
 21
6.96011
  0
LINE
  8
0
 10
-11.6709
 20
6.96011
 11
-10.7896
 21
8.27914
  0
LINE
  8
0
 10
-10.7896
 20
8.27914
 11
-9.61664
 21
9.61664
  0
LINE
  8
0
 10
-9.61664
 20
9.61664
 11
-8.27914
 21
10.7896
  0
LINE
  8
0
 10
-8.27914
 20
10.7896
 11
-6.79999
 21
11.7779
  0
LINE
  8
0
 10
-6.79999
 20
11.7779
 11
-5.20448
 21
12.5648
  0
LINE
  8
0
 10
-5.20448
 20
12.5648
 11
-3.51993
 21
13.1366
  0
LINE
  8
0
 10
-3.51993
 20
13.1366
 11
-1.77515
 21
13.4836
  0
LINE
  8
0
 10
-1.77515
 20
13.4836
 11
0
 21
13.6
  0
LINE
  8
0
 10
0
 20
13.6
 11
1.77515
 21
13.4836
  0
LINE
  8
0
 10
1.77515
 20
13.4836
 11
3.51993
 21
13.1366
  0
LINE
  8
0
 10
3.51993
 20
13.1366
 11
5.20448
 21
12.5648
  0
LINE
  8
0
 10
5.20448
 20
12.5648
 11
6.79999
 21
11.7779
  0
LINE
  8
0
 10
6.79999
 20
11.7779
 11
8.27914
 21
10.7896
  0
LINE
  8
0
 10
8.27914
 20
10.7896
 11
9.61664
 21
9.61664
  0
LINE
  8
0
 10
9.61664
 20
9.61664
 11
10.7896
 21
8.27914
  0
LINE
  8
0
 10
10.7896
 20
8.27914
 11
11.7779
 21
6.79999
  0
LINE
  8
0
 10
11.7779
 20
6.79999
 11
12.5648
 21
5.20448
  0
LINE
  8
0
 10
12.5648
 20
5.20448
 11
13.1366
 21
3.51993
  0
LINE
  8
0
 10
13.1366
 20
3.51993
 11
13.4836
 21
1.77515
  0
LINE
  8
0
 10
13.4836
 20
1.77515
 11
13.6
 21
0
  0
LINE
  8
0
 10
13.6
 20
0
 11
13.4836
 21
-1.77515
  0
LINE
  8
0
 10
13.4836
 20
-1.77515
 11
13.1366
 21
-3.51993
  0
LINE
  8
0
 10
13.1366
 20
-3.51993
 11
12.5648
 21
-5.20448
  0
LINE
  8
0
 10
12.5648
 20
-5.20448
 11
11.7779
 21
-6.79999
  0
LINE
  8
0
 10
11.7779
 20
-6.79999
 11
10.7896
 21
-8.27914
  0
LINE
  8
0
 10
10.7896
 20
-8.27914
 11
9.61664
 21
-9.61664
  0
LINE
  8
0
 10
9.61664
 20
-9.61664
 11
8.27914
 21
-10.7896
  0
LINE
  8
0
 10
8.27914
 20
-10.7896
 11
6.79999
 21
-11.7779
  0
LINE
  8
0
 10
6.79999
 20
-11.7779
 11
5.20448
 21
-12.5648
  0
LINE
  8
0
 10
5.20448
 20
-12.5648
 11
3.51993
 21
-13.1366
  0
LINE
  8
0
 10
3.51993
 20
-13.1366
 11
1.77515
 21
-13.4836
  0
LINE
  8
0
 10
1.77515
 20
-13.4836
 11
0
 21
-13.6
  0
LINE
  8
0
 10
0
 20
-13.6
 11
-1.77515
 21
-13.4836
  0
LINE
  8
0
 10
-15.4895
 20
-18.7179
 11
-15.9706
 21
-18.6222
  0
LINE
  8
0
 10
-15.9706
 20
-18.6222
 11
-16.4351
 21
-18.4645
  0
LINE
  8
0
 10
-16.4351
 20
-18.4645
 11
-16.875
 21
-18.2476
  0
LINE
  8
0
 10
-16.875
 20
-18.2476
 11
-17.2829
 21
-17.9751
  0
LINE
  8
0
 10
-17.2829
 20
-17.9751
 11
-17.6516
 21
-17.6516
  0
LINE
  8
0
 10
-17.6516
 20
-17.6516
 11
-17.9751
 21
-17.2829
  0
LINE
  8
0
 10
-17.9751
 20
-17.2829
 11
-18.2476
 21
-16.875
  0
LINE
  8
0
 10
-18.2476
 20
-16.875
 11
-18.4645
 21
-16.4351
  0
LINE
  8
0
 10
-18.4645
 20
-16.4351
 11
-18.6222
 21
-15.9706
  0
LINE
  8
0
 10
-18.6222
 20
-15.9706
 11
-18.7179
 21
-15.4895
  0
LINE
  8
0
 10
-18.7179
 20
-15.4895
 11
-18.75
 21
-15
  0
LINE
  8
0
 10
-18.75
 20
-15
 11
-18.7179
 21
-14.5105
  0
LINE
  8
0
 10
-18.7179
 20
-14.5105
 11
-18.6222
 21
-14.0294
  0
LINE
  8
0
 10
-18.6222
 20
-14.0294
 11
-18.4645
 21
-13.5649
  0
LINE
  8
0
 10
-18.4645
 20
-13.5649
 11
-18.2476
 21
-13.125
  0
LINE
  8
0
 10
-18.2476
 20
-13.125
 11
-17.9751
 21
-12.7171
  0
LINE
  8
0
 10
-17.9751
 20
-12.7171
 11
-17.6516
 21
-12.3483
  0
LINE
  8
0
 10
-17.6516
 20
-12.3483
 11
-17.2829
 21
-12.0249
  0
LINE
  8
0
 10
-17.2829
 20
-12.0249
 11
-16.875
 21
-11.7524
  0
LINE
  8
0
 10
-16.875
 20
-11.7524
 11
-16.4351
 21
-11.5354
  0
LINE
  8
0
 10
-16.4351
 20
-11.5354
 11
-15.9706
 21
-11.3778
  0
LINE
  8
0
 10
-15.9706
 20
-11.3778
 11
-15.4895
 21
-11.2821
  0
LINE
  8
0
 10
-15.4895
 20
-11.2821
 11
-15
 21
-11.25
  0
LINE
  8
0
 10
-15
 20
-11.25
 11
-14.5105
 21
-11.2821
  0
LINE
  8
0
 10
-14.5105
 20
-11.2821
 11
-14.0294
 21
-11.3778
  0
LINE
  8
0
 10
-14.0294
 20
-11.3778
 11
-13.5649
 21
-11.5354
  0
LINE
  8
0
 10
-13.5649
 20
-11.5354
 11
-13.125
 21
-11.7524
  0
LINE
  8
0
 10
-13.125
 20
-11.7524
 11
-12.7171
 21
-12.0249
  0
LINE
  8
0
 10
-12.7171
 20
-12.0249
 11
-12.3483
 21
-12.3483
  0
LINE
  8
0
 10
-12.3483
 20
-12.3483
 11
-12.0249
 21
-12.7171
  0
LINE
  8
0
 10
-12.0249
 20
-12.7171
 11
-11.7524
 21
-13.125
  0
LINE
  8
0
 10
-11.7524
 20
-13.125
 11
-11.5354
 21
-13.5649
  0
LINE
  8
0
 10
-11.5354
 20
-13.5649
 11
-11.3778
 21
-14.0294
  0
LINE
  8
0
 10
-11.3778
 20
-14.0294
 11
-11.2821
 21
-14.5105
  0
LINE
  8
0
 10
-11.2821
 20
-14.5105
 11
-11.25
 21
-15
  0
LINE
  8
0
 10
-11.25
 20
-15
 11
-11.2821
 21
-15.4895
  0
LINE
  8
0
 10
-11.2821
 20
-15.4895
 11
-11.3778
 21
-15.9706
  0
LINE
  8
0
 10
-11.3778
 20
-15.9706
 11
-11.5354
 21
-16.4351
  0
LINE
  8
0
 10
-11.5354
 20
-16.4351
 11
-11.7524
 21
-16.875
  0
LINE
  8
0
 10
-11.7524
 20
-16.875
 11
-12.0249
 21
-17.2829
  0
LINE
  8
0
 10
-12.0249
 20
-17.2829
 11
-12.3483
 21
-17.6516
  0
LINE
  8
0
 10
-12.3483
 20
-17.6516
 11
-12.7171
 21
-17.9751
  0
LINE
  8
0
 10
-12.7171
 20
-17.9751
 11
-13.125
 21
-18.2476
  0
LINE
  8
0
 10
-13.125
 20
-18.2476
 11
-13.5649
 21
-18.4645
  0
LINE
  8
0
 10
-13.5649
 20
-18.4645
 11
-14.0294
 21
-18.6222
  0
LINE
  8
0
 10
-14.0294
 20
-18.6222
 11
-14.5105
 21
-18.7179
  0
LINE
  8
0
 10
-14.5105
 20
-18.7179
 11
-15
 21
-18.75
  0
LINE
  8
0
 10
-15
 20
-18.75
 11
-15.4895
 21
-18.7179
  0
LINE
  8
0
 10
14.5105
 20
-18.7179
 11
14.0294
 21
-18.6222
  0
LINE
  8
0
 10
14.0294
 20
-18.6222
 11
13.5649
 21
-18.4645
  0
LINE
  8
0
 10
13.5649
 20
-18.4645
 11
13.125
 21
-18.2476
  0
LINE
  8
0
 10
13.125
 20
-18.2476
 11
12.7171
 21
-17.9751
  0
LINE
  8
0
 10
12.7171
 20
-17.9751
 11
12.3483
 21
-17.6516
  0
LINE
  8
0
 10
12.3483
 20
-17.6516
 11
12.0249
 21
-17.2829
  0
LINE
  8
0
 10
12.0249
 20
-17.2829
 11
11.7524
 21
-16.875
  0
LINE
  8
0
 10
11.7524
 20
-16.875
 11
11.5354
 21
-16.4351
  0
LINE
  8
0
 10
11.5354
 20
-16.4351
 11
11.3778
 21
-15.9706
  0
LINE
  8
0
 10
11.3778
 20
-15.9706
 11
11.2821
 21
-15.4895
  0
LINE
  8
0
 10
11.2821
 20
-15.4895
 11
11.25
 21
-15
  0
LINE
  8
0
 10
11.25
 20
-15
 11
11.2821
 21
-14.5105
  0
LINE
  8
0
 10
11.2821
 20
-14.5105
 11
11.3778
 21
-14.0294
  0
LINE
  8
0
 10
11.3778
 20
-14.0294
 11
11.5354
 21
-13.5649
  0
LINE
  8
0
 10
11.5354
 20
-13.5649
 11
11.7524
 21
-13.125
  0
LINE
  8
0
 10
11.7524
 20
-13.125
 11
12.0249
 21
-12.7171
  0
LINE
  8
0
 10
12.0249
 20
-12.7171
 11
12.3483
 21
-12.3483
  0
LINE
  8
0
 10
12.3483
 20
-12.3483
 11
12.7171
 21
-12.0249
  0
LINE
  8
0
 10
12.7171
 20
-12.0249
 11
13.125
 21
-11.7524
  0
LINE
  8
0
 10
13.125
 20
-11.7524
 11
13.5649
 21
-11.5354
  0
LINE
  8
0
 10
13.5649
 20
-11.5354
 11
14.0294
 21
-11.3778
  0
LINE
  8
0
 10
14.0294
 20
-11.3778
 11
14.5105
 21
-11.2821
  0
LINE
  8
0
 10
14.5105
 20
-11.2821
 11
15
 21
-11.25
  0
LINE
  8
0
 10
15
 20
-11.25
 11
15.4895
 21
-11.2821
  0
LINE
  8
0
 10
15.4895
 20
-11.2821
 11
15.9706
 21
-11.3778
  0
LINE
  8
0
 10
15.9706
 20
-11.3778
 11
16.4351
 21
-11.5354
  0
LINE
  8
0
 10
16.4351
 20
-11.5354
 11
16.875
 21
-11.7524
  0
LINE
  8
0
 10
16.875
 20
-11.7524
 11
17.2829
 21
-12.0249
  0
LINE
  8
0
 10
17.2829
 20
-12.0249
 11
17.6516
 21
-12.3483
  0
LINE
  8
0
 10
17.6516
 20
-12.3483
 11
17.9751
 21
-12.7171
  0
LINE
  8
0
 10
17.9751
 20
-12.7171
 11
18.2476
 21
-13.125
  0
LINE
  8
0
 10
18.2476
 20
-13.125
 11
18.4645
 21
-13.5649
  0
LINE
  8
0
 10
18.4645
 20
-13.5649
 11
18.6222
 21
-14.0294
  0
LINE
  8
0
 10
18.6222
 20
-14.0294
 11
18.7179
 21
-14.5105
  0
LINE
  8
0
 10
18.7179
 20
-14.5105
 11
18.75
 21
-15
  0
LINE
  8
0
 10
18.75
 20
-15
 11
18.7179
 21
-15.4895
  0
LINE
  8
0
 10
18.7179
 20
-15.4895
 11
18.6222
 21
-15.9706
  0
LINE
  8
0
 10
18.6222
 20
-15.9706
 11
18.4645
 21
-16.4351
  0
LINE
  8
0
 10
18.4645
 20
-16.4351
 11
18.2476
 21
-16.875
  0
LINE
  8
0
 10
18.2476
 20
-16.875
 11
17.9751
 21
-17.2829
  0
LINE
  8
0
 10
17.9751
 20
-17.2829
 11
17.6516
 21
-17.6516
  0
LINE
  8
0
 10
17.6516
 20
-17.6516
 11
17.2829
 21
-17.9751
  0
LINE
  8
0
 10
17.2829
 20
-17.9751
 11
16.875
 21
-18.2476
  0
LINE
  8
0
 10
16.875
 20
-18.2476
 11
16.4351
 21
-18.4645
  0
LINE
  8
0
 10
16.4351
 20
-18.4645
 11
15.9706
 21
-18.6222
  0
LINE
  8
0
 10
15.9706
 20
-18.6222
 11
15.4895
 21
-18.7179
  0
LINE
  8
0
 10
15.4895
 20
-18.7179
 11
15
 21
-18.75
  0
LINE
  8
0
 10
15
 20
-18.75
 11
14.5105
 21
-18.7179
  0
LINE
  8
0
 10
-7.78716
 20
-17.1812
 11
-8.0694
 21
-17.125
  0
LINE
  8
0
 10
-8.0694
 20
-17.125
 11
-8.34189
 21
-17.0325
  0
LINE
  8
0
 10
-8.34189
 20
-17.0325
 11
-8.59999
 21
-16.9052
  0
LINE
  8
0
 10
-8.59999
 20
-16.9052
 11
-8.83926
 21
-16.7454
  0
LINE
  8
0
 10
-8.83926
 20
-16.7454
 11
-9.05563
 21
-16.5556
  0
LINE
  8
0
 10
-9.05563
 20
-16.5556
 11
-9.24538
 21
-16.3393
  0
LINE
  8
0
 10
-9.24538
 20
-16.3393
 11
-9.40524
 21
-16.1
  0
LINE
  8
0
 10
-9.40524
 20
-16.1
 11
-9.53253
 21
-15.8419
  0
LINE
  8
0
 10
-9.53253
 20
-15.8419
 11
-9.62503
 21
-15.5694
  0
LINE
  8
0
 10
-9.62503
 20
-15.5694
 11
-9.68117
 21
-15.2872
  0
LINE
  8
0
 10
-9.68117
 20
-15.2872
 11
-9.7
 21
-15
  0
LINE
  8
0
 10
-9.7
 20
-15
 11
-9.68117
 21
-14.7128
  0
LINE
  8
0
 10
-9.68117
 20
-14.7128
 11
-9.62503
 21
-14.4306
  0
LINE
  8
0
 10
-9.62503
 20
-14.4306
 11
-9.53253
 21
-14.1581
  0
LINE
  8
0
 10
-9.53253
 20
-14.1581
 11
-9.40524
 21
-13.9
  0
LINE
  8
0
 10
-9.40524
 20
-13.9
 11
-9.24538
 21
-13.6607
  0
LINE
  8
0
 10
-9.24538
 20
-13.6607
 11
-9.05563
 21
-13.4444
  0
LINE
  8
0
 10
-9.05563
 20
-13.4444
 11
-8.83926
 21
-13.2546
  0
LINE
  8
0
 10
-8.83926
 20
-13.2546
 11
-8.59999
 21
-13.0947
  0
LINE
  8
0
 10
-8.59999
 20
-13.0947
 11
-8.34189
 21
-12.9675
  0
LINE
  8
0
 10
-8.34189
 20
-12.9675
 11
-8.0694
 21
-12.875
  0
LINE
  8
0
 10
-8.0694
 20
-12.875
 11
-7.78716
 21
-12.8188
  0
LINE
  8
0
 10
-7.78716
 20
-12.8188
 11
-7.5
 21
-12.8
  0
LINE
  8
0
 10
-7.5
 20
-12.8
 11
-7.21283
 21
-12.8188
  0
LINE
  8
0
 10
-7.21283
 20
-12.8188
 11
-6.93059
 21
-12.875
  0
LINE
  8
0
 10
-6.93059
 20
-12.875
 11
-6.6581
 21
-12.9675
  0
LINE
  8
0
 10
-6.6581
 20
-12.9675
 11
-6.39999
 21
-13.0947
  0
LINE
  8
0
 10
-6.39999
 20
-13.0947
 11
-6.16072
 21
-13.2546
  0
LINE
  8
0
 10
-6.16072
 20
-13.2546
 11
-5.94435
 21
-13.4444
  0
LINE
  8
0
 10
-5.94435
 20
-13.4444
 11
-5.75461
 21
-13.6607
  0
LINE
  8
0
 10
-5.75461
 20
-13.6607
 11
-5.59474
 21
-13.9
  0
LINE
  8
0
 10
-5.59474
 20
-13.9
 11
-5.46745
 21
-14.1581
  0
LINE
  8
0
 10
-5.46745
 20
-14.1581
 11
-5.37495
 21
-14.4306
  0
LINE
  8
0
 10
-5.37495
 20
-14.4306
 11
-5.31882
 21
-14.7128
  0
LINE
  8
0
 10
-5.31882
 20
-14.7128
 11
-5.29999
 21
-15
  0
LINE
  8
0
 10
-5.29999
 20
-15
 11
-5.31882
 21
-15.2872
  0
LINE
  8
0
 10
-5.31882
 20
-15.2872
 11
-5.37495
 21
-15.5694
  0
LINE
  8
0
 10
-5.37495
 20
-15.5694
 11
-5.46745
 21
-15.8419
  0
LINE
  8
0
 10
-5.46745
 20
-15.8419
 11
-5.59474
 21
-16.1
  0
LINE
  8
0
 10
-5.59474
 20
-16.1
 11
-5.75461
 21
-16.3393
  0
LINE
  8
0
 10
-5.75461
 20
-16.3393
 11
-5.94435
 21
-16.5556
  0
LINE
  8
0
 10
-5.94435
 20
-16.5556
 11
-6.16072
 21
-16.7454
  0
LINE
  8
0
 10
-6.16072
 20
-16.7454
 11
-6.39999
 21
-16.9052
  0
LINE
  8
0
 10
-6.39999
 20
-16.9052
 11
-6.6581
 21
-17.0325
  0
LINE
  8
0
 10
-6.6581
 20
-17.0325
 11
-6.93059
 21
-17.125
  0
LINE
  8
0
 10
-6.93059
 20
-17.125
 11
-7.21283
 21
-17.1812
  0
LINE
  8
0
 10
-7.21283
 20
-17.1812
 11
-7.5
 21
-17.2
  0
LINE
  8
0
 10
-7.5
 20
-17.2
 11
-7.78716
 21
-17.1812
  0
LINE
  8
0
 10
7.21283
 20
-17.1812
 11
6.93059
 21
-17.125
  0
LINE
  8
0
 10
6.93059
 20
-17.125
 11
6.6581
 21
-17.0325
  0
LINE
  8
0
 10
6.6581
 20
-17.0325
 11
6.39999
 21
-16.9052
  0
LINE
  8
0
 10
6.39999
 20
-16.9052
 11
6.16072
 21
-16.7454
  0
LINE
  8
0
 10
6.16072
 20
-16.7454
 11
5.94435
 21
-16.5556
  0
LINE
  8
0
 10
5.94435
 20
-16.5556
 11
5.75461
 21
-16.3393
  0
LINE
  8
0
 10
5.75461
 20
-16.3393
 11
5.59474
 21
-16.1
  0
LINE
  8
0
 10
5.59474
 20
-16.1
 11
5.46745
 21
-15.8419
  0
LINE
  8
0
 10
5.46745
 20
-15.8419
 11
5.37495
 21
-15.5694
  0
LINE
  8
0
 10
5.37495
 20
-15.5694
 11
5.31882
 21
-15.2872
  0
LINE
  8
0
 10
5.31882
 20
-15.2872
 11
5.29999
 21
-15
  0
LINE
  8
0
 10
5.29999
 20
-15
 11
5.31882
 21
-14.7128
  0
LINE
  8
0
 10
5.31882
 20
-14.7128
 11
5.37495
 21
-14.4306
  0
LINE
  8
0
 10
5.37495
 20
-14.4306
 11
5.46745
 21
-14.1581
  0
LINE
  8
0
 10
5.46745
 20
-14.1581
 11
5.59474
 21
-13.9
  0
LINE
  8
0
 10
5.59474
 20
-13.9
 11
5.75461
 21
-13.6607
  0
LINE
  8
0
 10
5.75461
 20
-13.6607
 11
5.94435
 21
-13.4444
  0
LINE
  8
0
 10
5.94435
 20
-13.4444
 11
6.16072
 21
-13.2546
  0
LINE
  8
0
 10
6.16072
 20
-13.2546
 11
6.39999
 21
-13.0947
  0
LINE
  8
0
 10
6.39999
 20
-13.0947
 11
6.6581
 21
-12.9675
  0
LINE
  8
0
 10
6.6581
 20
-12.9675
 11
6.93059
 21
-12.875
  0
LINE
  8
0
 10
6.93059
 20
-12.875
 11
7.21283
 21
-12.8188
  0
LINE
  8
0
 10
7.21283
 20
-12.8188
 11
7.5
 21
-12.8
  0
LINE
  8
0
 10
7.5
 20
-12.8
 11
7.78716
 21
-12.8188
  0
LINE
  8
0
 10
7.78716
 20
-12.8188
 11
8.0694
 21
-12.875
  0
LINE
  8
0
 10
8.0694
 20
-12.875
 11
8.34189
 21
-12.9675
  0
LINE
  8
0
 10
8.34189
 20
-12.9675
 11
8.59999
 21
-13.0947
  0
LINE
  8
0
 10
8.59999
 20
-13.0947
 11
8.83926
 21
-13.2546
  0
LINE
  8
0
 10
8.83926
 20
-13.2546
 11
9.05563
 21
-13.4444
  0
LINE
  8
0
 10
9.05563
 20
-13.4444
 11
9.24538
 21
-13.6607
  0
LINE
  8
0
 10
9.24538
 20
-13.6607
 11
9.40524
 21
-13.9
  0
LINE
  8
0
 10
9.40524
 20
-13.9
 11
9.53253
 21
-14.1581
  0
LINE
  8
0
 10
9.53253
 20
-14.1581
 11
9.62503
 21
-14.4306
  0
LINE
  8
0
 10
9.62503
 20
-14.4306
 11
9.68117
 21
-14.7128
  0
LINE
  8
0
 10
9.68117
 20
-14.7128
 11
9.7
 21
-15
  0
LINE
  8
0
 10
9.7
 20
-15
 11
9.68117
 21
-15.2872
  0
LINE
  8
0
 10
9.68117
 20
-15.2872
 11
9.62503
 21
-15.5694
  0
LINE
  8
0
 10
9.62503
 20
-15.5694
 11
9.53253
 21
-15.8419
  0
LINE
  8
0
 10
9.53253
 20
-15.8419
 11
9.40524
 21
-16.1
  0
LINE
  8
0
 10
9.40524
 20
-16.1
 11
9.24538
 21
-16.3393
  0
LINE
  8
0
 10
9.24538
 20
-16.3393
 11
9.05563
 21
-16.5556
  0
LINE
  8
0
 10
9.05563
 20
-16.5556
 11
8.83926
 21
-16.7454
  0
LINE
  8
0
 10
8.83926
 20
-16.7454
 11
8.59999
 21
-16.9052
  0
LINE
  8
0
 10
8.59999
 20
-16.9052
 11
8.34189
 21
-17.0325
  0
LINE
  8
0
 10
8.34189
 20
-17.0325
 11
8.0694
 21
-17.125
  0
LINE
  8
0
 10
8.0694
 20
-17.125
 11
7.78716
 21
-17.1812
  0
LINE
  8
0
 10
7.78716
 20
-17.1812
 11
7.5
 21
-17.2
  0
LINE
  8
0
 10
7.5
 20
-17.2
 11
7.21283
 21
-17.1812
  0
ENDSEC
  0
SECTION
  2
OBJECTS
  0
DICTIONARY
  0
ENDSEC
  0
EOF
