<?xml version="1.0" standalone="no"?>
<!DOCTYPE svg PUBLIC "-//W3C//DTD SVG 1.1//EN" "http://www.w3.org/Graphics/SVG/1.1/DTD/svg11.dtd">
<svg width="44mm" height="44mm" viewBox="-22 -22 44 44" xmlns="http://www.w3.org/2000/svg" version="1.1">
<title>OpenSCAD Model</title>
<path d="
M 9,15.7937 L 8.97223,15.85 L 8.84869,16.0349 L 8.70207,16.2021 L 8.53488,16.3487 L 8.34999,16.4722
 L 8.15056,16.5706 L 7.93999,16.6421 L 7.72189,16.6855 L 7.5,16.7 L 7.27809,16.6855 L 7.06,16.6421
 L 6.84943,16.5706 L 6.64999,16.4722 L 6.4651,16.3487 L 6.29791,16.2021 L 6.15129,16.0349 L 6.02776,15.85
 L 5.9294,15.6506 L 5.85793,15.44 L 5.81453,15.2219 L 5.79999,15 L 5.81453,14.7781 L 5.85793,14.56
 L 5.9294,14.3494 L 6.02776,14.15 L 6.15129,13.9651 L 6.29791,13.7979 L 6.4651,13.6513 L 6.64999,13.5278
 L 6.84943,13.4294 L 7.06,13.3579 L 7.27809,13.3145 L 7.5,13.3 L 7.72189,13.3145 L 7.93999,13.3579
 L 8.15056,13.4294 L 8.34999,13.5278 L 8.53488,13.6513 L 8.70207,13.7979 L 8.84869,13.9651 L 8.97223,14.15
 L 9.04591,14.2994 L 9.05133,14.2168 L 9.20444,13.4471 L 9.45671,12.7039 L 9.80383,12 L 10.2399,11.3474
 L 10.7574,10.7574 L 11.3474,10.2399 L 12,9.80383 L 12.7039,9.45671 L 13.4471,9.20444 L 14.2168,9.05133
 L 15,9 L 21.005,9 L 21.005,-9 L 15,-9 L 14.2168,-9.05133 L 13.4471,-9.20444
 L 12.7039,-9.45671 L 12,-9.80383 L 11.3474,-10.2399 L 10.7574,-10.7574 L 10.2399,-11.3474 L 9.80383,-12
 L 9.45671,-12.7039 L 9.20444,-13.4471 L 9.05133,-14.2168 L 9.04591,-14.2994 L 8.97223,-14.15 L 8.84869,-13.9651
 L 8.70207,-13.7979 L 8.53488,-13.6513 L 8.34999,-13.5278 L 8.15056,-13.4294 L 7.93999,-13.3579 L 7.72189,-13.3145
 L 7.5,-13.3 L 7.27809,-13.3145 L 7.06,-13.3579 L 6.84943,-13.4294 L 6.64999,-13.5278 L 6.4651,-13.6513
 L 6.29791,-13.7979 L 6.15129,-13.9651 L 6.02776,-14.15 L 5.9294,-14.3494 L 5.85793,-14.56 L 5.81453,-14.7781
 L 5.79999,-15 L 5.81453,-15.2219 L 5.85793,-15.44 L 5.9294,-15.6506 L 6.02776,-15.85 L 6.15129,-16.0349
 L 6.29791,-16.2021 L 6.4651,-16.3487 L 6.64999,-16.4722 L 6.84943,-16.5706 L 7.06,-16.6421 L 7.27809,-16.6855
 L 7.5,-16.7 L 7.72189,-16.6855 L 7.93999,-16.6421 L 8.15056,-16.5706 L 8.34999,-16.4722 L 8.53488,-16.3487
 L 8.70207,-16.2021 L 8.84869,-16.0349 L 8.97223,-15.85 L 9,-15.7937 L 9,-21.005 L -9,-21.005
 L -9,-15.7937 L -8.97223,-15.85 L -8.84869,-16.0349 L -8.70207,-16.2021 L -8.53488,-16.3487 L -8.34999,-16.4722
 L -8.15056,-16.5706 L -7.93999,-16.6421 L -7.72189,-16.6855 L -7.5,-16.7 L -7.27809,-16.6855 L -7.06,-16.6421
 L -6.84943,-16.5706 L -6.64999,-16.4722 L -6.4651,-16.3487 L -6.29791,-16.2021 L -6.15129,-16.0349 L -6.02776,-15.85
 L -5.9294,-15.6506 L -5.85793,-15.44 L -5.81453,-15.2219 L -5.79999,-15 L -5.81453,-14.7781 L -5.85793,-14.56
 L -5.9294,-14.3494 L -6.02776,-14.15 L -6.15129,-13.9651 L -6.29791,-13.7979 L -6.4651,-13.6513 L -6.64999,-13.5278
 L -6.84943,-13.4294 L -7.06,-13.3579 L -7.27809,-13.3145 L -7.5,-13.3 L -7.72189,-13.3145 L -7.93999,-13.3579
 L -8.15056,-13.4294 L -8.34999,-13.5278 L -8.53488,-13.6513 L -8.70207,-13.7979 L -8.84869,-13.9651 L -8.97223,-14.15
 L -9.04591,-14.2994 L -9.05133,-14.2168 L -9.20444,-13.4471 L -9.45671,-12.7039 L -9.80383,-12 L -10.2399,-11.3474
 L -10.7574,-10.7574 L -11.3474,-10.2399 L -12,-9.80383 L -12.7039,-9.45671 L -13.4471,-9.20444 L -14.2168,-9.05133
 L -15,-9 L -21.005,-9 L -21.005,9 L -15,9 L -14.2168,9.05133 L -13.4471,9.20444
 L -12.7039,9.45671 L -12,9.80383 L -11.3474,10.2399 L -10.7574,10.7574 L -10.2399,11.3474 L -9.80383,12
 L -9.45671,12.7039 L -9.20444,13.4471 L -9.05133,14.2168 L -9.04591,14.2994 L -8.97223,14.15 L -8.84869,13.9651
 L -8.70207,13.7979 L -8.53488,13.6513 L -8.34999,13.5278 L -8.15056,13.4294 L -7.93999,13.3579 L -7.72189,13.3145
 L -7.5,13.3 L -7.27809,13.3145 L -7.06,13.3579 L -6.84943,13.4294 L -6.64999,13.5278 L -6.4651,13.6513
 L -6.29791,13.7979 L -6.15129,13.9651 L -6.02776,14.15 L -5.9294,14.3494 L -5.85793,14.56 L -5.81453,14.7781
 L -5.79999,15 L -5.81453,15.2219 L -5.85793,15.44 L -5.9294,15.6506 L -6.02776,15.85 L -6.15129,16.0349
 L -6.29791,16.2021 L -6.4651,16.3487 L -6.64999,16.4722 L -6.84943,16.5706 L -7.06,16.6421 L -7.27809,16.6855
 L -7.5,16.7 L -7.72189,16.6855 L -7.93999,16.6421 L -8.15056,16.5706 L -8.34999,16.4722 L -8.53488,16.3487
 L -8.70207,16.2021 L -8.84869,16.0349 L -8.97223,15.85 L -9,15.7937 L -9,21.005 L 9,21.005
 z
M -1.77515,13.4836 L -3.51993,13.1366 L -5.20448,12.5648 L -6.79999,11.7779 L -8.27914,10.7896 L -9.61664,9.61664
 L -10.7896,8.27914 L -11.7779,6.79999 L -12.5648,5.20448 L -13.1366,3.51993 L -13.4836,1.77515 L -13.6,-0
 L -13.4836,-1.77515 L -13.1366,-3.51993 L -12.5648,-5.20448 L -11.7779,-6.79999 L -10.7896,-8.27914 L -9.61664,-9.61664
 L -8.27914,-10.7896 L -6.79999,-11.7779 L -5.20448,-12.5648 L -3.51993,-13.1366 L -1.77515,-13.4836 L 0,-13.6
 L 1.77515,-13.4836 L 3.51993,-13.1366 L 5.20448,-12.5648 L 6.79999,-11.7779 L 8.27914,-10.7896 L 9.61664,-9.61664
 L 10.7896,-8.27914 L 11.7779,-6.79999 L 12.5648,-5.20448 L 13.1366,-3.51993 L 13.4836,-1.77515 L 13.6,-0
 L 13.4836,1.77515 L 13.1366,3.51993 L 12.5648,5.20448 L 11.7779,6.79999 L 10.7896,8.27914 L 9.61664,9.61664
 L 8.27914,10.7896 L 6.79999,11.7779 L 5.20448,12.5648 L 3.51993,13.1366 L 1.77515,13.4836 L 0,13.6
 z
" stroke="black" fill="lightgray" stroke-width="0.5"/>
</svg>
