solid OpenSCAD_Model
  facet normal 0 0 -1
    outer loop
      vertex 9.15707 12.7565 0
      vertex 9.03941 13.3733 0
      vertex 14 9.00986 0
    endloop
  endfacet
  facet normal 0 0 -1
    outer loop
      vertex 14 9.00986 0
      vertex 9.61845 11.5912 0
      vertex 9.3511 12.1594 0
    endloop
  endfacet
  facet normal 0 0 -1
    outer loop
      vertex 9.95491 11.0611 0
      vertex 9.61845 11.5912 0
      vertex 14 9.00986 0
    endloop
  endfacet
  facet normal 0 0 -1
    outer loop
      vertex 9.15707 12.7565 0
      vertex 14 9.00986 0
      vertex 9.3511 12.1594 0
    endloop
  endfacet
  facet normal 0 0 -1
    outer loop
      vertex 14 9.00986 0
      vertex 10.8129 10.1474 0
      vertex 10.3551 10.5773 0
    endloop
  endfacet
  facet normal 0 0 -1
    outer loop
      vertex 14 9.00986 0
      vertex 11.3209 9.77835 0
      vertex 10.8129 10.1474 0
    endloop
  endfacet
  facet normal 0 0 -1
    outer loop
      vertex 14 9.00986 0
      vertex 11.8711 9.47586 0
      vertex 11.3209 9.77835 0
    endloop
  endfacet
  facet normal 0 0 -1
    outer loop
      vertex 14 9.00986 0
      vertex 12.4549 9.24471 0
      vertex 11.8711 9.47586 0
    endloop
  endfacet
  facet normal 0 0 -1
    outer loop
      vertex 14 9.00986 0
      vertex 13.0631 9.08856 0
      vertex 12.4549 9.24471 0
    endloop
  endfacet
  facet normal 0 0 -1
    outer loop
      vertex 9.95491 11.0611 0
      vertex 14 9.00986 0
      vertex 10.3551 10.5773 0
    endloop
  endfacet
  facet normal 0 0 -1
    outer loop
      vertex 13.0631 9.08856 0
      vertex 14 9.00986 0
      vertex 13.686 9.00986 0
    endloop
  endfacet
  facet normal 0 0 -1
    outer loop
      vertex 9.03941 13.3733 0
      vertex 9 14 0
      vertex 14 9.00986 0
    endloop
  endfacet
  facet normal 0 0 -1
    outer loop
      vertex 14 9.00986 0
      vertex 46 9.00986 0
      vertex 46 9 0
    endloop
  endfacet
  facet normal 0 0 -1
    outer loop
      vertex 14 9 0
      vertex 14 9.00986 0
      vertex 46 9 0
    endloop
  endfacet
  facet normal -0 -0 -1
    outer loop
      vertex 47.5451 35.7553 0
      vertex 48.1289 35.5241 0
      vertex 46 35.9901 0
    endloop
  endfacet
  facet normal 0 0 -1
    outer loop
      vertex 46 9.00986 0
      vertex 46.9369 9.08856 0
      vertex 46.3139 9.00986 0
    endloop
  endfacet
  facet normal 0 0 -1
    outer loop
      vertex 46 9.00986 0
      vertex 47.5451 9.24471 0
      vertex 46.9369 9.08856 0
    endloop
  endfacet
  facet normal 0 0 -1
    outer loop
      vertex 46 9.00986 0
      vertex 48.1289 9.47586 0
      vertex 47.5451 9.24471 0
    endloop
  endfacet
  facet normal 0 0 -1
    outer loop
      vertex 46 9.00986 0
      vertex 48.6791 9.77835 0
      vertex 48.1289 9.47586 0
    endloop
  endfacet
  facet normal 0 0 -1
    outer loop
      vertex 46 9.00986 0
      vertex 49.1871 10.1474 0
      vertex 48.6791 9.77835 0
    endloop
  endfacet
  facet normal 0 0 -1
    outer loop
      vertex 46 9.00986 0
      vertex 49.6448 10.5773 0
      vertex 49.1871 10.1474 0
    endloop
  endfacet
  facet normal 0 0 -1
    outer loop
      vertex 46 9.00986 0
      vertex 50.0451 11.0611 0
      vertex 49.6448 10.5773 0
    endloop
  endfacet
  facet normal 0 0 -1
    outer loop
      vertex 46 9.00986 0
      vertex 50.3815 11.5912 0
      vertex 50.0451 11.0611 0
    endloop
  endfacet
  facet normal 0 0 -1
    outer loop
      vertex 46 9.00986 0
      vertex 50.6489 12.1594 0
      vertex 50.3815 11.5912 0
    endloop
  endfacet
  facet normal 0 0 -1
    outer loop
      vertex 46 9.00986 0
      vertex 50.8429 12.7565 0
      vertex 50.6489 12.1594 0
    endloop
  endfacet
  facet normal 0 0 -1
    outer loop
      vertex 46 9.00986 0
      vertex 50.9606 13.3733 0
      vertex 50.8429 12.7565 0
    endloop
  endfacet
  facet normal 0 0 -1
    outer loop
      vertex 46 9.00986 0
      vertex 51 14 0
      vertex 50.9606 13.3733 0
    endloop
  endfacet
  facet normal 0 0 -1
    outer loop
      vertex 46 35.9901 0
      vertex 51 31 0
      vertex 51 14 0
    endloop
  endfacet
  facet normal 0 0 -1
    outer loop
      vertex 50.6489 32.8406 0
      vertex 46 35.9901 0
      vertex 50.3815 33.4088 0
    endloop
  endfacet
  facet normal 0 0 -1
    outer loop
      vertex 46 35.9901 0
      vertex 50.8429 32.2434 0
      vertex 50.9606 31.6267 0
    endloop
  endfacet
  facet normal 0 0 -1
    outer loop
      vertex 50.3815 33.4088 0
      vertex 46 35.9901 0
      vertex 50.0451 33.9389 0
    endloop
  endfacet
  facet normal 0 0 -1
    outer loop
      vertex 46 35.9901 0
      vertex 48.1289 35.5241 0
      vertex 48.6791 35.2216 0
    endloop
  endfacet
  facet normal 0 0 -1
    outer loop
      vertex 49.6448 34.4227 0
      vertex 46 35.9901 0
      vertex 49.1871 34.8526 0
    endloop
  endfacet
  facet normal 0 0 -1
    outer loop
      vertex 49.1871 34.8526 0
      vertex 46 35.9901 0
      vertex 48.6791 35.2216 0
    endloop
  endfacet
  facet normal 0 0 -1
    outer loop
      vertex 46 35.9901 0
      vertex 49.6448 34.4227 0
      vertex 50.0451 33.9389 0
    endloop
  endfacet
  facet normal 0 0 -1
    outer loop
      vertex 46 35.9901 0
      vertex 46.9369 35.9114 0
      vertex 47.5451 35.7553 0
    endloop
  endfacet
  facet normal 0 0 -1
    outer loop
      vertex 50.8429 32.2434 0
      vertex 46 35.9901 0
      vertex 50.6489 32.8406 0
    endloop
  endfacet
  facet normal 0 0 -1
    outer loop
      vertex 46.9369 35.9114 0
      vertex 46 35.9901 0
      vertex 46.3139 35.9901 0
    endloop
  endfacet
  facet normal -0 -0 -1
    outer loop
      vertex 50.9606 31.6267 0
      vertex 51 31 0
      vertex 46 35.9901 0
    endloop
  endfacet
  facet normal 0 0 -1
    outer loop
      vertex 46 35.9901 0
      vertex 51 14 0
      vertex 46 9.00986 0
    endloop
  endfacet
  facet normal 0 0 -1
    outer loop
      vertex 14 35.9901 0
      vertex 46 35.9901 0
      vertex 46 9.00986 0
    endloop
  endfacet
  facet normal 0 0 -1
    outer loop
      vertex 46 35.9901 0
      vertex 14 36 0
      vertex 46 36 0
    endloop
  endfacet
  facet normal 0 0 -1
    outer loop
      vertex 14 9.00986 0
      vertex 9 14 0
      vertex 14 35.9901 0
    endloop
  endfacet
  facet normal -0 0 -1
    outer loop
      vertex 14 35.9901 0
      vertex 13.0631 35.9114 0
      vertex 13.686 35.9901 0
    endloop
  endfacet
  facet normal 0 0 -1
    outer loop
      vertex 14 9.00986 0
      vertex 14 35.9901 0
      vertex 46 9.00986 0
    endloop
  endfacet
  facet normal 0 0 -1
    outer loop
      vertex 14 35.9901 0
      vertex 14 36 0
      vertex 46 35.9901 0
    endloop
  endfacet
  facet normal 0 0 -1
    outer loop
      vertex 14 35.9901 0
      vertex 12.4549 35.7553 0
      vertex 13.0631 35.9114 0
    endloop
  endfacet
  facet normal 0 0 -1
    outer loop
      vertex 14 35.9901 0
      vertex 11.8711 35.5241 0
      vertex 12.4549 35.7553 0
    endloop
  endfacet
  facet normal 0 0 -1
    outer loop
      vertex 14 35.9901 0
      vertex 11.3209 35.2216 0
      vertex 11.8711 35.5241 0
    endloop
  endfacet
  facet normal 0 0 -1
    outer loop
      vertex 14 35.9901 0
      vertex 10.8129 34.8526 0
      vertex 11.3209 35.2216 0
    endloop
  endfacet
  facet normal 0 0 -1
    outer loop
      vertex 14 35.9901 0
      vertex 10.3551 34.4227 0
      vertex 10.8129 34.8526 0
    endloop
  endfacet
  facet normal 0 0 -1
    outer loop
      vertex 14 35.9901 0
      vertex 9.95491 33.9389 0
      vertex 10.3551 34.4227 0
    endloop
  endfacet
  facet normal 0 0 -1
    outer loop
      vertex 14 35.9901 0
      vertex 9.61845 33.4088 0
      vertex 9.95491 33.9389 0
    endloop
  endfacet
  facet normal 0 0 -1
    outer loop
      vertex 14 35.9901 0
      vertex 9.3511 32.8406 0
      vertex 9.61845 33.4088 0
    endloop
  endfacet
  facet normal 0 0 -1
    outer loop
      vertex 14 35.9901 0
      vertex 9.15707 32.2434 0
      vertex 9.3511 32.8406 0
    endloop
  endfacet
  facet normal 0 0 -1
    outer loop
      vertex 14 35.9901 0
      vertex 9.03941 31.6267 0
      vertex 9.15707 32.2434 0
    endloop
  endfacet
  facet normal 0 0 -1
    outer loop
      vertex 14 35.9901 0
      vertex 9 31 0
      vertex 9.03941 31.6267 0
    endloop
  endfacet
  facet normal 0 0 -1
    outer loop
      vertex 14 35.9901 0
      vertex 9 14 0
      vertex 9 31 0
    endloop
  endfacet
  facet normal 0 0 1
    outer loop
      vertex 14 9.00986 6
      vertex 9.03941 13.3733 6
      vertex 9.15707 12.7565 6
    endloop
  endfacet
  facet normal 0 0 1
    outer loop
      vertex 9.3511 12.1594 6
      vertex 9.61845 11.5912 6
      vertex 14 9.00986 6
    endloop
  endfacet
  facet normal 0 0 1
    outer loop
      vertex 14 9.00986 6
      vertex 9.61845 11.5912 6
      vertex 9.95491 11.0611 6
    endloop
  endfacet
  facet normal -0 -0 1
    outer loop
      vertex 9.3511 12.1594 6
      vertex 14 9.00986 6
      vertex 9.15707 12.7565 6
    endloop
  endfacet
  facet normal 0 0 1
    outer loop
      vertex 10.3551 10.5773 6
      vertex 10.8129 10.1474 6
      vertex 14 9.00986 6
    endloop
  endfacet
  facet normal 0 0 1
    outer loop
      vertex 10.8129 10.1474 6
      vertex 11.3209 9.77835 6
      vertex 14 9.00986 6
    endloop
  endfacet
  facet normal 0 0 1
    outer loop
      vertex 11.3209 9.77835 6
      vertex 11.8711 9.47586 6
      vertex 14 9.00986 6
    endloop
  endfacet
  facet normal 0 0 1
    outer loop
      vertex 11.8711 9.47586 6
      vertex 12.4549 9.24471 6
      vertex 14 9.00986 6
    endloop
  endfacet
  facet normal 0 0 1
    outer loop
      vertex 12.4549 9.24471 6
      vertex 13.0631 9.08856 6
      vertex 14 9.00986 6
    endloop
  endfacet
  facet normal -0 -0 1
    outer loop
      vertex 10.3551 10.5773 6
      vertex 14 9.00986 6
      vertex 9.95491 11.0611 6
    endloop
  endfacet
  facet normal 0 -0 1
    outer loop
      vertex 13.686 9.00986 6
      vertex 14 9.00986 6
      vertex 13.0631 9.08856 6
    endloop
  endfacet
  facet normal 0 0 1
    outer loop
      vertex 14 9.00986 6
      vertex 9 14 6
      vertex 9.03941 13.3733 6
    endloop
  endfacet
  facet normal 0 -0 1
    outer loop
      vertex 46 9 6
      vertex 46 9.00986 6
      vertex 14 9.00986 6
    endloop
  endfacet
  facet normal 0 0 1
    outer loop
      vertex 46 9 6
      vertex 14 9.00986 6
      vertex 14 9 6
    endloop
  endfacet
  facet normal 0 0 1
    outer loop
      vertex 46 35.9901 6
      vertex 48.1289 35.5241 6
      vertex 47.5451 35.7553 6
    endloop
  endfacet
  facet normal 0 -0 1
    outer loop
      vertex 46.3139 9.00986 6
      vertex 46.9369 9.08856 6
      vertex 46 9.00986 6
    endloop
  endfacet
  facet normal 0 -0 1
    outer loop
      vertex 46.9369 9.08856 6
      vertex 47.5451 9.24471 6
      vertex 46 9.00986 6
    endloop
  endfacet
  facet normal 0 -0 1
    outer loop
      vertex 47.5451 9.24471 6
      vertex 48.1289 9.47586 6
      vertex 46 9.00986 6
    endloop
  endfacet
  facet normal 0 -0 1
    outer loop
      vertex 48.1289 9.47586 6
      vertex 48.6791 9.77835 6
      vertex 46 9.00986 6
    endloop
  endfacet
  facet normal 0 -0 1
    outer loop
      vertex 48.6791 9.77835 6
      vertex 49.1871 10.1474 6
      vertex 46 9.00986 6
    endloop
  endfacet
  facet normal 0 -0 1
    outer loop
      vertex 49.1871 10.1474 6
      vertex 49.6448 10.5773 6
      vertex 46 9.00986 6
    endloop
  endfacet
  facet normal 0 -0 1
    outer loop
      vertex 49.6448 10.5773 6
      vertex 50.0451 11.0611 6
      vertex 46 9.00986 6
    endloop
  endfacet
  facet normal 0 -0 1
    outer loop
      vertex 50.0451 11.0611 6
      vertex 50.3815 11.5912 6
      vertex 46 9.00986 6
    endloop
  endfacet
  facet normal 0 -0 1
    outer loop
      vertex 50.3815 11.5912 6
      vertex 50.6489 12.1594 6
      vertex 46 9.00986 6
    endloop
  endfacet
  facet normal 0 -0 1
    outer loop
      vertex 50.6489 12.1594 6
      vertex 50.8429 12.7565 6
      vertex 46 9.00986 6
    endloop
  endfacet
  facet normal 0 -0 1
    outer loop
      vertex 50.8429 12.7565 6
      vertex 50.9606 13.3733 6
      vertex 46 9.00986 6
    endloop
  endfacet
  facet normal 0 -0 1
    outer loop
      vertex 50.9606 13.3733 6
      vertex 51 14 6
      vertex 46 9.00986 6
    endloop
  endfacet
  facet normal 0 -0 1
    outer loop
      vertex 51 14 6
      vertex 51 31 6
      vertex 46 35.9901 6
    endloop
  endfacet
  facet normal 0 0 1
    outer loop
      vertex 50.3815 33.4088 6
      vertex 46 35.9901 6
      vertex 50.6489 32.8406 6
    endloop
  endfacet
  facet normal 0 0 1
    outer loop
      vertex 50.9606 31.6267 6
      vertex 50.8429 32.2434 6
      vertex 46 35.9901 6
    endloop
  endfacet
  facet normal 0 0 1
    outer loop
      vertex 50.0451 33.9389 6
      vertex 46 35.9901 6
      vertex 50.3815 33.4088 6
    endloop
  endfacet
  facet normal 0 0 1
    outer loop
      vertex 48.6791 35.2216 6
      vertex 48.1289 35.5241 6
      vertex 46 35.9901 6
    endloop
  endfacet
  facet normal 0 0 1
    outer loop
      vertex 49.1871 34.8526 6
      vertex 46 35.9901 6
      vertex 49.6448 34.4227 6
    endloop
  endfacet
  facet normal 0 0 1
    outer loop
      vertex 48.6791 35.2216 6
      vertex 46 35.9901 6
      vertex 49.1871 34.8526 6
    endloop
  endfacet
  facet normal 0 0 1
    outer loop
      vertex 50.0451 33.9389 6
      vertex 49.6448 34.4227 6
      vertex 46 35.9901 6
    endloop
  endfacet
  facet normal 0 0 1
    outer loop
      vertex 47.5451 35.7553 6
      vertex 46.9369 35.9114 6
      vertex 46 35.9901 6
    endloop
  endfacet
  facet normal 0 0 1
    outer loop
      vertex 50.6489 32.8406 6
      vertex 46 35.9901 6
      vertex 50.8429 32.2434 6
    endloop
  endfacet
  facet normal 0 0 1
    outer loop
      vertex 46.3139 35.9901 6
      vertex 46 35.9901 6
      vertex 46.9369 35.9114 6
    endloop
  endfacet
  facet normal 0 0 1
    outer loop
      vertex 46 35.9901 6
      vertex 51 31 6
      vertex 50.9606 31.6267 6
    endloop
  endfacet
  facet normal 0 0 1
    outer loop
      vertex 46 9.00986 6
      vertex 51 14 6
      vertex 46 35.9901 6
    endloop
  endfacet
  facet normal 0 -0 1
    outer loop
      vertex 46 9.00986 6
      vertex 46 35.9901 6
      vertex 14 35.9901 6
    endloop
  endfacet
  facet normal 0 0 1
    outer loop
      vertex 46 36 6
      vertex 14 36 6
      vertex 46 35.9901 6
    endloop
  endfacet
  facet normal 0 0 1
    outer loop
      vertex 14 35.9901 6
      vertex 9 14 6
      vertex 14 9.00986 6
    endloop
  endfacet
  facet normal -0 0 1
    outer loop
      vertex 13.686 35.9901 6
      vertex 13.0631 35.9114 6
      vertex 14 35.9901 6
    endloop
  endfacet
  facet normal 0 0 1
    outer loop
      vertex 46 9.00986 6
      vertex 14 35.9901 6
      vertex 14 9.00986 6
    endloop
  endfacet
  facet normal 0 0 1
    outer loop
      vertex 46 35.9901 6
      vertex 14 36 6
      vertex 14 35.9901 6
    endloop
  endfacet
  facet normal -0 0 1
    outer loop
      vertex 13.0631 35.9114 6
      vertex 12.4549 35.7553 6
      vertex 14 35.9901 6
    endloop
  endfacet
  facet normal -0 0 1
    outer loop
      vertex 12.4549 35.7553 6
      vertex 11.8711 35.5241 6
      vertex 14 35.9901 6
    endloop
  endfacet
  facet normal -0 0 1
    outer loop
      vertex 11.8711 35.5241 6
      vertex 11.3209 35.2216 6
      vertex 14 35.9901 6
    endloop
  endfacet
  facet normal -0 0 1
    outer loop
      vertex 11.3209 35.2216 6
      vertex 10.8129 34.8526 6
      vertex 14 35.9901 6
    endloop
  endfacet
  facet normal -0 0 1
    outer loop
      vertex 10.8129 34.8526 6
      vertex 10.3551 34.4227 6
      vertex 14 35.9901 6
    endloop
  endfacet
  facet normal -0 0 1
    outer loop
      vertex 10.3551 34.4227 6
      vertex 9.95491 33.9389 6
      vertex 14 35.9901 6
    endloop
  endfacet
  facet normal -0 0 1
    outer loop
      vertex 9.95491 33.9389 6
      vertex 9.61845 33.4088 6
      vertex 14 35.9901 6
    endloop
  endfacet
  facet normal -0 0 1
    outer loop
      vertex 9.61845 33.4088 6
      vertex 9.3511 32.8406 6
      vertex 14 35.9901 6
    endloop
  endfacet
  facet normal -0 0 1
    outer loop
      vertex 9.3511 32.8406 6
      vertex 9.15707 32.2434 6
      vertex 14 35.9901 6
    endloop
  endfacet
  facet normal -0 0 1
    outer loop
      vertex 9.15707 32.2434 6
      vertex 9.03941 31.6267 6
      vertex 14 35.9901 6
    endloop
  endfacet
  facet normal -0 0 1
    outer loop
      vertex 9.03941 31.6267 6
      vertex 9 31 6
      vertex 14 35.9901 6
    endloop
  endfacet
  facet normal -0 0 1
    outer loop
      vertex 9 31 6
      vertex 9 14 6
      vertex 14 35.9901 6
    endloop
  endfacet
  facet normal -0.982288 -0.18738 0
    outer loop
      vertex 9.15707 12.7565 0
      vertex 9.03941 13.3733 6
      vertex 9.03941 13.3733 0
    endloop
  endfacet
  facet normal -0.982288 -0.18738 0
    outer loop
      vertex 9.15707 12.7565 0
      vertex 9.15707 12.7565 6
      vertex 9.03941 13.3733 6
    endloop
  endfacet
  facet normal -0.951047 -0.309046 0
    outer loop
      vertex 9.3511 12.1594 0
      vertex 9.15707 12.7565 6
      vertex 9.15707 12.7565 0
    endloop
  endfacet
  facet normal -0.951047 -0.309046 0
    outer loop
      vertex 9.3511 12.1594 0
      vertex 9.3511 12.1594 6
      vertex 9.15707 12.7565 6
    endloop
  endfacet
  facet normal -0.904842 -0.425747 0
    outer loop
      vertex 9.61845 11.5912 0
      vertex 9.3511 12.1594 6
      vertex 9.3511 12.1594 0
    endloop
  endfacet
  facet normal -0.904842 -0.425747 0
    outer loop
      vertex 9.61845 11.5912 0
      vertex 9.61845 11.5912 6
      vertex 9.3511 12.1594 6
    endloop
  endfacet
  facet normal -0.844293 -0.535882 0
    outer loop
      vertex 9.95491 11.0611 0
      vertex 9.61845 11.5912 6
      vertex 9.61845 11.5912 0
    endloop
  endfacet
  facet normal -0.844293 -0.535882 0
    outer loop
      vertex 9.95491 11.0611 0
      vertex 9.95491 11.0611 6
      vertex 9.61845 11.5912 6
    endloop
  endfacet
  facet normal -0.770548 -0.637382 0
    outer loop
      vertex 10.3551 10.5773 0
      vertex 9.95491 11.0611 6
      vertex 9.95491 11.0611 0
    endloop
  endfacet
  facet normal -0.770548 -0.637382 0
    outer loop
      vertex 10.3551 10.5773 0
      vertex 10.3551 10.5773 6
      vertex 9.95491 11.0611 6
    endloop
  endfacet
  facet normal -0.684545 -0.728971 0
    outer loop
      vertex 10.8129 10.1474 0
      vertex 10.3551 10.5773 6
      vertex 10.3551 10.5773 0
    endloop
  endfacet
  facet normal -0.684545 -0.728971 0
    outer loop
      vertex 10.8129 10.1474 0
      vertex 10.8129 10.1474 6
      vertex 10.3551 10.5773 6
    endloop
  endfacet
  facet normal -0.58775 -0.809042 0
    outer loop
      vertex 11.3209 9.77835 0
      vertex 10.8129 10.1474 6
      vertex 10.8129 10.1474 0
    endloop
  endfacet
  facet normal -0.58775 -0.809042 0
    outer loop
      vertex 11.3209 9.77835 0
      vertex 11.3209 9.77835 6
      vertex 10.8129 10.1474 6
    endloop
  endfacet
  facet normal -0.481772 -0.876297 0
    outer loop
      vertex 11.8711 9.47586 0
      vertex 11.3209 9.77835 6
      vertex 11.3209 9.77835 0
    endloop
  endfacet
  facet normal -0.481772 -0.876297 0
    outer loop
      vertex 11.8711 9.47586 0
      vertex 11.8711 9.47586 6
      vertex 11.3209 9.77835 6
    endloop
  endfacet
  facet normal -0.368135 -0.929773 0
    outer loop
      vertex 12.4549 9.24471 0
      vertex 11.8711 9.47586 6
      vertex 11.8711 9.47586 0
    endloop
  endfacet
  facet normal -0.368135 -0.929773 0
    outer loop
      vertex 12.4549 9.24471 0
      vertex 12.4549 9.24471 6
      vertex 11.8711 9.47586 6
    endloop
  endfacet
  facet normal -0.248676 -0.968587 0
    outer loop
      vertex 13.0631 9.08856 0
      vertex 12.4549 9.24471 6
      vertex 12.4549 9.24471 0
    endloop
  endfacet
  facet normal -0.248676 -0.968587 0
    outer loop
      vertex 13.0631 9.08856 0
      vertex 13.0631 9.08856 6
      vertex 12.4549 9.24471 6
    endloop
  endfacet
  facet normal -0.125348 -0.992113 0
    outer loop
      vertex 13.686 9.00986 0
      vertex 13.0631 9.08856 6
      vertex 13.0631 9.08856 0
    endloop
  endfacet
  facet normal -0.125348 -0.992113 0
    outer loop
      vertex 13.686 9.00986 0
      vertex 13.686 9.00986 6
      vertex 13.0631 9.08856 6
    endloop
  endfacet
  facet normal 0 -1 0
    outer loop
      vertex 14 9.00986 0
      vertex 13.686 9.00986 6
      vertex 13.686 9.00986 0
    endloop
  endfacet
  facet normal 0 -1 0
    outer loop
      vertex 14 9.00986 0
      vertex 14 9.00986 6
      vertex 13.686 9.00986 6
    endloop
  endfacet
  facet normal -1 0 0
    outer loop
      vertex 14 9 0
      vertex 14 9.00986 6
      vertex 14 9.00986 0
    endloop
  endfacet
  facet normal -1 0 0
    outer loop
      vertex 14 9 0
      vertex 14 9 6
      vertex 14 9.00986 6
    endloop
  endfacet
  facet normal 0 -1 0
    outer loop
      vertex 46 9 0
      vertex 14 9 6
      vertex 14 9 0
    endloop
  endfacet
  facet normal 0 -1 0
    outer loop
      vertex 46 9 0
      vertex 46 9 6
      vertex 14 9 6
    endloop
  endfacet
  facet normal 1 0 0
    outer loop
      vertex 46 9.00986 0
      vertex 46 9 6
      vertex 46 9 0
    endloop
  endfacet
  facet normal 1 0 -0
    outer loop
      vertex 46 9.00986 0
      vertex 46 9.00986 6
      vertex 46 9 6
    endloop
  endfacet
  facet normal 0 -1 0
    outer loop
      vertex 46.3139 9.00986 0
      vertex 46 9.00986 6
      vertex 46 9.00986 0
    endloop
  endfacet
  facet normal 0 -1 0
    outer loop
      vertex 46.3139 9.00986 0
      vertex 46.3139 9.00986 6
      vertex 46 9.00986 6
    endloop
  endfacet
  facet normal 0.125328 -0.992115 0
    outer loop
      vertex 46.9369 9.08856 0
      vertex 46.3139 9.00986 6
      vertex 46.3139 9.00986 0
    endloop
  endfacet
  facet normal 0.125328 -0.992115 0
    outer loop
      vertex 46.9369 9.08856 0
      vertex 46.9369 9.08856 6
      vertex 46.3139 9.00986 6
    endloop
  endfacet
  facet normal 0.248676 -0.968587 0
    outer loop
      vertex 47.5451 9.24471 0
      vertex 46.9369 9.08856 6
      vertex 46.9369 9.08856 0
    endloop
  endfacet
  facet normal 0.248676 -0.968587 0
    outer loop
      vertex 47.5451 9.24471 0
      vertex 47.5451 9.24471 6
      vertex 46.9369 9.08856 6
    endloop
  endfacet
  facet normal 0.368135 -0.929773 0
    outer loop
      vertex 48.1289 9.47586 0
      vertex 47.5451 9.24471 6
      vertex 47.5451 9.24471 0
    endloop
  endfacet
  facet normal 0.368135 -0.929773 0
    outer loop
      vertex 48.1289 9.47586 0
      vertex 48.1289 9.47586 6
      vertex 47.5451 9.24471 6
    endloop
  endfacet
  facet normal 0.481772 -0.876297 0
    outer loop
      vertex 48.6791 9.77835 0
      vertex 48.1289 9.47586 6
      vertex 48.1289 9.47586 0
    endloop
  endfacet
  facet normal 0.481772 -0.876297 0
    outer loop
      vertex 48.6791 9.77835 0
      vertex 48.6791 9.77835 6
      vertex 48.1289 9.47586 6
    endloop
  endfacet
  facet normal 0.58775 -0.809042 0
    outer loop
      vertex 49.1871 10.1474 0
      vertex 48.6791 9.77835 6
      vertex 48.6791 9.77835 0
    endloop
  endfacet
  facet normal 0.58775 -0.809042 0
    outer loop
      vertex 49.1871 10.1474 0
      vertex 49.1871 10.1474 6
      vertex 48.6791 9.77835 6
    endloop
  endfacet
  facet normal 0.684624 -0.728896 0
    outer loop
      vertex 49.6448 10.5773 0
      vertex 49.1871 10.1474 6
      vertex 49.1871 10.1474 0
    endloop
  endfacet
  facet normal 0.684624 -0.728896 0
    outer loop
      vertex 49.6448 10.5773 0
      vertex 49.6448 10.5773 6
      vertex 49.1871 10.1474 6
    endloop
  endfacet
  facet normal 0.770462 -0.637486 0
    outer loop
      vertex 50.0451 11.0611 0
      vertex 49.6448 10.5773 6
      vertex 49.6448 10.5773 0
    endloop
  endfacet
  facet normal 0.770462 -0.637486 0
    outer loop
      vertex 50.0451 11.0611 0
      vertex 50.0451 11.0611 6
      vertex 49.6448 10.5773 6
    endloop
  endfacet
  facet normal 0.844336 -0.535814 0
    outer loop
      vertex 50.3815 11.5912 0
      vertex 50.0451 11.0611 6
      vertex 50.0451 11.0611 0
    endloop
  endfacet
  facet normal 0.844336 -0.535814 0
    outer loop
      vertex 50.3815 11.5912 0
      vertex 50.3815 11.5912 6
      vertex 50.0451 11.0611 6
    endloop
  endfacet
  facet normal 0.904811 -0.425812 0
    outer loop
      vertex 50.6489 12.1594 0
      vertex 50.3815 11.5912 6
      vertex 50.3815 11.5912 0
    endloop
  endfacet
  facet normal 0.904811 -0.425812 0
    outer loop
      vertex 50.6489 12.1594 0
      vertex 50.6489 12.1594 6
      vertex 50.3815 11.5912 6
    endloop
  endfacet
  facet normal 0.951061 -0.309003 0
    outer loop
      vertex 50.8429 12.7565 0
      vertex 50.6489 12.1594 6
      vertex 50.6489 12.1594 0
    endloop
  endfacet
  facet normal 0.951061 -0.309003 0
    outer loop
      vertex 50.8429 12.7565 0
      vertex 50.8429 12.7565 6
      vertex 50.6489 12.1594 6
    endloop
  endfacet
  facet normal 0.982276 -0.187441 0
    outer loop
      vertex 50.9606 13.3733 0
      vertex 50.8429 12.7565 6
      vertex 50.8429 12.7565 0
    endloop
  endfacet
  facet normal 0.982276 -0.187441 0
    outer loop
      vertex 50.9606 13.3733 0
      vertex 50.9606 13.3733 6
      vertex 50.8429 12.7565 6
    endloop
  endfacet
  facet normal 0.99803 -0.0627451 0
    outer loop
      vertex 51 14 0
      vertex 50.9606 13.3733 6
      vertex 50.9606 13.3733 0
    endloop
  endfacet
  facet normal 0.99803 -0.0627451 0
    outer loop
      vertex 51 14 0
      vertex 51 14 6
      vertex 50.9606 13.3733 6
    endloop
  endfacet
  facet normal 1 0 0
    outer loop
      vertex 51 31 0
      vertex 51 14 6
      vertex 51 14 0
    endloop
  endfacet
  facet normal 1 0 -0
    outer loop
      vertex 51 31 0
      vertex 51 31 6
      vertex 51 14 6
    endloop
  endfacet
  facet normal 0.99803 0.0627451 0
    outer loop
      vertex 50.9606 31.6267 0
      vertex 51 31 6
      vertex 51 31 0
    endloop
  endfacet
  facet normal 0.99803 0.0627451 -0
    outer loop
      vertex 50.9606 31.6267 0
      vertex 50.9606 31.6267 6
      vertex 51 31 6
    endloop
  endfacet
  facet normal 0.98227 0.187471 0
    outer loop
      vertex 50.8429 32.2434 0
      vertex 50.9606 31.6267 6
      vertex 50.9606 31.6267 0
    endloop
  endfacet
  facet normal 0.98227 0.187471 -0
    outer loop
      vertex 50.8429 32.2434 0
      vertex 50.8429 32.2434 6
      vertex 50.9606 31.6267 6
    endloop
  endfacet
  facet normal 0.951076 0.308956 0
    outer loop
      vertex 50.6489 32.8406 0
      vertex 50.8429 32.2434 6
      vertex 50.8429 32.2434 0
    endloop
  endfacet
  facet normal 0.951076 0.308956 -0
    outer loop
      vertex 50.6489 32.8406 0
      vertex 50.6489 32.8406 6
      vertex 50.8429 32.2434 6
    endloop
  endfacet
  facet normal 0.904811 0.425812 0
    outer loop
      vertex 50.3815 33.4088 0
      vertex 50.6489 32.8406 6
      vertex 50.6489 32.8406 0
    endloop
  endfacet
  facet normal 0.904811 0.425812 -0
    outer loop
      vertex 50.3815 33.4088 0
      vertex 50.3815 33.4088 6
      vertex 50.6489 32.8406 6
    endloop
  endfacet
  facet normal 0.844336 0.535814 0
    outer loop
      vertex 50.0451 33.9389 0
      vertex 50.3815 33.4088 6
      vertex 50.3815 33.4088 0
    endloop
  endfacet
  facet normal 0.844336 0.535814 -0
    outer loop
      vertex 50.0451 33.9389 0
      vertex 50.0451 33.9389 6
      vertex 50.3815 33.4088 6
    endloop
  endfacet
  facet normal 0.770462 0.637486 0
    outer loop
      vertex 49.6448 34.4227 0
      vertex 50.0451 33.9389 6
      vertex 50.0451 33.9389 0
    endloop
  endfacet
  facet normal 0.770462 0.637486 -0
    outer loop
      vertex 49.6448 34.4227 0
      vertex 49.6448 34.4227 6
      vertex 50.0451 33.9389 6
    endloop
  endfacet
  facet normal 0.684624 0.728896 0
    outer loop
      vertex 49.1871 34.8526 0
      vertex 49.6448 34.4227 6
      vertex 49.6448 34.4227 0
    endloop
  endfacet
  facet normal 0.684624 0.728896 -0
    outer loop
      vertex 49.1871 34.8526 0
      vertex 49.1871 34.8526 6
      vertex 49.6448 34.4227 6
    endloop
  endfacet
  facet normal 0.587698 0.80908 0
    outer loop
      vertex 48.6791 35.2216 0
      vertex 49.1871 34.8526 6
      vertex 49.1871 34.8526 0
    endloop
  endfacet
  facet normal 0.587698 0.80908 -0
    outer loop
      vertex 48.6791 35.2216 0
      vertex 48.6791 35.2216 6
      vertex 49.1871 34.8526 6
    endloop
  endfacet
  facet normal 0.481784 0.87629 0
    outer loop
      vertex 48.1289 35.5241 0
      vertex 48.6791 35.2216 6
      vertex 48.6791 35.2216 0
    endloop
  endfacet
  facet normal 0.481784 0.87629 -0
    outer loop
      vertex 48.1289 35.5241 0
      vertex 48.1289 35.5241 6
      vertex 48.6791 35.2216 6
    endloop
  endfacet
  facet normal 0.368203 0.929745 0
    outer loop
      vertex 47.5451 35.7553 0
      vertex 48.1289 35.5241 6
      vertex 48.1289 35.5241 0
    endloop
  endfacet
  facet normal 0.368203 0.929745 -0
    outer loop
      vertex 47.5451 35.7553 0
      vertex 47.5451 35.7553 6
      vertex 48.1289 35.5241 6
    endloop
  endfacet
  facet normal 0.248601 0.968606 0
    outer loop
      vertex 46.9369 35.9114 0
      vertex 47.5451 35.7553 6
      vertex 47.5451 35.7553 0
    endloop
  endfacet
  facet normal 0.248601 0.968606 -0
    outer loop
      vertex 46.9369 35.9114 0
      vertex 46.9369 35.9114 6
      vertex 47.5451 35.7553 6
    endloop
  endfacet
  facet normal 0.125328 0.992115 0
    outer loop
      vertex 46.3139 35.9901 0
      vertex 46.9369 35.9114 6
      vertex 46.9369 35.9114 0
    endloop
  endfacet
  facet normal 0.125328 0.992115 -0
    outer loop
      vertex 46.3139 35.9901 0
      vertex 46.3139 35.9901 6
      vertex 46.9369 35.9114 6
    endloop
  endfacet
  facet normal 0 1 0
    outer loop
      vertex 46 35.9901 0
      vertex 46.3139 35.9901 6
      vertex 46.3139 35.9901 0
    endloop
  endfacet
  facet normal 0 1 0
    outer loop
      vertex 46 35.9901 0
      vertex 46 35.9901 6
      vertex 46.3139 35.9901 6
    endloop
  endfacet
  facet normal 1 0 0
    outer loop
      vertex 46 36 0
      vertex 46 35.9901 6
      vertex 46 35.9901 0
    endloop
  endfacet
  facet normal 1 0 -0
    outer loop
      vertex 46 36 0
      vertex 46 36 6
      vertex 46 35.9901 6
    endloop
  endfacet
  facet normal 0 1 0
    outer loop
      vertex 14 36 0
      vertex 46 36 6
      vertex 46 36 0
    endloop
  endfacet
  facet normal 0 1 0
    outer loop
      vertex 14 36 0
      vertex 14 36 6
      vertex 46 36 6
    endloop
  endfacet
  facet normal -1 0 0
    outer loop
      vertex 14 35.9901 0
      vertex 14 36 6
      vertex 14 36 0
    endloop
  endfacet
  facet normal -1 0 0
    outer loop
      vertex 14 35.9901 0
      vertex 14 35.9901 6
      vertex 14 36 6
    endloop
  endfacet
  facet normal 0 1 0
    outer loop
      vertex 13.686 35.9901 0
      vertex 14 35.9901 6
      vertex 14 35.9901 0
    endloop
  endfacet
  facet normal 0 1 0
    outer loop
      vertex 13.686 35.9901 0
      vertex 13.686 35.9901 6
      vertex 14 35.9901 6
    endloop
  endfacet
  facet normal -0.125348 0.992113 0
    outer loop
      vertex 13.0631 35.9114 0
      vertex 13.686 35.9901 6
      vertex 13.686 35.9901 0
    endloop
  endfacet
  facet normal -0.125348 0.992113 0
    outer loop
      vertex 13.0631 35.9114 0
      vertex 13.0631 35.9114 6
      vertex 13.686 35.9901 6
    endloop
  endfacet
  facet normal -0.248601 0.968606 0
    outer loop
      vertex 12.4549 35.7553 0
      vertex 13.0631 35.9114 6
      vertex 13.0631 35.9114 0
    endloop
  endfacet
  facet normal -0.248601 0.968606 0
    outer loop
      vertex 12.4549 35.7553 0
      vertex 12.4549 35.7553 6
      vertex 13.0631 35.9114 6
    endloop
  endfacet
  facet normal -0.368203 0.929745 0
    outer loop
      vertex 11.8711 35.5241 0
      vertex 12.4549 35.7553 6
      vertex 12.4549 35.7553 0
    endloop
  endfacet
  facet normal -0.368203 0.929745 0
    outer loop
      vertex 11.8711 35.5241 0
      vertex 11.8711 35.5241 6
      vertex 12.4549 35.7553 6
    endloop
  endfacet
  facet normal -0.481784 0.87629 0
    outer loop
      vertex 11.3209 35.2216 0
      vertex 11.8711 35.5241 6
      vertex 11.8711 35.5241 0
    endloop
  endfacet
  facet normal -0.481784 0.87629 0
    outer loop
      vertex 11.3209 35.2216 0
      vertex 11.3209 35.2216 6
      vertex 11.8711 35.5241 6
    endloop
  endfacet
  facet normal -0.587698 0.80908 0
    outer loop
      vertex 10.8129 34.8526 0
      vertex 11.3209 35.2216 6
      vertex 11.3209 35.2216 0
    endloop
  endfacet
  facet normal -0.587698 0.80908 0
    outer loop
      vertex 10.8129 34.8526 0
      vertex 10.8129 34.8526 6
      vertex 11.3209 35.2216 6
    endloop
  endfacet
  facet normal -0.684545 0.728971 0
    outer loop
      vertex 10.3551 34.4227 0
      vertex 10.8129 34.8526 6
      vertex 10.8129 34.8526 0
    endloop
  endfacet
  facet normal -0.684545 0.728971 0
    outer loop
      vertex 10.3551 34.4227 0
      vertex 10.3551 34.4227 6
      vertex 10.8129 34.8526 6
    endloop
  endfacet
  facet normal -0.770548 0.637382 0
    outer loop
      vertex 9.95491 33.9389 0
      vertex 10.3551 34.4227 6
      vertex 10.3551 34.4227 0
    endloop
  endfacet
  facet normal -0.770548 0.637382 0
    outer loop
      vertex 9.95491 33.9389 0
      vertex 9.95491 33.9389 6
      vertex 10.3551 34.4227 6
    endloop
  endfacet
  facet normal -0.844293 0.535882 0
    outer loop
      vertex 9.61845 33.4088 0
      vertex 9.95491 33.9389 6
      vertex 9.95491 33.9389 0
    endloop
  endfacet
  facet normal -0.844293 0.535882 0
    outer loop
      vertex 9.61845 33.4088 0
      vertex 9.61845 33.4088 6
      vertex 9.95491 33.9389 6
    endloop
  endfacet
  facet normal -0.904842 0.425747 0
    outer loop
      vertex 9.3511 32.8406 0
      vertex 9.61845 33.4088 6
      vertex 9.61845 33.4088 0
    endloop
  endfacet
  facet normal -0.904842 0.425747 0
    outer loop
      vertex 9.3511 32.8406 0
      vertex 9.3511 32.8406 6
      vertex 9.61845 33.4088 6
    endloop
  endfacet
  facet normal -0.951062 0.309 0
    outer loop
      vertex 9.15707 32.2434 0
      vertex 9.3511 32.8406 6
      vertex 9.3511 32.8406 0
    endloop
  endfacet
  facet normal -0.951062 0.309 0
    outer loop
      vertex 9.15707 32.2434 0
      vertex 9.15707 32.2434 6
      vertex 9.3511 32.8406 6
    endloop
  endfacet
  facet normal -0.982282 0.187409 0
    outer loop
      vertex 9.03941 31.6267 0
      vertex 9.15707 32.2434 6
      vertex 9.15707 32.2434 0
    endloop
  endfacet
  facet normal -0.982282 0.187409 0
    outer loop
      vertex 9.03941 31.6267 0
      vertex 9.03941 31.6267 6
      vertex 9.15707 32.2434 6
    endloop
  endfacet
  facet normal -0.998029 0.062761 0
    outer loop
      vertex 9 31 0
      vertex 9.03941 31.6267 6
      vertex 9.03941 31.6267 0
    endloop
  endfacet
  facet normal -0.998029 0.062761 0
    outer loop
      vertex 9 31 0
      vertex 9 31 6
      vertex 9.03941 31.6267 6
    endloop
  endfacet
  facet normal -1 0 0
    outer loop
      vertex 9 14 0
      vertex 9 31 6
      vertex 9 31 0
    endloop
  endfacet
  facet normal -1 0 0
    outer loop
      vertex 9 14 0
      vertex 9 14 6
      vertex 9 31 6
    endloop
  endfacet
  facet normal -0.998029 -0.062761 0
    outer loop
      vertex 9.03941 13.3733 0
      vertex 9 14 6
      vertex 9 14 0
    endloop
  endfacet
  facet normal -0.998029 -0.062761 0
    outer loop
      vertex 9.03941 13.3733 0
      vertex 9.03941 13.3733 6
      vertex 9 14 6
    endloop
  endfacet
endsolid OpenSCAD_Model
