solid OpenSCAD_Model
  facet normal 0 0 -1
    outer loop
      vertex 46.3139 9.00986 0
      vertex 46 9.02962 0
      vertex 47.5451 9.24471 0
    endloop
  endfacet
  facet normal -0 0 -1
    outer loop
      vertex 47.5451 9.24471 0
      vertex 46 9.02962 0
      vertex 48.6791 9.77835 0
    endloop
  endfacet
  facet normal -0 -0 -1
    outer loop
      vertex 46 35.9704 0
      vertex 46 9.02962 0
      vertex 14 35.9704 0
    endloop
  endfacet
  facet normal -0 0 -1
    outer loop
      vertex 48.6791 9.77835 0
      vertex 46 9.02962 0
      vertex 49.6448 10.5773 0
    endloop
  endfacet
  facet normal -0 0 -1
    outer loop
      vertex 49.6448 10.5773 0
      vertex 46 9.02962 0
      vertex 50.3815 11.5912 0
    endloop
  endfacet
  facet normal -0 0 -1
    outer loop
      vertex 50.3815 11.5912 0
      vertex 46 9.02962 0
      vertex 50.8429 12.7565 0
    endloop
  endfacet
  facet normal -0 0 -1
    outer loop
      vertex 50.8429 12.7565 0
      vertex 46 9.02962 0
      vertex 51 14 0
    endloop
  endfacet
  facet normal 0 0 -1
    outer loop
      vertex 51 14 0
      vertex 46 35.9704 0
      vertex 51 31 0
    endloop
  endfacet
  facet normal -0 -0 -1
    outer loop
      vertex 49.6448 34.4227 0
      vertex 50.3815 33.4088 0
      vertex 46 35.9704 0
    endloop
  endfacet
  facet normal -0 -0 -1
    outer loop
      vertex 48.6791 35.2216 0
      vertex 49.6448 34.4227 0
      vertex 46 35.9704 0
    endloop
  endfacet
  facet normal 0 0 -1
    outer loop
      vertex 47.5451 35.7553 0
      vertex 46 35.9704 0
      vertex 46.3139 35.9901 0
    endloop
  endfacet
  facet normal -0 -0 -1
    outer loop
      vertex 47.5451 35.7553 0
      vertex 48.6791 35.2216 0
      vertex 46 35.9704 0
    endloop
  endfacet
  facet normal 0 0 -1
    outer loop
      vertex 46 35.9704 0
      vertex 50.3815 33.4088 0
      vertex 50.8429 32.2434 0
    endloop
  endfacet
  facet normal 0 0 -1
    outer loop
      vertex 51 31 0
      vertex 46 35.9704 0
      vertex 50.8429 32.2434 0
    endloop
  endfacet
  facet normal -0 0 -1
    outer loop
      vertex 51 14 0
      vertex 46 9.02962 0
      vertex 46 35.9704 0
    endloop
  endfacet
  facet normal 0 0 -1
    outer loop
      vertex 46 35.9704 0
      vertex 14 35.9704 0
      vertex 14 36 0
    endloop
  endfacet
  facet normal -0 -0 -1
    outer loop
      vertex 46 36 0
      vertex 46 35.9704 0
      vertex 14 36 0
    endloop
  endfacet
  facet normal 0 -0 -1
    outer loop
      vertex 9.95491 33.9389 0
      vertex 10.8129 34.8526 0
      vertex 9.03941 31 0
    endloop
  endfacet
  facet normal 0 0 -1
    outer loop
      vertex 14 35.9704 0
      vertex 11.8711 35.5241 0
      vertex 13.0631 35.9114 0
    endloop
  endfacet
  facet normal 0 0 -1
    outer loop
      vertex 14 35.9704 0
      vertex 10.8129 34.8526 0
      vertex 11.8711 35.5241 0
    endloop
  endfacet
  facet normal 0 -0 -1
    outer loop
      vertex 9.3511 32.8406 0
      vertex 9.95491 33.9389 0
      vertex 9.03941 31 0
    endloop
  endfacet
  facet normal 0 0 -1
    outer loop
      vertex 9.03941 31.6267 0
      vertex 9.3511 32.8406 0
      vertex 9.03941 31 0
    endloop
  endfacet
  facet normal 0 0 -1
    outer loop
      vertex 9.03941 31 0
      vertex 10.8129 34.8526 0
      vertex 14 35.9704 0
    endloop
  endfacet
  facet normal 0 0 -1
    outer loop
      vertex 9 31 0
      vertex 9.03941 31 0
      vertex 9.03941 14 0
    endloop
  endfacet
  facet normal 0 0 -1
    outer loop
      vertex 9.03941 14 0
      vertex 9 14 0
      vertex 9 31 0
    endloop
  endfacet
  facet normal 0 0 -1
    outer loop
      vertex 9.3511 12.1594 0
      vertex 9.03941 13.3733 0
      vertex 9.03941 14 0
    endloop
  endfacet
  facet normal 0 0 -1
    outer loop
      vertex 9.95491 11.0611 0
      vertex 9.3511 12.1594 0
      vertex 9.03941 14 0
    endloop
  endfacet
  facet normal 0 0 -1
    outer loop
      vertex 11.8711 9.47586 0
      vertex 14 9.02962 0
      vertex 13.0631 9.08856 0
    endloop
  endfacet
  facet normal 0 0 -1
    outer loop
      vertex 9.03941 14 0
      vertex 9.03941 31 0
      vertex 14 35.9704 0
    endloop
  endfacet
  facet normal 0 0 -1
    outer loop
      vertex 10.8129 10.1474 0
      vertex 9.95491 11.0611 0
      vertex 9.03941 14 0
    endloop
  endfacet
  facet normal 0 0 -1
    outer loop
      vertex 11.8711 9.47586 0
      vertex 10.8129 10.1474 0
      vertex 14 9.02962 0
    endloop
  endfacet
  facet normal 0 0 -1
    outer loop
      vertex 10.8129 10.1474 0
      vertex 9.03941 14 0
      vertex 14 9.02962 0
    endloop
  endfacet
  facet normal 0 0 -1
    outer loop
      vertex 14 9.02962 0
      vertex 9.03941 14 0
      vertex 14 35.9704 0
    endloop
  endfacet
  facet normal 0 0 -1
    outer loop
      vertex 46 9.02962 0
      vertex 14 9.02962 0
      vertex 14 35.9704 0
    endloop
  endfacet
  facet normal -0 -0 -1
    outer loop
      vertex 46 9.02962 0
      vertex 46 9 0
      vertex 14 9.02962 0
    endloop
  endfacet
  facet normal 0 0 -1
    outer loop
      vertex 14 9.02962 0
      vertex 46 9 0
      vertex 14 9 0
    endloop
  endfacet
  facet normal 0 0 1
    outer loop
      vertex 47.5451 9.24471 6
      vertex 46 9.02962 6
      vertex 46.3139 9.00986 6
    endloop
  endfacet
  facet normal 0 0 1
    outer loop
      vertex 48.6791 9.77835 6
      vertex 46 9.02962 6
      vertex 47.5451 9.24471 6
    endloop
  endfacet
  facet normal -0 0 1
    outer loop
      vertex 14 35.9704 6
      vertex 46 9.02962 6
      vertex 46 35.9704 6
    endloop
  endfacet
  facet normal 0 0 1
    outer loop
      vertex 49.6448 10.5773 6
      vertex 46 9.02962 6
      vertex 48.6791 9.77835 6
    endloop
  endfacet
  facet normal 0 0 1
    outer loop
      vertex 50.3815 11.5912 6
      vertex 46 9.02962 6
      vertex 49.6448 10.5773 6
    endloop
  endfacet
  facet normal 0 0 1
    outer loop
      vertex 50.8429 12.7565 6
      vertex 46 9.02962 6
      vertex 50.3815 11.5912 6
    endloop
  endfacet
  facet normal 0 0 1
    outer loop
      vertex 51 14 6
      vertex 46 9.02962 6
      vertex 50.8429 12.7565 6
    endloop
  endfacet
  facet normal 0 0 1
    outer loop
      vertex 51 31 6
      vertex 46 35.9704 6
      vertex 51 14 6
    endloop
  endfacet
  facet normal 0 0 1
    outer loop
      vertex 46 35.9704 6
      vertex 50.3815 33.4088 6
      vertex 49.6448 34.4227 6
    endloop
  endfacet
  facet normal 0 0 1
    outer loop
      vertex 46 35.9704 6
      vertex 49.6448 34.4227 6
      vertex 48.6791 35.2216 6
    endloop
  endfacet
  facet normal 0 0 1
    outer loop
      vertex 46.3139 35.9901 6
      vertex 46 35.9704 6
      vertex 47.5451 35.7553 6
    endloop
  endfacet
  facet normal 0 0 1
    outer loop
      vertex 46 35.9704 6
      vertex 48.6791 35.2216 6
      vertex 47.5451 35.7553 6
    endloop
  endfacet
  facet normal 0 0 1
    outer loop
      vertex 50.8429 32.2434 6
      vertex 50.3815 33.4088 6
      vertex 46 35.9704 6
    endloop
  endfacet
  facet normal 0 0 1
    outer loop
      vertex 50.8429 32.2434 6
      vertex 46 35.9704 6
      vertex 51 31 6
    endloop
  endfacet
  facet normal 0 0 1
    outer loop
      vertex 46 35.9704 6
      vertex 46 9.02962 6
      vertex 51 14 6
    endloop
  endfacet
  facet normal 0 0 1
    outer loop
      vertex 14 36 6
      vertex 14 35.9704 6
      vertex 46 35.9704 6
    endloop
  endfacet
  facet normal -0 0 1
    outer loop
      vertex 14 36 6
      vertex 46 35.9704 6
      vertex 46 36 6
    endloop
  endfacet
  facet normal 0 0 1
    outer loop
      vertex 9.03941 31 6
      vertex 10.8129 34.8526 6
      vertex 9.95491 33.9389 6
    endloop
  endfacet
  facet normal -0 0 1
    outer loop
      vertex 13.0631 35.9114 6
      vertex 11.8711 35.5241 6
      vertex 14 35.9704 6
    endloop
  endfacet
  facet normal -0 0 1
    outer loop
      vertex 11.8711 35.5241 6
      vertex 10.8129 34.8526 6
      vertex 14 35.9704 6
    endloop
  endfacet
  facet normal 0 0 1
    outer loop
      vertex 9.03941 31 6
      vertex 9.95491 33.9389 6
      vertex 9.3511 32.8406 6
    endloop
  endfacet
  facet normal 0 0 1
    outer loop
      vertex 9.03941 31 6
      vertex 9.3511 32.8406 6
      vertex 9.03941 31.6267 6
    endloop
  endfacet
  facet normal 0 0 1
    outer loop
      vertex 14 35.9704 6
      vertex 10.8129 34.8526 6
      vertex 9.03941 31 6
    endloop
  endfacet
  facet normal 0 -0 1
    outer loop
      vertex 9.03941 14 6
      vertex 9.03941 31 6
      vertex 9 31 6
    endloop
  endfacet
  facet normal 0 0 1
    outer loop
      vertex 9 31 6
      vertex 9 14 6
      vertex 9.03941 14 6
    endloop
  endfacet
  facet normal 0 0 1
    outer loop
      vertex 9.03941 14 6
      vertex 9.03941 13.3733 6
      vertex 9.3511 12.1594 6
    endloop
  endfacet
  facet normal 0 0 1
    outer loop
      vertex 9.03941 14 6
      vertex 9.3511 12.1594 6
      vertex 9.95491 11.0611 6
    endloop
  endfacet
  facet normal -0 -0 1
    outer loop
      vertex 13.0631 9.08856 6
      vertex 14 9.02962 6
      vertex 11.8711 9.47586 6
    endloop
  endfacet
  facet normal 0 0 1
    outer loop
      vertex 14 35.9704 6
      vertex 9.03941 31 6
      vertex 9.03941 14 6
    endloop
  endfacet
  facet normal 0 0 1
    outer loop
      vertex 9.03941 14 6
      vertex 9.95491 11.0611 6
      vertex 10.8129 10.1474 6
    endloop
  endfacet
  facet normal 0 0 1
    outer loop
      vertex 14 9.02962 6
      vertex 10.8129 10.1474 6
      vertex 11.8711 9.47586 6
    endloop
  endfacet
  facet normal 0 0 1
    outer loop
      vertex 14 9.02962 6
      vertex 9.03941 14 6
      vertex 10.8129 10.1474 6
    endloop
  endfacet
  facet normal 0 0 1
    outer loop
      vertex 14 35.9704 6
      vertex 9.03941 14 6
      vertex 14 9.02962 6
    endloop
  endfacet
  facet normal 0 0 1
    outer loop
      vertex 14 35.9704 6
      vertex 14 9.02962 6
      vertex 46 9.02962 6
    endloop
  endfacet
  facet normal -0 0 1
    outer loop
      vertex 14 9.02962 6
      vertex 46 9 6
      vertex 46 9.02962 6
    endloop
  endfacet
  facet normal 0 0 1
    outer loop
      vertex 14 9 6
      vertex 46 9 6
      vertex 14 9.02962 6
    endloop
  endfacet
  facet normal -0.0628256 -0.998025 0
    outer loop
      vertex 46.3139 9.00986 0
      vertex 46 9.02962 6
      vertex 46 9.02962 0
    endloop
  endfacet
  facet normal -0.0628256 -0.998025 0
    outer loop
      vertex 46.3139 9.00986 0
      vertex 46.3139 9.00986 6
      vertex 46 9.02962 6
    endloop
  endfacet
  facet normal 0.187371 -0.982289 0
    outer loop
      vertex 47.5451 9.24471 0
      vertex 46.3139 9.00986 6
      vertex 46.3139 9.00986 0
    endloop
  endfacet
  facet normal 0.187371 -0.982289 0
    outer loop
      vertex 47.5451 9.24471 0
      vertex 47.5451 9.24471 6
      vertex 46.3139 9.00986 6
    endloop
  endfacet
  facet normal 0.425792 -0.904821 0
    outer loop
      vertex 48.6791 9.77835 0
      vertex 47.5451 9.24471 6
      vertex 47.5451 9.24471 0
    endloop
  endfacet
  facet normal 0.425792 -0.904821 0
    outer loop
      vertex 48.6791 9.77835 0
      vertex 48.6791 9.77835 6
      vertex 47.5451 9.24471 6
    endloop
  endfacet
  facet normal 0.637449 -0.770492 0
    outer loop
      vertex 49.6448 10.5773 0
      vertex 48.6791 9.77835 6
      vertex 48.6791 9.77835 0
    endloop
  endfacet
  facet normal 0.637449 -0.770492 0
    outer loop
      vertex 49.6448 10.5773 0
      vertex 49.6448 10.5773 6
      vertex 48.6791 9.77835 6
    endloop
  endfacet
  facet normal 0.808995 -0.587816 0
    outer loop
      vertex 50.3815 11.5912 0
      vertex 49.6448 10.5773 6
      vertex 49.6448 10.5773 0
    endloop
  endfacet
  facet normal 0.808995 -0.587816 0
    outer loop
      vertex 50.3815 11.5912 0
      vertex 50.3815 11.5912 6
      vertex 49.6448 10.5773 6
    endloop
  endfacet
  facet normal 0.92977 -0.368142 0
    outer loop
      vertex 50.8429 12.7565 0
      vertex 50.3815 11.5912 6
      vertex 50.3815 11.5912 0
    endloop
  endfacet
  facet normal 0.92977 -0.368142 0
    outer loop
      vertex 50.8429 12.7565 0
      vertex 50.8429 12.7565 6
      vertex 50.3815 11.5912 6
    endloop
  endfacet
  facet normal 0.992114 -0.125341 0
    outer loop
      vertex 51 14 0
      vertex 50.8429 12.7565 6
      vertex 50.8429 12.7565 0
    endloop
  endfacet
  facet normal 0.992114 -0.125341 0
    outer loop
      vertex 51 14 0
      vertex 51 14 6
      vertex 50.8429 12.7565 6
    endloop
  endfacet
  facet normal 1 0 0
    outer loop
      vertex 51 31 0
      vertex 51 14 6
      vertex 51 14 0
    endloop
  endfacet
  facet normal 1 0 -0
    outer loop
      vertex 51 31 0
      vertex 51 31 6
      vertex 51 14 6
    endloop
  endfacet
  facet normal 0.992113 0.125351 0
    outer loop
      vertex 50.8429 32.2434 0
      vertex 51 31 6
      vertex 51 31 0
    endloop
  endfacet
  facet normal 0.992113 0.125351 -0
    outer loop
      vertex 50.8429 32.2434 0
      vertex 50.8429 32.2434 6
      vertex 51 31 6
    endloop
  endfacet
  facet normal 0.92978 0.368115 0
    outer loop
      vertex 50.3815 33.4088 0
      vertex 50.8429 32.2434 6
      vertex 50.8429 32.2434 0
    endloop
  endfacet
  facet normal 0.92978 0.368115 -0
    outer loop
      vertex 50.3815 33.4088 0
      vertex 50.3815 33.4088 6
      vertex 50.8429 32.2434 6
    endloop
  endfacet
  facet normal 0.808995 0.587816 0
    outer loop
      vertex 49.6448 34.4227 0
      vertex 50.3815 33.4088 6
      vertex 50.3815 33.4088 0
    endloop
  endfacet
  facet normal 0.808995 0.587816 -0
    outer loop
      vertex 49.6448 34.4227 0
      vertex 49.6448 34.4227 6
      vertex 50.3815 33.4088 6
    endloop
  endfacet
  facet normal 0.637426 0.770512 0
    outer loop
      vertex 48.6791 35.2216 0
      vertex 49.6448 34.4227 6
      vertex 49.6448 34.4227 0
    endloop
  endfacet
  facet normal 0.637426 0.770512 -0
    outer loop
      vertex 48.6791 35.2216 0
      vertex 48.6791 35.2216 6
      vertex 49.6448 34.4227 6
    endloop
  endfacet
  facet normal 0.425832 0.904802 0
    outer loop
      vertex 47.5451 35.7553 0
      vertex 48.6791 35.2216 6
      vertex 48.6791 35.2216 0
    endloop
  endfacet
  facet normal 0.425832 0.904802 -0
    outer loop
      vertex 47.5451 35.7553 0
      vertex 47.5451 35.7553 6
      vertex 48.6791 35.2216 6
    endloop
  endfacet
  facet normal 0.187332 0.982297 0
    outer loop
      vertex 46.3139 35.9901 0
      vertex 47.5451 35.7553 6
      vertex 47.5451 35.7553 0
    endloop
  endfacet
  facet normal 0.187332 0.982297 -0
    outer loop
      vertex 46.3139 35.9901 0
      vertex 46.3139 35.9901 6
      vertex 47.5451 35.7553 6
    endloop
  endfacet
  facet normal -0.0626356 0.998036 0
    outer loop
      vertex 46 35.9704 0
      vertex 46.3139 35.9901 6
      vertex 46.3139 35.9901 0
    endloop
  endfacet
  facet normal -0.0626356 0.998036 0
    outer loop
      vertex 46 35.9704 0
      vertex 46 35.9704 6
      vertex 46.3139 35.9901 6
    endloop
  endfacet
  facet normal 1 0 0
    outer loop
      vertex 46 36 0
      vertex 46 35.9704 6
      vertex 46 35.9704 0
    endloop
  endfacet
  facet normal 1 0 -0
    outer loop
      vertex 46 36 0
      vertex 46 36 6
      vertex 46 35.9704 6
    endloop
  endfacet
  facet normal 0 1 0
    outer loop
      vertex 14 36 0
      vertex 46 36 6
      vertex 46 36 0
    endloop
  endfacet
  facet normal 0 1 0
    outer loop
      vertex 14 36 0
      vertex 14 36 6
      vertex 46 36 6
    endloop
  endfacet
  facet normal -1 0 0
    outer loop
      vertex 14 35.9704 0
      vertex 14 36 6
      vertex 14 36 0
    endloop
  endfacet
  facet normal -1 0 0
    outer loop
      vertex 14 35.9704 0
      vertex 14 35.9704 6
      vertex 14 36 6
    endloop
  endfacet
  facet normal -0.0628491 0.998023 0
    outer loop
      vertex 13.0631 35.9114 0
      vertex 14 35.9704 6
      vertex 14 35.9704 0
    endloop
  endfacet
  facet normal -0.0628491 0.998023 0
    outer loop
      vertex 13.0631 35.9114 0
      vertex 13.0631 35.9114 6
      vertex 14 35.9704 6
    endloop
  endfacet
  facet normal -0.309014 0.951058 0
    outer loop
      vertex 11.8711 35.5241 0
      vertex 13.0631 35.9114 6
      vertex 13.0631 35.9114 0
    endloop
  endfacet
  facet normal -0.309014 0.951058 0
    outer loop
      vertex 11.8711 35.5241 0
      vertex 11.8711 35.5241 6
      vertex 13.0631 35.9114 6
    endloop
  endfacet
  facet normal -0.535796 0.844347 0
    outer loop
      vertex 10.8129 34.8526 0
      vertex 11.8711 35.5241 6
      vertex 11.8711 35.5241 0
    endloop
  endfacet
  facet normal -0.535796 0.844347 0
    outer loop
      vertex 10.8129 34.8526 0
      vertex 10.8129 34.8526 6
      vertex 11.8711 35.5241 6
    endloop
  endfacet
  facet normal -0.728981 0.684534 0
    outer loop
      vertex 9.95491 33.9389 0
      vertex 10.8129 34.8526 6
      vertex 10.8129 34.8526 0
    endloop
  endfacet
  facet normal -0.728981 0.684534 0
    outer loop
      vertex 9.95491 33.9389 0
      vertex 9.95491 33.9389 6
      vertex 10.8129 34.8526 6
    endloop
  endfacet
  facet normal -0.876302 0.481763 0
    outer loop
      vertex 9.3511 32.8406 0
      vertex 9.95491 33.9389 6
      vertex 9.95491 33.9389 0
    endloop
  endfacet
  facet normal -0.876302 0.481763 0
    outer loop
      vertex 9.3511 32.8406 0
      vertex 9.3511 32.8406 6
      vertex 9.95491 33.9389 6
    endloop
  endfacet
  facet normal -0.968581 0.2487 0
    outer loop
      vertex 9.03941 31.6267 0
      vertex 9.3511 32.8406 6
      vertex 9.3511 32.8406 0
    endloop
  endfacet
  facet normal -0.968581 0.2487 0
    outer loop
      vertex 9.03941 31.6267 0
      vertex 9.03941 31.6267 6
      vertex 9.3511 32.8406 6
    endloop
  endfacet
  facet normal -1 0 0
    outer loop
      vertex 9.03941 31 0
      vertex 9.03941 31.6267 6
      vertex 9.03941 31.6267 0
    endloop
  endfacet
  facet normal -1 0 0
    outer loop
      vertex 9.03941 31 0
      vertex 9.03941 31 6
      vertex 9.03941 31.6267 6
    endloop
  endfacet
  facet normal 0 1 0
    outer loop
      vertex 9 31 0
      vertex 9.03941 31 6
      vertex 9.03941 31 0
    endloop
  endfacet
  facet normal 0 1 0
    outer loop
      vertex 9 31 0
      vertex 9 31 6
      vertex 9.03941 31 6
    endloop
  endfacet
  facet normal -1 0 0
    outer loop
      vertex 9 14 0
      vertex 9 31 6
      vertex 9 31 0
    endloop
  endfacet
  facet normal -1 0 0
    outer loop
      vertex 9 14 0
      vertex 9 14 6
      vertex 9 31 6
    endloop
  endfacet
  facet normal 0 -1 0
    outer loop
      vertex 9.03941 14 0
      vertex 9 14 6
      vertex 9 14 0
    endloop
  endfacet
  facet normal 0 -1 0
    outer loop
      vertex 9.03941 14 0
      vertex 9.03941 14 6
      vertex 9 14 6
    endloop
  endfacet
  facet normal -1 0 0
    outer loop
      vertex 9.03941 13.3733 0
      vertex 9.03941 14 6
      vertex 9.03941 14 0
    endloop
  endfacet
  facet normal -1 0 0
    outer loop
      vertex 9.03941 13.3733 0
      vertex 9.03941 13.3733 6
      vertex 9.03941 14 6
    endloop
  endfacet
  facet normal -0.968581 -0.2487 0
    outer loop
      vertex 9.3511 12.1594 0
      vertex 9.03941 13.3733 6
      vertex 9.03941 13.3733 0
    endloop
  endfacet
  facet normal -0.968581 -0.2487 0
    outer loop
      vertex 9.3511 12.1594 0
      vertex 9.3511 12.1594 6
      vertex 9.03941 13.3733 6
    endloop
  endfacet
  facet normal -0.876302 -0.481763 0
    outer loop
      vertex 9.95491 11.0611 0
      vertex 9.3511 12.1594 6
      vertex 9.3511 12.1594 0
    endloop
  endfacet
  facet normal -0.876302 -0.481763 0
    outer loop
      vertex 9.95491 11.0611 0
      vertex 9.95491 11.0611 6
      vertex 9.3511 12.1594 6
    endloop
  endfacet
  facet normal -0.728981 -0.684534 0
    outer loop
      vertex 10.8129 10.1474 0
      vertex 9.95491 11.0611 6
      vertex 9.95491 11.0611 0
    endloop
  endfacet
  facet normal -0.728981 -0.684534 0
    outer loop
      vertex 10.8129 10.1474 0
      vertex 10.8129 10.1474 6
      vertex 9.95491 11.0611 6
    endloop
  endfacet
  facet normal -0.535819 -0.844333 0
    outer loop
      vertex 11.8711 9.47586 0
      vertex 10.8129 10.1474 6
      vertex 10.8129 10.1474 0
    endloop
  endfacet
  facet normal -0.535819 -0.844333 0
    outer loop
      vertex 11.8711 9.47586 0
      vertex 11.8711 9.47586 6
      vertex 10.8129 10.1474 6
    endloop
  endfacet
  facet normal -0.309014 -0.951058 0
    outer loop
      vertex 13.0631 9.08856 0
      vertex 11.8711 9.47586 6
      vertex 11.8711 9.47586 0
    endloop
  endfacet
  facet normal -0.309014 -0.951058 0
    outer loop
      vertex 13.0631 9.08856 0
      vertex 13.0631 9.08856 6
      vertex 11.8711 9.47586 6
    endloop
  endfacet
  facet normal -0.0627855 -0.998027 0
    outer loop
      vertex 14 9.02962 0
      vertex 13.0631 9.08856 6
      vertex 13.0631 9.08856 0
    endloop
  endfacet
  facet normal -0.0627855 -0.998027 0
    outer loop
      vertex 14 9.02962 0
      vertex 14 9.02962 6
      vertex 13.0631 9.08856 6
    endloop
  endfacet
  facet normal -1 0 0
    outer loop
      vertex 14 9 0
      vertex 14 9.02962 6
      vertex 14 9.02962 0
    endloop
  endfacet
  facet normal -1 0 0
    outer loop
      vertex 14 9 0
      vertex 14 9 6
      vertex 14 9.02962 6
    endloop
  endfacet
  facet normal 0 -1 0
    outer loop
      vertex 46 9 0
      vertex 14 9 6
      vertex 14 9 0
    endloop
  endfacet
  facet normal 0 -1 0
    outer loop
      vertex 46 9 0
      vertex 46 9 6
      vertex 14 9 6
    endloop
  endfacet
  facet normal 1 0 0
    outer loop
      vertex 46 9.02962 0
      vertex 46 9 6
      vertex 46 9 0
    endloop
  endfacet
  facet normal 1 0 -0
    outer loop
      vertex 46 9.02962 0
      vertex 46 9.02962 6
      vertex 46 9 6
    endloop
  endfacet
endsolid OpenSCAD_Model
