solid OpenSCAD_Model
  facet normal 0 0 -1
    outer loop
      vertex 9 31 0.2
      vertex 9.34999 30.65 0.2
      vertex 9 14 0.2
    endloop
  endfacet
  facet normal 0 0 -1
    outer loop
      vertex 9.34999 30.65 0.2
      vertex 9 31 0.2
      vertex 9.03941 31 0.2
    endloop
  endfacet
  facet normal 0 0 -1
    outer loop
      vertex 9.34999 30.65 0.2
      vertex 9.38942 31.2767 0.2
      vertex 9.38942 30.65 0.2
    endloop
  endfacet
  facet normal 0 0 -1
    outer loop
      vertex 9.38942 31.2767 0.2
      vertex 9.34999 30.65 0.2
      vertex 9.03941 31 0.2
    endloop
  endfacet
  facet normal 0 0 -1
    outer loop
      vertex 9 14 0.2
      vertex 9.34999 14.35 0.2
      vertex 9.03941 14 0.2
    endloop
  endfacet
  facet normal -0 0 -1
    outer loop
      vertex 9.34999 14.35 0.2
      vertex 9 14 0.2
      vertex 9.34999 30.65 0.2
    endloop
  endfacet
  facet normal -0 0 -1
    outer loop
      vertex 9.38942 31.2767 0.2
      vertex 9.03941 31 0.2
      vertex 9.03941 31.6267 0.2
    endloop
  endfacet
  facet normal 0 0 -1
    outer loop
      vertex 9.38942 31.2767 0.2
      vertex 9.03941 31.6267 0.2
      vertex 9.3511 32.8406 0.2
    endloop
  endfacet
  facet normal 0 0 -1
    outer loop
      vertex 14.35 35.6204 0.2
      vertex 14 35.9704 0.2
      vertex 14.35 35.65 0.2
    endloop
  endfacet
  facet normal 0 0 -1
    outer loop
      vertex 13.4131 35.5614 0.2
      vertex 14 35.9704 0.2
      vertex 14.35 35.6204 0.2
    endloop
  endfacet
  facet normal 0 0 -1
    outer loop
      vertex 13.4131 35.5614 0.2
      vertex 13.0631 35.9114 0.2
      vertex 14 35.9704 0.2
    endloop
  endfacet
  facet normal 0 0 -1
    outer loop
      vertex 12.2211 35.1741 0.2
      vertex 13.0631 35.9114 0.2
      vertex 13.4131 35.5614 0.2
    endloop
  endfacet
  facet normal 0 0 -1
    outer loop
      vertex 12.2211 35.1741 0.2
      vertex 11.8711 35.5241 0.2
      vertex 13.0631 35.9114 0.2
    endloop
  endfacet
  facet normal 0 0 -1
    outer loop
      vertex 11.1629 34.5026 0.2
      vertex 11.8711 35.5241 0.2
      vertex 12.2211 35.1741 0.2
    endloop
  endfacet
  facet normal 0 0 -1
    outer loop
      vertex 11.1629 34.5026 0.2
      vertex 10.8129 34.8526 0.2
      vertex 11.8711 35.5241 0.2
    endloop
  endfacet
  facet normal 0 0 -1
    outer loop
      vertex 9.95491 33.9389 0.2
      vertex 11.1629 34.5026 0.2
      vertex 10.3049 33.5889 0.2
    endloop
  endfacet
  facet normal -0 0 -1
    outer loop
      vertex 11.1629 34.5026 0.2
      vertex 9.95491 33.9389 0.2
      vertex 10.8129 34.8526 0.2
    endloop
  endfacet
  facet normal 0 0 -1
    outer loop
      vertex 9.3511 32.8406 0.2
      vertex 10.3049 33.5889 0.2
      vertex 9.70111 32.4906 0.2
    endloop
  endfacet
  facet normal 0 0 -1
    outer loop
      vertex 9.3511 32.8406 0.2
      vertex 9.70111 32.4906 0.2
      vertex 9.38942 31.2767 0.2
    endloop
  endfacet
  facet normal -0 0 -1
    outer loop
      vertex 10.3049 33.5889 0.2
      vertex 9.3511 32.8406 0.2
      vertex 9.95491 33.9389 0.2
    endloop
  endfacet
  facet normal 0 0 -1
    outer loop
      vertex 45.65 9.34999 0.2
      vertex 46 9.02962 0.2
      vertex 46 9 0.2
    endloop
  endfacet
  facet normal 0 0 -1
    outer loop
      vertex 46 9.02962 0.2
      vertex 45.65 9.34999 0.2
      vertex 45.9639 9.35986 0.2
    endloop
  endfacet
  facet normal 0 0 -1
    outer loop
      vertex 46 9 0.2
      vertex 14.35 9.34999 0.2
      vertex 45.65 9.34999 0.2
    endloop
  endfacet
  facet normal 0 0 -1
    outer loop
      vertex 14 9 0.2
      vertex 14.35 9.34999 0.2
      vertex 46 9 0.2
    endloop
  endfacet
  facet normal 0 0 -1
    outer loop
      vertex 14 9.02962 0.2
      vertex 14.35 9.34999 0.2
      vertex 14 9 0.2
    endloop
  endfacet
  facet normal -0 0 -1
    outer loop
      vertex 14.35 9.34999 0.2
      vertex 14 9.02962 0.2
      vertex 14.35 9.37961 0.2
    endloop
  endfacet
  facet normal 0 0 -1
    outer loop
      vertex 14 9.02962 0.2
      vertex 13.4131 9.43855 0.2
      vertex 14.35 9.37961 0.2
    endloop
  endfacet
  facet normal 0 0 -1
    outer loop
      vertex 13.0631 9.08856 0.2
      vertex 13.4131 9.43855 0.2
      vertex 14 9.02962 0.2
    endloop
  endfacet
  facet normal 0 0 -1
    outer loop
      vertex 13.0631 9.08856 0.2
      vertex 12.2211 9.82585 0.2
      vertex 13.4131 9.43855 0.2
    endloop
  endfacet
  facet normal 0 0 -1
    outer loop
      vertex 11.8711 9.47586 0.2
      vertex 12.2211 9.82585 0.2
      vertex 13.0631 9.08856 0.2
    endloop
  endfacet
  facet normal 0 0 -1
    outer loop
      vertex 11.8711 9.47586 0.2
      vertex 11.1629 10.4974 0.2
      vertex 12.2211 9.82585 0.2
    endloop
  endfacet
  facet normal 0 0 -1
    outer loop
      vertex 10.8129 10.1474 0.2
      vertex 11.1629 10.4974 0.2
      vertex 11.8711 9.47586 0.2
    endloop
  endfacet
  facet normal 0 0 -1
    outer loop
      vertex 9.95491 11.0611 0.2
      vertex 11.1629 10.4974 0.2
      vertex 10.8129 10.1474 0.2
    endloop
  endfacet
  facet normal 0 0 -1
    outer loop
      vertex 11.1629 10.4974 0.2
      vertex 9.95491 11.0611 0.2
      vertex 10.3049 11.4111 0.2
    endloop
  endfacet
  facet normal 0 0 -1
    outer loop
      vertex 9.3511 12.1594 0.2
      vertex 10.3049 11.4111 0.2
      vertex 9.95491 11.0611 0.2
    endloop
  endfacet
  facet normal 0 0 -1
    outer loop
      vertex 10.3049 11.4111 0.2
      vertex 9.3511 12.1594 0.2
      vertex 9.70111 12.5094 0.2
    endloop
  endfacet
  facet normal 0 0 -1
    outer loop
      vertex 9.03941 13.3733 0.2
      vertex 9.70111 12.5094 0.2
      vertex 9.3511 12.1594 0.2
    endloop
  endfacet
  facet normal 0 0 -1
    outer loop
      vertex 9.70111 12.5094 0.2
      vertex 9.03941 13.3733 0.2
      vertex 9.38942 13.7233 0.2
    endloop
  endfacet
  facet normal 0 0 -1
    outer loop
      vertex 9.03941 14 0.2
      vertex 9.38942 13.7233 0.2
      vertex 9.03941 13.3733 0.2
    endloop
  endfacet
  facet normal 0 0 -1
    outer loop
      vertex 9.38942 13.7233 0.2
      vertex 9.03941 14 0.2
      vertex 9.34999 14.35 0.2
    endloop
  endfacet
  facet normal 0 0 -1
    outer loop
      vertex 9.38942 13.7233 0.2
      vertex 9.34999 14.35 0.2
      vertex 9.38942 14.35 0.2
    endloop
  endfacet
  facet normal 0 0 -1
    outer loop
      vertex 50.4929 13.1065 0.2
      vertex 51 14 0.2
      vertex 50.8429 12.7565 0.2
    endloop
  endfacet
  facet normal 0 0 -1
    outer loop
      vertex 51 14 0.2
      vertex 50.65 14.35 0.2
      vertex 51 31 0.2
    endloop
  endfacet
  facet normal 0 0 -1
    outer loop
      vertex 50.65 30.65 0.2
      vertex 51 31 0.2
      vertex 50.65 14.35 0.2
    endloop
  endfacet
  facet normal -0 0 -1
    outer loop
      vertex 51 14 0.2
      vertex 50.4929 13.1065 0.2
      vertex 50.65 14.35 0.2
    endloop
  endfacet
  facet normal 0 0 -1
    outer loop
      vertex 50.0315 11.9412 0.2
      vertex 50.8429 12.7565 0.2
      vertex 50.3815 11.5912 0.2
    endloop
  endfacet
  facet normal -0 0 -1
    outer loop
      vertex 50.8429 12.7565 0.2
      vertex 50.0315 11.9412 0.2
      vertex 50.4929 13.1065 0.2
    endloop
  endfacet
  facet normal 0 0 -1
    outer loop
      vertex 49.2948 10.9273 0.2
      vertex 50.3815 11.5912 0.2
      vertex 49.6448 10.5773 0.2
    endloop
  endfacet
  facet normal -0 0 -1
    outer loop
      vertex 50.3815 11.5912 0.2
      vertex 49.2948 10.9273 0.2
      vertex 50.0315 11.9412 0.2
    endloop
  endfacet
  facet normal 0 0 -1
    outer loop
      vertex 48.6791 9.77835 0.2
      vertex 49.2948 10.9273 0.2
      vertex 49.6448 10.5773 0.2
    endloop
  endfacet
  facet normal 0 0 -1
    outer loop
      vertex 48.6791 9.77835 0.2
      vertex 48.3291 10.1284 0.2
      vertex 49.2948 10.9273 0.2
    endloop
  endfacet
  facet normal 0 0 -1
    outer loop
      vertex 47.5451 9.24471 0.2
      vertex 48.3291 10.1284 0.2
      vertex 48.6791 9.77835 0.2
    endloop
  endfacet
  facet normal 0 0 -1
    outer loop
      vertex 47.5451 9.24471 0.2
      vertex 47.1951 9.59471 0.2
      vertex 48.3291 10.1284 0.2
    endloop
  endfacet
  facet normal 0 0 -1
    outer loop
      vertex 46.3139 9.00986 0.2
      vertex 47.1951 9.59471 0.2
      vertex 47.5451 9.24471 0.2
    endloop
  endfacet
  facet normal 0 0 -1
    outer loop
      vertex 45.9639 9.35986 0.2
      vertex 46.3139 9.00986 0.2
      vertex 46 9.02962 0.2
    endloop
  endfacet
  facet normal 0 0 -1
    outer loop
      vertex 46.3139 9.00986 0.2
      vertex 45.9639 9.35986 0.2
      vertex 47.1951 9.59471 0.2
    endloop
  endfacet
  facet normal 0 0 -1
    outer loop
      vertex 50.4929 31.8934 0.2
      vertex 51 31 0.2
      vertex 50.65 30.65 0.2
    endloop
  endfacet
  facet normal 0 0 -1
    outer loop
      vertex 51 31 0.2
      vertex 50.4929 31.8934 0.2
      vertex 50.8429 32.2434 0.2
    endloop
  endfacet
  facet normal 0 0 -1
    outer loop
      vertex 50.0315 33.0588 0.2
      vertex 50.8429 32.2434 0.2
      vertex 50.4929 31.8934 0.2
    endloop
  endfacet
  facet normal 0 0 -1
    outer loop
      vertex 50.8429 32.2434 0.2
      vertex 50.0315 33.0588 0.2
      vertex 50.3815 33.4088 0.2
    endloop
  endfacet
  facet normal 0 0 -1
    outer loop
      vertex 49.2948 34.0727 0.2
      vertex 50.3815 33.4088 0.2
      vertex 50.0315 33.0588 0.2
    endloop
  endfacet
  facet normal 0 0 -1
    outer loop
      vertex 50.3815 33.4088 0.2
      vertex 49.2948 34.0727 0.2
      vertex 49.6448 34.4227 0.2
    endloop
  endfacet
  facet normal 0 0 -1
    outer loop
      vertex 49.2948 34.0727 0.2
      vertex 48.6791 35.2216 0.2
      vertex 49.6448 34.4227 0.2
    endloop
  endfacet
  facet normal 0 0 -1
    outer loop
      vertex 48.3291 34.8716 0.2
      vertex 48.6791 35.2216 0.2
      vertex 49.2948 34.0727 0.2
    endloop
  endfacet
  facet normal 0 0 -1
    outer loop
      vertex 48.3291 34.8716 0.2
      vertex 47.5451 35.7553 0.2
      vertex 48.6791 35.2216 0.2
    endloop
  endfacet
  facet normal 0 0 -1
    outer loop
      vertex 47.1951 35.4053 0.2
      vertex 47.5451 35.7553 0.2
      vertex 48.3291 34.8716 0.2
    endloop
  endfacet
  facet normal 0 0 -1
    outer loop
      vertex 47.1951 35.4053 0.2
      vertex 46.3139 35.9901 0.2
      vertex 47.5451 35.7553 0.2
    endloop
  endfacet
  facet normal 0 0 -1
    outer loop
      vertex 45.9639 35.6401 0.2
      vertex 46.3139 35.9901 0.2
      vertex 47.1951 35.4053 0.2
    endloop
  endfacet
  facet normal 0 0 -1
    outer loop
      vertex 46.3139 35.9901 0.2
      vertex 45.9639 35.6401 0.2
      vertex 46 35.9704 0.2
    endloop
  endfacet
  facet normal 0 0 -1
    outer loop
      vertex 45.65 35.65 0.2
      vertex 46 35.9704 0.2
      vertex 45.9639 35.6401 0.2
    endloop
  endfacet
  facet normal 0 0 -1
    outer loop
      vertex 45.65 35.65 0.2
      vertex 45.9639 35.6401 0.2
      vertex 45.65 35.6204 0.2
    endloop
  endfacet
  facet normal -0 0 -1
    outer loop
      vertex 46 35.9704 0.2
      vertex 45.65 35.65 0.2
      vertex 46 36 0.2
    endloop
  endfacet
  facet normal 0 0 -1
    outer loop
      vertex 14.35 35.65 0.2
      vertex 46 36 0.2
      vertex 45.65 35.65 0.2
    endloop
  endfacet
  facet normal 0 0 -1
    outer loop
      vertex 14 36 0.2
      vertex 14.35 35.65 0.2
      vertex 14 35.9704 0.2
    endloop
  endfacet
  facet normal 0 0 -1
    outer loop
      vertex 14.35 35.65 0.2
      vertex 14 36 0.2
      vertex 46 36 0.2
    endloop
  endfacet
  facet normal -0 0 -1
    outer loop
      vertex 45.9639 9.35986 0.2
      vertex 45.65 9.34999 0.2
      vertex 45.65 9.37961 0.2
    endloop
  endfacet
  facet normal -0 0 1
    outer loop
      vertex 9 31 6
      vertex 9.03941 14 6
      vertex 9.03941 31 6
    endloop
  endfacet
  facet normal 0 0 1
    outer loop
      vertex 9.03941 14 6
      vertex 9 31 6
      vertex 9 14 6
    endloop
  endfacet
  facet normal 0 0 1
    outer loop
      vertex 11.8711 35.5241 6
      vertex 14 35.9704 6
      vertex 13.0631 35.9114 6
    endloop
  endfacet
  facet normal 0 0 1
    outer loop
      vertex 14 35.9704 6
      vertex 9.03941 31 6
      vertex 14 9.02962 6
    endloop
  endfacet
  facet normal 0 0 1
    outer loop
      vertex 14 35.9704 6
      vertex 11.8711 35.5241 6
      vertex 9.03941 31 6
    endloop
  endfacet
  facet normal -0 0 1
    outer loop
      vertex 9.03941 14 6
      vertex 14 9.02962 6
      vertex 9.03941 31 6
    endloop
  endfacet
  facet normal 0 0 1
    outer loop
      vertex 9.03941 31 6
      vertex 11.8711 35.5241 6
      vertex 10.8129 34.8526 6
    endloop
  endfacet
  facet normal -0 -0 1
    outer loop
      vertex 11.8711 9.47586 6
      vertex 14 9.02962 6
      vertex 9.03941 14 6
    endloop
  endfacet
  facet normal 0 0 1
    outer loop
      vertex 9.03941 31 6
      vertex 10.8129 34.8526 6
      vertex 9.95491 33.9389 6
    endloop
  endfacet
  facet normal 0 0 1
    outer loop
      vertex 14 9.02962 6
      vertex 11.8711 9.47586 6
      vertex 13.0631 9.08856 6
    endloop
  endfacet
  facet normal 0 0 1
    outer loop
      vertex 9.03941 31 6
      vertex 9.95491 33.9389 6
      vertex 9.3511 32.8406 6
    endloop
  endfacet
  facet normal 0 0 1
    outer loop
      vertex 11.8711 9.47586 6
      vertex 9.03941 14 6
      vertex 10.8129 10.1474 6
    endloop
  endfacet
  facet normal 0 0 1
    outer loop
      vertex 9.03941 31 6
      vertex 9.3511 32.8406 6
      vertex 9.03941 31.6267 6
    endloop
  endfacet
  facet normal 0 0 1
    outer loop
      vertex 10.8129 10.1474 6
      vertex 9.03941 14 6
      vertex 9.95491 11.0611 6
    endloop
  endfacet
  facet normal 0 0 1
    outer loop
      vertex 9.95491 11.0611 6
      vertex 9.03941 14 6
      vertex 9.3511 12.1594 6
    endloop
  endfacet
  facet normal 0 0 1
    outer loop
      vertex 9.3511 12.1594 6
      vertex 9.03941 14 6
      vertex 9.03941 13.3733 6
    endloop
  endfacet
  facet normal 0 0 1
    outer loop
      vertex 14 35.9704 6
      vertex 46 35.9704 6
      vertex 46 36 6
    endloop
  endfacet
  facet normal 0 0 1
    outer loop
      vertex 46 35.9704 6
      vertex 14 35.9704 6
      vertex 46 9.02962 6
    endloop
  endfacet
  facet normal 0 0 1
    outer loop
      vertex 14 35.9704 6
      vertex 46 36 6
      vertex 14 36 6
    endloop
  endfacet
  facet normal 0 0 1
    outer loop
      vertex 14 9.02962 6
      vertex 46 9.02962 6
      vertex 14 35.9704 6
    endloop
  endfacet
  facet normal 0 0 1
    outer loop
      vertex 46 9.02962 6
      vertex 14 9.02962 6
      vertex 46 9 6
    endloop
  endfacet
  facet normal 0 0 1
    outer loop
      vertex 46 9 6
      vertex 14 9.02962 6
      vertex 14 9 6
    endloop
  endfacet
  facet normal 0 0 1
    outer loop
      vertex 46 35.9704 6
      vertex 51 31 6
      vertex 50.8429 32.2434 6
    endloop
  endfacet
  facet normal 0 0 1
    outer loop
      vertex 51 31 6
      vertex 46 35.9704 6
      vertex 51 14 6
    endloop
  endfacet
  facet normal 0 0 1
    outer loop
      vertex 46 35.9704 6
      vertex 50.8429 32.2434 6
      vertex 50.3815 33.4088 6
    endloop
  endfacet
  facet normal 0 0 1
    outer loop
      vertex 46 9.02962 6
      vertex 51 14 6
      vertex 46 35.9704 6
    endloop
  endfacet
  facet normal 0 0 1
    outer loop
      vertex 46 35.9704 6
      vertex 50.3815 33.4088 6
      vertex 49.6448 34.4227 6
    endloop
  endfacet
  facet normal 0 0 1
    outer loop
      vertex 51 14 6
      vertex 46 9.02962 6
      vertex 50.8429 12.7565 6
    endloop
  endfacet
  facet normal 0 0 1
    outer loop
      vertex 46 35.9704 6
      vertex 49.6448 34.4227 6
      vertex 48.6791 35.2216 6
    endloop
  endfacet
  facet normal 0 0 1
    outer loop
      vertex 50.8429 12.7565 6
      vertex 46 9.02962 6
      vertex 50.3815 11.5912 6
    endloop
  endfacet
  facet normal 0 0 1
    outer loop
      vertex 46 35.9704 6
      vertex 48.6791 35.2216 6
      vertex 47.5451 35.7553 6
    endloop
  endfacet
  facet normal 0 0 1
    outer loop
      vertex 50.3815 11.5912 6
      vertex 46 9.02962 6
      vertex 49.6448 10.5773 6
    endloop
  endfacet
  facet normal -0 0 1
    outer loop
      vertex 46 35.9704 6
      vertex 47.5451 35.7553 6
      vertex 46.3139 35.9901 6
    endloop
  endfacet
  facet normal 0 0 1
    outer loop
      vertex 49.6448 10.5773 6
      vertex 46 9.02962 6
      vertex 48.6791 9.77835 6
    endloop
  endfacet
  facet normal 0 0 1
    outer loop
      vertex 48.6791 9.77835 6
      vertex 46 9.02962 6
      vertex 47.5451 9.24471 6
    endloop
  endfacet
  facet normal 0 0 1
    outer loop
      vertex 47.5451 9.24471 6
      vertex 46 9.02962 6
      vertex 46.3139 9.00986 6
    endloop
  endfacet
  facet normal -0.0628256 -0.998025 0
    outer loop
      vertex 46 9.02962 0.2
      vertex 46.3139 9.00986 6
      vertex 46 9.02962 6
    endloop
  endfacet
  facet normal -0.0628256 -0.998025 -0
    outer loop
      vertex 46.3139 9.00986 6
      vertex 46 9.02962 0.2
      vertex 46.3139 9.00986 0.2
    endloop
  endfacet
  facet normal 0.187371 -0.982289 0
    outer loop
      vertex 46.3139 9.00986 0.2
      vertex 47.5451 9.24471 6
      vertex 46.3139 9.00986 6
    endloop
  endfacet
  facet normal 0.187371 -0.982289 0
    outer loop
      vertex 47.5451 9.24471 6
      vertex 46.3139 9.00986 0.2
      vertex 47.5451 9.24471 0.2
    endloop
  endfacet
  facet normal 0.425792 -0.904821 0
    outer loop
      vertex 47.5451 9.24471 0.2
      vertex 48.6791 9.77835 6
      vertex 47.5451 9.24471 6
    endloop
  endfacet
  facet normal 0.425792 -0.904821 0
    outer loop
      vertex 48.6791 9.77835 6
      vertex 47.5451 9.24471 0.2
      vertex 48.6791 9.77835 0.2
    endloop
  endfacet
  facet normal 0.637449 -0.770492 0
    outer loop
      vertex 48.6791 9.77835 0.2
      vertex 49.6448 10.5773 6
      vertex 48.6791 9.77835 6
    endloop
  endfacet
  facet normal 0.637449 -0.770492 0
    outer loop
      vertex 49.6448 10.5773 6
      vertex 48.6791 9.77835 0.2
      vertex 49.6448 10.5773 0.2
    endloop
  endfacet
  facet normal 0.808995 -0.587816 0
    outer loop
      vertex 49.6448 10.5773 6
      vertex 50.3815 11.5912 0.2
      vertex 50.3815 11.5912 6
    endloop
  endfacet
  facet normal 0.808995 -0.587816 0
    outer loop
      vertex 50.3815 11.5912 0.2
      vertex 49.6448 10.5773 6
      vertex 49.6448 10.5773 0.2
    endloop
  endfacet
  facet normal 0.92977 -0.368142 0
    outer loop
      vertex 50.3815 11.5912 6
      vertex 50.8429 12.7565 0.2
      vertex 50.8429 12.7565 6
    endloop
  endfacet
  facet normal 0.92977 -0.368142 0
    outer loop
      vertex 50.8429 12.7565 0.2
      vertex 50.3815 11.5912 6
      vertex 50.3815 11.5912 0.2
    endloop
  endfacet
  facet normal 0.992114 -0.125341 0
    outer loop
      vertex 50.8429 12.7565 6
      vertex 51 14 0.2
      vertex 51 14 6
    endloop
  endfacet
  facet normal 0.992114 -0.125341 0
    outer loop
      vertex 51 14 0.2
      vertex 50.8429 12.7565 6
      vertex 50.8429 12.7565 0.2
    endloop
  endfacet
  facet normal 1 -0 0
    outer loop
      vertex 51 14 6
      vertex 51 31 0.2
      vertex 51 31 6
    endloop
  endfacet
  facet normal 1 0 0
    outer loop
      vertex 51 31 0.2
      vertex 51 14 6
      vertex 51 14 0.2
    endloop
  endfacet
  facet normal 0.992113 0.125351 0
    outer loop
      vertex 51 31 6
      vertex 50.8429 32.2434 0.2
      vertex 50.8429 32.2434 6
    endloop
  endfacet
  facet normal 0.992113 0.125351 0
    outer loop
      vertex 50.8429 32.2434 0.2
      vertex 51 31 6
      vertex 51 31 0.2
    endloop
  endfacet
  facet normal 0.92978 0.368115 0
    outer loop
      vertex 50.8429 32.2434 6
      vertex 50.3815 33.4088 0.2
      vertex 50.3815 33.4088 6
    endloop
  endfacet
  facet normal 0.92978 0.368115 0
    outer loop
      vertex 50.3815 33.4088 0.2
      vertex 50.8429 32.2434 6
      vertex 50.8429 32.2434 0.2
    endloop
  endfacet
  facet normal 0.808995 0.587816 0
    outer loop
      vertex 50.3815 33.4088 6
      vertex 49.6448 34.4227 0.2
      vertex 49.6448 34.4227 6
    endloop
  endfacet
  facet normal 0.808995 0.587816 0
    outer loop
      vertex 49.6448 34.4227 0.2
      vertex 50.3815 33.4088 6
      vertex 50.3815 33.4088 0.2
    endloop
  endfacet
  facet normal 0.637426 0.770512 -0
    outer loop
      vertex 49.6448 34.4227 0.2
      vertex 48.6791 35.2216 6
      vertex 49.6448 34.4227 6
    endloop
  endfacet
  facet normal 0.637426 0.770512 0
    outer loop
      vertex 48.6791 35.2216 6
      vertex 49.6448 34.4227 0.2
      vertex 48.6791 35.2216 0.2
    endloop
  endfacet
  facet normal 0.425832 0.904802 -0
    outer loop
      vertex 48.6791 35.2216 0.2
      vertex 47.5451 35.7553 6
      vertex 48.6791 35.2216 6
    endloop
  endfacet
  facet normal 0.425832 0.904802 0
    outer loop
      vertex 47.5451 35.7553 6
      vertex 48.6791 35.2216 0.2
      vertex 47.5451 35.7553 0.2
    endloop
  endfacet
  facet normal 0.187332 0.982297 -0
    outer loop
      vertex 47.5451 35.7553 0.2
      vertex 46.3139 35.9901 6
      vertex 47.5451 35.7553 6
    endloop
  endfacet
  facet normal 0.187332 0.982297 0
    outer loop
      vertex 46.3139 35.9901 6
      vertex 47.5451 35.7553 0.2
      vertex 46.3139 35.9901 0.2
    endloop
  endfacet
  facet normal -0.0626356 0.998036 0
    outer loop
      vertex 46.3139 35.9901 0.2
      vertex 46 35.9704 6
      vertex 46.3139 35.9901 6
    endloop
  endfacet
  facet normal -0.0626356 0.998036 0
    outer loop
      vertex 46 35.9704 6
      vertex 46.3139 35.9901 0.2
      vertex 46 35.9704 0.2
    endloop
  endfacet
  facet normal 1 -0 0
    outer loop
      vertex 46 35.9704 6
      vertex 46 36 0.2
      vertex 46 36 6
    endloop
  endfacet
  facet normal 1 0 0
    outer loop
      vertex 46 36 0.2
      vertex 46 35.9704 6
      vertex 46 35.9704 0.2
    endloop
  endfacet
  facet normal 0 1 -0
    outer loop
      vertex 46 36 0.2
      vertex 14 36 6
      vertex 46 36 6
    endloop
  endfacet
  facet normal 0 1 0
    outer loop
      vertex 14 36 6
      vertex 46 36 0.2
      vertex 14 36 0.2
    endloop
  endfacet
  facet normal -1 0 0
    outer loop
      vertex 14 35.9704 0.2
      vertex 14 36 6
      vertex 14 36 0.2
    endloop
  endfacet
  facet normal -1 -0 0
    outer loop
      vertex 14 36 6
      vertex 14 35.9704 0.2
      vertex 14 35.9704 6
    endloop
  endfacet
  facet normal -0.0628491 0.998023 0
    outer loop
      vertex 14 35.9704 0.2
      vertex 13.0631 35.9114 6
      vertex 14 35.9704 6
    endloop
  endfacet
  facet normal -0.0628491 0.998023 0
    outer loop
      vertex 13.0631 35.9114 6
      vertex 14 35.9704 0.2
      vertex 13.0631 35.9114 0.2
    endloop
  endfacet
  facet normal -0.309014 0.951058 0
    outer loop
      vertex 13.0631 35.9114 0.2
      vertex 11.8711 35.5241 6
      vertex 13.0631 35.9114 6
    endloop
  endfacet
  facet normal -0.309014 0.951058 0
    outer loop
      vertex 11.8711 35.5241 6
      vertex 13.0631 35.9114 0.2
      vertex 11.8711 35.5241 0.2
    endloop
  endfacet
  facet normal -0.535796 0.844347 0
    outer loop
      vertex 11.8711 35.5241 0.2
      vertex 10.8129 34.8526 6
      vertex 11.8711 35.5241 6
    endloop
  endfacet
  facet normal -0.535796 0.844347 0
    outer loop
      vertex 10.8129 34.8526 6
      vertex 11.8711 35.5241 0.2
      vertex 10.8129 34.8526 0.2
    endloop
  endfacet
  facet normal -0.728981 0.684534 0
    outer loop
      vertex 9.95491 33.9389 0.2
      vertex 10.8129 34.8526 6
      vertex 10.8129 34.8526 0.2
    endloop
  endfacet
  facet normal -0.728981 0.684534 0
    outer loop
      vertex 10.8129 34.8526 6
      vertex 9.95491 33.9389 0.2
      vertex 9.95491 33.9389 6
    endloop
  endfacet
  facet normal -0.876302 0.481763 0
    outer loop
      vertex 9.3511 32.8406 0.2
      vertex 9.95491 33.9389 6
      vertex 9.95491 33.9389 0.2
    endloop
  endfacet
  facet normal -0.876302 0.481763 0
    outer loop
      vertex 9.95491 33.9389 6
      vertex 9.3511 32.8406 0.2
      vertex 9.3511 32.8406 6
    endloop
  endfacet
  facet normal -0.968581 0.2487 0
    outer loop
      vertex 9.03941 31.6267 0.2
      vertex 9.3511 32.8406 6
      vertex 9.3511 32.8406 0.2
    endloop
  endfacet
  facet normal -0.968581 0.2487 0
    outer loop
      vertex 9.3511 32.8406 6
      vertex 9.03941 31.6267 0.2
      vertex 9.03941 31.6267 6
    endloop
  endfacet
  facet normal -1 0 0
    outer loop
      vertex 9.03941 31 0.2
      vertex 9.03941 31.6267 6
      vertex 9.03941 31.6267 0.2
    endloop
  endfacet
  facet normal -1 -0 0
    outer loop
      vertex 9.03941 31.6267 6
      vertex 9.03941 31 0.2
      vertex 9.03941 31 6
    endloop
  endfacet
  facet normal 0 1 -0
    outer loop
      vertex 9.03941 31 0.2
      vertex 9 31 6
      vertex 9.03941 31 6
    endloop
  endfacet
  facet normal 0 1 0
    outer loop
      vertex 9 31 6
      vertex 9.03941 31 0.2
      vertex 9 31 0.2
    endloop
  endfacet
  facet normal -1 0 0
    outer loop
      vertex 9 14 0.2
      vertex 9 31 6
      vertex 9 31 0.2
    endloop
  endfacet
  facet normal -1 -0 0
    outer loop
      vertex 9 31 6
      vertex 9 14 0.2
      vertex 9 14 6
    endloop
  endfacet
  facet normal 0 -1 0
    outer loop
      vertex 9 14 0.2
      vertex 9.03941 14 6
      vertex 9 14 6
    endloop
  endfacet
  facet normal 0 -1 -0
    outer loop
      vertex 9.03941 14 6
      vertex 9 14 0.2
      vertex 9.03941 14 0.2
    endloop
  endfacet
  facet normal -1 0 0
    outer loop
      vertex 9.03941 13.3733 0.2
      vertex 9.03941 14 6
      vertex 9.03941 14 0.2
    endloop
  endfacet
  facet normal -1 -0 0
    outer loop
      vertex 9.03941 14 6
      vertex 9.03941 13.3733 0.2
      vertex 9.03941 13.3733 6
    endloop
  endfacet
  facet normal -0.968581 -0.2487 0
    outer loop
      vertex 9.3511 12.1594 0.2
      vertex 9.03941 13.3733 6
      vertex 9.03941 13.3733 0.2
    endloop
  endfacet
  facet normal -0.968581 -0.2487 0
    outer loop
      vertex 9.03941 13.3733 6
      vertex 9.3511 12.1594 0.2
      vertex 9.3511 12.1594 6
    endloop
  endfacet
  facet normal -0.876302 -0.481763 0
    outer loop
      vertex 9.95491 11.0611 0.2
      vertex 9.3511 12.1594 6
      vertex 9.3511 12.1594 0.2
    endloop
  endfacet
  facet normal -0.876302 -0.481763 0
    outer loop
      vertex 9.3511 12.1594 6
      vertex 9.95491 11.0611 0.2
      vertex 9.95491 11.0611 6
    endloop
  endfacet
  facet normal -0.728981 -0.684534 0
    outer loop
      vertex 10.8129 10.1474 0.2
      vertex 9.95491 11.0611 6
      vertex 9.95491 11.0611 0.2
    endloop
  endfacet
  facet normal -0.728981 -0.684534 0
    outer loop
      vertex 9.95491 11.0611 6
      vertex 10.8129 10.1474 0.2
      vertex 10.8129 10.1474 6
    endloop
  endfacet
  facet normal -0.535819 -0.844333 0
    outer loop
      vertex 10.8129 10.1474 0.2
      vertex 11.8711 9.47586 6
      vertex 10.8129 10.1474 6
    endloop
  endfacet
  facet normal -0.535819 -0.844333 -0
    outer loop
      vertex 11.8711 9.47586 6
      vertex 10.8129 10.1474 0.2
      vertex 11.8711 9.47586 0.2
    endloop
  endfacet
  facet normal -0.309014 -0.951058 0
    outer loop
      vertex 11.8711 9.47586 0.2
      vertex 13.0631 9.08856 6
      vertex 11.8711 9.47586 6
    endloop
  endfacet
  facet normal -0.309014 -0.951058 -0
    outer loop
      vertex 13.0631 9.08856 6
      vertex 11.8711 9.47586 0.2
      vertex 13.0631 9.08856 0.2
    endloop
  endfacet
  facet normal -0.0627855 -0.998027 0
    outer loop
      vertex 13.0631 9.08856 0.2
      vertex 14 9.02962 6
      vertex 13.0631 9.08856 6
    endloop
  endfacet
  facet normal -0.0627855 -0.998027 -0
    outer loop
      vertex 14 9.02962 6
      vertex 13.0631 9.08856 0.2
      vertex 14 9.02962 0.2
    endloop
  endfacet
  facet normal -1 0 0
    outer loop
      vertex 14 9 0.2
      vertex 14 9.02962 6
      vertex 14 9.02962 0.2
    endloop
  endfacet
  facet normal -1 -0 0
    outer loop
      vertex 14 9.02962 6
      vertex 14 9 0.2
      vertex 14 9 6
    endloop
  endfacet
  facet normal 0 -1 0
    outer loop
      vertex 14 9 0.2
      vertex 46 9 6
      vertex 14 9 6
    endloop
  endfacet
  facet normal 0 -1 -0
    outer loop
      vertex 46 9 6
      vertex 14 9 0.2
      vertex 46 9 0.2
    endloop
  endfacet
  facet normal 1 -0 0
    outer loop
      vertex 46 9 6
      vertex 46 9.02962 0.2
      vertex 46 9.02962 6
    endloop
  endfacet
  facet normal 1 0 0
    outer loop
      vertex 46 9.02962 0.2
      vertex 46 9 6
      vertex 46 9 0.2
    endloop
  endfacet
  facet normal 0 0 -1
    outer loop
      vertex 9.34999 14.35 0
      vertex 9.38942 30.65 0
      vertex 9.38942 14.35 0
    endloop
  endfacet
  facet normal -0 0 -1
    outer loop
      vertex 9.38942 30.65 0
      vertex 9.34999 14.35 0
      vertex 9.34999 30.65 0
    endloop
  endfacet
  facet normal 0 0 -1
    outer loop
      vertex 12.2211 9.82585 0
      vertex 14.35 9.37961 0
      vertex 13.4131 9.43855 0
    endloop
  endfacet
  facet normal 0 0 -1
    outer loop
      vertex 14.35 9.37961 0
      vertex 9.38942 14.35 0
      vertex 14.35 35.6204 0
    endloop
  endfacet
  facet normal 0 0 -1
    outer loop
      vertex 14.35 9.37961 0
      vertex 12.2211 9.82585 0
      vertex 9.38942 14.35 0
    endloop
  endfacet
  facet normal 0 0 -1
    outer loop
      vertex 9.38942 30.65 0
      vertex 14.35 35.6204 0
      vertex 9.38942 14.35 0
    endloop
  endfacet
  facet normal 0 0 -1
    outer loop
      vertex 9.38942 14.35 0
      vertex 12.2211 9.82585 0
      vertex 11.1629 10.4974 0
    endloop
  endfacet
  facet normal 0 -0 -1
    outer loop
      vertex 12.2211 35.1741 0
      vertex 14.35 35.6204 0
      vertex 9.38942 30.65 0
    endloop
  endfacet
  facet normal 0 0 -1
    outer loop
      vertex 9.38942 14.35 0
      vertex 11.1629 10.4974 0
      vertex 10.3049 11.4111 0
    endloop
  endfacet
  facet normal 0 0 -1
    outer loop
      vertex 14.35 35.6204 0
      vertex 12.2211 35.1741 0
      vertex 13.4131 35.5614 0
    endloop
  endfacet
  facet normal 0 0 -1
    outer loop
      vertex 9.38942 14.35 0
      vertex 10.3049 11.4111 0
      vertex 9.70111 12.5094 0
    endloop
  endfacet
  facet normal 0 0 -1
    outer loop
      vertex 12.2211 35.1741 0
      vertex 9.38942 30.65 0
      vertex 11.1629 34.5026 0
    endloop
  endfacet
  facet normal 0 0 -1
    outer loop
      vertex 9.38942 14.35 0
      vertex 9.70111 12.5094 0
      vertex 9.38942 13.7233 0
    endloop
  endfacet
  facet normal 0 0 -1
    outer loop
      vertex 11.1629 34.5026 0
      vertex 9.38942 30.65 0
      vertex 10.3049 33.5889 0
    endloop
  endfacet
  facet normal 0 0 -1
    outer loop
      vertex 10.3049 33.5889 0
      vertex 9.38942 30.65 0
      vertex 9.70111 32.4906 0
    endloop
  endfacet
  facet normal 0 0 -1
    outer loop
      vertex 9.70111 32.4906 0
      vertex 9.38942 30.65 0
      vertex 9.38942 31.2767 0
    endloop
  endfacet
  facet normal 0 0 -1
    outer loop
      vertex 14.35 9.37961 0
      vertex 45.65 9.37961 0
      vertex 45.65 9.34999 0
    endloop
  endfacet
  facet normal 0 0 -1
    outer loop
      vertex 45.65 9.37961 0
      vertex 14.35 9.37961 0
      vertex 45.65 35.6204 0
    endloop
  endfacet
  facet normal 0 0 -1
    outer loop
      vertex 14.35 9.37961 0
      vertex 45.65 9.34999 0
      vertex 14.35 9.34999 0
    endloop
  endfacet
  facet normal 0 0 -1
    outer loop
      vertex 14.35 35.6204 0
      vertex 45.65 35.6204 0
      vertex 14.35 9.37961 0
    endloop
  endfacet
  facet normal 0 0 -1
    outer loop
      vertex 45.65 35.6204 0
      vertex 14.35 35.6204 0
      vertex 45.65 35.65 0
    endloop
  endfacet
  facet normal -0 0 -1
    outer loop
      vertex 45.65 35.65 0
      vertex 14.35 35.6204 0
      vertex 14.35 35.65 0
    endloop
  endfacet
  facet normal 0 0 -1
    outer loop
      vertex 45.65 9.37961 0
      vertex 50.65 14.35 0
      vertex 50.4929 13.1065 0
    endloop
  endfacet
  facet normal -0 0 -1
    outer loop
      vertex 50.65 14.35 0
      vertex 45.65 9.37961 0
      vertex 50.65 30.65 0
    endloop
  endfacet
  facet normal 0 0 -1
    outer loop
      vertex 45.65 9.37961 0
      vertex 50.4929 13.1065 0
      vertex 50.0315 11.9412 0
    endloop
  endfacet
  facet normal 0 0 -1
    outer loop
      vertex 45.65 35.6204 0
      vertex 50.65 30.65 0
      vertex 45.65 9.37961 0
    endloop
  endfacet
  facet normal 0 0 -1
    outer loop
      vertex 45.65 9.37961 0
      vertex 50.0315 11.9412 0
      vertex 49.2948 10.9273 0
    endloop
  endfacet
  facet normal 0 0 -1
    outer loop
      vertex 50.65 30.65 0
      vertex 45.65 35.6204 0
      vertex 50.4929 31.8934 0
    endloop
  endfacet
  facet normal 0 0 -1
    outer loop
      vertex 45.65 9.37961 0
      vertex 49.2948 10.9273 0
      vertex 48.3291 10.1284 0
    endloop
  endfacet
  facet normal 0 0 -1
    outer loop
      vertex 50.4929 31.8934 0
      vertex 45.65 35.6204 0
      vertex 50.0315 33.0588 0
    endloop
  endfacet
  facet normal 0 0 -1
    outer loop
      vertex 45.65 9.37961 0
      vertex 48.3291 10.1284 0
      vertex 47.1951 9.59471 0
    endloop
  endfacet
  facet normal 0 0 -1
    outer loop
      vertex 50.0315 33.0588 0
      vertex 45.65 35.6204 0
      vertex 49.2948 34.0727 0
    endloop
  endfacet
  facet normal 0 0 -1
    outer loop
      vertex 45.65 9.37961 0
      vertex 47.1951 9.59471 0
      vertex 45.9639 9.35986 0
    endloop
  endfacet
  facet normal 0 0 -1
    outer loop
      vertex 49.2948 34.0727 0
      vertex 45.65 35.6204 0
      vertex 48.3291 34.8716 0
    endloop
  endfacet
  facet normal 0 0 -1
    outer loop
      vertex 48.3291 34.8716 0
      vertex 45.65 35.6204 0
      vertex 47.1951 35.4053 0
    endloop
  endfacet
  facet normal 0 0 -1
    outer loop
      vertex 47.1951 35.4053 0
      vertex 45.65 35.6204 0
      vertex 45.9639 35.6401 0
    endloop
  endfacet
  facet normal -0.062794 -0.998027 0
    outer loop
      vertex 45.65 9.37961 0
      vertex 45.9639 9.35986 0.2
      vertex 45.65 9.37961 0.2
    endloop
  endfacet
  facet normal -0.062794 -0.998027 -0
    outer loop
      vertex 45.9639 9.35986 0.2
      vertex 45.65 9.37961 0
      vertex 45.9639 9.35986 0
    endloop
  endfacet
  facet normal 0.187371 -0.982289 0
    outer loop
      vertex 45.9639 9.35986 0
      vertex 47.1951 9.59471 0.2
      vertex 45.9639 9.35986 0.2
    endloop
  endfacet
  facet normal 0.187371 -0.982289 0
    outer loop
      vertex 47.1951 9.59471 0.2
      vertex 45.9639 9.35986 0
      vertex 47.1951 9.59471 0
    endloop
  endfacet
  facet normal 0.425825 -0.904806 0
    outer loop
      vertex 47.1951 9.59471 0
      vertex 48.3291 10.1284 0.2
      vertex 47.1951 9.59471 0.2
    endloop
  endfacet
  facet normal 0.425825 -0.904806 0
    outer loop
      vertex 48.3291 10.1284 0.2
      vertex 47.1951 9.59471 0
      vertex 48.3291 10.1284 0
    endloop
  endfacet
  facet normal 0.637426 -0.770512 0
    outer loop
      vertex 48.3291 10.1284 0
      vertex 49.2948 10.9273 0.2
      vertex 48.3291 10.1284 0.2
    endloop
  endfacet
  facet normal 0.637426 -0.770512 0
    outer loop
      vertex 49.2948 10.9273 0.2
      vertex 48.3291 10.1284 0
      vertex 49.2948 10.9273 0
    endloop
  endfacet
  facet normal 0.808995 -0.587816 0
    outer loop
      vertex 49.2948 10.9273 0.2
      vertex 50.0315 11.9412 0
      vertex 50.0315 11.9412 0.2
    endloop
  endfacet
  facet normal 0.808995 -0.587816 0
    outer loop
      vertex 50.0315 11.9412 0
      vertex 49.2948 10.9273 0.2
      vertex 49.2948 10.9273 0
    endloop
  endfacet
  facet normal 0.92977 -0.368142 0
    outer loop
      vertex 50.0315 11.9412 0.2
      vertex 50.4929 13.1065 0
      vertex 50.4929 13.1065 0.2
    endloop
  endfacet
  facet normal 0.92977 -0.368142 0
    outer loop
      vertex 50.4929 13.1065 0
      vertex 50.0315 11.9412 0.2
      vertex 50.0315 11.9412 0
    endloop
  endfacet
  facet normal 0.992114 -0.125341 0
    outer loop
      vertex 50.4929 13.1065 0.2
      vertex 50.65 14.35 0
      vertex 50.65 14.35 0.2
    endloop
  endfacet
  facet normal 0.992114 -0.125341 0
    outer loop
      vertex 50.65 14.35 0
      vertex 50.4929 13.1065 0.2
      vertex 50.4929 13.1065 0
    endloop
  endfacet
  facet normal 1 -0 0
    outer loop
      vertex 50.65 14.35 0.2
      vertex 50.65 30.65 0
      vertex 50.65 30.65 0.2
    endloop
  endfacet
  facet normal 1 0 0
    outer loop
      vertex 50.65 30.65 0
      vertex 50.65 14.35 0.2
      vertex 50.65 14.35 0
    endloop
  endfacet
  facet normal 0.992113 0.125351 0
    outer loop
      vertex 50.65 30.65 0.2
      vertex 50.4929 31.8934 0
      vertex 50.4929 31.8934 0.2
    endloop
  endfacet
  facet normal 0.992113 0.125351 0
    outer loop
      vertex 50.4929 31.8934 0
      vertex 50.65 30.65 0.2
      vertex 50.65 30.65 0
    endloop
  endfacet
  facet normal 0.92978 0.368115 0
    outer loop
      vertex 50.4929 31.8934 0.2
      vertex 50.0315 33.0588 0
      vertex 50.0315 33.0588 0.2
    endloop
  endfacet
  facet normal 0.92978 0.368115 0
    outer loop
      vertex 50.0315 33.0588 0
      vertex 50.4929 31.8934 0.2
      vertex 50.4929 31.8934 0
    endloop
  endfacet
  facet normal 0.808995 0.587816 0
    outer loop
      vertex 50.0315 33.0588 0.2
      vertex 49.2948 34.0727 0
      vertex 49.2948 34.0727 0.2
    endloop
  endfacet
  facet normal 0.808995 0.587816 0
    outer loop
      vertex 49.2948 34.0727 0
      vertex 50.0315 33.0588 0.2
      vertex 50.0315 33.0588 0
    endloop
  endfacet
  facet normal 0.637426 0.770512 -0
    outer loop
      vertex 49.2948 34.0727 0
      vertex 48.3291 34.8716 0.2
      vertex 49.2948 34.0727 0.2
    endloop
  endfacet
  facet normal 0.637426 0.770512 0
    outer loop
      vertex 48.3291 34.8716 0.2
      vertex 49.2948 34.0727 0
      vertex 48.3291 34.8716 0
    endloop
  endfacet
  facet normal 0.425832 0.904802 -0
    outer loop
      vertex 48.3291 34.8716 0
      vertex 47.1951 35.4053 0.2
      vertex 48.3291 34.8716 0.2
    endloop
  endfacet
  facet normal 0.425832 0.904802 0
    outer loop
      vertex 47.1951 35.4053 0.2
      vertex 48.3291 34.8716 0
      vertex 47.1951 35.4053 0
    endloop
  endfacet
  facet normal 0.187332 0.982297 -0
    outer loop
      vertex 47.1951 35.4053 0
      vertex 45.9639 35.6401 0.2
      vertex 47.1951 35.4053 0.2
    endloop
  endfacet
  facet normal 0.187332 0.982297 0
    outer loop
      vertex 45.9639 35.6401 0.2
      vertex 47.1951 35.4053 0
      vertex 45.9639 35.6401 0
    endloop
  endfacet
  facet normal -0.0626356 0.998036 0
    outer loop
      vertex 45.9639 35.6401 0
      vertex 45.65 35.6204 0.2
      vertex 45.9639 35.6401 0.2
    endloop
  endfacet
  facet normal -0.0626356 0.998036 0
    outer loop
      vertex 45.65 35.6204 0.2
      vertex 45.9639 35.6401 0
      vertex 45.65 35.6204 0
    endloop
  endfacet
  facet normal 1 -0 0
    outer loop
      vertex 45.65 35.6204 0.2
      vertex 45.65 35.65 0
      vertex 45.65 35.65 0.2
    endloop
  endfacet
  facet normal 1 0 0
    outer loop
      vertex 45.65 35.65 0
      vertex 45.65 35.6204 0.2
      vertex 45.65 35.6204 0
    endloop
  endfacet
  facet normal 0 1 -0
    outer loop
      vertex 45.65 35.65 0
      vertex 14.35 35.65 0.2
      vertex 45.65 35.65 0.2
    endloop
  endfacet
  facet normal 0 1 0
    outer loop
      vertex 14.35 35.65 0.2
      vertex 45.65 35.65 0
      vertex 14.35 35.65 0
    endloop
  endfacet
  facet normal -1 0 0
    outer loop
      vertex 14.35 35.6204 0
      vertex 14.35 35.65 0.2
      vertex 14.35 35.65 0
    endloop
  endfacet
  facet normal -1 -0 0
    outer loop
      vertex 14.35 35.65 0.2
      vertex 14.35 35.6204 0
      vertex 14.35 35.6204 0.2
    endloop
  endfacet
  facet normal -0.0628491 0.998023 0
    outer loop
      vertex 14.35 35.6204 0
      vertex 13.4131 35.5614 0.2
      vertex 14.35 35.6204 0.2
    endloop
  endfacet
  facet normal -0.0628491 0.998023 0
    outer loop
      vertex 13.4131 35.5614 0.2
      vertex 14.35 35.6204 0
      vertex 13.4131 35.5614 0
    endloop
  endfacet
  facet normal -0.309014 0.951058 0
    outer loop
      vertex 13.4131 35.5614 0
      vertex 12.2211 35.1741 0.2
      vertex 13.4131 35.5614 0.2
    endloop
  endfacet
  facet normal -0.309014 0.951058 0
    outer loop
      vertex 12.2211 35.1741 0.2
      vertex 13.4131 35.5614 0
      vertex 12.2211 35.1741 0
    endloop
  endfacet
  facet normal -0.535796 0.844347 0
    outer loop
      vertex 12.2211 35.1741 0
      vertex 11.1629 34.5026 0.2
      vertex 12.2211 35.1741 0.2
    endloop
  endfacet
  facet normal -0.535796 0.844347 0
    outer loop
      vertex 11.1629 34.5026 0.2
      vertex 12.2211 35.1741 0
      vertex 11.1629 34.5026 0
    endloop
  endfacet
  facet normal -0.728977 0.684538 0
    outer loop
      vertex 10.3049 33.5889 0
      vertex 11.1629 34.5026 0.2
      vertex 11.1629 34.5026 0
    endloop
  endfacet
  facet normal -0.728977 0.684538 0
    outer loop
      vertex 11.1629 34.5026 0.2
      vertex 10.3049 33.5889 0
      vertex 10.3049 33.5889 0.2
    endloop
  endfacet
  facet normal -0.876309 0.48175 0
    outer loop
      vertex 9.70111 32.4906 0
      vertex 10.3049 33.5889 0.2
      vertex 10.3049 33.5889 0
    endloop
  endfacet
  facet normal -0.876309 0.48175 0
    outer loop
      vertex 10.3049 33.5889 0.2
      vertex 9.70111 32.4906 0
      vertex 9.70111 32.4906 0.2
    endloop
  endfacet
  facet normal -0.968581 0.2487 0
    outer loop
      vertex 9.38942 31.2767 0
      vertex 9.70111 32.4906 0.2
      vertex 9.70111 32.4906 0
    endloop
  endfacet
  facet normal -0.968581 0.2487 0
    outer loop
      vertex 9.70111 32.4906 0.2
      vertex 9.38942 31.2767 0
      vertex 9.38942 31.2767 0.2
    endloop
  endfacet
  facet normal -1 0 0
    outer loop
      vertex 9.38942 30.65 0
      vertex 9.38942 31.2767 0.2
      vertex 9.38942 31.2767 0
    endloop
  endfacet
  facet normal -1 -0 0
    outer loop
      vertex 9.38942 31.2767 0.2
      vertex 9.38942 30.65 0
      vertex 9.38942 30.65 0.2
    endloop
  endfacet
  facet normal 0 1 -0
    outer loop
      vertex 9.38942 30.65 0
      vertex 9.34999 30.65 0.2
      vertex 9.38942 30.65 0.2
    endloop
  endfacet
  facet normal 0 1 0
    outer loop
      vertex 9.34999 30.65 0.2
      vertex 9.38942 30.65 0
      vertex 9.34999 30.65 0
    endloop
  endfacet
  facet normal -1 0 0
    outer loop
      vertex 9.34999 14.35 0
      vertex 9.34999 30.65 0.2
      vertex 9.34999 30.65 0
    endloop
  endfacet
  facet normal -1 -0 0
    outer loop
      vertex 9.34999 30.65 0.2
      vertex 9.34999 14.35 0
      vertex 9.34999 14.35 0.2
    endloop
  endfacet
  facet normal 0 -1 0
    outer loop
      vertex 9.34999 14.35 0
      vertex 9.38942 14.35 0.2
      vertex 9.34999 14.35 0.2
    endloop
  endfacet
  facet normal 0 -1 -0
    outer loop
      vertex 9.38942 14.35 0.2
      vertex 9.34999 14.35 0
      vertex 9.38942 14.35 0
    endloop
  endfacet
  facet normal -1 0 0
    outer loop
      vertex 9.38942 13.7233 0
      vertex 9.38942 14.35 0.2
      vertex 9.38942 14.35 0
    endloop
  endfacet
  facet normal -1 -0 0
    outer loop
      vertex 9.38942 14.35 0.2
      vertex 9.38942 13.7233 0
      vertex 9.38942 13.7233 0.2
    endloop
  endfacet
  facet normal -0.968581 -0.2487 0
    outer loop
      vertex 9.70111 12.5094 0
      vertex 9.38942 13.7233 0.2
      vertex 9.38942 13.7233 0
    endloop
  endfacet
  facet normal -0.968581 -0.2487 0
    outer loop
      vertex 9.38942 13.7233 0.2
      vertex 9.70111 12.5094 0
      vertex 9.70111 12.5094 0.2
    endloop
  endfacet
  facet normal -0.876309 -0.48175 0
    outer loop
      vertex 10.3049 11.4111 0
      vertex 9.70111 12.5094 0.2
      vertex 9.70111 12.5094 0
    endloop
  endfacet
  facet normal -0.876309 -0.48175 0
    outer loop
      vertex 9.70111 12.5094 0.2
      vertex 10.3049 11.4111 0
      vertex 10.3049 11.4111 0.2
    endloop
  endfacet
  facet normal -0.728977 -0.684538 0
    outer loop
      vertex 11.1629 10.4974 0
      vertex 10.3049 11.4111 0.2
      vertex 10.3049 11.4111 0
    endloop
  endfacet
  facet normal -0.728977 -0.684538 0
    outer loop
      vertex 10.3049 11.4111 0.2
      vertex 11.1629 10.4974 0
      vertex 11.1629 10.4974 0.2
    endloop
  endfacet
  facet normal -0.535824 -0.844329 0
    outer loop
      vertex 11.1629 10.4974 0
      vertex 12.2211 9.82585 0.2
      vertex 11.1629 10.4974 0.2
    endloop
  endfacet
  facet normal -0.535824 -0.844329 -0
    outer loop
      vertex 12.2211 9.82585 0.2
      vertex 11.1629 10.4974 0
      vertex 12.2211 9.82585 0
    endloop
  endfacet
  facet normal -0.309014 -0.951058 0
    outer loop
      vertex 12.2211 9.82585 0
      vertex 13.4131 9.43855 0.2
      vertex 12.2211 9.82585 0.2
    endloop
  endfacet
  facet normal -0.309014 -0.951058 -0
    outer loop
      vertex 13.4131 9.43855 0.2
      vertex 12.2211 9.82585 0
      vertex 13.4131 9.43855 0
    endloop
  endfacet
  facet normal -0.0627855 -0.998027 0
    outer loop
      vertex 13.4131 9.43855 0
      vertex 14.35 9.37961 0.2
      vertex 13.4131 9.43855 0.2
    endloop
  endfacet
  facet normal -0.0627855 -0.998027 -0
    outer loop
      vertex 14.35 9.37961 0.2
      vertex 13.4131 9.43855 0
      vertex 14.35 9.37961 0
    endloop
  endfacet
  facet normal -1 0 0
    outer loop
      vertex 14.35 9.34999 0
      vertex 14.35 9.37961 0.2
      vertex 14.35 9.37961 0
    endloop
  endfacet
  facet normal -1 -0 0
    outer loop
      vertex 14.35 9.37961 0.2
      vertex 14.35 9.34999 0
      vertex 14.35 9.34999 0.2
    endloop
  endfacet
  facet normal 0 -1 0
    outer loop
      vertex 14.35 9.34999 0
      vertex 45.65 9.34999 0.2
      vertex 14.35 9.34999 0.2
    endloop
  endfacet
  facet normal 0 -1 -0
    outer loop
      vertex 45.65 9.34999 0.2
      vertex 14.35 9.34999 0
      vertex 45.65 9.34999 0
    endloop
  endfacet
  facet normal 1 -0 0
    outer loop
      vertex 45.65 9.34999 0.2
      vertex 45.65 9.37961 0
      vertex 45.65 9.37961 0.2
    endloop
  endfacet
  facet normal 1 0 0
    outer loop
      vertex 45.65 9.37961 0
      vertex 45.65 9.34999 0.2
      vertex 45.65 9.34999 0
    endloop
  endfacet
endsolid OpenSCAD_Model
