  0
SECTION
  2
HEADER
  9
$ACADVER
  1
AC1021
  9
$ACADMAINTVER
 70
    25
  9
$DWGCODEPAGE
  3
ANSI_1252
  9
$INSBASE
 10
0.0
 20
0.0
 30
0.0
  9
$EXTMIN
 10
-14.17647
 20
-26.52647
 30
0.0
  9
$EXTMAX
 10
-6.82353
 20
-3.17353
 30
0.0
  9
$LIMMIN
 10
0.0
 20
0.0
  9
$LIMMAX
 10
12.0
 20
9.0
  9
$ORTHOMODE
 70
     0
  9
$REGENMODE
 70
     1
  9
$FILLMODE
 70
     1
  9
$QTEXTMODE
 70
     0
  9
$MIRRTEXT
 70
     1
  9
$LTSCALE
 40
1.0
  9
$ATTMODE
 70
     1
  9
$TEXTSIZE
 40
0.2
  9
$TRACEWID
 40
0.05
  9
$TEXTSTYLE
  7
Standard
  9
$CLAYER
  8
0
  9
$CELTYPE
  6
ByLayer
  9
$CECOLOR
 62
   256
  9
$CELTSCALE
 40
1.0
  9
$DISPSILH
 70
     0
  9
$DIMSCALE
 40
1.0
  9
$DIMASZ
 40
0.18
  9
$DIMEXO
 40
0.0625
  9
$DIMDLI
 40
0.38
  9
$DIMRND
 40
0.0
  9
$DIMDLE
 40
0.0
  9
$DIMEXE
 40
0.18
  9
$DIMTP
 40
0.0
  9
$DIMTM
 40
0.0
  9
$DIMTXT
 40
0.18
  9
$DIMCEN
 40
0.09
  9
$DIMTSZ
 40
0.0
  9
$DIMTOL
 70
     0
  9
$DIMLIM
 70
     0
  9
$DIMTIH
 70
     1
  9
$DIMTOH
 70
     1
  9
$DIMSE1
 70
     0
  9
$DIMSE2
 70
     0
  9
$DIMTAD
 70
     0
  9
$DIMZIN
 70
     0
  9
$DIMBLK
  1

  9
$DIMASO
 70
     1
  9
$DIMSHO
 70
     1
  9
$DIMPOST
  1

  9
$DIMAPOST
  1

  9
$DIMALT
 70
     0
  9
$DIMALTD
 70
     2
  9
$DIMALTF
 40
25.4
  9
$DIMLFAC
 40
1.0
  9
$DIMTOFL
 70
     0
  9
$DIMTVP
 40
0.0
  9
$DIMTIX
 70
     0
  9
$DIMSOXD
 70
     0
  9
$DIMSAH
 70
     0
  9
$DIMBLK1
  1

  9
$DIMBLK2
  1

  9
$DIMSTYLE
  2
Standard
  9
$DIMCLRD
 70
     0
  9
$DIMCLRE
 70
     0
  9
$DIMCLRT
 70
     0
  9
$DIMTFAC
 40
1.0
  9
$DIMGAP
 40
0.09
  9
$DIMJUST
 70
     0
  9
$DIMSD1
 70
     0
  9
$DIMSD2
 70
     0
  9
$DIMTOLJ
 70
     1
  9
$DIMTZIN
 70
     0
  9
$DIMALTZ
 70
     0
  9
$DIMALTTZ
 70
     0
  9
$DIMUPT
 70
     0
  9
$DIMDEC
 70
     4
  9
$DIMTDEC
 70
     4
  9
$DIMALTU
 70
     2
  9
$DIMALTTD
 70
     2
  9
$DIMTXSTY
  7
Standard
  9
$DIMAUNIT
 70
     0
  9
$DIMADEC
 70
     0
  9
$DIMALTRND
 40
0.0
  9
$DIMAZIN
 70
     0
  9
$DIMDSEP
 70
    46
  9
$DIMATFIT
 70
     3
  9
$DIMFRAC
 70
     0
  9
$DIMLDRBLK
  1

  9
$DIMLUNIT
 70
     2
  9
$DIMLWD
 70
    -2
  9
$DIMLWE
 70
    -2
  9
$DIMTMOVE
 70
     0
  9
$DIMFXL
 40
1.0
  9
$DIMFXLON
 70
     0
  9
$DIMJOGANG
 40
0.7853981633974483
  9
$DIMTFILL
 70
     0
  9
$DIMTFILLCLR
 70
     0
  9
$DIMARCSYM
 70
     0
  9
$DIMLTYPE
  6

  9
$DIMLTEX1
  6

  9
$DIMLTEX2
  6

  9
$LUNITS
 70
     2
  9
$LUPREC
 70
     4
  9
$SKETCHINC
 40
0.1
  9
$FILLETRAD
 40
0.5
  9
$AUNITS
 70
     0
  9
$AUPREC
 70
     0
  9
$MENU
  1
.
  9
$ELEVATION
 40
0.0
  9
$PELEVATION
 40
0.0
  9
$THICKNESS
 40
0.0
  9
$LIMCHECK
 70
     0
  9
$CHAMFERA
 40
0.5
  9
$CHAMFERB
 40
0.5
  9
$CHAMFERC
 40
1.0
  9
$CHAMFERD
 40
0.0
  9
$SKPOLY
 70
     0
  9
$TDCREATE
 40
2456974.252581378
  9
$TDUCREATE
 40
2456974.252581378
  9
$TDUPDATE
 40
2456974.252581389
  9
$TDUUPDATE
 40
2456974.252581389
  9
$TDINDWG
 40
0.0000000116
  9
$TDUSRTIMER
 40
0.0000000116
  9
$USRTIMER
 70
     1
  9
$ANGBASE
 50
0.0
  9
$ANGDIR
 70
     0
  9
$PDMODE
 70
     0
  9
$PDSIZE
 40
0.0
  9
$PLINEWID
 40
0.0
  9
$SPLFRAME
 70
     0
  9
$SPLINETYPE
 70
     6
  9
$SPLINESEGS
 70
     8
  9
$HANDSEED
  5
9E
  9
$SURFTAB1
 70
     6
  9
$SURFTAB2
 70
     6
  9
$SURFTYPE
 70
     6
  9
$SURFU
 70
     6
  9
$SURFV
 70
     6
  9
$UCSBASE
  2

  9
$UCSNAME
  2

  9
$UCSORG
 10
0.0
 20
0.0
 30
0.0
  9
$UCSXDIR
 10
1.0
 20
0.0
 30
0.0
  9
$UCSYDIR
 10
0.0
 20
1.0
 30
0.0
  9
$UCSORTHOREF
  2

  9
$UCSORTHOVIEW
 70
     0
  9
$UCSORGTOP
 10
0.0
 20
0.0
 30
0.0
  9
$UCSORGBOTTOM
 10
0.0
 20
0.0
 30
0.0
  9
$UCSORGLEFT
 10
0.0
 20
0.0
 30
0.0
  9
$UCSORGRIGHT
 10
0.0
 20
0.0
 30
0.0
  9
$UCSORGFRONT
 10
0.0
 20
0.0
 30
0.0
  9
$UCSORGBACK
 10
0.0
 20
0.0
 30
0.0
  9
$PUCSBASE
  2

  9
$PUCSNAME
  2

  9
$PUCSORG
 10
0.0
 20
0.0
 30
0.0
  9
$PUCSXDIR
 10
1.0
 20
0.0
 30
0.0
  9
$PUCSYDIR
 10
0.0
 20
1.0
 30
0.0
  9
$PUCSORTHOREF
  2

  9
$PUCSORTHOVIEW
 70
     0
  9
$PUCSORGTOP
 10
0.0
 20
0.0
 30
0.0
  9
$PUCSORGBOTTOM
 10
0.0
 20
0.0
 30
0.0
  9
$PUCSORGLEFT
 10
0.0
 20
0.0
 30
0.0
  9
$PUCSORGRIGHT
 10
0.0
 20
0.0
 30
0.0
  9
$PUCSORGFRONT
 10
0.0
 20
0.0
 30
0.0
  9
$PUCSORGBACK
 10
0.0
 20
0.0
 30
0.0
  9
$USERI1
 70
     0
  9
$USERI2
 70
     0
  9
$USERI3
 70
     0
  9
$USERI4
 70
     0
  9
$USERI5
 70
     0
  9
$USERR1
 40
0.0
  9
$USERR2
 40
0.0
  9
$USERR3
 40
0.0
  9
$USERR4
 40
0.0
  9
$USERR5
 40
0.0
  9
$WORLDVIEW
 70
     1
  9
$SHADEDGE
 70
     3
  9
$SHADEDIF
 70
    70
  9
$TILEMODE
 70
     1
  9
$MAXACTVP
 70
    64
  9
$PINSBASE
 10
0.0
 20
0.0
 30
0.0
  9
$PLIMCHECK
 70
     0
  9
$PEXTMIN
 10
1.000000000000000E+20
 20
1.000000000000000E+20
 30
1.000000000000000E+20
  9
$PEXTMAX
 10
-1.000000000000000E+20
 20
-1.000000000000000E+20
 30
-1.000000000000000E+20
  9
$PLIMMIN
 10
0.0
 20
0.0
  9
$PLIMMAX
 10
12.0
 20
9.0
  9
$UNITMODE
 70
     0
  9
$VISRETAIN
 70
     1
  9
$PLINEGEN
 70
     0
  9
$PSLTSCALE
 70
     1
  9
$TREEDEPTH
 70
  3020
  9
$CMLSTYLE
  2
Standard
  9
$CMLJUST
 70
     0
  9
$CMLSCALE
 40
1.0
  9
$PROXYGRAPHICS
 70
     1
  9
$MEASUREMENT
 70
     0
  9
$CELWEIGHT
370
    -1
  9
$ENDCAPS
280
     0
  9
$JOINSTYLE
280
     0
  9
$LWDISPLAY
290
     0
  9
$INSUNITS
 70
     5
  9
$HYPERLINKBASE
  1

  9
$STYLESHEET
  1

  9
$XEDIT
290
     1
  9
$CEPSNTYPE
380
     0
  9
$PSTYLEMODE
290
     1
  9
$FINGERPRINTGUID
  2
{CE2AA5F8-64B4-48DA-AF9C-06BFE3D3020D}
  9
$VERSIONGUID
  2
{FAEB1C32-E019-11D5-929B-00C0DF256EC4}
  9
$EXTNAMES
290
     1
  9
$PSVPSCALE
 40
0.0
  9
$OLESTARTUP
290
     0
  9
$SORTENTS
280
   127
  9
$INDEXCTL
280
     0
  9
$HIDETEXT
280
     1
  9
$XCLIPFRAME
290
     0
  9
$HALOGAP
280
     0
  9
$OBSCOLOR
 70
   257
  9
$OBSLTYPE
280
     0
  9
$INTERSECTIONDISPLAY
280
     0
  9
$INTERSECTIONCOLOR
 70
   257
  9
$DIMASSOC
280
     2
  9
$PROJECTNAME
  1

  9
$CAMERADISPLAY
290
     0
  9
$LENSLENGTH
 40
50.0
  9
$CAMERAHEIGHT
 40
0.0
  9
$STEPSPERSEC
 40
2.0
  9
$STEPSIZE
 40
6.0
  9
$3DDWFPREC
 40
2.0
  9
$PSOLWIDTH
 40
0.25
  9
$PSOLHEIGHT
 40
4.0
  9
$LOFTANG1
 40
1.570796326794897
  9
$LOFTANG2
 40
1.570796326794897
  9
$LOFTMAG1
 40
0.0
  9
$LOFTMAG2
 40
0.0
  9
$LOFTPARAM
 70
     7
  9
$LOFTNORMALS
280
     1
  9
$LATITUDE
 40
37.795
  9
$LONGITUDE
 40
-122.394
  9
$NORTHDIRECTION
 40
0.0
  9
$TIMEZONE
 70
 -8000
  9
$LIGHTGLYPHDISPLAY
280
     1
  9
$TILEMODELIGHTSYNCH
280
     1
  9
$SOLIDHIST
280
     1
  9
$SHOWHIST
280
     1
  9
$DWFFRAME
280
     2
  9
$DGNFRAME
280
     2
  9
$REALWORLDSCALE
290
     1
  9
$INTERFERECOLOR
 62
   256
  9
$CSHADOW
280
     0
  9
$SHADOWPLANELOCATION
 40
0.0
  0
ENDSEC
  0
SECTION
  2
CLASSES
  0
CLASS
  1
ACDBDICTIONARYWDFLT
  2
AcDbDictionaryWithDefault
  3
ObjectDBX Classes
 90
        0
 91
        3
280
     0
281
     0
  0
CLASS
  1
VISUALSTYLE
  2
AcDbVisualStyle
  3
ObjectDBX Classes
 90
     4095
 91
        3
280
     0
281
     0
  0
CLASS
  1
SCALE
  2
AcDbScale
  3
ObjectDBX Classes
 90
     1153
 91
        3
280
     0
281
     0
  0
ENDSEC
  0
SECTION
  2
TABLES
  0
TABLE
  2
VPORT
  5
8
330
0
100
AcDbSymbolTable
 70
     1
  0
VPORT
  5
29
330
8
100
AcDbSymbolTableRecord
100
AcDbViewportTableRecord
  2
*Active
 70
     0
 10
0.0
 20
0.0
 11
1.0
 21
1.0
 12
10.42990654205607
 22
4.5
 13
0.0
 23
0.0
 14
0.5
 24
0.5
 15
0.5
 25
0.5
 16
0.0
 26
0.0
 36
1.0
 17
0.0
 27
0.0
 37
0.0
 40
9.0
 41
1.972972972850329
 42
50.0
 43
0.0
 44
0.0
 50
0.0
 51
0.0
 71
     0
 72
   100
 73
     1
 74
     3
 75
     0
 76
     0
 77
     0
 78
     0
281
     0
 65
     1
110
0.0
120
0.0
130
0.0
111
1.0
121
0.0
131
0.0
112
0.0
122
1.0
132
0.0
 79
     0
146
0.0
 60
     3
 61
     5
292
     1
282
     1
141
0.0
142
0.0
 63
   256
  0
ENDTAB
  0
TABLE
  2
LTYPE
  5
5
330
0
100
AcDbSymbolTable
 70
     1
  0
LTYPE
  5
14
330
5
100
AcDbSymbolTableRecord
100
AcDbLinetypeTableRecord
  2
ByBlock
 70
     0
  3

 72
    65
 73
     0
 40
0.0
  0
LTYPE
  5
15
330
5
100
AcDbSymbolTableRecord
100
AcDbLinetypeTableRecord
  2
ByLayer
 70
     0
  3

 72
    65
 73
     0
 40
0.0
  0
LTYPE
  5
16
330
5
100
AcDbSymbolTableRecord
100
AcDbLinetypeTableRecord
  2
Continuous
 70
     0
  3
Solid line
 72
    65
 73
     0
 40
0.0
  0
ENDTAB
  0
TABLE
  2
LAYER
  5
2
330
0
100
AcDbSymbolTable
 70
     2
  0
LAYER
  5
10
330
2
100
AcDbSymbolTableRecord
100
AcDbLayerTableRecord
  2
0
 70
     0
 62
     7
  6
Continuous
370
    -3
390
F
347
0
  0
LAYER
  5
5E
330
2
100
AcDbSymbolTableRecord
100
AcDbLayerTableRecord
  2
Layer 1
 70
     0
 62
     7
  6
Continuous
370
    -3
390
F
347
0
  0
ENDTAB
  0
TABLE
  2
STYLE
  5
3
330
0
100
AcDbSymbolTable
 70
     1
  0
STYLE
  5
11
330
3
100
AcDbSymbolTableRecord
100
AcDbTextStyleTableRecord
  2
Standard
 70
     0
 40
0.0
 41
1.0
 50
0.0
 71
     0
 42
0.2
  3
txt
  4

  0
ENDTAB
  0
TABLE
  2
VIEW
  5
6
330
0
100
AcDbSymbolTable
 70
     0
  0
ENDTAB
  0
TABLE
  2
UCS
  5
7
330
0
100
AcDbSymbolTable
 70
     0
  0
ENDTAB
  0
TABLE
  2
APPID
  5
9
330
0
100
AcDbSymbolTable
 70
     2
  0
APPID
  5
12
330
9
100
AcDbSymbolTableRecord
100
AcDbRegAppTableRecord
  2
ACAD
 70
     0
  0
APPID
  5
5D
330
9
100
AcDbSymbolTableRecord
100
AcDbRegAppTableRecord
  2
ODA
 70
     0
  0
ENDTAB
  0
TABLE
  2
DIMSTYLE
  5
A
330
0
100
AcDbSymbolTable
 70
     1
100
AcDbDimStyleTable
  0
DIMSTYLE
105
27
330
A
100
AcDbSymbolTableRecord
100
AcDbDimStyleTableRecord
  2
Standard
 70
     0
340
11
  0
ENDTAB
  0
TABLE
  2
BLOCK_RECORD
  5
1
330
0
100
AcDbSymbolTable
 70
     1
  0
BLOCK_RECORD
  5
1F
330
1
100
AcDbSymbolTableRecord
100
AcDbBlockTableRecord
  2
*Model_Space
340
22
 70
     0
280
     1
281
     0
  0
BLOCK_RECORD
  5
1B
330
1
100
AcDbSymbolTableRecord
100
AcDbBlockTableRecord
  2
*Paper_Space
340
1E
 70
     0
280
     1
281
     0
  0
BLOCK_RECORD
  5
23
330
1
100
AcDbSymbolTableRecord
100
AcDbBlockTableRecord
  2
*Paper_Space0
340
26
 70
     0
280
     1
281
     0
  0
ENDTAB
  0
ENDSEC
  0
SECTION
  2
BLOCKS
  0
BLOCK
  5
20
330
1F
100
AcDbEntity
  8
0
100
AcDbBlockBegin
  2
*Model_Space
 70
     0
 10
0.0
 20
0.0
 30
0.0
  3
*Model_Space
  1

  0
ENDBLK
  5
21
330
1F
100
AcDbEntity
  8
0
100
AcDbBlockEnd
  0
BLOCK
  5
1C
330
1B
100
AcDbEntity
 67
     1
  8
0
100
AcDbBlockBegin
  2
*Paper_Space
 70
     0
 10
0.0
 20
0.0
 30
0.0
  3
*Paper_Space
  1

  0
ENDBLK
  5
1D
330
1B
100
AcDbEntity
 67
     1
  8
0
100
AcDbBlockEnd
  0
BLOCK
  5
24
330
23
100
AcDbEntity
  8
0
100
AcDbBlockBegin
  2
*Paper_Space0
 70
     0
 10
0.0
 20
0.0
 30
0.0
  3
*Paper_Space0
  1

  0
ENDBLK
  5
25
330
23
100
AcDbEntity
  8
0
100
AcDbBlockEnd
  0
ENDSEC
  0
SECTION
  2
ENTITIES
  0
SPLINE
  5
5F
330
1F
100
AcDbEntity
  8
Layer 1
370
    53
100
AcDbSpline
210
0.0
220
0.0
230
1.0
 70
    11
 71
     3
 72
   172
 73
   168
 74
     0
 42
0.0000000001
 43
0.0000000001
 40
0.0
 40
0.0
 40
0.0
 40
0.0
 40
0.0238095238095238
 40
0.0238095238095238
 40
0.0238095238095238
 40
0.0238095238095238
 40
0.0476190476190476
 40
0.0476190476190476
 40
0.0476190476190476
 40
0.0476190476190476
 40
0.0714285714285714
 40
0.0714285714285714
 40
0.0714285714285714
 40
0.0714285714285714
 40
0.0952380952380952
 40
0.0952380952380952
 40
0.0952380952380952
 40
0.0952380952380952
 40
0.119047619047619
 40
0.119047619047619
 40
0.119047619047619
 40
0.119047619047619
 40
0.1428571428571428
 40
0.1428571428571428
 40
0.1428571428571428
 40
0.1428571428571428
 40
0.1666666666666667
 40
0.1666666666666667
 40
0.1666666666666667
 40
0.1666666666666667
 40
0.1904761904761905
 40
0.1904761904761905
 40
0.1904761904761905
 40
0.1904761904761905
 40
0.2142857142857143
 40
0.2142857142857143
 40
0.2142857142857143
 40
0.2142857142857143
 40
0.2380952380952381
 40
0.2380952380952381
 40
0.2380952380952381
 40
0.2380952380952381
 40
0.2619047619047619
 40
0.2619047619047619
 40
0.2619047619047619
 40
0.2619047619047619
 40
0.2857142857142857
 40
0.2857142857142857
 40
0.2857142857142857
 40
0.2857142857142857
 40
0.3095238095238095
 40
0.3095238095238095
 40
0.3095238095238095
 40
0.3095238095238095
 40
0.3333333333333334
 40
0.3333333333333334
 40
0.3333333333333334
 40
0.3333333333333334
 40
0.3571428571428572
 40
0.3571428571428572
 40
0.3571428571428572
 40
0.3571428571428572
 40
0.380952380952381
 40
0.380952380952381
 40
0.380952380952381
 40
0.380952380952381
 40
0.4047619047619049
 40
0.4047619047619049
 40
0.4047619047619049
 40
0.4047619047619049
 40
0.4285714285714287
 40
0.4285714285714287
 40
0.4285714285714287
 40
0.4285714285714287
 40
0.4523809523809526
 40
0.4523809523809526
 40
0.4523809523809526
 40
0.4523809523809526
 40
0.4761904761904764
 40
0.4761904761904764
 40
0.4761904761904764
 40
0.4761904761904764
 40
0.5000000000000002
 40
0.5000000000000002
 40
0.5000000000000002
 40
0.5000000000000002
 40
0.5238095238095241
 40
0.5238095238095241
 40
0.5238095238095241
 40
0.5238095238095241
 40
0.5476190476190479
 40
0.5476190476190479
 40
0.5476190476190479
 40
0.5476190476190479
 40
0.5714285714285717
 40
0.5714285714285717
 40
0.5714285714285717
 40
0.5714285714285717
 40
0.5952380952380956
 40
0.5952380952380956
 40
0.5952380952380956
 40
0.5952380952380956
 40
0.6190476190476194
 40
0.6190476190476194
 40
0.6190476190476194
 40
0.6190476190476194
 40
0.6428571428571432
 40
0.6428571428571432
 40
0.6428571428571432
 40
0.6428571428571432
 40
0.6666666666666671
 40
0.6666666666666671
 40
0.6666666666666671
 40
0.6666666666666671
 40
0.6904761904761909
 40
0.6904761904761909
 40
0.6904761904761909
 40
0.6904761904761909
 40
0.7142857142857147
 40
0.7142857142857147
 40
0.7142857142857147
 40
0.7142857142857147
 40
0.7380952380952386
 40
0.7380952380952386
 40
0.7380952380952386
 40
0.7380952380952386
 40
0.7619047619047624
 40
0.7619047619047624
 40
0.7619047619047624
 40
0.7619047619047624
 40
0.7857142857142863
 40
0.7857142857142863
 40
0.7857142857142863
 40
0.7857142857142863
 40
0.8095238095238101
 40
0.8095238095238101
 40
0.8095238095238101
 40
0.8095238095238101
 40
0.8333333333333339
 40
0.8333333333333339
 40
0.8333333333333339
 40
0.8333333333333339
 40
0.8571428571428578
 40
0.8571428571428578
 40
0.8571428571428578
 40
0.8571428571428578
 40
0.8809523809523816
 40
0.8809523809523816
 40
0.8809523809523816
 40
0.8809523809523816
 40
0.9047619047619054
 40
0.9047619047619054
 40
0.9047619047619054
 40
0.9047619047619054
 40
0.9285714285714293
 40
0.9285714285714293
 40
0.9285714285714293
 40
0.9285714285714293
 40
0.9523809523809531
 40
0.9523809523809531
 40
0.9523809523809531
 40
0.9523809523809531
 40
0.9761904761904769
 40
0.9761904761904769
 40
0.9761904761904769
 40
0.9761904761904769
 40
1.0
 40
1.0
 40
1.0
 40
1.0
 10
-14.15001
 20
-13.99991
 30
0.0
 10
-14.15001
 20
-13.99991
 30
0.0
 10
-14.15001
 20
-7.30004
 30
0.0
 10
-14.15001
 20
-7.30004
 30
0.0
 10
-14.15001
 20
-7.30004
 30
0.0
 10
-14.15001
 20
-7.30004
 30
0.0
 10
-13.1
 20
-7.30004
 30
0.0
 10
-13.1
 20
-7.30004
 30
0.0
 10
-13.1
 20
-7.30004
 30
0.0
 10
-13.1
 20
-7.30004
 30
0.0
 10
-13.1
 20
-11.15
 30
0.0
 10
-13.1
 20
-11.15
 30
0.0
 10
-13.1
 20
-11.15
 30
0.0
 10
-13.1
 20
-11.15
 30
0.0
 10
-12.95
 20
-11.15
 30
0.0
 10
-12.95
 20
-11.15
 30
0.0
 10
-12.95
 20
-11.15
 30
0.0
 10
-12.78434
 20
-11.15
 30
0.0
 10
-12.65
 20
-11.28434
 30
0.0
 10
-12.65
 20
-11.45
 30
0.0
 10
-12.65
 20
-11.45
 30
0.0
 10
-12.65
 20
-11.45
 30
0.0
 10
-12.65
 20
-11.75
 30
0.0
 10
-12.65
 20
-11.75
 30
0.0
 10
-12.65
 20
-11.75
 30
0.0
 10
-12.65
 20
-11.91566
 30
0.0
 10
-12.78434
 20
-12.05
 30
0.0
 10
-12.95
 20
-12.05
 30
0.0
 10
-12.95
 20
-12.05
 30
0.0
 10
-12.95
 20
-12.05
 30
0.0
 10
-13.2
 20
-12.05
 30
0.0
 10
-13.2
 20
-12.05
 30
0.0
 10
-13.2
 20
-12.05
 30
0.0
 10
-13.2
 20
-12.05
 30
0.0
 10
-13.2
 20
-13.50004
 30
0.0
 10
-13.2
 20
-13.50004
 30
0.0
 10
-13.2
 20
-13.50004
 30
0.0
 10
-13.2
 20
-13.50004
 30
0.0
 10
-11.2
 20
-13.50004
 30
0.0
 10
-11.2
 20
-13.50004
 30
0.0
 10
-11.2
 20
-13.50004
 30
0.0
 10
-11.2
 20
-13.50004
 30
0.0
 10
-11.2
 20
-13.20004
 30
0.0
 10
-11.2
 20
-13.20004
 30
0.0
 10
-11.2
 20
-13.20004
 30
0.0
 10
-11.2
 20
-13.20004
 30
0.0
 10
-7.8
 20
-13.20004
 30
0.0
 10
-7.8
 20
-13.20004
 30
0.0
 10
-7.8
 20
-13.20004
 30
0.0
 10
-7.8
 20
-13.20004
 30
0.0
 10
-7.8
 20
-12.25
 30
0.0
 10
-7.8
 20
-12.25
 30
0.0
 10
-7.8
 20
-12.25
 30
0.0
 10
-7.8
 20
-12.25
 30
0.0
 10
-8.07502
 20
-12.25
 30
0.0
 10
-8.07502
 20
-12.25
 30
0.0
 10
-8.07502
 20
-12.25
 30
0.0
 10
-8.24068
 20
-12.25
 30
0.0
 10
-8.37502
 20
-12.11566
 30
0.0
 10
-8.37502
 20
-11.95
 30
0.0
 10
-8.37502
 20
-11.95
 30
0.0
 10
-8.37502
 20
-11.95
 30
0.0
 10
-8.37502
 20
-11.45
 30
0.0
 10
-8.37502
 20
-11.45
 30
0.0
 10
-8.37502
 20
-11.45
 30
0.0
 10
-8.37502
 20
-11.28434
 30
0.0
 10
-8.24068
 20
-11.15
 30
0.0
 10
-8.07502
 20
-11.15
 30
0.0
 10
-8.07502
 20
-11.15
 30
0.0
 10
-8.07502
 20
-11.15
 30
0.0
 10
-7.8
 20
-11.15
 30
0.0
 10
-7.8
 20
-11.15
 30
0.0
 10
-7.8
 20
-11.15
 30
0.0
 10
-7.8
 20
-11.15
 30
0.0
 10
-7.8
 20
-5.94999
 30
0.0
 10
-7.8
 20
-5.94999
 30
0.0
 10
-7.8
 20
-5.94999
 30
0.0
 10
-7.8
 20
-5.94999
 30
0.0
 10
-8.15
 20
-5.94999
 30
0.0
 10
-8.15
 20
-5.94999
 30
0.0
 10
-8.15
 20
-5.94999
 30
0.0
 10
-8.31566
 20
-5.94999
 30
0.0
 10
-8.45
 20
-5.81565
 30
0.0
 10
-8.45
 20
-5.64999
 30
0.0
 10
-8.45
 20
-5.64999
 30
0.0
 10
-8.45
 20
-5.64999
 30
0.0
 10
-8.45
 20
-5.40004
 30
0.0
 10
-8.45
 20
-5.40004
 30
0.0
 10
-8.45
 20
-5.40004
 30
0.0
 10
-8.45
 20
-5.40004
 30
0.0
 10
-9.2
 20
-5.40004
 30
0.0
 10
-9.2
 20
-5.40004
 30
0.0
 10
-9.2
 20
-5.40004
 30
0.0
 10
-9.36566
 20
-5.40004
 30
0.0
 10
-9.5
 20
-5.2657
 30
0.0
 10
-9.5
 20
-5.10004
 30
0.0
 10
-9.5
 20
-5.10004
 30
0.0
 10
-9.5
 20
-5.10004
 30
0.0
 10
-9.5
 20
-4.20004
 30
0.0
 10
-9.5
 20
-4.20004
 30
0.0
 10
-9.5
 20
-4.20004
 30
0.0
 10
-9.5
 20
-4.03438
 30
0.0
 10
-9.63434
 20
-3.90004
 30
0.0
 10
-9.8
 20
-3.90004
 30
0.0
 10
-9.8
 20
-3.90004
 30
0.0
 10
-9.8
 20
-3.90004
 30
0.0
 10
-11.1
 20
-3.90004
 30
0.0
 10
-11.1
 20
-3.90004
 30
0.0
 10
-11.1
 20
-3.90004
 30
0.0
 10
-11.26566
 20
-3.90004
 30
0.0
 10
-11.4
 20
-4.03438
 30
0.0
 10
-11.4
 20
-4.20004
 30
0.0
 10
-11.4
 20
-4.20004
 30
0.0
 10
-11.4
 20
-4.20004
 30
0.0
 10
-11.4
 20
-5.10004
 30
0.0
 10
-11.4
 20
-5.10004
 30
0.0
 10
-11.4
 20
-5.10004
 30
0.0
 10
-11.4
 20
-5.2657
 30
0.0
 10
-11.53434
 20
-5.40004
 30
0.0
 10
-11.7
 20
-5.40004
 30
0.0
 10
-11.7
 20
-5.40004
 30
0.0
 10
-11.7
 20
-5.40004
 30
0.0
 10
-12.65
 20
-5.40004
 30
0.0
 10
-12.65
 20
-5.40004
 30
0.0
 10
-12.65
 20
-5.40004
 30
0.0
 10
-12.65
 20
-5.40004
 30
0.0
 10
-12.65
 20
-5.75
 30
0.0
 10
-12.65
 20
-5.75
 30
0.0
 10
-12.65
 20
-5.75
 30
0.0
 10
-12.65
 20
-5.80466
 30
0.0
 10
-12.66463
 20
-5.8559
 30
0.0
 10
-12.69018
 20
-5.90004
 30
0.0
 10
-12.69018
 20
-5.90004
 30
0.0
 10
-12.69018
 20
-5.90004
 30
0.0
 10
-14.15001
 20
-5.90004
 30
0.0
 10
-14.15001
 20
-5.90004
 30
0.0
 10
-14.15001
 20
-5.90004
 30
0.0
 10
-14.15001
 20
-5.90004
 30
0.0
 10
-14.15001
 20
-3.69994
 30
0.0
 10
-14.15001
 20
-3.69994
 30
0.0
 10
-14.15001
 20
-3.69994
 30
0.0
 10
-14.15001
 20
-3.42295
 30
0.0
 10
-13.92692
 20
-3.19999
 30
0.0
 10
-13.64992
 20
-3.19999
 30
0.0
 10
-13.64992
 20
-3.19999
 30
0.0
 10
-13.64992
 20
-3.19999
 30
0.0
 10
-7.34995
 20
-3.19999
 30
0.0
 10
-7.34995
 20
-3.19999
 30
0.0
 10
-7.34995
 20
-3.19999
 30
0.0
 10
-7.07298
 20
-3.19999
 30
0.0
 10
-6.84999
 20
-3.42295
 30
0.0
 10
-6.84999
 20
-3.69994
 30
0.0
 10
-6.84999
 20
-3.69994
 30
0.0
 10
-6.84999
 20
-3.69994
 30
0.0
 10
-6.84999
 20
-13.99991
 30
0.0
 10
-6.84999
 20
-13.99991
 30
0.0
 10
-6.84999
 20
-13.99991
 30
0.0
 10
-6.84999
 20
-14.27691
 30
0.0
 10
-7.07298
 20
-14.50001
 30
0.0
 10
-7.34995
 20
-14.50001
 30
0.0
 10
-7.34995
 20
-14.50001
 30
0.0
 10
-7.34995
 20
-14.50001
 30
0.0
 10
-13.64992
 20
-14.50001
 30
0.0
 10
-13.64992
 20
-14.50001
 30
0.0
 10
-13.64992
 20
-14.50001
 30
0.0
 10
-13.92692
 20
-14.50001
 30
0.0
 10
-14.15001
 20
-14.27691
 30
0.0
 10
-14.15001
 20
-13.99991
 30
0.0
  0
SPLINE
  5
60
330
1F
100
AcDbEntity
  8
Layer 1
370
    53
100
AcDbSpline
210
0.0
220
0.0
230
1.0
 70
    11
 71
     3
 72
    20
 73
    16
 74
     0
 42
0.0000000001
 43
0.0000000001
 40
0.0
 40
0.0
 40
0.0
 40
0.0
 40
0.25
 40
0.25
 40
0.25
 40
0.25
 40
0.5
 40
0.5
 40
0.5
 40
0.5
 40
0.75
 40
0.75
 40
0.75
 40
0.75
 40
1.0
 40
1.0
 40
1.0
 40
1.0
 10
-7.50002
 20
-3.55002
 30
0.0
 10
-7.33425
 20
-3.55002
 30
0.0
 10
-7.20002
 20
-3.68435
 30
0.0
 10
-7.20002
 20
-3.84997
 30
0.0
 10
-7.20002
 20
-3.84997
 30
0.0
 10
-7.20002
 20
-4.01564
 30
0.0
 10
-7.33425
 20
-4.14998
 30
0.0
 10
-7.50002
 20
-4.14998
 30
0.0
 10
-7.50002
 20
-4.14998
 30
0.0
 10
-7.66569
 20
-4.14998
 30
0.0
 10
-7.80002
 20
-4.01564
 30
0.0
 10
-7.80002
 20
-3.84997
 30
0.0
 10
-7.80002
 20
-3.84997
 30
0.0
 10
-7.80002
 20
-3.68435
 30
0.0
 10
-7.66569
 20
-3.55002
 30
0.0
 10
-7.50002
 20
-3.55002
 30
0.0
  0
SPLINE
  5
61
330
1F
100
AcDbEntity
  8
Layer 1
370
    53
100
AcDbSpline
210
0.0
220
0.0
230
1.0
 70
    11
 71
     3
 72
    20
 73
    16
 74
     0
 42
0.0000000001
 43
0.0000000001
 40
0.0
 40
0.0
 40
0.0
 40
0.0
 40
0.25
 40
0.25
 40
0.25
 40
0.25
 40
0.5
 40
0.5
 40
0.5
 40
0.5
 40
0.75
 40
0.75
 40
0.75
 40
0.75
 40
1.0
 40
1.0
 40
1.0
 40
1.0
 10
-13.49998
 20
-3.55002
 30
0.0
 10
-13.33421
 20
-3.55002
 30
0.0
 10
-13.19998
 20
-3.68435
 30
0.0
 10
-13.19998
 20
-3.84997
 30
0.0
 10
-13.19998
 20
-3.84997
 30
0.0
 10
-13.19998
 20
-4.01564
 30
0.0
 10
-13.33421
 20
-4.14998
 30
0.0
 10
-13.49998
 20
-4.14998
 30
0.0
 10
-13.49998
 20
-4.14998
 30
0.0
 10
-13.66565
 20
-4.14998
 30
0.0
 10
-13.79999
 20
-4.01564
 30
0.0
 10
-13.79999
 20
-3.84997
 30
0.0
 10
-13.79999
 20
-3.84997
 30
0.0
 10
-13.79999
 20
-3.68435
 30
0.0
 10
-13.66565
 20
-3.55002
 30
0.0
 10
-13.49998
 20
-3.55002
 30
0.0
  0
SPLINE
  5
62
330
1F
100
AcDbEntity
  8
Layer 1
370
    53
100
AcDbSpline
210
0.0
220
0.0
230
1.0
 70
    11
 71
     3
 72
    20
 73
    16
 74
     0
 42
0.0000000001
 43
0.0000000001
 40
0.0
 40
0.0
 40
0.0
 40
0.0
 40
0.25
 40
0.25
 40
0.25
 40
0.25
 40
0.5
 40
0.5
 40
0.5
 40
0.5
 40
0.75
 40
0.75
 40
0.75
 40
0.75
 40
1.0
 40
1.0
 40
1.0
 40
1.0
 10
-8.79994
 20
-3.99991
 30
0.0
 10
-8.79994
 20
-3.99991
 30
0.0
 10
-8.79994
 20
-3.6999
 30
0.0
 10
-8.79994
 20
-3.6999
 30
0.0
 10
-8.79994
 20
-3.6999
 30
0.0
 10
-8.79994
 20
-3.6999
 30
0.0
 10
-8.19993
 20
-3.6999
 30
0.0
 10
-8.19993
 20
-3.6999
 30
0.0
 10
-8.19993
 20
-3.6999
 30
0.0
 10
-8.19993
 20
-3.6999
 30
0.0
 10
-8.19993
 20
-3.99991
 30
0.0
 10
-8.19993
 20
-3.99991
 30
0.0
 10
-8.19993
 20
-3.99991
 30
0.0
 10
-8.19993
 20
-3.99991
 30
0.0
 10
-8.79994
 20
-3.99991
 30
0.0
 10
-8.79994
 20
-3.99991
 30
0.0
  0
SPLINE
  5
63
330
1F
100
AcDbEntity
  8
Layer 1
370
    53
100
AcDbSpline
210
0.0
220
0.0
230
1.0
 70
    11
 71
     3
 72
    20
 73
    16
 74
     0
 42
0.0000000001
 43
0.0000000001
 40
0.0
 40
0.0
 40
0.0
 40
0.0
 40
0.25
 40
0.25
 40
0.25
 40
0.25
 40
0.5
 40
0.5
 40
0.5
 40
0.5
 40
0.75
 40
0.75
 40
0.75
 40
0.75
 40
1.0
 40
1.0
 40
1.0
 40
1.0
 10
-12.79997
 20
-3.99991
 30
0.0
 10
-12.79997
 20
-3.99991
 30
0.0
 10
-12.79997
 20
-3.6999
 30
0.0
 10
-12.79997
 20
-3.6999
 30
0.0
 10
-12.79997
 20
-3.6999
 30
0.0
 10
-12.79997
 20
-3.6999
 30
0.0
 10
-12.19996
 20
-3.6999
 30
0.0
 10
-12.19996
 20
-3.6999
 30
0.0
 10
-12.19996
 20
-3.6999
 30
0.0
 10
-12.19996
 20
-3.6999
 30
0.0
 10
-12.19996
 20
-3.99991
 30
0.0
 10
-12.19996
 20
-3.99991
 30
0.0
 10
-12.19996
 20
-3.99991
 30
0.0
 10
-12.19996
 20
-3.99991
 30
0.0
 10
-12.79997
 20
-3.99991
 30
0.0
 10
-12.79997
 20
-3.99991
 30
0.0
  0
ELLIPSE
  5
64
330
1F
100
AcDbEntity
  8
Layer 1
 62
   250
370
    53
100
AcDbEllipse
 10
-7.69998
 20
-5.0963
 30
0.0
 11
0.0
 21
0.15
 31
0.0
210
0.0
220
0.0
230
1.0
 40
1.0
 41
0.0
 42
6.283185307179586
  0
ELLIPSE
  5
65
330
1F
100
AcDbEntity
  8
Layer 1
 62
   250
370
    53
100
AcDbEllipse
 10
-13.30002
 20
-14.00382
 30
0.0
 11
0.0
 21
0.15
 31
0.0
210
0.0
220
0.0
230
1.0
 40
1.0
 41
0.0
 42
6.283185307179586
  0
ELLIPSE
  5
66
330
1F
100
AcDbEntity
  8
Layer 1
 62
   250
370
    53
100
AcDbEllipse
 10
-7.69998
 20
-13.99633
 30
0.0
 11
0.0
 21
0.15
 31
0.0
210
0.0
220
0.0
230
1.0
 40
1.0
 41
0.0
 42
6.283185307179586
  0
SPLINE
  5
67
330
1F
100
AcDbEntity
  8
Layer 1
 62
    30
370
    53
100
AcDbSpline
210
0.0
220
0.0
230
1.0
 70
    11
 71
     3
 72
    36
 73
    32
 74
     0
 42
0.0000000001
 43
0.0000000001
 40
0.0
 40
0.0
 40
0.0
 40
0.0
 40
0.125
 40
0.125
 40
0.125
 40
0.125
 40
0.25
 40
0.25
 40
0.25
 40
0.25
 40
0.375
 40
0.375
 40
0.375
 40
0.375
 40
0.5
 40
0.5
 40
0.5
 40
0.5
 40
0.625
 40
0.625
 40
0.625
 40
0.625
 40
0.75
 40
0.75
 40
0.75
 40
0.75
 40
0.875
 40
0.875
 40
0.875
 40
0.875
 40
1.0
 40
1.0
 40
1.0
 40
1.0
 10
-12.67083
 20
-14.09968
 30
0.0
 10
-12.67083
 20
-14.09968
 30
0.0
 10
-12.67083
 20
-13.79446
 30
0.0
 10
-12.67083
 20
-13.79446
 30
0.0
 10
-12.67083
 20
-13.79446
 30
0.0
 10
-12.67083
 20
-13.79446
 30
0.0
 10
-12.5396
 20
-14.09968
 30
0.0
 10
-12.5396
 20
-14.09968
 30
0.0
 10
-12.5396
 20
-14.09968
 30
0.0
 10
-12.5396
 20
-14.09968
 30
0.0
 10
-12.40794
 20
-13.79446
 30
0.0
 10
-12.40794
 20
-13.79446
 30
0.0
 10
-12.40794
 20
-13.79446
 30
0.0
 10
-12.40794
 20
-13.79446
 30
0.0
 10
-12.40794
 20
-14.09968
 30
0.0
 10
-12.40794
 20
-14.09968
 30
0.0
 10
-12.40794
 20
-14.09968
 30
0.0
 10
-12.40794
 20
-14.09968
 30
0.0
 10
-12.40794
 20
-13.79446
 30
0.0
 10
-12.40794
 20
-13.79446
 30
0.0
 10
-12.40794
 20
-13.79446
 30
0.0
 10
-12.40794
 20
-13.79446
 30
0.0
 10
-12.5396
 20
-14.09968
 30
0.0
 10
-12.5396
 20
-14.09968
 30
0.0
 10
-12.5396
 20
-14.09968
 30
0.0
 10
-12.5396
 20
-14.09968
 30
0.0
 10
-12.67083
 20
-13.79446
 30
0.0
 10
-12.67083
 20
-13.79446
 30
0.0
 10
-12.67083
 20
-13.79446
 30
0.0
 10
-12.67083
 20
-13.79446
 30
0.0
 10
-12.67083
 20
-14.09968
 30
0.0
 10
-12.67083
 20
-14.09968
 30
0.0
  0
SPLINE
  5
68
330
1F
100
AcDbEntity
  8
Layer 1
 62
    30
370
    53
100
AcDbSpline
210
0.0
220
0.0
230
1.0
 70
    11
 71
     3
 72
    92
 73
    88
 74
     0
 42
0.0000000001
 43
0.0000000001
 40
0.0
 40
0.0
 40
0.0
 40
0.0
 40
0.0454545454545455
 40
0.0454545454545455
 40
0.0454545454545455
 40
0.0454545454545455
 40
0.0909090909090909
 40
0.0909090909090909
 40
0.0909090909090909
 40
0.0909090909090909
 40
0.1363636363636364
 40
0.1363636363636364
 40
0.1363636363636364
 40
0.1363636363636364
 40
0.1818181818181818
 40
0.1818181818181818
 40
0.1818181818181818
 40
0.1818181818181818
 40
0.2272727272727273
 40
0.2272727272727273
 40
0.2272727272727273
 40
0.2272727272727273
 40
0.2727272727272728
 40
0.2727272727272728
 40
0.2727272727272728
 40
0.2727272727272728
 40
0.3181818181818182
 40
0.3181818181818182
 40
0.3181818181818182
 40
0.3181818181818182
 40
0.3636363636363637
 40
0.3636363636363637
 40
0.3636363636363637
 40
0.3636363636363637
 40
0.4090909090909092
 40
0.4090909090909092
 40
0.4090909090909092
 40
0.4090909090909092
 40
0.4545454545454546
 40
0.4545454545454546
 40
0.4545454545454546
 40
0.4545454545454546
 40
0.5000000000000001
 40
0.5000000000000001
 40
0.5000000000000001
 40
0.5000000000000001
 40
0.5454545454545455
 40
0.5454545454545455
 40
0.5454545454545455
 40
0.5454545454545455
 40
0.5909090909090909
 40
0.5909090909090909
 40
0.5909090909090909
 40
0.5909090909090909
 40
0.6363636363636364
 40
0.6363636363636364
 40
0.6363636363636364
 40
0.6363636363636364
 40
0.6818181818181818
 40
0.6818181818181818
 40
0.6818181818181818
 40
0.6818181818181818
 40
0.7272727272727272
 40
0.7272727272727272
 40
0.7272727272727272
 40
0.7272727272727272
 40
0.7727272727272726
 40
0.7727272727272726
 40
0.7727272727272726
 40
0.7727272727272726
 40
0.818181818181818
 40
0.818181818181818
 40
0.818181818181818
 40
0.818181818181818
 40
0.8636363636363634
 40
0.8636363636363634
 40
0.8636363636363634
 40
0.8636363636363634
 40
0.9090909090909088
 40
0.9090909090909088
 40
0.9090909090909088
 40
0.9090909090909088
 40
0.9545454545454543
 40
0.9545454545454543
 40
0.9545454545454543
 40
0.9545454545454543
 40
1.0
 40
1.0
 40
1.0
 40
1.0
 10
-12.20813
 20
-14.09968
 30
0.0
 10
-12.20813
 20
-14.09968
 30
0.0
 10
-12.20813
 20
-13.79446
 30
0.0
 10
-12.20813
 20
-13.79446
 30
0.0
 10
-12.20813
 20
-13.79446
 30
0.0
 10
-12.20813
 20
-13.79446
 30
0.0
 10
-12.11076
 20
-13.79446
 30
0.0
 10
-12.11076
 20
-13.79446
 30
0.0
 10
-12.11076
 20
-13.79446
 30
0.0
 10
-12.09129
 20
-13.79453
 30
0.0
 10
-12.07528
 20
-13.79672
 30
0.0
 10
-12.06265
 20
-13.80095
 30
0.0
 10
-12.06265
 20
-13.80095
 30
0.0
 10
-12.05009
 20
-13.80511
 30
0.0
 10
-12.04021
 20
-13.8109
 30
0.0
 10
-12.03308
 20
-13.81824
 30
0.0
 10
-12.03308
 20
-13.81824
 30
0.0
 10
-12.02596
 20
-13.8255
 30
0.0
 10
-12.02088
 20
-13.83383
 30
0.0
 10
-12.01777
 20
-13.84321
 30
0.0
 10
-12.01777
 20
-13.84321
 30
0.0
 10
-12.01474
 20
-13.8526
 30
0.0
 10
-12.01298
 20
-13.8624
 30
0.0
 10
-12.01255
 20
-13.87278
 30
0.0
 10
-12.01255
 20
-13.87278
 30
0.0
 10
-12.01206
 20
-13.88315
 30
0.0
 10
-12.01326
 20
-13.89331
 30
0.0
 10
-12.01608
 20
-13.90318
 30
0.0
 10
-12.01608
 20
-13.90318
 30
0.0
 10
-12.01897
 20
-13.91306
 30
0.0
 10
-12.02384
 20
-13.92202
 30
0.0
 10
-12.03083
 20
-13.93007
 30
0.0
 10
-12.03083
 20
-13.93007
 30
0.0
 10
-12.03774
 20
-13.93811
 30
0.0
 10
-12.04712
 20
-13.94453
 30
0.0
 10
-12.05891
 20
-13.94926
 30
0.0
 10
-12.05891
 20
-13.94926
 30
0.0
 10
-12.07069
 20
-13.95405
 30
0.0
 10
-12.08529
 20
-13.95645
 30
0.0
 10
-12.10272
 20
-13.95659
 30
0.0
 10
-12.10272
 20
-13.95659
 30
0.0
 10
-12.10272
 20
-13.95659
 30
0.0
 10
-12.20813
 20
-13.95659
 30
0.0
 10
-12.20813
 20
-13.95659
 30
0.0
 10
-12.20813
 20
-13.95659
 30
0.0
 10
-12.20813
 20
-13.95659
 30
0.0
 10
-12.10272
 20
-13.95659
 30
0.0
 10
-12.10272
 20
-13.95659
 30
0.0
 10
-12.10272
 20
-13.95659
 30
0.0
 10
-12.08565
 20
-13.95645
 30
0.0
 10
-12.07118
 20
-13.95405
 30
0.0
 10
-12.05947
 20
-13.94926
 30
0.0
 10
-12.05947
 20
-13.94926
 30
0.0
 10
-12.04769
 20
-13.94453
 30
0.0
 10
-12.0383
 20
-13.93811
 30
0.0
 10
-12.03125
 20
-13.93007
 30
0.0
 10
-12.03125
 20
-13.93007
 30
0.0
 10
-12.02426
 20
-13.92202
 30
0.0
 10
-12.01925
 20
-13.91306
 30
0.0
 10
-12.01629
 20
-13.90318
 30
0.0
 10
-12.01629
 20
-13.90318
 30
0.0
 10
-12.01333
 20
-13.89331
 30
0.0
 10
-12.01206
 20
-13.88315
 30
0.0
 10
-12.01255
 20
-13.87278
 30
0.0
 10
-12.01255
 20
-13.87278
 30
0.0
 10
-12.01298
 20
-13.8624
 30
0.0
 10
-12.01474
 20
-13.8526
 30
0.0
 10
-12.01791
 20
-13.84321
 30
0.0
 10
-12.01791
 20
-13.84321
 30
0.0
 10
-12.02102
 20
-13.83383
 30
0.0
 10
-12.02624
 20
-13.8255
 30
0.0
 10
-12.03337
 20
-13.81824
 30
0.0
 10
-12.03337
 20
-13.81824
 30
0.0
 10
-12.04056
 20
-13.8109
 30
0.0
 10
-12.05044
 20
-13.80511
 30
0.0
 10
-12.063
 20
-13.80095
 30
0.0
 10
-12.063
 20
-13.80095
 30
0.0
 10
-12.07563
 20
-13.79672
 30
0.0
 10
-12.0915
 20
-13.79453
 30
0.0
 10
-12.11076
 20
-13.79446
 30
0.0
 10
-12.11076
 20
-13.79446
 30
0.0
 10
-12.11076
 20
-13.79446
 30
0.0
 10
-12.20813
 20
-13.79446
 30
0.0
 10
-12.20813
 20
-13.79446
 30
0.0
 10
-12.20813
 20
-13.79446
 30
0.0
 10
-12.20813
 20
-13.79446
 30
0.0
 10
-12.20813
 20
-14.09968
 30
0.0
 10
-12.20813
 20
-14.09968
 30
0.0
  0
SPLINE
  5
69
330
1F
100
AcDbEntity
  8
Layer 1
 62
    30
370
    53
100
AcDbSpline
210
0.0
220
0.0
230
1.0
 70
    27
 71
     3
 72
    12
 73
     8
 74
     0
 42
0.0000000001
 43
0.0000000001
 40
0.0
 40
0.0
 40
0.0
 40
0.0
 40
0.5
 40
0.5
 40
0.5
 40
0.5
 40
1.0
 40
1.0
 40
1.0
 40
1.0
 10
-11.90757
 20
-13.94008
 30
0.0
 10
-11.90757
 20
-13.94008
 30
0.0
 10
-11.78438
 20
-13.94008
 30
0.0
 10
-11.78438
 20
-13.94008
 30
0.0
 10
-11.78438
 20
-13.94008
 30
0.0
 10
-11.78438
 20
-13.94008
 30
0.0
 10
-11.90757
 20
-13.94008
 30
0.0
 10
-11.90757
 20
-13.94008
 30
0.0
  0
SPLINE
  5
6A
330
1F
100
AcDbEntity
  8
Layer 1
 62
    30
370
    53
100
AcDbSpline
210
0.0
220
0.0
230
1.0
 70
    11
 71
     3
 72
    60
 73
    56
 74
     0
 42
0.0000000001
 43
0.0000000001
 40
0.0
 40
0.0
 40
0.0
 40
0.0
 40
0.0714285714285714
 40
0.0714285714285714
 40
0.0714285714285714
 40
0.0714285714285714
 40
0.1428571428571428
 40
0.1428571428571428
 40
0.1428571428571428
 40
0.1428571428571428
 40
0.2142857142857143
 40
0.2142857142857143
 40
0.2142857142857143
 40
0.2142857142857143
 40
0.2857142857142857
 40
0.2857142857142857
 40
0.2857142857142857
 40
0.2857142857142857
 40
0.3571428571428571
 40
0.3571428571428571
 40
0.3571428571428571
 40
0.3571428571428571
 40
0.4285714285714285
 40
0.4285714285714285
 40
0.4285714285714285
 40
0.4285714285714285
 40
0.4999999999999999
 40
0.4999999999999999
 40
0.4999999999999999
 40
0.4999999999999999
 40
0.5714285714285713
 40
0.5714285714285713
 40
0.5714285714285713
 40
0.5714285714285713
 40
0.6428571428571427
 40
0.6428571428571427
 40
0.6428571428571427
 40
0.6428571428571427
 40
0.7142857142857141
 40
0.7142857142857141
 40
0.7142857142857141
 40
0.7142857142857141
 40
0.7857142857142855
 40
0.7857142857142855
 40
0.7857142857142855
 40
0.7857142857142855
 40
0.8571428571428569
 40
0.8571428571428569
 40
0.8571428571428569
 40
0.8571428571428569
 40
0.9285714285714283
 40
0.9285714285714283
 40
0.9285714285714283
 40
0.9285714285714283
 40
1.0
 40
1.0
 40
1.0
 40
1.0
 10
-11.42455
 20
-14.09968
 30
0.0
 10
-11.42737
 20
-14.09763
 30
0.0
 10
-11.42949
 20
-14.09516
 30
0.0
 10
-11.43104
 20
-14.09227
 30
0.0
 10
-11.43104
 20
-14.09227
 30
0.0
 10
-11.4326
 20
-14.08938
 30
0.0
 10
-11.43365
 20
-14.08649
 30
0.0
 10
-11.43429
 20
-14.08366
 30
0.0
 10
-11.43429
 20
-14.08366
 30
0.0
 10
-11.43485
 20
-14.08091
 30
0.0
 10
-11.43514
 20
-14.07858
 30
0.0
 10
-11.43514
 20
-14.07682
 30
0.0
 10
-11.43514
 20
-14.07682
 30
0.0
 10
-11.43514
 20
-14.07682
 30
0.0
 10
-11.44276
 20
-13.99977
 30
0.0
 10
-11.44276
 20
-13.99977
 30
0.0
 10
-11.44276
 20
-13.99977
 30
0.0
 10
-11.4436
 20
-13.9887
 30
0.0
 10
-11.44685
 20
-13.97896
 30
0.0
 10
-11.45242
 20
-13.97063
 30
0.0
 10
-11.45242
 20
-13.97063
 30
0.0
 10
-11.45807
 20
-13.96224
 30
0.0
 10
-11.46611
 20
-13.95575
 30
0.0
 10
-11.47669
 20
-13.95102
 30
0.0
 10
-11.47669
 20
-13.95102
 30
0.0
 10
-11.48721
 20
-13.94636
 30
0.0
 10
-11.50033
 20
-13.94397
 30
0.0
 10
-11.51599
 20
-13.94389
 30
0.0
 10
-11.51599
 20
-13.94389
 30
0.0
 10
-11.50033
 20
-13.94397
 30
0.0
 10
-11.48721
 20
-13.94636
 30
0.0
 10
-11.47669
 20
-13.95102
 30
0.0
 10
-11.47669
 20
-13.95102
 30
0.0
 10
-11.46611
 20
-13.95575
 30
0.0
 10
-11.45807
 20
-13.96224
 30
0.0
 10
-11.45242
 20
-13.97063
 30
0.0
 10
-11.45242
 20
-13.97063
 30
0.0
 10
-11.44685
 20
-13.97896
 30
0.0
 10
-11.4436
 20
-13.9887
 30
0.0
 10
-11.44276
 20
-13.99977
 30
0.0
 10
-11.44276
 20
-13.99977
 30
0.0
 10
-11.44276
 20
-13.99977
 30
0.0
 10
-11.43514
 20
-14.07682
 30
0.0
 10
-11.43514
 20
-14.07682
 30
0.0
 10
-11.43514
 20
-14.07682
 30
0.0
 10
-11.43514
 20
-14.07858
 30
0.0
 10
-11.43485
 20
-14.08091
 30
0.0
 10
-11.43429
 20
-14.08366
 30
0.0
 10
-11.43429
 20
-14.08366
 30
0.0
 10
-11.43365
 20
-14.08649
 30
0.0
 10
-11.4326
 20
-14.08938
 30
0.0
 10
-11.43104
 20
-14.09227
 30
0.0
 10
-11.43104
 20
-14.09227
 30
0.0
 10
-11.42949
 20
-14.09516
 30
0.0
 10
-11.42737
 20
-14.09763
 30
0.0
 10
-11.42455
 20
-14.09968
 30
0.0
  0
SPLINE
  5
6B
330
1F
100
AcDbEntity
  8
Layer 1
 62
    30
370
    53
100
AcDbSpline
210
0.0
220
0.0
230
1.0
 70
    11
 71
     3
 72
    96
 73
    92
 74
     0
 42
0.0000000001
 43
0.0000000001
 40
0.0
 40
0.0
 40
0.0
 40
0.0
 40
0.0434782608695652
 40
0.0434782608695652
 40
0.0434782608695652
 40
0.0434782608695652
 40
0.0869565217391304
 40
0.0869565217391304
 40
0.0869565217391304
 40
0.0869565217391304
 40
0.1304347826086956
 40
0.1304347826086956
 40
0.1304347826086956
 40
0.1304347826086956
 40
0.1739130434782609
 40
0.1739130434782609
 40
0.1739130434782609
 40
0.1739130434782609
 40
0.2173913043478261
 40
0.2173913043478261
 40
0.2173913043478261
 40
0.2173913043478261
 40
0.2608695652173913
 40
0.2608695652173913
 40
0.2608695652173913
 40
0.2608695652173913
 40
0.3043478260869565
 40
0.3043478260869565
 40
0.3043478260869565
 40
0.3043478260869565
 40
0.3478260869565217
 40
0.3478260869565217
 40
0.3478260869565217
 40
0.3478260869565217
 40
0.3913043478260869
 40
0.3913043478260869
 40
0.3913043478260869
 40
0.3913043478260869
 40
0.4347826086956521
 40
0.4347826086956521
 40
0.4347826086956521
 40
0.4347826086956521
 40
0.4782608695652173
 40
0.4782608695652173
 40
0.4782608695652173
 40
0.4782608695652173
 40
0.5217391304347825
 40
0.5217391304347825
 40
0.5217391304347825
 40
0.5217391304347825
 40
0.5652173913043477
 40
0.5652173913043477
 40
0.5652173913043477
 40
0.5652173913043477
 40
0.6086956521739129
 40
0.6086956521739129
 40
0.6086956521739129
 40
0.6086956521739129
 40
0.652173913043478
 40
0.652173913043478
 40
0.652173913043478
 40
0.652173913043478
 40
0.6956521739130432
 40
0.6956521739130432
 40
0.6956521739130432
 40
0.6956521739130432
 40
0.7391304347826084
 40
0.7391304347826084
 40
0.7391304347826084
 40
0.7391304347826084
 40
0.7826086956521736
 40
0.7826086956521736
 40
0.7826086956521736
 40
0.7826086956521736
 40
0.8260869565217388
 40
0.8260869565217388
 40
0.8260869565217388
 40
0.8260869565217388
 40
0.869565217391304
 40
0.869565217391304
 40
0.869565217391304
 40
0.869565217391304
 40
0.9130434782608692
 40
0.9130434782608692
 40
0.9130434782608692
 40
0.9130434782608692
 40
0.9565217391304344
 40
0.9565217391304344
 40
0.9565217391304344
 40
0.9565217391304344
 40
1.0
 40
1.0
 40
1.0
 40
1.0
 10
-11.64172
 20
-14.09968
 30
0.0
 10
-11.64172
 20
-14.09968
 30
0.0
 10
-11.64172
 20
-13.79446
 30
0.0
 10
-11.64172
 20
-13.79446
 30
0.0
 10
-11.64172
 20
-13.79446
 30
0.0
 10
-11.64172
 20
-13.79446
 30
0.0
 10
-11.53038
 20
-13.79446
 30
0.0
 10
-11.53038
 20
-13.79446
 30
0.0
 10
-11.53038
 20
-13.79446
 30
0.0
 10
-11.51486
 20
-13.79446
 30
0.0
 10
-11.5016
 20
-13.79552
 30
0.0
 10
-11.49066
 20
-13.79756
 30
0.0
 10
-11.49066
 20
-13.79756
 30
0.0
 10
-11.47966
 20
-13.79961
 30
0.0
 10
-11.47055
 20
-13.80257
 30
0.0
 10
-11.46336
 20
-13.80645
 30
0.0
 10
-11.46336
 20
-13.80645
 30
0.0
 10
-11.45616
 20
-13.81033
 30
0.0
 10
-11.45052
 20
-13.81506
 30
0.0
 10
-11.44635
 20
-13.82063
 30
0.0
 10
-11.44635
 20
-13.82063
 30
0.0
 10
-11.44212
 20
-13.82614
 30
0.0
 10
-11.43916
 20
-13.83242
 30
0.0
 10
-11.43725
 20
-13.8394
 30
0.0
 10
-11.43725
 20
-13.8394
 30
0.0
 10
-11.43535
 20
-13.84639
 30
0.0
 10
-11.43422
 20
-13.85394
 30
0.0
 10
-11.43387
 20
-13.86219
 30
0.0
 10
-11.43387
 20
-13.86219
 30
0.0
 10
-11.43337
 20
-13.87256
 30
0.0
 10
-11.4345
 20
-13.88258
 30
0.0
 10
-11.43718
 20
-13.89225
 30
0.0
 10
-11.43718
 20
-13.89225
 30
0.0
 10
-11.43993
 20
-13.90198
 30
0.0
 10
-11.44466
 20
-13.91066
 30
0.0
 10
-11.45136
 20
-13.91842
 30
0.0
 10
-11.45136
 20
-13.91842
 30
0.0
 10
-11.45814
 20
-13.92619
 30
0.0
 10
-11.46724
 20
-13.93232
 30
0.0
 10
-11.47881
 20
-13.93691
 30
0.0
 10
-11.47881
 20
-13.93691
 30
0.0
 10
-11.49038
 20
-13.94143
 30
0.0
 10
-11.5047
 20
-13.94382
 30
0.0
 10
-11.52192
 20
-13.94389
 30
0.0
 10
-11.52192
 20
-13.94389
 30
0.0
 10
-11.52192
 20
-13.94389
 30
0.0
 10
-11.64172
 20
-13.94389
 30
0.0
 10
-11.64172
 20
-13.94389
 30
0.0
 10
-11.64172
 20
-13.94389
 30
0.0
 10
-11.64172
 20
-13.94389
 30
0.0
 10
-11.52192
 20
-13.94389
 30
0.0
 10
-11.52192
 20
-13.94389
 30
0.0
 10
-11.52192
 20
-13.94389
 30
0.0
 10
-11.50506
 20
-13.94382
 30
0.0
 10
-11.49087
 20
-13.94143
 30
0.0
 10
-11.47937
 20
-13.93691
 30
0.0
 10
-11.47937
 20
-13.93691
 30
0.0
 10
-11.46787
 20
-13.93232
 30
0.0
 10
-11.4587
 20
-13.92619
 30
0.0
 10
-11.45186
 20
-13.91842
 30
0.0
 10
-11.45186
 20
-13.91842
 30
0.0
 10
-11.44501
 20
-13.91066
 30
0.0
 10
-11.44022
 20
-13.90198
 30
0.0
 10
-11.43739
 20
-13.89225
 30
0.0
 10
-11.43739
 20
-13.89225
 30
0.0
 10
-11.43457
 20
-13.88258
 30
0.0
 10
-11.43337
 20
-13.87256
 30
0.0
 10
-11.43387
 20
-13.86219
 30
0.0
 10
-11.43387
 20
-13.86219
 30
0.0
 10
-11.43429
 20
-13.85189
 30
0.0
 10
-11.43605
 20
-13.84258
 30
0.0
 10
-11.43916
 20
-13.83425
 30
0.0
 10
-11.43916
 20
-13.83425
 30
0.0
 10
-11.44219
 20
-13.826
 30
0.0
 10
-11.44727
 20
-13.81887
 30
0.0
 10
-11.45433
 20
-13.81294
 30
0.0
 10
-11.45433
 20
-13.81294
 30
0.0
 10
-11.46138
 20
-13.80702
 30
0.0
 10
-11.47112
 20
-13.80243
 30
0.0
 10
-11.48347
 20
-13.79926
 30
0.0
 10
-11.48347
 20
-13.79926
 30
0.0
 10
-11.49581
 20
-13.79608
 30
0.0
 10
-11.51148
 20
-13.79446
 30
0.0
 10
-11.53038
 20
-13.79446
 30
0.0
 10
-11.53038
 20
-13.79446
 30
0.0
 10
-11.53038
 20
-13.79446
 30
0.0
 10
-11.64172
 20
-13.79446
 30
0.0
 10
-11.64172
 20
-13.79446
 30
0.0
 10
-11.64172
 20
-13.79446
 30
0.0
 10
-11.64172
 20
-13.79446
 30
0.0
 10
-11.64172
 20
-14.09968
 30
0.0
 10
-11.64172
 20
-14.09968
 30
0.0
  0
SPLINE
  5
6C
330
1F
100
AcDbEntity
  8
Layer 1
 62
    30
370
    53
100
AcDbSpline
210
0.0
220
0.0
230
1.0
 70
    11
 71
     3
 72
    20
 73
    16
 74
     0
 42
0.0000000001
 43
0.0000000001
 40
0.0
 40
0.0
 40
0.0
 40
0.0
 40
0.25
 40
0.25
 40
0.25
 40
0.25
 40
0.5
 40
0.5
 40
0.5
 40
0.5
 40
0.75
 40
0.75
 40
0.75
 40
0.75
 40
1.0
 40
1.0
 40
1.0
 40
1.0
 10
-11.32041
 20
-14.09968
 30
0.0
 10
-11.32041
 20
-14.09968
 30
0.0
 10
-11.19934
 20
-13.79446
 30
0.0
 10
-11.19934
 20
-13.79446
 30
0.0
 10
-11.19934
 20
-13.79446
 30
0.0
 10
-11.19934
 20
-13.79446
 30
0.0
 10
-11.07784
 20
-14.09968
 30
0.0
 10
-11.07784
 20
-14.09968
 30
0.0
 10
-11.07784
 20
-14.09968
 30
0.0
 10
-11.07784
 20
-14.09968
 30
0.0
 10
-11.19934
 20
-13.79446
 30
0.0
 10
-11.19934
 20
-13.79446
 30
0.0
 10
-11.19934
 20
-13.79446
 30
0.0
 10
-11.19934
 20
-13.79446
 30
0.0
 10
-11.32041
 20
-14.09968
 30
0.0
 10
-11.32041
 20
-14.09968
 30
0.0
  0
SPLINE
  5
6D
330
1F
100
AcDbEntity
  8
Layer 1
 62
    30
370
    53
100
AcDbSpline
210
0.0
220
0.0
230
1.0
 70
    27
 71
     3
 72
    12
 73
     8
 74
     0
 42
0.0000000001
 43
0.0000000001
 40
0.0
 40
0.0
 40
0.0
 40
0.0
 40
0.5
 40
0.5
 40
0.5
 40
0.5
 40
1.0
 40
1.0
 40
1.0
 40
1.0
 10
-11.28231
 20
-14.00358
 30
0.0
 10
-11.28231
 20
-14.00358
 30
0.0
 10
-11.11637
 20
-14.00358
 30
0.0
 10
-11.11637
 20
-14.00358
 30
0.0
 10
-11.11637
 20
-14.00358
 30
0.0
 10
-11.11637
 20
-14.00358
 30
0.0
 10
-11.28231
 20
-14.00358
 30
0.0
 10
-11.28231
 20
-14.00358
 30
0.0
  0
SPLINE
  5
6E
330
1F
100
AcDbEntity
  8
Layer 1
 62
    30
370
    53
100
AcDbSpline
210
0.0
220
0.0
230
1.0
 70
    11
 71
     3
 72
   188
 73
   184
 74
     0
 42
0.0000000001
 43
0.0000000001
 40
0.0
 40
0.0
 40
0.0
 40
0.0
 40
0.0217391304347826
 40
0.0217391304347826
 40
0.0217391304347826
 40
0.0217391304347826
 40
0.0434782608695652
 40
0.0434782608695652
 40
0.0434782608695652
 40
0.0434782608695652
 40
0.0652173913043478
 40
0.0652173913043478
 40
0.0652173913043478
 40
0.0652173913043478
 40
0.0869565217391304
 40
0.0869565217391304
 40
0.0869565217391304
 40
0.0869565217391304
 40
0.108695652173913
 40
0.108695652173913
 40
0.108695652173913
 40
0.108695652173913
 40
0.1304347826086956
 40
0.1304347826086956
 40
0.1304347826086956
 40
0.1304347826086956
 40
0.1521739130434783
 40
0.1521739130434783
 40
0.1521739130434783
 40
0.1521739130434783
 40
0.1739130434782609
 40
0.1739130434782609
 40
0.1739130434782609
 40
0.1739130434782609
 40
0.1956521739130435
 40
0.1956521739130435
 40
0.1956521739130435
 40
0.1956521739130435
 40
0.2173913043478261
 40
0.2173913043478261
 40
0.2173913043478261
 40
0.2173913043478261
 40
0.2391304347826086
 40
0.2391304347826086
 40
0.2391304347826086
 40
0.2391304347826086
 40
0.2608695652173912
 40
0.2608695652173912
 40
0.2608695652173912
 40
0.2608695652173912
 40
0.2826086956521738
 40
0.2826086956521738
 40
0.2826086956521738
 40
0.2826086956521738
 40
0.3043478260869564
 40
0.3043478260869564
 40
0.3043478260869564
 40
0.3043478260869564
 40
0.326086956521739
 40
0.326086956521739
 40
0.326086956521739
 40
0.326086956521739
 40
0.3478260869565216
 40
0.3478260869565216
 40
0.3478260869565216
 40
0.3478260869565216
 40
0.3695652173913042
 40
0.3695652173913042
 40
0.3695652173913042
 40
0.3695652173913042
 40
0.3913043478260868
 40
0.3913043478260868
 40
0.3913043478260868
 40
0.3913043478260868
 40
0.4130434782608694
 40
0.4130434782608694
 40
0.4130434782608694
 40
0.4130434782608694
 40
0.434782608695652
 40
0.434782608695652
 40
0.434782608695652
 40
0.434782608695652
 40
0.4565217391304346
 40
0.4565217391304346
 40
0.4565217391304346
 40
0.4565217391304346
 40
0.4782608695652172
 40
0.4782608695652172
 40
0.4782608695652172
 40
0.4782608695652172
 40
0.4999999999999998
 40
0.4999999999999998
 40
0.4999999999999998
 40
0.4999999999999998
 40
0.5217391304347824
 40
0.5217391304347824
 40
0.5217391304347824
 40
0.5217391304347824
 40
0.543478260869565
 40
0.543478260869565
 40
0.543478260869565
 40
0.543478260869565
 40
0.5652173913043476
 40
0.5652173913043476
 40
0.5652173913043476
 40
0.5652173913043476
 40
0.5869565217391302
 40
0.5869565217391302
 40
0.5869565217391302
 40
0.5869565217391302
 40
0.6086956521739127
 40
0.6086956521739127
 40
0.6086956521739127
 40
0.6086956521739127
 40
0.6304347826086953
 40
0.6304347826086953
 40
0.6304347826086953
 40
0.6304347826086953
 40
0.6521739130434779
 40
0.6521739130434779
 40
0.6521739130434779
 40
0.6521739130434779
 40
0.6739130434782605
 40
0.6739130434782605
 40
0.6739130434782605
 40
0.6739130434782605
 40
0.6956521739130431
 40
0.6956521739130431
 40
0.6956521739130431
 40
0.6956521739130431
 40
0.7173913043478257
 40
0.7173913043478257
 40
0.7173913043478257
 40
0.7173913043478257
 40
0.7391304347826083
 40
0.7391304347826083
 40
0.7391304347826083
 40
0.7391304347826083
 40
0.7608695652173909
 40
0.7608695652173909
 40
0.7608695652173909
 40
0.7608695652173909
 40
0.7826086956521735
 40
0.7826086956521735
 40
0.7826086956521735
 40
0.7826086956521735
 40
0.8043478260869561
 40
0.8043478260869561
 40
0.8043478260869561
 40
0.8043478260869561
 40
0.8260869565217387
 40
0.8260869565217387
 40
0.8260869565217387
 40
0.8260869565217387
 40
0.8478260869565213
 40
0.8478260869565213
 40
0.8478260869565213
 40
0.8478260869565213
 40
0.8695652173913039
 40
0.8695652173913039
 40
0.8695652173913039
 40
0.8695652173913039
 40
0.8913043478260865
 40
0.8913043478260865
 40
0.8913043478260865
 40
0.8913043478260865
 40
0.9130434782608691
 40
0.9130434782608691
 40
0.9130434782608691
 40
0.9130434782608691
 40
0.9347826086956517
 40
0.9347826086956517
 40
0.9347826086956517
 40
0.9347826086956517
 40
0.9565217391304343
 40
0.9565217391304343
 40
0.9565217391304343
 40
0.9565217391304343
 40
0.9782608695652169
 40
0.9782608695652169
 40
0.9782608695652169
 40
0.9782608695652169
 40
1.0
 40
1.0
 40
1.0
 40
1.0
 10
-10.97455
 20
-14.00739
 30
0.0
 10
-10.97441
 20
-14.02426
 30
0.0
 10
-10.97145
 20
-14.03872
 30
0.0
 10
-10.96552
 20
-14.05079
 30
0.0
 10
-10.96552
 20
-14.05079
 30
0.0
 10
-10.95966
 20
-14.06278
 30
0.0
 10
-10.95148
 20
-14.07259
 30
0.0
 10
-10.94118
 20
-14.08021
 30
0.0
 10
-10.94118
 20
-14.08021
 30
0.0
 10
-10.93081
 20
-14.08776
 30
0.0
 10
-10.91888
 20
-14.09333
 30
0.0
 10
-10.90541
 20
-14.09693
 30
0.0
 10
-10.90541
 20
-14.09693
 30
0.0
 10
-10.892
 20
-14.10046
 30
0.0
 10
-10.87761
 20
-14.10222
 30
0.0
 10
-10.86237
 20
-14.10222
 30
0.0
 10
-10.86237
 20
-14.10222
 30
0.0
 10
-10.84699
 20
-14.10215
 30
0.0
 10
-10.83316
 20
-14.09989
 30
0.0
 10
-10.82081
 20
-14.09559
 30
0.0
 10
-10.82081
 20
-14.09559
 30
0.0
 10
-10.80853
 20
-14.09128
 30
0.0
 10
-10.79802
 20
-14.0855
 30
0.0
 10
-10.7892
 20
-14.07823
 30
0.0
 10
-10.7892
 20
-14.07823
 30
0.0
 10
-10.78045
 20
-14.07096
 30
0.0
 10
-10.77368
 20
-14.06285
 30
0.0
 10
-10.76888
 20
-14.05382
 30
0.0
 10
-10.76888
 20
-14.05382
 30
0.0
 10
-10.76408
 20
-14.04479
 30
0.0
 10
-10.76154
 20
-14.03555
 30
0.0
 10
-10.76119
 20
-14.02602
 30
0.0
 10
-10.76119
 20
-14.02602
 30
0.0
 10
-10.76077
 20
-14.01353
 30
0.0
 10
-10.7626
 20
-14.0021
 30
0.0
 10
-10.76662
 20
-13.9918
 30
0.0
 10
-10.76662
 20
-13.9918
 30
0.0
 10
-10.77065
 20
-13.9815
 30
0.0
 10
-10.77686
 20
-13.97289
 30
0.0
 10
-10.78525
 20
-13.96584
 30
0.0
 10
-10.78525
 20
-13.96584
 30
0.0
 10
-10.79358
 20
-13.95878
 30
0.0
 10
-10.80409
 20
-13.95384
 30
0.0
 10
-10.81665
 20
-13.95109
 30
0.0
 10
-10.81665
 20
-13.95109
 30
0.0
 10
-10.81665
 20
-13.95109
 30
0.0
 10
-10.92036
 20
-13.92865
 30
0.0
 10
-10.92036
 20
-13.92865
 30
0.0
 10
-10.92036
 20
-13.92865
 30
0.0
 10
-10.9301
 20
-13.92661
 30
0.0
 10
-10.9385
 20
-13.92315
 30
0.0
 10
-10.94541
 20
-13.91835
 30
0.0
 10
-10.94541
 20
-13.91835
 30
0.0
 10
-10.95233
 20
-13.91349
 30
0.0
 10
-10.95769
 20
-13.90678
 30
0.0
 10
-10.96136
 20
-13.89817
 30
0.0
 10
-10.96136
 20
-13.89817
 30
0.0
 10
-10.96503
 20
-13.88964
 30
0.0
 10
-10.96693
 20
-13.87877
 30
0.0
 10
-10.96693
 20
-13.86558
 30
0.0
 10
-10.96693
 20
-13.86558
 30
0.0
 10
-10.96693
 20
-13.85556
 30
0.0
 10
-10.96488
 20
-13.84611
 30
0.0
 10
-10.96072
 20
-13.83722
 30
0.0
 10
-10.96072
 20
-13.83722
 30
0.0
 10
-10.95663
 20
-13.82833
 30
0.0
 10
-10.95056
 20
-13.82049
 30
0.0
 10
-10.94259
 20
-13.81358
 30
0.0
 10
-10.94259
 20
-13.81358
 30
0.0
 10
-10.93462
 20
-13.80674
 30
0.0
 10
-10.92474
 20
-13.80137
 30
0.0
 10
-10.91303
 20
-13.79749
 30
0.0
 10
-10.91303
 20
-13.79749
 30
0.0
 10
-10.90124
 20
-13.79354
 30
0.0
 10
-10.88777
 20
-13.79157
 30
0.0
 10
-10.87253
 20
-13.7915
 30
0.0
 10
-10.87253
 20
-13.7915
 30
0.0
 10
-10.85722
 20
-13.7915
 30
0.0
 10
-10.84318
 20
-13.79326
 30
0.0
 10
-10.83034
 20
-13.79679
 30
0.0
 10
-10.83034
 20
-13.79679
 30
0.0
 10
-10.81757
 20
-13.80032
 30
0.0
 10
-10.80649
 20
-13.8054
 30
0.0
 10
-10.79718
 20
-13.81217
 30
0.0
 10
-10.79718
 20
-13.81217
 30
0.0
 10
-10.78786
 20
-13.81894
 30
0.0
 10
-10.78067
 20
-13.82727
 30
0.0
 10
-10.77573
 20
-13.837
 30
0.0
 10
-10.77573
 20
-13.837
 30
0.0
 10
-10.77079
 20
-13.84681
 30
0.0
 10
-10.76846
 20
-13.85803
 30
0.0
 10
-10.76881
 20
-13.87066
 30
0.0
 10
-10.76881
 20
-13.87066
 30
0.0
 10
-10.76846
 20
-13.85803
 30
0.0
 10
-10.77079
 20
-13.84681
 30
0.0
 10
-10.77573
 20
-13.837
 30
0.0
 10
-10.77573
 20
-13.837
 30
0.0
 10
-10.78067
 20
-13.82727
 30
0.0
 10
-10.78786
 20
-13.81894
 30
0.0
 10
-10.79718
 20
-13.81217
 30
0.0
 10
-10.79718
 20
-13.81217
 30
0.0
 10
-10.80649
 20
-13.8054
 30
0.0
 10
-10.81757
 20
-13.80032
 30
0.0
 10
-10.83034
 20
-13.79679
 30
0.0
 10
-10.83034
 20
-13.79679
 30
0.0
 10
-10.84318
 20
-13.79326
 30
0.0
 10
-10.85722
 20
-13.7915
 30
0.0
 10
-10.87253
 20
-13.7915
 30
0.0
 10
-10.87253
 20
-13.7915
 30
0.0
 10
-10.88777
 20
-13.79157
 30
0.0
 10
-10.90124
 20
-13.79354
 30
0.0
 10
-10.91303
 20
-13.79749
 30
0.0
 10
-10.91303
 20
-13.79749
 30
0.0
 10
-10.92474
 20
-13.80137
 30
0.0
 10
-10.93462
 20
-13.80674
 30
0.0
 10
-10.94259
 20
-13.81358
 30
0.0
 10
-10.94259
 20
-13.81358
 30
0.0
 10
-10.95056
 20
-13.82049
 30
0.0
 10
-10.95663
 20
-13.82833
 30
0.0
 10
-10.96072
 20
-13.83722
 30
0.0
 10
-10.96072
 20
-13.83722
 30
0.0
 10
-10.96488
 20
-13.84611
 30
0.0
 10
-10.96693
 20
-13.85556
 30
0.0
 10
-10.96693
 20
-13.86558
 30
0.0
 10
-10.96693
 20
-13.86558
 30
0.0
 10
-10.96693
 20
-13.87877
 30
0.0
 10
-10.9651
 20
-13.88964
 30
0.0
 10
-10.96157
 20
-13.8981
 30
0.0
 10
-10.96157
 20
-13.8981
 30
0.0
 10
-10.95797
 20
-13.90664
 30
0.0
 10
-10.95268
 20
-13.91327
 30
0.0
 10
-10.94576
 20
-13.91814
 30
0.0
 10
-10.94576
 20
-13.91814
 30
0.0
 10
-10.93885
 20
-13.92294
 30
0.0
 10
-10.93038
 20
-13.92647
 30
0.0
 10
-10.92036
 20
-13.92865
 30
0.0
 10
-10.92036
 20
-13.92865
 30
0.0
 10
-10.92036
 20
-13.92865
 30
0.0
 10
-10.81665
 20
-13.95109
 30
0.0
 10
-10.81665
 20
-13.95109
 30
0.0
 10
-10.81665
 20
-13.95109
 30
0.0
 10
-10.80381
 20
-13.95384
 30
0.0
 10
-10.79322
 20
-13.95878
 30
0.0
 10
-10.7849
 20
-13.96584
 30
0.0
 10
-10.7849
 20
-13.96584
 30
0.0
 10
-10.7765
 20
-13.97289
 30
0.0
 10
-10.77036
 20
-13.9815
 30
0.0
 10
-10.76641
 20
-13.9918
 30
0.0
 10
-10.76641
 20
-13.9918
 30
0.0
 10
-10.76253
 20
-14.0021
 30
0.0
 10
-10.76077
 20
-14.01353
 30
0.0
 10
-10.76119
 20
-14.02602
 30
0.0
 10
-10.76119
 20
-14.02602
 30
0.0
 10
-10.76154
 20
-14.03555
 30
0.0
 10
-10.76408
 20
-14.04479
 30
0.0
 10
-10.76888
 20
-14.05382
 30
0.0
 10
-10.76888
 20
-14.05382
 30
0.0
 10
-10.77368
 20
-14.06285
 30
0.0
 10
-10.78045
 20
-14.07096
 30
0.0
 10
-10.7892
 20
-14.07823
 30
0.0
 10
-10.7892
 20
-14.07823
 30
0.0
 10
-10.79802
 20
-14.0855
 30
0.0
 10
-10.80853
 20
-14.09128
 30
0.0
 10
-10.82081
 20
-14.09559
 30
0.0
 10
-10.82081
 20
-14.09559
 30
0.0
 10
-10.83316
 20
-14.09989
 30
0.0
 10
-10.84699
 20
-14.10215
 30
0.0
 10
-10.86237
 20
-14.10222
 30
0.0
 10
-10.86237
 20
-14.10222
 30
0.0
 10
-10.87761
 20
-14.10222
 30
0.0
 10
-10.892
 20
-14.10046
 30
0.0
 10
-10.90541
 20
-14.09693
 30
0.0
 10
-10.90541
 20
-14.09693
 30
0.0
 10
-10.91888
 20
-14.09333
 30
0.0
 10
-10.93081
 20
-14.08776
 30
0.0
 10
-10.94118
 20
-14.08021
 30
0.0
 10
-10.94118
 20
-14.08021
 30
0.0
 10
-10.95148
 20
-14.07259
 30
0.0
 10
-10.95966
 20
-14.06278
 30
0.0
 10
-10.96552
 20
-14.05079
 30
0.0
 10
-10.96552
 20
-14.05079
 30
0.0
 10
-10.97145
 20
-14.03872
 30
0.0
 10
-10.97441
 20
-14.02426
 30
0.0
 10
-10.97455
 20
-14.00739
 30
0.0
  0
SPLINE
  5
6F
330
1F
100
AcDbEntity
  8
Layer 1
 62
    30
370
    53
100
AcDbSpline
210
0.0
220
0.0
230
1.0
 70
    11
 71
     3
 72
    92
 73
    88
 74
     0
 42
0.0000000001
 43
0.0000000001
 40
0.0
 40
0.0
 40
0.0
 40
0.0
 40
0.0454545454545455
 40
0.0454545454545455
 40
0.0454545454545455
 40
0.0454545454545455
 40
0.0909090909090909
 40
0.0909090909090909
 40
0.0909090909090909
 40
0.0909090909090909
 40
0.1363636363636364
 40
0.1363636363636364
 40
0.1363636363636364
 40
0.1363636363636364
 40
0.1818181818181818
 40
0.1818181818181818
 40
0.1818181818181818
 40
0.1818181818181818
 40
0.2272727272727273
 40
0.2272727272727273
 40
0.2272727272727273
 40
0.2272727272727273
 40
0.2727272727272728
 40
0.2727272727272728
 40
0.2727272727272728
 40
0.2727272727272728
 40
0.3181818181818182
 40
0.3181818181818182
 40
0.3181818181818182
 40
0.3181818181818182
 40
0.3636363636363637
 40
0.3636363636363637
 40
0.3636363636363637
 40
0.3636363636363637
 40
0.4090909090909092
 40
0.4090909090909092
 40
0.4090909090909092
 40
0.4090909090909092
 40
0.4545454545454546
 40
0.4545454545454546
 40
0.4545454545454546
 40
0.4545454545454546
 40
0.5000000000000001
 40
0.5000000000000001
 40
0.5000000000000001
 40
0.5000000000000001
 40
0.5454545454545455
 40
0.5454545454545455
 40
0.5454545454545455
 40
0.5454545454545455
 40
0.5909090909090909
 40
0.5909090909090909
 40
0.5909090909090909
 40
0.5909090909090909
 40
0.6363636363636364
 40
0.6363636363636364
 40
0.6363636363636364
 40
0.6363636363636364
 40
0.6818181818181818
 40
0.6818181818181818
 40
0.6818181818181818
 40
0.6818181818181818
 40
0.7272727272727272
 40
0.7272727272727272
 40
0.7272727272727272
 40
0.7272727272727272
 40
0.7727272727272726
 40
0.7727272727272726
 40
0.7727272727272726
 40
0.7727272727272726
 40
0.818181818181818
 40
0.818181818181818
 40
0.818181818181818
 40
0.818181818181818
 40
0.8636363636363634
 40
0.8636363636363634
 40
0.8636363636363634
 40
0.8636363636363634
 40
0.9090909090909088
 40
0.9090909090909088
 40
0.9090909090909088
 40
0.9090909090909088
 40
0.9545454545454543
 40
0.9545454545454543
 40
0.9545454545454543
 40
0.9545454545454543
 40
1.0
 40
1.0
 40
1.0
 40
1.0
 10
-10.6126
 20
-14.09968
 30
0.0
 10
-10.6126
 20
-14.09968
 30
0.0
 10
-10.6126
 20
-13.79446
 30
0.0
 10
-10.6126
 20
-13.79446
 30
0.0
 10
-10.6126
 20
-13.79446
 30
0.0
 10
-10.6126
 20
-13.79446
 30
0.0
 10
-10.51523
 20
-13.79446
 30
0.0
 10
-10.51523
 20
-13.79446
 30
0.0
 10
-10.51523
 20
-13.79446
 30
0.0
 10
-10.49576
 20
-13.79453
 30
0.0
 10
-10.47975
 20
-13.79672
 30
0.0
 10
-10.46712
 20
-13.80095
 30
0.0
 10
-10.46712
 20
-13.80095
 30
0.0
 10
-10.45456
 20
-13.80511
 30
0.0
 10
-10.44468
 20
-13.8109
 30
0.0
 10
-10.43755
 20
-13.81824
 30
0.0
 10
-10.43755
 20
-13.81824
 30
0.0
 10
-10.43043
 20
-13.8255
 30
0.0
 10
-10.42535
 20
-13.83383
 30
0.0
 10
-10.42224
 20
-13.84321
 30
0.0
 10
-10.42224
 20
-13.84321
 30
0.0
 10
-10.41921
 20
-13.8526
 30
0.0
 10
-10.41745
 20
-13.8624
 30
0.0
 10
-10.41702
 20
-13.87278
 30
0.0
 10
-10.41702
 20
-13.87278
 30
0.0
 10
-10.41653
 20
-13.88315
 30
0.0
 10
-10.41773
 20
-13.89331
 30
0.0
 10
-10.42055
 20
-13.90318
 30
0.0
 10
-10.42055
 20
-13.90318
 30
0.0
 10
-10.42344
 20
-13.91306
 30
0.0
 10
-10.42831
 20
-13.92202
 30
0.0
 10
-10.4353
 20
-13.93007
 30
0.0
 10
-10.4353
 20
-13.93007
 30
0.0
 10
-10.44221
 20
-13.93811
 30
0.0
 10
-10.45159
 20
-13.94453
 30
0.0
 10
-10.46338
 20
-13.94926
 30
0.0
 10
-10.46338
 20
-13.94926
 30
0.0
 10
-10.47516
 20
-13.95405
 30
0.0
 10
-10.48976
 20
-13.95645
 30
0.0
 10
-10.50719
 20
-13.95659
 30
0.0
 10
-10.50719
 20
-13.95659
 30
0.0
 10
-10.50719
 20
-13.95659
 30
0.0
 10
-10.6126
 20
-13.95659
 30
0.0
 10
-10.6126
 20
-13.95659
 30
0.0
 10
-10.6126
 20
-13.95659
 30
0.0
 10
-10.6126
 20
-13.95659
 30
0.0
 10
-10.50719
 20
-13.95659
 30
0.0
 10
-10.50719
 20
-13.95659
 30
0.0
 10
-10.50719
 20
-13.95659
 30
0.0
 10
-10.49012
 20
-13.95645
 30
0.0
 10
-10.47565
 20
-13.95405
 30
0.0
 10
-10.46394
 20
-13.94926
 30
0.0
 10
-10.46394
 20
-13.94926
 30
0.0
 10
-10.45216
 20
-13.94453
 30
0.0
 10
-10.44277
 20
-13.93811
 30
0.0
 10
-10.43572
 20
-13.93007
 30
0.0
 10
-10.43572
 20
-13.93007
 30
0.0
 10
-10.42873
 20
-13.92202
 30
0.0
 10
-10.42372
 20
-13.91306
 30
0.0
 10
-10.42076
 20
-13.90318
 30
0.0
 10
-10.42076
 20
-13.90318
 30
0.0
 10
-10.4178
 20
-13.89331
 30
0.0
 10
-10.41653
 20
-13.88315
 30
0.0
 10
-10.41702
 20
-13.87278
 30
0.0
 10
-10.41702
 20
-13.87278
 30
0.0
 10
-10.41745
 20
-13.8624
 30
0.0
 10
-10.41921
 20
-13.8526
 30
0.0
 10
-10.42238
 20
-13.84321
 30
0.0
 10
-10.42238
 20
-13.84321
 30
0.0
 10
-10.42549
 20
-13.83383
 30
0.0
 10
-10.43071
 20
-13.8255
 30
0.0
 10
-10.43784
 20
-13.81824
 30
0.0
 10
-10.43784
 20
-13.81824
 30
0.0
 10
-10.44503
 20
-13.8109
 30
0.0
 10
-10.45491
 20
-13.80511
 30
0.0
 10
-10.46747
 20
-13.80095
 30
0.0
 10
-10.46747
 20
-13.80095
 30
0.0
 10
-10.4801
 20
-13.79672
 30
0.0
 10
-10.49597
 20
-13.79453
 30
0.0
 10
-10.51523
 20
-13.79446
 30
0.0
 10
-10.51523
 20
-13.79446
 30
0.0
 10
-10.51523
 20
-13.79446
 30
0.0
 10
-10.6126
 20
-13.79446
 30
0.0
 10
-10.6126
 20
-13.79446
 30
0.0
 10
-10.6126
 20
-13.79446
 30
0.0
 10
-10.6126
 20
-13.79446
 30
0.0
 10
-10.6126
 20
-14.09968
 30
0.0
 10
-10.6126
 20
-14.09968
 30
0.0
  0
SPLINE
  5
70
330
1F
100
AcDbEntity
  8
Layer 1
 62
    30
370
    53
100
AcDbSpline
210
0.0
220
0.0
230
1.0
 70
    27
 71
     3
 72
    12
 73
     8
 74
     0
 42
0.0000000001
 43
0.0000000001
 40
0.0
 40
0.0
 40
0.0
 40
0.0
 40
0.5
 40
0.5
 40
0.5
 40
0.5
 40
1.0
 40
1.0
 40
1.0
 40
1.0
 10
-10.31204
 20
-13.94008
 30
0.0
 10
-10.31204
 20
-13.94008
 30
0.0
 10
-10.18885
 20
-13.94008
 30
0.0
 10
-10.18885
 20
-13.94008
 30
0.0
 10
-10.18885
 20
-13.94008
 30
0.0
 10
-10.18885
 20
-13.94008
 30
0.0
 10
-10.31204
 20
-13.94008
 30
0.0
 10
-10.31204
 20
-13.94008
 30
0.0
  0
SPLINE
  5
71
330
1F
100
AcDbEntity
  8
Layer 1
 62
    30
370
    53
100
AcDbSpline
210
0.0
220
0.0
230
1.0
 70
    11
 71
     3
 72
    84
 73
    80
 74
     0
 42
0.0000000001
 43
0.0000000001
 40
0.0
 40
0.0
 40
0.0
 40
0.0
 40
0.05
 40
0.05
 40
0.05
 40
0.05
 40
0.1
 40
0.1
 40
0.1
 40
0.1
 40
0.15
 40
0.15
 40
0.15
 40
0.15
 40
0.2
 40
0.2
 40
0.2
 40
0.2
 40
0.25
 40
0.25
 40
0.25
 40
0.25
 40
0.3
 40
0.3
 40
0.3
 40
0.3
 40
0.35
 40
0.35
 40
0.35
 40
0.35
 40
0.4
 40
0.4
 40
0.4
 40
0.4
 40
0.45
 40
0.45
 40
0.45
 40
0.45
 40
0.4999999999999999
 40
0.4999999999999999
 40
0.4999999999999999
 40
0.4999999999999999
 40
0.5499999999999999
 40
0.5499999999999999
 40
0.5499999999999999
 40
0.5499999999999999
 40
0.6
 40
0.6
 40
0.6
 40
0.6
 40
0.65
 40
0.65
 40
0.65
 40
0.65
 40
0.7000000000000001
 40
0.7000000000000001
 40
0.7000000000000001
 40
0.7000000000000001
 40
0.7500000000000001
 40
0.7500000000000001
 40
0.7500000000000001
 40
0.7500000000000001
 40
0.8000000000000002
 40
0.8000000000000002
 40
0.8000000000000002
 40
0.8000000000000002
 40
0.8500000000000002
 40
0.8500000000000002
 40
0.8500000000000002
 40
0.8500000000000002
 40
0.9000000000000002
 40
0.9000000000000002
 40
0.9000000000000002
 40
0.9000000000000002
 40
0.9500000000000003
 40
0.9500000000000003
 40
0.9500000000000003
 40
0.9500000000000003
 40
1.0
 40
1.0
 40
1.0
 40
1.0
 10
-9.99962
 20
-14.09968
 30
0.0
 10
-9.98481
 20
-14.09961
 30
0.0
 10
-9.97204
 20
-14.097
 30
0.0
 10
-9.96138
 20
-14.09192
 30
0.0
 10
-9.96138
 20
-14.09192
 30
0.0
 10
-9.9508
 20
-14.08684
 30
0.0
 10
-9.94198
 20
-14.07957
 30
0.0
 10
-9.93493
 20
-14.07033
 30
0.0
 10
-9.93493
 20
-14.07033
 30
0.0
 10
-9.92794
 20
-14.06102
 30
0.0
 10
-9.92244
 20
-14.05001
 30
0.0
 10
-9.91835
 20
-14.03731
 30
0.0
 10
-9.91835
 20
-14.03731
 30
0.0
 10
-9.91432
 20
-14.02461
 30
0.0
 10
-9.91143
 20
-14.01071
 30
0.0
 10
-9.90981
 20
-13.99547
 30
0.0
 10
-9.90981
 20
-13.99547
 30
0.0
 10
-9.90811
 20
-13.98023
 30
0.0
 10
-9.90727
 20
-13.96421
 30
0.0
 10
-9.90734
 20
-13.94728
 30
0.0
 10
-9.90734
 20
-13.94728
 30
0.0
 10
-9.90727
 20
-13.93042
 30
0.0
 10
-9.90811
 20
-13.9144
 30
0.0
 10
-9.90981
 20
-13.89923
 30
0.0
 10
-9.90981
 20
-13.89923
 30
0.0
 10
-9.91143
 20
-13.88406
 30
0.0
 10
-9.91432
 20
-13.87009
 30
0.0
 10
-9.91835
 20
-13.85739
 30
0.0
 10
-9.91835
 20
-13.85739
 30
0.0
 10
-9.92244
 20
-13.84476
 30
0.0
 10
-9.92794
 20
-13.83376
 30
0.0
 10
-9.93493
 20
-13.82437
 30
0.0
 10
-9.93493
 20
-13.82437
 30
0.0
 10
-9.94198
 20
-13.81506
 30
0.0
 10
-9.9508
 20
-13.80779
 30
0.0
 10
-9.96138
 20
-13.80271
 30
0.0
 10
-9.96138
 20
-13.80271
 30
0.0
 10
-9.97204
 20
-13.79756
 30
0.0
 10
-9.98481
 20
-13.79495
 30
0.0
 10
-9.99962
 20
-13.79488
 30
0.0
 10
-9.99962
 20
-13.79488
 30
0.0
 10
-10.01444
 20
-13.79495
 30
0.0
 10
-10.02721
 20
-13.79756
 30
0.0
 10
-10.03787
 20
-13.80271
 30
0.0
 10
-10.03787
 20
-13.80271
 30
0.0
 10
-10.04845
 20
-13.80779
 30
0.0
 10
-10.05727
 20
-13.81506
 30
0.0
 10
-10.06432
 20
-13.82437
 30
0.0
 10
-10.06432
 20
-13.82437
 30
0.0
 10
-10.07131
 20
-13.83376
 30
0.0
 10
-10.07681
 20
-13.84476
 30
0.0
 10
-10.0809
 20
-13.85739
 30
0.0
 10
-10.0809
 20
-13.85739
 30
0.0
 10
-10.08493
 20
-13.87009
 30
0.0
 10
-10.08782
 20
-13.88406
 30
0.0
 10
-10.08944
 20
-13.89923
 30
0.0
 10
-10.08944
 20
-13.89923
 30
0.0
 10
-10.09113
 20
-13.9144
 30
0.0
 10
-10.09198
 20
-13.93042
 30
0.0
 10
-10.09191
 20
-13.94728
 30
0.0
 10
-10.09191
 20
-13.94728
 30
0.0
 10
-10.09198
 20
-13.96421
 30
0.0
 10
-10.09113
 20
-13.98023
 30
0.0
 10
-10.08944
 20
-13.99547
 30
0.0
 10
-10.08944
 20
-13.99547
 30
0.0
 10
-10.08782
 20
-14.01071
 30
0.0
 10
-10.08493
 20
-14.02461
 30
0.0
 10
-10.0809
 20
-14.03731
 30
0.0
 10
-10.0809
 20
-14.03731
 30
0.0
 10
-10.07681
 20
-14.05001
 30
0.0
 10
-10.07131
 20
-14.06102
 30
0.0
 10
-10.06432
 20
-14.07033
 30
0.0
 10
-10.06432
 20
-14.07033
 30
0.0
 10
-10.05727
 20
-14.07957
 30
0.0
 10
-10.04845
 20
-14.08684
 30
0.0
 10
-10.03787
 20
-14.09192
 30
0.0
 10
-10.03787
 20
-14.09192
 30
0.0
 10
-10.02721
 20
-14.097
 30
0.0
 10
-10.01444
 20
-14.09961
 30
0.0
 10
-9.99962
 20
-14.09968
 30
0.0
  0
SPLINE
  5
72
330
1F
100
AcDbEntity
  8
Layer 1
 62
    30
370
    53
100
AcDbSpline
210
0.0
220
0.0
230
1.0
 70
    11
 71
     3
 72
    84
 73
    80
 74
     0
 42
0.0000000001
 43
0.0000000001
 40
0.0
 40
0.0
 40
0.0
 40
0.0
 40
0.05
 40
0.05
 40
0.05
 40
0.05
 40
0.1
 40
0.1
 40
0.1
 40
0.1
 40
0.15
 40
0.15
 40
0.15
 40
0.15
 40
0.2
 40
0.2
 40
0.2
 40
0.2
 40
0.25
 40
0.25
 40
0.25
 40
0.25
 40
0.3
 40
0.3
 40
0.3
 40
0.3
 40
0.35
 40
0.35
 40
0.35
 40
0.35
 40
0.4
 40
0.4
 40
0.4
 40
0.4
 40
0.45
 40
0.45
 40
0.45
 40
0.45
 40
0.4999999999999999
 40
0.4999999999999999
 40
0.4999999999999999
 40
0.4999999999999999
 40
0.5499999999999999
 40
0.5499999999999999
 40
0.5499999999999999
 40
0.5499999999999999
 40
0.6
 40
0.6
 40
0.6
 40
0.6
 40
0.65
 40
0.65
 40
0.65
 40
0.65
 40
0.7000000000000001
 40
0.7000000000000001
 40
0.7000000000000001
 40
0.7000000000000001
 40
0.7500000000000001
 40
0.7500000000000001
 40
0.7500000000000001
 40
0.7500000000000001
 40
0.8000000000000002
 40
0.8000000000000002
 40
0.8000000000000002
 40
0.8000000000000002
 40
0.8500000000000002
 40
0.8500000000000002
 40
0.8500000000000002
 40
0.8500000000000002
 40
0.9000000000000002
 40
0.9000000000000002
 40
0.9000000000000002
 40
0.9000000000000002
 40
0.9500000000000003
 40
0.9500000000000003
 40
0.9500000000000003
 40
0.9500000000000003
 40
1.0
 40
1.0
 40
1.0
 40
1.0
 10
-9.99962
 20
-14.09968
 30
0.0
 10
-9.98481
 20
-14.09961
 30
0.0
 10
-9.97204
 20
-14.097
 30
0.0
 10
-9.96138
 20
-14.09192
 30
0.0
 10
-9.96138
 20
-14.09192
 30
0.0
 10
-9.9508
 20
-14.08684
 30
0.0
 10
-9.94198
 20
-14.07957
 30
0.0
 10
-9.93493
 20
-14.07033
 30
0.0
 10
-9.93493
 20
-14.07033
 30
0.0
 10
-9.92794
 20
-14.06102
 30
0.0
 10
-9.92244
 20
-14.05001
 30
0.0
 10
-9.91835
 20
-14.03731
 30
0.0
 10
-9.91835
 20
-14.03731
 30
0.0
 10
-9.91432
 20
-14.02461
 30
0.0
 10
-9.91143
 20
-14.01071
 30
0.0
 10
-9.90981
 20
-13.99547
 30
0.0
 10
-9.90981
 20
-13.99547
 30
0.0
 10
-9.90811
 20
-13.98023
 30
0.0
 10
-9.90727
 20
-13.96421
 30
0.0
 10
-9.90734
 20
-13.94728
 30
0.0
 10
-9.90734
 20
-13.94728
 30
0.0
 10
-9.90727
 20
-13.93042
 30
0.0
 10
-9.90811
 20
-13.9144
 30
0.0
 10
-9.90981
 20
-13.89923
 30
0.0
 10
-9.90981
 20
-13.89923
 30
0.0
 10
-9.91143
 20
-13.88406
 30
0.0
 10
-9.91432
 20
-13.87009
 30
0.0
 10
-9.91835
 20
-13.85739
 30
0.0
 10
-9.91835
 20
-13.85739
 30
0.0
 10
-9.92244
 20
-13.84476
 30
0.0
 10
-9.92794
 20
-13.83376
 30
0.0
 10
-9.93493
 20
-13.82437
 30
0.0
 10
-9.93493
 20
-13.82437
 30
0.0
 10
-9.94198
 20
-13.81506
 30
0.0
 10
-9.9508
 20
-13.80779
 30
0.0
 10
-9.96138
 20
-13.80271
 30
0.0
 10
-9.96138
 20
-13.80271
 30
0.0
 10
-9.97204
 20
-13.79756
 30
0.0
 10
-9.98481
 20
-13.79495
 30
0.0
 10
-9.99962
 20
-13.79488
 30
0.0
 10
-9.99962
 20
-13.79488
 30
0.0
 10
-10.01444
 20
-13.79495
 30
0.0
 10
-10.02721
 20
-13.79756
 30
0.0
 10
-10.03787
 20
-13.80271
 30
0.0
 10
-10.03787
 20
-13.80271
 30
0.0
 10
-10.04845
 20
-13.80779
 30
0.0
 10
-10.05727
 20
-13.81506
 30
0.0
 10
-10.06432
 20
-13.82437
 30
0.0
 10
-10.06432
 20
-13.82437
 30
0.0
 10
-10.07131
 20
-13.83376
 30
0.0
 10
-10.07681
 20
-13.84476
 30
0.0
 10
-10.0809
 20
-13.85739
 30
0.0
 10
-10.0809
 20
-13.85739
 30
0.0
 10
-10.08493
 20
-13.87009
 30
0.0
 10
-10.08782
 20
-13.88406
 30
0.0
 10
-10.08944
 20
-13.89923
 30
0.0
 10
-10.08944
 20
-13.89923
 30
0.0
 10
-10.09113
 20
-13.9144
 30
0.0
 10
-10.09198
 20
-13.93042
 30
0.0
 10
-10.09191
 20
-13.94728
 30
0.0
 10
-10.09191
 20
-13.94728
 30
0.0
 10
-10.09198
 20
-13.96421
 30
0.0
 10
-10.09113
 20
-13.98023
 30
0.0
 10
-10.08944
 20
-13.99547
 30
0.0
 10
-10.08944
 20
-13.99547
 30
0.0
 10
-10.08782
 20
-14.01071
 30
0.0
 10
-10.08493
 20
-14.02461
 30
0.0
 10
-10.0809
 20
-14.03731
 30
0.0
 10
-10.0809
 20
-14.03731
 30
0.0
 10
-10.07681
 20
-14.05001
 30
0.0
 10
-10.07131
 20
-14.06102
 30
0.0
 10
-10.06432
 20
-14.07033
 30
0.0
 10
-10.06432
 20
-14.07033
 30
0.0
 10
-10.05727
 20
-14.07957
 30
0.0
 10
-10.04845
 20
-14.08684
 30
0.0
 10
-10.03787
 20
-14.09192
 30
0.0
 10
-10.03787
 20
-14.09192
 30
0.0
 10
-10.02721
 20
-14.097
 30
0.0
 10
-10.01444
 20
-14.09961
 30
0.0
 10
-9.99962
 20
-14.09968
 30
0.0
  0
SPLINE
  5
73
330
1F
100
AcDbEntity
  8
Layer 1
 62
    30
370
    53
100
AcDbSpline
210
0.0
220
0.0
230
1.0
 70
    11
 71
     3
 72
   236
 73
   232
 74
     0
 42
0.0000000001
 43
0.0000000001
 40
0.0
 40
0.0
 40
0.0
 40
0.0
 40
0.0172413793103448
 40
0.0172413793103448
 40
0.0172413793103448
 40
0.0172413793103448
 40
0.0344827586206897
 40
0.0344827586206897
 40
0.0344827586206897
 40
0.0344827586206897
 40
0.0517241379310345
 40
0.0517241379310345
 40
0.0517241379310345
 40
0.0517241379310345
 40
0.0689655172413793
 40
0.0689655172413793
 40
0.0689655172413793
 40
0.0689655172413793
 40
0.0862068965517241
 40
0.0862068965517241
 40
0.0862068965517241
 40
0.0862068965517241
 40
0.103448275862069
 40
0.103448275862069
 40
0.103448275862069
 40
0.103448275862069
 40
0.1206896551724138
 40
0.1206896551724138
 40
0.1206896551724138
 40
0.1206896551724138
 40
0.1379310344827586
 40
0.1379310344827586
 40
0.1379310344827586
 40
0.1379310344827586
 40
0.1551724137931035
 40
0.1551724137931035
 40
0.1551724137931035
 40
0.1551724137931035
 40
0.1724137931034483
 40
0.1724137931034483
 40
0.1724137931034483
 40
0.1724137931034483
 40
0.1896551724137931
 40
0.1896551724137931
 40
0.1896551724137931
 40
0.1896551724137931
 40
0.206896551724138
 40
0.206896551724138
 40
0.206896551724138
 40
0.206896551724138
 40
0.2241379310344828
 40
0.2241379310344828
 40
0.2241379310344828
 40
0.2241379310344828
 40
0.2413793103448277
 40
0.2413793103448277
 40
0.2413793103448277
 40
0.2413793103448277
 40
0.2586206896551725
 40
0.2586206896551725
 40
0.2586206896551725
 40
0.2586206896551725
 40
0.2758620689655173
 40
0.2758620689655173
 40
0.2758620689655173
 40
0.2758620689655173
 40
0.2931034482758621
 40
0.2931034482758621
 40
0.2931034482758621
 40
0.2931034482758621
 40
0.3103448275862069
 40
0.3103448275862069
 40
0.3103448275862069
 40
0.3103448275862069
 40
0.3275862068965517
 40
0.3275862068965517
 40
0.3275862068965517
 40
0.3275862068965517
 40
0.3448275862068965
 40
0.3448275862068965
 40
0.3448275862068965
 40
0.3448275862068965
 40
0.3620689655172413
 40
0.3620689655172413
 40
0.3620689655172413
 40
0.3620689655172413
 40
0.3793103448275861
 40
0.3793103448275861
 40
0.3793103448275861
 40
0.3793103448275861
 40
0.3965517241379309
 40
0.3965517241379309
 40
0.3965517241379309
 40
0.3965517241379309
 40
0.4137931034482757
 40
0.4137931034482757
 40
0.4137931034482757
 40
0.4137931034482757
 40
0.4310344827586206
 40
0.4310344827586206
 40
0.4310344827586206
 40
0.4310344827586206
 40
0.4482758620689654
 40
0.4482758620689654
 40
0.4482758620689654
 40
0.4482758620689654
 40
0.4655172413793102
 40
0.4655172413793102
 40
0.4655172413793102
 40
0.4655172413793102
 40
0.482758620689655
 40
0.482758620689655
 40
0.482758620689655
 40
0.482758620689655
 40
0.4999999999999998
 40
0.4999999999999998
 40
0.4999999999999998
 40
0.4999999999999998
 40
0.5172413793103446
 40
0.5172413793103446
 40
0.5172413793103446
 40
0.5172413793103446
 40
0.5344827586206895
 40
0.5344827586206895
 40
0.5344827586206895
 40
0.5344827586206895
 40
0.5517241379310344
 40
0.5517241379310344
 40
0.5517241379310344
 40
0.5517241379310344
 40
0.5689655172413792
 40
0.5689655172413792
 40
0.5689655172413792
 40
0.5689655172413792
 40
0.5862068965517241
 40
0.5862068965517241
 40
0.5862068965517241
 40
0.5862068965517241
 40
0.603448275862069
 40
0.603448275862069
 40
0.603448275862069
 40
0.603448275862069
 40
0.6206896551724138
 40
0.6206896551724138
 40
0.6206896551724138
 40
0.6206896551724138
 40
0.6379310344827587
 40
0.6379310344827587
 40
0.6379310344827587
 40
0.6379310344827587
 40
0.6551724137931035
 40
0.6551724137931035
 40
0.6551724137931035
 40
0.6551724137931035
 40
0.6724137931034484
 40
0.6724137931034484
 40
0.6724137931034484
 40
0.6724137931034484
 40
0.6896551724137933
 40
0.6896551724137933
 40
0.6896551724137933
 40
0.6896551724137933
 40
0.7068965517241381
 40
0.7068965517241381
 40
0.7068965517241381
 40
0.7068965517241381
 40
0.724137931034483
 40
0.724137931034483
 40
0.724137931034483
 40
0.724137931034483
 40
0.7413793103448278
 40
0.7413793103448278
 40
0.7413793103448278
 40
0.7413793103448278
 40
0.7586206896551727
 40
0.7586206896551727
 40
0.7586206896551727
 40
0.7586206896551727
 40
0.7758620689655176
 40
0.7758620689655176
 40
0.7758620689655176
 40
0.7758620689655176
 40
0.7931034482758624
 40
0.7931034482758624
 40
0.7931034482758624
 40
0.7931034482758624
 40
0.8103448275862073
 40
0.8103448275862073
 40
0.8103448275862073
 40
0.8103448275862073
 40
0.8275862068965522
 40
0.8275862068965522
 40
0.8275862068965522
 40
0.8275862068965522
 40
0.844827586206897
 40
0.844827586206897
 40
0.844827586206897
 40
0.844827586206897
 40
0.8620689655172419
 40
0.8620689655172419
 40
0.8620689655172419
 40
0.8620689655172419
 40
0.8793103448275867
 40
0.8793103448275867
 40
0.8793103448275867
 40
0.8793103448275867
 40
0.8965517241379316
 40
0.8965517241379316
 40
0.8965517241379316
 40
0.8965517241379316
 40
0.9137931034482765
 40
0.9137931034482765
 40
0.9137931034482765
 40
0.9137931034482765
 40
0.9310344827586213
 40
0.9310344827586213
 40
0.9310344827586213
 40
0.9310344827586213
 40
0.9482758620689662
 40
0.9482758620689662
 40
0.9482758620689662
 40
0.9482758620689662
 40
0.965517241379311
 40
0.965517241379311
 40
0.965517241379311
 40
0.965517241379311
 40
0.9827586206896559
 40
0.9827586206896559
 40
0.9827586206896559
 40
0.9827586206896559
 40
1.0
 40
1.0
 40
1.0
 40
1.0
 10
-9.78711
 20
-14.00782
 30
0.0
 10
-9.78704
 20
-13.99399
 30
0.0
 10
-9.78479
 20
-13.9815
 30
0.0
 10
-9.78027
 20
-13.97021
 30
0.0
 10
-9.78027
 20
-13.97021
 30
0.0
 10
-9.77583
 20
-13.95899
 30
0.0
 10
-9.76955
 20
-13.94933
 30
0.0
 10
-9.76143
 20
-13.94121
 30
0.0
 10
-9.76143
 20
-13.94121
 30
0.0
 10
-9.75339
 20
-13.93317
 30
0.0
 10
-9.74386
 20
-13.92696
 30
0.0
 10
-9.733
 20
-13.92259
 30
0.0
 10
-9.733
 20
-13.92259
 30
0.0
 10
-9.72213
 20
-13.91821
 30
0.0
 10
-9.71021
 20
-13.91603
 30
0.0
 10
-9.69737
 20
-13.91595
 30
0.0
 10
-9.69737
 20
-13.91595
 30
0.0
 10
-9.68446
 20
-13.91588
 30
0.0
 10
-9.67239
 20
-13.91751
 30
0.0
 10
-9.66117
 20
-13.92075
 30
0.0
 10
-9.66117
 20
-13.92075
 30
0.0
 10
-9.64995
 20
-13.92393
 30
0.0
 10
-9.64015
 20
-13.92915
 30
0.0
 10
-9.63161
 20
-13.93635
 30
0.0
 10
-9.63161
 20
-13.93635
 30
0.0
 10
-9.62307
 20
-13.94347
 30
0.0
 10
-9.61637
 20
-13.95293
 30
0.0
 10
-9.61157
 20
-13.96471
 30
0.0
 10
-9.61157
 20
-13.96471
 30
0.0
 10
-9.60678
 20
-13.97649
 30
0.0
 10
-9.60431
 20
-13.99081
 30
0.0
 10
-9.60424
 20
-14.00782
 30
0.0
 10
-9.60424
 20
-14.00782
 30
0.0
 10
-9.60431
 20
-14.02482
 30
0.0
 10
-9.60678
 20
-14.03914
 30
0.0
 10
-9.61157
 20
-14.05093
 30
0.0
 10
-9.61157
 20
-14.05093
 30
0.0
 10
-9.61637
 20
-14.06271
 30
0.0
 10
-9.62307
 20
-14.07216
 30
0.0
 10
-9.63161
 20
-14.07929
 30
0.0
 10
-9.63161
 20
-14.07929
 30
0.0
 10
-9.64015
 20
-14.08649
 30
0.0
 10
-9.64995
 20
-14.09171
 30
0.0
 10
-9.66117
 20
-14.09488
 30
0.0
 10
-9.66117
 20
-14.09488
 30
0.0
 10
-9.67239
 20
-14.09813
 30
0.0
 10
-9.68446
 20
-14.09975
 30
0.0
 10
-9.69737
 20
-14.09968
 30
0.0
 10
-9.69737
 20
-14.09968
 30
0.0
 10
-9.71021
 20
-14.09961
 30
0.0
 10
-9.72199
 20
-14.09742
 30
0.0
 10
-9.73279
 20
-14.09305
 30
0.0
 10
-9.73279
 20
-14.09305
 30
0.0
 10
-9.74351
 20
-14.08867
 30
0.0
 10
-9.75282
 20
-14.08246
 30
0.0
 10
-9.7608
 20
-14.07435
 30
0.0
 10
-9.7608
 20
-14.07435
 30
0.0
 10
-9.76877
 20
-14.06631
 30
0.0
 10
-9.77505
 20
-14.05664
 30
0.0
 10
-9.77956
 20
-14.04535
 30
0.0
 10
-9.77956
 20
-14.04535
 30
0.0
 10
-9.78415
 20
-14.03413
 30
0.0
 10
-9.78662
 20
-14.02165
 30
0.0
 10
-9.78711
 20
-14.00782
 30
0.0
 10
-9.78711
 20
-14.00782
 30
0.0
 10
-9.7874
 20
-14.00083
 30
0.0
 10
-9.78775
 20
-13.99251
 30
0.0
 10
-9.78824
 20
-13.98284
 30
0.0
 10
-9.78824
 20
-13.98284
 30
0.0
 10
-9.78874
 20
-13.9731
 30
0.0
 10
-9.78902
 20
-13.96252
 30
0.0
 10
-9.78909
 20
-13.95116
 30
0.0
 10
-9.78909
 20
-13.95116
 30
0.0
 10
-9.78916
 20
-13.93973
 30
0.0
 10
-9.78881
 20
-13.92795
 30
0.0
 10
-9.78789
 20
-13.91588
 30
0.0
 10
-9.78789
 20
-13.91588
 30
0.0
 10
-9.78704
 20
-13.90375
 30
0.0
 10
-9.78535
 20
-13.89182
 30
0.0
 10
-9.78288
 20
-13.88004
 30
0.0
 10
-9.78288
 20
-13.88004
 30
0.0
 10
-9.78041
 20
-13.86833
 30
0.0
 10
-9.77688
 20
-13.85725
 30
0.0
 10
-9.77223
 20
-13.84688
 30
0.0
 10
-9.77223
 20
-13.84688
 30
0.0
 10
-9.76757
 20
-13.83651
 30
0.0
 10
-9.76157
 20
-13.82734
 30
0.0
 10
-9.75416
 20
-13.81936
 30
0.0
 10
-9.75416
 20
-13.81936
 30
0.0
 10
-9.74669
 20
-13.81139
 30
0.0
 10
-9.73758
 20
-13.80511
 30
0.0
 10
-9.72679
 20
-13.80053
 30
0.0
 10
-9.72679
 20
-13.80053
 30
0.0
 10
-9.71599
 20
-13.79601
 30
0.0
 10
-9.70322
 20
-13.79368
 30
0.0
 10
-9.68848
 20
-13.79361
 30
0.0
 10
-9.68848
 20
-13.79361
 30
0.0
 10
-9.67564
 20
-13.79368
 30
0.0
 10
-9.66477
 20
-13.79495
 30
0.0
 10
-9.65574
 20
-13.79742
 30
0.0
 10
-9.65574
 20
-13.79742
 30
0.0
 10
-9.64671
 20
-13.79989
 30
0.0
 10
-9.6393
 20
-13.80321
 30
0.0
 10
-9.63337
 20
-13.8073
 30
0.0
 10
-9.63337
 20
-13.8073
 30
0.0
 10
-9.62752
 20
-13.81146
 30
0.0
 10
-9.62286
 20
-13.81598
 30
0.0
 10
-9.61948
 20
-13.82099
 30
0.0
 10
-9.61948
 20
-13.82099
 30
0.0
 10
-9.61609
 20
-13.82593
 30
0.0
 10
-9.61355
 20
-13.83094
 30
0.0
 10
-9.612
 20
-13.83595
 30
0.0
 10
-9.612
 20
-13.83595
 30
0.0
 10
-9.61037
 20
-13.84095
 30
0.0
 10
-9.60932
 20
-13.84561
 30
0.0
 10
-9.60889
 20
-13.84992
 30
0.0
 10
-9.60889
 20
-13.84992
 30
0.0
 10
-9.60932
 20
-13.84561
 30
0.0
 10
-9.61037
 20
-13.84095
 30
0.0
 10
-9.612
 20
-13.83595
 30
0.0
 10
-9.612
 20
-13.83595
 30
0.0
 10
-9.61355
 20
-13.83094
 30
0.0
 10
-9.61609
 20
-13.82593
 30
0.0
 10
-9.61948
 20
-13.82099
 30
0.0
 10
-9.61948
 20
-13.82099
 30
0.0
 10
-9.62286
 20
-13.81598
 30
0.0
 10
-9.62752
 20
-13.81146
 30
0.0
 10
-9.63337
 20
-13.8073
 30
0.0
 10
-9.63337
 20
-13.8073
 30
0.0
 10
-9.6393
 20
-13.80321
 30
0.0
 10
-9.64671
 20
-13.79989
 30
0.0
 10
-9.65574
 20
-13.79742
 30
0.0
 10
-9.65574
 20
-13.79742
 30
0.0
 10
-9.66477
 20
-13.79495
 30
0.0
 10
-9.67564
 20
-13.79368
 30
0.0
 10
-9.68848
 20
-13.79361
 30
0.0
 10
-9.68848
 20
-13.79361
 30
0.0
 10
-9.70322
 20
-13.79368
 30
0.0
 10
-9.71599
 20
-13.79601
 30
0.0
 10
-9.72679
 20
-13.80053
 30
0.0
 10
-9.72679
 20
-13.80053
 30
0.0
 10
-9.73758
 20
-13.80511
 30
0.0
 10
-9.74669
 20
-13.81139
 30
0.0
 10
-9.75416
 20
-13.81936
 30
0.0
 10
-9.75416
 20
-13.81936
 30
0.0
 10
-9.76157
 20
-13.82734
 30
0.0
 10
-9.76757
 20
-13.83651
 30
0.0
 10
-9.77223
 20
-13.84688
 30
0.0
 10
-9.77223
 20
-13.84688
 30
0.0
 10
-9.77688
 20
-13.85725
 30
0.0
 10
-9.78041
 20
-13.86833
 30
0.0
 10
-9.78288
 20
-13.88004
 30
0.0
 10
-9.78288
 20
-13.88004
 30
0.0
 10
-9.78535
 20
-13.89182
 30
0.0
 10
-9.78704
 20
-13.90375
 30
0.0
 10
-9.78789
 20
-13.91588
 30
0.0
 10
-9.78789
 20
-13.91588
 30
0.0
 10
-9.78881
 20
-13.92795
 30
0.0
 10
-9.78916
 20
-13.93973
 30
0.0
 10
-9.78909
 20
-13.95116
 30
0.0
 10
-9.78909
 20
-13.95116
 30
0.0
 10
-9.78902
 20
-13.96252
 30
0.0
 10
-9.78874
 20
-13.9731
 30
0.0
 10
-9.78824
 20
-13.98284
 30
0.0
 10
-9.78824
 20
-13.98284
 30
0.0
 10
-9.78775
 20
-13.99251
 30
0.0
 10
-9.7874
 20
-14.00083
 30
0.0
 10
-9.78711
 20
-14.00782
 30
0.0
 10
-9.78711
 20
-14.00782
 30
0.0
 10
-9.78662
 20
-14.02165
 30
0.0
 10
-9.78415
 20
-14.03413
 30
0.0
 10
-9.77956
 20
-14.04535
 30
0.0
 10
-9.77956
 20
-14.04535
 30
0.0
 10
-9.77505
 20
-14.05664
 30
0.0
 10
-9.76877
 20
-14.06631
 30
0.0
 10
-9.7608
 20
-14.07435
 30
0.0
 10
-9.7608
 20
-14.07435
 30
0.0
 10
-9.75282
 20
-14.08246
 30
0.0
 10
-9.74351
 20
-14.08867
 30
0.0
 10
-9.73279
 20
-14.09305
 30
0.0
 10
-9.73279
 20
-14.09305
 30
0.0
 10
-9.72199
 20
-14.09742
 30
0.0
 10
-9.71021
 20
-14.09961
 30
0.0
 10
-9.69737
 20
-14.09968
 30
0.0
 10
-9.69737
 20
-14.09968
 30
0.0
 10
-9.68446
 20
-14.09975
 30
0.0
 10
-9.67239
 20
-14.09813
 30
0.0
 10
-9.66117
 20
-14.09488
 30
0.0
 10
-9.66117
 20
-14.09488
 30
0.0
 10
-9.64995
 20
-14.09171
 30
0.0
 10
-9.64015
 20
-14.08649
 30
0.0
 10
-9.63161
 20
-14.07929
 30
0.0
 10
-9.63161
 20
-14.07929
 30
0.0
 10
-9.62307
 20
-14.07216
 30
0.0
 10
-9.61637
 20
-14.06271
 30
0.0
 10
-9.61157
 20
-14.05093
 30
0.0
 10
-9.61157
 20
-14.05093
 30
0.0
 10
-9.60678
 20
-14.03914
 30
0.0
 10
-9.60431
 20
-14.02482
 30
0.0
 10
-9.60424
 20
-14.00782
 30
0.0
 10
-9.60424
 20
-14.00782
 30
0.0
 10
-9.60431
 20
-13.99081
 30
0.0
 10
-9.60678
 20
-13.97649
 30
0.0
 10
-9.61157
 20
-13.96471
 30
0.0
 10
-9.61157
 20
-13.96471
 30
0.0
 10
-9.61637
 20
-13.95293
 30
0.0
 10
-9.62307
 20
-13.94347
 30
0.0
 10
-9.63161
 20
-13.93635
 30
0.0
 10
-9.63161
 20
-13.93635
 30
0.0
 10
-9.64015
 20
-13.92915
 30
0.0
 10
-9.64995
 20
-13.92393
 30
0.0
 10
-9.66117
 20
-13.92075
 30
0.0
 10
-9.66117
 20
-13.92075
 30
0.0
 10
-9.67239
 20
-13.91751
 30
0.0
 10
-9.68446
 20
-13.91588
 30
0.0
 10
-9.69737
 20
-13.91595
 30
0.0
 10
-9.69737
 20
-13.91595
 30
0.0
 10
-9.71021
 20
-13.91603
 30
0.0
 10
-9.72213
 20
-13.91821
 30
0.0
 10
-9.733
 20
-13.92259
 30
0.0
 10
-9.733
 20
-13.92259
 30
0.0
 10
-9.74386
 20
-13.92696
 30
0.0
 10
-9.75339
 20
-13.93317
 30
0.0
 10
-9.76143
 20
-13.94121
 30
0.0
 10
-9.76143
 20
-13.94121
 30
0.0
 10
-9.76955
 20
-13.94933
 30
0.0
 10
-9.77583
 20
-13.95899
 30
0.0
 10
-9.78027
 20
-13.97021
 30
0.0
 10
-9.78027
 20
-13.97021
 30
0.0
 10
-9.78479
 20
-13.9815
 30
0.0
 10
-9.78704
 20
-13.99399
 30
0.0
 10
-9.78711
 20
-14.00782
 30
0.0
  0
SPLINE
  5
74
330
1F
100
AcDbEntity
  8
Layer 1
 62
    30
370
    53
100
AcDbSpline
210
0.0
220
0.0
230
1.0
 70
    27
 71
     3
 72
    12
 73
     8
 74
     0
 42
0.0000000001
 43
0.0000000001
 40
0.0
 40
0.0
 40
0.0
 40
0.0
 40
0.5
 40
0.5
 40
0.5
 40
0.5
 40
1.0
 40
1.0
 40
1.0
 40
1.0
 10
-9.50306
 20
-13.94008
 30
0.0
 10
-9.50306
 20
-13.94008
 30
0.0
 10
-9.37987
 20
-13.94008
 30
0.0
 10
-9.37987
 20
-13.94008
 30
0.0
 10
-9.37987
 20
-13.94008
 30
0.0
 10
-9.37987
 20
-13.94008
 30
0.0
 10
-9.50306
 20
-13.94008
 30
0.0
 10
-9.50306
 20
-13.94008
 30
0.0
  0
SPLINE
  5
75
330
1F
100
AcDbEntity
  8
Layer 1
 62
    30
370
    53
100
AcDbSpline
210
0.0
220
0.0
230
1.0
 70
    11
 71
     3
 72
    84
 73
    80
 74
     0
 42
0.0000000001
 43
0.0000000001
 40
0.0
 40
0.0
 40
0.0
 40
0.0
 40
0.05
 40
0.05
 40
0.05
 40
0.05
 40
0.1
 40
0.1
 40
0.1
 40
0.1
 40
0.15
 40
0.15
 40
0.15
 40
0.15
 40
0.2
 40
0.2
 40
0.2
 40
0.2
 40
0.25
 40
0.25
 40
0.25
 40
0.25
 40
0.3
 40
0.3
 40
0.3
 40
0.3
 40
0.35
 40
0.35
 40
0.35
 40
0.35
 40
0.4
 40
0.4
 40
0.4
 40
0.4
 40
0.45
 40
0.45
 40
0.45
 40
0.45
 40
0.4999999999999999
 40
0.4999999999999999
 40
0.4999999999999999
 40
0.4999999999999999
 40
0.5499999999999999
 40
0.5499999999999999
 40
0.5499999999999999
 40
0.5499999999999999
 40
0.6
 40
0.6
 40
0.6
 40
0.6
 40
0.65
 40
0.65
 40
0.65
 40
0.65
 40
0.7000000000000001
 40
0.7000000000000001
 40
0.7000000000000001
 40
0.7000000000000001
 40
0.7500000000000001
 40
0.7500000000000001
 40
0.7500000000000001
 40
0.7500000000000001
 40
0.8000000000000002
 40
0.8000000000000002
 40
0.8000000000000002
 40
0.8000000000000002
 40
0.8500000000000002
 40
0.8500000000000002
 40
0.8500000000000002
 40
0.8500000000000002
 40
0.9000000000000002
 40
0.9000000000000002
 40
0.9000000000000002
 40
0.9000000000000002
 40
0.9500000000000003
 40
0.9500000000000003
 40
0.9500000000000003
 40
0.9500000000000003
 40
1.0
 40
1.0
 40
1.0
 40
1.0
 10
-9.19064
 20
-14.09968
 30
0.0
 10
-9.17583
 20
-14.09961
 30
0.0
 10
-9.16306
 20
-14.097
 30
0.0
 10
-9.1524
 20
-14.09192
 30
0.0
 10
-9.1524
 20
-14.09192
 30
0.0
 10
-9.14182
 20
-14.08684
 30
0.0
 10
-9.133
 20
-14.07957
 30
0.0
 10
-9.12595
 20
-14.07033
 30
0.0
 10
-9.12595
 20
-14.07033
 30
0.0
 10
-9.11896
 20
-14.06102
 30
0.0
 10
-9.11346
 20
-14.05001
 30
0.0
 10
-9.10937
 20
-14.03731
 30
0.0
 10
-9.10937
 20
-14.03731
 30
0.0
 10
-9.10534
 20
-14.02461
 30
0.0
 10
-9.10245
 20
-14.01071
 30
0.0
 10
-9.10083
 20
-13.99547
 30
0.0
 10
-9.10083
 20
-13.99547
 30
0.0
 10
-9.09913
 20
-13.98023
 30
0.0
 10
-9.09829
 20
-13.96421
 30
0.0
 10
-9.09836
 20
-13.94728
 30
0.0
 10
-9.09836
 20
-13.94728
 30
0.0
 10
-9.09829
 20
-13.93042
 30
0.0
 10
-9.09913
 20
-13.9144
 30
0.0
 10
-9.10083
 20
-13.89923
 30
0.0
 10
-9.10083
 20
-13.89923
 30
0.0
 10
-9.10245
 20
-13.88406
 30
0.0
 10
-9.10534
 20
-13.87009
 30
0.0
 10
-9.10937
 20
-13.85739
 30
0.0
 10
-9.10937
 20
-13.85739
 30
0.0
 10
-9.11346
 20
-13.84476
 30
0.0
 10
-9.11896
 20
-13.83376
 30
0.0
 10
-9.12595
 20
-13.82437
 30
0.0
 10
-9.12595
 20
-13.82437
 30
0.0
 10
-9.133
 20
-13.81506
 30
0.0
 10
-9.14182
 20
-13.80779
 30
0.0
 10
-9.1524
 20
-13.80271
 30
0.0
 10
-9.1524
 20
-13.80271
 30
0.0
 10
-9.16306
 20
-13.79756
 30
0.0
 10
-9.17583
 20
-13.79495
 30
0.0
 10
-9.19064
 20
-13.79488
 30
0.0
 10
-9.19064
 20
-13.79488
 30
0.0
 10
-9.20546
 20
-13.79495
 30
0.0
 10
-9.21823
 20
-13.79756
 30
0.0
 10
-9.22889
 20
-13.80271
 30
0.0
 10
-9.22889
 20
-13.80271
 30
0.0
 10
-9.23947
 20
-13.80779
 30
0.0
 10
-9.24829
 20
-13.81506
 30
0.0
 10
-9.25534
 20
-13.82437
 30
0.0
 10
-9.25534
 20
-13.82437
 30
0.0
 10
-9.26233
 20
-13.83376
 30
0.0
 10
-9.26783
 20
-13.84476
 30
0.0
 10
-9.27192
 20
-13.85739
 30
0.0
 10
-9.27192
 20
-13.85739
 30
0.0
 10
-9.27595
 20
-13.87009
 30
0.0
 10
-9.27884
 20
-13.88406
 30
0.0
 10
-9.28046
 20
-13.89923
 30
0.0
 10
-9.28046
 20
-13.89923
 30
0.0
 10
-9.28215
 20
-13.9144
 30
0.0
 10
-9.283
 20
-13.93042
 30
0.0
 10
-9.28293
 20
-13.94728
 30
0.0
 10
-9.28293
 20
-13.94728
 30
0.0
 10
-9.283
 20
-13.96421
 30
0.0
 10
-9.28215
 20
-13.98023
 30
0.0
 10
-9.28046
 20
-13.99547
 30
0.0
 10
-9.28046
 20
-13.99547
 30
0.0
 10
-9.27884
 20
-14.01071
 30
0.0
 10
-9.27595
 20
-14.02461
 30
0.0
 10
-9.27192
 20
-14.03731
 30
0.0
 10
-9.27192
 20
-14.03731
 30
0.0
 10
-9.26783
 20
-14.05001
 30
0.0
 10
-9.26233
 20
-14.06102
 30
0.0
 10
-9.25534
 20
-14.07033
 30
0.0
 10
-9.25534
 20
-14.07033
 30
0.0
 10
-9.24829
 20
-14.07957
 30
0.0
 10
-9.23947
 20
-14.08684
 30
0.0
 10
-9.22889
 20
-14.09192
 30
0.0
 10
-9.22889
 20
-14.09192
 30
0.0
 10
-9.21823
 20
-14.097
 30
0.0
 10
-9.20546
 20
-14.09961
 30
0.0
 10
-9.19064
 20
-14.09968
 30
0.0
  0
SPLINE
  5
76
330
1F
100
AcDbEntity
  8
Layer 1
 62
    30
370
    53
100
AcDbSpline
210
0.0
220
0.0
230
1.0
 70
    11
 71
     3
 72
    84
 73
    80
 74
     0
 42
0.0000000001
 43
0.0000000001
 40
0.0
 40
0.0
 40
0.0
 40
0.0
 40
0.05
 40
0.05
 40
0.05
 40
0.05
 40
0.1
 40
0.1
 40
0.1
 40
0.1
 40
0.15
 40
0.15
 40
0.15
 40
0.15
 40
0.2
 40
0.2
 40
0.2
 40
0.2
 40
0.25
 40
0.25
 40
0.25
 40
0.25
 40
0.3
 40
0.3
 40
0.3
 40
0.3
 40
0.35
 40
0.35
 40
0.35
 40
0.35
 40
0.4
 40
0.4
 40
0.4
 40
0.4
 40
0.45
 40
0.45
 40
0.45
 40
0.45
 40
0.4999999999999999
 40
0.4999999999999999
 40
0.4999999999999999
 40
0.4999999999999999
 40
0.5499999999999999
 40
0.5499999999999999
 40
0.5499999999999999
 40
0.5499999999999999
 40
0.6
 40
0.6
 40
0.6
 40
0.6
 40
0.65
 40
0.65
 40
0.65
 40
0.65
 40
0.7000000000000001
 40
0.7000000000000001
 40
0.7000000000000001
 40
0.7000000000000001
 40
0.7500000000000001
 40
0.7500000000000001
 40
0.7500000000000001
 40
0.7500000000000001
 40
0.8000000000000002
 40
0.8000000000000002
 40
0.8000000000000002
 40
0.8000000000000002
 40
0.8500000000000002
 40
0.8500000000000002
 40
0.8500000000000002
 40
0.8500000000000002
 40
0.9000000000000002
 40
0.9000000000000002
 40
0.9000000000000002
 40
0.9000000000000002
 40
0.9500000000000003
 40
0.9500000000000003
 40
0.9500000000000003
 40
0.9500000000000003
 40
1.0
 40
1.0
 40
1.0
 40
1.0
 10
-9.19064
 20
-14.09968
 30
0.0
 10
-9.17583
 20
-14.09961
 30
0.0
 10
-9.16306
 20
-14.097
 30
0.0
 10
-9.1524
 20
-14.09192
 30
0.0
 10
-9.1524
 20
-14.09192
 30
0.0
 10
-9.14182
 20
-14.08684
 30
0.0
 10
-9.133
 20
-14.07957
 30
0.0
 10
-9.12595
 20
-14.07033
 30
0.0
 10
-9.12595
 20
-14.07033
 30
0.0
 10
-9.11896
 20
-14.06102
 30
0.0
 10
-9.11346
 20
-14.05001
 30
0.0
 10
-9.10937
 20
-14.03731
 30
0.0
 10
-9.10937
 20
-14.03731
 30
0.0
 10
-9.10534
 20
-14.02461
 30
0.0
 10
-9.10245
 20
-14.01071
 30
0.0
 10
-9.10083
 20
-13.99547
 30
0.0
 10
-9.10083
 20
-13.99547
 30
0.0
 10
-9.09913
 20
-13.98023
 30
0.0
 10
-9.09829
 20
-13.96421
 30
0.0
 10
-9.09836
 20
-13.94728
 30
0.0
 10
-9.09836
 20
-13.94728
 30
0.0
 10
-9.09829
 20
-13.93042
 30
0.0
 10
-9.09913
 20
-13.9144
 30
0.0
 10
-9.10083
 20
-13.89923
 30
0.0
 10
-9.10083
 20
-13.89923
 30
0.0
 10
-9.10245
 20
-13.88406
 30
0.0
 10
-9.10534
 20
-13.87009
 30
0.0
 10
-9.10937
 20
-13.85739
 30
0.0
 10
-9.10937
 20
-13.85739
 30
0.0
 10
-9.11346
 20
-13.84476
 30
0.0
 10
-9.11896
 20
-13.83376
 30
0.0
 10
-9.12595
 20
-13.82437
 30
0.0
 10
-9.12595
 20
-13.82437
 30
0.0
 10
-9.133
 20
-13.81506
 30
0.0
 10
-9.14182
 20
-13.80779
 30
0.0
 10
-9.1524
 20
-13.80271
 30
0.0
 10
-9.1524
 20
-13.80271
 30
0.0
 10
-9.16306
 20
-13.79756
 30
0.0
 10
-9.17583
 20
-13.79495
 30
0.0
 10
-9.19064
 20
-13.79488
 30
0.0
 10
-9.19064
 20
-13.79488
 30
0.0
 10
-9.20546
 20
-13.79495
 30
0.0
 10
-9.21823
 20
-13.79756
 30
0.0
 10
-9.22889
 20
-13.80271
 30
0.0
 10
-9.22889
 20
-13.80271
 30
0.0
 10
-9.23947
 20
-13.80779
 30
0.0
 10
-9.24829
 20
-13.81506
 30
0.0
 10
-9.25534
 20
-13.82437
 30
0.0
 10
-9.25534
 20
-13.82437
 30
0.0
 10
-9.26233
 20
-13.83376
 30
0.0
 10
-9.26783
 20
-13.84476
 30
0.0
 10
-9.27192
 20
-13.85739
 30
0.0
 10
-9.27192
 20
-13.85739
 30
0.0
 10
-9.27595
 20
-13.87009
 30
0.0
 10
-9.27884
 20
-13.88406
 30
0.0
 10
-9.28046
 20
-13.89923
 30
0.0
 10
-9.28046
 20
-13.89923
 30
0.0
 10
-9.28215
 20
-13.9144
 30
0.0
 10
-9.283
 20
-13.93042
 30
0.0
 10
-9.28293
 20
-13.94728
 30
0.0
 10
-9.28293
 20
-13.94728
 30
0.0
 10
-9.283
 20
-13.96421
 30
0.0
 10
-9.28215
 20
-13.98023
 30
0.0
 10
-9.28046
 20
-13.99547
 30
0.0
 10
-9.28046
 20
-13.99547
 30
0.0
 10
-9.27884
 20
-14.01071
 30
0.0
 10
-9.27595
 20
-14.02461
 30
0.0
 10
-9.27192
 20
-14.03731
 30
0.0
 10
-9.27192
 20
-14.03731
 30
0.0
 10
-9.26783
 20
-14.05001
 30
0.0
 10
-9.26233
 20
-14.06102
 30
0.0
 10
-9.25534
 20
-14.07033
 30
0.0
 10
-9.25534
 20
-14.07033
 30
0.0
 10
-9.24829
 20
-14.07957
 30
0.0
 10
-9.23947
 20
-14.08684
 30
0.0
 10
-9.22889
 20
-14.09192
 30
0.0
 10
-9.22889
 20
-14.09192
 30
0.0
 10
-9.21823
 20
-14.097
 30
0.0
 10
-9.20546
 20
-14.09961
 30
0.0
 10
-9.19064
 20
-14.09968
 30
0.0
  0
SPLINE
  5
77
330
1F
100
AcDbEntity
  8
Layer 1
 62
    30
370
    53
100
AcDbSpline
210
0.0
220
0.0
230
1.0
 70
    11
 71
     3
 72
    28
 73
    24
 74
     0
 42
0.0000000001
 43
0.0000000001
 40
0.0
 40
0.0
 40
0.0
 40
0.0
 40
0.1666666666666667
 40
0.1666666666666667
 40
0.1666666666666667
 40
0.1666666666666667
 40
0.3333333333333333
 40
0.3333333333333333
 40
0.3333333333333333
 40
0.3333333333333333
 40
0.5
 40
0.5
 40
0.5
 40
0.5
 40
0.6666666666666666
 40
0.6666666666666666
 40
0.6666666666666666
 40
0.6666666666666666
 40
0.8333333333333333
 40
0.8333333333333333
 40
0.8333333333333333
 40
0.8333333333333333
 40
1.0
 40
1.0
 40
1.0
 40
1.0
 10
-8.8541
 20
-14.09968
 30
0.0
 10
-8.8541
 20
-14.09968
 30
0.0
 10
-8.8541
 20
-13.79446
 30
0.0
 10
-8.8541
 20
-13.79446
 30
0.0
 10
-8.8541
 20
-13.79446
 30
0.0
 10
-8.8541
 20
-13.79446
 30
0.0
 10
-8.99803
 20
-14.0184
 30
0.0
 10
-8.99803
 20
-14.0184
 30
0.0
 10
-8.99803
 20
-14.0184
 30
0.0
 10
-8.99803
 20
-14.0184
 30
0.0
 10
-8.79991
 20
-14.0184
 30
0.0
 10
-8.79991
 20
-14.0184
 30
0.0
 10
-8.79991
 20
-14.0184
 30
0.0
 10
-8.79991
 20
-14.0184
 30
0.0
 10
-8.99803
 20
-14.0184
 30
0.0
 10
-8.99803
 20
-14.0184
 30
0.0
 10
-8.99803
 20
-14.0184
 30
0.0
 10
-8.99803
 20
-14.0184
 30
0.0
 10
-8.8541
 20
-13.79446
 30
0.0
 10
-8.8541
 20
-13.79446
 30
0.0
 10
-8.8541
 20
-13.79446
 30
0.0
 10
-8.8541
 20
-13.79446
 30
0.0
 10
-8.8541
 20
-14.09968
 30
0.0
 10
-8.8541
 20
-14.09968
 30
0.0
  0
SPLINE
  5
78
330
1F
100
AcDbEntity
  8
Layer 1
 62
    30
370
    53
100
AcDbSpline
210
0.0
220
0.0
230
1.0
 70
    27
 71
     3
 72
    12
 73
     8
 74
     0
 42
0.0000000001
 43
0.0000000001
 40
0.0
 40
0.0
 40
0.0
 40
0.0
 40
0.5
 40
0.5
 40
0.5
 40
0.5
 40
1.0
 40
1.0
 40
1.0
 40
1.0
 10
-8.69916
 20
-13.94008
 30
0.0
 10
-8.69916
 20
-13.94008
 30
0.0
 10
-8.57597
 20
-13.94008
 30
0.0
 10
-8.57597
 20
-13.94008
 30
0.0
 10
-8.57597
 20
-13.94008
 30
0.0
 10
-8.57597
 20
-13.94008
 30
0.0
 10
-8.69916
 20
-13.94008
 30
0.0
 10
-8.69916
 20
-13.94008
 30
0.0
  0
SPLINE
  5
79
330
1F
100
AcDbEntity
  8
Layer 1
 62
    30
370
    53
100
AcDbSpline
210
0.0
220
0.0
230
1.0
 70
    11
 71
     3
 72
    20
 73
    16
 74
     0
 42
0.0000000001
 43
0.0000000001
 40
0.0
 40
0.0
 40
0.0
 40
0.0
 40
0.25
 40
0.25
 40
0.25
 40
0.25
 40
0.5
 40
0.5
 40
0.5
 40
0.5
 40
0.75
 40
0.75
 40
0.75
 40
0.75
 40
1.0
 40
1.0
 40
1.0
 40
1.0
 10
-8.47903
 20
-14.09968
 30
0.0
 10
-8.47903
 20
-14.09968
 30
0.0
 10
-8.35796
 20
-13.79446
 30
0.0
 10
-8.35796
 20
-13.79446
 30
0.0
 10
-8.35796
 20
-13.79446
 30
0.0
 10
-8.35796
 20
-13.79446
 30
0.0
 10
-8.23646
 20
-14.09968
 30
0.0
 10
-8.23646
 20
-14.09968
 30
0.0
 10
-8.23646
 20
-14.09968
 30
0.0
 10
-8.23646
 20
-14.09968
 30
0.0
 10
-8.35796
 20
-13.79446
 30
0.0
 10
-8.35796
 20
-13.79446
 30
0.0
 10
-8.35796
 20
-13.79446
 30
0.0
 10
-8.35796
 20
-13.79446
 30
0.0
 10
-8.47903
 20
-14.09968
 30
0.0
 10
-8.47903
 20
-14.09968
 30
0.0
  0
SPLINE
  5
7A
330
1F
100
AcDbEntity
  8
Layer 1
 62
    30
370
    53
100
AcDbSpline
210
0.0
220
0.0
230
1.0
 70
    27
 71
     3
 72
    12
 73
     8
 74
     0
 42
0.0000000001
 43
0.0000000001
 40
0.0
 40
0.0
 40
0.0
 40
0.0
 40
0.5
 40
0.5
 40
0.5
 40
0.5
 40
1.0
 40
1.0
 40
1.0
 40
1.0
 10
-8.44093
 20
-14.00358
 30
0.0
 10
-8.44093
 20
-14.00358
 30
0.0
 10
-8.27499
 20
-14.00358
 30
0.0
 10
-8.27499
 20
-14.00358
 30
0.0
 10
-8.27499
 20
-14.00358
 30
0.0
 10
-8.27499
 20
-14.00358
 30
0.0
 10
-8.44093
 20
-14.00358
 30
0.0
 10
-8.44093
 20
-14.00358
 30
0.0
  0
SPLINE
  5
7B
330
1F
100
AcDbEntity
  8
Layer 1
 62
   250
370
    53
100
AcDbSpline
210
0.0
220
0.0
230
1.0
 70
    11
 71
     3
 72
    20
 73
    16
 74
     0
 42
0.0000000001
 43
0.0000000001
 40
0.0
 40
0.0
 40
0.0
 40
0.0
 40
0.25
 40
0.25
 40
0.25
 40
0.25
 40
0.5
 40
0.5
 40
0.5
 40
0.5
 40
0.75
 40
0.75
 40
0.75
 40
0.75
 40
1.0
 40
1.0
 40
1.0
 40
1.0
 10
-7.925
 20
-5.65
 30
0.0
 10
-7.925
 20
-5.71902
 30
0.0
 10
-7.98098
 20
-5.775
 30
0.0
 10
-8.05
 20
-5.775
 30
0.0
 10
-8.05
 20
-5.775
 30
0.0
 10
-8.11902
 20
-5.775
 30
0.0
 10
-8.175
 20
-5.71902
 30
0.0
 10
-8.175
 20
-5.65
 30
0.0
 10
-8.175
 20
-5.65
 30
0.0
 10
-8.175
 20
-5.58098
 30
0.0
 10
-8.11902
 20
-5.525
 30
0.0
 10
-8.05
 20
-5.525
 30
0.0
 10
-8.05
 20
-5.525
 30
0.0
 10
-7.98098
 20
-5.525
 30
0.0
 10
-7.925
 20
-5.58098
 30
0.0
 10
-7.925
 20
-5.65
 30
0.0
  0
SPLINE
  5
7C
330
1F
100
AcDbEntity
  8
Layer 1
 62
   250
370
    53
100
AcDbSpline
210
0.0
220
0.0
230
1.0
 70
    11
 71
     3
 72
    20
 73
    16
 74
     0
 42
0.0000000001
 43
0.0000000001
 40
0.0
 40
0.0
 40
0.0
 40
0.0
 40
0.25
 40
0.25
 40
0.25
 40
0.25
 40
0.5
 40
0.5
 40
0.5
 40
0.5
 40
0.75
 40
0.75
 40
0.75
 40
0.75
 40
1.0
 40
1.0
 40
1.0
 40
1.0
 10
-7.925
 20
-11.45
 30
0.0
 10
-7.925
 20
-11.51902
 30
0.0
 10
-7.98098
 20
-11.575
 30
0.0
 10
-8.05
 20
-11.575
 30
0.0
 10
-8.05
 20
-11.575
 30
0.0
 10
-8.11902
 20
-11.575
 30
0.0
 10
-8.175
 20
-11.51902
 30
0.0
 10
-8.175
 20
-11.45
 30
0.0
 10
-8.175
 20
-11.45
 30
0.0
 10
-8.175
 20
-11.38098
 30
0.0
 10
-8.11902
 20
-11.325
 30
0.0
 10
-8.05
 20
-11.325
 30
0.0
 10
-8.05
 20
-11.325
 30
0.0
 10
-7.98098
 20
-11.325
 30
0.0
 10
-7.925
 20
-11.38098
 30
0.0
 10
-7.925
 20
-11.45
 30
0.0
  0
SPLINE
  5
7D
330
1F
100
AcDbEntity
  8
Layer 1
 62
   250
370
    53
100
AcDbSpline
210
0.0
220
0.0
230
1.0
 70
    11
 71
     3
 72
    20
 73
    16
 74
     0
 42
0.0000000001
 43
0.0000000001
 40
0.0
 40
0.0
 40
0.0
 40
0.0
 40
0.25
 40
0.25
 40
0.25
 40
0.25
 40
0.5
 40
0.5
 40
0.5
 40
0.5
 40
0.75
 40
0.75
 40
0.75
 40
0.75
 40
1.0
 40
1.0
 40
1.0
 40
1.0
 10
-12.825
 20
-5.65
 30
0.0
 10
-12.825
 20
-5.71902
 30
0.0
 10
-12.88098
 20
-5.775
 30
0.0
 10
-12.95
 20
-5.775
 30
0.0
 10
-12.95
 20
-5.775
 30
0.0
 10
-13.01902
 20
-5.775
 30
0.0
 10
-13.075
 20
-5.71902
 30
0.0
 10
-13.075
 20
-5.65
 30
0.0
 10
-13.075
 20
-5.65
 30
0.0
 10
-13.075
 20
-5.58098
 30
0.0
 10
-13.01902
 20
-5.525
 30
0.0
 10
-12.95
 20
-5.525
 30
0.0
 10
-12.95
 20
-5.525
 30
0.0
 10
-12.88098
 20
-5.525
 30
0.0
 10
-12.825
 20
-5.58098
 30
0.0
 10
-12.825
 20
-5.65
 30
0.0
  0
SPLINE
  5
7E
330
1F
100
AcDbEntity
  8
Layer 1
 62
   250
370
    53
100
AcDbSpline
210
0.0
220
0.0
230
1.0
 70
    11
 71
     3
 72
    20
 73
    16
 74
     0
 42
0.0000000001
 43
0.0000000001
 40
0.0
 40
0.0
 40
0.0
 40
0.0
 40
0.25
 40
0.25
 40
0.25
 40
0.25
 40
0.5
 40
0.5
 40
0.5
 40
0.5
 40
0.75
 40
0.75
 40
0.75
 40
0.75
 40
1.0
 40
1.0
 40
1.0
 40
1.0
 10
-12.825
 20
-11.45
 30
0.0
 10
-12.825
 20
-11.51902
 30
0.0
 10
-12.88098
 20
-11.575
 30
0.0
 10
-12.95
 20
-11.575
 30
0.0
 10
-12.95
 20
-11.575
 30
0.0
 10
-13.01902
 20
-11.575
 30
0.0
 10
-13.075
 20
-11.51902
 30
0.0
 10
-13.075
 20
-11.45
 30
0.0
 10
-13.075
 20
-11.45
 30
0.0
 10
-13.075
 20
-11.38098
 30
0.0
 10
-13.01902
 20
-11.325
 30
0.0
 10
-12.95
 20
-11.325
 30
0.0
 10
-12.95
 20
-11.325
 30
0.0
 10
-12.88098
 20
-11.325
 30
0.0
 10
-12.825
 20
-11.38098
 30
0.0
 10
-12.825
 20
-11.45
 30
0.0
  0
SPLINE
  5
7F
330
1F
100
AcDbEntity
  8
Layer 1
370
    53
100
AcDbSpline
210
0.0
220
0.0
230
1.0
 70
    11
 71
     3
 72
    84
 73
    80
 74
     0
 42
0.0000000001
 43
0.0000000001
 40
0.0
 40
0.0
 40
0.0
 40
0.0
 40
0.05
 40
0.05
 40
0.05
 40
0.05
 40
0.1
 40
0.1
 40
0.1
 40
0.1
 40
0.15
 40
0.15
 40
0.15
 40
0.15
 40
0.2
 40
0.2
 40
0.2
 40
0.2
 40
0.25
 40
0.25
 40
0.25
 40
0.25
 40
0.3
 40
0.3
 40
0.3
 40
0.3
 40
0.35
 40
0.35
 40
0.35
 40
0.35
 40
0.4
 40
0.4
 40
0.4
 40
0.4
 40
0.45
 40
0.45
 40
0.45
 40
0.45
 40
0.4999999999999999
 40
0.4999999999999999
 40
0.4999999999999999
 40
0.4999999999999999
 40
0.5499999999999999
 40
0.5499999999999999
 40
0.5499999999999999
 40
0.5499999999999999
 40
0.6
 40
0.6
 40
0.6
 40
0.6
 40
0.65
 40
0.65
 40
0.65
 40
0.65
 40
0.7000000000000001
 40
0.7000000000000001
 40
0.7000000000000001
 40
0.7000000000000001
 40
0.7500000000000001
 40
0.7500000000000001
 40
0.7500000000000001
 40
0.7500000000000001
 40
0.8000000000000002
 40
0.8000000000000002
 40
0.8000000000000002
 40
0.8000000000000002
 40
0.8500000000000002
 40
0.8500000000000002
 40
0.8500000000000002
 40
0.8500000000000002
 40
0.9000000000000002
 40
0.9000000000000002
 40
0.9000000000000002
 40
0.9000000000000002
 40
0.9500000000000003
 40
0.9500000000000003
 40
0.9500000000000003
 40
0.9500000000000003
 40
1.0
 40
1.0
 40
1.0
 40
1.0
 10
-14.15001
 20
-17.90004
 30
0.0
 10
-14.15001
 20
-17.90004
 30
0.0
 10
-14.15001
 20
-15.69994
 30
0.0
 10
-14.15001
 20
-15.69994
 30
0.0
 10
-14.15001
 20
-15.69994
 30
0.0
 10
-14.15001
 20
-15.42295
 30
0.0
 10
-13.92692
 20
-15.19999
 30
0.0
 10
-13.64992
 20
-15.19999
 30
0.0
 10
-13.64992
 20
-15.19999
 30
0.0
 10
-13.64992
 20
-15.19999
 30
0.0
 10
-7.34995
 20
-15.19999
 30
0.0
 10
-7.34995
 20
-15.19999
 30
0.0
 10
-7.34995
 20
-15.19999
 30
0.0
 10
-7.07298
 20
-15.19999
 30
0.0
 10
-6.84999
 20
-15.42295
 30
0.0
 10
-6.84999
 20
-15.69994
 30
0.0
 10
-6.84999
 20
-15.69994
 30
0.0
 10
-6.84999
 20
-15.69994
 30
0.0
 10
-6.84999
 20
-25.99991
 30
0.0
 10
-6.84999
 20
-25.99991
 30
0.0
 10
-6.84999
 20
-25.99991
 30
0.0
 10
-6.84999
 20
-26.27691
 30
0.0
 10
-7.07298
 20
-26.50001
 30
0.0
 10
-7.34995
 20
-26.50001
 30
0.0
 10
-7.34995
 20
-26.50001
 30
0.0
 10
-7.34995
 20
-26.50001
 30
0.0
 10
-7.39998
 20
-26.50001
 30
0.0
 10
-7.39998
 20
-26.50001
 30
0.0
 10
-7.39998
 20
-26.50001
 30
0.0
 10
-7.39998
 20
-26.50001
 30
0.0
 10
-7.39998
 20
-25.99634
 30
0.0
 10
-7.39998
 20
-25.99634
 30
0.0
 10
-7.39998
 20
-25.99634
 30
0.0
 10
-7.39998
 20
-25.83069
 30
0.0
 10
-7.53433
 20
-25.69634
 30
0.0
 10
-7.69999
 20
-25.69634
 30
0.0
 10
-7.69999
 20
-25.69634
 30
0.0
 10
-7.86564
 20
-25.69634
 30
0.0
 10
-7.99998
 20
-25.83069
 30
0.0
 10
-7.99998
 20
-25.99634
 30
0.0
 10
-7.99998
 20
-25.99634
 30
0.0
 10
-7.99998
 20
-25.99634
 30
0.0
 10
-7.99998
 20
-26.50001
 30
0.0
 10
-7.99998
 20
-26.50001
 30
0.0
 10
-7.99998
 20
-26.50001
 30
0.0
 10
-7.99998
 20
-26.50001
 30
0.0
 10
-13.00002
 20
-26.50001
 30
0.0
 10
-13.00002
 20
-26.50001
 30
0.0
 10
-13.00002
 20
-26.50001
 30
0.0
 10
-13.00002
 20
-26.50001
 30
0.0
 10
-13.00002
 20
-26.00382
 30
0.0
 10
-13.00002
 20
-26.00382
 30
0.0
 10
-13.00002
 20
-26.00382
 30
0.0
 10
-13.00002
 20
-25.83817
 30
0.0
 10
-13.13437
 20
-25.70382
 30
0.0
 10
-13.30003
 20
-25.70382
 30
0.0
 10
-13.30003
 20
-25.70382
 30
0.0
 10
-13.46568
 20
-25.70382
 30
0.0
 10
-13.60002
 20
-25.83817
 30
0.0
 10
-13.60002
 20
-26.00382
 30
0.0
 10
-13.60002
 20
-26.00382
 30
0.0
 10
-13.60002
 20
-26.00382
 30
0.0
 10
-13.60002
 20
-26.50001
 30
0.0
 10
-13.60002
 20
-26.50001
 30
0.0
 10
-13.60002
 20
-26.50001
 30
0.0
 10
-13.60002
 20
-26.50001
 30
0.0
 10
-13.64992
 20
-26.50001
 30
0.0
 10
-13.64992
 20
-26.50001
 30
0.0
 10
-13.64992
 20
-26.50001
 30
0.0
 10
-13.92692
 20
-26.50001
 30
0.0
 10
-14.15001
 20
-26.27691
 30
0.0
 10
-14.15001
 20
-25.99991
 30
0.0
 10
-14.15001
 20
-25.99991
 30
0.0
 10
-14.15001
 20
-25.99991
 30
0.0
 10
-14.15001
 20
-19.30004
 30
0.0
 10
-14.15001
 20
-19.30004
 30
0.0
 10
-14.15001
 20
-19.30004
 30
0.0
 10
-14.15001
 20
-19.30004
 30
0.0
 10
-14.15001
 20
-17.90004
 30
0.0
 10
-14.15001
 20
-17.90004
 30
0.0
  0
SPLINE
  5
80
330
1F
100
AcDbEntity
  8
Layer 1
370
    53
100
AcDbSpline
210
0.0
220
0.0
230
1.0
 70
    11
 71
     3
 72
    20
 73
    16
 74
     0
 42
0.0000000001
 43
0.0000000001
 40
0.0
 40
0.0
 40
0.0
 40
0.0
 40
0.25
 40
0.25
 40
0.25
 40
0.25
 40
0.5
 40
0.5
 40
0.5
 40
0.5
 40
0.75
 40
0.75
 40
0.75
 40
0.75
 40
1.0
 40
1.0
 40
1.0
 40
1.0
 10
-7.50002
 20
-15.55002
 30
0.0
 10
-7.33425
 20
-15.55002
 30
0.0
 10
-7.20002
 20
-15.68435
 30
0.0
 10
-7.20002
 20
-15.84997
 30
0.0
 10
-7.20002
 20
-15.84997
 30
0.0
 10
-7.20002
 20
-16.01564
 30
0.0
 10
-7.33425
 20
-16.14998
 30
0.0
 10
-7.50002
 20
-16.14998
 30
0.0
 10
-7.50002
 20
-16.14998
 30
0.0
 10
-7.66569
 20
-16.14998
 30
0.0
 10
-7.80002
 20
-16.01564
 30
0.0
 10
-7.80002
 20
-15.84997
 30
0.0
 10
-7.80002
 20
-15.84997
 30
0.0
 10
-7.80002
 20
-15.68435
 30
0.0
 10
-7.66569
 20
-15.55002
 30
0.0
 10
-7.50002
 20
-15.55002
 30
0.0
  0
SPLINE
  5
81
330
1F
100
AcDbEntity
  8
Layer 1
370
    53
100
AcDbSpline
210
0.0
220
0.0
230
1.0
 70
    11
 71
     3
 72
    20
 73
    16
 74
     0
 42
0.0000000001
 43
0.0000000001
 40
0.0
 40
0.0
 40
0.0
 40
0.0
 40
0.25
 40
0.25
 40
0.25
 40
0.25
 40
0.5
 40
0.5
 40
0.5
 40
0.5
 40
0.75
 40
0.75
 40
0.75
 40
0.75
 40
1.0
 40
1.0
 40
1.0
 40
1.0
 10
-13.49998
 20
-15.55002
 30
0.0
 10
-13.33421
 20
-15.55002
 30
0.0
 10
-13.19998
 20
-15.68435
 30
0.0
 10
-13.19998
 20
-15.84997
 30
0.0
 10
-13.19998
 20
-15.84997
 30
0.0
 10
-13.19998
 20
-16.01564
 30
0.0
 10
-13.33421
 20
-16.14998
 30
0.0
 10
-13.49998
 20
-16.14998
 30
0.0
 10
-13.49998
 20
-16.14998
 30
0.0
 10
-13.66565
 20
-16.14998
 30
0.0
 10
-13.79999
 20
-16.01564
 30
0.0
 10
-13.79999
 20
-15.84997
 30
0.0
 10
-13.79999
 20
-15.84997
 30
0.0
 10
-13.79999
 20
-15.68435
 30
0.0
 10
-13.66565
 20
-15.55002
 30
0.0
 10
-13.49998
 20
-15.55002
 30
0.0
  0
SPLINE
  5
82
330
1F
100
AcDbEntity
  8
Layer 1
370
    53
100
AcDbSpline
210
0.0
220
0.0
230
1.0
 70
    11
 71
     3
 72
    20
 73
    16
 74
     0
 42
0.0000000001
 43
0.0000000001
 40
0.0
 40
0.0
 40
0.0
 40
0.0
 40
0.25
 40
0.25
 40
0.25
 40
0.25
 40
0.5
 40
0.5
 40
0.5
 40
0.5
 40
0.75
 40
0.75
 40
0.75
 40
0.75
 40
1.0
 40
1.0
 40
1.0
 40
1.0
 10
-8.79994
 20
-15.99991
 30
0.0
 10
-8.79994
 20
-15.99991
 30
0.0
 10
-8.79994
 20
-15.6999
 30
0.0
 10
-8.79994
 20
-15.6999
 30
0.0
 10
-8.79994
 20
-15.6999
 30
0.0
 10
-8.79994
 20
-15.6999
 30
0.0
 10
-8.19993
 20
-15.6999
 30
0.0
 10
-8.19993
 20
-15.6999
 30
0.0
 10
-8.19993
 20
-15.6999
 30
0.0
 10
-8.19993
 20
-15.6999
 30
0.0
 10
-8.19993
 20
-15.99991
 30
0.0
 10
-8.19993
 20
-15.99991
 30
0.0
 10
-8.19993
 20
-15.99991
 30
0.0
 10
-8.19993
 20
-15.99991
 30
0.0
 10
-8.79994
 20
-15.99991
 30
0.0
 10
-8.79994
 20
-15.99991
 30
0.0
  0
SPLINE
  5
83
330
1F
100
AcDbEntity
  8
Layer 1
370
    53
100
AcDbSpline
210
0.0
220
0.0
230
1.0
 70
    11
 71
     3
 72
    20
 73
    16
 74
     0
 42
0.0000000001
 43
0.0000000001
 40
0.0
 40
0.0
 40
0.0
 40
0.0
 40
0.25
 40
0.25
 40
0.25
 40
0.25
 40
0.5
 40
0.5
 40
0.5
 40
0.5
 40
0.75
 40
0.75
 40
0.75
 40
0.75
 40
1.0
 40
1.0
 40
1.0
 40
1.0
 10
-12.79997
 20
-15.99991
 30
0.0
 10
-12.79997
 20
-15.99991
 30
0.0
 10
-12.79997
 20
-15.6999
 30
0.0
 10
-12.79997
 20
-15.6999
 30
0.0
 10
-12.79997
 20
-15.6999
 30
0.0
 10
-12.79997
 20
-15.6999
 30
0.0
 10
-12.19996
 20
-15.6999
 30
0.0
 10
-12.19996
 20
-15.6999
 30
0.0
 10
-12.19996
 20
-15.6999
 30
0.0
 10
-12.19996
 20
-15.6999
 30
0.0
 10
-12.19996
 20
-15.99991
 30
0.0
 10
-12.19996
 20
-15.99991
 30
0.0
 10
-12.19996
 20
-15.99991
 30
0.0
 10
-12.19996
 20
-15.99991
 30
0.0
 10
-12.79997
 20
-15.99991
 30
0.0
 10
-12.79997
 20
-15.99991
 30
0.0
  0
SPLINE
  5
84
330
1F
100
AcDbEntity
  8
Layer 1
 62
    30
370
    53
100
AcDbSpline
210
0.0
220
0.0
230
1.0
 70
    11
 71
     3
 72
    36
 73
    32
 74
     0
 42
0.0000000001
 43
0.0000000001
 40
0.0
 40
0.0
 40
0.0
 40
0.0
 40
0.125
 40
0.125
 40
0.125
 40
0.125
 40
0.25
 40
0.25
 40
0.25
 40
0.25
 40
0.375
 40
0.375
 40
0.375
 40
0.375
 40
0.5
 40
0.5
 40
0.5
 40
0.5
 40
0.625
 40
0.625
 40
0.625
 40
0.625
 40
0.75
 40
0.75
 40
0.75
 40
0.75
 40
0.875
 40
0.875
 40
0.875
 40
0.875
 40
1.0
 40
1.0
 40
1.0
 40
1.0
 10
-12.67083
 20
-26.09968
 30
0.0
 10
-12.67083
 20
-26.09968
 30
0.0
 10
-12.67083
 20
-25.79446
 30
0.0
 10
-12.67083
 20
-25.79446
 30
0.0
 10
-12.67083
 20
-25.79446
 30
0.0
 10
-12.67083
 20
-25.79446
 30
0.0
 10
-12.5396
 20
-26.09968
 30
0.0
 10
-12.5396
 20
-26.09968
 30
0.0
 10
-12.5396
 20
-26.09968
 30
0.0
 10
-12.5396
 20
-26.09968
 30
0.0
 10
-12.40794
 20
-25.79446
 30
0.0
 10
-12.40794
 20
-25.79446
 30
0.0
 10
-12.40794
 20
-25.79446
 30
0.0
 10
-12.40794
 20
-25.79446
 30
0.0
 10
-12.40794
 20
-26.09968
 30
0.0
 10
-12.40794
 20
-26.09968
 30
0.0
 10
-12.40794
 20
-26.09968
 30
0.0
 10
-12.40794
 20
-26.09968
 30
0.0
 10
-12.40794
 20
-25.79446
 30
0.0
 10
-12.40794
 20
-25.79446
 30
0.0
 10
-12.40794
 20
-25.79446
 30
0.0
 10
-12.40794
 20
-25.79446
 30
0.0
 10
-12.5396
 20
-26.09968
 30
0.0
 10
-12.5396
 20
-26.09968
 30
0.0
 10
-12.5396
 20
-26.09968
 30
0.0
 10
-12.5396
 20
-26.09968
 30
0.0
 10
-12.67083
 20
-25.79446
 30
0.0
 10
-12.67083
 20
-25.79446
 30
0.0
 10
-12.67083
 20
-25.79446
 30
0.0
 10
-12.67083
 20
-25.79446
 30
0.0
 10
-12.67083
 20
-26.09968
 30
0.0
 10
-12.67083
 20
-26.09968
 30
0.0
  0
SPLINE
  5
85
330
1F
100
AcDbEntity
  8
Layer 1
 62
    30
370
    53
100
AcDbSpline
210
0.0
220
0.0
230
1.0
 70
    11
 71
     3
 72
    92
 73
    88
 74
     0
 42
0.0000000001
 43
0.0000000001
 40
0.0
 40
0.0
 40
0.0
 40
0.0
 40
0.0454545454545455
 40
0.0454545454545455
 40
0.0454545454545455
 40
0.0454545454545455
 40
0.0909090909090909
 40
0.0909090909090909
 40
0.0909090909090909
 40
0.0909090909090909
 40
0.1363636363636364
 40
0.1363636363636364
 40
0.1363636363636364
 40
0.1363636363636364
 40
0.1818181818181818
 40
0.1818181818181818
 40
0.1818181818181818
 40
0.1818181818181818
 40
0.2272727272727273
 40
0.2272727272727273
 40
0.2272727272727273
 40
0.2272727272727273
 40
0.2727272727272728
 40
0.2727272727272728
 40
0.2727272727272728
 40
0.2727272727272728
 40
0.3181818181818182
 40
0.3181818181818182
 40
0.3181818181818182
 40
0.3181818181818182
 40
0.3636363636363637
 40
0.3636363636363637
 40
0.3636363636363637
 40
0.3636363636363637
 40
0.4090909090909092
 40
0.4090909090909092
 40
0.4090909090909092
 40
0.4090909090909092
 40
0.4545454545454546
 40
0.4545454545454546
 40
0.4545454545454546
 40
0.4545454545454546
 40
0.5000000000000001
 40
0.5000000000000001
 40
0.5000000000000001
 40
0.5000000000000001
 40
0.5454545454545455
 40
0.5454545454545455
 40
0.5454545454545455
 40
0.5454545454545455
 40
0.5909090909090909
 40
0.5909090909090909
 40
0.5909090909090909
 40
0.5909090909090909
 40
0.6363636363636364
 40
0.6363636363636364
 40
0.6363636363636364
 40
0.6363636363636364
 40
0.6818181818181818
 40
0.6818181818181818
 40
0.6818181818181818
 40
0.6818181818181818
 40
0.7272727272727272
 40
0.7272727272727272
 40
0.7272727272727272
 40
0.7272727272727272
 40
0.7727272727272726
 40
0.7727272727272726
 40
0.7727272727272726
 40
0.7727272727272726
 40
0.818181818181818
 40
0.818181818181818
 40
0.818181818181818
 40
0.818181818181818
 40
0.8636363636363634
 40
0.8636363636363634
 40
0.8636363636363634
 40
0.8636363636363634
 40
0.9090909090909088
 40
0.9090909090909088
 40
0.9090909090909088
 40
0.9090909090909088
 40
0.9545454545454543
 40
0.9545454545454543
 40
0.9545454545454543
 40
0.9545454545454543
 40
1.0
 40
1.0
 40
1.0
 40
1.0
 10
-12.20813
 20
-26.09968
 30
0.0
 10
-12.20813
 20
-26.09968
 30
0.0
 10
-12.20813
 20
-25.79446
 30
0.0
 10
-12.20813
 20
-25.79446
 30
0.0
 10
-12.20813
 20
-25.79446
 30
0.0
 10
-12.20813
 20
-25.79446
 30
0.0
 10
-12.11076
 20
-25.79446
 30
0.0
 10
-12.11076
 20
-25.79446
 30
0.0
 10
-12.11076
 20
-25.79446
 30
0.0
 10
-12.09129
 20
-25.79453
 30
0.0
 10
-12.07528
 20
-25.79672
 30
0.0
 10
-12.06265
 20
-25.80095
 30
0.0
 10
-12.06265
 20
-25.80095
 30
0.0
 10
-12.05009
 20
-25.80511
 30
0.0
 10
-12.04021
 20
-25.8109
 30
0.0
 10
-12.03308
 20
-25.81824
 30
0.0
 10
-12.03308
 20
-25.81824
 30
0.0
 10
-12.02596
 20
-25.8255
 30
0.0
 10
-12.02088
 20
-25.83383
 30
0.0
 10
-12.01777
 20
-25.84321
 30
0.0
 10
-12.01777
 20
-25.84321
 30
0.0
 10
-12.01474
 20
-25.8526
 30
0.0
 10
-12.01298
 20
-25.8624
 30
0.0
 10
-12.01255
 20
-25.87278
 30
0.0
 10
-12.01255
 20
-25.87278
 30
0.0
 10
-12.01206
 20
-25.88315
 30
0.0
 10
-12.01326
 20
-25.89331
 30
0.0
 10
-12.01608
 20
-25.90318
 30
0.0
 10
-12.01608
 20
-25.90318
 30
0.0
 10
-12.01897
 20
-25.91306
 30
0.0
 10
-12.02384
 20
-25.92202
 30
0.0
 10
-12.03083
 20
-25.93007
 30
0.0
 10
-12.03083
 20
-25.93007
 30
0.0
 10
-12.03774
 20
-25.93811
 30
0.0
 10
-12.04712
 20
-25.94453
 30
0.0
 10
-12.05891
 20
-25.94926
 30
0.0
 10
-12.05891
 20
-25.94926
 30
0.0
 10
-12.07069
 20
-25.95405
 30
0.0
 10
-12.08529
 20
-25.95645
 30
0.0
 10
-12.10272
 20
-25.95659
 30
0.0
 10
-12.10272
 20
-25.95659
 30
0.0
 10
-12.10272
 20
-25.95659
 30
0.0
 10
-12.20813
 20
-25.95659
 30
0.0
 10
-12.20813
 20
-25.95659
 30
0.0
 10
-12.20813
 20
-25.95659
 30
0.0
 10
-12.20813
 20
-25.95659
 30
0.0
 10
-12.10272
 20
-25.95659
 30
0.0
 10
-12.10272
 20
-25.95659
 30
0.0
 10
-12.10272
 20
-25.95659
 30
0.0
 10
-12.08565
 20
-25.95645
 30
0.0
 10
-12.07118
 20
-25.95405
 30
0.0
 10
-12.05947
 20
-25.94926
 30
0.0
 10
-12.05947
 20
-25.94926
 30
0.0
 10
-12.04769
 20
-25.94453
 30
0.0
 10
-12.0383
 20
-25.93811
 30
0.0
 10
-12.03125
 20
-25.93007
 30
0.0
 10
-12.03125
 20
-25.93007
 30
0.0
 10
-12.02426
 20
-25.92202
 30
0.0
 10
-12.01925
 20
-25.91306
 30
0.0
 10
-12.01629
 20
-25.90318
 30
0.0
 10
-12.01629
 20
-25.90318
 30
0.0
 10
-12.01333
 20
-25.89331
 30
0.0
 10
-12.01206
 20
-25.88315
 30
0.0
 10
-12.01255
 20
-25.87278
 30
0.0
 10
-12.01255
 20
-25.87278
 30
0.0
 10
-12.01298
 20
-25.8624
 30
0.0
 10
-12.01474
 20
-25.8526
 30
0.0
 10
-12.01791
 20
-25.84321
 30
0.0
 10
-12.01791
 20
-25.84321
 30
0.0
 10
-12.02102
 20
-25.83383
 30
0.0
 10
-12.02624
 20
-25.8255
 30
0.0
 10
-12.03337
 20
-25.81824
 30
0.0
 10
-12.03337
 20
-25.81824
 30
0.0
 10
-12.04056
 20
-25.8109
 30
0.0
 10
-12.05044
 20
-25.80511
 30
0.0
 10
-12.063
 20
-25.80095
 30
0.0
 10
-12.063
 20
-25.80095
 30
0.0
 10
-12.07563
 20
-25.79672
 30
0.0
 10
-12.0915
 20
-25.79453
 30
0.0
 10
-12.11076
 20
-25.79446
 30
0.0
 10
-12.11076
 20
-25.79446
 30
0.0
 10
-12.11076
 20
-25.79446
 30
0.0
 10
-12.20813
 20
-25.79446
 30
0.0
 10
-12.20813
 20
-25.79446
 30
0.0
 10
-12.20813
 20
-25.79446
 30
0.0
 10
-12.20813
 20
-25.79446
 30
0.0
 10
-12.20813
 20
-26.09968
 30
0.0
 10
-12.20813
 20
-26.09968
 30
0.0
  0
SPLINE
  5
86
330
1F
100
AcDbEntity
  8
Layer 1
 62
    30
370
    53
100
AcDbSpline
210
0.0
220
0.0
230
1.0
 70
    27
 71
     3
 72
    12
 73
     8
 74
     0
 42
0.0000000001
 43
0.0000000001
 40
0.0
 40
0.0
 40
0.0
 40
0.0
 40
0.5
 40
0.5
 40
0.5
 40
0.5
 40
1.0
 40
1.0
 40
1.0
 40
1.0
 10
-11.90757
 20
-25.94008
 30
0.0
 10
-11.90757
 20
-25.94008
 30
0.0
 10
-11.78438
 20
-25.94008
 30
0.0
 10
-11.78438
 20
-25.94008
 30
0.0
 10
-11.78438
 20
-25.94008
 30
0.0
 10
-11.78438
 20
-25.94008
 30
0.0
 10
-11.90757
 20
-25.94008
 30
0.0
 10
-11.90757
 20
-25.94008
 30
0.0
  0
SPLINE
  5
87
330
1F
100
AcDbEntity
  8
Layer 1
 62
    30
370
    53
100
AcDbSpline
210
0.0
220
0.0
230
1.0
 70
    11
 71
     3
 72
    60
 73
    56
 74
     0
 42
0.0000000001
 43
0.0000000001
 40
0.0
 40
0.0
 40
0.0
 40
0.0
 40
0.0714285714285714
 40
0.0714285714285714
 40
0.0714285714285714
 40
0.0714285714285714
 40
0.1428571428571428
 40
0.1428571428571428
 40
0.1428571428571428
 40
0.1428571428571428
 40
0.2142857142857143
 40
0.2142857142857143
 40
0.2142857142857143
 40
0.2142857142857143
 40
0.2857142857142857
 40
0.2857142857142857
 40
0.2857142857142857
 40
0.2857142857142857
 40
0.3571428571428571
 40
0.3571428571428571
 40
0.3571428571428571
 40
0.3571428571428571
 40
0.4285714285714285
 40
0.4285714285714285
 40
0.4285714285714285
 40
0.4285714285714285
 40
0.4999999999999999
 40
0.4999999999999999
 40
0.4999999999999999
 40
0.4999999999999999
 40
0.5714285714285713
 40
0.5714285714285713
 40
0.5714285714285713
 40
0.5714285714285713
 40
0.6428571428571427
 40
0.6428571428571427
 40
0.6428571428571427
 40
0.6428571428571427
 40
0.7142857142857141
 40
0.7142857142857141
 40
0.7142857142857141
 40
0.7142857142857141
 40
0.7857142857142855
 40
0.7857142857142855
 40
0.7857142857142855
 40
0.7857142857142855
 40
0.8571428571428569
 40
0.8571428571428569
 40
0.8571428571428569
 40
0.8571428571428569
 40
0.9285714285714283
 40
0.9285714285714283
 40
0.9285714285714283
 40
0.9285714285714283
 40
1.0
 40
1.0
 40
1.0
 40
1.0
 10
-11.42455
 20
-26.09968
 30
0.0
 10
-11.42737
 20
-26.09763
 30
0.0
 10
-11.42949
 20
-26.09516
 30
0.0
 10
-11.43104
 20
-26.09227
 30
0.0
 10
-11.43104
 20
-26.09227
 30
0.0
 10
-11.4326
 20
-26.08938
 30
0.0
 10
-11.43365
 20
-26.08649
 30
0.0
 10
-11.43429
 20
-26.08366
 30
0.0
 10
-11.43429
 20
-26.08366
 30
0.0
 10
-11.43485
 20
-26.08091
 30
0.0
 10
-11.43514
 20
-26.07858
 30
0.0
 10
-11.43514
 20
-26.07682
 30
0.0
 10
-11.43514
 20
-26.07682
 30
0.0
 10
-11.43514
 20
-26.07682
 30
0.0
 10
-11.44276
 20
-25.99977
 30
0.0
 10
-11.44276
 20
-25.99977
 30
0.0
 10
-11.44276
 20
-25.99977
 30
0.0
 10
-11.4436
 20
-25.9887
 30
0.0
 10
-11.44685
 20
-25.97896
 30
0.0
 10
-11.45242
 20
-25.97063
 30
0.0
 10
-11.45242
 20
-25.97063
 30
0.0
 10
-11.45807
 20
-25.96224
 30
0.0
 10
-11.46611
 20
-25.95575
 30
0.0
 10
-11.47669
 20
-25.95102
 30
0.0
 10
-11.47669
 20
-25.95102
 30
0.0
 10
-11.48721
 20
-25.94636
 30
0.0
 10
-11.50033
 20
-25.94397
 30
0.0
 10
-11.51599
 20
-25.94389
 30
0.0
 10
-11.51599
 20
-25.94389
 30
0.0
 10
-11.50033
 20
-25.94397
 30
0.0
 10
-11.48721
 20
-25.94636
 30
0.0
 10
-11.47669
 20
-25.95102
 30
0.0
 10
-11.47669
 20
-25.95102
 30
0.0
 10
-11.46611
 20
-25.95575
 30
0.0
 10
-11.45807
 20
-25.96224
 30
0.0
 10
-11.45242
 20
-25.97063
 30
0.0
 10
-11.45242
 20
-25.97063
 30
0.0
 10
-11.44685
 20
-25.97896
 30
0.0
 10
-11.4436
 20
-25.9887
 30
0.0
 10
-11.44276
 20
-25.99977
 30
0.0
 10
-11.44276
 20
-25.99977
 30
0.0
 10
-11.44276
 20
-25.99977
 30
0.0
 10
-11.43514
 20
-26.07682
 30
0.0
 10
-11.43514
 20
-26.07682
 30
0.0
 10
-11.43514
 20
-26.07682
 30
0.0
 10
-11.43514
 20
-26.07858
 30
0.0
 10
-11.43485
 20
-26.08091
 30
0.0
 10
-11.43429
 20
-26.08366
 30
0.0
 10
-11.43429
 20
-26.08366
 30
0.0
 10
-11.43365
 20
-26.08649
 30
0.0
 10
-11.4326
 20
-26.08938
 30
0.0
 10
-11.43104
 20
-26.09227
 30
0.0
 10
-11.43104
 20
-26.09227
 30
0.0
 10
-11.42949
 20
-26.09516
 30
0.0
 10
-11.42737
 20
-26.09763
 30
0.0
 10
-11.42455
 20
-26.09968
 30
0.0
  0
SPLINE
  5
88
330
1F
100
AcDbEntity
  8
Layer 1
 62
    30
370
    53
100
AcDbSpline
210
0.0
220
0.0
230
1.0
 70
    11
 71
     3
 72
    96
 73
    92
 74
     0
 42
0.0000000001
 43
0.0000000001
 40
0.0
 40
0.0
 40
0.0
 40
0.0
 40
0.0434782608695652
 40
0.0434782608695652
 40
0.0434782608695652
 40
0.0434782608695652
 40
0.0869565217391304
 40
0.0869565217391304
 40
0.0869565217391304
 40
0.0869565217391304
 40
0.1304347826086956
 40
0.1304347826086956
 40
0.1304347826086956
 40
0.1304347826086956
 40
0.1739130434782609
 40
0.1739130434782609
 40
0.1739130434782609
 40
0.1739130434782609
 40
0.2173913043478261
 40
0.2173913043478261
 40
0.2173913043478261
 40
0.2173913043478261
 40
0.2608695652173913
 40
0.2608695652173913
 40
0.2608695652173913
 40
0.2608695652173913
 40
0.3043478260869565
 40
0.3043478260869565
 40
0.3043478260869565
 40
0.3043478260869565
 40
0.3478260869565217
 40
0.3478260869565217
 40
0.3478260869565217
 40
0.3478260869565217
 40
0.3913043478260869
 40
0.3913043478260869
 40
0.3913043478260869
 40
0.3913043478260869
 40
0.4347826086956521
 40
0.4347826086956521
 40
0.4347826086956521
 40
0.4347826086956521
 40
0.4782608695652173
 40
0.4782608695652173
 40
0.4782608695652173
 40
0.4782608695652173
 40
0.5217391304347825
 40
0.5217391304347825
 40
0.5217391304347825
 40
0.5217391304347825
 40
0.5652173913043477
 40
0.5652173913043477
 40
0.5652173913043477
 40
0.5652173913043477
 40
0.6086956521739129
 40
0.6086956521739129
 40
0.6086956521739129
 40
0.6086956521739129
 40
0.652173913043478
 40
0.652173913043478
 40
0.652173913043478
 40
0.652173913043478
 40
0.6956521739130432
 40
0.6956521739130432
 40
0.6956521739130432
 40
0.6956521739130432
 40
0.7391304347826084
 40
0.7391304347826084
 40
0.7391304347826084
 40
0.7391304347826084
 40
0.7826086956521736
 40
0.7826086956521736
 40
0.7826086956521736
 40
0.7826086956521736
 40
0.8260869565217388
 40
0.8260869565217388
 40
0.8260869565217388
 40
0.8260869565217388
 40
0.869565217391304
 40
0.869565217391304
 40
0.869565217391304
 40
0.869565217391304
 40
0.9130434782608692
 40
0.9130434782608692
 40
0.9130434782608692
 40
0.9130434782608692
 40
0.9565217391304344
 40
0.9565217391304344
 40
0.9565217391304344
 40
0.9565217391304344
 40
1.0
 40
1.0
 40
1.0
 40
1.0
 10
-11.64172
 20
-26.09968
 30
0.0
 10
-11.64172
 20
-26.09968
 30
0.0
 10
-11.64172
 20
-25.79446
 30
0.0
 10
-11.64172
 20
-25.79446
 30
0.0
 10
-11.64172
 20
-25.79446
 30
0.0
 10
-11.64172
 20
-25.79446
 30
0.0
 10
-11.53038
 20
-25.79446
 30
0.0
 10
-11.53038
 20
-25.79446
 30
0.0
 10
-11.53038
 20
-25.79446
 30
0.0
 10
-11.51486
 20
-25.79446
 30
0.0
 10
-11.5016
 20
-25.79552
 30
0.0
 10
-11.49066
 20
-25.79756
 30
0.0
 10
-11.49066
 20
-25.79756
 30
0.0
 10
-11.47966
 20
-25.79961
 30
0.0
 10
-11.47055
 20
-25.80257
 30
0.0
 10
-11.46336
 20
-25.80645
 30
0.0
 10
-11.46336
 20
-25.80645
 30
0.0
 10
-11.45616
 20
-25.81033
 30
0.0
 10
-11.45052
 20
-25.81506
 30
0.0
 10
-11.44635
 20
-25.82063
 30
0.0
 10
-11.44635
 20
-25.82063
 30
0.0
 10
-11.44212
 20
-25.82614
 30
0.0
 10
-11.43916
 20
-25.83242
 30
0.0
 10
-11.43725
 20
-25.8394
 30
0.0
 10
-11.43725
 20
-25.8394
 30
0.0
 10
-11.43535
 20
-25.84639
 30
0.0
 10
-11.43422
 20
-25.85394
 30
0.0
 10
-11.43387
 20
-25.86219
 30
0.0
 10
-11.43387
 20
-25.86219
 30
0.0
 10
-11.43337
 20
-25.87256
 30
0.0
 10
-11.4345
 20
-25.88258
 30
0.0
 10
-11.43718
 20
-25.89225
 30
0.0
 10
-11.43718
 20
-25.89225
 30
0.0
 10
-11.43993
 20
-25.90198
 30
0.0
 10
-11.44466
 20
-25.91066
 30
0.0
 10
-11.45136
 20
-25.91842
 30
0.0
 10
-11.45136
 20
-25.91842
 30
0.0
 10
-11.45814
 20
-25.92619
 30
0.0
 10
-11.46724
 20
-25.93232
 30
0.0
 10
-11.47881
 20
-25.93691
 30
0.0
 10
-11.47881
 20
-25.93691
 30
0.0
 10
-11.49038
 20
-25.94143
 30
0.0
 10
-11.5047
 20
-25.94382
 30
0.0
 10
-11.52192
 20
-25.94389
 30
0.0
 10
-11.52192
 20
-25.94389
 30
0.0
 10
-11.52192
 20
-25.94389
 30
0.0
 10
-11.64172
 20
-25.94389
 30
0.0
 10
-11.64172
 20
-25.94389
 30
0.0
 10
-11.64172
 20
-25.94389
 30
0.0
 10
-11.64172
 20
-25.94389
 30
0.0
 10
-11.52192
 20
-25.94389
 30
0.0
 10
-11.52192
 20
-25.94389
 30
0.0
 10
-11.52192
 20
-25.94389
 30
0.0
 10
-11.50506
 20
-25.94382
 30
0.0
 10
-11.49087
 20
-25.94143
 30
0.0
 10
-11.47937
 20
-25.93691
 30
0.0
 10
-11.47937
 20
-25.93691
 30
0.0
 10
-11.46787
 20
-25.93232
 30
0.0
 10
-11.4587
 20
-25.92619
 30
0.0
 10
-11.45186
 20
-25.91842
 30
0.0
 10
-11.45186
 20
-25.91842
 30
0.0
 10
-11.44501
 20
-25.91066
 30
0.0
 10
-11.44022
 20
-25.90198
 30
0.0
 10
-11.43739
 20
-25.89225
 30
0.0
 10
-11.43739
 20
-25.89225
 30
0.0
 10
-11.43457
 20
-25.88258
 30
0.0
 10
-11.43337
 20
-25.87256
 30
0.0
 10
-11.43387
 20
-25.86219
 30
0.0
 10
-11.43387
 20
-25.86219
 30
0.0
 10
-11.43429
 20
-25.85189
 30
0.0
 10
-11.43605
 20
-25.84258
 30
0.0
 10
-11.43916
 20
-25.83425
 30
0.0
 10
-11.43916
 20
-25.83425
 30
0.0
 10
-11.44219
 20
-25.826
 30
0.0
 10
-11.44727
 20
-25.81887
 30
0.0
 10
-11.45433
 20
-25.81294
 30
0.0
 10
-11.45433
 20
-25.81294
 30
0.0
 10
-11.46138
 20
-25.80702
 30
0.0
 10
-11.47112
 20
-25.80243
 30
0.0
 10
-11.48347
 20
-25.79926
 30
0.0
 10
-11.48347
 20
-25.79926
 30
0.0
 10
-11.49581
 20
-25.79608
 30
0.0
 10
-11.51148
 20
-25.79446
 30
0.0
 10
-11.53038
 20
-25.79446
 30
0.0
 10
-11.53038
 20
-25.79446
 30
0.0
 10
-11.53038
 20
-25.79446
 30
0.0
 10
-11.64172
 20
-25.79446
 30
0.0
 10
-11.64172
 20
-25.79446
 30
0.0
 10
-11.64172
 20
-25.79446
 30
0.0
 10
-11.64172
 20
-25.79446
 30
0.0
 10
-11.64172
 20
-26.09968
 30
0.0
 10
-11.64172
 20
-26.09968
 30
0.0
  0
SPLINE
  5
89
330
1F
100
AcDbEntity
  8
Layer 1
 62
    30
370
    53
100
AcDbSpline
210
0.0
220
0.0
230
1.0
 70
    11
 71
     3
 72
    20
 73
    16
 74
     0
 42
0.0000000001
 43
0.0000000001
 40
0.0
 40
0.0
 40
0.0
 40
0.0
 40
0.25
 40
0.25
 40
0.25
 40
0.25
 40
0.5
 40
0.5
 40
0.5
 40
0.5
 40
0.75
 40
0.75
 40
0.75
 40
0.75
 40
1.0
 40
1.0
 40
1.0
 40
1.0
 10
-11.32041
 20
-26.09968
 30
0.0
 10
-11.32041
 20
-26.09968
 30
0.0
 10
-11.19934
 20
-25.79446
 30
0.0
 10
-11.19934
 20
-25.79446
 30
0.0
 10
-11.19934
 20
-25.79446
 30
0.0
 10
-11.19934
 20
-25.79446
 30
0.0
 10
-11.07784
 20
-26.09968
 30
0.0
 10
-11.07784
 20
-26.09968
 30
0.0
 10
-11.07784
 20
-26.09968
 30
0.0
 10
-11.07784
 20
-26.09968
 30
0.0
 10
-11.19934
 20
-25.79446
 30
0.0
 10
-11.19934
 20
-25.79446
 30
0.0
 10
-11.19934
 20
-25.79446
 30
0.0
 10
-11.19934
 20
-25.79446
 30
0.0
 10
-11.32041
 20
-26.09968
 30
0.0
 10
-11.32041
 20
-26.09968
 30
0.0
  0
SPLINE
  5
8A
330
1F
100
AcDbEntity
  8
Layer 1
 62
    30
370
    53
100
AcDbSpline
210
0.0
220
0.0
230
1.0
 70
    27
 71
     3
 72
    12
 73
     8
 74
     0
 42
0.0000000001
 43
0.0000000001
 40
0.0
 40
0.0
 40
0.0
 40
0.0
 40
0.5
 40
0.5
 40
0.5
 40
0.5
 40
1.0
 40
1.0
 40
1.0
 40
1.0
 10
-11.28231
 20
-26.00358
 30
0.0
 10
-11.28231
 20
-26.00358
 30
0.0
 10
-11.11637
 20
-26.00358
 30
0.0
 10
-11.11637
 20
-26.00358
 30
0.0
 10
-11.11637
 20
-26.00358
 30
0.0
 10
-11.11637
 20
-26.00358
 30
0.0
 10
-11.28231
 20
-26.00358
 30
0.0
 10
-11.28231
 20
-26.00358
 30
0.0
  0
SPLINE
  5
8B
330
1F
100
AcDbEntity
  8
Layer 1
 62
    30
370
    53
100
AcDbSpline
210
0.0
220
0.0
230
1.0
 70
    11
 71
     3
 72
   188
 73
   184
 74
     0
 42
0.0000000001
 43
0.0000000001
 40
0.0
 40
0.0
 40
0.0
 40
0.0
 40
0.0217391304347826
 40
0.0217391304347826
 40
0.0217391304347826
 40
0.0217391304347826
 40
0.0434782608695652
 40
0.0434782608695652
 40
0.0434782608695652
 40
0.0434782608695652
 40
0.0652173913043478
 40
0.0652173913043478
 40
0.0652173913043478
 40
0.0652173913043478
 40
0.0869565217391304
 40
0.0869565217391304
 40
0.0869565217391304
 40
0.0869565217391304
 40
0.108695652173913
 40
0.108695652173913
 40
0.108695652173913
 40
0.108695652173913
 40
0.1304347826086956
 40
0.1304347826086956
 40
0.1304347826086956
 40
0.1304347826086956
 40
0.1521739130434783
 40
0.1521739130434783
 40
0.1521739130434783
 40
0.1521739130434783
 40
0.1739130434782609
 40
0.1739130434782609
 40
0.1739130434782609
 40
0.1739130434782609
 40
0.1956521739130435
 40
0.1956521739130435
 40
0.1956521739130435
 40
0.1956521739130435
 40
0.2173913043478261
 40
0.2173913043478261
 40
0.2173913043478261
 40
0.2173913043478261
 40
0.2391304347826086
 40
0.2391304347826086
 40
0.2391304347826086
 40
0.2391304347826086
 40
0.2608695652173912
 40
0.2608695652173912
 40
0.2608695652173912
 40
0.2608695652173912
 40
0.2826086956521738
 40
0.2826086956521738
 40
0.2826086956521738
 40
0.2826086956521738
 40
0.3043478260869564
 40
0.3043478260869564
 40
0.3043478260869564
 40
0.3043478260869564
 40
0.326086956521739
 40
0.326086956521739
 40
0.326086956521739
 40
0.326086956521739
 40
0.3478260869565216
 40
0.3478260869565216
 40
0.3478260869565216
 40
0.3478260869565216
 40
0.3695652173913042
 40
0.3695652173913042
 40
0.3695652173913042
 40
0.3695652173913042
 40
0.3913043478260868
 40
0.3913043478260868
 40
0.3913043478260868
 40
0.3913043478260868
 40
0.4130434782608694
 40
0.4130434782608694
 40
0.4130434782608694
 40
0.4130434782608694
 40
0.434782608695652
 40
0.434782608695652
 40
0.434782608695652
 40
0.434782608695652
 40
0.4565217391304346
 40
0.4565217391304346
 40
0.4565217391304346
 40
0.4565217391304346
 40
0.4782608695652172
 40
0.4782608695652172
 40
0.4782608695652172
 40
0.4782608695652172
 40
0.4999999999999998
 40
0.4999999999999998
 40
0.4999999999999998
 40
0.4999999999999998
 40
0.5217391304347824
 40
0.5217391304347824
 40
0.5217391304347824
 40
0.5217391304347824
 40
0.543478260869565
 40
0.543478260869565
 40
0.543478260869565
 40
0.543478260869565
 40
0.5652173913043476
 40
0.5652173913043476
 40
0.5652173913043476
 40
0.5652173913043476
 40
0.5869565217391302
 40
0.5869565217391302
 40
0.5869565217391302
 40
0.5869565217391302
 40
0.6086956521739127
 40
0.6086956521739127
 40
0.6086956521739127
 40
0.6086956521739127
 40
0.6304347826086953
 40
0.6304347826086953
 40
0.6304347826086953
 40
0.6304347826086953
 40
0.6521739130434779
 40
0.6521739130434779
 40
0.6521739130434779
 40
0.6521739130434779
 40
0.6739130434782605
 40
0.6739130434782605
 40
0.6739130434782605
 40
0.6739130434782605
 40
0.6956521739130431
 40
0.6956521739130431
 40
0.6956521739130431
 40
0.6956521739130431
 40
0.7173913043478257
 40
0.7173913043478257
 40
0.7173913043478257
 40
0.7173913043478257
 40
0.7391304347826083
 40
0.7391304347826083
 40
0.7391304347826083
 40
0.7391304347826083
 40
0.7608695652173909
 40
0.7608695652173909
 40
0.7608695652173909
 40
0.7608695652173909
 40
0.7826086956521735
 40
0.7826086956521735
 40
0.7826086956521735
 40
0.7826086956521735
 40
0.8043478260869561
 40
0.8043478260869561
 40
0.8043478260869561
 40
0.8043478260869561
 40
0.8260869565217387
 40
0.8260869565217387
 40
0.8260869565217387
 40
0.8260869565217387
 40
0.8478260869565213
 40
0.8478260869565213
 40
0.8478260869565213
 40
0.8478260869565213
 40
0.8695652173913039
 40
0.8695652173913039
 40
0.8695652173913039
 40
0.8695652173913039
 40
0.8913043478260865
 40
0.8913043478260865
 40
0.8913043478260865
 40
0.8913043478260865
 40
0.9130434782608691
 40
0.9130434782608691
 40
0.9130434782608691
 40
0.9130434782608691
 40
0.9347826086956517
 40
0.9347826086956517
 40
0.9347826086956517
 40
0.9347826086956517
 40
0.9565217391304343
 40
0.9565217391304343
 40
0.9565217391304343
 40
0.9565217391304343
 40
0.9782608695652169
 40
0.9782608695652169
 40
0.9782608695652169
 40
0.9782608695652169
 40
1.0
 40
1.0
 40
1.0
 40
1.0
 10
-10.97455
 20
-26.00739
 30
0.0
 10
-10.97441
 20
-26.02426
 30
0.0
 10
-10.97145
 20
-26.03872
 30
0.0
 10
-10.96552
 20
-26.05079
 30
0.0
 10
-10.96552
 20
-26.05079
 30
0.0
 10
-10.95966
 20
-26.06278
 30
0.0
 10
-10.95148
 20
-26.07259
 30
0.0
 10
-10.94118
 20
-26.08021
 30
0.0
 10
-10.94118
 20
-26.08021
 30
0.0
 10
-10.93081
 20
-26.08776
 30
0.0
 10
-10.91888
 20
-26.09333
 30
0.0
 10
-10.90541
 20
-26.09693
 30
0.0
 10
-10.90541
 20
-26.09693
 30
0.0
 10
-10.892
 20
-26.10046
 30
0.0
 10
-10.87761
 20
-26.10222
 30
0.0
 10
-10.86237
 20
-26.10222
 30
0.0
 10
-10.86237
 20
-26.10222
 30
0.0
 10
-10.84699
 20
-26.10215
 30
0.0
 10
-10.83316
 20
-26.09989
 30
0.0
 10
-10.82081
 20
-26.09559
 30
0.0
 10
-10.82081
 20
-26.09559
 30
0.0
 10
-10.80853
 20
-26.09128
 30
0.0
 10
-10.79802
 20
-26.0855
 30
0.0
 10
-10.7892
 20
-26.07823
 30
0.0
 10
-10.7892
 20
-26.07823
 30
0.0
 10
-10.78045
 20
-26.07096
 30
0.0
 10
-10.77368
 20
-26.06285
 30
0.0
 10
-10.76888
 20
-26.05382
 30
0.0
 10
-10.76888
 20
-26.05382
 30
0.0
 10
-10.76408
 20
-26.04479
 30
0.0
 10
-10.76154
 20
-26.03555
 30
0.0
 10
-10.76119
 20
-26.02602
 30
0.0
 10
-10.76119
 20
-26.02602
 30
0.0
 10
-10.76077
 20
-26.01353
 30
0.0
 10
-10.7626
 20
-26.0021
 30
0.0
 10
-10.76662
 20
-25.9918
 30
0.0
 10
-10.76662
 20
-25.9918
 30
0.0
 10
-10.77065
 20
-25.9815
 30
0.0
 10
-10.77686
 20
-25.97289
 30
0.0
 10
-10.78525
 20
-25.96584
 30
0.0
 10
-10.78525
 20
-25.96584
 30
0.0
 10
-10.79358
 20
-25.95878
 30
0.0
 10
-10.80409
 20
-25.95384
 30
0.0
 10
-10.81665
 20
-25.95109
 30
0.0
 10
-10.81665
 20
-25.95109
 30
0.0
 10
-10.81665
 20
-25.95109
 30
0.0
 10
-10.92036
 20
-25.92865
 30
0.0
 10
-10.92036
 20
-25.92865
 30
0.0
 10
-10.92036
 20
-25.92865
 30
0.0
 10
-10.9301
 20
-25.92661
 30
0.0
 10
-10.9385
 20
-25.92315
 30
0.0
 10
-10.94541
 20
-25.91835
 30
0.0
 10
-10.94541
 20
-25.91835
 30
0.0
 10
-10.95233
 20
-25.91349
 30
0.0
 10
-10.95769
 20
-25.90678
 30
0.0
 10
-10.96136
 20
-25.89817
 30
0.0
 10
-10.96136
 20
-25.89817
 30
0.0
 10
-10.96503
 20
-25.88964
 30
0.0
 10
-10.96693
 20
-25.87877
 30
0.0
 10
-10.96693
 20
-25.86558
 30
0.0
 10
-10.96693
 20
-25.86558
 30
0.0
 10
-10.96693
 20
-25.85556
 30
0.0
 10
-10.96488
 20
-25.84611
 30
0.0
 10
-10.96072
 20
-25.83722
 30
0.0
 10
-10.96072
 20
-25.83722
 30
0.0
 10
-10.95663
 20
-25.82833
 30
0.0
 10
-10.95056
 20
-25.82049
 30
0.0
 10
-10.94259
 20
-25.81358
 30
0.0
 10
-10.94259
 20
-25.81358
 30
0.0
 10
-10.93462
 20
-25.80674
 30
0.0
 10
-10.92474
 20
-25.80137
 30
0.0
 10
-10.91303
 20
-25.79749
 30
0.0
 10
-10.91303
 20
-25.79749
 30
0.0
 10
-10.90124
 20
-25.79354
 30
0.0
 10
-10.88777
 20
-25.79157
 30
0.0
 10
-10.87253
 20
-25.7915
 30
0.0
 10
-10.87253
 20
-25.7915
 30
0.0
 10
-10.85722
 20
-25.7915
 30
0.0
 10
-10.84318
 20
-25.79326
 30
0.0
 10
-10.83034
 20
-25.79679
 30
0.0
 10
-10.83034
 20
-25.79679
 30
0.0
 10
-10.81757
 20
-25.80032
 30
0.0
 10
-10.80649
 20
-25.8054
 30
0.0
 10
-10.79718
 20
-25.81217
 30
0.0
 10
-10.79718
 20
-25.81217
 30
0.0
 10
-10.78786
 20
-25.81894
 30
0.0
 10
-10.78067
 20
-25.82727
 30
0.0
 10
-10.77573
 20
-25.837
 30
0.0
 10
-10.77573
 20
-25.837
 30
0.0
 10
-10.77079
 20
-25.84681
 30
0.0
 10
-10.76846
 20
-25.85803
 30
0.0
 10
-10.76881
 20
-25.87066
 30
0.0
 10
-10.76881
 20
-25.87066
 30
0.0
 10
-10.76846
 20
-25.85803
 30
0.0
 10
-10.77079
 20
-25.84681
 30
0.0
 10
-10.77573
 20
-25.837
 30
0.0
 10
-10.77573
 20
-25.837
 30
0.0
 10
-10.78067
 20
-25.82727
 30
0.0
 10
-10.78786
 20
-25.81894
 30
0.0
 10
-10.79718
 20
-25.81217
 30
0.0
 10
-10.79718
 20
-25.81217
 30
0.0
 10
-10.80649
 20
-25.8054
 30
0.0
 10
-10.81757
 20
-25.80032
 30
0.0
 10
-10.83034
 20
-25.79679
 30
0.0
 10
-10.83034
 20
-25.79679
 30
0.0
 10
-10.84318
 20
-25.79326
 30
0.0
 10
-10.85722
 20
-25.7915
 30
0.0
 10
-10.87253
 20
-25.7915
 30
0.0
 10
-10.87253
 20
-25.7915
 30
0.0
 10
-10.88777
 20
-25.79157
 30
0.0
 10
-10.90124
 20
-25.79354
 30
0.0
 10
-10.91303
 20
-25.79749
 30
0.0
 10
-10.91303
 20
-25.79749
 30
0.0
 10
-10.92474
 20
-25.80137
 30
0.0
 10
-10.93462
 20
-25.80674
 30
0.0
 10
-10.94259
 20
-25.81358
 30
0.0
 10
-10.94259
 20
-25.81358
 30
0.0
 10
-10.95056
 20
-25.82049
 30
0.0
 10
-10.95663
 20
-25.82833
 30
0.0
 10
-10.96072
 20
-25.83722
 30
0.0
 10
-10.96072
 20
-25.83722
 30
0.0
 10
-10.96488
 20
-25.84611
 30
0.0
 10
-10.96693
 20
-25.85556
 30
0.0
 10
-10.96693
 20
-25.86558
 30
0.0
 10
-10.96693
 20
-25.86558
 30
0.0
 10
-10.96693
 20
-25.87877
 30
0.0
 10
-10.9651
 20
-25.88964
 30
0.0
 10
-10.96157
 20
-25.8981
 30
0.0
 10
-10.96157
 20
-25.8981
 30
0.0
 10
-10.95797
 20
-25.90664
 30
0.0
 10
-10.95268
 20
-25.91327
 30
0.0
 10
-10.94576
 20
-25.91814
 30
0.0
 10
-10.94576
 20
-25.91814
 30
0.0
 10
-10.93885
 20
-25.92294
 30
0.0
 10
-10.93038
 20
-25.92647
 30
0.0
 10
-10.92036
 20
-25.92865
 30
0.0
 10
-10.92036
 20
-25.92865
 30
0.0
 10
-10.92036
 20
-25.92865
 30
0.0
 10
-10.81665
 20
-25.95109
 30
0.0
 10
-10.81665
 20
-25.95109
 30
0.0
 10
-10.81665
 20
-25.95109
 30
0.0
 10
-10.80381
 20
-25.95384
 30
0.0
 10
-10.79322
 20
-25.95878
 30
0.0
 10
-10.7849
 20
-25.96584
 30
0.0
 10
-10.7849
 20
-25.96584
 30
0.0
 10
-10.7765
 20
-25.97289
 30
0.0
 10
-10.77036
 20
-25.9815
 30
0.0
 10
-10.76641
 20
-25.9918
 30
0.0
 10
-10.76641
 20
-25.9918
 30
0.0
 10
-10.76253
 20
-26.0021
 30
0.0
 10
-10.76077
 20
-26.01353
 30
0.0
 10
-10.76119
 20
-26.02602
 30
0.0
 10
-10.76119
 20
-26.02602
 30
0.0
 10
-10.76154
 20
-26.03555
 30
0.0
 10
-10.76408
 20
-26.04479
 30
0.0
 10
-10.76888
 20
-26.05382
 30
0.0
 10
-10.76888
 20
-26.05382
 30
0.0
 10
-10.77368
 20
-26.06285
 30
0.0
 10
-10.78045
 20
-26.07096
 30
0.0
 10
-10.7892
 20
-26.07823
 30
0.0
 10
-10.7892
 20
-26.07823
 30
0.0
 10
-10.79802
 20
-26.0855
 30
0.0
 10
-10.80853
 20
-26.09128
 30
0.0
 10
-10.82081
 20
-26.09559
 30
0.0
 10
-10.82081
 20
-26.09559
 30
0.0
 10
-10.83316
 20
-26.09989
 30
0.0
 10
-10.84699
 20
-26.10215
 30
0.0
 10
-10.86237
 20
-26.10222
 30
0.0
 10
-10.86237
 20
-26.10222
 30
0.0
 10
-10.87761
 20
-26.10222
 30
0.0
 10
-10.892
 20
-26.10046
 30
0.0
 10
-10.90541
 20
-26.09693
 30
0.0
 10
-10.90541
 20
-26.09693
 30
0.0
 10
-10.91888
 20
-26.09333
 30
0.0
 10
-10.93081
 20
-26.08776
 30
0.0
 10
-10.94118
 20
-26.08021
 30
0.0
 10
-10.94118
 20
-26.08021
 30
0.0
 10
-10.95148
 20
-26.07259
 30
0.0
 10
-10.95966
 20
-26.06278
 30
0.0
 10
-10.96552
 20
-26.05079
 30
0.0
 10
-10.96552
 20
-26.05079
 30
0.0
 10
-10.97145
 20
-26.03872
 30
0.0
 10
-10.97441
 20
-26.02426
 30
0.0
 10
-10.97455
 20
-26.00739
 30
0.0
  0
SPLINE
  5
8C
330
1F
100
AcDbEntity
  8
Layer 1
 62
    30
370
    53
100
AcDbSpline
210
0.0
220
0.0
230
1.0
 70
    11
 71
     3
 72
    92
 73
    88
 74
     0
 42
0.0000000001
 43
0.0000000001
 40
0.0
 40
0.0
 40
0.0
 40
0.0
 40
0.0454545454545455
 40
0.0454545454545455
 40
0.0454545454545455
 40
0.0454545454545455
 40
0.0909090909090909
 40
0.0909090909090909
 40
0.0909090909090909
 40
0.0909090909090909
 40
0.1363636363636364
 40
0.1363636363636364
 40
0.1363636363636364
 40
0.1363636363636364
 40
0.1818181818181818
 40
0.1818181818181818
 40
0.1818181818181818
 40
0.1818181818181818
 40
0.2272727272727273
 40
0.2272727272727273
 40
0.2272727272727273
 40
0.2272727272727273
 40
0.2727272727272728
 40
0.2727272727272728
 40
0.2727272727272728
 40
0.2727272727272728
 40
0.3181818181818182
 40
0.3181818181818182
 40
0.3181818181818182
 40
0.3181818181818182
 40
0.3636363636363637
 40
0.3636363636363637
 40
0.3636363636363637
 40
0.3636363636363637
 40
0.4090909090909092
 40
0.4090909090909092
 40
0.4090909090909092
 40
0.4090909090909092
 40
0.4545454545454546
 40
0.4545454545454546
 40
0.4545454545454546
 40
0.4545454545454546
 40
0.5000000000000001
 40
0.5000000000000001
 40
0.5000000000000001
 40
0.5000000000000001
 40
0.5454545454545455
 40
0.5454545454545455
 40
0.5454545454545455
 40
0.5454545454545455
 40
0.5909090909090909
 40
0.5909090909090909
 40
0.5909090909090909
 40
0.5909090909090909
 40
0.6363636363636364
 40
0.6363636363636364
 40
0.6363636363636364
 40
0.6363636363636364
 40
0.6818181818181818
 40
0.6818181818181818
 40
0.6818181818181818
 40
0.6818181818181818
 40
0.7272727272727272
 40
0.7272727272727272
 40
0.7272727272727272
 40
0.7272727272727272
 40
0.7727272727272726
 40
0.7727272727272726
 40
0.7727272727272726
 40
0.7727272727272726
 40
0.818181818181818
 40
0.818181818181818
 40
0.818181818181818
 40
0.818181818181818
 40
0.8636363636363634
 40
0.8636363636363634
 40
0.8636363636363634
 40
0.8636363636363634
 40
0.9090909090909088
 40
0.9090909090909088
 40
0.9090909090909088
 40
0.9090909090909088
 40
0.9545454545454543
 40
0.9545454545454543
 40
0.9545454545454543
 40
0.9545454545454543
 40
1.0
 40
1.0
 40
1.0
 40
1.0
 10
-10.6126
 20
-26.09968
 30
0.0
 10
-10.6126
 20
-26.09968
 30
0.0
 10
-10.6126
 20
-25.79446
 30
0.0
 10
-10.6126
 20
-25.79446
 30
0.0
 10
-10.6126
 20
-25.79446
 30
0.0
 10
-10.6126
 20
-25.79446
 30
0.0
 10
-10.51523
 20
-25.79446
 30
0.0
 10
-10.51523
 20
-25.79446
 30
0.0
 10
-10.51523
 20
-25.79446
 30
0.0
 10
-10.49576
 20
-25.79453
 30
0.0
 10
-10.47975
 20
-25.79672
 30
0.0
 10
-10.46712
 20
-25.80095
 30
0.0
 10
-10.46712
 20
-25.80095
 30
0.0
 10
-10.45456
 20
-25.80511
 30
0.0
 10
-10.44468
 20
-25.8109
 30
0.0
 10
-10.43755
 20
-25.81824
 30
0.0
 10
-10.43755
 20
-25.81824
 30
0.0
 10
-10.43043
 20
-25.8255
 30
0.0
 10
-10.42535
 20
-25.83383
 30
0.0
 10
-10.42224
 20
-25.84321
 30
0.0
 10
-10.42224
 20
-25.84321
 30
0.0
 10
-10.41921
 20
-25.8526
 30
0.0
 10
-10.41745
 20
-25.8624
 30
0.0
 10
-10.41702
 20
-25.87278
 30
0.0
 10
-10.41702
 20
-25.87278
 30
0.0
 10
-10.41653
 20
-25.88315
 30
0.0
 10
-10.41773
 20
-25.89331
 30
0.0
 10
-10.42055
 20
-25.90318
 30
0.0
 10
-10.42055
 20
-25.90318
 30
0.0
 10
-10.42344
 20
-25.91306
 30
0.0
 10
-10.42831
 20
-25.92202
 30
0.0
 10
-10.4353
 20
-25.93007
 30
0.0
 10
-10.4353
 20
-25.93007
 30
0.0
 10
-10.44221
 20
-25.93811
 30
0.0
 10
-10.45159
 20
-25.94453
 30
0.0
 10
-10.46338
 20
-25.94926
 30
0.0
 10
-10.46338
 20
-25.94926
 30
0.0
 10
-10.47516
 20
-25.95405
 30
0.0
 10
-10.48976
 20
-25.95645
 30
0.0
 10
-10.50719
 20
-25.95659
 30
0.0
 10
-10.50719
 20
-25.95659
 30
0.0
 10
-10.50719
 20
-25.95659
 30
0.0
 10
-10.6126
 20
-25.95659
 30
0.0
 10
-10.6126
 20
-25.95659
 30
0.0
 10
-10.6126
 20
-25.95659
 30
0.0
 10
-10.6126
 20
-25.95659
 30
0.0
 10
-10.50719
 20
-25.95659
 30
0.0
 10
-10.50719
 20
-25.95659
 30
0.0
 10
-10.50719
 20
-25.95659
 30
0.0
 10
-10.49012
 20
-25.95645
 30
0.0
 10
-10.47565
 20
-25.95405
 30
0.0
 10
-10.46394
 20
-25.94926
 30
0.0
 10
-10.46394
 20
-25.94926
 30
0.0
 10
-10.45216
 20
-25.94453
 30
0.0
 10
-10.44277
 20
-25.93811
 30
0.0
 10
-10.43572
 20
-25.93007
 30
0.0
 10
-10.43572
 20
-25.93007
 30
0.0
 10
-10.42873
 20
-25.92202
 30
0.0
 10
-10.42372
 20
-25.91306
 30
0.0
 10
-10.42076
 20
-25.90318
 30
0.0
 10
-10.42076
 20
-25.90318
 30
0.0
 10
-10.4178
 20
-25.89331
 30
0.0
 10
-10.41653
 20
-25.88315
 30
0.0
 10
-10.41702
 20
-25.87278
 30
0.0
 10
-10.41702
 20
-25.87278
 30
0.0
 10
-10.41745
 20
-25.8624
 30
0.0
 10
-10.41921
 20
-25.8526
 30
0.0
 10
-10.42238
 20
-25.84321
 30
0.0
 10
-10.42238
 20
-25.84321
 30
0.0
 10
-10.42549
 20
-25.83383
 30
0.0
 10
-10.43071
 20
-25.8255
 30
0.0
 10
-10.43784
 20
-25.81824
 30
0.0
 10
-10.43784
 20
-25.81824
 30
0.0
 10
-10.44503
 20
-25.8109
 30
0.0
 10
-10.45491
 20
-25.80511
 30
0.0
 10
-10.46747
 20
-25.80095
 30
0.0
 10
-10.46747
 20
-25.80095
 30
0.0
 10
-10.4801
 20
-25.79672
 30
0.0
 10
-10.49597
 20
-25.79453
 30
0.0
 10
-10.51523
 20
-25.79446
 30
0.0
 10
-10.51523
 20
-25.79446
 30
0.0
 10
-10.51523
 20
-25.79446
 30
0.0
 10
-10.6126
 20
-25.79446
 30
0.0
 10
-10.6126
 20
-25.79446
 30
0.0
 10
-10.6126
 20
-25.79446
 30
0.0
 10
-10.6126
 20
-25.79446
 30
0.0
 10
-10.6126
 20
-26.09968
 30
0.0
 10
-10.6126
 20
-26.09968
 30
0.0
  0
SPLINE
  5
8D
330
1F
100
AcDbEntity
  8
Layer 1
 62
    30
370
    53
100
AcDbSpline
210
0.0
220
0.0
230
1.0
 70
    27
 71
     3
 72
    12
 73
     8
 74
     0
 42
0.0000000001
 43
0.0000000001
 40
0.0
 40
0.0
 40
0.0
 40
0.0
 40
0.5
 40
0.5
 40
0.5
 40
0.5
 40
1.0
 40
1.0
 40
1.0
 40
1.0
 10
-10.31204
 20
-25.94008
 30
0.0
 10
-10.31204
 20
-25.94008
 30
0.0
 10
-10.18885
 20
-25.94008
 30
0.0
 10
-10.18885
 20
-25.94008
 30
0.0
 10
-10.18885
 20
-25.94008
 30
0.0
 10
-10.18885
 20
-25.94008
 30
0.0
 10
-10.31204
 20
-25.94008
 30
0.0
 10
-10.31204
 20
-25.94008
 30
0.0
  0
SPLINE
  5
8E
330
1F
100
AcDbEntity
  8
Layer 1
 62
    30
370
    53
100
AcDbSpline
210
0.0
220
0.0
230
1.0
 70
    11
 71
     3
 72
    84
 73
    80
 74
     0
 42
0.0000000001
 43
0.0000000001
 40
0.0
 40
0.0
 40
0.0
 40
0.0
 40
0.05
 40
0.05
 40
0.05
 40
0.05
 40
0.1
 40
0.1
 40
0.1
 40
0.1
 40
0.15
 40
0.15
 40
0.15
 40
0.15
 40
0.2
 40
0.2
 40
0.2
 40
0.2
 40
0.25
 40
0.25
 40
0.25
 40
0.25
 40
0.3
 40
0.3
 40
0.3
 40
0.3
 40
0.35
 40
0.35
 40
0.35
 40
0.35
 40
0.4
 40
0.4
 40
0.4
 40
0.4
 40
0.45
 40
0.45
 40
0.45
 40
0.45
 40
0.4999999999999999
 40
0.4999999999999999
 40
0.4999999999999999
 40
0.4999999999999999
 40
0.5499999999999999
 40
0.5499999999999999
 40
0.5499999999999999
 40
0.5499999999999999
 40
0.6
 40
0.6
 40
0.6
 40
0.6
 40
0.65
 40
0.65
 40
0.65
 40
0.65
 40
0.7000000000000001
 40
0.7000000000000001
 40
0.7000000000000001
 40
0.7000000000000001
 40
0.7500000000000001
 40
0.7500000000000001
 40
0.7500000000000001
 40
0.7500000000000001
 40
0.8000000000000002
 40
0.8000000000000002
 40
0.8000000000000002
 40
0.8000000000000002
 40
0.8500000000000002
 40
0.8500000000000002
 40
0.8500000000000002
 40
0.8500000000000002
 40
0.9000000000000002
 40
0.9000000000000002
 40
0.9000000000000002
 40
0.9000000000000002
 40
0.9500000000000003
 40
0.9500000000000003
 40
0.9500000000000003
 40
0.9500000000000003
 40
1.0
 40
1.0
 40
1.0
 40
1.0
 10
-9.99962
 20
-26.09968
 30
0.0
 10
-9.98481
 20
-26.09961
 30
0.0
 10
-9.97204
 20
-26.097
 30
0.0
 10
-9.96138
 20
-26.09192
 30
0.0
 10
-9.96138
 20
-26.09192
 30
0.0
 10
-9.9508
 20
-26.08684
 30
0.0
 10
-9.94198
 20
-26.07957
 30
0.0
 10
-9.93493
 20
-26.07033
 30
0.0
 10
-9.93493
 20
-26.07033
 30
0.0
 10
-9.92794
 20
-26.06102
 30
0.0
 10
-9.92244
 20
-26.05001
 30
0.0
 10
-9.91835
 20
-26.03731
 30
0.0
 10
-9.91835
 20
-26.03731
 30
0.0
 10
-9.91432
 20
-26.02461
 30
0.0
 10
-9.91143
 20
-26.01071
 30
0.0
 10
-9.90981
 20
-25.99547
 30
0.0
 10
-9.90981
 20
-25.99547
 30
0.0
 10
-9.90811
 20
-25.98023
 30
0.0
 10
-9.90727
 20
-25.96421
 30
0.0
 10
-9.90734
 20
-25.94728
 30
0.0
 10
-9.90734
 20
-25.94728
 30
0.0
 10
-9.90727
 20
-25.93042
 30
0.0
 10
-9.90811
 20
-25.9144
 30
0.0
 10
-9.90981
 20
-25.89923
 30
0.0
 10
-9.90981
 20
-25.89923
 30
0.0
 10
-9.91143
 20
-25.88406
 30
0.0
 10
-9.91432
 20
-25.87009
 30
0.0
 10
-9.91835
 20
-25.85739
 30
0.0
 10
-9.91835
 20
-25.85739
 30
0.0
 10
-9.92244
 20
-25.84476
 30
0.0
 10
-9.92794
 20
-25.83376
 30
0.0
 10
-9.93493
 20
-25.82437
 30
0.0
 10
-9.93493
 20
-25.82437
 30
0.0
 10
-9.94198
 20
-25.81506
 30
0.0
 10
-9.9508
 20
-25.80779
 30
0.0
 10
-9.96138
 20
-25.80271
 30
0.0
 10
-9.96138
 20
-25.80271
 30
0.0
 10
-9.97204
 20
-25.79756
 30
0.0
 10
-9.98481
 20
-25.79495
 30
0.0
 10
-9.99962
 20
-25.79488
 30
0.0
 10
-9.99962
 20
-25.79488
 30
0.0
 10
-10.01444
 20
-25.79495
 30
0.0
 10
-10.02721
 20
-25.79756
 30
0.0
 10
-10.03787
 20
-25.80271
 30
0.0
 10
-10.03787
 20
-25.80271
 30
0.0
 10
-10.04845
 20
-25.80779
 30
0.0
 10
-10.05727
 20
-25.81506
 30
0.0
 10
-10.06432
 20
-25.82437
 30
0.0
 10
-10.06432
 20
-25.82437
 30
0.0
 10
-10.07131
 20
-25.83376
 30
0.0
 10
-10.07681
 20
-25.84476
 30
0.0
 10
-10.0809
 20
-25.85739
 30
0.0
 10
-10.0809
 20
-25.85739
 30
0.0
 10
-10.08493
 20
-25.87009
 30
0.0
 10
-10.08782
 20
-25.88406
 30
0.0
 10
-10.08944
 20
-25.89923
 30
0.0
 10
-10.08944
 20
-25.89923
 30
0.0
 10
-10.09113
 20
-25.9144
 30
0.0
 10
-10.09198
 20
-25.93042
 30
0.0
 10
-10.09191
 20
-25.94728
 30
0.0
 10
-10.09191
 20
-25.94728
 30
0.0
 10
-10.09198
 20
-25.96421
 30
0.0
 10
-10.09113
 20
-25.98023
 30
0.0
 10
-10.08944
 20
-25.99547
 30
0.0
 10
-10.08944
 20
-25.99547
 30
0.0
 10
-10.08782
 20
-26.01071
 30
0.0
 10
-10.08493
 20
-26.02461
 30
0.0
 10
-10.0809
 20
-26.03731
 30
0.0
 10
-10.0809
 20
-26.03731
 30
0.0
 10
-10.07681
 20
-26.05001
 30
0.0
 10
-10.07131
 20
-26.06102
 30
0.0
 10
-10.06432
 20
-26.07033
 30
0.0
 10
-10.06432
 20
-26.07033
 30
0.0
 10
-10.05727
 20
-26.07957
 30
0.0
 10
-10.04845
 20
-26.08684
 30
0.0
 10
-10.03787
 20
-26.09192
 30
0.0
 10
-10.03787
 20
-26.09192
 30
0.0
 10
-10.02721
 20
-26.097
 30
0.0
 10
-10.01444
 20
-26.09961
 30
0.0
 10
-9.99962
 20
-26.09968
 30
0.0
  0
SPLINE
  5
8F
330
1F
100
AcDbEntity
  8
Layer 1
 62
    30
370
    53
100
AcDbSpline
210
0.0
220
0.0
230
1.0
 70
    11
 71
     3
 72
    84
 73
    80
 74
     0
 42
0.0000000001
 43
0.0000000001
 40
0.0
 40
0.0
 40
0.0
 40
0.0
 40
0.05
 40
0.05
 40
0.05
 40
0.05
 40
0.1
 40
0.1
 40
0.1
 40
0.1
 40
0.15
 40
0.15
 40
0.15
 40
0.15
 40
0.2
 40
0.2
 40
0.2
 40
0.2
 40
0.25
 40
0.25
 40
0.25
 40
0.25
 40
0.3
 40
0.3
 40
0.3
 40
0.3
 40
0.35
 40
0.35
 40
0.35
 40
0.35
 40
0.4
 40
0.4
 40
0.4
 40
0.4
 40
0.45
 40
0.45
 40
0.45
 40
0.45
 40
0.4999999999999999
 40
0.4999999999999999
 40
0.4999999999999999
 40
0.4999999999999999
 40
0.5499999999999999
 40
0.5499999999999999
 40
0.5499999999999999
 40
0.5499999999999999
 40
0.6
 40
0.6
 40
0.6
 40
0.6
 40
0.65
 40
0.65
 40
0.65
 40
0.65
 40
0.7000000000000001
 40
0.7000000000000001
 40
0.7000000000000001
 40
0.7000000000000001
 40
0.7500000000000001
 40
0.7500000000000001
 40
0.7500000000000001
 40
0.7500000000000001
 40
0.8000000000000002
 40
0.8000000000000002
 40
0.8000000000000002
 40
0.8000000000000002
 40
0.8500000000000002
 40
0.8500000000000002
 40
0.8500000000000002
 40
0.8500000000000002
 40
0.9000000000000002
 40
0.9000000000000002
 40
0.9000000000000002
 40
0.9000000000000002
 40
0.9500000000000003
 40
0.9500000000000003
 40
0.9500000000000003
 40
0.9500000000000003
 40
1.0
 40
1.0
 40
1.0
 40
1.0
 10
-9.99962
 20
-26.09968
 30
0.0
 10
-9.98481
 20
-26.09961
 30
0.0
 10
-9.97204
 20
-26.097
 30
0.0
 10
-9.96138
 20
-26.09192
 30
0.0
 10
-9.96138
 20
-26.09192
 30
0.0
 10
-9.9508
 20
-26.08684
 30
0.0
 10
-9.94198
 20
-26.07957
 30
0.0
 10
-9.93493
 20
-26.07033
 30
0.0
 10
-9.93493
 20
-26.07033
 30
0.0
 10
-9.92794
 20
-26.06102
 30
0.0
 10
-9.92244
 20
-26.05001
 30
0.0
 10
-9.91835
 20
-26.03731
 30
0.0
 10
-9.91835
 20
-26.03731
 30
0.0
 10
-9.91432
 20
-26.02461
 30
0.0
 10
-9.91143
 20
-26.01071
 30
0.0
 10
-9.90981
 20
-25.99547
 30
0.0
 10
-9.90981
 20
-25.99547
 30
0.0
 10
-9.90811
 20
-25.98023
 30
0.0
 10
-9.90727
 20
-25.96421
 30
0.0
 10
-9.90734
 20
-25.94728
 30
0.0
 10
-9.90734
 20
-25.94728
 30
0.0
 10
-9.90727
 20
-25.93042
 30
0.0
 10
-9.90811
 20
-25.9144
 30
0.0
 10
-9.90981
 20
-25.89923
 30
0.0
 10
-9.90981
 20
-25.89923
 30
0.0
 10
-9.91143
 20
-25.88406
 30
0.0
 10
-9.91432
 20
-25.87009
 30
0.0
 10
-9.91835
 20
-25.85739
 30
0.0
 10
-9.91835
 20
-25.85739
 30
0.0
 10
-9.92244
 20
-25.84476
 30
0.0
 10
-9.92794
 20
-25.83376
 30
0.0
 10
-9.93493
 20
-25.82437
 30
0.0
 10
-9.93493
 20
-25.82437
 30
0.0
 10
-9.94198
 20
-25.81506
 30
0.0
 10
-9.9508
 20
-25.80779
 30
0.0
 10
-9.96138
 20
-25.80271
 30
0.0
 10
-9.96138
 20
-25.80271
 30
0.0
 10
-9.97204
 20
-25.79756
 30
0.0
 10
-9.98481
 20
-25.79495
 30
0.0
 10
-9.99962
 20
-25.79488
 30
0.0
 10
-9.99962
 20
-25.79488
 30
0.0
 10
-10.01444
 20
-25.79495
 30
0.0
 10
-10.02721
 20
-25.79756
 30
0.0
 10
-10.03787
 20
-25.80271
 30
0.0
 10
-10.03787
 20
-25.80271
 30
0.0
 10
-10.04845
 20
-25.80779
 30
0.0
 10
-10.05727
 20
-25.81506
 30
0.0
 10
-10.06432
 20
-25.82437
 30
0.0
 10
-10.06432
 20
-25.82437
 30
0.0
 10
-10.07131
 20
-25.83376
 30
0.0
 10
-10.07681
 20
-25.84476
 30
0.0
 10
-10.0809
 20
-25.85739
 30
0.0
 10
-10.0809
 20
-25.85739
 30
0.0
 10
-10.08493
 20
-25.87009
 30
0.0
 10
-10.08782
 20
-25.88406
 30
0.0
 10
-10.08944
 20
-25.89923
 30
0.0
 10
-10.08944
 20
-25.89923
 30
0.0
 10
-10.09113
 20
-25.9144
 30
0.0
 10
-10.09198
 20
-25.93042
 30
0.0
 10
-10.09191
 20
-25.94728
 30
0.0
 10
-10.09191
 20
-25.94728
 30
0.0
 10
-10.09198
 20
-25.96421
 30
0.0
 10
-10.09113
 20
-25.98023
 30
0.0
 10
-10.08944
 20
-25.99547
 30
0.0
 10
-10.08944
 20
-25.99547
 30
0.0
 10
-10.08782
 20
-26.01071
 30
0.0
 10
-10.08493
 20
-26.02461
 30
0.0
 10
-10.0809
 20
-26.03731
 30
0.0
 10
-10.0809
 20
-26.03731
 30
0.0
 10
-10.07681
 20
-26.05001
 30
0.0
 10
-10.07131
 20
-26.06102
 30
0.0
 10
-10.06432
 20
-26.07033
 30
0.0
 10
-10.06432
 20
-26.07033
 30
0.0
 10
-10.05727
 20
-26.07957
 30
0.0
 10
-10.04845
 20
-26.08684
 30
0.0
 10
-10.03787
 20
-26.09192
 30
0.0
 10
-10.03787
 20
-26.09192
 30
0.0
 10
-10.02721
 20
-26.097
 30
0.0
 10
-10.01444
 20
-26.09961
 30
0.0
 10
-9.99962
 20
-26.09968
 30
0.0
  0
SPLINE
  5
90
330
1F
100
AcDbEntity
  8
Layer 1
 62
    30
370
    53
100
AcDbSpline
210
0.0
220
0.0
230
1.0
 70
    11
 71
     3
 72
   236
 73
   232
 74
     0
 42
0.0000000001
 43
0.0000000001
 40
0.0
 40
0.0
 40
0.0
 40
0.0
 40
0.0172413793103448
 40
0.0172413793103448
 40
0.0172413793103448
 40
0.0172413793103448
 40
0.0344827586206897
 40
0.0344827586206897
 40
0.0344827586206897
 40
0.0344827586206897
 40
0.0517241379310345
 40
0.0517241379310345
 40
0.0517241379310345
 40
0.0517241379310345
 40
0.0689655172413793
 40
0.0689655172413793
 40
0.0689655172413793
 40
0.0689655172413793
 40
0.0862068965517241
 40
0.0862068965517241
 40
0.0862068965517241
 40
0.0862068965517241
 40
0.103448275862069
 40
0.103448275862069
 40
0.103448275862069
 40
0.103448275862069
 40
0.1206896551724138
 40
0.1206896551724138
 40
0.1206896551724138
 40
0.1206896551724138
 40
0.1379310344827586
 40
0.1379310344827586
 40
0.1379310344827586
 40
0.1379310344827586
 40
0.1551724137931035
 40
0.1551724137931035
 40
0.1551724137931035
 40
0.1551724137931035
 40
0.1724137931034483
 40
0.1724137931034483
 40
0.1724137931034483
 40
0.1724137931034483
 40
0.1896551724137931
 40
0.1896551724137931
 40
0.1896551724137931
 40
0.1896551724137931
 40
0.206896551724138
 40
0.206896551724138
 40
0.206896551724138
 40
0.206896551724138
 40
0.2241379310344828
 40
0.2241379310344828
 40
0.2241379310344828
 40
0.2241379310344828
 40
0.2413793103448277
 40
0.2413793103448277
 40
0.2413793103448277
 40
0.2413793103448277
 40
0.2586206896551725
 40
0.2586206896551725
 40
0.2586206896551725
 40
0.2586206896551725
 40
0.2758620689655173
 40
0.2758620689655173
 40
0.2758620689655173
 40
0.2758620689655173
 40
0.2931034482758621
 40
0.2931034482758621
 40
0.2931034482758621
 40
0.2931034482758621
 40
0.3103448275862069
 40
0.3103448275862069
 40
0.3103448275862069
 40
0.3103448275862069
 40
0.3275862068965517
 40
0.3275862068965517
 40
0.3275862068965517
 40
0.3275862068965517
 40
0.3448275862068965
 40
0.3448275862068965
 40
0.3448275862068965
 40
0.3448275862068965
 40
0.3620689655172413
 40
0.3620689655172413
 40
0.3620689655172413
 40
0.3620689655172413
 40
0.3793103448275861
 40
0.3793103448275861
 40
0.3793103448275861
 40
0.3793103448275861
 40
0.3965517241379309
 40
0.3965517241379309
 40
0.3965517241379309
 40
0.3965517241379309
 40
0.4137931034482757
 40
0.4137931034482757
 40
0.4137931034482757
 40
0.4137931034482757
 40
0.4310344827586206
 40
0.4310344827586206
 40
0.4310344827586206
 40
0.4310344827586206
 40
0.4482758620689654
 40
0.4482758620689654
 40
0.4482758620689654
 40
0.4482758620689654
 40
0.4655172413793102
 40
0.4655172413793102
 40
0.4655172413793102
 40
0.4655172413793102
 40
0.482758620689655
 40
0.482758620689655
 40
0.482758620689655
 40
0.482758620689655
 40
0.4999999999999998
 40
0.4999999999999998
 40
0.4999999999999998
 40
0.4999999999999998
 40
0.5172413793103446
 40
0.5172413793103446
 40
0.5172413793103446
 40
0.5172413793103446
 40
0.5344827586206895
 40
0.5344827586206895
 40
0.5344827586206895
 40
0.5344827586206895
 40
0.5517241379310344
 40
0.5517241379310344
 40
0.5517241379310344
 40
0.5517241379310344
 40
0.5689655172413792
 40
0.5689655172413792
 40
0.5689655172413792
 40
0.5689655172413792
 40
0.5862068965517241
 40
0.5862068965517241
 40
0.5862068965517241
 40
0.5862068965517241
 40
0.603448275862069
 40
0.603448275862069
 40
0.603448275862069
 40
0.603448275862069
 40
0.6206896551724138
 40
0.6206896551724138
 40
0.6206896551724138
 40
0.6206896551724138
 40
0.6379310344827587
 40
0.6379310344827587
 40
0.6379310344827587
 40
0.6379310344827587
 40
0.6551724137931035
 40
0.6551724137931035
 40
0.6551724137931035
 40
0.6551724137931035
 40
0.6724137931034484
 40
0.6724137931034484
 40
0.6724137931034484
 40
0.6724137931034484
 40
0.6896551724137933
 40
0.6896551724137933
 40
0.6896551724137933
 40
0.6896551724137933
 40
0.7068965517241381
 40
0.7068965517241381
 40
0.7068965517241381
 40
0.7068965517241381
 40
0.724137931034483
 40
0.724137931034483
 40
0.724137931034483
 40
0.724137931034483
 40
0.7413793103448278
 40
0.7413793103448278
 40
0.7413793103448278
 40
0.7413793103448278
 40
0.7586206896551727
 40
0.7586206896551727
 40
0.7586206896551727
 40
0.7586206896551727
 40
0.7758620689655176
 40
0.7758620689655176
 40
0.7758620689655176
 40
0.7758620689655176
 40
0.7931034482758624
 40
0.7931034482758624
 40
0.7931034482758624
 40
0.7931034482758624
 40
0.8103448275862073
 40
0.8103448275862073
 40
0.8103448275862073
 40
0.8103448275862073
 40
0.8275862068965522
 40
0.8275862068965522
 40
0.8275862068965522
 40
0.8275862068965522
 40
0.844827586206897
 40
0.844827586206897
 40
0.844827586206897
 40
0.844827586206897
 40
0.8620689655172419
 40
0.8620689655172419
 40
0.8620689655172419
 40
0.8620689655172419
 40
0.8793103448275867
 40
0.8793103448275867
 40
0.8793103448275867
 40
0.8793103448275867
 40
0.8965517241379316
 40
0.8965517241379316
 40
0.8965517241379316
 40
0.8965517241379316
 40
0.9137931034482765
 40
0.9137931034482765
 40
0.9137931034482765
 40
0.9137931034482765
 40
0.9310344827586213
 40
0.9310344827586213
 40
0.9310344827586213
 40
0.9310344827586213
 40
0.9482758620689662
 40
0.9482758620689662
 40
0.9482758620689662
 40
0.9482758620689662
 40
0.965517241379311
 40
0.965517241379311
 40
0.965517241379311
 40
0.965517241379311
 40
0.9827586206896559
 40
0.9827586206896559
 40
0.9827586206896559
 40
0.9827586206896559
 40
1.0
 40
1.0
 40
1.0
 40
1.0
 10
-9.78711
 20
-26.00782
 30
0.0
 10
-9.78704
 20
-25.99399
 30
0.0
 10
-9.78479
 20
-25.9815
 30
0.0
 10
-9.78027
 20
-25.97021
 30
0.0
 10
-9.78027
 20
-25.97021
 30
0.0
 10
-9.77583
 20
-25.95899
 30
0.0
 10
-9.76955
 20
-25.94933
 30
0.0
 10
-9.76143
 20
-25.94121
 30
0.0
 10
-9.76143
 20
-25.94121
 30
0.0
 10
-9.75339
 20
-25.93317
 30
0.0
 10
-9.74386
 20
-25.92696
 30
0.0
 10
-9.733
 20
-25.92259
 30
0.0
 10
-9.733
 20
-25.92259
 30
0.0
 10
-9.72213
 20
-25.91821
 30
0.0
 10
-9.71021
 20
-25.91603
 30
0.0
 10
-9.69737
 20
-25.91595
 30
0.0
 10
-9.69737
 20
-25.91595
 30
0.0
 10
-9.68446
 20
-25.91588
 30
0.0
 10
-9.67239
 20
-25.91751
 30
0.0
 10
-9.66117
 20
-25.92075
 30
0.0
 10
-9.66117
 20
-25.92075
 30
0.0
 10
-9.64995
 20
-25.92393
 30
0.0
 10
-9.64015
 20
-25.92915
 30
0.0
 10
-9.63161
 20
-25.93635
 30
0.0
 10
-9.63161
 20
-25.93635
 30
0.0
 10
-9.62307
 20
-25.94347
 30
0.0
 10
-9.61637
 20
-25.95293
 30
0.0
 10
-9.61157
 20
-25.96471
 30
0.0
 10
-9.61157
 20
-25.96471
 30
0.0
 10
-9.60678
 20
-25.97649
 30
0.0
 10
-9.60431
 20
-25.99081
 30
0.0
 10
-9.60424
 20
-26.00782
 30
0.0
 10
-9.60424
 20
-26.00782
 30
0.0
 10
-9.60431
 20
-26.02482
 30
0.0
 10
-9.60678
 20
-26.03914
 30
0.0
 10
-9.61157
 20
-26.05093
 30
0.0
 10
-9.61157
 20
-26.05093
 30
0.0
 10
-9.61637
 20
-26.06271
 30
0.0
 10
-9.62307
 20
-26.07216
 30
0.0
 10
-9.63161
 20
-26.07929
 30
0.0
 10
-9.63161
 20
-26.07929
 30
0.0
 10
-9.64015
 20
-26.08649
 30
0.0
 10
-9.64995
 20
-26.09171
 30
0.0
 10
-9.66117
 20
-26.09488
 30
0.0
 10
-9.66117
 20
-26.09488
 30
0.0
 10
-9.67239
 20
-26.09813
 30
0.0
 10
-9.68446
 20
-26.09975
 30
0.0
 10
-9.69737
 20
-26.09968
 30
0.0
 10
-9.69737
 20
-26.09968
 30
0.0
 10
-9.71021
 20
-26.09961
 30
0.0
 10
-9.72199
 20
-26.09742
 30
0.0
 10
-9.73279
 20
-26.09305
 30
0.0
 10
-9.73279
 20
-26.09305
 30
0.0
 10
-9.74351
 20
-26.08867
 30
0.0
 10
-9.75282
 20
-26.08246
 30
0.0
 10
-9.7608
 20
-26.07435
 30
0.0
 10
-9.7608
 20
-26.07435
 30
0.0
 10
-9.76877
 20
-26.06631
 30
0.0
 10
-9.77505
 20
-26.05664
 30
0.0
 10
-9.77956
 20
-26.04535
 30
0.0
 10
-9.77956
 20
-26.04535
 30
0.0
 10
-9.78415
 20
-26.03413
 30
0.0
 10
-9.78662
 20
-26.02165
 30
0.0
 10
-9.78711
 20
-26.00782
 30
0.0
 10
-9.78711
 20
-26.00782
 30
0.0
 10
-9.7874
 20
-26.00083
 30
0.0
 10
-9.78775
 20
-25.99251
 30
0.0
 10
-9.78824
 20
-25.98284
 30
0.0
 10
-9.78824
 20
-25.98284
 30
0.0
 10
-9.78874
 20
-25.9731
 30
0.0
 10
-9.78902
 20
-25.96252
 30
0.0
 10
-9.78909
 20
-25.95116
 30
0.0
 10
-9.78909
 20
-25.95116
 30
0.0
 10
-9.78916
 20
-25.93973
 30
0.0
 10
-9.78881
 20
-25.92795
 30
0.0
 10
-9.78789
 20
-25.91588
 30
0.0
 10
-9.78789
 20
-25.91588
 30
0.0
 10
-9.78704
 20
-25.90375
 30
0.0
 10
-9.78535
 20
-25.89182
 30
0.0
 10
-9.78288
 20
-25.88004
 30
0.0
 10
-9.78288
 20
-25.88004
 30
0.0
 10
-9.78041
 20
-25.86833
 30
0.0
 10
-9.77688
 20
-25.85725
 30
0.0
 10
-9.77223
 20
-25.84688
 30
0.0
 10
-9.77223
 20
-25.84688
 30
0.0
 10
-9.76757
 20
-25.83651
 30
0.0
 10
-9.76157
 20
-25.82734
 30
0.0
 10
-9.75416
 20
-25.81936
 30
0.0
 10
-9.75416
 20
-25.81936
 30
0.0
 10
-9.74669
 20
-25.81139
 30
0.0
 10
-9.73758
 20
-25.80511
 30
0.0
 10
-9.72679
 20
-25.80053
 30
0.0
 10
-9.72679
 20
-25.80053
 30
0.0
 10
-9.71599
 20
-25.79601
 30
0.0
 10
-9.70322
 20
-25.79368
 30
0.0
 10
-9.68848
 20
-25.79361
 30
0.0
 10
-9.68848
 20
-25.79361
 30
0.0
 10
-9.67564
 20
-25.79368
 30
0.0
 10
-9.66477
 20
-25.79495
 30
0.0
 10
-9.65574
 20
-25.79742
 30
0.0
 10
-9.65574
 20
-25.79742
 30
0.0
 10
-9.64671
 20
-25.79989
 30
0.0
 10
-9.6393
 20
-25.80321
 30
0.0
 10
-9.63337
 20
-25.8073
 30
0.0
 10
-9.63337
 20
-25.8073
 30
0.0
 10
-9.62752
 20
-25.81146
 30
0.0
 10
-9.62286
 20
-25.81598
 30
0.0
 10
-9.61948
 20
-25.82099
 30
0.0
 10
-9.61948
 20
-25.82099
 30
0.0
 10
-9.61609
 20
-25.82593
 30
0.0
 10
-9.61355
 20
-25.83094
 30
0.0
 10
-9.612
 20
-25.83595
 30
0.0
 10
-9.612
 20
-25.83595
 30
0.0
 10
-9.61037
 20
-25.84095
 30
0.0
 10
-9.60932
 20
-25.84561
 30
0.0
 10
-9.60889
 20
-25.84992
 30
0.0
 10
-9.60889
 20
-25.84992
 30
0.0
 10
-9.60932
 20
-25.84561
 30
0.0
 10
-9.61037
 20
-25.84095
 30
0.0
 10
-9.612
 20
-25.83595
 30
0.0
 10
-9.612
 20
-25.83595
 30
0.0
 10
-9.61355
 20
-25.83094
 30
0.0
 10
-9.61609
 20
-25.82593
 30
0.0
 10
-9.61948
 20
-25.82099
 30
0.0
 10
-9.61948
 20
-25.82099
 30
0.0
 10
-9.62286
 20
-25.81598
 30
0.0
 10
-9.62752
 20
-25.81146
 30
0.0
 10
-9.63337
 20
-25.8073
 30
0.0
 10
-9.63337
 20
-25.8073
 30
0.0
 10
-9.6393
 20
-25.80321
 30
0.0
 10
-9.64671
 20
-25.79989
 30
0.0
 10
-9.65574
 20
-25.79742
 30
0.0
 10
-9.65574
 20
-25.79742
 30
0.0
 10
-9.66477
 20
-25.79495
 30
0.0
 10
-9.67564
 20
-25.79368
 30
0.0
 10
-9.68848
 20
-25.79361
 30
0.0
 10
-9.68848
 20
-25.79361
 30
0.0
 10
-9.70322
 20
-25.79368
 30
0.0
 10
-9.71599
 20
-25.79601
 30
0.0
 10
-9.72679
 20
-25.80053
 30
0.0
 10
-9.72679
 20
-25.80053
 30
0.0
 10
-9.73758
 20
-25.80511
 30
0.0
 10
-9.74669
 20
-25.81139
 30
0.0
 10
-9.75416
 20
-25.81936
 30
0.0
 10
-9.75416
 20
-25.81936
 30
0.0
 10
-9.76157
 20
-25.82734
 30
0.0
 10
-9.76757
 20
-25.83651
 30
0.0
 10
-9.77223
 20
-25.84688
 30
0.0
 10
-9.77223
 20
-25.84688
 30
0.0
 10
-9.77688
 20
-25.85725
 30
0.0
 10
-9.78041
 20
-25.86833
 30
0.0
 10
-9.78288
 20
-25.88004
 30
0.0
 10
-9.78288
 20
-25.88004
 30
0.0
 10
-9.78535
 20
-25.89182
 30
0.0
 10
-9.78704
 20
-25.90375
 30
0.0
 10
-9.78789
 20
-25.91588
 30
0.0
 10
-9.78789
 20
-25.91588
 30
0.0
 10
-9.78881
 20
-25.92795
 30
0.0
 10
-9.78916
 20
-25.93973
 30
0.0
 10
-9.78909
 20
-25.95116
 30
0.0
 10
-9.78909
 20
-25.95116
 30
0.0
 10
-9.78902
 20
-25.96252
 30
0.0
 10
-9.78874
 20
-25.9731
 30
0.0
 10
-9.78824
 20
-25.98284
 30
0.0
 10
-9.78824
 20
-25.98284
 30
0.0
 10
-9.78775
 20
-25.99251
 30
0.0
 10
-9.7874
 20
-26.00083
 30
0.0
 10
-9.78711
 20
-26.00782
 30
0.0
 10
-9.78711
 20
-26.00782
 30
0.0
 10
-9.78662
 20
-26.02165
 30
0.0
 10
-9.78415
 20
-26.03413
 30
0.0
 10
-9.77956
 20
-26.04535
 30
0.0
 10
-9.77956
 20
-26.04535
 30
0.0
 10
-9.77505
 20
-26.05664
 30
0.0
 10
-9.76877
 20
-26.06631
 30
0.0
 10
-9.7608
 20
-26.07435
 30
0.0
 10
-9.7608
 20
-26.07435
 30
0.0
 10
-9.75282
 20
-26.08246
 30
0.0
 10
-9.74351
 20
-26.08867
 30
0.0
 10
-9.73279
 20
-26.09305
 30
0.0
 10
-9.73279
 20
-26.09305
 30
0.0
 10
-9.72199
 20
-26.09742
 30
0.0
 10
-9.71021
 20
-26.09961
 30
0.0
 10
-9.69737
 20
-26.09968
 30
0.0
 10
-9.69737
 20
-26.09968
 30
0.0
 10
-9.68446
 20
-26.09975
 30
0.0
 10
-9.67239
 20
-26.09813
 30
0.0
 10
-9.66117
 20
-26.09488
 30
0.0
 10
-9.66117
 20
-26.09488
 30
0.0
 10
-9.64995
 20
-26.09171
 30
0.0
 10
-9.64015
 20
-26.08649
 30
0.0
 10
-9.63161
 20
-26.07929
 30
0.0
 10
-9.63161
 20
-26.07929
 30
0.0
 10
-9.62307
 20
-26.07216
 30
0.0
 10
-9.61637
 20
-26.06271
 30
0.0
 10
-9.61157
 20
-26.05093
 30
0.0
 10
-9.61157
 20
-26.05093
 30
0.0
 10
-9.60678
 20
-26.03914
 30
0.0
 10
-9.60431
 20
-26.02482
 30
0.0
 10
-9.60424
 20
-26.00782
 30
0.0
 10
-9.60424
 20
-26.00782
 30
0.0
 10
-9.60431
 20
-25.99081
 30
0.0
 10
-9.60678
 20
-25.97649
 30
0.0
 10
-9.61157
 20
-25.96471
 30
0.0
 10
-9.61157
 20
-25.96471
 30
0.0
 10
-9.61637
 20
-25.95293
 30
0.0
 10
-9.62307
 20
-25.94347
 30
0.0
 10
-9.63161
 20
-25.93635
 30
0.0
 10
-9.63161
 20
-25.93635
 30
0.0
 10
-9.64015
 20
-25.92915
 30
0.0
 10
-9.64995
 20
-25.92393
 30
0.0
 10
-9.66117
 20
-25.92075
 30
0.0
 10
-9.66117
 20
-25.92075
 30
0.0
 10
-9.67239
 20
-25.91751
 30
0.0
 10
-9.68446
 20
-25.91588
 30
0.0
 10
-9.69737
 20
-25.91595
 30
0.0
 10
-9.69737
 20
-25.91595
 30
0.0
 10
-9.71021
 20
-25.91603
 30
0.0
 10
-9.72213
 20
-25.91821
 30
0.0
 10
-9.733
 20
-25.92259
 30
0.0
 10
-9.733
 20
-25.92259
 30
0.0
 10
-9.74386
 20
-25.92696
 30
0.0
 10
-9.75339
 20
-25.93317
 30
0.0
 10
-9.76143
 20
-25.94121
 30
0.0
 10
-9.76143
 20
-25.94121
 30
0.0
 10
-9.76955
 20
-25.94933
 30
0.0
 10
-9.77583
 20
-25.95899
 30
0.0
 10
-9.78027
 20
-25.97021
 30
0.0
 10
-9.78027
 20
-25.97021
 30
0.0
 10
-9.78479
 20
-25.9815
 30
0.0
 10
-9.78704
 20
-25.99399
 30
0.0
 10
-9.78711
 20
-26.00782
 30
0.0
  0
SPLINE
  5
91
330
1F
100
AcDbEntity
  8
Layer 1
 62
    30
370
    53
100
AcDbSpline
210
0.0
220
0.0
230
1.0
 70
    27
 71
     3
 72
    12
 73
     8
 74
     0
 42
0.0000000001
 43
0.0000000001
 40
0.0
 40
0.0
 40
0.0
 40
0.0
 40
0.5
 40
0.5
 40
0.5
 40
0.5
 40
1.0
 40
1.0
 40
1.0
 40
1.0
 10
-9.50306
 20
-25.94008
 30
0.0
 10
-9.50306
 20
-25.94008
 30
0.0
 10
-9.37987
 20
-25.94008
 30
0.0
 10
-9.37987
 20
-25.94008
 30
0.0
 10
-9.37987
 20
-25.94008
 30
0.0
 10
-9.37987
 20
-25.94008
 30
0.0
 10
-9.50306
 20
-25.94008
 30
0.0
 10
-9.50306
 20
-25.94008
 30
0.0
  0
SPLINE
  5
92
330
1F
100
AcDbEntity
  8
Layer 1
 62
    30
370
    53
100
AcDbSpline
210
0.0
220
0.0
230
1.0
 70
    11
 71
     3
 72
    84
 73
    80
 74
     0
 42
0.0000000001
 43
0.0000000001
 40
0.0
 40
0.0
 40
0.0
 40
0.0
 40
0.05
 40
0.05
 40
0.05
 40
0.05
 40
0.1
 40
0.1
 40
0.1
 40
0.1
 40
0.15
 40
0.15
 40
0.15
 40
0.15
 40
0.2
 40
0.2
 40
0.2
 40
0.2
 40
0.25
 40
0.25
 40
0.25
 40
0.25
 40
0.3
 40
0.3
 40
0.3
 40
0.3
 40
0.35
 40
0.35
 40
0.35
 40
0.35
 40
0.4
 40
0.4
 40
0.4
 40
0.4
 40
0.45
 40
0.45
 40
0.45
 40
0.45
 40
0.4999999999999999
 40
0.4999999999999999
 40
0.4999999999999999
 40
0.4999999999999999
 40
0.5499999999999999
 40
0.5499999999999999
 40
0.5499999999999999
 40
0.5499999999999999
 40
0.6
 40
0.6
 40
0.6
 40
0.6
 40
0.65
 40
0.65
 40
0.65
 40
0.65
 40
0.7000000000000001
 40
0.7000000000000001
 40
0.7000000000000001
 40
0.7000000000000001
 40
0.7500000000000001
 40
0.7500000000000001
 40
0.7500000000000001
 40
0.7500000000000001
 40
0.8000000000000002
 40
0.8000000000000002
 40
0.8000000000000002
 40
0.8000000000000002
 40
0.8500000000000002
 40
0.8500000000000002
 40
0.8500000000000002
 40
0.8500000000000002
 40
0.9000000000000002
 40
0.9000000000000002
 40
0.9000000000000002
 40
0.9000000000000002
 40
0.9500000000000003
 40
0.9500000000000003
 40
0.9500000000000003
 40
0.9500000000000003
 40
1.0
 40
1.0
 40
1.0
 40
1.0
 10
-9.19064
 20
-26.09968
 30
0.0
 10
-9.17583
 20
-26.09961
 30
0.0
 10
-9.16306
 20
-26.097
 30
0.0
 10
-9.1524
 20
-26.09192
 30
0.0
 10
-9.1524
 20
-26.09192
 30
0.0
 10
-9.14182
 20
-26.08684
 30
0.0
 10
-9.133
 20
-26.07957
 30
0.0
 10
-9.12595
 20
-26.07033
 30
0.0
 10
-9.12595
 20
-26.07033
 30
0.0
 10
-9.11896
 20
-26.06102
 30
0.0
 10
-9.11346
 20
-26.05001
 30
0.0
 10
-9.10937
 20
-26.03731
 30
0.0
 10
-9.10937
 20
-26.03731
 30
0.0
 10
-9.10534
 20
-26.02461
 30
0.0
 10
-9.10245
 20
-26.01071
 30
0.0
 10
-9.10083
 20
-25.99547
 30
0.0
 10
-9.10083
 20
-25.99547
 30
0.0
 10
-9.09913
 20
-25.98023
 30
0.0
 10
-9.09829
 20
-25.96421
 30
0.0
 10
-9.09836
 20
-25.94728
 30
0.0
 10
-9.09836
 20
-25.94728
 30
0.0
 10
-9.09829
 20
-25.93042
 30
0.0
 10
-9.09913
 20
-25.9144
 30
0.0
 10
-9.10083
 20
-25.89923
 30
0.0
 10
-9.10083
 20
-25.89923
 30
0.0
 10
-9.10245
 20
-25.88406
 30
0.0
 10
-9.10534
 20
-25.87009
 30
0.0
 10
-9.10937
 20
-25.85739
 30
0.0
 10
-9.10937
 20
-25.85739
 30
0.0
 10
-9.11346
 20
-25.84476
 30
0.0
 10
-9.11896
 20
-25.83376
 30
0.0
 10
-9.12595
 20
-25.82437
 30
0.0
 10
-9.12595
 20
-25.82437
 30
0.0
 10
-9.133
 20
-25.81506
 30
0.0
 10
-9.14182
 20
-25.80779
 30
0.0
 10
-9.1524
 20
-25.80271
 30
0.0
 10
-9.1524
 20
-25.80271
 30
0.0
 10
-9.16306
 20
-25.79756
 30
0.0
 10
-9.17583
 20
-25.79495
 30
0.0
 10
-9.19064
 20
-25.79488
 30
0.0
 10
-9.19064
 20
-25.79488
 30
0.0
 10
-9.20546
 20
-25.79495
 30
0.0
 10
-9.21823
 20
-25.79756
 30
0.0
 10
-9.22889
 20
-25.80271
 30
0.0
 10
-9.22889
 20
-25.80271
 30
0.0
 10
-9.23947
 20
-25.80779
 30
0.0
 10
-9.24829
 20
-25.81506
 30
0.0
 10
-9.25534
 20
-25.82437
 30
0.0
 10
-9.25534
 20
-25.82437
 30
0.0
 10
-9.26233
 20
-25.83376
 30
0.0
 10
-9.26783
 20
-25.84476
 30
0.0
 10
-9.27192
 20
-25.85739
 30
0.0
 10
-9.27192
 20
-25.85739
 30
0.0
 10
-9.27595
 20
-25.87009
 30
0.0
 10
-9.27884
 20
-25.88406
 30
0.0
 10
-9.28046
 20
-25.89923
 30
0.0
 10
-9.28046
 20
-25.89923
 30
0.0
 10
-9.28215
 20
-25.9144
 30
0.0
 10
-9.283
 20
-25.93042
 30
0.0
 10
-9.28293
 20
-25.94728
 30
0.0
 10
-9.28293
 20
-25.94728
 30
0.0
 10
-9.283
 20
-25.96421
 30
0.0
 10
-9.28215
 20
-25.98023
 30
0.0
 10
-9.28046
 20
-25.99547
 30
0.0
 10
-9.28046
 20
-25.99547
 30
0.0
 10
-9.27884
 20
-26.01071
 30
0.0
 10
-9.27595
 20
-26.02461
 30
0.0
 10
-9.27192
 20
-26.03731
 30
0.0
 10
-9.27192
 20
-26.03731
 30
0.0
 10
-9.26783
 20
-26.05001
 30
0.0
 10
-9.26233
 20
-26.06102
 30
0.0
 10
-9.25534
 20
-26.07033
 30
0.0
 10
-9.25534
 20
-26.07033
 30
0.0
 10
-9.24829
 20
-26.07957
 30
0.0
 10
-9.23947
 20
-26.08684
 30
0.0
 10
-9.22889
 20
-26.09192
 30
0.0
 10
-9.22889
 20
-26.09192
 30
0.0
 10
-9.21823
 20
-26.097
 30
0.0
 10
-9.20546
 20
-26.09961
 30
0.0
 10
-9.19064
 20
-26.09968
 30
0.0
  0
SPLINE
  5
93
330
1F
100
AcDbEntity
  8
Layer 1
 62
    30
370
    53
100
AcDbSpline
210
0.0
220
0.0
230
1.0
 70
    11
 71
     3
 72
    84
 73
    80
 74
     0
 42
0.0000000001
 43
0.0000000001
 40
0.0
 40
0.0
 40
0.0
 40
0.0
 40
0.05
 40
0.05
 40
0.05
 40
0.05
 40
0.1
 40
0.1
 40
0.1
 40
0.1
 40
0.15
 40
0.15
 40
0.15
 40
0.15
 40
0.2
 40
0.2
 40
0.2
 40
0.2
 40
0.25
 40
0.25
 40
0.25
 40
0.25
 40
0.3
 40
0.3
 40
0.3
 40
0.3
 40
0.35
 40
0.35
 40
0.35
 40
0.35
 40
0.4
 40
0.4
 40
0.4
 40
0.4
 40
0.45
 40
0.45
 40
0.45
 40
0.45
 40
0.4999999999999999
 40
0.4999999999999999
 40
0.4999999999999999
 40
0.4999999999999999
 40
0.5499999999999999
 40
0.5499999999999999
 40
0.5499999999999999
 40
0.5499999999999999
 40
0.6
 40
0.6
 40
0.6
 40
0.6
 40
0.65
 40
0.65
 40
0.65
 40
0.65
 40
0.7000000000000001
 40
0.7000000000000001
 40
0.7000000000000001
 40
0.7000000000000001
 40
0.7500000000000001
 40
0.7500000000000001
 40
0.7500000000000001
 40
0.7500000000000001
 40
0.8000000000000002
 40
0.8000000000000002
 40
0.8000000000000002
 40
0.8000000000000002
 40
0.8500000000000002
 40
0.8500000000000002
 40
0.8500000000000002
 40
0.8500000000000002
 40
0.9000000000000002
 40
0.9000000000000002
 40
0.9000000000000002
 40
0.9000000000000002
 40
0.9500000000000003
 40
0.9500000000000003
 40
0.9500000000000003
 40
0.9500000000000003
 40
1.0
 40
1.0
 40
1.0
 40
1.0
 10
-9.19064
 20
-26.09968
 30
0.0
 10
-9.17583
 20
-26.09961
 30
0.0
 10
-9.16306
 20
-26.097
 30
0.0
 10
-9.1524
 20
-26.09192
 30
0.0
 10
-9.1524
 20
-26.09192
 30
0.0
 10
-9.14182
 20
-26.08684
 30
0.0
 10
-9.133
 20
-26.07957
 30
0.0
 10
-9.12595
 20
-26.07033
 30
0.0
 10
-9.12595
 20
-26.07033
 30
0.0
 10
-9.11896
 20
-26.06102
 30
0.0
 10
-9.11346
 20
-26.05001
 30
0.0
 10
-9.10937
 20
-26.03731
 30
0.0
 10
-9.10937
 20
-26.03731
 30
0.0
 10
-9.10534
 20
-26.02461
 30
0.0
 10
-9.10245
 20
-26.01071
 30
0.0
 10
-9.10083
 20
-25.99547
 30
0.0
 10
-9.10083
 20
-25.99547
 30
0.0
 10
-9.09913
 20
-25.98023
 30
0.0
 10
-9.09829
 20
-25.96421
 30
0.0
 10
-9.09836
 20
-25.94728
 30
0.0
 10
-9.09836
 20
-25.94728
 30
0.0
 10
-9.09829
 20
-25.93042
 30
0.0
 10
-9.09913
 20
-25.9144
 30
0.0
 10
-9.10083
 20
-25.89923
 30
0.0
 10
-9.10083
 20
-25.89923
 30
0.0
 10
-9.10245
 20
-25.88406
 30
0.0
 10
-9.10534
 20
-25.87009
 30
0.0
 10
-9.10937
 20
-25.85739
 30
0.0
 10
-9.10937
 20
-25.85739
 30
0.0
 10
-9.11346
 20
-25.84476
 30
0.0
 10
-9.11896
 20
-25.83376
 30
0.0
 10
-9.12595
 20
-25.82437
 30
0.0
 10
-9.12595
 20
-25.82437
 30
0.0
 10
-9.133
 20
-25.81506
 30
0.0
 10
-9.14182
 20
-25.80779
 30
0.0
 10
-9.1524
 20
-25.80271
 30
0.0
 10
-9.1524
 20
-25.80271
 30
0.0
 10
-9.16306
 20
-25.79756
 30
0.0
 10
-9.17583
 20
-25.79495
 30
0.0
 10
-9.19064
 20
-25.79488
 30
0.0
 10
-9.19064
 20
-25.79488
 30
0.0
 10
-9.20546
 20
-25.79495
 30
0.0
 10
-9.21823
 20
-25.79756
 30
0.0
 10
-9.22889
 20
-25.80271
 30
0.0
 10
-9.22889
 20
-25.80271
 30
0.0
 10
-9.23947
 20
-25.80779
 30
0.0
 10
-9.24829
 20
-25.81506
 30
0.0
 10
-9.25534
 20
-25.82437
 30
0.0
 10
-9.25534
 20
-25.82437
 30
0.0
 10
-9.26233
 20
-25.83376
 30
0.0
 10
-9.26783
 20
-25.84476
 30
0.0
 10
-9.27192
 20
-25.85739
 30
0.0
 10
-9.27192
 20
-25.85739
 30
0.0
 10
-9.27595
 20
-25.87009
 30
0.0
 10
-9.27884
 20
-25.88406
 30
0.0
 10
-9.28046
 20
-25.89923
 30
0.0
 10
-9.28046
 20
-25.89923
 30
0.0
 10
-9.28215
 20
-25.9144
 30
0.0
 10
-9.283
 20
-25.93042
 30
0.0
 10
-9.28293
 20
-25.94728
 30
0.0
 10
-9.28293
 20
-25.94728
 30
0.0
 10
-9.283
 20
-25.96421
 30
0.0
 10
-9.28215
 20
-25.98023
 30
0.0
 10
-9.28046
 20
-25.99547
 30
0.0
 10
-9.28046
 20
-25.99547
 30
0.0
 10
-9.27884
 20
-26.01071
 30
0.0
 10
-9.27595
 20
-26.02461
 30
0.0
 10
-9.27192
 20
-26.03731
 30
0.0
 10
-9.27192
 20
-26.03731
 30
0.0
 10
-9.26783
 20
-26.05001
 30
0.0
 10
-9.26233
 20
-26.06102
 30
0.0
 10
-9.25534
 20
-26.07033
 30
0.0
 10
-9.25534
 20
-26.07033
 30
0.0
 10
-9.24829
 20
-26.07957
 30
0.0
 10
-9.23947
 20
-26.08684
 30
0.0
 10
-9.22889
 20
-26.09192
 30
0.0
 10
-9.22889
 20
-26.09192
 30
0.0
 10
-9.21823
 20
-26.097
 30
0.0
 10
-9.20546
 20
-26.09961
 30
0.0
 10
-9.19064
 20
-26.09968
 30
0.0
  0
SPLINE
  5
94
330
1F
100
AcDbEntity
  8
Layer 1
 62
    30
370
    53
100
AcDbSpline
210
0.0
220
0.0
230
1.0
 70
    11
 71
     3
 72
    28
 73
    24
 74
     0
 42
0.0000000001
 43
0.0000000001
 40
0.0
 40
0.0
 40
0.0
 40
0.0
 40
0.1666666666666667
 40
0.1666666666666667
 40
0.1666666666666667
 40
0.1666666666666667
 40
0.3333333333333333
 40
0.3333333333333333
 40
0.3333333333333333
 40
0.3333333333333333
 40
0.5
 40
0.5
 40
0.5
 40
0.5
 40
0.6666666666666666
 40
0.6666666666666666
 40
0.6666666666666666
 40
0.6666666666666666
 40
0.8333333333333333
 40
0.8333333333333333
 40
0.8333333333333333
 40
0.8333333333333333
 40
1.0
 40
1.0
 40
1.0
 40
1.0
 10
-8.8541
 20
-26.09968
 30
0.0
 10
-8.8541
 20
-26.09968
 30
0.0
 10
-8.8541
 20
-25.79446
 30
0.0
 10
-8.8541
 20
-25.79446
 30
0.0
 10
-8.8541
 20
-25.79446
 30
0.0
 10
-8.8541
 20
-25.79446
 30
0.0
 10
-8.99803
 20
-26.0184
 30
0.0
 10
-8.99803
 20
-26.0184
 30
0.0
 10
-8.99803
 20
-26.0184
 30
0.0
 10
-8.99803
 20
-26.0184
 30
0.0
 10
-8.79991
 20
-26.0184
 30
0.0
 10
-8.79991
 20
-26.0184
 30
0.0
 10
-8.79991
 20
-26.0184
 30
0.0
 10
-8.79991
 20
-26.0184
 30
0.0
 10
-8.99803
 20
-26.0184
 30
0.0
 10
-8.99803
 20
-26.0184
 30
0.0
 10
-8.99803
 20
-26.0184
 30
0.0
 10
-8.99803
 20
-26.0184
 30
0.0
 10
-8.8541
 20
-25.79446
 30
0.0
 10
-8.8541
 20
-25.79446
 30
0.0
 10
-8.8541
 20
-25.79446
 30
0.0
 10
-8.8541
 20
-25.79446
 30
0.0
 10
-8.8541
 20
-26.09968
 30
0.0
 10
-8.8541
 20
-26.09968
 30
0.0
  0
SPLINE
  5
95
330
1F
100
AcDbEntity
  8
Layer 1
 62
    30
370
    53
100
AcDbSpline
210
0.0
220
0.0
230
1.0
 70
    27
 71
     3
 72
    12
 73
     8
 74
     0
 42
0.0000000001
 43
0.0000000001
 40
0.0
 40
0.0
 40
0.0
 40
0.0
 40
0.5
 40
0.5
 40
0.5
 40
0.5
 40
1.0
 40
1.0
 40
1.0
 40
1.0
 10
-8.69916
 20
-25.94008
 30
0.0
 10
-8.69916
 20
-25.94008
 30
0.0
 10
-8.57597
 20
-25.94008
 30
0.0
 10
-8.57597
 20
-25.94008
 30
0.0
 10
-8.57597
 20
-25.94008
 30
0.0
 10
-8.57597
 20
-25.94008
 30
0.0
 10
-8.69916
 20
-25.94008
 30
0.0
 10
-8.69916
 20
-25.94008
 30
0.0
  0
SPLINE
  5
96
330
1F
100
AcDbEntity
  8
Layer 1
 62
    30
370
    53
100
AcDbSpline
210
0.0
220
0.0
230
1.0
 70
    11
 71
     3
 72
    20
 73
    16
 74
     0
 42
0.0000000001
 43
0.0000000001
 40
0.0
 40
0.0
 40
0.0
 40
0.0
 40
0.25
 40
0.25
 40
0.25
 40
0.25
 40
0.5
 40
0.5
 40
0.5
 40
0.5
 40
0.75
 40
0.75
 40
0.75
 40
0.75
 40
1.0
 40
1.0
 40
1.0
 40
1.0
 10
-8.47903
 20
-26.09968
 30
0.0
 10
-8.47903
 20
-26.09968
 30
0.0
 10
-8.35796
 20
-25.79446
 30
0.0
 10
-8.35796
 20
-25.79446
 30
0.0
 10
-8.35796
 20
-25.79446
 30
0.0
 10
-8.35796
 20
-25.79446
 30
0.0
 10
-8.23646
 20
-26.09968
 30
0.0
 10
-8.23646
 20
-26.09968
 30
0.0
 10
-8.23646
 20
-26.09968
 30
0.0
 10
-8.23646
 20
-26.09968
 30
0.0
 10
-8.35796
 20
-25.79446
 30
0.0
 10
-8.35796
 20
-25.79446
 30
0.0
 10
-8.35796
 20
-25.79446
 30
0.0
 10
-8.35796
 20
-25.79446
 30
0.0
 10
-8.47903
 20
-26.09968
 30
0.0
 10
-8.47903
 20
-26.09968
 30
0.0
  0
SPLINE
  5
97
330
1F
100
AcDbEntity
  8
Layer 1
 62
    30
370
    53
100
AcDbSpline
210
0.0
220
0.0
230
1.0
 70
    27
 71
     3
 72
    12
 73
     8
 74
     0
 42
0.0000000001
 43
0.0000000001
 40
0.0
 40
0.0
 40
0.0
 40
0.0
 40
0.5
 40
0.5
 40
0.5
 40
0.5
 40
1.0
 40
1.0
 40
1.0
 40
1.0
 10
-8.44093
 20
-26.00358
 30
0.0
 10
-8.44093
 20
-26.00358
 30
0.0
 10
-8.27499
 20
-26.00358
 30
0.0
 10
-8.27499
 20
-26.00358
 30
0.0
 10
-8.27499
 20
-26.00358
 30
0.0
 10
-8.27499
 20
-26.00358
 30
0.0
 10
-8.44093
 20
-26.00358
 30
0.0
 10
-8.44093
 20
-26.00358
 30
0.0
  0
SPLINE
  5
98
330
1F
100
AcDbEntity
  8
Layer 1
 62
   250
370
    53
100
AcDbSpline
210
0.0
220
0.0
230
1.0
 70
    11
 71
     3
 72
    28
 73
    24
 74
     0
 42
0.0000000001
 43
0.0000000001
 40
0.0
 40
0.0
 40
0.0
 40
0.0
 40
0.1666666666666667
 40
0.1666666666666667
 40
0.1666666666666667
 40
0.1666666666666667
 40
0.3333333333333333
 40
0.3333333333333333
 40
0.3333333333333333
 40
0.3333333333333333
 40
0.5
 40
0.5
 40
0.5
 40
0.5
 40
0.6666666666666666
 40
0.6666666666666666
 40
0.6666666666666666
 40
0.6666666666666666
 40
0.8333333333333333
 40
0.8333333333333333
 40
0.8333333333333333
 40
0.8333333333333333
 40
1.0
 40
1.0
 40
1.0
 40
1.0
 10
-7.78572
 20
-17.79197
 30
0.0
 10
-7.86411
 20
-17.9379
 30
0.0
 10
-8.04603
 20
-17.99268
 30
0.0
 10
-8.19197
 20
-17.91428
 30
0.0
 10
-8.19197
 20
-17.91428
 30
0.0
 10
-8.3379
 20
-17.83589
 30
0.0
 10
-8.39268
 20
-17.65397
 30
0.0
 10
-8.31428
 20
-17.50803
 30
0.0
 10
-8.31428
 20
-17.50803
 30
0.0
 10
-8.31428
 20
-17.50803
 30
0.0
 10
-7.91534
 20
-16.88744
 30
0.0
 10
-7.91534
 20
-16.88744
 30
0.0
 10
-7.91534
 20
-16.88744
 30
0.0
 10
-7.8
 20
-16.76853
 30
0.0
 10
-7.61002
 20
-16.76562
 30
0.0
 10
-7.49111
 20
-16.88095
 30
0.0
 10
-7.49111
 20
-16.88095
 30
0.0
 10
-7.3722
 20
-16.99629
 30
0.0
 10
-7.3693
 20
-17.18626
 30
0.0
 10
-7.48464
 20
-17.30517
 30
0.0
 10
-7.48464
 20
-17.30517
 30
0.0
 10
-7.48464
 20
-17.30517
 30
0.0
 10
-7.78572
 20
-17.79197
 30
0.0
 10
-7.78572
 20
-17.79197
 30
0.0
  0
SPLINE
  5
99
330
1F
100
AcDbEntity
  8
Layer 1
 62
   250
370
    53
100
AcDbSpline
210
0.0
220
0.0
230
1.0
 70
    11
 71
     3
 72
    20
 73
    16
 74
     0
 42
0.0000000001
 43
0.0000000001
 40
0.0
 40
0.0
 40
0.0
 40
0.0
 40
0.25
 40
0.25
 40
0.25
 40
0.25
 40
0.5
 40
0.5
 40
0.5
 40
0.5
 40
0.75
 40
0.75
 40
0.75
 40
0.75
 40
1.0
 40
1.0
 40
1.0
 40
1.0
 10
-7.75
 20
-23.45
 30
0.0
 10
-7.75
 20
-23.61566
 30
0.0
 10
-7.88434
 20
-23.75
 30
0.0
 10
-8.05
 20
-23.75
 30
0.0
 10
-8.05
 20
-23.75
 30
0.0
 10
-8.21566
 20
-23.75
 30
0.0
 10
-8.35
 20
-23.61566
 30
0.0
 10
-8.35
 20
-23.45
 30
0.0
 10
-8.35
 20
-23.45
 30
0.0
 10
-8.35
 20
-23.28434
 30
0.0
 10
-8.21566
 20
-23.15
 30
0.0
 10
-8.05
 20
-23.15
 30
0.0
 10
-8.05
 20
-23.15
 30
0.0
 10
-7.88434
 20
-23.15
 30
0.0
 10
-7.75
 20
-23.28434
 30
0.0
 10
-7.75
 20
-23.45
 30
0.0
  0
SPLINE
  5
9A
330
1F
100
AcDbEntity
  8
Layer 1
 62
   250
370
    53
100
AcDbSpline
210
0.0
220
0.0
230
1.0
 70
    11
 71
     3
 72
    20
 73
    16
 74
     0
 42
0.0000000001
 43
0.0000000001
 40
0.0
 40
0.0
 40
0.0
 40
0.0
 40
0.25
 40
0.25
 40
0.25
 40
0.25
 40
0.5
 40
0.5
 40
0.5
 40
0.5
 40
0.75
 40
0.75
 40
0.75
 40
0.75
 40
1.0
 40
1.0
 40
1.0
 40
1.0
 10
-12.65
 20
-17.65
 30
0.0
 10
-12.65
 20
-17.81566
 30
0.0
 10
-12.78434
 20
-17.95
 30
0.0
 10
-12.95
 20
-17.95
 30
0.0
 10
-12.95
 20
-17.95
 30
0.0
 10
-13.11566
 20
-17.95
 30
0.0
 10
-13.25
 20
-17.81566
 30
0.0
 10
-13.25
 20
-17.65
 30
0.0
 10
-13.25
 20
-17.65
 30
0.0
 10
-13.25
 20
-17.48434
 30
0.0
 10
-13.11566
 20
-17.35
 30
0.0
 10
-12.95
 20
-17.35
 30
0.0
 10
-12.95
 20
-17.35
 30
0.0
 10
-12.78434
 20
-17.35
 30
0.0
 10
-12.65
 20
-17.48434
 30
0.0
 10
-12.65
 20
-17.65
 30
0.0
  0
SPLINE
  5
9B
330
1F
100
AcDbEntity
  8
Layer 1
 62
   250
370
    53
100
AcDbSpline
210
0.0
220
0.0
230
1.0
 70
    11
 71
     3
 72
    20
 73
    16
 74
     0
 42
0.0000000001
 43
0.0000000001
 40
0.0
 40
0.0
 40
0.0
 40
0.0
 40
0.25
 40
0.25
 40
0.25
 40
0.25
 40
0.5
 40
0.5
 40
0.5
 40
0.5
 40
0.75
 40
0.75
 40
0.75
 40
0.75
 40
1.0
 40
1.0
 40
1.0
 40
1.0
 10
-12.65
 20
-23.45
 30
0.0
 10
-12.65
 20
-23.61566
 30
0.0
 10
-12.78434
 20
-23.75
 30
0.0
 10
-12.95
 20
-23.75
 30
0.0
 10
-12.95
 20
-23.75
 30
0.0
 10
-13.11566
 20
-23.75
 30
0.0
 10
-13.25
 20
-23.61566
 30
0.0
 10
-13.25
 20
-23.45
 30
0.0
 10
-13.25
 20
-23.45
 30
0.0
 10
-13.25
 20
-23.28434
 30
0.0
 10
-13.11566
 20
-23.15
 30
0.0
 10
-12.95
 20
-23.15
 30
0.0
 10
-12.95
 20
-23.15
 30
0.0
 10
-12.78434
 20
-23.15
 30
0.0
 10
-12.65
 20
-23.28434
 30
0.0
 10
-12.65
 20
-23.45
 30
0.0
  0
ENDSEC
  0
SECTION
  2
OBJECTS
  0
DICTIONARY
  5
C
330
0
100
AcDbDictionary
281
     1
  3
ACAD_GROUP
350
D
  3
ACAD_LAYOUT
350
1A
  3
ACAD_MLEADERSTYLE
350
9D
  3
ACAD_MLINESTYLE
350
17
  3
ACAD_PLOTSETTINGS
350
19
  3
ACAD_PLOTSTYLENAME
350
E
  3
ACAD_SCALELIST
350
3B
  3
ACAD_TABLESTYLE
350
9C
  3
ACAD_VISUALSTYLE
350
2A
  0
DICTIONARY
  5
D
102
{ACAD_REACTORS
330
C
102
}
330
C
100
AcDbDictionary
281
     1
  0
DICTIONARY
  5
1A
102
{ACAD_REACTORS
330
C
102
}
330
C
100
AcDbDictionary
281
     1
  3
Layout1
350
1E
  3
Layout2
350
26
  3
Model
350
22
  0
DICTIONARY
  5
9D
102
{ACAD_REACTORS
330
C
102
}
330
C
100
AcDbDictionary
281
     1
  0
DICTIONARY
  5
17
102
{ACAD_REACTORS
330
C
102
}
330
C
100
AcDbDictionary
281
     1
  3
Standard
350
18
  0
DICTIONARY
  5
19
102
{ACAD_REACTORS
330
C
102
}
330
C
100
AcDbDictionary
281
     1
  0
ACDBDICTIONARYWDFLT
  5
E
102
{ACAD_REACTORS
330
C
102
}
330
C
100
AcDbDictionary
281
     1
  3
Normal
350
F
100
AcDbDictionaryWithDefault
340
F
  0
DICTIONARY
  5
3B
102
{ACAD_REACTORS
330
C
102
}
330
C
100
AcDbDictionary
281
     1
  3
A0
350
3C
  3
A1
350
3D
  3
A2
350
3E
  3
A3
350
3F
  3
A4
350
40
  3
A5
350
41
  3
A6
350
42
  3
A7
350
43
  3
A8
350
44
  3
A9
350
45
  3
B0
350
46
  3
B1
350
47
  3
B2
350
48
  3
B3
350
49
  3
B4
350
4A
  3
B5
350
4B
  3
B6
350
4C
  3
B7
350
4D
  3
B8
350
4E
  3
B9
350
4F
  3
C0
350
50
  3
C1
350
51
  3
C2
350
52
  3
C3
350
53
  3
C4
350
54
  3
C5
350
55
  3
C6
350
56
  3
C7
350
57
  3
C8
350
58
  3
C9
350
59
  3
D0
350
5A
  3
D1
350
5B
  3
D2
350
5C
  0
DICTIONARY
  5
9C
102
{ACAD_REACTORS
330
C
102
}
330
C
100
AcDbDictionary
281
     1
  0
DICTIONARY
  5
2A
102
{ACAD_REACTORS
330
C
102
}
330
C
100
AcDbDictionary
281
     1
  3
2dWireframe
350
2F
  3
3D Hidden
350
31
  3
3dWireframe
350
30
  3
Basic
350
32
  3
Brighten
350
36
  3
ColorChange
350
3A
  3
Conceptual
350
34
  3
Dim
350
35
  3
Facepattern
350
39
  3
Flat
350
2B
  3
FlatWithEdges
350
2C
  3
Gouraud
350
2D
  3
GouraudWithEdges
350
2E
  3
Linepattern
350
38
  3
Realistic
350
33
  3
Thicken
350
37
  0
LAYOUT
  5
1E
102
{ACAD_REACTORS
330
1A
102
}
330
1A
100
AcDbPlotSettings
  1

  2
none_device
  4

  6

 40
0.0
 41
0.0
 42
0.0
 43
0.0
 44
0.0
 45
0.0
 46
0.0
 47
0.0
 48
0.0
 49
0.0
140
0.0
141
0.0
142
1.0
143
1.0
 70
   688
 72
     0
 73
     0
 74
     5
  7

 75
    16
 76
     0
 77
     2
 78
   300
147
1.0
148
0.0
149
0.0
100
AcDbLayout
  1
Layout1
 70
     1
 71
     1
 10
0.0
 20
0.0
 11
12.0
 21
9.0
 12
0.0
 22
0.0
 32
0.0
 14
1.000000000000000E+20
 24
1.000000000000000E+20
 34
1.000000000000000E+20
 15
-1.000000000000000E+20
 25
-1.000000000000000E+20
 35
-1.000000000000000E+20
146
0.0
 13
0.0
 23
0.0
 33
0.0
 16
1.0
 26
0.0
 36
0.0
 17
0.0
 27
1.0
 37
0.0
 76
     0
330
1B
  0
LAYOUT
  5
26
102
{ACAD_REACTORS
330
1A
102
}
330
1A
100
AcDbPlotSettings
  1

  2
none_device
  4

  6

 40
0.0
 41
0.0
 42
0.0
 43
0.0
 44
0.0
 45
0.0
 46
0.0
 47
0.0
 48
0.0
 49
0.0
140
0.0
141
0.0
142
1.0
143
1.0
 70
   688
 72
     0
 73
     0
 74
     5
  7

 75
    16
 76
     0
 77
     2
 78
   300
147
1.0
148
0.0
149
0.0
100
AcDbLayout
  1
Layout2
 70
     1
 71
     2
 10
0.0
 20
0.0
 11
0.0
 21
0.0
 12
0.0
 22
0.0
 32
0.0
 14
0.0
 24
0.0
 34
0.0
 15
0.0
 25
0.0
 35
0.0
146
0.0
 13
0.0
 23
0.0
 33
0.0
 16
1.0
 26
0.0
 36
0.0
 17
0.0
 27
1.0
 37
0.0
 76
     0
330
23
  0
LAYOUT
  5
22
102
{ACAD_REACTORS
330
1A
102
}
330
1A
100
AcDbPlotSettings
  1

  2
none_device
  4

  6

 40
0.0
 41
0.0
 42
0.0
 43
0.0
 44
0.0
 45
0.0
 46
0.0
 47
0.0
 48
0.0
 49
0.0
140
0.0
141
0.0
142
1.0
143
1.0
 70
  1712
 72
     0
 73
     0
 74
     0
  7

 75
     0
 76
     0
 77
     2
 78
   300
147
1.0
148
0.0
149
0.0
100
AcDbLayout
  1
Model
 70
     1
 71
     0
 10
0.0
 20
0.0
 11
12.0
 21
9.0
 12
0.0
 22
0.0
 32
0.0
 14
-14.17647
 24
-26.52647
 34
0.0
 15
-6.82353
 25
-3.17353
 35
0.0
146
0.0
 13
0.0
 23
0.0
 33
0.0
 16
1.0
 26
0.0
 36
0.0
 17
0.0
 27
1.0
 37
0.0
 76
     0
330
1F
331
29
  0
MLINESTYLE
  5
18
102
{ACAD_REACTORS
330
17
102
}
330
17
100
AcDbMlineStyle
  2
Standard
 70
     0
  3

 62
   256
 51
90.0
 52
90.0
 71
     2
 49
0.5
 62
   256
  6
BYLAYER
 49
-0.5
 62
   256
  6
BYLAYER
  0
ACDBPLACEHOLDER
  5
F
102
{ACAD_REACTORS
330
E
102
}
330
E
  0
SCALE
  5
3C
102
{ACAD_REACTORS
330
3B
102
}
330
3B
100
AcDbScale
 70
     0
300
1:1
140
1.0
141
1.0
290
     1
  0
SCALE
  5
3D
102
{ACAD_REACTORS
330
3B
102
}
330
3B
100
AcDbScale
 70
     0
300
1:2
140
1.0
141
2.0
290
     0
  0
SCALE
  5
3E
102
{ACAD_REACTORS
330
3B
102
}
330
3B
100
AcDbScale
 70
     0
300
1:4
140
1.0
141
4.0
290
     0
  0
SCALE
  5
3F
102
{ACAD_REACTORS
330
3B
102
}
330
3B
100
AcDbScale
 70
     0
300
1:5
140
1.0
141
5.0
290
     0
  0
SCALE
  5
40
102
{ACAD_REACTORS
330
3B
102
}
330
3B
100
AcDbScale
 70
     0
300
1:8
140
1.0
141
8.0
290
     0
  0
SCALE
  5
41
102
{ACAD_REACTORS
330
3B
102
}
330
3B
100
AcDbScale
 70
     0
300
1:10
140
1.0
141
10.0
290
     0
  0
SCALE
  5
42
102
{ACAD_REACTORS
330
3B
102
}
330
3B
100
AcDbScale
 70
     0
300
1:16
140
1.0
141
16.0
290
     0
  0
SCALE
  5
43
102
{ACAD_REACTORS
330
3B
102
}
330
3B
100
AcDbScale
 70
     0
300
1:20
140
1.0
141
20.0
290
     0
  0
SCALE
  5
44
102
{ACAD_REACTORS
330
3B
102
}
330
3B
100
AcDbScale
 70
     0
300
1:30
140
1.0
141
30.0
290
     0
  0
SCALE
  5
45
102
{ACAD_REACTORS
330
3B
102
}
330
3B
100
AcDbScale
 70
     0
300
1:40
140
1.0
141
40.0
290
     0
  0
SCALE
  5
46
102
{ACAD_REACTORS
330
3B
102
}
330
3B
100
AcDbScale
 70
     0
300
1:50
140
1.0
141
50.0
290
     0
  0
SCALE
  5
47
102
{ACAD_REACTORS
330
3B
102
}
330
3B
100
AcDbScale
 70
     0
300
1:100
140
1.0
141
100.0
290
     0
  0
SCALE
  5
48
102
{ACAD_REACTORS
330
3B
102
}
330
3B
100
AcDbScale
 70
     0
300
2:1
140
2.0
141
1.0
290
     0
  0
SCALE
  5
49
102
{ACAD_REACTORS
330
3B
102
}
330
3B
100
AcDbScale
 70
     0
300
4:1
140
4.0
141
1.0
290
     0
  0
SCALE
  5
4A
102
{ACAD_REACTORS
330
3B
102
}
330
3B
100
AcDbScale
 70
     0
300
8:1
140
8.0
141
1.0
290
     0
  0
SCALE
  5
4B
102
{ACAD_REACTORS
330
3B
102
}
330
3B
100
AcDbScale
 70
     0
300
10:1
140
10.0
141
1.0
290
     0
  0
SCALE
  5
4C
102
{ACAD_REACTORS
330
3B
102
}
330
3B
100
AcDbScale
 70
     0
300
100:1
140
100.0
141
1.0
290
     0
  0
SCALE
  5
4D
102
{ACAD_REACTORS
330
3B
102
}
330
3B
100
AcDbScale
 70
     0
300
1/128" = 1'-0"
140
0.0078125
141
12.0
290
     0
  0
SCALE
  5
4E
102
{ACAD_REACTORS
330
3B
102
}
330
3B
100
AcDbScale
 70
     0
300
1/64" = 1'-0"
140
0.015625
141
12.0
290
     0
  0
SCALE
  5
4F
102
{ACAD_REACTORS
330
3B
102
}
330
3B
100
AcDbScale
 70
     0
300
1/32" = 1'-0"
140
0.03125
141
12.0
290
     0
  0
SCALE
  5
50
102
{ACAD_REACTORS
330
3B
102
}
330
3B
100
AcDbScale
 70
     0
300
1/16" = 1'-0"
140
0.0625
141
12.0
290
     0
  0
SCALE
  5
51
102
{ACAD_REACTORS
330
3B
102
}
330
3B
100
AcDbScale
 70
     0
300
3/32" = 1'-0"
140
0.09375
141
12.0
290
     0
  0
SCALE
  5
52
102
{ACAD_REACTORS
330
3B
102
}
330
3B
100
AcDbScale
 70
     0
300
1/8" = 1'-0"
140
0.125
141
12.0
290
     0
  0
SCALE
  5
53
102
{ACAD_REACTORS
330
3B
102
}
330
3B
100
AcDbScale
 70
     0
300
3/16" = 1'-0"
140
0.1875
141
12.0
290
     0
  0
SCALE
  5
54
102
{ACAD_REACTORS
330
3B
102
}
330
3B
100
AcDbScale
 70
     0
300
1/4" = 1'-0"
140
0.25
141
12.0
290
     0
  0
SCALE
  5
55
102
{ACAD_REACTORS
330
3B
102
}
330
3B
100
AcDbScale
 70
     0
300
3/8" = 1'-0"
140
0.375
141
12.0
290
     0
  0
SCALE
  5
56
102
{ACAD_REACTORS
330
3B
102
}
330
3B
100
AcDbScale
 70
     0
300
1/2" = 1'-0"
140
0.5
141
12.0
290
     0
  0
SCALE
  5
57
102
{ACAD_REACTORS
330
3B
102
}
330
3B
100
AcDbScale
 70
     0
300
3/4" = 1'-0"
140
0.75
141
12.0
290
     0
  0
SCALE
  5
58
102
{ACAD_REACTORS
330
3B
102
}
330
3B
100
AcDbScale
 70
     0
300
1" = 1'-0"
140
1.0
141
12.0
290
     0
  0
SCALE
  5
59
102
{ACAD_REACTORS
330
3B
102
}
330
3B
100
AcDbScale
 70
     0
300
1-1/2" = 1'-0"
140
1.5
141
12.0
290
     0
  0
SCALE
  5
5A
102
{ACAD_REACTORS
330
3B
102
}
330
3B
100
AcDbScale
 70
     0
300
3" = 1'-0"
140
3.0
141
12.0
290
     0
  0
SCALE
  5
5B
102
{ACAD_REACTORS
330
3B
102
}
330
3B
100
AcDbScale
 70
     0
300
6" = 1'-0"
140
6.0
141
12.0
290
     0
  0
SCALE
  5
5C
102
{ACAD_REACTORS
330
3B
102
}
330
3B
100
AcDbScale
 70
     0
300
1'-0" = 1'-0"
140
12.0
141
12.0
290
     0
  0
VISUALSTYLE
  5
2F
102
{ACAD_REACTORS
330
2A
102
}
330
2A
100
AcDbVisualStyle
  2
2dWireframe
 70
     4
 71
     0
 72
     2
 73
     0
 90
        0
 40
-0.6
 41
-30.0
 62
     5
 63
     7
421
 16777215
 74
     1
 91
        4
 64
     7
 65
   257
 75
     1
175
     1
 42
1.0
 92
        0
 66
   257
 43
1.0
 76
     1
 77
     6
 78
     2
 67
     7
 79
     5
170
     0
171
     0
290
     0
174
     0
 93
        1
 44
0.0
173
     0
291
     0
 45
0.0
  0
VISUALSTYLE
  5
31
102
{ACAD_REACTORS
330
2A
102
}
330
2A
100
AcDbVisualStyle
  2
3D Hidden
 70
     6
 71
     1
 72
     2
 73
     2
 90
        0
 40
-0.6
 41
-30.0
 62
     5
 63
     7
421
 16777215
 74
     2
 91
        2
 64
     7
 65
   257
 75
     2
175
     1
 42
40.0
 92
        0
 66
   257
 43
1.0
 76
     1
 77
     6
 78
     2
 67
     7
 79
     3
170
     0
171
     0
290
     0
174
     0
 93
        1
 44
0.0
173
     0
291
     0
 45
0.0
  0
VISUALSTYLE
  5
30
102
{ACAD_REACTORS
330
2A
102
}
330
2A
100
AcDbVisualStyle
  2
3dWireframe
 70
     5
 71
     0
 72
     2
 73
     0
 90
        0
 40
-0.6
 41
-30.0
 62
     5
 63
     7
421
 16777215
 74
     1
 91
        4
 64
     7
 65
   257
 75
     1
175
     1
 42
1.0
 92
        0
 66
   257
 43
1.0
 76
     1
 77
     6
 78
     2
 67
     7
 79
     5
170
     0
171
     0
290
     0
174
     0
 93
        1
 44
0.0
173
     0
291
     0
 45
0.0
  0
VISUALSTYLE
  5
32
102
{ACAD_REACTORS
330
2A
102
}
330
2A
100
AcDbVisualStyle
  2
Basic
 70
     7
 71
     1
 72
     0
 73
     1
 90
        0
 40
-0.6
 41
-30.0
 62
     5
 63
     7
421
 16777215
 74
     0
 91
        4
 64
     7
 65
   257
 75
     1
175
     1
 42
1.0
 92
        8
 66
     7
 43
1.0
 76
     1
 77
     6
 78
     2
 67
     7
 79
     5
170
     0
171
     0
290
     0
174
     0
 93
        1
 44
0.0
173
     0
291
     1
 45
0.0
  0
VISUALSTYLE
  5
36
102
{ACAD_REACTORS
330
2A
102
}
330
2A
100
AcDbVisualStyle
  2
Brighten
 70
    12
 71
     2
 72
     2
 73
     0
 90
        0
 40
-0.6
 41
-30.0
 62
     5
 63
     7
421
 16777215
 74
     1
 91
        4
 64
     7
 65
   257
 75
     1
175
     1
 42
1.0
 92
        8
 66
     7
 43
1.0
 76
     1
 77
     6
 78
     2
 67
     7
 79
     5
170
     0
171
     0
290
     0
174
     0
 93
        1
 44
50.0
173
     0
291
     1
 45
0.0
  0
VISUALSTYLE
  5
3A
102
{ACAD_REACTORS
330
2A
102
}
330
2A
100
AcDbVisualStyle
  2
ColorChange
 70
    16
 71
     2
 72
     2
 73
     3
 90
        0
 40
-0.6
 41
-30.0
 62
     5
 63
     8
421
  8421504
 74
     1
 91
        4
 64
     7
 65
   257
 75
     1
175
     1
 42
1.0
 92
        8
 66
     8
424
  8421504
 43
1.0
 76
     1
 77
     6
 78
     2
 67
     7
 79
     5
170
     0
171
     0
290
     0
174
     0
 93
        1
 44
0.0
173
     0
291
     1
 45
0.0
  0
VISUALSTYLE
  5
34
102
{ACAD_REACTORS
330
2A
102
}
330
2A
100
AcDbVisualStyle
  2
Conceptual
 70
     9
 71
     3
 72
     2
 73
     0
 90
        0
 40
-0.6
 41
-30.0
 62
     5
 63
     7
421
 16777215
 74
     2
 91
        2
 64
     7
 65
   257
 75
     1
175
     1
 42
40.0
 92
        8
 66
     7
 43
1.0
 76
     1
 77
     6
 78
     2
 67
     7
 79
     3
170
     0
171
     0
290
     0
174
     0
 93
        1
 44
0.0
173
     0
291
     0
 45
0.0
  0
VISUALSTYLE
  5
35
102
{ACAD_REACTORS
330
2A
102
}
330
2A
100
AcDbVisualStyle
  2
Dim
 70
    11
 71
     2
 72
     2
 73
     0
 90
        0
 40
-0.6
 41
-30.0
 62
     5
 63
     7
421
 16777215
 74
     1
 91
        4
 64
     7
 65
   257
 75
     1
175
     1
 42
1.0
 92
        8
 66
     7
 43
1.0
 76
     1
 77
     6
 78
     2
 67
     7
 79
     5
170
     0
171
     0
290
     0
174
     0
 93
        1
 44
-50.0
173
     0
291
     1
 45
0.0
  0
VISUALSTYLE
  5
39
102
{ACAD_REACTORS
330
2A
102
}
330
2A
100
AcDbVisualStyle
  2
Facepattern
 70
    15
 71
     2
 72
     2
 73
     0
 90
        0
 40
-0.6
 41
-30.0
 62
     5
 63
     7
421
 16777215
 74
     1
 91
        4
 64
     7
 65
   257
 75
     1
175
     1
 42
1.0
 92
        8
 66
     7
 43
1.0
 76
     1
 77
     6
 78
     2
 67
     7
 79
     5
170
     0
171
     0
290
     0
174
     0
 93
        1
 44
0.0
173
     0
291
     1
 45
0.0
  0
VISUALSTYLE
  5
2B
102
{ACAD_REACTORS
330
2A
102
}
330
2A
100
AcDbVisualStyle
  2
Flat
 70
     0
 71
     2
 72
     1
 73
     1
 90
        2
 40
-0.6
 41
30.0
 62
     5
 63
     7
421
 16777215
 74
     0
 91
        4
 64
     7
 65
   257
 75
     1
175
     1
 42
1.0
 92
        8
 66
     7
 43
1.0
 76
     1
 77
     6
 78
     2
 67
     7
 79
     5
170
     0
171
     0
290
     0
174
     0
 93
       13
 44
0.0
173
     0
291
     1
 45
0.0
  0
VISUALSTYLE
  5
2C
102
{ACAD_REACTORS
330
2A
102
}
330
2A
100
AcDbVisualStyle
  2
FlatWithEdges
 70
     1
 71
     2
 72
     1
 73
     1
 90
        2
 40
-0.6
 41
30.0
 62
     5
 63
     7
421
 16777215
 74
     1
 91
        4
 64
     7
 65
   257
 75
     1
175
     1
 42
1.0
 92
        0
 66
   257
 43
1.0
 76
     1
 77
     6
 78
     2
 67
     7
 79
     5
170
     0
171
     0
290
     0
174
     0
 93
       13
 44
0.0
173
     0
291
     1
 45
0.0
  0
VISUALSTYLE
  5
2D
102
{ACAD_REACTORS
330
2A
102
}
330
2A
100
AcDbVisualStyle
  2
Gouraud
 70
     2
 71
     2
 72
     2
 73
     1
 90
        2
 40
-0.6
 41
30.0
 62
     5
 63
     7
421
 16777215
 74
     0
 91
        4
 64
     7
 65
   257
 75
     1
175
     1
 42
1.0
 92
        0
 66
     7
 43
1.0
 76
     1
 77
     6
 78
     2
 67
     7
 79
     5
170
     0
171
     0
290
     0
174
     0
 93
       13
 44
0.0
173
     0
291
     1
 45
0.0
  0
VISUALSTYLE
  5
2E
102
{ACAD_REACTORS
330
2A
102
}
330
2A
100
AcDbVisualStyle
  2
GouraudWithEdges
 70
     3
 71
     2
 72
     2
 73
     1
 90
        2
 40
-0.6
 41
30.0
 62
     5
 63
     7
421
 16777215
 74
     1
 91
        4
 64
     7
 65
   257
 75
     1
175
     1
 42
1.0
 92
        0
 66
   257
 43
1.0
 76
     1
 77
     6
 78
     2
 67
     7
 79
     5
170
     0
171
     0
290
     0
174
     0
 93
       13
 44
0.0
173
     0
291
     1
 45
0.0
  0
VISUALSTYLE
  5
38
102
{ACAD_REACTORS
330
2A
102
}
330
2A
100
AcDbVisualStyle
  2
Linepattern
 70
    14
 71
     2
 72
     2
 73
     0
 90
        0
 40
-0.6
 41
-30.0
 62
     5
 63
     7
421
 16777215
 74
     1
 91
        4
 64
     7
 65
   257
 75
     7
175
     7
 42
1.0
 92
        8
 66
     7
 43
1.0
 76
     1
 77
     6
 78
     2
 67
     7
 79
     5
170
     0
171
     0
290
     0
174
     0
 93
        1
 44
0.0
173
     0
291
     1
 45
0.0
  0
VISUALSTYLE
  5
33
102
{ACAD_REACTORS
330
2A
102
}
330
2A
100
AcDbVisualStyle
  2
Realistic
 70
     8
 71
     2
 72
     2
 73
     0
 90
        0
 40
-0.6
 41
-30.0
 62
     5
 63
     7
421
 16777215
 74
     1
 91
        0
 64
     7
 65
   257
 75
     1
175
     1
 42
1.0
 92
        8
 66
     8
424
  7895160
 43
1.0
 76
     1
 77
     6
 78
     2
 67
     7
 79
     5
170
     0
171
     0
290
     0
174
     0
 93
       13
 44
0.0
173
     0
291
     0
 45
0.0
  0
VISUALSTYLE
  5
37
102
{ACAD_REACTORS
330
2A
102
}
330
2A
100
AcDbVisualStyle
  2
Thicken
 70
    13
 71
     2
 72
     2
 73
     0
 90
        0
 40
-0.6
 41
-30.0
 62
     5
 63
     7
421
 16777215
 74
     1
 91
        4
 64
     7
 65
   257
 75
     1
175
     1
 42
1.0
 92
       12
 66
     7
 43
1.0
 76
     1
 77
     6
 78
     2
 67
     7
 79
     5
170
     0
171
     0
290
     0
174
     0
 93
        1
 44
0.0
173
     0
291
     1
 45
0.0
  0
ENDSEC
  0
EOF
