<?xml version="1.0" encoding="UTF-8"?>
<!DOCTYPE svg PUBLIC "-//W3C//DTD SVG 1.1//EN" "http://www.w3.org/Graphics/SVG/1.1/DTD/svg11.dtd">
<!-- Creator: CorelDRAW -->
<svg xmlns="http://www.w3.org/2000/svg" xml:space="preserve" width="113.529mm" height="13.5292mm" style="shape-rendering:geometricPrecision; text-rendering:geometricPrecision; image-rendering:optimizeQuality; fill-rule:evenodd; clip-rule:evenodd"
viewBox="0 0 39.8384 4.74751"
 xmlns:xlink="http://www.w3.org/1999/xlink">
 <defs>
  <style type="text/css">
   <![CDATA[
    .str2 {stroke:#1F1A17;stroke-width:0.185701}
    .str1 {stroke:#1F1A17;stroke-width:0.185701;stroke-linecap:round;stroke-linejoin:round}
    .str0 {stroke:black;stroke-width:0.185701;stroke-linecap:round;stroke-linejoin:round}
    .fil0 {fill:none}
   ]]>
  </style>
 </defs>
 <g id="Layer_x0020_1">
  <metadata id="CorelCorpID_0Corel-Layer"/>
  <path class="fil0 str0" d="M1.28594 1.82985l0.145592 0c0.0955524,-0.165103 0.233214,-0.302764 0.398316,-0.398316l0 -0.145592 0.543908 0 0.543908 0 0 0.145592c0.165103,0.0955524 0.302764,0.233214 0.398316,0.398316l0.145592 0 0 0.543908 0 0.543908 -0.145592 0c-0.0955524,0.165103 -0.233214,0.302764 -0.398316,0.398316l0 0.145592 -0.543908 0 -0.543908 0 0 -0.145592c-0.165103,-0.0955524 -0.302764,-0.233214 -0.398316,-0.398316l-0.145592 0 0 -0.543908 0 -0.543908z"/>
  <path class="fil0 str0" d="M8.30411 1.82985l0.145592 0c0.0955524,-0.165103 0.233214,-0.302764 0.398316,-0.398316l0 -0.145592 0.543908 0 0.543908 0 0 0.145592c0.165103,0.0955524 0.302764,0.233214 0.398316,0.398316l0.145592 0 0 0.543908 0 0.543908 -0.145592 0c-0.0955524,0.165103 -0.233214,0.302764 -0.398316,0.398316l0 0.145592 -0.543908 0 -0.543908 0 0 -0.145592c-0.165103,-0.0955524 -0.302764,-0.233214 -0.398316,-0.398316l-0.145592 0 0 -0.543908 0 -0.543908z"/>
  <path class="fil0 str0" d="M15.3223 1.82985l0.145592 0c0.0955524,-0.165103 0.233214,-0.302764 0.398316,-0.398316l0 -0.145592 0.543908 0 0.543908 0 0 0.145592c0.165103,0.0955524 0.302764,0.233214 0.398316,0.398316l0.145592 0 0 0.543908 0 0.543908 -0.145592 0c-0.0955524,0.165103 -0.233214,0.302764 -0.398316,0.398316l0 0.145592 -0.543908 0 -0.543908 0 0 -0.145592c-0.165103,-0.0955524 -0.302764,-0.233214 -0.398316,-0.398316l-0.145592 0 0 -0.543908 0 -0.543908z"/>
  <path class="fil0 str0" d="M22.3405 1.82985l0.145592 0c0.0955524,-0.165103 0.233214,-0.302764 0.398316,-0.398316l0 -0.145592 0.543908 0 0.543908 0 0 0.145592c0.165103,0.0955524 0.302764,0.233214 0.398316,0.398316l0.145592 0 0 0.543908 0 0.543908 -0.145592 0c-0.0955524,0.165103 -0.233214,0.302764 -0.398316,0.398316l0 0.145592 -0.543908 0 -0.543908 0 0 -0.145592c-0.165103,-0.0955524 -0.302764,-0.233214 -0.398316,-0.398316l-0.145592 0 0 -0.543908 0 -0.543908z"/>
  <path class="fil0 str0" d="M29.3586 1.82985l0.145592 0c0.0955524,-0.165103 0.233214,-0.302764 0.398316,-0.398316l0 -0.145592 0.543908 0 0.543908 0 0 0.145592c0.165103,0.0955524 0.302764,0.233214 0.398316,0.398316l0.145592 0 0 0.543908 0 0.543908 -0.145592 0c-0.0955524,0.165103 -0.233214,0.302764 -0.398316,0.398316l0 0.145592 -0.543908 0 -0.543908 0 0 -0.145592c-0.165103,-0.0955524 -0.302764,-0.233214 -0.398316,-0.398316l-0.145592 0 0 -0.543908 0 -0.543908z"/>
  <path class="fil0 str0" d="M36.3768 1.82985l0.145592 0c0.0955524,-0.165103 0.233214,-0.302764 0.398316,-0.398316l0 -0.145592 0.543908 0 0.543908 0 0 0.145592c0.165103,0.0955524 0.302764,0.233214 0.398316,0.398316l0.145592 0 0 0.543908 0 0.543908 -0.145592 0c-0.0955524,0.165103 -0.233214,0.302764 -0.398316,0.398316l0 0.145592 -0.543908 0 -0.543908 0 0 -0.145592c-0.165103,-0.0955524 -0.302764,-0.233214 -0.398316,-0.398316l-0.145592 0 0 -0.543908 0 -0.543908z"/>
  <rect class="fil0 str1" x="4.79503" y="1.8123" width="2.17563" height="1.12291"/>
  <rect class="fil0 str1" x="11.8132" y="1.8123" width="2.17563" height="1.12291"/>
  <rect class="fil0 str1" x="18.8314" y="1.8123" width="2.17563" height="1.12291"/>
  <rect class="fil0 str1" x="25.8495" y="1.8123" width="2.17563" height="1.12291"/>
  <rect class="fil0 str1" x="32.8677" y="1.8123" width="2.17563" height="1.12291"/>
  <path class="fil0 str2" d="M0.0928504 2.90012l0 -1.05273c0,-0.968824 0.78572,-1.75454 1.75454,-1.75454l36.1436 0c0.968824,0 1.75454,0.78572 1.75454,1.75454l0 1.05273c0,0.968824 -0.78572,1.75454 -1.75454,1.75454l-36.1436 0c-0.968824,0 -1.75454,-0.78572 -1.75454,-1.75454z"/>
 </g>
</svg>
