<svg
xmlns:dc="http://purl.org/dc/elements/1.1/"
xmlns:cc="http://creativecommons.org/ns#"
xmlns:rdf="http://www.w3.org/1999/02/22-rdf-syntax-ns#"
xmlns:svg="http://www.w3.org/2000/svg"
xmlns="http://www.w3.org/2000/svg"
xmlns:xlink="http://www.w3.org/1999/xlink"
xmlns:sodipodi="http://sodipodi.sourceforge.net/DTD/sodipodi-0.dtd"
xmlns:inkscape="http://www.inkscape.org/namespaces/inkscape"
width="123mm"
height="123mm"
id="svg2"
version="1.1"
inkscape:version="0.48.1 "
sodipodi:docname="MultiLineTextINK.svg">
	<rect
		style="fill:none;stroke:#000000;stroke-width:2px " 
		x="5mm"
		y="5mm"
		rx="5mm"
		ry="5mm"
		width="113mm"
		height="113mm"
	/>
	<path 
	style="fill:none;stroke:#000000;stroke-width:0.564445573335591px " 
	d=
	"M10 14.5
	l0 -0.4015c-0.4553,-0.2635 -0.8349,-0.6432 -1.0984,-1.0985l-0.4016 0 0 -1.5 0 -1.5 0.4016 0c0.2635,-0.4553 0.6431,-0.835 1.0984,-1.0985l0 -0.4015 1.5 0 1.5 0 0 0.4015c0.4553,0.2635 0.8349,0.6432 1.0984,1.0985l0.4016 0 0 1.5 0 1.5 -0.4016 0c-0.2635,0.4553 -0.6431,0.835 -1.0984,1.0985l0 0.4015 -1.5 0 -1.5 0z"
	transform="scale(3.5433)"
	/>
	<path 
	style="fill:none;stroke:#000000;stroke-width:0.564445573335591px " 
	d=
	"M10 34.5
	l0 -0.4015c-0.4553,-0.2635 -0.8349,-0.6432 -1.0984,-1.0985l-0.4016 0 0 -1.5 0 -1.5 0.4016 0c0.2635,-0.4553 0.6431,-0.835 1.0984,-1.0985l0 -0.4015 1.5 0 1.5 0 0 0.4015c0.4553,0.2635 0.8349,0.6432 1.0984,1.0985l0.4016 0 0 1.5 0 1.5 -0.4016 0c-0.2635,0.4553 -0.6431,0.835 -1.0984,1.0985l0 0.4015 -1.5 0 -1.5 0z"
	transform="scale(3.5433)"
	/>
	<path 
	style="fill:none;stroke:#000000;stroke-width:0.564445573335591px " 
	d=
	"M10 54.5
	l0 -0.4015c-0.4553,-0.2635 -0.8349,-0.6432 -1.0984,-1.0985l-0.4016 0 0 -1.5 0 -1.5 0.4016 0c0.2635,-0.4553 0.6431,-0.835 1.0984,-1.0985l0 -0.4015 1.5 0 1.5 0 0 0.4015c0.4553,0.2635 0.8349,0.6432 1.0984,1.0985l0.4016 0 0 1.5 0 1.5 -0.4016 0c-0.2635,0.4553 -0.6431,0.835 -1.0984,1.0985l0 0.4015 -1.5 0 -1.5 0z"
	transform="scale(3.5433)"
	/>
	<path 
	style="fill:none;stroke:#000000;stroke-width:0.564445573335591px " 
	d=
	"M10 74.5
	l0 -0.4015c-0.4553,-0.2635 -0.8349,-0.6432 -1.0984,-1.0985l-0.4016 0 0 -1.5 0 -1.5 0.4016 0c0.2635,-0.4553 0.6431,-0.835 1.0984,-1.0985l0 -0.4015 1.5 0 1.5 0 0 0.4015c0.4553,0.2635 0.8349,0.6432 1.0984,1.0985l0.4016 0 0 1.5 0 1.5 -0.4016 0c-0.2635,0.4553 -0.6431,0.835 -1.0984,1.0985l0 0.4015 -1.5 0 -1.5 0z"
	transform="scale(3.5433)"
	/>
	<path 
	style="fill:none;stroke:#000000;stroke-width:0.564445573335591px " 
	d=
	"M10 94.5
	l0 -0.4015c-0.4553,-0.2635 -0.8349,-0.6432 -1.0984,-1.0985l-0.4016 0 0 -1.5 0 -1.5 0.4016 0c0.2635,-0.4553 0.6431,-0.835 1.0984,-1.0985l0 -0.4015 1.5 0 1.5 0 0 0.4015c0.4553,0.2635 0.8349,0.6432 1.0984,1.0985l0.4016 0 0 1.5 0 1.5 -0.4016 0c-0.2635,0.4553 -0.6431,0.835 -1.0984,1.0985l0 0.4015 -1.5 0 -1.5 0z"
	transform="scale(3.5433)"
	/>
	<path 
	style="fill:none;stroke:#000000;stroke-width:0.564445573335591px " 
	d=
	"M10 114.5
	l0 -0.4015c-0.4553,-0.2635 -0.8349,-0.6432 -1.0984,-1.0985l-0.4016 0 0 -1.5 0 -1.5 0.4016 0c0.2635,-0.4553 0.6431,-0.835 1.0984,-1.0985l0 -0.4015 1.5 0 1.5 0 0 0.4015c0.4553,0.2635 0.8349,0.6432 1.0984,1.0985l0.4016 0 0 1.5 0 1.5 -0.4016 0c-0.2635,0.4553 -0.6431,0.835 -1.0984,1.0985l0 0.4015 -1.5 0 -1.5 0z"
	transform="scale(3.5433)"
	/>
	<path 
	style="fill:none;stroke:#000000;stroke-width:0.564445573335591px " 
	d=
	"M30 14.5
	l0 -0.4015c-0.4553,-0.2635 -0.8349,-0.6432 -1.0984,-1.0985l-0.4016 0 0 -1.5 0 -1.5 0.4016 0c0.2635,-0.4553 0.6431,-0.835 1.0984,-1.0985l0 -0.4015 1.5 0 1.5 0 0 0.4015c0.4553,0.2635 0.8349,0.6432 1.0984,1.0985l0.4016 0 0 1.5 0 1.5 -0.4016 0c-0.2635,0.4553 -0.6431,0.835 -1.0984,1.0985l0 0.4015 -1.5 0 -1.5 0z"
	transform="scale(3.5433)"
	/>
	<path 
	style="fill:none;stroke:#000000;stroke-width:0.564445573335591px " 
	d=
	"M30 34.5
	l0 -0.4015c-0.4553,-0.2635 -0.8349,-0.6432 -1.0984,-1.0985l-0.4016 0 0 -1.5 0 -1.5 0.4016 0c0.2635,-0.4553 0.6431,-0.835 1.0984,-1.0985l0 -0.4015 1.5 0 1.5 0 0 0.4015c0.4553,0.2635 0.8349,0.6432 1.0984,1.0985l0.4016 0 0 1.5 0 1.5 -0.4016 0c-0.2635,0.4553 -0.6431,0.835 -1.0984,1.0985l0 0.4015 -1.5 0 -1.5 0z"
	transform="scale(3.5433)"
	/>
	<path 
	style="fill:none;stroke:#000000;stroke-width:0.564445573335591px " 
	d=
	"M30 54.5
	l0 -0.4015c-0.4553,-0.2635 -0.8349,-0.6432 -1.0984,-1.0985l-0.4016 0 0 -1.5 0 -1.5 0.4016 0c0.2635,-0.4553 0.6431,-0.835 1.0984,-1.0985l0 -0.4015 1.5 0 1.5 0 0 0.4015c0.4553,0.2635 0.8349,0.6432 1.0984,1.0985l0.4016 0 0 1.5 0 1.5 -0.4016 0c-0.2635,0.4553 -0.6431,0.835 -1.0984,1.0985l0 0.4015 -1.5 0 -1.5 0z"
	transform="scale(3.5433)"
	/>
	<path 
	style="fill:none;stroke:#000000;stroke-width:0.564445573335591px " 
	d=
	"M30 74.5
	l0 -0.4015c-0.4553,-0.2635 -0.8349,-0.6432 -1.0984,-1.0985l-0.4016 0 0 -1.5 0 -1.5 0.4016 0c0.2635,-0.4553 0.6431,-0.835 1.0984,-1.0985l0 -0.4015 1.5 0 1.5 0 0 0.4015c0.4553,0.2635 0.8349,0.6432 1.0984,1.0985l0.4016 0 0 1.5 0 1.5 -0.4016 0c-0.2635,0.4553 -0.6431,0.835 -1.0984,1.0985l0 0.4015 -1.5 0 -1.5 0z"
	transform="scale(3.5433)"
	/>
	<path 
	style="fill:none;stroke:#000000;stroke-width:0.564445573335591px " 
	d=
	"M30 94.5
	l0 -0.4015c-0.4553,-0.2635 -0.8349,-0.6432 -1.0984,-1.0985l-0.4016 0 0 -1.5 0 -1.5 0.4016 0c0.2635,-0.4553 0.6431,-0.835 1.0984,-1.0985l0 -0.4015 1.5 0 1.5 0 0 0.4015c0.4553,0.2635 0.8349,0.6432 1.0984,1.0985l0.4016 0 0 1.5 0 1.5 -0.4016 0c-0.2635,0.4553 -0.6431,0.835 -1.0984,1.0985l0 0.4015 -1.5 0 -1.5 0z"
	transform="scale(3.5433)"
	/>
	<path 
	style="fill:none;stroke:#000000;stroke-width:0.564445573335591px " 
	d=
	"M30 114.5
	l0 -0.4015c-0.4553,-0.2635 -0.8349,-0.6432 -1.0984,-1.0985l-0.4016 0 0 -1.5 0 -1.5 0.4016 0c0.2635,-0.4553 0.6431,-0.835 1.0984,-1.0985l0 -0.4015 1.5 0 1.5 0 0 0.4015c0.4553,0.2635 0.8349,0.6432 1.0984,1.0985l0.4016 0 0 1.5 0 1.5 -0.4016 0c-0.2635,0.4553 -0.6431,0.835 -1.0984,1.0985l0 0.4015 -1.5 0 -1.5 0z"
	transform="scale(3.5433)"
	/>
	<path 
	style="fill:none;stroke:#000000;stroke-width:0.564445573335591px " 
	d=
	"M50 14.5
	l0 -0.4015c-0.4553,-0.2635 -0.8349,-0.6432 -1.0984,-1.0985l-0.4016 0 0 -1.5 0 -1.5 0.4016 0c0.2635,-0.4553 0.6431,-0.835 1.0984,-1.0985l0 -0.4015 1.5 0 1.5 0 0 0.4015c0.4553,0.2635 0.8349,0.6432 1.0984,1.0985l0.4016 0 0 1.5 0 1.5 -0.4016 0c-0.2635,0.4553 -0.6431,0.835 -1.0984,1.0985l0 0.4015 -1.5 0 -1.5 0z"
	transform="scale(3.5433)"
	/>
	<path 
	style="fill:none;stroke:#000000;stroke-width:0.564445573335591px " 
	d=
	"M50 34.5
	l0 -0.4015c-0.4553,-0.2635 -0.8349,-0.6432 -1.0984,-1.0985l-0.4016 0 0 -1.5 0 -1.5 0.4016 0c0.2635,-0.4553 0.6431,-0.835 1.0984,-1.0985l0 -0.4015 1.5 0 1.5 0 0 0.4015c0.4553,0.2635 0.8349,0.6432 1.0984,1.0985l0.4016 0 0 1.5 0 1.5 -0.4016 0c-0.2635,0.4553 -0.6431,0.835 -1.0984,1.0985l0 0.4015 -1.5 0 -1.5 0z"
	transform="scale(3.5433)"
	/>
	<path 
	style="fill:none;stroke:#000000;stroke-width:0.564445573335591px " 
	d=
	"M50 54.5
	l0 -0.4015c-0.4553,-0.2635 -0.8349,-0.6432 -1.0984,-1.0985l-0.4016 0 0 -1.5 0 -1.5 0.4016 0c0.2635,-0.4553 0.6431,-0.835 1.0984,-1.0985l0 -0.4015 1.5 0 1.5 0 0 0.4015c0.4553,0.2635 0.8349,0.6432 1.0984,1.0985l0.4016 0 0 1.5 0 1.5 -0.4016 0c-0.2635,0.4553 -0.6431,0.835 -1.0984,1.0985l0 0.4015 -1.5 0 -1.5 0z"
	transform="scale(3.5433)"
	/>
	<path 
	style="fill:none;stroke:#000000;stroke-width:0.564445573335591px " 
	d=
	"M50 74.5
	l0 -0.4015c-0.4553,-0.2635 -0.8349,-0.6432 -1.0984,-1.0985l-0.4016 0 0 -1.5 0 -1.5 0.4016 0c0.2635,-0.4553 0.6431,-0.835 1.0984,-1.0985l0 -0.4015 1.5 0 1.5 0 0 0.4015c0.4553,0.2635 0.8349,0.6432 1.0984,1.0985l0.4016 0 0 1.5 0 1.5 -0.4016 0c-0.2635,0.4553 -0.6431,0.835 -1.0984,1.0985l0 0.4015 -1.5 0 -1.5 0z"
	transform="scale(3.5433)"
	/>
	<path 
	style="fill:none;stroke:#000000;stroke-width:0.564445573335591px " 
	d=
	"M50 94.5
	l0 -0.4015c-0.4553,-0.2635 -0.8349,-0.6432 -1.0984,-1.0985l-0.4016 0 0 -1.5 0 -1.5 0.4016 0c0.2635,-0.4553 0.6431,-0.835 1.0984,-1.0985l0 -0.4015 1.5 0 1.5 0 0 0.4015c0.4553,0.2635 0.8349,0.6432 1.0984,1.0985l0.4016 0 0 1.5 0 1.5 -0.4016 0c-0.2635,0.4553 -0.6431,0.835 -1.0984,1.0985l0 0.4015 -1.5 0 -1.5 0z"
	transform="scale(3.5433)"
	/>
	<path 
	style="fill:none;stroke:#000000;stroke-width:0.564445573335591px " 
	d=
	"M50 114.5
	l0 -0.4015c-0.4553,-0.2635 -0.8349,-0.6432 -1.0984,-1.0985l-0.4016 0 0 -1.5 0 -1.5 0.4016 0c0.2635,-0.4553 0.6431,-0.835 1.0984,-1.0985l0 -0.4015 1.5 0 1.5 0 0 0.4015c0.4553,0.2635 0.8349,0.6432 1.0984,1.0985l0.4016 0 0 1.5 0 1.5 -0.4016 0c-0.2635,0.4553 -0.6431,0.835 -1.0984,1.0985l0 0.4015 -1.5 0 -1.5 0z"
	transform="scale(3.5433)"
	/>
	<path 
	style="fill:none;stroke:#000000;stroke-width:0.564445573335591px " 
	d=
	"M70 14.5
	l0 -0.4015c-0.4553,-0.2635 -0.8349,-0.6432 -1.0984,-1.0985l-0.4016 0 0 -1.5 0 -1.5 0.4016 0c0.2635,-0.4553 0.6431,-0.835 1.0984,-1.0985l0 -0.4015 1.5 0 1.5 0 0 0.4015c0.4553,0.2635 0.8349,0.6432 1.0984,1.0985l0.4016 0 0 1.5 0 1.5 -0.4016 0c-0.2635,0.4553 -0.6431,0.835 -1.0984,1.0985l0 0.4015 -1.5 0 -1.5 0z"
	transform="scale(3.5433)"
	/>
	<path 
	style="fill:none;stroke:#000000;stroke-width:0.564445573335591px " 
	d=
	"M70 34.5
	l0 -0.4015c-0.4553,-0.2635 -0.8349,-0.6432 -1.0984,-1.0985l-0.4016 0 0 -1.5 0 -1.5 0.4016 0c0.2635,-0.4553 0.6431,-0.835 1.0984,-1.0985l0 -0.4015 1.5 0 1.5 0 0 0.4015c0.4553,0.2635 0.8349,0.6432 1.0984,1.0985l0.4016 0 0 1.5 0 1.5 -0.4016 0c-0.2635,0.4553 -0.6431,0.835 -1.0984,1.0985l0 0.4015 -1.5 0 -1.5 0z"
	transform="scale(3.5433)"
	/>
	<path 
	style="fill:none;stroke:#000000;stroke-width:0.564445573335591px " 
	d=
	"M70 54.5
	l0 -0.4015c-0.4553,-0.2635 -0.8349,-0.6432 -1.0984,-1.0985l-0.4016 0 0 -1.5 0 -1.5 0.4016 0c0.2635,-0.4553 0.6431,-0.835 1.0984,-1.0985l0 -0.4015 1.5 0 1.5 0 0 0.4015c0.4553,0.2635 0.8349,0.6432 1.0984,1.0985l0.4016 0 0 1.5 0 1.5 -0.4016 0c-0.2635,0.4553 -0.6431,0.835 -1.0984,1.0985l0 0.4015 -1.5 0 -1.5 0z"
	transform="scale(3.5433)"
	/>
	<path 
	style="fill:none;stroke:#000000;stroke-width:0.564445573335591px " 
	d=
	"M70 74.5
	l0 -0.4015c-0.4553,-0.2635 -0.8349,-0.6432 -1.0984,-1.0985l-0.4016 0 0 -1.5 0 -1.5 0.4016 0c0.2635,-0.4553 0.6431,-0.835 1.0984,-1.0985l0 -0.4015 1.5 0 1.5 0 0 0.4015c0.4553,0.2635 0.8349,0.6432 1.0984,1.0985l0.4016 0 0 1.5 0 1.5 -0.4016 0c-0.2635,0.4553 -0.6431,0.835 -1.0984,1.0985l0 0.4015 -1.5 0 -1.5 0z"
	transform="scale(3.5433)"
	/>
	<path 
	style="fill:none;stroke:#000000;stroke-width:0.564445573335591px " 
	d=
	"M70 94.5
	l0 -0.4015c-0.4553,-0.2635 -0.8349,-0.6432 -1.0984,-1.0985l-0.4016 0 0 -1.5 0 -1.5 0.4016 0c0.2635,-0.4553 0.6431,-0.835 1.0984,-1.0985l0 -0.4015 1.5 0 1.5 0 0 0.4015c0.4553,0.2635 0.8349,0.6432 1.0984,1.0985l0.4016 0 0 1.5 0 1.5 -0.4016 0c-0.2635,0.4553 -0.6431,0.835 -1.0984,1.0985l0 0.4015 -1.5 0 -1.5 0z"
	transform="scale(3.5433)"
	/>
	<path 
	style="fill:none;stroke:#000000;stroke-width:0.564445573335591px " 
	d=
	"M70 114.5
	l0 -0.4015c-0.4553,-0.2635 -0.8349,-0.6432 -1.0984,-1.0985l-0.4016 0 0 -1.5 0 -1.5 0.4016 0c0.2635,-0.4553 0.6431,-0.835 1.0984,-1.0985l0 -0.4015 1.5 0 1.5 0 0 0.4015c0.4553,0.2635 0.8349,0.6432 1.0984,1.0985l0.4016 0 0 1.5 0 1.5 -0.4016 0c-0.2635,0.4553 -0.6431,0.835 -1.0984,1.0985l0 0.4015 -1.5 0 -1.5 0z"
	transform="scale(3.5433)"
	/>
	<path 
	style="fill:none;stroke:#000000;stroke-width:0.564445573335591px " 
	d=
	"M90 14.5
	l0 -0.4015c-0.4553,-0.2635 -0.8349,-0.6432 -1.0984,-1.0985l-0.4016 0 0 -1.5 0 -1.5 0.4016 0c0.2635,-0.4553 0.6431,-0.835 1.0984,-1.0985l0 -0.4015 1.5 0 1.5 0 0 0.4015c0.4553,0.2635 0.8349,0.6432 1.0984,1.0985l0.4016 0 0 1.5 0 1.5 -0.4016 0c-0.2635,0.4553 -0.6431,0.835 -1.0984,1.0985l0 0.4015 -1.5 0 -1.5 0z"
	transform="scale(3.5433)"
	/>
	<path 
	style="fill:none;stroke:#000000;stroke-width:0.564445573335591px " 
	d=
	"M90 34.5
	l0 -0.4015c-0.4553,-0.2635 -0.8349,-0.6432 -1.0984,-1.0985l-0.4016 0 0 -1.5 0 -1.5 0.4016 0c0.2635,-0.4553 0.6431,-0.835 1.0984,-1.0985l0 -0.4015 1.5 0 1.5 0 0 0.4015c0.4553,0.2635 0.8349,0.6432 1.0984,1.0985l0.4016 0 0 1.5 0 1.5 -0.4016 0c-0.2635,0.4553 -0.6431,0.835 -1.0984,1.0985l0 0.4015 -1.5 0 -1.5 0z"
	transform="scale(3.5433)"
	/>
	<path 
	style="fill:none;stroke:#000000;stroke-width:0.564445573335591px " 
	d=
	"M90 54.5
	l0 -0.4015c-0.4553,-0.2635 -0.8349,-0.6432 -1.0984,-1.0985l-0.4016 0 0 -1.5 0 -1.5 0.4016 0c0.2635,-0.4553 0.6431,-0.835 1.0984,-1.0985l0 -0.4015 1.5 0 1.5 0 0 0.4015c0.4553,0.2635 0.8349,0.6432 1.0984,1.0985l0.4016 0 0 1.5 0 1.5 -0.4016 0c-0.2635,0.4553 -0.6431,0.835 -1.0984,1.0985l0 0.4015 -1.5 0 -1.5 0z"
	transform="scale(3.5433)"
	/>
	<path 
	style="fill:none;stroke:#000000;stroke-width:0.564445573335591px " 
	d=
	"M90 74.5
	l0 -0.4015c-0.4553,-0.2635 -0.8349,-0.6432 -1.0984,-1.0985l-0.4016 0 0 -1.5 0 -1.5 0.4016 0c0.2635,-0.4553 0.6431,-0.835 1.0984,-1.0985l0 -0.4015 1.5 0 1.5 0 0 0.4015c0.4553,0.2635 0.8349,0.6432 1.0984,1.0985l0.4016 0 0 1.5 0 1.5 -0.4016 0c-0.2635,0.4553 -0.6431,0.835 -1.0984,1.0985l0 0.4015 -1.5 0 -1.5 0z"
	transform="scale(3.5433)"
	/>
	<path 
	style="fill:none;stroke:#000000;stroke-width:0.564445573335591px " 
	d=
	"M90 94.5
	l0 -0.4015c-0.4553,-0.2635 -0.8349,-0.6432 -1.0984,-1.0985l-0.4016 0 0 -1.5 0 -1.5 0.4016 0c0.2635,-0.4553 0.6431,-0.835 1.0984,-1.0985l0 -0.4015 1.5 0 1.5 0 0 0.4015c0.4553,0.2635 0.8349,0.6432 1.0984,1.0985l0.4016 0 0 1.5 0 1.5 -0.4016 0c-0.2635,0.4553 -0.6431,0.835 -1.0984,1.0985l0 0.4015 -1.5 0 -1.5 0z"
	transform="scale(3.5433)"
	/>
	<path 
	style="fill:none;stroke:#000000;stroke-width:0.564445573335591px " 
	d=
	"M90 114.5
	l0 -0.4015c-0.4553,-0.2635 -0.8349,-0.6432 -1.0984,-1.0985l-0.4016 0 0 -1.5 0 -1.5 0.4016 0c0.2635,-0.4553 0.6431,-0.835 1.0984,-1.0985l0 -0.4015 1.5 0 1.5 0 0 0.4015c0.4553,0.2635 0.8349,0.6432 1.0984,1.0985l0.4016 0 0 1.5 0 1.5 -0.4016 0c-0.2635,0.4553 -0.6431,0.835 -1.0984,1.0985l0 0.4015 -1.5 0 -1.5 0z"
	transform="scale(3.5433)"
	/>
	<path 
	style="fill:none;stroke:#000000;stroke-width:0.564445573335591px " 
	d=
	"M110 14.5
	l0 -0.4015c-0.4553,-0.2635 -0.8349,-0.6432 -1.0984,-1.0985l-0.4016 0 0 -1.5 0 -1.5 0.4016 0c0.2635,-0.4553 0.6431,-0.835 1.0984,-1.0985l0 -0.4015 1.5 0 1.5 0 0 0.4015c0.4553,0.2635 0.8349,0.6432 1.0984,1.0985l0.4016 0 0 1.5 0 1.5 -0.4016 0c-0.2635,0.4553 -0.6431,0.835 -1.0984,1.0985l0 0.4015 -1.5 0 -1.5 0z"
	transform="scale(3.5433)"
	/>
	<path 
	style="fill:none;stroke:#000000;stroke-width:0.564445573335591px " 
	d=
	"M110 34.5
	l0 -0.4015c-0.4553,-0.2635 -0.8349,-0.6432 -1.0984,-1.0985l-0.4016 0 0 -1.5 0 -1.5 0.4016 0c0.2635,-0.4553 0.6431,-0.835 1.0984,-1.0985l0 -0.4015 1.5 0 1.5 0 0 0.4015c0.4553,0.2635 0.8349,0.6432 1.0984,1.0985l0.4016 0 0 1.5 0 1.5 -0.4016 0c-0.2635,0.4553 -0.6431,0.835 -1.0984,1.0985l0 0.4015 -1.5 0 -1.5 0z"
	transform="scale(3.5433)"
	/>
	<path 
	style="fill:none;stroke:#000000;stroke-width:0.564445573335591px " 
	d=
	"M110 54.5
	l0 -0.4015c-0.4553,-0.2635 -0.8349,-0.6432 -1.0984,-1.0985l-0.4016 0 0 -1.5 0 -1.5 0.4016 0c0.2635,-0.4553 0.6431,-0.835 1.0984,-1.0985l0 -0.4015 1.5 0 1.5 0 0 0.4015c0.4553,0.2635 0.8349,0.6432 1.0984,1.0985l0.4016 0 0 1.5 0 1.5 -0.4016 0c-0.2635,0.4553 -0.6431,0.835 -1.0984,1.0985l0 0.4015 -1.5 0 -1.5 0z"
	transform="scale(3.5433)"
	/>
	<path 
	style="fill:none;stroke:#000000;stroke-width:0.564445573335591px " 
	d=
	"M110 74.5
	l0 -0.4015c-0.4553,-0.2635 -0.8349,-0.6432 -1.0984,-1.0985l-0.4016 0 0 -1.5 0 -1.5 0.4016 0c0.2635,-0.4553 0.6431,-0.835 1.0984,-1.0985l0 -0.4015 1.5 0 1.5 0 0 0.4015c0.4553,0.2635 0.8349,0.6432 1.0984,1.0985l0.4016 0 0 1.5 0 1.5 -0.4016 0c-0.2635,0.4553 -0.6431,0.835 -1.0984,1.0985l0 0.4015 -1.5 0 -1.5 0z"
	transform="scale(3.5433)"
	/>
	<path 
	style="fill:none;stroke:#000000;stroke-width:0.564445573335591px " 
	d=
	"M110 94.5
	l0 -0.4015c-0.4553,-0.2635 -0.8349,-0.6432 -1.0984,-1.0985l-0.4016 0 0 -1.5 0 -1.5 0.4016 0c0.2635,-0.4553 0.6431,-0.835 1.0984,-1.0985l0 -0.4015 1.5 0 1.5 0 0 0.4015c0.4553,0.2635 0.8349,0.6432 1.0984,1.0985l0.4016 0 0 1.5 0 1.5 -0.4016 0c-0.2635,0.4553 -0.6431,0.835 -1.0984,1.0985l0 0.4015 -1.5 0 -1.5 0z"
	transform="scale(3.5433)"
	/>
	<path 
	style="fill:none;stroke:#000000;stroke-width:0.564445573335591px " 
	d=
	"M110 114.5
	l0 -0.4015c-0.4553,-0.2635 -0.8349,-0.6432 -1.0984,-1.0985l-0.4016 0 0 -1.5 0 -1.5 0.4016 0c0.2635,-0.4553 0.6431,-0.835 1.0984,-1.0985l0 -0.4015 1.5 0 1.5 0 0 0.4015c0.4553,0.2635 0.8349,0.6432 1.0984,1.0985l0.4016 0 0 1.5 0 1.5 -0.4016 0c-0.2635,0.4553 -0.6431,0.835 -1.0984,1.0985l0 0.4015 -1.5 0 -1.5 0z"
	transform="scale(3.5433)"
	/>
	<rect
		style="fill:none;stroke:#000000;stroke-width:2px " 
		x="10mm"
		y="98.5mm"
		width="3mm"
		height="6mm"
		id="oomID1544"
	/>
	<rect
		style="fill:none;stroke:#000000;stroke-width:2px " 
		x="10mm"
		y="78.5mm"
		width="3mm"
		height="6mm"
		id="oomID1545"
	/>
	<rect
		style="fill:none;stroke:#000000;stroke-width:2px " 
		x="10mm"
		y="58.5mm"
		width="3mm"
		height="6mm"
		id="oomID1546"
	/>
	<rect
		style="fill:none;stroke:#000000;stroke-width:2px " 
		x="10mm"
		y="38.5mm"
		width="3mm"
		height="6mm"
		id="oomID1547"
	/>
	<rect
		style="fill:none;stroke:#000000;stroke-width:2px " 
		x="10mm"
		y="18.5mm"
		width="3mm"
		height="6mm"
		id="oomID1548"
	/>
	<rect
		style="fill:none;stroke:#000000;stroke-width:2px " 
		x="30mm"
		y="98.5mm"
		width="3mm"
		height="6mm"
		id="oomID1549"
	/>
	<rect
		style="fill:none;stroke:#000000;stroke-width:2px " 
		x="30mm"
		y="78.5mm"
		width="3mm"
		height="6mm"
		id="oomID1550"
	/>
	<rect
		style="fill:none;stroke:#000000;stroke-width:2px " 
		x="30mm"
		y="58.5mm"
		width="3mm"
		height="6mm"
		id="oomID1551"
	/>
	<rect
		style="fill:none;stroke:#000000;stroke-width:2px " 
		x="30mm"
		y="38.5mm"
		width="3mm"
		height="6mm"
		id="oomID1552"
	/>
	<rect
		style="fill:none;stroke:#000000;stroke-width:2px " 
		x="30mm"
		y="18.5mm"
		width="3mm"
		height="6mm"
		id="oomID1553"
	/>
	<rect
		style="fill:none;stroke:#000000;stroke-width:2px " 
		x="50mm"
		y="98.5mm"
		width="3mm"
		height="6mm"
		id="oomID1554"
	/>
	<rect
		style="fill:none;stroke:#000000;stroke-width:2px " 
		x="50mm"
		y="78.5mm"
		width="3mm"
		height="6mm"
		id="oomID1555"
	/>
	<rect
		style="fill:none;stroke:#000000;stroke-width:2px " 
		x="50mm"
		y="58.5mm"
		width="3mm"
		height="6mm"
		id="oomID1556"
	/>
	<rect
		style="fill:none;stroke:#000000;stroke-width:2px " 
		x="50mm"
		y="38.5mm"
		width="3mm"
		height="6mm"
		id="oomID1557"
	/>
	<rect
		style="fill:none;stroke:#000000;stroke-width:2px " 
		x="50mm"
		y="18.5mm"
		width="3mm"
		height="6mm"
		id="oomID1558"
	/>
	<rect
		style="fill:none;stroke:#000000;stroke-width:2px " 
		x="70mm"
		y="98.5mm"
		width="3mm"
		height="6mm"
		id="oomID1559"
	/>
	<rect
		style="fill:none;stroke:#000000;stroke-width:2px " 
		x="70mm"
		y="78.5mm"
		width="3mm"
		height="6mm"
		id="oomID1560"
	/>
	<rect
		style="fill:none;stroke:#000000;stroke-width:2px " 
		x="70mm"
		y="58.5mm"
		width="3mm"
		height="6mm"
		id="oomID1561"
	/>
	<rect
		style="fill:none;stroke:#000000;stroke-width:2px " 
		x="70mm"
		y="38.5mm"
		width="3mm"
		height="6mm"
		id="oomID1562"
	/>
	<rect
		style="fill:none;stroke:#000000;stroke-width:2px " 
		x="70mm"
		y="18.5mm"
		width="3mm"
		height="6mm"
		id="oomID1563"
	/>
	<rect
		style="fill:none;stroke:#000000;stroke-width:2px " 
		x="90mm"
		y="98.5mm"
		width="3mm"
		height="6mm"
		id="oomID1564"
	/>
	<rect
		style="fill:none;stroke:#000000;stroke-width:2px " 
		x="90mm"
		y="78.5mm"
		width="3mm"
		height="6mm"
		id="oomID1565"
	/>
	<rect
		style="fill:none;stroke:#000000;stroke-width:2px " 
		x="90mm"
		y="58.5mm"
		width="3mm"
		height="6mm"
		id="oomID1566"
	/>
	<rect
		style="fill:none;stroke:#000000;stroke-width:2px " 
		x="90mm"
		y="38.5mm"
		width="3mm"
		height="6mm"
		id="oomID1567"
	/>
	<rect
		style="fill:none;stroke:#000000;stroke-width:2px " 
		x="90mm"
		y="18.5mm"
		width="3mm"
		height="6mm"
		id="oomID1568"
	/>
	<rect
		style="fill:none;stroke:#000000;stroke-width:2px " 
		x="110mm"
		y="98.5mm"
		width="3mm"
		height="6mm"
		id="oomID1569"
	/>
	<rect
		style="fill:none;stroke:#000000;stroke-width:2px " 
		x="110mm"
		y="78.5mm"
		width="3mm"
		height="6mm"
		id="oomID1570"
	/>
	<rect
		style="fill:none;stroke:#000000;stroke-width:2px " 
		x="110mm"
		y="58.5mm"
		width="3mm"
		height="6mm"
		id="oomID1571"
	/>
	<rect
		style="fill:none;stroke:#000000;stroke-width:2px " 
		x="110mm"
		y="38.5mm"
		width="3mm"
		height="6mm"
		id="oomID1572"
	/>
	<rect
		style="fill:none;stroke:#000000;stroke-width:2px " 
		x="110mm"
		y="18.5mm"
		width="3mm"
		height="6mm"
		id="oomID1573"
	/>
	<rect
		style="fill:none;stroke:#000000;stroke-width:2px " 
		x="18.5mm"
		y="110mm"
		width="6mm"
		height="3mm"
		id="oomID1574"
	/>
	<rect
		style="fill:none;stroke:#000000;stroke-width:2px " 
		x="18.5mm"
		y="90mm"
		width="6mm"
		height="3mm"
		id="oomID1575"
	/>
	<rect
		style="fill:none;stroke:#000000;stroke-width:2px " 
		x="18.5mm"
		y="70mm"
		width="6mm"
		height="3mm"
		id="oomID1576"
	/>
	<rect
		style="fill:none;stroke:#000000;stroke-width:2px " 
		x="18.5mm"
		y="50mm"
		width="6mm"
		height="3mm"
		id="oomID1577"
	/>
	<rect
		style="fill:none;stroke:#000000;stroke-width:2px " 
		x="18.5mm"
		y="30mm"
		width="6mm"
		height="3mm"
		id="oomID1578"
	/>
	<rect
		style="fill:none;stroke:#000000;stroke-width:2px " 
		x="18.5mm"
		y="10mm"
		width="6mm"
		height="3mm"
		id="oomID1579"
	/>
	<rect
		style="fill:none;stroke:#000000;stroke-width:2px " 
		x="38.5mm"
		y="110mm"
		width="6mm"
		height="3mm"
		id="oomID1580"
	/>
	<rect
		style="fill:none;stroke:#000000;stroke-width:2px " 
		x="38.5mm"
		y="90mm"
		width="6mm"
		height="3mm"
		id="oomID1581"
	/>
	<rect
		style="fill:none;stroke:#000000;stroke-width:2px " 
		x="38.5mm"
		y="70mm"
		width="6mm"
		height="3mm"
		id="oomID1582"
	/>
	<rect
		style="fill:none;stroke:#000000;stroke-width:2px " 
		x="38.5mm"
		y="50mm"
		width="6mm"
		height="3mm"
		id="oomID1583"
	/>
	<rect
		style="fill:none;stroke:#000000;stroke-width:2px " 
		x="38.5mm"
		y="30mm"
		width="6mm"
		height="3mm"
		id="oomID1584"
	/>
	<rect
		style="fill:none;stroke:#000000;stroke-width:2px " 
		x="38.5mm"
		y="10mm"
		width="6mm"
		height="3mm"
		id="oomID1585"
	/>
	<rect
		style="fill:none;stroke:#000000;stroke-width:2px " 
		x="58.5mm"
		y="110mm"
		width="6mm"
		height="3mm"
		id="oomID1586"
	/>
	<rect
		style="fill:none;stroke:#000000;stroke-width:2px " 
		x="58.5mm"
		y="90mm"
		width="6mm"
		height="3mm"
		id="oomID1587"
	/>
	<rect
		style="fill:none;stroke:#000000;stroke-width:2px " 
		x="58.5mm"
		y="70mm"
		width="6mm"
		height="3mm"
		id="oomID1588"
	/>
	<rect
		style="fill:none;stroke:#000000;stroke-width:2px " 
		x="58.5mm"
		y="50mm"
		width="6mm"
		height="3mm"
		id="oomID1589"
	/>
	<rect
		style="fill:none;stroke:#000000;stroke-width:2px " 
		x="58.5mm"
		y="30mm"
		width="6mm"
		height="3mm"
		id="oomID1590"
	/>
	<rect
		style="fill:none;stroke:#000000;stroke-width:2px " 
		x="58.5mm"
		y="10mm"
		width="6mm"
		height="3mm"
		id="oomID1591"
	/>
	<rect
		style="fill:none;stroke:#000000;stroke-width:2px " 
		x="78.5mm"
		y="110mm"
		width="6mm"
		height="3mm"
		id="oomID1592"
	/>
	<rect
		style="fill:none;stroke:#000000;stroke-width:2px " 
		x="78.5mm"
		y="90mm"
		width="6mm"
		height="3mm"
		id="oomID1593"
	/>
	<rect
		style="fill:none;stroke:#000000;stroke-width:2px " 
		x="78.5mm"
		y="70mm"
		width="6mm"
		height="3mm"
		id="oomID1594"
	/>
	<rect
		style="fill:none;stroke:#000000;stroke-width:2px " 
		x="78.5mm"
		y="50mm"
		width="6mm"
		height="3mm"
		id="oomID1595"
	/>
	<rect
		style="fill:none;stroke:#000000;stroke-width:2px " 
		x="78.5mm"
		y="30mm"
		width="6mm"
		height="3mm"
		id="oomID1596"
	/>
	<rect
		style="fill:none;stroke:#000000;stroke-width:2px " 
		x="78.5mm"
		y="10mm"
		width="6mm"
		height="3mm"
		id="oomID1597"
	/>
	<rect
		style="fill:none;stroke:#000000;stroke-width:2px " 
		x="98.5mm"
		y="110mm"
		width="6mm"
		height="3mm"
		id="oomID1598"
	/>
	<rect
		style="fill:none;stroke:#000000;stroke-width:2px " 
		x="98.5mm"
		y="90mm"
		width="6mm"
		height="3mm"
		id="oomID1599"
	/>
	<rect
		style="fill:none;stroke:#000000;stroke-width:2px " 
		x="98.5mm"
		y="70mm"
		width="6mm"
		height="3mm"
		id="oomID1600"
	/>
	<rect
		style="fill:none;stroke:#000000;stroke-width:2px " 
		x="98.5mm"
		y="50mm"
		width="6mm"
		height="3mm"
		id="oomID1601"
	/>
	<rect
		style="fill:none;stroke:#000000;stroke-width:2px " 
		x="98.5mm"
		y="30mm"
		width="6mm"
		height="3mm"
		id="oomID1602"
	/>
	<rect
		style="fill:none;stroke:#000000;stroke-width:2px " 
		x="98.5mm"
		y="10mm"
		width="6mm"
		height="3mm"
		id="oomID1603"
	/>
	<text x="21.5mm" y="101.5mm"
	style="text-anchor: middle; text-align: center; font-family: ENG_HelvLine; -inkscape-font-specification: ENG_HelvLine; font-size: 12pt; fill:none; font-style:normal;font-weight:normal;line-height:100%;letter-spacing:0px;word-spacing:0px;fill-opacity:1;stroke:#FFA500"
	><tspan sodipodi:role="line">PL</tspan><tspan sodipodi:role="line">06-06</tspan></text>
</svg>
