<?xml version="1.0" standalone="no"?>
<!DOCTYPE svg PUBLIC "-//W3C//DTD SVG 1.1//EN" "http://www.w3.org/Graphics/SVG/1.1/DTD/svg11.dtd">
<svg width="57mm" height="57mm" viewBox="9 -66 57 57" xmlns="http://www.w3.org/2000/svg" version="1.1">
<title>OpenSCAD Model</title>
<path d="
M 61,-9.02962 L 61.3139,-9.00986 L 62.5451,-9.24471 L 63.6791,-9.77835 L 64.6448,-10.5773 L 65.3815,-11.5912
 L 65.8429,-12.7565 L 66,-14 L 66,-61 L 65.8429,-62.2434 L 65.3815,-63.4088 L 64.6448,-64.4227
 L 63.6791,-65.2216 L 62.5451,-65.7553 L 61.3139,-65.9901 L 61,-65.9704 L 61,-66 L 14,-66
 L 14,-65.9704 L 13.0631,-65.9114 L 11.8711,-65.5241 L 10.8129,-64.8526 L 9.95491,-63.9389 L 9.3511,-62.8406
 L 9.03941,-61.6267 L 9.03941,-61 L 9,-61 L 9,-14 L 9.03941,-14 L 9.03941,-13.3733
 L 9.3511,-12.1594 L 9.95491,-11.0611 L 10.8129,-10.1474 L 11.8711,-9.47586 L 13.0631,-9.08856 L 14,-9.02962
 L 14,-9 L 61,-9 z
" stroke="black" fill="lightgray" stroke-width="0.5"/>
</svg>
