<?xml version="1.0" standalone="no"?>
<!DOCTYPE svg PUBLIC "-//W3C//DTD SVG 1.1//EN" "http://www.w3.org/Graphics/SVG/1.1/DTD/svg11.dtd">
<svg width="57mm" height="57mm" viewBox="9 -66 57 57" xmlns="http://www.w3.org/2000/svg" version="1.1">
<title>OpenSCAD Model</title>
<path d="
M 61,-9.00986 L 61.3139,-9.00986 L 61.9369,-9.08856 L 62.5451,-9.24471 L 63.1289,-9.47586 L 63.6791,-9.77835
 L 64.1871,-10.1474 L 64.6448,-10.5773 L 65.0451,-11.0611 L 65.3815,-11.5912 L 65.6489,-12.1594 L 65.8429,-12.7565
 L 65.9606,-13.3733 L 66,-14 L 66,-61 L 65.9606,-61.6267 L 65.8429,-62.2434 L 65.6489,-62.8406
 L 65.3815,-63.4088 L 65.0451,-63.9389 L 64.6448,-64.4227 L 64.1871,-64.8526 L 63.6791,-65.2216 L 63.1289,-65.5241
 L 62.5451,-65.7553 L 61.9369,-65.9114 L 61.3139,-65.9901 L 61,-65.9901 L 61,-66 L 14,-66
 L 14,-65.9901 L 13.686,-65.9901 L 13.0631,-65.9114 L 12.4549,-65.7553 L 11.8711,-65.5241 L 11.3209,-65.2216
 L 10.8129,-64.8526 L 10.3551,-64.4227 L 9.95491,-63.9389 L 9.61845,-63.4088 L 9.3511,-62.8406 L 9.15707,-62.2434
 L 9.03941,-61.6267 L 9,-61 L 9,-14 L 9.03941,-13.3733 L 9.15707,-12.7565 L 9.3511,-12.1594
 L 9.61845,-11.5912 L 9.95491,-11.0611 L 10.3551,-10.5773 L 10.8129,-10.1474 L 11.3209,-9.77835 L 11.8711,-9.47586
 L 12.4549,-9.24471 L 13.0631,-9.08856 L 13.686,-9.00986 L 14,-9.00986 L 14,-9 L 61,-9
 z
M 29.8116,-57.0059 L 29.4379,-57.0531 L 29.0729,-57.1468 L 28.7227,-57.2855 L 28.3925,-57.467 L 28.0877,-57.6884
 L 27.8131,-57.9464 L 27.5729,-58.2366 L 27.3711,-58.5547 L 27.2107,-58.8956 L 27.0942,-59.2539 L 27.0237,-59.624
 L 27,-60 L 27.0237,-60.376 L 27.0942,-60.7461 L 27.2107,-61.1044 L 27.3711,-61.4453 L 27.5729,-61.7634
 L 27.8131,-62.0536 L 28.0877,-62.3115 L 28.3925,-62.533 L 28.7227,-62.7145 L 29.0729,-62.8532 L 29.4379,-62.9469
 L 29.8116,-62.9941 L 30.1884,-62.9941 L 30.5621,-62.9469 L 30.927,-62.8532 L 31.2773,-62.7145 L 31.6075,-62.533
 L 31.9123,-62.3115 L 32.1869,-62.0536 L 32.427,-61.7634 L 32.6289,-61.4453 L 32.7893,-61.1044 L 32.9057,-60.7461
 L 32.9763,-60.376 L 33,-60 L 32.9763,-59.624 L 32.9057,-59.2539 L 32.7893,-58.8956 L 32.6289,-58.5547
 L 32.427,-58.2366 L 32.1869,-57.9464 L 31.9123,-57.6884 L 31.6075,-57.467 L 31.2773,-57.2855 L 30.927,-57.1468
 L 30.5621,-57.0531 L 30.1884,-57.0059 z
M 14.8116,-57.0059 L 14.4379,-57.0531 L 14.0729,-57.1468 L 13.7227,-57.2855 L 13.3925,-57.467 L 13.0877,-57.6884
 L 12.8131,-57.9464 L 12.5729,-58.2366 L 12.3711,-58.5547 L 12.2107,-58.8956 L 12.0942,-59.2539 L 12.0237,-59.624
 L 12,-60 L 12.0237,-60.376 L 12.0942,-60.7461 L 12.2107,-61.1044 L 12.3711,-61.4453 L 12.5729,-61.7634
 L 12.8131,-62.0536 L 13.0877,-62.3115 L 13.3925,-62.533 L 13.7227,-62.7145 L 14.0729,-62.8532 L 14.4379,-62.9469
 L 14.8116,-62.9941 L 15.1884,-62.9941 L 15.5621,-62.9469 L 15.927,-62.8532 L 16.2773,-62.7145 L 16.6075,-62.533
 L 16.9123,-62.3115 L 17.1869,-62.0536 L 17.427,-61.7634 L 17.6289,-61.4453 L 17.7893,-61.1044 L 17.9057,-60.7461
 L 17.9763,-60.376 L 18,-60 L 17.9763,-59.624 L 17.9057,-59.2539 L 17.7893,-58.8956 L 17.6289,-58.5547
 L 17.427,-58.2366 L 17.1869,-57.9464 L 16.9123,-57.6884 L 16.6075,-57.467 L 16.2773,-57.2855 L 15.927,-57.1468
 L 15.5621,-57.0531 L 15.1884,-57.0059 z
M 44.8116,-57.0059 L 44.4379,-57.0531 L 44.0729,-57.1468 L 43.7227,-57.2855 L 43.3925,-57.467 L 43.0877,-57.6884
 L 42.8131,-57.9464 L 42.5729,-58.2366 L 42.3711,-58.5547 L 42.2107,-58.8956 L 42.0942,-59.2539 L 42.0237,-59.624
 L 42,-60 L 42.0237,-60.376 L 42.0942,-60.7461 L 42.2107,-61.1044 L 42.3711,-61.4453 L 42.5729,-61.7634
 L 42.8131,-62.0536 L 43.0877,-62.3115 L 43.3925,-62.533 L 43.7227,-62.7145 L 44.0729,-62.8532 L 44.4379,-62.9469
 L 44.8116,-62.9941 L 45.1884,-62.9941 L 45.5621,-62.9469 L 45.927,-62.8532 L 46.2773,-62.7145 L 46.6075,-62.533
 L 46.9123,-62.3115 L 47.1869,-62.0536 L 47.427,-61.7634 L 47.6289,-61.4453 L 47.7893,-61.1044 L 47.9057,-60.7461
 L 47.9763,-60.376 L 48,-60 L 47.9763,-59.624 L 47.9057,-59.2539 L 47.7893,-58.8956 L 47.6289,-58.5547
 L 47.427,-58.2366 L 47.1869,-57.9464 L 46.9123,-57.6884 L 46.6075,-57.467 L 46.2773,-57.2855 L 45.927,-57.1468
 L 45.5621,-57.0531 L 45.1884,-57.0059 z
M 59.8116,-57.0059 L 59.4379,-57.0531 L 59.0729,-57.1468 L 58.7227,-57.2855 L 58.3925,-57.467 L 58.0877,-57.6884
 L 57.8131,-57.9464 L 57.5729,-58.2366 L 57.3711,-58.5547 L 57.2107,-58.8956 L 57.0942,-59.2539 L 57.0237,-59.624
 L 57,-60 L 57.0237,-60.376 L 57.0942,-60.7461 L 57.2107,-61.1044 L 57.3711,-61.4453 L 57.5729,-61.7634
 L 57.8131,-62.0536 L 58.0877,-62.3115 L 58.3925,-62.533 L 58.7227,-62.7145 L 59.0729,-62.8532 L 59.4379,-62.9469
 L 59.8116,-62.9941 L 60.1884,-62.9941 L 60.5621,-62.9469 L 60.927,-62.8532 L 61.2773,-62.7145 L 61.6075,-62.533
 L 61.9123,-62.3115 L 62.1869,-62.0536 L 62.427,-61.7634 L 62.6289,-61.4453 L 62.7893,-61.1044 L 62.9057,-60.7461
 L 62.9763,-60.376 L 63,-60 L 62.9763,-59.624 L 62.9057,-59.2539 L 62.7893,-58.8956 L 62.6289,-58.5547
 L 62.427,-58.2366 L 62.1869,-57.9464 L 61.9123,-57.6884 L 61.6075,-57.467 L 61.2773,-57.2855 L 60.927,-57.1468
 L 60.5621,-57.0531 L 60.1884,-57.0059 z
M 51,-58.5 L 51,-61.5 L 54,-61.5 L 54,-58.5 z
M 36,-58.5 L 36,-61.5 L 39,-61.5 L 39,-58.5 z
M 21,-58.5 L 21,-61.5 L 24,-61.5 L 24,-58.5 z
M 58.5,-51 L 58.5,-54 L 61.5,-54 L 61.5,-51 z
M 13.5,-51 L 13.5,-54 L 16.5,-54 L 16.5,-51 z
M 43.5,-51 L 43.5,-54 L 46.5,-54 L 46.5,-51 z
M 28.5,-51 L 28.5,-54 L 31.5,-54 L 31.5,-51 z
M 44.8116,-42.0059 L 44.4379,-42.0531 L 44.0729,-42.1468 L 43.7227,-42.2855 L 43.3925,-42.467 L 43.0877,-42.6884
 L 42.8131,-42.9464 L 42.5729,-43.2366 L 42.3711,-43.5547 L 42.2107,-43.8956 L 42.0942,-44.2539 L 42.0237,-44.624
 L 42,-45 L 42.0237,-45.376 L 42.0942,-45.7461 L 42.2107,-46.1044 L 42.3711,-46.4453 L 42.5729,-46.7634
 L 42.8131,-47.0536 L 43.0877,-47.3115 L 43.3925,-47.533 L 43.7227,-47.7145 L 44.0729,-47.8532 L 44.4379,-47.9469
 L 44.8116,-47.9941 L 45.1884,-47.9941 L 45.5621,-47.9469 L 45.927,-47.8532 L 46.2773,-47.7145 L 46.6075,-47.533
 L 46.9123,-47.3115 L 47.1869,-47.0536 L 47.427,-46.7634 L 47.6289,-46.4453 L 47.7893,-46.1044 L 47.9057,-45.7461
 L 47.9763,-45.376 L 48,-45 L 47.9763,-44.624 L 47.9057,-44.2539 L 47.7893,-43.8956 L 47.6289,-43.5547
 L 47.427,-43.2366 L 47.1869,-42.9464 L 46.9123,-42.6884 L 46.6075,-42.467 L 46.2773,-42.2855 L 45.927,-42.1468
 L 45.5621,-42.0531 L 45.1884,-42.0059 z
M 29.8116,-42.0059 L 29.4379,-42.0531 L 29.0729,-42.1468 L 28.7227,-42.2855 L 28.3925,-42.467 L 28.0877,-42.6884
 L 27.8131,-42.9464 L 27.5729,-43.2366 L 27.3711,-43.5547 L 27.2107,-43.8956 L 27.0942,-44.2539 L 27.0237,-44.624
 L 27,-45 L 27.0237,-45.376 L 27.0942,-45.7461 L 27.2107,-46.1044 L 27.3711,-46.4453 L 27.5729,-46.7634
 L 27.8131,-47.0536 L 28.0877,-47.3115 L 28.3925,-47.533 L 28.7227,-47.7145 L 29.0729,-47.8532 L 29.4379,-47.9469
 L 29.8116,-47.9941 L 30.1884,-47.9941 L 30.5621,-47.9469 L 30.927,-47.8532 L 31.2773,-47.7145 L 31.6075,-47.533
 L 31.9123,-47.3115 L 32.1869,-47.0536 L 32.427,-46.7634 L 32.6289,-46.4453 L 32.7893,-46.1044 L 32.9057,-45.7461
 L 32.9763,-45.376 L 33,-45 L 32.9763,-44.624 L 32.9057,-44.2539 L 32.7893,-43.8956 L 32.6289,-43.5547
 L 32.427,-43.2366 L 32.1869,-42.9464 L 31.9123,-42.6884 L 31.6075,-42.467 L 31.2773,-42.2855 L 30.927,-42.1468
 L 30.5621,-42.0531 L 30.1884,-42.0059 z
M 14.8116,-42.0059 L 14.4379,-42.0531 L 14.0729,-42.1468 L 13.7227,-42.2855 L 13.3925,-42.467 L 13.0877,-42.6884
 L 12.8131,-42.9464 L 12.5729,-43.2366 L 12.3711,-43.5547 L 12.2107,-43.8956 L 12.0942,-44.2539 L 12.0237,-44.624
 L 12,-45 L 12.0237,-45.376 L 12.0942,-45.7461 L 12.2107,-46.1044 L 12.3711,-46.4453 L 12.5729,-46.7634
 L 12.8131,-47.0536 L 13.0877,-47.3115 L 13.3925,-47.533 L 13.7227,-47.7145 L 14.0729,-47.8532 L 14.4379,-47.9469
 L 14.8116,-47.9941 L 15.1884,-47.9941 L 15.5621,-47.9469 L 15.927,-47.8532 L 16.2773,-47.7145 L 16.6075,-47.533
 L 16.9123,-47.3115 L 17.1869,-47.0536 L 17.427,-46.7634 L 17.6289,-46.4453 L 17.7893,-46.1044 L 17.9057,-45.7461
 L 17.9763,-45.376 L 18,-45 L 17.9763,-44.624 L 17.9057,-44.2539 L 17.7893,-43.8956 L 17.6289,-43.5547
 L 17.427,-43.2366 L 17.1869,-42.9464 L 16.9123,-42.6884 L 16.6075,-42.467 L 16.2773,-42.2855 L 15.927,-42.1468
 L 15.5621,-42.0531 L 15.1884,-42.0059 z
M 59.8116,-42.0059 L 59.4379,-42.0531 L 59.0729,-42.1468 L 58.7227,-42.2855 L 58.3925,-42.467 L 58.0877,-42.6884
 L 57.8131,-42.9464 L 57.5729,-43.2366 L 57.3711,-43.5547 L 57.2107,-43.8956 L 57.0942,-44.2539 L 57.0237,-44.624
 L 57,-45 L 57.0237,-45.376 L 57.0942,-45.7461 L 57.2107,-46.1044 L 57.3711,-46.4453 L 57.5729,-46.7634
 L 57.8131,-47.0536 L 58.0877,-47.3115 L 58.3925,-47.533 L 58.7227,-47.7145 L 59.0729,-47.8532 L 59.4379,-47.9469
 L 59.8116,-47.9941 L 60.1884,-47.9941 L 60.5621,-47.9469 L 60.927,-47.8532 L 61.2773,-47.7145 L 61.6075,-47.533
 L 61.9123,-47.3115 L 62.1869,-47.0536 L 62.427,-46.7634 L 62.6289,-46.4453 L 62.7893,-46.1044 L 62.9057,-45.7461
 L 62.9763,-45.376 L 63,-45 L 62.9763,-44.624 L 62.9057,-44.2539 L 62.7893,-43.8956 L 62.6289,-43.5547
 L 62.427,-43.2366 L 62.1869,-42.9464 L 61.9123,-42.6884 L 61.6075,-42.467 L 61.2773,-42.2855 L 60.927,-42.1468
 L 60.5621,-42.0531 L 60.1884,-42.0059 z
M 51,-43.5 L 51,-46.5 L 54,-46.5 L 54,-43.5 z
M 21,-43.5 L 21,-46.5 L 24,-46.5 L 24,-43.5 z
M 36,-43.5 L 36,-46.5 L 39,-46.5 L 39,-43.5 z
M 28.5,-36 L 28.5,-39 L 31.5,-39 L 31.5,-36 z
M 43.5,-36 L 43.5,-39 L 46.5,-39 L 46.5,-36 z
M 58.5,-36 L 58.5,-39 L 61.5,-39 L 61.5,-36 z
M 13.5,-36 L 13.5,-39 L 16.5,-39 L 16.5,-36 z
M 59.8116,-27.0059 L 59.4379,-27.0531 L 59.0729,-27.1468 L 58.7227,-27.2855 L 58.3925,-27.467 L 58.0877,-27.6884
 L 57.8131,-27.9464 L 57.5729,-28.2366 L 57.3711,-28.5547 L 57.2107,-28.8956 L 57.0942,-29.2539 L 57.0237,-29.624
 L 57,-30 L 57.0237,-30.376 L 57.0942,-30.7461 L 57.2107,-31.1044 L 57.3711,-31.4453 L 57.5729,-31.7634
 L 57.8131,-32.0536 L 58.0877,-32.3115 L 58.3925,-32.533 L 58.7227,-32.7145 L 59.0729,-32.8532 L 59.4379,-32.9469
 L 59.8116,-32.9941 L 60.1884,-32.9941 L 60.5621,-32.9469 L 60.927,-32.8532 L 61.2773,-32.7145 L 61.6075,-32.533
 L 61.9123,-32.3115 L 62.1869,-32.0536 L 62.427,-31.7634 L 62.6289,-31.4453 L 62.7893,-31.1044 L 62.9057,-30.7461
 L 62.9763,-30.376 L 63,-30 L 62.9763,-29.624 L 62.9057,-29.2539 L 62.7893,-28.8956 L 62.6289,-28.5547
 L 62.427,-28.2366 L 62.1869,-27.9464 L 61.9123,-27.6884 L 61.6075,-27.467 L 61.2773,-27.2855 L 60.927,-27.1468
 L 60.5621,-27.0531 L 60.1884,-27.0059 z
M 44.8116,-27.0059 L 44.4379,-27.0531 L 44.0729,-27.1468 L 43.7227,-27.2855 L 43.3925,-27.467 L 43.0877,-27.6884
 L 42.8131,-27.9464 L 42.5729,-28.2366 L 42.3711,-28.5547 L 42.2107,-28.8956 L 42.0942,-29.2539 L 42.0237,-29.624
 L 42,-30 L 42.0237,-30.376 L 42.0942,-30.7461 L 42.2107,-31.1044 L 42.3711,-31.4453 L 42.5729,-31.7634
 L 42.8131,-32.0536 L 43.0877,-32.3115 L 43.3925,-32.533 L 43.7227,-32.7145 L 44.0729,-32.8532 L 44.4379,-32.9469
 L 44.8116,-32.9941 L 45.1884,-32.9941 L 45.5621,-32.9469 L 45.927,-32.8532 L 46.2773,-32.7145 L 46.6075,-32.533
 L 46.9123,-32.3115 L 47.1869,-32.0536 L 47.427,-31.7634 L 47.6289,-31.4453 L 47.7893,-31.1044 L 47.9057,-30.7461
 L 47.9763,-30.376 L 48,-30 L 47.9763,-29.624 L 47.9057,-29.2539 L 47.7893,-28.8956 L 47.6289,-28.5547
 L 47.427,-28.2366 L 47.1869,-27.9464 L 46.9123,-27.6884 L 46.6075,-27.467 L 46.2773,-27.2855 L 45.927,-27.1468
 L 45.5621,-27.0531 L 45.1884,-27.0059 z
M 29.8116,-27.0059 L 29.4379,-27.0531 L 29.0729,-27.1468 L 28.7227,-27.2855 L 28.3925,-27.467 L 28.0877,-27.6884
 L 27.8131,-27.9464 L 27.5729,-28.2366 L 27.3711,-28.5547 L 27.2107,-28.8956 L 27.0942,-29.2539 L 27.0237,-29.624
 L 27,-30 L 27.0237,-30.376 L 27.0942,-30.7461 L 27.2107,-31.1044 L 27.3711,-31.4453 L 27.5729,-31.7634
 L 27.8131,-32.0536 L 28.0877,-32.3115 L 28.3925,-32.533 L 28.7227,-32.7145 L 29.0729,-32.8532 L 29.4379,-32.9469
 L 29.8116,-32.9941 L 30.1884,-32.9941 L 30.5621,-32.9469 L 30.927,-32.8532 L 31.2773,-32.7145 L 31.6075,-32.533
 L 31.9123,-32.3115 L 32.1869,-32.0536 L 32.427,-31.7634 L 32.6289,-31.4453 L 32.7893,-31.1044 L 32.9057,-30.7461
 L 32.9763,-30.376 L 33,-30 L 32.9763,-29.624 L 32.9057,-29.2539 L 32.7893,-28.8956 L 32.6289,-28.5547
 L 32.427,-28.2366 L 32.1869,-27.9464 L 31.9123,-27.6884 L 31.6075,-27.467 L 31.2773,-27.2855 L 30.927,-27.1468
 L 30.5621,-27.0531 L 30.1884,-27.0059 z
M 14.8116,-27.0059 L 14.4379,-27.0531 L 14.0729,-27.1468 L 13.7227,-27.2855 L 13.3925,-27.467 L 13.0877,-27.6884
 L 12.8131,-27.9464 L 12.5729,-28.2366 L 12.3711,-28.5547 L 12.2107,-28.8956 L 12.0942,-29.2539 L 12.0237,-29.624
 L 12,-30 L 12.0237,-30.376 L 12.0942,-30.7461 L 12.2107,-31.1044 L 12.3711,-31.4453 L 12.5729,-31.7634
 L 12.8131,-32.0536 L 13.0877,-32.3115 L 13.3925,-32.533 L 13.7227,-32.7145 L 14.0729,-32.8532 L 14.4379,-32.9469
 L 14.8116,-32.9941 L 15.1884,-32.9941 L 15.5621,-32.9469 L 15.927,-32.8532 L 16.2773,-32.7145 L 16.6075,-32.533
 L 16.9123,-32.3115 L 17.1869,-32.0536 L 17.427,-31.7634 L 17.6289,-31.4453 L 17.7893,-31.1044 L 17.9057,-30.7461
 L 17.9763,-30.376 L 18,-30 L 17.9763,-29.624 L 17.9057,-29.2539 L 17.7893,-28.8956 L 17.6289,-28.5547
 L 17.427,-28.2366 L 17.1869,-27.9464 L 16.9123,-27.6884 L 16.6075,-27.467 L 16.2773,-27.2855 L 15.927,-27.1468
 L 15.5621,-27.0531 L 15.1884,-27.0059 z
M 51,-28.5 L 51,-31.5 L 54,-31.5 L 54,-28.5 z
M 36,-28.5 L 36,-31.5 L 39,-31.5 L 39,-28.5 z
M 21,-28.5 L 21,-31.5 L 24,-31.5 L 24,-28.5 z
M 43.5,-21 L 43.5,-24 L 46.5,-24 L 46.5,-21 z
M 58.5,-21 L 58.5,-24 L 61.5,-24 L 61.5,-21 z
M 28.5,-21 L 28.5,-24 L 31.5,-24 L 31.5,-21 z
M 13.5,-21 L 13.5,-24 L 16.5,-24 L 16.5,-21 z
M 14.8116,-12.0059 L 14.4379,-12.0531 L 14.0729,-12.1468 L 13.7227,-12.2855 L 13.3925,-12.467 L 13.0877,-12.6884
 L 12.8131,-12.9464 L 12.5729,-13.2366 L 12.3711,-13.5547 L 12.2107,-13.8956 L 12.0942,-14.2539 L 12.0237,-14.624
 L 12,-15 L 12.0237,-15.376 L 12.0942,-15.7461 L 12.2107,-16.1044 L 12.3711,-16.4453 L 12.5729,-16.7634
 L 12.8131,-17.0536 L 13.0877,-17.3115 L 13.3925,-17.533 L 13.7227,-17.7145 L 14.0729,-17.8532 L 14.4379,-17.9469
 L 14.8116,-17.9941 L 15.1884,-17.9941 L 15.5621,-17.9469 L 15.927,-17.8532 L 16.2773,-17.7145 L 16.6075,-17.533
 L 16.9123,-17.3115 L 17.1869,-17.0536 L 17.427,-16.7634 L 17.6289,-16.4453 L 17.7893,-16.1044 L 17.9057,-15.7461
 L 17.9763,-15.376 L 18,-15 L 17.9763,-14.624 L 17.9057,-14.2539 L 17.7893,-13.8956 L 17.6289,-13.5547
 L 17.427,-13.2366 L 17.1869,-12.9464 L 16.9123,-12.6884 L 16.6075,-12.467 L 16.2773,-12.2855 L 15.927,-12.1468
 L 15.5621,-12.0531 L 15.1884,-12.0059 z
M 29.8116,-12.0059 L 29.4379,-12.0531 L 29.0729,-12.1468 L 28.7227,-12.2855 L 28.3925,-12.467 L 28.0877,-12.6884
 L 27.8131,-12.9464 L 27.5729,-13.2366 L 27.3711,-13.5547 L 27.2107,-13.8956 L 27.0942,-14.2539 L 27.0237,-14.624
 L 27,-15 L 27.0237,-15.376 L 27.0942,-15.7461 L 27.2107,-16.1044 L 27.3711,-16.4453 L 27.5729,-16.7634
 L 27.8131,-17.0536 L 28.0877,-17.3115 L 28.3925,-17.533 L 28.7227,-17.7145 L 29.0729,-17.8532 L 29.4379,-17.9469
 L 29.8116,-17.9941 L 30.1884,-17.9941 L 30.5621,-17.9469 L 30.927,-17.8532 L 31.2773,-17.7145 L 31.6075,-17.533
 L 31.9123,-17.3115 L 32.1869,-17.0536 L 32.427,-16.7634 L 32.6289,-16.4453 L 32.7893,-16.1044 L 32.9057,-15.7461
 L 32.9763,-15.376 L 33,-15 L 32.9763,-14.624 L 32.9057,-14.2539 L 32.7893,-13.8956 L 32.6289,-13.5547
 L 32.427,-13.2366 L 32.1869,-12.9464 L 31.9123,-12.6884 L 31.6075,-12.467 L 31.2773,-12.2855 L 30.927,-12.1468
 L 30.5621,-12.0531 L 30.1884,-12.0059 z
M 44.8116,-12.0059 L 44.4379,-12.0531 L 44.0729,-12.1468 L 43.7227,-12.2855 L 43.3925,-12.467 L 43.0877,-12.6884
 L 42.8131,-12.9464 L 42.5729,-13.2366 L 42.3711,-13.5547 L 42.2107,-13.8956 L 42.0942,-14.2539 L 42.0237,-14.624
 L 42,-15 L 42.0237,-15.376 L 42.0942,-15.7461 L 42.2107,-16.1044 L 42.3711,-16.4453 L 42.5729,-16.7634
 L 42.8131,-17.0536 L 43.0877,-17.3115 L 43.3925,-17.533 L 43.7227,-17.7145 L 44.0729,-17.8532 L 44.4379,-17.9469
 L 44.8116,-17.9941 L 45.1884,-17.9941 L 45.5621,-17.9469 L 45.927,-17.8532 L 46.2773,-17.7145 L 46.6075,-17.533
 L 46.9123,-17.3115 L 47.1869,-17.0536 L 47.427,-16.7634 L 47.6289,-16.4453 L 47.7893,-16.1044 L 47.9057,-15.7461
 L 47.9763,-15.376 L 48,-15 L 47.9763,-14.624 L 47.9057,-14.2539 L 47.7893,-13.8956 L 47.6289,-13.5547
 L 47.427,-13.2366 L 47.1869,-12.9464 L 46.9123,-12.6884 L 46.6075,-12.467 L 46.2773,-12.2855 L 45.927,-12.1468
 L 45.5621,-12.0531 L 45.1884,-12.0059 z
M 59.8116,-12.0059 L 59.4379,-12.0531 L 59.0729,-12.1468 L 58.7227,-12.2855 L 58.3925,-12.467 L 58.0877,-12.6884
 L 57.8131,-12.9464 L 57.5729,-13.2366 L 57.3711,-13.5547 L 57.2107,-13.8956 L 57.0942,-14.2539 L 57.0237,-14.624
 L 57,-15 L 57.0237,-15.376 L 57.0942,-15.7461 L 57.2107,-16.1044 L 57.3711,-16.4453 L 57.5729,-16.7634
 L 57.8131,-17.0536 L 58.0877,-17.3115 L 58.3925,-17.533 L 58.7227,-17.7145 L 59.0729,-17.8532 L 59.4379,-17.9469
 L 59.8116,-17.9941 L 60.1884,-17.9941 L 60.5621,-17.9469 L 60.927,-17.8532 L 61.2773,-17.7145 L 61.6075,-17.533
 L 61.9123,-17.3115 L 62.1869,-17.0536 L 62.427,-16.7634 L 62.6289,-16.4453 L 62.7893,-16.1044 L 62.9057,-15.7461
 L 62.9763,-15.376 L 63,-15 L 62.9763,-14.624 L 62.9057,-14.2539 L 62.7893,-13.8956 L 62.6289,-13.5547
 L 62.427,-13.2366 L 62.1869,-12.9464 L 61.9123,-12.6884 L 61.6075,-12.467 L 61.2773,-12.2855 L 60.927,-12.1468
 L 60.5621,-12.0531 L 60.1884,-12.0059 z
M 51,-13.5 L 51,-16.5 L 54,-16.5 L 54,-13.5 z
M 21,-13.5 L 21,-16.5 L 24,-16.5 L 24,-13.5 z
M 36,-13.5 L 36,-16.5 L 39,-16.5 L 39,-13.5 z
" stroke="black" fill="lightgray" stroke-width="0.5"/>
</svg>
