<?xml version="1.0" standalone="no"?>
<!DOCTYPE svg PUBLIC "-//W3C//DTD SVG 1.1//EN" "http://www.w3.org/Graphics/SVG/1.1/DTD/svg11.dtd">
<svg width="58mm" height="58mm" viewBox="-29 -29 58 58" xmlns="http://www.w3.org/2000/svg" version="1.1">
<title>OpenSCAD Model</title>
<path d="
M 24.1576,28.4622 L 24.7991,28.3346 L 25.4184,28.1244 L 26.005,27.8351 L 26.5488,27.4718 L 27.0405,27.0405
 L 27.4718,26.5488 L 27.8351,26.005 L 28.1244,25.4184 L 28.3346,24.7991 L 28.4622,24.1576 L 28.505,23.505
 L 28.505,-23.505 L 28.4622,-24.1576 L 28.3346,-24.7991 L 28.1244,-25.4184 L 27.8351,-26.005 L 27.4718,-26.5488
 L 27.0405,-27.0405 L 26.5488,-27.4718 L 26.005,-27.8351 L 25.4184,-28.1244 L 24.7991,-28.3346 L 24.1576,-28.4622
 L 23.505,-28.505 L -23.505,-28.505 L -24.1576,-28.4622 L -24.7991,-28.3346 L -25.4184,-28.1244 L -26.005,-27.8351
 L -26.5488,-27.4718 L -27.0405,-27.0405 L -27.4718,-26.5488 L -27.8351,-26.005 L -28.1244,-25.4184 L -28.3346,-24.7991
 L -28.4622,-24.1576 L -28.505,-23.505 L -28.505,23.505 L -28.4622,24.1576 L -28.3346,24.7991 L -28.1244,25.4184
 L -27.8351,26.005 L -27.4718,26.5488 L -27.0405,27.0405 L -26.5488,27.4718 L -26.005,27.8351 L -25.4184,28.1244
 L -24.7991,28.3346 L -24.1576,28.4622 L -23.505,28.505 L 23.505,28.505 z
M 22.1084,-19.5257 L 21.7235,-19.6022 L 21.3519,-19.7283 L 21,-19.9019 L 20.6737,-20.1199 L 20.3787,-20.3787
 L 20.1199,-20.6737 L 19.9019,-21 L 19.7283,-21.3519 L 19.6022,-21.7235 L 19.5257,-22.1084 L 19.5,-22.5
 L 19.5257,-22.8916 L 19.6022,-23.2764 L 19.7283,-23.648 L 19.9019,-24 L 20.1199,-24.3263 L 20.3787,-24.6213
 L 20.6737,-24.8801 L 21,-25.0981 L 21.3519,-25.2716 L 21.7235,-25.3978 L 22.1084,-25.4743 L 22.5,-25.5
 L 22.8916,-25.4743 L 23.2764,-25.3978 L 23.648,-25.2716 L 24,-25.0981 L 24.3263,-24.8801 L 24.6213,-24.6213
 L 24.8801,-24.3263 L 25.0981,-24 L 25.2716,-23.648 L 25.3978,-23.2764 L 25.4743,-22.8916 L 25.5,-22.5
 L 25.4743,-22.1084 L 25.3978,-21.7235 L 25.2716,-21.3519 L 25.0981,-21 L 24.8801,-20.6737 L 24.6213,-20.3787
 L 24.3263,-20.1199 L 24,-19.9019 L 23.648,-19.7283 L 23.2764,-19.6022 L 22.8916,-19.5257 L 22.5,-19.5
 z
M 7.10841,-19.5257 L 6.72354,-19.6022 L 6.35194,-19.7283 L 6,-19.9019 L 5.67371,-20.1199 L 5.37868,-20.3787
 L 5.11993,-20.6737 L 4.90192,-21 L 4.72835,-21.3519 L 4.60222,-21.7235 L 4.52567,-22.1084 L 4.5,-22.5
 L 4.52567,-22.8916 L 4.60222,-23.2764 L 4.72835,-23.648 L 4.90192,-24 L 5.11993,-24.3263 L 5.37868,-24.6213
 L 5.67371,-24.8801 L 6,-25.0981 L 6.35194,-25.2716 L 6.72354,-25.3978 L 7.10841,-25.4743 L 7.5,-25.5
 L 7.89157,-25.4743 L 8.27644,-25.3978 L 8.64804,-25.2716 L 9,-25.0981 L 9.32628,-24.8801 L 9.62131,-24.6213
 L 9.88005,-24.3263 L 10.0981,-24 L 10.2716,-23.648 L 10.3978,-23.2764 L 10.4743,-22.8916 L 10.5,-22.5
 L 10.4743,-22.1084 L 10.3978,-21.7235 L 10.2716,-21.3519 L 10.0981,-21 L 9.88005,-20.6737 L 9.62131,-20.3787
 L 9.32628,-20.1199 L 9,-19.9019 L 8.64804,-19.7283 L 8.27644,-19.6022 L 7.89157,-19.5257 L 7.5,-19.5
 z
M -7.89157,-19.5257 L -8.27644,-19.6022 L -8.64804,-19.7283 L -9,-19.9019 L -9.32628,-20.1199 L -9.62131,-20.3787
 L -9.88005,-20.6737 L -10.0981,-21 L -10.2716,-21.3519 L -10.3978,-21.7235 L -10.4743,-22.1084 L -10.5,-22.5
 L -10.4743,-22.8916 L -10.3978,-23.2764 L -10.2716,-23.648 L -10.0981,-24 L -9.88005,-24.3263 L -9.62131,-24.6213
 L -9.32628,-24.8801 L -9,-25.0981 L -8.64804,-25.2716 L -8.27644,-25.3978 L -7.89157,-25.4743 L -7.5,-25.5
 L -7.10841,-25.4743 L -6.72354,-25.3978 L -6.35194,-25.2716 L -6,-25.0981 L -5.67371,-24.8801 L -5.37868,-24.6213
 L -5.11993,-24.3263 L -4.90192,-24 L -4.72835,-23.648 L -4.60222,-23.2764 L -4.52567,-22.8916 L -4.5,-22.5
 L -4.52567,-22.1084 L -4.60222,-21.7235 L -4.72835,-21.3519 L -4.90192,-21 L -5.11993,-20.6737 L -5.37868,-20.3787
 L -5.67371,-20.1199 L -6,-19.9019 L -6.35194,-19.7283 L -6.72354,-19.6022 L -7.10841,-19.5257 L -7.5,-19.5
 z
M -22.8916,-19.5257 L -23.2764,-19.6022 L -23.648,-19.7283 L -24,-19.9019 L -24.3263,-20.1199 L -24.6213,-20.3787
 L -24.8801,-20.6737 L -25.0981,-21 L -25.2716,-21.3519 L -25.3978,-21.7235 L -25.4743,-22.1084 L -25.5,-22.5
 L -25.4743,-22.8916 L -25.3978,-23.2764 L -25.2716,-23.648 L -25.0981,-24 L -24.8801,-24.3263 L -24.6213,-24.6213
 L -24.3263,-24.8801 L -24,-25.0981 L -23.648,-25.2716 L -23.2764,-25.3978 L -22.8916,-25.4743 L -22.5,-25.5
 L -22.1084,-25.4743 L -21.7235,-25.3978 L -21.3519,-25.2716 L -21,-25.0981 L -20.6737,-24.8801 L -20.3787,-24.6213
 L -20.1199,-24.3263 L -19.9019,-24 L -19.7283,-23.648 L -19.6022,-23.2764 L -19.5257,-22.8916 L -19.5,-22.5
 L -19.5257,-22.1084 L -19.6022,-21.7235 L -19.7283,-21.3519 L -19.9019,-21 L -20.1199,-20.6737 L -20.3787,-20.3787
 L -20.6737,-20.1199 L -21,-19.9019 L -21.3519,-19.7283 L -21.7235,-19.6022 L -22.1084,-19.5257 L -22.5,-19.5
 z
M -22.8916,-4.52567 L -23.2764,-4.60222 L -23.648,-4.72835 L -24,-4.90192 L -24.3263,-5.11993 L -24.6213,-5.37868
 L -24.8801,-5.67371 L -25.0981,-6 L -25.2716,-6.35194 L -25.3978,-6.72354 L -25.4743,-7.10841 L -25.5,-7.5
 L -25.4743,-7.89157 L -25.3978,-8.27644 L -25.2716,-8.64804 L -25.0981,-9 L -24.8801,-9.32628 L -24.6213,-9.62131
 L -24.3263,-9.88005 L -24,-10.0981 L -23.648,-10.2716 L -23.2764,-10.3978 L -22.8916,-10.4743 L -22.5,-10.5
 L -22.1084,-10.4743 L -21.7235,-10.3978 L -21.3519,-10.2716 L -21,-10.0981 L -20.6737,-9.88005 L -20.3787,-9.62131
 L -20.1199,-9.32628 L -19.9019,-9 L -19.7283,-8.64804 L -19.6022,-8.27644 L -19.5257,-7.89157 L -19.5,-7.5
 L -19.5257,-7.10841 L -19.6022,-6.72354 L -19.7283,-6.35194 L -19.9019,-6 L -20.1199,-5.67371 L -20.3787,-5.37868
 L -20.6737,-5.11993 L -21,-4.90192 L -21.3519,-4.72835 L -21.7235,-4.60222 L -22.1084,-4.52567 L -22.5,-4.5
 z
M 7.10841,-4.52567 L 6.72354,-4.60222 L 6.35194,-4.72835 L 6,-4.90192 L 5.67371,-5.11993 L 5.37868,-5.37868
 L 5.11993,-5.67371 L 4.90192,-6 L 4.72835,-6.35194 L 4.60222,-6.72354 L 4.52567,-7.10841 L 4.5,-7.5
 L 4.52567,-7.89157 L 4.60222,-8.27644 L 4.72835,-8.64804 L 4.90192,-9 L 5.11993,-9.32628 L 5.37868,-9.62131
 L 5.67371,-9.88005 L 6,-10.0981 L 6.35194,-10.2716 L 6.72354,-10.3978 L 7.10841,-10.4743 L 7.5,-10.5
 L 7.89157,-10.4743 L 8.27644,-10.3978 L 8.64804,-10.2716 L 9,-10.0981 L 9.32628,-9.88005 L 9.62131,-9.62131
 L 9.88005,-9.32628 L 10.0981,-9 L 10.2716,-8.64804 L 10.3978,-8.27644 L 10.4743,-7.89157 L 10.5,-7.5
 L 10.4743,-7.10841 L 10.3978,-6.72354 L 10.2716,-6.35194 L 10.0981,-6 L 9.88005,-5.67371 L 9.62131,-5.37868
 L 9.32628,-5.11993 L 9,-4.90192 L 8.64804,-4.72835 L 8.27644,-4.60222 L 7.89157,-4.52567 L 7.5,-4.5
 z
M 22.1084,-4.52567 L 21.7235,-4.60222 L 21.3519,-4.72835 L 21,-4.90192 L 20.6737,-5.11993 L 20.3787,-5.37868
 L 20.1199,-5.67371 L 19.9019,-6 L 19.7283,-6.35194 L 19.6022,-6.72354 L 19.5257,-7.10841 L 19.5,-7.5
 L 19.5257,-7.89157 L 19.6022,-8.27644 L 19.7283,-8.64804 L 19.9019,-9 L 20.1199,-9.32628 L 20.3787,-9.62131
 L 20.6737,-9.88005 L 21,-10.0981 L 21.3519,-10.2716 L 21.7235,-10.3978 L 22.1084,-10.4743 L 22.5,-10.5
 L 22.8916,-10.4743 L 23.2764,-10.3978 L 23.648,-10.2716 L 24,-10.0981 L 24.3263,-9.88005 L 24.6213,-9.62131
 L 24.8801,-9.32628 L 25.0981,-9 L 25.2716,-8.64804 L 25.3978,-8.27644 L 25.4743,-7.89157 L 25.5,-7.5
 L 25.4743,-7.10841 L 25.3978,-6.72354 L 25.2716,-6.35194 L 25.0981,-6 L 24.8801,-5.67371 L 24.6213,-5.37868
 L 24.3263,-5.11993 L 24,-4.90192 L 23.648,-4.72835 L 23.2764,-4.60222 L 22.8916,-4.52567 L 22.5,-4.5
 z
M -7.89157,-4.52567 L -8.27644,-4.60222 L -8.64804,-4.72835 L -9,-4.90192 L -9.32628,-5.11993 L -9.62131,-5.37868
 L -9.88005,-5.67371 L -10.0981,-6 L -10.2716,-6.35194 L -10.3978,-6.72354 L -10.4743,-7.10841 L -10.5,-7.5
 L -10.4743,-7.89157 L -10.3978,-8.27644 L -10.2716,-8.64804 L -10.0981,-9 L -9.88005,-9.32628 L -9.62131,-9.62131
 L -9.32628,-9.88005 L -9,-10.0981 L -8.64804,-10.2716 L -8.27644,-10.3978 L -7.89157,-10.4743 L -7.5,-10.5
 L -7.10841,-10.4743 L -6.72354,-10.3978 L -6.35194,-10.2716 L -6,-10.0981 L -5.67371,-9.88005 L -5.37868,-9.62131
 L -5.11993,-9.32628 L -4.90192,-9 L -4.72835,-8.64804 L -4.60222,-8.27644 L -4.52567,-7.89157 L -4.5,-7.5
 L -4.52567,-7.10841 L -4.60222,-6.72354 L -4.72835,-6.35194 L -4.90192,-6 L -5.11993,-5.67371 L -5.37868,-5.37868
 L -5.67371,-5.11993 L -6,-4.90192 L -6.35194,-4.72835 L -6.72354,-4.60222 L -7.10841,-4.52567 L -7.5,-4.5
 z
M -22.8916,10.4743 L -23.2764,10.3978 L -23.648,10.2716 L -24,10.0981 L -24.3263,9.88005 L -24.6213,9.62131
 L -24.8801,9.32628 L -25.0981,9 L -25.2716,8.64804 L -25.3978,8.27644 L -25.4743,7.89157 L -25.5,7.5
 L -25.4743,7.10841 L -25.3978,6.72354 L -25.2716,6.35194 L -25.0981,6 L -24.8801,5.67371 L -24.6213,5.37868
 L -24.3263,5.11993 L -24,4.90192 L -23.648,4.72835 L -23.2764,4.60222 L -22.8916,4.52567 L -22.5,4.5
 L -22.1084,4.52567 L -21.7235,4.60222 L -21.3519,4.72835 L -21,4.90192 L -20.6737,5.11993 L -20.3787,5.37868
 L -20.1199,5.67371 L -19.9019,6 L -19.7283,6.35194 L -19.6022,6.72354 L -19.5257,7.10841 L -19.5,7.5
 L -19.5257,7.89157 L -19.6022,8.27644 L -19.7283,8.64804 L -19.9019,9 L -20.1199,9.32628 L -20.3787,9.62131
 L -20.6737,9.88005 L -21,10.0981 L -21.3519,10.2716 L -21.7235,10.3978 L -22.1084,10.4743 L -22.5,10.5
 z
M -7.89157,10.4743 L -8.27644,10.3978 L -8.64804,10.2716 L -9,10.0981 L -9.32628,9.88005 L -9.62131,9.62131
 L -9.88005,9.32628 L -10.0981,9 L -10.2716,8.64804 L -10.3978,8.27644 L -10.4743,7.89157 L -10.5,7.5
 L -10.4743,7.10841 L -10.3978,6.72354 L -10.2716,6.35194 L -10.0981,6 L -9.88005,5.67371 L -9.62131,5.37868
 L -9.32628,5.11993 L -9,4.90192 L -8.64804,4.72835 L -8.27644,4.60222 L -7.89157,4.52567 L -7.5,4.5
 L -7.10841,4.52567 L -6.72354,4.60222 L -6.35194,4.72835 L -6,4.90192 L -5.67371,5.11993 L -5.37868,5.37868
 L -5.11993,5.67371 L -4.90192,6 L -4.72835,6.35194 L -4.60222,6.72354 L -4.52567,7.10841 L -4.5,7.5
 L -4.52567,7.89157 L -4.60222,8.27644 L -4.72835,8.64804 L -4.90192,9 L -5.11993,9.32628 L -5.37868,9.62131
 L -5.67371,9.88005 L -6,10.0981 L -6.35194,10.2716 L -6.72354,10.3978 L -7.10841,10.4743 L -7.5,10.5
 z
M 21,4.90192 L 21.3519,4.72835 L 21.7235,4.60222 L 22.1084,4.52567 L 22.5,4.5 L 22.8916,4.52567
 L 23.2764,4.60222 L 23.648,4.72835 L 24,4.90192 L 24.3263,5.11993 L 24.6213,5.37868 L 24.8801,5.67371
 L 25.0981,6 L 25.2716,6.35194 L 25.3978,6.72354 L 25.4743,7.10841 L 25.5,7.5 L 25.4743,7.89157
 L 25.3978,8.27644 L 25.2716,8.64804 L 25.0981,9 L 24.8801,9.32628 L 24.6213,9.62131 L 24.3263,9.88005
 L 24,10.0981 L 23.648,10.2716 L 23.2764,10.3978 L 22.8916,10.4743 L 22.5,10.5 L 22.1084,10.4743
 L 21.7235,10.3978 L 21.3519,10.2716 L 21,10.0981 L 20.6737,9.88005 L 20.3787,9.62131 L 20.1199,9.32628
 L 19.9019,9 L 19.7283,8.64804 L 19.6022,8.27644 L 19.5257,7.89157 L 19.5,7.5 L 19.5257,7.10841
 L 19.6022,6.72354 L 19.7283,6.35194 L 19.9019,6 L 20.1199,5.67371 L 20.3787,5.37868 L 20.6737,5.11993
 z
M -22.8916,25.4743 L -23.2764,25.3978 L -23.648,25.2716 L -24,25.0981 L -24.3263,24.8801 L -24.6213,24.6213
 L -24.8801,24.3263 L -25.0981,24 L -25.2716,23.648 L -25.3978,23.2764 L -25.4743,22.8916 L -25.5,22.5
 L -25.4743,22.1084 L -25.3978,21.7235 L -25.2716,21.3519 L -25.0981,21 L -24.8801,20.6737 L -24.6213,20.3787
 L -24.3263,20.1199 L -24,19.9019 L -23.648,19.7283 L -23.2764,19.6022 L -22.8916,19.5257 L -22.5,19.5
 L -22.1084,19.5257 L -21.7235,19.6022 L -21.3519,19.7283 L -21,19.9019 L -20.6737,20.1199 L -20.3787,20.3787
 L -20.1199,20.6737 L -19.9019,21 L -19.7283,21.3519 L -19.6022,21.7235 L -19.5257,22.1084 L -19.5,22.5
 L -19.5257,22.8916 L -19.6022,23.2764 L -19.7283,23.648 L -19.9019,24 L -20.1199,24.3263 L -20.3787,24.6213
 L -20.6737,24.8801 L -21,25.0981 L -21.3519,25.2716 L -21.7235,25.3978 L -22.1084,25.4743 L -22.5,25.5
 z
M -7.89157,25.4743 L -8.27644,25.3978 L -8.64804,25.2716 L -9,25.0981 L -9.32628,24.8801 L -9.62131,24.6213
 L -9.88005,24.3263 L -10.0981,24 L -10.2716,23.648 L -10.3978,23.2764 L -10.4743,22.8916 L -10.5,22.5
 L -10.4743,22.1084 L -10.3978,21.7235 L -10.2716,21.3519 L -10.0981,21 L -9.88005,20.6737 L -9.62131,20.3787
 L -9.32628,20.1199 L -9,19.9019 L -8.64804,19.7283 L -8.27644,19.6022 L -7.89157,19.5257 L -7.5,19.5
 L -7.10841,19.5257 L -6.72354,19.6022 L -6.35194,19.7283 L -6,19.9019 L -5.67371,20.1199 L -5.37868,20.3787
 L -5.11993,20.6737 L -4.90192,21 L -4.72835,21.3519 L -4.60222,21.7235 L -4.52567,22.1084 L -4.5,22.5
 L -4.52567,22.8916 L -4.60222,23.2764 L -4.72835,23.648 L -4.90192,24 L -5.11993,24.3263 L -5.37868,24.6213
 L -5.67371,24.8801 L -6,25.0981 L -6.35194,25.2716 L -6.72354,25.3978 L -7.10841,25.4743 L -7.5,25.5
 z
M 7.10841,25.4743 L 6.72354,25.3978 L 6.35194,25.2716 L 6,25.0981 L 5.67371,24.8801 L 5.37868,24.6213
 L 5.11993,24.3263 L 4.90192,24 L 4.72835,23.648 L 4.60222,23.2764 L 4.52567,22.8916 L 4.5,22.5
 L 4.52567,22.1084 L 4.60222,21.7235 L 4.72835,21.3519 L 4.90192,21 L 5.11993,20.6737 L 5.37868,20.3787
 L 5.67371,20.1199 L 6,19.9019 L 6.35194,19.7283 L 6.72354,19.6022 L 7.10841,19.5257 L 7.5,19.5
 L 7.89157,19.5257 L 8.27644,19.6022 L 8.64804,19.7283 L 9,19.9019 L 9.32628,20.1199 L 9.62131,20.3787
 L 9.88005,20.6737 L 10.0981,21 L 10.2716,21.3519 L 10.3978,21.7235 L 10.4743,22.1084 L 10.5,22.5
 L 10.4743,22.8916 L 10.3978,23.2764 L 10.2716,23.648 L 10.0981,24 L 9.88005,24.3263 L 9.62131,24.6213
 L 9.32628,24.8801 L 9,25.0981 L 8.64804,25.2716 L 8.27644,25.3978 L 7.89157,25.4743 L 7.5,25.5
 z
M 22.1084,25.4743 L 21.7235,25.3978 L 21.3519,25.2716 L 21,25.0981 L 20.6737,24.8801 L 20.3787,24.6213
 L 20.1199,24.3263 L 19.9019,24 L 19.7283,23.648 L 19.6022,23.2764 L 19.5257,22.8916 L 19.5,22.5
 L 19.5257,22.1084 L 19.6022,21.7235 L 19.7283,21.3519 L 19.9019,21 L 20.1199,20.6737 L 20.3787,20.3787
 L 20.6737,20.1199 L 21,19.9019 L 21.3519,19.7283 L 21.7235,19.6022 L 22.1084,19.5257 L 22.5,19.5
 L 22.8916,19.5257 L 23.2764,19.6022 L 23.648,19.7283 L 24,19.9019 L 24.3263,20.1199 L 24.6213,20.3787
 L 24.8801,20.6737 L 25.0981,21 L 25.2716,21.3519 L 25.3978,21.7235 L 25.4743,22.1084 L 25.5,22.5
 L 25.4743,22.8916 L 25.3978,23.2764 L 25.2716,23.648 L 25.0981,24 L 24.8801,24.3263 L 24.6213,24.6213
 L 24.3263,24.8801 L 24,25.0981 L 23.648,25.2716 L 23.2764,25.3978 L 22.8916,25.4743 L 22.5,25.5
 z
M 10.0981,6 L 10.2716,6.35194 L 10.3978,6.72354 L 10.4743,7.10841 L 10.5,7.5 L 10.4743,7.89157
 L 10.3978,8.27644 L 10.2716,8.64804 L 10.0981,9 L 9.88005,9.32628 L 9.62131,9.62131 L 9.32628,9.88005
 L 9,10.0981 L 8.64804,10.2716 L 8.27644,10.3978 L 7.89157,10.4743 L 7.5,10.5 L 7.10841,10.4743
 L 6.72354,10.3978 L 6.35194,10.2716 L 6,10.0981 L 5.67371,9.88005 L 5.37868,9.62131 L 5.11993,9.32628
 L 4.90192,9 L 4.72835,8.64804 L 4.60222,8.27644 L 4.52567,7.89157 L 4.5,7.5 L 4.52567,7.10841
 L 4.60222,6.72354 L 4.72835,6.35194 L 4.90192,6 L 5.11993,5.67371 L 5.37868,5.37868 L 5.67371,5.11993
 L 6,4.90192 L 6.35194,4.72835 L 6.72354,4.60222 L 7.10841,4.52567 L 7.5,4.5 L 7.89157,4.52567
 L 8.27644,4.60222 L 8.64804,4.72835 L 9,4.90192 L 9.32628,5.11993 L 9.62131,5.37868 L 9.88005,5.67371
 z
" stroke="black" fill="lightgray" stroke-width="0.5"/>
</svg>
