<?xml version="1.0" standalone="no"?>
<!DOCTYPE svg PUBLIC "-//W3C//DTD SVG 1.1//EN" "http://www.w3.org/Graphics/SVG/1.1/DTD/svg11.dtd">
<svg width="58mm" height="58mm" viewBox="-29 -29 58 58" xmlns="http://www.w3.org/2000/svg" version="1.1">
<title>OpenSCAD Model</title>
<path d="
M 24.1576,28.4622 L 24.7991,28.3346 L 25.4184,28.1244 L 26.005,27.8351 L 26.5488,27.4718 L 27.0405,27.0405
 L 27.4718,26.5488 L 27.8351,26.005 L 28.1244,25.4184 L 28.3346,24.7991 L 28.4622,24.1576 L 28.505,23.505
 L 28.505,-23.505 L 28.4622,-24.1576 L 28.3346,-24.7991 L 28.1244,-25.4184 L 27.8351,-26.005 L 27.4718,-26.5488
 L 27.0405,-27.0405 L 26.5488,-27.4718 L 26.005,-27.8351 L 25.4184,-28.1244 L 24.7991,-28.3346 L 24.1576,-28.4622
 L 23.505,-28.505 L -23.505,-28.505 L -24.1576,-28.4622 L -24.7991,-28.3346 L -25.4184,-28.1244 L -26.005,-27.8351
 L -26.5488,-27.4718 L -27.0405,-27.0405 L -27.4718,-26.5488 L -27.8351,-26.005 L -28.1244,-25.4184 L -28.3346,-24.7991
 L -28.4622,-24.1576 L -28.505,-23.505 L -28.505,23.505 L -28.4622,24.1576 L -28.3346,24.7991 L -28.1244,25.4184
 L -27.8351,26.005 L -27.4718,26.5488 L -27.0405,27.0405 L -26.5488,27.4718 L -26.005,27.8351 L -25.4184,28.1244
 L -24.7991,28.3346 L -24.1576,28.4622 L -23.505,28.505 L 23.505,28.505 z
M -22.9242,-19.2778 L -23.3412,-19.3607 L -23.7437,-19.4974 L -24.125,-19.6854 L -24.4785,-19.9216 L -24.7981,-20.2019
 L -25.0784,-20.5215 L -25.3146,-20.875 L -25.5026,-21.2563 L -25.6393,-21.6588 L -25.7222,-22.0758 L -25.75,-22.5
 L -25.7222,-22.9242 L -25.6393,-23.3412 L -25.5026,-23.7437 L -25.3146,-24.125 L -25.0784,-24.4785 L -24.7981,-24.7981
 L -24.4785,-25.0784 L -24.125,-25.3146 L -23.7437,-25.5026 L -23.3412,-25.6393 L -22.9242,-25.7222 L -22.5,-25.75
 L -22.0758,-25.7222 L -21.6588,-25.6393 L -21.2563,-25.5026 L -20.875,-25.3146 L -20.5215,-25.0784 L -20.2019,-24.7981
 L -19.9216,-24.4785 L -19.6854,-24.125 L -19.4974,-23.7437 L -19.3607,-23.3412 L -19.2778,-22.9242 L -19.25,-22.5
 L -19.2778,-22.0758 L -19.3607,-21.6588 L -19.4974,-21.2563 L -19.6854,-20.875 L -19.9216,-20.5215 L -20.2019,-20.2019
 L -20.5215,-19.9216 L -20.875,-19.6854 L -21.2563,-19.4974 L -21.6588,-19.3607 L -22.0758,-19.2778 L -22.5,-19.25
 z
M 7.07578,-19.2778 L 6.65883,-19.3607 L 6.25627,-19.4974 L 5.875,-19.6854 L 5.52151,-19.9216 L 5.20189,-20.2019
 L 4.9216,-20.5215 L 4.68541,-20.875 L 4.49739,-21.2563 L 4.36073,-21.6588 L 4.2778,-22.0758 L 4.25,-22.5
 L 4.2778,-22.9242 L 4.36073,-23.3412 L 4.49739,-23.7437 L 4.68541,-24.125 L 4.9216,-24.4785 L 5.20189,-24.7981
 L 5.52151,-25.0784 L 5.875,-25.3146 L 6.25627,-25.5026 L 6.65883,-25.6393 L 7.07578,-25.7222 L 7.5,-25.75
 L 7.92421,-25.7222 L 8.34116,-25.6393 L 8.74371,-25.5026 L 9.125,-25.3146 L 9.47847,-25.0784 L 9.7981,-24.7981
 L 10.0784,-24.4785 L 10.3146,-24.125 L 10.5026,-23.7437 L 10.6393,-23.3412 L 10.7222,-22.9242 L 10.75,-22.5
 L 10.7222,-22.0758 L 10.6393,-21.6588 L 10.5026,-21.2563 L 10.3146,-20.875 L 10.0784,-20.5215 L 9.7981,-20.2019
 L 9.47847,-19.9216 L 9.125,-19.6854 L 8.74371,-19.4974 L 8.34116,-19.3607 L 7.92421,-19.2778 L 7.5,-19.25
 z
M 22.0758,-19.2778 L 21.6588,-19.3607 L 21.2563,-19.4974 L 20.875,-19.6854 L 20.5215,-19.9216 L 20.2019,-20.2019
 L 19.9216,-20.5215 L 19.6854,-20.875 L 19.4974,-21.2563 L 19.3607,-21.6588 L 19.2778,-22.0758 L 19.25,-22.5
 L 19.2778,-22.9242 L 19.3607,-23.3412 L 19.4974,-23.7437 L 19.6854,-24.125 L 19.9216,-24.4785 L 20.2019,-24.7981
 L 20.5215,-25.0784 L 20.875,-25.3146 L 21.2563,-25.5026 L 21.6588,-25.6393 L 22.0758,-25.7222 L 22.5,-25.75
 L 22.9242,-25.7222 L 23.3412,-25.6393 L 23.7437,-25.5026 L 24.125,-25.3146 L 24.4785,-25.0784 L 24.7981,-24.7981
 L 25.0784,-24.4785 L 25.3146,-24.125 L 25.5026,-23.7437 L 25.6393,-23.3412 L 25.7222,-22.9242 L 25.75,-22.5
 L 25.7222,-22.0758 L 25.6393,-21.6588 L 25.5026,-21.2563 L 25.3146,-20.875 L 25.0784,-20.5215 L 24.7981,-20.2019
 L 24.4785,-19.9216 L 24.125,-19.6854 L 23.7437,-19.4974 L 23.3412,-19.3607 L 22.9242,-19.2778 L 22.5,-19.25
 z
M -7.92421,-19.2778 L -8.34116,-19.3607 L -8.74371,-19.4974 L -9.125,-19.6854 L -9.47847,-19.9216 L -9.7981,-20.2019
 L -10.0784,-20.5215 L -10.3146,-20.875 L -10.5026,-21.2563 L -10.6393,-21.6588 L -10.7222,-22.0758 L -10.75,-22.5
 L -10.7222,-22.9242 L -10.6393,-23.3412 L -10.5026,-23.7437 L -10.3146,-24.125 L -10.0784,-24.4785 L -9.7981,-24.7981
 L -9.47847,-25.0784 L -9.125,-25.3146 L -8.74371,-25.5026 L -8.34116,-25.6393 L -7.92421,-25.7222 L -7.5,-25.75
 L -7.07578,-25.7222 L -6.65883,-25.6393 L -6.25627,-25.5026 L -5.875,-25.3146 L -5.52151,-25.0784 L -5.20189,-24.7981
 L -4.9216,-24.4785 L -4.68541,-24.125 L -4.49739,-23.7437 L -4.36073,-23.3412 L -4.2778,-22.9242 L -4.25,-22.5
 L -4.2778,-22.0758 L -4.36073,-21.6588 L -4.49739,-21.2563 L -4.68541,-20.875 L -4.9216,-20.5215 L -5.20189,-20.2019
 L -5.52151,-19.9216 L -5.875,-19.6854 L -6.25627,-19.4974 L -6.65883,-19.3607 L -7.07578,-19.2778 L -7.5,-19.25
 z
M 20.875,-10.3146 L 21.2563,-10.5026 L 21.6588,-10.6393 L 22.0758,-10.7222 L 22.5,-10.75 L 22.9242,-10.7222
 L 23.3412,-10.6393 L 23.7437,-10.5026 L 24.125,-10.3146 L 24.4785,-10.0784 L 24.7981,-9.7981 L 25.0784,-9.47847
 L 25.3146,-9.125 L 25.5026,-8.74371 L 25.6393,-8.34116 L 25.7222,-7.92421 L 25.75,-7.5 L 25.7222,-7.07578
 L 25.6393,-6.65883 L 25.5026,-6.25627 L 25.3146,-5.875 L 25.0784,-5.52151 L 24.7981,-5.20189 L 24.4785,-4.9216
 L 24.125,-4.68541 L 23.7437,-4.49739 L 23.3412,-4.36073 L 22.9242,-4.2778 L 22.5,-4.25 L 22.0758,-4.2778
 L 21.6588,-4.36073 L 21.2563,-4.49739 L 20.875,-4.68541 L 20.5215,-4.9216 L 20.2019,-5.20189 L 19.9216,-5.52151
 L 19.6854,-5.875 L 19.4974,-6.25627 L 19.3607,-6.65883 L 19.2778,-7.07578 L 19.25,-7.5 L 19.2778,-7.92421
 L 19.3607,-8.34116 L 19.4974,-8.74371 L 19.6854,-9.125 L 19.9216,-9.47847 L 20.2019,-9.7981 L 20.5215,-10.0784
 z
M -22.9242,-4.2778 L -23.3412,-4.36073 L -23.7437,-4.49739 L -24.125,-4.68541 L -24.4785,-4.9216 L -24.7981,-5.20189
 L -25.0784,-5.52151 L -25.3146,-5.875 L -25.5026,-6.25627 L -25.6393,-6.65883 L -25.7222,-7.07578 L -25.75,-7.5
 L -25.7222,-7.92421 L -25.6393,-8.34116 L -25.5026,-8.74371 L -25.3146,-9.125 L -25.0784,-9.47847 L -24.7981,-9.7981
 L -24.4785,-10.0784 L -24.125,-10.3146 L -23.7437,-10.5026 L -23.3412,-10.6393 L -22.9242,-10.7222 L -22.5,-10.75
 L -22.0758,-10.7222 L -21.6588,-10.6393 L -21.2563,-10.5026 L -20.875,-10.3146 L -20.5215,-10.0784 L -20.2019,-9.7981
 L -19.9216,-9.47847 L -19.6854,-9.125 L -19.4974,-8.74371 L -19.3607,-8.34116 L -19.2778,-7.92421 L -19.25,-7.5
 L -19.2778,-7.07578 L -19.3607,-6.65883 L -19.4974,-6.25627 L -19.6854,-5.875 L -19.9216,-5.52151 L -20.2019,-5.20189
 L -20.5215,-4.9216 L -20.875,-4.68541 L -21.2563,-4.49739 L -21.6588,-4.36073 L -22.0758,-4.2778 L -22.5,-4.25
 z
M -7.92421,-4.2778 L -8.34116,-4.36073 L -8.74371,-4.49739 L -9.125,-4.68541 L -9.47847,-4.9216 L -9.7981,-5.20189
 L -10.0784,-5.52151 L -10.3146,-5.875 L -10.5026,-6.25627 L -10.6393,-6.65883 L -10.7222,-7.07578 L -10.75,-7.5
 L -10.7222,-7.92421 L -10.6393,-8.34116 L -10.5026,-8.74371 L -10.3146,-9.125 L -10.0784,-9.47847 L -9.7981,-9.7981
 L -9.47847,-10.0784 L -9.125,-10.3146 L -8.74371,-10.5026 L -8.34116,-10.6393 L -7.92421,-10.7222 L -7.5,-10.75
 L -7.07578,-10.7222 L -6.65883,-10.6393 L -6.25627,-10.5026 L -5.875,-10.3146 L -5.52151,-10.0784 L -5.20189,-9.7981
 L -4.9216,-9.47847 L -4.68541,-9.125 L -4.49739,-8.74371 L -4.36073,-8.34116 L -4.2778,-7.92421 L -4.25,-7.5
 L -4.2778,-7.07578 L -4.36073,-6.65883 L -4.49739,-6.25627 L -4.68541,-5.875 L -4.9216,-5.52151 L -5.20189,-5.20189
 L -5.52151,-4.9216 L -5.875,-4.68541 L -6.25627,-4.49739 L -6.65883,-4.36073 L -7.07578,-4.2778 L -7.5,-4.25
 z
M -22.9242,10.7222 L -23.3412,10.6393 L -23.7437,10.5026 L -24.125,10.3146 L -24.4785,10.0784 L -24.7981,9.7981
 L -25.0784,9.47847 L -25.3146,9.125 L -25.5026,8.74371 L -25.6393,8.34116 L -25.7222,7.92421 L -25.75,7.5
 L -25.7222,7.07578 L -25.6393,6.65883 L -25.5026,6.25627 L -25.3146,5.875 L -25.0784,5.52151 L -24.7981,5.20189
 L -24.4785,4.9216 L -24.125,4.68541 L -23.7437,4.49739 L -23.3412,4.36073 L -22.9242,4.2778 L -22.5,4.25
 L -22.0758,4.2778 L -21.6588,4.36073 L -21.2563,4.49739 L -20.875,4.68541 L -20.5215,4.9216 L -20.2019,5.20189
 L -19.9216,5.52151 L -19.6854,5.875 L -19.4974,6.25627 L -19.3607,6.65883 L -19.2778,7.07578 L -19.25,7.5
 L -19.2778,7.92421 L -19.3607,8.34116 L -19.4974,8.74371 L -19.6854,9.125 L -19.9216,9.47847 L -20.2019,9.7981
 L -20.5215,10.0784 L -20.875,10.3146 L -21.2563,10.5026 L -21.6588,10.6393 L -22.0758,10.7222 L -22.5,10.75
 z
M -7.92421,10.7222 L -8.34116,10.6393 L -8.74371,10.5026 L -9.125,10.3146 L -9.47847,10.0784 L -9.7981,9.7981
 L -10.0784,9.47847 L -10.3146,9.125 L -10.5026,8.74371 L -10.6393,8.34116 L -10.7222,7.92421 L -10.75,7.5
 L -10.7222,7.07578 L -10.6393,6.65883 L -10.5026,6.25627 L -10.3146,5.875 L -10.0784,5.52151 L -9.7981,5.20189
 L -9.47847,4.9216 L -9.125,4.68541 L -8.74371,4.49739 L -8.34116,4.36073 L -7.92421,4.2778 L -7.5,4.25
 L -7.07578,4.2778 L -6.65883,4.36073 L -6.25627,4.49739 L -5.875,4.68541 L -5.52151,4.9216 L -5.20189,5.20189
 L -4.9216,5.52151 L -4.68541,5.875 L -4.49739,6.25627 L -4.36073,6.65883 L -4.2778,7.07578 L -4.25,7.5
 L -4.2778,7.92421 L -4.36073,8.34116 L -4.49739,8.74371 L -4.68541,9.125 L -4.9216,9.47847 L -5.20189,9.7981
 L -5.52151,10.0784 L -5.875,10.3146 L -6.25627,10.5026 L -6.65883,10.6393 L -7.07578,10.7222 L -7.5,10.75
 z
M 20.875,4.68541 L 21.2563,4.49739 L 21.6588,4.36073 L 22.0758,4.2778 L 22.5,4.25 L 22.9242,4.2778
 L 23.3412,4.36073 L 23.7437,4.49739 L 24.125,4.68541 L 24.4785,4.9216 L 24.7981,5.20189 L 25.0784,5.52151
 L 25.3146,5.875 L 25.5026,6.25627 L 25.6393,6.65883 L 25.7222,7.07578 L 25.75,7.5 L 25.7222,7.92421
 L 25.6393,8.34116 L 25.5026,8.74371 L 25.3146,9.125 L 25.0784,9.47847 L 24.7981,9.7981 L 24.4785,10.0784
 L 24.125,10.3146 L 23.7437,10.5026 L 23.3412,10.6393 L 22.9242,10.7222 L 22.5,10.75 L 22.0758,10.7222
 L 21.6588,10.6393 L 21.2563,10.5026 L 20.875,10.3146 L 20.5215,10.0784 L 20.2019,9.7981 L 19.9216,9.47847
 L 19.6854,9.125 L 19.4974,8.74371 L 19.3607,8.34116 L 19.2778,7.92421 L 19.25,7.5 L 19.2778,7.07578
 L 19.3607,6.65883 L 19.4974,6.25627 L 19.6854,5.875 L 19.9216,5.52151 L 20.2019,5.20189 L 20.5215,4.9216
 z
M -22.9242,25.7222 L -23.3412,25.6393 L -23.7437,25.5026 L -24.125,25.3146 L -24.4785,25.0784 L -24.7981,24.7981
 L -25.0784,24.4785 L -25.3146,24.125 L -25.5026,23.7437 L -25.6393,23.3412 L -25.7222,22.9242 L -25.75,22.5
 L -25.7222,22.0758 L -25.6393,21.6588 L -25.5026,21.2563 L -25.3146,20.875 L -25.0784,20.5215 L -24.7981,20.2019
 L -24.4785,19.9216 L -24.125,19.6854 L -23.7437,19.4974 L -23.3412,19.3607 L -22.9242,19.2778 L -22.5,19.25
 L -22.0758,19.2778 L -21.6588,19.3607 L -21.2563,19.4974 L -20.875,19.6854 L -20.5215,19.9216 L -20.2019,20.2019
 L -19.9216,20.5215 L -19.6854,20.875 L -19.4974,21.2563 L -19.3607,21.6588 L -19.2778,22.0758 L -19.25,22.5
 L -19.2778,22.9242 L -19.3607,23.3412 L -19.4974,23.7437 L -19.6854,24.125 L -19.9216,24.4785 L -20.2019,24.7981
 L -20.5215,25.0784 L -20.875,25.3146 L -21.2563,25.5026 L -21.6588,25.6393 L -22.0758,25.7222 L -22.5,25.75
 z
M -7.92421,25.7222 L -8.34116,25.6393 L -8.74371,25.5026 L -9.125,25.3146 L -9.47847,25.0784 L -9.7981,24.7981
 L -10.0784,24.4785 L -10.3146,24.125 L -10.5026,23.7437 L -10.6393,23.3412 L -10.7222,22.9242 L -10.75,22.5
 L -10.7222,22.0758 L -10.6393,21.6588 L -10.5026,21.2563 L -10.3146,20.875 L -10.0784,20.5215 L -9.7981,20.2019
 L -9.47847,19.9216 L -9.125,19.6854 L -8.74371,19.4974 L -8.34116,19.3607 L -7.92421,19.2778 L -7.5,19.25
 L -7.07578,19.2778 L -6.65883,19.3607 L -6.25627,19.4974 L -5.875,19.6854 L -5.52151,19.9216 L -5.20189,20.2019
 L -4.9216,20.5215 L -4.68541,20.875 L -4.49739,21.2563 L -4.36073,21.6588 L -4.2778,22.0758 L -4.25,22.5
 L -4.2778,22.9242 L -4.36073,23.3412 L -4.49739,23.7437 L -4.68541,24.125 L -4.9216,24.4785 L -5.20189,24.7981
 L -5.52151,25.0784 L -5.875,25.3146 L -6.25627,25.5026 L -6.65883,25.6393 L -7.07578,25.7222 L -7.5,25.75
 z
M 7.07578,25.7222 L 6.65883,25.6393 L 6.25627,25.5026 L 5.875,25.3146 L 5.52151,25.0784 L 5.20189,24.7981
 L 4.9216,24.4785 L 4.68541,24.125 L 4.49739,23.7437 L 4.36073,23.3412 L 4.2778,22.9242 L 4.25,22.5
 L 4.2778,22.0758 L 4.36073,21.6588 L 4.49739,21.2563 L 4.68541,20.875 L 4.9216,20.5215 L 5.20189,20.2019
 L 5.52151,19.9216 L 5.875,19.6854 L 6.25627,19.4974 L 6.65883,19.3607 L 7.07578,19.2778 L 7.5,19.25
 L 7.92421,19.2778 L 8.34116,19.3607 L 8.74371,19.4974 L 9.125,19.6854 L 9.47847,19.9216 L 9.7981,20.2019
 L 10.0784,20.5215 L 10.3146,20.875 L 10.5026,21.2563 L 10.6393,21.6588 L 10.7222,22.0758 L 10.75,22.5
 L 10.7222,22.9242 L 10.6393,23.3412 L 10.5026,23.7437 L 10.3146,24.125 L 10.0784,24.4785 L 9.7981,24.7981
 L 9.47847,25.0784 L 9.125,25.3146 L 8.74371,25.5026 L 8.34116,25.6393 L 7.92421,25.7222 L 7.5,25.75
 z
M 22.0758,25.7222 L 21.6588,25.6393 L 21.2563,25.5026 L 20.875,25.3146 L 20.5215,25.0784 L 20.2019,24.7981
 L 19.9216,24.4785 L 19.6854,24.125 L 19.4974,23.7437 L 19.3607,23.3412 L 19.2778,22.9242 L 19.25,22.5
 L 19.2778,22.0758 L 19.3607,21.6588 L 19.4974,21.2563 L 19.6854,20.875 L 19.9216,20.5215 L 20.2019,20.2019
 L 20.5215,19.9216 L 20.875,19.6854 L 21.2563,19.4974 L 21.6588,19.3607 L 22.0758,19.2778 L 22.5,19.25
 L 22.9242,19.2778 L 23.3412,19.3607 L 23.7437,19.4974 L 24.125,19.6854 L 24.4785,19.9216 L 24.7981,20.2019
 L 25.0784,20.5215 L 25.3146,20.875 L 25.5026,21.2563 L 25.6393,21.6588 L 25.7222,22.0758 L 25.75,22.5
 L 25.7222,22.9242 L 25.6393,23.3412 L 25.5026,23.7437 L 25.3146,24.125 L 25.0784,24.4785 L 24.7981,24.7981
 L 24.4785,25.0784 L 24.125,25.3146 L 23.7437,25.5026 L 23.3412,25.6393 L 22.9242,25.7222 L 22.5,25.75
 z
M 10.3146,-9.125 L 10.5026,-8.74371 L 10.6393,-8.34116 L 10.7222,-7.92421 L 10.75,-7.5 L 10.7222,-7.07578
 L 10.6393,-6.65883 L 10.5026,-6.25627 L 10.3146,-5.875 L 10.0784,-5.52151 L 9.7981,-5.20189 L 9.47847,-4.9216
 L 9.125,-4.68541 L 8.74371,-4.49739 L 8.34116,-4.36073 L 7.92421,-4.2778 L 7.5,-4.25 L 7.07578,-4.2778
 L 6.65883,-4.36073 L 6.25627,-4.49739 L 5.875,-4.68541 L 5.52151,-4.9216 L 5.20189,-5.20189 L 4.9216,-5.52151
 L 4.68541,-5.875 L 4.49739,-6.25627 L 4.36073,-6.65883 L 4.2778,-7.07578 L 4.25,-7.5 L 4.2778,-7.92421
 L 4.36073,-8.34116 L 4.49739,-8.74371 L 4.68541,-9.125 L 4.9216,-9.47847 L 5.20189,-9.7981 L 5.52151,-10.0784
 L 5.875,-10.3146 L 6.25627,-10.5026 L 6.65883,-10.6393 L 7.07578,-10.7222 L 7.5,-10.75 L 7.92421,-10.7222
 L 8.34116,-10.6393 L 8.74371,-10.5026 L 9.125,-10.3146 L 9.47847,-10.0784 L 9.7981,-9.7981 L 10.0784,-9.47847
 z
M 10.3146,5.875 L 10.5026,6.25627 L 10.6393,6.65883 L 10.7222,7.07578 L 10.75,7.5 L 10.7222,7.92421
 L 10.6393,8.34116 L 10.5026,8.74371 L 10.3146,9.125 L 10.0784,9.47847 L 9.7981,9.7981 L 9.47847,10.0784
 L 9.125,10.3146 L 8.74371,10.5026 L 8.34116,10.6393 L 7.92421,10.7222 L 7.5,10.75 L 7.07578,10.7222
 L 6.65883,10.6393 L 6.25627,10.5026 L 5.875,10.3146 L 5.52151,10.0784 L 5.20189,9.7981 L 4.9216,9.47847
 L 4.68541,9.125 L 4.49739,8.74371 L 4.36073,8.34116 L 4.2778,7.92421 L 4.25,7.5 L 4.2778,7.07578
 L 4.36073,6.65883 L 4.49739,6.25627 L 4.68541,5.875 L 4.9216,5.52151 L 5.20189,5.20189 L 5.52151,4.9216
 L 5.875,4.68541 L 6.25627,4.49739 L 6.65883,4.36073 L 7.07578,4.2778 L 7.5,4.25 L 7.92421,4.2778
 L 8.34116,4.36073 L 8.74371,4.49739 L 9.125,4.68541 L 9.47847,4.9216 L 9.7981,5.20189 L 10.0784,5.52151
 z
" stroke="black" fill="lightgray" stroke-width="0.5"/>
</svg>
