<?xml version="1.0" encoding="UTF-8"?>
<!DOCTYPE svg PUBLIC "-//W3C//DTD SVG 1.1//EN" "http://www.w3.org/Graphics/SVG/1.1/DTD/svg11.dtd">
<!-- Creator: CorelDRAW -->
<svg xmlns="http://www.w3.org/2000/svg" xml:space="preserve" width="210mm" height="297mm" style="shape-rendering:geometricPrecision; text-rendering:geometricPrecision; image-rendering:optimizeQuality; fill-rule:evenodd; clip-rule:evenodd"
viewBox="0 0 210 297"
 xmlns:xlink="http://www.w3.org/1999/xlink">
 <defs>
  <style type="text/css">
   <![CDATA[
    .str2 {stroke:#1F1A17;stroke-width:0.5292}
    .str1 {stroke:#1F1A17;stroke-width:0.5292;stroke-linecap:round;stroke-linejoin:round}
    .str0 {stroke:black;stroke-width:0.5292;stroke-linecap:round;stroke-linejoin:round}
    .fil0 {fill:none}
   ]]>
  </style>
 </defs>
 <g id="Layer_x0020_1">
  <metadata id="CorelCorpID_0Corel-Layer"/>
  <path class="fil0 str0" d="M-243 295.5l0.4015 0c0.2635,-0.4553 0.6432,-0.835 1.0985,-1.0985l0 -0.4015 1.5 0 1.5 0 0 0.4015c0.4553,0.2635 0.835,0.6432 1.0985,1.0985l0.4015 0 0 1.5 0 1.5 -0.4015 0c-0.2635,0.4553 -0.6432,0.835 -1.0985,1.0985l0 0.4015 -1.5 0 -1.5 0 0 -0.4015c-0.4553,-0.2635 -0.835,-0.6432 -1.0985,-1.0985l-0.4015 0 0 -1.5 0 -1.5z"/>
  <path class="fil0 str0" d="M-223 295.5l0.4015 0c0.2635,-0.4553 0.6432,-0.835 1.0985,-1.0985l0 -0.4015 1.5 0 1.5 0 0 0.4015c0.4553,0.2635 0.835,0.6432 1.0985,1.0985l0.4015 0 0 1.5 0 1.5 -0.4015 0c-0.2635,0.4553 -0.6432,0.835 -1.0985,1.0985l0 0.4015 -1.5 0 -1.5 0 0 -0.4015c-0.4553,-0.2635 -0.835,-0.6432 -1.0985,-1.0985l-0.4015 0 0 -1.5 0 -1.5z"/>
  <path class="fil0 str0" d="M-203 295.5l0.4015 0c0.2635,-0.4553 0.6432,-0.835 1.0985,-1.0985l0 -0.4015 1.5 0 1.5 0 0 0.4015c0.4553,0.2635 0.835,0.6432 1.0985,1.0985l0.4015 0 0 1.5 0 1.5 -0.4015 0c-0.2635,0.4553 -0.6432,0.835 -1.0985,1.0985l0 0.4015 -1.5 0 -1.5 0 0 -0.4015c-0.4553,-0.2635 -0.835,-0.6432 -1.0985,-1.0985l-0.4015 0 0 -1.5 0 -1.5z"/>
  <path class="fil0 str0" d="M-183 295.5l0.4015 0c0.2635,-0.4553 0.6432,-0.835 1.0985,-1.0985l0 -0.4015 1.5 0 1.5 0 0 0.4015c0.4553,0.2635 0.835,0.6432 1.0985,1.0985l0.4015 0 0 1.5 0 1.5 -0.4015 0c-0.2635,0.4553 -0.6432,0.835 -1.0985,1.0985l0 0.4015 -1.5 0 -1.5 0 0 -0.4015c-0.4553,-0.2635 -0.835,-0.6432 -1.0985,-1.0985l-0.4015 0 0 -1.5 0 -1.5z"/>
  <path class="fil0 str0" d="M-163 295.5l0.4015 0c0.2635,-0.4553 0.6432,-0.835 1.0985,-1.0985l0 -0.4015 1.5 0 1.5 0 0 0.4015c0.4553,0.2635 0.835,0.6432 1.0985,1.0985l0.4015 0 0 1.5 0 1.5 -0.4015 0c-0.2635,0.4553 -0.6432,0.835 -1.0985,1.0985l0 0.4015 -1.5 0 -1.5 0 0 -0.4015c-0.4553,-0.2635 -0.835,-0.6432 -1.0985,-1.0985l-0.4015 0 0 -1.5 0 -1.5z"/>
  <path class="fil0 str0" d="M-143 295.5l0.4015 0c0.2635,-0.4553 0.6432,-0.835 1.0985,-1.0985l0 -0.4015 1.5 0 1.5 0 0 0.4015c0.4553,0.2635 0.835,0.6432 1.0985,1.0985l0.4015 0 0 1.5 0 1.5 -0.4015 0c-0.2635,0.4553 -0.6432,0.835 -1.0985,1.0985l0 0.4015 -1.5 0 -1.5 0 0 -0.4015c-0.4553,-0.2635 -0.835,-0.6432 -1.0985,-1.0985l-0.4015 0 0 -1.5 0 -1.5z"/>
  <path class="fil0 str0" d="M-123 295.5l0.4015 0c0.2635,-0.4553 0.6432,-0.835 1.0985,-1.0985l0 -0.4015 1.5 0 1.5 0 0 0.4015c0.4553,0.2635 0.835,0.6432 1.0985,1.0985l0.4015 0 0 1.5 0 1.5 -0.4015 0c-0.2635,0.4553 -0.6432,0.835 -1.0985,1.0985l0 0.4015 -1.5 0 -1.5 0 0 -0.4015c-0.4553,-0.2635 -0.835,-0.6432 -1.0985,-1.0985l-0.4015 0 0 -1.5 0 -1.5z"/>
  <path class="fil0 str0" d="M-103 295.5l0.4015 0c0.2635,-0.4553 0.6432,-0.835 1.0985,-1.0985l0 -0.4015 1.5 0 1.5 0 0 0.4015c0.4553,0.2635 0.835,0.6432 1.0985,1.0985l0.4015 0 0 1.5 0 1.5 -0.4015 0c-0.2635,0.4553 -0.6432,0.835 -1.0985,1.0985l0 0.4015 -1.5 0 -1.5 0 0 -0.4015c-0.4553,-0.2635 -0.835,-0.6432 -1.0985,-1.0985l-0.4015 0 0 -1.5 0 -1.5z"/>
  <path class="fil0 str0" d="M-83 295.5l0.4015 0c0.2635,-0.4553 0.6432,-0.835 1.0985,-1.0985l0 -0.4015 1.5 0 1.5 0 0 0.4015c0.4553,0.2635 0.835,0.6432 1.0985,1.0985l0.4015 0 0 1.5 0 1.5 -0.4015 0c-0.2635,0.4553 -0.6432,0.835 -1.0985,1.0985l0 0.4015 -1.5 0 -1.5 0 0 -0.4015c-0.4553,-0.2635 -0.835,-0.6432 -1.0985,-1.0985l-0.4015 0 0 -1.5 0 -1.5z"/>
  <path class="fil0 str0" d="M-63 295.5l0.4015 0c0.2635,-0.4553 0.6432,-0.835 1.0985,-1.0985l0 -0.4015 1.5 0 1.5 0 0 0.4015c0.4553,0.2635 0.835,0.6432 1.0985,1.0985l0.4015 0 0 1.5 0 1.5 -0.4015 0c-0.2635,0.4553 -0.6432,0.835 -1.0985,1.0985l0 0.4015 -1.5 0 -1.5 0 0 -0.4015c-0.4553,-0.2635 -0.835,-0.6432 -1.0985,-1.0985l-0.4015 0 0 -1.5 0 -1.5z"/>
  <path class="fil0 str0" d="M-43 295.5l0.4015 0c0.2635,-0.4553 0.6432,-0.835 1.0985,-1.0985l0 -0.4015 1.5 0 1.5 0 0 0.4015c0.4553,0.2635 0.835,0.6432 1.0985,1.0985l0.4015 0 0 1.5 0 1.5 -0.4015 0c-0.2635,0.4553 -0.6432,0.835 -1.0985,1.0985l0 0.4015 -1.5 0 -1.5 0 0 -0.4015c-0.4553,-0.2635 -0.835,-0.6432 -1.0985,-1.0985l-0.4015 0 0 -1.5 0 -1.5z"/>
  <path class="fil0 str0" d="M-23 295.5l0.4015 0c0.2635,-0.4553 0.6432,-0.835 1.0985,-1.0985l0 -0.4015 1.5 0 1.5 0 0 0.4015c0.4553,0.2635 0.835,0.6432 1.0985,1.0985l0.4015 0 0 1.5 0 1.5 -0.4015 0c-0.2635,0.4553 -0.6432,0.835 -1.0985,1.0985l0 0.4015 -1.5 0 -1.5 0 0 -0.4015c-0.4553,-0.2635 -0.835,-0.6432 -1.0985,-1.0985l-0.4015 0 0 -1.5 0 -1.5z"/>
  <path class="fil0 str0" d="M-3 295.5l0.4015 0c0.2635,-0.4553 0.6432,-0.835 1.0985,-1.0985l0 -0.4015 1.5 0 1.5 0 0 0.4015c0.4553,0.2635 0.835,0.6432 1.0985,1.0985l0.4015 0 0 1.5 0 1.5 -0.4015 0c-0.2635,0.4553 -0.6432,0.835 -1.0985,1.0985l0 0.4015 -1.5 0 -1.5 0 0 -0.4015c-0.4553,-0.2635 -0.835,-0.6432 -1.0985,-1.0985l-0.4015 0 0 -1.5 0 -1.5z"/>
  <path class="fil0 str0" d="M17 295.5l0.4015 0c0.2635,-0.4553 0.6432,-0.835 1.0985,-1.0985l0 -0.4015 1.5 0 1.5 0 0 0.4015c0.4553,0.2635 0.835,0.6432 1.0985,1.0985l0.4015 0 0 1.5 0 1.5 -0.4015 0c-0.2635,0.4553 -0.6432,0.835 -1.0985,1.0985l0 0.4015 -1.5 0 -1.5 0 0 -0.4015c-0.4553,-0.2635 -0.835,-0.6432 -1.0985,-1.0985l-0.4015 0 0 -1.5 0 -1.5z"/>
  <path class="fil0 str0" d="M37 295.5l0.4015 0c0.2635,-0.4553 0.6432,-0.835 1.0985,-1.0985l0 -0.4015 1.5 0 1.5 0 0 0.4015c0.4553,0.2635 0.835,0.6432 1.0985,1.0985l0.4015 0 0 1.5 0 1.5 -0.4015 0c-0.2635,0.4553 -0.6432,0.835 -1.0985,1.0985l0 0.4015 -1.5 0 -1.5 0 0 -0.4015c-0.4553,-0.2635 -0.835,-0.6432 -1.0985,-1.0985l-0.4015 0 0 -1.5 0 -1.5z"/>
  <path class="fil0 str0" d="M57 295.5l0.4015 0c0.2635,-0.4553 0.6432,-0.835 1.0985,-1.0985l0 -0.4015 1.5 0 1.5 0 0 0.4015c0.4553,0.2635 0.835,0.6432 1.0985,1.0985l0.4015 0 0 1.5 0 1.5 -0.4015 0c-0.2635,0.4553 -0.6432,0.835 -1.0985,1.0985l0 0.4015 -1.5 0 -1.5 0 0 -0.4015c-0.4553,-0.2635 -0.835,-0.6432 -1.0985,-1.0985l-0.4015 0 0 -1.5 0 -1.5z"/>
  <path class="fil0 str0" d="M77 295.5l0.4015 0c0.2635,-0.4553 0.6432,-0.835 1.0985,-1.0985l0 -0.4015 1.5 0 1.5 0 0 0.4015c0.4553,0.2635 0.835,0.6432 1.0985,1.0985l0.4015 0 0 1.5 0 1.5 -0.4015 0c-0.2635,0.4553 -0.6432,0.835 -1.0985,1.0985l0 0.4015 -1.5 0 -1.5 0 0 -0.4015c-0.4553,-0.2635 -0.835,-0.6432 -1.0985,-1.0985l-0.4015 0 0 -1.5 0 -1.5z"/>
  <path class="fil0 str0" d="M97 295.5l0.4015 0c0.2635,-0.4553 0.6432,-0.835 1.0985,-1.0985l0 -0.4015 1.5 0 1.5 0 0 0.4015c0.4553,0.2635 0.835,0.6432 1.0985,1.0985l0.4015 0 0 1.5 0 1.5 -0.4015 0c-0.2635,0.4553 -0.6432,0.835 -1.0985,1.0985l0 0.4015 -1.5 0 -1.5 0 0 -0.4015c-0.4553,-0.2635 -0.835,-0.6432 -1.0985,-1.0985l-0.4015 0 0 -1.5 0 -1.5z"/>
  <path class="fil0 str0" d="M117 295.5l0.4015 0c0.2635,-0.4553 0.6432,-0.835 1.0985,-1.0985l0 -0.4015 1.5 0 1.5 0 0 0.4015c0.4553,0.2635 0.835,0.6432 1.0985,1.0985l0.4015 0 0 1.5 0 1.5 -0.4015 0c-0.2635,0.4553 -0.6432,0.835 -1.0985,1.0985l0 0.4015 -1.5 0 -1.5 0 0 -0.4015c-0.4553,-0.2635 -0.835,-0.6432 -1.0985,-1.0985l-0.4015 0 0 -1.5 0 -1.5z"/>
  <path class="fil0 str0" d="M137 295.5l0.4015 0c0.2635,-0.4553 0.6432,-0.835 1.0985,-1.0985l0 -0.4015 1.5 0 1.5 0 0 0.4015c0.4553,0.2635 0.835,0.6432 1.0985,1.0985l0.4015 0 0 1.5 0 1.5 -0.4015 0c-0.2635,0.4553 -0.6432,0.835 -1.0985,1.0985l0 0.4015 -1.5 0 -1.5 0 0 -0.4015c-0.4553,-0.2635 -0.835,-0.6432 -1.0985,-1.0985l-0.4015 0 0 -1.5 0 -1.5z"/>
  <path class="fil0 str0" d="M157 295.5l0.4015 0c0.2635,-0.4553 0.6432,-0.835 1.0985,-1.0985l0 -0.4015 1.5 0 1.5 0 0 0.4015c0.4553,0.2635 0.835,0.6432 1.0985,1.0985l0.4015 0 0 1.5 0 1.5 -0.4015 0c-0.2635,0.4553 -0.6432,0.835 -1.0985,1.0985l0 0.4015 -1.5 0 -1.5 0 0 -0.4015c-0.4553,-0.2635 -0.835,-0.6432 -1.0985,-1.0985l-0.4015 0 0 -1.5 0 -1.5z"/>
  <path class="fil0 str0" d="M177 295.5l0.4015 0c0.2635,-0.4553 0.6432,-0.835 1.0985,-1.0985l0 -0.4015 1.5 0 1.5 0 0 0.4015c0.4553,0.2635 0.835,0.6432 1.0985,1.0985l0.4015 0 0 1.5 0 1.5 -0.4015 0c-0.2635,0.4553 -0.6432,0.835 -1.0985,1.0985l0 0.4015 -1.5 0 -1.5 0 0 -0.4015c-0.4553,-0.2635 -0.835,-0.6432 -1.0985,-1.0985l-0.4015 0 0 -1.5 0 -1.5z"/>
  <path class="fil0 str0" d="M197 295.5l0.4015 0c0.2635,-0.4553 0.6432,-0.835 1.0985,-1.0985l0 -0.4015 1.5 0 1.5 0 0 0.4015c0.4553,0.2635 0.835,0.6432 1.0985,1.0985l0.4015 0 0 1.5 0 1.5 -0.4015 0c-0.2635,0.4553 -0.6432,0.835 -1.0985,1.0985l0 0.4015 -1.5 0 -1.5 0 0 -0.4015c-0.4553,-0.2635 -0.835,-0.6432 -1.0985,-1.0985l-0.4015 0 0 -1.5 0 -1.5z"/>
  <path class="fil0 str0" d="M217 295.5l0.4015 0c0.2635,-0.4553 0.6432,-0.835 1.0985,-1.0985l0 -0.4015 1.5 0 1.5 0 0 0.4015c0.4553,0.2635 0.835,0.6432 1.0985,1.0985l0.4015 0 0 1.5 0 1.5 -0.4015 0c-0.2635,0.4553 -0.6432,0.835 -1.0985,1.0985l0 0.4015 -1.5 0 -1.5 0 0 -0.4015c-0.4553,-0.2635 -0.835,-0.6432 -1.0985,-1.0985l-0.4015 0 0 -1.5 0 -1.5z"/>
  <path class="fil0 str0" d="M237 295.5l0.4015 0c0.2635,-0.4553 0.6432,-0.835 1.0985,-1.0985l0 -0.4015 1.5 0 1.5 0 0 0.4015c0.4553,0.2635 0.835,0.6432 1.0985,1.0985l0.4015 0 0 1.5 0 1.5 -0.4015 0c-0.2635,0.4553 -0.6432,0.835 -1.0985,1.0985l0 0.4015 -1.5 0 -1.5 0 0 -0.4015c-0.4553,-0.2635 -0.835,-0.6432 -1.0985,-1.0985l-0.4015 0 0 -1.5 0 -1.5z"/>
  <rect class="fil0 str1" x="-233" y="295.5" width="6" height="3"/>
  <rect class="fil0 str1" x="-213" y="295.5" width="6" height="3"/>
  <rect class="fil0 str1" x="-193" y="295.5" width="6" height="3"/>
  <rect class="fil0 str1" x="-173" y="295.5" width="6" height="3"/>
  <rect class="fil0 str1" x="-153" y="295.5" width="6" height="3"/>
  <rect class="fil0 str1" x="-133" y="295.5" width="6" height="3"/>
  <rect class="fil0 str1" x="-113" y="295.5" width="6" height="3"/>
  <rect class="fil0 str1" x="-93" y="295.5" width="6" height="3"/>
  <rect class="fil0 str1" x="-73" y="295.5" width="6" height="3"/>
  <rect class="fil0 str1" x="-53" y="295.5" width="6" height="3"/>
  <rect class="fil0 str1" x="-33" y="295.5" width="6" height="3"/>
  <rect class="fil0 str1" x="-13" y="295.5" width="6" height="3"/>
  <rect class="fil0 str1" x="7" y="295.5" width="6" height="3"/>
  <rect class="fil0 str1" x="27" y="295.5" width="6" height="3"/>
  <rect class="fil0 str1" x="47" y="295.5" width="6" height="3"/>
  <rect class="fil0 str1" x="67" y="295.5" width="6" height="3"/>
  <rect class="fil0 str1" x="87" y="295.5" width="6" height="3"/>
  <rect class="fil0 str1" x="107" y="295.5" width="6" height="3"/>
  <rect class="fil0 str1" x="127" y="295.5" width="6" height="3"/>
  <rect class="fil0 str1" x="147" y="295.5" width="6" height="3"/>
  <rect class="fil0 str1" x="167" y="295.5" width="6" height="3"/>
  <rect class="fil0 str1" x="187" y="295.5" width="6" height="3"/>
  <rect class="fil0 str1" x="207" y="295.5" width="6" height="3"/>
  <rect class="fil0 str1" x="227" y="295.5" width="6" height="3"/>
  <path class="fil0 str2" d="M-246.5 298.5l0 -3c0,-2.7609 2.2391,-5 5,-5l483 0c2.7609,0 5,2.2391 5,5l0 3c0,2.7609 -2.2391,5 -5,5l-483 0c-2.7609,0 -5,-2.2391 -5,-5z"/>
 </g>
</svg>
