<?xml version="1.0" standalone="no"?>
<!DOCTYPE svg PUBLIC "-//W3C//DTD SVG 1.1//EN" "http://www.w3.org/Graphics/SVG/1.1/DTD/svg11.dtd">
<svg width="80mm" height="80mm" viewBox="-40 -40 80 80" xmlns="http://www.w3.org/2000/svg" version="1.1">
<title>OpenSCAD Model</title>
<path d="
M 0.964401,38.4476 L 1.33684,37.7457 L 1.6541,37.0818 L 1.92007,36.4591 L 2.13884,35.8807 L 2.31465,35.3493
 L 2.31306,35.3251 L 3.24147,35.252 L 3.24368,35.2762 L 3.50046,35.7735 L 3.80702,36.3106 L 4.16713,36.884
 L 4.58435,37.4901 L 5.062,38.1251 L 5.60318,38.7848 L 6.6562,38.618 L 6.96704,37.8234 L 7.2251,37.0719
 L 7.4346,36.3665 L 7.59988,35.7098 L 7.72546,35.1043 L 7.81599,34.552 L 7.81064,34.5283 L 8.71619,34.3109
 L 8.72215,34.3344 L 9.05357,34.7855 L 9.44037,35.268 L 9.88576,35.778 L 10.3927,36.3114 L 10.9637,36.8638
 L 11.6015,37.4307 L 12.6154,37.1013 L 12.7982,36.2678 L 12.9355,35.4852 L 13.032,34.7557 L 13.0926,34.0813
 L 13.1219,33.4636 L 13.1249,32.9039 L 13.1159,32.8814 L 13.9763,32.525 L 13.9859,32.5473 L 14.3838,32.9409
 L 14.8413,33.357 L 15.361,33.791 L 15.9451,34.2386 L 16.5956,34.6949 L 17.3141,35.155 L 18.2641,34.671
 L 18.3141,33.8192 L 18.3273,33.0248 L 18.3086,32.2892 L 18.2629,31.6136 L 18.1952,30.9989 L 18.1106,30.4456
 L 18.0982,30.4248 L 18.8923,29.9382 L 18.9052,29.9587 L 19.3598,30.2852 L 19.8767,30.6246 L 20.4579,30.972
 L 21.1048,31.3227 L 21.8187,31.6716 L 22.6004,32.0137 L 23.4629,31.387 L 23.3791,30.5379 L 23.2679,29.7512
 L 23.1343,29.0275 L 22.9835,28.3674 L 22.8205,27.7709 L 22.6504,27.2377 L 22.6349,27.219 L 23.343,26.6142
 L 23.359,26.6324 L 23.8591,26.8838 L 24.4228,27.1382 L 25.0511,27.3904 L 25.745,27.6355 L 26.5046,27.8685
 L 27.3302,28.0841 L 28.0841,27.3302 L 27.8685,26.5046 L 27.6355,25.745 L 27.3904,25.0511 L 27.1382,24.4228
 L 26.8838,23.8591 L 26.6324,23.359 L 26.6142,23.343 L 27.219,22.6349 L 27.2377,22.6504 L 27.7709,22.8205
 L 28.3674,22.9835 L 29.0275,23.1343 L 29.7512,23.2679 L 30.5379,23.3791 L 31.387,23.4629 L 32.0137,22.6004
 L 31.6716,21.8187 L 31.3227,21.1048 L 30.972,20.4579 L 30.6246,19.8767 L 30.2852,19.3598 L 29.9587,18.9052
 L 29.9382,18.8923 L 30.4248,18.0982 L 30.4456,18.1106 L 30.9989,18.1952 L 31.6136,18.2629 L 32.2892,18.3086
 L 33.0248,18.3273 L 33.8192,18.3141 L 34.671,18.2641 L 35.155,17.3141 L 34.6949,16.5956 L 34.2386,15.9451
 L 33.791,15.361 L 33.357,14.8413 L 32.9409,14.3838 L 32.5473,13.9859 L 32.525,13.9763 L 32.8814,13.1159
 L 32.9039,13.1249 L 33.4636,13.1219 L 34.0813,13.0926 L 34.7557,13.032 L 35.4852,12.9355 L 36.2678,12.7982
 L 37.1013,12.6154 L 37.4307,11.6015 L 36.8638,10.9637 L 36.3114,10.3927 L 35.778,9.88576 L 35.268,9.44037
 L 34.7855,9.05357 L 34.3344,8.72215 L 34.3109,8.71619 L 34.5283,7.81064 L 34.552,7.81599 L 35.1043,7.72546
 L 35.7098,7.59988 L 36.3665,7.4346 L 37.0719,7.2251 L 37.8234,6.96704 L 38.618,6.6562 L 38.7848,5.60318
 L 38.1251,5.062 L 37.4901,4.58435 L 36.884,4.16713 L 36.3106,3.80702 L 35.7735,3.50046 L 35.2762,3.24368
 L 35.252,3.24147 L 35.3251,2.31306 L 35.3493,2.31465 L 35.8807,2.13884 L 36.4591,1.92007 L 37.0818,1.6541
 L 37.7457,1.33684 L 38.4476,0.964401 L 39.1838,0.533081 L 39.1838,-0.533081 L 38.4476,-0.964401 L 37.7457,-1.33684
 L 37.0818,-1.6541 L 36.4591,-1.92007 L 35.8807,-2.13884 L 35.3493,-2.31465 L 35.3251,-2.31306 L 35.252,-3.24147
 L 35.2762,-3.24368 L 35.7735,-3.50046 L 36.3106,-3.80702 L 36.884,-4.16713 L 37.4901,-4.58435 L 38.1251,-5.062
 L 38.7848,-5.60318 L 38.618,-6.6562 L 37.8234,-6.96704 L 37.0719,-7.2251 L 36.3665,-7.4346 L 35.7098,-7.59988
 L 35.1043,-7.72546 L 34.552,-7.81599 L 34.5283,-7.81064 L 34.3109,-8.71619 L 34.3344,-8.72215 L 34.7855,-9.05357
 L 35.268,-9.44037 L 35.778,-9.88576 L 36.3114,-10.3927 L 36.8638,-10.9637 L 37.4307,-11.6015 L 37.1013,-12.6154
 L 36.2678,-12.7982 L 35.4852,-12.9355 L 34.7557,-13.032 L 34.0813,-13.0926 L 33.4636,-13.1219 L 32.9039,-13.1249
 L 32.8814,-13.1159 L 32.525,-13.9763 L 32.5473,-13.9859 L 32.9409,-14.3838 L 33.357,-14.8413 L 33.791,-15.361
 L 34.2386,-15.9451 L 34.6949,-16.5956 L 35.155,-17.3141 L 34.671,-18.2641 L 33.8192,-18.3141 L 33.0248,-18.3273
 L 32.2892,-18.3086 L 31.6136,-18.2629 L 30.9989,-18.1952 L 30.4456,-18.1106 L 30.4248,-18.0982 L 29.9382,-18.8923
 L 29.9587,-18.9052 L 30.2852,-19.3598 L 30.6246,-19.8767 L 30.972,-20.4579 L 31.3227,-21.1048 L 31.6716,-21.8187
 L 32.0137,-22.6004 L 31.387,-23.4629 L 30.5379,-23.3791 L 29.7512,-23.2679 L 29.0275,-23.1343 L 28.3674,-22.9835
 L 27.7709,-22.8205 L 27.2377,-22.6504 L 27.219,-22.6349 L 26.6142,-23.343 L 26.6324,-23.359 L 26.8838,-23.8591
 L 27.1382,-24.4228 L 27.3904,-25.0511 L 27.6355,-25.745 L 27.8685,-26.5046 L 28.0841,-27.3302 L 27.3302,-28.0841
 L 26.5046,-27.8685 L 25.745,-27.6355 L 25.0511,-27.3904 L 24.4228,-27.1382 L 23.8591,-26.8838 L 23.359,-26.6324
 L 23.343,-26.6142 L 22.6349,-27.219 L 22.6504,-27.2377 L 22.8205,-27.7709 L 22.9835,-28.3674 L 23.1343,-29.0275
 L 23.2679,-29.7512 L 23.3791,-30.5379 L 23.4629,-31.387 L 22.6004,-32.0137 L 21.8187,-31.6716 L 21.1048,-31.3227
 L 20.4579,-30.972 L 19.8767,-30.6246 L 19.3598,-30.2852 L 18.9052,-29.9587 L 18.8923,-29.9382 L 18.0982,-30.4248
 L 18.1106,-30.4456 L 18.1952,-30.9989 L 18.2629,-31.6136 L 18.3086,-32.2892 L 18.3273,-33.0248 L 18.3141,-33.8192
 L 18.2641,-34.671 L 17.3141,-35.155 L 16.5956,-34.6949 L 15.9451,-34.2386 L 15.361,-33.791 L 14.8413,-33.357
 L 14.3838,-32.9409 L 13.9859,-32.5473 L 13.9763,-32.525 L 13.1159,-32.8814 L 13.1249,-32.9039 L 13.1219,-33.4636
 L 13.0926,-34.0813 L 13.032,-34.7557 L 12.9355,-35.4852 L 12.7982,-36.2678 L 12.6154,-37.1013 L 11.6015,-37.4307
 L 10.9637,-36.8638 L 10.3927,-36.3114 L 9.88576,-35.778 L 9.44037,-35.268 L 9.05357,-34.7855 L 8.72215,-34.3344
 L 8.71619,-34.3109 L 7.81064,-34.5283 L 7.81599,-34.552 L 7.72546,-35.1043 L 7.59988,-35.7098 L 7.4346,-36.3665
 L 7.2251,-37.0719 L 6.96704,-37.8234 L 6.6562,-38.618 L 5.60318,-38.7848 L 5.062,-38.1251 L 4.58435,-37.4901
 L 4.16713,-36.884 L 3.80702,-36.3106 L 3.50046,-35.7735 L 3.24368,-35.2762 L 3.24147,-35.252 L 2.31306,-35.3251
 L 2.31465,-35.3493 L 2.13884,-35.8807 L 1.92007,-36.4591 L 1.6541,-37.0818 L 1.33684,-37.7457 L 0.964401,-38.4476
 L 0.533081,-39.1838 L -0.533081,-39.1838 L -0.964401,-38.4476 L -1.33684,-37.7457 L -1.6541,-37.0818 L -1.92007,-36.4591
 L -2.13884,-35.8807 L -2.31465,-35.3493 L -2.31306,-35.3251 L -3.24147,-35.252 L -3.24368,-35.2762 L -3.50046,-35.7735
 L -3.80702,-36.3106 L -4.16713,-36.884 L -4.58435,-37.4901 L -5.062,-38.1251 L -5.60318,-38.7848 L -6.6562,-38.618
 L -6.96704,-37.8234 L -7.2251,-37.0719 L -7.4346,-36.3665 L -7.59988,-35.7098 L -7.72546,-35.1043 L -7.81599,-34.552
 L -7.81064,-34.5283 L -8.71619,-34.3109 L -8.72215,-34.3344 L -9.05357,-34.7855 L -9.44037,-35.268 L -9.88576,-35.778
 L -10.3927,-36.3114 L -10.9637,-36.8638 L -11.6015,-37.4307 L -12.6154,-37.1013 L -12.7982,-36.2678 L -12.9355,-35.4852
 L -13.032,-34.7557 L -13.0926,-34.0813 L -13.1219,-33.4636 L -13.1249,-32.9039 L -13.1159,-32.8814 L -13.9763,-32.525
 L -13.9859,-32.5473 L -14.3838,-32.9409 L -14.8413,-33.357 L -15.361,-33.791 L -15.9451,-34.2386 L -16.5956,-34.6949
 L -17.3141,-35.155 L -18.2641,-34.671 L -18.3141,-33.8192 L -18.3273,-33.0248 L -18.3086,-32.2892 L -18.2629,-31.6136
 L -18.1952,-30.9989 L -18.1106,-30.4456 L -18.0982,-30.4248 L -18.8923,-29.9382 L -18.9052,-29.9587 L -19.3598,-30.2852
 L -19.8767,-30.6246 L -20.4579,-30.972 L -21.1048,-31.3227 L -21.8187,-31.6716 L -22.6004,-32.0137 L -23.4629,-31.387
 L -23.3791,-30.5379 L -23.2679,-29.7512 L -23.1343,-29.0275 L -22.9835,-28.3674 L -22.8205,-27.7709 L -22.6504,-27.2377
 L -22.6349,-27.219 L -23.343,-26.6142 L -23.359,-26.6324 L -23.8591,-26.8838 L -24.4228,-27.1382 L -25.0511,-27.3904
 L -25.745,-27.6355 L -26.5046,-27.8685 L -27.3302,-28.0841 L -28.0841,-27.3302 L -27.8685,-26.5046 L -27.6355,-25.745
 L -27.3904,-25.0511 L -27.1382,-24.4228 L -26.8838,-23.8591 L -26.6324,-23.359 L -26.6142,-23.343 L -27.219,-22.6349
 L -27.2377,-22.6504 L -27.7709,-22.8205 L -28.3674,-22.9835 L -29.0275,-23.1343 L -29.7512,-23.2679 L -30.5379,-23.3791
 L -31.387,-23.4629 L -32.0137,-22.6004 L -31.6716,-21.8187 L -31.3227,-21.1048 L -30.972,-20.4579 L -30.6246,-19.8767
 L -30.2852,-19.3598 L -29.9587,-18.9052 L -29.9382,-18.8923 L -30.4248,-18.0982 L -30.4456,-18.1106 L -30.9989,-18.1952
 L -31.6136,-18.2629 L -32.2892,-18.3086 L -33.0248,-18.3273 L -33.8192,-18.3141 L -34.671,-18.2641 L -35.155,-17.3141
 L -34.6949,-16.5956 L -34.2386,-15.9451 L -33.791,-15.361 L -33.357,-14.8413 L -32.9409,-14.3838 L -32.5473,-13.9859
 L -32.525,-13.9763 L -32.8814,-13.1159 L -32.9039,-13.1249 L -33.4636,-13.1219 L -34.0813,-13.0926 L -34.7557,-13.032
 L -35.4852,-12.9355 L -36.2678,-12.7982 L -37.1013,-12.6154 L -37.4307,-11.6015 L -36.8638,-10.9637 L -36.3114,-10.3927
 L -35.778,-9.88576 L -35.268,-9.44037 L -34.7855,-9.05357 L -34.3344,-8.72215 L -34.3109,-8.71619 L -34.5283,-7.81064
 L -34.552,-7.81599 L -35.1043,-7.72546 L -35.7098,-7.59988 L -36.3665,-7.4346 L -37.0719,-7.2251 L -37.8234,-6.96704
 L -38.618,-6.6562 L -38.7848,-5.60318 L -38.1251,-5.062 L -37.4901,-4.58435 L -36.884,-4.16713 L -36.3106,-3.80702
 L -35.7735,-3.50046 L -35.2762,-3.24368 L -35.252,-3.24147 L -35.3251,-2.31306 L -35.3493,-2.31465 L -35.8807,-2.13884
 L -36.4591,-1.92007 L -37.0818,-1.6541 L -37.7457,-1.33684 L -38.4476,-0.964401 L -39.1838,-0.533081 L -39.1838,0.533081
 L -38.4476,0.964401 L -37.7457,1.33684 L -37.0818,1.6541 L -36.4591,1.92007 L -35.8807,2.13884 L -35.3493,2.31465
 L -35.3251,2.31306 L -35.252,3.24147 L -35.2762,3.24368 L -35.7735,3.50046 L -36.3106,3.80702 L -36.884,4.16713
 L -37.4901,4.58435 L -38.1251,5.062 L -38.7848,5.60318 L -38.618,6.6562 L -37.8234,6.96704 L -37.0719,7.2251
 L -36.3665,7.4346 L -35.7098,7.59988 L -35.1043,7.72546 L -34.552,7.81599 L -34.5283,7.81064 L -34.3109,8.71619
 L -34.3344,8.72215 L -34.7855,9.05357 L -35.268,9.44037 L -35.778,9.88576 L -36.3114,10.3927 L -36.8638,10.9637
 L -37.4307,11.6015 L -37.1013,12.6154 L -36.2678,12.7982 L -35.4852,12.9355 L -34.7557,13.032 L -34.0813,13.0926
 L -33.4636,13.1219 L -32.9039,13.1249 L -32.8814,13.1159 L -32.525,13.9763 L -32.5473,13.9859 L -32.9409,14.3838
 L -33.357,14.8413 L -33.791,15.361 L -34.2386,15.9451 L -34.6949,16.5956 L -35.155,17.3141 L -34.671,18.2641
 L -33.8192,18.3141 L -33.0248,18.3273 L -32.2892,18.3086 L -31.6136,18.2629 L -30.9989,18.1952 L -30.4456,18.1106
 L -30.4248,18.0982 L -29.9382,18.8923 L -29.9587,18.9052 L -30.2852,19.3598 L -30.6246,19.8767 L -30.972,20.4579
 L -31.3227,21.1048 L -31.6716,21.8187 L -32.0137,22.6004 L -31.387,23.4629 L -30.5379,23.3791 L -29.7512,23.2679
 L -29.0275,23.1343 L -28.3674,22.9835 L -27.7709,22.8205 L -27.2377,22.6504 L -27.219,22.6349 L -26.6142,23.343
 L -26.6324,23.359 L -26.8838,23.8591 L -27.1382,24.4228 L -27.3904,25.0511 L -27.6355,25.745 L -27.8685,26.5046
 L -28.0841,27.3302 L -27.3302,28.0841 L -26.5046,27.8685 L -25.745,27.6355 L -25.0511,27.3904 L -24.4228,27.1382
 L -23.8591,26.8838 L -23.359,26.6324 L -23.343,26.6142 L -22.6349,27.219 L -22.6504,27.2377 L -22.8205,27.7709
 L -22.9835,28.3674 L -23.1343,29.0275 L -23.2679,29.7512 L -23.3791,30.5379 L -23.4629,31.387 L -22.6004,32.0137
 L -21.8187,31.6716 L -21.1048,31.3227 L -20.4579,30.972 L -19.8767,30.6246 L -19.3598,30.2852 L -18.9052,29.9587
 L -18.8923,29.9382 L -18.0982,30.4248 L -18.1106,30.4456 L -18.1952,30.9989 L -18.2629,31.6136 L -18.3086,32.2892
 L -18.3273,33.0248 L -18.3141,33.8192 L -18.2641,34.671 L -17.3141,35.155 L -16.5956,34.6949 L -15.9451,34.2386
 L -15.361,33.791 L -14.8413,33.357 L -14.3838,32.9409 L -13.9859,32.5473 L -13.9763,32.525 L -13.1159,32.8814
 L -13.1249,32.9039 L -13.1219,33.4636 L -13.0926,34.0813 L -13.032,34.7557 L -12.9355,35.4852 L -12.7982,36.2678
 L -12.6154,37.1013 L -11.6015,37.4307 L -10.9637,36.8638 L -10.3927,36.3114 L -9.88576,35.778 L -9.44037,35.268
 L -9.05357,34.7855 L -8.72215,34.3344 L -8.71619,34.3109 L -7.81064,34.5283 L -7.81599,34.552 L -7.72546,35.1043
 L -7.59988,35.7098 L -7.4346,36.3665 L -7.2251,37.0719 L -6.96704,37.8234 L -6.6562,38.618 L -5.60318,38.7848
 L -5.062,38.1251 L -4.58435,37.4901 L -4.16713,36.884 L -3.80702,36.3106 L -3.50046,35.7735 L -3.24368,35.2762
 L -3.24147,35.252 L -2.31306,35.3251 L -2.31465,35.3493 L -2.13884,35.8807 L -1.92007,36.4591 L -1.6541,37.0818
 L -1.33684,37.7457 L -0.964401,38.4476 L -0.533081,39.1838 L 0.533081,39.1838 z
M -0.562134,-27.0531 L -1.27733,-27.2855 L -1.91226,-27.6884 L -2.42705,-28.2366 L -2.78932,-28.8956 L -2.97633,-29.624
 L -2.97633,-30.376 L -2.78932,-31.1044 L -2.42705,-31.7634 L -1.91226,-32.3115 L -1.27733,-32.7145 L -0.562134,-32.9469
 L 0.18837,-32.9941 L 0.927048,-32.8532 L 1.60747,-32.533 L 2.1869,-32.0536 L 2.62891,-31.4453 L 2.90575,-30.7461
 L 3,-30 L 2.90575,-29.2539 L 2.62891,-28.5547 L 2.1869,-27.9464 L 1.60747,-27.467 L 0.927048,-27.1468
 L 0.18837,-27.0059 z
M -15.5621,-12.0531 L -16.2773,-12.2855 L -16.9123,-12.6884 L -17.427,-13.2366 L -17.7893,-13.8956 L -17.9763,-14.624
 L -17.9763,-15.376 L -17.7893,-16.1044 L -17.427,-16.7634 L -16.9123,-17.3115 L -16.2773,-17.7145 L -15.5621,-17.9469
 L -14.8116,-17.9941 L -14.0729,-17.8532 L -13.3925,-17.533 L -12.8131,-17.0536 L -12.3711,-16.4453 L -12.0942,-15.7461
 L -12,-15 L -12.0942,-14.2539 L -12.3711,-13.5547 L -12.8131,-12.9464 L -13.3925,-12.467 L -14.0729,-12.1468
 L -14.8116,-12.0059 z
M 14.4379,-12.0531 L 13.7227,-12.2855 L 13.0877,-12.6884 L 12.5729,-13.2366 L 12.2107,-13.8956 L 12.0237,-14.624
 L 12.0237,-15.376 L 12.2107,-16.1044 L 12.5729,-16.7634 L 13.0877,-17.3115 L 13.7227,-17.7145 L 14.4379,-17.9469
 L 15.1884,-17.9941 L 15.927,-17.8532 L 16.6075,-17.533 L 17.1869,-17.0536 L 17.6289,-16.4453 L 17.9057,-15.7461
 L 18,-15 L 17.9057,-14.2539 L 17.6289,-13.5547 L 17.1869,-12.9464 L 16.6075,-12.467 L 15.927,-12.1468
 L 15.1884,-12.0059 z
M -0.562134,-12.0531 L -1.27733,-12.2855 L -1.91226,-12.6884 L -2.42705,-13.2366 L -2.78932,-13.8956 L -2.97633,-14.624
 L -2.97633,-15.376 L -2.78932,-16.1044 L -2.42705,-16.7634 L -1.91226,-17.3115 L -1.27733,-17.7145 L -0.562134,-17.9469
 L 0.18837,-17.9941 L 0.927048,-17.8532 L 1.60747,-17.533 L 2.1869,-17.0536 L 2.62891,-16.4453 L 2.90575,-15.7461
 L 3,-15 L 2.90575,-14.2539 L 2.62891,-13.5547 L 2.1869,-12.9464 L 1.60747,-12.467 L 0.927048,-12.1468
 L 0.18837,-12.0059 z
M 29.4379,2.94685 L 28.7227,2.71448 L 28.0877,2.31154 L 27.5729,1.76335 L 27.2107,1.10437 L 27.0237,0.375992
 L 27.0237,-0.375992 L 27.2107,-1.10437 L 27.5729,-1.76335 L 28.0877,-2.31154 L 28.7227,-2.71448 L 29.4379,-2.94685
 L 30.1884,-2.99408 L 30.927,-2.85316 L 31.6075,-2.53297 L 32.1869,-2.05363 L 32.6289,-1.44525 L 32.9057,-0.746063
 L 33,-0 L 32.9057,0.746063 L 32.6289,1.44525 L 32.1869,2.05363 L 31.6075,2.53297 L 30.927,2.85316
 L 30.1884,2.99408 z
M -0.562134,2.94685 L -1.27733,2.71448 L -1.91226,2.31154 L -2.42705,1.76335 L -2.78932,1.10437 L -2.97633,0.375992
 L -2.97633,-0.375992 L -2.78932,-1.10437 L -2.42705,-1.76335 L -1.91226,-2.31154 L -1.27733,-2.71448 L -0.562134,-2.94685
 L 0.18837,-2.99408 L 0.927048,-2.85316 L 1.60747,-2.53297 L 2.1869,-2.05363 L 2.62891,-1.44525 L 2.90575,-0.746063
 L 3,-0 L 2.90575,0.746063 L 2.62891,1.44525 L 2.1869,2.05363 L 1.60747,2.53297 L 0.927048,2.85316
 L 0.18837,2.99408 z
M -30.5621,2.94685 L -31.2773,2.71448 L -31.9123,2.31154 L -32.427,1.76335 L -32.7893,1.10437 L -32.9763,0.375992
 L -32.9763,-0.375992 L -32.7893,-1.10437 L -32.427,-1.76335 L -31.9123,-2.31154 L -31.2773,-2.71448 L -30.5621,-2.94685
 L -29.8116,-2.99408 L -29.0729,-2.85316 L -28.3925,-2.53297 L -27.8131,-2.05363 L -27.3711,-1.44525 L -27.0942,-0.746063
 L -27,-0 L -27.0942,0.746063 L -27.3711,1.44525 L -27.8131,2.05363 L -28.3925,2.53297 L -29.0729,2.85316
 L -29.8116,2.99408 z
M -15.5621,2.94685 L -16.2773,2.71448 L -16.9123,2.31154 L -17.427,1.76335 L -17.7893,1.10437 L -17.9763,0.375992
 L -17.9763,-0.375992 L -17.7893,-1.10437 L -17.427,-1.76335 L -16.9123,-2.31154 L -16.2773,-2.71448 L -15.5621,-2.94685
 L -14.8116,-2.99408 L -14.0729,-2.85316 L -13.3925,-2.53297 L -12.8131,-2.05363 L -12.3711,-1.44525 L -12.0942,-0.746063
 L -12,-0 L -12.0942,0.746063 L -12.3711,1.44525 L -12.8131,2.05363 L -13.3925,2.53297 L -14.0729,2.85316
 L -14.8116,2.99408 z
M 14.4379,2.94685 L 13.7227,2.71448 L 13.0877,2.31154 L 12.5729,1.76335 L 12.2107,1.10437 L 12.0237,0.375992
 L 12.0237,-0.375992 L 12.2107,-1.10437 L 12.5729,-1.76335 L 13.0877,-2.31154 L 13.7227,-2.71448 L 14.4379,-2.94685
 L 15.1884,-2.99408 L 15.927,-2.85316 L 16.6075,-2.53297 L 17.1869,-2.05363 L 17.6289,-1.44525 L 17.9057,-0.746063
 L 18,-0 L 17.9057,0.746063 L 17.6289,1.44525 L 17.1869,2.05363 L 16.6075,2.53297 L 15.927,2.85316
 L 15.1884,2.99408 z
M 14.4379,17.9469 L 13.7227,17.7145 L 13.0877,17.3115 L 12.5729,16.7634 L 12.2107,16.1044 L 12.0237,15.376
 L 12.0237,14.624 L 12.2107,13.8956 L 12.5729,13.2366 L 13.0877,12.6884 L 13.7227,12.2855 L 14.4379,12.0531
 L 15.1884,12.0059 L 15.927,12.1468 L 16.6075,12.467 L 17.1869,12.9464 L 17.6289,13.5547 L 17.9057,14.2539
 L 18,15 L 17.9057,15.7461 L 17.6289,16.4453 L 17.1869,17.0536 L 16.6075,17.533 L 15.927,17.8532
 L 15.1884,17.9941 z
M -0.562134,17.9469 L -1.27733,17.7145 L -1.91226,17.3115 L -2.42705,16.7634 L -2.78932,16.1044 L -2.97633,15.376
 L -2.97633,14.624 L -2.78932,13.8956 L -2.42705,13.2366 L -1.91226,12.6884 L -1.27733,12.2855 L -0.562134,12.0531
 L 0.18837,12.0059 L 0.927048,12.1468 L 1.60747,12.467 L 2.1869,12.9464 L 2.62891,13.5547 L 2.90575,14.2539
 L 3,15 L 2.90575,15.7461 L 2.62891,16.4453 L 2.1869,17.0536 L 1.60747,17.533 L 0.927048,17.8532
 L 0.18837,17.9941 z
M -15.5621,17.9469 L -16.2773,17.7145 L -16.9123,17.3115 L -17.427,16.7634 L -17.7893,16.1044 L -17.9763,15.376
 L -17.9763,14.624 L -17.7893,13.8956 L -17.427,13.2366 L -16.9123,12.6884 L -16.2773,12.2855 L -15.5621,12.0531
 L -14.8116,12.0059 L -14.0729,12.1468 L -13.3925,12.467 L -12.8131,12.9464 L -12.3711,13.5547 L -12.0942,14.2539
 L -12,15 L -12.0942,15.7461 L -12.3711,16.4453 L -12.8131,17.0536 L -13.3925,17.533 L -14.0729,17.8532
 L -14.8116,17.9941 z
M -0.562134,32.9469 L -1.27733,32.7145 L -1.91226,32.3115 L -2.42705,31.7634 L -2.78932,31.1044 L -2.97633,30.376
 L -2.97633,29.624 L -2.78932,28.8956 L -2.42705,28.2366 L -1.91226,27.6884 L -1.27733,27.2855 L -0.562134,27.0531
 L 0.18837,27.0059 L 0.927048,27.1468 L 1.60747,27.467 L 2.1869,27.9464 L 2.62891,28.5547 L 2.90575,29.2539
 L 3,30 L 2.90575,30.7461 L 2.62891,31.4453 L 2.1869,32.0536 L 1.60747,32.533 L 0.927048,32.8532
 L 0.18837,32.9941 z
" stroke="black" fill="lightgray" stroke-width="0.5"/>
</svg>
