<?xml version="1.0" standalone="no"?>
<!DOCTYPE svg PUBLIC "-//W3C//DTD SVG 1.1//EN" "http://www.w3.org/Graphics/SVG/1.1/DTD/svg11.dtd">
<svg width="80mm" height="80mm" viewBox="-40 -40 80 80" xmlns="http://www.w3.org/2000/svg" version="1.1">
<title>OpenSCAD Model</title>
<path d="
M 1.1319,37.9209 L 1.44083,36.9607 L 1.62115,36.1971 L 1.70651,35.6433 L 1.73167,35.308 L 1.73212,35.1959
 L 1.72572,35.0659 L 3.78215,34.9144 L 3.79504,35.0335 L 3.81302,35.1441 L 3.89032,35.4714 L 4.06128,36.0051
 L 4.35883,36.731 L 4.81418,37.6311 L 5.45631,38.6836 L 6.76462,38.4764 L 7.05009,37.277 L 7.205,36.2802
 L 7.26367,35.4979 L 7.26134,34.9375 L 7.23373,34.6024 L 7.21663,34.4916 L 7.18999,34.3642 L 9.1974,33.8929
 L 9.22878,34.0085 L 9.26382,34.115 L 9.39137,34.4261 L 9.64371,34.9265 L 10.0512,35.5969 L 10.6417,36.4147
 L 11.4406,37.3538 L 12.7004,36.9444 L 12.7947,35.7152 L 12.7918,34.7065 L 12.7273,33.9245 L 12.6374,33.3714
 L 12.5577,33.0447 L 12.5235,32.938 L 12.4772,32.8164 L 14.3862,32.0368 L 14.4353,32.1461 L 14.4865,32.2458
 L 14.6612,32.5331 L 14.9887,32.9879 L 15.496,33.5863 L 16.2072,34.3017 L 17.1431,35.1042 L 18.3234,34.5028
 L 18.2243,33.2739 L 18.0636,32.2781 L 17.8776,31.5159 L 17.7022,30.9836 L 17.5724,30.6734 L 17.5219,30.5734
 L 17.4572,30.4605 L 19.2207,29.3919 L 19.2863,29.4922 L 19.3525,29.5826 L 19.57,29.8391 L 19.9646,30.237
 L 20.5593,30.7487 L 21.3736,31.344 L 22.4236,31.9902 L 23.4952,31.2116 L 23.2051,30.0134 L 22.8906,29.0549
 L 22.5877,28.3312 L 22.3312,27.8329 L 22.1544,27.5469 L 22.0889,27.4559 L 22.0073,27.3545 L 23.582,26.0232
 L 23.6624,26.112 L 23.742,26.191 L 23.9969,26.4103 L 24.4489,26.7416 L 25.1163,27.154 L 26.0138,27.6145
 L 27.1519,28.0885 L 28.0885,27.1519 L 27.6145,26.0138 L 27.154,25.1163 L 26.7416,24.4489 L 26.4103,23.9969
 L 26.191,23.742 L 26.112,23.6624 L 26.0156,23.5751 L 27.3626,22.0138 L 27.4559,22.0889 L 27.5469,22.1544
 L 27.8329,22.3312 L 28.3312,22.5877 L 29.0549,22.8906 L 30.0134,23.2051 L 31.2116,23.4952 L 31.9902,22.4236
 L 31.344,21.3736 L 30.7487,20.5593 L 30.237,19.9646 L 29.8391,19.57 L 29.5826,19.3525 L 29.4922,19.2863
 L 29.3833,19.2151 L 30.4694,17.4623 L 30.5734,17.5219 L 30.6734,17.5724 L 30.9836,17.7022 L 31.5159,17.8776
 L 32.2781,18.0636 L 33.2739,18.2243 L 34.5028,18.3234 L 35.1042,17.1431 L 34.3017,16.2072 L 33.5863,15.496
 L 32.9879,14.9887 L 32.5331,14.6612 L 32.2458,14.4865 L 32.1461,14.4353 L 32.0274,14.382 L 32.826,12.4809
 L 32.938,12.5235 L 33.0447,12.5577 L 33.3714,12.6374 L 33.9245,12.7273 L 34.7065,12.7918 L 35.7152,12.7947
 L 36.9444,12.7004 L 37.3538,11.4406 L 36.4147,10.6417 L 35.5969,10.0512 L 34.9265,9.64371 L 34.4261,9.39137
 L 34.115,9.26382 L 34.0085,9.22878 L 33.8829,9.1947 L 34.3743,7.19209 L 34.4916,7.21663 L 34.6024,7.23373
 L 34.9375,7.26134 L 35.4979,7.26367 L 36.2802,7.205 L 37.277,7.05009 L 38.4764,6.76462 L 38.6836,5.45631
 L 37.6311,4.81418 L 36.731,4.35883 L 36.0051,4.06128 L 35.4714,3.89032 L 35.1441,3.81302 L 35.0335,3.79504
 L 34.9041,3.78104 L 35.0762,1.72623 L 35.1959,1.73212 L 35.308,1.73167 L 35.6433,1.70651 L 36.1971,1.62115
 L 36.9607,1.44083 L 37.9209,1.1319 L 39.0609,0.662308 L 39.0609,-0.662308 L 37.9209,-1.1319 L 36.9607,-1.44083
 L 36.1971,-1.62115 L 35.6433,-1.70651 L 35.308,-1.73167 L 35.1959,-1.73212 L 35.0659,-1.72572 L 34.9144,-3.78215
 L 35.0335,-3.79504 L 35.1441,-3.81302 L 35.4714,-3.89032 L 36.0051,-4.06128 L 36.731,-4.35883 L 37.6311,-4.81418
 L 38.6836,-5.45631 L 38.4764,-6.76462 L 37.277,-7.05009 L 36.2802,-7.205 L 35.4979,-7.26367 L 34.9375,-7.26134
 L 34.6024,-7.23373 L 34.4916,-7.21663 L 34.3642,-7.18999 L 33.8929,-9.1974 L 34.0085,-9.22878 L 34.115,-9.26382
 L 34.4261,-9.39137 L 34.9265,-9.64371 L 35.5969,-10.0512 L 36.4147,-10.6417 L 37.3538,-11.4406 L 36.9444,-12.7004
 L 35.7152,-12.7947 L 34.7065,-12.7918 L 33.9245,-12.7273 L 33.3714,-12.6374 L 33.0447,-12.5577 L 32.938,-12.5235
 L 32.8164,-12.4772 L 32.0368,-14.3862 L 32.1461,-14.4353 L 32.2458,-14.4865 L 32.5331,-14.6612 L 32.9879,-14.9887
 L 33.5863,-15.496 L 34.3017,-16.2072 L 35.1042,-17.1431 L 34.5028,-18.3234 L 33.2739,-18.2243 L 32.2781,-18.0636
 L 31.5159,-17.8776 L 30.9836,-17.7022 L 30.6734,-17.5724 L 30.5734,-17.5219 L 30.4605,-17.4572 L 29.3919,-19.2207
 L 29.4922,-19.2863 L 29.5826,-19.3525 L 29.8391,-19.57 L 30.237,-19.9646 L 30.7487,-20.5593 L 31.344,-21.3736
 L 31.9902,-22.4236 L 31.2116,-23.4952 L 30.0134,-23.2051 L 29.0549,-22.8906 L 28.3312,-22.5877 L 27.8329,-22.3312
 L 27.5469,-22.1544 L 27.4559,-22.0889 L 27.3545,-22.0073 L 26.0232,-23.582 L 26.112,-23.6624 L 26.191,-23.742
 L 26.4103,-23.9969 L 26.7416,-24.4489 L 27.154,-25.1163 L 27.6145,-26.0138 L 28.0885,-27.1519 L 27.1519,-28.0885
 L 26.0138,-27.6145 L 25.1163,-27.154 L 24.4489,-26.7416 L 23.9969,-26.4103 L 23.742,-26.191 L 23.6624,-26.112
 L 23.5751,-26.0156 L 22.0138,-27.3626 L 22.0889,-27.4559 L 22.1544,-27.5469 L 22.3312,-27.8329 L 22.5877,-28.3312
 L 22.8906,-29.0549 L 23.2051,-30.0134 L 23.4952,-31.2116 L 22.4236,-31.9902 L 21.3736,-31.344 L 20.5593,-30.7487
 L 19.9646,-30.237 L 19.57,-29.8391 L 19.3525,-29.5826 L 19.2863,-29.4922 L 19.2151,-29.3833 L 17.4623,-30.4694
 L 17.5219,-30.5734 L 17.5724,-30.6734 L 17.7022,-30.9836 L 17.8776,-31.5159 L 18.0636,-32.2781 L 18.2243,-33.2739
 L 18.3234,-34.5028 L 17.1431,-35.1042 L 16.2072,-34.3017 L 15.496,-33.5863 L 14.9887,-32.9879 L 14.6612,-32.5331
 L 14.4865,-32.2458 L 14.4353,-32.1461 L 14.382,-32.0274 L 12.4809,-32.826 L 12.5235,-32.938 L 12.5577,-33.0447
 L 12.6374,-33.3714 L 12.7273,-33.9245 L 12.7918,-34.7065 L 12.7947,-35.7152 L 12.7004,-36.9444 L 11.4406,-37.3538
 L 10.6417,-36.4147 L 10.0512,-35.5969 L 9.64371,-34.9265 L 9.39137,-34.4261 L 9.26382,-34.115 L 9.22878,-34.0085
 L 9.1947,-33.8829 L 7.19209,-34.3743 L 7.21663,-34.4916 L 7.23373,-34.6024 L 7.26134,-34.9375 L 7.26367,-35.4979
 L 7.205,-36.2802 L 7.05009,-37.277 L 6.76462,-38.4764 L 5.45631,-38.6836 L 4.81418,-37.6311 L 4.35883,-36.731
 L 4.06128,-36.0051 L 3.89032,-35.4714 L 3.81302,-35.1441 L 3.79504,-35.0335 L 3.78104,-34.9041 L 1.72623,-35.0762
 L 1.73212,-35.1959 L 1.73167,-35.308 L 1.70651,-35.6433 L 1.62115,-36.1971 L 1.44083,-36.9607 L 1.1319,-37.9209
 L 0.662308,-39.0609 L -0.662308,-39.0609 L -1.1319,-37.9209 L -1.44083,-36.9607 L -1.62115,-36.1971 L -1.70651,-35.6433
 L -1.73167,-35.308 L -1.73212,-35.1959 L -1.72572,-35.0659 L -3.78215,-34.9144 L -3.79504,-35.0335 L -3.81302,-35.1441
 L -3.89032,-35.4714 L -4.06128,-36.0051 L -4.35883,-36.731 L -4.81418,-37.6311 L -5.45631,-38.6836 L -6.76462,-38.4764
 L -7.05009,-37.277 L -7.205,-36.2802 L -7.26367,-35.4979 L -7.26134,-34.9375 L -7.23373,-34.6024 L -7.21663,-34.4916
 L -7.18999,-34.3642 L -9.1974,-33.8929 L -9.22878,-34.0085 L -9.26382,-34.115 L -9.39137,-34.4261 L -9.64371,-34.9265
 L -10.0512,-35.5969 L -10.6417,-36.4147 L -11.4406,-37.3538 L -12.7004,-36.9444 L -12.7947,-35.7152 L -12.7918,-34.7065
 L -12.7273,-33.9245 L -12.6374,-33.3714 L -12.5577,-33.0447 L -12.5235,-32.938 L -12.4772,-32.8164 L -14.3862,-32.0368
 L -14.4353,-32.1461 L -14.4865,-32.2458 L -14.6612,-32.5331 L -14.9887,-32.9879 L -15.496,-33.5863 L -16.2072,-34.3017
 L -17.1431,-35.1042 L -18.3234,-34.5028 L -18.2243,-33.2739 L -18.0636,-32.2781 L -17.8776,-31.5159 L -17.7022,-30.9836
 L -17.5724,-30.6734 L -17.5219,-30.5734 L -17.4572,-30.4605 L -19.2207,-29.3919 L -19.2863,-29.4922 L -19.3525,-29.5826
 L -19.57,-29.8391 L -19.9646,-30.237 L -20.5593,-30.7487 L -21.3736,-31.344 L -22.4236,-31.9902 L -23.4952,-31.2116
 L -23.2051,-30.0134 L -22.8906,-29.0549 L -22.5877,-28.3312 L -22.3312,-27.8329 L -22.1544,-27.5469 L -22.0889,-27.4559
 L -22.0073,-27.3545 L -23.582,-26.0232 L -23.6624,-26.112 L -23.742,-26.191 L -23.9969,-26.4103 L -24.4489,-26.7416
 L -25.1163,-27.154 L -26.0138,-27.6145 L -27.1519,-28.0885 L -28.0885,-27.1519 L -27.6145,-26.0138 L -27.154,-25.1163
 L -26.7416,-24.4489 L -26.4103,-23.9969 L -26.191,-23.742 L -26.112,-23.6624 L -26.0156,-23.5751 L -27.3626,-22.0138
 L -27.4559,-22.0889 L -27.5469,-22.1544 L -27.8329,-22.3312 L -28.3312,-22.5877 L -29.0549,-22.8906 L -30.0134,-23.2051
 L -31.2116,-23.4952 L -31.9902,-22.4236 L -31.344,-21.3736 L -30.7487,-20.5593 L -30.237,-19.9646 L -29.8391,-19.57
 L -29.5826,-19.3525 L -29.4922,-19.2863 L -29.3833,-19.2151 L -30.4694,-17.4623 L -30.5734,-17.5219 L -30.6734,-17.5724
 L -30.9836,-17.7022 L -31.5159,-17.8776 L -32.2781,-18.0636 L -33.2739,-18.2243 L -34.5028,-18.3234 L -35.1042,-17.1431
 L -34.3017,-16.2072 L -33.5863,-15.496 L -32.9879,-14.9887 L -32.5331,-14.6612 L -32.2458,-14.4865 L -32.1461,-14.4353
 L -32.0274,-14.382 L -32.826,-12.4809 L -32.938,-12.5235 L -33.0447,-12.5577 L -33.3714,-12.6374 L -33.9245,-12.7273
 L -34.7065,-12.7918 L -35.7152,-12.7947 L -36.9444,-12.7004 L -37.3538,-11.4406 L -36.4147,-10.6417 L -35.5969,-10.0512
 L -34.9265,-9.64371 L -34.4261,-9.39137 L -34.115,-9.26382 L -34.0085,-9.22878 L -33.8829,-9.1947 L -34.3743,-7.19209
 L -34.4916,-7.21663 L -34.6024,-7.23373 L -34.9375,-7.26134 L -35.4979,-7.26367 L -36.2802,-7.205 L -37.277,-7.05009
 L -38.4764,-6.76462 L -38.6836,-5.45631 L -37.6311,-4.81418 L -36.731,-4.35883 L -36.0051,-4.06128 L -35.4714,-3.89032
 L -35.1441,-3.81302 L -35.0335,-3.79504 L -34.9041,-3.78104 L -35.0762,-1.72623 L -35.1959,-1.73212 L -35.308,-1.73167
 L -35.6433,-1.70651 L -36.1971,-1.62115 L -36.9607,-1.44083 L -37.9209,-1.1319 L -39.0609,-0.662308 L -39.0609,0.662308
 L -37.9209,1.1319 L -36.9607,1.44083 L -36.1971,1.62115 L -35.6433,1.70651 L -35.308,1.73167 L -35.1959,1.73212
 L -35.0659,1.72572 L -34.9144,3.78215 L -35.0335,3.79504 L -35.1441,3.81302 L -35.4714,3.89032 L -36.0051,4.06128
 L -36.731,4.35883 L -37.6311,4.81418 L -38.6836,5.45631 L -38.4764,6.76462 L -37.277,7.05009 L -36.2802,7.205
 L -35.4979,7.26367 L -34.9375,7.26134 L -34.6024,7.23373 L -34.4916,7.21663 L -34.3642,7.18999 L -33.8929,9.1974
 L -34.0085,9.22878 L -34.115,9.26382 L -34.4261,9.39137 L -34.9265,9.64371 L -35.5969,10.0512 L -36.4147,10.6417
 L -37.3538,11.4406 L -36.9444,12.7004 L -35.7152,12.7947 L -34.7065,12.7918 L -33.9245,12.7273 L -33.3714,12.6374
 L -33.0447,12.5577 L -32.938,12.5235 L -32.8164,12.4772 L -32.0368,14.3862 L -32.1461,14.4353 L -32.2458,14.4865
 L -32.5331,14.6612 L -32.9879,14.9887 L -33.5863,15.496 L -34.3017,16.2072 L -35.1042,17.1431 L -34.5028,18.3234
 L -33.2739,18.2243 L -32.2781,18.0636 L -31.5159,17.8776 L -30.9836,17.7022 L -30.6734,17.5724 L -30.5734,17.5219
 L -30.4605,17.4572 L -29.3919,19.2207 L -29.4922,19.2863 L -29.5826,19.3525 L -29.8391,19.57 L -30.237,19.9646
 L -30.7487,20.5593 L -31.344,21.3736 L -31.9902,22.4236 L -31.2116,23.4952 L -30.0134,23.2051 L -29.0549,22.8906
 L -28.3312,22.5877 L -27.8329,22.3312 L -27.5469,22.1544 L -27.4559,22.0889 L -27.3545,22.0073 L -26.0232,23.582
 L -26.112,23.6624 L -26.191,23.742 L -26.4103,23.9969 L -26.7416,24.4489 L -27.154,25.1163 L -27.6145,26.0138
 L -28.0885,27.1519 L -27.1519,28.0885 L -26.0138,27.6145 L -25.1163,27.154 L -24.4489,26.7416 L -23.9969,26.4103
 L -23.742,26.191 L -23.6624,26.112 L -23.5751,26.0156 L -22.0138,27.3626 L -22.0889,27.4559 L -22.1544,27.5469
 L -22.3312,27.8329 L -22.5877,28.3312 L -22.8906,29.0549 L -23.2051,30.0134 L -23.4952,31.2116 L -22.4236,31.9902
 L -21.3736,31.344 L -20.5593,30.7487 L -19.9646,30.237 L -19.57,29.8391 L -19.3525,29.5826 L -19.2863,29.4922
 L -19.2151,29.3833 L -17.4623,30.4694 L -17.5219,30.5734 L -17.5724,30.6734 L -17.7022,30.9836 L -17.8776,31.5159
 L -18.0636,32.2781 L -18.2243,33.2739 L -18.3234,34.5028 L -17.1431,35.1042 L -16.2072,34.3017 L -15.496,33.5863
 L -14.9887,32.9879 L -14.6612,32.5331 L -14.4865,32.2458 L -14.4353,32.1461 L -14.382,32.0274 L -12.4809,32.826
 L -12.5235,32.938 L -12.5577,33.0447 L -12.6374,33.3714 L -12.7273,33.9245 L -12.7918,34.7065 L -12.7947,35.7152
 L -12.7004,36.9444 L -11.4406,37.3538 L -10.6417,36.4147 L -10.0512,35.5969 L -9.64371,34.9265 L -9.39137,34.4261
 L -9.26382,34.115 L -9.22878,34.0085 L -9.1947,33.8829 L -7.19209,34.3743 L -7.21663,34.4916 L -7.23373,34.6024
 L -7.26134,34.9375 L -7.26367,35.4979 L -7.205,36.2802 L -7.05009,37.277 L -6.76462,38.4764 L -5.45631,38.6836
 L -4.81418,37.6311 L -4.35883,36.731 L -4.06128,36.0051 L -3.89032,35.4714 L -3.81302,35.1441 L -3.79504,35.0335
 L -3.78104,34.9041 L -1.72623,35.0762 L -1.73212,35.1959 L -1.73167,35.308 L -1.70651,35.6433 L -1.62115,36.1971
 L -1.44083,36.9607 L -1.1319,37.9209 L -0.662308,39.0609 L 0.662308,39.0609 z
M -0.562134,-27.0531 L -1.27733,-27.2855 L -1.91226,-27.6884 L -2.42705,-28.2366 L -2.78932,-28.8956 L -2.97633,-29.624
 L -2.97633,-30.376 L -2.78932,-31.1044 L -2.42705,-31.7634 L -1.91226,-32.3115 L -1.27733,-32.7145 L -0.562134,-32.9469
 L 0.18837,-32.9941 L 0.927048,-32.8532 L 1.60747,-32.533 L 2.1869,-32.0536 L 2.62891,-31.4453 L 2.90575,-30.7461
 L 3,-30 L 2.90575,-29.2539 L 2.62891,-28.5547 L 2.1869,-27.9464 L 1.60747,-27.467 L 0.927048,-27.1468
 L 0.18837,-27.0059 z
M -15.5621,-12.0531 L -16.2773,-12.2855 L -16.9123,-12.6884 L -17.427,-13.2366 L -17.7893,-13.8956 L -17.9763,-14.624
 L -17.9763,-15.376 L -17.7893,-16.1044 L -17.427,-16.7634 L -16.9123,-17.3115 L -16.2773,-17.7145 L -15.5621,-17.9469
 L -14.8116,-17.9941 L -14.0729,-17.8532 L -13.3925,-17.533 L -12.8131,-17.0536 L -12.3711,-16.4453 L -12.0942,-15.7461
 L -12,-15 L -12.0942,-14.2539 L -12.3711,-13.5547 L -12.8131,-12.9464 L -13.3925,-12.467 L -14.0729,-12.1468
 L -14.8116,-12.0059 z
M 14.4379,-12.0531 L 13.7227,-12.2855 L 13.0877,-12.6884 L 12.5729,-13.2366 L 12.2107,-13.8956 L 12.0237,-14.624
 L 12.0237,-15.376 L 12.2107,-16.1044 L 12.5729,-16.7634 L 13.0877,-17.3115 L 13.7227,-17.7145 L 14.4379,-17.9469
 L 15.1884,-17.9941 L 15.927,-17.8532 L 16.6075,-17.533 L 17.1869,-17.0536 L 17.6289,-16.4453 L 17.9057,-15.7461
 L 18,-15 L 17.9057,-14.2539 L 17.6289,-13.5547 L 17.1869,-12.9464 L 16.6075,-12.467 L 15.927,-12.1468
 L 15.1884,-12.0059 z
M -0.562134,-12.0531 L -1.27733,-12.2855 L -1.91226,-12.6884 L -2.42705,-13.2366 L -2.78932,-13.8956 L -2.97633,-14.624
 L -2.97633,-15.376 L -2.78932,-16.1044 L -2.42705,-16.7634 L -1.91226,-17.3115 L -1.27733,-17.7145 L -0.562134,-17.9469
 L 0.18837,-17.9941 L 0.927048,-17.8532 L 1.60747,-17.533 L 2.1869,-17.0536 L 2.62891,-16.4453 L 2.90575,-15.7461
 L 3,-15 L 2.90575,-14.2539 L 2.62891,-13.5547 L 2.1869,-12.9464 L 1.60747,-12.467 L 0.927048,-12.1468
 L 0.18837,-12.0059 z
M -1.59273,8.34944 L -3.61911,7.69102 L -5.41809,6.54936 L -6.87663,4.99617 L -7.90309,3.12904 L -8.43297,1.06532
 L -8.43297,-1.06532 L -7.90309,-3.12904 L -6.87663,-4.99617 L -5.41809,-6.54936 L -3.61911,-7.69102 L -1.59273,-8.34944
 L 0.533707,-8.48322 L 2.62663,-8.08397 L 4.55452,-7.17677 L 6.19623,-5.81865 L 7.44859,-4.09489 L 8.23296,-2.11386
 L 8.5,-0 L 8.23296,2.11386 L 7.44859,4.09489 L 6.19623,5.81865 L 4.55452,7.17677 L 2.62663,8.08397
 L 0.533707,8.48322 z
M -15.5621,2.94685 L -16.2773,2.71448 L -16.9123,2.31154 L -17.427,1.76335 L -17.7893,1.10437 L -17.9763,0.375992
 L -17.9763,-0.375992 L -17.7893,-1.10437 L -17.427,-1.76335 L -16.9123,-2.31154 L -16.2773,-2.71448 L -15.5621,-2.94685
 L -14.8116,-2.99408 L -14.0729,-2.85316 L -13.3925,-2.53297 L -12.8131,-2.05363 L -12.3711,-1.44525 L -12.0942,-0.746063
 L -12,-0 L -12.0942,0.746063 L -12.3711,1.44525 L -12.8131,2.05363 L -13.3925,2.53297 L -14.0729,2.85316
 L -14.8116,2.99408 z
M -30.5621,2.94685 L -31.2773,2.71448 L -31.9123,2.31154 L -32.427,1.76335 L -32.7893,1.10437 L -32.9763,0.375992
 L -32.9763,-0.375992 L -32.7893,-1.10437 L -32.427,-1.76335 L -31.9123,-2.31154 L -31.2773,-2.71448 L -30.5621,-2.94685
 L -29.8116,-2.99408 L -29.0729,-2.85316 L -28.3925,-2.53297 L -27.8131,-2.05363 L -27.3711,-1.44525 L -27.0942,-0.746063
 L -27,-0 L -27.0942,0.746063 L -27.3711,1.44525 L -27.8131,2.05363 L -28.3925,2.53297 L -29.0729,2.85316
 L -29.8116,2.99408 z
M 29.4379,2.94685 L 28.7227,2.71448 L 28.0877,2.31154 L 27.5729,1.76335 L 27.2107,1.10437 L 27.0237,0.375992
 L 27.0237,-0.375992 L 27.2107,-1.10437 L 27.5729,-1.76335 L 28.0877,-2.31154 L 28.7227,-2.71448 L 29.4379,-2.94685
 L 30.1884,-2.99408 L 30.927,-2.85316 L 31.6075,-2.53297 L 32.1869,-2.05363 L 32.6289,-1.44525 L 32.9057,-0.746063
 L 33,-0 L 32.9057,0.746063 L 32.6289,1.44525 L 32.1869,2.05363 L 31.6075,2.53297 L 30.927,2.85316
 L 30.1884,2.99408 z
M 14.4379,2.94685 L 13.7227,2.71448 L 13.0877,2.31154 L 12.5729,1.76335 L 12.2107,1.10437 L 12.0237,0.375992
 L 12.0237,-0.375992 L 12.2107,-1.10437 L 12.5729,-1.76335 L 13.0877,-2.31154 L 13.7227,-2.71448 L 14.4379,-2.94685
 L 15.1884,-2.99408 L 15.927,-2.85316 L 16.6075,-2.53297 L 17.1869,-2.05363 L 17.6289,-1.44525 L 17.9057,-0.746063
 L 18,-0 L 17.9057,0.746063 L 17.6289,1.44525 L 17.1869,2.05363 L 16.6075,2.53297 L 15.927,2.85316
 L 15.1884,2.99408 z
M 14.4379,17.9469 L 13.7227,17.7145 L 13.0877,17.3115 L 12.5729,16.7634 L 12.2107,16.1044 L 12.0237,15.376
 L 12.0237,14.624 L 12.2107,13.8956 L 12.5729,13.2366 L 13.0877,12.6884 L 13.7227,12.2855 L 14.4379,12.0531
 L 15.1884,12.0059 L 15.927,12.1468 L 16.6075,12.467 L 17.1869,12.9464 L 17.6289,13.5547 L 17.9057,14.2539
 L 18,15 L 17.9057,15.7461 L 17.6289,16.4453 L 17.1869,17.0536 L 16.6075,17.533 L 15.927,17.8532
 L 15.1884,17.9941 z
M -15.5621,17.9469 L -16.2773,17.7145 L -16.9123,17.3115 L -17.427,16.7634 L -17.7893,16.1044 L -17.9763,15.376
 L -17.9763,14.624 L -17.7893,13.8956 L -17.427,13.2366 L -16.9123,12.6884 L -16.2773,12.2855 L -15.5621,12.0531
 L -14.8116,12.0059 L -14.0729,12.1468 L -13.3925,12.467 L -12.8131,12.9464 L -12.3711,13.5547 L -12.0942,14.2539
 L -12,15 L -12.0942,15.7461 L -12.3711,16.4453 L -12.8131,17.0536 L -13.3925,17.533 L -14.0729,17.8532
 L -14.8116,17.9941 z
M -0.562134,17.9469 L -1.27733,17.7145 L -1.91226,17.3115 L -2.42705,16.7634 L -2.78932,16.1044 L -2.97633,15.376
 L -2.97633,14.624 L -2.78932,13.8956 L -2.42705,13.2366 L -1.91226,12.6884 L -1.27733,12.2855 L -0.562134,12.0531
 L 0.18837,12.0059 L 0.927048,12.1468 L 1.60747,12.467 L 2.1869,12.9464 L 2.62891,13.5547 L 2.90575,14.2539
 L 3,15 L 2.90575,15.7461 L 2.62891,16.4453 L 2.1869,17.0536 L 1.60747,17.533 L 0.927048,17.8532
 L 0.18837,17.9941 z
M -0.562134,32.9469 L -1.27733,32.7145 L -1.91226,32.3115 L -2.42705,31.7634 L -2.78932,31.1044 L -2.97633,30.376
 L -2.97633,29.624 L -2.78932,28.8956 L -2.42705,28.2366 L -1.91226,27.6884 L -1.27733,27.2855 L -0.562134,27.0531
 L 0.18837,27.0059 L 0.927048,27.1468 L 1.60747,27.467 L 2.1869,27.9464 L 2.62891,28.5547 L 2.90575,29.2539
 L 3,30 L 2.90575,30.7461 L 2.62891,31.4453 L 2.1869,32.0536 L 1.60747,32.533 L 0.927048,32.8532
 L 0.18837,32.9941 z
" stroke="black" fill="lightgray" stroke-width="0.5"/>
</svg>
