<?xml version="1.0" standalone="no"?>
<!DOCTYPE svg PUBLIC "-//W3C//DTD SVG 1.1//EN" "http://www.w3.org/Graphics/SVG/1.1/DTD/svg11.dtd">
<svg width="14mm" height="14mm" viewBox="-7 -7 14 14" xmlns="http://www.w3.org/2000/svg" version="1.1">
<title>OpenSCAD Model</title>
<path d="
M 1.65762,5.96222 L 2.29909,5.83463 L 2.91841,5.62439 L 3.50499,5.33511 L 4.0488,4.97176 L 4.54053,4.54053
 L 4.97176,4.0488 L 5.33511,3.50499 L 5.62439,2.91841 L 5.83463,2.29909 L 5.96222,1.65762 L 6.00499,1.00499
 L 6.00499,-1.00499 L 5.96222,-1.65762 L 5.83463,-2.29909 L 5.62439,-2.91841 L 5.33511,-3.50499 L 4.97176,-4.0488
 L 4.54053,-4.54053 L 4.0488,-4.97176 L 3.50499,-5.33511 L 2.91841,-5.62439 L 2.29909,-5.83463 L 1.65762,-5.96222
 L 1.00499,-6.00499 L -1.00499,-6.00499 L -1.65762,-5.96222 L -2.29909,-5.83463 L -2.91841,-5.62439 L -3.50499,-5.33511
 L -4.0488,-4.97176 L -4.54053,-4.54053 L -4.97176,-4.0488 L -5.33511,-3.50499 L -5.62439,-2.91841 L -5.83463,-2.29909
 L -5.96222,-1.65762 L -6.00499,-1.00499 L -6.00499,1.00499 L -5.96222,1.65762 L -5.83463,2.29909 L -5.62439,2.91841
 L -5.33511,3.50499 L -4.97176,4.0488 L -4.54053,4.54053 L -4.0488,4.97176 L -3.50499,5.33511 L -2.91841,5.62439
 L -2.29909,5.83463 L -1.65762,5.96222 L -1.00499,6.00499 L 1.00499,6.00499 z
M -0.391571,2.97432 L -0.776443,2.89777 L -1.14804,2.77164 L -1.5,2.59807 L -1.82628,2.38005 L -2.12131,2.12131
 L -2.38005,1.82628 L -2.59807,1.5 L -2.77164,1.14804 L -2.89777,0.776443 L -2.97432,0.391571 L -3,-0
 L -2.97432,-0.391571 L -2.89777,-0.776443 L -2.77164,-1.14804 L -2.59807,-1.5 L -2.38005,-1.82628 L -2.12131,-2.12131
 L -1.82628,-2.38005 L -1.5,-2.59807 L -1.14804,-2.77164 L -0.776443,-2.89777 L -0.391571,-2.97432 L 0,-3
 L 0.391571,-2.97432 L 0.776443,-2.89777 L 1.14804,-2.77164 L 1.5,-2.59807 L 1.82628,-2.38005 L 2.12131,-2.12131
 L 2.38005,-1.82628 L 2.59807,-1.5 L 2.77164,-1.14804 L 2.89777,-0.776443 L 2.97432,-0.391571 L 3,-0
 L 2.97432,0.391571 L 2.89777,0.776443 L 2.77164,1.14804 L 2.59807,1.5 L 2.38005,1.82628 L 2.12131,2.12131
 L 1.82628,2.38005 L 1.5,2.59807 L 1.14804,2.77164 L 0.776443,2.89777 L 0.391571,2.97432 L 0,3
 z
" stroke="black" fill="lightgray" stroke-width="0.5"/>
</svg>
