  0
SECTION
  2
BLOCKS
  0
ENDSEC
  0
SECTION
  2
ENTITIES
  0
LINE
  8
0
 10
1.65762
 20
-5.96222
 11
2.29909
 21
-5.83463
  0
LINE
  8
0
 10
2.29909
 20
-5.83463
 11
2.91841
 21
-5.62439
  0
LINE
  8
0
 10
2.91841
 20
-5.62439
 11
3.50499
 21
-5.33511
  0
LINE
  8
0
 10
3.50499
 20
-5.33511
 11
4.0488
 21
-4.97176
  0
LINE
  8
0
 10
4.0488
 20
-4.97176
 11
4.54053
 21
-4.54053
  0
LINE
  8
0
 10
4.54053
 20
-4.54053
 11
4.97176
 21
-4.0488
  0
LINE
  8
0
 10
4.97176
 20
-4.0488
 11
5.33511
 21
-3.50499
  0
LINE
  8
0
 10
5.33511
 20
-3.50499
 11
5.62439
 21
-2.91841
  0
LINE
  8
0
 10
5.62439
 20
-2.91841
 11
5.83463
 21
-2.29909
  0
LINE
  8
0
 10
5.83463
 20
-2.29909
 11
5.96222
 21
-1.65762
  0
LINE
  8
0
 10
5.96222
 20
-1.65762
 11
6.00499
 21
-1.00499
  0
LINE
  8
0
 10
6.00499
 20
-1.00499
 11
6.00499
 21
1.00499
  0
LINE
  8
0
 10
6.00499
 20
1.00499
 11
5.96222
 21
1.65762
  0
LINE
  8
0
 10
5.96222
 20
1.65762
 11
5.83463
 21
2.29909
  0
LINE
  8
0
 10
5.83463
 20
2.29909
 11
5.62439
 21
2.91841
  0
LINE
  8
0
 10
5.62439
 20
2.91841
 11
5.33511
 21
3.50499
  0
LINE
  8
0
 10
5.33511
 20
3.50499
 11
4.97176
 21
4.0488
  0
LINE
  8
0
 10
4.97176
 20
4.0488
 11
4.54053
 21
4.54053
  0
LINE
  8
0
 10
4.54053
 20
4.54053
 11
4.0488
 21
4.97176
  0
LINE
  8
0
 10
4.0488
 20
4.97176
 11
3.50499
 21
5.33511
  0
LINE
  8
0
 10
3.50499
 20
5.33511
 11
2.91841
 21
5.62439
  0
LINE
  8
0
 10
2.91841
 20
5.62439
 11
2.29909
 21
5.83463
  0
LINE
  8
0
 10
2.29909
 20
5.83463
 11
1.65762
 21
5.96222
  0
LINE
  8
0
 10
1.65762
 20
5.96222
 11
1.00499
 21
6.00499
  0
LINE
  8
0
 10
1.00499
 20
6.00499
 11
-1.00499
 21
6.00499
  0
LINE
  8
0
 10
-1.00499
 20
6.00499
 11
-1.65762
 21
5.96222
  0
LINE
  8
0
 10
-1.65762
 20
5.96222
 11
-2.29909
 21
5.83463
  0
LINE
  8
0
 10
-2.29909
 20
5.83463
 11
-2.91841
 21
5.62439
  0
LINE
  8
0
 10
-2.91841
 20
5.62439
 11
-3.50499
 21
5.33511
  0
LINE
  8
0
 10
-3.50499
 20
5.33511
 11
-4.0488
 21
4.97176
  0
LINE
  8
0
 10
-4.0488
 20
4.97176
 11
-4.54053
 21
4.54053
  0
LINE
  8
0
 10
-4.54053
 20
4.54053
 11
-4.97176
 21
4.0488
  0
LINE
  8
0
 10
-4.97176
 20
4.0488
 11
-5.33511
 21
3.50499
  0
LINE
  8
0
 10
-5.33511
 20
3.50499
 11
-5.62439
 21
2.91841
  0
LINE
  8
0
 10
-5.62439
 20
2.91841
 11
-5.83463
 21
2.29909
  0
LINE
  8
0
 10
-5.83463
 20
2.29909
 11
-5.96222
 21
1.65762
  0
LINE
  8
0
 10
-5.96222
 20
1.65762
 11
-6.00499
 21
1.00499
  0
LINE
  8
0
 10
-6.00499
 20
1.00499
 11
-6.00499
 21
-1.00499
  0
LINE
  8
0
 10
-6.00499
 20
-1.00499
 11
-5.96222
 21
-1.65762
  0
LINE
  8
0
 10
-5.96222
 20
-1.65762
 11
-5.83463
 21
-2.29909
  0
LINE
  8
0
 10
-5.83463
 20
-2.29909
 11
-5.62439
 21
-2.91841
  0
LINE
  8
0
 10
-5.62439
 20
-2.91841
 11
-5.33511
 21
-3.50499
  0
LINE
  8
0
 10
-5.33511
 20
-3.50499
 11
-4.97176
 21
-4.0488
  0
LINE
  8
0
 10
-4.97176
 20
-4.0488
 11
-4.54053
 21
-4.54053
  0
LINE
  8
0
 10
-4.54053
 20
-4.54053
 11
-4.0488
 21
-4.97176
  0
LINE
  8
0
 10
-4.0488
 20
-4.97176
 11
-3.50499
 21
-5.33511
  0
LINE
  8
0
 10
-3.50499
 20
-5.33511
 11
-2.91841
 21
-5.62439
  0
LINE
  8
0
 10
-2.91841
 20
-5.62439
 11
-2.29909
 21
-5.83463
  0
LINE
  8
0
 10
-2.29909
 20
-5.83463
 11
-1.65762
 21
-5.96222
  0
LINE
  8
0
 10
-1.65762
 20
-5.96222
 11
-1.00499
 21
-6.00499
  0
LINE
  8
0
 10
-1.00499
 20
-6.00499
 11
1.00499
 21
-6.00499
  0
LINE
  8
0
 10
1.00499
 20
-6.00499
 11
1.65762
 21
-5.96222
  0
LINE
  8
0
 10
-0.42421
 20
-3.22218
 11
-0.841156
 21
-3.13925
  0
LINE
  8
0
 10
-0.841156
 20
-3.13925
 11
-1.24371
 21
-3.00259
  0
LINE
  8
0
 10
-1.24371
 20
-3.00259
 11
-1.625
 21
-2.81458
  0
LINE
  8
0
 10
-1.625
 20
-2.81458
 11
-1.97847
 21
-2.57838
  0
LINE
  8
0
 10
-1.97847
 20
-2.57838
 11
-2.2981
 21
-2.2981
  0
LINE
  8
0
 10
-2.2981
 20
-2.2981
 11
-2.57838
 21
-1.97847
  0
LINE
  8
0
 10
-2.57838
 20
-1.97847
 11
-2.81458
 21
-1.625
  0
LINE
  8
0
 10
-2.81458
 20
-1.625
 11
-3.00259
 21
-1.24371
  0
LINE
  8
0
 10
-3.00259
 20
-1.24371
 11
-3.13925
 21
-0.841156
  0
LINE
  8
0
 10
-3.13925
 20
-0.841156
 11
-3.22218
 21
-0.42421
  0
LINE
  8
0
 10
-3.22218
 20
-0.42421
 11
-3.25
 21
0
  0
LINE
  8
0
 10
-3.25
 20
0
 11
-3.22218
 21
0.42421
  0
LINE
  8
0
 10
-3.22218
 20
0.42421
 11
-3.13925
 21
0.841156
  0
LINE
  8
0
 10
-3.13925
 20
0.841156
 11
-3.00259
 21
1.24371
  0
LINE
  8
0
 10
-3.00259
 20
1.24371
 11
-2.81458
 21
1.625
  0
LINE
  8
0
 10
-2.81458
 20
1.625
 11
-2.57838
 21
1.97847
  0
LINE
  8
0
 10
-2.57838
 20
1.97847
 11
-2.2981
 21
2.2981
  0
LINE
  8
0
 10
-2.2981
 20
2.2981
 11
-1.97847
 21
2.57838
  0
LINE
  8
0
 10
-1.97847
 20
2.57838
 11
-1.625
 21
2.81458
  0
LINE
  8
0
 10
-1.625
 20
2.81458
 11
-1.24371
 21
3.00259
  0
LINE
  8
0
 10
-1.24371
 20
3.00259
 11
-0.841156
 21
3.13925
  0
LINE
  8
0
 10
-0.841156
 20
3.13925
 11
-0.42421
 21
3.22218
  0
LINE
  8
0
 10
-0.42421
 20
3.22218
 11
0
 21
3.25
  0
LINE
  8
0
 10
0
 20
3.25
 11
0.42421
 21
3.22218
  0
LINE
  8
0
 10
0.42421
 20
3.22218
 11
0.841156
 21
3.13925
  0
LINE
  8
0
 10
0.841156
 20
3.13925
 11
1.24371
 21
3.00259
  0
LINE
  8
0
 10
1.24371
 20
3.00259
 11
1.625
 21
2.81458
  0
LINE
  8
0
 10
1.625
 20
2.81458
 11
1.97847
 21
2.57838
  0
LINE
  8
0
 10
1.97847
 20
2.57838
 11
2.2981
 21
2.2981
  0
LINE
  8
0
 10
2.2981
 20
2.2981
 11
2.57838
 21
1.97847
  0
LINE
  8
0
 10
2.57838
 20
1.97847
 11
2.81458
 21
1.625
  0
LINE
  8
0
 10
2.81458
 20
1.625
 11
3.00259
 21
1.24371
  0
LINE
  8
0
 10
3.00259
 20
1.24371
 11
3.13925
 21
0.841156
  0
LINE
  8
0
 10
3.13925
 20
0.841156
 11
3.22218
 21
0.42421
  0
LINE
  8
0
 10
3.22218
 20
0.42421
 11
3.25
 21
0
  0
LINE
  8
0
 10
3.25
 20
0
 11
3.22218
 21
-0.42421
  0
LINE
  8
0
 10
3.22218
 20
-0.42421
 11
3.13925
 21
-0.841156
  0
LINE
  8
0
 10
3.13925
 20
-0.841156
 11
3.00259
 21
-1.24371
  0
LINE
  8
0
 10
3.00259
 20
-1.24371
 11
2.81458
 21
-1.625
  0
LINE
  8
0
 10
2.81458
 20
-1.625
 11
2.57838
 21
-1.97847
  0
LINE
  8
0
 10
2.57838
 20
-1.97847
 11
2.2981
 21
-2.2981
  0
LINE
  8
0
 10
2.2981
 20
-2.2981
 11
1.97847
 21
-2.57838
  0
LINE
  8
0
 10
1.97847
 20
-2.57838
 11
1.625
 21
-2.81458
  0
LINE
  8
0
 10
1.625
 20
-2.81458
 11
1.24371
 21
-3.00259
  0
LINE
  8
0
 10
1.24371
 20
-3.00259
 11
0.841156
 21
-3.13925
  0
LINE
  8
0
 10
0.841156
 20
-3.13925
 11
0.42421
 21
-3.22218
  0
LINE
  8
0
 10
0.42421
 20
-3.22218
 11
0
 21
-3.25
  0
LINE
  8
0
 10
0
 20
-3.25
 11
-0.42421
 21
-3.22218
  0
ENDSEC
  0
SECTION
  2
OBJECTS
  0
DICTIONARY
  0
ENDSEC
  0
EOF
