  0
SECTION
  2
HEADER
  9
$ACADVER
  1
AC1021
  9
$ACADMAINTVER
 70
    25
  9
$DWGCODEPAGE
  3
ANSI_1252
  9
$INSBASE
 10
0.0
 20
0.0
 30
0.0
  9
$EXTMIN
 10
-13.17646
 20
-17.52646
 30
0.0
  9
$EXTMAX
 10
-7.82354
 20
-12.17354
 30
0.0
  9
$LIMMIN
 10
0.0
 20
0.0
  9
$LIMMAX
 10
12.0
 20
9.0
  9
$ORTHOMODE
 70
     0
  9
$REGENMODE
 70
     1
  9
$FILLMODE
 70
     1
  9
$QTEXTMODE
 70
     0
  9
$MIRRTEXT
 70
     1
  9
$LTSCALE
 40
1.0
  9
$ATTMODE
 70
     1
  9
$TEXTSIZE
 40
0.2
  9
$TRACEWID
 40
0.05
  9
$TEXTSTYLE
  7
Standard
  9
$CLAYER
  8
0
  9
$CELTYPE
  6
ByLayer
  9
$CECOLOR
 62
   256
  9
$CELTSCALE
 40
1.0
  9
$DISPSILH
 70
     0
  9
$DIMSCALE
 40
1.0
  9
$DIMASZ
 40
0.18
  9
$DIMEXO
 40
0.0625
  9
$DIMDLI
 40
0.38
  9
$DIMRND
 40
0.0
  9
$DIMDLE
 40
0.0
  9
$DIMEXE
 40
0.18
  9
$DIMTP
 40
0.0
  9
$DIMTM
 40
0.0
  9
$DIMTXT
 40
0.18
  9
$DIMCEN
 40
0.09
  9
$DIMTSZ
 40
0.0
  9
$DIMTOL
 70
     0
  9
$DIMLIM
 70
     0
  9
$DIMTIH
 70
     1
  9
$DIMTOH
 70
     1
  9
$DIMSE1
 70
     0
  9
$DIMSE2
 70
     0
  9
$DIMTAD
 70
     0
  9
$DIMZIN
 70
     0
  9
$DIMBLK
  1

  9
$DIMASO
 70
     1
  9
$DIMSHO
 70
     1
  9
$DIMPOST
  1

  9
$DIMAPOST
  1

  9
$DIMALT
 70
     0
  9
$DIMALTD
 70
     2
  9
$DIMALTF
 40
25.4
  9
$DIMLFAC
 40
1.0
  9
$DIMTOFL
 70
     0
  9
$DIMTVP
 40
0.0
  9
$DIMTIX
 70
     0
  9
$DIMSOXD
 70
     0
  9
$DIMSAH
 70
     0
  9
$DIMBLK1
  1

  9
$DIMBLK2
  1

  9
$DIMSTYLE
  2
Standard
  9
$DIMCLRD
 70
     0
  9
$DIMCLRE
 70
     0
  9
$DIMCLRT
 70
     0
  9
$DIMTFAC
 40
1.0
  9
$DIMGAP
 40
0.09
  9
$DIMJUST
 70
     0
  9
$DIMSD1
 70
     0
  9
$DIMSD2
 70
     0
  9
$DIMTOLJ
 70
     1
  9
$DIMTZIN
 70
     0
  9
$DIMALTZ
 70
     0
  9
$DIMALTTZ
 70
     0
  9
$DIMUPT
 70
     0
  9
$DIMDEC
 70
     4
  9
$DIMTDEC
 70
     4
  9
$DIMALTU
 70
     2
  9
$DIMALTTD
 70
     2
  9
$DIMTXSTY
  7
Standard
  9
$DIMAUNIT
 70
     0
  9
$DIMADEC
 70
     0
  9
$DIMALTRND
 40
0.0
  9
$DIMAZIN
 70
     0
  9
$DIMDSEP
 70
    46
  9
$DIMATFIT
 70
     3
  9
$DIMFRAC
 70
     0
  9
$DIMLDRBLK
  1

  9
$DIMLUNIT
 70
     2
  9
$DIMLWD
 70
    -2
  9
$DIMLWE
 70
    -2
  9
$DIMTMOVE
 70
     0
  9
$DIMFXL
 40
1.0
  9
$DIMFXLON
 70
     0
  9
$DIMJOGANG
 40
0.7853981633974483
  9
$DIMTFILL
 70
     0
  9
$DIMTFILLCLR
 70
     0
  9
$DIMARCSYM
 70
     0
  9
$DIMLTYPE
  6

  9
$DIMLTEX1
  6

  9
$DIMLTEX2
  6

  9
$LUNITS
 70
     2
  9
$LUPREC
 70
     4
  9
$SKETCHINC
 40
0.1
  9
$FILLETRAD
 40
0.5
  9
$AUNITS
 70
     0
  9
$AUPREC
 70
     0
  9
$MENU
  1
.
  9
$ELEVATION
 40
0.0
  9
$PELEVATION
 40
0.0
  9
$THICKNESS
 40
0.0
  9
$LIMCHECK
 70
     0
  9
$CHAMFERA
 40
0.5
  9
$CHAMFERB
 40
0.5
  9
$CHAMFERC
 40
1.0
  9
$CHAMFERD
 40
0.0
  9
$SKPOLY
 70
     0
  9
$TDCREATE
 40
2457798.665344132
  9
$TDUCREATE
 40
2457798.665344132
  9
$TDUPDATE
 40
2457798.665344143
  9
$TDUUPDATE
 40
2457798.665344143
  9
$TDINDWG
 40
0.0000000116
  9
$TDUSRTIMER
 40
0.0000000116
  9
$USRTIMER
 70
     1
  9
$ANGBASE
 50
0.0
  9
$ANGDIR
 70
     0
  9
$PDMODE
 70
     0
  9
$PDSIZE
 40
0.0
  9
$PLINEWID
 40
0.0
  9
$SPLFRAME
 70
     0
  9
$SPLINETYPE
 70
     6
  9
$SPLINESEGS
 70
     8
  9
$HANDSEED
  5
7F
  9
$SURFTAB1
 70
     6
  9
$SURFTAB2
 70
     6
  9
$SURFTYPE
 70
     6
  9
$SURFU
 70
     6
  9
$SURFV
 70
     6
  9
$UCSBASE
  2

  9
$UCSNAME
  2

  9
$UCSORG
 10
0.0
 20
0.0
 30
0.0
  9
$UCSXDIR
 10
1.0
 20
0.0
 30
0.0
  9
$UCSYDIR
 10
0.0
 20
1.0
 30
0.0
  9
$UCSORTHOREF
  2

  9
$UCSORTHOVIEW
 70
     0
  9
$UCSORGTOP
 10
0.0
 20
0.0
 30
0.0
  9
$UCSORGBOTTOM
 10
0.0
 20
0.0
 30
0.0
  9
$UCSORGLEFT
 10
0.0
 20
0.0
 30
0.0
  9
$UCSORGRIGHT
 10
0.0
 20
0.0
 30
0.0
  9
$UCSORGFRONT
 10
0.0
 20
0.0
 30
0.0
  9
$UCSORGBACK
 10
0.0
 20
0.0
 30
0.0
  9
$PUCSBASE
  2

  9
$PUCSNAME
  2

  9
$PUCSORG
 10
0.0
 20
0.0
 30
0.0
  9
$PUCSXDIR
 10
1.0
 20
0.0
 30
0.0
  9
$PUCSYDIR
 10
0.0
 20
1.0
 30
0.0
  9
$PUCSORTHOREF
  2

  9
$PUCSORTHOVIEW
 70
     0
  9
$PUCSORGTOP
 10
0.0
 20
0.0
 30
0.0
  9
$PUCSORGBOTTOM
 10
0.0
 20
0.0
 30
0.0
  9
$PUCSORGLEFT
 10
0.0
 20
0.0
 30
0.0
  9
$PUCSORGRIGHT
 10
0.0
 20
0.0
 30
0.0
  9
$PUCSORGFRONT
 10
0.0
 20
0.0
 30
0.0
  9
$PUCSORGBACK
 10
0.0
 20
0.0
 30
0.0
  9
$USERI1
 70
     0
  9
$USERI2
 70
     0
  9
$USERI3
 70
     0
  9
$USERI4
 70
     0
  9
$USERI5
 70
     0
  9
$USERR1
 40
0.0
  9
$USERR2
 40
0.0
  9
$USERR3
 40
0.0
  9
$USERR4
 40
0.0
  9
$USERR5
 40
0.0
  9
$WORLDVIEW
 70
     1
  9
$SHADEDGE
 70
     3
  9
$SHADEDIF
 70
    70
  9
$TILEMODE
 70
     1
  9
$MAXACTVP
 70
    64
  9
$PINSBASE
 10
0.0
 20
0.0
 30
0.0
  9
$PLIMCHECK
 70
     0
  9
$PEXTMIN
 10
1.000000000000000E+20
 20
1.000000000000000E+20
 30
1.000000000000000E+20
  9
$PEXTMAX
 10
-1.000000000000000E+20
 20
-1.000000000000000E+20
 30
-1.000000000000000E+20
  9
$PLIMMIN
 10
0.0
 20
0.0
  9
$PLIMMAX
 10
12.0
 20
9.0
  9
$UNITMODE
 70
     0
  9
$VISRETAIN
 70
     1
  9
$PLINEGEN
 70
     0
  9
$PSLTSCALE
 70
     1
  9
$TREEDEPTH
 70
  3020
  9
$CMLSTYLE
  2
Standard
  9
$CMLJUST
 70
     0
  9
$CMLSCALE
 40
1.0
  9
$PROXYGRAPHICS
 70
     1
  9
$MEASUREMENT
 70
     0
  9
$CELWEIGHT
370
    -1
  9
$ENDCAPS
280
     0
  9
$JOINSTYLE
280
     0
  9
$LWDISPLAY
290
     0
  9
$INSUNITS
 70
     5
  9
$HYPERLINKBASE
  1

  9
$STYLESHEET
  1

  9
$XEDIT
290
     1
  9
$CEPSNTYPE
380
     0
  9
$PSTYLEMODE
290
     1
  9
$FINGERPRINTGUID
  2
{B6BAB5A2-220E-4371-94ED-D3DE74FA9BCB}
  9
$VERSIONGUID
  2
{FAEB1C32-E019-11D5-929B-00C0DF256EC4}
  9
$EXTNAMES
290
     1
  9
$PSVPSCALE
 40
0.0
  9
$OLESTARTUP
290
     0
  9
$SORTENTS
280
   127
  9
$INDEXCTL
280
     0
  9
$HIDETEXT
280
     1
  9
$XCLIPFRAME
290
     0
  9
$HALOGAP
280
     0
  9
$OBSCOLOR
 70
   257
  9
$OBSLTYPE
280
     0
  9
$INTERSECTIONDISPLAY
280
     0
  9
$INTERSECTIONCOLOR
 70
   257
  9
$DIMASSOC
280
     2
  9
$PROJECTNAME
  1

  9
$CAMERADISPLAY
290
     0
  9
$LENSLENGTH
 40
50.0
  9
$CAMERAHEIGHT
 40
0.0
  9
$STEPSPERSEC
 40
2.0
  9
$STEPSIZE
 40
6.0
  9
$3DDWFPREC
 40
2.0
  9
$PSOLWIDTH
 40
0.25
  9
$PSOLHEIGHT
 40
4.0
  9
$LOFTANG1
 40
1.570796326794897
  9
$LOFTANG2
 40
1.570796326794897
  9
$LOFTMAG1
 40
0.0
  9
$LOFTMAG2
 40
0.0
  9
$LOFTPARAM
 70
     7
  9
$LOFTNORMALS
280
     1
  9
$LATITUDE
 40
37.795
  9
$LONGITUDE
 40
-122.394
  9
$NORTHDIRECTION
 40
0.0
  9
$TIMEZONE
 70
 -8000
  9
$LIGHTGLYPHDISPLAY
280
     1
  9
$TILEMODELIGHTSYNCH
280
     1
  9
$SOLIDHIST
280
     1
  9
$SHOWHIST
280
     1
  9
$DWFFRAME
280
     2
  9
$DGNFRAME
280
     2
  9
$REALWORLDSCALE
290
     1
  9
$INTERFERECOLOR
 62
   256
  9
$CSHADOW
280
     0
  9
$SHADOWPLANELOCATION
 40
0.0
  0
ENDSEC
  0
SECTION
  2
CLASSES
  0
CLASS
  1
ACDBDICTIONARYWDFLT
  2
AcDbDictionaryWithDefault
  3
ObjectDBX Classes
 90
        0
 91
        3
280
     0
281
     0
  0
CLASS
  1
VISUALSTYLE
  2
AcDbVisualStyle
  3
ObjectDBX Classes
 90
     4095
 91
        3
280
     0
281
     0
  0
CLASS
  1
SCALE
  2
AcDbScale
  3
ObjectDBX Classes
 90
     1153
 91
        3
280
     0
281
     0
  0
ENDSEC
  0
SECTION
  2
TABLES
  0
TABLE
  2
VPORT
  5
8
330
0
100
AcDbSymbolTable
 70
     1
  0
VPORT
  5
29
330
8
100
AcDbSymbolTableRecord
100
AcDbViewportTableRecord
  2
*Active
 70
     0
 10
0.0
 20
0.0
 11
1.0
 21
1.0
 12
10.42990654205607
 22
4.5
 13
0.0
 23
0.0
 14
0.5
 24
0.5
 15
0.5
 25
0.5
 16
0.0
 26
0.0
 36
1.0
 17
0.0
 27
0.0
 37
0.0
 40
9.0
 41
1.972972972850329
 42
50.0
 43
0.0
 44
0.0
 50
0.0
 51
0.0
 71
     0
 72
   100
 73
     1
 74
     3
 75
     0
 76
     0
 77
     0
 78
     0
281
     0
 65
     1
110
0.0
120
0.0
130
0.0
111
1.0
121
0.0
131
0.0
112
0.0
122
1.0
132
0.0
 79
     0
146
0.0
 60
     3
 61
     5
292
     1
282
     1
141
0.0
142
0.0
 63
   256
  0
ENDTAB
  0
TABLE
  2
LTYPE
  5
5
330
0
100
AcDbSymbolTable
 70
     1
  0
LTYPE
  5
14
330
5
100
AcDbSymbolTableRecord
100
AcDbLinetypeTableRecord
  2
ByBlock
 70
     0
  3

 72
    65
 73
     0
 40
0.0
  0
LTYPE
  5
15
330
5
100
AcDbSymbolTableRecord
100
AcDbLinetypeTableRecord
  2
ByLayer
 70
     0
  3

 72
    65
 73
     0
 40
0.0
  0
LTYPE
  5
16
330
5
100
AcDbSymbolTableRecord
100
AcDbLinetypeTableRecord
  2
Continuous
 70
     0
  3
Solid line
 72
    65
 73
     0
 40
0.0
  0
ENDTAB
  0
TABLE
  2
LAYER
  5
2
330
0
100
AcDbSymbolTable
 70
     2
  0
LAYER
  5
10
330
2
100
AcDbSymbolTableRecord
100
AcDbLayerTableRecord
  2
0
 70
     0
 62
     7
  6
Continuous
370
    -3
390
F
347
0
  0
LAYER
  5
5E
330
2
100
AcDbSymbolTableRecord
100
AcDbLayerTableRecord
  2
Layer 1
 70
     0
 62
     7
  6
Continuous
370
    -3
390
F
347
0
  0
ENDTAB
  0
TABLE
  2
STYLE
  5
3
330
0
100
AcDbSymbolTable
 70
     1
  0
STYLE
  5
11
330
3
100
AcDbSymbolTableRecord
100
AcDbTextStyleTableRecord
  2
Standard
 70
     0
 40
0.0
 41
1.0
 50
0.0
 71
     0
 42
0.2
  3
txt
  4

  0
ENDTAB
  0
TABLE
  2
VIEW
  5
6
330
0
100
AcDbSymbolTable
 70
     0
  0
ENDTAB
  0
TABLE
  2
UCS
  5
7
330
0
100
AcDbSymbolTable
 70
     0
  0
ENDTAB
  0
TABLE
  2
APPID
  5
9
330
0
100
AcDbSymbolTable
 70
     2
  0
APPID
  5
12
330
9
100
AcDbSymbolTableRecord
100
AcDbRegAppTableRecord
  2
ACAD
 70
     0
  0
APPID
  5
5D
330
9
100
AcDbSymbolTableRecord
100
AcDbRegAppTableRecord
  2
ODA
 70
     0
  0
ENDTAB
  0
TABLE
  2
DIMSTYLE
  5
A
330
0
100
AcDbSymbolTable
 70
     1
100
AcDbDimStyleTable
  0
DIMSTYLE
105
27
330
A
100
AcDbSymbolTableRecord
100
AcDbDimStyleTableRecord
  2
Standard
 70
     0
340
11
  0
ENDTAB
  0
TABLE
  2
BLOCK_RECORD
  5
1
330
0
100
AcDbSymbolTable
 70
     1
  0
BLOCK_RECORD
  5
1F
330
1
100
AcDbSymbolTableRecord
100
AcDbBlockTableRecord
  2
*Model_Space
340
22
 70
     0
280
     1
281
     0
  0
BLOCK_RECORD
  5
1B
330
1
100
AcDbSymbolTableRecord
100
AcDbBlockTableRecord
  2
*Paper_Space
340
1E
 70
     0
280
     1
281
     0
  0
BLOCK_RECORD
  5
23
330
1
100
AcDbSymbolTableRecord
100
AcDbBlockTableRecord
  2
*Paper_Space0
340
26
 70
     0
280
     1
281
     0
  0
ENDTAB
  0
ENDSEC
  0
SECTION
  2
BLOCKS
  0
BLOCK
  5
20
330
1F
100
AcDbEntity
  8
0
100
AcDbBlockBegin
  2
*Model_Space
 70
     0
 10
0.0
 20
0.0
 30
0.0
  3
*Model_Space
  1

  0
ENDBLK
  5
21
330
1F
100
AcDbEntity
  8
0
100
AcDbBlockEnd
  0
BLOCK
  5
1C
330
1B
100
AcDbEntity
 67
     1
  8
0
100
AcDbBlockBegin
  2
*Paper_Space
 70
     0
 10
0.0
 20
0.0
 30
0.0
  3
*Paper_Space
  1

  0
ENDBLK
  5
1D
330
1B
100
AcDbEntity
 67
     1
  8
0
100
AcDbBlockEnd
  0
BLOCK
  5
24
330
23
100
AcDbEntity
  8
0
100
AcDbBlockBegin
  2
*Paper_Space0
 70
     0
 10
0.0
 20
0.0
 30
0.0
  3
*Paper_Space0
  1

  0
ENDBLK
  5
25
330
23
100
AcDbEntity
  8
0
100
AcDbBlockEnd
  0
ENDSEC
  0
SECTION
  2
ENTITIES
  0
SPLINE
  5
5F
330
1F
100
AcDbEntity
  8
Layer 1
370
    53
100
AcDbSpline
210
0.0
220
0.0
230
1.0
 70
    11
 71
     3
 72
    84
 73
    80
 74
     0
 42
0.0000000001
 43
0.0000000001
 40
0.0
 40
0.0
 40
0.0
 40
0.0
 40
0.05
 40
0.05
 40
0.05
 40
0.05
 40
0.1
 40
0.1
 40
0.1
 40
0.1
 40
0.15
 40
0.15
 40
0.15
 40
0.15
 40
0.2
 40
0.2
 40
0.2
 40
0.2
 40
0.25
 40
0.25
 40
0.25
 40
0.25
 40
0.3
 40
0.3
 40
0.3
 40
0.3
 40
0.35
 40
0.35
 40
0.35
 40
0.35
 40
0.4
 40
0.4
 40
0.4
 40
0.4
 40
0.45
 40
0.45
 40
0.45
 40
0.45
 40
0.4999999999999999
 40
0.4999999999999999
 40
0.4999999999999999
 40
0.4999999999999999
 40
0.5499999999999999
 40
0.5499999999999999
 40
0.5499999999999999
 40
0.5499999999999999
 40
0.6
 40
0.6
 40
0.6
 40
0.6
 40
0.65
 40
0.65
 40
0.65
 40
0.65
 40
0.7000000000000001
 40
0.7000000000000001
 40
0.7000000000000001
 40
0.7000000000000001
 40
0.7500000000000001
 40
0.7500000000000001
 40
0.7500000000000001
 40
0.7500000000000001
 40
0.8000000000000002
 40
0.8000000000000002
 40
0.8000000000000002
 40
0.8000000000000002
 40
0.8500000000000002
 40
0.8500000000000002
 40
0.8500000000000002
 40
0.8500000000000002
 40
0.9000000000000002
 40
0.9000000000000002
 40
0.9000000000000002
 40
0.9000000000000002
 40
0.9500000000000003
 40
0.9500000000000003
 40
0.9500000000000003
 40
0.9500000000000003
 40
1.0
 40
1.0
 40
1.0
 40
1.0
 10
-12.35
 20
-12.55
 30
0.0
 10
-12.35
 20
-12.55
 30
0.0
 10
-12.35
 20
-12.59015
 30
0.0
 10
-12.35
 20
-12.59015
 30
0.0
 10
-12.35
 20
-12.59015
 30
0.0
 10
-12.30447
 20
-12.6165
 30
0.0
 10
-12.2665
 20
-12.65447
 30
0.0
 10
-12.24015
 20
-12.7
 30
0.0
 10
-12.24015
 20
-12.7
 30
0.0
 10
-12.24015
 20
-12.7
 30
0.0
 10
-12.2
 20
-12.7
 30
0.0
 10
-12.2
 20
-12.7
 30
0.0
 10
-12.2
 20
-12.7
 30
0.0
 10
-12.2
 20
-12.7
 30
0.0
 10
-12.2
 20
-12.85
 30
0.0
 10
-12.2
 20
-12.85
 30
0.0
 10
-12.2
 20
-12.85
 30
0.0
 10
-12.2
 20
-12.85
 30
0.0
 10
-12.2
 20
-13.0
 30
0.0
 10
-12.2
 20
-13.0
 30
0.0
 10
-12.2
 20
-13.0
 30
0.0
 10
-12.2
 20
-13.0
 30
0.0
 10
-12.24015
 20
-13.0
 30
0.0
 10
-12.24015
 20
-13.0
 30
0.0
 10
-12.24015
 20
-13.0
 30
0.0
 10
-12.2665
 20
-13.04553
 30
0.0
 10
-12.30447
 20
-13.0835
 30
0.0
 10
-12.35
 20
-13.10985
 30
0.0
 10
-12.35
 20
-13.10985
 30
0.0
 10
-12.35
 20
-13.10985
 30
0.0
 10
-12.35
 20
-13.15
 30
0.0
 10
-12.35
 20
-13.15
 30
0.0
 10
-12.35
 20
-13.15
 30
0.0
 10
-12.35
 20
-13.15
 30
0.0
 10
-12.5
 20
-13.15
 30
0.0
 10
-12.5
 20
-13.15
 30
0.0
 10
-12.5
 20
-13.15
 30
0.0
 10
-12.5
 20
-13.15
 30
0.0
 10
-12.65
 20
-13.15
 30
0.0
 10
-12.65
 20
-13.15
 30
0.0
 10
-12.65
 20
-13.15
 30
0.0
 10
-12.65
 20
-13.15
 30
0.0
 10
-12.65
 20
-13.10985
 30
0.0
 10
-12.65
 20
-13.10985
 30
0.0
 10
-12.65
 20
-13.10985
 30
0.0
 10
-12.69553
 20
-13.0835
 30
0.0
 10
-12.7335
 20
-13.04553
 30
0.0
 10
-12.75985
 20
-13.0
 30
0.0
 10
-12.75985
 20
-13.0
 30
0.0
 10
-12.75985
 20
-13.0
 30
0.0
 10
-12.8
 20
-13.0
 30
0.0
 10
-12.8
 20
-13.0
 30
0.0
 10
-12.8
 20
-13.0
 30
0.0
 10
-12.8
 20
-13.0
 30
0.0
 10
-12.8
 20
-12.85
 30
0.0
 10
-12.8
 20
-12.85
 30
0.0
 10
-12.8
 20
-12.85
 30
0.0
 10
-12.8
 20
-12.85
 30
0.0
 10
-12.8
 20
-12.7
 30
0.0
 10
-12.8
 20
-12.7
 30
0.0
 10
-12.8
 20
-12.7
 30
0.0
 10
-12.8
 20
-12.7
 30
0.0
 10
-12.75985
 20
-12.7
 30
0.0
 10
-12.75985
 20
-12.7
 30
0.0
 10
-12.75985
 20
-12.7
 30
0.0
 10
-12.7335
 20
-12.65447
 30
0.0
 10
-12.69553
 20
-12.6165
 30
0.0
 10
-12.65
 20
-12.59015
 30
0.0
 10
-12.65
 20
-12.59015
 30
0.0
 10
-12.65
 20
-12.59015
 30
0.0
 10
-12.65
 20
-12.55
 30
0.0
 10
-12.65
 20
-12.55
 30
0.0
 10
-12.65
 20
-12.55
 30
0.0
 10
-12.65
 20
-12.55
 30
0.0
 10
-12.5
 20
-12.55
 30
0.0
 10
-12.5
 20
-12.55
 30
0.0
 10
-12.5
 20
-12.55
 30
0.0
 10
-12.5
 20
-12.55
 30
0.0
 10
-12.35
 20
-12.55
 30
0.0
 10
-12.35
 20
-12.55
 30
0.0
  0
SPLINE
  5
60
330
1F
100
AcDbEntity
  8
Layer 1
370
    53
100
AcDbSpline
210
0.0
220
0.0
230
1.0
 70
    11
 71
     3
 72
    84
 73
    80
 74
     0
 42
0.0000000001
 43
0.0000000001
 40
0.0
 40
0.0
 40
0.0
 40
0.0
 40
0.05
 40
0.05
 40
0.05
 40
0.05
 40
0.1
 40
0.1
 40
0.1
 40
0.1
 40
0.15
 40
0.15
 40
0.15
 40
0.15
 40
0.2
 40
0.2
 40
0.2
 40
0.2
 40
0.25
 40
0.25
 40
0.25
 40
0.25
 40
0.3
 40
0.3
 40
0.3
 40
0.3
 40
0.35
 40
0.35
 40
0.35
 40
0.35
 40
0.4
 40
0.4
 40
0.4
 40
0.4
 40
0.45
 40
0.45
 40
0.45
 40
0.45
 40
0.4999999999999999
 40
0.4999999999999999
 40
0.4999999999999999
 40
0.4999999999999999
 40
0.5499999999999999
 40
0.5499999999999999
 40
0.5499999999999999
 40
0.5499999999999999
 40
0.6
 40
0.6
 40
0.6
 40
0.6
 40
0.65
 40
0.65
 40
0.65
 40
0.65
 40
0.7000000000000001
 40
0.7000000000000001
 40
0.7000000000000001
 40
0.7000000000000001
 40
0.7500000000000001
 40
0.7500000000000001
 40
0.7500000000000001
 40
0.7500000000000001
 40
0.8000000000000002
 40
0.8000000000000002
 40
0.8000000000000002
 40
0.8000000000000002
 40
0.8500000000000002
 40
0.8500000000000002
 40
0.8500000000000002
 40
0.8500000000000002
 40
0.9000000000000002
 40
0.9000000000000002
 40
0.9000000000000002
 40
0.9000000000000002
 40
0.9500000000000003
 40
0.9500000000000003
 40
0.9500000000000003
 40
0.9500000000000003
 40
1.0
 40
1.0
 40
1.0
 40
1.0
 10
-8.35
 20
-12.55
 30
0.0
 10
-8.35
 20
-12.55
 30
0.0
 10
-8.35
 20
-12.59015
 30
0.0
 10
-8.35
 20
-12.59015
 30
0.0
 10
-8.35
 20
-12.59015
 30
0.0
 10
-8.30447
 20
-12.6165
 30
0.0
 10
-8.2665
 20
-12.65447
 30
0.0
 10
-8.24015
 20
-12.7
 30
0.0
 10
-8.24015
 20
-12.7
 30
0.0
 10
-8.24015
 20
-12.7
 30
0.0
 10
-8.2
 20
-12.7
 30
0.0
 10
-8.2
 20
-12.7
 30
0.0
 10
-8.2
 20
-12.7
 30
0.0
 10
-8.2
 20
-12.7
 30
0.0
 10
-8.2
 20
-12.85
 30
0.0
 10
-8.2
 20
-12.85
 30
0.0
 10
-8.2
 20
-12.85
 30
0.0
 10
-8.2
 20
-12.85
 30
0.0
 10
-8.2
 20
-13.0
 30
0.0
 10
-8.2
 20
-13.0
 30
0.0
 10
-8.2
 20
-13.0
 30
0.0
 10
-8.2
 20
-13.0
 30
0.0
 10
-8.24015
 20
-13.0
 30
0.0
 10
-8.24015
 20
-13.0
 30
0.0
 10
-8.24015
 20
-13.0
 30
0.0
 10
-8.2665
 20
-13.04553
 30
0.0
 10
-8.30447
 20
-13.0835
 30
0.0
 10
-8.35
 20
-13.10985
 30
0.0
 10
-8.35
 20
-13.10985
 30
0.0
 10
-8.35
 20
-13.10985
 30
0.0
 10
-8.35
 20
-13.15
 30
0.0
 10
-8.35
 20
-13.15
 30
0.0
 10
-8.35
 20
-13.15
 30
0.0
 10
-8.35
 20
-13.15
 30
0.0
 10
-8.5
 20
-13.15
 30
0.0
 10
-8.5
 20
-13.15
 30
0.0
 10
-8.5
 20
-13.15
 30
0.0
 10
-8.5
 20
-13.15
 30
0.0
 10
-8.65
 20
-13.15
 30
0.0
 10
-8.65
 20
-13.15
 30
0.0
 10
-8.65
 20
-13.15
 30
0.0
 10
-8.65
 20
-13.15
 30
0.0
 10
-8.65
 20
-13.10985
 30
0.0
 10
-8.65
 20
-13.10985
 30
0.0
 10
-8.65
 20
-13.10985
 30
0.0
 10
-8.69553
 20
-13.0835
 30
0.0
 10
-8.7335
 20
-13.04553
 30
0.0
 10
-8.75985
 20
-13.0
 30
0.0
 10
-8.75985
 20
-13.0
 30
0.0
 10
-8.75985
 20
-13.0
 30
0.0
 10
-8.8
 20
-13.0
 30
0.0
 10
-8.8
 20
-13.0
 30
0.0
 10
-8.8
 20
-13.0
 30
0.0
 10
-8.8
 20
-13.0
 30
0.0
 10
-8.8
 20
-12.85
 30
0.0
 10
-8.8
 20
-12.85
 30
0.0
 10
-8.8
 20
-12.85
 30
0.0
 10
-8.8
 20
-12.85
 30
0.0
 10
-8.8
 20
-12.7
 30
0.0
 10
-8.8
 20
-12.7
 30
0.0
 10
-8.8
 20
-12.7
 30
0.0
 10
-8.8
 20
-12.7
 30
0.0
 10
-8.75985
 20
-12.7
 30
0.0
 10
-8.75985
 20
-12.7
 30
0.0
 10
-8.75985
 20
-12.7
 30
0.0
 10
-8.7335
 20
-12.65447
 30
0.0
 10
-8.69553
 20
-12.6165
 30
0.0
 10
-8.65
 20
-12.59015
 30
0.0
 10
-8.65
 20
-12.59015
 30
0.0
 10
-8.65
 20
-12.59015
 30
0.0
 10
-8.65
 20
-12.55
 30
0.0
 10
-8.65
 20
-12.55
 30
0.0
 10
-8.65
 20
-12.55
 30
0.0
 10
-8.65
 20
-12.55
 30
0.0
 10
-8.5
 20
-12.55
 30
0.0
 10
-8.5
 20
-12.55
 30
0.0
 10
-8.5
 20
-12.55
 30
0.0
 10
-8.5
 20
-12.55
 30
0.0
 10
-8.35
 20
-12.55
 30
0.0
 10
-8.35
 20
-12.55
 30
0.0
  0
SPLINE
  5
61
330
1F
100
AcDbEntity
  8
Layer 1
370
    53
100
AcDbSpline
210
0.0
220
0.0
230
1.0
 70
    11
 71
     3
 72
    20
 73
    16
 74
     0
 42
0.0000000001
 43
0.0000000001
 40
0.0
 40
0.0
 40
0.0
 40
0.0
 40
0.25
 40
0.25
 40
0.25
 40
0.25
 40
0.5
 40
0.5
 40
0.5
 40
0.5
 40
0.75
 40
0.75
 40
0.75
 40
0.75
 40
1.0
 40
1.0
 40
1.0
 40
1.0
 10
-11.2
 20
-12.7
 30
0.0
 10
-11.2
 20
-12.7
 30
0.0
 10
-11.2
 20
-13.0
 30
0.0
 10
-11.2
 20
-13.0
 30
0.0
 10
-11.2
 20
-13.0
 30
0.0
 10
-11.2
 20
-13.0
 30
0.0
 10
-11.8
 20
-13.0
 30
0.0
 10
-11.8
 20
-13.0
 30
0.0
 10
-11.8
 20
-13.0
 30
0.0
 10
-11.8
 20
-13.0
 30
0.0
 10
-11.8
 20
-12.7
 30
0.0
 10
-11.8
 20
-12.7
 30
0.0
 10
-11.8
 20
-12.7
 30
0.0
 10
-11.8
 20
-12.7
 30
0.0
 10
-11.2
 20
-12.7
 30
0.0
 10
-11.2
 20
-12.7
 30
0.0
  0
SPLINE
  5
62
330
1F
100
AcDbEntity
  8
Layer 1
370
    53
100
AcDbSpline
210
0.0
220
0.0
230
1.0
 70
    11
 71
     3
 72
    20
 73
    16
 74
     0
 42
0.0000000001
 43
0.0000000001
 40
0.0
 40
0.0
 40
0.0
 40
0.0
 40
0.25
 40
0.25
 40
0.25
 40
0.25
 40
0.5
 40
0.5
 40
0.5
 40
0.5
 40
0.75
 40
0.75
 40
0.75
 40
0.75
 40
1.0
 40
1.0
 40
1.0
 40
1.0
 10
-9.2
 20
-12.7
 30
0.0
 10
-9.2
 20
-12.7
 30
0.0
 10
-9.2
 20
-13.0
 30
0.0
 10
-9.2
 20
-13.0
 30
0.0
 10
-9.2
 20
-13.0
 30
0.0
 10
-9.2
 20
-13.0
 30
0.0
 10
-9.8
 20
-13.0
 30
0.0
 10
-9.8
 20
-13.0
 30
0.0
 10
-9.8
 20
-13.0
 30
0.0
 10
-9.8
 20
-13.0
 30
0.0
 10
-9.8
 20
-12.7
 30
0.0
 10
-9.8
 20
-12.7
 30
0.0
 10
-9.8
 20
-12.7
 30
0.0
 10
-9.8
 20
-12.7
 30
0.0
 10
-9.2
 20
-12.7
 30
0.0
 10
-9.2
 20
-12.7
 30
0.0
  0
SPLINE
  5
63
330
1F
100
AcDbEntity
  8
Layer 1
370
    53
100
AcDbSpline
210
0.0
220
0.0
230
1.0
 70
    11
 71
     3
 72
    84
 73
    80
 74
     0
 42
0.0000000001
 43
0.0000000001
 40
0.0
 40
0.0
 40
0.0
 40
0.0
 40
0.05
 40
0.05
 40
0.05
 40
0.05
 40
0.1
 40
0.1
 40
0.1
 40
0.1
 40
0.15
 40
0.15
 40
0.15
 40
0.15
 40
0.2
 40
0.2
 40
0.2
 40
0.2
 40
0.25
 40
0.25
 40
0.25
 40
0.25
 40
0.3
 40
0.3
 40
0.3
 40
0.3
 40
0.35
 40
0.35
 40
0.35
 40
0.35
 40
0.4
 40
0.4
 40
0.4
 40
0.4
 40
0.45
 40
0.45
 40
0.45
 40
0.45
 40
0.4999999999999999
 40
0.4999999999999999
 40
0.4999999999999999
 40
0.4999999999999999
 40
0.5499999999999999
 40
0.5499999999999999
 40
0.5499999999999999
 40
0.5499999999999999
 40
0.6
 40
0.6
 40
0.6
 40
0.6
 40
0.65
 40
0.65
 40
0.65
 40
0.65
 40
0.7000000000000001
 40
0.7000000000000001
 40
0.7000000000000001
 40
0.7000000000000001
 40
0.7500000000000001
 40
0.7500000000000001
 40
0.7500000000000001
 40
0.7500000000000001
 40
0.8000000000000002
 40
0.8000000000000002
 40
0.8000000000000002
 40
0.8000000000000002
 40
0.8500000000000002
 40
0.8500000000000002
 40
0.8500000000000002
 40
0.8500000000000002
 40
0.9000000000000002
 40
0.9000000000000002
 40
0.9000000000000002
 40
0.9000000000000002
 40
0.9500000000000003
 40
0.9500000000000003
 40
0.9500000000000003
 40
0.9500000000000003
 40
1.0
 40
1.0
 40
1.0
 40
1.0
 10
-12.35
 20
-16.55
 30
0.0
 10
-12.35
 20
-16.55
 30
0.0
 10
-12.35
 20
-16.59015
 30
0.0
 10
-12.35
 20
-16.59015
 30
0.0
 10
-12.35
 20
-16.59015
 30
0.0
 10
-12.30447
 20
-16.6165
 30
0.0
 10
-12.2665
 20
-16.65447
 30
0.0
 10
-12.24015
 20
-16.7
 30
0.0
 10
-12.24015
 20
-16.7
 30
0.0
 10
-12.24015
 20
-16.7
 30
0.0
 10
-12.2
 20
-16.7
 30
0.0
 10
-12.2
 20
-16.7
 30
0.0
 10
-12.2
 20
-16.7
 30
0.0
 10
-12.2
 20
-16.7
 30
0.0
 10
-12.2
 20
-16.85
 30
0.0
 10
-12.2
 20
-16.85
 30
0.0
 10
-12.2
 20
-16.85
 30
0.0
 10
-12.2
 20
-16.85
 30
0.0
 10
-12.2
 20
-17.0
 30
0.0
 10
-12.2
 20
-17.0
 30
0.0
 10
-12.2
 20
-17.0
 30
0.0
 10
-12.2
 20
-17.0
 30
0.0
 10
-12.24015
 20
-17.0
 30
0.0
 10
-12.24015
 20
-17.0
 30
0.0
 10
-12.24015
 20
-17.0
 30
0.0
 10
-12.2665
 20
-17.04553
 30
0.0
 10
-12.30447
 20
-17.0835
 30
0.0
 10
-12.35
 20
-17.10985
 30
0.0
 10
-12.35
 20
-17.10985
 30
0.0
 10
-12.35
 20
-17.10985
 30
0.0
 10
-12.35
 20
-17.15
 30
0.0
 10
-12.35
 20
-17.15
 30
0.0
 10
-12.35
 20
-17.15
 30
0.0
 10
-12.35
 20
-17.15
 30
0.0
 10
-12.5
 20
-17.15
 30
0.0
 10
-12.5
 20
-17.15
 30
0.0
 10
-12.5
 20
-17.15
 30
0.0
 10
-12.5
 20
-17.15
 30
0.0
 10
-12.65
 20
-17.15
 30
0.0
 10
-12.65
 20
-17.15
 30
0.0
 10
-12.65
 20
-17.15
 30
0.0
 10
-12.65
 20
-17.15
 30
0.0
 10
-12.65
 20
-17.10985
 30
0.0
 10
-12.65
 20
-17.10985
 30
0.0
 10
-12.65
 20
-17.10985
 30
0.0
 10
-12.69553
 20
-17.0835
 30
0.0
 10
-12.7335
 20
-17.04553
 30
0.0
 10
-12.75985
 20
-17.0
 30
0.0
 10
-12.75985
 20
-17.0
 30
0.0
 10
-12.75985
 20
-17.0
 30
0.0
 10
-12.8
 20
-17.0
 30
0.0
 10
-12.8
 20
-17.0
 30
0.0
 10
-12.8
 20
-17.0
 30
0.0
 10
-12.8
 20
-17.0
 30
0.0
 10
-12.8
 20
-16.85
 30
0.0
 10
-12.8
 20
-16.85
 30
0.0
 10
-12.8
 20
-16.85
 30
0.0
 10
-12.8
 20
-16.85
 30
0.0
 10
-12.8
 20
-16.7
 30
0.0
 10
-12.8
 20
-16.7
 30
0.0
 10
-12.8
 20
-16.7
 30
0.0
 10
-12.8
 20
-16.7
 30
0.0
 10
-12.75985
 20
-16.7
 30
0.0
 10
-12.75985
 20
-16.7
 30
0.0
 10
-12.75985
 20
-16.7
 30
0.0
 10
-12.7335
 20
-16.65447
 30
0.0
 10
-12.69553
 20
-16.6165
 30
0.0
 10
-12.65
 20
-16.59015
 30
0.0
 10
-12.65
 20
-16.59015
 30
0.0
 10
-12.65
 20
-16.59015
 30
0.0
 10
-12.65
 20
-16.55
 30
0.0
 10
-12.65
 20
-16.55
 30
0.0
 10
-12.65
 20
-16.55
 30
0.0
 10
-12.65
 20
-16.55
 30
0.0
 10
-12.5
 20
-16.55
 30
0.0
 10
-12.5
 20
-16.55
 30
0.0
 10
-12.5
 20
-16.55
 30
0.0
 10
-12.5
 20
-16.55
 30
0.0
 10
-12.35
 20
-16.55
 30
0.0
 10
-12.35
 20
-16.55
 30
0.0
  0
SPLINE
  5
64
330
1F
100
AcDbEntity
  8
Layer 1
370
    53
100
AcDbSpline
210
0.0
220
0.0
230
1.0
 70
    11
 71
     3
 72
    84
 73
    80
 74
     0
 42
0.0000000001
 43
0.0000000001
 40
0.0
 40
0.0
 40
0.0
 40
0.0
 40
0.05
 40
0.05
 40
0.05
 40
0.05
 40
0.1
 40
0.1
 40
0.1
 40
0.1
 40
0.15
 40
0.15
 40
0.15
 40
0.15
 40
0.2
 40
0.2
 40
0.2
 40
0.2
 40
0.25
 40
0.25
 40
0.25
 40
0.25
 40
0.3
 40
0.3
 40
0.3
 40
0.3
 40
0.35
 40
0.35
 40
0.35
 40
0.35
 40
0.4
 40
0.4
 40
0.4
 40
0.4
 40
0.45
 40
0.45
 40
0.45
 40
0.45
 40
0.4999999999999999
 40
0.4999999999999999
 40
0.4999999999999999
 40
0.4999999999999999
 40
0.5499999999999999
 40
0.5499999999999999
 40
0.5499999999999999
 40
0.5499999999999999
 40
0.6
 40
0.6
 40
0.6
 40
0.6
 40
0.65
 40
0.65
 40
0.65
 40
0.65
 40
0.7000000000000001
 40
0.7000000000000001
 40
0.7000000000000001
 40
0.7000000000000001
 40
0.7500000000000001
 40
0.7500000000000001
 40
0.7500000000000001
 40
0.7500000000000001
 40
0.8000000000000002
 40
0.8000000000000002
 40
0.8000000000000002
 40
0.8000000000000002
 40
0.8500000000000002
 40
0.8500000000000002
 40
0.8500000000000002
 40
0.8500000000000002
 40
0.9000000000000002
 40
0.9000000000000002
 40
0.9000000000000002
 40
0.9000000000000002
 40
0.9500000000000003
 40
0.9500000000000003
 40
0.9500000000000003
 40
0.9500000000000003
 40
1.0
 40
1.0
 40
1.0
 40
1.0
 10
-8.35
 20
-16.55
 30
0.0
 10
-8.35
 20
-16.55
 30
0.0
 10
-8.35
 20
-16.59015
 30
0.0
 10
-8.35
 20
-16.59015
 30
0.0
 10
-8.35
 20
-16.59015
 30
0.0
 10
-8.30447
 20
-16.6165
 30
0.0
 10
-8.2665
 20
-16.65447
 30
0.0
 10
-8.24015
 20
-16.7
 30
0.0
 10
-8.24015
 20
-16.7
 30
0.0
 10
-8.24015
 20
-16.7
 30
0.0
 10
-8.2
 20
-16.7
 30
0.0
 10
-8.2
 20
-16.7
 30
0.0
 10
-8.2
 20
-16.7
 30
0.0
 10
-8.2
 20
-16.7
 30
0.0
 10
-8.2
 20
-16.85
 30
0.0
 10
-8.2
 20
-16.85
 30
0.0
 10
-8.2
 20
-16.85
 30
0.0
 10
-8.2
 20
-16.85
 30
0.0
 10
-8.2
 20
-17.0
 30
0.0
 10
-8.2
 20
-17.0
 30
0.0
 10
-8.2
 20
-17.0
 30
0.0
 10
-8.2
 20
-17.0
 30
0.0
 10
-8.24015
 20
-17.0
 30
0.0
 10
-8.24015
 20
-17.0
 30
0.0
 10
-8.24015
 20
-17.0
 30
0.0
 10
-8.2665
 20
-17.04553
 30
0.0
 10
-8.30447
 20
-17.0835
 30
0.0
 10
-8.35
 20
-17.10985
 30
0.0
 10
-8.35
 20
-17.10985
 30
0.0
 10
-8.35
 20
-17.10985
 30
0.0
 10
-8.35
 20
-17.15
 30
0.0
 10
-8.35
 20
-17.15
 30
0.0
 10
-8.35
 20
-17.15
 30
0.0
 10
-8.35
 20
-17.15
 30
0.0
 10
-8.5
 20
-17.15
 30
0.0
 10
-8.5
 20
-17.15
 30
0.0
 10
-8.5
 20
-17.15
 30
0.0
 10
-8.5
 20
-17.15
 30
0.0
 10
-8.65
 20
-17.15
 30
0.0
 10
-8.65
 20
-17.15
 30
0.0
 10
-8.65
 20
-17.15
 30
0.0
 10
-8.65
 20
-17.15
 30
0.0
 10
-8.65
 20
-17.10985
 30
0.0
 10
-8.65
 20
-17.10985
 30
0.0
 10
-8.65
 20
-17.10985
 30
0.0
 10
-8.69553
 20
-17.0835
 30
0.0
 10
-8.7335
 20
-17.04553
 30
0.0
 10
-8.75985
 20
-17.0
 30
0.0
 10
-8.75985
 20
-17.0
 30
0.0
 10
-8.75985
 20
-17.0
 30
0.0
 10
-8.8
 20
-17.0
 30
0.0
 10
-8.8
 20
-17.0
 30
0.0
 10
-8.8
 20
-17.0
 30
0.0
 10
-8.8
 20
-17.0
 30
0.0
 10
-8.8
 20
-16.85
 30
0.0
 10
-8.8
 20
-16.85
 30
0.0
 10
-8.8
 20
-16.85
 30
0.0
 10
-8.8
 20
-16.85
 30
0.0
 10
-8.8
 20
-16.7
 30
0.0
 10
-8.8
 20
-16.7
 30
0.0
 10
-8.8
 20
-16.7
 30
0.0
 10
-8.8
 20
-16.7
 30
0.0
 10
-8.75985
 20
-16.7
 30
0.0
 10
-8.75985
 20
-16.7
 30
0.0
 10
-8.75985
 20
-16.7
 30
0.0
 10
-8.7335
 20
-16.65447
 30
0.0
 10
-8.69553
 20
-16.6165
 30
0.0
 10
-8.65
 20
-16.59015
 30
0.0
 10
-8.65
 20
-16.59015
 30
0.0
 10
-8.65
 20
-16.59015
 30
0.0
 10
-8.65
 20
-16.55
 30
0.0
 10
-8.65
 20
-16.55
 30
0.0
 10
-8.65
 20
-16.55
 30
0.0
 10
-8.65
 20
-16.55
 30
0.0
 10
-8.5
 20
-16.55
 30
0.0
 10
-8.5
 20
-16.55
 30
0.0
 10
-8.5
 20
-16.55
 30
0.0
 10
-8.5
 20
-16.55
 30
0.0
 10
-8.35
 20
-16.55
 30
0.0
 10
-8.35
 20
-16.55
 30
0.0
  0
SPLINE
  5
65
330
1F
100
AcDbEntity
  8
Layer 1
370
    53
100
AcDbSpline
210
0.0
220
0.0
230
1.0
 70
    11
 71
     3
 72
    20
 73
    16
 74
     0
 42
0.0000000001
 43
0.0000000001
 40
0.0
 40
0.0
 40
0.0
 40
0.0
 40
0.25
 40
0.25
 40
0.25
 40
0.25
 40
0.5
 40
0.5
 40
0.5
 40
0.5
 40
0.75
 40
0.75
 40
0.75
 40
0.75
 40
1.0
 40
1.0
 40
1.0
 40
1.0
 10
-12.35
 20
-13.55
 30
0.0
 10
-12.35
 20
-13.55
 30
0.0
 10
-12.35
 20
-14.15
 30
0.0
 10
-12.35
 20
-14.15
 30
0.0
 10
-12.35
 20
-14.15
 30
0.0
 10
-12.35
 20
-14.15
 30
0.0
 10
-12.65
 20
-14.15
 30
0.0
 10
-12.65
 20
-14.15
 30
0.0
 10
-12.65
 20
-14.15
 30
0.0
 10
-12.65
 20
-14.15
 30
0.0
 10
-12.65
 20
-13.55
 30
0.0
 10
-12.65
 20
-13.55
 30
0.0
 10
-12.65
 20
-13.55
 30
0.0
 10
-12.65
 20
-13.55
 30
0.0
 10
-12.35
 20
-13.55
 30
0.0
 10
-12.35
 20
-13.55
 30
0.0
  0
SPLINE
  5
66
330
1F
100
AcDbEntity
  8
Layer 1
370
    53
100
AcDbSpline
210
0.0
220
0.0
230
1.0
 70
    11
 71
     3
 72
    20
 73
    16
 74
     0
 42
0.0000000001
 43
0.0000000001
 40
0.0
 40
0.0
 40
0.0
 40
0.0
 40
0.25
 40
0.25
 40
0.25
 40
0.25
 40
0.5
 40
0.5
 40
0.5
 40
0.5
 40
0.75
 40
0.75
 40
0.75
 40
0.75
 40
1.0
 40
1.0
 40
1.0
 40
1.0
 10
-12.35
 20
-15.55
 30
0.0
 10
-12.35
 20
-15.55
 30
0.0
 10
-12.35
 20
-16.15
 30
0.0
 10
-12.35
 20
-16.15
 30
0.0
 10
-12.35
 20
-16.15
 30
0.0
 10
-12.35
 20
-16.15
 30
0.0
 10
-12.65
 20
-16.15
 30
0.0
 10
-12.65
 20
-16.15
 30
0.0
 10
-12.65
 20
-16.15
 30
0.0
 10
-12.65
 20
-16.15
 30
0.0
 10
-12.65
 20
-15.55
 30
0.0
 10
-12.65
 20
-15.55
 30
0.0
 10
-12.65
 20
-15.55
 30
0.0
 10
-12.65
 20
-15.55
 30
0.0
 10
-12.35
 20
-15.55
 30
0.0
 10
-12.35
 20
-15.55
 30
0.0
  0
SPLINE
  5
67
330
1F
100
AcDbEntity
  8
Layer 1
370
    53
100
AcDbSpline
210
0.0
220
0.0
230
1.0
 70
    11
 71
     3
 72
    20
 73
    16
 74
     0
 42
0.0000000001
 43
0.0000000001
 40
0.0
 40
0.0
 40
0.0
 40
0.0
 40
0.25
 40
0.25
 40
0.25
 40
0.25
 40
0.5
 40
0.5
 40
0.5
 40
0.5
 40
0.75
 40
0.75
 40
0.75
 40
0.75
 40
1.0
 40
1.0
 40
1.0
 40
1.0
 10
-8.35
 20
-13.55
 30
0.0
 10
-8.35
 20
-13.55
 30
0.0
 10
-8.35
 20
-14.15
 30
0.0
 10
-8.35
 20
-14.15
 30
0.0
 10
-8.35
 20
-14.15
 30
0.0
 10
-8.35
 20
-14.15
 30
0.0
 10
-8.65
 20
-14.15
 30
0.0
 10
-8.65
 20
-14.15
 30
0.0
 10
-8.65
 20
-14.15
 30
0.0
 10
-8.65
 20
-14.15
 30
0.0
 10
-8.65
 20
-13.55
 30
0.0
 10
-8.65
 20
-13.55
 30
0.0
 10
-8.65
 20
-13.55
 30
0.0
 10
-8.65
 20
-13.55
 30
0.0
 10
-8.35
 20
-13.55
 30
0.0
 10
-8.35
 20
-13.55
 30
0.0
  0
SPLINE
  5
68
330
1F
100
AcDbEntity
  8
Layer 1
370
    53
100
AcDbSpline
210
0.0
220
0.0
230
1.0
 70
    11
 71
     3
 72
    20
 73
    16
 74
     0
 42
0.0000000001
 43
0.0000000001
 40
0.0
 40
0.0
 40
0.0
 40
0.0
 40
0.25
 40
0.25
 40
0.25
 40
0.25
 40
0.5
 40
0.5
 40
0.5
 40
0.5
 40
0.75
 40
0.75
 40
0.75
 40
0.75
 40
1.0
 40
1.0
 40
1.0
 40
1.0
 10
-8.35
 20
-15.55
 30
0.0
 10
-8.35
 20
-15.55
 30
0.0
 10
-8.35
 20
-16.15
 30
0.0
 10
-8.35
 20
-16.15
 30
0.0
 10
-8.35
 20
-16.15
 30
0.0
 10
-8.35
 20
-16.15
 30
0.0
 10
-8.65
 20
-16.15
 30
0.0
 10
-8.65
 20
-16.15
 30
0.0
 10
-8.65
 20
-16.15
 30
0.0
 10
-8.65
 20
-16.15
 30
0.0
 10
-8.65
 20
-15.55
 30
0.0
 10
-8.65
 20
-15.55
 30
0.0
 10
-8.65
 20
-15.55
 30
0.0
 10
-8.65
 20
-15.55
 30
0.0
 10
-8.35
 20
-15.55
 30
0.0
 10
-8.35
 20
-15.55
 30
0.0
  0
SPLINE
  5
69
330
1F
100
AcDbEntity
  8
Layer 1
 62
     5
370
    53
100
AcDbSpline
210
0.0
220
0.0
230
1.0
 70
    11
 71
     3
 72
    36
 73
    32
 74
     0
 42
0.0000000001
 43
0.0000000001
 40
0.0
 40
0.0
 40
0.0
 40
0.0
 40
0.125
 40
0.125
 40
0.125
 40
0.125
 40
0.25
 40
0.25
 40
0.25
 40
0.25
 40
0.375
 40
0.375
 40
0.375
 40
0.375
 40
0.5
 40
0.5
 40
0.5
 40
0.5
 40
0.625
 40
0.625
 40
0.625
 40
0.625
 40
0.75
 40
0.75
 40
0.75
 40
0.75
 40
0.875
 40
0.875
 40
0.875
 40
0.875
 40
1.0
 40
1.0
 40
1.0
 40
1.0
 10
-11.53504
 20
-16.71643
 30
0.0
 10
-11.53504
 20
-16.71643
 30
0.0
 10
-11.53504
 20
-16.54752
 30
0.0
 10
-11.53504
 20
-16.54752
 30
0.0
 10
-11.53504
 20
-16.54752
 30
0.0
 10
-11.53504
 20
-16.54752
 30
0.0
 10
-11.31957
 20
-16.54752
 30
0.0
 10
-11.31957
 20
-16.54752
 30
0.0
 10
-11.31957
 20
-16.54752
 30
0.0
 10
-11.31957
 20
-16.54752
 30
0.0
 10
-11.31957
 20
-16.71643
 30
0.0
 10
-11.31957
 20
-16.71643
 30
0.0
 10
-11.31957
 20
-16.71643
 30
0.0
 10
-11.31957
 20
-16.71643
 30
0.0
 10
-11.31957
 20
-16.41163
 30
0.0
 10
-11.31957
 20
-16.41163
 30
0.0
 10
-11.31957
 20
-16.41163
 30
0.0
 10
-11.31957
 20
-16.41163
 30
0.0
 10
-11.31957
 20
-16.54752
 30
0.0
 10
-11.31957
 20
-16.54752
 30
0.0
 10
-11.31957
 20
-16.54752
 30
0.0
 10
-11.31957
 20
-16.54752
 30
0.0
 10
-11.53504
 20
-16.54752
 30
0.0
 10
-11.53504
 20
-16.54752
 30
0.0
 10
-11.53504
 20
-16.54752
 30
0.0
 10
-11.53504
 20
-16.54752
 30
0.0
 10
-11.53504
 20
-16.41163
 30
0.0
 10
-11.53504
 20
-16.41163
 30
0.0
 10
-11.53504
 20
-16.41163
 30
0.0
 10
-11.53504
 20
-16.41163
 30
0.0
 10
-11.53504
 20
-16.71643
 30
0.0
 10
-11.53504
 20
-16.71643
 30
0.0
  0
SPLINE
  5
6A
330
1F
100
AcDbEntity
  8
Layer 1
 62
     5
370
    53
100
AcDbSpline
210
0.0
220
0.0
230
1.0
 70
    11
 71
     3
 72
    20
 73
    16
 74
     0
 42
0.0000000001
 43
0.0000000001
 40
0.0
 40
0.0
 40
0.0
 40
0.0
 40
0.25
 40
0.25
 40
0.25
 40
0.25
 40
0.5
 40
0.5
 40
0.5
 40
0.5
 40
0.75
 40
0.75
 40
0.75
 40
0.75
 40
1.0
 40
1.0
 40
1.0
 40
1.0
 10
-10.94365
 20
-16.71643
 30
0.0
 10
-10.94365
 20
-16.71643
 30
0.0
 10
-11.12187
 20
-16.71643
 30
0.0
 10
-11.12187
 20
-16.71643
 30
0.0
 10
-11.12187
 20
-16.71643
 30
0.0
 10
-11.12187
 20
-16.71643
 30
0.0
 10
-11.12187
 20
-16.41121
 30
0.0
 10
-11.12187
 20
-16.41121
 30
0.0
 10
-11.12187
 20
-16.41121
 30
0.0
 10
-11.12187
 20
-16.41121
 30
0.0
 10
-11.12187
 20
-16.71643
 30
0.0
 10
-11.12187
 20
-16.71643
 30
0.0
 10
-11.12187
 20
-16.71643
 30
0.0
 10
-11.12187
 20
-16.71643
 30
0.0
 10
-10.94365
 20
-16.71643
 30
0.0
 10
-10.94365
 20
-16.71643
 30
0.0
  0
SPLINE
  5
6B
330
1F
100
AcDbEntity
  8
Layer 1
 62
     5
370
    53
100
AcDbSpline
210
0.0
220
0.0
230
1.0
 70
    27
 71
     3
 72
    12
 73
     8
 74
     0
 42
0.0000000001
 43
0.0000000001
 40
0.0
 40
0.0
 40
0.0
 40
0.0
 40
0.5
 40
0.5
 40
0.5
 40
0.5
 40
1.0
 40
1.0
 40
1.0
 40
1.0
 10
-10.84163
 20
-16.55683
 30
0.0
 10
-10.84163
 20
-16.55683
 30
0.0
 10
-10.71844
 20
-16.55683
 30
0.0
 10
-10.71844
 20
-16.55683
 30
0.0
 10
-10.71844
 20
-16.55683
 30
0.0
 10
-10.71844
 20
-16.55683
 30
0.0
 10
-10.84163
 20
-16.55683
 30
0.0
 10
-10.84163
 20
-16.55683
 30
0.0
  0
SPLINE
  5
6C
330
1F
100
AcDbEntity
  8
Layer 1
 62
     5
370
    53
100
AcDbSpline
210
0.0
220
0.0
230
1.0
 70
    11
 71
     3
 72
    20
 73
    16
 74
     0
 42
0.0000000001
 43
0.0000000001
 40
0.0
 40
0.0
 40
0.0
 40
0.0
 40
0.25
 40
0.25
 40
0.25
 40
0.25
 40
0.5
 40
0.5
 40
0.5
 40
0.5
 40
0.75
 40
0.75
 40
0.75
 40
0.75
 40
1.0
 40
1.0
 40
1.0
 40
1.0
 10
-10.6215
 20
-16.71643
 30
0.0
 10
-10.6215
 20
-16.71643
 30
0.0
 10
-10.50043
 20
-16.41121
 30
0.0
 10
-10.50043
 20
-16.41121
 30
0.0
 10
-10.50043
 20
-16.41121
 30
0.0
 10
-10.50043
 20
-16.41121
 30
0.0
 10
-10.37893
 20
-16.71643
 30
0.0
 10
-10.37893
 20
-16.71643
 30
0.0
 10
-10.37893
 20
-16.71643
 30
0.0
 10
-10.37893
 20
-16.71643
 30
0.0
 10
-10.50043
 20
-16.41121
 30
0.0
 10
-10.50043
 20
-16.41121
 30
0.0
 10
-10.50043
 20
-16.41121
 30
0.0
 10
-10.50043
 20
-16.41121
 30
0.0
 10
-10.6215
 20
-16.71643
 30
0.0
 10
-10.6215
 20
-16.71643
 30
0.0
  0
SPLINE
  5
6D
330
1F
100
AcDbEntity
  8
Layer 1
 62
     5
370
    53
100
AcDbSpline
210
0.0
220
0.0
230
1.0
 70
    27
 71
     3
 72
    12
 73
     8
 74
     0
 42
0.0000000001
 43
0.0000000001
 40
0.0
 40
0.0
 40
0.0
 40
0.0
 40
0.5
 40
0.5
 40
0.5
 40
0.5
 40
1.0
 40
1.0
 40
1.0
 40
1.0
 10
-10.5834
 20
-16.62033
 30
0.0
 10
-10.5834
 20
-16.62033
 30
0.0
 10
-10.41746
 20
-16.62033
 30
0.0
 10
-10.41746
 20
-16.62033
 30
0.0
 10
-10.41746
 20
-16.62033
 30
0.0
 10
-10.41746
 20
-16.62033
 30
0.0
 10
-10.5834
 20
-16.62033
 30
0.0
 10
-10.5834
 20
-16.62033
 30
0.0
  0
SPLINE
  5
6E
330
1F
100
AcDbEntity
  8
Layer 1
 62
     5
370
    53
100
AcDbSpline
210
0.0
220
0.0
230
1.0
 70
    11
 71
     3
 72
   164
 73
   160
 74
     0
 42
0.0000000001
 43
0.0000000001
 40
0.0
 40
0.0
 40
0.0
 40
0.0
 40
0.025
 40
0.025
 40
0.025
 40
0.025
 40
0.05
 40
0.05
 40
0.05
 40
0.05
 40
0.075
 40
0.075
 40
0.075
 40
0.075
 40
0.1
 40
0.1
 40
0.1
 40
0.1
 40
0.125
 40
0.125
 40
0.125
 40
0.125
 40
0.15
 40
0.15
 40
0.15
 40
0.15
 40
0.175
 40
0.175
 40
0.175
 40
0.175
 40
0.2
 40
0.2
 40
0.2
 40
0.2
 40
0.225
 40
0.225
 40
0.225
 40
0.225
 40
0.25
 40
0.25
 40
0.25
 40
0.25
 40
0.275
 40
0.275
 40
0.275
 40
0.275
 40
0.3
 40
0.3
 40
0.3
 40
0.3
 40
0.325
 40
0.325
 40
0.325
 40
0.325
 40
0.35
 40
0.35
 40
0.35
 40
0.35
 40
0.3750000000000001
 40
0.3750000000000001
 40
0.3750000000000001
 40
0.3750000000000001
 40
0.4000000000000001
 40
0.4000000000000001
 40
0.4000000000000001
 40
0.4000000000000001
 40
0.4250000000000001
 40
0.4250000000000001
 40
0.4250000000000001
 40
0.4250000000000001
 40
0.4500000000000001
 40
0.4500000000000001
 40
0.4500000000000001
 40
0.4500000000000001
 40
0.4750000000000001
 40
0.4750000000000001
 40
0.4750000000000001
 40
0.4750000000000001
 40
0.5000000000000001
 40
0.5000000000000001
 40
0.5000000000000001
 40
0.5000000000000001
 40
0.5250000000000001
 40
0.5250000000000001
 40
0.5250000000000001
 40
0.5250000000000001
 40
0.5500000000000002
 40
0.5500000000000002
 40
0.5500000000000002
 40
0.5500000000000002
 40
0.5750000000000002
 40
0.5750000000000002
 40
0.5750000000000002
 40
0.5750000000000002
 40
0.6000000000000002
 40
0.6000000000000002
 40
0.6000000000000002
 40
0.6000000000000002
 40
0.6250000000000002
 40
0.6250000000000002
 40
0.6250000000000002
 40
0.6250000000000002
 40
0.6500000000000002
 40
0.6500000000000002
 40
0.6500000000000002
 40
0.6500000000000002
 40
0.6750000000000003
 40
0.6750000000000003
 40
0.6750000000000003
 40
0.6750000000000003
 40
0.7000000000000003
 40
0.7000000000000003
 40
0.7000000000000003
 40
0.7000000000000003
 40
0.7250000000000003
 40
0.7250000000000003
 40
0.7250000000000003
 40
0.7250000000000003
 40
0.7500000000000003
 40
0.7500000000000003
 40
0.7500000000000003
 40
0.7500000000000003
 40
0.7750000000000004
 40
0.7750000000000004
 40
0.7750000000000004
 40
0.7750000000000004
 40
0.8000000000000004
 40
0.8000000000000004
 40
0.8000000000000004
 40
0.8000000000000004
 40
0.8250000000000004
 40
0.8250000000000004
 40
0.8250000000000004
 40
0.8250000000000004
 40
0.8500000000000004
 40
0.8500000000000004
 40
0.8500000000000004
 40
0.8500000000000004
 40
0.8750000000000004
 40
0.8750000000000004
 40
0.8750000000000004
 40
0.8750000000000004
 40
0.9000000000000005
 40
0.9000000000000005
 40
0.9000000000000005
 40
0.9000000000000005
 40
0.9250000000000005
 40
0.9250000000000005
 40
0.9250000000000005
 40
0.9250000000000005
 40
0.9500000000000005
 40
0.9500000000000005
 40
0.9500000000000005
 40
0.9500000000000005
 40
0.9750000000000005
 40
0.9750000000000005
 40
0.9750000000000005
 40
0.9750000000000005
 40
1.0
 40
1.0
 40
1.0
 40
1.0
 10
-10.22992
 20
-16.55937
 30
0.0
 10
-10.22992
 20
-16.55937
 30
0.0
 10
-10.11266
 20
-16.55937
 30
0.0
 10
-10.11266
 20
-16.55937
 30
0.0
 10
-10.11266
 20
-16.55937
 30
0.0
 10
-10.09742
 20
-16.5593
 30
0.0
 10
-10.08444
 20
-16.55719
 30
0.0
 10
-10.0735
 20
-16.55302
 30
0.0
 10
-10.0735
 20
-16.55302
 30
0.0
 10
-10.06263
 20
-16.54893
 30
0.0
 10
-10.05382
 20
-16.54336
 30
0.0
 10
-10.04697
 20
-16.53637
 30
0.0
 10
-10.04697
 20
-16.53637
 30
0.0
 10
-10.04013
 20
-16.52939
 30
0.0
 10
-10.03519
 20
-16.52149
 30
0.0
 10
-10.03208
 20
-16.51274
 30
0.0
 10
-10.03208
 20
-16.51274
 30
0.0
 10
-10.02905
 20
-16.50406
 30
0.0
 10
-10.02764
 20
-16.49503
 30
0.0
 10
-10.02799
 20
-16.48572
 30
0.0
 10
-10.02799
 20
-16.48572
 30
0.0
 10
-10.02842
 20
-16.4764
 30
0.0
 10
-10.03039
 20
-16.46737
 30
0.0
 10
-10.03392
 20
-16.45855
 30
0.0
 10
-10.03392
 20
-16.45855
 30
0.0
 10
-10.03738
 20
-16.44973
 30
0.0
 10
-10.0426
 20
-16.44176
 30
0.0
 10
-10.04944
 20
-16.43463
 30
0.0
 10
-10.04944
 20
-16.43463
 30
0.0
 10
-10.05628
 20
-16.42751
 30
0.0
 10
-10.06482
 20
-16.42186
 30
0.0
 10
-10.07519
 20
-16.4177
 30
0.0
 10
-10.07519
 20
-16.4177
 30
0.0
 10
-10.08557
 20
-16.41347
 30
0.0
 10
-10.09777
 20
-16.41128
 30
0.0
 10
-10.11181
 20
-16.41121
 30
0.0
 10
-10.11181
 20
-16.41121
 30
0.0
 10
-10.11181
 20
-16.41121
 30
0.0
 10
-10.22992
 20
-16.41121
 30
0.0
 10
-10.22992
 20
-16.41121
 30
0.0
 10
-10.22992
 20
-16.41121
 30
0.0
 10
-10.22992
 20
-16.41121
 30
0.0
 10
-10.22992
 20
-16.71643
 30
0.0
 10
-10.22992
 20
-16.71643
 30
0.0
 10
-10.22992
 20
-16.71643
 30
0.0
 10
-10.22992
 20
-16.71643
 30
0.0
 10
-10.09996
 20
-16.71643
 30
0.0
 10
-10.09996
 20
-16.71643
 30
0.0
 10
-10.09996
 20
-16.71643
 30
0.0
 10
-10.08782
 20
-16.71643
 30
0.0
 10
-10.07653
 20
-16.71467
 30
0.0
 10
-10.06609
 20
-16.71121
 30
0.0
 10
-10.06609
 20
-16.71121
 30
0.0
 10
-10.05565
 20
-16.70768
 30
0.0
 10
-10.04655
 20
-16.70267
 30
0.0
 10
-10.03865
 20
-16.69597
 30
0.0
 10
-10.03865
 20
-16.69597
 30
0.0
 10
-10.03081
 20
-16.68934
 30
0.0
 10
-10.02468
 20
-16.68129
 30
0.0
 10
-10.0203
 20
-16.67177
 30
0.0
 10
-10.0203
 20
-16.67177
 30
0.0
 10
-10.01593
 20
-16.66224
 30
0.0
 10
-10.01367
 20
-16.65145
 30
0.0
 10
-10.0136
 20
-16.63938
 30
0.0
 10
-10.0136
 20
-16.63938
 30
0.0
 10
-10.01388
 20
-16.62725
 30
0.0
 10
-10.01642
 20
-16.61631
 30
0.0
 10
-10.02129
 20
-16.60651
 30
0.0
 10
-10.02129
 20
-16.60651
 30
0.0
 10
-10.02616
 20
-16.5967
 30
0.0
 10
-10.03293
 20
-16.5883
 30
0.0
 10
-10.04168
 20
-16.58125
 30
0.0
 10
-10.04168
 20
-16.58125
 30
0.0
 10
-10.05043
 20
-16.57426
 30
0.0
 10
-10.06087
 20
-16.56883
 30
0.0
 10
-10.07287
 20
-16.56509
 30
0.0
 10
-10.07287
 20
-16.56509
 30
0.0
 10
-10.08486
 20
-16.56135
 30
0.0
 10
-10.09812
 20
-16.55945
 30
0.0
 10
-10.11266
 20
-16.55937
 30
0.0
 10
-10.11266
 20
-16.55937
 30
0.0
 10
-10.09812
 20
-16.55945
 30
0.0
 10
-10.08486
 20
-16.56135
 30
0.0
 10
-10.07287
 20
-16.56509
 30
0.0
 10
-10.07287
 20
-16.56509
 30
0.0
 10
-10.06087
 20
-16.56883
 30
0.0
 10
-10.05043
 20
-16.57426
 30
0.0
 10
-10.04168
 20
-16.58125
 30
0.0
 10
-10.04168
 20
-16.58125
 30
0.0
 10
-10.03293
 20
-16.5883
 30
0.0
 10
-10.02616
 20
-16.5967
 30
0.0
 10
-10.02129
 20
-16.60651
 30
0.0
 10
-10.02129
 20
-16.60651
 30
0.0
 10
-10.01642
 20
-16.61631
 30
0.0
 10
-10.01388
 20
-16.62725
 30
0.0
 10
-10.0136
 20
-16.63938
 30
0.0
 10
-10.0136
 20
-16.63938
 30
0.0
 10
-10.01367
 20
-16.65145
 30
0.0
 10
-10.01593
 20
-16.66224
 30
0.0
 10
-10.0203
 20
-16.67177
 30
0.0
 10
-10.0203
 20
-16.67177
 30
0.0
 10
-10.02468
 20
-16.68129
 30
0.0
 10
-10.03081
 20
-16.68934
 30
0.0
 10
-10.03865
 20
-16.69597
 30
0.0
 10
-10.03865
 20
-16.69597
 30
0.0
 10
-10.04655
 20
-16.70267
 30
0.0
 10
-10.05565
 20
-16.70768
 30
0.0
 10
-10.06609
 20
-16.71121
 30
0.0
 10
-10.06609
 20
-16.71121
 30
0.0
 10
-10.07653
 20
-16.71467
 30
0.0
 10
-10.08782
 20
-16.71643
 30
0.0
 10
-10.09996
 20
-16.71643
 30
0.0
 10
-10.09996
 20
-16.71643
 30
0.0
 10
-10.09996
 20
-16.71643
 30
0.0
 10
-10.22992
 20
-16.71643
 30
0.0
 10
-10.22992
 20
-16.71643
 30
0.0
 10
-10.22992
 20
-16.71643
 30
0.0
 10
-10.22992
 20
-16.71643
 30
0.0
 10
-10.22992
 20
-16.41121
 30
0.0
 10
-10.22992
 20
-16.41121
 30
0.0
 10
-10.22992
 20
-16.41121
 30
0.0
 10
-10.22992
 20
-16.41121
 30
0.0
 10
-10.11181
 20
-16.41121
 30
0.0
 10
-10.11181
 20
-16.41121
 30
0.0
 10
-10.11181
 20
-16.41121
 30
0.0
 10
-10.09777
 20
-16.41128
 30
0.0
 10
-10.08557
 20
-16.41347
 30
0.0
 10
-10.07519
 20
-16.4177
 30
0.0
 10
-10.07519
 20
-16.4177
 30
0.0
 10
-10.06482
 20
-16.42186
 30
0.0
 10
-10.05628
 20
-16.42751
 30
0.0
 10
-10.04944
 20
-16.43463
 30
0.0
 10
-10.04944
 20
-16.43463
 30
0.0
 10
-10.0426
 20
-16.44176
 30
0.0
 10
-10.03738
 20
-16.44973
 30
0.0
 10
-10.03392
 20
-16.45855
 30
0.0
 10
-10.03392
 20
-16.45855
 30
0.0
 10
-10.03039
 20
-16.46737
 30
0.0
 10
-10.02842
 20
-16.4764
 30
0.0
 10
-10.02799
 20
-16.48572
 30
0.0
 10
-10.02799
 20
-16.48572
 30
0.0
 10
-10.02764
 20
-16.49503
 30
0.0
 10
-10.02905
 20
-16.50406
 30
0.0
 10
-10.03208
 20
-16.51274
 30
0.0
 10
-10.03208
 20
-16.51274
 30
0.0
 10
-10.03519
 20
-16.52149
 30
0.0
 10
-10.04013
 20
-16.52939
 30
0.0
 10
-10.04697
 20
-16.53637
 30
0.0
 10
-10.04697
 20
-16.53637
 30
0.0
 10
-10.05382
 20
-16.54336
 30
0.0
 10
-10.06263
 20
-16.54893
 30
0.0
 10
-10.0735
 20
-16.55302
 30
0.0
 10
-10.0735
 20
-16.55302
 30
0.0
 10
-10.08444
 20
-16.55719
 30
0.0
 10
-10.09742
 20
-16.5593
 30
0.0
 10
-10.11266
 20
-16.55937
 30
0.0
 10
-10.11266
 20
-16.55937
 30
0.0
 10
-10.11266
 20
-16.55937
 30
0.0
 10
-10.22992
 20
-16.55937
 30
0.0
 10
-10.22992
 20
-16.55937
 30
0.0
  0
SPLINE
  5
6F
330
1F
100
AcDbEntity
  8
Layer 1
 62
     5
370
    53
100
AcDbSpline
210
0.0
220
0.0
230
1.0
 70
    11
 71
     3
 72
    24
 73
    20
 74
     0
 42
0.0000000001
 43
0.0000000001
 40
0.0
 40
0.0
 40
0.0
 40
0.0
 40
0.2
 40
0.2
 40
0.2
 40
0.2
 40
0.4
 40
0.4
 40
0.4
 40
0.4
 40
0.6000000000000001
 40
0.6000000000000001
 40
0.6000000000000001
 40
0.6000000000000001
 40
0.8
 40
0.8
 40
0.8
 40
0.8
 40
1.0
 40
1.0
 40
1.0
 40
1.0
 10
-9.79982
 20
-16.71643
 30
0.0
 10
-9.79982
 20
-16.71643
 30
0.0
 10
-9.79982
 20
-16.41121
 30
0.0
 10
-9.79982
 20
-16.41121
 30
0.0
 10
-9.79982
 20
-16.41121
 30
0.0
 10
-9.79982
 20
-16.41121
 30
0.0
 10
-9.90946
 20
-16.41121
 30
0.0
 10
-9.90946
 20
-16.41121
 30
0.0
 10
-9.90946
 20
-16.41121
 30
0.0
 10
-9.90946
 20
-16.41121
 30
0.0
 10
-9.68933
 20
-16.41121
 30
0.0
 10
-9.68933
 20
-16.41121
 30
0.0
 10
-9.68933
 20
-16.41121
 30
0.0
 10
-9.68933
 20
-16.41121
 30
0.0
 10
-9.79982
 20
-16.41121
 30
0.0
 10
-9.79982
 20
-16.41121
 30
0.0
 10
-9.79982
 20
-16.41121
 30
0.0
 10
-9.79982
 20
-16.41121
 30
0.0
 10
-9.79982
 20
-16.71643
 30
0.0
 10
-9.79982
 20
-16.71643
 30
0.0
  0
SPLINE
  5
70
330
1F
100
AcDbEntity
  8
Layer 1
 62
     5
370
    53
100
AcDbSpline
210
0.0
220
0.0
230
1.0
 70
    11
 71
     3
 72
   188
 73
   184
 74
     0
 42
0.0000000001
 43
0.0000000001
 40
0.0
 40
0.0
 40
0.0
 40
0.0
 40
0.0217391304347826
 40
0.0217391304347826
 40
0.0217391304347826
 40
0.0217391304347826
 40
0.0434782608695652
 40
0.0434782608695652
 40
0.0434782608695652
 40
0.0434782608695652
 40
0.0652173913043478
 40
0.0652173913043478
 40
0.0652173913043478
 40
0.0652173913043478
 40
0.0869565217391304
 40
0.0869565217391304
 40
0.0869565217391304
 40
0.0869565217391304
 40
0.108695652173913
 40
0.108695652173913
 40
0.108695652173913
 40
0.108695652173913
 40
0.1304347826086956
 40
0.1304347826086956
 40
0.1304347826086956
 40
0.1304347826086956
 40
0.1521739130434783
 40
0.1521739130434783
 40
0.1521739130434783
 40
0.1521739130434783
 40
0.1739130434782609
 40
0.1739130434782609
 40
0.1739130434782609
 40
0.1739130434782609
 40
0.1956521739130435
 40
0.1956521739130435
 40
0.1956521739130435
 40
0.1956521739130435
 40
0.2173913043478261
 40
0.2173913043478261
 40
0.2173913043478261
 40
0.2173913043478261
 40
0.2391304347826086
 40
0.2391304347826086
 40
0.2391304347826086
 40
0.2391304347826086
 40
0.2608695652173912
 40
0.2608695652173912
 40
0.2608695652173912
 40
0.2608695652173912
 40
0.2826086956521738
 40
0.2826086956521738
 40
0.2826086956521738
 40
0.2826086956521738
 40
0.3043478260869564
 40
0.3043478260869564
 40
0.3043478260869564
 40
0.3043478260869564
 40
0.326086956521739
 40
0.326086956521739
 40
0.326086956521739
 40
0.326086956521739
 40
0.3478260869565216
 40
0.3478260869565216
 40
0.3478260869565216
 40
0.3478260869565216
 40
0.3695652173913042
 40
0.3695652173913042
 40
0.3695652173913042
 40
0.3695652173913042
 40
0.3913043478260868
 40
0.3913043478260868
 40
0.3913043478260868
 40
0.3913043478260868
 40
0.4130434782608694
 40
0.4130434782608694
 40
0.4130434782608694
 40
0.4130434782608694
 40
0.434782608695652
 40
0.434782608695652
 40
0.434782608695652
 40
0.434782608695652
 40
0.4565217391304346
 40
0.4565217391304346
 40
0.4565217391304346
 40
0.4565217391304346
 40
0.4782608695652172
 40
0.4782608695652172
 40
0.4782608695652172
 40
0.4782608695652172
 40
0.4999999999999998
 40
0.4999999999999998
 40
0.4999999999999998
 40
0.4999999999999998
 40
0.5217391304347824
 40
0.5217391304347824
 40
0.5217391304347824
 40
0.5217391304347824
 40
0.543478260869565
 40
0.543478260869565
 40
0.543478260869565
 40
0.543478260869565
 40
0.5652173913043476
 40
0.5652173913043476
 40
0.5652173913043476
 40
0.5652173913043476
 40
0.5869565217391302
 40
0.5869565217391302
 40
0.5869565217391302
 40
0.5869565217391302
 40
0.6086956521739127
 40
0.6086956521739127
 40
0.6086956521739127
 40
0.6086956521739127
 40
0.6304347826086953
 40
0.6304347826086953
 40
0.6304347826086953
 40
0.6304347826086953
 40
0.6521739130434779
 40
0.6521739130434779
 40
0.6521739130434779
 40
0.6521739130434779
 40
0.6739130434782605
 40
0.6739130434782605
 40
0.6739130434782605
 40
0.6739130434782605
 40
0.6956521739130431
 40
0.6956521739130431
 40
0.6956521739130431
 40
0.6956521739130431
 40
0.7173913043478257
 40
0.7173913043478257
 40
0.7173913043478257
 40
0.7173913043478257
 40
0.7391304347826083
 40
0.7391304347826083
 40
0.7391304347826083
 40
0.7391304347826083
 40
0.7608695652173909
 40
0.7608695652173909
 40
0.7608695652173909
 40
0.7608695652173909
 40
0.7826086956521735
 40
0.7826086956521735
 40
0.7826086956521735
 40
0.7826086956521735
 40
0.8043478260869561
 40
0.8043478260869561
 40
0.8043478260869561
 40
0.8043478260869561
 40
0.8260869565217387
 40
0.8260869565217387
 40
0.8260869565217387
 40
0.8260869565217387
 40
0.8478260869565213
 40
0.8478260869565213
 40
0.8478260869565213
 40
0.8478260869565213
 40
0.8695652173913039
 40
0.8695652173913039
 40
0.8695652173913039
 40
0.8695652173913039
 40
0.8913043478260865
 40
0.8913043478260865
 40
0.8913043478260865
 40
0.8913043478260865
 40
0.9130434782608691
 40
0.9130434782608691
 40
0.9130434782608691
 40
0.9130434782608691
 40
0.9347826086956517
 40
0.9347826086956517
 40
0.9347826086956517
 40
0.9347826086956517
 40
0.9565217391304343
 40
0.9565217391304343
 40
0.9565217391304343
 40
0.9565217391304343
 40
0.9782608695652169
 40
0.9782608695652169
 40
0.9782608695652169
 40
0.9782608695652169
 40
1.0
 40
1.0
 40
1.0
 40
1.0
 10
-9.58731
 20
-16.62414
 30
0.0
 10
-9.58717
 20
-16.64101
 30
0.0
 10
-9.58421
 20
-16.65547
 30
0.0
 10
-9.57828
 20
-16.66754
 30
0.0
 10
-9.57828
 20
-16.66754
 30
0.0
 10
-9.57242
 20
-16.67953
 30
0.0
 10
-9.56424
 20
-16.68934
 30
0.0
 10
-9.55394
 20
-16.69696
 30
0.0
 10
-9.55394
 20
-16.69696
 30
0.0
 10
-9.54357
 20
-16.70451
 30
0.0
 10
-9.53164
 20
-16.71008
 30
0.0
 10
-9.51817
 20
-16.71368
 30
0.0
 10
-9.51817
 20
-16.71368
 30
0.0
 10
-9.50476
 20
-16.71721
 30
0.0
 10
-9.49037
 20
-16.71897
 30
0.0
 10
-9.47513
 20
-16.71897
 30
0.0
 10
-9.47513
 20
-16.71897
 30
0.0
 10
-9.45975
 20
-16.7189
 30
0.0
 10
-9.44592
 20
-16.71664
 30
0.0
 10
-9.43357
 20
-16.71234
 30
0.0
 10
-9.43357
 20
-16.71234
 30
0.0
 10
-9.42129
 20
-16.70803
 30
0.0
 10
-9.41078
 20
-16.70225
 30
0.0
 10
-9.40196
 20
-16.69498
 30
0.0
 10
-9.40196
 20
-16.69498
 30
0.0
 10
-9.39321
 20
-16.68771
 30
0.0
 10
-9.38644
 20
-16.6796
 30
0.0
 10
-9.38164
 20
-16.67057
 30
0.0
 10
-9.38164
 20
-16.67057
 30
0.0
 10
-9.37684
 20
-16.66154
 30
0.0
 10
-9.3743
 20
-16.6523
 30
0.0
 10
-9.37395
 20
-16.64277
 30
0.0
 10
-9.37395
 20
-16.64277
 30
0.0
 10
-9.37353
 20
-16.63028
 30
0.0
 10
-9.37536
 20
-16.61885
 30
0.0
 10
-9.37938
 20
-16.60855
 30
0.0
 10
-9.37938
 20
-16.60855
 30
0.0
 10
-9.38341
 20
-16.59825
 30
0.0
 10
-9.38962
 20
-16.58964
 30
0.0
 10
-9.39801
 20
-16.58259
 30
0.0
 10
-9.39801
 20
-16.58259
 30
0.0
 10
-9.40634
 20
-16.57553
 30
0.0
 10
-9.41685
 20
-16.57059
 30
0.0
 10
-9.42941
 20
-16.56784
 30
0.0
 10
-9.42941
 20
-16.56784
 30
0.0
 10
-9.42941
 20
-16.56784
 30
0.0
 10
-9.53312
 20
-16.5454
 30
0.0
 10
-9.53312
 20
-16.5454
 30
0.0
 10
-9.53312
 20
-16.5454
 30
0.0
 10
-9.54286
 20
-16.54336
 30
0.0
 10
-9.55126
 20
-16.5399
 30
0.0
 10
-9.55817
 20
-16.5351
 30
0.0
 10
-9.55817
 20
-16.5351
 30
0.0
 10
-9.56509
 20
-16.53024
 30
0.0
 10
-9.57045
 20
-16.52353
 30
0.0
 10
-9.57412
 20
-16.51492
 30
0.0
 10
-9.57412
 20
-16.51492
 30
0.0
 10
-9.57779
 20
-16.50639
 30
0.0
 10
-9.57969
 20
-16.49552
 30
0.0
 10
-9.57969
 20
-16.48233
 30
0.0
 10
-9.57969
 20
-16.48233
 30
0.0
 10
-9.57969
 20
-16.47231
 30
0.0
 10
-9.57764
 20
-16.46286
 30
0.0
 10
-9.57348
 20
-16.45397
 30
0.0
 10
-9.57348
 20
-16.45397
 30
0.0
 10
-9.56939
 20
-16.44508
 30
0.0
 10
-9.56332
 20
-16.43724
 30
0.0
 10
-9.55535
 20
-16.43033
 30
0.0
 10
-9.55535
 20
-16.43033
 30
0.0
 10
-9.54738
 20
-16.42349
 30
0.0
 10
-9.5375
 20
-16.41812
 30
0.0
 10
-9.52579
 20
-16.41424
 30
0.0
 10
-9.52579
 20
-16.41424
 30
0.0
 10
-9.514
 20
-16.41029
 30
0.0
 10
-9.50053
 20
-16.40832
 30
0.0
 10
-9.48529
 20
-16.40825
 30
0.0
 10
-9.48529
 20
-16.40825
 30
0.0
 10
-9.46998
 20
-16.40825
 30
0.0
 10
-9.45594
 20
-16.41001
 30
0.0
 10
-9.4431
 20
-16.41354
 30
0.0
 10
-9.4431
 20
-16.41354
 30
0.0
 10
-9.43033
 20
-16.41707
 30
0.0
 10
-9.41925
 20
-16.42215
 30
0.0
 10
-9.40994
 20
-16.42892
 30
0.0
 10
-9.40994
 20
-16.42892
 30
0.0
 10
-9.40062
 20
-16.43569
 30
0.0
 10
-9.39343
 20
-16.44402
 30
0.0
 10
-9.38849
 20
-16.45375
 30
0.0
 10
-9.38849
 20
-16.45375
 30
0.0
 10
-9.38355
 20
-16.46356
 30
0.0
 10
-9.38122
 20
-16.47478
 30
0.0
 10
-9.38157
 20
-16.48741
 30
0.0
 10
-9.38157
 20
-16.48741
 30
0.0
 10
-9.38122
 20
-16.47478
 30
0.0
 10
-9.38355
 20
-16.46356
 30
0.0
 10
-9.38849
 20
-16.45375
 30
0.0
 10
-9.38849
 20
-16.45375
 30
0.0
 10
-9.39343
 20
-16.44402
 30
0.0
 10
-9.40062
 20
-16.43569
 30
0.0
 10
-9.40994
 20
-16.42892
 30
0.0
 10
-9.40994
 20
-16.42892
 30
0.0
 10
-9.41925
 20
-16.42215
 30
0.0
 10
-9.43033
 20
-16.41707
 30
0.0
 10
-9.4431
 20
-16.41354
 30
0.0
 10
-9.4431
 20
-16.41354
 30
0.0
 10
-9.45594
 20
-16.41001
 30
0.0
 10
-9.46998
 20
-16.40825
 30
0.0
 10
-9.48529
 20
-16.40825
 30
0.0
 10
-9.48529
 20
-16.40825
 30
0.0
 10
-9.50053
 20
-16.40832
 30
0.0
 10
-9.514
 20
-16.41029
 30
0.0
 10
-9.52579
 20
-16.41424
 30
0.0
 10
-9.52579
 20
-16.41424
 30
0.0
 10
-9.5375
 20
-16.41812
 30
0.0
 10
-9.54738
 20
-16.42349
 30
0.0
 10
-9.55535
 20
-16.43033
 30
0.0
 10
-9.55535
 20
-16.43033
 30
0.0
 10
-9.56332
 20
-16.43724
 30
0.0
 10
-9.56939
 20
-16.44508
 30
0.0
 10
-9.57348
 20
-16.45397
 30
0.0
 10
-9.57348
 20
-16.45397
 30
0.0
 10
-9.57764
 20
-16.46286
 30
0.0
 10
-9.57969
 20
-16.47231
 30
0.0
 10
-9.57969
 20
-16.48233
 30
0.0
 10
-9.57969
 20
-16.48233
 30
0.0
 10
-9.57969
 20
-16.49552
 30
0.0
 10
-9.57786
 20
-16.50639
 30
0.0
 10
-9.57433
 20
-16.51485
 30
0.0
 10
-9.57433
 20
-16.51485
 30
0.0
 10
-9.57073
 20
-16.52339
 30
0.0
 10
-9.56544
 20
-16.53002
 30
0.0
 10
-9.55852
 20
-16.53489
 30
0.0
 10
-9.55852
 20
-16.53489
 30
0.0
 10
-9.55161
 20
-16.53969
 30
0.0
 10
-9.54314
 20
-16.54322
 30
0.0
 10
-9.53312
 20
-16.5454
 30
0.0
 10
-9.53312
 20
-16.5454
 30
0.0
 10
-9.53312
 20
-16.5454
 30
0.0
 10
-9.42941
 20
-16.56784
 30
0.0
 10
-9.42941
 20
-16.56784
 30
0.0
 10
-9.42941
 20
-16.56784
 30
0.0
 10
-9.41657
 20
-16.57059
 30
0.0
 10
-9.40598
 20
-16.57553
 30
0.0
 10
-9.39766
 20
-16.58259
 30
0.0
 10
-9.39766
 20
-16.58259
 30
0.0
 10
-9.38926
 20
-16.58964
 30
0.0
 10
-9.38312
 20
-16.59825
 30
0.0
 10
-9.37917
 20
-16.60855
 30
0.0
 10
-9.37917
 20
-16.60855
 30
0.0
 10
-9.37529
 20
-16.61885
 30
0.0
 10
-9.37353
 20
-16.63028
 30
0.0
 10
-9.37395
 20
-16.64277
 30
0.0
 10
-9.37395
 20
-16.64277
 30
0.0
 10
-9.3743
 20
-16.6523
 30
0.0
 10
-9.37684
 20
-16.66154
 30
0.0
 10
-9.38164
 20
-16.67057
 30
0.0
 10
-9.38164
 20
-16.67057
 30
0.0
 10
-9.38644
 20
-16.6796
 30
0.0
 10
-9.39321
 20
-16.68771
 30
0.0
 10
-9.40196
 20
-16.69498
 30
0.0
 10
-9.40196
 20
-16.69498
 30
0.0
 10
-9.41078
 20
-16.70225
 30
0.0
 10
-9.42129
 20
-16.70803
 30
0.0
 10
-9.43357
 20
-16.71234
 30
0.0
 10
-9.43357
 20
-16.71234
 30
0.0
 10
-9.44592
 20
-16.71664
 30
0.0
 10
-9.45975
 20
-16.7189
 30
0.0
 10
-9.47513
 20
-16.71897
 30
0.0
 10
-9.47513
 20
-16.71897
 30
0.0
 10
-9.49037
 20
-16.71897
 30
0.0
 10
-9.50476
 20
-16.71721
 30
0.0
 10
-9.51817
 20
-16.71368
 30
0.0
 10
-9.51817
 20
-16.71368
 30
0.0
 10
-9.53164
 20
-16.71008
 30
0.0
 10
-9.54357
 20
-16.70451
 30
0.0
 10
-9.55394
 20
-16.69696
 30
0.0
 10
-9.55394
 20
-16.69696
 30
0.0
 10
-9.56424
 20
-16.68934
 30
0.0
 10
-9.57242
 20
-16.67953
 30
0.0
 10
-9.57828
 20
-16.66754
 30
0.0
 10
-9.57828
 20
-16.66754
 30
0.0
 10
-9.58421
 20
-16.65547
 30
0.0
 10
-9.58717
 20
-16.64101
 30
0.0
 10
-9.58731
 20
-16.62414
 30
0.0
  0
SPLINE
  5
71
330
1F
100
AcDbEntity
  8
Layer 1
 62
     5
370
    53
100
AcDbSpline
210
0.0
220
0.0
230
1.0
 70
    11
 71
     3
 72
    84
 73
    80
 74
     0
 42
0.0000000001
 43
0.0000000001
 40
0.0
 40
0.0
 40
0.0
 40
0.0
 40
0.05
 40
0.05
 40
0.05
 40
0.05
 40
0.1
 40
0.1
 40
0.1
 40
0.1
 40
0.15
 40
0.15
 40
0.15
 40
0.15
 40
0.2
 40
0.2
 40
0.2
 40
0.2
 40
0.25
 40
0.25
 40
0.25
 40
0.25
 40
0.3
 40
0.3
 40
0.3
 40
0.3
 40
0.35
 40
0.35
 40
0.35
 40
0.35
 40
0.4
 40
0.4
 40
0.4
 40
0.4
 40
0.45
 40
0.45
 40
0.45
 40
0.45
 40
0.4999999999999999
 40
0.4999999999999999
 40
0.4999999999999999
 40
0.4999999999999999
 40
0.5499999999999999
 40
0.5499999999999999
 40
0.5499999999999999
 40
0.5499999999999999
 40
0.6
 40
0.6
 40
0.6
 40
0.6
 40
0.65
 40
0.65
 40
0.65
 40
0.65
 40
0.7000000000000001
 40
0.7000000000000001
 40
0.7000000000000001
 40
0.7000000000000001
 40
0.7500000000000001
 40
0.7500000000000001
 40
0.7500000000000001
 40
0.7500000000000001
 40
0.8000000000000002
 40
0.8000000000000002
 40
0.8000000000000002
 40
0.8000000000000002
 40
0.8500000000000002
 40
0.8500000000000002
 40
0.8500000000000002
 40
0.8500000000000002
 40
0.9000000000000002
 40
0.9000000000000002
 40
0.9000000000000002
 40
0.9000000000000002
 40
0.9500000000000003
 40
0.9500000000000003
 40
0.9500000000000003
 40
0.9500000000000003
 40
1.0
 40
1.0
 40
1.0
 40
1.0
 10
-11.00715
 20
-17.29174
 30
0.0
 10
-10.99234
 20
-17.29167
 30
0.0
 10
-10.97957
 20
-17.28906
 30
0.0
 10
-10.96891
 20
-17.28398
 30
0.0
 10
-10.96891
 20
-17.28398
 30
0.0
 10
-10.95833
 20
-17.2789
 30
0.0
 10
-10.94951
 20
-17.27163
 30
0.0
 10
-10.94246
 20
-17.26239
 30
0.0
 10
-10.94246
 20
-17.26239
 30
0.0
 10
-10.93547
 20
-17.25308
 30
0.0
 10
-10.92997
 20
-17.24207
 30
0.0
 10
-10.92588
 20
-17.22937
 30
0.0
 10
-10.92588
 20
-17.22937
 30
0.0
 10
-10.92185
 20
-17.21667
 30
0.0
 10
-10.91896
 20
-17.20277
 30
0.0
 10
-10.91734
 20
-17.18753
 30
0.0
 10
-10.91734
 20
-17.18753
 30
0.0
 10
-10.91564
 20
-17.17229
 30
0.0
 10
-10.9148
 20
-17.15627
 30
0.0
 10
-10.91487
 20
-17.13934
 30
0.0
 10
-10.91487
 20
-17.13934
 30
0.0
 10
-10.9148
 20
-17.12248
 30
0.0
 10
-10.91564
 20
-17.10646
 30
0.0
 10
-10.91734
 20
-17.09129
 30
0.0
 10
-10.91734
 20
-17.09129
 30
0.0
 10
-10.91896
 20
-17.07612
 30
0.0
 10
-10.92185
 20
-17.06215
 30
0.0
 10
-10.92588
 20
-17.04945
 30
0.0
 10
-10.92588
 20
-17.04945
 30
0.0
 10
-10.92997
 20
-17.03682
 30
0.0
 10
-10.93547
 20
-17.02582
 30
0.0
 10
-10.94246
 20
-17.01643
 30
0.0
 10
-10.94246
 20
-17.01643
 30
0.0
 10
-10.94951
 20
-17.00712
 30
0.0
 10
-10.95833
 20
-16.99985
 30
0.0
 10
-10.96891
 20
-16.99477
 30
0.0
 10
-10.96891
 20
-16.99477
 30
0.0
 10
-10.97957
 20
-16.98962
 30
0.0
 10
-10.99234
 20
-16.98701
 30
0.0
 10
-11.00715
 20
-16.98694
 30
0.0
 10
-11.00715
 20
-16.98694
 30
0.0
 10
-11.02197
 20
-16.98701
 30
0.0
 10
-11.03474
 20
-16.98962
 30
0.0
 10
-11.0454
 20
-16.99477
 30
0.0
 10
-11.0454
 20
-16.99477
 30
0.0
 10
-11.05598
 20
-16.99985
 30
0.0
 10
-11.0648
 20
-17.00712
 30
0.0
 10
-11.07185
 20
-17.01643
 30
0.0
 10
-11.07185
 20
-17.01643
 30
0.0
 10
-11.07884
 20
-17.02582
 30
0.0
 10
-11.08434
 20
-17.03682
 30
0.0
 10
-11.08843
 20
-17.04945
 30
0.0
 10
-11.08843
 20
-17.04945
 30
0.0
 10
-11.09246
 20
-17.06215
 30
0.0
 10
-11.09535
 20
-17.07612
 30
0.0
 10
-11.09697
 20
-17.09129
 30
0.0
 10
-11.09697
 20
-17.09129
 30
0.0
 10
-11.09866
 20
-17.10646
 30
0.0
 10
-11.09951
 20
-17.12248
 30
0.0
 10
-11.09944
 20
-17.13934
 30
0.0
 10
-11.09944
 20
-17.13934
 30
0.0
 10
-11.09951
 20
-17.15627
 30
0.0
 10
-11.09866
 20
-17.17229
 30
0.0
 10
-11.09697
 20
-17.18753
 30
0.0
 10
-11.09697
 20
-17.18753
 30
0.0
 10
-11.09535
 20
-17.20277
 30
0.0
 10
-11.09246
 20
-17.21667
 30
0.0
 10
-11.08843
 20
-17.22937
 30
0.0
 10
-11.08843
 20
-17.22937
 30
0.0
 10
-11.08434
 20
-17.24207
 30
0.0
 10
-11.07884
 20
-17.25308
 30
0.0
 10
-11.07185
 20
-17.26239
 30
0.0
 10
-11.07185
 20
-17.26239
 30
0.0
 10
-11.0648
 20
-17.27163
 30
0.0
 10
-11.05598
 20
-17.2789
 30
0.0
 10
-11.0454
 20
-17.28398
 30
0.0
 10
-11.0454
 20
-17.28398
 30
0.0
 10
-11.03474
 20
-17.28906
 30
0.0
 10
-11.02197
 20
-17.29167
 30
0.0
 10
-11.00715
 20
-17.29174
 30
0.0
  0
SPLINE
  5
72
330
1F
100
AcDbEntity
  8
Layer 1
 62
     5
370
    53
100
AcDbSpline
210
0.0
220
0.0
230
1.0
 70
    11
 71
     3
 72
    84
 73
    80
 74
     0
 42
0.0000000001
 43
0.0000000001
 40
0.0
 40
0.0
 40
0.0
 40
0.0
 40
0.05
 40
0.05
 40
0.05
 40
0.05
 40
0.1
 40
0.1
 40
0.1
 40
0.1
 40
0.15
 40
0.15
 40
0.15
 40
0.15
 40
0.2
 40
0.2
 40
0.2
 40
0.2
 40
0.25
 40
0.25
 40
0.25
 40
0.25
 40
0.3
 40
0.3
 40
0.3
 40
0.3
 40
0.35
 40
0.35
 40
0.35
 40
0.35
 40
0.4
 40
0.4
 40
0.4
 40
0.4
 40
0.45
 40
0.45
 40
0.45
 40
0.45
 40
0.4999999999999999
 40
0.4999999999999999
 40
0.4999999999999999
 40
0.4999999999999999
 40
0.5499999999999999
 40
0.5499999999999999
 40
0.5499999999999999
 40
0.5499999999999999
 40
0.6
 40
0.6
 40
0.6
 40
0.6
 40
0.65
 40
0.65
 40
0.65
 40
0.65
 40
0.7000000000000001
 40
0.7000000000000001
 40
0.7000000000000001
 40
0.7000000000000001
 40
0.7500000000000001
 40
0.7500000000000001
 40
0.7500000000000001
 40
0.7500000000000001
 40
0.8000000000000002
 40
0.8000000000000002
 40
0.8000000000000002
 40
0.8000000000000002
 40
0.8500000000000002
 40
0.8500000000000002
 40
0.8500000000000002
 40
0.8500000000000002
 40
0.9000000000000002
 40
0.9000000000000002
 40
0.9000000000000002
 40
0.9000000000000002
 40
0.9500000000000003
 40
0.9500000000000003
 40
0.9500000000000003
 40
0.9500000000000003
 40
1.0
 40
1.0
 40
1.0
 40
1.0
 10
-11.00715
 20
-17.29174
 30
0.0
 10
-10.99234
 20
-17.29167
 30
0.0
 10
-10.97957
 20
-17.28906
 30
0.0
 10
-10.96891
 20
-17.28398
 30
0.0
 10
-10.96891
 20
-17.28398
 30
0.0
 10
-10.95833
 20
-17.2789
 30
0.0
 10
-10.94951
 20
-17.27163
 30
0.0
 10
-10.94246
 20
-17.26239
 30
0.0
 10
-10.94246
 20
-17.26239
 30
0.0
 10
-10.93547
 20
-17.25308
 30
0.0
 10
-10.92997
 20
-17.24207
 30
0.0
 10
-10.92588
 20
-17.22937
 30
0.0
 10
-10.92588
 20
-17.22937
 30
0.0
 10
-10.92185
 20
-17.21667
 30
0.0
 10
-10.91896
 20
-17.20277
 30
0.0
 10
-10.91734
 20
-17.18753
 30
0.0
 10
-10.91734
 20
-17.18753
 30
0.0
 10
-10.91564
 20
-17.17229
 30
0.0
 10
-10.9148
 20
-17.15627
 30
0.0
 10
-10.91487
 20
-17.13934
 30
0.0
 10
-10.91487
 20
-17.13934
 30
0.0
 10
-10.9148
 20
-17.12248
 30
0.0
 10
-10.91564
 20
-17.10646
 30
0.0
 10
-10.91734
 20
-17.09129
 30
0.0
 10
-10.91734
 20
-17.09129
 30
0.0
 10
-10.91896
 20
-17.07612
 30
0.0
 10
-10.92185
 20
-17.06215
 30
0.0
 10
-10.92588
 20
-17.04945
 30
0.0
 10
-10.92588
 20
-17.04945
 30
0.0
 10
-10.92997
 20
-17.03682
 30
0.0
 10
-10.93547
 20
-17.02582
 30
0.0
 10
-10.94246
 20
-17.01643
 30
0.0
 10
-10.94246
 20
-17.01643
 30
0.0
 10
-10.94951
 20
-17.00712
 30
0.0
 10
-10.95833
 20
-16.99985
 30
0.0
 10
-10.96891
 20
-16.99477
 30
0.0
 10
-10.96891
 20
-16.99477
 30
0.0
 10
-10.97957
 20
-16.98962
 30
0.0
 10
-10.99234
 20
-16.98701
 30
0.0
 10
-11.00715
 20
-16.98694
 30
0.0
 10
-11.00715
 20
-16.98694
 30
0.0
 10
-11.02197
 20
-16.98701
 30
0.0
 10
-11.03474
 20
-16.98962
 30
0.0
 10
-11.0454
 20
-16.99477
 30
0.0
 10
-11.0454
 20
-16.99477
 30
0.0
 10
-11.05598
 20
-16.99985
 30
0.0
 10
-11.0648
 20
-17.00712
 30
0.0
 10
-11.07185
 20
-17.01643
 30
0.0
 10
-11.07185
 20
-17.01643
 30
0.0
 10
-11.07884
 20
-17.02582
 30
0.0
 10
-11.08434
 20
-17.03682
 30
0.0
 10
-11.08843
 20
-17.04945
 30
0.0
 10
-11.08843
 20
-17.04945
 30
0.0
 10
-11.09246
 20
-17.06215
 30
0.0
 10
-11.09535
 20
-17.07612
 30
0.0
 10
-11.09697
 20
-17.09129
 30
0.0
 10
-11.09697
 20
-17.09129
 30
0.0
 10
-11.09866
 20
-17.10646
 30
0.0
 10
-11.09951
 20
-17.12248
 30
0.0
 10
-11.09944
 20
-17.13934
 30
0.0
 10
-11.09944
 20
-17.13934
 30
0.0
 10
-11.09951
 20
-17.15627
 30
0.0
 10
-11.09866
 20
-17.17229
 30
0.0
 10
-11.09697
 20
-17.18753
 30
0.0
 10
-11.09697
 20
-17.18753
 30
0.0
 10
-11.09535
 20
-17.20277
 30
0.0
 10
-11.09246
 20
-17.21667
 30
0.0
 10
-11.08843
 20
-17.22937
 30
0.0
 10
-11.08843
 20
-17.22937
 30
0.0
 10
-11.08434
 20
-17.24207
 30
0.0
 10
-11.07884
 20
-17.25308
 30
0.0
 10
-11.07185
 20
-17.26239
 30
0.0
 10
-11.07185
 20
-17.26239
 30
0.0
 10
-11.0648
 20
-17.27163
 30
0.0
 10
-11.05598
 20
-17.2789
 30
0.0
 10
-11.0454
 20
-17.28398
 30
0.0
 10
-11.0454
 20
-17.28398
 30
0.0
 10
-11.03474
 20
-17.28906
 30
0.0
 10
-11.02197
 20
-17.29167
 30
0.0
 10
-11.00715
 20
-17.29174
 30
0.0
  0
SPLINE
  5
73
330
1F
100
AcDbEntity
  8
Layer 1
 62
     5
370
    53
100
AcDbSpline
210
0.0
220
0.0
230
1.0
 70
    11
 71
     3
 72
   180
 73
   176
 74
     0
 42
0.0000000001
 43
0.0000000001
 40
0.0
 40
0.0
 40
0.0
 40
0.0
 40
0.0227272727272727
 40
0.0227272727272727
 40
0.0227272727272727
 40
0.0227272727272727
 40
0.0454545454545455
 40
0.0454545454545455
 40
0.0454545454545455
 40
0.0454545454545455
 40
0.0681818181818182
 40
0.0681818181818182
 40
0.0681818181818182
 40
0.0681818181818182
 40
0.0909090909090909
 40
0.0909090909090909
 40
0.0909090909090909
 40
0.0909090909090909
 40
0.1136363636363636
 40
0.1136363636363636
 40
0.1136363636363636
 40
0.1136363636363636
 40
0.1363636363636364
 40
0.1363636363636364
 40
0.1363636363636364
 40
0.1363636363636364
 40
0.1590909090909091
 40
0.1590909090909091
 40
0.1590909090909091
 40
0.1590909090909091
 40
0.1818181818181819
 40
0.1818181818181819
 40
0.1818181818181819
 40
0.1818181818181819
 40
0.2045454545454546
 40
0.2045454545454546
 40
0.2045454545454546
 40
0.2045454545454546
 40
0.2272727272727273
 40
0.2272727272727273
 40
0.2272727272727273
 40
0.2272727272727273
 40
0.2500000000000001
 40
0.2500000000000001
 40
0.2500000000000001
 40
0.2500000000000001
 40
0.2727272727272728
 40
0.2727272727272728
 40
0.2727272727272728
 40
0.2727272727272728
 40
0.2954545454545455
 40
0.2954545454545455
 40
0.2954545454545455
 40
0.2954545454545455
 40
0.3181818181818182
 40
0.3181818181818182
 40
0.3181818181818182
 40
0.3181818181818182
 40
0.3409090909090909
 40
0.3409090909090909
 40
0.3409090909090909
 40
0.3409090909090909
 40
0.3636363636363636
 40
0.3636363636363636
 40
0.3636363636363636
 40
0.3636363636363636
 40
0.3863636363636363
 40
0.3863636363636363
 40
0.3863636363636363
 40
0.3863636363636363
 40
0.409090909090909
 40
0.409090909090909
 40
0.409090909090909
 40
0.409090909090909
 40
0.4318181818181817
 40
0.4318181818181817
 40
0.4318181818181817
 40
0.4318181818181817
 40
0.4545454545454544
 40
0.4545454545454544
 40
0.4545454545454544
 40
0.4545454545454544
 40
0.4772727272727271
 40
0.4772727272727271
 40
0.4772727272727271
 40
0.4772727272727271
 40
0.4999999999999998
 40
0.4999999999999998
 40
0.4999999999999998
 40
0.4999999999999998
 40
0.5227272727272726
 40
0.5227272727272726
 40
0.5227272727272726
 40
0.5227272727272726
 40
0.5454545454545453
 40
0.5454545454545453
 40
0.5454545454545453
 40
0.5454545454545453
 40
0.568181818181818
 40
0.568181818181818
 40
0.568181818181818
 40
0.568181818181818
 40
0.5909090909090907
 40
0.5909090909090907
 40
0.5909090909090907
 40
0.5909090909090907
 40
0.6136363636363634
 40
0.6136363636363634
 40
0.6136363636363634
 40
0.6136363636363634
 40
0.6363636363636361
 40
0.6363636363636361
 40
0.6363636363636361
 40
0.6363636363636361
 40
0.6590909090909088
 40
0.6590909090909088
 40
0.6590909090909088
 40
0.6590909090909088
 40
0.6818181818181815
 40
0.6818181818181815
 40
0.6818181818181815
 40
0.6818181818181815
 40
0.7045454545454543
 40
0.7045454545454543
 40
0.7045454545454543
 40
0.7045454545454543
 40
0.727272727272727
 40
0.727272727272727
 40
0.727272727272727
 40
0.727272727272727
 40
0.7499999999999997
 40
0.7499999999999997
 40
0.7499999999999997
 40
0.7499999999999997
 40
0.7727272727272724
 40
0.7727272727272724
 40
0.7727272727272724
 40
0.7727272727272724
 40
0.7954545454545451
 40
0.7954545454545451
 40
0.7954545454545451
 40
0.7954545454545451
 40
0.8181818181818178
 40
0.8181818181818178
 40
0.8181818181818178
 40
0.8181818181818178
 40
0.8409090909090905
 40
0.8409090909090905
 40
0.8409090909090905
 40
0.8409090909090905
 40
0.8636363636363632
 40
0.8636363636363632
 40
0.8636363636363632
 40
0.8636363636363632
 40
0.8863636363636359
 40
0.8863636363636359
 40
0.8863636363636359
 40
0.8863636363636359
 40
0.9090909090909086
 40
0.9090909090909086
 40
0.9090909090909086
 40
0.9090909090909086
 40
0.9318181818181813
 40
0.9318181818181813
 40
0.9318181818181813
 40
0.9318181818181813
 40
0.954545454545454
 40
0.954545454545454
 40
0.954545454545454
 40
0.954545454545454
 40
0.9772727272727267
 40
0.9772727272727267
 40
0.9772727272727267
 40
0.9772727272727267
 40
1.0
 40
1.0
 40
1.0
 40
1.0
 10
-10.81454
 20
-17.21512
 30
0.0
 10
-10.81447
 20
-17.23036
 30
0.0
 10
-10.81094
 20
-17.24362
 30
0.0
 10
-10.80396
 20
-17.25512
 30
0.0
 10
-10.80396
 20
-17.25512
 30
0.0
 10
-10.79697
 20
-17.26655
 30
0.0
 10
-10.78702
 20
-17.27551
 30
0.0
 10
-10.77404
 20
-17.28193
 30
0.0
 10
-10.77404
 20
-17.28193
 30
0.0
 10
-10.76106
 20
-17.28835
 30
0.0
 10
-10.74547
 20
-17.2916
 30
0.0
 10
-10.72733
 20
-17.29174
 30
0.0
 10
-10.72733
 20
-17.29174
 30
0.0
 10
-10.71372
 20
-17.29174
 30
0.0
 10
-10.70137
 20
-17.29033
 30
0.0
 10
-10.69015
 20
-17.28737
 30
0.0
 10
-10.69015
 20
-17.28737
 30
0.0
 10
-10.679
 20
-17.2844
 30
0.0
 10
-10.66941
 20
-17.27982
 30
0.0
 10
-10.66129
 20
-17.27354
 30
0.0
 10
-10.66129
 20
-17.27354
 30
0.0
 10
-10.65318
 20
-17.26726
 30
0.0
 10
-10.64697
 20
-17.25914
 30
0.0
 10
-10.64253
 20
-17.24927
 30
0.0
 10
-10.64253
 20
-17.24927
 30
0.0
 10
-10.63815
 20
-17.23932
 30
0.0
 10
-10.63597
 20
-17.22739
 30
0.0
 10
-10.6359
 20
-17.21342
 30
0.0
 10
-10.6359
 20
-17.21342
 30
0.0
 10
-10.63582
 20
-17.1948
 30
0.0
 10
-10.63963
 20
-17.17906
 30
0.0
 10
-10.64718
 20
-17.16629
 30
0.0
 10
-10.64718
 20
-17.16629
 30
0.0
 10
-10.65473
 20
-17.15352
 30
0.0
 10
-10.66645
 20
-17.14393
 30
0.0
 10
-10.68218
 20
-17.13737
 30
0.0
 10
-10.68218
 20
-17.13737
 30
0.0
 10
-10.69791
 20
-17.1308
 30
0.0
 10
-10.71809
 20
-17.12749
 30
0.0
 10
-10.74257
 20
-17.12749
 30
0.0
 10
-10.74257
 20
-17.12749
 30
0.0
 10
-10.7243
 20
-17.12756
 30
0.0
 10
-10.70899
 20
-17.12587
 30
0.0
 10
-10.6965
 20
-17.12241
 30
0.0
 10
-10.6965
 20
-17.12241
 30
0.0
 10
-10.68408
 20
-17.11895
 30
0.0
 10
-10.67414
 20
-17.11408
 30
0.0
 10
-10.66666
 20
-17.10773
 30
0.0
 10
-10.66666
 20
-17.10773
 30
0.0
 10
-10.65918
 20
-17.10145
 30
0.0
 10
-10.65375
 20
-17.09397
 30
0.0
 10
-10.6505
 20
-17.08537
 30
0.0
 10
-10.6505
 20
-17.08537
 30
0.0
 10
-10.64718
 20
-17.07683
 30
0.0
 10
-10.64556
 20
-17.06745
 30
0.0
 10
-10.64563
 20
-17.05722
 30
0.0
 10
-10.64563
 20
-17.05722
 30
0.0
 10
-10.64556
 20
-17.04698
 30
0.0
 10
-10.64697
 20
-17.03753
 30
0.0
 10
-10.64979
 20
-17.02878
 30
0.0
 10
-10.64979
 20
-17.02878
 30
0.0
 10
-10.65255
 20
-17.02003
 30
0.0
 10
-10.65706
 20
-17.01234
 30
0.0
 10
-10.6632
 20
-17.00578
 30
0.0
 10
-10.6632
 20
-17.00578
 30
0.0
 10
-10.66934
 20
-16.99922
 30
0.0
 10
-10.67745
 20
-16.99407
 30
0.0
 10
-10.6874
 20
-16.9904
 30
0.0
 10
-10.6874
 20
-16.9904
 30
0.0
 10
-10.69742
 20
-16.98673
 30
0.0
 10
-10.70963
 20
-16.9849
 30
0.0
 10
-10.72395
 20
-16.98483
 30
0.0
 10
-10.72395
 20
-16.98483
 30
0.0
 10
-10.7382
 20
-16.9849
 30
0.0
 10
-10.75069
 20
-16.98701
 30
0.0
 10
-10.76127
 20
-16.99111
 30
0.0
 10
-10.76127
 20
-16.99111
 30
0.0
 10
-10.77193
 20
-16.9952
 30
0.0
 10
-10.78067
 20
-17.00077
 30
0.0
 10
-10.78773
 20
-17.0079
 30
0.0
 10
-10.78773
 20
-17.0079
 30
0.0
 10
-10.79471
 20
-17.01502
 30
0.0
 10
-10.79994
 20
-17.02314
 30
0.0
 10
-10.80339
 20
-17.03231
 30
0.0
 10
-10.80339
 20
-17.03231
 30
0.0
 10
-10.80692
 20
-17.04148
 30
0.0
 10
-10.80861
 20
-17.05122
 30
0.0
 10
-10.80861
 20
-17.06145
 30
0.0
 10
-10.80861
 20
-17.06145
 30
0.0
 10
-10.80861
 20
-17.05122
 30
0.0
 10
-10.80692
 20
-17.04148
 30
0.0
 10
-10.80339
 20
-17.03231
 30
0.0
 10
-10.80339
 20
-17.03231
 30
0.0
 10
-10.79994
 20
-17.02314
 30
0.0
 10
-10.79471
 20
-17.01502
 30
0.0
 10
-10.78773
 20
-17.0079
 30
0.0
 10
-10.78773
 20
-17.0079
 30
0.0
 10
-10.78067
 20
-17.00077
 30
0.0
 10
-10.77193
 20
-16.9952
 30
0.0
 10
-10.76127
 20
-16.99111
 30
0.0
 10
-10.76127
 20
-16.99111
 30
0.0
 10
-10.75069
 20
-16.98701
 30
0.0
 10
-10.7382
 20
-16.9849
 30
0.0
 10
-10.72395
 20
-16.98483
 30
0.0
 10
-10.72395
 20
-16.98483
 30
0.0
 10
-10.70963
 20
-16.9849
 30
0.0
 10
-10.69742
 20
-16.98673
 30
0.0
 10
-10.6874
 20
-16.9904
 30
0.0
 10
-10.6874
 20
-16.9904
 30
0.0
 10
-10.67745
 20
-16.99407
 30
0.0
 10
-10.66934
 20
-16.99922
 30
0.0
 10
-10.6632
 20
-17.00578
 30
0.0
 10
-10.6632
 20
-17.00578
 30
0.0
 10
-10.65706
 20
-17.01234
 30
0.0
 10
-10.65255
 20
-17.02003
 30
0.0
 10
-10.64979
 20
-17.02878
 30
0.0
 10
-10.64979
 20
-17.02878
 30
0.0
 10
-10.64697
 20
-17.03753
 30
0.0
 10
-10.64556
 20
-17.04698
 30
0.0
 10
-10.64563
 20
-17.05722
 30
0.0
 10
-10.64563
 20
-17.05722
 30
0.0
 10
-10.64556
 20
-17.06745
 30
0.0
 10
-10.64718
 20
-17.07683
 30
0.0
 10
-10.6505
 20
-17.08537
 30
0.0
 10
-10.6505
 20
-17.08537
 30
0.0
 10
-10.65375
 20
-17.09397
 30
0.0
 10
-10.65918
 20
-17.10145
 30
0.0
 10
-10.66666
 20
-17.10773
 30
0.0
 10
-10.66666
 20
-17.10773
 30
0.0
 10
-10.67414
 20
-17.11408
 30
0.0
 10
-10.68408
 20
-17.11895
 30
0.0
 10
-10.6965
 20
-17.12241
 30
0.0
 10
-10.6965
 20
-17.12241
 30
0.0
 10
-10.70899
 20
-17.12587
 30
0.0
 10
-10.7243
 20
-17.12756
 30
0.0
 10
-10.74257
 20
-17.12749
 30
0.0
 10
-10.74257
 20
-17.12749
 30
0.0
 10
-10.71809
 20
-17.12749
 30
0.0
 10
-10.69791
 20
-17.1308
 30
0.0
 10
-10.68218
 20
-17.13737
 30
0.0
 10
-10.68218
 20
-17.13737
 30
0.0
 10
-10.66645
 20
-17.14393
 30
0.0
 10
-10.65473
 20
-17.15352
 30
0.0
 10
-10.64718
 20
-17.16629
 30
0.0
 10
-10.64718
 20
-17.16629
 30
0.0
 10
-10.63963
 20
-17.17906
 30
0.0
 10
-10.63582
 20
-17.1948
 30
0.0
 10
-10.6359
 20
-17.21342
 30
0.0
 10
-10.6359
 20
-17.21342
 30
0.0
 10
-10.63597
 20
-17.22739
 30
0.0
 10
-10.63815
 20
-17.23932
 30
0.0
 10
-10.64253
 20
-17.24927
 30
0.0
 10
-10.64253
 20
-17.24927
 30
0.0
 10
-10.64697
 20
-17.25914
 30
0.0
 10
-10.65318
 20
-17.26726
 30
0.0
 10
-10.66129
 20
-17.27354
 30
0.0
 10
-10.66129
 20
-17.27354
 30
0.0
 10
-10.66941
 20
-17.27982
 30
0.0
 10
-10.679
 20
-17.2844
 30
0.0
 10
-10.69015
 20
-17.28737
 30
0.0
 10
-10.69015
 20
-17.28737
 30
0.0
 10
-10.70137
 20
-17.29033
 30
0.0
 10
-10.71372
 20
-17.29174
 30
0.0
 10
-10.72733
 20
-17.29174
 30
0.0
 10
-10.72733
 20
-17.29174
 30
0.0
 10
-10.74547
 20
-17.2916
 30
0.0
 10
-10.76106
 20
-17.28835
 30
0.0
 10
-10.77404
 20
-17.28193
 30
0.0
 10
-10.77404
 20
-17.28193
 30
0.0
 10
-10.78702
 20
-17.27551
 30
0.0
 10
-10.79697
 20
-17.26655
 30
0.0
 10
-10.80396
 20
-17.25512
 30
0.0
 10
-10.80396
 20
-17.25512
 30
0.0
 10
-10.81094
 20
-17.24362
 30
0.0
 10
-10.81447
 20
-17.23036
 30
0.0
 10
-10.81454
 20
-17.21512
 30
0.0
  0
SPLINE
  5
74
330
1F
100
AcDbEntity
  8
Layer 1
 62
     5
370
    53
100
AcDbSpline
210
0.0
220
0.0
230
1.0
 70
    27
 71
     3
 72
    12
 73
     8
 74
     0
 42
0.0000000001
 43
0.0000000001
 40
0.0
 40
0.0
 40
0.0
 40
0.0
 40
0.5
 40
0.5
 40
0.5
 40
0.5
 40
1.0
 40
1.0
 40
1.0
 40
1.0
 10
-10.53599
 20
-17.13214
 30
0.0
 10
-10.53599
 20
-17.13214
 30
0.0
 10
-10.4128
 20
-17.13214
 30
0.0
 10
-10.4128
 20
-17.13214
 30
0.0
 10
-10.4128
 20
-17.13214
 30
0.0
 10
-10.4128
 20
-17.13214
 30
0.0
 10
-10.53599
 20
-17.13214
 30
0.0
 10
-10.53599
 20
-17.13214
 30
0.0
  0
SPLINE
  5
75
330
1F
100
AcDbEntity
  8
Layer 1
 62
     5
370
    53
100
AcDbSpline
210
0.0
220
0.0
230
1.0
 70
    11
 71
     3
 72
    84
 73
    80
 74
     0
 42
0.0000000001
 43
0.0000000001
 40
0.0
 40
0.0
 40
0.0
 40
0.0
 40
0.05
 40
0.05
 40
0.05
 40
0.05
 40
0.1
 40
0.1
 40
0.1
 40
0.1
 40
0.15
 40
0.15
 40
0.15
 40
0.15
 40
0.2
 40
0.2
 40
0.2
 40
0.2
 40
0.25
 40
0.25
 40
0.25
 40
0.25
 40
0.3
 40
0.3
 40
0.3
 40
0.3
 40
0.35
 40
0.35
 40
0.35
 40
0.35
 40
0.4
 40
0.4
 40
0.4
 40
0.4
 40
0.45
 40
0.45
 40
0.45
 40
0.45
 40
0.4999999999999999
 40
0.4999999999999999
 40
0.4999999999999999
 40
0.4999999999999999
 40
0.5499999999999999
 40
0.5499999999999999
 40
0.5499999999999999
 40
0.5499999999999999
 40
0.6
 40
0.6
 40
0.6
 40
0.6
 40
0.65
 40
0.65
 40
0.65
 40
0.65
 40
0.7000000000000001
 40
0.7000000000000001
 40
0.7000000000000001
 40
0.7000000000000001
 40
0.7500000000000001
 40
0.7500000000000001
 40
0.7500000000000001
 40
0.7500000000000001
 40
0.8000000000000002
 40
0.8000000000000002
 40
0.8000000000000002
 40
0.8000000000000002
 40
0.8500000000000002
 40
0.8500000000000002
 40
0.8500000000000002
 40
0.8500000000000002
 40
0.9000000000000002
 40
0.9000000000000002
 40
0.9000000000000002
 40
0.9000000000000002
 40
0.9500000000000003
 40
0.9500000000000003
 40
0.9500000000000003
 40
0.9500000000000003
 40
1.0
 40
1.0
 40
1.0
 40
1.0
 10
-10.22357
 20
-17.29174
 30
0.0
 10
-10.20876
 20
-17.29167
 30
0.0
 10
-10.19599
 20
-17.28906
 30
0.0
 10
-10.18533
 20
-17.28398
 30
0.0
 10
-10.18533
 20
-17.28398
 30
0.0
 10
-10.17475
 20
-17.2789
 30
0.0
 10
-10.16593
 20
-17.27163
 30
0.0
 10
-10.15888
 20
-17.26239
 30
0.0
 10
-10.15888
 20
-17.26239
 30
0.0
 10
-10.15189
 20
-17.25308
 30
0.0
 10
-10.14639
 20
-17.24207
 30
0.0
 10
-10.1423
 20
-17.22937
 30
0.0
 10
-10.1423
 20
-17.22937
 30
0.0
 10
-10.13827
 20
-17.21667
 30
0.0
 10
-10.13538
 20
-17.20277
 30
0.0
 10
-10.13376
 20
-17.18753
 30
0.0
 10
-10.13376
 20
-17.18753
 30
0.0
 10
-10.13206
 20
-17.17229
 30
0.0
 10
-10.13122
 20
-17.15627
 30
0.0
 10
-10.13129
 20
-17.13934
 30
0.0
 10
-10.13129
 20
-17.13934
 30
0.0
 10
-10.13122
 20
-17.12248
 30
0.0
 10
-10.13206
 20
-17.10646
 30
0.0
 10
-10.13376
 20
-17.09129
 30
0.0
 10
-10.13376
 20
-17.09129
 30
0.0
 10
-10.13538
 20
-17.07612
 30
0.0
 10
-10.13827
 20
-17.06215
 30
0.0
 10
-10.1423
 20
-17.04945
 30
0.0
 10
-10.1423
 20
-17.04945
 30
0.0
 10
-10.14639
 20
-17.03682
 30
0.0
 10
-10.15189
 20
-17.02582
 30
0.0
 10
-10.15888
 20
-17.01643
 30
0.0
 10
-10.15888
 20
-17.01643
 30
0.0
 10
-10.16593
 20
-17.00712
 30
0.0
 10
-10.17475
 20
-16.99985
 30
0.0
 10
-10.18533
 20
-16.99477
 30
0.0
 10
-10.18533
 20
-16.99477
 30
0.0
 10
-10.19599
 20
-16.98962
 30
0.0
 10
-10.20876
 20
-16.98701
 30
0.0
 10
-10.22357
 20
-16.98694
 30
0.0
 10
-10.22357
 20
-16.98694
 30
0.0
 10
-10.23839
 20
-16.98701
 30
0.0
 10
-10.25116
 20
-16.98962
 30
0.0
 10
-10.26182
 20
-16.99477
 30
0.0
 10
-10.26182
 20
-16.99477
 30
0.0
 10
-10.2724
 20
-16.99985
 30
0.0
 10
-10.28122
 20
-17.00712
 30
0.0
 10
-10.28827
 20
-17.01643
 30
0.0
 10
-10.28827
 20
-17.01643
 30
0.0
 10
-10.29526
 20
-17.02582
 30
0.0
 10
-10.30076
 20
-17.03682
 30
0.0
 10
-10.30485
 20
-17.04945
 30
0.0
 10
-10.30485
 20
-17.04945
 30
0.0
 10
-10.30888
 20
-17.06215
 30
0.0
 10
-10.31177
 20
-17.07612
 30
0.0
 10
-10.31339
 20
-17.09129
 30
0.0
 10
-10.31339
 20
-17.09129
 30
0.0
 10
-10.31508
 20
-17.10646
 30
0.0
 10
-10.31593
 20
-17.12248
 30
0.0
 10
-10.31586
 20
-17.13934
 30
0.0
 10
-10.31586
 20
-17.13934
 30
0.0
 10
-10.31593
 20
-17.15627
 30
0.0
 10
-10.31508
 20
-17.17229
 30
0.0
 10
-10.31339
 20
-17.18753
 30
0.0
 10
-10.31339
 20
-17.18753
 30
0.0
 10
-10.31177
 20
-17.20277
 30
0.0
 10
-10.30888
 20
-17.21667
 30
0.0
 10
-10.30485
 20
-17.22937
 30
0.0
 10
-10.30485
 20
-17.22937
 30
0.0
 10
-10.30076
 20
-17.24207
 30
0.0
 10
-10.29526
 20
-17.25308
 30
0.0
 10
-10.28827
 20
-17.26239
 30
0.0
 10
-10.28827
 20
-17.26239
 30
0.0
 10
-10.28122
 20
-17.27163
 30
0.0
 10
-10.2724
 20
-17.2789
 30
0.0
 10
-10.26182
 20
-17.28398
 30
0.0
 10
-10.26182
 20
-17.28398
 30
0.0
 10
-10.25116
 20
-17.28906
 30
0.0
 10
-10.23839
 20
-17.29167
 30
0.0
 10
-10.22357
 20
-17.29174
 30
0.0
  0
SPLINE
  5
76
330
1F
100
AcDbEntity
  8
Layer 1
 62
     5
370
    53
100
AcDbSpline
210
0.0
220
0.0
230
1.0
 70
    11
 71
     3
 72
    84
 73
    80
 74
     0
 42
0.0000000001
 43
0.0000000001
 40
0.0
 40
0.0
 40
0.0
 40
0.0
 40
0.05
 40
0.05
 40
0.05
 40
0.05
 40
0.1
 40
0.1
 40
0.1
 40
0.1
 40
0.15
 40
0.15
 40
0.15
 40
0.15
 40
0.2
 40
0.2
 40
0.2
 40
0.2
 40
0.25
 40
0.25
 40
0.25
 40
0.25
 40
0.3
 40
0.3
 40
0.3
 40
0.3
 40
0.35
 40
0.35
 40
0.35
 40
0.35
 40
0.4
 40
0.4
 40
0.4
 40
0.4
 40
0.45
 40
0.45
 40
0.45
 40
0.45
 40
0.4999999999999999
 40
0.4999999999999999
 40
0.4999999999999999
 40
0.4999999999999999
 40
0.5499999999999999
 40
0.5499999999999999
 40
0.5499999999999999
 40
0.5499999999999999
 40
0.6
 40
0.6
 40
0.6
 40
0.6
 40
0.65
 40
0.65
 40
0.65
 40
0.65
 40
0.7000000000000001
 40
0.7000000000000001
 40
0.7000000000000001
 40
0.7000000000000001
 40
0.7500000000000001
 40
0.7500000000000001
 40
0.7500000000000001
 40
0.7500000000000001
 40
0.8000000000000002
 40
0.8000000000000002
 40
0.8000000000000002
 40
0.8000000000000002
 40
0.8500000000000002
 40
0.8500000000000002
 40
0.8500000000000002
 40
0.8500000000000002
 40
0.9000000000000002
 40
0.9000000000000002
 40
0.9000000000000002
 40
0.9000000000000002
 40
0.9500000000000003
 40
0.9500000000000003
 40
0.9500000000000003
 40
0.9500000000000003
 40
1.0
 40
1.0
 40
1.0
 40
1.0
 10
-10.22357
 20
-17.29174
 30
0.0
 10
-10.20876
 20
-17.29167
 30
0.0
 10
-10.19599
 20
-17.28906
 30
0.0
 10
-10.18533
 20
-17.28398
 30
0.0
 10
-10.18533
 20
-17.28398
 30
0.0
 10
-10.17475
 20
-17.2789
 30
0.0
 10
-10.16593
 20
-17.27163
 30
0.0
 10
-10.15888
 20
-17.26239
 30
0.0
 10
-10.15888
 20
-17.26239
 30
0.0
 10
-10.15189
 20
-17.25308
 30
0.0
 10
-10.14639
 20
-17.24207
 30
0.0
 10
-10.1423
 20
-17.22937
 30
0.0
 10
-10.1423
 20
-17.22937
 30
0.0
 10
-10.13827
 20
-17.21667
 30
0.0
 10
-10.13538
 20
-17.20277
 30
0.0
 10
-10.13376
 20
-17.18753
 30
0.0
 10
-10.13376
 20
-17.18753
 30
0.0
 10
-10.13206
 20
-17.17229
 30
0.0
 10
-10.13122
 20
-17.15627
 30
0.0
 10
-10.13129
 20
-17.13934
 30
0.0
 10
-10.13129
 20
-17.13934
 30
0.0
 10
-10.13122
 20
-17.12248
 30
0.0
 10
-10.13206
 20
-17.10646
 30
0.0
 10
-10.13376
 20
-17.09129
 30
0.0
 10
-10.13376
 20
-17.09129
 30
0.0
 10
-10.13538
 20
-17.07612
 30
0.0
 10
-10.13827
 20
-17.06215
 30
0.0
 10
-10.1423
 20
-17.04945
 30
0.0
 10
-10.1423
 20
-17.04945
 30
0.0
 10
-10.14639
 20
-17.03682
 30
0.0
 10
-10.15189
 20
-17.02582
 30
0.0
 10
-10.15888
 20
-17.01643
 30
0.0
 10
-10.15888
 20
-17.01643
 30
0.0
 10
-10.16593
 20
-17.00712
 30
0.0
 10
-10.17475
 20
-16.99985
 30
0.0
 10
-10.18533
 20
-16.99477
 30
0.0
 10
-10.18533
 20
-16.99477
 30
0.0
 10
-10.19599
 20
-16.98962
 30
0.0
 10
-10.20876
 20
-16.98701
 30
0.0
 10
-10.22357
 20
-16.98694
 30
0.0
 10
-10.22357
 20
-16.98694
 30
0.0
 10
-10.23839
 20
-16.98701
 30
0.0
 10
-10.25116
 20
-16.98962
 30
0.0
 10
-10.26182
 20
-16.99477
 30
0.0
 10
-10.26182
 20
-16.99477
 30
0.0
 10
-10.2724
 20
-16.99985
 30
0.0
 10
-10.28122
 20
-17.00712
 30
0.0
 10
-10.28827
 20
-17.01643
 30
0.0
 10
-10.28827
 20
-17.01643
 30
0.0
 10
-10.29526
 20
-17.02582
 30
0.0
 10
-10.30076
 20
-17.03682
 30
0.0
 10
-10.30485
 20
-17.04945
 30
0.0
 10
-10.30485
 20
-17.04945
 30
0.0
 10
-10.30888
 20
-17.06215
 30
0.0
 10
-10.31177
 20
-17.07612
 30
0.0
 10
-10.31339
 20
-17.09129
 30
0.0
 10
-10.31339
 20
-17.09129
 30
0.0
 10
-10.31508
 20
-17.10646
 30
0.0
 10
-10.31593
 20
-17.12248
 30
0.0
 10
-10.31586
 20
-17.13934
 30
0.0
 10
-10.31586
 20
-17.13934
 30
0.0
 10
-10.31593
 20
-17.15627
 30
0.0
 10
-10.31508
 20
-17.17229
 30
0.0
 10
-10.31339
 20
-17.18753
 30
0.0
 10
-10.31339
 20
-17.18753
 30
0.0
 10
-10.31177
 20
-17.20277
 30
0.0
 10
-10.30888
 20
-17.21667
 30
0.0
 10
-10.30485
 20
-17.22937
 30
0.0
 10
-10.30485
 20
-17.22937
 30
0.0
 10
-10.30076
 20
-17.24207
 30
0.0
 10
-10.29526
 20
-17.25308
 30
0.0
 10
-10.28827
 20
-17.26239
 30
0.0
 10
-10.28827
 20
-17.26239
 30
0.0
 10
-10.28122
 20
-17.27163
 30
0.0
 10
-10.2724
 20
-17.2789
 30
0.0
 10
-10.26182
 20
-17.28398
 30
0.0
 10
-10.26182
 20
-17.28398
 30
0.0
 10
-10.25116
 20
-17.28906
 30
0.0
 10
-10.23839
 20
-17.29167
 30
0.0
 10
-10.22357
 20
-17.29174
 30
0.0
  0
SPLINE
  5
77
330
1F
100
AcDbEntity
  8
Layer 1
 62
     5
370
    53
100
AcDbSpline
210
0.0
220
0.0
230
1.0
 70
    11
 71
     3
 72
   180
 73
   176
 74
     0
 42
0.0000000001
 43
0.0000000001
 40
0.0
 40
0.0
 40
0.0
 40
0.0
 40
0.0227272727272727
 40
0.0227272727272727
 40
0.0227272727272727
 40
0.0227272727272727
 40
0.0454545454545455
 40
0.0454545454545455
 40
0.0454545454545455
 40
0.0454545454545455
 40
0.0681818181818182
 40
0.0681818181818182
 40
0.0681818181818182
 40
0.0681818181818182
 40
0.0909090909090909
 40
0.0909090909090909
 40
0.0909090909090909
 40
0.0909090909090909
 40
0.1136363636363636
 40
0.1136363636363636
 40
0.1136363636363636
 40
0.1136363636363636
 40
0.1363636363636364
 40
0.1363636363636364
 40
0.1363636363636364
 40
0.1363636363636364
 40
0.1590909090909091
 40
0.1590909090909091
 40
0.1590909090909091
 40
0.1590909090909091
 40
0.1818181818181819
 40
0.1818181818181819
 40
0.1818181818181819
 40
0.1818181818181819
 40
0.2045454545454546
 40
0.2045454545454546
 40
0.2045454545454546
 40
0.2045454545454546
 40
0.2272727272727273
 40
0.2272727272727273
 40
0.2272727272727273
 40
0.2272727272727273
 40
0.2500000000000001
 40
0.2500000000000001
 40
0.2500000000000001
 40
0.2500000000000001
 40
0.2727272727272728
 40
0.2727272727272728
 40
0.2727272727272728
 40
0.2727272727272728
 40
0.2954545454545455
 40
0.2954545454545455
 40
0.2954545454545455
 40
0.2954545454545455
 40
0.3181818181818182
 40
0.3181818181818182
 40
0.3181818181818182
 40
0.3181818181818182
 40
0.3409090909090909
 40
0.3409090909090909
 40
0.3409090909090909
 40
0.3409090909090909
 40
0.3636363636363636
 40
0.3636363636363636
 40
0.3636363636363636
 40
0.3636363636363636
 40
0.3863636363636363
 40
0.3863636363636363
 40
0.3863636363636363
 40
0.3863636363636363
 40
0.409090909090909
 40
0.409090909090909
 40
0.409090909090909
 40
0.409090909090909
 40
0.4318181818181817
 40
0.4318181818181817
 40
0.4318181818181817
 40
0.4318181818181817
 40
0.4545454545454544
 40
0.4545454545454544
 40
0.4545454545454544
 40
0.4545454545454544
 40
0.4772727272727271
 40
0.4772727272727271
 40
0.4772727272727271
 40
0.4772727272727271
 40
0.4999999999999998
 40
0.4999999999999998
 40
0.4999999999999998
 40
0.4999999999999998
 40
0.5227272727272726
 40
0.5227272727272726
 40
0.5227272727272726
 40
0.5227272727272726
 40
0.5454545454545453
 40
0.5454545454545453
 40
0.5454545454545453
 40
0.5454545454545453
 40
0.568181818181818
 40
0.568181818181818
 40
0.568181818181818
 40
0.568181818181818
 40
0.5909090909090907
 40
0.5909090909090907
 40
0.5909090909090907
 40
0.5909090909090907
 40
0.6136363636363634
 40
0.6136363636363634
 40
0.6136363636363634
 40
0.6136363636363634
 40
0.6363636363636361
 40
0.6363636363636361
 40
0.6363636363636361
 40
0.6363636363636361
 40
0.6590909090909088
 40
0.6590909090909088
 40
0.6590909090909088
 40
0.6590909090909088
 40
0.6818181818181815
 40
0.6818181818181815
 40
0.6818181818181815
 40
0.6818181818181815
 40
0.7045454545454543
 40
0.7045454545454543
 40
0.7045454545454543
 40
0.7045454545454543
 40
0.727272727272727
 40
0.727272727272727
 40
0.727272727272727
 40
0.727272727272727
 40
0.7499999999999997
 40
0.7499999999999997
 40
0.7499999999999997
 40
0.7499999999999997
 40
0.7727272727272724
 40
0.7727272727272724
 40
0.7727272727272724
 40
0.7727272727272724
 40
0.7954545454545451
 40
0.7954545454545451
 40
0.7954545454545451
 40
0.7954545454545451
 40
0.8181818181818178
 40
0.8181818181818178
 40
0.8181818181818178
 40
0.8181818181818178
 40
0.8409090909090905
 40
0.8409090909090905
 40
0.8409090909090905
 40
0.8409090909090905
 40
0.8636363636363632
 40
0.8636363636363632
 40
0.8636363636363632
 40
0.8636363636363632
 40
0.8863636363636359
 40
0.8863636363636359
 40
0.8863636363636359
 40
0.8863636363636359
 40
0.9090909090909086
 40
0.9090909090909086
 40
0.9090909090909086
 40
0.9090909090909086
 40
0.9318181818181813
 40
0.9318181818181813
 40
0.9318181818181813
 40
0.9318181818181813
 40
0.954545454545454
 40
0.954545454545454
 40
0.954545454545454
 40
0.954545454545454
 40
0.9772727272727267
 40
0.9772727272727267
 40
0.9772727272727267
 40
0.9772727272727267
 40
1.0
 40
1.0
 40
1.0
 40
1.0
 10
-10.03096
 20
-17.21512
 30
0.0
 10
-10.03089
 20
-17.23036
 30
0.0
 10
-10.02736
 20
-17.24362
 30
0.0
 10
-10.02038
 20
-17.25512
 30
0.0
 10
-10.02038
 20
-17.25512
 30
0.0
 10
-10.01339
 20
-17.26655
 30
0.0
 10
-10.00344
 20
-17.27551
 30
0.0
 10
-9.99046
 20
-17.28193
 30
0.0
 10
-9.99046
 20
-17.28193
 30
0.0
 10
-9.97748
 20
-17.28835
 30
0.0
 10
-9.96189
 20
-17.2916
 30
0.0
 10
-9.94375
 20
-17.29174
 30
0.0
 10
-9.94375
 20
-17.29174
 30
0.0
 10
-9.93014
 20
-17.29174
 30
0.0
 10
-9.91779
 20
-17.29033
 30
0.0
 10
-9.90657
 20
-17.28737
 30
0.0
 10
-9.90657
 20
-17.28737
 30
0.0
 10
-9.89542
 20
-17.2844
 30
0.0
 10
-9.88583
 20
-17.27982
 30
0.0
 10
-9.87771
 20
-17.27354
 30
0.0
 10
-9.87771
 20
-17.27354
 30
0.0
 10
-9.8696
 20
-17.26726
 30
0.0
 10
-9.86339
 20
-17.25914
 30
0.0
 10
-9.85895
 20
-17.24927
 30
0.0
 10
-9.85895
 20
-17.24927
 30
0.0
 10
-9.85457
 20
-17.23932
 30
0.0
 10
-9.85239
 20
-17.22739
 30
0.0
 10
-9.85232
 20
-17.21342
 30
0.0
 10
-9.85232
 20
-17.21342
 30
0.0
 10
-9.85224
 20
-17.1948
 30
0.0
 10
-9.85605
 20
-17.17906
 30
0.0
 10
-9.8636
 20
-17.16629
 30
0.0
 10
-9.8636
 20
-17.16629
 30
0.0
 10
-9.87115
 20
-17.15352
 30
0.0
 10
-9.88287
 20
-17.14393
 30
0.0
 10
-9.8986
 20
-17.13737
 30
0.0
 10
-9.8986
 20
-17.13737
 30
0.0
 10
-9.91433
 20
-17.1308
 30
0.0
 10
-9.93451
 20
-17.12749
 30
0.0
 10
-9.95899
 20
-17.12749
 30
0.0
 10
-9.95899
 20
-17.12749
 30
0.0
 10
-9.94072
 20
-17.12756
 30
0.0
 10
-9.92541
 20
-17.12587
 30
0.0
 10
-9.91292
 20
-17.12241
 30
0.0
 10
-9.91292
 20
-17.12241
 30
0.0
 10
-9.9005
 20
-17.11895
 30
0.0
 10
-9.89056
 20
-17.11408
 30
0.0
 10
-9.88308
 20
-17.10773
 30
0.0
 10
-9.88308
 20
-17.10773
 30
0.0
 10
-9.8756
 20
-17.10145
 30
0.0
 10
-9.87017
 20
-17.09397
 30
0.0
 10
-9.86692
 20
-17.08537
 30
0.0
 10
-9.86692
 20
-17.08537
 30
0.0
 10
-9.8636
 20
-17.07683
 30
0.0
 10
-9.86198
 20
-17.06745
 30
0.0
 10
-9.86205
 20
-17.05722
 30
0.0
 10
-9.86205
 20
-17.05722
 30
0.0
 10
-9.86198
 20
-17.04698
 30
0.0
 10
-9.86339
 20
-17.03753
 30
0.0
 10
-9.86621
 20
-17.02878
 30
0.0
 10
-9.86621
 20
-17.02878
 30
0.0
 10
-9.86897
 20
-17.02003
 30
0.0
 10
-9.87348
 20
-17.01234
 30
0.0
 10
-9.87962
 20
-17.00578
 30
0.0
 10
-9.87962
 20
-17.00578
 30
0.0
 10
-9.88576
 20
-16.99922
 30
0.0
 10
-9.89387
 20
-16.99407
 30
0.0
 10
-9.90382
 20
-16.9904
 30
0.0
 10
-9.90382
 20
-16.9904
 30
0.0
 10
-9.91384
 20
-16.98673
 30
0.0
 10
-9.92605
 20
-16.9849
 30
0.0
 10
-9.94037
 20
-16.98483
 30
0.0
 10
-9.94037
 20
-16.98483
 30
0.0
 10
-9.95462
 20
-16.9849
 30
0.0
 10
-9.96711
 20
-16.98701
 30
0.0
 10
-9.97769
 20
-16.99111
 30
0.0
 10
-9.97769
 20
-16.99111
 30
0.0
 10
-9.98835
 20
-16.9952
 30
0.0
 10
-9.99709
 20
-17.00077
 30
0.0
 10
-10.00415
 20
-17.0079
 30
0.0
 10
-10.00415
 20
-17.0079
 30
0.0
 10
-10.01113
 20
-17.01502
 30
0.0
 10
-10.01636
 20
-17.02314
 30
0.0
 10
-10.01981
 20
-17.03231
 30
0.0
 10
-10.01981
 20
-17.03231
 30
0.0
 10
-10.02334
 20
-17.04148
 30
0.0
 10
-10.02503
 20
-17.05122
 30
0.0
 10
-10.02503
 20
-17.06145
 30
0.0
 10
-10.02503
 20
-17.06145
 30
0.0
 10
-10.02503
 20
-17.05122
 30
0.0
 10
-10.02334
 20
-17.04148
 30
0.0
 10
-10.01981
 20
-17.03231
 30
0.0
 10
-10.01981
 20
-17.03231
 30
0.0
 10
-10.01636
 20
-17.02314
 30
0.0
 10
-10.01113
 20
-17.01502
 30
0.0
 10
-10.00415
 20
-17.0079
 30
0.0
 10
-10.00415
 20
-17.0079
 30
0.0
 10
-9.99709
 20
-17.00077
 30
0.0
 10
-9.98835
 20
-16.9952
 30
0.0
 10
-9.97769
 20
-16.99111
 30
0.0
 10
-9.97769
 20
-16.99111
 30
0.0
 10
-9.96711
 20
-16.98701
 30
0.0
 10
-9.95462
 20
-16.9849
 30
0.0
 10
-9.94037
 20
-16.98483
 30
0.0
 10
-9.94037
 20
-16.98483
 30
0.0
 10
-9.92605
 20
-16.9849
 30
0.0
 10
-9.91384
 20
-16.98673
 30
0.0
 10
-9.90382
 20
-16.9904
 30
0.0
 10
-9.90382
 20
-16.9904
 30
0.0
 10
-9.89387
 20
-16.99407
 30
0.0
 10
-9.88576
 20
-16.99922
 30
0.0
 10
-9.87962
 20
-17.00578
 30
0.0
 10
-9.87962
 20
-17.00578
 30
0.0
 10
-9.87348
 20
-17.01234
 30
0.0
 10
-9.86897
 20
-17.02003
 30
0.0
 10
-9.86621
 20
-17.02878
 30
0.0
 10
-9.86621
 20
-17.02878
 30
0.0
 10
-9.86339
 20
-17.03753
 30
0.0
 10
-9.86198
 20
-17.04698
 30
0.0
 10
-9.86205
 20
-17.05722
 30
0.0
 10
-9.86205
 20
-17.05722
 30
0.0
 10
-9.86198
 20
-17.06745
 30
0.0
 10
-9.8636
 20
-17.07683
 30
0.0
 10
-9.86692
 20
-17.08537
 30
0.0
 10
-9.86692
 20
-17.08537
 30
0.0
 10
-9.87017
 20
-17.09397
 30
0.0
 10
-9.8756
 20
-17.10145
 30
0.0
 10
-9.88308
 20
-17.10773
 30
0.0
 10
-9.88308
 20
-17.10773
 30
0.0
 10
-9.89056
 20
-17.11408
 30
0.0
 10
-9.9005
 20
-17.11895
 30
0.0
 10
-9.91292
 20
-17.12241
 30
0.0
 10
-9.91292
 20
-17.12241
 30
0.0
 10
-9.92541
 20
-17.12587
 30
0.0
 10
-9.94072
 20
-17.12756
 30
0.0
 10
-9.95899
 20
-17.12749
 30
0.0
 10
-9.95899
 20
-17.12749
 30
0.0
 10
-9.93451
 20
-17.12749
 30
0.0
 10
-9.91433
 20
-17.1308
 30
0.0
 10
-9.8986
 20
-17.13737
 30
0.0
 10
-9.8986
 20
-17.13737
 30
0.0
 10
-9.88287
 20
-17.14393
 30
0.0
 10
-9.87115
 20
-17.15352
 30
0.0
 10
-9.8636
 20
-17.16629
 30
0.0
 10
-9.8636
 20
-17.16629
 30
0.0
 10
-9.85605
 20
-17.17906
 30
0.0
 10
-9.85224
 20
-17.1948
 30
0.0
 10
-9.85232
 20
-17.21342
 30
0.0
 10
-9.85232
 20
-17.21342
 30
0.0
 10
-9.85239
 20
-17.22739
 30
0.0
 10
-9.85457
 20
-17.23932
 30
0.0
 10
-9.85895
 20
-17.24927
 30
0.0
 10
-9.85895
 20
-17.24927
 30
0.0
 10
-9.86339
 20
-17.25914
 30
0.0
 10
-9.8696
 20
-17.26726
 30
0.0
 10
-9.87771
 20
-17.27354
 30
0.0
 10
-9.87771
 20
-17.27354
 30
0.0
 10
-9.88583
 20
-17.27982
 30
0.0
 10
-9.89542
 20
-17.2844
 30
0.0
 10
-9.90657
 20
-17.28737
 30
0.0
 10
-9.90657
 20
-17.28737
 30
0.0
 10
-9.91779
 20
-17.29033
 30
0.0
 10
-9.93014
 20
-17.29174
 30
0.0
 10
-9.94375
 20
-17.29174
 30
0.0
 10
-9.94375
 20
-17.29174
 30
0.0
 10
-9.96189
 20
-17.2916
 30
0.0
 10
-9.97748
 20
-17.28835
 30
0.0
 10
-9.99046
 20
-17.28193
 30
0.0
 10
-9.99046
 20
-17.28193
 30
0.0
 10
-10.00344
 20
-17.27551
 30
0.0
 10
-10.01339
 20
-17.26655
 30
0.0
 10
-10.02038
 20
-17.25512
 30
0.0
 10
-10.02038
 20
-17.25512
 30
0.0
 10
-10.02736
 20
-17.24362
 30
0.0
 10
-10.03089
 20
-17.23036
 30
0.0
 10
-10.03096
 20
-17.21512
 30
0.0
  0
SPLINE
  5
78
330
1F
100
AcDbEntity
  8
Layer 1
370
    53
100
AcDbSpline
210
0.0
220
0.0
230
1.0
 70
    11
 71
     3
 72
    36
 73
    32
 74
     0
 42
0.0000000001
 43
0.0000000001
 40
0.0
 40
0.0
 40
0.0
 40
0.0
 40
0.125
 40
0.125
 40
0.125
 40
0.125
 40
0.25
 40
0.25
 40
0.25
 40
0.25
 40
0.375
 40
0.375
 40
0.375
 40
0.375
 40
0.5
 40
0.5
 40
0.5
 40
0.5
 40
0.625
 40
0.625
 40
0.625
 40
0.625
 40
0.75
 40
0.75
 40
0.75
 40
0.75
 40
0.875
 40
0.875
 40
0.875
 40
0.875
 40
1.0
 40
1.0
 40
1.0
 40
1.0
 10
-12.65
 20
-12.2
 30
0.0
 10
-12.65
 20
-12.2
 30
0.0
 10
-8.35
 20
-12.2
 30
0.0
 10
-8.35
 20
-12.2
 30
0.0
 10
-8.35
 20
-12.2
 30
0.0
 10
-8.07391
 20
-12.2
 30
0.0
 10
-7.85
 20
-12.42391
 30
0.0
 10
-7.85
 20
-12.7
 30
0.0
 10
-7.85
 20
-12.7
 30
0.0
 10
-7.85
 20
-12.7
 30
0.0
 10
-7.85
 20
-17.0
 30
0.0
 10
-7.85
 20
-17.0
 30
0.0
 10
-7.85
 20
-17.0
 30
0.0
 10
-7.85
 20
-17.27609
 30
0.0
 10
-8.07391
 20
-17.5
 30
0.0
 10
-8.35
 20
-17.5
 30
0.0
 10
-8.35
 20
-17.5
 30
0.0
 10
-8.35
 20
-17.5
 30
0.0
 10
-12.65
 20
-17.5
 30
0.0
 10
-12.65
 20
-17.5
 30
0.0
 10
-12.65
 20
-17.5
 30
0.0
 10
-12.92609
 20
-17.5
 30
0.0
 10
-13.15
 20
-17.27609
 30
0.0
 10
-13.15
 20
-17.0
 30
0.0
 10
-13.15
 20
-17.0
 30
0.0
 10
-13.15
 20
-17.0
 30
0.0
 10
-13.15
 20
-12.7
 30
0.0
 10
-13.15
 20
-12.7
 30
0.0
 10
-13.15
 20
-12.7
 30
0.0
 10
-13.15
 20
-12.42391
 30
0.0
 10
-12.92609
 20
-12.2
 30
0.0
 10
-12.65
 20
-12.2
 30
0.0
  0
SPLINE
  5
79
330
1F
100
AcDbEntity
  8
Layer 1
370
    53
100
AcDbSpline
210
0.0
220
0.0
230
1.0
 70
    11
 71
     3
 72
    20
 73
    16
 74
     0
 42
0.0000000001
 43
0.0000000001
 40
0.0
 40
0.0
 40
0.0
 40
0.0
 40
0.25
 40
0.25
 40
0.25
 40
0.25
 40
0.5
 40
0.5
 40
0.5
 40
0.5
 40
0.75
 40
0.75
 40
0.75
 40
0.75
 40
1.0
 40
1.0
 40
1.0
 40
1.0
 10
-9.3
 20
-14.85
 30
0.0
 10
-9.3
 20
-15.51263
 30
0.0
 10
-9.83737
 20
-16.05
 30
0.0
 10
-10.5
 20
-16.05
 30
0.0
 10
-10.5
 20
-16.05
 30
0.0
 10
-11.16263
 20
-16.05
 30
0.0
 10
-11.7
 20
-15.51263
 30
0.0
 10
-11.7
 20
-14.85
 30
0.0
 10
-11.7
 20
-14.85
 30
0.0
 10
-11.7
 20
-14.18737
 30
0.0
 10
-11.16263
 20
-13.65
 30
0.0
 10
-10.5
 20
-13.65
 30
0.0
 10
-10.5
 20
-13.65
 30
0.0
 10
-9.83737
 20
-13.65
 30
0.0
 10
-9.3
 20
-14.18737
 30
0.0
 10
-9.3
 20
-14.85
 30
0.0
  0
SPLINE
  5
7A
330
1F
100
AcDbEntity
  8
Layer 1
370
    53
100
AcDbSpline
210
0.0
220
0.0
230
1.0
 70
    11
 71
     3
 72
    20
 73
    16
 74
     0
 42
0.0000000001
 43
0.0000000001
 40
0.0
 40
0.0
 40
0.0
 40
0.0
 40
0.25
 40
0.25
 40
0.25
 40
0.25
 40
0.5
 40
0.5
 40
0.5
 40
0.5
 40
0.75
 40
0.75
 40
0.75
 40
0.75
 40
1.0
 40
1.0
 40
1.0
 40
1.0
 10
-8.26
 20
-14.85
 30
0.0
 10
-8.26
 20
-14.98253
 30
0.0
 10
-8.36747
 20
-15.09
 30
0.0
 10
-8.5
 20
-15.09
 30
0.0
 10
-8.5
 20
-15.09
 30
0.0
 10
-8.63253
 20
-15.09
 30
0.0
 10
-8.74
 20
-14.98253
 30
0.0
 10
-8.74
 20
-14.85
 30
0.0
 10
-8.74
 20
-14.85
 30
0.0
 10
-8.74
 20
-14.71747
 30
0.0
 10
-8.63253
 20
-14.61
 30
0.0
 10
-8.5
 20
-14.61
 30
0.0
 10
-8.5
 20
-14.61
 30
0.0
 10
-8.36747
 20
-14.61
 30
0.0
 10
-8.26
 20
-14.71747
 30
0.0
 10
-8.26
 20
-14.85
 30
0.0
  0
SPLINE
  5
7B
330
1F
100
AcDbEntity
  8
Layer 1
370
    53
100
AcDbSpline
210
0.0
220
0.0
230
1.0
 70
    11
 71
     3
 72
    20
 73
    16
 74
     0
 42
0.0000000001
 43
0.0000000001
 40
0.0
 40
0.0
 40
0.0
 40
0.0
 40
0.25
 40
0.25
 40
0.25
 40
0.25
 40
0.5
 40
0.5
 40
0.5
 40
0.5
 40
0.75
 40
0.75
 40
0.75
 40
0.75
 40
1.0
 40
1.0
 40
1.0
 40
1.0
 10
-12.26
 20
-14.85
 30
0.0
 10
-12.26
 20
-14.98253
 30
0.0
 10
-12.36747
 20
-15.09
 30
0.0
 10
-12.5
 20
-15.09
 30
0.0
 10
-12.5
 20
-15.09
 30
0.0
 10
-12.63253
 20
-15.09
 30
0.0
 10
-12.74
 20
-14.98253
 30
0.0
 10
-12.74
 20
-14.85
 30
0.0
 10
-12.74
 20
-14.85
 30
0.0
 10
-12.74
 20
-14.71747
 30
0.0
 10
-12.63253
 20
-14.61
 30
0.0
 10
-12.5
 20
-14.61
 30
0.0
 10
-12.5
 20
-14.61
 30
0.0
 10
-12.36747
 20
-14.61
 30
0.0
 10
-12.26
 20
-14.71747
 30
0.0
 10
-12.26
 20
-14.85
 30
0.0
  0
SPLINE
  5
7C
330
1F
100
AcDbEntity
  8
Layer 1
370
    53
100
AcDbSpline
210
0.0
220
0.0
230
1.0
 70
    11
 71
     3
 72
    84
 73
    80
 74
     0
 42
0.0000000001
 43
0.0000000001
 40
0.0
 40
0.0
 40
0.0
 40
0.0
 40
0.05
 40
0.05
 40
0.05
 40
0.05
 40
0.1
 40
0.1
 40
0.1
 40
0.1
 40
0.15
 40
0.15
 40
0.15
 40
0.15
 40
0.2
 40
0.2
 40
0.2
 40
0.2
 40
0.25
 40
0.25
 40
0.25
 40
0.25
 40
0.3
 40
0.3
 40
0.3
 40
0.3
 40
0.35
 40
0.35
 40
0.35
 40
0.35
 40
0.4
 40
0.4
 40
0.4
 40
0.4
 40
0.45
 40
0.45
 40
0.45
 40
0.45
 40
0.4999999999999999
 40
0.4999999999999999
 40
0.4999999999999999
 40
0.4999999999999999
 40
0.5499999999999999
 40
0.5499999999999999
 40
0.5499999999999999
 40
0.5499999999999999
 40
0.6
 40
0.6
 40
0.6
 40
0.6
 40
0.65
 40
0.65
 40
0.65
 40
0.65
 40
0.7000000000000001
 40
0.7000000000000001
 40
0.7000000000000001
 40
0.7000000000000001
 40
0.7500000000000001
 40
0.7500000000000001
 40
0.7500000000000001
 40
0.7500000000000001
 40
0.8000000000000002
 40
0.8000000000000002
 40
0.8000000000000002
 40
0.8000000000000002
 40
0.8500000000000002
 40
0.8500000000000002
 40
0.8500000000000002
 40
0.8500000000000002
 40
0.9000000000000002
 40
0.9000000000000002
 40
0.9000000000000002
 40
0.9000000000000002
 40
0.9500000000000003
 40
0.9500000000000003
 40
0.9500000000000003
 40
0.9500000000000003
 40
1.0
 40
1.0
 40
1.0
 40
1.0
 10
-10.35
 20
-12.55
 30
0.0
 10
-10.35
 20
-12.55
 30
0.0
 10
-10.35
 20
-12.59015
 30
0.0
 10
-10.35
 20
-12.59015
 30
0.0
 10
-10.35
 20
-12.59015
 30
0.0
 10
-10.30447
 20
-12.6165
 30
0.0
 10
-10.2665
 20
-12.65447
 30
0.0
 10
-10.24015
 20
-12.7
 30
0.0
 10
-10.24015
 20
-12.7
 30
0.0
 10
-10.24015
 20
-12.7
 30
0.0
 10
-10.2
 20
-12.7
 30
0.0
 10
-10.2
 20
-12.7
 30
0.0
 10
-10.2
 20
-12.7
 30
0.0
 10
-10.2
 20
-12.7
 30
0.0
 10
-10.2
 20
-12.85
 30
0.0
 10
-10.2
 20
-12.85
 30
0.0
 10
-10.2
 20
-12.85
 30
0.0
 10
-10.2
 20
-12.85
 30
0.0
 10
-10.2
 20
-13.0
 30
0.0
 10
-10.2
 20
-13.0
 30
0.0
 10
-10.2
 20
-13.0
 30
0.0
 10
-10.2
 20
-13.0
 30
0.0
 10
-10.24015
 20
-13.0
 30
0.0
 10
-10.24015
 20
-13.0
 30
0.0
 10
-10.24015
 20
-13.0
 30
0.0
 10
-10.2665
 20
-13.04553
 30
0.0
 10
-10.30447
 20
-13.0835
 30
0.0
 10
-10.35
 20
-13.10985
 30
0.0
 10
-10.35
 20
-13.10985
 30
0.0
 10
-10.35
 20
-13.10985
 30
0.0
 10
-10.35
 20
-13.15
 30
0.0
 10
-10.35
 20
-13.15
 30
0.0
 10
-10.35
 20
-13.15
 30
0.0
 10
-10.35
 20
-13.15
 30
0.0
 10
-10.5
 20
-13.15
 30
0.0
 10
-10.5
 20
-13.15
 30
0.0
 10
-10.5
 20
-13.15
 30
0.0
 10
-10.5
 20
-13.15
 30
0.0
 10
-10.65
 20
-13.15
 30
0.0
 10
-10.65
 20
-13.15
 30
0.0
 10
-10.65
 20
-13.15
 30
0.0
 10
-10.65
 20
-13.15
 30
0.0
 10
-10.65
 20
-13.10985
 30
0.0
 10
-10.65
 20
-13.10985
 30
0.0
 10
-10.65
 20
-13.10985
 30
0.0
 10
-10.69553
 20
-13.0835
 30
0.0
 10
-10.7335
 20
-13.04553
 30
0.0
 10
-10.75985
 20
-13.0
 30
0.0
 10
-10.75985
 20
-13.0
 30
0.0
 10
-10.75985
 20
-13.0
 30
0.0
 10
-10.8
 20
-13.0
 30
0.0
 10
-10.8
 20
-13.0
 30
0.0
 10
-10.8
 20
-13.0
 30
0.0
 10
-10.8
 20
-13.0
 30
0.0
 10
-10.8
 20
-12.85
 30
0.0
 10
-10.8
 20
-12.85
 30
0.0
 10
-10.8
 20
-12.85
 30
0.0
 10
-10.8
 20
-12.85
 30
0.0
 10
-10.8
 20
-12.7
 30
0.0
 10
-10.8
 20
-12.7
 30
0.0
 10
-10.8
 20
-12.7
 30
0.0
 10
-10.8
 20
-12.7
 30
0.0
 10
-10.75985
 20
-12.7
 30
0.0
 10
-10.75985
 20
-12.7
 30
0.0
 10
-10.75985
 20
-12.7
 30
0.0
 10
-10.7335
 20
-12.65447
 30
0.0
 10
-10.69553
 20
-12.6165
 30
0.0
 10
-10.65
 20
-12.59015
 30
0.0
 10
-10.65
 20
-12.59015
 30
0.0
 10
-10.65
 20
-12.59015
 30
0.0
 10
-10.65
 20
-12.55
 30
0.0
 10
-10.65
 20
-12.55
 30
0.0
 10
-10.65
 20
-12.55
 30
0.0
 10
-10.65
 20
-12.55
 30
0.0
 10
-10.5
 20
-12.55
 30
0.0
 10
-10.5
 20
-12.55
 30
0.0
 10
-10.5
 20
-12.55
 30
0.0
 10
-10.5
 20
-12.55
 30
0.0
 10
-10.35
 20
-12.55
 30
0.0
 10
-10.35
 20
-12.55
 30
0.0
  0
ENDSEC
  0
SECTION
  2
OBJECTS
  0
DICTIONARY
  5
C
330
0
100
AcDbDictionary
281
     1
  3
ACAD_GROUP
350
D
  3
ACAD_LAYOUT
350
1A
  3
ACAD_MLEADERSTYLE
350
7E
  3
ACAD_MLINESTYLE
350
17
  3
ACAD_PLOTSETTINGS
350
19
  3
ACAD_PLOTSTYLENAME
350
E
  3
ACAD_SCALELIST
350
3B
  3
ACAD_TABLESTYLE
350
7D
  3
ACAD_VISUALSTYLE
350
2A
  0
DICTIONARY
  5
D
102
{ACAD_REACTORS
330
C
102
}
330
C
100
AcDbDictionary
281
     1
  0
DICTIONARY
  5
1A
102
{ACAD_REACTORS
330
C
102
}
330
C
100
AcDbDictionary
281
     1
  3
Layout1
350
1E
  3
Layout2
350
26
  3
Model
350
22
  0
DICTIONARY
  5
7E
102
{ACAD_REACTORS
330
C
102
}
330
C
100
AcDbDictionary
281
     1
  0
DICTIONARY
  5
17
102
{ACAD_REACTORS
330
C
102
}
330
C
100
AcDbDictionary
281
     1
  3
Standard
350
18
  0
DICTIONARY
  5
19
102
{ACAD_REACTORS
330
C
102
}
330
C
100
AcDbDictionary
281
     1
  0
ACDBDICTIONARYWDFLT
  5
E
102
{ACAD_REACTORS
330
C
102
}
330
C
100
AcDbDictionary
281
     1
  3
Normal
350
F
100
AcDbDictionaryWithDefault
340
F
  0
DICTIONARY
  5
3B
102
{ACAD_REACTORS
330
C
102
}
330
C
100
AcDbDictionary
281
     1
  3
A0
350
3C
  3
A1
350
3D
  3
A2
350
3E
  3
A3
350
3F
  3
A4
350
40
  3
A5
350
41
  3
A6
350
42
  3
A7
350
43
  3
A8
350
44
  3
A9
350
45
  3
B0
350
46
  3
B1
350
47
  3
B2
350
48
  3
B3
350
49
  3
B4
350
4A
  3
B5
350
4B
  3
B6
350
4C
  3
B7
350
4D
  3
B8
350
4E
  3
B9
350
4F
  3
C0
350
50
  3
C1
350
51
  3
C2
350
52
  3
C3
350
53
  3
C4
350
54
  3
C5
350
55
  3
C6
350
56
  3
C7
350
57
  3
C8
350
58
  3
C9
350
59
  3
D0
350
5A
  3
D1
350
5B
  3
D2
350
5C
  0
DICTIONARY
  5
7D
102
{ACAD_REACTORS
330
C
102
}
330
C
100
AcDbDictionary
281
     1
  0
DICTIONARY
  5
2A
102
{ACAD_REACTORS
330
C
102
}
330
C
100
AcDbDictionary
281
     1
  3
2dWireframe
350
2F
  3
3D Hidden
350
31
  3
3dWireframe
350
30
  3
Basic
350
32
  3
Brighten
350
36
  3
ColorChange
350
3A
  3
Conceptual
350
34
  3
Dim
350
35
  3
Facepattern
350
39
  3
Flat
350
2B
  3
FlatWithEdges
350
2C
  3
Gouraud
350
2D
  3
GouraudWithEdges
350
2E
  3
Linepattern
350
38
  3
Realistic
350
33
  3
Thicken
350
37
  0
LAYOUT
  5
1E
102
{ACAD_REACTORS
330
1A
102
}
330
1A
100
AcDbPlotSettings
  1

  2
none_device
  4

  6

 40
0.0
 41
0.0
 42
0.0
 43
0.0
 44
0.0
 45
0.0
 46
0.0
 47
0.0
 48
0.0
 49
0.0
140
0.0
141
0.0
142
1.0
143
1.0
 70
   688
 72
     0
 73
     0
 74
     5
  7

 75
    16
 76
     0
 77
     2
 78
   300
147
1.0
148
0.0
149
0.0
100
AcDbLayout
  1
Layout1
 70
     1
 71
     1
 10
0.0
 20
0.0
 11
12.0
 21
9.0
 12
0.0
 22
0.0
 32
0.0
 14
1.000000000000000E+20
 24
1.000000000000000E+20
 34
1.000000000000000E+20
 15
-1.000000000000000E+20
 25
-1.000000000000000E+20
 35
-1.000000000000000E+20
146
0.0
 13
0.0
 23
0.0
 33
0.0
 16
1.0
 26
0.0
 36
0.0
 17
0.0
 27
1.0
 37
0.0
 76
     0
330
1B
  0
LAYOUT
  5
26
102
{ACAD_REACTORS
330
1A
102
}
330
1A
100
AcDbPlotSettings
  1

  2
none_device
  4

  6

 40
0.0
 41
0.0
 42
0.0
 43
0.0
 44
0.0
 45
0.0
 46
0.0
 47
0.0
 48
0.0
 49
0.0
140
0.0
141
0.0
142
1.0
143
1.0
 70
   688
 72
     0
 73
     0
 74
     5
  7

 75
    16
 76
     0
 77
     2
 78
   300
147
1.0
148
0.0
149
0.0
100
AcDbLayout
  1
Layout2
 70
     1
 71
     2
 10
0.0
 20
0.0
 11
0.0
 21
0.0
 12
0.0
 22
0.0
 32
0.0
 14
0.0
 24
0.0
 34
0.0
 15
0.0
 25
0.0
 35
0.0
146
0.0
 13
0.0
 23
0.0
 33
0.0
 16
1.0
 26
0.0
 36
0.0
 17
0.0
 27
1.0
 37
0.0
 76
     0
330
23
  0
LAYOUT
  5
22
102
{ACAD_REACTORS
330
1A
102
}
330
1A
100
AcDbPlotSettings
  1

  2
none_device
  4

  6

 40
0.0
 41
0.0
 42
0.0
 43
0.0
 44
0.0
 45
0.0
 46
0.0
 47
0.0
 48
0.0
 49
0.0
140
0.0
141
0.0
142
1.0
143
1.0
 70
  1712
 72
     0
 73
     0
 74
     0
  7

 75
     0
 76
     0
 77
     2
 78
   300
147
1.0
148
0.0
149
0.0
100
AcDbLayout
  1
Model
 70
     1
 71
     0
 10
0.0
 20
0.0
 11
12.0
 21
9.0
 12
0.0
 22
0.0
 32
0.0
 14
-13.17646
 24
-17.52646
 34
0.0
 15
-7.82354
 25
-12.17354
 35
0.0
146
0.0
 13
0.0
 23
0.0
 33
0.0
 16
1.0
 26
0.0
 36
0.0
 17
0.0
 27
1.0
 37
0.0
 76
     0
330
1F
331
29
  0
MLINESTYLE
  5
18
102
{ACAD_REACTORS
330
17
102
}
330
17
100
AcDbMlineStyle
  2
Standard
 70
     0
  3

 62
   256
 51
90.0
 52
90.0
 71
     2
 49
0.5
 62
   256
  6
BYLAYER
 49
-0.5
 62
   256
  6
BYLAYER
  0
ACDBPLACEHOLDER
  5
F
102
{ACAD_REACTORS
330
E
102
}
330
E
  0
SCALE
  5
3C
102
{ACAD_REACTORS
330
3B
102
}
330
3B
100
AcDbScale
 70
     0
300
1:1
140
1.0
141
1.0
290
     1
  0
SCALE
  5
3D
102
{ACAD_REACTORS
330
3B
102
}
330
3B
100
AcDbScale
 70
     0
300
1:2
140
1.0
141
2.0
290
     0
  0
SCALE
  5
3E
102
{ACAD_REACTORS
330
3B
102
}
330
3B
100
AcDbScale
 70
     0
300
1:4
140
1.0
141
4.0
290
     0
  0
SCALE
  5
3F
102
{ACAD_REACTORS
330
3B
102
}
330
3B
100
AcDbScale
 70
     0
300
1:5
140
1.0
141
5.0
290
     0
  0
SCALE
  5
40
102
{ACAD_REACTORS
330
3B
102
}
330
3B
100
AcDbScale
 70
     0
300
1:8
140
1.0
141
8.0
290
     0
  0
SCALE
  5
41
102
{ACAD_REACTORS
330
3B
102
}
330
3B
100
AcDbScale
 70
     0
300
1:10
140
1.0
141
10.0
290
     0
  0
SCALE
  5
42
102
{ACAD_REACTORS
330
3B
102
}
330
3B
100
AcDbScale
 70
     0
300
1:16
140
1.0
141
16.0
290
     0
  0
SCALE
  5
43
102
{ACAD_REACTORS
330
3B
102
}
330
3B
100
AcDbScale
 70
     0
300
1:20
140
1.0
141
20.0
290
     0
  0
SCALE
  5
44
102
{ACAD_REACTORS
330
3B
102
}
330
3B
100
AcDbScale
 70
     0
300
1:30
140
1.0
141
30.0
290
     0
  0
SCALE
  5
45
102
{ACAD_REACTORS
330
3B
102
}
330
3B
100
AcDbScale
 70
     0
300
1:40
140
1.0
141
40.0
290
     0
  0
SCALE
  5
46
102
{ACAD_REACTORS
330
3B
102
}
330
3B
100
AcDbScale
 70
     0
300
1:50
140
1.0
141
50.0
290
     0
  0
SCALE
  5
47
102
{ACAD_REACTORS
330
3B
102
}
330
3B
100
AcDbScale
 70
     0
300
1:100
140
1.0
141
100.0
290
     0
  0
SCALE
  5
48
102
{ACAD_REACTORS
330
3B
102
}
330
3B
100
AcDbScale
 70
     0
300
2:1
140
2.0
141
1.0
290
     0
  0
SCALE
  5
49
102
{ACAD_REACTORS
330
3B
102
}
330
3B
100
AcDbScale
 70
     0
300
4:1
140
4.0
141
1.0
290
     0
  0
SCALE
  5
4A
102
{ACAD_REACTORS
330
3B
102
}
330
3B
100
AcDbScale
 70
     0
300
8:1
140
8.0
141
1.0
290
     0
  0
SCALE
  5
4B
102
{ACAD_REACTORS
330
3B
102
}
330
3B
100
AcDbScale
 70
     0
300
10:1
140
10.0
141
1.0
290
     0
  0
SCALE
  5
4C
102
{ACAD_REACTORS
330
3B
102
}
330
3B
100
AcDbScale
 70
     0
300
100:1
140
100.0
141
1.0
290
     0
  0
SCALE
  5
4D
102
{ACAD_REACTORS
330
3B
102
}
330
3B
100
AcDbScale
 70
     0
300
1/128" = 1'-0"
140
0.0078125
141
12.0
290
     0
  0
SCALE
  5
4E
102
{ACAD_REACTORS
330
3B
102
}
330
3B
100
AcDbScale
 70
     0
300
1/64" = 1'-0"
140
0.015625
141
12.0
290
     0
  0
SCALE
  5
4F
102
{ACAD_REACTORS
330
3B
102
}
330
3B
100
AcDbScale
 70
     0
300
1/32" = 1'-0"
140
0.03125
141
12.0
290
     0
  0
SCALE
  5
50
102
{ACAD_REACTORS
330
3B
102
}
330
3B
100
AcDbScale
 70
     0
300
1/16" = 1'-0"
140
0.0625
141
12.0
290
     0
  0
SCALE
  5
51
102
{ACAD_REACTORS
330
3B
102
}
330
3B
100
AcDbScale
 70
     0
300
3/32" = 1'-0"
140
0.09375
141
12.0
290
     0
  0
SCALE
  5
52
102
{ACAD_REACTORS
330
3B
102
}
330
3B
100
AcDbScale
 70
     0
300
1/8" = 1'-0"
140
0.125
141
12.0
290
     0
  0
SCALE
  5
53
102
{ACAD_REACTORS
330
3B
102
}
330
3B
100
AcDbScale
 70
     0
300
3/16" = 1'-0"
140
0.1875
141
12.0
290
     0
  0
SCALE
  5
54
102
{ACAD_REACTORS
330
3B
102
}
330
3B
100
AcDbScale
 70
     0
300
1/4" = 1'-0"
140
0.25
141
12.0
290
     0
  0
SCALE
  5
55
102
{ACAD_REACTORS
330
3B
102
}
330
3B
100
AcDbScale
 70
     0
300
3/8" = 1'-0"
140
0.375
141
12.0
290
     0
  0
SCALE
  5
56
102
{ACAD_REACTORS
330
3B
102
}
330
3B
100
AcDbScale
 70
     0
300
1/2" = 1'-0"
140
0.5
141
12.0
290
     0
  0
SCALE
  5
57
102
{ACAD_REACTORS
330
3B
102
}
330
3B
100
AcDbScale
 70
     0
300
3/4" = 1'-0"
140
0.75
141
12.0
290
     0
  0
SCALE
  5
58
102
{ACAD_REACTORS
330
3B
102
}
330
3B
100
AcDbScale
 70
     0
300
1" = 1'-0"
140
1.0
141
12.0
290
     0
  0
SCALE
  5
59
102
{ACAD_REACTORS
330
3B
102
}
330
3B
100
AcDbScale
 70
     0
300
1-1/2" = 1'-0"
140
1.5
141
12.0
290
     0
  0
SCALE
  5
5A
102
{ACAD_REACTORS
330
3B
102
}
330
3B
100
AcDbScale
 70
     0
300
3" = 1'-0"
140
3.0
141
12.0
290
     0
  0
SCALE
  5
5B
102
{ACAD_REACTORS
330
3B
102
}
330
3B
100
AcDbScale
 70
     0
300
6" = 1'-0"
140
6.0
141
12.0
290
     0
  0
SCALE
  5
5C
102
{ACAD_REACTORS
330
3B
102
}
330
3B
100
AcDbScale
 70
     0
300
1'-0" = 1'-0"
140
12.0
141
12.0
290
     0
  0
VISUALSTYLE
  5
2F
102
{ACAD_REACTORS
330
2A
102
}
330
2A
100
AcDbVisualStyle
  2
2dWireframe
 70
     4
 71
     0
 72
     2
 73
     0
 90
        0
 40
-0.6
 41
-30.0
 62
     5
 63
     7
421
 16777215
 74
     1
 91
        4
 64
     7
 65
   257
 75
     1
175
     1
 42
1.0
 92
        0
 66
   257
 43
1.0
 76
     1
 77
     6
 78
     2
 67
     7
 79
     5
170
     0
171
     0
290
     0
174
     0
 93
        1
 44
0.0
173
     0
291
     0
 45
0.0
  0
VISUALSTYLE
  5
31
102
{ACAD_REACTORS
330
2A
102
}
330
2A
100
AcDbVisualStyle
  2
3D Hidden
 70
     6
 71
     1
 72
     2
 73
     2
 90
        0
 40
-0.6
 41
-30.0
 62
     5
 63
     7
421
 16777215
 74
     2
 91
        2
 64
     7
 65
   257
 75
     2
175
     1
 42
40.0
 92
        0
 66
   257
 43
1.0
 76
     1
 77
     6
 78
     2
 67
     7
 79
     3
170
     0
171
     0
290
     0
174
     0
 93
        1
 44
0.0
173
     0
291
     0
 45
0.0
  0
VISUALSTYLE
  5
30
102
{ACAD_REACTORS
330
2A
102
}
330
2A
100
AcDbVisualStyle
  2
3dWireframe
 70
     5
 71
     0
 72
     2
 73
     0
 90
        0
 40
-0.6
 41
-30.0
 62
     5
 63
     7
421
 16777215
 74
     1
 91
        4
 64
     7
 65
   257
 75
     1
175
     1
 42
1.0
 92
        0
 66
   257
 43
1.0
 76
     1
 77
     6
 78
     2
 67
     7
 79
     5
170
     0
171
     0
290
     0
174
     0
 93
        1
 44
0.0
173
     0
291
     0
 45
0.0
  0
VISUALSTYLE
  5
32
102
{ACAD_REACTORS
330
2A
102
}
330
2A
100
AcDbVisualStyle
  2
Basic
 70
     7
 71
     1
 72
     0
 73
     1
 90
        0
 40
-0.6
 41
-30.0
 62
     5
 63
     7
421
 16777215
 74
     0
 91
        4
 64
     7
 65
   257
 75
     1
175
     1
 42
1.0
 92
        8
 66
     7
 43
1.0
 76
     1
 77
     6
 78
     2
 67
     7
 79
     5
170
     0
171
     0
290
     0
174
     0
 93
        1
 44
0.0
173
     0
291
     1
 45
0.0
  0
VISUALSTYLE
  5
36
102
{ACAD_REACTORS
330
2A
102
}
330
2A
100
AcDbVisualStyle
  2
Brighten
 70
    12
 71
     2
 72
     2
 73
     0
 90
        0
 40
-0.6
 41
-30.0
 62
     5
 63
     7
421
 16777215
 74
     1
 91
        4
 64
     7
 65
   257
 75
     1
175
     1
 42
1.0
 92
        8
 66
     7
 43
1.0
 76
     1
 77
     6
 78
     2
 67
     7
 79
     5
170
     0
171
     0
290
     0
174
     0
 93
        1
 44
50.0
173
     0
291
     1
 45
0.0
  0
VISUALSTYLE
  5
3A
102
{ACAD_REACTORS
330
2A
102
}
330
2A
100
AcDbVisualStyle
  2
ColorChange
 70
    16
 71
     2
 72
     2
 73
     3
 90
        0
 40
-0.6
 41
-30.0
 62
     5
 63
     8
421
  8421504
 74
     1
 91
        4
 64
     7
 65
   257
 75
     1
175
     1
 42
1.0
 92
        8
 66
     8
424
  8421504
 43
1.0
 76
     1
 77
     6
 78
     2
 67
     7
 79
     5
170
     0
171
     0
290
     0
174
     0
 93
        1
 44
0.0
173
     0
291
     1
 45
0.0
  0
VISUALSTYLE
  5
34
102
{ACAD_REACTORS
330
2A
102
}
330
2A
100
AcDbVisualStyle
  2
Conceptual
 70
     9
 71
     3
 72
     2
 73
     0
 90
        0
 40
-0.6
 41
-30.0
 62
     5
 63
     7
421
 16777215
 74
     2
 91
        2
 64
     7
 65
   257
 75
     1
175
     1
 42
40.0
 92
        8
 66
     7
 43
1.0
 76
     1
 77
     6
 78
     2
 67
     7
 79
     3
170
     0
171
     0
290
     0
174
     0
 93
        1
 44
0.0
173
     0
291
     0
 45
0.0
  0
VISUALSTYLE
  5
35
102
{ACAD_REACTORS
330
2A
102
}
330
2A
100
AcDbVisualStyle
  2
Dim
 70
    11
 71
     2
 72
     2
 73
     0
 90
        0
 40
-0.6
 41
-30.0
 62
     5
 63
     7
421
 16777215
 74
     1
 91
        4
 64
     7
 65
   257
 75
     1
175
     1
 42
1.0
 92
        8
 66
     7
 43
1.0
 76
     1
 77
     6
 78
     2
 67
     7
 79
     5
170
     0
171
     0
290
     0
174
     0
 93
        1
 44
-50.0
173
     0
291
     1
 45
0.0
  0
VISUALSTYLE
  5
39
102
{ACAD_REACTORS
330
2A
102
}
330
2A
100
AcDbVisualStyle
  2
Facepattern
 70
    15
 71
     2
 72
     2
 73
     0
 90
        0
 40
-0.6
 41
-30.0
 62
     5
 63
     7
421
 16777215
 74
     1
 91
        4
 64
     7
 65
   257
 75
     1
175
     1
 42
1.0
 92
        8
 66
     7
 43
1.0
 76
     1
 77
     6
 78
     2
 67
     7
 79
     5
170
     0
171
     0
290
     0
174
     0
 93
        1
 44
0.0
173
     0
291
     1
 45
0.0
  0
VISUALSTYLE
  5
2B
102
{ACAD_REACTORS
330
2A
102
}
330
2A
100
AcDbVisualStyle
  2
Flat
 70
     0
 71
     2
 72
     1
 73
     1
 90
        2
 40
-0.6
 41
30.0
 62
     5
 63
     7
421
 16777215
 74
     0
 91
        4
 64
     7
 65
   257
 75
     1
175
     1
 42
1.0
 92
        8
 66
     7
 43
1.0
 76
     1
 77
     6
 78
     2
 67
     7
 79
     5
170
     0
171
     0
290
     0
174
     0
 93
       13
 44
0.0
173
     0
291
     1
 45
0.0
  0
VISUALSTYLE
  5
2C
102
{ACAD_REACTORS
330
2A
102
}
330
2A
100
AcDbVisualStyle
  2
FlatWithEdges
 70
     1
 71
     2
 72
     1
 73
     1
 90
        2
 40
-0.6
 41
30.0
 62
     5
 63
     7
421
 16777215
 74
     1
 91
        4
 64
     7
 65
   257
 75
     1
175
     1
 42
1.0
 92
        0
 66
   257
 43
1.0
 76
     1
 77
     6
 78
     2
 67
     7
 79
     5
170
     0
171
     0
290
     0
174
     0
 93
       13
 44
0.0
173
     0
291
     1
 45
0.0
  0
VISUALSTYLE
  5
2D
102
{ACAD_REACTORS
330
2A
102
}
330
2A
100
AcDbVisualStyle
  2
Gouraud
 70
     2
 71
     2
 72
     2
 73
     1
 90
        2
 40
-0.6
 41
30.0
 62
     5
 63
     7
421
 16777215
 74
     0
 91
        4
 64
     7
 65
   257
 75
     1
175
     1
 42
1.0
 92
        0
 66
     7
 43
1.0
 76
     1
 77
     6
 78
     2
 67
     7
 79
     5
170
     0
171
     0
290
     0
174
     0
 93
       13
 44
0.0
173
     0
291
     1
 45
0.0
  0
VISUALSTYLE
  5
2E
102
{ACAD_REACTORS
330
2A
102
}
330
2A
100
AcDbVisualStyle
  2
GouraudWithEdges
 70
     3
 71
     2
 72
     2
 73
     1
 90
        2
 40
-0.6
 41
30.0
 62
     5
 63
     7
421
 16777215
 74
     1
 91
        4
 64
     7
 65
   257
 75
     1
175
     1
 42
1.0
 92
        0
 66
   257
 43
1.0
 76
     1
 77
     6
 78
     2
 67
     7
 79
     5
170
     0
171
     0
290
     0
174
     0
 93
       13
 44
0.0
173
     0
291
     1
 45
0.0
  0
VISUALSTYLE
  5
38
102
{ACAD_REACTORS
330
2A
102
}
330
2A
100
AcDbVisualStyle
  2
Linepattern
 70
    14
 71
     2
 72
     2
 73
     0
 90
        0
 40
-0.6
 41
-30.0
 62
     5
 63
     7
421
 16777215
 74
     1
 91
        4
 64
     7
 65
   257
 75
     7
175
     7
 42
1.0
 92
        8
 66
     7
 43
1.0
 76
     1
 77
     6
 78
     2
 67
     7
 79
     5
170
     0
171
     0
290
     0
174
     0
 93
        1
 44
0.0
173
     0
291
     1
 45
0.0
  0
VISUALSTYLE
  5
33
102
{ACAD_REACTORS
330
2A
102
}
330
2A
100
AcDbVisualStyle
  2
Realistic
 70
     8
 71
     2
 72
     2
 73
     0
 90
        0
 40
-0.6
 41
-30.0
 62
     5
 63
     7
421
 16777215
 74
     1
 91
        0
 64
     7
 65
   257
 75
     1
175
     1
 42
1.0
 92
        8
 66
     8
424
  7895160
 43
1.0
 76
     1
 77
     6
 78
     2
 67
     7
 79
     5
170
     0
171
     0
290
     0
174
     0
 93
       13
 44
0.0
173
     0
291
     0
 45
0.0
  0
VISUALSTYLE
  5
37
102
{ACAD_REACTORS
330
2A
102
}
330
2A
100
AcDbVisualStyle
  2
Thicken
 70
    13
 71
     2
 72
     2
 73
     0
 90
        0
 40
-0.6
 41
-30.0
 62
     5
 63
     7
421
 16777215
 74
     1
 91
        4
 64
     7
 65
   257
 75
     1
175
     1
 42
1.0
 92
       12
 66
     7
 43
1.0
 76
     1
 77
     6
 78
     2
 67
     7
 79
     5
170
     0
171
     0
290
     0
174
     0
 93
        1
 44
0.0
173
     0
291
     1
 45
0.0
  0
ENDSEC
  0
EOF
