  0
SECTION
  2
BLOCKS
  0
ENDSEC
  0
SECTION
  2
ENTITIES
  0
LINE
  8
0
 10
61.6576
 20
-5.96222
 11
62.2991
 21
-5.83463
  0
LINE
  8
0
 10
62.2991
 20
-5.83463
 11
62.9184
 21
-5.62439
  0
LINE
  8
0
 10
62.9184
 20
-5.62439
 11
63.505
 21
-5.33511
  0
LINE
  8
0
 10
63.505
 20
-5.33511
 11
64.0488
 21
-4.97176
  0
LINE
  8
0
 10
64.0488
 20
-4.97176
 11
64.5405
 21
-4.54053
  0
LINE
  8
0
 10
64.5405
 20
-4.54053
 11
64.9718
 21
-4.0488
  0
LINE
  8
0
 10
64.9718
 20
-4.0488
 11
65.3351
 21
-3.50499
  0
LINE
  8
0
 10
65.3351
 20
-3.50499
 11
65.6244
 21
-2.91841
  0
LINE
  8
0
 10
65.6244
 20
-2.91841
 11
65.8346
 21
-2.29909
  0
LINE
  8
0
 10
65.8346
 20
-2.29909
 11
65.9622
 21
-1.65762
  0
LINE
  8
0
 10
65.9622
 20
-1.65762
 11
66.005
 21
-1.00499
  0
LINE
  8
0
 10
66.005
 20
-1.00499
 11
66.005
 21
1.00499
  0
LINE
  8
0
 10
66.005
 20
1.00499
 11
65.9622
 21
1.65762
  0
LINE
  8
0
 10
65.9622
 20
1.65762
 11
65.8346
 21
2.29909
  0
LINE
  8
0
 10
65.8346
 20
2.29909
 11
65.6244
 21
2.91841
  0
LINE
  8
0
 10
65.6244
 20
2.91841
 11
65.3351
 21
3.50499
  0
LINE
  8
0
 10
65.3351
 20
3.50499
 11
64.9718
 21
4.0488
  0
LINE
  8
0
 10
64.9718
 20
4.0488
 11
64.5405
 21
4.54053
  0
LINE
  8
0
 10
64.5405
 20
4.54053
 11
64.0488
 21
4.97176
  0
LINE
  8
0
 10
64.0488
 20
4.97176
 11
63.505
 21
5.33511
  0
LINE
  8
0
 10
63.505
 20
5.33511
 11
62.9184
 21
5.62439
  0
LINE
  8
0
 10
62.9184
 20
5.62439
 11
62.2991
 21
5.83463
  0
LINE
  8
0
 10
62.2991
 20
5.83463
 11
61.6576
 21
5.96222
  0
LINE
  8
0
 10
61.6576
 20
5.96222
 11
61.005
 21
6.00499
  0
LINE
  8
0
 10
61.005
 20
6.00499
 11
-61.005
 21
6.00499
  0
LINE
  8
0
 10
-61.005
 20
6.00499
 11
-61.6576
 21
5.96222
  0
LINE
  8
0
 10
-61.6576
 20
5.96222
 11
-62.2991
 21
5.83463
  0
LINE
  8
0
 10
-62.2991
 20
5.83463
 11
-62.9184
 21
5.62439
  0
LINE
  8
0
 10
-62.9184
 20
5.62439
 11
-63.505
 21
5.33511
  0
LINE
  8
0
 10
-63.505
 20
5.33511
 11
-64.0488
 21
4.97176
  0
LINE
  8
0
 10
-64.0488
 20
4.97176
 11
-64.5405
 21
4.54053
  0
LINE
  8
0
 10
-64.5405
 20
4.54053
 11
-64.9718
 21
4.0488
  0
LINE
  8
0
 10
-64.9718
 20
4.0488
 11
-65.3351
 21
3.50499
  0
LINE
  8
0
 10
-65.3351
 20
3.50499
 11
-65.6244
 21
2.91841
  0
LINE
  8
0
 10
-65.6244
 20
2.91841
 11
-65.8346
 21
2.29909
  0
LINE
  8
0
 10
-65.8346
 20
2.29909
 11
-65.9622
 21
1.65762
  0
LINE
  8
0
 10
-65.9622
 20
1.65762
 11
-66.005
 21
1.00499
  0
LINE
  8
0
 10
-66.005
 20
1.00499
 11
-66.005
 21
-1.00499
  0
LINE
  8
0
 10
-66.005
 20
-1.00499
 11
-65.9622
 21
-1.65762
  0
LINE
  8
0
 10
-65.9622
 20
-1.65762
 11
-65.8346
 21
-2.29909
  0
LINE
  8
0
 10
-65.8346
 20
-2.29909
 11
-65.6244
 21
-2.91841
  0
LINE
  8
0
 10
-65.6244
 20
-2.91841
 11
-65.3351
 21
-3.50499
  0
LINE
  8
0
 10
-65.3351
 20
-3.50499
 11
-64.9718
 21
-4.0488
  0
LINE
  8
0
 10
-64.9718
 20
-4.0488
 11
-64.5405
 21
-4.54053
  0
LINE
  8
0
 10
-64.5405
 20
-4.54053
 11
-64.0488
 21
-4.97176
  0
LINE
  8
0
 10
-64.0488
 20
-4.97176
 11
-63.505
 21
-5.33511
  0
LINE
  8
0
 10
-63.505
 20
-5.33511
 11
-62.9184
 21
-5.62439
  0
LINE
  8
0
 10
-62.9184
 20
-5.62439
 11
-62.2991
 21
-5.83463
  0
LINE
  8
0
 10
-62.2991
 20
-5.83463
 11
-61.6576
 21
-5.96222
  0
LINE
  8
0
 10
-61.6576
 20
-5.96222
 11
-61.005
 21
-6.00499
  0
LINE
  8
0
 10
-61.005
 20
-6.00499
 11
61.005
 21
-6.00499
  0
LINE
  8
0
 10
61.005
 20
-6.00499
 11
61.6576
 21
-5.96222
  0
LINE
  8
0
 10
-15.4242
 20
-3.22218
 11
-15.8412
 21
-3.13925
  0
LINE
  8
0
 10
-15.8412
 20
-3.13925
 11
-16.2437
 21
-3.00259
  0
LINE
  8
0
 10
-16.2437
 20
-3.00259
 11
-16.625
 21
-2.81458
  0
LINE
  8
0
 10
-16.625
 20
-2.81458
 11
-16.9785
 21
-2.57838
  0
LINE
  8
0
 10
-16.9785
 20
-2.57838
 11
-17.2981
 21
-2.2981
  0
LINE
  8
0
 10
-17.2981
 20
-2.2981
 11
-17.5784
 21
-1.97847
  0
LINE
  8
0
 10
-17.5784
 20
-1.97847
 11
-17.8146
 21
-1.625
  0
LINE
  8
0
 10
-17.8146
 20
-1.625
 11
-18.0026
 21
-1.24371
  0
LINE
  8
0
 10
-18.0026
 20
-1.24371
 11
-18.1393
 21
-0.841156
  0
LINE
  8
0
 10
-18.1393
 20
-0.841156
 11
-18.2222
 21
-0.42421
  0
LINE
  8
0
 10
-18.2222
 20
-0.42421
 11
-18.25
 21
0
  0
LINE
  8
0
 10
-18.25
 20
0
 11
-18.2222
 21
0.42421
  0
LINE
  8
0
 10
-18.2222
 20
0.42421
 11
-18.1393
 21
0.841156
  0
LINE
  8
0
 10
-18.1393
 20
0.841156
 11
-18.0026
 21
1.24371
  0
LINE
  8
0
 10
-18.0026
 20
1.24371
 11
-17.8146
 21
1.625
  0
LINE
  8
0
 10
-17.8146
 20
1.625
 11
-17.5784
 21
1.97847
  0
LINE
  8
0
 10
-17.5784
 20
1.97847
 11
-17.2981
 21
2.2981
  0
LINE
  8
0
 10
-17.2981
 20
2.2981
 11
-16.9785
 21
2.57838
  0
LINE
  8
0
 10
-16.9785
 20
2.57838
 11
-16.625
 21
2.81458
  0
LINE
  8
0
 10
-16.625
 20
2.81458
 11
-16.2437
 21
3.00259
  0
LINE
  8
0
 10
-16.2437
 20
3.00259
 11
-15.8412
 21
3.13925
  0
LINE
  8
0
 10
-15.8412
 20
3.13925
 11
-15.4242
 21
3.22218
  0
LINE
  8
0
 10
-15.4242
 20
3.22218
 11
-15
 21
3.25
  0
LINE
  8
0
 10
-15
 20
3.25
 11
-14.5758
 21
3.22218
  0
LINE
  8
0
 10
-14.5758
 20
3.22218
 11
-14.1588
 21
3.13925
  0
LINE
  8
0
 10
-14.1588
 20
3.13925
 11
-13.7563
 21
3.00259
  0
LINE
  8
0
 10
-13.7563
 20
3.00259
 11
-13.375
 21
2.81458
  0
LINE
  8
0
 10
-13.375
 20
2.81458
 11
-13.0215
 21
2.57838
  0
LINE
  8
0
 10
-13.0215
 20
2.57838
 11
-12.7019
 21
2.2981
  0
LINE
  8
0
 10
-12.7019
 20
2.2981
 11
-12.4216
 21
1.97847
  0
LINE
  8
0
 10
-12.4216
 20
1.97847
 11
-12.1854
 21
1.625
  0
LINE
  8
0
 10
-12.1854
 20
1.625
 11
-11.9974
 21
1.24371
  0
LINE
  8
0
 10
-11.9974
 20
1.24371
 11
-11.8607
 21
0.841156
  0
LINE
  8
0
 10
-11.8607
 20
0.841156
 11
-11.7778
 21
0.42421
  0
LINE
  8
0
 10
-11.7778
 20
0.42421
 11
-11.75
 21
0
  0
LINE
  8
0
 10
-11.75
 20
0
 11
-11.7778
 21
-0.42421
  0
LINE
  8
0
 10
-11.7778
 20
-0.42421
 11
-11.8607
 21
-0.841156
  0
LINE
  8
0
 10
-11.8607
 20
-0.841156
 11
-11.9974
 21
-1.24371
  0
LINE
  8
0
 10
-11.9974
 20
-1.24371
 11
-12.1854
 21
-1.625
  0
LINE
  8
0
 10
-12.1854
 20
-1.625
 11
-12.4216
 21
-1.97847
  0
LINE
  8
0
 10
-12.4216
 20
-1.97847
 11
-12.7019
 21
-2.2981
  0
LINE
  8
0
 10
-12.7019
 20
-2.2981
 11
-13.0215
 21
-2.57838
  0
LINE
  8
0
 10
-13.0215
 20
-2.57838
 11
-13.375
 21
-2.81458
  0
LINE
  8
0
 10
-13.375
 20
-2.81458
 11
-13.7563
 21
-3.00259
  0
LINE
  8
0
 10
-13.7563
 20
-3.00259
 11
-14.1588
 21
-3.13925
  0
LINE
  8
0
 10
-14.1588
 20
-3.13925
 11
-14.5758
 21
-3.22218
  0
LINE
  8
0
 10
-14.5758
 20
-3.22218
 11
-15
 21
-3.25
  0
LINE
  8
0
 10
-15
 20
-3.25
 11
-15.4242
 21
-3.22218
  0
LINE
  8
0
 10
0.841156
 20
3.13925
 11
1.24371
 21
3.00259
  0
LINE
  8
0
 10
1.24371
 20
3.00259
 11
1.625
 21
2.81458
  0
LINE
  8
0
 10
1.625
 20
2.81458
 11
1.97847
 21
2.57838
  0
LINE
  8
0
 10
1.97847
 20
2.57838
 11
2.2981
 21
2.2981
  0
LINE
  8
0
 10
2.2981
 20
2.2981
 11
2.57838
 21
1.97847
  0
LINE
  8
0
 10
2.57838
 20
1.97847
 11
2.81458
 21
1.625
  0
LINE
  8
0
 10
2.81458
 20
1.625
 11
3.00259
 21
1.24371
  0
LINE
  8
0
 10
3.00259
 20
1.24371
 11
3.13925
 21
0.841156
  0
LINE
  8
0
 10
3.13925
 20
0.841156
 11
3.22218
 21
0.42421
  0
LINE
  8
0
 10
3.22218
 20
0.42421
 11
3.25
 21
0
  0
LINE
  8
0
 10
3.25
 20
0
 11
3.22218
 21
-0.42421
  0
LINE
  8
0
 10
3.22218
 20
-0.42421
 11
3.13925
 21
-0.841156
  0
LINE
  8
0
 10
3.13925
 20
-0.841156
 11
3.00259
 21
-1.24371
  0
LINE
  8
0
 10
3.00259
 20
-1.24371
 11
2.81458
 21
-1.625
  0
LINE
  8
0
 10
2.81458
 20
-1.625
 11
2.57838
 21
-1.97847
  0
LINE
  8
0
 10
2.57838
 20
-1.97847
 11
2.2981
 21
-2.2981
  0
LINE
  8
0
 10
2.2981
 20
-2.2981
 11
1.97847
 21
-2.57838
  0
LINE
  8
0
 10
1.97847
 20
-2.57838
 11
1.625
 21
-2.81458
  0
LINE
  8
0
 10
1.625
 20
-2.81458
 11
1.24371
 21
-3.00259
  0
LINE
  8
0
 10
1.24371
 20
-3.00259
 11
0.841156
 21
-3.13925
  0
LINE
  8
0
 10
0.841156
 20
-3.13925
 11
0.42421
 21
-3.22218
  0
LINE
  8
0
 10
0.42421
 20
-3.22218
 11
0
 21
-3.25
  0
LINE
  8
0
 10
0
 20
-3.25
 11
-0.42421
 21
-3.22218
  0
LINE
  8
0
 10
-0.42421
 20
-3.22218
 11
-0.841156
 21
-3.13925
  0
LINE
  8
0
 10
-0.841156
 20
-3.13925
 11
-1.24371
 21
-3.00259
  0
LINE
  8
0
 10
-1.24371
 20
-3.00259
 11
-1.625
 21
-2.81458
  0
LINE
  8
0
 10
-1.625
 20
-2.81458
 11
-1.97847
 21
-2.57838
  0
LINE
  8
0
 10
-1.97847
 20
-2.57838
 11
-2.2981
 21
-2.2981
  0
LINE
  8
0
 10
-2.2981
 20
-2.2981
 11
-2.57838
 21
-1.97847
  0
LINE
  8
0
 10
-2.57838
 20
-1.97847
 11
-2.81458
 21
-1.625
  0
LINE
  8
0
 10
-2.81458
 20
-1.625
 11
-3.00259
 21
-1.24371
  0
LINE
  8
0
 10
-3.00259
 20
-1.24371
 11
-3.13925
 21
-0.841156
  0
LINE
  8
0
 10
-3.13925
 20
-0.841156
 11
-3.22218
 21
-0.42421
  0
LINE
  8
0
 10
-3.22218
 20
-0.42421
 11
-3.25
 21
0
  0
LINE
  8
0
 10
-3.25
 20
0
 11
-3.22218
 21
0.42421
  0
LINE
  8
0
 10
-3.22218
 20
0.42421
 11
-3.13925
 21
0.841156
  0
LINE
  8
0
 10
-3.13925
 20
0.841156
 11
-3.00259
 21
1.24371
  0
LINE
  8
0
 10
-3.00259
 20
1.24371
 11
-2.81458
 21
1.625
  0
LINE
  8
0
 10
-2.81458
 20
1.625
 11
-2.57838
 21
1.97847
  0
LINE
  8
0
 10
-2.57838
 20
1.97847
 11
-2.2981
 21
2.2981
  0
LINE
  8
0
 10
-2.2981
 20
2.2981
 11
-1.97847
 21
2.57838
  0
LINE
  8
0
 10
-1.97847
 20
2.57838
 11
-1.625
 21
2.81458
  0
LINE
  8
0
 10
-1.625
 20
2.81458
 11
-1.24371
 21
3.00259
  0
LINE
  8
0
 10
-1.24371
 20
3.00259
 11
-0.841156
 21
3.13925
  0
LINE
  8
0
 10
-0.841156
 20
3.13925
 11
-0.42421
 21
3.22218
  0
LINE
  8
0
 10
-0.42421
 20
3.22218
 11
0
 21
3.25
  0
LINE
  8
0
 10
0
 20
3.25
 11
0.42421
 21
3.22218
  0
LINE
  8
0
 10
0.42421
 20
3.22218
 11
0.841156
 21
3.13925
  0
LINE
  8
0
 10
-60.4242
 20
-3.22218
 11
-60.8412
 21
-3.13925
  0
LINE
  8
0
 10
-60.8412
 20
-3.13925
 11
-61.2437
 21
-3.00259
  0
LINE
  8
0
 10
-61.2437
 20
-3.00259
 11
-61.625
 21
-2.81458
  0
LINE
  8
0
 10
-61.625
 20
-2.81458
 11
-61.9785
 21
-2.57838
  0
LINE
  8
0
 10
-61.9785
 20
-2.57838
 11
-62.2981
 21
-2.2981
  0
LINE
  8
0
 10
-62.2981
 20
-2.2981
 11
-62.5784
 21
-1.97847
  0
LINE
  8
0
 10
-62.5784
 20
-1.97847
 11
-62.8146
 21
-1.625
  0
LINE
  8
0
 10
-62.8146
 20
-1.625
 11
-63.0026
 21
-1.24371
  0
LINE
  8
0
 10
-63.0026
 20
-1.24371
 11
-63.1393
 21
-0.841156
  0
LINE
  8
0
 10
-63.1393
 20
-0.841156
 11
-63.2222
 21
-0.42421
  0
LINE
  8
0
 10
-63.2222
 20
-0.42421
 11
-63.25
 21
0
  0
LINE
  8
0
 10
-63.25
 20
0
 11
-63.2222
 21
0.42421
  0
LINE
  8
0
 10
-63.2222
 20
0.42421
 11
-63.1393
 21
0.841156
  0
LINE
  8
0
 10
-63.1393
 20
0.841156
 11
-63.0026
 21
1.24371
  0
LINE
  8
0
 10
-63.0026
 20
1.24371
 11
-62.8146
 21
1.625
  0
LINE
  8
0
 10
-62.8146
 20
1.625
 11
-62.5784
 21
1.97847
  0
LINE
  8
0
 10
-62.5784
 20
1.97847
 11
-62.2981
 21
2.2981
  0
LINE
  8
0
 10
-62.2981
 20
2.2981
 11
-61.9785
 21
2.57838
  0
LINE
  8
0
 10
-61.9785
 20
2.57838
 11
-61.625
 21
2.81458
  0
LINE
  8
0
 10
-61.625
 20
2.81458
 11
-61.2437
 21
3.00259
  0
LINE
  8
0
 10
-61.2437
 20
3.00259
 11
-60.8412
 21
3.13925
  0
LINE
  8
0
 10
-60.8412
 20
3.13925
 11
-60.4242
 21
3.22218
  0
LINE
  8
0
 10
-60.4242
 20
3.22218
 11
-60
 21
3.25
  0
LINE
  8
0
 10
-60
 20
3.25
 11
-59.5758
 21
3.22218
  0
LINE
  8
0
 10
-59.5758
 20
3.22218
 11
-59.1588
 21
3.13925
  0
LINE
  8
0
 10
-59.1588
 20
3.13925
 11
-58.7563
 21
3.00259
  0
LINE
  8
0
 10
-58.7563
 20
3.00259
 11
-58.375
 21
2.81458
  0
LINE
  8
0
 10
-58.375
 20
2.81458
 11
-58.0215
 21
2.57838
  0
LINE
  8
0
 10
-58.0215
 20
2.57838
 11
-57.7019
 21
2.2981
  0
LINE
  8
0
 10
-57.7019
 20
2.2981
 11
-57.4216
 21
1.97847
  0
LINE
  8
0
 10
-57.4216
 20
1.97847
 11
-57.1854
 21
1.625
  0
LINE
  8
0
 10
-57.1854
 20
1.625
 11
-56.9974
 21
1.24371
  0
LINE
  8
0
 10
-56.9974
 20
1.24371
 11
-56.8607
 21
0.841156
  0
LINE
  8
0
 10
-56.8607
 20
0.841156
 11
-56.7778
 21
0.42421
  0
LINE
  8
0
 10
-56.7778
 20
0.42421
 11
-56.75
 21
0
  0
LINE
  8
0
 10
-56.75
 20
0
 11
-56.7778
 21
-0.42421
  0
LINE
  8
0
 10
-56.7778
 20
-0.42421
 11
-56.8607
 21
-0.841156
  0
LINE
  8
0
 10
-56.8607
 20
-0.841156
 11
-56.9974
 21
-1.24371
  0
LINE
  8
0
 10
-56.9974
 20
-1.24371
 11
-57.1854
 21
-1.625
  0
LINE
  8
0
 10
-57.1854
 20
-1.625
 11
-57.4216
 21
-1.97847
  0
LINE
  8
0
 10
-57.4216
 20
-1.97847
 11
-57.7019
 21
-2.2981
  0
LINE
  8
0
 10
-57.7019
 20
-2.2981
 11
-58.0215
 21
-2.57838
  0
LINE
  8
0
 10
-58.0215
 20
-2.57838
 11
-58.375
 21
-2.81458
  0
LINE
  8
0
 10
-58.375
 20
-2.81458
 11
-58.7563
 21
-3.00259
  0
LINE
  8
0
 10
-58.7563
 20
-3.00259
 11
-59.1588
 21
-3.13925
  0
LINE
  8
0
 10
-59.1588
 20
-3.13925
 11
-59.5758
 21
-3.22218
  0
LINE
  8
0
 10
-59.5758
 20
-3.22218
 11
-60
 21
-3.25
  0
LINE
  8
0
 10
-60
 20
-3.25
 11
-60.4242
 21
-3.22218
  0
LINE
  8
0
 10
-45.4242
 20
-3.22218
 11
-45.8412
 21
-3.13925
  0
LINE
  8
0
 10
-45.8412
 20
-3.13925
 11
-46.2437
 21
-3.00259
  0
LINE
  8
0
 10
-46.2437
 20
-3.00259
 11
-46.625
 21
-2.81458
  0
LINE
  8
0
 10
-46.625
 20
-2.81458
 11
-46.9785
 21
-2.57838
  0
LINE
  8
0
 10
-46.9785
 20
-2.57838
 11
-47.2981
 21
-2.2981
  0
LINE
  8
0
 10
-47.2981
 20
-2.2981
 11
-47.5784
 21
-1.97847
  0
LINE
  8
0
 10
-47.5784
 20
-1.97847
 11
-47.8146
 21
-1.625
  0
LINE
  8
0
 10
-47.8146
 20
-1.625
 11
-48.0026
 21
-1.24371
  0
LINE
  8
0
 10
-48.0026
 20
-1.24371
 11
-48.1393
 21
-0.841156
  0
LINE
  8
0
 10
-48.1393
 20
-0.841156
 11
-48.2222
 21
-0.42421
  0
LINE
  8
0
 10
-48.2222
 20
-0.42421
 11
-48.25
 21
0
  0
LINE
  8
0
 10
-48.25
 20
0
 11
-48.2222
 21
0.42421
  0
LINE
  8
0
 10
-48.2222
 20
0.42421
 11
-48.1393
 21
0.841156
  0
LINE
  8
0
 10
-48.1393
 20
0.841156
 11
-48.0026
 21
1.24371
  0
LINE
  8
0
 10
-48.0026
 20
1.24371
 11
-47.8146
 21
1.625
  0
LINE
  8
0
 10
-47.8146
 20
1.625
 11
-47.5784
 21
1.97847
  0
LINE
  8
0
 10
-47.5784
 20
1.97847
 11
-47.2981
 21
2.2981
  0
LINE
  8
0
 10
-47.2981
 20
2.2981
 11
-46.9785
 21
2.57838
  0
LINE
  8
0
 10
-46.9785
 20
2.57838
 11
-46.625
 21
2.81458
  0
LINE
  8
0
 10
-46.625
 20
2.81458
 11
-46.2437
 21
3.00259
  0
LINE
  8
0
 10
-46.2437
 20
3.00259
 11
-45.8412
 21
3.13925
  0
LINE
  8
0
 10
-45.8412
 20
3.13925
 11
-45.4242
 21
3.22218
  0
LINE
  8
0
 10
-45.4242
 20
3.22218
 11
-45
 21
3.25
  0
LINE
  8
0
 10
-45
 20
3.25
 11
-44.5758
 21
3.22218
  0
LINE
  8
0
 10
-44.5758
 20
3.22218
 11
-44.1588
 21
3.13925
  0
LINE
  8
0
 10
-44.1588
 20
3.13925
 11
-43.7563
 21
3.00259
  0
LINE
  8
0
 10
-43.7563
 20
3.00259
 11
-43.375
 21
2.81458
  0
LINE
  8
0
 10
-43.375
 20
2.81458
 11
-43.0215
 21
2.57838
  0
LINE
  8
0
 10
-43.0215
 20
2.57838
 11
-42.7019
 21
2.2981
  0
LINE
  8
0
 10
-42.7019
 20
2.2981
 11
-42.4216
 21
1.97847
  0
LINE
  8
0
 10
-42.4216
 20
1.97847
 11
-42.1854
 21
1.625
  0
LINE
  8
0
 10
-42.1854
 20
1.625
 11
-41.9974
 21
1.24371
  0
LINE
  8
0
 10
-41.9974
 20
1.24371
 11
-41.8607
 21
0.841156
  0
LINE
  8
0
 10
-41.8607
 20
0.841156
 11
-41.7778
 21
0.42421
  0
LINE
  8
0
 10
-41.7778
 20
0.42421
 11
-41.75
 21
0
  0
LINE
  8
0
 10
-41.75
 20
0
 11
-41.7778
 21
-0.42421
  0
LINE
  8
0
 10
-41.7778
 20
-0.42421
 11
-41.8607
 21
-0.841156
  0
LINE
  8
0
 10
-41.8607
 20
-0.841156
 11
-41.9974
 21
-1.24371
  0
LINE
  8
0
 10
-41.9974
 20
-1.24371
 11
-42.1854
 21
-1.625
  0
LINE
  8
0
 10
-42.1854
 20
-1.625
 11
-42.4216
 21
-1.97847
  0
LINE
  8
0
 10
-42.4216
 20
-1.97847
 11
-42.7019
 21
-2.2981
  0
LINE
  8
0
 10
-42.7019
 20
-2.2981
 11
-43.0215
 21
-2.57838
  0
LINE
  8
0
 10
-43.0215
 20
-2.57838
 11
-43.375
 21
-2.81458
  0
LINE
  8
0
 10
-43.375
 20
-2.81458
 11
-43.7563
 21
-3.00259
  0
LINE
  8
0
 10
-43.7563
 20
-3.00259
 11
-44.1588
 21
-3.13925
  0
LINE
  8
0
 10
-44.1588
 20
-3.13925
 11
-44.5758
 21
-3.22218
  0
LINE
  8
0
 10
-44.5758
 20
-3.22218
 11
-45
 21
-3.25
  0
LINE
  8
0
 10
-45
 20
-3.25
 11
-45.4242
 21
-3.22218
  0
LINE
  8
0
 10
44.5758
 20
-3.22218
 11
44.1588
 21
-3.13925
  0
LINE
  8
0
 10
44.1588
 20
-3.13925
 11
43.7563
 21
-3.00259
  0
LINE
  8
0
 10
43.7563
 20
-3.00259
 11
43.375
 21
-2.81458
  0
LINE
  8
0
 10
43.375
 20
-2.81458
 11
43.0215
 21
-2.57838
  0
LINE
  8
0
 10
43.0215
 20
-2.57838
 11
42.7019
 21
-2.2981
  0
LINE
  8
0
 10
42.7019
 20
-2.2981
 11
42.4216
 21
-1.97847
  0
LINE
  8
0
 10
42.4216
 20
-1.97847
 11
42.1854
 21
-1.625
  0
LINE
  8
0
 10
42.1854
 20
-1.625
 11
41.9974
 21
-1.24371
  0
LINE
  8
0
 10
41.9974
 20
-1.24371
 11
41.8607
 21
-0.841156
  0
LINE
  8
0
 10
41.8607
 20
-0.841156
 11
41.7778
 21
-0.42421
  0
LINE
  8
0
 10
41.7778
 20
-0.42421
 11
41.75
 21
0
  0
LINE
  8
0
 10
41.75
 20
0
 11
41.7778
 21
0.42421
  0
LINE
  8
0
 10
41.7778
 20
0.42421
 11
41.8607
 21
0.841156
  0
LINE
  8
0
 10
41.8607
 20
0.841156
 11
41.9974
 21
1.24371
  0
LINE
  8
0
 10
41.9974
 20
1.24371
 11
42.1854
 21
1.625
  0
LINE
  8
0
 10
42.1854
 20
1.625
 11
42.4216
 21
1.97847
  0
LINE
  8
0
 10
42.4216
 20
1.97847
 11
42.7019
 21
2.2981
  0
LINE
  8
0
 10
42.7019
 20
2.2981
 11
43.0215
 21
2.57838
  0
LINE
  8
0
 10
43.0215
 20
2.57838
 11
43.375
 21
2.81458
  0
LINE
  8
0
 10
43.375
 20
2.81458
 11
43.7563
 21
3.00259
  0
LINE
  8
0
 10
43.7563
 20
3.00259
 11
44.1588
 21
3.13925
  0
LINE
  8
0
 10
44.1588
 20
3.13925
 11
44.5758
 21
3.22218
  0
LINE
  8
0
 10
44.5758
 20
3.22218
 11
45
 21
3.25
  0
LINE
  8
0
 10
45
 20
3.25
 11
45.4242
 21
3.22218
  0
LINE
  8
0
 10
45.4242
 20
3.22218
 11
45.8412
 21
3.13925
  0
LINE
  8
0
 10
45.8412
 20
3.13925
 11
46.2437
 21
3.00259
  0
LINE
  8
0
 10
46.2437
 20
3.00259
 11
46.625
 21
2.81458
  0
LINE
  8
0
 10
46.625
 20
2.81458
 11
46.9785
 21
2.57838
  0
LINE
  8
0
 10
46.9785
 20
2.57838
 11
47.2981
 21
2.2981
  0
LINE
  8
0
 10
47.2981
 20
2.2981
 11
47.5784
 21
1.97847
  0
LINE
  8
0
 10
47.5784
 20
1.97847
 11
47.8146
 21
1.625
  0
LINE
  8
0
 10
47.8146
 20
1.625
 11
48.0026
 21
1.24371
  0
LINE
  8
0
 10
48.0026
 20
1.24371
 11
48.1393
 21
0.841156
  0
LINE
  8
0
 10
48.1393
 20
0.841156
 11
48.2222
 21
0.42421
  0
LINE
  8
0
 10
48.2222
 20
0.42421
 11
48.25
 21
0
  0
LINE
  8
0
 10
48.25
 20
0
 11
48.2222
 21
-0.42421
  0
LINE
  8
0
 10
48.2222
 20
-0.42421
 11
48.1393
 21
-0.841156
  0
LINE
  8
0
 10
48.1393
 20
-0.841156
 11
48.0026
 21
-1.24371
  0
LINE
  8
0
 10
48.0026
 20
-1.24371
 11
47.8146
 21
-1.625
  0
LINE
  8
0
 10
47.8146
 20
-1.625
 11
47.5784
 21
-1.97847
  0
LINE
  8
0
 10
47.5784
 20
-1.97847
 11
47.2981
 21
-2.2981
  0
LINE
  8
0
 10
47.2981
 20
-2.2981
 11
46.9785
 21
-2.57838
  0
LINE
  8
0
 10
46.9785
 20
-2.57838
 11
46.625
 21
-2.81458
  0
LINE
  8
0
 10
46.625
 20
-2.81458
 11
46.2437
 21
-3.00259
  0
LINE
  8
0
 10
46.2437
 20
-3.00259
 11
45.8412
 21
-3.13925
  0
LINE
  8
0
 10
45.8412
 20
-3.13925
 11
45.4242
 21
-3.22218
  0
LINE
  8
0
 10
45.4242
 20
-3.22218
 11
45
 21
-3.25
  0
LINE
  8
0
 10
45
 20
-3.25
 11
44.5758
 21
-3.22218
  0
LINE
  8
0
 10
59.5758
 20
-3.22218
 11
59.1588
 21
-3.13925
  0
LINE
  8
0
 10
59.1588
 20
-3.13925
 11
58.7563
 21
-3.00259
  0
LINE
  8
0
 10
58.7563
 20
-3.00259
 11
58.375
 21
-2.81458
  0
LINE
  8
0
 10
58.375
 20
-2.81458
 11
58.0215
 21
-2.57838
  0
LINE
  8
0
 10
58.0215
 20
-2.57838
 11
57.7019
 21
-2.2981
  0
LINE
  8
0
 10
57.7019
 20
-2.2981
 11
57.4216
 21
-1.97847
  0
LINE
  8
0
 10
57.4216
 20
-1.97847
 11
57.1854
 21
-1.625
  0
LINE
  8
0
 10
57.1854
 20
-1.625
 11
56.9974
 21
-1.24371
  0
LINE
  8
0
 10
56.9974
 20
-1.24371
 11
56.8607
 21
-0.841156
  0
LINE
  8
0
 10
56.8607
 20
-0.841156
 11
56.7778
 21
-0.42421
  0
LINE
  8
0
 10
56.7778
 20
-0.42421
 11
56.75
 21
0
  0
LINE
  8
0
 10
56.75
 20
0
 11
56.7778
 21
0.42421
  0
LINE
  8
0
 10
56.7778
 20
0.42421
 11
56.8607
 21
0.841156
  0
LINE
  8
0
 10
56.8607
 20
0.841156
 11
56.9974
 21
1.24371
  0
LINE
  8
0
 10
56.9974
 20
1.24371
 11
57.1854
 21
1.625
  0
LINE
  8
0
 10
57.1854
 20
1.625
 11
57.4216
 21
1.97847
  0
LINE
  8
0
 10
57.4216
 20
1.97847
 11
57.7019
 21
2.2981
  0
LINE
  8
0
 10
57.7019
 20
2.2981
 11
58.0215
 21
2.57838
  0
LINE
  8
0
 10
58.0215
 20
2.57838
 11
58.375
 21
2.81458
  0
LINE
  8
0
 10
58.375
 20
2.81458
 11
58.7563
 21
3.00259
  0
LINE
  8
0
 10
58.7563
 20
3.00259
 11
59.1588
 21
3.13925
  0
LINE
  8
0
 10
59.1588
 20
3.13925
 11
59.5758
 21
3.22218
  0
LINE
  8
0
 10
59.5758
 20
3.22218
 11
60
 21
3.25
  0
LINE
  8
0
 10
60
 20
3.25
 11
60.4242
 21
3.22218
  0
LINE
  8
0
 10
60.4242
 20
3.22218
 11
60.8412
 21
3.13925
  0
LINE
  8
0
 10
60.8412
 20
3.13925
 11
61.2437
 21
3.00259
  0
LINE
  8
0
 10
61.2437
 20
3.00259
 11
61.625
 21
2.81458
  0
LINE
  8
0
 10
61.625
 20
2.81458
 11
61.9785
 21
2.57838
  0
LINE
  8
0
 10
61.9785
 20
2.57838
 11
62.2981
 21
2.2981
  0
LINE
  8
0
 10
62.2981
 20
2.2981
 11
62.5784
 21
1.97847
  0
LINE
  8
0
 10
62.5784
 20
1.97847
 11
62.8146
 21
1.625
  0
LINE
  8
0
 10
62.8146
 20
1.625
 11
63.0026
 21
1.24371
  0
LINE
  8
0
 10
63.0026
 20
1.24371
 11
63.1393
 21
0.841156
  0
LINE
  8
0
 10
63.1393
 20
0.841156
 11
63.2222
 21
0.42421
  0
LINE
  8
0
 10
63.2222
 20
0.42421
 11
63.25
 21
0
  0
LINE
  8
0
 10
63.25
 20
0
 11
63.2222
 21
-0.42421
  0
LINE
  8
0
 10
63.2222
 20
-0.42421
 11
63.1393
 21
-0.841156
  0
LINE
  8
0
 10
63.1393
 20
-0.841156
 11
63.0026
 21
-1.24371
  0
LINE
  8
0
 10
63.0026
 20
-1.24371
 11
62.8146
 21
-1.625
  0
LINE
  8
0
 10
62.8146
 20
-1.625
 11
62.5784
 21
-1.97847
  0
LINE
  8
0
 10
62.5784
 20
-1.97847
 11
62.2981
 21
-2.2981
  0
LINE
  8
0
 10
62.2981
 20
-2.2981
 11
61.9785
 21
-2.57838
  0
LINE
  8
0
 10
61.9785
 20
-2.57838
 11
61.625
 21
-2.81458
  0
LINE
  8
0
 10
61.625
 20
-2.81458
 11
61.2437
 21
-3.00259
  0
LINE
  8
0
 10
61.2437
 20
-3.00259
 11
60.8412
 21
-3.13925
  0
LINE
  8
0
 10
60.8412
 20
-3.13925
 11
60.4242
 21
-3.22218
  0
LINE
  8
0
 10
60.4242
 20
-3.22218
 11
60
 21
-3.25
  0
LINE
  8
0
 10
60
 20
-3.25
 11
59.5758
 21
-3.22218
  0
LINE
  8
0
 10
29.5758
 20
-3.22218
 11
29.1588
 21
-3.13925
  0
LINE
  8
0
 10
29.1588
 20
-3.13925
 11
28.7563
 21
-3.00259
  0
LINE
  8
0
 10
28.7563
 20
-3.00259
 11
28.375
 21
-2.81458
  0
LINE
  8
0
 10
28.375
 20
-2.81458
 11
28.0215
 21
-2.57838
  0
LINE
  8
0
 10
28.0215
 20
-2.57838
 11
27.7019
 21
-2.2981
  0
LINE
  8
0
 10
27.7019
 20
-2.2981
 11
27.4216
 21
-1.97847
  0
LINE
  8
0
 10
27.4216
 20
-1.97847
 11
27.1854
 21
-1.625
  0
LINE
  8
0
 10
27.1854
 20
-1.625
 11
26.9974
 21
-1.24371
  0
LINE
  8
0
 10
26.9974
 20
-1.24371
 11
26.8607
 21
-0.841156
  0
LINE
  8
0
 10
26.8607
 20
-0.841156
 11
26.7778
 21
-0.42421
  0
LINE
  8
0
 10
26.7778
 20
-0.42421
 11
26.75
 21
0
  0
LINE
  8
0
 10
26.75
 20
0
 11
26.7778
 21
0.42421
  0
LINE
  8
0
 10
26.7778
 20
0.42421
 11
26.8607
 21
0.841156
  0
LINE
  8
0
 10
26.8607
 20
0.841156
 11
26.9974
 21
1.24371
  0
LINE
  8
0
 10
26.9974
 20
1.24371
 11
27.1854
 21
1.625
  0
LINE
  8
0
 10
27.1854
 20
1.625
 11
27.4216
 21
1.97847
  0
LINE
  8
0
 10
27.4216
 20
1.97847
 11
27.7019
 21
2.2981
  0
LINE
  8
0
 10
27.7019
 20
2.2981
 11
28.0215
 21
2.57838
  0
LINE
  8
0
 10
28.0215
 20
2.57838
 11
28.375
 21
2.81458
  0
LINE
  8
0
 10
28.375
 20
2.81458
 11
28.7563
 21
3.00259
  0
LINE
  8
0
 10
28.7563
 20
3.00259
 11
29.1588
 21
3.13925
  0
LINE
  8
0
 10
29.1588
 20
3.13925
 11
29.5758
 21
3.22218
  0
LINE
  8
0
 10
29.5758
 20
3.22218
 11
30
 21
3.25
  0
LINE
  8
0
 10
30
 20
3.25
 11
30.4242
 21
3.22218
  0
LINE
  8
0
 10
30.4242
 20
3.22218
 11
30.8412
 21
3.13925
  0
LINE
  8
0
 10
30.8412
 20
3.13925
 11
31.2437
 21
3.00259
  0
LINE
  8
0
 10
31.2437
 20
3.00259
 11
31.625
 21
2.81458
  0
LINE
  8
0
 10
31.625
 20
2.81458
 11
31.9785
 21
2.57838
  0
LINE
  8
0
 10
31.9785
 20
2.57838
 11
32.2981
 21
2.2981
  0
LINE
  8
0
 10
32.2981
 20
2.2981
 11
32.5784
 21
1.97847
  0
LINE
  8
0
 10
32.5784
 20
1.97847
 11
32.8146
 21
1.625
  0
LINE
  8
0
 10
32.8146
 20
1.625
 11
33.0026
 21
1.24371
  0
LINE
  8
0
 10
33.0026
 20
1.24371
 11
33.1393
 21
0.841156
  0
LINE
  8
0
 10
33.1393
 20
0.841156
 11
33.2222
 21
0.42421
  0
LINE
  8
0
 10
33.2222
 20
0.42421
 11
33.25
 21
0
  0
LINE
  8
0
 10
33.25
 20
0
 11
33.2222
 21
-0.42421
  0
LINE
  8
0
 10
33.2222
 20
-0.42421
 11
33.1393
 21
-0.841156
  0
LINE
  8
0
 10
33.1393
 20
-0.841156
 11
33.0026
 21
-1.24371
  0
LINE
  8
0
 10
33.0026
 20
-1.24371
 11
32.8146
 21
-1.625
  0
LINE
  8
0
 10
32.8146
 20
-1.625
 11
32.5784
 21
-1.97847
  0
LINE
  8
0
 10
32.5784
 20
-1.97847
 11
32.2981
 21
-2.2981
  0
LINE
  8
0
 10
32.2981
 20
-2.2981
 11
31.9785
 21
-2.57838
  0
LINE
  8
0
 10
31.9785
 20
-2.57838
 11
31.625
 21
-2.81458
  0
LINE
  8
0
 10
31.625
 20
-2.81458
 11
31.2437
 21
-3.00259
  0
LINE
  8
0
 10
31.2437
 20
-3.00259
 11
30.8412
 21
-3.13925
  0
LINE
  8
0
 10
30.8412
 20
-3.13925
 11
30.4242
 21
-3.22218
  0
LINE
  8
0
 10
30.4242
 20
-3.22218
 11
30
 21
-3.25
  0
LINE
  8
0
 10
30
 20
-3.25
 11
29.5758
 21
-3.22218
  0
LINE
  8
0
 10
-30.4242
 20
-3.22218
 11
-30.8412
 21
-3.13925
  0
LINE
  8
0
 10
-30.8412
 20
-3.13925
 11
-31.2437
 21
-3.00259
  0
LINE
  8
0
 10
-31.2437
 20
-3.00259
 11
-31.625
 21
-2.81458
  0
LINE
  8
0
 10
-31.625
 20
-2.81458
 11
-31.9785
 21
-2.57838
  0
LINE
  8
0
 10
-31.9785
 20
-2.57838
 11
-32.2981
 21
-2.2981
  0
LINE
  8
0
 10
-32.2981
 20
-2.2981
 11
-32.5784
 21
-1.97847
  0
LINE
  8
0
 10
-32.5784
 20
-1.97847
 11
-32.8146
 21
-1.625
  0
LINE
  8
0
 10
-32.8146
 20
-1.625
 11
-33.0026
 21
-1.24371
  0
LINE
  8
0
 10
-33.0026
 20
-1.24371
 11
-33.1393
 21
-0.841156
  0
LINE
  8
0
 10
-33.1393
 20
-0.841156
 11
-33.2222
 21
-0.42421
  0
LINE
  8
0
 10
-33.2222
 20
-0.42421
 11
-33.25
 21
0
  0
LINE
  8
0
 10
-33.25
 20
0
 11
-33.2222
 21
0.42421
  0
LINE
  8
0
 10
-33.2222
 20
0.42421
 11
-33.1393
 21
0.841156
  0
LINE
  8
0
 10
-33.1393
 20
0.841156
 11
-33.0026
 21
1.24371
  0
LINE
  8
0
 10
-33.0026
 20
1.24371
 11
-32.8146
 21
1.625
  0
LINE
  8
0
 10
-32.8146
 20
1.625
 11
-32.5784
 21
1.97847
  0
LINE
  8
0
 10
-32.5784
 20
1.97847
 11
-32.2981
 21
2.2981
  0
LINE
  8
0
 10
-32.2981
 20
2.2981
 11
-31.9785
 21
2.57838
  0
LINE
  8
0
 10
-31.9785
 20
2.57838
 11
-31.625
 21
2.81458
  0
LINE
  8
0
 10
-31.625
 20
2.81458
 11
-31.2437
 21
3.00259
  0
LINE
  8
0
 10
-31.2437
 20
3.00259
 11
-30.8412
 21
3.13925
  0
LINE
  8
0
 10
-30.8412
 20
3.13925
 11
-30.4242
 21
3.22218
  0
LINE
  8
0
 10
-30.4242
 20
3.22218
 11
-30
 21
3.25
  0
LINE
  8
0
 10
-30
 20
3.25
 11
-29.5758
 21
3.22218
  0
LINE
  8
0
 10
-29.5758
 20
3.22218
 11
-29.1588
 21
3.13925
  0
LINE
  8
0
 10
-29.1588
 20
3.13925
 11
-28.7563
 21
3.00259
  0
LINE
  8
0
 10
-28.7563
 20
3.00259
 11
-28.375
 21
2.81458
  0
LINE
  8
0
 10
-28.375
 20
2.81458
 11
-28.0215
 21
2.57838
  0
LINE
  8
0
 10
-28.0215
 20
2.57838
 11
-27.7019
 21
2.2981
  0
LINE
  8
0
 10
-27.7019
 20
2.2981
 11
-27.4216
 21
1.97847
  0
LINE
  8
0
 10
-27.4216
 20
1.97847
 11
-27.1854
 21
1.625
  0
LINE
  8
0
 10
-27.1854
 20
1.625
 11
-26.9974
 21
1.24371
  0
LINE
  8
0
 10
-26.9974
 20
1.24371
 11
-26.8607
 21
0.841156
  0
LINE
  8
0
 10
-26.8607
 20
0.841156
 11
-26.7778
 21
0.42421
  0
LINE
  8
0
 10
-26.7778
 20
0.42421
 11
-26.75
 21
0
  0
LINE
  8
0
 10
-26.75
 20
0
 11
-26.7778
 21
-0.42421
  0
LINE
  8
0
 10
-26.7778
 20
-0.42421
 11
-26.8607
 21
-0.841156
  0
LINE
  8
0
 10
-26.8607
 20
-0.841156
 11
-26.9974
 21
-1.24371
  0
LINE
  8
0
 10
-26.9974
 20
-1.24371
 11
-27.1854
 21
-1.625
  0
LINE
  8
0
 10
-27.1854
 20
-1.625
 11
-27.4216
 21
-1.97847
  0
LINE
  8
0
 10
-27.4216
 20
-1.97847
 11
-27.7019
 21
-2.2981
  0
LINE
  8
0
 10
-27.7019
 20
-2.2981
 11
-28.0215
 21
-2.57838
  0
LINE
  8
0
 10
-28.0215
 20
-2.57838
 11
-28.375
 21
-2.81458
  0
LINE
  8
0
 10
-28.375
 20
-2.81458
 11
-28.7563
 21
-3.00259
  0
LINE
  8
0
 10
-28.7563
 20
-3.00259
 11
-29.1588
 21
-3.13925
  0
LINE
  8
0
 10
-29.1588
 20
-3.13925
 11
-29.5758
 21
-3.22218
  0
LINE
  8
0
 10
-29.5758
 20
-3.22218
 11
-30
 21
-3.25
  0
LINE
  8
0
 10
-30
 20
-3.25
 11
-30.4242
 21
-3.22218
  0
LINE
  8
0
 10
14.5758
 20
-3.22218
 11
14.1588
 21
-3.13925
  0
LINE
  8
0
 10
14.1588
 20
-3.13925
 11
13.7563
 21
-3.00259
  0
LINE
  8
0
 10
13.7563
 20
-3.00259
 11
13.375
 21
-2.81458
  0
LINE
  8
0
 10
13.375
 20
-2.81458
 11
13.0215
 21
-2.57838
  0
LINE
  8
0
 10
13.0215
 20
-2.57838
 11
12.7019
 21
-2.2981
  0
LINE
  8
0
 10
12.7019
 20
-2.2981
 11
12.4216
 21
-1.97847
  0
LINE
  8
0
 10
12.4216
 20
-1.97847
 11
12.1854
 21
-1.625
  0
LINE
  8
0
 10
12.1854
 20
-1.625
 11
11.9974
 21
-1.24371
  0
LINE
  8
0
 10
11.9974
 20
-1.24371
 11
11.8607
 21
-0.841156
  0
LINE
  8
0
 10
11.8607
 20
-0.841156
 11
11.7778
 21
-0.42421
  0
LINE
  8
0
 10
11.7778
 20
-0.42421
 11
11.75
 21
0
  0
LINE
  8
0
 10
11.75
 20
0
 11
11.7778
 21
0.42421
  0
LINE
  8
0
 10
11.7778
 20
0.42421
 11
11.8607
 21
0.841156
  0
LINE
  8
0
 10
11.8607
 20
0.841156
 11
11.9974
 21
1.24371
  0
LINE
  8
0
 10
11.9974
 20
1.24371
 11
12.1854
 21
1.625
  0
LINE
  8
0
 10
12.1854
 20
1.625
 11
12.4216
 21
1.97847
  0
LINE
  8
0
 10
12.4216
 20
1.97847
 11
12.7019
 21
2.2981
  0
LINE
  8
0
 10
12.7019
 20
2.2981
 11
13.0215
 21
2.57838
  0
LINE
  8
0
 10
13.0215
 20
2.57838
 11
13.375
 21
2.81458
  0
LINE
  8
0
 10
13.375
 20
2.81458
 11
13.7563
 21
3.00259
  0
LINE
  8
0
 10
13.7563
 20
3.00259
 11
14.1588
 21
3.13925
  0
LINE
  8
0
 10
14.1588
 20
3.13925
 11
14.5758
 21
3.22218
  0
LINE
  8
0
 10
14.5758
 20
3.22218
 11
15
 21
3.25
  0
LINE
  8
0
 10
15
 20
3.25
 11
15.4242
 21
3.22218
  0
LINE
  8
0
 10
15.4242
 20
3.22218
 11
15.8412
 21
3.13925
  0
LINE
  8
0
 10
15.8412
 20
3.13925
 11
16.2437
 21
3.00259
  0
LINE
  8
0
 10
16.2437
 20
3.00259
 11
16.625
 21
2.81458
  0
LINE
  8
0
 10
16.625
 20
2.81458
 11
16.9785
 21
2.57838
  0
LINE
  8
0
 10
16.9785
 20
2.57838
 11
17.2981
 21
2.2981
  0
LINE
  8
0
 10
17.2981
 20
2.2981
 11
17.5784
 21
1.97847
  0
LINE
  8
0
 10
17.5784
 20
1.97847
 11
17.8146
 21
1.625
  0
LINE
  8
0
 10
17.8146
 20
1.625
 11
18.0026
 21
1.24371
  0
LINE
  8
0
 10
18.0026
 20
1.24371
 11
18.1393
 21
0.841156
  0
LINE
  8
0
 10
18.1393
 20
0.841156
 11
18.2222
 21
0.42421
  0
LINE
  8
0
 10
18.2222
 20
0.42421
 11
18.25
 21
0
  0
LINE
  8
0
 10
18.25
 20
0
 11
18.2222
 21
-0.42421
  0
LINE
  8
0
 10
18.2222
 20
-0.42421
 11
18.1393
 21
-0.841156
  0
LINE
  8
0
 10
18.1393
 20
-0.841156
 11
18.0026
 21
-1.24371
  0
LINE
  8
0
 10
18.0026
 20
-1.24371
 11
17.8146
 21
-1.625
  0
LINE
  8
0
 10
17.8146
 20
-1.625
 11
17.5784
 21
-1.97847
  0
LINE
  8
0
 10
17.5784
 20
-1.97847
 11
17.2981
 21
-2.2981
  0
LINE
  8
0
 10
17.2981
 20
-2.2981
 11
16.9785
 21
-2.57838
  0
LINE
  8
0
 10
16.9785
 20
-2.57838
 11
16.625
 21
-2.81458
  0
LINE
  8
0
 10
16.625
 20
-2.81458
 11
16.2437
 21
-3.00259
  0
LINE
  8
0
 10
16.2437
 20
-3.00259
 11
15.8412
 21
-3.13925
  0
LINE
  8
0
 10
15.8412
 20
-3.13925
 11
15.4242
 21
-3.22218
  0
LINE
  8
0
 10
15.4242
 20
-3.22218
 11
15
 21
-3.25
  0
LINE
  8
0
 10
15
 20
-3.25
 11
14.5758
 21
-3.22218
  0
ENDSEC
  0
SECTION
  2
OBJECTS
  0
DICTIONARY
  0
ENDSEC
  0
EOF
