<?xml version="1.0" encoding="UTF-8"?>
<!DOCTYPE svg PUBLIC "-//W3C//DTD SVG 1.1//EN" "http://www.w3.org/Graphics/SVG/1.1/DTD/svg11.dtd">
<!-- Creator: CorelDRAW -->
<svg xmlns="http://www.w3.org/2000/svg" xml:space="preserve" width="210mm" height="297mm" style="shape-rendering:geometricPrecision; text-rendering:geometricPrecision; image-rendering:optimizeQuality; fill-rule:evenodd; clip-rule:evenodd"
viewBox="0 0 210 297"
 xmlns:xlink="http://www.w3.org/1999/xlink">
 <defs>
  <style type="text/css">
   <![CDATA[
    .str2 {stroke:#1F1A17;stroke-width:0.5292}
    .str1 {stroke:#1F1A17;stroke-width:0.5292;stroke-linecap:round;stroke-linejoin:round}
    .str0 {stroke:black;stroke-width:0.5292;stroke-linecap:round;stroke-linejoin:round}
    .fil0 {fill:none}
   ]]>
  </style>
 </defs>
 <g id="Layer_x0020_1">
  <metadata id="CorelCorpID_0Corel-Layer"/>
  <path class="fil0 str0" d="M-173.1 295.45l0.4149 0c0.2723,-0.4705 0.6646,-0.8628 1.1351,-1.1351l0 -0.4149 1.55 0 1.55 0 0 0.4149c0.4705,0.2723 0.8628,0.6646 1.1351,1.1351l0.4149 0 0 1.55 0 1.55 -0.4149 0c-0.2723,0.4705 -0.6646,0.8628 -1.1351,1.1351l0 0.4149 -1.55 0 -1.55 0 0 -0.4149c-0.4705,-0.2723 -0.8628,-0.6646 -1.1351,-1.1351l-0.4149 0 0 -1.55 0 -1.55z"/>
  <path class="fil0 str0" d="M-153.1 295.45l0.4149 0c0.2723,-0.4705 0.6646,-0.8628 1.1351,-1.1351l0 -0.4149 1.55 0 1.55 0 0 0.4149c0.4705,0.2723 0.8628,0.6646 1.1351,1.1351l0.4149 0 0 1.55 0 1.55 -0.4149 0c-0.2723,0.4705 -0.6646,0.8628 -1.1351,1.1351l0 0.4149 -1.55 0 -1.55 0 0 -0.4149c-0.4705,-0.2723 -0.8628,-0.6646 -1.1351,-1.1351l-0.4149 0 0 -1.55 0 -1.55z"/>
  <path class="fil0 str0" d="M-133.1 295.45l0.4149 0c0.2723,-0.4705 0.6646,-0.8628 1.1351,-1.1351l0 -0.4149 1.55 0 1.55 0 0 0.4149c0.4705,0.2723 0.8628,0.6646 1.1351,1.1351l0.4149 0 0 1.55 0 1.55 -0.4149 0c-0.2723,0.4705 -0.6646,0.8628 -1.1351,1.1351l0 0.4149 -1.55 0 -1.55 0 0 -0.4149c-0.4705,-0.2723 -0.8628,-0.6646 -1.1351,-1.1351l-0.4149 0 0 -1.55 0 -1.55z"/>
  <path class="fil0 str0" d="M-113.1 295.45l0.4149 0c0.2723,-0.4705 0.6646,-0.8628 1.1351,-1.1351l0 -0.4149 1.55 0 1.55 0 0 0.4149c0.4705,0.2723 0.8628,0.6646 1.1351,1.1351l0.4149 0 0 1.55 0 1.55 -0.4149 0c-0.2723,0.4705 -0.6646,0.8628 -1.1351,1.1351l0 0.4149 -1.55 0 -1.55 0 0 -0.4149c-0.4705,-0.2723 -0.8628,-0.6646 -1.1351,-1.1351l-0.4149 0 0 -1.55 0 -1.55z"/>
  <path class="fil0 str0" d="M-93.1 295.45l0.4149 0c0.2723,-0.4705 0.6646,-0.8628 1.1351,-1.1351l0 -0.4149 1.55 0 1.55 0 0 0.4149c0.4705,0.2723 0.8628,0.6646 1.1351,1.1351l0.4149 0 0 1.55 0 1.55 -0.4149 0c-0.2723,0.4705 -0.6646,0.8628 -1.1351,1.1351l0 0.4149 -1.55 0 -1.55 0 0 -0.4149c-0.4705,-0.2723 -0.8628,-0.6646 -1.1351,-1.1351l-0.4149 0 0 -1.55 0 -1.55z"/>
  <path class="fil0 str0" d="M-73.1 295.45l0.4149 0c0.2723,-0.4705 0.6646,-0.8628 1.1351,-1.1351l0 -0.4149 1.55 0 1.55 0 0 0.4149c0.4705,0.2723 0.8628,0.6646 1.1351,1.1351l0.4149 0 0 1.55 0 1.55 -0.4149 0c-0.2723,0.4705 -0.6646,0.8628 -1.1351,1.1351l0 0.4149 -1.55 0 -1.55 0 0 -0.4149c-0.4705,-0.2723 -0.8628,-0.6646 -1.1351,-1.1351l-0.4149 0 0 -1.55 0 -1.55z"/>
  <path class="fil0 str0" d="M-53.1 295.45l0.4149 0c0.2723,-0.4705 0.6646,-0.8628 1.1351,-1.1351l0 -0.4149 1.55 0 1.55 0 0 0.4149c0.4705,0.2723 0.8628,0.6646 1.1351,1.1351l0.4149 0 0 1.55 0 1.55 -0.4149 0c-0.2723,0.4705 -0.6646,0.8628 -1.1351,1.1351l0 0.4149 -1.55 0 -1.55 0 0 -0.4149c-0.4705,-0.2723 -0.8628,-0.6646 -1.1351,-1.1351l-0.4149 0 0 -1.55 0 -1.55z"/>
  <path class="fil0 str0" d="M-33.1 295.45l0.4149 0c0.2723,-0.4705 0.6646,-0.8628 1.1351,-1.1351l0 -0.4149 1.55 0 1.55 0 0 0.4149c0.4705,0.2723 0.8628,0.6646 1.1351,1.1351l0.4149 0 0 1.55 0 1.55 -0.4149 0c-0.2723,0.4705 -0.6646,0.8628 -1.1351,1.1351l0 0.4149 -1.55 0 -1.55 0 0 -0.4149c-0.4705,-0.2723 -0.8628,-0.6646 -1.1351,-1.1351l-0.4149 0 0 -1.55 0 -1.55z"/>
  <path class="fil0 str0" d="M-13.1 295.45l0.4149 0c0.2723,-0.4705 0.6646,-0.8628 1.1351,-1.1351l0 -0.4149 1.55 0 1.55 0 0 0.4149c0.4705,0.2723 0.8628,0.6646 1.1351,1.1351l0.4149 0 0 1.55 0 1.55 -0.4149 0c-0.2723,0.4705 -0.6646,0.8628 -1.1351,1.1351l0 0.4149 -1.55 0 -1.55 0 0 -0.4149c-0.4705,-0.2723 -0.8628,-0.6646 -1.1351,-1.1351l-0.4149 0 0 -1.55 0 -1.55z"/>
  <path class="fil0 str0" d="M6.9 295.45l0.4149 0c0.2723,-0.4705 0.6646,-0.8628 1.1351,-1.1351l0 -0.4149 1.55 0 1.55 0 0 0.4149c0.4705,0.2723 0.8628,0.6646 1.1351,1.1351l0.4149 0 0 1.55 0 1.55 -0.4149 0c-0.2723,0.4705 -0.6646,0.8628 -1.1351,1.1351l0 0.4149 -1.55 0 -1.55 0 0 -0.4149c-0.4705,-0.2723 -0.8628,-0.6646 -1.1351,-1.1351l-0.4149 0 0 -1.55 0 -1.55z"/>
  <path class="fil0 str0" d="M26.9 295.45l0.4149 0c0.2723,-0.4705 0.6646,-0.8628 1.1351,-1.1351l0 -0.4149 1.55 0 1.55 0 0 0.4149c0.4705,0.2723 0.8628,0.6646 1.1351,1.1351l0.4149 0 0 1.55 0 1.55 -0.4149 0c-0.2723,0.4705 -0.6646,0.8628 -1.1351,1.1351l0 0.4149 -1.55 0 -1.55 0 0 -0.4149c-0.4705,-0.2723 -0.8628,-0.6646 -1.1351,-1.1351l-0.4149 0 0 -1.55 0 -1.55z"/>
  <path class="fil0 str0" d="M46.9 295.45l0.4149 0c0.2723,-0.4705 0.6646,-0.8628 1.1351,-1.1351l0 -0.4149 1.55 0 1.55 0 0 0.4149c0.4705,0.2723 0.8628,0.6646 1.1351,1.1351l0.4149 0 0 1.55 0 1.55 -0.4149 0c-0.2723,0.4705 -0.6646,0.8628 -1.1351,1.1351l0 0.4149 -1.55 0 -1.55 0 0 -0.4149c-0.4705,-0.2723 -0.8628,-0.6646 -1.1351,-1.1351l-0.4149 0 0 -1.55 0 -1.55z"/>
  <path class="fil0 str0" d="M66.9 295.45l0.4149 0c0.2723,-0.4705 0.6646,-0.8628 1.1351,-1.1351l0 -0.4149 1.55 0 1.55 0 0 0.4149c0.4705,0.2723 0.8628,0.6646 1.1351,1.1351l0.4149 0 0 1.55 0 1.55 -0.4149 0c-0.2723,0.4705 -0.6646,0.8628 -1.1351,1.1351l0 0.4149 -1.55 0 -1.55 0 0 -0.4149c-0.4705,-0.2723 -0.8628,-0.6646 -1.1351,-1.1351l-0.4149 0 0 -1.55 0 -1.55z"/>
  <path class="fil0 str0" d="M86.9 295.45l0.4149 0c0.2723,-0.4705 0.6646,-0.8628 1.1351,-1.1351l0 -0.4149 1.55 0 1.55 0 0 0.4149c0.4705,0.2723 0.8628,0.6646 1.1351,1.1351l0.4149 0 0 1.55 0 1.55 -0.4149 0c-0.2723,0.4705 -0.6646,0.8628 -1.1351,1.1351l0 0.4149 -1.55 0 -1.55 0 0 -0.4149c-0.4705,-0.2723 -0.8628,-0.6646 -1.1351,-1.1351l-0.4149 0 0 -1.55 0 -1.55z"/>
  <path class="fil0 str0" d="M106.9 295.45l0.4149 0c0.2723,-0.4705 0.6646,-0.8628 1.1351,-1.1351l0 -0.4149 1.55 0 1.55 0 0 0.4149c0.4705,0.2723 0.8628,0.6646 1.1351,1.1351l0.4149 0 0 1.55 0 1.55 -0.4149 0c-0.2723,0.4705 -0.6646,0.8628 -1.1351,1.1351l0 0.4149 -1.55 0 -1.55 0 0 -0.4149c-0.4705,-0.2723 -0.8628,-0.6646 -1.1351,-1.1351l-0.4149 0 0 -1.55 0 -1.55z"/>
  <path class="fil0 str0" d="M126.9 295.45l0.4149 0c0.2723,-0.4705 0.6646,-0.8628 1.1351,-1.1351l0 -0.4149 1.55 0 1.55 0 0 0.4149c0.4705,0.2723 0.8628,0.6646 1.1351,1.1351l0.4149 0 0 1.55 0 1.55 -0.4149 0c-0.2723,0.4705 -0.6646,0.8628 -1.1351,1.1351l0 0.4149 -1.55 0 -1.55 0 0 -0.4149c-0.4705,-0.2723 -0.8628,-0.6646 -1.1351,-1.1351l-0.4149 0 0 -1.55 0 -1.55z"/>
  <path class="fil0 str0" d="M146.9 295.45l0.4149 0c0.2723,-0.4705 0.6646,-0.8628 1.1351,-1.1351l0 -0.4149 1.55 0 1.55 0 0 0.4149c0.4705,0.2723 0.8628,0.6646 1.1351,1.1351l0.4149 0 0 1.55 0 1.55 -0.4149 0c-0.2723,0.4705 -0.6646,0.8628 -1.1351,1.1351l0 0.4149 -1.55 0 -1.55 0 0 -0.4149c-0.4705,-0.2723 -0.8628,-0.6646 -1.1351,-1.1351l-0.4149 0 0 -1.55 0 -1.55z"/>
  <path class="fil0 str0" d="M166.9 295.45l0.4149 0c0.2723,-0.4705 0.6646,-0.8628 1.1351,-1.1351l0 -0.4149 1.55 0 1.55 0 0 0.4149c0.4705,0.2723 0.8628,0.6646 1.1351,1.1351l0.4149 0 0 1.55 0 1.55 -0.4149 0c-0.2723,0.4705 -0.6646,0.8628 -1.1351,1.1351l0 0.4149 -1.55 0 -1.55 0 0 -0.4149c-0.4705,-0.2723 -0.8628,-0.6646 -1.1351,-1.1351l-0.4149 0 0 -1.55 0 -1.55z"/>
  <rect class="fil0 str1" x="-163.1" y="295.4" width="6.2" height="3.2"/>
  <rect class="fil0 str1" x="-143.1" y="295.4" width="6.2" height="3.2"/>
  <rect class="fil0 str1" x="-123.1" y="295.4" width="6.2" height="3.2"/>
  <rect class="fil0 str1" x="-103.1" y="295.4" width="6.2" height="3.2"/>
  <rect class="fil0 str1" x="-83.1" y="295.4" width="6.2" height="3.2"/>
  <rect class="fil0 str1" x="-63.1" y="295.4" width="6.2" height="3.2"/>
  <rect class="fil0 str1" x="-43.1" y="295.4" width="6.2" height="3.2"/>
  <rect class="fil0 str1" x="-23.1" y="295.4" width="6.2" height="3.2"/>
  <rect class="fil0 str1" x="-3.1" y="295.4" width="6.2" height="3.2"/>
  <rect class="fil0 str1" x="16.9" y="295.4" width="6.2" height="3.2"/>
  <rect class="fil0 str1" x="36.9" y="295.4" width="6.2" height="3.2"/>
  <rect class="fil0 str1" x="56.9" y="295.4" width="6.2" height="3.2"/>
  <rect class="fil0 str1" x="76.9" y="295.4" width="6.2" height="3.2"/>
  <rect class="fil0 str1" x="96.9" y="295.4" width="6.2" height="3.2"/>
  <rect class="fil0 str1" x="116.9" y="295.4" width="6.2" height="3.2"/>
  <rect class="fil0 str1" x="136.9" y="295.4" width="6.2" height="3.2"/>
  <rect class="fil0 str1" x="156.9" y="295.4" width="6.2" height="3.2"/>
  <path class="fil0 str2" d="M-176.5 298.5l0 -3c0,-2.7609 2.2391,-5 5,-5l343 0c2.7609,0 5,2.2391 5,5l0 3c0,2.7609 -2.2391,5 -5,5l-343 0c-2.7609,0 -5,-2.2391 -5,-5z"/>
 </g>
</svg>
