<?xml version="1.0" standalone="no"?>
<!DOCTYPE svg PUBLIC "-//W3C//DTD SVG 1.1//EN" "http://www.w3.org/Graphics/SVG/1.1/DTD/svg11.dtd">
<svg width="224mm" height="14mm" viewBox="-112 -7 224 14" xmlns="http://www.w3.org/2000/svg" version="1.1">
<title>OpenSCAD Model</title>
<path d="
M 106.658,5.96222 L 107.299,5.83463 L 107.918,5.62439 L 108.505,5.33511 L 109.049,4.97176 L 109.541,4.54053
 L 109.972,4.0488 L 110.335,3.50499 L 110.624,2.91841 L 110.835,2.29909 L 110.962,1.65762 L 111.005,1.00499
 L 111.005,-1.00499 L 110.962,-1.65762 L 110.835,-2.29909 L 110.624,-2.91841 L 110.335,-3.50499 L 109.972,-4.0488
 L 109.541,-4.54053 L 109.049,-4.97176 L 108.505,-5.33511 L 107.918,-5.62439 L 107.299,-5.83463 L 106.658,-5.96222
 L 106.005,-6.00499 L -106.005,-6.00499 L -106.658,-5.96222 L -107.299,-5.83463 L -107.918,-5.62439 L -108.505,-5.33511
 L -109.049,-4.97176 L -109.541,-4.54053 L -109.972,-4.0488 L -110.335,-3.50499 L -110.624,-2.91841 L -110.835,-2.29909
 L -110.962,-1.65762 L -111.005,-1.00499 L -111.005,1.00499 L -110.962,1.65762 L -110.835,2.29909 L -110.624,2.91841
 L -110.335,3.50499 L -109.972,4.0488 L -109.541,4.54053 L -109.049,4.97176 L -108.505,5.33511 L -107.918,5.62439
 L -107.299,5.83463 L -106.658,5.96222 L -106.005,6.00499 L 106.005,6.00499 z
M 74.6084,2.97432 L 74.2235,2.89777 L 73.8519,2.77164 L 73.5,2.59807 L 73.1737,2.38005 L 72.8787,2.12131
 L 72.6199,1.82628 L 72.4019,1.5 L 72.2284,1.14804 L 72.1022,0.776443 L 72.0257,0.391571 L 72,-0
 L 72.0257,-0.391571 L 72.1022,-0.776443 L 72.2284,-1.14804 L 72.4019,-1.5 L 72.6199,-1.82628 L 72.8787,-2.12131
 L 73.1737,-2.38005 L 73.5,-2.59807 L 73.8519,-2.77164 L 74.2235,-2.89777 L 74.6084,-2.97432 L 75,-3
 L 75.3916,-2.97432 L 75.7765,-2.89777 L 76.148,-2.77164 L 76.5,-2.59807 L 76.8263,-2.38005 L 77.1213,-2.12131
 L 77.3801,-1.82628 L 77.5981,-1.5 L 77.7716,-1.14804 L 77.8978,-0.776443 L 77.9743,-0.391571 L 78,-0
 L 77.9743,0.391571 L 77.8978,0.776443 L 77.7716,1.14804 L 77.5981,1.5 L 77.3801,1.82628 L 77.1213,2.12131
 L 76.8263,2.38005 L 76.5,2.59807 L 76.148,2.77164 L 75.7765,2.89777 L 75.3916,2.97432 L 75,3
 z
M 29.6084,2.97432 L 29.2235,2.89777 L 28.8519,2.77164 L 28.5,2.59807 L 28.1737,2.38005 L 27.8787,2.12131
 L 27.6199,1.82628 L 27.4019,1.5 L 27.2283,1.14804 L 27.1022,0.776443 L 27.0257,0.391571 L 27,-0
 L 27.0257,-0.391571 L 27.1022,-0.776443 L 27.2283,-1.14804 L 27.4019,-1.5 L 27.6199,-1.82628 L 27.8787,-2.12131
 L 28.1737,-2.38005 L 28.5,-2.59807 L 28.8519,-2.77164 L 29.2235,-2.89777 L 29.6084,-2.97432 L 30,-3
 L 30.3916,-2.97432 L 30.7764,-2.89777 L 31.148,-2.77164 L 31.5,-2.59807 L 31.8263,-2.38005 L 32.1213,-2.12131
 L 32.3801,-1.82628 L 32.5981,-1.5 L 32.7716,-1.14804 L 32.8978,-0.776443 L 32.9743,-0.391571 L 33,-0
 L 32.9743,0.391571 L 32.8978,0.776443 L 32.7716,1.14804 L 32.5981,1.5 L 32.3801,1.82628 L 32.1213,2.12131
 L 31.8263,2.38005 L 31.5,2.59807 L 31.148,2.77164 L 30.7764,2.89777 L 30.3916,2.97432 L 30,3
 z
M -105.392,2.97432 L -105.776,2.89777 L -106.148,2.77164 L -106.5,2.59807 L -106.826,2.38005 L -107.121,2.12131
 L -107.38,1.82628 L -107.598,1.5 L -107.772,1.14804 L -107.898,0.776443 L -107.974,0.391571 L -108,-0
 L -107.974,-0.391571 L -107.898,-0.776443 L -107.772,-1.14804 L -107.598,-1.5 L -107.38,-1.82628 L -107.121,-2.12131
 L -106.826,-2.38005 L -106.5,-2.59807 L -106.148,-2.77164 L -105.776,-2.89777 L -105.392,-2.97432 L -105,-3
 L -104.608,-2.97432 L -104.224,-2.89777 L -103.852,-2.77164 L -103.5,-2.59807 L -103.174,-2.38005 L -102.879,-2.12131
 L -102.62,-1.82628 L -102.402,-1.5 L -102.228,-1.14804 L -102.102,-0.776443 L -102.026,-0.391571 L -102,-0
 L -102.026,0.391571 L -102.102,0.776443 L -102.228,1.14804 L -102.402,1.5 L -102.62,1.82628 L -102.879,2.12131
 L -103.174,2.38005 L -103.5,2.59807 L -103.852,2.77164 L -104.224,2.89777 L -104.608,2.97432 L -105,3
 z
M -90.3916,2.97432 L -90.7765,2.89777 L -91.148,2.77164 L -91.5,2.59807 L -91.8263,2.38005 L -92.1213,2.12131
 L -92.3801,1.82628 L -92.5981,1.5 L -92.7716,1.14804 L -92.8978,0.776443 L -92.9743,0.391571 L -93,-0
 L -92.9743,-0.391571 L -92.8978,-0.776443 L -92.7716,-1.14804 L -92.5981,-1.5 L -92.3801,-1.82628 L -92.1213,-2.12131
 L -91.8263,-2.38005 L -91.5,-2.59807 L -91.148,-2.77164 L -90.7765,-2.89777 L -90.3916,-2.97432 L -90,-3
 L -89.6084,-2.97432 L -89.2235,-2.89777 L -88.8519,-2.77164 L -88.5,-2.59807 L -88.1737,-2.38005 L -87.8787,-2.12131
 L -87.6199,-1.82628 L -87.4019,-1.5 L -87.2284,-1.14804 L -87.1022,-0.776443 L -87.0257,-0.391571 L -87,-0
 L -87.0257,0.391571 L -87.1022,0.776443 L -87.2284,1.14804 L -87.4019,1.5 L -87.6199,1.82628 L -87.8787,2.12131
 L -88.1737,2.38005 L -88.5,2.59807 L -88.8519,2.77164 L -89.2235,2.89777 L -89.6084,2.97432 L -90,3
 z
M 89.6084,2.97432 L 89.2235,2.89777 L 88.8519,2.77164 L 88.5,2.59807 L 88.1737,2.38005 L 87.8787,2.12131
 L 87.6199,1.82628 L 87.4019,1.5 L 87.2284,1.14804 L 87.1022,0.776443 L 87.0257,0.391571 L 87,-0
 L 87.0257,-0.391571 L 87.1022,-0.776443 L 87.2284,-1.14804 L 87.4019,-1.5 L 87.6199,-1.82628 L 87.8787,-2.12131
 L 88.1737,-2.38005 L 88.5,-2.59807 L 88.8519,-2.77164 L 89.2235,-2.89777 L 89.6084,-2.97432 L 90,-3
 L 90.3916,-2.97432 L 90.7765,-2.89777 L 91.148,-2.77164 L 91.5,-2.59807 L 91.8263,-2.38005 L 92.1213,-2.12131
 L 92.3801,-1.82628 L 92.5981,-1.5 L 92.7716,-1.14804 L 92.8978,-0.776443 L 92.9743,-0.391571 L 93,-0
 L 92.9743,0.391571 L 92.8978,0.776443 L 92.7716,1.14804 L 92.5981,1.5 L 92.3801,1.82628 L 92.1213,2.12131
 L 91.8263,2.38005 L 91.5,2.59807 L 91.148,2.77164 L 90.7765,2.89777 L 90.3916,2.97432 L 90,3
 z
M 104.608,2.97432 L 104.224,2.89777 L 103.852,2.77164 L 103.5,2.59807 L 103.174,2.38005 L 102.879,2.12131
 L 102.62,1.82628 L 102.402,1.5 L 102.228,1.14804 L 102.102,0.776443 L 102.026,0.391571 L 102,-0
 L 102.026,-0.391571 L 102.102,-0.776443 L 102.228,-1.14804 L 102.402,-1.5 L 102.62,-1.82628 L 102.879,-2.12131
 L 103.174,-2.38005 L 103.5,-2.59807 L 103.852,-2.77164 L 104.224,-2.89777 L 104.608,-2.97432 L 105,-3
 L 105.392,-2.97432 L 105.776,-2.89777 L 106.148,-2.77164 L 106.5,-2.59807 L 106.826,-2.38005 L 107.121,-2.12131
 L 107.38,-1.82628 L 107.598,-1.5 L 107.772,-1.14804 L 107.898,-0.776443 L 107.974,-0.391571 L 108,-0
 L 107.974,0.391571 L 107.898,0.776443 L 107.772,1.14804 L 107.598,1.5 L 107.38,1.82628 L 107.121,2.12131
 L 106.826,2.38005 L 106.5,2.59807 L 106.148,2.77164 L 105.776,2.89777 L 105.392,2.97432 L 105,3
 z
M -60.3916,2.97432 L -60.7765,2.89777 L -61.148,2.77164 L -61.5,2.59807 L -61.8263,2.38005 L -62.1213,2.12131
 L -62.3801,1.82628 L -62.5981,1.5 L -62.7716,1.14804 L -62.8978,0.776443 L -62.9743,0.391571 L -63,-0
 L -62.9743,-0.391571 L -62.8978,-0.776443 L -62.7716,-1.14804 L -62.5981,-1.5 L -62.3801,-1.82628 L -62.1213,-2.12131
 L -61.8263,-2.38005 L -61.5,-2.59807 L -61.148,-2.77164 L -60.7765,-2.89777 L -60.3916,-2.97432 L -60,-3
 L -59.6084,-2.97432 L -59.2235,-2.89777 L -58.8519,-2.77164 L -58.5,-2.59807 L -58.1737,-2.38005 L -57.8787,-2.12131
 L -57.6199,-1.82628 L -57.4019,-1.5 L -57.2284,-1.14804 L -57.1022,-0.776443 L -57.0257,-0.391571 L -57,-0
 L -57.0257,0.391571 L -57.1022,0.776443 L -57.2284,1.14804 L -57.4019,1.5 L -57.6199,1.82628 L -57.8787,2.12131
 L -58.1737,2.38005 L -58.5,2.59807 L -58.8519,2.77164 L -59.2235,2.89777 L -59.6084,2.97432 L -60,3
 z
M -75.3916,2.97432 L -75.7765,2.89777 L -76.148,2.77164 L -76.5,2.59807 L -76.8263,2.38005 L -77.1213,2.12131
 L -77.3801,1.82628 L -77.5981,1.5 L -77.7716,1.14804 L -77.8978,0.776443 L -77.9743,0.391571 L -78,-0
 L -77.9743,-0.391571 L -77.8978,-0.776443 L -77.7716,-1.14804 L -77.5981,-1.5 L -77.3801,-1.82628 L -77.1213,-2.12131
 L -76.8263,-2.38005 L -76.5,-2.59807 L -76.148,-2.77164 L -75.7765,-2.89777 L -75.3916,-2.97432 L -75,-3
 L -74.6084,-2.97432 L -74.2235,-2.89777 L -73.8519,-2.77164 L -73.5,-2.59807 L -73.1737,-2.38005 L -72.8787,-2.12131
 L -72.6199,-1.82628 L -72.4019,-1.5 L -72.2284,-1.14804 L -72.1022,-0.776443 L -72.0257,-0.391571 L -72,-0
 L -72.0257,0.391571 L -72.1022,0.776443 L -72.2284,1.14804 L -72.4019,1.5 L -72.6199,1.82628 L -72.8787,2.12131
 L -73.1737,2.38005 L -73.5,2.59807 L -73.8519,2.77164 L -74.2235,2.89777 L -74.6084,2.97432 L -75,3
 z
M 45.7765,-2.89777 L 46.148,-2.77164 L 46.5,-2.59807 L 46.8263,-2.38005 L 47.1213,-2.12131 L 47.3801,-1.82628
 L 47.5981,-1.5 L 47.7716,-1.14804 L 47.8978,-0.776443 L 47.9743,-0.391571 L 48,-0 L 47.9743,0.391571
 L 47.8978,0.776443 L 47.7716,1.14804 L 47.5981,1.5 L 47.3801,1.82628 L 47.1213,2.12131 L 46.8263,2.38005
 L 46.5,2.59807 L 46.148,2.77164 L 45.7765,2.89777 L 45.3916,2.97432 L 45,3 L 44.6084,2.97432
 L 44.2235,2.89777 L 43.8519,2.77164 L 43.5,2.59807 L 43.1737,2.38005 L 42.8787,2.12131 L 42.6199,1.82628
 L 42.4019,1.5 L 42.2284,1.14804 L 42.1022,0.776443 L 42.0257,0.391571 L 42,-0 L 42.0257,-0.391571
 L 42.1022,-0.776443 L 42.2284,-1.14804 L 42.4019,-1.5 L 42.6199,-1.82628 L 42.8787,-2.12131 L 43.1737,-2.38005
 L 43.5,-2.59807 L 43.8519,-2.77164 L 44.2235,-2.89777 L 44.6084,-2.97432 L 45,-3 L 45.3916,-2.97432
 z
M 14.6084,2.97432 L 14.2235,2.89777 L 13.8519,2.77164 L 13.5,2.59807 L 13.1737,2.38005 L 12.8787,2.12131
 L 12.6199,1.82628 L 12.4019,1.5 L 12.2283,1.14804 L 12.1022,0.776443 L 12.0257,0.391571 L 12,-0
 L 12.0257,-0.391571 L 12.1022,-0.776443 L 12.2283,-1.14804 L 12.4019,-1.5 L 12.6199,-1.82628 L 12.8787,-2.12131
 L 13.1737,-2.38005 L 13.5,-2.59807 L 13.8519,-2.77164 L 14.2235,-2.89777 L 14.6084,-2.97432 L 15,-3
 L 15.3916,-2.97432 L 15.7764,-2.89777 L 16.148,-2.77164 L 16.5,-2.59807 L 16.8263,-2.38005 L 17.1213,-2.12131
 L 17.3801,-1.82628 L 17.5981,-1.5 L 17.7716,-1.14804 L 17.8978,-0.776443 L 17.9743,-0.391571 L 18,-0
 L 17.9743,0.391571 L 17.8978,0.776443 L 17.7716,1.14804 L 17.5981,1.5 L 17.3801,1.82628 L 17.1213,2.12131
 L 16.8263,2.38005 L 16.5,2.59807 L 16.148,2.77164 L 15.7764,2.89777 L 15.3916,2.97432 L 15,3
 z
M -0.391571,2.97432 L -0.776443,2.89777 L -1.14804,2.77164 L -1.5,2.59807 L -1.82628,2.38005 L -2.12131,2.12131
 L -2.38005,1.82628 L -2.59807,1.5 L -2.77164,1.14804 L -2.89777,0.776443 L -2.97432,0.391571 L -3,-0
 L -2.97432,-0.391571 L -2.89777,-0.776443 L -2.77164,-1.14804 L -2.59807,-1.5 L -2.38005,-1.82628 L -2.12131,-2.12131
 L -1.82628,-2.38005 L -1.5,-2.59807 L -1.14804,-2.77164 L -0.776443,-2.89777 L -0.391571,-2.97432 L 0,-3
 L 0.391571,-2.97432 L 0.776443,-2.89777 L 1.14804,-2.77164 L 1.5,-2.59807 L 1.82628,-2.38005 L 2.12131,-2.12131
 L 2.38005,-1.82628 L 2.59807,-1.5 L 2.77164,-1.14804 L 2.89777,-0.776443 L 2.97432,-0.391571 L 3,-0
 L 2.97432,0.391571 L 2.89777,0.776443 L 2.77164,1.14804 L 2.59807,1.5 L 2.38005,1.82628 L 2.12131,2.12131
 L 1.82628,2.38005 L 1.5,2.59807 L 1.14804,2.77164 L 0.776443,2.89777 L 0.391571,2.97432 L 0,3
 z
M -45.3916,2.97432 L -45.7765,2.89777 L -46.148,2.77164 L -46.5,2.59807 L -46.8263,2.38005 L -47.1213,2.12131
 L -47.3801,1.82628 L -47.5981,1.5 L -47.7716,1.14804 L -47.8978,0.776443 L -47.9743,0.391571 L -48,-0
 L -47.9743,-0.391571 L -47.8978,-0.776443 L -47.7716,-1.14804 L -47.5981,-1.5 L -47.3801,-1.82628 L -47.1213,-2.12131
 L -46.8263,-2.38005 L -46.5,-2.59807 L -46.148,-2.77164 L -45.7765,-2.89777 L -45.3916,-2.97432 L -45,-3
 L -44.6084,-2.97432 L -44.2235,-2.89777 L -43.8519,-2.77164 L -43.5,-2.59807 L -43.1737,-2.38005 L -42.8787,-2.12131
 L -42.6199,-1.82628 L -42.4019,-1.5 L -42.2284,-1.14804 L -42.1022,-0.776443 L -42.0257,-0.391571 L -42,-0
 L -42.0257,0.391571 L -42.1022,0.776443 L -42.2284,1.14804 L -42.4019,1.5 L -42.6199,1.82628 L -42.8787,2.12131
 L -43.1737,2.38005 L -43.5,2.59807 L -43.8519,2.77164 L -44.2235,2.89777 L -44.6084,2.97432 L -45,3
 z
M -29.2235,-2.89777 L -28.8519,-2.77164 L -28.5,-2.59807 L -28.1737,-2.38005 L -27.8787,-2.12131 L -27.6199,-1.82628
 L -27.4019,-1.5 L -27.2283,-1.14804 L -27.1022,-0.776443 L -27.0257,-0.391571 L -27,-0 L -27.0257,0.391571
 L -27.1022,0.776443 L -27.2283,1.14804 L -27.4019,1.5 L -27.6199,1.82628 L -27.8787,2.12131 L -28.1737,2.38005
 L -28.5,2.59807 L -28.8519,2.77164 L -29.2235,2.89777 L -29.6084,2.97432 L -30,3 L -30.3916,2.97432
 L -30.7764,2.89777 L -31.148,2.77164 L -31.5,2.59807 L -31.8263,2.38005 L -32.1213,2.12131 L -32.3801,1.82628
 L -32.5981,1.5 L -32.7716,1.14804 L -32.8978,0.776443 L -32.9743,0.391571 L -33,-0 L -32.9743,-0.391571
 L -32.8978,-0.776443 L -32.7716,-1.14804 L -32.5981,-1.5 L -32.3801,-1.82628 L -32.1213,-2.12131 L -31.8263,-2.38005
 L -31.5,-2.59807 L -31.148,-2.77164 L -30.7764,-2.89777 L -30.3916,-2.97432 L -30,-3 L -29.6084,-2.97432
 z
M -15.3916,2.97432 L -15.7764,2.89777 L -16.148,2.77164 L -16.5,2.59807 L -16.8263,2.38005 L -17.1213,2.12131
 L -17.3801,1.82628 L -17.5981,1.5 L -17.7716,1.14804 L -17.8978,0.776443 L -17.9743,0.391571 L -18,-0
 L -17.9743,-0.391571 L -17.8978,-0.776443 L -17.7716,-1.14804 L -17.5981,-1.5 L -17.3801,-1.82628 L -17.1213,-2.12131
 L -16.8263,-2.38005 L -16.5,-2.59807 L -16.148,-2.77164 L -15.7764,-2.89777 L -15.3916,-2.97432 L -15,-3
 L -14.6084,-2.97432 L -14.2235,-2.89777 L -13.8519,-2.77164 L -13.5,-2.59807 L -13.1737,-2.38005 L -12.8787,-2.12131
 L -12.6199,-1.82628 L -12.4019,-1.5 L -12.2283,-1.14804 L -12.1022,-0.776443 L -12.0257,-0.391571 L -12,-0
 L -12.0257,0.391571 L -12.1022,0.776443 L -12.2283,1.14804 L -12.4019,1.5 L -12.6199,1.82628 L -12.8787,2.12131
 L -13.1737,2.38005 L -13.5,2.59807 L -13.8519,2.77164 L -14.2235,2.89777 L -14.6084,2.97432 L -15,3
 z
M 59.6084,2.97432 L 59.2235,2.89777 L 58.8519,2.77164 L 58.5,2.59807 L 58.1737,2.38005 L 57.8787,2.12131
 L 57.6199,1.82628 L 57.4019,1.5 L 57.2284,1.14804 L 57.1022,0.776443 L 57.0257,0.391571 L 57,-0
 L 57.0257,-0.391571 L 57.1022,-0.776443 L 57.2284,-1.14804 L 57.4019,-1.5 L 57.6199,-1.82628 L 57.8787,-2.12131
 L 58.1737,-2.38005 L 58.5,-2.59807 L 58.8519,-2.77164 L 59.2235,-2.89777 L 59.6084,-2.97432 L 60,-3
 L 60.3916,-2.97432 L 60.7765,-2.89777 L 61.148,-2.77164 L 61.5,-2.59807 L 61.8263,-2.38005 L 62.1213,-2.12131
 L 62.3801,-1.82628 L 62.5981,-1.5 L 62.7716,-1.14804 L 62.8978,-0.776443 L 62.9743,-0.391571 L 63,-0
 L 62.9743,0.391571 L 62.8978,0.776443 L 62.7716,1.14804 L 62.5981,1.5 L 62.3801,1.82628 L 62.1213,2.12131
 L 61.8263,2.38005 L 61.5,2.59807 L 61.148,2.77164 L 60.7765,2.89777 L 60.3916,2.97432 L 60,3
 z
" stroke="black" fill="lightgray" stroke-width="0.5"/>
</svg>
