<?xml version="1.0" standalone="no"?>
<!DOCTYPE svg PUBLIC "-//W3C//DTD SVG 1.1//EN" "http://www.w3.org/Graphics/SVG/1.1/DTD/svg11.dtd">
<svg width="177mm" height="12mm" viewBox="9 -21 177 12" xmlns="http://www.w3.org/2000/svg" version="1.1">
<title>OpenSCAD Model</title>
<path d="
M 181,-9.02962 L 181.314,-9.00986 L 182.545,-9.24471 L 183.679,-9.77835 L 184.645,-10.5773 L 185.382,-11.5912
 L 185.843,-12.7565 L 186,-14 L 186,-16 L 185.843,-17.2434 L 185.382,-18.4088 L 184.645,-19.4227
 L 183.679,-20.2216 L 182.545,-20.7553 L 181.314,-20.9901 L 181,-20.9704 L 181,-21 L 14,-21
 L 14,-20.9704 L 13.0631,-20.9114 L 11.8711,-20.5241 L 10.8129,-19.8526 L 9.95491,-18.9389 L 9.3511,-17.8406
 L 9.03941,-16.6267 L 9.03941,-16 L 9,-16 L 9,-14 L 9.03941,-14 L 9.03941,-13.3733
 L 9.3511,-12.1594 L 9.95491,-11.0611 L 10.8129,-10.1474 L 11.8711,-9.47586 L 13.0631,-9.08856 L 14,-9.02962
 L 14,-9 L 181,-9 z
" stroke="black" fill="lightgray" stroke-width="0.5"/>
</svg>
