<?xml version="1.0" standalone="no"?>
<!DOCTYPE svg PUBLIC "-//W3C//DTD SVG 1.1//EN" "http://www.w3.org/Graphics/SVG/1.1/DTD/svg11.dtd">
<svg width="178mm" height="12mm" viewBox="-89 -6 178 12" xmlns="http://www.w3.org/2000/svg" version="1.1">
<title>OpenSCAD Model</title>
<path d="
M 83.8139,5.99013 L 84.1267,5.96057 L 84.4369,5.91144 L 84.7435,5.84291 L 85.0451,5.75528 L 85.3406,5.64888
 L 85.6289,5.52414 L 85.9088,5.38153 L 86.1791,5.22163 L 86.4389,5.04509 L 86.6871,4.85257 L 86.9227,4.64484
 L 87.1448,4.42273 L 87.3526,4.18712 L 87.5451,3.93892 L 87.7216,3.67914 L 87.8815,3.40877 L 88.0241,3.12889
 L 88.1489,2.84062 L 88.2553,2.54509 L 88.3429,2.24345 L 88.4114,1.9369 L 88.4606,1.62666 L 88.4901,1.31395
 L 88.5,1 L 88.5,-1 L 88.4901,-1.31395 L 88.4606,-1.62666 L 88.4114,-1.9369 L 88.3429,-2.24345
 L 88.2553,-2.54509 L 88.1489,-2.84062 L 88.0241,-3.12889 L 87.8815,-3.40877 L 87.7216,-3.67914 L 87.5451,-3.93892
 L 87.3526,-4.18712 L 87.1448,-4.42273 L 86.9227,-4.64484 L 86.6871,-4.85257 L 86.4389,-5.04509 L 86.1791,-5.22163
 L 85.9088,-5.38153 L 85.6289,-5.52414 L 85.3406,-5.64888 L 85.0451,-5.75528 L 84.7435,-5.84291 L 84.4369,-5.91144
 L 84.1267,-5.96057 L 83.8139,-5.99013 L 83.5,-6 L -83.5,-6 L -83.8139,-5.99013 L -84.1267,-5.96057
 L -84.4369,-5.91144 L -84.7435,-5.84291 L -85.0451,-5.75528 L -85.3406,-5.64888 L -85.6289,-5.52414 L -85.9088,-5.38153
 L -86.1791,-5.22163 L -86.4389,-5.04509 L -86.6871,-4.85257 L -86.9227,-4.64484 L -87.1448,-4.42273 L -87.3526,-4.18712
 L -87.5451,-3.93892 L -87.7216,-3.67914 L -87.8815,-3.40877 L -88.0241,-3.12889 L -88.1489,-2.84062 L -88.2553,-2.54509
 L -88.3429,-2.24345 L -88.4114,-1.9369 L -88.4606,-1.62666 L -88.4901,-1.31395 L -88.5,-1 L -88.5,1
 L -88.4901,1.31395 L -88.4606,1.62666 L -88.4114,1.9369 L -88.3429,2.24345 L -88.2553,2.54509 L -88.1489,2.84062
 L -88.0241,3.12889 L -87.8815,3.40877 L -87.7216,3.67914 L -87.5451,3.93892 L -87.3526,4.18712 L -87.1448,4.42273
 L -86.9227,4.64484 L -86.6871,4.85257 L -86.4389,5.04509 L -86.1791,5.22163 L -85.9088,5.38153 L -85.6289,5.52414
 L -85.3406,5.64888 L -85.0451,5.75528 L -84.7435,5.84291 L -84.4369,5.91144 L -84.1267,5.96057 L -83.8139,5.99013
 L -83.5,6 L 83.5,6 z
M 22.876,-2.97633 L 23.0621,-2.94685 L 23.2461,-2.90575 L 23.427,-2.85316 L 23.6044,-2.78932 L 23.7773,-2.71448
 L 23.9453,-2.62891 L 24.1075,-2.53297 L 24.2634,-2.42705 L 24.4123,-2.31154 L 24.5536,-2.1869 L 24.6869,-2.05363
 L 24.8115,-1.91226 L 24.927,-1.76335 L 25.033,-1.60747 L 25.1289,-1.44525 L 25.2145,-1.27733 L 25.2893,-1.10437
 L 25.3532,-0.927048 L 25.4057,-0.746063 L 25.4469,-0.562134 L 25.4763,-0.375992 L 25.4941,-0.18837 L 25.5,-0
 L 25.4941,0.18837 L 25.4763,0.375992 L 25.4469,0.562134 L 25.4057,0.746063 L 25.3532,0.927048 L 25.2893,1.10437
 L 25.2145,1.27733 L 25.1289,1.44525 L 25.033,1.60747 L 24.927,1.76335 L 24.8115,1.91226 L 24.6869,2.05363
 L 24.5536,2.1869 L 24.4123,2.31154 L 24.2634,2.42705 L 24.1075,2.53297 L 23.9453,2.62891 L 23.7773,2.71448
 L 23.6044,2.78932 L 23.427,2.85316 L 23.2461,2.90575 L 23.0621,2.94685 L 22.876,2.97633 L 22.6884,2.99408
 L 22.5,3 L 22.3116,2.99408 L 22.124,2.97633 L 21.9379,2.94685 L 21.7539,2.90575 L 21.5729,2.85316
 L 21.3956,2.78932 L 21.2227,2.71448 L 21.0547,2.62891 L 20.8925,2.53297 L 20.7366,2.42705 L 20.5877,2.31154
 L 20.4464,2.1869 L 20.3131,2.05363 L 20.1884,1.91226 L 20.0729,1.76335 L 19.967,1.60747 L 19.8711,1.44525
 L 19.7855,1.27733 L 19.7107,1.10437 L 19.6468,0.927048 L 19.5942,0.746063 L 19.5531,0.562134 L 19.5237,0.375992
 L 19.5059,0.18837 L 19.5,-0 L 19.5059,-0.18837 L 19.5237,-0.375992 L 19.5531,-0.562134 L 19.5942,-0.746063
 L 19.6468,-0.927048 L 19.7107,-1.10437 L 19.7855,-1.27733 L 19.8711,-1.44525 L 19.967,-1.60747 L 20.0729,-1.76335
 L 20.1884,-1.91226 L 20.3131,-2.05363 L 20.4464,-2.1869 L 20.5877,-2.31154 L 20.7366,-2.42705 L 20.8925,-2.53297
 L 21.0547,-2.62891 L 21.2227,-2.71448 L 21.3956,-2.78932 L 21.5729,-2.85316 L 21.7539,-2.90575 L 21.9379,-2.94685
 L 22.124,-2.97633 L 22.3116,-2.99408 L 22.5,-3 L 22.6884,-2.99408 z
M -22.124,-2.97633 L -21.9379,-2.94685 L -21.7539,-2.90575 L -21.5729,-2.85316 L -21.3956,-2.78932 L -21.2227,-2.71448
 L -21.0547,-2.62891 L -20.8925,-2.53297 L -20.7366,-2.42705 L -20.5877,-2.31154 L -20.4464,-2.1869 L -20.3131,-2.05363
 L -20.1884,-1.91226 L -20.0729,-1.76335 L -19.967,-1.60747 L -19.8711,-1.44525 L -19.7855,-1.27733 L -19.7107,-1.10437
 L -19.6468,-0.927048 L -19.5942,-0.746063 L -19.5531,-0.562134 L -19.5237,-0.375992 L -19.5059,-0.18837 L -19.5,-0
 L -19.5059,0.18837 L -19.5237,0.375992 L -19.5531,0.562134 L -19.5942,0.746063 L -19.6468,0.927048 L -19.7107,1.10437
 L -19.7855,1.27733 L -19.8711,1.44525 L -19.967,1.60747 L -20.0729,1.76335 L -20.1884,1.91226 L -20.3131,2.05363
 L -20.4464,2.1869 L -20.5877,2.31154 L -20.7366,2.42705 L -20.8925,2.53297 L -21.0547,2.62891 L -21.2227,2.71448
 L -21.3956,2.78932 L -21.5729,2.85316 L -21.7539,2.90575 L -21.9379,2.94685 L -22.124,2.97633 L -22.3116,2.99408
 L -22.5,3 L -22.6884,2.99408 L -22.876,2.97633 L -23.0621,2.94685 L -23.2461,2.90575 L -23.427,2.85316
 L -23.6044,2.78932 L -23.7773,2.71448 L -23.9453,2.62891 L -24.1075,2.53297 L -24.2634,2.42705 L -24.4123,2.31154
 L -24.5536,2.1869 L -24.6869,2.05363 L -24.8115,1.91226 L -24.927,1.76335 L -25.033,1.60747 L -25.1289,1.44525
 L -25.2145,1.27733 L -25.2893,1.10437 L -25.3532,0.927048 L -25.4057,0.746063 L -25.4469,0.562134 L -25.4763,0.375992
 L -25.4941,0.18837 L -25.5,-0 L -25.4941,-0.18837 L -25.4763,-0.375992 L -25.4469,-0.562134 L -25.4057,-0.746063
 L -25.3532,-0.927048 L -25.2893,-1.10437 L -25.2145,-1.27733 L -25.1289,-1.44525 L -25.033,-1.60747 L -24.927,-1.76335
 L -24.8115,-1.91226 L -24.6869,-2.05363 L -24.5536,-2.1869 L -24.4123,-2.31154 L -24.2634,-2.42705 L -24.1075,-2.53297
 L -23.9453,-2.62891 L -23.7773,-2.71448 L -23.6044,-2.78932 L -23.427,-2.85316 L -23.2461,-2.90575 L -23.0621,-2.94685
 L -22.876,-2.97633 L -22.6884,-2.99408 L -22.5,-3 L -22.3116,-2.99408 z
M -82.6884,2.99408 L -82.876,2.97633 L -83.0621,2.94685 L -83.2461,2.90575 L -83.427,2.85316 L -83.6044,2.78932
 L -83.7773,2.71448 L -83.9453,2.62891 L -84.1075,2.53297 L -84.2634,2.42705 L -84.4123,2.31154 L -84.5536,2.1869
 L -84.6869,2.05363 L -84.8115,1.91226 L -84.927,1.76335 L -85.033,1.60747 L -85.1289,1.44525 L -85.2145,1.27733
 L -85.2893,1.10437 L -85.3532,0.927048 L -85.4057,0.746063 L -85.4469,0.562134 L -85.4763,0.375992 L -85.4941,0.18837
 L -85.5,-0 L -85.4941,-0.18837 L -85.4763,-0.375992 L -85.4469,-0.562134 L -85.4057,-0.746063 L -85.3532,-0.927048
 L -85.2893,-1.10437 L -85.2145,-1.27733 L -85.1289,-1.44525 L -85.033,-1.60747 L -84.927,-1.76335 L -84.8115,-1.91226
 L -84.6869,-2.05363 L -84.5536,-2.1869 L -84.4123,-2.31154 L -84.2634,-2.42705 L -84.1075,-2.53297 L -83.9453,-2.62891
 L -83.7773,-2.71448 L -83.6044,-2.78932 L -83.427,-2.85316 L -83.2461,-2.90575 L -83.0621,-2.94685 L -82.876,-2.97633
 L -82.6884,-2.99408 L -82.5,-3 L -82.3116,-2.99408 L -82.124,-2.97633 L -81.9379,-2.94685 L -81.7539,-2.90575
 L -81.573,-2.85316 L -81.3956,-2.78932 L -81.2227,-2.71448 L -81.0547,-2.62891 L -80.8925,-2.53297 L -80.7366,-2.42705
 L -80.5877,-2.31154 L -80.4464,-2.1869 L -80.3131,-2.05363 L -80.1885,-1.91226 L -80.073,-1.76335 L -79.967,-1.60747
 L -79.8711,-1.44525 L -79.7855,-1.27733 L -79.7107,-1.10437 L -79.6468,-0.927048 L -79.5943,-0.746063 L -79.5531,-0.562134
 L -79.5237,-0.375992 L -79.5059,-0.18837 L -79.5,-0 L -79.5059,0.18837 L -79.5237,0.375992 L -79.5531,0.562134
 L -79.5943,0.746063 L -79.6468,0.927048 L -79.7107,1.10437 L -79.7855,1.27733 L -79.8711,1.44525 L -79.967,1.60747
 L -80.073,1.76335 L -80.1885,1.91226 L -80.3131,2.05363 L -80.4464,2.1869 L -80.5877,2.31154 L -80.7366,2.42705
 L -80.8925,2.53297 L -81.0547,2.62891 L -81.2227,2.71448 L -81.3956,2.78932 L -81.573,2.85316 L -81.7539,2.90575
 L -81.9379,2.94685 L -82.124,2.97633 L -82.3116,2.99408 L -82.5,3 z
M -67.6884,2.99408 L -67.876,2.97633 L -68.0621,2.94685 L -68.2461,2.90575 L -68.427,2.85316 L -68.6044,2.78932
 L -68.7773,2.71448 L -68.9453,2.62891 L -69.1075,2.53297 L -69.2634,2.42705 L -69.4123,2.31154 L -69.5536,2.1869
 L -69.6869,2.05363 L -69.8115,1.91226 L -69.927,1.76335 L -70.033,1.60747 L -70.1289,1.44525 L -70.2145,1.27733
 L -70.2893,1.10437 L -70.3532,0.927048 L -70.4057,0.746063 L -70.4469,0.562134 L -70.4763,0.375992 L -70.4941,0.18837
 L -70.5,-0 L -70.4941,-0.18837 L -70.4763,-0.375992 L -70.4469,-0.562134 L -70.4057,-0.746063 L -70.3532,-0.927048
 L -70.2893,-1.10437 L -70.2145,-1.27733 L -70.1289,-1.44525 L -70.033,-1.60747 L -69.927,-1.76335 L -69.8115,-1.91226
 L -69.6869,-2.05363 L -69.5536,-2.1869 L -69.4123,-2.31154 L -69.2634,-2.42705 L -69.1075,-2.53297 L -68.9453,-2.62891
 L -68.7773,-2.71448 L -68.6044,-2.78932 L -68.427,-2.85316 L -68.2461,-2.90575 L -68.0621,-2.94685 L -67.876,-2.97633
 L -67.6884,-2.99408 L -67.5,-3 L -67.3116,-2.99408 L -67.124,-2.97633 L -66.9379,-2.94685 L -66.7539,-2.90575
 L -66.573,-2.85316 L -66.3956,-2.78932 L -66.2227,-2.71448 L -66.0547,-2.62891 L -65.8925,-2.53297 L -65.7366,-2.42705
 L -65.5877,-2.31154 L -65.4464,-2.1869 L -65.3131,-2.05363 L -65.1885,-1.91226 L -65.073,-1.76335 L -64.967,-1.60747
 L -64.8711,-1.44525 L -64.7855,-1.27733 L -64.7107,-1.10437 L -64.6468,-0.927048 L -64.5943,-0.746063 L -64.5531,-0.562134
 L -64.5237,-0.375992 L -64.5059,-0.18837 L -64.5,-0 L -64.5059,0.18837 L -64.5237,0.375992 L -64.5531,0.562134
 L -64.5943,0.746063 L -64.6468,0.927048 L -64.7107,1.10437 L -64.7855,1.27733 L -64.8711,1.44525 L -64.967,1.60747
 L -65.073,1.76335 L -65.1885,1.91226 L -65.3131,2.05363 L -65.4464,2.1869 L -65.5877,2.31154 L -65.7366,2.42705
 L -65.8925,2.53297 L -66.0547,2.62891 L -66.2227,2.71448 L -66.3956,2.78932 L -66.573,2.85316 L -66.7539,2.90575
 L -66.9379,2.94685 L -67.124,2.97633 L -67.3116,2.99408 L -67.5,3 z
M -52.6884,2.99408 L -52.876,2.97633 L -53.0621,2.94685 L -53.2461,2.90575 L -53.427,2.85316 L -53.6044,2.78932
 L -53.7773,2.71448 L -53.9453,2.62891 L -54.1075,2.53297 L -54.2634,2.42705 L -54.4123,2.31154 L -54.5536,2.1869
 L -54.6869,2.05363 L -54.8115,1.91226 L -54.927,1.76335 L -55.033,1.60747 L -55.1289,1.44525 L -55.2145,1.27733
 L -55.2893,1.10437 L -55.3532,0.927048 L -55.4057,0.746063 L -55.4469,0.562134 L -55.4763,0.375992 L -55.4941,0.18837
 L -55.5,-0 L -55.4941,-0.18837 L -55.4763,-0.375992 L -55.4469,-0.562134 L -55.4057,-0.746063 L -55.3532,-0.927048
 L -55.2893,-1.10437 L -55.2145,-1.27733 L -55.1289,-1.44525 L -55.033,-1.60747 L -54.927,-1.76335 L -54.8115,-1.91226
 L -54.6869,-2.05363 L -54.5536,-2.1869 L -54.4123,-2.31154 L -54.2634,-2.42705 L -54.1075,-2.53297 L -53.9453,-2.62891
 L -53.7773,-2.71448 L -53.6044,-2.78932 L -53.427,-2.85316 L -53.2461,-2.90575 L -53.0621,-2.94685 L -52.876,-2.97633
 L -52.6884,-2.99408 L -52.5,-3 L -52.3116,-2.99408 L -52.124,-2.97633 L -51.9379,-2.94685 L -51.7539,-2.90575
 L -51.5729,-2.85316 L -51.3956,-2.78932 L -51.2227,-2.71448 L -51.0547,-2.62891 L -50.8925,-2.53297 L -50.7366,-2.42705
 L -50.5877,-2.31154 L -50.4464,-2.1869 L -50.3131,-2.05363 L -50.1885,-1.91226 L -50.0729,-1.76335 L -49.967,-1.60747
 L -49.8711,-1.44525 L -49.7855,-1.27733 L -49.7107,-1.10437 L -49.6468,-0.927048 L -49.5942,-0.746063 L -49.5531,-0.562134
 L -49.5237,-0.375992 L -49.5059,-0.18837 L -49.5,-0 L -49.5059,0.18837 L -49.5237,0.375992 L -49.5531,0.562134
 L -49.5942,0.746063 L -49.6468,0.927048 L -49.7107,1.10437 L -49.7855,1.27733 L -49.8711,1.44525 L -49.967,1.60747
 L -50.0729,1.76335 L -50.1885,1.91226 L -50.3131,2.05363 L -50.4464,2.1869 L -50.5877,2.31154 L -50.7366,2.42705
 L -50.8925,2.53297 L -51.0547,2.62891 L -51.2227,2.71448 L -51.3956,2.78932 L -51.5729,2.85316 L -51.7539,2.90575
 L -51.9379,2.94685 L -52.124,2.97633 L -52.3116,2.99408 L -52.5,3 z
M 52.3116,2.99408 L 52.124,2.97633 L 51.9379,2.94685 L 51.7539,2.90575 L 51.5729,2.85316 L 51.3956,2.78932
 L 51.2227,2.71448 L 51.0547,2.62891 L 50.8925,2.53297 L 50.7366,2.42705 L 50.5877,2.31154 L 50.4464,2.1869
 L 50.3131,2.05363 L 50.1885,1.91226 L 50.0729,1.76335 L 49.967,1.60747 L 49.8711,1.44525 L 49.7855,1.27733
 L 49.7107,1.10437 L 49.6468,0.927048 L 49.5942,0.746063 L 49.5531,0.562134 L 49.5237,0.375992 L 49.5059,0.18837
 L 49.5,-0 L 49.5059,-0.18837 L 49.5237,-0.375992 L 49.5531,-0.562134 L 49.5942,-0.746063 L 49.6468,-0.927048
 L 49.7107,-1.10437 L 49.7855,-1.27733 L 49.8711,-1.44525 L 49.967,-1.60747 L 50.0729,-1.76335 L 50.1885,-1.91226
 L 50.3131,-2.05363 L 50.4464,-2.1869 L 50.5877,-2.31154 L 50.7366,-2.42705 L 50.8925,-2.53297 L 51.0547,-2.62891
 L 51.2227,-2.71448 L 51.3956,-2.78932 L 51.5729,-2.85316 L 51.7539,-2.90575 L 51.9379,-2.94685 L 52.124,-2.97633
 L 52.3116,-2.99408 L 52.5,-3 L 52.6884,-2.99408 L 52.876,-2.97633 L 53.0621,-2.94685 L 53.2461,-2.90575
 L 53.427,-2.85316 L 53.6044,-2.78932 L 53.7773,-2.71448 L 53.9453,-2.62891 L 54.1075,-2.53297 L 54.2634,-2.42705
 L 54.4123,-2.31154 L 54.5536,-2.1869 L 54.6869,-2.05363 L 54.8115,-1.91226 L 54.927,-1.76335 L 55.033,-1.60747
 L 55.1289,-1.44525 L 55.2145,-1.27733 L 55.2893,-1.10437 L 55.3532,-0.927048 L 55.4057,-0.746063 L 55.4469,-0.562134
 L 55.4763,-0.375992 L 55.4941,-0.18837 L 55.5,-0 L 55.4941,0.18837 L 55.4763,0.375992 L 55.4469,0.562134
 L 55.4057,0.746063 L 55.3532,0.927048 L 55.2893,1.10437 L 55.2145,1.27733 L 55.1289,1.44525 L 55.033,1.60747
 L 54.927,1.76335 L 54.8115,1.91226 L 54.6869,2.05363 L 54.5536,2.1869 L 54.4123,2.31154 L 54.2634,2.42705
 L 54.1075,2.53297 L 53.9453,2.62891 L 53.7773,2.71448 L 53.6044,2.78932 L 53.427,2.85316 L 53.2461,2.90575
 L 53.0621,2.94685 L 52.876,2.97633 L 52.6884,2.99408 L 52.5,3 z
M 67.3116,2.99408 L 67.124,2.97633 L 66.9379,2.94685 L 66.7539,2.90575 L 66.573,2.85316 L 66.3956,2.78932
 L 66.2227,2.71448 L 66.0547,2.62891 L 65.8925,2.53297 L 65.7366,2.42705 L 65.5877,2.31154 L 65.4464,2.1869
 L 65.3131,2.05363 L 65.1885,1.91226 L 65.073,1.76335 L 64.967,1.60747 L 64.8711,1.44525 L 64.7855,1.27733
 L 64.7107,1.10437 L 64.6468,0.927048 L 64.5943,0.746063 L 64.5531,0.562134 L 64.5237,0.375992 L 64.5059,0.18837
 L 64.5,-0 L 64.5059,-0.18837 L 64.5237,-0.375992 L 64.5531,-0.562134 L 64.5943,-0.746063 L 64.6468,-0.927048
 L 64.7107,-1.10437 L 64.7855,-1.27733 L 64.8711,-1.44525 L 64.967,-1.60747 L 65.073,-1.76335 L 65.1885,-1.91226
 L 65.3131,-2.05363 L 65.4464,-2.1869 L 65.5877,-2.31154 L 65.7366,-2.42705 L 65.8925,-2.53297 L 66.0547,-2.62891
 L 66.2227,-2.71448 L 66.3956,-2.78932 L 66.573,-2.85316 L 66.7539,-2.90575 L 66.9379,-2.94685 L 67.124,-2.97633
 L 67.3116,-2.99408 L 67.5,-3 L 67.6884,-2.99408 L 67.876,-2.97633 L 68.0621,-2.94685 L 68.2461,-2.90575
 L 68.427,-2.85316 L 68.6044,-2.78932 L 68.7773,-2.71448 L 68.9453,-2.62891 L 69.1075,-2.53297 L 69.2634,-2.42705
 L 69.4123,-2.31154 L 69.5536,-2.1869 L 69.6869,-2.05363 L 69.8115,-1.91226 L 69.927,-1.76335 L 70.033,-1.60747
 L 70.1289,-1.44525 L 70.2145,-1.27733 L 70.2893,-1.10437 L 70.3532,-0.927048 L 70.4057,-0.746063 L 70.4469,-0.562134
 L 70.4763,-0.375992 L 70.4941,-0.18837 L 70.5,-0 L 70.4941,0.18837 L 70.4763,0.375992 L 70.4469,0.562134
 L 70.4057,0.746063 L 70.3532,0.927048 L 70.2893,1.10437 L 70.2145,1.27733 L 70.1289,1.44525 L 70.033,1.60747
 L 69.927,1.76335 L 69.8115,1.91226 L 69.6869,2.05363 L 69.5536,2.1869 L 69.4123,2.31154 L 69.2634,2.42705
 L 69.1075,2.53297 L 68.9453,2.62891 L 68.7773,2.71448 L 68.6044,2.78932 L 68.427,2.85316 L 68.2461,2.90575
 L 68.0621,2.94685 L 67.876,2.97633 L 67.6884,2.99408 L 67.5,3 z
M 82.3116,2.99408 L 82.124,2.97633 L 81.9379,2.94685 L 81.7539,2.90575 L 81.573,2.85316 L 81.3956,2.78932
 L 81.2227,2.71448 L 81.0547,2.62891 L 80.8925,2.53297 L 80.7366,2.42705 L 80.5877,2.31154 L 80.4464,2.1869
 L 80.3131,2.05363 L 80.1885,1.91226 L 80.073,1.76335 L 79.967,1.60747 L 79.8711,1.44525 L 79.7855,1.27733
 L 79.7107,1.10437 L 79.6468,0.927048 L 79.5943,0.746063 L 79.5531,0.562134 L 79.5237,0.375992 L 79.5059,0.18837
 L 79.5,-0 L 79.5059,-0.18837 L 79.5237,-0.375992 L 79.5531,-0.562134 L 79.5943,-0.746063 L 79.6468,-0.927048
 L 79.7107,-1.10437 L 79.7855,-1.27733 L 79.8711,-1.44525 L 79.967,-1.60747 L 80.073,-1.76335 L 80.1885,-1.91226
 L 80.3131,-2.05363 L 80.4464,-2.1869 L 80.5877,-2.31154 L 80.7366,-2.42705 L 80.8925,-2.53297 L 81.0547,-2.62891
 L 81.2227,-2.71448 L 81.3956,-2.78932 L 81.573,-2.85316 L 81.7539,-2.90575 L 81.9379,-2.94685 L 82.124,-2.97633
 L 82.3116,-2.99408 L 82.5,-3 L 82.6884,-2.99408 L 82.876,-2.97633 L 83.0621,-2.94685 L 83.2461,-2.90575
 L 83.427,-2.85316 L 83.6044,-2.78932 L 83.7773,-2.71448 L 83.9453,-2.62891 L 84.1075,-2.53297 L 84.2634,-2.42705
 L 84.4123,-2.31154 L 84.5536,-2.1869 L 84.6869,-2.05363 L 84.8115,-1.91226 L 84.927,-1.76335 L 85.033,-1.60747
 L 85.1289,-1.44525 L 85.2145,-1.27733 L 85.2893,-1.10437 L 85.3532,-0.927048 L 85.4057,-0.746063 L 85.4469,-0.562134
 L 85.4763,-0.375992 L 85.4941,-0.18837 L 85.5,-0 L 85.4941,0.18837 L 85.4763,0.375992 L 85.4469,0.562134
 L 85.4057,0.746063 L 85.3532,0.927048 L 85.2893,1.10437 L 85.2145,1.27733 L 85.1289,1.44525 L 85.033,1.60747
 L 84.927,1.76335 L 84.8115,1.91226 L 84.6869,2.05363 L 84.5536,2.1869 L 84.4123,2.31154 L 84.2634,2.42705
 L 84.1075,2.53297 L 83.9453,2.62891 L 83.7773,2.71448 L 83.6044,2.78932 L 83.427,2.85316 L 83.2461,2.90575
 L 83.0621,2.94685 L 82.876,2.97633 L 82.6884,2.99408 L 82.5,3 z
M -37.6884,2.99408 L -37.876,2.97633 L -38.0621,2.94685 L -38.2461,2.90575 L -38.427,2.85316 L -38.6044,2.78932
 L -38.7773,2.71448 L -38.9453,2.62891 L -39.1075,2.53297 L -39.2634,2.42705 L -39.4123,2.31154 L -39.5536,2.1869
 L -39.6869,2.05363 L -39.8115,1.91226 L -39.927,1.76335 L -40.033,1.60747 L -40.1289,1.44525 L -40.2145,1.27733
 L -40.2893,1.10437 L -40.3532,0.927048 L -40.4057,0.746063 L -40.4469,0.562134 L -40.4763,0.375992 L -40.4941,0.18837
 L -40.5,-0 L -40.4941,-0.18837 L -40.4763,-0.375992 L -40.4469,-0.562134 L -40.4057,-0.746063 L -40.3532,-0.927048
 L -40.2893,-1.10437 L -40.2145,-1.27733 L -40.1289,-1.44525 L -40.033,-1.60747 L -39.927,-1.76335 L -39.8115,-1.91226
 L -39.6869,-2.05363 L -39.5536,-2.1869 L -39.4123,-2.31154 L -39.2634,-2.42705 L -39.1075,-2.53297 L -38.9453,-2.62891
 L -38.7773,-2.71448 L -38.6044,-2.78932 L -38.427,-2.85316 L -38.2461,-2.90575 L -38.0621,-2.94685 L -37.876,-2.97633
 L -37.6884,-2.99408 L -37.5,-3 L -37.3116,-2.99408 L -37.124,-2.97633 L -36.9379,-2.94685 L -36.7539,-2.90575
 L -36.5729,-2.85316 L -36.3956,-2.78932 L -36.2227,-2.71448 L -36.0547,-2.62891 L -35.8925,-2.53297 L -35.7366,-2.42705
 L -35.5877,-2.31154 L -35.4464,-2.1869 L -35.3131,-2.05363 L -35.1885,-1.91226 L -35.0729,-1.76335 L -34.967,-1.60747
 L -34.8711,-1.44525 L -34.7855,-1.27733 L -34.7107,-1.10437 L -34.6468,-0.927048 L -34.5942,-0.746063 L -34.5531,-0.562134
 L -34.5237,-0.375992 L -34.5059,-0.18837 L -34.5,-0 L -34.5059,0.18837 L -34.5237,0.375992 L -34.5531,0.562134
 L -34.5942,0.746063 L -34.6468,0.927048 L -34.7107,1.10437 L -34.7855,1.27733 L -34.8711,1.44525 L -34.967,1.60747
 L -35.0729,1.76335 L -35.1885,1.91226 L -35.3131,2.05363 L -35.4464,2.1869 L -35.5877,2.31154 L -35.7366,2.42705
 L -35.8925,2.53297 L -36.0547,2.62891 L -36.2227,2.71448 L -36.3956,2.78932 L -36.5729,2.85316 L -36.7539,2.90575
 L -36.9379,2.94685 L -37.124,2.97633 L -37.3116,2.99408 L -37.5,3 z
M 7.31161,2.99408 L 7.12399,2.97633 L 6.93785,2.94685 L 6.75392,2.90575 L 6.57294,2.85316 L 6.39561,2.78932
 L 6.22266,2.71448 L 6.05473,2.62891 L 5.89252,2.53297 L 5.73663,2.42705 L 5.58772,2.31154 L 5.44635,2.1869
 L 5.31308,2.05363 L 5.18845,1.91226 L 5.07294,1.76335 L 4.96701,1.60747 L 4.87108,1.44525 L 4.78551,1.27733
 L 4.71066,1.10437 L 4.64682,0.927048 L 4.59424,0.746063 L 4.55313,0.562134 L 4.52365,0.375992 L 4.50591,0.18837
 L 4.5,-0 L 4.50591,-0.18837 L 4.52365,-0.375992 L 4.55313,-0.562134 L 4.59424,-0.746063 L 4.64682,-0.927048
 L 4.71066,-1.10437 L 4.78551,-1.27733 L 4.87108,-1.44525 L 4.96701,-1.60747 L 5.07294,-1.76335 L 5.18845,-1.91226
 L 5.31308,-2.05363 L 5.44635,-2.1869 L 5.58772,-2.31154 L 5.73663,-2.42705 L 5.89252,-2.53297 L 6.05473,-2.62891
 L 6.22266,-2.71448 L 6.39561,-2.78932 L 6.57294,-2.85316 L 6.75392,-2.90575 L 6.93785,-2.94685 L 7.12399,-2.97633
 L 7.31161,-2.99408 L 7.5,-3 L 7.68837,-2.99408 L 7.87599,-2.97633 L 8.06213,-2.94685 L 8.24606,-2.90575
 L 8.42705,-2.85316 L 8.60437,-2.78932 L 8.77733,-2.71448 L 8.94525,-2.62891 L 9.10747,-2.53297 L 9.26335,-2.42705
 L 9.41226,-2.31154 L 9.55363,-2.1869 L 9.6869,-2.05363 L 9.81154,-1.91226 L 9.92705,-1.76335 L 10.033,-1.60747
 L 10.1289,-1.44525 L 10.2145,-1.27733 L 10.2893,-1.10437 L 10.3532,-0.927048 L 10.4057,-0.746063 L 10.4469,-0.562134
 L 10.4763,-0.375992 L 10.4941,-0.18837 L 10.5,-0 L 10.4941,0.18837 L 10.4763,0.375992 L 10.4469,0.562134
 L 10.4057,0.746063 L 10.3532,0.927048 L 10.2893,1.10437 L 10.2145,1.27733 L 10.1289,1.44525 L 10.033,1.60747
 L 9.92705,1.76335 L 9.81154,1.91226 L 9.6869,2.05363 L 9.55363,2.1869 L 9.41226,2.31154 L 9.26335,2.42705
 L 9.10747,2.53297 L 8.94525,2.62891 L 8.77733,2.71448 L 8.60437,2.78932 L 8.42705,2.85316 L 8.24606,2.90575
 L 8.06213,2.94685 L 7.87599,2.97633 L 7.68837,2.99408 L 7.5,3 z
M -7.68837,2.99408 L -7.87599,2.97633 L -8.06213,2.94685 L -8.24606,2.90575 L -8.42705,2.85316 L -8.60437,2.78932
 L -8.77733,2.71448 L -8.94525,2.62891 L -9.10747,2.53297 L -9.26335,2.42705 L -9.41226,2.31154 L -9.55363,2.1869
 L -9.6869,2.05363 L -9.81154,1.91226 L -9.92705,1.76335 L -10.033,1.60747 L -10.1289,1.44525 L -10.2145,1.27733
 L -10.2893,1.10437 L -10.3532,0.927048 L -10.4057,0.746063 L -10.4469,0.562134 L -10.4763,0.375992 L -10.4941,0.18837
 L -10.5,-0 L -10.4941,-0.18837 L -10.4763,-0.375992 L -10.4469,-0.562134 L -10.4057,-0.746063 L -10.3532,-0.927048
 L -10.2893,-1.10437 L -10.2145,-1.27733 L -10.1289,-1.44525 L -10.033,-1.60747 L -9.92705,-1.76335 L -9.81154,-1.91226
 L -9.6869,-2.05363 L -9.55363,-2.1869 L -9.41226,-2.31154 L -9.26335,-2.42705 L -9.10747,-2.53297 L -8.94525,-2.62891
 L -8.77733,-2.71448 L -8.60437,-2.78932 L -8.42705,-2.85316 L -8.24606,-2.90575 L -8.06213,-2.94685 L -7.87599,-2.97633
 L -7.68837,-2.99408 L -7.5,-3 L -7.31161,-2.99408 L -7.12399,-2.97633 L -6.93785,-2.94685 L -6.75392,-2.90575
 L -6.57294,-2.85316 L -6.39561,-2.78932 L -6.22266,-2.71448 L -6.05473,-2.62891 L -5.89252,-2.53297 L -5.73663,-2.42705
 L -5.58772,-2.31154 L -5.44635,-2.1869 L -5.31308,-2.05363 L -5.18845,-1.91226 L -5.07294,-1.76335 L -4.96701,-1.60747
 L -4.87108,-1.44525 L -4.78551,-1.27733 L -4.71066,-1.10437 L -4.64682,-0.927048 L -4.59424,-0.746063 L -4.55313,-0.562134
 L -4.52365,-0.375992 L -4.50591,-0.18837 L -4.5,-0 L -4.50591,0.18837 L -4.52365,0.375992 L -4.55313,0.562134
 L -4.59424,0.746063 L -4.64682,0.927048 L -4.71066,1.10437 L -4.78551,1.27733 L -4.87108,1.44525 L -4.96701,1.60747
 L -5.07294,1.76335 L -5.18845,1.91226 L -5.31308,2.05363 L -5.44635,2.1869 L -5.58772,2.31154 L -5.73663,2.42705
 L -5.89252,2.53297 L -6.05473,2.62891 L -6.22266,2.71448 L -6.39561,2.78932 L -6.57294,2.85316 L -6.75392,2.90575
 L -6.93785,2.94685 L -7.12399,2.97633 L -7.31161,2.99408 L -7.5,3 z
M 37.3116,2.99408 L 37.124,2.97633 L 36.9379,2.94685 L 36.7539,2.90575 L 36.5729,2.85316 L 36.3956,2.78932
 L 36.2227,2.71448 L 36.0547,2.62891 L 35.8925,2.53297 L 35.7366,2.42705 L 35.5877,2.31154 L 35.4464,2.1869
 L 35.3131,2.05363 L 35.1885,1.91226 L 35.0729,1.76335 L 34.967,1.60747 L 34.8711,1.44525 L 34.7855,1.27733
 L 34.7107,1.10437 L 34.6468,0.927048 L 34.5942,0.746063 L 34.5531,0.562134 L 34.5237,0.375992 L 34.5059,0.18837
 L 34.5,-0 L 34.5059,-0.18837 L 34.5237,-0.375992 L 34.5531,-0.562134 L 34.5942,-0.746063 L 34.6468,-0.927048
 L 34.7107,-1.10437 L 34.7855,-1.27733 L 34.8711,-1.44525 L 34.967,-1.60747 L 35.0729,-1.76335 L 35.1885,-1.91226
 L 35.3131,-2.05363 L 35.4464,-2.1869 L 35.5877,-2.31154 L 35.7366,-2.42705 L 35.8925,-2.53297 L 36.0547,-2.62891
 L 36.2227,-2.71448 L 36.3956,-2.78932 L 36.5729,-2.85316 L 36.7539,-2.90575 L 36.9379,-2.94685 L 37.124,-2.97633
 L 37.3116,-2.99408 L 37.5,-3 L 37.6884,-2.99408 L 37.876,-2.97633 L 38.0621,-2.94685 L 38.2461,-2.90575
 L 38.427,-2.85316 L 38.6044,-2.78932 L 38.7773,-2.71448 L 38.9453,-2.62891 L 39.1075,-2.53297 L 39.2634,-2.42705
 L 39.4123,-2.31154 L 39.5536,-2.1869 L 39.6869,-2.05363 L 39.8115,-1.91226 L 39.927,-1.76335 L 40.033,-1.60747
 L 40.1289,-1.44525 L 40.2145,-1.27733 L 40.2893,-1.10437 L 40.3532,-0.927048 L 40.4057,-0.746063 L 40.4469,-0.562134
 L 40.4763,-0.375992 L 40.4941,-0.18837 L 40.5,-0 L 40.4941,0.18837 L 40.4763,0.375992 L 40.4469,0.562134
 L 40.4057,0.746063 L 40.3532,0.927048 L 40.2893,1.10437 L 40.2145,1.27733 L 40.1289,1.44525 L 40.033,1.60747
 L 39.927,1.76335 L 39.8115,1.91226 L 39.6869,2.05363 L 39.5536,2.1869 L 39.4123,2.31154 L 39.2634,2.42705
 L 39.1075,2.53297 L 38.9453,2.62891 L 38.7773,2.71448 L 38.6044,2.78932 L 38.427,2.85316 L 38.2461,2.90575
 L 38.0621,2.94685 L 37.876,2.97633 L 37.6884,2.99408 L 37.5,3 z
" stroke="black" fill="lightgray" stroke-width="0.5"/>
</svg>
