<?xml version="1.0" standalone="no"?>
<!DOCTYPE svg PUBLIC "-//W3C//DTD SVG 1.1//EN" "http://www.w3.org/Graphics/SVG/1.1/DTD/svg11.dtd">
<svg width="177mm" height="12mm" viewBox="9 -21 177 12" xmlns="http://www.w3.org/2000/svg" version="1.1">
<title>OpenSCAD Model</title>
<path d="
M 181.314,-9.00986 L 181.627,-9.03941 L 181.937,-9.08856 L 182.243,-9.15707 L 182.545,-9.24471 L 182.841,-9.3511
 L 183.129,-9.47586 L 183.409,-9.61845 L 183.679,-9.77835 L 183.939,-9.95491 L 184.187,-10.1474 L 184.423,-10.3551
 L 184.645,-10.5773 L 184.853,-10.8129 L 185.045,-11.0611 L 185.222,-11.3209 L 185.382,-11.5912 L 185.524,-11.8711
 L 185.649,-12.1594 L 185.755,-12.4549 L 185.843,-12.7565 L 185.911,-13.0631 L 185.961,-13.3733 L 185.99,-13.686
 L 186,-14 L 186,-16 L 185.99,-16.3139 L 185.961,-16.6267 L 185.911,-16.9369 L 185.843,-17.2434
 L 185.755,-17.5451 L 185.649,-17.8406 L 185.524,-18.1289 L 185.382,-18.4088 L 185.222,-18.6791 L 185.045,-18.9389
 L 184.853,-19.1871 L 184.645,-19.4227 L 184.423,-19.6448 L 184.187,-19.8526 L 183.939,-20.0451 L 183.679,-20.2216
 L 183.409,-20.3815 L 183.129,-20.5241 L 182.841,-20.6489 L 182.545,-20.7553 L 182.243,-20.8429 L 181.937,-20.9114
 L 181.627,-20.9606 L 181.314,-20.9901 L 181,-21 L 14,-21 L 13.686,-20.9901 L 13.3733,-20.9606
 L 13.0631,-20.9114 L 12.7565,-20.8429 L 12.4549,-20.7553 L 12.1594,-20.6489 L 11.8711,-20.5241 L 11.5912,-20.3815
 L 11.3209,-20.2216 L 11.0611,-20.0451 L 10.8129,-19.8526 L 10.5773,-19.6448 L 10.3551,-19.4227 L 10.1474,-19.1871
 L 9.95491,-18.9389 L 9.77835,-18.6791 L 9.61845,-18.4088 L 9.47586,-18.1289 L 9.3511,-17.8406 L 9.24471,-17.5451
 L 9.15707,-17.2434 L 9.08856,-16.9369 L 9.03941,-16.6267 L 9.00986,-16.3139 L 9,-16 L 9,-14
 L 9.00986,-13.686 L 9.03941,-13.3733 L 9.08856,-13.0631 L 9.15707,-12.7565 L 9.24471,-12.4549 L 9.3511,-12.1594
 L 9.47586,-11.8711 L 9.61845,-11.5912 L 9.77835,-11.3209 L 9.95491,-11.0611 L 10.1474,-10.8129 L 10.3551,-10.5773
 L 10.5773,-10.3551 L 10.8129,-10.1474 L 11.0611,-9.95491 L 11.3209,-9.77835 L 11.5912,-9.61845 L 11.8711,-9.47586
 L 12.1594,-9.3511 L 12.4549,-9.24471 L 12.7565,-9.15707 L 13.0631,-9.08856 L 13.3733,-9.03941 L 13.686,-9.00986
 L 14,-9 L 181,-9 z
M 29.8116,-12.0059 L 29.624,-12.0237 L 29.4379,-12.0531 L 29.2539,-12.0942 L 29.0729,-12.1468 L 28.8956,-12.2107
 L 28.7227,-12.2855 L 28.5547,-12.3711 L 28.3925,-12.467 L 28.2366,-12.5729 L 28.0877,-12.6884 L 27.9464,-12.8131
 L 27.8131,-12.9464 L 27.6884,-13.0877 L 27.5729,-13.2366 L 27.467,-13.3925 L 27.3711,-13.5547 L 27.2855,-13.7227
 L 27.2107,-13.8956 L 27.1468,-14.0729 L 27.0942,-14.2539 L 27.0531,-14.4379 L 27.0237,-14.624 L 27.0059,-14.8116
 L 27,-15 L 27.0059,-15.1884 L 27.0237,-15.376 L 27.0531,-15.5621 L 27.0942,-15.7461 L 27.1468,-15.927
 L 27.2107,-16.1044 L 27.2855,-16.2773 L 27.3711,-16.4453 L 27.467,-16.6075 L 27.5729,-16.7634 L 27.6884,-16.9123
 L 27.8131,-17.0536 L 27.9464,-17.1869 L 28.0877,-17.3115 L 28.2366,-17.427 L 28.3925,-17.533 L 28.5547,-17.6289
 L 28.7227,-17.7145 L 28.8956,-17.7893 L 29.0729,-17.8532 L 29.2539,-17.9057 L 29.4379,-17.9469 L 29.624,-17.9763
 L 29.8116,-17.9941 L 30,-18 L 30.1884,-17.9941 L 30.376,-17.9763 L 30.5621,-17.9469 L 30.7461,-17.9057
 L 30.927,-17.8532 L 31.1044,-17.7893 L 31.2773,-17.7145 L 31.4453,-17.6289 L 31.6075,-17.533 L 31.7634,-17.427
 L 31.9123,-17.3115 L 32.0536,-17.1869 L 32.1869,-17.0536 L 32.3115,-16.9123 L 32.427,-16.7634 L 32.533,-16.6075
 L 32.6289,-16.4453 L 32.7145,-16.2773 L 32.7893,-16.1044 L 32.8532,-15.927 L 32.9057,-15.7461 L 32.9469,-15.5621
 L 32.9763,-15.376 L 32.9941,-15.1884 L 33,-15 L 32.9941,-14.8116 L 32.9763,-14.624 L 32.9469,-14.4379
 L 32.9057,-14.2539 L 32.8532,-14.0729 L 32.7893,-13.8956 L 32.7145,-13.7227 L 32.6289,-13.5547 L 32.533,-13.3925
 L 32.427,-13.2366 L 32.3115,-13.0877 L 32.1869,-12.9464 L 32.0536,-12.8131 L 31.9123,-12.6884 L 31.7634,-12.5729
 L 31.6075,-12.467 L 31.4453,-12.3711 L 31.2773,-12.2855 L 31.1044,-12.2107 L 30.927,-12.1468 L 30.7461,-12.0942
 L 30.5621,-12.0531 L 30.376,-12.0237 L 30.1884,-12.0059 L 30,-12 z
M 104.812,-12.0059 L 104.624,-12.0237 L 104.438,-12.0531 L 104.254,-12.0942 L 104.073,-12.1468 L 103.896,-12.2107
 L 103.723,-12.2855 L 103.555,-12.3711 L 103.393,-12.467 L 103.237,-12.5729 L 103.088,-12.6884 L 102.946,-12.8131
 L 102.813,-12.9464 L 102.688,-13.0877 L 102.573,-13.2366 L 102.467,-13.3925 L 102.371,-13.5547 L 102.286,-13.7227
 L 102.211,-13.8956 L 102.147,-14.0729 L 102.094,-14.2539 L 102.053,-14.4379 L 102.024,-14.624 L 102.006,-14.8116
 L 102,-15 L 102.006,-15.1884 L 102.024,-15.376 L 102.053,-15.5621 L 102.094,-15.7461 L 102.147,-15.927
 L 102.211,-16.1044 L 102.286,-16.2773 L 102.371,-16.4453 L 102.467,-16.6075 L 102.573,-16.7634 L 102.688,-16.9123
 L 102.813,-17.0536 L 102.946,-17.1869 L 103.088,-17.3115 L 103.237,-17.427 L 103.393,-17.533 L 103.555,-17.6289
 L 103.723,-17.7145 L 103.896,-17.7893 L 104.073,-17.8532 L 104.254,-17.9057 L 104.438,-17.9469 L 104.624,-17.9763
 L 104.812,-17.9941 L 105,-18 L 105.188,-17.9941 L 105.376,-17.9763 L 105.562,-17.9469 L 105.746,-17.9057
 L 105.927,-17.8532 L 106.104,-17.7893 L 106.277,-17.7145 L 106.445,-17.6289 L 106.607,-17.533 L 106.763,-17.427
 L 106.912,-17.3115 L 107.054,-17.1869 L 107.187,-17.0536 L 107.312,-16.9123 L 107.427,-16.7634 L 107.533,-16.6075
 L 107.629,-16.4453 L 107.714,-16.2773 L 107.789,-16.1044 L 107.853,-15.927 L 107.906,-15.7461 L 107.947,-15.5621
 L 107.976,-15.376 L 107.994,-15.1884 L 108,-15 L 107.994,-14.8116 L 107.976,-14.624 L 107.947,-14.4379
 L 107.906,-14.2539 L 107.853,-14.0729 L 107.789,-13.8956 L 107.714,-13.7227 L 107.629,-13.5547 L 107.533,-13.3925
 L 107.427,-13.2366 L 107.312,-13.0877 L 107.187,-12.9464 L 107.054,-12.8131 L 106.912,-12.6884 L 106.763,-12.5729
 L 106.607,-12.467 L 106.445,-12.3711 L 106.277,-12.2855 L 106.104,-12.2107 L 105.927,-12.1468 L 105.746,-12.0942
 L 105.562,-12.0531 L 105.376,-12.0237 L 105.188,-12.0059 L 105,-12 z
M 14.8116,-12.0059 L 14.624,-12.0237 L 14.4379,-12.0531 L 14.2539,-12.0942 L 14.0729,-12.1468 L 13.8956,-12.2107
 L 13.7227,-12.2855 L 13.5547,-12.3711 L 13.3925,-12.467 L 13.2366,-12.5729 L 13.0877,-12.6884 L 12.9464,-12.8131
 L 12.8131,-12.9464 L 12.6884,-13.0877 L 12.5729,-13.2366 L 12.467,-13.3925 L 12.3711,-13.5547 L 12.2855,-13.7227
 L 12.2107,-13.8956 L 12.1468,-14.0729 L 12.0942,-14.2539 L 12.0531,-14.4379 L 12.0237,-14.624 L 12.0059,-14.8116
 L 12,-15 L 12.0059,-15.1884 L 12.0237,-15.376 L 12.0531,-15.5621 L 12.0942,-15.7461 L 12.1468,-15.927
 L 12.2107,-16.1044 L 12.2855,-16.2773 L 12.3711,-16.4453 L 12.467,-16.6075 L 12.5729,-16.7634 L 12.6884,-16.9123
 L 12.8131,-17.0536 L 12.9464,-17.1869 L 13.0877,-17.3115 L 13.2366,-17.427 L 13.3925,-17.533 L 13.5547,-17.6289
 L 13.7227,-17.7145 L 13.8956,-17.7893 L 14.0729,-17.8532 L 14.2539,-17.9057 L 14.4379,-17.9469 L 14.624,-17.9763
 L 14.8116,-17.9941 L 15,-18 L 15.1884,-17.9941 L 15.376,-17.9763 L 15.5621,-17.9469 L 15.7461,-17.9057
 L 15.927,-17.8532 L 16.1044,-17.7893 L 16.2773,-17.7145 L 16.4453,-17.6289 L 16.6075,-17.533 L 16.7634,-17.427
 L 16.9123,-17.3115 L 17.0536,-17.1869 L 17.1869,-17.0536 L 17.3115,-16.9123 L 17.427,-16.7634 L 17.533,-16.6075
 L 17.6289,-16.4453 L 17.7145,-16.2773 L 17.7893,-16.1044 L 17.8532,-15.927 L 17.9057,-15.7461 L 17.9469,-15.5621
 L 17.9763,-15.376 L 17.9941,-15.1884 L 18,-15 L 17.9941,-14.8116 L 17.9763,-14.624 L 17.9469,-14.4379
 L 17.9057,-14.2539 L 17.8532,-14.0729 L 17.7893,-13.8956 L 17.7145,-13.7227 L 17.6289,-13.5547 L 17.533,-13.3925
 L 17.427,-13.2366 L 17.3115,-13.0877 L 17.1869,-12.9464 L 17.0536,-12.8131 L 16.9123,-12.6884 L 16.7634,-12.5729
 L 16.6075,-12.467 L 16.4453,-12.3711 L 16.2773,-12.2855 L 16.1044,-12.2107 L 15.927,-12.1468 L 15.7461,-12.0942
 L 15.5621,-12.0531 L 15.376,-12.0237 L 15.1884,-12.0059 L 15,-12 z
M 44.8116,-12.0059 L 44.624,-12.0237 L 44.4379,-12.0531 L 44.2539,-12.0942 L 44.0729,-12.1468 L 43.8956,-12.2107
 L 43.7227,-12.2855 L 43.5547,-12.3711 L 43.3925,-12.467 L 43.2366,-12.5729 L 43.0877,-12.6884 L 42.9464,-12.8131
 L 42.8131,-12.9464 L 42.6884,-13.0877 L 42.5729,-13.2366 L 42.467,-13.3925 L 42.3711,-13.5547 L 42.2855,-13.7227
 L 42.2107,-13.8956 L 42.1468,-14.0729 L 42.0942,-14.2539 L 42.0531,-14.4379 L 42.0237,-14.624 L 42.0059,-14.8116
 L 42,-15 L 42.0059,-15.1884 L 42.0237,-15.376 L 42.0531,-15.5621 L 42.0942,-15.7461 L 42.1468,-15.927
 L 42.2107,-16.1044 L 42.2855,-16.2773 L 42.3711,-16.4453 L 42.467,-16.6075 L 42.5729,-16.7634 L 42.6884,-16.9123
 L 42.8131,-17.0536 L 42.9464,-17.1869 L 43.0877,-17.3115 L 43.2366,-17.427 L 43.3925,-17.533 L 43.5547,-17.6289
 L 43.7227,-17.7145 L 43.8956,-17.7893 L 44.0729,-17.8532 L 44.2539,-17.9057 L 44.4379,-17.9469 L 44.624,-17.9763
 L 44.8116,-17.9941 L 45,-18 L 45.1884,-17.9941 L 45.376,-17.9763 L 45.5621,-17.9469 L 45.7461,-17.9057
 L 45.927,-17.8532 L 46.1044,-17.7893 L 46.2773,-17.7145 L 46.4453,-17.6289 L 46.6075,-17.533 L 46.7634,-17.427
 L 46.9123,-17.3115 L 47.0536,-17.1869 L 47.1869,-17.0536 L 47.3115,-16.9123 L 47.427,-16.7634 L 47.533,-16.6075
 L 47.6289,-16.4453 L 47.7145,-16.2773 L 47.7893,-16.1044 L 47.8532,-15.927 L 47.9057,-15.7461 L 47.9469,-15.5621
 L 47.9763,-15.376 L 47.9941,-15.1884 L 48,-15 L 47.9941,-14.8116 L 47.9763,-14.624 L 47.9469,-14.4379
 L 47.9057,-14.2539 L 47.8532,-14.0729 L 47.7893,-13.8956 L 47.7145,-13.7227 L 47.6289,-13.5547 L 47.533,-13.3925
 L 47.427,-13.2366 L 47.3115,-13.0877 L 47.1869,-12.9464 L 47.0536,-12.8131 L 46.9123,-12.6884 L 46.7634,-12.5729
 L 46.6075,-12.467 L 46.4453,-12.3711 L 46.2773,-12.2855 L 46.1044,-12.2107 L 45.927,-12.1468 L 45.7461,-12.0942
 L 45.5621,-12.0531 L 45.376,-12.0237 L 45.1884,-12.0059 L 45,-12 z
M 59.8116,-12.0059 L 59.624,-12.0237 L 59.4379,-12.0531 L 59.2539,-12.0942 L 59.0729,-12.1468 L 58.8956,-12.2107
 L 58.7227,-12.2855 L 58.5547,-12.3711 L 58.3925,-12.467 L 58.2366,-12.5729 L 58.0877,-12.6884 L 57.9464,-12.8131
 L 57.8131,-12.9464 L 57.6884,-13.0877 L 57.5729,-13.2366 L 57.467,-13.3925 L 57.3711,-13.5547 L 57.2855,-13.7227
 L 57.2107,-13.8956 L 57.1468,-14.0729 L 57.0942,-14.2539 L 57.0531,-14.4379 L 57.0237,-14.624 L 57.0059,-14.8116
 L 57,-15 L 57.0059,-15.1884 L 57.0237,-15.376 L 57.0531,-15.5621 L 57.0942,-15.7461 L 57.1468,-15.927
 L 57.2107,-16.1044 L 57.2855,-16.2773 L 57.3711,-16.4453 L 57.467,-16.6075 L 57.5729,-16.7634 L 57.6884,-16.9123
 L 57.8131,-17.0536 L 57.9464,-17.1869 L 58.0877,-17.3115 L 58.2366,-17.427 L 58.3925,-17.533 L 58.5547,-17.6289
 L 58.7227,-17.7145 L 58.8956,-17.7893 L 59.0729,-17.8532 L 59.2539,-17.9057 L 59.4379,-17.9469 L 59.624,-17.9763
 L 59.8116,-17.9941 L 60,-18 L 60.1884,-17.9941 L 60.376,-17.9763 L 60.5621,-17.9469 L 60.7461,-17.9057
 L 60.927,-17.8532 L 61.1044,-17.7893 L 61.2773,-17.7145 L 61.4453,-17.6289 L 61.6075,-17.533 L 61.7634,-17.427
 L 61.9123,-17.3115 L 62.0536,-17.1869 L 62.1869,-17.0536 L 62.3115,-16.9123 L 62.427,-16.7634 L 62.533,-16.6075
 L 62.6289,-16.4453 L 62.7145,-16.2773 L 62.7893,-16.1044 L 62.8532,-15.927 L 62.9057,-15.7461 L 62.9469,-15.5621
 L 62.9763,-15.376 L 62.9941,-15.1884 L 63,-15 L 62.9941,-14.8116 L 62.9763,-14.624 L 62.9469,-14.4379
 L 62.9057,-14.2539 L 62.8532,-14.0729 L 62.7893,-13.8956 L 62.7145,-13.7227 L 62.6289,-13.5547 L 62.533,-13.3925
 L 62.427,-13.2366 L 62.3115,-13.0877 L 62.1869,-12.9464 L 62.0536,-12.8131 L 61.9123,-12.6884 L 61.7634,-12.5729
 L 61.6075,-12.467 L 61.4453,-12.3711 L 61.2773,-12.2855 L 61.1044,-12.2107 L 60.927,-12.1468 L 60.7461,-12.0942
 L 60.5621,-12.0531 L 60.376,-12.0237 L 60.1884,-12.0059 L 60,-12 z
M 74.8116,-12.0059 L 74.624,-12.0237 L 74.4379,-12.0531 L 74.2539,-12.0942 L 74.0729,-12.1468 L 73.8956,-12.2107
 L 73.7227,-12.2855 L 73.5547,-12.3711 L 73.3925,-12.467 L 73.2366,-12.5729 L 73.0877,-12.6884 L 72.9464,-12.8131
 L 72.8131,-12.9464 L 72.6884,-13.0877 L 72.5729,-13.2366 L 72.467,-13.3925 L 72.3711,-13.5547 L 72.2855,-13.7227
 L 72.2107,-13.8956 L 72.1468,-14.0729 L 72.0942,-14.2539 L 72.0531,-14.4379 L 72.0237,-14.624 L 72.0059,-14.8116
 L 72,-15 L 72.0059,-15.1884 L 72.0237,-15.376 L 72.0531,-15.5621 L 72.0942,-15.7461 L 72.1468,-15.927
 L 72.2107,-16.1044 L 72.2855,-16.2773 L 72.3711,-16.4453 L 72.467,-16.6075 L 72.5729,-16.7634 L 72.6884,-16.9123
 L 72.8131,-17.0536 L 72.9464,-17.1869 L 73.0877,-17.3115 L 73.2366,-17.427 L 73.3925,-17.533 L 73.5547,-17.6289
 L 73.7227,-17.7145 L 73.8956,-17.7893 L 74.0729,-17.8532 L 74.2539,-17.9057 L 74.4379,-17.9469 L 74.624,-17.9763
 L 74.8116,-17.9941 L 75,-18 L 75.1884,-17.9941 L 75.376,-17.9763 L 75.5621,-17.9469 L 75.7461,-17.9057
 L 75.927,-17.8532 L 76.1044,-17.7893 L 76.2773,-17.7145 L 76.4453,-17.6289 L 76.6075,-17.533 L 76.7634,-17.427
 L 76.9123,-17.3115 L 77.0536,-17.1869 L 77.1869,-17.0536 L 77.3115,-16.9123 L 77.427,-16.7634 L 77.533,-16.6075
 L 77.6289,-16.4453 L 77.7145,-16.2773 L 77.7893,-16.1044 L 77.8532,-15.927 L 77.9057,-15.7461 L 77.9469,-15.5621
 L 77.9763,-15.376 L 77.9941,-15.1884 L 78,-15 L 77.9941,-14.8116 L 77.9763,-14.624 L 77.9469,-14.4379
 L 77.9057,-14.2539 L 77.8532,-14.0729 L 77.7893,-13.8956 L 77.7145,-13.7227 L 77.6289,-13.5547 L 77.533,-13.3925
 L 77.427,-13.2366 L 77.3115,-13.0877 L 77.1869,-12.9464 L 77.0536,-12.8131 L 76.9123,-12.6884 L 76.7634,-12.5729
 L 76.6075,-12.467 L 76.4453,-12.3711 L 76.2773,-12.2855 L 76.1044,-12.2107 L 75.927,-12.1468 L 75.7461,-12.0942
 L 75.5621,-12.0531 L 75.376,-12.0237 L 75.1884,-12.0059 L 75,-12 z
M 119.812,-12.0059 L 119.624,-12.0237 L 119.438,-12.0531 L 119.254,-12.0942 L 119.073,-12.1468 L 118.896,-12.2107
 L 118.723,-12.2855 L 118.555,-12.3711 L 118.393,-12.467 L 118.237,-12.5729 L 118.088,-12.6884 L 117.946,-12.8131
 L 117.813,-12.9464 L 117.688,-13.0877 L 117.573,-13.2366 L 117.467,-13.3925 L 117.371,-13.5547 L 117.286,-13.7227
 L 117.211,-13.8956 L 117.147,-14.0729 L 117.094,-14.2539 L 117.053,-14.4379 L 117.024,-14.624 L 117.006,-14.8116
 L 117,-15 L 117.006,-15.1884 L 117.024,-15.376 L 117.053,-15.5621 L 117.094,-15.7461 L 117.147,-15.927
 L 117.211,-16.1044 L 117.286,-16.2773 L 117.371,-16.4453 L 117.467,-16.6075 L 117.573,-16.7634 L 117.688,-16.9123
 L 117.813,-17.0536 L 117.946,-17.1869 L 118.088,-17.3115 L 118.237,-17.427 L 118.393,-17.533 L 118.555,-17.6289
 L 118.723,-17.7145 L 118.896,-17.7893 L 119.073,-17.8532 L 119.254,-17.9057 L 119.438,-17.9469 L 119.624,-17.9763
 L 119.812,-17.9941 L 120,-18 L 120.188,-17.9941 L 120.376,-17.9763 L 120.562,-17.9469 L 120.746,-17.9057
 L 120.927,-17.8532 L 121.104,-17.7893 L 121.277,-17.7145 L 121.445,-17.6289 L 121.607,-17.533 L 121.763,-17.427
 L 121.912,-17.3115 L 122.054,-17.1869 L 122.187,-17.0536 L 122.312,-16.9123 L 122.427,-16.7634 L 122.533,-16.6075
 L 122.629,-16.4453 L 122.714,-16.2773 L 122.789,-16.1044 L 122.853,-15.927 L 122.906,-15.7461 L 122.947,-15.5621
 L 122.976,-15.376 L 122.994,-15.1884 L 123,-15 L 122.994,-14.8116 L 122.976,-14.624 L 122.947,-14.4379
 L 122.906,-14.2539 L 122.853,-14.0729 L 122.789,-13.8956 L 122.714,-13.7227 L 122.629,-13.5547 L 122.533,-13.3925
 L 122.427,-13.2366 L 122.312,-13.0877 L 122.187,-12.9464 L 122.054,-12.8131 L 121.912,-12.6884 L 121.763,-12.5729
 L 121.607,-12.467 L 121.445,-12.3711 L 121.277,-12.2855 L 121.104,-12.2107 L 120.927,-12.1468 L 120.746,-12.0942
 L 120.562,-12.0531 L 120.376,-12.0237 L 120.188,-12.0059 L 120,-12 z
M 134.812,-12.0059 L 134.624,-12.0237 L 134.438,-12.0531 L 134.254,-12.0942 L 134.073,-12.1468 L 133.896,-12.2107
 L 133.723,-12.2855 L 133.555,-12.3711 L 133.393,-12.467 L 133.237,-12.5729 L 133.088,-12.6884 L 132.946,-12.8131
 L 132.813,-12.9464 L 132.688,-13.0877 L 132.573,-13.2366 L 132.467,-13.3925 L 132.371,-13.5547 L 132.286,-13.7227
 L 132.211,-13.8956 L 132.147,-14.0729 L 132.094,-14.2539 L 132.053,-14.4379 L 132.024,-14.624 L 132.006,-14.8116
 L 132,-15 L 132.006,-15.1884 L 132.024,-15.376 L 132.053,-15.5621 L 132.094,-15.7461 L 132.147,-15.927
 L 132.211,-16.1044 L 132.286,-16.2773 L 132.371,-16.4453 L 132.467,-16.6075 L 132.573,-16.7634 L 132.688,-16.9123
 L 132.813,-17.0536 L 132.946,-17.1869 L 133.088,-17.3115 L 133.237,-17.427 L 133.393,-17.533 L 133.555,-17.6289
 L 133.723,-17.7145 L 133.896,-17.7893 L 134.073,-17.8532 L 134.254,-17.9057 L 134.438,-17.9469 L 134.624,-17.9763
 L 134.812,-17.9941 L 135,-18 L 135.188,-17.9941 L 135.376,-17.9763 L 135.562,-17.9469 L 135.746,-17.9057
 L 135.927,-17.8532 L 136.104,-17.7893 L 136.277,-17.7145 L 136.445,-17.6289 L 136.607,-17.533 L 136.763,-17.427
 L 136.912,-17.3115 L 137.054,-17.1869 L 137.187,-17.0536 L 137.312,-16.9123 L 137.427,-16.7634 L 137.533,-16.6075
 L 137.629,-16.4453 L 137.714,-16.2773 L 137.789,-16.1044 L 137.853,-15.927 L 137.906,-15.7461 L 137.947,-15.5621
 L 137.976,-15.376 L 137.994,-15.1884 L 138,-15 L 137.994,-14.8116 L 137.976,-14.624 L 137.947,-14.4379
 L 137.906,-14.2539 L 137.853,-14.0729 L 137.789,-13.8956 L 137.714,-13.7227 L 137.629,-13.5547 L 137.533,-13.3925
 L 137.427,-13.2366 L 137.312,-13.0877 L 137.187,-12.9464 L 137.054,-12.8131 L 136.912,-12.6884 L 136.763,-12.5729
 L 136.607,-12.467 L 136.445,-12.3711 L 136.277,-12.2855 L 136.104,-12.2107 L 135.927,-12.1468 L 135.746,-12.0942
 L 135.562,-12.0531 L 135.376,-12.0237 L 135.188,-12.0059 L 135,-12 z
M 149.812,-12.0059 L 149.624,-12.0237 L 149.438,-12.0531 L 149.254,-12.0942 L 149.073,-12.1468 L 148.896,-12.2107
 L 148.723,-12.2855 L 148.555,-12.3711 L 148.393,-12.467 L 148.237,-12.5729 L 148.088,-12.6884 L 147.946,-12.8131
 L 147.813,-12.9464 L 147.688,-13.0877 L 147.573,-13.2366 L 147.467,-13.3925 L 147.371,-13.5547 L 147.286,-13.7227
 L 147.211,-13.8956 L 147.147,-14.0729 L 147.094,-14.2539 L 147.053,-14.4379 L 147.024,-14.624 L 147.006,-14.8116
 L 147,-15 L 147.006,-15.1884 L 147.024,-15.376 L 147.053,-15.5621 L 147.094,-15.7461 L 147.147,-15.927
 L 147.211,-16.1044 L 147.286,-16.2773 L 147.371,-16.4453 L 147.467,-16.6075 L 147.573,-16.7634 L 147.688,-16.9123
 L 147.813,-17.0536 L 147.946,-17.1869 L 148.088,-17.3115 L 148.237,-17.427 L 148.393,-17.533 L 148.555,-17.6289
 L 148.723,-17.7145 L 148.896,-17.7893 L 149.073,-17.8532 L 149.254,-17.9057 L 149.438,-17.9469 L 149.624,-17.9763
 L 149.812,-17.9941 L 150,-18 L 150.188,-17.9941 L 150.376,-17.9763 L 150.562,-17.9469 L 150.746,-17.9057
 L 150.927,-17.8532 L 151.104,-17.7893 L 151.277,-17.7145 L 151.445,-17.6289 L 151.607,-17.533 L 151.763,-17.427
 L 151.912,-17.3115 L 152.054,-17.1869 L 152.187,-17.0536 L 152.312,-16.9123 L 152.427,-16.7634 L 152.533,-16.6075
 L 152.629,-16.4453 L 152.714,-16.2773 L 152.789,-16.1044 L 152.853,-15.927 L 152.906,-15.7461 L 152.947,-15.5621
 L 152.976,-15.376 L 152.994,-15.1884 L 153,-15 L 152.994,-14.8116 L 152.976,-14.624 L 152.947,-14.4379
 L 152.906,-14.2539 L 152.853,-14.0729 L 152.789,-13.8956 L 152.714,-13.7227 L 152.629,-13.5547 L 152.533,-13.3925
 L 152.427,-13.2366 L 152.312,-13.0877 L 152.187,-12.9464 L 152.054,-12.8131 L 151.912,-12.6884 L 151.763,-12.5729
 L 151.607,-12.467 L 151.445,-12.3711 L 151.277,-12.2855 L 151.104,-12.2107 L 150.927,-12.1468 L 150.746,-12.0942
 L 150.562,-12.0531 L 150.376,-12.0237 L 150.188,-12.0059 L 150,-12 z
M 164.812,-12.0059 L 164.624,-12.0237 L 164.438,-12.0531 L 164.254,-12.0942 L 164.073,-12.1468 L 163.896,-12.2107
 L 163.723,-12.2855 L 163.555,-12.3711 L 163.393,-12.467 L 163.237,-12.5729 L 163.088,-12.6884 L 162.946,-12.8131
 L 162.813,-12.9464 L 162.688,-13.0877 L 162.573,-13.2366 L 162.467,-13.3925 L 162.371,-13.5547 L 162.286,-13.7227
 L 162.211,-13.8956 L 162.147,-14.0729 L 162.094,-14.2539 L 162.053,-14.4379 L 162.024,-14.624 L 162.006,-14.8116
 L 162,-15 L 162.006,-15.1884 L 162.024,-15.376 L 162.053,-15.5621 L 162.094,-15.7461 L 162.147,-15.927
 L 162.211,-16.1044 L 162.286,-16.2773 L 162.371,-16.4453 L 162.467,-16.6075 L 162.573,-16.7634 L 162.688,-16.9123
 L 162.813,-17.0536 L 162.946,-17.1869 L 163.088,-17.3115 L 163.237,-17.427 L 163.393,-17.533 L 163.555,-17.6289
 L 163.723,-17.7145 L 163.896,-17.7893 L 164.073,-17.8532 L 164.254,-17.9057 L 164.438,-17.9469 L 164.624,-17.9763
 L 164.812,-17.9941 L 165,-18 L 165.188,-17.9941 L 165.376,-17.9763 L 165.562,-17.9469 L 165.746,-17.9057
 L 165.927,-17.8532 L 166.104,-17.7893 L 166.277,-17.7145 L 166.445,-17.6289 L 166.607,-17.533 L 166.763,-17.427
 L 166.912,-17.3115 L 167.054,-17.1869 L 167.187,-17.0536 L 167.312,-16.9123 L 167.427,-16.7634 L 167.533,-16.6075
 L 167.629,-16.4453 L 167.714,-16.2773 L 167.789,-16.1044 L 167.853,-15.927 L 167.906,-15.7461 L 167.947,-15.5621
 L 167.976,-15.376 L 167.994,-15.1884 L 168,-15 L 167.994,-14.8116 L 167.976,-14.624 L 167.947,-14.4379
 L 167.906,-14.2539 L 167.853,-14.0729 L 167.789,-13.8956 L 167.714,-13.7227 L 167.629,-13.5547 L 167.533,-13.3925
 L 167.427,-13.2366 L 167.312,-13.0877 L 167.187,-12.9464 L 167.054,-12.8131 L 166.912,-12.6884 L 166.763,-12.5729
 L 166.607,-12.467 L 166.445,-12.3711 L 166.277,-12.2855 L 166.104,-12.2107 L 165.927,-12.1468 L 165.746,-12.0942
 L 165.562,-12.0531 L 165.376,-12.0237 L 165.188,-12.0059 L 165,-12 z
M 179.812,-12.0059 L 179.624,-12.0237 L 179.438,-12.0531 L 179.254,-12.0942 L 179.073,-12.1468 L 178.896,-12.2107
 L 178.723,-12.2855 L 178.555,-12.3711 L 178.393,-12.467 L 178.237,-12.5729 L 178.088,-12.6884 L 177.946,-12.8131
 L 177.813,-12.9464 L 177.688,-13.0877 L 177.573,-13.2366 L 177.467,-13.3925 L 177.371,-13.5547 L 177.286,-13.7227
 L 177.211,-13.8956 L 177.147,-14.0729 L 177.094,-14.2539 L 177.053,-14.4379 L 177.024,-14.624 L 177.006,-14.8116
 L 177,-15 L 177.006,-15.1884 L 177.024,-15.376 L 177.053,-15.5621 L 177.094,-15.7461 L 177.147,-15.927
 L 177.211,-16.1044 L 177.286,-16.2773 L 177.371,-16.4453 L 177.467,-16.6075 L 177.573,-16.7634 L 177.688,-16.9123
 L 177.813,-17.0536 L 177.946,-17.1869 L 178.088,-17.3115 L 178.237,-17.427 L 178.393,-17.533 L 178.555,-17.6289
 L 178.723,-17.7145 L 178.896,-17.7893 L 179.073,-17.8532 L 179.254,-17.9057 L 179.438,-17.9469 L 179.624,-17.9763
 L 179.812,-17.9941 L 180,-18 L 180.188,-17.9941 L 180.376,-17.9763 L 180.562,-17.9469 L 180.746,-17.9057
 L 180.927,-17.8532 L 181.104,-17.7893 L 181.277,-17.7145 L 181.445,-17.6289 L 181.607,-17.533 L 181.763,-17.427
 L 181.912,-17.3115 L 182.054,-17.1869 L 182.187,-17.0536 L 182.312,-16.9123 L 182.427,-16.7634 L 182.533,-16.6075
 L 182.629,-16.4453 L 182.714,-16.2773 L 182.789,-16.1044 L 182.853,-15.927 L 182.906,-15.7461 L 182.947,-15.5621
 L 182.976,-15.376 L 182.994,-15.1884 L 183,-15 L 182.994,-14.8116 L 182.976,-14.624 L 182.947,-14.4379
 L 182.906,-14.2539 L 182.853,-14.0729 L 182.789,-13.8956 L 182.714,-13.7227 L 182.629,-13.5547 L 182.533,-13.3925
 L 182.427,-13.2366 L 182.312,-13.0877 L 182.187,-12.9464 L 182.054,-12.8131 L 181.912,-12.6884 L 181.763,-12.5729
 L 181.607,-12.467 L 181.445,-12.3711 L 181.277,-12.2855 L 181.104,-12.2107 L 180.927,-12.1468 L 180.746,-12.0942
 L 180.562,-12.0531 L 180.376,-12.0237 L 180.188,-12.0059 L 180,-12 z
M 89.8116,-12.0059 L 89.624,-12.0237 L 89.4379,-12.0531 L 89.2539,-12.0942 L 89.0729,-12.1468 L 88.8956,-12.2107
 L 88.7227,-12.2855 L 88.5547,-12.3711 L 88.3925,-12.467 L 88.2366,-12.5729 L 88.0877,-12.6884 L 87.9464,-12.8131
 L 87.8131,-12.9464 L 87.6884,-13.0877 L 87.5729,-13.2366 L 87.467,-13.3925 L 87.3711,-13.5547 L 87.2855,-13.7227
 L 87.2107,-13.8956 L 87.1468,-14.0729 L 87.0942,-14.2539 L 87.0531,-14.4379 L 87.0237,-14.624 L 87.0059,-14.8116
 L 87,-15 L 87.0059,-15.1884 L 87.0237,-15.376 L 87.0531,-15.5621 L 87.0942,-15.7461 L 87.1468,-15.927
 L 87.2107,-16.1044 L 87.2855,-16.2773 L 87.3711,-16.4453 L 87.467,-16.6075 L 87.5729,-16.7634 L 87.6884,-16.9123
 L 87.8131,-17.0536 L 87.9464,-17.1869 L 88.0877,-17.3115 L 88.2366,-17.427 L 88.3925,-17.533 L 88.5547,-17.6289
 L 88.7227,-17.7145 L 88.8956,-17.7893 L 89.0729,-17.8532 L 89.2539,-17.9057 L 89.4379,-17.9469 L 89.624,-17.9763
 L 89.8116,-17.9941 L 90,-18 L 90.1884,-17.9941 L 90.376,-17.9763 L 90.5621,-17.9469 L 90.7461,-17.9057
 L 90.927,-17.8532 L 91.1044,-17.7893 L 91.2773,-17.7145 L 91.4453,-17.6289 L 91.6075,-17.533 L 91.7634,-17.427
 L 91.9123,-17.3115 L 92.0536,-17.1869 L 92.1869,-17.0536 L 92.3115,-16.9123 L 92.427,-16.7634 L 92.533,-16.6075
 L 92.6289,-16.4453 L 92.7145,-16.2773 L 92.7893,-16.1044 L 92.8532,-15.927 L 92.9057,-15.7461 L 92.9469,-15.5621
 L 92.9763,-15.376 L 92.9941,-15.1884 L 93,-15 L 92.9941,-14.8116 L 92.9763,-14.624 L 92.9469,-14.4379
 L 92.9057,-14.2539 L 92.8532,-14.0729 L 92.7893,-13.8956 L 92.7145,-13.7227 L 92.6289,-13.5547 L 92.533,-13.3925
 L 92.427,-13.2366 L 92.3115,-13.0877 L 92.1869,-12.9464 L 92.0536,-12.8131 L 91.9123,-12.6884 L 91.7634,-12.5729
 L 91.6075,-12.467 L 91.4453,-12.3711 L 91.2773,-12.2855 L 91.1044,-12.2107 L 90.927,-12.1468 L 90.7461,-12.0942
 L 90.5621,-12.0531 L 90.376,-12.0237 L 90.1884,-12.0059 L 90,-12 z
M 21,-13.5 L 21,-16.5 L 24,-16.5 L 24,-13.5 z
M 36,-13.5 L 36,-16.5 L 39,-16.5 L 39,-13.5 z
M 51,-13.5 L 51,-16.5 L 54,-16.5 L 54,-13.5 z
M 66,-13.5 L 66,-16.5 L 69,-16.5 L 69,-13.5 z
M 81,-13.5 L 81,-16.5 L 84,-16.5 L 84,-13.5 z
M 96,-13.5 L 96,-16.5 L 99,-16.5 L 99,-13.5 z
M 111,-13.5 L 111,-16.5 L 114,-16.5 L 114,-13.5 z
M 126,-13.5 L 126,-16.5 L 129,-16.5 L 129,-13.5 z
M 141,-13.5 L 141,-16.5 L 144,-16.5 L 144,-13.5 z
M 156,-13.5 L 156,-16.5 L 159,-16.5 L 159,-13.5 z
M 171,-13.5 L 171,-16.5 L 174,-16.5 L 174,-13.5 z
" stroke="black" fill="lightgray" stroke-width="0.5"/>
</svg>
