  0
SECTION
  2
BLOCKS
  0
ENDSEC
  0
SECTION
  2
ENTITIES
  0
LINE
  8
0
 10
2.74104
 20
-20.8203
 11
5.4352
 21
-20.2844
  0
LINE
  8
0
 10
5.4352
 20
-20.2844
 11
8.03635
 21
-19.4015
  0
LINE
  8
0
 10
8.03635
 20
-19.4015
 11
10.5
 21
-18.1865
  0
LINE
  8
0
 10
10.5
 20
-18.1865
 11
12.784
 21
-16.6604
  0
LINE
  8
0
 10
12.784
 20
-16.6604
 11
14.8492
 21
-14.8492
  0
LINE
  8
0
 10
14.8492
 20
-14.8492
 11
16.6604
 21
-12.784
  0
LINE
  8
0
 10
16.6604
 20
-12.784
 11
18.1865
 21
-10.5
  0
LINE
  8
0
 10
18.1865
 20
-10.5
 11
19.4015
 21
-8.03635
  0
LINE
  8
0
 10
19.4015
 20
-8.03635
 11
20.2844
 21
-5.4352
  0
LINE
  8
0
 10
20.2844
 20
-5.4352
 11
20.8203
 21
-2.74104
  0
LINE
  8
0
 10
20.8203
 20
-2.74104
 11
21
 21
0
  0
LINE
  8
0
 10
21
 20
0
 11
20.8203
 21
2.74104
  0
LINE
  8
0
 10
20.8203
 20
2.74104
 11
20.2844
 21
5.4352
  0
LINE
  8
0
 10
20.2844
 20
5.4352
 11
19.4015
 21
8.03635
  0
LINE
  8
0
 10
19.4015
 20
8.03635
 11
18.1865
 21
10.5
  0
LINE
  8
0
 10
18.1865
 20
10.5
 11
16.6604
 21
12.784
  0
LINE
  8
0
 10
16.6604
 20
12.784
 11
14.8492
 21
14.8492
  0
LINE
  8
0
 10
14.8492
 20
14.8492
 11
12.784
 21
16.6604
  0
LINE
  8
0
 10
12.784
 20
16.6604
 11
10.5
 21
18.1865
  0
LINE
  8
0
 10
10.5
 20
18.1865
 11
8.03635
 21
19.4015
  0
LINE
  8
0
 10
8.03635
 20
19.4015
 11
5.4352
 21
20.2844
  0
LINE
  8
0
 10
5.4352
 20
20.2844
 11
2.74104
 21
20.8203
  0
LINE
  8
0
 10
2.74104
 20
20.8203
 11
0
 21
21
  0
LINE
  8
0
 10
0
 20
21
 11
-2.74104
 21
20.8203
  0
LINE
  8
0
 10
-2.74104
 20
20.8203
 11
-5.4352
 21
20.2844
  0
LINE
  8
0
 10
-5.4352
 20
20.2844
 11
-8.03635
 21
19.4015
  0
LINE
  8
0
 10
-8.03635
 20
19.4015
 11
-10.5
 21
18.1865
  0
LINE
  8
0
 10
-10.5
 20
18.1865
 11
-12.784
 21
16.6604
  0
LINE
  8
0
 10
-12.784
 20
16.6604
 11
-14.8492
 21
14.8492
  0
LINE
  8
0
 10
-14.8492
 20
14.8492
 11
-16.6604
 21
12.784
  0
LINE
  8
0
 10
-16.6604
 20
12.784
 11
-18.1865
 21
10.5
  0
LINE
  8
0
 10
-18.1865
 20
10.5
 11
-19.4015
 21
8.03635
  0
LINE
  8
0
 10
-19.4015
 20
8.03635
 11
-20.2844
 21
5.4352
  0
LINE
  8
0
 10
-20.2844
 20
5.4352
 11
-20.8203
 21
2.74104
  0
LINE
  8
0
 10
-20.8203
 20
2.74104
 11
-21
 21
0
  0
LINE
  8
0
 10
-21
 20
0
 11
-20.8203
 21
-2.74104
  0
LINE
  8
0
 10
-20.8203
 20
-2.74104
 11
-20.2844
 21
-5.4352
  0
LINE
  8
0
 10
-20.2844
 20
-5.4352
 11
-19.4015
 21
-8.03635
  0
LINE
  8
0
 10
-19.4015
 20
-8.03635
 11
-18.1865
 21
-10.5
  0
LINE
  8
0
 10
-18.1865
 20
-10.5
 11
-16.6604
 21
-12.784
  0
LINE
  8
0
 10
-16.6604
 20
-12.784
 11
-14.8492
 21
-14.8492
  0
LINE
  8
0
 10
-14.8492
 20
-14.8492
 11
-12.784
 21
-16.6604
  0
LINE
  8
0
 10
-12.784
 20
-16.6604
 11
-10.5
 21
-18.1865
  0
LINE
  8
0
 10
-10.5
 20
-18.1865
 11
-8.03635
 21
-19.4015
  0
LINE
  8
0
 10
-8.03635
 20
-19.4015
 11
-5.4352
 21
-20.2844
  0
LINE
  8
0
 10
-5.4352
 20
-20.2844
 11
-2.74104
 21
-20.8203
  0
LINE
  8
0
 10
-2.74104
 20
-20.8203
 11
0
 21
-21
  0
LINE
  8
0
 10
0
 20
-21
 11
2.74104
 21
-20.8203
  0
LINE
  8
0
 10
-0.42421
 20
11.7778
 11
-0.841156
 21
11.8607
  0
LINE
  8
0
 10
-0.841156
 20
11.8607
 11
-1.24371
 21
11.9974
  0
LINE
  8
0
 10
-1.24371
 20
11.9974
 11
-1.625
 21
12.1854
  0
LINE
  8
0
 10
-1.625
 20
12.1854
 11
-1.97847
 21
12.4216
  0
LINE
  8
0
 10
-1.97847
 20
12.4216
 11
-2.2981
 21
12.7019
  0
LINE
  8
0
 10
-2.2981
 20
12.7019
 11
-2.57838
 21
13.0215
  0
LINE
  8
0
 10
-2.57838
 20
13.0215
 11
-2.81458
 21
13.375
  0
LINE
  8
0
 10
-2.81458
 20
13.375
 11
-3.00259
 21
13.7563
  0
LINE
  8
0
 10
-3.00259
 20
13.7563
 11
-3.13925
 21
14.1588
  0
LINE
  8
0
 10
-3.13925
 20
14.1588
 11
-3.22218
 21
14.5758
  0
LINE
  8
0
 10
-3.22218
 20
14.5758
 11
-3.25
 21
15
  0
LINE
  8
0
 10
-3.25
 20
15
 11
-3.22218
 21
15.4242
  0
LINE
  8
0
 10
-3.22218
 20
15.4242
 11
-3.13925
 21
15.8412
  0
LINE
  8
0
 10
-3.13925
 20
15.8412
 11
-3.00259
 21
16.2437
  0
LINE
  8
0
 10
-3.00259
 20
16.2437
 11
-2.81458
 21
16.625
  0
LINE
  8
0
 10
-2.81458
 20
16.625
 11
-2.57838
 21
16.9785
  0
LINE
  8
0
 10
-2.57838
 20
16.9785
 11
-2.2981
 21
17.2981
  0
LINE
  8
0
 10
-2.2981
 20
17.2981
 11
-1.97847
 21
17.5784
  0
LINE
  8
0
 10
-1.97847
 20
17.5784
 11
-1.625
 21
17.8146
  0
LINE
  8
0
 10
-1.625
 20
17.8146
 11
-1.24371
 21
18.0026
  0
LINE
  8
0
 10
-1.24371
 20
18.0026
 11
-0.841156
 21
18.1393
  0
LINE
  8
0
 10
-0.841156
 20
18.1393
 11
-0.42421
 21
18.2222
  0
LINE
  8
0
 10
-0.42421
 20
18.2222
 11
0
 21
18.25
  0
LINE
  8
0
 10
0
 20
18.25
 11
0.42421
 21
18.2222
  0
LINE
  8
0
 10
0.42421
 20
18.2222
 11
0.841156
 21
18.1393
  0
LINE
  8
0
 10
0.841156
 20
18.1393
 11
1.24371
 21
18.0026
  0
LINE
  8
0
 10
1.24371
 20
18.0026
 11
1.625
 21
17.8146
  0
LINE
  8
0
 10
1.625
 20
17.8146
 11
1.97847
 21
17.5784
  0
LINE
  8
0
 10
1.97847
 20
17.5784
 11
2.2981
 21
17.2981
  0
LINE
  8
0
 10
2.2981
 20
17.2981
 11
2.57838
 21
16.9785
  0
LINE
  8
0
 10
2.57838
 20
16.9785
 11
2.81458
 21
16.625
  0
LINE
  8
0
 10
2.81458
 20
16.625
 11
3.00259
 21
16.2437
  0
LINE
  8
0
 10
3.00259
 20
16.2437
 11
3.13925
 21
15.8412
  0
LINE
  8
0
 10
3.13925
 20
15.8412
 11
3.22218
 21
15.4242
  0
LINE
  8
0
 10
3.22218
 20
15.4242
 11
3.25
 21
15
  0
LINE
  8
0
 10
3.25
 20
15
 11
3.22218
 21
14.5758
  0
LINE
  8
0
 10
3.22218
 20
14.5758
 11
3.13925
 21
14.1588
  0
LINE
  8
0
 10
3.13925
 20
14.1588
 11
3.00259
 21
13.7563
  0
LINE
  8
0
 10
3.00259
 20
13.7563
 11
2.81458
 21
13.375
  0
LINE
  8
0
 10
2.81458
 20
13.375
 11
2.57838
 21
13.0215
  0
LINE
  8
0
 10
2.57838
 20
13.0215
 11
2.2981
 21
12.7019
  0
LINE
  8
0
 10
2.2981
 20
12.7019
 11
1.97847
 21
12.4216
  0
LINE
  8
0
 10
1.97847
 20
12.4216
 11
1.625
 21
12.1854
  0
LINE
  8
0
 10
1.625
 20
12.1854
 11
1.24371
 21
11.9974
  0
LINE
  8
0
 10
1.24371
 20
11.9974
 11
0.841156
 21
11.8607
  0
LINE
  8
0
 10
0.841156
 20
11.8607
 11
0.42421
 21
11.7778
  0
LINE
  8
0
 10
0.42421
 20
11.7778
 11
0
 21
11.75
  0
LINE
  8
0
 10
0
 20
11.75
 11
-0.42421
 21
11.7778
  0
LINE
  8
0
 10
10.1828
 20
7.3848
 11
9.76582
 21
7.46773
  0
LINE
  8
0
 10
9.76582
 20
7.46773
 11
9.36327
 21
7.60439
  0
LINE
  8
0
 10
9.36327
 20
7.60439
 11
8.98199
 21
7.7924
  0
LINE
  8
0
 10
8.98199
 20
7.7924
 11
8.62852
 21
8.02859
  0
LINE
  8
0
 10
8.62852
 20
8.02859
 11
8.3089
 21
8.3089
  0
LINE
  8
0
 10
8.3089
 20
8.3089
 11
8.02859
 21
8.62852
  0
LINE
  8
0
 10
8.02859
 20
8.62852
 11
7.7924
 21
8.98199
  0
LINE
  8
0
 10
7.7924
 20
8.98199
 11
7.60439
 21
9.36327
  0
LINE
  8
0
 10
7.60439
 20
9.36327
 11
7.46773
 21
9.76582
  0
LINE
  8
0
 10
7.46773
 20
9.76582
 11
7.3848
 21
10.1828
  0
LINE
  8
0
 10
7.3848
 20
10.1828
 11
7.35699
 21
10.607
  0
LINE
  8
0
 10
7.35699
 20
10.607
 11
7.3848
 21
11.0312
  0
LINE
  8
0
 10
7.3848
 20
11.0312
 11
7.46773
 21
11.4482
  0
LINE
  8
0
 10
7.46773
 20
11.4482
 11
7.60439
 21
11.8507
  0
LINE
  8
0
 10
7.60439
 20
11.8507
 11
7.7924
 21
12.232
  0
LINE
  8
0
 10
7.7924
 20
12.232
 11
8.02859
 21
12.5855
  0
LINE
  8
0
 10
8.02859
 20
12.5855
 11
8.3089
 21
12.9051
  0
LINE
  8
0
 10
8.3089
 20
12.9051
 11
8.62852
 21
13.1854
  0
LINE
  8
0
 10
8.62852
 20
13.1854
 11
8.98199
 21
13.4216
  0
LINE
  8
0
 10
8.98199
 20
13.4216
 11
9.36327
 21
13.6096
  0
LINE
  8
0
 10
9.36327
 20
13.6096
 11
9.76582
 21
13.7462
  0
LINE
  8
0
 10
9.76582
 20
13.7462
 11
10.1828
 21
13.8292
  0
LINE
  8
0
 10
10.1828
 20
13.8292
 11
10.607
 21
13.857
  0
LINE
  8
0
 10
10.607
 20
13.857
 11
11.0312
 21
13.8292
  0
LINE
  8
0
 10
11.0312
 20
13.8292
 11
11.4482
 21
13.7462
  0
LINE
  8
0
 10
11.4482
 20
13.7462
 11
11.8507
 21
13.6096
  0
LINE
  8
0
 10
11.8507
 20
13.6096
 11
12.232
 21
13.4216
  0
LINE
  8
0
 10
12.232
 20
13.4216
 11
12.5855
 21
13.1854
  0
LINE
  8
0
 10
12.5855
 20
13.1854
 11
12.9051
 21
12.9051
  0
LINE
  8
0
 10
12.9051
 20
12.9051
 11
13.1854
 21
12.5855
  0
LINE
  8
0
 10
13.1854
 20
12.5855
 11
13.4216
 21
12.232
  0
LINE
  8
0
 10
13.4216
 20
12.232
 11
13.6096
 21
11.8507
  0
LINE
  8
0
 10
13.6096
 20
11.8507
 11
13.7462
 21
11.4482
  0
LINE
  8
0
 10
13.7462
 20
11.4482
 11
13.8292
 21
11.0312
  0
LINE
  8
0
 10
13.8292
 20
11.0312
 11
13.857
 21
10.607
  0
LINE
  8
0
 10
13.857
 20
10.607
 11
13.8292
 21
10.1828
  0
LINE
  8
0
 10
13.8292
 20
10.1828
 11
13.7462
 21
9.76582
  0
LINE
  8
0
 10
13.7462
 20
9.76582
 11
13.6096
 21
9.36327
  0
LINE
  8
0
 10
13.6096
 20
9.36327
 11
13.4216
 21
8.98199
  0
LINE
  8
0
 10
13.4216
 20
8.98199
 11
13.1854
 21
8.62852
  0
LINE
  8
0
 10
13.1854
 20
8.62852
 11
12.9051
 21
8.3089
  0
LINE
  8
0
 10
12.9051
 20
8.3089
 11
12.5855
 21
8.02859
  0
LINE
  8
0
 10
12.5855
 20
8.02859
 11
12.232
 21
7.7924
  0
LINE
  8
0
 10
12.232
 20
7.7924
 11
11.8507
 21
7.60439
  0
LINE
  8
0
 10
11.8507
 20
7.60439
 11
11.4482
 21
7.46773
  0
LINE
  8
0
 10
11.4482
 20
7.46773
 11
11.0312
 21
7.3848
  0
LINE
  8
0
 10
11.0312
 20
7.3848
 11
10.607
 21
7.35699
  0
LINE
  8
0
 10
10.607
 20
7.35699
 11
10.1828
 21
7.3848
  0
LINE
  8
0
 10
-11.0312
 20
7.3848
 11
-11.4482
 21
7.46773
  0
LINE
  8
0
 10
-11.4482
 20
7.46773
 11
-11.8507
 21
7.60439
  0
LINE
  8
0
 10
-11.8507
 20
7.60439
 11
-12.232
 21
7.7924
  0
LINE
  8
0
 10
-12.232
 20
7.7924
 11
-12.5855
 21
8.02859
  0
LINE
  8
0
 10
-12.5855
 20
8.02859
 11
-12.9051
 21
8.3089
  0
LINE
  8
0
 10
-12.9051
 20
8.3089
 11
-13.1854
 21
8.62852
  0
LINE
  8
0
 10
-13.1854
 20
8.62852
 11
-13.4216
 21
8.98199
  0
LINE
  8
0
 10
-13.4216
 20
8.98199
 11
-13.6096
 21
9.36327
  0
LINE
  8
0
 10
-13.6096
 20
9.36327
 11
-13.7462
 21
9.76582
  0
LINE
  8
0
 10
-13.7462
 20
9.76582
 11
-13.8292
 21
10.1828
  0
LINE
  8
0
 10
-13.8292
 20
10.1828
 11
-13.857
 21
10.607
  0
LINE
  8
0
 10
-13.857
 20
10.607
 11
-13.8292
 21
11.0312
  0
LINE
  8
0
 10
-13.8292
 20
11.0312
 11
-13.7462
 21
11.4482
  0
LINE
  8
0
 10
-13.7462
 20
11.4482
 11
-13.6096
 21
11.8507
  0
LINE
  8
0
 10
-13.6096
 20
11.8507
 11
-13.4216
 21
12.232
  0
LINE
  8
0
 10
-13.4216
 20
12.232
 11
-13.1854
 21
12.5855
  0
LINE
  8
0
 10
-13.1854
 20
12.5855
 11
-12.9051
 21
12.9051
  0
LINE
  8
0
 10
-12.9051
 20
12.9051
 11
-12.5855
 21
13.1854
  0
LINE
  8
0
 10
-12.5855
 20
13.1854
 11
-12.232
 21
13.4216
  0
LINE
  8
0
 10
-12.232
 20
13.4216
 11
-11.8507
 21
13.6096
  0
LINE
  8
0
 10
-11.8507
 20
13.6096
 11
-11.4482
 21
13.7462
  0
LINE
  8
0
 10
-11.4482
 20
13.7462
 11
-11.0312
 21
13.8292
  0
LINE
  8
0
 10
-11.0312
 20
13.8292
 11
-10.607
 21
13.857
  0
LINE
  8
0
 10
-10.607
 20
13.857
 11
-10.1828
 21
13.8292
  0
LINE
  8
0
 10
-10.1828
 20
13.8292
 11
-9.76582
 21
13.7462
  0
LINE
  8
0
 10
-9.76582
 20
13.7462
 11
-9.36327
 21
13.6096
  0
LINE
  8
0
 10
-9.36327
 20
13.6096
 11
-8.98199
 21
13.4216
  0
LINE
  8
0
 10
-8.98199
 20
13.4216
 11
-8.62852
 21
13.1854
  0
LINE
  8
0
 10
-8.62852
 20
13.1854
 11
-8.3089
 21
12.9051
  0
LINE
  8
0
 10
-8.3089
 20
12.9051
 11
-8.02859
 21
12.5855
  0
LINE
  8
0
 10
-8.02859
 20
12.5855
 11
-7.7924
 21
12.232
  0
LINE
  8
0
 10
-7.7924
 20
12.232
 11
-7.60439
 21
11.8507
  0
LINE
  8
0
 10
-7.60439
 20
11.8507
 11
-7.46773
 21
11.4482
  0
LINE
  8
0
 10
-7.46773
 20
11.4482
 11
-7.3848
 21
11.0312
  0
LINE
  8
0
 10
-7.3848
 20
11.0312
 11
-7.35699
 21
10.607
  0
LINE
  8
0
 10
-7.35699
 20
10.607
 11
-7.3848
 21
10.1828
  0
LINE
  8
0
 10
-7.3848
 20
10.1828
 11
-7.46773
 21
9.76582
  0
LINE
  8
0
 10
-7.46773
 20
9.76582
 11
-7.60439
 21
9.36327
  0
LINE
  8
0
 10
-7.60439
 20
9.36327
 11
-7.7924
 21
8.98199
  0
LINE
  8
0
 10
-7.7924
 20
8.98199
 11
-8.02859
 21
8.62852
  0
LINE
  8
0
 10
-8.02859
 20
8.62852
 11
-8.3089
 21
8.3089
  0
LINE
  8
0
 10
-8.3089
 20
8.3089
 11
-8.62852
 21
8.02859
  0
LINE
  8
0
 10
-8.62852
 20
8.02859
 11
-8.98199
 21
7.7924
  0
LINE
  8
0
 10
-8.98199
 20
7.7924
 11
-9.36327
 21
7.60439
  0
LINE
  8
0
 10
-9.36327
 20
7.60439
 11
-9.76582
 21
7.46773
  0
LINE
  8
0
 10
-9.76582
 20
7.46773
 11
-10.1828
 21
7.3848
  0
LINE
  8
0
 10
-10.1828
 20
7.3848
 11
-10.607
 21
7.35699
  0
LINE
  8
0
 10
-10.607
 20
7.35699
 11
-11.0312
 21
7.3848
  0
LINE
  8
0
 10
14.5758
 20
-3.22218
 11
14.1588
 21
-3.13925
  0
LINE
  8
0
 10
14.1588
 20
-3.13925
 11
13.7563
 21
-3.00259
  0
LINE
  8
0
 10
13.7563
 20
-3.00259
 11
13.375
 21
-2.81458
  0
LINE
  8
0
 10
13.375
 20
-2.81458
 11
13.0215
 21
-2.57838
  0
LINE
  8
0
 10
13.0215
 20
-2.57838
 11
12.7019
 21
-2.2981
  0
LINE
  8
0
 10
12.7019
 20
-2.2981
 11
12.4216
 21
-1.97847
  0
LINE
  8
0
 10
12.4216
 20
-1.97847
 11
12.1854
 21
-1.625
  0
LINE
  8
0
 10
12.1854
 20
-1.625
 11
11.9974
 21
-1.24371
  0
LINE
  8
0
 10
11.9974
 20
-1.24371
 11
11.8607
 21
-0.841156
  0
LINE
  8
0
 10
11.8607
 20
-0.841156
 11
11.7778
 21
-0.42421
  0
LINE
  8
0
 10
11.7778
 20
-0.42421
 11
11.75
 21
0
  0
LINE
  8
0
 10
11.75
 20
0
 11
11.7778
 21
0.42421
  0
LINE
  8
0
 10
11.7778
 20
0.42421
 11
11.8607
 21
0.841156
  0
LINE
  8
0
 10
11.8607
 20
0.841156
 11
11.9974
 21
1.24371
  0
LINE
  8
0
 10
11.9974
 20
1.24371
 11
12.1854
 21
1.625
  0
LINE
  8
0
 10
12.1854
 20
1.625
 11
12.4216
 21
1.97847
  0
LINE
  8
0
 10
12.4216
 20
1.97847
 11
12.7019
 21
2.2981
  0
LINE
  8
0
 10
12.7019
 20
2.2981
 11
13.0215
 21
2.57838
  0
LINE
  8
0
 10
13.0215
 20
2.57838
 11
13.375
 21
2.81458
  0
LINE
  8
0
 10
13.375
 20
2.81458
 11
13.7563
 21
3.00259
  0
LINE
  8
0
 10
13.7563
 20
3.00259
 11
14.1588
 21
3.13925
  0
LINE
  8
0
 10
14.1588
 20
3.13925
 11
14.5758
 21
3.22218
  0
LINE
  8
0
 10
14.5758
 20
3.22218
 11
15
 21
3.25
  0
LINE
  8
0
 10
15
 20
3.25
 11
15.4242
 21
3.22218
  0
LINE
  8
0
 10
15.4242
 20
3.22218
 11
15.8412
 21
3.13925
  0
LINE
  8
0
 10
15.8412
 20
3.13925
 11
16.2437
 21
3.00259
  0
LINE
  8
0
 10
16.2437
 20
3.00259
 11
16.625
 21
2.81458
  0
LINE
  8
0
 10
16.625
 20
2.81458
 11
16.9785
 21
2.57838
  0
LINE
  8
0
 10
16.9785
 20
2.57838
 11
17.2981
 21
2.2981
  0
LINE
  8
0
 10
17.2981
 20
2.2981
 11
17.5784
 21
1.97847
  0
LINE
  8
0
 10
17.5784
 20
1.97847
 11
17.8146
 21
1.625
  0
LINE
  8
0
 10
17.8146
 20
1.625
 11
18.0026
 21
1.24371
  0
LINE
  8
0
 10
18.0026
 20
1.24371
 11
18.1393
 21
0.841156
  0
LINE
  8
0
 10
18.1393
 20
0.841156
 11
18.2222
 21
0.42421
  0
LINE
  8
0
 10
18.2222
 20
0.42421
 11
18.25
 21
0
  0
LINE
  8
0
 10
18.25
 20
0
 11
18.2222
 21
-0.42421
  0
LINE
  8
0
 10
18.2222
 20
-0.42421
 11
18.1393
 21
-0.841156
  0
LINE
  8
0
 10
18.1393
 20
-0.841156
 11
18.0026
 21
-1.24371
  0
LINE
  8
0
 10
18.0026
 20
-1.24371
 11
17.8146
 21
-1.625
  0
LINE
  8
0
 10
17.8146
 20
-1.625
 11
17.5784
 21
-1.97847
  0
LINE
  8
0
 10
17.5784
 20
-1.97847
 11
17.2981
 21
-2.2981
  0
LINE
  8
0
 10
17.2981
 20
-2.2981
 11
16.9785
 21
-2.57838
  0
LINE
  8
0
 10
16.9785
 20
-2.57838
 11
16.625
 21
-2.81458
  0
LINE
  8
0
 10
16.625
 20
-2.81458
 11
16.2437
 21
-3.00259
  0
LINE
  8
0
 10
16.2437
 20
-3.00259
 11
15.8412
 21
-3.13925
  0
LINE
  8
0
 10
15.8412
 20
-3.13925
 11
15.4242
 21
-3.22218
  0
LINE
  8
0
 10
15.4242
 20
-3.22218
 11
15
 21
-3.25
  0
LINE
  8
0
 10
15
 20
-3.25
 11
14.5758
 21
-3.22218
  0
LINE
  8
0
 10
-15.4242
 20
-3.22218
 11
-15.8412
 21
-3.13925
  0
LINE
  8
0
 10
-15.8412
 20
-3.13925
 11
-16.2437
 21
-3.00259
  0
LINE
  8
0
 10
-16.2437
 20
-3.00259
 11
-16.625
 21
-2.81458
  0
LINE
  8
0
 10
-16.625
 20
-2.81458
 11
-16.9785
 21
-2.57838
  0
LINE
  8
0
 10
-16.9785
 20
-2.57838
 11
-17.2981
 21
-2.2981
  0
LINE
  8
0
 10
-17.2981
 20
-2.2981
 11
-17.5784
 21
-1.97847
  0
LINE
  8
0
 10
-17.5784
 20
-1.97847
 11
-17.8146
 21
-1.625
  0
LINE
  8
0
 10
-17.8146
 20
-1.625
 11
-18.0026
 21
-1.24371
  0
LINE
  8
0
 10
-18.0026
 20
-1.24371
 11
-18.1393
 21
-0.841156
  0
LINE
  8
0
 10
-18.1393
 20
-0.841156
 11
-18.2222
 21
-0.42421
  0
LINE
  8
0
 10
-18.2222
 20
-0.42421
 11
-18.25
 21
0
  0
LINE
  8
0
 10
-18.25
 20
0
 11
-18.2222
 21
0.42421
  0
LINE
  8
0
 10
-18.2222
 20
0.42421
 11
-18.1393
 21
0.841156
  0
LINE
  8
0
 10
-18.1393
 20
0.841156
 11
-18.0026
 21
1.24371
  0
LINE
  8
0
 10
-18.0026
 20
1.24371
 11
-17.8146
 21
1.625
  0
LINE
  8
0
 10
-17.8146
 20
1.625
 11
-17.5784
 21
1.97847
  0
LINE
  8
0
 10
-17.5784
 20
1.97847
 11
-17.2981
 21
2.2981
  0
LINE
  8
0
 10
-17.2981
 20
2.2981
 11
-16.9785
 21
2.57838
  0
LINE
  8
0
 10
-16.9785
 20
2.57838
 11
-16.625
 21
2.81458
  0
LINE
  8
0
 10
-16.625
 20
2.81458
 11
-16.2437
 21
3.00259
  0
LINE
  8
0
 10
-16.2437
 20
3.00259
 11
-15.8412
 21
3.13925
  0
LINE
  8
0
 10
-15.8412
 20
3.13925
 11
-15.4242
 21
3.22218
  0
LINE
  8
0
 10
-15.4242
 20
3.22218
 11
-15
 21
3.25
  0
LINE
  8
0
 10
-15
 20
3.25
 11
-14.5758
 21
3.22218
  0
LINE
  8
0
 10
-14.5758
 20
3.22218
 11
-14.1588
 21
3.13925
  0
LINE
  8
0
 10
-14.1588
 20
3.13925
 11
-13.7563
 21
3.00259
  0
LINE
  8
0
 10
-13.7563
 20
3.00259
 11
-13.375
 21
2.81458
  0
LINE
  8
0
 10
-13.375
 20
2.81458
 11
-13.0215
 21
2.57838
  0
LINE
  8
0
 10
-13.0215
 20
2.57838
 11
-12.7019
 21
2.2981
  0
LINE
  8
0
 10
-12.7019
 20
2.2981
 11
-12.4216
 21
1.97847
  0
LINE
  8
0
 10
-12.4216
 20
1.97847
 11
-12.1854
 21
1.625
  0
LINE
  8
0
 10
-12.1854
 20
1.625
 11
-11.9974
 21
1.24371
  0
LINE
  8
0
 10
-11.9974
 20
1.24371
 11
-11.8607
 21
0.841156
  0
LINE
  8
0
 10
-11.8607
 20
0.841156
 11
-11.7778
 21
0.42421
  0
LINE
  8
0
 10
-11.7778
 20
0.42421
 11
-11.75
 21
0
  0
LINE
  8
0
 10
-11.75
 20
0
 11
-11.7778
 21
-0.42421
  0
LINE
  8
0
 10
-11.7778
 20
-0.42421
 11
-11.8607
 21
-0.841156
  0
LINE
  8
0
 10
-11.8607
 20
-0.841156
 11
-11.9974
 21
-1.24371
  0
LINE
  8
0
 10
-11.9974
 20
-1.24371
 11
-12.1854
 21
-1.625
  0
LINE
  8
0
 10
-12.1854
 20
-1.625
 11
-12.4216
 21
-1.97847
  0
LINE
  8
0
 10
-12.4216
 20
-1.97847
 11
-12.7019
 21
-2.2981
  0
LINE
  8
0
 10
-12.7019
 20
-2.2981
 11
-13.0215
 21
-2.57838
  0
LINE
  8
0
 10
-13.0215
 20
-2.57838
 11
-13.375
 21
-2.81458
  0
LINE
  8
0
 10
-13.375
 20
-2.81458
 11
-13.7563
 21
-3.00259
  0
LINE
  8
0
 10
-13.7563
 20
-3.00259
 11
-14.1588
 21
-3.13925
  0
LINE
  8
0
 10
-14.1588
 20
-3.13925
 11
-14.5758
 21
-3.22218
  0
LINE
  8
0
 10
-14.5758
 20
-3.22218
 11
-15
 21
-3.25
  0
LINE
  8
0
 10
-15
 20
-3.25
 11
-15.4242
 21
-3.22218
  0
LINE
  8
0
 10
-0.42421
 20
-3.22218
 11
-0.841156
 21
-3.13925
  0
LINE
  8
0
 10
-0.841156
 20
-3.13925
 11
-1.24371
 21
-3.00259
  0
LINE
  8
0
 10
-1.24371
 20
-3.00259
 11
-1.625
 21
-2.81458
  0
LINE
  8
0
 10
-1.625
 20
-2.81458
 11
-1.97847
 21
-2.57838
  0
LINE
  8
0
 10
-1.97847
 20
-2.57838
 11
-2.2981
 21
-2.2981
  0
LINE
  8
0
 10
-2.2981
 20
-2.2981
 11
-2.57838
 21
-1.97847
  0
LINE
  8
0
 10
-2.57838
 20
-1.97847
 11
-2.81458
 21
-1.625
  0
LINE
  8
0
 10
-2.81458
 20
-1.625
 11
-3.00259
 21
-1.24371
  0
LINE
  8
0
 10
-3.00259
 20
-1.24371
 11
-3.13925
 21
-0.841156
  0
LINE
  8
0
 10
-3.13925
 20
-0.841156
 11
-3.22218
 21
-0.42421
  0
LINE
  8
0
 10
-3.22218
 20
-0.42421
 11
-3.25
 21
0
  0
LINE
  8
0
 10
-3.25
 20
0
 11
-3.22218
 21
0.42421
  0
LINE
  8
0
 10
-3.22218
 20
0.42421
 11
-3.13925
 21
0.841156
  0
LINE
  8
0
 10
-3.13925
 20
0.841156
 11
-3.00259
 21
1.24371
  0
LINE
  8
0
 10
-3.00259
 20
1.24371
 11
-2.81458
 21
1.625
  0
LINE
  8
0
 10
-2.81458
 20
1.625
 11
-2.57838
 21
1.97847
  0
LINE
  8
0
 10
-2.57838
 20
1.97847
 11
-2.2981
 21
2.2981
  0
LINE
  8
0
 10
-2.2981
 20
2.2981
 11
-1.97847
 21
2.57838
  0
LINE
  8
0
 10
-1.97847
 20
2.57838
 11
-1.625
 21
2.81458
  0
LINE
  8
0
 10
-1.625
 20
2.81458
 11
-1.24371
 21
3.00259
  0
LINE
  8
0
 10
-1.24371
 20
3.00259
 11
-0.841156
 21
3.13925
  0
LINE
  8
0
 10
-0.841156
 20
3.13925
 11
-0.42421
 21
3.22218
  0
LINE
  8
0
 10
-0.42421
 20
3.22218
 11
0
 21
3.25
  0
LINE
  8
0
 10
0
 20
3.25
 11
0.42421
 21
3.22218
  0
LINE
  8
0
 10
0.42421
 20
3.22218
 11
0.841156
 21
3.13925
  0
LINE
  8
0
 10
0.841156
 20
3.13925
 11
1.24371
 21
3.00259
  0
LINE
  8
0
 10
1.24371
 20
3.00259
 11
1.625
 21
2.81458
  0
LINE
  8
0
 10
1.625
 20
2.81458
 11
1.97847
 21
2.57838
  0
LINE
  8
0
 10
1.97847
 20
2.57838
 11
2.2981
 21
2.2981
  0
LINE
  8
0
 10
2.2981
 20
2.2981
 11
2.57838
 21
1.97847
  0
LINE
  8
0
 10
2.57838
 20
1.97847
 11
2.81458
 21
1.625
  0
LINE
  8
0
 10
2.81458
 20
1.625
 11
3.00259
 21
1.24371
  0
LINE
  8
0
 10
3.00259
 20
1.24371
 11
3.13925
 21
0.841156
  0
LINE
  8
0
 10
3.13925
 20
0.841156
 11
3.22218
 21
0.42421
  0
LINE
  8
0
 10
3.22218
 20
0.42421
 11
3.25
 21
0
  0
LINE
  8
0
 10
3.25
 20
0
 11
3.22218
 21
-0.42421
  0
LINE
  8
0
 10
3.22218
 20
-0.42421
 11
3.13925
 21
-0.841156
  0
LINE
  8
0
 10
3.13925
 20
-0.841156
 11
3.00259
 21
-1.24371
  0
LINE
  8
0
 10
3.00259
 20
-1.24371
 11
2.81458
 21
-1.625
  0
LINE
  8
0
 10
2.81458
 20
-1.625
 11
2.57838
 21
-1.97847
  0
LINE
  8
0
 10
2.57838
 20
-1.97847
 11
2.2981
 21
-2.2981
  0
LINE
  8
0
 10
2.2981
 20
-2.2981
 11
1.97847
 21
-2.57838
  0
LINE
  8
0
 10
1.97847
 20
-2.57838
 11
1.625
 21
-2.81458
  0
LINE
  8
0
 10
1.625
 20
-2.81458
 11
1.24371
 21
-3.00259
  0
LINE
  8
0
 10
1.24371
 20
-3.00259
 11
0.841156
 21
-3.13925
  0
LINE
  8
0
 10
0.841156
 20
-3.13925
 11
0.42421
 21
-3.22218
  0
LINE
  8
0
 10
0.42421
 20
-3.22218
 11
0
 21
-3.25
  0
LINE
  8
0
 10
0
 20
-3.25
 11
-0.42421
 21
-3.22218
  0
LINE
  8
0
 10
10.1828
 20
-13.8292
 11
9.76582
 21
-13.7462
  0
LINE
  8
0
 10
9.76582
 20
-13.7462
 11
9.36327
 21
-13.6096
  0
LINE
  8
0
 10
9.36327
 20
-13.6096
 11
8.98199
 21
-13.4216
  0
LINE
  8
0
 10
8.98199
 20
-13.4216
 11
8.62852
 21
-13.1854
  0
LINE
  8
0
 10
8.62852
 20
-13.1854
 11
8.3089
 21
-12.9051
  0
LINE
  8
0
 10
8.3089
 20
-12.9051
 11
8.02859
 21
-12.5855
  0
LINE
  8
0
 10
8.02859
 20
-12.5855
 11
7.7924
 21
-12.232
  0
LINE
  8
0
 10
7.7924
 20
-12.232
 11
7.60439
 21
-11.8507
  0
LINE
  8
0
 10
7.60439
 20
-11.8507
 11
7.46773
 21
-11.4482
  0
LINE
  8
0
 10
7.46773
 20
-11.4482
 11
7.3848
 21
-11.0312
  0
LINE
  8
0
 10
7.3848
 20
-11.0312
 11
7.35699
 21
-10.607
  0
LINE
  8
0
 10
7.35699
 20
-10.607
 11
7.3848
 21
-10.1828
  0
LINE
  8
0
 10
7.3848
 20
-10.1828
 11
7.46773
 21
-9.76582
  0
LINE
  8
0
 10
7.46773
 20
-9.76582
 11
7.60439
 21
-9.36327
  0
LINE
  8
0
 10
7.60439
 20
-9.36327
 11
7.7924
 21
-8.98199
  0
LINE
  8
0
 10
7.7924
 20
-8.98199
 11
8.02859
 21
-8.62852
  0
LINE
  8
0
 10
8.02859
 20
-8.62852
 11
8.3089
 21
-8.3089
  0
LINE
  8
0
 10
8.3089
 20
-8.3089
 11
8.62852
 21
-8.02859
  0
LINE
  8
0
 10
8.62852
 20
-8.02859
 11
8.98199
 21
-7.7924
  0
LINE
  8
0
 10
8.98199
 20
-7.7924
 11
9.36327
 21
-7.60439
  0
LINE
  8
0
 10
9.36327
 20
-7.60439
 11
9.76582
 21
-7.46773
  0
LINE
  8
0
 10
9.76582
 20
-7.46773
 11
10.1828
 21
-7.3848
  0
LINE
  8
0
 10
10.1828
 20
-7.3848
 11
10.607
 21
-7.35699
  0
LINE
  8
0
 10
10.607
 20
-7.35699
 11
11.0312
 21
-7.3848
  0
LINE
  8
0
 10
11.0312
 20
-7.3848
 11
11.4482
 21
-7.46773
  0
LINE
  8
0
 10
11.4482
 20
-7.46773
 11
11.8507
 21
-7.60439
  0
LINE
  8
0
 10
11.8507
 20
-7.60439
 11
12.232
 21
-7.7924
  0
LINE
  8
0
 10
12.232
 20
-7.7924
 11
12.5855
 21
-8.02859
  0
LINE
  8
0
 10
12.5855
 20
-8.02859
 11
12.9051
 21
-8.3089
  0
LINE
  8
0
 10
12.9051
 20
-8.3089
 11
13.1854
 21
-8.62852
  0
LINE
  8
0
 10
13.1854
 20
-8.62852
 11
13.4216
 21
-8.98199
  0
LINE
  8
0
 10
13.4216
 20
-8.98199
 11
13.6096
 21
-9.36327
  0
LINE
  8
0
 10
13.6096
 20
-9.36327
 11
13.7462
 21
-9.76582
  0
LINE
  8
0
 10
13.7462
 20
-9.76582
 11
13.8292
 21
-10.1828
  0
LINE
  8
0
 10
13.8292
 20
-10.1828
 11
13.857
 21
-10.607
  0
LINE
  8
0
 10
13.857
 20
-10.607
 11
13.8292
 21
-11.0312
  0
LINE
  8
0
 10
13.8292
 20
-11.0312
 11
13.7462
 21
-11.4482
  0
LINE
  8
0
 10
13.7462
 20
-11.4482
 11
13.6096
 21
-11.8507
  0
LINE
  8
0
 10
13.6096
 20
-11.8507
 11
13.4216
 21
-12.232
  0
LINE
  8
0
 10
13.4216
 20
-12.232
 11
13.1854
 21
-12.5855
  0
LINE
  8
0
 10
13.1854
 20
-12.5855
 11
12.9051
 21
-12.9051
  0
LINE
  8
0
 10
12.9051
 20
-12.9051
 11
12.5855
 21
-13.1854
  0
LINE
  8
0
 10
12.5855
 20
-13.1854
 11
12.232
 21
-13.4216
  0
LINE
  8
0
 10
12.232
 20
-13.4216
 11
11.8507
 21
-13.6096
  0
LINE
  8
0
 10
11.8507
 20
-13.6096
 11
11.4482
 21
-13.7462
  0
LINE
  8
0
 10
11.4482
 20
-13.7462
 11
11.0312
 21
-13.8292
  0
LINE
  8
0
 10
11.0312
 20
-13.8292
 11
10.607
 21
-13.857
  0
LINE
  8
0
 10
10.607
 20
-13.857
 11
10.1828
 21
-13.8292
  0
LINE
  8
0
 10
-11.0312
 20
-13.8292
 11
-11.4482
 21
-13.7462
  0
LINE
  8
0
 10
-11.4482
 20
-13.7462
 11
-11.8507
 21
-13.6096
  0
LINE
  8
0
 10
-11.8507
 20
-13.6096
 11
-12.232
 21
-13.4216
  0
LINE
  8
0
 10
-12.232
 20
-13.4216
 11
-12.5855
 21
-13.1854
  0
LINE
  8
0
 10
-12.5855
 20
-13.1854
 11
-12.9051
 21
-12.9051
  0
LINE
  8
0
 10
-12.9051
 20
-12.9051
 11
-13.1854
 21
-12.5855
  0
LINE
  8
0
 10
-13.1854
 20
-12.5855
 11
-13.4216
 21
-12.232
  0
LINE
  8
0
 10
-13.4216
 20
-12.232
 11
-13.6096
 21
-11.8507
  0
LINE
  8
0
 10
-13.6096
 20
-11.8507
 11
-13.7462
 21
-11.4482
  0
LINE
  8
0
 10
-13.7462
 20
-11.4482
 11
-13.8292
 21
-11.0312
  0
LINE
  8
0
 10
-13.8292
 20
-11.0312
 11
-13.857
 21
-10.607
  0
LINE
  8
0
 10
-13.857
 20
-10.607
 11
-13.8292
 21
-10.1828
  0
LINE
  8
0
 10
-13.8292
 20
-10.1828
 11
-13.7462
 21
-9.76582
  0
LINE
  8
0
 10
-13.7462
 20
-9.76582
 11
-13.6096
 21
-9.36327
  0
LINE
  8
0
 10
-13.6096
 20
-9.36327
 11
-13.4216
 21
-8.98199
  0
LINE
  8
0
 10
-13.4216
 20
-8.98199
 11
-13.1854
 21
-8.62852
  0
LINE
  8
0
 10
-13.1854
 20
-8.62852
 11
-12.9051
 21
-8.3089
  0
LINE
  8
0
 10
-12.9051
 20
-8.3089
 11
-12.5855
 21
-8.02859
  0
LINE
  8
0
 10
-12.5855
 20
-8.02859
 11
-12.232
 21
-7.7924
  0
LINE
  8
0
 10
-12.232
 20
-7.7924
 11
-11.8507
 21
-7.60439
  0
LINE
  8
0
 10
-11.8507
 20
-7.60439
 11
-11.4482
 21
-7.46773
  0
LINE
  8
0
 10
-11.4482
 20
-7.46773
 11
-11.0312
 21
-7.3848
  0
LINE
  8
0
 10
-11.0312
 20
-7.3848
 11
-10.607
 21
-7.35699
  0
LINE
  8
0
 10
-10.607
 20
-7.35699
 11
-10.1828
 21
-7.3848
  0
LINE
  8
0
 10
-10.1828
 20
-7.3848
 11
-9.76582
 21
-7.46773
  0
LINE
  8
0
 10
-9.76582
 20
-7.46773
 11
-9.36327
 21
-7.60439
  0
LINE
  8
0
 10
-9.36327
 20
-7.60439
 11
-8.98199
 21
-7.7924
  0
LINE
  8
0
 10
-8.98199
 20
-7.7924
 11
-8.62852
 21
-8.02859
  0
LINE
  8
0
 10
-8.62852
 20
-8.02859
 11
-8.3089
 21
-8.3089
  0
LINE
  8
0
 10
-8.3089
 20
-8.3089
 11
-8.02859
 21
-8.62852
  0
LINE
  8
0
 10
-8.02859
 20
-8.62852
 11
-7.7924
 21
-8.98199
  0
LINE
  8
0
 10
-7.7924
 20
-8.98199
 11
-7.60439
 21
-9.36327
  0
LINE
  8
0
 10
-7.60439
 20
-9.36327
 11
-7.46773
 21
-9.76582
  0
LINE
  8
0
 10
-7.46773
 20
-9.76582
 11
-7.3848
 21
-10.1828
  0
LINE
  8
0
 10
-7.3848
 20
-10.1828
 11
-7.35699
 21
-10.607
  0
LINE
  8
0
 10
-7.35699
 20
-10.607
 11
-7.3848
 21
-11.0312
  0
LINE
  8
0
 10
-7.3848
 20
-11.0312
 11
-7.46773
 21
-11.4482
  0
LINE
  8
0
 10
-7.46773
 20
-11.4482
 11
-7.60439
 21
-11.8507
  0
LINE
  8
0
 10
-7.60439
 20
-11.8507
 11
-7.7924
 21
-12.232
  0
LINE
  8
0
 10
-7.7924
 20
-12.232
 11
-8.02859
 21
-12.5855
  0
LINE
  8
0
 10
-8.02859
 20
-12.5855
 11
-8.3089
 21
-12.9051
  0
LINE
  8
0
 10
-8.3089
 20
-12.9051
 11
-8.62852
 21
-13.1854
  0
LINE
  8
0
 10
-8.62852
 20
-13.1854
 11
-8.98199
 21
-13.4216
  0
LINE
  8
0
 10
-8.98199
 20
-13.4216
 11
-9.36327
 21
-13.6096
  0
LINE
  8
0
 10
-9.36327
 20
-13.6096
 11
-9.76582
 21
-13.7462
  0
LINE
  8
0
 10
-9.76582
 20
-13.7462
 11
-10.1828
 21
-13.8292
  0
LINE
  8
0
 10
-10.1828
 20
-13.8292
 11
-10.607
 21
-13.857
  0
LINE
  8
0
 10
-10.607
 20
-13.857
 11
-11.0312
 21
-13.8292
  0
LINE
  8
0
 10
-0.42421
 20
-18.2222
 11
-0.841156
 21
-18.1393
  0
LINE
  8
0
 10
-0.841156
 20
-18.1393
 11
-1.24371
 21
-18.0026
  0
LINE
  8
0
 10
-1.24371
 20
-18.0026
 11
-1.625
 21
-17.8146
  0
LINE
  8
0
 10
-1.625
 20
-17.8146
 11
-1.97847
 21
-17.5784
  0
LINE
  8
0
 10
-1.97847
 20
-17.5784
 11
-2.2981
 21
-17.2981
  0
LINE
  8
0
 10
-2.2981
 20
-17.2981
 11
-2.57838
 21
-16.9785
  0
LINE
  8
0
 10
-2.57838
 20
-16.9785
 11
-2.81458
 21
-16.625
  0
LINE
  8
0
 10
-2.81458
 20
-16.625
 11
-3.00259
 21
-16.2437
  0
LINE
  8
0
 10
-3.00259
 20
-16.2437
 11
-3.13925
 21
-15.8412
  0
LINE
  8
0
 10
-3.13925
 20
-15.8412
 11
-3.22218
 21
-15.4242
  0
LINE
  8
0
 10
-3.22218
 20
-15.4242
 11
-3.25
 21
-15
  0
LINE
  8
0
 10
-3.25
 20
-15
 11
-3.22218
 21
-14.5758
  0
LINE
  8
0
 10
-3.22218
 20
-14.5758
 11
-3.13925
 21
-14.1588
  0
LINE
  8
0
 10
-3.13925
 20
-14.1588
 11
-3.00259
 21
-13.7563
  0
LINE
  8
0
 10
-3.00259
 20
-13.7563
 11
-2.81458
 21
-13.375
  0
LINE
  8
0
 10
-2.81458
 20
-13.375
 11
-2.57838
 21
-13.0215
  0
LINE
  8
0
 10
-2.57838
 20
-13.0215
 11
-2.2981
 21
-12.7019
  0
LINE
  8
0
 10
-2.2981
 20
-12.7019
 11
-1.97847
 21
-12.4216
  0
LINE
  8
0
 10
-1.97847
 20
-12.4216
 11
-1.625
 21
-12.1854
  0
LINE
  8
0
 10
-1.625
 20
-12.1854
 11
-1.24371
 21
-11.9974
  0
LINE
  8
0
 10
-1.24371
 20
-11.9974
 11
-0.841156
 21
-11.8607
  0
LINE
  8
0
 10
-0.841156
 20
-11.8607
 11
-0.42421
 21
-11.7778
  0
LINE
  8
0
 10
-0.42421
 20
-11.7778
 11
0
 21
-11.75
  0
LINE
  8
0
 10
0
 20
-11.75
 11
0.42421
 21
-11.7778
  0
LINE
  8
0
 10
0.42421
 20
-11.7778
 11
0.841156
 21
-11.8607
  0
LINE
  8
0
 10
0.841156
 20
-11.8607
 11
1.24371
 21
-11.9974
  0
LINE
  8
0
 10
1.24371
 20
-11.9974
 11
1.625
 21
-12.1854
  0
LINE
  8
0
 10
1.625
 20
-12.1854
 11
1.97847
 21
-12.4216
  0
LINE
  8
0
 10
1.97847
 20
-12.4216
 11
2.2981
 21
-12.7019
  0
LINE
  8
0
 10
2.2981
 20
-12.7019
 11
2.57838
 21
-13.0215
  0
LINE
  8
0
 10
2.57838
 20
-13.0215
 11
2.81458
 21
-13.375
  0
LINE
  8
0
 10
2.81458
 20
-13.375
 11
3.00259
 21
-13.7563
  0
LINE
  8
0
 10
3.00259
 20
-13.7563
 11
3.13925
 21
-14.1588
  0
LINE
  8
0
 10
3.13925
 20
-14.1588
 11
3.22218
 21
-14.5758
  0
LINE
  8
0
 10
3.22218
 20
-14.5758
 11
3.25
 21
-15
  0
LINE
  8
0
 10
3.25
 20
-15
 11
3.22218
 21
-15.4242
  0
LINE
  8
0
 10
3.22218
 20
-15.4242
 11
3.13925
 21
-15.8412
  0
LINE
  8
0
 10
3.13925
 20
-15.8412
 11
3.00259
 21
-16.2437
  0
LINE
  8
0
 10
3.00259
 20
-16.2437
 11
2.81458
 21
-16.625
  0
LINE
  8
0
 10
2.81458
 20
-16.625
 11
2.57838
 21
-16.9785
  0
LINE
  8
0
 10
2.57838
 20
-16.9785
 11
2.2981
 21
-17.2981
  0
LINE
  8
0
 10
2.2981
 20
-17.2981
 11
1.97847
 21
-17.5784
  0
LINE
  8
0
 10
1.97847
 20
-17.5784
 11
1.625
 21
-17.8146
  0
LINE
  8
0
 10
1.625
 20
-17.8146
 11
1.24371
 21
-18.0026
  0
LINE
  8
0
 10
1.24371
 20
-18.0026
 11
0.841156
 21
-18.1393
  0
LINE
  8
0
 10
0.841156
 20
-18.1393
 11
0.42421
 21
-18.2222
  0
LINE
  8
0
 10
0.42421
 20
-18.2222
 11
0
 21
-18.25
  0
LINE
  8
0
 10
0
 20
-18.25
 11
-0.42421
 21
-18.2222
  0
ENDSEC
  0
SECTION
  2
OBJECTS
  0
DICTIONARY
  0
ENDSEC
  0
EOF
