<?xml version="1.0" standalone="no"?>
<!DOCTYPE svg PUBLIC "-//W3C//DTD SVG 1.1//EN" "http://www.w3.org/Graphics/SVG/1.1/DTD/svg11.dtd">
<svg width="42mm" height="42mm" viewBox="-21 -21 42 42" xmlns="http://www.w3.org/2000/svg" version="1.1">
<title>OpenSCAD Model</title>
<path d="
M 3.935,20.628 L 6.48935,19.9722 L 8.94136,19.0014 L 11.2523,17.7309 L 13.3859,16.1808 L 15.3083,14.3755
 L 16.9893,12.3435 L 18.4024,10.1168 L 19.5253,7.73061 L 20.3402,5.22247 L 20.8344,2.63199 L 21,-0
 L 20.8344,-2.63199 L 20.3402,-5.22247 L 19.5253,-7.73061 L 18.4024,-10.1168 L 16.9893,-12.3435 L 15.3083,-14.3755
 L 13.3859,-16.1808 L 11.2523,-17.7309 L 8.94136,-19.0014 L 6.48935,-19.9722 L 3.935,-20.628 L 1.31859,-20.9586
 L -1.31859,-20.9586 L -3.935,-20.628 L -6.48935,-19.9722 L -8.94136,-19.0014 L -11.2523,-17.7309 L -13.3859,-16.1808
 L -15.3083,-14.3755 L -16.9893,-12.3435 L -18.4024,-10.1168 L -19.5253,-7.73061 L -20.3402,-5.22247 L -20.8344,-2.63199
 L -21,-0 L -20.8344,2.63199 L -20.3402,5.22247 L -19.5253,7.73061 L -18.4024,10.1168 L -16.9893,12.3435
 L -15.3083,14.3755 L -13.3859,16.1808 L -11.2523,17.7309 L -8.94136,19.0014 L -6.48935,19.9722 L -3.935,20.628
 L -1.31859,20.9586 L 1.31859,20.9586 z
" stroke="black" fill="lightgray" stroke-width="0.5"/>
</svg>
