<?xml version="1.0" encoding="UTF-8"?>
<!DOCTYPE svg PUBLIC "-//W3C//DTD SVG 1.1//EN" "http://www.w3.org/Graphics/SVG/1.1/DTD/svg11.dtd">
<!-- Creator: CorelDRAW -->
<svg xmlns="http://www.w3.org/2000/svg" xml:space="preserve" width="73.5292mm" height="13.5292mm" style="shape-rendering:geometricPrecision; text-rendering:geometricPrecision; image-rendering:optimizeQuality; fill-rule:evenodd; clip-rule:evenodd"
viewBox="0 0 19.0687 3.5086"
 xmlns:xlink="http://www.w3.org/1999/xlink">
 <defs>
  <style type="text/css">
   <![CDATA[
    .str2 {stroke:#1F1A17;stroke-width:0.13724}
    .str1 {stroke:#1F1A17;stroke-width:0.13724;stroke-linecap:round;stroke-linejoin:round}
    .str0 {stroke:black;stroke-width:0.13724;stroke-linecap:round;stroke-linejoin:round}
    .fil0 {fill:none}
   ]]>
  </style>
 </defs>
 <g id="Layer_x0020_1">
  <metadata id="CorelCorpID_0Corel-Layer"/>
  <path class="fil0 str0" d="M0.976295 1.3653l0.104123 0c0.0683349,-0.118075 0.166805,-0.216545 0.28488,-0.28488l0 -0.104123 0.389003 0 0.389003 0 0 0.104123c0.118075,0.0683349 0.216545,0.166805 0.28488,0.28488l0.104123 0 0 0.389003 0 0.389003 -0.104123 0c-0.0683349,0.118075 -0.166805,0.216545 -0.28488,0.28488l0 0.104123 -0.389003 0 -0.389003 0 0 -0.104123c-0.118075,-0.0683349 -0.216545,-0.166805 -0.28488,-0.28488l-0.104123 0 0 -0.389003 0 -0.389003z"/>
  <path class="fil0 str0" d="M6.16301 1.3653l0.104123 0c0.0683349,-0.118075 0.166805,-0.216545 0.28488,-0.28488l0 -0.104123 0.389003 0 0.389003 0 0 0.104123c0.118075,0.0683349 0.216545,0.166805 0.28488,0.28488l0.104123 0 0 0.389003 0 0.389003 -0.104123 0c-0.0683349,0.118075 -0.166805,0.216545 -0.28488,0.28488l0 0.104123 -0.389003 0 -0.389003 0 0 -0.104123c-0.118075,-0.0683349 -0.216545,-0.166805 -0.28488,-0.28488l-0.104123 0 0 -0.389003 0 -0.389003z"/>
  <path class="fil0 str0" d="M11.3497 1.3653l0.104123 0c0.0683349,-0.118075 0.166805,-0.216545 0.28488,-0.28488l0 -0.104123 0.389003 0 0.389003 0 0 0.104123c0.118075,0.0683349 0.216545,0.166805 0.28488,0.28488l0.104123 0 0 0.389003 0 0.389003 -0.104123 0c-0.0683349,0.118075 -0.166805,0.216545 -0.28488,0.28488l0 0.104123 -0.389003 0 -0.389003 0 0 -0.104123c-0.118075,-0.0683349 -0.216545,-0.166805 -0.28488,-0.28488l-0.104123 0 0 -0.389003 0 -0.389003z"/>
  <path class="fil0 str0" d="M16.5364 1.3653l0.104123 0c0.0683349,-0.118075 0.166805,-0.216545 0.28488,-0.28488l0 -0.104123 0.389003 0 0.389003 0 0 0.104123c0.118075,0.0683349 0.216545,0.166805 0.28488,0.28488l0.104123 0 0 0.389003 0 0.389003 -0.104123 0c-0.0683349,0.118075 -0.166805,0.216545 -0.28488,0.28488l0 0.104123 -0.389003 0 -0.389003 0 0 -0.104123c-0.118075,-0.0683349 -0.216545,-0.166805 -0.28488,-0.28488l-0.104123 0 0 -0.389003 0 -0.389003z"/>
  <rect class="fil0 str1" x="3.56965" y="1.3653" width="1.55601" height="0.778007"/>
  <rect class="fil0 str1" x="8.75636" y="1.3653" width="1.55601" height="0.778007"/>
  <rect class="fil0 str1" x="13.9431" y="1.3653" width="1.55601" height="0.778007"/>
  <path class="fil0 str2" d="M0.0686202 2.1433l0 -0.778007c0,-0.716 0.580678,-1.29668 1.29668,-1.29668l16.3381 0c0.716,0 1.29668,0.580678 1.29668,1.29668l0 0.778007c0,0.716 -0.580678,1.29668 -1.29668,1.29668l-16.3381 0c-0.716,0 -1.29668,-0.580678 -1.29668,-1.29668z"/>
 </g>
</svg>
