<?xml version="1.0" standalone="no"?>
<!DOCTYPE svg PUBLIC "-//W3C//DTD SVG 1.1//EN" "http://www.w3.org/Graphics/SVG/1.1/DTD/svg11.dtd">
<svg width="102mm" height="42mm" viewBox="9 -51 102 42" xmlns="http://www.w3.org/2000/svg" version="1.1">
<title>OpenSCAD Model</title>
<path d="
M 106,-9.02962 L 106.314,-9.00986 L 107.545,-9.24471 L 108.679,-9.77835 L 109.645,-10.5773 L 110.382,-11.5912
 L 110.843,-12.7565 L 111,-14 L 111,-46 L 110.843,-47.2434 L 110.382,-48.4088 L 109.645,-49.4227
 L 108.679,-50.2216 L 107.545,-50.7553 L 106.314,-50.9901 L 106,-50.9704 L 106,-51 L 14,-51
 L 14,-50.9704 L 13.0631,-50.9114 L 11.8711,-50.5241 L 10.8129,-49.8526 L 9.95491,-48.9389 L 9.3511,-47.8406
 L 9.03941,-46.6267 L 9.03941,-46 L 9,-46 L 9,-14 L 9.03941,-14 L 9.03941,-13.3733
 L 9.3511,-12.1594 L 9.95491,-11.0611 L 10.8129,-10.1474 L 11.8711,-9.47586 L 13.0631,-9.08856 L 14,-9.02962
 L 14,-9 L 106,-9 z
" stroke="black" fill="lightgray" stroke-width="0.5"/>
</svg>
