<?xml version="1.0" standalone="no"?>
<!DOCTYPE svg PUBLIC "-//W3C//DTD SVG 1.1//EN" "http://www.w3.org/Graphics/SVG/1.1/DTD/svg11.dtd">
<svg width="102mm" height="42mm" viewBox="-51 -21 102 42" xmlns="http://www.w3.org/2000/svg" version="1.1">
<title>OpenSCAD Model</title>
<path d="
M 47.2435,20.8429 L 48.4088,20.3815 L 49.4227,19.6448 L 50.2216,18.6791 L 50.7553,17.5451 L 51,16
 L 51,-16 L 50.8429,-17.2435 L 50.3815,-18.4088 L 49.6448,-19.4227 L 48.6791,-20.2216 L 47.5451,-20.7553
 L 46,-21 L -46,-21 L -47.2435,-20.8429 L -48.4088,-20.3815 L -49.4227,-19.6448 L -50.2216,-18.6791
 L -50.7553,-17.5451 L -51,-16 L -51,16 L -50.8429,17.2435 L -50.3815,18.4088 L -49.6448,19.4227
 L -48.6791,20.2216 L -47.5451,20.7553 L -46,21 L 46,21 z
M -15.5621,-12.0531 L -16.2773,-12.2855 L -16.9123,-12.6884 L -17.427,-13.2366 L -17.7893,-13.8956 L -17.9763,-14.624
 L -17.9763,-15.376 L -17.7893,-16.1044 L -17.427,-16.7634 L -16.9123,-17.3115 L -16.2773,-17.7145 L -15.5621,-17.9469
 L -14.8116,-17.9941 L -14.0729,-17.8532 L -13.3925,-17.533 L -12.8131,-17.0536 L -12.3711,-16.4453 L -12.0942,-15.7461
 L -12,-15 L -12.0942,-14.2539 L -12.3711,-13.5547 L -12.8131,-12.9464 L -13.3925,-12.467 L -14.0729,-12.1468
 L -14.8116,-12.0059 z
M -45.5621,-12.0531 L -46.2773,-12.2855 L -46.9123,-12.6884 L -47.427,-13.2366 L -47.7893,-13.8956 L -47.9763,-14.624
 L -47.9763,-15.376 L -47.7893,-16.1044 L -47.427,-16.7634 L -46.9123,-17.3115 L -46.2773,-17.7145 L -45.5621,-17.9469
 L -44.8116,-17.9941 L -44.0729,-17.8532 L -43.3925,-17.533 L -42.8131,-17.0536 L -42.3711,-16.4453 L -42.0942,-15.7461
 L -42,-15 L -42.0942,-14.2539 L -42.3711,-13.5547 L -42.8131,-12.9464 L -43.3925,-12.467 L -44.0729,-12.1468
 L -44.8116,-12.0059 z
M 44.4379,-12.0531 L 43.7227,-12.2855 L 43.0877,-12.6884 L 42.5729,-13.2366 L 42.2107,-13.8956 L 42.0237,-14.624
 L 42.0237,-15.376 L 42.2107,-16.1044 L 42.5729,-16.7634 L 43.0877,-17.3115 L 43.7227,-17.7145 L 44.4379,-17.9469
 L 45.1884,-17.9941 L 45.927,-17.8532 L 46.6075,-17.533 L 47.1869,-17.0536 L 47.6289,-16.4453 L 47.9057,-15.7461
 L 48,-15 L 47.9057,-14.2539 L 47.6289,-13.5547 L 47.1869,-12.9464 L 46.6075,-12.467 L 45.927,-12.1468
 L 45.1884,-12.0059 z
M -30.5621,-12.0531 L -31.2773,-12.2855 L -31.9123,-12.6884 L -32.427,-13.2366 L -32.7893,-13.8956 L -32.9763,-14.624
 L -32.9763,-15.376 L -32.7893,-16.1044 L -32.427,-16.7634 L -31.9123,-17.3115 L -31.2773,-17.7145 L -30.5621,-17.9469
 L -29.8116,-17.9941 L -29.0729,-17.8532 L -28.3925,-17.533 L -27.8131,-17.0536 L -27.3711,-16.4453 L -27.0942,-15.7461
 L -27,-15 L -27.0942,-14.2539 L -27.3711,-13.5547 L -27.8131,-12.9464 L -28.3925,-12.467 L -29.0729,-12.1468
 L -29.8116,-12.0059 z
M 1.60747,-17.533 L 2.1869,-17.0536 L 2.62891,-16.4453 L 2.90575,-15.7461 L 3,-15 L 2.90575,-14.2539
 L 2.62891,-13.5547 L 2.1869,-12.9464 L 1.60747,-12.467 L 0.927048,-12.1468 L 0.18837,-12.0059 L -0.562134,-12.0531
 L -1.27733,-12.2855 L -1.91226,-12.6884 L -2.42705,-13.2366 L -2.78932,-13.8956 L -2.97633,-14.624 L -2.97633,-15.376
 L -2.78932,-16.1044 L -2.42705,-16.7634 L -1.91226,-17.3115 L -1.27733,-17.7145 L -0.562134,-17.9469 L 0.18837,-17.9941
 L 0.927048,-17.8532 z
M 29.4379,-12.0531 L 28.7227,-12.2855 L 28.0877,-12.6884 L 27.5729,-13.2366 L 27.2107,-13.8956 L 27.0237,-14.624
 L 27.0237,-15.376 L 27.2107,-16.1044 L 27.5729,-16.7634 L 28.0877,-17.3115 L 28.7227,-17.7145 L 29.4379,-17.9469
 L 30.1884,-17.9941 L 30.927,-17.8532 L 31.6075,-17.533 L 32.1869,-17.0536 L 32.6289,-16.4453 L 32.9057,-15.7461
 L 33,-15 L 32.9057,-14.2539 L 32.6289,-13.5547 L 32.1869,-12.9464 L 31.6075,-12.467 L 30.927,-12.1468
 L 30.1884,-12.0059 z
M 14.4379,-12.0531 L 13.7227,-12.2855 L 13.0877,-12.6884 L 12.5729,-13.2366 L 12.2107,-13.8956 L 12.0237,-14.624
 L 12.0237,-15.376 L 12.2107,-16.1044 L 12.5729,-16.7634 L 13.0877,-17.3115 L 13.7227,-17.7145 L 14.4379,-17.9469
 L 15.1884,-17.9941 L 15.927,-17.8532 L 16.6075,-17.533 L 17.1869,-17.0536 L 17.6289,-16.4453 L 17.9057,-15.7461
 L 18,-15 L 17.9057,-14.2539 L 17.6289,-13.5547 L 17.1869,-12.9464 L 16.6075,-12.467 L 15.927,-12.1468
 L 15.1884,-12.0059 z
M -45.5621,2.94685 L -46.2773,2.71448 L -46.9123,2.31154 L -47.427,1.76335 L -47.7893,1.10437 L -47.9763,0.375992
 L -47.9763,-0.375992 L -47.7893,-1.10437 L -47.427,-1.76335 L -46.9123,-2.31154 L -46.2773,-2.71448 L -45.5621,-2.94685
 L -44.8116,-2.99408 L -44.0729,-2.85316 L -43.3925,-2.53297 L -42.8131,-2.05363 L -42.3711,-1.44525 L -42.0942,-0.746063
 L -42,-0 L -42.0942,0.746063 L -42.3711,1.44525 L -42.8131,2.05363 L -43.3925,2.53297 L -44.0729,2.85316
 L -44.8116,2.99408 z
M 44.4379,2.94685 L 43.7227,2.71448 L 43.0877,2.31154 L 42.5729,1.76335 L 42.2107,1.10437 L 42.0237,0.375992
 L 42.0237,-0.375992 L 42.2107,-1.10437 L 42.5729,-1.76335 L 43.0877,-2.31154 L 43.7227,-2.71448 L 44.4379,-2.94685
 L 45.1884,-2.99408 L 45.927,-2.85316 L 46.6075,-2.53297 L 47.1869,-2.05363 L 47.6289,-1.44525 L 47.9057,-0.746063
 L 48,-0 L 47.9057,0.746063 L 47.6289,1.44525 L 47.1869,2.05363 L 46.6075,2.53297 L 45.927,2.85316
 L 45.1884,2.99408 z
M 14.4379,2.94685 L 13.7227,2.71448 L 13.0877,2.31154 L 12.5729,1.76335 L 12.2107,1.10437 L 12.0237,0.375992
 L 12.0237,-0.375992 L 12.2107,-1.10437 L 12.5729,-1.76335 L 13.0877,-2.31154 L 13.7227,-2.71448 L 14.4379,-2.94685
 L 15.1884,-2.99408 L 15.927,-2.85316 L 16.6075,-2.53297 L 17.1869,-2.05363 L 17.6289,-1.44525 L 17.9057,-0.746063
 L 18,-0 L 17.9057,0.746063 L 17.6289,1.44525 L 17.1869,2.05363 L 16.6075,2.53297 L 15.927,2.85316
 L 15.1884,2.99408 z
M -0.562134,2.94685 L -1.27733,2.71448 L -1.91226,2.31154 L -2.42705,1.76335 L -2.78932,1.10437 L -2.97633,0.375992
 L -2.97633,-0.375992 L -2.78932,-1.10437 L -2.42705,-1.76335 L -1.91226,-2.31154 L -1.27733,-2.71448 L -0.562134,-2.94685
 L 0.18837,-2.99408 L 0.927048,-2.85316 L 1.60747,-2.53297 L 2.1869,-2.05363 L 2.62891,-1.44525 L 2.90575,-0.746063
 L 3,-0 L 2.90575,0.746063 L 2.62891,1.44525 L 2.1869,2.05363 L 1.60747,2.53297 L 0.927048,2.85316
 L 0.18837,2.99408 z
M -30.5621,2.94685 L -31.2773,2.71448 L -31.9123,2.31154 L -32.427,1.76335 L -32.7893,1.10437 L -32.9763,0.375992
 L -32.9763,-0.375992 L -32.7893,-1.10437 L -32.427,-1.76335 L -31.9123,-2.31154 L -31.2773,-2.71448 L -30.5621,-2.94685
 L -29.8116,-2.99408 L -29.0729,-2.85316 L -28.3925,-2.53297 L -27.8131,-2.05363 L -27.3711,-1.44525 L -27.0942,-0.746063
 L -27,-0 L -27.0942,0.746063 L -27.3711,1.44525 L -27.8131,2.05363 L -28.3925,2.53297 L -29.0729,2.85316
 L -29.8116,2.99408 z
M -15.5621,2.94685 L -16.2773,2.71448 L -16.9123,2.31154 L -17.427,1.76335 L -17.7893,1.10437 L -17.9763,0.375992
 L -17.9763,-0.375992 L -17.7893,-1.10437 L -17.427,-1.76335 L -16.9123,-2.31154 L -16.2773,-2.71448 L -15.5621,-2.94685
 L -14.8116,-2.99408 L -14.0729,-2.85316 L -13.3925,-2.53297 L -12.8131,-2.05363 L -12.3711,-1.44525 L -12.0942,-0.746063
 L -12,-0 L -12.0942,0.746063 L -12.3711,1.44525 L -12.8131,2.05363 L -13.3925,2.53297 L -14.0729,2.85316
 L -14.8116,2.99408 z
M 29.4379,2.94685 L 28.7227,2.71448 L 28.0877,2.31154 L 27.5729,1.76335 L 27.2107,1.10437 L 27.0237,0.375992
 L 27.0237,-0.375992 L 27.2107,-1.10437 L 27.5729,-1.76335 L 28.0877,-2.31154 L 28.7227,-2.71448 L 29.4379,-2.94685
 L 30.1884,-2.99408 L 30.927,-2.85316 L 31.6075,-2.53297 L 32.1869,-2.05363 L 32.6289,-1.44525 L 32.9057,-0.746063
 L 33,-0 L 32.9057,0.746063 L 32.6289,1.44525 L 32.1869,2.05363 L 31.6075,2.53297 L 30.927,2.85316
 L 30.1884,2.99408 z
M -45.5621,17.9469 L -46.2773,17.7145 L -46.9123,17.3115 L -47.427,16.7634 L -47.7893,16.1044 L -47.9763,15.376
 L -47.9763,14.624 L -47.7893,13.8956 L -47.427,13.2366 L -46.9123,12.6884 L -46.2773,12.2855 L -45.5621,12.0531
 L -44.8116,12.0059 L -44.0729,12.1468 L -43.3925,12.467 L -42.8131,12.9464 L -42.3711,13.5547 L -42.0942,14.2539
 L -42,15 L -42.0942,15.7461 L -42.3711,16.4453 L -42.8131,17.0536 L -43.3925,17.533 L -44.0729,17.8532
 L -44.8116,17.9941 z
M -30.5621,17.9469 L -31.2773,17.7145 L -31.9123,17.3115 L -32.427,16.7634 L -32.7893,16.1044 L -32.9763,15.376
 L -32.9763,14.624 L -32.7893,13.8956 L -32.427,13.2366 L -31.9123,12.6884 L -31.2773,12.2855 L -30.5621,12.0531
 L -29.8116,12.0059 L -29.0729,12.1468 L -28.3925,12.467 L -27.8131,12.9464 L -27.3711,13.5547 L -27.0942,14.2539
 L -27,15 L -27.0942,15.7461 L -27.3711,16.4453 L -27.8131,17.0536 L -28.3925,17.533 L -29.0729,17.8532
 L -29.8116,17.9941 z
M 29.4379,17.9469 L 28.7227,17.7145 L 28.0877,17.3115 L 27.5729,16.7634 L 27.2107,16.1044 L 27.0237,15.376
 L 27.0237,14.624 L 27.2107,13.8956 L 27.5729,13.2366 L 28.0877,12.6884 L 28.7227,12.2855 L 29.4379,12.0531
 L 30.1884,12.0059 L 30.927,12.1468 L 31.6075,12.467 L 32.1869,12.9464 L 32.6289,13.5547 L 32.9057,14.2539
 L 33,15 L 32.9057,15.7461 L 32.6289,16.4453 L 32.1869,17.0536 L 31.6075,17.533 L 30.927,17.8532
 L 30.1884,17.9941 z
M 44.4379,17.9469 L 43.7227,17.7145 L 43.0877,17.3115 L 42.5729,16.7634 L 42.2107,16.1044 L 42.0237,15.376
 L 42.0237,14.624 L 42.2107,13.8956 L 42.5729,13.2366 L 43.0877,12.6884 L 43.7227,12.2855 L 44.4379,12.0531
 L 45.1884,12.0059 L 45.927,12.1468 L 46.6075,12.467 L 47.1869,12.9464 L 47.6289,13.5547 L 47.9057,14.2539
 L 48,15 L 47.9057,15.7461 L 47.6289,16.4453 L 47.1869,17.0536 L 46.6075,17.533 L 45.927,17.8532
 L 45.1884,17.9941 z
M 14.4379,17.9469 L 13.7227,17.7145 L 13.0877,17.3115 L 12.5729,16.7634 L 12.2107,16.1044 L 12.0237,15.376
 L 12.0237,14.624 L 12.2107,13.8956 L 12.5729,13.2366 L 13.0877,12.6884 L 13.7227,12.2855 L 14.4379,12.0531
 L 15.1884,12.0059 L 15.927,12.1468 L 16.6075,12.467 L 17.1869,12.9464 L 17.6289,13.5547 L 17.9057,14.2539
 L 18,15 L 17.9057,15.7461 L 17.6289,16.4453 L 17.1869,17.0536 L 16.6075,17.533 L 15.927,17.8532
 L 15.1884,17.9941 z
M -15.5621,17.9469 L -16.2773,17.7145 L -16.9123,17.3115 L -17.427,16.7634 L -17.7893,16.1044 L -17.9763,15.376
 L -17.9763,14.624 L -17.7893,13.8956 L -17.427,13.2366 L -16.9123,12.6884 L -16.2773,12.2855 L -15.5621,12.0531
 L -14.8116,12.0059 L -14.0729,12.1468 L -13.3925,12.467 L -12.8131,12.9464 L -12.3711,13.5547 L -12.0942,14.2539
 L -12,15 L -12.0942,15.7461 L -12.3711,16.4453 L -12.8131,17.0536 L -13.3925,17.533 L -14.0729,17.8532
 L -14.8116,17.9941 z
M -0.562134,17.9469 L -1.27733,17.7145 L -1.91226,17.3115 L -2.42705,16.7634 L -2.78932,16.1044 L -2.97633,15.376
 L -2.97633,14.624 L -2.78932,13.8956 L -2.42705,13.2366 L -1.91226,12.6884 L -1.27733,12.2855 L -0.562134,12.0531
 L 0.18837,12.0059 L 0.927048,12.1468 L 1.60747,12.467 L 2.1869,12.9464 L 2.62891,13.5547 L 2.90575,14.2539
 L 3,15 L 2.90575,15.7461 L 2.62891,16.4453 L 2.1869,17.0536 L 1.60747,17.533 L 0.927048,17.8532
 L 0.18837,17.9941 z
" stroke="black" fill="lightgray" stroke-width="0.5"/>
</svg>
