<svg
xmlns:dc="http://purl.org/dc/elements/1.1/"
xmlns:cc="http://creativecommons.org/ns#"
xmlns:rdf="http://www.w3.org/1999/02/22-rdf-syntax-ns#"
xmlns:svg="http://www.w3.org/2000/svg"
xmlns="http://www.w3.org/2000/svg"
xmlns:xlink="http://www.w3.org/1999/xlink"
xmlns:sodipodi="http://sodipodi.sourceforge.net/DTD/sodipodi-0.dtd"
xmlns:inkscape="http://www.inkscape.org/namespaces/inkscape"
width="283mm"
height="83mm"
id="svg2"
version="1.1"
inkscape:version="0.48.1 "
sodipodi:docname="MultiLineTextINK.svg">
	<rect
		style="fill:none;stroke:#000000;stroke-width:2px " 
		x="5mm"
		y="5mm"
		rx="5mm"
		ry="5mm"
		width="273mm"
		height="73mm"
	/>
	<path 
	style="fill:none;stroke:#000000;stroke-width:0.564445573335591px " 
	d=
	"M10 14.5
	l0 -0.4015c-0.4553,-0.2635 -0.8349,-0.6432 -1.0984,-1.0985l-0.4016 0 0 -1.5 0 -1.5 0.4016 0c0.2635,-0.4553 0.6431,-0.835 1.0984,-1.0985l0 -0.4015 1.5 0 1.5 0 0 0.4015c0.4553,0.2635 0.8349,0.6432 1.0984,1.0985l0.4016 0 0 1.5 0 1.5 -0.4016 0c-0.2635,0.4553 -0.6431,0.835 -1.0984,1.0985l0 0.4015 -1.5 0 -1.5 0z"
	transform="scale(3.5433)"
	/>
	<path 
	style="fill:none;stroke:#000000;stroke-width:0.564445573335591px " 
	d=
	"M10 34.5
	l0 -0.4015c-0.4553,-0.2635 -0.8349,-0.6432 -1.0984,-1.0985l-0.4016 0 0 -1.5 0 -1.5 0.4016 0c0.2635,-0.4553 0.6431,-0.835 1.0984,-1.0985l0 -0.4015 1.5 0 1.5 0 0 0.4015c0.4553,0.2635 0.8349,0.6432 1.0984,1.0985l0.4016 0 0 1.5 0 1.5 -0.4016 0c-0.2635,0.4553 -0.6431,0.835 -1.0984,1.0985l0 0.4015 -1.5 0 -1.5 0z"
	transform="scale(3.5433)"
	/>
	<path 
	style="fill:none;stroke:#000000;stroke-width:0.564445573335591px " 
	d=
	"M10 54.5
	l0 -0.4015c-0.4553,-0.2635 -0.8349,-0.6432 -1.0984,-1.0985l-0.4016 0 0 -1.5 0 -1.5 0.4016 0c0.2635,-0.4553 0.6431,-0.835 1.0984,-1.0985l0 -0.4015 1.5 0 1.5 0 0 0.4015c0.4553,0.2635 0.8349,0.6432 1.0984,1.0985l0.4016 0 0 1.5 0 1.5 -0.4016 0c-0.2635,0.4553 -0.6431,0.835 -1.0984,1.0985l0 0.4015 -1.5 0 -1.5 0z"
	transform="scale(3.5433)"
	/>
	<path 
	style="fill:none;stroke:#000000;stroke-width:0.564445573335591px " 
	d=
	"M10 74.5
	l0 -0.4015c-0.4553,-0.2635 -0.8349,-0.6432 -1.0984,-1.0985l-0.4016 0 0 -1.5 0 -1.5 0.4016 0c0.2635,-0.4553 0.6431,-0.835 1.0984,-1.0985l0 -0.4015 1.5 0 1.5 0 0 0.4015c0.4553,0.2635 0.8349,0.6432 1.0984,1.0985l0.4016 0 0 1.5 0 1.5 -0.4016 0c-0.2635,0.4553 -0.6431,0.835 -1.0984,1.0985l0 0.4015 -1.5 0 -1.5 0z"
	transform="scale(3.5433)"
	/>
	<path 
	style="fill:none;stroke:#000000;stroke-width:0.564445573335591px " 
	d=
	"M30 14.5
	l0 -0.4015c-0.4553,-0.2635 -0.8349,-0.6432 -1.0984,-1.0985l-0.4016 0 0 -1.5 0 -1.5 0.4016 0c0.2635,-0.4553 0.6431,-0.835 1.0984,-1.0985l0 -0.4015 1.5 0 1.5 0 0 0.4015c0.4553,0.2635 0.8349,0.6432 1.0984,1.0985l0.4016 0 0 1.5 0 1.5 -0.4016 0c-0.2635,0.4553 -0.6431,0.835 -1.0984,1.0985l0 0.4015 -1.5 0 -1.5 0z"
	transform="scale(3.5433)"
	/>
	<path 
	style="fill:none;stroke:#000000;stroke-width:0.564445573335591px " 
	d=
	"M30 34.5
	l0 -0.4015c-0.4553,-0.2635 -0.8349,-0.6432 -1.0984,-1.0985l-0.4016 0 0 -1.5 0 -1.5 0.4016 0c0.2635,-0.4553 0.6431,-0.835 1.0984,-1.0985l0 -0.4015 1.5 0 1.5 0 0 0.4015c0.4553,0.2635 0.8349,0.6432 1.0984,1.0985l0.4016 0 0 1.5 0 1.5 -0.4016 0c-0.2635,0.4553 -0.6431,0.835 -1.0984,1.0985l0 0.4015 -1.5 0 -1.5 0z"
	transform="scale(3.5433)"
	/>
	<path 
	style="fill:none;stroke:#000000;stroke-width:0.564445573335591px " 
	d=
	"M30 54.5
	l0 -0.4015c-0.4553,-0.2635 -0.8349,-0.6432 -1.0984,-1.0985l-0.4016 0 0 -1.5 0 -1.5 0.4016 0c0.2635,-0.4553 0.6431,-0.835 1.0984,-1.0985l0 -0.4015 1.5 0 1.5 0 0 0.4015c0.4553,0.2635 0.8349,0.6432 1.0984,1.0985l0.4016 0 0 1.5 0 1.5 -0.4016 0c-0.2635,0.4553 -0.6431,0.835 -1.0984,1.0985l0 0.4015 -1.5 0 -1.5 0z"
	transform="scale(3.5433)"
	/>
	<path 
	style="fill:none;stroke:#000000;stroke-width:0.564445573335591px " 
	d=
	"M30 74.5
	l0 -0.4015c-0.4553,-0.2635 -0.8349,-0.6432 -1.0984,-1.0985l-0.4016 0 0 -1.5 0 -1.5 0.4016 0c0.2635,-0.4553 0.6431,-0.835 1.0984,-1.0985l0 -0.4015 1.5 0 1.5 0 0 0.4015c0.4553,0.2635 0.8349,0.6432 1.0984,1.0985l0.4016 0 0 1.5 0 1.5 -0.4016 0c-0.2635,0.4553 -0.6431,0.835 -1.0984,1.0985l0 0.4015 -1.5 0 -1.5 0z"
	transform="scale(3.5433)"
	/>
	<path 
	style="fill:none;stroke:#000000;stroke-width:0.564445573335591px " 
	d=
	"M50 14.5
	l0 -0.4015c-0.4553,-0.2635 -0.8349,-0.6432 -1.0984,-1.0985l-0.4016 0 0 -1.5 0 -1.5 0.4016 0c0.2635,-0.4553 0.6431,-0.835 1.0984,-1.0985l0 -0.4015 1.5 0 1.5 0 0 0.4015c0.4553,0.2635 0.8349,0.6432 1.0984,1.0985l0.4016 0 0 1.5 0 1.5 -0.4016 0c-0.2635,0.4553 -0.6431,0.835 -1.0984,1.0985l0 0.4015 -1.5 0 -1.5 0z"
	transform="scale(3.5433)"
	/>
	<path 
	style="fill:none;stroke:#000000;stroke-width:0.564445573335591px " 
	d=
	"M50 34.5
	l0 -0.4015c-0.4553,-0.2635 -0.8349,-0.6432 -1.0984,-1.0985l-0.4016 0 0 -1.5 0 -1.5 0.4016 0c0.2635,-0.4553 0.6431,-0.835 1.0984,-1.0985l0 -0.4015 1.5 0 1.5 0 0 0.4015c0.4553,0.2635 0.8349,0.6432 1.0984,1.0985l0.4016 0 0 1.5 0 1.5 -0.4016 0c-0.2635,0.4553 -0.6431,0.835 -1.0984,1.0985l0 0.4015 -1.5 0 -1.5 0z"
	transform="scale(3.5433)"
	/>
	<path 
	style="fill:none;stroke:#000000;stroke-width:0.564445573335591px " 
	d=
	"M50 54.5
	l0 -0.4015c-0.4553,-0.2635 -0.8349,-0.6432 -1.0984,-1.0985l-0.4016 0 0 -1.5 0 -1.5 0.4016 0c0.2635,-0.4553 0.6431,-0.835 1.0984,-1.0985l0 -0.4015 1.5 0 1.5 0 0 0.4015c0.4553,0.2635 0.8349,0.6432 1.0984,1.0985l0.4016 0 0 1.5 0 1.5 -0.4016 0c-0.2635,0.4553 -0.6431,0.835 -1.0984,1.0985l0 0.4015 -1.5 0 -1.5 0z"
	transform="scale(3.5433)"
	/>
	<path 
	style="fill:none;stroke:#000000;stroke-width:0.564445573335591px " 
	d=
	"M50 74.5
	l0 -0.4015c-0.4553,-0.2635 -0.8349,-0.6432 -1.0984,-1.0985l-0.4016 0 0 -1.5 0 -1.5 0.4016 0c0.2635,-0.4553 0.6431,-0.835 1.0984,-1.0985l0 -0.4015 1.5 0 1.5 0 0 0.4015c0.4553,0.2635 0.8349,0.6432 1.0984,1.0985l0.4016 0 0 1.5 0 1.5 -0.4016 0c-0.2635,0.4553 -0.6431,0.835 -1.0984,1.0985l0 0.4015 -1.5 0 -1.5 0z"
	transform="scale(3.5433)"
	/>
	<path 
	style="fill:none;stroke:#000000;stroke-width:0.564445573335591px " 
	d=
	"M70 14.5
	l0 -0.4015c-0.4553,-0.2635 -0.8349,-0.6432 -1.0984,-1.0985l-0.4016 0 0 -1.5 0 -1.5 0.4016 0c0.2635,-0.4553 0.6431,-0.835 1.0984,-1.0985l0 -0.4015 1.5 0 1.5 0 0 0.4015c0.4553,0.2635 0.8349,0.6432 1.0984,1.0985l0.4016 0 0 1.5 0 1.5 -0.4016 0c-0.2635,0.4553 -0.6431,0.835 -1.0984,1.0985l0 0.4015 -1.5 0 -1.5 0z"
	transform="scale(3.5433)"
	/>
	<path 
	style="fill:none;stroke:#000000;stroke-width:0.564445573335591px " 
	d=
	"M70 34.5
	l0 -0.4015c-0.4553,-0.2635 -0.8349,-0.6432 -1.0984,-1.0985l-0.4016 0 0 -1.5 0 -1.5 0.4016 0c0.2635,-0.4553 0.6431,-0.835 1.0984,-1.0985l0 -0.4015 1.5 0 1.5 0 0 0.4015c0.4553,0.2635 0.8349,0.6432 1.0984,1.0985l0.4016 0 0 1.5 0 1.5 -0.4016 0c-0.2635,0.4553 -0.6431,0.835 -1.0984,1.0985l0 0.4015 -1.5 0 -1.5 0z"
	transform="scale(3.5433)"
	/>
	<path 
	style="fill:none;stroke:#000000;stroke-width:0.564445573335591px " 
	d=
	"M70 54.5
	l0 -0.4015c-0.4553,-0.2635 -0.8349,-0.6432 -1.0984,-1.0985l-0.4016 0 0 -1.5 0 -1.5 0.4016 0c0.2635,-0.4553 0.6431,-0.835 1.0984,-1.0985l0 -0.4015 1.5 0 1.5 0 0 0.4015c0.4553,0.2635 0.8349,0.6432 1.0984,1.0985l0.4016 0 0 1.5 0 1.5 -0.4016 0c-0.2635,0.4553 -0.6431,0.835 -1.0984,1.0985l0 0.4015 -1.5 0 -1.5 0z"
	transform="scale(3.5433)"
	/>
	<path 
	style="fill:none;stroke:#000000;stroke-width:0.564445573335591px " 
	d=
	"M70 74.5
	l0 -0.4015c-0.4553,-0.2635 -0.8349,-0.6432 -1.0984,-1.0985l-0.4016 0 0 -1.5 0 -1.5 0.4016 0c0.2635,-0.4553 0.6431,-0.835 1.0984,-1.0985l0 -0.4015 1.5 0 1.5 0 0 0.4015c0.4553,0.2635 0.8349,0.6432 1.0984,1.0985l0.4016 0 0 1.5 0 1.5 -0.4016 0c-0.2635,0.4553 -0.6431,0.835 -1.0984,1.0985l0 0.4015 -1.5 0 -1.5 0z"
	transform="scale(3.5433)"
	/>
	<path 
	style="fill:none;stroke:#000000;stroke-width:0.564445573335591px " 
	d=
	"M90 14.5
	l0 -0.4015c-0.4553,-0.2635 -0.8349,-0.6432 -1.0984,-1.0985l-0.4016 0 0 -1.5 0 -1.5 0.4016 0c0.2635,-0.4553 0.6431,-0.835 1.0984,-1.0985l0 -0.4015 1.5 0 1.5 0 0 0.4015c0.4553,0.2635 0.8349,0.6432 1.0984,1.0985l0.4016 0 0 1.5 0 1.5 -0.4016 0c-0.2635,0.4553 -0.6431,0.835 -1.0984,1.0985l0 0.4015 -1.5 0 -1.5 0z"
	transform="scale(3.5433)"
	/>
	<path 
	style="fill:none;stroke:#000000;stroke-width:0.564445573335591px " 
	d=
	"M90 34.5
	l0 -0.4015c-0.4553,-0.2635 -0.8349,-0.6432 -1.0984,-1.0985l-0.4016 0 0 -1.5 0 -1.5 0.4016 0c0.2635,-0.4553 0.6431,-0.835 1.0984,-1.0985l0 -0.4015 1.5 0 1.5 0 0 0.4015c0.4553,0.2635 0.8349,0.6432 1.0984,1.0985l0.4016 0 0 1.5 0 1.5 -0.4016 0c-0.2635,0.4553 -0.6431,0.835 -1.0984,1.0985l0 0.4015 -1.5 0 -1.5 0z"
	transform="scale(3.5433)"
	/>
	<path 
	style="fill:none;stroke:#000000;stroke-width:0.564445573335591px " 
	d=
	"M90 54.5
	l0 -0.4015c-0.4553,-0.2635 -0.8349,-0.6432 -1.0984,-1.0985l-0.4016 0 0 -1.5 0 -1.5 0.4016 0c0.2635,-0.4553 0.6431,-0.835 1.0984,-1.0985l0 -0.4015 1.5 0 1.5 0 0 0.4015c0.4553,0.2635 0.8349,0.6432 1.0984,1.0985l0.4016 0 0 1.5 0 1.5 -0.4016 0c-0.2635,0.4553 -0.6431,0.835 -1.0984,1.0985l0 0.4015 -1.5 0 -1.5 0z"
	transform="scale(3.5433)"
	/>
	<path 
	style="fill:none;stroke:#000000;stroke-width:0.564445573335591px " 
	d=
	"M90 74.5
	l0 -0.4015c-0.4553,-0.2635 -0.8349,-0.6432 -1.0984,-1.0985l-0.4016 0 0 -1.5 0 -1.5 0.4016 0c0.2635,-0.4553 0.6431,-0.835 1.0984,-1.0985l0 -0.4015 1.5 0 1.5 0 0 0.4015c0.4553,0.2635 0.8349,0.6432 1.0984,1.0985l0.4016 0 0 1.5 0 1.5 -0.4016 0c-0.2635,0.4553 -0.6431,0.835 -1.0984,1.0985l0 0.4015 -1.5 0 -1.5 0z"
	transform="scale(3.5433)"
	/>
	<path 
	style="fill:none;stroke:#000000;stroke-width:0.564445573335591px " 
	d=
	"M110 14.5
	l0 -0.4015c-0.4553,-0.2635 -0.8349,-0.6432 -1.0984,-1.0985l-0.4016 0 0 -1.5 0 -1.5 0.4016 0c0.2635,-0.4553 0.6431,-0.835 1.0984,-1.0985l0 -0.4015 1.5 0 1.5 0 0 0.4015c0.4553,0.2635 0.8349,0.6432 1.0984,1.0985l0.4016 0 0 1.5 0 1.5 -0.4016 0c-0.2635,0.4553 -0.6431,0.835 -1.0984,1.0985l0 0.4015 -1.5 0 -1.5 0z"
	transform="scale(3.5433)"
	/>
	<path 
	style="fill:none;stroke:#000000;stroke-width:0.564445573335591px " 
	d=
	"M110 34.5
	l0 -0.4015c-0.4553,-0.2635 -0.8349,-0.6432 -1.0984,-1.0985l-0.4016 0 0 -1.5 0 -1.5 0.4016 0c0.2635,-0.4553 0.6431,-0.835 1.0984,-1.0985l0 -0.4015 1.5 0 1.5 0 0 0.4015c0.4553,0.2635 0.8349,0.6432 1.0984,1.0985l0.4016 0 0 1.5 0 1.5 -0.4016 0c-0.2635,0.4553 -0.6431,0.835 -1.0984,1.0985l0 0.4015 -1.5 0 -1.5 0z"
	transform="scale(3.5433)"
	/>
	<path 
	style="fill:none;stroke:#000000;stroke-width:0.564445573335591px " 
	d=
	"M110 54.5
	l0 -0.4015c-0.4553,-0.2635 -0.8349,-0.6432 -1.0984,-1.0985l-0.4016 0 0 -1.5 0 -1.5 0.4016 0c0.2635,-0.4553 0.6431,-0.835 1.0984,-1.0985l0 -0.4015 1.5 0 1.5 0 0 0.4015c0.4553,0.2635 0.8349,0.6432 1.0984,1.0985l0.4016 0 0 1.5 0 1.5 -0.4016 0c-0.2635,0.4553 -0.6431,0.835 -1.0984,1.0985l0 0.4015 -1.5 0 -1.5 0z"
	transform="scale(3.5433)"
	/>
	<path 
	style="fill:none;stroke:#000000;stroke-width:0.564445573335591px " 
	d=
	"M110 74.5
	l0 -0.4015c-0.4553,-0.2635 -0.8349,-0.6432 -1.0984,-1.0985l-0.4016 0 0 -1.5 0 -1.5 0.4016 0c0.2635,-0.4553 0.6431,-0.835 1.0984,-1.0985l0 -0.4015 1.5 0 1.5 0 0 0.4015c0.4553,0.2635 0.8349,0.6432 1.0984,1.0985l0.4016 0 0 1.5 0 1.5 -0.4016 0c-0.2635,0.4553 -0.6431,0.835 -1.0984,1.0985l0 0.4015 -1.5 0 -1.5 0z"
	transform="scale(3.5433)"
	/>
	<path 
	style="fill:none;stroke:#000000;stroke-width:0.564445573335591px " 
	d=
	"M130 14.5
	l0 -0.4015c-0.4553,-0.2635 -0.8349,-0.6432 -1.0984,-1.0985l-0.4016 0 0 -1.5 0 -1.5 0.4016 0c0.2635,-0.4553 0.6431,-0.835 1.0984,-1.0985l0 -0.4015 1.5 0 1.5 0 0 0.4015c0.4553,0.2635 0.8349,0.6432 1.0984,1.0985l0.4016 0 0 1.5 0 1.5 -0.4016 0c-0.2635,0.4553 -0.6431,0.835 -1.0984,1.0985l0 0.4015 -1.5 0 -1.5 0z"
	transform="scale(3.5433)"
	/>
	<path 
	style="fill:none;stroke:#000000;stroke-width:0.564445573335591px " 
	d=
	"M130 34.5
	l0 -0.4015c-0.4553,-0.2635 -0.8349,-0.6432 -1.0984,-1.0985l-0.4016 0 0 -1.5 0 -1.5 0.4016 0c0.2635,-0.4553 0.6431,-0.835 1.0984,-1.0985l0 -0.4015 1.5 0 1.5 0 0 0.4015c0.4553,0.2635 0.8349,0.6432 1.0984,1.0985l0.4016 0 0 1.5 0 1.5 -0.4016 0c-0.2635,0.4553 -0.6431,0.835 -1.0984,1.0985l0 0.4015 -1.5 0 -1.5 0z"
	transform="scale(3.5433)"
	/>
	<path 
	style="fill:none;stroke:#000000;stroke-width:0.564445573335591px " 
	d=
	"M130 54.5
	l0 -0.4015c-0.4553,-0.2635 -0.8349,-0.6432 -1.0984,-1.0985l-0.4016 0 0 -1.5 0 -1.5 0.4016 0c0.2635,-0.4553 0.6431,-0.835 1.0984,-1.0985l0 -0.4015 1.5 0 1.5 0 0 0.4015c0.4553,0.2635 0.8349,0.6432 1.0984,1.0985l0.4016 0 0 1.5 0 1.5 -0.4016 0c-0.2635,0.4553 -0.6431,0.835 -1.0984,1.0985l0 0.4015 -1.5 0 -1.5 0z"
	transform="scale(3.5433)"
	/>
	<path 
	style="fill:none;stroke:#000000;stroke-width:0.564445573335591px " 
	d=
	"M130 74.5
	l0 -0.4015c-0.4553,-0.2635 -0.8349,-0.6432 -1.0984,-1.0985l-0.4016 0 0 -1.5 0 -1.5 0.4016 0c0.2635,-0.4553 0.6431,-0.835 1.0984,-1.0985l0 -0.4015 1.5 0 1.5 0 0 0.4015c0.4553,0.2635 0.8349,0.6432 1.0984,1.0985l0.4016 0 0 1.5 0 1.5 -0.4016 0c-0.2635,0.4553 -0.6431,0.835 -1.0984,1.0985l0 0.4015 -1.5 0 -1.5 0z"
	transform="scale(3.5433)"
	/>
	<path 
	style="fill:none;stroke:#000000;stroke-width:0.564445573335591px " 
	d=
	"M150 14.5
	l0 -0.4015c-0.4553,-0.2635 -0.8349,-0.6432 -1.0984,-1.0985l-0.4016 0 0 -1.5 0 -1.5 0.4016 0c0.2635,-0.4553 0.6431,-0.835 1.0984,-1.0985l0 -0.4015 1.5 0 1.5 0 0 0.4015c0.4553,0.2635 0.8349,0.6432 1.0984,1.0985l0.4016 0 0 1.5 0 1.5 -0.4016 0c-0.2635,0.4553 -0.6431,0.835 -1.0984,1.0985l0 0.4015 -1.5 0 -1.5 0z"
	transform="scale(3.5433)"
	/>
	<path 
	style="fill:none;stroke:#000000;stroke-width:0.564445573335591px " 
	d=
	"M150 34.5
	l0 -0.4015c-0.4553,-0.2635 -0.8349,-0.6432 -1.0984,-1.0985l-0.4016 0 0 -1.5 0 -1.5 0.4016 0c0.2635,-0.4553 0.6431,-0.835 1.0984,-1.0985l0 -0.4015 1.5 0 1.5 0 0 0.4015c0.4553,0.2635 0.8349,0.6432 1.0984,1.0985l0.4016 0 0 1.5 0 1.5 -0.4016 0c-0.2635,0.4553 -0.6431,0.835 -1.0984,1.0985l0 0.4015 -1.5 0 -1.5 0z"
	transform="scale(3.5433)"
	/>
	<path 
	style="fill:none;stroke:#000000;stroke-width:0.564445573335591px " 
	d=
	"M150 54.5
	l0 -0.4015c-0.4553,-0.2635 -0.8349,-0.6432 -1.0984,-1.0985l-0.4016 0 0 -1.5 0 -1.5 0.4016 0c0.2635,-0.4553 0.6431,-0.835 1.0984,-1.0985l0 -0.4015 1.5 0 1.5 0 0 0.4015c0.4553,0.2635 0.8349,0.6432 1.0984,1.0985l0.4016 0 0 1.5 0 1.5 -0.4016 0c-0.2635,0.4553 -0.6431,0.835 -1.0984,1.0985l0 0.4015 -1.5 0 -1.5 0z"
	transform="scale(3.5433)"
	/>
	<path 
	style="fill:none;stroke:#000000;stroke-width:0.564445573335591px " 
	d=
	"M150 74.5
	l0 -0.4015c-0.4553,-0.2635 -0.8349,-0.6432 -1.0984,-1.0985l-0.4016 0 0 -1.5 0 -1.5 0.4016 0c0.2635,-0.4553 0.6431,-0.835 1.0984,-1.0985l0 -0.4015 1.5 0 1.5 0 0 0.4015c0.4553,0.2635 0.8349,0.6432 1.0984,1.0985l0.4016 0 0 1.5 0 1.5 -0.4016 0c-0.2635,0.4553 -0.6431,0.835 -1.0984,1.0985l0 0.4015 -1.5 0 -1.5 0z"
	transform="scale(3.5433)"
	/>
	<path 
	style="fill:none;stroke:#000000;stroke-width:0.564445573335591px " 
	d=
	"M170 14.5
	l0 -0.4015c-0.4553,-0.2635 -0.8349,-0.6432 -1.0984,-1.0985l-0.4016 0 0 -1.5 0 -1.5 0.4016 0c0.2635,-0.4553 0.6431,-0.835 1.0984,-1.0985l0 -0.4015 1.5 0 1.5 0 0 0.4015c0.4553,0.2635 0.8349,0.6432 1.0984,1.0985l0.4016 0 0 1.5 0 1.5 -0.4016 0c-0.2635,0.4553 -0.6431,0.835 -1.0984,1.0985l0 0.4015 -1.5 0 -1.5 0z"
	transform="scale(3.5433)"
	/>
	<path 
	style="fill:none;stroke:#000000;stroke-width:0.564445573335591px " 
	d=
	"M170 34.5
	l0 -0.4015c-0.4553,-0.2635 -0.8349,-0.6432 -1.0984,-1.0985l-0.4016 0 0 -1.5 0 -1.5 0.4016 0c0.2635,-0.4553 0.6431,-0.835 1.0984,-1.0985l0 -0.4015 1.5 0 1.5 0 0 0.4015c0.4553,0.2635 0.8349,0.6432 1.0984,1.0985l0.4016 0 0 1.5 0 1.5 -0.4016 0c-0.2635,0.4553 -0.6431,0.835 -1.0984,1.0985l0 0.4015 -1.5 0 -1.5 0z"
	transform="scale(3.5433)"
	/>
	<path 
	style="fill:none;stroke:#000000;stroke-width:0.564445573335591px " 
	d=
	"M170 54.5
	l0 -0.4015c-0.4553,-0.2635 -0.8349,-0.6432 -1.0984,-1.0985l-0.4016 0 0 -1.5 0 -1.5 0.4016 0c0.2635,-0.4553 0.6431,-0.835 1.0984,-1.0985l0 -0.4015 1.5 0 1.5 0 0 0.4015c0.4553,0.2635 0.8349,0.6432 1.0984,1.0985l0.4016 0 0 1.5 0 1.5 -0.4016 0c-0.2635,0.4553 -0.6431,0.835 -1.0984,1.0985l0 0.4015 -1.5 0 -1.5 0z"
	transform="scale(3.5433)"
	/>
	<path 
	style="fill:none;stroke:#000000;stroke-width:0.564445573335591px " 
	d=
	"M170 74.5
	l0 -0.4015c-0.4553,-0.2635 -0.8349,-0.6432 -1.0984,-1.0985l-0.4016 0 0 -1.5 0 -1.5 0.4016 0c0.2635,-0.4553 0.6431,-0.835 1.0984,-1.0985l0 -0.4015 1.5 0 1.5 0 0 0.4015c0.4553,0.2635 0.8349,0.6432 1.0984,1.0985l0.4016 0 0 1.5 0 1.5 -0.4016 0c-0.2635,0.4553 -0.6431,0.835 -1.0984,1.0985l0 0.4015 -1.5 0 -1.5 0z"
	transform="scale(3.5433)"
	/>
	<path 
	style="fill:none;stroke:#000000;stroke-width:0.564445573335591px " 
	d=
	"M190 14.5
	l0 -0.4015c-0.4553,-0.2635 -0.8349,-0.6432 -1.0984,-1.0985l-0.4016 0 0 -1.5 0 -1.5 0.4016 0c0.2635,-0.4553 0.6431,-0.835 1.0984,-1.0985l0 -0.4015 1.5 0 1.5 0 0 0.4015c0.4553,0.2635 0.8349,0.6432 1.0984,1.0985l0.4016 0 0 1.5 0 1.5 -0.4016 0c-0.2635,0.4553 -0.6431,0.835 -1.0984,1.0985l0 0.4015 -1.5 0 -1.5 0z"
	transform="scale(3.5433)"
	/>
	<path 
	style="fill:none;stroke:#000000;stroke-width:0.564445573335591px " 
	d=
	"M190 34.5
	l0 -0.4015c-0.4553,-0.2635 -0.8349,-0.6432 -1.0984,-1.0985l-0.4016 0 0 -1.5 0 -1.5 0.4016 0c0.2635,-0.4553 0.6431,-0.835 1.0984,-1.0985l0 -0.4015 1.5 0 1.5 0 0 0.4015c0.4553,0.2635 0.8349,0.6432 1.0984,1.0985l0.4016 0 0 1.5 0 1.5 -0.4016 0c-0.2635,0.4553 -0.6431,0.835 -1.0984,1.0985l0 0.4015 -1.5 0 -1.5 0z"
	transform="scale(3.5433)"
	/>
	<path 
	style="fill:none;stroke:#000000;stroke-width:0.564445573335591px " 
	d=
	"M190 54.5
	l0 -0.4015c-0.4553,-0.2635 -0.8349,-0.6432 -1.0984,-1.0985l-0.4016 0 0 -1.5 0 -1.5 0.4016 0c0.2635,-0.4553 0.6431,-0.835 1.0984,-1.0985l0 -0.4015 1.5 0 1.5 0 0 0.4015c0.4553,0.2635 0.8349,0.6432 1.0984,1.0985l0.4016 0 0 1.5 0 1.5 -0.4016 0c-0.2635,0.4553 -0.6431,0.835 -1.0984,1.0985l0 0.4015 -1.5 0 -1.5 0z"
	transform="scale(3.5433)"
	/>
	<path 
	style="fill:none;stroke:#000000;stroke-width:0.564445573335591px " 
	d=
	"M190 74.5
	l0 -0.4015c-0.4553,-0.2635 -0.8349,-0.6432 -1.0984,-1.0985l-0.4016 0 0 -1.5 0 -1.5 0.4016 0c0.2635,-0.4553 0.6431,-0.835 1.0984,-1.0985l0 -0.4015 1.5 0 1.5 0 0 0.4015c0.4553,0.2635 0.8349,0.6432 1.0984,1.0985l0.4016 0 0 1.5 0 1.5 -0.4016 0c-0.2635,0.4553 -0.6431,0.835 -1.0984,1.0985l0 0.4015 -1.5 0 -1.5 0z"
	transform="scale(3.5433)"
	/>
	<path 
	style="fill:none;stroke:#000000;stroke-width:0.564445573335591px " 
	d=
	"M210 14.5
	l0 -0.4015c-0.4553,-0.2635 -0.8349,-0.6432 -1.0984,-1.0985l-0.4016 0 0 -1.5 0 -1.5 0.4016 0c0.2635,-0.4553 0.6431,-0.835 1.0984,-1.0985l0 -0.4015 1.5 0 1.5 0 0 0.4015c0.4553,0.2635 0.8349,0.6432 1.0984,1.0985l0.4016 0 0 1.5 0 1.5 -0.4016 0c-0.2635,0.4553 -0.6431,0.835 -1.0984,1.0985l0 0.4015 -1.5 0 -1.5 0z"
	transform="scale(3.5433)"
	/>
	<path 
	style="fill:none;stroke:#000000;stroke-width:0.564445573335591px " 
	d=
	"M210 34.5
	l0 -0.4015c-0.4553,-0.2635 -0.8349,-0.6432 -1.0984,-1.0985l-0.4016 0 0 -1.5 0 -1.5 0.4016 0c0.2635,-0.4553 0.6431,-0.835 1.0984,-1.0985l0 -0.4015 1.5 0 1.5 0 0 0.4015c0.4553,0.2635 0.8349,0.6432 1.0984,1.0985l0.4016 0 0 1.5 0 1.5 -0.4016 0c-0.2635,0.4553 -0.6431,0.835 -1.0984,1.0985l0 0.4015 -1.5 0 -1.5 0z"
	transform="scale(3.5433)"
	/>
	<path 
	style="fill:none;stroke:#000000;stroke-width:0.564445573335591px " 
	d=
	"M210 54.5
	l0 -0.4015c-0.4553,-0.2635 -0.8349,-0.6432 -1.0984,-1.0985l-0.4016 0 0 -1.5 0 -1.5 0.4016 0c0.2635,-0.4553 0.6431,-0.835 1.0984,-1.0985l0 -0.4015 1.5 0 1.5 0 0 0.4015c0.4553,0.2635 0.8349,0.6432 1.0984,1.0985l0.4016 0 0 1.5 0 1.5 -0.4016 0c-0.2635,0.4553 -0.6431,0.835 -1.0984,1.0985l0 0.4015 -1.5 0 -1.5 0z"
	transform="scale(3.5433)"
	/>
	<path 
	style="fill:none;stroke:#000000;stroke-width:0.564445573335591px " 
	d=
	"M210 74.5
	l0 -0.4015c-0.4553,-0.2635 -0.8349,-0.6432 -1.0984,-1.0985l-0.4016 0 0 -1.5 0 -1.5 0.4016 0c0.2635,-0.4553 0.6431,-0.835 1.0984,-1.0985l0 -0.4015 1.5 0 1.5 0 0 0.4015c0.4553,0.2635 0.8349,0.6432 1.0984,1.0985l0.4016 0 0 1.5 0 1.5 -0.4016 0c-0.2635,0.4553 -0.6431,0.835 -1.0984,1.0985l0 0.4015 -1.5 0 -1.5 0z"
	transform="scale(3.5433)"
	/>
	<path 
	style="fill:none;stroke:#000000;stroke-width:0.564445573335591px " 
	d=
	"M230 14.5
	l0 -0.4015c-0.4553,-0.2635 -0.8349,-0.6432 -1.0984,-1.0985l-0.4016 0 0 -1.5 0 -1.5 0.4016 0c0.2635,-0.4553 0.6431,-0.835 1.0984,-1.0985l0 -0.4015 1.5 0 1.5 0 0 0.4015c0.4553,0.2635 0.8349,0.6432 1.0984,1.0985l0.4016 0 0 1.5 0 1.5 -0.4016 0c-0.2635,0.4553 -0.6431,0.835 -1.0984,1.0985l0 0.4015 -1.5 0 -1.5 0z"
	transform="scale(3.5433)"
	/>
	<path 
	style="fill:none;stroke:#000000;stroke-width:0.564445573335591px " 
	d=
	"M230 34.5
	l0 -0.4015c-0.4553,-0.2635 -0.8349,-0.6432 -1.0984,-1.0985l-0.4016 0 0 -1.5 0 -1.5 0.4016 0c0.2635,-0.4553 0.6431,-0.835 1.0984,-1.0985l0 -0.4015 1.5 0 1.5 0 0 0.4015c0.4553,0.2635 0.8349,0.6432 1.0984,1.0985l0.4016 0 0 1.5 0 1.5 -0.4016 0c-0.2635,0.4553 -0.6431,0.835 -1.0984,1.0985l0 0.4015 -1.5 0 -1.5 0z"
	transform="scale(3.5433)"
	/>
	<path 
	style="fill:none;stroke:#000000;stroke-width:0.564445573335591px " 
	d=
	"M230 54.5
	l0 -0.4015c-0.4553,-0.2635 -0.8349,-0.6432 -1.0984,-1.0985l-0.4016 0 0 -1.5 0 -1.5 0.4016 0c0.2635,-0.4553 0.6431,-0.835 1.0984,-1.0985l0 -0.4015 1.5 0 1.5 0 0 0.4015c0.4553,0.2635 0.8349,0.6432 1.0984,1.0985l0.4016 0 0 1.5 0 1.5 -0.4016 0c-0.2635,0.4553 -0.6431,0.835 -1.0984,1.0985l0 0.4015 -1.5 0 -1.5 0z"
	transform="scale(3.5433)"
	/>
	<path 
	style="fill:none;stroke:#000000;stroke-width:0.564445573335591px " 
	d=
	"M230 74.5
	l0 -0.4015c-0.4553,-0.2635 -0.8349,-0.6432 -1.0984,-1.0985l-0.4016 0 0 -1.5 0 -1.5 0.4016 0c0.2635,-0.4553 0.6431,-0.835 1.0984,-1.0985l0 -0.4015 1.5 0 1.5 0 0 0.4015c0.4553,0.2635 0.8349,0.6432 1.0984,1.0985l0.4016 0 0 1.5 0 1.5 -0.4016 0c-0.2635,0.4553 -0.6431,0.835 -1.0984,1.0985l0 0.4015 -1.5 0 -1.5 0z"
	transform="scale(3.5433)"
	/>
	<path 
	style="fill:none;stroke:#000000;stroke-width:0.564445573335591px " 
	d=
	"M250 14.5
	l0 -0.4015c-0.4553,-0.2635 -0.8349,-0.6432 -1.0984,-1.0985l-0.4016 0 0 -1.5 0 -1.5 0.4016 0c0.2635,-0.4553 0.6431,-0.835 1.0984,-1.0985l0 -0.4015 1.5 0 1.5 0 0 0.4015c0.4553,0.2635 0.8349,0.6432 1.0984,1.0985l0.4016 0 0 1.5 0 1.5 -0.4016 0c-0.2635,0.4553 -0.6431,0.835 -1.0984,1.0985l0 0.4015 -1.5 0 -1.5 0z"
	transform="scale(3.5433)"
	/>
	<path 
	style="fill:none;stroke:#000000;stroke-width:0.564445573335591px " 
	d=
	"M250 34.5
	l0 -0.4015c-0.4553,-0.2635 -0.8349,-0.6432 -1.0984,-1.0985l-0.4016 0 0 -1.5 0 -1.5 0.4016 0c0.2635,-0.4553 0.6431,-0.835 1.0984,-1.0985l0 -0.4015 1.5 0 1.5 0 0 0.4015c0.4553,0.2635 0.8349,0.6432 1.0984,1.0985l0.4016 0 0 1.5 0 1.5 -0.4016 0c-0.2635,0.4553 -0.6431,0.835 -1.0984,1.0985l0 0.4015 -1.5 0 -1.5 0z"
	transform="scale(3.5433)"
	/>
	<path 
	style="fill:none;stroke:#000000;stroke-width:0.564445573335591px " 
	d=
	"M250 54.5
	l0 -0.4015c-0.4553,-0.2635 -0.8349,-0.6432 -1.0984,-1.0985l-0.4016 0 0 -1.5 0 -1.5 0.4016 0c0.2635,-0.4553 0.6431,-0.835 1.0984,-1.0985l0 -0.4015 1.5 0 1.5 0 0 0.4015c0.4553,0.2635 0.8349,0.6432 1.0984,1.0985l0.4016 0 0 1.5 0 1.5 -0.4016 0c-0.2635,0.4553 -0.6431,0.835 -1.0984,1.0985l0 0.4015 -1.5 0 -1.5 0z"
	transform="scale(3.5433)"
	/>
	<path 
	style="fill:none;stroke:#000000;stroke-width:0.564445573335591px " 
	d=
	"M250 74.5
	l0 -0.4015c-0.4553,-0.2635 -0.8349,-0.6432 -1.0984,-1.0985l-0.4016 0 0 -1.5 0 -1.5 0.4016 0c0.2635,-0.4553 0.6431,-0.835 1.0984,-1.0985l0 -0.4015 1.5 0 1.5 0 0 0.4015c0.4553,0.2635 0.8349,0.6432 1.0984,1.0985l0.4016 0 0 1.5 0 1.5 -0.4016 0c-0.2635,0.4553 -0.6431,0.835 -1.0984,1.0985l0 0.4015 -1.5 0 -1.5 0z"
	transform="scale(3.5433)"
	/>
	<path 
	style="fill:none;stroke:#000000;stroke-width:0.564445573335591px " 
	d=
	"M270 14.5
	l0 -0.4015c-0.4553,-0.2635 -0.8349,-0.6432 -1.0984,-1.0985l-0.4016 0 0 -1.5 0 -1.5 0.4016 0c0.2635,-0.4553 0.6431,-0.835 1.0984,-1.0985l0 -0.4015 1.5 0 1.5 0 0 0.4015c0.4553,0.2635 0.8349,0.6432 1.0984,1.0985l0.4016 0 0 1.5 0 1.5 -0.4016 0c-0.2635,0.4553 -0.6431,0.835 -1.0984,1.0985l0 0.4015 -1.5 0 -1.5 0z"
	transform="scale(3.5433)"
	/>
	<path 
	style="fill:none;stroke:#000000;stroke-width:0.564445573335591px " 
	d=
	"M270 34.5
	l0 -0.4015c-0.4553,-0.2635 -0.8349,-0.6432 -1.0984,-1.0985l-0.4016 0 0 -1.5 0 -1.5 0.4016 0c0.2635,-0.4553 0.6431,-0.835 1.0984,-1.0985l0 -0.4015 1.5 0 1.5 0 0 0.4015c0.4553,0.2635 0.8349,0.6432 1.0984,1.0985l0.4016 0 0 1.5 0 1.5 -0.4016 0c-0.2635,0.4553 -0.6431,0.835 -1.0984,1.0985l0 0.4015 -1.5 0 -1.5 0z"
	transform="scale(3.5433)"
	/>
	<path 
	style="fill:none;stroke:#000000;stroke-width:0.564445573335591px " 
	d=
	"M270 54.5
	l0 -0.4015c-0.4553,-0.2635 -0.8349,-0.6432 -1.0984,-1.0985l-0.4016 0 0 -1.5 0 -1.5 0.4016 0c0.2635,-0.4553 0.6431,-0.835 1.0984,-1.0985l0 -0.4015 1.5 0 1.5 0 0 0.4015c0.4553,0.2635 0.8349,0.6432 1.0984,1.0985l0.4016 0 0 1.5 0 1.5 -0.4016 0c-0.2635,0.4553 -0.6431,0.835 -1.0984,1.0985l0 0.4015 -1.5 0 -1.5 0z"
	transform="scale(3.5433)"
	/>
	<path 
	style="fill:none;stroke:#000000;stroke-width:0.564445573335591px " 
	d=
	"M270 74.5
	l0 -0.4015c-0.4553,-0.2635 -0.8349,-0.6432 -1.0984,-1.0985l-0.4016 0 0 -1.5 0 -1.5 0.4016 0c0.2635,-0.4553 0.6431,-0.835 1.0984,-1.0985l0 -0.4015 1.5 0 1.5 0 0 0.4015c0.4553,0.2635 0.8349,0.6432 1.0984,1.0985l0.4016 0 0 1.5 0 1.5 -0.4016 0c-0.2635,0.4553 -0.6431,0.835 -1.0984,1.0985l0 0.4015 -1.5 0 -1.5 0z"
	transform="scale(3.5433)"
	/>
	<rect
		style="fill:none;stroke:#000000;stroke-width:2px " 
		x="10mm"
		y="58.5mm"
		width="3mm"
		height="6mm"
		id="oomID1084"
	/>
	<rect
		style="fill:none;stroke:#000000;stroke-width:2px " 
		x="10mm"
		y="38.5mm"
		width="3mm"
		height="6mm"
		id="oomID1085"
	/>
	<rect
		style="fill:none;stroke:#000000;stroke-width:2px " 
		x="10mm"
		y="18.5mm"
		width="3mm"
		height="6mm"
		id="oomID1086"
	/>
	<rect
		style="fill:none;stroke:#000000;stroke-width:2px " 
		x="30mm"
		y="58.5mm"
		width="3mm"
		height="6mm"
		id="oomID1087"
	/>
	<rect
		style="fill:none;stroke:#000000;stroke-width:2px " 
		x="30mm"
		y="38.5mm"
		width="3mm"
		height="6mm"
		id="oomID1088"
	/>
	<rect
		style="fill:none;stroke:#000000;stroke-width:2px " 
		x="30mm"
		y="18.5mm"
		width="3mm"
		height="6mm"
		id="oomID1089"
	/>
	<rect
		style="fill:none;stroke:#000000;stroke-width:2px " 
		x="50mm"
		y="58.5mm"
		width="3mm"
		height="6mm"
		id="oomID1090"
	/>
	<rect
		style="fill:none;stroke:#000000;stroke-width:2px " 
		x="50mm"
		y="38.5mm"
		width="3mm"
		height="6mm"
		id="oomID1091"
	/>
	<rect
		style="fill:none;stroke:#000000;stroke-width:2px " 
		x="50mm"
		y="18.5mm"
		width="3mm"
		height="6mm"
		id="oomID1092"
	/>
	<rect
		style="fill:none;stroke:#000000;stroke-width:2px " 
		x="70mm"
		y="58.5mm"
		width="3mm"
		height="6mm"
		id="oomID1093"
	/>
	<rect
		style="fill:none;stroke:#000000;stroke-width:2px " 
		x="70mm"
		y="38.5mm"
		width="3mm"
		height="6mm"
		id="oomID1094"
	/>
	<rect
		style="fill:none;stroke:#000000;stroke-width:2px " 
		x="70mm"
		y="18.5mm"
		width="3mm"
		height="6mm"
		id="oomID1095"
	/>
	<rect
		style="fill:none;stroke:#000000;stroke-width:2px " 
		x="90mm"
		y="58.5mm"
		width="3mm"
		height="6mm"
		id="oomID1096"
	/>
	<rect
		style="fill:none;stroke:#000000;stroke-width:2px " 
		x="90mm"
		y="38.5mm"
		width="3mm"
		height="6mm"
		id="oomID1097"
	/>
	<rect
		style="fill:none;stroke:#000000;stroke-width:2px " 
		x="90mm"
		y="18.5mm"
		width="3mm"
		height="6mm"
		id="oomID1098"
	/>
	<rect
		style="fill:none;stroke:#000000;stroke-width:2px " 
		x="110mm"
		y="58.5mm"
		width="3mm"
		height="6mm"
		id="oomID1099"
	/>
	<rect
		style="fill:none;stroke:#000000;stroke-width:2px " 
		x="110mm"
		y="38.5mm"
		width="3mm"
		height="6mm"
		id="oomID1100"
	/>
	<rect
		style="fill:none;stroke:#000000;stroke-width:2px " 
		x="110mm"
		y="18.5mm"
		width="3mm"
		height="6mm"
		id="oomID1101"
	/>
	<rect
		style="fill:none;stroke:#000000;stroke-width:2px " 
		x="130mm"
		y="58.5mm"
		width="3mm"
		height="6mm"
		id="oomID1102"
	/>
	<rect
		style="fill:none;stroke:#000000;stroke-width:2px " 
		x="130mm"
		y="38.5mm"
		width="3mm"
		height="6mm"
		id="oomID1103"
	/>
	<rect
		style="fill:none;stroke:#000000;stroke-width:2px " 
		x="130mm"
		y="18.5mm"
		width="3mm"
		height="6mm"
		id="oomID1104"
	/>
	<rect
		style="fill:none;stroke:#000000;stroke-width:2px " 
		x="150mm"
		y="58.5mm"
		width="3mm"
		height="6mm"
		id="oomID1105"
	/>
	<rect
		style="fill:none;stroke:#000000;stroke-width:2px " 
		x="150mm"
		y="38.5mm"
		width="3mm"
		height="6mm"
		id="oomID1106"
	/>
	<rect
		style="fill:none;stroke:#000000;stroke-width:2px " 
		x="150mm"
		y="18.5mm"
		width="3mm"
		height="6mm"
		id="oomID1107"
	/>
	<rect
		style="fill:none;stroke:#000000;stroke-width:2px " 
		x="170mm"
		y="58.5mm"
		width="3mm"
		height="6mm"
		id="oomID1108"
	/>
	<rect
		style="fill:none;stroke:#000000;stroke-width:2px " 
		x="170mm"
		y="38.5mm"
		width="3mm"
		height="6mm"
		id="oomID1109"
	/>
	<rect
		style="fill:none;stroke:#000000;stroke-width:2px " 
		x="170mm"
		y="18.5mm"
		width="3mm"
		height="6mm"
		id="oomID1110"
	/>
	<rect
		style="fill:none;stroke:#000000;stroke-width:2px " 
		x="190mm"
		y="58.5mm"
		width="3mm"
		height="6mm"
		id="oomID1111"
	/>
	<rect
		style="fill:none;stroke:#000000;stroke-width:2px " 
		x="190mm"
		y="38.5mm"
		width="3mm"
		height="6mm"
		id="oomID1112"
	/>
	<rect
		style="fill:none;stroke:#000000;stroke-width:2px " 
		x="190mm"
		y="18.5mm"
		width="3mm"
		height="6mm"
		id="oomID1113"
	/>
	<rect
		style="fill:none;stroke:#000000;stroke-width:2px " 
		x="210mm"
		y="58.5mm"
		width="3mm"
		height="6mm"
		id="oomID1114"
	/>
	<rect
		style="fill:none;stroke:#000000;stroke-width:2px " 
		x="210mm"
		y="38.5mm"
		width="3mm"
		height="6mm"
		id="oomID1115"
	/>
	<rect
		style="fill:none;stroke:#000000;stroke-width:2px " 
		x="210mm"
		y="18.5mm"
		width="3mm"
		height="6mm"
		id="oomID1116"
	/>
	<rect
		style="fill:none;stroke:#000000;stroke-width:2px " 
		x="230mm"
		y="58.5mm"
		width="3mm"
		height="6mm"
		id="oomID1117"
	/>
	<rect
		style="fill:none;stroke:#000000;stroke-width:2px " 
		x="230mm"
		y="38.5mm"
		width="3mm"
		height="6mm"
		id="oomID1118"
	/>
	<rect
		style="fill:none;stroke:#000000;stroke-width:2px " 
		x="230mm"
		y="18.5mm"
		width="3mm"
		height="6mm"
		id="oomID1119"
	/>
	<rect
		style="fill:none;stroke:#000000;stroke-width:2px " 
		x="250mm"
		y="58.5mm"
		width="3mm"
		height="6mm"
		id="oomID1120"
	/>
	<rect
		style="fill:none;stroke:#000000;stroke-width:2px " 
		x="250mm"
		y="38.5mm"
		width="3mm"
		height="6mm"
		id="oomID1121"
	/>
	<rect
		style="fill:none;stroke:#000000;stroke-width:2px " 
		x="250mm"
		y="18.5mm"
		width="3mm"
		height="6mm"
		id="oomID1122"
	/>
	<rect
		style="fill:none;stroke:#000000;stroke-width:2px " 
		x="270mm"
		y="58.5mm"
		width="3mm"
		height="6mm"
		id="oomID1123"
	/>
	<rect
		style="fill:none;stroke:#000000;stroke-width:2px " 
		x="270mm"
		y="38.5mm"
		width="3mm"
		height="6mm"
		id="oomID1124"
	/>
	<rect
		style="fill:none;stroke:#000000;stroke-width:2px " 
		x="270mm"
		y="18.5mm"
		width="3mm"
		height="6mm"
		id="oomID1125"
	/>
	<rect
		style="fill:none;stroke:#000000;stroke-width:2px " 
		x="18.5mm"
		y="70mm"
		width="6mm"
		height="3mm"
		id="oomID1126"
	/>
	<rect
		style="fill:none;stroke:#000000;stroke-width:2px " 
		x="18.5mm"
		y="50mm"
		width="6mm"
		height="3mm"
		id="oomID1127"
	/>
	<rect
		style="fill:none;stroke:#000000;stroke-width:2px " 
		x="18.5mm"
		y="30mm"
		width="6mm"
		height="3mm"
		id="oomID1128"
	/>
	<rect
		style="fill:none;stroke:#000000;stroke-width:2px " 
		x="18.5mm"
		y="10mm"
		width="6mm"
		height="3mm"
		id="oomID1129"
	/>
	<rect
		style="fill:none;stroke:#000000;stroke-width:2px " 
		x="38.5mm"
		y="70mm"
		width="6mm"
		height="3mm"
		id="oomID1130"
	/>
	<rect
		style="fill:none;stroke:#000000;stroke-width:2px " 
		x="38.5mm"
		y="50mm"
		width="6mm"
		height="3mm"
		id="oomID1131"
	/>
	<rect
		style="fill:none;stroke:#000000;stroke-width:2px " 
		x="38.5mm"
		y="30mm"
		width="6mm"
		height="3mm"
		id="oomID1132"
	/>
	<rect
		style="fill:none;stroke:#000000;stroke-width:2px " 
		x="38.5mm"
		y="10mm"
		width="6mm"
		height="3mm"
		id="oomID1133"
	/>
	<rect
		style="fill:none;stroke:#000000;stroke-width:2px " 
		x="58.5mm"
		y="70mm"
		width="6mm"
		height="3mm"
		id="oomID1134"
	/>
	<rect
		style="fill:none;stroke:#000000;stroke-width:2px " 
		x="58.5mm"
		y="50mm"
		width="6mm"
		height="3mm"
		id="oomID1135"
	/>
	<rect
		style="fill:none;stroke:#000000;stroke-width:2px " 
		x="58.5mm"
		y="30mm"
		width="6mm"
		height="3mm"
		id="oomID1136"
	/>
	<rect
		style="fill:none;stroke:#000000;stroke-width:2px " 
		x="58.5mm"
		y="10mm"
		width="6mm"
		height="3mm"
		id="oomID1137"
	/>
	<rect
		style="fill:none;stroke:#000000;stroke-width:2px " 
		x="78.5mm"
		y="70mm"
		width="6mm"
		height="3mm"
		id="oomID1138"
	/>
	<rect
		style="fill:none;stroke:#000000;stroke-width:2px " 
		x="78.5mm"
		y="50mm"
		width="6mm"
		height="3mm"
		id="oomID1139"
	/>
	<rect
		style="fill:none;stroke:#000000;stroke-width:2px " 
		x="78.5mm"
		y="30mm"
		width="6mm"
		height="3mm"
		id="oomID1140"
	/>
	<rect
		style="fill:none;stroke:#000000;stroke-width:2px " 
		x="78.5mm"
		y="10mm"
		width="6mm"
		height="3mm"
		id="oomID1141"
	/>
	<rect
		style="fill:none;stroke:#000000;stroke-width:2px " 
		x="98.5mm"
		y="70mm"
		width="6mm"
		height="3mm"
		id="oomID1142"
	/>
	<rect
		style="fill:none;stroke:#000000;stroke-width:2px " 
		x="98.5mm"
		y="50mm"
		width="6mm"
		height="3mm"
		id="oomID1143"
	/>
	<rect
		style="fill:none;stroke:#000000;stroke-width:2px " 
		x="98.5mm"
		y="30mm"
		width="6mm"
		height="3mm"
		id="oomID1144"
	/>
	<rect
		style="fill:none;stroke:#000000;stroke-width:2px " 
		x="98.5mm"
		y="10mm"
		width="6mm"
		height="3mm"
		id="oomID1145"
	/>
	<rect
		style="fill:none;stroke:#000000;stroke-width:2px " 
		x="118.5mm"
		y="70mm"
		width="6mm"
		height="3mm"
		id="oomID1146"
	/>
	<rect
		style="fill:none;stroke:#000000;stroke-width:2px " 
		x="118.5mm"
		y="50mm"
		width="6mm"
		height="3mm"
		id="oomID1147"
	/>
	<rect
		style="fill:none;stroke:#000000;stroke-width:2px " 
		x="118.5mm"
		y="30mm"
		width="6mm"
		height="3mm"
		id="oomID1148"
	/>
	<rect
		style="fill:none;stroke:#000000;stroke-width:2px " 
		x="118.5mm"
		y="10mm"
		width="6mm"
		height="3mm"
		id="oomID1149"
	/>
	<rect
		style="fill:none;stroke:#000000;stroke-width:2px " 
		x="138.5mm"
		y="70mm"
		width="6mm"
		height="3mm"
		id="oomID1150"
	/>
	<rect
		style="fill:none;stroke:#000000;stroke-width:2px " 
		x="138.5mm"
		y="50mm"
		width="6mm"
		height="3mm"
		id="oomID1151"
	/>
	<rect
		style="fill:none;stroke:#000000;stroke-width:2px " 
		x="138.5mm"
		y="30mm"
		width="6mm"
		height="3mm"
		id="oomID1152"
	/>
	<rect
		style="fill:none;stroke:#000000;stroke-width:2px " 
		x="138.5mm"
		y="10mm"
		width="6mm"
		height="3mm"
		id="oomID1153"
	/>
	<rect
		style="fill:none;stroke:#000000;stroke-width:2px " 
		x="158.5mm"
		y="70mm"
		width="6mm"
		height="3mm"
		id="oomID1154"
	/>
	<rect
		style="fill:none;stroke:#000000;stroke-width:2px " 
		x="158.5mm"
		y="50mm"
		width="6mm"
		height="3mm"
		id="oomID1155"
	/>
	<rect
		style="fill:none;stroke:#000000;stroke-width:2px " 
		x="158.5mm"
		y="30mm"
		width="6mm"
		height="3mm"
		id="oomID1156"
	/>
	<rect
		style="fill:none;stroke:#000000;stroke-width:2px " 
		x="158.5mm"
		y="10mm"
		width="6mm"
		height="3mm"
		id="oomID1157"
	/>
	<rect
		style="fill:none;stroke:#000000;stroke-width:2px " 
		x="178.5mm"
		y="70mm"
		width="6mm"
		height="3mm"
		id="oomID1158"
	/>
	<rect
		style="fill:none;stroke:#000000;stroke-width:2px " 
		x="178.5mm"
		y="50mm"
		width="6mm"
		height="3mm"
		id="oomID1159"
	/>
	<rect
		style="fill:none;stroke:#000000;stroke-width:2px " 
		x="178.5mm"
		y="30mm"
		width="6mm"
		height="3mm"
		id="oomID1160"
	/>
	<rect
		style="fill:none;stroke:#000000;stroke-width:2px " 
		x="178.5mm"
		y="10mm"
		width="6mm"
		height="3mm"
		id="oomID1161"
	/>
	<rect
		style="fill:none;stroke:#000000;stroke-width:2px " 
		x="198.5mm"
		y="70mm"
		width="6mm"
		height="3mm"
		id="oomID1162"
	/>
	<rect
		style="fill:none;stroke:#000000;stroke-width:2px " 
		x="198.5mm"
		y="50mm"
		width="6mm"
		height="3mm"
		id="oomID1163"
	/>
	<rect
		style="fill:none;stroke:#000000;stroke-width:2px " 
		x="198.5mm"
		y="30mm"
		width="6mm"
		height="3mm"
		id="oomID1164"
	/>
	<rect
		style="fill:none;stroke:#000000;stroke-width:2px " 
		x="198.5mm"
		y="10mm"
		width="6mm"
		height="3mm"
		id="oomID1165"
	/>
	<rect
		style="fill:none;stroke:#000000;stroke-width:2px " 
		x="218.5mm"
		y="70mm"
		width="6mm"
		height="3mm"
		id="oomID1166"
	/>
	<rect
		style="fill:none;stroke:#000000;stroke-width:2px " 
		x="218.5mm"
		y="50mm"
		width="6mm"
		height="3mm"
		id="oomID1167"
	/>
	<rect
		style="fill:none;stroke:#000000;stroke-width:2px " 
		x="218.5mm"
		y="30mm"
		width="6mm"
		height="3mm"
		id="oomID1168"
	/>
	<rect
		style="fill:none;stroke:#000000;stroke-width:2px " 
		x="218.5mm"
		y="10mm"
		width="6mm"
		height="3mm"
		id="oomID1169"
	/>
	<rect
		style="fill:none;stroke:#000000;stroke-width:2px " 
		x="238.5mm"
		y="70mm"
		width="6mm"
		height="3mm"
		id="oomID1170"
	/>
	<rect
		style="fill:none;stroke:#000000;stroke-width:2px " 
		x="238.5mm"
		y="50mm"
		width="6mm"
		height="3mm"
		id="oomID1171"
	/>
	<rect
		style="fill:none;stroke:#000000;stroke-width:2px " 
		x="238.5mm"
		y="30mm"
		width="6mm"
		height="3mm"
		id="oomID1172"
	/>
	<rect
		style="fill:none;stroke:#000000;stroke-width:2px " 
		x="238.5mm"
		y="10mm"
		width="6mm"
		height="3mm"
		id="oomID1173"
	/>
	<rect
		style="fill:none;stroke:#000000;stroke-width:2px " 
		x="258.5mm"
		y="70mm"
		width="6mm"
		height="3mm"
		id="oomID1174"
	/>
	<rect
		style="fill:none;stroke:#000000;stroke-width:2px " 
		x="258.5mm"
		y="50mm"
		width="6mm"
		height="3mm"
		id="oomID1175"
	/>
	<rect
		style="fill:none;stroke:#000000;stroke-width:2px " 
		x="258.5mm"
		y="30mm"
		width="6mm"
		height="3mm"
		id="oomID1176"
	/>
	<rect
		style="fill:none;stroke:#000000;stroke-width:2px " 
		x="258.5mm"
		y="10mm"
		width="6mm"
		height="3mm"
		id="oomID1177"
	/>
	<text x="21.5mm" y="61.5mm"
	style="text-anchor: middle; text-align: center; font-family: ENG_HelvLine; -inkscape-font-specification: ENG_HelvLine; font-size: 12pt; fill:none; font-style:normal;font-weight:normal;line-height:100%;letter-spacing:0px;word-spacing:0px;fill-opacity:1;stroke:#FFA500"
	><tspan sodipodi:role="line">PL</tspan><tspan sodipodi:role="line">14-04</tspan></text>
</svg>
