<?xml version="1.0" standalone="no"?>
<!DOCTYPE svg PUBLIC "-//W3C//DTD SVG 1.1//EN" "http://www.w3.org/Graphics/SVG/1.1/DTD/svg11.dtd">
<svg width="447mm" height="447mm" viewBox="9 -456 447 447" xmlns="http://www.w3.org/2000/svg" version="1.1">
<title>OpenSCAD Model</title>
<path d="
M 451,-9.00986 L 451.314,-9.00986 L 451.937,-9.08856 L 452.545,-9.24471 L 453.129,-9.47586 L 453.679,-9.77835
 L 454.187,-10.1474 L 454.645,-10.5773 L 455.045,-11.0611 L 455.382,-11.5912 L 455.649,-12.1594 L 455.843,-12.7565
 L 455.961,-13.3733 L 456,-14 L 456,-451 L 455.961,-451.627 L 455.843,-452.243 L 455.649,-452.841
 L 455.382,-453.409 L 455.045,-453.939 L 454.645,-454.423 L 454.187,-454.853 L 453.679,-455.222 L 453.129,-455.524
 L 452.545,-455.755 L 451.937,-455.911 L 451.314,-455.99 L 451,-455.99 L 451,-456 L 14,-456
 L 14,-455.99 L 13.686,-455.99 L 13.0631,-455.911 L 12.4549,-455.755 L 11.8711,-455.524 L 11.3209,-455.222
 L 10.8129,-454.853 L 10.3551,-454.423 L 9.95491,-453.939 L 9.61845,-453.409 L 9.3511,-452.841 L 9.15707,-452.243
 L 9.03941,-451.627 L 9,-451 L 9,-14 L 9.03941,-13.3733 L 9.15707,-12.7565 L 9.3511,-12.1594
 L 9.61845,-11.5912 L 9.95491,-11.0611 L 10.3551,-10.5773 L 10.8129,-10.1474 L 11.3209,-9.77835 L 11.8711,-9.47586
 L 12.4549,-9.24471 L 13.0631,-9.08856 L 13.686,-9.00986 L 14,-9.00986 L 14,-9 L 451,-9
 z
" stroke="black" fill="lightgray" stroke-width="0.5"/>
</svg>
