solid OpenSCAD_Model
  facet normal 0.587811 -0.808999 0
    outer loop
      vertex 16.9088 -6.88153 -6
      vertex 17.9227 -6.14484 0
      vertex 16.9088 -6.88153 0
    endloop
  endfacet
  facet normal 0.587811 -0.808999 0
    outer loop
      vertex 17.9227 -6.14484 0
      vertex 16.9088 -6.88153 -6
      vertex 17.9227 -6.14484 -6
    endloop
  endfacet
  facet normal -0.368128 0.929775 0
    outer loop
      vertex -15.7435 7.34291 -6
      vertex -16.9088 6.88153 0
      vertex -15.7435 7.34291 0
    endloop
  endfacet
  facet normal -0.368128 0.929775 0
    outer loop
      vertex -16.9088 6.88153 0
      vertex -15.7435 7.34291 -6
      vertex -16.9088 6.88153 -6
    endloop
  endfacet
  facet normal 0.368128 -0.929775 0
    outer loop
      vertex 15.7435 -7.34291 -6
      vertex 16.9088 -6.88153 0
      vertex 15.7435 -7.34291 0
    endloop
  endfacet
  facet normal 0.368128 -0.929775 0
    outer loop
      vertex 16.9088 -6.88153 0
      vertex 15.7435 -7.34291 -6
      vertex 16.9088 -6.88153 -6
    endloop
  endfacet
  facet normal 0.992113 0.125346 0
    outer loop
      vertex 19.5 2.5 0
      vertex 19.3429 3.74345 -6
      vertex 19.3429 3.74345 0
    endloop
  endfacet
  facet normal 0.992113 0.125346 0
    outer loop
      vertex 19.3429 3.74345 -6
      vertex 19.5 2.5 0
      vertex 19.5 2.5 -6
    endloop
  endfacet
  facet normal -0.992113 -0.125346 0
    outer loop
      vertex -19.3429 -3.74345 -6
      vertex -19.5 -2.5 0
      vertex -19.5 -2.5 -6
    endloop
  endfacet
  facet normal -0.992113 -0.125346 0
    outer loop
      vertex -19.5 -2.5 0
      vertex -19.3429 -3.74345 -6
      vertex -19.3429 -3.74345 0
    endloop
  endfacet
  facet normal -0.156435 -0.987688 0
    outer loop
      vertex -16.0451 -7.25528 -6
      vertex -14.5 -7.5 0
      vertex -16.0451 -7.25528 0
    endloop
  endfacet
  facet normal -0.156435 -0.987688 -0
    outer loop
      vertex -14.5 -7.5 0
      vertex -16.0451 -7.25528 -6
      vertex -14.5 -7.5 -6
    endloop
  endfacet
  facet normal 0.125333 -0.992115 0
    outer loop
      vertex 14.5 -7.5 -6
      vertex 15.7435 -7.34291 0
      vertex 14.5 -7.5 0
    endloop
  endfacet
  facet normal 0.125333 -0.992115 0
    outer loop
      vertex 15.7435 -7.34291 0
      vertex 14.5 -7.5 -6
      vertex 15.7435 -7.34291 -6
    endloop
  endfacet
  facet normal 0.156435 0.987688 -0
    outer loop
      vertex 16.0451 7.25528 -6
      vertex 14.5 7.5 0
      vertex 16.0451 7.25528 0
    endloop
  endfacet
  facet normal 0.156435 0.987688 0
    outer loop
      vertex 14.5 7.5 0
      vertex 16.0451 7.25528 -6
      vertex 14.5 7.5 -6
    endloop
  endfacet
  facet normal 0 0 1
    outer loop
      vertex 14.5 7.5 0
      vertex 19.5 2.5 0
      vertex 19.3429 3.74345 0
    endloop
  endfacet
  facet normal 0 0 1
    outer loop
      vertex 19.5 2.5 0
      vertex 5.7735 0 0
      vertex 19.5 -2.5 0
    endloop
  endfacet
  facet normal 0 0 1
    outer loop
      vertex 14.5 7.5 0
      vertex 19.3429 3.74345 0
      vertex 18.8815 4.90877 0
    endloop
  endfacet
  facet normal 0 -0 1
    outer loop
      vertex 14.5 -7.5 0
      vertex 19.5 -2.5 0
      vertex 5.7735 0 0
    endloop
  endfacet
  facet normal 0 0 1
    outer loop
      vertex 14.5 7.5 0
      vertex 18.8815 4.90877 0
      vertex 18.1448 5.92273 0
    endloop
  endfacet
  facet normal 0 0 1
    outer loop
      vertex 19.5 2.5 0
      vertex 14.5 7.5 0
      vertex 5.7735 0 0
    endloop
  endfacet
  facet normal 0 0 1
    outer loop
      vertex 14.5 7.5 0
      vertex 18.1448 5.92273 0
      vertex 17.1791 6.72163 0
    endloop
  endfacet
  facet normal 0 0 1
    outer loop
      vertex 19.5 -2.5 0
      vertex 14.5 -7.5 0
      vertex 19.2553 -4.04509 0
    endloop
  endfacet
  facet normal 0 0 1
    outer loop
      vertex 14.5 7.5 0
      vertex 17.1791 6.72163 0
      vertex 16.0451 7.25528 0
    endloop
  endfacet
  facet normal 0 0 1
    outer loop
      vertex 18.7216 -5.17914 0
      vertex 14.5 -7.5 0
      vertex 17.9227 -6.14484 0
    endloop
  endfacet
  facet normal 0 0 1
    outer loop
      vertex 17.9227 -6.14484 0
      vertex 14.5 -7.5 0
      vertex 16.9088 -6.88153 0
    endloop
  endfacet
  facet normal 0 0 1
    outer loop
      vertex 16.9088 -6.88153 0
      vertex 14.5 -7.5 0
      vertex 15.7435 -7.34291 0
    endloop
  endfacet
  facet normal 0 0 1
    outer loop
      vertex 19.2553 -4.04509 0
      vertex 14.5 -7.5 0
      vertex 18.7216 -5.17914 0
    endloop
  endfacet
  facet normal 0 0 1
    outer loop
      vertex 14.5 7.5 0
      vertex 2.88675 5 0
      vertex 5.7735 0 0
    endloop
  endfacet
  facet normal 0 0 1
    outer loop
      vertex 14.5 7.5 0
      vertex -2.88675 5 0
      vertex 2.88675 5 0
    endloop
  endfacet
  facet normal 0 0 1
    outer loop
      vertex -2.88675 5 0
      vertex -14.5 7.5 0
      vertex -5.7735 0 0
    endloop
  endfacet
  facet normal -0 0 1
    outer loop
      vertex -14.5 7.5 0
      vertex -2.88675 5 0
      vertex 14.5 7.5 0
    endloop
  endfacet
  facet normal -0 0 1
    outer loop
      vertex 2.88675 -5 0
      vertex 14.5 -7.5 0
      vertex 5.7735 0 0
    endloop
  endfacet
  facet normal -0 0 1
    outer loop
      vertex -2.88675 -5 0
      vertex 14.5 -7.5 0
      vertex 2.88675 -5 0
    endloop
  endfacet
  facet normal -0 0 1
    outer loop
      vertex -19.5 2.5 0
      vertex -5.7735 0 0
      vertex -14.5 7.5 0
    endloop
  endfacet
  facet normal 0 0 1
    outer loop
      vertex -2.88675 -5 0
      vertex -14.5 -7.5 0
      vertex 14.5 -7.5 0
    endloop
  endfacet
  facet normal 0 0 1
    outer loop
      vertex -5.7735 0 0
      vertex -14.5 -7.5 0
      vertex -2.88675 -5 0
    endloop
  endfacet
  facet normal 0 0 1
    outer loop
      vertex -19.5 2.5 0
      vertex -14.5 7.5 0
      vertex -15.7435 7.34291 0
    endloop
  endfacet
  facet normal 0 0 1
    outer loop
      vertex -19.5 -2.5 0
      vertex -5.7735 0 0
      vertex -19.5 2.5 0
    endloop
  endfacet
  facet normal 0 0 1
    outer loop
      vertex -19.5 2.5 0
      vertex -15.7435 7.34291 0
      vertex -16.9088 6.88153 0
    endloop
  endfacet
  facet normal 0 0 1
    outer loop
      vertex -5.7735 0 0
      vertex -19.5 -2.5 0
      vertex -14.5 -7.5 0
    endloop
  endfacet
  facet normal 0 0 1
    outer loop
      vertex -19.5 2.5 0
      vertex -16.9088 6.88153 0
      vertex -17.9227 6.14484 0
    endloop
  endfacet
  facet normal 0 0 1
    outer loop
      vertex -14.5 -7.5 0
      vertex -19.5 -2.5 0
      vertex -16.0451 -7.25528 0
    endloop
  endfacet
  facet normal 0 0 1
    outer loop
      vertex -19.5 2.5 0
      vertex -17.9227 6.14484 0
      vertex -18.7216 5.17914 0
    endloop
  endfacet
  facet normal 0 0 1
    outer loop
      vertex -16.0451 -7.25528 0
      vertex -19.5 -2.5 0
      vertex -17.1791 -6.72163 0
    endloop
  endfacet
  facet normal 0 0 1
    outer loop
      vertex -19.5 2.5 0
      vertex -18.7216 5.17914 0
      vertex -19.2553 4.04509 0
    endloop
  endfacet
  facet normal 0 0 1
    outer loop
      vertex -17.1791 -6.72163 0
      vertex -19.5 -2.5 0
      vertex -18.1448 -5.92273 0
    endloop
  endfacet
  facet normal 0 0 1
    outer loop
      vertex -18.1448 -5.92273 0
      vertex -19.5 -2.5 0
      vertex -18.8815 -4.90877 0
    endloop
  endfacet
  facet normal 0 0 1
    outer loop
      vertex -18.8815 -4.90877 0
      vertex -19.5 -2.5 0
      vertex -19.3429 -3.74345 0
    endloop
  endfacet
  facet normal 0 -1 0
    outer loop
      vertex -14.5 -7.5 -6
      vertex 14.5 -7.5 0
      vertex -14.5 -7.5 0
    endloop
  endfacet
  facet normal 0 -1 -0
    outer loop
      vertex 14.5 -7.5 0
      vertex -14.5 -7.5 -6
      vertex 14.5 -7.5 -6
    endloop
  endfacet
  facet normal 0 1 -0
    outer loop
      vertex 14.5 7.5 -6
      vertex -14.5 7.5 0
      vertex 14.5 7.5 0
    endloop
  endfacet
  facet normal 0 1 0
    outer loop
      vertex -14.5 7.5 0
      vertex 14.5 7.5 -6
      vertex -14.5 7.5 -6
    endloop
  endfacet
  facet normal 0.98769 -0.156423 0
    outer loop
      vertex 19.2553 -4.04509 0
      vertex 19.5 -2.5 -6
      vertex 19.5 -2.5 0
    endloop
  endfacet
  facet normal 0.98769 -0.156423 0
    outer loop
      vertex 19.5 -2.5 -6
      vertex 19.2553 -4.04509 0
      vertex 19.2553 -4.04509 -6
    endloop
  endfacet
  facet normal 0 0 -1
    outer loop
      vertex 17.95 0 -6
      vertex 19.5 2.5 -6
      vertex 19.5 -2.5 -6
    endloop
  endfacet
  facet normal 0 0 -1
    outer loop
      vertex 17.1505 -2.01941 -6
      vertex 19.5 -2.5 -6
      vertex 19.2553 -4.04509 -6
    endloop
  endfacet
  facet normal 0 0 -1
    outer loop
      vertex 17.8573 0.733635 -6
      vertex 19.5 2.5 -6
      vertex 17.95 0 -6
    endloop
  endfacet
  facet normal 0 0 -1
    outer loop
      vertex 16.5807 -2.49077 -6
      vertex 19.2553 -4.04509 -6
      vertex 18.7216 -5.17914 -6
    endloop
  endfacet
  facet normal 0 0 -1
    outer loop
      vertex 17.5851 1.42117 -6
      vertex 19.5 2.5 -6
      vertex 17.8573 0.733635 -6
    endloop
  endfacet
  facet normal 0 0 -1
    outer loop
      vertex 17.1505 2.01941 -6
      vertex 19.5 2.5 -6
      vertex 17.5851 1.42117 -6
    endloop
  endfacet
  facet normal 0 0 -1
    outer loop
      vertex 15.9116 -2.80562 -6
      vertex 18.7216 -5.17914 -6
      vertex 17.9227 -6.14484 -6
    endloop
  endfacet
  facet normal 0 0 -1
    outer loop
      vertex 19.5 -2.5 -6
      vertex 17.8573 -0.733635 -6
      vertex 17.95 0 -6
    endloop
  endfacet
  facet normal 0 0 -1
    outer loop
      vertex 19.5 -2.5 -6
      vertex 17.5851 -1.42117 -6
      vertex 17.8573 -0.733635 -6
    endloop
  endfacet
  facet normal 0 0 -1
    outer loop
      vertex 19.5 -2.5 -6
      vertex 17.1505 -2.01941 -6
      vertex 17.5851 -1.42117 -6
    endloop
  endfacet
  facet normal 0 0 -1
    outer loop
      vertex 15.9116 -2.80562 -6
      vertex 17.9227 -6.14484 -6
      vertex 16.9088 -6.88153 -6
    endloop
  endfacet
  facet normal 0 0 -1
    outer loop
      vertex 19.2553 -4.04509 -6
      vertex 16.5807 -2.49077 -6
      vertex 17.1505 -2.01941 -6
    endloop
  endfacet
  facet normal 0 0 -1
    outer loop
      vertex 18.7216 -5.17914 -6
      vertex 15.9116 -2.80562 -6
      vertex 16.5807 -2.49077 -6
    endloop
  endfacet
  facet normal 0 0 -1
    outer loop
      vertex 15.1852 -2.94418 -6
      vertex 16.9088 -6.88153 -6
      vertex 15.7435 -7.34291 -6
    endloop
  endfacet
  facet normal 0 0 -1
    outer loop
      vertex 16.9088 -6.88153 -6
      vertex 15.1852 -2.94418 -6
      vertex 15.9116 -2.80562 -6
    endloop
  endfacet
  facet normal 0 0 -1
    outer loop
      vertex 14.5 -7.5 -6
      vertex 15.1852 -2.94418 -6
      vertex 15.7435 -7.34291 -6
    endloop
  endfacet
  facet normal 0 0 -1
    outer loop
      vertex 14.5 -7.5 -6
      vertex 14.4472 -2.89775 -6
      vertex 15.1852 -2.94418 -6
    endloop
  endfacet
  facet normal 0 0 -1
    outer loop
      vertex 14.5 -7.5 -6
      vertex 13.744 -2.66924 -6
      vertex 14.4472 -2.89775 -6
    endloop
  endfacet
  facet normal 0 0 -1
    outer loop
      vertex 14.5 -7.5 -6
      vertex 13.1196 -2.27301 -6
      vertex 13.744 -2.66924 -6
    endloop
  endfacet
  facet normal 0 0 -1
    outer loop
      vertex 14.5 -7.5 -6
      vertex 12.6134 -1.73397 -6
      vertex 13.1196 -2.27301 -6
    endloop
  endfacet
  facet normal 0 0 -1
    outer loop
      vertex 2.18691 -2.05364 -6
      vertex 12.6134 -1.73397 -6
      vertex 14.5 -7.5 -6
    endloop
  endfacet
  facet normal 0 0 -1
    outer loop
      vertex 12.0733 -0.369733 -6
      vertex 3 0 -6
      vertex 12.0733 0.369733 -6
    endloop
  endfacet
  facet normal 0 0 -1
    outer loop
      vertex 2.90575 -0.746069 -6
      vertex 12.0733 -0.369733 -6
      vertex 12.2572 -1.08597 -6
    endloop
  endfacet
  facet normal 0 -0 -1
    outer loop
      vertex 2.62892 -1.44526 -6
      vertex 12.6134 -1.73397 -6
      vertex 2.18691 -2.05364 -6
    endloop
  endfacet
  facet normal -0 0 -1
    outer loop
      vertex 12.0733 -0.369733 -6
      vertex 2.90575 -0.746069 -6
      vertex 3 0 -6
    endloop
  endfacet
  facet normal -0 0 -1
    outer loop
      vertex 12.2572 -1.08597 -6
      vertex 2.62892 -1.44526 -6
      vertex 2.90575 -0.746069 -6
    endloop
  endfacet
  facet normal 0 0 -1
    outer loop
      vertex 12.6134 -1.73397 -6
      vertex 2.62892 -1.44526 -6
      vertex 12.2572 -1.08597 -6
    endloop
  endfacet
  facet normal 0 0 -1
    outer loop
      vertex 14.5 -7.5 -6
      vertex 1.60748 -2.53298 -6
      vertex 2.18691 -2.05364 -6
    endloop
  endfacet
  facet normal 0 0 -1
    outer loop
      vertex 14.5 -7.5 -6
      vertex 0.927051 -2.85317 -6
      vertex 1.60748 -2.53298 -6
    endloop
  endfacet
  facet normal 0 0 -1
    outer loop
      vertex 14.5 -7.5 -6
      vertex 0.188371 -2.99408 -6
      vertex 0.927051 -2.85317 -6
    endloop
  endfacet
  facet normal 0 0 -1
    outer loop
      vertex -14.5 -7.5 -6
      vertex 0.188371 -2.99408 -6
      vertex 14.5 -7.5 -6
    endloop
  endfacet
  facet normal 0 0 -1
    outer loop
      vertex -2.97634 -0.375999 -6
      vertex -12.05 0 -6
      vertex -2.97634 0.375999 -6
    endloop
  endfacet
  facet normal 0 0 -1
    outer loop
      vertex -12.1427 -0.733635 -6
      vertex -2.97634 -0.375999 -6
      vertex -2.78933 -1.10437 -6
    endloop
  endfacet
  facet normal 0 0 -1
    outer loop
      vertex -12.4149 -1.42117 -6
      vertex -2.78933 -1.10437 -6
      vertex -2.42705 -1.76336 -6
    endloop
  endfacet
  facet normal 0 0 -1
    outer loop
      vertex -14.5 -7.5 -6
      vertex -2.42705 -1.76336 -6
      vertex -1.91227 -2.31154 -6
    endloop
  endfacet
  facet normal 0 0 -1
    outer loop
      vertex -14.5 -7.5 -6
      vertex -1.91227 -2.31154 -6
      vertex -1.27734 -2.71448 -6
    endloop
  endfacet
  facet normal 0 0 -1
    outer loop
      vertex -14.5 -7.5 -6
      vertex -1.27734 -2.71448 -6
      vertex -0.562143 -2.94686 -6
    endloop
  endfacet
  facet normal -0 0 -1
    outer loop
      vertex 0.188371 -2.99408 -6
      vertex -14.5 -7.5 -6
      vertex -0.562143 -2.94686 -6
    endloop
  endfacet
  facet normal -0 0 -1
    outer loop
      vertex -2.97634 -0.375999 -6
      vertex -12.1427 -0.733635 -6
      vertex -12.05 0 -6
    endloop
  endfacet
  facet normal -0 0 -1
    outer loop
      vertex -2.78933 -1.10437 -6
      vertex -12.4149 -1.42117 -6
      vertex -12.1427 -0.733635 -6
    endloop
  endfacet
  facet normal 0 0 -1
    outer loop
      vertex -2.42705 -1.76336 -6
      vertex -14.5 -7.5 -6
      vertex -12.8495 -2.01941 -6
    endloop
  endfacet
  facet normal -0 0 -1
    outer loop
      vertex -2.42705 -1.76336 -6
      vertex -12.8495 -2.01941 -6
      vertex -12.4149 -1.42117 -6
    endloop
  endfacet
  facet normal 0 0 -1
    outer loop
      vertex -12.8495 -2.01941 -6
      vertex -14.5 -7.5 -6
      vertex -13.4193 -2.49077 -6
    endloop
  endfacet
  facet normal 0 0 -1
    outer loop
      vertex -13.4193 -2.49077 -6
      vertex -14.5 -7.5 -6
      vertex -14.0884 -2.80562 -6
    endloop
  endfacet
  facet normal 0 0 -1
    outer loop
      vertex -14.5 -7.5 -6
      vertex -14.8148 -2.94418 -6
      vertex -14.0884 -2.80562 -6
    endloop
  endfacet
  facet normal 0 0 -1
    outer loop
      vertex -16.0451 -7.25528 -6
      vertex -14.8148 -2.94418 -6
      vertex -14.5 -7.5 -6
    endloop
  endfacet
  facet normal -0 0 -1
    outer loop
      vertex -14.8148 -2.94418 -6
      vertex -16.0451 -7.25528 -6
      vertex -15.5528 -2.89775 -6
    endloop
  endfacet
  facet normal 0 0 -1
    outer loop
      vertex -17.1791 -6.72163 -6
      vertex -15.5528 -2.89775 -6
      vertex -16.0451 -7.25528 -6
    endloop
  endfacet
  facet normal 0 0 -1
    outer loop
      vertex -18.1448 -5.92273 -6
      vertex -15.5528 -2.89775 -6
      vertex -17.1791 -6.72163 -6
    endloop
  endfacet
  facet normal -0 0 -1
    outer loop
      vertex -15.5528 -2.89775 -6
      vertex -18.1448 -5.92273 -6
      vertex -16.256 -2.66924 -6
    endloop
  endfacet
  facet normal 0 0 -1
    outer loop
      vertex -18.8815 -4.90877 -6
      vertex -16.256 -2.66924 -6
      vertex -18.1448 -5.92273 -6
    endloop
  endfacet
  facet normal -0 0 -1
    outer loop
      vertex -16.256 -2.66924 -6
      vertex -18.8815 -4.90877 -6
      vertex -16.8804 -2.27301 -6
    endloop
  endfacet
  facet normal 0 0 -1
    outer loop
      vertex -19.3429 -3.74345 -6
      vertex -16.8804 -2.27301 -6
      vertex -18.8815 -4.90877 -6
    endloop
  endfacet
  facet normal 0 0 -1
    outer loop
      vertex -19.5 -2.5 -6
      vertex -17.3866 -1.73397 -6
      vertex -19.3429 -3.74345 -6
    endloop
  endfacet
  facet normal -0 0 -1
    outer loop
      vertex -16.8804 -2.27301 -6
      vertex -19.3429 -3.74345 -6
      vertex -17.3866 -1.73397 -6
    endloop
  endfacet
  facet normal -0 0 -1
    outer loop
      vertex 19.5 2.5 -6
      vertex 17.1505 2.01941 -6
      vertex 19.3429 3.74345 -6
    endloop
  endfacet
  facet normal 0 0 -1
    outer loop
      vertex 16.5807 2.49077 -6
      vertex 19.3429 3.74345 -6
      vertex 17.1505 2.01941 -6
    endloop
  endfacet
  facet normal -0 0 -1
    outer loop
      vertex 19.3429 3.74345 -6
      vertex 16.5807 2.49077 -6
      vertex 18.8815 4.90877 -6
    endloop
  endfacet
  facet normal -0 0 -1
    outer loop
      vertex 18.8815 4.90877 -6
      vertex 16.5807 2.49077 -6
      vertex 18.1448 5.92273 -6
    endloop
  endfacet
  facet normal 0 0 -1
    outer loop
      vertex 15.9116 2.80562 -6
      vertex 18.1448 5.92273 -6
      vertex 16.5807 2.49077 -6
    endloop
  endfacet
  facet normal -0 0 -1
    outer loop
      vertex 18.1448 5.92273 -6
      vertex 15.9116 2.80562 -6
      vertex 17.1791 6.72163 -6
    endloop
  endfacet
  facet normal 0 0 -1
    outer loop
      vertex 15.1852 2.94418 -6
      vertex 17.1791 6.72163 -6
      vertex 15.9116 2.80562 -6
    endloop
  endfacet
  facet normal -0 0 -1
    outer loop
      vertex 17.1791 6.72163 -6
      vertex 15.1852 2.94418 -6
      vertex 16.0451 7.25528 -6
    endloop
  endfacet
  facet normal 0 0 -1
    outer loop
      vertex 15.1852 2.94418 -6
      vertex 14.5 7.5 -6
      vertex 16.0451 7.25528 -6
    endloop
  endfacet
  facet normal 0 0 -1
    outer loop
      vertex 14.4472 2.89775 -6
      vertex 14.5 7.5 -6
      vertex 15.1852 2.94418 -6
    endloop
  endfacet
  facet normal 0 0 -1
    outer loop
      vertex 13.744 2.66924 -6
      vertex 14.5 7.5 -6
      vertex 14.4472 2.89775 -6
    endloop
  endfacet
  facet normal 0 0 -1
    outer loop
      vertex 13.1196 2.27301 -6
      vertex 14.5 7.5 -6
      vertex 13.744 2.66924 -6
    endloop
  endfacet
  facet normal 0 0 -1
    outer loop
      vertex 12.6134 1.73397 -6
      vertex 14.5 7.5 -6
      vertex 13.1196 2.27301 -6
    endloop
  endfacet
  facet normal 0 0 -1
    outer loop
      vertex 2.62892 1.44526 -6
      vertex 12.6134 1.73397 -6
      vertex 12.2572 1.08597 -6
    endloop
  endfacet
  facet normal 0 0 -1
    outer loop
      vertex 2.90575 0.746069 -6
      vertex 12.0733 0.369733 -6
      vertex 3 0 -6
    endloop
  endfacet
  facet normal 0 0 -1
    outer loop
      vertex 12.0733 0.369733 -6
      vertex 2.90575 0.746069 -6
      vertex 12.2572 1.08597 -6
    endloop
  endfacet
  facet normal 0 0 -1
    outer loop
      vertex 2.62892 1.44526 -6
      vertex 12.2572 1.08597 -6
      vertex 2.90575 0.746069 -6
    endloop
  endfacet
  facet normal -0 0 -1
    outer loop
      vertex 12.6134 1.73397 -6
      vertex 2.62892 1.44526 -6
      vertex 2.18691 2.05364 -6
    endloop
  endfacet
  facet normal 0 0 -1
    outer loop
      vertex 12.6134 1.73397 -6
      vertex 2.18691 2.05364 -6
      vertex 14.5 7.5 -6
    endloop
  endfacet
  facet normal 0 0 -1
    outer loop
      vertex 1.60748 2.53298 -6
      vertex 14.5 7.5 -6
      vertex 2.18691 2.05364 -6
    endloop
  endfacet
  facet normal 0 0 -1
    outer loop
      vertex 0.927051 2.85317 -6
      vertex 14.5 7.5 -6
      vertex 1.60748 2.53298 -6
    endloop
  endfacet
  facet normal 0 0 -1
    outer loop
      vertex 0.188371 2.99408 -6
      vertex 14.5 7.5 -6
      vertex 0.927051 2.85317 -6
    endloop
  endfacet
  facet normal 0 0 -1
    outer loop
      vertex -14.5 7.5 -6
      vertex 0.188371 2.99408 -6
      vertex -0.562143 2.94686 -6
    endloop
  endfacet
  facet normal 0 0 -1
    outer loop
      vertex -12.1427 0.733635 -6
      vertex -2.97634 0.375999 -6
      vertex -12.05 0 -6
    endloop
  endfacet
  facet normal 0 0 -1
    outer loop
      vertex -2.97634 0.375999 -6
      vertex -12.1427 0.733635 -6
      vertex -2.78933 1.10437 -6
    endloop
  endfacet
  facet normal 0 0 -1
    outer loop
      vertex -12.4149 1.42117 -6
      vertex -2.78933 1.10437 -6
      vertex -12.1427 0.733635 -6
    endloop
  endfacet
  facet normal 0 0 -1
    outer loop
      vertex -2.78933 1.10437 -6
      vertex -12.4149 1.42117 -6
      vertex -2.42705 1.76336 -6
    endloop
  endfacet
  facet normal 0 0 -1
    outer loop
      vertex -12.8495 2.01941 -6
      vertex -2.42705 1.76336 -6
      vertex -12.4149 1.42117 -6
    endloop
  endfacet
  facet normal 0 0 -1
    outer loop
      vertex -14.5 7.5 -6
      vertex -2.42705 1.76336 -6
      vertex -12.8495 2.01941 -6
    endloop
  endfacet
  facet normal 0 0 -1
    outer loop
      vertex -2.42705 1.76336 -6
      vertex -14.5 7.5 -6
      vertex -1.91227 2.31154 -6
    endloop
  endfacet
  facet normal 0 0 -1
    outer loop
      vertex -1.91227 2.31154 -6
      vertex -14.5 7.5 -6
      vertex -1.27734 2.71448 -6
    endloop
  endfacet
  facet normal 0 0 -1
    outer loop
      vertex -1.27734 2.71448 -6
      vertex -14.5 7.5 -6
      vertex -0.562143 2.94686 -6
    endloop
  endfacet
  facet normal 0 0 -1
    outer loop
      vertex -14.5 7.5 -6
      vertex -12.8495 2.01941 -6
      vertex -13.4193 2.49077 -6
    endloop
  endfacet
  facet normal 0 0 -1
    outer loop
      vertex -14.5 7.5 -6
      vertex -13.4193 2.49077 -6
      vertex -14.0884 2.80562 -6
    endloop
  endfacet
  facet normal 0 0 -1
    outer loop
      vertex 0.188371 2.99408 -6
      vertex -14.5 7.5 -6
      vertex 14.5 7.5 -6
    endloop
  endfacet
  facet normal 0 0 -1
    outer loop
      vertex -14.8148 2.94418 -6
      vertex -14.5 7.5 -6
      vertex -14.0884 2.80562 -6
    endloop
  endfacet
  facet normal 0 0 -1
    outer loop
      vertex -15.7435 7.34291 -6
      vertex -14.8148 2.94418 -6
      vertex -15.5528 2.89775 -6
    endloop
  endfacet
  facet normal 0 0 -1
    outer loop
      vertex -14.8148 2.94418 -6
      vertex -15.7435 7.34291 -6
      vertex -14.5 7.5 -6
    endloop
  endfacet
  facet normal 0 0 -1
    outer loop
      vertex -17.9227 6.14484 -6
      vertex -15.5528 2.89775 -6
      vertex -16.256 2.66924 -6
    endloop
  endfacet
  facet normal 0 0 -1
    outer loop
      vertex -18.7216 5.17914 -6
      vertex -16.256 2.66924 -6
      vertex -16.8804 2.27301 -6
    endloop
  endfacet
  facet normal 0 0 -1
    outer loop
      vertex -15.5528 2.89775 -6
      vertex -16.9088 6.88153 -6
      vertex -15.7435 7.34291 -6
    endloop
  endfacet
  facet normal 0 0 -1
    outer loop
      vertex -19.5 2.5 -6
      vertex -16.8804 2.27301 -6
      vertex -17.3866 1.73397 -6
    endloop
  endfacet
  facet normal 0 0 -1
    outer loop
      vertex -19.5 2.5 -6
      vertex -17.3866 1.73397 -6
      vertex -17.7428 1.08597 -6
    endloop
  endfacet
  facet normal 0 0 -1
    outer loop
      vertex -15.5528 2.89775 -6
      vertex -17.9227 6.14484 -6
      vertex -16.9088 6.88153 -6
    endloop
  endfacet
  facet normal 0 0 -1
    outer loop
      vertex -19.5 2.5 -6
      vertex -17.7428 1.08597 -6
      vertex -17.9267 0.369733 -6
    endloop
  endfacet
  facet normal -0 0 -1
    outer loop
      vertex -17.3866 -1.73397 -6
      vertex -19.5 -2.5 -6
      vertex -17.7428 -1.08597 -6
    endloop
  endfacet
  facet normal 0 0 -1
    outer loop
      vertex -19.5 2.5 -6
      vertex -17.9267 0.369733 -6
      vertex -19.5 -2.5 -6
    endloop
  endfacet
  facet normal -0 0 -1
    outer loop
      vertex -17.7428 -1.08597 -6
      vertex -19.5 -2.5 -6
      vertex -17.9267 -0.369733 -6
    endloop
  endfacet
  facet normal 0 0 -1
    outer loop
      vertex -16.8804 2.27301 -6
      vertex -19.5 2.5 -6
      vertex -19.2553 4.04509 -6
    endloop
  endfacet
  facet normal -0 0 -1
    outer loop
      vertex -17.9267 -0.369733 -6
      vertex -19.5 -2.5 -6
      vertex -17.9267 0.369733 -6
    endloop
  endfacet
  facet normal 0 0 -1
    outer loop
      vertex -16.256 2.66924 -6
      vertex -18.7216 5.17914 -6
      vertex -17.9227 6.14484 -6
    endloop
  endfacet
  facet normal 0 0 -1
    outer loop
      vertex -16.8804 2.27301 -6
      vertex -19.2553 4.04509 -6
      vertex -18.7216 5.17914 -6
    endloop
  endfacet
  facet normal -0.425799 -0.904818 0
    outer loop
      vertex -17.1791 -6.72163 -6
      vertex -16.0451 -7.25528 0
      vertex -17.1791 -6.72163 0
    endloop
  endfacet
  facet normal -0.425799 -0.904818 -0
    outer loop
      vertex -16.0451 -7.25528 0
      vertex -17.1791 -6.72163 -6
      vertex -16.0451 -7.25528 -6
    endloop
  endfacet
  facet normal -0.125333 0.992115 0
    outer loop
      vertex -14.5 7.5 -6
      vertex -15.7435 7.34291 0
      vertex -14.5 7.5 0
    endloop
  endfacet
  facet normal -0.125333 0.992115 0
    outer loop
      vertex -15.7435 7.34291 0
      vertex -14.5 7.5 -6
      vertex -15.7435 7.34291 -6
    endloop
  endfacet
  facet normal 1 -0 0
    outer loop
      vertex 19.5 -2.5 0
      vertex 19.5 2.5 -6
      vertex 19.5 2.5 0
    endloop
  endfacet
  facet normal 1 0 0
    outer loop
      vertex 19.5 2.5 -6
      vertex 19.5 -2.5 0
      vertex 19.5 -2.5 -6
    endloop
  endfacet
  facet normal 0.809011 0.587793 0
    outer loop
      vertex 18.8815 4.90877 0
      vertex 18.1448 5.92273 -6
      vertex 18.1448 5.92273 0
    endloop
  endfacet
  facet normal 0.809011 0.587793 0
    outer loop
      vertex 18.1448 5.92273 -6
      vertex 18.8815 4.90877 0
      vertex 18.8815 4.90877 -6
    endloop
  endfacet
  facet normal 0.637426 0.770512 -0
    outer loop
      vertex 18.1448 5.92273 -6
      vertex 17.1791 6.72163 0
      vertex 18.1448 5.92273 0
    endloop
  endfacet
  facet normal 0.637426 0.770512 0
    outer loop
      vertex 17.1791 6.72163 0
      vertex 18.1448 5.92273 -6
      vertex 17.1791 6.72163 -6
    endloop
  endfacet
  facet normal 0.929772 0.368136 0
    outer loop
      vertex 19.3429 3.74345 0
      vertex 18.8815 4.90877 -6
      vertex 18.8815 4.90877 0
    endloop
  endfacet
  facet normal 0.929772 0.368136 0
    outer loop
      vertex 18.8815 4.90877 -6
      vertex 19.3429 3.74345 0
      vertex 19.3429 3.74345 -6
    endloop
  endfacet
  facet normal 0.425799 0.904818 -0
    outer loop
      vertex 17.1791 6.72163 -6
      vertex 16.0451 7.25528 0
      vertex 17.1791 6.72163 0
    endloop
  endfacet
  facet normal 0.425799 0.904818 0
    outer loop
      vertex 16.0451 7.25528 0
      vertex 17.1791 6.72163 -6
      vertex 16.0451 7.25528 -6
    endloop
  endfacet
  facet normal -1 0 0
    outer loop
      vertex -19.5 -2.5 -6
      vertex -19.5 2.5 0
      vertex -19.5 2.5 -6
    endloop
  endfacet
  facet normal -1 -0 0
    outer loop
      vertex -19.5 2.5 0
      vertex -19.5 -2.5 -6
      vertex -19.5 -2.5 0
    endloop
  endfacet
  facet normal -0.98769 0.156423 0
    outer loop
      vertex -19.5 2.5 -6
      vertex -19.2553 4.04509 0
      vertex -19.2553 4.04509 -6
    endloop
  endfacet
  facet normal -0.98769 0.156423 0
    outer loop
      vertex -19.2553 4.04509 0
      vertex -19.5 2.5 -6
      vertex -19.5 2.5 0
    endloop
  endfacet
  facet normal -0.770512 0.637426 0
    outer loop
      vertex -18.7216 5.17914 -6
      vertex -17.9227 6.14484 0
      vertex -17.9227 6.14484 -6
    endloop
  endfacet
  facet normal -0.770512 0.637426 0
    outer loop
      vertex -17.9227 6.14484 0
      vertex -18.7216 5.17914 -6
      vertex -18.7216 5.17914 0
    endloop
  endfacet
  facet normal -0.929772 -0.368136 0
    outer loop
      vertex -18.8815 -4.90877 -6
      vertex -19.3429 -3.74345 0
      vertex -19.3429 -3.74345 -6
    endloop
  endfacet
  facet normal -0.929772 -0.368136 0
    outer loop
      vertex -19.3429 -3.74345 0
      vertex -18.8815 -4.90877 -6
      vertex -18.8815 -4.90877 0
    endloop
  endfacet
  facet normal -0.809011 -0.587793 0
    outer loop
      vertex -18.1448 -5.92273 -6
      vertex -18.8815 -4.90877 0
      vertex -18.8815 -4.90877 -6
    endloop
  endfacet
  facet normal -0.809011 -0.587793 0
    outer loop
      vertex -18.8815 -4.90877 0
      vertex -18.1448 -5.92273 -6
      vertex -18.1448 -5.92273 0
    endloop
  endfacet
  facet normal 0.770512 -0.637426 0
    outer loop
      vertex 17.9227 -6.14484 0
      vertex 18.7216 -5.17914 -6
      vertex 18.7216 -5.17914 0
    endloop
  endfacet
  facet normal 0.770512 -0.637426 0
    outer loop
      vertex 18.7216 -5.17914 -6
      vertex 17.9227 -6.14484 0
      vertex 17.9227 -6.14484 -6
    endloop
  endfacet
  facet normal -0.90481 0.425816 0
    outer loop
      vertex -19.2553 4.04509 -6
      vertex -18.7216 5.17914 0
      vertex -18.7216 5.17914 -6
    endloop
  endfacet
  facet normal -0.90481 0.425816 0
    outer loop
      vertex -18.7216 5.17914 0
      vertex -19.2553 4.04509 -6
      vertex -19.2553 4.04509 0
    endloop
  endfacet
  facet normal -0.587811 0.808999 0
    outer loop
      vertex -16.9088 6.88153 -6
      vertex -17.9227 6.14484 0
      vertex -16.9088 6.88153 0
    endloop
  endfacet
  facet normal -0.587811 0.808999 0
    outer loop
      vertex -17.9227 6.14484 0
      vertex -16.9088 6.88153 -6
      vertex -17.9227 6.14484 -6
    endloop
  endfacet
  facet normal -0.637426 -0.770512 0
    outer loop
      vertex -18.1448 -5.92273 -6
      vertex -17.1791 -6.72163 0
      vertex -18.1448 -5.92273 0
    endloop
  endfacet
  facet normal -0.637426 -0.770512 -0
    outer loop
      vertex -17.1791 -6.72163 0
      vertex -18.1448 -5.92273 -6
      vertex -17.1791 -6.72163 -6
    endloop
  endfacet
  facet normal 0.90481 -0.425816 0
    outer loop
      vertex 18.7216 -5.17914 0
      vertex 19.2553 -4.04509 -6
      vertex 19.2553 -4.04509 0
    endloop
  endfacet
  facet normal 0.90481 -0.425816 0
    outer loop
      vertex 19.2553 -4.04509 -6
      vertex 18.7216 -5.17914 0
      vertex 18.7216 -5.17914 -6
    endloop
  endfacet
  facet normal 0.992111 -0.12536 0
    outer loop
      vertex 17.8573 -0.733635 -6
      vertex 17.95 0 -11
      vertex 17.95 0 -6
    endloop
  endfacet
  facet normal 0.992111 -0.12536 0
    outer loop
      vertex 17.95 0 -11
      vertex 17.8573 -0.733635 -6
      vertex 17.8573 -0.733635 -11
    endloop
  endfacet
  facet normal 0.992111 0.12536 0
    outer loop
      vertex 17.95 0 -6
      vertex 17.8573 0.733635 -11
      vertex 17.8573 0.733635 -6
    endloop
  endfacet
  facet normal 0.992111 0.12536 0
    outer loop
      vertex 17.8573 0.733635 -11
      vertex 17.95 0 -6
      vertex 17.95 0 -11
    endloop
  endfacet
  facet normal -0.968583 0.248692 0
    outer loop
      vertex 12.0733 0.369733 -11
      vertex 12.2572 1.08597 -6
      vertex 12.2572 1.08597 -11
    endloop
  endfacet
  facet normal -0.968583 0.248692 0
    outer loop
      vertex 12.2572 1.08597 -6
      vertex 12.0733 0.369733 -11
      vertex 12.0733 0.369733 -6
    endloop
  endfacet
  facet normal 0.809047 0.587744 0
    outer loop
      vertex 17.5851 1.42117 -6
      vertex 17.1505 2.01941 -11
      vertex 17.1505 2.01941 -6
    endloop
  endfacet
  facet normal 0.809047 0.587744 0
    outer loop
      vertex 17.1505 2.01941 -11
      vertex 17.5851 1.42117 -6
      vertex 17.5851 1.42117 -11
    endloop
  endfacet
  facet normal -1 0 0
    outer loop
      vertex 12.0733 -0.369733 -11
      vertex 12.0733 0.369733 -6
      vertex 12.0733 0.369733 -11
    endloop
  endfacet
  facet normal -1 -0 0
    outer loop
      vertex 12.0733 0.369733 -6
      vertex 12.0733 -0.369733 -11
      vertex 12.0733 -0.369733 -6
    endloop
  endfacet
  facet normal -0.728963 -0.684553 0
    outer loop
      vertex 13.1196 -2.27301 -11
      vertex 12.6134 -1.73397 -6
      vertex 12.6134 -1.73397 -11
    endloop
  endfacet
  facet normal -0.728963 -0.684553 0
    outer loop
      vertex 12.6134 -1.73397 -6
      vertex 13.1196 -2.27301 -11
      vertex 13.1196 -2.27301 -6
    endloop
  endfacet
  facet normal 0.637408 -0.770526 0
    outer loop
      vertex 16.5807 -2.49077 -11
      vertex 17.1505 -2.01941 -6
      vertex 16.5807 -2.49077 -6
    endloop
  endfacet
  facet normal 0.637408 -0.770526 0
    outer loop
      vertex 17.1505 -2.01941 -6
      vertex 16.5807 -2.49077 -11
      vertex 17.1505 -2.01941 -11
    endloop
  endfacet
  facet normal 0.187371 0.982289 -0
    outer loop
      vertex 15.9116 2.80562 -11
      vertex 15.1852 2.94418 -6
      vertex 15.9116 2.80562 -6
    endloop
  endfacet
  facet normal 0.187371 0.982289 0
    outer loop
      vertex 15.1852 2.94418 -6
      vertex 15.9116 2.80562 -11
      vertex 15.1852 2.94418 -11
    endloop
  endfacet
  facet normal -0.968583 -0.248692 0
    outer loop
      vertex 12.2572 -1.08597 -11
      vertex 12.0733 -0.369733 -6
      vertex 12.0733 -0.369733 -11
    endloop
  endfacet
  facet normal -0.968583 -0.248692 0
    outer loop
      vertex 12.0733 -0.369733 -6
      vertex 12.2572 -1.08597 -11
      vertex 12.2572 -1.08597 -6
    endloop
  endfacet
  facet normal 0 0 -1
    outer loop
      vertex 17.8573 -0.733635 -11
      vertex 17.8573 0.733635 -11
      vertex 17.95 0 -11
    endloop
  endfacet
  facet normal 0 0 -1
    outer loop
      vertex 17.5851 -1.42117 -11
      vertex 17.8573 0.733635 -11
      vertex 17.8573 -0.733635 -11
    endloop
  endfacet
  facet normal 0 0 -1
    outer loop
      vertex 17.5851 -1.42117 -11
      vertex 17.5851 1.42117 -11
      vertex 17.8573 0.733635 -11
    endloop
  endfacet
  facet normal 0 0 -1
    outer loop
      vertex 17.1505 -2.01941 -11
      vertex 17.5851 1.42117 -11
      vertex 17.5851 -1.42117 -11
    endloop
  endfacet
  facet normal 0 0 -1
    outer loop
      vertex 17.1505 -2.01941 -11
      vertex 17.1505 2.01941 -11
      vertex 17.5851 1.42117 -11
    endloop
  endfacet
  facet normal 0 0 -1
    outer loop
      vertex 16.5807 -2.49077 -11
      vertex 17.1505 2.01941 -11
      vertex 17.1505 -2.01941 -11
    endloop
  endfacet
  facet normal 0 0 -1
    outer loop
      vertex 16.5807 -2.49077 -11
      vertex 16.5807 2.49077 -11
      vertex 17.1505 2.01941 -11
    endloop
  endfacet
  facet normal 0 0 -1
    outer loop
      vertex 15.9116 -2.80562 -11
      vertex 16.5807 2.49077 -11
      vertex 16.5807 -2.49077 -11
    endloop
  endfacet
  facet normal 0 0 -1
    outer loop
      vertex 15.9116 -2.80562 -11
      vertex 15.9116 2.80562 -11
      vertex 16.5807 2.49077 -11
    endloop
  endfacet
  facet normal 0 0 -1
    outer loop
      vertex 15.1852 -2.94418 -11
      vertex 15.9116 2.80562 -11
      vertex 15.9116 -2.80562 -11
    endloop
  endfacet
  facet normal 0 0 -1
    outer loop
      vertex 15.1852 -2.94418 -11
      vertex 15.1852 2.94418 -11
      vertex 15.9116 2.80562 -11
    endloop
  endfacet
  facet normal 0 0 -1
    outer loop
      vertex 14.4472 -2.89775 -11
      vertex 15.1852 2.94418 -11
      vertex 15.1852 -2.94418 -11
    endloop
  endfacet
  facet normal 0 0 -1
    outer loop
      vertex 14.4472 -2.89775 -11
      vertex 14.4472 2.89775 -11
      vertex 15.1852 2.94418 -11
    endloop
  endfacet
  facet normal 0 0 -1
    outer loop
      vertex 13.744 -2.66924 -11
      vertex 14.4472 2.89775 -11
      vertex 14.4472 -2.89775 -11
    endloop
  endfacet
  facet normal 0 0 -1
    outer loop
      vertex 13.744 -2.66924 -11
      vertex 13.744 2.66924 -11
      vertex 14.4472 2.89775 -11
    endloop
  endfacet
  facet normal 0 0 -1
    outer loop
      vertex 13.1196 -2.27301 -11
      vertex 13.744 2.66924 -11
      vertex 13.744 -2.66924 -11
    endloop
  endfacet
  facet normal 0 0 -1
    outer loop
      vertex 13.1196 -2.27301 -11
      vertex 13.1196 2.27301 -11
      vertex 13.744 2.66924 -11
    endloop
  endfacet
  facet normal 0 0 -1
    outer loop
      vertex 12.6134 -1.73397 -11
      vertex 13.1196 2.27301 -11
      vertex 13.1196 -2.27301 -11
    endloop
  endfacet
  facet normal 0 0 -1
    outer loop
      vertex 12.6134 -1.73397 -11
      vertex 12.6134 1.73397 -11
      vertex 13.1196 2.27301 -11
    endloop
  endfacet
  facet normal 0 0 -1
    outer loop
      vertex 12.2572 -1.08597 -11
      vertex 12.6134 1.73397 -11
      vertex 12.6134 -1.73397 -11
    endloop
  endfacet
  facet normal 0 0 -1
    outer loop
      vertex 12.2572 -1.08597 -11
      vertex 12.2572 1.08597 -11
      vertex 12.6134 1.73397 -11
    endloop
  endfacet
  facet normal 0 0 -1
    outer loop
      vertex 12.0733 -0.369733 -11
      vertex 12.2572 1.08597 -11
      vertex 12.2572 -1.08597 -11
    endloop
  endfacet
  facet normal 0 0 -1
    outer loop
      vertex 12.2572 1.08597 -11
      vertex 12.0733 -0.369733 -11
      vertex 12.0733 0.369733 -11
    endloop
  endfacet
  facet normal -0.535801 -0.844344 0
    outer loop
      vertex 13.1196 -2.27301 -11
      vertex 13.744 -2.66924 -6
      vertex 13.1196 -2.27301 -6
    endloop
  endfacet
  facet normal -0.535801 -0.844344 -0
    outer loop
      vertex 13.744 -2.66924 -6
      vertex 13.1196 -2.27301 -11
      vertex 13.744 -2.66924 -11
    endloop
  endfacet
  facet normal -0.0627891 -0.998027 0
    outer loop
      vertex 14.4472 -2.89775 -11
      vertex 15.1852 -2.94418 -6
      vertex 14.4472 -2.89775 -6
    endloop
  endfacet
  facet normal -0.0627891 -0.998027 -0
    outer loop
      vertex 15.1852 -2.94418 -6
      vertex 14.4472 -2.89775 -11
      vertex 15.1852 -2.94418 -11
    endloop
  endfacet
  facet normal 0.425774 -0.904829 0
    outer loop
      vertex 15.9116 -2.80562 -11
      vertex 16.5807 -2.49077 -6
      vertex 15.9116 -2.80562 -6
    endloop
  endfacet
  facet normal 0.425774 -0.904829 0
    outer loop
      vertex 16.5807 -2.49077 -6
      vertex 15.9116 -2.80562 -11
      vertex 16.5807 -2.49077 -11
    endloop
  endfacet
  facet normal 0.809047 -0.587744 0
    outer loop
      vertex 17.1505 -2.01941 -6
      vertex 17.5851 -1.42117 -11
      vertex 17.5851 -1.42117 -6
    endloop
  endfacet
  facet normal 0.809047 -0.587744 0
    outer loop
      vertex 17.5851 -1.42117 -11
      vertex 17.1505 -2.01941 -6
      vertex 17.1505 -2.01941 -11
    endloop
  endfacet
  facet normal -0.728963 0.684553 0
    outer loop
      vertex 12.6134 1.73397 -11
      vertex 13.1196 2.27301 -6
      vertex 13.1196 2.27301 -11
    endloop
  endfacet
  facet normal -0.728963 0.684553 0
    outer loop
      vertex 13.1196 2.27301 -6
      vertex 12.6134 1.73397 -11
      vertex 12.6134 1.73397 -6
    endloop
  endfacet
  facet normal -0.535801 0.844344 0
    outer loop
      vertex 13.744 2.66924 -11
      vertex 13.1196 2.27301 -6
      vertex 13.744 2.66924 -6
    endloop
  endfacet
  facet normal -0.535801 0.844344 0
    outer loop
      vertex 13.1196 2.27301 -6
      vertex 13.744 2.66924 -11
      vertex 13.1196 2.27301 -11
    endloop
  endfacet
  facet normal -0.0627891 0.998027 0
    outer loop
      vertex 15.1852 2.94418 -11
      vertex 14.4472 2.89775 -6
      vertex 15.1852 2.94418 -6
    endloop
  endfacet
  facet normal -0.0627891 0.998027 0
    outer loop
      vertex 14.4472 2.89775 -6
      vertex 15.1852 2.94418 -11
      vertex 14.4472 2.89775 -11
    endloop
  endfacet
  facet normal 0.929783 0.368108 0
    outer loop
      vertex 17.8573 0.733635 -6
      vertex 17.5851 1.42117 -11
      vertex 17.5851 1.42117 -6
    endloop
  endfacet
  facet normal 0.929783 0.368108 0
    outer loop
      vertex 17.5851 1.42117 -11
      vertex 17.8573 0.733635 -6
      vertex 17.8573 0.733635 -11
    endloop
  endfacet
  facet normal -0.87633 -0.481711 0
    outer loop
      vertex 12.6134 -1.73397 -11
      vertex 12.2572 -1.08597 -6
      vertex 12.2572 -1.08597 -11
    endloop
  endfacet
  facet normal -0.87633 -0.481711 0
    outer loop
      vertex 12.2572 -1.08597 -6
      vertex 12.6134 -1.73397 -11
      vertex 12.6134 -1.73397 -6
    endloop
  endfacet
  facet normal -0.309049 -0.951046 0
    outer loop
      vertex 13.744 -2.66924 -11
      vertex 14.4472 -2.89775 -6
      vertex 13.744 -2.66924 -6
    endloop
  endfacet
  facet normal -0.309049 -0.951046 -0
    outer loop
      vertex 14.4472 -2.89775 -6
      vertex 13.744 -2.66924 -11
      vertex 14.4472 -2.89775 -11
    endloop
  endfacet
  facet normal 0.187371 -0.982289 0
    outer loop
      vertex 15.1852 -2.94418 -11
      vertex 15.9116 -2.80562 -6
      vertex 15.1852 -2.94418 -6
    endloop
  endfacet
  facet normal 0.187371 -0.982289 0
    outer loop
      vertex 15.9116 -2.80562 -6
      vertex 15.1852 -2.94418 -11
      vertex 15.9116 -2.80562 -11
    endloop
  endfacet
  facet normal 0.929783 -0.368108 0
    outer loop
      vertex 17.5851 -1.42117 -6
      vertex 17.8573 -0.733635 -11
      vertex 17.8573 -0.733635 -6
    endloop
  endfacet
  facet normal 0.929783 -0.368108 0
    outer loop
      vertex 17.8573 -0.733635 -11
      vertex 17.5851 -1.42117 -6
      vertex 17.5851 -1.42117 -11
    endloop
  endfacet
  facet normal -0.87633 0.481711 0
    outer loop
      vertex 12.2572 1.08597 -11
      vertex 12.6134 1.73397 -6
      vertex 12.6134 1.73397 -11
    endloop
  endfacet
  facet normal -0.87633 0.481711 0
    outer loop
      vertex 12.6134 1.73397 -6
      vertex 12.2572 1.08597 -11
      vertex 12.2572 1.08597 -6
    endloop
  endfacet
  facet normal -0.309049 0.951046 0
    outer loop
      vertex 14.4472 2.89775 -11
      vertex 13.744 2.66924 -6
      vertex 14.4472 2.89775 -6
    endloop
  endfacet
  facet normal -0.309049 0.951046 0
    outer loop
      vertex 13.744 2.66924 -6
      vertex 14.4472 2.89775 -11
      vertex 13.744 2.66924 -11
    endloop
  endfacet
  facet normal 0.425774 0.904829 -0
    outer loop
      vertex 16.5807 2.49077 -11
      vertex 15.9116 2.80562 -6
      vertex 16.5807 2.49077 -6
    endloop
  endfacet
  facet normal 0.425774 0.904829 0
    outer loop
      vertex 15.9116 2.80562 -6
      vertex 16.5807 2.49077 -11
      vertex 15.9116 2.80562 -11
    endloop
  endfacet
  facet normal 0.637408 0.770526 -0
    outer loop
      vertex 17.1505 2.01941 -11
      vertex 16.5807 2.49077 -6
      vertex 17.1505 2.01941 -6
    endloop
  endfacet
  facet normal 0.637408 0.770526 0
    outer loop
      vertex 16.5807 2.49077 -6
      vertex 17.1505 2.01941 -11
      vertex 16.5807 2.49077 -11
    endloop
  endfacet
  facet normal 0.992111 -0.12536 0
    outer loop
      vertex -12.1427 -0.733635 -6
      vertex -12.05 0 -11
      vertex -12.05 0 -6
    endloop
  endfacet
  facet normal 0.992111 -0.12536 0
    outer loop
      vertex -12.05 0 -11
      vertex -12.1427 -0.733635 -6
      vertex -12.1427 -0.733635 -11
    endloop
  endfacet
  facet normal 0.992111 0.12536 0
    outer loop
      vertex -12.05 0 -6
      vertex -12.1427 0.733635 -11
      vertex -12.1427 0.733635 -6
    endloop
  endfacet
  facet normal 0.992111 0.12536 0
    outer loop
      vertex -12.1427 0.733635 -11
      vertex -12.05 0 -6
      vertex -12.05 0 -11
    endloop
  endfacet
  facet normal -0.0627891 0.998027 0
    outer loop
      vertex -14.8148 2.94418 -11
      vertex -15.5528 2.89775 -6
      vertex -14.8148 2.94418 -6
    endloop
  endfacet
  facet normal -0.0627891 0.998027 0
    outer loop
      vertex -15.5528 2.89775 -6
      vertex -14.8148 2.94418 -11
      vertex -15.5528 2.89775 -11
    endloop
  endfacet
  facet normal -0.728963 -0.684553 0
    outer loop
      vertex -16.8804 -2.27301 -11
      vertex -17.3866 -1.73397 -6
      vertex -17.3866 -1.73397 -11
    endloop
  endfacet
  facet normal -0.728963 -0.684553 0
    outer loop
      vertex -17.3866 -1.73397 -6
      vertex -16.8804 -2.27301 -11
      vertex -16.8804 -2.27301 -6
    endloop
  endfacet
  facet normal 0 0 -1
    outer loop
      vertex -12.1427 -0.733635 -11
      vertex -12.1427 0.733635 -11
      vertex -12.05 0 -11
    endloop
  endfacet
  facet normal 0 0 -1
    outer loop
      vertex -12.4149 -1.42117 -11
      vertex -12.1427 0.733635 -11
      vertex -12.1427 -0.733635 -11
    endloop
  endfacet
  facet normal 0 0 -1
    outer loop
      vertex -12.4149 -1.42117 -11
      vertex -12.4149 1.42117 -11
      vertex -12.1427 0.733635 -11
    endloop
  endfacet
  facet normal 0 0 -1
    outer loop
      vertex -12.8495 -2.01941 -11
      vertex -12.4149 1.42117 -11
      vertex -12.4149 -1.42117 -11
    endloop
  endfacet
  facet normal 0 0 -1
    outer loop
      vertex -12.8495 -2.01941 -11
      vertex -12.8495 2.01941 -11
      vertex -12.4149 1.42117 -11
    endloop
  endfacet
  facet normal 0 0 -1
    outer loop
      vertex -13.4193 -2.49077 -11
      vertex -12.8495 2.01941 -11
      vertex -12.8495 -2.01941 -11
    endloop
  endfacet
  facet normal 0 0 -1
    outer loop
      vertex -13.4193 -2.49077 -11
      vertex -13.4193 2.49077 -11
      vertex -12.8495 2.01941 -11
    endloop
  endfacet
  facet normal 0 0 -1
    outer loop
      vertex -14.0884 -2.80562 -11
      vertex -13.4193 2.49077 -11
      vertex -13.4193 -2.49077 -11
    endloop
  endfacet
  facet normal 0 0 -1
    outer loop
      vertex -14.0884 -2.80562 -11
      vertex -14.0884 2.80562 -11
      vertex -13.4193 2.49077 -11
    endloop
  endfacet
  facet normal 0 0 -1
    outer loop
      vertex -14.8148 -2.94418 -11
      vertex -14.0884 2.80562 -11
      vertex -14.0884 -2.80562 -11
    endloop
  endfacet
  facet normal 0 0 -1
    outer loop
      vertex -14.8148 -2.94418 -11
      vertex -14.8148 2.94418 -11
      vertex -14.0884 2.80562 -11
    endloop
  endfacet
  facet normal 0 0 -1
    outer loop
      vertex -15.5528 -2.89775 -11
      vertex -14.8148 2.94418 -11
      vertex -14.8148 -2.94418 -11
    endloop
  endfacet
  facet normal 0 0 -1
    outer loop
      vertex -15.5528 -2.89775 -11
      vertex -15.5528 2.89775 -11
      vertex -14.8148 2.94418 -11
    endloop
  endfacet
  facet normal 0 0 -1
    outer loop
      vertex -16.256 -2.66924 -11
      vertex -15.5528 2.89775 -11
      vertex -15.5528 -2.89775 -11
    endloop
  endfacet
  facet normal 0 0 -1
    outer loop
      vertex -16.256 -2.66924 -11
      vertex -16.256 2.66924 -11
      vertex -15.5528 2.89775 -11
    endloop
  endfacet
  facet normal 0 0 -1
    outer loop
      vertex -16.8804 -2.27301 -11
      vertex -16.256 2.66924 -11
      vertex -16.256 -2.66924 -11
    endloop
  endfacet
  facet normal 0 0 -1
    outer loop
      vertex -16.8804 -2.27301 -11
      vertex -16.8804 2.27301 -11
      vertex -16.256 2.66924 -11
    endloop
  endfacet
  facet normal 0 0 -1
    outer loop
      vertex -17.3866 -1.73397 -11
      vertex -16.8804 2.27301 -11
      vertex -16.8804 -2.27301 -11
    endloop
  endfacet
  facet normal 0 0 -1
    outer loop
      vertex -17.3866 -1.73397 -11
      vertex -17.3866 1.73397 -11
      vertex -16.8804 2.27301 -11
    endloop
  endfacet
  facet normal 0 0 -1
    outer loop
      vertex -17.7428 -1.08597 -11
      vertex -17.3866 1.73397 -11
      vertex -17.3866 -1.73397 -11
    endloop
  endfacet
  facet normal 0 0 -1
    outer loop
      vertex -17.7428 -1.08597 -11
      vertex -17.7428 1.08597 -11
      vertex -17.3866 1.73397 -11
    endloop
  endfacet
  facet normal 0 0 -1
    outer loop
      vertex -17.9267 -0.369733 -11
      vertex -17.7428 1.08597 -11
      vertex -17.7428 -1.08597 -11
    endloop
  endfacet
  facet normal 0 0 -1
    outer loop
      vertex -17.7428 1.08597 -11
      vertex -17.9267 -0.369733 -11
      vertex -17.9267 0.369733 -11
    endloop
  endfacet
  facet normal 0.637408 -0.770526 0
    outer loop
      vertex -13.4193 -2.49077 -11
      vertex -12.8495 -2.01941 -6
      vertex -13.4193 -2.49077 -6
    endloop
  endfacet
  facet normal 0.637408 -0.770526 0
    outer loop
      vertex -12.8495 -2.01941 -6
      vertex -13.4193 -2.49077 -11
      vertex -12.8495 -2.01941 -11
    endloop
  endfacet
  facet normal 0.425774 -0.904829 0
    outer loop
      vertex -14.0884 -2.80562 -11
      vertex -13.4193 -2.49077 -6
      vertex -14.0884 -2.80562 -6
    endloop
  endfacet
  facet normal 0.425774 -0.904829 0
    outer loop
      vertex -13.4193 -2.49077 -6
      vertex -14.0884 -2.80562 -11
      vertex -13.4193 -2.49077 -11
    endloop
  endfacet
  facet normal 0.809047 -0.587744 0
    outer loop
      vertex -12.8495 -2.01941 -6
      vertex -12.4149 -1.42117 -11
      vertex -12.4149 -1.42117 -6
    endloop
  endfacet
  facet normal 0.809047 -0.587744 0
    outer loop
      vertex -12.4149 -1.42117 -11
      vertex -12.8495 -2.01941 -6
      vertex -12.8495 -2.01941 -11
    endloop
  endfacet
  facet normal -0.728963 0.684553 0
    outer loop
      vertex -17.3866 1.73397 -11
      vertex -16.8804 2.27301 -6
      vertex -16.8804 2.27301 -11
    endloop
  endfacet
  facet normal -0.728963 0.684553 0
    outer loop
      vertex -16.8804 2.27301 -6
      vertex -17.3866 1.73397 -11
      vertex -17.3866 1.73397 -6
    endloop
  endfacet
  facet normal 0.929783 0.368108 0
    outer loop
      vertex -12.1427 0.733635 -6
      vertex -12.4149 1.42117 -11
      vertex -12.4149 1.42117 -6
    endloop
  endfacet
  facet normal 0.929783 0.368108 0
    outer loop
      vertex -12.4149 1.42117 -11
      vertex -12.1427 0.733635 -6
      vertex -12.1427 0.733635 -11
    endloop
  endfacet
  facet normal -0.968583 -0.248692 0
    outer loop
      vertex -17.7428 -1.08597 -11
      vertex -17.9267 -0.369733 -6
      vertex -17.9267 -0.369733 -11
    endloop
  endfacet
  facet normal -0.968583 -0.248692 0
    outer loop
      vertex -17.9267 -0.369733 -6
      vertex -17.7428 -1.08597 -11
      vertex -17.7428 -1.08597 -6
    endloop
  endfacet
  facet normal -0.535801 -0.844344 0
    outer loop
      vertex -16.8804 -2.27301 -11
      vertex -16.256 -2.66924 -6
      vertex -16.8804 -2.27301 -6
    endloop
  endfacet
  facet normal -0.535801 -0.844344 -0
    outer loop
      vertex -16.256 -2.66924 -6
      vertex -16.8804 -2.27301 -11
      vertex -16.256 -2.66924 -11
    endloop
  endfacet
  facet normal -0.309049 -0.951046 0
    outer loop
      vertex -16.256 -2.66924 -11
      vertex -15.5528 -2.89775 -6
      vertex -16.256 -2.66924 -6
    endloop
  endfacet
  facet normal -0.309049 -0.951046 -0
    outer loop
      vertex -15.5528 -2.89775 -6
      vertex -16.256 -2.66924 -11
      vertex -15.5528 -2.89775 -11
    endloop
  endfacet
  facet normal -0.0627891 -0.998027 0
    outer loop
      vertex -15.5528 -2.89775 -11
      vertex -14.8148 -2.94418 -6
      vertex -15.5528 -2.89775 -6
    endloop
  endfacet
  facet normal -0.0627891 -0.998027 -0
    outer loop
      vertex -14.8148 -2.94418 -6
      vertex -15.5528 -2.89775 -11
      vertex -14.8148 -2.94418 -11
    endloop
  endfacet
  facet normal 0.929783 -0.368108 0
    outer loop
      vertex -12.4149 -1.42117 -6
      vertex -12.1427 -0.733635 -11
      vertex -12.1427 -0.733635 -6
    endloop
  endfacet
  facet normal 0.929783 -0.368108 0
    outer loop
      vertex -12.1427 -0.733635 -11
      vertex -12.4149 -1.42117 -6
      vertex -12.4149 -1.42117 -11
    endloop
  endfacet
  facet normal 0.187371 -0.982289 0
    outer loop
      vertex -14.8148 -2.94418 -11
      vertex -14.0884 -2.80562 -6
      vertex -14.8148 -2.94418 -6
    endloop
  endfacet
  facet normal 0.187371 -0.982289 0
    outer loop
      vertex -14.0884 -2.80562 -6
      vertex -14.8148 -2.94418 -11
      vertex -14.0884 -2.80562 -11
    endloop
  endfacet
  facet normal -0.968583 0.248692 0
    outer loop
      vertex -17.9267 0.369733 -11
      vertex -17.7428 1.08597 -6
      vertex -17.7428 1.08597 -11
    endloop
  endfacet
  facet normal -0.968583 0.248692 0
    outer loop
      vertex -17.7428 1.08597 -6
      vertex -17.9267 0.369733 -11
      vertex -17.9267 0.369733 -6
    endloop
  endfacet
  facet normal -0.535801 0.844344 0
    outer loop
      vertex -16.256 2.66924 -11
      vertex -16.8804 2.27301 -6
      vertex -16.256 2.66924 -6
    endloop
  endfacet
  facet normal -0.535801 0.844344 0
    outer loop
      vertex -16.8804 2.27301 -6
      vertex -16.256 2.66924 -11
      vertex -16.8804 2.27301 -11
    endloop
  endfacet
  facet normal -0.87633 0.481711 0
    outer loop
      vertex -17.7428 1.08597 -11
      vertex -17.3866 1.73397 -6
      vertex -17.3866 1.73397 -11
    endloop
  endfacet
  facet normal -0.87633 0.481711 0
    outer loop
      vertex -17.3866 1.73397 -6
      vertex -17.7428 1.08597 -11
      vertex -17.7428 1.08597 -6
    endloop
  endfacet
  facet normal 0.809047 0.587744 0
    outer loop
      vertex -12.4149 1.42117 -6
      vertex -12.8495 2.01941 -11
      vertex -12.8495 2.01941 -6
    endloop
  endfacet
  facet normal 0.809047 0.587744 0
    outer loop
      vertex -12.8495 2.01941 -11
      vertex -12.4149 1.42117 -6
      vertex -12.4149 1.42117 -11
    endloop
  endfacet
  facet normal 0.187371 0.982289 -0
    outer loop
      vertex -14.0884 2.80562 -11
      vertex -14.8148 2.94418 -6
      vertex -14.0884 2.80562 -6
    endloop
  endfacet
  facet normal 0.187371 0.982289 0
    outer loop
      vertex -14.8148 2.94418 -6
      vertex -14.0884 2.80562 -11
      vertex -14.8148 2.94418 -11
    endloop
  endfacet
  facet normal -0.87633 -0.481711 0
    outer loop
      vertex -17.3866 -1.73397 -11
      vertex -17.7428 -1.08597 -6
      vertex -17.7428 -1.08597 -11
    endloop
  endfacet
  facet normal -0.87633 -0.481711 0
    outer loop
      vertex -17.7428 -1.08597 -6
      vertex -17.3866 -1.73397 -11
      vertex -17.3866 -1.73397 -6
    endloop
  endfacet
  facet normal -1 0 0
    outer loop
      vertex -17.9267 -0.369733 -11
      vertex -17.9267 0.369733 -6
      vertex -17.9267 0.369733 -11
    endloop
  endfacet
  facet normal -1 -0 0
    outer loop
      vertex -17.9267 0.369733 -6
      vertex -17.9267 -0.369733 -11
      vertex -17.9267 -0.369733 -6
    endloop
  endfacet
  facet normal -0.309049 0.951046 0
    outer loop
      vertex -15.5528 2.89775 -11
      vertex -16.256 2.66924 -6
      vertex -15.5528 2.89775 -6
    endloop
  endfacet
  facet normal -0.309049 0.951046 0
    outer loop
      vertex -16.256 2.66924 -6
      vertex -15.5528 2.89775 -11
      vertex -16.256 2.66924 -11
    endloop
  endfacet
  facet normal 0.425774 0.904829 -0
    outer loop
      vertex -13.4193 2.49077 -11
      vertex -14.0884 2.80562 -6
      vertex -13.4193 2.49077 -6
    endloop
  endfacet
  facet normal 0.425774 0.904829 0
    outer loop
      vertex -14.0884 2.80562 -6
      vertex -13.4193 2.49077 -11
      vertex -14.0884 2.80562 -11
    endloop
  endfacet
  facet normal 0.637408 0.770526 -0
    outer loop
      vertex -12.8495 2.01941 -11
      vertex -13.4193 2.49077 -6
      vertex -12.8495 2.01941 -6
    endloop
  endfacet
  facet normal 0.637408 0.770526 0
    outer loop
      vertex -13.4193 2.49077 -6
      vertex -12.8495 2.01941 -11
      vertex -13.4193 2.49077 -11
    endloop
  endfacet
  facet normal -0.866026 0.5 0
    outer loop
      vertex 2.88675 -5 -3
      vertex 5.7735 0 0
      vertex 5.7735 0 -3
    endloop
  endfacet
  facet normal -0.866026 0.5 0
    outer loop
      vertex 5.7735 0 0
      vertex 2.88675 -5 -3
      vertex 2.88675 -5 0
    endloop
  endfacet
  facet normal 0 0 1
    outer loop
      vertex 5.7735 0 -3
      vertex 2.90575 0.746069 -3
      vertex 3 0 -3
    endloop
  endfacet
  facet normal -0 0 1
    outer loop
      vertex 2.62892 1.44526 -3
      vertex 5.7735 0 -3
      vertex 2.88675 5 -3
    endloop
  endfacet
  facet normal 0 0 1
    outer loop
      vertex 5.7735 0 -3
      vertex 2.62892 1.44526 -3
      vertex 2.90575 0.746069 -3
    endloop
  endfacet
  facet normal 0 0 1
    outer loop
      vertex 2.88675 5 -3
      vertex 2.18691 2.05364 -3
      vertex 2.62892 1.44526 -3
    endloop
  endfacet
  facet normal 0 0 1
    outer loop
      vertex 2.88675 5 -3
      vertex 1.60748 2.53298 -3
      vertex 2.18691 2.05364 -3
    endloop
  endfacet
  facet normal 0 0 1
    outer loop
      vertex 2.88675 5 -3
      vertex 0.927051 2.85317 -3
      vertex 1.60748 2.53298 -3
    endloop
  endfacet
  facet normal 0 0 1
    outer loop
      vertex 2.88675 5 -3
      vertex 0.188371 2.99408 -3
      vertex 0.927051 2.85317 -3
    endloop
  endfacet
  facet normal -0 0 1
    outer loop
      vertex -2.88675 5 -3
      vertex 0.188371 2.99408 -3
      vertex 2.88675 5 -3
    endloop
  endfacet
  facet normal 0 0 1
    outer loop
      vertex 0.188371 2.99408 -3
      vertex -2.88675 5 -3
      vertex -0.562143 2.94686 -3
    endloop
  endfacet
  facet normal 0 0 1
    outer loop
      vertex -0.562143 2.94686 -3
      vertex -2.88675 5 -3
      vertex -1.27734 2.71448 -3
    endloop
  endfacet
  facet normal 0 0 1
    outer loop
      vertex -2.88675 5 -3
      vertex -1.91227 2.31154 -3
      vertex -1.27734 2.71448 -3
    endloop
  endfacet
  facet normal 0 0 1
    outer loop
      vertex -2.88675 5 -3
      vertex -2.42705 1.76336 -3
      vertex -1.91227 2.31154 -3
    endloop
  endfacet
  facet normal 0 0 1
    outer loop
      vertex -5.7735 0 -3
      vertex -2.42705 1.76336 -3
      vertex -2.88675 5 -3
    endloop
  endfacet
  facet normal 0 0 1
    outer loop
      vertex -2.42705 1.76336 -3
      vertex -5.7735 0 -3
      vertex -2.78933 1.10437 -3
    endloop
  endfacet
  facet normal 0 0 1
    outer loop
      vertex -2.97634 0.375999 -3
      vertex -5.7735 0 -3
      vertex -2.97634 -0.375999 -3
    endloop
  endfacet
  facet normal 0 0 1
    outer loop
      vertex -2.78933 1.10437 -3
      vertex -5.7735 0 -3
      vertex -2.97634 0.375999 -3
    endloop
  endfacet
  facet normal 0 0 1
    outer loop
      vertex 2.90575 -0.746069 -3
      vertex 5.7735 0 -3
      vertex 3 0 -3
    endloop
  endfacet
  facet normal 0 0 1
    outer loop
      vertex 2.62892 -1.44526 -3
      vertex 5.7735 0 -3
      vertex 2.90575 -0.746069 -3
    endloop
  endfacet
  facet normal 0 0 1
    outer loop
      vertex 5.7735 0 -3
      vertex 2.62892 -1.44526 -3
      vertex 2.88675 -5 -3
    endloop
  endfacet
  facet normal -0 0 1
    outer loop
      vertex 2.18691 -2.05364 -3
      vertex 2.88675 -5 -3
      vertex 2.62892 -1.44526 -3
    endloop
  endfacet
  facet normal -0 0 1
    outer loop
      vertex 1.60748 -2.53298 -3
      vertex 2.88675 -5 -3
      vertex 2.18691 -2.05364 -3
    endloop
  endfacet
  facet normal -0 0 1
    outer loop
      vertex 0.927051 -2.85317 -3
      vertex 2.88675 -5 -3
      vertex 1.60748 -2.53298 -3
    endloop
  endfacet
  facet normal -0 0 1
    outer loop
      vertex 0.188371 -2.99408 -3
      vertex 2.88675 -5 -3
      vertex 0.927051 -2.85317 -3
    endloop
  endfacet
  facet normal 0 0 1
    outer loop
      vertex -2.88675 -5 -3
      vertex 0.188371 -2.99408 -3
      vertex -0.562143 -2.94686 -3
    endloop
  endfacet
  facet normal 0 0 1
    outer loop
      vertex -2.88675 -5 -3
      vertex -0.562143 -2.94686 -3
      vertex -1.27734 -2.71448 -3
    endloop
  endfacet
  facet normal 0 0 1
    outer loop
      vertex 0.188371 -2.99408 -3
      vertex -2.88675 -5 -3
      vertex 2.88675 -5 -3
    endloop
  endfacet
  facet normal 0 0 1
    outer loop
      vertex -1.91227 -2.31154 -3
      vertex -2.88675 -5 -3
      vertex -1.27734 -2.71448 -3
    endloop
  endfacet
  facet normal 0 0 1
    outer loop
      vertex -2.42705 -1.76336 -3
      vertex -2.88675 -5 -3
      vertex -1.91227 -2.31154 -3
    endloop
  endfacet
  facet normal 0 0 1
    outer loop
      vertex -5.7735 0 -3
      vertex -2.42705 -1.76336 -3
      vertex -2.78933 -1.10437 -3
    endloop
  endfacet
  facet normal 0 0 1
    outer loop
      vertex -5.7735 0 -3
      vertex -2.78933 -1.10437 -3
      vertex -2.97634 -0.375999 -3
    endloop
  endfacet
  facet normal 0 0 1
    outer loop
      vertex -2.42705 -1.76336 -3
      vertex -5.7735 0 -3
      vertex -2.88675 -5 -3
    endloop
  endfacet
  facet normal -0.866026 -0.5 0
    outer loop
      vertex 5.7735 0 -3
      vertex 2.88675 5 0
      vertex 2.88675 5 -3
    endloop
  endfacet
  facet normal -0.866026 -0.5 0
    outer loop
      vertex 2.88675 5 0
      vertex 5.7735 0 -3
      vertex 5.7735 0 0
    endloop
  endfacet
  facet normal 0.866026 0.5 0
    outer loop
      vertex -2.88675 -5 0
      vertex -5.7735 0 -3
      vertex -5.7735 0 0
    endloop
  endfacet
  facet normal 0.866026 0.5 0
    outer loop
      vertex -5.7735 0 -3
      vertex -2.88675 -5 0
      vertex -2.88675 -5 -3
    endloop
  endfacet
  facet normal 0 1 -0
    outer loop
      vertex 2.88675 -5 -3
      vertex -2.88675 -5 0
      vertex 2.88675 -5 0
    endloop
  endfacet
  facet normal 0 1 0
    outer loop
      vertex -2.88675 -5 0
      vertex 2.88675 -5 -3
      vertex -2.88675 -5 -3
    endloop
  endfacet
  facet normal 0.866026 -0.5 0
    outer loop
      vertex -5.7735 0 0
      vertex -2.88675 5 -3
      vertex -2.88675 5 0
    endloop
  endfacet
  facet normal 0.866026 -0.5 0
    outer loop
      vertex -2.88675 5 -3
      vertex -5.7735 0 0
      vertex -5.7735 0 -3
    endloop
  endfacet
  facet normal 0 -1 0
    outer loop
      vertex -2.88675 5 -3
      vertex 2.88675 5 0
      vertex -2.88675 5 0
    endloop
  endfacet
  facet normal 0 -1 -0
    outer loop
      vertex 2.88675 5 0
      vertex -2.88675 5 -3
      vertex 2.88675 5 -3
    endloop
  endfacet
  facet normal -0.992115 0.125333 0
    outer loop
      vertex 2.90575 -0.746069 -6
      vertex 3 0 -3
      vertex 3 0 -6
    endloop
  endfacet
  facet normal -0.992115 0.125333 0
    outer loop
      vertex 3 0 -3
      vertex 2.90575 -0.746069 -6
      vertex 2.90575 -0.746069 -3
    endloop
  endfacet
  facet normal -0.992115 -0.125333 0
    outer loop
      vertex 3 0 -6
      vertex 2.90575 0.746069 -3
      vertex 2.90575 0.746069 -6
    endloop
  endfacet
  facet normal -0.992115 -0.125333 0
    outer loop
      vertex 2.90575 0.746069 -3
      vertex 3 0 -6
      vertex 3 0 -3
    endloop
  endfacet
  facet normal 0.968584 -0.248685 0
    outer loop
      vertex -2.97634 0.375999 -3
      vertex -2.78933 1.10437 -6
      vertex -2.78933 1.10437 -3
    endloop
  endfacet
  facet normal 0.968584 -0.248685 0
    outer loop
      vertex -2.78933 1.10437 -6
      vertex -2.97634 0.375999 -3
      vertex -2.97634 0.375999 -6
    endloop
  endfacet
  facet normal 0.876308 0.481751 0
    outer loop
      vertex -2.42705 -1.76336 -3
      vertex -2.78933 -1.10437 -6
      vertex -2.78933 -1.10437 -3
    endloop
  endfacet
  facet normal 0.876308 0.481751 0
    outer loop
      vertex -2.78933 -1.10437 -6
      vertex -2.42705 -1.76336 -3
      vertex -2.42705 -1.76336 -6
    endloop
  endfacet
  facet normal 1 -0 0
    outer loop
      vertex -2.97634 -0.375999 -3
      vertex -2.97634 0.375999 -6
      vertex -2.97634 0.375999 -3
    endloop
  endfacet
  facet normal 1 0 0
    outer loop
      vertex -2.97634 0.375999 -6
      vertex -2.97634 -0.375999 -3
      vertex -2.97634 -0.375999 -6
    endloop
  endfacet
  facet normal 0.728965 0.68455 0
    outer loop
      vertex -1.91227 -2.31154 -3
      vertex -2.42705 -1.76336 -6
      vertex -2.42705 -1.76336 -3
    endloop
  endfacet
  facet normal 0.728965 0.68455 0
    outer loop
      vertex -2.42705 -1.76336 -6
      vertex -1.91227 -2.31154 -3
      vertex -1.91227 -2.31154 -6
    endloop
  endfacet
  facet normal -0.18738 -0.982287 0
    outer loop
      vertex 0.188371 2.99408 -6
      vertex 0.927051 2.85317 -3
      vertex 0.188371 2.99408 -3
    endloop
  endfacet
  facet normal -0.18738 -0.982287 -0
    outer loop
      vertex 0.927051 2.85317 -3
      vertex 0.188371 2.99408 -6
      vertex 0.927051 2.85317 -6
    endloop
  endfacet
  facet normal 0.968584 0.248685 0
    outer loop
      vertex -2.78933 -1.10437 -3
      vertex -2.97634 -0.375999 -6
      vertex -2.97634 -0.375999 -3
    endloop
  endfacet
  facet normal 0.968584 0.248685 0
    outer loop
      vertex -2.97634 -0.375999 -6
      vertex -2.78933 -1.10437 -3
      vertex -2.78933 -1.10437 -6
    endloop
  endfacet
  facet normal 0.535828 0.844327 -0
    outer loop
      vertex -1.27734 -2.71448 -6
      vertex -1.91227 -2.31154 -3
      vertex -1.27734 -2.71448 -3
    endloop
  endfacet
  facet normal 0.535828 0.844327 0
    outer loop
      vertex -1.91227 -2.31154 -3
      vertex -1.27734 -2.71448 -6
      vertex -1.91227 -2.31154 -6
    endloop
  endfacet
  facet normal 0.0627927 0.998027 -0
    outer loop
      vertex 0.188371 -2.99408 -6
      vertex -0.562143 -2.94686 -3
      vertex 0.188371 -2.99408 -3
    endloop
  endfacet
  facet normal 0.0627927 0.998027 0
    outer loop
      vertex -0.562143 -2.94686 -3
      vertex 0.188371 -2.99408 -6
      vertex -0.562143 -2.94686 -6
    endloop
  endfacet
  facet normal -0.425784 0.904825 0
    outer loop
      vertex 1.60748 -2.53298 -6
      vertex 0.927051 -2.85317 -3
      vertex 1.60748 -2.53298 -3
    endloop
  endfacet
  facet normal -0.425784 0.904825 0
    outer loop
      vertex 0.927051 -2.85317 -3
      vertex 1.60748 -2.53298 -6
      vertex 0.927051 -2.85317 -6
    endloop
  endfacet
  facet normal -0.637419 0.770517 0
    outer loop
      vertex 2.18691 -2.05364 -6
      vertex 1.60748 -2.53298 -3
      vertex 2.18691 -2.05364 -3
    endloop
  endfacet
  facet normal -0.637419 0.770517 0
    outer loop
      vertex 1.60748 -2.53298 -3
      vertex 2.18691 -2.05364 -6
      vertex 1.60748 -2.53298 -6
    endloop
  endfacet
  facet normal -0.929776 0.368125 0
    outer loop
      vertex 2.62892 -1.44526 -6
      vertex 2.90575 -0.746069 -3
      vertex 2.90575 -0.746069 -6
    endloop
  endfacet
  facet normal -0.929776 0.368125 0
    outer loop
      vertex 2.90575 -0.746069 -3
      vertex 2.62892 -1.44526 -6
      vertex 2.62892 -1.44526 -3
    endloop
  endfacet
  facet normal 0.728965 -0.68455 0
    outer loop
      vertex -2.42705 1.76336 -3
      vertex -1.91227 2.31154 -6
      vertex -1.91227 2.31154 -3
    endloop
  endfacet
  facet normal 0.728965 -0.68455 0
    outer loop
      vertex -1.91227 2.31154 -6
      vertex -2.42705 1.76336 -3
      vertex -2.42705 1.76336 -6
    endloop
  endfacet
  facet normal 0.535828 -0.844327 0
    outer loop
      vertex -1.91227 2.31154 -6
      vertex -1.27734 2.71448 -3
      vertex -1.91227 2.31154 -3
    endloop
  endfacet
  facet normal 0.535828 -0.844327 0
    outer loop
      vertex -1.27734 2.71448 -3
      vertex -1.91227 2.31154 -6
      vertex -1.27734 2.71448 -6
    endloop
  endfacet
  facet normal 0.0627927 -0.998027 0
    outer loop
      vertex -0.562143 2.94686 -6
      vertex 0.188371 2.99408 -3
      vertex -0.562143 2.94686 -3
    endloop
  endfacet
  facet normal 0.0627927 -0.998027 0
    outer loop
      vertex 0.188371 2.99408 -3
      vertex -0.562143 2.94686 -6
      vertex 0.188371 2.99408 -6
    endloop
  endfacet
  facet normal -0.809019 -0.587782 0
    outer loop
      vertex 2.62892 1.44526 -6
      vertex 2.18691 2.05364 -3
      vertex 2.18691 2.05364 -6
    endloop
  endfacet
  facet normal -0.809019 -0.587782 0
    outer loop
      vertex 2.18691 2.05364 -3
      vertex 2.62892 1.44526 -6
      vertex 2.62892 1.44526 -3
    endloop
  endfacet
  facet normal -0.929776 -0.368125 0
    outer loop
      vertex 2.90575 0.746069 -6
      vertex 2.62892 1.44526 -3
      vertex 2.62892 1.44526 -6
    endloop
  endfacet
  facet normal -0.929776 -0.368125 0
    outer loop
      vertex 2.62892 1.44526 -3
      vertex 2.90575 0.746069 -6
      vertex 2.90575 0.746069 -3
    endloop
  endfacet
  facet normal 0.309015 0.951057 -0
    outer loop
      vertex -0.562143 -2.94686 -6
      vertex -1.27734 -2.71448 -3
      vertex -0.562143 -2.94686 -3
    endloop
  endfacet
  facet normal 0.309015 0.951057 0
    outer loop
      vertex -1.27734 -2.71448 -3
      vertex -0.562143 -2.94686 -6
      vertex -1.27734 -2.71448 -6
    endloop
  endfacet
  facet normal -0.18738 0.982287 0
    outer loop
      vertex 0.927051 -2.85317 -6
      vertex 0.188371 -2.99408 -3
      vertex 0.927051 -2.85317 -3
    endloop
  endfacet
  facet normal -0.18738 0.982287 0
    outer loop
      vertex 0.188371 -2.99408 -3
      vertex 0.927051 -2.85317 -6
      vertex 0.188371 -2.99408 -6
    endloop
  endfacet
  facet normal -0.809019 0.587782 0
    outer loop
      vertex 2.18691 -2.05364 -6
      vertex 2.62892 -1.44526 -3
      vertex 2.62892 -1.44526 -6
    endloop
  endfacet
  facet normal -0.809019 0.587782 0
    outer loop
      vertex 2.62892 -1.44526 -3
      vertex 2.18691 -2.05364 -6
      vertex 2.18691 -2.05364 -3
    endloop
  endfacet
  facet normal 0.876308 -0.481751 0
    outer loop
      vertex -2.78933 1.10437 -3
      vertex -2.42705 1.76336 -6
      vertex -2.42705 1.76336 -3
    endloop
  endfacet
  facet normal 0.876308 -0.481751 0
    outer loop
      vertex -2.42705 1.76336 -6
      vertex -2.78933 1.10437 -3
      vertex -2.78933 1.10437 -6
    endloop
  endfacet
  facet normal 0.309015 -0.951057 0
    outer loop
      vertex -1.27734 2.71448 -6
      vertex -0.562143 2.94686 -3
      vertex -1.27734 2.71448 -3
    endloop
  endfacet
  facet normal 0.309015 -0.951057 0
    outer loop
      vertex -0.562143 2.94686 -3
      vertex -1.27734 2.71448 -6
      vertex -0.562143 2.94686 -6
    endloop
  endfacet
  facet normal -0.425784 -0.904825 0
    outer loop
      vertex 0.927051 2.85317 -6
      vertex 1.60748 2.53298 -3
      vertex 0.927051 2.85317 -3
    endloop
  endfacet
  facet normal -0.425784 -0.904825 -0
    outer loop
      vertex 1.60748 2.53298 -3
      vertex 0.927051 2.85317 -6
      vertex 1.60748 2.53298 -6
    endloop
  endfacet
  facet normal -0.637419 -0.770517 0
    outer loop
      vertex 1.60748 2.53298 -6
      vertex 2.18691 2.05364 -3
      vertex 1.60748 2.53298 -3
    endloop
  endfacet
  facet normal -0.637419 -0.770517 -0
    outer loop
      vertex 2.18691 2.05364 -3
      vertex 1.60748 2.53298 -6
      vertex 2.18691 2.05364 -6
    endloop
  endfacet
endsolid OpenSCAD_Model
