solid OpenSCAD_Model
  facet normal 0.587811 -0.808999 0
    outer loop
      vertex 16.9088 -6.88153 -6
      vertex 17.9227 -6.14484 0
      vertex 16.9088 -6.88153 0
    endloop
  endfacet
  facet normal 0.587811 -0.808999 0
    outer loop
      vertex 17.9227 -6.14484 0
      vertex 16.9088 -6.88153 -6
      vertex 17.9227 -6.14484 -6
    endloop
  endfacet
  facet normal -0.368128 0.929775 0
    outer loop
      vertex -15.7435 7.34291 -6
      vertex -16.9088 6.88153 0
      vertex -15.7435 7.34291 0
    endloop
  endfacet
  facet normal -0.368128 0.929775 0
    outer loop
      vertex -16.9088 6.88153 0
      vertex -15.7435 7.34291 -6
      vertex -16.9088 6.88153 -6
    endloop
  endfacet
  facet normal 0.368128 -0.929775 0
    outer loop
      vertex 15.7435 -7.34291 -6
      vertex 16.9088 -6.88153 0
      vertex 15.7435 -7.34291 0
    endloop
  endfacet
  facet normal 0.368128 -0.929775 0
    outer loop
      vertex 16.9088 -6.88153 0
      vertex 15.7435 -7.34291 -6
      vertex 16.9088 -6.88153 -6
    endloop
  endfacet
  facet normal 0.425799 0.904818 -0
    outer loop
      vertex 17.1791 6.72163 -6
      vertex 16.0451 7.25528 0
      vertex 17.1791 6.72163 0
    endloop
  endfacet
  facet normal 0.425799 0.904818 0
    outer loop
      vertex 16.0451 7.25528 0
      vertex 17.1791 6.72163 -6
      vertex 16.0451 7.25528 -6
    endloop
  endfacet
  facet normal -0.156435 -0.987688 0
    outer loop
      vertex -16.0451 -7.25528 -6
      vertex -14.5 -7.5 0
      vertex -16.0451 -7.25528 0
    endloop
  endfacet
  facet normal -0.156435 -0.987688 -0
    outer loop
      vertex -14.5 -7.5 0
      vertex -16.0451 -7.25528 -6
      vertex -14.5 -7.5 -6
    endloop
  endfacet
  facet normal 0.992113 0.125346 0
    outer loop
      vertex 19.5 2.5 0
      vertex 19.3429 3.74345 -6
      vertex 19.3429 3.74345 0
    endloop
  endfacet
  facet normal 0.992113 0.125346 0
    outer loop
      vertex 19.3429 3.74345 -6
      vertex 19.5 2.5 0
      vertex 19.5 2.5 -6
    endloop
  endfacet
  facet normal -1 0 0
    outer loop
      vertex -19.5 -2.5 -6
      vertex -19.5 2.5 0
      vertex -19.5 2.5 -6
    endloop
  endfacet
  facet normal -1 -0 0
    outer loop
      vertex -19.5 2.5 0
      vertex -19.5 -2.5 -6
      vertex -19.5 -2.5 0
    endloop
  endfacet
  facet normal 0 0 -1
    outer loop
      vertex 19.5 -2.5 -6
      vertex 17.8089 -0.7212 -6
      vertex 17.9 0 -6
    endloop
  endfacet
  facet normal 0 0 -1
    outer loop
      vertex 18.7216 -5.17914 -6
      vertex 17.5413 -1.39709 -6
      vertex 17.8089 -0.7212 -6
    endloop
  endfacet
  facet normal 0 0 -1
    outer loop
      vertex 18.7216 -5.17914 -6
      vertex 17.114 -1.98519 -6
      vertex 17.5413 -1.39709 -6
    endloop
  endfacet
  facet normal 0 0 -1
    outer loop
      vertex 15.8961 -2.75806 -6
      vertex 17.9227 -6.14484 -6
      vertex 16.9088 -6.88153 -6
    endloop
  endfacet
  facet normal 0 0 -1
    outer loop
      vertex 18.7216 -5.17914 -6
      vertex 16.5539 -2.44855 -6
      vertex 17.114 -1.98519 -6
    endloop
  endfacet
  facet normal 0 0 -1
    outer loop
      vertex 18.7216 -5.17914 -6
      vertex 15.8961 -2.75806 -6
      vertex 16.5539 -2.44855 -6
    endloop
  endfacet
  facet normal 0 0 -1
    outer loop
      vertex 15.1821 -2.89428 -6
      vertex 16.9088 -6.88153 -6
      vertex 15.7435 -7.34291 -6
    endloop
  endfacet
  facet normal 0 0 -1
    outer loop
      vertex 16.9088 -6.88153 -6
      vertex 15.1821 -2.89428 -6
      vertex 15.8961 -2.75806 -6
    endloop
  endfacet
  facet normal 0 0 -1
    outer loop
      vertex 14.5 -7.5 -6
      vertex 15.1821 -2.89428 -6
      vertex 15.7435 -7.34291 -6
    endloop
  endfacet
  facet normal 0 0 -1
    outer loop
      vertex 14.5 -7.5 -6
      vertex 14.4566 -2.84863 -6
      vertex 15.1821 -2.89428 -6
    endloop
  endfacet
  facet normal 0 0 -1
    outer loop
      vertex 14.5 -7.5 -6
      vertex 13.7652 -2.624 -6
      vertex 14.4566 -2.84863 -6
    endloop
  endfacet
  facet normal 0 0 -1
    outer loop
      vertex 14.5 -7.5 -6
      vertex 13.1515 -2.23449 -6
      vertex 13.7652 -2.624 -6
    endloop
  endfacet
  facet normal 0 0 -1
    outer loop
      vertex 14.5 -7.5 -6
      vertex 12.6539 -1.70458 -6
      vertex 13.1515 -2.23449 -6
    endloop
  endfacet
  facet normal 0 0 -1
    outer loop
      vertex 2.36915 -2.22478 -6
      vertex 12.6539 -1.70458 -6
      vertex 14.5 -7.5 -6
    endloop
  endfacet
  facet normal 0 0 -1
    outer loop
      vertex 12.1229 -0.363466 -6
      vertex 3.25 0 -6
      vertex 12.1229 0.363466 -6
    endloop
  endfacet
  facet normal 0 0 -1
    outer loop
      vertex 3.14789 -0.808242 -6
      vertex 12.1229 -0.363466 -6
      vertex 12.3036 -1.06756 -6
    endloop
  endfacet
  facet normal 0 -0 -1
    outer loop
      vertex 2.848 -1.5657 -6
      vertex 12.6539 -1.70458 -6
      vertex 2.36915 -2.22478 -6
    endloop
  endfacet
  facet normal -0 0 -1
    outer loop
      vertex 12.1229 -0.363466 -6
      vertex 3.14789 -0.808242 -6
      vertex 3.25 0 -6
    endloop
  endfacet
  facet normal -0 0 -1
    outer loop
      vertex 12.3036 -1.06756 -6
      vertex 2.848 -1.5657 -6
      vertex 3.14789 -0.808242 -6
    endloop
  endfacet
  facet normal 0 0 -1
    outer loop
      vertex 12.6539 -1.70458 -6
      vertex 2.848 -1.5657 -6
      vertex 12.3036 -1.06756 -6
    endloop
  endfacet
  facet normal 0 0 -1
    outer loop
      vertex 14.5 -7.5 -6
      vertex 1.74144 -2.74407 -6
      vertex 2.36915 -2.22478 -6
    endloop
  endfacet
  facet normal 0 0 -1
    outer loop
      vertex 14.5 -7.5 -6
      vertex 1.0043 -3.09093 -6
      vertex 1.74144 -2.74407 -6
    endloop
  endfacet
  facet normal 0 0 -1
    outer loop
      vertex 14.5 -7.5 -6
      vertex 0.204069 -3.24359 -6
      vertex 1.0043 -3.09093 -6
    endloop
  endfacet
  facet normal 0 0 -1
    outer loop
      vertex -14.5 -7.5 -6
      vertex 0.204069 -3.24359 -6
      vertex 14.5 -7.5 -6
    endloop
  endfacet
  facet normal 0 0 -1
    outer loop
      vertex -3.22437 -0.407332 -6
      vertex -12.1 0 -6
      vertex -3.22437 0.407332 -6
    endloop
  endfacet
  facet normal 0 0 -1
    outer loop
      vertex -12.1911 -0.7212 -6
      vertex -3.22437 -0.407332 -6
      vertex -3.02177 -1.1964 -6
    endloop
  endfacet
  facet normal 0 0 -1
    outer loop
      vertex -12.4587 -1.39709 -6
      vertex -3.02177 -1.1964 -6
      vertex -2.6293 -1.9103 -6
    endloop
  endfacet
  facet normal 0 0 -1
    outer loop
      vertex -14.5 -7.5 -6
      vertex -2.6293 -1.9103 -6
      vertex -2.07163 -2.50417 -6
    endloop
  endfacet
  facet normal 0 0 -1
    outer loop
      vertex -14.5 -7.5 -6
      vertex -2.07163 -2.50417 -6
      vertex -1.38378 -2.94069 -6
    endloop
  endfacet
  facet normal 0 0 -1
    outer loop
      vertex -14.5 -7.5 -6
      vertex -1.38378 -2.94069 -6
      vertex -0.608989 -3.19243 -6
    endloop
  endfacet
  facet normal -0 0 -1
    outer loop
      vertex 0.204069 -3.24359 -6
      vertex -14.5 -7.5 -6
      vertex -0.608989 -3.19243 -6
    endloop
  endfacet
  facet normal -0 0 -1
    outer loop
      vertex -3.22437 -0.407332 -6
      vertex -12.1911 -0.7212 -6
      vertex -12.1 0 -6
    endloop
  endfacet
  facet normal -0 0 -1
    outer loop
      vertex -3.02177 -1.1964 -6
      vertex -12.4587 -1.39709 -6
      vertex -12.1911 -0.7212 -6
    endloop
  endfacet
  facet normal 0 0 -1
    outer loop
      vertex -2.6293 -1.9103 -6
      vertex -14.5 -7.5 -6
      vertex -12.886 -1.98519 -6
    endloop
  endfacet
  facet normal -0 0 -1
    outer loop
      vertex -2.6293 -1.9103 -6
      vertex -12.886 -1.98519 -6
      vertex -12.4587 -1.39709 -6
    endloop
  endfacet
  facet normal 0 0 -1
    outer loop
      vertex -12.886 -1.98519 -6
      vertex -14.5 -7.5 -6
      vertex -13.4461 -2.44855 -6
    endloop
  endfacet
  facet normal 0 0 -1
    outer loop
      vertex -13.4461 -2.44855 -6
      vertex -14.5 -7.5 -6
      vertex -14.1039 -2.75806 -6
    endloop
  endfacet
  facet normal 0 0 -1
    outer loop
      vertex -14.5 -7.5 -6
      vertex -14.8179 -2.89428 -6
      vertex -14.1039 -2.75806 -6
    endloop
  endfacet
  facet normal 0 0 -1
    outer loop
      vertex -16.0451 -7.25528 -6
      vertex -14.8179 -2.89428 -6
      vertex -14.5 -7.5 -6
    endloop
  endfacet
  facet normal -0 0 -1
    outer loop
      vertex -14.8179 -2.89428 -6
      vertex -16.0451 -7.25528 -6
      vertex -15.5434 -2.84863 -6
    endloop
  endfacet
  facet normal 0 0 -1
    outer loop
      vertex -17.1791 -6.72163 -6
      vertex -15.5434 -2.84863 -6
      vertex -16.0451 -7.25528 -6
    endloop
  endfacet
  facet normal 0 0 -1
    outer loop
      vertex -18.1448 -5.92273 -6
      vertex -15.5434 -2.84863 -6
      vertex -17.1791 -6.72163 -6
    endloop
  endfacet
  facet normal -0 0 -1
    outer loop
      vertex -15.5434 -2.84863 -6
      vertex -18.1448 -5.92273 -6
      vertex -16.2348 -2.624 -6
    endloop
  endfacet
  facet normal 0 0 -1
    outer loop
      vertex -18.8815 -4.90877 -6
      vertex -16.2348 -2.624 -6
      vertex -18.1448 -5.92273 -6
    endloop
  endfacet
  facet normal -0 0 -1
    outer loop
      vertex -16.2348 -2.624 -6
      vertex -18.8815 -4.90877 -6
      vertex -16.8485 -2.23449 -6
    endloop
  endfacet
  facet normal 0 0 -1
    outer loop
      vertex -19.3429 -3.74345 -6
      vertex -16.8485 -2.23449 -6
      vertex -18.8815 -4.90877 -6
    endloop
  endfacet
  facet normal 0 0 -1
    outer loop
      vertex -19.5 2.5 -6
      vertex -17.8771 0.363466 -6
      vertex -17.8771 -0.363466 -6
    endloop
  endfacet
  facet normal 0 0 -1
    outer loop
      vertex -19.5 -2.5 -6
      vertex -16.8485 -2.23449 -6
      vertex -19.3429 -3.74345 -6
    endloop
  endfacet
  facet normal -0 0 -1
    outer loop
      vertex -16.8485 -2.23449 -6
      vertex -19.5 -2.5 -6
      vertex -17.3461 -1.70458 -6
    endloop
  endfacet
  facet normal 0 0 -1
    outer loop
      vertex -19.5 2.5 -6
      vertex -17.8771 -0.363466 -6
      vertex -19.5 -2.5 -6
    endloop
  endfacet
  facet normal -0 0 -1
    outer loop
      vertex -17.3461 -1.70458 -6
      vertex -19.5 -2.5 -6
      vertex -17.6964 -1.06756 -6
    endloop
  endfacet
  facet normal 0 0 -1
    outer loop
      vertex -17.8771 0.363466 -6
      vertex -19.5 2.5 -6
      vertex -19.2553 4.04509 -6
    endloop
  endfacet
  facet normal -0 0 -1
    outer loop
      vertex -17.6964 -1.06756 -6
      vertex -19.5 -2.5 -6
      vertex -17.8771 -0.363466 -6
    endloop
  endfacet
  facet normal 0 0 -1
    outer loop
      vertex -17.8771 0.363466 -6
      vertex -18.7216 5.17914 -6
      vertex -17.9227 6.14484 -6
    endloop
  endfacet
  facet normal 0 0 -1
    outer loop
      vertex -17.8771 0.363466 -6
      vertex -19.2553 4.04509 -6
      vertex -18.7216 5.17914 -6
    endloop
  endfacet
  facet normal 0 0 -1
    outer loop
      vertex 17.9 0 -6
      vertex 19.5 2.5 -6
      vertex 19.5 -2.5 -6
    endloop
  endfacet
  facet normal 0 0 -1
    outer loop
      vertex 17.8089 -0.7212 -6
      vertex 19.5 -2.5 -6
      vertex 19.2553 -4.04509 -6
    endloop
  endfacet
  facet normal 0 0 -1
    outer loop
      vertex 17.8089 0.7212 -6
      vertex 19.5 2.5 -6
      vertex 17.9 0 -6
    endloop
  endfacet
  facet normal 0 0 -1
    outer loop
      vertex 17.8089 -0.7212 -6
      vertex 19.2553 -4.04509 -6
      vertex 18.7216 -5.17914 -6
    endloop
  endfacet
  facet normal 0 0 -1
    outer loop
      vertex 17.5413 1.39709 -6
      vertex 19.5 2.5 -6
      vertex 17.8089 0.7212 -6
    endloop
  endfacet
  facet normal 0 0 -1
    outer loop
      vertex 15.8961 -2.75806 -6
      vertex 18.7216 -5.17914 -6
      vertex 17.9227 -6.14484 -6
    endloop
  endfacet
  facet normal 0 0 -1
    outer loop
      vertex 17.114 1.98519 -6
      vertex 19.5 2.5 -6
      vertex 17.5413 1.39709 -6
    endloop
  endfacet
  facet normal -0 0 -1
    outer loop
      vertex 19.5 2.5 -6
      vertex 17.114 1.98519 -6
      vertex 19.3429 3.74345 -6
    endloop
  endfacet
  facet normal 0 0 -1
    outer loop
      vertex 16.5539 2.44855 -6
      vertex 19.3429 3.74345 -6
      vertex 17.114 1.98519 -6
    endloop
  endfacet
  facet normal -0 0 -1
    outer loop
      vertex 19.3429 3.74345 -6
      vertex 16.5539 2.44855 -6
      vertex 18.8815 4.90877 -6
    endloop
  endfacet
  facet normal -0 0 -1
    outer loop
      vertex 18.8815 4.90877 -6
      vertex 16.5539 2.44855 -6
      vertex 18.1448 5.92273 -6
    endloop
  endfacet
  facet normal 0 0 -1
    outer loop
      vertex 15.8961 2.75806 -6
      vertex 18.1448 5.92273 -6
      vertex 16.5539 2.44855 -6
    endloop
  endfacet
  facet normal -0 0 -1
    outer loop
      vertex 18.1448 5.92273 -6
      vertex 15.8961 2.75806 -6
      vertex 17.1791 6.72163 -6
    endloop
  endfacet
  facet normal 0 0 -1
    outer loop
      vertex 15.1821 2.89428 -6
      vertex 17.1791 6.72163 -6
      vertex 15.8961 2.75806 -6
    endloop
  endfacet
  facet normal -0 0 -1
    outer loop
      vertex 17.1791 6.72163 -6
      vertex 15.1821 2.89428 -6
      vertex 16.0451 7.25528 -6
    endloop
  endfacet
  facet normal 0 0 -1
    outer loop
      vertex 15.1821 2.89428 -6
      vertex 14.5 7.5 -6
      vertex 16.0451 7.25528 -6
    endloop
  endfacet
  facet normal 0 0 -1
    outer loop
      vertex 14.4566 2.84863 -6
      vertex 14.5 7.5 -6
      vertex 15.1821 2.89428 -6
    endloop
  endfacet
  facet normal 0 0 -1
    outer loop
      vertex 13.7652 2.624 -6
      vertex 14.5 7.5 -6
      vertex 14.4566 2.84863 -6
    endloop
  endfacet
  facet normal 0 0 -1
    outer loop
      vertex 13.1515 2.23449 -6
      vertex 14.5 7.5 -6
      vertex 13.7652 2.624 -6
    endloop
  endfacet
  facet normal 0 0 -1
    outer loop
      vertex 12.6539 1.70458 -6
      vertex 14.5 7.5 -6
      vertex 13.1515 2.23449 -6
    endloop
  endfacet
  facet normal 0 0 -1
    outer loop
      vertex 2.848 1.5657 -6
      vertex 12.6539 1.70458 -6
      vertex 12.3036 1.06756 -6
    endloop
  endfacet
  facet normal 0 0 -1
    outer loop
      vertex 3.14789 0.808242 -6
      vertex 12.1229 0.363466 -6
      vertex 3.25 0 -6
    endloop
  endfacet
  facet normal 0 0 -1
    outer loop
      vertex 12.1229 0.363466 -6
      vertex 3.14789 0.808242 -6
      vertex 12.3036 1.06756 -6
    endloop
  endfacet
  facet normal 0 0 -1
    outer loop
      vertex 2.848 1.5657 -6
      vertex 12.3036 1.06756 -6
      vertex 3.14789 0.808242 -6
    endloop
  endfacet
  facet normal -0 0 -1
    outer loop
      vertex 12.6539 1.70458 -6
      vertex 2.848 1.5657 -6
      vertex 2.36915 2.22478 -6
    endloop
  endfacet
  facet normal 0 0 -1
    outer loop
      vertex 12.6539 1.70458 -6
      vertex 2.36915 2.22478 -6
      vertex 14.5 7.5 -6
    endloop
  endfacet
  facet normal 0 0 -1
    outer loop
      vertex 1.74144 2.74407 -6
      vertex 14.5 7.5 -6
      vertex 2.36915 2.22478 -6
    endloop
  endfacet
  facet normal 0 0 -1
    outer loop
      vertex 1.0043 3.09093 -6
      vertex 14.5 7.5 -6
      vertex 1.74144 2.74407 -6
    endloop
  endfacet
  facet normal 0 0 -1
    outer loop
      vertex 0.204069 3.24359 -6
      vertex 14.5 7.5 -6
      vertex 1.0043 3.09093 -6
    endloop
  endfacet
  facet normal 0 0 -1
    outer loop
      vertex -14.5 7.5 -6
      vertex 0.204069 3.24359 -6
      vertex -0.608989 3.19243 -6
    endloop
  endfacet
  facet normal 0 0 -1
    outer loop
      vertex -12.1911 0.7212 -6
      vertex -3.22437 0.407332 -6
      vertex -12.1 0 -6
    endloop
  endfacet
  facet normal 0 0 -1
    outer loop
      vertex -3.22437 0.407332 -6
      vertex -12.1911 0.7212 -6
      vertex -3.02177 1.1964 -6
    endloop
  endfacet
  facet normal 0 0 -1
    outer loop
      vertex -12.4587 1.39709 -6
      vertex -3.02177 1.1964 -6
      vertex -12.1911 0.7212 -6
    endloop
  endfacet
  facet normal 0 0 -1
    outer loop
      vertex -3.02177 1.1964 -6
      vertex -12.4587 1.39709 -6
      vertex -2.6293 1.9103 -6
    endloop
  endfacet
  facet normal 0 0 -1
    outer loop
      vertex -12.886 1.98519 -6
      vertex -2.6293 1.9103 -6
      vertex -12.4587 1.39709 -6
    endloop
  endfacet
  facet normal 0 0 -1
    outer loop
      vertex -14.5 7.5 -6
      vertex -2.6293 1.9103 -6
      vertex -12.886 1.98519 -6
    endloop
  endfacet
  facet normal 0 0 -1
    outer loop
      vertex -2.6293 1.9103 -6
      vertex -14.5 7.5 -6
      vertex -2.07163 2.50417 -6
    endloop
  endfacet
  facet normal 0 0 -1
    outer loop
      vertex -2.07163 2.50417 -6
      vertex -14.5 7.5 -6
      vertex -1.38378 2.94069 -6
    endloop
  endfacet
  facet normal 0 0 -1
    outer loop
      vertex -1.38378 2.94069 -6
      vertex -14.5 7.5 -6
      vertex -0.608989 3.19243 -6
    endloop
  endfacet
  facet normal 0 0 -1
    outer loop
      vertex -14.5 7.5 -6
      vertex -12.886 1.98519 -6
      vertex -13.4461 2.44855 -6
    endloop
  endfacet
  facet normal 0 0 -1
    outer loop
      vertex -14.5 7.5 -6
      vertex -13.4461 2.44855 -6
      vertex -14.1039 2.75806 -6
    endloop
  endfacet
  facet normal 0 0 -1
    outer loop
      vertex 0.204069 3.24359 -6
      vertex -14.5 7.5 -6
      vertex 14.5 7.5 -6
    endloop
  endfacet
  facet normal 0 0 -1
    outer loop
      vertex -14.8179 2.89428 -6
      vertex -14.5 7.5 -6
      vertex -14.1039 2.75806 -6
    endloop
  endfacet
  facet normal 0 0 -1
    outer loop
      vertex -15.7435 7.34291 -6
      vertex -14.8179 2.89428 -6
      vertex -15.5434 2.84863 -6
    endloop
  endfacet
  facet normal 0 0 -1
    outer loop
      vertex -14.8179 2.89428 -6
      vertex -15.7435 7.34291 -6
      vertex -14.5 7.5 -6
    endloop
  endfacet
  facet normal 0 0 -1
    outer loop
      vertex -17.9227 6.14484 -6
      vertex -15.5434 2.84863 -6
      vertex -16.2348 2.624 -6
    endloop
  endfacet
  facet normal 0 0 -1
    outer loop
      vertex -17.9227 6.14484 -6
      vertex -16.2348 2.624 -6
      vertex -16.8485 2.23449 -6
    endloop
  endfacet
  facet normal 0 0 -1
    outer loop
      vertex -15.5434 2.84863 -6
      vertex -16.9088 6.88153 -6
      vertex -15.7435 7.34291 -6
    endloop
  endfacet
  facet normal 0 0 -1
    outer loop
      vertex -17.9227 6.14484 -6
      vertex -16.8485 2.23449 -6
      vertex -17.3461 1.70458 -6
    endloop
  endfacet
  facet normal 0 0 -1
    outer loop
      vertex -17.9227 6.14484 -6
      vertex -17.3461 1.70458 -6
      vertex -17.6964 1.06756 -6
    endloop
  endfacet
  facet normal 0 0 -1
    outer loop
      vertex -17.9227 6.14484 -6
      vertex -17.6964 1.06756 -6
      vertex -17.8771 0.363466 -6
    endloop
  endfacet
  facet normal 0 0 -1
    outer loop
      vertex -15.5434 2.84863 -6
      vertex -17.9227 6.14484 -6
      vertex -16.9088 6.88153 -6
    endloop
  endfacet
  facet normal 0 -1 0
    outer loop
      vertex -14.5 -7.5 -6
      vertex 14.5 -7.5 0
      vertex -14.5 -7.5 0
    endloop
  endfacet
  facet normal 0 -1 -0
    outer loop
      vertex 14.5 -7.5 0
      vertex -14.5 -7.5 -6
      vertex 14.5 -7.5 -6
    endloop
  endfacet
  facet normal 0 1 -0
    outer loop
      vertex 14.5 7.5 -6
      vertex -14.5 7.5 0
      vertex 14.5 7.5 0
    endloop
  endfacet
  facet normal 0 1 0
    outer loop
      vertex -14.5 7.5 0
      vertex 14.5 7.5 -6
      vertex -14.5 7.5 -6
    endloop
  endfacet
  facet normal 0.156435 0.987688 -0
    outer loop
      vertex 16.0451 7.25528 -6
      vertex 14.5 7.5 0
      vertex 16.0451 7.25528 0
    endloop
  endfacet
  facet normal 0.156435 0.987688 0
    outer loop
      vertex 14.5 7.5 0
      vertex 16.0451 7.25528 -6
      vertex 14.5 7.5 -6
    endloop
  endfacet
  facet normal -0.125333 0.992115 0
    outer loop
      vertex -14.5 7.5 -6
      vertex -15.7435 7.34291 0
      vertex -14.5 7.5 0
    endloop
  endfacet
  facet normal -0.125333 0.992115 0
    outer loop
      vertex -15.7435 7.34291 0
      vertex -14.5 7.5 -6
      vertex -15.7435 7.34291 -6
    endloop
  endfacet
  facet normal -0.90481 0.425816 0
    outer loop
      vertex -19.2553 4.04509 -6
      vertex -18.7216 5.17914 0
      vertex -18.7216 5.17914 -6
    endloop
  endfacet
  facet normal -0.90481 0.425816 0
    outer loop
      vertex -18.7216 5.17914 0
      vertex -19.2553 4.04509 -6
      vertex -19.2553 4.04509 0
    endloop
  endfacet
  facet normal -0.98769 0.156423 0
    outer loop
      vertex -19.5 2.5 -6
      vertex -19.2553 4.04509 0
      vertex -19.2553 4.04509 -6
    endloop
  endfacet
  facet normal -0.98769 0.156423 0
    outer loop
      vertex -19.2553 4.04509 0
      vertex -19.5 2.5 -6
      vertex -19.5 2.5 0
    endloop
  endfacet
  facet normal -0.992113 -0.125346 0
    outer loop
      vertex -19.3429 -3.74345 -6
      vertex -19.5 -2.5 0
      vertex -19.5 -2.5 -6
    endloop
  endfacet
  facet normal -0.992113 -0.125346 0
    outer loop
      vertex -19.5 -2.5 0
      vertex -19.3429 -3.74345 -6
      vertex -19.3429 -3.74345 0
    endloop
  endfacet
  facet normal 0.125333 -0.992115 0
    outer loop
      vertex 14.5 -7.5 -6
      vertex 15.7435 -7.34291 0
      vertex 14.5 -7.5 0
    endloop
  endfacet
  facet normal 0.125333 -0.992115 0
    outer loop
      vertex 15.7435 -7.34291 0
      vertex 14.5 -7.5 -6
      vertex 15.7435 -7.34291 -6
    endloop
  endfacet
  facet normal 0.809011 0.587793 0
    outer loop
      vertex 18.8815 4.90877 0
      vertex 18.1448 5.92273 -6
      vertex 18.1448 5.92273 0
    endloop
  endfacet
  facet normal 0.809011 0.587793 0
    outer loop
      vertex 18.1448 5.92273 -6
      vertex 18.8815 4.90877 0
      vertex 18.8815 4.90877 -6
    endloop
  endfacet
  facet normal 0.929772 0.368136 0
    outer loop
      vertex 19.3429 3.74345 0
      vertex 18.8815 4.90877 -6
      vertex 18.8815 4.90877 0
    endloop
  endfacet
  facet normal 0.929772 0.368136 0
    outer loop
      vertex 18.8815 4.90877 -6
      vertex 19.3429 3.74345 0
      vertex 19.3429 3.74345 -6
    endloop
  endfacet
  facet normal 0.637426 0.770512 -0
    outer loop
      vertex 18.1448 5.92273 -6
      vertex 17.1791 6.72163 0
      vertex 18.1448 5.92273 0
    endloop
  endfacet
  facet normal 0.637426 0.770512 0
    outer loop
      vertex 17.1791 6.72163 0
      vertex 18.1448 5.92273 -6
      vertex 17.1791 6.72163 -6
    endloop
  endfacet
  facet normal 1 -0 0
    outer loop
      vertex 19.5 -2.5 0
      vertex 19.5 2.5 -6
      vertex 19.5 2.5 0
    endloop
  endfacet
  facet normal 1 0 0
    outer loop
      vertex 19.5 2.5 -6
      vertex 19.5 -2.5 0
      vertex 19.5 -2.5 -6
    endloop
  endfacet
  facet normal -0.770512 0.637426 0
    outer loop
      vertex -18.7216 5.17914 -6
      vertex -17.9227 6.14484 0
      vertex -17.9227 6.14484 -6
    endloop
  endfacet
  facet normal -0.770512 0.637426 0
    outer loop
      vertex -17.9227 6.14484 0
      vertex -18.7216 5.17914 -6
      vertex -18.7216 5.17914 0
    endloop
  endfacet
  facet normal -0.587811 0.808999 0
    outer loop
      vertex -16.9088 6.88153 -6
      vertex -17.9227 6.14484 0
      vertex -16.9088 6.88153 0
    endloop
  endfacet
  facet normal -0.587811 0.808999 0
    outer loop
      vertex -17.9227 6.14484 0
      vertex -16.9088 6.88153 -6
      vertex -17.9227 6.14484 -6
    endloop
  endfacet
  facet normal -0.809011 -0.587793 0
    outer loop
      vertex -18.1448 -5.92273 -6
      vertex -18.8815 -4.90877 0
      vertex -18.8815 -4.90877 -6
    endloop
  endfacet
  facet normal -0.809011 -0.587793 0
    outer loop
      vertex -18.8815 -4.90877 0
      vertex -18.1448 -5.92273 -6
      vertex -18.1448 -5.92273 0
    endloop
  endfacet
  facet normal -0.425799 -0.904818 0
    outer loop
      vertex -17.1791 -6.72163 -6
      vertex -16.0451 -7.25528 0
      vertex -17.1791 -6.72163 0
    endloop
  endfacet
  facet normal -0.425799 -0.904818 -0
    outer loop
      vertex -16.0451 -7.25528 0
      vertex -17.1791 -6.72163 -6
      vertex -16.0451 -7.25528 -6
    endloop
  endfacet
  facet normal -0.929772 -0.368136 0
    outer loop
      vertex -18.8815 -4.90877 -6
      vertex -19.3429 -3.74345 0
      vertex -19.3429 -3.74345 -6
    endloop
  endfacet
  facet normal -0.929772 -0.368136 0
    outer loop
      vertex -19.3429 -3.74345 0
      vertex -18.8815 -4.90877 -6
      vertex -18.8815 -4.90877 0
    endloop
  endfacet
  facet normal 0 0 1
    outer loop
      vertex 14.5 7.5 0
      vertex 19.5 2.5 0
      vertex 19.3429 3.74345 0
    endloop
  endfacet
  facet normal 0 0 1
    outer loop
      vertex 19.5 2.5 0
      vertex 6.35 0 0
      vertex 19.5 -2.5 0
    endloop
  endfacet
  facet normal 0 0 1
    outer loop
      vertex 14.5 7.5 0
      vertex 19.3429 3.74345 0
      vertex 18.8815 4.90877 0
    endloop
  endfacet
  facet normal 0 -0 1
    outer loop
      vertex 14.5 -7.5 0
      vertex 19.5 -2.5 0
      vertex 6.35 0 0
    endloop
  endfacet
  facet normal 0 0 1
    outer loop
      vertex 14.5 7.5 0
      vertex 18.8815 4.90877 0
      vertex 18.1448 5.92273 0
    endloop
  endfacet
  facet normal 0 0 1
    outer loop
      vertex 19.5 -2.5 0
      vertex 14.5 -7.5 0
      vertex 19.2553 -4.04509 0
    endloop
  endfacet
  facet normal 0 0 1
    outer loop
      vertex 14.5 7.5 0
      vertex 18.1448 5.92273 0
      vertex 17.1791 6.72163 0
    endloop
  endfacet
  facet normal 0 0 1
    outer loop
      vertex 19.2553 -4.04509 0
      vertex 14.5 -7.5 0
      vertex 18.7216 -5.17914 0
    endloop
  endfacet
  facet normal 0 0 1
    outer loop
      vertex 14.5 7.5 0
      vertex 17.1791 6.72163 0
      vertex 16.0451 7.25528 0
    endloop
  endfacet
  facet normal 0 0 1
    outer loop
      vertex 19.5 2.5 0
      vertex 14.5 7.5 0
      vertex 6.35 0 0
    endloop
  endfacet
  facet normal 0 0 1
    outer loop
      vertex 17.9227 -6.14484 0
      vertex 14.5 -7.5 0
      vertex 16.9088 -6.88153 0
    endloop
  endfacet
  facet normal 0 0 1
    outer loop
      vertex 16.9088 -6.88153 0
      vertex 14.5 -7.5 0
      vertex 15.7435 -7.34291 0
    endloop
  endfacet
  facet normal 0 0 1
    outer loop
      vertex 18.7216 -5.17914 0
      vertex 14.5 -7.5 0
      vertex 17.9227 -6.14484 0
    endloop
  endfacet
  facet normal 0 0 1
    outer loop
      vertex 14.5 7.5 0
      vertex 3.175 5.49926 0
      vertex 6.35 0 0
    endloop
  endfacet
  facet normal 0 0 1
    outer loop
      vertex 14.5 7.5 0
      vertex -3.175 5.49926 0
      vertex 3.175 5.49926 0
    endloop
  endfacet
  facet normal 0 0 1
    outer loop
      vertex -3.175 5.49926 0
      vertex -14.5 7.5 0
      vertex -6.35 0 0
    endloop
  endfacet
  facet normal -0 0 1
    outer loop
      vertex -14.5 7.5 0
      vertex -3.175 5.49926 0
      vertex 14.5 7.5 0
    endloop
  endfacet
  facet normal -0 0 1
    outer loop
      vertex 3.175 -5.49926 0
      vertex 14.5 -7.5 0
      vertex 6.35 0 0
    endloop
  endfacet
  facet normal -0 0 1
    outer loop
      vertex -3.175 -5.49926 0
      vertex 14.5 -7.5 0
      vertex 3.175 -5.49926 0
    endloop
  endfacet
  facet normal -0 0 1
    outer loop
      vertex -19.5 2.5 0
      vertex -6.35 0 0
      vertex -14.5 7.5 0
    endloop
  endfacet
  facet normal 0 0 1
    outer loop
      vertex -3.175 -5.49926 0
      vertex -14.5 -7.5 0
      vertex 14.5 -7.5 0
    endloop
  endfacet
  facet normal 0 0 1
    outer loop
      vertex -6.35 0 0
      vertex -14.5 -7.5 0
      vertex -3.175 -5.49926 0
    endloop
  endfacet
  facet normal 0 0 1
    outer loop
      vertex -19.5 2.5 0
      vertex -14.5 7.5 0
      vertex -15.7435 7.34291 0
    endloop
  endfacet
  facet normal 0 0 1
    outer loop
      vertex -19.5 -2.5 0
      vertex -6.35 0 0
      vertex -19.5 2.5 0
    endloop
  endfacet
  facet normal 0 0 1
    outer loop
      vertex -19.5 2.5 0
      vertex -15.7435 7.34291 0
      vertex -16.9088 6.88153 0
    endloop
  endfacet
  facet normal 0 0 1
    outer loop
      vertex -6.35 0 0
      vertex -19.5 -2.5 0
      vertex -14.5 -7.5 0
    endloop
  endfacet
  facet normal 0 0 1
    outer loop
      vertex -19.5 2.5 0
      vertex -16.9088 6.88153 0
      vertex -17.9227 6.14484 0
    endloop
  endfacet
  facet normal 0 0 1
    outer loop
      vertex -14.5 -7.5 0
      vertex -19.5 -2.5 0
      vertex -16.0451 -7.25528 0
    endloop
  endfacet
  facet normal 0 0 1
    outer loop
      vertex -19.5 2.5 0
      vertex -17.9227 6.14484 0
      vertex -18.7216 5.17914 0
    endloop
  endfacet
  facet normal 0 0 1
    outer loop
      vertex -16.0451 -7.25528 0
      vertex -19.5 -2.5 0
      vertex -17.1791 -6.72163 0
    endloop
  endfacet
  facet normal 0 0 1
    outer loop
      vertex -19.5 2.5 0
      vertex -18.7216 5.17914 0
      vertex -19.2553 4.04509 0
    endloop
  endfacet
  facet normal 0 0 1
    outer loop
      vertex -17.1791 -6.72163 0
      vertex -19.5 -2.5 0
      vertex -18.1448 -5.92273 0
    endloop
  endfacet
  facet normal 0 0 1
    outer loop
      vertex -18.1448 -5.92273 0
      vertex -19.5 -2.5 0
      vertex -18.8815 -4.90877 0
    endloop
  endfacet
  facet normal 0 0 1
    outer loop
      vertex -18.8815 -4.90877 0
      vertex -19.5 -2.5 0
      vertex -19.3429 -3.74345 0
    endloop
  endfacet
  facet normal 0.98769 -0.156423 0
    outer loop
      vertex 19.2553 -4.04509 0
      vertex 19.5 -2.5 -6
      vertex 19.5 -2.5 0
    endloop
  endfacet
  facet normal 0.98769 -0.156423 0
    outer loop
      vertex 19.5 -2.5 -6
      vertex 19.2553 -4.04509 0
      vertex 19.2553 -4.04509 -6
    endloop
  endfacet
  facet normal 0.770512 -0.637426 0
    outer loop
      vertex 17.9227 -6.14484 0
      vertex 18.7216 -5.17914 -6
      vertex 18.7216 -5.17914 0
    endloop
  endfacet
  facet normal 0.770512 -0.637426 0
    outer loop
      vertex 18.7216 -5.17914 -6
      vertex 17.9227 -6.14484 0
      vertex 17.9227 -6.14484 -6
    endloop
  endfacet
  facet normal -0.637426 -0.770512 0
    outer loop
      vertex -18.1448 -5.92273 -6
      vertex -17.1791 -6.72163 0
      vertex -18.1448 -5.92273 0
    endloop
  endfacet
  facet normal -0.637426 -0.770512 -0
    outer loop
      vertex -17.1791 -6.72163 0
      vertex -18.1448 -5.92273 -6
      vertex -17.1791 -6.72163 -6
    endloop
  endfacet
  facet normal 0.90481 -0.425816 0
    outer loop
      vertex 18.7216 -5.17914 0
      vertex 19.2553 -4.04509 -6
      vertex 19.2553 -4.04509 0
    endloop
  endfacet
  facet normal 0.90481 -0.425816 0
    outer loop
      vertex 19.2553 -4.04509 -6
      vertex 18.7216 -5.17914 0
      vertex 18.7216 -5.17914 -6
    endloop
  endfacet
  facet normal 0.809004 0.587804 0
    outer loop
      vertex 17.5413 1.39709 -6
      vertex 17.114 1.98519 -11
      vertex 17.114 1.98519 -6
    endloop
  endfacet
  facet normal 0.809004 0.587804 0
    outer loop
      vertex 17.114 1.98519 -11
      vertex 17.5413 1.39709 -6
      vertex 17.5413 1.39709 -11
    endloop
  endfacet
  facet normal 0.637428 0.77051 -0
    outer loop
      vertex 17.114 1.98519 -11
      vertex 16.5539 2.44855 -6
      vertex 17.114 1.98519 -6
    endloop
  endfacet
  facet normal 0.637428 0.77051 0
    outer loop
      vertex 16.5539 2.44855 -6
      vertex 17.114 1.98519 -11
      vertex 16.5539 2.44855 -11
    endloop
  endfacet
  facet normal 0.425749 0.904841 -0
    outer loop
      vertex 16.5539 2.44855 -11
      vertex 15.8961 2.75806 -6
      vertex 16.5539 2.44855 -6
    endloop
  endfacet
  facet normal 0.425749 0.904841 0
    outer loop
      vertex 15.8961 2.75806 -6
      vertex 16.5539 2.44855 -11
      vertex 15.8961 2.75806 -11
    endloop
  endfacet
  facet normal -0.53587 -0.8443 0
    outer loop
      vertex 13.1515 -2.23449 -11
      vertex 13.7652 -2.624 -6
      vertex 13.1515 -2.23449 -6
    endloop
  endfacet
  facet normal -0.53587 -0.8443 -0
    outer loop
      vertex 13.7652 -2.624 -6
      vertex 13.1515 -2.23449 -11
      vertex 13.7652 -2.624 -11
    endloop
  endfacet
  facet normal -0.0627979 -0.998026 0
    outer loop
      vertex 14.4566 -2.84863 -11
      vertex 15.1821 -2.89428 -6
      vertex 14.4566 -2.84863 -6
    endloop
  endfacet
  facet normal -0.0627979 -0.998026 -0
    outer loop
      vertex 15.1821 -2.89428 -6
      vertex 14.4566 -2.84863 -11
      vertex 15.1821 -2.89428 -11
    endloop
  endfacet
  facet normal 0.992116 0.125321 0
    outer loop
      vertex 17.9 0 -6
      vertex 17.8089 0.7212 -11
      vertex 17.8089 0.7212 -6
    endloop
  endfacet
  facet normal 0.992116 0.125321 0
    outer loop
      vertex 17.8089 0.7212 -11
      vertex 17.9 0 -6
      vertex 17.9 0 -11
    endloop
  endfacet
  facet normal -0.53587 0.8443 0
    outer loop
      vertex 13.7652 2.624 -11
      vertex 13.1515 2.23449 -6
      vertex 13.7652 2.624 -6
    endloop
  endfacet
  facet normal -0.53587 0.8443 0
    outer loop
      vertex 13.1515 2.23449 -6
      vertex 13.7652 2.624 -11
      vertex 13.1515 2.23449 -11
    endloop
  endfacet
  facet normal -0.96861 0.248586 0
    outer loop
      vertex 12.1229 0.363466 -11
      vertex 12.3036 1.06756 -6
      vertex 12.3036 1.06756 -11
    endloop
  endfacet
  facet normal -0.96861 0.248586 0
    outer loop
      vertex 12.3036 1.06756 -6
      vertex 12.1229 0.363466 -11
      vertex 12.1229 0.363466 -6
    endloop
  endfacet
  facet normal 0 0 -1
    outer loop
      vertex 17.8089 -0.7212 -11
      vertex 17.8089 0.7212 -11
      vertex 17.9 0 -11
    endloop
  endfacet
  facet normal 0 0 -1
    outer loop
      vertex 17.5413 -1.39709 -11
      vertex 17.8089 0.7212 -11
      vertex 17.8089 -0.7212 -11
    endloop
  endfacet
  facet normal 0 0 -1
    outer loop
      vertex 17.5413 -1.39709 -11
      vertex 17.5413 1.39709 -11
      vertex 17.8089 0.7212 -11
    endloop
  endfacet
  facet normal 0 0 -1
    outer loop
      vertex 17.114 -1.98519 -11
      vertex 17.5413 1.39709 -11
      vertex 17.5413 -1.39709 -11
    endloop
  endfacet
  facet normal 0 0 -1
    outer loop
      vertex 17.114 -1.98519 -11
      vertex 17.114 1.98519 -11
      vertex 17.5413 1.39709 -11
    endloop
  endfacet
  facet normal 0 0 -1
    outer loop
      vertex 16.5539 -2.44855 -11
      vertex 17.114 1.98519 -11
      vertex 17.114 -1.98519 -11
    endloop
  endfacet
  facet normal 0 0 -1
    outer loop
      vertex 16.5539 -2.44855 -11
      vertex 16.5539 2.44855 -11
      vertex 17.114 1.98519 -11
    endloop
  endfacet
  facet normal 0 0 -1
    outer loop
      vertex 15.8961 -2.75806 -11
      vertex 16.5539 2.44855 -11
      vertex 16.5539 -2.44855 -11
    endloop
  endfacet
  facet normal 0 0 -1
    outer loop
      vertex 15.8961 -2.75806 -11
      vertex 15.8961 2.75806 -11
      vertex 16.5539 2.44855 -11
    endloop
  endfacet
  facet normal 0 0 -1
    outer loop
      vertex 15.1821 -2.89428 -11
      vertex 15.8961 2.75806 -11
      vertex 15.8961 -2.75806 -11
    endloop
  endfacet
  facet normal 0 0 -1
    outer loop
      vertex 15.1821 -2.89428 -11
      vertex 15.1821 2.89428 -11
      vertex 15.8961 2.75806 -11
    endloop
  endfacet
  facet normal 0 0 -1
    outer loop
      vertex 14.4566 -2.84863 -11
      vertex 15.1821 2.89428 -11
      vertex 15.1821 -2.89428 -11
    endloop
  endfacet
  facet normal 0 0 -1
    outer loop
      vertex 14.4566 -2.84863 -11
      vertex 14.4566 2.84863 -11
      vertex 15.1821 2.89428 -11
    endloop
  endfacet
  facet normal 0 0 -1
    outer loop
      vertex 13.7652 -2.624 -11
      vertex 14.4566 2.84863 -11
      vertex 14.4566 -2.84863 -11
    endloop
  endfacet
  facet normal 0 0 -1
    outer loop
      vertex 13.7652 -2.624 -11
      vertex 13.7652 2.624 -11
      vertex 14.4566 2.84863 -11
    endloop
  endfacet
  facet normal 0 0 -1
    outer loop
      vertex 13.1515 -2.23449 -11
      vertex 13.7652 2.624 -11
      vertex 13.7652 -2.624 -11
    endloop
  endfacet
  facet normal 0 0 -1
    outer loop
      vertex 13.1515 -2.23449 -11
      vertex 13.1515 2.23449 -11
      vertex 13.7652 2.624 -11
    endloop
  endfacet
  facet normal 0 0 -1
    outer loop
      vertex 12.6539 -1.70458 -11
      vertex 13.1515 2.23449 -11
      vertex 13.1515 -2.23449 -11
    endloop
  endfacet
  facet normal 0 0 -1
    outer loop
      vertex 12.6539 -1.70458 -11
      vertex 12.6539 1.70458 -11
      vertex 13.1515 2.23449 -11
    endloop
  endfacet
  facet normal 0 0 -1
    outer loop
      vertex 12.3036 -1.06756 -11
      vertex 12.6539 1.70458 -11
      vertex 12.6539 -1.70458 -11
    endloop
  endfacet
  facet normal 0 0 -1
    outer loop
      vertex 12.3036 -1.06756 -11
      vertex 12.3036 1.06756 -11
      vertex 12.6539 1.70458 -11
    endloop
  endfacet
  facet normal 0 0 -1
    outer loop
      vertex 12.1229 -0.363466 -11
      vertex 12.3036 1.06756 -11
      vertex 12.3036 -1.06756 -11
    endloop
  endfacet
  facet normal 0 0 -1
    outer loop
      vertex 12.3036 1.06756 -11
      vertex 12.1229 -0.363466 -11
      vertex 12.1229 0.363466 -11
    endloop
  endfacet
  facet normal -0.308993 -0.951064 0
    outer loop
      vertex 13.7652 -2.624 -11
      vertex 14.4566 -2.84863 -6
      vertex 13.7652 -2.624 -6
    endloop
  endfacet
  facet normal -0.308993 -0.951064 -0
    outer loop
      vertex 14.4566 -2.84863 -6
      vertex 13.7652 -2.624 -11
      vertex 14.4566 -2.84863 -11
    endloop
  endfacet
  facet normal 0.187404 -0.982283 0
    outer loop
      vertex 15.1821 -2.89428 -11
      vertex 15.8961 -2.75806 -6
      vertex 15.1821 -2.89428 -6
    endloop
  endfacet
  facet normal 0.187404 -0.982283 0
    outer loop
      vertex 15.8961 -2.75806 -6
      vertex 15.1821 -2.89428 -11
      vertex 15.8961 -2.75806 -11
    endloop
  endfacet
  facet normal 0.637428 -0.77051 0
    outer loop
      vertex 16.5539 -2.44855 -11
      vertex 17.114 -1.98519 -6
      vertex 16.5539 -2.44855 -6
    endloop
  endfacet
  facet normal 0.637428 -0.77051 0
    outer loop
      vertex 17.114 -1.98519 -6
      vertex 16.5539 -2.44855 -11
      vertex 17.114 -1.98519 -11
    endloop
  endfacet
  facet normal 0.425749 -0.904841 0
    outer loop
      vertex 15.8961 -2.75806 -11
      vertex 16.5539 -2.44855 -6
      vertex 15.8961 -2.75806 -6
    endloop
  endfacet
  facet normal 0.425749 -0.904841 0
    outer loop
      vertex 16.5539 -2.44855 -6
      vertex 15.8961 -2.75806 -11
      vertex 16.5539 -2.44855 -11
    endloop
  endfacet
  facet normal 0.809004 -0.587804 0
    outer loop
      vertex 17.114 -1.98519 -6
      vertex 17.5413 -1.39709 -11
      vertex 17.5413 -1.39709 -6
    endloop
  endfacet
  facet normal 0.809004 -0.587804 0
    outer loop
      vertex 17.5413 -1.39709 -11
      vertex 17.114 -1.98519 -6
      vertex 17.114 -1.98519 -11
    endloop
  endfacet
  facet normal 0.929778 -0.36812 0
    outer loop
      vertex 17.5413 -1.39709 -6
      vertex 17.8089 -0.7212 -11
      vertex 17.8089 -0.7212 -6
    endloop
  endfacet
  facet normal 0.929778 -0.36812 0
    outer loop
      vertex 17.8089 -0.7212 -11
      vertex 17.5413 -1.39709 -6
      vertex 17.5413 -1.39709 -11
    endloop
  endfacet
  facet normal 0.929778 0.36812 0
    outer loop
      vertex 17.8089 0.7212 -6
      vertex 17.5413 1.39709 -11
      vertex 17.5413 1.39709 -6
    endloop
  endfacet
  facet normal 0.929778 0.36812 0
    outer loop
      vertex 17.5413 1.39709 -11
      vertex 17.8089 0.7212 -6
      vertex 17.8089 0.7212 -11
    endloop
  endfacet
  facet normal -0.876251 -0.481854 0
    outer loop
      vertex 12.6539 -1.70458 -11
      vertex 12.3036 -1.06756 -6
      vertex 12.3036 -1.06756 -11
    endloop
  endfacet
  facet normal -0.876251 -0.481854 0
    outer loop
      vertex 12.3036 -1.06756 -6
      vertex 12.6539 -1.70458 -11
      vertex 12.6539 -1.70458 -6
    endloop
  endfacet
  facet normal -0.308993 0.951064 0
    outer loop
      vertex 14.4566 2.84863 -11
      vertex 13.7652 2.624 -6
      vertex 14.4566 2.84863 -6
    endloop
  endfacet
  facet normal -0.308993 0.951064 0
    outer loop
      vertex 13.7652 2.624 -6
      vertex 14.4566 2.84863 -11
      vertex 13.7652 2.624 -11
    endloop
  endfacet
  facet normal -1 0 0
    outer loop
      vertex 12.1229 -0.363466 -11
      vertex 12.1229 0.363466 -6
      vertex 12.1229 0.363466 -11
    endloop
  endfacet
  facet normal -1 -0 0
    outer loop
      vertex 12.1229 0.363466 -6
      vertex 12.1229 -0.363466 -11
      vertex 12.1229 -0.363466 -6
    endloop
  endfacet
  facet normal -0.728981 -0.684533 0
    outer loop
      vertex 13.1515 -2.23449 -11
      vertex 12.6539 -1.70458 -6
      vertex 12.6539 -1.70458 -11
    endloop
  endfacet
  facet normal -0.728981 -0.684533 0
    outer loop
      vertex 12.6539 -1.70458 -6
      vertex 13.1515 -2.23449 -11
      vertex 13.1515 -2.23449 -6
    endloop
  endfacet
  facet normal -0.876251 0.481854 0
    outer loop
      vertex 12.3036 1.06756 -11
      vertex 12.6539 1.70458 -6
      vertex 12.6539 1.70458 -11
    endloop
  endfacet
  facet normal -0.876251 0.481854 0
    outer loop
      vertex 12.6539 1.70458 -6
      vertex 12.3036 1.06756 -11
      vertex 12.3036 1.06756 -6
    endloop
  endfacet
  facet normal -0.728981 0.684533 0
    outer loop
      vertex 12.6539 1.70458 -11
      vertex 13.1515 2.23449 -6
      vertex 13.1515 2.23449 -11
    endloop
  endfacet
  facet normal -0.728981 0.684533 0
    outer loop
      vertex 13.1515 2.23449 -6
      vertex 12.6539 1.70458 -11
      vertex 12.6539 1.70458 -6
    endloop
  endfacet
  facet normal 0.992116 -0.125321 0
    outer loop
      vertex 17.8089 -0.7212 -6
      vertex 17.9 0 -11
      vertex 17.9 0 -6
    endloop
  endfacet
  facet normal 0.992116 -0.125321 0
    outer loop
      vertex 17.9 0 -11
      vertex 17.8089 -0.7212 -6
      vertex 17.8089 -0.7212 -11
    endloop
  endfacet
  facet normal -0.0627979 0.998026 0
    outer loop
      vertex 15.1821 2.89428 -11
      vertex 14.4566 2.84863 -6
      vertex 15.1821 2.89428 -6
    endloop
  endfacet
  facet normal -0.0627979 0.998026 0
    outer loop
      vertex 14.4566 2.84863 -6
      vertex 15.1821 2.89428 -11
      vertex 14.4566 2.84863 -11
    endloop
  endfacet
  facet normal -0.96861 -0.248586 0
    outer loop
      vertex 12.3036 -1.06756 -11
      vertex 12.1229 -0.363466 -6
      vertex 12.1229 -0.363466 -11
    endloop
  endfacet
  facet normal -0.96861 -0.248586 0
    outer loop
      vertex 12.1229 -0.363466 -6
      vertex 12.3036 -1.06756 -11
      vertex 12.3036 -1.06756 -6
    endloop
  endfacet
  facet normal 0.187404 0.982283 -0
    outer loop
      vertex 15.8961 2.75806 -11
      vertex 15.1821 2.89428 -6
      vertex 15.8961 2.75806 -6
    endloop
  endfacet
  facet normal 0.187404 0.982283 0
    outer loop
      vertex 15.1821 2.89428 -6
      vertex 15.8961 2.75806 -11
      vertex 15.1821 2.89428 -11
    endloop
  endfacet
  facet normal 0.809004 0.587804 0
    outer loop
      vertex -12.4587 1.39709 -6
      vertex -12.886 1.98519 -11
      vertex -12.886 1.98519 -6
    endloop
  endfacet
  facet normal 0.809004 0.587804 0
    outer loop
      vertex -12.886 1.98519 -11
      vertex -12.4587 1.39709 -6
      vertex -12.4587 1.39709 -11
    endloop
  endfacet
  facet normal 0.637428 0.77051 -0
    outer loop
      vertex -12.886 1.98519 -11
      vertex -13.4461 2.44855 -6
      vertex -12.886 1.98519 -6
    endloop
  endfacet
  facet normal 0.637428 0.77051 0
    outer loop
      vertex -13.4461 2.44855 -6
      vertex -12.886 1.98519 -11
      vertex -13.4461 2.44855 -11
    endloop
  endfacet
  facet normal 0.425749 0.904841 -0
    outer loop
      vertex -13.4461 2.44855 -11
      vertex -14.1039 2.75806 -6
      vertex -13.4461 2.44855 -6
    endloop
  endfacet
  facet normal 0.425749 0.904841 0
    outer loop
      vertex -14.1039 2.75806 -6
      vertex -13.4461 2.44855 -11
      vertex -14.1039 2.75806 -11
    endloop
  endfacet
  facet normal -0.53587 -0.8443 0
    outer loop
      vertex -16.8485 -2.23449 -11
      vertex -16.2348 -2.624 -6
      vertex -16.8485 -2.23449 -6
    endloop
  endfacet
  facet normal -0.53587 -0.8443 -0
    outer loop
      vertex -16.2348 -2.624 -6
      vertex -16.8485 -2.23449 -11
      vertex -16.2348 -2.624 -11
    endloop
  endfacet
  facet normal -0.0627979 -0.998026 0
    outer loop
      vertex -15.5434 -2.84863 -11
      vertex -14.8179 -2.89428 -6
      vertex -15.5434 -2.84863 -6
    endloop
  endfacet
  facet normal -0.0627979 -0.998026 -0
    outer loop
      vertex -14.8179 -2.89428 -6
      vertex -15.5434 -2.84863 -11
      vertex -14.8179 -2.89428 -11
    endloop
  endfacet
  facet normal 0.992116 0.125321 0
    outer loop
      vertex -12.1 0 -6
      vertex -12.1911 0.7212 -11
      vertex -12.1911 0.7212 -6
    endloop
  endfacet
  facet normal 0.992116 0.125321 0
    outer loop
      vertex -12.1911 0.7212 -11
      vertex -12.1 0 -6
      vertex -12.1 0 -11
    endloop
  endfacet
  facet normal -0.96861 0.248586 0
    outer loop
      vertex -17.8771 0.363466 -11
      vertex -17.6964 1.06756 -6
      vertex -17.6964 1.06756 -11
    endloop
  endfacet
  facet normal -0.96861 0.248586 0
    outer loop
      vertex -17.6964 1.06756 -6
      vertex -17.8771 0.363466 -11
      vertex -17.8771 0.363466 -6
    endloop
  endfacet
  facet normal 0 0 -1
    outer loop
      vertex -12.1911 -0.7212 -11
      vertex -12.1911 0.7212 -11
      vertex -12.1 0 -11
    endloop
  endfacet
  facet normal 0 0 -1
    outer loop
      vertex -12.4587 -1.39709 -11
      vertex -12.1911 0.7212 -11
      vertex -12.1911 -0.7212 -11
    endloop
  endfacet
  facet normal 0 0 -1
    outer loop
      vertex -12.4587 -1.39709 -11
      vertex -12.4587 1.39709 -11
      vertex -12.1911 0.7212 -11
    endloop
  endfacet
  facet normal 0 0 -1
    outer loop
      vertex -12.886 -1.98519 -11
      vertex -12.4587 1.39709 -11
      vertex -12.4587 -1.39709 -11
    endloop
  endfacet
  facet normal 0 0 -1
    outer loop
      vertex -12.886 -1.98519 -11
      vertex -12.886 1.98519 -11
      vertex -12.4587 1.39709 -11
    endloop
  endfacet
  facet normal 0 0 -1
    outer loop
      vertex -13.4461 -2.44855 -11
      vertex -12.886 1.98519 -11
      vertex -12.886 -1.98519 -11
    endloop
  endfacet
  facet normal 0 0 -1
    outer loop
      vertex -13.4461 -2.44855 -11
      vertex -13.4461 2.44855 -11
      vertex -12.886 1.98519 -11
    endloop
  endfacet
  facet normal 0 0 -1
    outer loop
      vertex -14.1039 -2.75806 -11
      vertex -13.4461 2.44855 -11
      vertex -13.4461 -2.44855 -11
    endloop
  endfacet
  facet normal 0 0 -1
    outer loop
      vertex -14.1039 -2.75806 -11
      vertex -14.1039 2.75806 -11
      vertex -13.4461 2.44855 -11
    endloop
  endfacet
  facet normal 0 0 -1
    outer loop
      vertex -14.8179 -2.89428 -11
      vertex -14.1039 2.75806 -11
      vertex -14.1039 -2.75806 -11
    endloop
  endfacet
  facet normal 0 0 -1
    outer loop
      vertex -14.8179 -2.89428 -11
      vertex -14.8179 2.89428 -11
      vertex -14.1039 2.75806 -11
    endloop
  endfacet
  facet normal 0 0 -1
    outer loop
      vertex -15.5434 -2.84863 -11
      vertex -14.8179 2.89428 -11
      vertex -14.8179 -2.89428 -11
    endloop
  endfacet
  facet normal 0 0 -1
    outer loop
      vertex -15.5434 -2.84863 -11
      vertex -15.5434 2.84863 -11
      vertex -14.8179 2.89428 -11
    endloop
  endfacet
  facet normal 0 0 -1
    outer loop
      vertex -16.2348 -2.624 -11
      vertex -15.5434 2.84863 -11
      vertex -15.5434 -2.84863 -11
    endloop
  endfacet
  facet normal 0 0 -1
    outer loop
      vertex -16.2348 -2.624 -11
      vertex -16.2348 2.624 -11
      vertex -15.5434 2.84863 -11
    endloop
  endfacet
  facet normal 0 0 -1
    outer loop
      vertex -16.8485 -2.23449 -11
      vertex -16.2348 2.624 -11
      vertex -16.2348 -2.624 -11
    endloop
  endfacet
  facet normal 0 0 -1
    outer loop
      vertex -16.8485 -2.23449 -11
      vertex -16.8485 2.23449 -11
      vertex -16.2348 2.624 -11
    endloop
  endfacet
  facet normal 0 0 -1
    outer loop
      vertex -17.3461 -1.70458 -11
      vertex -16.8485 2.23449 -11
      vertex -16.8485 -2.23449 -11
    endloop
  endfacet
  facet normal 0 0 -1
    outer loop
      vertex -17.3461 -1.70458 -11
      vertex -17.3461 1.70458 -11
      vertex -16.8485 2.23449 -11
    endloop
  endfacet
  facet normal 0 0 -1
    outer loop
      vertex -17.6964 -1.06756 -11
      vertex -17.3461 1.70458 -11
      vertex -17.3461 -1.70458 -11
    endloop
  endfacet
  facet normal 0 0 -1
    outer loop
      vertex -17.6964 -1.06756 -11
      vertex -17.6964 1.06756 -11
      vertex -17.3461 1.70458 -11
    endloop
  endfacet
  facet normal 0 0 -1
    outer loop
      vertex -17.8771 -0.363466 -11
      vertex -17.6964 1.06756 -11
      vertex -17.6964 -1.06756 -11
    endloop
  endfacet
  facet normal 0 0 -1
    outer loop
      vertex -17.6964 1.06756 -11
      vertex -17.8771 -0.363466 -11
      vertex -17.8771 0.363466 -11
    endloop
  endfacet
  facet normal -0.308993 -0.951064 0
    outer loop
      vertex -16.2348 -2.624 -11
      vertex -15.5434 -2.84863 -6
      vertex -16.2348 -2.624 -6
    endloop
  endfacet
  facet normal -0.308993 -0.951064 -0
    outer loop
      vertex -15.5434 -2.84863 -6
      vertex -16.2348 -2.624 -11
      vertex -15.5434 -2.84863 -11
    endloop
  endfacet
  facet normal 0.187404 -0.982283 0
    outer loop
      vertex -14.8179 -2.89428 -11
      vertex -14.1039 -2.75806 -6
      vertex -14.8179 -2.89428 -6
    endloop
  endfacet
  facet normal 0.187404 -0.982283 0
    outer loop
      vertex -14.1039 -2.75806 -6
      vertex -14.8179 -2.89428 -11
      vertex -14.1039 -2.75806 -11
    endloop
  endfacet
  facet normal 0.637428 -0.77051 0
    outer loop
      vertex -13.4461 -2.44855 -11
      vertex -12.886 -1.98519 -6
      vertex -13.4461 -2.44855 -6
    endloop
  endfacet
  facet normal 0.637428 -0.77051 0
    outer loop
      vertex -12.886 -1.98519 -6
      vertex -13.4461 -2.44855 -11
      vertex -12.886 -1.98519 -11
    endloop
  endfacet
  facet normal 0.425749 -0.904841 0
    outer loop
      vertex -14.1039 -2.75806 -11
      vertex -13.4461 -2.44855 -6
      vertex -14.1039 -2.75806 -6
    endloop
  endfacet
  facet normal 0.425749 -0.904841 0
    outer loop
      vertex -13.4461 -2.44855 -6
      vertex -14.1039 -2.75806 -11
      vertex -13.4461 -2.44855 -11
    endloop
  endfacet
  facet normal 0.809004 -0.587804 0
    outer loop
      vertex -12.886 -1.98519 -6
      vertex -12.4587 -1.39709 -11
      vertex -12.4587 -1.39709 -6
    endloop
  endfacet
  facet normal 0.809004 -0.587804 0
    outer loop
      vertex -12.4587 -1.39709 -11
      vertex -12.886 -1.98519 -6
      vertex -12.886 -1.98519 -11
    endloop
  endfacet
  facet normal 0.929778 -0.36812 0
    outer loop
      vertex -12.4587 -1.39709 -6
      vertex -12.1911 -0.7212 -11
      vertex -12.1911 -0.7212 -6
    endloop
  endfacet
  facet normal 0.929778 -0.36812 0
    outer loop
      vertex -12.1911 -0.7212 -11
      vertex -12.4587 -1.39709 -6
      vertex -12.4587 -1.39709 -11
    endloop
  endfacet
  facet normal 0.929778 0.36812 0
    outer loop
      vertex -12.1911 0.7212 -6
      vertex -12.4587 1.39709 -11
      vertex -12.4587 1.39709 -6
    endloop
  endfacet
  facet normal 0.929778 0.36812 0
    outer loop
      vertex -12.4587 1.39709 -11
      vertex -12.1911 0.7212 -6
      vertex -12.1911 0.7212 -11
    endloop
  endfacet
  facet normal -0.876251 -0.481854 0
    outer loop
      vertex -17.3461 -1.70458 -11
      vertex -17.6964 -1.06756 -6
      vertex -17.6964 -1.06756 -11
    endloop
  endfacet
  facet normal -0.876251 -0.481854 0
    outer loop
      vertex -17.6964 -1.06756 -6
      vertex -17.3461 -1.70458 -11
      vertex -17.3461 -1.70458 -6
    endloop
  endfacet
  facet normal -0.308993 0.951064 0
    outer loop
      vertex -15.5434 2.84863 -11
      vertex -16.2348 2.624 -6
      vertex -15.5434 2.84863 -6
    endloop
  endfacet
  facet normal -0.308993 0.951064 0
    outer loop
      vertex -16.2348 2.624 -6
      vertex -15.5434 2.84863 -11
      vertex -16.2348 2.624 -11
    endloop
  endfacet
  facet normal -1 0 0
    outer loop
      vertex -17.8771 -0.363466 -11
      vertex -17.8771 0.363466 -6
      vertex -17.8771 0.363466 -11
    endloop
  endfacet
  facet normal -1 -0 0
    outer loop
      vertex -17.8771 0.363466 -6
      vertex -17.8771 -0.363466 -11
      vertex -17.8771 -0.363466 -6
    endloop
  endfacet
  facet normal -0.728981 -0.684533 0
    outer loop
      vertex -16.8485 -2.23449 -11
      vertex -17.3461 -1.70458 -6
      vertex -17.3461 -1.70458 -11
    endloop
  endfacet
  facet normal -0.728981 -0.684533 0
    outer loop
      vertex -17.3461 -1.70458 -6
      vertex -16.8485 -2.23449 -11
      vertex -16.8485 -2.23449 -6
    endloop
  endfacet
  facet normal -0.876251 0.481854 0
    outer loop
      vertex -17.6964 1.06756 -11
      vertex -17.3461 1.70458 -6
      vertex -17.3461 1.70458 -11
    endloop
  endfacet
  facet normal -0.876251 0.481854 0
    outer loop
      vertex -17.3461 1.70458 -6
      vertex -17.6964 1.06756 -11
      vertex -17.6964 1.06756 -6
    endloop
  endfacet
  facet normal -0.728981 0.684533 0
    outer loop
      vertex -17.3461 1.70458 -11
      vertex -16.8485 2.23449 -6
      vertex -16.8485 2.23449 -11
    endloop
  endfacet
  facet normal -0.728981 0.684533 0
    outer loop
      vertex -16.8485 2.23449 -6
      vertex -17.3461 1.70458 -11
      vertex -17.3461 1.70458 -6
    endloop
  endfacet
  facet normal 0.992116 -0.125321 0
    outer loop
      vertex -12.1911 -0.7212 -6
      vertex -12.1 0 -11
      vertex -12.1 0 -6
    endloop
  endfacet
  facet normal 0.992116 -0.125321 0
    outer loop
      vertex -12.1 0 -11
      vertex -12.1911 -0.7212 -6
      vertex -12.1911 -0.7212 -11
    endloop
  endfacet
  facet normal -0.53587 0.8443 0
    outer loop
      vertex -16.2348 2.624 -11
      vertex -16.8485 2.23449 -6
      vertex -16.2348 2.624 -6
    endloop
  endfacet
  facet normal -0.53587 0.8443 0
    outer loop
      vertex -16.8485 2.23449 -6
      vertex -16.2348 2.624 -11
      vertex -16.8485 2.23449 -11
    endloop
  endfacet
  facet normal 0.187404 0.982283 -0
    outer loop
      vertex -14.1039 2.75806 -11
      vertex -14.8179 2.89428 -6
      vertex -14.1039 2.75806 -6
    endloop
  endfacet
  facet normal 0.187404 0.982283 0
    outer loop
      vertex -14.8179 2.89428 -6
      vertex -14.1039 2.75806 -11
      vertex -14.8179 2.89428 -11
    endloop
  endfacet
  facet normal -0.96861 -0.248586 0
    outer loop
      vertex -17.6964 -1.06756 -11
      vertex -17.8771 -0.363466 -6
      vertex -17.8771 -0.363466 -11
    endloop
  endfacet
  facet normal -0.96861 -0.248586 0
    outer loop
      vertex -17.8771 -0.363466 -6
      vertex -17.6964 -1.06756 -11
      vertex -17.6964 -1.06756 -6
    endloop
  endfacet
  facet normal -0.0627979 0.998026 0
    outer loop
      vertex -14.8179 2.89428 -11
      vertex -15.5434 2.84863 -6
      vertex -14.8179 2.89428 -6
    endloop
  endfacet
  facet normal -0.0627979 0.998026 0
    outer loop
      vertex -15.5434 2.84863 -6
      vertex -14.8179 2.89428 -11
      vertex -15.5434 2.84863 -11
    endloop
  endfacet
  facet normal -0.866025 0.5 0
    outer loop
      vertex 3.175 -5.49926 -3
      vertex 6.35 0 0
      vertex 6.35 0 -3
    endloop
  endfacet
  facet normal -0.866025 0.5 0
    outer loop
      vertex 6.35 0 0
      vertex 3.175 -5.49926 -3
      vertex 3.175 -5.49926 0
    endloop
  endfacet
  facet normal -0 0 1
    outer loop
      vertex 2.848 1.5657 -3
      vertex 6.35 0 -3
      vertex 3.175 5.49926 -3
    endloop
  endfacet
  facet normal 0 0 1
    outer loop
      vertex 6.35 0 -3
      vertex 3.14789 0.808242 -3
      vertex 3.25 0 -3
    endloop
  endfacet
  facet normal 0 0 1
    outer loop
      vertex 6.35 0 -3
      vertex 2.848 1.5657 -3
      vertex 3.14789 0.808242 -3
    endloop
  endfacet
  facet normal 0 0 1
    outer loop
      vertex 3.175 5.49926 -3
      vertex 2.36915 2.22478 -3
      vertex 2.848 1.5657 -3
    endloop
  endfacet
  facet normal 0 0 1
    outer loop
      vertex 3.175 5.49926 -3
      vertex 1.74144 2.74407 -3
      vertex 2.36915 2.22478 -3
    endloop
  endfacet
  facet normal 0 0 1
    outer loop
      vertex 3.175 5.49926 -3
      vertex 1.0043 3.09093 -3
      vertex 1.74144 2.74407 -3
    endloop
  endfacet
  facet normal 0 0 1
    outer loop
      vertex 3.175 5.49926 -3
      vertex 0.204069 3.24359 -3
      vertex 1.0043 3.09093 -3
    endloop
  endfacet
  facet normal -0 0 1
    outer loop
      vertex -3.175 5.49926 -3
      vertex 0.204069 3.24359 -3
      vertex 3.175 5.49926 -3
    endloop
  endfacet
  facet normal 0 0 1
    outer loop
      vertex 0.204069 3.24359 -3
      vertex -3.175 5.49926 -3
      vertex -0.608989 3.19243 -3
    endloop
  endfacet
  facet normal 0 0 1
    outer loop
      vertex -0.608989 3.19243 -3
      vertex -3.175 5.49926 -3
      vertex -1.38378 2.94069 -3
    endloop
  endfacet
  facet normal 0 0 1
    outer loop
      vertex -3.175 5.49926 -3
      vertex -2.07163 2.50417 -3
      vertex -1.38378 2.94069 -3
    endloop
  endfacet
  facet normal 0 0 1
    outer loop
      vertex -3.175 5.49926 -3
      vertex -2.6293 1.9103 -3
      vertex -2.07163 2.50417 -3
    endloop
  endfacet
  facet normal 0 0 1
    outer loop
      vertex -6.35 0 -3
      vertex -2.6293 1.9103 -3
      vertex -3.175 5.49926 -3
    endloop
  endfacet
  facet normal 0 0 1
    outer loop
      vertex -2.6293 1.9103 -3
      vertex -6.35 0 -3
      vertex -3.02177 1.1964 -3
    endloop
  endfacet
  facet normal 0 0 1
    outer loop
      vertex -3.22437 0.407332 -3
      vertex -6.35 0 -3
      vertex -3.22437 -0.407332 -3
    endloop
  endfacet
  facet normal 0 0 1
    outer loop
      vertex -3.02177 1.1964 -3
      vertex -6.35 0 -3
      vertex -3.22437 0.407332 -3
    endloop
  endfacet
  facet normal 0 0 1
    outer loop
      vertex 3.14789 -0.808242 -3
      vertex 6.35 0 -3
      vertex 3.25 0 -3
    endloop
  endfacet
  facet normal 0 0 1
    outer loop
      vertex 2.848 -1.5657 -3
      vertex 6.35 0 -3
      vertex 3.14789 -0.808242 -3
    endloop
  endfacet
  facet normal 0 0 1
    outer loop
      vertex 6.35 0 -3
      vertex 2.848 -1.5657 -3
      vertex 3.175 -5.49926 -3
    endloop
  endfacet
  facet normal -0 0 1
    outer loop
      vertex 2.36915 -2.22478 -3
      vertex 3.175 -5.49926 -3
      vertex 2.848 -1.5657 -3
    endloop
  endfacet
  facet normal -0 0 1
    outer loop
      vertex 1.74144 -2.74407 -3
      vertex 3.175 -5.49926 -3
      vertex 2.36915 -2.22478 -3
    endloop
  endfacet
  facet normal -0 0 1
    outer loop
      vertex 1.0043 -3.09093 -3
      vertex 3.175 -5.49926 -3
      vertex 1.74144 -2.74407 -3
    endloop
  endfacet
  facet normal -0 0 1
    outer loop
      vertex 0.204069 -3.24359 -3
      vertex 3.175 -5.49926 -3
      vertex 1.0043 -3.09093 -3
    endloop
  endfacet
  facet normal 0 0 1
    outer loop
      vertex -3.175 -5.49926 -3
      vertex 0.204069 -3.24359 -3
      vertex -0.608989 -3.19243 -3
    endloop
  endfacet
  facet normal 0 0 1
    outer loop
      vertex -3.175 -5.49926 -3
      vertex -0.608989 -3.19243 -3
      vertex -1.38378 -2.94069 -3
    endloop
  endfacet
  facet normal 0 0 1
    outer loop
      vertex 0.204069 -3.24359 -3
      vertex -3.175 -5.49926 -3
      vertex 3.175 -5.49926 -3
    endloop
  endfacet
  facet normal 0 0 1
    outer loop
      vertex -2.07163 -2.50417 -3
      vertex -3.175 -5.49926 -3
      vertex -1.38378 -2.94069 -3
    endloop
  endfacet
  facet normal 0 0 1
    outer loop
      vertex -2.6293 -1.9103 -3
      vertex -3.175 -5.49926 -3
      vertex -2.07163 -2.50417 -3
    endloop
  endfacet
  facet normal 0 0 1
    outer loop
      vertex -6.35 0 -3
      vertex -2.6293 -1.9103 -3
      vertex -3.02177 -1.1964 -3
    endloop
  endfacet
  facet normal 0 0 1
    outer loop
      vertex -6.35 0 -3
      vertex -3.02177 -1.1964 -3
      vertex -3.22437 -0.407332 -3
    endloop
  endfacet
  facet normal 0 0 1
    outer loop
      vertex -2.6293 -1.9103 -3
      vertex -6.35 0 -3
      vertex -3.175 -5.49926 -3
    endloop
  endfacet
  facet normal -0.866025 -0.5 0
    outer loop
      vertex 6.35 0 -3
      vertex 3.175 5.49926 0
      vertex 3.175 5.49926 -3
    endloop
  endfacet
  facet normal -0.866025 -0.5 0
    outer loop
      vertex 3.175 5.49926 0
      vertex 6.35 0 -3
      vertex 6.35 0 0
    endloop
  endfacet
  facet normal 0.866025 0.5 0
    outer loop
      vertex -3.175 -5.49926 0
      vertex -6.35 0 -3
      vertex -6.35 0 0
    endloop
  endfacet
  facet normal 0.866025 0.5 0
    outer loop
      vertex -6.35 0 -3
      vertex -3.175 -5.49926 0
      vertex -3.175 -5.49926 -3
    endloop
  endfacet
  facet normal 0 1 -0
    outer loop
      vertex 3.175 -5.49926 -3
      vertex -3.175 -5.49926 0
      vertex 3.175 -5.49926 0
    endloop
  endfacet
  facet normal 0 1 0
    outer loop
      vertex -3.175 -5.49926 0
      vertex 3.175 -5.49926 -3
      vertex -3.175 -5.49926 -3
    endloop
  endfacet
  facet normal 0.866025 -0.5 0
    outer loop
      vertex -6.35 0 0
      vertex -3.175 5.49926 -3
      vertex -3.175 5.49926 0
    endloop
  endfacet
  facet normal 0.866025 -0.5 0
    outer loop
      vertex -3.175 5.49926 -3
      vertex -6.35 0 0
      vertex -6.35 0 -3
    endloop
  endfacet
  facet normal 0 -1 0
    outer loop
      vertex -3.175 5.49926 -3
      vertex 3.175 5.49926 0
      vertex -3.175 5.49926 0
    endloop
  endfacet
  facet normal 0 -1 -0
    outer loop
      vertex 3.175 5.49926 0
      vertex -3.175 5.49926 -3
      vertex 3.175 5.49926 -3
    endloop
  endfacet
  facet normal -0.92978 0.368115 0
    outer loop
      vertex 2.848 -1.5657 -6
      vertex 3.14789 -0.808242 -3
      vertex 3.14789 -0.808242 -6
    endloop
  endfacet
  facet normal -0.92978 0.368115 0
    outer loop
      vertex 3.14789 -0.808242 -3
      vertex 2.848 -1.5657 -6
      vertex 2.848 -1.5657 -3
    endloop
  endfacet
  facet normal -0.992114 0.12534 0
    outer loop
      vertex 3.14789 -0.808242 -6
      vertex 3.25 0 -3
      vertex 3.25 0 -6
    endloop
  endfacet
  facet normal -0.992114 0.12534 0
    outer loop
      vertex 3.25 0 -3
      vertex 3.14789 -0.808242 -6
      vertex 3.14789 -0.808242 -3
    endloop
  endfacet
  facet normal -0.992114 -0.12534 0
    outer loop
      vertex 3.25 0 -6
      vertex 3.14789 0.808242 -3
      vertex 3.14789 0.808242 -6
    endloop
  endfacet
  facet normal -0.992114 -0.12534 0
    outer loop
      vertex 3.14789 0.808242 -3
      vertex 3.25 0 -6
      vertex 3.25 0 -3
    endloop
  endfacet
  facet normal 1 -0 0
    outer loop
      vertex -3.22437 -0.407332 -3
      vertex -3.22437 0.407332 -6
      vertex -3.22437 0.407332 -3
    endloop
  endfacet
  facet normal 1 0 0
    outer loop
      vertex -3.22437 0.407332 -6
      vertex -3.22437 -0.407332 -3
      vertex -3.22437 -0.407332 -6
    endloop
  endfacet
  facet normal 0.0627987 0.998026 -0
    outer loop
      vertex 0.204069 -3.24359 -6
      vertex -0.608989 -3.19243 -3
      vertex 0.204069 -3.24359 -3
    endloop
  endfacet
  facet normal 0.0627987 0.998026 0
    outer loop
      vertex -0.608989 -3.19243 -3
      vertex 0.204069 -3.24359 -6
      vertex -0.608989 -3.19243 -6
    endloop
  endfacet
  facet normal 0.0627987 -0.998026 0
    outer loop
      vertex -0.608989 3.19243 -6
      vertex 0.204069 3.24359 -3
      vertex -0.608989 3.19243 -3
    endloop
  endfacet
  facet normal 0.0627987 -0.998026 0
    outer loop
      vertex 0.204069 3.24359 -3
      vertex -0.608989 3.19243 -6
      vertex 0.204069 3.24359 -6
    endloop
  endfacet
  facet normal -0.637426 0.770511 0
    outer loop
      vertex 2.36915 -2.22478 -6
      vertex 1.74144 -2.74407 -3
      vertex 2.36915 -2.22478 -3
    endloop
  endfacet
  facet normal -0.637426 0.770511 0
    outer loop
      vertex 1.74144 -2.74407 -3
      vertex 2.36915 -2.22478 -6
      vertex 1.74144 -2.74407 -6
    endloop
  endfacet
  facet normal -0.809017 0.587786 0
    outer loop
      vertex 2.36915 -2.22478 -6
      vertex 2.848 -1.5657 -3
      vertex 2.848 -1.5657 -6
    endloop
  endfacet
  facet normal -0.809017 0.587786 0
    outer loop
      vertex 2.848 -1.5657 -3
      vertex 2.36915 -2.22478 -6
      vertex 2.36915 -2.22478 -3
    endloop
  endfacet
  facet normal 0.535824 0.84433 -0
    outer loop
      vertex -1.38378 -2.94069 -6
      vertex -2.07163 -2.50417 -3
      vertex -1.38378 -2.94069 -3
    endloop
  endfacet
  facet normal 0.535824 0.84433 0
    outer loop
      vertex -2.07163 -2.50417 -3
      vertex -1.38378 -2.94069 -6
      vertex -2.07163 -2.50417 -6
    endloop
  endfacet
  facet normal 0.968583 -0.248692 0
    outer loop
      vertex -3.22437 0.407332 -3
      vertex -3.02177 1.1964 -6
      vertex -3.02177 1.1964 -3
    endloop
  endfacet
  facet normal 0.968583 -0.248692 0
    outer loop
      vertex -3.02177 1.1964 -6
      vertex -3.22437 0.407332 -3
      vertex -3.22437 0.407332 -6
    endloop
  endfacet
  facet normal -0.809017 -0.587786 0
    outer loop
      vertex 2.848 1.5657 -6
      vertex 2.36915 2.22478 -3
      vertex 2.36915 2.22478 -6
    endloop
  endfacet
  facet normal -0.809017 -0.587786 0
    outer loop
      vertex 2.36915 2.22478 -3
      vertex 2.848 1.5657 -6
      vertex 2.848 1.5657 -3
    endloop
  endfacet
  facet normal 0.728975 -0.68454 0
    outer loop
      vertex -2.6293 1.9103 -3
      vertex -2.07163 2.50417 -6
      vertex -2.07163 2.50417 -3
    endloop
  endfacet
  facet normal 0.728975 -0.68454 0
    outer loop
      vertex -2.07163 2.50417 -6
      vertex -2.6293 1.9103 -3
      vertex -2.6293 1.9103 -6
    endloop
  endfacet
  facet normal 0.876307 -0.481754 0
    outer loop
      vertex -3.02177 1.1964 -3
      vertex -2.6293 1.9103 -6
      vertex -2.6293 1.9103 -3
    endloop
  endfacet
  facet normal 0.876307 -0.481754 0
    outer loop
      vertex -2.6293 1.9103 -6
      vertex -3.02177 1.1964 -3
      vertex -3.02177 1.1964 -6
    endloop
  endfacet
  facet normal 0.728975 0.68454 0
    outer loop
      vertex -2.07163 -2.50417 -3
      vertex -2.6293 -1.9103 -6
      vertex -2.6293 -1.9103 -3
    endloop
  endfacet
  facet normal 0.728975 0.68454 0
    outer loop
      vertex -2.6293 -1.9103 -6
      vertex -2.07163 -2.50417 -3
      vertex -2.07163 -2.50417 -6
    endloop
  endfacet
  facet normal 0.876307 0.481754 0
    outer loop
      vertex -2.6293 -1.9103 -3
      vertex -3.02177 -1.1964 -6
      vertex -3.02177 -1.1964 -3
    endloop
  endfacet
  facet normal 0.876307 0.481754 0
    outer loop
      vertex -3.02177 -1.1964 -6
      vertex -2.6293 -1.9103 -3
      vertex -2.6293 -1.9103 -6
    endloop
  endfacet
  facet normal 0.968583 0.248692 0
    outer loop
      vertex -3.02177 -1.1964 -3
      vertex -3.22437 -0.407332 -6
      vertex -3.22437 -0.407332 -3
    endloop
  endfacet
  facet normal 0.968583 0.248692 0
    outer loop
      vertex -3.22437 -0.407332 -6
      vertex -3.02177 -1.1964 -3
      vertex -3.02177 -1.1964 -6
    endloop
  endfacet
  facet normal 0.309012 0.951058 -0
    outer loop
      vertex -0.608989 -3.19243 -6
      vertex -1.38378 -2.94069 -3
      vertex -0.608989 -3.19243 -3
    endloop
  endfacet
  facet normal 0.309012 0.951058 0
    outer loop
      vertex -1.38378 -2.94069 -3
      vertex -0.608989 -3.19243 -6
      vertex -1.38378 -2.94069 -6
    endloop
  endfacet
  facet normal -0.187391 0.982285 0
    outer loop
      vertex 1.0043 -3.09093 -6
      vertex 0.204069 -3.24359 -3
      vertex 1.0043 -3.09093 -3
    endloop
  endfacet
  facet normal -0.187391 0.982285 0
    outer loop
      vertex 0.204069 -3.24359 -3
      vertex 1.0043 -3.09093 -6
      vertex 0.204069 -3.24359 -6
    endloop
  endfacet
  facet normal -0.187391 -0.982285 0
    outer loop
      vertex 0.204069 3.24359 -6
      vertex 1.0043 3.09093 -3
      vertex 0.204069 3.24359 -3
    endloop
  endfacet
  facet normal -0.187391 -0.982285 -0
    outer loop
      vertex 1.0043 3.09093 -3
      vertex 0.204069 3.24359 -6
      vertex 1.0043 3.09093 -6
    endloop
  endfacet
  facet normal -0.637426 -0.770511 0
    outer loop
      vertex 1.74144 2.74407 -6
      vertex 2.36915 2.22478 -3
      vertex 1.74144 2.74407 -3
    endloop
  endfacet
  facet normal -0.637426 -0.770511 -0
    outer loop
      vertex 2.36915 2.22478 -3
      vertex 1.74144 2.74407 -6
      vertex 2.36915 2.22478 -6
    endloop
  endfacet
  facet normal -0.425767 -0.904833 0
    outer loop
      vertex 1.0043 3.09093 -6
      vertex 1.74144 2.74407 -3
      vertex 1.0043 3.09093 -3
    endloop
  endfacet
  facet normal -0.425767 -0.904833 -0
    outer loop
      vertex 1.74144 2.74407 -3
      vertex 1.0043 3.09093 -6
      vertex 1.74144 2.74407 -6
    endloop
  endfacet
  facet normal -0.425767 0.904833 0
    outer loop
      vertex 1.74144 -2.74407 -6
      vertex 1.0043 -3.09093 -3
      vertex 1.74144 -2.74407 -3
    endloop
  endfacet
  facet normal -0.425767 0.904833 0
    outer loop
      vertex 1.0043 -3.09093 -3
      vertex 1.74144 -2.74407 -6
      vertex 1.0043 -3.09093 -6
    endloop
  endfacet
  facet normal 0.535824 -0.84433 0
    outer loop
      vertex -2.07163 2.50417 -6
      vertex -1.38378 2.94069 -3
      vertex -2.07163 2.50417 -3
    endloop
  endfacet
  facet normal 0.535824 -0.84433 0
    outer loop
      vertex -1.38378 2.94069 -3
      vertex -2.07163 2.50417 -6
      vertex -1.38378 2.94069 -6
    endloop
  endfacet
  facet normal 0.309012 -0.951058 0
    outer loop
      vertex -1.38378 2.94069 -6
      vertex -0.608989 3.19243 -3
      vertex -1.38378 2.94069 -3
    endloop
  endfacet
  facet normal 0.309012 -0.951058 0
    outer loop
      vertex -0.608989 3.19243 -3
      vertex -1.38378 2.94069 -6
      vertex -0.608989 3.19243 -6
    endloop
  endfacet
  facet normal -0.92978 -0.368115 0
    outer loop
      vertex 3.14789 0.808242 -6
      vertex 2.848 1.5657 -3
      vertex 2.848 1.5657 -6
    endloop
  endfacet
  facet normal -0.92978 -0.368115 0
    outer loop
      vertex 2.848 1.5657 -3
      vertex 3.14789 0.808242 -6
      vertex 3.14789 0.808242 -3
    endloop
  endfacet
endsolid OpenSCAD_Model
