  0
SECTION
  2
BLOCKS
  0
ENDSEC
  0
SECTION
  2
ENTITIES
  0
LINE
  8
0
 10
106
 20
9.00986
 11
106.314
 21
9.00986
  0
LINE
  8
0
 10
106.314
 20
9.00986
 11
106.937
 21
9.08856
  0
LINE
  8
0
 10
106.937
 20
9.08856
 11
107.545
 21
9.24471
  0
LINE
  8
0
 10
107.545
 20
9.24471
 11
108.129
 21
9.47586
  0
LINE
  8
0
 10
108.129
 20
9.47586
 11
108.679
 21
9.77835
  0
LINE
  8
0
 10
108.679
 20
9.77835
 11
109.187
 21
10.1474
  0
LINE
  8
0
 10
109.187
 20
10.1474
 11
109.645
 21
10.5773
  0
LINE
  8
0
 10
109.645
 20
10.5773
 11
110.045
 21
11.0611
  0
LINE
  8
0
 10
110.045
 20
11.0611
 11
110.382
 21
11.5912
  0
LINE
  8
0
 10
110.382
 20
11.5912
 11
110.649
 21
12.1594
  0
LINE
  8
0
 10
110.649
 20
12.1594
 11
110.843
 21
12.7565
  0
LINE
  8
0
 10
110.843
 20
12.7565
 11
110.961
 21
13.3733
  0
LINE
  8
0
 10
110.961
 20
13.3733
 11
111
 21
14
  0
LINE
  8
0
 10
111
 20
14
 11
111
 21
16
  0
LINE
  8
0
 10
111
 20
16
 11
110.961
 21
16.6267
  0
LINE
  8
0
 10
110.961
 20
16.6267
 11
110.843
 21
17.2434
  0
LINE
  8
0
 10
110.843
 20
17.2434
 11
110.649
 21
17.8406
  0
LINE
  8
0
 10
110.649
 20
17.8406
 11
110.382
 21
18.4088
  0
LINE
  8
0
 10
110.382
 20
18.4088
 11
110.045
 21
18.9389
  0
LINE
  8
0
 10
110.045
 20
18.9389
 11
109.645
 21
19.4227
  0
LINE
  8
0
 10
109.645
 20
19.4227
 11
109.187
 21
19.8526
  0
LINE
  8
0
 10
109.187
 20
19.8526
 11
108.679
 21
20.2216
  0
LINE
  8
0
 10
108.679
 20
20.2216
 11
108.129
 21
20.5241
  0
LINE
  8
0
 10
108.129
 20
20.5241
 11
107.545
 21
20.7553
  0
LINE
  8
0
 10
107.545
 20
20.7553
 11
106.937
 21
20.9114
  0
LINE
  8
0
 10
106.937
 20
20.9114
 11
106.314
 21
20.9901
  0
LINE
  8
0
 10
106.314
 20
20.9901
 11
106
 21
20.9901
  0
LINE
  8
0
 10
106
 20
20.9901
 11
106
 21
21
  0
LINE
  8
0
 10
106
 20
21
 11
14
 21
21
  0
LINE
  8
0
 10
14
 20
21
 11
14
 21
20.9901
  0
LINE
  8
0
 10
14
 20
20.9901
 11
13.686
 21
20.9901
  0
LINE
  8
0
 10
13.686
 20
20.9901
 11
13.0631
 21
20.9114
  0
LINE
  8
0
 10
13.0631
 20
20.9114
 11
12.4549
 21
20.7553
  0
LINE
  8
0
 10
12.4549
 20
20.7553
 11
11.8711
 21
20.5241
  0
LINE
  8
0
 10
11.8711
 20
20.5241
 11
11.3209
 21
20.2216
  0
LINE
  8
0
 10
11.3209
 20
20.2216
 11
10.8129
 21
19.8526
  0
LINE
  8
0
 10
10.8129
 20
19.8526
 11
10.3551
 21
19.4227
  0
LINE
  8
0
 10
10.3551
 20
19.4227
 11
9.95491
 21
18.9389
  0
LINE
  8
0
 10
9.95491
 20
18.9389
 11
9.61845
 21
18.4088
  0
LINE
  8
0
 10
9.61845
 20
18.4088
 11
9.3511
 21
17.8406
  0
LINE
  8
0
 10
9.3511
 20
17.8406
 11
9.15707
 21
17.2434
  0
LINE
  8
0
 10
9.15707
 20
17.2434
 11
9.03941
 21
16.6267
  0
LINE
  8
0
 10
9.03941
 20
16.6267
 11
9
 21
16
  0
LINE
  8
0
 10
9
 20
16
 11
9
 21
14
  0
LINE
  8
0
 10
9
 20
14
 11
9.03941
 21
13.3733
  0
LINE
  8
0
 10
9.03941
 20
13.3733
 11
9.15707
 21
12.7565
  0
LINE
  8
0
 10
9.15707
 20
12.7565
 11
9.3511
 21
12.1594
  0
LINE
  8
0
 10
9.3511
 20
12.1594
 11
9.61845
 21
11.5912
  0
LINE
  8
0
 10
9.61845
 20
11.5912
 11
9.95491
 21
11.0611
  0
LINE
  8
0
 10
9.95491
 20
11.0611
 11
10.3551
 21
10.5773
  0
LINE
  8
0
 10
10.3551
 20
10.5773
 11
10.8129
 21
10.1474
  0
LINE
  8
0
 10
10.8129
 20
10.1474
 11
11.3209
 21
9.77835
  0
LINE
  8
0
 10
11.3209
 20
9.77835
 11
11.8711
 21
9.47586
  0
LINE
  8
0
 10
11.8711
 20
9.47586
 11
12.4549
 21
9.24471
  0
LINE
  8
0
 10
12.4549
 20
9.24471
 11
13.0631
 21
9.08856
  0
LINE
  8
0
 10
13.0631
 20
9.08856
 11
13.686
 21
9.00986
  0
LINE
  8
0
 10
13.686
 20
9.00986
 11
14
 21
9.00986
  0
LINE
  8
0
 10
14
 20
9.00986
 11
14
 21
9
  0
LINE
  8
0
 10
14
 20
9
 11
106
 21
9
  0
LINE
  8
0
 10
106
 20
9
 11
106
 21
9.00986
  0
ENDSEC
  0
SECTION
  2
OBJECTS
  0
DICTIONARY
  0
ENDSEC
  0
EOF
