<?xml version="1.0" standalone="no"?>
<!DOCTYPE svg PUBLIC "-//W3C//DTD SVG 1.1//EN" "http://www.w3.org/Graphics/SVG/1.1/DTD/svg11.dtd">
<svg width="102mm" height="12mm" viewBox="9 -21 102 12" xmlns="http://www.w3.org/2000/svg" version="1.1">
<title>OpenSCAD Model</title>
<path d="
M 106,-9.00986 L 106.314,-9.00986 L 106.937,-9.08856 L 107.545,-9.24471 L 108.129,-9.47586 L 108.679,-9.77835
 L 109.187,-10.1474 L 109.645,-10.5773 L 110.045,-11.0611 L 110.382,-11.5912 L 110.649,-12.1594 L 110.843,-12.7565
 L 110.961,-13.3733 L 111,-14 L 111,-16 L 110.961,-16.6267 L 110.843,-17.2434 L 110.649,-17.8406
 L 110.382,-18.4088 L 110.045,-18.9389 L 109.645,-19.4227 L 109.187,-19.8526 L 108.679,-20.2216 L 108.129,-20.5241
 L 107.545,-20.7553 L 106.937,-20.9114 L 106.314,-20.9901 L 106,-20.9901 L 106,-21 L 14,-21
 L 14,-20.9901 L 13.686,-20.9901 L 13.0631,-20.9114 L 12.4549,-20.7553 L 11.8711,-20.5241 L 11.3209,-20.2216
 L 10.8129,-19.8526 L 10.3551,-19.4227 L 9.95491,-18.9389 L 9.61845,-18.4088 L 9.3511,-17.8406 L 9.15707,-17.2434
 L 9.03941,-16.6267 L 9,-16 L 9,-14 L 9.03941,-13.3733 L 9.15707,-12.7565 L 9.3511,-12.1594
 L 9.61845,-11.5912 L 9.95491,-11.0611 L 10.3551,-10.5773 L 10.8129,-10.1474 L 11.3209,-9.77835 L 11.8711,-9.47586
 L 12.4549,-9.24471 L 13.0631,-9.08856 L 13.686,-9.00986 L 14,-9.00986 L 14,-9 L 106,-9
 z
" stroke="black" fill="lightgray" stroke-width="0.5"/>
</svg>
