<?xml version="1.0" standalone="no"?>
<!DOCTYPE svg PUBLIC "-//W3C//DTD SVG 1.1//EN" "http://www.w3.org/Graphics/SVG/1.1/DTD/svg11.dtd">
<svg width="103mm" height="13mm" viewBox="1 -14 103 13" xmlns="http://www.w3.org/2000/svg" version="1.1">
<title>OpenSCAD Model</title>
<path d="
M 99.1576,-1.53778 L 99.7991,-1.66537 L 100.418,-1.87561 L 101.005,-2.16489 L 101.549,-2.52824 L 102.041,-2.95947
 L 102.472,-3.4512 L 102.835,-3.99501 L 103.124,-4.58159 L 103.335,-5.20091 L 103.462,-5.84238 L 103.505,-6.49501
 L 103.505,-8.50499 L 103.462,-9.15762 L 103.335,-9.79909 L 103.124,-10.4184 L 102.835,-11.005 L 102.472,-11.5488
 L 102.041,-12.0405 L 101.549,-12.4718 L 101.005,-12.8351 L 100.418,-13.1244 L 99.7991,-13.3346 L 99.1576,-13.4622
 L 98.505,-13.505 L 6.49501,-13.505 L 5.84238,-13.4622 L 5.20091,-13.3346 L 4.58159,-13.1244 L 3.99501,-12.8351
 L 3.4512,-12.4718 L 2.95947,-12.0405 L 2.52824,-11.5488 L 2.16489,-11.005 L 1.87561,-10.4184 L 1.66537,-9.79909
 L 1.53778,-9.15762 L 1.49501,-8.50499 L 1.49501,-6.49501 L 1.53778,-5.84238 L 1.66537,-5.20091 L 1.87561,-4.58159
 L 2.16489,-3.99501 L 2.52824,-3.4512 L 2.95947,-2.95947 L 3.4512,-2.52824 L 3.99501,-2.16489 L 4.58159,-1.87561
 L 5.20091,-1.66537 L 5.84238,-1.53778 L 6.49501,-1.49501 L 98.505,-1.49501 z
M 7.10841,-4.52567 L 6.72354,-4.60222 L 6.35194,-4.72835 L 6,-4.90192 L 5.67371,-5.11993 L 5.37868,-5.37868
 L 5.11993,-5.67371 L 4.90192,-6 L 4.72835,-6.35194 L 4.60222,-6.72354 L 4.52567,-7.10841 L 4.5,-7.5
 L 4.52567,-7.89157 L 4.60222,-8.27644 L 4.72835,-8.64804 L 4.90192,-9 L 5.11993,-9.32628 L 5.37868,-9.62131
 L 5.67371,-9.88005 L 6,-10.0981 L 6.35194,-10.2716 L 6.72354,-10.3978 L 7.10841,-10.4743 L 7.5,-10.5
 L 7.89157,-10.4743 L 8.27644,-10.3978 L 8.64804,-10.2716 L 9,-10.0981 L 9.32628,-9.88005 L 9.62131,-9.62131
 L 9.88005,-9.32628 L 10.0981,-9 L 10.2716,-8.64804 L 10.3978,-8.27644 L 10.4743,-7.89157 L 10.5,-7.5
 L 10.4743,-7.10841 L 10.3978,-6.72354 L 10.2716,-6.35194 L 10.0981,-6 L 9.88005,-5.67371 L 9.62131,-5.37868
 L 9.32628,-5.11993 L 9,-4.90192 L 8.64804,-4.72835 L 8.27644,-4.60222 L 7.89157,-4.52567 L 7.5,-4.5
 z
M 22.1084,-4.52567 L 21.7235,-4.60222 L 21.3519,-4.72835 L 21,-4.90192 L 20.6737,-5.11993 L 20.3787,-5.37868
 L 20.1199,-5.67371 L 19.9019,-6 L 19.7283,-6.35194 L 19.6022,-6.72354 L 19.5257,-7.10841 L 19.5,-7.5
 L 19.5257,-7.89157 L 19.6022,-8.27644 L 19.7283,-8.64804 L 19.9019,-9 L 20.1199,-9.32628 L 20.3787,-9.62131
 L 20.6737,-9.88005 L 21,-10.0981 L 21.3519,-10.2716 L 21.7235,-10.3978 L 22.1084,-10.4743 L 22.5,-10.5
 L 22.8916,-10.4743 L 23.2764,-10.3978 L 23.648,-10.2716 L 24,-10.0981 L 24.3263,-9.88005 L 24.6213,-9.62131
 L 24.8801,-9.32628 L 25.0981,-9 L 25.2716,-8.64804 L 25.3978,-8.27644 L 25.4743,-7.89157 L 25.5,-7.5
 L 25.4743,-7.10841 L 25.3978,-6.72354 L 25.2716,-6.35194 L 25.0981,-6 L 24.8801,-5.67371 L 24.6213,-5.37868
 L 24.3263,-5.11993 L 24,-4.90192 L 23.648,-4.72835 L 23.2764,-4.60222 L 22.8916,-4.52567 L 22.5,-4.5
 z
M 82.1084,-4.52567 L 81.7235,-4.60222 L 81.3519,-4.72835 L 81,-4.90192 L 80.6737,-5.11993 L 80.3787,-5.37868
 L 80.1199,-5.67371 L 79.9019,-6 L 79.7284,-6.35194 L 79.6022,-6.72354 L 79.5257,-7.10841 L 79.5,-7.5
 L 79.5257,-7.89157 L 79.6022,-8.27644 L 79.7284,-8.64804 L 79.9019,-9 L 80.1199,-9.32628 L 80.3787,-9.62131
 L 80.6737,-9.88005 L 81,-10.0981 L 81.3519,-10.2716 L 81.7235,-10.3978 L 82.1084,-10.4743 L 82.5,-10.5
 L 82.8916,-10.4743 L 83.2765,-10.3978 L 83.648,-10.2716 L 84,-10.0981 L 84.3263,-9.88005 L 84.6213,-9.62131
 L 84.8801,-9.32628 L 85.0981,-9 L 85.2716,-8.64804 L 85.3978,-8.27644 L 85.4743,-7.89157 L 85.5,-7.5
 L 85.4743,-7.10841 L 85.3978,-6.72354 L 85.2716,-6.35194 L 85.0981,-6 L 84.8801,-5.67371 L 84.6213,-5.37868
 L 84.3263,-5.11993 L 84,-4.90192 L 83.648,-4.72835 L 83.2765,-4.60222 L 82.8916,-4.52567 L 82.5,-4.5
 z
M 97.1084,-4.52567 L 96.7235,-4.60222 L 96.3519,-4.72835 L 96,-4.90192 L 95.6737,-5.11993 L 95.3787,-5.37868
 L 95.1199,-5.67371 L 94.9019,-6 L 94.7284,-6.35194 L 94.6022,-6.72354 L 94.5257,-7.10841 L 94.5,-7.5
 L 94.5257,-7.89157 L 94.6022,-8.27644 L 94.7284,-8.64804 L 94.9019,-9 L 95.1199,-9.32628 L 95.3787,-9.62131
 L 95.6737,-9.88005 L 96,-10.0981 L 96.3519,-10.2716 L 96.7235,-10.3978 L 97.1084,-10.4743 L 97.5,-10.5
 L 97.8916,-10.4743 L 98.2765,-10.3978 L 98.648,-10.2716 L 99,-10.0981 L 99.3263,-9.88005 L 99.6213,-9.62131
 L 99.8801,-9.32628 L 100.098,-9 L 100.272,-8.64804 L 100.398,-8.27644 L 100.474,-7.89157 L 100.5,-7.5
 L 100.474,-7.10841 L 100.398,-6.72354 L 100.272,-6.35194 L 100.098,-6 L 99.8801,-5.67371 L 99.6213,-5.37868
 L 99.3263,-5.11993 L 99,-4.90192 L 98.648,-4.72835 L 98.2765,-4.60222 L 97.8916,-4.52567 L 97.5,-4.5
 z
M 67.1084,-4.52567 L 66.7235,-4.60222 L 66.3519,-4.72835 L 66,-4.90192 L 65.6737,-5.11993 L 65.3787,-5.37868
 L 65.1199,-5.67371 L 64.9019,-6 L 64.7284,-6.35194 L 64.6022,-6.72354 L 64.5257,-7.10841 L 64.5,-7.5
 L 64.5257,-7.89157 L 64.6022,-8.27644 L 64.7284,-8.64804 L 64.9019,-9 L 65.1199,-9.32628 L 65.3787,-9.62131
 L 65.6737,-9.88005 L 66,-10.0981 L 66.3519,-10.2716 L 66.7235,-10.3978 L 67.1084,-10.4743 L 67.5,-10.5
 L 67.8916,-10.4743 L 68.2765,-10.3978 L 68.648,-10.2716 L 69,-10.0981 L 69.3263,-9.88005 L 69.6213,-9.62131
 L 69.8801,-9.32628 L 70.0981,-9 L 70.2716,-8.64804 L 70.3978,-8.27644 L 70.4743,-7.89157 L 70.5,-7.5
 L 70.4743,-7.10841 L 70.3978,-6.72354 L 70.2716,-6.35194 L 70.0981,-6 L 69.8801,-5.67371 L 69.6213,-5.37868
 L 69.3263,-5.11993 L 69,-4.90192 L 68.648,-4.72835 L 68.2765,-4.60222 L 67.8916,-4.52567 L 67.5,-4.5
 z
M 52.1084,-4.52567 L 51.7235,-4.60222 L 51.3519,-4.72835 L 51,-4.90192 L 50.6737,-5.11993 L 50.3787,-5.37868
 L 50.1199,-5.67371 L 49.9019,-6 L 49.7284,-6.35194 L 49.6022,-6.72354 L 49.5257,-7.10841 L 49.5,-7.5
 L 49.5257,-7.89157 L 49.6022,-8.27644 L 49.7284,-8.64804 L 49.9019,-9 L 50.1199,-9.32628 L 50.3787,-9.62131
 L 50.6737,-9.88005 L 51,-10.0981 L 51.3519,-10.2716 L 51.7235,-10.3978 L 52.1084,-10.4743 L 52.5,-10.5
 L 52.8916,-10.4743 L 53.2765,-10.3978 L 53.648,-10.2716 L 54,-10.0981 L 54.3263,-9.88005 L 54.6213,-9.62131
 L 54.8801,-9.32628 L 55.0981,-9 L 55.2716,-8.64804 L 55.3978,-8.27644 L 55.4743,-7.89157 L 55.5,-7.5
 L 55.4743,-7.10841 L 55.3978,-6.72354 L 55.2716,-6.35194 L 55.0981,-6 L 54.8801,-5.67371 L 54.6213,-5.37868
 L 54.3263,-5.11993 L 54,-4.90192 L 53.648,-4.72835 L 53.2765,-4.60222 L 52.8916,-4.52567 L 52.5,-4.5
 z
M 37.1084,-4.52567 L 36.7235,-4.60222 L 36.3519,-4.72835 L 36,-4.90192 L 35.6737,-5.11993 L 35.3787,-5.37868
 L 35.1199,-5.67371 L 34.9019,-6 L 34.7284,-6.35194 L 34.6022,-6.72354 L 34.5257,-7.10841 L 34.5,-7.5
 L 34.5257,-7.89157 L 34.6022,-8.27644 L 34.7284,-8.64804 L 34.9019,-9 L 35.1199,-9.32628 L 35.3787,-9.62131
 L 35.6737,-9.88005 L 36,-10.0981 L 36.3519,-10.2716 L 36.7235,-10.3978 L 37.1084,-10.4743 L 37.5,-10.5
 L 37.8916,-10.4743 L 38.2765,-10.3978 L 38.648,-10.2716 L 39,-10.0981 L 39.3263,-9.88005 L 39.6213,-9.62131
 L 39.8801,-9.32628 L 40.0981,-9 L 40.2716,-8.64804 L 40.3978,-8.27644 L 40.4743,-7.89157 L 40.5,-7.5
 L 40.4743,-7.10841 L 40.3978,-6.72354 L 40.2716,-6.35194 L 40.0981,-6 L 39.8801,-5.67371 L 39.6213,-5.37868
 L 39.3263,-5.11993 L 39,-4.90192 L 38.648,-4.72835 L 38.2765,-4.60222 L 37.8916,-4.52567 L 37.5,-4.5
 z
" stroke="black" fill="lightgray" stroke-width="0.5"/>
</svg>
