<?xml version="1.0" standalone="no"?>
<!DOCTYPE svg PUBLIC "-//W3C//DTD SVG 1.1//EN" "http://www.w3.org/Graphics/SVG/1.1/DTD/svg11.dtd">
<svg width="46mm" height="21mm" viewBox="-23 -7 46 21" xmlns="http://www.w3.org/2000/svg" version="1.1">
<title>OpenSCAD Model</title>
<path d="
M 2.99344,10.5 L 2.99344,13.5 L 12.0065,13.5 L 12.0065,10.5 L 10,10.5 L 10,5.5
 L 12.0065,5.5 L 12.0065,0.0999908 L 12,-0 L 12.0257,-0.391571 L 12.1022,-0.776443 L 12.2283,-1.14804
 L 12.4019,-1.5 L 12.6199,-1.82628 L 12.8787,-2.12131 L 13.1737,-2.38005 L 13.5,-2.59807 L 13.8519,-2.77164
 L 14.2235,-2.89777 L 14.6084,-2.97432 L 15,-3 L 15.3916,-2.97432 L 15.7764,-2.89777 L 16.148,-2.77164
 L 16.5,-2.59807 L 16.8263,-2.38005 L 17.1213,-2.12131 L 17.3801,-1.82628 L 17.5981,-1.5 L 17.7716,-1.14804
 L 17.8978,-0.776443 L 17.9743,-0.391571 L 18,-0 L 17.9934,0.0999908 L 17.9934,5.5 L 20,5.5
 L 20,10.5 L 17.9934,10.5 L 17.9934,13.5 L 22.5,13.5 L 22.5,1.08112 L 22.505,1.00499
 L 22.505,-1.00499 L 22.4622,-1.65762 L 22.3346,-2.29909 L 22.1244,-2.91841 L 21.8351,-3.50499 L 21.4718,-4.0488
 L 21.0405,-4.54053 L 20.5488,-4.97176 L 20.005,-5.33511 L 19.4184,-5.62439 L 18.7991,-5.83463 L 18.1576,-5.96222
 L 17.505,-6.00499 L -17.505,-6.00499 L -18.1576,-5.96222 L -18.7991,-5.83463 L -19.4184,-5.62439 L -20.005,-5.33511
 L -20.5488,-4.97176 L -21.0405,-4.54053 L -21.4718,-4.0488 L -21.8351,-3.50499 L -22.1244,-2.91841 L -22.3346,-2.29909
 L -22.4622,-1.65762 L -22.505,-1.00499 L -22.505,1.00499 L -22.5,1.08112 L -22.5,13.5 L -17.9934,13.5
 L -17.9934,10.5 L -20,10.5 L -20,5.5 L -17.9934,5.5 L -17.9934,0.0999908 L -18,-0
 L -17.9743,-0.391571 L -17.8978,-0.776443 L -17.7716,-1.14804 L -17.5981,-1.5 L -17.3801,-1.82628 L -17.1213,-2.12131
 L -16.8263,-2.38005 L -16.5,-2.59807 L -16.148,-2.77164 L -15.7764,-2.89777 L -15.3916,-2.97432 L -15,-3
 L -14.6084,-2.97432 L -14.2235,-2.89777 L -13.8519,-2.77164 L -13.5,-2.59807 L -13.1737,-2.38005 L -12.8787,-2.12131
 L -12.6199,-1.82628 L -12.4019,-1.5 L -12.2283,-1.14804 L -12.1022,-0.776443 L -12.0257,-0.391571 L -12,-0
 L -12.0065,0.0999908 L -12.0065,5.5 L -10,5.5 L -10,10.5 L -12.0065,10.5 L -12.0065,13.5
 L -2.99344,13.5 L -2.99344,10.5 L -5,10.5 L -5,5.5 L -2.99344,5.5 L -2.99344,0.0999908
 L -3,-0 L -2.97432,-0.391571 L -2.89777,-0.776443 L -2.77164,-1.14804 L -2.59807,-1.5 L -2.38005,-1.82628
 L -2.12131,-2.12131 L -1.82628,-2.38005 L -1.5,-2.59807 L -1.14804,-2.77164 L -0.776443,-2.89777 L -0.391571,-2.97432
 L 0,-3 L 0.391571,-2.97432 L 0.776443,-2.89777 L 1.14804,-2.77164 L 1.5,-2.59807 L 1.82628,-2.38005
 L 2.12131,-2.12131 L 2.38005,-1.82628 L 2.59807,-1.5 L 2.77164,-1.14804 L 2.89777,-0.776443 L 2.97432,-0.391571
 L 3,-0 L 2.99344,0.0999908 L 2.99344,5.5 L 5,5.5 L 5,10.5 z
" stroke="black" fill="lightgray" stroke-width="0.5"/>
</svg>
