  0
SECTION
  2
BLOCKS
  0
ENDSEC
  0
SECTION
  2
ENTITIES
  0
LINE
  8
0
 10
-17.9934
 20
-10.5
 11
-20
 21
-10.5
  0
LINE
  8
0
 10
-20
 20
-10.5
 11
-20
 21
-5.5
  0
LINE
  8
0
 10
-20
 20
-5.5
 11
-17.9934
 21
-5.5
  0
LINE
  8
0
 10
-17.9934
 20
-5.5
 11
-17.9934
 21
-0.0999908
  0
LINE
  8
0
 10
-17.9934
 20
-0.0999908
 11
-18
 21
0
  0
LINE
  8
0
 10
-18
 20
0
 11
-17.9743
 21
0.391571
  0
LINE
  8
0
 10
-17.9743
 20
0.391571
 11
-17.8978
 21
0.776443
  0
LINE
  8
0
 10
-17.8978
 20
0.776443
 11
-17.7716
 21
1.14804
  0
LINE
  8
0
 10
-17.7716
 20
1.14804
 11
-17.5981
 21
1.5
  0
LINE
  8
0
 10
-17.5981
 20
1.5
 11
-17.3801
 21
1.82628
  0
LINE
  8
0
 10
-17.3801
 20
1.82628
 11
-17.1213
 21
2.12131
  0
LINE
  8
0
 10
-17.1213
 20
2.12131
 11
-16.8263
 21
2.38005
  0
LINE
  8
0
 10
-16.8263
 20
2.38005
 11
-16.5
 21
2.59807
  0
LINE
  8
0
 10
-16.5
 20
2.59807
 11
-16.148
 21
2.77164
  0
LINE
  8
0
 10
-16.148
 20
2.77164
 11
-15.7764
 21
2.89777
  0
LINE
  8
0
 10
-15.7764
 20
2.89777
 11
-15.3916
 21
2.97432
  0
LINE
  8
0
 10
-15.3916
 20
2.97432
 11
-15
 21
3
  0
LINE
  8
0
 10
-15
 20
3
 11
-14.6084
 21
2.97432
  0
LINE
  8
0
 10
-14.6084
 20
2.97432
 11
-14.2235
 21
2.89777
  0
LINE
  8
0
 10
-14.2235
 20
2.89777
 11
-13.8519
 21
2.77164
  0
LINE
  8
0
 10
-13.8519
 20
2.77164
 11
-13.5
 21
2.59807
  0
LINE
  8
0
 10
-13.5
 20
2.59807
 11
-13.1737
 21
2.38005
  0
LINE
  8
0
 10
-13.1737
 20
2.38005
 11
-12.8787
 21
2.12131
  0
LINE
  8
0
 10
-12.8787
 20
2.12131
 11
-12.6199
 21
1.82628
  0
LINE
  8
0
 10
-12.6199
 20
1.82628
 11
-12.4019
 21
1.5
  0
LINE
  8
0
 10
-12.4019
 20
1.5
 11
-12.2283
 21
1.14804
  0
LINE
  8
0
 10
-12.2283
 20
1.14804
 11
-12.1022
 21
0.776443
  0
LINE
  8
0
 10
-12.1022
 20
0.776443
 11
-12.0257
 21
0.391571
  0
LINE
  8
0
 10
-12.0257
 20
0.391571
 11
-12
 21
0
  0
LINE
  8
0
 10
-12
 20
0
 11
-12.0065
 21
-0.0999908
  0
LINE
  8
0
 10
-12.0065
 20
-0.0999908
 11
-12.0065
 21
-5.5
  0
LINE
  8
0
 10
-12.0065
 20
-5.5
 11
-10
 21
-5.5
  0
LINE
  8
0
 10
-10
 20
-5.5
 11
-10
 21
-10.5
  0
LINE
  8
0
 10
-10
 20
-10.5
 11
-12.0065
 21
-10.5
  0
LINE
  8
0
 10
-12.0065
 20
-10.5
 11
-12.0065
 21
-13.5
  0
LINE
  8
0
 10
-12.0065
 20
-13.5
 11
-2.99344
 21
-13.5
  0
LINE
  8
0
 10
-2.99344
 20
-13.5
 11
-2.99344
 21
-10.5
  0
LINE
  8
0
 10
-2.99344
 20
-10.5
 11
-5
 21
-10.5
  0
LINE
  8
0
 10
-5
 20
-10.5
 11
-5
 21
-5.5
  0
LINE
  8
0
 10
-5
 20
-5.5
 11
-2.99344
 21
-5.5
  0
LINE
  8
0
 10
-2.99344
 20
-5.5
 11
-2.99344
 21
-0.0999908
  0
LINE
  8
0
 10
-2.99344
 20
-0.0999908
 11
-3
 21
0
  0
LINE
  8
0
 10
-3
 20
0
 11
-2.97432
 21
0.391571
  0
LINE
  8
0
 10
-2.97432
 20
0.391571
 11
-2.89777
 21
0.776443
  0
LINE
  8
0
 10
-2.89777
 20
0.776443
 11
-2.77164
 21
1.14804
  0
LINE
  8
0
 10
-2.77164
 20
1.14804
 11
-2.59807
 21
1.5
  0
LINE
  8
0
 10
-2.59807
 20
1.5
 11
-2.38005
 21
1.82628
  0
LINE
  8
0
 10
-2.38005
 20
1.82628
 11
-2.12131
 21
2.12131
  0
LINE
  8
0
 10
-2.12131
 20
2.12131
 11
-1.82628
 21
2.38005
  0
LINE
  8
0
 10
-1.82628
 20
2.38005
 11
-1.5
 21
2.59807
  0
LINE
  8
0
 10
-1.5
 20
2.59807
 11
-1.14804
 21
2.77164
  0
LINE
  8
0
 10
-1.14804
 20
2.77164
 11
-0.776443
 21
2.89777
  0
LINE
  8
0
 10
-0.776443
 20
2.89777
 11
-0.391571
 21
2.97432
  0
LINE
  8
0
 10
-0.391571
 20
2.97432
 11
0
 21
3
  0
LINE
  8
0
 10
0
 20
3
 11
0.391571
 21
2.97432
  0
LINE
  8
0
 10
0.391571
 20
2.97432
 11
0.776443
 21
2.89777
  0
LINE
  8
0
 10
0.776443
 20
2.89777
 11
1.14804
 21
2.77164
  0
LINE
  8
0
 10
1.14804
 20
2.77164
 11
1.5
 21
2.59807
  0
LINE
  8
0
 10
1.5
 20
2.59807
 11
1.82628
 21
2.38005
  0
LINE
  8
0
 10
1.82628
 20
2.38005
 11
2.12131
 21
2.12131
  0
LINE
  8
0
 10
2.12131
 20
2.12131
 11
2.38005
 21
1.82628
  0
LINE
  8
0
 10
2.38005
 20
1.82628
 11
2.59807
 21
1.5
  0
LINE
  8
0
 10
2.59807
 20
1.5
 11
2.77164
 21
1.14804
  0
LINE
  8
0
 10
2.77164
 20
1.14804
 11
2.89777
 21
0.776443
  0
LINE
  8
0
 10
2.89777
 20
0.776443
 11
2.97432
 21
0.391571
  0
LINE
  8
0
 10
2.97432
 20
0.391571
 11
3
 21
0
  0
LINE
  8
0
 10
3
 20
0
 11
2.99344
 21
-0.0999908
  0
LINE
  8
0
 10
2.99344
 20
-0.0999908
 11
2.99344
 21
-5.5
  0
LINE
  8
0
 10
2.99344
 20
-5.5
 11
5
 21
-5.5
  0
LINE
  8
0
 10
5
 20
-5.5
 11
5
 21
-10.5
  0
LINE
  8
0
 10
5
 20
-10.5
 11
2.99344
 21
-10.5
  0
LINE
  8
0
 10
2.99344
 20
-10.5
 11
2.99344
 21
-13.5
  0
LINE
  8
0
 10
2.99344
 20
-13.5
 11
12.0065
 21
-13.5
  0
LINE
  8
0
 10
12.0065
 20
-13.5
 11
12.0065
 21
-10.5
  0
LINE
  8
0
 10
12.0065
 20
-10.5
 11
10
 21
-10.5
  0
LINE
  8
0
 10
10
 20
-10.5
 11
10
 21
-5.5
  0
LINE
  8
0
 10
10
 20
-5.5
 11
12.0065
 21
-5.5
  0
LINE
  8
0
 10
12.0065
 20
-5.5
 11
12.0065
 21
-0.0999908
  0
LINE
  8
0
 10
12.0065
 20
-0.0999908
 11
12
 21
0
  0
LINE
  8
0
 10
12
 20
0
 11
12.0257
 21
0.391571
  0
LINE
  8
0
 10
12.0257
 20
0.391571
 11
12.1022
 21
0.776443
  0
LINE
  8
0
 10
12.1022
 20
0.776443
 11
12.2283
 21
1.14804
  0
LINE
  8
0
 10
12.2283
 20
1.14804
 11
12.4019
 21
1.5
  0
LINE
  8
0
 10
12.4019
 20
1.5
 11
12.6199
 21
1.82628
  0
LINE
  8
0
 10
12.6199
 20
1.82628
 11
12.8787
 21
2.12131
  0
LINE
  8
0
 10
12.8787
 20
2.12131
 11
13.1737
 21
2.38005
  0
LINE
  8
0
 10
13.1737
 20
2.38005
 11
13.5
 21
2.59807
  0
LINE
  8
0
 10
13.5
 20
2.59807
 11
13.8519
 21
2.77164
  0
LINE
  8
0
 10
13.8519
 20
2.77164
 11
14.2235
 21
2.89777
  0
LINE
  8
0
 10
14.2235
 20
2.89777
 11
14.6084
 21
2.97432
  0
LINE
  8
0
 10
14.6084
 20
2.97432
 11
15
 21
3
  0
LINE
  8
0
 10
15
 20
3
 11
15.3916
 21
2.97432
  0
LINE
  8
0
 10
15.3916
 20
2.97432
 11
15.7764
 21
2.89777
  0
LINE
  8
0
 10
15.7764
 20
2.89777
 11
16.148
 21
2.77164
  0
LINE
  8
0
 10
16.148
 20
2.77164
 11
16.5
 21
2.59807
  0
LINE
  8
0
 10
16.5
 20
2.59807
 11
16.8263
 21
2.38005
  0
LINE
  8
0
 10
16.8263
 20
2.38005
 11
17.1213
 21
2.12131
  0
LINE
  8
0
 10
17.1213
 20
2.12131
 11
17.3801
 21
1.82628
  0
LINE
  8
0
 10
17.3801
 20
1.82628
 11
17.5981
 21
1.5
  0
LINE
  8
0
 10
17.5981
 20
1.5
 11
17.7716
 21
1.14804
  0
LINE
  8
0
 10
17.7716
 20
1.14804
 11
17.8978
 21
0.776443
  0
LINE
  8
0
 10
17.8978
 20
0.776443
 11
17.9743
 21
0.391571
  0
LINE
  8
0
 10
17.9743
 20
0.391571
 11
18
 21
0
  0
LINE
  8
0
 10
18
 20
0
 11
17.9934
 21
-0.0999908
  0
LINE
  8
0
 10
17.9934
 20
-0.0999908
 11
17.9934
 21
-5.5
  0
LINE
  8
0
 10
17.9934
 20
-5.5
 11
20
 21
-5.5
  0
LINE
  8
0
 10
20
 20
-5.5
 11
20
 21
-10.5
  0
LINE
  8
0
 10
20
 20
-10.5
 11
17.9934
 21
-10.5
  0
LINE
  8
0
 10
17.9934
 20
-10.5
 11
17.9934
 21
-13.5
  0
LINE
  8
0
 10
17.9934
 20
-13.5
 11
22.5
 21
-13.5
  0
LINE
  8
0
 10
22.5
 20
-13.5
 11
22.5
 21
-1.08112
  0
LINE
  8
0
 10
22.5
 20
-1.08112
 11
22.505
 21
-1.00499
  0
LINE
  8
0
 10
22.505
 20
-1.00499
 11
22.505
 21
1.00499
  0
LINE
  8
0
 10
22.505
 20
1.00499
 11
22.4622
 21
1.65762
  0
LINE
  8
0
 10
22.4622
 20
1.65762
 11
22.3346
 21
2.29909
  0
LINE
  8
0
 10
22.3346
 20
2.29909
 11
22.1244
 21
2.91841
  0
LINE
  8
0
 10
22.1244
 20
2.91841
 11
21.8351
 21
3.50499
  0
LINE
  8
0
 10
21.8351
 20
3.50499
 11
21.4718
 21
4.0488
  0
LINE
  8
0
 10
21.4718
 20
4.0488
 11
21.0405
 21
4.54053
  0
LINE
  8
0
 10
21.0405
 20
4.54053
 11
20.5488
 21
4.97176
  0
LINE
  8
0
 10
20.5488
 20
4.97176
 11
20.005
 21
5.33511
  0
LINE
  8
0
 10
20.005
 20
5.33511
 11
19.4184
 21
5.62439
  0
LINE
  8
0
 10
19.4184
 20
5.62439
 11
18.7991
 21
5.83463
  0
LINE
  8
0
 10
18.7991
 20
5.83463
 11
18.1576
 21
5.96222
  0
LINE
  8
0
 10
18.1576
 20
5.96222
 11
17.505
 21
6.00499
  0
LINE
  8
0
 10
17.505
 20
6.00499
 11
-17.505
 21
6.00499
  0
LINE
  8
0
 10
-17.505
 20
6.00499
 11
-18.1576
 21
5.96222
  0
LINE
  8
0
 10
-18.1576
 20
5.96222
 11
-18.7991
 21
5.83463
  0
LINE
  8
0
 10
-18.7991
 20
5.83463
 11
-19.4184
 21
5.62439
  0
LINE
  8
0
 10
-19.4184
 20
5.62439
 11
-20.005
 21
5.33511
  0
LINE
  8
0
 10
-20.005
 20
5.33511
 11
-20.5488
 21
4.97176
  0
LINE
  8
0
 10
-20.5488
 20
4.97176
 11
-21.0405
 21
4.54053
  0
LINE
  8
0
 10
-21.0405
 20
4.54053
 11
-21.4718
 21
4.0488
  0
LINE
  8
0
 10
-21.4718
 20
4.0488
 11
-21.8351
 21
3.50499
  0
LINE
  8
0
 10
-21.8351
 20
3.50499
 11
-22.1244
 21
2.91841
  0
LINE
  8
0
 10
-22.1244
 20
2.91841
 11
-22.3346
 21
2.29909
  0
LINE
  8
0
 10
-22.3346
 20
2.29909
 11
-22.4622
 21
1.65762
  0
LINE
  8
0
 10
-22.4622
 20
1.65762
 11
-22.505
 21
1.00499
  0
LINE
  8
0
 10
-22.505
 20
1.00499
 11
-22.505
 21
-1.00499
  0
LINE
  8
0
 10
-22.505
 20
-1.00499
 11
-22.5
 21
-1.08112
  0
LINE
  8
0
 10
-22.5
 20
-1.08112
 11
-22.5
 21
-13.5
  0
LINE
  8
0
 10
-22.5
 20
-13.5
 11
-17.9934
 21
-13.5
  0
LINE
  8
0
 10
-17.9934
 20
-13.5
 11
-17.9934
 21
-10.5
  0
ENDSEC
  0
SECTION
  2
OBJECTS
  0
DICTIONARY
  0
ENDSEC
  0
EOF
