<?xml version="1.0" encoding="UTF-8"?>
<!DOCTYPE svg PUBLIC "-//W3C//DTD SVG 1.1//EN" "http://www.w3.org/Graphics/SVG/1.1/DTD/svg11.dtd">
<!-- Creator: CorelDRAW -->
<svg xmlns="http://www.w3.org/2000/svg" xml:space="preserve" width="210mm" height="297mm" style="shape-rendering:geometricPrecision; text-rendering:geometricPrecision; image-rendering:optimizeQuality; fill-rule:evenodd; clip-rule:evenodd"
viewBox="0 0 210 297"
 xmlns:xlink="http://www.w3.org/1999/xlink">
 <defs>
  <style type="text/css">
   <![CDATA[
    .str2 {stroke:#1F1A17;stroke-width:0.5292}
    .str1 {stroke:#1F1A17;stroke-width:0.5292;stroke-linecap:round;stroke-linejoin:round}
    .str0 {stroke:black;stroke-width:0.5292;stroke-linecap:round;stroke-linejoin:round}
    .fil0 {fill:none}
   ]]>
  </style>
 </defs>
 <g id="Layer_x0020_1">
  <metadata id="CorelCorpID_0Corel-Layer"/>
  <path class="fil0 str0" d="M-93.1 365.45l0.4149 0c0.2723,-0.4705 0.6646,-0.8628 1.1351,-1.1351l0 -0.4149 1.55 0 1.55 0 0 0.4149c0.4705,0.2723 0.8628,0.6646 1.1351,1.1351l0.4149 0 0 1.55 0 1.55 -0.4149 0c-0.2723,0.4705 -0.6646,0.8628 -1.1351,1.1351l0 0.4149 -1.55 0 -1.55 0 0 -0.4149c-0.4705,-0.2723 -0.8628,-0.6646 -1.1351,-1.1351l-0.4149 0 0 -1.55 0 -1.55z"/>
  <path class="fil0 str0" d="M-93.1 345.45l0.4149 0c0.2723,-0.4705 0.6646,-0.8628 1.1351,-1.1351l0 -0.4149 1.55 0 1.55 0 0 0.4149c0.4705,0.2723 0.8628,0.6646 1.1351,1.1351l0.4149 0 0 1.55 0 1.55 -0.4149 0c-0.2723,0.4705 -0.6646,0.8628 -1.1351,1.1351l0 0.4149 -1.55 0 -1.55 0 0 -0.4149c-0.4705,-0.2723 -0.8628,-0.6646 -1.1351,-1.1351l-0.4149 0 0 -1.55 0 -1.55z"/>
  <path class="fil0 str0" d="M-93.1 325.45l0.4149 0c0.2723,-0.4705 0.6646,-0.8628 1.1351,-1.1351l0 -0.4149 1.55 0 1.55 0 0 0.4149c0.4705,0.2723 0.8628,0.6646 1.1351,1.1351l0.4149 0 0 1.55 0 1.55 -0.4149 0c-0.2723,0.4705 -0.6646,0.8628 -1.1351,1.1351l0 0.4149 -1.55 0 -1.55 0 0 -0.4149c-0.4705,-0.2723 -0.8628,-0.6646 -1.1351,-1.1351l-0.4149 0 0 -1.55 0 -1.55z"/>
  <path class="fil0 str0" d="M-93.1 305.45l0.4149 0c0.2723,-0.4705 0.6646,-0.8628 1.1351,-1.1351l0 -0.4149 1.55 0 1.55 0 0 0.4149c0.4705,0.2723 0.8628,0.6646 1.1351,1.1351l0.4149 0 0 1.55 0 1.55 -0.4149 0c-0.2723,0.4705 -0.6646,0.8628 -1.1351,1.1351l0 0.4149 -1.55 0 -1.55 0 0 -0.4149c-0.4705,-0.2723 -0.8628,-0.6646 -1.1351,-1.1351l-0.4149 0 0 -1.55 0 -1.55z"/>
  <path class="fil0 str0" d="M-93.1 285.45l0.4149 0c0.2723,-0.4705 0.6646,-0.8628 1.1351,-1.1351l0 -0.4149 1.55 0 1.55 0 0 0.4149c0.4705,0.2723 0.8628,0.6646 1.1351,1.1351l0.4149 0 0 1.55 0 1.55 -0.4149 0c-0.2723,0.4705 -0.6646,0.8628 -1.1351,1.1351l0 0.4149 -1.55 0 -1.55 0 0 -0.4149c-0.4705,-0.2723 -0.8628,-0.6646 -1.1351,-1.1351l-0.4149 0 0 -1.55 0 -1.55z"/>
  <path class="fil0 str0" d="M-93.1 265.45l0.4149 0c0.2723,-0.4705 0.6646,-0.8628 1.1351,-1.1351l0 -0.4149 1.55 0 1.55 0 0 0.4149c0.4705,0.2723 0.8628,0.6646 1.1351,1.1351l0.4149 0 0 1.55 0 1.55 -0.4149 0c-0.2723,0.4705 -0.6646,0.8628 -1.1351,1.1351l0 0.4149 -1.55 0 -1.55 0 0 -0.4149c-0.4705,-0.2723 -0.8628,-0.6646 -1.1351,-1.1351l-0.4149 0 0 -1.55 0 -1.55z"/>
  <path class="fil0 str0" d="M-93.1 245.45l0.4149 0c0.2723,-0.4705 0.6646,-0.8628 1.1351,-1.1351l0 -0.4149 1.55 0 1.55 0 0 0.4149c0.4705,0.2723 0.8628,0.6646 1.1351,1.1351l0.4149 0 0 1.55 0 1.55 -0.4149 0c-0.2723,0.4705 -0.6646,0.8628 -1.1351,1.1351l0 0.4149 -1.55 0 -1.55 0 0 -0.4149c-0.4705,-0.2723 -0.8628,-0.6646 -1.1351,-1.1351l-0.4149 0 0 -1.55 0 -1.55z"/>
  <path class="fil0 str0" d="M-93.1 225.45l0.4149 0c0.2723,-0.4705 0.6646,-0.8628 1.1351,-1.1351l0 -0.4149 1.55 0 1.55 0 0 0.4149c0.4705,0.2723 0.8628,0.6646 1.1351,1.1351l0.4149 0 0 1.55 0 1.55 -0.4149 0c-0.2723,0.4705 -0.6646,0.8628 -1.1351,1.1351l0 0.4149 -1.55 0 -1.55 0 0 -0.4149c-0.4705,-0.2723 -0.8628,-0.6646 -1.1351,-1.1351l-0.4149 0 0 -1.55 0 -1.55z"/>
  <rect class="fil0 str1" x="-91.6" y="353.9" width="3.2" height="6.2"/>
  <rect class="fil0 str1" x="-91.6" y="333.9" width="3.2" height="6.2"/>
  <rect class="fil0 str1" x="-91.6" y="313.9" width="3.2" height="6.2"/>
  <rect class="fil0 str1" x="-91.6" y="293.9" width="3.2" height="6.2"/>
  <rect class="fil0 str1" x="-91.6" y="273.9" width="3.2" height="6.2"/>
  <rect class="fil0 str1" x="-91.6" y="253.9" width="3.2" height="6.2"/>
  <rect class="fil0 str1" x="-91.6" y="233.9" width="3.2" height="6.2"/>
  <path class="fil0 str0" d="M-73.1 365.45l0.4149 0c0.2723,-0.4705 0.6646,-0.8628 1.1351,-1.1351l0 -0.4149 1.55 0 1.55 0 0 0.4149c0.4705,0.2723 0.8628,0.6646 1.1351,1.1351l0.4149 0 0 1.55 0 1.55 -0.4149 0c-0.2723,0.4705 -0.6646,0.8628 -1.1351,1.1351l0 0.4149 -1.55 0 -1.55 0 0 -0.4149c-0.4705,-0.2723 -0.8628,-0.6646 -1.1351,-1.1351l-0.4149 0 0 -1.55 0 -1.55z"/>
  <path class="fil0 str0" d="M-73.1 345.45l0.4149 0c0.2723,-0.4705 0.6646,-0.8628 1.1351,-1.1351l0 -0.4149 1.55 0 1.55 0 0 0.4149c0.4705,0.2723 0.8628,0.6646 1.1351,1.1351l0.4149 0 0 1.55 0 1.55 -0.4149 0c-0.2723,0.4705 -0.6646,0.8628 -1.1351,1.1351l0 0.4149 -1.55 0 -1.55 0 0 -0.4149c-0.4705,-0.2723 -0.8628,-0.6646 -1.1351,-1.1351l-0.4149 0 0 -1.55 0 -1.55z"/>
  <path class="fil0 str0" d="M-73.1 325.45l0.4149 0c0.2723,-0.4705 0.6646,-0.8628 1.1351,-1.1351l0 -0.4149 1.55 0 1.55 0 0 0.4149c0.4705,0.2723 0.8628,0.6646 1.1351,1.1351l0.4149 0 0 1.55 0 1.55 -0.4149 0c-0.2723,0.4705 -0.6646,0.8628 -1.1351,1.1351l0 0.4149 -1.55 0 -1.55 0 0 -0.4149c-0.4705,-0.2723 -0.8628,-0.6646 -1.1351,-1.1351l-0.4149 0 0 -1.55 0 -1.55z"/>
  <path class="fil0 str0" d="M-73.1 305.45l0.4149 0c0.2723,-0.4705 0.6646,-0.8628 1.1351,-1.1351l0 -0.4149 1.55 0 1.55 0 0 0.4149c0.4705,0.2723 0.8628,0.6646 1.1351,1.1351l0.4149 0 0 1.55 0 1.55 -0.4149 0c-0.2723,0.4705 -0.6646,0.8628 -1.1351,1.1351l0 0.4149 -1.55 0 -1.55 0 0 -0.4149c-0.4705,-0.2723 -0.8628,-0.6646 -1.1351,-1.1351l-0.4149 0 0 -1.55 0 -1.55z"/>
  <path class="fil0 str0" d="M-73.1 285.45l0.4149 0c0.2723,-0.4705 0.6646,-0.8628 1.1351,-1.1351l0 -0.4149 1.55 0 1.55 0 0 0.4149c0.4705,0.2723 0.8628,0.6646 1.1351,1.1351l0.4149 0 0 1.55 0 1.55 -0.4149 0c-0.2723,0.4705 -0.6646,0.8628 -1.1351,1.1351l0 0.4149 -1.55 0 -1.55 0 0 -0.4149c-0.4705,-0.2723 -0.8628,-0.6646 -1.1351,-1.1351l-0.4149 0 0 -1.55 0 -1.55z"/>
  <path class="fil0 str0" d="M-73.1 265.45l0.4149 0c0.2723,-0.4705 0.6646,-0.8628 1.1351,-1.1351l0 -0.4149 1.55 0 1.55 0 0 0.4149c0.4705,0.2723 0.8628,0.6646 1.1351,1.1351l0.4149 0 0 1.55 0 1.55 -0.4149 0c-0.2723,0.4705 -0.6646,0.8628 -1.1351,1.1351l0 0.4149 -1.55 0 -1.55 0 0 -0.4149c-0.4705,-0.2723 -0.8628,-0.6646 -1.1351,-1.1351l-0.4149 0 0 -1.55 0 -1.55z"/>
  <path class="fil0 str0" d="M-73.1 245.45l0.4149 0c0.2723,-0.4705 0.6646,-0.8628 1.1351,-1.1351l0 -0.4149 1.55 0 1.55 0 0 0.4149c0.4705,0.2723 0.8628,0.6646 1.1351,1.1351l0.4149 0 0 1.55 0 1.55 -0.4149 0c-0.2723,0.4705 -0.6646,0.8628 -1.1351,1.1351l0 0.4149 -1.55 0 -1.55 0 0 -0.4149c-0.4705,-0.2723 -0.8628,-0.6646 -1.1351,-1.1351l-0.4149 0 0 -1.55 0 -1.55z"/>
  <path class="fil0 str0" d="M-73.1 225.45l0.4149 0c0.2723,-0.4705 0.6646,-0.8628 1.1351,-1.1351l0 -0.4149 1.55 0 1.55 0 0 0.4149c0.4705,0.2723 0.8628,0.6646 1.1351,1.1351l0.4149 0 0 1.55 0 1.55 -0.4149 0c-0.2723,0.4705 -0.6646,0.8628 -1.1351,1.1351l0 0.4149 -1.55 0 -1.55 0 0 -0.4149c-0.4705,-0.2723 -0.8628,-0.6646 -1.1351,-1.1351l-0.4149 0 0 -1.55 0 -1.55z"/>
  <rect class="fil0 str1" x="-71.6" y="353.9" width="3.2" height="6.2"/>
  <rect class="fil0 str1" x="-71.6" y="333.9" width="3.2" height="6.2"/>
  <rect class="fil0 str1" x="-71.6" y="313.9" width="3.2" height="6.2"/>
  <rect class="fil0 str1" x="-71.6" y="293.9" width="3.2" height="6.2"/>
  <rect class="fil0 str1" x="-71.6" y="273.9" width="3.2" height="6.2"/>
  <rect class="fil0 str1" x="-71.6" y="253.9" width="3.2" height="6.2"/>
  <rect class="fil0 str1" x="-71.6" y="233.9" width="3.2" height="6.2"/>
  <path class="fil0 str0" d="M-53.1 365.45l0.4149 0c0.2723,-0.4705 0.6646,-0.8628 1.1351,-1.1351l0 -0.4149 1.55 0 1.55 0 0 0.4149c0.4705,0.2723 0.8628,0.6646 1.1351,1.1351l0.4149 0 0 1.55 0 1.55 -0.4149 0c-0.2723,0.4705 -0.6646,0.8628 -1.1351,1.1351l0 0.4149 -1.55 0 -1.55 0 0 -0.4149c-0.4705,-0.2723 -0.8628,-0.6646 -1.1351,-1.1351l-0.4149 0 0 -1.55 0 -1.55z"/>
  <path class="fil0 str0" d="M-53.1 345.45l0.4149 0c0.2723,-0.4705 0.6646,-0.8628 1.1351,-1.1351l0 -0.4149 1.55 0 1.55 0 0 0.4149c0.4705,0.2723 0.8628,0.6646 1.1351,1.1351l0.4149 0 0 1.55 0 1.55 -0.4149 0c-0.2723,0.4705 -0.6646,0.8628 -1.1351,1.1351l0 0.4149 -1.55 0 -1.55 0 0 -0.4149c-0.4705,-0.2723 -0.8628,-0.6646 -1.1351,-1.1351l-0.4149 0 0 -1.55 0 -1.55z"/>
  <path class="fil0 str0" d="M-53.1 325.45l0.4149 0c0.2723,-0.4705 0.6646,-0.8628 1.1351,-1.1351l0 -0.4149 1.55 0 1.55 0 0 0.4149c0.4705,0.2723 0.8628,0.6646 1.1351,1.1351l0.4149 0 0 1.55 0 1.55 -0.4149 0c-0.2723,0.4705 -0.6646,0.8628 -1.1351,1.1351l0 0.4149 -1.55 0 -1.55 0 0 -0.4149c-0.4705,-0.2723 -0.8628,-0.6646 -1.1351,-1.1351l-0.4149 0 0 -1.55 0 -1.55z"/>
  <path class="fil0 str0" d="M-53.1 305.45l0.4149 0c0.2723,-0.4705 0.6646,-0.8628 1.1351,-1.1351l0 -0.4149 1.55 0 1.55 0 0 0.4149c0.4705,0.2723 0.8628,0.6646 1.1351,1.1351l0.4149 0 0 1.55 0 1.55 -0.4149 0c-0.2723,0.4705 -0.6646,0.8628 -1.1351,1.1351l0 0.4149 -1.55 0 -1.55 0 0 -0.4149c-0.4705,-0.2723 -0.8628,-0.6646 -1.1351,-1.1351l-0.4149 0 0 -1.55 0 -1.55z"/>
  <path class="fil0 str0" d="M-53.1 285.45l0.4149 0c0.2723,-0.4705 0.6646,-0.8628 1.1351,-1.1351l0 -0.4149 1.55 0 1.55 0 0 0.4149c0.4705,0.2723 0.8628,0.6646 1.1351,1.1351l0.4149 0 0 1.55 0 1.55 -0.4149 0c-0.2723,0.4705 -0.6646,0.8628 -1.1351,1.1351l0 0.4149 -1.55 0 -1.55 0 0 -0.4149c-0.4705,-0.2723 -0.8628,-0.6646 -1.1351,-1.1351l-0.4149 0 0 -1.55 0 -1.55z"/>
  <path class="fil0 str0" d="M-53.1 265.45l0.4149 0c0.2723,-0.4705 0.6646,-0.8628 1.1351,-1.1351l0 -0.4149 1.55 0 1.55 0 0 0.4149c0.4705,0.2723 0.8628,0.6646 1.1351,1.1351l0.4149 0 0 1.55 0 1.55 -0.4149 0c-0.2723,0.4705 -0.6646,0.8628 -1.1351,1.1351l0 0.4149 -1.55 0 -1.55 0 0 -0.4149c-0.4705,-0.2723 -0.8628,-0.6646 -1.1351,-1.1351l-0.4149 0 0 -1.55 0 -1.55z"/>
  <path class="fil0 str0" d="M-53.1 245.45l0.4149 0c0.2723,-0.4705 0.6646,-0.8628 1.1351,-1.1351l0 -0.4149 1.55 0 1.55 0 0 0.4149c0.4705,0.2723 0.8628,0.6646 1.1351,1.1351l0.4149 0 0 1.55 0 1.55 -0.4149 0c-0.2723,0.4705 -0.6646,0.8628 -1.1351,1.1351l0 0.4149 -1.55 0 -1.55 0 0 -0.4149c-0.4705,-0.2723 -0.8628,-0.6646 -1.1351,-1.1351l-0.4149 0 0 -1.55 0 -1.55z"/>
  <path class="fil0 str0" d="M-53.1 225.45l0.4149 0c0.2723,-0.4705 0.6646,-0.8628 1.1351,-1.1351l0 -0.4149 1.55 0 1.55 0 0 0.4149c0.4705,0.2723 0.8628,0.6646 1.1351,1.1351l0.4149 0 0 1.55 0 1.55 -0.4149 0c-0.2723,0.4705 -0.6646,0.8628 -1.1351,1.1351l0 0.4149 -1.55 0 -1.55 0 0 -0.4149c-0.4705,-0.2723 -0.8628,-0.6646 -1.1351,-1.1351l-0.4149 0 0 -1.55 0 -1.55z"/>
  <rect class="fil0 str1" x="-51.6" y="353.9" width="3.2" height="6.2"/>
  <rect class="fil0 str1" x="-51.6" y="333.9" width="3.2" height="6.2"/>
  <rect class="fil0 str1" x="-51.6" y="313.9" width="3.2" height="6.2"/>
  <rect class="fil0 str1" x="-51.6" y="293.9" width="3.2" height="6.2"/>
  <rect class="fil0 str1" x="-51.6" y="273.9" width="3.2" height="6.2"/>
  <rect class="fil0 str1" x="-51.6" y="253.9" width="3.2" height="6.2"/>
  <rect class="fil0 str1" x="-51.6" y="233.9" width="3.2" height="6.2"/>
  <path class="fil0 str0" d="M-33.1 365.45l0.4149 0c0.2723,-0.4705 0.6646,-0.8628 1.1351,-1.1351l0 -0.4149 1.55 0 1.55 0 0 0.4149c0.4705,0.2723 0.8628,0.6646 1.1351,1.1351l0.4149 0 0 1.55 0 1.55 -0.4149 0c-0.2723,0.4705 -0.6646,0.8628 -1.1351,1.1351l0 0.4149 -1.55 0 -1.55 0 0 -0.4149c-0.4705,-0.2723 -0.8628,-0.6646 -1.1351,-1.1351l-0.4149 0 0 -1.55 0 -1.55z"/>
  <path class="fil0 str0" d="M-33.1 345.45l0.4149 0c0.2723,-0.4705 0.6646,-0.8628 1.1351,-1.1351l0 -0.4149 1.55 0 1.55 0 0 0.4149c0.4705,0.2723 0.8628,0.6646 1.1351,1.1351l0.4149 0 0 1.55 0 1.55 -0.4149 0c-0.2723,0.4705 -0.6646,0.8628 -1.1351,1.1351l0 0.4149 -1.55 0 -1.55 0 0 -0.4149c-0.4705,-0.2723 -0.8628,-0.6646 -1.1351,-1.1351l-0.4149 0 0 -1.55 0 -1.55z"/>
  <path class="fil0 str0" d="M-33.1 325.45l0.4149 0c0.2723,-0.4705 0.6646,-0.8628 1.1351,-1.1351l0 -0.4149 1.55 0 1.55 0 0 0.4149c0.4705,0.2723 0.8628,0.6646 1.1351,1.1351l0.4149 0 0 1.55 0 1.55 -0.4149 0c-0.2723,0.4705 -0.6646,0.8628 -1.1351,1.1351l0 0.4149 -1.55 0 -1.55 0 0 -0.4149c-0.4705,-0.2723 -0.8628,-0.6646 -1.1351,-1.1351l-0.4149 0 0 -1.55 0 -1.55z"/>
  <path class="fil0 str0" d="M-33.1 305.45l0.4149 0c0.2723,-0.4705 0.6646,-0.8628 1.1351,-1.1351l0 -0.4149 1.55 0 1.55 0 0 0.4149c0.4705,0.2723 0.8628,0.6646 1.1351,1.1351l0.4149 0 0 1.55 0 1.55 -0.4149 0c-0.2723,0.4705 -0.6646,0.8628 -1.1351,1.1351l0 0.4149 -1.55 0 -1.55 0 0 -0.4149c-0.4705,-0.2723 -0.8628,-0.6646 -1.1351,-1.1351l-0.4149 0 0 -1.55 0 -1.55z"/>
  <path class="fil0 str0" d="M-33.1 285.45l0.4149 0c0.2723,-0.4705 0.6646,-0.8628 1.1351,-1.1351l0 -0.4149 1.55 0 1.55 0 0 0.4149c0.4705,0.2723 0.8628,0.6646 1.1351,1.1351l0.4149 0 0 1.55 0 1.55 -0.4149 0c-0.2723,0.4705 -0.6646,0.8628 -1.1351,1.1351l0 0.4149 -1.55 0 -1.55 0 0 -0.4149c-0.4705,-0.2723 -0.8628,-0.6646 -1.1351,-1.1351l-0.4149 0 0 -1.55 0 -1.55z"/>
  <path class="fil0 str0" d="M-33.1 265.45l0.4149 0c0.2723,-0.4705 0.6646,-0.8628 1.1351,-1.1351l0 -0.4149 1.55 0 1.55 0 0 0.4149c0.4705,0.2723 0.8628,0.6646 1.1351,1.1351l0.4149 0 0 1.55 0 1.55 -0.4149 0c-0.2723,0.4705 -0.6646,0.8628 -1.1351,1.1351l0 0.4149 -1.55 0 -1.55 0 0 -0.4149c-0.4705,-0.2723 -0.8628,-0.6646 -1.1351,-1.1351l-0.4149 0 0 -1.55 0 -1.55z"/>
  <path class="fil0 str0" d="M-33.1 245.45l0.4149 0c0.2723,-0.4705 0.6646,-0.8628 1.1351,-1.1351l0 -0.4149 1.55 0 1.55 0 0 0.4149c0.4705,0.2723 0.8628,0.6646 1.1351,1.1351l0.4149 0 0 1.55 0 1.55 -0.4149 0c-0.2723,0.4705 -0.6646,0.8628 -1.1351,1.1351l0 0.4149 -1.55 0 -1.55 0 0 -0.4149c-0.4705,-0.2723 -0.8628,-0.6646 -1.1351,-1.1351l-0.4149 0 0 -1.55 0 -1.55z"/>
  <path class="fil0 str0" d="M-33.1 225.45l0.4149 0c0.2723,-0.4705 0.6646,-0.8628 1.1351,-1.1351l0 -0.4149 1.55 0 1.55 0 0 0.4149c0.4705,0.2723 0.8628,0.6646 1.1351,1.1351l0.4149 0 0 1.55 0 1.55 -0.4149 0c-0.2723,0.4705 -0.6646,0.8628 -1.1351,1.1351l0 0.4149 -1.55 0 -1.55 0 0 -0.4149c-0.4705,-0.2723 -0.8628,-0.6646 -1.1351,-1.1351l-0.4149 0 0 -1.55 0 -1.55z"/>
  <rect class="fil0 str1" x="-31.6" y="353.9" width="3.2" height="6.2"/>
  <rect class="fil0 str1" x="-31.6" y="333.9" width="3.2" height="6.2"/>
  <rect class="fil0 str1" x="-31.6" y="313.9" width="3.2" height="6.2"/>
  <rect class="fil0 str1" x="-31.6" y="293.9" width="3.2" height="6.2"/>
  <rect class="fil0 str1" x="-31.6" y="273.9" width="3.2" height="6.2"/>
  <rect class="fil0 str1" x="-31.6" y="253.9" width="3.2" height="6.2"/>
  <rect class="fil0 str1" x="-31.6" y="233.9" width="3.2" height="6.2"/>
  <path class="fil0 str0" d="M-13.1 365.45l0.4149 0c0.2723,-0.4705 0.6646,-0.8628 1.1351,-1.1351l0 -0.4149 1.55 0 1.55 0 0 0.4149c0.4705,0.2723 0.8628,0.6646 1.1351,1.1351l0.4149 0 0 1.55 0 1.55 -0.4149 0c-0.2723,0.4705 -0.6646,0.8628 -1.1351,1.1351l0 0.4149 -1.55 0 -1.55 0 0 -0.4149c-0.4705,-0.2723 -0.8628,-0.6646 -1.1351,-1.1351l-0.4149 0 0 -1.55 0 -1.55z"/>
  <path class="fil0 str0" d="M-13.1 345.45l0.4149 0c0.2723,-0.4705 0.6646,-0.8628 1.1351,-1.1351l0 -0.4149 1.55 0 1.55 0 0 0.4149c0.4705,0.2723 0.8628,0.6646 1.1351,1.1351l0.4149 0 0 1.55 0 1.55 -0.4149 0c-0.2723,0.4705 -0.6646,0.8628 -1.1351,1.1351l0 0.4149 -1.55 0 -1.55 0 0 -0.4149c-0.4705,-0.2723 -0.8628,-0.6646 -1.1351,-1.1351l-0.4149 0 0 -1.55 0 -1.55z"/>
  <path class="fil0 str0" d="M-13.1 325.45l0.4149 0c0.2723,-0.4705 0.6646,-0.8628 1.1351,-1.1351l0 -0.4149 1.55 0 1.55 0 0 0.4149c0.4705,0.2723 0.8628,0.6646 1.1351,1.1351l0.4149 0 0 1.55 0 1.55 -0.4149 0c-0.2723,0.4705 -0.6646,0.8628 -1.1351,1.1351l0 0.4149 -1.55 0 -1.55 0 0 -0.4149c-0.4705,-0.2723 -0.8628,-0.6646 -1.1351,-1.1351l-0.4149 0 0 -1.55 0 -1.55z"/>
  <path class="fil0 str0" d="M-13.1 305.45l0.4149 0c0.2723,-0.4705 0.6646,-0.8628 1.1351,-1.1351l0 -0.4149 1.55 0 1.55 0 0 0.4149c0.4705,0.2723 0.8628,0.6646 1.1351,1.1351l0.4149 0 0 1.55 0 1.55 -0.4149 0c-0.2723,0.4705 -0.6646,0.8628 -1.1351,1.1351l0 0.4149 -1.55 0 -1.55 0 0 -0.4149c-0.4705,-0.2723 -0.8628,-0.6646 -1.1351,-1.1351l-0.4149 0 0 -1.55 0 -1.55z"/>
  <path class="fil0 str0" d="M-13.1 285.45l0.4149 0c0.2723,-0.4705 0.6646,-0.8628 1.1351,-1.1351l0 -0.4149 1.55 0 1.55 0 0 0.4149c0.4705,0.2723 0.8628,0.6646 1.1351,1.1351l0.4149 0 0 1.55 0 1.55 -0.4149 0c-0.2723,0.4705 -0.6646,0.8628 -1.1351,1.1351l0 0.4149 -1.55 0 -1.55 0 0 -0.4149c-0.4705,-0.2723 -0.8628,-0.6646 -1.1351,-1.1351l-0.4149 0 0 -1.55 0 -1.55z"/>
  <path class="fil0 str0" d="M-13.1 265.45l0.4149 0c0.2723,-0.4705 0.6646,-0.8628 1.1351,-1.1351l0 -0.4149 1.55 0 1.55 0 0 0.4149c0.4705,0.2723 0.8628,0.6646 1.1351,1.1351l0.4149 0 0 1.55 0 1.55 -0.4149 0c-0.2723,0.4705 -0.6646,0.8628 -1.1351,1.1351l0 0.4149 -1.55 0 -1.55 0 0 -0.4149c-0.4705,-0.2723 -0.8628,-0.6646 -1.1351,-1.1351l-0.4149 0 0 -1.55 0 -1.55z"/>
  <path class="fil0 str0" d="M-13.1 245.45l0.4149 0c0.2723,-0.4705 0.6646,-0.8628 1.1351,-1.1351l0 -0.4149 1.55 0 1.55 0 0 0.4149c0.4705,0.2723 0.8628,0.6646 1.1351,1.1351l0.4149 0 0 1.55 0 1.55 -0.4149 0c-0.2723,0.4705 -0.6646,0.8628 -1.1351,1.1351l0 0.4149 -1.55 0 -1.55 0 0 -0.4149c-0.4705,-0.2723 -0.8628,-0.6646 -1.1351,-1.1351l-0.4149 0 0 -1.55 0 -1.55z"/>
  <path class="fil0 str0" d="M-13.1 225.45l0.4149 0c0.2723,-0.4705 0.6646,-0.8628 1.1351,-1.1351l0 -0.4149 1.55 0 1.55 0 0 0.4149c0.4705,0.2723 0.8628,0.6646 1.1351,1.1351l0.4149 0 0 1.55 0 1.55 -0.4149 0c-0.2723,0.4705 -0.6646,0.8628 -1.1351,1.1351l0 0.4149 -1.55 0 -1.55 0 0 -0.4149c-0.4705,-0.2723 -0.8628,-0.6646 -1.1351,-1.1351l-0.4149 0 0 -1.55 0 -1.55z"/>
  <rect class="fil0 str1" x="-11.6" y="353.9" width="3.2" height="6.2"/>
  <rect class="fil0 str1" x="-11.6" y="333.9" width="3.2" height="6.2"/>
  <rect class="fil0 str1" x="-11.6" y="313.9" width="3.2" height="6.2"/>
  <rect class="fil0 str1" x="-11.6" y="293.9" width="3.2" height="6.2"/>
  <rect class="fil0 str1" x="-11.6" y="273.9" width="3.2" height="6.2"/>
  <rect class="fil0 str1" x="-11.6" y="253.9" width="3.2" height="6.2"/>
  <rect class="fil0 str1" x="-11.6" y="233.9" width="3.2" height="6.2"/>
  <path class="fil0 str0" d="M6.9 365.45l0.4149 0c0.2723,-0.4705 0.6646,-0.8628 1.1351,-1.1351l0 -0.4149 1.55 0 1.55 0 0 0.4149c0.4705,0.2723 0.8628,0.6646 1.1351,1.1351l0.4149 0 0 1.55 0 1.55 -0.4149 0c-0.2723,0.4705 -0.6646,0.8628 -1.1351,1.1351l0 0.4149 -1.55 0 -1.55 0 0 -0.4149c-0.4705,-0.2723 -0.8628,-0.6646 -1.1351,-1.1351l-0.4149 0 0 -1.55 0 -1.55z"/>
  <path class="fil0 str0" d="M6.9 345.45l0.4149 0c0.2723,-0.4705 0.6646,-0.8628 1.1351,-1.1351l0 -0.4149 1.55 0 1.55 0 0 0.4149c0.4705,0.2723 0.8628,0.6646 1.1351,1.1351l0.4149 0 0 1.55 0 1.55 -0.4149 0c-0.2723,0.4705 -0.6646,0.8628 -1.1351,1.1351l0 0.4149 -1.55 0 -1.55 0 0 -0.4149c-0.4705,-0.2723 -0.8628,-0.6646 -1.1351,-1.1351l-0.4149 0 0 -1.55 0 -1.55z"/>
  <path class="fil0 str0" d="M6.9 325.45l0.4149 0c0.2723,-0.4705 0.6646,-0.8628 1.1351,-1.1351l0 -0.4149 1.55 0 1.55 0 0 0.4149c0.4705,0.2723 0.8628,0.6646 1.1351,1.1351l0.4149 0 0 1.55 0 1.55 -0.4149 0c-0.2723,0.4705 -0.6646,0.8628 -1.1351,1.1351l0 0.4149 -1.55 0 -1.55 0 0 -0.4149c-0.4705,-0.2723 -0.8628,-0.6646 -1.1351,-1.1351l-0.4149 0 0 -1.55 0 -1.55z"/>
  <path class="fil0 str0" d="M6.9 305.45l0.4149 0c0.2723,-0.4705 0.6646,-0.8628 1.1351,-1.1351l0 -0.4149 1.55 0 1.55 0 0 0.4149c0.4705,0.2723 0.8628,0.6646 1.1351,1.1351l0.4149 0 0 1.55 0 1.55 -0.4149 0c-0.2723,0.4705 -0.6646,0.8628 -1.1351,1.1351l0 0.4149 -1.55 0 -1.55 0 0 -0.4149c-0.4705,-0.2723 -0.8628,-0.6646 -1.1351,-1.1351l-0.4149 0 0 -1.55 0 -1.55z"/>
  <path class="fil0 str0" d="M6.9 285.45l0.4149 0c0.2723,-0.4705 0.6646,-0.8628 1.1351,-1.1351l0 -0.4149 1.55 0 1.55 0 0 0.4149c0.4705,0.2723 0.8628,0.6646 1.1351,1.1351l0.4149 0 0 1.55 0 1.55 -0.4149 0c-0.2723,0.4705 -0.6646,0.8628 -1.1351,1.1351l0 0.4149 -1.55 0 -1.55 0 0 -0.4149c-0.4705,-0.2723 -0.8628,-0.6646 -1.1351,-1.1351l-0.4149 0 0 -1.55 0 -1.55z"/>
  <path class="fil0 str0" d="M6.9 265.45l0.4149 0c0.2723,-0.4705 0.6646,-0.8628 1.1351,-1.1351l0 -0.4149 1.55 0 1.55 0 0 0.4149c0.4705,0.2723 0.8628,0.6646 1.1351,1.1351l0.4149 0 0 1.55 0 1.55 -0.4149 0c-0.2723,0.4705 -0.6646,0.8628 -1.1351,1.1351l0 0.4149 -1.55 0 -1.55 0 0 -0.4149c-0.4705,-0.2723 -0.8628,-0.6646 -1.1351,-1.1351l-0.4149 0 0 -1.55 0 -1.55z"/>
  <path class="fil0 str0" d="M6.9 245.45l0.4149 0c0.2723,-0.4705 0.6646,-0.8628 1.1351,-1.1351l0 -0.4149 1.55 0 1.55 0 0 0.4149c0.4705,0.2723 0.8628,0.6646 1.1351,1.1351l0.4149 0 0 1.55 0 1.55 -0.4149 0c-0.2723,0.4705 -0.6646,0.8628 -1.1351,1.1351l0 0.4149 -1.55 0 -1.55 0 0 -0.4149c-0.4705,-0.2723 -0.8628,-0.6646 -1.1351,-1.1351l-0.4149 0 0 -1.55 0 -1.55z"/>
  <path class="fil0 str0" d="M6.9 225.45l0.4149 0c0.2723,-0.4705 0.6646,-0.8628 1.1351,-1.1351l0 -0.4149 1.55 0 1.55 0 0 0.4149c0.4705,0.2723 0.8628,0.6646 1.1351,1.1351l0.4149 0 0 1.55 0 1.55 -0.4149 0c-0.2723,0.4705 -0.6646,0.8628 -1.1351,1.1351l0 0.4149 -1.55 0 -1.55 0 0 -0.4149c-0.4705,-0.2723 -0.8628,-0.6646 -1.1351,-1.1351l-0.4149 0 0 -1.55 0 -1.55z"/>
  <rect class="fil0 str1" x="8.4" y="353.9" width="3.2" height="6.2"/>
  <rect class="fil0 str1" x="8.4" y="333.9" width="3.2" height="6.2"/>
  <rect class="fil0 str1" x="8.4" y="313.9" width="3.2" height="6.2"/>
  <rect class="fil0 str1" x="8.4" y="293.9" width="3.2" height="6.2"/>
  <rect class="fil0 str1" x="8.4" y="273.9" width="3.2" height="6.2"/>
  <rect class="fil0 str1" x="8.4" y="253.9" width="3.2" height="6.2"/>
  <rect class="fil0 str1" x="8.4" y="233.9" width="3.2" height="6.2"/>
  <path class="fil0 str0" d="M26.9 365.45l0.4149 0c0.2723,-0.4705 0.6646,-0.8628 1.1351,-1.1351l0 -0.4149 1.55 0 1.55 0 0 0.4149c0.4705,0.2723 0.8628,0.6646 1.1351,1.1351l0.4149 0 0 1.55 0 1.55 -0.4149 0c-0.2723,0.4705 -0.6646,0.8628 -1.1351,1.1351l0 0.4149 -1.55 0 -1.55 0 0 -0.4149c-0.4705,-0.2723 -0.8628,-0.6646 -1.1351,-1.1351l-0.4149 0 0 -1.55 0 -1.55z"/>
  <path class="fil0 str0" d="M26.9 345.45l0.4149 0c0.2723,-0.4705 0.6646,-0.8628 1.1351,-1.1351l0 -0.4149 1.55 0 1.55 0 0 0.4149c0.4705,0.2723 0.8628,0.6646 1.1351,1.1351l0.4149 0 0 1.55 0 1.55 -0.4149 0c-0.2723,0.4705 -0.6646,0.8628 -1.1351,1.1351l0 0.4149 -1.55 0 -1.55 0 0 -0.4149c-0.4705,-0.2723 -0.8628,-0.6646 -1.1351,-1.1351l-0.4149 0 0 -1.55 0 -1.55z"/>
  <path class="fil0 str0" d="M26.9 325.45l0.4149 0c0.2723,-0.4705 0.6646,-0.8628 1.1351,-1.1351l0 -0.4149 1.55 0 1.55 0 0 0.4149c0.4705,0.2723 0.8628,0.6646 1.1351,1.1351l0.4149 0 0 1.55 0 1.55 -0.4149 0c-0.2723,0.4705 -0.6646,0.8628 -1.1351,1.1351l0 0.4149 -1.55 0 -1.55 0 0 -0.4149c-0.4705,-0.2723 -0.8628,-0.6646 -1.1351,-1.1351l-0.4149 0 0 -1.55 0 -1.55z"/>
  <path class="fil0 str0" d="M26.9 305.45l0.4149 0c0.2723,-0.4705 0.6646,-0.8628 1.1351,-1.1351l0 -0.4149 1.55 0 1.55 0 0 0.4149c0.4705,0.2723 0.8628,0.6646 1.1351,1.1351l0.4149 0 0 1.55 0 1.55 -0.4149 0c-0.2723,0.4705 -0.6646,0.8628 -1.1351,1.1351l0 0.4149 -1.55 0 -1.55 0 0 -0.4149c-0.4705,-0.2723 -0.8628,-0.6646 -1.1351,-1.1351l-0.4149 0 0 -1.55 0 -1.55z"/>
  <path class="fil0 str0" d="M26.9 285.45l0.4149 0c0.2723,-0.4705 0.6646,-0.8628 1.1351,-1.1351l0 -0.4149 1.55 0 1.55 0 0 0.4149c0.4705,0.2723 0.8628,0.6646 1.1351,1.1351l0.4149 0 0 1.55 0 1.55 -0.4149 0c-0.2723,0.4705 -0.6646,0.8628 -1.1351,1.1351l0 0.4149 -1.55 0 -1.55 0 0 -0.4149c-0.4705,-0.2723 -0.8628,-0.6646 -1.1351,-1.1351l-0.4149 0 0 -1.55 0 -1.55z"/>
  <path class="fil0 str0" d="M26.9 265.45l0.4149 0c0.2723,-0.4705 0.6646,-0.8628 1.1351,-1.1351l0 -0.4149 1.55 0 1.55 0 0 0.4149c0.4705,0.2723 0.8628,0.6646 1.1351,1.1351l0.4149 0 0 1.55 0 1.55 -0.4149 0c-0.2723,0.4705 -0.6646,0.8628 -1.1351,1.1351l0 0.4149 -1.55 0 -1.55 0 0 -0.4149c-0.4705,-0.2723 -0.8628,-0.6646 -1.1351,-1.1351l-0.4149 0 0 -1.55 0 -1.55z"/>
  <path class="fil0 str0" d="M26.9 245.45l0.4149 0c0.2723,-0.4705 0.6646,-0.8628 1.1351,-1.1351l0 -0.4149 1.55 0 1.55 0 0 0.4149c0.4705,0.2723 0.8628,0.6646 1.1351,1.1351l0.4149 0 0 1.55 0 1.55 -0.4149 0c-0.2723,0.4705 -0.6646,0.8628 -1.1351,1.1351l0 0.4149 -1.55 0 -1.55 0 0 -0.4149c-0.4705,-0.2723 -0.8628,-0.6646 -1.1351,-1.1351l-0.4149 0 0 -1.55 0 -1.55z"/>
  <path class="fil0 str0" d="M26.9 225.45l0.4149 0c0.2723,-0.4705 0.6646,-0.8628 1.1351,-1.1351l0 -0.4149 1.55 0 1.55 0 0 0.4149c0.4705,0.2723 0.8628,0.6646 1.1351,1.1351l0.4149 0 0 1.55 0 1.55 -0.4149 0c-0.2723,0.4705 -0.6646,0.8628 -1.1351,1.1351l0 0.4149 -1.55 0 -1.55 0 0 -0.4149c-0.4705,-0.2723 -0.8628,-0.6646 -1.1351,-1.1351l-0.4149 0 0 -1.55 0 -1.55z"/>
  <rect class="fil0 str1" x="28.4" y="353.9" width="3.2" height="6.2"/>
  <rect class="fil0 str1" x="28.4" y="333.9" width="3.2" height="6.2"/>
  <rect class="fil0 str1" x="28.4" y="313.9" width="3.2" height="6.2"/>
  <rect class="fil0 str1" x="28.4" y="293.9" width="3.2" height="6.2"/>
  <rect class="fil0 str1" x="28.4" y="273.9" width="3.2" height="6.2"/>
  <rect class="fil0 str1" x="28.4" y="253.9" width="3.2" height="6.2"/>
  <rect class="fil0 str1" x="28.4" y="233.9" width="3.2" height="6.2"/>
  <path class="fil0 str0" d="M46.9 365.45l0.4149 0c0.2723,-0.4705 0.6646,-0.8628 1.1351,-1.1351l0 -0.4149 1.55 0 1.55 0 0 0.4149c0.4705,0.2723 0.8628,0.6646 1.1351,1.1351l0.4149 0 0 1.55 0 1.55 -0.4149 0c-0.2723,0.4705 -0.6646,0.8628 -1.1351,1.1351l0 0.4149 -1.55 0 -1.55 0 0 -0.4149c-0.4705,-0.2723 -0.8628,-0.6646 -1.1351,-1.1351l-0.4149 0 0 -1.55 0 -1.55z"/>
  <path class="fil0 str0" d="M46.9 345.45l0.4149 0c0.2723,-0.4705 0.6646,-0.8628 1.1351,-1.1351l0 -0.4149 1.55 0 1.55 0 0 0.4149c0.4705,0.2723 0.8628,0.6646 1.1351,1.1351l0.4149 0 0 1.55 0 1.55 -0.4149 0c-0.2723,0.4705 -0.6646,0.8628 -1.1351,1.1351l0 0.4149 -1.55 0 -1.55 0 0 -0.4149c-0.4705,-0.2723 -0.8628,-0.6646 -1.1351,-1.1351l-0.4149 0 0 -1.55 0 -1.55z"/>
  <path class="fil0 str0" d="M46.9 325.45l0.4149 0c0.2723,-0.4705 0.6646,-0.8628 1.1351,-1.1351l0 -0.4149 1.55 0 1.55 0 0 0.4149c0.4705,0.2723 0.8628,0.6646 1.1351,1.1351l0.4149 0 0 1.55 0 1.55 -0.4149 0c-0.2723,0.4705 -0.6646,0.8628 -1.1351,1.1351l0 0.4149 -1.55 0 -1.55 0 0 -0.4149c-0.4705,-0.2723 -0.8628,-0.6646 -1.1351,-1.1351l-0.4149 0 0 -1.55 0 -1.55z"/>
  <path class="fil0 str0" d="M46.9 305.45l0.4149 0c0.2723,-0.4705 0.6646,-0.8628 1.1351,-1.1351l0 -0.4149 1.55 0 1.55 0 0 0.4149c0.4705,0.2723 0.8628,0.6646 1.1351,1.1351l0.4149 0 0 1.55 0 1.55 -0.4149 0c-0.2723,0.4705 -0.6646,0.8628 -1.1351,1.1351l0 0.4149 -1.55 0 -1.55 0 0 -0.4149c-0.4705,-0.2723 -0.8628,-0.6646 -1.1351,-1.1351l-0.4149 0 0 -1.55 0 -1.55z"/>
  <path class="fil0 str0" d="M46.9 285.45l0.4149 0c0.2723,-0.4705 0.6646,-0.8628 1.1351,-1.1351l0 -0.4149 1.55 0 1.55 0 0 0.4149c0.4705,0.2723 0.8628,0.6646 1.1351,1.1351l0.4149 0 0 1.55 0 1.55 -0.4149 0c-0.2723,0.4705 -0.6646,0.8628 -1.1351,1.1351l0 0.4149 -1.55 0 -1.55 0 0 -0.4149c-0.4705,-0.2723 -0.8628,-0.6646 -1.1351,-1.1351l-0.4149 0 0 -1.55 0 -1.55z"/>
  <path class="fil0 str0" d="M46.9 265.45l0.4149 0c0.2723,-0.4705 0.6646,-0.8628 1.1351,-1.1351l0 -0.4149 1.55 0 1.55 0 0 0.4149c0.4705,0.2723 0.8628,0.6646 1.1351,1.1351l0.4149 0 0 1.55 0 1.55 -0.4149 0c-0.2723,0.4705 -0.6646,0.8628 -1.1351,1.1351l0 0.4149 -1.55 0 -1.55 0 0 -0.4149c-0.4705,-0.2723 -0.8628,-0.6646 -1.1351,-1.1351l-0.4149 0 0 -1.55 0 -1.55z"/>
  <path class="fil0 str0" d="M46.9 245.45l0.4149 0c0.2723,-0.4705 0.6646,-0.8628 1.1351,-1.1351l0 -0.4149 1.55 0 1.55 0 0 0.4149c0.4705,0.2723 0.8628,0.6646 1.1351,1.1351l0.4149 0 0 1.55 0 1.55 -0.4149 0c-0.2723,0.4705 -0.6646,0.8628 -1.1351,1.1351l0 0.4149 -1.55 0 -1.55 0 0 -0.4149c-0.4705,-0.2723 -0.8628,-0.6646 -1.1351,-1.1351l-0.4149 0 0 -1.55 0 -1.55z"/>
  <path class="fil0 str0" d="M46.9 225.45l0.4149 0c0.2723,-0.4705 0.6646,-0.8628 1.1351,-1.1351l0 -0.4149 1.55 0 1.55 0 0 0.4149c0.4705,0.2723 0.8628,0.6646 1.1351,1.1351l0.4149 0 0 1.55 0 1.55 -0.4149 0c-0.2723,0.4705 -0.6646,0.8628 -1.1351,1.1351l0 0.4149 -1.55 0 -1.55 0 0 -0.4149c-0.4705,-0.2723 -0.8628,-0.6646 -1.1351,-1.1351l-0.4149 0 0 -1.55 0 -1.55z"/>
  <rect class="fil0 str1" x="48.4" y="353.9" width="3.2" height="6.2"/>
  <rect class="fil0 str1" x="48.4" y="333.9" width="3.2" height="6.2"/>
  <rect class="fil0 str1" x="48.4" y="313.9" width="3.2" height="6.2"/>
  <rect class="fil0 str1" x="48.4" y="293.9" width="3.2" height="6.2"/>
  <rect class="fil0 str1" x="48.4" y="273.9" width="3.2" height="6.2"/>
  <rect class="fil0 str1" x="48.4" y="253.9" width="3.2" height="6.2"/>
  <rect class="fil0 str1" x="48.4" y="233.9" width="3.2" height="6.2"/>
  <path class="fil0 str0" d="M66.9 365.45l0.4149 0c0.2723,-0.4705 0.6646,-0.8628 1.1351,-1.1351l0 -0.4149 1.55 0 1.55 0 0 0.4149c0.4705,0.2723 0.8628,0.6646 1.1351,1.1351l0.4149 0 0 1.55 0 1.55 -0.4149 0c-0.2723,0.4705 -0.6646,0.8628 -1.1351,1.1351l0 0.4149 -1.55 0 -1.55 0 0 -0.4149c-0.4705,-0.2723 -0.8628,-0.6646 -1.1351,-1.1351l-0.4149 0 0 -1.55 0 -1.55z"/>
  <path class="fil0 str0" d="M66.9 345.45l0.4149 0c0.2723,-0.4705 0.6646,-0.8628 1.1351,-1.1351l0 -0.4149 1.55 0 1.55 0 0 0.4149c0.4705,0.2723 0.8628,0.6646 1.1351,1.1351l0.4149 0 0 1.55 0 1.55 -0.4149 0c-0.2723,0.4705 -0.6646,0.8628 -1.1351,1.1351l0 0.4149 -1.55 0 -1.55 0 0 -0.4149c-0.4705,-0.2723 -0.8628,-0.6646 -1.1351,-1.1351l-0.4149 0 0 -1.55 0 -1.55z"/>
  <path class="fil0 str0" d="M66.9 325.45l0.4149 0c0.2723,-0.4705 0.6646,-0.8628 1.1351,-1.1351l0 -0.4149 1.55 0 1.55 0 0 0.4149c0.4705,0.2723 0.8628,0.6646 1.1351,1.1351l0.4149 0 0 1.55 0 1.55 -0.4149 0c-0.2723,0.4705 -0.6646,0.8628 -1.1351,1.1351l0 0.4149 -1.55 0 -1.55 0 0 -0.4149c-0.4705,-0.2723 -0.8628,-0.6646 -1.1351,-1.1351l-0.4149 0 0 -1.55 0 -1.55z"/>
  <path class="fil0 str0" d="M66.9 305.45l0.4149 0c0.2723,-0.4705 0.6646,-0.8628 1.1351,-1.1351l0 -0.4149 1.55 0 1.55 0 0 0.4149c0.4705,0.2723 0.8628,0.6646 1.1351,1.1351l0.4149 0 0 1.55 0 1.55 -0.4149 0c-0.2723,0.4705 -0.6646,0.8628 -1.1351,1.1351l0 0.4149 -1.55 0 -1.55 0 0 -0.4149c-0.4705,-0.2723 -0.8628,-0.6646 -1.1351,-1.1351l-0.4149 0 0 -1.55 0 -1.55z"/>
  <path class="fil0 str0" d="M66.9 285.45l0.4149 0c0.2723,-0.4705 0.6646,-0.8628 1.1351,-1.1351l0 -0.4149 1.55 0 1.55 0 0 0.4149c0.4705,0.2723 0.8628,0.6646 1.1351,1.1351l0.4149 0 0 1.55 0 1.55 -0.4149 0c-0.2723,0.4705 -0.6646,0.8628 -1.1351,1.1351l0 0.4149 -1.55 0 -1.55 0 0 -0.4149c-0.4705,-0.2723 -0.8628,-0.6646 -1.1351,-1.1351l-0.4149 0 0 -1.55 0 -1.55z"/>
  <path class="fil0 str0" d="M66.9 265.45l0.4149 0c0.2723,-0.4705 0.6646,-0.8628 1.1351,-1.1351l0 -0.4149 1.55 0 1.55 0 0 0.4149c0.4705,0.2723 0.8628,0.6646 1.1351,1.1351l0.4149 0 0 1.55 0 1.55 -0.4149 0c-0.2723,0.4705 -0.6646,0.8628 -1.1351,1.1351l0 0.4149 -1.55 0 -1.55 0 0 -0.4149c-0.4705,-0.2723 -0.8628,-0.6646 -1.1351,-1.1351l-0.4149 0 0 -1.55 0 -1.55z"/>
  <path class="fil0 str0" d="M66.9 245.45l0.4149 0c0.2723,-0.4705 0.6646,-0.8628 1.1351,-1.1351l0 -0.4149 1.55 0 1.55 0 0 0.4149c0.4705,0.2723 0.8628,0.6646 1.1351,1.1351l0.4149 0 0 1.55 0 1.55 -0.4149 0c-0.2723,0.4705 -0.6646,0.8628 -1.1351,1.1351l0 0.4149 -1.55 0 -1.55 0 0 -0.4149c-0.4705,-0.2723 -0.8628,-0.6646 -1.1351,-1.1351l-0.4149 0 0 -1.55 0 -1.55z"/>
  <path class="fil0 str0" d="M66.9 225.45l0.4149 0c0.2723,-0.4705 0.6646,-0.8628 1.1351,-1.1351l0 -0.4149 1.55 0 1.55 0 0 0.4149c0.4705,0.2723 0.8628,0.6646 1.1351,1.1351l0.4149 0 0 1.55 0 1.55 -0.4149 0c-0.2723,0.4705 -0.6646,0.8628 -1.1351,1.1351l0 0.4149 -1.55 0 -1.55 0 0 -0.4149c-0.4705,-0.2723 -0.8628,-0.6646 -1.1351,-1.1351l-0.4149 0 0 -1.55 0 -1.55z"/>
  <rect class="fil0 str1" x="68.4" y="353.9" width="3.2" height="6.2"/>
  <rect class="fil0 str1" x="68.4" y="333.9" width="3.2" height="6.2"/>
  <rect class="fil0 str1" x="68.4" y="313.9" width="3.2" height="6.2"/>
  <rect class="fil0 str1" x="68.4" y="293.9" width="3.2" height="6.2"/>
  <rect class="fil0 str1" x="68.4" y="273.9" width="3.2" height="6.2"/>
  <rect class="fil0 str1" x="68.4" y="253.9" width="3.2" height="6.2"/>
  <rect class="fil0 str1" x="68.4" y="233.9" width="3.2" height="6.2"/>
  <path class="fil0 str0" d="M86.9 365.45l0.4149 0c0.2723,-0.4705 0.6646,-0.8628 1.1351,-1.1351l0 -0.4149 1.55 0 1.55 0 0 0.4149c0.4705,0.2723 0.8628,0.6646 1.1351,1.1351l0.4149 0 0 1.55 0 1.55 -0.4149 0c-0.2723,0.4705 -0.6646,0.8628 -1.1351,1.1351l0 0.4149 -1.55 0 -1.55 0 0 -0.4149c-0.4705,-0.2723 -0.8628,-0.6646 -1.1351,-1.1351l-0.4149 0 0 -1.55 0 -1.55z"/>
  <path class="fil0 str0" d="M86.9 345.45l0.4149 0c0.2723,-0.4705 0.6646,-0.8628 1.1351,-1.1351l0 -0.4149 1.55 0 1.55 0 0 0.4149c0.4705,0.2723 0.8628,0.6646 1.1351,1.1351l0.4149 0 0 1.55 0 1.55 -0.4149 0c-0.2723,0.4705 -0.6646,0.8628 -1.1351,1.1351l0 0.4149 -1.55 0 -1.55 0 0 -0.4149c-0.4705,-0.2723 -0.8628,-0.6646 -1.1351,-1.1351l-0.4149 0 0 -1.55 0 -1.55z"/>
  <path class="fil0 str0" d="M86.9 325.45l0.4149 0c0.2723,-0.4705 0.6646,-0.8628 1.1351,-1.1351l0 -0.4149 1.55 0 1.55 0 0 0.4149c0.4705,0.2723 0.8628,0.6646 1.1351,1.1351l0.4149 0 0 1.55 0 1.55 -0.4149 0c-0.2723,0.4705 -0.6646,0.8628 -1.1351,1.1351l0 0.4149 -1.55 0 -1.55 0 0 -0.4149c-0.4705,-0.2723 -0.8628,-0.6646 -1.1351,-1.1351l-0.4149 0 0 -1.55 0 -1.55z"/>
  <path class="fil0 str0" d="M86.9 305.45l0.4149 0c0.2723,-0.4705 0.6646,-0.8628 1.1351,-1.1351l0 -0.4149 1.55 0 1.55 0 0 0.4149c0.4705,0.2723 0.8628,0.6646 1.1351,1.1351l0.4149 0 0 1.55 0 1.55 -0.4149 0c-0.2723,0.4705 -0.6646,0.8628 -1.1351,1.1351l0 0.4149 -1.55 0 -1.55 0 0 -0.4149c-0.4705,-0.2723 -0.8628,-0.6646 -1.1351,-1.1351l-0.4149 0 0 -1.55 0 -1.55z"/>
  <path class="fil0 str0" d="M86.9 285.45l0.4149 0c0.2723,-0.4705 0.6646,-0.8628 1.1351,-1.1351l0 -0.4149 1.55 0 1.55 0 0 0.4149c0.4705,0.2723 0.8628,0.6646 1.1351,1.1351l0.4149 0 0 1.55 0 1.55 -0.4149 0c-0.2723,0.4705 -0.6646,0.8628 -1.1351,1.1351l0 0.4149 -1.55 0 -1.55 0 0 -0.4149c-0.4705,-0.2723 -0.8628,-0.6646 -1.1351,-1.1351l-0.4149 0 0 -1.55 0 -1.55z"/>
  <path class="fil0 str0" d="M86.9 265.45l0.4149 0c0.2723,-0.4705 0.6646,-0.8628 1.1351,-1.1351l0 -0.4149 1.55 0 1.55 0 0 0.4149c0.4705,0.2723 0.8628,0.6646 1.1351,1.1351l0.4149 0 0 1.55 0 1.55 -0.4149 0c-0.2723,0.4705 -0.6646,0.8628 -1.1351,1.1351l0 0.4149 -1.55 0 -1.55 0 0 -0.4149c-0.4705,-0.2723 -0.8628,-0.6646 -1.1351,-1.1351l-0.4149 0 0 -1.55 0 -1.55z"/>
  <path class="fil0 str0" d="M86.9 245.45l0.4149 0c0.2723,-0.4705 0.6646,-0.8628 1.1351,-1.1351l0 -0.4149 1.55 0 1.55 0 0 0.4149c0.4705,0.2723 0.8628,0.6646 1.1351,1.1351l0.4149 0 0 1.55 0 1.55 -0.4149 0c-0.2723,0.4705 -0.6646,0.8628 -1.1351,1.1351l0 0.4149 -1.55 0 -1.55 0 0 -0.4149c-0.4705,-0.2723 -0.8628,-0.6646 -1.1351,-1.1351l-0.4149 0 0 -1.55 0 -1.55z"/>
  <path class="fil0 str0" d="M86.9 225.45l0.4149 0c0.2723,-0.4705 0.6646,-0.8628 1.1351,-1.1351l0 -0.4149 1.55 0 1.55 0 0 0.4149c0.4705,0.2723 0.8628,0.6646 1.1351,1.1351l0.4149 0 0 1.55 0 1.55 -0.4149 0c-0.2723,0.4705 -0.6646,0.8628 -1.1351,1.1351l0 0.4149 -1.55 0 -1.55 0 0 -0.4149c-0.4705,-0.2723 -0.8628,-0.6646 -1.1351,-1.1351l-0.4149 0 0 -1.55 0 -1.55z"/>
  <rect class="fil0 str1" x="88.4" y="353.9" width="3.2" height="6.2"/>
  <rect class="fil0 str1" x="88.4" y="333.9" width="3.2" height="6.2"/>
  <rect class="fil0 str1" x="88.4" y="313.9" width="3.2" height="6.2"/>
  <rect class="fil0 str1" x="88.4" y="293.9" width="3.2" height="6.2"/>
  <rect class="fil0 str1" x="88.4" y="273.9" width="3.2" height="6.2"/>
  <rect class="fil0 str1" x="88.4" y="253.9" width="3.2" height="6.2"/>
  <rect class="fil0 str1" x="88.4" y="233.9" width="3.2" height="6.2"/>
  <rect class="fil0 str1" x="-83.1" y="365.4" width="6.2" height="3.2"/>
  <rect class="fil0 str1" x="-63.1" y="365.4" width="6.2" height="3.2"/>
  <rect class="fil0 str1" x="-43.1" y="365.4" width="6.2" height="3.2"/>
  <rect class="fil0 str1" x="-23.1" y="365.4" width="6.2" height="3.2"/>
  <rect class="fil0 str1" x="-3.1" y="365.4" width="6.2" height="3.2"/>
  <rect class="fil0 str1" x="16.9" y="365.4" width="6.2" height="3.2"/>
  <rect class="fil0 str1" x="36.9" y="365.4" width="6.2" height="3.2"/>
  <rect class="fil0 str1" x="56.9" y="365.4" width="6.2" height="3.2"/>
  <rect class="fil0 str1" x="76.9" y="365.4" width="6.2" height="3.2"/>
  <rect class="fil0 str1" x="-83.1" y="345.4" width="6.2" height="3.2"/>
  <rect class="fil0 str1" x="-63.1" y="345.4" width="6.2" height="3.2"/>
  <rect class="fil0 str1" x="-43.1" y="345.4" width="6.2" height="3.2"/>
  <rect class="fil0 str1" x="-23.1" y="345.4" width="6.2" height="3.2"/>
  <rect class="fil0 str1" x="-3.1" y="345.4" width="6.2" height="3.2"/>
  <rect class="fil0 str1" x="16.9" y="345.4" width="6.2" height="3.2"/>
  <rect class="fil0 str1" x="36.9" y="345.4" width="6.2" height="3.2"/>
  <rect class="fil0 str1" x="56.9" y="345.4" width="6.2" height="3.2"/>
  <rect class="fil0 str1" x="76.9" y="345.4" width="6.2" height="3.2"/>
  <rect class="fil0 str1" x="-83.1" y="325.4" width="6.2" height="3.2"/>
  <rect class="fil0 str1" x="-63.1" y="325.4" width="6.2" height="3.2"/>
  <rect class="fil0 str1" x="-43.1" y="325.4" width="6.2" height="3.2"/>
  <rect class="fil0 str1" x="-23.1" y="325.4" width="6.2" height="3.2"/>
  <rect class="fil0 str1" x="-3.1" y="325.4" width="6.2" height="3.2"/>
  <rect class="fil0 str1" x="16.9" y="325.4" width="6.2" height="3.2"/>
  <rect class="fil0 str1" x="36.9" y="325.4" width="6.2" height="3.2"/>
  <rect class="fil0 str1" x="56.9" y="325.4" width="6.2" height="3.2"/>
  <rect class="fil0 str1" x="76.9" y="325.4" width="6.2" height="3.2"/>
  <rect class="fil0 str1" x="-83.1" y="305.4" width="6.2" height="3.2"/>
  <rect class="fil0 str1" x="-63.1" y="305.4" width="6.2" height="3.2"/>
  <rect class="fil0 str1" x="-43.1" y="305.4" width="6.2" height="3.2"/>
  <rect class="fil0 str1" x="-23.1" y="305.4" width="6.2" height="3.2"/>
  <rect class="fil0 str1" x="-3.1" y="305.4" width="6.2" height="3.2"/>
  <rect class="fil0 str1" x="16.9" y="305.4" width="6.2" height="3.2"/>
  <rect class="fil0 str1" x="36.9" y="305.4" width="6.2" height="3.2"/>
  <rect class="fil0 str1" x="56.9" y="305.4" width="6.2" height="3.2"/>
  <rect class="fil0 str1" x="76.9" y="305.4" width="6.2" height="3.2"/>
  <rect class="fil0 str1" x="-83.1" y="285.4" width="6.2" height="3.2"/>
  <rect class="fil0 str1" x="-63.1" y="285.4" width="6.2" height="3.2"/>
  <rect class="fil0 str1" x="-43.1" y="285.4" width="6.2" height="3.2"/>
  <rect class="fil0 str1" x="-23.1" y="285.4" width="6.2" height="3.2"/>
  <rect class="fil0 str1" x="-3.1" y="285.4" width="6.2" height="3.2"/>
  <rect class="fil0 str1" x="16.9" y="285.4" width="6.2" height="3.2"/>
  <rect class="fil0 str1" x="36.9" y="285.4" width="6.2" height="3.2"/>
  <rect class="fil0 str1" x="56.9" y="285.4" width="6.2" height="3.2"/>
  <rect class="fil0 str1" x="76.9" y="285.4" width="6.2" height="3.2"/>
  <rect class="fil0 str1" x="-83.1" y="265.4" width="6.2" height="3.2"/>
  <rect class="fil0 str1" x="-63.1" y="265.4" width="6.2" height="3.2"/>
  <rect class="fil0 str1" x="-43.1" y="265.4" width="6.2" height="3.2"/>
  <rect class="fil0 str1" x="-23.1" y="265.4" width="6.2" height="3.2"/>
  <rect class="fil0 str1" x="-3.1" y="265.4" width="6.2" height="3.2"/>
  <rect class="fil0 str1" x="16.9" y="265.4" width="6.2" height="3.2"/>
  <rect class="fil0 str1" x="36.9" y="265.4" width="6.2" height="3.2"/>
  <rect class="fil0 str1" x="56.9" y="265.4" width="6.2" height="3.2"/>
  <rect class="fil0 str1" x="76.9" y="265.4" width="6.2" height="3.2"/>
  <rect class="fil0 str1" x="-83.1" y="245.4" width="6.2" height="3.2"/>
  <rect class="fil0 str1" x="-63.1" y="245.4" width="6.2" height="3.2"/>
  <rect class="fil0 str1" x="-43.1" y="245.4" width="6.2" height="3.2"/>
  <rect class="fil0 str1" x="-23.1" y="245.4" width="6.2" height="3.2"/>
  <rect class="fil0 str1" x="-3.1" y="245.4" width="6.2" height="3.2"/>
  <rect class="fil0 str1" x="16.9" y="245.4" width="6.2" height="3.2"/>
  <rect class="fil0 str1" x="36.9" y="245.4" width="6.2" height="3.2"/>
  <rect class="fil0 str1" x="56.9" y="245.4" width="6.2" height="3.2"/>
  <rect class="fil0 str1" x="76.9" y="245.4" width="6.2" height="3.2"/>
  <rect class="fil0 str1" x="-83.1" y="225.4" width="6.2" height="3.2"/>
  <rect class="fil0 str1" x="-63.1" y="225.4" width="6.2" height="3.2"/>
  <rect class="fil0 str1" x="-43.1" y="225.4" width="6.2" height="3.2"/>
  <rect class="fil0 str1" x="-23.1" y="225.4" width="6.2" height="3.2"/>
  <rect class="fil0 str1" x="-3.1" y="225.4" width="6.2" height="3.2"/>
  <rect class="fil0 str1" x="16.9" y="225.4" width="6.2" height="3.2"/>
  <rect class="fil0 str1" x="36.9" y="225.4" width="6.2" height="3.2"/>
  <rect class="fil0 str1" x="56.9" y="225.4" width="6.2" height="3.2"/>
  <rect class="fil0 str1" x="76.9" y="225.4" width="6.2" height="3.2"/>
  <path class="fil0 str2" d="M-96.5 368.5l0 -143c0,-2.7609 2.2391,-5 5,-5l183 0c2.7609,0 5,2.2391 5,5l0 143c0,2.7609 -2.2391,5 -5,5l-183 0c-2.7609,0 -5,-2.2391 -5,-5z"/>
 </g>
</svg>
