solid OpenSCAD_Model
  facet normal 0.587788 -0.809015 0
    outer loop
      vertex 3.40877 -5.38153 -3
      vertex 4.42273 -4.64484 0
      vertex 3.40877 -5.38153 0
    endloop
  endfacet
  facet normal 0.587788 -0.809015 0
    outer loop
      vertex 4.42273 -4.64484 0
      vertex 3.40877 -5.38153 -3
      vertex 4.42273 -4.64484 -3
    endloop
  endfacet
  facet normal -0.368123 0.929777 0
    outer loop
      vertex -2.24345 5.84291 -3
      vertex -3.40877 5.38153 0
      vertex -2.24345 5.84291 0
    endloop
  endfacet
  facet normal -0.368123 0.929777 0
    outer loop
      vertex -3.40877 5.38153 0
      vertex -2.24345 5.84291 -3
      vertex -3.40877 5.38153 -3
    endloop
  endfacet
  facet normal 0.368123 -0.929777 0
    outer loop
      vertex 2.24345 -5.84291 -3
      vertex 3.40877 -5.38153 0
      vertex 2.24345 -5.84291 0
    endloop
  endfacet
  facet normal 0.368123 -0.929777 0
    outer loop
      vertex 3.40877 -5.38153 0
      vertex 2.24345 -5.84291 -3
      vertex 3.40877 -5.38153 -3
    endloop
  endfacet
  facet normal 0.809015 0.587788 0
    outer loop
      vertex 5.38153 3.40877 0
      vertex 4.64484 4.42273 -3
      vertex 4.64484 4.42273 0
    endloop
  endfacet
  facet normal 0.809015 0.587788 0
    outer loop
      vertex 4.64484 4.42273 -3
      vertex 5.38153 3.40877 0
      vertex 5.38153 3.40877 -3
    endloop
  endfacet
  facet normal -0.904825 0.425784 0
    outer loop
      vertex -5.75528 2.54509 -3
      vertex -5.22163 3.67914 0
      vertex -5.22163 3.67914 -3
    endloop
  endfacet
  facet normal -0.904825 0.425784 0
    outer loop
      vertex -5.22163 3.67914 0
      vertex -5.75528 2.54509 -3
      vertex -5.75528 2.54509 0
    endloop
  endfacet
  facet normal -0.156436 -0.987688 0
    outer loop
      vertex -2.54509 -5.75528 -3
      vertex -1 -6 0
      vertex -2.54509 -5.75528 0
    endloop
  endfacet
  facet normal -0.156436 -0.987688 -0
    outer loop
      vertex -1 -6 0
      vertex -2.54509 -5.75528 -3
      vertex -1 -6 -3
    endloop
  endfacet
  facet normal 0.156436 0.987688 -0
    outer loop
      vertex 2.54509 5.75528 -3
      vertex 1 6 0
      vertex 2.54509 5.75528 0
    endloop
  endfacet
  facet normal 0.156436 0.987688 0
    outer loop
      vertex 1 6 0
      vertex 2.54509 5.75528 -3
      vertex 1 6 -3
    endloop
  endfacet
  facet normal -0.770512 0.637426 0
    outer loop
      vertex -5.22163 3.67914 -3
      vertex -4.42273 4.64484 0
      vertex -4.42273 4.64484 -3
    endloop
  endfacet
  facet normal -0.770512 0.637426 0
    outer loop
      vertex -4.42273 4.64484 0
      vertex -5.22163 3.67914 -3
      vertex -5.22163 3.67914 0
    endloop
  endfacet
  facet normal -0.587788 0.809015 0
    outer loop
      vertex -3.40877 5.38153 -3
      vertex -4.42273 4.64484 0
      vertex -3.40877 5.38153 0
    endloop
  endfacet
  facet normal -0.587788 0.809015 0
    outer loop
      vertex -4.42273 4.64484 0
      vertex -3.40877 5.38153 -3
      vertex -4.42273 4.64484 -3
    endloop
  endfacet
  facet normal -1 0 0
    outer loop
      vertex -6 -1 -3
      vertex -6 1 0
      vertex -6 1 -3
    endloop
  endfacet
  facet normal -1 -0 0
    outer loop
      vertex -6 1 0
      vertex -6 -1 -3
      vertex -6 -1 0
    endloop
  endfacet
  facet normal 0 0 -1
    outer loop
      vertex 6 -1 -3
      vertex 3.14789 -0.808242 -3
      vertex 3.25 0 -3
    endloop
  endfacet
  facet normal 0 0 -1
    outer loop
      vertex 4.42273 -4.64484 -3
      vertex 2.848 -1.5657 -3
      vertex 3.14789 -0.808242 -3
    endloop
  endfacet
  facet normal 0 0 -1
    outer loop
      vertex 4.42273 -4.64484 -3
      vertex 2.36915 -2.22478 -3
      vertex 2.848 -1.5657 -3
    endloop
  endfacet
  facet normal 0 0 -1
    outer loop
      vertex 1.74144 -2.74407 -3
      vertex 3.40877 -5.38153 -3
      vertex 2.24345 -5.84291 -3
    endloop
  endfacet
  facet normal 0 0 -1
    outer loop
      vertex 4.42273 -4.64484 -3
      vertex 1.74144 -2.74407 -3
      vertex 2.36915 -2.22478 -3
    endloop
  endfacet
  facet normal 0 0 -1
    outer loop
      vertex 2.24345 -5.84291 -3
      vertex 1.0043 -3.09093 -3
      vertex 1.74144 -2.74407 -3
    endloop
  endfacet
  facet normal 0 0 -1
    outer loop
      vertex 1 -6 -3
      vertex 1.0043 -3.09093 -3
      vertex 2.24345 -5.84291 -3
    endloop
  endfacet
  facet normal 0 0 -1
    outer loop
      vertex 1 -6 -3
      vertex 0.204069 -3.24359 -3
      vertex 1.0043 -3.09093 -3
    endloop
  endfacet
  facet normal 0 0 -1
    outer loop
      vertex -1 -6 -3
      vertex 0.204069 -3.24359 -3
      vertex 1 -6 -3
    endloop
  endfacet
  facet normal -0 0 -1
    outer loop
      vertex 0.204069 -3.24359 -3
      vertex -1 -6 -3
      vertex -0.608989 -3.19243 -3
    endloop
  endfacet
  facet normal 0 0 -1
    outer loop
      vertex -1 -6 -3
      vertex -1.38378 -2.94069 -3
      vertex -0.608989 -3.19243 -3
    endloop
  endfacet
  facet normal 0 0 -1
    outer loop
      vertex -2.54509 -5.75528 -3
      vertex -1.38378 -2.94069 -3
      vertex -1 -6 -3
    endloop
  endfacet
  facet normal 0 0 -1
    outer loop
      vertex -3.67914 -5.22163 -3
      vertex -1.38378 -2.94069 -3
      vertex -2.54509 -5.75528 -3
    endloop
  endfacet
  facet normal -0 0 -1
    outer loop
      vertex -1.38378 -2.94069 -3
      vertex -3.67914 -5.22163 -3
      vertex -2.07163 -2.50417 -3
    endloop
  endfacet
  facet normal 0 0 -1
    outer loop
      vertex -4.64484 -4.42273 -3
      vertex -2.07163 -2.50417 -3
      vertex -3.67914 -5.22163 -3
    endloop
  endfacet
  facet normal -0 0 -1
    outer loop
      vertex -2.07163 -2.50417 -3
      vertex -4.64484 -4.42273 -3
      vertex -2.6293 -1.9103 -3
    endloop
  endfacet
  facet normal 0 0 -1
    outer loop
      vertex -6 1 -3
      vertex -3.22437 0.407332 -3
      vertex -3.22437 -0.407332 -3
    endloop
  endfacet
  facet normal 0 0 -1
    outer loop
      vertex -5.38153 -3.40877 -3
      vertex -2.6293 -1.9103 -3
      vertex -4.64484 -4.42273 -3
    endloop
  endfacet
  facet normal -0 0 -1
    outer loop
      vertex -2.6293 -1.9103 -3
      vertex -5.38153 -3.40877 -3
      vertex -3.02177 -1.1964 -3
    endloop
  endfacet
  facet normal 0 0 -1
    outer loop
      vertex -3.22437 0.407332 -3
      vertex -6 1 -3
      vertex -5.75528 2.54509 -3
    endloop
  endfacet
  facet normal 0 0 -1
    outer loop
      vertex -5.84291 -2.24345 -3
      vertex -3.02177 -1.1964 -3
      vertex -5.38153 -3.40877 -3
    endloop
  endfacet
  facet normal 0 0 -1
    outer loop
      vertex -3.22437 0.407332 -3
      vertex -4.42273 4.64484 -3
      vertex -3.40877 5.38153 -3
    endloop
  endfacet
  facet normal 0 0 -1
    outer loop
      vertex -6 -1 -3
      vertex -3.02177 -1.1964 -3
      vertex -5.84291 -2.24345 -3
    endloop
  endfacet
  facet normal 0 0 -1
    outer loop
      vertex -3.22437 0.407332 -3
      vertex -5.22163 3.67914 -3
      vertex -4.42273 4.64484 -3
    endloop
  endfacet
  facet normal 0 0 -1
    outer loop
      vertex -3.02177 -1.1964 -3
      vertex -6 -1 -3
      vertex -3.22437 -0.407332 -3
    endloop
  endfacet
  facet normal -0 0 -1
    outer loop
      vertex -3.22437 -0.407332 -3
      vertex -6 -1 -3
      vertex -6 1 -3
    endloop
  endfacet
  facet normal 0 0 -1
    outer loop
      vertex -3.22437 0.407332 -3
      vertex -5.75528 2.54509 -3
      vertex -5.22163 3.67914 -3
    endloop
  endfacet
  facet normal 0 0 -1
    outer loop
      vertex 3.25 0 -3
      vertex 6 1 -3
      vertex 6 -1 -3
    endloop
  endfacet
  facet normal 0 0 -1
    outer loop
      vertex 3.14789 -0.808242 -3
      vertex 6 -1 -3
      vertex 5.75528 -2.54509 -3
    endloop
  endfacet
  facet normal 0 0 -1
    outer loop
      vertex 3.14789 0.808242 -3
      vertex 6 1 -3
      vertex 3.25 0 -3
    endloop
  endfacet
  facet normal 0 0 -1
    outer loop
      vertex 3.14789 -0.808242 -3
      vertex 5.75528 -2.54509 -3
      vertex 5.22163 -3.67914 -3
    endloop
  endfacet
  facet normal -0 0 -1
    outer loop
      vertex 6 1 -3
      vertex 3.14789 0.808242 -3
      vertex 5.84291 2.24345 -3
    endloop
  endfacet
  facet normal 0 0 -1
    outer loop
      vertex 3.14789 -0.808242 -3
      vertex 5.22163 -3.67914 -3
      vertex 4.42273 -4.64484 -3
    endloop
  endfacet
  facet normal 0 0 -1
    outer loop
      vertex 2.848 1.5657 -3
      vertex 5.84291 2.24345 -3
      vertex 3.14789 0.808242 -3
    endloop
  endfacet
  facet normal 0 0 -1
    outer loop
      vertex 1.74144 -2.74407 -3
      vertex 4.42273 -4.64484 -3
      vertex 3.40877 -5.38153 -3
    endloop
  endfacet
  facet normal -0 0 -1
    outer loop
      vertex 5.84291 2.24345 -3
      vertex 2.848 1.5657 -3
      vertex 5.38153 3.40877 -3
    endloop
  endfacet
  facet normal 0 0 -1
    outer loop
      vertex 2.36915 2.22478 -3
      vertex 5.38153 3.40877 -3
      vertex 2.848 1.5657 -3
    endloop
  endfacet
  facet normal -0 0 -1
    outer loop
      vertex 5.38153 3.40877 -3
      vertex 2.36915 2.22478 -3
      vertex 4.64484 4.42273 -3
    endloop
  endfacet
  facet normal -0 0 -1
    outer loop
      vertex 4.64484 4.42273 -3
      vertex 2.36915 2.22478 -3
      vertex 3.67914 5.22163 -3
    endloop
  endfacet
  facet normal 0 0 -1
    outer loop
      vertex 1.74144 2.74407 -3
      vertex 3.67914 5.22163 -3
      vertex 2.36915 2.22478 -3
    endloop
  endfacet
  facet normal -0 0 -1
    outer loop
      vertex 3.67914 5.22163 -3
      vertex 1.74144 2.74407 -3
      vertex 2.54509 5.75528 -3
    endloop
  endfacet
  facet normal 0 0 -1
    outer loop
      vertex 1.0043 3.09093 -3
      vertex 2.54509 5.75528 -3
      vertex 1.74144 2.74407 -3
    endloop
  endfacet
  facet normal 0 0 -1
    outer loop
      vertex 1.0043 3.09093 -3
      vertex 1 6 -3
      vertex 2.54509 5.75528 -3
    endloop
  endfacet
  facet normal 0 0 -1
    outer loop
      vertex 0.204069 3.24359 -3
      vertex 1 6 -3
      vertex 1.0043 3.09093 -3
    endloop
  endfacet
  facet normal 0 0 -1
    outer loop
      vertex -1 6 -3
      vertex 0.204069 3.24359 -3
      vertex -0.608989 3.19243 -3
    endloop
  endfacet
  facet normal 0 0 -1
    outer loop
      vertex 0.204069 3.24359 -3
      vertex -1 6 -3
      vertex 1 6 -3
    endloop
  endfacet
  facet normal 0 0 -1
    outer loop
      vertex -2.24345 5.84291 -3
      vertex -0.608989 3.19243 -3
      vertex -1.38378 2.94069 -3
    endloop
  endfacet
  facet normal 0 0 -1
    outer loop
      vertex -3.40877 5.38153 -3
      vertex -1.38378 2.94069 -3
      vertex -2.07163 2.50417 -3
    endloop
  endfacet
  facet normal 0 0 -1
    outer loop
      vertex -0.608989 3.19243 -3
      vertex -2.24345 5.84291 -3
      vertex -1 6 -3
    endloop
  endfacet
  facet normal 0 0 -1
    outer loop
      vertex -3.40877 5.38153 -3
      vertex -2.07163 2.50417 -3
      vertex -2.6293 1.9103 -3
    endloop
  endfacet
  facet normal 0 0 -1
    outer loop
      vertex -3.40877 5.38153 -3
      vertex -2.6293 1.9103 -3
      vertex -3.02177 1.1964 -3
    endloop
  endfacet
  facet normal 0 0 -1
    outer loop
      vertex -3.40877 5.38153 -3
      vertex -3.02177 1.1964 -3
      vertex -3.22437 0.407332 -3
    endloop
  endfacet
  facet normal 0 0 -1
    outer loop
      vertex -1.38378 2.94069 -3
      vertex -3.40877 5.38153 -3
      vertex -2.24345 5.84291 -3
    endloop
  endfacet
  facet normal -0.992114 -0.125338 0
    outer loop
      vertex -5.84291 -2.24345 -3
      vertex -6 -1 0
      vertex -6 -1 -3
    endloop
  endfacet
  facet normal -0.992114 -0.125338 0
    outer loop
      vertex -6 -1 0
      vertex -5.84291 -2.24345 -3
      vertex -5.84291 -2.24345 0
    endloop
  endfacet
  facet normal -0.987688 0.156436 0
    outer loop
      vertex -6 1 -3
      vertex -5.75528 2.54509 0
      vertex -5.75528 2.54509 -3
    endloop
  endfacet
  facet normal -0.987688 0.156436 0
    outer loop
      vertex -5.75528 2.54509 0
      vertex -6 1 -3
      vertex -6 1 0
    endloop
  endfacet
  facet normal -0.809015 -0.587788 0
    outer loop
      vertex -4.64484 -4.42273 -3
      vertex -5.38153 -3.40877 0
      vertex -5.38153 -3.40877 -3
    endloop
  endfacet
  facet normal -0.809015 -0.587788 0
    outer loop
      vertex -5.38153 -3.40877 0
      vertex -4.64484 -4.42273 -3
      vertex -4.64484 -4.42273 0
    endloop
  endfacet
  facet normal -0.425784 -0.904825 0
    outer loop
      vertex -3.67914 -5.22163 -3
      vertex -2.54509 -5.75528 0
      vertex -3.67914 -5.22163 0
    endloop
  endfacet
  facet normal -0.425784 -0.904825 -0
    outer loop
      vertex -2.54509 -5.75528 0
      vertex -3.67914 -5.22163 -3
      vertex -2.54509 -5.75528 -3
    endloop
  endfacet
  facet normal 0 -1 0
    outer loop
      vertex -1 -6 -3
      vertex 1 -6 0
      vertex -1 -6 0
    endloop
  endfacet
  facet normal 0 -1 -0
    outer loop
      vertex 1 -6 0
      vertex -1 -6 -3
      vertex 1 -6 -3
    endloop
  endfacet
  facet normal 0.425784 0.904825 -0
    outer loop
      vertex 3.67914 5.22163 -3
      vertex 2.54509 5.75528 0
      vertex 3.67914 5.22163 0
    endloop
  endfacet
  facet normal 0.425784 0.904825 0
    outer loop
      vertex 2.54509 5.75528 0
      vertex 3.67914 5.22163 -3
      vertex 2.54509 5.75528 -3
    endloop
  endfacet
  facet normal 0.637426 0.770512 -0
    outer loop
      vertex 4.64484 4.42273 -3
      vertex 3.67914 5.22163 0
      vertex 4.64484 4.42273 0
    endloop
  endfacet
  facet normal 0.637426 0.770512 0
    outer loop
      vertex 3.67914 5.22163 0
      vertex 4.64484 4.42273 -3
      vertex 3.67914 5.22163 -3
    endloop
  endfacet
  facet normal 0 1 -0
    outer loop
      vertex 1 6 -3
      vertex -1 6 0
      vertex 1 6 0
    endloop
  endfacet
  facet normal 0 1 0
    outer loop
      vertex -1 6 0
      vertex 1 6 -3
      vertex -1 6 -3
    endloop
  endfacet
  facet normal -0.125338 0.992114 0
    outer loop
      vertex -1 6 -3
      vertex -2.24345 5.84291 0
      vertex -1 6 0
    endloop
  endfacet
  facet normal -0.125338 0.992114 0
    outer loop
      vertex -2.24345 5.84291 0
      vertex -1 6 -3
      vertex -2.24345 5.84291 -3
    endloop
  endfacet
  facet normal 0.992114 0.125338 0
    outer loop
      vertex 6 1 0
      vertex 5.84291 2.24345 -3
      vertex 5.84291 2.24345 0
    endloop
  endfacet
  facet normal 0.992114 0.125338 0
    outer loop
      vertex 5.84291 2.24345 -3
      vertex 6 1 0
      vertex 6 1 -3
    endloop
  endfacet
  facet normal 1 -0 0
    outer loop
      vertex 6 -1 0
      vertex 6 1 -3
      vertex 6 1 0
    endloop
  endfacet
  facet normal 1 0 0
    outer loop
      vertex 6 1 -3
      vertex 6 -1 0
      vertex 6 -1 -3
    endloop
  endfacet
  facet normal 0.929777 0.368123 0
    outer loop
      vertex 5.84291 2.24345 0
      vertex 5.38153 3.40877 -3
      vertex 5.38153 3.40877 0
    endloop
  endfacet
  facet normal 0.929777 0.368123 0
    outer loop
      vertex 5.38153 3.40877 -3
      vertex 5.84291 2.24345 0
      vertex 5.84291 2.24345 -3
    endloop
  endfacet
  facet normal 0.987688 -0.156436 0
    outer loop
      vertex 5.75528 -2.54509 0
      vertex 6 -1 -3
      vertex 6 -1 0
    endloop
  endfacet
  facet normal 0.987688 -0.156436 0
    outer loop
      vertex 6 -1 -3
      vertex 5.75528 -2.54509 0
      vertex 5.75528 -2.54509 -3
    endloop
  endfacet
  facet normal 0.770512 -0.637426 0
    outer loop
      vertex 4.42273 -4.64484 0
      vertex 5.22163 -3.67914 -3
      vertex 5.22163 -3.67914 0
    endloop
  endfacet
  facet normal 0.770512 -0.637426 0
    outer loop
      vertex 5.22163 -3.67914 -3
      vertex 4.42273 -4.64484 0
      vertex 4.42273 -4.64484 -3
    endloop
  endfacet
  facet normal -0.929777 -0.368123 0
    outer loop
      vertex -5.38153 -3.40877 -3
      vertex -5.84291 -2.24345 0
      vertex -5.84291 -2.24345 -3
    endloop
  endfacet
  facet normal -0.929777 -0.368123 0
    outer loop
      vertex -5.84291 -2.24345 0
      vertex -5.38153 -3.40877 -3
      vertex -5.38153 -3.40877 0
    endloop
  endfacet
  facet normal -0 0 1
    outer loop
      vertex 5.50121 2.15573 0
      vertex 6 1 0
      vertex 5.84291 2.24345 0
    endloop
  endfacet
  facet normal 0 0 1
    outer loop
      vertex 5.64999 -0.972519 0
      vertex 6 1 0
      vertex 5.64999 0.977997 0
    endloop
  endfacet
  facet normal 0 0 1
    outer loop
      vertex 6 1 0
      vertex 5.64999 -0.972519 0
      vertex 6 -1 0
    endloop
  endfacet
  facet normal 0 0 1
    outer loop
      vertex 6 1 0
      vertex 5.50121 2.15573 0
      vertex 5.64999 0.977997 0
    endloop
  endfacet
  facet normal 0 0 1
    outer loop
      vertex 5.38153 3.40877 0
      vertex 5.50121 2.15573 0
      vertex 5.84291 2.24345 0
    endloop
  endfacet
  facet normal 0 0 1
    outer loop
      vertex 5.38153 3.40877 0
      vertex 5.07237 3.23883 0
      vertex 5.50121 2.15573 0
    endloop
  endfacet
  facet normal 0 0 1
    outer loop
      vertex 4.64484 4.42273 0
      vertex 5.07237 3.23883 0
      vertex 5.38153 3.40877 0
    endloop
  endfacet
  facet normal 0 0 1
    outer loop
      vertex 4.64484 4.42273 0
      vertex 4.38768 4.18121 0
      vertex 5.07237 3.23883 0
    endloop
  endfacet
  facet normal 0 0 1
    outer loop
      vertex 3.67914 5.22163 0
      vertex 4.38768 4.18121 0
      vertex 4.64484 4.42273 0
    endloop
  endfacet
  facet normal 0 0 1
    outer loop
      vertex 3.67914 5.22163 0
      vertex 3.49011 4.92377 0
      vertex 4.38768 4.18121 0
    endloop
  endfacet
  facet normal -0 0 1
    outer loop
      vertex 2.44112 5.41739 0
      vertex 3.67914 5.22163 0
      vertex 2.54509 5.75528 0
    endloop
  endfacet
  facet normal 0 0 1
    outer loop
      vertex 3.67914 5.22163 0
      vertex 2.44112 5.41739 0
      vertex 3.49011 4.92377 0
    endloop
  endfacet
  facet normal 0 0 1
    outer loop
      vertex 1 6 0
      vertex 2.44112 5.41739 0
      vertex 2.54509 5.75528 0
    endloop
  endfacet
  facet normal 0 0 1
    outer loop
      vertex 1 6 0
      vertex 0.972519 5.64999 0
      vertex 2.44112 5.41739 0
    endloop
  endfacet
  facet normal -0 0 1
    outer loop
      vertex -1 6 0
      vertex 0.972519 5.64999 0
      vertex 1 6 0
    endloop
  endfacet
  facet normal 0 0 1
    outer loop
      vertex 0.972519 5.64999 0
      vertex -1 6 0
      vertex -0.977997 5.64999 0
    endloop
  endfacet
  facet normal 0 0 1
    outer loop
      vertex -1 6 0
      vertex -2.15573 5.50121 0
      vertex -0.977997 5.64999 0
    endloop
  endfacet
  facet normal -0 0 1
    outer loop
      vertex -2.24345 5.84291 0
      vertex -2.15573 5.50121 0
      vertex -1 6 0
    endloop
  endfacet
  facet normal 0 0 1
    outer loop
      vertex -2.24345 5.84291 0
      vertex -3.23883 5.07237 0
      vertex -2.15573 5.50121 0
    endloop
  endfacet
  facet normal -0 0 1
    outer loop
      vertex -3.40877 5.38153 0
      vertex -3.23883 5.07237 0
      vertex -2.24345 5.84291 0
    endloop
  endfacet
  facet normal 0 0 1
    outer loop
      vertex -3.40877 5.38153 0
      vertex -4.18121 4.38768 0
      vertex -3.23883 5.07237 0
    endloop
  endfacet
  facet normal -0 0 1
    outer loop
      vertex -4.42273 4.64484 0
      vertex -4.18121 4.38768 0
      vertex -3.40877 5.38153 0
    endloop
  endfacet
  facet normal 0 0 1
    outer loop
      vertex -4.42273 4.64484 0
      vertex -4.92377 3.49011 0
      vertex -4.18121 4.38768 0
    endloop
  endfacet
  facet normal -0 0 1
    outer loop
      vertex -5.22163 3.67914 0
      vertex -4.92377 3.49011 0
      vertex -4.42273 4.64484 0
    endloop
  endfacet
  facet normal 0 0 1
    outer loop
      vertex -5.22163 3.67914 0
      vertex -5.41739 2.44112 0
      vertex -4.92377 3.49011 0
    endloop
  endfacet
  facet normal -0 0 1
    outer loop
      vertex -5.75528 2.54509 0
      vertex -5.41739 2.44112 0
      vertex -5.22163 3.67914 0
    endloop
  endfacet
  facet normal 0 0 1
    outer loop
      vertex -5.41739 2.44112 0
      vertex -6 1 0
      vertex -5.64999 0.972519 0
    endloop
  endfacet
  facet normal 0 0 1
    outer loop
      vertex -6 1 0
      vertex -5.41739 2.44112 0
      vertex -5.75528 2.54509 0
    endloop
  endfacet
  facet normal 0 0 1
    outer loop
      vertex 5.41739 -2.44112 0
      vertex 6 -1 0
      vertex 5.64999 -0.972519 0
    endloop
  endfacet
  facet normal 0 0 1
    outer loop
      vertex 6 -1 0
      vertex 5.41739 -2.44112 0
      vertex 5.75528 -2.54509 0
    endloop
  endfacet
  facet normal 0 0 1
    outer loop
      vertex 5.41739 -2.44112 0
      vertex 5.22163 -3.67914 0
      vertex 5.75528 -2.54509 0
    endloop
  endfacet
  facet normal -0 0 1
    outer loop
      vertex 4.92377 -3.49011 0
      vertex 5.22163 -3.67914 0
      vertex 5.41739 -2.44112 0
    endloop
  endfacet
  facet normal 0 0 1
    outer loop
      vertex 4.92377 -3.49011 0
      vertex 4.42273 -4.64484 0
      vertex 5.22163 -3.67914 0
    endloop
  endfacet
  facet normal -0 0 1
    outer loop
      vertex 4.18121 -4.38768 0
      vertex 4.42273 -4.64484 0
      vertex 4.92377 -3.49011 0
    endloop
  endfacet
  facet normal 0 0 1
    outer loop
      vertex 4.18121 -4.38768 0
      vertex 3.40877 -5.38153 0
      vertex 4.42273 -4.64484 0
    endloop
  endfacet
  facet normal -0 0 1
    outer loop
      vertex 3.23883 -5.07237 0
      vertex 3.40877 -5.38153 0
      vertex 4.18121 -4.38768 0
    endloop
  endfacet
  facet normal 0 0 1
    outer loop
      vertex 3.23883 -5.07237 0
      vertex 2.24345 -5.84291 0
      vertex 3.40877 -5.38153 0
    endloop
  endfacet
  facet normal -0 0 1
    outer loop
      vertex 2.15573 -5.50121 0
      vertex 2.24345 -5.84291 0
      vertex 3.23883 -5.07237 0
    endloop
  endfacet
  facet normal 0 0 1
    outer loop
      vertex 2.15573 -5.50121 0
      vertex 1 -6 0
      vertex 2.24345 -5.84291 0
    endloop
  endfacet
  facet normal -0 0 1
    outer loop
      vertex 0.977997 -5.64999 0
      vertex 1 -6 0
      vertex 2.15573 -5.50121 0
    endloop
  endfacet
  facet normal -0 0 1
    outer loop
      vertex -0.972519 -5.64999 0
      vertex 1 -6 0
      vertex 0.977997 -5.64999 0
    endloop
  endfacet
  facet normal 0 0 1
    outer loop
      vertex -0.972519 -5.64999 0
      vertex -1 -6 0
      vertex 1 -6 0
    endloop
  endfacet
  facet normal 0 0 1
    outer loop
      vertex -2.44112 -5.41739 0
      vertex -1 -6 0
      vertex -0.972519 -5.64999 0
    endloop
  endfacet
  facet normal 0 0 1
    outer loop
      vertex -2.44112 -5.41739 0
      vertex -2.54509 -5.75528 0
      vertex -1 -6 0
    endloop
  endfacet
  facet normal -0 0 1
    outer loop
      vertex -3.67914 -5.22163 0
      vertex -2.44112 -5.41739 0
      vertex -3.49011 -4.92377 0
    endloop
  endfacet
  facet normal 0 0 1
    outer loop
      vertex -2.44112 -5.41739 0
      vertex -3.67914 -5.22163 0
      vertex -2.54509 -5.75528 0
    endloop
  endfacet
  facet normal 0 0 1
    outer loop
      vertex -4.38768 -4.18121 0
      vertex -3.67914 -5.22163 0
      vertex -3.49011 -4.92377 0
    endloop
  endfacet
  facet normal 0 0 1
    outer loop
      vertex -4.38768 -4.18121 0
      vertex -4.64484 -4.42273 0
      vertex -3.67914 -5.22163 0
    endloop
  endfacet
  facet normal 0 0 1
    outer loop
      vertex -5.07237 -3.23883 0
      vertex -4.64484 -4.42273 0
      vertex -4.38768 -4.18121 0
    endloop
  endfacet
  facet normal 0 0 1
    outer loop
      vertex -5.07237 -3.23883 0
      vertex -5.38153 -3.40877 0
      vertex -4.64484 -4.42273 0
    endloop
  endfacet
  facet normal 0 0 1
    outer loop
      vertex -5.50121 -2.15573 0
      vertex -5.38153 -3.40877 0
      vertex -5.07237 -3.23883 0
    endloop
  endfacet
  facet normal -0 0 1
    outer loop
      vertex -6 -1 0
      vertex -5.50121 -2.15573 0
      vertex -5.64999 -0.977997 0
    endloop
  endfacet
  facet normal 0 0 1
    outer loop
      vertex -5.50121 -2.15573 0
      vertex -5.84291 -2.24345 0
      vertex -5.38153 -3.40877 0
    endloop
  endfacet
  facet normal 0 0 1
    outer loop
      vertex -6 -1 0
      vertex -5.64999 0.972519 0
      vertex -6 1 0
    endloop
  endfacet
  facet normal 0 0 1
    outer loop
      vertex -5.64999 0.972519 0
      vertex -6 -1 0
      vertex -5.64999 -0.977997 0
    endloop
  endfacet
  facet normal 0 0 1
    outer loop
      vertex -5.50121 -2.15573 0
      vertex -6 -1 0
      vertex -5.84291 -2.24345 0
    endloop
  endfacet
  facet normal 0 0 1
    outer loop
      vertex 3.25 0 0
      vertex 3.59724 0.043869 0
      vertex 3.49513 0.852097 0
    endloop
  endfacet
  facet normal 0 0 1
    outer loop
      vertex 3.59724 0.043869 0
      vertex 3.25 0 0
      vertex 3.59724 -0.043869 0
    endloop
  endfacet
  facet normal 0 0 1
    outer loop
      vertex 3.14789 0.808242 0
      vertex 3.49513 0.852097 0
      vertex 3.47331 0.937073 0
    endloop
  endfacet
  facet normal 0 0 1
    outer loop
      vertex 3.59724 -0.043869 0
      vertex 3.25 0 0
      vertex 3.49513 -0.852097 0
    endloop
  endfacet
  facet normal -0 0 1
    outer loop
      vertex 3.14789 -0.808242 0
      vertex 3.49513 -0.852097 0
      vertex 3.25 0 0
    endloop
  endfacet
  facet normal 0 0 1
    outer loop
      vertex 3.14789 0.808242 0
      vertex 3.47331 0.937073 0
      vertex 3.17342 1.69453 0
    endloop
  endfacet
  facet normal 0 0 1
    outer loop
      vertex 3.49513 0.852097 0
      vertex 3.14789 0.808242 0
      vertex 3.25 0 0
    endloop
  endfacet
  facet normal 0 0 1
    outer loop
      vertex 2.848 1.5657 0
      vertex 3.17342 1.69453 0
      vertex 3.13115 1.77141 0
    endloop
  endfacet
  facet normal 0 0 1
    outer loop
      vertex 3.17342 1.69453 0
      vertex 2.848 1.5657 0
      vertex 3.14789 0.808242 0
    endloop
  endfacet
  facet normal 0 0 1
    outer loop
      vertex 2.6523 2.4305 0
      vertex 2.848 1.5657 0
      vertex 3.13115 1.77141 0
    endloop
  endfacet
  facet normal 0 0 1
    outer loop
      vertex 2.36915 2.22478 0
      vertex 2.6523 2.4305 0
      vertex 2.59224 2.49446 0
    endloop
  endfacet
  facet normal 0 0 1
    outer loop
      vertex 2.6523 2.4305 0
      vertex 2.36915 2.22478 0
      vertex 2.848 1.5657 0
    endloop
  endfacet
  facet normal 0 0 1
    outer loop
      vertex 1.96452 3.01375 0
      vertex 2.36915 2.22478 0
      vertex 2.59224 2.49446 0
    endloop
  endfacet
  facet normal 0 0 1
    outer loop
      vertex 1.74144 2.74407 0
      vertex 1.96452 3.01375 0
      vertex 1.89044 3.06076 0
    endloop
  endfacet
  facet normal 0 0 1
    outer loop
      vertex 1.96452 3.01375 0
      vertex 1.74144 2.74407 0
      vertex 2.36915 2.22478 0
    endloop
  endfacet
  facet normal 0 0 1
    outer loop
      vertex 1.15332 3.40762 0
      vertex 1.74144 2.74407 0
      vertex 1.89044 3.06076 0
    endloop
  endfacet
  facet normal 0 0 1
    outer loop
      vertex 1.0043 3.09093 0
      vertex 1.15332 3.40762 0
      vertex 1.06989 3.43472 0
    endloop
  endfacet
  facet normal 0 0 1
    outer loop
      vertex 1.15332 3.40762 0
      vertex 1.0043 3.09093 0
      vertex 1.74144 2.74407 0
    endloop
  endfacet
  facet normal 0 0 1
    outer loop
      vertex 0.269638 3.58737 0
      vertex 1.0043 3.09093 0
      vertex 1.06989 3.43472 0
    endloop
  endfacet
  facet normal 0 0 1
    outer loop
      vertex 0.269638 3.58737 0
      vertex 0.204069 3.24359 0
      vertex 1.0043 3.09093 0
    endloop
  endfacet
  facet normal 0 0 1
    outer loop
      vertex 0.182083 3.59288 0
      vertex 0.204069 3.24359 0
      vertex 0.269638 3.58737 0
    endloop
  endfacet
  facet normal 0 0 1
    outer loop
      vertex 0.182083 3.59288 0
      vertex -0.608989 3.19243 0
      vertex 0.204069 3.24359 0
    endloop
  endfacet
  facet normal -0 0 1
    outer loop
      vertex -0.630951 3.54173 0
      vertex -0.608989 3.19243 0
      vertex 0.182083 3.59288 0
    endloop
  endfacet
  facet normal -0 0 1
    outer loop
      vertex -0.717133 3.5253 0
      vertex -0.608989 3.19243 0
      vertex -0.630951 3.54173 0
    endloop
  endfacet
  facet normal 0 0 1
    outer loop
      vertex -0.717133 3.5253 0
      vertex -1.38378 2.94069 0
      vertex -0.608989 3.19243 0
    endloop
  endfacet
  facet normal -0 0 1
    outer loop
      vertex -1.49193 3.27354 0
      vertex -1.38378 2.94069 0
      vertex -0.717133 3.5253 0
    endloop
  endfacet
  facet normal -0 0 1
    outer loop
      vertex -1.5713 3.23619 0
      vertex -1.38378 2.94069 0
      vertex -1.49193 3.27354 0
    endloop
  endfacet
  facet normal 0 0 1
    outer loop
      vertex -1.5713 3.23619 0
      vertex -2.07163 2.50417 0
      vertex -1.38378 2.94069 0
    endloop
  endfacet
  facet normal -0 0 1
    outer loop
      vertex -2.25916 2.79968 0
      vertex -2.07163 2.50417 0
      vertex -1.5713 3.23619 0
    endloop
  endfacet
  facet normal -0 0 1
    outer loop
      vertex -2.32677 2.74376 0
      vertex -2.07163 2.50417 0
      vertex -2.25916 2.79968 0
    endloop
  endfacet
  facet normal 0 0 1
    outer loop
      vertex -2.32677 2.74376 0
      vertex -2.6293 1.9103 0
      vertex -2.07163 2.50417 0
    endloop
  endfacet
  facet normal -0 0 1
    outer loop
      vertex -2.88445 2.14989 0
      vertex -2.6293 1.9103 0
      vertex -2.32677 2.74376 0
    endloop
  endfacet
  facet normal -0 0 1
    outer loop
      vertex -2.93602 2.0789 0
      vertex -2.6293 1.9103 0
      vertex -2.88445 2.14989 0
    endloop
  endfacet
  facet normal 0 0 1
    outer loop
      vertex -2.93602 2.0789 0
      vertex -3.02177 1.1964 0
      vertex -2.6293 1.9103 0
    endloop
  endfacet
  facet normal -0 0 1
    outer loop
      vertex -3.32848 1.36501 0
      vertex -3.02177 1.1964 0
      vertex -2.93602 2.0789 0
    endloop
  endfacet
  facet normal 0 0 1
    outer loop
      vertex -3.02177 1.1964 0
      vertex -3.36076 1.28343 0
      vertex -3.22437 0.407332 0
    endloop
  endfacet
  facet normal -0 0 1
    outer loop
      vertex -3.36076 1.28343 0
      vertex -3.02177 1.1964 0
      vertex -3.32848 1.36501 0
    endloop
  endfacet
  facet normal 0 0 1
    outer loop
      vertex 3.49513 -0.852097 0
      vertex 3.14789 -0.808242 0
      vertex 3.47331 -0.937073 0
    endloop
  endfacet
  facet normal 0 0 1
    outer loop
      vertex 3.47331 -0.937073 0
      vertex 3.14789 -0.808242 0
      vertex 3.17342 -1.69453 0
    endloop
  endfacet
  facet normal -0 0 1
    outer loop
      vertex 2.848 -1.5657 0
      vertex 3.17342 -1.69453 0
      vertex 3.14789 -0.808242 0
    endloop
  endfacet
  facet normal 0 0 1
    outer loop
      vertex 3.17342 -1.69453 0
      vertex 2.848 -1.5657 0
      vertex 3.13115 -1.77141 0
    endloop
  endfacet
  facet normal 0 0 1
    outer loop
      vertex 2.848 -1.5657 0
      vertex 2.6523 -2.4305 0
      vertex 3.13115 -1.77141 0
    endloop
  endfacet
  facet normal -0 0 1
    outer loop
      vertex 2.36915 -2.22478 0
      vertex 2.6523 -2.4305 0
      vertex 2.848 -1.5657 0
    endloop
  endfacet
  facet normal 0 0 1
    outer loop
      vertex 2.6523 -2.4305 0
      vertex 2.36915 -2.22478 0
      vertex 2.59224 -2.49446 0
    endloop
  endfacet
  facet normal 0 0 1
    outer loop
      vertex 2.36915 -2.22478 0
      vertex 1.96452 -3.01375 0
      vertex 2.59224 -2.49446 0
    endloop
  endfacet
  facet normal -0 0 1
    outer loop
      vertex 1.74144 -2.74407 0
      vertex 1.96452 -3.01375 0
      vertex 2.36915 -2.22478 0
    endloop
  endfacet
  facet normal 0 0 1
    outer loop
      vertex 1.96452 -3.01375 0
      vertex 1.74144 -2.74407 0
      vertex 1.89044 -3.06076 0
    endloop
  endfacet
  facet normal 0 0 1
    outer loop
      vertex 1.74144 -2.74407 0
      vertex 1.15332 -3.40762 0
      vertex 1.89044 -3.06076 0
    endloop
  endfacet
  facet normal -0 0 1
    outer loop
      vertex 1.0043 -3.09093 0
      vertex 1.15332 -3.40762 0
      vertex 1.74144 -2.74407 0
    endloop
  endfacet
  facet normal 0 0 1
    outer loop
      vertex 1.15332 -3.40762 0
      vertex 1.0043 -3.09093 0
      vertex 1.06989 -3.43472 0
    endloop
  endfacet
  facet normal 0 0 1
    outer loop
      vertex 1.0043 -3.09093 0
      vertex 0.269638 -3.58737 0
      vertex 1.06989 -3.43472 0
    endloop
  endfacet
  facet normal -0 0 1
    outer loop
      vertex 0.204069 -3.24359 0
      vertex 0.269638 -3.58737 0
      vertex 1.0043 -3.09093 0
    endloop
  endfacet
  facet normal 0 0 1
    outer loop
      vertex 0.204069 -3.24359 0
      vertex 0.182083 -3.59288 0
      vertex 0.269638 -3.58737 0
    endloop
  endfacet
  facet normal 0 0 1
    outer loop
      vertex -0.608989 -3.19243 0
      vertex 0.182083 -3.59288 0
      vertex 0.204069 -3.24359 0
    endloop
  endfacet
  facet normal 0 0 1
    outer loop
      vertex -0.608989 -3.19243 0
      vertex -0.630951 -3.54173 0
      vertex 0.182083 -3.59288 0
    endloop
  endfacet
  facet normal 0 0 1
    outer loop
      vertex -0.608989 -3.19243 0
      vertex -0.717133 -3.5253 0
      vertex -0.630951 -3.54173 0
    endloop
  endfacet
  facet normal 0 0 1
    outer loop
      vertex -1.38378 -2.94069 0
      vertex -0.717133 -3.5253 0
      vertex -0.608989 -3.19243 0
    endloop
  endfacet
  facet normal 0 0 1
    outer loop
      vertex -1.38378 -2.94069 0
      vertex -1.49193 -3.27354 0
      vertex -0.717133 -3.5253 0
    endloop
  endfacet
  facet normal 0 0 1
    outer loop
      vertex -1.38378 -2.94069 0
      vertex -1.5713 -3.23619 0
      vertex -1.49193 -3.27354 0
    endloop
  endfacet
  facet normal 0 0 1
    outer loop
      vertex -2.07163 -2.50417 0
      vertex -1.5713 -3.23619 0
      vertex -1.38378 -2.94069 0
    endloop
  endfacet
  facet normal 0 0 1
    outer loop
      vertex -2.07163 -2.50417 0
      vertex -2.25916 -2.79968 0
      vertex -1.5713 -3.23619 0
    endloop
  endfacet
  facet normal 0 0 1
    outer loop
      vertex -2.07163 -2.50417 0
      vertex -2.32677 -2.74376 0
      vertex -2.25916 -2.79968 0
    endloop
  endfacet
  facet normal 0 0 1
    outer loop
      vertex -2.6293 -1.9103 0
      vertex -2.32677 -2.74376 0
      vertex -2.07163 -2.50417 0
    endloop
  endfacet
  facet normal 0 0 1
    outer loop
      vertex -2.6293 -1.9103 0
      vertex -2.88445 -2.14989 0
      vertex -2.32677 -2.74376 0
    endloop
  endfacet
  facet normal 0 0 1
    outer loop
      vertex -2.6293 -1.9103 0
      vertex -2.93602 -2.0789 0
      vertex -2.88445 -2.14989 0
    endloop
  endfacet
  facet normal 0 0 1
    outer loop
      vertex -3.02177 -1.1964 0
      vertex -2.93602 -2.0789 0
      vertex -2.6293 -1.9103 0
    endloop
  endfacet
  facet normal 0 0 1
    outer loop
      vertex -3.36076 -1.28343 0
      vertex -3.02177 -1.1964 0
      vertex -3.22437 -0.407332 0
    endloop
  endfacet
  facet normal 0 0 1
    outer loop
      vertex -3.02177 -1.1964 0
      vertex -3.32848 -1.36501 0
      vertex -2.93602 -2.0789 0
    endloop
  endfacet
  facet normal -0 0 1
    outer loop
      vertex -3.56337 0.494354 0
      vertex -3.22437 0.407332 0
      vertex -3.36076 1.28343 0
    endloop
  endfacet
  facet normal 0 0 1
    outer loop
      vertex -3.57437 0.407318 0
      vertex -3.22437 0.407332 0
      vertex -3.56337 0.494354 0
    endloop
  endfacet
  facet normal 0 0 1
    outer loop
      vertex -3.02177 -1.1964 0
      vertex -3.36076 -1.28343 0
      vertex -3.32848 -1.36501 0
    endloop
  endfacet
  facet normal 0 0 1
    outer loop
      vertex -3.22437 0.407332 0
      vertex -3.57437 0.407318 0
      vertex -3.22437 -0.407332 0
    endloop
  endfacet
  facet normal 0 0 1
    outer loop
      vertex -3.22437 -0.407332 0
      vertex -3.56337 -0.494354 0
      vertex -3.36076 -1.28343 0
    endloop
  endfacet
  facet normal -0 0 1
    outer loop
      vertex -3.57437 -0.407318 0
      vertex -3.22437 -0.407332 0
      vertex -3.57437 0.407318 0
    endloop
  endfacet
  facet normal 0 0 1
    outer loop
      vertex -3.22437 -0.407332 0
      vertex -3.57437 -0.407318 0
      vertex -3.56337 -0.494354 0
    endloop
  endfacet
  facet normal -0.637426 -0.770512 0
    outer loop
      vertex -4.64484 -4.42273 -3
      vertex -3.67914 -5.22163 0
      vertex -4.64484 -4.42273 0
    endloop
  endfacet
  facet normal -0.637426 -0.770512 -0
    outer loop
      vertex -3.67914 -5.22163 0
      vertex -4.64484 -4.42273 -3
      vertex -3.67914 -5.22163 -3
    endloop
  endfacet
  facet normal 0.125338 -0.992114 0
    outer loop
      vertex 1 -6 -3
      vertex 2.24345 -5.84291 0
      vertex 1 -6 0
    endloop
  endfacet
  facet normal 0.125338 -0.992114 0
    outer loop
      vertex 2.24345 -5.84291 0
      vertex 1 -6 -3
      vertex 2.24345 -5.84291 -3
    endloop
  endfacet
  facet normal 0.904825 -0.425784 0
    outer loop
      vertex 5.22163 -3.67914 0
      vertex 5.75528 -2.54509 -3
      vertex 5.75528 -2.54509 0
    endloop
  endfacet
  facet normal 0.904825 -0.425784 0
    outer loop
      vertex 5.75528 -2.54509 -3
      vertex 5.22163 -3.67914 0
      vertex 5.22163 -3.67914 -3
    endloop
  endfacet
  facet normal -0.992114 0.12534 0
    outer loop
      vertex 3.14789 -0.808242 -3
      vertex 3.25 0 0
      vertex 3.25 0 -3
    endloop
  endfacet
  facet normal -0.992114 0.12534 0
    outer loop
      vertex 3.25 0 0
      vertex 3.14789 -0.808242 -3
      vertex 3.14789 -0.808242 0
    endloop
  endfacet
  facet normal -0.992114 -0.12534 0
    outer loop
      vertex 3.25 0 -3
      vertex 3.14789 0.808242 0
      vertex 3.14789 0.808242 -3
    endloop
  endfacet
  facet normal -0.992114 -0.12534 0
    outer loop
      vertex 3.14789 0.808242 0
      vertex 3.25 0 -3
      vertex 3.25 0 0
    endloop
  endfacet
  facet normal 0.876307 0.481754 0
    outer loop
      vertex -2.6293 -1.9103 0
      vertex -3.02177 -1.1964 -3
      vertex -3.02177 -1.1964 0
    endloop
  endfacet
  facet normal 0.876307 0.481754 0
    outer loop
      vertex -3.02177 -1.1964 -3
      vertex -2.6293 -1.9103 0
      vertex -2.6293 -1.9103 -3
    endloop
  endfacet
  facet normal -0.809017 0.587786 0
    outer loop
      vertex 2.36915 -2.22478 -3
      vertex 2.848 -1.5657 0
      vertex 2.848 -1.5657 -3
    endloop
  endfacet
  facet normal -0.809017 0.587786 0
    outer loop
      vertex 2.848 -1.5657 0
      vertex 2.36915 -2.22478 -3
      vertex 2.36915 -2.22478 0
    endloop
  endfacet
  facet normal -0.92978 0.368115 0
    outer loop
      vertex 2.848 -1.5657 -3
      vertex 3.14789 -0.808242 0
      vertex 3.14789 -0.808242 -3
    endloop
  endfacet
  facet normal -0.92978 0.368115 0
    outer loop
      vertex 3.14789 -0.808242 0
      vertex 2.848 -1.5657 -3
      vertex 2.848 -1.5657 0
    endloop
  endfacet
  facet normal -0.425767 -0.904833 0
    outer loop
      vertex 1.0043 3.09093 -3
      vertex 1.74144 2.74407 0
      vertex 1.0043 3.09093 0
    endloop
  endfacet
  facet normal -0.425767 -0.904833 -0
    outer loop
      vertex 1.74144 2.74407 0
      vertex 1.0043 3.09093 -3
      vertex 1.74144 2.74407 -3
    endloop
  endfacet
  facet normal 0.968583 0.248692 0
    outer loop
      vertex -3.02177 -1.1964 0
      vertex -3.22437 -0.407332 -3
      vertex -3.22437 -0.407332 0
    endloop
  endfacet
  facet normal 0.968583 0.248692 0
    outer loop
      vertex -3.22437 -0.407332 -3
      vertex -3.02177 -1.1964 0
      vertex -3.02177 -1.1964 -3
    endloop
  endfacet
  facet normal 0.728975 0.68454 0
    outer loop
      vertex -2.07163 -2.50417 0
      vertex -2.6293 -1.9103 -3
      vertex -2.6293 -1.9103 0
    endloop
  endfacet
  facet normal 0.728975 0.68454 0
    outer loop
      vertex -2.6293 -1.9103 -3
      vertex -2.07163 -2.50417 0
      vertex -2.07163 -2.50417 -3
    endloop
  endfacet
  facet normal 0.309012 0.951058 -0
    outer loop
      vertex -0.608989 -3.19243 -3
      vertex -1.38378 -2.94069 0
      vertex -0.608989 -3.19243 0
    endloop
  endfacet
  facet normal 0.309012 0.951058 0
    outer loop
      vertex -1.38378 -2.94069 0
      vertex -0.608989 -3.19243 -3
      vertex -1.38378 -2.94069 -3
    endloop
  endfacet
  facet normal 0.535824 0.84433 -0
    outer loop
      vertex -1.38378 -2.94069 -3
      vertex -2.07163 -2.50417 0
      vertex -1.38378 -2.94069 0
    endloop
  endfacet
  facet normal 0.535824 0.84433 0
    outer loop
      vertex -2.07163 -2.50417 0
      vertex -1.38378 -2.94069 -3
      vertex -2.07163 -2.50417 -3
    endloop
  endfacet
  facet normal 0.0627987 0.998026 -0
    outer loop
      vertex 0.204069 -3.24359 -3
      vertex -0.608989 -3.19243 0
      vertex 0.204069 -3.24359 0
    endloop
  endfacet
  facet normal 0.0627987 0.998026 0
    outer loop
      vertex -0.608989 -3.19243 0
      vertex 0.204069 -3.24359 -3
      vertex -0.608989 -3.19243 -3
    endloop
  endfacet
  facet normal -0.187391 0.982285 0
    outer loop
      vertex 1.0043 -3.09093 -3
      vertex 0.204069 -3.24359 0
      vertex 1.0043 -3.09093 0
    endloop
  endfacet
  facet normal -0.187391 0.982285 0
    outer loop
      vertex 0.204069 -3.24359 0
      vertex 1.0043 -3.09093 -3
      vertex 0.204069 -3.24359 -3
    endloop
  endfacet
  facet normal -0.637426 0.770511 0
    outer loop
      vertex 2.36915 -2.22478 -3
      vertex 1.74144 -2.74407 0
      vertex 2.36915 -2.22478 0
    endloop
  endfacet
  facet normal -0.637426 0.770511 0
    outer loop
      vertex 1.74144 -2.74407 0
      vertex 2.36915 -2.22478 -3
      vertex 1.74144 -2.74407 -3
    endloop
  endfacet
  facet normal 1 -0 0
    outer loop
      vertex -3.22437 -0.407332 0
      vertex -3.22437 0.407332 -3
      vertex -3.22437 0.407332 0
    endloop
  endfacet
  facet normal 1 0 0
    outer loop
      vertex -3.22437 0.407332 -3
      vertex -3.22437 -0.407332 0
      vertex -3.22437 -0.407332 -3
    endloop
  endfacet
  facet normal 0.968583 -0.248692 0
    outer loop
      vertex -3.22437 0.407332 0
      vertex -3.02177 1.1964 -3
      vertex -3.02177 1.1964 0
    endloop
  endfacet
  facet normal 0.968583 -0.248692 0
    outer loop
      vertex -3.02177 1.1964 -3
      vertex -3.22437 0.407332 0
      vertex -3.22437 0.407332 -3
    endloop
  endfacet
  facet normal 0.0627987 -0.998026 0
    outer loop
      vertex -0.608989 3.19243 -3
      vertex 0.204069 3.24359 0
      vertex -0.608989 3.19243 0
    endloop
  endfacet
  facet normal 0.0627987 -0.998026 0
    outer loop
      vertex 0.204069 3.24359 0
      vertex -0.608989 3.19243 -3
      vertex 0.204069 3.24359 -3
    endloop
  endfacet
  facet normal -0.637426 -0.770511 0
    outer loop
      vertex 1.74144 2.74407 -3
      vertex 2.36915 2.22478 0
      vertex 1.74144 2.74407 0
    endloop
  endfacet
  facet normal -0.637426 -0.770511 -0
    outer loop
      vertex 2.36915 2.22478 0
      vertex 1.74144 2.74407 -3
      vertex 2.36915 2.22478 -3
    endloop
  endfacet
  facet normal 0.876307 -0.481754 0
    outer loop
      vertex -3.02177 1.1964 0
      vertex -2.6293 1.9103 -3
      vertex -2.6293 1.9103 0
    endloop
  endfacet
  facet normal 0.876307 -0.481754 0
    outer loop
      vertex -2.6293 1.9103 -3
      vertex -3.02177 1.1964 0
      vertex -3.02177 1.1964 -3
    endloop
  endfacet
  facet normal 0.728975 -0.68454 0
    outer loop
      vertex -2.6293 1.9103 0
      vertex -2.07163 2.50417 -3
      vertex -2.07163 2.50417 0
    endloop
  endfacet
  facet normal 0.728975 -0.68454 0
    outer loop
      vertex -2.07163 2.50417 -3
      vertex -2.6293 1.9103 0
      vertex -2.6293 1.9103 -3
    endloop
  endfacet
  facet normal -0.187391 -0.982285 0
    outer loop
      vertex 0.204069 3.24359 -3
      vertex 1.0043 3.09093 0
      vertex 0.204069 3.24359 0
    endloop
  endfacet
  facet normal -0.187391 -0.982285 -0
    outer loop
      vertex 1.0043 3.09093 0
      vertex 0.204069 3.24359 -3
      vertex 1.0043 3.09093 -3
    endloop
  endfacet
  facet normal 0.535824 -0.84433 0
    outer loop
      vertex -2.07163 2.50417 -3
      vertex -1.38378 2.94069 0
      vertex -2.07163 2.50417 0
    endloop
  endfacet
  facet normal 0.535824 -0.84433 0
    outer loop
      vertex -1.38378 2.94069 0
      vertex -2.07163 2.50417 -3
      vertex -1.38378 2.94069 -3
    endloop
  endfacet
  facet normal -0.425767 0.904833 0
    outer loop
      vertex 1.74144 -2.74407 -3
      vertex 1.0043 -3.09093 0
      vertex 1.74144 -2.74407 0
    endloop
  endfacet
  facet normal -0.425767 0.904833 0
    outer loop
      vertex 1.0043 -3.09093 0
      vertex 1.74144 -2.74407 -3
      vertex 1.0043 -3.09093 -3
    endloop
  endfacet
  facet normal -0.809017 -0.587786 0
    outer loop
      vertex 2.848 1.5657 -3
      vertex 2.36915 2.22478 0
      vertex 2.36915 2.22478 -3
    endloop
  endfacet
  facet normal -0.809017 -0.587786 0
    outer loop
      vertex 2.36915 2.22478 0
      vertex 2.848 1.5657 -3
      vertex 2.848 1.5657 0
    endloop
  endfacet
  facet normal 0.309012 -0.951058 0
    outer loop
      vertex -1.38378 2.94069 -3
      vertex -0.608989 3.19243 0
      vertex -1.38378 2.94069 0
    endloop
  endfacet
  facet normal 0.309012 -0.951058 0
    outer loop
      vertex -0.608989 3.19243 0
      vertex -1.38378 2.94069 -3
      vertex -0.608989 3.19243 -3
    endloop
  endfacet
  facet normal -0.92978 -0.368115 0
    outer loop
      vertex 3.14789 0.808242 -3
      vertex 2.848 1.5657 0
      vertex 2.848 1.5657 -3
    endloop
  endfacet
  facet normal -0.92978 -0.368115 0
    outer loop
      vertex 2.848 1.5657 0
      vertex 3.14789 0.808242 -3
      vertex 3.14789 0.808242 0
    endloop
  endfacet
  facet normal 0 0 1
    outer loop
      vertex 3.47331 0.937073 0.4
      vertex 5.64999 0.977997 0.4
      vertex 5.50121 2.15573 0.4
    endloop
  endfacet
  facet normal 0 0 1
    outer loop
      vertex 5.64999 0.977997 0.4
      vertex 3.59724 0.043869 0.4
      vertex 5.64999 -0.972519 0.4
    endloop
  endfacet
  facet normal 0 0 1
    outer loop
      vertex 3.17342 1.69453 0.4
      vertex 5.50121 2.15573 0.4
      vertex 5.07237 3.23883 0.4
    endloop
  endfacet
  facet normal 0 0 1
    outer loop
      vertex 5.64999 -0.972519 0.4
      vertex 3.59724 0.043869 0.4
      vertex 3.59724 -0.043869 0.4
    endloop
  endfacet
  facet normal 0 0 1
    outer loop
      vertex 2.6523 2.4305 0.4
      vertex 5.07237 3.23883 0.4
      vertex 4.38768 4.18121 0.4
    endloop
  endfacet
  facet normal -0 0 1
    outer loop
      vertex 3.49513 -0.852097 0.4
      vertex 5.64999 -0.972519 0.4
      vertex 3.59724 -0.043869 0.4
    endloop
  endfacet
  facet normal -0 0 1
    outer loop
      vertex 3.47331 -0.937073 0.4
      vertex 5.64999 -0.972519 0.4
      vertex 3.49513 -0.852097 0.4
    endloop
  endfacet
  facet normal 0 0 1
    outer loop
      vertex 5.64999 0.977997 0.4
      vertex 3.49513 0.852097 0.4
      vertex 3.59724 0.043869 0.4
    endloop
  endfacet
  facet normal 0 0 1
    outer loop
      vertex 2.59224 2.49446 0.4
      vertex 4.38768 4.18121 0.4
      vertex 3.49011 4.92377 0.4
    endloop
  endfacet
  facet normal 0 0 1
    outer loop
      vertex 5.64999 0.977997 0.4
      vertex 3.47331 0.937073 0.4
      vertex 3.49513 0.852097 0.4
    endloop
  endfacet
  facet normal 0 0 1
    outer loop
      vertex 5.50121 2.15573 0.4
      vertex 3.17342 1.69453 0.4
      vertex 3.47331 0.937073 0.4
    endloop
  endfacet
  facet normal 0 0 1
    outer loop
      vertex 5.07237 3.23883 0.4
      vertex 3.13115 1.77141 0.4
      vertex 3.17342 1.69453 0.4
    endloop
  endfacet
  facet normal 0 0 1
    outer loop
      vertex 5.07237 3.23883 0.4
      vertex 2.6523 2.4305 0.4
      vertex 3.13115 1.77141 0.4
    endloop
  endfacet
  facet normal 0 0 1
    outer loop
      vertex 4.38768 4.18121 0.4
      vertex 2.59224 2.49446 0.4
      vertex 2.6523 2.4305 0.4
    endloop
  endfacet
  facet normal 0 0 1
    outer loop
      vertex 1.89044 3.06076 0.4
      vertex 3.49011 4.92377 0.4
      vertex 2.44112 5.41739 0.4
    endloop
  endfacet
  facet normal 0 0 1
    outer loop
      vertex 3.49011 4.92377 0.4
      vertex 1.96452 3.01375 0.4
      vertex 2.59224 2.49446 0.4
    endloop
  endfacet
  facet normal 0 0 1
    outer loop
      vertex 3.49011 4.92377 0.4
      vertex 1.89044 3.06076 0.4
      vertex 1.96452 3.01375 0.4
    endloop
  endfacet
  facet normal 0 0 1
    outer loop
      vertex 2.44112 5.41739 0.4
      vertex 1.15332 3.40762 0.4
      vertex 1.89044 3.06076 0.4
    endloop
  endfacet
  facet normal 0 0 1
    outer loop
      vertex 0.972519 5.64999 0.4
      vertex 1.15332 3.40762 0.4
      vertex 2.44112 5.41739 0.4
    endloop
  endfacet
  facet normal 0 0 1
    outer loop
      vertex 1.15332 3.40762 0.4
      vertex 0.972519 5.64999 0.4
      vertex 1.06989 3.43472 0.4
    endloop
  endfacet
  facet normal 0 0 1
    outer loop
      vertex 0.972519 5.64999 0.4
      vertex 0.269638 3.58737 0.4
      vertex 1.06989 3.43472 0.4
    endloop
  endfacet
  facet normal 0 0 1
    outer loop
      vertex 0.972519 5.64999 0.4
      vertex 0.182083 3.59288 0.4
      vertex 0.269638 3.58737 0.4
    endloop
  endfacet
  facet normal -0 0 1
    outer loop
      vertex -0.977997 5.64999 0.4
      vertex 0.182083 3.59288 0.4
      vertex 0.972519 5.64999 0.4
    endloop
  endfacet
  facet normal 0 0 1
    outer loop
      vertex 0.182083 3.59288 0.4
      vertex -0.977997 5.64999 0.4
      vertex -0.630951 3.54173 0.4
    endloop
  endfacet
  facet normal 0 0 1
    outer loop
      vertex -0.630951 3.54173 0.4
      vertex -0.977997 5.64999 0.4
      vertex -0.717133 3.5253 0.4
    endloop
  endfacet
  facet normal -0 0 1
    outer loop
      vertex -2.15573 5.50121 0.4
      vertex -0.717133 3.5253 0.4
      vertex -0.977997 5.64999 0.4
    endloop
  endfacet
  facet normal 0 0 1
    outer loop
      vertex -0.717133 3.5253 0.4
      vertex -2.15573 5.50121 0.4
      vertex -1.49193 3.27354 0.4
    endloop
  endfacet
  facet normal 0 0 1
    outer loop
      vertex -1.49193 3.27354 0.4
      vertex -2.15573 5.50121 0.4
      vertex -1.5713 3.23619 0.4
    endloop
  endfacet
  facet normal -0 0 1
    outer loop
      vertex -3.23883 5.07237 0.4
      vertex -1.5713 3.23619 0.4
      vertex -2.15573 5.50121 0.4
    endloop
  endfacet
  facet normal 0 0 1
    outer loop
      vertex -1.5713 3.23619 0.4
      vertex -3.23883 5.07237 0.4
      vertex -2.25916 2.79968 0.4
    endloop
  endfacet
  facet normal -0 0 1
    outer loop
      vertex -4.18121 4.38768 0.4
      vertex -2.25916 2.79968 0.4
      vertex -3.23883 5.07237 0.4
    endloop
  endfacet
  facet normal 0 0 1
    outer loop
      vertex -2.25916 2.79968 0.4
      vertex -4.18121 4.38768 0.4
      vertex -2.32677 2.74376 0.4
    endloop
  endfacet
  facet normal 0 0 1
    outer loop
      vertex -2.32677 2.74376 0.4
      vertex -4.18121 4.38768 0.4
      vertex -2.88445 2.14989 0.4
    endloop
  endfacet
  facet normal -0 0 1
    outer loop
      vertex -4.92377 3.49011 0.4
      vertex -2.88445 2.14989 0.4
      vertex -4.18121 4.38768 0.4
    endloop
  endfacet
  facet normal 0 0 1
    outer loop
      vertex -2.88445 2.14989 0.4
      vertex -4.92377 3.49011 0.4
      vertex -2.93602 2.0789 0.4
    endloop
  endfacet
  facet normal -0 0 1
    outer loop
      vertex -5.41739 2.44112 0.4
      vertex -2.93602 2.0789 0.4
      vertex -4.92377 3.49011 0.4
    endloop
  endfacet
  facet normal 0 0 1
    outer loop
      vertex -2.93602 2.0789 0.4
      vertex -5.41739 2.44112 0.4
      vertex -3.32848 1.36501 0.4
    endloop
  endfacet
  facet normal 0 0 1
    outer loop
      vertex -5.64999 0.972519 0.4
      vertex -3.36076 1.28343 0.4
      vertex -5.41739 2.44112 0.4
    endloop
  endfacet
  facet normal 0 0 1
    outer loop
      vertex -3.32848 1.36501 0.4
      vertex -5.41739 2.44112 0.4
      vertex -3.36076 1.28343 0.4
    endloop
  endfacet
  facet normal 0 0 1
    outer loop
      vertex 5.64999 -0.972519 0.4
      vertex 3.47331 -0.937073 0.4
      vertex 5.41739 -2.44112 0.4
    endloop
  endfacet
  facet normal -0 0 1
    outer loop
      vertex 3.17342 -1.69453 0.4
      vertex 5.41739 -2.44112 0.4
      vertex 3.47331 -0.937073 0.4
    endloop
  endfacet
  facet normal -0 0 1
    outer loop
      vertex 3.13115 -1.77141 0.4
      vertex 5.41739 -2.44112 0.4
      vertex 3.17342 -1.69453 0.4
    endloop
  endfacet
  facet normal 0 0 1
    outer loop
      vertex 5.41739 -2.44112 0.4
      vertex 3.13115 -1.77141 0.4
      vertex 4.92377 -3.49011 0.4
    endloop
  endfacet
  facet normal -0 0 1
    outer loop
      vertex 2.6523 -2.4305 0.4
      vertex 4.92377 -3.49011 0.4
      vertex 3.13115 -1.77141 0.4
    endloop
  endfacet
  facet normal 0 0 1
    outer loop
      vertex 4.92377 -3.49011 0.4
      vertex 2.6523 -2.4305 0.4
      vertex 4.18121 -4.38768 0.4
    endloop
  endfacet
  facet normal -0 0 1
    outer loop
      vertex 2.59224 -2.49446 0.4
      vertex 4.18121 -4.38768 0.4
      vertex 2.6523 -2.4305 0.4
    endloop
  endfacet
  facet normal -0 0 1
    outer loop
      vertex 1.96452 -3.01375 0.4
      vertex 4.18121 -4.38768 0.4
      vertex 2.59224 -2.49446 0.4
    endloop
  endfacet
  facet normal 0 0 1
    outer loop
      vertex 4.18121 -4.38768 0.4
      vertex 1.96452 -3.01375 0.4
      vertex 3.23883 -5.07237 0.4
    endloop
  endfacet
  facet normal -0 0 1
    outer loop
      vertex 1.89044 -3.06076 0.4
      vertex 3.23883 -5.07237 0.4
      vertex 1.96452 -3.01375 0.4
    endloop
  endfacet
  facet normal 0 0 1
    outer loop
      vertex 3.23883 -5.07237 0.4
      vertex 1.89044 -3.06076 0.4
      vertex 2.15573 -5.50121 0.4
    endloop
  endfacet
  facet normal -0 0 1
    outer loop
      vertex 1.15332 -3.40762 0.4
      vertex 2.15573 -5.50121 0.4
      vertex 1.89044 -3.06076 0.4
    endloop
  endfacet
  facet normal -0 0 1
    outer loop
      vertex 1.06989 -3.43472 0.4
      vertex 2.15573 -5.50121 0.4
      vertex 1.15332 -3.40762 0.4
    endloop
  endfacet
  facet normal 0 0 1
    outer loop
      vertex 1.06989 -3.43472 0.4
      vertex 0.977997 -5.64999 0.4
      vertex 2.15573 -5.50121 0.4
    endloop
  endfacet
  facet normal -0 0 1
    outer loop
      vertex 0.269638 -3.58737 0.4
      vertex 0.977997 -5.64999 0.4
      vertex 1.06989 -3.43472 0.4
    endloop
  endfacet
  facet normal -0 0 1
    outer loop
      vertex 0.182083 -3.59288 0.4
      vertex 0.977997 -5.64999 0.4
      vertex 0.269638 -3.58737 0.4
    endloop
  endfacet
  facet normal 0 0 1
    outer loop
      vertex -0.972519 -5.64999 0.4
      vertex 0.182083 -3.59288 0.4
      vertex -0.630951 -3.54173 0.4
    endloop
  endfacet
  facet normal 0 0 1
    outer loop
      vertex -0.972519 -5.64999 0.4
      vertex -0.630951 -3.54173 0.4
      vertex -0.717133 -3.5253 0.4
    endloop
  endfacet
  facet normal 0 0 1
    outer loop
      vertex 0.182083 -3.59288 0.4
      vertex -0.972519 -5.64999 0.4
      vertex 0.977997 -5.64999 0.4
    endloop
  endfacet
  facet normal 0 0 1
    outer loop
      vertex -1.49193 -3.27354 0.4
      vertex -0.972519 -5.64999 0.4
      vertex -0.717133 -3.5253 0.4
    endloop
  endfacet
  facet normal 0 0 1
    outer loop
      vertex -2.44112 -5.41739 0.4
      vertex -1.49193 -3.27354 0.4
      vertex -1.5713 -3.23619 0.4
    endloop
  endfacet
  facet normal 0 0 1
    outer loop
      vertex -3.49011 -4.92377 0.4
      vertex -1.5713 -3.23619 0.4
      vertex -2.25916 -2.79968 0.4
    endloop
  endfacet
  facet normal 0 0 1
    outer loop
      vertex -3.49011 -4.92377 0.4
      vertex -2.25916 -2.79968 0.4
      vertex -2.32677 -2.74376 0.4
    endloop
  endfacet
  facet normal 0 0 1
    outer loop
      vertex -1.49193 -3.27354 0.4
      vertex -2.44112 -5.41739 0.4
      vertex -0.972519 -5.64999 0.4
    endloop
  endfacet
  facet normal 0 0 1
    outer loop
      vertex -4.38768 -4.18121 0.4
      vertex -2.32677 -2.74376 0.4
      vertex -2.88445 -2.14989 0.4
    endloop
  endfacet
  facet normal 0 0 1
    outer loop
      vertex -5.07237 -3.23883 0.4
      vertex -2.88445 -2.14989 0.4
      vertex -2.93602 -2.0789 0.4
    endloop
  endfacet
  facet normal 0 0 1
    outer loop
      vertex -5.07237 -3.23883 0.4
      vertex -2.93602 -2.0789 0.4
      vertex -3.32848 -1.36501 0.4
    endloop
  endfacet
  facet normal 0 0 1
    outer loop
      vertex -5.50121 -2.15573 0.4
      vertex -3.32848 -1.36501 0.4
      vertex -3.36076 -1.28343 0.4
    endloop
  endfacet
  facet normal 0 0 1
    outer loop
      vertex -1.5713 -3.23619 0.4
      vertex -3.49011 -4.92377 0.4
      vertex -2.44112 -5.41739 0.4
    endloop
  endfacet
  facet normal -0 0 1
    outer loop
      vertex -5.64999 -0.977997 0.4
      vertex -3.36076 -1.28343 0.4
      vertex -3.56337 -0.494354 0.4
    endloop
  endfacet
  facet normal 0 0 1
    outer loop
      vertex -5.64999 -0.977997 0.4
      vertex -3.56337 -0.494354 0.4
      vertex -3.57437 -0.407318 0.4
    endloop
  endfacet
  facet normal 0 0 1
    outer loop
      vertex -3.36076 1.28343 0.4
      vertex -5.64999 0.972519 0.4
      vertex -3.56337 0.494354 0.4
    endloop
  endfacet
  facet normal 0 0 1
    outer loop
      vertex -5.64999 -0.977997 0.4
      vertex -3.57437 -0.407318 0.4
      vertex -5.64999 0.972519 0.4
    endloop
  endfacet
  facet normal 0 0 1
    outer loop
      vertex -3.56337 0.494354 0.4
      vertex -5.64999 0.972519 0.4
      vertex -3.57437 0.407318 0.4
    endloop
  endfacet
  facet normal 0 0 1
    outer loop
      vertex -3.36076 -1.28343 0.4
      vertex -5.64999 -0.977997 0.4
      vertex -5.50121 -2.15573 0.4
    endloop
  endfacet
  facet normal 0 0 1
    outer loop
      vertex -3.57437 0.407318 0.4
      vertex -5.64999 0.972519 0.4
      vertex -3.57437 -0.407318 0.4
    endloop
  endfacet
  facet normal 0 0 1
    outer loop
      vertex -2.32677 -2.74376 0.4
      vertex -4.38768 -4.18121 0.4
      vertex -3.49011 -4.92377 0.4
    endloop
  endfacet
  facet normal 0 0 1
    outer loop
      vertex -2.88445 -2.14989 0.4
      vertex -5.07237 -3.23883 0.4
      vertex -4.38768 -4.18121 0.4
    endloop
  endfacet
  facet normal 0 0 1
    outer loop
      vertex -3.32848 -1.36501 0.4
      vertex -5.50121 -2.15573 0.4
      vertex -5.07237 -3.23883 0.4
    endloop
  endfacet
  facet normal 0.368132 -0.929773 0
    outer loop
      vertex 2.15573 -5.50121 0
      vertex 3.23883 -5.07237 0.4
      vertex 2.15573 -5.50121 0.4
    endloop
  endfacet
  facet normal 0.368132 -0.929773 0
    outer loop
      vertex 3.23883 -5.07237 0.4
      vertex 2.15573 -5.50121 0
      vertex 3.23883 -5.07237 0
    endloop
  endfacet
  facet normal 0.587791 -0.809013 0
    outer loop
      vertex 3.23883 -5.07237 0
      vertex 4.18121 -4.38768 0.4
      vertex 3.23883 -5.07237 0.4
    endloop
  endfacet
  facet normal 0.587791 -0.809013 0
    outer loop
      vertex 4.18121 -4.38768 0.4
      vertex 3.23883 -5.07237 0
      vertex 4.18121 -4.38768 0
    endloop
  endfacet
  facet normal 0.770502 -0.637437 0
    outer loop
      vertex 4.18121 -4.38768 0.4
      vertex 4.92377 -3.49011 0
      vertex 4.92377 -3.49011 0.4
    endloop
  endfacet
  facet normal 0.770502 -0.637437 0
    outer loop
      vertex 4.92377 -3.49011 0
      vertex 4.18121 -4.38768 0.4
      vertex 4.18121 -4.38768 0
    endloop
  endfacet
  facet normal 0.904826 -0.425781 0
    outer loop
      vertex 4.92377 -3.49011 0.4
      vertex 5.41739 -2.44112 0
      vertex 5.41739 -2.44112 0.4
    endloop
  endfacet
  facet normal 0.904826 -0.425781 0
    outer loop
      vertex 5.41739 -2.44112 0
      vertex 4.92377 -3.49011 0.4
      vertex 4.92377 -3.49011 0
    endloop
  endfacet
  facet normal 0.987689 -0.156432 0
    outer loop
      vertex 5.41739 -2.44112 0.4
      vertex 5.64999 -0.972519 0
      vertex 5.64999 -0.972519 0.4
    endloop
  endfacet
  facet normal 0.987689 -0.156432 0
    outer loop
      vertex 5.64999 -0.972519 0
      vertex 5.41739 -2.44112 0.4
      vertex 5.41739 -2.44112 0
    endloop
  endfacet
  facet normal 1 -0 0
    outer loop
      vertex 5.64999 -0.972519 0.4
      vertex 5.64999 0.977997 0
      vertex 5.64999 0.977997 0.4
    endloop
  endfacet
  facet normal 1 0 0
    outer loop
      vertex 5.64999 0.977997 0
      vertex 5.64999 -0.972519 0.4
      vertex 5.64999 -0.972519 0
    endloop
  endfacet
  facet normal 0.992115 0.125331 0
    outer loop
      vertex 5.64999 0.977997 0.4
      vertex 5.50121 2.15573 0
      vertex 5.50121 2.15573 0.4
    endloop
  endfacet
  facet normal 0.992115 0.125331 0
    outer loop
      vertex 5.50121 2.15573 0
      vertex 5.64999 0.977997 0.4
      vertex 5.64999 0.977997 0
    endloop
  endfacet
  facet normal 0.929773 0.368132 0
    outer loop
      vertex 5.50121 2.15573 0.4
      vertex 5.07237 3.23883 0
      vertex 5.07237 3.23883 0.4
    endloop
  endfacet
  facet normal 0.929773 0.368132 0
    outer loop
      vertex 5.07237 3.23883 0
      vertex 5.50121 2.15573 0.4
      vertex 5.50121 2.15573 0
    endloop
  endfacet
  facet normal 0.809013 0.587791 0
    outer loop
      vertex 5.07237 3.23883 0.4
      vertex 4.38768 4.18121 0
      vertex 4.38768 4.18121 0.4
    endloop
  endfacet
  facet normal 0.809013 0.587791 0
    outer loop
      vertex 4.38768 4.18121 0
      vertex 5.07237 3.23883 0.4
      vertex 5.07237 3.23883 0
    endloop
  endfacet
  facet normal 0.637437 0.770502 -0
    outer loop
      vertex 4.38768 4.18121 0
      vertex 3.49011 4.92377 0.4
      vertex 4.38768 4.18121 0.4
    endloop
  endfacet
  facet normal 0.637437 0.770502 0
    outer loop
      vertex 3.49011 4.92377 0.4
      vertex 4.38768 4.18121 0
      vertex 3.49011 4.92377 0
    endloop
  endfacet
  facet normal 0.425781 0.904826 -0
    outer loop
      vertex 3.49011 4.92377 0
      vertex 2.44112 5.41739 0.4
      vertex 3.49011 4.92377 0.4
    endloop
  endfacet
  facet normal 0.425781 0.904826 0
    outer loop
      vertex 2.44112 5.41739 0.4
      vertex 3.49011 4.92377 0
      vertex 2.44112 5.41739 0
    endloop
  endfacet
  facet normal 0.156432 0.987689 -0
    outer loop
      vertex 2.44112 5.41739 0
      vertex 0.972519 5.64999 0.4
      vertex 2.44112 5.41739 0.4
    endloop
  endfacet
  facet normal 0.156432 0.987689 0
    outer loop
      vertex 0.972519 5.64999 0.4
      vertex 2.44112 5.41739 0
      vertex 0.972519 5.64999 0
    endloop
  endfacet
  facet normal 0 1 -0
    outer loop
      vertex 0.972519 5.64999 0
      vertex -0.977997 5.64999 0.4
      vertex 0.972519 5.64999 0.4
    endloop
  endfacet
  facet normal 0 1 0
    outer loop
      vertex -0.977997 5.64999 0.4
      vertex 0.972519 5.64999 0
      vertex -0.977997 5.64999 0
    endloop
  endfacet
  facet normal -0.125331 0.992115 0
    outer loop
      vertex -0.977997 5.64999 0
      vertex -2.15573 5.50121 0.4
      vertex -0.977997 5.64999 0.4
    endloop
  endfacet
  facet normal -0.125331 0.992115 0
    outer loop
      vertex -2.15573 5.50121 0.4
      vertex -0.977997 5.64999 0
      vertex -2.15573 5.50121 0
    endloop
  endfacet
  facet normal -0.368132 0.929773 0
    outer loop
      vertex -2.15573 5.50121 0
      vertex -3.23883 5.07237 0.4
      vertex -2.15573 5.50121 0.4
    endloop
  endfacet
  facet normal -0.368132 0.929773 0
    outer loop
      vertex -3.23883 5.07237 0.4
      vertex -2.15573 5.50121 0
      vertex -3.23883 5.07237 0
    endloop
  endfacet
  facet normal -0.587791 0.809013 0
    outer loop
      vertex -3.23883 5.07237 0
      vertex -4.18121 4.38768 0.4
      vertex -3.23883 5.07237 0.4
    endloop
  endfacet
  facet normal -0.587791 0.809013 0
    outer loop
      vertex -4.18121 4.38768 0.4
      vertex -3.23883 5.07237 0
      vertex -4.18121 4.38768 0
    endloop
  endfacet
  facet normal -0.770502 0.637437 0
    outer loop
      vertex -4.92377 3.49011 0
      vertex -4.18121 4.38768 0.4
      vertex -4.18121 4.38768 0
    endloop
  endfacet
  facet normal -0.770502 0.637437 0
    outer loop
      vertex -4.18121 4.38768 0.4
      vertex -4.92377 3.49011 0
      vertex -4.92377 3.49011 0.4
    endloop
  endfacet
  facet normal -0.904826 0.425781 0
    outer loop
      vertex -5.41739 2.44112 0
      vertex -4.92377 3.49011 0.4
      vertex -4.92377 3.49011 0
    endloop
  endfacet
  facet normal -0.904826 0.425781 0
    outer loop
      vertex -4.92377 3.49011 0.4
      vertex -5.41739 2.44112 0
      vertex -5.41739 2.44112 0.4
    endloop
  endfacet
  facet normal -0.987689 0.156432 0
    outer loop
      vertex -5.64999 0.972519 0
      vertex -5.41739 2.44112 0.4
      vertex -5.41739 2.44112 0
    endloop
  endfacet
  facet normal -0.987689 0.156432 0
    outer loop
      vertex -5.41739 2.44112 0.4
      vertex -5.64999 0.972519 0
      vertex -5.64999 0.972519 0.4
    endloop
  endfacet
  facet normal -1 0 0
    outer loop
      vertex -5.64999 -0.977997 0
      vertex -5.64999 0.972519 0.4
      vertex -5.64999 0.972519 0
    endloop
  endfacet
  facet normal -1 -0 0
    outer loop
      vertex -5.64999 0.972519 0.4
      vertex -5.64999 -0.977997 0
      vertex -5.64999 -0.977997 0.4
    endloop
  endfacet
  facet normal -0.992115 -0.125331 0
    outer loop
      vertex -5.50121 -2.15573 0
      vertex -5.64999 -0.977997 0.4
      vertex -5.64999 -0.977997 0
    endloop
  endfacet
  facet normal -0.992115 -0.125331 0
    outer loop
      vertex -5.64999 -0.977997 0.4
      vertex -5.50121 -2.15573 0
      vertex -5.50121 -2.15573 0.4
    endloop
  endfacet
  facet normal -0.929773 -0.368132 0
    outer loop
      vertex -5.07237 -3.23883 0
      vertex -5.50121 -2.15573 0.4
      vertex -5.50121 -2.15573 0
    endloop
  endfacet
  facet normal -0.929773 -0.368132 0
    outer loop
      vertex -5.50121 -2.15573 0.4
      vertex -5.07237 -3.23883 0
      vertex -5.07237 -3.23883 0.4
    endloop
  endfacet
  facet normal -0.809013 -0.587791 0
    outer loop
      vertex -4.38768 -4.18121 0
      vertex -5.07237 -3.23883 0.4
      vertex -5.07237 -3.23883 0
    endloop
  endfacet
  facet normal -0.809013 -0.587791 0
    outer loop
      vertex -5.07237 -3.23883 0.4
      vertex -4.38768 -4.18121 0
      vertex -4.38768 -4.18121 0.4
    endloop
  endfacet
  facet normal -0.637437 -0.770502 0
    outer loop
      vertex -4.38768 -4.18121 0
      vertex -3.49011 -4.92377 0.4
      vertex -4.38768 -4.18121 0.4
    endloop
  endfacet
  facet normal -0.637437 -0.770502 -0
    outer loop
      vertex -3.49011 -4.92377 0.4
      vertex -4.38768 -4.18121 0
      vertex -3.49011 -4.92377 0
    endloop
  endfacet
  facet normal -0.425781 -0.904826 0
    outer loop
      vertex -3.49011 -4.92377 0
      vertex -2.44112 -5.41739 0.4
      vertex -3.49011 -4.92377 0.4
    endloop
  endfacet
  facet normal -0.425781 -0.904826 -0
    outer loop
      vertex -2.44112 -5.41739 0.4
      vertex -3.49011 -4.92377 0
      vertex -2.44112 -5.41739 0
    endloop
  endfacet
  facet normal -0.156432 -0.987689 0
    outer loop
      vertex -2.44112 -5.41739 0
      vertex -0.972519 -5.64999 0.4
      vertex -2.44112 -5.41739 0.4
    endloop
  endfacet
  facet normal -0.156432 -0.987689 -0
    outer loop
      vertex -0.972519 -5.64999 0.4
      vertex -2.44112 -5.41739 0
      vertex -0.972519 -5.64999 0
    endloop
  endfacet
  facet normal 0 -1 0
    outer loop
      vertex -0.972519 -5.64999 0
      vertex 0.977997 -5.64999 0.4
      vertex -0.972519 -5.64999 0.4
    endloop
  endfacet
  facet normal 0 -1 -0
    outer loop
      vertex 0.977997 -5.64999 0.4
      vertex -0.972519 -5.64999 0
      vertex 0.977997 -5.64999 0
    endloop
  endfacet
  facet normal 0.125331 -0.992115 0
    outer loop
      vertex 0.977997 -5.64999 0
      vertex 2.15573 -5.50121 0.4
      vertex 0.977997 -5.64999 0.4
    endloop
  endfacet
  facet normal 0.125331 -0.992115 0
    outer loop
      vertex 2.15573 -5.50121 0.4
      vertex 0.977997 -5.64999 0
      vertex 2.15573 -5.50121 0
    endloop
  endfacet
  facet normal 0.18727 0.982308 -0
    outer loop
      vertex -0.630951 -3.54173 0
      vertex -0.717133 -3.5253 0.4
      vertex -0.630951 -3.54173 0.4
    endloop
  endfacet
  facet normal 0.18727 0.982308 0
    outer loop
      vertex -0.717133 -3.5253 0.4
      vertex -0.630951 -3.54173 0
      vertex -0.717133 -3.5253 0
    endloop
  endfacet
  facet normal 0.309032 0.951052 -0
    outer loop
      vertex -0.717133 -3.5253 0
      vertex -1.49193 -3.27354 0.4
      vertex -0.717133 -3.5253 0.4
    endloop
  endfacet
  facet normal 0.309032 0.951052 0
    outer loop
      vertex -1.49193 -3.27354 0.4
      vertex -0.717133 -3.5253 0
      vertex -1.49193 -3.27354 0
    endloop
  endfacet
  facet normal 0.425792 0.904821 -0
    outer loop
      vertex -1.49193 -3.27354 0
      vertex -1.5713 -3.23619 0.4
      vertex -1.49193 -3.27354 0.4
    endloop
  endfacet
  facet normal 0.425792 0.904821 0
    outer loop
      vertex -1.5713 -3.23619 0.4
      vertex -1.49193 -3.27354 0
      vertex -1.5713 -3.23619 0
    endloop
  endfacet
  facet normal 0.53581 0.844339 -0
    outer loop
      vertex -1.5713 -3.23619 0
      vertex -2.25916 -2.79968 0.4
      vertex -1.5713 -3.23619 0.4
    endloop
  endfacet
  facet normal 0.53581 0.844339 0
    outer loop
      vertex -2.25916 -2.79968 0.4
      vertex -1.5713 -3.23619 0
      vertex -2.25916 -2.79968 0
    endloop
  endfacet
  facet normal 0.637344 0.77058 -0
    outer loop
      vertex -2.25916 -2.79968 0
      vertex -2.32677 -2.74376 0.4
      vertex -2.25916 -2.79968 0.4
    endloop
  endfacet
  facet normal 0.637344 0.77058 0
    outer loop
      vertex -2.32677 -2.74376 0.4
      vertex -2.25916 -2.79968 0
      vertex -2.32677 -2.74376 0
    endloop
  endfacet
  facet normal 0.728969 0.684546 0
    outer loop
      vertex -2.32677 -2.74376 0.4
      vertex -2.88445 -2.14989 0
      vertex -2.88445 -2.14989 0.4
    endloop
  endfacet
  facet normal 0.728969 0.684546 0
    outer loop
      vertex -2.88445 -2.14989 0
      vertex -2.32677 -2.74376 0.4
      vertex -2.32677 -2.74376 0
    endloop
  endfacet
  facet normal 0.809056 0.587731 0
    outer loop
      vertex -2.88445 -2.14989 0.4
      vertex -2.93602 -2.0789 0
      vertex -2.93602 -2.0789 0.4
    endloop
  endfacet
  facet normal 0.809056 0.587731 0
    outer loop
      vertex -2.93602 -2.0789 0
      vertex -2.88445 -2.14989 0.4
      vertex -2.88445 -2.14989 0
    endloop
  endfacet
  facet normal 0.876309 0.48175 0
    outer loop
      vertex -2.93602 -2.0789 0.4
      vertex -3.32848 -1.36501 0
      vertex -3.32848 -1.36501 0.4
    endloop
  endfacet
  facet normal 0.876309 0.48175 0
    outer loop
      vertex -3.32848 -1.36501 0
      vertex -2.93602 -2.0789 0.4
      vertex -2.93602 -2.0789 0
    endloop
  endfacet
  facet normal 0.929854 0.367929 0
    outer loop
      vertex -3.32848 -1.36501 0.4
      vertex -3.36076 -1.28343 0
      vertex -3.36076 -1.28343 0.4
    endloop
  endfacet
  facet normal 0.929854 0.367929 0
    outer loop
      vertex -3.36076 -1.28343 0
      vertex -3.32848 -1.36501 0.4
      vertex -3.32848 -1.36501 0
    endloop
  endfacet
  facet normal 0.96858 0.248701 0
    outer loop
      vertex -3.36076 -1.28343 0.4
      vertex -3.56337 -0.494354 0
      vertex -3.56337 -0.494354 0.4
    endloop
  endfacet
  facet normal 0.96858 0.248701 0
    outer loop
      vertex -3.56337 -0.494354 0
      vertex -3.36076 -1.28343 0.4
      vertex -3.36076 -1.28343 0
    endloop
  endfacet
  facet normal 0.992108 0.125387 0
    outer loop
      vertex -3.56337 -0.494354 0.4
      vertex -3.57437 -0.407318 0
      vertex -3.57437 -0.407318 0.4
    endloop
  endfacet
  facet normal 0.992108 0.125387 0
    outer loop
      vertex -3.57437 -0.407318 0
      vertex -3.56337 -0.494354 0.4
      vertex -3.56337 -0.494354 0
    endloop
  endfacet
  facet normal 1 -0 0
    outer loop
      vertex -3.57437 -0.407318 0.4
      vertex -3.57437 0.407318 0
      vertex -3.57437 0.407318 0.4
    endloop
  endfacet
  facet normal 1 0 0
    outer loop
      vertex -3.57437 0.407318 0
      vertex -3.57437 -0.407318 0.4
      vertex -3.57437 -0.407318 0
    endloop
  endfacet
  facet normal 0.992108 -0.125387 0
    outer loop
      vertex -3.57437 0.407318 0.4
      vertex -3.56337 0.494354 0
      vertex -3.56337 0.494354 0.4
    endloop
  endfacet
  facet normal 0.992108 -0.125387 0
    outer loop
      vertex -3.56337 0.494354 0
      vertex -3.57437 0.407318 0.4
      vertex -3.57437 0.407318 0
    endloop
  endfacet
  facet normal 0.96858 -0.248701 0
    outer loop
      vertex -3.56337 0.494354 0.4
      vertex -3.36076 1.28343 0
      vertex -3.36076 1.28343 0.4
    endloop
  endfacet
  facet normal 0.96858 -0.248701 0
    outer loop
      vertex -3.36076 1.28343 0
      vertex -3.56337 0.494354 0.4
      vertex -3.56337 0.494354 0
    endloop
  endfacet
  facet normal 0.929854 -0.367929 0
    outer loop
      vertex -3.36076 1.28343 0.4
      vertex -3.32848 1.36501 0
      vertex -3.32848 1.36501 0.4
    endloop
  endfacet
  facet normal 0.929854 -0.367929 0
    outer loop
      vertex -3.32848 1.36501 0
      vertex -3.36076 1.28343 0.4
      vertex -3.36076 1.28343 0
    endloop
  endfacet
  facet normal 0.876309 -0.48175 0
    outer loop
      vertex -3.32848 1.36501 0.4
      vertex -2.93602 2.0789 0
      vertex -2.93602 2.0789 0.4
    endloop
  endfacet
  facet normal 0.876309 -0.48175 0
    outer loop
      vertex -2.93602 2.0789 0
      vertex -3.32848 1.36501 0.4
      vertex -3.32848 1.36501 0
    endloop
  endfacet
  facet normal 0.809056 -0.587731 0
    outer loop
      vertex -2.93602 2.0789 0.4
      vertex -2.88445 2.14989 0
      vertex -2.88445 2.14989 0.4
    endloop
  endfacet
  facet normal 0.809056 -0.587731 0
    outer loop
      vertex -2.88445 2.14989 0
      vertex -2.93602 2.0789 0.4
      vertex -2.93602 2.0789 0
    endloop
  endfacet
  facet normal 0.728969 -0.684546 0
    outer loop
      vertex -2.88445 2.14989 0.4
      vertex -2.32677 2.74376 0
      vertex -2.32677 2.74376 0.4
    endloop
  endfacet
  facet normal 0.728969 -0.684546 0
    outer loop
      vertex -2.32677 2.74376 0
      vertex -2.88445 2.14989 0.4
      vertex -2.88445 2.14989 0
    endloop
  endfacet
  facet normal 0.637344 -0.77058 0
    outer loop
      vertex -2.32677 2.74376 0
      vertex -2.25916 2.79968 0.4
      vertex -2.32677 2.74376 0.4
    endloop
  endfacet
  facet normal 0.637344 -0.77058 0
    outer loop
      vertex -2.25916 2.79968 0.4
      vertex -2.32677 2.74376 0
      vertex -2.25916 2.79968 0
    endloop
  endfacet
  facet normal 0.53581 -0.844339 0
    outer loop
      vertex -2.25916 2.79968 0
      vertex -1.5713 3.23619 0.4
      vertex -2.25916 2.79968 0.4
    endloop
  endfacet
  facet normal 0.53581 -0.844339 0
    outer loop
      vertex -1.5713 3.23619 0.4
      vertex -2.25916 2.79968 0
      vertex -1.5713 3.23619 0
    endloop
  endfacet
  facet normal 0.425792 -0.904821 0
    outer loop
      vertex -1.5713 3.23619 0
      vertex -1.49193 3.27354 0.4
      vertex -1.5713 3.23619 0.4
    endloop
  endfacet
  facet normal 0.425792 -0.904821 0
    outer loop
      vertex -1.49193 3.27354 0.4
      vertex -1.5713 3.23619 0
      vertex -1.49193 3.27354 0
    endloop
  endfacet
  facet normal 0.309032 -0.951052 0
    outer loop
      vertex -1.49193 3.27354 0
      vertex -0.717133 3.5253 0.4
      vertex -1.49193 3.27354 0.4
    endloop
  endfacet
  facet normal 0.309032 -0.951052 0
    outer loop
      vertex -0.717133 3.5253 0.4
      vertex -1.49193 3.27354 0
      vertex -0.717133 3.5253 0
    endloop
  endfacet
  facet normal 0.18727 -0.982308 0
    outer loop
      vertex -0.717133 3.5253 0
      vertex -0.630951 3.54173 0.4
      vertex -0.717133 3.5253 0.4
    endloop
  endfacet
  facet normal 0.18727 -0.982308 0
    outer loop
      vertex -0.630951 3.54173 0.4
      vertex -0.717133 3.5253 0
      vertex -0.630951 3.54173 0
    endloop
  endfacet
  facet normal 0.0627884 -0.998027 0
    outer loop
      vertex -0.630951 3.54173 0
      vertex 0.182083 3.59288 0.4
      vertex -0.630951 3.54173 0.4
    endloop
  endfacet
  facet normal 0.0627884 -0.998027 0
    outer loop
      vertex 0.182083 3.59288 0.4
      vertex -0.630951 3.54173 0
      vertex 0.182083 3.59288 0
    endloop
  endfacet
  facet normal -0.0628076 -0.998026 0
    outer loop
      vertex 0.182083 3.59288 0
      vertex 0.269638 3.58737 0.4
      vertex 0.182083 3.59288 0.4
    endloop
  endfacet
  facet normal -0.0628076 -0.998026 -0
    outer loop
      vertex 0.269638 3.58737 0.4
      vertex 0.182083 3.59288 0
      vertex 0.269638 3.58737 0
    endloop
  endfacet
  facet normal -0.187374 -0.982289 0
    outer loop
      vertex 0.269638 3.58737 0
      vertex 1.06989 3.43472 0.4
      vertex 0.269638 3.58737 0.4
    endloop
  endfacet
  facet normal -0.187374 -0.982289 -0
    outer loop
      vertex 1.06989 3.43472 0.4
      vertex 0.269638 3.58737 0
      vertex 1.06989 3.43472 0
    endloop
  endfacet
  facet normal -0.308934 -0.951083 0
    outer loop
      vertex 1.06989 3.43472 0
      vertex 1.15332 3.40762 0.4
      vertex 1.06989 3.43472 0.4
    endloop
  endfacet
  facet normal -0.308934 -0.951083 -0
    outer loop
      vertex 1.15332 3.40762 0.4
      vertex 1.06989 3.43472 0
      vertex 1.15332 3.40762 0
    endloop
  endfacet
  facet normal -0.425777 -0.904828 0
    outer loop
      vertex 1.15332 3.40762 0
      vertex 1.89044 3.06076 0.4
      vertex 1.15332 3.40762 0.4
    endloop
  endfacet
  facet normal -0.425777 -0.904828 -0
    outer loop
      vertex 1.89044 3.06076 0.4
      vertex 1.15332 3.40762 0
      vertex 1.89044 3.06076 0
    endloop
  endfacet
  facet normal -0.535806 -0.844341 0
    outer loop
      vertex 1.89044 3.06076 0
      vertex 1.96452 3.01375 0.4
      vertex 1.89044 3.06076 0.4
    endloop
  endfacet
  facet normal -0.535806 -0.844341 -0
    outer loop
      vertex 1.96452 3.01375 0.4
      vertex 1.89044 3.06076 0
      vertex 1.96452 3.01375 0
    endloop
  endfacet
  facet normal -0.63742 -0.770516 0
    outer loop
      vertex 1.96452 3.01375 0
      vertex 2.59224 2.49446 0.4
      vertex 1.96452 3.01375 0.4
    endloop
  endfacet
  facet normal -0.63742 -0.770516 -0
    outer loop
      vertex 2.59224 2.49446 0.4
      vertex 1.96452 3.01375 0
      vertex 2.59224 2.49446 0
    endloop
  endfacet
  facet normal -0.728982 -0.684532 0
    outer loop
      vertex 2.6523 2.4305 0
      vertex 2.59224 2.49446 0.4
      vertex 2.59224 2.49446 0
    endloop
  endfacet
  facet normal -0.728982 -0.684532 0
    outer loop
      vertex 2.59224 2.49446 0.4
      vertex 2.6523 2.4305 0
      vertex 2.6523 2.4305 0.4
    endloop
  endfacet
  facet normal -0.809021 -0.58778 0
    outer loop
      vertex 3.13115 1.77141 0
      vertex 2.6523 2.4305 0.4
      vertex 2.6523 2.4305 0
    endloop
  endfacet
  facet normal -0.809021 -0.58778 0
    outer loop
      vertex 2.6523 2.4305 0.4
      vertex 3.13115 1.77141 0
      vertex 3.13115 1.77141 0.4
    endloop
  endfacet
  facet normal -0.876283 -0.481796 0
    outer loop
      vertex 3.17342 1.69453 0
      vertex 3.13115 1.77141 0.4
      vertex 3.13115 1.77141 0
    endloop
  endfacet
  facet normal -0.876283 -0.481796 0
    outer loop
      vertex 3.13115 1.77141 0.4
      vertex 3.17342 1.69453 0
      vertex 3.17342 1.69453 0.4
    endloop
  endfacet
  facet normal -0.92978 -0.368116 0
    outer loop
      vertex 3.47331 0.937073 0
      vertex 3.17342 1.69453 0.4
      vertex 3.17342 1.69453 0
    endloop
  endfacet
  facet normal -0.92978 -0.368116 0
    outer loop
      vertex 3.17342 1.69453 0.4
      vertex 3.47331 0.937073 0
      vertex 3.47331 0.937073 0.4
    endloop
  endfacet
  facet normal -0.968578 -0.24871 0
    outer loop
      vertex 3.49513 0.852097 0
      vertex 3.47331 0.937073 0.4
      vertex 3.47331 0.937073 0
    endloop
  endfacet
  facet normal -0.968578 -0.24871 0
    outer loop
      vertex 3.47331 0.937073 0.4
      vertex 3.49513 0.852097 0
      vertex 3.49513 0.852097 0.4
    endloop
  endfacet
  facet normal -0.992114 -0.125342 0
    outer loop
      vertex 3.59724 0.043869 0
      vertex 3.49513 0.852097 0.4
      vertex 3.49513 0.852097 0
    endloop
  endfacet
  facet normal -0.992114 -0.125342 0
    outer loop
      vertex 3.49513 0.852097 0.4
      vertex 3.59724 0.043869 0
      vertex 3.59724 0.043869 0.4
    endloop
  endfacet
  facet normal -1 0 0
    outer loop
      vertex 3.59724 -0.043869 0
      vertex 3.59724 0.043869 0.4
      vertex 3.59724 0.043869 0
    endloop
  endfacet
  facet normal -1 -0 0
    outer loop
      vertex 3.59724 0.043869 0.4
      vertex 3.59724 -0.043869 0
      vertex 3.59724 -0.043869 0.4
    endloop
  endfacet
  facet normal -0.992114 0.125342 0
    outer loop
      vertex 3.49513 -0.852097 0
      vertex 3.59724 -0.043869 0.4
      vertex 3.59724 -0.043869 0
    endloop
  endfacet
  facet normal -0.992114 0.125342 0
    outer loop
      vertex 3.59724 -0.043869 0.4
      vertex 3.49513 -0.852097 0
      vertex 3.49513 -0.852097 0.4
    endloop
  endfacet
  facet normal -0.968578 0.24871 0
    outer loop
      vertex 3.47331 -0.937073 0
      vertex 3.49513 -0.852097 0.4
      vertex 3.49513 -0.852097 0
    endloop
  endfacet
  facet normal -0.968578 0.24871 0
    outer loop
      vertex 3.49513 -0.852097 0.4
      vertex 3.47331 -0.937073 0
      vertex 3.47331 -0.937073 0.4
    endloop
  endfacet
  facet normal -0.92978 0.368116 0
    outer loop
      vertex 3.17342 -1.69453 0
      vertex 3.47331 -0.937073 0.4
      vertex 3.47331 -0.937073 0
    endloop
  endfacet
  facet normal -0.92978 0.368116 0
    outer loop
      vertex 3.47331 -0.937073 0.4
      vertex 3.17342 -1.69453 0
      vertex 3.17342 -1.69453 0.4
    endloop
  endfacet
  facet normal -0.876283 0.481796 0
    outer loop
      vertex 3.13115 -1.77141 0
      vertex 3.17342 -1.69453 0.4
      vertex 3.17342 -1.69453 0
    endloop
  endfacet
  facet normal -0.876283 0.481796 0
    outer loop
      vertex 3.17342 -1.69453 0.4
      vertex 3.13115 -1.77141 0
      vertex 3.13115 -1.77141 0.4
    endloop
  endfacet
  facet normal -0.809021 0.58778 0
    outer loop
      vertex 2.6523 -2.4305 0
      vertex 3.13115 -1.77141 0.4
      vertex 3.13115 -1.77141 0
    endloop
  endfacet
  facet normal -0.809021 0.58778 0
    outer loop
      vertex 3.13115 -1.77141 0.4
      vertex 2.6523 -2.4305 0
      vertex 2.6523 -2.4305 0.4
    endloop
  endfacet
  facet normal -0.728982 0.684532 0
    outer loop
      vertex 2.59224 -2.49446 0
      vertex 2.6523 -2.4305 0.4
      vertex 2.6523 -2.4305 0
    endloop
  endfacet
  facet normal -0.728982 0.684532 0
    outer loop
      vertex 2.6523 -2.4305 0.4
      vertex 2.59224 -2.49446 0
      vertex 2.59224 -2.49446 0.4
    endloop
  endfacet
  facet normal -0.63742 0.770516 0
    outer loop
      vertex 2.59224 -2.49446 0
      vertex 1.96452 -3.01375 0.4
      vertex 2.59224 -2.49446 0.4
    endloop
  endfacet
  facet normal -0.63742 0.770516 0
    outer loop
      vertex 1.96452 -3.01375 0.4
      vertex 2.59224 -2.49446 0
      vertex 1.96452 -3.01375 0
    endloop
  endfacet
  facet normal -0.535806 0.844341 0
    outer loop
      vertex 1.96452 -3.01375 0
      vertex 1.89044 -3.06076 0.4
      vertex 1.96452 -3.01375 0.4
    endloop
  endfacet
  facet normal -0.535806 0.844341 0
    outer loop
      vertex 1.89044 -3.06076 0.4
      vertex 1.96452 -3.01375 0
      vertex 1.89044 -3.06076 0
    endloop
  endfacet
  facet normal -0.425777 0.904828 0
    outer loop
      vertex 1.89044 -3.06076 0
      vertex 1.15332 -3.40762 0.4
      vertex 1.89044 -3.06076 0.4
    endloop
  endfacet
  facet normal -0.425777 0.904828 0
    outer loop
      vertex 1.15332 -3.40762 0.4
      vertex 1.89044 -3.06076 0
      vertex 1.15332 -3.40762 0
    endloop
  endfacet
  facet normal -0.308934 0.951083 0
    outer loop
      vertex 1.15332 -3.40762 0
      vertex 1.06989 -3.43472 0.4
      vertex 1.15332 -3.40762 0.4
    endloop
  endfacet
  facet normal -0.308934 0.951083 0
    outer loop
      vertex 1.06989 -3.43472 0.4
      vertex 1.15332 -3.40762 0
      vertex 1.06989 -3.43472 0
    endloop
  endfacet
  facet normal -0.187374 0.982289 0
    outer loop
      vertex 1.06989 -3.43472 0
      vertex 0.269638 -3.58737 0.4
      vertex 1.06989 -3.43472 0.4
    endloop
  endfacet
  facet normal -0.187374 0.982289 0
    outer loop
      vertex 0.269638 -3.58737 0.4
      vertex 1.06989 -3.43472 0
      vertex 0.269638 -3.58737 0
    endloop
  endfacet
  facet normal -0.0628076 0.998026 0
    outer loop
      vertex 0.269638 -3.58737 0
      vertex 0.182083 -3.59288 0.4
      vertex 0.269638 -3.58737 0.4
    endloop
  endfacet
  facet normal -0.0628076 0.998026 0
    outer loop
      vertex 0.182083 -3.59288 0.4
      vertex 0.269638 -3.58737 0
      vertex 0.182083 -3.59288 0
    endloop
  endfacet
  facet normal 0.0627884 0.998027 -0
    outer loop
      vertex 0.182083 -3.59288 0
      vertex -0.630951 -3.54173 0.4
      vertex 0.182083 -3.59288 0.4
    endloop
  endfacet
  facet normal 0.0627884 0.998027 0
    outer loop
      vertex -0.630951 -3.54173 0.4
      vertex 0.182083 -3.59288 0
      vertex -0.630951 -3.54173 0
    endloop
  endfacet
endsolid OpenSCAD_Model
