solid OpenSCAD_Model
  facet normal 0.587788 -0.809015 0
    outer loop
      vertex 3.40877 -5.38153 -3
      vertex 4.42273 -4.64484 0
      vertex 3.40877 -5.38153 0
    endloop
  endfacet
  facet normal 0.587788 -0.809015 0
    outer loop
      vertex 4.42273 -4.64484 0
      vertex 3.40877 -5.38153 -3
      vertex 4.42273 -4.64484 -3
    endloop
  endfacet
  facet normal -0.368123 0.929777 0
    outer loop
      vertex -2.24345 5.84291 -3
      vertex -3.40877 5.38153 0
      vertex -2.24345 5.84291 0
    endloop
  endfacet
  facet normal -0.368123 0.929777 0
    outer loop
      vertex -3.40877 5.38153 0
      vertex -2.24345 5.84291 -3
      vertex -3.40877 5.38153 -3
    endloop
  endfacet
  facet normal 0.368123 -0.929777 0
    outer loop
      vertex 2.24345 -5.84291 -3
      vertex 3.40877 -5.38153 0
      vertex 2.24345 -5.84291 0
    endloop
  endfacet
  facet normal 0.368123 -0.929777 0
    outer loop
      vertex 3.40877 -5.38153 0
      vertex 2.24345 -5.84291 -3
      vertex 3.40877 -5.38153 -3
    endloop
  endfacet
  facet normal 0.809015 0.587788 0
    outer loop
      vertex 5.38153 3.40877 0
      vertex 4.64484 4.42273 -3
      vertex 4.64484 4.42273 0
    endloop
  endfacet
  facet normal 0.809015 0.587788 0
    outer loop
      vertex 4.64484 4.42273 -3
      vertex 5.38153 3.40877 0
      vertex 5.38153 3.40877 -3
    endloop
  endfacet
  facet normal -0.904825 0.425784 0
    outer loop
      vertex -5.75528 2.54509 -3
      vertex -5.22163 3.67914 0
      vertex -5.22163 3.67914 -3
    endloop
  endfacet
  facet normal -0.904825 0.425784 0
    outer loop
      vertex -5.22163 3.67914 0
      vertex -5.75528 2.54509 -3
      vertex -5.75528 2.54509 0
    endloop
  endfacet
  facet normal 0 0 1
    outer loop
      vertex 3.14789 0.808242 0
      vertex 6 1 0
      vertex 5.84291 2.24345 0
    endloop
  endfacet
  facet normal 0 0 1
    outer loop
      vertex 6 1 0
      vertex 3.25 0 0
      vertex 6 -1 0
    endloop
  endfacet
  facet normal 0 0 1
    outer loop
      vertex 2.848 1.5657 0
      vertex 5.84291 2.24345 0
      vertex 5.38153 3.40877 0
    endloop
  endfacet
  facet normal -0 0 1
    outer loop
      vertex 3.14789 -0.808242 0
      vertex 6 -1 0
      vertex 3.25 0 0
    endloop
  endfacet
  facet normal 0 0 1
    outer loop
      vertex 2.36915 2.22478 0
      vertex 5.38153 3.40877 0
      vertex 4.64484 4.42273 0
    endloop
  endfacet
  facet normal 0 0 1
    outer loop
      vertex 6 -1 0
      vertex 3.14789 -0.808242 0
      vertex 5.75528 -2.54509 0
    endloop
  endfacet
  facet normal 0 0 1
    outer loop
      vertex 2.36915 2.22478 0
      vertex 4.64484 4.42273 0
      vertex 3.67914 5.22163 0
    endloop
  endfacet
  facet normal -0 0 1
    outer loop
      vertex 2.848 -1.5657 0
      vertex 5.75528 -2.54509 0
      vertex 3.14789 -0.808242 0
    endloop
  endfacet
  facet normal 0 0 1
    outer loop
      vertex 5.75528 -2.54509 0
      vertex 2.848 -1.5657 0
      vertex 5.22163 -3.67914 0
    endloop
  endfacet
  facet normal 0 0 1
    outer loop
      vertex 6 1 0
      vertex 3.14789 0.808242 0
      vertex 3.25 0 0
    endloop
  endfacet
  facet normal 0 0 1
    outer loop
      vertex 5.84291 2.24345 0
      vertex 2.848 1.5657 0
      vertex 3.14789 0.808242 0
    endloop
  endfacet
  facet normal 0 0 1
    outer loop
      vertex 1.74144 2.74407 0
      vertex 3.67914 5.22163 0
      vertex 2.54509 5.75528 0
    endloop
  endfacet
  facet normal 0 0 1
    outer loop
      vertex 5.38153 3.40877 0
      vertex 2.36915 2.22478 0
      vertex 2.848 1.5657 0
    endloop
  endfacet
  facet normal 0 0 1
    outer loop
      vertex 3.67914 5.22163 0
      vertex 1.74144 2.74407 0
      vertex 2.36915 2.22478 0
    endloop
  endfacet
  facet normal 0 0 1
    outer loop
      vertex 2.54509 5.75528 0
      vertex 1.0043 3.09093 0
      vertex 1.74144 2.74407 0
    endloop
  endfacet
  facet normal 0 0 1
    outer loop
      vertex 1 6 0
      vertex 1.0043 3.09093 0
      vertex 2.54509 5.75528 0
    endloop
  endfacet
  facet normal 0 0 1
    outer loop
      vertex 1 6 0
      vertex 0.204069 3.24359 0
      vertex 1.0043 3.09093 0
    endloop
  endfacet
  facet normal -0 0 1
    outer loop
      vertex -1 6 0
      vertex 0.204069 3.24359 0
      vertex 1 6 0
    endloop
  endfacet
  facet normal 0 0 1
    outer loop
      vertex 0.204069 3.24359 0
      vertex -1 6 0
      vertex -0.608989 3.19243 0
    endloop
  endfacet
  facet normal -0 0 1
    outer loop
      vertex -2.24345 5.84291 0
      vertex -0.608989 3.19243 0
      vertex -1 6 0
    endloop
  endfacet
  facet normal 0 0 1
    outer loop
      vertex -0.608989 3.19243 0
      vertex -2.24345 5.84291 0
      vertex -1.38378 2.94069 0
    endloop
  endfacet
  facet normal -0 0 1
    outer loop
      vertex -3.40877 5.38153 0
      vertex -1.38378 2.94069 0
      vertex -2.24345 5.84291 0
    endloop
  endfacet
  facet normal 0 0 1
    outer loop
      vertex -1.38378 2.94069 0
      vertex -3.40877 5.38153 0
      vertex -2.07163 2.50417 0
    endloop
  endfacet
  facet normal -0 0 1
    outer loop
      vertex -4.42273 4.64484 0
      vertex -2.07163 2.50417 0
      vertex -3.40877 5.38153 0
    endloop
  endfacet
  facet normal 0 0 1
    outer loop
      vertex -2.07163 2.50417 0
      vertex -4.42273 4.64484 0
      vertex -2.6293 1.9103 0
    endloop
  endfacet
  facet normal -0 0 1
    outer loop
      vertex -5.75528 2.54509 0
      vertex -2.6293 1.9103 0
      vertex -5.22163 3.67914 0
    endloop
  endfacet
  facet normal -0 0 1
    outer loop
      vertex -5.22163 3.67914 0
      vertex -2.6293 1.9103 0
      vertex -4.42273 4.64484 0
    endloop
  endfacet
  facet normal -0 0 1
    outer loop
      vertex 2.36915 -2.22478 0
      vertex 5.22163 -3.67914 0
      vertex 2.848 -1.5657 0
    endloop
  endfacet
  facet normal 0 0 1
    outer loop
      vertex 5.22163 -3.67914 0
      vertex 2.36915 -2.22478 0
      vertex 4.42273 -4.64484 0
    endloop
  endfacet
  facet normal -0 0 1
    outer loop
      vertex 1.74144 -2.74407 0
      vertex 4.42273 -4.64484 0
      vertex 2.36915 -2.22478 0
    endloop
  endfacet
  facet normal 0 0 1
    outer loop
      vertex 4.42273 -4.64484 0
      vertex 1.74144 -2.74407 0
      vertex 3.40877 -5.38153 0
    endloop
  endfacet
  facet normal 0 0 1
    outer loop
      vertex 3.40877 -5.38153 0
      vertex 1.74144 -2.74407 0
      vertex 2.24345 -5.84291 0
    endloop
  endfacet
  facet normal -0 0 1
    outer loop
      vertex 1.0043 -3.09093 0
      vertex 2.24345 -5.84291 0
      vertex 1.74144 -2.74407 0
    endloop
  endfacet
  facet normal 0 0 1
    outer loop
      vertex 1.0043 -3.09093 0
      vertex 1 -6 0
      vertex 2.24345 -5.84291 0
    endloop
  endfacet
  facet normal -0 0 1
    outer loop
      vertex 0.204069 -3.24359 0
      vertex 1 -6 0
      vertex 1.0043 -3.09093 0
    endloop
  endfacet
  facet normal 0 0 1
    outer loop
      vertex -1 -6 0
      vertex 0.204069 -3.24359 0
      vertex -0.608989 -3.19243 0
    endloop
  endfacet
  facet normal 0 0 1
    outer loop
      vertex 0.204069 -3.24359 0
      vertex -1 -6 0
      vertex 1 -6 0
    endloop
  endfacet
  facet normal 0 0 1
    outer loop
      vertex -1.38378 -2.94069 0
      vertex -1 -6 0
      vertex -0.608989 -3.19243 0
    endloop
  endfacet
  facet normal 0 0 1
    outer loop
      vertex -3.67914 -5.22163 0
      vertex -1.38378 -2.94069 0
      vertex -2.07163 -2.50417 0
    endloop
  endfacet
  facet normal 0 0 1
    outer loop
      vertex -1.38378 -2.94069 0
      vertex -2.54509 -5.75528 0
      vertex -1 -6 0
    endloop
  endfacet
  facet normal 0 0 1
    outer loop
      vertex -4.64484 -4.42273 0
      vertex -2.07163 -2.50417 0
      vertex -2.6293 -1.9103 0
    endloop
  endfacet
  facet normal 0 0 1
    outer loop
      vertex -5.38153 -3.40877 0
      vertex -2.6293 -1.9103 0
      vertex -3.02177 -1.1964 0
    endloop
  endfacet
  facet normal -0 0 1
    outer loop
      vertex -6 -1 0
      vertex -3.02177 -1.1964 0
      vertex -3.22437 -0.407332 0
    endloop
  endfacet
  facet normal 0 0 1
    outer loop
      vertex -1.38378 -2.94069 0
      vertex -3.67914 -5.22163 0
      vertex -2.54509 -5.75528 0
    endloop
  endfacet
  facet normal 0 0 1
    outer loop
      vertex -2.6293 1.9103 0
      vertex -5.75528 2.54509 0
      vertex -3.02177 1.1964 0
    endloop
  endfacet
  facet normal 0 0 1
    outer loop
      vertex -6 1 0
      vertex -3.02177 1.1964 0
      vertex -5.75528 2.54509 0
    endloop
  endfacet
  facet normal 0 0 1
    outer loop
      vertex -6 -1 0
      vertex -3.22437 -0.407332 0
      vertex -6 1 0
    endloop
  endfacet
  facet normal 0 0 1
    outer loop
      vertex -3.02177 1.1964 0
      vertex -6 1 0
      vertex -3.22437 0.407332 0
    endloop
  endfacet
  facet normal 0 0 1
    outer loop
      vertex -3.02177 -1.1964 0
      vertex -6 -1 0
      vertex -5.84291 -2.24345 0
    endloop
  endfacet
  facet normal 0 0 1
    outer loop
      vertex -3.22437 0.407332 0
      vertex -6 1 0
      vertex -3.22437 -0.407332 0
    endloop
  endfacet
  facet normal 0 0 1
    outer loop
      vertex -2.07163 -2.50417 0
      vertex -4.64484 -4.42273 0
      vertex -3.67914 -5.22163 0
    endloop
  endfacet
  facet normal 0 0 1
    outer loop
      vertex -2.6293 -1.9103 0
      vertex -5.38153 -3.40877 0
      vertex -4.64484 -4.42273 0
    endloop
  endfacet
  facet normal 0 0 1
    outer loop
      vertex -3.02177 -1.1964 0
      vertex -5.84291 -2.24345 0
      vertex -5.38153 -3.40877 0
    endloop
  endfacet
  facet normal -0.156436 -0.987688 0
    outer loop
      vertex -2.54509 -5.75528 -3
      vertex -1 -6 0
      vertex -2.54509 -5.75528 0
    endloop
  endfacet
  facet normal -0.156436 -0.987688 -0
    outer loop
      vertex -1 -6 0
      vertex -2.54509 -5.75528 -3
      vertex -1 -6 -3
    endloop
  endfacet
  facet normal 0.156436 0.987688 -0
    outer loop
      vertex 2.54509 5.75528 -3
      vertex 1 6 0
      vertex 2.54509 5.75528 0
    endloop
  endfacet
  facet normal 0.156436 0.987688 0
    outer loop
      vertex 1 6 0
      vertex 2.54509 5.75528 -3
      vertex 1 6 -3
    endloop
  endfacet
  facet normal -0.770512 0.637426 0
    outer loop
      vertex -5.22163 3.67914 -3
      vertex -4.42273 4.64484 0
      vertex -4.42273 4.64484 -3
    endloop
  endfacet
  facet normal -0.770512 0.637426 0
    outer loop
      vertex -4.42273 4.64484 0
      vertex -5.22163 3.67914 -3
      vertex -5.22163 3.67914 0
    endloop
  endfacet
  facet normal -0.587788 0.809015 0
    outer loop
      vertex -3.40877 5.38153 -3
      vertex -4.42273 4.64484 0
      vertex -3.40877 5.38153 0
    endloop
  endfacet
  facet normal -0.587788 0.809015 0
    outer loop
      vertex -4.42273 4.64484 0
      vertex -3.40877 5.38153 -3
      vertex -4.42273 4.64484 -3
    endloop
  endfacet
  facet normal -1 0 0
    outer loop
      vertex -6 -1 -3
      vertex -6 1 0
      vertex -6 1 -3
    endloop
  endfacet
  facet normal -1 -0 0
    outer loop
      vertex -6 1 0
      vertex -6 -1 -3
      vertex -6 -1 0
    endloop
  endfacet
  facet normal 0 0 -1
    outer loop
      vertex 6 -1 -3
      vertex 3.14789 -0.808242 -3
      vertex 3.25 0 -3
    endloop
  endfacet
  facet normal 0 0 -1
    outer loop
      vertex 4.42273 -4.64484 -3
      vertex 2.848 -1.5657 -3
      vertex 3.14789 -0.808242 -3
    endloop
  endfacet
  facet normal 0 0 -1
    outer loop
      vertex 4.42273 -4.64484 -3
      vertex 2.36915 -2.22478 -3
      vertex 2.848 -1.5657 -3
    endloop
  endfacet
  facet normal 0 0 -1
    outer loop
      vertex 1.74144 -2.74407 -3
      vertex 3.40877 -5.38153 -3
      vertex 2.24345 -5.84291 -3
    endloop
  endfacet
  facet normal 0 0 -1
    outer loop
      vertex 4.42273 -4.64484 -3
      vertex 1.74144 -2.74407 -3
      vertex 2.36915 -2.22478 -3
    endloop
  endfacet
  facet normal 0 0 -1
    outer loop
      vertex 2.24345 -5.84291 -3
      vertex 1.0043 -3.09093 -3
      vertex 1.74144 -2.74407 -3
    endloop
  endfacet
  facet normal 0 0 -1
    outer loop
      vertex 1 -6 -3
      vertex 1.0043 -3.09093 -3
      vertex 2.24345 -5.84291 -3
    endloop
  endfacet
  facet normal 0 0 -1
    outer loop
      vertex 1 -6 -3
      vertex 0.204069 -3.24359 -3
      vertex 1.0043 -3.09093 -3
    endloop
  endfacet
  facet normal 0 0 -1
    outer loop
      vertex -1 -6 -3
      vertex 0.204069 -3.24359 -3
      vertex 1 -6 -3
    endloop
  endfacet
  facet normal -0 0 -1
    outer loop
      vertex 0.204069 -3.24359 -3
      vertex -1 -6 -3
      vertex -0.608989 -3.19243 -3
    endloop
  endfacet
  facet normal 0 0 -1
    outer loop
      vertex -1 -6 -3
      vertex -1.38378 -2.94069 -3
      vertex -0.608989 -3.19243 -3
    endloop
  endfacet
  facet normal 0 0 -1
    outer loop
      vertex -2.54509 -5.75528 -3
      vertex -1.38378 -2.94069 -3
      vertex -1 -6 -3
    endloop
  endfacet
  facet normal 0 0 -1
    outer loop
      vertex -3.67914 -5.22163 -3
      vertex -1.38378 -2.94069 -3
      vertex -2.54509 -5.75528 -3
    endloop
  endfacet
  facet normal -0 0 -1
    outer loop
      vertex -1.38378 -2.94069 -3
      vertex -3.67914 -5.22163 -3
      vertex -2.07163 -2.50417 -3
    endloop
  endfacet
  facet normal 0 0 -1
    outer loop
      vertex -4.64484 -4.42273 -3
      vertex -2.07163 -2.50417 -3
      vertex -3.67914 -5.22163 -3
    endloop
  endfacet
  facet normal -0 0 -1
    outer loop
      vertex -2.07163 -2.50417 -3
      vertex -4.64484 -4.42273 -3
      vertex -2.6293 -1.9103 -3
    endloop
  endfacet
  facet normal 0 0 -1
    outer loop
      vertex -6 1 -3
      vertex -3.22437 0.407332 -3
      vertex -3.22437 -0.407332 -3
    endloop
  endfacet
  facet normal 0 0 -1
    outer loop
      vertex -5.38153 -3.40877 -3
      vertex -2.6293 -1.9103 -3
      vertex -4.64484 -4.42273 -3
    endloop
  endfacet
  facet normal -0 0 -1
    outer loop
      vertex -2.6293 -1.9103 -3
      vertex -5.38153 -3.40877 -3
      vertex -3.02177 -1.1964 -3
    endloop
  endfacet
  facet normal 0 0 -1
    outer loop
      vertex -3.22437 0.407332 -3
      vertex -6 1 -3
      vertex -5.75528 2.54509 -3
    endloop
  endfacet
  facet normal 0 0 -1
    outer loop
      vertex -5.84291 -2.24345 -3
      vertex -3.02177 -1.1964 -3
      vertex -5.38153 -3.40877 -3
    endloop
  endfacet
  facet normal 0 0 -1
    outer loop
      vertex -3.22437 0.407332 -3
      vertex -4.42273 4.64484 -3
      vertex -3.40877 5.38153 -3
    endloop
  endfacet
  facet normal 0 0 -1
    outer loop
      vertex -6 -1 -3
      vertex -3.02177 -1.1964 -3
      vertex -5.84291 -2.24345 -3
    endloop
  endfacet
  facet normal 0 0 -1
    outer loop
      vertex -3.22437 0.407332 -3
      vertex -5.22163 3.67914 -3
      vertex -4.42273 4.64484 -3
    endloop
  endfacet
  facet normal 0 0 -1
    outer loop
      vertex -3.02177 -1.1964 -3
      vertex -6 -1 -3
      vertex -3.22437 -0.407332 -3
    endloop
  endfacet
  facet normal -0 0 -1
    outer loop
      vertex -3.22437 -0.407332 -3
      vertex -6 -1 -3
      vertex -6 1 -3
    endloop
  endfacet
  facet normal 0 0 -1
    outer loop
      vertex -3.22437 0.407332 -3
      vertex -5.75528 2.54509 -3
      vertex -5.22163 3.67914 -3
    endloop
  endfacet
  facet normal 0 0 -1
    outer loop
      vertex 3.25 0 -3
      vertex 6 1 -3
      vertex 6 -1 -3
    endloop
  endfacet
  facet normal 0 0 -1
    outer loop
      vertex 3.14789 -0.808242 -3
      vertex 6 -1 -3
      vertex 5.75528 -2.54509 -3
    endloop
  endfacet
  facet normal 0 0 -1
    outer loop
      vertex 3.14789 0.808242 -3
      vertex 6 1 -3
      vertex 3.25 0 -3
    endloop
  endfacet
  facet normal 0 0 -1
    outer loop
      vertex 3.14789 -0.808242 -3
      vertex 5.75528 -2.54509 -3
      vertex 5.22163 -3.67914 -3
    endloop
  endfacet
  facet normal -0 0 -1
    outer loop
      vertex 6 1 -3
      vertex 3.14789 0.808242 -3
      vertex 5.84291 2.24345 -3
    endloop
  endfacet
  facet normal 0 0 -1
    outer loop
      vertex 3.14789 -0.808242 -3
      vertex 5.22163 -3.67914 -3
      vertex 4.42273 -4.64484 -3
    endloop
  endfacet
  facet normal 0 0 -1
    outer loop
      vertex 2.848 1.5657 -3
      vertex 5.84291 2.24345 -3
      vertex 3.14789 0.808242 -3
    endloop
  endfacet
  facet normal 0 0 -1
    outer loop
      vertex 1.74144 -2.74407 -3
      vertex 4.42273 -4.64484 -3
      vertex 3.40877 -5.38153 -3
    endloop
  endfacet
  facet normal -0 0 -1
    outer loop
      vertex 5.84291 2.24345 -3
      vertex 2.848 1.5657 -3
      vertex 5.38153 3.40877 -3
    endloop
  endfacet
  facet normal 0 0 -1
    outer loop
      vertex 2.36915 2.22478 -3
      vertex 5.38153 3.40877 -3
      vertex 2.848 1.5657 -3
    endloop
  endfacet
  facet normal -0 0 -1
    outer loop
      vertex 5.38153 3.40877 -3
      vertex 2.36915 2.22478 -3
      vertex 4.64484 4.42273 -3
    endloop
  endfacet
  facet normal -0 0 -1
    outer loop
      vertex 4.64484 4.42273 -3
      vertex 2.36915 2.22478 -3
      vertex 3.67914 5.22163 -3
    endloop
  endfacet
  facet normal 0 0 -1
    outer loop
      vertex 1.74144 2.74407 -3
      vertex 3.67914 5.22163 -3
      vertex 2.36915 2.22478 -3
    endloop
  endfacet
  facet normal -0 0 -1
    outer loop
      vertex 3.67914 5.22163 -3
      vertex 1.74144 2.74407 -3
      vertex 2.54509 5.75528 -3
    endloop
  endfacet
  facet normal 0 0 -1
    outer loop
      vertex 1.0043 3.09093 -3
      vertex 2.54509 5.75528 -3
      vertex 1.74144 2.74407 -3
    endloop
  endfacet
  facet normal 0 0 -1
    outer loop
      vertex 1.0043 3.09093 -3
      vertex 1 6 -3
      vertex 2.54509 5.75528 -3
    endloop
  endfacet
  facet normal 0 0 -1
    outer loop
      vertex 0.204069 3.24359 -3
      vertex 1 6 -3
      vertex 1.0043 3.09093 -3
    endloop
  endfacet
  facet normal 0 0 -1
    outer loop
      vertex -1 6 -3
      vertex 0.204069 3.24359 -3
      vertex -0.608989 3.19243 -3
    endloop
  endfacet
  facet normal 0 0 -1
    outer loop
      vertex 0.204069 3.24359 -3
      vertex -1 6 -3
      vertex 1 6 -3
    endloop
  endfacet
  facet normal 0 0 -1
    outer loop
      vertex -2.24345 5.84291 -3
      vertex -0.608989 3.19243 -3
      vertex -1.38378 2.94069 -3
    endloop
  endfacet
  facet normal 0 0 -1
    outer loop
      vertex -3.40877 5.38153 -3
      vertex -1.38378 2.94069 -3
      vertex -2.07163 2.50417 -3
    endloop
  endfacet
  facet normal 0 0 -1
    outer loop
      vertex -0.608989 3.19243 -3
      vertex -2.24345 5.84291 -3
      vertex -1 6 -3
    endloop
  endfacet
  facet normal 0 0 -1
    outer loop
      vertex -3.40877 5.38153 -3
      vertex -2.07163 2.50417 -3
      vertex -2.6293 1.9103 -3
    endloop
  endfacet
  facet normal 0 0 -1
    outer loop
      vertex -3.40877 5.38153 -3
      vertex -2.6293 1.9103 -3
      vertex -3.02177 1.1964 -3
    endloop
  endfacet
  facet normal 0 0 -1
    outer loop
      vertex -3.40877 5.38153 -3
      vertex -3.02177 1.1964 -3
      vertex -3.22437 0.407332 -3
    endloop
  endfacet
  facet normal 0 0 -1
    outer loop
      vertex -1.38378 2.94069 -3
      vertex -3.40877 5.38153 -3
      vertex -2.24345 5.84291 -3
    endloop
  endfacet
  facet normal -0.992114 -0.125338 0
    outer loop
      vertex -5.84291 -2.24345 -3
      vertex -6 -1 0
      vertex -6 -1 -3
    endloop
  endfacet
  facet normal -0.992114 -0.125338 0
    outer loop
      vertex -6 -1 0
      vertex -5.84291 -2.24345 -3
      vertex -5.84291 -2.24345 0
    endloop
  endfacet
  facet normal -0.987688 0.156436 0
    outer loop
      vertex -6 1 -3
      vertex -5.75528 2.54509 0
      vertex -5.75528 2.54509 -3
    endloop
  endfacet
  facet normal -0.987688 0.156436 0
    outer loop
      vertex -5.75528 2.54509 0
      vertex -6 1 -3
      vertex -6 1 0
    endloop
  endfacet
  facet normal -0.809015 -0.587788 0
    outer loop
      vertex -4.64484 -4.42273 -3
      vertex -5.38153 -3.40877 0
      vertex -5.38153 -3.40877 -3
    endloop
  endfacet
  facet normal -0.809015 -0.587788 0
    outer loop
      vertex -5.38153 -3.40877 0
      vertex -4.64484 -4.42273 -3
      vertex -4.64484 -4.42273 0
    endloop
  endfacet
  facet normal -0.425784 -0.904825 0
    outer loop
      vertex -3.67914 -5.22163 -3
      vertex -2.54509 -5.75528 0
      vertex -3.67914 -5.22163 0
    endloop
  endfacet
  facet normal -0.425784 -0.904825 -0
    outer loop
      vertex -2.54509 -5.75528 0
      vertex -3.67914 -5.22163 -3
      vertex -2.54509 -5.75528 -3
    endloop
  endfacet
  facet normal 0 -1 0
    outer loop
      vertex -1 -6 -3
      vertex 1 -6 0
      vertex -1 -6 0
    endloop
  endfacet
  facet normal 0 -1 -0
    outer loop
      vertex 1 -6 0
      vertex -1 -6 -3
      vertex 1 -6 -3
    endloop
  endfacet
  facet normal 0.425784 0.904825 -0
    outer loop
      vertex 3.67914 5.22163 -3
      vertex 2.54509 5.75528 0
      vertex 3.67914 5.22163 0
    endloop
  endfacet
  facet normal 0.425784 0.904825 0
    outer loop
      vertex 2.54509 5.75528 0
      vertex 3.67914 5.22163 -3
      vertex 2.54509 5.75528 -3
    endloop
  endfacet
  facet normal 0.637426 0.770512 -0
    outer loop
      vertex 4.64484 4.42273 -3
      vertex 3.67914 5.22163 0
      vertex 4.64484 4.42273 0
    endloop
  endfacet
  facet normal 0.637426 0.770512 0
    outer loop
      vertex 3.67914 5.22163 0
      vertex 4.64484 4.42273 -3
      vertex 3.67914 5.22163 -3
    endloop
  endfacet
  facet normal 0 1 -0
    outer loop
      vertex 1 6 -3
      vertex -1 6 0
      vertex 1 6 0
    endloop
  endfacet
  facet normal 0 1 0
    outer loop
      vertex -1 6 0
      vertex 1 6 -3
      vertex -1 6 -3
    endloop
  endfacet
  facet normal -0.125338 0.992114 0
    outer loop
      vertex -1 6 -3
      vertex -2.24345 5.84291 0
      vertex -1 6 0
    endloop
  endfacet
  facet normal -0.125338 0.992114 0
    outer loop
      vertex -2.24345 5.84291 0
      vertex -1 6 -3
      vertex -2.24345 5.84291 -3
    endloop
  endfacet
  facet normal 0.992114 0.125338 0
    outer loop
      vertex 6 1 0
      vertex 5.84291 2.24345 -3
      vertex 5.84291 2.24345 0
    endloop
  endfacet
  facet normal 0.992114 0.125338 0
    outer loop
      vertex 5.84291 2.24345 -3
      vertex 6 1 0
      vertex 6 1 -3
    endloop
  endfacet
  facet normal 1 -0 0
    outer loop
      vertex 6 -1 0
      vertex 6 1 -3
      vertex 6 1 0
    endloop
  endfacet
  facet normal 1 0 0
    outer loop
      vertex 6 1 -3
      vertex 6 -1 0
      vertex 6 -1 -3
    endloop
  endfacet
  facet normal 0.929777 0.368123 0
    outer loop
      vertex 5.84291 2.24345 0
      vertex 5.38153 3.40877 -3
      vertex 5.38153 3.40877 0
    endloop
  endfacet
  facet normal 0.929777 0.368123 0
    outer loop
      vertex 5.38153 3.40877 -3
      vertex 5.84291 2.24345 0
      vertex 5.84291 2.24345 -3
    endloop
  endfacet
  facet normal 0.987688 -0.156436 0
    outer loop
      vertex 5.75528 -2.54509 0
      vertex 6 -1 -3
      vertex 6 -1 0
    endloop
  endfacet
  facet normal 0.987688 -0.156436 0
    outer loop
      vertex 6 -1 -3
      vertex 5.75528 -2.54509 0
      vertex 5.75528 -2.54509 -3
    endloop
  endfacet
  facet normal 0.770512 -0.637426 0
    outer loop
      vertex 4.42273 -4.64484 0
      vertex 5.22163 -3.67914 -3
      vertex 5.22163 -3.67914 0
    endloop
  endfacet
  facet normal 0.770512 -0.637426 0
    outer loop
      vertex 5.22163 -3.67914 -3
      vertex 4.42273 -4.64484 0
      vertex 4.42273 -4.64484 -3
    endloop
  endfacet
  facet normal -0.929777 -0.368123 0
    outer loop
      vertex -5.38153 -3.40877 -3
      vertex -5.84291 -2.24345 0
      vertex -5.84291 -2.24345 -3
    endloop
  endfacet
  facet normal -0.929777 -0.368123 0
    outer loop
      vertex -5.84291 -2.24345 0
      vertex -5.38153 -3.40877 -3
      vertex -5.38153 -3.40877 0
    endloop
  endfacet
  facet normal -0.637426 -0.770512 0
    outer loop
      vertex -4.64484 -4.42273 -3
      vertex -3.67914 -5.22163 0
      vertex -4.64484 -4.42273 0
    endloop
  endfacet
  facet normal -0.637426 -0.770512 -0
    outer loop
      vertex -3.67914 -5.22163 0
      vertex -4.64484 -4.42273 -3
      vertex -3.67914 -5.22163 -3
    endloop
  endfacet
  facet normal 0.125338 -0.992114 0
    outer loop
      vertex 1 -6 -3
      vertex 2.24345 -5.84291 0
      vertex 1 -6 0
    endloop
  endfacet
  facet normal 0.125338 -0.992114 0
    outer loop
      vertex 2.24345 -5.84291 0
      vertex 1 -6 -3
      vertex 2.24345 -5.84291 -3
    endloop
  endfacet
  facet normal 0.904825 -0.425784 0
    outer loop
      vertex 5.22163 -3.67914 0
      vertex 5.75528 -2.54509 -3
      vertex 5.75528 -2.54509 0
    endloop
  endfacet
  facet normal 0.904825 -0.425784 0
    outer loop
      vertex 5.75528 -2.54509 -3
      vertex 5.22163 -3.67914 0
      vertex 5.22163 -3.67914 -3
    endloop
  endfacet
  facet normal -0.92978 0.368115 0
    outer loop
      vertex 2.848 -1.5657 -3
      vertex 3.14789 -0.808242 0
      vertex 3.14789 -0.808242 -3
    endloop
  endfacet
  facet normal -0.92978 0.368115 0
    outer loop
      vertex 3.14789 -0.808242 0
      vertex 2.848 -1.5657 -3
      vertex 2.848 -1.5657 0
    endloop
  endfacet
  facet normal -0.992114 0.12534 0
    outer loop
      vertex 3.14789 -0.808242 -3
      vertex 3.25 0 0
      vertex 3.25 0 -3
    endloop
  endfacet
  facet normal -0.992114 0.12534 0
    outer loop
      vertex 3.25 0 0
      vertex 3.14789 -0.808242 -3
      vertex 3.14789 -0.808242 0
    endloop
  endfacet
  facet normal -0.992114 -0.12534 0
    outer loop
      vertex 3.25 0 -3
      vertex 3.14789 0.808242 0
      vertex 3.14789 0.808242 -3
    endloop
  endfacet
  facet normal -0.992114 -0.12534 0
    outer loop
      vertex 3.14789 0.808242 0
      vertex 3.25 0 -3
      vertex 3.25 0 0
    endloop
  endfacet
  facet normal 1 -0 0
    outer loop
      vertex -3.22437 -0.407332 0
      vertex -3.22437 0.407332 -3
      vertex -3.22437 0.407332 0
    endloop
  endfacet
  facet normal 1 0 0
    outer loop
      vertex -3.22437 0.407332 -3
      vertex -3.22437 -0.407332 0
      vertex -3.22437 -0.407332 -3
    endloop
  endfacet
  facet normal 0.0627987 -0.998026 0
    outer loop
      vertex -0.608989 3.19243 -3
      vertex 0.204069 3.24359 0
      vertex -0.608989 3.19243 0
    endloop
  endfacet
  facet normal 0.0627987 -0.998026 0
    outer loop
      vertex 0.204069 3.24359 0
      vertex -0.608989 3.19243 -3
      vertex 0.204069 3.24359 -3
    endloop
  endfacet
  facet normal 0.968583 0.248692 0
    outer loop
      vertex -3.02177 -1.1964 0
      vertex -3.22437 -0.407332 -3
      vertex -3.22437 -0.407332 0
    endloop
  endfacet
  facet normal 0.968583 0.248692 0
    outer loop
      vertex -3.22437 -0.407332 -3
      vertex -3.02177 -1.1964 0
      vertex -3.02177 -1.1964 -3
    endloop
  endfacet
  facet normal -0.637426 0.770511 0
    outer loop
      vertex 2.36915 -2.22478 -3
      vertex 1.74144 -2.74407 0
      vertex 2.36915 -2.22478 0
    endloop
  endfacet
  facet normal -0.637426 0.770511 0
    outer loop
      vertex 1.74144 -2.74407 0
      vertex 2.36915 -2.22478 -3
      vertex 1.74144 -2.74407 -3
    endloop
  endfacet
  facet normal -0.809017 0.587786 0
    outer loop
      vertex 2.36915 -2.22478 -3
      vertex 2.848 -1.5657 0
      vertex 2.848 -1.5657 -3
    endloop
  endfacet
  facet normal -0.809017 0.587786 0
    outer loop
      vertex 2.848 -1.5657 0
      vertex 2.36915 -2.22478 -3
      vertex 2.36915 -2.22478 0
    endloop
  endfacet
  facet normal 0.535824 0.84433 -0
    outer loop
      vertex -1.38378 -2.94069 -3
      vertex -2.07163 -2.50417 0
      vertex -1.38378 -2.94069 0
    endloop
  endfacet
  facet normal 0.535824 0.84433 0
    outer loop
      vertex -2.07163 -2.50417 0
      vertex -1.38378 -2.94069 -3
      vertex -2.07163 -2.50417 -3
    endloop
  endfacet
  facet normal 0.0627987 0.998026 -0
    outer loop
      vertex 0.204069 -3.24359 -3
      vertex -0.608989 -3.19243 0
      vertex 0.204069 -3.24359 0
    endloop
  endfacet
  facet normal 0.0627987 0.998026 0
    outer loop
      vertex -0.608989 -3.19243 0
      vertex 0.204069 -3.24359 -3
      vertex -0.608989 -3.19243 -3
    endloop
  endfacet
  facet normal 0.968583 -0.248692 0
    outer loop
      vertex -3.22437 0.407332 0
      vertex -3.02177 1.1964 -3
      vertex -3.02177 1.1964 0
    endloop
  endfacet
  facet normal 0.968583 -0.248692 0
    outer loop
      vertex -3.02177 1.1964 -3
      vertex -3.22437 0.407332 0
      vertex -3.22437 0.407332 -3
    endloop
  endfacet
  facet normal -0.809017 -0.587786 0
    outer loop
      vertex 2.848 1.5657 -3
      vertex 2.36915 2.22478 0
      vertex 2.36915 2.22478 -3
    endloop
  endfacet
  facet normal -0.809017 -0.587786 0
    outer loop
      vertex 2.36915 2.22478 0
      vertex 2.848 1.5657 -3
      vertex 2.848 1.5657 0
    endloop
  endfacet
  facet normal 0.728975 -0.68454 0
    outer loop
      vertex -2.6293 1.9103 0
      vertex -2.07163 2.50417 -3
      vertex -2.07163 2.50417 0
    endloop
  endfacet
  facet normal 0.728975 -0.68454 0
    outer loop
      vertex -2.07163 2.50417 -3
      vertex -2.6293 1.9103 0
      vertex -2.6293 1.9103 -3
    endloop
  endfacet
  facet normal 0.876307 -0.481754 0
    outer loop
      vertex -3.02177 1.1964 0
      vertex -2.6293 1.9103 -3
      vertex -2.6293 1.9103 0
    endloop
  endfacet
  facet normal 0.876307 -0.481754 0
    outer loop
      vertex -2.6293 1.9103 -3
      vertex -3.02177 1.1964 0
      vertex -3.02177 1.1964 -3
    endloop
  endfacet
  facet normal 0.728975 0.68454 0
    outer loop
      vertex -2.07163 -2.50417 0
      vertex -2.6293 -1.9103 -3
      vertex -2.6293 -1.9103 0
    endloop
  endfacet
  facet normal 0.728975 0.68454 0
    outer loop
      vertex -2.6293 -1.9103 -3
      vertex -2.07163 -2.50417 0
      vertex -2.07163 -2.50417 -3
    endloop
  endfacet
  facet normal 0.876307 0.481754 0
    outer loop
      vertex -2.6293 -1.9103 0
      vertex -3.02177 -1.1964 -3
      vertex -3.02177 -1.1964 0
    endloop
  endfacet
  facet normal 0.876307 0.481754 0
    outer loop
      vertex -3.02177 -1.1964 -3
      vertex -2.6293 -1.9103 0
      vertex -2.6293 -1.9103 -3
    endloop
  endfacet
  facet normal 0.309012 0.951058 -0
    outer loop
      vertex -0.608989 -3.19243 -3
      vertex -1.38378 -2.94069 0
      vertex -0.608989 -3.19243 0
    endloop
  endfacet
  facet normal 0.309012 0.951058 0
    outer loop
      vertex -1.38378 -2.94069 0
      vertex -0.608989 -3.19243 -3
      vertex -1.38378 -2.94069 -3
    endloop
  endfacet
  facet normal -0.187391 0.982285 0
    outer loop
      vertex 1.0043 -3.09093 -3
      vertex 0.204069 -3.24359 0
      vertex 1.0043 -3.09093 0
    endloop
  endfacet
  facet normal -0.187391 0.982285 0
    outer loop
      vertex 0.204069 -3.24359 0
      vertex 1.0043 -3.09093 -3
      vertex 0.204069 -3.24359 -3
    endloop
  endfacet
  facet normal -0.187391 -0.982285 0
    outer loop
      vertex 0.204069 3.24359 -3
      vertex 1.0043 3.09093 0
      vertex 0.204069 3.24359 0
    endloop
  endfacet
  facet normal -0.187391 -0.982285 -0
    outer loop
      vertex 1.0043 3.09093 0
      vertex 0.204069 3.24359 -3
      vertex 1.0043 3.09093 -3
    endloop
  endfacet
  facet normal -0.637426 -0.770511 0
    outer loop
      vertex 1.74144 2.74407 -3
      vertex 2.36915 2.22478 0
      vertex 1.74144 2.74407 0
    endloop
  endfacet
  facet normal -0.637426 -0.770511 -0
    outer loop
      vertex 2.36915 2.22478 0
      vertex 1.74144 2.74407 -3
      vertex 2.36915 2.22478 -3
    endloop
  endfacet
  facet normal -0.425767 -0.904833 0
    outer loop
      vertex 1.0043 3.09093 -3
      vertex 1.74144 2.74407 0
      vertex 1.0043 3.09093 0
    endloop
  endfacet
  facet normal -0.425767 -0.904833 -0
    outer loop
      vertex 1.74144 2.74407 0
      vertex 1.0043 3.09093 -3
      vertex 1.74144 2.74407 -3
    endloop
  endfacet
  facet normal -0.425767 0.904833 0
    outer loop
      vertex 1.74144 -2.74407 -3
      vertex 1.0043 -3.09093 0
      vertex 1.74144 -2.74407 0
    endloop
  endfacet
  facet normal -0.425767 0.904833 0
    outer loop
      vertex 1.0043 -3.09093 0
      vertex 1.74144 -2.74407 -3
      vertex 1.0043 -3.09093 -3
    endloop
  endfacet
  facet normal -0.92978 -0.368115 0
    outer loop
      vertex 3.14789 0.808242 -3
      vertex 2.848 1.5657 0
      vertex 2.848 1.5657 -3
    endloop
  endfacet
  facet normal -0.92978 -0.368115 0
    outer loop
      vertex 2.848 1.5657 0
      vertex 3.14789 0.808242 -3
      vertex 3.14789 0.808242 0
    endloop
  endfacet
  facet normal 0.535824 -0.84433 0
    outer loop
      vertex -2.07163 2.50417 -3
      vertex -1.38378 2.94069 0
      vertex -2.07163 2.50417 0
    endloop
  endfacet
  facet normal 0.535824 -0.84433 0
    outer loop
      vertex -1.38378 2.94069 0
      vertex -2.07163 2.50417 -3
      vertex -1.38378 2.94069 -3
    endloop
  endfacet
  facet normal 0.309012 -0.951058 0
    outer loop
      vertex -1.38378 2.94069 -3
      vertex -0.608989 3.19243 0
      vertex -1.38378 2.94069 0
    endloop
  endfacet
  facet normal 0.309012 -0.951058 0
    outer loop
      vertex -0.608989 3.19243 0
      vertex -1.38378 2.94069 -3
      vertex -0.608989 3.19243 -3
    endloop
  endfacet
endsolid OpenSCAD_Model
