  0
SECTION
  2
BLOCKS
  0
ENDSEC
  0
SECTION
  2
ENTITIES
  0
LINE
  8
0
 10
16
 20
9.00986
 11
16.3139
 21
9.00986
  0
LINE
  8
0
 10
16.3139
 20
9.00986
 11
16.9369
 21
9.08856
  0
LINE
  8
0
 10
16.9369
 20
9.08856
 11
17.5451
 21
9.24471
  0
LINE
  8
0
 10
17.5451
 20
9.24471
 11
18.1289
 21
9.47586
  0
LINE
  8
0
 10
18.1289
 20
9.47586
 11
18.6791
 21
9.77835
  0
LINE
  8
0
 10
18.6791
 20
9.77835
 11
19.1871
 21
10.1474
  0
LINE
  8
0
 10
19.1871
 20
10.1474
 11
19.6448
 21
10.5773
  0
LINE
  8
0
 10
19.6448
 20
10.5773
 11
20.0451
 21
11.0611
  0
LINE
  8
0
 10
20.0451
 20
11.0611
 11
20.3815
 21
11.5912
  0
LINE
  8
0
 10
20.3815
 20
11.5912
 11
20.6489
 21
12.1594
  0
LINE
  8
0
 10
20.6489
 20
12.1594
 11
20.8429
 21
12.7565
  0
LINE
  8
0
 10
20.8429
 20
12.7565
 11
20.9606
 21
13.3733
  0
LINE
  8
0
 10
20.9606
 20
13.3733
 11
21
 21
14
  0
LINE
  8
0
 10
21
 20
14
 11
21
 21
16
  0
LINE
  8
0
 10
21
 20
16
 11
20.9606
 21
16.6267
  0
LINE
  8
0
 10
20.9606
 20
16.6267
 11
20.8429
 21
17.2434
  0
LINE
  8
0
 10
20.8429
 20
17.2434
 11
20.6489
 21
17.8406
  0
LINE
  8
0
 10
20.6489
 20
17.8406
 11
20.3815
 21
18.4088
  0
LINE
  8
0
 10
20.3815
 20
18.4088
 11
20.0451
 21
18.9389
  0
LINE
  8
0
 10
20.0451
 20
18.9389
 11
19.6448
 21
19.4227
  0
LINE
  8
0
 10
19.6448
 20
19.4227
 11
19.1871
 21
19.8526
  0
LINE
  8
0
 10
19.1871
 20
19.8526
 11
18.6791
 21
20.2216
  0
LINE
  8
0
 10
18.6791
 20
20.2216
 11
18.1289
 21
20.5241
  0
LINE
  8
0
 10
18.1289
 20
20.5241
 11
17.5451
 21
20.7553
  0
LINE
  8
0
 10
17.5451
 20
20.7553
 11
16.9369
 21
20.9114
  0
LINE
  8
0
 10
16.9369
 20
20.9114
 11
16.3139
 21
20.9901
  0
LINE
  8
0
 10
16.3139
 20
20.9901
 11
16
 21
20.9901
  0
LINE
  8
0
 10
16
 20
20.9901
 11
16
 21
21
  0
LINE
  8
0
 10
16
 20
21
 11
14
 21
21
  0
LINE
  8
0
 10
14
 20
21
 11
14
 21
20.9901
  0
LINE
  8
0
 10
14
 20
20.9901
 11
13.686
 21
20.9901
  0
LINE
  8
0
 10
13.686
 20
20.9901
 11
13.0631
 21
20.9114
  0
LINE
  8
0
 10
13.0631
 20
20.9114
 11
12.4549
 21
20.7553
  0
LINE
  8
0
 10
12.4549
 20
20.7553
 11
11.8711
 21
20.5241
  0
LINE
  8
0
 10
11.8711
 20
20.5241
 11
11.3209
 21
20.2216
  0
LINE
  8
0
 10
11.3209
 20
20.2216
 11
10.8129
 21
19.8526
  0
LINE
  8
0
 10
10.8129
 20
19.8526
 11
10.3551
 21
19.4227
  0
LINE
  8
0
 10
10.3551
 20
19.4227
 11
9.95491
 21
18.9389
  0
LINE
  8
0
 10
9.95491
 20
18.9389
 11
9.61845
 21
18.4088
  0
LINE
  8
0
 10
9.61845
 20
18.4088
 11
9.3511
 21
17.8406
  0
LINE
  8
0
 10
9.3511
 20
17.8406
 11
9.15707
 21
17.2434
  0
LINE
  8
0
 10
9.15707
 20
17.2434
 11
9.03941
 21
16.6267
  0
LINE
  8
0
 10
9.03941
 20
16.6267
 11
9
 21
16
  0
LINE
  8
0
 10
9
 20
16
 11
9
 21
14
  0
LINE
  8
0
 10
9
 20
14
 11
9.03941
 21
13.3733
  0
LINE
  8
0
 10
9.03941
 20
13.3733
 11
9.15707
 21
12.7565
  0
LINE
  8
0
 10
9.15707
 20
12.7565
 11
9.3511
 21
12.1594
  0
LINE
  8
0
 10
9.3511
 20
12.1594
 11
9.61845
 21
11.5912
  0
LINE
  8
0
 10
9.61845
 20
11.5912
 11
9.95491
 21
11.0611
  0
LINE
  8
0
 10
9.95491
 20
11.0611
 11
10.3551
 21
10.5773
  0
LINE
  8
0
 10
10.3551
 20
10.5773
 11
10.8129
 21
10.1474
  0
LINE
  8
0
 10
10.8129
 20
10.1474
 11
11.3209
 21
9.77835
  0
LINE
  8
0
 10
11.3209
 20
9.77835
 11
11.8711
 21
9.47586
  0
LINE
  8
0
 10
11.8711
 20
9.47586
 11
12.4549
 21
9.24471
  0
LINE
  8
0
 10
12.4549
 20
9.24471
 11
13.0631
 21
9.08856
  0
LINE
  8
0
 10
13.0631
 20
9.08856
 11
13.686
 21
9.00986
  0
LINE
  8
0
 10
13.686
 20
9.00986
 11
14
 21
9.00986
  0
LINE
  8
0
 10
14
 20
9.00986
 11
14
 21
9
  0
LINE
  8
0
 10
14
 20
9
 11
16
 21
9
  0
LINE
  8
0
 10
16
 20
9
 11
16
 21
9.00986
  0
LINE
  8
0
 10
14.7959
 20
11.7564
 11
14.391
 21
11.8076
  0
LINE
  8
0
 10
14.391
 20
11.8076
 11
13.9957
 21
11.9091
  0
LINE
  8
0
 10
13.9957
 20
11.9091
 11
13.6162
 21
12.0593
  0
LINE
  8
0
 10
13.6162
 20
12.0593
 11
13.2586
 21
12.2559
  0
LINE
  8
0
 10
13.2586
 20
12.2559
 11
12.9284
 21
12.4958
  0
LINE
  8
0
 10
12.9284
 20
12.4958
 11
12.6308
 21
12.7752
  0
LINE
  8
0
 10
12.6308
 20
12.7752
 11
12.3707
 21
13.0897
  0
LINE
  8
0
 10
12.3707
 20
13.0897
 11
12.152
 21
13.4343
  0
LINE
  8
0
 10
12.152
 20
13.4343
 11
11.9782
 21
13.8036
  0
LINE
  8
0
 10
11.9782
 20
13.8036
 11
11.8521
 21
14.1918
  0
LINE
  8
0
 10
11.8521
 20
14.1918
 11
11.7756
 21
14.5927
  0
LINE
  8
0
 10
11.7756
 20
14.5927
 11
11.75
 21
15
  0
LINE
  8
0
 10
11.75
 20
15
 11
11.7756
 21
15.4073
  0
LINE
  8
0
 10
11.7756
 20
15.4073
 11
11.8521
 21
15.8082
  0
LINE
  8
0
 10
11.8521
 20
15.8082
 11
11.9782
 21
16.1964
  0
LINE
  8
0
 10
11.9782
 20
16.1964
 11
12.152
 21
16.5657
  0
LINE
  8
0
 10
12.152
 20
16.5657
 11
12.3707
 21
16.9103
  0
LINE
  8
0
 10
12.3707
 20
16.9103
 11
12.6308
 21
17.2248
  0
LINE
  8
0
 10
12.6308
 20
17.2248
 11
12.9284
 21
17.5042
  0
LINE
  8
0
 10
12.9284
 20
17.5042
 11
13.2586
 21
17.7441
  0
LINE
  8
0
 10
13.2586
 20
17.7441
 11
13.6162
 21
17.9407
  0
LINE
  8
0
 10
13.6162
 20
17.9407
 11
13.9957
 21
18.0909
  0
LINE
  8
0
 10
13.9957
 20
18.0909
 11
14.391
 21
18.1924
  0
LINE
  8
0
 10
14.391
 20
18.1924
 11
14.7959
 21
18.2436
  0
LINE
  8
0
 10
14.7959
 20
18.2436
 11
15.2041
 21
18.2436
  0
LINE
  8
0
 10
15.2041
 20
18.2436
 11
15.609
 21
18.1924
  0
LINE
  8
0
 10
15.609
 20
18.1924
 11
16.0043
 21
18.0909
  0
LINE
  8
0
 10
16.0043
 20
18.0909
 11
16.3838
 21
17.9407
  0
LINE
  8
0
 10
16.3838
 20
17.9407
 11
16.7414
 21
17.7441
  0
LINE
  8
0
 10
16.7414
 20
17.7441
 11
17.0716
 21
17.5042
  0
LINE
  8
0
 10
17.0716
 20
17.5042
 11
17.3691
 21
17.2248
  0
LINE
  8
0
 10
17.3691
 20
17.2248
 11
17.6293
 21
16.9103
  0
LINE
  8
0
 10
17.6293
 20
16.9103
 11
17.848
 21
16.5657
  0
LINE
  8
0
 10
17.848
 20
16.5657
 11
18.0218
 21
16.1964
  0
LINE
  8
0
 10
18.0218
 20
16.1964
 11
18.1479
 21
15.8082
  0
LINE
  8
0
 10
18.1479
 20
15.8082
 11
18.2244
 21
15.4073
  0
LINE
  8
0
 10
18.2244
 20
15.4073
 11
18.25
 21
15
  0
LINE
  8
0
 10
18.25
 20
15
 11
18.2244
 21
14.5927
  0
LINE
  8
0
 10
18.2244
 20
14.5927
 11
18.1479
 21
14.1918
  0
LINE
  8
0
 10
18.1479
 20
14.1918
 11
18.0218
 21
13.8036
  0
LINE
  8
0
 10
18.0218
 20
13.8036
 11
17.848
 21
13.4343
  0
LINE
  8
0
 10
17.848
 20
13.4343
 11
17.6293
 21
13.0897
  0
LINE
  8
0
 10
17.6293
 20
13.0897
 11
17.3691
 21
12.7752
  0
LINE
  8
0
 10
17.3691
 20
12.7752
 11
17.0716
 21
12.4958
  0
LINE
  8
0
 10
17.0716
 20
12.4958
 11
16.7414
 21
12.2559
  0
LINE
  8
0
 10
16.7414
 20
12.2559
 11
16.3838
 21
12.0593
  0
LINE
  8
0
 10
16.3838
 20
12.0593
 11
16.0043
 21
11.9091
  0
LINE
  8
0
 10
16.0043
 20
11.9091
 11
15.609
 21
11.8076
  0
LINE
  8
0
 10
15.609
 20
11.8076
 11
15.2041
 21
11.7564
  0
LINE
  8
0
 10
15.2041
 20
11.7564
 11
14.7959
 21
11.7564
  0
ENDSEC
  0
SECTION
  2
OBJECTS
  0
DICTIONARY
  0
ENDSEC
  0
EOF
