  0
SECTION
  2
BLOCKS
  0
ENDSEC
  0
SECTION
  2
ENTITIES
  0
LINE
  8
0
 10
2.24345
 20
-5.84291
 11
3.40877
 21
-5.38153
  0
LINE
  8
0
 10
3.40877
 20
-5.38153
 11
4.42273
 21
-4.64484
  0
LINE
  8
0
 10
4.42273
 20
-4.64484
 11
5.22163
 21
-3.67914
  0
LINE
  8
0
 10
5.22163
 20
-3.67914
 11
5.75528
 21
-2.54509
  0
LINE
  8
0
 10
5.75528
 20
-2.54509
 11
6
 21
-1
  0
LINE
  8
0
 10
6
 20
-1
 11
6
 21
1
  0
LINE
  8
0
 10
6
 20
1
 11
5.84291
 21
2.24345
  0
LINE
  8
0
 10
5.84291
 20
2.24345
 11
5.38153
 21
3.40877
  0
LINE
  8
0
 10
5.38153
 20
3.40877
 11
4.64484
 21
4.42273
  0
LINE
  8
0
 10
4.64484
 20
4.42273
 11
3.67914
 21
5.22163
  0
LINE
  8
0
 10
3.67914
 20
5.22163
 11
2.54509
 21
5.75528
  0
LINE
  8
0
 10
2.54509
 20
5.75528
 11
1
 21
6
  0
LINE
  8
0
 10
1
 20
6
 11
-1
 21
6
  0
LINE
  8
0
 10
-1
 20
6
 11
-2.24345
 21
5.84291
  0
LINE
  8
0
 10
-2.24345
 20
5.84291
 11
-3.40877
 21
5.38153
  0
LINE
  8
0
 10
-3.40877
 20
5.38153
 11
-4.42273
 21
4.64484
  0
LINE
  8
0
 10
-4.42273
 20
4.64484
 11
-5.22163
 21
3.67914
  0
LINE
  8
0
 10
-5.22163
 20
3.67914
 11
-5.75528
 21
2.54509
  0
LINE
  8
0
 10
-5.75528
 20
2.54509
 11
-6
 21
1
  0
LINE
  8
0
 10
-6
 20
1
 11
-6
 21
-1
  0
LINE
  8
0
 10
-6
 20
-1
 11
-5.84291
 21
-2.24345
  0
LINE
  8
0
 10
-5.84291
 20
-2.24345
 11
-5.38153
 21
-3.40877
  0
LINE
  8
0
 10
-5.38153
 20
-3.40877
 11
-4.64484
 21
-4.42273
  0
LINE
  8
0
 10
-4.64484
 20
-4.42273
 11
-3.67914
 21
-5.22163
  0
LINE
  8
0
 10
-3.67914
 20
-5.22163
 11
-2.54509
 21
-5.75528
  0
LINE
  8
0
 10
-2.54509
 20
-5.75528
 11
-1
 21
-6
  0
LINE
  8
0
 10
-1
 20
-6
 11
1
 21
-6
  0
LINE
  8
0
 10
1
 20
-6
 11
2.24345
 21
-5.84291
  0
LINE
  8
0
 10
-0.562134
 20
-2.94685
 11
-1.27733
 21
-2.71448
  0
LINE
  8
0
 10
-1.27733
 20
-2.71448
 11
-1.91226
 21
-2.31154
  0
LINE
  8
0
 10
-1.91226
 20
-2.31154
 11
-2.42705
 21
-1.76335
  0
LINE
  8
0
 10
-2.42705
 20
-1.76335
 11
-2.78932
 21
-1.10437
  0
LINE
  8
0
 10
-2.78932
 20
-1.10437
 11
-2.97633
 21
-0.375992
  0
LINE
  8
0
 10
-2.97633
 20
-0.375992
 11
-2.97633
 21
0.375992
  0
LINE
  8
0
 10
-2.97633
 20
0.375992
 11
-2.78932
 21
1.10437
  0
LINE
  8
0
 10
-2.78932
 20
1.10437
 11
-2.42705
 21
1.76335
  0
LINE
  8
0
 10
-2.42705
 20
1.76335
 11
-1.91226
 21
2.31154
  0
LINE
  8
0
 10
-1.91226
 20
2.31154
 11
-1.27733
 21
2.71448
  0
LINE
  8
0
 10
-1.27733
 20
2.71448
 11
-0.562134
 21
2.94685
  0
LINE
  8
0
 10
-0.562134
 20
2.94685
 11
0.18837
 21
2.99408
  0
LINE
  8
0
 10
0.18837
 20
2.99408
 11
0.927048
 21
2.85316
  0
LINE
  8
0
 10
0.927048
 20
2.85316
 11
1.60747
 21
2.53297
  0
LINE
  8
0
 10
1.60747
 20
2.53297
 11
2.1869
 21
2.05363
  0
LINE
  8
0
 10
2.1869
 20
2.05363
 11
2.62891
 21
1.44525
  0
LINE
  8
0
 10
2.62891
 20
1.44525
 11
2.90575
 21
0.746063
  0
LINE
  8
0
 10
2.90575
 20
0.746063
 11
3
 21
0
  0
LINE
  8
0
 10
3
 20
0
 11
2.90575
 21
-0.746063
  0
LINE
  8
0
 10
2.90575
 20
-0.746063
 11
2.62891
 21
-1.44525
  0
LINE
  8
0
 10
2.62891
 20
-1.44525
 11
2.1869
 21
-2.05363
  0
LINE
  8
0
 10
2.1869
 20
-2.05363
 11
1.60747
 21
-2.53297
  0
LINE
  8
0
 10
1.60747
 20
-2.53297
 11
0.927048
 21
-2.85316
  0
LINE
  8
0
 10
0.927048
 20
-2.85316
 11
0.18837
 21
-2.99408
  0
LINE
  8
0
 10
0.18837
 20
-2.99408
 11
-0.562134
 21
-2.94685
  0
ENDSEC
  0
SECTION
  2
OBJECTS
  0
DICTIONARY
  0
ENDSEC
  0
EOF
