<?xml version="1.0" standalone="no"?>
<!DOCTYPE svg PUBLIC "-//W3C//DTD SVG 1.1//EN" "http://www.w3.org/Graphics/SVG/1.1/DTD/svg11.dtd">
<svg width="12mm" height="12mm" viewBox="9 -21 12 12" xmlns="http://www.w3.org/2000/svg" version="1.1">
<title>OpenSCAD Model</title>
<path d="
M 16,-9.00986 L 16.3139,-9.00986 L 16.9369,-9.08856 L 17.5451,-9.24471 L 18.1289,-9.47586 L 18.6791,-9.77835
 L 19.1871,-10.1474 L 19.6448,-10.5773 L 20.0451,-11.0611 L 20.3815,-11.5912 L 20.6489,-12.1594 L 20.8429,-12.7565
 L 20.9606,-13.3733 L 21,-14 L 21,-16 L 20.9606,-16.6267 L 20.8429,-17.2434 L 20.6489,-17.8406
 L 20.3815,-18.4088 L 20.0451,-18.9389 L 19.6448,-19.4227 L 19.1871,-19.8526 L 18.6791,-20.2216 L 18.1289,-20.5241
 L 17.5451,-20.7553 L 16.9369,-20.9114 L 16.3139,-20.9901 L 16,-20.9901 L 16,-21 L 14,-21
 L 14,-20.9901 L 13.686,-20.9901 L 13.0631,-20.9114 L 12.4549,-20.7553 L 11.8711,-20.5241 L 11.3209,-20.2216
 L 10.8129,-19.8526 L 10.3551,-19.4227 L 9.95491,-18.9389 L 9.61845,-18.4088 L 9.3511,-17.8406 L 9.15707,-17.2434
 L 9.03941,-16.6267 L 9,-16 L 9,-14 L 9.03941,-13.3733 L 9.15707,-12.7565 L 9.3511,-12.1594
 L 9.61845,-11.5912 L 9.95491,-11.0611 L 10.3551,-10.5773 L 10.8129,-10.1474 L 11.3209,-9.77835 L 11.8711,-9.47586
 L 12.4549,-9.24471 L 13.0631,-9.08856 L 13.686,-9.00986 L 14,-9.00986 L 14,-9 L 16,-9
 z
M 14.8116,-12.0059 L 14.4379,-12.0531 L 14.0729,-12.1468 L 13.7227,-12.2855 L 13.3925,-12.467 L 13.0877,-12.6884
 L 12.8131,-12.9464 L 12.5729,-13.2366 L 12.3711,-13.5547 L 12.2107,-13.8956 L 12.0942,-14.2539 L 12.0237,-14.624
 L 12,-15 L 12.0237,-15.376 L 12.0942,-15.7461 L 12.2107,-16.1044 L 12.3711,-16.4453 L 12.5729,-16.7634
 L 12.8131,-17.0536 L 13.0877,-17.3115 L 13.3925,-17.533 L 13.7227,-17.7145 L 14.0729,-17.8532 L 14.4379,-17.9469
 L 14.8116,-17.9941 L 15.1884,-17.9941 L 15.5621,-17.9469 L 15.927,-17.8532 L 16.2773,-17.7145 L 16.6075,-17.533
 L 16.9123,-17.3115 L 17.1869,-17.0536 L 17.427,-16.7634 L 17.6289,-16.4453 L 17.7893,-16.1044 L 17.9057,-15.7461
 L 17.9763,-15.376 L 18,-15 L 17.9763,-14.624 L 17.9057,-14.2539 L 17.7893,-13.8956 L 17.6289,-13.5547
 L 17.427,-13.2366 L 17.1869,-12.9464 L 16.9123,-12.6884 L 16.6075,-12.467 L 16.2773,-12.2855 L 15.927,-12.1468
 L 15.5621,-12.0531 L 15.1884,-12.0059 z
" stroke="black" fill="lightgray" stroke-width="0.5"/>
</svg>
