solid OpenSCAD_Model
  facet normal 0.587788 -0.809015 0
    outer loop
      vertex 3.40877 -5.38153 -3
      vertex 4.42273 -4.64484 0
      vertex 3.40877 -5.38153 0
    endloop
  endfacet
  facet normal 0.587788 -0.809015 0
    outer loop
      vertex 4.42273 -4.64484 0
      vertex 3.40877 -5.38153 -3
      vertex 4.42273 -4.64484 -3
    endloop
  endfacet
  facet normal -0.368123 0.929777 0
    outer loop
      vertex -2.24345 5.84291 -3
      vertex -3.40877 5.38153 0
      vertex -2.24345 5.84291 0
    endloop
  endfacet
  facet normal -0.368123 0.929777 0
    outer loop
      vertex -3.40877 5.38153 0
      vertex -2.24345 5.84291 -3
      vertex -3.40877 5.38153 -3
    endloop
  endfacet
  facet normal 0.368123 -0.929777 0
    outer loop
      vertex 2.24345 -5.84291 -3
      vertex 3.40877 -5.38153 0
      vertex 2.24345 -5.84291 0
    endloop
  endfacet
  facet normal 0.368123 -0.929777 0
    outer loop
      vertex 3.40877 -5.38153 0
      vertex 2.24345 -5.84291 -3
      vertex 3.40877 -5.38153 -3
    endloop
  endfacet
  facet normal 0.809015 0.587788 0
    outer loop
      vertex 5.38153 3.40877 0
      vertex 4.64484 4.42273 -3
      vertex 4.64484 4.42273 0
    endloop
  endfacet
  facet normal 0.809015 0.587788 0
    outer loop
      vertex 4.64484 4.42273 -3
      vertex 5.38153 3.40877 0
      vertex 5.38153 3.40877 -3
    endloop
  endfacet
  facet normal -0.904825 0.425784 0
    outer loop
      vertex -5.75528 2.54509 -3
      vertex -5.22163 3.67914 0
      vertex -5.22163 3.67914 -3
    endloop
  endfacet
  facet normal -0.904825 0.425784 0
    outer loop
      vertex -5.22163 3.67914 0
      vertex -5.75528 2.54509 -3
      vertex -5.75528 2.54509 0
    endloop
  endfacet
  facet normal -0.156436 -0.987688 0
    outer loop
      vertex -2.54509 -5.75528 -3
      vertex -1 -6 0
      vertex -2.54509 -5.75528 0
    endloop
  endfacet
  facet normal -0.156436 -0.987688 -0
    outer loop
      vertex -1 -6 0
      vertex -2.54509 -5.75528 -3
      vertex -1 -6 -3
    endloop
  endfacet
  facet normal 0.156436 0.987688 -0
    outer loop
      vertex 2.54509 5.75528 -3
      vertex 1 6 0
      vertex 2.54509 5.75528 0
    endloop
  endfacet
  facet normal 0.156436 0.987688 0
    outer loop
      vertex 1 6 0
      vertex 2.54509 5.75528 -3
      vertex 1 6 -3
    endloop
  endfacet
  facet normal -0.770512 0.637426 0
    outer loop
      vertex -5.22163 3.67914 -3
      vertex -4.42273 4.64484 0
      vertex -4.42273 4.64484 -3
    endloop
  endfacet
  facet normal -0.770512 0.637426 0
    outer loop
      vertex -4.42273 4.64484 0
      vertex -5.22163 3.67914 -3
      vertex -5.22163 3.67914 0
    endloop
  endfacet
  facet normal -0.587788 0.809015 0
    outer loop
      vertex -3.40877 5.38153 -3
      vertex -4.42273 4.64484 0
      vertex -3.40877 5.38153 0
    endloop
  endfacet
  facet normal -0.587788 0.809015 0
    outer loop
      vertex -4.42273 4.64484 0
      vertex -3.40877 5.38153 -3
      vertex -4.42273 4.64484 -3
    endloop
  endfacet
  facet normal -1 0 0
    outer loop
      vertex -6 -1 -3
      vertex -6 1 0
      vertex -6 1 -3
    endloop
  endfacet
  facet normal -1 -0 0
    outer loop
      vertex -6 1 0
      vertex -6 -1 -3
      vertex -6 -1 0
    endloop
  endfacet
  facet normal 0 0 -1
    outer loop
      vertex 6 -1 -3
      vertex 2.90575 -0.746069 -3
      vertex 3 0 -3
    endloop
  endfacet
  facet normal 0 0 -1
    outer loop
      vertex 4.42273 -4.64484 -3
      vertex 2.62892 -1.44526 -3
      vertex 2.90575 -0.746069 -3
    endloop
  endfacet
  facet normal 0 0 -1
    outer loop
      vertex 1.60748 -2.53298 -3
      vertex 3.40877 -5.38153 -3
      vertex 2.24345 -5.84291 -3
    endloop
  endfacet
  facet normal 0 0 -1
    outer loop
      vertex 4.42273 -4.64484 -3
      vertex 2.18691 -2.05364 -3
      vertex 2.62892 -1.44526 -3
    endloop
  endfacet
  facet normal 0 0 -1
    outer loop
      vertex 4.42273 -4.64484 -3
      vertex 1.60748 -2.53298 -3
      vertex 2.18691 -2.05364 -3
    endloop
  endfacet
  facet normal 0 0 -1
    outer loop
      vertex 0.927051 -2.85317 -3
      vertex 2.24345 -5.84291 -3
      vertex 1 -6 -3
    endloop
  endfacet
  facet normal 0 0 -1
    outer loop
      vertex 2.24345 -5.84291 -3
      vertex 0.927051 -2.85317 -3
      vertex 1.60748 -2.53298 -3
    endloop
  endfacet
  facet normal 0 0 -1
    outer loop
      vertex 1 -6 -3
      vertex 0.188371 -2.99408 -3
      vertex 0.927051 -2.85317 -3
    endloop
  endfacet
  facet normal 0 0 -1
    outer loop
      vertex -1 -6 -3
      vertex 0.188371 -2.99408 -3
      vertex 1 -6 -3
    endloop
  endfacet
  facet normal -0 0 -1
    outer loop
      vertex 0.188371 -2.99408 -3
      vertex -1 -6 -3
      vertex -0.562143 -2.94686 -3
    endloop
  endfacet
  facet normal 0 0 -1
    outer loop
      vertex -1 -6 -3
      vertex -1.27734 -2.71448 -3
      vertex -0.562143 -2.94686 -3
    endloop
  endfacet
  facet normal 0 0 -1
    outer loop
      vertex -2.54509 -5.75528 -3
      vertex -1.27734 -2.71448 -3
      vertex -1 -6 -3
    endloop
  endfacet
  facet normal 0 0 -1
    outer loop
      vertex -3.67914 -5.22163 -3
      vertex -1.27734 -2.71448 -3
      vertex -2.54509 -5.75528 -3
    endloop
  endfacet
  facet normal -0 0 -1
    outer loop
      vertex -1.27734 -2.71448 -3
      vertex -3.67914 -5.22163 -3
      vertex -1.91227 -2.31154 -3
    endloop
  endfacet
  facet normal 0 0 -1
    outer loop
      vertex -4.64484 -4.42273 -3
      vertex -1.91227 -2.31154 -3
      vertex -3.67914 -5.22163 -3
    endloop
  endfacet
  facet normal -0 0 -1
    outer loop
      vertex -1.91227 -2.31154 -3
      vertex -4.64484 -4.42273 -3
      vertex -2.42705 -1.76336 -3
    endloop
  endfacet
  facet normal 0 0 -1
    outer loop
      vertex -6 1 -3
      vertex -2.97634 0.375999 -3
      vertex -2.97634 -0.375999 -3
    endloop
  endfacet
  facet normal 0 0 -1
    outer loop
      vertex -5.38153 -3.40877 -3
      vertex -2.42705 -1.76336 -3
      vertex -4.64484 -4.42273 -3
    endloop
  endfacet
  facet normal -0 0 -1
    outer loop
      vertex -2.42705 -1.76336 -3
      vertex -5.38153 -3.40877 -3
      vertex -2.78933 -1.10437 -3
    endloop
  endfacet
  facet normal 0 0 -1
    outer loop
      vertex -2.97634 0.375999 -3
      vertex -6 1 -3
      vertex -5.75528 2.54509 -3
    endloop
  endfacet
  facet normal 0 0 -1
    outer loop
      vertex -5.84291 -2.24345 -3
      vertex -2.78933 -1.10437 -3
      vertex -5.38153 -3.40877 -3
    endloop
  endfacet
  facet normal 0 0 -1
    outer loop
      vertex -2.97634 0.375999 -3
      vertex -4.42273 4.64484 -3
      vertex -3.40877 5.38153 -3
    endloop
  endfacet
  facet normal 0 0 -1
    outer loop
      vertex -6 -1 -3
      vertex -2.78933 -1.10437 -3
      vertex -5.84291 -2.24345 -3
    endloop
  endfacet
  facet normal 0 0 -1
    outer loop
      vertex -2.97634 0.375999 -3
      vertex -5.22163 3.67914 -3
      vertex -4.42273 4.64484 -3
    endloop
  endfacet
  facet normal 0 0 -1
    outer loop
      vertex -2.78933 -1.10437 -3
      vertex -6 -1 -3
      vertex -2.97634 -0.375999 -3
    endloop
  endfacet
  facet normal -0 0 -1
    outer loop
      vertex -2.97634 -0.375999 -3
      vertex -6 -1 -3
      vertex -6 1 -3
    endloop
  endfacet
  facet normal 0 0 -1
    outer loop
      vertex -2.97634 0.375999 -3
      vertex -5.75528 2.54509 -3
      vertex -5.22163 3.67914 -3
    endloop
  endfacet
  facet normal 0 0 -1
    outer loop
      vertex 3 0 -3
      vertex 6 1 -3
      vertex 6 -1 -3
    endloop
  endfacet
  facet normal 0 0 -1
    outer loop
      vertex 2.90575 -0.746069 -3
      vertex 6 -1 -3
      vertex 5.75528 -2.54509 -3
    endloop
  endfacet
  facet normal 0 0 -1
    outer loop
      vertex 2.90575 0.746069 -3
      vertex 6 1 -3
      vertex 3 0 -3
    endloop
  endfacet
  facet normal 0 0 -1
    outer loop
      vertex 2.90575 -0.746069 -3
      vertex 5.75528 -2.54509 -3
      vertex 5.22163 -3.67914 -3
    endloop
  endfacet
  facet normal -0 0 -1
    outer loop
      vertex 6 1 -3
      vertex 2.90575 0.746069 -3
      vertex 5.84291 2.24345 -3
    endloop
  endfacet
  facet normal 0 0 -1
    outer loop
      vertex 2.90575 -0.746069 -3
      vertex 5.22163 -3.67914 -3
      vertex 4.42273 -4.64484 -3
    endloop
  endfacet
  facet normal 0 0 -1
    outer loop
      vertex 2.62892 1.44526 -3
      vertex 5.84291 2.24345 -3
      vertex 2.90575 0.746069 -3
    endloop
  endfacet
  facet normal 0 0 -1
    outer loop
      vertex 1.60748 -2.53298 -3
      vertex 4.42273 -4.64484 -3
      vertex 3.40877 -5.38153 -3
    endloop
  endfacet
  facet normal -0 0 -1
    outer loop
      vertex 5.84291 2.24345 -3
      vertex 2.62892 1.44526 -3
      vertex 5.38153 3.40877 -3
    endloop
  endfacet
  facet normal 0 0 -1
    outer loop
      vertex 2.18691 2.05364 -3
      vertex 5.38153 3.40877 -3
      vertex 2.62892 1.44526 -3
    endloop
  endfacet
  facet normal -0 0 -1
    outer loop
      vertex 5.38153 3.40877 -3
      vertex 2.18691 2.05364 -3
      vertex 4.64484 4.42273 -3
    endloop
  endfacet
  facet normal -0 0 -1
    outer loop
      vertex 4.64484 4.42273 -3
      vertex 2.18691 2.05364 -3
      vertex 3.67914 5.22163 -3
    endloop
  endfacet
  facet normal 0 0 -1
    outer loop
      vertex 1.60748 2.53298 -3
      vertex 3.67914 5.22163 -3
      vertex 2.18691 2.05364 -3
    endloop
  endfacet
  facet normal -0 0 -1
    outer loop
      vertex 3.67914 5.22163 -3
      vertex 1.60748 2.53298 -3
      vertex 2.54509 5.75528 -3
    endloop
  endfacet
  facet normal 0 0 -1
    outer loop
      vertex 0.927051 2.85317 -3
      vertex 2.54509 5.75528 -3
      vertex 1.60748 2.53298 -3
    endloop
  endfacet
  facet normal -0 0 -1
    outer loop
      vertex 2.54509 5.75528 -3
      vertex 0.927051 2.85317 -3
      vertex 1 6 -3
    endloop
  endfacet
  facet normal 0 0 -1
    outer loop
      vertex 0.188371 2.99408 -3
      vertex 1 6 -3
      vertex 0.927051 2.85317 -3
    endloop
  endfacet
  facet normal 0 0 -1
    outer loop
      vertex -1 6 -3
      vertex 0.188371 2.99408 -3
      vertex -0.562143 2.94686 -3
    endloop
  endfacet
  facet normal 0 0 -1
    outer loop
      vertex 0.188371 2.99408 -3
      vertex -1 6 -3
      vertex 1 6 -3
    endloop
  endfacet
  facet normal 0 0 -1
    outer loop
      vertex -1.27734 2.71448 -3
      vertex -1 6 -3
      vertex -0.562143 2.94686 -3
    endloop
  endfacet
  facet normal 0 0 -1
    outer loop
      vertex -3.40877 5.38153 -3
      vertex -1.27734 2.71448 -3
      vertex -1.91227 2.31154 -3
    endloop
  endfacet
  facet normal 0 0 -1
    outer loop
      vertex -1.27734 2.71448 -3
      vertex -2.24345 5.84291 -3
      vertex -1 6 -3
    endloop
  endfacet
  facet normal 0 0 -1
    outer loop
      vertex -3.40877 5.38153 -3
      vertex -1.91227 2.31154 -3
      vertex -2.42705 1.76336 -3
    endloop
  endfacet
  facet normal 0 0 -1
    outer loop
      vertex -3.40877 5.38153 -3
      vertex -2.42705 1.76336 -3
      vertex -2.78933 1.10437 -3
    endloop
  endfacet
  facet normal 0 0 -1
    outer loop
      vertex -3.40877 5.38153 -3
      vertex -2.78933 1.10437 -3
      vertex -2.97634 0.375999 -3
    endloop
  endfacet
  facet normal 0 0 -1
    outer loop
      vertex -1.27734 2.71448 -3
      vertex -3.40877 5.38153 -3
      vertex -2.24345 5.84291 -3
    endloop
  endfacet
  facet normal -0.992114 -0.125338 0
    outer loop
      vertex -5.84291 -2.24345 -3
      vertex -6 -1 0
      vertex -6 -1 -3
    endloop
  endfacet
  facet normal -0.992114 -0.125338 0
    outer loop
      vertex -6 -1 0
      vertex -5.84291 -2.24345 -3
      vertex -5.84291 -2.24345 0
    endloop
  endfacet
  facet normal -0.987688 0.156436 0
    outer loop
      vertex -6 1 -3
      vertex -5.75528 2.54509 0
      vertex -5.75528 2.54509 -3
    endloop
  endfacet
  facet normal -0.987688 0.156436 0
    outer loop
      vertex -5.75528 2.54509 0
      vertex -6 1 -3
      vertex -6 1 0
    endloop
  endfacet
  facet normal -0.809015 -0.587788 0
    outer loop
      vertex -4.64484 -4.42273 -3
      vertex -5.38153 -3.40877 0
      vertex -5.38153 -3.40877 -3
    endloop
  endfacet
  facet normal -0.809015 -0.587788 0
    outer loop
      vertex -5.38153 -3.40877 0
      vertex -4.64484 -4.42273 -3
      vertex -4.64484 -4.42273 0
    endloop
  endfacet
  facet normal -0.425784 -0.904825 0
    outer loop
      vertex -3.67914 -5.22163 -3
      vertex -2.54509 -5.75528 0
      vertex -3.67914 -5.22163 0
    endloop
  endfacet
  facet normal -0.425784 -0.904825 -0
    outer loop
      vertex -2.54509 -5.75528 0
      vertex -3.67914 -5.22163 -3
      vertex -2.54509 -5.75528 -3
    endloop
  endfacet
  facet normal 0 -1 0
    outer loop
      vertex -1 -6 -3
      vertex 1 -6 0
      vertex -1 -6 0
    endloop
  endfacet
  facet normal 0 -1 -0
    outer loop
      vertex 1 -6 0
      vertex -1 -6 -3
      vertex 1 -6 -3
    endloop
  endfacet
  facet normal 0.425784 0.904825 -0
    outer loop
      vertex 3.67914 5.22163 -3
      vertex 2.54509 5.75528 0
      vertex 3.67914 5.22163 0
    endloop
  endfacet
  facet normal 0.425784 0.904825 0
    outer loop
      vertex 2.54509 5.75528 0
      vertex 3.67914 5.22163 -3
      vertex 2.54509 5.75528 -3
    endloop
  endfacet
  facet normal 0.637426 0.770512 -0
    outer loop
      vertex 4.64484 4.42273 -3
      vertex 3.67914 5.22163 0
      vertex 4.64484 4.42273 0
    endloop
  endfacet
  facet normal 0.637426 0.770512 0
    outer loop
      vertex 3.67914 5.22163 0
      vertex 4.64484 4.42273 -3
      vertex 3.67914 5.22163 -3
    endloop
  endfacet
  facet normal 0 1 -0
    outer loop
      vertex 1 6 -3
      vertex -1 6 0
      vertex 1 6 0
    endloop
  endfacet
  facet normal 0 1 0
    outer loop
      vertex -1 6 0
      vertex 1 6 -3
      vertex -1 6 -3
    endloop
  endfacet
  facet normal -0.125338 0.992114 0
    outer loop
      vertex -1 6 -3
      vertex -2.24345 5.84291 0
      vertex -1 6 0
    endloop
  endfacet
  facet normal -0.125338 0.992114 0
    outer loop
      vertex -2.24345 5.84291 0
      vertex -1 6 -3
      vertex -2.24345 5.84291 -3
    endloop
  endfacet
  facet normal 0.992114 0.125338 0
    outer loop
      vertex 6 1 0
      vertex 5.84291 2.24345 -3
      vertex 5.84291 2.24345 0
    endloop
  endfacet
  facet normal 0.992114 0.125338 0
    outer loop
      vertex 5.84291 2.24345 -3
      vertex 6 1 0
      vertex 6 1 -3
    endloop
  endfacet
  facet normal 1 -0 0
    outer loop
      vertex 6 -1 0
      vertex 6 1 -3
      vertex 6 1 0
    endloop
  endfacet
  facet normal 1 0 0
    outer loop
      vertex 6 1 -3
      vertex 6 -1 0
      vertex 6 -1 -3
    endloop
  endfacet
  facet normal 0.929777 0.368123 0
    outer loop
      vertex 5.84291 2.24345 0
      vertex 5.38153 3.40877 -3
      vertex 5.38153 3.40877 0
    endloop
  endfacet
  facet normal 0.929777 0.368123 0
    outer loop
      vertex 5.38153 3.40877 -3
      vertex 5.84291 2.24345 0
      vertex 5.84291 2.24345 -3
    endloop
  endfacet
  facet normal 0.987688 -0.156436 0
    outer loop
      vertex 5.75528 -2.54509 0
      vertex 6 -1 -3
      vertex 6 -1 0
    endloop
  endfacet
  facet normal 0.987688 -0.156436 0
    outer loop
      vertex 6 -1 -3
      vertex 5.75528 -2.54509 0
      vertex 5.75528 -2.54509 -3
    endloop
  endfacet
  facet normal 0.770512 -0.637426 0
    outer loop
      vertex 4.42273 -4.64484 0
      vertex 5.22163 -3.67914 -3
      vertex 5.22163 -3.67914 0
    endloop
  endfacet
  facet normal 0.770512 -0.637426 0
    outer loop
      vertex 5.22163 -3.67914 -3
      vertex 4.42273 -4.64484 0
      vertex 4.42273 -4.64484 -3
    endloop
  endfacet
  facet normal -0.929777 -0.368123 0
    outer loop
      vertex -5.38153 -3.40877 -3
      vertex -5.84291 -2.24345 0
      vertex -5.84291 -2.24345 -3
    endloop
  endfacet
  facet normal -0.929777 -0.368123 0
    outer loop
      vertex -5.84291 -2.24345 0
      vertex -5.38153 -3.40877 -3
      vertex -5.38153 -3.40877 0
    endloop
  endfacet
  facet normal 0 0 1
    outer loop
      vertex 2.90575 0.746069 0
      vertex 6 1 0
      vertex 5.84291 2.24345 0
    endloop
  endfacet
  facet normal 0 0 1
    outer loop
      vertex 6 1 0
      vertex 3 0 0
      vertex 6 -1 0
    endloop
  endfacet
  facet normal 0 0 1
    outer loop
      vertex 2.62892 1.44526 0
      vertex 5.84291 2.24345 0
      vertex 5.38153 3.40877 0
    endloop
  endfacet
  facet normal -0 0 1
    outer loop
      vertex 2.90575 -0.746069 0
      vertex 6 -1 0
      vertex 3 0 0
    endloop
  endfacet
  facet normal 0 0 1
    outer loop
      vertex 2.18691 2.05364 0
      vertex 5.38153 3.40877 0
      vertex 4.64484 4.42273 0
    endloop
  endfacet
  facet normal 0 0 1
    outer loop
      vertex 6 -1 0
      vertex 2.90575 -0.746069 0
      vertex 5.75528 -2.54509 0
    endloop
  endfacet
  facet normal 0 0 1
    outer loop
      vertex 2.18691 2.05364 0
      vertex 4.64484 4.42273 0
      vertex 3.67914 5.22163 0
    endloop
  endfacet
  facet normal -0 0 1
    outer loop
      vertex 2.62892 -1.44526 0
      vertex 5.75528 -2.54509 0
      vertex 2.90575 -0.746069 0
    endloop
  endfacet
  facet normal 0 0 1
    outer loop
      vertex 5.75528 -2.54509 0
      vertex 2.62892 -1.44526 0
      vertex 5.22163 -3.67914 0
    endloop
  endfacet
  facet normal 0 0 1
    outer loop
      vertex 6 1 0
      vertex 2.90575 0.746069 0
      vertex 3 0 0
    endloop
  endfacet
  facet normal 0 0 1
    outer loop
      vertex 5.84291 2.24345 0
      vertex 2.62892 1.44526 0
      vertex 2.90575 0.746069 0
    endloop
  endfacet
  facet normal 0 0 1
    outer loop
      vertex 1.60748 2.53298 0
      vertex 3.67914 5.22163 0
      vertex 2.54509 5.75528 0
    endloop
  endfacet
  facet normal 0 0 1
    outer loop
      vertex 5.38153 3.40877 0
      vertex 2.18691 2.05364 0
      vertex 2.62892 1.44526 0
    endloop
  endfacet
  facet normal 0 0 1
    outer loop
      vertex 3.67914 5.22163 0
      vertex 1.60748 2.53298 0
      vertex 2.18691 2.05364 0
    endloop
  endfacet
  facet normal 0 0 1
    outer loop
      vertex 0.927051 2.85317 0
      vertex 2.54509 5.75528 0
      vertex 1 6 0
    endloop
  endfacet
  facet normal 0 0 1
    outer loop
      vertex 2.54509 5.75528 0
      vertex 0.927051 2.85317 0
      vertex 1.60748 2.53298 0
    endloop
  endfacet
  facet normal 0 0 1
    outer loop
      vertex 1 6 0
      vertex 0.188371 2.99408 0
      vertex 0.927051 2.85317 0
    endloop
  endfacet
  facet normal -0 0 1
    outer loop
      vertex -1 6 0
      vertex 0.188371 2.99408 0
      vertex 1 6 0
    endloop
  endfacet
  facet normal 0 0 1
    outer loop
      vertex 0.188371 2.99408 0
      vertex -1 6 0
      vertex -0.562143 2.94686 0
    endloop
  endfacet
  facet normal 0 0 1
    outer loop
      vertex -1 6 0
      vertex -1.27734 2.71448 0
      vertex -0.562143 2.94686 0
    endloop
  endfacet
  facet normal -0 0 1
    outer loop
      vertex -2.24345 5.84291 0
      vertex -1.27734 2.71448 0
      vertex -1 6 0
    endloop
  endfacet
  facet normal -0 0 1
    outer loop
      vertex -3.40877 5.38153 0
      vertex -1.27734 2.71448 0
      vertex -2.24345 5.84291 0
    endloop
  endfacet
  facet normal 0 0 1
    outer loop
      vertex -1.27734 2.71448 0
      vertex -3.40877 5.38153 0
      vertex -1.91227 2.31154 0
    endloop
  endfacet
  facet normal -0 0 1
    outer loop
      vertex -4.42273 4.64484 0
      vertex -1.91227 2.31154 0
      vertex -3.40877 5.38153 0
    endloop
  endfacet
  facet normal 0 0 1
    outer loop
      vertex -1.91227 2.31154 0
      vertex -4.42273 4.64484 0
      vertex -2.42705 1.76336 0
    endloop
  endfacet
  facet normal -0 0 1
    outer loop
      vertex -5.75528 2.54509 0
      vertex -2.42705 1.76336 0
      vertex -5.22163 3.67914 0
    endloop
  endfacet
  facet normal -0 0 1
    outer loop
      vertex -5.22163 3.67914 0
      vertex -2.42705 1.76336 0
      vertex -4.42273 4.64484 0
    endloop
  endfacet
  facet normal -0 0 1
    outer loop
      vertex 2.18691 -2.05364 0
      vertex 5.22163 -3.67914 0
      vertex 2.62892 -1.44526 0
    endloop
  endfacet
  facet normal 0 0 1
    outer loop
      vertex 5.22163 -3.67914 0
      vertex 2.18691 -2.05364 0
      vertex 4.42273 -4.64484 0
    endloop
  endfacet
  facet normal -0 0 1
    outer loop
      vertex 1.60748 -2.53298 0
      vertex 4.42273 -4.64484 0
      vertex 2.18691 -2.05364 0
    endloop
  endfacet
  facet normal 0 0 1
    outer loop
      vertex 4.42273 -4.64484 0
      vertex 1.60748 -2.53298 0
      vertex 3.40877 -5.38153 0
    endloop
  endfacet
  facet normal 0 0 1
    outer loop
      vertex 3.40877 -5.38153 0
      vertex 1.60748 -2.53298 0
      vertex 2.24345 -5.84291 0
    endloop
  endfacet
  facet normal -0 0 1
    outer loop
      vertex 0.927051 -2.85317 0
      vertex 2.24345 -5.84291 0
      vertex 1.60748 -2.53298 0
    endloop
  endfacet
  facet normal 0 0 1
    outer loop
      vertex 2.24345 -5.84291 0
      vertex 0.927051 -2.85317 0
      vertex 1 -6 0
    endloop
  endfacet
  facet normal -0 0 1
    outer loop
      vertex 0.188371 -2.99408 0
      vertex 1 -6 0
      vertex 0.927051 -2.85317 0
    endloop
  endfacet
  facet normal 0 0 1
    outer loop
      vertex -1 -6 0
      vertex 0.188371 -2.99408 0
      vertex -0.562143 -2.94686 0
    endloop
  endfacet
  facet normal 0 0 1
    outer loop
      vertex 0.188371 -2.99408 0
      vertex -1 -6 0
      vertex 1 -6 0
    endloop
  endfacet
  facet normal 0 0 1
    outer loop
      vertex -1.27734 -2.71448 0
      vertex -1 -6 0
      vertex -0.562143 -2.94686 0
    endloop
  endfacet
  facet normal 0 0 1
    outer loop
      vertex -3.67914 -5.22163 0
      vertex -1.27734 -2.71448 0
      vertex -1.91227 -2.31154 0
    endloop
  endfacet
  facet normal 0 0 1
    outer loop
      vertex -4.64484 -4.42273 0
      vertex -1.91227 -2.31154 0
      vertex -2.42705 -1.76336 0
    endloop
  endfacet
  facet normal 0 0 1
    outer loop
      vertex -1.27734 -2.71448 0
      vertex -2.54509 -5.75528 0
      vertex -1 -6 0
    endloop
  endfacet
  facet normal 0 0 1
    outer loop
      vertex -5.38153 -3.40877 0
      vertex -2.42705 -1.76336 0
      vertex -2.78933 -1.10437 0
    endloop
  endfacet
  facet normal -0 0 1
    outer loop
      vertex -6 -1 0
      vertex -2.78933 -1.10437 0
      vertex -2.97634 -0.375999 0
    endloop
  endfacet
  facet normal 0 0 1
    outer loop
      vertex -1.27734 -2.71448 0
      vertex -3.67914 -5.22163 0
      vertex -2.54509 -5.75528 0
    endloop
  endfacet
  facet normal 0 0 1
    outer loop
      vertex -2.42705 1.76336 0
      vertex -5.75528 2.54509 0
      vertex -2.78933 1.10437 0
    endloop
  endfacet
  facet normal 0 0 1
    outer loop
      vertex -6 1 0
      vertex -2.78933 1.10437 0
      vertex -5.75528 2.54509 0
    endloop
  endfacet
  facet normal 0 0 1
    outer loop
      vertex -6 -1 0
      vertex -2.97634 -0.375999 0
      vertex -6 1 0
    endloop
  endfacet
  facet normal 0 0 1
    outer loop
      vertex -2.78933 1.10437 0
      vertex -6 1 0
      vertex -2.97634 0.375999 0
    endloop
  endfacet
  facet normal 0 0 1
    outer loop
      vertex -2.78933 -1.10437 0
      vertex -6 -1 0
      vertex -5.84291 -2.24345 0
    endloop
  endfacet
  facet normal 0 0 1
    outer loop
      vertex -2.97634 0.375999 0
      vertex -6 1 0
      vertex -2.97634 -0.375999 0
    endloop
  endfacet
  facet normal 0 0 1
    outer loop
      vertex -1.91227 -2.31154 0
      vertex -4.64484 -4.42273 0
      vertex -3.67914 -5.22163 0
    endloop
  endfacet
  facet normal 0 0 1
    outer loop
      vertex -2.42705 -1.76336 0
      vertex -5.38153 -3.40877 0
      vertex -4.64484 -4.42273 0
    endloop
  endfacet
  facet normal 0 0 1
    outer loop
      vertex -2.78933 -1.10437 0
      vertex -5.84291 -2.24345 0
      vertex -5.38153 -3.40877 0
    endloop
  endfacet
  facet normal -0.637426 -0.770512 0
    outer loop
      vertex -4.64484 -4.42273 -3
      vertex -3.67914 -5.22163 0
      vertex -4.64484 -4.42273 0
    endloop
  endfacet
  facet normal -0.637426 -0.770512 -0
    outer loop
      vertex -3.67914 -5.22163 0
      vertex -4.64484 -4.42273 -3
      vertex -3.67914 -5.22163 -3
    endloop
  endfacet
  facet normal 0.125338 -0.992114 0
    outer loop
      vertex 1 -6 -3
      vertex 2.24345 -5.84291 0
      vertex 1 -6 0
    endloop
  endfacet
  facet normal 0.125338 -0.992114 0
    outer loop
      vertex 2.24345 -5.84291 0
      vertex 1 -6 -3
      vertex 2.24345 -5.84291 -3
    endloop
  endfacet
  facet normal 0.904825 -0.425784 0
    outer loop
      vertex 5.22163 -3.67914 0
      vertex 5.75528 -2.54509 -3
      vertex 5.75528 -2.54509 0
    endloop
  endfacet
  facet normal 0.904825 -0.425784 0
    outer loop
      vertex 5.75528 -2.54509 -3
      vertex 5.22163 -3.67914 0
      vertex 5.22163 -3.67914 -3
    endloop
  endfacet
  facet normal -0.929776 0.368125 0
    outer loop
      vertex 2.62892 -1.44526 -3
      vertex 2.90575 -0.746069 0
      vertex 2.90575 -0.746069 -3
    endloop
  endfacet
  facet normal -0.929776 0.368125 0
    outer loop
      vertex 2.90575 -0.746069 0
      vertex 2.62892 -1.44526 -3
      vertex 2.62892 -1.44526 0
    endloop
  endfacet
  facet normal -0.992115 0.125333 0
    outer loop
      vertex 2.90575 -0.746069 -3
      vertex 3 0 0
      vertex 3 0 -3
    endloop
  endfacet
  facet normal -0.992115 0.125333 0
    outer loop
      vertex 3 0 0
      vertex 2.90575 -0.746069 -3
      vertex 2.90575 -0.746069 0
    endloop
  endfacet
  facet normal -0.992115 -0.125333 0
    outer loop
      vertex 3 0 -3
      vertex 2.90575 0.746069 0
      vertex 2.90575 0.746069 -3
    endloop
  endfacet
  facet normal -0.992115 -0.125333 0
    outer loop
      vertex 2.90575 0.746069 0
      vertex 3 0 -3
      vertex 3 0 0
    endloop
  endfacet
  facet normal 0.968584 -0.248685 0
    outer loop
      vertex -2.97634 0.375999 0
      vertex -2.78933 1.10437 -3
      vertex -2.78933 1.10437 0
    endloop
  endfacet
  facet normal 0.968584 -0.248685 0
    outer loop
      vertex -2.78933 1.10437 -3
      vertex -2.97634 0.375999 0
      vertex -2.97634 0.375999 -3
    endloop
  endfacet
  facet normal 1 -0 0
    outer loop
      vertex -2.97634 -0.375999 0
      vertex -2.97634 0.375999 -3
      vertex -2.97634 0.375999 0
    endloop
  endfacet
  facet normal 1 0 0
    outer loop
      vertex -2.97634 0.375999 -3
      vertex -2.97634 -0.375999 0
      vertex -2.97634 -0.375999 -3
    endloop
  endfacet
  facet normal 0.728965 0.68455 0
    outer loop
      vertex -1.91227 -2.31154 0
      vertex -2.42705 -1.76336 -3
      vertex -2.42705 -1.76336 0
    endloop
  endfacet
  facet normal 0.728965 0.68455 0
    outer loop
      vertex -2.42705 -1.76336 -3
      vertex -1.91227 -2.31154 0
      vertex -1.91227 -2.31154 -3
    endloop
  endfacet
  facet normal -0.18738 -0.982287 0
    outer loop
      vertex 0.188371 2.99408 -3
      vertex 0.927051 2.85317 0
      vertex 0.188371 2.99408 0
    endloop
  endfacet
  facet normal -0.18738 -0.982287 -0
    outer loop
      vertex 0.927051 2.85317 0
      vertex 0.188371 2.99408 -3
      vertex 0.927051 2.85317 -3
    endloop
  endfacet
  facet normal 0.968584 0.248685 0
    outer loop
      vertex -2.78933 -1.10437 0
      vertex -2.97634 -0.375999 -3
      vertex -2.97634 -0.375999 0
    endloop
  endfacet
  facet normal 0.968584 0.248685 0
    outer loop
      vertex -2.97634 -0.375999 -3
      vertex -2.78933 -1.10437 0
      vertex -2.78933 -1.10437 -3
    endloop
  endfacet
  facet normal 0.535828 0.844327 -0
    outer loop
      vertex -1.27734 -2.71448 -3
      vertex -1.91227 -2.31154 0
      vertex -1.27734 -2.71448 0
    endloop
  endfacet
  facet normal 0.535828 0.844327 0
    outer loop
      vertex -1.91227 -2.31154 0
      vertex -1.27734 -2.71448 -3
      vertex -1.91227 -2.31154 -3
    endloop
  endfacet
  facet normal 0.0627927 0.998027 -0
    outer loop
      vertex 0.188371 -2.99408 -3
      vertex -0.562143 -2.94686 0
      vertex 0.188371 -2.99408 0
    endloop
  endfacet
  facet normal 0.0627927 0.998027 0
    outer loop
      vertex -0.562143 -2.94686 0
      vertex 0.188371 -2.99408 -3
      vertex -0.562143 -2.94686 -3
    endloop
  endfacet
  facet normal -0.425784 0.904825 0
    outer loop
      vertex 1.60748 -2.53298 -3
      vertex 0.927051 -2.85317 0
      vertex 1.60748 -2.53298 0
    endloop
  endfacet
  facet normal -0.425784 0.904825 0
    outer loop
      vertex 0.927051 -2.85317 0
      vertex 1.60748 -2.53298 -3
      vertex 0.927051 -2.85317 -3
    endloop
  endfacet
  facet normal -0.637419 0.770517 0
    outer loop
      vertex 2.18691 -2.05364 -3
      vertex 1.60748 -2.53298 0
      vertex 2.18691 -2.05364 0
    endloop
  endfacet
  facet normal -0.637419 0.770517 0
    outer loop
      vertex 1.60748 -2.53298 0
      vertex 2.18691 -2.05364 -3
      vertex 1.60748 -2.53298 -3
    endloop
  endfacet
  facet normal 0.728965 -0.68455 0
    outer loop
      vertex -2.42705 1.76336 0
      vertex -1.91227 2.31154 -3
      vertex -1.91227 2.31154 0
    endloop
  endfacet
  facet normal 0.728965 -0.68455 0
    outer loop
      vertex -1.91227 2.31154 -3
      vertex -2.42705 1.76336 0
      vertex -2.42705 1.76336 -3
    endloop
  endfacet
  facet normal 0.535828 -0.844327 0
    outer loop
      vertex -1.91227 2.31154 -3
      vertex -1.27734 2.71448 0
      vertex -1.91227 2.31154 0
    endloop
  endfacet
  facet normal 0.535828 -0.844327 0
    outer loop
      vertex -1.27734 2.71448 0
      vertex -1.91227 2.31154 -3
      vertex -1.27734 2.71448 -3
    endloop
  endfacet
  facet normal 0.0627927 -0.998027 0
    outer loop
      vertex -0.562143 2.94686 -3
      vertex 0.188371 2.99408 0
      vertex -0.562143 2.94686 0
    endloop
  endfacet
  facet normal 0.0627927 -0.998027 0
    outer loop
      vertex 0.188371 2.99408 0
      vertex -0.562143 2.94686 -3
      vertex 0.188371 2.99408 -3
    endloop
  endfacet
  facet normal -0.809019 -0.587782 0
    outer loop
      vertex 2.62892 1.44526 -3
      vertex 2.18691 2.05364 0
      vertex 2.18691 2.05364 -3
    endloop
  endfacet
  facet normal -0.809019 -0.587782 0
    outer loop
      vertex 2.18691 2.05364 0
      vertex 2.62892 1.44526 -3
      vertex 2.62892 1.44526 0
    endloop
  endfacet
  facet normal -0.929776 -0.368125 0
    outer loop
      vertex 2.90575 0.746069 -3
      vertex 2.62892 1.44526 0
      vertex 2.62892 1.44526 -3
    endloop
  endfacet
  facet normal -0.929776 -0.368125 0
    outer loop
      vertex 2.62892 1.44526 0
      vertex 2.90575 0.746069 -3
      vertex 2.90575 0.746069 0
    endloop
  endfacet
  facet normal 0.876308 0.481751 0
    outer loop
      vertex -2.42705 -1.76336 0
      vertex -2.78933 -1.10437 -3
      vertex -2.78933 -1.10437 0
    endloop
  endfacet
  facet normal 0.876308 0.481751 0
    outer loop
      vertex -2.78933 -1.10437 -3
      vertex -2.42705 -1.76336 0
      vertex -2.42705 -1.76336 -3
    endloop
  endfacet
  facet normal 0.309015 0.951057 -0
    outer loop
      vertex -0.562143 -2.94686 -3
      vertex -1.27734 -2.71448 0
      vertex -0.562143 -2.94686 0
    endloop
  endfacet
  facet normal 0.309015 0.951057 0
    outer loop
      vertex -1.27734 -2.71448 0
      vertex -0.562143 -2.94686 -3
      vertex -1.27734 -2.71448 -3
    endloop
  endfacet
  facet normal -0.18738 0.982287 0
    outer loop
      vertex 0.927051 -2.85317 -3
      vertex 0.188371 -2.99408 0
      vertex 0.927051 -2.85317 0
    endloop
  endfacet
  facet normal -0.18738 0.982287 0
    outer loop
      vertex 0.188371 -2.99408 0
      vertex 0.927051 -2.85317 -3
      vertex 0.188371 -2.99408 -3
    endloop
  endfacet
  facet normal -0.809019 0.587782 0
    outer loop
      vertex 2.18691 -2.05364 -3
      vertex 2.62892 -1.44526 0
      vertex 2.62892 -1.44526 -3
    endloop
  endfacet
  facet normal -0.809019 0.587782 0
    outer loop
      vertex 2.62892 -1.44526 0
      vertex 2.18691 -2.05364 -3
      vertex 2.18691 -2.05364 0
    endloop
  endfacet
  facet normal 0.876308 -0.481751 0
    outer loop
      vertex -2.78933 1.10437 0
      vertex -2.42705 1.76336 -3
      vertex -2.42705 1.76336 0
    endloop
  endfacet
  facet normal 0.876308 -0.481751 0
    outer loop
      vertex -2.42705 1.76336 -3
      vertex -2.78933 1.10437 0
      vertex -2.78933 1.10437 -3
    endloop
  endfacet
  facet normal 0.309015 -0.951057 0
    outer loop
      vertex -1.27734 2.71448 -3
      vertex -0.562143 2.94686 0
      vertex -1.27734 2.71448 0
    endloop
  endfacet
  facet normal 0.309015 -0.951057 0
    outer loop
      vertex -0.562143 2.94686 0
      vertex -1.27734 2.71448 -3
      vertex -0.562143 2.94686 -3
    endloop
  endfacet
  facet normal -0.425784 -0.904825 0
    outer loop
      vertex 0.927051 2.85317 -3
      vertex 1.60748 2.53298 0
      vertex 0.927051 2.85317 0
    endloop
  endfacet
  facet normal -0.425784 -0.904825 -0
    outer loop
      vertex 1.60748 2.53298 0
      vertex 0.927051 2.85317 -3
      vertex 1.60748 2.53298 -3
    endloop
  endfacet
  facet normal -0.637419 -0.770517 0
    outer loop
      vertex 1.60748 2.53298 -3
      vertex 2.18691 2.05364 0
      vertex 1.60748 2.53298 0
    endloop
  endfacet
  facet normal -0.637419 -0.770517 -0
    outer loop
      vertex 2.18691 2.05364 0
      vertex 1.60748 2.53298 -3
      vertex 2.18691 2.05364 -3
    endloop
  endfacet
endsolid OpenSCAD_Model
