<?xml version="1.0" standalone="no"?>
<!DOCTYPE svg PUBLIC "-//W3C//DTD SVG 1.1//EN" "http://www.w3.org/Graphics/SVG/1.1/DTD/svg11.dtd">
<svg width="13mm" height="13mm" viewBox="1 -14 13 13" xmlns="http://www.w3.org/2000/svg" version="1.1">
<title>OpenSCAD Model</title>
<path d="
M 9.15762,-1.53778 L 9.79909,-1.66537 L 10.4184,-1.87561 L 11.005,-2.16489 L 11.5488,-2.52824 L 12.0405,-2.95947
 L 12.4718,-3.4512 L 12.8351,-3.99501 L 13.1244,-4.58159 L 13.3346,-5.20091 L 13.4622,-5.84238 L 13.505,-6.49501
 L 13.505,-8.50499 L 13.4622,-9.15762 L 13.3346,-9.79909 L 13.1244,-10.4184 L 12.8351,-11.005 L 12.4718,-11.5488
 L 12.0405,-12.0405 L 11.5488,-12.4718 L 11.005,-12.8351 L 10.4184,-13.1244 L 9.79909,-13.3346 L 9.15762,-13.4622
 L 8.50499,-13.505 L 6.49501,-13.505 L 5.84238,-13.4622 L 5.20091,-13.3346 L 4.58159,-13.1244 L 3.99501,-12.8351
 L 3.4512,-12.4718 L 2.95947,-12.0405 L 2.52824,-11.5488 L 2.16489,-11.005 L 1.87561,-10.4184 L 1.66537,-9.79909
 L 1.53778,-9.15762 L 1.49501,-8.50499 L 1.49501,-6.49501 L 1.53778,-5.84238 L 1.66537,-5.20091 L 1.87561,-4.58159
 L 2.16489,-3.99501 L 2.52824,-3.4512 L 2.95947,-2.95947 L 3.4512,-2.52824 L 3.99501,-2.16489 L 4.58159,-1.87561
 L 5.20091,-1.66537 L 5.84238,-1.53778 L 6.49501,-1.49501 L 8.50499,-1.49501 z
M 7.10841,-4.52567 L 6.72354,-4.60222 L 6.35194,-4.72835 L 6,-4.90192 L 5.67371,-5.11993 L 5.37868,-5.37868
 L 5.11993,-5.67371 L 4.90192,-6 L 4.72835,-6.35194 L 4.60222,-6.72354 L 4.52567,-7.10841 L 4.5,-7.5
 L 4.52567,-7.89157 L 4.60222,-8.27644 L 4.72835,-8.64804 L 4.90192,-9 L 5.11993,-9.32628 L 5.37868,-9.62131
 L 5.67371,-9.88005 L 6,-10.0981 L 6.35194,-10.2716 L 6.72354,-10.3978 L 7.10841,-10.4743 L 7.5,-10.5
 L 7.89157,-10.4743 L 8.27644,-10.3978 L 8.64804,-10.2716 L 9,-10.0981 L 9.32628,-9.88005 L 9.62131,-9.62131
 L 9.88005,-9.32628 L 10.0981,-9 L 10.2716,-8.64804 L 10.3978,-8.27644 L 10.4743,-7.89157 L 10.5,-7.5
 L 10.4743,-7.10841 L 10.3978,-6.72354 L 10.2716,-6.35194 L 10.0981,-6 L 9.88005,-5.67371 L 9.62131,-5.37868
 L 9.32628,-5.11993 L 9,-4.90192 L 8.64804,-4.72835 L 8.27644,-4.60222 L 7.89157,-4.52567 L 7.5,-4.5
 z
" stroke="black" fill="lightgray" stroke-width="0.5"/>
</svg>
