solid OpenSCAD_Model
  facet normal 0.321457 -0.946924 0
    outer loop
      vertex 9.79909 1.66537 -9
      vertex 10.4184 1.87561 0
      vertex 9.79909 1.66537 0
    endloop
  endfacet
  facet normal 0.321457 -0.946924 0
    outer loop
      vertex 10.4184 1.87561 0
      vertex 9.79909 1.66537 -9
      vertex 10.4184 1.87561 -9
    endloop
  endfacet
  facet normal -0.195096 0.980784 0
    outer loop
      vertex 5.84238 13.4622 -9
      vertex 5.20091 13.3346 0
      vertex 5.84238 13.4622 0
    endloop
  endfacet
  facet normal -0.195096 0.980784 0
    outer loop
      vertex 5.20091 13.3346 0
      vertex 5.84238 13.4622 -9
      vertex 5.20091 13.3346 -9
    endloop
  endfacet
  facet normal 0.195081 -0.980787 0
    outer loop
      vertex 9.15762 1.53778 -9
      vertex 9.79909 1.66537 0
      vertex 9.15762 1.53778 0
    endloop
  endfacet
  facet normal 0.195081 -0.980787 0
    outer loop
      vertex 9.79909 1.66537 0
      vertex 9.15762 1.53778 -9
      vertex 9.79909 1.66537 -9
    endloop
  endfacet
  facet normal 0.946943 0.321402 0
    outer loop
      vertex 13.3346 9.79909 0
      vertex 13.1244 10.4184 -9
      vertex 13.1244 10.4184 0
    endloop
  endfacet
  facet normal 0.946943 0.321402 0
    outer loop
      vertex 13.1244 10.4184 -9
      vertex 13.3346 9.79909 0
      vertex 13.3346 9.79909 -9
    endloop
  endfacet
  facet normal -0.442327 0.896854 0
    outer loop
      vertex 4.58159 13.1244 -9
      vertex 3.99501 12.8351 0
      vertex 4.58159 13.1244 0
    endloop
  endfacet
  facet normal -0.442327 0.896854 0
    outer loop
      vertex 3.99501 12.8351 0
      vertex 4.58159 13.1244 -9
      vertex 3.99501 12.8351 -9
    endloop
  endfacet
  facet normal -0.896872 0.44229 0
    outer loop
      vertex 1.87561 10.4184 -9
      vertex 2.16489 11.005 0
      vertex 2.16489 11.005 -9
    endloop
  endfacet
  facet normal -0.896872 0.44229 0
    outer loop
      vertex 2.16489 11.005 0
      vertex 1.87561 10.4184 -9
      vertex 1.87561 10.4184 0
    endloop
  endfacet
  facet normal 0.442314 0.89686 -0
    outer loop
      vertex 11.005 12.8351 -9
      vertex 10.4184 13.1244 0
      vertex 11.005 12.8351 0
    endloop
  endfacet
  facet normal 0.442314 0.89686 0
    outer loop
      vertex 10.4184 13.1244 0
      vertex 11.005 12.8351 -9
      vertex 10.4184 13.1244 -9
    endloop
  endfacet
  facet normal 0.831509 0.555512 0
    outer loop
      vertex 12.8351 11.005 0
      vertex 12.4718 11.5488 -9
      vertex 12.4718 11.5488 0
    endloop
  endfacet
  facet normal 0.831509 0.555512 0
    outer loop
      vertex 12.4718 11.5488 -9
      vertex 12.8351 11.005 0
      vertex 12.8351 11.005 -9
    endloop
  endfacet
  facet normal 0.896854 -0.442327 0
    outer loop
      vertex 12.8351 3.99501 0
      vertex 13.1244 4.58159 -9
      vertex 13.1244 4.58159 0
    endloop
  endfacet
  facet normal 0.896854 -0.442327 0
    outer loop
      vertex 13.1244 4.58159 -9
      vertex 12.8351 3.99501 0
      vertex 12.8351 3.99501 -9
    endloop
  endfacet
  facet normal -0.555504 0.831514 0
    outer loop
      vertex 3.99501 12.8351 -9
      vertex 3.4512 12.4718 0
      vertex 3.99501 12.8351 0
    endloop
  endfacet
  facet normal -0.555504 0.831514 0
    outer loop
      vertex 3.4512 12.4718 0
      vertex 3.99501 12.8351 -9
      vertex 3.4512 12.4718 -9
    endloop
  endfacet
  facet normal -0.751824 0.659364 0
    outer loop
      vertex 2.52824 11.5488 -9
      vertex 2.95947 12.0405 0
      vertex 2.95947 12.0405 -9
    endloop
  endfacet
  facet normal -0.751824 0.659364 0
    outer loop
      vertex 2.95947 12.0405 0
      vertex 2.52824 11.5488 -9
      vertex 2.52824 11.5488 0
    endloop
  endfacet
  facet normal -0.997859 0.0653946 0
    outer loop
      vertex 1.49501 8.50499 -9
      vertex 1.53778 9.15762 0
      vertex 1.53778 9.15762 -9
    endloop
  endfacet
  facet normal -0.997859 0.0653946 0
    outer loop
      vertex 1.53778 9.15762 0
      vertex 1.49501 8.50499 -9
      vertex 1.49501 8.50499 0
    endloop
  endfacet
  facet normal -1 0 0
    outer loop
      vertex 1.49501 6.49501 -9
      vertex 1.49501 8.50499 0
      vertex 1.49501 8.50499 -9
    endloop
  endfacet
  facet normal -1 -0 0
    outer loop
      vertex 1.49501 8.50499 0
      vertex 1.49501 6.49501 -9
      vertex 1.49501 6.49501 0
    endloop
  endfacet
  facet normal -0.980787 -0.195081 0
    outer loop
      vertex 1.66537 5.20091 -9
      vertex 1.53778 5.84238 0
      vertex 1.53778 5.84238 -9
    endloop
  endfacet
  facet normal -0.980787 -0.195081 0
    outer loop
      vertex 1.53778 5.84238 0
      vertex 1.66537 5.20091 -9
      vertex 1.66537 5.20091 0
    endloop
  endfacet
  facet normal -0.946924 0.321457 0
    outer loop
      vertex 1.66537 9.79909 -9
      vertex 1.87561 10.4184 0
      vertex 1.87561 10.4184 -9
    endloop
  endfacet
  facet normal -0.946924 0.321457 0
    outer loop
      vertex 1.87561 10.4184 0
      vertex 1.66537 9.79909 -9
      vertex 1.66537 9.79909 0
    endloop
  endfacet
  facet normal -0.831478 -0.555557 0
    outer loop
      vertex 2.52824 3.4512 -9
      vertex 2.16489 3.99501 0
      vertex 2.16489 3.99501 -9
    endloop
  endfacet
  facet normal -0.831478 -0.555557 0
    outer loop
      vertex 2.16489 3.99501 0
      vertex 2.52824 3.4512 -9
      vertex 2.52824 3.4512 0
    endloop
  endfacet
  facet normal -0.442302 -0.896866 0
    outer loop
      vertex 3.99501 2.16489 -9
      vertex 4.58159 1.87561 0
      vertex 3.99501 2.16489 0
    endloop
  endfacet
  facet normal -0.442302 -0.896866 -0
    outer loop
      vertex 4.58159 1.87561 0
      vertex 3.99501 2.16489 -9
      vertex 4.58159 1.87561 -9
    endloop
  endfacet
  facet normal -0.659341 -0.751844 0
    outer loop
      vertex 2.95947 2.95947 -9
      vertex 3.4512 2.52824 0
      vertex 2.95947 2.95947 0
    endloop
  endfacet
  facet normal -0.659341 -0.751844 -0
    outer loop
      vertex 3.4512 2.52824 0
      vertex 2.95947 2.95947 -9
      vertex 3.4512 2.52824 -9
    endloop
  endfacet
  facet normal -0.321452 -0.946926 0
    outer loop
      vertex 4.58159 1.87561 -9
      vertex 5.20091 1.66537 0
      vertex 4.58159 1.87561 0
    endloop
  endfacet
  facet normal -0.321452 -0.946926 -0
    outer loop
      vertex 5.20091 1.66537 0
      vertex 4.58159 1.87561 -9
      vertex 5.20091 1.66537 -9
    endloop
  endfacet
  facet normal 0.751771 0.659424 0
    outer loop
      vertex 12.4718 11.5488 0
      vertex 12.0405 12.0405 -9
      vertex 12.0405 12.0405 0
    endloop
  endfacet
  facet normal 0.751771 0.659424 0
    outer loop
      vertex 12.0405 12.0405 -9
      vertex 12.4718 11.5488 0
      vertex 12.4718 11.5488 -9
    endloop
  endfacet
  facet normal 0.659424 0.751771 -0
    outer loop
      vertex 12.0405 12.0405 -9
      vertex 11.5488 12.4718 0
      vertex 12.0405 12.0405 0
    endloop
  endfacet
  facet normal 0.659424 0.751771 0
    outer loop
      vertex 11.5488 12.4718 0
      vertex 12.0405 12.0405 -9
      vertex 11.5488 12.4718 -9
    endloop
  endfacet
  facet normal 0 1 -0
    outer loop
      vertex 8.50499 13.505 -9
      vertex 6.49501 13.505 0
      vertex 8.50499 13.505 0
    endloop
  endfacet
  facet normal 0 1 0
    outer loop
      vertex 6.49501 13.505 0
      vertex 8.50499 13.505 -9
      vertex 6.49501 13.505 -9
    endloop
  endfacet
  facet normal 0.195096 0.980784 -0
    outer loop
      vertex 9.79909 13.3346 -9
      vertex 9.15762 13.4622 0
      vertex 9.79909 13.3346 0
    endloop
  endfacet
  facet normal 0.195096 0.980784 0
    outer loop
      vertex 9.15762 13.4622 0
      vertex 9.79909 13.3346 -9
      vertex 9.15762 13.4622 -9
    endloop
  endfacet
  facet normal 1 -0 0
    outer loop
      vertex 13.505 6.49501 0
      vertex 13.505 8.50499 -9
      vertex 13.505 8.50499 0
    endloop
  endfacet
  facet normal 1 0 0
    outer loop
      vertex 13.505 8.50499 -9
      vertex 13.505 6.49501 0
      vertex 13.505 6.49501 -9
    endloop
  endfacet
  facet normal 0.980784 0.195096 0
    outer loop
      vertex 13.4622 9.15762 0
      vertex 13.3346 9.79909 -9
      vertex 13.3346 9.79909 0
    endloop
  endfacet
  facet normal 0.980784 0.195096 0
    outer loop
      vertex 13.3346 9.79909 -9
      vertex 13.4622 9.15762 0
      vertex 13.4622 9.15762 -9
    endloop
  endfacet
  facet normal 0.555564 -0.831474 0
    outer loop
      vertex 11.005 2.16489 -9
      vertex 11.5488 2.52824 0
      vertex 11.005 2.16489 0
    endloop
  endfacet
  facet normal 0.555564 -0.831474 0
    outer loop
      vertex 11.5488 2.52824 0
      vertex 11.005 2.16489 -9
      vertex 11.5488 2.52824 -9
    endloop
  endfacet
  facet normal -0.659401 0.751791 0
    outer loop
      vertex 3.4512 12.4718 -9
      vertex 2.95947 12.0405 0
      vertex 3.4512 12.4718 0
    endloop
  endfacet
  facet normal -0.659401 0.751791 0
    outer loop
      vertex 2.95947 12.0405 0
      vertex 3.4512 12.4718 -9
      vertex 2.95947 12.0405 -9
    endloop
  endfacet
  facet normal 0 0 1
    outer loop
      vertex 10.6393 8.34116 0
      vertex 13.505 8.50499 0
      vertex 13.4622 9.15762 0
    endloop
  endfacet
  facet normal 0 0 1
    outer loop
      vertex 13.505 8.50499 0
      vertex 10.75 7.5 0
      vertex 13.505 6.49501 0
    endloop
  endfacet
  facet normal 0 0 1
    outer loop
      vertex 10.5026 8.74372 0
      vertex 13.4622 9.15762 0
      vertex 13.3346 9.79909 0
    endloop
  endfacet
  facet normal -0 0 1
    outer loop
      vertex 10.7222 7.07579 0
      vertex 13.505 6.49501 0
      vertex 10.75 7.5 0
    endloop
  endfacet
  facet normal 0 0 1
    outer loop
      vertex 10.5026 8.74372 0
      vertex 13.3346 9.79909 0
      vertex 13.1244 10.4184 0
    endloop
  endfacet
  facet normal -0 0 1
    outer loop
      vertex 10.6393 6.65884 0
      vertex 13.505 6.49501 0
      vertex 10.7222 7.07579 0
    endloop
  endfacet
  facet normal 0 0 1
    outer loop
      vertex 10.3146 9.125 0
      vertex 13.1244 10.4184 0
      vertex 12.8351 11.005 0
    endloop
  endfacet
  facet normal 0 0 1
    outer loop
      vertex 13.505 6.49501 0
      vertex 10.6393 6.65884 0
      vertex 13.4622 5.84238 0
    endloop
  endfacet
  facet normal 0 0 1
    outer loop
      vertex 10.0784 9.47847 0
      vertex 12.8351 11.005 0
      vertex 12.4718 11.5488 0
    endloop
  endfacet
  facet normal -0 0 1
    outer loop
      vertex 10.5026 6.25628 0
      vertex 13.4622 5.84238 0
      vertex 10.6393 6.65884 0
    endloop
  endfacet
  facet normal 0 0 1
    outer loop
      vertex 9.7981 9.7981 0
      vertex 12.4718 11.5488 0
      vertex 12.0405 12.0405 0
    endloop
  endfacet
  facet normal 0 0 1
    outer loop
      vertex 13.4622 5.84238 0
      vertex 10.5026 6.25628 0
      vertex 13.3346 5.20091 0
    endloop
  endfacet
  facet normal 0 0 1
    outer loop
      vertex 9.7981 9.7981 0
      vertex 12.0405 12.0405 0
      vertex 11.5488 12.4718 0
    endloop
  endfacet
  facet normal 0 0 1
    outer loop
      vertex 13.3346 5.20091 0
      vertex 10.5026 6.25628 0
      vertex 13.1244 4.58159 0
    endloop
  endfacet
  facet normal 0 0 1
    outer loop
      vertex 9.47847 10.0784 0
      vertex 11.5488 12.4718 0
      vertex 11.005 12.8351 0
    endloop
  endfacet
  facet normal -0 0 1
    outer loop
      vertex 10.3146 5.875 0
      vertex 13.1244 4.58159 0
      vertex 10.5026 6.25628 0
    endloop
  endfacet
  facet normal 0 0 1
    outer loop
      vertex 13.1244 4.58159 0
      vertex 10.3146 5.875 0
      vertex 12.8351 3.99501 0
    endloop
  endfacet
  facet normal 0 0 1
    outer loop
      vertex 13.505 8.50499 0
      vertex 10.7222 7.92421 0
      vertex 10.75 7.5 0
    endloop
  endfacet
  facet normal 0 0 1
    outer loop
      vertex 13.505 8.50499 0
      vertex 10.6393 8.34116 0
      vertex 10.7222 7.92421 0
    endloop
  endfacet
  facet normal 0 0 1
    outer loop
      vertex 13.4622 9.15762 0
      vertex 10.5026 8.74372 0
      vertex 10.6393 8.34116 0
    endloop
  endfacet
  facet normal 0 0 1
    outer loop
      vertex 9.125 10.3146 0
      vertex 11.005 12.8351 0
      vertex 10.4184 13.1244 0
    endloop
  endfacet
  facet normal 0 0 1
    outer loop
      vertex 13.1244 10.4184 0
      vertex 10.3146 9.125 0
      vertex 10.5026 8.74372 0
    endloop
  endfacet
  facet normal 0 0 1
    outer loop
      vertex 12.8351 11.005 0
      vertex 10.0784 9.47847 0
      vertex 10.3146 9.125 0
    endloop
  endfacet
  facet normal 0 0 1
    outer loop
      vertex 9.125 10.3146 0
      vertex 10.4184 13.1244 0
      vertex 9.79909 13.3346 0
    endloop
  endfacet
  facet normal 0 0 1
    outer loop
      vertex 12.4718 11.5488 0
      vertex 9.7981 9.7981 0
      vertex 10.0784 9.47847 0
    endloop
  endfacet
  facet normal 0 0 1
    outer loop
      vertex 11.5488 12.4718 0
      vertex 9.47847 10.0784 0
      vertex 9.7981 9.7981 0
    endloop
  endfacet
  facet normal 0 0 1
    outer loop
      vertex 8.74372 10.5026 0
      vertex 9.79909 13.3346 0
      vertex 9.15762 13.4622 0
    endloop
  endfacet
  facet normal 0 0 1
    outer loop
      vertex 11.005 12.8351 0
      vertex 9.125 10.3146 0
      vertex 9.47847 10.0784 0
    endloop
  endfacet
  facet normal 0 0 1
    outer loop
      vertex 9.79909 13.3346 0
      vertex 8.74372 10.5026 0
      vertex 9.125 10.3146 0
    endloop
  endfacet
  facet normal 0 0 1
    outer loop
      vertex 8.34116 10.6393 0
      vertex 9.15762 13.4622 0
      vertex 8.50499 13.505 0
    endloop
  endfacet
  facet normal 0 0 1
    outer loop
      vertex 9.15762 13.4622 0
      vertex 8.34116 10.6393 0
      vertex 8.74372 10.5026 0
    endloop
  endfacet
  facet normal 0 0 1
    outer loop
      vertex 8.50499 13.505 0
      vertex 7.92421 10.7222 0
      vertex 8.34116 10.6393 0
    endloop
  endfacet
  facet normal 0 0 1
    outer loop
      vertex 8.50499 13.505 0
      vertex 7.5 10.75 0
      vertex 7.92421 10.7222 0
    endloop
  endfacet
  facet normal -0 0 1
    outer loop
      vertex 6.49501 13.505 0
      vertex 7.5 10.75 0
      vertex 8.50499 13.505 0
    endloop
  endfacet
  facet normal 0 0 1
    outer loop
      vertex 7.5 10.75 0
      vertex 6.49501 13.505 0
      vertex 7.07579 10.7222 0
    endloop
  endfacet
  facet normal 0 0 1
    outer loop
      vertex 7.07579 10.7222 0
      vertex 6.49501 13.505 0
      vertex 6.65884 10.6393 0
    endloop
  endfacet
  facet normal -0 0 1
    outer loop
      vertex 5.84238 13.4622 0
      vertex 6.65884 10.6393 0
      vertex 6.49501 13.505 0
    endloop
  endfacet
  facet normal 0 0 1
    outer loop
      vertex 6.65884 10.6393 0
      vertex 5.84238 13.4622 0
      vertex 6.25628 10.5026 0
    endloop
  endfacet
  facet normal -0 0 1
    outer loop
      vertex 5.20091 13.3346 0
      vertex 6.25628 10.5026 0
      vertex 5.84238 13.4622 0
    endloop
  endfacet
  facet normal 0 0 1
    outer loop
      vertex 6.25628 10.5026 0
      vertex 5.20091 13.3346 0
      vertex 5.875 10.3146 0
    endloop
  endfacet
  facet normal -0 0 1
    outer loop
      vertex 4.58159 13.1244 0
      vertex 5.875 10.3146 0
      vertex 5.20091 13.3346 0
    endloop
  endfacet
  facet normal -0 0 1
    outer loop
      vertex 3.99501 12.8351 0
      vertex 5.875 10.3146 0
      vertex 4.58159 13.1244 0
    endloop
  endfacet
  facet normal 0 0 1
    outer loop
      vertex 5.875 10.3146 0
      vertex 3.99501 12.8351 0
      vertex 5.52152 10.0784 0
    endloop
  endfacet
  facet normal -0 0 1
    outer loop
      vertex 3.4512 12.4718 0
      vertex 5.52152 10.0784 0
      vertex 3.99501 12.8351 0
    endloop
  endfacet
  facet normal 0 0 1
    outer loop
      vertex 5.52152 10.0784 0
      vertex 3.4512 12.4718 0
      vertex 5.2019 9.7981 0
    endloop
  endfacet
  facet normal -0 0 1
    outer loop
      vertex 2.95947 12.0405 0
      vertex 5.2019 9.7981 0
      vertex 3.4512 12.4718 0
    endloop
  endfacet
  facet normal -0 0 1
    outer loop
      vertex 2.52824 11.5488 0
      vertex 5.2019 9.7981 0
      vertex 2.95947 12.0405 0
    endloop
  endfacet
  facet normal 0 0 1
    outer loop
      vertex 5.2019 9.7981 0
      vertex 2.52824 11.5488 0
      vertex 4.9216 9.47847 0
    endloop
  endfacet
  facet normal -0 0 1
    outer loop
      vertex 2.16489 11.005 0
      vertex 4.9216 9.47847 0
      vertex 2.52824 11.5488 0
    endloop
  endfacet
  facet normal 0 0 1
    outer loop
      vertex 4.9216 9.47847 0
      vertex 2.16489 11.005 0
      vertex 4.68542 9.125 0
    endloop
  endfacet
  facet normal -0 0 1
    outer loop
      vertex 10.0784 5.52152 0
      vertex 12.8351 3.99501 0
      vertex 10.3146 5.875 0
    endloop
  endfacet
  facet normal 0 0 1
    outer loop
      vertex 12.8351 3.99501 0
      vertex 10.0784 5.52152 0
      vertex 12.4718 3.4512 0
    endloop
  endfacet
  facet normal -0 0 1
    outer loop
      vertex 9.7981 5.2019 0
      vertex 12.4718 3.4512 0
      vertex 10.0784 5.52152 0
    endloop
  endfacet
  facet normal 0 0 1
    outer loop
      vertex 12.4718 3.4512 0
      vertex 9.7981 5.2019 0
      vertex 12.0405 2.95947 0
    endloop
  endfacet
  facet normal 0 0 1
    outer loop
      vertex 12.0405 2.95947 0
      vertex 9.7981 5.2019 0
      vertex 11.5488 2.52824 0
    endloop
  endfacet
  facet normal -0 0 1
    outer loop
      vertex 9.47847 4.9216 0
      vertex 11.5488 2.52824 0
      vertex 9.7981 5.2019 0
    endloop
  endfacet
  facet normal 0 0 1
    outer loop
      vertex 11.5488 2.52824 0
      vertex 9.47847 4.9216 0
      vertex 11.005 2.16489 0
    endloop
  endfacet
  facet normal -0 0 1
    outer loop
      vertex 9.125 4.68542 0
      vertex 11.005 2.16489 0
      vertex 9.47847 4.9216 0
    endloop
  endfacet
  facet normal 0 0 1
    outer loop
      vertex 11.005 2.16489 0
      vertex 9.125 4.68542 0
      vertex 10.4184 1.87561 0
    endloop
  endfacet
  facet normal 0 0 1
    outer loop
      vertex 10.4184 1.87561 0
      vertex 9.125 4.68542 0
      vertex 9.79909 1.66537 0
    endloop
  endfacet
  facet normal -0 0 1
    outer loop
      vertex 8.74372 4.49739 0
      vertex 9.79909 1.66537 0
      vertex 9.125 4.68542 0
    endloop
  endfacet
  facet normal 0 0 1
    outer loop
      vertex 9.79909 1.66537 0
      vertex 8.74372 4.49739 0
      vertex 9.15762 1.53778 0
    endloop
  endfacet
  facet normal -0 0 1
    outer loop
      vertex 8.34116 4.36074 0
      vertex 9.15762 1.53778 0
      vertex 8.74372 4.49739 0
    endloop
  endfacet
  facet normal 0 0 1
    outer loop
      vertex 9.15762 1.53778 0
      vertex 8.34116 4.36074 0
      vertex 8.50499 1.49501 0
    endloop
  endfacet
  facet normal -0 0 1
    outer loop
      vertex 7.92421 4.2778 0
      vertex 8.50499 1.49501 0
      vertex 8.34116 4.36074 0
    endloop
  endfacet
  facet normal -0 0 1
    outer loop
      vertex 7.5 4.25 0
      vertex 8.50499 1.49501 0
      vertex 7.92421 4.2778 0
    endloop
  endfacet
  facet normal 0 0 1
    outer loop
      vertex 6.49501 1.49501 0
      vertex 7.5 4.25 0
      vertex 7.07579 4.2778 0
    endloop
  endfacet
  facet normal 0 0 1
    outer loop
      vertex 6.49501 1.49501 0
      vertex 7.07579 4.2778 0
      vertex 6.65884 4.36074 0
    endloop
  endfacet
  facet normal 0 0 1
    outer loop
      vertex 7.5 4.25 0
      vertex 6.49501 1.49501 0
      vertex 8.50499 1.49501 0
    endloop
  endfacet
  facet normal 0 0 1
    outer loop
      vertex 5.84238 1.53778 0
      vertex 6.65884 4.36074 0
      vertex 6.25628 4.49739 0
    endloop
  endfacet
  facet normal 0 0 1
    outer loop
      vertex 5.20091 1.66537 0
      vertex 6.25628 4.49739 0
      vertex 5.875 4.68542 0
    endloop
  endfacet
  facet normal 0 0 1
    outer loop
      vertex 6.65884 4.36074 0
      vertex 5.84238 1.53778 0
      vertex 6.49501 1.49501 0
    endloop
  endfacet
  facet normal 0 0 1
    outer loop
      vertex 3.99501 2.16489 0
      vertex 5.875 4.68542 0
      vertex 5.52152 4.9216 0
    endloop
  endfacet
  facet normal 0 0 1
    outer loop
      vertex 3.4512 2.52824 0
      vertex 5.52152 4.9216 0
      vertex 5.2019 5.2019 0
    endloop
  endfacet
  facet normal 0 0 1
    outer loop
      vertex 6.25628 4.49739 0
      vertex 5.20091 1.66537 0
      vertex 5.84238 1.53778 0
    endloop
  endfacet
  facet normal 0 0 1
    outer loop
      vertex 2.52824 3.4512 0
      vertex 5.2019 5.2019 0
      vertex 4.9216 5.52152 0
    endloop
  endfacet
  facet normal 0 0 1
    outer loop
      vertex 2.16489 3.99501 0
      vertex 4.9216 5.52152 0
      vertex 4.68542 5.875 0
    endloop
  endfacet
  facet normal 0 0 1
    outer loop
      vertex 5.875 4.68542 0
      vertex 4.58159 1.87561 0
      vertex 5.20091 1.66537 0
    endloop
  endfacet
  facet normal 0 0 1
    outer loop
      vertex 1.87561 4.58159 0
      vertex 4.68542 5.875 0
      vertex 4.49739 6.25628 0
    endloop
  endfacet
  facet normal 0 0 1
    outer loop
      vertex 1.53778 5.84238 0
      vertex 4.49739 6.25628 0
      vertex 4.36074 6.65884 0
    endloop
  endfacet
  facet normal 0 0 1
    outer loop
      vertex 1.49501 6.49501 0
      vertex 4.36074 6.65884 0
      vertex 4.2778 7.07579 0
    endloop
  endfacet
  facet normal 0 0 1
    outer loop
      vertex 1.49501 6.49501 0
      vertex 4.2778 7.07579 0
      vertex 4.25 7.5 0
    endloop
  endfacet
  facet normal 0 0 1
    outer loop
      vertex 5.875 4.68542 0
      vertex 3.99501 2.16489 0
      vertex 4.58159 1.87561 0
    endloop
  endfacet
  facet normal -0 0 1
    outer loop
      vertex 1.87561 10.4184 0
      vertex 4.68542 9.125 0
      vertex 2.16489 11.005 0
    endloop
  endfacet
  facet normal 0 0 1
    outer loop
      vertex 4.68542 9.125 0
      vertex 1.87561 10.4184 0
      vertex 4.49739 8.74372 0
    endloop
  endfacet
  facet normal 0 0 1
    outer loop
      vertex 1.49501 6.49501 0
      vertex 4.25 7.5 0
      vertex 1.49501 8.50499 0
    endloop
  endfacet
  facet normal -0 0 1
    outer loop
      vertex 1.66537 9.79909 0
      vertex 4.49739 8.74372 0
      vertex 1.87561 10.4184 0
    endloop
  endfacet
  facet normal 0 0 1
    outer loop
      vertex 4.36074 6.65884 0
      vertex 1.49501 6.49501 0
      vertex 1.53778 5.84238 0
    endloop
  endfacet
  facet normal -0 0 1
    outer loop
      vertex 1.53778 9.15762 0
      vertex 4.49739 8.74372 0
      vertex 1.66537 9.79909 0
    endloop
  endfacet
  facet normal 0 0 1
    outer loop
      vertex 5.52152 4.9216 0
      vertex 3.4512 2.52824 0
      vertex 3.99501 2.16489 0
    endloop
  endfacet
  facet normal 0 0 1
    outer loop
      vertex 4.49739 8.74372 0
      vertex 1.53778 9.15762 0
      vertex 4.36074 8.34116 0
    endloop
  endfacet
  facet normal 0 0 1
    outer loop
      vertex 5.2019 5.2019 0
      vertex 2.95947 2.95947 0
      vertex 3.4512 2.52824 0
    endloop
  endfacet
  facet normal -0 0 1
    outer loop
      vertex 1.49501 8.50499 0
      vertex 4.36074 8.34116 0
      vertex 1.53778 9.15762 0
    endloop
  endfacet
  facet normal 0 0 1
    outer loop
      vertex 5.2019 5.2019 0
      vertex 2.52824 3.4512 0
      vertex 2.95947 2.95947 0
    endloop
  endfacet
  facet normal 0 0 1
    outer loop
      vertex 4.36074 8.34116 0
      vertex 1.49501 8.50499 0
      vertex 4.2778 7.92421 0
    endloop
  endfacet
  facet normal 0 0 1
    outer loop
      vertex 4.9216 5.52152 0
      vertex 2.16489 3.99501 0
      vertex 2.52824 3.4512 0
    endloop
  endfacet
  facet normal 0 0 1
    outer loop
      vertex 4.2778 7.92421 0
      vertex 1.49501 8.50499 0
      vertex 4.25 7.5 0
    endloop
  endfacet
  facet normal 0 0 1
    outer loop
      vertex 4.68542 5.875 0
      vertex 1.87561 4.58159 0
      vertex 2.16489 3.99501 0
    endloop
  endfacet
  facet normal 0 0 1
    outer loop
      vertex 4.49739 6.25628 0
      vertex 1.66537 5.20091 0
      vertex 1.87561 4.58159 0
    endloop
  endfacet
  facet normal 0 0 1
    outer loop
      vertex 4.49739 6.25628 0
      vertex 1.53778 5.84238 0
      vertex 1.66537 5.20091 0
    endloop
  endfacet
  facet normal 0 0 -1
    outer loop
      vertex 10.6393 6.65884 -9
      vertex 13.505 6.49501 -9
      vertex 13.4622 5.84238 -9
    endloop
  endfacet
  facet normal 0 0 -1
    outer loop
      vertex 13.505 6.49501 -9
      vertex 10.75 7.5 -9
      vertex 13.505 8.50499 -9
    endloop
  endfacet
  facet normal 0 0 -1
    outer loop
      vertex 10.5026 6.25628 -9
      vertex 13.4622 5.84238 -9
      vertex 13.3346 5.20091 -9
    endloop
  endfacet
  facet normal 0 0 -1
    outer loop
      vertex 10.7222 7.92421 -9
      vertex 13.505 8.50499 -9
      vertex 10.75 7.5 -9
    endloop
  endfacet
  facet normal 0 0 -1
    outer loop
      vertex 10.5026 6.25628 -9
      vertex 13.3346 5.20091 -9
      vertex 13.1244 4.58159 -9
    endloop
  endfacet
  facet normal 0 0 -1
    outer loop
      vertex 10.6393 8.34116 -9
      vertex 13.505 8.50499 -9
      vertex 10.7222 7.92421 -9
    endloop
  endfacet
  facet normal 0 0 -1
    outer loop
      vertex 10.3146 5.875 -9
      vertex 13.1244 4.58159 -9
      vertex 12.8351 3.99501 -9
    endloop
  endfacet
  facet normal -0 0 -1
    outer loop
      vertex 13.505 8.50499 -9
      vertex 10.6393 8.34116 -9
      vertex 13.4622 9.15762 -9
    endloop
  endfacet
  facet normal 0 0 -1
    outer loop
      vertex 10.0784 5.52152 -9
      vertex 12.8351 3.99501 -9
      vertex 12.4718 3.4512 -9
    endloop
  endfacet
  facet normal 0 0 -1
    outer loop
      vertex 10.5026 8.74372 -9
      vertex 13.4622 9.15762 -9
      vertex 10.6393 8.34116 -9
    endloop
  endfacet
  facet normal 0 0 -1
    outer loop
      vertex 9.7981 5.2019 -9
      vertex 12.4718 3.4512 -9
      vertex 12.0405 2.95947 -9
    endloop
  endfacet
  facet normal -0 0 -1
    outer loop
      vertex 13.4622 9.15762 -9
      vertex 10.5026 8.74372 -9
      vertex 13.3346 9.79909 -9
    endloop
  endfacet
  facet normal 0 0 -1
    outer loop
      vertex 9.7981 5.2019 -9
      vertex 12.0405 2.95947 -9
      vertex 11.5488 2.52824 -9
    endloop
  endfacet
  facet normal -0 0 -1
    outer loop
      vertex 13.3346 9.79909 -9
      vertex 10.5026 8.74372 -9
      vertex 13.1244 10.4184 -9
    endloop
  endfacet
  facet normal 0 0 -1
    outer loop
      vertex 9.47847 4.9216 -9
      vertex 11.5488 2.52824 -9
      vertex 11.005 2.16489 -9
    endloop
  endfacet
  facet normal 0 0 -1
    outer loop
      vertex 10.3146 9.125 -9
      vertex 13.1244 10.4184 -9
      vertex 10.5026 8.74372 -9
    endloop
  endfacet
  facet normal -0 0 -1
    outer loop
      vertex 13.1244 10.4184 -9
      vertex 10.3146 9.125 -9
      vertex 12.8351 11.005 -9
    endloop
  endfacet
  facet normal 0 0 -1
    outer loop
      vertex 13.505 6.49501 -9
      vertex 10.7222 7.07579 -9
      vertex 10.75 7.5 -9
    endloop
  endfacet
  facet normal 0 0 -1
    outer loop
      vertex 13.505 6.49501 -9
      vertex 10.6393 6.65884 -9
      vertex 10.7222 7.07579 -9
    endloop
  endfacet
  facet normal 0 0 -1
    outer loop
      vertex 13.4622 5.84238 -9
      vertex 10.5026 6.25628 -9
      vertex 10.6393 6.65884 -9
    endloop
  endfacet
  facet normal 0 0 -1
    outer loop
      vertex 9.125 4.68542 -9
      vertex 11.005 2.16489 -9
      vertex 10.4184 1.87561 -9
    endloop
  endfacet
  facet normal 0 0 -1
    outer loop
      vertex 13.1244 4.58159 -9
      vertex 10.3146 5.875 -9
      vertex 10.5026 6.25628 -9
    endloop
  endfacet
  facet normal 0 0 -1
    outer loop
      vertex 12.8351 3.99501 -9
      vertex 10.0784 5.52152 -9
      vertex 10.3146 5.875 -9
    endloop
  endfacet
  facet normal 0 0 -1
    outer loop
      vertex 9.125 4.68542 -9
      vertex 10.4184 1.87561 -9
      vertex 9.79909 1.66537 -9
    endloop
  endfacet
  facet normal 0 0 -1
    outer loop
      vertex 12.4718 3.4512 -9
      vertex 9.7981 5.2019 -9
      vertex 10.0784 5.52152 -9
    endloop
  endfacet
  facet normal 0 0 -1
    outer loop
      vertex 11.5488 2.52824 -9
      vertex 9.47847 4.9216 -9
      vertex 9.7981 5.2019 -9
    endloop
  endfacet
  facet normal 0 0 -1
    outer loop
      vertex 8.74372 4.49739 -9
      vertex 9.79909 1.66537 -9
      vertex 9.15762 1.53778 -9
    endloop
  endfacet
  facet normal 0 0 -1
    outer loop
      vertex 11.005 2.16489 -9
      vertex 9.125 4.68542 -9
      vertex 9.47847 4.9216 -9
    endloop
  endfacet
  facet normal 0 0 -1
    outer loop
      vertex 9.79909 1.66537 -9
      vertex 8.74372 4.49739 -9
      vertex 9.125 4.68542 -9
    endloop
  endfacet
  facet normal 0 0 -1
    outer loop
      vertex 8.34116 4.36074 -9
      vertex 9.15762 1.53778 -9
      vertex 8.50499 1.49501 -9
    endloop
  endfacet
  facet normal 0 0 -1
    outer loop
      vertex 9.15762 1.53778 -9
      vertex 8.34116 4.36074 -9
      vertex 8.74372 4.49739 -9
    endloop
  endfacet
  facet normal 0 0 -1
    outer loop
      vertex 8.50499 1.49501 -9
      vertex 7.92421 4.2778 -9
      vertex 8.34116 4.36074 -9
    endloop
  endfacet
  facet normal 0 0 -1
    outer loop
      vertex 8.50499 1.49501 -9
      vertex 7.5 4.25 -9
      vertex 7.92421 4.2778 -9
    endloop
  endfacet
  facet normal 0 0 -1
    outer loop
      vertex 6.49501 1.49501 -9
      vertex 7.5 4.25 -9
      vertex 8.50499 1.49501 -9
    endloop
  endfacet
  facet normal -0 0 -1
    outer loop
      vertex 7.5 4.25 -9
      vertex 6.49501 1.49501 -9
      vertex 7.07579 4.2778 -9
    endloop
  endfacet
  facet normal -0 0 -1
    outer loop
      vertex 7.07579 4.2778 -9
      vertex 6.49501 1.49501 -9
      vertex 6.65884 4.36074 -9
    endloop
  endfacet
  facet normal 0 0 -1
    outer loop
      vertex 5.84238 1.53778 -9
      vertex 6.65884 4.36074 -9
      vertex 6.49501 1.49501 -9
    endloop
  endfacet
  facet normal -0 0 -1
    outer loop
      vertex 6.65884 4.36074 -9
      vertex 5.84238 1.53778 -9
      vertex 6.25628 4.49739 -9
    endloop
  endfacet
  facet normal 0 0 -1
    outer loop
      vertex 5.20091 1.66537 -9
      vertex 6.25628 4.49739 -9
      vertex 5.84238 1.53778 -9
    endloop
  endfacet
  facet normal -0 0 -1
    outer loop
      vertex 6.25628 4.49739 -9
      vertex 5.20091 1.66537 -9
      vertex 5.875 4.68542 -9
    endloop
  endfacet
  facet normal 0 0 -1
    outer loop
      vertex 4.58159 1.87561 -9
      vertex 5.875 4.68542 -9
      vertex 5.20091 1.66537 -9
    endloop
  endfacet
  facet normal 0 0 -1
    outer loop
      vertex 3.99501 2.16489 -9
      vertex 5.875 4.68542 -9
      vertex 4.58159 1.87561 -9
    endloop
  endfacet
  facet normal -0 0 -1
    outer loop
      vertex 5.875 4.68542 -9
      vertex 3.99501 2.16489 -9
      vertex 5.52152 4.9216 -9
    endloop
  endfacet
  facet normal 0 0 -1
    outer loop
      vertex 3.4512 2.52824 -9
      vertex 5.52152 4.9216 -9
      vertex 3.99501 2.16489 -9
    endloop
  endfacet
  facet normal -0 0 -1
    outer loop
      vertex 5.52152 4.9216 -9
      vertex 3.4512 2.52824 -9
      vertex 5.2019 5.2019 -9
    endloop
  endfacet
  facet normal 0 0 -1
    outer loop
      vertex 2.95947 2.95947 -9
      vertex 5.2019 5.2019 -9
      vertex 3.4512 2.52824 -9
    endloop
  endfacet
  facet normal 0 0 -1
    outer loop
      vertex 2.52824 3.4512 -9
      vertex 5.2019 5.2019 -9
      vertex 2.95947 2.95947 -9
    endloop
  endfacet
  facet normal -0 0 -1
    outer loop
      vertex 5.2019 5.2019 -9
      vertex 2.52824 3.4512 -9
      vertex 4.9216 5.52152 -9
    endloop
  endfacet
  facet normal 0 0 -1
    outer loop
      vertex 2.16489 3.99501 -9
      vertex 4.9216 5.52152 -9
      vertex 2.52824 3.4512 -9
    endloop
  endfacet
  facet normal -0 0 -1
    outer loop
      vertex 4.9216 5.52152 -9
      vertex 2.16489 3.99501 -9
      vertex 4.68542 5.875 -9
    endloop
  endfacet
  facet normal 0 0 -1
    outer loop
      vertex 10.0784 9.47847 -9
      vertex 12.8351 11.005 -9
      vertex 10.3146 9.125 -9
    endloop
  endfacet
  facet normal -0 0 -1
    outer loop
      vertex 12.8351 11.005 -9
      vertex 10.0784 9.47847 -9
      vertex 12.4718 11.5488 -9
    endloop
  endfacet
  facet normal 0 0 -1
    outer loop
      vertex 9.7981 9.7981 -9
      vertex 12.4718 11.5488 -9
      vertex 10.0784 9.47847 -9
    endloop
  endfacet
  facet normal -0 0 -1
    outer loop
      vertex 12.4718 11.5488 -9
      vertex 9.7981 9.7981 -9
      vertex 12.0405 12.0405 -9
    endloop
  endfacet
  facet normal -0 0 -1
    outer loop
      vertex 12.0405 12.0405 -9
      vertex 9.7981 9.7981 -9
      vertex 11.5488 12.4718 -9
    endloop
  endfacet
  facet normal 0 0 -1
    outer loop
      vertex 9.47847 10.0784 -9
      vertex 11.5488 12.4718 -9
      vertex 9.7981 9.7981 -9
    endloop
  endfacet
  facet normal -0 0 -1
    outer loop
      vertex 11.5488 12.4718 -9
      vertex 9.47847 10.0784 -9
      vertex 11.005 12.8351 -9
    endloop
  endfacet
  facet normal 0 0 -1
    outer loop
      vertex 9.125 10.3146 -9
      vertex 11.005 12.8351 -9
      vertex 9.47847 10.0784 -9
    endloop
  endfacet
  facet normal -0 0 -1
    outer loop
      vertex 11.005 12.8351 -9
      vertex 9.125 10.3146 -9
      vertex 10.4184 13.1244 -9
    endloop
  endfacet
  facet normal -0 0 -1
    outer loop
      vertex 10.4184 13.1244 -9
      vertex 9.125 10.3146 -9
      vertex 9.79909 13.3346 -9
    endloop
  endfacet
  facet normal 0 0 -1
    outer loop
      vertex 8.74372 10.5026 -9
      vertex 9.79909 13.3346 -9
      vertex 9.125 10.3146 -9
    endloop
  endfacet
  facet normal -0 0 -1
    outer loop
      vertex 9.79909 13.3346 -9
      vertex 8.74372 10.5026 -9
      vertex 9.15762 13.4622 -9
    endloop
  endfacet
  facet normal 0 0 -1
    outer loop
      vertex 8.34116 10.6393 -9
      vertex 9.15762 13.4622 -9
      vertex 8.74372 10.5026 -9
    endloop
  endfacet
  facet normal -0 0 -1
    outer loop
      vertex 9.15762 13.4622 -9
      vertex 8.34116 10.6393 -9
      vertex 8.50499 13.505 -9
    endloop
  endfacet
  facet normal 0 0 -1
    outer loop
      vertex 7.92421 10.7222 -9
      vertex 8.50499 13.505 -9
      vertex 8.34116 10.6393 -9
    endloop
  endfacet
  facet normal 0 0 -1
    outer loop
      vertex 7.5 10.75 -9
      vertex 8.50499 13.505 -9
      vertex 7.92421 10.7222 -9
    endloop
  endfacet
  facet normal 0 0 -1
    outer loop
      vertex 6.49501 13.505 -9
      vertex 7.5 10.75 -9
      vertex 7.07579 10.7222 -9
    endloop
  endfacet
  facet normal 0 0 -1
    outer loop
      vertex 6.49501 13.505 -9
      vertex 7.07579 10.7222 -9
      vertex 6.65884 10.6393 -9
    endloop
  endfacet
  facet normal 0 0 -1
    outer loop
      vertex 7.5 10.75 -9
      vertex 6.49501 13.505 -9
      vertex 8.50499 13.505 -9
    endloop
  endfacet
  facet normal 0 0 -1
    outer loop
      vertex 5.84238 13.4622 -9
      vertex 6.65884 10.6393 -9
      vertex 6.25628 10.5026 -9
    endloop
  endfacet
  facet normal 0 0 -1
    outer loop
      vertex 5.20091 13.3346 -9
      vertex 6.25628 10.5026 -9
      vertex 5.875 10.3146 -9
    endloop
  endfacet
  facet normal 0 0 -1
    outer loop
      vertex 6.65884 10.6393 -9
      vertex 5.84238 13.4622 -9
      vertex 6.49501 13.505 -9
    endloop
  endfacet
  facet normal 0 0 -1
    outer loop
      vertex 3.99501 12.8351 -9
      vertex 5.875 10.3146 -9
      vertex 5.52152 10.0784 -9
    endloop
  endfacet
  facet normal 0 0 -1
    outer loop
      vertex 3.4512 12.4718 -9
      vertex 5.52152 10.0784 -9
      vertex 5.2019 9.7981 -9
    endloop
  endfacet
  facet normal 0 0 -1
    outer loop
      vertex 6.25628 10.5026 -9
      vertex 5.20091 13.3346 -9
      vertex 5.84238 13.4622 -9
    endloop
  endfacet
  facet normal 0 0 -1
    outer loop
      vertex 2.52824 11.5488 -9
      vertex 5.2019 9.7981 -9
      vertex 4.9216 9.47847 -9
    endloop
  endfacet
  facet normal 0 0 -1
    outer loop
      vertex 2.16489 11.005 -9
      vertex 4.9216 9.47847 -9
      vertex 4.68542 9.125 -9
    endloop
  endfacet
  facet normal 0 0 -1
    outer loop
      vertex 5.875 10.3146 -9
      vertex 4.58159 13.1244 -9
      vertex 5.20091 13.3346 -9
    endloop
  endfacet
  facet normal 0 0 -1
    outer loop
      vertex 1.87561 10.4184 -9
      vertex 4.68542 9.125 -9
      vertex 4.49739 8.74372 -9
    endloop
  endfacet
  facet normal 0 0 -1
    outer loop
      vertex 1.53778 9.15762 -9
      vertex 4.49739 8.74372 -9
      vertex 4.36074 8.34116 -9
    endloop
  endfacet
  facet normal 0 0 -1
    outer loop
      vertex 1.49501 8.50499 -9
      vertex 4.36074 8.34116 -9
      vertex 4.2778 7.92421 -9
    endloop
  endfacet
  facet normal 0 0 -1
    outer loop
      vertex 1.49501 8.50499 -9
      vertex 4.2778 7.92421 -9
      vertex 4.25 7.5 -9
    endloop
  endfacet
  facet normal 0 0 -1
    outer loop
      vertex 5.875 10.3146 -9
      vertex 3.99501 12.8351 -9
      vertex 4.58159 13.1244 -9
    endloop
  endfacet
  facet normal 0 0 -1
    outer loop
      vertex 1.87561 4.58159 -9
      vertex 4.68542 5.875 -9
      vertex 2.16489 3.99501 -9
    endloop
  endfacet
  facet normal -0 0 -1
    outer loop
      vertex 4.68542 5.875 -9
      vertex 1.87561 4.58159 -9
      vertex 4.49739 6.25628 -9
    endloop
  endfacet
  facet normal 0 0 -1
    outer loop
      vertex 1.49501 8.50499 -9
      vertex 4.25 7.5 -9
      vertex 1.49501 6.49501 -9
    endloop
  endfacet
  facet normal 0 0 -1
    outer loop
      vertex 1.66537 5.20091 -9
      vertex 4.49739 6.25628 -9
      vertex 1.87561 4.58159 -9
    endloop
  endfacet
  facet normal 0 0 -1
    outer loop
      vertex 4.36074 8.34116 -9
      vertex 1.49501 8.50499 -9
      vertex 1.53778 9.15762 -9
    endloop
  endfacet
  facet normal 0 0 -1
    outer loop
      vertex 1.53778 5.84238 -9
      vertex 4.49739 6.25628 -9
      vertex 1.66537 5.20091 -9
    endloop
  endfacet
  facet normal 0 0 -1
    outer loop
      vertex 5.52152 10.0784 -9
      vertex 3.4512 12.4718 -9
      vertex 3.99501 12.8351 -9
    endloop
  endfacet
  facet normal -0 0 -1
    outer loop
      vertex 4.49739 6.25628 -9
      vertex 1.53778 5.84238 -9
      vertex 4.36074 6.65884 -9
    endloop
  endfacet
  facet normal 0 0 -1
    outer loop
      vertex 5.2019 9.7981 -9
      vertex 2.95947 12.0405 -9
      vertex 3.4512 12.4718 -9
    endloop
  endfacet
  facet normal 0 0 -1
    outer loop
      vertex 1.49501 6.49501 -9
      vertex 4.36074 6.65884 -9
      vertex 1.53778 5.84238 -9
    endloop
  endfacet
  facet normal 0 0 -1
    outer loop
      vertex 5.2019 9.7981 -9
      vertex 2.52824 11.5488 -9
      vertex 2.95947 12.0405 -9
    endloop
  endfacet
  facet normal -0 0 -1
    outer loop
      vertex 4.36074 6.65884 -9
      vertex 1.49501 6.49501 -9
      vertex 4.2778 7.07579 -9
    endloop
  endfacet
  facet normal 0 0 -1
    outer loop
      vertex 4.9216 9.47847 -9
      vertex 2.16489 11.005 -9
      vertex 2.52824 11.5488 -9
    endloop
  endfacet
  facet normal -0 0 -1
    outer loop
      vertex 4.2778 7.07579 -9
      vertex 1.49501 6.49501 -9
      vertex 4.25 7.5 -9
    endloop
  endfacet
  facet normal 0 0 -1
    outer loop
      vertex 4.68542 9.125 -9
      vertex 1.87561 10.4184 -9
      vertex 2.16489 11.005 -9
    endloop
  endfacet
  facet normal 0 0 -1
    outer loop
      vertex 4.49739 8.74372 -9
      vertex 1.66537 9.79909 -9
      vertex 1.87561 10.4184 -9
    endloop
  endfacet
  facet normal 0 0 -1
    outer loop
      vertex 4.49739 8.74372 -9
      vertex 1.53778 9.15762 -9
      vertex 1.66537 9.79909 -9
    endloop
  endfacet
  facet normal -0.997859 -0.0653946 0
    outer loop
      vertex 1.53778 5.84238 -9
      vertex 1.49501 6.49501 0
      vertex 1.49501 6.49501 -9
    endloop
  endfacet
  facet normal -0.997859 -0.0653946 0
    outer loop
      vertex 1.49501 6.49501 0
      vertex 1.53778 5.84238 -9
      vertex 1.53778 5.84238 0
    endloop
  endfacet
  facet normal -0.946926 -0.321452 0
    outer loop
      vertex 1.87561 4.58159 -9
      vertex 1.66537 5.20091 0
      vertex 1.66537 5.20091 -9
    endloop
  endfacet
  facet normal -0.946926 -0.321452 0
    outer loop
      vertex 1.66537 5.20091 0
      vertex 1.87561 4.58159 -9
      vertex 1.87561 4.58159 0
    endloop
  endfacet
  facet normal -0.896866 -0.442302 0
    outer loop
      vertex 2.16489 3.99501 -9
      vertex 1.87561 4.58159 0
      vertex 1.87561 4.58159 -9
    endloop
  endfacet
  facet normal -0.896866 -0.442302 0
    outer loop
      vertex 1.87561 4.58159 0
      vertex 2.16489 3.99501 -9
      vertex 2.16489 3.99501 0
    endloop
  endfacet
  facet normal -0.555557 -0.831478 0
    outer loop
      vertex 3.4512 2.52824 -9
      vertex 3.99501 2.16489 0
      vertex 3.4512 2.52824 0
    endloop
  endfacet
  facet normal -0.555557 -0.831478 -0
    outer loop
      vertex 3.99501 2.16489 0
      vertex 3.4512 2.52824 -9
      vertex 3.99501 2.16489 -9
    endloop
  endfacet
  facet normal -0.195081 -0.980787 0
    outer loop
      vertex 5.20091 1.66537 -9
      vertex 5.84238 1.53778 0
      vertex 5.20091 1.66537 0
    endloop
  endfacet
  facet normal -0.195081 -0.980787 -0
    outer loop
      vertex 5.84238 1.53778 0
      vertex 5.20091 1.66537 -9
      vertex 5.84238 1.53778 -9
    endloop
  endfacet
  facet normal 0.0653946 -0.997859 0
    outer loop
      vertex 8.50499 1.49501 -9
      vertex 9.15762 1.53778 0
      vertex 8.50499 1.49501 0
    endloop
  endfacet
  facet normal 0.0653946 -0.997859 0
    outer loop
      vertex 9.15762 1.53778 0
      vertex 8.50499 1.49501 -9
      vertex 9.15762 1.53778 -9
    endloop
  endfacet
  facet normal -0.0653946 -0.997859 0
    outer loop
      vertex 5.84238 1.53778 -9
      vertex 6.49501 1.49501 0
      vertex 5.84238 1.53778 0
    endloop
  endfacet
  facet normal -0.0653946 -0.997859 -0
    outer loop
      vertex 6.49501 1.49501 0
      vertex 5.84238 1.53778 -9
      vertex 6.49501 1.49501 -9
    endloop
  endfacet
  facet normal 0 -1 0
    outer loop
      vertex 6.49501 1.49501 -9
      vertex 8.50499 1.49501 0
      vertex 6.49501 1.49501 0
    endloop
  endfacet
  facet normal 0 -1 -0
    outer loop
      vertex 8.50499 1.49501 0
      vertex 6.49501 1.49501 -9
      vertex 8.50499 1.49501 -9
    endloop
  endfacet
  facet normal -0.0654402 0.997856 0
    outer loop
      vertex 6.49501 13.505 -9
      vertex 5.84238 13.4622 0
      vertex 6.49501 13.505 0
    endloop
  endfacet
  facet normal -0.0654402 0.997856 0
    outer loop
      vertex 5.84238 13.4622 0
      vertex 6.49501 13.505 -9
      vertex 5.84238 13.4622 -9
    endloop
  endfacet
  facet normal 0.89686 0.442314 0
    outer loop
      vertex 13.1244 10.4184 0
      vertex 12.8351 11.005 -9
      vertex 12.8351 11.005 0
    endloop
  endfacet
  facet normal 0.89686 0.442314 0
    outer loop
      vertex 12.8351 11.005 -9
      vertex 13.1244 10.4184 0
      vertex 13.1244 10.4184 -9
    endloop
  endfacet
  facet normal 0.0654402 0.997856 -0
    outer loop
      vertex 9.15762 13.4622 -9
      vertex 8.50499 13.505 0
      vertex 9.15762 13.4622 0
    endloop
  endfacet
  facet normal 0.0654402 0.997856 0
    outer loop
      vertex 8.50499 13.505 0
      vertex 9.15762 13.4622 -9
      vertex 8.50499 13.505 -9
    endloop
  endfacet
  facet normal 0.321402 0.946943 -0
    outer loop
      vertex 10.4184 13.1244 -9
      vertex 9.79909 13.3346 0
      vertex 10.4184 13.1244 0
    endloop
  endfacet
  facet normal 0.321402 0.946943 0
    outer loop
      vertex 9.79909 13.3346 0
      vertex 10.4184 13.1244 -9
      vertex 9.79909 13.3346 -9
    endloop
  endfacet
  facet normal 0.980784 -0.195096 0
    outer loop
      vertex 13.3346 5.20091 0
      vertex 13.4622 5.84238 -9
      vertex 13.4622 5.84238 0
    endloop
  endfacet
  facet normal 0.980784 -0.195096 0
    outer loop
      vertex 13.4622 5.84238 -9
      vertex 13.3346 5.20091 0
      vertex 13.3346 5.20091 -9
    endloop
  endfacet
  facet normal 0.997856 -0.0654402 0
    outer loop
      vertex 13.4622 5.84238 0
      vertex 13.505 6.49501 -9
      vertex 13.505 6.49501 0
    endloop
  endfacet
  facet normal 0.997856 -0.0654402 0
    outer loop
      vertex 13.505 6.49501 -9
      vertex 13.4622 5.84238 0
      vertex 13.4622 5.84238 -9
    endloop
  endfacet
  facet normal 0.997856 0.0654402 0
    outer loop
      vertex 13.505 8.50499 0
      vertex 13.4622 9.15762 -9
      vertex 13.4622 9.15762 0
    endloop
  endfacet
  facet normal 0.997856 0.0654402 0
    outer loop
      vertex 13.4622 9.15762 -9
      vertex 13.505 8.50499 0
      vertex 13.505 8.50499 -9
    endloop
  endfacet
  facet normal 0.946944 -0.321397 0
    outer loop
      vertex 13.1244 4.58159 0
      vertex 13.3346 5.20091 -9
      vertex 13.3346 5.20091 0
    endloop
  endfacet
  facet normal 0.946944 -0.321397 0
    outer loop
      vertex 13.3346 5.20091 -9
      vertex 13.1244 4.58159 0
      vertex 13.1244 4.58159 -9
    endloop
  endfacet
  facet normal 0.751791 -0.659401 0
    outer loop
      vertex 12.0405 2.95947 0
      vertex 12.4718 3.4512 -9
      vertex 12.4718 3.4512 0
    endloop
  endfacet
  facet normal 0.751791 -0.659401 0
    outer loop
      vertex 12.4718 3.4512 -9
      vertex 12.0405 2.95947 0
      vertex 12.0405 2.95947 -9
    endloop
  endfacet
  facet normal 0.659364 -0.751824 0
    outer loop
      vertex 11.5488 2.52824 -9
      vertex 12.0405 2.95947 0
      vertex 11.5488 2.52824 0
    endloop
  endfacet
  facet normal 0.659364 -0.751824 0
    outer loop
      vertex 12.0405 2.95947 0
      vertex 11.5488 2.52824 -9
      vertex 12.0405 2.95947 -9
    endloop
  endfacet
  facet normal 0.44229 -0.896872 0
    outer loop
      vertex 10.4184 1.87561 -9
      vertex 11.005 2.16489 0
      vertex 10.4184 1.87561 0
    endloop
  endfacet
  facet normal 0.44229 -0.896872 0
    outer loop
      vertex 11.005 2.16489 0
      vertex 10.4184 1.87561 -9
      vertex 11.005 2.16489 -9
    endloop
  endfacet
  facet normal -0.321397 0.946944 0
    outer loop
      vertex 5.20091 13.3346 -9
      vertex 4.58159 13.1244 0
      vertex 5.20091 13.3346 0
    endloop
  endfacet
  facet normal -0.321397 0.946944 0
    outer loop
      vertex 4.58159 13.1244 0
      vertex 5.20091 13.3346 -9
      vertex 4.58159 13.1244 -9
    endloop
  endfacet
  facet normal -0.831474 0.555564 0
    outer loop
      vertex 2.16489 11.005 -9
      vertex 2.52824 11.5488 0
      vertex 2.52824 11.5488 -9
    endloop
  endfacet
  facet normal -0.831474 0.555564 0
    outer loop
      vertex 2.52824 11.5488 0
      vertex 2.16489 11.005 -9
      vertex 2.16489 11.005 0
    endloop
  endfacet
  facet normal -0.980787 0.195081 0
    outer loop
      vertex 1.53778 9.15762 -9
      vertex 1.66537 9.79909 0
      vertex 1.66537 9.79909 -9
    endloop
  endfacet
  facet normal -0.980787 0.195081 0
    outer loop
      vertex 1.66537 9.79909 0
      vertex 1.53778 9.15762 -9
      vertex 1.53778 9.15762 0
    endloop
  endfacet
  facet normal -0.751844 -0.659341 0
    outer loop
      vertex 2.95947 2.95947 -9
      vertex 2.52824 3.4512 0
      vertex 2.52824 3.4512 -9
    endloop
  endfacet
  facet normal -0.751844 -0.659341 0
    outer loop
      vertex 2.52824 3.4512 0
      vertex 2.95947 2.95947 -9
      vertex 2.95947 2.95947 0
    endloop
  endfacet
  facet normal 0.555512 0.831509 -0
    outer loop
      vertex 11.5488 12.4718 -9
      vertex 11.005 12.8351 0
      vertex 11.5488 12.4718 0
    endloop
  endfacet
  facet normal 0.555512 0.831509 0
    outer loop
      vertex 11.005 12.8351 0
      vertex 11.5488 12.4718 -9
      vertex 11.005 12.8351 -9
    endloop
  endfacet
  facet normal 0.831514 -0.555504 0
    outer loop
      vertex 12.4718 3.4512 0
      vertex 12.8351 3.99501 -9
      vertex 12.8351 3.99501 0
    endloop
  endfacet
  facet normal 0.831514 -0.555504 0
    outer loop
      vertex 12.8351 3.99501 -9
      vertex 12.4718 3.4512 0
      vertex 12.4718 3.4512 -9
    endloop
  endfacet
  facet normal -0.99786 -0.0653933 0
    outer loop
      vertex 10.75 7.5 -9
      vertex 10.7222 7.92421 0
      vertex 10.7222 7.92421 -9
    endloop
  endfacet
  facet normal -0.99786 -0.0653933 0
    outer loop
      vertex 10.7222 7.92421 0
      vertex 10.75 7.5 -9
      vertex 10.75 7.5 0
    endloop
  endfacet
  facet normal 0.0653933 -0.99786 0
    outer loop
      vertex 7.07579 10.7222 -9
      vertex 7.5 10.75 0
      vertex 7.07579 10.7222 0
    endloop
  endfacet
  facet normal 0.0653933 -0.99786 0
    outer loop
      vertex 7.5 10.75 0
      vertex 7.07579 10.7222 -9
      vertex 7.5 10.75 -9
    endloop
  endfacet
  facet normal -0.0653933 0.99786 0
    outer loop
      vertex 7.92421 4.2778 -9
      vertex 7.5 4.25 0
      vertex 7.92421 4.2778 0
    endloop
  endfacet
  facet normal -0.0653933 0.99786 0
    outer loop
      vertex 7.5 4.25 0
      vertex 7.92421 4.2778 -9
      vertex 7.5 4.25 -9
    endloop
  endfacet
  facet normal -0.659335 -0.751849 0
    outer loop
      vertex 9.47847 10.0784 -9
      vertex 9.7981 9.7981 0
      vertex 9.47847 10.0784 0
    endloop
  endfacet
  facet normal -0.659335 -0.751849 -0
    outer loop
      vertex 9.7981 9.7981 0
      vertex 9.47847 10.0784 -9
      vertex 9.7981 9.7981 -9
    endloop
  endfacet
  facet normal 0.751849 -0.659335 0
    outer loop
      vertex 4.9216 9.47847 0
      vertex 5.2019 9.7981 -9
      vertex 5.2019 9.7981 0
    endloop
  endfacet
  facet normal 0.751849 -0.659335 0
    outer loop
      vertex 5.2019 9.7981 -9
      vertex 4.9216 9.47847 0
      vertex 4.9216 9.47847 -9
    endloop
  endfacet
  facet normal 0.442239 -0.896897 0
    outer loop
      vertex 5.875 10.3146 -9
      vertex 6.25628 10.5026 0
      vertex 5.875 10.3146 0
    endloop
  endfacet
  facet normal 0.442239 -0.896897 0
    outer loop
      vertex 6.25628 10.5026 0
      vertex 5.875 10.3146 -9
      vertex 6.25628 10.5026 -9
    endloop
  endfacet
  facet normal -0.896897 -0.442239 0
    outer loop
      vertex 10.5026 8.74372 -9
      vertex 10.3146 9.125 0
      vertex 10.3146 9.125 -9
    endloop
  endfacet
  facet normal -0.896897 -0.442239 0
    outer loop
      vertex 10.3146 9.125 0
      vertex 10.5026 8.74372 -9
      vertex 10.5026 8.74372 0
    endloop
  endfacet
  facet normal -0.831449 -0.555601 0
    outer loop
      vertex 10.3146 9.125 -9
      vertex 10.0784 9.47847 0
      vertex 10.0784 9.47847 -9
    endloop
  endfacet
  facet normal -0.831449 -0.555601 0
    outer loop
      vertex 10.0784 9.47847 0
      vertex 10.3146 9.125 -9
      vertex 10.3146 9.125 0
    endloop
  endfacet
  facet normal -0.321543 -0.946895 0
    outer loop
      vertex 8.34116 10.6393 -9
      vertex 8.74372 10.5026 0
      vertex 8.34116 10.6393 0
    endloop
  endfacet
  facet normal -0.321543 -0.946895 -0
    outer loop
      vertex 8.74372 10.5026 0
      vertex 8.34116 10.6393 -9
      vertex 8.74372 10.5026 -9
    endloop
  endfacet
  facet normal -0.442239 -0.896897 0
    outer loop
      vertex 8.74372 10.5026 -9
      vertex 9.125 10.3146 0
      vertex 8.74372 10.5026 0
    endloop
  endfacet
  facet normal -0.442239 -0.896897 -0
    outer loop
      vertex 9.125 10.3146 0
      vertex 8.74372 10.5026 -9
      vertex 9.125 10.3146 -9
    endloop
  endfacet
  facet normal 0.946931 -0.321438 0
    outer loop
      vertex 4.36074 8.34116 0
      vertex 4.49739 8.74372 -9
      vertex 4.49739 8.74372 0
    endloop
  endfacet
  facet normal 0.946931 -0.321438 0
    outer loop
      vertex 4.49739 8.74372 -9
      vertex 4.36074 8.34116 0
      vertex 4.36074 8.34116 -9
    endloop
  endfacet
  facet normal 0.896869 -0.442295 0
    outer loop
      vertex 4.49739 8.74372 0
      vertex 4.68542 9.125 -9
      vertex 4.68542 9.125 0
    endloop
  endfacet
  facet normal 0.896869 -0.442295 0
    outer loop
      vertex 4.68542 9.125 -9
      vertex 4.49739 8.74372 0
      vertex 4.49739 8.74372 -9
    endloop
  endfacet
  facet normal 0.980784 -0.195098 0
    outer loop
      vertex 4.2778 7.92421 0
      vertex 4.36074 8.34116 -9
      vertex 4.36074 8.34116 0
    endloop
  endfacet
  facet normal 0.980784 -0.195098 0
    outer loop
      vertex 4.36074 8.34116 -9
      vertex 4.2778 7.92421 0
      vertex 4.2778 7.92421 -9
    endloop
  endfacet
  facet normal 0.55559 -0.831456 0
    outer loop
      vertex 5.52152 10.0784 -9
      vertex 5.875 10.3146 0
      vertex 5.52152 10.0784 0
    endloop
  endfacet
  facet normal 0.55559 -0.831456 0
    outer loop
      vertex 5.875 10.3146 0
      vertex 5.52152 10.0784 -9
      vertex 5.875 10.3146 -9
    endloop
  endfacet
  facet normal 0.321543 -0.946895 0
    outer loop
      vertex 6.25628 10.5026 -9
      vertex 6.65884 10.6393 0
      vertex 6.25628 10.5026 0
    endloop
  endfacet
  facet normal 0.321543 -0.946895 0
    outer loop
      vertex 6.65884 10.6393 0
      vertex 6.25628 10.5026 -9
      vertex 6.65884 10.6393 -9
    endloop
  endfacet
  facet normal -0.946895 0.321543 0
    outer loop
      vertex 10.5026 6.25628 -9
      vertex 10.6393 6.65884 0
      vertex 10.6393 6.65884 -9
    endloop
  endfacet
  facet normal -0.946895 0.321543 0
    outer loop
      vertex 10.6393 6.65884 0
      vertex 10.5026 6.25628 -9
      vertex 10.5026 6.25628 0
    endloop
  endfacet
  facet normal -0.751839 0.659347 0
    outer loop
      vertex 9.7981 5.2019 -9
      vertex 10.0784 5.52152 0
      vertex 10.0784 5.52152 -9
    endloop
  endfacet
  facet normal -0.751839 0.659347 0
    outer loop
      vertex 10.0784 5.52152 0
      vertex 9.7981 5.2019 -9
      vertex 9.7981 5.2019 0
    endloop
  endfacet
  facet normal -0.555568 0.831471 0
    outer loop
      vertex 9.47847 4.9216 -9
      vertex 9.125 4.68542 0
      vertex 9.47847 4.9216 0
    endloop
  endfacet
  facet normal -0.555568 0.831471 0
    outer loop
      vertex 9.125 4.68542 0
      vertex 9.47847 4.9216 -9
      vertex 9.125 4.68542 -9
    endloop
  endfacet
  facet normal 0.195098 0.980784 -0
    outer loop
      vertex 7.07579 4.2778 -9
      vertex 6.65884 4.36074 0
      vertex 7.07579 4.2778 0
    endloop
  endfacet
  facet normal 0.195098 0.980784 0
    outer loop
      vertex 6.65884 4.36074 0
      vertex 7.07579 4.2778 -9
      vertex 6.65884 4.36074 -9
    endloop
  endfacet
  facet normal 0.831478 0.555558 0
    outer loop
      vertex 4.9216 5.52152 0
      vertex 4.68542 5.875 -9
      vertex 4.68542 5.875 0
    endloop
  endfacet
  facet normal 0.831478 0.555558 0
    outer loop
      vertex 4.68542 5.875 -9
      vertex 4.9216 5.52152 0
      vertex 4.9216 5.52152 -9
    endloop
  endfacet
  facet normal 0.751839 0.659347 0
    outer loop
      vertex 5.2019 5.2019 0
      vertex 4.9216 5.52152 -9
      vertex 4.9216 5.52152 0
    endloop
  endfacet
  facet normal 0.751839 0.659347 0
    outer loop
      vertex 4.9216 5.52152 -9
      vertex 5.2019 5.2019 0
      vertex 5.2019 5.2019 -9
    endloop
  endfacet
  facet normal -0.946895 -0.321543 0
    outer loop
      vertex 10.6393 8.34116 -9
      vertex 10.5026 8.74372 0
      vertex 10.5026 8.74372 -9
    endloop
  endfacet
  facet normal -0.946895 -0.321543 0
    outer loop
      vertex 10.5026 8.74372 0
      vertex 10.6393 8.34116 -9
      vertex 10.6393 8.34116 0
    endloop
  endfacet
  facet normal -0.980802 -0.195008 0
    outer loop
      vertex 10.7222 7.92421 -9
      vertex 10.6393 8.34116 0
      vertex 10.6393 8.34116 -9
    endloop
  endfacet
  facet normal -0.980802 -0.195008 0
    outer loop
      vertex 10.6393 8.34116 0
      vertex 10.7222 7.92421 -9
      vertex 10.7222 7.92421 0
    endloop
  endfacet
  facet normal -0.751849 -0.659335 0
    outer loop
      vertex 10.0784 9.47847 -9
      vertex 9.7981 9.7981 0
      vertex 9.7981 9.7981 -9
    endloop
  endfacet
  facet normal -0.751849 -0.659335 0
    outer loop
      vertex 9.7981 9.7981 0
      vertex 10.0784 9.47847 -9
      vertex 10.0784 9.47847 0
    endloop
  endfacet
  facet normal -0.0653933 -0.99786 0
    outer loop
      vertex 7.5 10.75 -9
      vertex 7.92421 10.7222 0
      vertex 7.5 10.75 0
    endloop
  endfacet
  facet normal -0.0653933 -0.99786 -0
    outer loop
      vertex 7.92421 10.7222 0
      vertex 7.5 10.75 -9
      vertex 7.92421 10.7222 -9
    endloop
  endfacet
  facet normal -0.555601 -0.831449 0
    outer loop
      vertex 9.125 10.3146 -9
      vertex 9.47847 10.0784 0
      vertex 9.125 10.3146 0
    endloop
  endfacet
  facet normal -0.555601 -0.831449 -0
    outer loop
      vertex 9.47847 10.0784 0
      vertex 9.125 10.3146 -9
      vertex 9.47847 10.0784 -9
    endloop
  endfacet
  facet normal 0.831471 -0.555568 0
    outer loop
      vertex 4.68542 9.125 0
      vertex 4.9216 9.47847 -9
      vertex 4.9216 9.47847 0
    endloop
  endfacet
  facet normal 0.831471 -0.555568 0
    outer loop
      vertex 4.9216 9.47847 -9
      vertex 4.68542 9.125 0
      vertex 4.68542 9.125 -9
    endloop
  endfacet
  facet normal 0.99786 -0.0653933 0
    outer loop
      vertex 4.25 7.5 0
      vertex 4.2778 7.92421 -9
      vertex 4.2778 7.92421 0
    endloop
  endfacet
  facet normal 0.99786 -0.0653933 0
    outer loop
      vertex 4.2778 7.92421 -9
      vertex 4.25 7.5 0
      vertex 4.25 7.5 -9
    endloop
  endfacet
  facet normal 0.659347 -0.751839 0
    outer loop
      vertex 5.2019 9.7981 -9
      vertex 5.52152 10.0784 0
      vertex 5.2019 9.7981 0
    endloop
  endfacet
  facet normal 0.659347 -0.751839 0
    outer loop
      vertex 5.52152 10.0784 0
      vertex 5.2019 9.7981 -9
      vertex 5.52152 10.0784 -9
    endloop
  endfacet
  facet normal 0.195008 -0.980802 0
    outer loop
      vertex 6.65884 10.6393 -9
      vertex 7.07579 10.7222 0
      vertex 6.65884 10.6393 0
    endloop
  endfacet
  facet normal 0.195008 -0.980802 0
    outer loop
      vertex 7.07579 10.7222 0
      vertex 6.65884 10.6393 -9
      vertex 7.07579 10.7222 -9
    endloop
  endfacet
  facet normal -0.195098 0.980784 0
    outer loop
      vertex 8.34116 4.36074 -9
      vertex 7.92421 4.2778 0
      vertex 8.34116 4.36074 0
    endloop
  endfacet
  facet normal -0.195098 0.980784 0
    outer loop
      vertex 7.92421 4.2778 0
      vertex 8.34116 4.36074 -9
      vertex 7.92421 4.2778 -9
    endloop
  endfacet
  facet normal -0.442295 0.896869 0
    outer loop
      vertex 9.125 4.68542 -9
      vertex 8.74372 4.49739 0
      vertex 9.125 4.68542 0
    endloop
  endfacet
  facet normal -0.442295 0.896869 0
    outer loop
      vertex 8.74372 4.49739 0
      vertex 9.125 4.68542 -9
      vertex 8.74372 4.49739 -9
    endloop
  endfacet
  facet normal -0.659335 0.751849 0
    outer loop
      vertex 9.7981 5.2019 -9
      vertex 9.47847 4.9216 0
      vertex 9.7981 5.2019 0
    endloop
  endfacet
  facet normal -0.659335 0.751849 0
    outer loop
      vertex 9.47847 4.9216 0
      vertex 9.7981 5.2019 -9
      vertex 9.47847 4.9216 -9
    endloop
  endfacet
  facet normal -0.831456 0.55559 0
    outer loop
      vertex 10.0784 5.52152 -9
      vertex 10.3146 5.875 0
      vertex 10.3146 5.875 -9
    endloop
  endfacet
  facet normal -0.831456 0.55559 0
    outer loop
      vertex 10.3146 5.875 0
      vertex 10.0784 5.52152 -9
      vertex 10.0784 5.52152 0
    endloop
  endfacet
  facet normal 0.442295 0.896869 -0
    outer loop
      vertex 6.25628 4.49739 -9
      vertex 5.875 4.68542 0
      vertex 6.25628 4.49739 0
    endloop
  endfacet
  facet normal 0.442295 0.896869 0
    outer loop
      vertex 5.875 4.68542 0
      vertex 6.25628 4.49739 -9
      vertex 5.875 4.68542 -9
    endloop
  endfacet
  facet normal 0.555558 0.831478 -0
    outer loop
      vertex 5.875 4.68542 -9
      vertex 5.52152 4.9216 0
      vertex 5.875 4.68542 0
    endloop
  endfacet
  facet normal 0.555558 0.831478 0
    outer loop
      vertex 5.52152 4.9216 0
      vertex 5.875 4.68542 -9
      vertex 5.52152 4.9216 -9
    endloop
  endfacet
  facet normal 0.321438 0.946931 -0
    outer loop
      vertex 6.65884 4.36074 -9
      vertex 6.25628 4.49739 0
      vertex 6.65884 4.36074 0
    endloop
  endfacet
  facet normal 0.321438 0.946931 0
    outer loop
      vertex 6.25628 4.49739 0
      vertex 6.65884 4.36074 -9
      vertex 6.25628 4.49739 -9
    endloop
  endfacet
  facet normal 0.0653933 0.99786 -0
    outer loop
      vertex 7.5 4.25 -9
      vertex 7.07579 4.2778 0
      vertex 7.5 4.25 0
    endloop
  endfacet
  facet normal 0.0653933 0.99786 0
    outer loop
      vertex 7.07579 4.2778 0
      vertex 7.5 4.25 -9
      vertex 7.07579 4.2778 -9
    endloop
  endfacet
  facet normal 0.659347 0.751839 -0
    outer loop
      vertex 5.52152 4.9216 -9
      vertex 5.2019 5.2019 0
      vertex 5.52152 4.9216 0
    endloop
  endfacet
  facet normal 0.659347 0.751839 0
    outer loop
      vertex 5.2019 5.2019 0
      vertex 5.52152 4.9216 -9
      vertex 5.2019 5.2019 -9
    endloop
  endfacet
  facet normal 0.896869 0.442295 0
    outer loop
      vertex 4.68542 5.875 0
      vertex 4.49739 6.25628 -9
      vertex 4.49739 6.25628 0
    endloop
  endfacet
  facet normal 0.896869 0.442295 0
    outer loop
      vertex 4.49739 6.25628 -9
      vertex 4.68542 5.875 0
      vertex 4.68542 5.875 -9
    endloop
  endfacet
  facet normal 0.980784 0.195098 0
    outer loop
      vertex 4.36074 6.65884 0
      vertex 4.2778 7.07579 -9
      vertex 4.2778 7.07579 0
    endloop
  endfacet
  facet normal 0.980784 0.195098 0
    outer loop
      vertex 4.2778 7.07579 -9
      vertex 4.36074 6.65884 0
      vertex 4.36074 6.65884 -9
    endloop
  endfacet
  facet normal -0.195008 -0.980802 0
    outer loop
      vertex 7.92421 10.7222 -9
      vertex 8.34116 10.6393 0
      vertex 7.92421 10.7222 0
    endloop
  endfacet
  facet normal -0.195008 -0.980802 -0
    outer loop
      vertex 8.34116 10.6393 0
      vertex 7.92421 10.7222 -9
      vertex 8.34116 10.6393 -9
    endloop
  endfacet
  facet normal 0.99786 0.0653933 0
    outer loop
      vertex 4.2778 7.07579 0
      vertex 4.25 7.5 -9
      vertex 4.25 7.5 0
    endloop
  endfacet
  facet normal 0.99786 0.0653933 0
    outer loop
      vertex 4.25 7.5 -9
      vertex 4.2778 7.07579 0
      vertex 4.2778 7.07579 -9
    endloop
  endfacet
  facet normal -0.321438 0.946931 0
    outer loop
      vertex 8.74372 4.49739 -9
      vertex 8.34116 4.36074 0
      vertex 8.74372 4.49739 0
    endloop
  endfacet
  facet normal -0.321438 0.946931 0
    outer loop
      vertex 8.34116 4.36074 0
      vertex 8.74372 4.49739 -9
      vertex 8.34116 4.36074 -9
    endloop
  endfacet
  facet normal -0.980802 0.195008 0
    outer loop
      vertex 10.6393 6.65884 -9
      vertex 10.7222 7.07579 0
      vertex 10.7222 7.07579 -9
    endloop
  endfacet
  facet normal -0.980802 0.195008 0
    outer loop
      vertex 10.7222 7.07579 0
      vertex 10.6393 6.65884 -9
      vertex 10.6393 6.65884 0
    endloop
  endfacet
  facet normal -0.896897 0.442239 0
    outer loop
      vertex 10.3146 5.875 -9
      vertex 10.5026 6.25628 0
      vertex 10.5026 6.25628 -9
    endloop
  endfacet
  facet normal -0.896897 0.442239 0
    outer loop
      vertex 10.5026 6.25628 0
      vertex 10.3146 5.875 -9
      vertex 10.3146 5.875 0
    endloop
  endfacet
  facet normal 0.946931 0.321438 0
    outer loop
      vertex 4.49739 6.25628 0
      vertex 4.36074 6.65884 -9
      vertex 4.36074 6.65884 0
    endloop
  endfacet
  facet normal 0.946931 0.321438 0
    outer loop
      vertex 4.36074 6.65884 -9
      vertex 4.49739 6.25628 0
      vertex 4.49739 6.25628 -9
    endloop
  endfacet
  facet normal -0.99786 0.0653933 0
    outer loop
      vertex 10.7222 7.07579 -9
      vertex 10.75 7.5 0
      vertex 10.75 7.5 -9
    endloop
  endfacet
  facet normal -0.99786 0.0653933 0
    outer loop
      vertex 10.75 7.5 0
      vertex 10.7222 7.07579 -9
      vertex 10.7222 7.07579 0
    endloop
  endfacet
endsolid OpenSCAD_Model
