solid OpenSCAD_Model
  facet normal 0.321457 -0.946924 0
    outer loop
      vertex 9.79909 1.66537 -6
      vertex 10.4184 1.87561 0
      vertex 9.79909 1.66537 0
    endloop
  endfacet
  facet normal 0.321457 -0.946924 0
    outer loop
      vertex 10.4184 1.87561 0
      vertex 9.79909 1.66537 -6
      vertex 10.4184 1.87561 -6
    endloop
  endfacet
  facet normal -0.195096 0.980784 0
    outer loop
      vertex 5.84238 13.4622 -6
      vertex 5.20091 13.3346 0
      vertex 5.84238 13.4622 0
    endloop
  endfacet
  facet normal -0.195096 0.980784 0
    outer loop
      vertex 5.20091 13.3346 0
      vertex 5.84238 13.4622 -6
      vertex 5.20091 13.3346 -6
    endloop
  endfacet
  facet normal 0.195081 -0.980787 0
    outer loop
      vertex 9.15762 1.53778 -6
      vertex 9.79909 1.66537 0
      vertex 9.15762 1.53778 0
    endloop
  endfacet
  facet normal 0.195081 -0.980787 0
    outer loop
      vertex 9.79909 1.66537 0
      vertex 9.15762 1.53778 -6
      vertex 9.79909 1.66537 -6
    endloop
  endfacet
  facet normal 0.946943 0.321402 0
    outer loop
      vertex 13.3346 9.79909 0
      vertex 13.1244 10.4184 -6
      vertex 13.1244 10.4184 0
    endloop
  endfacet
  facet normal 0.946943 0.321402 0
    outer loop
      vertex 13.1244 10.4184 -6
      vertex 13.3346 9.79909 0
      vertex 13.3346 9.79909 -6
    endloop
  endfacet
  facet normal -0.442327 0.896854 0
    outer loop
      vertex 4.58159 13.1244 -6
      vertex 3.99501 12.8351 0
      vertex 4.58159 13.1244 0
    endloop
  endfacet
  facet normal -0.442327 0.896854 0
    outer loop
      vertex 3.99501 12.8351 0
      vertex 4.58159 13.1244 -6
      vertex 3.99501 12.8351 -6
    endloop
  endfacet
  facet normal -0.896872 0.44229 0
    outer loop
      vertex 1.87561 10.4184 -6
      vertex 2.16489 11.005 0
      vertex 2.16489 11.005 -6
    endloop
  endfacet
  facet normal -0.896872 0.44229 0
    outer loop
      vertex 2.16489 11.005 0
      vertex 1.87561 10.4184 -6
      vertex 1.87561 10.4184 0
    endloop
  endfacet
  facet normal 0.442314 0.89686 -0
    outer loop
      vertex 11.005 12.8351 -6
      vertex 10.4184 13.1244 0
      vertex 11.005 12.8351 0
    endloop
  endfacet
  facet normal 0.442314 0.89686 0
    outer loop
      vertex 10.4184 13.1244 0
      vertex 11.005 12.8351 -6
      vertex 10.4184 13.1244 -6
    endloop
  endfacet
  facet normal 0.831509 0.555512 0
    outer loop
      vertex 12.8351 11.005 0
      vertex 12.4718 11.5488 -6
      vertex 12.4718 11.5488 0
    endloop
  endfacet
  facet normal 0.831509 0.555512 0
    outer loop
      vertex 12.4718 11.5488 -6
      vertex 12.8351 11.005 0
      vertex 12.8351 11.005 -6
    endloop
  endfacet
  facet normal 0.896854 -0.442327 0
    outer loop
      vertex 12.8351 3.99501 0
      vertex 13.1244 4.58159 -6
      vertex 13.1244 4.58159 0
    endloop
  endfacet
  facet normal 0.896854 -0.442327 0
    outer loop
      vertex 13.1244 4.58159 -6
      vertex 12.8351 3.99501 0
      vertex 12.8351 3.99501 -6
    endloop
  endfacet
  facet normal -0.555504 0.831514 0
    outer loop
      vertex 3.99501 12.8351 -6
      vertex 3.4512 12.4718 0
      vertex 3.99501 12.8351 0
    endloop
  endfacet
  facet normal -0.555504 0.831514 0
    outer loop
      vertex 3.4512 12.4718 0
      vertex 3.99501 12.8351 -6
      vertex 3.4512 12.4718 -6
    endloop
  endfacet
  facet normal -0.751824 0.659364 0
    outer loop
      vertex 2.52824 11.5488 -6
      vertex 2.95947 12.0405 0
      vertex 2.95947 12.0405 -6
    endloop
  endfacet
  facet normal -0.751824 0.659364 0
    outer loop
      vertex 2.95947 12.0405 0
      vertex 2.52824 11.5488 -6
      vertex 2.52824 11.5488 0
    endloop
  endfacet
  facet normal -0.997859 0.0653946 0
    outer loop
      vertex 1.49501 8.50499 -6
      vertex 1.53778 9.15762 0
      vertex 1.53778 9.15762 -6
    endloop
  endfacet
  facet normal -0.997859 0.0653946 0
    outer loop
      vertex 1.53778 9.15762 0
      vertex 1.49501 8.50499 -6
      vertex 1.49501 8.50499 0
    endloop
  endfacet
  facet normal -1 0 0
    outer loop
      vertex 1.49501 6.49501 -6
      vertex 1.49501 8.50499 0
      vertex 1.49501 8.50499 -6
    endloop
  endfacet
  facet normal -1 -0 0
    outer loop
      vertex 1.49501 8.50499 0
      vertex 1.49501 6.49501 -6
      vertex 1.49501 6.49501 0
    endloop
  endfacet
  facet normal -0.980787 -0.195081 0
    outer loop
      vertex 1.66537 5.20091 -6
      vertex 1.53778 5.84238 0
      vertex 1.53778 5.84238 -6
    endloop
  endfacet
  facet normal -0.980787 -0.195081 0
    outer loop
      vertex 1.53778 5.84238 0
      vertex 1.66537 5.20091 -6
      vertex 1.66537 5.20091 0
    endloop
  endfacet
  facet normal -0.946924 0.321457 0
    outer loop
      vertex 1.66537 9.79909 -6
      vertex 1.87561 10.4184 0
      vertex 1.87561 10.4184 -6
    endloop
  endfacet
  facet normal -0.946924 0.321457 0
    outer loop
      vertex 1.87561 10.4184 0
      vertex 1.66537 9.79909 -6
      vertex 1.66537 9.79909 0
    endloop
  endfacet
  facet normal -0.831478 -0.555557 0
    outer loop
      vertex 2.52824 3.4512 -6
      vertex 2.16489 3.99501 0
      vertex 2.16489 3.99501 -6
    endloop
  endfacet
  facet normal -0.831478 -0.555557 0
    outer loop
      vertex 2.16489 3.99501 0
      vertex 2.52824 3.4512 -6
      vertex 2.52824 3.4512 0
    endloop
  endfacet
  facet normal -0.442302 -0.896866 0
    outer loop
      vertex 3.99501 2.16489 -6
      vertex 4.58159 1.87561 0
      vertex 3.99501 2.16489 0
    endloop
  endfacet
  facet normal -0.442302 -0.896866 -0
    outer loop
      vertex 4.58159 1.87561 0
      vertex 3.99501 2.16489 -6
      vertex 4.58159 1.87561 -6
    endloop
  endfacet
  facet normal -0.659341 -0.751844 0
    outer loop
      vertex 2.95947 2.95947 -6
      vertex 3.4512 2.52824 0
      vertex 2.95947 2.95947 0
    endloop
  endfacet
  facet normal -0.659341 -0.751844 -0
    outer loop
      vertex 3.4512 2.52824 0
      vertex 2.95947 2.95947 -6
      vertex 3.4512 2.52824 -6
    endloop
  endfacet
  facet normal -0.321452 -0.946926 0
    outer loop
      vertex 4.58159 1.87561 -6
      vertex 5.20091 1.66537 0
      vertex 4.58159 1.87561 0
    endloop
  endfacet
  facet normal -0.321452 -0.946926 -0
    outer loop
      vertex 5.20091 1.66537 0
      vertex 4.58159 1.87561 -6
      vertex 5.20091 1.66537 -6
    endloop
  endfacet
  facet normal 0.751771 0.659424 0
    outer loop
      vertex 12.4718 11.5488 0
      vertex 12.0405 12.0405 -6
      vertex 12.0405 12.0405 0
    endloop
  endfacet
  facet normal 0.751771 0.659424 0
    outer loop
      vertex 12.0405 12.0405 -6
      vertex 12.4718 11.5488 0
      vertex 12.4718 11.5488 -6
    endloop
  endfacet
  facet normal 0.659424 0.751771 -0
    outer loop
      vertex 12.0405 12.0405 -6
      vertex 11.5488 12.4718 0
      vertex 12.0405 12.0405 0
    endloop
  endfacet
  facet normal 0.659424 0.751771 0
    outer loop
      vertex 11.5488 12.4718 0
      vertex 12.0405 12.0405 -6
      vertex 11.5488 12.4718 -6
    endloop
  endfacet
  facet normal 0 1 -0
    outer loop
      vertex 8.50499 13.505 -6
      vertex 6.49501 13.505 0
      vertex 8.50499 13.505 0
    endloop
  endfacet
  facet normal 0 1 0
    outer loop
      vertex 6.49501 13.505 0
      vertex 8.50499 13.505 -6
      vertex 6.49501 13.505 -6
    endloop
  endfacet
  facet normal 0.195096 0.980784 -0
    outer loop
      vertex 9.79909 13.3346 -6
      vertex 9.15762 13.4622 0
      vertex 9.79909 13.3346 0
    endloop
  endfacet
  facet normal 0.195096 0.980784 0
    outer loop
      vertex 9.15762 13.4622 0
      vertex 9.79909 13.3346 -6
      vertex 9.15762 13.4622 -6
    endloop
  endfacet
  facet normal 1 -0 0
    outer loop
      vertex 13.505 6.49501 0
      vertex 13.505 8.50499 -6
      vertex 13.505 8.50499 0
    endloop
  endfacet
  facet normal 1 0 0
    outer loop
      vertex 13.505 8.50499 -6
      vertex 13.505 6.49501 0
      vertex 13.505 6.49501 -6
    endloop
  endfacet
  facet normal 0.980784 0.195096 0
    outer loop
      vertex 13.4622 9.15762 0
      vertex 13.3346 9.79909 -6
      vertex 13.3346 9.79909 0
    endloop
  endfacet
  facet normal 0.980784 0.195096 0
    outer loop
      vertex 13.3346 9.79909 -6
      vertex 13.4622 9.15762 0
      vertex 13.4622 9.15762 -6
    endloop
  endfacet
  facet normal 0.555564 -0.831474 0
    outer loop
      vertex 11.005 2.16489 -6
      vertex 11.5488 2.52824 0
      vertex 11.005 2.16489 0
    endloop
  endfacet
  facet normal 0.555564 -0.831474 0
    outer loop
      vertex 11.5488 2.52824 0
      vertex 11.005 2.16489 -6
      vertex 11.5488 2.52824 -6
    endloop
  endfacet
  facet normal -0.659401 0.751791 0
    outer loop
      vertex 3.4512 12.4718 -6
      vertex 2.95947 12.0405 0
      vertex 3.4512 12.4718 0
    endloop
  endfacet
  facet normal -0.659401 0.751791 0
    outer loop
      vertex 2.95947 12.0405 0
      vertex 3.4512 12.4718 -6
      vertex 2.95947 12.0405 -6
    endloop
  endfacet
  facet normal 0 0 1
    outer loop
      vertex 10.3978 8.27646 0
      vertex 13.505 8.50499 0
      vertex 13.4622 9.15762 0
    endloop
  endfacet
  facet normal 0 0 1
    outer loop
      vertex 13.505 8.50499 0
      vertex 10.5 7.5 0
      vertex 13.505 6.49501 0
    endloop
  endfacet
  facet normal 0 0 1
    outer loop
      vertex 10.2716 8.64805 0
      vertex 13.4622 9.15762 0
      vertex 13.3346 9.79909 0
    endloop
  endfacet
  facet normal -0 0 1
    outer loop
      vertex 10.4743 7.10842 0
      vertex 13.505 6.49501 0
      vertex 10.5 7.5 0
    endloop
  endfacet
  facet normal 0 0 1
    outer loop
      vertex 10.0981 9 0
      vertex 13.3346 9.79909 0
      vertex 13.1244 10.4184 0
    endloop
  endfacet
  facet normal -0 0 1
    outer loop
      vertex 10.3978 6.72354 0
      vertex 13.505 6.49501 0
      vertex 10.4743 7.10842 0
    endloop
  endfacet
  facet normal 0 0 1
    outer loop
      vertex 10.0981 9 0
      vertex 13.1244 10.4184 0
      vertex 12.8351 11.005 0
    endloop
  endfacet
  facet normal 0 0 1
    outer loop
      vertex 13.505 6.49501 0
      vertex 10.3978 6.72354 0
      vertex 13.4622 5.84238 0
    endloop
  endfacet
  facet normal 0 0 1
    outer loop
      vertex 9.88006 9.32628 0
      vertex 12.8351 11.005 0
      vertex 12.4718 11.5488 0
    endloop
  endfacet
  facet normal -0 0 1
    outer loop
      vertex 10.2716 6.35195 0
      vertex 13.4622 5.84238 0
      vertex 10.3978 6.72354 0
    endloop
  endfacet
  facet normal 0 0 1
    outer loop
      vertex 9.62132 9.62132 0
      vertex 12.4718 11.5488 0
      vertex 12.0405 12.0405 0
    endloop
  endfacet
  facet normal 0 0 1
    outer loop
      vertex 13.4622 5.84238 0
      vertex 10.2716 6.35195 0
      vertex 13.3346 5.20091 0
    endloop
  endfacet
  facet normal 0 0 1
    outer loop
      vertex 9.62132 9.62132 0
      vertex 12.0405 12.0405 0
      vertex 11.5488 12.4718 0
    endloop
  endfacet
  facet normal -0 0 1
    outer loop
      vertex 10.0981 6 0
      vertex 13.3346 5.20091 0
      vertex 10.2716 6.35195 0
    endloop
  endfacet
  facet normal 0 0 1
    outer loop
      vertex 9.32628 9.88006 0
      vertex 11.5488 12.4718 0
      vertex 11.005 12.8351 0
    endloop
  endfacet
  facet normal 0 0 1
    outer loop
      vertex 13.3346 5.20091 0
      vertex 10.0981 6 0
      vertex 13.1244 4.58159 0
    endloop
  endfacet
  facet normal 0 0 1
    outer loop
      vertex 13.1244 4.58159 0
      vertex 10.0981 6 0
      vertex 12.8351 3.99501 0
    endloop
  endfacet
  facet normal 0 0 1
    outer loop
      vertex 13.505 8.50499 0
      vertex 10.4743 7.89158 0
      vertex 10.5 7.5 0
    endloop
  endfacet
  facet normal 0 0 1
    outer loop
      vertex 9 10.0981 0
      vertex 11.005 12.8351 0
      vertex 10.4184 13.1244 0
    endloop
  endfacet
  facet normal 0 0 1
    outer loop
      vertex 13.505 8.50499 0
      vertex 10.3978 8.27646 0
      vertex 10.4743 7.89158 0
    endloop
  endfacet
  facet normal 0 0 1
    outer loop
      vertex 13.4622 9.15762 0
      vertex 10.2716 8.64805 0
      vertex 10.3978 8.27646 0
    endloop
  endfacet
  facet normal 0 0 1
    outer loop
      vertex 13.3346 9.79909 0
      vertex 10.0981 9 0
      vertex 10.2716 8.64805 0
    endloop
  endfacet
  facet normal 0 0 1
    outer loop
      vertex 12.8351 11.005 0
      vertex 9.88006 9.32628 0
      vertex 10.0981 9 0
    endloop
  endfacet
  facet normal 0 0 1
    outer loop
      vertex 9 10.0981 0
      vertex 10.4184 13.1244 0
      vertex 9.79909 13.3346 0
    endloop
  endfacet
  facet normal 0 0 1
    outer loop
      vertex 12.4718 11.5488 0
      vertex 9.62132 9.62132 0
      vertex 9.88006 9.32628 0
    endloop
  endfacet
  facet normal 0 0 1
    outer loop
      vertex 11.5488 12.4718 0
      vertex 9.32628 9.88006 0
      vertex 9.62132 9.62132 0
    endloop
  endfacet
  facet normal 0 0 1
    outer loop
      vertex 8.64805 10.2716 0
      vertex 9.79909 13.3346 0
      vertex 9.15762 13.4622 0
    endloop
  endfacet
  facet normal 0 0 1
    outer loop
      vertex 11.005 12.8351 0
      vertex 9 10.0981 0
      vertex 9.32628 9.88006 0
    endloop
  endfacet
  facet normal 0 0 1
    outer loop
      vertex 9.79909 13.3346 0
      vertex 8.64805 10.2716 0
      vertex 9 10.0981 0
    endloop
  endfacet
  facet normal 0 0 1
    outer loop
      vertex 8.27646 10.3978 0
      vertex 9.15762 13.4622 0
      vertex 8.50499 13.505 0
    endloop
  endfacet
  facet normal 0 0 1
    outer loop
      vertex 9.15762 13.4622 0
      vertex 8.27646 10.3978 0
      vertex 8.64805 10.2716 0
    endloop
  endfacet
  facet normal 0 0 1
    outer loop
      vertex 8.50499 13.505 0
      vertex 7.89158 10.4743 0
      vertex 8.27646 10.3978 0
    endloop
  endfacet
  facet normal 0 0 1
    outer loop
      vertex 8.50499 13.505 0
      vertex 7.5 10.5 0
      vertex 7.89158 10.4743 0
    endloop
  endfacet
  facet normal -0 0 1
    outer loop
      vertex 6.49501 13.505 0
      vertex 7.5 10.5 0
      vertex 8.50499 13.505 0
    endloop
  endfacet
  facet normal 0 0 1
    outer loop
      vertex 7.5 10.5 0
      vertex 6.49501 13.505 0
      vertex 7.10842 10.4743 0
    endloop
  endfacet
  facet normal 0 0 1
    outer loop
      vertex 7.10842 10.4743 0
      vertex 6.49501 13.505 0
      vertex 6.72354 10.3978 0
    endloop
  endfacet
  facet normal -0 0 1
    outer loop
      vertex 5.84238 13.4622 0
      vertex 6.72354 10.3978 0
      vertex 6.49501 13.505 0
    endloop
  endfacet
  facet normal 0 0 1
    outer loop
      vertex 6.72354 10.3978 0
      vertex 5.84238 13.4622 0
      vertex 6.35195 10.2716 0
    endloop
  endfacet
  facet normal -0 0 1
    outer loop
      vertex 5.20091 13.3346 0
      vertex 6.35195 10.2716 0
      vertex 5.84238 13.4622 0
    endloop
  endfacet
  facet normal 0 0 1
    outer loop
      vertex 6.35195 10.2716 0
      vertex 5.20091 13.3346 0
      vertex 6 10.0981 0
    endloop
  endfacet
  facet normal -0 0 1
    outer loop
      vertex 4.58159 13.1244 0
      vertex 6 10.0981 0
      vertex 5.20091 13.3346 0
    endloop
  endfacet
  facet normal -0 0 1
    outer loop
      vertex 3.99501 12.8351 0
      vertex 6 10.0981 0
      vertex 4.58159 13.1244 0
    endloop
  endfacet
  facet normal 0 0 1
    outer loop
      vertex 6 10.0981 0
      vertex 3.99501 12.8351 0
      vertex 5.67372 9.88006 0
    endloop
  endfacet
  facet normal -0 0 1
    outer loop
      vertex 3.4512 12.4718 0
      vertex 5.67372 9.88006 0
      vertex 3.99501 12.8351 0
    endloop
  endfacet
  facet normal 0 0 1
    outer loop
      vertex 5.67372 9.88006 0
      vertex 3.4512 12.4718 0
      vertex 5.37868 9.62132 0
    endloop
  endfacet
  facet normal -0 0 1
    outer loop
      vertex 2.95947 12.0405 0
      vertex 5.37868 9.62132 0
      vertex 3.4512 12.4718 0
    endloop
  endfacet
  facet normal -0 0 1
    outer loop
      vertex 2.52824 11.5488 0
      vertex 5.37868 9.62132 0
      vertex 2.95947 12.0405 0
    endloop
  endfacet
  facet normal 0 0 1
    outer loop
      vertex 5.37868 9.62132 0
      vertex 2.52824 11.5488 0
      vertex 5.11994 9.32628 0
    endloop
  endfacet
  facet normal -0 0 1
    outer loop
      vertex 2.16489 11.005 0
      vertex 5.11994 9.32628 0
      vertex 2.52824 11.5488 0
    endloop
  endfacet
  facet normal 0 0 1
    outer loop
      vertex 5.11994 9.32628 0
      vertex 2.16489 11.005 0
      vertex 4.90192 9 0
    endloop
  endfacet
  facet normal -0 0 1
    outer loop
      vertex 9.88006 5.67372 0
      vertex 12.8351 3.99501 0
      vertex 10.0981 6 0
    endloop
  endfacet
  facet normal 0 0 1
    outer loop
      vertex 12.8351 3.99501 0
      vertex 9.88006 5.67372 0
      vertex 12.4718 3.4512 0
    endloop
  endfacet
  facet normal -0 0 1
    outer loop
      vertex 9.62132 5.37868 0
      vertex 12.4718 3.4512 0
      vertex 9.88006 5.67372 0
    endloop
  endfacet
  facet normal 0 0 1
    outer loop
      vertex 12.4718 3.4512 0
      vertex 9.62132 5.37868 0
      vertex 12.0405 2.95947 0
    endloop
  endfacet
  facet normal 0 0 1
    outer loop
      vertex 12.0405 2.95947 0
      vertex 9.62132 5.37868 0
      vertex 11.5488 2.52824 0
    endloop
  endfacet
  facet normal -0 0 1
    outer loop
      vertex 9.32628 5.11994 0
      vertex 11.5488 2.52824 0
      vertex 9.62132 5.37868 0
    endloop
  endfacet
  facet normal 0 0 1
    outer loop
      vertex 11.5488 2.52824 0
      vertex 9.32628 5.11994 0
      vertex 11.005 2.16489 0
    endloop
  endfacet
  facet normal -0 0 1
    outer loop
      vertex 9 4.90192 0
      vertex 11.005 2.16489 0
      vertex 9.32628 5.11994 0
    endloop
  endfacet
  facet normal 0 0 1
    outer loop
      vertex 11.005 2.16489 0
      vertex 9 4.90192 0
      vertex 10.4184 1.87561 0
    endloop
  endfacet
  facet normal 0 0 1
    outer loop
      vertex 10.4184 1.87561 0
      vertex 9 4.90192 0
      vertex 9.79909 1.66537 0
    endloop
  endfacet
  facet normal -0 0 1
    outer loop
      vertex 8.64805 4.72836 0
      vertex 9.79909 1.66537 0
      vertex 9 4.90192 0
    endloop
  endfacet
  facet normal 0 0 1
    outer loop
      vertex 9.79909 1.66537 0
      vertex 8.64805 4.72836 0
      vertex 9.15762 1.53778 0
    endloop
  endfacet
  facet normal -0 0 1
    outer loop
      vertex 8.27646 4.60222 0
      vertex 9.15762 1.53778 0
      vertex 8.64805 4.72836 0
    endloop
  endfacet
  facet normal 0 0 1
    outer loop
      vertex 9.15762 1.53778 0
      vertex 8.27646 4.60222 0
      vertex 8.50499 1.49501 0
    endloop
  endfacet
  facet normal -0 0 1
    outer loop
      vertex 7.89158 4.52567 0
      vertex 8.50499 1.49501 0
      vertex 8.27646 4.60222 0
    endloop
  endfacet
  facet normal -0 0 1
    outer loop
      vertex 7.5 4.5 0
      vertex 8.50499 1.49501 0
      vertex 7.89158 4.52567 0
    endloop
  endfacet
  facet normal 0 0 1
    outer loop
      vertex 6.49501 1.49501 0
      vertex 7.5 4.5 0
      vertex 7.10842 4.52567 0
    endloop
  endfacet
  facet normal 0 0 1
    outer loop
      vertex 6.49501 1.49501 0
      vertex 7.10842 4.52567 0
      vertex 6.72354 4.60222 0
    endloop
  endfacet
  facet normal 0 0 1
    outer loop
      vertex 7.5 4.5 0
      vertex 6.49501 1.49501 0
      vertex 8.50499 1.49501 0
    endloop
  endfacet
  facet normal 0 0 1
    outer loop
      vertex 5.84238 1.53778 0
      vertex 6.72354 4.60222 0
      vertex 6.35195 4.72836 0
    endloop
  endfacet
  facet normal 0 0 1
    outer loop
      vertex 5.20091 1.66537 0
      vertex 6.35195 4.72836 0
      vertex 6 4.90192 0
    endloop
  endfacet
  facet normal 0 0 1
    outer loop
      vertex 6.72354 4.60222 0
      vertex 5.84238 1.53778 0
      vertex 6.49501 1.49501 0
    endloop
  endfacet
  facet normal 0 0 1
    outer loop
      vertex 3.99501 2.16489 0
      vertex 6 4.90192 0
      vertex 5.67372 5.11994 0
    endloop
  endfacet
  facet normal 0 0 1
    outer loop
      vertex 3.4512 2.52824 0
      vertex 5.67372 5.11994 0
      vertex 5.37868 5.37868 0
    endloop
  endfacet
  facet normal 0 0 1
    outer loop
      vertex 6.35195 4.72836 0
      vertex 5.20091 1.66537 0
      vertex 5.84238 1.53778 0
    endloop
  endfacet
  facet normal 0 0 1
    outer loop
      vertex 2.52824 3.4512 0
      vertex 5.37868 5.37868 0
      vertex 5.11994 5.67372 0
    endloop
  endfacet
  facet normal 0 0 1
    outer loop
      vertex 2.16489 3.99501 0
      vertex 5.11994 5.67372 0
      vertex 4.90192 6 0
    endloop
  endfacet
  facet normal 0 0 1
    outer loop
      vertex 1.66537 5.20091 0
      vertex 4.90192 6 0
      vertex 4.72836 6.35195 0
    endloop
  endfacet
  facet normal 0 0 1
    outer loop
      vertex 1.53778 5.84238 0
      vertex 4.72836 6.35195 0
      vertex 4.60222 6.72354 0
    endloop
  endfacet
  facet normal 0 0 1
    outer loop
      vertex 6 4.90192 0
      vertex 4.58159 1.87561 0
      vertex 5.20091 1.66537 0
    endloop
  endfacet
  facet normal 0 0 1
    outer loop
      vertex 1.49501 6.49501 0
      vertex 4.60222 6.72354 0
      vertex 4.52567 7.10842 0
    endloop
  endfacet
  facet normal 0 0 1
    outer loop
      vertex 1.49501 6.49501 0
      vertex 4.52567 7.10842 0
      vertex 4.5 7.5 0
    endloop
  endfacet
  facet normal -0 0 1
    outer loop
      vertex 1.87561 10.4184 0
      vertex 4.90192 9 0
      vertex 2.16489 11.005 0
    endloop
  endfacet
  facet normal 0 0 1
    outer loop
      vertex 1.49501 6.49501 0
      vertex 4.5 7.5 0
      vertex 1.49501 8.50499 0
    endloop
  endfacet
  facet normal -0 0 1
    outer loop
      vertex 1.66537 9.79909 0
      vertex 4.90192 9 0
      vertex 1.87561 10.4184 0
    endloop
  endfacet
  facet normal 0 0 1
    outer loop
      vertex 4.60222 6.72354 0
      vertex 1.49501 6.49501 0
      vertex 1.53778 5.84238 0
    endloop
  endfacet
  facet normal 0 0 1
    outer loop
      vertex 4.90192 9 0
      vertex 1.66537 9.79909 0
      vertex 4.72836 8.64805 0
    endloop
  endfacet
  facet normal 0 0 1
    outer loop
      vertex 6 4.90192 0
      vertex 3.99501 2.16489 0
      vertex 4.58159 1.87561 0
    endloop
  endfacet
  facet normal -0 0 1
    outer loop
      vertex 1.53778 9.15762 0
      vertex 4.72836 8.64805 0
      vertex 1.66537 9.79909 0
    endloop
  endfacet
  facet normal 0 0 1
    outer loop
      vertex 5.67372 5.11994 0
      vertex 3.4512 2.52824 0
      vertex 3.99501 2.16489 0
    endloop
  endfacet
  facet normal 0 0 1
    outer loop
      vertex 4.72836 8.64805 0
      vertex 1.53778 9.15762 0
      vertex 4.60222 8.27646 0
    endloop
  endfacet
  facet normal 0 0 1
    outer loop
      vertex 5.37868 5.37868 0
      vertex 2.95947 2.95947 0
      vertex 3.4512 2.52824 0
    endloop
  endfacet
  facet normal -0 0 1
    outer loop
      vertex 1.49501 8.50499 0
      vertex 4.60222 8.27646 0
      vertex 1.53778 9.15762 0
    endloop
  endfacet
  facet normal 0 0 1
    outer loop
      vertex 5.37868 5.37868 0
      vertex 2.52824 3.4512 0
      vertex 2.95947 2.95947 0
    endloop
  endfacet
  facet normal 0 0 1
    outer loop
      vertex 4.60222 8.27646 0
      vertex 1.49501 8.50499 0
      vertex 4.52567 7.89158 0
    endloop
  endfacet
  facet normal 0 0 1
    outer loop
      vertex 5.11994 5.67372 0
      vertex 2.16489 3.99501 0
      vertex 2.52824 3.4512 0
    endloop
  endfacet
  facet normal 0 0 1
    outer loop
      vertex 4.52567 7.89158 0
      vertex 1.49501 8.50499 0
      vertex 4.5 7.5 0
    endloop
  endfacet
  facet normal 0 0 1
    outer loop
      vertex 4.90192 6 0
      vertex 1.87561 4.58159 0
      vertex 2.16489 3.99501 0
    endloop
  endfacet
  facet normal 0 0 1
    outer loop
      vertex 4.90192 6 0
      vertex 1.66537 5.20091 0
      vertex 1.87561 4.58159 0
    endloop
  endfacet
  facet normal 0 0 1
    outer loop
      vertex 4.72836 6.35195 0
      vertex 1.53778 5.84238 0
      vertex 1.66537 5.20091 0
    endloop
  endfacet
  facet normal 0 0 -1
    outer loop
      vertex 10.3978 6.72354 -6
      vertex 13.505 6.49501 -6
      vertex 13.4622 5.84238 -6
    endloop
  endfacet
  facet normal 0 0 -1
    outer loop
      vertex 13.505 6.49501 -6
      vertex 10.5 7.5 -6
      vertex 13.505 8.50499 -6
    endloop
  endfacet
  facet normal 0 0 -1
    outer loop
      vertex 10.2716 6.35195 -6
      vertex 13.4622 5.84238 -6
      vertex 13.3346 5.20091 -6
    endloop
  endfacet
  facet normal 0 0 -1
    outer loop
      vertex 10.4743 7.89158 -6
      vertex 13.505 8.50499 -6
      vertex 10.5 7.5 -6
    endloop
  endfacet
  facet normal 0 0 -1
    outer loop
      vertex 10.0981 6 -6
      vertex 13.3346 5.20091 -6
      vertex 13.1244 4.58159 -6
    endloop
  endfacet
  facet normal 0 0 -1
    outer loop
      vertex 10.3978 8.27646 -6
      vertex 13.505 8.50499 -6
      vertex 10.4743 7.89158 -6
    endloop
  endfacet
  facet normal 0 0 -1
    outer loop
      vertex 10.0981 6 -6
      vertex 13.1244 4.58159 -6
      vertex 12.8351 3.99501 -6
    endloop
  endfacet
  facet normal -0 0 -1
    outer loop
      vertex 13.505 8.50499 -6
      vertex 10.3978 8.27646 -6
      vertex 13.4622 9.15762 -6
    endloop
  endfacet
  facet normal 0 0 -1
    outer loop
      vertex 9.88006 5.67372 -6
      vertex 12.8351 3.99501 -6
      vertex 12.4718 3.4512 -6
    endloop
  endfacet
  facet normal 0 0 -1
    outer loop
      vertex 10.2716 8.64805 -6
      vertex 13.4622 9.15762 -6
      vertex 10.3978 8.27646 -6
    endloop
  endfacet
  facet normal 0 0 -1
    outer loop
      vertex 9.62132 5.37868 -6
      vertex 12.4718 3.4512 -6
      vertex 12.0405 2.95947 -6
    endloop
  endfacet
  facet normal -0 0 -1
    outer loop
      vertex 13.4622 9.15762 -6
      vertex 10.2716 8.64805 -6
      vertex 13.3346 9.79909 -6
    endloop
  endfacet
  facet normal 0 0 -1
    outer loop
      vertex 9.62132 5.37868 -6
      vertex 12.0405 2.95947 -6
      vertex 11.5488 2.52824 -6
    endloop
  endfacet
  facet normal 0 0 -1
    outer loop
      vertex 10.0981 9 -6
      vertex 13.3346 9.79909 -6
      vertex 10.2716 8.64805 -6
    endloop
  endfacet
  facet normal 0 0 -1
    outer loop
      vertex 9.32628 5.11994 -6
      vertex 11.5488 2.52824 -6
      vertex 11.005 2.16489 -6
    endloop
  endfacet
  facet normal -0 0 -1
    outer loop
      vertex 13.3346 9.79909 -6
      vertex 10.0981 9 -6
      vertex 13.1244 10.4184 -6
    endloop
  endfacet
  facet normal -0 0 -1
    outer loop
      vertex 13.1244 10.4184 -6
      vertex 10.0981 9 -6
      vertex 12.8351 11.005 -6
    endloop
  endfacet
  facet normal 0 0 -1
    outer loop
      vertex 13.505 6.49501 -6
      vertex 10.4743 7.10842 -6
      vertex 10.5 7.5 -6
    endloop
  endfacet
  facet normal 0 0 -1
    outer loop
      vertex 9 4.90192 -6
      vertex 11.005 2.16489 -6
      vertex 10.4184 1.87561 -6
    endloop
  endfacet
  facet normal 0 0 -1
    outer loop
      vertex 13.505 6.49501 -6
      vertex 10.3978 6.72354 -6
      vertex 10.4743 7.10842 -6
    endloop
  endfacet
  facet normal 0 0 -1
    outer loop
      vertex 13.4622 5.84238 -6
      vertex 10.2716 6.35195 -6
      vertex 10.3978 6.72354 -6
    endloop
  endfacet
  facet normal 0 0 -1
    outer loop
      vertex 13.3346 5.20091 -6
      vertex 10.0981 6 -6
      vertex 10.2716 6.35195 -6
    endloop
  endfacet
  facet normal 0 0 -1
    outer loop
      vertex 12.8351 3.99501 -6
      vertex 9.88006 5.67372 -6
      vertex 10.0981 6 -6
    endloop
  endfacet
  facet normal 0 0 -1
    outer loop
      vertex 9 4.90192 -6
      vertex 10.4184 1.87561 -6
      vertex 9.79909 1.66537 -6
    endloop
  endfacet
  facet normal 0 0 -1
    outer loop
      vertex 12.4718 3.4512 -6
      vertex 9.62132 5.37868 -6
      vertex 9.88006 5.67372 -6
    endloop
  endfacet
  facet normal 0 0 -1
    outer loop
      vertex 11.5488 2.52824 -6
      vertex 9.32628 5.11994 -6
      vertex 9.62132 5.37868 -6
    endloop
  endfacet
  facet normal 0 0 -1
    outer loop
      vertex 8.64805 4.72836 -6
      vertex 9.79909 1.66537 -6
      vertex 9.15762 1.53778 -6
    endloop
  endfacet
  facet normal 0 0 -1
    outer loop
      vertex 11.005 2.16489 -6
      vertex 9 4.90192 -6
      vertex 9.32628 5.11994 -6
    endloop
  endfacet
  facet normal 0 0 -1
    outer loop
      vertex 9.79909 1.66537 -6
      vertex 8.64805 4.72836 -6
      vertex 9 4.90192 -6
    endloop
  endfacet
  facet normal 0 0 -1
    outer loop
      vertex 8.27646 4.60222 -6
      vertex 9.15762 1.53778 -6
      vertex 8.50499 1.49501 -6
    endloop
  endfacet
  facet normal 0 0 -1
    outer loop
      vertex 9.15762 1.53778 -6
      vertex 8.27646 4.60222 -6
      vertex 8.64805 4.72836 -6
    endloop
  endfacet
  facet normal 0 0 -1
    outer loop
      vertex 8.50499 1.49501 -6
      vertex 7.89158 4.52567 -6
      vertex 8.27646 4.60222 -6
    endloop
  endfacet
  facet normal 0 0 -1
    outer loop
      vertex 8.50499 1.49501 -6
      vertex 7.5 4.5 -6
      vertex 7.89158 4.52567 -6
    endloop
  endfacet
  facet normal 0 0 -1
    outer loop
      vertex 6.49501 1.49501 -6
      vertex 7.5 4.5 -6
      vertex 8.50499 1.49501 -6
    endloop
  endfacet
  facet normal -0 0 -1
    outer loop
      vertex 7.5 4.5 -6
      vertex 6.49501 1.49501 -6
      vertex 7.10842 4.52567 -6
    endloop
  endfacet
  facet normal -0 0 -1
    outer loop
      vertex 7.10842 4.52567 -6
      vertex 6.49501 1.49501 -6
      vertex 6.72354 4.60222 -6
    endloop
  endfacet
  facet normal 0 0 -1
    outer loop
      vertex 5.84238 1.53778 -6
      vertex 6.72354 4.60222 -6
      vertex 6.49501 1.49501 -6
    endloop
  endfacet
  facet normal -0 0 -1
    outer loop
      vertex 6.72354 4.60222 -6
      vertex 5.84238 1.53778 -6
      vertex 6.35195 4.72836 -6
    endloop
  endfacet
  facet normal 0 0 -1
    outer loop
      vertex 5.20091 1.66537 -6
      vertex 6.35195 4.72836 -6
      vertex 5.84238 1.53778 -6
    endloop
  endfacet
  facet normal -0 0 -1
    outer loop
      vertex 6.35195 4.72836 -6
      vertex 5.20091 1.66537 -6
      vertex 6 4.90192 -6
    endloop
  endfacet
  facet normal 0 0 -1
    outer loop
      vertex 4.58159 1.87561 -6
      vertex 6 4.90192 -6
      vertex 5.20091 1.66537 -6
    endloop
  endfacet
  facet normal 0 0 -1
    outer loop
      vertex 3.99501 2.16489 -6
      vertex 6 4.90192 -6
      vertex 4.58159 1.87561 -6
    endloop
  endfacet
  facet normal -0 0 -1
    outer loop
      vertex 6 4.90192 -6
      vertex 3.99501 2.16489 -6
      vertex 5.67372 5.11994 -6
    endloop
  endfacet
  facet normal 0 0 -1
    outer loop
      vertex 3.4512 2.52824 -6
      vertex 5.67372 5.11994 -6
      vertex 3.99501 2.16489 -6
    endloop
  endfacet
  facet normal -0 0 -1
    outer loop
      vertex 5.67372 5.11994 -6
      vertex 3.4512 2.52824 -6
      vertex 5.37868 5.37868 -6
    endloop
  endfacet
  facet normal 0 0 -1
    outer loop
      vertex 2.95947 2.95947 -6
      vertex 5.37868 5.37868 -6
      vertex 3.4512 2.52824 -6
    endloop
  endfacet
  facet normal 0 0 -1
    outer loop
      vertex 2.52824 3.4512 -6
      vertex 5.37868 5.37868 -6
      vertex 2.95947 2.95947 -6
    endloop
  endfacet
  facet normal -0 0 -1
    outer loop
      vertex 5.37868 5.37868 -6
      vertex 2.52824 3.4512 -6
      vertex 5.11994 5.67372 -6
    endloop
  endfacet
  facet normal 0 0 -1
    outer loop
      vertex 2.16489 3.99501 -6
      vertex 5.11994 5.67372 -6
      vertex 2.52824 3.4512 -6
    endloop
  endfacet
  facet normal -0 0 -1
    outer loop
      vertex 5.11994 5.67372 -6
      vertex 2.16489 3.99501 -6
      vertex 4.90192 6 -6
    endloop
  endfacet
  facet normal 0 0 -1
    outer loop
      vertex 9.88006 9.32628 -6
      vertex 12.8351 11.005 -6
      vertex 10.0981 9 -6
    endloop
  endfacet
  facet normal -0 0 -1
    outer loop
      vertex 12.8351 11.005 -6
      vertex 9.88006 9.32628 -6
      vertex 12.4718 11.5488 -6
    endloop
  endfacet
  facet normal 0 0 -1
    outer loop
      vertex 9.62132 9.62132 -6
      vertex 12.4718 11.5488 -6
      vertex 9.88006 9.32628 -6
    endloop
  endfacet
  facet normal -0 0 -1
    outer loop
      vertex 12.4718 11.5488 -6
      vertex 9.62132 9.62132 -6
      vertex 12.0405 12.0405 -6
    endloop
  endfacet
  facet normal -0 0 -1
    outer loop
      vertex 12.0405 12.0405 -6
      vertex 9.62132 9.62132 -6
      vertex 11.5488 12.4718 -6
    endloop
  endfacet
  facet normal 0 0 -1
    outer loop
      vertex 9.32628 9.88006 -6
      vertex 11.5488 12.4718 -6
      vertex 9.62132 9.62132 -6
    endloop
  endfacet
  facet normal -0 0 -1
    outer loop
      vertex 11.5488 12.4718 -6
      vertex 9.32628 9.88006 -6
      vertex 11.005 12.8351 -6
    endloop
  endfacet
  facet normal 0 0 -1
    outer loop
      vertex 9 10.0981 -6
      vertex 11.005 12.8351 -6
      vertex 9.32628 9.88006 -6
    endloop
  endfacet
  facet normal -0 0 -1
    outer loop
      vertex 11.005 12.8351 -6
      vertex 9 10.0981 -6
      vertex 10.4184 13.1244 -6
    endloop
  endfacet
  facet normal -0 0 -1
    outer loop
      vertex 10.4184 13.1244 -6
      vertex 9 10.0981 -6
      vertex 9.79909 13.3346 -6
    endloop
  endfacet
  facet normal 0 0 -1
    outer loop
      vertex 8.64805 10.2716 -6
      vertex 9.79909 13.3346 -6
      vertex 9 10.0981 -6
    endloop
  endfacet
  facet normal -0 0 -1
    outer loop
      vertex 9.79909 13.3346 -6
      vertex 8.64805 10.2716 -6
      vertex 9.15762 13.4622 -6
    endloop
  endfacet
  facet normal 0 0 -1
    outer loop
      vertex 8.27646 10.3978 -6
      vertex 9.15762 13.4622 -6
      vertex 8.64805 10.2716 -6
    endloop
  endfacet
  facet normal -0 0 -1
    outer loop
      vertex 9.15762 13.4622 -6
      vertex 8.27646 10.3978 -6
      vertex 8.50499 13.505 -6
    endloop
  endfacet
  facet normal 0 0 -1
    outer loop
      vertex 7.89158 10.4743 -6
      vertex 8.50499 13.505 -6
      vertex 8.27646 10.3978 -6
    endloop
  endfacet
  facet normal 0 0 -1
    outer loop
      vertex 7.5 10.5 -6
      vertex 8.50499 13.505 -6
      vertex 7.89158 10.4743 -6
    endloop
  endfacet
  facet normal 0 0 -1
    outer loop
      vertex 6.49501 13.505 -6
      vertex 7.5 10.5 -6
      vertex 7.10842 10.4743 -6
    endloop
  endfacet
  facet normal 0 0 -1
    outer loop
      vertex 6.49501 13.505 -6
      vertex 7.10842 10.4743 -6
      vertex 6.72354 10.3978 -6
    endloop
  endfacet
  facet normal 0 0 -1
    outer loop
      vertex 7.5 10.5 -6
      vertex 6.49501 13.505 -6
      vertex 8.50499 13.505 -6
    endloop
  endfacet
  facet normal 0 0 -1
    outer loop
      vertex 5.84238 13.4622 -6
      vertex 6.72354 10.3978 -6
      vertex 6.35195 10.2716 -6
    endloop
  endfacet
  facet normal 0 0 -1
    outer loop
      vertex 5.20091 13.3346 -6
      vertex 6.35195 10.2716 -6
      vertex 6 10.0981 -6
    endloop
  endfacet
  facet normal 0 0 -1
    outer loop
      vertex 6.72354 10.3978 -6
      vertex 5.84238 13.4622 -6
      vertex 6.49501 13.505 -6
    endloop
  endfacet
  facet normal 0 0 -1
    outer loop
      vertex 3.99501 12.8351 -6
      vertex 6 10.0981 -6
      vertex 5.67372 9.88006 -6
    endloop
  endfacet
  facet normal 0 0 -1
    outer loop
      vertex 3.4512 12.4718 -6
      vertex 5.67372 9.88006 -6
      vertex 5.37868 9.62132 -6
    endloop
  endfacet
  facet normal 0 0 -1
    outer loop
      vertex 6.35195 10.2716 -6
      vertex 5.20091 13.3346 -6
      vertex 5.84238 13.4622 -6
    endloop
  endfacet
  facet normal 0 0 -1
    outer loop
      vertex 2.52824 11.5488 -6
      vertex 5.37868 9.62132 -6
      vertex 5.11994 9.32628 -6
    endloop
  endfacet
  facet normal 0 0 -1
    outer loop
      vertex 2.16489 11.005 -6
      vertex 5.11994 9.32628 -6
      vertex 4.90192 9 -6
    endloop
  endfacet
  facet normal 0 0 -1
    outer loop
      vertex 1.66537 9.79909 -6
      vertex 4.90192 9 -6
      vertex 4.72836 8.64805 -6
    endloop
  endfacet
  facet normal 0 0 -1
    outer loop
      vertex 1.53778 9.15762 -6
      vertex 4.72836 8.64805 -6
      vertex 4.60222 8.27646 -6
    endloop
  endfacet
  facet normal 0 0 -1
    outer loop
      vertex 6 10.0981 -6
      vertex 4.58159 13.1244 -6
      vertex 5.20091 13.3346 -6
    endloop
  endfacet
  facet normal 0 0 -1
    outer loop
      vertex 1.49501 8.50499 -6
      vertex 4.60222 8.27646 -6
      vertex 4.52567 7.89158 -6
    endloop
  endfacet
  facet normal 0 0 -1
    outer loop
      vertex 1.49501 8.50499 -6
      vertex 4.52567 7.89158 -6
      vertex 4.5 7.5 -6
    endloop
  endfacet
  facet normal 0 0 -1
    outer loop
      vertex 1.87561 4.58159 -6
      vertex 4.90192 6 -6
      vertex 2.16489 3.99501 -6
    endloop
  endfacet
  facet normal 0 0 -1
    outer loop
      vertex 1.49501 8.50499 -6
      vertex 4.5 7.5 -6
      vertex 1.49501 6.49501 -6
    endloop
  endfacet
  facet normal 0 0 -1
    outer loop
      vertex 1.66537 5.20091 -6
      vertex 4.90192 6 -6
      vertex 1.87561 4.58159 -6
    endloop
  endfacet
  facet normal 0 0 -1
    outer loop
      vertex 4.60222 8.27646 -6
      vertex 1.49501 8.50499 -6
      vertex 1.53778 9.15762 -6
    endloop
  endfacet
  facet normal -0 0 -1
    outer loop
      vertex 4.90192 6 -6
      vertex 1.66537 5.20091 -6
      vertex 4.72836 6.35195 -6
    endloop
  endfacet
  facet normal 0 0 -1
    outer loop
      vertex 6 10.0981 -6
      vertex 3.99501 12.8351 -6
      vertex 4.58159 13.1244 -6
    endloop
  endfacet
  facet normal 0 0 -1
    outer loop
      vertex 1.53778 5.84238 -6
      vertex 4.72836 6.35195 -6
      vertex 1.66537 5.20091 -6
    endloop
  endfacet
  facet normal 0 0 -1
    outer loop
      vertex 5.67372 9.88006 -6
      vertex 3.4512 12.4718 -6
      vertex 3.99501 12.8351 -6
    endloop
  endfacet
  facet normal -0 0 -1
    outer loop
      vertex 4.72836 6.35195 -6
      vertex 1.53778 5.84238 -6
      vertex 4.60222 6.72354 -6
    endloop
  endfacet
  facet normal 0 0 -1
    outer loop
      vertex 5.37868 9.62132 -6
      vertex 2.95947 12.0405 -6
      vertex 3.4512 12.4718 -6
    endloop
  endfacet
  facet normal 0 0 -1
    outer loop
      vertex 1.49501 6.49501 -6
      vertex 4.60222 6.72354 -6
      vertex 1.53778 5.84238 -6
    endloop
  endfacet
  facet normal 0 0 -1
    outer loop
      vertex 5.37868 9.62132 -6
      vertex 2.52824 11.5488 -6
      vertex 2.95947 12.0405 -6
    endloop
  endfacet
  facet normal -0 0 -1
    outer loop
      vertex 4.60222 6.72354 -6
      vertex 1.49501 6.49501 -6
      vertex 4.52567 7.10842 -6
    endloop
  endfacet
  facet normal 0 0 -1
    outer loop
      vertex 5.11994 9.32628 -6
      vertex 2.16489 11.005 -6
      vertex 2.52824 11.5488 -6
    endloop
  endfacet
  facet normal -0 0 -1
    outer loop
      vertex 4.52567 7.10842 -6
      vertex 1.49501 6.49501 -6
      vertex 4.5 7.5 -6
    endloop
  endfacet
  facet normal 0 0 -1
    outer loop
      vertex 4.90192 9 -6
      vertex 1.87561 10.4184 -6
      vertex 2.16489 11.005 -6
    endloop
  endfacet
  facet normal 0 0 -1
    outer loop
      vertex 4.90192 9 -6
      vertex 1.66537 9.79909 -6
      vertex 1.87561 10.4184 -6
    endloop
  endfacet
  facet normal 0 0 -1
    outer loop
      vertex 4.72836 8.64805 -6
      vertex 1.53778 9.15762 -6
      vertex 1.66537 9.79909 -6
    endloop
  endfacet
  facet normal -0.997859 -0.0653946 0
    outer loop
      vertex 1.53778 5.84238 -6
      vertex 1.49501 6.49501 0
      vertex 1.49501 6.49501 -6
    endloop
  endfacet
  facet normal -0.997859 -0.0653946 0
    outer loop
      vertex 1.49501 6.49501 0
      vertex 1.53778 5.84238 -6
      vertex 1.53778 5.84238 0
    endloop
  endfacet
  facet normal -0.946926 -0.321452 0
    outer loop
      vertex 1.87561 4.58159 -6
      vertex 1.66537 5.20091 0
      vertex 1.66537 5.20091 -6
    endloop
  endfacet
  facet normal -0.946926 -0.321452 0
    outer loop
      vertex 1.66537 5.20091 0
      vertex 1.87561 4.58159 -6
      vertex 1.87561 4.58159 0
    endloop
  endfacet
  facet normal -0.896866 -0.442302 0
    outer loop
      vertex 2.16489 3.99501 -6
      vertex 1.87561 4.58159 0
      vertex 1.87561 4.58159 -6
    endloop
  endfacet
  facet normal -0.896866 -0.442302 0
    outer loop
      vertex 1.87561 4.58159 0
      vertex 2.16489 3.99501 -6
      vertex 2.16489 3.99501 0
    endloop
  endfacet
  facet normal -0.555557 -0.831478 0
    outer loop
      vertex 3.4512 2.52824 -6
      vertex 3.99501 2.16489 0
      vertex 3.4512 2.52824 0
    endloop
  endfacet
  facet normal -0.555557 -0.831478 -0
    outer loop
      vertex 3.99501 2.16489 0
      vertex 3.4512 2.52824 -6
      vertex 3.99501 2.16489 -6
    endloop
  endfacet
  facet normal -0.195081 -0.980787 0
    outer loop
      vertex 5.20091 1.66537 -6
      vertex 5.84238 1.53778 0
      vertex 5.20091 1.66537 0
    endloop
  endfacet
  facet normal -0.195081 -0.980787 -0
    outer loop
      vertex 5.84238 1.53778 0
      vertex 5.20091 1.66537 -6
      vertex 5.84238 1.53778 -6
    endloop
  endfacet
  facet normal 0.0653946 -0.997859 0
    outer loop
      vertex 8.50499 1.49501 -6
      vertex 9.15762 1.53778 0
      vertex 8.50499 1.49501 0
    endloop
  endfacet
  facet normal 0.0653946 -0.997859 0
    outer loop
      vertex 9.15762 1.53778 0
      vertex 8.50499 1.49501 -6
      vertex 9.15762 1.53778 -6
    endloop
  endfacet
  facet normal -0.0653946 -0.997859 0
    outer loop
      vertex 5.84238 1.53778 -6
      vertex 6.49501 1.49501 0
      vertex 5.84238 1.53778 0
    endloop
  endfacet
  facet normal -0.0653946 -0.997859 -0
    outer loop
      vertex 6.49501 1.49501 0
      vertex 5.84238 1.53778 -6
      vertex 6.49501 1.49501 -6
    endloop
  endfacet
  facet normal 0 -1 0
    outer loop
      vertex 6.49501 1.49501 -6
      vertex 8.50499 1.49501 0
      vertex 6.49501 1.49501 0
    endloop
  endfacet
  facet normal 0 -1 -0
    outer loop
      vertex 8.50499 1.49501 0
      vertex 6.49501 1.49501 -6
      vertex 8.50499 1.49501 -6
    endloop
  endfacet
  facet normal -0.0654402 0.997856 0
    outer loop
      vertex 6.49501 13.505 -6
      vertex 5.84238 13.4622 0
      vertex 6.49501 13.505 0
    endloop
  endfacet
  facet normal -0.0654402 0.997856 0
    outer loop
      vertex 5.84238 13.4622 0
      vertex 6.49501 13.505 -6
      vertex 5.84238 13.4622 -6
    endloop
  endfacet
  facet normal 0.89686 0.442314 0
    outer loop
      vertex 13.1244 10.4184 0
      vertex 12.8351 11.005 -6
      vertex 12.8351 11.005 0
    endloop
  endfacet
  facet normal 0.89686 0.442314 0
    outer loop
      vertex 12.8351 11.005 -6
      vertex 13.1244 10.4184 0
      vertex 13.1244 10.4184 -6
    endloop
  endfacet
  facet normal 0.0654402 0.997856 -0
    outer loop
      vertex 9.15762 13.4622 -6
      vertex 8.50499 13.505 0
      vertex 9.15762 13.4622 0
    endloop
  endfacet
  facet normal 0.0654402 0.997856 0
    outer loop
      vertex 8.50499 13.505 0
      vertex 9.15762 13.4622 -6
      vertex 8.50499 13.505 -6
    endloop
  endfacet
  facet normal 0.321402 0.946943 -0
    outer loop
      vertex 10.4184 13.1244 -6
      vertex 9.79909 13.3346 0
      vertex 10.4184 13.1244 0
    endloop
  endfacet
  facet normal 0.321402 0.946943 0
    outer loop
      vertex 9.79909 13.3346 0
      vertex 10.4184 13.1244 -6
      vertex 9.79909 13.3346 -6
    endloop
  endfacet
  facet normal 0.980784 -0.195096 0
    outer loop
      vertex 13.3346 5.20091 0
      vertex 13.4622 5.84238 -6
      vertex 13.4622 5.84238 0
    endloop
  endfacet
  facet normal 0.980784 -0.195096 0
    outer loop
      vertex 13.4622 5.84238 -6
      vertex 13.3346 5.20091 0
      vertex 13.3346 5.20091 -6
    endloop
  endfacet
  facet normal 0.997856 -0.0654402 0
    outer loop
      vertex 13.4622 5.84238 0
      vertex 13.505 6.49501 -6
      vertex 13.505 6.49501 0
    endloop
  endfacet
  facet normal 0.997856 -0.0654402 0
    outer loop
      vertex 13.505 6.49501 -6
      vertex 13.4622 5.84238 0
      vertex 13.4622 5.84238 -6
    endloop
  endfacet
  facet normal 0.997856 0.0654402 0
    outer loop
      vertex 13.505 8.50499 0
      vertex 13.4622 9.15762 -6
      vertex 13.4622 9.15762 0
    endloop
  endfacet
  facet normal 0.997856 0.0654402 0
    outer loop
      vertex 13.4622 9.15762 -6
      vertex 13.505 8.50499 0
      vertex 13.505 8.50499 -6
    endloop
  endfacet
  facet normal 0.946944 -0.321397 0
    outer loop
      vertex 13.1244 4.58159 0
      vertex 13.3346 5.20091 -6
      vertex 13.3346 5.20091 0
    endloop
  endfacet
  facet normal 0.946944 -0.321397 0
    outer loop
      vertex 13.3346 5.20091 -6
      vertex 13.1244 4.58159 0
      vertex 13.1244 4.58159 -6
    endloop
  endfacet
  facet normal 0.751791 -0.659401 0
    outer loop
      vertex 12.0405 2.95947 0
      vertex 12.4718 3.4512 -6
      vertex 12.4718 3.4512 0
    endloop
  endfacet
  facet normal 0.751791 -0.659401 0
    outer loop
      vertex 12.4718 3.4512 -6
      vertex 12.0405 2.95947 0
      vertex 12.0405 2.95947 -6
    endloop
  endfacet
  facet normal 0.659364 -0.751824 0
    outer loop
      vertex 11.5488 2.52824 -6
      vertex 12.0405 2.95947 0
      vertex 11.5488 2.52824 0
    endloop
  endfacet
  facet normal 0.659364 -0.751824 0
    outer loop
      vertex 12.0405 2.95947 0
      vertex 11.5488 2.52824 -6
      vertex 12.0405 2.95947 -6
    endloop
  endfacet
  facet normal 0.44229 -0.896872 0
    outer loop
      vertex 10.4184 1.87561 -6
      vertex 11.005 2.16489 0
      vertex 10.4184 1.87561 0
    endloop
  endfacet
  facet normal 0.44229 -0.896872 0
    outer loop
      vertex 11.005 2.16489 0
      vertex 10.4184 1.87561 -6
      vertex 11.005 2.16489 -6
    endloop
  endfacet
  facet normal -0.321397 0.946944 0
    outer loop
      vertex 5.20091 13.3346 -6
      vertex 4.58159 13.1244 0
      vertex 5.20091 13.3346 0
    endloop
  endfacet
  facet normal -0.321397 0.946944 0
    outer loop
      vertex 4.58159 13.1244 0
      vertex 5.20091 13.3346 -6
      vertex 4.58159 13.1244 -6
    endloop
  endfacet
  facet normal -0.831474 0.555564 0
    outer loop
      vertex 2.16489 11.005 -6
      vertex 2.52824 11.5488 0
      vertex 2.52824 11.5488 -6
    endloop
  endfacet
  facet normal -0.831474 0.555564 0
    outer loop
      vertex 2.52824 11.5488 0
      vertex 2.16489 11.005 -6
      vertex 2.16489 11.005 0
    endloop
  endfacet
  facet normal -0.980787 0.195081 0
    outer loop
      vertex 1.53778 9.15762 -6
      vertex 1.66537 9.79909 0
      vertex 1.66537 9.79909 -6
    endloop
  endfacet
  facet normal -0.980787 0.195081 0
    outer loop
      vertex 1.66537 9.79909 0
      vertex 1.53778 9.15762 -6
      vertex 1.53778 9.15762 0
    endloop
  endfacet
  facet normal -0.751844 -0.659341 0
    outer loop
      vertex 2.95947 2.95947 -6
      vertex 2.52824 3.4512 0
      vertex 2.52824 3.4512 -6
    endloop
  endfacet
  facet normal -0.751844 -0.659341 0
    outer loop
      vertex 2.52824 3.4512 0
      vertex 2.95947 2.95947 -6
      vertex 2.95947 2.95947 0
    endloop
  endfacet
  facet normal 0.555512 0.831509 -0
    outer loop
      vertex 11.5488 12.4718 -6
      vertex 11.005 12.8351 0
      vertex 11.5488 12.4718 0
    endloop
  endfacet
  facet normal 0.555512 0.831509 0
    outer loop
      vertex 11.005 12.8351 0
      vertex 11.5488 12.4718 -6
      vertex 11.005 12.8351 -6
    endloop
  endfacet
  facet normal 0.831514 -0.555504 0
    outer loop
      vertex 12.4718 3.4512 0
      vertex 12.8351 3.99501 -6
      vertex 12.8351 3.99501 0
    endloop
  endfacet
  facet normal 0.831514 -0.555504 0
    outer loop
      vertex 12.8351 3.99501 -6
      vertex 12.4718 3.4512 0
      vertex 12.4718 3.4512 -6
    endloop
  endfacet
  facet normal -0.555617 -0.831438 0
    outer loop
      vertex 9 10.0981 -6
      vertex 9.32628 9.88006 0
      vertex 9 10.0981 0
    endloop
  endfacet
  facet normal -0.555617 -0.831438 -0
    outer loop
      vertex 9.32628 9.88006 0
      vertex 9 10.0981 -6
      vertex 9.32628 9.88006 -6
    endloop
  endfacet
  facet normal 0.980789 -0.195072 0
    outer loop
      vertex 4.52567 7.89158 0
      vertex 4.60222 8.27646 -6
      vertex 4.60222 8.27646 0
    endloop
  endfacet
  facet normal 0.980789 -0.195072 0
    outer loop
      vertex 4.60222 8.27646 -6
      vertex 4.52567 7.89158 0
      vertex 4.52567 7.89158 -6
    endloop
  endfacet
  facet normal -0.980813 0.19495 0
    outer loop
      vertex 10.3978 6.72354 -6
      vertex 10.4743 7.10842 0
      vertex 10.4743 7.10842 -6
    endloop
  endfacet
  facet normal -0.980813 0.19495 0
    outer loop
      vertex 10.4743 7.10842 0
      vertex 10.3978 6.72354 -6
      vertex 10.3978 6.72354 0
    endloop
  endfacet
  facet normal 0.195072 0.980789 -0
    outer loop
      vertex 7.10842 4.52567 -6
      vertex 6.72354 4.60222 0
      vertex 7.10842 4.52567 0
    endloop
  endfacet
  facet normal 0.195072 0.980789 0
    outer loop
      vertex 6.72354 4.60222 0
      vertex 7.10842 4.52567 -6
      vertex 6.72354 4.60222 -6
    endloop
  endfacet
  facet normal 0.44216 -0.896936 0
    outer loop
      vertex 6 10.0981 -6
      vertex 6.35195 10.2716 0
      vertex 6 10.0981 0
    endloop
  endfacet
  facet normal 0.44216 -0.896936 0
    outer loop
      vertex 6.35195 10.2716 0
      vertex 6 10.0981 -6
      vertex 6.35195 10.2716 -6
    endloop
  endfacet
  facet normal 0.946928 -0.321444 0
    outer loop
      vertex 4.60222 8.27646 0
      vertex 4.72836 8.64805 -6
      vertex 4.72836 8.64805 0
    endloop
  endfacet
  facet normal 0.946928 -0.321444 0
    outer loop
      vertex 4.72836 8.64805 -6
      vertex 4.60222 8.27646 0
      vertex 4.60222 8.27646 -6
    endloop
  endfacet
  facet normal -0.751844 0.659341 0
    outer loop
      vertex 9.62132 5.37868 -6
      vertex 9.88006 5.67372 0
      vertex 9.88006 5.67372 -6
    endloop
  endfacet
  facet normal -0.751844 0.659341 0
    outer loop
      vertex 9.88006 5.67372 0
      vertex 9.62132 5.37868 -6
      vertex 9.62132 5.37868 0
    endloop
  endfacet
  facet normal -0.896936 -0.44216 0
    outer loop
      vertex 10.2716 8.64805 -6
      vertex 10.0981 9 0
      vertex 10.0981 9 -6
    endloop
  endfacet
  facet normal -0.896936 -0.44216 0
    outer loop
      vertex 10.0981 9 0
      vertex 10.2716 8.64805 -6
      vertex 10.2716 8.64805 0
    endloop
  endfacet
  facet normal -0.980813 -0.19495 0
    outer loop
      vertex 10.4743 7.89158 -6
      vertex 10.3978 8.27646 0
      vertex 10.3978 8.27646 -6
    endloop
  endfacet
  facet normal -0.980813 -0.19495 0
    outer loop
      vertex 10.3978 8.27646 0
      vertex 10.4743 7.89158 -6
      vertex 10.4743 7.89158 0
    endloop
  endfacet
  facet normal -0.831438 -0.555617 0
    outer loop
      vertex 10.0981 9 -6
      vertex 9.88006 9.32628 0
      vertex 9.88006 9.32628 -6
    endloop
  endfacet
  facet normal -0.831438 -0.555617 0
    outer loop
      vertex 9.88006 9.32628 0
      vertex 10.0981 9 -6
      vertex 10.0981 9 0
    endloop
  endfacet
  facet normal -0.659341 -0.751844 0
    outer loop
      vertex 9.32628 9.88006 -6
      vertex 9.62132 9.62132 0
      vertex 9.32628 9.88006 0
    endloop
  endfacet
  facet normal -0.659341 -0.751844 -0
    outer loop
      vertex 9.62132 9.62132 0
      vertex 9.32628 9.88006 -6
      vertex 9.62132 9.62132 -6
    endloop
  endfacet
  facet normal -0.321582 -0.946882 0
    outer loop
      vertex 8.27646 10.3978 -6
      vertex 8.64805 10.2716 0
      vertex 8.27646 10.3978 0
    endloop
  endfacet
  facet normal -0.321582 -0.946882 -0
    outer loop
      vertex 8.64805 10.2716 0
      vertex 8.27646 10.3978 -6
      vertex 8.64805 10.2716 -6
    endloop
  endfacet
  facet normal 0.0654906 -0.997853 0
    outer loop
      vertex 7.10842 10.4743 -6
      vertex 7.5 10.5 0
      vertex 7.10842 10.4743 0
    endloop
  endfacet
  facet normal 0.0654906 -0.997853 0
    outer loop
      vertex 7.5 10.5 0
      vertex 7.10842 10.4743 -6
      vertex 7.5 10.5 -6
    endloop
  endfacet
  facet normal 0.831462 -0.555582 0
    outer loop
      vertex 4.90192 9 0
      vertex 5.11994 9.32628 -6
      vertex 5.11994 9.32628 0
    endloop
  endfacet
  facet normal 0.831462 -0.555582 0
    outer loop
      vertex 5.11994 9.32628 -6
      vertex 4.90192 9 0
      vertex 4.90192 9 -6
    endloop
  endfacet
  facet normal 0.19495 -0.980813 0
    outer loop
      vertex 6.72354 10.3978 -6
      vertex 7.10842 10.4743 0
      vertex 6.72354 10.3978 0
    endloop
  endfacet
  facet normal 0.19495 -0.980813 0
    outer loop
      vertex 7.10842 10.4743 0
      vertex 6.72354 10.3978 -6
      vertex 7.10842 10.4743 -6
    endloop
  endfacet
  facet normal 0.751844 -0.659341 0
    outer loop
      vertex 5.11994 9.32628 0
      vertex 5.37868 9.62132 -6
      vertex 5.37868 9.62132 0
    endloop
  endfacet
  facet normal 0.751844 -0.659341 0
    outer loop
      vertex 5.37868 9.62132 -6
      vertex 5.11994 9.32628 0
      vertex 5.11994 9.32628 -6
    endloop
  endfacet
  facet normal -0.997853 -0.0654906 0
    outer loop
      vertex 10.5 7.5 -6
      vertex 10.4743 7.89158 0
      vertex 10.4743 7.89158 -6
    endloop
  endfacet
  facet normal -0.997853 -0.0654906 0
    outer loop
      vertex 10.4743 7.89158 0
      vertex 10.5 7.5 -6
      vertex 10.5 7.5 0
    endloop
  endfacet
  facet normal -0.195072 0.980789 0
    outer loop
      vertex 8.27646 4.60222 -6
      vertex 7.89158 4.52567 0
      vertex 8.27646 4.60222 0
    endloop
  endfacet
  facet normal -0.195072 0.980789 0
    outer loop
      vertex 7.89158 4.52567 0
      vertex 8.27646 4.60222 -6
      vertex 7.89158 4.52567 -6
    endloop
  endfacet
  facet normal -0.946882 0.321582 0
    outer loop
      vertex 10.2716 6.35195 -6
      vertex 10.3978 6.72354 0
      vertex 10.3978 6.72354 -6
    endloop
  endfacet
  facet normal -0.946882 0.321582 0
    outer loop
      vertex 10.3978 6.72354 0
      vertex 10.2716 6.35195 -6
      vertex 10.2716 6.35195 0
    endloop
  endfacet
  facet normal 0.0654145 0.997858 -0
    outer loop
      vertex 7.5 4.5 -6
      vertex 7.10842 4.52567 0
      vertex 7.5 4.5 0
    endloop
  endfacet
  facet normal 0.0654145 0.997858 0
    outer loop
      vertex 7.10842 4.52567 0
      vertex 7.5 4.5 -6
      vertex 7.10842 4.52567 -6
    endloop
  endfacet
  facet normal 0.555582 0.831462 -0
    outer loop
      vertex 6 4.90192 -6
      vertex 5.67372 5.11994 0
      vertex 6 4.90192 0
    endloop
  endfacet
  facet normal 0.555582 0.831462 0
    outer loop
      vertex 5.67372 5.11994 0
      vertex 6 4.90192 -6
      vertex 5.67372 5.11994 -6
    endloop
  endfacet
  facet normal 0.980789 0.195072 0
    outer loop
      vertex 4.60222 6.72354 0
      vertex 4.52567 7.10842 -6
      vertex 4.52567 7.10842 0
    endloop
  endfacet
  facet normal 0.980789 0.195072 0
    outer loop
      vertex 4.52567 7.10842 -6
      vertex 4.60222 6.72354 0
      vertex 4.60222 6.72354 -6
    endloop
  endfacet
  facet normal 0.659341 0.751844 -0
    outer loop
      vertex 5.67372 5.11994 -6
      vertex 5.37868 5.37868 0
      vertex 5.67372 5.11994 0
    endloop
  endfacet
  facet normal 0.659341 0.751844 0
    outer loop
      vertex 5.37868 5.37868 0
      vertex 5.67372 5.11994 -6
      vertex 5.37868 5.37868 -6
    endloop
  endfacet
  facet normal -0.946882 -0.321582 0
    outer loop
      vertex 10.3978 8.27646 -6
      vertex 10.2716 8.64805 0
      vertex 10.2716 8.64805 -6
    endloop
  endfacet
  facet normal -0.946882 -0.321582 0
    outer loop
      vertex 10.2716 8.64805 0
      vertex 10.3978 8.27646 -6
      vertex 10.3978 8.27646 0
    endloop
  endfacet
  facet normal -0.751844 -0.659341 0
    outer loop
      vertex 9.88006 9.32628 -6
      vertex 9.62132 9.62132 0
      vertex 9.62132 9.62132 -6
    endloop
  endfacet
  facet normal -0.751844 -0.659341 0
    outer loop
      vertex 9.62132 9.62132 0
      vertex 9.88006 9.32628 -6
      vertex 9.88006 9.32628 0
    endloop
  endfacet
  facet normal -0.44216 -0.896936 0
    outer loop
      vertex 8.64805 10.2716 -6
      vertex 9 10.0981 0
      vertex 8.64805 10.2716 0
    endloop
  endfacet
  facet normal -0.44216 -0.896936 -0
    outer loop
      vertex 9 10.0981 0
      vertex 8.64805 10.2716 -6
      vertex 9 10.0981 -6
    endloop
  endfacet
  facet normal -0.19495 -0.980813 0
    outer loop
      vertex 7.89158 10.4743 -6
      vertex 8.27646 10.3978 0
      vertex 7.89158 10.4743 0
    endloop
  endfacet
  facet normal -0.19495 -0.980813 -0
    outer loop
      vertex 8.27646 10.3978 0
      vertex 7.89158 10.4743 -6
      vertex 8.27646 10.3978 -6
    endloop
  endfacet
  facet normal -0.0654906 -0.997853 0
    outer loop
      vertex 7.5 10.5 -6
      vertex 7.89158 10.4743 0
      vertex 7.5 10.5 0
    endloop
  endfacet
  facet normal -0.0654906 -0.997853 -0
    outer loop
      vertex 7.89158 10.4743 0
      vertex 7.5 10.5 -6
      vertex 7.89158 10.4743 -6
    endloop
  endfacet
  facet normal 0.997858 0.0654145 0
    outer loop
      vertex 4.52567 7.10842 0
      vertex 4.5 7.5 -6
      vertex 4.5 7.5 0
    endloop
  endfacet
  facet normal 0.997858 0.0654145 0
    outer loop
      vertex 4.5 7.5 -6
      vertex 4.52567 7.10842 0
      vertex 4.52567 7.10842 -6
    endloop
  endfacet
  facet normal 0.896875 -0.442283 0
    outer loop
      vertex 4.72836 8.64805 0
      vertex 4.90192 9 -6
      vertex 4.90192 9 0
    endloop
  endfacet
  facet normal 0.896875 -0.442283 0
    outer loop
      vertex 4.90192 9 -6
      vertex 4.72836 8.64805 0
      vertex 4.72836 8.64805 -6
    endloop
  endfacet
  facet normal 0.321582 -0.946882 0
    outer loop
      vertex 6.35195 10.2716 -6
      vertex 6.72354 10.3978 0
      vertex 6.35195 10.2716 0
    endloop
  endfacet
  facet normal 0.321582 -0.946882 0
    outer loop
      vertex 6.72354 10.3978 0
      vertex 6.35195 10.2716 -6
      vertex 6.72354 10.3978 -6
    endloop
  endfacet
  facet normal 0.659341 -0.751844 0
    outer loop
      vertex 5.37868 9.62132 -6
      vertex 5.67372 9.88006 0
      vertex 5.37868 9.62132 0
    endloop
  endfacet
  facet normal 0.659341 -0.751844 0
    outer loop
      vertex 5.67372 9.88006 0
      vertex 5.37868 9.62132 -6
      vertex 5.67372 9.88006 -6
    endloop
  endfacet
  facet normal 0.555617 -0.831438 0
    outer loop
      vertex 5.67372 9.88006 -6
      vertex 6 10.0981 0
      vertex 5.67372 9.88006 0
    endloop
  endfacet
  facet normal 0.555617 -0.831438 0
    outer loop
      vertex 6 10.0981 0
      vertex 5.67372 9.88006 -6
      vertex 6 10.0981 -6
    endloop
  endfacet
  facet normal -0.997853 0.0654906 0
    outer loop
      vertex 10.4743 7.10842 -6
      vertex 10.5 7.5 0
      vertex 10.5 7.5 -6
    endloop
  endfacet
  facet normal -0.997853 0.0654906 0
    outer loop
      vertex 10.5 7.5 0
      vertex 10.4743 7.10842 -6
      vertex 10.4743 7.10842 0
    endloop
  endfacet
  facet normal -0.831438 0.555617 0
    outer loop
      vertex 9.88006 5.67372 -6
      vertex 10.0981 6 0
      vertex 10.0981 6 -6
    endloop
  endfacet
  facet normal -0.831438 0.555617 0
    outer loop
      vertex 10.0981 6 0
      vertex 9.88006 5.67372 -6
      vertex 9.88006 5.67372 0
    endloop
  endfacet
  facet normal -0.896936 0.44216 0
    outer loop
      vertex 10.0981 6 -6
      vertex 10.2716 6.35195 0
      vertex 10.2716 6.35195 -6
    endloop
  endfacet
  facet normal -0.896936 0.44216 0
    outer loop
      vertex 10.2716 6.35195 0
      vertex 10.0981 6 -6
      vertex 10.0981 6 0
    endloop
  endfacet
  facet normal -0.321444 0.946928 0
    outer loop
      vertex 8.64805 4.72836 -6
      vertex 8.27646 4.60222 0
      vertex 8.64805 4.72836 0
    endloop
  endfacet
  facet normal -0.321444 0.946928 0
    outer loop
      vertex 8.27646 4.60222 0
      vertex 8.64805 4.72836 -6
      vertex 8.27646 4.60222 -6
    endloop
  endfacet
  facet normal -0.555582 0.831462 0
    outer loop
      vertex 9.32628 5.11994 -6
      vertex 9 4.90192 0
      vertex 9.32628 5.11994 0
    endloop
  endfacet
  facet normal -0.555582 0.831462 0
    outer loop
      vertex 9 4.90192 0
      vertex 9.32628 5.11994 -6
      vertex 9 4.90192 -6
    endloop
  endfacet
  facet normal -0.0654145 0.997858 0
    outer loop
      vertex 7.89158 4.52567 -6
      vertex 7.5 4.5 0
      vertex 7.89158 4.52567 0
    endloop
  endfacet
  facet normal -0.0654145 0.997858 0
    outer loop
      vertex 7.5 4.5 0
      vertex 7.89158 4.52567 -6
      vertex 7.5 4.5 -6
    endloop
  endfacet
  facet normal 0.442283 0.896875 -0
    outer loop
      vertex 6.35195 4.72836 -6
      vertex 6 4.90192 0
      vertex 6.35195 4.72836 0
    endloop
  endfacet
  facet normal 0.442283 0.896875 0
    outer loop
      vertex 6 4.90192 0
      vertex 6.35195 4.72836 -6
      vertex 6 4.90192 -6
    endloop
  endfacet
  facet normal 0.946928 0.321444 0
    outer loop
      vertex 4.72836 6.35195 0
      vertex 4.60222 6.72354 -6
      vertex 4.60222 6.72354 0
    endloop
  endfacet
  facet normal 0.946928 0.321444 0
    outer loop
      vertex 4.60222 6.72354 -6
      vertex 4.72836 6.35195 0
      vertex 4.72836 6.35195 -6
    endloop
  endfacet
  facet normal 0.831462 0.555582 0
    outer loop
      vertex 5.11994 5.67372 0
      vertex 4.90192 6 -6
      vertex 4.90192 6 0
    endloop
  endfacet
  facet normal 0.831462 0.555582 0
    outer loop
      vertex 4.90192 6 -6
      vertex 5.11994 5.67372 0
      vertex 5.11994 5.67372 -6
    endloop
  endfacet
  facet normal 0.997858 -0.0654145 0
    outer loop
      vertex 4.5 7.5 0
      vertex 4.52567 7.89158 -6
      vertex 4.52567 7.89158 0
    endloop
  endfacet
  facet normal 0.997858 -0.0654145 0
    outer loop
      vertex 4.52567 7.89158 -6
      vertex 4.5 7.5 0
      vertex 4.5 7.5 -6
    endloop
  endfacet
  facet normal -0.442283 0.896875 0
    outer loop
      vertex 9 4.90192 -6
      vertex 8.64805 4.72836 0
      vertex 9 4.90192 0
    endloop
  endfacet
  facet normal -0.442283 0.896875 0
    outer loop
      vertex 8.64805 4.72836 0
      vertex 9 4.90192 -6
      vertex 8.64805 4.72836 -6
    endloop
  endfacet
  facet normal -0.659341 0.751844 0
    outer loop
      vertex 9.62132 5.37868 -6
      vertex 9.32628 5.11994 0
      vertex 9.62132 5.37868 0
    endloop
  endfacet
  facet normal -0.659341 0.751844 0
    outer loop
      vertex 9.32628 5.11994 0
      vertex 9.62132 5.37868 -6
      vertex 9.32628 5.11994 -6
    endloop
  endfacet
  facet normal 0.321444 0.946928 -0
    outer loop
      vertex 6.72354 4.60222 -6
      vertex 6.35195 4.72836 0
      vertex 6.72354 4.60222 0
    endloop
  endfacet
  facet normal 0.321444 0.946928 0
    outer loop
      vertex 6.35195 4.72836 0
      vertex 6.72354 4.60222 -6
      vertex 6.35195 4.72836 -6
    endloop
  endfacet
  facet normal 0.896875 0.442283 0
    outer loop
      vertex 4.90192 6 0
      vertex 4.72836 6.35195 -6
      vertex 4.72836 6.35195 0
    endloop
  endfacet
  facet normal 0.896875 0.442283 0
    outer loop
      vertex 4.72836 6.35195 -6
      vertex 4.90192 6 0
      vertex 4.90192 6 -6
    endloop
  endfacet
  facet normal 0.751844 0.659341 0
    outer loop
      vertex 5.37868 5.37868 0
      vertex 5.11994 5.67372 -6
      vertex 5.11994 5.67372 0
    endloop
  endfacet
  facet normal 0.751844 0.659341 0
    outer loop
      vertex 5.11994 5.67372 -6
      vertex 5.37868 5.37868 0
      vertex 5.37868 5.37868 -6
    endloop
  endfacet
endsolid OpenSCAD_Model
