  0
SECTION
  2
BLOCKS
  0
ENDSEC
  0
SECTION
  2
ENTITIES
  0
LINE
  8
0
 10
9.15762
 20
1.53778
 11
9.79909
 21
1.66537
  0
LINE
  8
0
 10
9.79909
 20
1.66537
 11
10.4184
 21
1.87561
  0
LINE
  8
0
 10
10.4184
 20
1.87561
 11
11.005
 21
2.16489
  0
LINE
  8
0
 10
11.005
 20
2.16489
 11
11.5488
 21
2.52824
  0
LINE
  8
0
 10
11.5488
 20
2.52824
 11
12.0405
 21
2.95947
  0
LINE
  8
0
 10
12.0405
 20
2.95947
 11
12.4718
 21
3.4512
  0
LINE
  8
0
 10
12.4718
 20
3.4512
 11
12.8351
 21
3.99501
  0
LINE
  8
0
 10
12.8351
 20
3.99501
 11
13.1244
 21
4.58159
  0
LINE
  8
0
 10
13.1244
 20
4.58159
 11
13.3346
 21
5.20091
  0
LINE
  8
0
 10
13.3346
 20
5.20091
 11
13.4622
 21
5.84238
  0
LINE
  8
0
 10
13.4622
 20
5.84238
 11
13.505
 21
6.49501
  0
LINE
  8
0
 10
13.505
 20
6.49501
 11
13.505
 21
8.50499
  0
LINE
  8
0
 10
13.505
 20
8.50499
 11
13.4622
 21
9.15762
  0
LINE
  8
0
 10
13.4622
 20
9.15762
 11
13.3346
 21
9.79909
  0
LINE
  8
0
 10
13.3346
 20
9.79909
 11
13.1244
 21
10.4184
  0
LINE
  8
0
 10
13.1244
 20
10.4184
 11
12.8351
 21
11.005
  0
LINE
  8
0
 10
12.8351
 20
11.005
 11
12.4718
 21
11.5488
  0
LINE
  8
0
 10
12.4718
 20
11.5488
 11
12.0405
 21
12.0405
  0
LINE
  8
0
 10
12.0405
 20
12.0405
 11
11.5488
 21
12.4718
  0
LINE
  8
0
 10
11.5488
 20
12.4718
 11
11.005
 21
12.8351
  0
LINE
  8
0
 10
11.005
 20
12.8351
 11
10.4184
 21
13.1244
  0
LINE
  8
0
 10
10.4184
 20
13.1244
 11
9.79909
 21
13.3346
  0
LINE
  8
0
 10
9.79909
 20
13.3346
 11
9.15762
 21
13.4622
  0
LINE
  8
0
 10
9.15762
 20
13.4622
 11
8.50499
 21
13.505
  0
LINE
  8
0
 10
8.50499
 20
13.505
 11
6.49501
 21
13.505
  0
LINE
  8
0
 10
6.49501
 20
13.505
 11
5.84238
 21
13.4622
  0
LINE
  8
0
 10
5.84238
 20
13.4622
 11
5.20091
 21
13.3346
  0
LINE
  8
0
 10
5.20091
 20
13.3346
 11
4.58159
 21
13.1244
  0
LINE
  8
0
 10
4.58159
 20
13.1244
 11
3.99501
 21
12.8351
  0
LINE
  8
0
 10
3.99501
 20
12.8351
 11
3.4512
 21
12.4718
  0
LINE
  8
0
 10
3.4512
 20
12.4718
 11
2.95947
 21
12.0405
  0
LINE
  8
0
 10
2.95947
 20
12.0405
 11
2.52824
 21
11.5488
  0
LINE
  8
0
 10
2.52824
 20
11.5488
 11
2.16489
 21
11.005
  0
LINE
  8
0
 10
2.16489
 20
11.005
 11
1.87561
 21
10.4184
  0
LINE
  8
0
 10
1.87561
 20
10.4184
 11
1.66537
 21
9.79909
  0
LINE
  8
0
 10
1.66537
 20
9.79909
 11
1.53778
 21
9.15762
  0
LINE
  8
0
 10
1.53778
 20
9.15762
 11
1.49501
 21
8.50499
  0
LINE
  8
0
 10
1.49501
 20
8.50499
 11
1.49501
 21
6.49501
  0
LINE
  8
0
 10
1.49501
 20
6.49501
 11
1.53778
 21
5.84238
  0
LINE
  8
0
 10
1.53778
 20
5.84238
 11
1.66537
 21
5.20091
  0
LINE
  8
0
 10
1.66537
 20
5.20091
 11
1.87561
 21
4.58159
  0
LINE
  8
0
 10
1.87561
 20
4.58159
 11
2.16489
 21
3.99501
  0
LINE
  8
0
 10
2.16489
 20
3.99501
 11
2.52824
 21
3.4512
  0
LINE
  8
0
 10
2.52824
 20
3.4512
 11
2.95947
 21
2.95947
  0
LINE
  8
0
 10
2.95947
 20
2.95947
 11
3.4512
 21
2.52824
  0
LINE
  8
0
 10
3.4512
 20
2.52824
 11
3.99501
 21
2.16489
  0
LINE
  8
0
 10
3.99501
 20
2.16489
 11
4.58159
 21
1.87561
  0
LINE
  8
0
 10
4.58159
 20
1.87561
 11
5.20091
 21
1.66537
  0
LINE
  8
0
 10
5.20091
 20
1.66537
 11
5.84238
 21
1.53778
  0
LINE
  8
0
 10
5.84238
 20
1.53778
 11
6.49501
 21
1.49501
  0
LINE
  8
0
 10
6.49501
 20
1.49501
 11
8.50499
 21
1.49501
  0
LINE
  8
0
 10
8.50499
 20
1.49501
 11
9.15762
 21
1.53778
  0
LINE
  8
0
 10
7.10841
 20
4.52567
 11
6.72354
 21
4.60222
  0
LINE
  8
0
 10
6.72354
 20
4.60222
 11
6.35194
 21
4.72835
  0
LINE
  8
0
 10
6.35194
 20
4.72835
 11
6
 21
4.90192
  0
LINE
  8
0
 10
6
 20
4.90192
 11
5.67371
 21
5.11993
  0
LINE
  8
0
 10
5.67371
 20
5.11993
 11
5.37868
 21
5.37868
  0
LINE
  8
0
 10
5.37868
 20
5.37868
 11
5.11993
 21
5.67371
  0
LINE
  8
0
 10
5.11993
 20
5.67371
 11
4.90192
 21
6
  0
LINE
  8
0
 10
4.90192
 20
6
 11
4.72835
 21
6.35194
  0
LINE
  8
0
 10
4.72835
 20
6.35194
 11
4.60222
 21
6.72354
  0
LINE
  8
0
 10
4.60222
 20
6.72354
 11
4.52567
 21
7.10841
  0
LINE
  8
0
 10
4.52567
 20
7.10841
 11
4.5
 21
7.5
  0
LINE
  8
0
 10
4.5
 20
7.5
 11
4.52567
 21
7.89157
  0
LINE
  8
0
 10
4.52567
 20
7.89157
 11
4.60222
 21
8.27644
  0
LINE
  8
0
 10
4.60222
 20
8.27644
 11
4.72835
 21
8.64804
  0
LINE
  8
0
 10
4.72835
 20
8.64804
 11
4.90192
 21
9
  0
LINE
  8
0
 10
4.90192
 20
9
 11
5.11993
 21
9.32628
  0
LINE
  8
0
 10
5.11993
 20
9.32628
 11
5.37868
 21
9.62131
  0
LINE
  8
0
 10
5.37868
 20
9.62131
 11
5.67371
 21
9.88005
  0
LINE
  8
0
 10
5.67371
 20
9.88005
 11
6
 21
10.0981
  0
LINE
  8
0
 10
6
 20
10.0981
 11
6.35194
 21
10.2716
  0
LINE
  8
0
 10
6.35194
 20
10.2716
 11
6.72354
 21
10.3978
  0
LINE
  8
0
 10
6.72354
 20
10.3978
 11
7.10841
 21
10.4743
  0
LINE
  8
0
 10
7.10841
 20
10.4743
 11
7.5
 21
10.5
  0
LINE
  8
0
 10
7.5
 20
10.5
 11
7.89157
 21
10.4743
  0
LINE
  8
0
 10
7.89157
 20
10.4743
 11
8.27644
 21
10.3978
  0
LINE
  8
0
 10
8.27644
 20
10.3978
 11
8.64804
 21
10.2716
  0
LINE
  8
0
 10
8.64804
 20
10.2716
 11
9
 21
10.0981
  0
LINE
  8
0
 10
9
 20
10.0981
 11
9.32628
 21
9.88005
  0
LINE
  8
0
 10
9.32628
 20
9.88005
 11
9.62131
 21
9.62131
  0
LINE
  8
0
 10
9.62131
 20
9.62131
 11
9.88005
 21
9.32628
  0
LINE
  8
0
 10
9.88005
 20
9.32628
 11
10.0981
 21
9
  0
LINE
  8
0
 10
10.0981
 20
9
 11
10.2716
 21
8.64804
  0
LINE
  8
0
 10
10.2716
 20
8.64804
 11
10.3978
 21
8.27644
  0
LINE
  8
0
 10
10.3978
 20
8.27644
 11
10.4743
 21
7.89157
  0
LINE
  8
0
 10
10.4743
 20
7.89157
 11
10.5
 21
7.5
  0
LINE
  8
0
 10
10.5
 20
7.5
 11
10.4743
 21
7.10841
  0
LINE
  8
0
 10
10.4743
 20
7.10841
 11
10.3978
 21
6.72354
  0
LINE
  8
0
 10
10.3978
 20
6.72354
 11
10.2716
 21
6.35194
  0
LINE
  8
0
 10
10.2716
 20
6.35194
 11
10.0981
 21
6
  0
LINE
  8
0
 10
10.0981
 20
6
 11
9.88005
 21
5.67371
  0
LINE
  8
0
 10
9.88005
 20
5.67371
 11
9.62131
 21
5.37868
  0
LINE
  8
0
 10
9.62131
 20
5.37868
 11
9.32628
 21
5.11993
  0
LINE
  8
0
 10
9.32628
 20
5.11993
 11
9
 21
4.90192
  0
LINE
  8
0
 10
9
 20
4.90192
 11
8.64804
 21
4.72835
  0
LINE
  8
0
 10
8.64804
 20
4.72835
 11
8.27644
 21
4.60222
  0
LINE
  8
0
 10
8.27644
 20
4.60222
 11
7.89157
 21
4.52567
  0
LINE
  8
0
 10
7.89157
 20
4.52567
 11
7.5
 21
4.5
  0
LINE
  8
0
 10
7.5
 20
4.5
 11
7.10841
 21
4.52567
  0
ENDSEC
  0
SECTION
  2
OBJECTS
  0
DICTIONARY
  0
ENDSEC
  0
EOF
