G04 #@! TF.GenerationSoftware,KiCad,Pcbnew,(5.0.2)-1*
G04 #@! TF.CreationDate,2021-08-28T19:43:05+01:00*
G04 #@! TF.ProjectId,HL-GM1-03-03-kicad,484c2d47-4d31-42d3-9033-2d30332d6b69,rev?*
G04 #@! TF.SameCoordinates,Original*
G04 #@! TF.FileFunction,Legend,Top*
G04 #@! TF.FilePolarity,Positive*
%FSLAX46Y46*%
G04 Gerber Fmt 4.6, Leading zero omitted, Abs format (unit mm)*
G04 Created by KiCad (PCBNEW (5.0.2)-1) date 28/08/2021 19:43:05*
%MOMM*%
%LPD*%
G01*
G04 APERTURE LIST*
%ADD10C,0.500000*%
%ADD11C,0.150000*%
G04 APERTURE END LIST*
D10*
G04 #@! TO.C,J2*
X1057000Y-10920000D02*
X-7833000Y-10920000D01*
X-848000Y-16000000D02*
X-848000Y-10920000D01*
X-7833000Y-10920000D02*
X-7833000Y-16000000D01*
X1057000Y-16000000D02*
X-7833000Y-16000000D01*
G04 #@! TO.C,J1*
D11*
X-5833333Y47619D02*
X-5833333Y-666666D01*
X-5880952Y-809523D01*
X-5976190Y-904761D01*
X-6119047Y-952380D01*
X-6214285Y-952380D01*
X-4833333Y-952380D02*
X-5404761Y-952380D01*
X-5119047Y-952380D02*
X-5119047Y47619D01*
X-5214285Y-95238D01*
X-5309523Y-190476D01*
X-5404761Y-238095D01*
G04 #@! TO.C,J2*
X-7110619Y-13793333D02*
X-6396333Y-13793333D01*
X-6253476Y-13840952D01*
X-6158238Y-13936190D01*
X-6110619Y-14079047D01*
X-6110619Y-14174285D01*
X-7015380Y-13364761D02*
X-7063000Y-13317142D01*
X-7110619Y-13221904D01*
X-7110619Y-12983809D01*
X-7063000Y-12888571D01*
X-7015380Y-12840952D01*
X-6920142Y-12793333D01*
X-6824904Y-12793333D01*
X-6682047Y-12840952D01*
X-6110619Y-13412380D01*
X-6110619Y-12793333D01*
X-2879952Y-12261428D02*
X-2118047Y-12261428D01*
X-2499000Y-12642380D02*
X-2499000Y-11880476D01*
X-2879952Y-14801428D02*
X-2118047Y-14801428D01*
G04 #@! TD*
M02*
