  0
SECTION
  2
HEADER
  9
$ACADVER
  1
AC1021
  9
$ACADMAINTVER
 70
    25
  9
$DWGCODEPAGE
  3
ANSI_1252
  9
$INSBASE
 10
0.0
 20
0.0
 30
0.0
  9
$EXTMIN
 10
-38.17822
 20
-34.52822
 30
0.0
  9
$EXTMAX
 10
1.17822
 20
-15.17178
 30
0.0
  9
$LIMMIN
 10
0.0
 20
0.0
  9
$LIMMAX
 10
12.0
 20
9.0
  9
$ORTHOMODE
 70
     0
  9
$REGENMODE
 70
     1
  9
$FILLMODE
 70
     1
  9
$QTEXTMODE
 70
     0
  9
$MIRRTEXT
 70
     1
  9
$LTSCALE
 40
1.0
  9
$ATTMODE
 70
     1
  9
$TEXTSIZE
 40
0.2
  9
$TRACEWID
 40
0.05
  9
$TEXTSTYLE
  7
Standard
  9
$CLAYER
  8
0
  9
$CELTYPE
  6
ByLayer
  9
$CECOLOR
 62
   256
  9
$CELTSCALE
 40
1.0
  9
$DISPSILH
 70
     0
  9
$DIMSCALE
 40
1.0
  9
$DIMASZ
 40
0.18
  9
$DIMEXO
 40
0.0625
  9
$DIMDLI
 40
0.38
  9
$DIMRND
 40
0.0
  9
$DIMDLE
 40
0.0
  9
$DIMEXE
 40
0.18
  9
$DIMTP
 40
0.0
  9
$DIMTM
 40
0.0
  9
$DIMTXT
 40
0.18
  9
$DIMCEN
 40
0.09
  9
$DIMTSZ
 40
0.0
  9
$DIMTOL
 70
     0
  9
$DIMLIM
 70
     0
  9
$DIMTIH
 70
     1
  9
$DIMTOH
 70
     1
  9
$DIMSE1
 70
     0
  9
$DIMSE2
 70
     0
  9
$DIMTAD
 70
     0
  9
$DIMZIN
 70
     0
  9
$DIMBLK
  1

  9
$DIMASO
 70
     1
  9
$DIMSHO
 70
     1
  9
$DIMPOST
  1

  9
$DIMAPOST
  1

  9
$DIMALT
 70
     0
  9
$DIMALTD
 70
     2
  9
$DIMALTF
 40
25.4
  9
$DIMLFAC
 40
1.0
  9
$DIMTOFL
 70
     0
  9
$DIMTVP
 40
0.0
  9
$DIMTIX
 70
     0
  9
$DIMSOXD
 70
     0
  9
$DIMSAH
 70
     0
  9
$DIMBLK1
  1

  9
$DIMBLK2
  1

  9
$DIMSTYLE
  2
Standard
  9
$DIMCLRD
 70
     0
  9
$DIMCLRE
 70
     0
  9
$DIMCLRT
 70
     0
  9
$DIMTFAC
 40
1.0
  9
$DIMGAP
 40
0.09
  9
$DIMJUST
 70
     0
  9
$DIMSD1
 70
     0
  9
$DIMSD2
 70
     0
  9
$DIMTOLJ
 70
     1
  9
$DIMTZIN
 70
     0
  9
$DIMALTZ
 70
     0
  9
$DIMALTTZ
 70
     0
  9
$DIMUPT
 70
     0
  9
$DIMDEC
 70
     4
  9
$DIMTDEC
 70
     4
  9
$DIMALTU
 70
     2
  9
$DIMALTTD
 70
     2
  9
$DIMTXSTY
  7
Standard
  9
$DIMAUNIT
 70
     0
  9
$DIMADEC
 70
     0
  9
$DIMALTRND
 40
0.0
  9
$DIMAZIN
 70
     0
  9
$DIMDSEP
 70
    46
  9
$DIMATFIT
 70
     3
  9
$DIMFRAC
 70
     0
  9
$DIMLDRBLK
  1

  9
$DIMLUNIT
 70
     2
  9
$DIMLWD
 70
    -2
  9
$DIMLWE
 70
    -2
  9
$DIMTMOVE
 70
     0
  9
$DIMFXL
 40
1.0
  9
$DIMFXLON
 70
     0
  9
$DIMJOGANG
 40
0.7853981633974483
  9
$DIMTFILL
 70
     0
  9
$DIMTFILLCLR
 70
     0
  9
$DIMARCSYM
 70
     0
  9
$DIMLTYPE
  6

  9
$DIMLTEX1
  6

  9
$DIMLTEX2
  6

  9
$LUNITS
 70
     2
  9
$LUPREC
 70
     4
  9
$SKETCHINC
 40
0.1
  9
$FILLETRAD
 40
0.5
  9
$AUNITS
 70
     0
  9
$AUPREC
 70
     0
  9
$MENU
  1
.
  9
$ELEVATION
 40
0.0
  9
$PELEVATION
 40
0.0
  9
$THICKNESS
 40
0.0
  9
$LIMCHECK
 70
     0
  9
$CHAMFERA
 40
0.5
  9
$CHAMFERB
 40
0.5
  9
$CHAMFERC
 40
1.0
  9
$CHAMFERD
 40
0.0
  9
$SKPOLY
 70
     0
  9
$TDCREATE
 40
2456978.491125394
  9
$TDUCREATE
 40
2456978.491125394
  9
$TDUPDATE
 40
2456978.491125405
  9
$TDUUPDATE
 40
2456978.491125405
  9
$TDINDWG
 40
0.0000000116
  9
$TDUSRTIMER
 40
0.0000000116
  9
$USRTIMER
 70
     1
  9
$ANGBASE
 50
0.0
  9
$ANGDIR
 70
     0
  9
$PDMODE
 70
     0
  9
$PDSIZE
 40
0.0
  9
$PLINEWID
 40
0.0
  9
$SPLFRAME
 70
     0
  9
$SPLINETYPE
 70
     6
  9
$SPLINESEGS
 70
     8
  9
$HANDSEED
  5
FB
  9
$SURFTAB1
 70
     6
  9
$SURFTAB2
 70
     6
  9
$SURFTYPE
 70
     6
  9
$SURFU
 70
     6
  9
$SURFV
 70
     6
  9
$UCSBASE
  2

  9
$UCSNAME
  2

  9
$UCSORG
 10
0.0
 20
0.0
 30
0.0
  9
$UCSXDIR
 10
1.0
 20
0.0
 30
0.0
  9
$UCSYDIR
 10
0.0
 20
1.0
 30
0.0
  9
$UCSORTHOREF
  2

  9
$UCSORTHOVIEW
 70
     0
  9
$UCSORGTOP
 10
0.0
 20
0.0
 30
0.0
  9
$UCSORGBOTTOM
 10
0.0
 20
0.0
 30
0.0
  9
$UCSORGLEFT
 10
0.0
 20
0.0
 30
0.0
  9
$UCSORGRIGHT
 10
0.0
 20
0.0
 30
0.0
  9
$UCSORGFRONT
 10
0.0
 20
0.0
 30
0.0
  9
$UCSORGBACK
 10
0.0
 20
0.0
 30
0.0
  9
$PUCSBASE
  2

  9
$PUCSNAME
  2

  9
$PUCSORG
 10
0.0
 20
0.0
 30
0.0
  9
$PUCSXDIR
 10
1.0
 20
0.0
 30
0.0
  9
$PUCSYDIR
 10
0.0
 20
1.0
 30
0.0
  9
$PUCSORTHOREF
  2

  9
$PUCSORTHOVIEW
 70
     0
  9
$PUCSORGTOP
 10
0.0
 20
0.0
 30
0.0
  9
$PUCSORGBOTTOM
 10
0.0
 20
0.0
 30
0.0
  9
$PUCSORGLEFT
 10
0.0
 20
0.0
 30
0.0
  9
$PUCSORGRIGHT
 10
0.0
 20
0.0
 30
0.0
  9
$PUCSORGFRONT
 10
0.0
 20
0.0
 30
0.0
  9
$PUCSORGBACK
 10
0.0
 20
0.0
 30
0.0
  9
$USERI1
 70
     0
  9
$USERI2
 70
     0
  9
$USERI3
 70
     0
  9
$USERI4
 70
     0
  9
$USERI5
 70
     0
  9
$USERR1
 40
0.0
  9
$USERR2
 40
0.0
  9
$USERR3
 40
0.0
  9
$USERR4
 40
0.0
  9
$USERR5
 40
0.0
  9
$WORLDVIEW
 70
     1
  9
$SHADEDGE
 70
     3
  9
$SHADEDIF
 70
    70
  9
$TILEMODE
 70
     1
  9
$MAXACTVP
 70
    64
  9
$PINSBASE
 10
0.0
 20
0.0
 30
0.0
  9
$PLIMCHECK
 70
     0
  9
$PEXTMIN
 10
1.000000000000000E+20
 20
1.000000000000000E+20
 30
1.000000000000000E+20
  9
$PEXTMAX
 10
-1.000000000000000E+20
 20
-1.000000000000000E+20
 30
-1.000000000000000E+20
  9
$PLIMMIN
 10
0.0
 20
0.0
  9
$PLIMMAX
 10
12.0
 20
9.0
  9
$UNITMODE
 70
     0
  9
$VISRETAIN
 70
     1
  9
$PLINEGEN
 70
     0
  9
$PSLTSCALE
 70
     1
  9
$TREEDEPTH
 70
  3020
  9
$CMLSTYLE
  2
Standard
  9
$CMLJUST
 70
     0
  9
$CMLSCALE
 40
1.0
  9
$PROXYGRAPHICS
 70
     1
  9
$MEASUREMENT
 70
     0
  9
$CELWEIGHT
370
    -1
  9
$ENDCAPS
280
     0
  9
$JOINSTYLE
280
     0
  9
$LWDISPLAY
290
     0
  9
$INSUNITS
 70
     5
  9
$HYPERLINKBASE
  1

  9
$STYLESHEET
  1

  9
$XEDIT
290
     1
  9
$CEPSNTYPE
380
     0
  9
$PSTYLEMODE
290
     1
  9
$FINGERPRINTGUID
  2
{BB632FD5-E230-4B28-B616-4F8B964AE7B1}
  9
$VERSIONGUID
  2
{FAEB1C32-E019-11D5-929B-00C0DF256EC4}
  9
$EXTNAMES
290
     1
  9
$PSVPSCALE
 40
0.0
  9
$OLESTARTUP
290
     0
  9
$SORTENTS
280
   127
  9
$INDEXCTL
280
     0
  9
$HIDETEXT
280
     1
  9
$XCLIPFRAME
290
     0
  9
$HALOGAP
280
     0
  9
$OBSCOLOR
 70
   257
  9
$OBSLTYPE
280
     0
  9
$INTERSECTIONDISPLAY
280
     0
  9
$INTERSECTIONCOLOR
 70
   257
  9
$DIMASSOC
280
     2
  9
$PROJECTNAME
  1

  9
$CAMERADISPLAY
290
     0
  9
$LENSLENGTH
 40
50.0
  9
$CAMERAHEIGHT
 40
0.0
  9
$STEPSPERSEC
 40
2.0
  9
$STEPSIZE
 40
6.0
  9
$3DDWFPREC
 40
2.0
  9
$PSOLWIDTH
 40
0.25
  9
$PSOLHEIGHT
 40
4.0
  9
$LOFTANG1
 40
1.570796326794897
  9
$LOFTANG2
 40
1.570796326794897
  9
$LOFTMAG1
 40
0.0
  9
$LOFTMAG2
 40
0.0
  9
$LOFTPARAM
 70
     7
  9
$LOFTNORMALS
280
     1
  9
$LATITUDE
 40
37.795
  9
$LONGITUDE
 40
-122.394
  9
$NORTHDIRECTION
 40
0.0
  9
$TIMEZONE
 70
 -8000
  9
$LIGHTGLYPHDISPLAY
280
     1
  9
$TILEMODELIGHTSYNCH
280
     1
  9
$SOLIDHIST
280
     1
  9
$SHOWHIST
280
     1
  9
$DWFFRAME
280
     2
  9
$DGNFRAME
280
     2
  9
$REALWORLDSCALE
290
     1
  9
$INTERFERECOLOR
 62
   256
  9
$CSHADOW
280
     0
  9
$SHADOWPLANELOCATION
 40
0.0
  0
ENDSEC
  0
SECTION
  2
CLASSES
  0
CLASS
  1
ACDBDICTIONARYWDFLT
  2
AcDbDictionaryWithDefault
  3
ObjectDBX Classes
 90
        0
 91
        3
280
     0
281
     0
  0
CLASS
  1
VISUALSTYLE
  2
AcDbVisualStyle
  3
ObjectDBX Classes
 90
     4095
 91
        3
280
     0
281
     0
  0
CLASS
  1
SCALE
  2
AcDbScale
  3
ObjectDBX Classes
 90
     1153
 91
        3
280
     0
281
     0
  0
ENDSEC
  0
SECTION
  2
TABLES
  0
TABLE
  2
VPORT
  5
8
330
0
100
AcDbSymbolTable
 70
     1
  0
VPORT
  5
29
330
8
100
AcDbSymbolTableRecord
100
AcDbViewportTableRecord
  2
*Active
 70
     0
 10
0.0
 20
0.0
 11
1.0
 21
1.0
 12
10.42990654205607
 22
4.5
 13
0.0
 23
0.0
 14
0.5
 24
0.5
 15
0.5
 25
0.5
 16
0.0
 26
0.0
 36
1.0
 17
0.0
 27
0.0
 37
0.0
 40
9.0
 41
1.972972972850329
 42
50.0
 43
0.0
 44
0.0
 50
0.0
 51
0.0
 71
     0
 72
   100
 73
     1
 74
     3
 75
     0
 76
     0
 77
     0
 78
     0
281
     0
 65
     1
110
0.0
120
0.0
130
0.0
111
1.0
121
0.0
131
0.0
112
0.0
122
1.0
132
0.0
 79
     0
146
0.0
 60
     3
 61
     5
292
     1
282
     1
141
0.0
142
0.0
 63
   256
  0
ENDTAB
  0
TABLE
  2
LTYPE
  5
5
330
0
100
AcDbSymbolTable
 70
     1
  0
LTYPE
  5
14
330
5
100
AcDbSymbolTableRecord
100
AcDbLinetypeTableRecord
  2
ByBlock
 70
     0
  3

 72
    65
 73
     0
 40
0.0
  0
LTYPE
  5
15
330
5
100
AcDbSymbolTableRecord
100
AcDbLinetypeTableRecord
  2
ByLayer
 70
     0
  3

 72
    65
 73
     0
 40
0.0
  0
LTYPE
  5
16
330
5
100
AcDbSymbolTableRecord
100
AcDbLinetypeTableRecord
  2
Continuous
 70
     0
  3
Solid line
 72
    65
 73
     0
 40
0.0
  0
ENDTAB
  0
TABLE
  2
LAYER
  5
2
330
0
100
AcDbSymbolTable
 70
     2
  0
LAYER
  5
10
330
2
100
AcDbSymbolTableRecord
100
AcDbLayerTableRecord
  2
0
 70
     0
 62
     7
  6
Continuous
370
    -3
390
F
347
0
  0
LAYER
  5
5E
330
2
100
AcDbSymbolTableRecord
100
AcDbLayerTableRecord
  2
Layer 1
 70
     0
 62
     7
  6
Continuous
370
    -3
390
F
347
0
  0
ENDTAB
  0
TABLE
  2
STYLE
  5
3
330
0
100
AcDbSymbolTable
 70
     1
  0
STYLE
  5
11
330
3
100
AcDbSymbolTableRecord
100
AcDbTextStyleTableRecord
  2
Standard
 70
     0
 40
0.0
 41
1.0
 50
0.0
 71
     0
 42
0.2
  3
txt
  4

  0
ENDTAB
  0
TABLE
  2
VIEW
  5
6
330
0
100
AcDbSymbolTable
 70
     0
  0
ENDTAB
  0
TABLE
  2
UCS
  5
7
330
0
100
AcDbSymbolTable
 70
     0
  0
ENDTAB
  0
TABLE
  2
APPID
  5
9
330
0
100
AcDbSymbolTable
 70
     2
  0
APPID
  5
12
330
9
100
AcDbSymbolTableRecord
100
AcDbRegAppTableRecord
  2
ACAD
 70
     0
  0
APPID
  5
5D
330
9
100
AcDbSymbolTableRecord
100
AcDbRegAppTableRecord
  2
ODA
 70
     0
  0
ENDTAB
  0
TABLE
  2
DIMSTYLE
  5
A
330
0
100
AcDbSymbolTable
 70
     1
100
AcDbDimStyleTable
  0
DIMSTYLE
105
27
330
A
100
AcDbSymbolTableRecord
100
AcDbDimStyleTableRecord
  2
Standard
 70
     0
340
11
  0
ENDTAB
  0
TABLE
  2
BLOCK_RECORD
  5
1
330
0
100
AcDbSymbolTable
 70
     1
  0
BLOCK_RECORD
  5
1F
330
1
100
AcDbSymbolTableRecord
100
AcDbBlockTableRecord
  2
*Model_Space
340
22
 70
     0
280
     1
281
     0
  0
BLOCK_RECORD
  5
1B
330
1
100
AcDbSymbolTableRecord
100
AcDbBlockTableRecord
  2
*Paper_Space
340
1E
 70
     0
280
     1
281
     0
  0
BLOCK_RECORD
  5
23
330
1
100
AcDbSymbolTableRecord
100
AcDbBlockTableRecord
  2
*Paper_Space0
340
26
 70
     0
280
     1
281
     0
  0
ENDTAB
  0
ENDSEC
  0
SECTION
  2
BLOCKS
  0
BLOCK
  5
20
330
1F
100
AcDbEntity
  8
0
100
AcDbBlockBegin
  2
*Model_Space
 70
     0
 10
0.0
 20
0.0
 30
0.0
  3
*Model_Space
  1

  0
ENDBLK
  5
21
330
1F
100
AcDbEntity
  8
0
100
AcDbBlockEnd
  0
BLOCK
  5
1C
330
1B
100
AcDbEntity
 67
     1
  8
0
100
AcDbBlockBegin
  2
*Paper_Space
 70
     0
 10
0.0
 20
0.0
 30
0.0
  3
*Paper_Space
  1

  0
ENDBLK
  5
1D
330
1B
100
AcDbEntity
 67
     1
  8
0
100
AcDbBlockEnd
  0
BLOCK
  5
24
330
23
100
AcDbEntity
  8
0
100
AcDbBlockBegin
  2
*Paper_Space0
 70
     0
 10
0.0
 20
0.0
 30
0.0
  3
*Paper_Space0
  1

  0
ENDBLK
  5
25
330
23
100
AcDbEntity
  8
0
100
AcDbBlockEnd
  0
ENDSEC
  0
SECTION
  2
ENTITIES
  0
SPLINE
  5
5F
330
1F
100
AcDbEntity
  8
Layer 1
 62
   250
370
    53
100
AcDbSpline
210
0.0
220
0.0
230
1.0
 70
    11
 71
     3
 72
  1124
 73
  1120
 74
     0
 42
0.0000000001
 43
0.0000000001
 40
0.0
 40
0.0
 40
0.0
 40
0.0
 40
0.0035714285714286
 40
0.0035714285714286
 40
0.0035714285714286
 40
0.0035714285714286
 40
0.0071428571428571
 40
0.0071428571428571
 40
0.0071428571428571
 40
0.0071428571428571
 40
0.0107142857142857
 40
0.0107142857142857
 40
0.0107142857142857
 40
0.0107142857142857
 40
0.0142857142857143
 40
0.0142857142857143
 40
0.0142857142857143
 40
0.0142857142857143
 40
0.0178571428571429
 40
0.0178571428571429
 40
0.0178571428571429
 40
0.0178571428571429
 40
0.0214285714285714
 40
0.0214285714285714
 40
0.0214285714285714
 40
0.0214285714285714
 40
0.025
 40
0.025
 40
0.025
 40
0.025
 40
0.0285714285714286
 40
0.0285714285714286
 40
0.0285714285714286
 40
0.0285714285714286
 40
0.0321428571428571
 40
0.0321428571428571
 40
0.0321428571428571
 40
0.0321428571428571
 40
0.0357142857142857
 40
0.0357142857142857
 40
0.0357142857142857
 40
0.0357142857142857
 40
0.0392857142857143
 40
0.0392857142857143
 40
0.0392857142857143
 40
0.0392857142857143
 40
0.0428571428571429
 40
0.0428571428571429
 40
0.0428571428571429
 40
0.0428571428571429
 40
0.0464285714285714
 40
0.0464285714285714
 40
0.0464285714285714
 40
0.0464285714285714
 40
0.05
 40
0.05
 40
0.05
 40
0.05
 40
0.0535714285714286
 40
0.0535714285714286
 40
0.0535714285714286
 40
0.0535714285714286
 40
0.0571428571428572
 40
0.0571428571428572
 40
0.0571428571428572
 40
0.0571428571428572
 40
0.0607142857142857
 40
0.0607142857142857
 40
0.0607142857142857
 40
0.0607142857142857
 40
0.0642857142857143
 40
0.0642857142857143
 40
0.0642857142857143
 40
0.0642857142857143
 40
0.0678571428571429
 40
0.0678571428571429
 40
0.0678571428571429
 40
0.0678571428571429
 40
0.0714285714285714
 40
0.0714285714285714
 40
0.0714285714285714
 40
0.0714285714285714
 40
0.075
 40
0.075
 40
0.075
 40
0.075
 40
0.0785714285714286
 40
0.0785714285714286
 40
0.0785714285714286
 40
0.0785714285714286
 40
0.0821428571428572
 40
0.0821428571428572
 40
0.0821428571428572
 40
0.0821428571428572
 40
0.0857142857142857
 40
0.0857142857142857
 40
0.0857142857142857
 40
0.0857142857142857
 40
0.0892857142857143
 40
0.0892857142857143
 40
0.0892857142857143
 40
0.0892857142857143
 40
0.0928571428571429
 40
0.0928571428571429
 40
0.0928571428571429
 40
0.0928571428571429
 40
0.0964285714285714
 40
0.0964285714285714
 40
0.0964285714285714
 40
0.0964285714285714
 40
0.1
 40
0.1
 40
0.1
 40
0.1
 40
0.1035714285714286
 40
0.1035714285714286
 40
0.1035714285714286
 40
0.1035714285714286
 40
0.1071428571428572
 40
0.1071428571428572
 40
0.1071428571428572
 40
0.1071428571428572
 40
0.1107142857142857
 40
0.1107142857142857
 40
0.1107142857142857
 40
0.1107142857142857
 40
0.1142857142857143
 40
0.1142857142857143
 40
0.1142857142857143
 40
0.1142857142857143
 40
0.1178571428571429
 40
0.1178571428571429
 40
0.1178571428571429
 40
0.1178571428571429
 40
0.1214285714285715
 40
0.1214285714285715
 40
0.1214285714285715
 40
0.1214285714285715
 40
0.125
 40
0.125
 40
0.125
 40
0.125
 40
0.1285714285714286
 40
0.1285714285714286
 40
0.1285714285714286
 40
0.1285714285714286
 40
0.1321428571428571
 40
0.1321428571428571
 40
0.1321428571428571
 40
0.1321428571428571
 40
0.1357142857142857
 40
0.1357142857142857
 40
0.1357142857142857
 40
0.1357142857142857
 40
0.1392857142857143
 40
0.1392857142857143
 40
0.1392857142857143
 40
0.1392857142857143
 40
0.1428571428571428
 40
0.1428571428571428
 40
0.1428571428571428
 40
0.1428571428571428
 40
0.1464285714285714
 40
0.1464285714285714
 40
0.1464285714285714
 40
0.1464285714285714
 40
0.1499999999999999
 40
0.1499999999999999
 40
0.1499999999999999
 40
0.1499999999999999
 40
0.1535714285714285
 40
0.1535714285714285
 40
0.1535714285714285
 40
0.1535714285714285
 40
0.1571428571428571
 40
0.1571428571428571
 40
0.1571428571428571
 40
0.1571428571428571
 40
0.1607142857142856
 40
0.1607142857142856
 40
0.1607142857142856
 40
0.1607142857142856
 40
0.1642857142857142
 40
0.1642857142857142
 40
0.1642857142857142
 40
0.1642857142857142
 40
0.1678571428571427
 40
0.1678571428571427
 40
0.1678571428571427
 40
0.1678571428571427
 40
0.1714285714285713
 40
0.1714285714285713
 40
0.1714285714285713
 40
0.1714285714285713
 40
0.1749999999999999
 40
0.1749999999999999
 40
0.1749999999999999
 40
0.1749999999999999
 40
0.1785714285714284
 40
0.1785714285714284
 40
0.1785714285714284
 40
0.1785714285714284
 40
0.182142857142857
 40
0.182142857142857
 40
0.182142857142857
 40
0.182142857142857
 40
0.1857142857142855
 40
0.1857142857142855
 40
0.1857142857142855
 40
0.1857142857142855
 40
0.1892857142857141
 40
0.1892857142857141
 40
0.1892857142857141
 40
0.1892857142857141
 40
0.1928571428571426
 40
0.1928571428571426
 40
0.1928571428571426
 40
0.1928571428571426
 40
0.1964285714285712
 40
0.1964285714285712
 40
0.1964285714285712
 40
0.1964285714285712
 40
0.1999999999999998
 40
0.1999999999999998
 40
0.1999999999999998
 40
0.1999999999999998
 40
0.2035714285714283
 40
0.2035714285714283
 40
0.2035714285714283
 40
0.2035714285714283
 40
0.2071428571428569
 40
0.2071428571428569
 40
0.2071428571428569
 40
0.2071428571428569
 40
0.2107142857142854
 40
0.2107142857142854
 40
0.2107142857142854
 40
0.2107142857142854
 40
0.214285714285714
 40
0.214285714285714
 40
0.214285714285714
 40
0.214285714285714
 40
0.2178571428571426
 40
0.2178571428571426
 40
0.2178571428571426
 40
0.2178571428571426
 40
0.2214285714285711
 40
0.2214285714285711
 40
0.2214285714285711
 40
0.2214285714285711
 40
0.2249999999999997
 40
0.2249999999999997
 40
0.2249999999999997
 40
0.2249999999999997
 40
0.2285714285714282
 40
0.2285714285714282
 40
0.2285714285714282
 40
0.2285714285714282
 40
0.2321428571428568
 40
0.2321428571428568
 40
0.2321428571428568
 40
0.2321428571428568
 40
0.2357142857142853
 40
0.2357142857142853
 40
0.2357142857142853
 40
0.2357142857142853
 40
0.2392857142857139
 40
0.2392857142857139
 40
0.2392857142857139
 40
0.2392857142857139
 40
0.2428571428571425
 40
0.2428571428571425
 40
0.2428571428571425
 40
0.2428571428571425
 40
0.246428571428571
 40
0.246428571428571
 40
0.246428571428571
 40
0.246428571428571
 40
0.2499999999999996
 40
0.2499999999999996
 40
0.2499999999999996
 40
0.2499999999999996
 40
0.2535714285714282
 40
0.2535714285714282
 40
0.2535714285714282
 40
0.2535714285714282
 40
0.2571428571428567
 40
0.2571428571428567
 40
0.2571428571428567
 40
0.2571428571428567
 40
0.2607142857142853
 40
0.2607142857142853
 40
0.2607142857142853
 40
0.2607142857142853
 40
0.2642857142857138
 40
0.2642857142857138
 40
0.2642857142857138
 40
0.2642857142857138
 40
0.2678571428571424
 40
0.2678571428571424
 40
0.2678571428571424
 40
0.2678571428571424
 40
0.271428571428571
 40
0.271428571428571
 40
0.271428571428571
 40
0.271428571428571
 40
0.2749999999999995
 40
0.2749999999999995
 40
0.2749999999999995
 40
0.2749999999999995
 40
0.2785714285714281
 40
0.2785714285714281
 40
0.2785714285714281
 40
0.2785714285714281
 40
0.2821428571428566
 40
0.2821428571428566
 40
0.2821428571428566
 40
0.2821428571428566
 40
0.2857142857142852
 40
0.2857142857142852
 40
0.2857142857142852
 40
0.2857142857142852
 40
0.2892857142857138
 40
0.2892857142857138
 40
0.2892857142857138
 40
0.2892857142857138
 40
0.2928571428571423
 40
0.2928571428571423
 40
0.2928571428571423
 40
0.2928571428571423
 40
0.2964285714285709
 40
0.2964285714285709
 40
0.2964285714285709
 40
0.2964285714285709
 40
0.2999999999999994
 40
0.2999999999999994
 40
0.2999999999999994
 40
0.2999999999999994
 40
0.303571428571428
 40
0.303571428571428
 40
0.303571428571428
 40
0.303571428571428
 40
0.3071428571428566
 40
0.3071428571428566
 40
0.3071428571428566
 40
0.3071428571428566
 40
0.3107142857142851
 40
0.3107142857142851
 40
0.3107142857142851
 40
0.3107142857142851
 40
0.3142857142857137
 40
0.3142857142857137
 40
0.3142857142857137
 40
0.3142857142857137
 40
0.3178571428571422
 40
0.3178571428571422
 40
0.3178571428571422
 40
0.3178571428571422
 40
0.3214285714285708
 40
0.3214285714285708
 40
0.3214285714285708
 40
0.3214285714285708
 40
0.3249999999999993
 40
0.3249999999999993
 40
0.3249999999999993
 40
0.3249999999999993
 40
0.3285714285714279
 40
0.3285714285714279
 40
0.3285714285714279
 40
0.3285714285714279
 40
0.3321428571428565
 40
0.3321428571428565
 40
0.3321428571428565
 40
0.3321428571428565
 40
0.335714285714285
 40
0.335714285714285
 40
0.335714285714285
 40
0.335714285714285
 40
0.3392857142857136
 40
0.3392857142857136
 40
0.3392857142857136
 40
0.3392857142857136
 40
0.3428571428571421
 40
0.3428571428571421
 40
0.3428571428571421
 40
0.3428571428571421
 40
0.3464285714285707
 40
0.3464285714285707
 40
0.3464285714285707
 40
0.3464285714285707
 40
0.3499999999999993
 40
0.3499999999999993
 40
0.3499999999999993
 40
0.3499999999999993
 40
0.3535714285714278
 40
0.3535714285714278
 40
0.3535714285714278
 40
0.3535714285714278
 40
0.3571428571428564
 40
0.3571428571428564
 40
0.3571428571428564
 40
0.3571428571428564
 40
0.3607142857142849
 40
0.3607142857142849
 40
0.3607142857142849
 40
0.3607142857142849
 40
0.3642857142857135
 40
0.3642857142857135
 40
0.3642857142857135
 40
0.3642857142857135
 40
0.367857142857142
 40
0.367857142857142
 40
0.367857142857142
 40
0.367857142857142
 40
0.3714285714285706
 40
0.3714285714285706
 40
0.3714285714285706
 40
0.3714285714285706
 40
0.3749999999999992
 40
0.3749999999999992
 40
0.3749999999999992
 40
0.3749999999999992
 40
0.3785714285714277
 40
0.3785714285714277
 40
0.3785714285714277
 40
0.3785714285714277
 40
0.3821428571428563
 40
0.3821428571428563
 40
0.3821428571428563
 40
0.3821428571428563
 40
0.3857142857142848
 40
0.3857142857142848
 40
0.3857142857142848
 40
0.3857142857142848
 40
0.3892857142857134
 40
0.3892857142857134
 40
0.3892857142857134
 40
0.3892857142857134
 40
0.392857142857142
 40
0.392857142857142
 40
0.392857142857142
 40
0.392857142857142
 40
0.3964285714285705
 40
0.3964285714285705
 40
0.3964285714285705
 40
0.3964285714285705
 40
0.3999999999999991
 40
0.3999999999999991
 40
0.3999999999999991
 40
0.3999999999999991
 40
0.4035714285714276
 40
0.4035714285714276
 40
0.4035714285714276
 40
0.4035714285714276
 40
0.4071428571428562
 40
0.4071428571428562
 40
0.4071428571428562
 40
0.4071428571428562
 40
0.4107142857142848
 40
0.4107142857142848
 40
0.4107142857142848
 40
0.4107142857142848
 40
0.4142857142857133
 40
0.4142857142857133
 40
0.4142857142857133
 40
0.4142857142857133
 40
0.4178571428571419
 40
0.4178571428571419
 40
0.4178571428571419
 40
0.4178571428571419
 40
0.4214285714285704
 40
0.4214285714285704
 40
0.4214285714285704
 40
0.4214285714285704
 40
0.424999999999999
 40
0.424999999999999
 40
0.424999999999999
 40
0.424999999999999
 40
0.4285714285714275
 40
0.4285714285714275
 40
0.4285714285714275
 40
0.4285714285714275
 40
0.4321428571428561
 40
0.4321428571428561
 40
0.4321428571428561
 40
0.4321428571428561
 40
0.4357142857142847
 40
0.4357142857142847
 40
0.4357142857142847
 40
0.4357142857142847
 40
0.4392857142857132
 40
0.4392857142857132
 40
0.4392857142857132
 40
0.4392857142857132
 40
0.4428571428571418
 40
0.4428571428571418
 40
0.4428571428571418
 40
0.4428571428571418
 40
0.4464285714285703
 40
0.4464285714285703
 40
0.4464285714285703
 40
0.4464285714285703
 40
0.4499999999999989
 40
0.4499999999999989
 40
0.4499999999999989
 40
0.4499999999999989
 40
0.4535714285714275
 40
0.4535714285714275
 40
0.4535714285714275
 40
0.4535714285714275
 40
0.457142857142856
 40
0.457142857142856
 40
0.457142857142856
 40
0.457142857142856
 40
0.4607142857142846
 40
0.4607142857142846
 40
0.4607142857142846
 40
0.4607142857142846
 40
0.4642857142857131
 40
0.4642857142857131
 40
0.4642857142857131
 40
0.4642857142857131
 40
0.4678571428571417
 40
0.4678571428571417
 40
0.4678571428571417
 40
0.4678571428571417
 40
0.4714285714285703
 40
0.4714285714285703
 40
0.4714285714285703
 40
0.4714285714285703
 40
0.4749999999999988
 40
0.4749999999999988
 40
0.4749999999999988
 40
0.4749999999999988
 40
0.4785714285714274
 40
0.4785714285714274
 40
0.4785714285714274
 40
0.4785714285714274
 40
0.4821428571428559
 40
0.4821428571428559
 40
0.4821428571428559
 40
0.4821428571428559
 40
0.4857142857142845
 40
0.4857142857142845
 40
0.4857142857142845
 40
0.4857142857142845
 40
0.489285714285713
 40
0.489285714285713
 40
0.489285714285713
 40
0.489285714285713
 40
0.4928571428571416
 40
0.4928571428571416
 40
0.4928571428571416
 40
0.4928571428571416
 40
0.4964285714285702
 40
0.4964285714285702
 40
0.4964285714285702
 40
0.4964285714285702
 40
0.4999999999999987
 40
0.4999999999999987
 40
0.4999999999999987
 40
0.4999999999999987
 40
0.5035714285714273
 40
0.5035714285714273
 40
0.5035714285714273
 40
0.5035714285714273
 40
0.5071428571428559
 40
0.5071428571428559
 40
0.5071428571428559
 40
0.5071428571428559
 40
0.5107142857142845
 40
0.5107142857142845
 40
0.5107142857142845
 40
0.5107142857142845
 40
0.514285714285713
 40
0.514285714285713
 40
0.514285714285713
 40
0.514285714285713
 40
0.5178571428571416
 40
0.5178571428571416
 40
0.5178571428571416
 40
0.5178571428571416
 40
0.5214285714285701
 40
0.5214285714285701
 40
0.5214285714285701
 40
0.5214285714285701
 40
0.5249999999999987
 40
0.5249999999999987
 40
0.5249999999999987
 40
0.5249999999999987
 40
0.5285714285714272
 40
0.5285714285714272
 40
0.5285714285714272
 40
0.5285714285714272
 40
0.5321428571428558
 40
0.5321428571428558
 40
0.5321428571428558
 40
0.5321428571428558
 40
0.5357142857142844
 40
0.5357142857142844
 40
0.5357142857142844
 40
0.5357142857142844
 40
0.5392857142857129
 40
0.5392857142857129
 40
0.5392857142857129
 40
0.5392857142857129
 40
0.5428571428571415
 40
0.5428571428571415
 40
0.5428571428571415
 40
0.5428571428571415
 40
0.54642857142857
 40
0.54642857142857
 40
0.54642857142857
 40
0.54642857142857
 40
0.5499999999999986
 40
0.5499999999999986
 40
0.5499999999999986
 40
0.5499999999999986
 40
0.5535714285714272
 40
0.5535714285714272
 40
0.5535714285714272
 40
0.5535714285714272
 40
0.5571428571428557
 40
0.5571428571428557
 40
0.5571428571428557
 40
0.5571428571428557
 40
0.5607142857142843
 40
0.5607142857142843
 40
0.5607142857142843
 40
0.5607142857142843
 40
0.5642857142857128
 40
0.5642857142857128
 40
0.5642857142857128
 40
0.5642857142857128
 40
0.5678571428571414
 40
0.5678571428571414
 40
0.5678571428571414
 40
0.5678571428571414
 40
0.57142857142857
 40
0.57142857142857
 40
0.57142857142857
 40
0.57142857142857
 40
0.5749999999999985
 40
0.5749999999999985
 40
0.5749999999999985
 40
0.5749999999999985
 40
0.5785714285714271
 40
0.5785714285714271
 40
0.5785714285714271
 40
0.5785714285714271
 40
0.5821428571428556
 40
0.5821428571428556
 40
0.5821428571428556
 40
0.5821428571428556
 40
0.5857142857142842
 40
0.5857142857142842
 40
0.5857142857142842
 40
0.5857142857142842
 40
0.5892857142857127
 40
0.5892857142857127
 40
0.5892857142857127
 40
0.5892857142857127
 40
0.5928571428571413
 40
0.5928571428571413
 40
0.5928571428571413
 40
0.5928571428571413
 40
0.5964285714285699
 40
0.5964285714285699
 40
0.5964285714285699
 40
0.5964285714285699
 40
0.5999999999999984
 40
0.5999999999999984
 40
0.5999999999999984
 40
0.5999999999999984
 40
0.603571428571427
 40
0.603571428571427
 40
0.603571428571427
 40
0.603571428571427
 40
0.6071428571428555
 40
0.6071428571428555
 40
0.6071428571428555
 40
0.6071428571428555
 40
0.6107142857142841
 40
0.6107142857142841
 40
0.6107142857142841
 40
0.6107142857142841
 40
0.6142857142857127
 40
0.6142857142857127
 40
0.6142857142857127
 40
0.6142857142857127
 40
0.6178571428571412
 40
0.6178571428571412
 40
0.6178571428571412
 40
0.6178571428571412
 40
0.6214285714285698
 40
0.6214285714285698
 40
0.6214285714285698
 40
0.6214285714285698
 40
0.6249999999999983
 40
0.6249999999999983
 40
0.6249999999999983
 40
0.6249999999999983
 40
0.6285714285714269
 40
0.6285714285714269
 40
0.6285714285714269
 40
0.6285714285714269
 40
0.6321428571428555
 40
0.6321428571428555
 40
0.6321428571428555
 40
0.6321428571428555
 40
0.635714285714284
 40
0.635714285714284
 40
0.635714285714284
 40
0.635714285714284
 40
0.6392857142857126
 40
0.6392857142857126
 40
0.6392857142857126
 40
0.6392857142857126
 40
0.6428571428571411
 40
0.6428571428571411
 40
0.6428571428571411
 40
0.6428571428571411
 40
0.6464285714285697
 40
0.6464285714285697
 40
0.6464285714285697
 40
0.6464285714285697
 40
0.6499999999999982
 40
0.6499999999999982
 40
0.6499999999999982
 40
0.6499999999999982
 40
0.6535714285714268
 40
0.6535714285714268
 40
0.6535714285714268
 40
0.6535714285714268
 40
0.6571428571428554
 40
0.6571428571428554
 40
0.6571428571428554
 40
0.6571428571428554
 40
0.6607142857142839
 40
0.6607142857142839
 40
0.6607142857142839
 40
0.6607142857142839
 40
0.6642857142857125
 40
0.6642857142857125
 40
0.6642857142857125
 40
0.6642857142857125
 40
0.667857142857141
 40
0.667857142857141
 40
0.667857142857141
 40
0.667857142857141
 40
0.6714285714285696
 40
0.6714285714285696
 40
0.6714285714285696
 40
0.6714285714285696
 40
0.6749999999999982
 40
0.6749999999999982
 40
0.6749999999999982
 40
0.6749999999999982
 40
0.6785714285714267
 40
0.6785714285714267
 40
0.6785714285714267
 40
0.6785714285714267
 40
0.6821428571428553
 40
0.6821428571428553
 40
0.6821428571428553
 40
0.6821428571428553
 40
0.6857142857142838
 40
0.6857142857142838
 40
0.6857142857142838
 40
0.6857142857142838
 40
0.6892857142857124
 40
0.6892857142857124
 40
0.6892857142857124
 40
0.6892857142857124
 40
0.692857142857141
 40
0.692857142857141
 40
0.692857142857141
 40
0.692857142857141
 40
0.6964285714285695
 40
0.6964285714285695
 40
0.6964285714285695
 40
0.6964285714285695
 40
0.6999999999999981
 40
0.6999999999999981
 40
0.6999999999999981
 40
0.6999999999999981
 40
0.7035714285714266
 40
0.7035714285714266
 40
0.7035714285714266
 40
0.7035714285714266
 40
0.7071428571428552
 40
0.7071428571428552
 40
0.7071428571428552
 40
0.7071428571428552
 40
0.7107142857142837
 40
0.7107142857142837
 40
0.7107142857142837
 40
0.7107142857142837
 40
0.7142857142857123
 40
0.7142857142857123
 40
0.7142857142857123
 40
0.7142857142857123
 40
0.7178571428571409
 40
0.7178571428571409
 40
0.7178571428571409
 40
0.7178571428571409
 40
0.7214285714285694
 40
0.7214285714285694
 40
0.7214285714285694
 40
0.7214285714285694
 40
0.724999999999998
 40
0.724999999999998
 40
0.724999999999998
 40
0.724999999999998
 40
0.7285714285714265
 40
0.7285714285714265
 40
0.7285714285714265
 40
0.7285714285714265
 40
0.7321428571428551
 40
0.7321428571428551
 40
0.7321428571428551
 40
0.7321428571428551
 40
0.7357142857142837
 40
0.7357142857142837
 40
0.7357142857142837
 40
0.7357142857142837
 40
0.7392857142857122
 40
0.7392857142857122
 40
0.7392857142857122
 40
0.7392857142857122
 40
0.7428571428571408
 40
0.7428571428571408
 40
0.7428571428571408
 40
0.7428571428571408
 40
0.7464285714285693
 40
0.7464285714285693
 40
0.7464285714285693
 40
0.7464285714285693
 40
0.7499999999999979
 40
0.7499999999999979
 40
0.7499999999999979
 40
0.7499999999999979
 40
0.7535714285714264
 40
0.7535714285714264
 40
0.7535714285714264
 40
0.7535714285714264
 40
0.757142857142855
 40
0.757142857142855
 40
0.757142857142855
 40
0.757142857142855
 40
0.7607142857142836
 40
0.7607142857142836
 40
0.7607142857142836
 40
0.7607142857142836
 40
0.7642857142857121
 40
0.7642857142857121
 40
0.7642857142857121
 40
0.7642857142857121
 40
0.7678571428571407
 40
0.7678571428571407
 40
0.7678571428571407
 40
0.7678571428571407
 40
0.7714285714285692
 40
0.7714285714285692
 40
0.7714285714285692
 40
0.7714285714285692
 40
0.7749999999999978
 40
0.7749999999999978
 40
0.7749999999999978
 40
0.7749999999999978
 40
0.7785714285714264
 40
0.7785714285714264
 40
0.7785714285714264
 40
0.7785714285714264
 40
0.7821428571428549
 40
0.7821428571428549
 40
0.7821428571428549
 40
0.7821428571428549
 40
0.7857142857142835
 40
0.7857142857142835
 40
0.7857142857142835
 40
0.7857142857142835
 40
0.789285714285712
 40
0.789285714285712
 40
0.789285714285712
 40
0.789285714285712
 40
0.7928571428571406
 40
0.7928571428571406
 40
0.7928571428571406
 40
0.7928571428571406
 40
0.7964285714285692
 40
0.7964285714285692
 40
0.7964285714285692
 40
0.7964285714285692
 40
0.7999999999999977
 40
0.7999999999999977
 40
0.7999999999999977
 40
0.7999999999999977
 40
0.8035714285714263
 40
0.8035714285714263
 40
0.8035714285714263
 40
0.8035714285714263
 40
0.8071428571428548
 40
0.8071428571428548
 40
0.8071428571428548
 40
0.8071428571428548
 40
0.8107142857142834
 40
0.8107142857142834
 40
0.8107142857142834
 40
0.8107142857142834
 40
0.814285714285712
 40
0.814285714285712
 40
0.814285714285712
 40
0.814285714285712
 40
0.8178571428571405
 40
0.8178571428571405
 40
0.8178571428571405
 40
0.8178571428571405
 40
0.8214285714285691
 40
0.8214285714285691
 40
0.8214285714285691
 40
0.8214285714285691
 40
0.8249999999999976
 40
0.8249999999999976
 40
0.8249999999999976
 40
0.8249999999999976
 40
0.8285714285714262
 40
0.8285714285714262
 40
0.8285714285714262
 40
0.8285714285714262
 40
0.8321428571428547
 40
0.8321428571428547
 40
0.8321428571428547
 40
0.8321428571428547
 40
0.8357142857142833
 40
0.8357142857142833
 40
0.8357142857142833
 40
0.8357142857142833
 40
0.8392857142857119
 40
0.8392857142857119
 40
0.8392857142857119
 40
0.8392857142857119
 40
0.8428571428571404
 40
0.8428571428571404
 40
0.8428571428571404
 40
0.8428571428571404
 40
0.846428571428569
 40
0.846428571428569
 40
0.846428571428569
 40
0.846428571428569
 40
0.8499999999999975
 40
0.8499999999999975
 40
0.8499999999999975
 40
0.8499999999999975
 40
0.8535714285714261
 40
0.8535714285714261
 40
0.8535714285714261
 40
0.8535714285714261
 40
0.8571428571428547
 40
0.8571428571428547
 40
0.8571428571428547
 40
0.8571428571428547
 40
0.8607142857142832
 40
0.8607142857142832
 40
0.8607142857142832
 40
0.8607142857142832
 40
0.8642857142857118
 40
0.8642857142857118
 40
0.8642857142857118
 40
0.8642857142857118
 40
0.8678571428571403
 40
0.8678571428571403
 40
0.8678571428571403
 40
0.8678571428571403
 40
0.8714285714285689
 40
0.8714285714285689
 40
0.8714285714285689
 40
0.8714285714285689
 40
0.8749999999999974
 40
0.8749999999999974
 40
0.8749999999999974
 40
0.8749999999999974
 40
0.878571428571426
 40
0.878571428571426
 40
0.878571428571426
 40
0.878571428571426
 40
0.8821428571428546
 40
0.8821428571428546
 40
0.8821428571428546
 40
0.8821428571428546
 40
0.8857142857142831
 40
0.8857142857142831
 40
0.8857142857142831
 40
0.8857142857142831
 40
0.8892857142857117
 40
0.8892857142857117
 40
0.8892857142857117
 40
0.8892857142857117
 40
0.8928571428571402
 40
0.8928571428571402
 40
0.8928571428571402
 40
0.8928571428571402
 40
0.8964285714285688
 40
0.8964285714285688
 40
0.8964285714285688
 40
0.8964285714285688
 40
0.8999999999999974
 40
0.8999999999999974
 40
0.8999999999999974
 40
0.8999999999999974
 40
0.9035714285714259
 40
0.9035714285714259
 40
0.9035714285714259
 40
0.9035714285714259
 40
0.9071428571428545
 40
0.9071428571428545
 40
0.9071428571428545
 40
0.9071428571428545
 40
0.910714285714283
 40
0.910714285714283
 40
0.910714285714283
 40
0.910714285714283
 40
0.9142857142857116
 40
0.9142857142857116
 40
0.9142857142857116
 40
0.9142857142857116
 40
0.9178571428571402
 40
0.9178571428571402
 40
0.9178571428571402
 40
0.9178571428571402
 40
0.9214285714285687
 40
0.9214285714285687
 40
0.9214285714285687
 40
0.9214285714285687
 40
0.9249999999999973
 40
0.9249999999999973
 40
0.9249999999999973
 40
0.9249999999999973
 40
0.9285714285714258
 40
0.9285714285714258
 40
0.9285714285714258
 40
0.9285714285714258
 40
0.9321428571428544
 40
0.9321428571428544
 40
0.9321428571428544
 40
0.9321428571428544
 40
0.935714285714283
 40
0.935714285714283
 40
0.935714285714283
 40
0.935714285714283
 40
0.9392857142857115
 40
0.9392857142857115
 40
0.9392857142857115
 40
0.9392857142857115
 40
0.9428571428571401
 40
0.9428571428571401
 40
0.9428571428571401
 40
0.9428571428571401
 40
0.9464285714285686
 40
0.9464285714285686
 40
0.9464285714285686
 40
0.9464285714285686
 40
0.9499999999999972
 40
0.9499999999999972
 40
0.9499999999999972
 40
0.9499999999999972
 40
0.9535714285714257
 40
0.9535714285714257
 40
0.9535714285714257
 40
0.9535714285714257
 40
0.9571428571428543
 40
0.9571428571428543
 40
0.9571428571428543
 40
0.9571428571428543
 40
0.9607142857142829
 40
0.9607142857142829
 40
0.9607142857142829
 40
0.9607142857142829
 40
0.9642857142857114
 40
0.9642857142857114
 40
0.9642857142857114
 40
0.9642857142857114
 40
0.96785714285714
 40
0.96785714285714
 40
0.96785714285714
 40
0.96785714285714
 40
0.9714285714285685
 40
0.9714285714285685
 40
0.9714285714285685
 40
0.9714285714285685
 40
0.9749999999999971
 40
0.9749999999999971
 40
0.9749999999999971
 40
0.9749999999999971
 40
0.9785714285714256
 40
0.9785714285714256
 40
0.9785714285714256
 40
0.9785714285714256
 40
0.9821428571428542
 40
0.9821428571428542
 40
0.9821428571428542
 40
0.9821428571428542
 40
0.9857142857142828
 40
0.9857142857142828
 40
0.9857142857142828
 40
0.9857142857142828
 40
0.9892857142857113
 40
0.9892857142857113
 40
0.9892857142857113
 40
0.9892857142857113
 40
0.9928571428571399
 40
0.9928571428571399
 40
0.9928571428571399
 40
0.9928571428571399
 40
0.9964285714285684
 40
0.9964285714285684
 40
0.9964285714285684
 40
0.9964285714285684
 40
1.0
 40
1.0
 40
1.0
 40
1.0
 10
0.50004
 20
-32.44998
 30
0.0
 10
0.50004
 20
-32.44998
 30
0.0
 10
1.13999
 20
-32.44997
 30
0.0
 10
1.13999
 20
-32.44997
 30
0.0
 10
1.13999
 20
-32.44997
 30
0.0
 10
1.09365
 20
-32.67817
 30
0.0
 10
0.89185
 20
-32.85
 30
0.0
 10
0.65
 20
-32.85
 30
0.0
 10
0.65
 20
-32.85
 30
0.0
 10
0.65
 20
-32.85
 30
0.0
 10
0.0
 20
-32.85
 30
0.0
 10
0.0
 20
-32.85
 30
0.0
 10
0.0
 20
-32.85
 30
0.0
 10
-0.27609
 20
-32.85
 30
0.0
 10
-0.5
 20
-33.07391
 30
0.0
 10
-0.5
 20
-33.35
 30
0.0
 10
-0.5
 20
-33.35
 30
0.0
 10
-0.5
 20
-33.35
 30
0.0
 10
-0.5
 20
-34.0
 30
0.0
 10
-0.5
 20
-34.0
 30
0.0
 10
-0.5
 20
-34.0
 30
0.0
 10
-0.5
 20
-34.24183
 30
0.0
 10
-0.67179
 20
-34.44363
 30
0.0
 10
-0.89996
 20
-34.48998
 30
0.0
 10
-0.89996
 20
-34.48998
 30
0.0
 10
-0.89996
 20
-34.48998
 30
0.0
 10
-0.89995
 20
-34.5
 30
0.0
 10
-0.89995
 20
-34.5
 30
0.0
 10
-0.89995
 20
-34.5
 30
0.0
 10
-0.89995
 20
-34.5
 30
0.0
 10
-0.89995
 20
-33.85
 30
0.0
 10
-0.89995
 20
-33.85
 30
0.0
 10
-0.89995
 20
-33.85
 30
0.0
 10
-0.89995
 20
-33.51868
 30
0.0
 10
-1.16864
 20
-33.24999
 30
0.0
 10
-1.49996
 20
-33.24999
 30
0.0
 10
-1.49996
 20
-33.24999
 30
0.0
 10
-1.83126
 20
-33.24999
 30
0.0
 10
-2.09995
 20
-33.51868
 30
0.0
 10
-2.09995
 20
-33.85
 30
0.0
 10
-2.09995
 20
-33.85
 30
0.0
 10
-2.09995
 20
-33.85
 30
0.0
 10
-2.09995
 20
-34.5
 30
0.0
 10
-2.09995
 20
-34.5
 30
0.0
 10
-2.09995
 20
-34.5
 30
0.0
 10
-2.09995
 20
-34.5
 30
0.0
 10
-2.89995
 20
-34.5
 30
0.0
 10
-2.89995
 20
-34.5
 30
0.0
 10
-2.89995
 20
-34.5
 30
0.0
 10
-2.89995
 20
-34.5
 30
0.0
 10
-2.89995
 20
-33.85
 30
0.0
 10
-2.89995
 20
-33.85
 30
0.0
 10
-2.89995
 20
-33.85
 30
0.0
 10
-2.89995
 20
-33.51868
 30
0.0
 10
-3.16864
 20
-33.24999
 30
0.0
 10
-3.49996
 20
-33.24999
 30
0.0
 10
-3.49996
 20
-33.24999
 30
0.0
 10
-3.83126
 20
-33.24999
 30
0.0
 10
-4.09995
 20
-33.51868
 30
0.0
 10
-4.09995
 20
-33.85
 30
0.0
 10
-4.09995
 20
-33.85
 30
0.0
 10
-4.09995
 20
-33.85
 30
0.0
 10
-4.09995
 20
-34.5
 30
0.0
 10
-4.09995
 20
-34.5
 30
0.0
 10
-4.09995
 20
-34.5
 30
0.0
 10
-4.09995
 20
-34.5
 30
0.0
 10
-4.89995
 20
-34.5
 30
0.0
 10
-4.89995
 20
-34.5
 30
0.0
 10
-4.89995
 20
-34.5
 30
0.0
 10
-4.89995
 20
-34.5
 30
0.0
 10
-4.89995
 20
-33.85
 30
0.0
 10
-4.89995
 20
-33.85
 30
0.0
 10
-4.89995
 20
-33.85
 30
0.0
 10
-4.89995
 20
-33.51868
 30
0.0
 10
-5.16864
 20
-33.24999
 30
0.0
 10
-5.49996
 20
-33.24999
 30
0.0
 10
-5.49996
 20
-33.24999
 30
0.0
 10
-5.83126
 20
-33.24999
 30
0.0
 10
-6.09995
 20
-33.51868
 30
0.0
 10
-6.09995
 20
-33.85
 30
0.0
 10
-6.09995
 20
-33.85
 30
0.0
 10
-6.09995
 20
-33.85
 30
0.0
 10
-6.09995
 20
-34.5
 30
0.0
 10
-6.09995
 20
-34.5
 30
0.0
 10
-6.09995
 20
-34.5
 30
0.0
 10
-6.09995
 20
-34.5
 30
0.0
 10
-6.89995
 20
-34.5
 30
0.0
 10
-6.89995
 20
-34.5
 30
0.0
 10
-6.89995
 20
-34.5
 30
0.0
 10
-6.89995
 20
-34.5
 30
0.0
 10
-6.89995
 20
-33.85
 30
0.0
 10
-6.89995
 20
-33.85
 30
0.0
 10
-6.89995
 20
-33.85
 30
0.0
 10
-6.89995
 20
-33.51868
 30
0.0
 10
-7.16864
 20
-33.24999
 30
0.0
 10
-7.49996
 20
-33.24999
 30
0.0
 10
-7.49996
 20
-33.24999
 30
0.0
 10
-7.83126
 20
-33.24999
 30
0.0
 10
-8.09995
 20
-33.51868
 30
0.0
 10
-8.09995
 20
-33.85
 30
0.0
 10
-8.09995
 20
-33.85
 30
0.0
 10
-8.09995
 20
-33.85
 30
0.0
 10
-8.09995
 20
-34.5
 30
0.0
 10
-8.09995
 20
-34.5
 30
0.0
 10
-8.09995
 20
-34.5
 30
0.0
 10
-8.09995
 20
-34.5
 30
0.0
 10
-8.89995
 20
-34.5
 30
0.0
 10
-8.89995
 20
-34.5
 30
0.0
 10
-8.89995
 20
-34.5
 30
0.0
 10
-8.89995
 20
-34.5
 30
0.0
 10
-8.89995
 20
-33.85
 30
0.0
 10
-8.89995
 20
-33.85
 30
0.0
 10
-8.89995
 20
-33.85
 30
0.0
 10
-8.89995
 20
-33.51868
 30
0.0
 10
-9.16864
 20
-33.24999
 30
0.0
 10
-9.49996
 20
-33.24999
 30
0.0
 10
-9.49996
 20
-33.24999
 30
0.0
 10
-9.83126
 20
-33.24999
 30
0.0
 10
-10.09995
 20
-33.51868
 30
0.0
 10
-10.09995
 20
-33.85
 30
0.0
 10
-10.09995
 20
-33.85
 30
0.0
 10
-10.09995
 20
-33.85
 30
0.0
 10
-10.09995
 20
-34.5
 30
0.0
 10
-10.09995
 20
-34.5
 30
0.0
 10
-10.09995
 20
-34.5
 30
0.0
 10
-10.09995
 20
-34.5
 30
0.0
 10
-10.89995
 20
-34.5
 30
0.0
 10
-10.89995
 20
-34.5
 30
0.0
 10
-10.89995
 20
-34.5
 30
0.0
 10
-10.89995
 20
-34.5
 30
0.0
 10
-10.89995
 20
-33.85
 30
0.0
 10
-10.89995
 20
-33.85
 30
0.0
 10
-10.89995
 20
-33.85
 30
0.0
 10
-10.89995
 20
-33.51868
 30
0.0
 10
-11.16864
 20
-33.24999
 30
0.0
 10
-11.49996
 20
-33.24999
 30
0.0
 10
-11.49996
 20
-33.24999
 30
0.0
 10
-11.83126
 20
-33.24999
 30
0.0
 10
-12.09995
 20
-33.51868
 30
0.0
 10
-12.09995
 20
-33.85
 30
0.0
 10
-12.09995
 20
-33.85
 30
0.0
 10
-12.09995
 20
-33.85
 30
0.0
 10
-12.09995
 20
-34.5
 30
0.0
 10
-12.09995
 20
-34.5
 30
0.0
 10
-12.09995
 20
-34.5
 30
0.0
 10
-12.09995
 20
-34.5
 30
0.0
 10
-12.89995
 20
-34.5
 30
0.0
 10
-12.89995
 20
-34.5
 30
0.0
 10
-12.89995
 20
-34.5
 30
0.0
 10
-12.89995
 20
-34.5
 30
0.0
 10
-12.89995
 20
-33.85
 30
0.0
 10
-12.89995
 20
-33.85
 30
0.0
 10
-12.89995
 20
-33.85
 30
0.0
 10
-12.89995
 20
-33.51868
 30
0.0
 10
-13.16864
 20
-33.24999
 30
0.0
 10
-13.49996
 20
-33.24999
 30
0.0
 10
-13.49996
 20
-33.24999
 30
0.0
 10
-13.83126
 20
-33.24999
 30
0.0
 10
-14.09995
 20
-33.51868
 30
0.0
 10
-14.09995
 20
-33.85
 30
0.0
 10
-14.09995
 20
-33.85
 30
0.0
 10
-14.09995
 20
-33.85
 30
0.0
 10
-14.09995
 20
-34.5
 30
0.0
 10
-14.09995
 20
-34.5
 30
0.0
 10
-14.09995
 20
-34.5
 30
0.0
 10
-14.09995
 20
-34.5
 30
0.0
 10
-14.89995
 20
-34.5
 30
0.0
 10
-14.89995
 20
-34.5
 30
0.0
 10
-14.89995
 20
-34.5
 30
0.0
 10
-14.89995
 20
-34.5
 30
0.0
 10
-14.89995
 20
-33.85
 30
0.0
 10
-14.89995
 20
-33.85
 30
0.0
 10
-14.89995
 20
-33.85
 30
0.0
 10
-14.89995
 20
-33.51868
 30
0.0
 10
-15.16864
 20
-33.24999
 30
0.0
 10
-15.49996
 20
-33.24999
 30
0.0
 10
-15.49996
 20
-33.24999
 30
0.0
 10
-15.83126
 20
-33.24999
 30
0.0
 10
-16.09995
 20
-33.51868
 30
0.0
 10
-16.09995
 20
-33.85
 30
0.0
 10
-16.09995
 20
-33.85
 30
0.0
 10
-16.09995
 20
-33.85
 30
0.0
 10
-16.09995
 20
-34.5
 30
0.0
 10
-16.09995
 20
-34.5
 30
0.0
 10
-16.09995
 20
-34.5
 30
0.0
 10
-16.09995
 20
-34.5
 30
0.0
 10
-16.89995
 20
-34.5
 30
0.0
 10
-16.89995
 20
-34.5
 30
0.0
 10
-16.89995
 20
-34.5
 30
0.0
 10
-16.89995
 20
-34.5
 30
0.0
 10
-16.89995
 20
-33.85
 30
0.0
 10
-16.89995
 20
-33.85
 30
0.0
 10
-16.89995
 20
-33.85
 30
0.0
 10
-16.89995
 20
-33.51868
 30
0.0
 10
-17.16864
 20
-33.24999
 30
0.0
 10
-17.49996
 20
-33.24999
 30
0.0
 10
-17.49996
 20
-33.24999
 30
0.0
 10
-17.83126
 20
-33.24999
 30
0.0
 10
-18.09995
 20
-33.51868
 30
0.0
 10
-18.09995
 20
-33.85
 30
0.0
 10
-18.09995
 20
-33.85
 30
0.0
 10
-18.09995
 20
-33.85
 30
0.0
 10
-18.09995
 20
-34.5
 30
0.0
 10
-18.09995
 20
-34.5
 30
0.0
 10
-18.09995
 20
-34.5
 30
0.0
 10
-18.09995
 20
-34.5
 30
0.0
 10
-18.89995
 20
-34.5
 30
0.0
 10
-18.89995
 20
-34.5
 30
0.0
 10
-18.89995
 20
-34.5
 30
0.0
 10
-18.89995
 20
-34.5
 30
0.0
 10
-18.89995
 20
-33.85
 30
0.0
 10
-18.89995
 20
-33.85
 30
0.0
 10
-18.89995
 20
-33.85
 30
0.0
 10
-18.89995
 20
-33.51868
 30
0.0
 10
-19.16864
 20
-33.24999
 30
0.0
 10
-19.49996
 20
-33.24999
 30
0.0
 10
-19.49996
 20
-33.24999
 30
0.0
 10
-19.83126
 20
-33.24999
 30
0.0
 10
-20.09995
 20
-33.51868
 30
0.0
 10
-20.09995
 20
-33.85
 30
0.0
 10
-20.09995
 20
-33.85
 30
0.0
 10
-20.09995
 20
-33.85
 30
0.0
 10
-20.09995
 20
-34.5
 30
0.0
 10
-20.09995
 20
-34.5
 30
0.0
 10
-20.09995
 20
-34.5
 30
0.0
 10
-20.09995
 20
-34.5
 30
0.0
 10
-20.89995
 20
-34.5
 30
0.0
 10
-20.89995
 20
-34.5
 30
0.0
 10
-20.89995
 20
-34.5
 30
0.0
 10
-20.89995
 20
-34.5
 30
0.0
 10
-20.89995
 20
-33.85
 30
0.0
 10
-20.89995
 20
-33.85
 30
0.0
 10
-20.89995
 20
-33.85
 30
0.0
 10
-20.89995
 20
-33.51868
 30
0.0
 10
-21.16864
 20
-33.24999
 30
0.0
 10
-21.49996
 20
-33.24999
 30
0.0
 10
-21.49996
 20
-33.24999
 30
0.0
 10
-21.83126
 20
-33.24999
 30
0.0
 10
-22.09995
 20
-33.51868
 30
0.0
 10
-22.09995
 20
-33.85
 30
0.0
 10
-22.09995
 20
-33.85
 30
0.0
 10
-22.09995
 20
-33.85
 30
0.0
 10
-22.09995
 20
-34.5
 30
0.0
 10
-22.09995
 20
-34.5
 30
0.0
 10
-22.09995
 20
-34.5
 30
0.0
 10
-22.09995
 20
-34.5
 30
0.0
 10
-22.89996
 20
-34.5
 30
0.0
 10
-22.89996
 20
-34.5
 30
0.0
 10
-22.89996
 20
-34.5
 30
0.0
 10
-22.89996
 20
-34.5
 30
0.0
 10
-22.89997
 20
-33.84998
 30
0.0
 10
-22.89997
 20
-33.84998
 30
0.0
 10
-22.89997
 20
-33.84998
 30
0.0
 10
-22.89996
 20
-33.51866
 30
0.0
 10
-23.16864
 20
-33.24998
 30
0.0
 10
-23.49996
 20
-33.24998
 30
0.0
 10
-23.49996
 20
-33.24998
 30
0.0
 10
-23.83128
 20
-33.24998
 30
0.0
 10
-24.09996
 20
-33.51866
 30
0.0
 10
-24.09996
 20
-33.84998
 30
0.0
 10
-24.09996
 20
-33.84998
 30
0.0
 10
-24.09996
 20
-33.84998
 30
0.0
 10
-24.09996
 20
-34.5
 30
0.0
 10
-24.09996
 20
-34.5
 30
0.0
 10
-24.09996
 20
-34.5
 30
0.0
 10
-24.09996
 20
-34.5
 30
0.0
 10
-24.89996
 20
-34.5
 30
0.0
 10
-24.89996
 20
-34.5
 30
0.0
 10
-24.89996
 20
-34.5
 30
0.0
 10
-24.89996
 20
-34.5
 30
0.0
 10
-24.89997
 20
-33.84998
 30
0.0
 10
-24.89997
 20
-33.84998
 30
0.0
 10
-24.89997
 20
-33.84998
 30
0.0
 10
-24.89996
 20
-33.51866
 30
0.0
 10
-25.16864
 20
-33.24998
 30
0.0
 10
-25.49996
 20
-33.24998
 30
0.0
 10
-25.49996
 20
-33.24998
 30
0.0
 10
-25.83128
 20
-33.24998
 30
0.0
 10
-26.09996
 20
-33.51866
 30
0.0
 10
-26.09996
 20
-33.84998
 30
0.0
 10
-26.09996
 20
-33.84998
 30
0.0
 10
-26.09996
 20
-33.84998
 30
0.0
 10
-26.09996
 20
-34.5
 30
0.0
 10
-26.09996
 20
-34.5
 30
0.0
 10
-26.09996
 20
-34.5
 30
0.0
 10
-26.09996
 20
-34.5
 30
0.0
 10
-26.89996
 20
-34.5
 30
0.0
 10
-26.89996
 20
-34.5
 30
0.0
 10
-26.89996
 20
-34.5
 30
0.0
 10
-26.89996
 20
-34.5
 30
0.0
 10
-26.89997
 20
-33.84998
 30
0.0
 10
-26.89997
 20
-33.84998
 30
0.0
 10
-26.89997
 20
-33.84998
 30
0.0
 10
-26.89996
 20
-33.51866
 30
0.0
 10
-27.16864
 20
-33.24998
 30
0.0
 10
-27.49996
 20
-33.24998
 30
0.0
 10
-27.49996
 20
-33.24998
 30
0.0
 10
-27.83128
 20
-33.24998
 30
0.0
 10
-28.09996
 20
-33.51866
 30
0.0
 10
-28.09996
 20
-33.84998
 30
0.0
 10
-28.09996
 20
-33.84998
 30
0.0
 10
-28.09996
 20
-33.84998
 30
0.0
 10
-28.09996
 20
-34.5
 30
0.0
 10
-28.09996
 20
-34.5
 30
0.0
 10
-28.09996
 20
-34.5
 30
0.0
 10
-28.09996
 20
-34.5
 30
0.0
 10
-28.89996
 20
-34.5
 30
0.0
 10
-28.89996
 20
-34.5
 30
0.0
 10
-28.89996
 20
-34.5
 30
0.0
 10
-28.89996
 20
-34.5
 30
0.0
 10
-28.89997
 20
-33.84998
 30
0.0
 10
-28.89997
 20
-33.84998
 30
0.0
 10
-28.89997
 20
-33.84998
 30
0.0
 10
-28.89996
 20
-33.51866
 30
0.0
 10
-29.16864
 20
-33.24998
 30
0.0
 10
-29.49996
 20
-33.24998
 30
0.0
 10
-29.49996
 20
-33.24998
 30
0.0
 10
-29.83128
 20
-33.24998
 30
0.0
 10
-30.09996
 20
-33.51866
 30
0.0
 10
-30.09996
 20
-33.84998
 30
0.0
 10
-30.09996
 20
-33.84998
 30
0.0
 10
-30.09996
 20
-33.84998
 30
0.0
 10
-30.09996
 20
-34.5
 30
0.0
 10
-30.09996
 20
-34.5
 30
0.0
 10
-30.09996
 20
-34.5
 30
0.0
 10
-30.09996
 20
-34.5
 30
0.0
 10
-30.89996
 20
-34.5
 30
0.0
 10
-30.89996
 20
-34.5
 30
0.0
 10
-30.89996
 20
-34.5
 30
0.0
 10
-30.89996
 20
-34.5
 30
0.0
 10
-30.89997
 20
-33.84998
 30
0.0
 10
-30.89997
 20
-33.84998
 30
0.0
 10
-30.89997
 20
-33.84998
 30
0.0
 10
-30.89996
 20
-33.51866
 30
0.0
 10
-31.16864
 20
-33.24998
 30
0.0
 10
-31.49996
 20
-33.24998
 30
0.0
 10
-31.49996
 20
-33.24998
 30
0.0
 10
-31.83128
 20
-33.24998
 30
0.0
 10
-32.09996
 20
-33.51866
 30
0.0
 10
-32.09996
 20
-33.84998
 30
0.0
 10
-32.09996
 20
-33.84998
 30
0.0
 10
-32.09996
 20
-33.84998
 30
0.0
 10
-32.09996
 20
-34.5
 30
0.0
 10
-32.09996
 20
-34.5
 30
0.0
 10
-32.09996
 20
-34.5
 30
0.0
 10
-32.09996
 20
-34.5
 30
0.0
 10
-32.89996
 20
-34.5
 30
0.0
 10
-32.89996
 20
-34.5
 30
0.0
 10
-32.89996
 20
-34.5
 30
0.0
 10
-32.89996
 20
-34.5
 30
0.0
 10
-32.89997
 20
-33.84998
 30
0.0
 10
-32.89997
 20
-33.84998
 30
0.0
 10
-32.89997
 20
-33.84998
 30
0.0
 10
-32.89996
 20
-33.51866
 30
0.0
 10
-33.16864
 20
-33.24998
 30
0.0
 10
-33.49996
 20
-33.24998
 30
0.0
 10
-33.49996
 20
-33.24998
 30
0.0
 10
-33.83128
 20
-33.24998
 30
0.0
 10
-34.09996
 20
-33.51866
 30
0.0
 10
-34.09996
 20
-33.84998
 30
0.0
 10
-34.09996
 20
-33.84998
 30
0.0
 10
-34.09996
 20
-33.84998
 30
0.0
 10
-34.09996
 20
-34.5
 30
0.0
 10
-34.09996
 20
-34.5
 30
0.0
 10
-34.09996
 20
-34.5
 30
0.0
 10
-34.09996
 20
-34.5
 30
0.0
 10
-34.89996
 20
-34.5
 30
0.0
 10
-34.89996
 20
-34.5
 30
0.0
 10
-34.89996
 20
-34.5
 30
0.0
 10
-34.89996
 20
-34.5
 30
0.0
 10
-34.89997
 20
-33.84998
 30
0.0
 10
-34.89997
 20
-33.84998
 30
0.0
 10
-34.89997
 20
-33.84998
 30
0.0
 10
-34.89996
 20
-33.51866
 30
0.0
 10
-35.16864
 20
-33.24998
 30
0.0
 10
-35.49996
 20
-33.24998
 30
0.0
 10
-35.49996
 20
-33.24998
 30
0.0
 10
-35.83128
 20
-33.24998
 30
0.0
 10
-36.09996
 20
-33.51866
 30
0.0
 10
-36.09996
 20
-33.84998
 30
0.0
 10
-36.09996
 20
-33.84998
 30
0.0
 10
-36.09996
 20
-33.84998
 30
0.0
 10
-36.09996
 20
-34.48999
 30
0.0
 10
-36.09996
 20
-34.48999
 30
0.0
 10
-36.09996
 20
-34.48999
 30
0.0
 10
-36.32816
 20
-34.44366
 30
0.0
 10
-36.5
 20
-34.24186
 30
0.0
 10
-36.5
 20
-34.0
 30
0.0
 10
-36.5
 20
-34.0
 30
0.0
 10
-36.5
 20
-34.0
 30
0.0
 10
-36.5
 20
-33.35
 30
0.0
 10
-36.5
 20
-33.35
 30
0.0
 10
-36.5
 20
-33.35
 30
0.0
 10
-36.5
 20
-33.07391
 30
0.0
 10
-36.72391
 20
-32.85
 30
0.0
 10
-37.0
 20
-32.85
 30
0.0
 10
-37.0
 20
-32.85
 30
0.0
 10
-37.0
 20
-32.85
 30
0.0
 10
-37.65
 20
-32.85
 30
0.0
 10
-37.65
 20
-32.85
 30
0.0
 10
-37.65
 20
-32.85
 30
0.0
 10
-37.89185
 20
-32.85
 30
0.0
 10
-38.09365
 20
-32.67818
 30
0.0
 10
-38.13999
 20
-32.44998
 30
0.0
 10
-38.13999
 20
-32.44998
 30
0.0
 10
-38.13999
 20
-32.44998
 30
0.0
 10
-37.49996
 20
-32.44997
 30
0.0
 10
-37.49996
 20
-32.44997
 30
0.0
 10
-37.49996
 20
-32.44997
 30
0.0
 10
-37.16864
 20
-32.44998
 30
0.0
 10
-36.89996
 20
-32.1813
 30
0.0
 10
-36.89996
 20
-31.84998
 30
0.0
 10
-36.89996
 20
-31.84998
 30
0.0
 10
-36.89996
 20
-31.51866
 30
0.0
 10
-37.16864
 20
-31.24998
 30
0.0
 10
-37.49996
 20
-31.24998
 30
0.0
 10
-37.49996
 20
-31.24998
 30
0.0
 10
-37.49996
 20
-31.24998
 30
0.0
 10
-38.15
 20
-31.24998
 30
0.0
 10
-38.15
 20
-31.24998
 30
0.0
 10
-38.15
 20
-31.24998
 30
0.0
 10
-38.15
 20
-31.24998
 30
0.0
 10
-38.15
 20
-30.44999
 30
0.0
 10
-38.15
 20
-30.44999
 30
0.0
 10
-38.15
 20
-30.44999
 30
0.0
 10
-38.15
 20
-30.44999
 30
0.0
 10
-37.49996
 20
-30.44999
 30
0.0
 10
-37.49996
 20
-30.44999
 30
0.0
 10
-37.49996
 20
-30.44999
 30
0.0
 10
-37.16864
 20
-30.44999
 30
0.0
 10
-36.89995
 20
-30.1813
 30
0.0
 10
-36.89995
 20
-29.84998
 30
0.0
 10
-36.89995
 20
-29.84998
 30
0.0
 10
-36.89995
 20
-29.51868
 30
0.0
 10
-37.16864
 20
-29.24999
 30
0.0
 10
-37.49996
 20
-29.24999
 30
0.0
 10
-37.49996
 20
-29.24999
 30
0.0
 10
-37.49996
 20
-29.24999
 30
0.0
 10
-38.15
 20
-29.24999
 30
0.0
 10
-38.15
 20
-29.24999
 30
0.0
 10
-38.15
 20
-29.24999
 30
0.0
 10
-38.15
 20
-29.24999
 30
0.0
 10
-38.15
 20
-28.44999
 30
0.0
 10
-38.15
 20
-28.44999
 30
0.0
 10
-38.15
 20
-28.44999
 30
0.0
 10
-38.15
 20
-28.44999
 30
0.0
 10
-37.49996
 20
-28.44999
 30
0.0
 10
-37.49996
 20
-28.44999
 30
0.0
 10
-37.49996
 20
-28.44999
 30
0.0
 10
-37.16864
 20
-28.44999
 30
0.0
 10
-36.89995
 20
-28.1813
 30
0.0
 10
-36.89995
 20
-27.84998
 30
0.0
 10
-36.89995
 20
-27.84998
 30
0.0
 10
-36.89995
 20
-27.51868
 30
0.0
 10
-37.16864
 20
-27.24999
 30
0.0
 10
-37.49996
 20
-27.24999
 30
0.0
 10
-37.49996
 20
-27.24999
 30
0.0
 10
-37.49996
 20
-27.24999
 30
0.0
 10
-38.15
 20
-27.24999
 30
0.0
 10
-38.15
 20
-27.24999
 30
0.0
 10
-38.15
 20
-27.24999
 30
0.0
 10
-38.15
 20
-27.24999
 30
0.0
 10
-38.15
 20
-26.44999
 30
0.0
 10
-38.15
 20
-26.44999
 30
0.0
 10
-38.15
 20
-26.44999
 30
0.0
 10
-38.15
 20
-26.44999
 30
0.0
 10
-37.49996
 20
-26.44999
 30
0.0
 10
-37.49996
 20
-26.44999
 30
0.0
 10
-37.49996
 20
-26.44999
 30
0.0
 10
-37.16864
 20
-26.44999
 30
0.0
 10
-36.89995
 20
-26.1813
 30
0.0
 10
-36.89995
 20
-25.84998
 30
0.0
 10
-36.89995
 20
-25.84998
 30
0.0
 10
-36.89995
 20
-25.51868
 30
0.0
 10
-37.16864
 20
-25.24999
 30
0.0
 10
-37.49996
 20
-25.24999
 30
0.0
 10
-37.49996
 20
-25.24999
 30
0.0
 10
-37.49996
 20
-25.24999
 30
0.0
 10
-38.15
 20
-25.24999
 30
0.0
 10
-38.15
 20
-25.24999
 30
0.0
 10
-38.15
 20
-25.24999
 30
0.0
 10
-38.15
 20
-25.24999
 30
0.0
 10
-38.15
 20
-24.44999
 30
0.0
 10
-38.15
 20
-24.44999
 30
0.0
 10
-38.15
 20
-24.44999
 30
0.0
 10
-38.15
 20
-24.44999
 30
0.0
 10
-37.49996
 20
-24.44999
 30
0.0
 10
-37.49996
 20
-24.44999
 30
0.0
 10
-37.49996
 20
-24.44999
 30
0.0
 10
-37.16864
 20
-24.44999
 30
0.0
 10
-36.89995
 20
-24.1813
 30
0.0
 10
-36.89995
 20
-23.84998
 30
0.0
 10
-36.89995
 20
-23.84998
 30
0.0
 10
-36.89995
 20
-23.51868
 30
0.0
 10
-37.16864
 20
-23.24999
 30
0.0
 10
-37.49996
 20
-23.24999
 30
0.0
 10
-37.49996
 20
-23.24999
 30
0.0
 10
-37.49996
 20
-23.24999
 30
0.0
 10
-38.15
 20
-23.24999
 30
0.0
 10
-38.15
 20
-23.24999
 30
0.0
 10
-38.15
 20
-23.24999
 30
0.0
 10
-38.15
 20
-23.24999
 30
0.0
 10
-38.15
 20
-22.44999
 30
0.0
 10
-38.15
 20
-22.44999
 30
0.0
 10
-38.15
 20
-22.44999
 30
0.0
 10
-38.15
 20
-22.44999
 30
0.0
 10
-37.49996
 20
-22.44999
 30
0.0
 10
-37.49996
 20
-22.44999
 30
0.0
 10
-37.49996
 20
-22.44999
 30
0.0
 10
-37.16864
 20
-22.44999
 30
0.0
 10
-36.89995
 20
-22.1813
 30
0.0
 10
-36.89995
 20
-21.84998
 30
0.0
 10
-36.89995
 20
-21.84998
 30
0.0
 10
-36.89995
 20
-21.51868
 30
0.0
 10
-37.16864
 20
-21.24999
 30
0.0
 10
-37.49996
 20
-21.24999
 30
0.0
 10
-37.49996
 20
-21.24999
 30
0.0
 10
-37.49996
 20
-21.24999
 30
0.0
 10
-38.15
 20
-21.24999
 30
0.0
 10
-38.15
 20
-21.24999
 30
0.0
 10
-38.15
 20
-21.24999
 30
0.0
 10
-38.15
 20
-21.24999
 30
0.0
 10
-38.15
 20
-20.44999
 30
0.0
 10
-38.15
 20
-20.44999
 30
0.0
 10
-38.15
 20
-20.44999
 30
0.0
 10
-38.15
 20
-20.44999
 30
0.0
 10
-37.49996
 20
-20.44999
 30
0.0
 10
-37.49996
 20
-20.44999
 30
0.0
 10
-37.49996
 20
-20.44999
 30
0.0
 10
-37.16864
 20
-20.44999
 30
0.0
 10
-36.89995
 20
-20.1813
 30
0.0
 10
-36.89995
 20
-19.84998
 30
0.0
 10
-36.89995
 20
-19.84998
 30
0.0
 10
-36.89995
 20
-19.51868
 30
0.0
 10
-37.16864
 20
-19.24999
 30
0.0
 10
-37.49996
 20
-19.24999
 30
0.0
 10
-37.49996
 20
-19.24999
 30
0.0
 10
-37.49996
 20
-19.24999
 30
0.0
 10
-38.15
 20
-19.24999
 30
0.0
 10
-38.15
 20
-19.24999
 30
0.0
 10
-38.15
 20
-19.24999
 30
0.0
 10
-38.15
 20
-19.24999
 30
0.0
 10
-38.15
 20
-18.44999
 30
0.0
 10
-38.15
 20
-18.44999
 30
0.0
 10
-38.15
 20
-18.44999
 30
0.0
 10
-38.15
 20
-18.44999
 30
0.0
 10
-37.49996
 20
-18.44999
 30
0.0
 10
-37.49996
 20
-18.44999
 30
0.0
 10
-37.49996
 20
-18.44999
 30
0.0
 10
-37.16864
 20
-18.44999
 30
0.0
 10
-36.89995
 20
-18.1813
 30
0.0
 10
-36.89995
 20
-17.84998
 30
0.0
 10
-36.89995
 20
-17.84998
 30
0.0
 10
-36.89995
 20
-17.51868
 30
0.0
 10
-37.16864
 20
-17.24999
 30
0.0
 10
-37.49996
 20
-17.24999
 30
0.0
 10
-37.49996
 20
-17.24999
 30
0.0
 10
-37.49996
 20
-17.24999
 30
0.0
 10
-38.15
 20
-17.24999
 30
0.0
 10
-38.15
 20
-17.24999
 30
0.0
 10
-38.15
 20
-17.24999
 30
0.0
 10
-38.15
 20
-17.24999
 30
0.0
 10
-38.13998
 20
-17.24998
 30
0.0
 10
-38.13998
 20
-17.24998
 30
0.0
 10
-38.13998
 20
-17.24998
 30
0.0
 10
-38.09363
 20
-17.02181
 30
0.0
 10
-37.89184
 20
-16.85
 30
0.0
 10
-37.65
 20
-16.85
 30
0.0
 10
-37.65
 20
-16.85
 30
0.0
 10
-37.65
 20
-16.85
 30
0.0
 10
-37.0
 20
-16.85
 30
0.0
 10
-37.0
 20
-16.85
 30
0.0
 10
-37.0
 20
-16.85
 30
0.0
 10
-36.72391
 20
-16.85
 30
0.0
 10
-36.5
 20
-16.62609
 30
0.0
 10
-36.5
 20
-16.35
 30
0.0
 10
-36.5
 20
-16.35
 30
0.0
 10
-36.5
 20
-16.35
 30
0.0
 10
-36.5
 20
-15.7
 30
0.0
 10
-36.5
 20
-15.7
 30
0.0
 10
-36.5
 20
-15.7
 30
0.0
 10
-36.5
 20
-15.45814
 30
0.0
 10
-36.32816
 20
-15.25634
 30
0.0
 10
-36.09996
 20
-15.21001
 30
0.0
 10
-36.09996
 20
-15.21001
 30
0.0
 10
-36.09996
 20
-15.21001
 30
0.0
 10
-36.09996
 20
-15.84998
 30
0.0
 10
-36.09996
 20
-15.84998
 30
0.0
 10
-36.09996
 20
-15.84998
 30
0.0
 10
-36.09996
 20
-16.1813
 30
0.0
 10
-35.83128
 20
-16.44998
 30
0.0
 10
-35.49996
 20
-16.44998
 30
0.0
 10
-35.49996
 20
-16.44998
 30
0.0
 10
-35.16864
 20
-16.44998
 30
0.0
 10
-34.89996
 20
-16.1813
 30
0.0
 10
-34.89996
 20
-15.84998
 30
0.0
 10
-34.89996
 20
-15.84998
 30
0.0
 10
-34.89996
 20
-15.84998
 30
0.0
 10
-34.89997
 20
-15.2
 30
0.0
 10
-34.89997
 20
-15.2
 30
0.0
 10
-34.89997
 20
-15.2
 30
0.0
 10
-34.89997
 20
-15.2
 30
0.0
 10
-34.09996
 20
-15.2
 30
0.0
 10
-34.09996
 20
-15.2
 30
0.0
 10
-34.09996
 20
-15.2
 30
0.0
 10
-34.09996
 20
-15.2
 30
0.0
 10
-34.09996
 20
-15.84998
 30
0.0
 10
-34.09996
 20
-15.84998
 30
0.0
 10
-34.09996
 20
-15.84998
 30
0.0
 10
-34.09996
 20
-16.1813
 30
0.0
 10
-33.83128
 20
-16.44998
 30
0.0
 10
-33.49996
 20
-16.44998
 30
0.0
 10
-33.49996
 20
-16.44998
 30
0.0
 10
-33.16864
 20
-16.44998
 30
0.0
 10
-32.89996
 20
-16.1813
 30
0.0
 10
-32.89996
 20
-15.84998
 30
0.0
 10
-32.89996
 20
-15.84998
 30
0.0
 10
-32.89996
 20
-15.84998
 30
0.0
 10
-32.89997
 20
-15.2
 30
0.0
 10
-32.89997
 20
-15.2
 30
0.0
 10
-32.89997
 20
-15.2
 30
0.0
 10
-32.89997
 20
-15.2
 30
0.0
 10
-32.09996
 20
-15.2
 30
0.0
 10
-32.09996
 20
-15.2
 30
0.0
 10
-32.09996
 20
-15.2
 30
0.0
 10
-32.09996
 20
-15.2
 30
0.0
 10
-32.09996
 20
-15.84998
 30
0.0
 10
-32.09996
 20
-15.84998
 30
0.0
 10
-32.09996
 20
-15.84998
 30
0.0
 10
-32.09996
 20
-16.1813
 30
0.0
 10
-31.83128
 20
-16.44998
 30
0.0
 10
-31.49996
 20
-16.44998
 30
0.0
 10
-31.49996
 20
-16.44998
 30
0.0
 10
-31.16864
 20
-16.44998
 30
0.0
 10
-30.89996
 20
-16.1813
 30
0.0
 10
-30.89996
 20
-15.84998
 30
0.0
 10
-30.89996
 20
-15.84998
 30
0.0
 10
-30.89996
 20
-15.84998
 30
0.0
 10
-30.89997
 20
-15.2
 30
0.0
 10
-30.89997
 20
-15.2
 30
0.0
 10
-30.89997
 20
-15.2
 30
0.0
 10
-30.89997
 20
-15.2
 30
0.0
 10
-30.09996
 20
-15.2
 30
0.0
 10
-30.09996
 20
-15.2
 30
0.0
 10
-30.09996
 20
-15.2
 30
0.0
 10
-30.09996
 20
-15.2
 30
0.0
 10
-30.09996
 20
-15.84998
 30
0.0
 10
-30.09996
 20
-15.84998
 30
0.0
 10
-30.09996
 20
-15.84998
 30
0.0
 10
-30.09996
 20
-16.1813
 30
0.0
 10
-29.83128
 20
-16.44998
 30
0.0
 10
-29.49996
 20
-16.44998
 30
0.0
 10
-29.49996
 20
-16.44998
 30
0.0
 10
-29.16864
 20
-16.44998
 30
0.0
 10
-28.89996
 20
-16.1813
 30
0.0
 10
-28.89996
 20
-15.84998
 30
0.0
 10
-28.89996
 20
-15.84998
 30
0.0
 10
-28.89996
 20
-15.84998
 30
0.0
 10
-28.89997
 20
-15.2
 30
0.0
 10
-28.89997
 20
-15.2
 30
0.0
 10
-28.89997
 20
-15.2
 30
0.0
 10
-28.89997
 20
-15.2
 30
0.0
 10
-28.09996
 20
-15.2
 30
0.0
 10
-28.09996
 20
-15.2
 30
0.0
 10
-28.09996
 20
-15.2
 30
0.0
 10
-28.09996
 20
-15.2
 30
0.0
 10
-28.09996
 20
-15.84998
 30
0.0
 10
-28.09996
 20
-15.84998
 30
0.0
 10
-28.09996
 20
-15.84998
 30
0.0
 10
-28.09996
 20
-16.1813
 30
0.0
 10
-27.83128
 20
-16.44998
 30
0.0
 10
-27.49996
 20
-16.44998
 30
0.0
 10
-27.49996
 20
-16.44998
 30
0.0
 10
-27.16864
 20
-16.44998
 30
0.0
 10
-26.89996
 20
-16.1813
 30
0.0
 10
-26.89996
 20
-15.84998
 30
0.0
 10
-26.89996
 20
-15.84998
 30
0.0
 10
-26.89996
 20
-15.84998
 30
0.0
 10
-26.89997
 20
-15.2
 30
0.0
 10
-26.89997
 20
-15.2
 30
0.0
 10
-26.89997
 20
-15.2
 30
0.0
 10
-26.89997
 20
-15.2
 30
0.0
 10
-26.09996
 20
-15.2
 30
0.0
 10
-26.09996
 20
-15.2
 30
0.0
 10
-26.09996
 20
-15.2
 30
0.0
 10
-26.09996
 20
-15.2
 30
0.0
 10
-26.09996
 20
-15.84998
 30
0.0
 10
-26.09996
 20
-15.84998
 30
0.0
 10
-26.09996
 20
-15.84998
 30
0.0
 10
-26.09996
 20
-16.1813
 30
0.0
 10
-25.83128
 20
-16.44998
 30
0.0
 10
-25.49996
 20
-16.44998
 30
0.0
 10
-25.49996
 20
-16.44998
 30
0.0
 10
-25.16864
 20
-16.44998
 30
0.0
 10
-24.89996
 20
-16.1813
 30
0.0
 10
-24.89996
 20
-15.84998
 30
0.0
 10
-24.89996
 20
-15.84998
 30
0.0
 10
-24.89996
 20
-15.84998
 30
0.0
 10
-24.89997
 20
-15.2
 30
0.0
 10
-24.89997
 20
-15.2
 30
0.0
 10
-24.89997
 20
-15.2
 30
0.0
 10
-24.89997
 20
-15.2
 30
0.0
 10
-24.09996
 20
-15.2
 30
0.0
 10
-24.09996
 20
-15.2
 30
0.0
 10
-24.09996
 20
-15.2
 30
0.0
 10
-24.09996
 20
-15.2
 30
0.0
 10
-24.09996
 20
-15.84998
 30
0.0
 10
-24.09996
 20
-15.84998
 30
0.0
 10
-24.09996
 20
-15.84998
 30
0.0
 10
-24.09996
 20
-16.1813
 30
0.0
 10
-23.83128
 20
-16.44998
 30
0.0
 10
-23.49996
 20
-16.44998
 30
0.0
 10
-23.49996
 20
-16.44998
 30
0.0
 10
-23.16864
 20
-16.44998
 30
0.0
 10
-22.89996
 20
-16.1813
 30
0.0
 10
-22.89996
 20
-15.84998
 30
0.0
 10
-22.89996
 20
-15.84998
 30
0.0
 10
-22.89996
 20
-15.84998
 30
0.0
 10
-22.89997
 20
-15.2
 30
0.0
 10
-22.89997
 20
-15.2
 30
0.0
 10
-22.89997
 20
-15.2
 30
0.0
 10
-22.89997
 20
-15.2
 30
0.0
 10
-22.09995
 20
-15.2
 30
0.0
 10
-22.09995
 20
-15.2
 30
0.0
 10
-22.09995
 20
-15.2
 30
0.0
 10
-22.09995
 20
-15.2
 30
0.0
 10
-22.09995
 20
-15.85
 30
0.0
 10
-22.09995
 20
-15.85
 30
0.0
 10
-22.09995
 20
-15.85
 30
0.0
 10
-22.09995
 20
-16.1813
 30
0.0
 10
-21.83127
 20
-16.44999
 30
0.0
 10
-21.49996
 20
-16.44999
 30
0.0
 10
-21.49996
 20
-16.44999
 30
0.0
 10
-21.16865
 20
-16.44999
 30
0.0
 10
-20.89995
 20
-16.1813
 30
0.0
 10
-20.89995
 20
-15.85
 30
0.0
 10
-20.89995
 20
-15.85
 30
0.0
 10
-20.89995
 20
-15.85
 30
0.0
 10
-20.89995
 20
-15.2
 30
0.0
 10
-20.89995
 20
-15.2
 30
0.0
 10
-20.89995
 20
-15.2
 30
0.0
 10
-20.89995
 20
-15.2
 30
0.0
 10
-20.09995
 20
-15.2
 30
0.0
 10
-20.09995
 20
-15.2
 30
0.0
 10
-20.09995
 20
-15.2
 30
0.0
 10
-20.09995
 20
-15.2
 30
0.0
 10
-20.09995
 20
-15.85
 30
0.0
 10
-20.09995
 20
-15.85
 30
0.0
 10
-20.09995
 20
-15.85
 30
0.0
 10
-20.09995
 20
-16.1813
 30
0.0
 10
-19.83127
 20
-16.44999
 30
0.0
 10
-19.49996
 20
-16.44999
 30
0.0
 10
-19.49996
 20
-16.44999
 30
0.0
 10
-19.16865
 20
-16.44999
 30
0.0
 10
-18.89995
 20
-16.1813
 30
0.0
 10
-18.89995
 20
-15.85
 30
0.0
 10
-18.89995
 20
-15.85
 30
0.0
 10
-18.89995
 20
-15.85
 30
0.0
 10
-18.89995
 20
-15.2
 30
0.0
 10
-18.89995
 20
-15.2
 30
0.0
 10
-18.89995
 20
-15.2
 30
0.0
 10
-18.89995
 20
-15.2
 30
0.0
 10
-18.09995
 20
-15.2
 30
0.0
 10
-18.09995
 20
-15.2
 30
0.0
 10
-18.09995
 20
-15.2
 30
0.0
 10
-18.09995
 20
-15.2
 30
0.0
 10
-18.09995
 20
-15.85
 30
0.0
 10
-18.09995
 20
-15.85
 30
0.0
 10
-18.09995
 20
-15.85
 30
0.0
 10
-18.09995
 20
-16.1813
 30
0.0
 10
-17.83127
 20
-16.44999
 30
0.0
 10
-17.49996
 20
-16.44999
 30
0.0
 10
-17.49996
 20
-16.44999
 30
0.0
 10
-17.16865
 20
-16.44999
 30
0.0
 10
-16.89995
 20
-16.1813
 30
0.0
 10
-16.89995
 20
-15.85
 30
0.0
 10
-16.89995
 20
-15.85
 30
0.0
 10
-16.89995
 20
-15.85
 30
0.0
 10
-16.89995
 20
-15.2
 30
0.0
 10
-16.89995
 20
-15.2
 30
0.0
 10
-16.89995
 20
-15.2
 30
0.0
 10
-16.89995
 20
-15.2
 30
0.0
 10
-16.09995
 20
-15.2
 30
0.0
 10
-16.09995
 20
-15.2
 30
0.0
 10
-16.09995
 20
-15.2
 30
0.0
 10
-16.09995
 20
-15.2
 30
0.0
 10
-16.09995
 20
-15.85
 30
0.0
 10
-16.09995
 20
-15.85
 30
0.0
 10
-16.09995
 20
-15.85
 30
0.0
 10
-16.09995
 20
-16.1813
 30
0.0
 10
-15.83127
 20
-16.44999
 30
0.0
 10
-15.49996
 20
-16.44999
 30
0.0
 10
-15.49996
 20
-16.44999
 30
0.0
 10
-15.16865
 20
-16.44999
 30
0.0
 10
-14.89995
 20
-16.1813
 30
0.0
 10
-14.89995
 20
-15.85
 30
0.0
 10
-14.89995
 20
-15.85
 30
0.0
 10
-14.89995
 20
-15.85
 30
0.0
 10
-14.89995
 20
-15.2
 30
0.0
 10
-14.89995
 20
-15.2
 30
0.0
 10
-14.89995
 20
-15.2
 30
0.0
 10
-14.89995
 20
-15.2
 30
0.0
 10
-14.09995
 20
-15.2
 30
0.0
 10
-14.09995
 20
-15.2
 30
0.0
 10
-14.09995
 20
-15.2
 30
0.0
 10
-14.09995
 20
-15.2
 30
0.0
 10
-14.09995
 20
-15.85
 30
0.0
 10
-14.09995
 20
-15.85
 30
0.0
 10
-14.09995
 20
-15.85
 30
0.0
 10
-14.09995
 20
-16.1813
 30
0.0
 10
-13.83127
 20
-16.44999
 30
0.0
 10
-13.49996
 20
-16.44999
 30
0.0
 10
-13.49996
 20
-16.44999
 30
0.0
 10
-13.16865
 20
-16.44999
 30
0.0
 10
-12.89995
 20
-16.1813
 30
0.0
 10
-12.89995
 20
-15.85
 30
0.0
 10
-12.89995
 20
-15.85
 30
0.0
 10
-12.89995
 20
-15.85
 30
0.0
 10
-12.89995
 20
-15.2
 30
0.0
 10
-12.89995
 20
-15.2
 30
0.0
 10
-12.89995
 20
-15.2
 30
0.0
 10
-12.89995
 20
-15.2
 30
0.0
 10
-12.09995
 20
-15.2
 30
0.0
 10
-12.09995
 20
-15.2
 30
0.0
 10
-12.09995
 20
-15.2
 30
0.0
 10
-12.09995
 20
-15.2
 30
0.0
 10
-12.09995
 20
-15.85
 30
0.0
 10
-12.09995
 20
-15.85
 30
0.0
 10
-12.09995
 20
-15.85
 30
0.0
 10
-12.09995
 20
-16.1813
 30
0.0
 10
-11.83127
 20
-16.44999
 30
0.0
 10
-11.49996
 20
-16.44999
 30
0.0
 10
-11.49996
 20
-16.44999
 30
0.0
 10
-11.16865
 20
-16.44999
 30
0.0
 10
-10.89995
 20
-16.1813
 30
0.0
 10
-10.89995
 20
-15.85
 30
0.0
 10
-10.89995
 20
-15.85
 30
0.0
 10
-10.89995
 20
-15.85
 30
0.0
 10
-10.89995
 20
-15.2
 30
0.0
 10
-10.89995
 20
-15.2
 30
0.0
 10
-10.89995
 20
-15.2
 30
0.0
 10
-10.89995
 20
-15.2
 30
0.0
 10
-10.09995
 20
-15.2
 30
0.0
 10
-10.09995
 20
-15.2
 30
0.0
 10
-10.09995
 20
-15.2
 30
0.0
 10
-10.09995
 20
-15.2
 30
0.0
 10
-10.09995
 20
-15.85
 30
0.0
 10
-10.09995
 20
-15.85
 30
0.0
 10
-10.09995
 20
-15.85
 30
0.0
 10
-10.09995
 20
-16.1813
 30
0.0
 10
-9.83127
 20
-16.44999
 30
0.0
 10
-9.49996
 20
-16.44999
 30
0.0
 10
-9.49996
 20
-16.44999
 30
0.0
 10
-9.16865
 20
-16.44999
 30
0.0
 10
-8.89995
 20
-16.1813
 30
0.0
 10
-8.89995
 20
-15.85
 30
0.0
 10
-8.89995
 20
-15.85
 30
0.0
 10
-8.89995
 20
-15.85
 30
0.0
 10
-8.89995
 20
-15.2
 30
0.0
 10
-8.89995
 20
-15.2
 30
0.0
 10
-8.89995
 20
-15.2
 30
0.0
 10
-8.89995
 20
-15.2
 30
0.0
 10
-8.09995
 20
-15.2
 30
0.0
 10
-8.09995
 20
-15.2
 30
0.0
 10
-8.09995
 20
-15.2
 30
0.0
 10
-8.09995
 20
-15.2
 30
0.0
 10
-8.09995
 20
-15.85
 30
0.0
 10
-8.09995
 20
-15.85
 30
0.0
 10
-8.09995
 20
-15.85
 30
0.0
 10
-8.09995
 20
-16.1813
 30
0.0
 10
-7.83127
 20
-16.44999
 30
0.0
 10
-7.49996
 20
-16.44999
 30
0.0
 10
-7.49996
 20
-16.44999
 30
0.0
 10
-7.16865
 20
-16.44999
 30
0.0
 10
-6.89995
 20
-16.1813
 30
0.0
 10
-6.89995
 20
-15.85
 30
0.0
 10
-6.89995
 20
-15.85
 30
0.0
 10
-6.89995
 20
-15.85
 30
0.0
 10
-6.89995
 20
-15.2
 30
0.0
 10
-6.89995
 20
-15.2
 30
0.0
 10
-6.89995
 20
-15.2
 30
0.0
 10
-6.89995
 20
-15.2
 30
0.0
 10
-6.09995
 20
-15.2
 30
0.0
 10
-6.09995
 20
-15.2
 30
0.0
 10
-6.09995
 20
-15.2
 30
0.0
 10
-6.09995
 20
-15.2
 30
0.0
 10
-6.09995
 20
-15.85
 30
0.0
 10
-6.09995
 20
-15.85
 30
0.0
 10
-6.09995
 20
-15.85
 30
0.0
 10
-6.09995
 20
-16.1813
 30
0.0
 10
-5.83127
 20
-16.44999
 30
0.0
 10
-5.49996
 20
-16.44999
 30
0.0
 10
-5.49996
 20
-16.44999
 30
0.0
 10
-5.16865
 20
-16.44999
 30
0.0
 10
-4.89995
 20
-16.1813
 30
0.0
 10
-4.89995
 20
-15.85
 30
0.0
 10
-4.89995
 20
-15.85
 30
0.0
 10
-4.89995
 20
-15.85
 30
0.0
 10
-4.89995
 20
-15.2
 30
0.0
 10
-4.89995
 20
-15.2
 30
0.0
 10
-4.89995
 20
-15.2
 30
0.0
 10
-4.89995
 20
-15.2
 30
0.0
 10
-4.09995
 20
-15.2
 30
0.0
 10
-4.09995
 20
-15.2
 30
0.0
 10
-4.09995
 20
-15.2
 30
0.0
 10
-4.09995
 20
-15.2
 30
0.0
 10
-4.09995
 20
-15.85
 30
0.0
 10
-4.09995
 20
-15.85
 30
0.0
 10
-4.09995
 20
-15.85
 30
0.0
 10
-4.09995
 20
-16.1813
 30
0.0
 10
-3.83127
 20
-16.44999
 30
0.0
 10
-3.49996
 20
-16.44999
 30
0.0
 10
-3.49996
 20
-16.44999
 30
0.0
 10
-3.16865
 20
-16.44999
 30
0.0
 10
-2.89995
 20
-16.1813
 30
0.0
 10
-2.89995
 20
-15.85
 30
0.0
 10
-2.89995
 20
-15.85
 30
0.0
 10
-2.89995
 20
-15.85
 30
0.0
 10
-2.89995
 20
-15.2
 30
0.0
 10
-2.89995
 20
-15.2
 30
0.0
 10
-2.89995
 20
-15.2
 30
0.0
 10
-2.89995
 20
-15.2
 30
0.0
 10
-2.09995
 20
-15.2
 30
0.0
 10
-2.09995
 20
-15.2
 30
0.0
 10
-2.09995
 20
-15.2
 30
0.0
 10
-2.09995
 20
-15.2
 30
0.0
 10
-2.09995
 20
-15.85
 30
0.0
 10
-2.09995
 20
-15.85
 30
0.0
 10
-2.09995
 20
-15.85
 30
0.0
 10
-2.09995
 20
-16.1813
 30
0.0
 10
-1.83127
 20
-16.44999
 30
0.0
 10
-1.49996
 20
-16.44999
 30
0.0
 10
-1.49996
 20
-16.44999
 30
0.0
 10
-1.16865
 20
-16.44999
 30
0.0
 10
-0.89995
 20
-16.1813
 30
0.0
 10
-0.89995
 20
-15.85
 30
0.0
 10
-0.89995
 20
-15.85
 30
0.0
 10
-0.89995
 20
-15.85
 30
0.0
 10
-0.89995
 20
-15.2
 30
0.0
 10
-0.89995
 20
-15.2
 30
0.0
 10
-0.89995
 20
-15.2
 30
0.0
 10
-0.89995
 20
-15.2
 30
0.0
 10
-0.89997
 20
-15.21002
 30
0.0
 10
-0.89997
 20
-15.21002
 30
0.0
 10
-0.89997
 20
-15.21002
 30
0.0
 10
-0.6718
 20
-15.25638
 30
0.0
 10
-0.5
 20
-15.45817
 30
0.0
 10
-0.5
 20
-15.7
 30
0.0
 10
-0.5
 20
-15.7
 30
0.0
 10
-0.5
 20
-15.7
 30
0.0
 10
-0.5
 20
-16.35
 30
0.0
 10
-0.5
 20
-16.35
 30
0.0
 10
-0.5
 20
-16.35
 30
0.0
 10
-0.5
 20
-16.62609
 30
0.0
 10
-0.27609
 20
-16.85
 30
0.0
 10
0.0
 20
-16.85
 30
0.0
 10
0.0
 20
-16.85
 30
0.0
 10
0.0
 20
-16.85
 30
0.0
 10
0.65
 20
-16.85
 30
0.0
 10
0.65
 20
-16.85
 30
0.0
 10
0.65
 20
-16.85
 30
0.0
 10
0.89184
 20
-16.85
 30
0.0
 10
1.09363
 20
-17.02181
 30
0.0
 10
1.13998
 20
-17.24998
 30
0.0
 10
1.13998
 20
-17.24998
 30
0.0
 10
1.13998
 20
-17.24998
 30
0.0
 10
1.15
 20
-17.24999
 30
0.0
 10
1.15
 20
-17.24999
 30
0.0
 10
1.15
 20
-17.24999
 30
0.0
 10
1.15
 20
-17.24999
 30
0.0
 10
0.50004
 20
-17.24999
 30
0.0
 10
0.50004
 20
-17.24999
 30
0.0
 10
0.50004
 20
-17.24999
 30
0.0
 10
0.16874
 20
-17.24999
 30
0.0
 10
-0.09995
 20
-17.51867
 30
0.0
 10
-0.09995
 20
-17.84998
 30
0.0
 10
-0.09995
 20
-17.84998
 30
0.0
 10
-0.09995
 20
-18.18129
 30
0.0
 10
0.16874
 20
-18.44999
 30
0.0
 10
0.50004
 20
-18.44999
 30
0.0
 10
0.50004
 20
-18.44999
 30
0.0
 10
0.50004
 20
-18.44999
 30
0.0
 10
1.15
 20
-18.44999
 30
0.0
 10
1.15
 20
-18.44999
 30
0.0
 10
1.15
 20
-18.44999
 30
0.0
 10
1.15
 20
-18.44999
 30
0.0
 10
1.15
 20
-19.24999
 30
0.0
 10
1.15
 20
-19.24999
 30
0.0
 10
1.15
 20
-19.24999
 30
0.0
 10
1.15
 20
-19.24999
 30
0.0
 10
0.50004
 20
-19.24999
 30
0.0
 10
0.50004
 20
-19.24999
 30
0.0
 10
0.50004
 20
-19.24999
 30
0.0
 10
0.16874
 20
-19.24999
 30
0.0
 10
-0.09995
 20
-19.51867
 30
0.0
 10
-0.09995
 20
-19.84998
 30
0.0
 10
-0.09995
 20
-19.84998
 30
0.0
 10
-0.09995
 20
-20.18129
 30
0.0
 10
0.16874
 20
-20.44999
 30
0.0
 10
0.50004
 20
-20.44999
 30
0.0
 10
0.50004
 20
-20.44999
 30
0.0
 10
0.50004
 20
-20.44999
 30
0.0
 10
1.15
 20
-20.44999
 30
0.0
 10
1.15
 20
-20.44999
 30
0.0
 10
1.15
 20
-20.44999
 30
0.0
 10
1.15
 20
-20.44999
 30
0.0
 10
1.15
 20
-21.24999
 30
0.0
 10
1.15
 20
-21.24999
 30
0.0
 10
1.15
 20
-21.24999
 30
0.0
 10
1.15
 20
-21.24999
 30
0.0
 10
0.50004
 20
-21.24999
 30
0.0
 10
0.50004
 20
-21.24999
 30
0.0
 10
0.50004
 20
-21.24999
 30
0.0
 10
0.16874
 20
-21.24999
 30
0.0
 10
-0.09995
 20
-21.51867
 30
0.0
 10
-0.09995
 20
-21.84998
 30
0.0
 10
-0.09995
 20
-21.84998
 30
0.0
 10
-0.09995
 20
-22.18129
 30
0.0
 10
0.16874
 20
-22.44999
 30
0.0
 10
0.50004
 20
-22.44999
 30
0.0
 10
0.50004
 20
-22.44999
 30
0.0
 10
0.50004
 20
-22.44999
 30
0.0
 10
1.15
 20
-22.44999
 30
0.0
 10
1.15
 20
-22.44999
 30
0.0
 10
1.15
 20
-22.44999
 30
0.0
 10
1.15
 20
-22.44999
 30
0.0
 10
1.15
 20
-23.24999
 30
0.0
 10
1.15
 20
-23.24999
 30
0.0
 10
1.15
 20
-23.24999
 30
0.0
 10
1.15
 20
-23.24999
 30
0.0
 10
0.50004
 20
-23.24999
 30
0.0
 10
0.50004
 20
-23.24999
 30
0.0
 10
0.50004
 20
-23.24999
 30
0.0
 10
0.16874
 20
-23.24999
 30
0.0
 10
-0.09995
 20
-23.51867
 30
0.0
 10
-0.09995
 20
-23.84998
 30
0.0
 10
-0.09995
 20
-23.84998
 30
0.0
 10
-0.09995
 20
-24.18129
 30
0.0
 10
0.16874
 20
-24.44999
 30
0.0
 10
0.50004
 20
-24.44999
 30
0.0
 10
0.50004
 20
-24.44999
 30
0.0
 10
0.50004
 20
-24.44999
 30
0.0
 10
1.15
 20
-24.44999
 30
0.0
 10
1.15
 20
-24.44999
 30
0.0
 10
1.15
 20
-24.44999
 30
0.0
 10
1.15
 20
-24.44999
 30
0.0
 10
1.15
 20
-25.24999
 30
0.0
 10
1.15
 20
-25.24999
 30
0.0
 10
1.15
 20
-25.24999
 30
0.0
 10
1.15
 20
-25.24999
 30
0.0
 10
0.50004
 20
-25.24999
 30
0.0
 10
0.50004
 20
-25.24999
 30
0.0
 10
0.50004
 20
-25.24999
 30
0.0
 10
0.16874
 20
-25.24999
 30
0.0
 10
-0.09995
 20
-25.51867
 30
0.0
 10
-0.09995
 20
-25.84998
 30
0.0
 10
-0.09995
 20
-25.84998
 30
0.0
 10
-0.09995
 20
-26.18129
 30
0.0
 10
0.16874
 20
-26.44999
 30
0.0
 10
0.50004
 20
-26.44999
 30
0.0
 10
0.50004
 20
-26.44999
 30
0.0
 10
0.50004
 20
-26.44999
 30
0.0
 10
1.15
 20
-26.44999
 30
0.0
 10
1.15
 20
-26.44999
 30
0.0
 10
1.15
 20
-26.44999
 30
0.0
 10
1.15
 20
-26.44999
 30
0.0
 10
1.15
 20
-27.24999
 30
0.0
 10
1.15
 20
-27.24999
 30
0.0
 10
1.15
 20
-27.24999
 30
0.0
 10
1.15
 20
-27.24999
 30
0.0
 10
0.50004
 20
-27.24999
 30
0.0
 10
0.50004
 20
-27.24999
 30
0.0
 10
0.50004
 20
-27.24999
 30
0.0
 10
0.16874
 20
-27.24999
 30
0.0
 10
-0.09995
 20
-27.51867
 30
0.0
 10
-0.09995
 20
-27.84998
 30
0.0
 10
-0.09995
 20
-27.84998
 30
0.0
 10
-0.09995
 20
-28.18129
 30
0.0
 10
0.16874
 20
-28.44999
 30
0.0
 10
0.50004
 20
-28.44999
 30
0.0
 10
0.50004
 20
-28.44999
 30
0.0
 10
0.50004
 20
-28.44999
 30
0.0
 10
1.15
 20
-28.44999
 30
0.0
 10
1.15
 20
-28.44999
 30
0.0
 10
1.15
 20
-28.44999
 30
0.0
 10
1.15
 20
-28.44999
 30
0.0
 10
1.15
 20
-29.24999
 30
0.0
 10
1.15
 20
-29.24999
 30
0.0
 10
1.15
 20
-29.24999
 30
0.0
 10
1.15
 20
-29.24999
 30
0.0
 10
0.50004
 20
-29.24999
 30
0.0
 10
0.50004
 20
-29.24999
 30
0.0
 10
0.50004
 20
-29.24999
 30
0.0
 10
0.16874
 20
-29.24999
 30
0.0
 10
-0.09995
 20
-29.51867
 30
0.0
 10
-0.09995
 20
-29.84998
 30
0.0
 10
-0.09995
 20
-29.84998
 30
0.0
 10
-0.09995
 20
-30.18129
 30
0.0
 10
0.16874
 20
-30.44999
 30
0.0
 10
0.50004
 20
-30.44999
 30
0.0
 10
0.50004
 20
-30.44999
 30
0.0
 10
0.50004
 20
-30.44999
 30
0.0
 10
1.15
 20
-30.44999
 30
0.0
 10
1.15
 20
-30.44999
 30
0.0
 10
1.15
 20
-30.44999
 30
0.0
 10
1.15
 20
-30.44999
 30
0.0
 10
1.15
 20
-31.24998
 30
0.0
 10
1.15
 20
-31.24998
 30
0.0
 10
1.15
 20
-31.24998
 30
0.0
 10
1.15
 20
-31.24998
 30
0.0
 10
0.50004
 20
-31.24998
 30
0.0
 10
0.50004
 20
-31.24998
 30
0.0
 10
0.50004
 20
-31.24998
 30
0.0
 10
0.16872
 20
-31.24998
 30
0.0
 10
-0.09996
 20
-31.51866
 30
0.0
 10
-0.09996
 20
-31.84998
 30
0.0
 10
-0.09996
 20
-31.84998
 30
0.0
 10
-0.09996
 20
-32.1813
 30
0.0
 10
0.16872
 20
-32.44998
 30
0.0
 10
0.50004
 20
-32.44998
 30
0.0
  0
ELLIPSE
  5
60
330
1F
100
AcDbEntity
  8
Layer 1
 62
   250
370
    53
100
AcDbEllipse
 10
-35.49996
 20
-31.84998
 30
0.0
 11
0.0
 21
0.6
 31
0.0
210
0.0
220
0.0
230
1.0
 40
1.0
 41
0.0
 42
6.283185307179586
  0
ELLIPSE
  5
61
330
1F
100
AcDbEntity
  8
Layer 1
 62
   250
370
    53
100
AcDbEllipse
 10
-33.49996
 20
-31.84998
 30
0.0
 11
0.0
 21
0.6
 31
0.0
210
0.0
220
0.0
230
1.0
 40
1.0
 41
0.0
 42
6.283185307179586
  0
ELLIPSE
  5
62
330
1F
100
AcDbEntity
  8
Layer 1
 62
   250
370
    53
100
AcDbEllipse
 10
-31.49996
 20
-31.84998
 30
0.0
 11
0.0
 21
0.6
 31
0.0
210
0.0
220
0.0
230
1.0
 40
1.0
 41
0.0
 42
6.283185307179586
  0
ELLIPSE
  5
63
330
1F
100
AcDbEntity
  8
Layer 1
 62
   250
370
    53
100
AcDbEllipse
 10
-29.49996
 20
-31.84998
 30
0.0
 11
0.0
 21
0.6
 31
0.0
210
0.0
220
0.0
230
1.0
 40
1.0
 41
0.0
 42
6.283185307179586
  0
ELLIPSE
  5
64
330
1F
100
AcDbEntity
  8
Layer 1
 62
   250
370
    53
100
AcDbEllipse
 10
-27.49996
 20
-31.84998
 30
0.0
 11
0.0
 21
0.6
 31
0.0
210
0.0
220
0.0
230
1.0
 40
1.0
 41
0.0
 42
6.283185307179586
  0
ELLIPSE
  5
65
330
1F
100
AcDbEntity
  8
Layer 1
 62
   250
370
    53
100
AcDbEllipse
 10
-25.49996
 20
-31.84998
 30
0.0
 11
0.0
 21
0.6
 31
0.0
210
0.0
220
0.0
230
1.0
 40
1.0
 41
0.0
 42
6.283185307179586
  0
ELLIPSE
  5
66
330
1F
100
AcDbEntity
  8
Layer 1
 62
   250
370
    53
100
AcDbEllipse
 10
-23.49996
 20
-31.84998
 30
0.0
 11
0.0
 21
0.6
 31
0.0
210
0.0
220
0.0
230
1.0
 40
1.0
 41
0.0
 42
6.283185307179586
  0
ELLIPSE
  5
67
330
1F
100
AcDbEntity
  8
Layer 1
 62
   250
370
    53
100
AcDbEllipse
 10
-21.49996
 20
-31.84998
 30
0.0
 11
0.0
 21
0.6
 31
0.0
210
0.0
220
0.0
230
1.0
 40
1.0
 41
0.0
 42
6.283185307179586
  0
ELLIPSE
  5
68
330
1F
100
AcDbEntity
  8
Layer 1
 62
   250
370
    53
100
AcDbEllipse
 10
-19.49996
 20
-31.84998
 30
0.0
 11
0.0
 21
0.6
 31
0.0
210
0.0
220
0.0
230
1.0
 40
1.0
 41
0.0
 42
6.283185307179586
  0
ELLIPSE
  5
69
330
1F
100
AcDbEntity
  8
Layer 1
 62
   250
370
    53
100
AcDbEllipse
 10
-17.49996
 20
-31.84998
 30
0.0
 11
0.0
 21
0.6
 31
0.0
210
0.0
220
0.0
230
1.0
 40
1.0
 41
0.0
 42
6.283185307179586
  0
ELLIPSE
  5
6A
330
1F
100
AcDbEntity
  8
Layer 1
 62
   250
370
    53
100
AcDbEllipse
 10
-15.49996
 20
-31.84998
 30
0.0
 11
0.0
 21
0.6
 31
0.0
210
0.0
220
0.0
230
1.0
 40
1.0
 41
0.0
 42
6.283185307179586
  0
ELLIPSE
  5
6B
330
1F
100
AcDbEntity
  8
Layer 1
 62
   250
370
    53
100
AcDbEllipse
 10
-13.49996
 20
-31.84998
 30
0.0
 11
0.0
 21
0.6
 31
0.0
210
0.0
220
0.0
230
1.0
 40
1.0
 41
0.0
 42
6.283185307179586
  0
ELLIPSE
  5
6C
330
1F
100
AcDbEntity
  8
Layer 1
 62
   250
370
    53
100
AcDbEllipse
 10
-11.49996
 20
-31.84998
 30
0.0
 11
0.0
 21
0.6
 31
0.0
210
0.0
220
0.0
230
1.0
 40
1.0
 41
0.0
 42
6.283185307179586
  0
ELLIPSE
  5
6D
330
1F
100
AcDbEntity
  8
Layer 1
 62
   250
370
    53
100
AcDbEllipse
 10
-9.49996
 20
-31.84998
 30
0.0
 11
0.0
 21
0.6
 31
0.0
210
0.0
220
0.0
230
1.0
 40
1.0
 41
0.0
 42
6.283185307179586
  0
ELLIPSE
  5
6E
330
1F
100
AcDbEntity
  8
Layer 1
 62
   250
370
    53
100
AcDbEllipse
 10
-7.49996
 20
-31.84998
 30
0.0
 11
0.0
 21
0.6
 31
0.0
210
0.0
220
0.0
230
1.0
 40
1.0
 41
0.0
 42
6.283185307179586
  0
ELLIPSE
  5
6F
330
1F
100
AcDbEntity
  8
Layer 1
 62
   250
370
    53
100
AcDbEllipse
 10
-5.49996
 20
-31.84998
 30
0.0
 11
0.0
 21
0.6
 31
0.0
210
0.0
220
0.0
230
1.0
 40
1.0
 41
0.0
 42
6.283185307179586
  0
ELLIPSE
  5
70
330
1F
100
AcDbEntity
  8
Layer 1
 62
   250
370
    53
100
AcDbEllipse
 10
-3.49996
 20
-31.84998
 30
0.0
 11
0.0
 21
0.6
 31
0.0
210
0.0
220
0.0
230
1.0
 40
1.0
 41
0.0
 42
6.283185307179586
  0
ELLIPSE
  5
71
330
1F
100
AcDbEntity
  8
Layer 1
 62
   250
370
    53
100
AcDbEllipse
 10
-1.49996
 20
-31.84998
 30
0.0
 11
0.0
 21
0.6
 31
0.0
210
0.0
220
0.0
230
1.0
 40
1.0
 41
0.0
 42
6.283185307179586
  0
ELLIPSE
  5
72
330
1F
100
AcDbEntity
  8
Layer 1
 62
   250
370
    53
100
AcDbEllipse
 10
-35.49996
 20
-29.84998
 30
0.0
 11
0.0
 21
0.6
 31
0.0
210
0.0
220
0.0
230
1.0
 40
1.0
 41
0.0
 42
6.283185307179586
  0
ELLIPSE
  5
73
330
1F
100
AcDbEntity
  8
Layer 1
 62
   250
370
    53
100
AcDbEllipse
 10
-33.49996
 20
-29.84998
 30
0.0
 11
0.0
 21
0.6
 31
0.0
210
0.0
220
0.0
230
1.0
 40
1.0
 41
0.0
 42
6.283185307179586
  0
ELLIPSE
  5
74
330
1F
100
AcDbEntity
  8
Layer 1
 62
   250
370
    53
100
AcDbEllipse
 10
-31.49996
 20
-29.84998
 30
0.0
 11
0.0
 21
0.6
 31
0.0
210
0.0
220
0.0
230
1.0
 40
1.0
 41
0.0
 42
6.283185307179586
  0
ELLIPSE
  5
75
330
1F
100
AcDbEntity
  8
Layer 1
 62
   250
370
    53
100
AcDbEllipse
 10
-29.49996
 20
-29.84998
 30
0.0
 11
0.0
 21
0.6
 31
0.0
210
0.0
220
0.0
230
1.0
 40
1.0
 41
0.0
 42
6.283185307179586
  0
ELLIPSE
  5
76
330
1F
100
AcDbEntity
  8
Layer 1
 62
   250
370
    53
100
AcDbEllipse
 10
-27.49996
 20
-29.84998
 30
0.0
 11
0.0
 21
0.6
 31
0.0
210
0.0
220
0.0
230
1.0
 40
1.0
 41
0.0
 42
6.283185307179586
  0
ELLIPSE
  5
77
330
1F
100
AcDbEntity
  8
Layer 1
 62
   250
370
    53
100
AcDbEllipse
 10
-25.49996
 20
-29.84998
 30
0.0
 11
0.0
 21
0.6
 31
0.0
210
0.0
220
0.0
230
1.0
 40
1.0
 41
0.0
 42
6.283185307179586
  0
ELLIPSE
  5
78
330
1F
100
AcDbEntity
  8
Layer 1
 62
   250
370
    53
100
AcDbEllipse
 10
-23.49996
 20
-29.84998
 30
0.0
 11
0.0
 21
0.6
 31
0.0
210
0.0
220
0.0
230
1.0
 40
1.0
 41
0.0
 42
6.283185307179586
  0
ELLIPSE
  5
79
330
1F
100
AcDbEntity
  8
Layer 1
 62
   250
370
    53
100
AcDbEllipse
 10
-21.49996
 20
-29.84998
 30
0.0
 11
0.0
 21
0.6
 31
0.0
210
0.0
220
0.0
230
1.0
 40
1.0
 41
0.0
 42
6.283185307179586
  0
ELLIPSE
  5
7A
330
1F
100
AcDbEntity
  8
Layer 1
 62
   250
370
    53
100
AcDbEllipse
 10
-19.49996
 20
-29.84998
 30
0.0
 11
0.0
 21
0.6
 31
0.0
210
0.0
220
0.0
230
1.0
 40
1.0
 41
0.0
 42
6.283185307179586
  0
ELLIPSE
  5
7B
330
1F
100
AcDbEntity
  8
Layer 1
 62
   250
370
    53
100
AcDbEllipse
 10
-17.49996
 20
-29.84998
 30
0.0
 11
0.0
 21
0.6
 31
0.0
210
0.0
220
0.0
230
1.0
 40
1.0
 41
0.0
 42
6.283185307179586
  0
ELLIPSE
  5
7C
330
1F
100
AcDbEntity
  8
Layer 1
 62
   250
370
    53
100
AcDbEllipse
 10
-15.49996
 20
-29.84998
 30
0.0
 11
0.0
 21
0.6
 31
0.0
210
0.0
220
0.0
230
1.0
 40
1.0
 41
0.0
 42
6.283185307179586
  0
ELLIPSE
  5
7D
330
1F
100
AcDbEntity
  8
Layer 1
 62
   250
370
    53
100
AcDbEllipse
 10
-13.49996
 20
-29.84998
 30
0.0
 11
0.0
 21
0.6
 31
0.0
210
0.0
220
0.0
230
1.0
 40
1.0
 41
0.0
 42
6.283185307179586
  0
ELLIPSE
  5
7E
330
1F
100
AcDbEntity
  8
Layer 1
 62
   250
370
    53
100
AcDbEllipse
 10
-11.49996
 20
-29.84998
 30
0.0
 11
0.0
 21
0.6
 31
0.0
210
0.0
220
0.0
230
1.0
 40
1.0
 41
0.0
 42
6.283185307179586
  0
ELLIPSE
  5
7F
330
1F
100
AcDbEntity
  8
Layer 1
 62
   250
370
    53
100
AcDbEllipse
 10
-9.49996
 20
-29.84998
 30
0.0
 11
0.0
 21
0.6
 31
0.0
210
0.0
220
0.0
230
1.0
 40
1.0
 41
0.0
 42
6.283185307179586
  0
ELLIPSE
  5
80
330
1F
100
AcDbEntity
  8
Layer 1
 62
   250
370
    53
100
AcDbEllipse
 10
-7.49996
 20
-29.84998
 30
0.0
 11
0.0
 21
0.6
 31
0.0
210
0.0
220
0.0
230
1.0
 40
1.0
 41
0.0
 42
6.283185307179586
  0
ELLIPSE
  5
81
330
1F
100
AcDbEntity
  8
Layer 1
 62
   250
370
    53
100
AcDbEllipse
 10
-5.49996
 20
-29.84998
 30
0.0
 11
0.0
 21
0.6
 31
0.0
210
0.0
220
0.0
230
1.0
 40
1.0
 41
0.0
 42
6.283185307179586
  0
ELLIPSE
  5
82
330
1F
100
AcDbEntity
  8
Layer 1
 62
   250
370
    53
100
AcDbEllipse
 10
-3.49996
 20
-29.84998
 30
0.0
 11
0.0
 21
0.6
 31
0.0
210
0.0
220
0.0
230
1.0
 40
1.0
 41
0.0
 42
6.283185307179586
  0
ELLIPSE
  5
83
330
1F
100
AcDbEntity
  8
Layer 1
 62
   250
370
    53
100
AcDbEllipse
 10
-1.49996
 20
-29.84998
 30
0.0
 11
0.0
 21
0.6
 31
0.0
210
0.0
220
0.0
230
1.0
 40
1.0
 41
0.0
 42
6.283185307179586
  0
ELLIPSE
  5
84
330
1F
100
AcDbEntity
  8
Layer 1
 62
   250
370
    53
100
AcDbEllipse
 10
-35.49996
 20
-27.84998
 30
0.0
 11
0.0
 21
0.6
 31
0.0
210
0.0
220
0.0
230
1.0
 40
1.0
 41
0.0
 42
6.283185307179586
  0
ELLIPSE
  5
85
330
1F
100
AcDbEntity
  8
Layer 1
 62
   250
370
    53
100
AcDbEllipse
 10
-33.49996
 20
-27.84998
 30
0.0
 11
0.0
 21
0.6
 31
0.0
210
0.0
220
0.0
230
1.0
 40
1.0
 41
0.0
 42
6.283185307179586
  0
ELLIPSE
  5
86
330
1F
100
AcDbEntity
  8
Layer 1
 62
   250
370
    53
100
AcDbEllipse
 10
-31.49996
 20
-27.84998
 30
0.0
 11
0.0
 21
0.6
 31
0.0
210
0.0
220
0.0
230
1.0
 40
1.0
 41
0.0
 42
6.283185307179586
  0
ELLIPSE
  5
87
330
1F
100
AcDbEntity
  8
Layer 1
 62
   250
370
    53
100
AcDbEllipse
 10
-29.49996
 20
-27.84998
 30
0.0
 11
0.0
 21
0.6
 31
0.0
210
0.0
220
0.0
230
1.0
 40
1.0
 41
0.0
 42
6.283185307179586
  0
ELLIPSE
  5
88
330
1F
100
AcDbEntity
  8
Layer 1
 62
   250
370
    53
100
AcDbEllipse
 10
-27.49996
 20
-27.84998
 30
0.0
 11
0.0
 21
0.6
 31
0.0
210
0.0
220
0.0
230
1.0
 40
1.0
 41
0.0
 42
6.283185307179586
  0
ELLIPSE
  5
89
330
1F
100
AcDbEntity
  8
Layer 1
 62
   250
370
    53
100
AcDbEllipse
 10
-25.49996
 20
-27.84998
 30
0.0
 11
0.0
 21
0.6
 31
0.0
210
0.0
220
0.0
230
1.0
 40
1.0
 41
0.0
 42
6.283185307179586
  0
ELLIPSE
  5
8A
330
1F
100
AcDbEntity
  8
Layer 1
 62
   250
370
    53
100
AcDbEllipse
 10
-23.49996
 20
-27.84998
 30
0.0
 11
0.0
 21
0.6
 31
0.0
210
0.0
220
0.0
230
1.0
 40
1.0
 41
0.0
 42
6.283185307179586
  0
ELLIPSE
  5
8B
330
1F
100
AcDbEntity
  8
Layer 1
 62
   250
370
    53
100
AcDbEllipse
 10
-21.49996
 20
-27.84998
 30
0.0
 11
0.0
 21
0.6
 31
0.0
210
0.0
220
0.0
230
1.0
 40
1.0
 41
0.0
 42
6.283185307179586
  0
ELLIPSE
  5
8C
330
1F
100
AcDbEntity
  8
Layer 1
 62
   250
370
    53
100
AcDbEllipse
 10
-19.49996
 20
-27.84998
 30
0.0
 11
0.0
 21
0.6
 31
0.0
210
0.0
220
0.0
230
1.0
 40
1.0
 41
0.0
 42
6.283185307179586
  0
ELLIPSE
  5
8D
330
1F
100
AcDbEntity
  8
Layer 1
 62
   250
370
    53
100
AcDbEllipse
 10
-17.49996
 20
-27.84998
 30
0.0
 11
0.0
 21
0.6
 31
0.0
210
0.0
220
0.0
230
1.0
 40
1.0
 41
0.0
 42
6.283185307179586
  0
ELLIPSE
  5
8E
330
1F
100
AcDbEntity
  8
Layer 1
 62
   250
370
    53
100
AcDbEllipse
 10
-15.49996
 20
-27.84998
 30
0.0
 11
0.0
 21
0.6
 31
0.0
210
0.0
220
0.0
230
1.0
 40
1.0
 41
0.0
 42
6.283185307179586
  0
ELLIPSE
  5
8F
330
1F
100
AcDbEntity
  8
Layer 1
 62
   250
370
    53
100
AcDbEllipse
 10
-13.49996
 20
-27.84998
 30
0.0
 11
0.0
 21
0.6
 31
0.0
210
0.0
220
0.0
230
1.0
 40
1.0
 41
0.0
 42
6.283185307179586
  0
ELLIPSE
  5
90
330
1F
100
AcDbEntity
  8
Layer 1
 62
   250
370
    53
100
AcDbEllipse
 10
-11.49996
 20
-27.84998
 30
0.0
 11
0.0
 21
0.6
 31
0.0
210
0.0
220
0.0
230
1.0
 40
1.0
 41
0.0
 42
6.283185307179586
  0
ELLIPSE
  5
91
330
1F
100
AcDbEntity
  8
Layer 1
 62
   250
370
    53
100
AcDbEllipse
 10
-9.49996
 20
-27.84998
 30
0.0
 11
0.0
 21
0.6
 31
0.0
210
0.0
220
0.0
230
1.0
 40
1.0
 41
0.0
 42
6.283185307179586
  0
ELLIPSE
  5
92
330
1F
100
AcDbEntity
  8
Layer 1
 62
   250
370
    53
100
AcDbEllipse
 10
-7.49996
 20
-27.84998
 30
0.0
 11
0.0
 21
0.6
 31
0.0
210
0.0
220
0.0
230
1.0
 40
1.0
 41
0.0
 42
6.283185307179586
  0
ELLIPSE
  5
93
330
1F
100
AcDbEntity
  8
Layer 1
 62
   250
370
    53
100
AcDbEllipse
 10
-5.49996
 20
-27.84998
 30
0.0
 11
0.0
 21
0.6
 31
0.0
210
0.0
220
0.0
230
1.0
 40
1.0
 41
0.0
 42
6.283185307179586
  0
ELLIPSE
  5
94
330
1F
100
AcDbEntity
  8
Layer 1
 62
   250
370
    53
100
AcDbEllipse
 10
-3.49996
 20
-27.84998
 30
0.0
 11
0.0
 21
0.6
 31
0.0
210
0.0
220
0.0
230
1.0
 40
1.0
 41
0.0
 42
6.283185307179586
  0
ELLIPSE
  5
95
330
1F
100
AcDbEntity
  8
Layer 1
 62
   250
370
    53
100
AcDbEllipse
 10
-1.49996
 20
-27.84998
 30
0.0
 11
0.0
 21
0.6
 31
0.0
210
0.0
220
0.0
230
1.0
 40
1.0
 41
0.0
 42
6.283185307179586
  0
ELLIPSE
  5
96
330
1F
100
AcDbEntity
  8
Layer 1
 62
   250
370
    53
100
AcDbEllipse
 10
-35.49996
 20
-25.84998
 30
0.0
 11
0.0
 21
0.6
 31
0.0
210
0.0
220
0.0
230
1.0
 40
1.0
 41
0.0
 42
6.283185307179586
  0
ELLIPSE
  5
97
330
1F
100
AcDbEntity
  8
Layer 1
 62
   250
370
    53
100
AcDbEllipse
 10
-33.49996
 20
-25.84998
 30
0.0
 11
0.0
 21
0.6
 31
0.0
210
0.0
220
0.0
230
1.0
 40
1.0
 41
0.0
 42
6.283185307179586
  0
ELLIPSE
  5
98
330
1F
100
AcDbEntity
  8
Layer 1
 62
   250
370
    53
100
AcDbEllipse
 10
-31.49996
 20
-25.84998
 30
0.0
 11
0.0
 21
0.6
 31
0.0
210
0.0
220
0.0
230
1.0
 40
1.0
 41
0.0
 42
6.283185307179586
  0
ELLIPSE
  5
99
330
1F
100
AcDbEntity
  8
Layer 1
 62
   250
370
    53
100
AcDbEllipse
 10
-29.49996
 20
-25.84998
 30
0.0
 11
0.0
 21
0.6
 31
0.0
210
0.0
220
0.0
230
1.0
 40
1.0
 41
0.0
 42
6.283185307179586
  0
ELLIPSE
  5
9A
330
1F
100
AcDbEntity
  8
Layer 1
 62
   250
370
    53
100
AcDbEllipse
 10
-27.49996
 20
-25.84998
 30
0.0
 11
0.0
 21
0.6
 31
0.0
210
0.0
220
0.0
230
1.0
 40
1.0
 41
0.0
 42
6.283185307179586
  0
ELLIPSE
  5
9B
330
1F
100
AcDbEntity
  8
Layer 1
 62
   250
370
    53
100
AcDbEllipse
 10
-25.49996
 20
-25.84998
 30
0.0
 11
0.0
 21
0.6
 31
0.0
210
0.0
220
0.0
230
1.0
 40
1.0
 41
0.0
 42
6.283185307179586
  0
ELLIPSE
  5
9C
330
1F
100
AcDbEntity
  8
Layer 1
 62
   250
370
    53
100
AcDbEllipse
 10
-23.49996
 20
-25.84998
 30
0.0
 11
0.0
 21
0.6
 31
0.0
210
0.0
220
0.0
230
1.0
 40
1.0
 41
0.0
 42
6.283185307179586
  0
ELLIPSE
  5
9D
330
1F
100
AcDbEntity
  8
Layer 1
 62
   250
370
    53
100
AcDbEllipse
 10
-21.49996
 20
-25.84998
 30
0.0
 11
0.0
 21
0.6
 31
0.0
210
0.0
220
0.0
230
1.0
 40
1.0
 41
0.0
 42
6.283185307179586
  0
ELLIPSE
  5
9E
330
1F
100
AcDbEntity
  8
Layer 1
 62
   250
370
    53
100
AcDbEllipse
 10
-19.49996
 20
-25.84998
 30
0.0
 11
0.0
 21
0.6
 31
0.0
210
0.0
220
0.0
230
1.0
 40
1.0
 41
0.0
 42
6.283185307179586
  0
ELLIPSE
  5
9F
330
1F
100
AcDbEntity
  8
Layer 1
 62
   250
370
    53
100
AcDbEllipse
 10
-17.49996
 20
-25.84998
 30
0.0
 11
0.0
 21
0.6
 31
0.0
210
0.0
220
0.0
230
1.0
 40
1.0
 41
0.0
 42
6.283185307179586
  0
ELLIPSE
  5
A0
330
1F
100
AcDbEntity
  8
Layer 1
 62
   250
370
    53
100
AcDbEllipse
 10
-15.49996
 20
-25.84998
 30
0.0
 11
0.0
 21
0.6
 31
0.0
210
0.0
220
0.0
230
1.0
 40
1.0
 41
0.0
 42
6.283185307179586
  0
ELLIPSE
  5
A1
330
1F
100
AcDbEntity
  8
Layer 1
 62
   250
370
    53
100
AcDbEllipse
 10
-13.49996
 20
-25.84998
 30
0.0
 11
0.0
 21
0.6
 31
0.0
210
0.0
220
0.0
230
1.0
 40
1.0
 41
0.0
 42
6.283185307179586
  0
ELLIPSE
  5
A2
330
1F
100
AcDbEntity
  8
Layer 1
 62
   250
370
    53
100
AcDbEllipse
 10
-11.49996
 20
-25.84998
 30
0.0
 11
0.0
 21
0.6
 31
0.0
210
0.0
220
0.0
230
1.0
 40
1.0
 41
0.0
 42
6.283185307179586
  0
ELLIPSE
  5
A3
330
1F
100
AcDbEntity
  8
Layer 1
 62
   250
370
    53
100
AcDbEllipse
 10
-9.49996
 20
-25.84998
 30
0.0
 11
0.0
 21
0.6
 31
0.0
210
0.0
220
0.0
230
1.0
 40
1.0
 41
0.0
 42
6.283185307179586
  0
ELLIPSE
  5
A4
330
1F
100
AcDbEntity
  8
Layer 1
 62
   250
370
    53
100
AcDbEllipse
 10
-7.49996
 20
-25.84998
 30
0.0
 11
0.0
 21
0.6
 31
0.0
210
0.0
220
0.0
230
1.0
 40
1.0
 41
0.0
 42
6.283185307179586
  0
ELLIPSE
  5
A5
330
1F
100
AcDbEntity
  8
Layer 1
 62
   250
370
    53
100
AcDbEllipse
 10
-5.49996
 20
-25.84998
 30
0.0
 11
0.0
 21
0.6
 31
0.0
210
0.0
220
0.0
230
1.0
 40
1.0
 41
0.0
 42
6.283185307179586
  0
ELLIPSE
  5
A6
330
1F
100
AcDbEntity
  8
Layer 1
 62
   250
370
    53
100
AcDbEllipse
 10
-3.49996
 20
-25.84998
 30
0.0
 11
0.0
 21
0.6
 31
0.0
210
0.0
220
0.0
230
1.0
 40
1.0
 41
0.0
 42
6.283185307179586
  0
ELLIPSE
  5
A7
330
1F
100
AcDbEntity
  8
Layer 1
 62
   250
370
    53
100
AcDbEllipse
 10
-1.49996
 20
-25.84998
 30
0.0
 11
0.0
 21
0.6
 31
0.0
210
0.0
220
0.0
230
1.0
 40
1.0
 41
0.0
 42
6.283185307179586
  0
ELLIPSE
  5
A8
330
1F
100
AcDbEntity
  8
Layer 1
 62
   250
370
    53
100
AcDbEllipse
 10
-35.49996
 20
-23.84998
 30
0.0
 11
0.0
 21
0.6
 31
0.0
210
0.0
220
0.0
230
1.0
 40
1.0
 41
0.0
 42
6.283185307179586
  0
ELLIPSE
  5
A9
330
1F
100
AcDbEntity
  8
Layer 1
 62
   250
370
    53
100
AcDbEllipse
 10
-33.49996
 20
-23.84998
 30
0.0
 11
0.0
 21
0.6
 31
0.0
210
0.0
220
0.0
230
1.0
 40
1.0
 41
0.0
 42
6.283185307179586
  0
ELLIPSE
  5
AA
330
1F
100
AcDbEntity
  8
Layer 1
 62
   250
370
    53
100
AcDbEllipse
 10
-31.49996
 20
-23.84998
 30
0.0
 11
0.0
 21
0.6
 31
0.0
210
0.0
220
0.0
230
1.0
 40
1.0
 41
0.0
 42
6.283185307179586
  0
ELLIPSE
  5
AB
330
1F
100
AcDbEntity
  8
Layer 1
 62
   250
370
    53
100
AcDbEllipse
 10
-29.49996
 20
-23.84998
 30
0.0
 11
0.0
 21
0.6
 31
0.0
210
0.0
220
0.0
230
1.0
 40
1.0
 41
0.0
 42
6.283185307179586
  0
ELLIPSE
  5
AC
330
1F
100
AcDbEntity
  8
Layer 1
 62
   250
370
    53
100
AcDbEllipse
 10
-27.49996
 20
-23.84998
 30
0.0
 11
0.0
 21
0.6
 31
0.0
210
0.0
220
0.0
230
1.0
 40
1.0
 41
0.0
 42
6.283185307179586
  0
ELLIPSE
  5
AD
330
1F
100
AcDbEntity
  8
Layer 1
 62
   250
370
    53
100
AcDbEllipse
 10
-25.49996
 20
-23.84998
 30
0.0
 11
0.0
 21
0.6
 31
0.0
210
0.0
220
0.0
230
1.0
 40
1.0
 41
0.0
 42
6.283185307179586
  0
ELLIPSE
  5
AE
330
1F
100
AcDbEntity
  8
Layer 1
 62
   250
370
    53
100
AcDbEllipse
 10
-23.49996
 20
-23.84998
 30
0.0
 11
0.0
 21
0.6
 31
0.0
210
0.0
220
0.0
230
1.0
 40
1.0
 41
0.0
 42
6.283185307179586
  0
ELLIPSE
  5
AF
330
1F
100
AcDbEntity
  8
Layer 1
 62
   250
370
    53
100
AcDbEllipse
 10
-21.49996
 20
-23.84998
 30
0.0
 11
0.0
 21
0.6
 31
0.0
210
0.0
220
0.0
230
1.0
 40
1.0
 41
0.0
 42
6.283185307179586
  0
ELLIPSE
  5
B0
330
1F
100
AcDbEntity
  8
Layer 1
 62
   250
370
    53
100
AcDbEllipse
 10
-19.49996
 20
-23.84998
 30
0.0
 11
0.0
 21
0.6
 31
0.0
210
0.0
220
0.0
230
1.0
 40
1.0
 41
0.0
 42
6.283185307179586
  0
ELLIPSE
  5
B1
330
1F
100
AcDbEntity
  8
Layer 1
 62
   250
370
    53
100
AcDbEllipse
 10
-17.49996
 20
-23.84998
 30
0.0
 11
0.0
 21
0.6
 31
0.0
210
0.0
220
0.0
230
1.0
 40
1.0
 41
0.0
 42
6.283185307179586
  0
ELLIPSE
  5
B2
330
1F
100
AcDbEntity
  8
Layer 1
 62
   250
370
    53
100
AcDbEllipse
 10
-15.49996
 20
-23.84998
 30
0.0
 11
0.0
 21
0.6
 31
0.0
210
0.0
220
0.0
230
1.0
 40
1.0
 41
0.0
 42
6.283185307179586
  0
ELLIPSE
  5
B3
330
1F
100
AcDbEntity
  8
Layer 1
 62
   250
370
    53
100
AcDbEllipse
 10
-13.49996
 20
-23.84998
 30
0.0
 11
0.0
 21
0.6
 31
0.0
210
0.0
220
0.0
230
1.0
 40
1.0
 41
0.0
 42
6.283185307179586
  0
ELLIPSE
  5
B4
330
1F
100
AcDbEntity
  8
Layer 1
 62
   250
370
    53
100
AcDbEllipse
 10
-11.49996
 20
-23.84998
 30
0.0
 11
0.0
 21
0.6
 31
0.0
210
0.0
220
0.0
230
1.0
 40
1.0
 41
0.0
 42
6.283185307179586
  0
ELLIPSE
  5
B5
330
1F
100
AcDbEntity
  8
Layer 1
 62
   250
370
    53
100
AcDbEllipse
 10
-9.49996
 20
-23.84998
 30
0.0
 11
0.0
 21
0.6
 31
0.0
210
0.0
220
0.0
230
1.0
 40
1.0
 41
0.0
 42
6.283185307179586
  0
ELLIPSE
  5
B6
330
1F
100
AcDbEntity
  8
Layer 1
 62
   250
370
    53
100
AcDbEllipse
 10
-7.49996
 20
-23.84998
 30
0.0
 11
0.0
 21
0.6
 31
0.0
210
0.0
220
0.0
230
1.0
 40
1.0
 41
0.0
 42
6.283185307179586
  0
ELLIPSE
  5
B7
330
1F
100
AcDbEntity
  8
Layer 1
 62
   250
370
    53
100
AcDbEllipse
 10
-5.49996
 20
-23.84998
 30
0.0
 11
0.0
 21
0.6
 31
0.0
210
0.0
220
0.0
230
1.0
 40
1.0
 41
0.0
 42
6.283185307179586
  0
ELLIPSE
  5
B8
330
1F
100
AcDbEntity
  8
Layer 1
 62
   250
370
    53
100
AcDbEllipse
 10
-3.49996
 20
-23.84998
 30
0.0
 11
0.0
 21
0.6
 31
0.0
210
0.0
220
0.0
230
1.0
 40
1.0
 41
0.0
 42
6.283185307179586
  0
ELLIPSE
  5
B9
330
1F
100
AcDbEntity
  8
Layer 1
 62
   250
370
    53
100
AcDbEllipse
 10
-1.49996
 20
-23.84998
 30
0.0
 11
0.0
 21
0.6
 31
0.0
210
0.0
220
0.0
230
1.0
 40
1.0
 41
0.0
 42
6.283185307179586
  0
ELLIPSE
  5
BA
330
1F
100
AcDbEntity
  8
Layer 1
 62
   250
370
    53
100
AcDbEllipse
 10
-35.49996
 20
-21.84998
 30
0.0
 11
0.0
 21
0.6
 31
0.0
210
0.0
220
0.0
230
1.0
 40
1.0
 41
0.0
 42
6.283185307179586
  0
ELLIPSE
  5
BB
330
1F
100
AcDbEntity
  8
Layer 1
 62
   250
370
    53
100
AcDbEllipse
 10
-33.49996
 20
-21.84998
 30
0.0
 11
0.0
 21
0.6
 31
0.0
210
0.0
220
0.0
230
1.0
 40
1.0
 41
0.0
 42
6.283185307179586
  0
ELLIPSE
  5
BC
330
1F
100
AcDbEntity
  8
Layer 1
 62
   250
370
    53
100
AcDbEllipse
 10
-31.49996
 20
-21.84998
 30
0.0
 11
0.0
 21
0.6
 31
0.0
210
0.0
220
0.0
230
1.0
 40
1.0
 41
0.0
 42
6.283185307179586
  0
ELLIPSE
  5
BD
330
1F
100
AcDbEntity
  8
Layer 1
 62
   250
370
    53
100
AcDbEllipse
 10
-29.49996
 20
-21.84998
 30
0.0
 11
0.0
 21
0.6
 31
0.0
210
0.0
220
0.0
230
1.0
 40
1.0
 41
0.0
 42
6.283185307179586
  0
ELLIPSE
  5
BE
330
1F
100
AcDbEntity
  8
Layer 1
 62
   250
370
    53
100
AcDbEllipse
 10
-27.49996
 20
-21.84998
 30
0.0
 11
0.0
 21
0.6
 31
0.0
210
0.0
220
0.0
230
1.0
 40
1.0
 41
0.0
 42
6.283185307179586
  0
ELLIPSE
  5
BF
330
1F
100
AcDbEntity
  8
Layer 1
 62
   250
370
    53
100
AcDbEllipse
 10
-25.49996
 20
-21.84998
 30
0.0
 11
0.0
 21
0.6
 31
0.0
210
0.0
220
0.0
230
1.0
 40
1.0
 41
0.0
 42
6.283185307179586
  0
ELLIPSE
  5
C0
330
1F
100
AcDbEntity
  8
Layer 1
 62
   250
370
    53
100
AcDbEllipse
 10
-23.49996
 20
-21.84998
 30
0.0
 11
0.0
 21
0.6
 31
0.0
210
0.0
220
0.0
230
1.0
 40
1.0
 41
0.0
 42
6.283185307179586
  0
ELLIPSE
  5
C1
330
1F
100
AcDbEntity
  8
Layer 1
 62
   250
370
    53
100
AcDbEllipse
 10
-21.49996
 20
-21.84998
 30
0.0
 11
0.0
 21
0.6
 31
0.0
210
0.0
220
0.0
230
1.0
 40
1.0
 41
0.0
 42
6.283185307179586
  0
ELLIPSE
  5
C2
330
1F
100
AcDbEntity
  8
Layer 1
 62
   250
370
    53
100
AcDbEllipse
 10
-19.49996
 20
-21.84998
 30
0.0
 11
0.0
 21
0.6
 31
0.0
210
0.0
220
0.0
230
1.0
 40
1.0
 41
0.0
 42
6.283185307179586
  0
ELLIPSE
  5
C3
330
1F
100
AcDbEntity
  8
Layer 1
 62
   250
370
    53
100
AcDbEllipse
 10
-17.49996
 20
-21.84998
 30
0.0
 11
0.0
 21
0.6
 31
0.0
210
0.0
220
0.0
230
1.0
 40
1.0
 41
0.0
 42
6.283185307179586
  0
ELLIPSE
  5
C4
330
1F
100
AcDbEntity
  8
Layer 1
 62
   250
370
    53
100
AcDbEllipse
 10
-15.49996
 20
-21.84998
 30
0.0
 11
0.0
 21
0.6
 31
0.0
210
0.0
220
0.0
230
1.0
 40
1.0
 41
0.0
 42
6.283185307179586
  0
ELLIPSE
  5
C5
330
1F
100
AcDbEntity
  8
Layer 1
 62
   250
370
    53
100
AcDbEllipse
 10
-13.49996
 20
-21.84998
 30
0.0
 11
0.0
 21
0.6
 31
0.0
210
0.0
220
0.0
230
1.0
 40
1.0
 41
0.0
 42
6.283185307179586
  0
ELLIPSE
  5
C6
330
1F
100
AcDbEntity
  8
Layer 1
 62
   250
370
    53
100
AcDbEllipse
 10
-11.49996
 20
-21.84998
 30
0.0
 11
0.0
 21
0.6
 31
0.0
210
0.0
220
0.0
230
1.0
 40
1.0
 41
0.0
 42
6.283185307179586
  0
ELLIPSE
  5
C7
330
1F
100
AcDbEntity
  8
Layer 1
 62
   250
370
    53
100
AcDbEllipse
 10
-9.49996
 20
-21.84998
 30
0.0
 11
0.0
 21
0.6
 31
0.0
210
0.0
220
0.0
230
1.0
 40
1.0
 41
0.0
 42
6.283185307179586
  0
ELLIPSE
  5
C8
330
1F
100
AcDbEntity
  8
Layer 1
 62
   250
370
    53
100
AcDbEllipse
 10
-7.49996
 20
-21.84998
 30
0.0
 11
0.0
 21
0.6
 31
0.0
210
0.0
220
0.0
230
1.0
 40
1.0
 41
0.0
 42
6.283185307179586
  0
ELLIPSE
  5
C9
330
1F
100
AcDbEntity
  8
Layer 1
 62
   250
370
    53
100
AcDbEllipse
 10
-5.49996
 20
-21.84998
 30
0.0
 11
0.0
 21
0.6
 31
0.0
210
0.0
220
0.0
230
1.0
 40
1.0
 41
0.0
 42
6.283185307179586
  0
ELLIPSE
  5
CA
330
1F
100
AcDbEntity
  8
Layer 1
 62
   250
370
    53
100
AcDbEllipse
 10
-3.49996
 20
-21.84998
 30
0.0
 11
0.0
 21
0.6
 31
0.0
210
0.0
220
0.0
230
1.0
 40
1.0
 41
0.0
 42
6.283185307179586
  0
ELLIPSE
  5
CB
330
1F
100
AcDbEntity
  8
Layer 1
 62
   250
370
    53
100
AcDbEllipse
 10
-1.49996
 20
-21.84998
 30
0.0
 11
0.0
 21
0.6
 31
0.0
210
0.0
220
0.0
230
1.0
 40
1.0
 41
0.0
 42
6.283185307179586
  0
ELLIPSE
  5
CC
330
1F
100
AcDbEntity
  8
Layer 1
 62
   250
370
    53
100
AcDbEllipse
 10
-35.49996
 20
-19.84998
 30
0.0
 11
0.0
 21
0.6
 31
0.0
210
0.0
220
0.0
230
1.0
 40
1.0
 41
0.0
 42
6.283185307179586
  0
ELLIPSE
  5
CD
330
1F
100
AcDbEntity
  8
Layer 1
 62
   250
370
    53
100
AcDbEllipse
 10
-33.49996
 20
-19.84998
 30
0.0
 11
0.0
 21
0.6
 31
0.0
210
0.0
220
0.0
230
1.0
 40
1.0
 41
0.0
 42
6.283185307179586
  0
ELLIPSE
  5
CE
330
1F
100
AcDbEntity
  8
Layer 1
 62
   250
370
    53
100
AcDbEllipse
 10
-31.49996
 20
-19.84998
 30
0.0
 11
0.0
 21
0.6
 31
0.0
210
0.0
220
0.0
230
1.0
 40
1.0
 41
0.0
 42
6.283185307179586
  0
ELLIPSE
  5
CF
330
1F
100
AcDbEntity
  8
Layer 1
 62
   250
370
    53
100
AcDbEllipse
 10
-29.49996
 20
-19.84998
 30
0.0
 11
0.0
 21
0.6
 31
0.0
210
0.0
220
0.0
230
1.0
 40
1.0
 41
0.0
 42
6.283185307179586
  0
ELLIPSE
  5
D0
330
1F
100
AcDbEntity
  8
Layer 1
 62
   250
370
    53
100
AcDbEllipse
 10
-27.49996
 20
-19.84998
 30
0.0
 11
0.0
 21
0.6
 31
0.0
210
0.0
220
0.0
230
1.0
 40
1.0
 41
0.0
 42
6.283185307179586
  0
ELLIPSE
  5
D1
330
1F
100
AcDbEntity
  8
Layer 1
 62
   250
370
    53
100
AcDbEllipse
 10
-25.49996
 20
-19.84998
 30
0.0
 11
0.0
 21
0.6
 31
0.0
210
0.0
220
0.0
230
1.0
 40
1.0
 41
0.0
 42
6.283185307179586
  0
ELLIPSE
  5
D2
330
1F
100
AcDbEntity
  8
Layer 1
 62
   250
370
    53
100
AcDbEllipse
 10
-23.49996
 20
-19.84998
 30
0.0
 11
0.0
 21
0.6
 31
0.0
210
0.0
220
0.0
230
1.0
 40
1.0
 41
0.0
 42
6.283185307179586
  0
ELLIPSE
  5
D3
330
1F
100
AcDbEntity
  8
Layer 1
 62
   250
370
    53
100
AcDbEllipse
 10
-21.49996
 20
-19.84998
 30
0.0
 11
0.0
 21
0.6
 31
0.0
210
0.0
220
0.0
230
1.0
 40
1.0
 41
0.0
 42
6.283185307179586
  0
ELLIPSE
  5
D4
330
1F
100
AcDbEntity
  8
Layer 1
 62
   250
370
    53
100
AcDbEllipse
 10
-19.49996
 20
-19.84998
 30
0.0
 11
0.0
 21
0.6
 31
0.0
210
0.0
220
0.0
230
1.0
 40
1.0
 41
0.0
 42
6.283185307179586
  0
ELLIPSE
  5
D5
330
1F
100
AcDbEntity
  8
Layer 1
 62
   250
370
    53
100
AcDbEllipse
 10
-17.49996
 20
-19.84998
 30
0.0
 11
0.0
 21
0.6
 31
0.0
210
0.0
220
0.0
230
1.0
 40
1.0
 41
0.0
 42
6.283185307179586
  0
ELLIPSE
  5
D6
330
1F
100
AcDbEntity
  8
Layer 1
 62
   250
370
    53
100
AcDbEllipse
 10
-15.49996
 20
-19.84998
 30
0.0
 11
0.0
 21
0.6
 31
0.0
210
0.0
220
0.0
230
1.0
 40
1.0
 41
0.0
 42
6.283185307179586
  0
ELLIPSE
  5
D7
330
1F
100
AcDbEntity
  8
Layer 1
 62
   250
370
    53
100
AcDbEllipse
 10
-13.49996
 20
-19.84998
 30
0.0
 11
0.0
 21
0.6
 31
0.0
210
0.0
220
0.0
230
1.0
 40
1.0
 41
0.0
 42
6.283185307179586
  0
ELLIPSE
  5
D8
330
1F
100
AcDbEntity
  8
Layer 1
 62
   250
370
    53
100
AcDbEllipse
 10
-11.49996
 20
-19.84998
 30
0.0
 11
0.0
 21
0.6
 31
0.0
210
0.0
220
0.0
230
1.0
 40
1.0
 41
0.0
 42
6.283185307179586
  0
ELLIPSE
  5
D9
330
1F
100
AcDbEntity
  8
Layer 1
 62
   250
370
    53
100
AcDbEllipse
 10
-9.49996
 20
-19.84998
 30
0.0
 11
0.0
 21
0.6
 31
0.0
210
0.0
220
0.0
230
1.0
 40
1.0
 41
0.0
 42
6.283185307179586
  0
ELLIPSE
  5
DA
330
1F
100
AcDbEntity
  8
Layer 1
 62
   250
370
    53
100
AcDbEllipse
 10
-7.49996
 20
-19.84998
 30
0.0
 11
0.0
 21
0.6
 31
0.0
210
0.0
220
0.0
230
1.0
 40
1.0
 41
0.0
 42
6.283185307179586
  0
ELLIPSE
  5
DB
330
1F
100
AcDbEntity
  8
Layer 1
 62
   250
370
    53
100
AcDbEllipse
 10
-5.49996
 20
-19.84998
 30
0.0
 11
0.0
 21
0.6
 31
0.0
210
0.0
220
0.0
230
1.0
 40
1.0
 41
0.0
 42
6.283185307179586
  0
ELLIPSE
  5
DC
330
1F
100
AcDbEntity
  8
Layer 1
 62
   250
370
    53
100
AcDbEllipse
 10
-3.49996
 20
-19.84998
 30
0.0
 11
0.0
 21
0.6
 31
0.0
210
0.0
220
0.0
230
1.0
 40
1.0
 41
0.0
 42
6.283185307179586
  0
ELLIPSE
  5
DD
330
1F
100
AcDbEntity
  8
Layer 1
 62
   250
370
    53
100
AcDbEllipse
 10
-1.49996
 20
-19.84998
 30
0.0
 11
0.0
 21
0.6
 31
0.0
210
0.0
220
0.0
230
1.0
 40
1.0
 41
0.0
 42
6.283185307179586
  0
ELLIPSE
  5
DE
330
1F
100
AcDbEntity
  8
Layer 1
 62
   250
370
    53
100
AcDbEllipse
 10
-35.49996
 20
-17.84998
 30
0.0
 11
0.0
 21
0.6
 31
0.0
210
0.0
220
0.0
230
1.0
 40
1.0
 41
0.0
 42
6.283185307179586
  0
ELLIPSE
  5
DF
330
1F
100
AcDbEntity
  8
Layer 1
 62
   250
370
    53
100
AcDbEllipse
 10
-33.49996
 20
-17.84998
 30
0.0
 11
0.0
 21
0.6
 31
0.0
210
0.0
220
0.0
230
1.0
 40
1.0
 41
0.0
 42
6.283185307179586
  0
ELLIPSE
  5
E0
330
1F
100
AcDbEntity
  8
Layer 1
 62
   250
370
    53
100
AcDbEllipse
 10
-31.49996
 20
-17.84998
 30
0.0
 11
0.0
 21
0.6
 31
0.0
210
0.0
220
0.0
230
1.0
 40
1.0
 41
0.0
 42
6.283185307179586
  0
ELLIPSE
  5
E1
330
1F
100
AcDbEntity
  8
Layer 1
 62
   250
370
    53
100
AcDbEllipse
 10
-29.49996
 20
-17.84998
 30
0.0
 11
0.0
 21
0.6
 31
0.0
210
0.0
220
0.0
230
1.0
 40
1.0
 41
0.0
 42
6.283185307179586
  0
ELLIPSE
  5
E2
330
1F
100
AcDbEntity
  8
Layer 1
 62
   250
370
    53
100
AcDbEllipse
 10
-27.49996
 20
-17.84998
 30
0.0
 11
0.0
 21
0.6
 31
0.0
210
0.0
220
0.0
230
1.0
 40
1.0
 41
0.0
 42
6.283185307179586
  0
ELLIPSE
  5
E3
330
1F
100
AcDbEntity
  8
Layer 1
 62
   250
370
    53
100
AcDbEllipse
 10
-25.49996
 20
-17.84998
 30
0.0
 11
0.0
 21
0.6
 31
0.0
210
0.0
220
0.0
230
1.0
 40
1.0
 41
0.0
 42
6.283185307179586
  0
ELLIPSE
  5
E4
330
1F
100
AcDbEntity
  8
Layer 1
 62
   250
370
    53
100
AcDbEllipse
 10
-23.49996
 20
-17.84998
 30
0.0
 11
0.0
 21
0.6
 31
0.0
210
0.0
220
0.0
230
1.0
 40
1.0
 41
0.0
 42
6.283185307179586
  0
ELLIPSE
  5
E5
330
1F
100
AcDbEntity
  8
Layer 1
 62
   250
370
    53
100
AcDbEllipse
 10
-21.49996
 20
-17.84998
 30
0.0
 11
0.0
 21
0.6
 31
0.0
210
0.0
220
0.0
230
1.0
 40
1.0
 41
0.0
 42
6.283185307179586
  0
ELLIPSE
  5
E6
330
1F
100
AcDbEntity
  8
Layer 1
 62
   250
370
    53
100
AcDbEllipse
 10
-19.49996
 20
-17.84998
 30
0.0
 11
0.0
 21
0.6
 31
0.0
210
0.0
220
0.0
230
1.0
 40
1.0
 41
0.0
 42
6.283185307179586
  0
ELLIPSE
  5
E7
330
1F
100
AcDbEntity
  8
Layer 1
 62
   250
370
    53
100
AcDbEllipse
 10
-17.49996
 20
-17.84998
 30
0.0
 11
0.0
 21
0.6
 31
0.0
210
0.0
220
0.0
230
1.0
 40
1.0
 41
0.0
 42
6.283185307179586
  0
ELLIPSE
  5
E8
330
1F
100
AcDbEntity
  8
Layer 1
 62
   250
370
    53
100
AcDbEllipse
 10
-15.49996
 20
-17.84998
 30
0.0
 11
0.0
 21
0.6
 31
0.0
210
0.0
220
0.0
230
1.0
 40
1.0
 41
0.0
 42
6.283185307179586
  0
ELLIPSE
  5
E9
330
1F
100
AcDbEntity
  8
Layer 1
 62
   250
370
    53
100
AcDbEllipse
 10
-13.49996
 20
-17.84998
 30
0.0
 11
0.0
 21
0.6
 31
0.0
210
0.0
220
0.0
230
1.0
 40
1.0
 41
0.0
 42
6.283185307179586
  0
ELLIPSE
  5
EA
330
1F
100
AcDbEntity
  8
Layer 1
 62
   250
370
    53
100
AcDbEllipse
 10
-11.49996
 20
-17.84998
 30
0.0
 11
0.0
 21
0.6
 31
0.0
210
0.0
220
0.0
230
1.0
 40
1.0
 41
0.0
 42
6.283185307179586
  0
ELLIPSE
  5
EB
330
1F
100
AcDbEntity
  8
Layer 1
 62
   250
370
    53
100
AcDbEllipse
 10
-9.49996
 20
-17.84998
 30
0.0
 11
0.0
 21
0.6
 31
0.0
210
0.0
220
0.0
230
1.0
 40
1.0
 41
0.0
 42
6.283185307179586
  0
ELLIPSE
  5
EC
330
1F
100
AcDbEntity
  8
Layer 1
 62
   250
370
    53
100
AcDbEllipse
 10
-7.49996
 20
-17.84998
 30
0.0
 11
0.0
 21
0.6
 31
0.0
210
0.0
220
0.0
230
1.0
 40
1.0
 41
0.0
 42
6.283185307179586
  0
ELLIPSE
  5
ED
330
1F
100
AcDbEntity
  8
Layer 1
 62
   250
370
    53
100
AcDbEllipse
 10
-5.49996
 20
-17.84998
 30
0.0
 11
0.0
 21
0.6
 31
0.0
210
0.0
220
0.0
230
1.0
 40
1.0
 41
0.0
 42
6.283185307179586
  0
ELLIPSE
  5
EE
330
1F
100
AcDbEntity
  8
Layer 1
 62
   250
370
    53
100
AcDbEllipse
 10
-3.49996
 20
-17.84998
 30
0.0
 11
0.0
 21
0.6
 31
0.0
210
0.0
220
0.0
230
1.0
 40
1.0
 41
0.0
 42
6.283185307179586
  0
ELLIPSE
  5
EF
330
1F
100
AcDbEntity
  8
Layer 1
 62
   250
370
    53
100
AcDbEllipse
 10
-1.49996
 20
-17.84998
 30
0.0
 11
0.0
 21
0.6
 31
0.0
210
0.0
220
0.0
230
1.0
 40
1.0
 41
0.0
 42
6.283185307179586
  0
SPLINE
  5
F0
330
1F
100
AcDbEntity
  8
Layer 1
 62
    30
370
    53
100
AcDbSpline
210
0.0
220
0.0
230
1.0
 70
    11
 71
     3
 72
   188
 73
   184
 74
     0
 42
0.0000000001
 43
0.0000000001
 40
0.0
 40
0.0
 40
0.0
 40
0.0
 40
0.0217391304347826
 40
0.0217391304347826
 40
0.0217391304347826
 40
0.0217391304347826
 40
0.0434782608695652
 40
0.0434782608695652
 40
0.0434782608695652
 40
0.0434782608695652
 40
0.0652173913043478
 40
0.0652173913043478
 40
0.0652173913043478
 40
0.0652173913043478
 40
0.0869565217391304
 40
0.0869565217391304
 40
0.0869565217391304
 40
0.0869565217391304
 40
0.108695652173913
 40
0.108695652173913
 40
0.108695652173913
 40
0.108695652173913
 40
0.1304347826086956
 40
0.1304347826086956
 40
0.1304347826086956
 40
0.1304347826086956
 40
0.1521739130434783
 40
0.1521739130434783
 40
0.1521739130434783
 40
0.1521739130434783
 40
0.1739130434782609
 40
0.1739130434782609
 40
0.1739130434782609
 40
0.1739130434782609
 40
0.1956521739130435
 40
0.1956521739130435
 40
0.1956521739130435
 40
0.1956521739130435
 40
0.2173913043478261
 40
0.2173913043478261
 40
0.2173913043478261
 40
0.2173913043478261
 40
0.2391304347826086
 40
0.2391304347826086
 40
0.2391304347826086
 40
0.2391304347826086
 40
0.2608695652173912
 40
0.2608695652173912
 40
0.2608695652173912
 40
0.2608695652173912
 40
0.2826086956521738
 40
0.2826086956521738
 40
0.2826086956521738
 40
0.2826086956521738
 40
0.3043478260869564
 40
0.3043478260869564
 40
0.3043478260869564
 40
0.3043478260869564
 40
0.326086956521739
 40
0.326086956521739
 40
0.326086956521739
 40
0.326086956521739
 40
0.3478260869565216
 40
0.3478260869565216
 40
0.3478260869565216
 40
0.3478260869565216
 40
0.3695652173913042
 40
0.3695652173913042
 40
0.3695652173913042
 40
0.3695652173913042
 40
0.3913043478260868
 40
0.3913043478260868
 40
0.3913043478260868
 40
0.3913043478260868
 40
0.4130434782608694
 40
0.4130434782608694
 40
0.4130434782608694
 40
0.4130434782608694
 40
0.434782608695652
 40
0.434782608695652
 40
0.434782608695652
 40
0.434782608695652
 40
0.4565217391304346
 40
0.4565217391304346
 40
0.4565217391304346
 40
0.4565217391304346
 40
0.4782608695652172
 40
0.4782608695652172
 40
0.4782608695652172
 40
0.4782608695652172
 40
0.4999999999999998
 40
0.4999999999999998
 40
0.4999999999999998
 40
0.4999999999999998
 40
0.5217391304347824
 40
0.5217391304347824
 40
0.5217391304347824
 40
0.5217391304347824
 40
0.543478260869565
 40
0.543478260869565
 40
0.543478260869565
 40
0.543478260869565
 40
0.5652173913043476
 40
0.5652173913043476
 40
0.5652173913043476
 40
0.5652173913043476
 40
0.5869565217391302
 40
0.5869565217391302
 40
0.5869565217391302
 40
0.5869565217391302
 40
0.6086956521739127
 40
0.6086956521739127
 40
0.6086956521739127
 40
0.6086956521739127
 40
0.6304347826086953
 40
0.6304347826086953
 40
0.6304347826086953
 40
0.6304347826086953
 40
0.6521739130434779
 40
0.6521739130434779
 40
0.6521739130434779
 40
0.6521739130434779
 40
0.6739130434782605
 40
0.6739130434782605
 40
0.6739130434782605
 40
0.6739130434782605
 40
0.6956521739130431
 40
0.6956521739130431
 40
0.6956521739130431
 40
0.6956521739130431
 40
0.7173913043478257
 40
0.7173913043478257
 40
0.7173913043478257
 40
0.7173913043478257
 40
0.7391304347826083
 40
0.7391304347826083
 40
0.7391304347826083
 40
0.7391304347826083
 40
0.7608695652173909
 40
0.7608695652173909
 40
0.7608695652173909
 40
0.7608695652173909
 40
0.7826086956521735
 40
0.7826086956521735
 40
0.7826086956521735
 40
0.7826086956521735
 40
0.8043478260869561
 40
0.8043478260869561
 40
0.8043478260869561
 40
0.8043478260869561
 40
0.8260869565217387
 40
0.8260869565217387
 40
0.8260869565217387
 40
0.8260869565217387
 40
0.8478260869565213
 40
0.8478260869565213
 40
0.8478260869565213
 40
0.8478260869565213
 40
0.8695652173913039
 40
0.8695652173913039
 40
0.8695652173913039
 40
0.8695652173913039
 40
0.8913043478260865
 40
0.8913043478260865
 40
0.8913043478260865
 40
0.8913043478260865
 40
0.9130434782608691
 40
0.9130434782608691
 40
0.9130434782608691
 40
0.9130434782608691
 40
0.9347826086956517
 40
0.9347826086956517
 40
0.9347826086956517
 40
0.9347826086956517
 40
0.9565217391304343
 40
0.9565217391304343
 40
0.9565217391304343
 40
0.9565217391304343
 40
0.9782608695652169
 40
0.9782608695652169
 40
0.9782608695652169
 40
0.9782608695652169
 40
1.0
 40
1.0
 40
1.0
 40
1.0
 10
-2.75827
 20
-32.62415
 30
0.0
 10
-2.75813
 20
-32.64102
 30
0.0
 10
-2.75517
 20
-32.65548
 30
0.0
 10
-2.74924
 20
-32.66755
 30
0.0
 10
-2.74924
 20
-32.66755
 30
0.0
 10
-2.74338
 20
-32.67954
 30
0.0
 10
-2.7352
 20
-32.68935
 30
0.0
 10
-2.7249
 20
-32.69697
 30
0.0
 10
-2.7249
 20
-32.69697
 30
0.0
 10
-2.71453
 20
-32.70452
 30
0.0
 10
-2.7026
 20
-32.71009
 30
0.0
 10
-2.68913
 20
-32.71369
 30
0.0
 10
-2.68913
 20
-32.71369
 30
0.0
 10
-2.67572
 20
-32.71722
 30
0.0
 10
-2.66133
 20
-32.71898
 30
0.0
 10
-2.64609
 20
-32.71898
 30
0.0
 10
-2.64609
 20
-32.71898
 30
0.0
 10
-2.63071
 20
-32.71891
 30
0.0
 10
-2.61688
 20
-32.71665
 30
0.0
 10
-2.60453
 20
-32.71235
 30
0.0
 10
-2.60453
 20
-32.71235
 30
0.0
 10
-2.59225
 20
-32.70804
 30
0.0
 10
-2.58174
 20
-32.70226
 30
0.0
 10
-2.57292
 20
-32.69499
 30
0.0
 10
-2.57292
 20
-32.69499
 30
0.0
 10
-2.56417
 20
-32.68772
 30
0.0
 10
-2.5574
 20
-32.67961
 30
0.0
 10
-2.5526
 20
-32.67058
 30
0.0
 10
-2.5526
 20
-32.67058
 30
0.0
 10
-2.5478
 20
-32.66155
 30
0.0
 10
-2.54526
 20
-32.65231
 30
0.0
 10
-2.54491
 20
-32.64278
 30
0.0
 10
-2.54491
 20
-32.64278
 30
0.0
 10
-2.54449
 20
-32.63029
 30
0.0
 10
-2.54632
 20
-32.61886
 30
0.0
 10
-2.55034
 20
-32.60856
 30
0.0
 10
-2.55034
 20
-32.60856
 30
0.0
 10
-2.55437
 20
-32.59826
 30
0.0
 10
-2.56058
 20
-32.58965
 30
0.0
 10
-2.56897
 20
-32.5826
 30
0.0
 10
-2.56897
 20
-32.5826
 30
0.0
 10
-2.5773
 20
-32.57554
 30
0.0
 10
-2.58781
 20
-32.5706
 30
0.0
 10
-2.60037
 20
-32.56785
 30
0.0
 10
-2.60037
 20
-32.56785
 30
0.0
 10
-2.60037
 20
-32.56785
 30
0.0
 10
-2.70408
 20
-32.54541
 30
0.0
 10
-2.70408
 20
-32.54541
 30
0.0
 10
-2.70408
 20
-32.54541
 30
0.0
 10
-2.71382
 20
-32.54337
 30
0.0
 10
-2.72222
 20
-32.53991
 30
0.0
 10
-2.72913
 20
-32.53511
 30
0.0
 10
-2.72913
 20
-32.53511
 30
0.0
 10
-2.73605
 20
-32.53025
 30
0.0
 10
-2.74141
 20
-32.52354
 30
0.0
 10
-2.74508
 20
-32.51493
 30
0.0
 10
-2.74508
 20
-32.51493
 30
0.0
 10
-2.74875
 20
-32.5064
 30
0.0
 10
-2.75065
 20
-32.49553
 30
0.0
 10
-2.75065
 20
-32.48234
 30
0.0
 10
-2.75065
 20
-32.48234
 30
0.0
 10
-2.75065
 20
-32.47232
 30
0.0
 10
-2.7486
 20
-32.46287
 30
0.0
 10
-2.74444
 20
-32.45398
 30
0.0
 10
-2.74444
 20
-32.45398
 30
0.0
 10
-2.74035
 20
-32.44509
 30
0.0
 10
-2.73428
 20
-32.43725
 30
0.0
 10
-2.72631
 20
-32.43034
 30
0.0
 10
-2.72631
 20
-32.43034
 30
0.0
 10
-2.71834
 20
-32.4235
 30
0.0
 10
-2.70846
 20
-32.41813
 30
0.0
 10
-2.69675
 20
-32.41425
 30
0.0
 10
-2.69675
 20
-32.41425
 30
0.0
 10
-2.68496
 20
-32.4103
 30
0.0
 10
-2.67149
 20
-32.40833
 30
0.0
 10
-2.65625
 20
-32.40826
 30
0.0
 10
-2.65625
 20
-32.40826
 30
0.0
 10
-2.64094
 20
-32.40826
 30
0.0
 10
-2.6269
 20
-32.41002
 30
0.0
 10
-2.61406
 20
-32.41355
 30
0.0
 10
-2.61406
 20
-32.41355
 30
0.0
 10
-2.60129
 20
-32.41708
 30
0.0
 10
-2.59021
 20
-32.42216
 30
0.0
 10
-2.5809
 20
-32.42893
 30
0.0
 10
-2.5809
 20
-32.42893
 30
0.0
 10
-2.57158
 20
-32.4357
 30
0.0
 10
-2.56439
 20
-32.44403
 30
0.0
 10
-2.55945
 20
-32.45376
 30
0.0
 10
-2.55945
 20
-32.45376
 30
0.0
 10
-2.55451
 20
-32.46357
 30
0.0
 10
-2.55218
 20
-32.47479
 30
0.0
 10
-2.55253
 20
-32.48742
 30
0.0
 10
-2.55253
 20
-32.48742
 30
0.0
 10
-2.55218
 20
-32.47479
 30
0.0
 10
-2.55451
 20
-32.46357
 30
0.0
 10
-2.55945
 20
-32.45376
 30
0.0
 10
-2.55945
 20
-32.45376
 30
0.0
 10
-2.56439
 20
-32.44403
 30
0.0
 10
-2.57158
 20
-32.4357
 30
0.0
 10
-2.5809
 20
-32.42893
 30
0.0
 10
-2.5809
 20
-32.42893
 30
0.0
 10
-2.59021
 20
-32.42216
 30
0.0
 10
-2.60129
 20
-32.41708
 30
0.0
 10
-2.61406
 20
-32.41355
 30
0.0
 10
-2.61406
 20
-32.41355
 30
0.0
 10
-2.6269
 20
-32.41002
 30
0.0
 10
-2.64094
 20
-32.40826
 30
0.0
 10
-2.65625
 20
-32.40826
 30
0.0
 10
-2.65625
 20
-32.40826
 30
0.0
 10
-2.67149
 20
-32.40833
 30
0.0
 10
-2.68496
 20
-32.4103
 30
0.0
 10
-2.69675
 20
-32.41425
 30
0.0
 10
-2.69675
 20
-32.41425
 30
0.0
 10
-2.70846
 20
-32.41813
 30
0.0
 10
-2.71834
 20
-32.4235
 30
0.0
 10
-2.72631
 20
-32.43034
 30
0.0
 10
-2.72631
 20
-32.43034
 30
0.0
 10
-2.73428
 20
-32.43725
 30
0.0
 10
-2.74035
 20
-32.44509
 30
0.0
 10
-2.74444
 20
-32.45398
 30
0.0
 10
-2.74444
 20
-32.45398
 30
0.0
 10
-2.7486
 20
-32.46287
 30
0.0
 10
-2.75065
 20
-32.47232
 30
0.0
 10
-2.75065
 20
-32.48234
 30
0.0
 10
-2.75065
 20
-32.48234
 30
0.0
 10
-2.75065
 20
-32.49553
 30
0.0
 10
-2.74882
 20
-32.5064
 30
0.0
 10
-2.74529
 20
-32.51486
 30
0.0
 10
-2.74529
 20
-32.51486
 30
0.0
 10
-2.74169
 20
-32.5234
 30
0.0
 10
-2.7364
 20
-32.53003
 30
0.0
 10
-2.72948
 20
-32.5349
 30
0.0
 10
-2.72948
 20
-32.5349
 30
0.0
 10
-2.72257
 20
-32.5397
 30
0.0
 10
-2.7141
 20
-32.54323
 30
0.0
 10
-2.70408
 20
-32.54541
 30
0.0
 10
-2.70408
 20
-32.54541
 30
0.0
 10
-2.70408
 20
-32.54541
 30
0.0
 10
-2.60037
 20
-32.56785
 30
0.0
 10
-2.60037
 20
-32.56785
 30
0.0
 10
-2.60037
 20
-32.56785
 30
0.0
 10
-2.58753
 20
-32.5706
 30
0.0
 10
-2.57694
 20
-32.57554
 30
0.0
 10
-2.56862
 20
-32.5826
 30
0.0
 10
-2.56862
 20
-32.5826
 30
0.0
 10
-2.56022
 20
-32.58965
 30
0.0
 10
-2.55408
 20
-32.59826
 30
0.0
 10
-2.55013
 20
-32.60856
 30
0.0
 10
-2.55013
 20
-32.60856
 30
0.0
 10
-2.54625
 20
-32.61886
 30
0.0
 10
-2.54449
 20
-32.63029
 30
0.0
 10
-2.54491
 20
-32.64278
 30
0.0
 10
-2.54491
 20
-32.64278
 30
0.0
 10
-2.54526
 20
-32.65231
 30
0.0
 10
-2.5478
 20
-32.66155
 30
0.0
 10
-2.5526
 20
-32.67058
 30
0.0
 10
-2.5526
 20
-32.67058
 30
0.0
 10
-2.5574
 20
-32.67961
 30
0.0
 10
-2.56417
 20
-32.68772
 30
0.0
 10
-2.57292
 20
-32.69499
 30
0.0
 10
-2.57292
 20
-32.69499
 30
0.0
 10
-2.58174
 20
-32.70226
 30
0.0
 10
-2.59225
 20
-32.70804
 30
0.0
 10
-2.60453
 20
-32.71235
 30
0.0
 10
-2.60453
 20
-32.71235
 30
0.0
 10
-2.61688
 20
-32.71665
 30
0.0
 10
-2.63071
 20
-32.71891
 30
0.0
 10
-2.64609
 20
-32.71898
 30
0.0
 10
-2.64609
 20
-32.71898
 30
0.0
 10
-2.66133
 20
-32.71898
 30
0.0
 10
-2.67572
 20
-32.71722
 30
0.0
 10
-2.68913
 20
-32.71369
 30
0.0
 10
-2.68913
 20
-32.71369
 30
0.0
 10
-2.7026
 20
-32.71009
 30
0.0
 10
-2.71453
 20
-32.70452
 30
0.0
 10
-2.7249
 20
-32.69697
 30
0.0
 10
-2.7249
 20
-32.69697
 30
0.0
 10
-2.7352
 20
-32.68935
 30
0.0
 10
-2.74338
 20
-32.67954
 30
0.0
 10
-2.74924
 20
-32.66755
 30
0.0
 10
-2.74924
 20
-32.66755
 30
0.0
 10
-2.75517
 20
-32.65548
 30
0.0
 10
-2.75813
 20
-32.64102
 30
0.0
 10
-2.75827
 20
-32.62415
 30
0.0
  0
SPLINE
  5
F1
330
1F
100
AcDbEntity
  8
Layer 1
 62
    30
370
    53
100
AcDbSpline
210
0.0
220
0.0
230
1.0
 70
    11
 71
     3
 72
    92
 73
    88
 74
     0
 42
0.0000000001
 43
0.0000000001
 40
0.0
 40
0.0
 40
0.0
 40
0.0
 40
0.0454545454545455
 40
0.0454545454545455
 40
0.0454545454545455
 40
0.0454545454545455
 40
0.0909090909090909
 40
0.0909090909090909
 40
0.0909090909090909
 40
0.0909090909090909
 40
0.1363636363636364
 40
0.1363636363636364
 40
0.1363636363636364
 40
0.1363636363636364
 40
0.1818181818181818
 40
0.1818181818181818
 40
0.1818181818181818
 40
0.1818181818181818
 40
0.2272727272727273
 40
0.2272727272727273
 40
0.2272727272727273
 40
0.2272727272727273
 40
0.2727272727272728
 40
0.2727272727272728
 40
0.2727272727272728
 40
0.2727272727272728
 40
0.3181818181818182
 40
0.3181818181818182
 40
0.3181818181818182
 40
0.3181818181818182
 40
0.3636363636363637
 40
0.3636363636363637
 40
0.3636363636363637
 40
0.3636363636363637
 40
0.4090909090909092
 40
0.4090909090909092
 40
0.4090909090909092
 40
0.4090909090909092
 40
0.4545454545454546
 40
0.4545454545454546
 40
0.4545454545454546
 40
0.4545454545454546
 40
0.5000000000000001
 40
0.5000000000000001
 40
0.5000000000000001
 40
0.5000000000000001
 40
0.5454545454545455
 40
0.5454545454545455
 40
0.5454545454545455
 40
0.5454545454545455
 40
0.5909090909090909
 40
0.5909090909090909
 40
0.5909090909090909
 40
0.5909090909090909
 40
0.6363636363636364
 40
0.6363636363636364
 40
0.6363636363636364
 40
0.6363636363636364
 40
0.6818181818181818
 40
0.6818181818181818
 40
0.6818181818181818
 40
0.6818181818181818
 40
0.7272727272727272
 40
0.7272727272727272
 40
0.7272727272727272
 40
0.7272727272727272
 40
0.7727272727272726
 40
0.7727272727272726
 40
0.7727272727272726
 40
0.7727272727272726
 40
0.818181818181818
 40
0.818181818181818
 40
0.818181818181818
 40
0.818181818181818
 40
0.8636363636363634
 40
0.8636363636363634
 40
0.8636363636363634
 40
0.8636363636363634
 40
0.9090909090909088
 40
0.9090909090909088
 40
0.9090909090909088
 40
0.9090909090909088
 40
0.9545454545454543
 40
0.9545454545454543
 40
0.9545454545454543
 40
0.9545454545454543
 40
1.0
 40
1.0
 40
1.0
 40
1.0
 10
-2.39632
 20
-32.71644
 30
0.0
 10
-2.39632
 20
-32.71644
 30
0.0
 10
-2.39632
 20
-32.41122
 30
0.0
 10
-2.39632
 20
-32.41122
 30
0.0
 10
-2.39632
 20
-32.41122
 30
0.0
 10
-2.39632
 20
-32.41122
 30
0.0
 10
-2.29895
 20
-32.41122
 30
0.0
 10
-2.29895
 20
-32.41122
 30
0.0
 10
-2.29895
 20
-32.41122
 30
0.0
 10
-2.27948
 20
-32.41129
 30
0.0
 10
-2.26347
 20
-32.41348
 30
0.0
 10
-2.25084
 20
-32.41771
 30
0.0
 10
-2.25084
 20
-32.41771
 30
0.0
 10
-2.23828
 20
-32.42187
 30
0.0
 10
-2.2284
 20
-32.42766
 30
0.0
 10
-2.22127
 20
-32.435
 30
0.0
 10
-2.22127
 20
-32.435
 30
0.0
 10
-2.21415
 20
-32.44226
 30
0.0
 10
-2.20907
 20
-32.45059
 30
0.0
 10
-2.20596
 20
-32.45997
 30
0.0
 10
-2.20596
 20
-32.45997
 30
0.0
 10
-2.20293
 20
-32.46936
 30
0.0
 10
-2.20117
 20
-32.47916
 30
0.0
 10
-2.20074
 20
-32.48954
 30
0.0
 10
-2.20074
 20
-32.48954
 30
0.0
 10
-2.20025
 20
-32.49991
 30
0.0
 10
-2.20145
 20
-32.51007
 30
0.0
 10
-2.20427
 20
-32.51994
 30
0.0
 10
-2.20427
 20
-32.51994
 30
0.0
 10
-2.20716
 20
-32.52982
 30
0.0
 10
-2.21203
 20
-32.53878
 30
0.0
 10
-2.21902
 20
-32.54683
 30
0.0
 10
-2.21902
 20
-32.54683
 30
0.0
 10
-2.22593
 20
-32.55487
 30
0.0
 10
-2.23531
 20
-32.56129
 30
0.0
 10
-2.2471
 20
-32.56602
 30
0.0
 10
-2.2471
 20
-32.56602
 30
0.0
 10
-2.25888
 20
-32.57081
 30
0.0
 10
-2.27348
 20
-32.57321
 30
0.0
 10
-2.29091
 20
-32.57335
 30
0.0
 10
-2.29091
 20
-32.57335
 30
0.0
 10
-2.29091
 20
-32.57335
 30
0.0
 10
-2.39632
 20
-32.57335
 30
0.0
 10
-2.39632
 20
-32.57335
 30
0.0
 10
-2.39632
 20
-32.57335
 30
0.0
 10
-2.39632
 20
-32.57335
 30
0.0
 10
-2.29091
 20
-32.57335
 30
0.0
 10
-2.29091
 20
-32.57335
 30
0.0
 10
-2.29091
 20
-32.57335
 30
0.0
 10
-2.27384
 20
-32.57321
 30
0.0
 10
-2.25937
 20
-32.57081
 30
0.0
 10
-2.24766
 20
-32.56602
 30
0.0
 10
-2.24766
 20
-32.56602
 30
0.0
 10
-2.23588
 20
-32.56129
 30
0.0
 10
-2.22649
 20
-32.55487
 30
0.0
 10
-2.21944
 20
-32.54683
 30
0.0
 10
-2.21944
 20
-32.54683
 30
0.0
 10
-2.21245
 20
-32.53878
 30
0.0
 10
-2.20744
 20
-32.52982
 30
0.0
 10
-2.20448
 20
-32.51994
 30
0.0
 10
-2.20448
 20
-32.51994
 30
0.0
 10
-2.20152
 20
-32.51007
 30
0.0
 10
-2.20025
 20
-32.49991
 30
0.0
 10
-2.20074
 20
-32.48954
 30
0.0
 10
-2.20074
 20
-32.48954
 30
0.0
 10
-2.20117
 20
-32.47916
 30
0.0
 10
-2.20293
 20
-32.46936
 30
0.0
 10
-2.2061
 20
-32.45997
 30
0.0
 10
-2.2061
 20
-32.45997
 30
0.0
 10
-2.20921
 20
-32.45059
 30
0.0
 10
-2.21443
 20
-32.44226
 30
0.0
 10
-2.22156
 20
-32.435
 30
0.0
 10
-2.22156
 20
-32.435
 30
0.0
 10
-2.22875
 20
-32.42766
 30
0.0
 10
-2.23863
 20
-32.42187
 30
0.0
 10
-2.25119
 20
-32.41771
 30
0.0
 10
-2.25119
 20
-32.41771
 30
0.0
 10
-2.26382
 20
-32.41348
 30
0.0
 10
-2.27969
 20
-32.41129
 30
0.0
 10
-2.29895
 20
-32.41122
 30
0.0
 10
-2.29895
 20
-32.41122
 30
0.0
 10
-2.29895
 20
-32.41122
 30
0.0
 10
-2.39632
 20
-32.41122
 30
0.0
 10
-2.39632
 20
-32.41122
 30
0.0
 10
-2.39632
 20
-32.41122
 30
0.0
 10
-2.39632
 20
-32.41122
 30
0.0
 10
-2.39632
 20
-32.71644
 30
0.0
 10
-2.39632
 20
-32.71644
 30
0.0
  0
SPLINE
  5
F2
330
1F
100
AcDbEntity
  8
Layer 1
 62
    30
370
    53
100
AcDbSpline
210
0.0
220
0.0
230
1.0
 70
    11
 71
     3
 72
   172
 73
   168
 74
     0
 42
0.0000000001
 43
0.0000000001
 40
0.0
 40
0.0
 40
0.0
 40
0.0
 40
0.0238095238095238
 40
0.0238095238095238
 40
0.0238095238095238
 40
0.0238095238095238
 40
0.0476190476190476
 40
0.0476190476190476
 40
0.0476190476190476
 40
0.0476190476190476
 40
0.0714285714285714
 40
0.0714285714285714
 40
0.0714285714285714
 40
0.0714285714285714
 40
0.0952380952380952
 40
0.0952380952380952
 40
0.0952380952380952
 40
0.0952380952380952
 40
0.119047619047619
 40
0.119047619047619
 40
0.119047619047619
 40
0.119047619047619
 40
0.1428571428571428
 40
0.1428571428571428
 40
0.1428571428571428
 40
0.1428571428571428
 40
0.1666666666666667
 40
0.1666666666666667
 40
0.1666666666666667
 40
0.1666666666666667
 40
0.1904761904761905
 40
0.1904761904761905
 40
0.1904761904761905
 40
0.1904761904761905
 40
0.2142857142857143
 40
0.2142857142857143
 40
0.2142857142857143
 40
0.2142857142857143
 40
0.2380952380952381
 40
0.2380952380952381
 40
0.2380952380952381
 40
0.2380952380952381
 40
0.2619047619047619
 40
0.2619047619047619
 40
0.2619047619047619
 40
0.2619047619047619
 40
0.2857142857142857
 40
0.2857142857142857
 40
0.2857142857142857
 40
0.2857142857142857
 40
0.3095238095238095
 40
0.3095238095238095
 40
0.3095238095238095
 40
0.3095238095238095
 40
0.3333333333333334
 40
0.3333333333333334
 40
0.3333333333333334
 40
0.3333333333333334
 40
0.3571428571428572
 40
0.3571428571428572
 40
0.3571428571428572
 40
0.3571428571428572
 40
0.380952380952381
 40
0.380952380952381
 40
0.380952380952381
 40
0.380952380952381
 40
0.4047619047619049
 40
0.4047619047619049
 40
0.4047619047619049
 40
0.4047619047619049
 40
0.4285714285714287
 40
0.4285714285714287
 40
0.4285714285714287
 40
0.4285714285714287
 40
0.4523809523809526
 40
0.4523809523809526
 40
0.4523809523809526
 40
0.4523809523809526
 40
0.4761904761904764
 40
0.4761904761904764
 40
0.4761904761904764
 40
0.4761904761904764
 40
0.5000000000000002
 40
0.5000000000000002
 40
0.5000000000000002
 40
0.5000000000000002
 40
0.5238095238095241
 40
0.5238095238095241
 40
0.5238095238095241
 40
0.5238095238095241
 40
0.5476190476190479
 40
0.5476190476190479
 40
0.5476190476190479
 40
0.5476190476190479
 40
0.5714285714285717
 40
0.5714285714285717
 40
0.5714285714285717
 40
0.5714285714285717
 40
0.5952380952380956
 40
0.5952380952380956
 40
0.5952380952380956
 40
0.5952380952380956
 40
0.6190476190476194
 40
0.6190476190476194
 40
0.6190476190476194
 40
0.6190476190476194
 40
0.6428571428571432
 40
0.6428571428571432
 40
0.6428571428571432
 40
0.6428571428571432
 40
0.6666666666666671
 40
0.6666666666666671
 40
0.6666666666666671
 40
0.6666666666666671
 40
0.6904761904761909
 40
0.6904761904761909
 40
0.6904761904761909
 40
0.6904761904761909
 40
0.7142857142857147
 40
0.7142857142857147
 40
0.7142857142857147
 40
0.7142857142857147
 40
0.7380952380952386
 40
0.7380952380952386
 40
0.7380952380952386
 40
0.7380952380952386
 40
0.7619047619047624
 40
0.7619047619047624
 40
0.7619047619047624
 40
0.7619047619047624
 40
0.7857142857142863
 40
0.7857142857142863
 40
0.7857142857142863
 40
0.7857142857142863
 40
0.8095238095238101
 40
0.8095238095238101
 40
0.8095238095238101
 40
0.8095238095238101
 40
0.8333333333333339
 40
0.8333333333333339
 40
0.8333333333333339
 40
0.8333333333333339
 40
0.8571428571428578
 40
0.8571428571428578
 40
0.8571428571428578
 40
0.8571428571428578
 40
0.8809523809523816
 40
0.8809523809523816
 40
0.8809523809523816
 40
0.8809523809523816
 40
0.9047619047619054
 40
0.9047619047619054
 40
0.9047619047619054
 40
0.9047619047619054
 40
0.9285714285714293
 40
0.9285714285714293
 40
0.9285714285714293
 40
0.9285714285714293
 40
0.9523809523809531
 40
0.9523809523809531
 40
0.9523809523809531
 40
0.9523809523809531
 40
0.9761904761904769
 40
0.9761904761904769
 40
0.9761904761904769
 40
0.9761904761904769
 40
1.0
 40
1.0
 40
1.0
 40
1.0
 10
-2.91553
 20
-33.29175
 30
0.0
 10
-2.91553
 20
-33.29175
 30
0.0
 10
-3.09714
 20
-33.29175
 30
0.0
 10
-3.09714
 20
-33.29175
 30
0.0
 10
-3.09714
 20
-33.29175
 30
0.0
 10
-3.09679
 20
-33.27947
 30
0.0
 10
-3.09524
 20
-33.26861
 30
0.0
 10
-3.09262
 20
-33.25929
 30
0.0
 10
-3.09262
 20
-33.25929
 30
0.0
 10
-3.08994
 20
-33.24998
 30
0.0
 10
-3.08635
 20
-33.2418
 30
0.0
 10
-3.0819
 20
-33.23474
 30
0.0
 10
-3.0819
 20
-33.23474
 30
0.0
 10
-3.07738
 20
-33.22769
 30
0.0
 10
-3.07223
 20
-33.22141
 30
0.0
 10
-3.06638
 20
-33.2159
 30
0.0
 10
-3.06638
 20
-33.2159
 30
0.0
 10
-3.06052
 20
-33.21033
 30
0.0
 10
-3.05424
 20
-33.20525
 30
0.0
 10
-3.04747
 20
-33.20045
 30
0.0
 10
-3.04747
 20
-33.20045
 30
0.0
 10
-3.0407
 20
-33.19572
 30
0.0
 10
-3.03371
 20
-33.191
 30
0.0
 10
-3.02644
 20
-33.18634
 30
0.0
 10
-3.02644
 20
-33.18634
 30
0.0
 10
-3.02644
 20
-33.18634
 30
0.0
 10
-2.95405
 20
-33.13808
 30
0.0
 10
-2.95405
 20
-33.13808
 30
0.0
 10
-2.95405
 20
-33.13808
 30
0.0
 10
-2.94665
 20
-33.13286
 30
0.0
 10
-2.94086
 20
-33.12715
 30
0.0
 10
-2.93677
 20
-33.12101
 30
0.0
 10
-2.93677
 20
-33.12101
 30
0.0
 10
-2.93261
 20
-33.11487
 30
0.0
 10
-2.92971
 20
-33.10838
 30
0.0
 10
-2.92795
 20
-33.10153
 30
0.0
 10
-2.92795
 20
-33.10153
 30
0.0
 10
-2.92626
 20
-33.09476
 30
0.0
 10
-2.9252
 20
-33.08778
 30
0.0
 10
-2.92485
 20
-33.08072
 30
0.0
 10
-2.92485
 20
-33.08072
 30
0.0
 10
-2.92449
 20
-33.07359
 30
0.0
 10
-2.92435
 20
-33.06647
 30
0.0
 10
-2.92442
 20
-33.05934
 30
0.0
 10
-2.92442
 20
-33.05934
 30
0.0
 10
-2.92442
 20
-33.05349
 30
0.0
 10
-2.9252
 20
-33.04721
 30
0.0
 10
-2.92675
 20
-33.04043
 30
0.0
 10
-2.92675
 20
-33.04043
 30
0.0
 10
-2.92837
 20
-33.03373
 30
0.0
 10
-2.93091
 20
-33.02703
 30
0.0
 10
-2.93451
 20
-33.0204
 30
0.0
 10
-2.93451
 20
-33.0204
 30
0.0
 10
-2.93811
 20
-33.01376
 30
0.0
 10
-2.94291
 20
-33.0077
 30
0.0
 10
-2.9489
 20
-33.00219
 30
0.0
 10
-2.9489
 20
-33.00219
 30
0.0
 10
-2.9549
 20
-32.99676
 30
0.0
 10
-2.96231
 20
-32.99239
 30
0.0
 10
-2.97113
 20
-32.98907
 30
0.0
 10
-2.97113
 20
-32.98907
 30
0.0
 10
-2.97995
 20
-32.98575
 30
0.0
 10
-2.99032
 20
-32.98406
 30
0.0
 10
-3.00231
 20
-32.98399
 30
0.0
 10
-3.00231
 20
-32.98399
 30
0.0
 10
-3.01438
 20
-32.98406
 30
0.0
 10
-3.02503
 20
-32.98575
 30
0.0
 10
-3.03421
 20
-32.989
 30
0.0
 10
-3.03421
 20
-32.989
 30
0.0
 10
-3.04338
 20
-32.99224
 30
0.0
 10
-3.05121
 20
-32.99676
 30
0.0
 10
-3.0577
 20
-33.00247
 30
0.0
 10
-3.0577
 20
-33.00247
 30
0.0
 10
-3.06419
 20
-33.00819
 30
0.0
 10
-3.06941
 20
-33.01482
 30
0.0
 10
-3.0735
 20
-33.02223
 30
0.0
 10
-3.0735
 20
-33.02223
 30
0.0
 10
-3.0776
 20
-33.02964
 30
0.0
 10
-3.08056
 20
-33.03754
 30
0.0
 10
-3.08246
 20
-33.04587
 30
0.0
 10
-3.08246
 20
-33.04587
 30
0.0
 10
-3.08437
 20
-33.05419
 30
0.0
 10
-3.08529
 20
-33.06266
 30
0.0
 10
-3.08529
 20
-33.0712
 30
0.0
 10
-3.08529
 20
-33.0712
 30
0.0
 10
-3.08529
 20
-33.06266
 30
0.0
 10
-3.08437
 20
-33.05419
 30
0.0
 10
-3.08246
 20
-33.04587
 30
0.0
 10
-3.08246
 20
-33.04587
 30
0.0
 10
-3.08056
 20
-33.03754
 30
0.0
 10
-3.0776
 20
-33.02964
 30
0.0
 10
-3.0735
 20
-33.02223
 30
0.0
 10
-3.0735
 20
-33.02223
 30
0.0
 10
-3.06941
 20
-33.01482
 30
0.0
 10
-3.06419
 20
-33.00819
 30
0.0
 10
-3.0577
 20
-33.00247
 30
0.0
 10
-3.0577
 20
-33.00247
 30
0.0
 10
-3.05121
 20
-32.99676
 30
0.0
 10
-3.04338
 20
-32.99224
 30
0.0
 10
-3.03421
 20
-32.989
 30
0.0
 10
-3.03421
 20
-32.989
 30
0.0
 10
-3.02503
 20
-32.98575
 30
0.0
 10
-3.01438
 20
-32.98406
 30
0.0
 10
-3.00231
 20
-32.98399
 30
0.0
 10
-3.00231
 20
-32.98399
 30
0.0
 10
-2.99032
 20
-32.98406
 30
0.0
 10
-2.97995
 20
-32.98575
 30
0.0
 10
-2.97113
 20
-32.98907
 30
0.0
 10
-2.97113
 20
-32.98907
 30
0.0
 10
-2.96231
 20
-32.99239
 30
0.0
 10
-2.9549
 20
-32.99676
 30
0.0
 10
-2.9489
 20
-33.00219
 30
0.0
 10
-2.9489
 20
-33.00219
 30
0.0
 10
-2.94291
 20
-33.0077
 30
0.0
 10
-2.93811
 20
-33.01376
 30
0.0
 10
-2.93451
 20
-33.0204
 30
0.0
 10
-2.93451
 20
-33.0204
 30
0.0
 10
-2.93091
 20
-33.02703
 30
0.0
 10
-2.92837
 20
-33.03373
 30
0.0
 10
-2.92675
 20
-33.04043
 30
0.0
 10
-2.92675
 20
-33.04043
 30
0.0
 10
-2.9252
 20
-33.04721
 30
0.0
 10
-2.92442
 20
-33.05349
 30
0.0
 10
-2.92442
 20
-33.05934
 30
0.0
 10
-2.92442
 20
-33.05934
 30
0.0
 10
-2.92435
 20
-33.06647
 30
0.0
 10
-2.92449
 20
-33.07359
 30
0.0
 10
-2.92485
 20
-33.08072
 30
0.0
 10
-2.92485
 20
-33.08072
 30
0.0
 10
-2.9252
 20
-33.08778
 30
0.0
 10
-2.92626
 20
-33.09476
 30
0.0
 10
-2.92795
 20
-33.10153
 30
0.0
 10
-2.92795
 20
-33.10153
 30
0.0
 10
-2.92971
 20
-33.10838
 30
0.0
 10
-2.93261
 20
-33.11487
 30
0.0
 10
-2.93677
 20
-33.12101
 30
0.0
 10
-2.93677
 20
-33.12101
 30
0.0
 10
-2.94086
 20
-33.12715
 30
0.0
 10
-2.94665
 20
-33.13286
 30
0.0
 10
-2.95405
 20
-33.13808
 30
0.0
 10
-2.95405
 20
-33.13808
 30
0.0
 10
-2.95405
 20
-33.13808
 30
0.0
 10
-3.02644
 20
-33.18634
 30
0.0
 10
-3.02644
 20
-33.18634
 30
0.0
 10
-3.02644
 20
-33.18634
 30
0.0
 10
-3.03371
 20
-33.191
 30
0.0
 10
-3.0407
 20
-33.19572
 30
0.0
 10
-3.04747
 20
-33.20045
 30
0.0
 10
-3.04747
 20
-33.20045
 30
0.0
 10
-3.05424
 20
-33.20525
 30
0.0
 10
-3.06052
 20
-33.21033
 30
0.0
 10
-3.06638
 20
-33.2159
 30
0.0
 10
-3.06638
 20
-33.2159
 30
0.0
 10
-3.07223
 20
-33.22141
 30
0.0
 10
-3.07738
 20
-33.22769
 30
0.0
 10
-3.0819
 20
-33.23474
 30
0.0
 10
-3.0819
 20
-33.23474
 30
0.0
 10
-3.08635
 20
-33.2418
 30
0.0
 10
-3.08994
 20
-33.24998
 30
0.0
 10
-3.09262
 20
-33.25929
 30
0.0
 10
-3.09262
 20
-33.25929
 30
0.0
 10
-3.09524
 20
-33.26861
 30
0.0
 10
-3.09679
 20
-33.27947
 30
0.0
 10
-3.09714
 20
-33.29175
 30
0.0
 10
-3.09714
 20
-33.29175
 30
0.0
 10
-3.09714
 20
-33.29175
 30
0.0
 10
-2.91553
 20
-33.29175
 30
0.0
 10
-2.91553
 20
-33.29175
 30
0.0
  0
SPLINE
  5
F3
330
1F
100
AcDbEntity
  8
Layer 1
 62
    30
370
    53
100
AcDbSpline
210
0.0
220
0.0
230
1.0
 70
    11
 71
     3
 72
    84
 73
    80
 74
     0
 42
0.0000000001
 43
0.0000000001
 40
0.0
 40
0.0
 40
0.0
 40
0.0
 40
0.05
 40
0.05
 40
0.05
 40
0.05
 40
0.1
 40
0.1
 40
0.1
 40
0.1
 40
0.15
 40
0.15
 40
0.15
 40
0.15
 40
0.2
 40
0.2
 40
0.2
 40
0.2
 40
0.25
 40
0.25
 40
0.25
 40
0.25
 40
0.3
 40
0.3
 40
0.3
 40
0.3
 40
0.35
 40
0.35
 40
0.35
 40
0.35
 40
0.4
 40
0.4
 40
0.4
 40
0.4
 40
0.45
 40
0.45
 40
0.45
 40
0.45
 40
0.4999999999999999
 40
0.4999999999999999
 40
0.4999999999999999
 40
0.4999999999999999
 40
0.5499999999999999
 40
0.5499999999999999
 40
0.5499999999999999
 40
0.5499999999999999
 40
0.6
 40
0.6
 40
0.6
 40
0.6
 40
0.65
 40
0.65
 40
0.65
 40
0.65
 40
0.7000000000000001
 40
0.7000000000000001
 40
0.7000000000000001
 40
0.7000000000000001
 40
0.7500000000000001
 40
0.7500000000000001
 40
0.7500000000000001
 40
0.7500000000000001
 40
0.8000000000000002
 40
0.8000000000000002
 40
0.8000000000000002
 40
0.8000000000000002
 40
0.8500000000000002
 40
0.8500000000000002
 40
0.8500000000000002
 40
0.8500000000000002
 40
0.9000000000000002
 40
0.9000000000000002
 40
0.9000000000000002
 40
0.9000000000000002
 40
0.9500000000000003
 40
0.9500000000000003
 40
0.9500000000000003
 40
0.9500000000000003
 40
1.0
 40
1.0
 40
1.0
 40
1.0
 10
-2.72334
 20
-33.29175
 30
0.0
 10
-2.70853
 20
-33.29168
 30
0.0
 10
-2.69576
 20
-33.28907
 30
0.0
 10
-2.6851
 20
-33.28399
 30
0.0
 10
-2.6851
 20
-33.28399
 30
0.0
 10
-2.67452
 20
-33.27891
 30
0.0
 10
-2.6657
 20
-33.27164
 30
0.0
 10
-2.65865
 20
-33.2624
 30
0.0
 10
-2.65865
 20
-33.2624
 30
0.0
 10
-2.65166
 20
-33.25309
 30
0.0
 10
-2.64616
 20
-33.24208
 30
0.0
 10
-2.64207
 20
-33.22938
 30
0.0
 10
-2.64207
 20
-33.22938
 30
0.0
 10
-2.63804
 20
-33.21668
 30
0.0
 10
-2.63515
 20
-33.20278
 30
0.0
 10
-2.63353
 20
-33.18754
 30
0.0
 10
-2.63353
 20
-33.18754
 30
0.0
 10
-2.63183
 20
-33.1723
 30
0.0
 10
-2.63099
 20
-33.15628
 30
0.0
 10
-2.63106
 20
-33.13935
 30
0.0
 10
-2.63106
 20
-33.13935
 30
0.0
 10
-2.63099
 20
-33.12249
 30
0.0
 10
-2.63183
 20
-33.10647
 30
0.0
 10
-2.63353
 20
-33.0913
 30
0.0
 10
-2.63353
 20
-33.0913
 30
0.0
 10
-2.63515
 20
-33.07613
 30
0.0
 10
-2.63804
 20
-33.06216
 30
0.0
 10
-2.64207
 20
-33.04946
 30
0.0
 10
-2.64207
 20
-33.04946
 30
0.0
 10
-2.64616
 20
-33.03683
 30
0.0
 10
-2.65166
 20
-33.02583
 30
0.0
 10
-2.65865
 20
-33.01644
 30
0.0
 10
-2.65865
 20
-33.01644
 30
0.0
 10
-2.6657
 20
-33.00713
 30
0.0
 10
-2.67452
 20
-32.99986
 30
0.0
 10
-2.6851
 20
-32.99478
 30
0.0
 10
-2.6851
 20
-32.99478
 30
0.0
 10
-2.69576
 20
-32.98963
 30
0.0
 10
-2.70853
 20
-32.98702
 30
0.0
 10
-2.72334
 20
-32.98695
 30
0.0
 10
-2.72334
 20
-32.98695
 30
0.0
 10
-2.73816
 20
-32.98702
 30
0.0
 10
-2.75093
 20
-32.98963
 30
0.0
 10
-2.76159
 20
-32.99478
 30
0.0
 10
-2.76159
 20
-32.99478
 30
0.0
 10
-2.77217
 20
-32.99986
 30
0.0
 10
-2.78099
 20
-33.00713
 30
0.0
 10
-2.78804
 20
-33.01644
 30
0.0
 10
-2.78804
 20
-33.01644
 30
0.0
 10
-2.79503
 20
-33.02583
 30
0.0
 10
-2.80053
 20
-33.03683
 30
0.0
 10
-2.80462
 20
-33.04946
 30
0.0
 10
-2.80462
 20
-33.04946
 30
0.0
 10
-2.80865
 20
-33.06216
 30
0.0
 10
-2.81154
 20
-33.07613
 30
0.0
 10
-2.81316
 20
-33.0913
 30
0.0
 10
-2.81316
 20
-33.0913
 30
0.0
 10
-2.81485
 20
-33.10647
 30
0.0
 10
-2.8157
 20
-33.12249
 30
0.0
 10
-2.81563
 20
-33.13935
 30
0.0
 10
-2.81563
 20
-33.13935
 30
0.0
 10
-2.8157
 20
-33.15628
 30
0.0
 10
-2.81485
 20
-33.1723
 30
0.0
 10
-2.81316
 20
-33.18754
 30
0.0
 10
-2.81316
 20
-33.18754
 30
0.0
 10
-2.81154
 20
-33.20278
 30
0.0
 10
-2.80865
 20
-33.21668
 30
0.0
 10
-2.80462
 20
-33.22938
 30
0.0
 10
-2.80462
 20
-33.22938
 30
0.0
 10
-2.80053
 20
-33.24208
 30
0.0
 10
-2.79503
 20
-33.25309
 30
0.0
 10
-2.78804
 20
-33.2624
 30
0.0
 10
-2.78804
 20
-33.2624
 30
0.0
 10
-2.78099
 20
-33.27164
 30
0.0
 10
-2.77217
 20
-33.27891
 30
0.0
 10
-2.76159
 20
-33.28399
 30
0.0
 10
-2.76159
 20
-33.28399
 30
0.0
 10
-2.75093
 20
-33.28907
 30
0.0
 10
-2.73816
 20
-33.29168
 30
0.0
 10
-2.72334
 20
-33.29175
 30
0.0
  0
SPLINE
  5
F4
330
1F
100
AcDbEntity
  8
Layer 1
 62
    30
370
    53
100
AcDbSpline
210
0.0
220
0.0
230
1.0
 70
    11
 71
     3
 72
    84
 73
    80
 74
     0
 42
0.0000000001
 43
0.0000000001
 40
0.0
 40
0.0
 40
0.0
 40
0.0
 40
0.05
 40
0.05
 40
0.05
 40
0.05
 40
0.1
 40
0.1
 40
0.1
 40
0.1
 40
0.15
 40
0.15
 40
0.15
 40
0.15
 40
0.2
 40
0.2
 40
0.2
 40
0.2
 40
0.25
 40
0.25
 40
0.25
 40
0.25
 40
0.3
 40
0.3
 40
0.3
 40
0.3
 40
0.35
 40
0.35
 40
0.35
 40
0.35
 40
0.4
 40
0.4
 40
0.4
 40
0.4
 40
0.45
 40
0.45
 40
0.45
 40
0.45
 40
0.4999999999999999
 40
0.4999999999999999
 40
0.4999999999999999
 40
0.4999999999999999
 40
0.5499999999999999
 40
0.5499999999999999
 40
0.5499999999999999
 40
0.5499999999999999
 40
0.6
 40
0.6
 40
0.6
 40
0.6
 40
0.65
 40
0.65
 40
0.65
 40
0.65
 40
0.7000000000000001
 40
0.7000000000000001
 40
0.7000000000000001
 40
0.7000000000000001
 40
0.7500000000000001
 40
0.7500000000000001
 40
0.7500000000000001
 40
0.7500000000000001
 40
0.8000000000000002
 40
0.8000000000000002
 40
0.8000000000000002
 40
0.8000000000000002
 40
0.8500000000000002
 40
0.8500000000000002
 40
0.8500000000000002
 40
0.8500000000000002
 40
0.9000000000000002
 40
0.9000000000000002
 40
0.9000000000000002
 40
0.9000000000000002
 40
0.9500000000000003
 40
0.9500000000000003
 40
0.9500000000000003
 40
0.9500000000000003
 40
1.0
 40
1.0
 40
1.0
 40
1.0
 10
-2.72334
 20
-33.29175
 30
0.0
 10
-2.70853
 20
-33.29168
 30
0.0
 10
-2.69576
 20
-33.28907
 30
0.0
 10
-2.6851
 20
-33.28399
 30
0.0
 10
-2.6851
 20
-33.28399
 30
0.0
 10
-2.67452
 20
-33.27891
 30
0.0
 10
-2.6657
 20
-33.27164
 30
0.0
 10
-2.65865
 20
-33.2624
 30
0.0
 10
-2.65865
 20
-33.2624
 30
0.0
 10
-2.65166
 20
-33.25309
 30
0.0
 10
-2.64616
 20
-33.24208
 30
0.0
 10
-2.64207
 20
-33.22938
 30
0.0
 10
-2.64207
 20
-33.22938
 30
0.0
 10
-2.63804
 20
-33.21668
 30
0.0
 10
-2.63515
 20
-33.20278
 30
0.0
 10
-2.63353
 20
-33.18754
 30
0.0
 10
-2.63353
 20
-33.18754
 30
0.0
 10
-2.63183
 20
-33.1723
 30
0.0
 10
-2.63099
 20
-33.15628
 30
0.0
 10
-2.63106
 20
-33.13935
 30
0.0
 10
-2.63106
 20
-33.13935
 30
0.0
 10
-2.63099
 20
-33.12249
 30
0.0
 10
-2.63183
 20
-33.10647
 30
0.0
 10
-2.63353
 20
-33.0913
 30
0.0
 10
-2.63353
 20
-33.0913
 30
0.0
 10
-2.63515
 20
-33.07613
 30
0.0
 10
-2.63804
 20
-33.06216
 30
0.0
 10
-2.64207
 20
-33.04946
 30
0.0
 10
-2.64207
 20
-33.04946
 30
0.0
 10
-2.64616
 20
-33.03683
 30
0.0
 10
-2.65166
 20
-33.02583
 30
0.0
 10
-2.65865
 20
-33.01644
 30
0.0
 10
-2.65865
 20
-33.01644
 30
0.0
 10
-2.6657
 20
-33.00713
 30
0.0
 10
-2.67452
 20
-32.99986
 30
0.0
 10
-2.6851
 20
-32.99478
 30
0.0
 10
-2.6851
 20
-32.99478
 30
0.0
 10
-2.69576
 20
-32.98963
 30
0.0
 10
-2.70853
 20
-32.98702
 30
0.0
 10
-2.72334
 20
-32.98695
 30
0.0
 10
-2.72334
 20
-32.98695
 30
0.0
 10
-2.73816
 20
-32.98702
 30
0.0
 10
-2.75093
 20
-32.98963
 30
0.0
 10
-2.76159
 20
-32.99478
 30
0.0
 10
-2.76159
 20
-32.99478
 30
0.0
 10
-2.77217
 20
-32.99986
 30
0.0
 10
-2.78099
 20
-33.00713
 30
0.0
 10
-2.78804
 20
-33.01644
 30
0.0
 10
-2.78804
 20
-33.01644
 30
0.0
 10
-2.79503
 20
-33.02583
 30
0.0
 10
-2.80053
 20
-33.03683
 30
0.0
 10
-2.80462
 20
-33.04946
 30
0.0
 10
-2.80462
 20
-33.04946
 30
0.0
 10
-2.80865
 20
-33.06216
 30
0.0
 10
-2.81154
 20
-33.07613
 30
0.0
 10
-2.81316
 20
-33.0913
 30
0.0
 10
-2.81316
 20
-33.0913
 30
0.0
 10
-2.81485
 20
-33.10647
 30
0.0
 10
-2.8157
 20
-33.12249
 30
0.0
 10
-2.81563
 20
-33.13935
 30
0.0
 10
-2.81563
 20
-33.13935
 30
0.0
 10
-2.8157
 20
-33.15628
 30
0.0
 10
-2.81485
 20
-33.1723
 30
0.0
 10
-2.81316
 20
-33.18754
 30
0.0
 10
-2.81316
 20
-33.18754
 30
0.0
 10
-2.81154
 20
-33.20278
 30
0.0
 10
-2.80865
 20
-33.21668
 30
0.0
 10
-2.80462
 20
-33.22938
 30
0.0
 10
-2.80462
 20
-33.22938
 30
0.0
 10
-2.80053
 20
-33.24208
 30
0.0
 10
-2.79503
 20
-33.25309
 30
0.0
 10
-2.78804
 20
-33.2624
 30
0.0
 10
-2.78804
 20
-33.2624
 30
0.0
 10
-2.78099
 20
-33.27164
 30
0.0
 10
-2.77217
 20
-33.27891
 30
0.0
 10
-2.76159
 20
-33.28399
 30
0.0
 10
-2.76159
 20
-33.28399
 30
0.0
 10
-2.75093
 20
-33.28907
 30
0.0
 10
-2.73816
 20
-33.29168
 30
0.0
 10
-2.72334
 20
-33.29175
 30
0.0
  0
SPLINE
  5
F5
330
1F
100
AcDbEntity
  8
Layer 1
 62
    30
370
    53
100
AcDbSpline
210
0.0
220
0.0
230
1.0
 70
    11
 71
     3
 72
    36
 73
    32
 74
     0
 42
0.0000000001
 43
0.0000000001
 40
0.0
 40
0.0
 40
0.0
 40
0.0
 40
0.125
 40
0.125
 40
0.125
 40
0.125
 40
0.25
 40
0.25
 40
0.25
 40
0.25
 40
0.375
 40
0.375
 40
0.375
 40
0.375
 40
0.5
 40
0.5
 40
0.5
 40
0.5
 40
0.625
 40
0.625
 40
0.625
 40
0.625
 40
0.75
 40
0.75
 40
0.75
 40
0.75
 40
0.875
 40
0.875
 40
0.875
 40
0.875
 40
1.0
 40
1.0
 40
1.0
 40
1.0
 10
-2.53073
 20
-33.29175
 30
0.0
 10
-2.53073
 20
-33.29175
 30
0.0
 10
-2.44352
 20
-33.17068
 30
0.0
 10
-2.44352
 20
-33.17068
 30
0.0
 10
-2.44352
 20
-33.17068
 30
0.0
 10
-2.44352
 20
-33.17068
 30
0.0
 10
-2.51295
 20
-33.07458
 30
0.0
 10
-2.51295
 20
-33.07458
 30
0.0
 10
-2.51295
 20
-33.07458
 30
0.0
 10
-2.51295
 20
-33.07458
 30
0.0
 10
-2.44352
 20
-33.17068
 30
0.0
 10
-2.44352
 20
-33.17068
 30
0.0
 10
-2.44352
 20
-33.17068
 30
0.0
 10
-2.44352
 20
-33.17068
 30
0.0
 10
-2.37367
 20
-33.07458
 30
0.0
 10
-2.37367
 20
-33.07458
 30
0.0
 10
-2.37367
 20
-33.07458
 30
0.0
 10
-2.37367
 20
-33.07458
 30
0.0
 10
-2.44352
 20
-33.17068
 30
0.0
 10
-2.44352
 20
-33.17068
 30
0.0
 10
-2.44352
 20
-33.17068
 30
0.0
 10
-2.44352
 20
-33.17068
 30
0.0
 10
-2.3559
 20
-33.29175
 30
0.0
 10
-2.3559
 20
-33.29175
 30
0.0
 10
-2.3559
 20
-33.29175
 30
0.0
 10
-2.3559
 20
-33.29175
 30
0.0
 10
-2.44352
 20
-33.17068
 30
0.0
 10
-2.44352
 20
-33.17068
 30
0.0
 10
-2.44352
 20
-33.17068
 30
0.0
 10
-2.44352
 20
-33.17068
 30
0.0
 10
-2.53073
 20
-33.29175
 30
0.0
 10
-2.53073
 20
-33.29175
 30
0.0
  0
SPLINE
  5
F6
330
1F
100
AcDbEntity
  8
Layer 1
 62
    30
370
    53
100
AcDbSpline
210
0.0
220
0.0
230
1.0
 70
    11
 71
     3
 72
    52
 73
    48
 74
     0
 42
0.0000000001
 43
0.0000000001
 40
0.0
 40
0.0
 40
0.0
 40
0.0
 40
0.0833333333333333
 40
0.0833333333333333
 40
0.0833333333333333
 40
0.0833333333333333
 40
0.1666666666666667
 40
0.1666666666666667
 40
0.1666666666666667
 40
0.1666666666666667
 40
0.25
 40
0.25
 40
0.25
 40
0.25
 40
0.3333333333333333
 40
0.3333333333333333
 40
0.3333333333333333
 40
0.3333333333333333
 40
0.4166666666666666
 40
0.4166666666666666
 40
0.4166666666666666
 40
0.4166666666666666
 40
0.4999999999999999
 40
0.4999999999999999
 40
0.4999999999999999
 40
0.4999999999999999
 40
0.5833333333333333
 40
0.5833333333333333
 40
0.5833333333333333
 40
0.5833333333333333
 40
0.6666666666666666
 40
0.6666666666666666
 40
0.6666666666666666
 40
0.6666666666666666
 40
0.75
 40
0.75
 40
0.75
 40
0.75
 40
0.8333333333333334
 40
0.8333333333333334
 40
0.8333333333333334
 40
0.8333333333333334
 40
0.9166666666666667
 40
0.9166666666666667
 40
0.9166666666666667
 40
0.9166666666666667
 40
1.0
 40
1.0
 40
1.0
 40
1.0
 10
-2.18402
 20
-33.29175
 30
0.0
 10
-2.18402
 20
-33.29175
 30
0.0
 10
-2.18402
 20
-32.98653
 30
0.0
 10
-2.18402
 20
-32.98653
 30
0.0
 10
-2.18402
 20
-32.98653
 30
0.0
 10
-2.18409
 20
-32.9969
 30
0.0
 10
-2.18593
 20
-33.00579
 30
0.0
 10
-2.18946
 20
-33.0132
 30
0.0
 10
-2.18946
 20
-33.0132
 30
0.0
 10
-2.19291
 20
-33.02068
 30
0.0
 10
-2.1975
 20
-33.02682
 30
0.0
 10
-2.20314
 20
-33.03175
 30
0.0
 10
-2.20314
 20
-33.03175
 30
0.0
 10
-2.20879
 20
-33.03669
 30
0.0
 10
-2.21486
 20
-33.04064
 30
0.0
 10
-2.22135
 20
-33.04361
 30
0.0
 10
-2.22135
 20
-33.04361
 30
0.0
 10
-2.22784
 20
-33.0465
 30
0.0
 10
-2.23412
 20
-33.04869
 30
0.0
 10
-2.24019
 20
-33.05003
 30
0.0
 10
-2.24019
 20
-33.05003
 30
0.0
 10
-2.24632
 20
-33.05144
 30
0.0
 10
-2.25155
 20
-33.05229
 30
0.0
 10
-2.25599
 20
-33.05257
 30
0.0
 10
-2.25599
 20
-33.05257
 30
0.0
 10
-2.25155
 20
-33.05229
 30
0.0
 10
-2.24632
 20
-33.05144
 30
0.0
 10
-2.24019
 20
-33.05003
 30
0.0
 10
-2.24019
 20
-33.05003
 30
0.0
 10
-2.23412
 20
-33.04869
 30
0.0
 10
-2.22784
 20
-33.0465
 30
0.0
 10
-2.22135
 20
-33.04361
 30
0.0
 10
-2.22135
 20
-33.04361
 30
0.0
 10
-2.21486
 20
-33.04064
 30
0.0
 10
-2.20879
 20
-33.03669
 30
0.0
 10
-2.20314
 20
-33.03175
 30
0.0
 10
-2.20314
 20
-33.03175
 30
0.0
 10
-2.1975
 20
-33.02682
 30
0.0
 10
-2.19291
 20
-33.02068
 30
0.0
 10
-2.18946
 20
-33.0132
 30
0.0
 10
-2.18946
 20
-33.0132
 30
0.0
 10
-2.18593
 20
-33.00579
 30
0.0
 10
-2.18409
 20
-32.9969
 30
0.0
 10
-2.18402
 20
-32.98653
 30
0.0
 10
-2.18402
 20
-32.98653
 30
0.0
 10
-2.18402
 20
-32.98653
 30
0.0
 10
-2.18402
 20
-33.29175
 30
0.0
 10
-2.18402
 20
-33.29175
 30
0.0
  0
SPLINE
  5
F7
330
1F
100
AcDbEntity
  8
Layer 1
 62
    30
370
    53
100
AcDbSpline
210
0.0
220
0.0
230
1.0
 70
    11
 71
     3
 72
    84
 73
    80
 74
     0
 42
0.0000000001
 43
0.0000000001
 40
0.0
 40
0.0
 40
0.0
 40
0.0
 40
0.05
 40
0.05
 40
0.05
 40
0.05
 40
0.1
 40
0.1
 40
0.1
 40
0.1
 40
0.15
 40
0.15
 40
0.15
 40
0.15
 40
0.2
 40
0.2
 40
0.2
 40
0.2
 40
0.25
 40
0.25
 40
0.25
 40
0.25
 40
0.3
 40
0.3
 40
0.3
 40
0.3
 40
0.35
 40
0.35
 40
0.35
 40
0.35
 40
0.4
 40
0.4
 40
0.4
 40
0.4
 40
0.45
 40
0.45
 40
0.45
 40
0.45
 40
0.4999999999999999
 40
0.4999999999999999
 40
0.4999999999999999
 40
0.4999999999999999
 40
0.5499999999999999
 40
0.5499999999999999
 40
0.5499999999999999
 40
0.5499999999999999
 40
0.6
 40
0.6
 40
0.6
 40
0.6
 40
0.65
 40
0.65
 40
0.65
 40
0.65
 40
0.7000000000000001
 40
0.7000000000000001
 40
0.7000000000000001
 40
0.7000000000000001
 40
0.7500000000000001
 40
0.7500000000000001
 40
0.7500000000000001
 40
0.7500000000000001
 40
0.8000000000000002
 40
0.8000000000000002
 40
0.8000000000000002
 40
0.8000000000000002
 40
0.8500000000000002
 40
0.8500000000000002
 40
0.8500000000000002
 40
0.8500000000000002
 40
0.9000000000000002
 40
0.9000000000000002
 40
0.9000000000000002
 40
0.9000000000000002
 40
0.9500000000000003
 40
0.9500000000000003
 40
0.9500000000000003
 40
0.9500000000000003
 40
1.0
 40
1.0
 40
1.0
 40
1.0
 10
-1.9495
 20
-33.29175
 30
0.0
 10
-1.93469
 20
-33.29168
 30
0.0
 10
-1.92192
 20
-33.28907
 30
0.0
 10
-1.91126
 20
-33.28399
 30
0.0
 10
-1.91126
 20
-33.28399
 30
0.0
 10
-1.90068
 20
-33.27891
 30
0.0
 10
-1.89186
 20
-33.27164
 30
0.0
 10
-1.88481
 20
-33.2624
 30
0.0
 10
-1.88481
 20
-33.2624
 30
0.0
 10
-1.87782
 20
-33.25309
 30
0.0
 10
-1.87232
 20
-33.24208
 30
0.0
 10
-1.86823
 20
-33.22938
 30
0.0
 10
-1.86823
 20
-33.22938
 30
0.0
 10
-1.8642
 20
-33.21668
 30
0.0
 10
-1.86131
 20
-33.20278
 30
0.0
 10
-1.85969
 20
-33.18754
 30
0.0
 10
-1.85969
 20
-33.18754
 30
0.0
 10
-1.85799
 20
-33.1723
 30
0.0
 10
-1.85715
 20
-33.15628
 30
0.0
 10
-1.85722
 20
-33.13935
 30
0.0
 10
-1.85722
 20
-33.13935
 30
0.0
 10
-1.85715
 20
-33.12249
 30
0.0
 10
-1.85799
 20
-33.10647
 30
0.0
 10
-1.85969
 20
-33.0913
 30
0.0
 10
-1.85969
 20
-33.0913
 30
0.0
 10
-1.86131
 20
-33.07613
 30
0.0
 10
-1.8642
 20
-33.06216
 30
0.0
 10
-1.86823
 20
-33.04946
 30
0.0
 10
-1.86823
 20
-33.04946
 30
0.0
 10
-1.87232
 20
-33.03683
 30
0.0
 10
-1.87782
 20
-33.02583
 30
0.0
 10
-1.88481
 20
-33.01644
 30
0.0
 10
-1.88481
 20
-33.01644
 30
0.0
 10
-1.89186
 20
-33.00713
 30
0.0
 10
-1.90068
 20
-32.99986
 30
0.0
 10
-1.91126
 20
-32.99478
 30
0.0
 10
-1.91126
 20
-32.99478
 30
0.0
 10
-1.92192
 20
-32.98963
 30
0.0
 10
-1.93469
 20
-32.98702
 30
0.0
 10
-1.9495
 20
-32.98695
 30
0.0
 10
-1.9495
 20
-32.98695
 30
0.0
 10
-1.96432
 20
-32.98702
 30
0.0
 10
-1.97709
 20
-32.98963
 30
0.0
 10
-1.98775
 20
-32.99478
 30
0.0
 10
-1.98775
 20
-32.99478
 30
0.0
 10
-1.99833
 20
-32.99986
 30
0.0
 10
-2.00715
 20
-33.00713
 30
0.0
 10
-2.0142
 20
-33.01644
 30
0.0
 10
-2.0142
 20
-33.01644
 30
0.0
 10
-2.02119
 20
-33.02583
 30
0.0
 10
-2.02669
 20
-33.03683
 30
0.0
 10
-2.03078
 20
-33.04946
 30
0.0
 10
-2.03078
 20
-33.04946
 30
0.0
 10
-2.03481
 20
-33.06216
 30
0.0
 10
-2.0377
 20
-33.07613
 30
0.0
 10
-2.03932
 20
-33.0913
 30
0.0
 10
-2.03932
 20
-33.0913
 30
0.0
 10
-2.04101
 20
-33.10647
 30
0.0
 10
-2.04186
 20
-33.12249
 30
0.0
 10
-2.04179
 20
-33.13935
 30
0.0
 10
-2.04179
 20
-33.13935
 30
0.0
 10
-2.04186
 20
-33.15628
 30
0.0
 10
-2.04101
 20
-33.1723
 30
0.0
 10
-2.03932
 20
-33.18754
 30
0.0
 10
-2.03932
 20
-33.18754
 30
0.0
 10
-2.0377
 20
-33.20278
 30
0.0
 10
-2.03481
 20
-33.21668
 30
0.0
 10
-2.03078
 20
-33.22938
 30
0.0
 10
-2.03078
 20
-33.22938
 30
0.0
 10
-2.02669
 20
-33.24208
 30
0.0
 10
-2.02119
 20
-33.25309
 30
0.0
 10
-2.0142
 20
-33.2624
 30
0.0
 10
-2.0142
 20
-33.2624
 30
0.0
 10
-2.00715
 20
-33.27164
 30
0.0
 10
-1.99833
 20
-33.27891
 30
0.0
 10
-1.98775
 20
-33.28399
 30
0.0
 10
-1.98775
 20
-33.28399
 30
0.0
 10
-1.97709
 20
-33.28907
 30
0.0
 10
-1.96432
 20
-33.29168
 30
0.0
 10
-1.9495
 20
-33.29175
 30
0.0
  0
SPLINE
  5
F8
330
1F
100
AcDbEntity
  8
Layer 1
 62
    30
370
    53
100
AcDbSpline
210
0.0
220
0.0
230
1.0
 70
    11
 71
     3
 72
    84
 73
    80
 74
     0
 42
0.0000000001
 43
0.0000000001
 40
0.0
 40
0.0
 40
0.0
 40
0.0
 40
0.05
 40
0.05
 40
0.05
 40
0.05
 40
0.1
 40
0.1
 40
0.1
 40
0.1
 40
0.15
 40
0.15
 40
0.15
 40
0.15
 40
0.2
 40
0.2
 40
0.2
 40
0.2
 40
0.25
 40
0.25
 40
0.25
 40
0.25
 40
0.3
 40
0.3
 40
0.3
 40
0.3
 40
0.35
 40
0.35
 40
0.35
 40
0.35
 40
0.4
 40
0.4
 40
0.4
 40
0.4
 40
0.45
 40
0.45
 40
0.45
 40
0.45
 40
0.4999999999999999
 40
0.4999999999999999
 40
0.4999999999999999
 40
0.4999999999999999
 40
0.5499999999999999
 40
0.5499999999999999
 40
0.5499999999999999
 40
0.5499999999999999
 40
0.6
 40
0.6
 40
0.6
 40
0.6
 40
0.65
 40
0.65
 40
0.65
 40
0.65
 40
0.7000000000000001
 40
0.7000000000000001
 40
0.7000000000000001
 40
0.7000000000000001
 40
0.7500000000000001
 40
0.7500000000000001
 40
0.7500000000000001
 40
0.7500000000000001
 40
0.8000000000000002
 40
0.8000000000000002
 40
0.8000000000000002
 40
0.8000000000000002
 40
0.8500000000000002
 40
0.8500000000000002
 40
0.8500000000000002
 40
0.8500000000000002
 40
0.9000000000000002
 40
0.9000000000000002
 40
0.9000000000000002
 40
0.9000000000000002
 40
0.9500000000000003
 40
0.9500000000000003
 40
0.9500000000000003
 40
0.9500000000000003
 40
1.0
 40
1.0
 40
1.0
 40
1.0
 10
-1.9495
 20
-33.29175
 30
0.0
 10
-1.93469
 20
-33.29168
 30
0.0
 10
-1.92192
 20
-33.28907
 30
0.0
 10
-1.91126
 20
-33.28399
 30
0.0
 10
-1.91126
 20
-33.28399
 30
0.0
 10
-1.90068
 20
-33.27891
 30
0.0
 10
-1.89186
 20
-33.27164
 30
0.0
 10
-1.88481
 20
-33.2624
 30
0.0
 10
-1.88481
 20
-33.2624
 30
0.0
 10
-1.87782
 20
-33.25309
 30
0.0
 10
-1.87232
 20
-33.24208
 30
0.0
 10
-1.86823
 20
-33.22938
 30
0.0
 10
-1.86823
 20
-33.22938
 30
0.0
 10
-1.8642
 20
-33.21668
 30
0.0
 10
-1.86131
 20
-33.20278
 30
0.0
 10
-1.85969
 20
-33.18754
 30
0.0
 10
-1.85969
 20
-33.18754
 30
0.0
 10
-1.85799
 20
-33.1723
 30
0.0
 10
-1.85715
 20
-33.15628
 30
0.0
 10
-1.85722
 20
-33.13935
 30
0.0
 10
-1.85722
 20
-33.13935
 30
0.0
 10
-1.85715
 20
-33.12249
 30
0.0
 10
-1.85799
 20
-33.10647
 30
0.0
 10
-1.85969
 20
-33.0913
 30
0.0
 10
-1.85969
 20
-33.0913
 30
0.0
 10
-1.86131
 20
-33.07613
 30
0.0
 10
-1.8642
 20
-33.06216
 30
0.0
 10
-1.86823
 20
-33.04946
 30
0.0
 10
-1.86823
 20
-33.04946
 30
0.0
 10
-1.87232
 20
-33.03683
 30
0.0
 10
-1.87782
 20
-33.02583
 30
0.0
 10
-1.88481
 20
-33.01644
 30
0.0
 10
-1.88481
 20
-33.01644
 30
0.0
 10
-1.89186
 20
-33.00713
 30
0.0
 10
-1.90068
 20
-32.99986
 30
0.0
 10
-1.91126
 20
-32.99478
 30
0.0
 10
-1.91126
 20
-32.99478
 30
0.0
 10
-1.92192
 20
-32.98963
 30
0.0
 10
-1.93469
 20
-32.98702
 30
0.0
 10
-1.9495
 20
-32.98695
 30
0.0
 10
-1.9495
 20
-32.98695
 30
0.0
 10
-1.96432
 20
-32.98702
 30
0.0
 10
-1.97709
 20
-32.98963
 30
0.0
 10
-1.98775
 20
-32.99478
 30
0.0
 10
-1.98775
 20
-32.99478
 30
0.0
 10
-1.99833
 20
-32.99986
 30
0.0
 10
-2.00715
 20
-33.00713
 30
0.0
 10
-2.0142
 20
-33.01644
 30
0.0
 10
-2.0142
 20
-33.01644
 30
0.0
 10
-2.02119
 20
-33.02583
 30
0.0
 10
-2.02669
 20
-33.03683
 30
0.0
 10
-2.03078
 20
-33.04946
 30
0.0
 10
-2.03078
 20
-33.04946
 30
0.0
 10
-2.03481
 20
-33.06216
 30
0.0
 10
-2.0377
 20
-33.07613
 30
0.0
 10
-2.03932
 20
-33.0913
 30
0.0
 10
-2.03932
 20
-33.0913
 30
0.0
 10
-2.04101
 20
-33.10647
 30
0.0
 10
-2.04186
 20
-33.12249
 30
0.0
 10
-2.04179
 20
-33.13935
 30
0.0
 10
-2.04179
 20
-33.13935
 30
0.0
 10
-2.04186
 20
-33.15628
 30
0.0
 10
-2.04101
 20
-33.1723
 30
0.0
 10
-2.03932
 20
-33.18754
 30
0.0
 10
-2.03932
 20
-33.18754
 30
0.0
 10
-2.0377
 20
-33.20278
 30
0.0
 10
-2.03481
 20
-33.21668
 30
0.0
 10
-2.03078
 20
-33.22938
 30
0.0
 10
-2.03078
 20
-33.22938
 30
0.0
 10
-2.02669
 20
-33.24208
 30
0.0
 10
-2.02119
 20
-33.25309
 30
0.0
 10
-2.0142
 20
-33.2624
 30
0.0
 10
-2.0142
 20
-33.2624
 30
0.0
 10
-2.00715
 20
-33.27164
 30
0.0
 10
-1.99833
 20
-33.27891
 30
0.0
 10
-1.98775
 20
-33.28399
 30
0.0
 10
-1.98775
 20
-33.28399
 30
0.0
 10
-1.97709
 20
-33.28907
 30
0.0
 10
-1.96432
 20
-33.29168
 30
0.0
 10
-1.9495
 20
-33.29175
 30
0.0
  0
ENDSEC
  0
SECTION
  2
OBJECTS
  0
DICTIONARY
  5
C
330
0
100
AcDbDictionary
281
     1
  3
ACAD_GROUP
350
D
  3
ACAD_LAYOUT
350
1A
  3
ACAD_MLEADERSTYLE
350
FA
  3
ACAD_MLINESTYLE
350
17
  3
ACAD_PLOTSETTINGS
350
19
  3
ACAD_PLOTSTYLENAME
350
E
  3
ACAD_SCALELIST
350
3B
  3
ACAD_TABLESTYLE
350
F9
  3
ACAD_VISUALSTYLE
350
2A
  0
DICTIONARY
  5
D
102
{ACAD_REACTORS
330
C
102
}
330
C
100
AcDbDictionary
281
     1
  0
DICTIONARY
  5
1A
102
{ACAD_REACTORS
330
C
102
}
330
C
100
AcDbDictionary
281
     1
  3
Layout1
350
1E
  3
Layout2
350
26
  3
Model
350
22
  0
DICTIONARY
  5
FA
102
{ACAD_REACTORS
330
C
102
}
330
C
100
AcDbDictionary
281
     1
  0
DICTIONARY
  5
17
102
{ACAD_REACTORS
330
C
102
}
330
C
100
AcDbDictionary
281
     1
  3
Standard
350
18
  0
DICTIONARY
  5
19
102
{ACAD_REACTORS
330
C
102
}
330
C
100
AcDbDictionary
281
     1
  0
ACDBDICTIONARYWDFLT
  5
E
102
{ACAD_REACTORS
330
C
102
}
330
C
100
AcDbDictionary
281
     1
  3
Normal
350
F
100
AcDbDictionaryWithDefault
340
F
  0
DICTIONARY
  5
3B
102
{ACAD_REACTORS
330
C
102
}
330
C
100
AcDbDictionary
281
     1
  3
A0
350
3C
  3
A1
350
3D
  3
A2
350
3E
  3
A3
350
3F
  3
A4
350
40
  3
A5
350
41
  3
A6
350
42
  3
A7
350
43
  3
A8
350
44
  3
A9
350
45
  3
B0
350
46
  3
B1
350
47
  3
B2
350
48
  3
B3
350
49
  3
B4
350
4A
  3
B5
350
4B
  3
B6
350
4C
  3
B7
350
4D
  3
B8
350
4E
  3
B9
350
4F
  3
C0
350
50
  3
C1
350
51
  3
C2
350
52
  3
C3
350
53
  3
C4
350
54
  3
C5
350
55
  3
C6
350
56
  3
C7
350
57
  3
C8
350
58
  3
C9
350
59
  3
D0
350
5A
  3
D1
350
5B
  3
D2
350
5C
  0
DICTIONARY
  5
F9
102
{ACAD_REACTORS
330
C
102
}
330
C
100
AcDbDictionary
281
     1
  0
DICTIONARY
  5
2A
102
{ACAD_REACTORS
330
C
102
}
330
C
100
AcDbDictionary
281
     1
  3
2dWireframe
350
2F
  3
3D Hidden
350
31
  3
3dWireframe
350
30
  3
Basic
350
32
  3
Brighten
350
36
  3
ColorChange
350
3A
  3
Conceptual
350
34
  3
Dim
350
35
  3
Facepattern
350
39
  3
Flat
350
2B
  3
FlatWithEdges
350
2C
  3
Gouraud
350
2D
  3
GouraudWithEdges
350
2E
  3
Linepattern
350
38
  3
Realistic
350
33
  3
Thicken
350
37
  0
LAYOUT
  5
1E
102
{ACAD_REACTORS
330
1A
102
}
330
1A
100
AcDbPlotSettings
  1

  2
none_device
  4

  6

 40
0.0
 41
0.0
 42
0.0
 43
0.0
 44
0.0
 45
0.0
 46
0.0
 47
0.0
 48
0.0
 49
0.0
140
0.0
141
0.0
142
1.0
143
1.0
 70
   688
 72
     0
 73
     0
 74
     5
  7

 75
    16
 76
     0
 77
     2
 78
   300
147
1.0
148
0.0
149
0.0
100
AcDbLayout
  1
Layout1
 70
     1
 71
     1
 10
0.0
 20
0.0
 11
12.0
 21
9.0
 12
0.0
 22
0.0
 32
0.0
 14
1.000000000000000E+20
 24
1.000000000000000E+20
 34
1.000000000000000E+20
 15
-1.000000000000000E+20
 25
-1.000000000000000E+20
 35
-1.000000000000000E+20
146
0.0
 13
0.0
 23
0.0
 33
0.0
 16
1.0
 26
0.0
 36
0.0
 17
0.0
 27
1.0
 37
0.0
 76
     0
330
1B
  0
LAYOUT
  5
26
102
{ACAD_REACTORS
330
1A
102
}
330
1A
100
AcDbPlotSettings
  1

  2
none_device
  4

  6

 40
0.0
 41
0.0
 42
0.0
 43
0.0
 44
0.0
 45
0.0
 46
0.0
 47
0.0
 48
0.0
 49
0.0
140
0.0
141
0.0
142
1.0
143
1.0
 70
   688
 72
     0
 73
     0
 74
     5
  7

 75
    16
 76
     0
 77
     2
 78
   300
147
1.0
148
0.0
149
0.0
100
AcDbLayout
  1
Layout2
 70
     1
 71
     2
 10
0.0
 20
0.0
 11
0.0
 21
0.0
 12
0.0
 22
0.0
 32
0.0
 14
0.0
 24
0.0
 34
0.0
 15
0.0
 25
0.0
 35
0.0
146
0.0
 13
0.0
 23
0.0
 33
0.0
 16
1.0
 26
0.0
 36
0.0
 17
0.0
 27
1.0
 37
0.0
 76
     0
330
23
  0
LAYOUT
  5
22
102
{ACAD_REACTORS
330
1A
102
}
330
1A
100
AcDbPlotSettings
  1

  2
none_device
  4

  6

 40
0.0
 41
0.0
 42
0.0
 43
0.0
 44
0.0
 45
0.0
 46
0.0
 47
0.0
 48
0.0
 49
0.0
140
0.0
141
0.0
142
1.0
143
1.0
 70
  1712
 72
     0
 73
     0
 74
     0
  7

 75
     0
 76
     0
 77
     2
 78
   300
147
1.0
148
0.0
149
0.0
100
AcDbLayout
  1
Model
 70
     1
 71
     0
 10
0.0
 20
0.0
 11
12.0
 21
9.0
 12
0.0
 22
0.0
 32
0.0
 14
-38.17822
 24
-34.52822
 34
0.0
 15
1.17822
 25
-15.17178
 35
0.0
146
0.0
 13
0.0
 23
0.0
 33
0.0
 16
1.0
 26
0.0
 36
0.0
 17
0.0
 27
1.0
 37
0.0
 76
     0
330
1F
331
29
  0
MLINESTYLE
  5
18
102
{ACAD_REACTORS
330
17
102
}
330
17
100
AcDbMlineStyle
  2
Standard
 70
     0
  3

 62
   256
 51
90.0
 52
90.0
 71
     2
 49
0.5
 62
   256
  6
BYLAYER
 49
-0.5
 62
   256
  6
BYLAYER
  0
ACDBPLACEHOLDER
  5
F
102
{ACAD_REACTORS
330
E
102
}
330
E
  0
SCALE
  5
3C
102
{ACAD_REACTORS
330
3B
102
}
330
3B
100
AcDbScale
 70
     0
300
1:1
140
1.0
141
1.0
290
     1
  0
SCALE
  5
3D
102
{ACAD_REACTORS
330
3B
102
}
330
3B
100
AcDbScale
 70
     0
300
1:2
140
1.0
141
2.0
290
     0
  0
SCALE
  5
3E
102
{ACAD_REACTORS
330
3B
102
}
330
3B
100
AcDbScale
 70
     0
300
1:4
140
1.0
141
4.0
290
     0
  0
SCALE
  5
3F
102
{ACAD_REACTORS
330
3B
102
}
330
3B
100
AcDbScale
 70
     0
300
1:5
140
1.0
141
5.0
290
     0
  0
SCALE
  5
40
102
{ACAD_REACTORS
330
3B
102
}
330
3B
100
AcDbScale
 70
     0
300
1:8
140
1.0
141
8.0
290
     0
  0
SCALE
  5
41
102
{ACAD_REACTORS
330
3B
102
}
330
3B
100
AcDbScale
 70
     0
300
1:10
140
1.0
141
10.0
290
     0
  0
SCALE
  5
42
102
{ACAD_REACTORS
330
3B
102
}
330
3B
100
AcDbScale
 70
     0
300
1:16
140
1.0
141
16.0
290
     0
  0
SCALE
  5
43
102
{ACAD_REACTORS
330
3B
102
}
330
3B
100
AcDbScale
 70
     0
300
1:20
140
1.0
141
20.0
290
     0
  0
SCALE
  5
44
102
{ACAD_REACTORS
330
3B
102
}
330
3B
100
AcDbScale
 70
     0
300
1:30
140
1.0
141
30.0
290
     0
  0
SCALE
  5
45
102
{ACAD_REACTORS
330
3B
102
}
330
3B
100
AcDbScale
 70
     0
300
1:40
140
1.0
141
40.0
290
     0
  0
SCALE
  5
46
102
{ACAD_REACTORS
330
3B
102
}
330
3B
100
AcDbScale
 70
     0
300
1:50
140
1.0
141
50.0
290
     0
  0
SCALE
  5
47
102
{ACAD_REACTORS
330
3B
102
}
330
3B
100
AcDbScale
 70
     0
300
1:100
140
1.0
141
100.0
290
     0
  0
SCALE
  5
48
102
{ACAD_REACTORS
330
3B
102
}
330
3B
100
AcDbScale
 70
     0
300
2:1
140
2.0
141
1.0
290
     0
  0
SCALE
  5
49
102
{ACAD_REACTORS
330
3B
102
}
330
3B
100
AcDbScale
 70
     0
300
4:1
140
4.0
141
1.0
290
     0
  0
SCALE
  5
4A
102
{ACAD_REACTORS
330
3B
102
}
330
3B
100
AcDbScale
 70
     0
300
8:1
140
8.0
141
1.0
290
     0
  0
SCALE
  5
4B
102
{ACAD_REACTORS
330
3B
102
}
330
3B
100
AcDbScale
 70
     0
300
10:1
140
10.0
141
1.0
290
     0
  0
SCALE
  5
4C
102
{ACAD_REACTORS
330
3B
102
}
330
3B
100
AcDbScale
 70
     0
300
100:1
140
100.0
141
1.0
290
     0
  0
SCALE
  5
4D
102
{ACAD_REACTORS
330
3B
102
}
330
3B
100
AcDbScale
 70
     0
300
1/128" = 1'-0"
140
0.0078125
141
12.0
290
     0
  0
SCALE
  5
4E
102
{ACAD_REACTORS
330
3B
102
}
330
3B
100
AcDbScale
 70
     0
300
1/64" = 1'-0"
140
0.015625
141
12.0
290
     0
  0
SCALE
  5
4F
102
{ACAD_REACTORS
330
3B
102
}
330
3B
100
AcDbScale
 70
     0
300
1/32" = 1'-0"
140
0.03125
141
12.0
290
     0
  0
SCALE
  5
50
102
{ACAD_REACTORS
330
3B
102
}
330
3B
100
AcDbScale
 70
     0
300
1/16" = 1'-0"
140
0.0625
141
12.0
290
     0
  0
SCALE
  5
51
102
{ACAD_REACTORS
330
3B
102
}
330
3B
100
AcDbScale
 70
     0
300
3/32" = 1'-0"
140
0.09375
141
12.0
290
     0
  0
SCALE
  5
52
102
{ACAD_REACTORS
330
3B
102
}
330
3B
100
AcDbScale
 70
     0
300
1/8" = 1'-0"
140
0.125
141
12.0
290
     0
  0
SCALE
  5
53
102
{ACAD_REACTORS
330
3B
102
}
330
3B
100
AcDbScale
 70
     0
300
3/16" = 1'-0"
140
0.1875
141
12.0
290
     0
  0
SCALE
  5
54
102
{ACAD_REACTORS
330
3B
102
}
330
3B
100
AcDbScale
 70
     0
300
1/4" = 1'-0"
140
0.25
141
12.0
290
     0
  0
SCALE
  5
55
102
{ACAD_REACTORS
330
3B
102
}
330
3B
100
AcDbScale
 70
     0
300
3/8" = 1'-0"
140
0.375
141
12.0
290
     0
  0
SCALE
  5
56
102
{ACAD_REACTORS
330
3B
102
}
330
3B
100
AcDbScale
 70
     0
300
1/2" = 1'-0"
140
0.5
141
12.0
290
     0
  0
SCALE
  5
57
102
{ACAD_REACTORS
330
3B
102
}
330
3B
100
AcDbScale
 70
     0
300
3/4" = 1'-0"
140
0.75
141
12.0
290
     0
  0
SCALE
  5
58
102
{ACAD_REACTORS
330
3B
102
}
330
3B
100
AcDbScale
 70
     0
300
1" = 1'-0"
140
1.0
141
12.0
290
     0
  0
SCALE
  5
59
102
{ACAD_REACTORS
330
3B
102
}
330
3B
100
AcDbScale
 70
     0
300
1-1/2" = 1'-0"
140
1.5
141
12.0
290
     0
  0
SCALE
  5
5A
102
{ACAD_REACTORS
330
3B
102
}
330
3B
100
AcDbScale
 70
     0
300
3" = 1'-0"
140
3.0
141
12.0
290
     0
  0
SCALE
  5
5B
102
{ACAD_REACTORS
330
3B
102
}
330
3B
100
AcDbScale
 70
     0
300
6" = 1'-0"
140
6.0
141
12.0
290
     0
  0
SCALE
  5
5C
102
{ACAD_REACTORS
330
3B
102
}
330
3B
100
AcDbScale
 70
     0
300
1'-0" = 1'-0"
140
12.0
141
12.0
290
     0
  0
VISUALSTYLE
  5
2F
102
{ACAD_REACTORS
330
2A
102
}
330
2A
100
AcDbVisualStyle
  2
2dWireframe
 70
     4
 71
     0
 72
     2
 73
     0
 90
        0
 40
-0.6
 41
-30.0
 62
     5
 63
     7
421
 16777215
 74
     1
 91
        4
 64
     7
 65
   257
 75
     1
175
     1
 42
1.0
 92
        0
 66
   257
 43
1.0
 76
     1
 77
     6
 78
     2
 67
     7
 79
     5
170
     0
171
     0
290
     0
174
     0
 93
        1
 44
0.0
173
     0
291
     0
 45
0.0
  0
VISUALSTYLE
  5
31
102
{ACAD_REACTORS
330
2A
102
}
330
2A
100
AcDbVisualStyle
  2
3D Hidden
 70
     6
 71
     1
 72
     2
 73
     2
 90
        0
 40
-0.6
 41
-30.0
 62
     5
 63
     7
421
 16777215
 74
     2
 91
        2
 64
     7
 65
   257
 75
     2
175
     1
 42
40.0
 92
        0
 66
   257
 43
1.0
 76
     1
 77
     6
 78
     2
 67
     7
 79
     3
170
     0
171
     0
290
     0
174
     0
 93
        1
 44
0.0
173
     0
291
     0
 45
0.0
  0
VISUALSTYLE
  5
30
102
{ACAD_REACTORS
330
2A
102
}
330
2A
100
AcDbVisualStyle
  2
3dWireframe
 70
     5
 71
     0
 72
     2
 73
     0
 90
        0
 40
-0.6
 41
-30.0
 62
     5
 63
     7
421
 16777215
 74
     1
 91
        4
 64
     7
 65
   257
 75
     1
175
     1
 42
1.0
 92
        0
 66
   257
 43
1.0
 76
     1
 77
     6
 78
     2
 67
     7
 79
     5
170
     0
171
     0
290
     0
174
     0
 93
        1
 44
0.0
173
     0
291
     0
 45
0.0
  0
VISUALSTYLE
  5
32
102
{ACAD_REACTORS
330
2A
102
}
330
2A
100
AcDbVisualStyle
  2
Basic
 70
     7
 71
     1
 72
     0
 73
     1
 90
        0
 40
-0.6
 41
-30.0
 62
     5
 63
     7
421
 16777215
 74
     0
 91
        4
 64
     7
 65
   257
 75
     1
175
     1
 42
1.0
 92
        8
 66
     7
 43
1.0
 76
     1
 77
     6
 78
     2
 67
     7
 79
     5
170
     0
171
     0
290
     0
174
     0
 93
        1
 44
0.0
173
     0
291
     1
 45
0.0
  0
VISUALSTYLE
  5
36
102
{ACAD_REACTORS
330
2A
102
}
330
2A
100
AcDbVisualStyle
  2
Brighten
 70
    12
 71
     2
 72
     2
 73
     0
 90
        0
 40
-0.6
 41
-30.0
 62
     5
 63
     7
421
 16777215
 74
     1
 91
        4
 64
     7
 65
   257
 75
     1
175
     1
 42
1.0
 92
        8
 66
     7
 43
1.0
 76
     1
 77
     6
 78
     2
 67
     7
 79
     5
170
     0
171
     0
290
     0
174
     0
 93
        1
 44
50.0
173
     0
291
     1
 45
0.0
  0
VISUALSTYLE
  5
3A
102
{ACAD_REACTORS
330
2A
102
}
330
2A
100
AcDbVisualStyle
  2
ColorChange
 70
    16
 71
     2
 72
     2
 73
     3
 90
        0
 40
-0.6
 41
-30.0
 62
     5
 63
     8
421
  8421504
 74
     1
 91
        4
 64
     7
 65
   257
 75
     1
175
     1
 42
1.0
 92
        8
 66
     8
424
  8421504
 43
1.0
 76
     1
 77
     6
 78
     2
 67
     7
 79
     5
170
     0
171
     0
290
     0
174
     0
 93
        1
 44
0.0
173
     0
291
     1
 45
0.0
  0
VISUALSTYLE
  5
34
102
{ACAD_REACTORS
330
2A
102
}
330
2A
100
AcDbVisualStyle
  2
Conceptual
 70
     9
 71
     3
 72
     2
 73
     0
 90
        0
 40
-0.6
 41
-30.0
 62
     5
 63
     7
421
 16777215
 74
     2
 91
        2
 64
     7
 65
   257
 75
     1
175
     1
 42
40.0
 92
        8
 66
     7
 43
1.0
 76
     1
 77
     6
 78
     2
 67
     7
 79
     3
170
     0
171
     0
290
     0
174
     0
 93
        1
 44
0.0
173
     0
291
     0
 45
0.0
  0
VISUALSTYLE
  5
35
102
{ACAD_REACTORS
330
2A
102
}
330
2A
100
AcDbVisualStyle
  2
Dim
 70
    11
 71
     2
 72
     2
 73
     0
 90
        0
 40
-0.6
 41
-30.0
 62
     5
 63
     7
421
 16777215
 74
     1
 91
        4
 64
     7
 65
   257
 75
     1
175
     1
 42
1.0
 92
        8
 66
     7
 43
1.0
 76
     1
 77
     6
 78
     2
 67
     7
 79
     5
170
     0
171
     0
290
     0
174
     0
 93
        1
 44
-50.0
173
     0
291
     1
 45
0.0
  0
VISUALSTYLE
  5
39
102
{ACAD_REACTORS
330
2A
102
}
330
2A
100
AcDbVisualStyle
  2
Facepattern
 70
    15
 71
     2
 72
     2
 73
     0
 90
        0
 40
-0.6
 41
-30.0
 62
     5
 63
     7
421
 16777215
 74
     1
 91
        4
 64
     7
 65
   257
 75
     1
175
     1
 42
1.0
 92
        8
 66
     7
 43
1.0
 76
     1
 77
     6
 78
     2
 67
     7
 79
     5
170
     0
171
     0
290
     0
174
     0
 93
        1
 44
0.0
173
     0
291
     1
 45
0.0
  0
VISUALSTYLE
  5
2B
102
{ACAD_REACTORS
330
2A
102
}
330
2A
100
AcDbVisualStyle
  2
Flat
 70
     0
 71
     2
 72
     1
 73
     1
 90
        2
 40
-0.6
 41
30.0
 62
     5
 63
     7
421
 16777215
 74
     0
 91
        4
 64
     7
 65
   257
 75
     1
175
     1
 42
1.0
 92
        8
 66
     7
 43
1.0
 76
     1
 77
     6
 78
     2
 67
     7
 79
     5
170
     0
171
     0
290
     0
174
     0
 93
       13
 44
0.0
173
     0
291
     1
 45
0.0
  0
VISUALSTYLE
  5
2C
102
{ACAD_REACTORS
330
2A
102
}
330
2A
100
AcDbVisualStyle
  2
FlatWithEdges
 70
     1
 71
     2
 72
     1
 73
     1
 90
        2
 40
-0.6
 41
30.0
 62
     5
 63
     7
421
 16777215
 74
     1
 91
        4
 64
     7
 65
   257
 75
     1
175
     1
 42
1.0
 92
        0
 66
   257
 43
1.0
 76
     1
 77
     6
 78
     2
 67
     7
 79
     5
170
     0
171
     0
290
     0
174
     0
 93
       13
 44
0.0
173
     0
291
     1
 45
0.0
  0
VISUALSTYLE
  5
2D
102
{ACAD_REACTORS
330
2A
102
}
330
2A
100
AcDbVisualStyle
  2
Gouraud
 70
     2
 71
     2
 72
     2
 73
     1
 90
        2
 40
-0.6
 41
30.0
 62
     5
 63
     7
421
 16777215
 74
     0
 91
        4
 64
     7
 65
   257
 75
     1
175
     1
 42
1.0
 92
        0
 66
     7
 43
1.0
 76
     1
 77
     6
 78
     2
 67
     7
 79
     5
170
     0
171
     0
290
     0
174
     0
 93
       13
 44
0.0
173
     0
291
     1
 45
0.0
  0
VISUALSTYLE
  5
2E
102
{ACAD_REACTORS
330
2A
102
}
330
2A
100
AcDbVisualStyle
  2
GouraudWithEdges
 70
     3
 71
     2
 72
     2
 73
     1
 90
        2
 40
-0.6
 41
30.0
 62
     5
 63
     7
421
 16777215
 74
     1
 91
        4
 64
     7
 65
   257
 75
     1
175
     1
 42
1.0
 92
        0
 66
   257
 43
1.0
 76
     1
 77
     6
 78
     2
 67
     7
 79
     5
170
     0
171
     0
290
     0
174
     0
 93
       13
 44
0.0
173
     0
291
     1
 45
0.0
  0
VISUALSTYLE
  5
38
102
{ACAD_REACTORS
330
2A
102
}
330
2A
100
AcDbVisualStyle
  2
Linepattern
 70
    14
 71
     2
 72
     2
 73
     0
 90
        0
 40
-0.6
 41
-30.0
 62
     5
 63
     7
421
 16777215
 74
     1
 91
        4
 64
     7
 65
   257
 75
     7
175
     7
 42
1.0
 92
        8
 66
     7
 43
1.0
 76
     1
 77
     6
 78
     2
 67
     7
 79
     5
170
     0
171
     0
290
     0
174
     0
 93
        1
 44
0.0
173
     0
291
     1
 45
0.0
  0
VISUALSTYLE
  5
33
102
{ACAD_REACTORS
330
2A
102
}
330
2A
100
AcDbVisualStyle
  2
Realistic
 70
     8
 71
     2
 72
     2
 73
     0
 90
        0
 40
-0.6
 41
-30.0
 62
     5
 63
     7
421
 16777215
 74
     1
 91
        0
 64
     7
 65
   257
 75
     1
175
     1
 42
1.0
 92
        8
 66
     8
424
  7895160
 43
1.0
 76
     1
 77
     6
 78
     2
 67
     7
 79
     5
170
     0
171
     0
290
     0
174
     0
 93
       13
 44
0.0
173
     0
291
     0
 45
0.0
  0
VISUALSTYLE
  5
37
102
{ACAD_REACTORS
330
2A
102
}
330
2A
100
AcDbVisualStyle
  2
Thicken
 70
    13
 71
     2
 72
     2
 73
     0
 90
        0
 40
-0.6
 41
-30.0
 62
     5
 63
     7
421
 16777215
 74
     1
 91
        4
 64
     7
 65
   257
 75
     1
175
     1
 42
1.0
 92
       12
 66
     7
 43
1.0
 76
     1
 77
     6
 78
     2
 67
     7
 79
     5
170
     0
171
     0
290
     0
174
     0
 93
        1
 44
0.0
173
     0
291
     1
 45
0.0
  0
ENDSEC
  0
EOF
