<?xml version="1.0" standalone="no"?>
<!DOCTYPE svg PUBLIC "-//W3C//DTD SVG 1.1//EN" "http://www.w3.org/Graphics/SVG/1.1/DTD/svg11.dtd">
<svg width="87mm" height="87mm" viewBox="9 -96 87 87" xmlns="http://www.w3.org/2000/svg" version="1.1">
<title>OpenSCAD Model</title>
<path d="
M 91,-9.00986 L 91.3139,-9.00986 L 91.9369,-9.08856 L 92.5451,-9.24471 L 93.1289,-9.47586 L 93.6791,-9.77835
 L 94.1871,-10.1474 L 94.6448,-10.5773 L 95.0451,-11.0611 L 95.3815,-11.5912 L 95.6489,-12.1594 L 95.8429,-12.7565
 L 95.9606,-13.3733 L 96,-14 L 96,-91 L 95.9606,-91.6267 L 95.8429,-92.2434 L 95.6489,-92.8406
 L 95.3815,-93.4088 L 95.0451,-93.9389 L 94.6448,-94.4227 L 94.1871,-94.8526 L 93.6791,-95.2216 L 93.1289,-95.5241
 L 92.5451,-95.7553 L 91.9369,-95.9114 L 91.3139,-95.9901 L 91,-95.9901 L 91,-96 L 14,-96
 L 14,-95.9901 L 13.686,-95.9901 L 13.0631,-95.9114 L 12.4549,-95.7553 L 11.8711,-95.5241 L 11.3209,-95.2216
 L 10.8129,-94.8526 L 10.3551,-94.4227 L 9.95491,-93.9389 L 9.61845,-93.4088 L 9.3511,-92.8406 L 9.15707,-92.2434
 L 9.03941,-91.6267 L 9,-91 L 9,-14 L 9.03941,-13.3733 L 9.15707,-12.7565 L 9.3511,-12.1594
 L 9.61845,-11.5912 L 9.95491,-11.0611 L 10.3551,-10.5773 L 10.8129,-10.1474 L 11.3209,-9.77835 L 11.8711,-9.47586
 L 12.4549,-9.24471 L 13.0631,-9.08856 L 13.686,-9.00986 L 14,-9.00986 L 14,-9 L 91,-9
 z
M 14.7959,-86.7564 L 14.391,-86.8076 L 13.9957,-86.9091 L 13.6162,-87.0593 L 13.2586,-87.2559 L 12.9284,-87.4958
 L 12.6308,-87.7752 L 12.3707,-88.0897 L 12.152,-88.4343 L 11.9782,-88.8036 L 11.8521,-89.1918 L 11.7756,-89.5927
 L 11.75,-90 L 11.7756,-90.4073 L 11.8521,-90.8082 L 11.9782,-91.1964 L 12.152,-91.5657 L 12.3707,-91.9103
 L 12.6308,-92.2248 L 12.9284,-92.5042 L 13.2586,-92.7441 L 13.6162,-92.9407 L 13.9957,-93.0909 L 14.391,-93.1924
 L 14.7959,-93.2436 L 15.2041,-93.2436 L 15.609,-93.1924 L 16.0043,-93.0909 L 16.3838,-92.9407 L 16.7414,-92.7441
 L 17.0716,-92.5042 L 17.3691,-92.2248 L 17.6293,-91.9103 L 17.848,-91.5657 L 18.0218,-91.1964 L 18.1479,-90.8082
 L 18.2244,-90.4073 L 18.25,-90 L 18.2244,-89.5927 L 18.1479,-89.1918 L 18.0218,-88.8036 L 17.848,-88.4343
 L 17.6293,-88.0897 L 17.3691,-87.7752 L 17.0716,-87.4958 L 16.7414,-87.2559 L 16.3838,-87.0593 L 16.0043,-86.9091
 L 15.609,-86.8076 L 15.2041,-86.7564 z
M 89.7959,-86.7564 L 89.391,-86.8076 L 88.9957,-86.9091 L 88.6162,-87.0593 L 88.2586,-87.2559 L 87.9284,-87.4958
 L 87.6308,-87.7752 L 87.3707,-88.0897 L 87.152,-88.4343 L 86.9782,-88.8036 L 86.8521,-89.1918 L 86.7756,-89.5927
 L 86.75,-90 L 86.7756,-90.4073 L 86.8521,-90.8082 L 86.9782,-91.1964 L 87.152,-91.5657 L 87.3707,-91.9103
 L 87.6308,-92.2248 L 87.9284,-92.5042 L 88.2586,-92.7441 L 88.6162,-92.9407 L 88.9957,-93.0909 L 89.391,-93.1924
 L 89.7959,-93.2436 L 90.2041,-93.2436 L 90.609,-93.1924 L 91.0043,-93.0909 L 91.3838,-92.9407 L 91.7414,-92.7441
 L 92.0716,-92.5042 L 92.3691,-92.2248 L 92.6293,-91.9103 L 92.848,-91.5657 L 93.0218,-91.1964 L 93.1479,-90.8082
 L 93.2244,-90.4073 L 93.25,-90 L 93.2244,-89.5927 L 93.1479,-89.1918 L 93.0218,-88.8036 L 92.848,-88.4343
 L 92.6293,-88.0897 L 92.3691,-87.7752 L 92.0716,-87.4958 L 91.7414,-87.2559 L 91.3838,-87.0593 L 91.0043,-86.9091
 L 90.609,-86.8076 L 90.2041,-86.7564 z
M 74.7959,-86.7564 L 74.391,-86.8076 L 73.9957,-86.9091 L 73.6162,-87.0593 L 73.2586,-87.2559 L 72.9284,-87.4958
 L 72.6308,-87.7752 L 72.3707,-88.0897 L 72.152,-88.4343 L 71.9782,-88.8036 L 71.8521,-89.1918 L 71.7756,-89.5927
 L 71.75,-90 L 71.7756,-90.4073 L 71.8521,-90.8082 L 71.9782,-91.1964 L 72.152,-91.5657 L 72.3707,-91.9103
 L 72.6308,-92.2248 L 72.9284,-92.5042 L 73.2586,-92.7441 L 73.6162,-92.9407 L 73.9957,-93.0909 L 74.391,-93.1924
 L 74.7959,-93.2436 L 75.2041,-93.2436 L 75.609,-93.1924 L 76.0043,-93.0909 L 76.3838,-92.9407 L 76.7414,-92.7441
 L 77.0716,-92.5042 L 77.3691,-92.2248 L 77.6293,-91.9103 L 77.848,-91.5657 L 78.0218,-91.1964 L 78.1479,-90.8082
 L 78.2244,-90.4073 L 78.25,-90 L 78.2244,-89.5927 L 78.1479,-89.1918 L 78.0218,-88.8036 L 77.848,-88.4343
 L 77.6293,-88.0897 L 77.3691,-87.7752 L 77.0716,-87.4958 L 76.7414,-87.2559 L 76.3838,-87.0593 L 76.0043,-86.9091
 L 75.609,-86.8076 L 75.2041,-86.7564 z
M 29.7959,-86.7564 L 29.391,-86.8076 L 28.9957,-86.9091 L 28.6162,-87.0593 L 28.2586,-87.2559 L 27.9284,-87.4958
 L 27.6308,-87.7752 L 27.3707,-88.0897 L 27.152,-88.4343 L 26.9782,-88.8036 L 26.8521,-89.1918 L 26.7756,-89.5927
 L 26.75,-90 L 26.7756,-90.4073 L 26.8521,-90.8082 L 26.9782,-91.1964 L 27.152,-91.5657 L 27.3707,-91.9103
 L 27.6308,-92.2248 L 27.9284,-92.5042 L 28.2586,-92.7441 L 28.6162,-92.9407 L 28.9957,-93.0909 L 29.391,-93.1924
 L 29.7959,-93.2436 L 30.2041,-93.2436 L 30.609,-93.1924 L 31.0043,-93.0909 L 31.3838,-92.9407 L 31.7414,-92.7441
 L 32.0716,-92.5042 L 32.3691,-92.2248 L 32.6293,-91.9103 L 32.848,-91.5657 L 33.0218,-91.1964 L 33.1479,-90.8082
 L 33.2244,-90.4073 L 33.25,-90 L 33.2244,-89.5927 L 33.1479,-89.1918 L 33.0218,-88.8036 L 32.848,-88.4343
 L 32.6293,-88.0897 L 32.3691,-87.7752 L 32.0716,-87.4958 L 31.7414,-87.2559 L 31.3838,-87.0593 L 31.0043,-86.9091
 L 30.609,-86.8076 L 30.2041,-86.7564 z
M 59.7959,-86.7564 L 59.391,-86.8076 L 58.9957,-86.9091 L 58.6162,-87.0593 L 58.2586,-87.2559 L 57.9284,-87.4958
 L 57.6308,-87.7752 L 57.3707,-88.0897 L 57.152,-88.4343 L 56.9782,-88.8036 L 56.8521,-89.1918 L 56.7756,-89.5927
 L 56.75,-90 L 56.7756,-90.4073 L 56.8521,-90.8082 L 56.9782,-91.1964 L 57.152,-91.5657 L 57.3707,-91.9103
 L 57.6308,-92.2248 L 57.9284,-92.5042 L 58.2586,-92.7441 L 58.6162,-92.9407 L 58.9957,-93.0909 L 59.391,-93.1924
 L 59.7959,-93.2436 L 60.2041,-93.2436 L 60.609,-93.1924 L 61.0043,-93.0909 L 61.3838,-92.9407 L 61.7414,-92.7441
 L 62.0716,-92.5042 L 62.3691,-92.2248 L 62.6293,-91.9103 L 62.848,-91.5657 L 63.0218,-91.1964 L 63.1479,-90.8082
 L 63.2244,-90.4073 L 63.25,-90 L 63.2244,-89.5927 L 63.1479,-89.1918 L 63.0218,-88.8036 L 62.848,-88.4343
 L 62.6293,-88.0897 L 62.3691,-87.7752 L 62.0716,-87.4958 L 61.7414,-87.2559 L 61.3838,-87.0593 L 61.0043,-86.9091
 L 60.609,-86.8076 L 60.2041,-86.7564 z
M 44.7959,-86.7564 L 44.391,-86.8076 L 43.9957,-86.9091 L 43.6162,-87.0593 L 43.2586,-87.2559 L 42.9284,-87.4958
 L 42.6308,-87.7752 L 42.3707,-88.0897 L 42.152,-88.4343 L 41.9782,-88.8036 L 41.8521,-89.1918 L 41.7756,-89.5927
 L 41.75,-90 L 41.7756,-90.4073 L 41.8521,-90.8082 L 41.9782,-91.1964 L 42.152,-91.5657 L 42.3707,-91.9103
 L 42.6308,-92.2248 L 42.9284,-92.5042 L 43.2586,-92.7441 L 43.6162,-92.9407 L 43.9957,-93.0909 L 44.391,-93.1924
 L 44.7959,-93.2436 L 45.2041,-93.2436 L 45.609,-93.1924 L 46.0043,-93.0909 L 46.3838,-92.9407 L 46.7414,-92.7441
 L 47.0716,-92.5042 L 47.3691,-92.2248 L 47.6293,-91.9103 L 47.848,-91.5657 L 48.0218,-91.1964 L 48.1479,-90.8082
 L 48.2244,-90.4073 L 48.25,-90 L 48.2244,-89.5927 L 48.1479,-89.1918 L 48.0218,-88.8036 L 47.848,-88.4343
 L 47.6293,-88.0897 L 47.3691,-87.7752 L 47.0716,-87.4958 L 46.7414,-87.2559 L 46.3838,-87.0593 L 46.0043,-86.9091
 L 45.609,-86.8076 L 45.2041,-86.7564 z
M 59.7959,-71.7564 L 59.391,-71.8076 L 58.9957,-71.9091 L 58.6162,-72.0593 L 58.2586,-72.2559 L 57.9284,-72.4958
 L 57.6308,-72.7752 L 57.3707,-73.0897 L 57.152,-73.4343 L 56.9782,-73.8036 L 56.8521,-74.1918 L 56.7756,-74.5927
 L 56.75,-75 L 56.7756,-75.4073 L 56.8521,-75.8082 L 56.9782,-76.1964 L 57.152,-76.5657 L 57.3707,-76.9103
 L 57.6308,-77.2248 L 57.9284,-77.5042 L 58.2586,-77.7441 L 58.6162,-77.9407 L 58.9957,-78.0909 L 59.391,-78.1924
 L 59.7959,-78.2436 L 60.2041,-78.2436 L 60.609,-78.1924 L 61.0043,-78.0909 L 61.3838,-77.9407 L 61.7414,-77.7441
 L 62.0716,-77.5042 L 62.3691,-77.2248 L 62.6293,-76.9103 L 62.848,-76.5657 L 63.0218,-76.1964 L 63.1479,-75.8082
 L 63.2244,-75.4073 L 63.25,-75 L 63.2244,-74.5927 L 63.1479,-74.1918 L 63.0218,-73.8036 L 62.848,-73.4343
 L 62.6293,-73.0897 L 62.3691,-72.7752 L 62.0716,-72.4958 L 61.7414,-72.2559 L 61.3838,-72.0593 L 61.0043,-71.9091
 L 60.609,-71.8076 L 60.2041,-71.7564 z
M 14.7959,-71.7564 L 14.391,-71.8076 L 13.9957,-71.9091 L 13.6162,-72.0593 L 13.2586,-72.2559 L 12.9284,-72.4958
 L 12.6308,-72.7752 L 12.3707,-73.0897 L 12.152,-73.4343 L 11.9782,-73.8036 L 11.8521,-74.1918 L 11.7756,-74.5927
 L 11.75,-75 L 11.7756,-75.4073 L 11.8521,-75.8082 L 11.9782,-76.1964 L 12.152,-76.5657 L 12.3707,-76.9103
 L 12.6308,-77.2248 L 12.9284,-77.5042 L 13.2586,-77.7441 L 13.6162,-77.9407 L 13.9957,-78.0909 L 14.391,-78.1924
 L 14.7959,-78.2436 L 15.2041,-78.2436 L 15.609,-78.1924 L 16.0043,-78.0909 L 16.3838,-77.9407 L 16.7414,-77.7441
 L 17.0716,-77.5042 L 17.3691,-77.2248 L 17.6293,-76.9103 L 17.848,-76.5657 L 18.0218,-76.1964 L 18.1479,-75.8082
 L 18.2244,-75.4073 L 18.25,-75 L 18.2244,-74.5927 L 18.1479,-74.1918 L 18.0218,-73.8036 L 17.848,-73.4343
 L 17.6293,-73.0897 L 17.3691,-72.7752 L 17.0716,-72.4958 L 16.7414,-72.2559 L 16.3838,-72.0593 L 16.0043,-71.9091
 L 15.609,-71.8076 L 15.2041,-71.7564 z
M 89.7959,-71.7564 L 89.391,-71.8076 L 88.9957,-71.9091 L 88.6162,-72.0593 L 88.2586,-72.2559 L 87.9284,-72.4958
 L 87.6308,-72.7752 L 87.3707,-73.0897 L 87.152,-73.4343 L 86.9782,-73.8036 L 86.8521,-74.1918 L 86.7756,-74.5927
 L 86.75,-75 L 86.7756,-75.4073 L 86.8521,-75.8082 L 86.9782,-76.1964 L 87.152,-76.5657 L 87.3707,-76.9103
 L 87.6308,-77.2248 L 87.9284,-77.5042 L 88.2586,-77.7441 L 88.6162,-77.9407 L 88.9957,-78.0909 L 89.391,-78.1924
 L 89.7959,-78.2436 L 90.2041,-78.2436 L 90.609,-78.1924 L 91.0043,-78.0909 L 91.3838,-77.9407 L 91.7414,-77.7441
 L 92.0716,-77.5042 L 92.3691,-77.2248 L 92.6293,-76.9103 L 92.848,-76.5657 L 93.0218,-76.1964 L 93.1479,-75.8082
 L 93.2244,-75.4073 L 93.25,-75 L 93.2244,-74.5927 L 93.1479,-74.1918 L 93.0218,-73.8036 L 92.848,-73.4343
 L 92.6293,-73.0897 L 92.3691,-72.7752 L 92.0716,-72.4958 L 91.7414,-72.2559 L 91.3838,-72.0593 L 91.0043,-71.9091
 L 90.609,-71.8076 L 90.2041,-71.7564 z
M 29.7959,-71.7564 L 29.391,-71.8076 L 28.9957,-71.9091 L 28.6162,-72.0593 L 28.2586,-72.2559 L 27.9284,-72.4958
 L 27.6308,-72.7752 L 27.3707,-73.0897 L 27.152,-73.4343 L 26.9782,-73.8036 L 26.8521,-74.1918 L 26.7756,-74.5927
 L 26.75,-75 L 26.7756,-75.4073 L 26.8521,-75.8082 L 26.9782,-76.1964 L 27.152,-76.5657 L 27.3707,-76.9103
 L 27.6308,-77.2248 L 27.9284,-77.5042 L 28.2586,-77.7441 L 28.6162,-77.9407 L 28.9957,-78.0909 L 29.391,-78.1924
 L 29.7959,-78.2436 L 30.2041,-78.2436 L 30.609,-78.1924 L 31.0043,-78.0909 L 31.3838,-77.9407 L 31.7414,-77.7441
 L 32.0716,-77.5042 L 32.3691,-77.2248 L 32.6293,-76.9103 L 32.848,-76.5657 L 33.0218,-76.1964 L 33.1479,-75.8082
 L 33.2244,-75.4073 L 33.25,-75 L 33.2244,-74.5927 L 33.1479,-74.1918 L 33.0218,-73.8036 L 32.848,-73.4343
 L 32.6293,-73.0897 L 32.3691,-72.7752 L 32.0716,-72.4958 L 31.7414,-72.2559 L 31.3838,-72.0593 L 31.0043,-71.9091
 L 30.609,-71.8076 L 30.2041,-71.7564 z
M 44.7959,-71.7564 L 44.391,-71.8076 L 43.9957,-71.9091 L 43.6162,-72.0593 L 43.2586,-72.2559 L 42.9284,-72.4958
 L 42.6308,-72.7752 L 42.3707,-73.0897 L 42.152,-73.4343 L 41.9782,-73.8036 L 41.8521,-74.1918 L 41.7756,-74.5927
 L 41.75,-75 L 41.7756,-75.4073 L 41.8521,-75.8082 L 41.9782,-76.1964 L 42.152,-76.5657 L 42.3707,-76.9103
 L 42.6308,-77.2248 L 42.9284,-77.5042 L 43.2586,-77.7441 L 43.6162,-77.9407 L 43.9957,-78.0909 L 44.391,-78.1924
 L 44.7959,-78.2436 L 45.2041,-78.2436 L 45.609,-78.1924 L 46.0043,-78.0909 L 46.3838,-77.9407 L 46.7414,-77.7441
 L 47.0716,-77.5042 L 47.3691,-77.2248 L 47.6293,-76.9103 L 47.848,-76.5657 L 48.0218,-76.1964 L 48.1479,-75.8082
 L 48.2244,-75.4073 L 48.25,-75 L 48.2244,-74.5927 L 48.1479,-74.1918 L 48.0218,-73.8036 L 47.848,-73.4343
 L 47.6293,-73.0897 L 47.3691,-72.7752 L 47.0716,-72.4958 L 46.7414,-72.2559 L 46.3838,-72.0593 L 46.0043,-71.9091
 L 45.609,-71.8076 L 45.2041,-71.7564 z
M 74.7959,-71.7564 L 74.391,-71.8076 L 73.9957,-71.9091 L 73.6162,-72.0593 L 73.2586,-72.2559 L 72.9284,-72.4958
 L 72.6308,-72.7752 L 72.3707,-73.0897 L 72.152,-73.4343 L 71.9782,-73.8036 L 71.8521,-74.1918 L 71.7756,-74.5927
 L 71.75,-75 L 71.7756,-75.4073 L 71.8521,-75.8082 L 71.9782,-76.1964 L 72.152,-76.5657 L 72.3707,-76.9103
 L 72.6308,-77.2248 L 72.9284,-77.5042 L 73.2586,-77.7441 L 73.6162,-77.9407 L 73.9957,-78.0909 L 74.391,-78.1924
 L 74.7959,-78.2436 L 75.2041,-78.2436 L 75.609,-78.1924 L 76.0043,-78.0909 L 76.3838,-77.9407 L 76.7414,-77.7441
 L 77.0716,-77.5042 L 77.3691,-77.2248 L 77.6293,-76.9103 L 77.848,-76.5657 L 78.0218,-76.1964 L 78.1479,-75.8082
 L 78.2244,-75.4073 L 78.25,-75 L 78.2244,-74.5927 L 78.1479,-74.1918 L 78.0218,-73.8036 L 77.848,-73.4343
 L 77.6293,-73.0897 L 77.3691,-72.7752 L 77.0716,-72.4958 L 76.7414,-72.2559 L 76.3838,-72.0593 L 76.0043,-71.9091
 L 75.609,-71.8076 L 75.2041,-71.7564 z
M 29.7959,-56.7564 L 29.391,-56.8076 L 28.9957,-56.9091 L 28.6162,-57.0593 L 28.2586,-57.2559 L 27.9284,-57.4958
 L 27.6308,-57.7752 L 27.3707,-58.0897 L 27.152,-58.4343 L 26.9782,-58.8036 L 26.8521,-59.1918 L 26.7756,-59.5927
 L 26.75,-60 L 26.7756,-60.4073 L 26.8521,-60.8082 L 26.9782,-61.1964 L 27.152,-61.5657 L 27.3707,-61.9103
 L 27.6308,-62.2248 L 27.9284,-62.5042 L 28.2586,-62.7441 L 28.6162,-62.9407 L 28.9957,-63.0909 L 29.391,-63.1924
 L 29.7959,-63.2436 L 30.2041,-63.2436 L 30.609,-63.1924 L 31.0043,-63.0909 L 31.3838,-62.9407 L 31.7414,-62.7441
 L 32.0716,-62.5042 L 32.3691,-62.2248 L 32.6293,-61.9103 L 32.848,-61.5657 L 33.0218,-61.1964 L 33.1479,-60.8082
 L 33.2244,-60.4073 L 33.25,-60 L 33.2244,-59.5927 L 33.1479,-59.1918 L 33.0218,-58.8036 L 32.848,-58.4343
 L 32.6293,-58.0897 L 32.3691,-57.7752 L 32.0716,-57.4958 L 31.7414,-57.2559 L 31.3838,-57.0593 L 31.0043,-56.9091
 L 30.609,-56.8076 L 30.2041,-56.7564 z
M 59.7959,-56.7564 L 59.391,-56.8076 L 58.9957,-56.9091 L 58.6162,-57.0593 L 58.2586,-57.2559 L 57.9284,-57.4958
 L 57.6308,-57.7752 L 57.3707,-58.0897 L 57.152,-58.4343 L 56.9782,-58.8036 L 56.8521,-59.1918 L 56.7756,-59.5927
 L 56.75,-60 L 56.7756,-60.4073 L 56.8521,-60.8082 L 56.9782,-61.1964 L 57.152,-61.5657 L 57.3707,-61.9103
 L 57.6308,-62.2248 L 57.9284,-62.5042 L 58.2586,-62.7441 L 58.6162,-62.9407 L 58.9957,-63.0909 L 59.391,-63.1924
 L 59.7959,-63.2436 L 60.2041,-63.2436 L 60.609,-63.1924 L 61.0043,-63.0909 L 61.3838,-62.9407 L 61.7414,-62.7441
 L 62.0716,-62.5042 L 62.3691,-62.2248 L 62.6293,-61.9103 L 62.848,-61.5657 L 63.0218,-61.1964 L 63.1479,-60.8082
 L 63.2244,-60.4073 L 63.25,-60 L 63.2244,-59.5927 L 63.1479,-59.1918 L 63.0218,-58.8036 L 62.848,-58.4343
 L 62.6293,-58.0897 L 62.3691,-57.7752 L 62.0716,-57.4958 L 61.7414,-57.2559 L 61.3838,-57.0593 L 61.0043,-56.9091
 L 60.609,-56.8076 L 60.2041,-56.7564 z
M 74.7959,-56.7564 L 74.391,-56.8076 L 73.9957,-56.9091 L 73.6162,-57.0593 L 73.2586,-57.2559 L 72.9284,-57.4958
 L 72.6308,-57.7752 L 72.3707,-58.0897 L 72.152,-58.4343 L 71.9782,-58.8036 L 71.8521,-59.1918 L 71.7756,-59.5927
 L 71.75,-60 L 71.7756,-60.4073 L 71.8521,-60.8082 L 71.9782,-61.1964 L 72.152,-61.5657 L 72.3707,-61.9103
 L 72.6308,-62.2248 L 72.9284,-62.5042 L 73.2586,-62.7441 L 73.6162,-62.9407 L 73.9957,-63.0909 L 74.391,-63.1924
 L 74.7959,-63.2436 L 75.2041,-63.2436 L 75.609,-63.1924 L 76.0043,-63.0909 L 76.3838,-62.9407 L 76.7414,-62.7441
 L 77.0716,-62.5042 L 77.3691,-62.2248 L 77.6293,-61.9103 L 77.848,-61.5657 L 78.0218,-61.1964 L 78.1479,-60.8082
 L 78.2244,-60.4073 L 78.25,-60 L 78.2244,-59.5927 L 78.1479,-59.1918 L 78.0218,-58.8036 L 77.848,-58.4343
 L 77.6293,-58.0897 L 77.3691,-57.7752 L 77.0716,-57.4958 L 76.7414,-57.2559 L 76.3838,-57.0593 L 76.0043,-56.9091
 L 75.609,-56.8076 L 75.2041,-56.7564 z
M 44.7959,-56.7564 L 44.391,-56.8076 L 43.9957,-56.9091 L 43.6162,-57.0593 L 43.2586,-57.2559 L 42.9284,-57.4958
 L 42.6308,-57.7752 L 42.3707,-58.0897 L 42.152,-58.4343 L 41.9782,-58.8036 L 41.8521,-59.1918 L 41.7756,-59.5927
 L 41.75,-60 L 41.7756,-60.4073 L 41.8521,-60.8082 L 41.9782,-61.1964 L 42.152,-61.5657 L 42.3707,-61.9103
 L 42.6308,-62.2248 L 42.9284,-62.5042 L 43.2586,-62.7441 L 43.6162,-62.9407 L 43.9957,-63.0909 L 44.391,-63.1924
 L 44.7959,-63.2436 L 45.2041,-63.2436 L 45.609,-63.1924 L 46.0043,-63.0909 L 46.3838,-62.9407 L 46.7414,-62.7441
 L 47.0716,-62.5042 L 47.3691,-62.2248 L 47.6293,-61.9103 L 47.848,-61.5657 L 48.0218,-61.1964 L 48.1479,-60.8082
 L 48.2244,-60.4073 L 48.25,-60 L 48.2244,-59.5927 L 48.1479,-59.1918 L 48.0218,-58.8036 L 47.848,-58.4343
 L 47.6293,-58.0897 L 47.3691,-57.7752 L 47.0716,-57.4958 L 46.7414,-57.2559 L 46.3838,-57.0593 L 46.0043,-56.9091
 L 45.609,-56.8076 L 45.2041,-56.7564 z
M 14.7959,-56.7564 L 14.391,-56.8076 L 13.9957,-56.9091 L 13.6162,-57.0593 L 13.2586,-57.2559 L 12.9284,-57.4958
 L 12.6308,-57.7752 L 12.3707,-58.0897 L 12.152,-58.4343 L 11.9782,-58.8036 L 11.8521,-59.1918 L 11.7756,-59.5927
 L 11.75,-60 L 11.7756,-60.4073 L 11.8521,-60.8082 L 11.9782,-61.1964 L 12.152,-61.5657 L 12.3707,-61.9103
 L 12.6308,-62.2248 L 12.9284,-62.5042 L 13.2586,-62.7441 L 13.6162,-62.9407 L 13.9957,-63.0909 L 14.391,-63.1924
 L 14.7959,-63.2436 L 15.2041,-63.2436 L 15.609,-63.1924 L 16.0043,-63.0909 L 16.3838,-62.9407 L 16.7414,-62.7441
 L 17.0716,-62.5042 L 17.3691,-62.2248 L 17.6293,-61.9103 L 17.848,-61.5657 L 18.0218,-61.1964 L 18.1479,-60.8082
 L 18.2244,-60.4073 L 18.25,-60 L 18.2244,-59.5927 L 18.1479,-59.1918 L 18.0218,-58.8036 L 17.848,-58.4343
 L 17.6293,-58.0897 L 17.3691,-57.7752 L 17.0716,-57.4958 L 16.7414,-57.2559 L 16.3838,-57.0593 L 16.0043,-56.9091
 L 15.609,-56.8076 L 15.2041,-56.7564 z
M 89.7959,-56.7564 L 89.391,-56.8076 L 88.9957,-56.9091 L 88.6162,-57.0593 L 88.2586,-57.2559 L 87.9284,-57.4958
 L 87.6308,-57.7752 L 87.3707,-58.0897 L 87.152,-58.4343 L 86.9782,-58.8036 L 86.8521,-59.1918 L 86.7756,-59.5927
 L 86.75,-60 L 86.7756,-60.4073 L 86.8521,-60.8082 L 86.9782,-61.1964 L 87.152,-61.5657 L 87.3707,-61.9103
 L 87.6308,-62.2248 L 87.9284,-62.5042 L 88.2586,-62.7441 L 88.6162,-62.9407 L 88.9957,-63.0909 L 89.391,-63.1924
 L 89.7959,-63.2436 L 90.2041,-63.2436 L 90.609,-63.1924 L 91.0043,-63.0909 L 91.3838,-62.9407 L 91.7414,-62.7441
 L 92.0716,-62.5042 L 92.3691,-62.2248 L 92.6293,-61.9103 L 92.848,-61.5657 L 93.0218,-61.1964 L 93.1479,-60.8082
 L 93.2244,-60.4073 L 93.25,-60 L 93.2244,-59.5927 L 93.1479,-59.1918 L 93.0218,-58.8036 L 92.848,-58.4343
 L 92.6293,-58.0897 L 92.3691,-57.7752 L 92.0716,-57.4958 L 91.7414,-57.2559 L 91.3838,-57.0593 L 91.0043,-56.9091
 L 90.609,-56.8076 L 90.2041,-56.7564 z
M 29.7959,-41.7564 L 29.391,-41.8076 L 28.9957,-41.9091 L 28.6162,-42.0593 L 28.2586,-42.2559 L 27.9284,-42.4958
 L 27.6308,-42.7752 L 27.3707,-43.0897 L 27.152,-43.4343 L 26.9782,-43.8036 L 26.8521,-44.1918 L 26.7756,-44.5927
 L 26.75,-45 L 26.7756,-45.4073 L 26.8521,-45.8082 L 26.9782,-46.1964 L 27.152,-46.5657 L 27.3707,-46.9103
 L 27.6308,-47.2248 L 27.9284,-47.5042 L 28.2586,-47.7441 L 28.6162,-47.9407 L 28.9957,-48.0909 L 29.391,-48.1924
 L 29.7959,-48.2436 L 30.2041,-48.2436 L 30.609,-48.1924 L 31.0043,-48.0909 L 31.3838,-47.9407 L 31.7414,-47.7441
 L 32.0716,-47.5042 L 32.3691,-47.2248 L 32.6293,-46.9103 L 32.848,-46.5657 L 33.0218,-46.1964 L 33.1479,-45.8082
 L 33.2244,-45.4073 L 33.25,-45 L 33.2244,-44.5927 L 33.1479,-44.1918 L 33.0218,-43.8036 L 32.848,-43.4343
 L 32.6293,-43.0897 L 32.3691,-42.7752 L 32.0716,-42.4958 L 31.7414,-42.2559 L 31.3838,-42.0593 L 31.0043,-41.9091
 L 30.609,-41.8076 L 30.2041,-41.7564 z
M 14.7959,-41.7564 L 14.391,-41.8076 L 13.9957,-41.9091 L 13.6162,-42.0593 L 13.2586,-42.2559 L 12.9284,-42.4958
 L 12.6308,-42.7752 L 12.3707,-43.0897 L 12.152,-43.4343 L 11.9782,-43.8036 L 11.8521,-44.1918 L 11.7756,-44.5927
 L 11.75,-45 L 11.7756,-45.4073 L 11.8521,-45.8082 L 11.9782,-46.1964 L 12.152,-46.5657 L 12.3707,-46.9103
 L 12.6308,-47.2248 L 12.9284,-47.5042 L 13.2586,-47.7441 L 13.6162,-47.9407 L 13.9957,-48.0909 L 14.391,-48.1924
 L 14.7959,-48.2436 L 15.2041,-48.2436 L 15.609,-48.1924 L 16.0043,-48.0909 L 16.3838,-47.9407 L 16.7414,-47.7441
 L 17.0716,-47.5042 L 17.3691,-47.2248 L 17.6293,-46.9103 L 17.848,-46.5657 L 18.0218,-46.1964 L 18.1479,-45.8082
 L 18.2244,-45.4073 L 18.25,-45 L 18.2244,-44.5927 L 18.1479,-44.1918 L 18.0218,-43.8036 L 17.848,-43.4343
 L 17.6293,-43.0897 L 17.3691,-42.7752 L 17.0716,-42.4958 L 16.7414,-42.2559 L 16.3838,-42.0593 L 16.0043,-41.9091
 L 15.609,-41.8076 L 15.2041,-41.7564 z
M 74.7959,-41.7564 L 74.391,-41.8076 L 73.9957,-41.9091 L 73.6162,-42.0593 L 73.2586,-42.2559 L 72.9284,-42.4958
 L 72.6308,-42.7752 L 72.3707,-43.0897 L 72.152,-43.4343 L 71.9782,-43.8036 L 71.8521,-44.1918 L 71.7756,-44.5927
 L 71.75,-45 L 71.7756,-45.4073 L 71.8521,-45.8082 L 71.9782,-46.1964 L 72.152,-46.5657 L 72.3707,-46.9103
 L 72.6308,-47.2248 L 72.9284,-47.5042 L 73.2586,-47.7441 L 73.6162,-47.9407 L 73.9957,-48.0909 L 74.391,-48.1924
 L 74.7959,-48.2436 L 75.2041,-48.2436 L 75.609,-48.1924 L 76.0043,-48.0909 L 76.3838,-47.9407 L 76.7414,-47.7441
 L 77.0716,-47.5042 L 77.3691,-47.2248 L 77.6293,-46.9103 L 77.848,-46.5657 L 78.0218,-46.1964 L 78.1479,-45.8082
 L 78.2244,-45.4073 L 78.25,-45 L 78.2244,-44.5927 L 78.1479,-44.1918 L 78.0218,-43.8036 L 77.848,-43.4343
 L 77.6293,-43.0897 L 77.3691,-42.7752 L 77.0716,-42.4958 L 76.7414,-42.2559 L 76.3838,-42.0593 L 76.0043,-41.9091
 L 75.609,-41.8076 L 75.2041,-41.7564 z
M 89.7959,-41.7564 L 89.391,-41.8076 L 88.9957,-41.9091 L 88.6162,-42.0593 L 88.2586,-42.2559 L 87.9284,-42.4958
 L 87.6308,-42.7752 L 87.3707,-43.0897 L 87.152,-43.4343 L 86.9782,-43.8036 L 86.8521,-44.1918 L 86.7756,-44.5927
 L 86.75,-45 L 86.7756,-45.4073 L 86.8521,-45.8082 L 86.9782,-46.1964 L 87.152,-46.5657 L 87.3707,-46.9103
 L 87.6308,-47.2248 L 87.9284,-47.5042 L 88.2586,-47.7441 L 88.6162,-47.9407 L 88.9957,-48.0909 L 89.391,-48.1924
 L 89.7959,-48.2436 L 90.2041,-48.2436 L 90.609,-48.1924 L 91.0043,-48.0909 L 91.3838,-47.9407 L 91.7414,-47.7441
 L 92.0716,-47.5042 L 92.3691,-47.2248 L 92.6293,-46.9103 L 92.848,-46.5657 L 93.0218,-46.1964 L 93.1479,-45.8082
 L 93.2244,-45.4073 L 93.25,-45 L 93.2244,-44.5927 L 93.1479,-44.1918 L 93.0218,-43.8036 L 92.848,-43.4343
 L 92.6293,-43.0897 L 92.3691,-42.7752 L 92.0716,-42.4958 L 91.7414,-42.2559 L 91.3838,-42.0593 L 91.0043,-41.9091
 L 90.609,-41.8076 L 90.2041,-41.7564 z
M 44.7959,-41.7564 L 44.391,-41.8076 L 43.9957,-41.9091 L 43.6162,-42.0593 L 43.2586,-42.2559 L 42.9284,-42.4958
 L 42.6308,-42.7752 L 42.3707,-43.0897 L 42.152,-43.4343 L 41.9782,-43.8036 L 41.8521,-44.1918 L 41.7756,-44.5927
 L 41.75,-45 L 41.7756,-45.4073 L 41.8521,-45.8082 L 41.9782,-46.1964 L 42.152,-46.5657 L 42.3707,-46.9103
 L 42.6308,-47.2248 L 42.9284,-47.5042 L 43.2586,-47.7441 L 43.6162,-47.9407 L 43.9957,-48.0909 L 44.391,-48.1924
 L 44.7959,-48.2436 L 45.2041,-48.2436 L 45.609,-48.1924 L 46.0043,-48.0909 L 46.3838,-47.9407 L 46.7414,-47.7441
 L 47.0716,-47.5042 L 47.3691,-47.2248 L 47.6293,-46.9103 L 47.848,-46.5657 L 48.0218,-46.1964 L 48.1479,-45.8082
 L 48.2244,-45.4073 L 48.25,-45 L 48.2244,-44.5927 L 48.1479,-44.1918 L 48.0218,-43.8036 L 47.848,-43.4343
 L 47.6293,-43.0897 L 47.3691,-42.7752 L 47.0716,-42.4958 L 46.7414,-42.2559 L 46.3838,-42.0593 L 46.0043,-41.9091
 L 45.609,-41.8076 L 45.2041,-41.7564 z
M 59.7959,-41.7564 L 59.391,-41.8076 L 58.9957,-41.9091 L 58.6162,-42.0593 L 58.2586,-42.2559 L 57.9284,-42.4958
 L 57.6308,-42.7752 L 57.3707,-43.0897 L 57.152,-43.4343 L 56.9782,-43.8036 L 56.8521,-44.1918 L 56.7756,-44.5927
 L 56.75,-45 L 56.7756,-45.4073 L 56.8521,-45.8082 L 56.9782,-46.1964 L 57.152,-46.5657 L 57.3707,-46.9103
 L 57.6308,-47.2248 L 57.9284,-47.5042 L 58.2586,-47.7441 L 58.6162,-47.9407 L 58.9957,-48.0909 L 59.391,-48.1924
 L 59.7959,-48.2436 L 60.2041,-48.2436 L 60.609,-48.1924 L 61.0043,-48.0909 L 61.3838,-47.9407 L 61.7414,-47.7441
 L 62.0716,-47.5042 L 62.3691,-47.2248 L 62.6293,-46.9103 L 62.848,-46.5657 L 63.0218,-46.1964 L 63.1479,-45.8082
 L 63.2244,-45.4073 L 63.25,-45 L 63.2244,-44.5927 L 63.1479,-44.1918 L 63.0218,-43.8036 L 62.848,-43.4343
 L 62.6293,-43.0897 L 62.3691,-42.7752 L 62.0716,-42.4958 L 61.7414,-42.2559 L 61.3838,-42.0593 L 61.0043,-41.9091
 L 60.609,-41.8076 L 60.2041,-41.7564 z
M 29.7959,-26.7564 L 29.391,-26.8076 L 28.9957,-26.9091 L 28.6162,-27.0593 L 28.2586,-27.2559 L 27.9284,-27.4958
 L 27.6308,-27.7752 L 27.3707,-28.0897 L 27.152,-28.4343 L 26.9782,-28.8036 L 26.8521,-29.1918 L 26.7756,-29.5927
 L 26.75,-30 L 26.7756,-30.4073 L 26.8521,-30.8082 L 26.9782,-31.1964 L 27.152,-31.5657 L 27.3707,-31.9103
 L 27.6308,-32.2248 L 27.9284,-32.5042 L 28.2586,-32.7441 L 28.6162,-32.9407 L 28.9957,-33.0909 L 29.391,-33.1924
 L 29.7959,-33.2436 L 30.2041,-33.2436 L 30.609,-33.1924 L 31.0043,-33.0909 L 31.3838,-32.9407 L 31.7414,-32.7441
 L 32.0716,-32.5042 L 32.3691,-32.2248 L 32.6293,-31.9103 L 32.848,-31.5657 L 33.0218,-31.1964 L 33.1479,-30.8082
 L 33.2244,-30.4073 L 33.25,-30 L 33.2244,-29.5927 L 33.1479,-29.1918 L 33.0218,-28.8036 L 32.848,-28.4343
 L 32.6293,-28.0897 L 32.3691,-27.7752 L 32.0716,-27.4958 L 31.7414,-27.2559 L 31.3838,-27.0593 L 31.0043,-26.9091
 L 30.609,-26.8076 L 30.2041,-26.7564 z
M 89.7959,-26.7564 L 89.391,-26.8076 L 88.9957,-26.9091 L 88.6162,-27.0593 L 88.2586,-27.2559 L 87.9284,-27.4958
 L 87.6308,-27.7752 L 87.3707,-28.0897 L 87.152,-28.4343 L 86.9782,-28.8036 L 86.8521,-29.1918 L 86.7756,-29.5927
 L 86.75,-30 L 86.7756,-30.4073 L 86.8521,-30.8082 L 86.9782,-31.1964 L 87.152,-31.5657 L 87.3707,-31.9103
 L 87.6308,-32.2248 L 87.9284,-32.5042 L 88.2586,-32.7441 L 88.6162,-32.9407 L 88.9957,-33.0909 L 89.391,-33.1924
 L 89.7959,-33.2436 L 90.2041,-33.2436 L 90.609,-33.1924 L 91.0043,-33.0909 L 91.3838,-32.9407 L 91.7414,-32.7441
 L 92.0716,-32.5042 L 92.3691,-32.2248 L 92.6293,-31.9103 L 92.848,-31.5657 L 93.0218,-31.1964 L 93.1479,-30.8082
 L 93.2244,-30.4073 L 93.25,-30 L 93.2244,-29.5927 L 93.1479,-29.1918 L 93.0218,-28.8036 L 92.848,-28.4343
 L 92.6293,-28.0897 L 92.3691,-27.7752 L 92.0716,-27.4958 L 91.7414,-27.2559 L 91.3838,-27.0593 L 91.0043,-26.9091
 L 90.609,-26.8076 L 90.2041,-26.7564 z
M 74.7959,-26.7564 L 74.391,-26.8076 L 73.9957,-26.9091 L 73.6162,-27.0593 L 73.2586,-27.2559 L 72.9284,-27.4958
 L 72.6308,-27.7752 L 72.3707,-28.0897 L 72.152,-28.4343 L 71.9782,-28.8036 L 71.8521,-29.1918 L 71.7756,-29.5927
 L 71.75,-30 L 71.7756,-30.4073 L 71.8521,-30.8082 L 71.9782,-31.1964 L 72.152,-31.5657 L 72.3707,-31.9103
 L 72.6308,-32.2248 L 72.9284,-32.5042 L 73.2586,-32.7441 L 73.6162,-32.9407 L 73.9957,-33.0909 L 74.391,-33.1924
 L 74.7959,-33.2436 L 75.2041,-33.2436 L 75.609,-33.1924 L 76.0043,-33.0909 L 76.3838,-32.9407 L 76.7414,-32.7441
 L 77.0716,-32.5042 L 77.3691,-32.2248 L 77.6293,-31.9103 L 77.848,-31.5657 L 78.0218,-31.1964 L 78.1479,-30.8082
 L 78.2244,-30.4073 L 78.25,-30 L 78.2244,-29.5927 L 78.1479,-29.1918 L 78.0218,-28.8036 L 77.848,-28.4343
 L 77.6293,-28.0897 L 77.3691,-27.7752 L 77.0716,-27.4958 L 76.7414,-27.2559 L 76.3838,-27.0593 L 76.0043,-26.9091
 L 75.609,-26.8076 L 75.2041,-26.7564 z
M 44.7959,-26.7564 L 44.391,-26.8076 L 43.9957,-26.9091 L 43.6162,-27.0593 L 43.2586,-27.2559 L 42.9284,-27.4958
 L 42.6308,-27.7752 L 42.3707,-28.0897 L 42.152,-28.4343 L 41.9782,-28.8036 L 41.8521,-29.1918 L 41.7756,-29.5927
 L 41.75,-30 L 41.7756,-30.4073 L 41.8521,-30.8082 L 41.9782,-31.1964 L 42.152,-31.5657 L 42.3707,-31.9103
 L 42.6308,-32.2248 L 42.9284,-32.5042 L 43.2586,-32.7441 L 43.6162,-32.9407 L 43.9957,-33.0909 L 44.391,-33.1924
 L 44.7959,-33.2436 L 45.2041,-33.2436 L 45.609,-33.1924 L 46.0043,-33.0909 L 46.3838,-32.9407 L 46.7414,-32.7441
 L 47.0716,-32.5042 L 47.3691,-32.2248 L 47.6293,-31.9103 L 47.848,-31.5657 L 48.0218,-31.1964 L 48.1479,-30.8082
 L 48.2244,-30.4073 L 48.25,-30 L 48.2244,-29.5927 L 48.1479,-29.1918 L 48.0218,-28.8036 L 47.848,-28.4343
 L 47.6293,-28.0897 L 47.3691,-27.7752 L 47.0716,-27.4958 L 46.7414,-27.2559 L 46.3838,-27.0593 L 46.0043,-26.9091
 L 45.609,-26.8076 L 45.2041,-26.7564 z
M 14.7959,-26.7564 L 14.391,-26.8076 L 13.9957,-26.9091 L 13.6162,-27.0593 L 13.2586,-27.2559 L 12.9284,-27.4958
 L 12.6308,-27.7752 L 12.3707,-28.0897 L 12.152,-28.4343 L 11.9782,-28.8036 L 11.8521,-29.1918 L 11.7756,-29.5927
 L 11.75,-30 L 11.7756,-30.4073 L 11.8521,-30.8082 L 11.9782,-31.1964 L 12.152,-31.5657 L 12.3707,-31.9103
 L 12.6308,-32.2248 L 12.9284,-32.5042 L 13.2586,-32.7441 L 13.6162,-32.9407 L 13.9957,-33.0909 L 14.391,-33.1924
 L 14.7959,-33.2436 L 15.2041,-33.2436 L 15.609,-33.1924 L 16.0043,-33.0909 L 16.3838,-32.9407 L 16.7414,-32.7441
 L 17.0716,-32.5042 L 17.3691,-32.2248 L 17.6293,-31.9103 L 17.848,-31.5657 L 18.0218,-31.1964 L 18.1479,-30.8082
 L 18.2244,-30.4073 L 18.25,-30 L 18.2244,-29.5927 L 18.1479,-29.1918 L 18.0218,-28.8036 L 17.848,-28.4343
 L 17.6293,-28.0897 L 17.3691,-27.7752 L 17.0716,-27.4958 L 16.7414,-27.2559 L 16.3838,-27.0593 L 16.0043,-26.9091
 L 15.609,-26.8076 L 15.2041,-26.7564 z
M 59.7959,-26.7564 L 59.391,-26.8076 L 58.9957,-26.9091 L 58.6162,-27.0593 L 58.2586,-27.2559 L 57.9284,-27.4958
 L 57.6308,-27.7752 L 57.3707,-28.0897 L 57.152,-28.4343 L 56.9782,-28.8036 L 56.8521,-29.1918 L 56.7756,-29.5927
 L 56.75,-30 L 56.7756,-30.4073 L 56.8521,-30.8082 L 56.9782,-31.1964 L 57.152,-31.5657 L 57.3707,-31.9103
 L 57.6308,-32.2248 L 57.9284,-32.5042 L 58.2586,-32.7441 L 58.6162,-32.9407 L 58.9957,-33.0909 L 59.391,-33.1924
 L 59.7959,-33.2436 L 60.2041,-33.2436 L 60.609,-33.1924 L 61.0043,-33.0909 L 61.3838,-32.9407 L 61.7414,-32.7441
 L 62.0716,-32.5042 L 62.3691,-32.2248 L 62.6293,-31.9103 L 62.848,-31.5657 L 63.0218,-31.1964 L 63.1479,-30.8082
 L 63.2244,-30.4073 L 63.25,-30 L 63.2244,-29.5927 L 63.1479,-29.1918 L 63.0218,-28.8036 L 62.848,-28.4343
 L 62.6293,-28.0897 L 62.3691,-27.7752 L 62.0716,-27.4958 L 61.7414,-27.2559 L 61.3838,-27.0593 L 61.0043,-26.9091
 L 60.609,-26.8076 L 60.2041,-26.7564 z
M 89.7959,-11.7564 L 89.391,-11.8076 L 88.9957,-11.9091 L 88.6162,-12.0593 L 88.2586,-12.2559 L 87.9284,-12.4958
 L 87.6308,-12.7752 L 87.3707,-13.0897 L 87.152,-13.4343 L 86.9782,-13.8036 L 86.8521,-14.1918 L 86.7756,-14.5927
 L 86.75,-15 L 86.7756,-15.4073 L 86.8521,-15.8082 L 86.9782,-16.1964 L 87.152,-16.5657 L 87.3707,-16.9103
 L 87.6308,-17.2248 L 87.9284,-17.5042 L 88.2586,-17.7441 L 88.6162,-17.9407 L 88.9957,-18.0909 L 89.391,-18.1924
 L 89.7959,-18.2436 L 90.2041,-18.2436 L 90.609,-18.1924 L 91.0043,-18.0909 L 91.3838,-17.9407 L 91.7414,-17.7441
 L 92.0716,-17.5042 L 92.3691,-17.2248 L 92.6293,-16.9103 L 92.848,-16.5657 L 93.0218,-16.1964 L 93.1479,-15.8082
 L 93.2244,-15.4073 L 93.25,-15 L 93.2244,-14.5927 L 93.1479,-14.1918 L 93.0218,-13.8036 L 92.848,-13.4343
 L 92.6293,-13.0897 L 92.3691,-12.7752 L 92.0716,-12.4958 L 91.7414,-12.2559 L 91.3838,-12.0593 L 91.0043,-11.9091
 L 90.609,-11.8076 L 90.2041,-11.7564 z
M 29.7959,-11.7564 L 29.391,-11.8076 L 28.9957,-11.9091 L 28.6162,-12.0593 L 28.2586,-12.2559 L 27.9284,-12.4958
 L 27.6308,-12.7752 L 27.3707,-13.0897 L 27.152,-13.4343 L 26.9782,-13.8036 L 26.8521,-14.1918 L 26.7756,-14.5927
 L 26.75,-15 L 26.7756,-15.4073 L 26.8521,-15.8082 L 26.9782,-16.1964 L 27.152,-16.5657 L 27.3707,-16.9103
 L 27.6308,-17.2248 L 27.9284,-17.5042 L 28.2586,-17.7441 L 28.6162,-17.9407 L 28.9957,-18.0909 L 29.391,-18.1924
 L 29.7959,-18.2436 L 30.2041,-18.2436 L 30.609,-18.1924 L 31.0043,-18.0909 L 31.3838,-17.9407 L 31.7414,-17.7441
 L 32.0716,-17.5042 L 32.3691,-17.2248 L 32.6293,-16.9103 L 32.848,-16.5657 L 33.0218,-16.1964 L 33.1479,-15.8082
 L 33.2244,-15.4073 L 33.25,-15 L 33.2244,-14.5927 L 33.1479,-14.1918 L 33.0218,-13.8036 L 32.848,-13.4343
 L 32.6293,-13.0897 L 32.3691,-12.7752 L 32.0716,-12.4958 L 31.7414,-12.2559 L 31.3838,-12.0593 L 31.0043,-11.9091
 L 30.609,-11.8076 L 30.2041,-11.7564 z
M 74.7959,-11.7564 L 74.391,-11.8076 L 73.9957,-11.9091 L 73.6162,-12.0593 L 73.2586,-12.2559 L 72.9284,-12.4958
 L 72.6308,-12.7752 L 72.3707,-13.0897 L 72.152,-13.4343 L 71.9782,-13.8036 L 71.8521,-14.1918 L 71.7756,-14.5927
 L 71.75,-15 L 71.7756,-15.4073 L 71.8521,-15.8082 L 71.9782,-16.1964 L 72.152,-16.5657 L 72.3707,-16.9103
 L 72.6308,-17.2248 L 72.9284,-17.5042 L 73.2586,-17.7441 L 73.6162,-17.9407 L 73.9957,-18.0909 L 74.391,-18.1924
 L 74.7959,-18.2436 L 75.2041,-18.2436 L 75.609,-18.1924 L 76.0043,-18.0909 L 76.3838,-17.9407 L 76.7414,-17.7441
 L 77.0716,-17.5042 L 77.3691,-17.2248 L 77.6293,-16.9103 L 77.848,-16.5657 L 78.0218,-16.1964 L 78.1479,-15.8082
 L 78.2244,-15.4073 L 78.25,-15 L 78.2244,-14.5927 L 78.1479,-14.1918 L 78.0218,-13.8036 L 77.848,-13.4343
 L 77.6293,-13.0897 L 77.3691,-12.7752 L 77.0716,-12.4958 L 76.7414,-12.2559 L 76.3838,-12.0593 L 76.0043,-11.9091
 L 75.609,-11.8076 L 75.2041,-11.7564 z
M 14.7959,-11.7564 L 14.391,-11.8076 L 13.9957,-11.9091 L 13.6162,-12.0593 L 13.2586,-12.2559 L 12.9284,-12.4958
 L 12.6308,-12.7752 L 12.3707,-13.0897 L 12.152,-13.4343 L 11.9782,-13.8036 L 11.8521,-14.1918 L 11.7756,-14.5927
 L 11.75,-15 L 11.7756,-15.4073 L 11.8521,-15.8082 L 11.9782,-16.1964 L 12.152,-16.5657 L 12.3707,-16.9103
 L 12.6308,-17.2248 L 12.9284,-17.5042 L 13.2586,-17.7441 L 13.6162,-17.9407 L 13.9957,-18.0909 L 14.391,-18.1924
 L 14.7959,-18.2436 L 15.2041,-18.2436 L 15.609,-18.1924 L 16.0043,-18.0909 L 16.3838,-17.9407 L 16.7414,-17.7441
 L 17.0716,-17.5042 L 17.3691,-17.2248 L 17.6293,-16.9103 L 17.848,-16.5657 L 18.0218,-16.1964 L 18.1479,-15.8082
 L 18.2244,-15.4073 L 18.25,-15 L 18.2244,-14.5927 L 18.1479,-14.1918 L 18.0218,-13.8036 L 17.848,-13.4343
 L 17.6293,-13.0897 L 17.3691,-12.7752 L 17.0716,-12.4958 L 16.7414,-12.2559 L 16.3838,-12.0593 L 16.0043,-11.9091
 L 15.609,-11.8076 L 15.2041,-11.7564 z
M 59.7959,-11.7564 L 59.391,-11.8076 L 58.9957,-11.9091 L 58.6162,-12.0593 L 58.2586,-12.2559 L 57.9284,-12.4958
 L 57.6308,-12.7752 L 57.3707,-13.0897 L 57.152,-13.4343 L 56.9782,-13.8036 L 56.8521,-14.1918 L 56.7756,-14.5927
 L 56.75,-15 L 56.7756,-15.4073 L 56.8521,-15.8082 L 56.9782,-16.1964 L 57.152,-16.5657 L 57.3707,-16.9103
 L 57.6308,-17.2248 L 57.9284,-17.5042 L 58.2586,-17.7441 L 58.6162,-17.9407 L 58.9957,-18.0909 L 59.391,-18.1924
 L 59.7959,-18.2436 L 60.2041,-18.2436 L 60.609,-18.1924 L 61.0043,-18.0909 L 61.3838,-17.9407 L 61.7414,-17.7441
 L 62.0716,-17.5042 L 62.3691,-17.2248 L 62.6293,-16.9103 L 62.848,-16.5657 L 63.0218,-16.1964 L 63.1479,-15.8082
 L 63.2244,-15.4073 L 63.25,-15 L 63.2244,-14.5927 L 63.1479,-14.1918 L 63.0218,-13.8036 L 62.848,-13.4343
 L 62.6293,-13.0897 L 62.3691,-12.7752 L 62.0716,-12.4958 L 61.7414,-12.2559 L 61.3838,-12.0593 L 61.0043,-11.9091
 L 60.609,-11.8076 L 60.2041,-11.7564 z
M 44.7959,-11.7564 L 44.391,-11.8076 L 43.9957,-11.9091 L 43.6162,-12.0593 L 43.2586,-12.2559 L 42.9284,-12.4958
 L 42.6308,-12.7752 L 42.3707,-13.0897 L 42.152,-13.4343 L 41.9782,-13.8036 L 41.8521,-14.1918 L 41.7756,-14.5927
 L 41.75,-15 L 41.7756,-15.4073 L 41.8521,-15.8082 L 41.9782,-16.1964 L 42.152,-16.5657 L 42.3707,-16.9103
 L 42.6308,-17.2248 L 42.9284,-17.5042 L 43.2586,-17.7441 L 43.6162,-17.9407 L 43.9957,-18.0909 L 44.391,-18.1924
 L 44.7959,-18.2436 L 45.2041,-18.2436 L 45.609,-18.1924 L 46.0043,-18.0909 L 46.3838,-17.9407 L 46.7414,-17.7441
 L 47.0716,-17.5042 L 47.3691,-17.2248 L 47.6293,-16.9103 L 47.848,-16.5657 L 48.0218,-16.1964 L 48.1479,-15.8082
 L 48.2244,-15.4073 L 48.25,-15 L 48.2244,-14.5927 L 48.1479,-14.1918 L 48.0218,-13.8036 L 47.848,-13.4343
 L 47.6293,-13.0897 L 47.3691,-12.7752 L 47.0716,-12.4958 L 46.7414,-12.2559 L 46.3838,-12.0593 L 46.0043,-11.9091
 L 45.609,-11.8076 L 45.2041,-11.7564 z
" stroke="black" fill="lightgray" stroke-width="0.5"/>
</svg>
