<?xml version="1.0" standalone="no"?>
<!DOCTYPE svg PUBLIC "-//W3C//DTD SVG 1.1//EN" "http://www.w3.org/Graphics/SVG/1.1/DTD/svg11.dtd">
<svg width="72mm" height="12mm" viewBox="-36 -6 72 12" xmlns="http://www.w3.org/2000/svg" version="1.1">
<title>OpenSCAD Model</title>
<path d="
M 31.3139,5.99013 L 31.6267,5.96057 L 31.9369,5.91144 L 32.2435,5.84291 L 32.5451,5.75528 L 32.8406,5.64888
 L 33.1289,5.52414 L 33.4088,5.38153 L 33.6791,5.22163 L 33.9389,5.04509 L 34.1871,4.85257 L 34.4227,4.64484
 L 34.6448,4.42273 L 34.8526,4.18712 L 35.0451,3.93892 L 35.2216,3.67914 L 35.3815,3.40877 L 35.5241,3.12889
 L 35.6489,2.84062 L 35.7553,2.54509 L 35.8429,2.24345 L 35.9114,1.9369 L 35.9606,1.62666 L 35.9901,1.31395
 L 36,1 L 36,-1 L 35.9901,-1.31395 L 35.9606,-1.62666 L 35.9114,-1.9369 L 35.8429,-2.24345
 L 35.7553,-2.54509 L 35.6489,-2.84062 L 35.5241,-3.12889 L 35.3815,-3.40877 L 35.2216,-3.67914 L 35.0451,-3.93892
 L 34.8526,-4.18712 L 34.6448,-4.42273 L 34.4227,-4.64484 L 34.1871,-4.85257 L 33.9389,-5.04509 L 33.6791,-5.22163
 L 33.4088,-5.38153 L 33.1289,-5.52414 L 32.8406,-5.64888 L 32.5451,-5.75528 L 32.2435,-5.84291 L 31.9369,-5.91144
 L 31.6267,-5.96057 L 31.3139,-5.99013 L 31,-6 L -31,-6 L -31.3139,-5.99013 L -31.6267,-5.96057
 L -31.9369,-5.91144 L -32.2435,-5.84291 L -32.5451,-5.75528 L -32.8406,-5.64888 L -33.1289,-5.52414 L -33.4088,-5.38153
 L -33.6791,-5.22163 L -33.9389,-5.04509 L -34.1871,-4.85257 L -34.4227,-4.64484 L -34.6448,-4.42273 L -34.8526,-4.18712
 L -35.0451,-3.93892 L -35.2216,-3.67914 L -35.3815,-3.40877 L -35.5241,-3.12889 L -35.6489,-2.84062 L -35.7553,-2.54509
 L -35.8429,-2.24345 L -35.9114,-1.9369 L -35.9606,-1.62666 L -35.9901,-1.31395 L -36,-1 L -36,1
 L -35.9901,1.31395 L -35.9606,1.62666 L -35.9114,1.9369 L -35.8429,2.24345 L -35.7553,2.54509 L -35.6489,2.84062
 L -35.5241,3.12889 L -35.3815,3.40877 L -35.2216,3.67914 L -35.0451,3.93892 L -34.8526,4.18712 L -34.6448,4.42273
 L -34.4227,4.64484 L -34.1871,4.85257 L -33.9389,5.04509 L -33.6791,5.22163 L -33.4088,5.38153 L -33.1289,5.52414
 L -32.8406,5.64888 L -32.5451,5.75528 L -32.2435,5.84291 L -31.9369,5.91144 L -31.6267,5.96057 L -31.3139,5.99013
 L -31,6 L 31,6 z
M -30.1884,2.99408 L -30.376,2.97633 L -30.5621,2.94685 L -30.7461,2.90575 L -30.927,2.85316 L -31.1044,2.78932
 L -31.2773,2.71448 L -31.4453,2.62891 L -31.6075,2.53297 L -31.7634,2.42705 L -31.9123,2.31154 L -32.0536,2.1869
 L -32.1869,2.05363 L -32.3115,1.91226 L -32.427,1.76335 L -32.533,1.60747 L -32.6289,1.44525 L -32.7145,1.27733
 L -32.7893,1.10437 L -32.8532,0.927048 L -32.9057,0.746063 L -32.9469,0.562134 L -32.9763,0.375992 L -32.9941,0.18837
 L -33,-0 L -32.9941,-0.18837 L -32.9763,-0.375992 L -32.9469,-0.562134 L -32.9057,-0.746063 L -32.8532,-0.927048
 L -32.7893,-1.10437 L -32.7145,-1.27733 L -32.6289,-1.44525 L -32.533,-1.60747 L -32.427,-1.76335 L -32.3115,-1.91226
 L -32.1869,-2.05363 L -32.0536,-2.1869 L -31.9123,-2.31154 L -31.7634,-2.42705 L -31.6075,-2.53297 L -31.4453,-2.62891
 L -31.2773,-2.71448 L -31.1044,-2.78932 L -30.927,-2.85316 L -30.7461,-2.90575 L -30.5621,-2.94685 L -30.376,-2.97633
 L -30.1884,-2.99408 L -30,-3 L -29.8116,-2.99408 L -29.624,-2.97633 L -29.4379,-2.94685 L -29.2539,-2.90575
 L -29.0729,-2.85316 L -28.8956,-2.78932 L -28.7227,-2.71448 L -28.5547,-2.62891 L -28.3925,-2.53297 L -28.2366,-2.42705
 L -28.0877,-2.31154 L -27.9464,-2.1869 L -27.8131,-2.05363 L -27.6884,-1.91226 L -27.5729,-1.76335 L -27.467,-1.60747
 L -27.3711,-1.44525 L -27.2855,-1.27733 L -27.2107,-1.10437 L -27.1468,-0.927048 L -27.0942,-0.746063 L -27.0531,-0.562134
 L -27.0237,-0.375992 L -27.0059,-0.18837 L -27,-0 L -27.0059,0.18837 L -27.0237,0.375992 L -27.0531,0.562134
 L -27.0942,0.746063 L -27.1468,0.927048 L -27.2107,1.10437 L -27.2855,1.27733 L -27.3711,1.44525 L -27.467,1.60747
 L -27.5729,1.76335 L -27.6884,1.91226 L -27.8131,2.05363 L -27.9464,2.1869 L -28.0877,2.31154 L -28.2366,2.42705
 L -28.3925,2.53297 L -28.5547,2.62891 L -28.7227,2.71448 L -28.8956,2.78932 L -29.0729,2.85316 L -29.2539,2.90575
 L -29.4379,2.94685 L -29.624,2.97633 L -29.8116,2.99408 L -30,3 z
M -15.1884,2.99408 L -15.376,2.97633 L -15.5621,2.94685 L -15.7461,2.90575 L -15.927,2.85316 L -16.1044,2.78932
 L -16.2773,2.71448 L -16.4453,2.62891 L -16.6075,2.53297 L -16.7634,2.42705 L -16.9123,2.31154 L -17.0536,2.1869
 L -17.1869,2.05363 L -17.3115,1.91226 L -17.427,1.76335 L -17.533,1.60747 L -17.6289,1.44525 L -17.7145,1.27733
 L -17.7893,1.10437 L -17.8532,0.927048 L -17.9057,0.746063 L -17.9469,0.562134 L -17.9763,0.375992 L -17.9941,0.18837
 L -18,-0 L -17.9941,-0.18837 L -17.9763,-0.375992 L -17.9469,-0.562134 L -17.9057,-0.746063 L -17.8532,-0.927048
 L -17.7893,-1.10437 L -17.7145,-1.27733 L -17.6289,-1.44525 L -17.533,-1.60747 L -17.427,-1.76335 L -17.3115,-1.91226
 L -17.1869,-2.05363 L -17.0536,-2.1869 L -16.9123,-2.31154 L -16.7634,-2.42705 L -16.6075,-2.53297 L -16.4453,-2.62891
 L -16.2773,-2.71448 L -16.1044,-2.78932 L -15.927,-2.85316 L -15.7461,-2.90575 L -15.5621,-2.94685 L -15.376,-2.97633
 L -15.1884,-2.99408 L -15,-3 L -14.8116,-2.99408 L -14.624,-2.97633 L -14.4379,-2.94685 L -14.2539,-2.90575
 L -14.0729,-2.85316 L -13.8956,-2.78932 L -13.7227,-2.71448 L -13.5547,-2.62891 L -13.3925,-2.53297 L -13.2366,-2.42705
 L -13.0877,-2.31154 L -12.9464,-2.1869 L -12.8131,-2.05363 L -12.6884,-1.91226 L -12.5729,-1.76335 L -12.467,-1.60747
 L -12.3711,-1.44525 L -12.2855,-1.27733 L -12.2107,-1.10437 L -12.1468,-0.927048 L -12.0942,-0.746063 L -12.0531,-0.562134
 L -12.0237,-0.375992 L -12.0059,-0.18837 L -12,-0 L -12.0059,0.18837 L -12.0237,0.375992 L -12.0531,0.562134
 L -12.0942,0.746063 L -12.1468,0.927048 L -12.2107,1.10437 L -12.2855,1.27733 L -12.3711,1.44525 L -12.467,1.60747
 L -12.5729,1.76335 L -12.6884,1.91226 L -12.8131,2.05363 L -12.9464,2.1869 L -13.0877,2.31154 L -13.2366,2.42705
 L -13.3925,2.53297 L -13.5547,2.62891 L -13.7227,2.71448 L -13.8956,2.78932 L -14.0729,2.85316 L -14.2539,2.90575
 L -14.4379,2.94685 L -14.624,2.97633 L -14.8116,2.99408 L -15,3 z
M 14.8116,2.99408 L 14.624,2.97633 L 14.4379,2.94685 L 14.2539,2.90575 L 14.0729,2.85316 L 13.8956,2.78932
 L 13.7227,2.71448 L 13.5547,2.62891 L 13.3925,2.53297 L 13.2366,2.42705 L 13.0877,2.31154 L 12.9464,2.1869
 L 12.8131,2.05363 L 12.6884,1.91226 L 12.5729,1.76335 L 12.467,1.60747 L 12.3711,1.44525 L 12.2855,1.27733
 L 12.2107,1.10437 L 12.1468,0.927048 L 12.0942,0.746063 L 12.0531,0.562134 L 12.0237,0.375992 L 12.0059,0.18837
 L 12,-0 L 12.0059,-0.18837 L 12.0237,-0.375992 L 12.0531,-0.562134 L 12.0942,-0.746063 L 12.1468,-0.927048
 L 12.2107,-1.10437 L 12.2855,-1.27733 L 12.3711,-1.44525 L 12.467,-1.60747 L 12.5729,-1.76335 L 12.6884,-1.91226
 L 12.8131,-2.05363 L 12.9464,-2.1869 L 13.0877,-2.31154 L 13.2366,-2.42705 L 13.3925,-2.53297 L 13.5547,-2.62891
 L 13.7227,-2.71448 L 13.8956,-2.78932 L 14.0729,-2.85316 L 14.2539,-2.90575 L 14.4379,-2.94685 L 14.624,-2.97633
 L 14.8116,-2.99408 L 15,-3 L 15.1884,-2.99408 L 15.376,-2.97633 L 15.5621,-2.94685 L 15.7461,-2.90575
 L 15.927,-2.85316 L 16.1044,-2.78932 L 16.2773,-2.71448 L 16.4453,-2.62891 L 16.6075,-2.53297 L 16.7634,-2.42705
 L 16.9123,-2.31154 L 17.0536,-2.1869 L 17.1869,-2.05363 L 17.3115,-1.91226 L 17.427,-1.76335 L 17.533,-1.60747
 L 17.6289,-1.44525 L 17.7145,-1.27733 L 17.7893,-1.10437 L 17.8532,-0.927048 L 17.9057,-0.746063 L 17.9469,-0.562134
 L 17.9763,-0.375992 L 17.9941,-0.18837 L 18,-0 L 17.9941,0.18837 L 17.9763,0.375992 L 17.9469,0.562134
 L 17.9057,0.746063 L 17.8532,0.927048 L 17.7893,1.10437 L 17.7145,1.27733 L 17.6289,1.44525 L 17.533,1.60747
 L 17.427,1.76335 L 17.3115,1.91226 L 17.1869,2.05363 L 17.0536,2.1869 L 16.9123,2.31154 L 16.7634,2.42705
 L 16.6075,2.53297 L 16.4453,2.62891 L 16.2773,2.71448 L 16.1044,2.78932 L 15.927,2.85316 L 15.7461,2.90575
 L 15.5621,2.94685 L 15.376,2.97633 L 15.1884,2.99408 L 15,3 z
M 29.8116,2.99408 L 29.624,2.97633 L 29.4379,2.94685 L 29.2539,2.90575 L 29.0729,2.85316 L 28.8956,2.78932
 L 28.7227,2.71448 L 28.5547,2.62891 L 28.3925,2.53297 L 28.2366,2.42705 L 28.0877,2.31154 L 27.9464,2.1869
 L 27.8131,2.05363 L 27.6884,1.91226 L 27.5729,1.76335 L 27.467,1.60747 L 27.3711,1.44525 L 27.2855,1.27733
 L 27.2107,1.10437 L 27.1468,0.927048 L 27.0942,0.746063 L 27.0531,0.562134 L 27.0237,0.375992 L 27.0059,0.18837
 L 27,-0 L 27.0059,-0.18837 L 27.0237,-0.375992 L 27.0531,-0.562134 L 27.0942,-0.746063 L 27.1468,-0.927048
 L 27.2107,-1.10437 L 27.2855,-1.27733 L 27.3711,-1.44525 L 27.467,-1.60747 L 27.5729,-1.76335 L 27.6884,-1.91226
 L 27.8131,-2.05363 L 27.9464,-2.1869 L 28.0877,-2.31154 L 28.2366,-2.42705 L 28.3925,-2.53297 L 28.5547,-2.62891
 L 28.7227,-2.71448 L 28.8956,-2.78932 L 29.0729,-2.85316 L 29.2539,-2.90575 L 29.4379,-2.94685 L 29.624,-2.97633
 L 29.8116,-2.99408 L 30,-3 L 30.1884,-2.99408 L 30.376,-2.97633 L 30.5621,-2.94685 L 30.7461,-2.90575
 L 30.927,-2.85316 L 31.1044,-2.78932 L 31.2773,-2.71448 L 31.4453,-2.62891 L 31.6075,-2.53297 L 31.7634,-2.42705
 L 31.9123,-2.31154 L 32.0536,-2.1869 L 32.1869,-2.05363 L 32.3115,-1.91226 L 32.427,-1.76335 L 32.533,-1.60747
 L 32.6289,-1.44525 L 32.7145,-1.27733 L 32.7893,-1.10437 L 32.8532,-0.927048 L 32.9057,-0.746063 L 32.9469,-0.562134
 L 32.9763,-0.375992 L 32.9941,-0.18837 L 33,-0 L 32.9941,0.18837 L 32.9763,0.375992 L 32.9469,0.562134
 L 32.9057,0.746063 L 32.8532,0.927048 L 32.7893,1.10437 L 32.7145,1.27733 L 32.6289,1.44525 L 32.533,1.60747
 L 32.427,1.76335 L 32.3115,1.91226 L 32.1869,2.05363 L 32.0536,2.1869 L 31.9123,2.31154 L 31.7634,2.42705
 L 31.6075,2.53297 L 31.4453,2.62891 L 31.2773,2.71448 L 31.1044,2.78932 L 30.927,2.85316 L 30.7461,2.90575
 L 30.5621,2.94685 L 30.376,2.97633 L 30.1884,2.99408 L 30,3 z
M -0.18837,2.99408 L -0.375992,2.97633 L -0.562134,2.94685 L -0.746063,2.90575 L -0.927048,2.85316 L -1.10437,2.78932
 L -1.27733,2.71448 L -1.44525,2.62891 L -1.60747,2.53297 L -1.76335,2.42705 L -1.91226,2.31154 L -2.05363,2.1869
 L -2.1869,2.05363 L -2.31154,1.91226 L -2.42705,1.76335 L -2.53297,1.60747 L -2.62891,1.44525 L -2.71448,1.27733
 L -2.78932,1.10437 L -2.85316,0.927048 L -2.90575,0.746063 L -2.94685,0.562134 L -2.97633,0.375992 L -2.99408,0.18837
 L -3,-0 L -2.99408,-0.18837 L -2.97633,-0.375992 L -2.94685,-0.562134 L -2.90575,-0.746063 L -2.85316,-0.927048
 L -2.78932,-1.10437 L -2.71448,-1.27733 L -2.62891,-1.44525 L -2.53297,-1.60747 L -2.42705,-1.76335 L -2.31154,-1.91226
 L -2.1869,-2.05363 L -2.05363,-2.1869 L -1.91226,-2.31154 L -1.76335,-2.42705 L -1.60747,-2.53297 L -1.44525,-2.62891
 L -1.27733,-2.71448 L -1.10437,-2.78932 L -0.927048,-2.85316 L -0.746063,-2.90575 L -0.562134,-2.94685 L -0.375992,-2.97633
 L -0.18837,-2.99408 L 0,-3 L 0.18837,-2.99408 L 0.375992,-2.97633 L 0.562134,-2.94685 L 0.746063,-2.90575
 L 0.927048,-2.85316 L 1.10437,-2.78932 L 1.27733,-2.71448 L 1.44525,-2.62891 L 1.60747,-2.53297 L 1.76335,-2.42705
 L 1.91226,-2.31154 L 2.05363,-2.1869 L 2.1869,-2.05363 L 2.31154,-1.91226 L 2.42705,-1.76335 L 2.53297,-1.60747
 L 2.62891,-1.44525 L 2.71448,-1.27733 L 2.78932,-1.10437 L 2.85316,-0.927048 L 2.90575,-0.746063 L 2.94685,-0.562134
 L 2.97633,-0.375992 L 2.99408,-0.18837 L 3,-0 L 2.99408,0.18837 L 2.97633,0.375992 L 2.94685,0.562134
 L 2.90575,0.746063 L 2.85316,0.927048 L 2.78932,1.10437 L 2.71448,1.27733 L 2.62891,1.44525 L 2.53297,1.60747
 L 2.42705,1.76335 L 2.31154,1.91226 L 2.1869,2.05363 L 2.05363,2.1869 L 1.91226,2.31154 L 1.76335,2.42705
 L 1.60747,2.53297 L 1.44525,2.62891 L 1.27733,2.71448 L 1.10437,2.78932 L 0.927048,2.85316 L 0.746063,2.90575
 L 0.562134,2.94685 L 0.375992,2.97633 L 0.18837,2.99408 L 0,3 z
" stroke="black" fill="lightgray" stroke-width="0.5"/>
</svg>
