<?xml version="1.0" encoding="UTF-8"?>
<!DOCTYPE svg PUBLIC "-//W3C//DTD SVG 1.1//EN" "http://www.w3.org/Graphics/SVG/1.1/DTD/svg11.dtd">
<!-- Creator: CorelDRAW -->
<svg xmlns="http://www.w3.org/2000/svg" xml:space="preserve" width="210mm" height="297mm" style="shape-rendering:geometricPrecision; text-rendering:geometricPrecision; image-rendering:optimizeQuality; fill-rule:evenodd; clip-rule:evenodd"
viewBox="0 0 210 297"
 xmlns:xlink="http://www.w3.org/1999/xlink">
 <defs>
  <style type="text/css">
   <![CDATA[
    .str0 {stroke:#1F1A17;stroke-width:0.5644;stroke-linecap:round;stroke-linejoin:round}
    .fil0 {fill:none}
   ]]>
  </style>
 </defs>
 <g id="Layer_x0020_1">
  <metadata id="CorelCorpID_0Corel-Layer"/>
  <path class="fil0 str0" d="M-13.0003 295.5l0.402 0c0.2633,-0.4552 0.6429,-0.8345 1.098,-1.0978l0 -0.4022 3 0 0 0.4019c0.4553,0.2633 0.8352,0.6428 1.0988,1.0981l0.4012 0 0 1.4542 0.0006 0.0465 -0.0006 0.0464 0 1.4529 -0.4007 0c-0.2635,0.4557 -0.6435,0.8358 -1.0993,1.0994l0 0.4006 -1.4328 0 -0.0667 0.0008 -0.0668 -0.0008 -1.4337 0 0 -0.401c-0.4554,-0.2636 -0.8352,-0.6435 -1.0985,-1.099l-0.4015 0 0 -3zm-3.4985 1.4994c0.0921,3.6816 2.967,6.5001 6.4988,6.5001 3.5892,0 6.5,-2.9108 6.5,-6.4991 0,-1.9327 1.5673,-3.5 3.499,-3.501 3.6816,-0.0921 6.5001,-2.967 6.5001,-6.4988 0,-3.5892 -2.9108,-6.5 -6.4991,-6.5001 -9.1111,-0.0001 -16.5,7.3888 -16.4988,16.4989zm13.4985 -11.4994l0.402 0c0.2633,-0.4552 0.6429,-0.8345 1.098,-1.0978l0 -0.4022 3 0 0 0.4019c0.4553,0.2633 0.8352,0.6428 1.0988,1.0981l0.4012 0 0 1.4542 0.0006 0.0465 -0.0006 0.0464 0 1.4529 -0.4007 0c-0.2635,0.4557 -0.6435,0.8358 -1.0993,1.0994l0 0.4006 -1.4328 0 -0.0667 0.0008 -0.0668 -0.0008 -1.4337 0 0 -0.401c-0.4554,-0.2636 -0.8352,-0.6435 -1.0985,-1.099l-0.4015 0 0 -3z"/>
 </g>
</svg>
