<?xml version="1.0" standalone="no"?>
<!DOCTYPE svg PUBLIC "-//W3C//DTD SVG 1.1//EN" "http://www.w3.org/Graphics/SVG/1.1/DTD/svg11.dtd">
<svg width="222mm" height="222mm" viewBox="9 -231 222 222" xmlns="http://www.w3.org/2000/svg" version="1.1">
<title>OpenSCAD Model</title>
<path d="
M 226,-9.02962 L 226.314,-9.00986 L 227.545,-9.24471 L 228.679,-9.77835 L 229.645,-10.5773 L 230.382,-11.5912
 L 230.843,-12.7565 L 231,-14 L 231,-226 L 230.843,-227.243 L 230.382,-228.409 L 229.645,-229.423
 L 228.679,-230.222 L 227.545,-230.755 L 226.314,-230.99 L 226,-230.97 L 226,-231 L 14,-231
 L 14,-230.97 L 13.0631,-230.911 L 11.8711,-230.524 L 10.8129,-229.853 L 9.95491,-228.939 L 9.3511,-227.841
 L 9.03941,-226.627 L 9.03941,-226 L 9,-226 L 9,-14 L 9.03941,-14 L 9.03941,-13.3733
 L 9.3511,-12.1594 L 9.95491,-11.0611 L 10.8129,-10.1474 L 11.8711,-9.47586 L 13.0631,-9.08856 L 14,-9.02962
 L 14,-9 L 226,-9 z
" stroke="black" fill="lightgray" stroke-width="0.5"/>
</svg>
