  0
SECTION
  2
BLOCKS
  0
ENDSEC
  0
SECTION
  2
ENTITIES
  0
LINE
  8
0
 10
226
 20
9.00986
 11
226.314
 21
9.00986
  0
LINE
  8
0
 10
226.314
 20
9.00986
 11
226.937
 21
9.08856
  0
LINE
  8
0
 10
226.937
 20
9.08856
 11
227.545
 21
9.24471
  0
LINE
  8
0
 10
227.545
 20
9.24471
 11
228.129
 21
9.47586
  0
LINE
  8
0
 10
228.129
 20
9.47586
 11
228.679
 21
9.77835
  0
LINE
  8
0
 10
228.679
 20
9.77835
 11
229.187
 21
10.1474
  0
LINE
  8
0
 10
229.187
 20
10.1474
 11
229.645
 21
10.5773
  0
LINE
  8
0
 10
229.645
 20
10.5773
 11
230.045
 21
11.0611
  0
LINE
  8
0
 10
230.045
 20
11.0611
 11
230.382
 21
11.5912
  0
LINE
  8
0
 10
230.382
 20
11.5912
 11
230.649
 21
12.1594
  0
LINE
  8
0
 10
230.649
 20
12.1594
 11
230.843
 21
12.7565
  0
LINE
  8
0
 10
230.843
 20
12.7565
 11
230.961
 21
13.3733
  0
LINE
  8
0
 10
230.961
 20
13.3733
 11
231
 21
14
  0
LINE
  8
0
 10
231
 20
14
 11
231
 21
226
  0
LINE
  8
0
 10
231
 20
226
 11
230.961
 21
226.627
  0
LINE
  8
0
 10
230.961
 20
226.627
 11
230.843
 21
227.243
  0
LINE
  8
0
 10
230.843
 20
227.243
 11
230.649
 21
227.841
  0
LINE
  8
0
 10
230.649
 20
227.841
 11
230.382
 21
228.409
  0
LINE
  8
0
 10
230.382
 20
228.409
 11
230.045
 21
228.939
  0
LINE
  8
0
 10
230.045
 20
228.939
 11
229.645
 21
229.423
  0
LINE
  8
0
 10
229.645
 20
229.423
 11
229.187
 21
229.853
  0
LINE
  8
0
 10
229.187
 20
229.853
 11
228.679
 21
230.222
  0
LINE
  8
0
 10
228.679
 20
230.222
 11
228.129
 21
230.524
  0
LINE
  8
0
 10
228.129
 20
230.524
 11
227.545
 21
230.755
  0
LINE
  8
0
 10
227.545
 20
230.755
 11
226.937
 21
230.911
  0
LINE
  8
0
 10
226.937
 20
230.911
 11
226.314
 21
230.99
  0
LINE
  8
0
 10
226.314
 20
230.99
 11
226
 21
230.99
  0
LINE
  8
0
 10
226
 20
230.99
 11
226
 21
231
  0
LINE
  8
0
 10
226
 20
231
 11
14
 21
231
  0
LINE
  8
0
 10
14
 20
231
 11
14
 21
230.99
  0
LINE
  8
0
 10
14
 20
230.99
 11
13.686
 21
230.99
  0
LINE
  8
0
 10
13.686
 20
230.99
 11
13.0631
 21
230.911
  0
LINE
  8
0
 10
13.0631
 20
230.911
 11
12.4549
 21
230.755
  0
LINE
  8
0
 10
12.4549
 20
230.755
 11
11.8711
 21
230.524
  0
LINE
  8
0
 10
11.8711
 20
230.524
 11
11.3209
 21
230.222
  0
LINE
  8
0
 10
11.3209
 20
230.222
 11
10.8129
 21
229.853
  0
LINE
  8
0
 10
10.8129
 20
229.853
 11
10.3551
 21
229.423
  0
LINE
  8
0
 10
10.3551
 20
229.423
 11
9.95491
 21
228.939
  0
LINE
  8
0
 10
9.95491
 20
228.939
 11
9.61845
 21
228.409
  0
LINE
  8
0
 10
9.61845
 20
228.409
 11
9.3511
 21
227.841
  0
LINE
  8
0
 10
9.3511
 20
227.841
 11
9.15707
 21
227.243
  0
LINE
  8
0
 10
9.15707
 20
227.243
 11
9.03941
 21
226.627
  0
LINE
  8
0
 10
9.03941
 20
226.627
 11
9
 21
226
  0
LINE
  8
0
 10
9
 20
226
 11
9
 21
14
  0
LINE
  8
0
 10
9
 20
14
 11
9.03941
 21
13.3733
  0
LINE
  8
0
 10
9.03941
 20
13.3733
 11
9.15707
 21
12.7565
  0
LINE
  8
0
 10
9.15707
 20
12.7565
 11
9.3511
 21
12.1594
  0
LINE
  8
0
 10
9.3511
 20
12.1594
 11
9.61845
 21
11.5912
  0
LINE
  8
0
 10
9.61845
 20
11.5912
 11
9.95491
 21
11.0611
  0
LINE
  8
0
 10
9.95491
 20
11.0611
 11
10.3551
 21
10.5773
  0
LINE
  8
0
 10
10.3551
 20
10.5773
 11
10.8129
 21
10.1474
  0
LINE
  8
0
 10
10.8129
 20
10.1474
 11
11.3209
 21
9.77835
  0
LINE
  8
0
 10
11.3209
 20
9.77835
 11
11.8711
 21
9.47586
  0
LINE
  8
0
 10
11.8711
 20
9.47586
 11
12.4549
 21
9.24471
  0
LINE
  8
0
 10
12.4549
 20
9.24471
 11
13.0631
 21
9.08856
  0
LINE
  8
0
 10
13.0631
 20
9.08856
 11
13.686
 21
9.00986
  0
LINE
  8
0
 10
13.686
 20
9.00986
 11
14
 21
9.00986
  0
LINE
  8
0
 10
14
 20
9.00986
 11
14
 21
9
  0
LINE
  8
0
 10
14
 20
9
 11
226
 21
9
  0
LINE
  8
0
 10
226
 20
9
 11
226
 21
9.00986
  0
ENDSEC
  0
SECTION
  2
OBJECTS
  0
DICTIONARY
  0
ENDSEC
  0
EOF
