  0
SECTION
  2
BLOCKS
  0
ENDSEC
  0
SECTION
  2
ENTITIES
  0
LINE
  8
0
 10
16.6576
 20
-31.4622
 11
17.2991
 21
-31.3346
  0
LINE
  8
0
 10
17.2991
 20
-31.3346
 11
17.9184
 21
-31.1244
  0
LINE
  8
0
 10
17.9184
 20
-31.1244
 11
18.505
 21
-30.8351
  0
LINE
  8
0
 10
18.505
 20
-30.8351
 11
19.0488
 21
-30.4718
  0
LINE
  8
0
 10
19.0488
 20
-30.4718
 11
19.5405
 21
-30.0405
  0
LINE
  8
0
 10
19.5405
 20
-30.0405
 11
19.9718
 21
-29.5488
  0
LINE
  8
0
 10
19.9718
 20
-29.5488
 11
20.3351
 21
-29.005
  0
LINE
  8
0
 10
20.3351
 20
-29.005
 11
20.6244
 21
-28.4184
  0
LINE
  8
0
 10
20.6244
 20
-28.4184
 11
20.8346
 21
-27.7991
  0
LINE
  8
0
 10
20.8346
 20
-27.7991
 11
20.9622
 21
-27.1576
  0
LINE
  8
0
 10
20.9622
 20
-27.1576
 11
21.005
 21
-26.505
  0
LINE
  8
0
 10
21.005
 20
-26.505
 11
21.005
 21
23.505
  0
LINE
  8
0
 10
21.005
 20
23.505
 11
20.9622
 21
24.1576
  0
LINE
  8
0
 10
20.9622
 20
24.1576
 11
20.8346
 21
24.7991
  0
LINE
  8
0
 10
20.8346
 20
24.7991
 11
20.6244
 21
25.4184
  0
LINE
  8
0
 10
20.6244
 20
25.4184
 11
20.3351
 21
26.005
  0
LINE
  8
0
 10
20.3351
 20
26.005
 11
19.9718
 21
26.5488
  0
LINE
  8
0
 10
19.9718
 20
26.5488
 11
19.5405
 21
27.0405
  0
LINE
  8
0
 10
19.5405
 20
27.0405
 11
19.0488
 21
27.4718
  0
LINE
  8
0
 10
19.0488
 20
27.4718
 11
18.505
 21
27.8351
  0
LINE
  8
0
 10
18.505
 20
27.8351
 11
17.9184
 21
28.1244
  0
LINE
  8
0
 10
17.9184
 20
28.1244
 11
17.2991
 21
28.3346
  0
LINE
  8
0
 10
17.2991
 20
28.3346
 11
16.6576
 21
28.4622
  0
LINE
  8
0
 10
16.6576
 20
28.4622
 11
16.005
 21
28.505
  0
LINE
  8
0
 10
16.005
 20
28.505
 11
-16.005
 21
28.505
  0
LINE
  8
0
 10
-16.005
 20
28.505
 11
-16.6576
 21
28.4622
  0
LINE
  8
0
 10
-16.6576
 20
28.4622
 11
-17.2991
 21
28.3346
  0
LINE
  8
0
 10
-17.2991
 20
28.3346
 11
-17.9184
 21
28.1244
  0
LINE
  8
0
 10
-17.9184
 20
28.1244
 11
-18.505
 21
27.8351
  0
LINE
  8
0
 10
-18.505
 20
27.8351
 11
-19.0488
 21
27.4718
  0
LINE
  8
0
 10
-19.0488
 20
27.4718
 11
-19.5405
 21
27.0405
  0
LINE
  8
0
 10
-19.5405
 20
27.0405
 11
-19.9718
 21
26.5488
  0
LINE
  8
0
 10
-19.9718
 20
26.5488
 11
-20.3351
 21
26.005
  0
LINE
  8
0
 10
-20.3351
 20
26.005
 11
-20.6244
 21
25.4184
  0
LINE
  8
0
 10
-20.6244
 20
25.4184
 11
-20.8346
 21
24.7991
  0
LINE
  8
0
 10
-20.8346
 20
24.7991
 11
-20.9622
 21
24.1576
  0
LINE
  8
0
 10
-20.9622
 20
24.1576
 11
-21.005
 21
23.505
  0
LINE
  8
0
 10
-21.005
 20
23.505
 11
-21.005
 21
-26.505
  0
LINE
  8
0
 10
-21.005
 20
-26.505
 11
-20.9622
 21
-27.1576
  0
LINE
  8
0
 10
-20.9622
 20
-27.1576
 11
-20.8346
 21
-27.7991
  0
LINE
  8
0
 10
-20.8346
 20
-27.7991
 11
-20.6244
 21
-28.4184
  0
LINE
  8
0
 10
-20.6244
 20
-28.4184
 11
-20.3351
 21
-29.005
  0
LINE
  8
0
 10
-20.3351
 20
-29.005
 11
-19.9718
 21
-29.5488
  0
LINE
  8
0
 10
-19.9718
 20
-29.5488
 11
-19.5405
 21
-30.0405
  0
LINE
  8
0
 10
-19.5405
 20
-30.0405
 11
-19.0488
 21
-30.4718
  0
LINE
  8
0
 10
-19.0488
 20
-30.4718
 11
-18.505
 21
-30.8351
  0
LINE
  8
0
 10
-18.505
 20
-30.8351
 11
-17.9184
 21
-31.1244
  0
LINE
  8
0
 10
-17.9184
 20
-31.1244
 11
-17.2991
 21
-31.3346
  0
LINE
  8
0
 10
-17.2991
 20
-31.3346
 11
-16.6576
 21
-31.4622
  0
LINE
  8
0
 10
-16.6576
 20
-31.4622
 11
-16.005
 21
-31.505
  0
LINE
  8
0
 10
-16.005
 20
-31.505
 11
16.005
 21
-31.505
  0
LINE
  8
0
 10
16.005
 20
-31.505
 11
16.6576
 21
-31.4622
  0
LINE
  8
0
 10
-15.3916
 20
19.5257
 11
-15.7764
 21
19.6022
  0
LINE
  8
0
 10
-15.7764
 20
19.6022
 11
-16.148
 21
19.7283
  0
LINE
  8
0
 10
-16.148
 20
19.7283
 11
-16.5
 21
19.9019
  0
LINE
  8
0
 10
-16.5
 20
19.9019
 11
-16.8263
 21
20.1199
  0
LINE
  8
0
 10
-16.8263
 20
20.1199
 11
-17.1213
 21
20.3787
  0
LINE
  8
0
 10
-17.1213
 20
20.3787
 11
-17.3801
 21
20.6737
  0
LINE
  8
0
 10
-17.3801
 20
20.6737
 11
-17.5981
 21
21
  0
LINE
  8
0
 10
-17.5981
 20
21
 11
-17.7716
 21
21.3519
  0
LINE
  8
0
 10
-17.7716
 20
21.3519
 11
-17.8978
 21
21.7235
  0
LINE
  8
0
 10
-17.8978
 20
21.7235
 11
-17.9743
 21
22.1084
  0
LINE
  8
0
 10
-17.9743
 20
22.1084
 11
-18
 21
22.5
  0
LINE
  8
0
 10
-18
 20
22.5
 11
-17.9743
 21
22.8916
  0
LINE
  8
0
 10
-17.9743
 20
22.8916
 11
-17.8978
 21
23.2764
  0
LINE
  8
0
 10
-17.8978
 20
23.2764
 11
-17.7716
 21
23.648
  0
LINE
  8
0
 10
-17.7716
 20
23.648
 11
-17.5981
 21
24
  0
LINE
  8
0
 10
-17.5981
 20
24
 11
-17.3801
 21
24.3263
  0
LINE
  8
0
 10
-17.3801
 20
24.3263
 11
-17.1213
 21
24.6213
  0
LINE
  8
0
 10
-17.1213
 20
24.6213
 11
-16.8263
 21
24.8801
  0
LINE
  8
0
 10
-16.8263
 20
24.8801
 11
-16.5
 21
25.0981
  0
LINE
  8
0
 10
-16.5
 20
25.0981
 11
-16.148
 21
25.2716
  0
LINE
  8
0
 10
-16.148
 20
25.2716
 11
-15.7764
 21
25.3978
  0
LINE
  8
0
 10
-15.7764
 20
25.3978
 11
-15.3916
 21
25.4743
  0
LINE
  8
0
 10
-15.3916
 20
25.4743
 11
-15
 21
25.5
  0
LINE
  8
0
 10
-15
 20
25.5
 11
-14.6084
 21
25.4743
  0
LINE
  8
0
 10
-14.6084
 20
25.4743
 11
-14.2235
 21
25.3978
  0
LINE
  8
0
 10
-14.2235
 20
25.3978
 11
-13.8519
 21
25.2716
  0
LINE
  8
0
 10
-13.8519
 20
25.2716
 11
-13.5
 21
25.0981
  0
LINE
  8
0
 10
-13.5
 20
25.0981
 11
-13.1737
 21
24.8801
  0
LINE
  8
0
 10
-13.1737
 20
24.8801
 11
-12.8787
 21
24.6213
  0
LINE
  8
0
 10
-12.8787
 20
24.6213
 11
-12.6199
 21
24.3263
  0
LINE
  8
0
 10
-12.6199
 20
24.3263
 11
-12.4019
 21
24
  0
LINE
  8
0
 10
-12.4019
 20
24
 11
-12.2283
 21
23.648
  0
LINE
  8
0
 10
-12.2283
 20
23.648
 11
-12.1022
 21
23.2764
  0
LINE
  8
0
 10
-12.1022
 20
23.2764
 11
-12.0257
 21
22.8916
  0
LINE
  8
0
 10
-12.0257
 20
22.8916
 11
-12
 21
22.5
  0
LINE
  8
0
 10
-12
 20
22.5
 11
-12.0257
 21
22.1084
  0
LINE
  8
0
 10
-12.0257
 20
22.1084
 11
-12.1022
 21
21.7235
  0
LINE
  8
0
 10
-12.1022
 20
21.7235
 11
-12.2283
 21
21.3519
  0
LINE
  8
0
 10
-12.2283
 20
21.3519
 11
-12.4019
 21
21
  0
LINE
  8
0
 10
-12.4019
 20
21
 11
-12.6199
 21
20.6737
  0
LINE
  8
0
 10
-12.6199
 20
20.6737
 11
-12.8787
 21
20.3787
  0
LINE
  8
0
 10
-12.8787
 20
20.3787
 11
-13.1737
 21
20.1199
  0
LINE
  8
0
 10
-13.1737
 20
20.1199
 11
-13.5
 21
19.9019
  0
LINE
  8
0
 10
-13.5
 20
19.9019
 11
-13.8519
 21
19.7283
  0
LINE
  8
0
 10
-13.8519
 20
19.7283
 11
-14.2235
 21
19.6022
  0
LINE
  8
0
 10
-14.2235
 20
19.6022
 11
-14.6084
 21
19.5257
  0
LINE
  8
0
 10
-14.6084
 20
19.5257
 11
-15
 21
19.5
  0
LINE
  8
0
 10
-15
 20
19.5
 11
-15.3916
 21
19.5257
  0
LINE
  8
0
 10
14.6084
 20
19.5257
 11
14.2235
 21
19.6022
  0
LINE
  8
0
 10
14.2235
 20
19.6022
 11
13.8519
 21
19.7283
  0
LINE
  8
0
 10
13.8519
 20
19.7283
 11
13.5
 21
19.9019
  0
LINE
  8
0
 10
13.5
 20
19.9019
 11
13.1737
 21
20.1199
  0
LINE
  8
0
 10
13.1737
 20
20.1199
 11
12.8787
 21
20.3787
  0
LINE
  8
0
 10
12.8787
 20
20.3787
 11
12.6199
 21
20.6737
  0
LINE
  8
0
 10
12.6199
 20
20.6737
 11
12.4019
 21
21
  0
LINE
  8
0
 10
12.4019
 20
21
 11
12.2283
 21
21.3519
  0
LINE
  8
0
 10
12.2283
 20
21.3519
 11
12.1022
 21
21.7235
  0
LINE
  8
0
 10
12.1022
 20
21.7235
 11
12.0257
 21
22.1084
  0
LINE
  8
0
 10
12.0257
 20
22.1084
 11
12
 21
22.5
  0
LINE
  8
0
 10
12
 20
22.5
 11
12.0257
 21
22.8916
  0
LINE
  8
0
 10
12.0257
 20
22.8916
 11
12.1022
 21
23.2764
  0
LINE
  8
0
 10
12.1022
 20
23.2764
 11
12.2283
 21
23.648
  0
LINE
  8
0
 10
12.2283
 20
23.648
 11
12.4019
 21
24
  0
LINE
  8
0
 10
12.4019
 20
24
 11
12.6199
 21
24.3263
  0
LINE
  8
0
 10
12.6199
 20
24.3263
 11
12.8787
 21
24.6213
  0
LINE
  8
0
 10
12.8787
 20
24.6213
 11
13.1737
 21
24.8801
  0
LINE
  8
0
 10
13.1737
 20
24.8801
 11
13.5
 21
25.0981
  0
LINE
  8
0
 10
13.5
 20
25.0981
 11
13.8519
 21
25.2716
  0
LINE
  8
0
 10
13.8519
 20
25.2716
 11
14.2235
 21
25.3978
  0
LINE
  8
0
 10
14.2235
 20
25.3978
 11
14.6084
 21
25.4743
  0
LINE
  8
0
 10
14.6084
 20
25.4743
 11
15
 21
25.5
  0
LINE
  8
0
 10
15
 20
25.5
 11
15.3916
 21
25.4743
  0
LINE
  8
0
 10
15.3916
 20
25.4743
 11
15.7764
 21
25.3978
  0
LINE
  8
0
 10
15.7764
 20
25.3978
 11
16.148
 21
25.2716
  0
LINE
  8
0
 10
16.148
 20
25.2716
 11
16.5
 21
25.0981
  0
LINE
  8
0
 10
16.5
 20
25.0981
 11
16.8263
 21
24.8801
  0
LINE
  8
0
 10
16.8263
 20
24.8801
 11
17.1213
 21
24.6213
  0
LINE
  8
0
 10
17.1213
 20
24.6213
 11
17.3801
 21
24.3263
  0
LINE
  8
0
 10
17.3801
 20
24.3263
 11
17.5981
 21
24
  0
LINE
  8
0
 10
17.5981
 20
24
 11
17.7716
 21
23.648
  0
LINE
  8
0
 10
17.7716
 20
23.648
 11
17.8978
 21
23.2764
  0
LINE
  8
0
 10
17.8978
 20
23.2764
 11
17.9743
 21
22.8916
  0
LINE
  8
0
 10
17.9743
 20
22.8916
 11
18
 21
22.5
  0
LINE
  8
0
 10
18
 20
22.5
 11
17.9743
 21
22.1084
  0
LINE
  8
0
 10
17.9743
 20
22.1084
 11
17.8978
 21
21.7235
  0
LINE
  8
0
 10
17.8978
 20
21.7235
 11
17.7716
 21
21.3519
  0
LINE
  8
0
 10
17.7716
 20
21.3519
 11
17.5981
 21
21
  0
LINE
  8
0
 10
17.5981
 20
21
 11
17.3801
 21
20.6737
  0
LINE
  8
0
 10
17.3801
 20
20.6737
 11
17.1213
 21
20.3787
  0
LINE
  8
0
 10
17.1213
 20
20.3787
 11
16.8263
 21
20.1199
  0
LINE
  8
0
 10
16.8263
 20
20.1199
 11
16.5
 21
19.9019
  0
LINE
  8
0
 10
16.5
 20
19.9019
 11
16.148
 21
19.7283
  0
LINE
  8
0
 10
16.148
 20
19.7283
 11
15.7764
 21
19.6022
  0
LINE
  8
0
 10
15.7764
 20
19.6022
 11
15.3916
 21
19.5257
  0
LINE
  8
0
 10
15.3916
 20
19.5257
 11
15
 21
19.5
  0
LINE
  8
0
 10
15
 20
19.5
 11
14.6084
 21
19.5257
  0
LINE
  8
0
 10
-0.391571
 20
19.5257
 11
-0.776443
 21
19.6022
  0
LINE
  8
0
 10
-0.776443
 20
19.6022
 11
-1.14804
 21
19.7283
  0
LINE
  8
0
 10
-1.14804
 20
19.7283
 11
-1.5
 21
19.9019
  0
LINE
  8
0
 10
-1.5
 20
19.9019
 11
-1.82628
 21
20.1199
  0
LINE
  8
0
 10
-1.82628
 20
20.1199
 11
-2.12131
 21
20.3787
  0
LINE
  8
0
 10
-2.12131
 20
20.3787
 11
-2.38005
 21
20.6737
  0
LINE
  8
0
 10
-2.38005
 20
20.6737
 11
-2.59807
 21
21
  0
LINE
  8
0
 10
-2.59807
 20
21
 11
-2.77164
 21
21.3519
  0
LINE
  8
0
 10
-2.77164
 20
21.3519
 11
-2.89777
 21
21.7235
  0
LINE
  8
0
 10
-2.89777
 20
21.7235
 11
-2.97432
 21
22.1084
  0
LINE
  8
0
 10
-2.97432
 20
22.1084
 11
-3
 21
22.5
  0
LINE
  8
0
 10
-3
 20
22.5
 11
-2.97432
 21
22.8916
  0
LINE
  8
0
 10
-2.97432
 20
22.8916
 11
-2.89777
 21
23.2764
  0
LINE
  8
0
 10
-2.89777
 20
23.2764
 11
-2.77164
 21
23.648
  0
LINE
  8
0
 10
-2.77164
 20
23.648
 11
-2.59807
 21
24
  0
LINE
  8
0
 10
-2.59807
 20
24
 11
-2.38005
 21
24.3263
  0
LINE
  8
0
 10
-2.38005
 20
24.3263
 11
-2.12131
 21
24.6213
  0
LINE
  8
0
 10
-2.12131
 20
24.6213
 11
-1.82628
 21
24.8801
  0
LINE
  8
0
 10
-1.82628
 20
24.8801
 11
-1.5
 21
25.0981
  0
LINE
  8
0
 10
-1.5
 20
25.0981
 11
-1.14804
 21
25.2716
  0
LINE
  8
0
 10
-1.14804
 20
25.2716
 11
-0.776443
 21
25.3978
  0
LINE
  8
0
 10
-0.776443
 20
25.3978
 11
-0.391571
 21
25.4743
  0
LINE
  8
0
 10
-0.391571
 20
25.4743
 11
0
 21
25.5
  0
LINE
  8
0
 10
0
 20
25.5
 11
0.391571
 21
25.4743
  0
LINE
  8
0
 10
0.391571
 20
25.4743
 11
0.776443
 21
25.3978
  0
LINE
  8
0
 10
0.776443
 20
25.3978
 11
1.14804
 21
25.2716
  0
LINE
  8
0
 10
1.14804
 20
25.2716
 11
1.5
 21
25.0981
  0
LINE
  8
0
 10
1.5
 20
25.0981
 11
1.82628
 21
24.8801
  0
LINE
  8
0
 10
1.82628
 20
24.8801
 11
2.12131
 21
24.6213
  0
LINE
  8
0
 10
2.12131
 20
24.6213
 11
2.38005
 21
24.3263
  0
LINE
  8
0
 10
2.38005
 20
24.3263
 11
2.59807
 21
24
  0
LINE
  8
0
 10
2.59807
 20
24
 11
2.77164
 21
23.648
  0
LINE
  8
0
 10
2.77164
 20
23.648
 11
2.89777
 21
23.2764
  0
LINE
  8
0
 10
2.89777
 20
23.2764
 11
2.97432
 21
22.8916
  0
LINE
  8
0
 10
2.97432
 20
22.8916
 11
3
 21
22.5
  0
LINE
  8
0
 10
3
 20
22.5
 11
2.97432
 21
22.1084
  0
LINE
  8
0
 10
2.97432
 20
22.1084
 11
2.89777
 21
21.7235
  0
LINE
  8
0
 10
2.89777
 20
21.7235
 11
2.77164
 21
21.3519
  0
LINE
  8
0
 10
2.77164
 20
21.3519
 11
2.59807
 21
21
  0
LINE
  8
0
 10
2.59807
 20
21
 11
2.38005
 21
20.6737
  0
LINE
  8
0
 10
2.38005
 20
20.6737
 11
2.12131
 21
20.3787
  0
LINE
  8
0
 10
2.12131
 20
20.3787
 11
1.82628
 21
20.1199
  0
LINE
  8
0
 10
1.82628
 20
20.1199
 11
1.5
 21
19.9019
  0
LINE
  8
0
 10
1.5
 20
19.9019
 11
1.14804
 21
19.7283
  0
LINE
  8
0
 10
1.14804
 20
19.7283
 11
0.776443
 21
19.6022
  0
LINE
  8
0
 10
0.776443
 20
19.6022
 11
0.391571
 21
19.5257
  0
LINE
  8
0
 10
0.391571
 20
19.5257
 11
0
 21
19.5
  0
LINE
  8
0
 10
0
 20
19.5
 11
-0.391571
 21
19.5257
  0
ENDSEC
  0
SECTION
  2
OBJECTS
  0
DICTIONARY
  0
ENDSEC
  0
EOF
