<?xml version="1.0" standalone="no"?>
<!DOCTYPE svg PUBLIC "-//W3C//DTD SVG 1.1//EN" "http://www.w3.org/Graphics/SVG/1.1/DTD/svg11.dtd">
<svg width="44mm" height="61mm" viewBox="-22 -29 44 61" xmlns="http://www.w3.org/2000/svg" version="1.1">
<title>OpenSCAD Model</title>
<path d="
M 16.6576,31.4622 L 17.2991,31.3346 L 17.9184,31.1244 L 18.505,30.8351 L 19.0488,30.4718 L 19.5405,30.0405
 L 19.9718,29.5488 L 20.3351,29.005 L 20.6244,28.4184 L 20.8346,27.7991 L 20.9622,27.1576 L 21.005,26.505
 L 21.005,-23.505 L 20.9622,-24.1576 L 20.8346,-24.7991 L 20.6244,-25.4184 L 20.3351,-26.005 L 19.9718,-26.5488
 L 19.5405,-27.0405 L 19.0488,-27.4718 L 18.505,-27.8351 L 17.9184,-28.1244 L 17.2991,-28.3346 L 16.6576,-28.4622
 L 16.005,-28.505 L -16.005,-28.505 L -16.6576,-28.4622 L -17.2991,-28.3346 L -17.9184,-28.1244 L -18.505,-27.8351
 L -19.0488,-27.4718 L -19.5405,-27.0405 L -19.9718,-26.5488 L -20.3351,-26.005 L -20.6244,-25.4184 L -20.8346,-24.7991
 L -20.9622,-24.1576 L -21.005,-23.505 L -21.005,26.505 L -20.9622,27.1576 L -20.8346,27.7991 L -20.6244,28.4184
 L -20.3351,29.005 L -19.9718,29.5488 L -19.5405,30.0405 L -19.0488,30.4718 L -18.505,30.8351 L -17.9184,31.1244
 L -17.2991,31.3346 L -16.6576,31.4622 L -16.005,31.505 L 16.005,31.505 z
M -15.4242,-19.2778 L -15.8412,-19.3607 L -16.2437,-19.4974 L -16.625,-19.6854 L -16.9785,-19.9216 L -17.2981,-20.2019
 L -17.5784,-20.5215 L -17.8146,-20.875 L -18.0026,-21.2563 L -18.1393,-21.6588 L -18.2222,-22.0758 L -18.25,-22.5
 L -18.2222,-22.9242 L -18.1393,-23.3412 L -18.0026,-23.7437 L -17.8146,-24.125 L -17.5784,-24.4785 L -17.2981,-24.7981
 L -16.9785,-25.0784 L -16.625,-25.3146 L -16.2437,-25.5026 L -15.8412,-25.6393 L -15.4242,-25.7222 L -15,-25.75
 L -14.5758,-25.7222 L -14.1588,-25.6393 L -13.7563,-25.5026 L -13.375,-25.3146 L -13.0215,-25.0784 L -12.7019,-24.7981
 L -12.4216,-24.4785 L -12.1854,-24.125 L -11.9974,-23.7437 L -11.8607,-23.3412 L -11.7778,-22.9242 L -11.75,-22.5
 L -11.7778,-22.0758 L -11.8607,-21.6588 L -11.9974,-21.2563 L -12.1854,-20.875 L -12.4216,-20.5215 L -12.7019,-20.2019
 L -13.0215,-19.9216 L -13.375,-19.6854 L -13.7563,-19.4974 L -14.1588,-19.3607 L -14.5758,-19.2778 L -15,-19.25
 z
M 14.5758,-19.2778 L 14.1588,-19.3607 L 13.7563,-19.4974 L 13.375,-19.6854 L 13.0215,-19.9216 L 12.7019,-20.2019
 L 12.4216,-20.5215 L 12.1854,-20.875 L 11.9974,-21.2563 L 11.8607,-21.6588 L 11.7778,-22.0758 L 11.75,-22.5
 L 11.7778,-22.9242 L 11.8607,-23.3412 L 11.9974,-23.7437 L 12.1854,-24.125 L 12.4216,-24.4785 L 12.7019,-24.7981
 L 13.0215,-25.0784 L 13.375,-25.3146 L 13.7563,-25.5026 L 14.1588,-25.6393 L 14.5758,-25.7222 L 15,-25.75
 L 15.4242,-25.7222 L 15.8412,-25.6393 L 16.2437,-25.5026 L 16.625,-25.3146 L 16.9785,-25.0784 L 17.2981,-24.7981
 L 17.5784,-24.4785 L 17.8146,-24.125 L 18.0026,-23.7437 L 18.1393,-23.3412 L 18.2222,-22.9242 L 18.25,-22.5
 L 18.2222,-22.0758 L 18.1393,-21.6588 L 18.0026,-21.2563 L 17.8146,-20.875 L 17.5784,-20.5215 L 17.2981,-20.2019
 L 16.9785,-19.9216 L 16.625,-19.6854 L 16.2437,-19.4974 L 15.8412,-19.3607 L 15.4242,-19.2778 L 15,-19.25
 z
M -0.42421,-19.2778 L -0.841156,-19.3607 L -1.24371,-19.4974 L -1.625,-19.6854 L -1.97847,-19.9216 L -2.2981,-20.2019
 L -2.57838,-20.5215 L -2.81458,-20.875 L -3.00259,-21.2563 L -3.13925,-21.6588 L -3.22218,-22.0758 L -3.25,-22.5
 L -3.22218,-22.9242 L -3.13925,-23.3412 L -3.00259,-23.7437 L -2.81458,-24.125 L -2.57838,-24.4785 L -2.2981,-24.7981
 L -1.97847,-25.0784 L -1.625,-25.3146 L -1.24371,-25.5026 L -0.841156,-25.6393 L -0.42421,-25.7222 L 0,-25.75
 L 0.42421,-25.7222 L 0.841156,-25.6393 L 1.24371,-25.5026 L 1.625,-25.3146 L 1.97847,-25.0784 L 2.2981,-24.7981
 L 2.57838,-24.4785 L 2.81458,-24.125 L 3.00259,-23.7437 L 3.13925,-23.3412 L 3.22218,-22.9242 L 3.25,-22.5
 L 3.22218,-22.0758 L 3.13925,-21.6588 L 3.00259,-21.2563 L 2.81458,-20.875 L 2.57838,-20.5215 L 2.2981,-20.2019
 L 1.97847,-19.9216 L 1.625,-19.6854 L 1.24371,-19.4974 L 0.841156,-19.3607 L 0.42421,-19.2778 L 0,-19.25
 z
" stroke="black" fill="lightgray" stroke-width="0.5"/>
</svg>
