<?xml version="1.0" standalone="no"?>
<!DOCTYPE svg PUBLIC "-//W3C//DTD SVG 1.1//EN" "http://www.w3.org/Graphics/SVG/1.1/DTD/svg11.dtd">
<svg width="88mm" height="74mm" viewBox="-44 -37 88 74" xmlns="http://www.w3.org/2000/svg" version="1.1">
<title>OpenSCAD Model</title>
<path d="
M 39.1576,35.9622 L 39.7991,35.8346 L 40.4184,35.6244 L 41.005,35.3351 L 41.5488,34.9718 L 42.0405,34.5405
 L 42.4718,34.0488 L 42.8351,33.505 L 43.1244,32.9184 L 43.3346,32.2991 L 43.4622,31.6576 L 43.505,31.005
 L 43.505,-31.005 L 43.4622,-31.6576 L 43.3346,-32.2991 L 43.1244,-32.9184 L 42.8351,-33.505 L 42.4718,-34.0488
 L 42.0405,-34.5405 L 41.5488,-34.9718 L 41.005,-35.3351 L 40.4184,-35.6244 L 39.7991,-35.8346 L 39.1576,-35.9622
 L 38.505,-36.005 L -38.505,-36.005 L -39.1576,-35.9622 L -39.7991,-35.8346 L -40.4184,-35.6244 L -41.005,-35.3351
 L -41.5488,-34.9718 L -42.0405,-34.5405 L -42.4718,-34.0488 L -42.8351,-33.505 L -43.1244,-32.9184 L -43.3346,-32.2991
 L -43.4622,-31.6576 L -43.505,-31.005 L -43.505,31.005 L -43.4622,31.6576 L -43.3346,32.2991 L -43.1244,32.9184
 L -42.8351,33.505 L -42.4718,34.0488 L -42.0405,34.5405 L -41.5488,34.9718 L -41.005,35.3351 L -40.4184,35.6244
 L -39.7991,35.8346 L -39.1576,35.9622 L -38.505,36.005 L 38.505,36.005 z
M -22.8916,-27.0257 L -23.2764,-27.1022 L -23.648,-27.2283 L -24,-27.4019 L -24.3263,-27.6199 L -24.6213,-27.8787
 L -24.8801,-28.1737 L -25.0981,-28.5 L -25.2716,-28.8519 L -25.3978,-29.2235 L -25.4743,-29.6084 L -25.5,-30
 L -25.4743,-30.3916 L -25.3978,-30.7764 L -25.2716,-31.148 L -25.0981,-31.5 L -24.8801,-31.8263 L -24.6213,-32.1213
 L -24.3263,-32.3801 L -24,-32.5981 L -23.648,-32.7716 L -23.2764,-32.8978 L -22.8916,-32.9743 L -22.5,-33
 L -22.1084,-32.9743 L -21.7235,-32.8978 L -21.3519,-32.7716 L -21,-32.5981 L -20.6737,-32.3801 L -20.3787,-32.1213
 L -20.1199,-31.8263 L -19.9019,-31.5 L -19.7283,-31.148 L -19.6022,-30.7764 L -19.5257,-30.3916 L -19.5,-30
 L -19.5257,-29.6084 L -19.6022,-29.2235 L -19.7283,-28.8519 L -19.9019,-28.5 L -20.1199,-28.1737 L -20.3787,-27.8787
 L -20.6737,-27.6199 L -21,-27.4019 L -21.3519,-27.2283 L -21.7235,-27.1022 L -22.1084,-27.0257 L -22.5,-27
 z
M 37.1084,-27.0257 L 36.7235,-27.1022 L 36.3519,-27.2283 L 36,-27.4019 L 35.6737,-27.6199 L 35.3787,-27.8787
 L 35.1199,-28.1737 L 34.9019,-28.5 L 34.7284,-28.8519 L 34.6022,-29.2235 L 34.5257,-29.6084 L 34.5,-30
 L 34.5257,-30.3916 L 34.6022,-30.7764 L 34.7284,-31.148 L 34.9019,-31.5 L 35.1199,-31.8263 L 35.3787,-32.1213
 L 35.6737,-32.3801 L 36,-32.5981 L 36.3519,-32.7716 L 36.7235,-32.8978 L 37.1084,-32.9743 L 37.5,-33
 L 37.8916,-32.9743 L 38.2765,-32.8978 L 38.648,-32.7716 L 39,-32.5981 L 39.3263,-32.3801 L 39.6213,-32.1213
 L 39.8801,-31.8263 L 40.0981,-31.5 L 40.2716,-31.148 L 40.3978,-30.7764 L 40.4743,-30.3916 L 40.5,-30
 L 40.4743,-29.6084 L 40.3978,-29.2235 L 40.2716,-28.8519 L 40.0981,-28.5 L 39.8801,-28.1737 L 39.6213,-27.8787
 L 39.3263,-27.6199 L 39,-27.4019 L 38.648,-27.2283 L 38.2765,-27.1022 L 37.8916,-27.0257 L 37.5,-27
 z
M 22.1084,-27.0257 L 21.7235,-27.1022 L 21.3519,-27.2283 L 21,-27.4019 L 20.6737,-27.6199 L 20.3787,-27.8787
 L 20.1199,-28.1737 L 19.9019,-28.5 L 19.7283,-28.8519 L 19.6022,-29.2235 L 19.5257,-29.6084 L 19.5,-30
 L 19.5257,-30.3916 L 19.6022,-30.7764 L 19.7283,-31.148 L 19.9019,-31.5 L 20.1199,-31.8263 L 20.3787,-32.1213
 L 20.6737,-32.3801 L 21,-32.5981 L 21.3519,-32.7716 L 21.7235,-32.8978 L 22.1084,-32.9743 L 22.5,-33
 L 22.8916,-32.9743 L 23.2764,-32.8978 L 23.648,-32.7716 L 24,-32.5981 L 24.3263,-32.3801 L 24.6213,-32.1213
 L 24.8801,-31.8263 L 25.0981,-31.5 L 25.2716,-31.148 L 25.3978,-30.7764 L 25.4743,-30.3916 L 25.5,-30
 L 25.4743,-29.6084 L 25.3978,-29.2235 L 25.2716,-28.8519 L 25.0981,-28.5 L 24.8801,-28.1737 L 24.6213,-27.8787
 L 24.3263,-27.6199 L 24,-27.4019 L 23.648,-27.2283 L 23.2764,-27.1022 L 22.8916,-27.0257 L 22.5,-27
 z
M -37.8916,-27.0257 L -38.2765,-27.1022 L -38.648,-27.2283 L -39,-27.4019 L -39.3263,-27.6199 L -39.6213,-27.8787
 L -39.8801,-28.1737 L -40.0981,-28.5 L -40.2716,-28.8519 L -40.3978,-29.2235 L -40.4743,-29.6084 L -40.5,-30
 L -40.4743,-30.3916 L -40.3978,-30.7764 L -40.2716,-31.148 L -40.0981,-31.5 L -39.8801,-31.8263 L -39.6213,-32.1213
 L -39.3263,-32.3801 L -39,-32.5981 L -38.648,-32.7716 L -38.2765,-32.8978 L -37.8916,-32.9743 L -37.5,-33
 L -37.1084,-32.9743 L -36.7235,-32.8978 L -36.3519,-32.7716 L -36,-32.5981 L -35.6737,-32.3801 L -35.3787,-32.1213
 L -35.1199,-31.8263 L -34.9019,-31.5 L -34.7284,-31.148 L -34.6022,-30.7764 L -34.5257,-30.3916 L -34.5,-30
 L -34.5257,-29.6084 L -34.6022,-29.2235 L -34.7284,-28.8519 L -34.9019,-28.5 L -35.1199,-28.1737 L -35.3787,-27.8787
 L -35.6737,-27.6199 L -36,-27.4019 L -36.3519,-27.2283 L -36.7235,-27.1022 L -37.1084,-27.0257 L -37.5,-27
 z
M -7.89157,-27.0257 L -8.27644,-27.1022 L -8.64804,-27.2283 L -9,-27.4019 L -9.32628,-27.6199 L -9.62131,-27.8787
 L -9.88005,-28.1737 L -10.0981,-28.5 L -10.2716,-28.8519 L -10.3978,-29.2235 L -10.4743,-29.6084 L -10.5,-30
 L -10.4743,-30.3916 L -10.3978,-30.7764 L -10.2716,-31.148 L -10.0981,-31.5 L -9.88005,-31.8263 L -9.62131,-32.1213
 L -9.32628,-32.3801 L -9,-32.5981 L -8.64804,-32.7716 L -8.27644,-32.8978 L -7.89157,-32.9743 L -7.5,-33
 L -7.10841,-32.9743 L -6.72354,-32.8978 L -6.35194,-32.7716 L -6,-32.5981 L -5.67371,-32.3801 L -5.37868,-32.1213
 L -5.11993,-31.8263 L -4.90192,-31.5 L -4.72835,-31.148 L -4.60222,-30.7764 L -4.52567,-30.3916 L -4.5,-30
 L -4.52567,-29.6084 L -4.60222,-29.2235 L -4.72835,-28.8519 L -4.90192,-28.5 L -5.11993,-28.1737 L -5.37868,-27.8787
 L -5.67371,-27.6199 L -6,-27.4019 L -6.35194,-27.2283 L -6.72354,-27.1022 L -7.10841,-27.0257 L -7.5,-27
 z
M 8.27644,-32.8978 L 8.64804,-32.7716 L 9,-32.5981 L 9.32628,-32.3801 L 9.62131,-32.1213 L 9.88005,-31.8263
 L 10.0981,-31.5 L 10.2716,-31.148 L 10.3978,-30.7764 L 10.4743,-30.3916 L 10.5,-30 L 10.4743,-29.6084
 L 10.3978,-29.2235 L 10.2716,-28.8519 L 10.0981,-28.5 L 9.88005,-28.1737 L 9.62131,-27.8787 L 9.32628,-27.6199
 L 9,-27.4019 L 8.64804,-27.2283 L 8.27644,-27.1022 L 7.89157,-27.0257 L 7.5,-27 L 7.10841,-27.0257
 L 6.72354,-27.1022 L 6.35194,-27.2283 L 6,-27.4019 L 5.67371,-27.6199 L 5.37868,-27.8787 L 5.11993,-28.1737
 L 4.90192,-28.5 L 4.72835,-28.8519 L 4.60222,-29.2235 L 4.52567,-29.6084 L 4.5,-30 L 4.52567,-30.3916
 L 4.60222,-30.7764 L 4.72835,-31.148 L 4.90192,-31.5 L 5.11993,-31.8263 L 5.37868,-32.1213 L 5.67371,-32.3801
 L 6,-32.5981 L 6.35194,-32.7716 L 6.72354,-32.8978 L 7.10841,-32.9743 L 7.5,-33 L 7.89157,-32.9743
 z
M 22.1084,-12.0257 L 21.7235,-12.1022 L 21.3519,-12.2283 L 21,-12.4019 L 20.6737,-12.6199 L 20.3787,-12.8787
 L 20.1199,-13.1737 L 19.9019,-13.5 L 19.7283,-13.8519 L 19.6022,-14.2235 L 19.5257,-14.6084 L 19.5,-15
 L 19.5257,-15.3916 L 19.6022,-15.7764 L 19.7283,-16.148 L 19.9019,-16.5 L 20.1199,-16.8263 L 20.3787,-17.1213
 L 20.6737,-17.3801 L 21,-17.5981 L 21.3519,-17.7716 L 21.7235,-17.8978 L 22.1084,-17.9743 L 22.5,-18
 L 22.8916,-17.9743 L 23.2764,-17.8978 L 23.648,-17.7716 L 24,-17.5981 L 24.3263,-17.3801 L 24.6213,-17.1213
 L 24.8801,-16.8263 L 25.0981,-16.5 L 25.2716,-16.148 L 25.3978,-15.7764 L 25.4743,-15.3916 L 25.5,-15
 L 25.4743,-14.6084 L 25.3978,-14.2235 L 25.2716,-13.8519 L 25.0981,-13.5 L 24.8801,-13.1737 L 24.6213,-12.8787
 L 24.3263,-12.6199 L 24,-12.4019 L 23.648,-12.2283 L 23.2764,-12.1022 L 22.8916,-12.0257 L 22.5,-12
 z
M -25.2716,-13.8519 L -25.3978,-14.2235 L -25.4743,-14.6084 L -25.5,-15 L -25.4743,-15.3916 L -25.3978,-15.7764
 L -25.2716,-16.148 L -25.0981,-16.5 L -24.8801,-16.8263 L -24.6213,-17.1213 L -24.3263,-17.3801 L -24,-17.5981
 L -23.648,-17.7716 L -23.2764,-17.8978 L -22.8916,-17.9743 L -22.5,-18 L -22.1084,-17.9743 L -21.7235,-17.8978
 L -21.3519,-17.7716 L -21,-17.5981 L -20.6737,-17.3801 L -20.3787,-17.1213 L -20.1199,-16.8263 L -19.9019,-16.5
 L -19.7283,-16.148 L -19.6022,-15.7764 L -19.5257,-15.3916 L -19.5,-15 L -19.5257,-14.6084 L -19.6022,-14.2235
 L -19.7283,-13.8519 L -19.9019,-13.5 L -20.1199,-13.1737 L -20.3787,-12.8787 L -20.6737,-12.6199 L -21,-12.4019
 L -21.3519,-12.2283 L -21.7235,-12.1022 L -22.1084,-12.0257 L -22.5,-12 L -22.8916,-12.0257 L -23.2764,-12.1022
 L -23.648,-12.2283 L -24,-12.4019 L -24.3263,-12.6199 L -24.6213,-12.8787 L -24.8801,-13.1737 L -25.0981,-13.5
 z
M -7.89157,-12.0257 L -8.27644,-12.1022 L -8.64804,-12.2283 L -9,-12.4019 L -9.32628,-12.6199 L -9.62131,-12.8787
 L -9.88005,-13.1737 L -10.0981,-13.5 L -10.2716,-13.8519 L -10.3978,-14.2235 L -10.4743,-14.6084 L -10.5,-15
 L -10.4743,-15.3916 L -10.3978,-15.7764 L -10.2716,-16.148 L -10.0981,-16.5 L -9.88005,-16.8263 L -9.62131,-17.1213
 L -9.32628,-17.3801 L -9,-17.5981 L -8.64804,-17.7716 L -8.27644,-17.8978 L -7.89157,-17.9743 L -7.5,-18
 L -7.10841,-17.9743 L -6.72354,-17.8978 L -6.35194,-17.7716 L -6,-17.5981 L -5.67371,-17.3801 L -5.37868,-17.1213
 L -5.11993,-16.8263 L -4.90192,-16.5 L -4.72835,-16.148 L -4.60222,-15.7764 L -4.52567,-15.3916 L -4.5,-15
 L -4.52567,-14.6084 L -4.60222,-14.2235 L -4.72835,-13.8519 L -4.90192,-13.5 L -5.11993,-13.1737 L -5.37868,-12.8787
 L -5.67371,-12.6199 L -6,-12.4019 L -6.35194,-12.2283 L -6.72354,-12.1022 L -7.10841,-12.0257 L -7.5,-12
 z
M 37.1084,-12.0257 L 36.7235,-12.1022 L 36.3519,-12.2283 L 36,-12.4019 L 35.6737,-12.6199 L 35.3787,-12.8787
 L 35.1199,-13.1737 L 34.9019,-13.5 L 34.7284,-13.8519 L 34.6022,-14.2235 L 34.5257,-14.6084 L 34.5,-15
 L 34.5257,-15.3916 L 34.6022,-15.7764 L 34.7284,-16.148 L 34.9019,-16.5 L 35.1199,-16.8263 L 35.3787,-17.1213
 L 35.6737,-17.3801 L 36,-17.5981 L 36.3519,-17.7716 L 36.7235,-17.8978 L 37.1084,-17.9743 L 37.5,-18
 L 37.8916,-17.9743 L 38.2765,-17.8978 L 38.648,-17.7716 L 39,-17.5981 L 39.3263,-17.3801 L 39.6213,-17.1213
 L 39.8801,-16.8263 L 40.0981,-16.5 L 40.2716,-16.148 L 40.3978,-15.7764 L 40.4743,-15.3916 L 40.5,-15
 L 40.4743,-14.6084 L 40.3978,-14.2235 L 40.2716,-13.8519 L 40.0981,-13.5 L 39.8801,-13.1737 L 39.6213,-12.8787
 L 39.3263,-12.6199 L 39,-12.4019 L 38.648,-12.2283 L 38.2765,-12.1022 L 37.8916,-12.0257 L 37.5,-12
 z
M 7.10841,-12.0257 L 6.72354,-12.1022 L 6.35194,-12.2283 L 6,-12.4019 L 5.67371,-12.6199 L 5.37868,-12.8787
 L 5.11993,-13.1737 L 4.90192,-13.5 L 4.72835,-13.8519 L 4.60222,-14.2235 L 4.52567,-14.6084 L 4.5,-15
 L 4.52567,-15.3916 L 4.60222,-15.7764 L 4.72835,-16.148 L 4.90192,-16.5 L 5.11993,-16.8263 L 5.37868,-17.1213
 L 5.67371,-17.3801 L 6,-17.5981 L 6.35194,-17.7716 L 6.72354,-17.8978 L 7.10841,-17.9743 L 7.5,-18
 L 7.89157,-17.9743 L 8.27644,-17.8978 L 8.64804,-17.7716 L 9,-17.5981 L 9.32628,-17.3801 L 9.62131,-17.1213
 L 9.88005,-16.8263 L 10.0981,-16.5 L 10.2716,-16.148 L 10.3978,-15.7764 L 10.4743,-15.3916 L 10.5,-15
 L 10.4743,-14.6084 L 10.3978,-14.2235 L 10.2716,-13.8519 L 10.0981,-13.5 L 9.88005,-13.1737 L 9.62131,-12.8787
 L 9.32628,-12.6199 L 9,-12.4019 L 8.64804,-12.2283 L 8.27644,-12.1022 L 7.89157,-12.0257 L 7.5,-12
 z
M 21,-2.59807 L 21.3519,-2.77164 L 21.7235,-2.89777 L 22.1084,-2.97432 L 22.5,-3 L 22.8916,-2.97432
 L 23.2764,-2.89777 L 23.648,-2.77164 L 24,-2.59807 L 24.3263,-2.38005 L 24.6213,-2.12131 L 24.8801,-1.82628
 L 25.0981,-1.5 L 25.2716,-1.14804 L 25.3978,-0.776443 L 25.4743,-0.391571 L 25.5,-0 L 25.4743,0.391571
 L 25.3978,0.776443 L 25.2716,1.14804 L 25.0981,1.5 L 24.8801,1.82628 L 24.6213,2.12131 L 24.3263,2.38005
 L 24,2.59807 L 23.648,2.77164 L 23.2764,2.89777 L 22.8916,2.97432 L 22.5,3 L 22.1084,2.97432
 L 21.7235,2.89777 L 21.3519,2.77164 L 21,2.59807 L 20.6737,2.38005 L 20.3787,2.12131 L 20.1199,1.82628
 L 19.9019,1.5 L 19.7283,1.14804 L 19.6022,0.776443 L 19.5257,0.391571 L 19.5,-0 L 19.5257,-0.391571
 L 19.6022,-0.776443 L 19.7283,-1.14804 L 19.9019,-1.5 L 20.1199,-1.82628 L 20.3787,-2.12131 L 20.6737,-2.38005
 z
M -25.0981,1.5 L -25.2716,1.14804 L -25.3978,0.776443 L -25.4743,0.391571 L -25.5,-0 L -25.4743,-0.391571
 L -25.3978,-0.776443 L -25.2716,-1.14804 L -25.0981,-1.5 L -24.8801,-1.82628 L -24.6213,-2.12131 L -24.3263,-2.38005
 L -24,-2.59807 L -23.648,-2.77164 L -23.2764,-2.89777 L -22.8916,-2.97432 L -22.5,-3 L -22.1084,-2.97432
 L -21.7235,-2.89777 L -21.3519,-2.77164 L -21,-2.59807 L -20.6737,-2.38005 L -20.3787,-2.12131 L -20.1199,-1.82628
 L -19.9019,-1.5 L -19.7283,-1.14804 L -19.6022,-0.776443 L -19.5257,-0.391571 L -19.5,-0 L -19.5257,0.391571
 L -19.6022,0.776443 L -19.7283,1.14804 L -19.9019,1.5 L -20.1199,1.82628 L -20.3787,2.12131 L -20.6737,2.38005
 L -21,2.59807 L -21.3519,2.77164 L -21.7235,2.89777 L -22.1084,2.97432 L -22.5,3 L -22.8916,2.97432
 L -23.2764,2.89777 L -23.648,2.77164 L -24,2.59807 L -24.3263,2.38005 L -24.6213,2.12131 L -24.8801,1.82628
 z
M 37.1084,2.97432 L 36.7235,2.89777 L 36.3519,2.77164 L 36,2.59807 L 35.6737,2.38005 L 35.3787,2.12131
 L 35.1199,1.82628 L 34.9019,1.5 L 34.7284,1.14804 L 34.6022,0.776443 L 34.5257,0.391571 L 34.5,-0
 L 34.5257,-0.391571 L 34.6022,-0.776443 L 34.7284,-1.14804 L 34.9019,-1.5 L 35.1199,-1.82628 L 35.3787,-2.12131
 L 35.6737,-2.38005 L 36,-2.59807 L 36.3519,-2.77164 L 36.7235,-2.89777 L 37.1084,-2.97432 L 37.5,-3
 L 37.8916,-2.97432 L 38.2765,-2.89777 L 38.648,-2.77164 L 39,-2.59807 L 39.3263,-2.38005 L 39.6213,-2.12131
 L 39.8801,-1.82628 L 40.0981,-1.5 L 40.2716,-1.14804 L 40.3978,-0.776443 L 40.4743,-0.391571 L 40.5,-0
 L 40.4743,0.391571 L 40.3978,0.776443 L 40.2716,1.14804 L 40.0981,1.5 L 39.8801,1.82628 L 39.6213,2.12131
 L 39.3263,2.38005 L 39,2.59807 L 38.648,2.77164 L 38.2765,2.89777 L 37.8916,2.97432 L 37.5,3
 z
M -7.89157,2.97432 L -8.27644,2.89777 L -8.64804,2.77164 L -9,2.59807 L -9.32628,2.38005 L -9.62131,2.12131
 L -9.88005,1.82628 L -10.0981,1.5 L -10.2716,1.14804 L -10.3978,0.776443 L -10.4743,0.391571 L -10.5,-0
 L -10.4743,-0.391571 L -10.3978,-0.776443 L -10.2716,-1.14804 L -10.0981,-1.5 L -9.88005,-1.82628 L -9.62131,-2.12131
 L -9.32628,-2.38005 L -9,-2.59807 L -8.64804,-2.77164 L -8.27644,-2.89777 L -7.89157,-2.97432 L -7.5,-3
 L -7.10841,-2.97432 L -6.72354,-2.89777 L -6.35194,-2.77164 L -6,-2.59807 L -5.67371,-2.38005 L -5.37868,-2.12131
 L -5.11993,-1.82628 L -4.90192,-1.5 L -4.72835,-1.14804 L -4.60222,-0.776443 L -4.52567,-0.391571 L -4.5,-0
 L -4.52567,0.391571 L -4.60222,0.776443 L -4.72835,1.14804 L -4.90192,1.5 L -5.11993,1.82628 L -5.37868,2.12131
 L -5.67371,2.38005 L -6,2.59807 L -6.35194,2.77164 L -6.72354,2.89777 L -7.10841,2.97432 L -7.5,3
 z
M -37.8916,17.9743 L -38.2765,17.8978 L -38.648,17.7716 L -39,17.5981 L -39.3263,17.3801 L -39.6213,17.1213
 L -39.8801,16.8263 L -40.0981,16.5 L -40.2716,16.148 L -40.3978,15.7764 L -40.4743,15.3916 L -40.5,15
 L -40.4743,14.6084 L -40.3978,14.2235 L -40.2716,13.8519 L -40.0981,13.5 L -39.8801,13.1737 L -39.6213,12.8787
 L -39.3263,12.6199 L -39,12.4019 L -38.648,12.2283 L -38.2765,12.1022 L -37.8916,12.0257 L -37.5,12
 L -37.1084,12.0257 L -36.7235,12.1022 L -36.3519,12.2283 L -36,12.4019 L -35.6737,12.6199 L -35.3787,12.8787
 L -35.1199,13.1737 L -34.9019,13.5 L -34.7284,13.8519 L -34.6022,14.2235 L -34.5257,14.6084 L -34.5,15
 L -34.5257,15.3916 L -34.6022,15.7764 L -34.7284,16.148 L -34.9019,16.5 L -35.1199,16.8263 L -35.3787,17.1213
 L -35.6737,17.3801 L -36,17.5981 L -36.3519,17.7716 L -36.7235,17.8978 L -37.1084,17.9743 L -37.5,18
 z
M 22.1084,17.9743 L 21.7235,17.8978 L 21.3519,17.7716 L 21,17.5981 L 20.6737,17.3801 L 20.3787,17.1213
 L 20.1199,16.8263 L 19.9019,16.5 L 19.7283,16.148 L 19.6022,15.7764 L 19.5257,15.3916 L 19.5,15
 L 19.5257,14.6084 L 19.6022,14.2235 L 19.7283,13.8519 L 19.9019,13.5 L 20.1199,13.1737 L 20.3787,12.8787
 L 20.6737,12.6199 L 21,12.4019 L 21.3519,12.2283 L 21.7235,12.1022 L 22.1084,12.0257 L 22.5,12
 L 22.8916,12.0257 L 23.2764,12.1022 L 23.648,12.2283 L 24,12.4019 L 24.3263,12.6199 L 24.6213,12.8787
 L 24.8801,13.1737 L 25.0981,13.5 L 25.2716,13.8519 L 25.3978,14.2235 L 25.4743,14.6084 L 25.5,15
 L 25.4743,15.3916 L 25.3978,15.7764 L 25.2716,16.148 L 25.0981,16.5 L 24.8801,16.8263 L 24.6213,17.1213
 L 24.3263,17.3801 L 24,17.5981 L 23.648,17.7716 L 23.2764,17.8978 L 22.8916,17.9743 L 22.5,18
 z
M 37.1084,17.9743 L 36.7235,17.8978 L 36.3519,17.7716 L 36,17.5981 L 35.6737,17.3801 L 35.3787,17.1213
 L 35.1199,16.8263 L 34.9019,16.5 L 34.7284,16.148 L 34.6022,15.7764 L 34.5257,15.3916 L 34.5,15
 L 34.5257,14.6084 L 34.6022,14.2235 L 34.7284,13.8519 L 34.9019,13.5 L 35.1199,13.1737 L 35.3787,12.8787
 L 35.6737,12.6199 L 36,12.4019 L 36.3519,12.2283 L 36.7235,12.1022 L 37.1084,12.0257 L 37.5,12
 L 37.8916,12.0257 L 38.2765,12.1022 L 38.648,12.2283 L 39,12.4019 L 39.3263,12.6199 L 39.6213,12.8787
 L 39.8801,13.1737 L 40.0981,13.5 L 40.2716,13.8519 L 40.3978,14.2235 L 40.4743,14.6084 L 40.5,15
 L 40.4743,15.3916 L 40.3978,15.7764 L 40.2716,16.148 L 40.0981,16.5 L 39.8801,16.8263 L 39.6213,17.1213
 L 39.3263,17.3801 L 39,17.5981 L 38.648,17.7716 L 38.2765,17.8978 L 37.8916,17.9743 L 37.5,18
 z
M -7.89157,17.9743 L -8.27644,17.8978 L -8.64804,17.7716 L -9,17.5981 L -9.32628,17.3801 L -9.62131,17.1213
 L -9.88005,16.8263 L -10.0981,16.5 L -10.2716,16.148 L -10.3978,15.7764 L -10.4743,15.3916 L -10.5,15
 L -10.4743,14.6084 L -10.3978,14.2235 L -10.2716,13.8519 L -10.0981,13.5 L -9.88005,13.1737 L -9.62131,12.8787
 L -9.32628,12.6199 L -9,12.4019 L -8.64804,12.2283 L -8.27644,12.1022 L -7.89157,12.0257 L -7.5,12
 L -7.10841,12.0257 L -6.72354,12.1022 L -6.35194,12.2283 L -6,12.4019 L -5.67371,12.6199 L -5.37868,12.8787
 L -5.11993,13.1737 L -4.90192,13.5 L -4.72835,13.8519 L -4.60222,14.2235 L -4.52567,14.6084 L -4.5,15
 L -4.52567,15.3916 L -4.60222,15.7764 L -4.72835,16.148 L -4.90192,16.5 L -5.11993,16.8263 L -5.37868,17.1213
 L -5.67371,17.3801 L -6,17.5981 L -6.35194,17.7716 L -6.72354,17.8978 L -7.10841,17.9743 L -7.5,18
 z
M 7.10841,17.9743 L 6.72354,17.8978 L 6.35194,17.7716 L 6,17.5981 L 5.67371,17.3801 L 5.37868,17.1213
 L 5.11993,16.8263 L 4.90192,16.5 L 4.72835,16.148 L 4.60222,15.7764 L 4.52567,15.3916 L 4.5,15
 L 4.52567,14.6084 L 4.60222,14.2235 L 4.72835,13.8519 L 4.90192,13.5 L 5.11993,13.1737 L 5.37868,12.8787
 L 5.67371,12.6199 L 6,12.4019 L 6.35194,12.2283 L 6.72354,12.1022 L 7.10841,12.0257 L 7.5,12
 L 7.89157,12.0257 L 8.27644,12.1022 L 8.64804,12.2283 L 9,12.4019 L 9.32628,12.6199 L 9.62131,12.8787
 L 9.88005,13.1737 L 10.0981,13.5 L 10.2716,13.8519 L 10.3978,14.2235 L 10.4743,14.6084 L 10.5,15
 L 10.4743,15.3916 L 10.3978,15.7764 L 10.2716,16.148 L 10.0981,16.5 L 9.88005,16.8263 L 9.62131,17.1213
 L 9.32628,17.3801 L 9,17.5981 L 8.64804,17.7716 L 8.27644,17.8978 L 7.89157,17.9743 L 7.5,18
 z
M -22.8916,17.9743 L -23.2764,17.8978 L -23.648,17.7716 L -24,17.5981 L -24.3263,17.3801 L -24.6213,17.1213
 L -24.8801,16.8263 L -25.0981,16.5 L -25.2716,16.148 L -25.3978,15.7764 L -25.4743,15.3916 L -25.5,15
 L -25.4743,14.6084 L -25.3978,14.2235 L -25.2716,13.8519 L -25.0981,13.5 L -24.8801,13.1737 L -24.6213,12.8787
 L -24.3263,12.6199 L -24,12.4019 L -23.648,12.2283 L -23.2764,12.1022 L -22.8916,12.0257 L -22.5,12
 L -22.1084,12.0257 L -21.7235,12.1022 L -21.3519,12.2283 L -21,12.4019 L -20.6737,12.6199 L -20.3787,12.8787
 L -20.1199,13.1737 L -19.9019,13.5 L -19.7283,13.8519 L -19.6022,14.2235 L -19.5257,14.6084 L -19.5,15
 L -19.5257,15.3916 L -19.6022,15.7764 L -19.7283,16.148 L -19.9019,16.5 L -20.1199,16.8263 L -20.3787,17.1213
 L -20.6737,17.3801 L -21,17.5981 L -21.3519,17.7716 L -21.7235,17.8978 L -22.1084,17.9743 L -22.5,18
 z
M -37.8916,32.9743 L -38.2765,32.8978 L -38.648,32.7716 L -39,32.5981 L -39.3263,32.3801 L -39.6213,32.1213
 L -39.8801,31.8263 L -40.0981,31.5 L -40.2716,31.148 L -40.3978,30.7764 L -40.4743,30.3916 L -40.5,30
 L -40.4743,29.6084 L -40.3978,29.2235 L -40.2716,28.8519 L -40.0981,28.5 L -39.8801,28.1737 L -39.6213,27.8787
 L -39.3263,27.6199 L -39,27.4019 L -38.648,27.2283 L -38.2765,27.1022 L -37.8916,27.0257 L -37.5,27
 L -37.1084,27.0257 L -36.7235,27.1022 L -36.3519,27.2283 L -36,27.4019 L -35.6737,27.6199 L -35.3787,27.8787
 L -35.1199,28.1737 L -34.9019,28.5 L -34.7284,28.8519 L -34.6022,29.2235 L -34.5257,29.6084 L -34.5,30
 L -34.5257,30.3916 L -34.6022,30.7764 L -34.7284,31.148 L -34.9019,31.5 L -35.1199,31.8263 L -35.3787,32.1213
 L -35.6737,32.3801 L -36,32.5981 L -36.3519,32.7716 L -36.7235,32.8978 L -37.1084,32.9743 L -37.5,33
 z
M -22.8916,32.9743 L -23.2764,32.8978 L -23.648,32.7716 L -24,32.5981 L -24.3263,32.3801 L -24.6213,32.1213
 L -24.8801,31.8263 L -25.0981,31.5 L -25.2716,31.148 L -25.3978,30.7764 L -25.4743,30.3916 L -25.5,30
 L -25.4743,29.6084 L -25.3978,29.2235 L -25.2716,28.8519 L -25.0981,28.5 L -24.8801,28.1737 L -24.6213,27.8787
 L -24.3263,27.6199 L -24,27.4019 L -23.648,27.2283 L -23.2764,27.1022 L -22.8916,27.0257 L -22.5,27
 L -22.1084,27.0257 L -21.7235,27.1022 L -21.3519,27.2283 L -21,27.4019 L -20.6737,27.6199 L -20.3787,27.8787
 L -20.1199,28.1737 L -19.9019,28.5 L -19.7283,28.8519 L -19.6022,29.2235 L -19.5257,29.6084 L -19.5,30
 L -19.5257,30.3916 L -19.6022,30.7764 L -19.7283,31.148 L -19.9019,31.5 L -20.1199,31.8263 L -20.3787,32.1213
 L -20.6737,32.3801 L -21,32.5981 L -21.3519,32.7716 L -21.7235,32.8978 L -22.1084,32.9743 L -22.5,33
 z
M 22.1084,32.9743 L 21.7235,32.8978 L 21.3519,32.7716 L 21,32.5981 L 20.6737,32.3801 L 20.3787,32.1213
 L 20.1199,31.8263 L 19.9019,31.5 L 19.7283,31.148 L 19.6022,30.7764 L 19.5257,30.3916 L 19.5,30
 L 19.5257,29.6084 L 19.6022,29.2235 L 19.7283,28.8519 L 19.9019,28.5 L 20.1199,28.1737 L 20.3787,27.8787
 L 20.6737,27.6199 L 21,27.4019 L 21.3519,27.2283 L 21.7235,27.1022 L 22.1084,27.0257 L 22.5,27
 L 22.8916,27.0257 L 23.2764,27.1022 L 23.648,27.2283 L 24,27.4019 L 24.3263,27.6199 L 24.6213,27.8787
 L 24.8801,28.1737 L 25.0981,28.5 L 25.2716,28.8519 L 25.3978,29.2235 L 25.4743,29.6084 L 25.5,30
 L 25.4743,30.3916 L 25.3978,30.7764 L 25.2716,31.148 L 25.0981,31.5 L 24.8801,31.8263 L 24.6213,32.1213
 L 24.3263,32.3801 L 24,32.5981 L 23.648,32.7716 L 23.2764,32.8978 L 22.8916,32.9743 L 22.5,33
 z
M 37.1084,32.9743 L 36.7235,32.8978 L 36.3519,32.7716 L 36,32.5981 L 35.6737,32.3801 L 35.3787,32.1213
 L 35.1199,31.8263 L 34.9019,31.5 L 34.7284,31.148 L 34.6022,30.7764 L 34.5257,30.3916 L 34.5,30
 L 34.5257,29.6084 L 34.6022,29.2235 L 34.7284,28.8519 L 34.9019,28.5 L 35.1199,28.1737 L 35.3787,27.8787
 L 35.6737,27.6199 L 36,27.4019 L 36.3519,27.2283 L 36.7235,27.1022 L 37.1084,27.0257 L 37.5,27
 L 37.8916,27.0257 L 38.2765,27.1022 L 38.648,27.2283 L 39,27.4019 L 39.3263,27.6199 L 39.6213,27.8787
 L 39.8801,28.1737 L 40.0981,28.5 L 40.2716,28.8519 L 40.3978,29.2235 L 40.4743,29.6084 L 40.5,30
 L 40.4743,30.3916 L 40.3978,30.7764 L 40.2716,31.148 L 40.0981,31.5 L 39.8801,31.8263 L 39.6213,32.1213
 L 39.3263,32.3801 L 39,32.5981 L 38.648,32.7716 L 38.2765,32.8978 L 37.8916,32.9743 L 37.5,33
 z
M 7.10841,32.9743 L 6.72354,32.8978 L 6.35194,32.7716 L 6,32.5981 L 5.67371,32.3801 L 5.37868,32.1213
 L 5.11993,31.8263 L 4.90192,31.5 L 4.72835,31.148 L 4.60222,30.7764 L 4.52567,30.3916 L 4.5,30
 L 4.52567,29.6084 L 4.60222,29.2235 L 4.72835,28.8519 L 4.90192,28.5 L 5.11993,28.1737 L 5.37868,27.8787
 L 5.67371,27.6199 L 6,27.4019 L 6.35194,27.2283 L 6.72354,27.1022 L 7.10841,27.0257 L 7.5,27
 L 7.89157,27.0257 L 8.27644,27.1022 L 8.64804,27.2283 L 9,27.4019 L 9.32628,27.6199 L 9.62131,27.8787
 L 9.88005,28.1737 L 10.0981,28.5 L 10.2716,28.8519 L 10.3978,29.2235 L 10.4743,29.6084 L 10.5,30
 L 10.4743,30.3916 L 10.3978,30.7764 L 10.2716,31.148 L 10.0981,31.5 L 9.88005,31.8263 L 9.62131,32.1213
 L 9.32628,32.3801 L 9,32.5981 L 8.64804,32.7716 L 8.27644,32.8978 L 7.89157,32.9743 L 7.5,33
 z
M -7.89157,32.9743 L -8.27644,32.8978 L -8.64804,32.7716 L -9,32.5981 L -9.32628,32.3801 L -9.62131,32.1213
 L -9.88005,31.8263 L -10.0981,31.5 L -10.2716,31.148 L -10.3978,30.7764 L -10.4743,30.3916 L -10.5,30
 L -10.4743,29.6084 L -10.3978,29.2235 L -10.2716,28.8519 L -10.0981,28.5 L -9.88005,28.1737 L -9.62131,27.8787
 L -9.32628,27.6199 L -9,27.4019 L -8.64804,27.2283 L -8.27644,27.1022 L -7.89157,27.0257 L -7.5,27
 L -7.10841,27.0257 L -6.72354,27.1022 L -6.35194,27.2283 L -6,27.4019 L -5.67371,27.6199 L -5.37868,27.8787
 L -5.11993,28.1737 L -4.90192,28.5 L -4.72835,28.8519 L -4.60222,29.2235 L -4.52567,29.6084 L -4.5,30
 L -4.52567,30.3916 L -4.60222,30.7764 L -4.72835,31.148 L -4.90192,31.5 L -5.11993,31.8263 L -5.37868,32.1213
 L -5.67371,32.3801 L -6,32.5981 L -6.35194,32.7716 L -6.72354,32.8978 L -7.10841,32.9743 L -7.5,33
 z
M -35.6737,-12.6199 L -36,-12.4019 L -36.3519,-12.2283 L -36.7235,-12.1022 L -37.1084,-12.0257 L -37.5,-12
 L -37.8916,-12.0257 L -38.2765,-12.1022 L -38.648,-12.2283 L -39,-12.4019 L -39.3263,-12.6199 L -39.6213,-12.8787
 L -39.8801,-13.1737 L -40.0981,-13.5 L -40.2716,-13.8519 L -40.3978,-14.2235 L -40.4743,-14.6084 L -40.5,-15
 L -40.4743,-15.3916 L -40.3978,-15.7764 L -40.2716,-16.148 L -40.0981,-16.5 L -39.8801,-16.8263 L -39.6213,-17.1213
 L -39.3263,-17.3801 L -39,-17.5981 L -38.648,-17.7716 L -38.2765,-17.8978 L -37.8916,-17.9743 L -37.5,-18
 L -37.1084,-17.9743 L -36.7235,-17.8978 L -36.3519,-17.7716 L -36,-17.5981 L -35.6737,-17.3801 L -35.3787,-17.1213
 L -35.1199,-16.8263 L -34.9019,-16.5 L -34.7284,-16.148 L -34.6022,-15.7764 L -34.5257,-15.3916 L -34.5,-15
 L -34.5257,-14.6084 L -34.6022,-14.2235 L -34.7284,-13.8519 L -34.9019,-13.5 L -35.1199,-13.1737 L -35.3787,-12.8787
 z
M 10.0981,-1.5 L 10.2716,-1.14804 L 10.3978,-0.776443 L 10.4743,-0.391571 L 10.5,-0 L 10.4743,0.391571
 L 10.3978,0.776443 L 10.2716,1.14804 L 10.0981,1.5 L 9.88005,1.82628 L 9.62131,2.12131 L 9.32628,2.38005
 L 9,2.59807 L 8.64804,2.77164 L 8.27644,2.89777 L 7.89157,2.97432 L 7.5,3 L 7.10841,2.97432
 L 6.72354,2.89777 L 6.35194,2.77164 L 6,2.59807 L 5.67371,2.38005 L 5.37868,2.12131 L 5.11993,1.82628
 L 4.90192,1.5 L 4.72835,1.14804 L 4.60222,0.776443 L 4.52567,0.391571 L 4.5,-0 L 4.52567,-0.391571
 L 4.60222,-0.776443 L 4.72835,-1.14804 L 4.90192,-1.5 L 5.11993,-1.82628 L 5.37868,-2.12131 L 5.67371,-2.38005
 L 6,-2.59807 L 6.35194,-2.77164 L 6.72354,-2.89777 L 7.10841,-2.97432 L 7.5,-3 L 7.89157,-2.97432
 L 8.27644,-2.89777 L 8.64804,-2.77164 L 9,-2.59807 L 9.32628,-2.38005 L 9.62131,-2.12131 L 9.88005,-1.82628
 z
M -36,2.59807 L -36.3519,2.77164 L -36.7235,2.89777 L -37.1084,2.97432 L -37.5,3 L -37.8916,2.97432
 L -38.2765,2.89777 L -38.648,2.77164 L -39,2.59807 L -39.3263,2.38005 L -39.6213,2.12131 L -39.8801,1.82628
 L -40.0981,1.5 L -40.2716,1.14804 L -40.3978,0.776443 L -40.4743,0.391571 L -40.5,-0 L -40.4743,-0.391571
 L -40.3978,-0.776443 L -40.2716,-1.14804 L -40.0981,-1.5 L -39.8801,-1.82628 L -39.6213,-2.12131 L -39.3263,-2.38005
 L -39,-2.59807 L -38.648,-2.77164 L -38.2765,-2.89777 L -37.8916,-2.97432 L -37.5,-3 L -37.1084,-2.97432
 L -36.7235,-2.89777 L -36.3519,-2.77164 L -36,-2.59807 L -35.6737,-2.38005 L -35.3787,-2.12131 L -35.1199,-1.82628
 L -34.9019,-1.5 L -34.7284,-1.14804 L -34.6022,-0.776443 L -34.5257,-0.391571 L -34.5,-0 L -34.5257,0.391571
 L -34.6022,0.776443 L -34.7284,1.14804 L -34.9019,1.5 L -35.1199,1.82628 L -35.3787,2.12131 L -35.6737,2.38005
 z
" stroke="black" fill="lightgray" stroke-width="0.5"/>
</svg>
