<?xml version="1.0" standalone="no"?>
<!DOCTYPE svg PUBLIC "-//W3C//DTD SVG 1.1//EN" "http://www.w3.org/Graphics/SVG/1.1/DTD/svg11.dtd">
<svg width="50mm" height="42mm" viewBox="-25 -21 50 42" xmlns="http://www.w3.org/2000/svg" version="1.1">
<title>OpenSCAD Model</title>
<path d="
M 21.5451,20.7553 L 22.6791,20.2216 L 23.6448,19.4227 L 24.3815,18.4088 L 24.8429,17.2435 L 25,16
 L 25,-16 L 24.7553,-17.5451 L 24.2216,-18.6791 L 23.4227,-19.6448 L 22.4088,-20.3815 L 21.2435,-20.8429
 L 20,-21 L -20,-21 L -21.2435,-20.8429 L -22.4088,-20.3815 L -23.4227,-19.6448 L -24.2216,-18.6791
 L -24.7553,-17.5451 L -25,-16 L -25,16 L -24.8429,17.2435 L -24.3815,18.4088 L -23.6448,19.4227
 L -22.6791,20.2216 L -21.5451,20.7553 L -20,21 L 20,21 z
M -0.186874,-15.5206 L -0.370819,-15.5557 L -0.548874,-15.6136 L -0.718399,-15.6934 L -0.876389,-15.7936 L -1.02074,-15.913
 L -1.14891,-16.0495 L -1.25897,-16.201 L -1.3492,-16.3651 L -1.41812,-16.5392 L -1.46469,-16.7206 L -1.48816,-16.9064
 L -1.48816,-17.0936 L -1.46469,-17.2794 L -1.41812,-17.4608 L -1.3492,-17.6349 L -1.25897,-17.799 L -1.14891,-17.9505
 L -1.02074,-18.087 L -0.876389,-18.2064 L -0.718399,-18.3066 L -0.548874,-18.3864 L -0.370819,-18.4443 L -0.186874,-18.4794
 L 0,-18.4911 L 0.186951,-18.4793 L 0.370819,-18.4443 L 0.548904,-18.3864 L 0.718338,-18.3067 L 0.87645,-18.2063
 L 1.02074,-18.087 L 1.14891,-17.9505 L 1.25897,-17.799 L 1.3492,-17.6349 L 1.41812,-17.4608 L 1.46469,-17.2794
 L 1.48816,-17.0936 L 1.48816,-16.9064 L 1.46469,-16.7206 L 1.41812,-16.5392 L 1.3492,-16.3651 L 1.25897,-16.201
 L 1.14891,-16.0495 L 1.02074,-15.913 L 0.87645,-15.7937 L 0.718338,-15.6933 L 0.548904,-15.6136 L 0.370819,-15.5557
 L 0.18692,-15.5206 L 0,-15.5089 z
M -15.3738,-12.0413 L -15.7416,-12.1115 L -16.0978,-12.2272 L -16.4367,-12.3867 L -16.7528,-12.5873 L -17.0415,-12.826
 L -17.2978,-13.099 L -17.518,-13.402 L -17.6984,-13.7302 L -17.8363,-14.0784 L -17.9294,-14.4412 L -17.9763,-14.8127
 L -17.9763,-15.1873 L -17.9294,-15.5588 L -17.8363,-15.9216 L -17.6984,-16.2698 L -17.518,-16.5979 L -17.2978,-16.9009
 L -17.0415,-17.1739 L -16.7529,-17.4127 L -16.4367,-17.6133 L -16.0978,-17.7728 L -15.7416,-17.8885 L -15.3737,-17.9587
 L -15,-17.9822 L -14.6262,-17.9587 L -14.2583,-17.8885 L -13.9022,-17.7728 L -13.5633,-17.6133 L -13.2471,-17.4126
 L -12.9585,-17.1739 L -12.7021,-16.9009 L -12.482,-16.5979 L -12.3016,-16.2698 L -12.1637,-15.9216 L -12.0706,-15.5588
 L -12.0237,-15.1873 L -12.0237,-14.8127 L -12.0706,-14.4412 L -12.1637,-14.0784 L -12.3016,-13.7302 L -12.482,-13.402
 L -12.7021,-13.099 L -12.9585,-12.826 L -13.2471,-12.5873 L -13.5633,-12.3866 L -13.9022,-12.2272 L -14.2584,-12.1115
 L -14.6262,-12.0413 L -15,-12.0178 z
M -21.2135,-8.11832 L -21.3947,-8.4478 L -21.4882,-8.812 L -21.4882,-9.18799 L -21.3947,-9.55219 L -21.2135,-9.88167
 L -21,-10.1091 L -21,-7.89093 z
M -1.2459,9.86237 L -2.47215,9.62845 L -3.65942,9.24268 L -4.78902,8.71114 L -5.84299,8.04227 L -6.80495,7.24646
 L -7.65945,6.3365 L -8.39325,5.32654 L -8.99466,4.23256 L -9.45422,3.07185 L -9.61067,2.46249 L -9.68953,2.45752
 L -10,-0 L -9.68953,-2.45752 L -9.61067,-2.46249 L -9.45422,-3.07185 L -8.99466,-4.23256 L -8.39325,-5.32652
 L -7.65948,-6.33647 L -6.80496,-7.24644 L -5.84299,-8.04227 L -4.78899,-8.71115 L -3.65942,-9.24268 L -2.47215,-9.62845
 L -1.2459,-9.86237 L 0,-9.94075 L 1.2459,-9.86237 L 2.47215,-9.62845 L 3.65942,-9.24268 L 4.78899,-8.71115
 L 5.84299,-8.04227 L 6.80495,-7.24646 L 7.65948,-6.33647 L 8.39325,-5.32652 L 8.99466,-4.23256 L 9.45422,-3.07185
 L 9.61067,-2.46249 L 9.68953,-2.45752 L 10,-0 L 9.68953,2.45752 L 9.61067,2.46249 L 9.45422,3.07185
 L 8.99466,4.23256 L 8.39325,5.32654 L 7.65948,6.33647 L 6.80495,7.24646 L 5.84299,8.04227 L 4.78902,8.71114
 L 3.65942,9.24268 L 2.47215,9.62845 L 1.2459,9.86237 L 0,9.94075 z
M -13.2725,1.46945 L -13.5744,0.920303 L -13.7303,0.313324 L -13.7303,-0.313324 L -13.5744,-0.920303 L -13.2725,-1.46945
 L -13.266,-1.47638 L -13.2189,-1.47342 L -12.8613,-1.35724 L -12.5439,-1.15576 L -12.2865,-0.881668 L -12.1053,-0.552185
 L -12.0118,-0.187988 L -12.0118,0.187988 L -12.1053,0.552185 L -12.2865,0.881668 L -12.5439,1.15576 L -12.8613,1.35724
 L -13.2189,1.47342 L -13.266,1.47638 z
M 13.2189,1.47342 L 12.8613,1.35724 L 12.5439,1.15576 L 12.2865,0.881668 L 12.1053,0.552185 L 12.0118,0.187988
 L 12.0118,-0.187988 L 12.1053,-0.552185 L 12.2865,-0.881668 L 12.5439,-1.15576 L 12.8613,-1.35724 L 13.2189,-1.47342
 L 13.266,-1.47638 L 13.2725,-1.46945 L 13.5744,-0.920303 L 13.7303,-0.313324 L 13.7303,0.313324 L 13.5744,0.920303
 L 13.2725,1.46945 L 13.266,1.47638 z
M -21.2135,9.88167 L -21.3947,9.55219 L -21.4882,9.18799 L -21.4882,8.812 L -21.3947,8.4478 L -21.2135,8.11832
 L -21,7.89093 L -21,10.1091 z
M 14.6262,17.9587 L 14.2583,17.8885 L 13.9022,17.7728 L 13.5633,17.6133 L 13.2471,17.4127 L 12.9585,17.1739
 L 12.7021,16.9009 L 12.482,16.5979 L 12.3016,16.2698 L 12.1637,15.9216 L 12.0706,15.5588 L 12.0237,15.1873
 L 12.0237,14.8127 L 12.0706,14.4412 L 12.1637,14.0784 L 12.3016,13.7302 L 12.482,13.402 L 12.7021,13.099
 L 12.9585,12.826 L 13.2471,12.5873 L 13.5633,12.3867 L 13.9022,12.2272 L 14.2584,12.1115 L 14.6262,12.0413
 L 15,12.0178 L 15.3738,12.0413 L 15.7416,12.1115 L 16.0978,12.2272 L 16.4367,12.3867 L 16.7529,12.5873
 L 17.0415,12.826 L 17.2978,13.099 L 17.518,13.402 L 17.6984,13.7302 L 17.8363,14.0784 L 17.9294,14.4412
 L 17.9763,14.8127 L 17.9763,15.1873 L 17.9294,15.5588 L 17.8363,15.9216 L 17.6984,16.2698 L 17.518,16.5979
 L 17.2978,16.9009 L 17.0415,17.1739 L 16.7529,17.4127 L 16.4367,17.6133 L 16.0978,17.7728 L 15.7416,17.8885
 L 15.3737,17.9587 L 15,17.9822 z
M -15,17.9822 L -15.3737,17.9587 L -15.7416,17.8885 L -16.0978,17.7728 L -16.4367,17.6133 L -16.7529,17.4127
 L -17.0415,17.1739 L -17.2978,16.9009 L -17.518,16.5979 L -17.6984,16.2698 L -17.8363,15.9216 L -17.9294,15.5588
 L -17.9763,15.1873 L -17.9763,14.8127 L -17.9294,14.4412 L -17.8363,14.0784 L -17.6984,13.7302 L -17.518,13.402
 L -17.2978,13.099 L -17.0415,12.826 L -16.7529,12.5873 L -16.4367,12.3867 L -16.0978,12.2272 L -15.7416,12.1115
 L -15.3738,12.0413 L -15,12.0178 L -14.6262,12.0413 L -14.2584,12.1114 L -13.9022,12.2272 L -13.5633,12.3866
 L -13.2471,12.5873 L -12.9585,12.826 L -12.7021,13.099 L -12.482,13.402 L -12.3016,13.7302 L -12.1637,14.0784
 L -12.0706,14.4412 L -12.0237,14.8127 L -12.0237,15.1873 L -12.0706,15.5588 L -12.1637,15.9216 L -12.3016,16.2698
 L -12.482,16.5979 L -12.7021,16.9009 L -12.9585,17.1739 L -13.2471,17.4126 L -13.5633,17.6133 L -13.9022,17.7728
 L -14.2583,17.8885 L -14.6262,17.9587 z
M -0.186874,18.4794 L -0.370819,18.4443 L -0.548874,18.3864 L -0.718399,18.3066 L -0.876389,18.2064 L -1.02074,18.087
 L -1.14891,17.9505 L -1.25897,17.799 L -1.3492,17.6349 L -1.41812,17.4608 L -1.46469,17.2794 L -1.48816,17.0936
 L -1.48816,16.9064 L -1.46469,16.7206 L -1.41812,16.5392 L -1.3492,16.3651 L -1.25897,16.201 L -1.14891,16.0495
 L -1.02074,15.913 L -0.876389,15.7936 L -0.718399,15.6934 L -0.548874,15.6136 L -0.370819,15.5557 L -0.186874,15.5206
 L 0,15.5089 L 0.186951,15.5206 L 0.370819,15.5557 L 0.548904,15.6136 L 0.718338,15.6933 L 0.87645,15.7937
 L 1.02074,15.913 L 1.14891,16.0495 L 1.25897,16.201 L 1.3492,16.3651 L 1.41812,16.5392 L 1.46469,16.7206
 L 1.48816,16.9064 L 1.48816,17.0936 L 1.46469,17.2794 L 1.41812,17.4608 L 1.3492,17.6349 L 1.25897,17.799
 L 1.14891,17.9505 L 1.02074,18.087 L 0.87645,18.2063 L 0.718338,18.3067 L 0.548904,18.3864 L 0.370819,18.4443
 L 0.18692,18.4793 L 0,18.4911 z
M 16.4367,-12.3867 L 16.0978,-12.2272 L 15.7416,-12.1114 L 15.3738,-12.0413 L 15,-12.0178 L 14.6262,-12.0413
 L 14.2584,-12.1114 L 13.9022,-12.2272 L 13.5633,-12.3867 L 13.2471,-12.5873 L 12.9585,-12.826 L 12.7021,-13.099
 L 12.482,-13.402 L 12.3016,-13.7302 L 12.1637,-14.0784 L 12.0706,-14.4412 L 12.0237,-14.8127 L 12.0237,-15.1873
 L 12.0706,-15.5588 L 12.1637,-15.9216 L 12.3016,-16.2698 L 12.482,-16.5979 L 12.7021,-16.9009 L 12.9585,-17.1739
 L 13.2471,-17.4127 L 13.5633,-17.6133 L 13.9022,-17.7728 L 14.2583,-17.8885 L 14.6262,-17.9587 L 15,-17.9822
 L 15.3737,-17.9587 L 15.7416,-17.8885 L 16.0978,-17.7728 L 16.4367,-17.6133 L 16.7529,-17.4127 L 17.0415,-17.1739
 L 17.2978,-16.9009 L 17.518,-16.5979 L 17.6984,-16.2698 L 17.8363,-15.9216 L 17.9294,-15.5588 L 17.9763,-15.1873
 L 17.9763,-14.8127 L 17.9294,-14.4412 L 17.8363,-14.0784 L 17.6984,-13.7302 L 17.518,-13.402 L 17.2978,-13.099
 L 17.0415,-12.826 L 16.7529,-12.5873 z
" stroke="black" fill="lightgray" stroke-width="0.5"/>
</svg>
