  0
SECTION
  2
BLOCKS
  0
ENDSEC
  0
SECTION
  2
ENTITIES
  0
LINE
  8
0
 10
17.2435
 20
-20.8429
 11
18.4088
 21
-20.3815
  0
LINE
  8
0
 10
18.4088
 20
-20.3815
 11
19.4227
 21
-19.6448
  0
LINE
  8
0
 10
19.4227
 20
-19.6448
 11
20.2216
 21
-18.6791
  0
LINE
  8
0
 10
20.2216
 20
-18.6791
 11
20.7553
 21
-17.5451
  0
LINE
  8
0
 10
20.7553
 20
-17.5451
 11
21
 21
-16
  0
LINE
  8
0
 10
21
 20
-16
 11
21
 21
16
  0
LINE
  8
0
 10
21
 20
16
 11
20.8429
 21
17.2435
  0
LINE
  8
0
 10
20.8429
 20
17.2435
 11
20.3815
 21
18.4088
  0
LINE
  8
0
 10
20.3815
 20
18.4088
 11
19.6448
 21
19.4227
  0
LINE
  8
0
 10
19.6448
 20
19.4227
 11
18.6791
 21
20.2216
  0
LINE
  8
0
 10
18.6791
 20
20.2216
 11
17.5451
 21
20.7553
  0
LINE
  8
0
 10
17.5451
 20
20.7553
 11
16
 21
21
  0
LINE
  8
0
 10
16
 20
21
 11
-20
 21
21
  0
LINE
  8
0
 10
-20
 20
21
 11
-21.2435
 21
20.8429
  0
LINE
  8
0
 10
-21.2435
 20
20.8429
 11
-22.4088
 21
20.3815
  0
LINE
  8
0
 10
-22.4088
 20
20.3815
 11
-23.4227
 21
19.6448
  0
LINE
  8
0
 10
-23.4227
 20
19.6448
 11
-24.2216
 21
18.6791
  0
LINE
  8
0
 10
-24.2216
 20
18.6791
 11
-24.7553
 21
17.5451
  0
LINE
  8
0
 10
-24.7553
 20
17.5451
 11
-25
 21
16
  0
LINE
  8
0
 10
-25
 20
16
 11
-25
 21
-16
  0
LINE
  8
0
 10
-25
 20
-16
 11
-24.8429
 21
-17.2435
  0
LINE
  8
0
 10
-24.8429
 20
-17.2435
 11
-24.3815
 21
-18.4088
  0
LINE
  8
0
 10
-24.3815
 20
-18.4088
 11
-23.6448
 21
-19.4227
  0
LINE
  8
0
 10
-23.6448
 20
-19.4227
 11
-22.6791
 21
-20.2216
  0
LINE
  8
0
 10
-22.6791
 20
-20.2216
 11
-21.5451
 21
-20.7553
  0
LINE
  8
0
 10
-21.5451
 20
-20.7553
 11
-20
 21
-21
  0
LINE
  8
0
 10
-20
 20
-21
 11
16
 21
-21
  0
LINE
  8
0
 10
16
 20
-21
 11
17.2435
 21
-20.8429
  0
LINE
  8
0
 10
-15.5621
 20
12.0531
 11
-16.2773
 21
12.2855
  0
LINE
  8
0
 10
-16.2773
 20
12.2855
 11
-16.9123
 21
12.6884
  0
LINE
  8
0
 10
-16.9123
 20
12.6884
 11
-17.427
 21
13.2366
  0
LINE
  8
0
 10
-17.427
 20
13.2366
 11
-17.7893
 21
13.8956
  0
LINE
  8
0
 10
-17.7893
 20
13.8956
 11
-17.9763
 21
14.624
  0
LINE
  8
0
 10
-17.9763
 20
14.624
 11
-17.9763
 21
15.376
  0
LINE
  8
0
 10
-17.9763
 20
15.376
 11
-17.7893
 21
16.1044
  0
LINE
  8
0
 10
-17.7893
 20
16.1044
 11
-17.427
 21
16.7634
  0
LINE
  8
0
 10
-17.427
 20
16.7634
 11
-16.9123
 21
17.3115
  0
LINE
  8
0
 10
-16.9123
 20
17.3115
 11
-16.2773
 21
17.7145
  0
LINE
  8
0
 10
-16.2773
 20
17.7145
 11
-15.5621
 21
17.9469
  0
LINE
  8
0
 10
-15.5621
 20
17.9469
 11
-14.8116
 21
17.9941
  0
LINE
  8
0
 10
-14.8116
 20
17.9941
 11
-14.0729
 21
17.8532
  0
LINE
  8
0
 10
-14.0729
 20
17.8532
 11
-13.3925
 21
17.533
  0
LINE
  8
0
 10
-13.3925
 20
17.533
 11
-12.8131
 21
17.0536
  0
LINE
  8
0
 10
-12.8131
 20
17.0536
 11
-12.3711
 21
16.4453
  0
LINE
  8
0
 10
-12.3711
 20
16.4453
 11
-12.0942
 21
15.7461
  0
LINE
  8
0
 10
-12.0942
 20
15.7461
 11
-12
 21
15
  0
LINE
  8
0
 10
-12
 20
15
 11
-12.0942
 21
14.2539
  0
LINE
  8
0
 10
-12.0942
 20
14.2539
 11
-12.3711
 21
13.5547
  0
LINE
  8
0
 10
-12.3711
 20
13.5547
 11
-12.8131
 21
12.9464
  0
LINE
  8
0
 10
-12.8131
 20
12.9464
 11
-13.3925
 21
12.467
  0
LINE
  8
0
 10
-13.3925
 20
12.467
 11
-14.0729
 21
12.1468
  0
LINE
  8
0
 10
-14.0729
 20
12.1468
 11
-14.8116
 21
12.0059
  0
LINE
  8
0
 10
-14.8116
 20
12.0059
 11
-15.5621
 21
12.0531
  0
LINE
  8
0
 10
14.4379
 20
12.0531
 11
13.7227
 21
12.2855
  0
LINE
  8
0
 10
13.7227
 20
12.2855
 11
13.0877
 21
12.6884
  0
LINE
  8
0
 10
13.0877
 20
12.6884
 11
12.5729
 21
13.2366
  0
LINE
  8
0
 10
12.5729
 20
13.2366
 11
12.2107
 21
13.8956
  0
LINE
  8
0
 10
12.2107
 20
13.8956
 11
12.0237
 21
14.624
  0
LINE
  8
0
 10
12.0237
 20
14.624
 11
12.0237
 21
15.376
  0
LINE
  8
0
 10
12.0237
 20
15.376
 11
12.2107
 21
16.1044
  0
LINE
  8
0
 10
12.2107
 20
16.1044
 11
12.5729
 21
16.7634
  0
LINE
  8
0
 10
12.5729
 20
16.7634
 11
13.0877
 21
17.3115
  0
LINE
  8
0
 10
13.0877
 20
17.3115
 11
13.7227
 21
17.7145
  0
LINE
  8
0
 10
13.7227
 20
17.7145
 11
14.4379
 21
17.9469
  0
LINE
  8
0
 10
14.4379
 20
17.9469
 11
15.1884
 21
17.9941
  0
LINE
  8
0
 10
15.1884
 20
17.9941
 11
15.927
 21
17.8532
  0
LINE
  8
0
 10
15.927
 20
17.8532
 11
16.6075
 21
17.533
  0
LINE
  8
0
 10
16.6075
 20
17.533
 11
17.1869
 21
17.0536
  0
LINE
  8
0
 10
17.1869
 20
17.0536
 11
17.6289
 21
16.4453
  0
LINE
  8
0
 10
17.6289
 20
16.4453
 11
17.9057
 21
15.7461
  0
LINE
  8
0
 10
17.9057
 20
15.7461
 11
18
 21
15
  0
LINE
  8
0
 10
18
 20
15
 11
17.9057
 21
14.2539
  0
LINE
  8
0
 10
17.9057
 20
14.2539
 11
17.6289
 21
13.5547
  0
LINE
  8
0
 10
17.6289
 20
13.5547
 11
17.1869
 21
12.9464
  0
LINE
  8
0
 10
17.1869
 20
12.9464
 11
16.6075
 21
12.467
  0
LINE
  8
0
 10
16.6075
 20
12.467
 11
15.927
 21
12.1468
  0
LINE
  8
0
 10
15.927
 20
12.1468
 11
15.1884
 21
12.0059
  0
LINE
  8
0
 10
15.1884
 20
12.0059
 11
14.4379
 21
12.0531
  0
LINE
  8
0
 10
-0.281067
 20
14.5266
 11
-0.638657
 21
14.6427
  0
LINE
  8
0
 10
-0.638657
 20
14.6427
 11
-0.956131
 21
14.8442
  0
LINE
  8
0
 10
-0.956131
 20
14.8442
 11
-1.21352
 21
15.1183
  0
LINE
  8
0
 10
-1.21352
 20
15.1183
 11
-1.39465
 21
15.4478
  0
LINE
  8
0
 10
-1.39465
 20
15.4478
 11
-1.48816
 21
15.812
  0
LINE
  8
0
 10
-1.48816
 20
15.812
 11
-1.48816
 21
16.188
  0
LINE
  8
0
 10
-1.48816
 20
16.188
 11
-1.39465
 21
16.5522
  0
LINE
  8
0
 10
-1.39465
 20
16.5522
 11
-1.21352
 21
16.8817
  0
LINE
  8
0
 10
-1.21352
 20
16.8817
 11
-0.956131
 21
17.1558
  0
LINE
  8
0
 10
-0.956131
 20
17.1558
 11
-0.638657
 21
17.3572
  0
LINE
  8
0
 10
-0.638657
 20
17.3572
 11
-0.281067
 21
17.4734
  0
LINE
  8
0
 10
-0.281067
 20
17.4734
 11
0.0941772
 21
17.497
  0
LINE
  8
0
 10
0.0941772
 20
17.497
 11
0.463516
 21
17.4266
  0
LINE
  8
0
 10
0.463516
 20
17.4266
 11
0.803726
 21
17.2665
  0
LINE
  8
0
 10
0.803726
 20
17.2665
 11
1.09344
 21
17.0268
  0
LINE
  8
0
 10
1.09344
 20
17.0268
 11
1.31445
 21
16.7226
  0
LINE
  8
0
 10
1.31445
 20
16.7226
 11
1.45287
 21
16.373
  0
LINE
  8
0
 10
1.45287
 20
16.373
 11
1.5
 21
16
  0
LINE
  8
0
 10
1.5
 20
16
 11
1.45287
 21
15.627
  0
LINE
  8
0
 10
1.45287
 20
15.627
 11
1.31445
 21
15.2774
  0
LINE
  8
0
 10
1.31445
 20
15.2774
 11
1.09344
 21
14.9732
  0
LINE
  8
0
 10
1.09344
 20
14.9732
 11
0.803726
 21
14.7335
  0
LINE
  8
0
 10
0.803726
 20
14.7335
 11
0.463516
 21
14.5734
  0
LINE
  8
0
 10
0.463516
 20
14.5734
 11
0.0941772
 21
14.5029
  0
LINE
  8
0
 10
0.0941772
 20
14.5029
 11
-0.281067
 21
14.5266
  0
LINE
  8
0
 10
-21.5877
 20
6.24992
 11
-23.1755
 21
9
  0
LINE
  8
0
 10
-23.1755
 20
9
 11
-21.5877
 21
11.7501
  0
LINE
  8
0
 10
-21.5877
 20
11.7501
 11
-18.4122
 21
11.7501
  0
LINE
  8
0
 10
-18.4122
 20
11.7501
 11
-16.8245
 21
9
  0
LINE
  8
0
 10
-16.8245
 20
9
 11
-18.4122
 21
6.24992
  0
LINE
  8
0
 10
-18.4122
 20
6.24992
 11
-21.5877
 21
6.24992
  0
LINE
  8
0
 10
-1.87381
 20
-9.82286
 11
-4.25778
 21
-9.04826
  0
LINE
  8
0
 10
-4.25778
 20
-9.04826
 11
-6.37424
 21
-7.70512
  0
LINE
  8
0
 10
-6.37424
 20
-7.70512
 11
-8.09016
 21
-5.87784
  0
LINE
  8
0
 10
-8.09016
 20
-5.87784
 11
-9.29776
 21
-3.68124
  0
LINE
  8
0
 10
-9.29776
 20
-3.68124
 11
-9.61067
 21
-2.46249
  0
LINE
  8
0
 10
-9.61067
 20
-2.46249
 11
-9.71844
 21
-2.4557
  0
LINE
  8
0
 10
-9.71844
 20
-2.4557
 11
-9.7807
 21
-2.43549
  0
LINE
  8
0
 10
-9.7807
 20
-2.43549
 11
-10.093
 21
-2.49506
  0
LINE
  8
0
 10
-10.093
 20
-2.49506
 11
-10.7184
 21
-2.4557
  0
LINE
  8
0
 10
-10.7184
 20
-2.4557
 11
-10.7807
 21
-2.43549
  0
LINE
  8
0
 10
-10.7807
 20
-2.43549
 11
-11.093
 21
-2.49506
  0
LINE
  8
0
 10
-11.093
 20
-2.49506
 11
-11.7184
 21
-2.4557
  0
LINE
  8
0
 10
-11.7184
 20
-2.4557
 11
-12.3144
 21
-2.26205
  0
LINE
  8
0
 10
-12.3144
 20
-2.26205
 11
-12.8436
 21
-1.92627
  0
LINE
  8
0
 10
-12.8436
 20
-1.92627
 11
-13.2725
 21
-1.46945
  0
LINE
  8
0
 10
-13.2725
 20
-1.46945
 11
-13.5744
 21
-0.920303
  0
LINE
  8
0
 10
-13.5744
 20
-0.920303
 11
-13.7303
 21
-0.313324
  0
LINE
  8
0
 10
-13.7303
 20
-0.313324
 11
-13.7303
 21
0.313324
  0
LINE
  8
0
 10
-13.7303
 20
0.313324
 11
-13.5744
 21
0.920303
  0
LINE
  8
0
 10
-13.5744
 20
0.920303
 11
-13.2725
 21
1.46945
  0
LINE
  8
0
 10
-13.2725
 20
1.46945
 11
-12.8436
 21
1.92627
  0
LINE
  8
0
 10
-12.8436
 20
1.92627
 11
-12.3144
 21
2.26205
  0
LINE
  8
0
 10
-12.3144
 20
2.26205
 11
-11.7184
 21
2.4557
  0
LINE
  8
0
 10
-11.7184
 20
2.4557
 11
-11.093
 21
2.49506
  0
LINE
  8
0
 10
-11.093
 20
2.49506
 11
-10.7807
 21
2.43549
  0
LINE
  8
0
 10
-10.7807
 20
2.43549
 11
-10.7184
 21
2.4557
  0
LINE
  8
0
 10
-10.7184
 20
2.4557
 11
-10.093
 21
2.49506
  0
LINE
  8
0
 10
-10.093
 20
2.49506
 11
-9.7807
 21
2.43549
  0
LINE
  8
0
 10
-9.7807
 20
2.43549
 11
-9.71844
 21
2.4557
  0
LINE
  8
0
 10
-9.71844
 20
2.4557
 11
-9.61067
 21
2.46249
  0
LINE
  8
0
 10
-9.61067
 20
2.46249
 11
-9.29776
 21
3.68124
  0
LINE
  8
0
 10
-9.29776
 20
3.68124
 11
-8.09016
 21
5.87784
  0
LINE
  8
0
 10
-8.09016
 20
5.87784
 11
-6.37424
 21
7.70512
  0
LINE
  8
0
 10
-6.37424
 20
7.70512
 11
-4.25778
 21
9.04826
  0
LINE
  8
0
 10
-4.25778
 20
9.04826
 11
-1.87381
 21
9.82286
  0
LINE
  8
0
 10
-1.87381
 20
9.82286
 11
0.627899
 21
9.98026
  0
LINE
  8
0
 10
0.627899
 20
9.98026
 11
3.09016
 21
9.51056
  0
LINE
  8
0
 10
3.09016
 20
9.51056
 11
5.35826
 21
8.44327
  0
LINE
  8
0
 10
5.35826
 20
8.44327
 11
7.28967
 21
6.84546
  0
LINE
  8
0
 10
7.28967
 20
6.84546
 11
8.76306
 21
4.81754
  0
LINE
  8
0
 10
8.76306
 20
4.81754
 11
9.68582
 21
2.48689
  0
LINE
  8
0
 10
9.68582
 20
2.48689
 11
10
 21
0
  0
LINE
  8
0
 10
10
 20
0
 11
9.68582
 21
-2.48689
  0
LINE
  8
0
 10
9.68582
 20
-2.48689
 11
8.76306
 21
-4.81754
  0
LINE
  8
0
 10
8.76306
 20
-4.81754
 11
7.28967
 21
-6.84546
  0
LINE
  8
0
 10
7.28967
 20
-6.84546
 11
5.35826
 21
-8.44327
  0
LINE
  8
0
 10
5.35826
 20
-8.44327
 11
3.09016
 21
-9.51056
  0
LINE
  8
0
 10
3.09016
 20
-9.51056
 11
0.627899
 21
-9.98026
  0
LINE
  8
0
 10
0.627899
 20
-9.98026
 11
-1.87381
 21
-9.82286
  0
LINE
  8
0
 10
13.2189
 20
-1.47342
 11
12.8613
 21
-1.35724
  0
LINE
  8
0
 10
12.8613
 20
-1.35724
 11
12.5439
 21
-1.15576
  0
LINE
  8
0
 10
12.5439
 20
-1.15576
 11
12.2865
 21
-0.881668
  0
LINE
  8
0
 10
12.2865
 20
-0.881668
 11
12.1053
 21
-0.552185
  0
LINE
  8
0
 10
12.1053
 20
-0.552185
 11
12.0118
 21
-0.187988
  0
LINE
  8
0
 10
12.0118
 20
-0.187988
 11
12.0118
 21
0.187988
  0
LINE
  8
0
 10
12.0118
 20
0.187988
 11
12.1053
 21
0.552185
  0
LINE
  8
0
 10
12.1053
 20
0.552185
 11
12.2865
 21
0.881668
  0
LINE
  8
0
 10
12.2865
 20
0.881668
 11
12.5439
 21
1.15576
  0
LINE
  8
0
 10
12.5439
 20
1.15576
 11
12.8613
 21
1.35724
  0
LINE
  8
0
 10
12.8613
 20
1.35724
 11
13.2189
 21
1.47342
  0
LINE
  8
0
 10
13.2189
 20
1.47342
 11
13.5942
 21
1.49704
  0
LINE
  8
0
 10
13.5942
 20
1.49704
 11
13.9635
 21
1.42657
  0
LINE
  8
0
 10
13.9635
 20
1.42657
 11
14.3037
 21
1.26648
  0
LINE
  8
0
 10
14.3037
 20
1.26648
 11
14.5934
 21
1.02681
  0
LINE
  8
0
 10
14.5934
 20
1.02681
 11
14.8145
 21
0.722626
  0
LINE
  8
0
 10
14.8145
 20
0.722626
 11
14.9529
 21
0.373032
  0
LINE
  8
0
 10
14.9529
 20
0.373032
 11
15
 21
0
  0
LINE
  8
0
 10
15
 20
0
 11
14.9529
 21
-0.373032
  0
LINE
  8
0
 10
14.9529
 20
-0.373032
 11
14.8145
 21
-0.722626
  0
LINE
  8
0
 10
14.8145
 20
-0.722626
 11
14.5934
 21
-1.02681
  0
LINE
  8
0
 10
14.5934
 20
-1.02681
 11
14.3037
 21
-1.26648
  0
LINE
  8
0
 10
14.3037
 20
-1.26648
 11
13.9635
 21
-1.42657
  0
LINE
  8
0
 10
13.9635
 20
-1.42657
 11
13.5942
 21
-1.49704
  0
LINE
  8
0
 10
13.5942
 20
-1.49704
 11
13.2189
 21
-1.47342
  0
LINE
  8
0
 10
-21.5877
 20
-11.7501
 11
-23.1755
 21
-9
  0
LINE
  8
0
 10
-23.1755
 20
-9
 11
-21.5877
 21
-6.24992
  0
LINE
  8
0
 10
-21.5877
 20
-6.24992
 11
-18.4122
 21
-6.24992
  0
LINE
  8
0
 10
-18.4122
 20
-6.24992
 11
-16.8245
 21
-9
  0
LINE
  8
0
 10
-16.8245
 20
-9
 11
-18.4122
 21
-11.7501
  0
LINE
  8
0
 10
-18.4122
 20
-11.7501
 11
-21.5877
 21
-11.7501
  0
LINE
  8
0
 10
-15.5621
 20
-17.9469
 11
-16.2773
 21
-17.7145
  0
LINE
  8
0
 10
-16.2773
 20
-17.7145
 11
-16.9123
 21
-17.3115
  0
LINE
  8
0
 10
-16.9123
 20
-17.3115
 11
-17.427
 21
-16.7634
  0
LINE
  8
0
 10
-17.427
 20
-16.7634
 11
-17.7893
 21
-16.1044
  0
LINE
  8
0
 10
-17.7893
 20
-16.1044
 11
-17.9763
 21
-15.376
  0
LINE
  8
0
 10
-17.9763
 20
-15.376
 11
-17.9763
 21
-14.624
  0
LINE
  8
0
 10
-17.9763
 20
-14.624
 11
-17.7893
 21
-13.8956
  0
LINE
  8
0
 10
-17.7893
 20
-13.8956
 11
-17.427
 21
-13.2366
  0
LINE
  8
0
 10
-17.427
 20
-13.2366
 11
-16.9123
 21
-12.6884
  0
LINE
  8
0
 10
-16.9123
 20
-12.6884
 11
-16.2773
 21
-12.2855
  0
LINE
  8
0
 10
-16.2773
 20
-12.2855
 11
-15.5621
 21
-12.0531
  0
LINE
  8
0
 10
-15.5621
 20
-12.0531
 11
-14.8116
 21
-12.0059
  0
LINE
  8
0
 10
-14.8116
 20
-12.0059
 11
-14.0729
 21
-12.1468
  0
LINE
  8
0
 10
-14.0729
 20
-12.1468
 11
-13.3925
 21
-12.467
  0
LINE
  8
0
 10
-13.3925
 20
-12.467
 11
-12.8131
 21
-12.9464
  0
LINE
  8
0
 10
-12.8131
 20
-12.9464
 11
-12.3711
 21
-13.5547
  0
LINE
  8
0
 10
-12.3711
 20
-13.5547
 11
-12.0942
 21
-14.2539
  0
LINE
  8
0
 10
-12.0942
 20
-14.2539
 11
-12
 21
-15
  0
LINE
  8
0
 10
-12
 20
-15
 11
-12.0942
 21
-15.7461
  0
LINE
  8
0
 10
-12.0942
 20
-15.7461
 11
-12.3711
 21
-16.4453
  0
LINE
  8
0
 10
-12.3711
 20
-16.4453
 11
-12.8131
 21
-17.0536
  0
LINE
  8
0
 10
-12.8131
 20
-17.0536
 11
-13.3925
 21
-17.533
  0
LINE
  8
0
 10
-13.3925
 20
-17.533
 11
-14.0729
 21
-17.8532
  0
LINE
  8
0
 10
-14.0729
 20
-17.8532
 11
-14.8116
 21
-17.9941
  0
LINE
  8
0
 10
-14.8116
 20
-17.9941
 11
-15.5621
 21
-17.9469
  0
LINE
  8
0
 10
14.4379
 20
-17.9469
 11
13.7227
 21
-17.7145
  0
LINE
  8
0
 10
13.7227
 20
-17.7145
 11
13.0877
 21
-17.3115
  0
LINE
  8
0
 10
13.0877
 20
-17.3115
 11
12.5729
 21
-16.7634
  0
LINE
  8
0
 10
12.5729
 20
-16.7634
 11
12.2107
 21
-16.1044
  0
LINE
  8
0
 10
12.2107
 20
-16.1044
 11
12.0237
 21
-15.376
  0
LINE
  8
0
 10
12.0237
 20
-15.376
 11
12.0237
 21
-14.624
  0
LINE
  8
0
 10
12.0237
 20
-14.624
 11
12.2107
 21
-13.8956
  0
LINE
  8
0
 10
12.2107
 20
-13.8956
 11
12.5729
 21
-13.2366
  0
LINE
  8
0
 10
12.5729
 20
-13.2366
 11
13.0877
 21
-12.6884
  0
LINE
  8
0
 10
13.0877
 20
-12.6884
 11
13.7227
 21
-12.2855
  0
LINE
  8
0
 10
13.7227
 20
-12.2855
 11
14.4379
 21
-12.0531
  0
LINE
  8
0
 10
14.4379
 20
-12.0531
 11
15.1884
 21
-12.0059
  0
LINE
  8
0
 10
15.1884
 20
-12.0059
 11
15.927
 21
-12.1468
  0
LINE
  8
0
 10
15.927
 20
-12.1468
 11
16.6075
 21
-12.467
  0
LINE
  8
0
 10
16.6075
 20
-12.467
 11
17.1869
 21
-12.9464
  0
LINE
  8
0
 10
17.1869
 20
-12.9464
 11
17.6289
 21
-13.5547
  0
LINE
  8
0
 10
17.6289
 20
-13.5547
 11
17.9057
 21
-14.2539
  0
LINE
  8
0
 10
17.9057
 20
-14.2539
 11
18
 21
-15
  0
LINE
  8
0
 10
18
 20
-15
 11
17.9057
 21
-15.7461
  0
LINE
  8
0
 10
17.9057
 20
-15.7461
 11
17.6289
 21
-16.4453
  0
LINE
  8
0
 10
17.6289
 20
-16.4453
 11
17.1869
 21
-17.0536
  0
LINE
  8
0
 10
17.1869
 20
-17.0536
 11
16.6075
 21
-17.533
  0
LINE
  8
0
 10
16.6075
 20
-17.533
 11
15.927
 21
-17.8532
  0
LINE
  8
0
 10
15.927
 20
-17.8532
 11
15.1884
 21
-17.9941
  0
LINE
  8
0
 10
15.1884
 20
-17.9941
 11
14.4379
 21
-17.9469
  0
LINE
  8
0
 10
-0.281067
 20
-17.4734
 11
-0.638657
 21
-17.3572
  0
LINE
  8
0
 10
-0.638657
 20
-17.3572
 11
-0.956131
 21
-17.1558
  0
LINE
  8
0
 10
-0.956131
 20
-17.1558
 11
-1.21352
 21
-16.8817
  0
LINE
  8
0
 10
-1.21352
 20
-16.8817
 11
-1.39465
 21
-16.5522
  0
LINE
  8
0
 10
-1.39465
 20
-16.5522
 11
-1.48816
 21
-16.188
  0
LINE
  8
0
 10
-1.48816
 20
-16.188
 11
-1.48816
 21
-15.812
  0
LINE
  8
0
 10
-1.48816
 20
-15.812
 11
-1.39465
 21
-15.4478
  0
LINE
  8
0
 10
-1.39465
 20
-15.4478
 11
-1.21352
 21
-15.1183
  0
LINE
  8
0
 10
-1.21352
 20
-15.1183
 11
-0.956131
 21
-14.8442
  0
LINE
  8
0
 10
-0.956131
 20
-14.8442
 11
-0.638657
 21
-14.6427
  0
LINE
  8
0
 10
-0.638657
 20
-14.6427
 11
-0.281067
 21
-14.5266
  0
LINE
  8
0
 10
-0.281067
 20
-14.5266
 11
0.0941772
 21
-14.5029
  0
LINE
  8
0
 10
0.0941772
 20
-14.5029
 11
0.463516
 21
-14.5734
  0
LINE
  8
0
 10
0.463516
 20
-14.5734
 11
0.803726
 21
-14.7335
  0
LINE
  8
0
 10
0.803726
 20
-14.7335
 11
1.09344
 21
-14.9732
  0
LINE
  8
0
 10
1.09344
 20
-14.9732
 11
1.31445
 21
-15.2774
  0
LINE
  8
0
 10
1.31445
 20
-15.2774
 11
1.45287
 21
-15.627
  0
LINE
  8
0
 10
1.45287
 20
-15.627
 11
1.5
 21
-16
  0
LINE
  8
0
 10
1.5
 20
-16
 11
1.45287
 21
-16.373
  0
LINE
  8
0
 10
1.45287
 20
-16.373
 11
1.31445
 21
-16.7226
  0
LINE
  8
0
 10
1.31445
 20
-16.7226
 11
1.09344
 21
-17.0268
  0
LINE
  8
0
 10
1.09344
 20
-17.0268
 11
0.803726
 21
-17.2665
  0
LINE
  8
0
 10
0.803726
 20
-17.2665
 11
0.463516
 21
-17.4266
  0
LINE
  8
0
 10
0.463516
 20
-17.4266
 11
0.0941772
 21
-17.497
  0
LINE
  8
0
 10
0.0941772
 20
-17.497
 11
-0.281067
 21
-17.4734
  0
ENDSEC
  0
SECTION
  2
OBJECTS
  0
DICTIONARY
  0
ENDSEC
  0
EOF
