<?xml version="1.0" standalone="no"?>
<!DOCTYPE svg PUBLIC "-//W3C//DTD SVG 1.1//EN" "http://www.w3.org/Graphics/SVG/1.1/DTD/svg11.dtd">
<svg width="46mm" height="42mm" viewBox="-25 -21 46 42" xmlns="http://www.w3.org/2000/svg" version="1.1">
<title>OpenSCAD Model</title>
<path d="
M 17.2435,20.8429 L 18.4088,20.3815 L 19.4227,19.6448 L 20.2216,18.6791 L 20.7553,17.5451 L 21,16
 L 21,-16 L 20.8429,-17.2435 L 20.3815,-18.4088 L 19.6448,-19.4227 L 18.6791,-20.2216 L 17.5451,-20.7553
 L 16,-21 L -20,-21 L -21.2435,-20.8429 L -22.4088,-20.3815 L -23.4227,-19.6448 L -24.2216,-18.6791
 L -24.7553,-17.5451 L -25,-16 L -25,16 L -24.8429,17.2435 L -24.3815,18.4088 L -23.6448,19.4227
 L -22.6791,20.2216 L -21.5451,20.7553 L -20,21 L 16,21 z
M -15.5621,-12.0531 L -16.2773,-12.2855 L -16.9123,-12.6884 L -17.427,-13.2366 L -17.7893,-13.8956 L -17.9763,-14.624
 L -17.9763,-15.376 L -17.7893,-16.1044 L -17.427,-16.7634 L -16.9123,-17.3115 L -16.2773,-17.7145 L -15.5621,-17.9469
 L -14.8116,-17.9941 L -14.0729,-17.8532 L -13.3925,-17.533 L -12.8131,-17.0536 L -12.3711,-16.4453 L -12.0942,-15.7461
 L -12,-15 L -12.0942,-14.2539 L -12.3711,-13.5547 L -12.8131,-12.9464 L -13.3925,-12.467 L -14.0729,-12.1468
 L -14.8116,-12.0059 z
M 14.4379,-12.0531 L 13.7227,-12.2855 L 13.0877,-12.6884 L 12.5729,-13.2366 L 12.2107,-13.8956 L 12.0237,-14.624
 L 12.0237,-15.376 L 12.2107,-16.1044 L 12.5729,-16.7634 L 13.0877,-17.3115 L 13.7227,-17.7145 L 14.4379,-17.9469
 L 15.1884,-17.9941 L 15.927,-17.8532 L 16.6075,-17.533 L 17.1869,-17.0536 L 17.6289,-16.4453 L 17.9057,-15.7461
 L 18,-15 L 17.9057,-14.2539 L 17.6289,-13.5547 L 17.1869,-12.9464 L 16.6075,-12.467 L 15.927,-12.1468
 L 15.1884,-12.0059 z
M -0.281067,-13.5266 L -0.638657,-13.6427 L -0.956131,-13.8442 L -1.21352,-14.1183 L -1.39465,-14.4478 L -1.48816,-14.812
 L -1.48816,-15.188 L -1.39465,-15.5522 L -1.21352,-15.8817 L -0.956131,-16.1558 L -0.638657,-16.3572 L -0.281067,-16.4734
 L 0.0941772,-16.497 L 0.463516,-16.4266 L 0.803726,-16.2665 L 1.09344,-16.0268 L 1.31445,-15.7226 L 1.45287,-15.373
 L 1.5,-15 L 1.45287,-14.627 L 1.31445,-14.2774 L 1.09344,-13.9732 L 0.803726,-13.7335 L 0.463516,-13.5734
 L 0.0941772,-13.5029 z
M -21.5877,-6.24992 L -23.1755,-9 L -21.8764,-11.25 L -18.1235,-11.25 L -16.8245,-9 L -18.4122,-6.24992
 z
M -1.87381,9.82286 L -4.25778,9.04826 L -6.37424,7.70512 L -8.09016,5.87784 L -9.29776,3.68124 L -9.61067,2.46249
 L -9.71844,2.4557 L -9.7807,2.43549 L -10.093,2.49506 L -10.7184,2.4557 L -10.7807,2.43549 L -11.093,2.49506
 L -11.7184,2.4557 L -12.3144,2.26205 L -12.8436,1.92627 L -13.2725,1.46945 L -13.5744,0.920303 L -13.7303,0.313324
 L -13.7303,-0.313324 L -13.5744,-0.920303 L -13.2725,-1.46945 L -12.8436,-1.92627 L -12.3144,-2.26205 L -11.7184,-2.4557
 L -11.093,-2.49506 L -10.7807,-2.43549 L -10.7184,-2.4557 L -10.093,-2.49506 L -9.7807,-2.43549 L -9.71844,-2.4557
 L -9.61067,-2.46249 L -9.29776,-3.68124 L -8.09016,-5.87784 L -6.37424,-7.70512 L -4.25778,-9.04826 L -1.87381,-9.82286
 L 0.627899,-9.98026 L 3.09016,-9.51056 L 5.35826,-8.44327 L 7.28967,-6.84546 L 8.76306,-4.81754 L 9.68582,-2.48689
 L 10,-0 L 9.68582,2.48689 L 8.76306,4.81754 L 7.28967,6.84546 L 5.35826,8.44327 L 3.09016,9.51056
 L 0.627899,9.98026 z
M -21.8764,11.25 L -23.1755,9 L -21.5877,6.24992 L -18.4122,6.24992 L -16.8245,9 L -18.1235,11.25
 z
M -15.5621,17.9469 L -16.2773,17.7145 L -16.9123,17.3115 L -17.427,16.7634 L -17.7893,16.1044 L -17.9763,15.376
 L -17.9763,14.624 L -17.7893,13.8956 L -17.427,13.2366 L -16.9123,12.6884 L -16.2773,12.2855 L -15.5621,12.0531
 L -14.8116,12.0059 L -14.0729,12.1468 L -13.3925,12.467 L -12.8131,12.9464 L -12.3711,13.5547 L -12.0942,14.2539
 L -12,15 L -12.0942,15.7461 L -12.3711,16.4453 L -12.8131,17.0536 L -13.3925,17.533 L -14.0729,17.8532
 L -14.8116,17.9941 z
M 14.4379,17.9469 L 13.7227,17.7145 L 13.0877,17.3115 L 12.5729,16.7634 L 12.2107,16.1044 L 12.0237,15.376
 L 12.0237,14.624 L 12.2107,13.8956 L 12.5729,13.2366 L 13.0877,12.6884 L 13.7227,12.2855 L 14.4379,12.0531
 L 15.1884,12.0059 L 15.927,12.1468 L 16.6075,12.467 L 17.1869,12.9464 L 17.6289,13.5547 L 17.9057,14.2539
 L 18,15 L 17.9057,15.7461 L 17.6289,16.4453 L 17.1869,17.0536 L 16.6075,17.533 L 15.927,17.8532
 L 15.1884,17.9941 z
M -0.281067,16.4734 L -0.638657,16.3572 L -0.956131,16.1558 L -1.21352,15.8817 L -1.39465,15.5522 L -1.48816,15.188
 L -1.48816,14.812 L -1.39465,14.4478 L -1.21352,14.1183 L -0.956131,13.8442 L -0.638657,13.6427 L -0.281067,13.5266
 L 0.0941772,13.5029 L 0.463516,13.5734 L 0.803726,13.7335 L 1.09344,13.9732 L 1.31445,14.2774 L 1.45287,14.627
 L 1.5,15 L 1.45287,15.373 L 1.31445,15.7226 L 1.09344,16.0268 L 0.803726,16.2665 L 0.463516,16.4266
 L 0.0941772,16.497 z
" stroke="black" fill="lightgray" stroke-width="0.5"/>
</svg>
