solid OpenSCAD_Model
  facet normal -0 0 1
    outer loop
      vertex 32.5 3.99 -2.6
      vertex 38.45 -1.19 -2.6
      vertex 38.45 3.99 -2.6
    endloop
  endfacet
  facet normal 0 0 1
    outer loop
      vertex 38.45 -1.19 -2.6
      vertex 32.5 3.99 -2.6
      vertex 32.5 -1.19 -2.6
    endloop
  endfacet
  facet normal 0 0 1
    outer loop
      vertex 38.45 3.99 -2.6
      vertex 41.09 3.99 -2.6
      vertex 41.09 6.5 -2.6
    endloop
  endfacet
  facet normal 0 0 1
    outer loop
      vertex 41.09 3.99 -2.6
      vertex 38.45 3.99 -2.6
      vertex 41.09 -1.19 -2.6
    endloop
  endfacet
  facet normal 0 0 1
    outer loop
      vertex 38.45 3.99 -2.6
      vertex 41.09 6.5 -2.6
      vertex 38.45 6.5 -2.6
    endloop
  endfacet
  facet normal 0 0 1
    outer loop
      vertex 38.45 -1.19 -2.6
      vertex 41.09 -1.19 -2.6
      vertex 38.45 3.99 -2.6
    endloop
  endfacet
  facet normal 0 0 1
    outer loop
      vertex 41.09 -1.19 -2.6
      vertex 38.45 -1.19 -2.6
      vertex 41.09 -3.73 -2.6
    endloop
  endfacet
  facet normal 0 0 1
    outer loop
      vertex 41.09 -3.73 -2.6
      vertex 38.45 -1.19 -2.6
      vertex 38.45 -3.73 -2.6
    endloop
  endfacet
  facet normal -0 0 1
    outer loop
      vertex 41.09 3.99 -2.6
      vertex 55.09 2.99 -2.6
      vertex 55.09 3.99 -2.6
    endloop
  endfacet
  facet normal 0 0 1
    outer loop
      vertex 55.09 2.99 -2.6
      vertex 41.09 3.99 -2.6
      vertex 55.09 -0.189999 -2.6
    endloop
  endfacet
  facet normal 0 0 1
    outer loop
      vertex 41.09 -1.19 -2.6
      vertex 55.09 -0.189999 -2.6
      vertex 41.09 3.99 -2.6
    endloop
  endfacet
  facet normal 0 0 1
    outer loop
      vertex 55.09 -0.189999 -2.6
      vertex 41.09 -1.19 -2.6
      vertex 55.09 -1.19 -2.6
    endloop
  endfacet
  facet normal -0 0 1
    outer loop
      vertex 55.09 2.99 -2.6
      vertex 61.55 -0.189999 -2.6
      vertex 61.55 2.99 -2.6
    endloop
  endfacet
  facet normal 0 0 1
    outer loop
      vertex 61.55 -0.189999 -2.6
      vertex 55.09 2.99 -2.6
      vertex 55.09 -0.189999 -2.6
    endloop
  endfacet
  facet normal -1 0 0
    outer loop
      vertex 55.09 -1.19 -2.6
      vertex 55.09 -0.189999 0
      vertex 55.09 -0.189999 -2.6
    endloop
  endfacet
  facet normal -1 -0 0
    outer loop
      vertex 55.09 -0.189999 0
      vertex 55.09 -1.19 -2.6
      vertex 55.09 -1.19 0
    endloop
  endfacet
  facet normal -1 0 0
    outer loop
      vertex 55.09 2.99 -2.6
      vertex 55.09 3.99 0
      vertex 55.09 3.99 -2.6
    endloop
  endfacet
  facet normal -1 -0 0
    outer loop
      vertex 55.09 3.99 0
      vertex 55.09 2.99 -2.6
      vertex 55.09 2.99 0
    endloop
  endfacet
  facet normal 0 1 -0
    outer loop
      vertex 38.45 -1.19 -2.6
      vertex 32.5 -1.19 0
      vertex 38.45 -1.19 0
    endloop
  endfacet
  facet normal 0 1 0
    outer loop
      vertex 32.5 -1.19 0
      vertex 38.45 -1.19 -2.6
      vertex 32.5 -1.19 -2.6
    endloop
  endfacet
  facet normal 0 1 -0
    outer loop
      vertex 55.09 -1.19 -2.6
      vertex 41.09 -1.19 0
      vertex 55.09 -1.19 0
    endloop
  endfacet
  facet normal 0 1 0
    outer loop
      vertex 41.09 -1.19 0
      vertex 55.09 -1.19 -2.6
      vertex 41.09 -1.19 -2.6
    endloop
  endfacet
  facet normal 0 -1 0
    outer loop
      vertex 32.5 3.99 -2.6
      vertex 38.45 3.99 0
      vertex 32.5 3.99 0
    endloop
  endfacet
  facet normal 0 -1 -0
    outer loop
      vertex 38.45 3.99 0
      vertex 32.5 3.99 -2.6
      vertex 38.45 3.99 -2.6
    endloop
  endfacet
  facet normal 0 -1 0
    outer loop
      vertex 41.09 3.99 -2.6
      vertex 55.09 3.99 0
      vertex 41.09 3.99 0
    endloop
  endfacet
  facet normal 0 -1 -0
    outer loop
      vertex 55.09 3.99 0
      vertex 41.09 3.99 -2.6
      vertex 55.09 3.99 -2.6
    endloop
  endfacet
  facet normal 0 0 1
    outer loop
      vertex 67.5 6.5 0
      vertex 62 2 0
      vertex 67.5 -6.5 0
    endloop
  endfacet
  facet normal 0 0 1
    outer loop
      vertex 67.5 6.5 0
      vertex 61.55 2.99 0
      vertex 62 2 0
    endloop
  endfacet
  facet normal 0 0 1
    outer loop
      vertex 67.5 6.5 0
      vertex 55.09 3.99 0
      vertex 61.55 2.99 0
    endloop
  endfacet
  facet normal -0 0 1
    outer loop
      vertex 41.09 6.5 0
      vertex 55.09 3.99 0
      vertex 67.5 6.5 0
    endloop
  endfacet
  facet normal 0 0 1
    outer loop
      vertex 55.09 3.99 0
      vertex 41.09 6.5 0
      vertex 41.09 3.99 0
    endloop
  endfacet
  facet normal 0 0 1
    outer loop
      vertex 67.5 -6.5 0
      vertex 62 2 0
      vertex 62 -6.5 0
    endloop
  endfacet
  facet normal 0 0 1
    outer loop
      vertex 62 2 0
      vertex 61.55 2.99 0
      vertex 61.55 2 0
    endloop
  endfacet
  facet normal 0 0 1
    outer loop
      vertex 61.55 2.99 0
      vertex 55.09 3.99 0
      vertex 55.09 2.99 0
    endloop
  endfacet
  facet normal -0 0 1
    outer loop
      vertex 32.5 6.5 0
      vertex 38.45 3.99 0
      vertex 38.45 6.5 0
    endloop
  endfacet
  facet normal 0 0 1
    outer loop
      vertex 38.45 3.99 0
      vertex 32.5 6.5 0
      vertex 32.5 3.99 0
    endloop
  endfacet
  facet normal 0 0 1
    outer loop
      vertex 38.45 -1.19 0
      vertex 32.5 -1.19 0
      vertex 38.45 -3.73 0
    endloop
  endfacet
  facet normal 0 0 1
    outer loop
      vertex 55.09 -1.19 0
      vertex 59 -0.189999 0
      vertex 55.09 -0.189999 0
    endloop
  endfacet
  facet normal 0 0 1
    outer loop
      vertex 59 -0.189999 0
      vertex 55.09 -1.19 0
      vertex 59 -5 0
    endloop
  endfacet
  facet normal 0 0 1
    outer loop
      vertex 41.09 -3.73 0
      vertex 55.09 -1.19 0
      vertex 41.09 -1.19 0
    endloop
  endfacet
  facet normal 0 0 1
    outer loop
      vertex 55.09 -1.19 0
      vertex 41.09 -3.73 0
      vertex 59 -5 0
    endloop
  endfacet
  facet normal 0 0 1
    outer loop
      vertex 32.5 -5 0
      vertex 41.09 -3.73 0
      vertex 38.45 -3.73 0
    endloop
  endfacet
  facet normal 0 0 1
    outer loop
      vertex 41.09 -3.73 0
      vertex 32.5 -5 0
      vertex 59 -5 0
    endloop
  endfacet
  facet normal 0 0 1
    outer loop
      vertex 32.5 -5 0
      vertex 38.45 -3.73 0
      vertex 32.5 -1.19 0
    endloop
  endfacet
  facet normal -1 0 0
    outer loop
      vertex 41.09 -3.73 -2.6
      vertex 41.09 -1.19 0
      vertex 41.09 -1.19 -2.6
    endloop
  endfacet
  facet normal -1 -0 0
    outer loop
      vertex 41.09 -1.19 0
      vertex 41.09 -3.73 -2.6
      vertex 41.09 -3.73 0
    endloop
  endfacet
  facet normal -1 0 0
    outer loop
      vertex 41.09 3.99 -2.6
      vertex 41.09 6.5 0
      vertex 41.09 6.5 -2.6
    endloop
  endfacet
  facet normal -1 -0 0
    outer loop
      vertex 41.09 6.5 0
      vertex 41.09 3.99 -2.6
      vertex 41.09 3.99 0
    endloop
  endfacet
  facet normal 1 -0 0
    outer loop
      vertex 38.45 -3.73 0
      vertex 38.45 -1.19 -2.6
      vertex 38.45 -1.19 0
    endloop
  endfacet
  facet normal 1 0 0
    outer loop
      vertex 38.45 -1.19 -2.6
      vertex 38.45 -3.73 0
      vertex 38.45 -3.73 -2.6
    endloop
  endfacet
  facet normal 1 -0 0
    outer loop
      vertex 38.45 3.99 0
      vertex 38.45 6.5 -2.6
      vertex 38.45 6.5 0
    endloop
  endfacet
  facet normal 1 0 0
    outer loop
      vertex 38.45 6.5 -2.6
      vertex 38.45 3.99 0
      vertex 38.45 3.99 -2.6
    endloop
  endfacet
  facet normal 0 1 -0
    outer loop
      vertex 41.09 -3.73 -2.6
      vertex 38.45 -3.73 0
      vertex 41.09 -3.73 0
    endloop
  endfacet
  facet normal 0 1 0
    outer loop
      vertex 38.45 -3.73 0
      vertex 41.09 -3.73 -2.6
      vertex 38.45 -3.73 -2.6
    endloop
  endfacet
  facet normal -1 0 0
    outer loop
      vertex 61.55 2.99 -2.6
      vertex 61.55 2 -2
      vertex 61.55 2.99 0
    endloop
  endfacet
  facet normal -1 0 0
    outer loop
      vertex 61.55 -0.189999 -2.6
      vertex 61.55 2 -2
      vertex 61.55 2.99 -2.6
    endloop
  endfacet
  facet normal -1 -0 0
    outer loop
      vertex 61.55 2 -2
      vertex 61.55 -0.189999 -2.6
      vertex 61.55 -0.189999 -2
    endloop
  endfacet
  facet normal -1 -0 0
    outer loop
      vertex 61.55 2.99 0
      vertex 61.55 2 -2
      vertex 61.55 2 0
    endloop
  endfacet
  facet normal 0 1 0
    outer loop
      vertex 61.55 -0.189999 -2
      vertex 61.55 -0.189999 -2.6
      vertex 59 -0.189999 -2
    endloop
  endfacet
  facet normal 0 1 -0
    outer loop
      vertex 59 -0.189999 -2
      vertex 55.09 -0.189999 0
      vertex 59 -0.189999 0
    endloop
  endfacet
  facet normal 0 1 0
    outer loop
      vertex 59 -0.189999 -2
      vertex 55.09 -0.189999 -2.6
      vertex 55.09 -0.189999 0
    endloop
  endfacet
  facet normal 0 1 0
    outer loop
      vertex 55.09 -0.189999 -2.6
      vertex 59 -0.189999 -2
      vertex 61.55 -0.189999 -2.6
    endloop
  endfacet
  facet normal 0 -1 0
    outer loop
      vertex 55.09 2.99 -2.6
      vertex 61.55 2.99 0
      vertex 55.09 2.99 0
    endloop
  endfacet
  facet normal 0 -1 -0
    outer loop
      vertex 61.55 2.99 0
      vertex 55.09 2.99 -2.6
      vertex 61.55 2.99 -2.6
    endloop
  endfacet
  facet normal 0 0 -1
    outer loop
      vertex 32.5 -6.5 -4
      vertex 67.5 6.5 -4
      vertex 67.5 -6.5 -4
    endloop
  endfacet
  facet normal -0 0 -1
    outer loop
      vertex 67.5 6.5 -4
      vertex 32.5 -6.5 -4
      vertex 32.5 6.5 -4
    endloop
  endfacet
  facet normal 1 -0 0
    outer loop
      vertex 67.5 -6.5 0
      vertex 67.5 6.5 -4
      vertex 67.5 6.5 0
    endloop
  endfacet
  facet normal 1 0 0
    outer loop
      vertex 67.5 6.5 -4
      vertex 67.5 -6.5 0
      vertex 67.5 -6.5 -4
    endloop
  endfacet
  facet normal -1 0 0
    outer loop
      vertex 32.5 6.5 -4
      vertex 32.5 3.99 -2.6
      vertex 32.5 6.5 0
    endloop
  endfacet
  facet normal -1 0 0
    outer loop
      vertex 32.5 6.5 -4
      vertex 32.5 -1.19 -2.6
      vertex 32.5 3.99 -2.6
    endloop
  endfacet
  facet normal -1 0 0
    outer loop
      vertex 32.5 -1.19 -2.6
      vertex 32.5 -5 -2
      vertex 32.5 -1.19 0
    endloop
  endfacet
  facet normal -1 0 0
    outer loop
      vertex 32.5 -6.5 -4
      vertex 32.5 -1.19 -2.6
      vertex 32.5 6.5 -4
    endloop
  endfacet
  facet normal -1 -0 0
    outer loop
      vertex 32.5 -1.19 -2.6
      vertex 32.5 -6.5 -4
      vertex 32.5 -5 -2
    endloop
  endfacet
  facet normal -1 -0 0
    outer loop
      vertex 32.5 -5 -2
      vertex 32.5 -6.5 -4
      vertex 32.5 -6.5 -2
    endloop
  endfacet
  facet normal -1 -0 0
    outer loop
      vertex 32.5 6.5 0
      vertex 32.5 3.99 -2.6
      vertex 32.5 3.99 0
    endloop
  endfacet
  facet normal -1 -0 0
    outer loop
      vertex 32.5 -1.19 0
      vertex 32.5 -5 -2
      vertex 32.5 -5 0
    endloop
  endfacet
  facet normal 0 -1 0
    outer loop
      vertex 32.5 -6.5 -2
      vertex 32.5 -6.5 -4
      vertex 62 -6.5 -2
    endloop
  endfacet
  facet normal 0 -1 0
    outer loop
      vertex 62 -6.5 -2
      vertex 67.5 -6.5 0
      vertex 62 -6.5 0
    endloop
  endfacet
  facet normal 0 -1 0
    outer loop
      vertex 62 -6.5 -2
      vertex 67.5 -6.5 -4
      vertex 67.5 -6.5 0
    endloop
  endfacet
  facet normal 0 -1 0
    outer loop
      vertex 67.5 -6.5 -4
      vertex 62 -6.5 -2
      vertex 32.5 -6.5 -4
    endloop
  endfacet
  facet normal 0 1 0
    outer loop
      vertex 67.5 6.5 0
      vertex 41.09 6.5 -2.6
      vertex 41.09 6.5 0
    endloop
  endfacet
  facet normal 0 1 0
    outer loop
      vertex 32.5 6.5 -4
      vertex 41.09 6.5 -2.6
      vertex 67.5 6.5 -4
    endloop
  endfacet
  facet normal 0 1 -0
    outer loop
      vertex 67.5 6.5 -4
      vertex 41.09 6.5 -2.6
      vertex 67.5 6.5 0
    endloop
  endfacet
  facet normal 0 1 -0
    outer loop
      vertex 38.45 6.5 -2.6
      vertex 32.5 6.5 0
      vertex 38.45 6.5 0
    endloop
  endfacet
  facet normal 0 1 0
    outer loop
      vertex 38.45 6.5 -2.6
      vertex 32.5 6.5 -4
      vertex 32.5 6.5 0
    endloop
  endfacet
  facet normal 0 1 0
    outer loop
      vertex 41.09 6.5 -2.6
      vertex 32.5 6.5 -4
      vertex 38.45 6.5 -2.6
    endloop
  endfacet
  facet normal 0 0 1
    outer loop
      vertex 61.55 -0.189999 -2
      vertex 62 2 -2
      vertex 61.55 2 -2
    endloop
  endfacet
  facet normal 0 0 1
    outer loop
      vertex 62 2 -2
      vertex 61.55 -0.189999 -2
      vertex 62 -6.5 -2
    endloop
  endfacet
  facet normal 0 0 1
    outer loop
      vertex 59 -5 -2
      vertex 61.55 -0.189999 -2
      vertex 59 -0.189999 -2
    endloop
  endfacet
  facet normal 0 0 1
    outer loop
      vertex 61.55 -0.189999 -2
      vertex 59 -5 -2
      vertex 62 -6.5 -2
    endloop
  endfacet
  facet normal 0 0 1
    outer loop
      vertex 32.5 -6.5 -2
      vertex 59 -5 -2
      vertex 32.5 -5 -2
    endloop
  endfacet
  facet normal 0 0 1
    outer loop
      vertex 59 -5 -2
      vertex 32.5 -6.5 -2
      vertex 62 -6.5 -2
    endloop
  endfacet
  facet normal -1 0 0
    outer loop
      vertex 62 -6.5 -2
      vertex 62 2 0
      vertex 62 2 -2
    endloop
  endfacet
  facet normal -1 -0 0
    outer loop
      vertex 62 2 0
      vertex 62 -6.5 -2
      vertex 62 -6.5 0
    endloop
  endfacet
  facet normal 0 -1 0
    outer loop
      vertex 32.5 -5 -2
      vertex 59 -5 0
      vertex 32.5 -5 0
    endloop
  endfacet
  facet normal 0 -1 -0
    outer loop
      vertex 59 -5 0
      vertex 32.5 -5 -2
      vertex 59 -5 -2
    endloop
  endfacet
  facet normal 1 -0 0
    outer loop
      vertex 59 -5 0
      vertex 59 -0.189999 -2
      vertex 59 -0.189999 0
    endloop
  endfacet
  facet normal 1 0 0
    outer loop
      vertex 59 -0.189999 -2
      vertex 59 -5 0
      vertex 59 -5 -2
    endloop
  endfacet
  facet normal 0 -1 0
    outer loop
      vertex 61.55 2 -2
      vertex 62 2 0
      vertex 61.55 2 0
    endloop
  endfacet
  facet normal 0 -1 -0
    outer loop
      vertex 62 2 0
      vertex 61.55 2 -2
      vertex 62 2 -2
    endloop
  endfacet
endsolid OpenSCAD_Model
