<?xml version="1.0" standalone="no"?>
<!DOCTYPE svg PUBLIC "-//W3C//DTD SVG 1.1//EN" "http://www.w3.org/Graphics/SVG/1.1/DTD/svg11.dtd">
<svg width="72mm" height="72mm" viewBox="-36 -36 72 72" xmlns="http://www.w3.org/2000/svg" version="1.1">
<title>OpenSCAD Model</title>
<path d="
M 4.69893,35.692 L 9.31747,34.7733 L 13.7766,33.2597 L 14.428,32.9384 L 14.2235,32.8978 L 13.8519,32.7716
 L 13.5,32.5981 L 13.1737,32.3801 L 12.8787,32.1213 L 12.6199,31.8263 L 12.4019,31.5 L 12.2283,31.148
 L 12.1022,30.7764 L 12.0257,30.3916 L 12,30 L 12.0257,29.6084 L 12.1022,29.2235 L 12.2283,28.8519
 L 12.4019,28.5 L 12.6199,28.1737 L 12.8787,27.8787 L 13.1737,27.6199 L 13.5,27.4019 L 13.8519,27.2283
 L 14.2235,27.1022 L 14.6084,27.0257 L 15,27 L 15.3916,27.0257 L 15.7764,27.1022 L 16.148,27.2283
 L 16.5,27.4019 L 16.8263,27.6199 L 17.1213,27.8787 L 17.3801,28.1737 L 17.5981,28.5 L 17.7716,28.8519
 L 17.8978,29.2235 L 17.9743,29.6084 L 18,30 L 17.9743,30.3916 L 17.8978,30.7764 L 17.7716,31.148
 L 17.6794,31.335 L 18,31.1769 L 21.9154,28.5607 L 25.4558,25.4558 L 28.5607,21.9154 L 31.1769,18
 L 31.335,17.6794 L 31.148,17.7716 L 30.7764,17.8978 L 30.3916,17.9743 L 30,18 L 29.6084,17.9743
 L 29.2235,17.8978 L 28.8519,17.7716 L 28.5,17.5981 L 28.1737,17.3801 L 27.8787,17.1213 L 27.6199,16.8263
 L 27.4019,16.5 L 27.2283,16.148 L 27.1022,15.7764 L 27.0257,15.3916 L 27,15 L 27.0257,14.6084
 L 27.1022,14.2235 L 27.2283,13.8519 L 27.4019,13.5 L 27.6199,13.1737 L 27.8787,12.8787 L 28.1737,12.6199
 L 28.5,12.4019 L 28.8519,12.2283 L 29.2235,12.1022 L 29.6084,12.0257 L 30,12 L 30.3916,12.0257
 L 30.7764,12.1022 L 31.148,12.2283 L 31.5,12.4019 L 31.8263,12.6199 L 32.1213,12.8787 L 32.3801,13.1737
 L 32.5981,13.5 L 32.7716,13.8519 L 32.8978,14.2235 L 32.9384,14.428 L 33.2597,13.7766 L 34.7733,9.31747
 L 35.692,4.69893 L 36,-0 L 35.692,-4.69893 L 34.7733,-9.31747 L 33.2597,-13.7766 L 32.9384,-14.428
 L 32.8978,-14.2235 L 32.7716,-13.8519 L 32.5981,-13.5 L 32.3801,-13.1737 L 32.1213,-12.8787 L 31.8263,-12.6199
 L 31.5,-12.4019 L 31.148,-12.2283 L 30.7764,-12.1022 L 30.3916,-12.0257 L 30,-12 L 29.6084,-12.0257
 L 29.2235,-12.1022 L 28.8519,-12.2283 L 28.5,-12.4019 L 28.1737,-12.6199 L 27.8787,-12.8787 L 27.6199,-13.1737
 L 27.4019,-13.5 L 27.2283,-13.8519 L 27.1022,-14.2235 L 27.0257,-14.6084 L 27,-15 L 27.0257,-15.3916
 L 27.1022,-15.7764 L 27.2283,-16.148 L 27.4019,-16.5 L 27.6199,-16.8263 L 27.8787,-17.1213 L 28.1737,-17.3801
 L 28.5,-17.5981 L 28.8519,-17.7716 L 29.2235,-17.8978 L 29.6084,-17.9743 L 30,-18 L 30.3916,-17.9743
 L 30.7764,-17.8978 L 31.148,-17.7716 L 31.335,-17.6794 L 31.1769,-18 L 28.5607,-21.9154 L 25.4558,-25.4558
 L 21.9154,-28.5607 L 18,-31.1769 L 17.6794,-31.335 L 17.7716,-31.148 L 17.8978,-30.7764 L 17.9743,-30.3916
 L 18,-30 L 17.9743,-29.6084 L 17.8978,-29.2235 L 17.7716,-28.8519 L 17.5981,-28.5 L 17.3801,-28.1737
 L 17.1213,-27.8787 L 16.8263,-27.6199 L 16.5,-27.4019 L 16.148,-27.2283 L 15.7764,-27.1022 L 15.3916,-27.0257
 L 15,-27 L 14.6084,-27.0257 L 14.2235,-27.1022 L 13.8519,-27.2283 L 13.5,-27.4019 L 13.1737,-27.6199
 L 12.8787,-27.8787 L 12.6199,-28.1737 L 12.4019,-28.5 L 12.2283,-28.8519 L 12.1022,-29.2235 L 12.0257,-29.6084
 L 12,-30 L 12.0257,-30.3916 L 12.1022,-30.7764 L 12.2283,-31.148 L 12.4019,-31.5 L 12.6199,-31.8263
 L 12.8787,-32.1213 L 13.1737,-32.3801 L 13.5,-32.5981 L 13.8519,-32.7716 L 14.2235,-32.8978 L 14.428,-32.9384
 L 13.7766,-33.2597 L 9.31747,-34.7733 L 4.69893,-35.692 L 0,-36 L -4.69893,-35.692 L -9.31747,-34.7733
 L -13.7766,-33.2597 L -14.428,-32.9384 L -14.2235,-32.8978 L -13.8519,-32.7716 L -13.5,-32.5981 L -13.1737,-32.3801
 L -12.8787,-32.1213 L -12.6199,-31.8263 L -12.4019,-31.5 L -12.2283,-31.148 L -12.1022,-30.7764 L -12.0257,-30.3916
 L -12,-30 L -12.0257,-29.6084 L -12.1022,-29.2235 L -12.2283,-28.8519 L -12.4019,-28.5 L -12.6199,-28.1737
 L -12.8787,-27.8787 L -13.1737,-27.6199 L -13.5,-27.4019 L -13.8519,-27.2283 L -14.2235,-27.1022 L -14.6084,-27.0257
 L -15,-27 L -15.3916,-27.0257 L -15.7764,-27.1022 L -16.148,-27.2283 L -16.5,-27.4019 L -16.8263,-27.6199
 L -17.1213,-27.8787 L -17.3801,-28.1737 L -17.5981,-28.5 L -17.7716,-28.8519 L -17.8978,-29.2235 L -17.9743,-29.6084
 L -18,-30 L -17.9743,-30.3916 L -17.8978,-30.7764 L -17.7716,-31.148 L -17.6794,-31.335 L -18,-31.1769
 L -21.9154,-28.5607 L -25.4558,-25.4558 L -28.5607,-21.9154 L -31.1769,-18 L -31.335,-17.6794 L -31.148,-17.7716
 L -30.7764,-17.8978 L -30.3916,-17.9743 L -30,-18 L -29.6084,-17.9743 L -29.2235,-17.8978 L -28.8519,-17.7716
 L -28.5,-17.5981 L -28.1737,-17.3801 L -27.8787,-17.1213 L -27.6199,-16.8263 L -27.4019,-16.5 L -27.2283,-16.148
 L -27.1022,-15.7764 L -27.0257,-15.3916 L -27,-15 L -27.0257,-14.6084 L -27.1022,-14.2235 L -27.2283,-13.8519
 L -27.4019,-13.5 L -27.6199,-13.1737 L -27.8787,-12.8787 L -28.1737,-12.6199 L -28.5,-12.4019 L -28.8519,-12.2283
 L -29.2235,-12.1022 L -29.6084,-12.0257 L -30,-12 L -30.3916,-12.0257 L -30.7764,-12.1022 L -31.148,-12.2283
 L -31.5,-12.4019 L -31.8263,-12.6199 L -32.1213,-12.8787 L -32.3801,-13.1737 L -32.5981,-13.5 L -32.7716,-13.8519
 L -32.8978,-14.2235 L -32.9384,-14.428 L -33.2597,-13.7766 L -34.7733,-9.31747 L -35.692,-4.69893 L -36,-0
 L -35.692,4.69893 L -34.7733,9.31747 L -33.2597,13.7766 L -32.9384,14.428 L -32.8978,14.2235 L -32.7716,13.8519
 L -32.5981,13.5 L -32.3801,13.1737 L -32.1213,12.8787 L -31.8263,12.6199 L -31.5,12.4019 L -31.148,12.2283
 L -30.7764,12.1022 L -30.3916,12.0257 L -30,12 L -29.6084,12.0257 L -29.2235,12.1022 L -28.8519,12.2283
 L -28.5,12.4019 L -28.1737,12.6199 L -27.8787,12.8787 L -27.6199,13.1737 L -27.4019,13.5 L -27.2283,13.8519
 L -27.1022,14.2235 L -27.0257,14.6084 L -27,15 L -27.0257,15.3916 L -27.1022,15.7764 L -27.2283,16.148
 L -27.4019,16.5 L -27.6199,16.8263 L -27.8787,17.1213 L -28.1737,17.3801 L -28.5,17.5981 L -28.8519,17.7716
 L -29.2235,17.8978 L -29.6084,17.9743 L -30,18 L -30.3916,17.9743 L -30.7764,17.8978 L -31.148,17.7716
 L -31.335,17.6794 L -31.1769,18 L -28.5607,21.9154 L -25.4558,25.4558 L -21.9154,28.5607 L -18,31.1769
 L -17.6794,31.335 L -17.7716,31.148 L -17.8978,30.7764 L -17.9743,30.3916 L -18,30 L -17.9743,29.6084
 L -17.8978,29.2235 L -17.7716,28.8519 L -17.5981,28.5 L -17.3801,28.1737 L -17.1213,27.8787 L -16.8263,27.6199
 L -16.5,27.4019 L -16.148,27.2283 L -15.7764,27.1022 L -15.3916,27.0257 L -15,27 L -14.6084,27.0257
 L -14.2235,27.1022 L -13.8519,27.2283 L -13.5,27.4019 L -13.1737,27.6199 L -12.8787,27.8787 L -12.6199,28.1737
 L -12.4019,28.5 L -12.2283,28.8519 L -12.1022,29.2235 L -12.0257,29.6084 L -12,30 L -12.0257,30.3916
 L -12.1022,30.7764 L -12.2283,31.148 L -12.4019,31.5 L -12.6199,31.8263 L -12.8787,32.1213 L -13.1737,32.3801
 L -13.5,32.5981 L -13.8519,32.7716 L -14.2235,32.8978 L -14.428,32.9384 L -13.7766,33.2597 L -9.31747,34.7733
 L -4.69893,35.692 L 0,36 z
M -0.391571,-27.0257 L -0.776443,-27.1022 L -1.14804,-27.2283 L -1.5,-27.4019 L -1.82628,-27.6199 L -2.12131,-27.8787
 L -2.38005,-28.1737 L -2.59807,-28.5 L -2.77164,-28.8519 L -2.89777,-29.2235 L -2.97432,-29.6084 L -3,-30
 L -2.97432,-30.3916 L -2.89777,-30.7764 L -2.77164,-31.148 L -2.59807,-31.5 L -2.38005,-31.8263 L -2.12131,-32.1213
 L -1.82628,-32.3801 L -1.5,-32.5981 L -1.14804,-32.7716 L -0.776443,-32.8978 L -0.391571,-32.9743 L 0,-33
 L 0.391571,-32.9743 L 0.776443,-32.8978 L 1.14804,-32.7716 L 1.5,-32.5981 L 1.82628,-32.3801 L 2.12131,-32.1213
 L 2.38005,-31.8263 L 2.59807,-31.5 L 2.77164,-31.148 L 2.89777,-30.7764 L 2.97432,-30.3916 L 3,-30
 L 2.97432,-29.6084 L 2.89777,-29.2235 L 2.77164,-28.8519 L 2.59807,-28.5 L 2.38005,-28.1737 L 2.12131,-27.8787
 L 1.82628,-27.6199 L 1.5,-27.4019 L 1.14804,-27.2283 L 0.776443,-27.1022 L 0.391571,-27.0257 L 0,-27
 z
M 14.6084,-12.0257 L 14.2235,-12.1022 L 13.8519,-12.2283 L 13.5,-12.4019 L 13.1737,-12.6199 L 12.8787,-12.8787
 L 12.6199,-13.1737 L 12.4019,-13.5 L 12.2283,-13.8519 L 12.1022,-14.2235 L 12.0257,-14.6084 L 12,-15
 L 12.0257,-15.3916 L 12.1022,-15.7764 L 12.2283,-16.148 L 12.4019,-16.5 L 12.6199,-16.8263 L 12.8787,-17.1213
 L 13.1737,-17.3801 L 13.5,-17.5981 L 13.8519,-17.7716 L 14.2235,-17.8978 L 14.6084,-17.9743 L 15,-18
 L 15.3916,-17.9743 L 15.7764,-17.8978 L 16.148,-17.7716 L 16.5,-17.5981 L 16.8263,-17.3801 L 17.1213,-17.1213
 L 17.3801,-16.8263 L 17.5981,-16.5 L 17.7716,-16.148 L 17.8978,-15.7764 L 17.9743,-15.3916 L 18,-15
 L 17.9743,-14.6084 L 17.8978,-14.2235 L 17.7716,-13.8519 L 17.5981,-13.5 L 17.3801,-13.1737 L 17.1213,-12.8787
 L 16.8263,-12.6199 L 16.5,-12.4019 L 16.148,-12.2283 L 15.7764,-12.1022 L 15.3916,-12.0257 L 15,-12
 z
M -0.391571,-12.0257 L -0.776443,-12.1022 L -1.14804,-12.2283 L -1.5,-12.4019 L -1.82628,-12.6199 L -2.12131,-12.8787
 L -2.38005,-13.1737 L -2.59807,-13.5 L -2.77164,-13.8519 L -2.89777,-14.2235 L -2.97432,-14.6084 L -3,-15
 L -2.97432,-15.3916 L -2.89777,-15.7764 L -2.77164,-16.148 L -2.59807,-16.5 L -2.38005,-16.8263 L -2.12131,-17.1213
 L -1.82628,-17.3801 L -1.5,-17.5981 L -1.14804,-17.7716 L -0.776443,-17.8978 L -0.391571,-17.9743 L 0,-18
 L 0.391571,-17.9743 L 0.776443,-17.8978 L 1.14804,-17.7716 L 1.5,-17.5981 L 1.82628,-17.3801 L 2.12131,-17.1213
 L 2.38005,-16.8263 L 2.59807,-16.5 L 2.77164,-16.148 L 2.89777,-15.7764 L 2.97432,-15.3916 L 3,-15
 L 2.97432,-14.6084 L 2.89777,-14.2235 L 2.77164,-13.8519 L 2.59807,-13.5 L 2.38005,-13.1737 L 2.12131,-12.8787
 L 1.82628,-12.6199 L 1.5,-12.4019 L 1.14804,-12.2283 L 0.776443,-12.1022 L 0.391571,-12.0257 L 0,-12
 z
M -15.3916,-12.0257 L -15.7764,-12.1022 L -16.148,-12.2283 L -16.5,-12.4019 L -16.8263,-12.6199 L -17.1213,-12.8787
 L -17.3801,-13.1737 L -17.5981,-13.5 L -17.7716,-13.8519 L -17.8978,-14.2235 L -17.9743,-14.6084 L -18,-15
 L -17.9743,-15.3916 L -17.8978,-15.7764 L -17.7716,-16.148 L -17.5981,-16.5 L -17.3801,-16.8263 L -17.1213,-17.1213
 L -16.8263,-17.3801 L -16.5,-17.5981 L -16.148,-17.7716 L -15.7764,-17.8978 L -15.3916,-17.9743 L -15,-18
 L -14.6084,-17.9743 L -14.2235,-17.8978 L -13.8519,-17.7716 L -13.5,-17.5981 L -13.1737,-17.3801 L -12.8787,-17.1213
 L -12.6199,-16.8263 L -12.4019,-16.5 L -12.2283,-16.148 L -12.1022,-15.7764 L -12.0257,-15.3916 L -12,-15
 L -12.0257,-14.6084 L -12.1022,-14.2235 L -12.2283,-13.8519 L -12.4019,-13.5 L -12.6199,-13.1737 L -12.8787,-12.8787
 L -13.1737,-12.6199 L -13.5,-12.4019 L -13.8519,-12.2283 L -14.2235,-12.1022 L -14.6084,-12.0257 L -15,-12
 z
M 29.6084,2.97432 L 29.2235,2.89777 L 28.8519,2.77164 L 28.5,2.59807 L 28.1737,2.38005 L 27.8787,2.12131
 L 27.6199,1.82628 L 27.4019,1.5 L 27.2283,1.14804 L 27.1022,0.776443 L 27.0257,0.391571 L 27,-0
 L 27.0257,-0.391571 L 27.1022,-0.776443 L 27.2283,-1.14804 L 27.4019,-1.5 L 27.6199,-1.82628 L 27.8787,-2.12131
 L 28.1737,-2.38005 L 28.5,-2.59807 L 28.8519,-2.77164 L 29.2235,-2.89777 L 29.6084,-2.97432 L 30,-3
 L 30.3916,-2.97432 L 30.7764,-2.89777 L 31.148,-2.77164 L 31.5,-2.59807 L 31.8263,-2.38005 L 32.1213,-2.12131
 L 32.3801,-1.82628 L 32.5981,-1.5 L 32.7716,-1.14804 L 32.8978,-0.776443 L 32.9743,-0.391571 L 33,-0
 L 32.9743,0.391571 L 32.8978,0.776443 L 32.7716,1.14804 L 32.5981,1.5 L 32.3801,1.82628 L 32.1213,2.12131
 L 31.8263,2.38005 L 31.5,2.59807 L 31.148,2.77164 L 30.7764,2.89777 L 30.3916,2.97432 L 30,3
 z
M 14.6084,2.97432 L 14.2235,2.89777 L 13.8519,2.77164 L 13.5,2.59807 L 13.1737,2.38005 L 12.8787,2.12131
 L 12.6199,1.82628 L 12.4019,1.5 L 12.2283,1.14804 L 12.1022,0.776443 L 12.0257,0.391571 L 12,-0
 L 12.0257,-0.391571 L 12.1022,-0.776443 L 12.2283,-1.14804 L 12.4019,-1.5 L 12.6199,-1.82628 L 12.8787,-2.12131
 L 13.1737,-2.38005 L 13.5,-2.59807 L 13.8519,-2.77164 L 14.2235,-2.89777 L 14.6084,-2.97432 L 15,-3
 L 15.3916,-2.97432 L 15.7764,-2.89777 L 16.148,-2.77164 L 16.5,-2.59807 L 16.8263,-2.38005 L 17.1213,-2.12131
 L 17.3801,-1.82628 L 17.5981,-1.5 L 17.7716,-1.14804 L 17.8978,-0.776443 L 17.9743,-0.391571 L 18,-0
 L 17.9743,0.391571 L 17.8978,0.776443 L 17.7716,1.14804 L 17.5981,1.5 L 17.3801,1.82628 L 17.1213,2.12131
 L 16.8263,2.38005 L 16.5,2.59807 L 16.148,2.77164 L 15.7764,2.89777 L 15.3916,2.97432 L 15,3
 z
M -0.391571,2.97432 L -0.776443,2.89777 L -1.14804,2.77164 L -1.5,2.59807 L -1.82628,2.38005 L -2.12131,2.12131
 L -2.38005,1.82628 L -2.59807,1.5 L -2.77164,1.14804 L -2.89777,0.776443 L -2.97432,0.391571 L -3,-0
 L -2.97432,-0.391571 L -2.89777,-0.776443 L -2.77164,-1.14804 L -2.59807,-1.5 L -2.38005,-1.82628 L -2.12131,-2.12131
 L -1.82628,-2.38005 L -1.5,-2.59807 L -1.14804,-2.77164 L -0.776443,-2.89777 L -0.391571,-2.97432 L 0,-3
 L 0.391571,-2.97432 L 0.776443,-2.89777 L 1.14804,-2.77164 L 1.5,-2.59807 L 1.82628,-2.38005 L 2.12131,-2.12131
 L 2.38005,-1.82628 L 2.59807,-1.5 L 2.77164,-1.14804 L 2.89777,-0.776443 L 2.97432,-0.391571 L 3,-0
 L 2.97432,0.391571 L 2.89777,0.776443 L 2.77164,1.14804 L 2.59807,1.5 L 2.38005,1.82628 L 2.12131,2.12131
 L 1.82628,2.38005 L 1.5,2.59807 L 1.14804,2.77164 L 0.776443,2.89777 L 0.391571,2.97432 L 0,3
 z
M -30.3916,2.97432 L -30.7764,2.89777 L -31.148,2.77164 L -31.5,2.59807 L -31.8263,2.38005 L -32.1213,2.12131
 L -32.3801,1.82628 L -32.5981,1.5 L -32.7716,1.14804 L -32.8978,0.776443 L -32.9743,0.391571 L -33,-0
 L -32.9743,-0.391571 L -32.8978,-0.776443 L -32.7716,-1.14804 L -32.5981,-1.5 L -32.3801,-1.82628 L -32.1213,-2.12131
 L -31.8263,-2.38005 L -31.5,-2.59807 L -31.148,-2.77164 L -30.7764,-2.89777 L -30.3916,-2.97432 L -30,-3
 L -29.6084,-2.97432 L -29.2235,-2.89777 L -28.8519,-2.77164 L -28.5,-2.59807 L -28.1737,-2.38005 L -27.8787,-2.12131
 L -27.6199,-1.82628 L -27.4019,-1.5 L -27.2283,-1.14804 L -27.1022,-0.776443 L -27.0257,-0.391571 L -27,-0
 L -27.0257,0.391571 L -27.1022,0.776443 L -27.2283,1.14804 L -27.4019,1.5 L -27.6199,1.82628 L -27.8787,2.12131
 L -28.1737,2.38005 L -28.5,2.59807 L -28.8519,2.77164 L -29.2235,2.89777 L -29.6084,2.97432 L -30,3
 z
M -15.3916,2.97432 L -15.7764,2.89777 L -16.148,2.77164 L -16.5,2.59807 L -16.8263,2.38005 L -17.1213,2.12131
 L -17.3801,1.82628 L -17.5981,1.5 L -17.7716,1.14804 L -17.8978,0.776443 L -17.9743,0.391571 L -18,-0
 L -17.9743,-0.391571 L -17.8978,-0.776443 L -17.7716,-1.14804 L -17.5981,-1.5 L -17.3801,-1.82628 L -17.1213,-2.12131
 L -16.8263,-2.38005 L -16.5,-2.59807 L -16.148,-2.77164 L -15.7764,-2.89777 L -15.3916,-2.97432 L -15,-3
 L -14.6084,-2.97432 L -14.2235,-2.89777 L -13.8519,-2.77164 L -13.5,-2.59807 L -13.1737,-2.38005 L -12.8787,-2.12131
 L -12.6199,-1.82628 L -12.4019,-1.5 L -12.2283,-1.14804 L -12.1022,-0.776443 L -12.0257,-0.391571 L -12,-0
 L -12.0257,0.391571 L -12.1022,0.776443 L -12.2283,1.14804 L -12.4019,1.5 L -12.6199,1.82628 L -12.8787,2.12131
 L -13.1737,2.38005 L -13.5,2.59807 L -13.8519,2.77164 L -14.2235,2.89777 L -14.6084,2.97432 L -15,3
 z
M 14.6084,17.9743 L 14.2235,17.8978 L 13.8519,17.7716 L 13.5,17.5981 L 13.1737,17.3801 L 12.8787,17.1213
 L 12.6199,16.8263 L 12.4019,16.5 L 12.2283,16.148 L 12.1022,15.7764 L 12.0257,15.3916 L 12,15
 L 12.0257,14.6084 L 12.1022,14.2235 L 12.2283,13.8519 L 12.4019,13.5 L 12.6199,13.1737 L 12.8787,12.8787
 L 13.1737,12.6199 L 13.5,12.4019 L 13.8519,12.2283 L 14.2235,12.1022 L 14.6084,12.0257 L 15,12
 L 15.3916,12.0257 L 15.7764,12.1022 L 16.148,12.2283 L 16.5,12.4019 L 16.8263,12.6199 L 17.1213,12.8787
 L 17.3801,13.1737 L 17.5981,13.5 L 17.7716,13.8519 L 17.8978,14.2235 L 17.9743,14.6084 L 18,15
 L 17.9743,15.3916 L 17.8978,15.7764 L 17.7716,16.148 L 17.5981,16.5 L 17.3801,16.8263 L 17.1213,17.1213
 L 16.8263,17.3801 L 16.5,17.5981 L 16.148,17.7716 L 15.7764,17.8978 L 15.3916,17.9743 L 15,18
 z
M -0.391571,17.9743 L -0.776443,17.8978 L -1.14804,17.7716 L -1.5,17.5981 L -1.82628,17.3801 L -2.12131,17.1213
 L -2.38005,16.8263 L -2.59807,16.5 L -2.77164,16.148 L -2.89777,15.7764 L -2.97432,15.3916 L -3,15
 L -2.97432,14.6084 L -2.89777,14.2235 L -2.77164,13.8519 L -2.59807,13.5 L -2.38005,13.1737 L -2.12131,12.8787
 L -1.82628,12.6199 L -1.5,12.4019 L -1.14804,12.2283 L -0.776443,12.1022 L -0.391571,12.0257 L 0,12
 L 0.391571,12.0257 L 0.776443,12.1022 L 1.14804,12.2283 L 1.5,12.4019 L 1.82628,12.6199 L 2.12131,12.8787
 L 2.38005,13.1737 L 2.59807,13.5 L 2.77164,13.8519 L 2.89777,14.2235 L 2.97432,14.6084 L 3,15
 L 2.97432,15.3916 L 2.89777,15.7764 L 2.77164,16.148 L 2.59807,16.5 L 2.38005,16.8263 L 2.12131,17.1213
 L 1.82628,17.3801 L 1.5,17.5981 L 1.14804,17.7716 L 0.776443,17.8978 L 0.391571,17.9743 L 0,18
 z
M -15.3916,17.9743 L -15.7764,17.8978 L -16.148,17.7716 L -16.5,17.5981 L -16.8263,17.3801 L -17.1213,17.1213
 L -17.3801,16.8263 L -17.5981,16.5 L -17.7716,16.148 L -17.8978,15.7764 L -17.9743,15.3916 L -18,15
 L -17.9743,14.6084 L -17.8978,14.2235 L -17.7716,13.8519 L -17.5981,13.5 L -17.3801,13.1737 L -17.1213,12.8787
 L -16.8263,12.6199 L -16.5,12.4019 L -16.148,12.2283 L -15.7764,12.1022 L -15.3916,12.0257 L -15,12
 L -14.6084,12.0257 L -14.2235,12.1022 L -13.8519,12.2283 L -13.5,12.4019 L -13.1737,12.6199 L -12.8787,12.8787
 L -12.6199,13.1737 L -12.4019,13.5 L -12.2283,13.8519 L -12.1022,14.2235 L -12.0257,14.6084 L -12,15
 L -12.0257,15.3916 L -12.1022,15.7764 L -12.2283,16.148 L -12.4019,16.5 L -12.6199,16.8263 L -12.8787,17.1213
 L -13.1737,17.3801 L -13.5,17.5981 L -13.8519,17.7716 L -14.2235,17.8978 L -14.6084,17.9743 L -15,18
 z
M -0.391571,32.9743 L -0.776443,32.8978 L -1.14804,32.7716 L -1.5,32.5981 L -1.82628,32.3801 L -2.12131,32.1213
 L -2.38005,31.8263 L -2.59807,31.5 L -2.77164,31.148 L -2.89777,30.7764 L -2.97432,30.3916 L -3,30
 L -2.97432,29.6084 L -2.89777,29.2235 L -2.77164,28.8519 L -2.59807,28.5 L -2.38005,28.1737 L -2.12131,27.8787
 L -1.82628,27.6199 L -1.5,27.4019 L -1.14804,27.2283 L -0.776443,27.1022 L -0.391571,27.0257 L 0,27
 L 0.391571,27.0257 L 0.776443,27.1022 L 1.14804,27.2283 L 1.5,27.4019 L 1.82628,27.6199 L 2.12131,27.8787
 L 2.38005,28.1737 L 2.59807,28.5 L 2.77164,28.8519 L 2.89777,29.2235 L 2.97432,29.6084 L 3,30
 L 2.97432,30.3916 L 2.89777,30.7764 L 2.77164,31.148 L 2.59807,31.5 L 2.38005,31.8263 L 2.12131,32.1213
 L 1.82628,32.3801 L 1.5,32.5981 L 1.14804,32.7716 L 0.776443,32.8978 L 0.391571,32.9743 L 0,33
 z
" stroke="black" fill="lightgray" stroke-width="0.5"/>
</svg>
