<?xml version="1.0" standalone="no"?>
<!DOCTYPE svg PUBLIC "-//W3C//DTD SVG 1.1//EN" "http://www.w3.org/Graphics/SVG/1.1/DTD/svg11.dtd">
<svg width="72mm" height="72mm" viewBox="-36 -36 72 72" xmlns="http://www.w3.org/2000/svg" version="1.1">
<title>OpenSCAD Model</title>
<path d="
M 6.74571,35.3623 L 11.1246,34.238 L 15.328,32.5738 L 19.2898,30.3958 L 22.9473,27.7385 L 26.2429,24.6437
 L 29.1246,21.1603 L 31.547,17.3431 L 33.4719,13.2525 L 34.869,8.95284 L 35.7161,4.51199 L 36,-0
 L 35.7161,-4.51199 L 34.869,-8.95284 L 33.4719,-13.2525 L 31.547,-17.3431 L 29.1246,-21.1603 L 26.2429,-24.6437
 L 22.9473,-27.7385 L 19.2898,-30.3958 L 15.328,-32.5738 L 11.1246,-34.238 L 6.74571,-35.3623 L 2.26045,-35.929
 L -2.26045,-35.929 L -6.74571,-35.3623 L -11.1246,-34.238 L -15.328,-32.5738 L -19.2898,-30.3958 L -22.9473,-27.7385
 L -26.2429,-24.6437 L -29.1246,-21.1603 L -31.547,-17.3431 L -33.4719,-13.2525 L -34.869,-8.95284 L -35.7161,-4.51199
 L -36,-0 L -35.7161,4.51199 L -34.869,8.95284 L -33.4719,13.2525 L -31.547,17.3431 L -29.1246,21.1603
 L -26.2429,24.6437 L -22.9473,27.7385 L -19.2898,30.3958 L -15.328,32.5738 L -11.1246,34.238 L -6.74571,35.3623
 L -2.26045,35.929 L 2.26045,35.929 z
M -0.204056,-26.7564 L -0.608978,-26.8076 L -1.0043,-26.9091 L -1.38377,-27.0593 L -1.74142,-27.2559 L -2.07162,-27.4958
 L -2.36914,-27.7752 L -2.6293,-28.0897 L -2.84799,-28.4343 L -3.02176,-28.8036 L -3.14789,-29.1918 L -3.22437,-29.5927
 L -3.25,-30 L -3.22437,-30.4073 L -3.14789,-30.8082 L -3.02176,-31.1964 L -2.84799,-31.5657 L -2.6293,-31.9103
 L -2.36914,-32.2248 L -2.07162,-32.5042 L -1.74142,-32.7441 L -1.38377,-32.9407 L -1.0043,-33.0909 L -0.608978,-33.1924
 L -0.204056,-33.2436 L 0.204056,-33.2436 L 0.608978,-33.1924 L 1.0043,-33.0909 L 1.38377,-32.9407 L 1.74142,-32.7441
 L 2.07162,-32.5042 L 2.36914,-32.2248 L 2.6293,-31.9103 L 2.84799,-31.5657 L 3.02176,-31.1964 L 3.14789,-30.8082
 L 3.22437,-30.4073 L 3.25,-30 L 3.22437,-29.5927 L 3.14789,-29.1918 L 3.02176,-28.8036 L 2.84799,-28.4343
 L 2.6293,-28.0897 L 2.36914,-27.7752 L 2.07162,-27.4958 L 1.74142,-27.2559 L 1.38377,-27.0593 L 1.0043,-26.9091
 L 0.608978,-26.8076 L 0.204056,-26.7564 z
M 14.7959,-11.7564 L 14.391,-11.8076 L 13.9957,-11.9091 L 13.6162,-12.0593 L 13.2586,-12.2559 L 12.9284,-12.4958
 L 12.6308,-12.7752 L 12.3707,-13.0897 L 12.152,-13.4343 L 11.9782,-13.8036 L 11.8521,-14.1918 L 11.7756,-14.5927
 L 11.75,-15 L 11.7756,-15.4073 L 11.8521,-15.8082 L 11.9782,-16.1964 L 12.152,-16.5657 L 12.3707,-16.9103
 L 12.6308,-17.2248 L 12.9284,-17.5042 L 13.2586,-17.7441 L 13.6162,-17.9407 L 13.9957,-18.0909 L 14.391,-18.1924
 L 14.7959,-18.2436 L 15.2041,-18.2436 L 15.609,-18.1924 L 16.0043,-18.0909 L 16.3838,-17.9407 L 16.7414,-17.7441
 L 17.0716,-17.5042 L 17.3691,-17.2248 L 17.6293,-16.9103 L 17.848,-16.5657 L 18.0218,-16.1964 L 18.1479,-15.8082
 L 18.2244,-15.4073 L 18.25,-15 L 18.2244,-14.5927 L 18.1479,-14.1918 L 18.0218,-13.8036 L 17.848,-13.4343
 L 17.6293,-13.0897 L 17.3691,-12.7752 L 17.0716,-12.4958 L 16.7414,-12.2559 L 16.3838,-12.0593 L 16.0043,-11.9091
 L 15.609,-11.8076 L 15.2041,-11.7564 z
M -0.204056,-11.7564 L -0.608978,-11.8076 L -1.0043,-11.9091 L -1.38377,-12.0593 L -1.74142,-12.2559 L -2.07162,-12.4958
 L -2.36914,-12.7752 L -2.6293,-13.0897 L -2.84799,-13.4343 L -3.02176,-13.8036 L -3.14789,-14.1918 L -3.22437,-14.5927
 L -3.25,-15 L -3.22437,-15.4073 L -3.14789,-15.8082 L -3.02176,-16.1964 L -2.84799,-16.5657 L -2.6293,-16.9103
 L -2.36914,-17.2248 L -2.07162,-17.5042 L -1.74142,-17.7441 L -1.38377,-17.9407 L -1.0043,-18.0909 L -0.608978,-18.1924
 L -0.204056,-18.2436 L 0.204056,-18.2436 L 0.608978,-18.1924 L 1.0043,-18.0909 L 1.38377,-17.9407 L 1.74142,-17.7441
 L 2.07162,-17.5042 L 2.36914,-17.2248 L 2.6293,-16.9103 L 2.84799,-16.5657 L 3.02176,-16.1964 L 3.14789,-15.8082
 L 3.22437,-15.4073 L 3.25,-15 L 3.22437,-14.5927 L 3.14789,-14.1918 L 3.02176,-13.8036 L 2.84799,-13.4343
 L 2.6293,-13.0897 L 2.36914,-12.7752 L 2.07162,-12.4958 L 1.74142,-12.2559 L 1.38377,-12.0593 L 1.0043,-11.9091
 L 0.608978,-11.8076 L 0.204056,-11.7564 z
M -15.2041,-11.7564 L -15.609,-11.8076 L -16.0043,-11.9091 L -16.3838,-12.0593 L -16.7414,-12.2559 L -17.0716,-12.4958
 L -17.3691,-12.7752 L -17.6293,-13.0897 L -17.848,-13.4343 L -18.0218,-13.8036 L -18.1479,-14.1918 L -18.2244,-14.5927
 L -18.25,-15 L -18.2244,-15.4073 L -18.1479,-15.8082 L -18.0218,-16.1964 L -17.848,-16.5657 L -17.6293,-16.9103
 L -17.3691,-17.2248 L -17.0716,-17.5042 L -16.7414,-17.7441 L -16.3838,-17.9407 L -16.0043,-18.0909 L -15.609,-18.1924
 L -15.2041,-18.2436 L -14.7959,-18.2436 L -14.391,-18.1924 L -13.9957,-18.0909 L -13.6162,-17.9407 L -13.2586,-17.7441
 L -12.9284,-17.5042 L -12.6308,-17.2248 L -12.3707,-16.9103 L -12.152,-16.5657 L -11.9782,-16.1964 L -11.8521,-15.8082
 L -11.7756,-15.4073 L -11.75,-15 L -11.7756,-14.5927 L -11.8521,-14.1918 L -11.9782,-13.8036 L -12.152,-13.4343
 L -12.3707,-13.0897 L -12.6308,-12.7752 L -12.9284,-12.4958 L -13.2586,-12.2559 L -13.6162,-12.0593 L -13.9957,-11.9091
 L -14.391,-11.8076 L -14.7959,-11.7564 z
M -30.2041,3.24358 L -30.609,3.19243 L -31.0043,3.09093 L -31.3838,2.94067 L -31.7414,2.74406 L -32.0716,2.50417
 L -32.3691,2.22478 L -32.6293,1.91029 L -32.848,1.56569 L -33.0218,1.1964 L -33.1479,0.808228 L -33.2244,0.407318
 L -33.25,-0 L -33.2244,-0.407318 L -33.1479,-0.808228 L -33.0218,-1.1964 L -32.848,-1.56569 L -32.6293,-1.91029
 L -32.3691,-2.22478 L -32.0716,-2.50417 L -31.7414,-2.74406 L -31.3838,-2.94067 L -31.0043,-3.09093 L -30.609,-3.19243
 L -30.2041,-3.24358 L -29.7959,-3.24358 L -29.391,-3.19243 L -28.9957,-3.09093 L -28.6162,-2.94067 L -28.2586,-2.74406
 L -27.9284,-2.50417 L -27.6308,-2.22478 L -27.3707,-1.91029 L -27.152,-1.56569 L -26.9782,-1.1964 L -26.8521,-0.808228
 L -26.7756,-0.407318 L -26.75,-0 L -26.7756,0.407318 L -26.8521,0.808228 L -26.9782,1.1964 L -27.152,1.56569
 L -27.3707,1.91029 L -27.6308,2.22478 L -27.9284,2.50417 L -28.2586,2.74406 L -28.6162,2.94067 L -28.9957,3.09093
 L -29.391,3.19243 L -29.7959,3.24358 z
M 29.7959,3.24358 L 29.391,3.19243 L 28.9957,3.09093 L 28.6162,2.94067 L 28.2586,2.74406 L 27.9284,2.50417
 L 27.6308,2.22478 L 27.3707,1.91029 L 27.152,1.56569 L 26.9782,1.1964 L 26.8521,0.808228 L 26.7756,0.407318
 L 26.75,-0 L 26.7756,-0.407318 L 26.8521,-0.808228 L 26.9782,-1.1964 L 27.152,-1.56569 L 27.3707,-1.91029
 L 27.6308,-2.22478 L 27.9284,-2.50417 L 28.2586,-2.74406 L 28.6162,-2.94067 L 28.9957,-3.09093 L 29.391,-3.19243
 L 29.7959,-3.24358 L 30.2041,-3.24358 L 30.609,-3.19243 L 31.0043,-3.09093 L 31.3838,-2.94067 L 31.7414,-2.74406
 L 32.0716,-2.50417 L 32.3691,-2.22478 L 32.6293,-1.91029 L 32.848,-1.56569 L 33.0218,-1.1964 L 33.1479,-0.808228
 L 33.2244,-0.407318 L 33.25,-0 L 33.2244,0.407318 L 33.1479,0.808228 L 33.0218,1.1964 L 32.848,1.56569
 L 32.6293,1.91029 L 32.3691,2.22478 L 32.0716,2.50417 L 31.7414,2.74406 L 31.3838,2.94067 L 31.0043,3.09093
 L 30.609,3.19243 L 30.2041,3.24358 z
M 14.7959,3.24358 L 14.391,3.19243 L 13.9957,3.09093 L 13.6162,2.94067 L 13.2586,2.74406 L 12.9284,2.50417
 L 12.6308,2.22478 L 12.3707,1.91029 L 12.152,1.56569 L 11.9782,1.1964 L 11.8521,0.808228 L 11.7756,0.407318
 L 11.75,-0 L 11.7756,-0.407318 L 11.8521,-0.808228 L 11.9782,-1.1964 L 12.152,-1.56569 L 12.3707,-1.91029
 L 12.6308,-2.22478 L 12.9284,-2.50417 L 13.2586,-2.74406 L 13.6162,-2.94067 L 13.9957,-3.09093 L 14.391,-3.19243
 L 14.7959,-3.24358 L 15.2041,-3.24358 L 15.609,-3.19243 L 16.0043,-3.09093 L 16.3838,-2.94067 L 16.7414,-2.74406
 L 17.0716,-2.50417 L 17.3691,-2.22478 L 17.6293,-1.91029 L 17.848,-1.56569 L 18.0218,-1.1964 L 18.1479,-0.808228
 L 18.2244,-0.407318 L 18.25,-0 L 18.2244,0.407318 L 18.1479,0.808228 L 18.0218,1.1964 L 17.848,1.56569
 L 17.6293,1.91029 L 17.3691,2.22478 L 17.0716,2.50417 L 16.7414,2.74406 L 16.3838,2.94067 L 16.0043,3.09093
 L 15.609,3.19243 L 15.2041,3.24358 z
M -0.204056,3.24358 L -0.608978,3.19243 L -1.0043,3.09093 L -1.38377,2.94067 L -1.74142,2.74406 L -2.07162,2.50417
 L -2.36914,2.22478 L -2.6293,1.91029 L -2.84799,1.56569 L -3.02176,1.1964 L -3.14789,0.808228 L -3.22437,0.407318
 L -3.25,-0 L -3.22437,-0.407318 L -3.14789,-0.808228 L -3.02176,-1.1964 L -2.84799,-1.56569 L -2.6293,-1.91029
 L -2.36914,-2.22478 L -2.07162,-2.50417 L -1.74142,-2.74406 L -1.38377,-2.94067 L -1.0043,-3.09093 L -0.608978,-3.19243
 L -0.204056,-3.24358 L 0.204056,-3.24358 L 0.608978,-3.19243 L 1.0043,-3.09093 L 1.38377,-2.94067 L 1.74142,-2.74406
 L 2.07162,-2.50417 L 2.36914,-2.22478 L 2.6293,-1.91029 L 2.84799,-1.56569 L 3.02176,-1.1964 L 3.14789,-0.808228
 L 3.22437,-0.407318 L 3.25,-0 L 3.22437,0.407318 L 3.14789,0.808228 L 3.02176,1.1964 L 2.84799,1.56569
 L 2.6293,1.91029 L 2.36914,2.22478 L 2.07162,2.50417 L 1.74142,2.74406 L 1.38377,2.94067 L 1.0043,3.09093
 L 0.608978,3.19243 L 0.204056,3.24358 z
M -15.2041,3.24358 L -15.609,3.19243 L -16.0043,3.09093 L -16.3838,2.94067 L -16.7414,2.74406 L -17.0716,2.50417
 L -17.3691,2.22478 L -17.6293,1.91029 L -17.848,1.56569 L -18.0218,1.1964 L -18.1479,0.808228 L -18.2244,0.407318
 L -18.25,-0 L -18.2244,-0.407318 L -18.1479,-0.808228 L -18.0218,-1.1964 L -17.848,-1.56569 L -17.6293,-1.91029
 L -17.3691,-2.22478 L -17.0716,-2.50417 L -16.7414,-2.74406 L -16.3838,-2.94067 L -16.0043,-3.09093 L -15.609,-3.19243
 L -15.2041,-3.24358 L -14.7959,-3.24358 L -14.391,-3.19243 L -13.9957,-3.09093 L -13.6162,-2.94067 L -13.2586,-2.74406
 L -12.9284,-2.50417 L -12.6308,-2.22478 L -12.3707,-1.91029 L -12.152,-1.56569 L -11.9782,-1.1964 L -11.8521,-0.808228
 L -11.7756,-0.407318 L -11.75,-0 L -11.7756,0.407318 L -11.8521,0.808228 L -11.9782,1.1964 L -12.152,1.56569
 L -12.3707,1.91029 L -12.6308,2.22478 L -12.9284,2.50417 L -13.2586,2.74406 L -13.6162,2.94067 L -13.9957,3.09093
 L -14.391,3.19243 L -14.7959,3.24358 z
M -15.2041,18.2436 L -15.609,18.1924 L -16.0043,18.0909 L -16.3838,17.9407 L -16.7414,17.7441 L -17.0716,17.5042
 L -17.3691,17.2248 L -17.6293,16.9103 L -17.848,16.5657 L -18.0218,16.1964 L -18.1479,15.8082 L -18.2244,15.4073
 L -18.25,15 L -18.2244,14.5927 L -18.1479,14.1918 L -18.0218,13.8036 L -17.848,13.4343 L -17.6293,13.0897
 L -17.3691,12.7752 L -17.0716,12.4958 L -16.7414,12.2559 L -16.3838,12.0593 L -16.0043,11.9091 L -15.609,11.8076
 L -15.2041,11.7564 L -14.7959,11.7564 L -14.391,11.8076 L -13.9957,11.9091 L -13.6162,12.0593 L -13.2586,12.2559
 L -12.9284,12.4958 L -12.6308,12.7752 L -12.3707,13.0897 L -12.152,13.4343 L -11.9782,13.8036 L -11.8521,14.1918
 L -11.7756,14.5927 L -11.75,15 L -11.7756,15.4073 L -11.8521,15.8082 L -11.9782,16.1964 L -12.152,16.5657
 L -12.3707,16.9103 L -12.6308,17.2248 L -12.9284,17.5042 L -13.2586,17.7441 L -13.6162,17.9407 L -13.9957,18.0909
 L -14.391,18.1924 L -14.7959,18.2436 z
M -0.204056,18.2436 L -0.608978,18.1924 L -1.0043,18.0909 L -1.38377,17.9407 L -1.74142,17.7441 L -2.07162,17.5042
 L -2.36914,17.2248 L -2.6293,16.9103 L -2.84799,16.5657 L -3.02176,16.1964 L -3.14789,15.8082 L -3.22437,15.4073
 L -3.25,15 L -3.22437,14.5927 L -3.14789,14.1918 L -3.02176,13.8036 L -2.84799,13.4343 L -2.6293,13.0897
 L -2.36914,12.7752 L -2.07162,12.4958 L -1.74142,12.2559 L -1.38377,12.0593 L -1.0043,11.9091 L -0.608978,11.8076
 L -0.204056,11.7564 L 0.204056,11.7564 L 0.608978,11.8076 L 1.0043,11.9091 L 1.38377,12.0593 L 1.74142,12.2559
 L 2.07162,12.4958 L 2.36914,12.7752 L 2.6293,13.0897 L 2.84799,13.4343 L 3.02176,13.8036 L 3.14789,14.1918
 L 3.22437,14.5927 L 3.25,15 L 3.22437,15.4073 L 3.14789,15.8082 L 3.02176,16.1964 L 2.84799,16.5657
 L 2.6293,16.9103 L 2.36914,17.2248 L 2.07162,17.5042 L 1.74142,17.7441 L 1.38377,17.9407 L 1.0043,18.0909
 L 0.608978,18.1924 L 0.204056,18.2436 z
M 14.7959,18.2436 L 14.391,18.1924 L 13.9957,18.0909 L 13.6162,17.9407 L 13.2586,17.7441 L 12.9284,17.5042
 L 12.6308,17.2248 L 12.3707,16.9103 L 12.152,16.5657 L 11.9782,16.1964 L 11.8521,15.8082 L 11.7756,15.4073
 L 11.75,15 L 11.7756,14.5927 L 11.8521,14.1918 L 11.9782,13.8036 L 12.152,13.4343 L 12.3707,13.0897
 L 12.6308,12.7752 L 12.9284,12.4958 L 13.2586,12.2559 L 13.6162,12.0593 L 13.9957,11.9091 L 14.391,11.8076
 L 14.7959,11.7564 L 15.2041,11.7564 L 15.609,11.8076 L 16.0043,11.9091 L 16.3838,12.0593 L 16.7414,12.2559
 L 17.0716,12.4958 L 17.3691,12.7752 L 17.6293,13.0897 L 17.848,13.4343 L 18.0218,13.8036 L 18.1479,14.1918
 L 18.2244,14.5927 L 18.25,15 L 18.2244,15.4073 L 18.1479,15.8082 L 18.0218,16.1964 L 17.848,16.5657
 L 17.6293,16.9103 L 17.3691,17.2248 L 17.0716,17.5042 L 16.7414,17.7441 L 16.3838,17.9407 L 16.0043,18.0909
 L 15.609,18.1924 L 15.2041,18.2436 z
M -0.204056,33.2436 L -0.608978,33.1924 L -1.0043,33.0909 L -1.38377,32.9407 L -1.74142,32.7441 L -2.07162,32.5042
 L -2.36914,32.2248 L -2.6293,31.9103 L -2.84799,31.5657 L -3.02176,31.1964 L -3.14789,30.8082 L -3.22437,30.4073
 L -3.25,30 L -3.22437,29.5927 L -3.14789,29.1918 L -3.02176,28.8036 L -2.84799,28.4343 L -2.6293,28.0897
 L -2.36914,27.7752 L -2.07162,27.4958 L -1.74142,27.2559 L -1.38377,27.0593 L -1.0043,26.9091 L -0.608978,26.8076
 L -0.204056,26.7564 L 0.204056,26.7564 L 0.608978,26.8076 L 1.0043,26.9091 L 1.38377,27.0593 L 1.74142,27.2559
 L 2.07162,27.4958 L 2.36914,27.7752 L 2.6293,28.0897 L 2.84799,28.4343 L 3.02176,28.8036 L 3.14789,29.1918
 L 3.22437,29.5927 L 3.25,30 L 3.22437,30.4073 L 3.14789,30.8082 L 3.02176,31.1964 L 2.84799,31.5657
 L 2.6293,31.9103 L 2.36914,32.2248 L 2.07162,32.5042 L 1.74142,32.7441 L 1.38377,32.9407 L 1.0043,33.0909
 L 0.608978,33.1924 L 0.204056,33.2436 z
" stroke="black" fill="lightgray" stroke-width="0.5"/>
</svg>
