<?xml version="1.0" standalone="no"?>
<!DOCTYPE svg PUBLIC "-//W3C//DTD SVG 1.1//EN" "http://www.w3.org/Graphics/SVG/1.1/DTD/svg11.dtd">
<svg width="57mm" height="42mm" viewBox="9 -51 57 42" xmlns="http://www.w3.org/2000/svg" version="1.1">
<title>OpenSCAD Model</title>
<path d="
M 61,-9.00986 L 61.3139,-9.00986 L 61.9369,-9.08856 L 62.5451,-9.24471 L 63.1289,-9.47586 L 63.6791,-9.77835
 L 64.1871,-10.1474 L 64.6448,-10.5773 L 65.0451,-11.0611 L 65.3815,-11.5912 L 65.6489,-12.1594 L 65.8429,-12.7565
 L 65.9606,-13.3733 L 66,-14 L 66,-46 L 65.9606,-46.6267 L 65.8429,-47.2434 L 65.6489,-47.8406
 L 65.3815,-48.4088 L 65.0451,-48.9389 L 64.6448,-49.4227 L 64.1871,-49.8526 L 63.6791,-50.2216 L 63.1289,-50.5241
 L 62.5451,-50.7553 L 61.9369,-50.9114 L 61.3139,-50.9901 L 61,-50.9901 L 61,-51 L 14,-51
 L 14,-50.9901 L 13.686,-50.9901 L 13.0631,-50.9114 L 12.4549,-50.7553 L 11.8711,-50.5241 L 11.3209,-50.2216
 L 10.8129,-49.8526 L 10.3551,-49.4227 L 9.95491,-48.9389 L 9.61845,-48.4088 L 9.3511,-47.8406 L 9.15707,-47.2434
 L 9.03941,-46.6267 L 9,-46 L 9,-14 L 9.03941,-13.3733 L 9.15707,-12.7565 L 9.3511,-12.1594
 L 9.61845,-11.5912 L 9.95491,-11.0611 L 10.3551,-10.5773 L 10.8129,-10.1474 L 11.3209,-9.77835 L 11.8711,-9.47586
 L 12.4549,-9.24471 L 13.0631,-9.08856 L 13.686,-9.00986 L 14,-9.00986 L 14,-9 L 61,-9
 z
M 14.7959,-41.7564 L 14.391,-41.8076 L 13.9957,-41.9091 L 13.6162,-42.0593 L 13.2586,-42.2559 L 12.9284,-42.4958
 L 12.6308,-42.7752 L 12.3707,-43.0897 L 12.152,-43.4343 L 11.9782,-43.8036 L 11.8521,-44.1918 L 11.7756,-44.5927
 L 11.75,-45 L 11.7756,-45.4073 L 11.8521,-45.8082 L 11.9782,-46.1964 L 12.152,-46.5657 L 12.3707,-46.9103
 L 12.6308,-47.2248 L 12.9284,-47.5042 L 13.2586,-47.7441 L 13.6162,-47.9407 L 13.9957,-48.0909 L 14.391,-48.1924
 L 14.7959,-48.2436 L 15.2041,-48.2436 L 15.609,-48.1924 L 16.0043,-48.0909 L 16.3838,-47.9407 L 16.7414,-47.7441
 L 17.0716,-47.5042 L 17.3691,-47.2248 L 17.6293,-46.9103 L 17.848,-46.5657 L 18.0218,-46.1964 L 18.1479,-45.8082
 L 18.2244,-45.4073 L 18.25,-45 L 18.2244,-44.5927 L 18.1479,-44.1918 L 18.0218,-43.8036 L 17.848,-43.4343
 L 17.6293,-43.0897 L 17.3691,-42.7752 L 17.0716,-42.4958 L 16.7414,-42.2559 L 16.3838,-42.0593 L 16.0043,-41.9091
 L 15.609,-41.8076 L 15.2041,-41.7564 z
M 29.7959,-41.7564 L 29.391,-41.8076 L 28.9957,-41.9091 L 28.6162,-42.0593 L 28.2586,-42.2559 L 27.9284,-42.4958
 L 27.6308,-42.7752 L 27.3707,-43.0897 L 27.152,-43.4343 L 26.9782,-43.8036 L 26.8521,-44.1918 L 26.7756,-44.5927
 L 26.75,-45 L 26.7756,-45.4073 L 26.8521,-45.8082 L 26.9782,-46.1964 L 27.152,-46.5657 L 27.3707,-46.9103
 L 27.6308,-47.2248 L 27.9284,-47.5042 L 28.2586,-47.7441 L 28.6162,-47.9407 L 28.9957,-48.0909 L 29.391,-48.1924
 L 29.7959,-48.2436 L 30.2041,-48.2436 L 30.609,-48.1924 L 31.0043,-48.0909 L 31.3838,-47.9407 L 31.7414,-47.7441
 L 32.0716,-47.5042 L 32.3691,-47.2248 L 32.6293,-46.9103 L 32.848,-46.5657 L 33.0218,-46.1964 L 33.1479,-45.8082
 L 33.2244,-45.4073 L 33.25,-45 L 33.2244,-44.5927 L 33.1479,-44.1918 L 33.0218,-43.8036 L 32.848,-43.4343
 L 32.6293,-43.0897 L 32.3691,-42.7752 L 32.0716,-42.4958 L 31.7414,-42.2559 L 31.3838,-42.0593 L 31.0043,-41.9091
 L 30.609,-41.8076 L 30.2041,-41.7564 z
M 44.7959,-41.7564 L 44.391,-41.8076 L 43.9957,-41.9091 L 43.6162,-42.0593 L 43.2586,-42.2559 L 42.9284,-42.4958
 L 42.6308,-42.7752 L 42.3707,-43.0897 L 42.152,-43.4343 L 41.9782,-43.8036 L 41.8521,-44.1918 L 41.7756,-44.5927
 L 41.75,-45 L 41.7756,-45.4073 L 41.8521,-45.8082 L 41.9782,-46.1964 L 42.152,-46.5657 L 42.3707,-46.9103
 L 42.6308,-47.2248 L 42.9284,-47.5042 L 43.2586,-47.7441 L 43.6162,-47.9407 L 43.9957,-48.0909 L 44.391,-48.1924
 L 44.7959,-48.2436 L 45.2041,-48.2436 L 45.609,-48.1924 L 46.0043,-48.0909 L 46.3838,-47.9407 L 46.7414,-47.7441
 L 47.0716,-47.5042 L 47.3691,-47.2248 L 47.6293,-46.9103 L 47.848,-46.5657 L 48.0218,-46.1964 L 48.1479,-45.8082
 L 48.2244,-45.4073 L 48.25,-45 L 48.2244,-44.5927 L 48.1479,-44.1918 L 48.0218,-43.8036 L 47.848,-43.4343
 L 47.6293,-43.0897 L 47.3691,-42.7752 L 47.0716,-42.4958 L 46.7414,-42.2559 L 46.3838,-42.0593 L 46.0043,-41.9091
 L 45.609,-41.8076 L 45.2041,-41.7564 z
M 59.7959,-41.7564 L 59.391,-41.8076 L 58.9957,-41.9091 L 58.6162,-42.0593 L 58.2586,-42.2559 L 57.9284,-42.4958
 L 57.6308,-42.7752 L 57.3707,-43.0897 L 57.152,-43.4343 L 56.9782,-43.8036 L 56.8521,-44.1918 L 56.7756,-44.5927
 L 56.75,-45 L 56.7756,-45.4073 L 56.8521,-45.8082 L 56.9782,-46.1964 L 57.152,-46.5657 L 57.3707,-46.9103
 L 57.6308,-47.2248 L 57.9284,-47.5042 L 58.2586,-47.7441 L 58.6162,-47.9407 L 58.9957,-48.0909 L 59.391,-48.1924
 L 59.7959,-48.2436 L 60.2041,-48.2436 L 60.609,-48.1924 L 61.0043,-48.0909 L 61.3838,-47.9407 L 61.7414,-47.7441
 L 62.0716,-47.5042 L 62.3691,-47.2248 L 62.6293,-46.9103 L 62.848,-46.5657 L 63.0218,-46.1964 L 63.1479,-45.8082
 L 63.2244,-45.4073 L 63.25,-45 L 63.2244,-44.5927 L 63.1479,-44.1918 L 63.0218,-43.8036 L 62.848,-43.4343
 L 62.6293,-43.0897 L 62.3691,-42.7752 L 62.0716,-42.4958 L 61.7414,-42.2559 L 61.3838,-42.0593 L 61.0043,-41.9091
 L 60.609,-41.8076 L 60.2041,-41.7564 z
M 59.7959,-26.7564 L 59.391,-26.8076 L 58.9957,-26.9091 L 58.6162,-27.0593 L 58.2586,-27.2559 L 57.9284,-27.4958
 L 57.6308,-27.7752 L 57.3707,-28.0897 L 57.152,-28.4343 L 56.9782,-28.8036 L 56.8521,-29.1918 L 56.7756,-29.5927
 L 56.75,-30 L 56.7756,-30.4073 L 56.8521,-30.8082 L 56.9782,-31.1964 L 57.152,-31.5657 L 57.3707,-31.9103
 L 57.6308,-32.2248 L 57.9284,-32.5042 L 58.2586,-32.7441 L 58.6162,-32.9407 L 58.9957,-33.0909 L 59.391,-33.1924
 L 59.7959,-33.2436 L 60.2041,-33.2436 L 60.609,-33.1924 L 61.0043,-33.0909 L 61.3838,-32.9407 L 61.7414,-32.7441
 L 62.0716,-32.5042 L 62.3691,-32.2248 L 62.6293,-31.9103 L 62.848,-31.5657 L 63.0218,-31.1964 L 63.1479,-30.8082
 L 63.2244,-30.4073 L 63.25,-30 L 63.2244,-29.5927 L 63.1479,-29.1918 L 63.0218,-28.8036 L 62.848,-28.4343
 L 62.6293,-28.0897 L 62.3691,-27.7752 L 62.0716,-27.4958 L 61.7414,-27.2559 L 61.3838,-27.0593 L 61.0043,-26.9091
 L 60.609,-26.8076 L 60.2041,-26.7564 z
M 14.7959,-26.7564 L 14.391,-26.8076 L 13.9957,-26.9091 L 13.6162,-27.0593 L 13.2586,-27.2559 L 12.9284,-27.4958
 L 12.6308,-27.7752 L 12.3707,-28.0897 L 12.152,-28.4343 L 11.9782,-28.8036 L 11.8521,-29.1918 L 11.7756,-29.5927
 L 11.75,-30 L 11.7756,-30.4073 L 11.8521,-30.8082 L 11.9782,-31.1964 L 12.152,-31.5657 L 12.3707,-31.9103
 L 12.6308,-32.2248 L 12.9284,-32.5042 L 13.2586,-32.7441 L 13.6162,-32.9407 L 13.9957,-33.0909 L 14.391,-33.1924
 L 14.7959,-33.2436 L 15.2041,-33.2436 L 15.609,-33.1924 L 16.0043,-33.0909 L 16.3838,-32.9407 L 16.7414,-32.7441
 L 17.0716,-32.5042 L 17.3691,-32.2248 L 17.6293,-31.9103 L 17.848,-31.5657 L 18.0218,-31.1964 L 18.1479,-30.8082
 L 18.2244,-30.4073 L 18.25,-30 L 18.2244,-29.5927 L 18.1479,-29.1918 L 18.0218,-28.8036 L 17.848,-28.4343
 L 17.6293,-28.0897 L 17.3691,-27.7752 L 17.0716,-27.4958 L 16.7414,-27.2559 L 16.3838,-27.0593 L 16.0043,-26.9091
 L 15.609,-26.8076 L 15.2041,-26.7564 z
M 29.7959,-26.7564 L 29.391,-26.8076 L 28.9957,-26.9091 L 28.6162,-27.0593 L 28.2586,-27.2559 L 27.9284,-27.4958
 L 27.6308,-27.7752 L 27.3707,-28.0897 L 27.152,-28.4343 L 26.9782,-28.8036 L 26.8521,-29.1918 L 26.7756,-29.5927
 L 26.75,-30 L 26.7756,-30.4073 L 26.8521,-30.8082 L 26.9782,-31.1964 L 27.152,-31.5657 L 27.3707,-31.9103
 L 27.6308,-32.2248 L 27.9284,-32.5042 L 28.2586,-32.7441 L 28.6162,-32.9407 L 28.9957,-33.0909 L 29.391,-33.1924
 L 29.7959,-33.2436 L 30.2041,-33.2436 L 30.609,-33.1924 L 31.0043,-33.0909 L 31.3838,-32.9407 L 31.7414,-32.7441
 L 32.0716,-32.5042 L 32.3691,-32.2248 L 32.6293,-31.9103 L 32.848,-31.5657 L 33.0218,-31.1964 L 33.1479,-30.8082
 L 33.2244,-30.4073 L 33.25,-30 L 33.2244,-29.5927 L 33.1479,-29.1918 L 33.0218,-28.8036 L 32.848,-28.4343
 L 32.6293,-28.0897 L 32.3691,-27.7752 L 32.0716,-27.4958 L 31.7414,-27.2559 L 31.3838,-27.0593 L 31.0043,-26.9091
 L 30.609,-26.8076 L 30.2041,-26.7564 z
M 44.7959,-26.7564 L 44.391,-26.8076 L 43.9957,-26.9091 L 43.6162,-27.0593 L 43.2586,-27.2559 L 42.9284,-27.4958
 L 42.6308,-27.7752 L 42.3707,-28.0897 L 42.152,-28.4343 L 41.9782,-28.8036 L 41.8521,-29.1918 L 41.7756,-29.5927
 L 41.75,-30 L 41.7756,-30.4073 L 41.8521,-30.8082 L 41.9782,-31.1964 L 42.152,-31.5657 L 42.3707,-31.9103
 L 42.6308,-32.2248 L 42.9284,-32.5042 L 43.2586,-32.7441 L 43.6162,-32.9407 L 43.9957,-33.0909 L 44.391,-33.1924
 L 44.7959,-33.2436 L 45.2041,-33.2436 L 45.609,-33.1924 L 46.0043,-33.0909 L 46.3838,-32.9407 L 46.7414,-32.7441
 L 47.0716,-32.5042 L 47.3691,-32.2248 L 47.6293,-31.9103 L 47.848,-31.5657 L 48.0218,-31.1964 L 48.1479,-30.8082
 L 48.2244,-30.4073 L 48.25,-30 L 48.2244,-29.5927 L 48.1479,-29.1918 L 48.0218,-28.8036 L 47.848,-28.4343
 L 47.6293,-28.0897 L 47.3691,-27.7752 L 47.0716,-27.4958 L 46.7414,-27.2559 L 46.3838,-27.0593 L 46.0043,-26.9091
 L 45.609,-26.8076 L 45.2041,-26.7564 z
M 14.7959,-11.7564 L 14.391,-11.8076 L 13.9957,-11.9091 L 13.6162,-12.0593 L 13.2586,-12.2559 L 12.9284,-12.4958
 L 12.6308,-12.7752 L 12.3707,-13.0897 L 12.152,-13.4343 L 11.9782,-13.8036 L 11.8521,-14.1918 L 11.7756,-14.5927
 L 11.75,-15 L 11.7756,-15.4073 L 11.8521,-15.8082 L 11.9782,-16.1964 L 12.152,-16.5657 L 12.3707,-16.9103
 L 12.6308,-17.2248 L 12.9284,-17.5042 L 13.2586,-17.7441 L 13.6162,-17.9407 L 13.9957,-18.0909 L 14.391,-18.1924
 L 14.7959,-18.2436 L 15.2041,-18.2436 L 15.609,-18.1924 L 16.0043,-18.0909 L 16.3838,-17.9407 L 16.7414,-17.7441
 L 17.0716,-17.5042 L 17.3691,-17.2248 L 17.6293,-16.9103 L 17.848,-16.5657 L 18.0218,-16.1964 L 18.1479,-15.8082
 L 18.2244,-15.4073 L 18.25,-15 L 18.2244,-14.5927 L 18.1479,-14.1918 L 18.0218,-13.8036 L 17.848,-13.4343
 L 17.6293,-13.0897 L 17.3691,-12.7752 L 17.0716,-12.4958 L 16.7414,-12.2559 L 16.3838,-12.0593 L 16.0043,-11.9091
 L 15.609,-11.8076 L 15.2041,-11.7564 z
M 29.7959,-11.7564 L 29.391,-11.8076 L 28.9957,-11.9091 L 28.6162,-12.0593 L 28.2586,-12.2559 L 27.9284,-12.4958
 L 27.6308,-12.7752 L 27.3707,-13.0897 L 27.152,-13.4343 L 26.9782,-13.8036 L 26.8521,-14.1918 L 26.7756,-14.5927
 L 26.75,-15 L 26.7756,-15.4073 L 26.8521,-15.8082 L 26.9782,-16.1964 L 27.152,-16.5657 L 27.3707,-16.9103
 L 27.6308,-17.2248 L 27.9284,-17.5042 L 28.2586,-17.7441 L 28.6162,-17.9407 L 28.9957,-18.0909 L 29.391,-18.1924
 L 29.7959,-18.2436 L 30.2041,-18.2436 L 30.609,-18.1924 L 31.0043,-18.0909 L 31.3838,-17.9407 L 31.7414,-17.7441
 L 32.0716,-17.5042 L 32.3691,-17.2248 L 32.6293,-16.9103 L 32.848,-16.5657 L 33.0218,-16.1964 L 33.1479,-15.8082
 L 33.2244,-15.4073 L 33.25,-15 L 33.2244,-14.5927 L 33.1479,-14.1918 L 33.0218,-13.8036 L 32.848,-13.4343
 L 32.6293,-13.0897 L 32.3691,-12.7752 L 32.0716,-12.4958 L 31.7414,-12.2559 L 31.3838,-12.0593 L 31.0043,-11.9091
 L 30.609,-11.8076 L 30.2041,-11.7564 z
M 44.7959,-11.7564 L 44.391,-11.8076 L 43.9957,-11.9091 L 43.6162,-12.0593 L 43.2586,-12.2559 L 42.9284,-12.4958
 L 42.6308,-12.7752 L 42.3707,-13.0897 L 42.152,-13.4343 L 41.9782,-13.8036 L 41.8521,-14.1918 L 41.7756,-14.5927
 L 41.75,-15 L 41.7756,-15.4073 L 41.8521,-15.8082 L 41.9782,-16.1964 L 42.152,-16.5657 L 42.3707,-16.9103
 L 42.6308,-17.2248 L 42.9284,-17.5042 L 43.2586,-17.7441 L 43.6162,-17.9407 L 43.9957,-18.0909 L 44.391,-18.1924
 L 44.7959,-18.2436 L 45.2041,-18.2436 L 45.609,-18.1924 L 46.0043,-18.0909 L 46.3838,-17.9407 L 46.7414,-17.7441
 L 47.0716,-17.5042 L 47.3691,-17.2248 L 47.6293,-16.9103 L 47.848,-16.5657 L 48.0218,-16.1964 L 48.1479,-15.8082
 L 48.2244,-15.4073 L 48.25,-15 L 48.2244,-14.5927 L 48.1479,-14.1918 L 48.0218,-13.8036 L 47.848,-13.4343
 L 47.6293,-13.0897 L 47.3691,-12.7752 L 47.0716,-12.4958 L 46.7414,-12.2559 L 46.3838,-12.0593 L 46.0043,-11.9091
 L 45.609,-11.8076 L 45.2041,-11.7564 z
M 59.7959,-11.7564 L 59.391,-11.8076 L 58.9957,-11.9091 L 58.6162,-12.0593 L 58.2586,-12.2559 L 57.9284,-12.4958
 L 57.6308,-12.7752 L 57.3707,-13.0897 L 57.152,-13.4343 L 56.9782,-13.8036 L 56.8521,-14.1918 L 56.7756,-14.5927
 L 56.75,-15 L 56.7756,-15.4073 L 56.8521,-15.8082 L 56.9782,-16.1964 L 57.152,-16.5657 L 57.3707,-16.9103
 L 57.6308,-17.2248 L 57.9284,-17.5042 L 58.2586,-17.7441 L 58.6162,-17.9407 L 58.9957,-18.0909 L 59.391,-18.1924
 L 59.7959,-18.2436 L 60.2041,-18.2436 L 60.609,-18.1924 L 61.0043,-18.0909 L 61.3838,-17.9407 L 61.7414,-17.7441
 L 62.0716,-17.5042 L 62.3691,-17.2248 L 62.6293,-16.9103 L 62.848,-16.5657 L 63.0218,-16.1964 L 63.1479,-15.8082
 L 63.2244,-15.4073 L 63.25,-15 L 63.2244,-14.5927 L 63.1479,-14.1918 L 63.0218,-13.8036 L 62.848,-13.4343
 L 62.6293,-13.0897 L 62.3691,-12.7752 L 62.0716,-12.4958 L 61.7414,-12.2559 L 61.3838,-12.0593 L 61.0043,-11.9091
 L 60.609,-11.8076 L 60.2041,-11.7564 z
" stroke="black" fill="lightgray" stroke-width="0.5"/>
</svg>
