  0
SECTION
  2
BLOCKS
  0
ENDSEC
  0
SECTION
  2
ENTITIES
  0
LINE
  8
0
 10
24.1576
 20
-20.9622
 11
24.7991
 21
-20.8346
  0
LINE
  8
0
 10
24.7991
 20
-20.8346
 11
25.4184
 21
-20.6244
  0
LINE
  8
0
 10
25.4184
 20
-20.6244
 11
26.005
 21
-20.3351
  0
LINE
  8
0
 10
26.005
 20
-20.3351
 11
26.5488
 21
-19.9718
  0
LINE
  8
0
 10
26.5488
 20
-19.9718
 11
27.0405
 21
-19.5405
  0
LINE
  8
0
 10
27.0405
 20
-19.5405
 11
27.4718
 21
-19.0488
  0
LINE
  8
0
 10
27.4718
 20
-19.0488
 11
27.8351
 21
-18.505
  0
LINE
  8
0
 10
27.8351
 20
-18.505
 11
28.1244
 21
-17.9184
  0
LINE
  8
0
 10
28.1244
 20
-17.9184
 11
28.3346
 21
-17.2991
  0
LINE
  8
0
 10
28.3346
 20
-17.2991
 11
28.4622
 21
-16.6576
  0
LINE
  8
0
 10
28.4622
 20
-16.6576
 11
28.505
 21
-16.005
  0
LINE
  8
0
 10
28.505
 20
-16.005
 11
28.505
 21
16.005
  0
LINE
  8
0
 10
28.505
 20
16.005
 11
28.4622
 21
16.6576
  0
LINE
  8
0
 10
28.4622
 20
16.6576
 11
28.3346
 21
17.2991
  0
LINE
  8
0
 10
28.3346
 20
17.2991
 11
28.1244
 21
17.9184
  0
LINE
  8
0
 10
28.1244
 20
17.9184
 11
27.8351
 21
18.505
  0
LINE
  8
0
 10
27.8351
 20
18.505
 11
27.4718
 21
19.0488
  0
LINE
  8
0
 10
27.4718
 20
19.0488
 11
27.0405
 21
19.5405
  0
LINE
  8
0
 10
27.0405
 20
19.5405
 11
26.5488
 21
19.9718
  0
LINE
  8
0
 10
26.5488
 20
19.9718
 11
26.005
 21
20.3351
  0
LINE
  8
0
 10
26.005
 20
20.3351
 11
25.4184
 21
20.6244
  0
LINE
  8
0
 10
25.4184
 20
20.6244
 11
24.7991
 21
20.8346
  0
LINE
  8
0
 10
24.7991
 20
20.8346
 11
24.1576
 21
20.9622
  0
LINE
  8
0
 10
24.1576
 20
20.9622
 11
23.505
 21
21.005
  0
LINE
  8
0
 10
23.505
 20
21.005
 11
-23.505
 21
21.005
  0
LINE
  8
0
 10
-23.505
 20
21.005
 11
-24.1576
 21
20.9622
  0
LINE
  8
0
 10
-24.1576
 20
20.9622
 11
-24.7991
 21
20.8346
  0
LINE
  8
0
 10
-24.7991
 20
20.8346
 11
-25.4184
 21
20.6244
  0
LINE
  8
0
 10
-25.4184
 20
20.6244
 11
-26.005
 21
20.3351
  0
LINE
  8
0
 10
-26.005
 20
20.3351
 11
-26.5488
 21
19.9718
  0
LINE
  8
0
 10
-26.5488
 20
19.9718
 11
-27.0405
 21
19.5405
  0
LINE
  8
0
 10
-27.0405
 20
19.5405
 11
-27.4718
 21
19.0488
  0
LINE
  8
0
 10
-27.4718
 20
19.0488
 11
-27.8351
 21
18.505
  0
LINE
  8
0
 10
-27.8351
 20
18.505
 11
-28.1244
 21
17.9184
  0
LINE
  8
0
 10
-28.1244
 20
17.9184
 11
-28.3346
 21
17.2991
  0
LINE
  8
0
 10
-28.3346
 20
17.2991
 11
-28.4622
 21
16.6576
  0
LINE
  8
0
 10
-28.4622
 20
16.6576
 11
-28.505
 21
16.005
  0
LINE
  8
0
 10
-28.505
 20
16.005
 11
-28.505
 21
-16.005
  0
LINE
  8
0
 10
-28.505
 20
-16.005
 11
-28.4622
 21
-16.6576
  0
LINE
  8
0
 10
-28.4622
 20
-16.6576
 11
-28.3346
 21
-17.2991
  0
LINE
  8
0
 10
-28.3346
 20
-17.2991
 11
-28.1244
 21
-17.9184
  0
LINE
  8
0
 10
-28.1244
 20
-17.9184
 11
-27.8351
 21
-18.505
  0
LINE
  8
0
 10
-27.8351
 20
-18.505
 11
-27.4718
 21
-19.0488
  0
LINE
  8
0
 10
-27.4718
 20
-19.0488
 11
-27.0405
 21
-19.5405
  0
LINE
  8
0
 10
-27.0405
 20
-19.5405
 11
-26.5488
 21
-19.9718
  0
LINE
  8
0
 10
-26.5488
 20
-19.9718
 11
-26.005
 21
-20.3351
  0
LINE
  8
0
 10
-26.005
 20
-20.3351
 11
-25.4184
 21
-20.6244
  0
LINE
  8
0
 10
-25.4184
 20
-20.6244
 11
-24.7991
 21
-20.8346
  0
LINE
  8
0
 10
-24.7991
 20
-20.8346
 11
-24.1576
 21
-20.9622
  0
LINE
  8
0
 10
-24.1576
 20
-20.9622
 11
-23.505
 21
-21.005
  0
LINE
  8
0
 10
-23.505
 20
-21.005
 11
23.505
 21
-21.005
  0
LINE
  8
0
 10
23.505
 20
-21.005
 11
24.1576
 21
-20.9622
  0
LINE
  8
0
 10
19.7283
 20
13.8519
 11
19.6022
 21
14.2235
  0
LINE
  8
0
 10
19.6022
 20
14.2235
 11
19.5257
 21
14.6084
  0
LINE
  8
0
 10
19.5257
 20
14.6084
 11
19.5
 21
15
  0
LINE
  8
0
 10
19.5
 20
15
 11
19.5257
 21
15.3916
  0
LINE
  8
0
 10
19.5257
 20
15.3916
 11
19.6022
 21
15.7764
  0
LINE
  8
0
 10
19.6022
 20
15.7764
 11
19.7283
 21
16.148
  0
LINE
  8
0
 10
19.7283
 20
16.148
 11
19.9019
 21
16.5
  0
LINE
  8
0
 10
19.9019
 20
16.5
 11
20.1199
 21
16.8263
  0
LINE
  8
0
 10
20.1199
 20
16.8263
 11
20.3787
 21
17.1213
  0
LINE
  8
0
 10
20.3787
 20
17.1213
 11
20.6737
 21
17.3801
  0
LINE
  8
0
 10
20.6737
 20
17.3801
 11
21
 21
17.5981
  0
LINE
  8
0
 10
21
 20
17.5981
 11
21.3519
 21
17.7716
  0
LINE
  8
0
 10
21.3519
 20
17.7716
 11
21.7235
 21
17.8978
  0
LINE
  8
0
 10
21.7235
 20
17.8978
 11
22.1084
 21
17.9743
  0
LINE
  8
0
 10
22.1084
 20
17.9743
 11
22.5
 21
18
  0
LINE
  8
0
 10
22.5
 20
18
 11
22.8916
 21
17.9743
  0
LINE
  8
0
 10
22.8916
 20
17.9743
 11
23.2764
 21
17.8978
  0
LINE
  8
0
 10
23.2764
 20
17.8978
 11
23.648
 21
17.7716
  0
LINE
  8
0
 10
23.648
 20
17.7716
 11
24
 21
17.5981
  0
LINE
  8
0
 10
24
 20
17.5981
 11
24.3263
 21
17.3801
  0
LINE
  8
0
 10
24.3263
 20
17.3801
 11
24.6213
 21
17.1213
  0
LINE
  8
0
 10
24.6213
 20
17.1213
 11
24.8801
 21
16.8263
  0
LINE
  8
0
 10
24.8801
 20
16.8263
 11
25.0981
 21
16.5
  0
LINE
  8
0
 10
25.0981
 20
16.5
 11
25.2716
 21
16.148
  0
LINE
  8
0
 10
25.2716
 20
16.148
 11
25.3978
 21
15.7764
  0
LINE
  8
0
 10
25.3978
 20
15.7764
 11
25.4743
 21
15.3916
  0
LINE
  8
0
 10
25.4743
 20
15.3916
 11
25.5
 21
15
  0
LINE
  8
0
 10
25.5
 20
15
 11
25.4743
 21
14.6084
  0
LINE
  8
0
 10
25.4743
 20
14.6084
 11
25.3978
 21
14.2235
  0
LINE
  8
0
 10
25.3978
 20
14.2235
 11
25.2716
 21
13.8519
  0
LINE
  8
0
 10
25.2716
 20
13.8519
 11
25.0981
 21
13.5
  0
LINE
  8
0
 10
25.0981
 20
13.5
 11
24.8801
 21
13.1737
  0
LINE
  8
0
 10
24.8801
 20
13.1737
 11
24.6213
 21
12.8787
  0
LINE
  8
0
 10
24.6213
 20
12.8787
 11
24.3263
 21
12.6199
  0
LINE
  8
0
 10
24.3263
 20
12.6199
 11
24
 21
12.4019
  0
LINE
  8
0
 10
24
 20
12.4019
 11
23.648
 21
12.2283
  0
LINE
  8
0
 10
23.648
 20
12.2283
 11
23.2764
 21
12.1022
  0
LINE
  8
0
 10
23.2764
 20
12.1022
 11
22.8916
 21
12.0257
  0
LINE
  8
0
 10
22.8916
 20
12.0257
 11
22.5
 21
12
  0
LINE
  8
0
 10
22.5
 20
12
 11
22.1084
 21
12.0257
  0
LINE
  8
0
 10
22.1084
 20
12.0257
 11
21.7235
 21
12.1022
  0
LINE
  8
0
 10
21.7235
 20
12.1022
 11
21.3519
 21
12.2283
  0
LINE
  8
0
 10
21.3519
 20
12.2283
 11
21
 21
12.4019
  0
LINE
  8
0
 10
21
 20
12.4019
 11
20.6737
 21
12.6199
  0
LINE
  8
0
 10
20.6737
 20
12.6199
 11
20.3787
 21
12.8787
  0
LINE
  8
0
 10
20.3787
 20
12.8787
 11
20.1199
 21
13.1737
  0
LINE
  8
0
 10
20.1199
 20
13.1737
 11
19.9019
 21
13.5
  0
LINE
  8
0
 10
19.9019
 20
13.5
 11
19.7283
 21
13.8519
  0
LINE
  8
0
 10
-22.8916
 20
12.0257
 11
-23.2764
 21
12.1022
  0
LINE
  8
0
 10
-23.2764
 20
12.1022
 11
-23.648
 21
12.2283
  0
LINE
  8
0
 10
-23.648
 20
12.2283
 11
-24
 21
12.4019
  0
LINE
  8
0
 10
-24
 20
12.4019
 11
-24.3263
 21
12.6199
  0
LINE
  8
0
 10
-24.3263
 20
12.6199
 11
-24.6213
 21
12.8787
  0
LINE
  8
0
 10
-24.6213
 20
12.8787
 11
-24.8801
 21
13.1737
  0
LINE
  8
0
 10
-24.8801
 20
13.1737
 11
-25.0981
 21
13.5
  0
LINE
  8
0
 10
-25.0981
 20
13.5
 11
-25.2716
 21
13.8519
  0
LINE
  8
0
 10
-25.2716
 20
13.8519
 11
-25.3978
 21
14.2235
  0
LINE
  8
0
 10
-25.3978
 20
14.2235
 11
-25.4743
 21
14.6084
  0
LINE
  8
0
 10
-25.4743
 20
14.6084
 11
-25.5
 21
15
  0
LINE
  8
0
 10
-25.5
 20
15
 11
-25.4743
 21
15.3916
  0
LINE
  8
0
 10
-25.4743
 20
15.3916
 11
-25.3978
 21
15.7764
  0
LINE
  8
0
 10
-25.3978
 20
15.7764
 11
-25.2716
 21
16.148
  0
LINE
  8
0
 10
-25.2716
 20
16.148
 11
-25.0981
 21
16.5
  0
LINE
  8
0
 10
-25.0981
 20
16.5
 11
-24.8801
 21
16.8263
  0
LINE
  8
0
 10
-24.8801
 20
16.8263
 11
-24.6213
 21
17.1213
  0
LINE
  8
0
 10
-24.6213
 20
17.1213
 11
-24.3263
 21
17.3801
  0
LINE
  8
0
 10
-24.3263
 20
17.3801
 11
-24
 21
17.5981
  0
LINE
  8
0
 10
-24
 20
17.5981
 11
-23.648
 21
17.7716
  0
LINE
  8
0
 10
-23.648
 20
17.7716
 11
-23.2764
 21
17.8978
  0
LINE
  8
0
 10
-23.2764
 20
17.8978
 11
-22.8916
 21
17.9743
  0
LINE
  8
0
 10
-22.8916
 20
17.9743
 11
-22.5
 21
18
  0
LINE
  8
0
 10
-22.5
 20
18
 11
-22.1084
 21
17.9743
  0
LINE
  8
0
 10
-22.1084
 20
17.9743
 11
-21.7235
 21
17.8978
  0
LINE
  8
0
 10
-21.7235
 20
17.8978
 11
-21.3519
 21
17.7716
  0
LINE
  8
0
 10
-21.3519
 20
17.7716
 11
-21
 21
17.5981
  0
LINE
  8
0
 10
-21
 20
17.5981
 11
-20.6737
 21
17.3801
  0
LINE
  8
0
 10
-20.6737
 20
17.3801
 11
-20.3787
 21
17.1213
  0
LINE
  8
0
 10
-20.3787
 20
17.1213
 11
-20.1199
 21
16.8263
  0
LINE
  8
0
 10
-20.1199
 20
16.8263
 11
-19.9019
 21
16.5
  0
LINE
  8
0
 10
-19.9019
 20
16.5
 11
-19.7283
 21
16.148
  0
LINE
  8
0
 10
-19.7283
 20
16.148
 11
-19.6022
 21
15.7764
  0
LINE
  8
0
 10
-19.6022
 20
15.7764
 11
-19.5257
 21
15.3916
  0
LINE
  8
0
 10
-19.5257
 20
15.3916
 11
-19.5
 21
15
  0
LINE
  8
0
 10
-19.5
 20
15
 11
-19.5257
 21
14.6084
  0
LINE
  8
0
 10
-19.5257
 20
14.6084
 11
-19.6022
 21
14.2235
  0
LINE
  8
0
 10
-19.6022
 20
14.2235
 11
-19.7283
 21
13.8519
  0
LINE
  8
0
 10
-19.7283
 20
13.8519
 11
-19.9019
 21
13.5
  0
LINE
  8
0
 10
-19.9019
 20
13.5
 11
-20.1199
 21
13.1737
  0
LINE
  8
0
 10
-20.1199
 20
13.1737
 11
-20.3787
 21
12.8787
  0
LINE
  8
0
 10
-20.3787
 20
12.8787
 11
-20.6737
 21
12.6199
  0
LINE
  8
0
 10
-20.6737
 20
12.6199
 11
-21
 21
12.4019
  0
LINE
  8
0
 10
-21
 20
12.4019
 11
-21.3519
 21
12.2283
  0
LINE
  8
0
 10
-21.3519
 20
12.2283
 11
-21.7235
 21
12.1022
  0
LINE
  8
0
 10
-21.7235
 20
12.1022
 11
-22.1084
 21
12.0257
  0
LINE
  8
0
 10
-22.1084
 20
12.0257
 11
-22.5
 21
12
  0
LINE
  8
0
 10
-22.5
 20
12
 11
-22.8916
 21
12.0257
  0
LINE
  8
0
 10
22.1084
 20
-2.97432
 11
21.7235
 21
-2.89777
  0
LINE
  8
0
 10
21.7235
 20
-2.89777
 11
21.3519
 21
-2.77164
  0
LINE
  8
0
 10
21.3519
 20
-2.77164
 11
21
 21
-2.59807
  0
LINE
  8
0
 10
21
 20
-2.59807
 11
20.6737
 21
-2.38005
  0
LINE
  8
0
 10
20.6737
 20
-2.38005
 11
20.3787
 21
-2.12131
  0
LINE
  8
0
 10
20.3787
 20
-2.12131
 11
20.1199
 21
-1.82628
  0
LINE
  8
0
 10
20.1199
 20
-1.82628
 11
19.9019
 21
-1.5
  0
LINE
  8
0
 10
19.9019
 20
-1.5
 11
19.7283
 21
-1.14804
  0
LINE
  8
0
 10
19.7283
 20
-1.14804
 11
19.6022
 21
-0.776443
  0
LINE
  8
0
 10
19.6022
 20
-0.776443
 11
19.5257
 21
-0.391571
  0
LINE
  8
0
 10
19.5257
 20
-0.391571
 11
19.5
 21
0
  0
LINE
  8
0
 10
19.5
 20
0
 11
19.5257
 21
0.391571
  0
LINE
  8
0
 10
19.5257
 20
0.391571
 11
19.6022
 21
0.776443
  0
LINE
  8
0
 10
19.6022
 20
0.776443
 11
19.7283
 21
1.14804
  0
LINE
  8
0
 10
19.7283
 20
1.14804
 11
19.9019
 21
1.5
  0
LINE
  8
0
 10
19.9019
 20
1.5
 11
20.1199
 21
1.82628
  0
LINE
  8
0
 10
20.1199
 20
1.82628
 11
20.3787
 21
2.12131
  0
LINE
  8
0
 10
20.3787
 20
2.12131
 11
20.6737
 21
2.38005
  0
LINE
  8
0
 10
20.6737
 20
2.38005
 11
21
 21
2.59807
  0
LINE
  8
0
 10
21
 20
2.59807
 11
21.3519
 21
2.77164
  0
LINE
  8
0
 10
21.3519
 20
2.77164
 11
21.7235
 21
2.89777
  0
LINE
  8
0
 10
21.7235
 20
2.89777
 11
22.1084
 21
2.97432
  0
LINE
  8
0
 10
22.1084
 20
2.97432
 11
22.5
 21
3
  0
LINE
  8
0
 10
22.5
 20
3
 11
22.8916
 21
2.97432
  0
LINE
  8
0
 10
22.8916
 20
2.97432
 11
23.2764
 21
2.89777
  0
LINE
  8
0
 10
23.2764
 20
2.89777
 11
23.648
 21
2.77164
  0
LINE
  8
0
 10
23.648
 20
2.77164
 11
24
 21
2.59807
  0
LINE
  8
0
 10
24
 20
2.59807
 11
24.3263
 21
2.38005
  0
LINE
  8
0
 10
24.3263
 20
2.38005
 11
24.6213
 21
2.12131
  0
LINE
  8
0
 10
24.6213
 20
2.12131
 11
24.8801
 21
1.82628
  0
LINE
  8
0
 10
24.8801
 20
1.82628
 11
25.0981
 21
1.5
  0
LINE
  8
0
 10
25.0981
 20
1.5
 11
25.2716
 21
1.14804
  0
LINE
  8
0
 10
25.2716
 20
1.14804
 11
25.3978
 21
0.776443
  0
LINE
  8
0
 10
25.3978
 20
0.776443
 11
25.4743
 21
0.391571
  0
LINE
  8
0
 10
25.4743
 20
0.391571
 11
25.5
 21
0
  0
LINE
  8
0
 10
25.5
 20
0
 11
25.4743
 21
-0.391571
  0
LINE
  8
0
 10
25.4743
 20
-0.391571
 11
25.3978
 21
-0.776443
  0
LINE
  8
0
 10
25.3978
 20
-0.776443
 11
25.2716
 21
-1.14804
  0
LINE
  8
0
 10
25.2716
 20
-1.14804
 11
25.0981
 21
-1.5
  0
LINE
  8
0
 10
25.0981
 20
-1.5
 11
24.8801
 21
-1.82628
  0
LINE
  8
0
 10
24.8801
 20
-1.82628
 11
24.6213
 21
-2.12131
  0
LINE
  8
0
 10
24.6213
 20
-2.12131
 11
24.3263
 21
-2.38005
  0
LINE
  8
0
 10
24.3263
 20
-2.38005
 11
24
 21
-2.59807
  0
LINE
  8
0
 10
24
 20
-2.59807
 11
23.648
 21
-2.77164
  0
LINE
  8
0
 10
23.648
 20
-2.77164
 11
23.2764
 21
-2.89777
  0
LINE
  8
0
 10
23.2764
 20
-2.89777
 11
22.8916
 21
-2.97432
  0
LINE
  8
0
 10
22.8916
 20
-2.97432
 11
22.5
 21
-3
  0
LINE
  8
0
 10
22.5
 20
-3
 11
22.1084
 21
-2.97432
  0
LINE
  8
0
 10
-22.8916
 20
-2.97432
 11
-23.2764
 21
-2.89777
  0
LINE
  8
0
 10
-23.2764
 20
-2.89777
 11
-23.648
 21
-2.77164
  0
LINE
  8
0
 10
-23.648
 20
-2.77164
 11
-24
 21
-2.59807
  0
LINE
  8
0
 10
-24
 20
-2.59807
 11
-24.3263
 21
-2.38005
  0
LINE
  8
0
 10
-24.3263
 20
-2.38005
 11
-24.6213
 21
-2.12131
  0
LINE
  8
0
 10
-24.6213
 20
-2.12131
 11
-24.8801
 21
-1.82628
  0
LINE
  8
0
 10
-24.8801
 20
-1.82628
 11
-25.0981
 21
-1.5
  0
LINE
  8
0
 10
-25.0981
 20
-1.5
 11
-25.2716
 21
-1.14804
  0
LINE
  8
0
 10
-25.2716
 20
-1.14804
 11
-25.3978
 21
-0.776443
  0
LINE
  8
0
 10
-25.3978
 20
-0.776443
 11
-25.4743
 21
-0.391571
  0
LINE
  8
0
 10
-25.4743
 20
-0.391571
 11
-25.5
 21
0
  0
LINE
  8
0
 10
-25.5
 20
0
 11
-25.4743
 21
0.391571
  0
LINE
  8
0
 10
-25.4743
 20
0.391571
 11
-25.3978
 21
0.776443
  0
LINE
  8
0
 10
-25.3978
 20
0.776443
 11
-25.2716
 21
1.14804
  0
LINE
  8
0
 10
-25.2716
 20
1.14804
 11
-25.0981
 21
1.5
  0
LINE
  8
0
 10
-25.0981
 20
1.5
 11
-24.8801
 21
1.82628
  0
LINE
  8
0
 10
-24.8801
 20
1.82628
 11
-24.6213
 21
2.12131
  0
LINE
  8
0
 10
-24.6213
 20
2.12131
 11
-24.3263
 21
2.38005
  0
LINE
  8
0
 10
-24.3263
 20
2.38005
 11
-24
 21
2.59807
  0
LINE
  8
0
 10
-24
 20
2.59807
 11
-23.648
 21
2.77164
  0
LINE
  8
0
 10
-23.648
 20
2.77164
 11
-23.2764
 21
2.89777
  0
LINE
  8
0
 10
-23.2764
 20
2.89777
 11
-22.8916
 21
2.97432
  0
LINE
  8
0
 10
-22.8916
 20
2.97432
 11
-22.5
 21
3
  0
LINE
  8
0
 10
-22.5
 20
3
 11
-22.1084
 21
2.97432
  0
LINE
  8
0
 10
-22.1084
 20
2.97432
 11
-21.7235
 21
2.89777
  0
LINE
  8
0
 10
-21.7235
 20
2.89777
 11
-21.3519
 21
2.77164
  0
LINE
  8
0
 10
-21.3519
 20
2.77164
 11
-21
 21
2.59807
  0
LINE
  8
0
 10
-21
 20
2.59807
 11
-20.6737
 21
2.38005
  0
LINE
  8
0
 10
-20.6737
 20
2.38005
 11
-20.3787
 21
2.12131
  0
LINE
  8
0
 10
-20.3787
 20
2.12131
 11
-20.1199
 21
1.82628
  0
LINE
  8
0
 10
-20.1199
 20
1.82628
 11
-19.9019
 21
1.5
  0
LINE
  8
0
 10
-19.9019
 20
1.5
 11
-19.7283
 21
1.14804
  0
LINE
  8
0
 10
-19.7283
 20
1.14804
 11
-19.6022
 21
0.776443
  0
LINE
  8
0
 10
-19.6022
 20
0.776443
 11
-19.5257
 21
0.391571
  0
LINE
  8
0
 10
-19.5257
 20
0.391571
 11
-19.5
 21
0
  0
LINE
  8
0
 10
-19.5
 20
0
 11
-19.5257
 21
-0.391571
  0
LINE
  8
0
 10
-19.5257
 20
-0.391571
 11
-19.6022
 21
-0.776443
  0
LINE
  8
0
 10
-19.6022
 20
-0.776443
 11
-19.7283
 21
-1.14804
  0
LINE
  8
0
 10
-19.7283
 20
-1.14804
 11
-19.9019
 21
-1.5
  0
LINE
  8
0
 10
-19.9019
 20
-1.5
 11
-20.1199
 21
-1.82628
  0
LINE
  8
0
 10
-20.1199
 20
-1.82628
 11
-20.3787
 21
-2.12131
  0
LINE
  8
0
 10
-20.3787
 20
-2.12131
 11
-20.6737
 21
-2.38005
  0
LINE
  8
0
 10
-20.6737
 20
-2.38005
 11
-21
 21
-2.59807
  0
LINE
  8
0
 10
-21
 20
-2.59807
 11
-21.3519
 21
-2.77164
  0
LINE
  8
0
 10
-21.3519
 20
-2.77164
 11
-21.7235
 21
-2.89777
  0
LINE
  8
0
 10
-21.7235
 20
-2.89777
 11
-22.1084
 21
-2.97432
  0
LINE
  8
0
 10
-22.1084
 20
-2.97432
 11
-22.5
 21
-3
  0
LINE
  8
0
 10
-22.5
 20
-3
 11
-22.8916
 21
-2.97432
  0
LINE
  8
0
 10
6
 20
2.59807
 11
6.35194
 21
2.77164
  0
LINE
  8
0
 10
6.35194
 20
2.77164
 11
6.72354
 21
2.89777
  0
LINE
  8
0
 10
6.72354
 20
2.89777
 11
7.10841
 21
2.97432
  0
LINE
  8
0
 10
7.10841
 20
2.97432
 11
7.5
 21
3
  0
LINE
  8
0
 10
7.5
 20
3
 11
7.89157
 21
2.97432
  0
LINE
  8
0
 10
7.89157
 20
2.97432
 11
8.27644
 21
2.89777
  0
LINE
  8
0
 10
8.27644
 20
2.89777
 11
8.64804
 21
2.77164
  0
LINE
  8
0
 10
8.64804
 20
2.77164
 11
9
 21
2.59807
  0
LINE
  8
0
 10
9
 20
2.59807
 11
9.32628
 21
2.38005
  0
LINE
  8
0
 10
9.32628
 20
2.38005
 11
9.62131
 21
2.12131
  0
LINE
  8
0
 10
9.62131
 20
2.12131
 11
9.88005
 21
1.82628
  0
LINE
  8
0
 10
9.88005
 20
1.82628
 11
10.0981
 21
1.5
  0
LINE
  8
0
 10
10.0981
 20
1.5
 11
10.2716
 21
1.14804
  0
LINE
  8
0
 10
10.2716
 20
1.14804
 11
10.3978
 21
0.776443
  0
LINE
  8
0
 10
10.3978
 20
0.776443
 11
10.4743
 21
0.391571
  0
LINE
  8
0
 10
10.4743
 20
0.391571
 11
10.5
 21
0
  0
LINE
  8
0
 10
10.5
 20
0
 11
10.4743
 21
-0.391571
  0
LINE
  8
0
 10
10.4743
 20
-0.391571
 11
10.3978
 21
-0.776443
  0
LINE
  8
0
 10
10.3978
 20
-0.776443
 11
10.2716
 21
-1.14804
  0
LINE
  8
0
 10
10.2716
 20
-1.14804
 11
10.0981
 21
-1.5
  0
LINE
  8
0
 10
10.0981
 20
-1.5
 11
9.88005
 21
-1.82628
  0
LINE
  8
0
 10
9.88005
 20
-1.82628
 11
9.62131
 21
-2.12131
  0
LINE
  8
0
 10
9.62131
 20
-2.12131
 11
9.32628
 21
-2.38005
  0
LINE
  8
0
 10
9.32628
 20
-2.38005
 11
9
 21
-2.59807
  0
LINE
  8
0
 10
9
 20
-2.59807
 11
8.64804
 21
-2.77164
  0
LINE
  8
0
 10
8.64804
 20
-2.77164
 11
8.27644
 21
-2.89777
  0
LINE
  8
0
 10
8.27644
 20
-2.89777
 11
7.89157
 21
-2.97432
  0
LINE
  8
0
 10
7.89157
 20
-2.97432
 11
7.5
 21
-3
  0
LINE
  8
0
 10
7.5
 20
-3
 11
7.10841
 21
-2.97432
  0
LINE
  8
0
 10
7.10841
 20
-2.97432
 11
6.72354
 21
-2.89777
  0
LINE
  8
0
 10
6.72354
 20
-2.89777
 11
6.35194
 21
-2.77164
  0
LINE
  8
0
 10
6.35194
 20
-2.77164
 11
6
 21
-2.59807
  0
LINE
  8
0
 10
6
 20
-2.59807
 11
5.67371
 21
-2.38005
  0
LINE
  8
0
 10
5.67371
 20
-2.38005
 11
5.37868
 21
-2.12131
  0
LINE
  8
0
 10
5.37868
 20
-2.12131
 11
5.11993
 21
-1.82628
  0
LINE
  8
0
 10
5.11993
 20
-1.82628
 11
4.90192
 21
-1.5
  0
LINE
  8
0
 10
4.90192
 20
-1.5
 11
4.72835
 21
-1.14804
  0
LINE
  8
0
 10
4.72835
 20
-1.14804
 11
4.60222
 21
-0.776443
  0
LINE
  8
0
 10
4.60222
 20
-0.776443
 11
4.52567
 21
-0.391571
  0
LINE
  8
0
 10
4.52567
 20
-0.391571
 11
4.5
 21
0
  0
LINE
  8
0
 10
4.5
 20
0
 11
4.52567
 21
0.391571
  0
LINE
  8
0
 10
4.52567
 20
0.391571
 11
4.60222
 21
0.776443
  0
LINE
  8
0
 10
4.60222
 20
0.776443
 11
4.72835
 21
1.14804
  0
LINE
  8
0
 10
4.72835
 20
1.14804
 11
4.90192
 21
1.5
  0
LINE
  8
0
 10
4.90192
 20
1.5
 11
5.11993
 21
1.82628
  0
LINE
  8
0
 10
5.11993
 20
1.82628
 11
5.37868
 21
2.12131
  0
LINE
  8
0
 10
5.37868
 20
2.12131
 11
5.67371
 21
2.38005
  0
LINE
  8
0
 10
5.67371
 20
2.38005
 11
6
 21
2.59807
  0
LINE
  8
0
 10
-22.8916
 20
-17.9743
 11
-23.2764
 21
-17.8978
  0
LINE
  8
0
 10
-23.2764
 20
-17.8978
 11
-23.648
 21
-17.7716
  0
LINE
  8
0
 10
-23.648
 20
-17.7716
 11
-24
 21
-17.5981
  0
LINE
  8
0
 10
-24
 20
-17.5981
 11
-24.3263
 21
-17.3801
  0
LINE
  8
0
 10
-24.3263
 20
-17.3801
 11
-24.6213
 21
-17.1213
  0
LINE
  8
0
 10
-24.6213
 20
-17.1213
 11
-24.8801
 21
-16.8263
  0
LINE
  8
0
 10
-24.8801
 20
-16.8263
 11
-25.0981
 21
-16.5
  0
LINE
  8
0
 10
-25.0981
 20
-16.5
 11
-25.2716
 21
-16.148
  0
LINE
  8
0
 10
-25.2716
 20
-16.148
 11
-25.3978
 21
-15.7764
  0
LINE
  8
0
 10
-25.3978
 20
-15.7764
 11
-25.4743
 21
-15.3916
  0
LINE
  8
0
 10
-25.4743
 20
-15.3916
 11
-25.5
 21
-15
  0
LINE
  8
0
 10
-25.5
 20
-15
 11
-25.4743
 21
-14.6084
  0
LINE
  8
0
 10
-25.4743
 20
-14.6084
 11
-25.3978
 21
-14.2235
  0
LINE
  8
0
 10
-25.3978
 20
-14.2235
 11
-25.2716
 21
-13.8519
  0
LINE
  8
0
 10
-25.2716
 20
-13.8519
 11
-25.0981
 21
-13.5
  0
LINE
  8
0
 10
-25.0981
 20
-13.5
 11
-24.8801
 21
-13.1737
  0
LINE
  8
0
 10
-24.8801
 20
-13.1737
 11
-24.6213
 21
-12.8787
  0
LINE
  8
0
 10
-24.6213
 20
-12.8787
 11
-24.3263
 21
-12.6199
  0
LINE
  8
0
 10
-24.3263
 20
-12.6199
 11
-24
 21
-12.4019
  0
LINE
  8
0
 10
-24
 20
-12.4019
 11
-23.648
 21
-12.2283
  0
LINE
  8
0
 10
-23.648
 20
-12.2283
 11
-23.2764
 21
-12.1022
  0
LINE
  8
0
 10
-23.2764
 20
-12.1022
 11
-22.8916
 21
-12.0257
  0
LINE
  8
0
 10
-22.8916
 20
-12.0257
 11
-22.5
 21
-12
  0
LINE
  8
0
 10
-22.5
 20
-12
 11
-22.1084
 21
-12.0257
  0
LINE
  8
0
 10
-22.1084
 20
-12.0257
 11
-21.7235
 21
-12.1022
  0
LINE
  8
0
 10
-21.7235
 20
-12.1022
 11
-21.3519
 21
-12.2283
  0
LINE
  8
0
 10
-21.3519
 20
-12.2283
 11
-21
 21
-12.4019
  0
LINE
  8
0
 10
-21
 20
-12.4019
 11
-20.6737
 21
-12.6199
  0
LINE
  8
0
 10
-20.6737
 20
-12.6199
 11
-20.3787
 21
-12.8787
  0
LINE
  8
0
 10
-20.3787
 20
-12.8787
 11
-20.1199
 21
-13.1737
  0
LINE
  8
0
 10
-20.1199
 20
-13.1737
 11
-19.9019
 21
-13.5
  0
LINE
  8
0
 10
-19.9019
 20
-13.5
 11
-19.7283
 21
-13.8519
  0
LINE
  8
0
 10
-19.7283
 20
-13.8519
 11
-19.6022
 21
-14.2235
  0
LINE
  8
0
 10
-19.6022
 20
-14.2235
 11
-19.5257
 21
-14.6084
  0
LINE
  8
0
 10
-19.5257
 20
-14.6084
 11
-19.5
 21
-15
  0
LINE
  8
0
 10
-19.5
 20
-15
 11
-19.5257
 21
-15.3916
  0
LINE
  8
0
 10
-19.5257
 20
-15.3916
 11
-19.6022
 21
-15.7764
  0
LINE
  8
0
 10
-19.6022
 20
-15.7764
 11
-19.7283
 21
-16.148
  0
LINE
  8
0
 10
-19.7283
 20
-16.148
 11
-19.9019
 21
-16.5
  0
LINE
  8
0
 10
-19.9019
 20
-16.5
 11
-20.1199
 21
-16.8263
  0
LINE
  8
0
 10
-20.1199
 20
-16.8263
 11
-20.3787
 21
-17.1213
  0
LINE
  8
0
 10
-20.3787
 20
-17.1213
 11
-20.6737
 21
-17.3801
  0
LINE
  8
0
 10
-20.6737
 20
-17.3801
 11
-21
 21
-17.5981
  0
LINE
  8
0
 10
-21
 20
-17.5981
 11
-21.3519
 21
-17.7716
  0
LINE
  8
0
 10
-21.3519
 20
-17.7716
 11
-21.7235
 21
-17.8978
  0
LINE
  8
0
 10
-21.7235
 20
-17.8978
 11
-22.1084
 21
-17.9743
  0
LINE
  8
0
 10
-22.1084
 20
-17.9743
 11
-22.5
 21
-18
  0
LINE
  8
0
 10
-22.5
 20
-18
 11
-22.8916
 21
-17.9743
  0
LINE
  8
0
 10
-7.89157
 20
-17.9743
 11
-8.27644
 21
-17.8978
  0
LINE
  8
0
 10
-8.27644
 20
-17.8978
 11
-8.64804
 21
-17.7716
  0
LINE
  8
0
 10
-8.64804
 20
-17.7716
 11
-9
 21
-17.5981
  0
LINE
  8
0
 10
-9
 20
-17.5981
 11
-9.32628
 21
-17.3801
  0
LINE
  8
0
 10
-9.32628
 20
-17.3801
 11
-9.62131
 21
-17.1213
  0
LINE
  8
0
 10
-9.62131
 20
-17.1213
 11
-9.88005
 21
-16.8263
  0
LINE
  8
0
 10
-9.88005
 20
-16.8263
 11
-10.0981
 21
-16.5
  0
LINE
  8
0
 10
-10.0981
 20
-16.5
 11
-10.2716
 21
-16.148
  0
LINE
  8
0
 10
-10.2716
 20
-16.148
 11
-10.3978
 21
-15.7764
  0
LINE
  8
0
 10
-10.3978
 20
-15.7764
 11
-10.4743
 21
-15.3916
  0
LINE
  8
0
 10
-10.4743
 20
-15.3916
 11
-10.5
 21
-15
  0
LINE
  8
0
 10
-10.5
 20
-15
 11
-10.4743
 21
-14.6084
  0
LINE
  8
0
 10
-10.4743
 20
-14.6084
 11
-10.3978
 21
-14.2235
  0
LINE
  8
0
 10
-10.3978
 20
-14.2235
 11
-10.2716
 21
-13.8519
  0
LINE
  8
0
 10
-10.2716
 20
-13.8519
 11
-10.0981
 21
-13.5
  0
LINE
  8
0
 10
-10.0981
 20
-13.5
 11
-9.88005
 21
-13.1737
  0
LINE
  8
0
 10
-9.88005
 20
-13.1737
 11
-9.62131
 21
-12.8787
  0
LINE
  8
0
 10
-9.62131
 20
-12.8787
 11
-9.32628
 21
-12.6199
  0
LINE
  8
0
 10
-9.32628
 20
-12.6199
 11
-9
 21
-12.4019
  0
LINE
  8
0
 10
-9
 20
-12.4019
 11
-8.64804
 21
-12.2283
  0
LINE
  8
0
 10
-8.64804
 20
-12.2283
 11
-8.27644
 21
-12.1022
  0
LINE
  8
0
 10
-8.27644
 20
-12.1022
 11
-7.89157
 21
-12.0257
  0
LINE
  8
0
 10
-7.89157
 20
-12.0257
 11
-7.5
 21
-12
  0
LINE
  8
0
 10
-7.5
 20
-12
 11
-7.10841
 21
-12.0257
  0
LINE
  8
0
 10
-7.10841
 20
-12.0257
 11
-6.72354
 21
-12.1022
  0
LINE
  8
0
 10
-6.72354
 20
-12.1022
 11
-6.35194
 21
-12.2283
  0
LINE
  8
0
 10
-6.35194
 20
-12.2283
 11
-6
 21
-12.4019
  0
LINE
  8
0
 10
-6
 20
-12.4019
 11
-5.67371
 21
-12.6199
  0
LINE
  8
0
 10
-5.67371
 20
-12.6199
 11
-5.37868
 21
-12.8787
  0
LINE
  8
0
 10
-5.37868
 20
-12.8787
 11
-5.11993
 21
-13.1737
  0
LINE
  8
0
 10
-5.11993
 20
-13.1737
 11
-4.90192
 21
-13.5
  0
LINE
  8
0
 10
-4.90192
 20
-13.5
 11
-4.72835
 21
-13.8519
  0
LINE
  8
0
 10
-4.72835
 20
-13.8519
 11
-4.60222
 21
-14.2235
  0
LINE
  8
0
 10
-4.60222
 20
-14.2235
 11
-4.52567
 21
-14.6084
  0
LINE
  8
0
 10
-4.52567
 20
-14.6084
 11
-4.5
 21
-15
  0
LINE
  8
0
 10
-4.5
 20
-15
 11
-4.52567
 21
-15.3916
  0
LINE
  8
0
 10
-4.52567
 20
-15.3916
 11
-4.60222
 21
-15.7764
  0
LINE
  8
0
 10
-4.60222
 20
-15.7764
 11
-4.72835
 21
-16.148
  0
LINE
  8
0
 10
-4.72835
 20
-16.148
 11
-4.90192
 21
-16.5
  0
LINE
  8
0
 10
-4.90192
 20
-16.5
 11
-5.11993
 21
-16.8263
  0
LINE
  8
0
 10
-5.11993
 20
-16.8263
 11
-5.37868
 21
-17.1213
  0
LINE
  8
0
 10
-5.37868
 20
-17.1213
 11
-5.67371
 21
-17.3801
  0
LINE
  8
0
 10
-5.67371
 20
-17.3801
 11
-6
 21
-17.5981
  0
LINE
  8
0
 10
-6
 20
-17.5981
 11
-6.35194
 21
-17.7716
  0
LINE
  8
0
 10
-6.35194
 20
-17.7716
 11
-6.72354
 21
-17.8978
  0
LINE
  8
0
 10
-6.72354
 20
-17.8978
 11
-7.10841
 21
-17.9743
  0
LINE
  8
0
 10
-7.10841
 20
-17.9743
 11
-7.5
 21
-18
  0
LINE
  8
0
 10
-7.5
 20
-18
 11
-7.89157
 21
-17.9743
  0
LINE
  8
0
 10
7.10841
 20
-17.9743
 11
6.72354
 21
-17.8978
  0
LINE
  8
0
 10
6.72354
 20
-17.8978
 11
6.35194
 21
-17.7716
  0
LINE
  8
0
 10
6.35194
 20
-17.7716
 11
6
 21
-17.5981
  0
LINE
  8
0
 10
6
 20
-17.5981
 11
5.67371
 21
-17.3801
  0
LINE
  8
0
 10
5.67371
 20
-17.3801
 11
5.37868
 21
-17.1213
  0
LINE
  8
0
 10
5.37868
 20
-17.1213
 11
5.11993
 21
-16.8263
  0
LINE
  8
0
 10
5.11993
 20
-16.8263
 11
4.90192
 21
-16.5
  0
LINE
  8
0
 10
4.90192
 20
-16.5
 11
4.72835
 21
-16.148
  0
LINE
  8
0
 10
4.72835
 20
-16.148
 11
4.60222
 21
-15.7764
  0
LINE
  8
0
 10
4.60222
 20
-15.7764
 11
4.52567
 21
-15.3916
  0
LINE
  8
0
 10
4.52567
 20
-15.3916
 11
4.5
 21
-15
  0
LINE
  8
0
 10
4.5
 20
-15
 11
4.52567
 21
-14.6084
  0
LINE
  8
0
 10
4.52567
 20
-14.6084
 11
4.60222
 21
-14.2235
  0
LINE
  8
0
 10
4.60222
 20
-14.2235
 11
4.72835
 21
-13.8519
  0
LINE
  8
0
 10
4.72835
 20
-13.8519
 11
4.90192
 21
-13.5
  0
LINE
  8
0
 10
4.90192
 20
-13.5
 11
5.11993
 21
-13.1737
  0
LINE
  8
0
 10
5.11993
 20
-13.1737
 11
5.37868
 21
-12.8787
  0
LINE
  8
0
 10
5.37868
 20
-12.8787
 11
5.67371
 21
-12.6199
  0
LINE
  8
0
 10
5.67371
 20
-12.6199
 11
6
 21
-12.4019
  0
LINE
  8
0
 10
6
 20
-12.4019
 11
6.35194
 21
-12.2283
  0
LINE
  8
0
 10
6.35194
 20
-12.2283
 11
6.72354
 21
-12.1022
  0
LINE
  8
0
 10
6.72354
 20
-12.1022
 11
7.10841
 21
-12.0257
  0
LINE
  8
0
 10
7.10841
 20
-12.0257
 11
7.5
 21
-12
  0
LINE
  8
0
 10
7.5
 20
-12
 11
7.89157
 21
-12.0257
  0
LINE
  8
0
 10
7.89157
 20
-12.0257
 11
8.27644
 21
-12.1022
  0
LINE
  8
0
 10
8.27644
 20
-12.1022
 11
8.64804
 21
-12.2283
  0
LINE
  8
0
 10
8.64804
 20
-12.2283
 11
9
 21
-12.4019
  0
LINE
  8
0
 10
9
 20
-12.4019
 11
9.32628
 21
-12.6199
  0
LINE
  8
0
 10
9.32628
 20
-12.6199
 11
9.62131
 21
-12.8787
  0
LINE
  8
0
 10
9.62131
 20
-12.8787
 11
9.88005
 21
-13.1737
  0
LINE
  8
0
 10
9.88005
 20
-13.1737
 11
10.0981
 21
-13.5
  0
LINE
  8
0
 10
10.0981
 20
-13.5
 11
10.2716
 21
-13.8519
  0
LINE
  8
0
 10
10.2716
 20
-13.8519
 11
10.3978
 21
-14.2235
  0
LINE
  8
0
 10
10.3978
 20
-14.2235
 11
10.4743
 21
-14.6084
  0
LINE
  8
0
 10
10.4743
 20
-14.6084
 11
10.5
 21
-15
  0
LINE
  8
0
 10
10.5
 20
-15
 11
10.4743
 21
-15.3916
  0
LINE
  8
0
 10
10.4743
 20
-15.3916
 11
10.3978
 21
-15.7764
  0
LINE
  8
0
 10
10.3978
 20
-15.7764
 11
10.2716
 21
-16.148
  0
LINE
  8
0
 10
10.2716
 20
-16.148
 11
10.0981
 21
-16.5
  0
LINE
  8
0
 10
10.0981
 20
-16.5
 11
9.88005
 21
-16.8263
  0
LINE
  8
0
 10
9.88005
 20
-16.8263
 11
9.62131
 21
-17.1213
  0
LINE
  8
0
 10
9.62131
 20
-17.1213
 11
9.32628
 21
-17.3801
  0
LINE
  8
0
 10
9.32628
 20
-17.3801
 11
9
 21
-17.5981
  0
LINE
  8
0
 10
9
 20
-17.5981
 11
8.64804
 21
-17.7716
  0
LINE
  8
0
 10
8.64804
 20
-17.7716
 11
8.27644
 21
-17.8978
  0
LINE
  8
0
 10
8.27644
 20
-17.8978
 11
7.89157
 21
-17.9743
  0
LINE
  8
0
 10
7.89157
 20
-17.9743
 11
7.5
 21
-18
  0
LINE
  8
0
 10
7.5
 20
-18
 11
7.10841
 21
-17.9743
  0
LINE
  8
0
 10
22.1084
 20
-17.9743
 11
21.7235
 21
-17.8978
  0
LINE
  8
0
 10
21.7235
 20
-17.8978
 11
21.3519
 21
-17.7716
  0
LINE
  8
0
 10
21.3519
 20
-17.7716
 11
21
 21
-17.5981
  0
LINE
  8
0
 10
21
 20
-17.5981
 11
20.6737
 21
-17.3801
  0
LINE
  8
0
 10
20.6737
 20
-17.3801
 11
20.3787
 21
-17.1213
  0
LINE
  8
0
 10
20.3787
 20
-17.1213
 11
20.1199
 21
-16.8263
  0
LINE
  8
0
 10
20.1199
 20
-16.8263
 11
19.9019
 21
-16.5
  0
LINE
  8
0
 10
19.9019
 20
-16.5
 11
19.7283
 21
-16.148
  0
LINE
  8
0
 10
19.7283
 20
-16.148
 11
19.6022
 21
-15.7764
  0
LINE
  8
0
 10
19.6022
 20
-15.7764
 11
19.5257
 21
-15.3916
  0
LINE
  8
0
 10
19.5257
 20
-15.3916
 11
19.5
 21
-15
  0
LINE
  8
0
 10
19.5
 20
-15
 11
19.5257
 21
-14.6084
  0
LINE
  8
0
 10
19.5257
 20
-14.6084
 11
19.6022
 21
-14.2235
  0
LINE
  8
0
 10
19.6022
 20
-14.2235
 11
19.7283
 21
-13.8519
  0
LINE
  8
0
 10
19.7283
 20
-13.8519
 11
19.9019
 21
-13.5
  0
LINE
  8
0
 10
19.9019
 20
-13.5
 11
20.1199
 21
-13.1737
  0
LINE
  8
0
 10
20.1199
 20
-13.1737
 11
20.3787
 21
-12.8787
  0
LINE
  8
0
 10
20.3787
 20
-12.8787
 11
20.6737
 21
-12.6199
  0
LINE
  8
0
 10
20.6737
 20
-12.6199
 11
21
 21
-12.4019
  0
LINE
  8
0
 10
21
 20
-12.4019
 11
21.3519
 21
-12.2283
  0
LINE
  8
0
 10
21.3519
 20
-12.2283
 11
21.7235
 21
-12.1022
  0
LINE
  8
0
 10
21.7235
 20
-12.1022
 11
22.1084
 21
-12.0257
  0
LINE
  8
0
 10
22.1084
 20
-12.0257
 11
22.5
 21
-12
  0
LINE
  8
0
 10
22.5
 20
-12
 11
22.8916
 21
-12.0257
  0
LINE
  8
0
 10
22.8916
 20
-12.0257
 11
23.2764
 21
-12.1022
  0
LINE
  8
0
 10
23.2764
 20
-12.1022
 11
23.648
 21
-12.2283
  0
LINE
  8
0
 10
23.648
 20
-12.2283
 11
24
 21
-12.4019
  0
LINE
  8
0
 10
24
 20
-12.4019
 11
24.3263
 21
-12.6199
  0
LINE
  8
0
 10
24.3263
 20
-12.6199
 11
24.6213
 21
-12.8787
  0
LINE
  8
0
 10
24.6213
 20
-12.8787
 11
24.8801
 21
-13.1737
  0
LINE
  8
0
 10
24.8801
 20
-13.1737
 11
25.0981
 21
-13.5
  0
LINE
  8
0
 10
25.0981
 20
-13.5
 11
25.2716
 21
-13.8519
  0
LINE
  8
0
 10
25.2716
 20
-13.8519
 11
25.3978
 21
-14.2235
  0
LINE
  8
0
 10
25.3978
 20
-14.2235
 11
25.4743
 21
-14.6084
  0
LINE
  8
0
 10
25.4743
 20
-14.6084
 11
25.5
 21
-15
  0
LINE
  8
0
 10
25.5
 20
-15
 11
25.4743
 21
-15.3916
  0
LINE
  8
0
 10
25.4743
 20
-15.3916
 11
25.3978
 21
-15.7764
  0
LINE
  8
0
 10
25.3978
 20
-15.7764
 11
25.2716
 21
-16.148
  0
LINE
  8
0
 10
25.2716
 20
-16.148
 11
25.0981
 21
-16.5
  0
LINE
  8
0
 10
25.0981
 20
-16.5
 11
24.8801
 21
-16.8263
  0
LINE
  8
0
 10
24.8801
 20
-16.8263
 11
24.6213
 21
-17.1213
  0
LINE
  8
0
 10
24.6213
 20
-17.1213
 11
24.3263
 21
-17.3801
  0
LINE
  8
0
 10
24.3263
 20
-17.3801
 11
24
 21
-17.5981
  0
LINE
  8
0
 10
24
 20
-17.5981
 11
23.648
 21
-17.7716
  0
LINE
  8
0
 10
23.648
 20
-17.7716
 11
23.2764
 21
-17.8978
  0
LINE
  8
0
 10
23.2764
 20
-17.8978
 11
22.8916
 21
-17.9743
  0
LINE
  8
0
 10
22.8916
 20
-17.9743
 11
22.5
 21
-18
  0
LINE
  8
0
 10
22.5
 20
-18
 11
22.1084
 21
-17.9743
  0
LINE
  8
0
 10
9.32628
 20
12.6199
 11
9
 21
12.4019
  0
LINE
  8
0
 10
9
 20
12.4019
 11
8.64804
 21
12.2283
  0
LINE
  8
0
 10
8.64804
 20
12.2283
 11
8.27644
 21
12.1022
  0
LINE
  8
0
 10
8.27644
 20
12.1022
 11
7.89157
 21
12.0257
  0
LINE
  8
0
 10
7.89157
 20
12.0257
 11
7.5
 21
12
  0
LINE
  8
0
 10
7.5
 20
12
 11
7.10841
 21
12.0257
  0
LINE
  8
0
 10
7.10841
 20
12.0257
 11
6.72354
 21
12.1022
  0
LINE
  8
0
 10
6.72354
 20
12.1022
 11
6.35194
 21
12.2283
  0
LINE
  8
0
 10
6.35194
 20
12.2283
 11
6
 21
12.4019
  0
LINE
  8
0
 10
6
 20
12.4019
 11
5.67371
 21
12.6199
  0
LINE
  8
0
 10
5.67371
 20
12.6199
 11
5.37868
 21
12.8787
  0
LINE
  8
0
 10
5.37868
 20
12.8787
 11
5.11993
 21
13.1737
  0
LINE
  8
0
 10
5.11993
 20
13.1737
 11
4.90192
 21
13.5
  0
LINE
  8
0
 10
4.90192
 20
13.5
 11
4.72835
 21
13.8519
  0
LINE
  8
0
 10
4.72835
 20
13.8519
 11
4.60222
 21
14.2235
  0
LINE
  8
0
 10
4.60222
 20
14.2235
 11
4.52567
 21
14.6084
  0
LINE
  8
0
 10
4.52567
 20
14.6084
 11
4.5
 21
15
  0
LINE
  8
0
 10
4.5
 20
15
 11
4.52567
 21
15.3916
  0
LINE
  8
0
 10
4.52567
 20
15.3916
 11
4.60222
 21
15.7764
  0
LINE
  8
0
 10
4.60222
 20
15.7764
 11
4.72835
 21
16.148
  0
LINE
  8
0
 10
4.72835
 20
16.148
 11
4.90192
 21
16.5
  0
LINE
  8
0
 10
4.90192
 20
16.5
 11
5.11993
 21
16.8263
  0
LINE
  8
0
 10
5.11993
 20
16.8263
 11
5.37868
 21
17.1213
  0
LINE
  8
0
 10
5.37868
 20
17.1213
 11
5.67371
 21
17.3801
  0
LINE
  8
0
 10
5.67371
 20
17.3801
 11
6
 21
17.5981
  0
LINE
  8
0
 10
6
 20
17.5981
 11
6.35194
 21
17.7716
  0
LINE
  8
0
 10
6.35194
 20
17.7716
 11
6.72354
 21
17.8978
  0
LINE
  8
0
 10
6.72354
 20
17.8978
 11
7.10841
 21
17.9743
  0
LINE
  8
0
 10
7.10841
 20
17.9743
 11
7.5
 21
18
  0
LINE
  8
0
 10
7.5
 20
18
 11
7.89157
 21
17.9743
  0
LINE
  8
0
 10
7.89157
 20
17.9743
 11
8.27644
 21
17.8978
  0
LINE
  8
0
 10
8.27644
 20
17.8978
 11
8.64804
 21
17.7716
  0
LINE
  8
0
 10
8.64804
 20
17.7716
 11
9
 21
17.5981
  0
LINE
  8
0
 10
9
 20
17.5981
 11
9.32628
 21
17.3801
  0
LINE
  8
0
 10
9.32628
 20
17.3801
 11
9.62131
 21
17.1213
  0
LINE
  8
0
 10
9.62131
 20
17.1213
 11
9.88005
 21
16.8263
  0
LINE
  8
0
 10
9.88005
 20
16.8263
 11
10.0981
 21
16.5
  0
LINE
  8
0
 10
10.0981
 20
16.5
 11
10.2716
 21
16.148
  0
LINE
  8
0
 10
10.2716
 20
16.148
 11
10.3978
 21
15.7764
  0
LINE
  8
0
 10
10.3978
 20
15.7764
 11
10.4743
 21
15.3916
  0
LINE
  8
0
 10
10.4743
 20
15.3916
 11
10.5
 21
15
  0
LINE
  8
0
 10
10.5
 20
15
 11
10.4743
 21
14.6084
  0
LINE
  8
0
 10
10.4743
 20
14.6084
 11
10.3978
 21
14.2235
  0
LINE
  8
0
 10
10.3978
 20
14.2235
 11
10.2716
 21
13.8519
  0
LINE
  8
0
 10
10.2716
 20
13.8519
 11
10.0981
 21
13.5
  0
LINE
  8
0
 10
10.0981
 20
13.5
 11
9.88005
 21
13.1737
  0
LINE
  8
0
 10
9.88005
 20
13.1737
 11
9.62131
 21
12.8787
  0
LINE
  8
0
 10
9.62131
 20
12.8787
 11
9.32628
 21
12.6199
  0
LINE
  8
0
 10
-6
 20
12.4019
 11
-6.35194
 21
12.2283
  0
LINE
  8
0
 10
-6.35194
 20
12.2283
 11
-6.72354
 21
12.1022
  0
LINE
  8
0
 10
-6.72354
 20
12.1022
 11
-7.10841
 21
12.0257
  0
LINE
  8
0
 10
-7.10841
 20
12.0257
 11
-7.5
 21
12
  0
LINE
  8
0
 10
-7.5
 20
12
 11
-7.89157
 21
12.0257
  0
LINE
  8
0
 10
-7.89157
 20
12.0257
 11
-8.27644
 21
12.1022
  0
LINE
  8
0
 10
-8.27644
 20
12.1022
 11
-8.64804
 21
12.2283
  0
LINE
  8
0
 10
-8.64804
 20
12.2283
 11
-9
 21
12.4019
  0
LINE
  8
0
 10
-9
 20
12.4019
 11
-9.32628
 21
12.6199
  0
LINE
  8
0
 10
-9.32628
 20
12.6199
 11
-9.62131
 21
12.8787
  0
LINE
  8
0
 10
-9.62131
 20
12.8787
 11
-9.88005
 21
13.1737
  0
LINE
  8
0
 10
-9.88005
 20
13.1737
 11
-10.0981
 21
13.5
  0
LINE
  8
0
 10
-10.0981
 20
13.5
 11
-10.2716
 21
13.8519
  0
LINE
  8
0
 10
-10.2716
 20
13.8519
 11
-10.3978
 21
14.2235
  0
LINE
  8
0
 10
-10.3978
 20
14.2235
 11
-10.4743
 21
14.6084
  0
LINE
  8
0
 10
-10.4743
 20
14.6084
 11
-10.5
 21
15
  0
LINE
  8
0
 10
-10.5
 20
15
 11
-10.4743
 21
15.3916
  0
LINE
  8
0
 10
-10.4743
 20
15.3916
 11
-10.3978
 21
15.7764
  0
LINE
  8
0
 10
-10.3978
 20
15.7764
 11
-10.2716
 21
16.148
  0
LINE
  8
0
 10
-10.2716
 20
16.148
 11
-10.0981
 21
16.5
  0
LINE
  8
0
 10
-10.0981
 20
16.5
 11
-9.88005
 21
16.8263
  0
LINE
  8
0
 10
-9.88005
 20
16.8263
 11
-9.62131
 21
17.1213
  0
LINE
  8
0
 10
-9.62131
 20
17.1213
 11
-9.32628
 21
17.3801
  0
LINE
  8
0
 10
-9.32628
 20
17.3801
 11
-9
 21
17.5981
  0
LINE
  8
0
 10
-9
 20
17.5981
 11
-8.64804
 21
17.7716
  0
LINE
  8
0
 10
-8.64804
 20
17.7716
 11
-8.27644
 21
17.8978
  0
LINE
  8
0
 10
-8.27644
 20
17.8978
 11
-7.89157
 21
17.9743
  0
LINE
  8
0
 10
-7.89157
 20
17.9743
 11
-7.5
 21
18
  0
LINE
  8
0
 10
-7.5
 20
18
 11
-7.10841
 21
17.9743
  0
LINE
  8
0
 10
-7.10841
 20
17.9743
 11
-6.72354
 21
17.8978
  0
LINE
  8
0
 10
-6.72354
 20
17.8978
 11
-6.35194
 21
17.7716
  0
LINE
  8
0
 10
-6.35194
 20
17.7716
 11
-6
 21
17.5981
  0
LINE
  8
0
 10
-6
 20
17.5981
 11
-5.67371
 21
17.3801
  0
LINE
  8
0
 10
-5.67371
 20
17.3801
 11
-5.37868
 21
17.1213
  0
LINE
  8
0
 10
-5.37868
 20
17.1213
 11
-5.11993
 21
16.8263
  0
LINE
  8
0
 10
-5.11993
 20
16.8263
 11
-4.90192
 21
16.5
  0
LINE
  8
0
 10
-4.90192
 20
16.5
 11
-4.72835
 21
16.148
  0
LINE
  8
0
 10
-4.72835
 20
16.148
 11
-4.60222
 21
15.7764
  0
LINE
  8
0
 10
-4.60222
 20
15.7764
 11
-4.52567
 21
15.3916
  0
LINE
  8
0
 10
-4.52567
 20
15.3916
 11
-4.5
 21
15
  0
LINE
  8
0
 10
-4.5
 20
15
 11
-4.52567
 21
14.6084
  0
LINE
  8
0
 10
-4.52567
 20
14.6084
 11
-4.60222
 21
14.2235
  0
LINE
  8
0
 10
-4.60222
 20
14.2235
 11
-4.72835
 21
13.8519
  0
LINE
  8
0
 10
-4.72835
 20
13.8519
 11
-4.90192
 21
13.5
  0
LINE
  8
0
 10
-4.90192
 20
13.5
 11
-5.11993
 21
13.1737
  0
LINE
  8
0
 10
-5.11993
 20
13.1737
 11
-5.37868
 21
12.8787
  0
LINE
  8
0
 10
-5.37868
 20
12.8787
 11
-5.67371
 21
12.6199
  0
LINE
  8
0
 10
-5.67371
 20
12.6199
 11
-6
 21
12.4019
  0
LINE
  8
0
 10
-4.90192
 20
1.5
 11
-4.72835
 21
1.14804
  0
LINE
  8
0
 10
-4.72835
 20
1.14804
 11
-4.60222
 21
0.776443
  0
LINE
  8
0
 10
-4.60222
 20
0.776443
 11
-4.52567
 21
0.391571
  0
LINE
  8
0
 10
-4.52567
 20
0.391571
 11
-4.5
 21
0
  0
LINE
  8
0
 10
-4.5
 20
0
 11
-4.52567
 21
-0.391571
  0
LINE
  8
0
 10
-4.52567
 20
-0.391571
 11
-4.60222
 21
-0.776443
  0
LINE
  8
0
 10
-4.60222
 20
-0.776443
 11
-4.72835
 21
-1.14804
  0
LINE
  8
0
 10
-4.72835
 20
-1.14804
 11
-4.90192
 21
-1.5
  0
LINE
  8
0
 10
-4.90192
 20
-1.5
 11
-5.11993
 21
-1.82628
  0
LINE
  8
0
 10
-5.11993
 20
-1.82628
 11
-5.37868
 21
-2.12131
  0
LINE
  8
0
 10
-5.37868
 20
-2.12131
 11
-5.67371
 21
-2.38005
  0
LINE
  8
0
 10
-5.67371
 20
-2.38005
 11
-6
 21
-2.59807
  0
LINE
  8
0
 10
-6
 20
-2.59807
 11
-6.35194
 21
-2.77164
  0
LINE
  8
0
 10
-6.35194
 20
-2.77164
 11
-6.72354
 21
-2.89777
  0
LINE
  8
0
 10
-6.72354
 20
-2.89777
 11
-7.10841
 21
-2.97432
  0
LINE
  8
0
 10
-7.10841
 20
-2.97432
 11
-7.5
 21
-3
  0
LINE
  8
0
 10
-7.5
 20
-3
 11
-7.89157
 21
-2.97432
  0
LINE
  8
0
 10
-7.89157
 20
-2.97432
 11
-8.27644
 21
-2.89777
  0
LINE
  8
0
 10
-8.27644
 20
-2.89777
 11
-8.64804
 21
-2.77164
  0
LINE
  8
0
 10
-8.64804
 20
-2.77164
 11
-9
 21
-2.59807
  0
LINE
  8
0
 10
-9
 20
-2.59807
 11
-9.32628
 21
-2.38005
  0
LINE
  8
0
 10
-9.32628
 20
-2.38005
 11
-9.62131
 21
-2.12131
  0
LINE
  8
0
 10
-9.62131
 20
-2.12131
 11
-9.88005
 21
-1.82628
  0
LINE
  8
0
 10
-9.88005
 20
-1.82628
 11
-10.0981
 21
-1.5
  0
LINE
  8
0
 10
-10.0981
 20
-1.5
 11
-10.2716
 21
-1.14804
  0
LINE
  8
0
 10
-10.2716
 20
-1.14804
 11
-10.3978
 21
-0.776443
  0
LINE
  8
0
 10
-10.3978
 20
-0.776443
 11
-10.4743
 21
-0.391571
  0
LINE
  8
0
 10
-10.4743
 20
-0.391571
 11
-10.5
 21
0
  0
LINE
  8
0
 10
-10.5
 20
0
 11
-10.4743
 21
0.391571
  0
LINE
  8
0
 10
-10.4743
 20
0.391571
 11
-10.3978
 21
0.776443
  0
LINE
  8
0
 10
-10.3978
 20
0.776443
 11
-10.2716
 21
1.14804
  0
LINE
  8
0
 10
-10.2716
 20
1.14804
 11
-10.0981
 21
1.5
  0
LINE
  8
0
 10
-10.0981
 20
1.5
 11
-9.88005
 21
1.82628
  0
LINE
  8
0
 10
-9.88005
 20
1.82628
 11
-9.62131
 21
2.12131
  0
LINE
  8
0
 10
-9.62131
 20
2.12131
 11
-9.32628
 21
2.38005
  0
LINE
  8
0
 10
-9.32628
 20
2.38005
 11
-9
 21
2.59807
  0
LINE
  8
0
 10
-9
 20
2.59807
 11
-8.64804
 21
2.77164
  0
LINE
  8
0
 10
-8.64804
 20
2.77164
 11
-8.27644
 21
2.89777
  0
LINE
  8
0
 10
-8.27644
 20
2.89777
 11
-7.89157
 21
2.97432
  0
LINE
  8
0
 10
-7.89157
 20
2.97432
 11
-7.5
 21
3
  0
LINE
  8
0
 10
-7.5
 20
3
 11
-7.10841
 21
2.97432
  0
LINE
  8
0
 10
-7.10841
 20
2.97432
 11
-6.72354
 21
2.89777
  0
LINE
  8
0
 10
-6.72354
 20
2.89777
 11
-6.35194
 21
2.77164
  0
LINE
  8
0
 10
-6.35194
 20
2.77164
 11
-6
 21
2.59807
  0
LINE
  8
0
 10
-6
 20
2.59807
 11
-5.67371
 21
2.38005
  0
LINE
  8
0
 10
-5.67371
 20
2.38005
 11
-5.37868
 21
2.12131
  0
LINE
  8
0
 10
-5.37868
 20
2.12131
 11
-5.11993
 21
1.82628
  0
LINE
  8
0
 10
-5.11993
 20
1.82628
 11
-4.90192
 21
1.5
  0
ENDSEC
  0
SECTION
  2
OBJECTS
  0
DICTIONARY
  0
ENDSEC
  0
EOF
