<?xml version="1.0" standalone="no"?>
<!DOCTYPE svg PUBLIC "-//W3C//DTD SVG 1.1//EN" "http://www.w3.org/Graphics/SVG/1.1/DTD/svg11.dtd">
<svg width="58mm" height="44mm" viewBox="-29 -22 58 44" xmlns="http://www.w3.org/2000/svg" version="1.1">
<title>OpenSCAD Model</title>
<path d="
M 24.1576,20.9622 L 24.7991,20.8346 L 25.4184,20.6244 L 26.005,20.3351 L 26.5488,19.9718 L 27.0405,19.5405
 L 27.4718,19.0488 L 27.8351,18.505 L 28.1244,17.9184 L 28.3346,17.2991 L 28.4622,16.6576 L 28.505,16.005
 L 28.505,-16.005 L 28.4622,-16.6576 L 28.3346,-17.2991 L 28.1244,-17.9184 L 27.8351,-18.505 L 27.4718,-19.0488
 L 27.0405,-19.5405 L 26.5488,-19.9718 L 26.005,-20.3351 L 25.4184,-20.6244 L 24.7991,-20.8346 L 24.1576,-20.9622
 L 23.505,-21.005 L -23.505,-21.005 L -24.1576,-20.9622 L -24.7991,-20.8346 L -25.4184,-20.6244 L -26.005,-20.3351
 L -26.5488,-19.9718 L -27.0405,-19.5405 L -27.4718,-19.0488 L -27.8351,-18.505 L -28.1244,-17.9184 L -28.3346,-17.2991
 L -28.4622,-16.6576 L -28.505,-16.005 L -28.505,16.005 L -28.4622,16.6576 L -28.3346,17.2991 L -28.1244,17.9184
 L -27.8351,18.505 L -27.4718,19.0488 L -27.0405,19.5405 L -26.5488,19.9718 L -26.005,20.3351 L -25.4184,20.6244
 L -24.7991,20.8346 L -24.1576,20.9622 L -23.505,21.005 L 23.505,21.005 z
M 19.4974,-13.7563 L 19.3607,-14.1588 L 19.2778,-14.5758 L 19.25,-15 L 19.2778,-15.4242 L 19.3607,-15.8412
 L 19.4974,-16.2437 L 19.6854,-16.625 L 19.9216,-16.9785 L 20.2019,-17.2981 L 20.5215,-17.5784 L 20.875,-17.8146
 L 21.2563,-18.0026 L 21.6588,-18.1393 L 22.0758,-18.2222 L 22.5,-18.25 L 22.9242,-18.2222 L 23.3412,-18.1393
 L 23.7437,-18.0026 L 24.125,-17.8146 L 24.4785,-17.5784 L 24.7981,-17.2981 L 25.0784,-16.9785 L 25.3146,-16.625
 L 25.5026,-16.2437 L 25.6393,-15.8412 L 25.7222,-15.4242 L 25.75,-15 L 25.7222,-14.5758 L 25.6393,-14.1588
 L 25.5026,-13.7563 L 25.3146,-13.375 L 25.0784,-13.0215 L 24.7981,-12.7019 L 24.4785,-12.4216 L 24.125,-12.1854
 L 23.7437,-11.9974 L 23.3412,-11.8607 L 22.9242,-11.7778 L 22.5,-11.75 L 22.0758,-11.7778 L 21.6588,-11.8607
 L 21.2563,-11.9974 L 20.875,-12.1854 L 20.5215,-12.4216 L 20.2019,-12.7019 L 19.9216,-13.0215 L 19.6854,-13.375
 z
M -22.9242,-11.7778 L -23.3412,-11.8607 L -23.7437,-11.9974 L -24.125,-12.1854 L -24.4785,-12.4216 L -24.7981,-12.7019
 L -25.0784,-13.0215 L -25.3146,-13.375 L -25.5026,-13.7563 L -25.6393,-14.1588 L -25.7222,-14.5758 L -25.75,-15
 L -25.7222,-15.4242 L -25.6393,-15.8412 L -25.5026,-16.2437 L -25.3146,-16.625 L -25.0784,-16.9785 L -24.7981,-17.2981
 L -24.4785,-17.5784 L -24.125,-17.8146 L -23.7437,-18.0026 L -23.3412,-18.1393 L -22.9242,-18.2222 L -22.5,-18.25
 L -22.0758,-18.2222 L -21.6588,-18.1393 L -21.2563,-18.0026 L -20.875,-17.8146 L -20.5215,-17.5784 L -20.2019,-17.2981
 L -19.9216,-16.9785 L -19.6854,-16.625 L -19.4974,-16.2437 L -19.3607,-15.8412 L -19.2778,-15.4242 L -19.25,-15
 L -19.2778,-14.5758 L -19.3607,-14.1588 L -19.4974,-13.7563 L -19.6854,-13.375 L -19.9216,-13.0215 L -20.2019,-12.7019
 L -20.5215,-12.4216 L -20.875,-12.1854 L -21.2563,-11.9974 L -21.6588,-11.8607 L -22.0758,-11.7778 L -22.5,-11.75
 z
M 22.0758,3.22218 L 21.6588,3.13925 L 21.2563,3.00259 L 20.875,2.81458 L 20.5215,2.57838 L 20.2019,2.2981
 L 19.9216,1.97847 L 19.6854,1.625 L 19.4974,1.24371 L 19.3607,0.841156 L 19.2778,0.42421 L 19.25,-0
 L 19.2778,-0.42421 L 19.3607,-0.841156 L 19.4974,-1.24371 L 19.6854,-1.625 L 19.9216,-1.97847 L 20.2019,-2.2981
 L 20.5215,-2.57838 L 20.875,-2.81458 L 21.2563,-3.00259 L 21.6588,-3.13925 L 22.0758,-3.22218 L 22.5,-3.25
 L 22.9242,-3.22218 L 23.3412,-3.13925 L 23.7437,-3.00259 L 24.125,-2.81458 L 24.4785,-2.57838 L 24.7981,-2.2981
 L 25.0784,-1.97847 L 25.3146,-1.625 L 25.5026,-1.24371 L 25.6393,-0.841156 L 25.7222,-0.42421 L 25.75,-0
 L 25.7222,0.42421 L 25.6393,0.841156 L 25.5026,1.24371 L 25.3146,1.625 L 25.0784,1.97847 L 24.7981,2.2981
 L 24.4785,2.57838 L 24.125,2.81458 L 23.7437,3.00259 L 23.3412,3.13925 L 22.9242,3.22218 L 22.5,3.25
 z
M -22.9242,3.22218 L -23.3412,3.13925 L -23.7437,3.00259 L -24.125,2.81458 L -24.4785,2.57838 L -24.7981,2.2981
 L -25.0784,1.97847 L -25.3146,1.625 L -25.5026,1.24371 L -25.6393,0.841156 L -25.7222,0.42421 L -25.75,-0
 L -25.7222,-0.42421 L -25.6393,-0.841156 L -25.5026,-1.24371 L -25.3146,-1.625 L -25.0784,-1.97847 L -24.7981,-2.2981
 L -24.4785,-2.57838 L -24.125,-2.81458 L -23.7437,-3.00259 L -23.3412,-3.13925 L -22.9242,-3.22218 L -22.5,-3.25
 L -22.0758,-3.22218 L -21.6588,-3.13925 L -21.2563,-3.00259 L -20.875,-2.81458 L -20.5215,-2.57838 L -20.2019,-2.2981
 L -19.9216,-1.97847 L -19.6854,-1.625 L -19.4974,-1.24371 L -19.3607,-0.841156 L -19.2778,-0.42421 L -19.25,-0
 L -19.2778,0.42421 L -19.3607,0.841156 L -19.4974,1.24371 L -19.6854,1.625 L -19.9216,1.97847 L -20.2019,2.2981
 L -20.5215,2.57838 L -20.875,2.81458 L -21.2563,3.00259 L -21.6588,3.13925 L -22.0758,3.22218 L -22.5,3.25
 z
M 5.875,-2.81458 L 6.25627,-3.00259 L 6.65883,-3.13925 L 7.07578,-3.22218 L 7.5,-3.25 L 7.92421,-3.22218
 L 8.34116,-3.13925 L 8.74371,-3.00259 L 9.125,-2.81458 L 9.47847,-2.57838 L 9.7981,-2.2981 L 10.0784,-1.97847
 L 10.3146,-1.625 L 10.5026,-1.24371 L 10.6393,-0.841156 L 10.7222,-0.42421 L 10.75,-0 L 10.7222,0.42421
 L 10.6393,0.841156 L 10.5026,1.24371 L 10.3146,1.625 L 10.0784,1.97847 L 9.7981,2.2981 L 9.47847,2.57838
 L 9.125,2.81458 L 8.74371,3.00259 L 8.34116,3.13925 L 7.92421,3.22218 L 7.5,3.25 L 7.07578,3.22218
 L 6.65883,3.13925 L 6.25627,3.00259 L 5.875,2.81458 L 5.52151,2.57838 L 5.20189,2.2981 L 4.9216,1.97847
 L 4.68541,1.625 L 4.49739,1.24371 L 4.36073,0.841156 L 4.2778,0.42421 L 4.25,-0 L 4.2778,-0.42421
 L 4.36073,-0.841156 L 4.49739,-1.24371 L 4.68541,-1.625 L 4.9216,-1.97847 L 5.20189,-2.2981 L 5.52151,-2.57838
 z
M -22.9242,18.2222 L -23.3412,18.1393 L -23.7437,18.0026 L -24.125,17.8146 L -24.4785,17.5784 L -24.7981,17.2981
 L -25.0784,16.9785 L -25.3146,16.625 L -25.5026,16.2437 L -25.6393,15.8412 L -25.7222,15.4242 L -25.75,15
 L -25.7222,14.5758 L -25.6393,14.1588 L -25.5026,13.7563 L -25.3146,13.375 L -25.0784,13.0215 L -24.7981,12.7019
 L -24.4785,12.4216 L -24.125,12.1854 L -23.7437,11.9974 L -23.3412,11.8607 L -22.9242,11.7778 L -22.5,11.75
 L -22.0758,11.7778 L -21.6588,11.8607 L -21.2563,11.9974 L -20.875,12.1854 L -20.5215,12.4216 L -20.2019,12.7019
 L -19.9216,13.0215 L -19.6854,13.375 L -19.4974,13.7563 L -19.3607,14.1588 L -19.2778,14.5758 L -19.25,15
 L -19.2778,15.4242 L -19.3607,15.8412 L -19.4974,16.2437 L -19.6854,16.625 L -19.9216,16.9785 L -20.2019,17.2981
 L -20.5215,17.5784 L -20.875,17.8146 L -21.2563,18.0026 L -21.6588,18.1393 L -22.0758,18.2222 L -22.5,18.25
 z
M -7.92421,18.2222 L -8.34116,18.1393 L -8.74371,18.0026 L -9.125,17.8146 L -9.47847,17.5784 L -9.7981,17.2981
 L -10.0784,16.9785 L -10.3146,16.625 L -10.5026,16.2437 L -10.6393,15.8412 L -10.7222,15.4242 L -10.75,15
 L -10.7222,14.5758 L -10.6393,14.1588 L -10.5026,13.7563 L -10.3146,13.375 L -10.0784,13.0215 L -9.7981,12.7019
 L -9.47847,12.4216 L -9.125,12.1854 L -8.74371,11.9974 L -8.34116,11.8607 L -7.92421,11.7778 L -7.5,11.75
 L -7.07578,11.7778 L -6.65883,11.8607 L -6.25627,11.9974 L -5.875,12.1854 L -5.52151,12.4216 L -5.20189,12.7019
 L -4.9216,13.0215 L -4.68541,13.375 L -4.49739,13.7563 L -4.36073,14.1588 L -4.2778,14.5758 L -4.25,15
 L -4.2778,15.4242 L -4.36073,15.8412 L -4.49739,16.2437 L -4.68541,16.625 L -4.9216,16.9785 L -5.20189,17.2981
 L -5.52151,17.5784 L -5.875,17.8146 L -6.25627,18.0026 L -6.65883,18.1393 L -7.07578,18.2222 L -7.5,18.25
 z
M 7.07578,18.2222 L 6.65883,18.1393 L 6.25627,18.0026 L 5.875,17.8146 L 5.52151,17.5784 L 5.20189,17.2981
 L 4.9216,16.9785 L 4.68541,16.625 L 4.49739,16.2437 L 4.36073,15.8412 L 4.2778,15.4242 L 4.25,15
 L 4.2778,14.5758 L 4.36073,14.1588 L 4.49739,13.7563 L 4.68541,13.375 L 4.9216,13.0215 L 5.20189,12.7019
 L 5.52151,12.4216 L 5.875,12.1854 L 6.25627,11.9974 L 6.65883,11.8607 L 7.07578,11.7778 L 7.5,11.75
 L 7.92421,11.7778 L 8.34116,11.8607 L 8.74371,11.9974 L 9.125,12.1854 L 9.47847,12.4216 L 9.7981,12.7019
 L 10.0784,13.0215 L 10.3146,13.375 L 10.5026,13.7563 L 10.6393,14.1588 L 10.7222,14.5758 L 10.75,15
 L 10.7222,15.4242 L 10.6393,15.8412 L 10.5026,16.2437 L 10.3146,16.625 L 10.0784,16.9785 L 9.7981,17.2981
 L 9.47847,17.5784 L 9.125,17.8146 L 8.74371,18.0026 L 8.34116,18.1393 L 7.92421,18.2222 L 7.5,18.25
 z
M 22.0758,18.2222 L 21.6588,18.1393 L 21.2563,18.0026 L 20.875,17.8146 L 20.5215,17.5784 L 20.2019,17.2981
 L 19.9216,16.9785 L 19.6854,16.625 L 19.4974,16.2437 L 19.3607,15.8412 L 19.2778,15.4242 L 19.25,15
 L 19.2778,14.5758 L 19.3607,14.1588 L 19.4974,13.7563 L 19.6854,13.375 L 19.9216,13.0215 L 20.2019,12.7019
 L 20.5215,12.4216 L 20.875,12.1854 L 21.2563,11.9974 L 21.6588,11.8607 L 22.0758,11.7778 L 22.5,11.75
 L 22.9242,11.7778 L 23.3412,11.8607 L 23.7437,11.9974 L 24.125,12.1854 L 24.4785,12.4216 L 24.7981,12.7019
 L 25.0784,13.0215 L 25.3146,13.375 L 25.5026,13.7563 L 25.6393,14.1588 L 25.7222,14.5758 L 25.75,15
 L 25.7222,15.4242 L 25.6393,15.8412 L 25.5026,16.2437 L 25.3146,16.625 L 25.0784,16.9785 L 24.7981,17.2981
 L 24.4785,17.5784 L 24.125,17.8146 L 23.7437,18.0026 L 23.3412,18.1393 L 22.9242,18.2222 L 22.5,18.25
 z
M 9.47847,-12.4216 L 9.125,-12.1854 L 8.74371,-11.9974 L 8.34116,-11.8607 L 7.92421,-11.7778 L 7.5,-11.75
 L 7.07578,-11.7778 L 6.65883,-11.8607 L 6.25627,-11.9974 L 5.875,-12.1854 L 5.52151,-12.4216 L 5.20189,-12.7019
 L 4.9216,-13.0215 L 4.68541,-13.375 L 4.49739,-13.7563 L 4.36073,-14.1588 L 4.2778,-14.5758 L 4.25,-15
 L 4.2778,-15.4242 L 4.36073,-15.8412 L 4.49739,-16.2437 L 4.68541,-16.625 L 4.9216,-16.9785 L 5.20189,-17.2981
 L 5.52151,-17.5784 L 5.875,-17.8146 L 6.25627,-18.0026 L 6.65883,-18.1393 L 7.07578,-18.2222 L 7.5,-18.25
 L 7.92421,-18.2222 L 8.34116,-18.1393 L 8.74371,-18.0026 L 9.125,-17.8146 L 9.47847,-17.5784 L 9.7981,-17.2981
 L 10.0784,-16.9785 L 10.3146,-16.625 L 10.5026,-16.2437 L 10.6393,-15.8412 L 10.7222,-15.4242 L 10.75,-15
 L 10.7222,-14.5758 L 10.6393,-14.1588 L 10.5026,-13.7563 L 10.3146,-13.375 L 10.0784,-13.0215 L 9.7981,-12.7019
 z
M -5.875,-12.1854 L -6.25627,-11.9974 L -6.65883,-11.8607 L -7.07578,-11.7778 L -7.5,-11.75 L -7.92421,-11.7778
 L -8.34116,-11.8607 L -8.74371,-11.9974 L -9.125,-12.1854 L -9.47847,-12.4216 L -9.7981,-12.7019 L -10.0784,-13.0215
 L -10.3146,-13.375 L -10.5026,-13.7563 L -10.6393,-14.1588 L -10.7222,-14.5758 L -10.75,-15 L -10.7222,-15.4242
 L -10.6393,-15.8412 L -10.5026,-16.2437 L -10.3146,-16.625 L -10.0784,-16.9785 L -9.7981,-17.2981 L -9.47847,-17.5784
 L -9.125,-17.8146 L -8.74371,-18.0026 L -8.34116,-18.1393 L -7.92421,-18.2222 L -7.5,-18.25 L -7.07578,-18.2222
 L -6.65883,-18.1393 L -6.25627,-18.0026 L -5.875,-17.8146 L -5.52151,-17.5784 L -5.20189,-17.2981 L -4.9216,-16.9785
 L -4.68541,-16.625 L -4.49739,-16.2437 L -4.36073,-15.8412 L -4.2778,-15.4242 L -4.25,-15 L -4.2778,-14.5758
 L -4.36073,-14.1588 L -4.49739,-13.7563 L -4.68541,-13.375 L -4.9216,-13.0215 L -5.20189,-12.7019 L -5.52151,-12.4216
 z
M -4.68541,-1.625 L -4.49739,-1.24371 L -4.36073,-0.841156 L -4.2778,-0.42421 L -4.25,-0 L -4.2778,0.42421
 L -4.36073,0.841156 L -4.49739,1.24371 L -4.68541,1.625 L -4.9216,1.97847 L -5.20189,2.2981 L -5.52151,2.57838
 L -5.875,2.81458 L -6.25627,3.00259 L -6.65883,3.13925 L -7.07578,3.22218 L -7.5,3.25 L -7.92421,3.22218
 L -8.34116,3.13925 L -8.74371,3.00259 L -9.125,2.81458 L -9.47847,2.57838 L -9.7981,2.2981 L -10.0784,1.97847
 L -10.3146,1.625 L -10.5026,1.24371 L -10.6393,0.841156 L -10.7222,0.42421 L -10.75,-0 L -10.7222,-0.42421
 L -10.6393,-0.841156 L -10.5026,-1.24371 L -10.3146,-1.625 L -10.0784,-1.97847 L -9.7981,-2.2981 L -9.47847,-2.57838
 L -9.125,-2.81458 L -8.74371,-3.00259 L -8.34116,-3.13925 L -7.92421,-3.22218 L -7.5,-3.25 L -7.07578,-3.22218
 L -6.65883,-3.13925 L -6.25627,-3.00259 L -5.875,-2.81458 L -5.52151,-2.57838 L -5.20189,-2.2981 L -4.9216,-1.97847
 z
" stroke="black" fill="lightgray" stroke-width="0.5"/>
</svg>
