<?xml version="1.0" standalone="no"?>
<!DOCTYPE svg PUBLIC "-//W3C//DTD SVG 1.1//EN" "http://www.w3.org/Graphics/SVG/1.1/DTD/svg11.dtd">
<svg width="16mm" height="21mm" viewBox="-8 -7 16 21" xmlns="http://www.w3.org/2000/svg" version="1.1">
<title>OpenSCAD Model</title>
<path d="
M -3.24344,11 L -5.5,11 L -5.5,5 L -3.24344,5 L -3.24344,0.0999908 L -3.25,-0
 L -3.22218,-0.42421 L -3.13925,-0.841156 L -3.00259,-1.24371 L -2.81458,-1.625 L -2.57838,-1.97847 L -2.2981,-2.2981
 L -1.97847,-2.57838 L -1.625,-2.81458 L -1.24371,-3.00259 L -0.841156,-3.13925 L -0.42421,-3.22218 L 0,-3.25
 L 0.42421,-3.22218 L 0.841156,-3.13925 L 1.24371,-3.00259 L 1.625,-2.81458 L 1.97847,-2.57838 L 2.2981,-2.2981
 L 2.57838,-1.97847 L 2.81458,-1.625 L 3.00259,-1.24371 L 3.13925,-0.841156 L 3.22218,-0.42421 L 3.25,-0
 L 3.24344,0.0999908 L 3.24344,5 L 5.5,5 L 5.5,11 L 3.24344,11 L 3.24344,13.5
 L 7.5,13.5 L 7.5,1.08112 L 7.50499,1.00499 L 7.50499,-1.00499 L 7.46222,-1.65762 L 7.33463,-2.29909
 L 7.12439,-2.91841 L 6.83511,-3.50499 L 6.47176,-4.0488 L 6.04053,-4.54053 L 5.5488,-4.97176 L 5.00499,-5.33511
 L 4.41841,-5.62439 L 3.79909,-5.83463 L 3.15762,-5.96222 L 2.50499,-6.00499 L -2.50499,-6.00499 L -3.15762,-5.96222
 L -3.79909,-5.83463 L -4.41841,-5.62439 L -5.00499,-5.33511 L -5.5488,-4.97176 L -6.04053,-4.54053 L -6.47176,-4.0488
 L -6.83511,-3.50499 L -7.12439,-2.91841 L -7.33463,-2.29909 L -7.46222,-1.65762 L -7.50499,-1.00499 L -7.50499,1.00499
 L -7.5,1.08112 L -7.5,13.5 L -3.24344,13.5 z
" stroke="black" fill="lightgray" stroke-width="0.5"/>
</svg>
