solid OpenSCAD_Model
  facet normal -0.992106 -0.000416225 0.125402
    outer loop
      vertex 17.9058 14.2539 5.25393
      vertex 18 14.5 6
      vertex 17.9368 14.5 5.5
    endloop
  endfacet
  facet normal -0.992123 0 0.125267
    outer loop
      vertex 18 8.5 6
      vertex 17.9058 14.2539 5.25393
      vertex 17.9058 8.5 5.25393
    endloop
  endfacet
  facet normal -0.992123 0 0.125267
    outer loop
      vertex 17.9058 14.2539 5.25393
      vertex 18 8.5 6
      vertex 18 14.5 6
    endloop
  endfacet
  facet normal -0.992123 0 0.125267
    outer loop
      vertex 17.9058 1.5 5.25393
      vertex 18 3.5 6
      vertex 17.9058 3.5 5.25393
    endloop
  endfacet
  facet normal -0.992123 0 0.125267
    outer loop
      vertex 18 3.5 6
      vertex 17.9058 1.5 5.25393
      vertex 18 1.5 6
    endloop
  endfacet
  facet normal 0.968654 0.000333898 -0.248413
    outer loop
      vertex 12.2107 13.8956 7.10437
      vertex 12.0237 14.5 6.376
      vertex 12.0555 14.5 6.5
    endloop
  endfacet
  facet normal 0.968588 0 -0.248673
    outer loop
      vertex 12.0237 8.5 6.376
      vertex 12.2107 13.8956 7.10437
      vertex 12.2107 8.5 7.10437
    endloop
  endfacet
  facet normal 0.968588 0 -0.248673
    outer loop
      vertex 12.2107 13.8956 7.10437
      vertex 12.0237 8.5 6.376
      vertex 12.0237 14.5 6.376
    endloop
  endfacet
  facet normal 0.968588 0 -0.248673
    outer loop
      vertex 12.2107 1.5 7.10437
      vertex 12.0237 3.5 6.376
      vertex 12.2107 3.5 7.10437
    endloop
  endfacet
  facet normal 0.968588 0 -0.248673
    outer loop
      vertex 12.0237 3.5 6.376
      vertex 12.2107 1.5 7.10437
      vertex 12.0237 1.5 6.376
    endloop
  endfacet
  facet normal 1 -0 0
    outer loop
      vertex 12.0237 8.5 6.376
      vertex 12.0237 14.5 5.624
      vertex 12.0237 14.5 6.376
    endloop
  endfacet
  facet normal 1 0 0
    outer loop
      vertex 12.0237 14.5 5.624
      vertex 12.0237 8.5 6.376
      vertex 12.0237 8.5 5.624
    endloop
  endfacet
  facet normal 1 -0 0
    outer loop
      vertex 12.0237 1.5 6.376
      vertex 12.0237 3.5 5.624
      vertex 12.0237 3.5 6.376
    endloop
  endfacet
  facet normal 1 0 0
    outer loop
      vertex 12.0237 3.5 5.624
      vertex 12.0237 1.5 6.376
      vertex 12.0237 1.5 5.624
    endloop
  endfacet
  facet normal -0 -1 0
    outer loop
      vertex 18 14.5 6
      vertex 17.9368 14.5 6.5
      vertex 17.9368 14.5 5.5
    endloop
  endfacet
  facet normal 0 -1 0
    outer loop
      vertex 12.0237 14.5 5.624
      vertex 12.0555 14.5 6.5
      vertex 12.0237 14.5 6.376
    endloop
  endfacet
  facet normal 0 -1 -0
    outer loop
      vertex 12.0555 14.5 6.5
      vertex 12.0237 14.5 5.624
      vertex 12.0555 14.5 5.5
    endloop
  endfacet
  facet normal 0.0627939 0 0.998027
    outer loop
      vertex 14.4379 3.5 3.05314
      vertex 15.1884 1.5 3.00592
      vertex 15.1884 3.5 3.00592
    endloop
  endfacet
  facet normal 0.0627939 0 0.998027
    outer loop
      vertex 15.1884 1.5 3.00592
      vertex 14.4379 3.5 3.05314
      vertex 14.4379 1.5 3.05314
    endloop
  endfacet
  facet normal 0.0627939 -0 0.998027
    outer loop
      vertex 14.4379 8.5 3.05314
      vertex 15.1884 12.0059 3.00592
      vertex 14.4379 12.0531 3.05314
    endloop
  endfacet
  facet normal 0.0627939 0 0.998027
    outer loop
      vertex 15.1884 12.0059 3.00592
      vertex 14.4379 8.5 3.05314
      vertex 15.1884 8.5 3.00592
    endloop
  endfacet
  facet normal 0.535786 0 -0.844354
    outer loop
      vertex 13.0877 1.5 8.31154
      vertex 13.7227 3.5 8.71448
      vertex 13.7227 1.5 8.71448
    endloop
  endfacet
  facet normal 0.535786 0 -0.844354
    outer loop
      vertex 13.7227 3.5 8.71448
      vertex 13.0877 1.5 8.31154
      vertex 13.0877 3.5 8.31154
    endloop
  endfacet
  facet normal 0.535786 0 -0.844354
    outer loop
      vertex 13.0877 8.5 8.31154
      vertex 13.7227 12.2855 8.71448
      vertex 13.7227 8.5 8.71448
    endloop
  endfacet
  facet normal 0.535786 0 -0.844354
    outer loop
      vertex 13.7227 12.2855 8.71448
      vertex 13.0877 8.5 8.31154
      vertex 13.0877 12.6885 8.31154
    endloop
  endfacet
  facet normal -0.637439 0 -0.770501
    outer loop
      vertex 16.6075 1.5 8.53298
      vertex 17.1869 3.5 8.05364
      vertex 17.1869 1.5 8.05364
    endloop
  endfacet
  facet normal -0.637439 0 -0.770501
    outer loop
      vertex 17.1869 3.5 8.05364
      vertex 16.6075 1.5 8.53298
      vertex 16.6075 3.5 8.53298
    endloop
  endfacet
  facet normal -0.637439 -0 -0.770501
    outer loop
      vertex 16.6075 12.467 8.53298
      vertex 17.1869 8.5 8.05364
      vertex 16.6075 8.5 8.53298
    endloop
  endfacet
  facet normal -0.637439 0 -0.770501
    outer loop
      vertex 17.1869 8.5 8.05364
      vertex 16.6075 12.467 8.53298
      vertex 17.1869 12.9464 8.05364
    endloop
  endfacet
  facet normal -0.809026 0 -0.587773
    outer loop
      vertex 17.6289 1.5 7.44526
      vertex 17.1869 3.5 8.05364
      vertex 17.6289 3.5 7.44526
    endloop
  endfacet
  facet normal -0.809026 -0 -0.587773
    outer loop
      vertex 17.1869 3.5 8.05364
      vertex 17.6289 1.5 7.44526
      vertex 17.1869 1.5 8.05364
    endloop
  endfacet
  facet normal -0.809026 0 -0.587773
    outer loop
      vertex 17.6289 8.5 7.44526
      vertex 17.1869 12.9464 8.05364
      vertex 17.6289 13.5547 7.44526
    endloop
  endfacet
  facet normal -0.809026 -0 -0.587773
    outer loop
      vertex 17.1869 12.9464 8.05364
      vertex 17.6289 8.5 7.44526
      vertex 17.1869 8.5 8.05364
    endloop
  endfacet
  facet normal 0 -1 0
    outer loop
      vertex 7.5 1.5 12
      vertex 15.1884 1.5 8.99408
      vertex 22.5 1.5 12
    endloop
  endfacet
  facet normal 0 -1 0
    outer loop
      vertex 7.5 1.5 12
      vertex 14.4379 1.5 8.94686
      vertex 15.1884 1.5 8.99408
    endloop
  endfacet
  facet normal 0 -1 0
    outer loop
      vertex 7.5 1.5 12
      vertex 13.7227 1.5 8.71448
      vertex 14.4379 1.5 8.94686
    endloop
  endfacet
  facet normal 0 -1 0
    outer loop
      vertex 7.5 1.5 12
      vertex 13.0877 1.5 8.31154
      vertex 13.7227 1.5 8.71448
    endloop
  endfacet
  facet normal 0 -1 0
    outer loop
      vertex 7.5 1.5 12
      vertex 12.5729 1.5 7.76336
      vertex 13.0877 1.5 8.31154
    endloop
  endfacet
  facet normal 0 -1 0
    outer loop
      vertex 7.5 1.5 12
      vertex 12.2107 1.5 7.10437
      vertex 12.5729 1.5 7.76336
    endloop
  endfacet
  facet normal 0 -1 0
    outer loop
      vertex 7.5 1.5 12
      vertex 12.0237 1.5 6.376
      vertex 12.2107 1.5 7.10437
    endloop
  endfacet
  facet normal 0 -1 0
    outer loop
      vertex 7.5 1.5 12
      vertex 12.0237 1.5 5.624
      vertex 12.0237 1.5 6.376
    endloop
  endfacet
  facet normal 0 -1 0
    outer loop
      vertex 7.5 1.5 0
      vertex 12.0237 1.5 5.624
      vertex 7.5 1.5 12
    endloop
  endfacet
  facet normal 0 -1 -0
    outer loop
      vertex 12.0237 1.5 5.624
      vertex 7.5 1.5 0
      vertex 12.2107 1.5 4.89563
    endloop
  endfacet
  facet normal 0 -1 -0
    outer loop
      vertex 14.4379 1.5 3.05314
      vertex 7.5 1.5 0
      vertex 15.1884 1.5 3.00592
    endloop
  endfacet
  facet normal 0 -1 -0
    outer loop
      vertex 13.7227 1.5 3.28552
      vertex 7.5 1.5 0
      vertex 14.4379 1.5 3.05314
    endloop
  endfacet
  facet normal 0 -1 -0
    outer loop
      vertex 13.0877 1.5 3.68846
      vertex 7.5 1.5 0
      vertex 13.7227 1.5 3.28552
    endloop
  endfacet
  facet normal 0 -1 -0
    outer loop
      vertex 12.5729 1.5 4.23664
      vertex 7.5 1.5 0
      vertex 13.0877 1.5 3.68846
    endloop
  endfacet
  facet normal 0 -1 -0
    outer loop
      vertex 12.2107 1.5 4.89563
      vertex 7.5 1.5 0
      vertex 12.5729 1.5 4.23664
    endloop
  endfacet
  facet normal 0 -1 0
    outer loop
      vertex 15.9271 1.5 8.85317
      vertex 22.5 1.5 12
      vertex 15.1884 1.5 8.99408
    endloop
  endfacet
  facet normal 0 -1 0
    outer loop
      vertex 16.6075 1.5 8.53298
      vertex 22.5 1.5 12
      vertex 15.9271 1.5 8.85317
    endloop
  endfacet
  facet normal 0 -1 0
    outer loop
      vertex 17.1869 1.5 8.05364
      vertex 22.5 1.5 12
      vertex 16.6075 1.5 8.53298
    endloop
  endfacet
  facet normal 0 -1 0
    outer loop
      vertex 17.6289 1.5 7.44526
      vertex 22.5 1.5 12
      vertex 17.1869 1.5 8.05364
    endloop
  endfacet
  facet normal 0 -1 0
    outer loop
      vertex 17.9058 1.5 6.74607
      vertex 22.5 1.5 12
      vertex 17.6289 1.5 7.44526
    endloop
  endfacet
  facet normal 0 -1 0
    outer loop
      vertex 18 1.5 6
      vertex 22.5 1.5 12
      vertex 17.9058 1.5 6.74607
    endloop
  endfacet
  facet normal 0 -1 0
    outer loop
      vertex 22.5 1.5 0
      vertex 18 1.5 6
      vertex 17.9058 1.5 5.25393
    endloop
  endfacet
  facet normal 0 -1 0
    outer loop
      vertex 22.5 1.5 0
      vertex 17.9058 1.5 5.25393
      vertex 17.6289 1.5 4.55474
    endloop
  endfacet
  facet normal 0 -1 0
    outer loop
      vertex 22.5 1.5 0
      vertex 15.1884 1.5 3.00592
      vertex 7.5 1.5 0
    endloop
  endfacet
  facet normal 0 -1 0
    outer loop
      vertex 18 1.5 6
      vertex 22.5 1.5 0
      vertex 22.5 1.5 12
    endloop
  endfacet
  facet normal 0 -1 0
    outer loop
      vertex 17.1869 1.5 3.94636
      vertex 22.5 1.5 0
      vertex 17.6289 1.5 4.55474
    endloop
  endfacet
  facet normal 0 -1 0
    outer loop
      vertex 16.6075 1.5 3.46702
      vertex 22.5 1.5 0
      vertex 17.1869 1.5 3.94636
    endloop
  endfacet
  facet normal 0 -1 0
    outer loop
      vertex 15.9271 1.5 3.14683
      vertex 22.5 1.5 0
      vertex 16.6075 1.5 3.46702
    endloop
  endfacet
  facet normal 0 -1 0
    outer loop
      vertex 15.1884 1.5 3.00592
      vertex 22.5 1.5 0
      vertex 15.9271 1.5 3.14683
    endloop
  endfacet
  facet normal 0.728952 -0 0.684565
    outer loop
      vertex 12.5729 1.5 4.23664
      vertex 13.0877 3.5 3.68846
      vertex 12.5729 3.5 4.23664
    endloop
  endfacet
  facet normal 0.728952 0 0.684565
    outer loop
      vertex 13.0877 3.5 3.68846
      vertex 12.5729 1.5 4.23664
      vertex 13.0877 1.5 3.68846
    endloop
  endfacet
  facet normal 0.728952 -0 0.684565
    outer loop
      vertex 12.5729 8.5 4.23664
      vertex 13.0877 12.6885 3.68846
      vertex 12.5729 13.2366 4.23664
    endloop
  endfacet
  facet normal 0.728952 0 0.684565
    outer loop
      vertex 13.0877 12.6885 3.68846
      vertex 12.5729 8.5 4.23664
      vertex 13.0877 8.5 3.68846
    endloop
  endfacet
  facet normal -0.425799 0 0.904818
    outer loop
      vertex 15.9271 3.5 3.14683
      vertex 16.6075 1.5 3.46702
      vertex 16.6075 3.5 3.46702
    endloop
  endfacet
  facet normal -0.425799 0 0.904818
    outer loop
      vertex 16.6075 1.5 3.46702
      vertex 15.9271 3.5 3.14683
      vertex 15.9271 1.5 3.14683
    endloop
  endfacet
  facet normal -0.425799 0 0.904818
    outer loop
      vertex 15.9271 12.1468 3.14683
      vertex 16.6075 8.5 3.46702
      vertex 16.6075 12.467 3.46702
    endloop
  endfacet
  facet normal -0.425799 0 0.904818
    outer loop
      vertex 16.6075 8.5 3.46702
      vertex 15.9271 12.1468 3.14683
      vertex 15.9271 8.5 3.14683
    endloop
  endfacet
  facet normal -0.637439 0 0.770501
    outer loop
      vertex 16.6075 3.5 3.46702
      vertex 17.1869 1.5 3.94636
      vertex 17.1869 3.5 3.94636
    endloop
  endfacet
  facet normal -0.637439 0 0.770501
    outer loop
      vertex 17.1869 1.5 3.94636
      vertex 16.6075 3.5 3.46702
      vertex 16.6075 1.5 3.46702
    endloop
  endfacet
  facet normal -0.637439 0 0.770501
    outer loop
      vertex 16.6075 12.467 3.46702
      vertex 17.1869 8.5 3.94636
      vertex 17.1869 12.9464 3.94636
    endloop
  endfacet
  facet normal -0.637439 0 0.770501
    outer loop
      vertex 17.1869 8.5 3.94636
      vertex 16.6075 12.467 3.46702
      vertex 16.6075 8.5 3.46702
    endloop
  endfacet
  facet normal -0.929744 0 0.368206
    outer loop
      vertex 17.6289 1.5 4.55474
      vertex 17.9058 3.5 5.25393
      vertex 17.6289 3.5 4.55474
    endloop
  endfacet
  facet normal -0.929744 0 0.368206
    outer loop
      vertex 17.9058 3.5 5.25393
      vertex 17.6289 1.5 4.55474
      vertex 17.9058 1.5 5.25393
    endloop
  endfacet
  facet normal -0.929744 0 0.368206
    outer loop
      vertex 17.9058 8.5 5.25393
      vertex 17.6289 13.5547 4.55474
      vertex 17.6289 8.5 4.55474
    endloop
  endfacet
  facet normal -0.929744 0 0.368206
    outer loop
      vertex 17.6289 13.5547 4.55474
      vertex 17.9058 8.5 5.25393
      vertex 17.9058 14.2539 5.25393
    endloop
  endfacet
  facet normal 0.728952 0 -0.684565
    outer loop
      vertex 13.0877 1.5 8.31154
      vertex 12.5729 3.5 7.76336
      vertex 13.0877 3.5 8.31154
    endloop
  endfacet
  facet normal 0.728952 0 -0.684565
    outer loop
      vertex 12.5729 3.5 7.76336
      vertex 13.0877 1.5 8.31154
      vertex 12.5729 1.5 7.76336
    endloop
  endfacet
  facet normal 0.728952 0 -0.684565
    outer loop
      vertex 12.5729 8.5 7.76336
      vertex 13.0877 12.6885 8.31154
      vertex 13.0877 8.5 8.31154
    endloop
  endfacet
  facet normal 0.728952 0 -0.684565
    outer loop
      vertex 13.0877 12.6885 8.31154
      vertex 12.5729 8.5 7.76336
      vertex 12.5729 13.2366 7.76336
    endloop
  endfacet
  facet normal 0.309014 0 -0.951058
    outer loop
      vertex 13.7227 1.5 8.71448
      vertex 14.4379 3.5 8.94686
      vertex 14.4379 1.5 8.94686
    endloop
  endfacet
  facet normal 0.309014 0 -0.951058
    outer loop
      vertex 14.4379 3.5 8.94686
      vertex 13.7227 1.5 8.71448
      vertex 13.7227 3.5 8.71448
    endloop
  endfacet
  facet normal 0.309014 0 -0.951058
    outer loop
      vertex 13.7227 8.5 8.71448
      vertex 14.4379 12.0531 8.94686
      vertex 14.4379 8.5 8.94686
    endloop
  endfacet
  facet normal 0.309014 0 -0.951058
    outer loop
      vertex 14.4379 12.0531 8.94686
      vertex 13.7227 8.5 8.71448
      vertex 13.7227 12.2855 8.71448
    endloop
  endfacet
  facet normal -0.929744 0 -0.368206
    outer loop
      vertex 17.9058 1.5 6.74607
      vertex 17.6289 3.5 7.44526
      vertex 17.9058 3.5 6.74607
    endloop
  endfacet
  facet normal -0.929744 -0 -0.368206
    outer loop
      vertex 17.6289 3.5 7.44526
      vertex 17.9058 1.5 6.74607
      vertex 17.6289 1.5 7.44526
    endloop
  endfacet
  facet normal -0.929744 0 -0.368206
    outer loop
      vertex 17.9058 8.5 6.74607
      vertex 17.6289 13.5547 7.44526
      vertex 17.9058 14.2539 6.74607
    endloop
  endfacet
  facet normal -0.929744 -0 -0.368206
    outer loop
      vertex 17.6289 13.5547 7.44526
      vertex 17.9058 8.5 6.74607
      vertex 17.6289 8.5 7.44526
    endloop
  endfacet
  facet normal -0.992106 -0.000416225 -0.125402
    outer loop
      vertex 18 14.5 6
      vertex 17.9058 14.2539 6.74607
      vertex 17.9368 14.5 6.5
    endloop
  endfacet
  facet normal -0.992123 0 -0.125267
    outer loop
      vertex 18 8.5 6
      vertex 17.9058 14.2539 6.74607
      vertex 18 14.5 6
    endloop
  endfacet
  facet normal -0.992123 -0 -0.125267
    outer loop
      vertex 17.9058 14.2539 6.74607
      vertex 18 8.5 6
      vertex 17.9058 8.5 6.74607
    endloop
  endfacet
  facet normal -0.992123 0 -0.125267
    outer loop
      vertex 18 1.5 6
      vertex 17.9058 3.5 6.74607
      vertex 18 3.5 6
    endloop
  endfacet
  facet normal -0.992123 -0 -0.125267
    outer loop
      vertex 17.9058 3.5 6.74607
      vertex 18 1.5 6
      vertex 17.9058 1.5 6.74607
    endloop
  endfacet
  facet normal 0.968654 0.000333898 0.248413
    outer loop
      vertex 12.0237 14.5 5.624
      vertex 12.2107 13.8956 4.89563
      vertex 12.0555 14.5 5.5
    endloop
  endfacet
  facet normal 0.968588 -0 0.248673
    outer loop
      vertex 12.0237 8.5 5.624
      vertex 12.2107 13.8956 4.89563
      vertex 12.0237 14.5 5.624
    endloop
  endfacet
  facet normal 0.968588 0 0.248673
    outer loop
      vertex 12.2107 13.8956 4.89563
      vertex 12.0237 8.5 5.624
      vertex 12.2107 8.5 4.89563
    endloop
  endfacet
  facet normal 0.968588 -0 0.248673
    outer loop
      vertex 12.0237 1.5 5.624
      vertex 12.2107 3.5 4.89563
      vertex 12.0237 3.5 5.624
    endloop
  endfacet
  facet normal 0.968588 0 0.248673
    outer loop
      vertex 12.2107 3.5 4.89563
      vertex 12.0237 1.5 5.624
      vertex 12.2107 1.5 4.89563
    endloop
  endfacet
  facet normal 0.876353 -0 0.481669
    outer loop
      vertex 12.2107 1.5 4.89563
      vertex 12.5729 3.5 4.23664
      vertex 12.2107 3.5 4.89563
    endloop
  endfacet
  facet normal 0.876353 0 0.481669
    outer loop
      vertex 12.5729 3.5 4.23664
      vertex 12.2107 1.5 4.89563
      vertex 12.5729 1.5 4.23664
    endloop
  endfacet
  facet normal 0.876353 -0 0.481669
    outer loop
      vertex 12.2107 8.5 4.89563
      vertex 12.5729 13.2366 4.23664
      vertex 12.2107 13.8956 4.89563
    endloop
  endfacet
  facet normal 0.876353 0 0.481669
    outer loop
      vertex 12.5729 13.2366 4.23664
      vertex 12.2107 8.5 4.89563
      vertex 12.5729 8.5 4.23664
    endloop
  endfacet
  facet normal 0.535786 0 0.844354
    outer loop
      vertex 13.0877 3.5 3.68846
      vertex 13.7227 1.5 3.28552
      vertex 13.7227 3.5 3.28552
    endloop
  endfacet
  facet normal 0.535786 0 0.844354
    outer loop
      vertex 13.7227 1.5 3.28552
      vertex 13.0877 3.5 3.68846
      vertex 13.0877 1.5 3.68846
    endloop
  endfacet
  facet normal 0.535786 -0 0.844354
    outer loop
      vertex 13.0877 8.5 3.68846
      vertex 13.7227 12.2855 3.28552
      vertex 13.0877 12.6885 3.68846
    endloop
  endfacet
  facet normal 0.535786 0 0.844354
    outer loop
      vertex 13.7227 12.2855 3.28552
      vertex 13.0877 8.5 3.68846
      vertex 13.7227 8.5 3.28552
    endloop
  endfacet
  facet normal 0.309014 0 0.951058
    outer loop
      vertex 13.7227 3.5 3.28552
      vertex 14.4379 1.5 3.05314
      vertex 14.4379 3.5 3.05314
    endloop
  endfacet
  facet normal 0.309014 0 0.951058
    outer loop
      vertex 14.4379 1.5 3.05314
      vertex 13.7227 3.5 3.28552
      vertex 13.7227 1.5 3.28552
    endloop
  endfacet
  facet normal 0.309014 -0 0.951058
    outer loop
      vertex 13.7227 8.5 3.28552
      vertex 14.4379 12.0531 3.05314
      vertex 13.7227 12.2855 3.28552
    endloop
  endfacet
  facet normal 0.309014 0 0.951058
    outer loop
      vertex 14.4379 12.0531 3.05314
      vertex 13.7227 8.5 3.28552
      vertex 14.4379 8.5 3.05314
    endloop
  endfacet
  facet normal -0.187375 0 0.982288
    outer loop
      vertex 15.1884 3.5 3.00592
      vertex 15.9271 1.5 3.14683
      vertex 15.9271 3.5 3.14683
    endloop
  endfacet
  facet normal -0.187375 0 0.982288
    outer loop
      vertex 15.9271 1.5 3.14683
      vertex 15.1884 3.5 3.00592
      vertex 15.1884 1.5 3.00592
    endloop
  endfacet
  facet normal -0.187375 0 0.982288
    outer loop
      vertex 15.1884 12.0059 3.00592
      vertex 15.9271 8.5 3.14683
      vertex 15.9271 12.1468 3.14683
    endloop
  endfacet
  facet normal -0.187375 0 0.982288
    outer loop
      vertex 15.9271 8.5 3.14683
      vertex 15.1884 12.0059 3.00592
      vertex 15.1884 8.5 3.00592
    endloop
  endfacet
  facet normal -0.809026 0 0.587773
    outer loop
      vertex 17.1869 1.5 3.94636
      vertex 17.6289 3.5 4.55474
      vertex 17.1869 3.5 3.94636
    endloop
  endfacet
  facet normal -0.809026 0 0.587773
    outer loop
      vertex 17.6289 3.5 4.55474
      vertex 17.1869 1.5 3.94636
      vertex 17.6289 1.5 4.55474
    endloop
  endfacet
  facet normal -0.809026 0 0.587773
    outer loop
      vertex 17.6289 8.5 4.55474
      vertex 17.1869 12.9464 3.94636
      vertex 17.1869 8.5 3.94636
    endloop
  endfacet
  facet normal -0.809026 0 0.587773
    outer loop
      vertex 17.1869 12.9464 3.94636
      vertex 17.6289 8.5 4.55474
      vertex 17.6289 13.5547 4.55474
    endloop
  endfacet
  facet normal 0.876353 0 -0.481669
    outer loop
      vertex 12.5729 1.5 7.76336
      vertex 12.2107 3.5 7.10437
      vertex 12.5729 3.5 7.76336
    endloop
  endfacet
  facet normal 0.876353 0 -0.481669
    outer loop
      vertex 12.2107 3.5 7.10437
      vertex 12.5729 1.5 7.76336
      vertex 12.2107 1.5 7.10437
    endloop
  endfacet
  facet normal 0.876353 0 -0.481669
    outer loop
      vertex 12.2107 8.5 7.10437
      vertex 12.5729 13.2366 7.76336
      vertex 12.5729 8.5 7.76336
    endloop
  endfacet
  facet normal 0.876353 0 -0.481669
    outer loop
      vertex 12.5729 13.2366 7.76336
      vertex 12.2107 8.5 7.10437
      vertex 12.2107 13.8956 7.10437
    endloop
  endfacet
  facet normal -0.425799 0 -0.904818
    outer loop
      vertex 15.9271 1.5 8.85317
      vertex 16.6075 3.5 8.53298
      vertex 16.6075 1.5 8.53298
    endloop
  endfacet
  facet normal -0.425799 0 -0.904818
    outer loop
      vertex 16.6075 3.5 8.53298
      vertex 15.9271 1.5 8.85317
      vertex 15.9271 3.5 8.85317
    endloop
  endfacet
  facet normal -0.425799 -0 -0.904818
    outer loop
      vertex 15.9271 12.1468 8.85317
      vertex 16.6075 8.5 8.53298
      vertex 15.9271 8.5 8.85317
    endloop
  endfacet
  facet normal -0.425799 0 -0.904818
    outer loop
      vertex 16.6075 8.5 8.53298
      vertex 15.9271 12.1468 8.85317
      vertex 16.6075 12.467 8.53298
    endloop
  endfacet
  facet normal 0.0627939 0 -0.998027
    outer loop
      vertex 14.4379 1.5 8.94686
      vertex 15.1884 3.5 8.99408
      vertex 15.1884 1.5 8.99408
    endloop
  endfacet
  facet normal 0.0627939 0 -0.998027
    outer loop
      vertex 15.1884 3.5 8.99408
      vertex 14.4379 1.5 8.94686
      vertex 14.4379 3.5 8.94686
    endloop
  endfacet
  facet normal 0.0627939 0 -0.998027
    outer loop
      vertex 14.4379 8.5 8.94686
      vertex 15.1884 12.0059 8.99408
      vertex 15.1884 8.5 8.99408
    endloop
  endfacet
  facet normal 0.0627939 0 -0.998027
    outer loop
      vertex 15.1884 12.0059 8.99408
      vertex 14.4379 8.5 8.94686
      vertex 14.4379 12.0531 8.94686
    endloop
  endfacet
  facet normal -0.187375 0 -0.982288
    outer loop
      vertex 15.1884 1.5 8.99408
      vertex 15.9271 3.5 8.85317
      vertex 15.9271 1.5 8.85317
    endloop
  endfacet
  facet normal -0.187375 0 -0.982288
    outer loop
      vertex 15.9271 3.5 8.85317
      vertex 15.1884 1.5 8.99408
      vertex 15.1884 3.5 8.99408
    endloop
  endfacet
  facet normal -0.187375 -0 -0.982288
    outer loop
      vertex 15.1884 12.0059 8.99408
      vertex 15.9271 8.5 8.85317
      vertex 15.1884 8.5 8.99408
    endloop
  endfacet
  facet normal -0.187375 0 -0.982288
    outer loop
      vertex 15.9271 8.5 8.85317
      vertex 15.1884 12.0059 8.99408
      vertex 15.9271 12.1468 8.85317
    endloop
  endfacet
  facet normal -1 0 0
    outer loop
      vertex 20 3.5 3.11325
      vertex 20 8.5 8.88675
      vertex 20 8.5 3.11325
    endloop
  endfacet
  facet normal -1 -0 0
    outer loop
      vertex 20 8.5 8.88675
      vertex 20 3.5 3.11325
      vertex 20 3.5 8.88675
    endloop
  endfacet
  facet normal -0.5 0 0.866026
    outer loop
      vertex 15 8.5 0.2265
      vertex 20 3.5 3.11325
      vertex 20 8.5 3.11325
    endloop
  endfacet
  facet normal -0.5 0 0.866026
    outer loop
      vertex 20 3.5 3.11325
      vertex 15 8.5 0.2265
      vertex 15 3.5 0.2265
    endloop
  endfacet
  facet normal 0.5 0 0.866026
    outer loop
      vertex 10 8.5 3.11325
      vertex 15 3.5 0.2265
      vertex 15 8.5 0.2265
    endloop
  endfacet
  facet normal 0.5 0 0.866026
    outer loop
      vertex 15 3.5 0.2265
      vertex 10 8.5 3.11325
      vertex 10 3.5 3.11325
    endloop
  endfacet
  facet normal 0 1 -0
    outer loop
      vertex 16.6075 3.5 8.53298
      vertex 15 3.5 11.7735
      vertex 20 3.5 8.88675
    endloop
  endfacet
  facet normal 0 1 0
    outer loop
      vertex 15 3.5 11.7735
      vertex 15.9271 3.5 8.85317
      vertex 15.1884 3.5 8.99408
    endloop
  endfacet
  facet normal 0 1 0
    outer loop
      vertex 15 3.5 11.7735
      vertex 16.6075 3.5 8.53298
      vertex 15.9271 3.5 8.85317
    endloop
  endfacet
  facet normal 0 1 0
    outer loop
      vertex 20 3.5 8.88675
      vertex 17.1869 3.5 8.05364
      vertex 16.6075 3.5 8.53298
    endloop
  endfacet
  facet normal 0 1 0
    outer loop
      vertex 20 3.5 8.88675
      vertex 17.6289 3.5 7.44526
      vertex 17.1869 3.5 8.05364
    endloop
  endfacet
  facet normal 0 1 0
    outer loop
      vertex 20 3.5 8.88675
      vertex 17.9058 3.5 6.74607
      vertex 17.6289 3.5 7.44526
    endloop
  endfacet
  facet normal 0 1 0
    outer loop
      vertex 20 3.5 8.88675
      vertex 18 3.5 6
      vertex 17.9058 3.5 6.74607
    endloop
  endfacet
  facet normal 0 1 -0
    outer loop
      vertex 20 3.5 3.11325
      vertex 18 3.5 6
      vertex 20 3.5 8.88675
    endloop
  endfacet
  facet normal 0 1 0
    outer loop
      vertex 18 3.5 6
      vertex 20 3.5 3.11325
      vertex 17.9058 3.5 5.25393
    endloop
  endfacet
  facet normal 0 1 0
    outer loop
      vertex 17.9058 3.5 5.25393
      vertex 20 3.5 3.11325
      vertex 17.6289 3.5 4.55474
    endloop
  endfacet
  facet normal 0 1 0
    outer loop
      vertex 20 3.5 3.11325
      vertex 17.1869 3.5 3.94636
      vertex 17.6289 3.5 4.55474
    endloop
  endfacet
  facet normal 0 1 0
    outer loop
      vertex 20 3.5 3.11325
      vertex 16.6075 3.5 3.46702
      vertex 17.1869 3.5 3.94636
    endloop
  endfacet
  facet normal 0 1 0
    outer loop
      vertex 15 3.5 0.2265
      vertex 16.6075 3.5 3.46702
      vertex 20 3.5 3.11325
    endloop
  endfacet
  facet normal 0 1 0
    outer loop
      vertex 16.6075 3.5 3.46702
      vertex 15 3.5 0.2265
      vertex 15.9271 3.5 3.14683
    endloop
  endfacet
  facet normal 0 1 0
    outer loop
      vertex 15.9271 3.5 3.14683
      vertex 15 3.5 0.2265
      vertex 15.1884 3.5 3.00592
    endloop
  endfacet
  facet normal 0 1 0
    outer loop
      vertex 14.4379 3.5 8.94686
      vertex 15 3.5 11.7735
      vertex 15.1884 3.5 8.99408
    endloop
  endfacet
  facet normal 0 1 0
    outer loop
      vertex 13.7227 3.5 8.71448
      vertex 15 3.5 11.7735
      vertex 14.4379 3.5 8.94686
    endloop
  endfacet
  facet normal 0 1 0
    outer loop
      vertex 15 3.5 11.7735
      vertex 13.7227 3.5 8.71448
      vertex 10 3.5 8.88675
    endloop
  endfacet
  facet normal 0 1 -0
    outer loop
      vertex 13.0877 3.5 8.31154
      vertex 10 3.5 8.88675
      vertex 13.7227 3.5 8.71448
    endloop
  endfacet
  facet normal 0 1 -0
    outer loop
      vertex 12.5729 3.5 7.76336
      vertex 10 3.5 8.88675
      vertex 13.0877 3.5 8.31154
    endloop
  endfacet
  facet normal 0 1 -0
    outer loop
      vertex 12.2107 3.5 7.10437
      vertex 10 3.5 8.88675
      vertex 12.5729 3.5 7.76336
    endloop
  endfacet
  facet normal 0 1 -0
    outer loop
      vertex 12.0237 3.5 6.376
      vertex 10 3.5 8.88675
      vertex 12.2107 3.5 7.10437
    endloop
  endfacet
  facet normal 0 1 -0
    outer loop
      vertex 12.0237 3.5 5.624
      vertex 10 3.5 8.88675
      vertex 12.0237 3.5 6.376
    endloop
  endfacet
  facet normal 0 1 0
    outer loop
      vertex 10 3.5 3.11325
      vertex 12.0237 3.5 5.624
      vertex 12.2107 3.5 4.89563
    endloop
  endfacet
  facet normal 0 1 0
    outer loop
      vertex 10 3.5 3.11325
      vertex 12.2107 3.5 4.89563
      vertex 12.5729 3.5 4.23664
    endloop
  endfacet
  facet normal 0 1 0
    outer loop
      vertex 12.0237 3.5 5.624
      vertex 10 3.5 3.11325
      vertex 10 3.5 8.88675
    endloop
  endfacet
  facet normal 0 1 0
    outer loop
      vertex 13.0877 3.5 3.68846
      vertex 10 3.5 3.11325
      vertex 12.5729 3.5 4.23664
    endloop
  endfacet
  facet normal 0 1 0
    outer loop
      vertex 13.7227 3.5 3.28552
      vertex 10 3.5 3.11325
      vertex 13.0877 3.5 3.68846
    endloop
  endfacet
  facet normal 0 1 0
    outer loop
      vertex 15 3.5 0.2265
      vertex 13.7227 3.5 3.28552
      vertex 14.4379 3.5 3.05314
    endloop
  endfacet
  facet normal 0 1 -0
    outer loop
      vertex 15 3.5 0.2265
      vertex 14.4379 3.5 3.05314
      vertex 15.1884 3.5 3.00592
    endloop
  endfacet
  facet normal 0 1 0
    outer loop
      vertex 13.7227 3.5 3.28552
      vertex 15 3.5 0.2265
      vertex 10 3.5 3.11325
    endloop
  endfacet
  facet normal -0.5 0 -0.866026
    outer loop
      vertex 15 3.5 11.7735
      vertex 20 8.5 8.88675
      vertex 20 3.5 8.88675
    endloop
  endfacet
  facet normal -0.5 0 -0.866026
    outer loop
      vertex 20 8.5 8.88675
      vertex 15 3.5 11.7735
      vertex 15 8.5 11.7735
    endloop
  endfacet
  facet normal 1 -0 0
    outer loop
      vertex 10 3.5 8.88675
      vertex 10 8.5 3.11325
      vertex 10 8.5 8.88675
    endloop
  endfacet
  facet normal 1 0 0
    outer loop
      vertex 10 8.5 3.11325
      vertex 10 3.5 8.88675
      vertex 10 3.5 3.11325
    endloop
  endfacet
  facet normal 0.5 0 -0.866026
    outer loop
      vertex 10 3.5 8.88675
      vertex 15 8.5 11.7735
      vertex 15 3.5 11.7735
    endloop
  endfacet
  facet normal 0.5 0 -0.866026
    outer loop
      vertex 15 8.5 11.7735
      vertex 10 3.5 8.88675
      vertex 10 8.5 8.88675
    endloop
  endfacet
  facet normal 0 -1 -0
    outer loop
      vertex 15 8.5 11.7735
      vertex 14.4379 8.5 8.94686
      vertex 15.1884 8.5 8.99408
    endloop
  endfacet
  facet normal 0 -1 0
    outer loop
      vertex 13.7227 8.5 8.71448
      vertex 15 8.5 11.7735
      vertex 10 8.5 8.88675
    endloop
  endfacet
  facet normal 0 -1 0
    outer loop
      vertex 15 8.5 11.7735
      vertex 13.7227 8.5 8.71448
      vertex 14.4379 8.5 8.94686
    endloop
  endfacet
  facet normal 0 -1 0
    outer loop
      vertex 10 8.5 8.88675
      vertex 13.0877 8.5 8.31154
      vertex 13.7227 8.5 8.71448
    endloop
  endfacet
  facet normal 0 -1 0
    outer loop
      vertex 10 8.5 8.88675
      vertex 12.5729 8.5 7.76336
      vertex 13.0877 8.5 8.31154
    endloop
  endfacet
  facet normal 0 -1 0
    outer loop
      vertex 10 8.5 8.88675
      vertex 12.2107 8.5 7.10437
      vertex 12.5729 8.5 7.76336
    endloop
  endfacet
  facet normal 0 -1 0
    outer loop
      vertex 10 8.5 8.88675
      vertex 12.0237 8.5 6.376
      vertex 12.2107 8.5 7.10437
    endloop
  endfacet
  facet normal 0 -1 0
    outer loop
      vertex 10 8.5 8.88675
      vertex 12.0237 8.5 5.624
      vertex 12.0237 8.5 6.376
    endloop
  endfacet
  facet normal 0 -1 0
    outer loop
      vertex 10 8.5 3.11325
      vertex 12.0237 8.5 5.624
      vertex 10 8.5 8.88675
    endloop
  endfacet
  facet normal 0 -1 -0
    outer loop
      vertex 12.0237 8.5 5.624
      vertex 10 8.5 3.11325
      vertex 12.2107 8.5 4.89563
    endloop
  endfacet
  facet normal 0 -1 -0
    outer loop
      vertex 12.2107 8.5 4.89563
      vertex 10 8.5 3.11325
      vertex 12.5729 8.5 4.23664
    endloop
  endfacet
  facet normal 0 -1 0
    outer loop
      vertex 10 8.5 3.11325
      vertex 13.0877 8.5 3.68846
      vertex 12.5729 8.5 4.23664
    endloop
  endfacet
  facet normal 0 -1 0
    outer loop
      vertex 10 8.5 3.11325
      vertex 13.7227 8.5 3.28552
      vertex 13.0877 8.5 3.68846
    endloop
  endfacet
  facet normal 0 -1 0
    outer loop
      vertex 15 8.5 0.2265
      vertex 13.7227 8.5 3.28552
      vertex 10 8.5 3.11325
    endloop
  endfacet
  facet normal 0 -1 0
    outer loop
      vertex 13.7227 8.5 3.28552
      vertex 15 8.5 0.2265
      vertex 14.4379 8.5 3.05314
    endloop
  endfacet
  facet normal 0 -1 0
    outer loop
      vertex 14.4379 8.5 3.05314
      vertex 15 8.5 0.2265
      vertex 15.1884 8.5 3.00592
    endloop
  endfacet
  facet normal 0 -1 0
    outer loop
      vertex 15.9271 8.5 8.85317
      vertex 15 8.5 11.7735
      vertex 15.1884 8.5 8.99408
    endloop
  endfacet
  facet normal 0 -1 0
    outer loop
      vertex 16.6075 8.5 8.53298
      vertex 15 8.5 11.7735
      vertex 15.9271 8.5 8.85317
    endloop
  endfacet
  facet normal 0 -1 0
    outer loop
      vertex 15 8.5 11.7735
      vertex 16.6075 8.5 8.53298
      vertex 20 8.5 8.88675
    endloop
  endfacet
  facet normal 0 -1 0
    outer loop
      vertex 17.1869 8.5 8.05364
      vertex 20 8.5 8.88675
      vertex 16.6075 8.5 8.53298
    endloop
  endfacet
  facet normal 0 -1 0
    outer loop
      vertex 17.6289 8.5 7.44526
      vertex 20 8.5 8.88675
      vertex 17.1869 8.5 8.05364
    endloop
  endfacet
  facet normal 0 -1 0
    outer loop
      vertex 17.9058 8.5 6.74607
      vertex 20 8.5 8.88675
      vertex 17.6289 8.5 7.44526
    endloop
  endfacet
  facet normal 0 -1 0
    outer loop
      vertex 18 8.5 6
      vertex 20 8.5 8.88675
      vertex 17.9058 8.5 6.74607
    endloop
  endfacet
  facet normal 0 -1 0
    outer loop
      vertex 20 8.5 3.11325
      vertex 18 8.5 6
      vertex 17.9058 8.5 5.25393
    endloop
  endfacet
  facet normal 0 -1 0
    outer loop
      vertex 20 8.5 3.11325
      vertex 17.9058 8.5 5.25393
      vertex 17.6289 8.5 4.55474
    endloop
  endfacet
  facet normal 0 -1 0
    outer loop
      vertex 18 8.5 6
      vertex 20 8.5 3.11325
      vertex 20 8.5 8.88675
    endloop
  endfacet
  facet normal 0 -1 0
    outer loop
      vertex 17.1869 8.5 3.94636
      vertex 20 8.5 3.11325
      vertex 17.6289 8.5 4.55474
    endloop
  endfacet
  facet normal 0 -1 0
    outer loop
      vertex 16.6075 8.5 3.46702
      vertex 20 8.5 3.11325
      vertex 17.1869 8.5 3.94636
    endloop
  endfacet
  facet normal 0 -1 0
    outer loop
      vertex 15 8.5 0.2265
      vertex 16.6075 8.5 3.46702
      vertex 15.9271 8.5 3.14683
    endloop
  endfacet
  facet normal 0 -1 0
    outer loop
      vertex 15 8.5 0.2265
      vertex 15.9271 8.5 3.14683
      vertex 15.1884 8.5 3.00592
    endloop
  endfacet
  facet normal 0 -1 -0
    outer loop
      vertex 16.6075 8.5 3.46702
      vertex 15 8.5 0.2265
      vertex 20 8.5 3.11325
    endloop
  endfacet
  facet normal 0 0 -1
    outer loop
      vertex 8.45491 18.9389 0
      vertex 12.5729 16.7634 0
      vertex 12.2107 16.1044 0
    endloop
  endfacet
  facet normal 0 0 -1
    outer loop
      vertex 7.53941 16.6267 0
      vertex 12.2107 16.1044 0
      vertex 12.0237 15.376 0
    endloop
  endfacet
  facet normal 0 0 -1
    outer loop
      vertex 12.5729 16.7634 0
      vertex 11.5631 20.9114 0
      vertex 12.5 20.9704 0
    endloop
  endfacet
  facet normal 0 0 -1
    outer loop
      vertex 17.1869 12.9464 0
      vertex 22.5 16 0
      vertex 22.5 1.5 0
    endloop
  endfacet
  facet normal 0 -0 -1
    outer loop
      vertex 17.9058 14.2539 0
      vertex 22.5 16 0
      vertex 17.6289 13.5547 0
    endloop
  endfacet
  facet normal 0 -0 -1
    outer loop
      vertex 18 15 0
      vertex 22.5 16 0
      vertex 17.9058 14.2539 0
    endloop
  endfacet
  facet normal -0 0 -1
    outer loop
      vertex 22.5 16 0
      vertex 17.9058 15.7461 0
      vertex 22.3429 17.2434 0
    endloop
  endfacet
  facet normal -0 0 -1
    outer loop
      vertex 22.3429 17.2434 0
      vertex 17.9058 15.7461 0
      vertex 21.8815 18.4088 0
    endloop
  endfacet
  facet normal -0 0 -1
    outer loop
      vertex 21.8815 18.4088 0
      vertex 17.6289 16.4453 0
      vertex 21.1448 19.4227 0
    endloop
  endfacet
  facet normal 0 0 -1
    outer loop
      vertex 17.6289 16.4453 0
      vertex 21.8815 18.4088 0
      vertex 17.9058 15.7461 0
    endloop
  endfacet
  facet normal 0 0 -1
    outer loop
      vertex 17.9058 15.7461 0
      vertex 22.5 16 0
      vertex 18 15 0
    endloop
  endfacet
  facet normal 0 0 -1
    outer loop
      vertex 22.5 16 0
      vertex 17.1869 12.9464 0
      vertex 17.6289 13.5547 0
    endloop
  endfacet
  facet normal 0 0 -1
    outer loop
      vertex 22.5 1.5 0
      vertex 16.6075 12.467 0
      vertex 17.1869 12.9464 0
    endloop
  endfacet
  facet normal 0 0 -1
    outer loop
      vertex 22.5 1.5 0
      vertex 15.9271 12.1468 0
      vertex 16.6075 12.467 0
    endloop
  endfacet
  facet normal 0 0 -1
    outer loop
      vertex 22.5 1.5 0
      vertex 15.1884 12.0059 0
      vertex 15.9271 12.1468 0
    endloop
  endfacet
  facet normal 0 0 -1
    outer loop
      vertex 7.5 1.5 0
      vertex 15.1884 12.0059 0
      vertex 22.5 1.5 0
    endloop
  endfacet
  facet normal -0 0 -1
    outer loop
      vertex 15.1884 12.0059 0
      vertex 7.5 1.5 0
      vertex 14.4379 12.0531 0
    endloop
  endfacet
  facet normal -0 0 -1
    outer loop
      vertex 14.4379 12.0531 0
      vertex 7.5 1.5 0
      vertex 13.7227 12.2855 0
    endloop
  endfacet
  facet normal -0 0 -1
    outer loop
      vertex 13.7227 12.2855 0
      vertex 7.5 1.5 0
      vertex 13.0877 12.6885 0
    endloop
  endfacet
  facet normal 0 0 -1
    outer loop
      vertex 7.53941 16 0
      vertex 12.0237 15.376 0
      vertex 12.0237 14.624 0
    endloop
  endfacet
  facet normal 0 0 -1
    outer loop
      vertex 12.5729 16.7634 0
      vertex 10.3711 20.5241 0
      vertex 11.5631 20.9114 0
    endloop
  endfacet
  facet normal 0 0 -1
    outer loop
      vertex 7.53941 16 0
      vertex 12.0237 14.624 0
      vertex 12.2107 13.8956 0
    endloop
  endfacet
  facet normal 0 0 -1
    outer loop
      vertex 12.5729 16.7634 0
      vertex 9.31287 19.8526 0
      vertex 10.3711 20.5241 0
    endloop
  endfacet
  facet normal 0 0 -1
    outer loop
      vertex 12.5729 16.7634 0
      vertex 8.45491 18.9389 0
      vertex 9.31287 19.8526 0
    endloop
  endfacet
  facet normal 0 0 -1
    outer loop
      vertex 7.53941 16 0
      vertex 12.2107 13.8956 0
      vertex 12.5729 13.2366 0
    endloop
  endfacet
  facet normal 0 0 -1
    outer loop
      vertex 12.2107 16.1044 0
      vertex 7.8511 17.8406 0
      vertex 8.45491 18.9389 0
    endloop
  endfacet
  facet normal -0 0 -1
    outer loop
      vertex 13.0877 12.6885 0
      vertex 7.5 1.5 0
      vertex 12.5729 13.2366 0
    endloop
  endfacet
  facet normal 0 0 -1
    outer loop
      vertex 12.0237 15.376 0
      vertex 7.53941 16 0
      vertex 7.53941 16.6267 0
    endloop
  endfacet
  facet normal 0 0 -1
    outer loop
      vertex 7.5 16 0
      vertex 12.5729 13.2366 0
      vertex 7.5 1.5 0
    endloop
  endfacet
  facet normal 0 0 -1
    outer loop
      vertex 12.5729 13.2366 0
      vertex 7.5 16 0
      vertex 7.53941 16 0
    endloop
  endfacet
  facet normal -0 0 -1
    outer loop
      vertex 21.1448 19.4227 0
      vertex 17.6289 16.4453 0
      vertex 20.1791 20.2216 0
    endloop
  endfacet
  facet normal 0 0 -1
    outer loop
      vertex 17.1869 17.0536 0
      vertex 20.1791 20.2216 0
      vertex 17.6289 16.4453 0
    endloop
  endfacet
  facet normal -0 0 -1
    outer loop
      vertex 20.1791 20.2216 0
      vertex 17.1869 17.0536 0
      vertex 19.0451 20.7553 0
    endloop
  endfacet
  facet normal 0 0 -1
    outer loop
      vertex 16.6075 17.533 0
      vertex 19.0451 20.7553 0
      vertex 17.1869 17.0536 0
    endloop
  endfacet
  facet normal -0 0 -1
    outer loop
      vertex 19.0451 20.7553 0
      vertex 16.6075 17.533 0
      vertex 17.8139 20.9901 0
    endloop
  endfacet
  facet normal 0 0 -1
    outer loop
      vertex 17.8139 20.9901 0
      vertex 16.6075 17.533 0
      vertex 17.5 20.9704 0
    endloop
  endfacet
  facet normal 0 0 -1
    outer loop
      vertex 15.9271 17.8532 0
      vertex 17.5 20.9704 0
      vertex 16.6075 17.533 0
    endloop
  endfacet
  facet normal 0 0 -1
    outer loop
      vertex 15.1884 17.9941 0
      vertex 17.5 20.9704 0
      vertex 15.9271 17.8532 0
    endloop
  endfacet
  facet normal 0 0 -1
    outer loop
      vertex 12.5 20.9704 0
      vertex 17.5 20.9704 0
      vertex 15.1884 17.9941 0
    endloop
  endfacet
  facet normal 0 0 -1
    outer loop
      vertex 12.5 20.9704 0
      vertex 15.1884 17.9941 0
      vertex 14.4379 17.9469 0
    endloop
  endfacet
  facet normal 0 0 -1
    outer loop
      vertex 12.5 20.9704 0
      vertex 14.4379 17.9469 0
      vertex 13.7227 17.7145 0
    endloop
  endfacet
  facet normal 0 0 -1
    outer loop
      vertex 12.5 20.9704 0
      vertex 13.7227 17.7145 0
      vertex 13.0877 17.3115 0
    endloop
  endfacet
  facet normal 0 0 -1
    outer loop
      vertex 12.5 20.9704 0
      vertex 13.0877 17.3115 0
      vertex 12.5729 16.7634 0
    endloop
  endfacet
  facet normal 0 0 -1
    outer loop
      vertex 17.5 20.9704 0
      vertex 12.5 20.9704 0
      vertex 17.5 21 0
    endloop
  endfacet
  facet normal -0 0 -1
    outer loop
      vertex 17.5 21 0
      vertex 12.5 20.9704 0
      vertex 12.5 21 0
    endloop
  endfacet
  facet normal 0 0 -1
    outer loop
      vertex 12.2107 16.1044 0
      vertex 7.53941 16.6267 0
      vertex 7.8511 17.8406 0
    endloop
  endfacet
  facet normal 0 0 1
    outer loop
      vertex 12.5 20.9704 12
      vertex 17.5 20.9704 12
      vertex 17.5 21 12
    endloop
  endfacet
  facet normal 0 0 1
    outer loop
      vertex 17.5 20.9704 12
      vertex 16.6075 17.533 12
      vertex 17.1869 17.0536 12
    endloop
  endfacet
  facet normal 0 0 1
    outer loop
      vertex 17.5 20.9704 12
      vertex 15.9271 17.8532 12
      vertex 16.6075 17.533 12
    endloop
  endfacet
  facet normal 0 0 1
    outer loop
      vertex 17.5 20.9704 12
      vertex 15.1884 17.9941 12
      vertex 15.9271 17.8532 12
    endloop
  endfacet
  facet normal 0 0 1
    outer loop
      vertex 17.5 20.9704 12
      vertex 12.5 20.9704 12
      vertex 15.1884 17.9941 12
    endloop
  endfacet
  facet normal 0 0 1
    outer loop
      vertex 15.1884 17.9941 12
      vertex 12.5 20.9704 12
      vertex 14.4379 17.9469 12
    endloop
  endfacet
  facet normal 0 0 1
    outer loop
      vertex 14.4379 17.9469 12
      vertex 12.5 20.9704 12
      vertex 13.7227 17.7145 12
    endloop
  endfacet
  facet normal 0 0 1
    outer loop
      vertex 12.5 20.9704 12
      vertex 17.5 21 12
      vertex 12.5 21 12
    endloop
  endfacet
  facet normal 0 0 1
    outer loop
      vertex 13.7227 17.7145 12
      vertex 12.5 20.9704 12
      vertex 13.0877 17.3115 12
    endloop
  endfacet
  facet normal -0 0 1
    outer loop
      vertex 11.5631 20.9114 12
      vertex 13.0877 17.3115 12
      vertex 12.5 20.9704 12
    endloop
  endfacet
  facet normal -0 0 1
    outer loop
      vertex 10.3711 20.5241 12
      vertex 13.0877 17.3115 12
      vertex 11.5631 20.9114 12
    endloop
  endfacet
  facet normal 0 0 1
    outer loop
      vertex 13.0877 17.3115 12
      vertex 10.3711 20.5241 12
      vertex 12.5729 16.7634 12
    endloop
  endfacet
  facet normal -0 0 1
    outer loop
      vertex 8.45491 18.9389 12
      vertex 12.5729 16.7634 12
      vertex 9.31287 19.8526 12
    endloop
  endfacet
  facet normal -0 0 1
    outer loop
      vertex 9.31287 19.8526 12
      vertex 12.5729 16.7634 12
      vertex 10.3711 20.5241 12
    endloop
  endfacet
  facet normal 0 0 1
    outer loop
      vertex 22.5 16 12
      vertex 17.9058 15.7461 12
      vertex 18 15 12
    endloop
  endfacet
  facet normal 0 0 1
    outer loop
      vertex 17.1869 17.0536 12
      vertex 19.0451 20.7553 12
      vertex 17.8139 20.9901 12
    endloop
  endfacet
  facet normal 0 0 1
    outer loop
      vertex 20.1791 20.2216 12
      vertex 17.6289 16.4453 12
      vertex 17.9058 15.7461 12
    endloop
  endfacet
  facet normal 0 0 1
    outer loop
      vertex 17.1869 17.0536 12
      vertex 17.8139 20.9901 12
      vertex 17.5 20.9704 12
    endloop
  endfacet
  facet normal 0 0 1
    outer loop
      vertex 20.1791 20.2216 12
      vertex 17.1869 17.0536 12
      vertex 17.6289 16.4453 12
    endloop
  endfacet
  facet normal 0 0 1
    outer loop
      vertex 17.9058 15.7461 12
      vertex 22.5 16 12
      vertex 22.3429 17.2434 12
    endloop
  endfacet
  facet normal 0 0 1
    outer loop
      vertex 17.9058 15.7461 12
      vertex 22.3429 17.2434 12
      vertex 21.8815 18.4088 12
    endloop
  endfacet
  facet normal 0 0 1
    outer loop
      vertex 17.9058 15.7461 12
      vertex 21.8815 18.4088 12
      vertex 21.1448 19.4227 12
    endloop
  endfacet
  facet normal 0 0 1
    outer loop
      vertex 17.9058 15.7461 12
      vertex 21.1448 19.4227 12
      vertex 20.1791 20.2216 12
    endloop
  endfacet
  facet normal 0 0 1
    outer loop
      vertex 17.1869 17.0536 12
      vertex 20.1791 20.2216 12
      vertex 19.0451 20.7553 12
    endloop
  endfacet
  facet normal 0 0 1
    outer loop
      vertex 22.5 16 12
      vertex 18 15 12
      vertex 17.9058 14.2539 12
    endloop
  endfacet
  facet normal 0 0 1
    outer loop
      vertex 22.5 16 12
      vertex 17.9058 14.2539 12
      vertex 17.6289 13.5547 12
    endloop
  endfacet
  facet normal 0 0 1
    outer loop
      vertex 17.1869 12.9464 12
      vertex 22.5 16 12
      vertex 17.6289 13.5547 12
    endloop
  endfacet
  facet normal 0 0 1
    outer loop
      vertex 22.5 16 12
      vertex 17.1869 12.9464 12
      vertex 22.5 1.5 12
    endloop
  endfacet
  facet normal -0 0 1
    outer loop
      vertex 16.6075 12.467 12
      vertex 22.5 1.5 12
      vertex 17.1869 12.9464 12
    endloop
  endfacet
  facet normal -0 0 1
    outer loop
      vertex 15.9271 12.1468 12
      vertex 22.5 1.5 12
      vertex 16.6075 12.467 12
    endloop
  endfacet
  facet normal -0 0 1
    outer loop
      vertex 15.1884 12.0059 12
      vertex 22.5 1.5 12
      vertex 15.9271 12.1468 12
    endloop
  endfacet
  facet normal 0 0 1
    outer loop
      vertex 7.5 1.5 12
      vertex 15.1884 12.0059 12
      vertex 14.4379 12.0531 12
    endloop
  endfacet
  facet normal 0 0 1
    outer loop
      vertex 7.5 1.5 12
      vertex 14.4379 12.0531 12
      vertex 13.7227 12.2855 12
    endloop
  endfacet
  facet normal 0 0 1
    outer loop
      vertex 7.5 1.5 12
      vertex 13.7227 12.2855 12
      vertex 13.0877 12.6885 12
    endloop
  endfacet
  facet normal 0 0 1
    outer loop
      vertex 7.5 1.5 12
      vertex 13.0877 12.6885 12
      vertex 12.5729 13.2366 12
    endloop
  endfacet
  facet normal 0 0 1
    outer loop
      vertex 12.5729 16.7634 12
      vertex 8.45491 18.9389 12
      vertex 12.2107 16.1044 12
    endloop
  endfacet
  facet normal -0 0 1
    outer loop
      vertex 7.8511 17.8406 12
      vertex 12.2107 16.1044 12
      vertex 8.45491 18.9389 12
    endloop
  endfacet
  facet normal -0 0 1
    outer loop
      vertex 7.53941 16.6267 12
      vertex 12.2107 16.1044 12
      vertex 7.8511 17.8406 12
    endloop
  endfacet
  facet normal 0 0 1
    outer loop
      vertex 12.2107 16.1044 12
      vertex 7.53941 16.6267 12
      vertex 12.0237 15.376 12
    endloop
  endfacet
  facet normal -0 0 1
    outer loop
      vertex 7.53941 16 12
      vertex 12.0237 15.376 12
      vertex 7.53941 16.6267 12
    endloop
  endfacet
  facet normal 0 0 1
    outer loop
      vertex 12.0237 15.376 12
      vertex 7.53941 16 12
      vertex 12.0237 14.624 12
    endloop
  endfacet
  facet normal 0 0 1
    outer loop
      vertex 12.0237 14.624 12
      vertex 7.53941 16 12
      vertex 12.2107 13.8956 12
    endloop
  endfacet
  facet normal 0 0 1
    outer loop
      vertex 12.2107 13.8956 12
      vertex 7.53941 16 12
      vertex 12.5729 13.2366 12
    endloop
  endfacet
  facet normal -0 0 1
    outer loop
      vertex 7.5 16 12
      vertex 12.5729 13.2366 12
      vertex 7.53941 16 12
    endloop
  endfacet
  facet normal 0 0 1
    outer loop
      vertex 12.5729 13.2366 12
      vertex 7.5 16 12
      vertex 7.5 1.5 12
    endloop
  endfacet
  facet normal 0 0 1
    outer loop
      vertex 15.1884 12.0059 12
      vertex 7.5 1.5 12
      vertex 22.5 1.5 12
    endloop
  endfacet
  facet normal 0.992113 0.125351 0
    outer loop
      vertex 22.5 16 12
      vertex 22.3429 17.2434 0
      vertex 22.3429 17.2434 12
    endloop
  endfacet
  facet normal 0.992113 0.125351 0
    outer loop
      vertex 22.3429 17.2434 0
      vertex 22.5 16 12
      vertex 22.5 16 0
    endloop
  endfacet
  facet normal 0.92978 0.368115 0
    outer loop
      vertex 22.3429 17.2434 12
      vertex 21.8815 18.4088 0
      vertex 21.8815 18.4088 12
    endloop
  endfacet
  facet normal 0.92978 0.368115 0
    outer loop
      vertex 21.8815 18.4088 0
      vertex 22.3429 17.2434 12
      vertex 22.3429 17.2434 0
    endloop
  endfacet
  facet normal 0.808995 0.587816 0
    outer loop
      vertex 21.8815 18.4088 12
      vertex 21.1448 19.4227 0
      vertex 21.1448 19.4227 12
    endloop
  endfacet
  facet normal 0.808995 0.587816 0
    outer loop
      vertex 21.1448 19.4227 0
      vertex 21.8815 18.4088 12
      vertex 21.8815 18.4088 0
    endloop
  endfacet
  facet normal 0.637426 0.770512 -0
    outer loop
      vertex 21.1448 19.4227 0
      vertex 20.1791 20.2216 12
      vertex 21.1448 19.4227 12
    endloop
  endfacet
  facet normal 0.637426 0.770512 0
    outer loop
      vertex 20.1791 20.2216 12
      vertex 21.1448 19.4227 0
      vertex 20.1791 20.2216 0
    endloop
  endfacet
  facet normal 0.425832 0.904802 -0
    outer loop
      vertex 20.1791 20.2216 0
      vertex 19.0451 20.7553 12
      vertex 20.1791 20.2216 12
    endloop
  endfacet
  facet normal 0.425832 0.904802 0
    outer loop
      vertex 19.0451 20.7553 12
      vertex 20.1791 20.2216 0
      vertex 19.0451 20.7553 0
    endloop
  endfacet
  facet normal 0.187332 0.982297 -0
    outer loop
      vertex 19.0451 20.7553 0
      vertex 17.8139 20.9901 12
      vertex 19.0451 20.7553 12
    endloop
  endfacet
  facet normal 0.187332 0.982297 0
    outer loop
      vertex 17.8139 20.9901 12
      vertex 19.0451 20.7553 0
      vertex 17.8139 20.9901 0
    endloop
  endfacet
  facet normal -0.0626356 0.998036 0
    outer loop
      vertex 17.8139 20.9901 0
      vertex 17.5 20.9704 12
      vertex 17.8139 20.9901 12
    endloop
  endfacet
  facet normal -0.0626356 0.998036 0
    outer loop
      vertex 17.5 20.9704 12
      vertex 17.8139 20.9901 0
      vertex 17.5 20.9704 0
    endloop
  endfacet
  facet normal 1 -0 0
    outer loop
      vertex 17.5 20.9704 12
      vertex 17.5 21 0
      vertex 17.5 21 12
    endloop
  endfacet
  facet normal 1 0 0
    outer loop
      vertex 17.5 21 0
      vertex 17.5 20.9704 12
      vertex 17.5 20.9704 0
    endloop
  endfacet
  facet normal 0 1 -0
    outer loop
      vertex 17.5 21 0
      vertex 12.5 21 12
      vertex 17.5 21 12
    endloop
  endfacet
  facet normal 0 1 0
    outer loop
      vertex 12.5 21 12
      vertex 17.5 21 0
      vertex 12.5 21 0
    endloop
  endfacet
  facet normal -1 0 0
    outer loop
      vertex 12.5 20.9704 0
      vertex 12.5 21 12
      vertex 12.5 21 0
    endloop
  endfacet
  facet normal -1 -0 0
    outer loop
      vertex 12.5 21 12
      vertex 12.5 20.9704 0
      vertex 12.5 20.9704 12
    endloop
  endfacet
  facet normal -0.0628491 0.998023 0
    outer loop
      vertex 12.5 20.9704 0
      vertex 11.5631 20.9114 12
      vertex 12.5 20.9704 12
    endloop
  endfacet
  facet normal -0.0628491 0.998023 0
    outer loop
      vertex 11.5631 20.9114 12
      vertex 12.5 20.9704 0
      vertex 11.5631 20.9114 0
    endloop
  endfacet
  facet normal -0.309014 0.951058 0
    outer loop
      vertex 11.5631 20.9114 0
      vertex 10.3711 20.5241 12
      vertex 11.5631 20.9114 12
    endloop
  endfacet
  facet normal -0.309014 0.951058 0
    outer loop
      vertex 10.3711 20.5241 12
      vertex 11.5631 20.9114 0
      vertex 10.3711 20.5241 0
    endloop
  endfacet
  facet normal -0.535785 0.844354 0
    outer loop
      vertex 10.3711 20.5241 0
      vertex 9.31287 19.8526 12
      vertex 10.3711 20.5241 12
    endloop
  endfacet
  facet normal -0.535785 0.844354 0
    outer loop
      vertex 9.31287 19.8526 12
      vertex 10.3711 20.5241 0
      vertex 9.31287 19.8526 0
    endloop
  endfacet
  facet normal -0.728993 0.684521 0
    outer loop
      vertex 8.45491 18.9389 0
      vertex 9.31287 19.8526 12
      vertex 9.31287 19.8526 0
    endloop
  endfacet
  facet normal -0.728993 0.684521 0
    outer loop
      vertex 9.31287 19.8526 12
      vertex 8.45491 18.9389 0
      vertex 8.45491 18.9389 12
    endloop
  endfacet
  facet normal -0.876302 0.481763 0
    outer loop
      vertex 7.8511 17.8406 0
      vertex 8.45491 18.9389 12
      vertex 8.45491 18.9389 0
    endloop
  endfacet
  facet normal -0.876302 0.481763 0
    outer loop
      vertex 8.45491 18.9389 12
      vertex 7.8511 17.8406 0
      vertex 7.8511 17.8406 12
    endloop
  endfacet
  facet normal -0.968581 0.2487 0
    outer loop
      vertex 7.53941 16.6267 0
      vertex 7.8511 17.8406 12
      vertex 7.8511 17.8406 0
    endloop
  endfacet
  facet normal -0.968581 0.2487 0
    outer loop
      vertex 7.8511 17.8406 12
      vertex 7.53941 16.6267 0
      vertex 7.53941 16.6267 12
    endloop
  endfacet
  facet normal -1 0 0
    outer loop
      vertex 7.53941 16 0
      vertex 7.53941 16.6267 12
      vertex 7.53941 16.6267 0
    endloop
  endfacet
  facet normal -1 -0 0
    outer loop
      vertex 7.53941 16.6267 12
      vertex 7.53941 16 0
      vertex 7.53941 16 12
    endloop
  endfacet
  facet normal 0 1 -0
    outer loop
      vertex 7.53941 16 0
      vertex 7.5 16 12
      vertex 7.53941 16 12
    endloop
  endfacet
  facet normal 0 1 0
    outer loop
      vertex 7.5 16 12
      vertex 7.53941 16 0
      vertex 7.5 16 0
    endloop
  endfacet
  facet normal -1 0 0
    outer loop
      vertex 7.5 1.5 0
      vertex 7.5 16 12
      vertex 7.5 16 0
    endloop
  endfacet
  facet normal -1 -0 0
    outer loop
      vertex 7.5 16 12
      vertex 7.5 1.5 0
      vertex 7.5 1.5 12
    endloop
  endfacet
  facet normal 1 -0 0
    outer loop
      vertex 22.5 1.5 12
      vertex 22.5 16 0
      vertex 22.5 16 12
    endloop
  endfacet
  facet normal 1 0 0
    outer loop
      vertex 22.5 16 0
      vertex 22.5 1.5 12
      vertex 22.5 1.5 0
    endloop
  endfacet
  facet normal -0.992106 0.125402 0
    outer loop
      vertex 18 15 0
      vertex 17.9368 14.5 5.5
      vertex 18 15 12
    endloop
  endfacet
  facet normal -0.992124 0.125262 0
    outer loop
      vertex 17.9058 14.2539 5.25393
      vertex 18 15 0
      vertex 17.9058 14.2539 0
    endloop
  endfacet
  facet normal -0.992155 0.125013 -3.59615e-05
    outer loop
      vertex 18 15 0
      vertex 17.9058 14.2539 5.25393
      vertex 17.9368 14.5 5.5
    endloop
  endfacet
  facet normal -0.992106 0.125402 0
    outer loop
      vertex 17.9368 14.5 6.5
      vertex 18 15 12
      vertex 17.9368 14.5 5.5
    endloop
  endfacet
  facet normal -0.992155 0.125013 3.59615e-05
    outer loop
      vertex 17.9058 14.2539 6.74607
      vertex 18 15 12
      vertex 17.9368 14.5 6.5
    endloop
  endfacet
  facet normal -0.992124 0.125262 0
    outer loop
      vertex 18 15 12
      vertex 17.9058 14.2539 6.74607
      vertex 17.9058 14.2539 12
    endloop
  endfacet
  facet normal -0.992124 -0.125262 0
    outer loop
      vertex 18 15 0
      vertex 17.9058 15.7461 12
      vertex 17.9058 15.7461 0
    endloop
  endfacet
  facet normal -0.992124 -0.125262 0
    outer loop
      vertex 17.9058 15.7461 12
      vertex 18 15 0
      vertex 18 15 12
    endloop
  endfacet
  facet normal 0.309038 -0.95105 0
    outer loop
      vertex 13.7227 17.7145 0
      vertex 14.4379 17.9469 12
      vertex 13.7227 17.7145 12
    endloop
  endfacet
  facet normal 0.309038 -0.95105 0
    outer loop
      vertex 14.4379 17.9469 12
      vertex 13.7227 17.7145 0
      vertex 14.4379 17.9469 0
    endloop
  endfacet
  facet normal 0.728902 0.684618 0
    outer loop
      vertex 13.0877 12.6885 3.68846
      vertex 12.5729 13.2366 0
      vertex 12.5729 13.2366 4.23664
    endloop
  endfacet
  facet normal 0.728902 0.684618 0
    outer loop
      vertex 12.5729 13.2366 0
      vertex 13.0877 12.6885 3.68846
      vertex 13.0877 12.6885 0
    endloop
  endfacet
  facet normal 0.728902 0.684618 -0
    outer loop
      vertex 13.0877 12.6885 8.31154
      vertex 12.5729 13.2366 12
      vertex 13.0877 12.6885 12
    endloop
  endfacet
  facet normal 0.728902 0.684618 0
    outer loop
      vertex 12.5729 13.2366 12
      vertex 13.0877 12.6885 8.31154
      vertex 12.5729 13.2366 7.76336
    endloop
  endfacet
  facet normal 0.535843 -0.844318 0
    outer loop
      vertex 13.0877 17.3115 0
      vertex 13.7227 17.7145 12
      vertex 13.0877 17.3115 12
    endloop
  endfacet
  facet normal 0.535843 -0.844318 0
    outer loop
      vertex 13.7227 17.7145 12
      vertex 13.0877 17.3115 0
      vertex 13.7227 17.7145 0
    endloop
  endfacet
  facet normal -0.637486 0.770462 0
    outer loop
      vertex 17.1869 12.9464 0
      vertex 16.6075 12.467 3.46702
      vertex 17.1869 12.9464 3.94636
    endloop
  endfacet
  facet normal -0.637486 0.770462 0
    outer loop
      vertex 16.6075 12.467 3.46702
      vertex 17.1869 12.9464 0
      vertex 16.6075 12.467 0
    endloop
  endfacet
  facet normal -0.637486 0.770462 0
    outer loop
      vertex 17.1869 12.9464 12
      vertex 16.6075 12.467 8.53298
      vertex 16.6075 12.467 12
    endloop
  endfacet
  facet normal -0.637486 0.770462 0
    outer loop
      vertex 16.6075 12.467 8.53298
      vertex 17.1869 12.9464 12
      vertex 17.1869 12.9464 8.05364
    endloop
  endfacet
  facet normal -0.42581 0.904813 0
    outer loop
      vertex 16.6075 12.467 0
      vertex 15.9271 12.1468 3.14683
      vertex 16.6075 12.467 3.46702
    endloop
  endfacet
  facet normal -0.42581 0.904813 0
    outer loop
      vertex 15.9271 12.1468 3.14683
      vertex 16.6075 12.467 0
      vertex 15.9271 12.1468 0
    endloop
  endfacet
  facet normal -0.42581 0.904813 0
    outer loop
      vertex 16.6075 12.467 12
      vertex 15.9271 12.1468 8.85317
      vertex 15.9271 12.1468 12
    endloop
  endfacet
  facet normal -0.42581 0.904813 0
    outer loop
      vertex 15.9271 12.1468 8.85317
      vertex 16.6075 12.467 12
      vertex 16.6075 12.467 8.53298
    endloop
  endfacet
  facet normal 0.728902 -0.684618 0
    outer loop
      vertex 12.5729 16.7634 12
      vertex 13.0877 17.3115 0
      vertex 13.0877 17.3115 12
    endloop
  endfacet
  facet normal 0.728902 -0.684618 0
    outer loop
      vertex 13.0877 17.3115 0
      vertex 12.5729 16.7634 12
      vertex 12.5729 16.7634 0
    endloop
  endfacet
  facet normal -0.929746 -0.368202 0
    outer loop
      vertex 17.9058 15.7461 0
      vertex 17.6289 16.4453 12
      vertex 17.6289 16.4453 0
    endloop
  endfacet
  facet normal -0.929746 -0.368202 0
    outer loop
      vertex 17.6289 16.4453 12
      vertex 17.9058 15.7461 0
      vertex 17.9058 15.7461 12
    endloop
  endfacet
  facet normal 0.968654 0.248413 0
    outer loop
      vertex 12.0237 14.624 12
      vertex 12.0555 14.5 6.5
      vertex 12.0237 14.624 0
    endloop
  endfacet
  facet normal 0.96859 0.248663 -0
    outer loop
      vertex 12.2107 13.8956 7.10437
      vertex 12.0237 14.624 12
      vertex 12.2107 13.8956 12
    endloop
  endfacet
  facet normal 0.968579 0.248708 -7.08951e-06
    outer loop
      vertex 12.0237 14.624 12
      vertex 12.2107 13.8956 7.10437
      vertex 12.0555 14.5 6.5
    endloop
  endfacet
  facet normal 0.968654 0.248413 -0
    outer loop
      vertex 12.0555 14.5 5.5
      vertex 12.0237 14.624 0
      vertex 12.0555 14.5 6.5
    endloop
  endfacet
  facet normal 0.968579 0.248708 7.08951e-06
    outer loop
      vertex 12.2107 13.8956 4.89563
      vertex 12.0237 14.624 0
      vertex 12.0555 14.5 5.5
    endloop
  endfacet
  facet normal 0.96859 0.248663 0
    outer loop
      vertex 12.0237 14.624 0
      vertex 12.2107 13.8956 4.89563
      vertex 12.2107 13.8956 0
    endloop
  endfacet
  facet normal 0.535843 0.844318 0
    outer loop
      vertex 13.0877 12.6885 0
      vertex 13.7227 12.2855 3.28552
      vertex 13.7227 12.2855 0
    endloop
  endfacet
  facet normal 0.535843 0.844318 0
    outer loop
      vertex 13.7227 12.2855 3.28552
      vertex 13.0877 12.6885 0
      vertex 13.0877 12.6885 3.68846
    endloop
  endfacet
  facet normal 0.535843 0.844318 -0
    outer loop
      vertex 13.7227 12.2855 8.71448
      vertex 13.0877 12.6885 12
      vertex 13.7227 12.2855 12
    endloop
  endfacet
  facet normal 0.535843 0.844318 0
    outer loop
      vertex 13.0877 12.6885 12
      vertex 13.7227 12.2855 8.71448
      vertex 13.0877 12.6885 8.31154
    endloop
  endfacet
  facet normal 0.309038 0.95105 0
    outer loop
      vertex 13.7227 12.2855 0
      vertex 14.4379 12.0531 3.05314
      vertex 14.4379 12.0531 0
    endloop
  endfacet
  facet normal 0.309038 0.95105 0
    outer loop
      vertex 14.4379 12.0531 3.05314
      vertex 13.7227 12.2855 0
      vertex 13.7227 12.2855 3.28552
    endloop
  endfacet
  facet normal 0.309038 0.95105 -0
    outer loop
      vertex 14.4379 12.0531 8.94686
      vertex 13.7227 12.2855 12
      vertex 14.4379 12.0531 12
    endloop
  endfacet
  facet normal 0.309038 0.95105 0
    outer loop
      vertex 13.7227 12.2855 12
      vertex 14.4379 12.0531 8.94686
      vertex 13.7227 12.2855 8.71448
    endloop
  endfacet
  facet normal 0.0627674 0.998028 0
    outer loop
      vertex 14.4379 12.0531 0
      vertex 15.1884 12.0059 3.00592
      vertex 15.1884 12.0059 0
    endloop
  endfacet
  facet normal 0.0627674 0.998028 0
    outer loop
      vertex 15.1884 12.0059 3.00592
      vertex 14.4379 12.0531 0
      vertex 14.4379 12.0531 3.05314
    endloop
  endfacet
  facet normal 0.0627674 0.998028 -0
    outer loop
      vertex 15.1884 12.0059 8.99408
      vertex 14.4379 12.0531 12
      vertex 15.1884 12.0059 12
    endloop
  endfacet
  facet normal 0.0627674 0.998028 0
    outer loop
      vertex 14.4379 12.0531 12
      vertex 15.1884 12.0059 8.99408
      vertex 14.4379 12.0531 8.94686
    endloop
  endfacet
  facet normal -0.929746 0.368202 0
    outer loop
      vertex 17.6289 13.5547 4.55474
      vertex 17.9058 14.2539 0
      vertex 17.6289 13.5547 0
    endloop
  endfacet
  facet normal -0.929746 0.368202 0
    outer loop
      vertex 17.9058 14.2539 0
      vertex 17.6289 13.5547 4.55474
      vertex 17.9058 14.2539 5.25393
    endloop
  endfacet
  facet normal -0.929746 0.368202 0
    outer loop
      vertex 17.6289 13.5547 7.44526
      vertex 17.9058 14.2539 12
      vertex 17.9058 14.2539 6.74607
    endloop
  endfacet
  facet normal -0.929746 0.368202 0
    outer loop
      vertex 17.9058 14.2539 12
      vertex 17.6289 13.5547 7.44526
      vertex 17.6289 13.5547 12
    endloop
  endfacet
  facet normal -0.187363 0.982291 0
    outer loop
      vertex 15.9271 12.1468 0
      vertex 15.1884 12.0059 3.00592
      vertex 15.9271 12.1468 3.14683
    endloop
  endfacet
  facet normal -0.187363 0.982291 0
    outer loop
      vertex 15.1884 12.0059 3.00592
      vertex 15.9271 12.1468 0
      vertex 15.1884 12.0059 0
    endloop
  endfacet
  facet normal -0.187363 0.982291 0
    outer loop
      vertex 15.9271 12.1468 12
      vertex 15.1884 12.0059 8.99408
      vertex 15.1884 12.0059 12
    endloop
  endfacet
  facet normal -0.187363 0.982291 0
    outer loop
      vertex 15.1884 12.0059 8.99408
      vertex 15.9271 12.1468 12
      vertex 15.9271 12.1468 8.85317
    endloop
  endfacet
  facet normal 0.876356 -0.481663 0
    outer loop
      vertex 12.2107 16.1044 12
      vertex 12.5729 16.7634 0
      vertex 12.5729 16.7634 12
    endloop
  endfacet
  facet normal 0.876356 -0.481663 0
    outer loop
      vertex 12.5729 16.7634 0
      vertex 12.2107 16.1044 12
      vertex 12.2107 16.1044 0
    endloop
  endfacet
  facet normal -0.808989 -0.587824 0
    outer loop
      vertex 17.6289 16.4453 0
      vertex 17.1869 17.0536 12
      vertex 17.1869 17.0536 0
    endloop
  endfacet
  facet normal -0.808989 -0.587824 0
    outer loop
      vertex 17.1869 17.0536 12
      vertex 17.6289 16.4453 0
      vertex 17.6289 16.4453 12
    endloop
  endfacet
  facet normal 0.876356 0.481663 0
    outer loop
      vertex 12.5729 13.2366 4.23664
      vertex 12.2107 13.8956 0
      vertex 12.2107 13.8956 4.89563
    endloop
  endfacet
  facet normal 0.876356 0.481663 0
    outer loop
      vertex 12.2107 13.8956 0
      vertex 12.5729 13.2366 4.23664
      vertex 12.5729 13.2366 0
    endloop
  endfacet
  facet normal 0.876356 0.481663 -0
    outer loop
      vertex 12.5729 13.2366 7.76336
      vertex 12.2107 13.8956 12
      vertex 12.5729 13.2366 12
    endloop
  endfacet
  facet normal 0.876356 0.481663 0
    outer loop
      vertex 12.2107 13.8956 12
      vertex 12.5729 13.2366 7.76336
      vertex 12.2107 13.8956 7.10437
    endloop
  endfacet
  facet normal 1 -0 0
    outer loop
      vertex 12.0237 14.624 12
      vertex 12.0237 15.376 0
      vertex 12.0237 15.376 12
    endloop
  endfacet
  facet normal 1 0 0
    outer loop
      vertex 12.0237 15.376 0
      vertex 12.0237 14.624 12
      vertex 12.0237 14.624 0
    endloop
  endfacet
  facet normal -0.808989 0.587824 0
    outer loop
      vertex 17.1869 12.9464 3.94636
      vertex 17.6289 13.5547 0
      vertex 17.1869 12.9464 0
    endloop
  endfacet
  facet normal -0.808989 0.587824 0
    outer loop
      vertex 17.6289 13.5547 0
      vertex 17.1869 12.9464 3.94636
      vertex 17.6289 13.5547 4.55474
    endloop
  endfacet
  facet normal -0.808989 0.587824 0
    outer loop
      vertex 17.1869 12.9464 8.05364
      vertex 17.6289 13.5547 12
      vertex 17.6289 13.5547 7.44526
    endloop
  endfacet
  facet normal -0.808989 0.587824 0
    outer loop
      vertex 17.6289 13.5547 12
      vertex 17.1869 12.9464 8.05364
      vertex 17.1869 12.9464 12
    endloop
  endfacet
  facet normal 0.96859 -0.248663 0
    outer loop
      vertex 12.0237 15.376 12
      vertex 12.2107 16.1044 0
      vertex 12.2107 16.1044 12
    endloop
  endfacet
  facet normal 0.96859 -0.248663 0
    outer loop
      vertex 12.2107 16.1044 0
      vertex 12.0237 15.376 12
      vertex 12.0237 15.376 0
    endloop
  endfacet
  facet normal -0.42581 -0.904813 0
    outer loop
      vertex 15.9271 17.8532 0
      vertex 16.6075 17.533 12
      vertex 15.9271 17.8532 12
    endloop
  endfacet
  facet normal -0.42581 -0.904813 -0
    outer loop
      vertex 16.6075 17.533 12
      vertex 15.9271 17.8532 0
      vertex 16.6075 17.533 0
    endloop
  endfacet
  facet normal -0.637486 -0.770462 0
    outer loop
      vertex 16.6075 17.533 0
      vertex 17.1869 17.0536 12
      vertex 16.6075 17.533 12
    endloop
  endfacet
  facet normal -0.637486 -0.770462 -0
    outer loop
      vertex 17.1869 17.0536 12
      vertex 16.6075 17.533 0
      vertex 17.1869 17.0536 0
    endloop
  endfacet
  facet normal 0.0627674 -0.998028 0
    outer loop
      vertex 14.4379 17.9469 0
      vertex 15.1884 17.9941 12
      vertex 14.4379 17.9469 12
    endloop
  endfacet
  facet normal 0.0627674 -0.998028 0
    outer loop
      vertex 15.1884 17.9941 12
      vertex 14.4379 17.9469 0
      vertex 15.1884 17.9941 0
    endloop
  endfacet
  facet normal -0.187363 -0.982291 0
    outer loop
      vertex 15.1884 17.9941 0
      vertex 15.9271 17.8532 12
      vertex 15.1884 17.9941 12
    endloop
  endfacet
  facet normal -0.187363 -0.982291 -0
    outer loop
      vertex 15.9271 17.8532 12
      vertex 15.1884 17.9941 0
      vertex 15.9271 17.8532 0
    endloop
  endfacet
endsolid OpenSCAD_Model
