solid OpenSCAD_Model
  facet normal -0.368123 0.929777 0
    outer loop
      vertex -3.74345 5.84291 -9
      vertex -4.90877 5.38153 0
      vertex -3.74345 5.84291 0
    endloop
  endfacet
  facet normal -0.368123 0.929777 0
    outer loop
      vertex -4.90877 5.38153 0
      vertex -3.74345 5.84291 -9
      vertex -4.90877 5.38153 -9
    endloop
  endfacet
  facet normal -0.987688 0.156436 0
    outer loop
      vertex -7.5 1 -9
      vertex -7.25528 2.54509 0
      vertex -7.25528 2.54509 -9
    endloop
  endfacet
  facet normal -0.987688 0.156436 0
    outer loop
      vertex -7.25528 2.54509 0
      vertex -7.5 1 -9
      vertex -7.5 1 0
    endloop
  endfacet
  facet normal -0.904825 0.425784 0
    outer loop
      vertex -7.25528 2.54509 -9
      vertex -6.72163 3.67914 0
      vertex -6.72163 3.67914 -9
    endloop
  endfacet
  facet normal -0.904825 0.425784 0
    outer loop
      vertex -6.72163 3.67914 0
      vertex -7.25528 2.54509 -9
      vertex -7.25528 2.54509 0
    endloop
  endfacet
  facet normal 0 0 -1
    outer loop
      vertex 5 -5.5 -9
      vertex 7.5 1 -9
      vertex 7.5 -13.5 -9
    endloop
  endfacet
  facet normal 0 0 -1
    outer loop
      vertex 2.90575 -0.746069 -9
      vertex 7.5 1 -9
      vertex 5 -5.5 -9
    endloop
  endfacet
  facet normal 0 -0 -1
    outer loop
      vertex 3 0 -9
      vertex 7.5 1 -9
      vertex 2.90575 -0.746069 -9
    endloop
  endfacet
  facet normal 0 0 -1
    outer loop
      vertex 2.90575 0.746069 -9
      vertex 7.5 1 -9
      vertex 3 0 -9
    endloop
  endfacet
  facet normal 0 0 -1
    outer loop
      vertex 5 -5.5 -9
      vertex 7.5 -13.5 -9
      vertex 5 -10.5 -9
    endloop
  endfacet
  facet normal 0 0 -1
    outer loop
      vertex 7.5 -13.5 -9
      vertex -5 -10.5 -9
      vertex 5 -10.5 -9
    endloop
  endfacet
  facet normal 0 0 -1
    outer loop
      vertex -7.5 -13.5 -9
      vertex -5 -5.5 -9
      vertex -5 -10.5 -9
    endloop
  endfacet
  facet normal 0 0 -1
    outer loop
      vertex -5 -5.5 -9
      vertex -7.5 1 -9
      vertex -5.92273 4.64484 -9
    endloop
  endfacet
  facet normal 0 0 -1
    outer loop
      vertex -5.92273 4.64484 -9
      vertex -7.5 1 -9
      vertex -6.72163 3.67914 -9
    endloop
  endfacet
  facet normal 0 0 -1
    outer loop
      vertex -7.5 -13.5 -9
      vertex -5 -10.5 -9
      vertex 7.5 -13.5 -9
    endloop
  endfacet
  facet normal -0 0 -1
    outer loop
      vertex -5 -5.5 -9
      vertex -7.5 -13.5 -9
      vertex -7.5 1 -9
    endloop
  endfacet
  facet normal 0 0 -1
    outer loop
      vertex -6.72163 3.67914 -9
      vertex -7.5 1 -9
      vertex -7.25528 2.54509 -9
    endloop
  endfacet
  facet normal -0 0 -1
    outer loop
      vertex 7.34291 2.24345 -9
      vertex 2.90575 0.746069 -9
      vertex 6.88153 3.40877 -9
    endloop
  endfacet
  facet normal 0 0 -1
    outer loop
      vertex 2.62892 1.44526 -9
      vertex 6.88153 3.40877 -9
      vertex 2.90575 0.746069 -9
    endloop
  endfacet
  facet normal -0 0 -1
    outer loop
      vertex 6.88153 3.40877 -9
      vertex 2.62892 1.44526 -9
      vertex 6.14484 4.42273 -9
    endloop
  endfacet
  facet normal -0 0 -1
    outer loop
      vertex 7.5 1 -9
      vertex 2.90575 0.746069 -9
      vertex 7.34291 2.24345 -9
    endloop
  endfacet
  facet normal 0 0 -1
    outer loop
      vertex 5 -5.5 -9
      vertex 2.62892 -1.44526 -9
      vertex 2.90575 -0.746069 -9
    endloop
  endfacet
  facet normal 0 0 -1
    outer loop
      vertex 5 -5.5 -9
      vertex 2.18691 -2.05364 -9
      vertex 2.62892 -1.44526 -9
    endloop
  endfacet
  facet normal 0 0 -1
    outer loop
      vertex 5 -5.5 -9
      vertex 1.60748 -2.53298 -9
      vertex 2.18691 -2.05364 -9
    endloop
  endfacet
  facet normal 0 0 -1
    outer loop
      vertex 5 -5.5 -9
      vertex 0.927051 -2.85317 -9
      vertex 1.60748 -2.53298 -9
    endloop
  endfacet
  facet normal 0 0 -1
    outer loop
      vertex 5 -5.5 -9
      vertex 0.188371 -2.99408 -9
      vertex 0.927051 -2.85317 -9
    endloop
  endfacet
  facet normal 0 0 -1
    outer loop
      vertex -5 -5.5 -9
      vertex 0.188371 -2.99408 -9
      vertex 5 -5.5 -9
    endloop
  endfacet
  facet normal -0 0 -1
    outer loop
      vertex 0.188371 -2.99408 -9
      vertex -5 -5.5 -9
      vertex -0.562143 -2.94686 -9
    endloop
  endfacet
  facet normal 0 0 -1
    outer loop
      vertex -5.92273 4.64484 -9
      vertex -2.97634 0.375999 -9
      vertex -2.97634 -0.375999 -9
    endloop
  endfacet
  facet normal 0 0 -1
    outer loop
      vertex -2.97634 0.375999 -9
      vertex -4.90877 5.38153 -9
      vertex -3.74345 5.84291 -9
    endloop
  endfacet
  facet normal 0 0 -1
    outer loop
      vertex -5 -5.5 -9
      vertex -2.97634 -0.375999 -9
      vertex -2.78933 -1.10437 -9
    endloop
  endfacet
  facet normal -0 0 -1
    outer loop
      vertex -0.562143 -2.94686 -9
      vertex -5 -5.5 -9
      vertex -1.27734 -2.71448 -9
    endloop
  endfacet
  facet normal 0 0 -1
    outer loop
      vertex -5 -5.5 -9
      vertex -1.91227 -2.31154 -9
      vertex -1.27734 -2.71448 -9
    endloop
  endfacet
  facet normal 0 0 -1
    outer loop
      vertex -5 -5.5 -9
      vertex -2.42705 -1.76336 -9
      vertex -1.91227 -2.31154 -9
    endloop
  endfacet
  facet normal 0 0 -1
    outer loop
      vertex -5 -5.5 -9
      vertex -2.78933 -1.10437 -9
      vertex -2.42705 -1.76336 -9
    endloop
  endfacet
  facet normal -0 0 -1
    outer loop
      vertex -2.97634 -0.375999 -9
      vertex -5 -5.5 -9
      vertex -5.92273 4.64484 -9
    endloop
  endfacet
  facet normal 0 0 -1
    outer loop
      vertex -2.97634 0.375999 -9
      vertex -5.92273 4.64484 -9
      vertex -4.90877 5.38153 -9
    endloop
  endfacet
  facet normal -0 0 -1
    outer loop
      vertex 6.14484 4.42273 -9
      vertex 2.62892 1.44526 -9
      vertex 5.17914 5.22163 -9
    endloop
  endfacet
  facet normal 0 0 -1
    outer loop
      vertex 2.18691 2.05364 -9
      vertex 5.17914 5.22163 -9
      vertex 2.62892 1.44526 -9
    endloop
  endfacet
  facet normal -0 0 -1
    outer loop
      vertex 5.17914 5.22163 -9
      vertex 2.18691 2.05364 -9
      vertex 4.04509 5.75528 -9
    endloop
  endfacet
  facet normal 0 0 -1
    outer loop
      vertex 1.60748 2.53298 -9
      vertex 4.04509 5.75528 -9
      vertex 2.18691 2.05364 -9
    endloop
  endfacet
  facet normal -0 0 -1
    outer loop
      vertex 4.04509 5.75528 -9
      vertex 1.60748 2.53298 -9
      vertex 2.5 6 -9
    endloop
  endfacet
  facet normal 0 0 -1
    outer loop
      vertex 0.927051 2.85317 -9
      vertex 2.5 6 -9
      vertex 1.60748 2.53298 -9
    endloop
  endfacet
  facet normal 0 0 -1
    outer loop
      vertex 0.927051 2.85317 -9
      vertex 0.5 6 -9
      vertex 2.5 6 -9
    endloop
  endfacet
  facet normal 0 0 -1
    outer loop
      vertex 0.188371 2.99408 -9
      vertex 0.5 6 -9
      vertex 0.927051 2.85317 -9
    endloop
  endfacet
  facet normal 0 0 -1
    outer loop
      vertex 0.188371 2.99408 -9
      vertex -0.0562888 5.92972 -9
      vertex 0.5 6 -9
    endloop
  endfacet
  facet normal 0 0 -1
    outer loop
      vertex -0.562143 2.94686 -9
      vertex -0.0562888 5.92972 -9
      vertex 0.188371 2.99408 -9
    endloop
  endfacet
  facet normal -0 0 -1
    outer loop
      vertex -0.0562888 5.92972 -9
      vertex -0.562143 2.94686 -9
      vertex -0.5 6 -9
    endloop
  endfacet
  facet normal 0 0 -1
    outer loop
      vertex -1.27734 2.71448 -9
      vertex -0.5 6 -9
      vertex -0.562143 2.94686 -9
    endloop
  endfacet
  facet normal 0 0 -1
    outer loop
      vertex -2.5 6 -9
      vertex -1.27734 2.71448 -9
      vertex -1.91227 2.31154 -9
    endloop
  endfacet
  facet normal 0 0 -1
    outer loop
      vertex -3.74345 5.84291 -9
      vertex -1.91227 2.31154 -9
      vertex -2.42705 1.76336 -9
    endloop
  endfacet
  facet normal 0 0 -1
    outer loop
      vertex -1.27734 2.71448 -9
      vertex -2.5 6 -9
      vertex -0.5 6 -9
    endloop
  endfacet
  facet normal 0 0 -1
    outer loop
      vertex -3.74345 5.84291 -9
      vertex -2.42705 1.76336 -9
      vertex -2.78933 1.10437 -9
    endloop
  endfacet
  facet normal 0 0 -1
    outer loop
      vertex -3.74345 5.84291 -9
      vertex -2.78933 1.10437 -9
      vertex -2.97634 0.375999 -9
    endloop
  endfacet
  facet normal 0 0 -1
    outer loop
      vertex -1.91227 2.31154 -9
      vertex -3.74345 5.84291 -9
      vertex -2.5 6 -9
    endloop
  endfacet
  facet normal 0.156441 0.987687 -0
    outer loop
      vertex -0.0562888 5.92972 -9
      vertex -0.5 6 0
      vertex -0.0562888 5.92972 0
    endloop
  endfacet
  facet normal 0.156441 0.987687 0
    outer loop
      vertex -0.5 6 0
      vertex -0.0562888 5.92972 -9
      vertex -0.5 6 -9
    endloop
  endfacet
  facet normal -0.770512 0.637426 0
    outer loop
      vertex -6.72163 3.67914 -9
      vertex -5.92273 4.64484 0
      vertex -5.92273 4.64484 -9
    endloop
  endfacet
  facet normal -0.770512 0.637426 0
    outer loop
      vertex -5.92273 4.64484 0
      vertex -6.72163 3.67914 -9
      vertex -6.72163 3.67914 0
    endloop
  endfacet
  facet normal -1 0 0
    outer loop
      vertex -7.5 -13.5 -9
      vertex -7.5 1 0
      vertex -7.5 1 -9
    endloop
  endfacet
  facet normal -1 -0 0
    outer loop
      vertex -7.5 1 0
      vertex -7.5 -13.5 -9
      vertex -7.5 -13.5 0
    endloop
  endfacet
  facet normal 0 0 1
    outer loop
      vertex 7.5 1 0
      vertex 2.90575 0.746069 0
      vertex 3 0 0
    endloop
  endfacet
  facet normal 0 0 1
    outer loop
      vertex 5.17914 5.22163 0
      vertex 2.62892 1.44526 0
      vertex 2.90575 0.746069 0
    endloop
  endfacet
  facet normal 0 0 1
    outer loop
      vertex 1.60748 2.53298 0
      vertex 4.04509 5.75528 0
      vertex 2.5 6 0
    endloop
  endfacet
  facet normal 0 0 1
    outer loop
      vertex 5.17914 5.22163 0
      vertex 2.18691 2.05364 0
      vertex 2.62892 1.44526 0
    endloop
  endfacet
  facet normal 0 0 1
    outer loop
      vertex 4.04509 5.75528 0
      vertex 1.60748 2.53298 0
      vertex 2.18691 2.05364 0
    endloop
  endfacet
  facet normal 0 0 1
    outer loop
      vertex 2.5 6 0
      vertex 0.927051 2.85317 0
      vertex 1.60748 2.53298 0
    endloop
  endfacet
  facet normal -0 0 1
    outer loop
      vertex 0.5 6 0
      vertex 0.927051 2.85317 0
      vertex 2.5 6 0
    endloop
  endfacet
  facet normal 0 0 1
    outer loop
      vertex 0.5 6 0
      vertex 0.188371 2.99408 0
      vertex 0.927051 2.85317 0
    endloop
  endfacet
  facet normal -0 0 1
    outer loop
      vertex -0.0562888 5.92972 0
      vertex 0.188371 2.99408 0
      vertex 0.5 6 0
    endloop
  endfacet
  facet normal 0 0 1
    outer loop
      vertex -0.562143 2.94686 0
      vertex -0.0562888 5.92972 0
      vertex -0.5 6 0
    endloop
  endfacet
  facet normal 0 0 1
    outer loop
      vertex -0.0562888 5.92972 0
      vertex -0.562143 2.94686 0
      vertex 0.188371 2.99408 0
    endloop
  endfacet
  facet normal 0 0 1
    outer loop
      vertex -0.5 6 0
      vertex -1.27734 2.71448 0
      vertex -0.562143 2.94686 0
    endloop
  endfacet
  facet normal -0 0 1
    outer loop
      vertex -2.5 6 0
      vertex -1.27734 2.71448 0
      vertex -0.5 6 0
    endloop
  endfacet
  facet normal 0 0 1
    outer loop
      vertex -1.27734 2.71448 0
      vertex -2.5 6 0
      vertex -1.91227 2.31154 0
    endloop
  endfacet
  facet normal -0 0 1
    outer loop
      vertex -3.74345 5.84291 0
      vertex -1.91227 2.31154 0
      vertex -2.5 6 0
    endloop
  endfacet
  facet normal -0 0 1
    outer loop
      vertex -4.90877 5.38153 0
      vertex -1.91227 2.31154 0
      vertex -3.74345 5.84291 0
    endloop
  endfacet
  facet normal 0 0 1
    outer loop
      vertex -1.91227 2.31154 0
      vertex -4.90877 5.38153 0
      vertex -2.42705 1.76336 0
    endloop
  endfacet
  facet normal -0 0 1
    outer loop
      vertex -6.72163 3.67914 0
      vertex -2.42705 1.76336 0
      vertex -5.92273 4.64484 0
    endloop
  endfacet
  facet normal -0 0 1
    outer loop
      vertex -5.92273 4.64484 0
      vertex -2.42705 1.76336 0
      vertex -4.90877 5.38153 0
    endloop
  endfacet
  facet normal 0 0 1
    outer loop
      vertex 2.90575 0.746069 0
      vertex 7.5 1 0
      vertex 7.34291 2.24345 0
    endloop
  endfacet
  facet normal 0 0 1
    outer loop
      vertex 2.90575 -0.746069 0
      vertex 7.5 1 0
      vertex 3 0 0
    endloop
  endfacet
  facet normal 0 0 1
    outer loop
      vertex 7.5 1 0
      vertex 2.90575 -0.746069 0
      vertex 5 -5.5 0
    endloop
  endfacet
  facet normal -0 0 1
    outer loop
      vertex 2.62892 -1.44526 0
      vertex 5 -5.5 0
      vertex 2.90575 -0.746069 0
    endloop
  endfacet
  facet normal -0 0 1
    outer loop
      vertex 2.18691 -2.05364 0
      vertex 5 -5.5 0
      vertex 2.62892 -1.44526 0
    endloop
  endfacet
  facet normal -0 0 1
    outer loop
      vertex 1.60748 -2.53298 0
      vertex 5 -5.5 0
      vertex 2.18691 -2.05364 0
    endloop
  endfacet
  facet normal -0 0 1
    outer loop
      vertex 0.927051 -2.85317 0
      vertex 5 -5.5 0
      vertex 1.60748 -2.53298 0
    endloop
  endfacet
  facet normal -0 0 1
    outer loop
      vertex 0.188371 -2.99408 0
      vertex 5 -5.5 0
      vertex 0.927051 -2.85317 0
    endloop
  endfacet
  facet normal 0 0 1
    outer loop
      vertex -5 -5.5 0
      vertex 0.188371 -2.99408 0
      vertex -0.562143 -2.94686 0
    endloop
  endfacet
  facet normal 0 0 1
    outer loop
      vertex -5 -5.5 0
      vertex -0.562143 -2.94686 0
      vertex -1.27734 -2.71448 0
    endloop
  endfacet
  facet normal 0 0 1
    outer loop
      vertex -2.42705 1.76336 0
      vertex -6.72163 3.67914 0
      vertex -2.78933 1.10437 0
    endloop
  endfacet
  facet normal -0 0 1
    outer loop
      vertex -7.25528 2.54509 0
      vertex -2.78933 1.10437 0
      vertex -6.72163 3.67914 0
    endloop
  endfacet
  facet normal 0 0 1
    outer loop
      vertex 0.188371 -2.99408 0
      vertex -5 -5.5 0
      vertex 5 -5.5 0
    endloop
  endfacet
  facet normal 0 0 1
    outer loop
      vertex -1.91227 -2.31154 0
      vertex -5 -5.5 0
      vertex -1.27734 -2.71448 0
    endloop
  endfacet
  facet normal 0 0 1
    outer loop
      vertex -2.42705 -1.76336 0
      vertex -5 -5.5 0
      vertex -1.91227 -2.31154 0
    endloop
  endfacet
  facet normal 0 0 1
    outer loop
      vertex -2.78933 -1.10437 0
      vertex -5 -5.5 0
      vertex -2.42705 -1.76336 0
    endloop
  endfacet
  facet normal 0 0 1
    outer loop
      vertex -7.5 1 0
      vertex -2.78933 1.10437 0
      vertex -7.25528 2.54509 0
    endloop
  endfacet
  facet normal 0 0 1
    outer loop
      vertex -2.78933 -1.10437 0
      vertex -7.5 1 0
      vertex -5 -5.5 0
    endloop
  endfacet
  facet normal 0 0 1
    outer loop
      vertex -2.78933 1.10437 0
      vertex -7.5 1 0
      vertex -2.97634 0.375999 0
    endloop
  endfacet
  facet normal 0 0 1
    outer loop
      vertex 2.90575 0.746069 0
      vertex 7.34291 2.24345 0
      vertex 6.88153 3.40877 0
    endloop
  endfacet
  facet normal 0 0 1
    outer loop
      vertex 2.90575 0.746069 0
      vertex 6.88153 3.40877 0
      vertex 6.14484 4.42273 0
    endloop
  endfacet
  facet normal 0 0 1
    outer loop
      vertex 2.90575 0.746069 0
      vertex 6.14484 4.42273 0
      vertex 5.17914 5.22163 0
    endloop
  endfacet
  facet normal 0 0 1
    outer loop
      vertex 2.18691 2.05364 0
      vertex 5.17914 5.22163 0
      vertex 4.04509 5.75528 0
    endloop
  endfacet
  facet normal 0 0 1
    outer loop
      vertex 7.5 1 0
      vertex 5 -5.5 0
      vertex 7.5 -13.5 0
    endloop
  endfacet
  facet normal -0 0 1
    outer loop
      vertex 5 -10.5 0
      vertex 7.5 -13.5 0
      vertex 5 -5.5 0
    endloop
  endfacet
  facet normal -0 0 1
    outer loop
      vertex -5 -10.5 0
      vertex 7.5 -13.5 0
      vertex 5 -10.5 0
    endloop
  endfacet
  facet normal 0 0 1
    outer loop
      vertex -2.97634 0.375999 0
      vertex -7.5 1 0
      vertex -2.97634 -0.375999 0
    endloop
  endfacet
  facet normal 0 0 1
    outer loop
      vertex -2.97634 -0.375999 0
      vertex -7.5 1 0
      vertex -2.78933 -1.10437 0
    endloop
  endfacet
  facet normal 0 0 1
    outer loop
      vertex -7.5 -13.5 0
      vertex -5 -5.5 0
      vertex -7.5 1 0
    endloop
  endfacet
  facet normal 0 0 1
    outer loop
      vertex -5 -10.5 0
      vertex -7.5 -13.5 0
      vertex 7.5 -13.5 0
    endloop
  endfacet
  facet normal 0 0 1
    outer loop
      vertex -5 -5.5 0
      vertex -7.5 -13.5 0
      vertex -5 -10.5 0
    endloop
  endfacet
  facet normal 0 1 -0
    outer loop
      vertex -0.5 6 -9
      vertex -2.5 6 0
      vertex -0.5 6 0
    endloop
  endfacet
  facet normal 0 1 0
    outer loop
      vertex -2.5 6 0
      vertex -0.5 6 -9
      vertex -2.5 6 -9
    endloop
  endfacet
  facet normal -0.125338 0.992114 0
    outer loop
      vertex -2.5 6 -9
      vertex -3.74345 5.84291 0
      vertex -2.5 6 0
    endloop
  endfacet
  facet normal -0.125338 0.992114 0
    outer loop
      vertex -3.74345 5.84291 0
      vertex -2.5 6 -9
      vertex -3.74345 5.84291 -9
    endloop
  endfacet
  facet normal -0.587788 0.809015 0
    outer loop
      vertex -4.90877 5.38153 -9
      vertex -5.92273 4.64484 0
      vertex -4.90877 5.38153 0
    endloop
  endfacet
  facet normal -0.587788 0.809015 0
    outer loop
      vertex -5.92273 4.64484 0
      vertex -4.90877 5.38153 -9
      vertex -5.92273 4.64484 -9
    endloop
  endfacet
  facet normal 0.637426 0.770512 -0
    outer loop
      vertex 6.14484 4.42273 -9
      vertex 5.17914 5.22163 0
      vertex 6.14484 4.42273 0
    endloop
  endfacet
  facet normal 0.637426 0.770512 0
    outer loop
      vertex 5.17914 5.22163 0
      vertex 6.14484 4.42273 -9
      vertex 5.17914 5.22163 -9
    endloop
  endfacet
  facet normal 0.156436 0.987688 -0
    outer loop
      vertex 4.04509 5.75528 -9
      vertex 2.5 6 0
      vertex 4.04509 5.75528 0
    endloop
  endfacet
  facet normal 0.156436 0.987688 0
    outer loop
      vertex 2.5 6 0
      vertex 4.04509 5.75528 -9
      vertex 2.5 6 -9
    endloop
  endfacet
  facet normal 0.425784 0.904825 -0
    outer loop
      vertex 5.17914 5.22163 -9
      vertex 4.04509 5.75528 0
      vertex 5.17914 5.22163 0
    endloop
  endfacet
  facet normal 0.425784 0.904825 0
    outer loop
      vertex 4.04509 5.75528 0
      vertex 5.17914 5.22163 -9
      vertex 4.04509 5.75528 -9
    endloop
  endfacet
  facet normal 0 1 -0
    outer loop
      vertex 2.5 6 -9
      vertex 0.5 6 0
      vertex 2.5 6 0
    endloop
  endfacet
  facet normal 0 1 0
    outer loop
      vertex 0.5 6 0
      vertex 2.5 6 -9
      vertex 0.5 6 -9
    endloop
  endfacet
  facet normal -0.125341 0.992114 0
    outer loop
      vertex 0.5 6 -9
      vertex -0.0562888 5.92972 0
      vertex 0.5 6 0
    endloop
  endfacet
  facet normal -0.125341 0.992114 0
    outer loop
      vertex -0.0562888 5.92972 0
      vertex 0.5 6 -9
      vertex -0.0562888 5.92972 -9
    endloop
  endfacet
  facet normal 0.992114 0.125338 0
    outer loop
      vertex 7.5 1 0
      vertex 7.34291 2.24345 -9
      vertex 7.34291 2.24345 0
    endloop
  endfacet
  facet normal 0.992114 0.125338 0
    outer loop
      vertex 7.34291 2.24345 -9
      vertex 7.5 1 0
      vertex 7.5 1 -9
    endloop
  endfacet
  facet normal 0.929777 0.368123 0
    outer loop
      vertex 7.34291 2.24345 0
      vertex 6.88153 3.40877 -9
      vertex 6.88153 3.40877 0
    endloop
  endfacet
  facet normal 0.929777 0.368123 0
    outer loop
      vertex 6.88153 3.40877 -9
      vertex 7.34291 2.24345 0
      vertex 7.34291 2.24345 -9
    endloop
  endfacet
  facet normal 1 -0 0
    outer loop
      vertex 7.5 -13.5 0
      vertex 7.5 1 -9
      vertex 7.5 1 0
    endloop
  endfacet
  facet normal 1 0 0
    outer loop
      vertex 7.5 1 -9
      vertex 7.5 -13.5 0
      vertex 7.5 -13.5 -9
    endloop
  endfacet
  facet normal 0.809015 0.587788 0
    outer loop
      vertex 6.88153 3.40877 0
      vertex 6.14484 4.42273 -9
      vertex 6.14484 4.42273 0
    endloop
  endfacet
  facet normal 0.809015 0.587788 0
    outer loop
      vertex 6.14484 4.42273 -9
      vertex 6.88153 3.40877 0
      vertex 6.88153 3.40877 -9
    endloop
  endfacet
  facet normal 0 -1 0
    outer loop
      vertex -7.5 -13.5 0
      vertex 0.188371 -13.5 -1.50592
      vertex 7.5 -13.5 0
    endloop
  endfacet
  facet normal 0 -1 0
    outer loop
      vertex -7.5 -13.5 0
      vertex -0.562143 -13.5 -1.55314
      vertex 0.188371 -13.5 -1.50592
    endloop
  endfacet
  facet normal 0 -1 0
    outer loop
      vertex -7.5 -13.5 0
      vertex -1.27734 -13.5 -1.78552
      vertex -0.562143 -13.5 -1.55314
    endloop
  endfacet
  facet normal 0 -1 0
    outer loop
      vertex -7.5 -13.5 0
      vertex -1.91227 -13.5 -2.18846
      vertex -1.27734 -13.5 -1.78552
    endloop
  endfacet
  facet normal 0 -1 0
    outer loop
      vertex -7.5 -13.5 0
      vertex -2.42705 -13.5 -2.73664
      vertex -1.91227 -13.5 -2.18846
    endloop
  endfacet
  facet normal 0 -1 0
    outer loop
      vertex -7.5 -13.5 0
      vertex -2.78933 -13.5 -3.39563
      vertex -2.42705 -13.5 -2.73664
    endloop
  endfacet
  facet normal 0 -1 0
    outer loop
      vertex -7.5 -13.5 0
      vertex -2.97634 -13.5 -4.124
      vertex -2.78933 -13.5 -3.39563
    endloop
  endfacet
  facet normal 0 -1 0
    outer loop
      vertex -7.5 -13.5 0
      vertex -2.97634 -13.5 -4.876
      vertex -2.97634 -13.5 -4.124
    endloop
  endfacet
  facet normal 0 -1 0
    outer loop
      vertex -7.5 -13.5 -9
      vertex -2.97634 -13.5 -4.876
      vertex -7.5 -13.5 0
    endloop
  endfacet
  facet normal 0 -1 -0
    outer loop
      vertex -2.97634 -13.5 -4.876
      vertex -7.5 -13.5 -9
      vertex -2.78933 -13.5 -5.60437
    endloop
  endfacet
  facet normal 0 -1 -0
    outer loop
      vertex -0.562143 -13.5 -7.44686
      vertex -7.5 -13.5 -9
      vertex 0.188371 -13.5 -7.49408
    endloop
  endfacet
  facet normal 0 -1 -0
    outer loop
      vertex -1.27734 -13.5 -7.21448
      vertex -7.5 -13.5 -9
      vertex -0.562143 -13.5 -7.44686
    endloop
  endfacet
  facet normal 0 -1 -0
    outer loop
      vertex -1.91227 -13.5 -6.81154
      vertex -7.5 -13.5 -9
      vertex -1.27734 -13.5 -7.21448
    endloop
  endfacet
  facet normal 0 -1 -0
    outer loop
      vertex -2.42705 -13.5 -6.26336
      vertex -7.5 -13.5 -9
      vertex -1.91227 -13.5 -6.81154
    endloop
  endfacet
  facet normal 0 -1 -0
    outer loop
      vertex -2.78933 -13.5 -5.60437
      vertex -7.5 -13.5 -9
      vertex -2.42705 -13.5 -6.26336
    endloop
  endfacet
  facet normal 0 -1 0
    outer loop
      vertex 0.927051 -13.5 -1.64683
      vertex 7.5 -13.5 0
      vertex 0.188371 -13.5 -1.50592
    endloop
  endfacet
  facet normal 0 -1 0
    outer loop
      vertex 1.60748 -13.5 -1.96702
      vertex 7.5 -13.5 0
      vertex 0.927051 -13.5 -1.64683
    endloop
  endfacet
  facet normal 0 -1 0
    outer loop
      vertex 2.18691 -13.5 -2.44636
      vertex 7.5 -13.5 0
      vertex 1.60748 -13.5 -1.96702
    endloop
  endfacet
  facet normal 0 -1 0
    outer loop
      vertex 2.62892 -13.5 -3.05474
      vertex 7.5 -13.5 0
      vertex 2.18691 -13.5 -2.44636
    endloop
  endfacet
  facet normal 0 -1 0
    outer loop
      vertex 2.90575 -13.5 -3.75393
      vertex 7.5 -13.5 0
      vertex 2.62892 -13.5 -3.05474
    endloop
  endfacet
  facet normal 0 -1 0
    outer loop
      vertex 3 -13.5 -4.5
      vertex 7.5 -13.5 0
      vertex 2.90575 -13.5 -3.75393
    endloop
  endfacet
  facet normal 0 -1 0
    outer loop
      vertex 7.5 -13.5 -9
      vertex 3 -13.5 -4.5
      vertex 2.90575 -13.5 -5.24607
    endloop
  endfacet
  facet normal 0 -1 0
    outer loop
      vertex 7.5 -13.5 -9
      vertex 2.90575 -13.5 -5.24607
      vertex 2.62892 -13.5 -5.94526
    endloop
  endfacet
  facet normal 0 -1 0
    outer loop
      vertex 7.5 -13.5 -9
      vertex 2.62892 -13.5 -5.94526
      vertex 2.18691 -13.5 -6.55364
    endloop
  endfacet
  facet normal 0 -1 0
    outer loop
      vertex 7.5 -13.5 -9
      vertex 0.188371 -13.5 -7.49408
      vertex -7.5 -13.5 -9
    endloop
  endfacet
  facet normal 0 -1 0
    outer loop
      vertex 3 -13.5 -4.5
      vertex 7.5 -13.5 -9
      vertex 7.5 -13.5 0
    endloop
  endfacet
  facet normal 0 -1 0
    outer loop
      vertex 1.60748 -13.5 -7.03298
      vertex 7.5 -13.5 -9
      vertex 2.18691 -13.5 -6.55364
    endloop
  endfacet
  facet normal 0 -1 0
    outer loop
      vertex 0.927051 -13.5 -7.35317
      vertex 7.5 -13.5 -9
      vertex 1.60748 -13.5 -7.03298
    endloop
  endfacet
  facet normal 0 -1 0
    outer loop
      vertex 0.188371 -13.5 -7.49408
      vertex 7.5 -13.5 -9
      vertex 0.927051 -13.5 -7.35317
    endloop
  endfacet
  facet normal 0 -1 0
    outer loop
      vertex -5 -5.5 0
      vertex 0.188371 -5.5 -1.50592
      vertex 5 -5.5 0
    endloop
  endfacet
  facet normal 0 -1 0
    outer loop
      vertex -5 -5.5 0
      vertex -0.562143 -5.5 -1.55314
      vertex 0.188371 -5.5 -1.50592
    endloop
  endfacet
  facet normal 0 -1 0
    outer loop
      vertex -5 -5.5 0
      vertex -1.27734 -5.5 -1.78552
      vertex -0.562143 -5.5 -1.55314
    endloop
  endfacet
  facet normal 0 -1 0
    outer loop
      vertex -5 -5.5 0
      vertex -1.91227 -5.5 -2.18846
      vertex -1.27734 -5.5 -1.78552
    endloop
  endfacet
  facet normal 0 -1 0
    outer loop
      vertex -5 -5.5 0
      vertex -2.42705 -5.5 -2.73664
      vertex -1.91227 -5.5 -2.18846
    endloop
  endfacet
  facet normal 0 -1 0
    outer loop
      vertex -5 -5.5 0
      vertex -2.78933 -5.5 -3.39563
      vertex -2.42705 -5.5 -2.73664
    endloop
  endfacet
  facet normal 0 -1 0
    outer loop
      vertex -5 -5.5 0
      vertex -2.97634 -5.5 -4.124
      vertex -2.78933 -5.5 -3.39563
    endloop
  endfacet
  facet normal 0 -1 0
    outer loop
      vertex -5 -5.5 0
      vertex -2.97634 -5.5 -4.876
      vertex -2.97634 -5.5 -4.124
    endloop
  endfacet
  facet normal 0 -1 0
    outer loop
      vertex -5 -5.5 -9
      vertex -2.97634 -5.5 -4.876
      vertex -5 -5.5 0
    endloop
  endfacet
  facet normal 0 -1 -0
    outer loop
      vertex -0.562143 -5.5 -7.44686
      vertex -5 -5.5 -9
      vertex 0.188371 -5.5 -7.49408
    endloop
  endfacet
  facet normal 0 -1 -0
    outer loop
      vertex -1.27734 -5.5 -7.21448
      vertex -5 -5.5 -9
      vertex -0.562143 -5.5 -7.44686
    endloop
  endfacet
  facet normal 0 -1 -0
    outer loop
      vertex -1.91227 -5.5 -6.81154
      vertex -5 -5.5 -9
      vertex -1.27734 -5.5 -7.21448
    endloop
  endfacet
  facet normal 0 -1 -0
    outer loop
      vertex -2.42705 -5.5 -6.26336
      vertex -5 -5.5 -9
      vertex -1.91227 -5.5 -6.81154
    endloop
  endfacet
  facet normal 0 -1 -0
    outer loop
      vertex -2.78933 -5.5 -5.60437
      vertex -5 -5.5 -9
      vertex -2.42705 -5.5 -6.26336
    endloop
  endfacet
  facet normal 0 -1 -0
    outer loop
      vertex -2.97634 -5.5 -4.876
      vertex -5 -5.5 -9
      vertex -2.78933 -5.5 -5.60437
    endloop
  endfacet
  facet normal 0 -1 0
    outer loop
      vertex 0.927051 -5.5 -1.64683
      vertex 5 -5.5 0
      vertex 0.188371 -5.5 -1.50592
    endloop
  endfacet
  facet normal 0 -1 0
    outer loop
      vertex 1.60748 -5.5 -1.96702
      vertex 5 -5.5 0
      vertex 0.927051 -5.5 -1.64683
    endloop
  endfacet
  facet normal 0 -1 0
    outer loop
      vertex 2.18691 -5.5 -2.44636
      vertex 5 -5.5 0
      vertex 1.60748 -5.5 -1.96702
    endloop
  endfacet
  facet normal 0 -1 0
    outer loop
      vertex 2.62892 -5.5 -3.05474
      vertex 5 -5.5 0
      vertex 2.18691 -5.5 -2.44636
    endloop
  endfacet
  facet normal 0 -1 0
    outer loop
      vertex 2.90575 -5.5 -3.75393
      vertex 5 -5.5 0
      vertex 2.62892 -5.5 -3.05474
    endloop
  endfacet
  facet normal 0 -1 0
    outer loop
      vertex 3 -5.5 -4.5
      vertex 5 -5.5 0
      vertex 2.90575 -5.5 -3.75393
    endloop
  endfacet
  facet normal 0 -1 0
    outer loop
      vertex 5 -5.5 -9
      vertex 3 -5.5 -4.5
      vertex 2.90575 -5.5 -5.24607
    endloop
  endfacet
  facet normal 0 -1 0
    outer loop
      vertex 5 -5.5 -9
      vertex 2.90575 -5.5 -5.24607
      vertex 2.62892 -5.5 -5.94526
    endloop
  endfacet
  facet normal 0 -1 0
    outer loop
      vertex 5 -5.5 -9
      vertex 0.188371 -5.5 -7.49408
      vertex -5 -5.5 -9
    endloop
  endfacet
  facet normal 0 -1 0
    outer loop
      vertex 3 -5.5 -4.5
      vertex 5 -5.5 -9
      vertex 5 -5.5 0
    endloop
  endfacet
  facet normal 0 -1 0
    outer loop
      vertex 2.18691 -5.5 -6.55364
      vertex 5 -5.5 -9
      vertex 2.62892 -5.5 -5.94526
    endloop
  endfacet
  facet normal 0 -1 0
    outer loop
      vertex 1.60748 -5.5 -7.03298
      vertex 5 -5.5 -9
      vertex 2.18691 -5.5 -6.55364
    endloop
  endfacet
  facet normal 0 -1 0
    outer loop
      vertex 0.927051 -5.5 -7.35317
      vertex 5 -5.5 -9
      vertex 1.60748 -5.5 -7.03298
    endloop
  endfacet
  facet normal 0 -1 0
    outer loop
      vertex 0.188371 -5.5 -7.49408
      vertex 5 -5.5 -9
      vertex 0.927051 -5.5 -7.35317
    endloop
  endfacet
  facet normal 1 -0 0
    outer loop
      vertex -5 -10.5 0
      vertex -5 -5.5 -9
      vertex -5 -5.5 0
    endloop
  endfacet
  facet normal 1 0 0
    outer loop
      vertex -5 -5.5 -9
      vertex -5 -10.5 0
      vertex -5 -10.5 -9
    endloop
  endfacet
  facet normal 0 1 0
    outer loop
      vertex 5 -10.5 0
      vertex 0.188371 -10.5 -1.50592
      vertex -5 -10.5 0
    endloop
  endfacet
  facet normal 0 1 0
    outer loop
      vertex 5 -10.5 0
      vertex 0.927051 -10.5 -1.64683
      vertex 0.188371 -10.5 -1.50592
    endloop
  endfacet
  facet normal 0 1 0
    outer loop
      vertex 5 -10.5 0
      vertex 1.60748 -10.5 -1.96702
      vertex 0.927051 -10.5 -1.64683
    endloop
  endfacet
  facet normal 0 1 0
    outer loop
      vertex 5 -10.5 0
      vertex 2.18691 -10.5 -2.44636
      vertex 1.60748 -10.5 -1.96702
    endloop
  endfacet
  facet normal 0 1 0
    outer loop
      vertex 5 -10.5 0
      vertex 2.62892 -10.5 -3.05474
      vertex 2.18691 -10.5 -2.44636
    endloop
  endfacet
  facet normal 0 1 0
    outer loop
      vertex 5 -10.5 0
      vertex 2.90575 -10.5 -3.75393
      vertex 2.62892 -10.5 -3.05474
    endloop
  endfacet
  facet normal 0 1 0
    outer loop
      vertex 5 -10.5 0
      vertex 3 -10.5 -4.5
      vertex 2.90575 -10.5 -3.75393
    endloop
  endfacet
  facet normal 0 1 -0
    outer loop
      vertex 5 -10.5 -9
      vertex 3 -10.5 -4.5
      vertex 5 -10.5 0
    endloop
  endfacet
  facet normal 0 1 0
    outer loop
      vertex 3 -10.5 -4.5
      vertex 5 -10.5 -9
      vertex 2.90575 -10.5 -5.24607
    endloop
  endfacet
  facet normal 0 1 0
    outer loop
      vertex 0.927051 -10.5 -7.35317
      vertex 5 -10.5 -9
      vertex 0.188371 -10.5 -7.49408
    endloop
  endfacet
  facet normal 0 1 0
    outer loop
      vertex 1.60748 -10.5 -7.03298
      vertex 5 -10.5 -9
      vertex 0.927051 -10.5 -7.35317
    endloop
  endfacet
  facet normal 0 1 0
    outer loop
      vertex 2.18691 -10.5 -6.55364
      vertex 5 -10.5 -9
      vertex 1.60748 -10.5 -7.03298
    endloop
  endfacet
  facet normal 0 1 0
    outer loop
      vertex 2.62892 -10.5 -5.94526
      vertex 5 -10.5 -9
      vertex 2.18691 -10.5 -6.55364
    endloop
  endfacet
  facet normal 0 1 0
    outer loop
      vertex 2.90575 -10.5 -5.24607
      vertex 5 -10.5 -9
      vertex 2.62892 -10.5 -5.94526
    endloop
  endfacet
  facet normal 0 1 -0
    outer loop
      vertex -0.562143 -10.5 -1.55314
      vertex -5 -10.5 0
      vertex 0.188371 -10.5 -1.50592
    endloop
  endfacet
  facet normal 0 1 -0
    outer loop
      vertex -1.27734 -10.5 -1.78552
      vertex -5 -10.5 0
      vertex -0.562143 -10.5 -1.55314
    endloop
  endfacet
  facet normal 0 1 -0
    outer loop
      vertex -1.91227 -10.5 -2.18846
      vertex -5 -10.5 0
      vertex -1.27734 -10.5 -1.78552
    endloop
  endfacet
  facet normal 0 1 -0
    outer loop
      vertex -2.42705 -10.5 -2.73664
      vertex -5 -10.5 0
      vertex -1.91227 -10.5 -2.18846
    endloop
  endfacet
  facet normal 0 1 -0
    outer loop
      vertex -2.78933 -10.5 -3.39563
      vertex -5 -10.5 0
      vertex -2.42705 -10.5 -2.73664
    endloop
  endfacet
  facet normal 0 1 -0
    outer loop
      vertex -2.97634 -10.5 -4.124
      vertex -5 -10.5 0
      vertex -2.78933 -10.5 -3.39563
    endloop
  endfacet
  facet normal 0 1 -0
    outer loop
      vertex -2.97634 -10.5 -4.876
      vertex -5 -10.5 0
      vertex -2.97634 -10.5 -4.124
    endloop
  endfacet
  facet normal 0 1 0
    outer loop
      vertex -5 -10.5 -9
      vertex -2.97634 -10.5 -4.876
      vertex -2.78933 -10.5 -5.60437
    endloop
  endfacet
  facet normal 0 1 0
    outer loop
      vertex -5 -10.5 -9
      vertex 0.188371 -10.5 -7.49408
      vertex 5 -10.5 -9
    endloop
  endfacet
  facet normal 0 1 0
    outer loop
      vertex -2.97634 -10.5 -4.876
      vertex -5 -10.5 -9
      vertex -5 -10.5 0
    endloop
  endfacet
  facet normal 0 1 0
    outer loop
      vertex -2.42705 -10.5 -6.26336
      vertex -5 -10.5 -9
      vertex -2.78933 -10.5 -5.60437
    endloop
  endfacet
  facet normal 0 1 0
    outer loop
      vertex -1.91227 -10.5 -6.81154
      vertex -5 -10.5 -9
      vertex -2.42705 -10.5 -6.26336
    endloop
  endfacet
  facet normal 0 1 0
    outer loop
      vertex -1.27734 -10.5 -7.21448
      vertex -5 -10.5 -9
      vertex -1.91227 -10.5 -6.81154
    endloop
  endfacet
  facet normal 0 1 0
    outer loop
      vertex -0.562143 -10.5 -7.44686
      vertex -5 -10.5 -9
      vertex -1.27734 -10.5 -7.21448
    endloop
  endfacet
  facet normal 0 1 0
    outer loop
      vertex 0.188371 -10.5 -7.49408
      vertex -5 -10.5 -9
      vertex -0.562143 -10.5 -7.44686
    endloop
  endfacet
  facet normal -1 0 0
    outer loop
      vertex 5 -10.5 -9
      vertex 5 -5.5 0
      vertex 5 -5.5 -9
    endloop
  endfacet
  facet normal -1 -0 0
    outer loop
      vertex 5 -5.5 0
      vertex 5 -10.5 -9
      vertex 5 -10.5 0
    endloop
  endfacet
  facet normal -0.992115 0 0.125333
    outer loop
      vertex 2.90575 -5.5 -5.24607
      vertex 3 -4.5 -4.5
      vertex 2.90575 -4.5 -5.24607
    endloop
  endfacet
  facet normal -0.992115 0 0.125333
    outer loop
      vertex 3 -4.5 -4.5
      vertex 2.90575 -5.5 -5.24607
      vertex 3 -5.5 -4.5
    endloop
  endfacet
  facet normal -0.992115 0 0.125333
    outer loop
      vertex 2.90575 -13.5 -5.24607
      vertex 3 -10.5 -4.5
      vertex 2.90575 -10.5 -5.24607
    endloop
  endfacet
  facet normal -0.992115 0 0.125333
    outer loop
      vertex 3 -10.5 -4.5
      vertex 2.90575 -13.5 -5.24607
      vertex 3 -13.5 -4.5
    endloop
  endfacet
  facet normal 0.968584 0 -0.248685
    outer loop
      vertex -2.78933 -5.5 -3.39563
      vertex -2.97634 -4.5 -4.124
      vertex -2.78933 -4.5 -3.39563
    endloop
  endfacet
  facet normal 0.968584 0 -0.248685
    outer loop
      vertex -2.97634 -4.5 -4.124
      vertex -2.78933 -5.5 -3.39563
      vertex -2.97634 -5.5 -4.124
    endloop
  endfacet
  facet normal 0.968584 0 -0.248685
    outer loop
      vertex -2.78933 -13.5 -3.39563
      vertex -2.97634 -10.5 -4.124
      vertex -2.78933 -10.5 -3.39563
    endloop
  endfacet
  facet normal 0.968584 0 -0.248685
    outer loop
      vertex -2.97634 -10.5 -4.124
      vertex -2.78933 -13.5 -3.39563
      vertex -2.97634 -13.5 -4.124
    endloop
  endfacet
  facet normal 1 -0 0
    outer loop
      vertex -2.97634 -5.5 -4.124
      vertex -2.97634 -4.5 -4.876
      vertex -2.97634 -4.5 -4.124
    endloop
  endfacet
  facet normal 1 0 0
    outer loop
      vertex -2.97634 -4.5 -4.876
      vertex -2.97634 -5.5 -4.124
      vertex -2.97634 -5.5 -4.876
    endloop
  endfacet
  facet normal 1 -0 0
    outer loop
      vertex -2.97634 -13.5 -4.124
      vertex -2.97634 -10.5 -4.876
      vertex -2.97634 -10.5 -4.124
    endloop
  endfacet
  facet normal 1 0 0
    outer loop
      vertex -2.97634 -10.5 -4.876
      vertex -2.97634 -13.5 -4.124
      vertex -2.97634 -13.5 -4.876
    endloop
  endfacet
  facet normal 0 -1 0
    outer loop
      vertex -0.562143 -4.5 -1.55314
      vertex 0.927051 -4.5 -1.64683
      vertex 0.188371 -4.5 -1.50592
    endloop
  endfacet
  facet normal 0 -1 0
    outer loop
      vertex -1.27734 -4.5 -1.78552
      vertex 0.927051 -4.5 -1.64683
      vertex -0.562143 -4.5 -1.55314
    endloop
  endfacet
  facet normal 0 -1 0
    outer loop
      vertex -1.27734 -4.5 -1.78552
      vertex 1.60748 -4.5 -1.96702
      vertex 0.927051 -4.5 -1.64683
    endloop
  endfacet
  facet normal 0 -1 0
    outer loop
      vertex -1.91227 -4.5 -2.18846
      vertex 1.60748 -4.5 -1.96702
      vertex -1.27734 -4.5 -1.78552
    endloop
  endfacet
  facet normal 0 -1 0
    outer loop
      vertex -1.91227 -4.5 -2.18846
      vertex 2.18691 -4.5 -2.44636
      vertex 1.60748 -4.5 -1.96702
    endloop
  endfacet
  facet normal 0 -1 0
    outer loop
      vertex -2.42705 -4.5 -2.73664
      vertex 2.18691 -4.5 -2.44636
      vertex -1.91227 -4.5 -2.18846
    endloop
  endfacet
  facet normal 0 -1 0
    outer loop
      vertex -2.42705 -4.5 -2.73664
      vertex 2.62892 -4.5 -3.05474
      vertex 2.18691 -4.5 -2.44636
    endloop
  endfacet
  facet normal 0 -1 0
    outer loop
      vertex -2.78933 -4.5 -3.39563
      vertex 2.62892 -4.5 -3.05474
      vertex -2.42705 -4.5 -2.73664
    endloop
  endfacet
  facet normal 0 -1 0
    outer loop
      vertex -2.78933 -4.5 -3.39563
      vertex 2.90575 -4.5 -3.75393
      vertex 2.62892 -4.5 -3.05474
    endloop
  endfacet
  facet normal 0 -1 0
    outer loop
      vertex -2.97634 -4.5 -4.124
      vertex 2.90575 -4.5 -3.75393
      vertex -2.78933 -4.5 -3.39563
    endloop
  endfacet
  facet normal 0 -1 0
    outer loop
      vertex -2.97634 -4.5 -4.124
      vertex 3 -4.5 -4.5
      vertex 2.90575 -4.5 -3.75393
    endloop
  endfacet
  facet normal 0 -1 0
    outer loop
      vertex -2.97634 -4.5 -4.876
      vertex 3 -4.5 -4.5
      vertex -2.97634 -4.5 -4.124
    endloop
  endfacet
  facet normal 0 -1 0
    outer loop
      vertex -2.97634 -4.5 -4.876
      vertex 2.90575 -4.5 -5.24607
      vertex 3 -4.5 -4.5
    endloop
  endfacet
  facet normal 0 -1 0
    outer loop
      vertex -2.78933 -4.5 -5.60437
      vertex 2.90575 -4.5 -5.24607
      vertex -2.97634 -4.5 -4.876
    endloop
  endfacet
  facet normal 0 -1 0
    outer loop
      vertex -2.78933 -4.5 -5.60437
      vertex 2.62892 -4.5 -5.94526
      vertex 2.90575 -4.5 -5.24607
    endloop
  endfacet
  facet normal 0 -1 0
    outer loop
      vertex -2.42705 -4.5 -6.26336
      vertex 2.62892 -4.5 -5.94526
      vertex -2.78933 -4.5 -5.60437
    endloop
  endfacet
  facet normal 0 -1 0
    outer loop
      vertex -2.42705 -4.5 -6.26336
      vertex 2.18691 -4.5 -6.55364
      vertex 2.62892 -4.5 -5.94526
    endloop
  endfacet
  facet normal 0 -1 0
    outer loop
      vertex -1.91227 -4.5 -6.81154
      vertex 2.18691 -4.5 -6.55364
      vertex -2.42705 -4.5 -6.26336
    endloop
  endfacet
  facet normal 0 -1 0
    outer loop
      vertex -1.91227 -4.5 -6.81154
      vertex 1.60748 -4.5 -7.03298
      vertex 2.18691 -4.5 -6.55364
    endloop
  endfacet
  facet normal 0 -1 0
    outer loop
      vertex -1.27734 -4.5 -7.21448
      vertex 1.60748 -4.5 -7.03298
      vertex -1.91227 -4.5 -6.81154
    endloop
  endfacet
  facet normal 0 -1 0
    outer loop
      vertex -1.27734 -4.5 -7.21448
      vertex 0.927051 -4.5 -7.35317
      vertex 1.60748 -4.5 -7.03298
    endloop
  endfacet
  facet normal 0 -1 0
    outer loop
      vertex -0.562143 -4.5 -7.44686
      vertex 0.927051 -4.5 -7.35317
      vertex -1.27734 -4.5 -7.21448
    endloop
  endfacet
  facet normal 0 -1 0
    outer loop
      vertex 0.927051 -4.5 -7.35317
      vertex -0.562143 -4.5 -7.44686
      vertex 0.188371 -4.5 -7.49408
    endloop
  endfacet
  facet normal 0.0627927 0 0.998027
    outer loop
      vertex -0.562143 -4.5 -7.44686
      vertex 0.188371 -5.5 -7.49408
      vertex 0.188371 -4.5 -7.49408
    endloop
  endfacet
  facet normal 0.0627927 0 0.998027
    outer loop
      vertex 0.188371 -5.5 -7.49408
      vertex -0.562143 -4.5 -7.44686
      vertex -0.562143 -5.5 -7.44686
    endloop
  endfacet
  facet normal 0.0627927 0 0.998027
    outer loop
      vertex -0.562143 -10.5 -7.44686
      vertex 0.188371 -13.5 -7.49408
      vertex 0.188371 -10.5 -7.49408
    endloop
  endfacet
  facet normal 0.0627927 0 0.998027
    outer loop
      vertex 0.188371 -13.5 -7.49408
      vertex -0.562143 -10.5 -7.44686
      vertex -0.562143 -13.5 -7.44686
    endloop
  endfacet
  facet normal -0.637419 0 -0.770517
    outer loop
      vertex 1.60748 -13.5 -1.96702
      vertex 2.18691 -10.5 -2.44636
      vertex 2.18691 -13.5 -2.44636
    endloop
  endfacet
  facet normal -0.637419 0 -0.770517
    outer loop
      vertex 2.18691 -10.5 -2.44636
      vertex 1.60748 -13.5 -1.96702
      vertex 1.60748 -10.5 -1.96702
    endloop
  endfacet
  facet normal -0.637419 0 -0.770517
    outer loop
      vertex 1.60748 -5.5 -1.96702
      vertex 2.18691 -4.5 -2.44636
      vertex 2.18691 -5.5 -2.44636
    endloop
  endfacet
  facet normal -0.637419 0 -0.770517
    outer loop
      vertex 2.18691 -4.5 -2.44636
      vertex 1.60748 -5.5 -1.96702
      vertex 1.60748 -4.5 -1.96702
    endloop
  endfacet
  facet normal -0.809019 0 -0.587782
    outer loop
      vertex 2.62892 -5.5 -3.05474
      vertex 2.18691 -4.5 -2.44636
      vertex 2.62892 -4.5 -3.05474
    endloop
  endfacet
  facet normal -0.809019 -0 -0.587782
    outer loop
      vertex 2.18691 -4.5 -2.44636
      vertex 2.62892 -5.5 -3.05474
      vertex 2.18691 -5.5 -2.44636
    endloop
  endfacet
  facet normal -0.809019 0 -0.587782
    outer loop
      vertex 2.62892 -13.5 -3.05474
      vertex 2.18691 -10.5 -2.44636
      vertex 2.62892 -10.5 -3.05474
    endloop
  endfacet
  facet normal -0.809019 -0 -0.587782
    outer loop
      vertex 2.18691 -10.5 -2.44636
      vertex 2.62892 -13.5 -3.05474
      vertex 2.18691 -13.5 -2.44636
    endloop
  endfacet
  facet normal -0.18738 0 -0.982287
    outer loop
      vertex 0.188371 -13.5 -1.50592
      vertex 0.927051 -10.5 -1.64683
      vertex 0.927051 -13.5 -1.64683
    endloop
  endfacet
  facet normal -0.18738 0 -0.982287
    outer loop
      vertex 0.927051 -10.5 -1.64683
      vertex 0.188371 -13.5 -1.50592
      vertex 0.188371 -10.5 -1.50592
    endloop
  endfacet
  facet normal -0.18738 0 -0.982287
    outer loop
      vertex 0.188371 -5.5 -1.50592
      vertex 0.927051 -4.5 -1.64683
      vertex 0.927051 -5.5 -1.64683
    endloop
  endfacet
  facet normal -0.18738 0 -0.982287
    outer loop
      vertex 0.927051 -4.5 -1.64683
      vertex 0.188371 -5.5 -1.50592
      vertex 0.188371 -4.5 -1.50592
    endloop
  endfacet
  facet normal 0.728965 -0 0.68455
    outer loop
      vertex -2.42705 -5.5 -6.26336
      vertex -1.91227 -4.5 -6.81154
      vertex -2.42705 -4.5 -6.26336
    endloop
  endfacet
  facet normal 0.728965 0 0.68455
    outer loop
      vertex -1.91227 -4.5 -6.81154
      vertex -2.42705 -5.5 -6.26336
      vertex -1.91227 -5.5 -6.81154
    endloop
  endfacet
  facet normal 0.728965 -0 0.68455
    outer loop
      vertex -2.42705 -13.5 -6.26336
      vertex -1.91227 -10.5 -6.81154
      vertex -2.42705 -10.5 -6.26336
    endloop
  endfacet
  facet normal 0.728965 0 0.68455
    outer loop
      vertex -1.91227 -10.5 -6.81154
      vertex -2.42705 -13.5 -6.26336
      vertex -1.91227 -13.5 -6.81154
    endloop
  endfacet
  facet normal -0.425784 0 0.904825
    outer loop
      vertex 0.927051 -4.5 -7.35317
      vertex 1.60748 -5.5 -7.03298
      vertex 1.60748 -4.5 -7.03298
    endloop
  endfacet
  facet normal -0.425784 0 0.904825
    outer loop
      vertex 1.60748 -5.5 -7.03298
      vertex 0.927051 -4.5 -7.35317
      vertex 0.927051 -5.5 -7.35317
    endloop
  endfacet
  facet normal -0.425784 0 0.904825
    outer loop
      vertex 0.927051 -10.5 -7.35317
      vertex 1.60748 -13.5 -7.03298
      vertex 1.60748 -10.5 -7.03298
    endloop
  endfacet
  facet normal -0.425784 0 0.904825
    outer loop
      vertex 1.60748 -13.5 -7.03298
      vertex 0.927051 -10.5 -7.35317
      vertex 0.927051 -13.5 -7.35317
    endloop
  endfacet
  facet normal -0.637419 0 0.770517
    outer loop
      vertex 1.60748 -4.5 -7.03298
      vertex 2.18691 -5.5 -6.55364
      vertex 2.18691 -4.5 -6.55364
    endloop
  endfacet
  facet normal -0.637419 0 0.770517
    outer loop
      vertex 2.18691 -5.5 -6.55364
      vertex 1.60748 -4.5 -7.03298
      vertex 1.60748 -5.5 -7.03298
    endloop
  endfacet
  facet normal -0.637419 0 0.770517
    outer loop
      vertex 1.60748 -10.5 -7.03298
      vertex 2.18691 -13.5 -6.55364
      vertex 2.18691 -10.5 -6.55364
    endloop
  endfacet
  facet normal -0.637419 0 0.770517
    outer loop
      vertex 2.18691 -13.5 -6.55364
      vertex 1.60748 -10.5 -7.03298
      vertex 1.60748 -13.5 -7.03298
    endloop
  endfacet
  facet normal -0.929776 0 0.368126
    outer loop
      vertex 2.62892 -5.5 -5.94526
      vertex 2.90575 -4.5 -5.24607
      vertex 2.62892 -4.5 -5.94526
    endloop
  endfacet
  facet normal -0.929776 0 0.368126
    outer loop
      vertex 2.90575 -4.5 -5.24607
      vertex 2.62892 -5.5 -5.94526
      vertex 2.90575 -5.5 -5.24607
    endloop
  endfacet
  facet normal -0.929776 0 0.368126
    outer loop
      vertex 2.62892 -13.5 -5.94526
      vertex 2.90575 -10.5 -5.24607
      vertex 2.62892 -10.5 -5.94526
    endloop
  endfacet
  facet normal -0.929776 0 0.368126
    outer loop
      vertex 2.90575 -10.5 -5.24607
      vertex 2.62892 -13.5 -5.94526
      vertex 2.90575 -13.5 -5.24607
    endloop
  endfacet
  facet normal 0.728965 0 -0.68455
    outer loop
      vertex -1.91227 -13.5 -2.18846
      vertex -2.42705 -10.5 -2.73664
      vertex -1.91227 -10.5 -2.18846
    endloop
  endfacet
  facet normal 0.728965 0 -0.68455
    outer loop
      vertex -2.42705 -10.5 -2.73664
      vertex -1.91227 -13.5 -2.18846
      vertex -2.42705 -13.5 -2.73664
    endloop
  endfacet
  facet normal 0.728965 0 -0.68455
    outer loop
      vertex -1.91227 -5.5 -2.18846
      vertex -2.42705 -4.5 -2.73664
      vertex -1.91227 -4.5 -2.18846
    endloop
  endfacet
  facet normal 0.728965 0 -0.68455
    outer loop
      vertex -2.42705 -4.5 -2.73664
      vertex -1.91227 -5.5 -2.18846
      vertex -2.42705 -5.5 -2.73664
    endloop
  endfacet
  facet normal 0.535828 0 -0.844327
    outer loop
      vertex -1.91227 -13.5 -2.18846
      vertex -1.27734 -10.5 -1.78552
      vertex -1.27734 -13.5 -1.78552
    endloop
  endfacet
  facet normal 0.535828 0 -0.844327
    outer loop
      vertex -1.27734 -10.5 -1.78552
      vertex -1.91227 -13.5 -2.18846
      vertex -1.91227 -10.5 -2.18846
    endloop
  endfacet
  facet normal 0.535828 0 -0.844327
    outer loop
      vertex -1.91227 -5.5 -2.18846
      vertex -1.27734 -4.5 -1.78552
      vertex -1.27734 -5.5 -1.78552
    endloop
  endfacet
  facet normal 0.535828 0 -0.844327
    outer loop
      vertex -1.27734 -4.5 -1.78552
      vertex -1.91227 -5.5 -2.18846
      vertex -1.91227 -4.5 -2.18846
    endloop
  endfacet
  facet normal 0.0627927 0 -0.998027
    outer loop
      vertex -0.562143 -13.5 -1.55314
      vertex 0.188371 -10.5 -1.50592
      vertex 0.188371 -13.5 -1.50592
    endloop
  endfacet
  facet normal 0.0627927 0 -0.998027
    outer loop
      vertex 0.188371 -10.5 -1.50592
      vertex -0.562143 -13.5 -1.55314
      vertex -0.562143 -10.5 -1.55314
    endloop
  endfacet
  facet normal 0.0627927 0 -0.998027
    outer loop
      vertex -0.562143 -5.5 -1.55314
      vertex 0.188371 -4.5 -1.50592
      vertex 0.188371 -5.5 -1.50592
    endloop
  endfacet
  facet normal 0.0627927 0 -0.998027
    outer loop
      vertex 0.188371 -4.5 -1.50592
      vertex -0.562143 -5.5 -1.55314
      vertex -0.562143 -4.5 -1.55314
    endloop
  endfacet
  facet normal -0.425784 0 -0.904825
    outer loop
      vertex 0.927051 -13.5 -1.64683
      vertex 1.60748 -10.5 -1.96702
      vertex 1.60748 -13.5 -1.96702
    endloop
  endfacet
  facet normal -0.425784 0 -0.904825
    outer loop
      vertex 1.60748 -10.5 -1.96702
      vertex 0.927051 -13.5 -1.64683
      vertex 0.927051 -10.5 -1.64683
    endloop
  endfacet
  facet normal -0.425784 0 -0.904825
    outer loop
      vertex 0.927051 -5.5 -1.64683
      vertex 1.60748 -4.5 -1.96702
      vertex 1.60748 -5.5 -1.96702
    endloop
  endfacet
  facet normal -0.425784 0 -0.904825
    outer loop
      vertex 1.60748 -4.5 -1.96702
      vertex 0.927051 -5.5 -1.64683
      vertex 0.927051 -4.5 -1.64683
    endloop
  endfacet
  facet normal -0.929776 0 -0.368126
    outer loop
      vertex 2.90575 -5.5 -3.75393
      vertex 2.62892 -4.5 -3.05474
      vertex 2.90575 -4.5 -3.75393
    endloop
  endfacet
  facet normal -0.929776 -0 -0.368126
    outer loop
      vertex 2.62892 -4.5 -3.05474
      vertex 2.90575 -5.5 -3.75393
      vertex 2.62892 -5.5 -3.05474
    endloop
  endfacet
  facet normal -0.929776 0 -0.368126
    outer loop
      vertex 2.90575 -13.5 -3.75393
      vertex 2.62892 -10.5 -3.05474
      vertex 2.90575 -10.5 -3.75393
    endloop
  endfacet
  facet normal -0.929776 -0 -0.368126
    outer loop
      vertex 2.62892 -10.5 -3.05474
      vertex 2.90575 -13.5 -3.75393
      vertex 2.62892 -13.5 -3.05474
    endloop
  endfacet
  facet normal -0.992115 0 -0.125333
    outer loop
      vertex 3 -5.5 -4.5
      vertex 2.90575 -4.5 -3.75393
      vertex 3 -4.5 -4.5
    endloop
  endfacet
  facet normal -0.992115 -0 -0.125333
    outer loop
      vertex 2.90575 -4.5 -3.75393
      vertex 3 -5.5 -4.5
      vertex 2.90575 -5.5 -3.75393
    endloop
  endfacet
  facet normal -0.992115 0 -0.125333
    outer loop
      vertex 3 -13.5 -4.5
      vertex 2.90575 -10.5 -3.75393
      vertex 3 -10.5 -4.5
    endloop
  endfacet
  facet normal -0.992115 -0 -0.125333
    outer loop
      vertex 2.90575 -10.5 -3.75393
      vertex 3 -13.5 -4.5
      vertex 2.90575 -13.5 -3.75393
    endloop
  endfacet
  facet normal 0.968584 -0 0.248685
    outer loop
      vertex -2.97634 -5.5 -4.876
      vertex -2.78933 -4.5 -5.60437
      vertex -2.97634 -4.5 -4.876
    endloop
  endfacet
  facet normal 0.968584 0 0.248685
    outer loop
      vertex -2.78933 -4.5 -5.60437
      vertex -2.97634 -5.5 -4.876
      vertex -2.78933 -5.5 -5.60437
    endloop
  endfacet
  facet normal 0.968584 -0 0.248685
    outer loop
      vertex -2.97634 -13.5 -4.876
      vertex -2.78933 -10.5 -5.60437
      vertex -2.97634 -10.5 -4.876
    endloop
  endfacet
  facet normal 0.968584 0 0.248685
    outer loop
      vertex -2.78933 -10.5 -5.60437
      vertex -2.97634 -13.5 -4.876
      vertex -2.78933 -13.5 -5.60437
    endloop
  endfacet
  facet normal 0.876308 -0 0.481751
    outer loop
      vertex -2.78933 -5.5 -5.60437
      vertex -2.42705 -4.5 -6.26336
      vertex -2.78933 -4.5 -5.60437
    endloop
  endfacet
  facet normal 0.876308 0 0.481751
    outer loop
      vertex -2.42705 -4.5 -6.26336
      vertex -2.78933 -5.5 -5.60437
      vertex -2.42705 -5.5 -6.26336
    endloop
  endfacet
  facet normal 0.876308 -0 0.481751
    outer loop
      vertex -2.78933 -13.5 -5.60437
      vertex -2.42705 -10.5 -6.26336
      vertex -2.78933 -10.5 -5.60437
    endloop
  endfacet
  facet normal 0.876308 0 0.481751
    outer loop
      vertex -2.42705 -10.5 -6.26336
      vertex -2.78933 -13.5 -5.60437
      vertex -2.42705 -13.5 -6.26336
    endloop
  endfacet
  facet normal 0.535828 0 0.844327
    outer loop
      vertex -1.91227 -4.5 -6.81154
      vertex -1.27734 -5.5 -7.21448
      vertex -1.27734 -4.5 -7.21448
    endloop
  endfacet
  facet normal 0.535828 0 0.844327
    outer loop
      vertex -1.27734 -5.5 -7.21448
      vertex -1.91227 -4.5 -6.81154
      vertex -1.91227 -5.5 -6.81154
    endloop
  endfacet
  facet normal 0.535828 0 0.844327
    outer loop
      vertex -1.91227 -10.5 -6.81154
      vertex -1.27734 -13.5 -7.21448
      vertex -1.27734 -10.5 -7.21448
    endloop
  endfacet
  facet normal 0.535828 0 0.844327
    outer loop
      vertex -1.27734 -13.5 -7.21448
      vertex -1.91227 -10.5 -6.81154
      vertex -1.91227 -13.5 -6.81154
    endloop
  endfacet
  facet normal 0.309015 0 0.951057
    outer loop
      vertex -1.27734 -4.5 -7.21448
      vertex -0.562143 -5.5 -7.44686
      vertex -0.562143 -4.5 -7.44686
    endloop
  endfacet
  facet normal 0.309015 0 0.951057
    outer loop
      vertex -0.562143 -5.5 -7.44686
      vertex -1.27734 -4.5 -7.21448
      vertex -1.27734 -5.5 -7.21448
    endloop
  endfacet
  facet normal 0.309015 0 0.951057
    outer loop
      vertex -1.27734 -10.5 -7.21448
      vertex -0.562143 -13.5 -7.44686
      vertex -0.562143 -10.5 -7.44686
    endloop
  endfacet
  facet normal 0.309015 0 0.951057
    outer loop
      vertex -0.562143 -13.5 -7.44686
      vertex -1.27734 -10.5 -7.21448
      vertex -1.27734 -13.5 -7.21448
    endloop
  endfacet
  facet normal -0.18738 0 0.982287
    outer loop
      vertex 0.188371 -4.5 -7.49408
      vertex 0.927051 -5.5 -7.35317
      vertex 0.927051 -4.5 -7.35317
    endloop
  endfacet
  facet normal -0.18738 0 0.982287
    outer loop
      vertex 0.927051 -5.5 -7.35317
      vertex 0.188371 -4.5 -7.49408
      vertex 0.188371 -5.5 -7.49408
    endloop
  endfacet
  facet normal -0.18738 0 0.982287
    outer loop
      vertex 0.188371 -10.5 -7.49408
      vertex 0.927051 -13.5 -7.35317
      vertex 0.927051 -10.5 -7.35317
    endloop
  endfacet
  facet normal -0.18738 0 0.982287
    outer loop
      vertex 0.927051 -13.5 -7.35317
      vertex 0.188371 -10.5 -7.49408
      vertex 0.188371 -13.5 -7.49408
    endloop
  endfacet
  facet normal -0.809019 0 0.587782
    outer loop
      vertex 2.18691 -5.5 -6.55364
      vertex 2.62892 -4.5 -5.94526
      vertex 2.18691 -4.5 -6.55364
    endloop
  endfacet
  facet normal -0.809019 0 0.587782
    outer loop
      vertex 2.62892 -4.5 -5.94526
      vertex 2.18691 -5.5 -6.55364
      vertex 2.62892 -5.5 -5.94526
    endloop
  endfacet
  facet normal -0.809019 0 0.587782
    outer loop
      vertex 2.18691 -13.5 -6.55364
      vertex 2.62892 -10.5 -5.94526
      vertex 2.18691 -10.5 -6.55364
    endloop
  endfacet
  facet normal -0.809019 0 0.587782
    outer loop
      vertex 2.62892 -10.5 -5.94526
      vertex 2.18691 -13.5 -6.55364
      vertex 2.62892 -13.5 -5.94526
    endloop
  endfacet
  facet normal 0.876308 0 -0.481751
    outer loop
      vertex -2.42705 -5.5 -2.73664
      vertex -2.78933 -4.5 -3.39563
      vertex -2.42705 -4.5 -2.73664
    endloop
  endfacet
  facet normal 0.876308 0 -0.481751
    outer loop
      vertex -2.78933 -4.5 -3.39563
      vertex -2.42705 -5.5 -2.73664
      vertex -2.78933 -5.5 -3.39563
    endloop
  endfacet
  facet normal 0.876308 0 -0.481751
    outer loop
      vertex -2.42705 -13.5 -2.73664
      vertex -2.78933 -10.5 -3.39563
      vertex -2.42705 -10.5 -2.73664
    endloop
  endfacet
  facet normal 0.876308 0 -0.481751
    outer loop
      vertex -2.78933 -10.5 -3.39563
      vertex -2.42705 -13.5 -2.73664
      vertex -2.78933 -13.5 -3.39563
    endloop
  endfacet
  facet normal 0.309015 0 -0.951057
    outer loop
      vertex -1.27734 -13.5 -1.78552
      vertex -0.562143 -10.5 -1.55314
      vertex -0.562143 -13.5 -1.55314
    endloop
  endfacet
  facet normal 0.309015 0 -0.951057
    outer loop
      vertex -0.562143 -10.5 -1.55314
      vertex -1.27734 -13.5 -1.78552
      vertex -1.27734 -10.5 -1.78552
    endloop
  endfacet
  facet normal 0.309015 0 -0.951057
    outer loop
      vertex -1.27734 -5.5 -1.78552
      vertex -0.562143 -4.5 -1.55314
      vertex -0.562143 -5.5 -1.55314
    endloop
  endfacet
  facet normal 0.309015 0 -0.951057
    outer loop
      vertex -0.562143 -4.5 -1.55314
      vertex -1.27734 -5.5 -1.78552
      vertex -1.27734 -4.5 -1.78552
    endloop
  endfacet
  facet normal -0.929776 0.368125 0
    outer loop
      vertex 2.62892 -1.44526 -9
      vertex 2.90575 -0.746069 0
      vertex 2.90575 -0.746069 -9
    endloop
  endfacet
  facet normal -0.929776 0.368125 0
    outer loop
      vertex 2.90575 -0.746069 0
      vertex 2.62892 -1.44526 -9
      vertex 2.62892 -1.44526 0
    endloop
  endfacet
  facet normal -0.992115 0.125333 0
    outer loop
      vertex 2.90575 -0.746069 -9
      vertex 3 0 0
      vertex 3 0 -9
    endloop
  endfacet
  facet normal -0.992115 0.125333 0
    outer loop
      vertex 3 0 0
      vertex 2.90575 -0.746069 -9
      vertex 2.90575 -0.746069 0
    endloop
  endfacet
  facet normal 0.968584 -0.248685 0
    outer loop
      vertex -2.97634 0.375999 0
      vertex -2.78933 1.10437 -9
      vertex -2.78933 1.10437 0
    endloop
  endfacet
  facet normal 0.968584 -0.248685 0
    outer loop
      vertex -2.78933 1.10437 -9
      vertex -2.97634 0.375999 0
      vertex -2.97634 0.375999 -9
    endloop
  endfacet
  facet normal 1 -0 0
    outer loop
      vertex -2.97634 -0.375999 0
      vertex -2.97634 0.375999 -9
      vertex -2.97634 0.375999 0
    endloop
  endfacet
  facet normal 1 0 0
    outer loop
      vertex -2.97634 0.375999 -9
      vertex -2.97634 -0.375999 0
      vertex -2.97634 -0.375999 -9
    endloop
  endfacet
  facet normal 0.728965 0.68455 0
    outer loop
      vertex -1.91227 -2.31154 0
      vertex -2.42705 -1.76336 -9
      vertex -2.42705 -1.76336 0
    endloop
  endfacet
  facet normal 0.728965 0.68455 0
    outer loop
      vertex -2.42705 -1.76336 -9
      vertex -1.91227 -2.31154 0
      vertex -1.91227 -2.31154 -9
    endloop
  endfacet
  facet normal -0.18738 -0.982287 0
    outer loop
      vertex 0.188371 2.99408 -9
      vertex 0.927051 2.85317 0
      vertex 0.188371 2.99408 0
    endloop
  endfacet
  facet normal -0.18738 -0.982287 -0
    outer loop
      vertex 0.927051 2.85317 0
      vertex 0.188371 2.99408 -9
      vertex 0.927051 2.85317 -9
    endloop
  endfacet
  facet normal 0.968584 0.248685 0
    outer loop
      vertex -2.78933 -1.10437 0
      vertex -2.97634 -0.375999 -9
      vertex -2.97634 -0.375999 0
    endloop
  endfacet
  facet normal 0.968584 0.248685 0
    outer loop
      vertex -2.97634 -0.375999 -9
      vertex -2.78933 -1.10437 0
      vertex -2.78933 -1.10437 -9
    endloop
  endfacet
  facet normal 0.535828 0.844327 -0
    outer loop
      vertex -1.27734 -2.71448 -9
      vertex -1.91227 -2.31154 0
      vertex -1.27734 -2.71448 0
    endloop
  endfacet
  facet normal 0.535828 0.844327 0
    outer loop
      vertex -1.91227 -2.31154 0
      vertex -1.27734 -2.71448 -9
      vertex -1.91227 -2.31154 -9
    endloop
  endfacet
  facet normal 0.0627927 0.998027 -0
    outer loop
      vertex 0.188371 -2.99408 -9
      vertex -0.562143 -2.94686 0
      vertex 0.188371 -2.99408 0
    endloop
  endfacet
  facet normal 0.0627927 0.998027 0
    outer loop
      vertex -0.562143 -2.94686 0
      vertex 0.188371 -2.99408 -9
      vertex -0.562143 -2.94686 -9
    endloop
  endfacet
  facet normal -0.425784 0.904825 0
    outer loop
      vertex 1.60748 -2.53298 -9
      vertex 0.927051 -2.85317 0
      vertex 1.60748 -2.53298 0
    endloop
  endfacet
  facet normal -0.425784 0.904825 0
    outer loop
      vertex 0.927051 -2.85317 0
      vertex 1.60748 -2.53298 -9
      vertex 0.927051 -2.85317 -9
    endloop
  endfacet
  facet normal -0.637419 0.770517 0
    outer loop
      vertex 2.18691 -2.05364 -9
      vertex 1.60748 -2.53298 0
      vertex 2.18691 -2.05364 0
    endloop
  endfacet
  facet normal -0.637419 0.770517 0
    outer loop
      vertex 1.60748 -2.53298 0
      vertex 2.18691 -2.05364 -9
      vertex 1.60748 -2.53298 -9
    endloop
  endfacet
  facet normal 0.728965 -0.68455 0
    outer loop
      vertex -2.42705 1.76336 0
      vertex -1.91227 2.31154 -9
      vertex -1.91227 2.31154 0
    endloop
  endfacet
  facet normal 0.728965 -0.68455 0
    outer loop
      vertex -1.91227 2.31154 -9
      vertex -2.42705 1.76336 0
      vertex -2.42705 1.76336 -9
    endloop
  endfacet
  facet normal 0.535828 -0.844327 0
    outer loop
      vertex -1.91227 2.31154 -9
      vertex -1.27734 2.71448 0
      vertex -1.91227 2.31154 0
    endloop
  endfacet
  facet normal 0.535828 -0.844327 0
    outer loop
      vertex -1.27734 2.71448 0
      vertex -1.91227 2.31154 -9
      vertex -1.27734 2.71448 -9
    endloop
  endfacet
  facet normal 0.0627927 -0.998027 0
    outer loop
      vertex -0.562143 2.94686 -9
      vertex 0.188371 2.99408 0
      vertex -0.562143 2.94686 0
    endloop
  endfacet
  facet normal 0.0627927 -0.998027 0
    outer loop
      vertex 0.188371 2.99408 0
      vertex -0.562143 2.94686 -9
      vertex 0.188371 2.99408 -9
    endloop
  endfacet
  facet normal -0.809019 -0.587782 0
    outer loop
      vertex 2.62892 1.44526 -9
      vertex 2.18691 2.05364 0
      vertex 2.18691 2.05364 -9
    endloop
  endfacet
  facet normal -0.809019 -0.587782 0
    outer loop
      vertex 2.18691 2.05364 0
      vertex 2.62892 1.44526 -9
      vertex 2.62892 1.44526 0
    endloop
  endfacet
  facet normal -0.929776 -0.368125 0
    outer loop
      vertex 2.90575 0.746069 -9
      vertex 2.62892 1.44526 0
      vertex 2.62892 1.44526 -9
    endloop
  endfacet
  facet normal -0.929776 -0.368125 0
    outer loop
      vertex 2.62892 1.44526 0
      vertex 2.90575 0.746069 -9
      vertex 2.90575 0.746069 0
    endloop
  endfacet
  facet normal -0.992115 -0.125333 0
    outer loop
      vertex 3 0 -9
      vertex 2.90575 0.746069 0
      vertex 2.90575 0.746069 -9
    endloop
  endfacet
  facet normal -0.992115 -0.125333 0
    outer loop
      vertex 2.90575 0.746069 0
      vertex 3 0 -9
      vertex 3 0 0
    endloop
  endfacet
  facet normal 0.876308 0.481751 0
    outer loop
      vertex -2.42705 -1.76336 0
      vertex -2.78933 -1.10437 -9
      vertex -2.78933 -1.10437 0
    endloop
  endfacet
  facet normal 0.876308 0.481751 0
    outer loop
      vertex -2.78933 -1.10437 -9
      vertex -2.42705 -1.76336 0
      vertex -2.42705 -1.76336 -9
    endloop
  endfacet
  facet normal 0.309015 0.951057 -0
    outer loop
      vertex -0.562143 -2.94686 -9
      vertex -1.27734 -2.71448 0
      vertex -0.562143 -2.94686 0
    endloop
  endfacet
  facet normal 0.309015 0.951057 0
    outer loop
      vertex -1.27734 -2.71448 0
      vertex -0.562143 -2.94686 -9
      vertex -1.27734 -2.71448 -9
    endloop
  endfacet
  facet normal -0.18738 0.982287 0
    outer loop
      vertex 0.927051 -2.85317 -9
      vertex 0.188371 -2.99408 0
      vertex 0.927051 -2.85317 0
    endloop
  endfacet
  facet normal -0.18738 0.982287 0
    outer loop
      vertex 0.188371 -2.99408 0
      vertex 0.927051 -2.85317 -9
      vertex 0.188371 -2.99408 -9
    endloop
  endfacet
  facet normal -0.809019 0.587782 0
    outer loop
      vertex 2.18691 -2.05364 -9
      vertex 2.62892 -1.44526 0
      vertex 2.62892 -1.44526 -9
    endloop
  endfacet
  facet normal -0.809019 0.587782 0
    outer loop
      vertex 2.62892 -1.44526 0
      vertex 2.18691 -2.05364 -9
      vertex 2.18691 -2.05364 0
    endloop
  endfacet
  facet normal 0.876308 -0.481751 0
    outer loop
      vertex -2.78933 1.10437 0
      vertex -2.42705 1.76336 -9
      vertex -2.42705 1.76336 0
    endloop
  endfacet
  facet normal 0.876308 -0.481751 0
    outer loop
      vertex -2.42705 1.76336 -9
      vertex -2.78933 1.10437 0
      vertex -2.78933 1.10437 -9
    endloop
  endfacet
  facet normal 0.309015 -0.951057 0
    outer loop
      vertex -1.27734 2.71448 -9
      vertex -0.562143 2.94686 0
      vertex -1.27734 2.71448 0
    endloop
  endfacet
  facet normal 0.309015 -0.951057 0
    outer loop
      vertex -0.562143 2.94686 0
      vertex -1.27734 2.71448 -9
      vertex -0.562143 2.94686 -9
    endloop
  endfacet
  facet normal -0.425784 -0.904825 0
    outer loop
      vertex 0.927051 2.85317 -9
      vertex 1.60748 2.53298 0
      vertex 0.927051 2.85317 0
    endloop
  endfacet
  facet normal -0.425784 -0.904825 -0
    outer loop
      vertex 1.60748 2.53298 0
      vertex 0.927051 2.85317 -9
      vertex 1.60748 2.53298 -9
    endloop
  endfacet
  facet normal -0.637419 -0.770517 0
    outer loop
      vertex 1.60748 2.53298 -9
      vertex 2.18691 2.05364 0
      vertex 1.60748 2.53298 0
    endloop
  endfacet
  facet normal -0.637419 -0.770517 -0
    outer loop
      vertex 2.18691 2.05364 0
      vertex 1.60748 2.53298 -9
      vertex 2.18691 2.05364 -9
    endloop
  endfacet
endsolid OpenSCAD_Model
