<?xml version="1.0" encoding="UTF-8"?>
<!DOCTYPE svg PUBLIC "-//W3C//DTD SVG 1.1//EN" "http://www.w3.org/Graphics/SVG/1.1/DTD/svg11.dtd">
<!-- Creator: CorelDRAW -->
<svg xmlns="http://www.w3.org/2000/svg" xml:space="preserve" width="33.5292mm" height="13.5292mm" style="shape-rendering:geometricPrecision; text-rendering:geometricPrecision; image-rendering:optimizeQuality; fill-rule:evenodd; clip-rule:evenodd"
viewBox="0 0 4.61631 1.86271"
 xmlns:xlink="http://www.w3.org/1999/xlink">
 <defs>
  <style type="text/css">
   <![CDATA[
    .str2 {stroke:#1F1A17;stroke-width:0.0728605}
    .str1 {stroke:#1F1A17;stroke-width:0.0728605;stroke-linecap:round;stroke-linejoin:round}
    .str0 {stroke:black;stroke-width:0.0728605;stroke-linecap:round;stroke-linejoin:round}
    .fil0 {fill:none}
   ]]>
  </style>
 </defs>
 <g id="Layer_x0020_1">
  <metadata id="CorelCorpID_0Corel-Layer"/>
  <path class="fil0 str0" d="M0.518312 0.724832l0.0552787 0c0.0362788,-0.0626859 0.088556,-0.114963 0.151242,-0.151242l0 -0.0552787 0.206521 0 0.206521 0 0 0.0552787c0.0626859,0.0362788 0.114963,0.088556 0.151242,0.151242l0.0552787 0 0 0.206521 0 0.206521 -0.0552787 0c-0.0362788,0.0626859 -0.088556,0.114963 -0.151242,0.151242l0 0.0552787 -0.206521 0 -0.206521 0 0 -0.0552787c-0.0626859,-0.0362788 -0.114963,-0.088556 -0.151242,-0.151242l-0.0552787 0 0 -0.206521 0 -0.206521z"/>
  <path class="fil0 str0" d="M3.27192 0.724832l0.0552787 0c0.0362788,-0.0626859 0.088556,-0.114963 0.151242,-0.151242l0 -0.0552787 0.206521 0 0.206521 0 0 0.0552787c0.0626859,0.0362788 0.114963,0.088556 0.151242,0.151242l0.0552787 0 0 0.206521 0 0.206521 -0.0552787 0c-0.0362788,0.0626859 -0.088556,0.114963 -0.151242,0.151242l0 0.0552787 -0.206521 0 -0.206521 0 0 -0.0552787c-0.0626859,-0.0362788 -0.114963,-0.088556 -0.151242,-0.151242l-0.0552787 0 0 -0.206521 0 -0.206521z"/>
  <rect class="fil0 str1" x="1.89512" y="0.724832" width="0.826082" height="0.413041"/>
  <path class="fil0 str2" d="M0.0364302 1.13787l0 -0.413041c0,-0.380122 0.30828,-0.688402 0.688402,-0.688402l3.16665 0c0.380122,0 0.688402,0.30828 0.688402,0.688402l0 0.413041c0,0.380122 -0.30828,0.688402 -0.688402,0.688402l-3.16665 0c-0.380122,0 -0.688402,-0.30828 -0.688402,-0.688402z"/>
 </g>
</svg>
