<?xml version="1.0" standalone="no"?>
<!DOCTYPE svg PUBLIC "-//W3C//DTD SVG 1.1//EN" "http://www.w3.org/Graphics/SVG/1.1/DTD/svg11.dtd">
<svg width="118mm" height="13mm" viewBox="1 -14 118 13" xmlns="http://www.w3.org/2000/svg" version="1.1">
<title>OpenSCAD Model</title>
<path d="
M 114.158,-1.53778 L 114.799,-1.66537 L 115.418,-1.87561 L 116.005,-2.16489 L 116.549,-2.52824 L 117.041,-2.95947
 L 117.472,-3.4512 L 117.835,-3.99501 L 118.124,-4.58159 L 118.335,-5.20091 L 118.462,-5.84238 L 118.505,-6.49501
 L 118.505,-8.50499 L 118.462,-9.15762 L 118.335,-9.79909 L 118.124,-10.4184 L 117.835,-11.005 L 117.472,-11.5488
 L 117.041,-12.0405 L 116.549,-12.4718 L 116.005,-12.8351 L 115.418,-13.1244 L 114.799,-13.3346 L 114.158,-13.4622
 L 113.505,-13.505 L 6.49501,-13.505 L 5.84238,-13.4622 L 5.20091,-13.3346 L 4.58159,-13.1244 L 3.99501,-12.8351
 L 3.4512,-12.4718 L 2.95947,-12.0405 L 2.52824,-11.5488 L 2.16489,-11.005 L 1.87561,-10.4184 L 1.66537,-9.79909
 L 1.53778,-9.15762 L 1.49501,-8.50499 L 1.49501,-6.49501 L 1.53778,-5.84238 L 1.66537,-5.20091 L 1.87561,-4.58159
 L 2.16489,-3.99501 L 2.52824,-3.4512 L 2.95947,-2.95947 L 3.4512,-2.52824 L 3.99501,-2.16489 L 4.58159,-1.87561
 L 5.20091,-1.66537 L 5.84238,-1.53778 L 6.49501,-1.49501 L 113.505,-1.49501 z
M 7.07578,-4.2778 L 6.65883,-4.36073 L 6.25627,-4.49739 L 5.875,-4.68541 L 5.52151,-4.9216 L 5.20189,-5.20189
 L 4.9216,-5.52151 L 4.68541,-5.875 L 4.49739,-6.25627 L 4.36073,-6.65883 L 4.2778,-7.07578 L 4.25,-7.5
 L 4.2778,-7.92421 L 4.36073,-8.34116 L 4.49739,-8.74371 L 4.68541,-9.125 L 4.9216,-9.47847 L 5.20189,-9.7981
 L 5.52151,-10.0784 L 5.875,-10.3146 L 6.25627,-10.5026 L 6.65883,-10.6393 L 7.07578,-10.7222 L 7.5,-10.75
 L 7.92421,-10.7222 L 8.34116,-10.6393 L 8.74371,-10.5026 L 9.125,-10.3146 L 9.47847,-10.0784 L 9.7981,-9.7981
 L 10.0784,-9.47847 L 10.3146,-9.125 L 10.5026,-8.74371 L 10.6393,-8.34116 L 10.7222,-7.92421 L 10.75,-7.5
 L 10.7222,-7.07578 L 10.6393,-6.65883 L 10.5026,-6.25627 L 10.3146,-5.875 L 10.0784,-5.52151 L 9.7981,-5.20189
 L 9.47847,-4.9216 L 9.125,-4.68541 L 8.74371,-4.49739 L 8.34116,-4.36073 L 7.92421,-4.2778 L 7.5,-4.25
 z
M 22.0758,-4.2778 L 21.6588,-4.36073 L 21.2563,-4.49739 L 20.875,-4.68541 L 20.5215,-4.9216 L 20.2019,-5.20189
 L 19.9216,-5.52151 L 19.6854,-5.875 L 19.4974,-6.25627 L 19.3607,-6.65883 L 19.2778,-7.07578 L 19.25,-7.5
 L 19.2778,-7.92421 L 19.3607,-8.34116 L 19.4974,-8.74371 L 19.6854,-9.125 L 19.9216,-9.47847 L 20.2019,-9.7981
 L 20.5215,-10.0784 L 20.875,-10.3146 L 21.2563,-10.5026 L 21.6588,-10.6393 L 22.0758,-10.7222 L 22.5,-10.75
 L 22.9242,-10.7222 L 23.3412,-10.6393 L 23.7437,-10.5026 L 24.125,-10.3146 L 24.4785,-10.0784 L 24.7981,-9.7981
 L 25.0784,-9.47847 L 25.3146,-9.125 L 25.5026,-8.74371 L 25.6393,-8.34116 L 25.7222,-7.92421 L 25.75,-7.5
 L 25.7222,-7.07578 L 25.6393,-6.65883 L 25.5026,-6.25627 L 25.3146,-5.875 L 25.0784,-5.52151 L 24.7981,-5.20189
 L 24.4785,-4.9216 L 24.125,-4.68541 L 23.7437,-4.49739 L 23.3412,-4.36073 L 22.9242,-4.2778 L 22.5,-4.25
 z
M 97.0758,-4.2778 L 96.6588,-4.36073 L 96.2563,-4.49739 L 95.875,-4.68541 L 95.5215,-4.9216 L 95.2019,-5.20189
 L 94.9216,-5.52151 L 94.6854,-5.875 L 94.4974,-6.25627 L 94.3607,-6.65883 L 94.2778,-7.07578 L 94.25,-7.5
 L 94.2778,-7.92421 L 94.3607,-8.34116 L 94.4974,-8.74371 L 94.6854,-9.125 L 94.9216,-9.47847 L 95.2019,-9.7981
 L 95.5215,-10.0784 L 95.875,-10.3146 L 96.2563,-10.5026 L 96.6588,-10.6393 L 97.0758,-10.7222 L 97.5,-10.75
 L 97.9242,-10.7222 L 98.3412,-10.6393 L 98.7437,-10.5026 L 99.125,-10.3146 L 99.4785,-10.0784 L 99.7981,-9.7981
 L 100.078,-9.47847 L 100.315,-9.125 L 100.503,-8.74371 L 100.639,-8.34116 L 100.722,-7.92421 L 100.75,-7.5
 L 100.722,-7.07578 L 100.639,-6.65883 L 100.503,-6.25627 L 100.315,-5.875 L 100.078,-5.52151 L 99.7981,-5.20189
 L 99.4785,-4.9216 L 99.125,-4.68541 L 98.7437,-4.49739 L 98.3412,-4.36073 L 97.9242,-4.2778 L 97.5,-4.25
 z
M 112.076,-4.2778 L 111.659,-4.36073 L 111.256,-4.49739 L 110.875,-4.68541 L 110.522,-4.9216 L 110.202,-5.20189
 L 109.922,-5.52151 L 109.685,-5.875 L 109.497,-6.25627 L 109.361,-6.65883 L 109.278,-7.07578 L 109.25,-7.5
 L 109.278,-7.92421 L 109.361,-8.34116 L 109.497,-8.74371 L 109.685,-9.125 L 109.922,-9.47847 L 110.202,-9.7981
 L 110.522,-10.0784 L 110.875,-10.3146 L 111.256,-10.5026 L 111.659,-10.6393 L 112.076,-10.7222 L 112.5,-10.75
 L 112.924,-10.7222 L 113.341,-10.6393 L 113.744,-10.5026 L 114.125,-10.3146 L 114.478,-10.0784 L 114.798,-9.7981
 L 115.078,-9.47847 L 115.315,-9.125 L 115.503,-8.74371 L 115.639,-8.34116 L 115.722,-7.92421 L 115.75,-7.5
 L 115.722,-7.07578 L 115.639,-6.65883 L 115.503,-6.25627 L 115.315,-5.875 L 115.078,-5.52151 L 114.798,-5.20189
 L 114.478,-4.9216 L 114.125,-4.68541 L 113.744,-4.49739 L 113.341,-4.36073 L 112.924,-4.2778 L 112.5,-4.25
 z
M 82.0758,-4.2778 L 81.6588,-4.36073 L 81.2563,-4.49739 L 80.875,-4.68541 L 80.5215,-4.9216 L 80.2019,-5.20189
 L 79.9216,-5.52151 L 79.6854,-5.875 L 79.4974,-6.25627 L 79.3607,-6.65883 L 79.2778,-7.07578 L 79.25,-7.5
 L 79.2778,-7.92421 L 79.3607,-8.34116 L 79.4974,-8.74371 L 79.6854,-9.125 L 79.9216,-9.47847 L 80.2019,-9.7981
 L 80.5215,-10.0784 L 80.875,-10.3146 L 81.2563,-10.5026 L 81.6588,-10.6393 L 82.0758,-10.7222 L 82.5,-10.75
 L 82.9242,-10.7222 L 83.3412,-10.6393 L 83.7437,-10.5026 L 84.125,-10.3146 L 84.4785,-10.0784 L 84.7981,-9.7981
 L 85.0784,-9.47847 L 85.3146,-9.125 L 85.5026,-8.74371 L 85.6393,-8.34116 L 85.7222,-7.92421 L 85.75,-7.5
 L 85.7222,-7.07578 L 85.6393,-6.65883 L 85.5026,-6.25627 L 85.3146,-5.875 L 85.0784,-5.52151 L 84.7981,-5.20189
 L 84.4785,-4.9216 L 84.125,-4.68541 L 83.7437,-4.49739 L 83.3412,-4.36073 L 82.9242,-4.2778 L 82.5,-4.25
 z
M 52.0758,-4.2778 L 51.6588,-4.36073 L 51.2563,-4.49739 L 50.875,-4.68541 L 50.5215,-4.9216 L 50.2019,-5.20189
 L 49.9216,-5.52151 L 49.6854,-5.875 L 49.4974,-6.25627 L 49.3607,-6.65883 L 49.2778,-7.07578 L 49.25,-7.5
 L 49.2778,-7.92421 L 49.3607,-8.34116 L 49.4974,-8.74371 L 49.6854,-9.125 L 49.9216,-9.47847 L 50.2019,-9.7981
 L 50.5215,-10.0784 L 50.875,-10.3146 L 51.2563,-10.5026 L 51.6588,-10.6393 L 52.0758,-10.7222 L 52.5,-10.75
 L 52.9242,-10.7222 L 53.3412,-10.6393 L 53.7437,-10.5026 L 54.125,-10.3146 L 54.4785,-10.0784 L 54.7981,-9.7981
 L 55.0784,-9.47847 L 55.3146,-9.125 L 55.5026,-8.74371 L 55.6393,-8.34116 L 55.7222,-7.92421 L 55.75,-7.5
 L 55.7222,-7.07578 L 55.6393,-6.65883 L 55.5026,-6.25627 L 55.3146,-5.875 L 55.0784,-5.52151 L 54.7981,-5.20189
 L 54.4785,-4.9216 L 54.125,-4.68541 L 53.7437,-4.49739 L 53.3412,-4.36073 L 52.9242,-4.2778 L 52.5,-4.25
 z
M 37.0758,-4.2778 L 36.6588,-4.36073 L 36.2563,-4.49739 L 35.875,-4.68541 L 35.5215,-4.9216 L 35.2019,-5.20189
 L 34.9216,-5.52151 L 34.6854,-5.875 L 34.4974,-6.25627 L 34.3607,-6.65883 L 34.2778,-7.07578 L 34.25,-7.5
 L 34.2778,-7.92421 L 34.3607,-8.34116 L 34.4974,-8.74371 L 34.6854,-9.125 L 34.9216,-9.47847 L 35.2019,-9.7981
 L 35.5215,-10.0784 L 35.875,-10.3146 L 36.2563,-10.5026 L 36.6588,-10.6393 L 37.0758,-10.7222 L 37.5,-10.75
 L 37.9242,-10.7222 L 38.3412,-10.6393 L 38.7437,-10.5026 L 39.125,-10.3146 L 39.4785,-10.0784 L 39.7981,-9.7981
 L 40.0784,-9.47847 L 40.3146,-9.125 L 40.5026,-8.74371 L 40.6393,-8.34116 L 40.7222,-7.92421 L 40.75,-7.5
 L 40.7222,-7.07578 L 40.6393,-6.65883 L 40.5026,-6.25627 L 40.3146,-5.875 L 40.0784,-5.52151 L 39.7981,-5.20189
 L 39.4785,-4.9216 L 39.125,-4.68541 L 38.7437,-4.49739 L 38.3412,-4.36073 L 37.9242,-4.2778 L 37.5,-4.25
 z
M 67.0758,-4.2778 L 66.6588,-4.36073 L 66.2563,-4.49739 L 65.875,-4.68541 L 65.5215,-4.9216 L 65.2019,-5.20189
 L 64.9216,-5.52151 L 64.6854,-5.875 L 64.4974,-6.25627 L 64.3607,-6.65883 L 64.2778,-7.07578 L 64.25,-7.5
 L 64.2778,-7.92421 L 64.3607,-8.34116 L 64.4974,-8.74371 L 64.6854,-9.125 L 64.9216,-9.47847 L 65.2019,-9.7981
 L 65.5215,-10.0784 L 65.875,-10.3146 L 66.2563,-10.5026 L 66.6588,-10.6393 L 67.0758,-10.7222 L 67.5,-10.75
 L 67.9242,-10.7222 L 68.3412,-10.6393 L 68.7437,-10.5026 L 69.125,-10.3146 L 69.4785,-10.0784 L 69.7981,-9.7981
 L 70.0784,-9.47847 L 70.3146,-9.125 L 70.5026,-8.74371 L 70.6393,-8.34116 L 70.7222,-7.92421 L 70.75,-7.5
 L 70.7222,-7.07578 L 70.6393,-6.65883 L 70.5026,-6.25627 L 70.3146,-5.875 L 70.0784,-5.52151 L 69.7981,-5.20189
 L 69.4785,-4.9216 L 69.125,-4.68541 L 68.7437,-4.49739 L 68.3412,-4.36073 L 67.9242,-4.2778 L 67.5,-4.25
 z
" stroke="black" fill="lightgray" stroke-width="0.5"/>
</svg>
