<?xml version="1.0" standalone="no"?>
<!DOCTYPE svg PUBLIC "-//W3C//DTD SVG 1.1//EN" "http://www.w3.org/Graphics/SVG/1.1/DTD/svg11.dtd">
<svg width="57mm" height="27mm" viewBox="9 -36 57 27" xmlns="http://www.w3.org/2000/svg" version="1.1">
<title>OpenSCAD Model</title>
<path d="
M 61,-9.00986 L 61.3139,-9.00986 L 61.9369,-9.08856 L 62.5451,-9.24471 L 63.1289,-9.47586 L 63.6791,-9.77835
 L 64.1871,-10.1474 L 64.6448,-10.5773 L 65.0451,-11.0611 L 65.3815,-11.5912 L 65.6489,-12.1594 L 65.8429,-12.7565
 L 65.9606,-13.3733 L 66,-14 L 66,-31 L 65.9606,-31.6267 L 65.8429,-32.2434 L 65.6489,-32.8406
 L 65.3815,-33.4088 L 65.0451,-33.9389 L 64.6448,-34.4227 L 64.1871,-34.8526 L 63.6791,-35.2216 L 63.1289,-35.5241
 L 62.5451,-35.7553 L 61.9369,-35.9114 L 61.3139,-35.9901 L 61,-35.9901 L 61,-36 L 14,-36
 L 14,-35.9901 L 13.686,-35.9901 L 13.0631,-35.9114 L 12.4549,-35.7553 L 11.8711,-35.5241 L 11.3209,-35.2216
 L 10.8129,-34.8526 L 10.3551,-34.4227 L 9.95491,-33.9389 L 9.61845,-33.4088 L 9.3511,-32.8406 L 9.15707,-32.2434
 L 9.03941,-31.6267 L 9,-31 L 9,-14 L 9.03941,-13.3733 L 9.15707,-12.7565 L 9.3511,-12.1594
 L 9.61845,-11.5912 L 9.95491,-11.0611 L 10.3551,-10.5773 L 10.8129,-10.1474 L 11.3209,-9.77835 L 11.8711,-9.47586
 L 12.4549,-9.24471 L 13.0631,-9.08856 L 13.686,-9.00986 L 14,-9.00986 L 14,-9 L 61,-9
 z
" stroke="black" fill="lightgray" stroke-width="0.5"/>
</svg>
