<?xml version="1.0" standalone="no"?>
<!DOCTYPE svg PUBLIC "-//W3C//DTD SVG 1.1//EN" "http://www.w3.org/Graphics/SVG/1.1/DTD/svg11.dtd">
<svg width="222mm" height="42mm" viewBox="9 -51 222 42" xmlns="http://www.w3.org/2000/svg" version="1.1">
<title>OpenSCAD Model</title>
<path d="
M 226,-9.00986 L 226.314,-9.00986 L 226.937,-9.08856 L 227.545,-9.24471 L 228.129,-9.47586 L 228.679,-9.77835
 L 229.187,-10.1474 L 229.645,-10.5773 L 230.045,-11.0611 L 230.382,-11.5912 L 230.649,-12.1594 L 230.843,-12.7565
 L 230.961,-13.3733 L 231,-14 L 231,-46 L 230.961,-46.6267 L 230.843,-47.2434 L 230.649,-47.8406
 L 230.382,-48.4088 L 230.045,-48.9389 L 229.645,-49.4227 L 229.187,-49.8526 L 228.679,-50.2216 L 228.129,-50.5241
 L 227.545,-50.7553 L 226.937,-50.9114 L 226.314,-50.9901 L 226,-50.9901 L 226,-51 L 14,-51
 L 14,-50.9901 L 13.686,-50.9901 L 13.0631,-50.9114 L 12.4549,-50.7553 L 11.8711,-50.5241 L 11.3209,-50.2216
 L 10.8129,-49.8526 L 10.3551,-49.4227 L 9.95491,-48.9389 L 9.61845,-48.4088 L 9.3511,-47.8406 L 9.15707,-47.2434
 L 9.03941,-46.6267 L 9,-46 L 9,-14 L 9.03941,-13.3733 L 9.15707,-12.7565 L 9.3511,-12.1594
 L 9.61845,-11.5912 L 9.95491,-11.0611 L 10.3551,-10.5773 L 10.8129,-10.1474 L 11.3209,-9.77835 L 11.8711,-9.47586
 L 12.4549,-9.24471 L 13.0631,-9.08856 L 13.686,-9.00986 L 14,-9.00986 L 14,-9 L 226,-9
 z
M 209.796,-41.7564 L 209.391,-41.8076 L 208.996,-41.9091 L 208.616,-42.0593 L 208.259,-42.2559 L 207.928,-42.4958
 L 207.631,-42.7752 L 207.371,-43.0897 L 207.152,-43.4343 L 206.978,-43.8036 L 206.852,-44.1918 L 206.776,-44.5927
 L 206.75,-45 L 206.776,-45.4073 L 206.852,-45.8082 L 206.978,-46.1964 L 207.152,-46.5657 L 207.371,-46.9103
 L 207.631,-47.2248 L 207.928,-47.5042 L 208.259,-47.7441 L 208.616,-47.9407 L 208.996,-48.0909 L 209.391,-48.1924
 L 209.796,-48.2436 L 210.204,-48.2436 L 210.609,-48.1924 L 211.004,-48.0909 L 211.384,-47.9407 L 211.741,-47.7441
 L 212.072,-47.5042 L 212.369,-47.2248 L 212.629,-46.9103 L 212.848,-46.5657 L 213.022,-46.1964 L 213.148,-45.8082
 L 213.224,-45.4073 L 213.25,-45 L 213.224,-44.5927 L 213.148,-44.1918 L 213.022,-43.8036 L 212.848,-43.4343
 L 212.629,-43.0897 L 212.369,-42.7752 L 212.072,-42.4958 L 211.741,-42.2559 L 211.384,-42.0593 L 211.004,-41.9091
 L 210.609,-41.8076 L 210.204,-41.7564 z
M 14.7959,-41.7564 L 14.391,-41.8076 L 13.9957,-41.9091 L 13.6162,-42.0593 L 13.2586,-42.2559 L 12.9284,-42.4958
 L 12.6308,-42.7752 L 12.3707,-43.0897 L 12.152,-43.4343 L 11.9782,-43.8036 L 11.8521,-44.1918 L 11.7756,-44.5927
 L 11.75,-45 L 11.7756,-45.4073 L 11.8521,-45.8082 L 11.9782,-46.1964 L 12.152,-46.5657 L 12.3707,-46.9103
 L 12.6308,-47.2248 L 12.9284,-47.5042 L 13.2586,-47.7441 L 13.6162,-47.9407 L 13.9957,-48.0909 L 14.391,-48.1924
 L 14.7959,-48.2436 L 15.2041,-48.2436 L 15.609,-48.1924 L 16.0043,-48.0909 L 16.3838,-47.9407 L 16.7414,-47.7441
 L 17.0716,-47.5042 L 17.3691,-47.2248 L 17.6293,-46.9103 L 17.848,-46.5657 L 18.0218,-46.1964 L 18.1479,-45.8082
 L 18.2244,-45.4073 L 18.25,-45 L 18.2244,-44.5927 L 18.1479,-44.1918 L 18.0218,-43.8036 L 17.848,-43.4343
 L 17.6293,-43.0897 L 17.3691,-42.7752 L 17.0716,-42.4958 L 16.7414,-42.2559 L 16.3838,-42.0593 L 16.0043,-41.9091
 L 15.609,-41.8076 L 15.2041,-41.7564 z
M 134.796,-41.7564 L 134.391,-41.8076 L 133.996,-41.9091 L 133.616,-42.0593 L 133.259,-42.2559 L 132.928,-42.4958
 L 132.631,-42.7752 L 132.371,-43.0897 L 132.152,-43.4343 L 131.978,-43.8036 L 131.852,-44.1918 L 131.776,-44.5927
 L 131.75,-45 L 131.776,-45.4073 L 131.852,-45.8082 L 131.978,-46.1964 L 132.152,-46.5657 L 132.371,-46.9103
 L 132.631,-47.2248 L 132.928,-47.5042 L 133.259,-47.7441 L 133.616,-47.9407 L 133.996,-48.0909 L 134.391,-48.1924
 L 134.796,-48.2436 L 135.204,-48.2436 L 135.609,-48.1924 L 136.004,-48.0909 L 136.384,-47.9407 L 136.741,-47.7441
 L 137.072,-47.5042 L 137.369,-47.2248 L 137.629,-46.9103 L 137.848,-46.5657 L 138.022,-46.1964 L 138.148,-45.8082
 L 138.224,-45.4073 L 138.25,-45 L 138.224,-44.5927 L 138.148,-44.1918 L 138.022,-43.8036 L 137.848,-43.4343
 L 137.629,-43.0897 L 137.369,-42.7752 L 137.072,-42.4958 L 136.741,-42.2559 L 136.384,-42.0593 L 136.004,-41.9091
 L 135.609,-41.8076 L 135.204,-41.7564 z
M 119.796,-41.7564 L 119.391,-41.8076 L 118.996,-41.9091 L 118.616,-42.0593 L 118.259,-42.2559 L 117.928,-42.4958
 L 117.631,-42.7752 L 117.371,-43.0897 L 117.152,-43.4343 L 116.978,-43.8036 L 116.852,-44.1918 L 116.776,-44.5927
 L 116.75,-45 L 116.776,-45.4073 L 116.852,-45.8082 L 116.978,-46.1964 L 117.152,-46.5657 L 117.371,-46.9103
 L 117.631,-47.2248 L 117.928,-47.5042 L 118.259,-47.7441 L 118.616,-47.9407 L 118.996,-48.0909 L 119.391,-48.1924
 L 119.796,-48.2436 L 120.204,-48.2436 L 120.609,-48.1924 L 121.004,-48.0909 L 121.384,-47.9407 L 121.741,-47.7441
 L 122.072,-47.5042 L 122.369,-47.2248 L 122.629,-46.9103 L 122.848,-46.5657 L 123.022,-46.1964 L 123.148,-45.8082
 L 123.224,-45.4073 L 123.25,-45 L 123.224,-44.5927 L 123.148,-44.1918 L 123.022,-43.8036 L 122.848,-43.4343
 L 122.629,-43.0897 L 122.369,-42.7752 L 122.072,-42.4958 L 121.741,-42.2559 L 121.384,-42.0593 L 121.004,-41.9091
 L 120.609,-41.8076 L 120.204,-41.7564 z
M 149.796,-41.7564 L 149.391,-41.8076 L 148.996,-41.9091 L 148.616,-42.0593 L 148.259,-42.2559 L 147.928,-42.4958
 L 147.631,-42.7752 L 147.371,-43.0897 L 147.152,-43.4343 L 146.978,-43.8036 L 146.852,-44.1918 L 146.776,-44.5927
 L 146.75,-45 L 146.776,-45.4073 L 146.852,-45.8082 L 146.978,-46.1964 L 147.152,-46.5657 L 147.371,-46.9103
 L 147.631,-47.2248 L 147.928,-47.5042 L 148.259,-47.7441 L 148.616,-47.9407 L 148.996,-48.0909 L 149.391,-48.1924
 L 149.796,-48.2436 L 150.204,-48.2436 L 150.609,-48.1924 L 151.004,-48.0909 L 151.384,-47.9407 L 151.741,-47.7441
 L 152.072,-47.5042 L 152.369,-47.2248 L 152.629,-46.9103 L 152.848,-46.5657 L 153.022,-46.1964 L 153.148,-45.8082
 L 153.224,-45.4073 L 153.25,-45 L 153.224,-44.5927 L 153.148,-44.1918 L 153.022,-43.8036 L 152.848,-43.4343
 L 152.629,-43.0897 L 152.369,-42.7752 L 152.072,-42.4958 L 151.741,-42.2559 L 151.384,-42.0593 L 151.004,-41.9091
 L 150.609,-41.8076 L 150.204,-41.7564 z
M 104.796,-41.7564 L 104.391,-41.8076 L 103.996,-41.9091 L 103.616,-42.0593 L 103.259,-42.2559 L 102.928,-42.4958
 L 102.631,-42.7752 L 102.371,-43.0897 L 102.152,-43.4343 L 101.978,-43.8036 L 101.852,-44.1918 L 101.776,-44.5927
 L 101.75,-45 L 101.776,-45.4073 L 101.852,-45.8082 L 101.978,-46.1964 L 102.152,-46.5657 L 102.371,-46.9103
 L 102.631,-47.2248 L 102.928,-47.5042 L 103.259,-47.7441 L 103.616,-47.9407 L 103.996,-48.0909 L 104.391,-48.1924
 L 104.796,-48.2436 L 105.204,-48.2436 L 105.609,-48.1924 L 106.004,-48.0909 L 106.384,-47.9407 L 106.741,-47.7441
 L 107.072,-47.5042 L 107.369,-47.2248 L 107.629,-46.9103 L 107.848,-46.5657 L 108.022,-46.1964 L 108.148,-45.8082
 L 108.224,-45.4073 L 108.25,-45 L 108.224,-44.5927 L 108.148,-44.1918 L 108.022,-43.8036 L 107.848,-43.4343
 L 107.629,-43.0897 L 107.369,-42.7752 L 107.072,-42.4958 L 106.741,-42.2559 L 106.384,-42.0593 L 106.004,-41.9091
 L 105.609,-41.8076 L 105.204,-41.7564 z
M 164.796,-41.7564 L 164.391,-41.8076 L 163.996,-41.9091 L 163.616,-42.0593 L 163.259,-42.2559 L 162.928,-42.4958
 L 162.631,-42.7752 L 162.371,-43.0897 L 162.152,-43.4343 L 161.978,-43.8036 L 161.852,-44.1918 L 161.776,-44.5927
 L 161.75,-45 L 161.776,-45.4073 L 161.852,-45.8082 L 161.978,-46.1964 L 162.152,-46.5657 L 162.371,-46.9103
 L 162.631,-47.2248 L 162.928,-47.5042 L 163.259,-47.7441 L 163.616,-47.9407 L 163.996,-48.0909 L 164.391,-48.1924
 L 164.796,-48.2436 L 165.204,-48.2436 L 165.609,-48.1924 L 166.004,-48.0909 L 166.384,-47.9407 L 166.741,-47.7441
 L 167.072,-47.5042 L 167.369,-47.2248 L 167.629,-46.9103 L 167.848,-46.5657 L 168.022,-46.1964 L 168.148,-45.8082
 L 168.224,-45.4073 L 168.25,-45 L 168.224,-44.5927 L 168.148,-44.1918 L 168.022,-43.8036 L 167.848,-43.4343
 L 167.629,-43.0897 L 167.369,-42.7752 L 167.072,-42.4958 L 166.741,-42.2559 L 166.384,-42.0593 L 166.004,-41.9091
 L 165.609,-41.8076 L 165.204,-41.7564 z
M 89.7959,-41.7564 L 89.391,-41.8076 L 88.9957,-41.9091 L 88.6162,-42.0593 L 88.2586,-42.2559 L 87.9284,-42.4958
 L 87.6308,-42.7752 L 87.3707,-43.0897 L 87.152,-43.4343 L 86.9782,-43.8036 L 86.8521,-44.1918 L 86.7756,-44.5927
 L 86.75,-45 L 86.7756,-45.4073 L 86.8521,-45.8082 L 86.9782,-46.1964 L 87.152,-46.5657 L 87.3707,-46.9103
 L 87.6308,-47.2248 L 87.9284,-47.5042 L 88.2586,-47.7441 L 88.6162,-47.9407 L 88.9957,-48.0909 L 89.391,-48.1924
 L 89.7959,-48.2436 L 90.2041,-48.2436 L 90.609,-48.1924 L 91.0043,-48.0909 L 91.3838,-47.9407 L 91.7414,-47.7441
 L 92.0716,-47.5042 L 92.3691,-47.2248 L 92.6293,-46.9103 L 92.848,-46.5657 L 93.0218,-46.1964 L 93.1479,-45.8082
 L 93.2244,-45.4073 L 93.25,-45 L 93.2244,-44.5927 L 93.1479,-44.1918 L 93.0218,-43.8036 L 92.848,-43.4343
 L 92.6293,-43.0897 L 92.3691,-42.7752 L 92.0716,-42.4958 L 91.7414,-42.2559 L 91.3838,-42.0593 L 91.0043,-41.9091
 L 90.609,-41.8076 L 90.2041,-41.7564 z
M 179.796,-41.7564 L 179.391,-41.8076 L 178.996,-41.9091 L 178.616,-42.0593 L 178.259,-42.2559 L 177.928,-42.4958
 L 177.631,-42.7752 L 177.371,-43.0897 L 177.152,-43.4343 L 176.978,-43.8036 L 176.852,-44.1918 L 176.776,-44.5927
 L 176.75,-45 L 176.776,-45.4073 L 176.852,-45.8082 L 176.978,-46.1964 L 177.152,-46.5657 L 177.371,-46.9103
 L 177.631,-47.2248 L 177.928,-47.5042 L 178.259,-47.7441 L 178.616,-47.9407 L 178.996,-48.0909 L 179.391,-48.1924
 L 179.796,-48.2436 L 180.204,-48.2436 L 180.609,-48.1924 L 181.004,-48.0909 L 181.384,-47.9407 L 181.741,-47.7441
 L 182.072,-47.5042 L 182.369,-47.2248 L 182.629,-46.9103 L 182.848,-46.5657 L 183.022,-46.1964 L 183.148,-45.8082
 L 183.224,-45.4073 L 183.25,-45 L 183.224,-44.5927 L 183.148,-44.1918 L 183.022,-43.8036 L 182.848,-43.4343
 L 182.629,-43.0897 L 182.369,-42.7752 L 182.072,-42.4958 L 181.741,-42.2559 L 181.384,-42.0593 L 181.004,-41.9091
 L 180.609,-41.8076 L 180.204,-41.7564 z
M 74.7959,-41.7564 L 74.391,-41.8076 L 73.9957,-41.9091 L 73.6162,-42.0593 L 73.2586,-42.2559 L 72.9284,-42.4958
 L 72.6308,-42.7752 L 72.3707,-43.0897 L 72.152,-43.4343 L 71.9782,-43.8036 L 71.8521,-44.1918 L 71.7756,-44.5927
 L 71.75,-45 L 71.7756,-45.4073 L 71.8521,-45.8082 L 71.9782,-46.1964 L 72.152,-46.5657 L 72.3707,-46.9103
 L 72.6308,-47.2248 L 72.9284,-47.5042 L 73.2586,-47.7441 L 73.6162,-47.9407 L 73.9957,-48.0909 L 74.391,-48.1924
 L 74.7959,-48.2436 L 75.2041,-48.2436 L 75.609,-48.1924 L 76.0043,-48.0909 L 76.3838,-47.9407 L 76.7414,-47.7441
 L 77.0716,-47.5042 L 77.3691,-47.2248 L 77.6293,-46.9103 L 77.848,-46.5657 L 78.0218,-46.1964 L 78.1479,-45.8082
 L 78.2244,-45.4073 L 78.25,-45 L 78.2244,-44.5927 L 78.1479,-44.1918 L 78.0218,-43.8036 L 77.848,-43.4343
 L 77.6293,-43.0897 L 77.3691,-42.7752 L 77.0716,-42.4958 L 76.7414,-42.2559 L 76.3838,-42.0593 L 76.0043,-41.9091
 L 75.609,-41.8076 L 75.2041,-41.7564 z
M 194.796,-41.7564 L 194.391,-41.8076 L 193.996,-41.9091 L 193.616,-42.0593 L 193.259,-42.2559 L 192.928,-42.4958
 L 192.631,-42.7752 L 192.371,-43.0897 L 192.152,-43.4343 L 191.978,-43.8036 L 191.852,-44.1918 L 191.776,-44.5927
 L 191.75,-45 L 191.776,-45.4073 L 191.852,-45.8082 L 191.978,-46.1964 L 192.152,-46.5657 L 192.371,-46.9103
 L 192.631,-47.2248 L 192.928,-47.5042 L 193.259,-47.7441 L 193.616,-47.9407 L 193.996,-48.0909 L 194.391,-48.1924
 L 194.796,-48.2436 L 195.204,-48.2436 L 195.609,-48.1924 L 196.004,-48.0909 L 196.384,-47.9407 L 196.741,-47.7441
 L 197.072,-47.5042 L 197.369,-47.2248 L 197.629,-46.9103 L 197.848,-46.5657 L 198.022,-46.1964 L 198.148,-45.8082
 L 198.224,-45.4073 L 198.25,-45 L 198.224,-44.5927 L 198.148,-44.1918 L 198.022,-43.8036 L 197.848,-43.4343
 L 197.629,-43.0897 L 197.369,-42.7752 L 197.072,-42.4958 L 196.741,-42.2559 L 196.384,-42.0593 L 196.004,-41.9091
 L 195.609,-41.8076 L 195.204,-41.7564 z
M 59.7959,-41.7564 L 59.391,-41.8076 L 58.9957,-41.9091 L 58.6162,-42.0593 L 58.2586,-42.2559 L 57.9284,-42.4958
 L 57.6308,-42.7752 L 57.3707,-43.0897 L 57.152,-43.4343 L 56.9782,-43.8036 L 56.8521,-44.1918 L 56.7756,-44.5927
 L 56.75,-45 L 56.7756,-45.4073 L 56.8521,-45.8082 L 56.9782,-46.1964 L 57.152,-46.5657 L 57.3707,-46.9103
 L 57.6308,-47.2248 L 57.9284,-47.5042 L 58.2586,-47.7441 L 58.6162,-47.9407 L 58.9957,-48.0909 L 59.391,-48.1924
 L 59.7959,-48.2436 L 60.2041,-48.2436 L 60.609,-48.1924 L 61.0043,-48.0909 L 61.3838,-47.9407 L 61.7414,-47.7441
 L 62.0716,-47.5042 L 62.3691,-47.2248 L 62.6293,-46.9103 L 62.848,-46.5657 L 63.0218,-46.1964 L 63.1479,-45.8082
 L 63.2244,-45.4073 L 63.25,-45 L 63.2244,-44.5927 L 63.1479,-44.1918 L 63.0218,-43.8036 L 62.848,-43.4343
 L 62.6293,-43.0897 L 62.3691,-42.7752 L 62.0716,-42.4958 L 61.7414,-42.2559 L 61.3838,-42.0593 L 61.0043,-41.9091
 L 60.609,-41.8076 L 60.2041,-41.7564 z
M 44.7959,-41.7564 L 44.391,-41.8076 L 43.9957,-41.9091 L 43.6162,-42.0593 L 43.2586,-42.2559 L 42.9284,-42.4958
 L 42.6308,-42.7752 L 42.3707,-43.0897 L 42.152,-43.4343 L 41.9782,-43.8036 L 41.8521,-44.1918 L 41.7756,-44.5927
 L 41.75,-45 L 41.7756,-45.4073 L 41.8521,-45.8082 L 41.9782,-46.1964 L 42.152,-46.5657 L 42.3707,-46.9103
 L 42.6308,-47.2248 L 42.9284,-47.5042 L 43.2586,-47.7441 L 43.6162,-47.9407 L 43.9957,-48.0909 L 44.391,-48.1924
 L 44.7959,-48.2436 L 45.2041,-48.2436 L 45.609,-48.1924 L 46.0043,-48.0909 L 46.3838,-47.9407 L 46.7414,-47.7441
 L 47.0716,-47.5042 L 47.3691,-47.2248 L 47.6293,-46.9103 L 47.848,-46.5657 L 48.0218,-46.1964 L 48.1479,-45.8082
 L 48.2244,-45.4073 L 48.25,-45 L 48.2244,-44.5927 L 48.1479,-44.1918 L 48.0218,-43.8036 L 47.848,-43.4343
 L 47.6293,-43.0897 L 47.3691,-42.7752 L 47.0716,-42.4958 L 46.7414,-42.2559 L 46.3838,-42.0593 L 46.0043,-41.9091
 L 45.609,-41.8076 L 45.2041,-41.7564 z
M 224.796,-41.7564 L 224.391,-41.8076 L 223.996,-41.9091 L 223.616,-42.0593 L 223.259,-42.2559 L 222.928,-42.4958
 L 222.631,-42.7752 L 222.371,-43.0897 L 222.152,-43.4343 L 221.978,-43.8036 L 221.852,-44.1918 L 221.776,-44.5927
 L 221.75,-45 L 221.776,-45.4073 L 221.852,-45.8082 L 221.978,-46.1964 L 222.152,-46.5657 L 222.371,-46.9103
 L 222.631,-47.2248 L 222.928,-47.5042 L 223.259,-47.7441 L 223.616,-47.9407 L 223.996,-48.0909 L 224.391,-48.1924
 L 224.796,-48.2436 L 225.204,-48.2436 L 225.609,-48.1924 L 226.004,-48.0909 L 226.384,-47.9407 L 226.741,-47.7441
 L 227.072,-47.5042 L 227.369,-47.2248 L 227.629,-46.9103 L 227.848,-46.5657 L 228.022,-46.1964 L 228.148,-45.8082
 L 228.224,-45.4073 L 228.25,-45 L 228.224,-44.5927 L 228.148,-44.1918 L 228.022,-43.8036 L 227.848,-43.4343
 L 227.629,-43.0897 L 227.369,-42.7752 L 227.072,-42.4958 L 226.741,-42.2559 L 226.384,-42.0593 L 226.004,-41.9091
 L 225.609,-41.8076 L 225.204,-41.7564 z
M 29.7959,-41.7564 L 29.391,-41.8076 L 28.9957,-41.9091 L 28.6162,-42.0593 L 28.2586,-42.2559 L 27.9284,-42.4958
 L 27.6308,-42.7752 L 27.3707,-43.0897 L 27.152,-43.4343 L 26.9782,-43.8036 L 26.8521,-44.1918 L 26.7756,-44.5927
 L 26.75,-45 L 26.7756,-45.4073 L 26.8521,-45.8082 L 26.9782,-46.1964 L 27.152,-46.5657 L 27.3707,-46.9103
 L 27.6308,-47.2248 L 27.9284,-47.5042 L 28.2586,-47.7441 L 28.6162,-47.9407 L 28.9957,-48.0909 L 29.391,-48.1924
 L 29.7959,-48.2436 L 30.2041,-48.2436 L 30.609,-48.1924 L 31.0043,-48.0909 L 31.3838,-47.9407 L 31.7414,-47.7441
 L 32.0716,-47.5042 L 32.3691,-47.2248 L 32.6293,-46.9103 L 32.848,-46.5657 L 33.0218,-46.1964 L 33.1479,-45.8082
 L 33.2244,-45.4073 L 33.25,-45 L 33.2244,-44.5927 L 33.1479,-44.1918 L 33.0218,-43.8036 L 32.848,-43.4343
 L 32.6293,-43.0897 L 32.3691,-42.7752 L 32.0716,-42.4958 L 31.7414,-42.2559 L 31.3838,-42.0593 L 31.0043,-41.9091
 L 30.609,-41.8076 L 30.2041,-41.7564 z
M 44.7959,-26.7564 L 44.391,-26.8076 L 43.9957,-26.9091 L 43.6162,-27.0593 L 43.2586,-27.2559 L 42.9284,-27.4958
 L 42.6308,-27.7752 L 42.3707,-28.0897 L 42.152,-28.4343 L 41.9782,-28.8036 L 41.8521,-29.1918 L 41.7756,-29.5927
 L 41.75,-30 L 41.7756,-30.4073 L 41.8521,-30.8082 L 41.9782,-31.1964 L 42.152,-31.5657 L 42.3707,-31.9103
 L 42.6308,-32.2248 L 42.9284,-32.5042 L 43.2586,-32.7441 L 43.6162,-32.9407 L 43.9957,-33.0909 L 44.391,-33.1924
 L 44.7959,-33.2436 L 45.2041,-33.2436 L 45.609,-33.1924 L 46.0043,-33.0909 L 46.3838,-32.9407 L 46.7414,-32.7441
 L 47.0716,-32.5042 L 47.3691,-32.2248 L 47.6293,-31.9103 L 47.848,-31.5657 L 48.0218,-31.1964 L 48.1479,-30.8082
 L 48.2244,-30.4073 L 48.25,-30 L 48.2244,-29.5927 L 48.1479,-29.1918 L 48.0218,-28.8036 L 47.848,-28.4343
 L 47.6293,-28.0897 L 47.3691,-27.7752 L 47.0716,-27.4958 L 46.7414,-27.2559 L 46.3838,-27.0593 L 46.0043,-26.9091
 L 45.609,-26.8076 L 45.2041,-26.7564 z
M 59.7959,-26.7564 L 59.391,-26.8076 L 58.9957,-26.9091 L 58.6162,-27.0593 L 58.2586,-27.2559 L 57.9284,-27.4958
 L 57.6308,-27.7752 L 57.3707,-28.0897 L 57.152,-28.4343 L 56.9782,-28.8036 L 56.8521,-29.1918 L 56.7756,-29.5927
 L 56.75,-30 L 56.7756,-30.4073 L 56.8521,-30.8082 L 56.9782,-31.1964 L 57.152,-31.5657 L 57.3707,-31.9103
 L 57.6308,-32.2248 L 57.9284,-32.5042 L 58.2586,-32.7441 L 58.6162,-32.9407 L 58.9957,-33.0909 L 59.391,-33.1924
 L 59.7959,-33.2436 L 60.2041,-33.2436 L 60.609,-33.1924 L 61.0043,-33.0909 L 61.3838,-32.9407 L 61.7414,-32.7441
 L 62.0716,-32.5042 L 62.3691,-32.2248 L 62.6293,-31.9103 L 62.848,-31.5657 L 63.0218,-31.1964 L 63.1479,-30.8082
 L 63.2244,-30.4073 L 63.25,-30 L 63.2244,-29.5927 L 63.1479,-29.1918 L 63.0218,-28.8036 L 62.848,-28.4343
 L 62.6293,-28.0897 L 62.3691,-27.7752 L 62.0716,-27.4958 L 61.7414,-27.2559 L 61.3838,-27.0593 L 61.0043,-26.9091
 L 60.609,-26.8076 L 60.2041,-26.7564 z
M 74.7959,-26.7564 L 74.391,-26.8076 L 73.9957,-26.9091 L 73.6162,-27.0593 L 73.2586,-27.2559 L 72.9284,-27.4958
 L 72.6308,-27.7752 L 72.3707,-28.0897 L 72.152,-28.4343 L 71.9782,-28.8036 L 71.8521,-29.1918 L 71.7756,-29.5927
 L 71.75,-30 L 71.7756,-30.4073 L 71.8521,-30.8082 L 71.9782,-31.1964 L 72.152,-31.5657 L 72.3707,-31.9103
 L 72.6308,-32.2248 L 72.9284,-32.5042 L 73.2586,-32.7441 L 73.6162,-32.9407 L 73.9957,-33.0909 L 74.391,-33.1924
 L 74.7959,-33.2436 L 75.2041,-33.2436 L 75.609,-33.1924 L 76.0043,-33.0909 L 76.3838,-32.9407 L 76.7414,-32.7441
 L 77.0716,-32.5042 L 77.3691,-32.2248 L 77.6293,-31.9103 L 77.848,-31.5657 L 78.0218,-31.1964 L 78.1479,-30.8082
 L 78.2244,-30.4073 L 78.25,-30 L 78.2244,-29.5927 L 78.1479,-29.1918 L 78.0218,-28.8036 L 77.848,-28.4343
 L 77.6293,-28.0897 L 77.3691,-27.7752 L 77.0716,-27.4958 L 76.7414,-27.2559 L 76.3838,-27.0593 L 76.0043,-26.9091
 L 75.609,-26.8076 L 75.2041,-26.7564 z
M 89.7959,-26.7564 L 89.391,-26.8076 L 88.9957,-26.9091 L 88.6162,-27.0593 L 88.2586,-27.2559 L 87.9284,-27.4958
 L 87.6308,-27.7752 L 87.3707,-28.0897 L 87.152,-28.4343 L 86.9782,-28.8036 L 86.8521,-29.1918 L 86.7756,-29.5927
 L 86.75,-30 L 86.7756,-30.4073 L 86.8521,-30.8082 L 86.9782,-31.1964 L 87.152,-31.5657 L 87.3707,-31.9103
 L 87.6308,-32.2248 L 87.9284,-32.5042 L 88.2586,-32.7441 L 88.6162,-32.9407 L 88.9957,-33.0909 L 89.391,-33.1924
 L 89.7959,-33.2436 L 90.2041,-33.2436 L 90.609,-33.1924 L 91.0043,-33.0909 L 91.3838,-32.9407 L 91.7414,-32.7441
 L 92.0716,-32.5042 L 92.3691,-32.2248 L 92.6293,-31.9103 L 92.848,-31.5657 L 93.0218,-31.1964 L 93.1479,-30.8082
 L 93.2244,-30.4073 L 93.25,-30 L 93.2244,-29.5927 L 93.1479,-29.1918 L 93.0218,-28.8036 L 92.848,-28.4343
 L 92.6293,-28.0897 L 92.3691,-27.7752 L 92.0716,-27.4958 L 91.7414,-27.2559 L 91.3838,-27.0593 L 91.0043,-26.9091
 L 90.609,-26.8076 L 90.2041,-26.7564 z
M 29.7959,-26.7564 L 29.391,-26.8076 L 28.9957,-26.9091 L 28.6162,-27.0593 L 28.2586,-27.2559 L 27.9284,-27.4958
 L 27.6308,-27.7752 L 27.3707,-28.0897 L 27.152,-28.4343 L 26.9782,-28.8036 L 26.8521,-29.1918 L 26.7756,-29.5927
 L 26.75,-30 L 26.7756,-30.4073 L 26.8521,-30.8082 L 26.9782,-31.1964 L 27.152,-31.5657 L 27.3707,-31.9103
 L 27.6308,-32.2248 L 27.9284,-32.5042 L 28.2586,-32.7441 L 28.6162,-32.9407 L 28.9957,-33.0909 L 29.391,-33.1924
 L 29.7959,-33.2436 L 30.2041,-33.2436 L 30.609,-33.1924 L 31.0043,-33.0909 L 31.3838,-32.9407 L 31.7414,-32.7441
 L 32.0716,-32.5042 L 32.3691,-32.2248 L 32.6293,-31.9103 L 32.848,-31.5657 L 33.0218,-31.1964 L 33.1479,-30.8082
 L 33.2244,-30.4073 L 33.25,-30 L 33.2244,-29.5927 L 33.1479,-29.1918 L 33.0218,-28.8036 L 32.848,-28.4343
 L 32.6293,-28.0897 L 32.3691,-27.7752 L 32.0716,-27.4958 L 31.7414,-27.2559 L 31.3838,-27.0593 L 31.0043,-26.9091
 L 30.609,-26.8076 L 30.2041,-26.7564 z
M 104.796,-26.7564 L 104.391,-26.8076 L 103.996,-26.9091 L 103.616,-27.0593 L 103.259,-27.2559 L 102.928,-27.4958
 L 102.631,-27.7752 L 102.371,-28.0897 L 102.152,-28.4343 L 101.978,-28.8036 L 101.852,-29.1918 L 101.776,-29.5927
 L 101.75,-30 L 101.776,-30.4073 L 101.852,-30.8082 L 101.978,-31.1964 L 102.152,-31.5657 L 102.371,-31.9103
 L 102.631,-32.2248 L 102.928,-32.5042 L 103.259,-32.7441 L 103.616,-32.9407 L 103.996,-33.0909 L 104.391,-33.1924
 L 104.796,-33.2436 L 105.204,-33.2436 L 105.609,-33.1924 L 106.004,-33.0909 L 106.384,-32.9407 L 106.741,-32.7441
 L 107.072,-32.5042 L 107.369,-32.2248 L 107.629,-31.9103 L 107.848,-31.5657 L 108.022,-31.1964 L 108.148,-30.8082
 L 108.224,-30.4073 L 108.25,-30 L 108.224,-29.5927 L 108.148,-29.1918 L 108.022,-28.8036 L 107.848,-28.4343
 L 107.629,-28.0897 L 107.369,-27.7752 L 107.072,-27.4958 L 106.741,-27.2559 L 106.384,-27.0593 L 106.004,-26.9091
 L 105.609,-26.8076 L 105.204,-26.7564 z
M 119.796,-26.7564 L 119.391,-26.8076 L 118.996,-26.9091 L 118.616,-27.0593 L 118.259,-27.2559 L 117.928,-27.4958
 L 117.631,-27.7752 L 117.371,-28.0897 L 117.152,-28.4343 L 116.978,-28.8036 L 116.852,-29.1918 L 116.776,-29.5927
 L 116.75,-30 L 116.776,-30.4073 L 116.852,-30.8082 L 116.978,-31.1964 L 117.152,-31.5657 L 117.371,-31.9103
 L 117.631,-32.2248 L 117.928,-32.5042 L 118.259,-32.7441 L 118.616,-32.9407 L 118.996,-33.0909 L 119.391,-33.1924
 L 119.796,-33.2436 L 120.204,-33.2436 L 120.609,-33.1924 L 121.004,-33.0909 L 121.384,-32.9407 L 121.741,-32.7441
 L 122.072,-32.5042 L 122.369,-32.2248 L 122.629,-31.9103 L 122.848,-31.5657 L 123.022,-31.1964 L 123.148,-30.8082
 L 123.224,-30.4073 L 123.25,-30 L 123.224,-29.5927 L 123.148,-29.1918 L 123.022,-28.8036 L 122.848,-28.4343
 L 122.629,-28.0897 L 122.369,-27.7752 L 122.072,-27.4958 L 121.741,-27.2559 L 121.384,-27.0593 L 121.004,-26.9091
 L 120.609,-26.8076 L 120.204,-26.7564 z
M 134.796,-26.7564 L 134.391,-26.8076 L 133.996,-26.9091 L 133.616,-27.0593 L 133.259,-27.2559 L 132.928,-27.4958
 L 132.631,-27.7752 L 132.371,-28.0897 L 132.152,-28.4343 L 131.978,-28.8036 L 131.852,-29.1918 L 131.776,-29.5927
 L 131.75,-30 L 131.776,-30.4073 L 131.852,-30.8082 L 131.978,-31.1964 L 132.152,-31.5657 L 132.371,-31.9103
 L 132.631,-32.2248 L 132.928,-32.5042 L 133.259,-32.7441 L 133.616,-32.9407 L 133.996,-33.0909 L 134.391,-33.1924
 L 134.796,-33.2436 L 135.204,-33.2436 L 135.609,-33.1924 L 136.004,-33.0909 L 136.384,-32.9407 L 136.741,-32.7441
 L 137.072,-32.5042 L 137.369,-32.2248 L 137.629,-31.9103 L 137.848,-31.5657 L 138.022,-31.1964 L 138.148,-30.8082
 L 138.224,-30.4073 L 138.25,-30 L 138.224,-29.5927 L 138.148,-29.1918 L 138.022,-28.8036 L 137.848,-28.4343
 L 137.629,-28.0897 L 137.369,-27.7752 L 137.072,-27.4958 L 136.741,-27.2559 L 136.384,-27.0593 L 136.004,-26.9091
 L 135.609,-26.8076 L 135.204,-26.7564 z
M 149.796,-26.7564 L 149.391,-26.8076 L 148.996,-26.9091 L 148.616,-27.0593 L 148.259,-27.2559 L 147.928,-27.4958
 L 147.631,-27.7752 L 147.371,-28.0897 L 147.152,-28.4343 L 146.978,-28.8036 L 146.852,-29.1918 L 146.776,-29.5927
 L 146.75,-30 L 146.776,-30.4073 L 146.852,-30.8082 L 146.978,-31.1964 L 147.152,-31.5657 L 147.371,-31.9103
 L 147.631,-32.2248 L 147.928,-32.5042 L 148.259,-32.7441 L 148.616,-32.9407 L 148.996,-33.0909 L 149.391,-33.1924
 L 149.796,-33.2436 L 150.204,-33.2436 L 150.609,-33.1924 L 151.004,-33.0909 L 151.384,-32.9407 L 151.741,-32.7441
 L 152.072,-32.5042 L 152.369,-32.2248 L 152.629,-31.9103 L 152.848,-31.5657 L 153.022,-31.1964 L 153.148,-30.8082
 L 153.224,-30.4073 L 153.25,-30 L 153.224,-29.5927 L 153.148,-29.1918 L 153.022,-28.8036 L 152.848,-28.4343
 L 152.629,-28.0897 L 152.369,-27.7752 L 152.072,-27.4958 L 151.741,-27.2559 L 151.384,-27.0593 L 151.004,-26.9091
 L 150.609,-26.8076 L 150.204,-26.7564 z
M 209.796,-26.7564 L 209.391,-26.8076 L 208.996,-26.9091 L 208.616,-27.0593 L 208.259,-27.2559 L 207.928,-27.4958
 L 207.631,-27.7752 L 207.371,-28.0897 L 207.152,-28.4343 L 206.978,-28.8036 L 206.852,-29.1918 L 206.776,-29.5927
 L 206.75,-30 L 206.776,-30.4073 L 206.852,-30.8082 L 206.978,-31.1964 L 207.152,-31.5657 L 207.371,-31.9103
 L 207.631,-32.2248 L 207.928,-32.5042 L 208.259,-32.7441 L 208.616,-32.9407 L 208.996,-33.0909 L 209.391,-33.1924
 L 209.796,-33.2436 L 210.204,-33.2436 L 210.609,-33.1924 L 211.004,-33.0909 L 211.384,-32.9407 L 211.741,-32.7441
 L 212.072,-32.5042 L 212.369,-32.2248 L 212.629,-31.9103 L 212.848,-31.5657 L 213.022,-31.1964 L 213.148,-30.8082
 L 213.224,-30.4073 L 213.25,-30 L 213.224,-29.5927 L 213.148,-29.1918 L 213.022,-28.8036 L 212.848,-28.4343
 L 212.629,-28.0897 L 212.369,-27.7752 L 212.072,-27.4958 L 211.741,-27.2559 L 211.384,-27.0593 L 211.004,-26.9091
 L 210.609,-26.8076 L 210.204,-26.7564 z
M 164.796,-26.7564 L 164.391,-26.8076 L 163.996,-26.9091 L 163.616,-27.0593 L 163.259,-27.2559 L 162.928,-27.4958
 L 162.631,-27.7752 L 162.371,-28.0897 L 162.152,-28.4343 L 161.978,-28.8036 L 161.852,-29.1918 L 161.776,-29.5927
 L 161.75,-30 L 161.776,-30.4073 L 161.852,-30.8082 L 161.978,-31.1964 L 162.152,-31.5657 L 162.371,-31.9103
 L 162.631,-32.2248 L 162.928,-32.5042 L 163.259,-32.7441 L 163.616,-32.9407 L 163.996,-33.0909 L 164.391,-33.1924
 L 164.796,-33.2436 L 165.204,-33.2436 L 165.609,-33.1924 L 166.004,-33.0909 L 166.384,-32.9407 L 166.741,-32.7441
 L 167.072,-32.5042 L 167.369,-32.2248 L 167.629,-31.9103 L 167.848,-31.5657 L 168.022,-31.1964 L 168.148,-30.8082
 L 168.224,-30.4073 L 168.25,-30 L 168.224,-29.5927 L 168.148,-29.1918 L 168.022,-28.8036 L 167.848,-28.4343
 L 167.629,-28.0897 L 167.369,-27.7752 L 167.072,-27.4958 L 166.741,-27.2559 L 166.384,-27.0593 L 166.004,-26.9091
 L 165.609,-26.8076 L 165.204,-26.7564 z
M 194.796,-26.7564 L 194.391,-26.8076 L 193.996,-26.9091 L 193.616,-27.0593 L 193.259,-27.2559 L 192.928,-27.4958
 L 192.631,-27.7752 L 192.371,-28.0897 L 192.152,-28.4343 L 191.978,-28.8036 L 191.852,-29.1918 L 191.776,-29.5927
 L 191.75,-30 L 191.776,-30.4073 L 191.852,-30.8082 L 191.978,-31.1964 L 192.152,-31.5657 L 192.371,-31.9103
 L 192.631,-32.2248 L 192.928,-32.5042 L 193.259,-32.7441 L 193.616,-32.9407 L 193.996,-33.0909 L 194.391,-33.1924
 L 194.796,-33.2436 L 195.204,-33.2436 L 195.609,-33.1924 L 196.004,-33.0909 L 196.384,-32.9407 L 196.741,-32.7441
 L 197.072,-32.5042 L 197.369,-32.2248 L 197.629,-31.9103 L 197.848,-31.5657 L 198.022,-31.1964 L 198.148,-30.8082
 L 198.224,-30.4073 L 198.25,-30 L 198.224,-29.5927 L 198.148,-29.1918 L 198.022,-28.8036 L 197.848,-28.4343
 L 197.629,-28.0897 L 197.369,-27.7752 L 197.072,-27.4958 L 196.741,-27.2559 L 196.384,-27.0593 L 196.004,-26.9091
 L 195.609,-26.8076 L 195.204,-26.7564 z
M 179.796,-26.7564 L 179.391,-26.8076 L 178.996,-26.9091 L 178.616,-27.0593 L 178.259,-27.2559 L 177.928,-27.4958
 L 177.631,-27.7752 L 177.371,-28.0897 L 177.152,-28.4343 L 176.978,-28.8036 L 176.852,-29.1918 L 176.776,-29.5927
 L 176.75,-30 L 176.776,-30.4073 L 176.852,-30.8082 L 176.978,-31.1964 L 177.152,-31.5657 L 177.371,-31.9103
 L 177.631,-32.2248 L 177.928,-32.5042 L 178.259,-32.7441 L 178.616,-32.9407 L 178.996,-33.0909 L 179.391,-33.1924
 L 179.796,-33.2436 L 180.204,-33.2436 L 180.609,-33.1924 L 181.004,-33.0909 L 181.384,-32.9407 L 181.741,-32.7441
 L 182.072,-32.5042 L 182.369,-32.2248 L 182.629,-31.9103 L 182.848,-31.5657 L 183.022,-31.1964 L 183.148,-30.8082
 L 183.224,-30.4073 L 183.25,-30 L 183.224,-29.5927 L 183.148,-29.1918 L 183.022,-28.8036 L 182.848,-28.4343
 L 182.629,-28.0897 L 182.369,-27.7752 L 182.072,-27.4958 L 181.741,-27.2559 L 181.384,-27.0593 L 181.004,-26.9091
 L 180.609,-26.8076 L 180.204,-26.7564 z
M 224.796,-26.7564 L 224.391,-26.8076 L 223.996,-26.9091 L 223.616,-27.0593 L 223.259,-27.2559 L 222.928,-27.4958
 L 222.631,-27.7752 L 222.371,-28.0897 L 222.152,-28.4343 L 221.978,-28.8036 L 221.852,-29.1918 L 221.776,-29.5927
 L 221.75,-30 L 221.776,-30.4073 L 221.852,-30.8082 L 221.978,-31.1964 L 222.152,-31.5657 L 222.371,-31.9103
 L 222.631,-32.2248 L 222.928,-32.5042 L 223.259,-32.7441 L 223.616,-32.9407 L 223.996,-33.0909 L 224.391,-33.1924
 L 224.796,-33.2436 L 225.204,-33.2436 L 225.609,-33.1924 L 226.004,-33.0909 L 226.384,-32.9407 L 226.741,-32.7441
 L 227.072,-32.5042 L 227.369,-32.2248 L 227.629,-31.9103 L 227.848,-31.5657 L 228.022,-31.1964 L 228.148,-30.8082
 L 228.224,-30.4073 L 228.25,-30 L 228.224,-29.5927 L 228.148,-29.1918 L 228.022,-28.8036 L 227.848,-28.4343
 L 227.629,-28.0897 L 227.369,-27.7752 L 227.072,-27.4958 L 226.741,-27.2559 L 226.384,-27.0593 L 226.004,-26.9091
 L 225.609,-26.8076 L 225.204,-26.7564 z
M 14.7959,-26.7564 L 14.391,-26.8076 L 13.9957,-26.9091 L 13.6162,-27.0593 L 13.2586,-27.2559 L 12.9284,-27.4958
 L 12.6308,-27.7752 L 12.3707,-28.0897 L 12.152,-28.4343 L 11.9782,-28.8036 L 11.8521,-29.1918 L 11.7756,-29.5927
 L 11.75,-30 L 11.7756,-30.4073 L 11.8521,-30.8082 L 11.9782,-31.1964 L 12.152,-31.5657 L 12.3707,-31.9103
 L 12.6308,-32.2248 L 12.9284,-32.5042 L 13.2586,-32.7441 L 13.6162,-32.9407 L 13.9957,-33.0909 L 14.391,-33.1924
 L 14.7959,-33.2436 L 15.2041,-33.2436 L 15.609,-33.1924 L 16.0043,-33.0909 L 16.3838,-32.9407 L 16.7414,-32.7441
 L 17.0716,-32.5042 L 17.3691,-32.2248 L 17.6293,-31.9103 L 17.848,-31.5657 L 18.0218,-31.1964 L 18.1479,-30.8082
 L 18.2244,-30.4073 L 18.25,-30 L 18.2244,-29.5927 L 18.1479,-29.1918 L 18.0218,-28.8036 L 17.848,-28.4343
 L 17.6293,-28.0897 L 17.3691,-27.7752 L 17.0716,-27.4958 L 16.7414,-27.2559 L 16.3838,-27.0593 L 16.0043,-26.9091
 L 15.609,-26.8076 L 15.2041,-26.7564 z
M 149.796,-11.7564 L 149.391,-11.8076 L 148.996,-11.9091 L 148.616,-12.0593 L 148.259,-12.2559 L 147.928,-12.4958
 L 147.631,-12.7752 L 147.371,-13.0897 L 147.152,-13.4343 L 146.978,-13.8036 L 146.852,-14.1918 L 146.776,-14.5927
 L 146.75,-15 L 146.776,-15.4073 L 146.852,-15.8082 L 146.978,-16.1964 L 147.152,-16.5657 L 147.371,-16.9103
 L 147.631,-17.2248 L 147.928,-17.5042 L 148.259,-17.7441 L 148.616,-17.9407 L 148.996,-18.0909 L 149.391,-18.1924
 L 149.796,-18.2436 L 150.204,-18.2436 L 150.609,-18.1924 L 151.004,-18.0909 L 151.384,-17.9407 L 151.741,-17.7441
 L 152.072,-17.5042 L 152.369,-17.2248 L 152.629,-16.9103 L 152.848,-16.5657 L 153.022,-16.1964 L 153.148,-15.8082
 L 153.224,-15.4073 L 153.25,-15 L 153.224,-14.5927 L 153.148,-14.1918 L 153.022,-13.8036 L 152.848,-13.4343
 L 152.629,-13.0897 L 152.369,-12.7752 L 152.072,-12.4958 L 151.741,-12.2559 L 151.384,-12.0593 L 151.004,-11.9091
 L 150.609,-11.8076 L 150.204,-11.7564 z
M 224.796,-11.7564 L 224.391,-11.8076 L 223.996,-11.9091 L 223.616,-12.0593 L 223.259,-12.2559 L 222.928,-12.4958
 L 222.631,-12.7752 L 222.371,-13.0897 L 222.152,-13.4343 L 221.978,-13.8036 L 221.852,-14.1918 L 221.776,-14.5927
 L 221.75,-15 L 221.776,-15.4073 L 221.852,-15.8082 L 221.978,-16.1964 L 222.152,-16.5657 L 222.371,-16.9103
 L 222.631,-17.2248 L 222.928,-17.5042 L 223.259,-17.7441 L 223.616,-17.9407 L 223.996,-18.0909 L 224.391,-18.1924
 L 224.796,-18.2436 L 225.204,-18.2436 L 225.609,-18.1924 L 226.004,-18.0909 L 226.384,-17.9407 L 226.741,-17.7441
 L 227.072,-17.5042 L 227.369,-17.2248 L 227.629,-16.9103 L 227.848,-16.5657 L 228.022,-16.1964 L 228.148,-15.8082
 L 228.224,-15.4073 L 228.25,-15 L 228.224,-14.5927 L 228.148,-14.1918 L 228.022,-13.8036 L 227.848,-13.4343
 L 227.629,-13.0897 L 227.369,-12.7752 L 227.072,-12.4958 L 226.741,-12.2559 L 226.384,-12.0593 L 226.004,-11.9091
 L 225.609,-11.8076 L 225.204,-11.7564 z
M 119.796,-11.7564 L 119.391,-11.8076 L 118.996,-11.9091 L 118.616,-12.0593 L 118.259,-12.2559 L 117.928,-12.4958
 L 117.631,-12.7752 L 117.371,-13.0897 L 117.152,-13.4343 L 116.978,-13.8036 L 116.852,-14.1918 L 116.776,-14.5927
 L 116.75,-15 L 116.776,-15.4073 L 116.852,-15.8082 L 116.978,-16.1964 L 117.152,-16.5657 L 117.371,-16.9103
 L 117.631,-17.2248 L 117.928,-17.5042 L 118.259,-17.7441 L 118.616,-17.9407 L 118.996,-18.0909 L 119.391,-18.1924
 L 119.796,-18.2436 L 120.204,-18.2436 L 120.609,-18.1924 L 121.004,-18.0909 L 121.384,-17.9407 L 121.741,-17.7441
 L 122.072,-17.5042 L 122.369,-17.2248 L 122.629,-16.9103 L 122.848,-16.5657 L 123.022,-16.1964 L 123.148,-15.8082
 L 123.224,-15.4073 L 123.25,-15 L 123.224,-14.5927 L 123.148,-14.1918 L 123.022,-13.8036 L 122.848,-13.4343
 L 122.629,-13.0897 L 122.369,-12.7752 L 122.072,-12.4958 L 121.741,-12.2559 L 121.384,-12.0593 L 121.004,-11.9091
 L 120.609,-11.8076 L 120.204,-11.7564 z
M 14.7959,-11.7564 L 14.391,-11.8076 L 13.9957,-11.9091 L 13.6162,-12.0593 L 13.2586,-12.2559 L 12.9284,-12.4958
 L 12.6308,-12.7752 L 12.3707,-13.0897 L 12.152,-13.4343 L 11.9782,-13.8036 L 11.8521,-14.1918 L 11.7756,-14.5927
 L 11.75,-15 L 11.7756,-15.4073 L 11.8521,-15.8082 L 11.9782,-16.1964 L 12.152,-16.5657 L 12.3707,-16.9103
 L 12.6308,-17.2248 L 12.9284,-17.5042 L 13.2586,-17.7441 L 13.6162,-17.9407 L 13.9957,-18.0909 L 14.391,-18.1924
 L 14.7959,-18.2436 L 15.2041,-18.2436 L 15.609,-18.1924 L 16.0043,-18.0909 L 16.3838,-17.9407 L 16.7414,-17.7441
 L 17.0716,-17.5042 L 17.3691,-17.2248 L 17.6293,-16.9103 L 17.848,-16.5657 L 18.0218,-16.1964 L 18.1479,-15.8082
 L 18.2244,-15.4073 L 18.25,-15 L 18.2244,-14.5927 L 18.1479,-14.1918 L 18.0218,-13.8036 L 17.848,-13.4343
 L 17.6293,-13.0897 L 17.3691,-12.7752 L 17.0716,-12.4958 L 16.7414,-12.2559 L 16.3838,-12.0593 L 16.0043,-11.9091
 L 15.609,-11.8076 L 15.2041,-11.7564 z
M 209.796,-11.7564 L 209.391,-11.8076 L 208.996,-11.9091 L 208.616,-12.0593 L 208.259,-12.2559 L 207.928,-12.4958
 L 207.631,-12.7752 L 207.371,-13.0897 L 207.152,-13.4343 L 206.978,-13.8036 L 206.852,-14.1918 L 206.776,-14.5927
 L 206.75,-15 L 206.776,-15.4073 L 206.852,-15.8082 L 206.978,-16.1964 L 207.152,-16.5657 L 207.371,-16.9103
 L 207.631,-17.2248 L 207.928,-17.5042 L 208.259,-17.7441 L 208.616,-17.9407 L 208.996,-18.0909 L 209.391,-18.1924
 L 209.796,-18.2436 L 210.204,-18.2436 L 210.609,-18.1924 L 211.004,-18.0909 L 211.384,-17.9407 L 211.741,-17.7441
 L 212.072,-17.5042 L 212.369,-17.2248 L 212.629,-16.9103 L 212.848,-16.5657 L 213.022,-16.1964 L 213.148,-15.8082
 L 213.224,-15.4073 L 213.25,-15 L 213.224,-14.5927 L 213.148,-14.1918 L 213.022,-13.8036 L 212.848,-13.4343
 L 212.629,-13.0897 L 212.369,-12.7752 L 212.072,-12.4958 L 211.741,-12.2559 L 211.384,-12.0593 L 211.004,-11.9091
 L 210.609,-11.8076 L 210.204,-11.7564 z
M 29.7959,-11.7564 L 29.391,-11.8076 L 28.9957,-11.9091 L 28.6162,-12.0593 L 28.2586,-12.2559 L 27.9284,-12.4958
 L 27.6308,-12.7752 L 27.3707,-13.0897 L 27.152,-13.4343 L 26.9782,-13.8036 L 26.8521,-14.1918 L 26.7756,-14.5927
 L 26.75,-15 L 26.7756,-15.4073 L 26.8521,-15.8082 L 26.9782,-16.1964 L 27.152,-16.5657 L 27.3707,-16.9103
 L 27.6308,-17.2248 L 27.9284,-17.5042 L 28.2586,-17.7441 L 28.6162,-17.9407 L 28.9957,-18.0909 L 29.391,-18.1924
 L 29.7959,-18.2436 L 30.2041,-18.2436 L 30.609,-18.1924 L 31.0043,-18.0909 L 31.3838,-17.9407 L 31.7414,-17.7441
 L 32.0716,-17.5042 L 32.3691,-17.2248 L 32.6293,-16.9103 L 32.848,-16.5657 L 33.0218,-16.1964 L 33.1479,-15.8082
 L 33.2244,-15.4073 L 33.25,-15 L 33.2244,-14.5927 L 33.1479,-14.1918 L 33.0218,-13.8036 L 32.848,-13.4343
 L 32.6293,-13.0897 L 32.3691,-12.7752 L 32.0716,-12.4958 L 31.7414,-12.2559 L 31.3838,-12.0593 L 31.0043,-11.9091
 L 30.609,-11.8076 L 30.2041,-11.7564 z
M 194.796,-11.7564 L 194.391,-11.8076 L 193.996,-11.9091 L 193.616,-12.0593 L 193.259,-12.2559 L 192.928,-12.4958
 L 192.631,-12.7752 L 192.371,-13.0897 L 192.152,-13.4343 L 191.978,-13.8036 L 191.852,-14.1918 L 191.776,-14.5927
 L 191.75,-15 L 191.776,-15.4073 L 191.852,-15.8082 L 191.978,-16.1964 L 192.152,-16.5657 L 192.371,-16.9103
 L 192.631,-17.2248 L 192.928,-17.5042 L 193.259,-17.7441 L 193.616,-17.9407 L 193.996,-18.0909 L 194.391,-18.1924
 L 194.796,-18.2436 L 195.204,-18.2436 L 195.609,-18.1924 L 196.004,-18.0909 L 196.384,-17.9407 L 196.741,-17.7441
 L 197.072,-17.5042 L 197.369,-17.2248 L 197.629,-16.9103 L 197.848,-16.5657 L 198.022,-16.1964 L 198.148,-15.8082
 L 198.224,-15.4073 L 198.25,-15 L 198.224,-14.5927 L 198.148,-14.1918 L 198.022,-13.8036 L 197.848,-13.4343
 L 197.629,-13.0897 L 197.369,-12.7752 L 197.072,-12.4958 L 196.741,-12.2559 L 196.384,-12.0593 L 196.004,-11.9091
 L 195.609,-11.8076 L 195.204,-11.7564 z
M 44.7959,-11.7564 L 44.391,-11.8076 L 43.9957,-11.9091 L 43.6162,-12.0593 L 43.2586,-12.2559 L 42.9284,-12.4958
 L 42.6308,-12.7752 L 42.3707,-13.0897 L 42.152,-13.4343 L 41.9782,-13.8036 L 41.8521,-14.1918 L 41.7756,-14.5927
 L 41.75,-15 L 41.7756,-15.4073 L 41.8521,-15.8082 L 41.9782,-16.1964 L 42.152,-16.5657 L 42.3707,-16.9103
 L 42.6308,-17.2248 L 42.9284,-17.5042 L 43.2586,-17.7441 L 43.6162,-17.9407 L 43.9957,-18.0909 L 44.391,-18.1924
 L 44.7959,-18.2436 L 45.2041,-18.2436 L 45.609,-18.1924 L 46.0043,-18.0909 L 46.3838,-17.9407 L 46.7414,-17.7441
 L 47.0716,-17.5042 L 47.3691,-17.2248 L 47.6293,-16.9103 L 47.848,-16.5657 L 48.0218,-16.1964 L 48.1479,-15.8082
 L 48.2244,-15.4073 L 48.25,-15 L 48.2244,-14.5927 L 48.1479,-14.1918 L 48.0218,-13.8036 L 47.848,-13.4343
 L 47.6293,-13.0897 L 47.3691,-12.7752 L 47.0716,-12.4958 L 46.7414,-12.2559 L 46.3838,-12.0593 L 46.0043,-11.9091
 L 45.609,-11.8076 L 45.2041,-11.7564 z
M 179.796,-11.7564 L 179.391,-11.8076 L 178.996,-11.9091 L 178.616,-12.0593 L 178.259,-12.2559 L 177.928,-12.4958
 L 177.631,-12.7752 L 177.371,-13.0897 L 177.152,-13.4343 L 176.978,-13.8036 L 176.852,-14.1918 L 176.776,-14.5927
 L 176.75,-15 L 176.776,-15.4073 L 176.852,-15.8082 L 176.978,-16.1964 L 177.152,-16.5657 L 177.371,-16.9103
 L 177.631,-17.2248 L 177.928,-17.5042 L 178.259,-17.7441 L 178.616,-17.9407 L 178.996,-18.0909 L 179.391,-18.1924
 L 179.796,-18.2436 L 180.204,-18.2436 L 180.609,-18.1924 L 181.004,-18.0909 L 181.384,-17.9407 L 181.741,-17.7441
 L 182.072,-17.5042 L 182.369,-17.2248 L 182.629,-16.9103 L 182.848,-16.5657 L 183.022,-16.1964 L 183.148,-15.8082
 L 183.224,-15.4073 L 183.25,-15 L 183.224,-14.5927 L 183.148,-14.1918 L 183.022,-13.8036 L 182.848,-13.4343
 L 182.629,-13.0897 L 182.369,-12.7752 L 182.072,-12.4958 L 181.741,-12.2559 L 181.384,-12.0593 L 181.004,-11.9091
 L 180.609,-11.8076 L 180.204,-11.7564 z
M 59.7959,-11.7564 L 59.391,-11.8076 L 58.9957,-11.9091 L 58.6162,-12.0593 L 58.2586,-12.2559 L 57.9284,-12.4958
 L 57.6308,-12.7752 L 57.3707,-13.0897 L 57.152,-13.4343 L 56.9782,-13.8036 L 56.8521,-14.1918 L 56.7756,-14.5927
 L 56.75,-15 L 56.7756,-15.4073 L 56.8521,-15.8082 L 56.9782,-16.1964 L 57.152,-16.5657 L 57.3707,-16.9103
 L 57.6308,-17.2248 L 57.9284,-17.5042 L 58.2586,-17.7441 L 58.6162,-17.9407 L 58.9957,-18.0909 L 59.391,-18.1924
 L 59.7959,-18.2436 L 60.2041,-18.2436 L 60.609,-18.1924 L 61.0043,-18.0909 L 61.3838,-17.9407 L 61.7414,-17.7441
 L 62.0716,-17.5042 L 62.3691,-17.2248 L 62.6293,-16.9103 L 62.848,-16.5657 L 63.0218,-16.1964 L 63.1479,-15.8082
 L 63.2244,-15.4073 L 63.25,-15 L 63.2244,-14.5927 L 63.1479,-14.1918 L 63.0218,-13.8036 L 62.848,-13.4343
 L 62.6293,-13.0897 L 62.3691,-12.7752 L 62.0716,-12.4958 L 61.7414,-12.2559 L 61.3838,-12.0593 L 61.0043,-11.9091
 L 60.609,-11.8076 L 60.2041,-11.7564 z
M 164.796,-11.7564 L 164.391,-11.8076 L 163.996,-11.9091 L 163.616,-12.0593 L 163.259,-12.2559 L 162.928,-12.4958
 L 162.631,-12.7752 L 162.371,-13.0897 L 162.152,-13.4343 L 161.978,-13.8036 L 161.852,-14.1918 L 161.776,-14.5927
 L 161.75,-15 L 161.776,-15.4073 L 161.852,-15.8082 L 161.978,-16.1964 L 162.152,-16.5657 L 162.371,-16.9103
 L 162.631,-17.2248 L 162.928,-17.5042 L 163.259,-17.7441 L 163.616,-17.9407 L 163.996,-18.0909 L 164.391,-18.1924
 L 164.796,-18.2436 L 165.204,-18.2436 L 165.609,-18.1924 L 166.004,-18.0909 L 166.384,-17.9407 L 166.741,-17.7441
 L 167.072,-17.5042 L 167.369,-17.2248 L 167.629,-16.9103 L 167.848,-16.5657 L 168.022,-16.1964 L 168.148,-15.8082
 L 168.224,-15.4073 L 168.25,-15 L 168.224,-14.5927 L 168.148,-14.1918 L 168.022,-13.8036 L 167.848,-13.4343
 L 167.629,-13.0897 L 167.369,-12.7752 L 167.072,-12.4958 L 166.741,-12.2559 L 166.384,-12.0593 L 166.004,-11.9091
 L 165.609,-11.8076 L 165.204,-11.7564 z
M 74.7959,-11.7564 L 74.391,-11.8076 L 73.9957,-11.9091 L 73.6162,-12.0593 L 73.2586,-12.2559 L 72.9284,-12.4958
 L 72.6308,-12.7752 L 72.3707,-13.0897 L 72.152,-13.4343 L 71.9782,-13.8036 L 71.8521,-14.1918 L 71.7756,-14.5927
 L 71.75,-15 L 71.7756,-15.4073 L 71.8521,-15.8082 L 71.9782,-16.1964 L 72.152,-16.5657 L 72.3707,-16.9103
 L 72.6308,-17.2248 L 72.9284,-17.5042 L 73.2586,-17.7441 L 73.6162,-17.9407 L 73.9957,-18.0909 L 74.391,-18.1924
 L 74.7959,-18.2436 L 75.2041,-18.2436 L 75.609,-18.1924 L 76.0043,-18.0909 L 76.3838,-17.9407 L 76.7414,-17.7441
 L 77.0716,-17.5042 L 77.3691,-17.2248 L 77.6293,-16.9103 L 77.848,-16.5657 L 78.0218,-16.1964 L 78.1479,-15.8082
 L 78.2244,-15.4073 L 78.25,-15 L 78.2244,-14.5927 L 78.1479,-14.1918 L 78.0218,-13.8036 L 77.848,-13.4343
 L 77.6293,-13.0897 L 77.3691,-12.7752 L 77.0716,-12.4958 L 76.7414,-12.2559 L 76.3838,-12.0593 L 76.0043,-11.9091
 L 75.609,-11.8076 L 75.2041,-11.7564 z
M 104.796,-11.7564 L 104.391,-11.8076 L 103.996,-11.9091 L 103.616,-12.0593 L 103.259,-12.2559 L 102.928,-12.4958
 L 102.631,-12.7752 L 102.371,-13.0897 L 102.152,-13.4343 L 101.978,-13.8036 L 101.852,-14.1918 L 101.776,-14.5927
 L 101.75,-15 L 101.776,-15.4073 L 101.852,-15.8082 L 101.978,-16.1964 L 102.152,-16.5657 L 102.371,-16.9103
 L 102.631,-17.2248 L 102.928,-17.5042 L 103.259,-17.7441 L 103.616,-17.9407 L 103.996,-18.0909 L 104.391,-18.1924
 L 104.796,-18.2436 L 105.204,-18.2436 L 105.609,-18.1924 L 106.004,-18.0909 L 106.384,-17.9407 L 106.741,-17.7441
 L 107.072,-17.5042 L 107.369,-17.2248 L 107.629,-16.9103 L 107.848,-16.5657 L 108.022,-16.1964 L 108.148,-15.8082
 L 108.224,-15.4073 L 108.25,-15 L 108.224,-14.5927 L 108.148,-14.1918 L 108.022,-13.8036 L 107.848,-13.4343
 L 107.629,-13.0897 L 107.369,-12.7752 L 107.072,-12.4958 L 106.741,-12.2559 L 106.384,-12.0593 L 106.004,-11.9091
 L 105.609,-11.8076 L 105.204,-11.7564 z
M 134.796,-11.7564 L 134.391,-11.8076 L 133.996,-11.9091 L 133.616,-12.0593 L 133.259,-12.2559 L 132.928,-12.4958
 L 132.631,-12.7752 L 132.371,-13.0897 L 132.152,-13.4343 L 131.978,-13.8036 L 131.852,-14.1918 L 131.776,-14.5927
 L 131.75,-15 L 131.776,-15.4073 L 131.852,-15.8082 L 131.978,-16.1964 L 132.152,-16.5657 L 132.371,-16.9103
 L 132.631,-17.2248 L 132.928,-17.5042 L 133.259,-17.7441 L 133.616,-17.9407 L 133.996,-18.0909 L 134.391,-18.1924
 L 134.796,-18.2436 L 135.204,-18.2436 L 135.609,-18.1924 L 136.004,-18.0909 L 136.384,-17.9407 L 136.741,-17.7441
 L 137.072,-17.5042 L 137.369,-17.2248 L 137.629,-16.9103 L 137.848,-16.5657 L 138.022,-16.1964 L 138.148,-15.8082
 L 138.224,-15.4073 L 138.25,-15 L 138.224,-14.5927 L 138.148,-14.1918 L 138.022,-13.8036 L 137.848,-13.4343
 L 137.629,-13.0897 L 137.369,-12.7752 L 137.072,-12.4958 L 136.741,-12.2559 L 136.384,-12.0593 L 136.004,-11.9091
 L 135.609,-11.8076 L 135.204,-11.7564 z
M 89.7959,-11.7564 L 89.391,-11.8076 L 88.9957,-11.9091 L 88.6162,-12.0593 L 88.2586,-12.2559 L 87.9284,-12.4958
 L 87.6308,-12.7752 L 87.3707,-13.0897 L 87.152,-13.4343 L 86.9782,-13.8036 L 86.8521,-14.1918 L 86.7756,-14.5927
 L 86.75,-15 L 86.7756,-15.4073 L 86.8521,-15.8082 L 86.9782,-16.1964 L 87.152,-16.5657 L 87.3707,-16.9103
 L 87.6308,-17.2248 L 87.9284,-17.5042 L 88.2586,-17.7441 L 88.6162,-17.9407 L 88.9957,-18.0909 L 89.391,-18.1924
 L 89.7959,-18.2436 L 90.2041,-18.2436 L 90.609,-18.1924 L 91.0043,-18.0909 L 91.3838,-17.9407 L 91.7414,-17.7441
 L 92.0716,-17.5042 L 92.3691,-17.2248 L 92.6293,-16.9103 L 92.848,-16.5657 L 93.0218,-16.1964 L 93.1479,-15.8082
 L 93.2244,-15.4073 L 93.25,-15 L 93.2244,-14.5927 L 93.1479,-14.1918 L 93.0218,-13.8036 L 92.848,-13.4343
 L 92.6293,-13.0897 L 92.3691,-12.7752 L 92.0716,-12.4958 L 91.7414,-12.2559 L 91.3838,-12.0593 L 91.0043,-11.9091
 L 90.609,-11.8076 L 90.2041,-11.7564 z
" stroke="black" fill="lightgray" stroke-width="0.5"/>
</svg>
