<?xml version="1.0" standalone="no"?>
<!DOCTYPE svg PUBLIC "-//W3C//DTD SVG 1.1//EN" "http://www.w3.org/Graphics/SVG/1.1/DTD/svg11.dtd">
<svg width="74mm" height="74mm" viewBox="-37 -37 74 74" xmlns="http://www.w3.org/2000/svg" version="1.1">
<title>OpenSCAD Model</title>
<path d="
M 31.6576,35.9622 L 32.2991,35.8346 L 32.9184,35.6244 L 33.505,35.3351 L 34.0488,34.9718 L 34.5405,34.5405
 L 34.9718,34.0488 L 35.3351,33.505 L 35.6244,32.9184 L 35.8346,32.2991 L 35.9622,31.6576 L 36.005,31.005
 L 36.005,-31.005 L 35.9622,-31.6576 L 35.8346,-32.2991 L 35.6244,-32.9184 L 35.3351,-33.505 L 34.9718,-34.0488
 L 34.5405,-34.5405 L 34.0488,-34.9718 L 33.505,-35.3351 L 32.9184,-35.6244 L 32.2991,-35.8346 L 31.6576,-35.9622
 L 31.005,-36.005 L -31.005,-36.005 L -31.6576,-35.9622 L -32.2991,-35.8346 L -32.9184,-35.6244 L -33.505,-35.3351
 L -34.0488,-34.9718 L -34.5405,-34.5405 L -34.9718,-34.0488 L -35.3351,-33.505 L -35.6244,-32.9184 L -35.8346,-32.2991
 L -35.9622,-31.6576 L -36.005,-31.005 L -36.005,31.005 L -35.9622,31.6576 L -35.8346,32.2991 L -35.6244,32.9184
 L -35.3351,33.505 L -34.9718,34.0488 L -34.5405,34.5405 L -34.0488,34.9718 L -33.505,35.3351 L -32.9184,35.6244
 L -32.2991,35.8346 L -31.6576,35.9622 L -31.005,36.005 L 31.005,36.005 z
M 29.5758,-26.7778 L 29.1588,-26.8607 L 28.7563,-26.9974 L 28.375,-27.1854 L 28.0215,-27.4216 L 27.7019,-27.7019
 L 27.4216,-28.0215 L 27.1854,-28.375 L 26.9974,-28.7563 L 26.8607,-29.1588 L 26.7778,-29.5758 L 26.75,-30
 L 26.7778,-30.4242 L 26.8607,-30.8412 L 26.9974,-31.2437 L 27.1854,-31.625 L 27.4216,-31.9785 L 27.7019,-32.2981
 L 28.0215,-32.5784 L 28.375,-32.8146 L 28.7563,-33.0026 L 29.1588,-33.1393 L 29.5758,-33.2222 L 30,-33.25
 L 30.4242,-33.2222 L 30.8412,-33.1393 L 31.2437,-33.0026 L 31.625,-32.8146 L 31.9785,-32.5784 L 32.2981,-32.2981
 L 32.5784,-31.9785 L 32.8146,-31.625 L 33.0026,-31.2437 L 33.1393,-30.8412 L 33.2222,-30.4242 L 33.25,-30
 L 33.2222,-29.5758 L 33.1393,-29.1588 L 33.0026,-28.7563 L 32.8146,-28.375 L 32.5784,-28.0215 L 32.2981,-27.7019
 L 31.9785,-27.4216 L 31.625,-27.1854 L 31.2437,-26.9974 L 30.8412,-26.8607 L 30.4242,-26.7778 L 30,-26.75
 z
M 14.5758,-26.7778 L 14.1588,-26.8607 L 13.7563,-26.9974 L 13.375,-27.1854 L 13.0215,-27.4216 L 12.7019,-27.7019
 L 12.4216,-28.0215 L 12.1854,-28.375 L 11.9974,-28.7563 L 11.8607,-29.1588 L 11.7778,-29.5758 L 11.75,-30
 L 11.7778,-30.4242 L 11.8607,-30.8412 L 11.9974,-31.2437 L 12.1854,-31.625 L 12.4216,-31.9785 L 12.7019,-32.2981
 L 13.0215,-32.5784 L 13.375,-32.8146 L 13.7563,-33.0026 L 14.1588,-33.1393 L 14.5758,-33.2222 L 15,-33.25
 L 15.4242,-33.2222 L 15.8412,-33.1393 L 16.2437,-33.0026 L 16.625,-32.8146 L 16.9785,-32.5784 L 17.2981,-32.2981
 L 17.5784,-31.9785 L 17.8146,-31.625 L 18.0026,-31.2437 L 18.1393,-30.8412 L 18.2222,-30.4242 L 18.25,-30
 L 18.2222,-29.5758 L 18.1393,-29.1588 L 18.0026,-28.7563 L 17.8146,-28.375 L 17.5784,-28.0215 L 17.2981,-27.7019
 L 16.9785,-27.4216 L 16.625,-27.1854 L 16.2437,-26.9974 L 15.8412,-26.8607 L 15.4242,-26.7778 L 15,-26.75
 z
M -15.4242,-26.7778 L -15.8412,-26.8607 L -16.2437,-26.9974 L -16.625,-27.1854 L -16.9785,-27.4216 L -17.2981,-27.7019
 L -17.5784,-28.0215 L -17.8146,-28.375 L -18.0026,-28.7563 L -18.1393,-29.1588 L -18.2222,-29.5758 L -18.25,-30
 L -18.2222,-30.4242 L -18.1393,-30.8412 L -18.0026,-31.2437 L -17.8146,-31.625 L -17.5784,-31.9785 L -17.2981,-32.2981
 L -16.9785,-32.5784 L -16.625,-32.8146 L -16.2437,-33.0026 L -15.8412,-33.1393 L -15.4242,-33.2222 L -15,-33.25
 L -14.5758,-33.2222 L -14.1588,-33.1393 L -13.7563,-33.0026 L -13.375,-32.8146 L -13.0215,-32.5784 L -12.7019,-32.2981
 L -12.4216,-31.9785 L -12.1854,-31.625 L -11.9974,-31.2437 L -11.8607,-30.8412 L -11.7778,-30.4242 L -11.75,-30
 L -11.7778,-29.5758 L -11.8607,-29.1588 L -11.9974,-28.7563 L -12.1854,-28.375 L -12.4216,-28.0215 L -12.7019,-27.7019
 L -13.0215,-27.4216 L -13.375,-27.1854 L -13.7563,-26.9974 L -14.1588,-26.8607 L -14.5758,-26.7778 L -15,-26.75
 z
M -30.4242,-26.7778 L -30.8412,-26.8607 L -31.2437,-26.9974 L -31.625,-27.1854 L -31.9785,-27.4216 L -32.2981,-27.7019
 L -32.5784,-28.0215 L -32.8146,-28.375 L -33.0026,-28.7563 L -33.1393,-29.1588 L -33.2222,-29.5758 L -33.25,-30
 L -33.2222,-30.4242 L -33.1393,-30.8412 L -33.0026,-31.2437 L -32.8146,-31.625 L -32.5784,-31.9785 L -32.2981,-32.2981
 L -31.9785,-32.5784 L -31.625,-32.8146 L -31.2437,-33.0026 L -30.8412,-33.1393 L -30.4242,-33.2222 L -30,-33.25
 L -29.5758,-33.2222 L -29.1588,-33.1393 L -28.7563,-33.0026 L -28.375,-32.8146 L -28.0215,-32.5784 L -27.7019,-32.2981
 L -27.4216,-31.9785 L -27.1854,-31.625 L -26.9974,-31.2437 L -26.8607,-30.8412 L -26.7778,-30.4242 L -26.75,-30
 L -26.7778,-29.5758 L -26.8607,-29.1588 L -26.9974,-28.7563 L -27.1854,-28.375 L -27.4216,-28.0215 L -27.7019,-27.7019
 L -28.0215,-27.4216 L -28.375,-27.1854 L -28.7563,-26.9974 L -29.1588,-26.8607 L -29.5758,-26.7778 L -30,-26.75
 z
M -3.40672,25.8767 L -6.75517,25.2107 L -9.98804,24.1133 L -13.05,22.6033 L -15.8887,20.7065 L -18.4555,18.4555
 L -20.7065,15.8887 L -22.6033,13.05 L -24.1133,9.98804 L -25.2107,6.75517 L -25.8767,3.40672 L -26.1,-0
 L -25.8767,-3.40672 L -25.2107,-6.75517 L -24.1133,-9.98804 L -22.6033,-13.05 L -20.7065,-15.8887 L -18.4555,-18.4555
 L -15.8887,-20.7065 L -13.05,-22.6033 L -9.98804,-24.1133 L -6.75517,-25.2107 L -3.40672,-25.8767 L 0,-26.1
 L 3.40672,-25.8767 L 6.75517,-25.2107 L 9.98804,-24.1133 L 13.05,-22.6033 L 15.8887,-20.7065 L 18.4555,-18.4555
 L 20.7065,-15.8887 L 22.6033,-13.05 L 24.1133,-9.98804 L 25.2107,-6.75517 L 25.8767,-3.40672 L 26.1,-0
 L 25.8767,3.40672 L 25.2107,6.75517 L 24.1133,9.98804 L 22.6033,13.05 L 20.7065,15.8887 L 18.4555,18.4555
 L 15.8887,20.7065 L 13.05,22.6033 L 9.98804,24.1133 L 6.75517,25.2107 L 3.40672,25.8767 L 0,26.1
 z
M 2.59746,19.7298 L 5.1505,19.2219 L 7.61539,18.3852 L 9.95,17.2339 L 12.1143,15.7877 L 14.0714,14.0714
 L 15.7877,12.1143 L 17.2339,9.95 L 18.3852,7.61539 L 19.2219,5.1505 L 19.7298,2.59746 L 19.9,-0
 L 19.7298,-2.59746 L 19.2219,-5.1505 L 18.3852,-7.61539 L 17.2339,-9.95 L 15.7877,-12.1143 L 14.0714,-14.0714
 L 12.1143,-15.7877 L 9.95,-17.2339 L 7.61539,-18.3852 L 5.1505,-19.2219 L 2.59746,-19.7298 L 0,-19.9
 L -2.59746,-19.7298 L -5.1505,-19.2219 L -7.61539,-18.3852 L -9.95,-17.2339 L -12.1143,-15.7877 L -14.0714,-14.0714
 L -15.7877,-12.1143 L -17.2339,-9.95 L -18.3852,-7.61539 L -19.2219,-5.1505 L -19.7298,-2.59746 L -19.9,-0
 L -19.7298,2.59746 L -19.2219,5.1505 L -18.3852,7.61539 L -17.2339,9.95 L -15.7877,12.1143 L -14.0714,14.0714
 L -12.1143,15.7877 L -9.95,17.2339 L -7.61539,18.3852 L -5.1505,19.2219 L -2.59746,19.7298 L 0,19.9
 z
M -0.42421,-11.7778 L -0.841156,-11.8607 L -1.24371,-11.9974 L -1.625,-12.1854 L -1.97847,-12.4216 L -2.2981,-12.7019
 L -2.57838,-13.0215 L -2.81458,-13.375 L -3.00259,-13.7563 L -3.13925,-14.1588 L -3.22218,-14.5758 L -3.25,-15
 L -3.22218,-15.4242 L -3.13925,-15.8412 L -3.00259,-16.2437 L -2.81458,-16.625 L -2.57838,-16.9785 L -2.2981,-17.2981
 L -1.97847,-17.5784 L -1.625,-17.8146 L -1.24371,-18.0026 L -0.841156,-18.1393 L -0.42421,-18.2222 L 0,-18.25
 L 0.42421,-18.2222 L 0.841156,-18.1393 L 1.24371,-18.0026 L 1.625,-17.8146 L 1.97847,-17.5784 L 2.2981,-17.2981
 L 2.57838,-16.9785 L 2.81458,-16.625 L 3.00259,-16.2437 L 3.13925,-15.8412 L 3.22218,-15.4242 L 3.25,-15
 L 3.22218,-14.5758 L 3.13925,-14.1588 L 3.00259,-13.7563 L 2.81458,-13.375 L 2.57838,-13.0215 L 2.2981,-12.7019
 L 1.97847,-12.4216 L 1.625,-12.1854 L 1.24371,-11.9974 L 0.841156,-11.8607 L 0.42421,-11.7778 L 0,-11.75
 z
M 6.77809,-5.31453 L 6.56,-5.35793 L 6.34943,-5.4294 L 6.14999,-5.52776 L 5.9651,-5.65129 L 5.79791,-5.79791
 L 5.65129,-5.9651 L 5.52776,-6.14999 L 5.4294,-6.34943 L 5.35793,-6.56 L 5.31453,-6.77809 L 5.29999,-7
 L 5.31453,-7.22189 L 5.35793,-7.43999 L 5.4294,-7.65056 L 5.52776,-7.84999 L 5.65129,-8.03488 L 5.79791,-8.20207
 L 5.9651,-8.34869 L 6.14999,-8.47223 L 6.34943,-8.57059 L 6.56,-8.64206 L 6.77809,-8.68546 L 7,-8.7
 L 7.22189,-8.68546 L 7.43999,-8.64206 L 7.65056,-8.57059 L 7.84999,-8.47223 L 8.03488,-8.34869 L 8.20207,-8.20207
 L 8.34869,-8.03488 L 8.47223,-7.84999 L 8.57059,-7.65056 L 8.64206,-7.43999 L 8.68546,-7.22189 L 8.7,-7
 L 8.68546,-6.77809 L 8.64206,-6.56 L 8.57059,-6.34943 L 8.47223,-6.14999 L 8.34869,-5.9651 L 8.20207,-5.79791
 L 8.03488,-5.65129 L 7.84999,-5.52776 L 7.65056,-5.4294 L 7.43999,-5.35793 L 7.22189,-5.31453 L 7,-5.29999
 z
M -7.22189,-5.31453 L -7.43999,-5.35793 L -7.65056,-5.4294 L -7.84999,-5.52776 L -8.03488,-5.65129 L -8.20207,-5.79791
 L -8.34869,-5.9651 L -8.47223,-6.14999 L -8.57059,-6.34943 L -8.64206,-6.56 L -8.68546,-6.77809 L -8.7,-7
 L -8.68546,-7.22189 L -8.64206,-7.43999 L -8.57059,-7.65056 L -8.47223,-7.84999 L -8.34869,-8.03488 L -8.20207,-8.20207
 L -8.03488,-8.34869 L -7.84999,-8.47223 L -7.65056,-8.57059 L -7.43999,-8.64206 L -7.22189,-8.68546 L -7,-8.7
 L -6.77809,-8.68546 L -6.56,-8.64206 L -6.34943,-8.57059 L -6.14999,-8.47223 L -5.9651,-8.34869 L -5.79791,-8.20207
 L -5.65129,-8.03488 L -5.52776,-7.84999 L -5.4294,-7.65056 L -5.35793,-7.43999 L -5.31453,-7.22189 L -5.29999,-7
 L -5.31453,-6.77809 L -5.35793,-6.56 L -5.4294,-6.34943 L -5.52776,-6.14999 L -5.65129,-5.9651 L -5.79791,-5.79791
 L -5.9651,-5.65129 L -6.14999,-5.52776 L -6.34943,-5.4294 L -6.56,-5.35793 L -6.77809,-5.31453 L -7,-5.29999
 z
M 11.8607,-0.841156 L 11.9974,-1.24371 L 12.1854,-1.625 L 12.4216,-1.97847 L 12.7019,-2.2981 L 13.0215,-2.57838
 L 13.375,-2.81458 L 13.7563,-3.00259 L 14.1588,-3.13925 L 14.5758,-3.22218 L 15,-3.25 L 15.4242,-3.22218
 L 15.8412,-3.13925 L 16.2437,-3.00259 L 16.625,-2.81458 L 16.9785,-2.57838 L 17.2981,-2.2981 L 17.5784,-1.97847
 L 17.8146,-1.625 L 18.0026,-1.24371 L 18.1393,-0.841156 L 18.2222,-0.42421 L 18.25,-0 L 18.2222,0.42421
 L 18.1393,0.841156 L 18.0026,1.24371 L 17.8146,1.625 L 17.5784,1.97847 L 17.2981,2.2981 L 16.9785,2.57838
 L 16.625,2.81458 L 16.2437,3.00259 L 15.8412,3.13925 L 15.4242,3.22218 L 15,3.25 L 14.5758,3.22218
 L 14.1588,3.13925 L 13.7563,3.00259 L 13.375,2.81458 L 13.0215,2.57838 L 12.7019,2.2981 L 12.4216,1.97847
 L 12.1854,1.625 L 11.9974,1.24371 L 11.8607,0.841156 L 11.7778,0.42421 L 11.75,-0 L 11.7778,-0.42421
 z
M -15.4242,3.22218 L -15.8412,3.13925 L -16.2437,3.00259 L -16.625,2.81458 L -16.9785,2.57838 L -17.2981,2.2981
 L -17.5784,1.97847 L -17.8146,1.625 L -18.0026,1.24371 L -18.1393,0.841156 L -18.2222,0.42421 L -18.25,-0
 L -18.2222,-0.42421 L -18.1393,-0.841156 L -18.0026,-1.24371 L -17.8146,-1.625 L -17.5784,-1.97847 L -17.2981,-2.2981
 L -16.9785,-2.57838 L -16.625,-2.81458 L -16.2437,-3.00259 L -15.8412,-3.13925 L -15.4242,-3.22218 L -15,-3.25
 L -14.5758,-3.22218 L -14.1588,-3.13925 L -13.7563,-3.00259 L -13.375,-2.81458 L -13.0215,-2.57838 L -12.7019,-2.2981
 L -12.4216,-1.97847 L -12.1854,-1.625 L -11.9974,-1.24371 L -11.8607,-0.841156 L -11.7778,-0.42421 L -11.75,-0
 L -11.7778,0.42421 L -11.8607,0.841156 L -11.9974,1.24371 L -12.1854,1.625 L -12.4216,1.97847 L -12.7019,2.2981
 L -13.0215,2.57838 L -13.375,2.81458 L -13.7563,3.00259 L -14.1588,3.13925 L -14.5758,3.22218 L -15,3.25
 z
M 6.77809,8.68546 L 6.56,8.64206 L 6.34943,8.57059 L 6.14999,8.47223 L 5.9651,8.34869 L 5.79791,8.20207
 L 5.65129,8.03488 L 5.52776,7.84999 L 5.4294,7.65056 L 5.35793,7.43999 L 5.31453,7.22189 L 5.29999,7
 L 5.31453,6.77809 L 5.35793,6.56 L 5.4294,6.34943 L 5.52776,6.14999 L 5.65129,5.9651 L 5.79791,5.79791
 L 5.9651,5.65129 L 6.14999,5.52776 L 6.34943,5.4294 L 6.56,5.35793 L 6.77809,5.31453 L 7,5.29999
 L 7.22189,5.31453 L 7.43999,5.35793 L 7.65056,5.4294 L 7.84999,5.52776 L 8.03488,5.65129 L 8.20207,5.79791
 L 8.34869,5.9651 L 8.47223,6.14999 L 8.57059,6.34943 L 8.64206,6.56 L 8.68546,6.77809 L 8.7,7
 L 8.68546,7.22189 L 8.64206,7.43999 L 8.57059,7.65056 L 8.47223,7.84999 L 8.34869,8.03488 L 8.20207,8.20207
 L 8.03488,8.34869 L 7.84999,8.47223 L 7.65056,8.57059 L 7.43999,8.64206 L 7.22189,8.68546 L 7,8.7
 z
M -7.22189,8.68546 L -7.43999,8.64206 L -7.65056,8.57059 L -7.84999,8.47223 L -8.03488,8.34869 L -8.20207,8.20207
 L -8.34869,8.03488 L -8.47223,7.84999 L -8.57059,7.65056 L -8.64206,7.43999 L -8.68546,7.22189 L -8.7,7
 L -8.68546,6.77809 L -8.64206,6.56 L -8.57059,6.34943 L -8.47223,6.14999 L -8.34869,5.9651 L -8.20207,5.79791
 L -8.03488,5.65129 L -7.84999,5.52776 L -7.65056,5.4294 L -7.43999,5.35793 L -7.22189,5.31453 L -7,5.29999
 L -6.77809,5.31453 L -6.56,5.35793 L -6.34943,5.4294 L -6.14999,5.52776 L -5.9651,5.65129 L -5.79791,5.79791
 L -5.65129,5.9651 L -5.52776,6.14999 L -5.4294,6.34943 L -5.35793,6.56 L -5.31453,6.77809 L -5.29999,7
 L -5.31453,7.22189 L -5.35793,7.43999 L -5.4294,7.65056 L -5.52776,7.84999 L -5.65129,8.03488 L -5.79791,8.20207
 L -5.9651,8.34869 L -6.14999,8.47223 L -6.34943,8.57059 L -6.56,8.64206 L -6.77809,8.68546 L -7,8.7
 z
M -0.42421,18.2222 L -0.841156,18.1393 L -1.24371,18.0026 L -1.625,17.8146 L -1.97847,17.5784 L -2.2981,17.2981
 L -2.57838,16.9785 L -2.81458,16.625 L -3.00259,16.2437 L -3.13925,15.8412 L -3.22218,15.4242 L -3.25,15
 L -3.22218,14.5758 L -3.13925,14.1588 L -3.00259,13.7563 L -2.81458,13.375 L -2.57838,13.0215 L -2.2981,12.7019
 L -1.97847,12.4216 L -1.625,12.1854 L -1.24371,11.9974 L -0.841156,11.8607 L -0.42421,11.7778 L 0,11.75
 L 0.42421,11.7778 L 0.841156,11.8607 L 1.24371,11.9974 L 1.625,12.1854 L 1.97847,12.4216 L 2.2981,12.7019
 L 2.57838,13.0215 L 2.81458,13.375 L 3.00259,13.7563 L 3.13925,14.1588 L 3.22218,14.5758 L 3.25,15
 L 3.22218,15.4242 L 3.13925,15.8412 L 3.00259,16.2437 L 2.81458,16.625 L 2.57838,16.9785 L 2.2981,17.2981
 L 1.97847,17.5784 L 1.625,17.8146 L 1.24371,18.0026 L 0.841156,18.1393 L 0.42421,18.2222 L 0,18.25
 z
M 3.13925,0.841156 L 3.00259,1.24371 L 2.81458,1.625 L 2.57838,1.97847 L 2.2981,2.2981 L 1.97847,2.57838
 L 1.625,2.81458 L 1.24371,3.00259 L 0.841156,3.13925 L 0.42421,3.22218 L 0,3.25 L -0.42421,3.22218
 L -0.841156,3.13925 L -1.24371,3.00259 L -1.625,2.81458 L -1.97847,2.57838 L -2.2981,2.2981 L -2.57838,1.97847
 L -2.81458,1.625 L -3.00259,1.24371 L -3.13925,0.841156 L -3.22218,0.42421 L -3.25,-0 L -3.22218,-0.42421
 L -3.13925,-0.841156 L -3.00259,-1.24371 L -2.81458,-1.625 L -2.57838,-1.97847 L -2.2981,-2.2981 L -1.97847,-2.57838
 L -1.625,-2.81458 L -1.24371,-3.00259 L -0.841156,-3.13925 L -0.42421,-3.22218 L 0,-3.25 L 0.42421,-3.22218
 L 0.841156,-3.13925 L 1.24371,-3.00259 L 1.625,-2.81458 L 1.97847,-2.57838 L 2.2981,-2.2981 L 2.57838,-1.97847
 L 2.81458,-1.625 L 3.00259,-1.24371 L 3.13925,-0.841156 L 3.22218,-0.42421 L 3.25,-0 L 3.22218,0.42421
 z
M 22.7781,-21.3145 L 22.56,-21.3579 L 22.3494,-21.4294 L 22.15,-21.5278 L 21.9651,-21.6513 L 21.7979,-21.7979
 L 21.6513,-21.9651 L 21.5278,-22.15 L 21.4294,-22.3494 L 21.3579,-22.56 L 21.3145,-22.7781 L 21.3,-23
 L 21.3145,-23.2219 L 21.3579,-23.44 L 21.4294,-23.6506 L 21.5278,-23.85 L 21.6513,-24.0349 L 21.7979,-24.2021
 L 21.9651,-24.3487 L 22.15,-24.4722 L 22.3494,-24.5706 L 22.56,-24.6421 L 22.7781,-24.6855 L 23,-24.7
 L 23.2219,-24.6855 L 23.44,-24.6421 L 23.6506,-24.5706 L 23.85,-24.4722 L 24.0349,-24.3487 L 24.2021,-24.2021
 L 24.3487,-24.0349 L 24.4722,-23.85 L 24.5706,-23.6506 L 24.6421,-23.44 L 24.6855,-23.2219 L 24.7,-23
 L 24.6855,-22.7781 L 24.6421,-22.56 L 24.5706,-22.3494 L 24.4722,-22.15 L 24.3487,-21.9651 L 24.2021,-21.7979
 L 24.0349,-21.6513 L 23.85,-21.5278 L 23.6506,-21.4294 L 23.44,-21.3579 L 23.2219,-21.3145 L 23,-21.3
 z
M -23.2219,-21.3145 L -23.44,-21.3579 L -23.6506,-21.4294 L -23.85,-21.5278 L -24.0349,-21.6513 L -24.2021,-21.7979
 L -24.3487,-21.9651 L -24.4722,-22.15 L -24.5706,-22.3494 L -24.6421,-22.56 L -24.6855,-22.7781 L -24.7,-23
 L -24.6855,-23.2219 L -24.6421,-23.44 L -24.5706,-23.6506 L -24.4722,-23.85 L -24.3487,-24.0349 L -24.2021,-24.2021
 L -24.0349,-24.3487 L -23.85,-24.4722 L -23.6506,-24.5706 L -23.44,-24.6421 L -23.2219,-24.6855 L -23,-24.7
 L -22.7781,-24.6855 L -22.56,-24.6421 L -22.3494,-24.5706 L -22.15,-24.4722 L -21.9651,-24.3487 L -21.7979,-24.2021
 L -21.6513,-24.0349 L -21.5278,-23.85 L -21.4294,-23.6506 L -21.3579,-23.44 L -21.3145,-23.2219 L -21.3,-23
 L -21.3145,-22.7781 L -21.3579,-22.56 L -21.4294,-22.3494 L -21.5278,-22.15 L -21.6513,-21.9651 L -21.7979,-21.7979
 L -21.9651,-21.6513 L -22.15,-21.5278 L -22.3494,-21.4294 L -22.56,-21.3579 L -22.7781,-21.3145 L -23,-21.3
 z
M -30.4242,-11.7778 L -30.8412,-11.8607 L -31.2437,-11.9974 L -31.625,-12.1854 L -31.9785,-12.4216 L -32.2981,-12.7019
 L -32.5784,-13.0215 L -32.8146,-13.375 L -33.0026,-13.7563 L -33.1393,-14.1588 L -33.2222,-14.5758 L -33.25,-15
 L -33.2222,-15.4242 L -33.1393,-15.8412 L -33.0026,-16.2437 L -32.8146,-16.625 L -32.5784,-16.9785 L -32.2981,-17.2981
 L -31.9785,-17.5784 L -31.625,-17.8146 L -31.2437,-18.0026 L -30.8412,-18.1393 L -30.4242,-18.2222 L -30,-18.25
 L -29.5758,-18.2222 L -29.1588,-18.1393 L -28.7563,-18.0026 L -28.375,-17.8146 L -28.0215,-17.5784 L -27.7019,-17.2981
 L -27.4216,-16.9785 L -27.1854,-16.625 L -26.9974,-16.2437 L -26.8607,-15.8412 L -26.7778,-15.4242 L -26.75,-15
 L -26.7778,-14.5758 L -26.8607,-14.1588 L -26.9974,-13.7563 L -27.1854,-13.375 L -27.4216,-13.0215 L -27.7019,-12.7019
 L -28.0215,-12.4216 L -28.375,-12.1854 L -28.7563,-11.9974 L -29.1588,-11.8607 L -29.5758,-11.7778 L -30,-11.75
 z
M 29.5758,-11.7778 L 29.1588,-11.8607 L 28.7563,-11.9974 L 28.375,-12.1854 L 28.0215,-12.4216 L 27.7019,-12.7019
 L 27.4216,-13.0215 L 27.1854,-13.375 L 26.9974,-13.7563 L 26.8607,-14.1588 L 26.7778,-14.5758 L 26.75,-15
 L 26.7778,-15.4242 L 26.8607,-15.8412 L 26.9974,-16.2437 L 27.1854,-16.625 L 27.4216,-16.9785 L 27.7019,-17.2981
 L 28.0215,-17.5784 L 28.375,-17.8146 L 28.7563,-18.0026 L 29.1588,-18.1393 L 29.5758,-18.2222 L 30,-18.25
 L 30.4242,-18.2222 L 30.8412,-18.1393 L 31.2437,-18.0026 L 31.625,-17.8146 L 31.9785,-17.5784 L 32.2981,-17.2981
 L 32.5784,-16.9785 L 32.8146,-16.625 L 33.0026,-16.2437 L 33.1393,-15.8412 L 33.2222,-15.4242 L 33.25,-15
 L 33.2222,-14.5758 L 33.1393,-14.1588 L 33.0026,-13.7563 L 32.8146,-13.375 L 32.5784,-13.0215 L 32.2981,-12.7019
 L 31.9785,-12.4216 L 31.625,-12.1854 L 31.2437,-11.9974 L 30.8412,-11.8607 L 30.4242,-11.7778 L 30,-11.75
 z
M -30.4242,18.2222 L -30.8412,18.1393 L -31.2437,18.0026 L -31.625,17.8146 L -31.9785,17.5784 L -32.2981,17.2981
 L -32.5784,16.9785 L -32.8146,16.625 L -33.0026,16.2437 L -33.1393,15.8412 L -33.2222,15.4242 L -33.25,15
 L -33.2222,14.5758 L -33.1393,14.1588 L -33.0026,13.7563 L -32.8146,13.375 L -32.5784,13.0215 L -32.2981,12.7019
 L -31.9785,12.4216 L -31.625,12.1854 L -31.2437,11.9974 L -30.8412,11.8607 L -30.4242,11.7778 L -30,11.75
 L -29.5758,11.7778 L -29.1588,11.8607 L -28.7563,11.9974 L -28.375,12.1854 L -28.0215,12.4216 L -27.7019,12.7019
 L -27.4216,13.0215 L -27.1854,13.375 L -26.9974,13.7563 L -26.8607,14.1588 L -26.7778,14.5758 L -26.75,15
 L -26.7778,15.4242 L -26.8607,15.8412 L -26.9974,16.2437 L -27.1854,16.625 L -27.4216,16.9785 L -27.7019,17.2981
 L -28.0215,17.5784 L -28.375,17.8146 L -28.7563,18.0026 L -29.1588,18.1393 L -29.5758,18.2222 L -30,18.25
 z
M 29.5758,18.2222 L 29.1588,18.1393 L 28.7563,18.0026 L 28.375,17.8146 L 28.0215,17.5784 L 27.7019,17.2981
 L 27.4216,16.9785 L 27.1854,16.625 L 26.9974,16.2437 L 26.8607,15.8412 L 26.7778,15.4242 L 26.75,15
 L 26.7778,14.5758 L 26.8607,14.1588 L 26.9974,13.7563 L 27.1854,13.375 L 27.4216,13.0215 L 27.7019,12.7019
 L 28.0215,12.4216 L 28.375,12.1854 L 28.7563,11.9974 L 29.1588,11.8607 L 29.5758,11.7778 L 30,11.75
 L 30.4242,11.7778 L 30.8412,11.8607 L 31.2437,11.9974 L 31.625,12.1854 L 31.9785,12.4216 L 32.2981,12.7019
 L 32.5784,13.0215 L 32.8146,13.375 L 33.0026,13.7563 L 33.1393,14.1588 L 33.2222,14.5758 L 33.25,15
 L 33.2222,15.4242 L 33.1393,15.8412 L 33.0026,16.2437 L 32.8146,16.625 L 32.5784,16.9785 L 32.2981,17.2981
 L 31.9785,17.5784 L 31.625,17.8146 L 31.2437,18.0026 L 30.8412,18.1393 L 30.4242,18.2222 L 30,18.25
 z
M -23.2219,24.6855 L -23.44,24.6421 L -23.6506,24.5706 L -23.85,24.4722 L -24.0349,24.3487 L -24.2021,24.2021
 L -24.3487,24.0349 L -24.4722,23.85 L -24.5706,23.6506 L -24.6421,23.44 L -24.6855,23.2219 L -24.7,23
 L -24.6855,22.7781 L -24.6421,22.56 L -24.5706,22.3494 L -24.4722,22.15 L -24.3487,21.9651 L -24.2021,21.7979
 L -24.0349,21.6513 L -23.85,21.5278 L -23.6506,21.4294 L -23.44,21.3579 L -23.2219,21.3145 L -23,21.3
 L -22.7781,21.3145 L -22.56,21.3579 L -22.3494,21.4294 L -22.15,21.5278 L -21.9651,21.6513 L -21.7979,21.7979
 L -21.6513,21.9651 L -21.5278,22.15 L -21.4294,22.3494 L -21.3579,22.56 L -21.3145,22.7781 L -21.3,23
 L -21.3145,23.2219 L -21.3579,23.44 L -21.4294,23.6506 L -21.5278,23.85 L -21.6513,24.0349 L -21.7979,24.2021
 L -21.9651,24.3487 L -22.15,24.4722 L -22.3494,24.5706 L -22.56,24.6421 L -22.7781,24.6855 L -23,24.7
 z
M 22.7781,24.6855 L 22.56,24.6421 L 22.3494,24.5706 L 22.15,24.4722 L 21.9651,24.3487 L 21.7979,24.2021
 L 21.6513,24.0349 L 21.5278,23.85 L 21.4294,23.6506 L 21.3579,23.44 L 21.3145,23.2219 L 21.3,23
 L 21.3145,22.7781 L 21.3579,22.56 L 21.4294,22.3494 L 21.5278,22.15 L 21.6513,21.9651 L 21.7979,21.7979
 L 21.9651,21.6513 L 22.15,21.5278 L 22.3494,21.4294 L 22.56,21.3579 L 22.7781,21.3145 L 23,21.3
 L 23.2219,21.3145 L 23.44,21.3579 L 23.6506,21.4294 L 23.85,21.5278 L 24.0349,21.6513 L 24.2021,21.7979
 L 24.3487,21.9651 L 24.4722,22.15 L 24.5706,22.3494 L 24.6421,22.56 L 24.6855,22.7781 L 24.7,23
 L 24.6855,23.2219 L 24.6421,23.44 L 24.5706,23.6506 L 24.4722,23.85 L 24.3487,24.0349 L 24.2021,24.2021
 L 24.0349,24.3487 L 23.85,24.4722 L 23.6506,24.5706 L 23.44,24.6421 L 23.2219,24.6855 L 23,24.7
 z
M -30.4242,33.2222 L -30.8412,33.1393 L -31.2437,33.0026 L -31.625,32.8146 L -31.9785,32.5784 L -32.2981,32.2981
 L -32.5784,31.9785 L -32.8146,31.625 L -33.0026,31.2437 L -33.1393,30.8412 L -33.2222,30.4242 L -33.25,30
 L -33.2222,29.5758 L -33.1393,29.1588 L -33.0026,28.7563 L -32.8146,28.375 L -32.5784,28.0215 L -32.2981,27.7019
 L -31.9785,27.4216 L -31.625,27.1854 L -31.2437,26.9974 L -30.8412,26.8607 L -30.4242,26.7778 L -30,26.75
 L -29.5758,26.7778 L -29.1588,26.8607 L -28.7563,26.9974 L -28.375,27.1854 L -28.0215,27.4216 L -27.7019,27.7019
 L -27.4216,28.0215 L -27.1854,28.375 L -26.9974,28.7563 L -26.8607,29.1588 L -26.7778,29.5758 L -26.75,30
 L -26.7778,30.4242 L -26.8607,30.8412 L -26.9974,31.2437 L -27.1854,31.625 L -27.4216,31.9785 L -27.7019,32.2981
 L -28.0215,32.5784 L -28.375,32.8146 L -28.7563,33.0026 L -29.1588,33.1393 L -29.5758,33.2222 L -30,33.25
 z
M -15.4242,33.2222 L -15.8412,33.1393 L -16.2437,33.0026 L -16.625,32.8146 L -16.9785,32.5784 L -17.2981,32.2981
 L -17.5784,31.9785 L -17.8146,31.625 L -18.0026,31.2437 L -18.1393,30.8412 L -18.2222,30.4242 L -18.25,30
 L -18.2222,29.5758 L -18.1393,29.1588 L -18.0026,28.7563 L -17.8146,28.375 L -17.5784,28.0215 L -17.2981,27.7019
 L -16.9785,27.4216 L -16.625,27.1854 L -16.2437,26.9974 L -15.8412,26.8607 L -15.4242,26.7778 L -15,26.75
 L -14.5758,26.7778 L -14.1588,26.8607 L -13.7563,26.9974 L -13.375,27.1854 L -13.0215,27.4216 L -12.7019,27.7019
 L -12.4216,28.0215 L -12.1854,28.375 L -11.9974,28.7563 L -11.8607,29.1588 L -11.7778,29.5758 L -11.75,30
 L -11.7778,30.4242 L -11.8607,30.8412 L -11.9974,31.2437 L -12.1854,31.625 L -12.4216,31.9785 L -12.7019,32.2981
 L -13.0215,32.5784 L -13.375,32.8146 L -13.7563,33.0026 L -14.1588,33.1393 L -14.5758,33.2222 L -15,33.25
 z
M 14.5758,33.2222 L 14.1588,33.1393 L 13.7563,33.0026 L 13.375,32.8146 L 13.0215,32.5784 L 12.7019,32.2981
 L 12.4216,31.9785 L 12.1854,31.625 L 11.9974,31.2437 L 11.8607,30.8412 L 11.7778,30.4242 L 11.75,30
 L 11.7778,29.5758 L 11.8607,29.1588 L 11.9974,28.7563 L 12.1854,28.375 L 12.4216,28.0215 L 12.7019,27.7019
 L 13.0215,27.4216 L 13.375,27.1854 L 13.7563,26.9974 L 14.1588,26.8607 L 14.5758,26.7778 L 15,26.75
 L 15.4242,26.7778 L 15.8412,26.8607 L 16.2437,26.9974 L 16.625,27.1854 L 16.9785,27.4216 L 17.2981,27.7019
 L 17.5784,28.0215 L 17.8146,28.375 L 18.0026,28.7563 L 18.1393,29.1588 L 18.2222,29.5758 L 18.25,30
 L 18.2222,30.4242 L 18.1393,30.8412 L 18.0026,31.2437 L 17.8146,31.625 L 17.5784,31.9785 L 17.2981,32.2981
 L 16.9785,32.5784 L 16.625,32.8146 L 16.2437,33.0026 L 15.8412,33.1393 L 15.4242,33.2222 L 15,33.25
 z
M 29.5758,33.2222 L 29.1588,33.1393 L 28.7563,33.0026 L 28.375,32.8146 L 28.0215,32.5784 L 27.7019,32.2981
 L 27.4216,31.9785 L 27.1854,31.625 L 26.9974,31.2437 L 26.8607,30.8412 L 26.7778,30.4242 L 26.75,30
 L 26.7778,29.5758 L 26.8607,29.1588 L 26.9974,28.7563 L 27.1854,28.375 L 27.4216,28.0215 L 27.7019,27.7019
 L 28.0215,27.4216 L 28.375,27.1854 L 28.7563,26.9974 L 29.1588,26.8607 L 29.5758,26.7778 L 30,26.75
 L 30.4242,26.7778 L 30.8412,26.8607 L 31.2437,26.9974 L 31.625,27.1854 L 31.9785,27.4216 L 32.2981,27.7019
 L 32.5784,28.0215 L 32.8146,28.375 L 33.0026,28.7563 L 33.1393,29.1588 L 33.2222,29.5758 L 33.25,30
 L 33.2222,30.4242 L 33.1393,30.8412 L 33.0026,31.2437 L 32.8146,31.625 L 32.5784,31.9785 L 32.2981,32.2981
 L 31.9785,32.5784 L 31.625,32.8146 L 31.2437,33.0026 L 30.8412,33.1393 L 30.4242,33.2222 L 30,33.25
 z
" stroke="black" fill="lightgray" stroke-width="0.5"/>
</svg>
