<?xml version="1.0" encoding="UTF-8"?>
<!DOCTYPE svg PUBLIC "-//W3C//DTD SVG 1.1//EN" "http://www.w3.org/Graphics/SVG/1.1/DTD/svg11.dtd">
<!-- Creator: CorelDRAW -->
<svg xmlns="http://www.w3.org/2000/svg" xml:space="preserve" width="33.5292mm" height="13.5292mm" style="shape-rendering:geometricPrecision; text-rendering:geometricPrecision; image-rendering:optimizeQuality; fill-rule:evenodd; clip-rule:evenodd"
viewBox="0 0 4.61631 1.86271"
 xmlns:xlink="http://www.w3.org/1999/xlink">
 <defs>
  <style type="text/css">
   <![CDATA[
    .str2 {stroke:#1F1A17;stroke-width:0.0728605}
    .str1 {stroke:#1F1A17;stroke-width:0.0728605;stroke-linecap:round;stroke-linejoin:round}
    .str0 {stroke:black;stroke-width:0.0728605;stroke-linecap:round;stroke-linejoin:round}
    .fil0 {fill:none}
   ]]>
  </style>
 </defs>
 <g id="Layer_x0020_1">
  <metadata id="CorelCorpID_0Corel-Layer"/>
  <path class="fil0 str0" d="M0.504544 0.717948l0.0571236 0c0.0374904,-0.0647786 0.0915024,-0.118791 0.156281,-0.156281l0 -0.0571236 0.213405 0 0.213405 0 0 0.0571236c0.0647786,0.0374904 0.118791,0.0915024 0.156281,0.156281l0.0571236 0 0 0.213405 0 0.213405 -0.0571236 0c-0.0374904,0.0647786 -0.0915024,0.118791 -0.156281,0.156281l0 0.0571236 -0.213405 0 -0.213405 0 0 -0.0571236c-0.0647786,-0.0374904 -0.118791,-0.0915024 -0.156281,-0.156281l-0.0571236 0 0 -0.213405 0 -0.213405z"/>
  <path class="fil0 str0" d="M3.25815 0.717948l0.0571236 0c0.0374904,-0.0647786 0.0915024,-0.118791 0.156281,-0.156281l0 -0.0571236 0.213405 0 0.213405 0 0 0.0571236c0.0647786,0.0374904 0.118791,0.0915024 0.156281,0.156281l0.0571236 0 0 0.213405 0 0.213405 -0.0571236 0c-0.0374904,0.0647786 -0.0915024,0.118791 -0.156281,0.156281l0 0.0571236 -0.213405 0 -0.213405 0 0 -0.0571236c-0.0647786,-0.0374904 -0.118791,-0.0915024 -0.156281,-0.156281l-0.0571236 0 0 -0.213405 0 -0.213405z"/>
  <rect class="fil0 str1" x="1.88135" y="0.711064" width="0.853619" height="0.440577"/>
  <path class="fil0 str2" d="M0.0364302 1.13787l0 -0.413041c0,-0.380122 0.30828,-0.688402 0.688402,-0.688402l3.16665 0c0.380122,0 0.688402,0.30828 0.688402,0.688402l0 0.413041c0,0.380122 -0.30828,0.688402 -0.688402,0.688402l-3.16665 0c-0.380122,0 -0.688402,-0.30828 -0.688402,-0.688402z"/>
 </g>
</svg>
