  0
SECTION
  2
HEADER
  9
$ACADVER
  1
AC1014
  9
$ACADMAINTVER
 70
     9
  9
$DWGCODEPAGE
  3
ANSI_1252
  9
$INSBASE
 10
0.0
 20
0.0
 30
0.0
  9
$EXTMIN
 10
-561.7646
 20
-625.2646
 30
0.0
  9
$EXTMAX
 10
-448.2354
 20
-411.7354
 30
0.0
  9
$LIMMIN
 10
0.0
 20
0.0
  9
$LIMMAX
 10
12.0
 20
9.0
  9
$ORTHOMODE
 70
     0
  9
$REGENMODE
 70
     1
  9
$FILLMODE
 70
     1
  9
$QTEXTMODE
 70
     0
  9
$MIRRTEXT
 70
     1
  9
$DRAGMODE
 70
     2
  9
$LTSCALE
 40
1.0
  9
$OSMODE
 70
    37
  9
$ATTMODE
 70
     1
  9
$TEXTSIZE
 40
0.2
  9
$TRACEWID
 40
0.05
  9
$TEXTSTYLE
  7
STANDARD
  9
$CLAYER
  8
0
  9
$CELTYPE
  6
BYLAYER
  9
$CECOLOR
 62
   256
  9
$CELTSCALE
 40
1.0
  9
$DELOBJ
 70
     1
  9
$DISPSILH
 70
     0
  9
$DIMSCALE
 40
1.0
  9
$DIMASZ
 40
0.18
  9
$DIMEXO
 40
0.0625
  9
$DIMDLI
 40
0.38
  9
$DIMRND
 40
0.0
  9
$DIMDLE
 40
0.0
  9
$DIMEXE
 40
0.18
  9
$DIMTP
 40
0.0
  9
$DIMTM
 40
0.0
  9
$DIMTXT
 40
0.18
  9
$DIMCEN
 40
0.09
  9
$DIMTSZ
 40
0.0
  9
$DIMTOL
 70
     0
  9
$DIMLIM
 70
     0
  9
$DIMTIH
 70
     1
  9
$DIMTOH
 70
     1
  9
$DIMSE1
 70
     0
  9
$DIMSE2
 70
     0
  9
$DIMTAD
 70
     0
  9
$DIMZIN
 70
     0
  9
$DIMBLK
  1

  9
$DIMASO
 70
     1
  9
$DIMSHO
 70
     1
  9
$DIMPOST
  1

  9
$DIMAPOST
  1

  9
$DIMALT
 70
     0
  9
$DIMALTD
 70
     2
  9
$DIMALTF
 40
25.4
  9
$DIMLFAC
 40
1.0
  9
$DIMTOFL
 70
     0
  9
$DIMTVP
 40
0.0
  9
$DIMTIX
 70
     0
  9
$DIMSOXD
 70
     0
  9
$DIMSAH
 70
     0
  9
$DIMBLK1
  1

  9
$DIMBLK2
  1

  9
$DIMSTYLE
  2
STANDARD
  9
$DIMCLRD
 70
     0
  9
$DIMCLRE
 70
     0
  9
$DIMCLRT
 70
     0
  9
$DIMTFAC
 40
1.0
  9
$DIMGAP
 40
0.09
  9
$DIMJUST
 70
     0
  9
$DIMSD1
 70
     0
  9
$DIMSD2
 70
     0
  9
$DIMTOLJ
 70
     1
  9
$DIMTZIN
 70
     0
  9
$DIMALTZ
 70
     0
  9
$DIMALTTZ
 70
     0
  9
$DIMFIT
 70
     3
  9
$DIMUPT
 70
     0
  9
$DIMUNIT
 70
     2
  9
$DIMDEC
 70
     4
  9
$DIMTDEC
 70
     4
  9
$DIMALTU
 70
     2
  9
$DIMALTTD
 70
     2
  9
$DIMTXSTY
  7
STANDARD
  9
$DIMAUNIT
 70
     0
  9
$LUNITS
 70
     2
  9
$LUPREC
 70
     4
  9
$SKETCHINC
 40
0.1
  9
$FILLETRAD
 40
0.5
  9
$AUNITS
 70
     0
  9
$AUPREC
 70
     0
  9
$MENU
  1
.
  9
$ELEVATION
 40
0.0
  9
$PELEVATION
 40
0.0
  9
$THICKNESS
 40
0.0
  9
$LIMCHECK
 70
     0
  9
$CHAMFERA
 40
0.5
  9
$CHAMFERB
 40
0.5
  9
$CHAMFERC
 40
1.0
  9
$CHAMFERD
 40
0.0
  9
$SKPOLY
 70
     0
  9
$TDCREATE
 40
2458772.8091625
  9
$TDUPDATE
 40
2458772.809162511
  9
$TDINDWG
 40
0.0000000116
  9
$TDUSRTIMER
 40
0.0000000116
  9
$USRTIMER
 70
     1
  9
$ANGBASE
 50
0.0
  9
$ANGDIR
 70
     0
  9
$PDMODE
 70
     0
  9
$PDSIZE
 40
0.0
  9
$PLINEWID
 40
0.0
  9
$COORDS
 70
     1
  9
$SPLFRAME
 70
     0
  9
$SPLINETYPE
 70
     6
  9
$SPLINESEGS
 70
     8
  9
$ATTDIA
 70
     0
  9
$ATTREQ
 70
     1
  9
$HANDLING
 70
     1
  9
$HANDSEED
  5
C2
  9
$SURFTAB1
 70
     6
  9
$SURFTAB2
 70
     6
  9
$SURFTYPE
 70
     6
  9
$SURFU
 70
     6
  9
$SURFV
 70
     6
  9
$UCSNAME
  2

  9
$UCSORG
 10
0.0
 20
0.0
 30
0.0
  9
$UCSXDIR
 10
1.0
 20
0.0
 30
0.0
  9
$UCSYDIR
 10
0.0
 20
1.0
 30
0.0
  9
$PUCSNAME
  2

  9
$PUCSORG
 10
0.0
 20
0.0
 30
0.0
  9
$PUCSXDIR
 10
1.0
 20
0.0
 30
0.0
  9
$PUCSYDIR
 10
0.0
 20
1.0
 30
0.0
  9
$USERI1
 70
     0
  9
$USERI2
 70
     0
  9
$USERI3
 70
     0
  9
$USERI4
 70
     0
  9
$USERI5
 70
     0
  9
$USERR1
 40
0.0
  9
$USERR2
 40
0.0
  9
$USERR3
 40
0.0
  9
$USERR4
 40
0.0
  9
$USERR5
 40
0.0
  9
$WORLDVIEW
 70
     1
  9
$SHADEDGE
 70
     3
  9
$SHADEDIF
 70
    70
  9
$TILEMODE
 70
     1
  9
$MAXACTVP
 70
    64
  9
$PINSBASE
 10
0.0
 20
0.0
 30
0.0
  9
$PLIMCHECK
 70
     0
  9
$PEXTMIN
 10
1.000000000000000E+20
 20
1.000000000000000E+20
 30
1.000000000000000E+20
  9
$PEXTMAX
 10
-1.000000000000000E+20
 20
-1.000000000000000E+20
 30
-1.000000000000000E+20
  9
$PLIMMIN
 10
0.0
 20
0.0
  9
$PLIMMAX
 10
12.0
 20
9.0
  9
$UNITMODE
 70
     0
  9
$VISRETAIN
 70
     1
  9
$PLINEGEN
 70
     0
  9
$PSLTSCALE
 70
     1
  9
$TREEDEPTH
 70
  3020
  9
$PICKSTYLE
 70
     1
  9
$CMLSTYLE
  2
STANDARD
  9
$CMLJUST
 70
     0
  9
$CMLSCALE
 40
1.0
  9
$PROXYGRAPHICS
 70
     1
  9
$MEASUREMENT
 70
     0
  0
ENDSEC
  0
SECTION
  2
CLASSES
  0
CLASS
  1
ACDBDICTIONARYWDFLT
  2
AcDbDictionaryWithDefault
  3
ObjectDBX Classes
 90
        0
280
     0
281
     0
  0
CLASS
  1
VISUALSTYLE
  2
AcDbVisualStyle
  3
ObjectDBX Classes
 90
     4095
280
     0
281
     0
  0
CLASS
  1
SCALE
  2
AcDbScale
  3
ObjectDBX Classes
 90
     1153
280
     0
281
     0
  0
CLASS
  1
DICTIONARYVAR
  2
AcDbDictionaryVar
  3
ObjectDBX Classes
 90
        0
280
     0
281
     0
  0
CLASS
  1
XRECORD
  2
AcDbXrecord
  3
AutoCAD 2000
 90
        0
280
     0
281
     0
  0
CLASS
  1
LWPOLYLINE
  2
AcDbPolyline
  3
AutoCAD 2000
 90
        0
280
     0
281
     1
  0
CLASS
  1
HATCH
  2
AcDbHatch
  3
AutoCAD 2000
 90
        0
280
     0
281
     1
  0
CLASS
  1
ACDBPLACEHOLDER
  2
AcDbPlaceHolder
  3
ObjectDBX Classes
 90
        0
280
     0
281
     0
  0
CLASS
  1
LAYOUT
  2
AcDbLayout
  3
ObjectDBX Classes
 90
        0
280
     0
281
     0
  0
ENDSEC
  0
SECTION
  2
TABLES
  0
TABLE
  2
VPORT
  5
8
330
0
100
AcDbSymbolTable
 70
     1
  0
VPORT
  5
29
330
8
100
AcDbSymbolTableRecord
100
AcDbViewportTableRecord
  2
*ACTIVE
 70
     0
 10
0.0
 20
0.0
 11
1.0
 21
1.0
 12
10.42990654205607
 22
4.5
 13
0.0
 23
0.0
 14
0.5
 24
0.5
 15
0.5
 25
0.5
 16
0.0
 26
0.0
 36
1.0
 17
0.0
 27
0.0
 37
0.0
 40
9.0
 41
1.972972972850329
 42
50.0
 43
0.0
 44
0.0
 50
0.0
 51
0.0
 71
     0
 72
   100
 73
     1
 74
     3
 75
     0
 76
     0
 77
     0
 78
     0
  0
ENDTAB
  0
TABLE
  2
LTYPE
  5
5
330
0
100
AcDbSymbolTable
 70
     1
  0
LTYPE
  5
14
330
5
100
AcDbSymbolTableRecord
100
AcDbLinetypeTableRecord
  2
BYBLOCK
 70
     0
  3

 72
    65
 73
     0
 40
0.0
  0
LTYPE
  5
15
330
5
100
AcDbSymbolTableRecord
100
AcDbLinetypeTableRecord
  2
BYLAYER
 70
     0
  3

 72
    65
 73
     0
 40
0.0
  0
LTYPE
  5
16
330
5
100
AcDbSymbolTableRecord
100
AcDbLinetypeTableRecord
  2
CONTINUOUS
 70
     0
  3
Solid line
 72
    65
 73
     0
 40
0.0
  0
ENDTAB
  0
TABLE
  2
LAYER
  5
2
330
0
100
AcDbSymbolTable
 70
     2
  0
LAYER
  5
10
330
2
100
AcDbSymbolTableRecord
100
AcDbLayerTableRecord
  2
0
 70
     0
 62
     7
  6
CONTINUOUS
  0
LAYER
  5
5E
330
2
100
AcDbSymbolTableRecord
100
AcDbLayerTableRecord
  2
LAYER_1
 70
     0
 62
     7
  6
CONTINUOUS
  0
ENDTAB
  0
TABLE
  2
STYLE
  5
3
330
0
100
AcDbSymbolTable
 70
     1
  0
STYLE
  5
11
330
3
100
AcDbSymbolTableRecord
100
AcDbTextStyleTableRecord
  2
STANDARD
 70
     0
 40
0.0
 41
1.0
 50
0.0
 71
     0
 42
0.2
  3
txt
  4

  0
ENDTAB
  0
TABLE
  2
VIEW
  5
6
330
0
100
AcDbSymbolTable
 70
     0
  0
ENDTAB
  0
TABLE
  2
UCS
  5
7
330
0
100
AcDbSymbolTable
 70
     0
  0
ENDTAB
  0
TABLE
  2
APPID
  5
9
330
0
100
AcDbSymbolTable
 70
     2
  0
APPID
  5
12
330
9
100
AcDbSymbolTableRecord
100
AcDbRegAppTableRecord
  2
ACAD
 70
     0
  0
APPID
  5
5D
330
9
100
AcDbSymbolTableRecord
100
AcDbRegAppTableRecord
  2
ODA
 70
     0
  0
ENDTAB
  0
TABLE
  2
DIMSTYLE
  5
A
330
0
100
AcDbSymbolTable
 70
     1
  0
DIMSTYLE
105
27
330
A
100
AcDbSymbolTableRecord
100
AcDbDimStyleTableRecord
  2
STANDARD
 70
     0
  3

  4

  5

  6

  7

 40
1.0
 41
0.18
 42
0.0625
 43
0.38
 44
0.18
 45
0.0
 46
0.0
 47
0.0
 48
0.0
140
0.18
141
0.09
142
0.0
143
25.4
144
1.0
145
0.0
146
1.0
147
0.09
 71
     0
 72
     0
 73
     1
 74
     1
 75
     0
 76
     0
 77
     0
 78
     0
170
     0
171
     2
172
     0
173
     0
174
     0
175
     0
176
     0
177
     0
178
     0
270
     2
271
     4
272
     4
273
     2
274
     2
340
11
275
     0
280
     0
281
     0
282
     0
283
     1
284
     0
285
     0
286
     0
287
     3
288
     0
  0
ENDTAB
  0
TABLE
  2
BLOCK_RECORD
  5
1
330
0
100
AcDbSymbolTable
 70
     1
  0
BLOCK_RECORD
  5
1F
330
1
100
AcDbSymbolTableRecord
100
AcDbBlockTableRecord
  2
*MODEL_SPACE
  0
BLOCK_RECORD
  5
1B
330
1
100
AcDbSymbolTableRecord
100
AcDbBlockTableRecord
  2
*PAPER_SPACE
  0
ENDTAB
  0
ENDSEC
  0
SECTION
  2
BLOCKS
  0
BLOCK
  5
20
330
1F
100
AcDbEntity
  8
0
100
AcDbBlockBegin
  2
*MODEL_SPACE
 70
     0
 10
0.0
 20
0.0
 30
0.0
  3
*MODEL_SPACE
  1

  0
ENDBLK
  5
21
330
1F
100
AcDbEntity
  8
0
100
AcDbBlockEnd
  0
BLOCK
  5
1C
330
1B
100
AcDbEntity
 67
     1
  8
0
100
AcDbBlockBegin
  2
*PAPER_SPACE
 70
     0
 10
0.0
 20
0.0
 30
0.0
  3
*PAPER_SPACE
  1

  0
ENDBLK
  5
1D
330
1B
100
AcDbEntity
 67
     1
  8
0
100
AcDbBlockEnd
  0
ENDSEC
  0
SECTION
  2
ENTITIES
  0
SPLINE
  5
5F
330
1F
100
AcDbEntity
  8
LAYER_1
100
AcDbSpline
210
0.0
220
0.0
230
1.0
 70
    11
 71
     3
 72
    68
 73
    64
 74
     0
 42
0.0000000001
 43
0.0000000001
 40
0.0
 40
0.0
 40
0.0
 40
0.0
 40
0.0625
 40
0.0625
 40
0.0625
 40
0.0625
 40
0.125
 40
0.125
 40
0.125
 40
0.125
 40
0.1875
 40
0.1875
 40
0.1875
 40
0.1875
 40
0.25
 40
0.25
 40
0.25
 40
0.25
 40
0.3125
 40
0.3125
 40
0.3125
 40
0.3125
 40
0.375
 40
0.375
 40
0.375
 40
0.375
 40
0.4375
 40
0.4375
 40
0.4375
 40
0.4375
 40
0.5
 40
0.5
 40
0.5
 40
0.5
 40
0.5625
 40
0.5625
 40
0.5625
 40
0.5625
 40
0.625
 40
0.625
 40
0.625
 40
0.625
 40
0.6875
 40
0.6875
 40
0.6875
 40
0.6875
 40
0.75
 40
0.75
 40
0.75
 40
0.75
 40
0.8125
 40
0.8125
 40
0.8125
 40
0.8125
 40
0.875
 40
0.875
 40
0.875
 40
0.875
 40
0.9375
 40
0.9375
 40
0.9375
 40
0.9375
 40
1.0
 40
1.0
 40
1.0
 40
1.0
 10
-545.0
 20
-428.6221
 30
0.0
 10
-545.0
 20
-428.6221
 30
0.0
 10
-545.0
 20
-451.0446
 30
0.0
 10
-545.0
 20
-451.0446
 30
0.0
 10
-545.0
 20
-451.0446
 30
0.0
 10
-544.2388
 20
-450.6951
 30
0.0
 10
-543.3922
 20
-450.5
 30
0.0
 10
-542.5
 20
-450.5
 30
0.0
 10
-542.5
 20
-450.5
 30
0.0
 10
-539.187
 20
-450.5
 30
0.0
 10
-536.5
 20
-453.187
 30
0.0
 10
-536.5
 20
-456.5
 30
0.0
 10
-536.5
 20
-456.5
 30
0.0
 10
-536.5
 20
-457.3922
 30
0.0
 10
-536.6951
 20
-458.2388
 30
0.0
 10
-537.0446
 20
-459.0
 30
0.0
 10
-537.0446
 20
-459.0
 30
0.0
 10
-537.0446
 20
-459.0
 30
0.0
 10
-472.9554
 20
-459.0
 30
0.0
 10
-472.9554
 20
-459.0
 30
0.0
 10
-472.9554
 20
-459.0
 30
0.0
 10
-473.3049
 20
-458.2388
 30
0.0
 10
-473.5
 20
-457.3922
 30
0.0
 10
-473.5
 20
-456.5
 30
0.0
 10
-473.5
 20
-456.5
 30
0.0
 10
-473.5
 20
-453.187
 30
0.0
 10
-470.813
 20
-450.5
 30
0.0
 10
-467.5
 20
-450.5
 30
0.0
 10
-467.5
 20
-450.5
 30
0.0
 10
-466.6078
 20
-450.5
 30
0.0
 10
-465.7612
 20
-450.6951
 30
0.0
 10
-465.0
 20
-451.0446
 30
0.0
 10
-465.0
 20
-451.0446
 30
0.0
 10
-465.0
 20
-451.0446
 30
0.0
 10
-465.0
 20
-430.9554
 30
0.0
 10
-465.0
 20
-430.9554
 30
0.0
 10
-465.0
 20
-430.9554
 30
0.0
 10
-465.7612
 20
-431.3049
 30
0.0
 10
-466.6078
 20
-431.5
 30
0.0
 10
-467.5
 20
-431.5
 30
0.0
 10
-467.5
 20
-431.5
 30
0.0
 10
-470.813
 20
-431.5
 30
0.0
 10
-473.5
 20
-428.813
 30
0.0
 10
-473.5
 20
-425.5
 30
0.0
 10
-473.5
 20
-425.5
 30
0.0
 10
-473.5
 20
-424.6078
 30
0.0
 10
-473.3049
 20
-423.7612
 30
0.0
 10
-472.9554
 20
-423.0
 30
0.0
 10
-472.9554
 20
-423.0
 30
0.0
 10
-472.9554
 20
-423.0
 30
0.0
 10
-539.3779
 20
-423.0
 30
0.0
 10
-539.3779
 20
-423.0
 30
0.0
 10
-539.3779
 20
-423.0
 30
0.0
 10
-539.3779
 20
-423.0
 30
0.0
 10
-539.4135
 20
-428.0442
 30
0.0
 10
-539.4135
 20
-428.0442
 30
0.0
 10
-539.4135
 20
-428.0442
 30
0.0
 10
-539.4215
 20
-429.1967
 30
0.0
 10
-541.2576
 20
-429.5
 30
0.0
 10
-542.5
 20
-429.5
 30
0.0
 10
-542.5
 20
-429.5
 30
0.0
 10
-543.4459
 20
-429.5
 30
0.0
 10
-544.3151
 20
-429.1713
 30
0.0
 10
-545.0
 20
-428.6221
 30
0.0
  0
SPLINE
  5
60
330
1F
100
AcDbEntity
  8
LAYER_1
100
AcDbSpline
210
0.0
220
0.0
230
1.0
 70
    11
 71
     3
 72
    36
 73
    32
 74
     0
 42
0.0000000001
 43
0.0000000001
 40
0.0
 40
0.0
 40
0.0
 40
0.0
 40
0.125
 40
0.125
 40
0.125
 40
0.125
 40
0.25
 40
0.25
 40
0.25
 40
0.25
 40
0.375
 40
0.375
 40
0.375
 40
0.375
 40
0.5
 40
0.5
 40
0.5
 40
0.5
 40
0.625
 40
0.625
 40
0.625
 40
0.625
 40
0.75
 40
0.75
 40
0.75
 40
0.75
 40
0.875
 40
0.875
 40
0.875
 40
0.875
 40
1.0
 40
1.0
 40
1.0
 40
1.0
 10
-448.5
 20
-460.0
 30
0.0
 10
-448.5
 20
-460.0
 30
0.0
 10
-448.5
 20
-417.0
 30
0.0
 10
-448.5
 20
-417.0
 30
0.0
 10
-448.5
 20
-417.0
 30
0.0
 10
-448.5
 20
-414.2391
 30
0.0
 10
-450.7391
 20
-412.0
 30
0.0
 10
-453.5
 20
-412.0
 30
0.0
 10
-453.5
 20
-412.0
 30
0.0
 10
-453.5
 20
-412.0
 30
0.0
 10
-556.5
 20
-412.0
 30
0.0
 10
-556.5
 20
-412.0
 30
0.0
 10
-556.5
 20
-412.0
 30
0.0
 10
-559.2609
 20
-412.0
 30
0.0
 10
-561.5
 20
-414.2391
 30
0.0
 10
-561.5
 20
-417.0
 30
0.0
 10
-561.5
 20
-417.0
 30
0.0
 10
-561.5
 20
-417.0
 30
0.0
 10
-561.5
 20
-460.0
 30
0.0
 10
-561.5
 20
-460.0
 30
0.0
 10
-561.5
 20
-460.0
 30
0.0
 10
-561.5
 20
-462.7609
 30
0.0
 10
-559.2609
 20
-465.0
 30
0.0
 10
-556.5
 20
-465.0
 30
0.0
 10
-556.5
 20
-465.0
 30
0.0
 10
-556.5
 20
-465.0
 30
0.0
 10
-453.5
 20
-465.0
 30
0.0
 10
-453.5
 20
-465.0
 30
0.0
 10
-453.5
 20
-465.0
 30
0.0
 10
-450.7391
 20
-465.0
 30
0.0
 10
-448.5
 20
-462.7609
 30
0.0
 10
-448.5
 20
-460.0
 30
0.0
  0
SPLINE
  5
61
330
1F
100
AcDbEntity
  8
LAYER_1
100
AcDbSpline
210
0.0
220
0.0
230
1.0
 70
    11
 71
     3
 72
    20
 73
    16
 74
     0
 42
0.0000000001
 43
0.0000000001
 40
0.0
 40
0.0
 40
0.0
 40
0.0
 40
0.25
 40
0.25
 40
0.25
 40
0.25
 40
0.5
 40
0.5
 40
0.5
 40
0.5
 40
0.75
 40
0.75
 40
0.75
 40
0.75
 40
1.0
 40
1.0
 40
1.0
 40
1.0
 10
-556.55
 20
-431.6
 30
0.0
 10
-556.55
 20
-431.6
 30
0.0
 10
-556.55
 20
-425.4
 30
0.0
 10
-556.55
 20
-425.4
 30
0.0
 10
-556.55
 20
-425.4
 30
0.0
 10
-556.55
 20
-425.4
 30
0.0
 10
-553.45
 20
-425.4
 30
0.0
 10
-553.45
 20
-425.4
 30
0.0
 10
-553.45
 20
-425.4
 30
0.0
 10
-553.45
 20
-425.4
 30
0.0
 10
-553.45
 20
-431.6
 30
0.0
 10
-553.45
 20
-431.6
 30
0.0
 10
-553.45
 20
-431.6
 30
0.0
 10
-553.45
 20
-431.6
 30
0.0
 10
-556.55
 20
-431.6
 30
0.0
 10
-556.55
 20
-431.6
 30
0.0
  0
SPLINE
  5
62
330
1F
100
AcDbEntity
  8
LAYER_1
100
AcDbSpline
210
0.0
220
0.0
230
1.0
 70
    11
 71
     3
 72
    84
 73
    80
 74
     0
 42
0.0000000001
 43
0.0000000001
 40
0.0
 40
0.0
 40
0.0
 40
0.0
 40
0.05
 40
0.05
 40
0.05
 40
0.05
 40
0.1
 40
0.1
 40
0.1
 40
0.1
 40
0.15
 40
0.15
 40
0.15
 40
0.15
 40
0.2
 40
0.2
 40
0.2
 40
0.2
 40
0.25
 40
0.25
 40
0.25
 40
0.25
 40
0.3
 40
0.3
 40
0.3
 40
0.3
 40
0.35
 40
0.35
 40
0.35
 40
0.35
 40
0.4
 40
0.4
 40
0.4
 40
0.4
 40
0.45
 40
0.45
 40
0.45
 40
0.45
 40
0.4999999999999999
 40
0.4999999999999999
 40
0.4999999999999999
 40
0.4999999999999999
 40
0.5499999999999999
 40
0.5499999999999999
 40
0.5499999999999999
 40
0.5499999999999999
 40
0.6
 40
0.6
 40
0.6
 40
0.6
 40
0.65
 40
0.65
 40
0.65
 40
0.65
 40
0.7000000000000001
 40
0.7000000000000001
 40
0.7000000000000001
 40
0.7000000000000001
 40
0.7500000000000001
 40
0.7500000000000001
 40
0.7500000000000001
 40
0.7500000000000001
 40
0.8000000000000002
 40
0.8000000000000002
 40
0.8000000000000002
 40
0.8000000000000002
 40
0.8500000000000002
 40
0.8500000000000002
 40
0.8500000000000002
 40
0.8500000000000002
 40
0.9000000000000002
 40
0.9000000000000002
 40
0.9000000000000002
 40
0.9000000000000002
 40
0.9500000000000003
 40
0.9500000000000003
 40
0.9500000000000003
 40
0.9500000000000003
 40
1.0
 40
1.0
 40
1.0
 40
1.0
 10
-556.55
 20
-421.6
 30
0.0
 10
-556.55
 20
-421.6
 30
0.0
 10
-556.55
 20
-421.1851
 30
0.0
 10
-556.55
 20
-421.1851
 30
0.0
 10
-556.55
 20
-421.1851
 30
0.0
 10
-557.0205
 20
-420.9128
 30
0.0
 10
-557.4128
 20
-420.5205
 30
0.0
 10
-557.6851
 20
-420.05
 30
0.0
 10
-557.6851
 20
-420.05
 30
0.0
 10
-557.6851
 20
-420.05
 30
0.0
 10
-558.1
 20
-420.05
 30
0.0
 10
-558.1
 20
-420.05
 30
0.0
 10
-558.1
 20
-420.05
 30
0.0
 10
-558.1
 20
-420.05
 30
0.0
 10
-558.1
 20
-418.5
 30
0.0
 10
-558.1
 20
-418.5
 30
0.0
 10
-558.1
 20
-418.5
 30
0.0
 10
-558.1
 20
-418.5
 30
0.0
 10
-558.1
 20
-416.95
 30
0.0
 10
-558.1
 20
-416.95
 30
0.0
 10
-558.1
 20
-416.95
 30
0.0
 10
-558.1
 20
-416.95
 30
0.0
 10
-557.6851
 20
-416.95
 30
0.0
 10
-557.6851
 20
-416.95
 30
0.0
 10
-557.6851
 20
-416.95
 30
0.0
 10
-557.4128
 20
-416.4795
 30
0.0
 10
-557.0205
 20
-416.0872
 30
0.0
 10
-556.55
 20
-415.8149
 30
0.0
 10
-556.55
 20
-415.8149
 30
0.0
 10
-556.55
 20
-415.8149
 30
0.0
 10
-556.55
 20
-415.4
 30
0.0
 10
-556.55
 20
-415.4
 30
0.0
 10
-556.55
 20
-415.4
 30
0.0
 10
-556.55
 20
-415.4
 30
0.0
 10
-555.0
 20
-415.4
 30
0.0
 10
-555.0
 20
-415.4
 30
0.0
 10
-555.0
 20
-415.4
 30
0.0
 10
-555.0
 20
-415.4
 30
0.0
 10
-553.45
 20
-415.4
 30
0.0
 10
-553.45
 20
-415.4
 30
0.0
 10
-553.45
 20
-415.4
 30
0.0
 10
-553.45
 20
-415.4
 30
0.0
 10
-553.45
 20
-415.8149
 30
0.0
 10
-553.45
 20
-415.8149
 30
0.0
 10
-553.45
 20
-415.8149
 30
0.0
 10
-552.9795
 20
-416.0872
 30
0.0
 10
-552.5872
 20
-416.4795
 30
0.0
 10
-552.3149
 20
-416.95
 30
0.0
 10
-552.3149
 20
-416.95
 30
0.0
 10
-552.3149
 20
-416.95
 30
0.0
 10
-551.9
 20
-416.95
 30
0.0
 10
-551.9
 20
-416.95
 30
0.0
 10
-551.9
 20
-416.95
 30
0.0
 10
-551.9
 20
-416.95
 30
0.0
 10
-551.9
 20
-418.5
 30
0.0
 10
-551.9
 20
-418.5
 30
0.0
 10
-551.9
 20
-418.5
 30
0.0
 10
-551.9
 20
-418.5
 30
0.0
 10
-551.9
 20
-420.05
 30
0.0
 10
-551.9
 20
-420.05
 30
0.0
 10
-551.9
 20
-420.05
 30
0.0
 10
-551.9
 20
-420.05
 30
0.0
 10
-552.3149
 20
-420.05
 30
0.0
 10
-552.3149
 20
-420.05
 30
0.0
 10
-552.3149
 20
-420.05
 30
0.0
 10
-552.5872
 20
-420.5205
 30
0.0
 10
-552.9795
 20
-420.9128
 30
0.0
 10
-553.45
 20
-421.1851
 30
0.0
 10
-553.45
 20
-421.1851
 30
0.0
 10
-553.45
 20
-421.1851
 30
0.0
 10
-553.45
 20
-421.6
 30
0.0
 10
-553.45
 20
-421.6
 30
0.0
 10
-553.45
 20
-421.6
 30
0.0
 10
-553.45
 20
-421.6
 30
0.0
 10
-555.0
 20
-421.6
 30
0.0
 10
-555.0
 20
-421.6
 30
0.0
 10
-555.0
 20
-421.6
 30
0.0
 10
-555.0
 20
-421.6
 30
0.0
 10
-556.55
 20
-421.6
 30
0.0
 10
-556.55
 20
-421.6
 30
0.0
  0
LWPOLYLINE
  5
63
330
1F
100
AcDbEntity
  8
LAYER_1
100
AcDbPolyline
 90
        5
 70
     1
 43
0.0
 10
-548.2
 20
-420.1
 10
-541.8
 20
-420.1
 10
-541.8
 20
-416.9
 10
-548.2
 20
-416.9
 10
-548.2
 20
-420.1
  0
SPLINE
  5
64
330
1F
100
AcDbEntity
  8
LAYER_1
100
AcDbSpline
210
0.0
220
0.0
230
1.0
 70
    11
 71
     3
 72
    84
 73
    80
 74
     0
 42
0.0000000001
 43
0.0000000001
 40
0.0
 40
0.0
 40
0.0
 40
0.0
 40
0.05
 40
0.05
 40
0.05
 40
0.05
 40
0.1
 40
0.1
 40
0.1
 40
0.1
 40
0.15
 40
0.15
 40
0.15
 40
0.15
 40
0.2
 40
0.2
 40
0.2
 40
0.2
 40
0.25
 40
0.25
 40
0.25
 40
0.25
 40
0.3
 40
0.3
 40
0.3
 40
0.3
 40
0.35
 40
0.35
 40
0.35
 40
0.35
 40
0.4
 40
0.4
 40
0.4
 40
0.4
 40
0.45
 40
0.45
 40
0.45
 40
0.45
 40
0.4999999999999999
 40
0.4999999999999999
 40
0.4999999999999999
 40
0.4999999999999999
 40
0.5499999999999999
 40
0.5499999999999999
 40
0.5499999999999999
 40
0.5499999999999999
 40
0.6
 40
0.6
 40
0.6
 40
0.6
 40
0.65
 40
0.65
 40
0.65
 40
0.65
 40
0.7000000000000001
 40
0.7000000000000001
 40
0.7000000000000001
 40
0.7000000000000001
 40
0.7500000000000001
 40
0.7500000000000001
 40
0.7500000000000001
 40
0.7500000000000001
 40
0.8000000000000002
 40
0.8000000000000002
 40
0.8000000000000002
 40
0.8000000000000002
 40
0.8500000000000002
 40
0.8500000000000002
 40
0.8500000000000002
 40
0.8500000000000002
 40
0.9000000000000002
 40
0.9000000000000002
 40
0.9000000000000002
 40
0.9000000000000002
 40
0.9500000000000003
 40
0.9500000000000003
 40
0.9500000000000003
 40
0.9500000000000003
 40
1.0
 40
1.0
 40
1.0
 40
1.0
 10
-536.55
 20
-421.6
 30
0.0
 10
-536.55
 20
-421.6
 30
0.0
 10
-536.55
 20
-421.1851
 30
0.0
 10
-536.55
 20
-421.1851
 30
0.0
 10
-536.55
 20
-421.1851
 30
0.0
 10
-537.0205
 20
-420.9128
 30
0.0
 10
-537.4128
 20
-420.5205
 30
0.0
 10
-537.6851
 20
-420.05
 30
0.0
 10
-537.6851
 20
-420.05
 30
0.0
 10
-537.6851
 20
-420.05
 30
0.0
 10
-538.1
 20
-420.05
 30
0.0
 10
-538.1
 20
-420.05
 30
0.0
 10
-538.1
 20
-420.05
 30
0.0
 10
-538.1
 20
-420.05
 30
0.0
 10
-538.1
 20
-418.5
 30
0.0
 10
-538.1
 20
-418.5
 30
0.0
 10
-538.1
 20
-418.5
 30
0.0
 10
-538.1
 20
-418.5
 30
0.0
 10
-538.1
 20
-416.95
 30
0.0
 10
-538.1
 20
-416.95
 30
0.0
 10
-538.1
 20
-416.95
 30
0.0
 10
-538.1
 20
-416.95
 30
0.0
 10
-537.6851
 20
-416.95
 30
0.0
 10
-537.6851
 20
-416.95
 30
0.0
 10
-537.6851
 20
-416.95
 30
0.0
 10
-537.4128
 20
-416.4795
 30
0.0
 10
-537.0205
 20
-416.0872
 30
0.0
 10
-536.55
 20
-415.8149
 30
0.0
 10
-536.55
 20
-415.8149
 30
0.0
 10
-536.55
 20
-415.8149
 30
0.0
 10
-536.55
 20
-415.4
 30
0.0
 10
-536.55
 20
-415.4
 30
0.0
 10
-536.55
 20
-415.4
 30
0.0
 10
-536.55
 20
-415.4
 30
0.0
 10
-535.0
 20
-415.4
 30
0.0
 10
-535.0
 20
-415.4
 30
0.0
 10
-535.0
 20
-415.4
 30
0.0
 10
-535.0
 20
-415.4
 30
0.0
 10
-533.45
 20
-415.4
 30
0.0
 10
-533.45
 20
-415.4
 30
0.0
 10
-533.45
 20
-415.4
 30
0.0
 10
-533.45
 20
-415.4
 30
0.0
 10
-533.45
 20
-415.8149
 30
0.0
 10
-533.45
 20
-415.8149
 30
0.0
 10
-533.45
 20
-415.8149
 30
0.0
 10
-532.9795
 20
-416.0872
 30
0.0
 10
-532.5872
 20
-416.4795
 30
0.0
 10
-532.3149
 20
-416.95
 30
0.0
 10
-532.3149
 20
-416.95
 30
0.0
 10
-532.3149
 20
-416.95
 30
0.0
 10
-531.9
 20
-416.95
 30
0.0
 10
-531.9
 20
-416.95
 30
0.0
 10
-531.9
 20
-416.95
 30
0.0
 10
-531.9
 20
-416.95
 30
0.0
 10
-531.9
 20
-418.5
 30
0.0
 10
-531.9
 20
-418.5
 30
0.0
 10
-531.9
 20
-418.5
 30
0.0
 10
-531.9
 20
-418.5
 30
0.0
 10
-531.9
 20
-420.05
 30
0.0
 10
-531.9
 20
-420.05
 30
0.0
 10
-531.9
 20
-420.05
 30
0.0
 10
-531.9
 20
-420.05
 30
0.0
 10
-532.3149
 20
-420.05
 30
0.0
 10
-532.3149
 20
-420.05
 30
0.0
 10
-532.3149
 20
-420.05
 30
0.0
 10
-532.5872
 20
-420.5205
 30
0.0
 10
-532.9795
 20
-420.9128
 30
0.0
 10
-533.45
 20
-421.1851
 30
0.0
 10
-533.45
 20
-421.1851
 30
0.0
 10
-533.45
 20
-421.1851
 30
0.0
 10
-533.45
 20
-421.6
 30
0.0
 10
-533.45
 20
-421.6
 30
0.0
 10
-533.45
 20
-421.6
 30
0.0
 10
-533.45
 20
-421.6
 30
0.0
 10
-535.0
 20
-421.6
 30
0.0
 10
-535.0
 20
-421.6
 30
0.0
 10
-535.0
 20
-421.6
 30
0.0
 10
-535.0
 20
-421.6
 30
0.0
 10
-536.55
 20
-421.6
 30
0.0
 10
-536.55
 20
-421.6
 30
0.0
  0
SPLINE
  5
65
330
1F
100
AcDbEntity
  8
LAYER_1
100
AcDbSpline
210
0.0
220
0.0
230
1.0
 70
    11
 71
     3
 72
    84
 73
    80
 74
     0
 42
0.0000000001
 43
0.0000000001
 40
0.0
 40
0.0
 40
0.0
 40
0.0
 40
0.05
 40
0.05
 40
0.05
 40
0.05
 40
0.1
 40
0.1
 40
0.1
 40
0.1
 40
0.15
 40
0.15
 40
0.15
 40
0.15
 40
0.2
 40
0.2
 40
0.2
 40
0.2
 40
0.25
 40
0.25
 40
0.25
 40
0.25
 40
0.3
 40
0.3
 40
0.3
 40
0.3
 40
0.35
 40
0.35
 40
0.35
 40
0.35
 40
0.4
 40
0.4
 40
0.4
 40
0.4
 40
0.45
 40
0.45
 40
0.45
 40
0.45
 40
0.4999999999999999
 40
0.4999999999999999
 40
0.4999999999999999
 40
0.4999999999999999
 40
0.5499999999999999
 40
0.5499999999999999
 40
0.5499999999999999
 40
0.5499999999999999
 40
0.6
 40
0.6
 40
0.6
 40
0.6
 40
0.65
 40
0.65
 40
0.65
 40
0.65
 40
0.7000000000000001
 40
0.7000000000000001
 40
0.7000000000000001
 40
0.7000000000000001
 40
0.7500000000000001
 40
0.7500000000000001
 40
0.7500000000000001
 40
0.7500000000000001
 40
0.8000000000000002
 40
0.8000000000000002
 40
0.8000000000000002
 40
0.8000000000000002
 40
0.8500000000000002
 40
0.8500000000000002
 40
0.8500000000000002
 40
0.8500000000000002
 40
0.9000000000000002
 40
0.9000000000000002
 40
0.9000000000000002
 40
0.9000000000000002
 40
0.9500000000000003
 40
0.9500000000000003
 40
0.9500000000000003
 40
0.9500000000000003
 40
1.0
 40
1.0
 40
1.0
 40
1.0
 10
-516.55
 20
-421.6
 30
0.0
 10
-516.55
 20
-421.6
 30
0.0
 10
-516.55
 20
-421.1851
 30
0.0
 10
-516.55
 20
-421.1851
 30
0.0
 10
-516.55
 20
-421.1851
 30
0.0
 10
-517.0205
 20
-420.9128
 30
0.0
 10
-517.4128
 20
-420.5205
 30
0.0
 10
-517.6851
 20
-420.05
 30
0.0
 10
-517.6851
 20
-420.05
 30
0.0
 10
-517.6851
 20
-420.05
 30
0.0
 10
-518.1
 20
-420.05
 30
0.0
 10
-518.1
 20
-420.05
 30
0.0
 10
-518.1
 20
-420.05
 30
0.0
 10
-518.1
 20
-420.05
 30
0.0
 10
-518.1
 20
-418.5
 30
0.0
 10
-518.1
 20
-418.5
 30
0.0
 10
-518.1
 20
-418.5
 30
0.0
 10
-518.1
 20
-418.5
 30
0.0
 10
-518.1
 20
-416.95
 30
0.0
 10
-518.1
 20
-416.95
 30
0.0
 10
-518.1
 20
-416.95
 30
0.0
 10
-518.1
 20
-416.95
 30
0.0
 10
-517.6851
 20
-416.95
 30
0.0
 10
-517.6851
 20
-416.95
 30
0.0
 10
-517.6851
 20
-416.95
 30
0.0
 10
-517.4128
 20
-416.4795
 30
0.0
 10
-517.0205
 20
-416.0872
 30
0.0
 10
-516.55
 20
-415.8149
 30
0.0
 10
-516.55
 20
-415.8149
 30
0.0
 10
-516.55
 20
-415.8149
 30
0.0
 10
-516.55
 20
-415.4
 30
0.0
 10
-516.55
 20
-415.4
 30
0.0
 10
-516.55
 20
-415.4
 30
0.0
 10
-516.55
 20
-415.4
 30
0.0
 10
-515.0
 20
-415.4
 30
0.0
 10
-515.0
 20
-415.4
 30
0.0
 10
-515.0
 20
-415.4
 30
0.0
 10
-515.0
 20
-415.4
 30
0.0
 10
-513.45
 20
-415.4
 30
0.0
 10
-513.45
 20
-415.4
 30
0.0
 10
-513.45
 20
-415.4
 30
0.0
 10
-513.45
 20
-415.4
 30
0.0
 10
-513.45
 20
-415.8149
 30
0.0
 10
-513.45
 20
-415.8149
 30
0.0
 10
-513.45
 20
-415.8149
 30
0.0
 10
-512.9795
 20
-416.0872
 30
0.0
 10
-512.5872
 20
-416.4795
 30
0.0
 10
-512.3149
 20
-416.95
 30
0.0
 10
-512.3149
 20
-416.95
 30
0.0
 10
-512.3149
 20
-416.95
 30
0.0
 10
-511.9
 20
-416.95
 30
0.0
 10
-511.9
 20
-416.95
 30
0.0
 10
-511.9
 20
-416.95
 30
0.0
 10
-511.9
 20
-416.95
 30
0.0
 10
-511.9
 20
-418.5
 30
0.0
 10
-511.9
 20
-418.5
 30
0.0
 10
-511.9
 20
-418.5
 30
0.0
 10
-511.9
 20
-418.5
 30
0.0
 10
-511.9
 20
-420.05
 30
0.0
 10
-511.9
 20
-420.05
 30
0.0
 10
-511.9
 20
-420.05
 30
0.0
 10
-511.9
 20
-420.05
 30
0.0
 10
-512.3149
 20
-420.05
 30
0.0
 10
-512.3149
 20
-420.05
 30
0.0
 10
-512.3149
 20
-420.05
 30
0.0
 10
-512.5872
 20
-420.5205
 30
0.0
 10
-512.9795
 20
-420.9128
 30
0.0
 10
-513.45
 20
-421.1851
 30
0.0
 10
-513.45
 20
-421.1851
 30
0.0
 10
-513.45
 20
-421.1851
 30
0.0
 10
-513.45
 20
-421.6
 30
0.0
 10
-513.45
 20
-421.6
 30
0.0
 10
-513.45
 20
-421.6
 30
0.0
 10
-513.45
 20
-421.6
 30
0.0
 10
-515.0
 20
-421.6
 30
0.0
 10
-515.0
 20
-421.6
 30
0.0
 10
-515.0
 20
-421.6
 30
0.0
 10
-515.0
 20
-421.6
 30
0.0
 10
-516.55
 20
-421.6
 30
0.0
 10
-516.55
 20
-421.6
 30
0.0
  0
SPLINE
  5
66
330
1F
100
AcDbEntity
  8
LAYER_1
100
AcDbSpline
210
0.0
220
0.0
230
1.0
 70
    11
 71
     3
 72
    84
 73
    80
 74
     0
 42
0.0000000001
 43
0.0000000001
 40
0.0
 40
0.0
 40
0.0
 40
0.0
 40
0.05
 40
0.05
 40
0.05
 40
0.05
 40
0.1
 40
0.1
 40
0.1
 40
0.1
 40
0.15
 40
0.15
 40
0.15
 40
0.15
 40
0.2
 40
0.2
 40
0.2
 40
0.2
 40
0.25
 40
0.25
 40
0.25
 40
0.25
 40
0.3
 40
0.3
 40
0.3
 40
0.3
 40
0.35
 40
0.35
 40
0.35
 40
0.35
 40
0.4
 40
0.4
 40
0.4
 40
0.4
 40
0.45
 40
0.45
 40
0.45
 40
0.45
 40
0.4999999999999999
 40
0.4999999999999999
 40
0.4999999999999999
 40
0.4999999999999999
 40
0.5499999999999999
 40
0.5499999999999999
 40
0.5499999999999999
 40
0.5499999999999999
 40
0.6
 40
0.6
 40
0.6
 40
0.6
 40
0.65
 40
0.65
 40
0.65
 40
0.65
 40
0.7000000000000001
 40
0.7000000000000001
 40
0.7000000000000001
 40
0.7000000000000001
 40
0.7500000000000001
 40
0.7500000000000001
 40
0.7500000000000001
 40
0.7500000000000001
 40
0.8000000000000002
 40
0.8000000000000002
 40
0.8000000000000002
 40
0.8000000000000002
 40
0.8500000000000002
 40
0.8500000000000002
 40
0.8500000000000002
 40
0.8500000000000002
 40
0.9000000000000002
 40
0.9000000000000002
 40
0.9000000000000002
 40
0.9000000000000002
 40
0.9500000000000003
 40
0.9500000000000003
 40
0.9500000000000003
 40
0.9500000000000003
 40
1.0
 40
1.0
 40
1.0
 40
1.0
 10
-496.55
 20
-421.6
 30
0.0
 10
-496.55
 20
-421.6
 30
0.0
 10
-496.55
 20
-421.1851
 30
0.0
 10
-496.55
 20
-421.1851
 30
0.0
 10
-496.55
 20
-421.1851
 30
0.0
 10
-497.0205
 20
-420.9128
 30
0.0
 10
-497.4128
 20
-420.5205
 30
0.0
 10
-497.6851
 20
-420.05
 30
0.0
 10
-497.6851
 20
-420.05
 30
0.0
 10
-497.6851
 20
-420.05
 30
0.0
 10
-498.1
 20
-420.05
 30
0.0
 10
-498.1
 20
-420.05
 30
0.0
 10
-498.1
 20
-420.05
 30
0.0
 10
-498.1
 20
-420.05
 30
0.0
 10
-498.1
 20
-418.5
 30
0.0
 10
-498.1
 20
-418.5
 30
0.0
 10
-498.1
 20
-418.5
 30
0.0
 10
-498.1
 20
-418.5
 30
0.0
 10
-498.1
 20
-416.95
 30
0.0
 10
-498.1
 20
-416.95
 30
0.0
 10
-498.1
 20
-416.95
 30
0.0
 10
-498.1
 20
-416.95
 30
0.0
 10
-497.6851
 20
-416.95
 30
0.0
 10
-497.6851
 20
-416.95
 30
0.0
 10
-497.6851
 20
-416.95
 30
0.0
 10
-497.4128
 20
-416.4795
 30
0.0
 10
-497.0205
 20
-416.0872
 30
0.0
 10
-496.55
 20
-415.8149
 30
0.0
 10
-496.55
 20
-415.8149
 30
0.0
 10
-496.55
 20
-415.8149
 30
0.0
 10
-496.55
 20
-415.4
 30
0.0
 10
-496.55
 20
-415.4
 30
0.0
 10
-496.55
 20
-415.4
 30
0.0
 10
-496.55
 20
-415.4
 30
0.0
 10
-495.0
 20
-415.4
 30
0.0
 10
-495.0
 20
-415.4
 30
0.0
 10
-495.0
 20
-415.4
 30
0.0
 10
-495.0
 20
-415.4
 30
0.0
 10
-493.45
 20
-415.4
 30
0.0
 10
-493.45
 20
-415.4
 30
0.0
 10
-493.45
 20
-415.4
 30
0.0
 10
-493.45
 20
-415.4
 30
0.0
 10
-493.45
 20
-415.8149
 30
0.0
 10
-493.45
 20
-415.8149
 30
0.0
 10
-493.45
 20
-415.8149
 30
0.0
 10
-492.9795
 20
-416.0872
 30
0.0
 10
-492.5872
 20
-416.4795
 30
0.0
 10
-492.3149
 20
-416.95
 30
0.0
 10
-492.3149
 20
-416.95
 30
0.0
 10
-492.3149
 20
-416.95
 30
0.0
 10
-491.9
 20
-416.95
 30
0.0
 10
-491.9
 20
-416.95
 30
0.0
 10
-491.9
 20
-416.95
 30
0.0
 10
-491.9
 20
-416.95
 30
0.0
 10
-491.9
 20
-418.5
 30
0.0
 10
-491.9
 20
-418.5
 30
0.0
 10
-491.9
 20
-418.5
 30
0.0
 10
-491.9
 20
-418.5
 30
0.0
 10
-491.9
 20
-420.05
 30
0.0
 10
-491.9
 20
-420.05
 30
0.0
 10
-491.9
 20
-420.05
 30
0.0
 10
-491.9
 20
-420.05
 30
0.0
 10
-492.3149
 20
-420.05
 30
0.0
 10
-492.3149
 20
-420.05
 30
0.0
 10
-492.3149
 20
-420.05
 30
0.0
 10
-492.5872
 20
-420.5205
 30
0.0
 10
-492.9795
 20
-420.9128
 30
0.0
 10
-493.45
 20
-421.1851
 30
0.0
 10
-493.45
 20
-421.1851
 30
0.0
 10
-493.45
 20
-421.1851
 30
0.0
 10
-493.45
 20
-421.6
 30
0.0
 10
-493.45
 20
-421.6
 30
0.0
 10
-493.45
 20
-421.6
 30
0.0
 10
-493.45
 20
-421.6
 30
0.0
 10
-495.0
 20
-421.6
 30
0.0
 10
-495.0
 20
-421.6
 30
0.0
 10
-495.0
 20
-421.6
 30
0.0
 10
-495.0
 20
-421.6
 30
0.0
 10
-496.55
 20
-421.6
 30
0.0
 10
-496.55
 20
-421.6
 30
0.0
  0
SPLINE
  5
67
330
1F
100
AcDbEntity
  8
LAYER_1
100
AcDbSpline
210
0.0
220
0.0
230
1.0
 70
    11
 71
     3
 72
    84
 73
    80
 74
     0
 42
0.0000000001
 43
0.0000000001
 40
0.0
 40
0.0
 40
0.0
 40
0.0
 40
0.05
 40
0.05
 40
0.05
 40
0.05
 40
0.1
 40
0.1
 40
0.1
 40
0.1
 40
0.15
 40
0.15
 40
0.15
 40
0.15
 40
0.2
 40
0.2
 40
0.2
 40
0.2
 40
0.25
 40
0.25
 40
0.25
 40
0.25
 40
0.3
 40
0.3
 40
0.3
 40
0.3
 40
0.35
 40
0.35
 40
0.35
 40
0.35
 40
0.4
 40
0.4
 40
0.4
 40
0.4
 40
0.45
 40
0.45
 40
0.45
 40
0.45
 40
0.4999999999999999
 40
0.4999999999999999
 40
0.4999999999999999
 40
0.4999999999999999
 40
0.5499999999999999
 40
0.5499999999999999
 40
0.5499999999999999
 40
0.5499999999999999
 40
0.6
 40
0.6
 40
0.6
 40
0.6
 40
0.65
 40
0.65
 40
0.65
 40
0.65
 40
0.7000000000000001
 40
0.7000000000000001
 40
0.7000000000000001
 40
0.7000000000000001
 40
0.7500000000000001
 40
0.7500000000000001
 40
0.7500000000000001
 40
0.7500000000000001
 40
0.8000000000000002
 40
0.8000000000000002
 40
0.8000000000000002
 40
0.8000000000000002
 40
0.8500000000000002
 40
0.8500000000000002
 40
0.8500000000000002
 40
0.8500000000000002
 40
0.9000000000000002
 40
0.9000000000000002
 40
0.9000000000000002
 40
0.9000000000000002
 40
0.9500000000000003
 40
0.9500000000000003
 40
0.9500000000000003
 40
0.9500000000000003
 40
1.0
 40
1.0
 40
1.0
 40
1.0
 10
-476.55
 20
-421.6
 30
0.0
 10
-476.55
 20
-421.6
 30
0.0
 10
-476.55
 20
-421.1851
 30
0.0
 10
-476.55
 20
-421.1851
 30
0.0
 10
-476.55
 20
-421.1851
 30
0.0
 10
-477.0205
 20
-420.9128
 30
0.0
 10
-477.4128
 20
-420.5205
 30
0.0
 10
-477.6851
 20
-420.05
 30
0.0
 10
-477.6851
 20
-420.05
 30
0.0
 10
-477.6851
 20
-420.05
 30
0.0
 10
-478.1
 20
-420.05
 30
0.0
 10
-478.1
 20
-420.05
 30
0.0
 10
-478.1
 20
-420.05
 30
0.0
 10
-478.1
 20
-420.05
 30
0.0
 10
-478.1
 20
-418.5
 30
0.0
 10
-478.1
 20
-418.5
 30
0.0
 10
-478.1
 20
-418.5
 30
0.0
 10
-478.1
 20
-418.5
 30
0.0
 10
-478.1
 20
-416.95
 30
0.0
 10
-478.1
 20
-416.95
 30
0.0
 10
-478.1
 20
-416.95
 30
0.0
 10
-478.1
 20
-416.95
 30
0.0
 10
-477.6851
 20
-416.95
 30
0.0
 10
-477.6851
 20
-416.95
 30
0.0
 10
-477.6851
 20
-416.95
 30
0.0
 10
-477.4128
 20
-416.4795
 30
0.0
 10
-477.0205
 20
-416.0872
 30
0.0
 10
-476.55
 20
-415.8149
 30
0.0
 10
-476.55
 20
-415.8149
 30
0.0
 10
-476.55
 20
-415.8149
 30
0.0
 10
-476.55
 20
-415.4
 30
0.0
 10
-476.55
 20
-415.4
 30
0.0
 10
-476.55
 20
-415.4
 30
0.0
 10
-476.55
 20
-415.4
 30
0.0
 10
-475.0
 20
-415.4
 30
0.0
 10
-475.0
 20
-415.4
 30
0.0
 10
-475.0
 20
-415.4
 30
0.0
 10
-475.0
 20
-415.4
 30
0.0
 10
-473.45
 20
-415.4
 30
0.0
 10
-473.45
 20
-415.4
 30
0.0
 10
-473.45
 20
-415.4
 30
0.0
 10
-473.45
 20
-415.4
 30
0.0
 10
-473.45
 20
-415.8149
 30
0.0
 10
-473.45
 20
-415.8149
 30
0.0
 10
-473.45
 20
-415.8149
 30
0.0
 10
-472.9795
 20
-416.0872
 30
0.0
 10
-472.5872
 20
-416.4795
 30
0.0
 10
-472.3149
 20
-416.95
 30
0.0
 10
-472.3149
 20
-416.95
 30
0.0
 10
-472.3149
 20
-416.95
 30
0.0
 10
-471.9
 20
-416.95
 30
0.0
 10
-471.9
 20
-416.95
 30
0.0
 10
-471.9
 20
-416.95
 30
0.0
 10
-471.9
 20
-416.95
 30
0.0
 10
-471.9
 20
-418.5
 30
0.0
 10
-471.9
 20
-418.5
 30
0.0
 10
-471.9
 20
-418.5
 30
0.0
 10
-471.9
 20
-418.5
 30
0.0
 10
-471.9
 20
-420.05
 30
0.0
 10
-471.9
 20
-420.05
 30
0.0
 10
-471.9
 20
-420.05
 30
0.0
 10
-471.9
 20
-420.05
 30
0.0
 10
-472.3149
 20
-420.05
 30
0.0
 10
-472.3149
 20
-420.05
 30
0.0
 10
-472.3149
 20
-420.05
 30
0.0
 10
-472.5872
 20
-420.5205
 30
0.0
 10
-472.9795
 20
-420.9128
 30
0.0
 10
-473.45
 20
-421.1851
 30
0.0
 10
-473.45
 20
-421.1851
 30
0.0
 10
-473.45
 20
-421.1851
 30
0.0
 10
-473.45
 20
-421.6
 30
0.0
 10
-473.45
 20
-421.6
 30
0.0
 10
-473.45
 20
-421.6
 30
0.0
 10
-473.45
 20
-421.6
 30
0.0
 10
-475.0
 20
-421.6
 30
0.0
 10
-475.0
 20
-421.6
 30
0.0
 10
-475.0
 20
-421.6
 30
0.0
 10
-475.0
 20
-421.6
 30
0.0
 10
-476.55
 20
-421.6
 30
0.0
 10
-476.55
 20
-421.6
 30
0.0
  0
SPLINE
  5
68
330
1F
100
AcDbEntity
  8
LAYER_1
100
AcDbSpline
210
0.0
220
0.0
230
1.0
 70
    11
 71
     3
 72
    84
 73
    80
 74
     0
 42
0.0000000001
 43
0.0000000001
 40
0.0
 40
0.0
 40
0.0
 40
0.0
 40
0.05
 40
0.05
 40
0.05
 40
0.05
 40
0.1
 40
0.1
 40
0.1
 40
0.1
 40
0.15
 40
0.15
 40
0.15
 40
0.15
 40
0.2
 40
0.2
 40
0.2
 40
0.2
 40
0.25
 40
0.25
 40
0.25
 40
0.25
 40
0.3
 40
0.3
 40
0.3
 40
0.3
 40
0.35
 40
0.35
 40
0.35
 40
0.35
 40
0.4
 40
0.4
 40
0.4
 40
0.4
 40
0.45
 40
0.45
 40
0.45
 40
0.45
 40
0.4999999999999999
 40
0.4999999999999999
 40
0.4999999999999999
 40
0.4999999999999999
 40
0.5499999999999999
 40
0.5499999999999999
 40
0.5499999999999999
 40
0.5499999999999999
 40
0.6
 40
0.6
 40
0.6
 40
0.6
 40
0.65
 40
0.65
 40
0.65
 40
0.65
 40
0.7000000000000001
 40
0.7000000000000001
 40
0.7000000000000001
 40
0.7000000000000001
 40
0.7500000000000001
 40
0.7500000000000001
 40
0.7500000000000001
 40
0.7500000000000001
 40
0.8000000000000002
 40
0.8000000000000002
 40
0.8000000000000002
 40
0.8000000000000002
 40
0.8500000000000002
 40
0.8500000000000002
 40
0.8500000000000002
 40
0.8500000000000002
 40
0.9000000000000002
 40
0.9000000000000002
 40
0.9000000000000002
 40
0.9000000000000002
 40
0.9500000000000003
 40
0.9500000000000003
 40
0.9500000000000003
 40
0.9500000000000003
 40
1.0
 40
1.0
 40
1.0
 40
1.0
 10
-456.55
 20
-421.6
 30
0.0
 10
-456.55
 20
-421.6
 30
0.0
 10
-456.55
 20
-421.1851
 30
0.0
 10
-456.55
 20
-421.1851
 30
0.0
 10
-456.55
 20
-421.1851
 30
0.0
 10
-457.0205
 20
-420.9128
 30
0.0
 10
-457.4128
 20
-420.5205
 30
0.0
 10
-457.6851
 20
-420.05
 30
0.0
 10
-457.6851
 20
-420.05
 30
0.0
 10
-457.6851
 20
-420.05
 30
0.0
 10
-458.1
 20
-420.05
 30
0.0
 10
-458.1
 20
-420.05
 30
0.0
 10
-458.1
 20
-420.05
 30
0.0
 10
-458.1
 20
-420.05
 30
0.0
 10
-458.1
 20
-418.5
 30
0.0
 10
-458.1
 20
-418.5
 30
0.0
 10
-458.1
 20
-418.5
 30
0.0
 10
-458.1
 20
-418.5
 30
0.0
 10
-458.1
 20
-416.95
 30
0.0
 10
-458.1
 20
-416.95
 30
0.0
 10
-458.1
 20
-416.95
 30
0.0
 10
-458.1
 20
-416.95
 30
0.0
 10
-457.6851
 20
-416.95
 30
0.0
 10
-457.6851
 20
-416.95
 30
0.0
 10
-457.6851
 20
-416.95
 30
0.0
 10
-457.4128
 20
-416.4795
 30
0.0
 10
-457.0205
 20
-416.0872
 30
0.0
 10
-456.55
 20
-415.8149
 30
0.0
 10
-456.55
 20
-415.8149
 30
0.0
 10
-456.55
 20
-415.8149
 30
0.0
 10
-456.55
 20
-415.4
 30
0.0
 10
-456.55
 20
-415.4
 30
0.0
 10
-456.55
 20
-415.4
 30
0.0
 10
-456.55
 20
-415.4
 30
0.0
 10
-455.0
 20
-415.4
 30
0.0
 10
-455.0
 20
-415.4
 30
0.0
 10
-455.0
 20
-415.4
 30
0.0
 10
-455.0
 20
-415.4
 30
0.0
 10
-453.45
 20
-415.4
 30
0.0
 10
-453.45
 20
-415.4
 30
0.0
 10
-453.45
 20
-415.4
 30
0.0
 10
-453.45
 20
-415.4
 30
0.0
 10
-453.45
 20
-415.8149
 30
0.0
 10
-453.45
 20
-415.8149
 30
0.0
 10
-453.45
 20
-415.8149
 30
0.0
 10
-452.9795
 20
-416.0872
 30
0.0
 10
-452.5872
 20
-416.4795
 30
0.0
 10
-452.3149
 20
-416.95
 30
0.0
 10
-452.3149
 20
-416.95
 30
0.0
 10
-452.3149
 20
-416.95
 30
0.0
 10
-451.9
 20
-416.95
 30
0.0
 10
-451.9
 20
-416.95
 30
0.0
 10
-451.9
 20
-416.95
 30
0.0
 10
-451.9
 20
-416.95
 30
0.0
 10
-451.9
 20
-418.5
 30
0.0
 10
-451.9
 20
-418.5
 30
0.0
 10
-451.9
 20
-418.5
 30
0.0
 10
-451.9
 20
-418.5
 30
0.0
 10
-451.9
 20
-420.05
 30
0.0
 10
-451.9
 20
-420.05
 30
0.0
 10
-451.9
 20
-420.05
 30
0.0
 10
-451.9
 20
-420.05
 30
0.0
 10
-452.3149
 20
-420.05
 30
0.0
 10
-452.3149
 20
-420.05
 30
0.0
 10
-452.3149
 20
-420.05
 30
0.0
 10
-452.5872
 20
-420.5205
 30
0.0
 10
-452.9795
 20
-420.9128
 30
0.0
 10
-453.45
 20
-421.1851
 30
0.0
 10
-453.45
 20
-421.1851
 30
0.0
 10
-453.45
 20
-421.1851
 30
0.0
 10
-453.45
 20
-421.6
 30
0.0
 10
-453.45
 20
-421.6
 30
0.0
 10
-453.45
 20
-421.6
 30
0.0
 10
-453.45
 20
-421.6
 30
0.0
 10
-455.0
 20
-421.6
 30
0.0
 10
-455.0
 20
-421.6
 30
0.0
 10
-455.0
 20
-421.6
 30
0.0
 10
-455.0
 20
-421.6
 30
0.0
 10
-456.55
 20
-421.6
 30
0.0
 10
-456.55
 20
-421.6
 30
0.0
  0
SPLINE
  5
69
330
1F
100
AcDbEntity
  8
LAYER_1
100
AcDbSpline
210
0.0
220
0.0
230
1.0
 70
    11
 71
     3
 72
    84
 73
    80
 74
     0
 42
0.0000000001
 43
0.0000000001
 40
0.0
 40
0.0
 40
0.0
 40
0.0
 40
0.05
 40
0.05
 40
0.05
 40
0.05
 40
0.1
 40
0.1
 40
0.1
 40
0.1
 40
0.15
 40
0.15
 40
0.15
 40
0.15
 40
0.2
 40
0.2
 40
0.2
 40
0.2
 40
0.25
 40
0.25
 40
0.25
 40
0.25
 40
0.3
 40
0.3
 40
0.3
 40
0.3
 40
0.35
 40
0.35
 40
0.35
 40
0.35
 40
0.4
 40
0.4
 40
0.4
 40
0.4
 40
0.45
 40
0.45
 40
0.45
 40
0.45
 40
0.4999999999999999
 40
0.4999999999999999
 40
0.4999999999999999
 40
0.4999999999999999
 40
0.5499999999999999
 40
0.5499999999999999
 40
0.5499999999999999
 40
0.5499999999999999
 40
0.6
 40
0.6
 40
0.6
 40
0.6
 40
0.65
 40
0.65
 40
0.65
 40
0.65
 40
0.7000000000000001
 40
0.7000000000000001
 40
0.7000000000000001
 40
0.7000000000000001
 40
0.7500000000000001
 40
0.7500000000000001
 40
0.7500000000000001
 40
0.7500000000000001
 40
0.8000000000000002
 40
0.8000000000000002
 40
0.8000000000000002
 40
0.8000000000000002
 40
0.8500000000000002
 40
0.8500000000000002
 40
0.8500000000000002
 40
0.8500000000000002
 40
0.9000000000000002
 40
0.9000000000000002
 40
0.9000000000000002
 40
0.9000000000000002
 40
0.9500000000000003
 40
0.9500000000000003
 40
0.9500000000000003
 40
0.9500000000000003
 40
1.0
 40
1.0
 40
1.0
 40
1.0
 10
-456.55
 20
-461.6
 30
0.0
 10
-456.55
 20
-461.6
 30
0.0
 10
-456.55
 20
-461.1851
 30
0.0
 10
-456.55
 20
-461.1851
 30
0.0
 10
-456.55
 20
-461.1851
 30
0.0
 10
-457.0205
 20
-460.9128
 30
0.0
 10
-457.4128
 20
-460.5205
 30
0.0
 10
-457.6851
 20
-460.05
 30
0.0
 10
-457.6851
 20
-460.05
 30
0.0
 10
-457.6851
 20
-460.05
 30
0.0
 10
-458.1
 20
-460.05
 30
0.0
 10
-458.1
 20
-460.05
 30
0.0
 10
-458.1
 20
-460.05
 30
0.0
 10
-458.1
 20
-460.05
 30
0.0
 10
-458.1
 20
-458.5
 30
0.0
 10
-458.1
 20
-458.5
 30
0.0
 10
-458.1
 20
-458.5
 30
0.0
 10
-458.1
 20
-458.5
 30
0.0
 10
-458.1
 20
-456.95
 30
0.0
 10
-458.1
 20
-456.95
 30
0.0
 10
-458.1
 20
-456.95
 30
0.0
 10
-458.1
 20
-456.95
 30
0.0
 10
-457.6851
 20
-456.95
 30
0.0
 10
-457.6851
 20
-456.95
 30
0.0
 10
-457.6851
 20
-456.95
 30
0.0
 10
-457.4128
 20
-456.4795
 30
0.0
 10
-457.0205
 20
-456.0872
 30
0.0
 10
-456.55
 20
-455.8149
 30
0.0
 10
-456.55
 20
-455.8149
 30
0.0
 10
-456.55
 20
-455.8149
 30
0.0
 10
-456.55
 20
-455.4
 30
0.0
 10
-456.55
 20
-455.4
 30
0.0
 10
-456.55
 20
-455.4
 30
0.0
 10
-456.55
 20
-455.4
 30
0.0
 10
-455.0
 20
-455.4
 30
0.0
 10
-455.0
 20
-455.4
 30
0.0
 10
-455.0
 20
-455.4
 30
0.0
 10
-455.0
 20
-455.4
 30
0.0
 10
-453.45
 20
-455.4
 30
0.0
 10
-453.45
 20
-455.4
 30
0.0
 10
-453.45
 20
-455.4
 30
0.0
 10
-453.45
 20
-455.4
 30
0.0
 10
-453.45
 20
-455.8149
 30
0.0
 10
-453.45
 20
-455.8149
 30
0.0
 10
-453.45
 20
-455.8149
 30
0.0
 10
-452.9795
 20
-456.0872
 30
0.0
 10
-452.5872
 20
-456.4795
 30
0.0
 10
-452.3149
 20
-456.95
 30
0.0
 10
-452.3149
 20
-456.95
 30
0.0
 10
-452.3149
 20
-456.95
 30
0.0
 10
-451.9
 20
-456.95
 30
0.0
 10
-451.9
 20
-456.95
 30
0.0
 10
-451.9
 20
-456.95
 30
0.0
 10
-451.9
 20
-456.95
 30
0.0
 10
-451.9
 20
-458.5
 30
0.0
 10
-451.9
 20
-458.5
 30
0.0
 10
-451.9
 20
-458.5
 30
0.0
 10
-451.9
 20
-458.5
 30
0.0
 10
-451.9
 20
-460.05
 30
0.0
 10
-451.9
 20
-460.05
 30
0.0
 10
-451.9
 20
-460.05
 30
0.0
 10
-451.9
 20
-460.05
 30
0.0
 10
-452.3149
 20
-460.05
 30
0.0
 10
-452.3149
 20
-460.05
 30
0.0
 10
-452.3149
 20
-460.05
 30
0.0
 10
-452.5872
 20
-460.5205
 30
0.0
 10
-452.9795
 20
-460.9128
 30
0.0
 10
-453.45
 20
-461.1851
 30
0.0
 10
-453.45
 20
-461.1851
 30
0.0
 10
-453.45
 20
-461.1851
 30
0.0
 10
-453.45
 20
-461.6
 30
0.0
 10
-453.45
 20
-461.6
 30
0.0
 10
-453.45
 20
-461.6
 30
0.0
 10
-453.45
 20
-461.6
 30
0.0
 10
-455.0
 20
-461.6
 30
0.0
 10
-455.0
 20
-461.6
 30
0.0
 10
-455.0
 20
-461.6
 30
0.0
 10
-455.0
 20
-461.6
 30
0.0
 10
-456.55
 20
-461.6
 30
0.0
 10
-456.55
 20
-461.6
 30
0.0
  0
SPLINE
  5
6A
330
1F
100
AcDbEntity
  8
LAYER_1
100
AcDbSpline
210
0.0
220
0.0
230
1.0
 70
    11
 71
     3
 72
    84
 73
    80
 74
     0
 42
0.0000000001
 43
0.0000000001
 40
0.0
 40
0.0
 40
0.0
 40
0.0
 40
0.05
 40
0.05
 40
0.05
 40
0.05
 40
0.1
 40
0.1
 40
0.1
 40
0.1
 40
0.15
 40
0.15
 40
0.15
 40
0.15
 40
0.2
 40
0.2
 40
0.2
 40
0.2
 40
0.25
 40
0.25
 40
0.25
 40
0.25
 40
0.3
 40
0.3
 40
0.3
 40
0.3
 40
0.35
 40
0.35
 40
0.35
 40
0.35
 40
0.4
 40
0.4
 40
0.4
 40
0.4
 40
0.45
 40
0.45
 40
0.45
 40
0.45
 40
0.4999999999999999
 40
0.4999999999999999
 40
0.4999999999999999
 40
0.4999999999999999
 40
0.5499999999999999
 40
0.5499999999999999
 40
0.5499999999999999
 40
0.5499999999999999
 40
0.6
 40
0.6
 40
0.6
 40
0.6
 40
0.65
 40
0.65
 40
0.65
 40
0.65
 40
0.7000000000000001
 40
0.7000000000000001
 40
0.7000000000000001
 40
0.7000000000000001
 40
0.7500000000000001
 40
0.7500000000000001
 40
0.7500000000000001
 40
0.7500000000000001
 40
0.8000000000000002
 40
0.8000000000000002
 40
0.8000000000000002
 40
0.8000000000000002
 40
0.8500000000000002
 40
0.8500000000000002
 40
0.8500000000000002
 40
0.8500000000000002
 40
0.9000000000000002
 40
0.9000000000000002
 40
0.9000000000000002
 40
0.9000000000000002
 40
0.9500000000000003
 40
0.9500000000000003
 40
0.9500000000000003
 40
0.9500000000000003
 40
1.0
 40
1.0
 40
1.0
 40
1.0
 10
-556.55
 20
-461.6
 30
0.0
 10
-556.55
 20
-461.6
 30
0.0
 10
-556.55
 20
-461.1851
 30
0.0
 10
-556.55
 20
-461.1851
 30
0.0
 10
-556.55
 20
-461.1851
 30
0.0
 10
-557.0205
 20
-460.9128
 30
0.0
 10
-557.4128
 20
-460.5205
 30
0.0
 10
-557.6851
 20
-460.05
 30
0.0
 10
-557.6851
 20
-460.05
 30
0.0
 10
-557.6851
 20
-460.05
 30
0.0
 10
-558.1
 20
-460.05
 30
0.0
 10
-558.1
 20
-460.05
 30
0.0
 10
-558.1
 20
-460.05
 30
0.0
 10
-558.1
 20
-460.05
 30
0.0
 10
-558.1
 20
-458.5
 30
0.0
 10
-558.1
 20
-458.5
 30
0.0
 10
-558.1
 20
-458.5
 30
0.0
 10
-558.1
 20
-458.5
 30
0.0
 10
-558.1
 20
-456.95
 30
0.0
 10
-558.1
 20
-456.95
 30
0.0
 10
-558.1
 20
-456.95
 30
0.0
 10
-558.1
 20
-456.95
 30
0.0
 10
-557.6851
 20
-456.95
 30
0.0
 10
-557.6851
 20
-456.95
 30
0.0
 10
-557.6851
 20
-456.95
 30
0.0
 10
-557.4128
 20
-456.4795
 30
0.0
 10
-557.0205
 20
-456.0872
 30
0.0
 10
-556.55
 20
-455.8149
 30
0.0
 10
-556.55
 20
-455.8149
 30
0.0
 10
-556.55
 20
-455.8149
 30
0.0
 10
-556.55
 20
-455.4
 30
0.0
 10
-556.55
 20
-455.4
 30
0.0
 10
-556.55
 20
-455.4
 30
0.0
 10
-556.55
 20
-455.4
 30
0.0
 10
-555.0
 20
-455.4
 30
0.0
 10
-555.0
 20
-455.4
 30
0.0
 10
-555.0
 20
-455.4
 30
0.0
 10
-555.0
 20
-455.4
 30
0.0
 10
-553.45
 20
-455.4
 30
0.0
 10
-553.45
 20
-455.4
 30
0.0
 10
-553.45
 20
-455.4
 30
0.0
 10
-553.45
 20
-455.4
 30
0.0
 10
-553.45
 20
-455.8149
 30
0.0
 10
-553.45
 20
-455.8149
 30
0.0
 10
-553.45
 20
-455.8149
 30
0.0
 10
-552.9795
 20
-456.0872
 30
0.0
 10
-552.5872
 20
-456.4795
 30
0.0
 10
-552.3149
 20
-456.95
 30
0.0
 10
-552.3149
 20
-456.95
 30
0.0
 10
-552.3149
 20
-456.95
 30
0.0
 10
-551.9
 20
-456.95
 30
0.0
 10
-551.9
 20
-456.95
 30
0.0
 10
-551.9
 20
-456.95
 30
0.0
 10
-551.9
 20
-456.95
 30
0.0
 10
-551.9
 20
-458.5
 30
0.0
 10
-551.9
 20
-458.5
 30
0.0
 10
-551.9
 20
-458.5
 30
0.0
 10
-551.9
 20
-458.5
 30
0.0
 10
-551.9
 20
-460.05
 30
0.0
 10
-551.9
 20
-460.05
 30
0.0
 10
-551.9
 20
-460.05
 30
0.0
 10
-551.9
 20
-460.05
 30
0.0
 10
-552.3149
 20
-460.05
 30
0.0
 10
-552.3149
 20
-460.05
 30
0.0
 10
-552.3149
 20
-460.05
 30
0.0
 10
-552.5872
 20
-460.5205
 30
0.0
 10
-552.9795
 20
-460.9128
 30
0.0
 10
-553.45
 20
-461.1851
 30
0.0
 10
-553.45
 20
-461.1851
 30
0.0
 10
-553.45
 20
-461.1851
 30
0.0
 10
-553.45
 20
-461.6
 30
0.0
 10
-553.45
 20
-461.6
 30
0.0
 10
-553.45
 20
-461.6
 30
0.0
 10
-553.45
 20
-461.6
 30
0.0
 10
-555.0
 20
-461.6
 30
0.0
 10
-555.0
 20
-461.6
 30
0.0
 10
-555.0
 20
-461.6
 30
0.0
 10
-555.0
 20
-461.6
 30
0.0
 10
-556.55
 20
-461.6
 30
0.0
 10
-556.55
 20
-461.6
 30
0.0
  0
LWPOLYLINE
  5
6B
330
1F
100
AcDbEntity
  8
LAYER_1
100
AcDbPolyline
 90
        5
 70
     1
 43
0.0
 10
-528.2
 20
-420.1
 10
-521.8
 20
-420.1
 10
-521.8
 20
-416.9
 10
-528.2
 20
-416.9
 10
-528.2
 20
-420.1
  0
LWPOLYLINE
  5
6C
330
1F
100
AcDbEntity
  8
LAYER_1
100
AcDbPolyline
 90
        5
 70
     1
 43
0.0
 10
-508.2
 20
-420.1
 10
-501.8
 20
-420.1
 10
-501.8
 20
-416.9
 10
-508.2
 20
-416.9
 10
-508.2
 20
-420.1
  0
LWPOLYLINE
  5
6D
330
1F
100
AcDbEntity
  8
LAYER_1
100
AcDbPolyline
 90
        5
 70
     1
 43
0.0
 10
-488.2
 20
-420.1
 10
-481.8
 20
-420.1
 10
-481.8
 20
-416.9
 10
-488.2
 20
-416.9
 10
-488.2
 20
-420.1
  0
LWPOLYLINE
  5
6E
330
1F
100
AcDbEntity
  8
LAYER_1
100
AcDbPolyline
 90
        5
 70
     1
 43
0.0
 10
-468.2
 20
-420.1
 10
-461.8
 20
-420.1
 10
-461.8
 20
-416.9
 10
-468.2
 20
-416.9
 10
-468.2
 20
-420.1
  0
SPLINE
  5
6F
330
1F
100
AcDbEntity
  8
LAYER_1
100
AcDbSpline
210
0.0
220
0.0
230
1.0
 70
    11
 71
     3
 72
    20
 73
    16
 74
     0
 42
0.0000000001
 43
0.0000000001
 40
0.0
 40
0.0
 40
0.0
 40
0.0
 40
0.25
 40
0.25
 40
0.25
 40
0.25
 40
0.5
 40
0.5
 40
0.5
 40
0.5
 40
0.75
 40
0.75
 40
0.75
 40
0.75
 40
1.0
 40
1.0
 40
1.0
 40
1.0
 10
-556.55
 20
-451.6
 30
0.0
 10
-556.55
 20
-451.6
 30
0.0
 10
-556.55
 20
-445.4
 30
0.0
 10
-556.55
 20
-445.4
 30
0.0
 10
-556.55
 20
-445.4
 30
0.0
 10
-556.55
 20
-445.4
 30
0.0
 10
-553.45
 20
-445.4
 30
0.0
 10
-553.45
 20
-445.4
 30
0.0
 10
-553.45
 20
-445.4
 30
0.0
 10
-553.45
 20
-445.4
 30
0.0
 10
-553.45
 20
-451.6
 30
0.0
 10
-553.45
 20
-451.6
 30
0.0
 10
-553.45
 20
-451.6
 30
0.0
 10
-553.45
 20
-451.6
 30
0.0
 10
-556.55
 20
-451.6
 30
0.0
 10
-556.55
 20
-451.6
 30
0.0
  0
ELLIPSE
  5
70
330
1F
100
AcDbEntity
  8
LAYER_1
100
AcDbEllipse
 10
-542.5
 20
-425.5
 30
0.0
 11
0.0
 21
1.6
 31
0.0
210
0.0
220
0.0
230
1.0
 40
1.0
 41
0.0
 42
6.283185307179586
  0
ELLIPSE
  5
71
330
1F
100
AcDbEntity
  8
LAYER_1
100
AcDbEllipse
 10
-467.5
 20
-425.5
 30
0.0
 11
0.0
 21
1.6
 31
0.0
210
0.0
220
0.0
230
1.0
 40
1.0
 41
0.0
 42
6.283185307179586
  0
ELLIPSE
  5
72
330
1F
100
AcDbEntity
  8
LAYER_1
100
AcDbEllipse
 10
-467.5
 20
-456.5
 30
0.0
 11
0.0
 21
1.6
 31
0.0
210
0.0
220
0.0
230
1.0
 40
1.0
 41
0.0
 42
6.283185307179586
  0
ELLIPSE
  5
73
330
1F
100
AcDbEntity
  8
LAYER_1
100
AcDbEllipse
 10
-542.5
 20
-456.5
 30
0.0
 11
0.0
 21
1.6
 31
0.0
210
0.0
220
0.0
230
1.0
 40
1.0
 41
0.0
 42
6.283185307179586
  0
SPLINE
  5
74
330
1F
100
AcDbEntity
  8
LAYER_1
100
AcDbSpline
210
0.0
220
0.0
230
1.0
 70
    11
 71
     3
 72
   128
 73
   124
 74
     0
 42
0.0000000001
 43
0.0000000001
 40
0.0
 40
0.0
 40
0.0
 40
0.0
 40
0.032258064516129
 40
0.032258064516129
 40
0.032258064516129
 40
0.032258064516129
 40
0.0645161290322581
 40
0.0645161290322581
 40
0.0645161290322581
 40
0.0645161290322581
 40
0.0967741935483871
 40
0.0967741935483871
 40
0.0967741935483871
 40
0.0967741935483871
 40
0.1290322580645161
 40
0.1290322580645161
 40
0.1290322580645161
 40
0.1290322580645161
 40
0.1612903225806452
 40
0.1612903225806452
 40
0.1612903225806452
 40
0.1612903225806452
 40
0.1935483870967742
 40
0.1935483870967742
 40
0.1935483870967742
 40
0.1935483870967742
 40
0.2258064516129032
 40
0.2258064516129032
 40
0.2258064516129032
 40
0.2258064516129032
 40
0.2580645161290323
 40
0.2580645161290323
 40
0.2580645161290323
 40
0.2580645161290323
 40
0.2903225806451613
 40
0.2903225806451613
 40
0.2903225806451613
 40
0.2903225806451613
 40
0.3225806451612903
 40
0.3225806451612903
 40
0.3225806451612903
 40
0.3225806451612903
 40
0.3548387096774193
 40
0.3548387096774193
 40
0.3548387096774193
 40
0.3548387096774193
 40
0.3870967741935483
 40
0.3870967741935483
 40
0.3870967741935483
 40
0.3870967741935483
 40
0.4193548387096773
 40
0.4193548387096773
 40
0.4193548387096773
 40
0.4193548387096773
 40
0.4516129032258063
 40
0.4516129032258063
 40
0.4516129032258063
 40
0.4516129032258063
 40
0.4838709677419353
 40
0.4838709677419353
 40
0.4838709677419353
 40
0.4838709677419353
 40
0.5161290322580643
 40
0.5161290322580643
 40
0.5161290322580643
 40
0.5161290322580643
 40
0.5483870967741933
 40
0.5483870967741933
 40
0.5483870967741933
 40
0.5483870967741933
 40
0.5806451612903223
 40
0.5806451612903223
 40
0.5806451612903223
 40
0.5806451612903223
 40
0.6129032258064513
 40
0.6129032258064513
 40
0.6129032258064513
 40
0.6129032258064513
 40
0.6451612903225803
 40
0.6451612903225803
 40
0.6451612903225803
 40
0.6451612903225803
 40
0.6774193548387093
 40
0.6774193548387093
 40
0.6774193548387093
 40
0.6774193548387093
 40
0.7096774193548383
 40
0.7096774193548383
 40
0.7096774193548383
 40
0.7096774193548383
 40
0.7419354838709673
 40
0.7419354838709673
 40
0.7419354838709673
 40
0.7419354838709673
 40
0.7741935483870963
 40
0.7741935483870963
 40
0.7741935483870963
 40
0.7741935483870963
 40
0.8064516129032253
 40
0.8064516129032253
 40
0.8064516129032253
 40
0.8064516129032253
 40
0.8387096774193543
 40
0.8387096774193543
 40
0.8387096774193543
 40
0.8387096774193543
 40
0.8709677419354833
 40
0.8709677419354833
 40
0.8709677419354833
 40
0.8709677419354833
 40
0.9032258064516123
 40
0.9032258064516123
 40
0.9032258064516123
 40
0.9032258064516123
 40
0.9354838709677413
 40
0.9354838709677413
 40
0.9354838709677413
 40
0.9354838709677413
 40
0.9677419354838703
 40
0.9677419354838703
 40
0.9677419354838703
 40
0.9677419354838703
 40
1.0
 40
1.0
 40
1.0
 40
1.0
 10
-448.5
 20
-505.81
 30
0.0
 10
-449.3283
 20
-505.81
 30
0.0
 10
-450.0
 20
-506.4817
 30
0.0
 10
-450.0
 20
-507.31
 30
0.0
 10
-450.0
 20
-507.31
 30
0.0
 10
-450.0
 20
-508.1383
 30
0.0
 10
-449.3283
 20
-508.81
 30
0.0
 10
-448.5
 20
-508.81
 30
0.0
 10
-448.5
 20
-508.81
 30
0.0
 10
-448.5
 20
-508.81
 30
0.0
 10
-448.5
 20
-513.32
 30
0.0
 10
-448.5
 20
-513.32
 30
0.0
 10
-448.5
 20
-513.32
 30
0.0
 10
-448.5
 20
-513.32
 30
0.0
 10
-454.6301
 20
-513.32
 30
0.0
 10
-454.6301
 20
-513.32
 30
0.0
 10
-454.6301
 20
-513.32
 30
0.0
 10
-454.6301
 20
-513.32
 30
0.0
 10
-454.6301
 20
-510.78
 30
0.0
 10
-454.6301
 20
-510.78
 30
0.0
 10
-454.6301
 20
-510.78
 30
0.0
 10
-454.6301
 20
-510.78
 30
0.0
 10
-457.3701
 20
-510.78
 30
0.0
 10
-457.3701
 20
-510.78
 30
0.0
 10
-457.3701
 20
-510.78
 30
0.0
 10
-457.3701
 20
-510.78
 30
0.0
 10
-457.3701
 20
-515.86
 30
0.0
 10
-457.3701
 20
-515.86
 30
0.0
 10
-457.3701
 20
-515.86
 30
0.0
 10
-457.3701
 20
-515.86
 30
0.0
 10
-471.2701
 20
-515.86
 30
0.0
 10
-471.2701
 20
-515.86
 30
0.0
 10
-471.2701
 20
-515.86
 30
0.0
 10
-471.2701
 20
-515.86
 30
0.0
 10
-471.2698
 20
-516.96
 30
0.0
 10
-471.2698
 20
-516.96
 30
0.0
 10
-471.2698
 20
-516.96
 30
0.0
 10
-471.2698
 20
-516.96
 30
0.0
 10
-479.375
 20
-516.96
 30
0.0
 10
-479.375
 20
-516.96
 30
0.0
 10
-479.375
 20
-516.96
 30
0.0
 10
-479.375
 20
-516.96
 30
0.0
 10
-479.375
 20
-503.0
 30
0.0
 10
-479.375
 20
-503.0
 30
0.0
 10
-479.375
 20
-503.0
 30
0.0
 10
-479.375
 20
-503.0
 30
0.0
 10
-539.375
 20
-503.0
 30
0.0
 10
-539.375
 20
-503.0
 30
0.0
 10
-539.375
 20
-503.0
 30
0.0
 10
-539.375
 20
-503.0
 30
0.0
 10
-539.375
 20
-538.9999
 30
0.0
 10
-539.375
 20
-538.9999
 30
0.0
 10
-539.375
 20
-538.9999
 30
0.0
 10
-539.375
 20
-538.9999
 30
0.0
 10
-479.375
 20
-538.9999
 30
0.0
 10
-479.375
 20
-538.9999
 30
0.0
 10
-479.375
 20
-538.9999
 30
0.0
 10
-479.375
 20
-538.9999
 30
0.0
 10
-479.375
 20
-522.58
 30
0.0
 10
-479.375
 20
-522.58
 30
0.0
 10
-479.375
 20
-522.58
 30
0.0
 10
-479.375
 20
-522.58
 30
0.0
 10
-471.2698
 20
-522.58
 30
0.0
 10
-471.2698
 20
-522.58
 30
0.0
 10
-471.2698
 20
-522.58
 30
0.0
 10
-471.2698
 20
-522.58
 30
0.0
 10
-471.2701
 20
-523.68
 30
0.0
 10
-471.2701
 20
-523.68
 30
0.0
 10
-471.2701
 20
-523.68
 30
0.0
 10
-471.2701
 20
-523.68
 30
0.0
 10
-457.3701
 20
-523.68
 30
0.0
 10
-457.3701
 20
-523.68
 30
0.0
 10
-457.3701
 20
-523.68
 30
0.0
 10
-457.3701
 20
-523.68
 30
0.0
 10
-457.3701
 20
-526.22
 30
0.0
 10
-457.3701
 20
-526.22
 30
0.0
 10
-457.3701
 20
-526.22
 30
0.0
 10
-457.3701
 20
-526.22
 30
0.0
 10
-454.6301
 20
-526.22
 30
0.0
 10
-454.6301
 20
-526.22
 30
0.0
 10
-454.6301
 20
-526.22
 30
0.0
 10
-454.6301
 20
-526.22
 30
0.0
 10
-454.6301
 20
-523.68
 30
0.0
 10
-454.6301
 20
-523.68
 30
0.0
 10
-454.6301
 20
-523.68
 30
0.0
 10
-454.6301
 20
-523.68
 30
0.0
 10
-448.5
 20
-523.68
 30
0.0
 10
-448.5
 20
-523.68
 30
0.0
 10
-448.5
 20
-523.68
 30
0.0
 10
-448.5
 20
-523.68
 30
0.0
 10
-448.5
 20
-540.0
 30
0.0
 10
-448.5
 20
-540.0
 30
0.0
 10
-448.5
 20
-540.0
 30
0.0
 10
-448.5
 20
-542.7609
 30
0.0
 10
-450.7391
 20
-545.0
 30
0.0
 10
-453.5
 20
-545.0
 30
0.0
 10
-453.5
 20
-545.0
 30
0.0
 10
-453.5
 20
-545.0
 30
0.0
 10
-556.5
 20
-545.0
 30
0.0
 10
-556.5
 20
-545.0
 30
0.0
 10
-556.5
 20
-545.0
 30
0.0
 10
-559.2609
 20
-545.0
 30
0.0
 10
-561.5
 20
-542.7609
 30
0.0
 10
-561.5
 20
-540.0
 30
0.0
 10
-561.5
 20
-540.0
 30
0.0
 10
-561.5
 20
-540.0
 30
0.0
 10
-561.5
 20
-497.0
 30
0.0
 10
-561.5
 20
-497.0
 30
0.0
 10
-561.5
 20
-497.0
 30
0.0
 10
-561.5
 20
-494.2391
 30
0.0
 10
-559.2609
 20
-492.0
 30
0.0
 10
-556.5
 20
-492.0
 30
0.0
 10
-556.5
 20
-492.0
 30
0.0
 10
-556.5
 20
-492.0
 30
0.0
 10
-453.5
 20
-492.0
 30
0.0
 10
-453.5
 20
-492.0
 30
0.0
 10
-453.5
 20
-492.0
 30
0.0
 10
-450.7391
 20
-492.0
 30
0.0
 10
-448.5
 20
-494.2391
 30
0.0
 10
-448.5
 20
-497.0
 30
0.0
 10
-448.5
 20
-497.0
 30
0.0
 10
-448.5
 20
-497.0
 30
0.0
 10
-448.5
 20
-505.81
 30
0.0
 10
-448.5
 20
-505.81
 30
0.0
  0
SPLINE
  5
75
330
1F
100
AcDbEntity
  8
LAYER_1
100
AcDbSpline
210
0.0
220
0.0
230
1.0
 70
    11
 71
     3
 72
    20
 73
    16
 74
     0
 42
0.0000000001
 43
0.0000000001
 40
0.0
 40
0.0
 40
0.0
 40
0.0
 40
0.25
 40
0.25
 40
0.25
 40
0.25
 40
0.5
 40
0.5
 40
0.5
 40
0.5
 40
0.75
 40
0.75
 40
0.75
 40
0.75
 40
1.0
 40
1.0
 40
1.0
 40
1.0
 10
-556.55
 20
-511.6
 30
0.0
 10
-556.55
 20
-511.6
 30
0.0
 10
-556.55
 20
-505.4
 30
0.0
 10
-556.55
 20
-505.4
 30
0.0
 10
-556.55
 20
-505.4
 30
0.0
 10
-556.55
 20
-505.4
 30
0.0
 10
-553.45
 20
-505.4
 30
0.0
 10
-553.45
 20
-505.4
 30
0.0
 10
-553.45
 20
-505.4
 30
0.0
 10
-553.45
 20
-505.4
 30
0.0
 10
-553.45
 20
-511.6
 30
0.0
 10
-553.45
 20
-511.6
 30
0.0
 10
-553.45
 20
-511.6
 30
0.0
 10
-553.45
 20
-511.6
 30
0.0
 10
-556.55
 20
-511.6
 30
0.0
 10
-556.55
 20
-511.6
 30
0.0
  0
SPLINE
  5
76
330
1F
100
AcDbEntity
  8
LAYER_1
100
AcDbSpline
210
0.0
220
0.0
230
1.0
 70
    11
 71
     3
 72
    84
 73
    80
 74
     0
 42
0.0000000001
 43
0.0000000001
 40
0.0
 40
0.0
 40
0.0
 40
0.0
 40
0.05
 40
0.05
 40
0.05
 40
0.05
 40
0.1
 40
0.1
 40
0.1
 40
0.1
 40
0.15
 40
0.15
 40
0.15
 40
0.15
 40
0.2
 40
0.2
 40
0.2
 40
0.2
 40
0.25
 40
0.25
 40
0.25
 40
0.25
 40
0.3
 40
0.3
 40
0.3
 40
0.3
 40
0.35
 40
0.35
 40
0.35
 40
0.35
 40
0.4
 40
0.4
 40
0.4
 40
0.4
 40
0.45
 40
0.45
 40
0.45
 40
0.45
 40
0.4999999999999999
 40
0.4999999999999999
 40
0.4999999999999999
 40
0.4999999999999999
 40
0.5499999999999999
 40
0.5499999999999999
 40
0.5499999999999999
 40
0.5499999999999999
 40
0.6
 40
0.6
 40
0.6
 40
0.6
 40
0.65
 40
0.65
 40
0.65
 40
0.65
 40
0.7000000000000001
 40
0.7000000000000001
 40
0.7000000000000001
 40
0.7000000000000001
 40
0.7500000000000001
 40
0.7500000000000001
 40
0.7500000000000001
 40
0.7500000000000001
 40
0.8000000000000002
 40
0.8000000000000002
 40
0.8000000000000002
 40
0.8000000000000002
 40
0.8500000000000002
 40
0.8500000000000002
 40
0.8500000000000002
 40
0.8500000000000002
 40
0.9000000000000002
 40
0.9000000000000002
 40
0.9000000000000002
 40
0.9000000000000002
 40
0.9500000000000003
 40
0.9500000000000003
 40
0.9500000000000003
 40
0.9500000000000003
 40
1.0
 40
1.0
 40
1.0
 40
1.0
 10
-556.55
 20
-501.6
 30
0.0
 10
-556.55
 20
-501.6
 30
0.0
 10
-556.55
 20
-501.1851
 30
0.0
 10
-556.55
 20
-501.1851
 30
0.0
 10
-556.55
 20
-501.1851
 30
0.0
 10
-557.0205
 20
-500.9128
 30
0.0
 10
-557.4128
 20
-500.5205
 30
0.0
 10
-557.6851
 20
-500.05
 30
0.0
 10
-557.6851
 20
-500.05
 30
0.0
 10
-557.6851
 20
-500.05
 30
0.0
 10
-558.1
 20
-500.05
 30
0.0
 10
-558.1
 20
-500.05
 30
0.0
 10
-558.1
 20
-500.05
 30
0.0
 10
-558.1
 20
-500.05
 30
0.0
 10
-558.1
 20
-498.5
 30
0.0
 10
-558.1
 20
-498.5
 30
0.0
 10
-558.1
 20
-498.5
 30
0.0
 10
-558.1
 20
-498.5
 30
0.0
 10
-558.1
 20
-496.95
 30
0.0
 10
-558.1
 20
-496.95
 30
0.0
 10
-558.1
 20
-496.95
 30
0.0
 10
-558.1
 20
-496.95
 30
0.0
 10
-557.6851
 20
-496.95
 30
0.0
 10
-557.6851
 20
-496.95
 30
0.0
 10
-557.6851
 20
-496.95
 30
0.0
 10
-557.4128
 20
-496.4795
 30
0.0
 10
-557.0205
 20
-496.0872
 30
0.0
 10
-556.55
 20
-495.8149
 30
0.0
 10
-556.55
 20
-495.8149
 30
0.0
 10
-556.55
 20
-495.8149
 30
0.0
 10
-556.55
 20
-495.4
 30
0.0
 10
-556.55
 20
-495.4
 30
0.0
 10
-556.55
 20
-495.4
 30
0.0
 10
-556.55
 20
-495.4
 30
0.0
 10
-555.0
 20
-495.4
 30
0.0
 10
-555.0
 20
-495.4
 30
0.0
 10
-555.0
 20
-495.4
 30
0.0
 10
-555.0
 20
-495.4
 30
0.0
 10
-553.45
 20
-495.4
 30
0.0
 10
-553.45
 20
-495.4
 30
0.0
 10
-553.45
 20
-495.4
 30
0.0
 10
-553.45
 20
-495.4
 30
0.0
 10
-553.45
 20
-495.8149
 30
0.0
 10
-553.45
 20
-495.8149
 30
0.0
 10
-553.45
 20
-495.8149
 30
0.0
 10
-552.9795
 20
-496.0872
 30
0.0
 10
-552.5872
 20
-496.4795
 30
0.0
 10
-552.3149
 20
-496.95
 30
0.0
 10
-552.3149
 20
-496.95
 30
0.0
 10
-552.3149
 20
-496.95
 30
0.0
 10
-551.9
 20
-496.95
 30
0.0
 10
-551.9
 20
-496.95
 30
0.0
 10
-551.9
 20
-496.95
 30
0.0
 10
-551.9
 20
-496.95
 30
0.0
 10
-551.9
 20
-498.5
 30
0.0
 10
-551.9
 20
-498.5
 30
0.0
 10
-551.9
 20
-498.5
 30
0.0
 10
-551.9
 20
-498.5
 30
0.0
 10
-551.9
 20
-500.05
 30
0.0
 10
-551.9
 20
-500.05
 30
0.0
 10
-551.9
 20
-500.05
 30
0.0
 10
-551.9
 20
-500.05
 30
0.0
 10
-552.3149
 20
-500.05
 30
0.0
 10
-552.3149
 20
-500.05
 30
0.0
 10
-552.3149
 20
-500.05
 30
0.0
 10
-552.5872
 20
-500.5205
 30
0.0
 10
-552.9795
 20
-500.9128
 30
0.0
 10
-553.45
 20
-501.1851
 30
0.0
 10
-553.45
 20
-501.1851
 30
0.0
 10
-553.45
 20
-501.1851
 30
0.0
 10
-553.45
 20
-501.6
 30
0.0
 10
-553.45
 20
-501.6
 30
0.0
 10
-553.45
 20
-501.6
 30
0.0
 10
-553.45
 20
-501.6
 30
0.0
 10
-555.0
 20
-501.6
 30
0.0
 10
-555.0
 20
-501.6
 30
0.0
 10
-555.0
 20
-501.6
 30
0.0
 10
-555.0
 20
-501.6
 30
0.0
 10
-556.55
 20
-501.6
 30
0.0
 10
-556.55
 20
-501.6
 30
0.0
  0
LWPOLYLINE
  5
77
330
1F
100
AcDbEntity
  8
LAYER_1
100
AcDbPolyline
 90
        5
 70
     1
 43
0.0
 10
-548.2
 20
-500.1
 10
-541.8
 20
-500.1
 10
-541.8
 20
-496.9
 10
-548.2
 20
-496.9
 10
-548.2
 20
-500.1
  0
SPLINE
  5
78
330
1F
100
AcDbEntity
  8
LAYER_1
100
AcDbSpline
210
0.0
220
0.0
230
1.0
 70
    11
 71
     3
 72
    84
 73
    80
 74
     0
 42
0.0000000001
 43
0.0000000001
 40
0.0
 40
0.0
 40
0.0
 40
0.0
 40
0.05
 40
0.05
 40
0.05
 40
0.05
 40
0.1
 40
0.1
 40
0.1
 40
0.1
 40
0.15
 40
0.15
 40
0.15
 40
0.15
 40
0.2
 40
0.2
 40
0.2
 40
0.2
 40
0.25
 40
0.25
 40
0.25
 40
0.25
 40
0.3
 40
0.3
 40
0.3
 40
0.3
 40
0.35
 40
0.35
 40
0.35
 40
0.35
 40
0.4
 40
0.4
 40
0.4
 40
0.4
 40
0.45
 40
0.45
 40
0.45
 40
0.45
 40
0.4999999999999999
 40
0.4999999999999999
 40
0.4999999999999999
 40
0.4999999999999999
 40
0.5499999999999999
 40
0.5499999999999999
 40
0.5499999999999999
 40
0.5499999999999999
 40
0.6
 40
0.6
 40
0.6
 40
0.6
 40
0.65
 40
0.65
 40
0.65
 40
0.65
 40
0.7000000000000001
 40
0.7000000000000001
 40
0.7000000000000001
 40
0.7000000000000001
 40
0.7500000000000001
 40
0.7500000000000001
 40
0.7500000000000001
 40
0.7500000000000001
 40
0.8000000000000002
 40
0.8000000000000002
 40
0.8000000000000002
 40
0.8000000000000002
 40
0.8500000000000002
 40
0.8500000000000002
 40
0.8500000000000002
 40
0.8500000000000002
 40
0.9000000000000002
 40
0.9000000000000002
 40
0.9000000000000002
 40
0.9000000000000002
 40
0.9500000000000003
 40
0.9500000000000003
 40
0.9500000000000003
 40
0.9500000000000003
 40
1.0
 40
1.0
 40
1.0
 40
1.0
 10
-536.55
 20
-501.6
 30
0.0
 10
-536.55
 20
-501.6
 30
0.0
 10
-536.55
 20
-501.1851
 30
0.0
 10
-536.55
 20
-501.1851
 30
0.0
 10
-536.55
 20
-501.1851
 30
0.0
 10
-537.0205
 20
-500.9128
 30
0.0
 10
-537.4128
 20
-500.5205
 30
0.0
 10
-537.6851
 20
-500.05
 30
0.0
 10
-537.6851
 20
-500.05
 30
0.0
 10
-537.6851
 20
-500.05
 30
0.0
 10
-538.1
 20
-500.05
 30
0.0
 10
-538.1
 20
-500.05
 30
0.0
 10
-538.1
 20
-500.05
 30
0.0
 10
-538.1
 20
-500.05
 30
0.0
 10
-538.1
 20
-498.5
 30
0.0
 10
-538.1
 20
-498.5
 30
0.0
 10
-538.1
 20
-498.5
 30
0.0
 10
-538.1
 20
-498.5
 30
0.0
 10
-538.1
 20
-496.95
 30
0.0
 10
-538.1
 20
-496.95
 30
0.0
 10
-538.1
 20
-496.95
 30
0.0
 10
-538.1
 20
-496.95
 30
0.0
 10
-537.6851
 20
-496.95
 30
0.0
 10
-537.6851
 20
-496.95
 30
0.0
 10
-537.6851
 20
-496.95
 30
0.0
 10
-537.4128
 20
-496.4795
 30
0.0
 10
-537.0205
 20
-496.0872
 30
0.0
 10
-536.55
 20
-495.8149
 30
0.0
 10
-536.55
 20
-495.8149
 30
0.0
 10
-536.55
 20
-495.8149
 30
0.0
 10
-536.55
 20
-495.4
 30
0.0
 10
-536.55
 20
-495.4
 30
0.0
 10
-536.55
 20
-495.4
 30
0.0
 10
-536.55
 20
-495.4
 30
0.0
 10
-535.0
 20
-495.4
 30
0.0
 10
-535.0
 20
-495.4
 30
0.0
 10
-535.0
 20
-495.4
 30
0.0
 10
-535.0
 20
-495.4
 30
0.0
 10
-533.45
 20
-495.4
 30
0.0
 10
-533.45
 20
-495.4
 30
0.0
 10
-533.45
 20
-495.4
 30
0.0
 10
-533.45
 20
-495.4
 30
0.0
 10
-533.45
 20
-495.8149
 30
0.0
 10
-533.45
 20
-495.8149
 30
0.0
 10
-533.45
 20
-495.8149
 30
0.0
 10
-532.9795
 20
-496.0872
 30
0.0
 10
-532.5872
 20
-496.4795
 30
0.0
 10
-532.3149
 20
-496.95
 30
0.0
 10
-532.3149
 20
-496.95
 30
0.0
 10
-532.3149
 20
-496.95
 30
0.0
 10
-531.9
 20
-496.95
 30
0.0
 10
-531.9
 20
-496.95
 30
0.0
 10
-531.9
 20
-496.95
 30
0.0
 10
-531.9
 20
-496.95
 30
0.0
 10
-531.9
 20
-498.5
 30
0.0
 10
-531.9
 20
-498.5
 30
0.0
 10
-531.9
 20
-498.5
 30
0.0
 10
-531.9
 20
-498.5
 30
0.0
 10
-531.9
 20
-500.05
 30
0.0
 10
-531.9
 20
-500.05
 30
0.0
 10
-531.9
 20
-500.05
 30
0.0
 10
-531.9
 20
-500.05
 30
0.0
 10
-532.3149
 20
-500.05
 30
0.0
 10
-532.3149
 20
-500.05
 30
0.0
 10
-532.3149
 20
-500.05
 30
0.0
 10
-532.5872
 20
-500.5205
 30
0.0
 10
-532.9795
 20
-500.9128
 30
0.0
 10
-533.45
 20
-501.1851
 30
0.0
 10
-533.45
 20
-501.1851
 30
0.0
 10
-533.45
 20
-501.1851
 30
0.0
 10
-533.45
 20
-501.6
 30
0.0
 10
-533.45
 20
-501.6
 30
0.0
 10
-533.45
 20
-501.6
 30
0.0
 10
-533.45
 20
-501.6
 30
0.0
 10
-535.0
 20
-501.6
 30
0.0
 10
-535.0
 20
-501.6
 30
0.0
 10
-535.0
 20
-501.6
 30
0.0
 10
-535.0
 20
-501.6
 30
0.0
 10
-536.55
 20
-501.6
 30
0.0
 10
-536.55
 20
-501.6
 30
0.0
  0
SPLINE
  5
79
330
1F
100
AcDbEntity
  8
LAYER_1
100
AcDbSpline
210
0.0
220
0.0
230
1.0
 70
    11
 71
     3
 72
    84
 73
    80
 74
     0
 42
0.0000000001
 43
0.0000000001
 40
0.0
 40
0.0
 40
0.0
 40
0.0
 40
0.05
 40
0.05
 40
0.05
 40
0.05
 40
0.1
 40
0.1
 40
0.1
 40
0.1
 40
0.15
 40
0.15
 40
0.15
 40
0.15
 40
0.2
 40
0.2
 40
0.2
 40
0.2
 40
0.25
 40
0.25
 40
0.25
 40
0.25
 40
0.3
 40
0.3
 40
0.3
 40
0.3
 40
0.35
 40
0.35
 40
0.35
 40
0.35
 40
0.4
 40
0.4
 40
0.4
 40
0.4
 40
0.45
 40
0.45
 40
0.45
 40
0.45
 40
0.4999999999999999
 40
0.4999999999999999
 40
0.4999999999999999
 40
0.4999999999999999
 40
0.5499999999999999
 40
0.5499999999999999
 40
0.5499999999999999
 40
0.5499999999999999
 40
0.6
 40
0.6
 40
0.6
 40
0.6
 40
0.65
 40
0.65
 40
0.65
 40
0.65
 40
0.7000000000000001
 40
0.7000000000000001
 40
0.7000000000000001
 40
0.7000000000000001
 40
0.7500000000000001
 40
0.7500000000000001
 40
0.7500000000000001
 40
0.7500000000000001
 40
0.8000000000000002
 40
0.8000000000000002
 40
0.8000000000000002
 40
0.8000000000000002
 40
0.8500000000000002
 40
0.8500000000000002
 40
0.8500000000000002
 40
0.8500000000000002
 40
0.9000000000000002
 40
0.9000000000000002
 40
0.9000000000000002
 40
0.9000000000000002
 40
0.9500000000000003
 40
0.9500000000000003
 40
0.9500000000000003
 40
0.9500000000000003
 40
1.0
 40
1.0
 40
1.0
 40
1.0
 10
-516.55
 20
-501.6
 30
0.0
 10
-516.55
 20
-501.6
 30
0.0
 10
-516.55
 20
-501.1851
 30
0.0
 10
-516.55
 20
-501.1851
 30
0.0
 10
-516.55
 20
-501.1851
 30
0.0
 10
-517.0205
 20
-500.9128
 30
0.0
 10
-517.4128
 20
-500.5205
 30
0.0
 10
-517.6851
 20
-500.05
 30
0.0
 10
-517.6851
 20
-500.05
 30
0.0
 10
-517.6851
 20
-500.05
 30
0.0
 10
-518.1
 20
-500.05
 30
0.0
 10
-518.1
 20
-500.05
 30
0.0
 10
-518.1
 20
-500.05
 30
0.0
 10
-518.1
 20
-500.05
 30
0.0
 10
-518.1
 20
-498.5
 30
0.0
 10
-518.1
 20
-498.5
 30
0.0
 10
-518.1
 20
-498.5
 30
0.0
 10
-518.1
 20
-498.5
 30
0.0
 10
-518.1
 20
-496.95
 30
0.0
 10
-518.1
 20
-496.95
 30
0.0
 10
-518.1
 20
-496.95
 30
0.0
 10
-518.1
 20
-496.95
 30
0.0
 10
-517.6851
 20
-496.95
 30
0.0
 10
-517.6851
 20
-496.95
 30
0.0
 10
-517.6851
 20
-496.95
 30
0.0
 10
-517.4128
 20
-496.4795
 30
0.0
 10
-517.0205
 20
-496.0872
 30
0.0
 10
-516.55
 20
-495.8149
 30
0.0
 10
-516.55
 20
-495.8149
 30
0.0
 10
-516.55
 20
-495.8149
 30
0.0
 10
-516.55
 20
-495.4
 30
0.0
 10
-516.55
 20
-495.4
 30
0.0
 10
-516.55
 20
-495.4
 30
0.0
 10
-516.55
 20
-495.4
 30
0.0
 10
-515.0
 20
-495.4
 30
0.0
 10
-515.0
 20
-495.4
 30
0.0
 10
-515.0
 20
-495.4
 30
0.0
 10
-515.0
 20
-495.4
 30
0.0
 10
-513.45
 20
-495.4
 30
0.0
 10
-513.45
 20
-495.4
 30
0.0
 10
-513.45
 20
-495.4
 30
0.0
 10
-513.45
 20
-495.4
 30
0.0
 10
-513.45
 20
-495.8149
 30
0.0
 10
-513.45
 20
-495.8149
 30
0.0
 10
-513.45
 20
-495.8149
 30
0.0
 10
-512.9795
 20
-496.0872
 30
0.0
 10
-512.5872
 20
-496.4795
 30
0.0
 10
-512.3149
 20
-496.95
 30
0.0
 10
-512.3149
 20
-496.95
 30
0.0
 10
-512.3149
 20
-496.95
 30
0.0
 10
-511.9
 20
-496.95
 30
0.0
 10
-511.9
 20
-496.95
 30
0.0
 10
-511.9
 20
-496.95
 30
0.0
 10
-511.9
 20
-496.95
 30
0.0
 10
-511.9
 20
-498.5
 30
0.0
 10
-511.9
 20
-498.5
 30
0.0
 10
-511.9
 20
-498.5
 30
0.0
 10
-511.9
 20
-498.5
 30
0.0
 10
-511.9
 20
-500.05
 30
0.0
 10
-511.9
 20
-500.05
 30
0.0
 10
-511.9
 20
-500.05
 30
0.0
 10
-511.9
 20
-500.05
 30
0.0
 10
-512.3149
 20
-500.05
 30
0.0
 10
-512.3149
 20
-500.05
 30
0.0
 10
-512.3149
 20
-500.05
 30
0.0
 10
-512.5872
 20
-500.5205
 30
0.0
 10
-512.9795
 20
-500.9128
 30
0.0
 10
-513.45
 20
-501.1851
 30
0.0
 10
-513.45
 20
-501.1851
 30
0.0
 10
-513.45
 20
-501.1851
 30
0.0
 10
-513.45
 20
-501.6
 30
0.0
 10
-513.45
 20
-501.6
 30
0.0
 10
-513.45
 20
-501.6
 30
0.0
 10
-513.45
 20
-501.6
 30
0.0
 10
-515.0
 20
-501.6
 30
0.0
 10
-515.0
 20
-501.6
 30
0.0
 10
-515.0
 20
-501.6
 30
0.0
 10
-515.0
 20
-501.6
 30
0.0
 10
-516.55
 20
-501.6
 30
0.0
 10
-516.55
 20
-501.6
 30
0.0
  0
SPLINE
  5
7A
330
1F
100
AcDbEntity
  8
LAYER_1
100
AcDbSpline
210
0.0
220
0.0
230
1.0
 70
    11
 71
     3
 72
    84
 73
    80
 74
     0
 42
0.0000000001
 43
0.0000000001
 40
0.0
 40
0.0
 40
0.0
 40
0.0
 40
0.05
 40
0.05
 40
0.05
 40
0.05
 40
0.1
 40
0.1
 40
0.1
 40
0.1
 40
0.15
 40
0.15
 40
0.15
 40
0.15
 40
0.2
 40
0.2
 40
0.2
 40
0.2
 40
0.25
 40
0.25
 40
0.25
 40
0.25
 40
0.3
 40
0.3
 40
0.3
 40
0.3
 40
0.35
 40
0.35
 40
0.35
 40
0.35
 40
0.4
 40
0.4
 40
0.4
 40
0.4
 40
0.45
 40
0.45
 40
0.45
 40
0.45
 40
0.4999999999999999
 40
0.4999999999999999
 40
0.4999999999999999
 40
0.4999999999999999
 40
0.5499999999999999
 40
0.5499999999999999
 40
0.5499999999999999
 40
0.5499999999999999
 40
0.6
 40
0.6
 40
0.6
 40
0.6
 40
0.65
 40
0.65
 40
0.65
 40
0.65
 40
0.7000000000000001
 40
0.7000000000000001
 40
0.7000000000000001
 40
0.7000000000000001
 40
0.7500000000000001
 40
0.7500000000000001
 40
0.7500000000000001
 40
0.7500000000000001
 40
0.8000000000000002
 40
0.8000000000000002
 40
0.8000000000000002
 40
0.8000000000000002
 40
0.8500000000000002
 40
0.8500000000000002
 40
0.8500000000000002
 40
0.8500000000000002
 40
0.9000000000000002
 40
0.9000000000000002
 40
0.9000000000000002
 40
0.9000000000000002
 40
0.9500000000000003
 40
0.9500000000000003
 40
0.9500000000000003
 40
0.9500000000000003
 40
1.0
 40
1.0
 40
1.0
 40
1.0
 10
-496.55
 20
-501.6
 30
0.0
 10
-496.55
 20
-501.6
 30
0.0
 10
-496.55
 20
-501.1851
 30
0.0
 10
-496.55
 20
-501.1851
 30
0.0
 10
-496.55
 20
-501.1851
 30
0.0
 10
-497.0205
 20
-500.9128
 30
0.0
 10
-497.4128
 20
-500.5205
 30
0.0
 10
-497.6851
 20
-500.05
 30
0.0
 10
-497.6851
 20
-500.05
 30
0.0
 10
-497.6851
 20
-500.05
 30
0.0
 10
-498.1
 20
-500.05
 30
0.0
 10
-498.1
 20
-500.05
 30
0.0
 10
-498.1
 20
-500.05
 30
0.0
 10
-498.1
 20
-500.05
 30
0.0
 10
-498.1
 20
-498.5
 30
0.0
 10
-498.1
 20
-498.5
 30
0.0
 10
-498.1
 20
-498.5
 30
0.0
 10
-498.1
 20
-498.5
 30
0.0
 10
-498.1
 20
-496.95
 30
0.0
 10
-498.1
 20
-496.95
 30
0.0
 10
-498.1
 20
-496.95
 30
0.0
 10
-498.1
 20
-496.95
 30
0.0
 10
-497.6851
 20
-496.95
 30
0.0
 10
-497.6851
 20
-496.95
 30
0.0
 10
-497.6851
 20
-496.95
 30
0.0
 10
-497.4128
 20
-496.4795
 30
0.0
 10
-497.0205
 20
-496.0872
 30
0.0
 10
-496.55
 20
-495.8149
 30
0.0
 10
-496.55
 20
-495.8149
 30
0.0
 10
-496.55
 20
-495.8149
 30
0.0
 10
-496.55
 20
-495.4
 30
0.0
 10
-496.55
 20
-495.4
 30
0.0
 10
-496.55
 20
-495.4
 30
0.0
 10
-496.55
 20
-495.4
 30
0.0
 10
-495.0
 20
-495.4
 30
0.0
 10
-495.0
 20
-495.4
 30
0.0
 10
-495.0
 20
-495.4
 30
0.0
 10
-495.0
 20
-495.4
 30
0.0
 10
-493.45
 20
-495.4
 30
0.0
 10
-493.45
 20
-495.4
 30
0.0
 10
-493.45
 20
-495.4
 30
0.0
 10
-493.45
 20
-495.4
 30
0.0
 10
-493.45
 20
-495.8149
 30
0.0
 10
-493.45
 20
-495.8149
 30
0.0
 10
-493.45
 20
-495.8149
 30
0.0
 10
-492.9795
 20
-496.0872
 30
0.0
 10
-492.5872
 20
-496.4795
 30
0.0
 10
-492.3149
 20
-496.95
 30
0.0
 10
-492.3149
 20
-496.95
 30
0.0
 10
-492.3149
 20
-496.95
 30
0.0
 10
-491.9
 20
-496.95
 30
0.0
 10
-491.9
 20
-496.95
 30
0.0
 10
-491.9
 20
-496.95
 30
0.0
 10
-491.9
 20
-496.95
 30
0.0
 10
-491.9
 20
-498.5
 30
0.0
 10
-491.9
 20
-498.5
 30
0.0
 10
-491.9
 20
-498.5
 30
0.0
 10
-491.9
 20
-498.5
 30
0.0
 10
-491.9
 20
-500.05
 30
0.0
 10
-491.9
 20
-500.05
 30
0.0
 10
-491.9
 20
-500.05
 30
0.0
 10
-491.9
 20
-500.05
 30
0.0
 10
-492.3149
 20
-500.05
 30
0.0
 10
-492.3149
 20
-500.05
 30
0.0
 10
-492.3149
 20
-500.05
 30
0.0
 10
-492.5872
 20
-500.5205
 30
0.0
 10
-492.9795
 20
-500.9128
 30
0.0
 10
-493.45
 20
-501.1851
 30
0.0
 10
-493.45
 20
-501.1851
 30
0.0
 10
-493.45
 20
-501.1851
 30
0.0
 10
-493.45
 20
-501.6
 30
0.0
 10
-493.45
 20
-501.6
 30
0.0
 10
-493.45
 20
-501.6
 30
0.0
 10
-493.45
 20
-501.6
 30
0.0
 10
-495.0
 20
-501.6
 30
0.0
 10
-495.0
 20
-501.6
 30
0.0
 10
-495.0
 20
-501.6
 30
0.0
 10
-495.0
 20
-501.6
 30
0.0
 10
-496.55
 20
-501.6
 30
0.0
 10
-496.55
 20
-501.6
 30
0.0
  0
SPLINE
  5
7B
330
1F
100
AcDbEntity
  8
LAYER_1
100
AcDbSpline
210
0.0
220
0.0
230
1.0
 70
    11
 71
     3
 72
    84
 73
    80
 74
     0
 42
0.0000000001
 43
0.0000000001
 40
0.0
 40
0.0
 40
0.0
 40
0.0
 40
0.05
 40
0.05
 40
0.05
 40
0.05
 40
0.1
 40
0.1
 40
0.1
 40
0.1
 40
0.15
 40
0.15
 40
0.15
 40
0.15
 40
0.2
 40
0.2
 40
0.2
 40
0.2
 40
0.25
 40
0.25
 40
0.25
 40
0.25
 40
0.3
 40
0.3
 40
0.3
 40
0.3
 40
0.35
 40
0.35
 40
0.35
 40
0.35
 40
0.4
 40
0.4
 40
0.4
 40
0.4
 40
0.45
 40
0.45
 40
0.45
 40
0.45
 40
0.4999999999999999
 40
0.4999999999999999
 40
0.4999999999999999
 40
0.4999999999999999
 40
0.5499999999999999
 40
0.5499999999999999
 40
0.5499999999999999
 40
0.5499999999999999
 40
0.6
 40
0.6
 40
0.6
 40
0.6
 40
0.65
 40
0.65
 40
0.65
 40
0.65
 40
0.7000000000000001
 40
0.7000000000000001
 40
0.7000000000000001
 40
0.7000000000000001
 40
0.7500000000000001
 40
0.7500000000000001
 40
0.7500000000000001
 40
0.7500000000000001
 40
0.8000000000000002
 40
0.8000000000000002
 40
0.8000000000000002
 40
0.8000000000000002
 40
0.8500000000000002
 40
0.8500000000000002
 40
0.8500000000000002
 40
0.8500000000000002
 40
0.9000000000000002
 40
0.9000000000000002
 40
0.9000000000000002
 40
0.9000000000000002
 40
0.9500000000000003
 40
0.9500000000000003
 40
0.9500000000000003
 40
0.9500000000000003
 40
1.0
 40
1.0
 40
1.0
 40
1.0
 10
-476.55
 20
-501.6
 30
0.0
 10
-476.55
 20
-501.6
 30
0.0
 10
-476.55
 20
-501.1851
 30
0.0
 10
-476.55
 20
-501.1851
 30
0.0
 10
-476.55
 20
-501.1851
 30
0.0
 10
-477.0205
 20
-500.9128
 30
0.0
 10
-477.4128
 20
-500.5205
 30
0.0
 10
-477.6851
 20
-500.05
 30
0.0
 10
-477.6851
 20
-500.05
 30
0.0
 10
-477.6851
 20
-500.05
 30
0.0
 10
-478.1
 20
-500.05
 30
0.0
 10
-478.1
 20
-500.05
 30
0.0
 10
-478.1
 20
-500.05
 30
0.0
 10
-478.1
 20
-500.05
 30
0.0
 10
-478.1
 20
-498.5
 30
0.0
 10
-478.1
 20
-498.5
 30
0.0
 10
-478.1
 20
-498.5
 30
0.0
 10
-478.1
 20
-498.5
 30
0.0
 10
-478.1
 20
-496.95
 30
0.0
 10
-478.1
 20
-496.95
 30
0.0
 10
-478.1
 20
-496.95
 30
0.0
 10
-478.1
 20
-496.95
 30
0.0
 10
-477.6851
 20
-496.95
 30
0.0
 10
-477.6851
 20
-496.95
 30
0.0
 10
-477.6851
 20
-496.95
 30
0.0
 10
-477.4128
 20
-496.4795
 30
0.0
 10
-477.0205
 20
-496.0872
 30
0.0
 10
-476.55
 20
-495.8149
 30
0.0
 10
-476.55
 20
-495.8149
 30
0.0
 10
-476.55
 20
-495.8149
 30
0.0
 10
-476.55
 20
-495.4
 30
0.0
 10
-476.55
 20
-495.4
 30
0.0
 10
-476.55
 20
-495.4
 30
0.0
 10
-476.55
 20
-495.4
 30
0.0
 10
-475.0
 20
-495.4
 30
0.0
 10
-475.0
 20
-495.4
 30
0.0
 10
-475.0
 20
-495.4
 30
0.0
 10
-475.0
 20
-495.4
 30
0.0
 10
-473.45
 20
-495.4
 30
0.0
 10
-473.45
 20
-495.4
 30
0.0
 10
-473.45
 20
-495.4
 30
0.0
 10
-473.45
 20
-495.4
 30
0.0
 10
-473.45
 20
-495.8149
 30
0.0
 10
-473.45
 20
-495.8149
 30
0.0
 10
-473.45
 20
-495.8149
 30
0.0
 10
-472.9795
 20
-496.0872
 30
0.0
 10
-472.5872
 20
-496.4795
 30
0.0
 10
-472.3149
 20
-496.95
 30
0.0
 10
-472.3149
 20
-496.95
 30
0.0
 10
-472.3149
 20
-496.95
 30
0.0
 10
-471.9
 20
-496.95
 30
0.0
 10
-471.9
 20
-496.95
 30
0.0
 10
-471.9
 20
-496.95
 30
0.0
 10
-471.9
 20
-496.95
 30
0.0
 10
-471.9
 20
-498.5
 30
0.0
 10
-471.9
 20
-498.5
 30
0.0
 10
-471.9
 20
-498.5
 30
0.0
 10
-471.9
 20
-498.5
 30
0.0
 10
-471.9
 20
-500.05
 30
0.0
 10
-471.9
 20
-500.05
 30
0.0
 10
-471.9
 20
-500.05
 30
0.0
 10
-471.9
 20
-500.05
 30
0.0
 10
-472.3149
 20
-500.05
 30
0.0
 10
-472.3149
 20
-500.05
 30
0.0
 10
-472.3149
 20
-500.05
 30
0.0
 10
-472.5872
 20
-500.5205
 30
0.0
 10
-472.9795
 20
-500.9128
 30
0.0
 10
-473.45
 20
-501.1851
 30
0.0
 10
-473.45
 20
-501.1851
 30
0.0
 10
-473.45
 20
-501.1851
 30
0.0
 10
-473.45
 20
-501.6
 30
0.0
 10
-473.45
 20
-501.6
 30
0.0
 10
-473.45
 20
-501.6
 30
0.0
 10
-473.45
 20
-501.6
 30
0.0
 10
-475.0
 20
-501.6
 30
0.0
 10
-475.0
 20
-501.6
 30
0.0
 10
-475.0
 20
-501.6
 30
0.0
 10
-475.0
 20
-501.6
 30
0.0
 10
-476.55
 20
-501.6
 30
0.0
 10
-476.55
 20
-501.6
 30
0.0
  0
SPLINE
  5
7C
330
1F
100
AcDbEntity
  8
LAYER_1
100
AcDbSpline
210
0.0
220
0.0
230
1.0
 70
    11
 71
     3
 72
    84
 73
    80
 74
     0
 42
0.0000000001
 43
0.0000000001
 40
0.0
 40
0.0
 40
0.0
 40
0.0
 40
0.05
 40
0.05
 40
0.05
 40
0.05
 40
0.1
 40
0.1
 40
0.1
 40
0.1
 40
0.15
 40
0.15
 40
0.15
 40
0.15
 40
0.2
 40
0.2
 40
0.2
 40
0.2
 40
0.25
 40
0.25
 40
0.25
 40
0.25
 40
0.3
 40
0.3
 40
0.3
 40
0.3
 40
0.35
 40
0.35
 40
0.35
 40
0.35
 40
0.4
 40
0.4
 40
0.4
 40
0.4
 40
0.45
 40
0.45
 40
0.45
 40
0.45
 40
0.4999999999999999
 40
0.4999999999999999
 40
0.4999999999999999
 40
0.4999999999999999
 40
0.5499999999999999
 40
0.5499999999999999
 40
0.5499999999999999
 40
0.5499999999999999
 40
0.6
 40
0.6
 40
0.6
 40
0.6
 40
0.65
 40
0.65
 40
0.65
 40
0.65
 40
0.7000000000000001
 40
0.7000000000000001
 40
0.7000000000000001
 40
0.7000000000000001
 40
0.7500000000000001
 40
0.7500000000000001
 40
0.7500000000000001
 40
0.7500000000000001
 40
0.8000000000000002
 40
0.8000000000000002
 40
0.8000000000000002
 40
0.8000000000000002
 40
0.8500000000000002
 40
0.8500000000000002
 40
0.8500000000000002
 40
0.8500000000000002
 40
0.9000000000000002
 40
0.9000000000000002
 40
0.9000000000000002
 40
0.9000000000000002
 40
0.9500000000000003
 40
0.9500000000000003
 40
0.9500000000000003
 40
0.9500000000000003
 40
1.0
 40
1.0
 40
1.0
 40
1.0
 10
-456.55
 20
-501.6
 30
0.0
 10
-456.55
 20
-501.6
 30
0.0
 10
-456.55
 20
-501.1851
 30
0.0
 10
-456.55
 20
-501.1851
 30
0.0
 10
-456.55
 20
-501.1851
 30
0.0
 10
-457.0205
 20
-500.9128
 30
0.0
 10
-457.4128
 20
-500.5205
 30
0.0
 10
-457.6851
 20
-500.05
 30
0.0
 10
-457.6851
 20
-500.05
 30
0.0
 10
-457.6851
 20
-500.05
 30
0.0
 10
-458.1
 20
-500.05
 30
0.0
 10
-458.1
 20
-500.05
 30
0.0
 10
-458.1
 20
-500.05
 30
0.0
 10
-458.1
 20
-500.05
 30
0.0
 10
-458.1
 20
-498.5
 30
0.0
 10
-458.1
 20
-498.5
 30
0.0
 10
-458.1
 20
-498.5
 30
0.0
 10
-458.1
 20
-498.5
 30
0.0
 10
-458.1
 20
-496.95
 30
0.0
 10
-458.1
 20
-496.95
 30
0.0
 10
-458.1
 20
-496.95
 30
0.0
 10
-458.1
 20
-496.95
 30
0.0
 10
-457.6851
 20
-496.95
 30
0.0
 10
-457.6851
 20
-496.95
 30
0.0
 10
-457.6851
 20
-496.95
 30
0.0
 10
-457.4128
 20
-496.4795
 30
0.0
 10
-457.0205
 20
-496.0872
 30
0.0
 10
-456.55
 20
-495.8149
 30
0.0
 10
-456.55
 20
-495.8149
 30
0.0
 10
-456.55
 20
-495.8149
 30
0.0
 10
-456.55
 20
-495.4
 30
0.0
 10
-456.55
 20
-495.4
 30
0.0
 10
-456.55
 20
-495.4
 30
0.0
 10
-456.55
 20
-495.4
 30
0.0
 10
-455.0
 20
-495.4
 30
0.0
 10
-455.0
 20
-495.4
 30
0.0
 10
-455.0
 20
-495.4
 30
0.0
 10
-455.0
 20
-495.4
 30
0.0
 10
-453.45
 20
-495.4
 30
0.0
 10
-453.45
 20
-495.4
 30
0.0
 10
-453.45
 20
-495.4
 30
0.0
 10
-453.45
 20
-495.4
 30
0.0
 10
-453.45
 20
-495.8149
 30
0.0
 10
-453.45
 20
-495.8149
 30
0.0
 10
-453.45
 20
-495.8149
 30
0.0
 10
-452.9795
 20
-496.0872
 30
0.0
 10
-452.5872
 20
-496.4795
 30
0.0
 10
-452.3149
 20
-496.95
 30
0.0
 10
-452.3149
 20
-496.95
 30
0.0
 10
-452.3149
 20
-496.95
 30
0.0
 10
-451.9
 20
-496.95
 30
0.0
 10
-451.9
 20
-496.95
 30
0.0
 10
-451.9
 20
-496.95
 30
0.0
 10
-451.9
 20
-496.95
 30
0.0
 10
-451.9
 20
-498.5
 30
0.0
 10
-451.9
 20
-498.5
 30
0.0
 10
-451.9
 20
-498.5
 30
0.0
 10
-451.9
 20
-498.5
 30
0.0
 10
-451.9
 20
-500.05
 30
0.0
 10
-451.9
 20
-500.05
 30
0.0
 10
-451.9
 20
-500.05
 30
0.0
 10
-451.9
 20
-500.05
 30
0.0
 10
-452.3149
 20
-500.05
 30
0.0
 10
-452.3149
 20
-500.05
 30
0.0
 10
-452.3149
 20
-500.05
 30
0.0
 10
-452.5872
 20
-500.5205
 30
0.0
 10
-452.9795
 20
-500.9128
 30
0.0
 10
-453.45
 20
-501.1851
 30
0.0
 10
-453.45
 20
-501.1851
 30
0.0
 10
-453.45
 20
-501.1851
 30
0.0
 10
-453.45
 20
-501.6
 30
0.0
 10
-453.45
 20
-501.6
 30
0.0
 10
-453.45
 20
-501.6
 30
0.0
 10
-453.45
 20
-501.6
 30
0.0
 10
-455.0
 20
-501.6
 30
0.0
 10
-455.0
 20
-501.6
 30
0.0
 10
-455.0
 20
-501.6
 30
0.0
 10
-455.0
 20
-501.6
 30
0.0
 10
-456.55
 20
-501.6
 30
0.0
 10
-456.55
 20
-501.6
 30
0.0
  0
SPLINE
  5
7D
330
1F
100
AcDbEntity
  8
LAYER_1
100
AcDbSpline
210
0.0
220
0.0
230
1.0
 70
    11
 71
     3
 72
    84
 73
    80
 74
     0
 42
0.0000000001
 43
0.0000000001
 40
0.0
 40
0.0
 40
0.0
 40
0.0
 40
0.05
 40
0.05
 40
0.05
 40
0.05
 40
0.1
 40
0.1
 40
0.1
 40
0.1
 40
0.15
 40
0.15
 40
0.15
 40
0.15
 40
0.2
 40
0.2
 40
0.2
 40
0.2
 40
0.25
 40
0.25
 40
0.25
 40
0.25
 40
0.3
 40
0.3
 40
0.3
 40
0.3
 40
0.35
 40
0.35
 40
0.35
 40
0.35
 40
0.4
 40
0.4
 40
0.4
 40
0.4
 40
0.45
 40
0.45
 40
0.45
 40
0.45
 40
0.4999999999999999
 40
0.4999999999999999
 40
0.4999999999999999
 40
0.4999999999999999
 40
0.5499999999999999
 40
0.5499999999999999
 40
0.5499999999999999
 40
0.5499999999999999
 40
0.6
 40
0.6
 40
0.6
 40
0.6
 40
0.65
 40
0.65
 40
0.65
 40
0.65
 40
0.7000000000000001
 40
0.7000000000000001
 40
0.7000000000000001
 40
0.7000000000000001
 40
0.7500000000000001
 40
0.7500000000000001
 40
0.7500000000000001
 40
0.7500000000000001
 40
0.8000000000000002
 40
0.8000000000000002
 40
0.8000000000000002
 40
0.8000000000000002
 40
0.8500000000000002
 40
0.8500000000000002
 40
0.8500000000000002
 40
0.8500000000000002
 40
0.9000000000000002
 40
0.9000000000000002
 40
0.9000000000000002
 40
0.9000000000000002
 40
0.9500000000000003
 40
0.9500000000000003
 40
0.9500000000000003
 40
0.9500000000000003
 40
1.0
 40
1.0
 40
1.0
 40
1.0
 10
-456.55
 20
-541.6
 30
0.0
 10
-456.55
 20
-541.6
 30
0.0
 10
-456.55
 20
-541.1851
 30
0.0
 10
-456.55
 20
-541.1851
 30
0.0
 10
-456.55
 20
-541.1851
 30
0.0
 10
-457.0205
 20
-540.9128
 30
0.0
 10
-457.4128
 20
-540.5205
 30
0.0
 10
-457.6851
 20
-540.05
 30
0.0
 10
-457.6851
 20
-540.05
 30
0.0
 10
-457.6851
 20
-540.05
 30
0.0
 10
-458.1
 20
-540.05
 30
0.0
 10
-458.1
 20
-540.05
 30
0.0
 10
-458.1
 20
-540.05
 30
0.0
 10
-458.1
 20
-540.05
 30
0.0
 10
-458.1
 20
-538.5
 30
0.0
 10
-458.1
 20
-538.5
 30
0.0
 10
-458.1
 20
-538.5
 30
0.0
 10
-458.1
 20
-538.5
 30
0.0
 10
-458.1
 20
-536.95
 30
0.0
 10
-458.1
 20
-536.95
 30
0.0
 10
-458.1
 20
-536.95
 30
0.0
 10
-458.1
 20
-536.95
 30
0.0
 10
-457.6851
 20
-536.95
 30
0.0
 10
-457.6851
 20
-536.95
 30
0.0
 10
-457.6851
 20
-536.95
 30
0.0
 10
-457.4128
 20
-536.4795
 30
0.0
 10
-457.0205
 20
-536.0872
 30
0.0
 10
-456.55
 20
-535.8149
 30
0.0
 10
-456.55
 20
-535.8149
 30
0.0
 10
-456.55
 20
-535.8149
 30
0.0
 10
-456.55
 20
-535.4
 30
0.0
 10
-456.55
 20
-535.4
 30
0.0
 10
-456.55
 20
-535.4
 30
0.0
 10
-456.55
 20
-535.4
 30
0.0
 10
-455.0
 20
-535.4
 30
0.0
 10
-455.0
 20
-535.4
 30
0.0
 10
-455.0
 20
-535.4
 30
0.0
 10
-455.0
 20
-535.4
 30
0.0
 10
-453.45
 20
-535.4
 30
0.0
 10
-453.45
 20
-535.4
 30
0.0
 10
-453.45
 20
-535.4
 30
0.0
 10
-453.45
 20
-535.4
 30
0.0
 10
-453.45
 20
-535.8149
 30
0.0
 10
-453.45
 20
-535.8149
 30
0.0
 10
-453.45
 20
-535.8149
 30
0.0
 10
-452.9795
 20
-536.0872
 30
0.0
 10
-452.5872
 20
-536.4795
 30
0.0
 10
-452.3149
 20
-536.95
 30
0.0
 10
-452.3149
 20
-536.95
 30
0.0
 10
-452.3149
 20
-536.95
 30
0.0
 10
-451.9
 20
-536.95
 30
0.0
 10
-451.9
 20
-536.95
 30
0.0
 10
-451.9
 20
-536.95
 30
0.0
 10
-451.9
 20
-536.95
 30
0.0
 10
-451.9
 20
-538.5
 30
0.0
 10
-451.9
 20
-538.5
 30
0.0
 10
-451.9
 20
-538.5
 30
0.0
 10
-451.9
 20
-538.5
 30
0.0
 10
-451.9
 20
-540.05
 30
0.0
 10
-451.9
 20
-540.05
 30
0.0
 10
-451.9
 20
-540.05
 30
0.0
 10
-451.9
 20
-540.05
 30
0.0
 10
-452.3149
 20
-540.05
 30
0.0
 10
-452.3149
 20
-540.05
 30
0.0
 10
-452.3149
 20
-540.05
 30
0.0
 10
-452.5872
 20
-540.5205
 30
0.0
 10
-452.9795
 20
-540.9128
 30
0.0
 10
-453.45
 20
-541.1851
 30
0.0
 10
-453.45
 20
-541.1851
 30
0.0
 10
-453.45
 20
-541.1851
 30
0.0
 10
-453.45
 20
-541.6
 30
0.0
 10
-453.45
 20
-541.6
 30
0.0
 10
-453.45
 20
-541.6
 30
0.0
 10
-453.45
 20
-541.6
 30
0.0
 10
-455.0
 20
-541.6
 30
0.0
 10
-455.0
 20
-541.6
 30
0.0
 10
-455.0
 20
-541.6
 30
0.0
 10
-455.0
 20
-541.6
 30
0.0
 10
-456.55
 20
-541.6
 30
0.0
 10
-456.55
 20
-541.6
 30
0.0
  0
SPLINE
  5
7E
330
1F
100
AcDbEntity
  8
LAYER_1
100
AcDbSpline
210
0.0
220
0.0
230
1.0
 70
    11
 71
     3
 72
    84
 73
    80
 74
     0
 42
0.0000000001
 43
0.0000000001
 40
0.0
 40
0.0
 40
0.0
 40
0.0
 40
0.05
 40
0.05
 40
0.05
 40
0.05
 40
0.1
 40
0.1
 40
0.1
 40
0.1
 40
0.15
 40
0.15
 40
0.15
 40
0.15
 40
0.2
 40
0.2
 40
0.2
 40
0.2
 40
0.25
 40
0.25
 40
0.25
 40
0.25
 40
0.3
 40
0.3
 40
0.3
 40
0.3
 40
0.35
 40
0.35
 40
0.35
 40
0.35
 40
0.4
 40
0.4
 40
0.4
 40
0.4
 40
0.45
 40
0.45
 40
0.45
 40
0.45
 40
0.4999999999999999
 40
0.4999999999999999
 40
0.4999999999999999
 40
0.4999999999999999
 40
0.5499999999999999
 40
0.5499999999999999
 40
0.5499999999999999
 40
0.5499999999999999
 40
0.6
 40
0.6
 40
0.6
 40
0.6
 40
0.65
 40
0.65
 40
0.65
 40
0.65
 40
0.7000000000000001
 40
0.7000000000000001
 40
0.7000000000000001
 40
0.7000000000000001
 40
0.7500000000000001
 40
0.7500000000000001
 40
0.7500000000000001
 40
0.7500000000000001
 40
0.8000000000000002
 40
0.8000000000000002
 40
0.8000000000000002
 40
0.8000000000000002
 40
0.8500000000000002
 40
0.8500000000000002
 40
0.8500000000000002
 40
0.8500000000000002
 40
0.9000000000000002
 40
0.9000000000000002
 40
0.9000000000000002
 40
0.9000000000000002
 40
0.9500000000000003
 40
0.9500000000000003
 40
0.9500000000000003
 40
0.9500000000000003
 40
1.0
 40
1.0
 40
1.0
 40
1.0
 10
-556.55
 20
-541.6
 30
0.0
 10
-556.55
 20
-541.6
 30
0.0
 10
-556.55
 20
-541.1851
 30
0.0
 10
-556.55
 20
-541.1851
 30
0.0
 10
-556.55
 20
-541.1851
 30
0.0
 10
-557.0205
 20
-540.9128
 30
0.0
 10
-557.4128
 20
-540.5205
 30
0.0
 10
-557.6851
 20
-540.05
 30
0.0
 10
-557.6851
 20
-540.05
 30
0.0
 10
-557.6851
 20
-540.05
 30
0.0
 10
-558.1
 20
-540.05
 30
0.0
 10
-558.1
 20
-540.05
 30
0.0
 10
-558.1
 20
-540.05
 30
0.0
 10
-558.1
 20
-540.05
 30
0.0
 10
-558.1
 20
-538.5
 30
0.0
 10
-558.1
 20
-538.5
 30
0.0
 10
-558.1
 20
-538.5
 30
0.0
 10
-558.1
 20
-538.5
 30
0.0
 10
-558.1
 20
-536.95
 30
0.0
 10
-558.1
 20
-536.95
 30
0.0
 10
-558.1
 20
-536.95
 30
0.0
 10
-558.1
 20
-536.95
 30
0.0
 10
-557.6851
 20
-536.95
 30
0.0
 10
-557.6851
 20
-536.95
 30
0.0
 10
-557.6851
 20
-536.95
 30
0.0
 10
-557.4128
 20
-536.4795
 30
0.0
 10
-557.0205
 20
-536.0872
 30
0.0
 10
-556.55
 20
-535.8149
 30
0.0
 10
-556.55
 20
-535.8149
 30
0.0
 10
-556.55
 20
-535.8149
 30
0.0
 10
-556.55
 20
-535.4
 30
0.0
 10
-556.55
 20
-535.4
 30
0.0
 10
-556.55
 20
-535.4
 30
0.0
 10
-556.55
 20
-535.4
 30
0.0
 10
-555.0
 20
-535.4
 30
0.0
 10
-555.0
 20
-535.4
 30
0.0
 10
-555.0
 20
-535.4
 30
0.0
 10
-555.0
 20
-535.4
 30
0.0
 10
-553.45
 20
-535.4
 30
0.0
 10
-553.45
 20
-535.4
 30
0.0
 10
-553.45
 20
-535.4
 30
0.0
 10
-553.45
 20
-535.4
 30
0.0
 10
-553.45
 20
-535.8149
 30
0.0
 10
-553.45
 20
-535.8149
 30
0.0
 10
-553.45
 20
-535.8149
 30
0.0
 10
-552.9795
 20
-536.0872
 30
0.0
 10
-552.5872
 20
-536.4795
 30
0.0
 10
-552.3149
 20
-536.95
 30
0.0
 10
-552.3149
 20
-536.95
 30
0.0
 10
-552.3149
 20
-536.95
 30
0.0
 10
-551.9
 20
-536.95
 30
0.0
 10
-551.9
 20
-536.95
 30
0.0
 10
-551.9
 20
-536.95
 30
0.0
 10
-551.9
 20
-536.95
 30
0.0
 10
-551.9
 20
-538.5
 30
0.0
 10
-551.9
 20
-538.5
 30
0.0
 10
-551.9
 20
-538.5
 30
0.0
 10
-551.9
 20
-538.5
 30
0.0
 10
-551.9
 20
-540.05
 30
0.0
 10
-551.9
 20
-540.05
 30
0.0
 10
-551.9
 20
-540.05
 30
0.0
 10
-551.9
 20
-540.05
 30
0.0
 10
-552.3149
 20
-540.05
 30
0.0
 10
-552.3149
 20
-540.05
 30
0.0
 10
-552.3149
 20
-540.05
 30
0.0
 10
-552.5872
 20
-540.5205
 30
0.0
 10
-552.9795
 20
-540.9128
 30
0.0
 10
-553.45
 20
-541.1851
 30
0.0
 10
-553.45
 20
-541.1851
 30
0.0
 10
-553.45
 20
-541.1851
 30
0.0
 10
-553.45
 20
-541.6
 30
0.0
 10
-553.45
 20
-541.6
 30
0.0
 10
-553.45
 20
-541.6
 30
0.0
 10
-553.45
 20
-541.6
 30
0.0
 10
-555.0
 20
-541.6
 30
0.0
 10
-555.0
 20
-541.6
 30
0.0
 10
-555.0
 20
-541.6
 30
0.0
 10
-555.0
 20
-541.6
 30
0.0
 10
-556.55
 20
-541.6
 30
0.0
 10
-556.55
 20
-541.6
 30
0.0
  0
LWPOLYLINE
  5
7F
330
1F
100
AcDbEntity
  8
LAYER_1
100
AcDbPolyline
 90
        5
 70
     1
 43
0.0
 10
-528.2
 20
-500.1
 10
-521.8
 20
-500.1
 10
-521.8
 20
-496.9
 10
-528.2
 20
-496.9
 10
-528.2
 20
-500.1
  0
LWPOLYLINE
  5
80
330
1F
100
AcDbEntity
  8
LAYER_1
100
AcDbPolyline
 90
        5
 70
     1
 43
0.0
 10
-508.2
 20
-500.1
 10
-501.8
 20
-500.1
 10
-501.8
 20
-496.9
 10
-508.2
 20
-496.9
 10
-508.2
 20
-500.1
  0
LWPOLYLINE
  5
81
330
1F
100
AcDbEntity
  8
LAYER_1
100
AcDbPolyline
 90
        5
 70
     1
 43
0.0
 10
-488.2
 20
-500.1
 10
-481.8
 20
-500.1
 10
-481.8
 20
-496.9
 10
-488.2
 20
-496.9
 10
-488.2
 20
-500.1
  0
LWPOLYLINE
  5
82
330
1F
100
AcDbEntity
  8
LAYER_1
100
AcDbPolyline
 90
        5
 70
     1
 43
0.0
 10
-468.2
 20
-500.1
 10
-461.8
 20
-500.1
 10
-461.8
 20
-496.9
 10
-468.2
 20
-496.9
 10
-468.2
 20
-500.1
  0
SPLINE
  5
83
330
1F
100
AcDbEntity
  8
LAYER_1
100
AcDbSpline
210
0.0
220
0.0
230
1.0
 70
    11
 71
     3
 72
    20
 73
    16
 74
     0
 42
0.0000000001
 43
0.0000000001
 40
0.0
 40
0.0
 40
0.0
 40
0.0
 40
0.25
 40
0.25
 40
0.25
 40
0.25
 40
0.5
 40
0.5
 40
0.5
 40
0.5
 40
0.75
 40
0.75
 40
0.75
 40
0.75
 40
1.0
 40
1.0
 40
1.0
 40
1.0
 10
-556.55
 20
-531.6
 30
0.0
 10
-556.55
 20
-531.6
 30
0.0
 10
-556.55
 20
-525.4
 30
0.0
 10
-556.55
 20
-525.4
 30
0.0
 10
-556.55
 20
-525.4
 30
0.0
 10
-556.55
 20
-525.4
 30
0.0
 10
-553.45
 20
-525.4
 30
0.0
 10
-553.45
 20
-525.4
 30
0.0
 10
-553.45
 20
-525.4
 30
0.0
 10
-553.45
 20
-525.4
 30
0.0
 10
-553.45
 20
-531.6
 30
0.0
 10
-553.45
 20
-531.6
 30
0.0
 10
-553.45
 20
-531.6
 30
0.0
 10
-553.45
 20
-531.6
 30
0.0
 10
-556.55
 20
-531.6
 30
0.0
 10
-556.55
 20
-531.6
 30
0.0
  0
SPLINE
  5
84
330
1F
100
AcDbEntity
  8
LAYER_1
100
AcDbSpline
210
0.0
220
0.0
230
1.0
 70
    11
 71
     3
 72
    36
 73
    32
 74
     0
 42
0.0000000001
 43
0.0000000001
 40
0.0
 40
0.0
 40
0.0
 40
0.0
 40
0.125
 40
0.125
 40
0.125
 40
0.125
 40
0.25
 40
0.25
 40
0.25
 40
0.25
 40
0.375
 40
0.375
 40
0.375
 40
0.375
 40
0.5
 40
0.5
 40
0.5
 40
0.5
 40
0.625
 40
0.625
 40
0.625
 40
0.625
 40
0.75
 40
0.75
 40
0.75
 40
0.75
 40
0.875
 40
0.875
 40
0.875
 40
0.875
 40
1.0
 40
1.0
 40
1.0
 40
1.0
 10
-561.5
 20
-620.0
 30
0.0
 10
-561.5
 20
-622.7609
 30
0.0
 10
-559.2609
 20
-625.0
 30
0.0
 10
-556.5
 20
-625.0
 30
0.0
 10
-556.5
 20
-625.0
 30
0.0
 10
-556.5
 20
-625.0
 30
0.0
 10
-453.5
 20
-625.0
 30
0.0
 10
-453.5
 20
-625.0
 30
0.0
 10
-453.5
 20
-625.0
 30
0.0
 10
-450.7391
 20
-625.0
 30
0.0
 10
-448.5
 20
-622.7609
 30
0.0
 10
-448.5
 20
-620.0
 30
0.0
 10
-448.5
 20
-620.0
 30
0.0
 10
-448.5
 20
-620.0
 30
0.0
 10
-448.5
 20
-577.0
 30
0.0
 10
-448.5
 20
-577.0
 30
0.0
 10
-448.5
 20
-577.0
 30
0.0
 10
-448.5
 20
-574.2391
 30
0.0
 10
-450.7391
 20
-572.0
 30
0.0
 10
-453.5
 20
-572.0
 30
0.0
 10
-453.5
 20
-572.0
 30
0.0
 10
-453.5
 20
-572.0
 30
0.0
 10
-556.5
 20
-572.0
 30
0.0
 10
-556.5
 20
-572.0
 30
0.0
 10
-556.5
 20
-572.0
 30
0.0
 10
-559.2609
 20
-572.0
 30
0.0
 10
-561.5
 20
-574.2391
 30
0.0
 10
-561.5
 20
-577.0
 30
0.0
 10
-561.5
 20
-577.0
 30
0.0
 10
-561.5
 20
-620.9469
 30
0.0
 10
-561.5
 20
-579.7309
 30
0.0
 10
-561.5
 20
-620.0
 30
0.0
  0
SPLINE
  5
85
330
1F
100
AcDbEntity
  8
LAYER_1
100
AcDbSpline
210
0.0
220
0.0
230
1.0
 70
    11
 71
     3
 72
    84
 73
    80
 74
     0
 42
0.0000000001
 43
0.0000000001
 40
0.0
 40
0.0
 40
0.0
 40
0.0
 40
0.05
 40
0.05
 40
0.05
 40
0.05
 40
0.1
 40
0.1
 40
0.1
 40
0.1
 40
0.15
 40
0.15
 40
0.15
 40
0.15
 40
0.2
 40
0.2
 40
0.2
 40
0.2
 40
0.25
 40
0.25
 40
0.25
 40
0.25
 40
0.3
 40
0.3
 40
0.3
 40
0.3
 40
0.35
 40
0.35
 40
0.35
 40
0.35
 40
0.4
 40
0.4
 40
0.4
 40
0.4
 40
0.45
 40
0.45
 40
0.45
 40
0.45
 40
0.4999999999999999
 40
0.4999999999999999
 40
0.4999999999999999
 40
0.4999999999999999
 40
0.5499999999999999
 40
0.5499999999999999
 40
0.5499999999999999
 40
0.5499999999999999
 40
0.6
 40
0.6
 40
0.6
 40
0.6
 40
0.65
 40
0.65
 40
0.65
 40
0.65
 40
0.7000000000000001
 40
0.7000000000000001
 40
0.7000000000000001
 40
0.7000000000000001
 40
0.7500000000000001
 40
0.7500000000000001
 40
0.7500000000000001
 40
0.7500000000000001
 40
0.8000000000000002
 40
0.8000000000000002
 40
0.8000000000000002
 40
0.8000000000000002
 40
0.8500000000000002
 40
0.8500000000000002
 40
0.8500000000000002
 40
0.8500000000000002
 40
0.9000000000000002
 40
0.9000000000000002
 40
0.9000000000000002
 40
0.9000000000000002
 40
0.9500000000000003
 40
0.9500000000000003
 40
0.9500000000000003
 40
0.9500000000000003
 40
1.0
 40
1.0
 40
1.0
 40
1.0
 10
-556.55
 20
-581.6
 30
0.0
 10
-556.55
 20
-581.6
 30
0.0
 10
-556.55
 20
-581.1851
 30
0.0
 10
-556.55
 20
-581.1851
 30
0.0
 10
-556.55
 20
-581.1851
 30
0.0
 10
-557.0205
 20
-580.9128
 30
0.0
 10
-557.4128
 20
-580.5205
 30
0.0
 10
-557.6851
 20
-580.05
 30
0.0
 10
-557.6851
 20
-580.05
 30
0.0
 10
-557.6851
 20
-580.05
 30
0.0
 10
-558.1
 20
-580.05
 30
0.0
 10
-558.1
 20
-580.05
 30
0.0
 10
-558.1
 20
-580.05
 30
0.0
 10
-558.1
 20
-580.05
 30
0.0
 10
-558.1
 20
-578.5
 30
0.0
 10
-558.1
 20
-578.5
 30
0.0
 10
-558.1
 20
-578.5
 30
0.0
 10
-558.1
 20
-578.5
 30
0.0
 10
-558.1
 20
-576.95
 30
0.0
 10
-558.1
 20
-576.95
 30
0.0
 10
-558.1
 20
-576.95
 30
0.0
 10
-558.1
 20
-576.95
 30
0.0
 10
-557.6851
 20
-576.95
 30
0.0
 10
-557.6851
 20
-576.95
 30
0.0
 10
-557.6851
 20
-576.95
 30
0.0
 10
-557.4128
 20
-576.4795
 30
0.0
 10
-557.0205
 20
-576.0872
 30
0.0
 10
-556.55
 20
-575.8149
 30
0.0
 10
-556.55
 20
-575.8149
 30
0.0
 10
-556.55
 20
-575.8149
 30
0.0
 10
-556.55
 20
-575.4
 30
0.0
 10
-556.55
 20
-575.4
 30
0.0
 10
-556.55
 20
-575.4
 30
0.0
 10
-556.55
 20
-575.4
 30
0.0
 10
-555.0
 20
-575.4
 30
0.0
 10
-555.0
 20
-575.4
 30
0.0
 10
-555.0
 20
-575.4
 30
0.0
 10
-555.0
 20
-575.4
 30
0.0
 10
-553.45
 20
-575.4
 30
0.0
 10
-553.45
 20
-575.4
 30
0.0
 10
-553.45
 20
-575.4
 30
0.0
 10
-553.45
 20
-575.4
 30
0.0
 10
-553.45
 20
-575.8149
 30
0.0
 10
-553.45
 20
-575.8149
 30
0.0
 10
-553.45
 20
-575.8149
 30
0.0
 10
-552.9795
 20
-576.0872
 30
0.0
 10
-552.5872
 20
-576.4795
 30
0.0
 10
-552.3149
 20
-576.95
 30
0.0
 10
-552.3149
 20
-576.95
 30
0.0
 10
-552.3149
 20
-576.95
 30
0.0
 10
-551.9
 20
-576.95
 30
0.0
 10
-551.9
 20
-576.95
 30
0.0
 10
-551.9
 20
-576.95
 30
0.0
 10
-551.9
 20
-576.95
 30
0.0
 10
-551.9
 20
-578.5
 30
0.0
 10
-551.9
 20
-578.5
 30
0.0
 10
-551.9
 20
-578.5
 30
0.0
 10
-551.9
 20
-578.5
 30
0.0
 10
-551.9
 20
-580.05
 30
0.0
 10
-551.9
 20
-580.05
 30
0.0
 10
-551.9
 20
-580.05
 30
0.0
 10
-551.9
 20
-580.05
 30
0.0
 10
-552.3149
 20
-580.05
 30
0.0
 10
-552.3149
 20
-580.05
 30
0.0
 10
-552.3149
 20
-580.05
 30
0.0
 10
-552.5872
 20
-580.5205
 30
0.0
 10
-552.9795
 20
-580.9128
 30
0.0
 10
-553.45
 20
-581.1851
 30
0.0
 10
-553.45
 20
-581.1851
 30
0.0
 10
-553.45
 20
-581.1851
 30
0.0
 10
-553.45
 20
-581.6
 30
0.0
 10
-553.45
 20
-581.6
 30
0.0
 10
-553.45
 20
-581.6
 30
0.0
 10
-553.45
 20
-581.6
 30
0.0
 10
-555.0
 20
-581.6
 30
0.0
 10
-555.0
 20
-581.6
 30
0.0
 10
-555.0
 20
-581.6
 30
0.0
 10
-555.0
 20
-581.6
 30
0.0
 10
-556.55
 20
-581.6
 30
0.0
 10
-556.55
 20
-581.6
 30
0.0
  0
LWPOLYLINE
  5
86
330
1F
100
AcDbEntity
  8
LAYER_1
100
AcDbPolyline
 90
        5
 70
     1
 43
0.0
 10
-548.2
 20
-580.1
 10
-541.8
 20
-580.1
 10
-541.8
 20
-576.9
 10
-548.2
 20
-576.9
 10
-548.2
 20
-580.1
  0
SPLINE
  5
87
330
1F
100
AcDbEntity
  8
LAYER_1
100
AcDbSpline
210
0.0
220
0.0
230
1.0
 70
    11
 71
     3
 72
    84
 73
    80
 74
     0
 42
0.0000000001
 43
0.0000000001
 40
0.0
 40
0.0
 40
0.0
 40
0.0
 40
0.05
 40
0.05
 40
0.05
 40
0.05
 40
0.1
 40
0.1
 40
0.1
 40
0.1
 40
0.15
 40
0.15
 40
0.15
 40
0.15
 40
0.2
 40
0.2
 40
0.2
 40
0.2
 40
0.25
 40
0.25
 40
0.25
 40
0.25
 40
0.3
 40
0.3
 40
0.3
 40
0.3
 40
0.35
 40
0.35
 40
0.35
 40
0.35
 40
0.4
 40
0.4
 40
0.4
 40
0.4
 40
0.45
 40
0.45
 40
0.45
 40
0.45
 40
0.4999999999999999
 40
0.4999999999999999
 40
0.4999999999999999
 40
0.4999999999999999
 40
0.5499999999999999
 40
0.5499999999999999
 40
0.5499999999999999
 40
0.5499999999999999
 40
0.6
 40
0.6
 40
0.6
 40
0.6
 40
0.65
 40
0.65
 40
0.65
 40
0.65
 40
0.7000000000000001
 40
0.7000000000000001
 40
0.7000000000000001
 40
0.7000000000000001
 40
0.7500000000000001
 40
0.7500000000000001
 40
0.7500000000000001
 40
0.7500000000000001
 40
0.8000000000000002
 40
0.8000000000000002
 40
0.8000000000000002
 40
0.8000000000000002
 40
0.8500000000000002
 40
0.8500000000000002
 40
0.8500000000000002
 40
0.8500000000000002
 40
0.9000000000000002
 40
0.9000000000000002
 40
0.9000000000000002
 40
0.9000000000000002
 40
0.9500000000000003
 40
0.9500000000000003
 40
0.9500000000000003
 40
0.9500000000000003
 40
1.0
 40
1.0
 40
1.0
 40
1.0
 10
-536.55
 20
-581.6
 30
0.0
 10
-536.55
 20
-581.6
 30
0.0
 10
-536.55
 20
-581.1851
 30
0.0
 10
-536.55
 20
-581.1851
 30
0.0
 10
-536.55
 20
-581.1851
 30
0.0
 10
-537.0205
 20
-580.9128
 30
0.0
 10
-537.4128
 20
-580.5205
 30
0.0
 10
-537.6851
 20
-580.05
 30
0.0
 10
-537.6851
 20
-580.05
 30
0.0
 10
-537.6851
 20
-580.05
 30
0.0
 10
-538.1
 20
-580.05
 30
0.0
 10
-538.1
 20
-580.05
 30
0.0
 10
-538.1
 20
-580.05
 30
0.0
 10
-538.1
 20
-580.05
 30
0.0
 10
-538.1
 20
-578.5
 30
0.0
 10
-538.1
 20
-578.5
 30
0.0
 10
-538.1
 20
-578.5
 30
0.0
 10
-538.1
 20
-578.5
 30
0.0
 10
-538.1
 20
-576.95
 30
0.0
 10
-538.1
 20
-576.95
 30
0.0
 10
-538.1
 20
-576.95
 30
0.0
 10
-538.1
 20
-576.95
 30
0.0
 10
-537.6851
 20
-576.95
 30
0.0
 10
-537.6851
 20
-576.95
 30
0.0
 10
-537.6851
 20
-576.95
 30
0.0
 10
-537.4128
 20
-576.4795
 30
0.0
 10
-537.0205
 20
-576.0872
 30
0.0
 10
-536.55
 20
-575.8149
 30
0.0
 10
-536.55
 20
-575.8149
 30
0.0
 10
-536.55
 20
-575.8149
 30
0.0
 10
-536.55
 20
-575.4
 30
0.0
 10
-536.55
 20
-575.4
 30
0.0
 10
-536.55
 20
-575.4
 30
0.0
 10
-536.55
 20
-575.4
 30
0.0
 10
-535.0
 20
-575.4
 30
0.0
 10
-535.0
 20
-575.4
 30
0.0
 10
-535.0
 20
-575.4
 30
0.0
 10
-535.0
 20
-575.4
 30
0.0
 10
-533.45
 20
-575.4
 30
0.0
 10
-533.45
 20
-575.4
 30
0.0
 10
-533.45
 20
-575.4
 30
0.0
 10
-533.45
 20
-575.4
 30
0.0
 10
-533.45
 20
-575.8149
 30
0.0
 10
-533.45
 20
-575.8149
 30
0.0
 10
-533.45
 20
-575.8149
 30
0.0
 10
-532.9795
 20
-576.0872
 30
0.0
 10
-532.5872
 20
-576.4795
 30
0.0
 10
-532.3149
 20
-576.95
 30
0.0
 10
-532.3149
 20
-576.95
 30
0.0
 10
-532.3149
 20
-576.95
 30
0.0
 10
-531.9
 20
-576.95
 30
0.0
 10
-531.9
 20
-576.95
 30
0.0
 10
-531.9
 20
-576.95
 30
0.0
 10
-531.9
 20
-576.95
 30
0.0
 10
-531.9
 20
-578.5
 30
0.0
 10
-531.9
 20
-578.5
 30
0.0
 10
-531.9
 20
-578.5
 30
0.0
 10
-531.9
 20
-578.5
 30
0.0
 10
-531.9
 20
-580.05
 30
0.0
 10
-531.9
 20
-580.05
 30
0.0
 10
-531.9
 20
-580.05
 30
0.0
 10
-531.9
 20
-580.05
 30
0.0
 10
-532.3149
 20
-580.05
 30
0.0
 10
-532.3149
 20
-580.05
 30
0.0
 10
-532.3149
 20
-580.05
 30
0.0
 10
-532.5872
 20
-580.5205
 30
0.0
 10
-532.9795
 20
-580.9128
 30
0.0
 10
-533.45
 20
-581.1851
 30
0.0
 10
-533.45
 20
-581.1851
 30
0.0
 10
-533.45
 20
-581.1851
 30
0.0
 10
-533.45
 20
-581.6
 30
0.0
 10
-533.45
 20
-581.6
 30
0.0
 10
-533.45
 20
-581.6
 30
0.0
 10
-533.45
 20
-581.6
 30
0.0
 10
-535.0
 20
-581.6
 30
0.0
 10
-535.0
 20
-581.6
 30
0.0
 10
-535.0
 20
-581.6
 30
0.0
 10
-535.0
 20
-581.6
 30
0.0
 10
-536.55
 20
-581.6
 30
0.0
 10
-536.55
 20
-581.6
 30
0.0
  0
SPLINE
  5
88
330
1F
100
AcDbEntity
  8
LAYER_1
100
AcDbSpline
210
0.0
220
0.0
230
1.0
 70
    11
 71
     3
 72
    84
 73
    80
 74
     0
 42
0.0000000001
 43
0.0000000001
 40
0.0
 40
0.0
 40
0.0
 40
0.0
 40
0.05
 40
0.05
 40
0.05
 40
0.05
 40
0.1
 40
0.1
 40
0.1
 40
0.1
 40
0.15
 40
0.15
 40
0.15
 40
0.15
 40
0.2
 40
0.2
 40
0.2
 40
0.2
 40
0.25
 40
0.25
 40
0.25
 40
0.25
 40
0.3
 40
0.3
 40
0.3
 40
0.3
 40
0.35
 40
0.35
 40
0.35
 40
0.35
 40
0.4
 40
0.4
 40
0.4
 40
0.4
 40
0.45
 40
0.45
 40
0.45
 40
0.45
 40
0.4999999999999999
 40
0.4999999999999999
 40
0.4999999999999999
 40
0.4999999999999999
 40
0.5499999999999999
 40
0.5499999999999999
 40
0.5499999999999999
 40
0.5499999999999999
 40
0.6
 40
0.6
 40
0.6
 40
0.6
 40
0.65
 40
0.65
 40
0.65
 40
0.65
 40
0.7000000000000001
 40
0.7000000000000001
 40
0.7000000000000001
 40
0.7000000000000001
 40
0.7500000000000001
 40
0.7500000000000001
 40
0.7500000000000001
 40
0.7500000000000001
 40
0.8000000000000002
 40
0.8000000000000002
 40
0.8000000000000002
 40
0.8000000000000002
 40
0.8500000000000002
 40
0.8500000000000002
 40
0.8500000000000002
 40
0.8500000000000002
 40
0.9000000000000002
 40
0.9000000000000002
 40
0.9000000000000002
 40
0.9000000000000002
 40
0.9500000000000003
 40
0.9500000000000003
 40
0.9500000000000003
 40
0.9500000000000003
 40
1.0
 40
1.0
 40
1.0
 40
1.0
 10
-516.55
 20
-581.6
 30
0.0
 10
-516.55
 20
-581.6
 30
0.0
 10
-516.55
 20
-581.1851
 30
0.0
 10
-516.55
 20
-581.1851
 30
0.0
 10
-516.55
 20
-581.1851
 30
0.0
 10
-517.0205
 20
-580.9128
 30
0.0
 10
-517.4128
 20
-580.5205
 30
0.0
 10
-517.6851
 20
-580.05
 30
0.0
 10
-517.6851
 20
-580.05
 30
0.0
 10
-517.6851
 20
-580.05
 30
0.0
 10
-518.1
 20
-580.05
 30
0.0
 10
-518.1
 20
-580.05
 30
0.0
 10
-518.1
 20
-580.05
 30
0.0
 10
-518.1
 20
-580.05
 30
0.0
 10
-518.1
 20
-578.5
 30
0.0
 10
-518.1
 20
-578.5
 30
0.0
 10
-518.1
 20
-578.5
 30
0.0
 10
-518.1
 20
-578.5
 30
0.0
 10
-518.1
 20
-576.95
 30
0.0
 10
-518.1
 20
-576.95
 30
0.0
 10
-518.1
 20
-576.95
 30
0.0
 10
-518.1
 20
-576.95
 30
0.0
 10
-517.6851
 20
-576.95
 30
0.0
 10
-517.6851
 20
-576.95
 30
0.0
 10
-517.6851
 20
-576.95
 30
0.0
 10
-517.4128
 20
-576.4795
 30
0.0
 10
-517.0205
 20
-576.0872
 30
0.0
 10
-516.55
 20
-575.8149
 30
0.0
 10
-516.55
 20
-575.8149
 30
0.0
 10
-516.55
 20
-575.8149
 30
0.0
 10
-516.55
 20
-575.4
 30
0.0
 10
-516.55
 20
-575.4
 30
0.0
 10
-516.55
 20
-575.4
 30
0.0
 10
-516.55
 20
-575.4
 30
0.0
 10
-515.0
 20
-575.4
 30
0.0
 10
-515.0
 20
-575.4
 30
0.0
 10
-515.0
 20
-575.4
 30
0.0
 10
-515.0
 20
-575.4
 30
0.0
 10
-513.45
 20
-575.4
 30
0.0
 10
-513.45
 20
-575.4
 30
0.0
 10
-513.45
 20
-575.4
 30
0.0
 10
-513.45
 20
-575.4
 30
0.0
 10
-513.45
 20
-575.8149
 30
0.0
 10
-513.45
 20
-575.8149
 30
0.0
 10
-513.45
 20
-575.8149
 30
0.0
 10
-512.9795
 20
-576.0872
 30
0.0
 10
-512.5872
 20
-576.4795
 30
0.0
 10
-512.3149
 20
-576.95
 30
0.0
 10
-512.3149
 20
-576.95
 30
0.0
 10
-512.3149
 20
-576.95
 30
0.0
 10
-511.9
 20
-576.95
 30
0.0
 10
-511.9
 20
-576.95
 30
0.0
 10
-511.9
 20
-576.95
 30
0.0
 10
-511.9
 20
-576.95
 30
0.0
 10
-511.9
 20
-578.5
 30
0.0
 10
-511.9
 20
-578.5
 30
0.0
 10
-511.9
 20
-578.5
 30
0.0
 10
-511.9
 20
-578.5
 30
0.0
 10
-511.9
 20
-580.05
 30
0.0
 10
-511.9
 20
-580.05
 30
0.0
 10
-511.9
 20
-580.05
 30
0.0
 10
-511.9
 20
-580.05
 30
0.0
 10
-512.3149
 20
-580.05
 30
0.0
 10
-512.3149
 20
-580.05
 30
0.0
 10
-512.3149
 20
-580.05
 30
0.0
 10
-512.5872
 20
-580.5205
 30
0.0
 10
-512.9795
 20
-580.9128
 30
0.0
 10
-513.45
 20
-581.1851
 30
0.0
 10
-513.45
 20
-581.1851
 30
0.0
 10
-513.45
 20
-581.1851
 30
0.0
 10
-513.45
 20
-581.6
 30
0.0
 10
-513.45
 20
-581.6
 30
0.0
 10
-513.45
 20
-581.6
 30
0.0
 10
-513.45
 20
-581.6
 30
0.0
 10
-515.0
 20
-581.6
 30
0.0
 10
-515.0
 20
-581.6
 30
0.0
 10
-515.0
 20
-581.6
 30
0.0
 10
-515.0
 20
-581.6
 30
0.0
 10
-516.55
 20
-581.6
 30
0.0
 10
-516.55
 20
-581.6
 30
0.0
  0
SPLINE
  5
89
330
1F
100
AcDbEntity
  8
LAYER_1
100
AcDbSpline
210
0.0
220
0.0
230
1.0
 70
    11
 71
     3
 72
    84
 73
    80
 74
     0
 42
0.0000000001
 43
0.0000000001
 40
0.0
 40
0.0
 40
0.0
 40
0.0
 40
0.05
 40
0.05
 40
0.05
 40
0.05
 40
0.1
 40
0.1
 40
0.1
 40
0.1
 40
0.15
 40
0.15
 40
0.15
 40
0.15
 40
0.2
 40
0.2
 40
0.2
 40
0.2
 40
0.25
 40
0.25
 40
0.25
 40
0.25
 40
0.3
 40
0.3
 40
0.3
 40
0.3
 40
0.35
 40
0.35
 40
0.35
 40
0.35
 40
0.4
 40
0.4
 40
0.4
 40
0.4
 40
0.45
 40
0.45
 40
0.45
 40
0.45
 40
0.4999999999999999
 40
0.4999999999999999
 40
0.4999999999999999
 40
0.4999999999999999
 40
0.5499999999999999
 40
0.5499999999999999
 40
0.5499999999999999
 40
0.5499999999999999
 40
0.6
 40
0.6
 40
0.6
 40
0.6
 40
0.65
 40
0.65
 40
0.65
 40
0.65
 40
0.7000000000000001
 40
0.7000000000000001
 40
0.7000000000000001
 40
0.7000000000000001
 40
0.7500000000000001
 40
0.7500000000000001
 40
0.7500000000000001
 40
0.7500000000000001
 40
0.8000000000000002
 40
0.8000000000000002
 40
0.8000000000000002
 40
0.8000000000000002
 40
0.8500000000000002
 40
0.8500000000000002
 40
0.8500000000000002
 40
0.8500000000000002
 40
0.9000000000000002
 40
0.9000000000000002
 40
0.9000000000000002
 40
0.9000000000000002
 40
0.9500000000000003
 40
0.9500000000000003
 40
0.9500000000000003
 40
0.9500000000000003
 40
1.0
 40
1.0
 40
1.0
 40
1.0
 10
-496.55
 20
-581.6
 30
0.0
 10
-496.55
 20
-581.6
 30
0.0
 10
-496.55
 20
-581.1851
 30
0.0
 10
-496.55
 20
-581.1851
 30
0.0
 10
-496.55
 20
-581.1851
 30
0.0
 10
-497.0205
 20
-580.9128
 30
0.0
 10
-497.4128
 20
-580.5205
 30
0.0
 10
-497.6851
 20
-580.05
 30
0.0
 10
-497.6851
 20
-580.05
 30
0.0
 10
-497.6851
 20
-580.05
 30
0.0
 10
-498.1
 20
-580.05
 30
0.0
 10
-498.1
 20
-580.05
 30
0.0
 10
-498.1
 20
-580.05
 30
0.0
 10
-498.1
 20
-580.05
 30
0.0
 10
-498.1
 20
-578.5
 30
0.0
 10
-498.1
 20
-578.5
 30
0.0
 10
-498.1
 20
-578.5
 30
0.0
 10
-498.1
 20
-578.5
 30
0.0
 10
-498.1
 20
-576.95
 30
0.0
 10
-498.1
 20
-576.95
 30
0.0
 10
-498.1
 20
-576.95
 30
0.0
 10
-498.1
 20
-576.95
 30
0.0
 10
-497.6851
 20
-576.95
 30
0.0
 10
-497.6851
 20
-576.95
 30
0.0
 10
-497.6851
 20
-576.95
 30
0.0
 10
-497.4128
 20
-576.4795
 30
0.0
 10
-497.0205
 20
-576.0872
 30
0.0
 10
-496.55
 20
-575.8149
 30
0.0
 10
-496.55
 20
-575.8149
 30
0.0
 10
-496.55
 20
-575.8149
 30
0.0
 10
-496.55
 20
-575.4
 30
0.0
 10
-496.55
 20
-575.4
 30
0.0
 10
-496.55
 20
-575.4
 30
0.0
 10
-496.55
 20
-575.4
 30
0.0
 10
-495.0
 20
-575.4
 30
0.0
 10
-495.0
 20
-575.4
 30
0.0
 10
-495.0
 20
-575.4
 30
0.0
 10
-495.0
 20
-575.4
 30
0.0
 10
-493.45
 20
-575.4
 30
0.0
 10
-493.45
 20
-575.4
 30
0.0
 10
-493.45
 20
-575.4
 30
0.0
 10
-493.45
 20
-575.4
 30
0.0
 10
-493.45
 20
-575.8149
 30
0.0
 10
-493.45
 20
-575.8149
 30
0.0
 10
-493.45
 20
-575.8149
 30
0.0
 10
-492.9795
 20
-576.0872
 30
0.0
 10
-492.5872
 20
-576.4795
 30
0.0
 10
-492.3149
 20
-576.95
 30
0.0
 10
-492.3149
 20
-576.95
 30
0.0
 10
-492.3149
 20
-576.95
 30
0.0
 10
-491.9
 20
-576.95
 30
0.0
 10
-491.9
 20
-576.95
 30
0.0
 10
-491.9
 20
-576.95
 30
0.0
 10
-491.9
 20
-576.95
 30
0.0
 10
-491.9
 20
-578.5
 30
0.0
 10
-491.9
 20
-578.5
 30
0.0
 10
-491.9
 20
-578.5
 30
0.0
 10
-491.9
 20
-578.5
 30
0.0
 10
-491.9
 20
-580.05
 30
0.0
 10
-491.9
 20
-580.05
 30
0.0
 10
-491.9
 20
-580.05
 30
0.0
 10
-491.9
 20
-580.05
 30
0.0
 10
-492.3149
 20
-580.05
 30
0.0
 10
-492.3149
 20
-580.05
 30
0.0
 10
-492.3149
 20
-580.05
 30
0.0
 10
-492.5872
 20
-580.5205
 30
0.0
 10
-492.9795
 20
-580.9128
 30
0.0
 10
-493.45
 20
-581.1851
 30
0.0
 10
-493.45
 20
-581.1851
 30
0.0
 10
-493.45
 20
-581.1851
 30
0.0
 10
-493.45
 20
-581.6
 30
0.0
 10
-493.45
 20
-581.6
 30
0.0
 10
-493.45
 20
-581.6
 30
0.0
 10
-493.45
 20
-581.6
 30
0.0
 10
-495.0
 20
-581.6
 30
0.0
 10
-495.0
 20
-581.6
 30
0.0
 10
-495.0
 20
-581.6
 30
0.0
 10
-495.0
 20
-581.6
 30
0.0
 10
-496.55
 20
-581.6
 30
0.0
 10
-496.55
 20
-581.6
 30
0.0
  0
SPLINE
  5
8A
330
1F
100
AcDbEntity
  8
LAYER_1
100
AcDbSpline
210
0.0
220
0.0
230
1.0
 70
    11
 71
     3
 72
    84
 73
    80
 74
     0
 42
0.0000000001
 43
0.0000000001
 40
0.0
 40
0.0
 40
0.0
 40
0.0
 40
0.05
 40
0.05
 40
0.05
 40
0.05
 40
0.1
 40
0.1
 40
0.1
 40
0.1
 40
0.15
 40
0.15
 40
0.15
 40
0.15
 40
0.2
 40
0.2
 40
0.2
 40
0.2
 40
0.25
 40
0.25
 40
0.25
 40
0.25
 40
0.3
 40
0.3
 40
0.3
 40
0.3
 40
0.35
 40
0.35
 40
0.35
 40
0.35
 40
0.4
 40
0.4
 40
0.4
 40
0.4
 40
0.45
 40
0.45
 40
0.45
 40
0.45
 40
0.4999999999999999
 40
0.4999999999999999
 40
0.4999999999999999
 40
0.4999999999999999
 40
0.5499999999999999
 40
0.5499999999999999
 40
0.5499999999999999
 40
0.5499999999999999
 40
0.6
 40
0.6
 40
0.6
 40
0.6
 40
0.65
 40
0.65
 40
0.65
 40
0.65
 40
0.7000000000000001
 40
0.7000000000000001
 40
0.7000000000000001
 40
0.7000000000000001
 40
0.7500000000000001
 40
0.7500000000000001
 40
0.7500000000000001
 40
0.7500000000000001
 40
0.8000000000000002
 40
0.8000000000000002
 40
0.8000000000000002
 40
0.8000000000000002
 40
0.8500000000000002
 40
0.8500000000000002
 40
0.8500000000000002
 40
0.8500000000000002
 40
0.9000000000000002
 40
0.9000000000000002
 40
0.9000000000000002
 40
0.9000000000000002
 40
0.9500000000000003
 40
0.9500000000000003
 40
0.9500000000000003
 40
0.9500000000000003
 40
1.0
 40
1.0
 40
1.0
 40
1.0
 10
-476.55
 20
-581.6
 30
0.0
 10
-476.55
 20
-581.6
 30
0.0
 10
-476.55
 20
-581.1851
 30
0.0
 10
-476.55
 20
-581.1851
 30
0.0
 10
-476.55
 20
-581.1851
 30
0.0
 10
-477.0205
 20
-580.9128
 30
0.0
 10
-477.4128
 20
-580.5205
 30
0.0
 10
-477.6851
 20
-580.05
 30
0.0
 10
-477.6851
 20
-580.05
 30
0.0
 10
-477.6851
 20
-580.05
 30
0.0
 10
-478.1
 20
-580.05
 30
0.0
 10
-478.1
 20
-580.05
 30
0.0
 10
-478.1
 20
-580.05
 30
0.0
 10
-478.1
 20
-580.05
 30
0.0
 10
-478.1
 20
-578.5
 30
0.0
 10
-478.1
 20
-578.5
 30
0.0
 10
-478.1
 20
-578.5
 30
0.0
 10
-478.1
 20
-578.5
 30
0.0
 10
-478.1
 20
-576.95
 30
0.0
 10
-478.1
 20
-576.95
 30
0.0
 10
-478.1
 20
-576.95
 30
0.0
 10
-478.1
 20
-576.95
 30
0.0
 10
-477.6851
 20
-576.95
 30
0.0
 10
-477.6851
 20
-576.95
 30
0.0
 10
-477.6851
 20
-576.95
 30
0.0
 10
-477.4128
 20
-576.4795
 30
0.0
 10
-477.0205
 20
-576.0872
 30
0.0
 10
-476.55
 20
-575.8149
 30
0.0
 10
-476.55
 20
-575.8149
 30
0.0
 10
-476.55
 20
-575.8149
 30
0.0
 10
-476.55
 20
-575.4
 30
0.0
 10
-476.55
 20
-575.4
 30
0.0
 10
-476.55
 20
-575.4
 30
0.0
 10
-476.55
 20
-575.4
 30
0.0
 10
-475.0
 20
-575.4
 30
0.0
 10
-475.0
 20
-575.4
 30
0.0
 10
-475.0
 20
-575.4
 30
0.0
 10
-475.0
 20
-575.4
 30
0.0
 10
-473.45
 20
-575.4
 30
0.0
 10
-473.45
 20
-575.4
 30
0.0
 10
-473.45
 20
-575.4
 30
0.0
 10
-473.45
 20
-575.4
 30
0.0
 10
-473.45
 20
-575.8149
 30
0.0
 10
-473.45
 20
-575.8149
 30
0.0
 10
-473.45
 20
-575.8149
 30
0.0
 10
-472.9795
 20
-576.0872
 30
0.0
 10
-472.5872
 20
-576.4795
 30
0.0
 10
-472.3149
 20
-576.95
 30
0.0
 10
-472.3149
 20
-576.95
 30
0.0
 10
-472.3149
 20
-576.95
 30
0.0
 10
-471.9
 20
-576.95
 30
0.0
 10
-471.9
 20
-576.95
 30
0.0
 10
-471.9
 20
-576.95
 30
0.0
 10
-471.9
 20
-576.95
 30
0.0
 10
-471.9
 20
-578.5
 30
0.0
 10
-471.9
 20
-578.5
 30
0.0
 10
-471.9
 20
-578.5
 30
0.0
 10
-471.9
 20
-578.5
 30
0.0
 10
-471.9
 20
-580.05
 30
0.0
 10
-471.9
 20
-580.05
 30
0.0
 10
-471.9
 20
-580.05
 30
0.0
 10
-471.9
 20
-580.05
 30
0.0
 10
-472.3149
 20
-580.05
 30
0.0
 10
-472.3149
 20
-580.05
 30
0.0
 10
-472.3149
 20
-580.05
 30
0.0
 10
-472.5872
 20
-580.5205
 30
0.0
 10
-472.9795
 20
-580.9128
 30
0.0
 10
-473.45
 20
-581.1851
 30
0.0
 10
-473.45
 20
-581.1851
 30
0.0
 10
-473.45
 20
-581.1851
 30
0.0
 10
-473.45
 20
-581.6
 30
0.0
 10
-473.45
 20
-581.6
 30
0.0
 10
-473.45
 20
-581.6
 30
0.0
 10
-473.45
 20
-581.6
 30
0.0
 10
-475.0
 20
-581.6
 30
0.0
 10
-475.0
 20
-581.6
 30
0.0
 10
-475.0
 20
-581.6
 30
0.0
 10
-475.0
 20
-581.6
 30
0.0
 10
-476.55
 20
-581.6
 30
0.0
 10
-476.55
 20
-581.6
 30
0.0
  0
SPLINE
  5
8B
330
1F
100
AcDbEntity
  8
LAYER_1
100
AcDbSpline
210
0.0
220
0.0
230
1.0
 70
    11
 71
     3
 72
    84
 73
    80
 74
     0
 42
0.0000000001
 43
0.0000000001
 40
0.0
 40
0.0
 40
0.0
 40
0.0
 40
0.05
 40
0.05
 40
0.05
 40
0.05
 40
0.1
 40
0.1
 40
0.1
 40
0.1
 40
0.15
 40
0.15
 40
0.15
 40
0.15
 40
0.2
 40
0.2
 40
0.2
 40
0.2
 40
0.25
 40
0.25
 40
0.25
 40
0.25
 40
0.3
 40
0.3
 40
0.3
 40
0.3
 40
0.35
 40
0.35
 40
0.35
 40
0.35
 40
0.4
 40
0.4
 40
0.4
 40
0.4
 40
0.45
 40
0.45
 40
0.45
 40
0.45
 40
0.4999999999999999
 40
0.4999999999999999
 40
0.4999999999999999
 40
0.4999999999999999
 40
0.5499999999999999
 40
0.5499999999999999
 40
0.5499999999999999
 40
0.5499999999999999
 40
0.6
 40
0.6
 40
0.6
 40
0.6
 40
0.65
 40
0.65
 40
0.65
 40
0.65
 40
0.7000000000000001
 40
0.7000000000000001
 40
0.7000000000000001
 40
0.7000000000000001
 40
0.7500000000000001
 40
0.7500000000000001
 40
0.7500000000000001
 40
0.7500000000000001
 40
0.8000000000000002
 40
0.8000000000000002
 40
0.8000000000000002
 40
0.8000000000000002
 40
0.8500000000000002
 40
0.8500000000000002
 40
0.8500000000000002
 40
0.8500000000000002
 40
0.9000000000000002
 40
0.9000000000000002
 40
0.9000000000000002
 40
0.9000000000000002
 40
0.9500000000000003
 40
0.9500000000000003
 40
0.9500000000000003
 40
0.9500000000000003
 40
1.0
 40
1.0
 40
1.0
 40
1.0
 10
-456.55
 20
-581.6
 30
0.0
 10
-456.55
 20
-581.6
 30
0.0
 10
-456.55
 20
-581.1851
 30
0.0
 10
-456.55
 20
-581.1851
 30
0.0
 10
-456.55
 20
-581.1851
 30
0.0
 10
-457.0205
 20
-580.9128
 30
0.0
 10
-457.4128
 20
-580.5205
 30
0.0
 10
-457.6851
 20
-580.05
 30
0.0
 10
-457.6851
 20
-580.05
 30
0.0
 10
-457.6851
 20
-580.05
 30
0.0
 10
-458.1
 20
-580.05
 30
0.0
 10
-458.1
 20
-580.05
 30
0.0
 10
-458.1
 20
-580.05
 30
0.0
 10
-458.1
 20
-580.05
 30
0.0
 10
-458.1
 20
-578.5
 30
0.0
 10
-458.1
 20
-578.5
 30
0.0
 10
-458.1
 20
-578.5
 30
0.0
 10
-458.1
 20
-578.5
 30
0.0
 10
-458.1
 20
-576.95
 30
0.0
 10
-458.1
 20
-576.95
 30
0.0
 10
-458.1
 20
-576.95
 30
0.0
 10
-458.1
 20
-576.95
 30
0.0
 10
-457.6851
 20
-576.95
 30
0.0
 10
-457.6851
 20
-576.95
 30
0.0
 10
-457.6851
 20
-576.95
 30
0.0
 10
-457.4128
 20
-576.4795
 30
0.0
 10
-457.0205
 20
-576.0872
 30
0.0
 10
-456.55
 20
-575.8149
 30
0.0
 10
-456.55
 20
-575.8149
 30
0.0
 10
-456.55
 20
-575.8149
 30
0.0
 10
-456.55
 20
-575.4
 30
0.0
 10
-456.55
 20
-575.4
 30
0.0
 10
-456.55
 20
-575.4
 30
0.0
 10
-456.55
 20
-575.4
 30
0.0
 10
-455.0
 20
-575.4
 30
0.0
 10
-455.0
 20
-575.4
 30
0.0
 10
-455.0
 20
-575.4
 30
0.0
 10
-455.0
 20
-575.4
 30
0.0
 10
-453.45
 20
-575.4
 30
0.0
 10
-453.45
 20
-575.4
 30
0.0
 10
-453.45
 20
-575.4
 30
0.0
 10
-453.45
 20
-575.4
 30
0.0
 10
-453.45
 20
-575.8149
 30
0.0
 10
-453.45
 20
-575.8149
 30
0.0
 10
-453.45
 20
-575.8149
 30
0.0
 10
-452.9795
 20
-576.0872
 30
0.0
 10
-452.5872
 20
-576.4795
 30
0.0
 10
-452.3149
 20
-576.95
 30
0.0
 10
-452.3149
 20
-576.95
 30
0.0
 10
-452.3149
 20
-576.95
 30
0.0
 10
-451.9
 20
-576.95
 30
0.0
 10
-451.9
 20
-576.95
 30
0.0
 10
-451.9
 20
-576.95
 30
0.0
 10
-451.9
 20
-576.95
 30
0.0
 10
-451.9
 20
-578.5
 30
0.0
 10
-451.9
 20
-578.5
 30
0.0
 10
-451.9
 20
-578.5
 30
0.0
 10
-451.9
 20
-578.5
 30
0.0
 10
-451.9
 20
-580.05
 30
0.0
 10
-451.9
 20
-580.05
 30
0.0
 10
-451.9
 20
-580.05
 30
0.0
 10
-451.9
 20
-580.05
 30
0.0
 10
-452.3149
 20
-580.05
 30
0.0
 10
-452.3149
 20
-580.05
 30
0.0
 10
-452.3149
 20
-580.05
 30
0.0
 10
-452.5872
 20
-580.5205
 30
0.0
 10
-452.9795
 20
-580.9128
 30
0.0
 10
-453.45
 20
-581.1851
 30
0.0
 10
-453.45
 20
-581.1851
 30
0.0
 10
-453.45
 20
-581.1851
 30
0.0
 10
-453.45
 20
-581.6
 30
0.0
 10
-453.45
 20
-581.6
 30
0.0
 10
-453.45
 20
-581.6
 30
0.0
 10
-453.45
 20
-581.6
 30
0.0
 10
-455.0
 20
-581.6
 30
0.0
 10
-455.0
 20
-581.6
 30
0.0
 10
-455.0
 20
-581.6
 30
0.0
 10
-455.0
 20
-581.6
 30
0.0
 10
-456.55
 20
-581.6
 30
0.0
 10
-456.55
 20
-581.6
 30
0.0
  0
SPLINE
  5
8C
330
1F
100
AcDbEntity
  8
LAYER_1
100
AcDbSpline
210
0.0
220
0.0
230
1.0
 70
    11
 71
     3
 72
    84
 73
    80
 74
     0
 42
0.0000000001
 43
0.0000000001
 40
0.0
 40
0.0
 40
0.0
 40
0.0
 40
0.05
 40
0.05
 40
0.05
 40
0.05
 40
0.1
 40
0.1
 40
0.1
 40
0.1
 40
0.15
 40
0.15
 40
0.15
 40
0.15
 40
0.2
 40
0.2
 40
0.2
 40
0.2
 40
0.25
 40
0.25
 40
0.25
 40
0.25
 40
0.3
 40
0.3
 40
0.3
 40
0.3
 40
0.35
 40
0.35
 40
0.35
 40
0.35
 40
0.4
 40
0.4
 40
0.4
 40
0.4
 40
0.45
 40
0.45
 40
0.45
 40
0.45
 40
0.4999999999999999
 40
0.4999999999999999
 40
0.4999999999999999
 40
0.4999999999999999
 40
0.5499999999999999
 40
0.5499999999999999
 40
0.5499999999999999
 40
0.5499999999999999
 40
0.6
 40
0.6
 40
0.6
 40
0.6
 40
0.65
 40
0.65
 40
0.65
 40
0.65
 40
0.7000000000000001
 40
0.7000000000000001
 40
0.7000000000000001
 40
0.7000000000000001
 40
0.7500000000000001
 40
0.7500000000000001
 40
0.7500000000000001
 40
0.7500000000000001
 40
0.8000000000000002
 40
0.8000000000000002
 40
0.8000000000000002
 40
0.8000000000000002
 40
0.8500000000000002
 40
0.8500000000000002
 40
0.8500000000000002
 40
0.8500000000000002
 40
0.9000000000000002
 40
0.9000000000000002
 40
0.9000000000000002
 40
0.9000000000000002
 40
0.9500000000000003
 40
0.9500000000000003
 40
0.9500000000000003
 40
0.9500000000000003
 40
1.0
 40
1.0
 40
1.0
 40
1.0
 10
-456.55
 20
-621.6
 30
0.0
 10
-456.55
 20
-621.6
 30
0.0
 10
-456.55
 20
-621.1851
 30
0.0
 10
-456.55
 20
-621.1851
 30
0.0
 10
-456.55
 20
-621.1851
 30
0.0
 10
-457.0205
 20
-620.9128
 30
0.0
 10
-457.4128
 20
-620.5205
 30
0.0
 10
-457.6851
 20
-620.05
 30
0.0
 10
-457.6851
 20
-620.05
 30
0.0
 10
-457.6851
 20
-620.05
 30
0.0
 10
-458.1
 20
-620.05
 30
0.0
 10
-458.1
 20
-620.05
 30
0.0
 10
-458.1
 20
-620.05
 30
0.0
 10
-458.1
 20
-620.05
 30
0.0
 10
-458.1
 20
-618.5
 30
0.0
 10
-458.1
 20
-618.5
 30
0.0
 10
-458.1
 20
-618.5
 30
0.0
 10
-458.1
 20
-618.5
 30
0.0
 10
-458.1
 20
-616.95
 30
0.0
 10
-458.1
 20
-616.95
 30
0.0
 10
-458.1
 20
-616.95
 30
0.0
 10
-458.1
 20
-616.95
 30
0.0
 10
-457.6851
 20
-616.95
 30
0.0
 10
-457.6851
 20
-616.95
 30
0.0
 10
-457.6851
 20
-616.95
 30
0.0
 10
-457.4128
 20
-616.4795
 30
0.0
 10
-457.0205
 20
-616.0872
 30
0.0
 10
-456.55
 20
-615.8149
 30
0.0
 10
-456.55
 20
-615.8149
 30
0.0
 10
-456.55
 20
-615.8149
 30
0.0
 10
-456.55
 20
-615.4
 30
0.0
 10
-456.55
 20
-615.4
 30
0.0
 10
-456.55
 20
-615.4
 30
0.0
 10
-456.55
 20
-615.4
 30
0.0
 10
-455.0
 20
-615.4
 30
0.0
 10
-455.0
 20
-615.4
 30
0.0
 10
-455.0
 20
-615.4
 30
0.0
 10
-455.0
 20
-615.4
 30
0.0
 10
-453.45
 20
-615.4
 30
0.0
 10
-453.45
 20
-615.4
 30
0.0
 10
-453.45
 20
-615.4
 30
0.0
 10
-453.45
 20
-615.4
 30
0.0
 10
-453.45
 20
-615.8149
 30
0.0
 10
-453.45
 20
-615.8149
 30
0.0
 10
-453.45
 20
-615.8149
 30
0.0
 10
-452.9795
 20
-616.0872
 30
0.0
 10
-452.5872
 20
-616.4795
 30
0.0
 10
-452.3149
 20
-616.95
 30
0.0
 10
-452.3149
 20
-616.95
 30
0.0
 10
-452.3149
 20
-616.95
 30
0.0
 10
-451.9
 20
-616.95
 30
0.0
 10
-451.9
 20
-616.95
 30
0.0
 10
-451.9
 20
-616.95
 30
0.0
 10
-451.9
 20
-616.95
 30
0.0
 10
-451.9
 20
-618.5
 30
0.0
 10
-451.9
 20
-618.5
 30
0.0
 10
-451.9
 20
-618.5
 30
0.0
 10
-451.9
 20
-618.5
 30
0.0
 10
-451.9
 20
-620.05
 30
0.0
 10
-451.9
 20
-620.05
 30
0.0
 10
-451.9
 20
-620.05
 30
0.0
 10
-451.9
 20
-620.05
 30
0.0
 10
-452.3149
 20
-620.05
 30
0.0
 10
-452.3149
 20
-620.05
 30
0.0
 10
-452.3149
 20
-620.05
 30
0.0
 10
-452.5872
 20
-620.5205
 30
0.0
 10
-452.9795
 20
-620.9128
 30
0.0
 10
-453.45
 20
-621.1851
 30
0.0
 10
-453.45
 20
-621.1851
 30
0.0
 10
-453.45
 20
-621.1851
 30
0.0
 10
-453.45
 20
-621.6
 30
0.0
 10
-453.45
 20
-621.6
 30
0.0
 10
-453.45
 20
-621.6
 30
0.0
 10
-453.45
 20
-621.6
 30
0.0
 10
-455.0
 20
-621.6
 30
0.0
 10
-455.0
 20
-621.6
 30
0.0
 10
-455.0
 20
-621.6
 30
0.0
 10
-455.0
 20
-621.6
 30
0.0
 10
-456.55
 20
-621.6
 30
0.0
 10
-456.55
 20
-621.6
 30
0.0
  0
SPLINE
  5
8D
330
1F
100
AcDbEntity
  8
LAYER_1
100
AcDbSpline
210
0.0
220
0.0
230
1.0
 70
    11
 71
     3
 72
    84
 73
    80
 74
     0
 42
0.0000000001
 43
0.0000000001
 40
0.0
 40
0.0
 40
0.0
 40
0.0
 40
0.05
 40
0.05
 40
0.05
 40
0.05
 40
0.1
 40
0.1
 40
0.1
 40
0.1
 40
0.15
 40
0.15
 40
0.15
 40
0.15
 40
0.2
 40
0.2
 40
0.2
 40
0.2
 40
0.25
 40
0.25
 40
0.25
 40
0.25
 40
0.3
 40
0.3
 40
0.3
 40
0.3
 40
0.35
 40
0.35
 40
0.35
 40
0.35
 40
0.4
 40
0.4
 40
0.4
 40
0.4
 40
0.45
 40
0.45
 40
0.45
 40
0.45
 40
0.4999999999999999
 40
0.4999999999999999
 40
0.4999999999999999
 40
0.4999999999999999
 40
0.5499999999999999
 40
0.5499999999999999
 40
0.5499999999999999
 40
0.5499999999999999
 40
0.6
 40
0.6
 40
0.6
 40
0.6
 40
0.65
 40
0.65
 40
0.65
 40
0.65
 40
0.7000000000000001
 40
0.7000000000000001
 40
0.7000000000000001
 40
0.7000000000000001
 40
0.7500000000000001
 40
0.7500000000000001
 40
0.7500000000000001
 40
0.7500000000000001
 40
0.8000000000000002
 40
0.8000000000000002
 40
0.8000000000000002
 40
0.8000000000000002
 40
0.8500000000000002
 40
0.8500000000000002
 40
0.8500000000000002
 40
0.8500000000000002
 40
0.9000000000000002
 40
0.9000000000000002
 40
0.9000000000000002
 40
0.9000000000000002
 40
0.9500000000000003
 40
0.9500000000000003
 40
0.9500000000000003
 40
0.9500000000000003
 40
1.0
 40
1.0
 40
1.0
 40
1.0
 10
-556.55
 20
-621.6
 30
0.0
 10
-556.55
 20
-621.6
 30
0.0
 10
-556.55
 20
-621.1851
 30
0.0
 10
-556.55
 20
-621.1851
 30
0.0
 10
-556.55
 20
-621.1851
 30
0.0
 10
-557.0205
 20
-620.9128
 30
0.0
 10
-557.4128
 20
-620.5205
 30
0.0
 10
-557.6851
 20
-620.05
 30
0.0
 10
-557.6851
 20
-620.05
 30
0.0
 10
-557.6851
 20
-620.05
 30
0.0
 10
-558.1
 20
-620.05
 30
0.0
 10
-558.1
 20
-620.05
 30
0.0
 10
-558.1
 20
-620.05
 30
0.0
 10
-558.1
 20
-620.05
 30
0.0
 10
-558.1
 20
-618.5
 30
0.0
 10
-558.1
 20
-618.5
 30
0.0
 10
-558.1
 20
-618.5
 30
0.0
 10
-558.1
 20
-618.5
 30
0.0
 10
-558.1
 20
-616.95
 30
0.0
 10
-558.1
 20
-616.95
 30
0.0
 10
-558.1
 20
-616.95
 30
0.0
 10
-558.1
 20
-616.95
 30
0.0
 10
-557.6851
 20
-616.95
 30
0.0
 10
-557.6851
 20
-616.95
 30
0.0
 10
-557.6851
 20
-616.95
 30
0.0
 10
-557.4128
 20
-616.4795
 30
0.0
 10
-557.0205
 20
-616.0872
 30
0.0
 10
-556.55
 20
-615.8149
 30
0.0
 10
-556.55
 20
-615.8149
 30
0.0
 10
-556.55
 20
-615.8149
 30
0.0
 10
-556.55
 20
-615.4
 30
0.0
 10
-556.55
 20
-615.4
 30
0.0
 10
-556.55
 20
-615.4
 30
0.0
 10
-556.55
 20
-615.4
 30
0.0
 10
-555.0
 20
-615.4
 30
0.0
 10
-555.0
 20
-615.4
 30
0.0
 10
-555.0
 20
-615.4
 30
0.0
 10
-555.0
 20
-615.4
 30
0.0
 10
-553.45
 20
-615.4
 30
0.0
 10
-553.45
 20
-615.4
 30
0.0
 10
-553.45
 20
-615.4
 30
0.0
 10
-553.45
 20
-615.4
 30
0.0
 10
-553.45
 20
-615.8149
 30
0.0
 10
-553.45
 20
-615.8149
 30
0.0
 10
-553.45
 20
-615.8149
 30
0.0
 10
-552.9795
 20
-616.0872
 30
0.0
 10
-552.5872
 20
-616.4795
 30
0.0
 10
-552.3149
 20
-616.95
 30
0.0
 10
-552.3149
 20
-616.95
 30
0.0
 10
-552.3149
 20
-616.95
 30
0.0
 10
-551.9
 20
-616.95
 30
0.0
 10
-551.9
 20
-616.95
 30
0.0
 10
-551.9
 20
-616.95
 30
0.0
 10
-551.9
 20
-616.95
 30
0.0
 10
-551.9
 20
-618.5
 30
0.0
 10
-551.9
 20
-618.5
 30
0.0
 10
-551.9
 20
-618.5
 30
0.0
 10
-551.9
 20
-618.5
 30
0.0
 10
-551.9
 20
-620.05
 30
0.0
 10
-551.9
 20
-620.05
 30
0.0
 10
-551.9
 20
-620.05
 30
0.0
 10
-551.9
 20
-620.05
 30
0.0
 10
-552.3149
 20
-620.05
 30
0.0
 10
-552.3149
 20
-620.05
 30
0.0
 10
-552.3149
 20
-620.05
 30
0.0
 10
-552.5872
 20
-620.5205
 30
0.0
 10
-552.9795
 20
-620.9128
 30
0.0
 10
-553.45
 20
-621.1851
 30
0.0
 10
-553.45
 20
-621.1851
 30
0.0
 10
-553.45
 20
-621.1851
 30
0.0
 10
-553.45
 20
-621.6
 30
0.0
 10
-553.45
 20
-621.6
 30
0.0
 10
-553.45
 20
-621.6
 30
0.0
 10
-553.45
 20
-621.6
 30
0.0
 10
-555.0
 20
-621.6
 30
0.0
 10
-555.0
 20
-621.6
 30
0.0
 10
-555.0
 20
-621.6
 30
0.0
 10
-555.0
 20
-621.6
 30
0.0
 10
-556.55
 20
-621.6
 30
0.0
 10
-556.55
 20
-621.6
 30
0.0
  0
LWPOLYLINE
  5
8E
330
1F
100
AcDbEntity
  8
LAYER_1
100
AcDbPolyline
 90
        5
 70
     1
 43
0.0
 10
-528.2
 20
-580.1
 10
-521.8
 20
-580.1
 10
-521.8
 20
-576.9
 10
-528.2
 20
-576.9
 10
-528.2
 20
-580.1
  0
LWPOLYLINE
  5
8F
330
1F
100
AcDbEntity
  8
LAYER_1
100
AcDbPolyline
 90
        5
 70
     1
 43
0.0
 10
-508.2
 20
-580.1
 10
-501.8
 20
-580.1
 10
-501.8
 20
-576.9
 10
-508.2
 20
-576.9
 10
-508.2
 20
-580.1
  0
LWPOLYLINE
  5
90
330
1F
100
AcDbEntity
  8
LAYER_1
100
AcDbPolyline
 90
        5
 70
     1
 43
0.0
 10
-488.2
 20
-580.1
 10
-481.8
 20
-580.1
 10
-481.8
 20
-576.9
 10
-488.2
 20
-576.9
 10
-488.2
 20
-580.1
  0
LWPOLYLINE
  5
91
330
1F
100
AcDbEntity
  8
LAYER_1
100
AcDbPolyline
 90
        5
 70
     1
 43
0.0
 10
-468.2
 20
-580.1
 10
-461.8
 20
-580.1
 10
-461.8
 20
-576.9
 10
-468.2
 20
-576.9
 10
-468.2
 20
-580.1
  0
SPLINE
  5
92
330
1F
100
AcDbEntity
  8
LAYER_1
100
AcDbSpline
210
0.0
220
0.0
230
1.0
 70
    11
 71
     3
 72
    52
 73
    48
 74
     0
 42
0.0000000001
 43
0.0000000001
 40
0.0
 40
0.0
 40
0.0
 40
0.0
 40
0.0833333333333333
 40
0.0833333333333333
 40
0.0833333333333333
 40
0.0833333333333333
 40
0.1666666666666667
 40
0.1666666666666667
 40
0.1666666666666667
 40
0.1666666666666667
 40
0.25
 40
0.25
 40
0.25
 40
0.25
 40
0.3333333333333333
 40
0.3333333333333333
 40
0.3333333333333333
 40
0.3333333333333333
 40
0.4166666666666666
 40
0.4166666666666666
 40
0.4166666666666666
 40
0.4166666666666666
 40
0.4999999999999999
 40
0.4999999999999999
 40
0.4999999999999999
 40
0.4999999999999999
 40
0.5833333333333333
 40
0.5833333333333333
 40
0.5833333333333333
 40
0.5833333333333333
 40
0.6666666666666666
 40
0.6666666666666666
 40
0.6666666666666666
 40
0.6666666666666666
 40
0.75
 40
0.75
 40
0.75
 40
0.75
 40
0.8333333333333334
 40
0.8333333333333334
 40
0.8333333333333334
 40
0.8333333333333334
 40
0.9166666666666667
 40
0.9166666666666667
 40
0.9166666666666667
 40
0.9166666666666667
 40
1.0
 40
1.0
 40
1.0
 40
1.0
 10
-545.9064
 20
-616.5
 30
0.0
 10
-545.9064
 20
-616.5
 30
0.0
 10
-545.0548
 20
-615.025
 30
0.0
 10
-545.0548
 20
-615.025
 30
0.0
 10
-545.0548
 20
-615.025
 30
0.0
 10
-545.0548
 20
-615.025
 30
0.0
 10
-544.2032
 20
-613.55
 30
0.0
 10
-544.2032
 20
-613.55
 30
0.0
 10
-544.2032
 20
-613.55
 30
0.0
 10
-544.2032
 20
-613.55
 30
0.0
 10
-542.5
 20
-613.55
 30
0.0
 10
-542.5
 20
-613.55
 30
0.0
 10
-542.5
 20
-613.55
 30
0.0
 10
-542.5
 20
-613.55
 30
0.0
 10
-540.7968
 20
-613.55
 30
0.0
 10
-540.7968
 20
-613.55
 30
0.0
 10
-540.7968
 20
-613.55
 30
0.0
 10
-540.7968
 20
-613.55
 30
0.0
 10
-539.9452
 20
-615.025
 30
0.0
 10
-539.9452
 20
-615.025
 30
0.0
 10
-539.9452
 20
-615.025
 30
0.0
 10
-539.9452
 20
-615.025
 30
0.0
 10
-539.0936
 20
-616.5
 30
0.0
 10
-539.0936
 20
-616.5
 30
0.0
 10
-539.0936
 20
-616.5
 30
0.0
 10
-539.0936
 20
-616.5
 30
0.0
 10
-539.9452
 20
-617.975
 30
0.0
 10
-539.9452
 20
-617.975
 30
0.0
 10
-539.9452
 20
-617.975
 30
0.0
 10
-539.9452
 20
-617.975
 30
0.0
 10
-540.7968
 20
-619.45
 30
0.0
 10
-540.7968
 20
-619.45
 30
0.0
 10
-540.7968
 20
-619.45
 30
0.0
 10
-540.7968
 20
-619.45
 30
0.0
 10
-542.5
 20
-619.45
 30
0.0
 10
-542.5
 20
-619.45
 30
0.0
 10
-542.5
 20
-619.45
 30
0.0
 10
-542.5
 20
-619.45
 30
0.0
 10
-544.2032
 20
-619.45
 30
0.0
 10
-544.2032
 20
-619.45
 30
0.0
 10
-544.2032
 20
-619.45
 30
0.0
 10
-544.2032
 20
-619.45
 30
0.0
 10
-545.0548
 20
-617.975
 30
0.0
 10
-545.0548
 20
-617.975
 30
0.0
 10
-545.0548
 20
-617.975
 30
0.0
 10
-545.0548
 20
-617.975
 30
0.0
 10
-545.9064
 20
-616.5
 30
0.0
 10
-545.9064
 20
-616.5
 30
0.0
  0
SPLINE
  5
93
330
1F
100
AcDbEntity
  8
LAYER_1
100
AcDbSpline
210
0.0
220
0.0
230
1.0
 70
    11
 71
     3
 72
    52
 73
    48
 74
     0
 42
0.0000000001
 43
0.0000000001
 40
0.0
 40
0.0
 40
0.0
 40
0.0
 40
0.0833333333333333
 40
0.0833333333333333
 40
0.0833333333333333
 40
0.0833333333333333
 40
0.1666666666666667
 40
0.1666666666666667
 40
0.1666666666666667
 40
0.1666666666666667
 40
0.25
 40
0.25
 40
0.25
 40
0.25
 40
0.3333333333333333
 40
0.3333333333333333
 40
0.3333333333333333
 40
0.3333333333333333
 40
0.4166666666666666
 40
0.4166666666666666
 40
0.4166666666666666
 40
0.4166666666666666
 40
0.4999999999999999
 40
0.4999999999999999
 40
0.4999999999999999
 40
0.4999999999999999
 40
0.5833333333333333
 40
0.5833333333333333
 40
0.5833333333333333
 40
0.5833333333333333
 40
0.6666666666666666
 40
0.6666666666666666
 40
0.6666666666666666
 40
0.6666666666666666
 40
0.75
 40
0.75
 40
0.75
 40
0.75
 40
0.8333333333333334
 40
0.8333333333333334
 40
0.8333333333333334
 40
0.8333333333333334
 40
0.9166666666666667
 40
0.9166666666666667
 40
0.9166666666666667
 40
0.9166666666666667
 40
1.0
 40
1.0
 40
1.0
 40
1.0
 10
-545.9064
 20
-585.5
 30
0.0
 10
-545.9064
 20
-585.5
 30
0.0
 10
-545.0548
 20
-584.025
 30
0.0
 10
-545.0548
 20
-584.025
 30
0.0
 10
-545.0548
 20
-584.025
 30
0.0
 10
-545.0548
 20
-584.025
 30
0.0
 10
-544.2032
 20
-582.55
 30
0.0
 10
-544.2032
 20
-582.55
 30
0.0
 10
-544.2032
 20
-582.55
 30
0.0
 10
-544.2032
 20
-582.55
 30
0.0
 10
-542.5
 20
-582.55
 30
0.0
 10
-542.5
 20
-582.55
 30
0.0
 10
-542.5
 20
-582.55
 30
0.0
 10
-542.5
 20
-582.55
 30
0.0
 10
-540.7968
 20
-582.55
 30
0.0
 10
-540.7968
 20
-582.55
 30
0.0
 10
-540.7968
 20
-582.55
 30
0.0
 10
-540.7968
 20
-582.55
 30
0.0
 10
-539.9452
 20
-584.025
 30
0.0
 10
-539.9452
 20
-584.025
 30
0.0
 10
-539.9452
 20
-584.025
 30
0.0
 10
-539.9452
 20
-584.025
 30
0.0
 10
-539.0936
 20
-585.5
 30
0.0
 10
-539.0936
 20
-585.5
 30
0.0
 10
-539.0936
 20
-585.5
 30
0.0
 10
-539.0936
 20
-585.5
 30
0.0
 10
-539.9452
 20
-586.975
 30
0.0
 10
-539.9452
 20
-586.975
 30
0.0
 10
-539.9452
 20
-586.975
 30
0.0
 10
-539.9452
 20
-586.975
 30
0.0
 10
-540.7968
 20
-588.45
 30
0.0
 10
-540.7968
 20
-588.45
 30
0.0
 10
-540.7968
 20
-588.45
 30
0.0
 10
-540.7968
 20
-588.45
 30
0.0
 10
-542.5
 20
-588.45
 30
0.0
 10
-542.5
 20
-588.45
 30
0.0
 10
-542.5
 20
-588.45
 30
0.0
 10
-542.5
 20
-588.45
 30
0.0
 10
-544.2032
 20
-588.45
 30
0.0
 10
-544.2032
 20
-588.45
 30
0.0
 10
-544.2032
 20
-588.45
 30
0.0
 10
-544.2032
 20
-588.45
 30
0.0
 10
-545.0548
 20
-586.975
 30
0.0
 10
-545.0548
 20
-586.975
 30
0.0
 10
-545.0548
 20
-586.975
 30
0.0
 10
-545.0548
 20
-586.975
 30
0.0
 10
-545.9064
 20
-585.5
 30
0.0
 10
-545.9064
 20
-585.5
 30
0.0
  0
SPLINE
  5
94
330
1F
100
AcDbEntity
  8
LAYER_1
100
AcDbSpline
210
0.0
220
0.0
230
1.0
 70
    11
 71
     3
 72
    52
 73
    48
 74
     0
 42
0.0000000001
 43
0.0000000001
 40
0.0
 40
0.0
 40
0.0
 40
0.0
 40
0.0833333333333333
 40
0.0833333333333333
 40
0.0833333333333333
 40
0.0833333333333333
 40
0.1666666666666667
 40
0.1666666666666667
 40
0.1666666666666667
 40
0.1666666666666667
 40
0.25
 40
0.25
 40
0.25
 40
0.25
 40
0.3333333333333333
 40
0.3333333333333333
 40
0.3333333333333333
 40
0.3333333333333333
 40
0.4166666666666666
 40
0.4166666666666666
 40
0.4166666666666666
 40
0.4166666666666666
 40
0.4999999999999999
 40
0.4999999999999999
 40
0.4999999999999999
 40
0.4999999999999999
 40
0.5833333333333333
 40
0.5833333333333333
 40
0.5833333333333333
 40
0.5833333333333333
 40
0.6666666666666666
 40
0.6666666666666666
 40
0.6666666666666666
 40
0.6666666666666666
 40
0.75
 40
0.75
 40
0.75
 40
0.75
 40
0.8333333333333334
 40
0.8333333333333334
 40
0.8333333333333334
 40
0.8333333333333334
 40
0.9166666666666667
 40
0.9166666666666667
 40
0.9166666666666667
 40
0.9166666666666667
 40
1.0
 40
1.0
 40
1.0
 40
1.0
 10
-470.9064
 20
-585.5
 30
0.0
 10
-470.9064
 20
-585.5
 30
0.0
 10
-470.0548
 20
-584.025
 30
0.0
 10
-470.0548
 20
-584.025
 30
0.0
 10
-470.0548
 20
-584.025
 30
0.0
 10
-470.0548
 20
-584.025
 30
0.0
 10
-469.2032
 20
-582.55
 30
0.0
 10
-469.2032
 20
-582.55
 30
0.0
 10
-469.2032
 20
-582.55
 30
0.0
 10
-469.2032
 20
-582.55
 30
0.0
 10
-467.5
 20
-582.55
 30
0.0
 10
-467.5
 20
-582.55
 30
0.0
 10
-467.5
 20
-582.55
 30
0.0
 10
-467.5
 20
-582.55
 30
0.0
 10
-465.7968
 20
-582.55
 30
0.0
 10
-465.7968
 20
-582.55
 30
0.0
 10
-465.7968
 20
-582.55
 30
0.0
 10
-465.7968
 20
-582.55
 30
0.0
 10
-464.9452
 20
-584.025
 30
0.0
 10
-464.9452
 20
-584.025
 30
0.0
 10
-464.9452
 20
-584.025
 30
0.0
 10
-464.9452
 20
-584.025
 30
0.0
 10
-464.0936
 20
-585.5
 30
0.0
 10
-464.0936
 20
-585.5
 30
0.0
 10
-464.0936
 20
-585.5
 30
0.0
 10
-464.0936
 20
-585.5
 30
0.0
 10
-464.9452
 20
-586.975
 30
0.0
 10
-464.9452
 20
-586.975
 30
0.0
 10
-464.9452
 20
-586.975
 30
0.0
 10
-464.9452
 20
-586.975
 30
0.0
 10
-465.7968
 20
-588.45
 30
0.0
 10
-465.7968
 20
-588.45
 30
0.0
 10
-465.7968
 20
-588.45
 30
0.0
 10
-465.7968
 20
-588.45
 30
0.0
 10
-467.5
 20
-588.45
 30
0.0
 10
-467.5
 20
-588.45
 30
0.0
 10
-467.5
 20
-588.45
 30
0.0
 10
-467.5
 20
-588.45
 30
0.0
 10
-469.2032
 20
-588.45
 30
0.0
 10
-469.2032
 20
-588.45
 30
0.0
 10
-469.2032
 20
-588.45
 30
0.0
 10
-469.2032
 20
-588.45
 30
0.0
 10
-470.0548
 20
-586.975
 30
0.0
 10
-470.0548
 20
-586.975
 30
0.0
 10
-470.0548
 20
-586.975
 30
0.0
 10
-470.0548
 20
-586.975
 30
0.0
 10
-470.9064
 20
-585.5
 30
0.0
 10
-470.9064
 20
-585.5
 30
0.0
  0
SPLINE
  5
95
330
1F
100
AcDbEntity
  8
LAYER_1
100
AcDbSpline
210
0.0
220
0.0
230
1.0
 70
    11
 71
     3
 72
    52
 73
    48
 74
     0
 42
0.0000000001
 43
0.0000000001
 40
0.0
 40
0.0
 40
0.0
 40
0.0
 40
0.0833333333333333
 40
0.0833333333333333
 40
0.0833333333333333
 40
0.0833333333333333
 40
0.1666666666666667
 40
0.1666666666666667
 40
0.1666666666666667
 40
0.1666666666666667
 40
0.25
 40
0.25
 40
0.25
 40
0.25
 40
0.3333333333333333
 40
0.3333333333333333
 40
0.3333333333333333
 40
0.3333333333333333
 40
0.4166666666666666
 40
0.4166666666666666
 40
0.4166666666666666
 40
0.4166666666666666
 40
0.4999999999999999
 40
0.4999999999999999
 40
0.4999999999999999
 40
0.4999999999999999
 40
0.5833333333333333
 40
0.5833333333333333
 40
0.5833333333333333
 40
0.5833333333333333
 40
0.6666666666666666
 40
0.6666666666666666
 40
0.6666666666666666
 40
0.6666666666666666
 40
0.75
 40
0.75
 40
0.75
 40
0.75
 40
0.8333333333333334
 40
0.8333333333333334
 40
0.8333333333333334
 40
0.8333333333333334
 40
0.9166666666666667
 40
0.9166666666666667
 40
0.9166666666666667
 40
0.9166666666666667
 40
1.0
 40
1.0
 40
1.0
 40
1.0
 10
-470.9064
 20
-616.5
 30
0.0
 10
-470.9064
 20
-616.5
 30
0.0
 10
-470.0548
 20
-615.025
 30
0.0
 10
-470.0548
 20
-615.025
 30
0.0
 10
-470.0548
 20
-615.025
 30
0.0
 10
-470.0548
 20
-615.025
 30
0.0
 10
-469.2032
 20
-613.55
 30
0.0
 10
-469.2032
 20
-613.55
 30
0.0
 10
-469.2032
 20
-613.55
 30
0.0
 10
-469.2032
 20
-613.55
 30
0.0
 10
-467.5
 20
-613.55
 30
0.0
 10
-467.5
 20
-613.55
 30
0.0
 10
-467.5
 20
-613.55
 30
0.0
 10
-467.5
 20
-613.55
 30
0.0
 10
-465.7968
 20
-613.55
 30
0.0
 10
-465.7968
 20
-613.55
 30
0.0
 10
-465.7968
 20
-613.55
 30
0.0
 10
-465.7968
 20
-613.55
 30
0.0
 10
-464.9452
 20
-615.025
 30
0.0
 10
-464.9452
 20
-615.025
 30
0.0
 10
-464.9452
 20
-615.025
 30
0.0
 10
-464.9452
 20
-615.025
 30
0.0
 10
-464.0936
 20
-616.5
 30
0.0
 10
-464.0936
 20
-616.5
 30
0.0
 10
-464.0936
 20
-616.5
 30
0.0
 10
-464.0936
 20
-616.5
 30
0.0
 10
-464.9452
 20
-617.975
 30
0.0
 10
-464.9452
 20
-617.975
 30
0.0
 10
-464.9452
 20
-617.975
 30
0.0
 10
-464.9452
 20
-617.975
 30
0.0
 10
-465.7968
 20
-619.45
 30
0.0
 10
-465.7968
 20
-619.45
 30
0.0
 10
-465.7968
 20
-619.45
 30
0.0
 10
-465.7968
 20
-619.45
 30
0.0
 10
-467.5
 20
-619.45
 30
0.0
 10
-467.5
 20
-619.45
 30
0.0
 10
-467.5
 20
-619.45
 30
0.0
 10
-467.5
 20
-619.45
 30
0.0
 10
-469.2032
 20
-619.45
 30
0.0
 10
-469.2032
 20
-619.45
 30
0.0
 10
-469.2032
 20
-619.45
 30
0.0
 10
-469.2032
 20
-619.45
 30
0.0
 10
-470.0548
 20
-617.975
 30
0.0
 10
-470.0548
 20
-617.975
 30
0.0
 10
-470.0548
 20
-617.975
 30
0.0
 10
-470.0548
 20
-617.975
 30
0.0
 10
-470.9064
 20
-616.5
 30
0.0
 10
-470.9064
 20
-616.5
 30
0.0
  0
ELLIPSE
  5
96
330
1F
100
AcDbEntity
  8
LAYER_1
100
AcDbEllipse
 10
-542.5
 20
-505.5
 30
0.0
 11
0.0
 21
1.6
 31
0.0
210
0.0
220
0.0
230
1.0
 40
1.0
 41
0.0
 42
6.283185307179586
  0
ELLIPSE
  5
97
330
1F
100
AcDbEntity
  8
LAYER_1
100
AcDbEllipse
 10
-467.5
 20
-505.5
 30
0.0
 11
0.0
 21
1.6
 31
0.0
210
0.0
220
0.0
230
1.0
 40
1.0
 41
0.0
 42
6.283185307179586
  0
ELLIPSE
  5
98
330
1F
100
AcDbEntity
  8
LAYER_1
100
AcDbEllipse
 10
-467.5
 20
-536.5
 30
0.0
 11
0.0
 21
1.6
 31
0.0
210
0.0
220
0.0
230
1.0
 40
1.0
 41
0.0
 42
6.283185307179586
  0
ELLIPSE
  5
99
330
1F
100
AcDbEntity
  8
LAYER_1
100
AcDbEllipse
 10
-542.5
 20
-536.5
 30
0.0
 11
0.0
 21
1.6
 31
0.0
210
0.0
220
0.0
230
1.0
 40
1.0
 41
0.0
 42
6.283185307179586
  0
SPLINE
  5
9A
330
1F
100
AcDbEntity
  8
LAYER_1
100
AcDbSpline
210
0.0
220
0.0
230
1.0
 70
    11
 71
     3
 72
    84
 73
    80
 74
     0
 42
0.0000000001
 43
0.0000000001
 40
0.0
 40
0.0
 40
0.0
 40
0.0
 40
0.05
 40
0.05
 40
0.05
 40
0.05
 40
0.1
 40
0.1
 40
0.1
 40
0.1
 40
0.15
 40
0.15
 40
0.15
 40
0.15
 40
0.2
 40
0.2
 40
0.2
 40
0.2
 40
0.25
 40
0.25
 40
0.25
 40
0.25
 40
0.3
 40
0.3
 40
0.3
 40
0.3
 40
0.35
 40
0.35
 40
0.35
 40
0.35
 40
0.4
 40
0.4
 40
0.4
 40
0.4
 40
0.45
 40
0.45
 40
0.45
 40
0.45
 40
0.4999999999999999
 40
0.4999999999999999
 40
0.4999999999999999
 40
0.4999999999999999
 40
0.5499999999999999
 40
0.5499999999999999
 40
0.5499999999999999
 40
0.5499999999999999
 40
0.6
 40
0.6
 40
0.6
 40
0.6
 40
0.65
 40
0.65
 40
0.65
 40
0.65
 40
0.7000000000000001
 40
0.7000000000000001
 40
0.7000000000000001
 40
0.7000000000000001
 40
0.7500000000000001
 40
0.7500000000000001
 40
0.7500000000000001
 40
0.7500000000000001
 40
0.8000000000000002
 40
0.8000000000000002
 40
0.8000000000000002
 40
0.8000000000000002
 40
0.8500000000000002
 40
0.8500000000000002
 40
0.8500000000000002
 40
0.8500000000000002
 40
0.9000000000000002
 40
0.9000000000000002
 40
0.9000000000000002
 40
0.9000000000000002
 40
0.9500000000000003
 40
0.9500000000000003
 40
0.9500000000000003
 40
0.9500000000000003
 40
1.0
 40
1.0
 40
1.0
 40
1.0
 10
-556.55
 20
-521.6
 30
0.0
 10
-556.55
 20
-521.6
 30
0.0
 10
-556.55
 20
-521.1851
 30
0.0
 10
-556.55
 20
-521.1851
 30
0.0
 10
-556.55
 20
-521.1851
 30
0.0
 10
-557.0205
 20
-520.9128
 30
0.0
 10
-557.4128
 20
-520.5205
 30
0.0
 10
-557.6851
 20
-520.05
 30
0.0
 10
-557.6851
 20
-520.05
 30
0.0
 10
-557.6851
 20
-520.05
 30
0.0
 10
-558.1
 20
-520.05
 30
0.0
 10
-558.1
 20
-520.05
 30
0.0
 10
-558.1
 20
-520.05
 30
0.0
 10
-558.1
 20
-520.05
 30
0.0
 10
-558.1
 20
-518.5
 30
0.0
 10
-558.1
 20
-518.5
 30
0.0
 10
-558.1
 20
-518.5
 30
0.0
 10
-558.1
 20
-518.5
 30
0.0
 10
-558.1
 20
-516.95
 30
0.0
 10
-558.1
 20
-516.95
 30
0.0
 10
-558.1
 20
-516.95
 30
0.0
 10
-558.1
 20
-516.95
 30
0.0
 10
-557.6851
 20
-516.95
 30
0.0
 10
-557.6851
 20
-516.95
 30
0.0
 10
-557.6851
 20
-516.95
 30
0.0
 10
-557.4128
 20
-516.4795
 30
0.0
 10
-557.0205
 20
-516.0872
 30
0.0
 10
-556.55
 20
-515.8149
 30
0.0
 10
-556.55
 20
-515.8149
 30
0.0
 10
-556.55
 20
-515.8149
 30
0.0
 10
-556.55
 20
-515.4
 30
0.0
 10
-556.55
 20
-515.4
 30
0.0
 10
-556.55
 20
-515.4
 30
0.0
 10
-556.55
 20
-515.4
 30
0.0
 10
-555.0
 20
-515.4
 30
0.0
 10
-555.0
 20
-515.4
 30
0.0
 10
-555.0
 20
-515.4
 30
0.0
 10
-555.0
 20
-515.4
 30
0.0
 10
-553.45
 20
-515.4
 30
0.0
 10
-553.45
 20
-515.4
 30
0.0
 10
-553.45
 20
-515.4
 30
0.0
 10
-553.45
 20
-515.4
 30
0.0
 10
-553.45
 20
-515.8149
 30
0.0
 10
-553.45
 20
-515.8149
 30
0.0
 10
-553.45
 20
-515.8149
 30
0.0
 10
-552.9795
 20
-516.0872
 30
0.0
 10
-552.5872
 20
-516.4795
 30
0.0
 10
-552.3149
 20
-516.95
 30
0.0
 10
-552.3149
 20
-516.95
 30
0.0
 10
-552.3149
 20
-516.95
 30
0.0
 10
-551.9
 20
-516.95
 30
0.0
 10
-551.9
 20
-516.95
 30
0.0
 10
-551.9
 20
-516.95
 30
0.0
 10
-551.9
 20
-516.95
 30
0.0
 10
-551.9
 20
-518.5
 30
0.0
 10
-551.9
 20
-518.5
 30
0.0
 10
-551.9
 20
-518.5
 30
0.0
 10
-551.9
 20
-518.5
 30
0.0
 10
-551.9
 20
-520.05
 30
0.0
 10
-551.9
 20
-520.05
 30
0.0
 10
-551.9
 20
-520.05
 30
0.0
 10
-551.9
 20
-520.05
 30
0.0
 10
-552.3149
 20
-520.05
 30
0.0
 10
-552.3149
 20
-520.05
 30
0.0
 10
-552.3149
 20
-520.05
 30
0.0
 10
-552.5872
 20
-520.5205
 30
0.0
 10
-552.9795
 20
-520.9128
 30
0.0
 10
-553.45
 20
-521.1851
 30
0.0
 10
-553.45
 20
-521.1851
 30
0.0
 10
-553.45
 20
-521.1851
 30
0.0
 10
-553.45
 20
-521.6
 30
0.0
 10
-553.45
 20
-521.6
 30
0.0
 10
-553.45
 20
-521.6
 30
0.0
 10
-553.45
 20
-521.6
 30
0.0
 10
-555.0
 20
-521.6
 30
0.0
 10
-555.0
 20
-521.6
 30
0.0
 10
-555.0
 20
-521.6
 30
0.0
 10
-555.0
 20
-521.6
 30
0.0
 10
-556.55
 20
-521.6
 30
0.0
 10
-556.55
 20
-521.6
 30
0.0
  0
SPLINE
  5
9B
330
1F
100
AcDbEntity
  8
LAYER_1
100
AcDbSpline
210
0.0
220
0.0
230
1.0
 70
    11
 71
     3
 72
    20
 73
    16
 74
     0
 42
0.0000000001
 43
0.0000000001
 40
0.0
 40
0.0
 40
0.0
 40
0.0
 40
0.25
 40
0.25
 40
0.25
 40
0.25
 40
0.5
 40
0.5
 40
0.5
 40
0.5
 40
0.75
 40
0.75
 40
0.75
 40
0.75
 40
1.0
 40
1.0
 40
1.0
 40
1.0
 10
-556.55
 20
-591.6
 30
0.0
 10
-556.55
 20
-591.6
 30
0.0
 10
-556.55
 20
-585.4
 30
0.0
 10
-556.55
 20
-585.4
 30
0.0
 10
-556.55
 20
-585.4
 30
0.0
 10
-556.55
 20
-585.4
 30
0.0
 10
-553.45
 20
-585.4
 30
0.0
 10
-553.45
 20
-585.4
 30
0.0
 10
-553.45
 20
-585.4
 30
0.0
 10
-553.45
 20
-585.4
 30
0.0
 10
-553.45
 20
-591.6
 30
0.0
 10
-553.45
 20
-591.6
 30
0.0
 10
-553.45
 20
-591.6
 30
0.0
 10
-553.45
 20
-591.6
 30
0.0
 10
-556.55
 20
-591.6
 30
0.0
 10
-556.55
 20
-591.6
 30
0.0
  0
SPLINE
  5
9C
330
1F
100
AcDbEntity
  8
LAYER_1
100
AcDbSpline
210
0.0
220
0.0
230
1.0
 70
    11
 71
     3
 72
    20
 73
    16
 74
     0
 42
0.0000000001
 43
0.0000000001
 40
0.0
 40
0.0
 40
0.0
 40
0.0
 40
0.25
 40
0.25
 40
0.25
 40
0.25
 40
0.5
 40
0.5
 40
0.5
 40
0.5
 40
0.75
 40
0.75
 40
0.75
 40
0.75
 40
1.0
 40
1.0
 40
1.0
 40
1.0
 10
-556.55
 20
-611.6
 30
0.0
 10
-556.55
 20
-611.6
 30
0.0
 10
-556.55
 20
-605.4
 30
0.0
 10
-556.55
 20
-605.4
 30
0.0
 10
-556.55
 20
-605.4
 30
0.0
 10
-556.55
 20
-605.4
 30
0.0
 10
-553.45
 20
-605.4
 30
0.0
 10
-553.45
 20
-605.4
 30
0.0
 10
-553.45
 20
-605.4
 30
0.0
 10
-553.45
 20
-605.4
 30
0.0
 10
-553.45
 20
-611.6
 30
0.0
 10
-553.45
 20
-611.6
 30
0.0
 10
-553.45
 20
-611.6
 30
0.0
 10
-553.45
 20
-611.6
 30
0.0
 10
-556.55
 20
-611.6
 30
0.0
 10
-556.55
 20
-611.6
 30
0.0
  0
SPLINE
  5
9D
330
1F
100
AcDbEntity
  8
LAYER_1
100
AcDbSpline
210
0.0
220
0.0
230
1.0
 70
    11
 71
     3
 72
    84
 73
    80
 74
     0
 42
0.0000000001
 43
0.0000000001
 40
0.0
 40
0.0
 40
0.0
 40
0.0
 40
0.05
 40
0.05
 40
0.05
 40
0.05
 40
0.1
 40
0.1
 40
0.1
 40
0.1
 40
0.15
 40
0.15
 40
0.15
 40
0.15
 40
0.2
 40
0.2
 40
0.2
 40
0.2
 40
0.25
 40
0.25
 40
0.25
 40
0.25
 40
0.3
 40
0.3
 40
0.3
 40
0.3
 40
0.35
 40
0.35
 40
0.35
 40
0.35
 40
0.4
 40
0.4
 40
0.4
 40
0.4
 40
0.45
 40
0.45
 40
0.45
 40
0.45
 40
0.4999999999999999
 40
0.4999999999999999
 40
0.4999999999999999
 40
0.4999999999999999
 40
0.5499999999999999
 40
0.5499999999999999
 40
0.5499999999999999
 40
0.5499999999999999
 40
0.6
 40
0.6
 40
0.6
 40
0.6
 40
0.65
 40
0.65
 40
0.65
 40
0.65
 40
0.7000000000000001
 40
0.7000000000000001
 40
0.7000000000000001
 40
0.7000000000000001
 40
0.7500000000000001
 40
0.7500000000000001
 40
0.7500000000000001
 40
0.7500000000000001
 40
0.8000000000000002
 40
0.8000000000000002
 40
0.8000000000000002
 40
0.8000000000000002
 40
0.8500000000000002
 40
0.8500000000000002
 40
0.8500000000000002
 40
0.8500000000000002
 40
0.9000000000000002
 40
0.9000000000000002
 40
0.9000000000000002
 40
0.9000000000000002
 40
0.9500000000000003
 40
0.9500000000000003
 40
0.9500000000000003
 40
0.9500000000000003
 40
1.0
 40
1.0
 40
1.0
 40
1.0
 10
-556.55
 20
-601.6
 30
0.0
 10
-556.55
 20
-601.6
 30
0.0
 10
-556.55
 20
-601.1851
 30
0.0
 10
-556.55
 20
-601.1851
 30
0.0
 10
-556.55
 20
-601.1851
 30
0.0
 10
-557.0205
 20
-600.9128
 30
0.0
 10
-557.4128
 20
-600.5205
 30
0.0
 10
-557.6851
 20
-600.05
 30
0.0
 10
-557.6851
 20
-600.05
 30
0.0
 10
-557.6851
 20
-600.05
 30
0.0
 10
-558.1
 20
-600.05
 30
0.0
 10
-558.1
 20
-600.05
 30
0.0
 10
-558.1
 20
-600.05
 30
0.0
 10
-558.1
 20
-600.05
 30
0.0
 10
-558.1
 20
-598.5
 30
0.0
 10
-558.1
 20
-598.5
 30
0.0
 10
-558.1
 20
-598.5
 30
0.0
 10
-558.1
 20
-598.5
 30
0.0
 10
-558.1
 20
-596.95
 30
0.0
 10
-558.1
 20
-596.95
 30
0.0
 10
-558.1
 20
-596.95
 30
0.0
 10
-558.1
 20
-596.95
 30
0.0
 10
-557.6851
 20
-596.95
 30
0.0
 10
-557.6851
 20
-596.95
 30
0.0
 10
-557.6851
 20
-596.95
 30
0.0
 10
-557.4128
 20
-596.4795
 30
0.0
 10
-557.0205
 20
-596.0872
 30
0.0
 10
-556.55
 20
-595.8149
 30
0.0
 10
-556.55
 20
-595.8149
 30
0.0
 10
-556.55
 20
-595.8149
 30
0.0
 10
-556.55
 20
-595.4
 30
0.0
 10
-556.55
 20
-595.4
 30
0.0
 10
-556.55
 20
-595.4
 30
0.0
 10
-556.55
 20
-595.4
 30
0.0
 10
-555.0
 20
-595.4
 30
0.0
 10
-555.0
 20
-595.4
 30
0.0
 10
-555.0
 20
-595.4
 30
0.0
 10
-555.0
 20
-595.4
 30
0.0
 10
-553.45
 20
-595.4
 30
0.0
 10
-553.45
 20
-595.4
 30
0.0
 10
-553.45
 20
-595.4
 30
0.0
 10
-553.45
 20
-595.4
 30
0.0
 10
-553.45
 20
-595.8149
 30
0.0
 10
-553.45
 20
-595.8149
 30
0.0
 10
-553.45
 20
-595.8149
 30
0.0
 10
-552.9795
 20
-596.0872
 30
0.0
 10
-552.5872
 20
-596.4795
 30
0.0
 10
-552.3149
 20
-596.95
 30
0.0
 10
-552.3149
 20
-596.95
 30
0.0
 10
-552.3149
 20
-596.95
 30
0.0
 10
-551.9
 20
-596.95
 30
0.0
 10
-551.9
 20
-596.95
 30
0.0
 10
-551.9
 20
-596.95
 30
0.0
 10
-551.9
 20
-596.95
 30
0.0
 10
-551.9
 20
-598.5
 30
0.0
 10
-551.9
 20
-598.5
 30
0.0
 10
-551.9
 20
-598.5
 30
0.0
 10
-551.9
 20
-598.5
 30
0.0
 10
-551.9
 20
-600.05
 30
0.0
 10
-551.9
 20
-600.05
 30
0.0
 10
-551.9
 20
-600.05
 30
0.0
 10
-551.9
 20
-600.05
 30
0.0
 10
-552.3149
 20
-600.05
 30
0.0
 10
-552.3149
 20
-600.05
 30
0.0
 10
-552.3149
 20
-600.05
 30
0.0
 10
-552.5872
 20
-600.5205
 30
0.0
 10
-552.9795
 20
-600.9128
 30
0.0
 10
-553.45
 20
-601.1851
 30
0.0
 10
-553.45
 20
-601.1851
 30
0.0
 10
-553.45
 20
-601.1851
 30
0.0
 10
-553.45
 20
-601.6
 30
0.0
 10
-553.45
 20
-601.6
 30
0.0
 10
-553.45
 20
-601.6
 30
0.0
 10
-553.45
 20
-601.6
 30
0.0
 10
-555.0
 20
-601.6
 30
0.0
 10
-555.0
 20
-601.6
 30
0.0
 10
-555.0
 20
-601.6
 30
0.0
 10
-555.0
 20
-601.6
 30
0.0
 10
-556.55
 20
-601.6
 30
0.0
 10
-556.55
 20
-601.6
 30
0.0
  0
ENDSEC
  0
SECTION
  2
OBJECTS
  0
DICTIONARY
  5
C
330
0
100
AcDbDictionary
  3
ACAD_GROUP
350
D
  3
ACAD_LAYOUT
350
1A
  3
ACAD_MLEADERSTYLE
350
C1
  3
ACAD_MLINESTYLE
350
17
  3
ACAD_PLOTSETTINGS
350
19
  3
ACAD_SCALELIST
350
3B
  3
ACAD_TABLESTYLE
350
C0
  3
ACAD_VISUALSTYLE
350
2A
  3
ACDBHEADERROUNDTRIPXREC
350
9E
  3
ACDBVARIABLEDICTIONARY
350
BE
  0
DICTIONARY
  5
D
102
{ACAD_REACTORS
330
C
102
}
330
C
100
AcDbDictionary
  0
DICTIONARY
  5
1A
102
{ACAD_REACTORS
330
C
102
}
330
C
100
AcDbDictionary
  0
DICTIONARY
  5
C1
102
{ACAD_REACTORS
330
C
102
}
330
C
100
AcDbDictionary
  0
DICTIONARY
  5
17
102
{ACAD_REACTORS
330
C
102
}
330
C
100
AcDbDictionary
  3
STANDARD
350
18
  0
DICTIONARY
  5
19
102
{ACAD_REACTORS
330
C
102
}
330
C
100
AcDbDictionary
  0
DICTIONARY
  5
3B
102
{ACAD_REACTORS
330
C
102
}
330
C
100
AcDbDictionary
  3
A0
350
3C
  3
A1
350
3D
  3
A2
350
3E
  3
A3
350
3F
  3
A4
350
40
  3
A5
350
41
  3
A6
350
42
  3
A7
350
43
  3
A8
350
44
  3
A9
350
45
  3
B0
350
46
  3
B1
350
47
  3
B2
350
48
  3
B3
350
49
  3
B4
350
4A
  3
B5
350
4B
  3
B6
350
4C
  3
B7
350
4D
  3
B8
350
4E
  3
B9
350
4F
  3
C0
350
50
  3
C1
350
51
  3
C2
350
52
  3
C3
350
53
  3
C4
350
54
  3
C5
350
55
  3
C6
350
56
  3
C7
350
57
  3
C8
350
58
  3
C9
350
59
  3
D0
350
5A
  3
D1
350
5B
  3
D2
350
5C
  0
DICTIONARY
  5
C0
102
{ACAD_REACTORS
330
C
102
}
330
C
100
AcDbDictionary
  0
DICTIONARY
  5
2A
102
{ACAD_REACTORS
330
C
102
}
330
C
100
AcDbDictionary
  3
2DWIREFRAME
350
2F
  3
3D_HIDDEN
350
31
  3
3DWIREFRAME
350
30
  3
BASIC
350
32
  3
BRIGHTEN
350
36
  3
COLORCHANGE
350
3A
  3
CONCEPTUAL
350
34
  3
DIM
350
35
  3
FACEPATTERN
350
39
  3
FLAT
350
2B
  3
FLATWITHEDGES
350
2C
  3
GOURAUD
350
2D
  3
GOURAUDWITHEDGES
350
2E
  3
LINEPATTERN
350
38
  3
REALISTIC
350
33
  3
THICKEN
350
37
  0
DICTIONARY
  5
9E
102
{ACAD_REACTORS
330
C
102
}
330
C
100
AcDbDictionary
  3
CEPSNTYPE
350
A7
  3
DIMSTYLEDATA
350
BD
  3
FINGERPRINTGUID
350
A8
  3
HYPERLINKBASE
350
A1
  3
INSUNITS
350
A6
  3
LAYOUTDICT
350
A3
  3
LWETCUNION
350
A5
  3
PLOTSETDICT
350
A4
  3
PSVPSCALE
350
AA
  3
PUCSBASE
350
AD
  3
PUCSORGBACK
350
B3
  3
PUCSORGBOTTOM
350
AF
  3
PUCSORGFRONT
350
B2
  3
PUCSORGLEFT
350
B0
  3
PUCSORGRIGHT
350
B1
  3
PUCSORGTOP
350
AE
  3
PUCSORTHOREF
350
AB
  3
PUCSORTHOVIEW
350
AC
  3
STYLESHEET
350
A2
  3
TSTACKALIGN
350
9F
  3
TSTACKSIZE
350
A0
  3
UCSBASE
350
B6
  3
UCSORGBACK
350
BC
  3
UCSORGBOTTOM
350
B8
  3
UCSORGFRONT
350
BB
  3
UCSORGLEFT
350
B9
  3
UCSORGRIGHT
350
BA
  3
UCSORGTOP
350
B7
  3
UCSORTHOREF
350
B4
  3
UCSORTHOVIEW
350
B5
  3
VERSIONGUID
350
A9
  0
DICTIONARY
  5
BE
102
{ACAD_REACTORS
330
C
102
}
330
C
100
AcDbDictionary
  3
CANNOSCALE
350
BF
  0
MLINESTYLE
  5
18
102
{ACAD_REACTORS
330
17
102
}
330
17
100
AcDbMlineStyle
  2
Standard
 70
     0
  3

 62
   256
 51
90.0
 52
90.0
 71
     2
 49
0.5
 62
   256
  6
BYLAYER
 49
-0.5
 62
   256
  6
BYLAYER
  0
SCALE
  5
3C
102
{ACAD_REACTORS
330
3B
102
}
330
3B
100
AcDbScale
 70
     0
300
1:1
140
1.0
141
1.0
290
     1
  0
SCALE
  5
3D
102
{ACAD_REACTORS
330
3B
102
}
330
3B
100
AcDbScale
 70
     0
300
1:2
140
1.0
141
2.0
290
     0
  0
SCALE
  5
3E
102
{ACAD_REACTORS
330
3B
102
}
330
3B
100
AcDbScale
 70
     0
300
1:4
140
1.0
141
4.0
290
     0
  0
SCALE
  5
3F
102
{ACAD_REACTORS
330
3B
102
}
330
3B
100
AcDbScale
 70
     0
300
1:5
140
1.0
141
5.0
290
     0
  0
SCALE
  5
40
102
{ACAD_REACTORS
330
3B
102
}
330
3B
100
AcDbScale
 70
     0
300
1:8
140
1.0
141
8.0
290
     0
  0
SCALE
  5
41
102
{ACAD_REACTORS
330
3B
102
}
330
3B
100
AcDbScale
 70
     0
300
1:10
140
1.0
141
10.0
290
     0
  0
SCALE
  5
42
102
{ACAD_REACTORS
330
3B
102
}
330
3B
100
AcDbScale
 70
     0
300
1:16
140
1.0
141
16.0
290
     0
  0
SCALE
  5
43
102
{ACAD_REACTORS
330
3B
102
}
330
3B
100
AcDbScale
 70
     0
300
1:20
140
1.0
141
20.0
290
     0
  0
SCALE
  5
44
102
{ACAD_REACTORS
330
3B
102
}
330
3B
100
AcDbScale
 70
     0
300
1:30
140
1.0
141
30.0
290
     0
  0
SCALE
  5
45
102
{ACAD_REACTORS
330
3B
102
}
330
3B
100
AcDbScale
 70
     0
300
1:40
140
1.0
141
40.0
290
     0
  0
SCALE
  5
46
102
{ACAD_REACTORS
330
3B
102
}
330
3B
100
AcDbScale
 70
     0
300
1:50
140
1.0
141
50.0
290
     0
  0
SCALE
  5
47
102
{ACAD_REACTORS
330
3B
102
}
330
3B
100
AcDbScale
 70
     0
300
1:100
140
1.0
141
100.0
290
     0
  0
SCALE
  5
48
102
{ACAD_REACTORS
330
3B
102
}
330
3B
100
AcDbScale
 70
     0
300
2:1
140
2.0
141
1.0
290
     0
  0
SCALE
  5
49
102
{ACAD_REACTORS
330
3B
102
}
330
3B
100
AcDbScale
 70
     0
300
4:1
140
4.0
141
1.0
290
     0
  0
SCALE
  5
4A
102
{ACAD_REACTORS
330
3B
102
}
330
3B
100
AcDbScale
 70
     0
300
8:1
140
8.0
141
1.0
290
     0
  0
SCALE
  5
4B
102
{ACAD_REACTORS
330
3B
102
}
330
3B
100
AcDbScale
 70
     0
300
10:1
140
10.0
141
1.0
290
     0
  0
SCALE
  5
4C
102
{ACAD_REACTORS
330
3B
102
}
330
3B
100
AcDbScale
 70
     0
300
100:1
140
100.0
141
1.0
290
     0
  0
SCALE
  5
4D
102
{ACAD_REACTORS
330
3B
102
}
330
3B
100
AcDbScale
 70
     0
300
1/128" = 1'-0"
140
0.0078125
141
12.0
290
     0
  0
SCALE
  5
4E
102
{ACAD_REACTORS
330
3B
102
}
330
3B
100
AcDbScale
 70
     0
300
1/64" = 1'-0"
140
0.015625
141
12.0
290
     0
  0
SCALE
  5
4F
102
{ACAD_REACTORS
330
3B
102
}
330
3B
100
AcDbScale
 70
     0
300
1/32" = 1'-0"
140
0.03125
141
12.0
290
     0
  0
SCALE
  5
50
102
{ACAD_REACTORS
330
3B
102
}
330
3B
100
AcDbScale
 70
     0
300
1/16" = 1'-0"
140
0.0625
141
12.0
290
     0
  0
SCALE
  5
51
102
{ACAD_REACTORS
330
3B
102
}
330
3B
100
AcDbScale
 70
     0
300
3/32" = 1'-0"
140
0.09375
141
12.0
290
     0
  0
SCALE
  5
52
102
{ACAD_REACTORS
330
3B
102
}
330
3B
100
AcDbScale
 70
     0
300
1/8" = 1'-0"
140
0.125
141
12.0
290
     0
  0
SCALE
  5
53
102
{ACAD_REACTORS
330
3B
102
}
330
3B
100
AcDbScale
 70
     0
300
3/16" = 1'-0"
140
0.1875
141
12.0
290
     0
  0
SCALE
  5
54
102
{ACAD_REACTORS
330
3B
102
}
330
3B
100
AcDbScale
 70
     0
300
1/4" = 1'-0"
140
0.25
141
12.0
290
     0
  0
SCALE
  5
55
102
{ACAD_REACTORS
330
3B
102
}
330
3B
100
AcDbScale
 70
     0
300
3/8" = 1'-0"
140
0.375
141
12.0
290
     0
  0
SCALE
  5
56
102
{ACAD_REACTORS
330
3B
102
}
330
3B
100
AcDbScale
 70
     0
300
1/2" = 1'-0"
140
0.5
141
12.0
290
     0
  0
SCALE
  5
57
102
{ACAD_REACTORS
330
3B
102
}
330
3B
100
AcDbScale
 70
     0
300
3/4" = 1'-0"
140
0.75
141
12.0
290
     0
  0
SCALE
  5
58
102
{ACAD_REACTORS
330
3B
102
}
330
3B
100
AcDbScale
 70
     0
300
1" = 1'-0"
140
1.0
141
12.0
290
     0
  0
SCALE
  5
59
102
{ACAD_REACTORS
330
3B
102
}
330
3B
100
AcDbScale
 70
     0
300
1-1/2" = 1'-0"
140
1.5
141
12.0
290
     0
  0
SCALE
  5
5A
102
{ACAD_REACTORS
330
3B
102
}
330
3B
100
AcDbScale
 70
     0
300
3" = 1'-0"
140
3.0
141
12.0
290
     0
  0
SCALE
  5
5B
102
{ACAD_REACTORS
330
3B
102
}
330
3B
100
AcDbScale
 70
     0
300
6" = 1'-0"
140
6.0
141
12.0
290
     0
  0
SCALE
  5
5C
102
{ACAD_REACTORS
330
3B
102
}
330
3B
100
AcDbScale
 70
     0
300
1'-0" = 1'-0"
140
12.0
141
12.0
290
     0
  0
VISUALSTYLE
  5
2F
102
{ACAD_REACTORS
330
2A
102
}
330
2A
100
AcDbVisualStyle
  2
2dWireframe
 70
     4
 71
     0
 72
     2
 73
     0
 90
        0
 40
-0.6
 41
-30.0
 62
     5
 63
     7
 74
     1
 91
        4
 64
     7
 65
   257
 75
     1
175
     1
 42
1.0
 92
        0
 66
   257
 43
1.0
 76
     1
 77
     6
 78
     2
 67
     7
 79
     5
170
     0
171
     0
290
     0
174
     0
 93
        1
 44
0.0
173
     0
291
     0
 45
0.0
1001
ACAD
1000
AcDbSavedByObjectVersion
1070
     0
  0
VISUALSTYLE
  5
31
102
{ACAD_REACTORS
330
2A
102
}
330
2A
100
AcDbVisualStyle
  2
3D Hidden
 70
     6
 71
     1
 72
     2
 73
     2
 90
        0
 40
-0.6
 41
-30.0
 62
     5
 63
     7
 74
     2
 91
        2
 64
     7
 65
   257
 75
     2
175
     1
 42
40.0
 92
        0
 66
   257
 43
1.0
 76
     1
 77
     6
 78
     2
 67
     7
 79
     3
170
     0
171
     0
290
     0
174
     0
 93
        1
 44
0.0
173
     0
291
     0
 45
0.0
1001
ACAD
1000
AcDbSavedByObjectVersion
1070
     0
  0
VISUALSTYLE
  5
30
102
{ACAD_REACTORS
330
2A
102
}
330
2A
100
AcDbVisualStyle
  2
3dWireframe
 70
     5
 71
     0
 72
     2
 73
     0
 90
        0
 40
-0.6
 41
-30.0
 62
     5
 63
     7
 74
     1
 91
        4
 64
     7
 65
   257
 75
     1
175
     1
 42
1.0
 92
        0
 66
   257
 43
1.0
 76
     1
 77
     6
 78
     2
 67
     7
 79
     5
170
     0
171
     0
290
     0
174
     0
 93
        1
 44
0.0
173
     0
291
     0
 45
0.0
1001
ACAD
1000
AcDbSavedByObjectVersion
1070
     0
  0
VISUALSTYLE
  5
32
102
{ACAD_REACTORS
330
2A
102
}
330
2A
100
AcDbVisualStyle
  2
Basic
 70
     7
 71
     1
 72
     0
 73
     1
 90
        0
 40
-0.6
 41
-30.0
 62
     5
 63
     7
 74
     0
 91
        4
 64
     7
 65
   257
 75
     1
175
     1
 42
1.0
 92
        8
 66
     7
 43
1.0
 76
     1
 77
     6
 78
     2
 67
     7
 79
     5
170
     0
171
     0
290
     0
174
     0
 93
        1
 44
0.0
173
     0
291
     1
 45
0.0
1001
ACAD
1000
AcDbSavedByObjectVersion
1070
     0
  0
VISUALSTYLE
  5
36
102
{ACAD_REACTORS
330
2A
102
}
330
2A
100
AcDbVisualStyle
  2
Brighten
 70
    12
 71
     2
 72
     2
 73
     0
 90
        0
 40
-0.6
 41
-30.0
 62
     5
 63
     7
 74
     1
 91
        4
 64
     7
 65
   257
 75
     1
175
     1
 42
1.0
 92
        8
 66
     7
 43
1.0
 76
     1
 77
     6
 78
     2
 67
     7
 79
     5
170
     0
171
     0
290
     0
174
     0
 93
        1
 44
50.0
173
     0
291
     1
 45
0.0
1001
ACAD
1000
AcDbSavedByObjectVersion
1070
     0
  0
VISUALSTYLE
  5
3A
102
{ACAD_REACTORS
330
2A
102
}
330
2A
100
AcDbVisualStyle
  2
ColorChange
 70
    16
 71
     2
 72
     2
 73
     3
 90
        0
 40
-0.6
 41
-30.0
 62
     5
 63
     8
 74
     1
 91
        4
 64
     7
 65
   257
 75
     1
175
     1
 42
1.0
 92
        8
 66
     8
 43
1.0
 76
     1
 77
     6
 78
     2
 67
     7
 79
     5
170
     0
171
     0
290
     0
174
     0
 93
        1
 44
0.0
173
     0
291
     1
 45
0.0
1001
ACAD
1000
AcDbSavedByObjectVersion
1070
     0
  0
VISUALSTYLE
  5
34
102
{ACAD_REACTORS
330
2A
102
}
330
2A
100
AcDbVisualStyle
  2
Conceptual
 70
     9
 71
     3
 72
     2
 73
     0
 90
        0
 40
-0.6
 41
-30.0
 62
     5
 63
     7
 74
     2
 91
        2
 64
     7
 65
   257
 75
     1
175
     1
 42
40.0
 92
        8
 66
     7
 43
1.0
 76
     1
 77
     6
 78
     2
 67
     7
 79
     3
170
     0
171
     0
290
     0
174
     0
 93
        1
 44
0.0
173
     0
291
     0
 45
0.0
1001
ACAD
1000
AcDbSavedByObjectVersion
1070
     0
  0
VISUALSTYLE
  5
35
102
{ACAD_REACTORS
330
2A
102
}
330
2A
100
AcDbVisualStyle
  2
Dim
 70
    11
 71
     2
 72
     2
 73
     0
 90
        0
 40
-0.6
 41
-30.0
 62
     5
 63
     7
 74
     1
 91
        4
 64
     7
 65
   257
 75
     1
175
     1
 42
1.0
 92
        8
 66
     7
 43
1.0
 76
     1
 77
     6
 78
     2
 67
     7
 79
     5
170
     0
171
     0
290
     0
174
     0
 93
        1
 44
-50.0
173
     0
291
     1
 45
0.0
1001
ACAD
1000
AcDbSavedByObjectVersion
1070
     0
  0
VISUALSTYLE
  5
39
102
{ACAD_REACTORS
330
2A
102
}
330
2A
100
AcDbVisualStyle
  2
Facepattern
 70
    15
 71
     2
 72
     2
 73
     0
 90
        0
 40
-0.6
 41
-30.0
 62
     5
 63
     7
 74
     1
 91
        4
 64
     7
 65
   257
 75
     1
175
     1
 42
1.0
 92
        8
 66
     7
 43
1.0
 76
     1
 77
     6
 78
     2
 67
     7
 79
     5
170
     0
171
     0
290
     0
174
     0
 93
        1
 44
0.0
173
     0
291
     1
 45
0.0
1001
ACAD
1000
AcDbSavedByObjectVersion
1070
     0
  0
VISUALSTYLE
  5
2B
102
{ACAD_REACTORS
330
2A
102
}
330
2A
100
AcDbVisualStyle
  2
Flat
 70
     0
 71
     2
 72
     1
 73
     1
 90
        2
 40
-0.6
 41
30.0
 62
     5
 63
     7
 74
     0
 91
        4
 64
     7
 65
   257
 75
     1
175
     1
 42
1.0
 92
        8
 66
     7
 43
1.0
 76
     1
 77
     6
 78
     2
 67
     7
 79
     5
170
     0
171
     0
290
     0
174
     0
 93
       13
 44
0.0
173
     0
291
     1
 45
0.0
1001
ACAD
1000
AcDbSavedByObjectVersion
1070
     0
  0
VISUALSTYLE
  5
2C
102
{ACAD_REACTORS
330
2A
102
}
330
2A
100
AcDbVisualStyle
  2
FlatWithEdges
 70
     1
 71
     2
 72
     1
 73
     1
 90
        2
 40
-0.6
 41
30.0
 62
     5
 63
     7
 74
     1
 91
        4
 64
     7
 65
   257
 75
     1
175
     1
 42
1.0
 92
        0
 66
   257
 43
1.0
 76
     1
 77
     6
 78
     2
 67
     7
 79
     5
170
     0
171
     0
290
     0
174
     0
 93
       13
 44
0.0
173
     0
291
     1
 45
0.0
1001
ACAD
1000
AcDbSavedByObjectVersion
1070
     0
  0
VISUALSTYLE
  5
2D
102
{ACAD_REACTORS
330
2A
102
}
330
2A
100
AcDbVisualStyle
  2
Gouraud
 70
     2
 71
     2
 72
     2
 73
     1
 90
        2
 40
-0.6
 41
30.0
 62
     5
 63
     7
 74
     0
 91
        4
 64
     7
 65
   257
 75
     1
175
     1
 42
1.0
 92
        0
 66
     7
 43
1.0
 76
     1
 77
     6
 78
     2
 67
     7
 79
     5
170
     0
171
     0
290
     0
174
     0
 93
       13
 44
0.0
173
     0
291
     1
 45
0.0
1001
ACAD
1000
AcDbSavedByObjectVersion
1070
     0
  0
VISUALSTYLE
  5
2E
102
{ACAD_REACTORS
330
2A
102
}
330
2A
100
AcDbVisualStyle
  2
GouraudWithEdges
 70
     3
 71
     2
 72
     2
 73
     1
 90
        2
 40
-0.6
 41
30.0
 62
     5
 63
     7
 74
     1
 91
        4
 64
     7
 65
   257
 75
     1
175
     1
 42
1.0
 92
        0
 66
   257
 43
1.0
 76
     1
 77
     6
 78
     2
 67
     7
 79
     5
170
     0
171
     0
290
     0
174
     0
 93
       13
 44
0.0
173
     0
291
     1
 45
0.0
1001
ACAD
1000
AcDbSavedByObjectVersion
1070
     0
  0
VISUALSTYLE
  5
38
102
{ACAD_REACTORS
330
2A
102
}
330
2A
100
AcDbVisualStyle
  2
Linepattern
 70
    14
 71
     2
 72
     2
 73
     0
 90
        0
 40
-0.6
 41
-30.0
 62
     5
 63
     7
 74
     1
 91
        4
 64
     7
 65
   257
 75
     7
175
     7
 42
1.0
 92
        8
 66
     7
 43
1.0
 76
     1
 77
     6
 78
     2
 67
     7
 79
     5
170
     0
171
     0
290
     0
174
     0
 93
        1
 44
0.0
173
     0
291
     1
 45
0.0
1001
ACAD
1000
AcDbSavedByObjectVersion
1070
     0
  0
VISUALSTYLE
  5
33
102
{ACAD_REACTORS
330
2A
102
}
330
2A
100
AcDbVisualStyle
  2
Realistic
 70
     8
 71
     2
 72
     2
 73
     0
 90
        0
 40
-0.6
 41
-30.0
 62
     5
 63
     7
 74
     1
 91
        0
 64
     7
 65
   257
 75
     1
175
     1
 42
1.0
 92
        8
 66
     8
 43
1.0
 76
     1
 77
     6
 78
     2
 67
     7
 79
     5
170
     0
171
     0
290
     0
174
     0
 93
       13
 44
0.0
173
     0
291
     0
 45
0.0
1001
ACAD
1000
AcDbSavedByObjectVersion
1070
     0
  0
VISUALSTYLE
  5
37
102
{ACAD_REACTORS
330
2A
102
}
330
2A
100
AcDbVisualStyle
  2
Thicken
 70
    13
 71
     2
 72
     2
 73
     0
 90
        0
 40
-0.6
 41
-30.0
 62
     5
 63
     7
 74
     1
 91
        4
 64
     7
 65
   257
 75
     1
175
     1
 42
1.0
 92
       12
 66
     7
 43
1.0
 76
     1
 77
     6
 78
     2
 67
     7
 79
     5
170
     0
171
     0
290
     0
174
     0
 93
        1
 44
0.0
173
     0
291
     1
 45
0.0
1001
ACAD
1000
AcDbSavedByObjectVersion
1070
     0
  0
XRECORD
  5
A7
102
{ACAD_REACTORS
330
9E
102
}
330
9E
100
AcDbXrecord
 90
        0
  0
XRECORD
  5
BD
102
{ACAD_REACTORS
330
9E
102
}
330
9E
100
AcDbXrecord
1000
DSTYLE
1002
{
1070
   340
340
11
1002
}
  0
XRECORD
  5
A8
102
{ACAD_REACTORS
330
9E
102
}
330
9E
100
AcDbXrecord
  1
{2E9A92D7-07C7-4429-9393-EA33C17869DF}
  0
XRECORD
  5
A1
102
{ACAD_REACTORS
330
9E
102
}
330
9E
100
AcDbXrecord
  1

  0
XRECORD
  5
A6
102
{ACAD_REACTORS
330
9E
102
}
330
9E
100
AcDbXrecord
 90
        4
  0
XRECORD
  5
A3
102
{ACAD_REACTORS
330
9E
102
}
330
9E
100
AcDbXrecord
340
1A
  0
XRECORD
  5
A5
102
{ACAD_REACTORS
330
9E
102
}
330
9E
100
AcDbXrecord
 90
    10781
  0
XRECORD
  5
A4
102
{ACAD_REACTORS
330
9E
102
}
330
9E
100
AcDbXrecord
340
19
  0
XRECORD
  5
AA
102
{ACAD_REACTORS
330
9E
102
}
330
9E
100
AcDbXrecord
 40
0.0
  0
XRECORD
  5
AD
102
{ACAD_REACTORS
330
9E
102
}
330
9E
100
AcDbXrecord
340
0
  0
XRECORD
  5
B3
102
{ACAD_REACTORS
330
9E
102
}
330
9E
100
AcDbXrecord
 10
0.0
 20
0.0
 30
0.0
  0
XRECORD
  5
AF
102
{ACAD_REACTORS
330
9E
102
}
330
9E
100
AcDbXrecord
 10
0.0
 20
0.0
 30
0.0
  0
XRECORD
  5
B2
102
{ACAD_REACTORS
330
9E
102
}
330
9E
100
AcDbXrecord
 10
0.0
 20
0.0
 30
0.0
  0
XRECORD
  5
B0
102
{ACAD_REACTORS
330
9E
102
}
330
9E
100
AcDbXrecord
 10
0.0
 20
0.0
 30
0.0
  0
XRECORD
  5
B1
102
{ACAD_REACTORS
330
9E
102
}
330
9E
100
AcDbXrecord
 10
0.0
 20
0.0
 30
0.0
  0
XRECORD
  5
AE
102
{ACAD_REACTORS
330
9E
102
}
330
9E
100
AcDbXrecord
 10
0.0
 20
0.0
 30
0.0
  0
XRECORD
  5
AB
102
{ACAD_REACTORS
330
9E
102
}
330
9E
100
AcDbXrecord
340
0
  0
XRECORD
  5
AC
102
{ACAD_REACTORS
330
9E
102
}
330
9E
100
AcDbXrecord
 70
     0
  0
XRECORD
  5
A2
102
{ACAD_REACTORS
330
9E
102
}
330
9E
100
AcDbXrecord
  1

  0
XRECORD
  5
9F
102
{ACAD_REACTORS
330
9E
102
}
330
9E
100
AcDbXrecord
 90
        1
  0
XRECORD
  5
A0
102
{ACAD_REACTORS
330
9E
102
}
330
9E
100
AcDbXrecord
 90
       70
  0
XRECORD
  5
B6
102
{ACAD_REACTORS
330
9E
102
}
330
9E
100
AcDbXrecord
340
0
  0
XRECORD
  5
BC
102
{ACAD_REACTORS
330
9E
102
}
330
9E
100
AcDbXrecord
 10
0.0
 20
0.0
 30
0.0
  0
XRECORD
  5
B8
102
{ACAD_REACTORS
330
9E
102
}
330
9E
100
AcDbXrecord
 10
0.0
 20
0.0
 30
0.0
  0
XRECORD
  5
BB
102
{ACAD_REACTORS
330
9E
102
}
330
9E
100
AcDbXrecord
 10
0.0
 20
0.0
 30
0.0
  0
XRECORD
  5
B9
102
{ACAD_REACTORS
330
9E
102
}
330
9E
100
AcDbXrecord
 10
0.0
 20
0.0
 30
0.0
  0
XRECORD
  5
BA
102
{ACAD_REACTORS
330
9E
102
}
330
9E
100
AcDbXrecord
 10
0.0
 20
0.0
 30
0.0
  0
XRECORD
  5
B7
102
{ACAD_REACTORS
330
9E
102
}
330
9E
100
AcDbXrecord
 10
0.0
 20
0.0
 30
0.0
  0
XRECORD
  5
B4
102
{ACAD_REACTORS
330
9E
102
}
330
9E
100
AcDbXrecord
340
0
  0
XRECORD
  5
B5
102
{ACAD_REACTORS
330
9E
102
}
330
9E
100
AcDbXrecord
 70
     0
  0
XRECORD
  5
A9
102
{ACAD_REACTORS
330
9E
102
}
330
9E
100
AcDbXrecord
  1
{FAEB1C32-E019-11D5-929B-00C0DF256EC4}
  0
DICTIONARYVAR
  5
BF
102
{ACAD_REACTORS
330
BE
102
}
330
BE
100
DictionaryVariables
280
     0
  1
1:1
  0
ENDSEC
  0
EOF
