<?xml version="1.0" standalone="no"?>
<!DOCTYPE svg PUBLIC "-//W3C//DTD SVG 1.1//EN" "http://www.w3.org/Graphics/SVG/1.1/DTD/svg11.dtd">
<svg width="27mm" height="27mm" viewBox="9 -36 27 27" xmlns="http://www.w3.org/2000/svg" version="1.1">
<title>OpenSCAD Model</title>
<path d="
M 31,-9.00986 L 31.3139,-9.00986 L 31.9369,-9.08856 L 32.5451,-9.24471 L 33.1289,-9.47586 L 33.6791,-9.77835
 L 34.1871,-10.1474 L 34.6448,-10.5773 L 35.0451,-11.0611 L 35.3815,-11.5912 L 35.6489,-12.1594 L 35.8429,-12.7565
 L 35.9606,-13.3733 L 36,-14 L 36,-31 L 35.9606,-31.6267 L 35.8429,-32.2434 L 35.6489,-32.8406
 L 35.3815,-33.4088 L 35.0451,-33.9389 L 34.6448,-34.4227 L 34.1871,-34.8526 L 33.6791,-35.2216 L 33.1289,-35.5241
 L 32.5451,-35.7553 L 31.9369,-35.9114 L 31.3139,-35.9901 L 31,-35.9901 L 31,-36 L 14,-36
 L 14,-35.9901 L 13.686,-35.9901 L 13.0631,-35.9114 L 12.4549,-35.7553 L 11.8711,-35.5241 L 11.3209,-35.2216
 L 10.8129,-34.8526 L 10.3551,-34.4227 L 9.95491,-33.9389 L 9.61845,-33.4088 L 9.3511,-32.8406 L 9.15707,-32.2434
 L 9.03941,-31.6267 L 9,-31 L 9,-14 L 9.03941,-13.3733 L 9.15707,-12.7565 L 9.3511,-12.1594
 L 9.61845,-11.5912 L 9.95491,-11.0611 L 10.3551,-10.5773 L 10.8129,-10.1474 L 11.3209,-9.77835 L 11.8711,-9.47586
 L 12.4549,-9.24471 L 13.0631,-9.08856 L 13.686,-9.00986 L 14,-9.00986 L 14,-9 L 31,-9
 z
M 14.8116,-27.0059 L 14.4379,-27.0531 L 14.0729,-27.1468 L 13.7227,-27.2855 L 13.3925,-27.467 L 13.0877,-27.6884
 L 12.8131,-27.9464 L 12.5729,-28.2366 L 12.3711,-28.5547 L 12.2107,-28.8956 L 12.0942,-29.2539 L 12.0237,-29.624
 L 12,-30 L 12.0237,-30.376 L 12.0942,-30.7461 L 12.2107,-31.1044 L 12.3711,-31.4453 L 12.5729,-31.7634
 L 12.8131,-32.0536 L 13.0877,-32.3115 L 13.3925,-32.533 L 13.7227,-32.7145 L 14.0729,-32.8532 L 14.4379,-32.9469
 L 14.8116,-32.9941 L 15.1884,-32.9941 L 15.5621,-32.9469 L 15.927,-32.8532 L 16.2773,-32.7145 L 16.6075,-32.533
 L 16.9123,-32.3115 L 17.1869,-32.0536 L 17.427,-31.7634 L 17.6289,-31.4453 L 17.7893,-31.1044 L 17.9057,-30.7461
 L 17.9763,-30.376 L 18,-30 L 17.9763,-29.624 L 17.9057,-29.2539 L 17.7893,-28.8956 L 17.6289,-28.5547
 L 17.427,-28.2366 L 17.1869,-27.9464 L 16.9123,-27.6884 L 16.6075,-27.467 L 16.2773,-27.2855 L 15.927,-27.1468
 L 15.5621,-27.0531 L 15.1884,-27.0059 z
M 29.8116,-27.0059 L 29.4379,-27.0531 L 29.0729,-27.1468 L 28.7227,-27.2855 L 28.3925,-27.467 L 28.0877,-27.6884
 L 27.8131,-27.9464 L 27.5729,-28.2366 L 27.3711,-28.5547 L 27.2107,-28.8956 L 27.0942,-29.2539 L 27.0237,-29.624
 L 27,-30 L 27.0237,-30.376 L 27.0942,-30.7461 L 27.2107,-31.1044 L 27.3711,-31.4453 L 27.5729,-31.7634
 L 27.8131,-32.0536 L 28.0877,-32.3115 L 28.3925,-32.533 L 28.7227,-32.7145 L 29.0729,-32.8532 L 29.4379,-32.9469
 L 29.8116,-32.9941 L 30.1884,-32.9941 L 30.5621,-32.9469 L 30.927,-32.8532 L 31.2773,-32.7145 L 31.6075,-32.533
 L 31.9123,-32.3115 L 32.1869,-32.0536 L 32.427,-31.7634 L 32.6289,-31.4453 L 32.7893,-31.1044 L 32.9057,-30.7461
 L 32.9763,-30.376 L 33,-30 L 32.9763,-29.624 L 32.9057,-29.2539 L 32.7893,-28.8956 L 32.6289,-28.5547
 L 32.427,-28.2366 L 32.1869,-27.9464 L 31.9123,-27.6884 L 31.6075,-27.467 L 31.2773,-27.2855 L 30.927,-27.1468
 L 30.5621,-27.0531 L 30.1884,-27.0059 z
M 21,-28.5 L 21,-31.5 L 24,-31.5 L 24,-28.5 z
M 13.5,-21 L 13.5,-24 L 16.5,-24 L 16.5,-21 z
M 28.5,-21 L 28.5,-24 L 31.5,-24 L 31.5,-21 z
M 14.8116,-12.0059 L 14.4379,-12.0531 L 14.0729,-12.1468 L 13.7227,-12.2855 L 13.3925,-12.467 L 13.0877,-12.6884
 L 12.8131,-12.9464 L 12.5729,-13.2366 L 12.3711,-13.5547 L 12.2107,-13.8956 L 12.0942,-14.2539 L 12.0237,-14.624
 L 12,-15 L 12.0237,-15.376 L 12.0942,-15.7461 L 12.2107,-16.1044 L 12.3711,-16.4453 L 12.5729,-16.7634
 L 12.8131,-17.0536 L 13.0877,-17.3115 L 13.3925,-17.533 L 13.7227,-17.7145 L 14.0729,-17.8532 L 14.4379,-17.9469
 L 14.8116,-17.9941 L 15.1884,-17.9941 L 15.5621,-17.9469 L 15.927,-17.8532 L 16.2773,-17.7145 L 16.6075,-17.533
 L 16.9123,-17.3115 L 17.1869,-17.0536 L 17.427,-16.7634 L 17.6289,-16.4453 L 17.7893,-16.1044 L 17.9057,-15.7461
 L 17.9763,-15.376 L 18,-15 L 17.9763,-14.624 L 17.9057,-14.2539 L 17.7893,-13.8956 L 17.6289,-13.5547
 L 17.427,-13.2366 L 17.1869,-12.9464 L 16.9123,-12.6884 L 16.6075,-12.467 L 16.2773,-12.2855 L 15.927,-12.1468
 L 15.5621,-12.0531 L 15.1884,-12.0059 z
M 29.8116,-12.0059 L 29.4379,-12.0531 L 29.0729,-12.1468 L 28.7227,-12.2855 L 28.3925,-12.467 L 28.0877,-12.6884
 L 27.8131,-12.9464 L 27.5729,-13.2366 L 27.3711,-13.5547 L 27.2107,-13.8956 L 27.0942,-14.2539 L 27.0237,-14.624
 L 27,-15 L 27.0237,-15.376 L 27.0942,-15.7461 L 27.2107,-16.1044 L 27.3711,-16.4453 L 27.5729,-16.7634
 L 27.8131,-17.0536 L 28.0877,-17.3115 L 28.3925,-17.533 L 28.7227,-17.7145 L 29.0729,-17.8532 L 29.4379,-17.9469
 L 29.8116,-17.9941 L 30.1884,-17.9941 L 30.5621,-17.9469 L 30.927,-17.8532 L 31.2773,-17.7145 L 31.6075,-17.533
 L 31.9123,-17.3115 L 32.1869,-17.0536 L 32.427,-16.7634 L 32.6289,-16.4453 L 32.7893,-16.1044 L 32.9057,-15.7461
 L 32.9763,-15.376 L 33,-15 L 32.9763,-14.624 L 32.9057,-14.2539 L 32.7893,-13.8956 L 32.6289,-13.5547
 L 32.427,-13.2366 L 32.1869,-12.9464 L 31.9123,-12.6884 L 31.6075,-12.467 L 31.2773,-12.2855 L 30.927,-12.1468
 L 30.5621,-12.0531 L 30.1884,-12.0059 z
M 21,-13.5 L 21,-16.5 L 24,-16.5 L 24,-13.5 z
" stroke="black" fill="lightgray" stroke-width="0.5"/>
</svg>
