<?xml version="1.0" standalone="no"?>
<!DOCTYPE svg PUBLIC "-//W3C//DTD SVG 1.1//EN" "http://www.w3.org/Graphics/SVG/1.1/DTD/svg11.dtd">
<svg width="28mm" height="28mm" viewBox="-14 -14 28 28" xmlns="http://www.w3.org/2000/svg" version="1.1">
<title>OpenSCAD Model</title>
<path d="
M 8.81395,13.4901 L 9.12666,13.4606 L 9.4369,13.4114 L 9.74345,13.3429 L 10.0451,13.2553 L 10.3406,13.1489
 L 10.6289,13.0241 L 10.9088,12.8815 L 11.1791,12.7216 L 11.4389,12.5451 L 11.6871,12.3526 L 11.9227,12.1448
 L 12.1448,11.9227 L 12.3526,11.6871 L 12.5451,11.4389 L 12.7216,11.1791 L 12.8815,10.9088 L 13.0241,10.6289
 L 13.1489,10.3406 L 13.2553,10.0451 L 13.3429,9.74345 L 13.4114,9.4369 L 13.4606,9.12666 L 13.4901,8.81395
 L 13.5,8.5 L 13.5,-8.5 L 13.4901,-8.81395 L 13.4606,-9.12666 L 13.4114,-9.4369 L 13.3429,-9.74345
 L 13.2553,-10.0451 L 13.1489,-10.3406 L 13.0241,-10.6289 L 12.8815,-10.9088 L 12.7216,-11.1791 L 12.5451,-11.4389
 L 12.3526,-11.6871 L 12.1448,-11.9227 L 11.9227,-12.1448 L 11.6871,-12.3526 L 11.4389,-12.5451 L 11.1791,-12.7216
 L 10.9088,-12.8815 L 10.6289,-13.0241 L 10.3406,-13.1489 L 10.0451,-13.2553 L 9.74345,-13.3429 L 9.4369,-13.4114
 L 9.12666,-13.4606 L 8.81395,-13.4901 L 8.5,-13.5 L -8.5,-13.5 L -8.81395,-13.4901 L -9.12666,-13.4606
 L -9.4369,-13.4114 L -9.74345,-13.3429 L -10.0451,-13.2553 L -10.3406,-13.1489 L -10.6289,-13.0241 L -10.9088,-12.8815
 L -11.1791,-12.7216 L -11.4389,-12.5451 L -11.6871,-12.3526 L -11.9227,-12.1448 L -12.1448,-11.9227 L -12.3526,-11.6871
 L -12.5451,-11.4389 L -12.7216,-11.1791 L -12.8815,-10.9088 L -13.0241,-10.6289 L -13.1489,-10.3406 L -13.2553,-10.0451
 L -13.3429,-9.74345 L -13.4114,-9.4369 L -13.4606,-9.12666 L -13.4901,-8.81395 L -13.5,-8.5 L -13.5,8.5
 L -13.4901,8.81395 L -13.4606,9.12666 L -13.4114,9.4369 L -13.3429,9.74345 L -13.2553,10.0451 L -13.1489,10.3406
 L -13.0241,10.6289 L -12.8815,10.9088 L -12.7216,11.1791 L -12.5451,11.4389 L -12.3526,11.6871 L -12.1448,11.9227
 L -11.9227,12.1448 L -11.6871,12.3526 L -11.4389,12.5451 L -11.1791,12.7216 L -10.9088,12.8815 L -10.6289,13.0241
 L -10.3406,13.1489 L -10.0451,13.2553 L -9.74345,13.3429 L -9.4369,13.4114 L -9.12666,13.4606 L -8.81395,13.4901
 L -8.5,13.5 L 8.5,13.5 z
M 5.07294,-5.73663 L 4.96701,-5.89252 L 4.87108,-6.05473 L 4.78551,-6.22266 L 4.71066,-6.39561 L 4.64682,-6.57294
 L 4.59424,-6.75392 L 4.55313,-6.93785 L 4.52365,-7.12399 L 4.50591,-7.31161 L 4.5,-7.5 L 4.50591,-7.68837
 L 4.52365,-7.87599 L 4.55313,-8.06213 L 4.59424,-8.24606 L 4.64682,-8.42705 L 4.71066,-8.60437 L 4.78551,-8.77733
 L 4.87108,-8.94525 L 4.96701,-9.10747 L 5.07294,-9.26335 L 5.18845,-9.41226 L 5.31308,-9.55363 L 5.44635,-9.6869
 L 5.58772,-9.81154 L 5.73663,-9.92705 L 5.89252,-10.033 L 6.05473,-10.1289 L 6.22266,-10.2145 L 6.39561,-10.2893
 L 6.57294,-10.3532 L 6.75392,-10.4057 L 6.93785,-10.4469 L 7.12399,-10.4763 L 7.31161,-10.4941 L 7.5,-10.5
 L 7.68837,-10.4941 L 7.87599,-10.4763 L 8.06213,-10.4469 L 8.24606,-10.4057 L 8.42705,-10.3532 L 8.60437,-10.2893
 L 8.77733,-10.2145 L 8.94525,-10.1289 L 9.10747,-10.033 L 9.26335,-9.92705 L 9.41226,-9.81154 L 9.55363,-9.6869
 L 9.6869,-9.55363 L 9.81154,-9.41226 L 9.92705,-9.26335 L 10.033,-9.10747 L 10.1289,-8.94525 L 10.2145,-8.77733
 L 10.2893,-8.60437 L 10.3532,-8.42705 L 10.4057,-8.24606 L 10.4469,-8.06213 L 10.4763,-7.87599 L 10.4941,-7.68837
 L 10.5,-7.5 L 10.4941,-7.31161 L 10.4763,-7.12399 L 10.4469,-6.93785 L 10.4057,-6.75392 L 10.3532,-6.57294
 L 10.2893,-6.39561 L 10.2145,-6.22266 L 10.1289,-6.05473 L 10.033,-5.89252 L 9.92705,-5.73663 L 9.81154,-5.58772
 L 9.6869,-5.44635 L 9.55363,-5.31308 L 9.41226,-5.18845 L 9.26335,-5.07294 L 9.10747,-4.96701 L 8.94525,-4.87108
 L 8.77733,-4.78551 L 8.60437,-4.71066 L 8.42705,-4.64682 L 8.24606,-4.59424 L 8.06213,-4.55313 L 7.87599,-4.52365
 L 7.68837,-4.50591 L 7.5,-4.5 L 7.31161,-4.50591 L 7.12399,-4.52365 L 6.93785,-4.55313 L 6.75392,-4.59424
 L 6.57294,-4.64682 L 6.39561,-4.71066 L 6.22266,-4.78551 L 6.05473,-4.87108 L 5.89252,-4.96701 L 5.73663,-5.07294
 L 5.58772,-5.18845 L 5.44635,-5.31308 L 5.31308,-5.44635 L 5.18845,-5.58772 z
M -7.68837,10.4941 L -7.87599,10.4763 L -8.06213,10.4469 L -8.24606,10.4057 L -8.42705,10.3532 L -8.60437,10.2893
 L -8.77733,10.2145 L -8.94525,10.1289 L -9.10747,10.033 L -9.26335,9.92705 L -9.41226,9.81154 L -9.55363,9.6869
 L -9.6869,9.55363 L -9.81154,9.41226 L -9.92705,9.26335 L -10.033,9.10747 L -10.1289,8.94525 L -10.2145,8.77733
 L -10.2893,8.60437 L -10.3532,8.42705 L -10.4057,8.24606 L -10.4469,8.06213 L -10.4763,7.87599 L -10.4941,7.68837
 L -10.5,7.5 L -10.4941,7.31161 L -10.4763,7.12399 L -10.4469,6.93785 L -10.4057,6.75392 L -10.3532,6.57294
 L -10.2893,6.39561 L -10.2145,6.22266 L -10.1289,6.05473 L -10.033,5.89252 L -9.92705,5.73663 L -9.81154,5.58772
 L -9.6869,5.44635 L -9.55363,5.31308 L -9.41226,5.18845 L -9.26335,5.07294 L -9.10747,4.96701 L -8.94525,4.87108
 L -8.77733,4.78551 L -8.60437,4.71066 L -8.42705,4.64682 L -8.24606,4.59424 L -8.06213,4.55313 L -7.87599,4.52365
 L -7.68837,4.50591 L -7.5,4.5 L -7.31161,4.50591 L -7.12399,4.52365 L -6.93785,4.55313 L -6.75392,4.59424
 L -6.57294,4.64682 L -6.39561,4.71066 L -6.22266,4.78551 L -6.05473,4.87108 L -5.89252,4.96701 L -5.73663,5.07294
 L -5.58772,5.18845 L -5.44635,5.31308 L -5.31308,5.44635 L -5.18845,5.58772 L -5.07294,5.73663 L -4.96701,5.89252
 L -4.87108,6.05473 L -4.78551,6.22266 L -4.71066,6.39561 L -4.64682,6.57294 L -4.59424,6.75392 L -4.55313,6.93785
 L -4.52365,7.12399 L -4.50591,7.31161 L -4.5,7.5 L -4.50591,7.68837 L -4.52365,7.87599 L -4.55313,8.06213
 L -4.59424,8.24606 L -4.64682,8.42705 L -4.71066,8.60437 L -4.78551,8.77733 L -4.87108,8.94525 L -4.96701,9.10747
 L -5.07294,9.26335 L -5.18845,9.41226 L -5.31308,9.55363 L -5.44635,9.6869 L -5.58772,9.81154 L -5.73663,9.92705
 L -5.89252,10.033 L -6.05473,10.1289 L -6.22266,10.2145 L -6.39561,10.2893 L -6.57294,10.3532 L -6.75392,10.4057
 L -6.93785,10.4469 L -7.12399,10.4763 L -7.31161,10.4941 L -7.5,10.5 z
M 7.31161,10.4941 L 7.12399,10.4763 L 6.93785,10.4469 L 6.75392,10.4057 L 6.57294,10.3532 L 6.39561,10.2893
 L 6.22266,10.2145 L 6.05473,10.1289 L 5.89252,10.033 L 5.73663,9.92705 L 5.58772,9.81154 L 5.44635,9.6869
 L 5.31308,9.55363 L 5.18845,9.41226 L 5.07294,9.26335 L 4.96701,9.10747 L 4.87108,8.94525 L 4.78551,8.77733
 L 4.71066,8.60437 L 4.64682,8.42705 L 4.59424,8.24606 L 4.55313,8.06213 L 4.52365,7.87599 L 4.50591,7.68837
 L 4.5,7.5 L 4.50591,7.31161 L 4.52365,7.12399 L 4.55313,6.93785 L 4.59424,6.75392 L 4.64682,6.57294
 L 4.71066,6.39561 L 4.78551,6.22266 L 4.87108,6.05473 L 4.96701,5.89252 L 5.07294,5.73663 L 5.18845,5.58772
 L 5.31308,5.44635 L 5.44635,5.31308 L 5.58772,5.18845 L 5.73663,5.07294 L 5.89252,4.96701 L 6.05473,4.87108
 L 6.22266,4.78551 L 6.39561,4.71066 L 6.57294,4.64682 L 6.75392,4.59424 L 6.93785,4.55313 L 7.12399,4.52365
 L 7.31161,4.50591 L 7.5,4.5 L 7.68837,4.50591 L 7.87599,4.52365 L 8.06213,4.55313 L 8.24606,4.59424
 L 8.42705,4.64682 L 8.60437,4.71066 L 8.77733,4.78551 L 8.94525,4.87108 L 9.10747,4.96701 L 9.26335,5.07294
 L 9.41226,5.18845 L 9.55363,5.31308 L 9.6869,5.44635 L 9.81154,5.58772 L 9.92705,5.73663 L 10.033,5.89252
 L 10.1289,6.05473 L 10.2145,6.22266 L 10.2893,6.39561 L 10.3532,6.57294 L 10.4057,6.75392 L 10.4469,6.93785
 L 10.4763,7.12399 L 10.4941,7.31161 L 10.5,7.5 L 10.4941,7.68837 L 10.4763,7.87599 L 10.4469,8.06213
 L 10.4057,8.24606 L 10.3532,8.42705 L 10.2893,8.60437 L 10.2145,8.77733 L 10.1289,8.94525 L 10.033,9.10747
 L 9.92705,9.26335 L 9.81154,9.41226 L 9.6869,9.55363 L 9.55363,9.6869 L 9.41226,9.81154 L 9.26335,9.92705
 L 9.10747,10.033 L 8.94525,10.1289 L 8.77733,10.2145 L 8.60437,10.2893 L 8.42705,10.3532 L 8.24606,10.4057
 L 8.06213,10.4469 L 7.87599,10.4763 L 7.68837,10.4941 L 7.5,10.5 z
M -5.58772,-5.18845 L -5.73663,-5.07294 L -5.89252,-4.96701 L -6.05473,-4.87108 L -6.22266,-4.78551 L -6.39561,-4.71066
 L -6.57294,-4.64682 L -6.75392,-4.59424 L -6.93785,-4.55313 L -7.12399,-4.52365 L -7.31161,-4.50591 L -7.5,-4.5
 L -7.68837,-4.50591 L -7.87599,-4.52365 L -8.06213,-4.55313 L -8.24606,-4.59424 L -8.42705,-4.64682 L -8.60437,-4.71066
 L -8.77733,-4.78551 L -8.94525,-4.87108 L -9.10747,-4.96701 L -9.26335,-5.07294 L -9.41226,-5.18845 L -9.55363,-5.31308
 L -9.6869,-5.44635 L -9.81154,-5.58772 L -9.92705,-5.73663 L -10.033,-5.89252 L -10.1289,-6.05473 L -10.2145,-6.22266
 L -10.2893,-6.39561 L -10.3532,-6.57294 L -10.4057,-6.75392 L -10.4469,-6.93785 L -10.4763,-7.12399 L -10.4941,-7.31161
 L -10.5,-7.5 L -10.4941,-7.68837 L -10.4763,-7.87599 L -10.4469,-8.06213 L -10.4057,-8.24606 L -10.3532,-8.42705
 L -10.2893,-8.60437 L -10.2145,-8.77733 L -10.1289,-8.94525 L -10.033,-9.10747 L -9.92705,-9.26335 L -9.81154,-9.41226
 L -9.6869,-9.55363 L -9.55363,-9.6869 L -9.41226,-9.81154 L -9.26335,-9.92705 L -9.10747,-10.033 L -8.94525,-10.1289
 L -8.77733,-10.2145 L -8.60437,-10.2893 L -8.42705,-10.3532 L -8.24606,-10.4057 L -8.06213,-10.4469 L -7.87599,-10.4763
 L -7.68837,-10.4941 L -7.5,-10.5 L -7.31161,-10.4941 L -7.12399,-10.4763 L -6.93785,-10.4469 L -6.75392,-10.4057
 L -6.57294,-10.3532 L -6.39561,-10.2893 L -6.22266,-10.2145 L -6.05473,-10.1289 L -5.89252,-10.033 L -5.73663,-9.92705
 L -5.58772,-9.81154 L -5.44635,-9.6869 L -5.31308,-9.55363 L -5.18845,-9.41226 L -5.07294,-9.26335 L -4.96701,-9.10747
 L -4.87108,-8.94525 L -4.78551,-8.77733 L -4.71066,-8.60437 L -4.64682,-8.42705 L -4.59424,-8.24606 L -4.55313,-8.06213
 L -4.52365,-7.87599 L -4.50591,-7.68837 L -4.5,-7.5 L -4.50591,-7.31161 L -4.52365,-7.12399 L -4.55313,-6.93785
 L -4.59424,-6.75392 L -4.64682,-6.57294 L -4.71066,-6.39561 L -4.78551,-6.22266 L -4.87108,-6.05473 L -4.96701,-5.89252
 L -5.07294,-5.73663 L -5.18845,-5.58772 L -5.31308,-5.44635 L -5.44635,-5.31308 z
" stroke="black" fill="lightgray" stroke-width="0.5"/>
</svg>
