solid OpenSCAD_Model
  facet normal -0.929776 0.368125 0
    outer loop
      vertex -4.652 -9.0657 -3
      vertex -4.3521 -8.30824 0
      vertex -4.3521 -8.30824 -3
    endloop
  endfacet
  facet normal -0.929776 0.368125 0
    outer loop
      vertex -4.3521 -8.30824 0
      vertex -4.652 -9.0657 -3
      vertex -4.652 -9.0657 0
    endloop
  endfacet
  facet normal -0.992115 0.125328 0
    outer loop
      vertex -4.3521 -8.30824 -3
      vertex -4.25 -7.5 0
      vertex -4.25 -7.5 -3
    endloop
  endfacet
  facet normal -0.992115 0.125328 0
    outer loop
      vertex -4.25 -7.5 0
      vertex -4.3521 -8.30824 -3
      vertex -4.3521 -8.30824 0
    endloop
  endfacet
  facet normal -0.992115 -0.125328 0
    outer loop
      vertex -4.25 -7.5 -3
      vertex -4.3521 -6.69176 0
      vertex -4.3521 -6.69176 -3
    endloop
  endfacet
  facet normal -0.992115 -0.125328 0
    outer loop
      vertex -4.3521 -6.69176 0
      vertex -4.25 -7.5 -3
      vertex -4.25 -7.5 0
    endloop
  endfacet
  facet normal 1 -0 0
    outer loop
      vertex -10.7244 -7.90733 0
      vertex -10.7244 -7.09267 -3
      vertex -10.7244 -7.09267 0
    endloop
  endfacet
  facet normal 1 0 0
    outer loop
      vertex -10.7244 -7.09267 -3
      vertex -10.7244 -7.90733 0
      vertex -10.7244 -7.90733 -3
    endloop
  endfacet
  facet normal 0.0627986 -0.998026 0
    outer loop
      vertex -8.10899 -4.30757 -3
      vertex -7.29593 -4.25641 0
      vertex -8.10899 -4.30757 0
    endloop
  endfacet
  facet normal 0.0627986 -0.998026 0
    outer loop
      vertex -7.29593 -4.25641 0
      vertex -8.10899 -4.30757 -3
      vertex -7.29593 -4.25641 -3
    endloop
  endfacet
  facet normal 0.968583 0.248691 0
    outer loop
      vertex -10.5218 -8.6964 0
      vertex -10.7244 -7.90733 -3
      vertex -10.7244 -7.90733 0
    endloop
  endfacet
  facet normal 0.968583 0.248691 0
    outer loop
      vertex -10.7244 -7.90733 -3
      vertex -10.5218 -8.6964 0
      vertex -10.5218 -8.6964 -3
    endloop
  endfacet
  facet normal -0.637448 0.770493 0
    outer loop
      vertex -5.13085 -9.72478 -3
      vertex -5.75856 -10.2441 0
      vertex -5.13085 -9.72478 0
    endloop
  endfacet
  facet normal -0.637448 0.770493 0
    outer loop
      vertex -5.75856 -10.2441 0
      vertex -5.13085 -9.72478 -3
      vertex -5.75856 -10.2441 -3
    endloop
  endfacet
  facet normal -0.809017 0.587786 0
    outer loop
      vertex -5.13085 -9.72478 -3
      vertex -4.652 -9.0657 0
      vertex -4.652 -9.0657 -3
    endloop
  endfacet
  facet normal -0.809017 0.587786 0
    outer loop
      vertex -4.652 -9.0657 0
      vertex -5.13085 -9.72478 -3
      vertex -5.13085 -9.72478 0
    endloop
  endfacet
  facet normal 0.535807 0.844341 -0
    outer loop
      vertex -8.88378 -10.4407 -3
      vertex -9.57163 -10.0042 0
      vertex -8.88378 -10.4407 0
    endloop
  endfacet
  facet normal 0.535807 0.844341 0
    outer loop
      vertex -9.57163 -10.0042 0
      vertex -8.88378 -10.4407 -3
      vertex -9.57163 -10.0042 -3
    endloop
  endfacet
  facet normal 0.0628475 0.998023 -0
    outer loop
      vertex -7.29593 -10.7436 -3
      vertex -8.10899 -10.6924 0
      vertex -7.29593 -10.7436 0
    endloop
  endfacet
  facet normal 0.0628475 0.998023 0
    outer loop
      vertex -8.10899 -10.6924 0
      vertex -7.29593 -10.7436 -3
      vertex -8.10899 -10.6924 -3
    endloop
  endfacet
  facet normal 0.968584 -0.248688 0
    outer loop
      vertex -10.7244 -7.09267 0
      vertex -10.5218 -6.30359 -3
      vertex -10.5218 -6.30359 0
    endloop
  endfacet
  facet normal 0.968584 -0.248688 0
    outer loop
      vertex -10.5218 -6.30359 -3
      vertex -10.7244 -7.09267 0
      vertex -10.7244 -7.09267 -3
    endloop
  endfacet
  facet normal -0.809017 -0.587786 0
    outer loop
      vertex -4.652 -5.9343 -3
      vertex -5.13085 -5.27522 0
      vertex -5.13085 -5.27522 -3
    endloop
  endfacet
  facet normal -0.809017 -0.587786 0
    outer loop
      vertex -5.13085 -5.27522 0
      vertex -4.652 -5.9343 -3
      vertex -4.652 -5.9343 0
    endloop
  endfacet
  facet normal 0.728975 -0.68454 0
    outer loop
      vertex -10.1293 -5.5897 0
      vertex -9.57163 -4.99583 -3
      vertex -9.57163 -4.99583 0
    endloop
  endfacet
  facet normal 0.728975 -0.68454 0
    outer loop
      vertex -9.57163 -4.99583 -3
      vertex -10.1293 -5.5897 0
      vertex -10.1293 -5.5897 -3
    endloop
  endfacet
  facet normal 0.876288 -0.481787 0
    outer loop
      vertex -10.5218 -6.30359 0
      vertex -10.1293 -5.5897 -3
      vertex -10.1293 -5.5897 0
    endloop
  endfacet
  facet normal 0.876288 -0.481787 0
    outer loop
      vertex -10.1293 -5.5897 -3
      vertex -10.5218 -6.30359 0
      vertex -10.5218 -6.30359 -3
    endloop
  endfacet
  facet normal 0.728993 0.684522 0
    outer loop
      vertex -9.57163 -10.0042 0
      vertex -10.1293 -9.4103 -3
      vertex -10.1293 -9.4103 0
    endloop
  endfacet
  facet normal 0.728993 0.684522 0
    outer loop
      vertex -10.1293 -9.4103 -3
      vertex -9.57163 -10.0042 0
      vertex -9.57163 -10.0042 -3
    endloop
  endfacet
  facet normal 0.876291 0.481782 0
    outer loop
      vertex -10.1293 -9.4103 0
      vertex -10.5218 -8.6964 -3
      vertex -10.5218 -8.6964 0
    endloop
  endfacet
  facet normal 0.876291 0.481782 0
    outer loop
      vertex -10.5218 -8.6964 -3
      vertex -10.1293 -9.4103 0
      vertex -10.1293 -9.4103 -3
    endloop
  endfacet
  facet normal 0.308968 0.951073 -0
    outer loop
      vertex -8.10899 -10.6924 -3
      vertex -8.88378 -10.4407 0
      vertex -8.10899 -10.6924 0
    endloop
  endfacet
  facet normal 0.308968 0.951073 0
    outer loop
      vertex -8.88378 -10.4407 0
      vertex -8.10899 -10.6924 -3
      vertex -8.88378 -10.4407 -3
    endloop
  endfacet
  facet normal -0.187436 0.982277 0
    outer loop
      vertex -6.49569 -10.5909 -3
      vertex -7.29593 -10.7436 0
      vertex -6.49569 -10.5909 0
    endloop
  endfacet
  facet normal -0.187436 0.982277 0
    outer loop
      vertex -7.29593 -10.7436 0
      vertex -6.49569 -10.5909 -3
      vertex -7.29593 -10.7436 -3
    endloop
  endfacet
  facet normal -0.187388 -0.982286 0
    outer loop
      vertex -7.29593 -4.25641 -3
      vertex -6.49569 -4.40907 0
      vertex -7.29593 -4.25641 0
    endloop
  endfacet
  facet normal -0.187388 -0.982286 -0
    outer loop
      vertex -6.49569 -4.40907 0
      vertex -7.29593 -4.25641 -3
      vertex -6.49569 -4.40907 -3
    endloop
  endfacet
  facet normal -0.637426 -0.770511 0
    outer loop
      vertex -5.75856 -4.75593 -3
      vertex -5.13085 -5.27522 0
      vertex -5.75856 -4.75593 0
    endloop
  endfacet
  facet normal -0.637426 -0.770511 -0
    outer loop
      vertex -5.13085 -5.27522 0
      vertex -5.75856 -4.75593 -3
      vertex -5.13085 -5.27522 -3
    endloop
  endfacet
  facet normal -0.425772 -0.90483 0
    outer loop
      vertex -6.49569 -4.40907 -3
      vertex -5.75856 -4.75593 0
      vertex -6.49569 -4.40907 0
    endloop
  endfacet
  facet normal -0.425772 -0.90483 -0
    outer loop
      vertex -5.75856 -4.75593 0
      vertex -6.49569 -4.40907 -3
      vertex -5.75856 -4.75593 -3
    endloop
  endfacet
  facet normal -0.425712 0.904859 0
    outer loop
      vertex -5.75856 -10.2441 -3
      vertex -6.49569 -10.5909 0
      vertex -5.75856 -10.2441 0
    endloop
  endfacet
  facet normal -0.425712 0.904859 0
    outer loop
      vertex -6.49569 -10.5909 0
      vertex -5.75856 -10.2441 -3
      vertex -6.49569 -10.5909 -3
    endloop
  endfacet
  facet normal -0.929776 -0.368125 0
    outer loop
      vertex -4.3521 -6.69176 -3
      vertex -4.652 -5.9343 0
      vertex -4.652 -5.9343 -3
    endloop
  endfacet
  facet normal -0.929776 -0.368125 0
    outer loop
      vertex -4.652 -5.9343 0
      vertex -4.3521 -6.69176 -3
      vertex -4.3521 -6.69176 0
    endloop
  endfacet
  facet normal 0.535824 -0.84433 0
    outer loop
      vertex -9.57163 -4.99583 -3
      vertex -8.88378 -4.55931 0
      vertex -9.57163 -4.99583 0
    endloop
  endfacet
  facet normal 0.535824 -0.84433 0
    outer loop
      vertex -8.88378 -4.55931 0
      vertex -9.57163 -4.99583 -3
      vertex -8.88378 -4.55931 -3
    endloop
  endfacet
  facet normal 0.309012 -0.951058 0
    outer loop
      vertex -8.88378 -4.55931 -3
      vertex -8.10899 -4.30757 0
      vertex -8.88378 -4.55931 0
    endloop
  endfacet
  facet normal 0.309012 -0.951058 0
    outer loop
      vertex -8.10899 -4.30757 0
      vertex -8.88378 -4.55931 -3
      vertex -8.10899 -4.30757 -3
    endloop
  endfacet
  facet normal -0.992115 0.125328 0
    outer loop
      vertex 10.6479 -8.30824 -3
      vertex 10.75 -7.5 0
      vertex 10.75 -7.5 -3
    endloop
  endfacet
  facet normal -0.992115 0.125328 0
    outer loop
      vertex 10.75 -7.5 0
      vertex 10.6479 -8.30824 -3
      vertex 10.6479 -8.30824 0
    endloop
  endfacet
  facet normal -0.992115 -0.125328 0
    outer loop
      vertex 10.75 -7.5 -3
      vertex 10.6479 -6.69176 0
      vertex 10.6479 -6.69176 -3
    endloop
  endfacet
  facet normal -0.992115 -0.125328 0
    outer loop
      vertex 10.6479 -6.69176 0
      vertex 10.75 -7.5 -3
      vertex 10.75 -7.5 0
    endloop
  endfacet
  facet normal 0.876312 0.481744 0
    outer loop
      vertex 4.87069 -9.4103 0
      vertex 4.47823 -8.6964 -3
      vertex 4.47823 -8.6964 0
    endloop
  endfacet
  facet normal 0.876312 0.481744 0
    outer loop
      vertex 4.47823 -8.6964 -3
      vertex 4.87069 -9.4103 0
      vertex 4.87069 -9.4103 -3
    endloop
  endfacet
  facet normal -0.809017 0.587786 0
    outer loop
      vertex 9.86915 -9.72478 -3
      vertex 10.348 -9.0657 0
      vertex 10.348 -9.0657 -3
    endloop
  endfacet
  facet normal -0.809017 0.587786 0
    outer loop
      vertex 10.348 -9.0657 0
      vertex 9.86915 -9.72478 -3
      vertex 9.86915 -9.72478 0
    endloop
  endfacet
  facet normal -0.929776 0.368125 0
    outer loop
      vertex 10.348 -9.0657 -3
      vertex 10.6479 -8.30824 0
      vertex 10.6479 -8.30824 -3
    endloop
  endfacet
  facet normal -0.929776 0.368125 0
    outer loop
      vertex 10.6479 -8.30824 0
      vertex 10.348 -9.0657 -3
      vertex 10.348 -9.0657 0
    endloop
  endfacet
  facet normal -0.425767 -0.904833 0
    outer loop
      vertex 8.5043 -4.40907 -3
      vertex 9.24144 -4.75593 0
      vertex 8.5043 -4.40907 0
    endloop
  endfacet
  facet normal -0.425767 -0.904833 -0
    outer loop
      vertex 9.24144 -4.75593 0
      vertex 8.5043 -4.40907 -3
      vertex 9.24144 -4.75593 -3
    endloop
  endfacet
  facet normal 0.968583 0.248691 0
    outer loop
      vertex 4.47823 -8.6964 0
      vertex 4.27563 -7.90733 -3
      vertex 4.27563 -7.90733 0
    endloop
  endfacet
  facet normal 0.968583 0.248691 0
    outer loop
      vertex 4.27563 -7.90733 -3
      vertex 4.47823 -8.6964 0
      vertex 4.47823 -8.6964 -3
    endloop
  endfacet
  facet normal 0.728987 0.684528 0
    outer loop
      vertex 5.42837 -10.0042 0
      vertex 4.87069 -9.4103 -3
      vertex 4.87069 -9.4103 0
    endloop
  endfacet
  facet normal 0.728987 0.684528 0
    outer loop
      vertex 4.87069 -9.4103 -3
      vertex 5.42837 -10.0042 0
      vertex 5.42837 -10.0042 -3
    endloop
  endfacet
  facet normal 0.308968 0.951073 -0
    outer loop
      vertex 6.89101 -10.6924 -3
      vertex 6.11622 -10.4407 0
      vertex 6.89101 -10.6924 0
    endloop
  endfacet
  facet normal 0.308968 0.951073 0
    outer loop
      vertex 6.11622 -10.4407 0
      vertex 6.89101 -10.6924 -3
      vertex 6.11622 -10.4407 -3
    endloop
  endfacet
  facet normal 0.535807 0.844341 -0
    outer loop
      vertex 6.11622 -10.4407 -3
      vertex 5.42837 -10.0042 0
      vertex 6.11622 -10.4407 0
    endloop
  endfacet
  facet normal 0.535807 0.844341 0
    outer loop
      vertex 5.42837 -10.0042 0
      vertex 6.11622 -10.4407 -3
      vertex 5.42837 -10.0042 -3
    endloop
  endfacet
  facet normal 0.0628475 0.998023 -0
    outer loop
      vertex 7.70407 -10.7436 -3
      vertex 6.89101 -10.6924 0
      vertex 7.70407 -10.7436 0
    endloop
  endfacet
  facet normal 0.0628475 0.998023 0
    outer loop
      vertex 6.89101 -10.6924 0
      vertex 7.70407 -10.7436 -3
      vertex 6.89101 -10.6924 -3
    endloop
  endfacet
  facet normal -0.187438 0.982276 0
    outer loop
      vertex 8.5043 -10.5909 -3
      vertex 7.70407 -10.7436 0
      vertex 8.5043 -10.5909 0
    endloop
  endfacet
  facet normal -0.187438 0.982276 0
    outer loop
      vertex 7.70407 -10.7436 0
      vertex 8.5043 -10.5909 -3
      vertex 7.70407 -10.7436 -3
    endloop
  endfacet
  facet normal -0.637448 0.770493 0
    outer loop
      vertex 9.86915 -9.72478 -3
      vertex 9.24144 -10.2441 0
      vertex 9.86915 -9.72478 0
    endloop
  endfacet
  facet normal -0.637448 0.770493 0
    outer loop
      vertex 9.24144 -10.2441 0
      vertex 9.86915 -9.72478 -3
      vertex 9.24144 -10.2441 -3
    endloop
  endfacet
  facet normal 1 -0 0
    outer loop
      vertex 4.27563 -7.90733 0
      vertex 4.27563 -7.09267 -3
      vertex 4.27563 -7.09267 0
    endloop
  endfacet
  facet normal 1 0 0
    outer loop
      vertex 4.27563 -7.09267 -3
      vertex 4.27563 -7.90733 0
      vertex 4.27563 -7.90733 -3
    endloop
  endfacet
  facet normal 0.968584 -0.248688 0
    outer loop
      vertex 4.27563 -7.09267 0
      vertex 4.47823 -6.30359 -3
      vertex 4.47823 -6.30359 0
    endloop
  endfacet
  facet normal 0.968584 -0.248688 0
    outer loop
      vertex 4.47823 -6.30359 -3
      vertex 4.27563 -7.09267 0
      vertex 4.27563 -7.09267 -3
    endloop
  endfacet
  facet normal 0.0627986 -0.998026 0
    outer loop
      vertex 6.89101 -4.30757 -3
      vertex 7.70407 -4.25641 0
      vertex 6.89101 -4.30757 0
    endloop
  endfacet
  facet normal 0.0627986 -0.998026 0
    outer loop
      vertex 7.70407 -4.25641 0
      vertex 6.89101 -4.30757 -3
      vertex 7.70407 -4.25641 -3
    endloop
  endfacet
  facet normal -0.637426 -0.770511 0
    outer loop
      vertex 9.24144 -4.75593 -3
      vertex 9.86915 -5.27522 0
      vertex 9.24144 -4.75593 0
    endloop
  endfacet
  facet normal -0.637426 -0.770511 -0
    outer loop
      vertex 9.86915 -5.27522 0
      vertex 9.24144 -4.75593 -3
      vertex 9.86915 -5.27522 -3
    endloop
  endfacet
  facet normal 0.876309 -0.48175 0
    outer loop
      vertex 4.47823 -6.30359 0
      vertex 4.87069 -5.5897 -3
      vertex 4.87069 -5.5897 0
    endloop
  endfacet
  facet normal 0.876309 -0.48175 0
    outer loop
      vertex 4.87069 -5.5897 -3
      vertex 4.47823 -6.30359 0
      vertex 4.47823 -6.30359 -3
    endloop
  endfacet
  facet normal 0.728969 -0.684546 0
    outer loop
      vertex 4.87069 -5.5897 0
      vertex 5.42837 -4.99583 -3
      vertex 5.42837 -4.99583 0
    endloop
  endfacet
  facet normal 0.728969 -0.684546 0
    outer loop
      vertex 5.42837 -4.99583 -3
      vertex 4.87069 -5.5897 0
      vertex 4.87069 -5.5897 -3
    endloop
  endfacet
  facet normal -0.187391 -0.982285 0
    outer loop
      vertex 7.70407 -4.25641 -3
      vertex 8.5043 -4.40907 0
      vertex 7.70407 -4.25641 0
    endloop
  endfacet
  facet normal -0.187391 -0.982285 -0
    outer loop
      vertex 8.5043 -4.40907 0
      vertex 7.70407 -4.25641 -3
      vertex 8.5043 -4.40907 -3
    endloop
  endfacet
  facet normal 0.535824 -0.84433 0
    outer loop
      vertex 5.42837 -4.99583 -3
      vertex 6.11622 -4.55931 0
      vertex 5.42837 -4.99583 0
    endloop
  endfacet
  facet normal 0.535824 -0.84433 0
    outer loop
      vertex 6.11622 -4.55931 0
      vertex 5.42837 -4.99583 -3
      vertex 6.11622 -4.55931 -3
    endloop
  endfacet
  facet normal -0.425707 0.904861 0
    outer loop
      vertex 9.24144 -10.2441 -3
      vertex 8.5043 -10.5909 0
      vertex 9.24144 -10.2441 0
    endloop
  endfacet
  facet normal -0.425707 0.904861 0
    outer loop
      vertex 8.5043 -10.5909 0
      vertex 9.24144 -10.2441 -3
      vertex 8.5043 -10.5909 -3
    endloop
  endfacet
  facet normal -0.809017 -0.587786 0
    outer loop
      vertex 10.348 -5.9343 -3
      vertex 9.86915 -5.27522 0
      vertex 9.86915 -5.27522 -3
    endloop
  endfacet
  facet normal -0.809017 -0.587786 0
    outer loop
      vertex 9.86915 -5.27522 0
      vertex 10.348 -5.9343 -3
      vertex 10.348 -5.9343 0
    endloop
  endfacet
  facet normal 0.309012 -0.951058 0
    outer loop
      vertex 6.11622 -4.55931 -3
      vertex 6.89101 -4.30757 0
      vertex 6.11622 -4.55931 0
    endloop
  endfacet
  facet normal 0.309012 -0.951058 0
    outer loop
      vertex 6.89101 -4.30757 0
      vertex 6.11622 -4.55931 -3
      vertex 6.89101 -4.30757 -3
    endloop
  endfacet
  facet normal -0.929776 -0.368125 0
    outer loop
      vertex 10.6479 -6.69176 -3
      vertex 10.348 -5.9343 0
      vertex 10.348 -5.9343 -3
    endloop
  endfacet
  facet normal -0.929776 -0.368125 0
    outer loop
      vertex 10.348 -5.9343 0
      vertex 10.6479 -6.69176 -3
      vertex 10.6479 -6.69176 0
    endloop
  endfacet
  facet normal -0.929776 0.368125 0
    outer loop
      vertex -4.652 5.9343 -3
      vertex -4.3521 6.69176 0
      vertex -4.3521 6.69176 -3
    endloop
  endfacet
  facet normal -0.929776 0.368125 0
    outer loop
      vertex -4.3521 6.69176 0
      vertex -4.652 5.9343 -3
      vertex -4.652 5.9343 0
    endloop
  endfacet
  facet normal -0.992115 0.125328 0
    outer loop
      vertex -4.3521 6.69176 -3
      vertex -4.25 7.5 0
      vertex -4.25 7.5 -3
    endloop
  endfacet
  facet normal -0.992115 0.125328 0
    outer loop
      vertex -4.25 7.5 0
      vertex -4.3521 6.69176 -3
      vertex -4.3521 6.69176 0
    endloop
  endfacet
  facet normal -0.992115 -0.125328 0
    outer loop
      vertex -4.25 7.5 -3
      vertex -4.3521 8.30824 0
      vertex -4.3521 8.30824 -3
    endloop
  endfacet
  facet normal -0.992115 -0.125328 0
    outer loop
      vertex -4.3521 8.30824 0
      vertex -4.25 7.5 -3
      vertex -4.25 7.5 0
    endloop
  endfacet
  facet normal 1 -0 0
    outer loop
      vertex -10.7244 7.09267 0
      vertex -10.7244 7.90733 -3
      vertex -10.7244 7.90733 0
    endloop
  endfacet
  facet normal 1 0 0
    outer loop
      vertex -10.7244 7.90733 -3
      vertex -10.7244 7.09267 0
      vertex -10.7244 7.09267 -3
    endloop
  endfacet
  facet normal 0.0628475 -0.998023 0
    outer loop
      vertex -8.10899 10.6924 -3
      vertex -7.29593 10.7436 0
      vertex -8.10899 10.6924 0
    endloop
  endfacet
  facet normal 0.0628475 -0.998023 0
    outer loop
      vertex -7.29593 10.7436 0
      vertex -8.10899 10.6924 -3
      vertex -7.29593 10.7436 -3
    endloop
  endfacet
  facet normal -0.637426 0.770511 0
    outer loop
      vertex -5.13085 5.27522 -3
      vertex -5.75856 4.75593 0
      vertex -5.13085 5.27522 0
    endloop
  endfacet
  facet normal -0.637426 0.770511 0
    outer loop
      vertex -5.75856 4.75593 0
      vertex -5.13085 5.27522 -3
      vertex -5.75856 4.75593 -3
    endloop
  endfacet
  facet normal -0.809017 0.587786 0
    outer loop
      vertex -5.13085 5.27522 -3
      vertex -4.652 5.9343 0
      vertex -4.652 5.9343 -3
    endloop
  endfacet
  facet normal -0.809017 0.587786 0
    outer loop
      vertex -4.652 5.9343 0
      vertex -5.13085 5.27522 -3
      vertex -5.13085 5.27522 0
    endloop
  endfacet
  facet normal 0.535824 0.84433 -0
    outer loop
      vertex -8.88378 4.55931 -3
      vertex -9.57163 4.99583 0
      vertex -8.88378 4.55931 0
    endloop
  endfacet
  facet normal 0.535824 0.84433 0
    outer loop
      vertex -9.57163 4.99583 0
      vertex -8.88378 4.55931 -3
      vertex -9.57163 4.99583 -3
    endloop
  endfacet
  facet normal 0.0627986 0.998026 -0
    outer loop
      vertex -7.29593 4.25641 -3
      vertex -8.10899 4.30757 0
      vertex -7.29593 4.25641 0
    endloop
  endfacet
  facet normal 0.0627986 0.998026 0
    outer loop
      vertex -8.10899 4.30757 0
      vertex -7.29593 4.25641 -3
      vertex -8.10899 4.30757 -3
    endloop
  endfacet
  facet normal 0.968583 -0.248691 0
    outer loop
      vertex -10.7244 7.90733 0
      vertex -10.5218 8.6964 -3
      vertex -10.5218 8.6964 0
    endloop
  endfacet
  facet normal 0.968583 -0.248691 0
    outer loop
      vertex -10.5218 8.6964 -3
      vertex -10.7244 7.90733 0
      vertex -10.7244 7.90733 -3
    endloop
  endfacet
  facet normal -0.809017 -0.587786 0
    outer loop
      vertex -4.652 9.0657 -3
      vertex -5.13085 9.72478 0
      vertex -5.13085 9.72478 -3
    endloop
  endfacet
  facet normal -0.809017 -0.587786 0
    outer loop
      vertex -5.13085 9.72478 0
      vertex -4.652 9.0657 -3
      vertex -4.652 9.0657 0
    endloop
  endfacet
  facet normal 0.728993 -0.684522 0
    outer loop
      vertex -10.1293 9.4103 0
      vertex -9.57163 10.0042 -3
      vertex -9.57163 10.0042 0
    endloop
  endfacet
  facet normal 0.728993 -0.684522 0
    outer loop
      vertex -9.57163 10.0042 -3
      vertex -10.1293 9.4103 0
      vertex -10.1293 9.4103 -3
    endloop
  endfacet
  facet normal 0.876291 -0.481782 0
    outer loop
      vertex -10.5218 8.6964 0
      vertex -10.1293 9.4103 -3
      vertex -10.1293 9.4103 0
    endloop
  endfacet
  facet normal 0.876291 -0.481782 0
    outer loop
      vertex -10.1293 9.4103 -3
      vertex -10.5218 8.6964 0
      vertex -10.5218 8.6964 -3
    endloop
  endfacet
  facet normal 0.728975 0.68454 0
    outer loop
      vertex -9.57163 4.99583 0
      vertex -10.1293 5.5897 -3
      vertex -10.1293 5.5897 0
    endloop
  endfacet
  facet normal 0.728975 0.68454 0
    outer loop
      vertex -10.1293 5.5897 -3
      vertex -9.57163 4.99583 0
      vertex -9.57163 4.99583 -3
    endloop
  endfacet
  facet normal 0.876288 0.481787 0
    outer loop
      vertex -10.1293 5.5897 0
      vertex -10.5218 6.30359 -3
      vertex -10.5218 6.30359 0
    endloop
  endfacet
  facet normal 0.876288 0.481787 0
    outer loop
      vertex -10.5218 6.30359 -3
      vertex -10.1293 5.5897 0
      vertex -10.1293 5.5897 -3
    endloop
  endfacet
  facet normal 0.968584 0.248688 0
    outer loop
      vertex -10.5218 6.30359 0
      vertex -10.7244 7.09267 -3
      vertex -10.7244 7.09267 0
    endloop
  endfacet
  facet normal 0.968584 0.248688 0
    outer loop
      vertex -10.7244 7.09267 -3
      vertex -10.5218 6.30359 0
      vertex -10.5218 6.30359 -3
    endloop
  endfacet
  facet normal 0.309012 0.951058 -0
    outer loop
      vertex -8.10899 4.30757 -3
      vertex -8.88378 4.55931 0
      vertex -8.10899 4.30757 0
    endloop
  endfacet
  facet normal 0.309012 0.951058 0
    outer loop
      vertex -8.88378 4.55931 0
      vertex -8.10899 4.30757 -3
      vertex -8.88378 4.55931 -3
    endloop
  endfacet
  facet normal -0.187388 0.982286 0
    outer loop
      vertex -6.49569 4.40907 -3
      vertex -7.29593 4.25641 0
      vertex -6.49569 4.40907 0
    endloop
  endfacet
  facet normal -0.187388 0.982286 0
    outer loop
      vertex -7.29593 4.25641 0
      vertex -6.49569 4.40907 -3
      vertex -7.29593 4.25641 -3
    endloop
  endfacet
  facet normal -0.187436 -0.982277 0
    outer loop
      vertex -7.29593 10.7436 -3
      vertex -6.49569 10.5909 0
      vertex -7.29593 10.7436 0
    endloop
  endfacet
  facet normal -0.187436 -0.982277 -0
    outer loop
      vertex -6.49569 10.5909 0
      vertex -7.29593 10.7436 -3
      vertex -6.49569 10.5909 -3
    endloop
  endfacet
  facet normal -0.637448 -0.770493 0
    outer loop
      vertex -5.75856 10.2441 -3
      vertex -5.13085 9.72478 0
      vertex -5.75856 10.2441 0
    endloop
  endfacet
  facet normal -0.637448 -0.770493 -0
    outer loop
      vertex -5.13085 9.72478 0
      vertex -5.75856 10.2441 -3
      vertex -5.13085 9.72478 -3
    endloop
  endfacet
  facet normal -0.425712 -0.904859 0
    outer loop
      vertex -6.49569 10.5909 -3
      vertex -5.75856 10.2441 0
      vertex -6.49569 10.5909 0
    endloop
  endfacet
  facet normal -0.425712 -0.904859 -0
    outer loop
      vertex -5.75856 10.2441 0
      vertex -6.49569 10.5909 -3
      vertex -5.75856 10.2441 -3
    endloop
  endfacet
  facet normal -0.425772 0.90483 0
    outer loop
      vertex -5.75856 4.75593 -3
      vertex -6.49569 4.40907 0
      vertex -5.75856 4.75593 0
    endloop
  endfacet
  facet normal -0.425772 0.90483 0
    outer loop
      vertex -6.49569 4.40907 0
      vertex -5.75856 4.75593 -3
      vertex -6.49569 4.40907 -3
    endloop
  endfacet
  facet normal -0.929776 -0.368125 0
    outer loop
      vertex -4.3521 8.30824 -3
      vertex -4.652 9.0657 0
      vertex -4.652 9.0657 -3
    endloop
  endfacet
  facet normal -0.929776 -0.368125 0
    outer loop
      vertex -4.652 9.0657 0
      vertex -4.3521 8.30824 -3
      vertex -4.3521 8.30824 0
    endloop
  endfacet
  facet normal 0.535807 -0.844341 0
    outer loop
      vertex -9.57163 10.0042 -3
      vertex -8.88378 10.4407 0
      vertex -9.57163 10.0042 0
    endloop
  endfacet
  facet normal 0.535807 -0.844341 0
    outer loop
      vertex -8.88378 10.4407 0
      vertex -9.57163 10.0042 -3
      vertex -8.88378 10.4407 -3
    endloop
  endfacet
  facet normal 0.308968 -0.951073 0
    outer loop
      vertex -8.88378 10.4407 -3
      vertex -8.10899 10.6924 0
      vertex -8.88378 10.4407 0
    endloop
  endfacet
  facet normal 0.308968 -0.951073 0
    outer loop
      vertex -8.10899 10.6924 0
      vertex -8.88378 10.4407 -3
      vertex -8.10899 10.6924 -3
    endloop
  endfacet
  facet normal -0.992115 0.125328 0
    outer loop
      vertex 10.6479 6.69176 -3
      vertex 10.75 7.5 0
      vertex 10.75 7.5 -3
    endloop
  endfacet
  facet normal -0.992115 0.125328 0
    outer loop
      vertex 10.75 7.5 0
      vertex 10.6479 6.69176 -3
      vertex 10.6479 6.69176 0
    endloop
  endfacet
  facet normal -0.992115 -0.125328 0
    outer loop
      vertex 10.75 7.5 -3
      vertex 10.6479 8.30824 0
      vertex 10.6479 8.30824 -3
    endloop
  endfacet
  facet normal -0.992115 -0.125328 0
    outer loop
      vertex 10.6479 8.30824 0
      vertex 10.75 7.5 -3
      vertex 10.75 7.5 0
    endloop
  endfacet
  facet normal 1 -0 0
    outer loop
      vertex 4.27563 7.09267 0
      vertex 4.27563 7.90733 -3
      vertex 4.27563 7.90733 0
    endloop
  endfacet
  facet normal 1 0 0
    outer loop
      vertex 4.27563 7.90733 -3
      vertex 4.27563 7.09267 0
      vertex 4.27563 7.09267 -3
    endloop
  endfacet
  facet normal 0.0628475 -0.998023 0
    outer loop
      vertex 6.89101 10.6924 -3
      vertex 7.70407 10.7436 0
      vertex 6.89101 10.6924 0
    endloop
  endfacet
  facet normal 0.0628475 -0.998023 0
    outer loop
      vertex 7.70407 10.7436 0
      vertex 6.89101 10.6924 -3
      vertex 7.70407 10.7436 -3
    endloop
  endfacet
  facet normal 0.968584 0.248688 0
    outer loop
      vertex 4.47823 6.30359 0
      vertex 4.27563 7.09267 -3
      vertex 4.27563 7.09267 0
    endloop
  endfacet
  facet normal 0.968584 0.248688 0
    outer loop
      vertex 4.27563 7.09267 -3
      vertex 4.47823 6.30359 0
      vertex 4.47823 6.30359 -3
    endloop
  endfacet
  facet normal -0.637426 0.770511 0
    outer loop
      vertex 9.86915 5.27522 -3
      vertex 9.24144 4.75593 0
      vertex 9.86915 5.27522 0
    endloop
  endfacet
  facet normal -0.637426 0.770511 0
    outer loop
      vertex 9.24144 4.75593 0
      vertex 9.86915 5.27522 -3
      vertex 9.24144 4.75593 -3
    endloop
  endfacet
  facet normal -0.809017 0.587786 0
    outer loop
      vertex 9.86915 5.27522 -3
      vertex 10.348 5.9343 0
      vertex 10.348 5.9343 -3
    endloop
  endfacet
  facet normal -0.809017 0.587786 0
    outer loop
      vertex 10.348 5.9343 0
      vertex 9.86915 5.27522 -3
      vertex 9.86915 5.27522 0
    endloop
  endfacet
  facet normal 0.535824 0.84433 -0
    outer loop
      vertex 6.11622 4.55931 -3
      vertex 5.42837 4.99583 0
      vertex 6.11622 4.55931 0
    endloop
  endfacet
  facet normal 0.535824 0.84433 0
    outer loop
      vertex 5.42837 4.99583 0
      vertex 6.11622 4.55931 -3
      vertex 5.42837 4.99583 -3
    endloop
  endfacet
  facet normal 0.0627986 0.998026 -0
    outer loop
      vertex 7.70407 4.25641 -3
      vertex 6.89101 4.30757 0
      vertex 7.70407 4.25641 0
    endloop
  endfacet
  facet normal 0.0627986 0.998026 0
    outer loop
      vertex 6.89101 4.30757 0
      vertex 7.70407 4.25641 -3
      vertex 6.89101 4.30757 -3
    endloop
  endfacet
  facet normal -0.929776 0.368125 0
    outer loop
      vertex 10.348 5.9343 -3
      vertex 10.6479 6.69176 0
      vertex 10.6479 6.69176 -3
    endloop
  endfacet
  facet normal -0.929776 0.368125 0
    outer loop
      vertex 10.6479 6.69176 0
      vertex 10.348 5.9343 -3
      vertex 10.348 5.9343 0
    endloop
  endfacet
  facet normal 0.968583 -0.248691 0
    outer loop
      vertex 4.27563 7.90733 0
      vertex 4.47823 8.6964 -3
      vertex 4.47823 8.6964 0
    endloop
  endfacet
  facet normal 0.968583 -0.248691 0
    outer loop
      vertex 4.47823 8.6964 -3
      vertex 4.27563 7.90733 0
      vertex 4.27563 7.90733 -3
    endloop
  endfacet
  facet normal -0.809017 -0.587786 0
    outer loop
      vertex 10.348 9.0657 -3
      vertex 9.86915 9.72478 0
      vertex 9.86915 9.72478 -3
    endloop
  endfacet
  facet normal -0.809017 -0.587786 0
    outer loop
      vertex 9.86915 9.72478 0
      vertex 10.348 9.0657 -3
      vertex 10.348 9.0657 0
    endloop
  endfacet
  facet normal 0.728987 -0.684528 0
    outer loop
      vertex 4.87069 9.4103 0
      vertex 5.42837 10.0042 -3
      vertex 5.42837 10.0042 0
    endloop
  endfacet
  facet normal 0.728987 -0.684528 0
    outer loop
      vertex 5.42837 10.0042 -3
      vertex 4.87069 9.4103 0
      vertex 4.87069 9.4103 -3
    endloop
  endfacet
  facet normal 0.876312 -0.481744 0
    outer loop
      vertex 4.47823 8.6964 0
      vertex 4.87069 9.4103 -3
      vertex 4.87069 9.4103 0
    endloop
  endfacet
  facet normal 0.876312 -0.481744 0
    outer loop
      vertex 4.87069 9.4103 -3
      vertex 4.47823 8.6964 0
      vertex 4.47823 8.6964 -3
    endloop
  endfacet
  facet normal 0.728969 0.684546 0
    outer loop
      vertex 5.42837 4.99583 0
      vertex 4.87069 5.5897 -3
      vertex 4.87069 5.5897 0
    endloop
  endfacet
  facet normal 0.728969 0.684546 0
    outer loop
      vertex 4.87069 5.5897 -3
      vertex 5.42837 4.99583 0
      vertex 5.42837 4.99583 -3
    endloop
  endfacet
  facet normal 0.876309 0.48175 0
    outer loop
      vertex 4.87069 5.5897 0
      vertex 4.47823 6.30359 -3
      vertex 4.47823 6.30359 0
    endloop
  endfacet
  facet normal 0.876309 0.48175 0
    outer loop
      vertex 4.47823 6.30359 -3
      vertex 4.87069 5.5897 0
      vertex 4.87069 5.5897 -3
    endloop
  endfacet
  facet normal 0.309012 0.951058 -0
    outer loop
      vertex 6.89101 4.30757 -3
      vertex 6.11622 4.55931 0
      vertex 6.89101 4.30757 0
    endloop
  endfacet
  facet normal 0.309012 0.951058 0
    outer loop
      vertex 6.11622 4.55931 0
      vertex 6.89101 4.30757 -3
      vertex 6.11622 4.55931 -3
    endloop
  endfacet
  facet normal -0.187391 0.982285 0
    outer loop
      vertex 8.5043 4.40907 -3
      vertex 7.70407 4.25641 0
      vertex 8.5043 4.40907 0
    endloop
  endfacet
  facet normal -0.187391 0.982285 0
    outer loop
      vertex 7.70407 4.25641 0
      vertex 8.5043 4.40907 -3
      vertex 7.70407 4.25641 -3
    endloop
  endfacet
  facet normal -0.187438 -0.982276 0
    outer loop
      vertex 7.70407 10.7436 -3
      vertex 8.5043 10.5909 0
      vertex 7.70407 10.7436 0
    endloop
  endfacet
  facet normal -0.187438 -0.982276 -0
    outer loop
      vertex 8.5043 10.5909 0
      vertex 7.70407 10.7436 -3
      vertex 8.5043 10.5909 -3
    endloop
  endfacet
  facet normal -0.637448 -0.770493 0
    outer loop
      vertex 9.24144 10.2441 -3
      vertex 9.86915 9.72478 0
      vertex 9.24144 10.2441 0
    endloop
  endfacet
  facet normal -0.637448 -0.770493 -0
    outer loop
      vertex 9.86915 9.72478 0
      vertex 9.24144 10.2441 -3
      vertex 9.86915 9.72478 -3
    endloop
  endfacet
  facet normal -0.425707 -0.904861 0
    outer loop
      vertex 8.5043 10.5909 -3
      vertex 9.24144 10.2441 0
      vertex 8.5043 10.5909 0
    endloop
  endfacet
  facet normal -0.425707 -0.904861 -0
    outer loop
      vertex 9.24144 10.2441 0
      vertex 8.5043 10.5909 -3
      vertex 9.24144 10.2441 -3
    endloop
  endfacet
  facet normal -0.425767 0.904833 0
    outer loop
      vertex 9.24144 4.75593 -3
      vertex 8.5043 4.40907 0
      vertex 9.24144 4.75593 0
    endloop
  endfacet
  facet normal -0.425767 0.904833 0
    outer loop
      vertex 8.5043 4.40907 0
      vertex 9.24144 4.75593 -3
      vertex 8.5043 4.40907 -3
    endloop
  endfacet
  facet normal -0.929776 -0.368125 0
    outer loop
      vertex 10.6479 8.30824 -3
      vertex 10.348 9.0657 0
      vertex 10.348 9.0657 -3
    endloop
  endfacet
  facet normal -0.929776 -0.368125 0
    outer loop
      vertex 10.348 9.0657 0
      vertex 10.6479 8.30824 -3
      vertex 10.6479 8.30824 0
    endloop
  endfacet
  facet normal 0.535807 -0.844341 0
    outer loop
      vertex 5.42837 10.0042 -3
      vertex 6.11622 10.4407 0
      vertex 5.42837 10.0042 0
    endloop
  endfacet
  facet normal 0.535807 -0.844341 0
    outer loop
      vertex 6.11622 10.4407 0
      vertex 5.42837 10.0042 -3
      vertex 6.11622 10.4407 -3
    endloop
  endfacet
  facet normal 0.308968 -0.951073 0
    outer loop
      vertex 6.11622 10.4407 -3
      vertex 6.89101 10.6924 0
      vertex 6.11622 10.4407 0
    endloop
  endfacet
  facet normal 0.308968 -0.951073 0
    outer loop
      vertex 6.89101 10.6924 0
      vertex 6.11622 10.4407 -3
      vertex 6.89101 10.6924 -3
    endloop
  endfacet
  facet normal 0.587816 -0.808995 0
    outer loop
      vertex 10.9088 -12.8815 -3
      vertex 11.9227 -12.1448 0
      vertex 10.9088 -12.8815 0
    endloop
  endfacet
  facet normal 0.587816 -0.808995 0
    outer loop
      vertex 11.9227 -12.1448 0
      vertex 10.9088 -12.8815 -3
      vertex 11.9227 -12.1448 -3
    endloop
  endfacet
  facet normal 0.368128 -0.929775 0
    outer loop
      vertex 9.74345 -13.3429 -3
      vertex 10.9088 -12.8815 0
      vertex 9.74345 -13.3429 0
    endloop
  endfacet
  facet normal 0.368128 -0.929775 0
    outer loop
      vertex 10.9088 -12.8815 0
      vertex 9.74345 -13.3429 -3
      vertex 10.9088 -12.8815 -3
    endloop
  endfacet
  facet normal -1 0 0
    outer loop
      vertex -13.5 -8.5 -3
      vertex -13.5 8.5 0
      vertex -13.5 8.5 -3
    endloop
  endfacet
  facet normal -1 -0 0
    outer loop
      vertex -13.5 8.5 0
      vertex -13.5 -8.5 -3
      vertex -13.5 -8.5 0
    endloop
  endfacet
  facet normal 0.125346 -0.992113 0
    outer loop
      vertex 8.5 -13.5 -3
      vertex 9.74345 -13.3429 0
      vertex 8.5 -13.5 0
    endloop
  endfacet
  facet normal 0.125346 -0.992113 0
    outer loop
      vertex 9.74345 -13.3429 0
      vertex 8.5 -13.5 -3
      vertex 9.74345 -13.3429 -3
    endloop
  endfacet
  facet normal 0.637426 0.770512 -0
    outer loop
      vertex 12.1448 11.9227 -3
      vertex 11.1791 12.7216 0
      vertex 12.1448 11.9227 0
    endloop
  endfacet
  facet normal 0.637426 0.770512 0
    outer loop
      vertex 11.1791 12.7216 0
      vertex 12.1448 11.9227 -3
      vertex 11.1791 12.7216 -3
    endloop
  endfacet
  facet normal -0.156422 -0.98769 0
    outer loop
      vertex -10.0451 -13.2553 -3
      vertex -8.5 -13.5 0
      vertex -10.0451 -13.2553 0
    endloop
  endfacet
  facet normal -0.156422 -0.98769 -0
    outer loop
      vertex -8.5 -13.5 0
      vertex -10.0451 -13.2553 -3
      vertex -8.5 -13.5 -3
    endloop
  endfacet
  facet normal 0 -1 0
    outer loop
      vertex -8.5 -13.5 -3
      vertex 8.5 -13.5 0
      vertex -8.5 -13.5 0
    endloop
  endfacet
  facet normal 0 -1 -0
    outer loop
      vertex 8.5 -13.5 0
      vertex -8.5 -13.5 -3
      vertex 8.5 -13.5 -3
    endloop
  endfacet
  facet normal 0 1 -0
    outer loop
      vertex 8.5 13.5 -3
      vertex -8.5 13.5 0
      vertex 8.5 13.5 0
    endloop
  endfacet
  facet normal 0 1 0
    outer loop
      vertex -8.5 13.5 0
      vertex 8.5 13.5 -3
      vertex -8.5 13.5 -3
    endloop
  endfacet
  facet normal 0.156422 0.98769 -0
    outer loop
      vertex 10.0451 13.2553 -3
      vertex 8.5 13.5 0
      vertex 10.0451 13.2553 0
    endloop
  endfacet
  facet normal 0.156422 0.98769 0
    outer loop
      vertex 8.5 13.5 0
      vertex 10.0451 13.2553 -3
      vertex 8.5 13.5 -3
    endloop
  endfacet
  facet normal 1 -0 0
    outer loop
      vertex 13.5 -8.5 0
      vertex 13.5 8.5 -3
      vertex 13.5 8.5 0
    endloop
  endfacet
  facet normal 1 0 0
    outer loop
      vertex 13.5 8.5 -3
      vertex 13.5 -8.5 0
      vertex 13.5 -8.5 -3
    endloop
  endfacet
  facet normal 0.904802 -0.425832 0
    outer loop
      vertex 12.7216 -11.1791 0
      vertex 13.2553 -10.0451 -3
      vertex 13.2553 -10.0451 0
    endloop
  endfacet
  facet normal 0.904802 -0.425832 0
    outer loop
      vertex 13.2553 -10.0451 -3
      vertex 12.7216 -11.1791 0
      vertex 12.7216 -11.1791 -3
    endloop
  endfacet
  facet normal -0 0 -1
    outer loop
      vertex 5.42837 -4.99583 -3
      vertex -5.13085 -5.27522 -3
      vertex 5.42837 4.99583 -3
    endloop
  endfacet
  facet normal 0 0 -1
    outer loop
      vertex 4.87069 5.5897 -3
      vertex -4.3521 6.69176 -3
      vertex -4.25 7.5 -3
    endloop
  endfacet
  facet normal 0 0 -1
    outer loop
      vertex -5.13085 5.27522 -3
      vertex 5.42837 4.99583 -3
      vertex -5.13085 -5.27522 -3
    endloop
  endfacet
  facet normal 0 0 -1
    outer loop
      vertex 4.87069 5.5897 -3
      vertex -4.652 5.9343 -3
      vertex -4.3521 6.69176 -3
    endloop
  endfacet
  facet normal 0 0 -1
    outer loop
      vertex 5.42837 4.99583 -3
      vertex -5.13085 5.27522 -3
      vertex 4.87069 5.5897 -3
    endloop
  endfacet
  facet normal -0 0 -1
    outer loop
      vertex 4.87069 5.5897 -3
      vertex -5.13085 5.27522 -3
      vertex -4.652 5.9343 -3
    endloop
  endfacet
  facet normal 0 0 -1
    outer loop
      vertex -5.75856 -4.75593 -3
      vertex -5.13085 5.27522 -3
      vertex -5.13085 -5.27522 -3
    endloop
  endfacet
  facet normal 0 0 -1
    outer loop
      vertex -5.75856 -4.75593 -3
      vertex -5.75856 4.75593 -3
      vertex -5.13085 5.27522 -3
    endloop
  endfacet
  facet normal 0 0 -1
    outer loop
      vertex -6.49569 -4.40907 -3
      vertex -5.75856 4.75593 -3
      vertex -5.75856 -4.75593 -3
    endloop
  endfacet
  facet normal 0 0 -1
    outer loop
      vertex -6.49569 -4.40907 -3
      vertex -6.49569 4.40907 -3
      vertex -5.75856 4.75593 -3
    endloop
  endfacet
  facet normal 0 0 -1
    outer loop
      vertex -7.29593 -4.25641 -3
      vertex -6.49569 4.40907 -3
      vertex -6.49569 -4.40907 -3
    endloop
  endfacet
  facet normal 0 0 -1
    outer loop
      vertex -7.29593 -4.25641 -3
      vertex -7.29593 4.25641 -3
      vertex -6.49569 4.40907 -3
    endloop
  endfacet
  facet normal 0 0 -1
    outer loop
      vertex -8.10899 -4.30757 -3
      vertex -7.29593 4.25641 -3
      vertex -7.29593 -4.25641 -3
    endloop
  endfacet
  facet normal 0 0 -1
    outer loop
      vertex -8.10899 -4.30757 -3
      vertex -8.10899 4.30757 -3
      vertex -7.29593 4.25641 -3
    endloop
  endfacet
  facet normal 0 0 -1
    outer loop
      vertex -8.88378 -4.55931 -3
      vertex -8.10899 4.30757 -3
      vertex -8.10899 -4.30757 -3
    endloop
  endfacet
  facet normal 0 0 -1
    outer loop
      vertex -8.88378 -4.55931 -3
      vertex -8.88378 4.55931 -3
      vertex -8.10899 4.30757 -3
    endloop
  endfacet
  facet normal 0 0 -1
    outer loop
      vertex -9.57163 -4.99583 -3
      vertex -8.88378 4.55931 -3
      vertex -8.88378 -4.55931 -3
    endloop
  endfacet
  facet normal 0 0 -1
    outer loop
      vertex -9.57163 -4.99583 -3
      vertex -9.57163 4.99583 -3
      vertex -8.88378 4.55931 -3
    endloop
  endfacet
  facet normal 0 0 -1
    outer loop
      vertex -10.1293 -5.5897 -3
      vertex -9.57163 4.99583 -3
      vertex -9.57163 -4.99583 -3
    endloop
  endfacet
  facet normal 0 0 -1
    outer loop
      vertex -10.1293 -5.5897 -3
      vertex -10.1293 5.5897 -3
      vertex -9.57163 4.99583 -3
    endloop
  endfacet
  facet normal 0 0 -1
    outer loop
      vertex -13.5 -8.5 -3
      vertex -10.1293 -5.5897 -3
      vertex -10.5218 -6.30359 -3
    endloop
  endfacet
  facet normal -0 0 -1
    outer loop
      vertex -10.1293 -5.5897 -3
      vertex -13.5 -8.5 -3
      vertex -10.1293 5.5897 -3
    endloop
  endfacet
  facet normal 0 0 -1
    outer loop
      vertex -13.5 -8.5 -3
      vertex -10.5218 -6.30359 -3
      vertex -10.7244 -7.09267 -3
    endloop
  endfacet
  facet normal 0 0 -1
    outer loop
      vertex -13.5 8.5 -3
      vertex -10.1293 5.5897 -3
      vertex -13.5 -8.5 -3
    endloop
  endfacet
  facet normal 0 0 -1
    outer loop
      vertex 13.5 -8.5 -3
      vertex 10.348 -5.9343 -3
      vertex 13.5 8.5 -3
    endloop
  endfacet
  facet normal 0 0 -1
    outer loop
      vertex 13.5 8.5 -3
      vertex 10.6479 6.69176 -3
      vertex 10.75 7.5 -3
    endloop
  endfacet
  facet normal 0 0 -1
    outer loop
      vertex 10.348 5.9343 -3
      vertex 13.5 8.5 -3
      vertex 10.348 -5.9343 -3
    endloop
  endfacet
  facet normal 0 0 -1
    outer loop
      vertex 13.5 8.5 -3
      vertex 10.348 5.9343 -3
      vertex 10.6479 6.69176 -3
    endloop
  endfacet
  facet normal 0 0 -1
    outer loop
      vertex 9.86915 -5.27522 -3
      vertex 10.348 5.9343 -3
      vertex 10.348 -5.9343 -3
    endloop
  endfacet
  facet normal 0 0 -1
    outer loop
      vertex 9.86915 -5.27522 -3
      vertex 9.86915 5.27522 -3
      vertex 10.348 5.9343 -3
    endloop
  endfacet
  facet normal 0 0 -1
    outer loop
      vertex 9.24144 -4.75593 -3
      vertex 9.86915 5.27522 -3
      vertex 9.86915 -5.27522 -3
    endloop
  endfacet
  facet normal 0 0 -1
    outer loop
      vertex 9.24144 -4.75593 -3
      vertex 9.24144 4.75593 -3
      vertex 9.86915 5.27522 -3
    endloop
  endfacet
  facet normal 0 0 -1
    outer loop
      vertex 8.5043 -4.40907 -3
      vertex 9.24144 4.75593 -3
      vertex 9.24144 -4.75593 -3
    endloop
  endfacet
  facet normal 0 0 -1
    outer loop
      vertex 8.5043 -4.40907 -3
      vertex 8.5043 4.40907 -3
      vertex 9.24144 4.75593 -3
    endloop
  endfacet
  facet normal 0 0 -1
    outer loop
      vertex 7.70407 -4.25641 -3
      vertex 8.5043 4.40907 -3
      vertex 8.5043 -4.40907 -3
    endloop
  endfacet
  facet normal 0 0 -1
    outer loop
      vertex 7.70407 -4.25641 -3
      vertex 7.70407 4.25641 -3
      vertex 8.5043 4.40907 -3
    endloop
  endfacet
  facet normal 0 0 -1
    outer loop
      vertex 6.89101 -4.30757 -3
      vertex 7.70407 4.25641 -3
      vertex 7.70407 -4.25641 -3
    endloop
  endfacet
  facet normal 0 0 -1
    outer loop
      vertex 6.89101 -4.30757 -3
      vertex 6.89101 4.30757 -3
      vertex 7.70407 4.25641 -3
    endloop
  endfacet
  facet normal 0 0 -1
    outer loop
      vertex 6.11622 -4.55931 -3
      vertex 6.89101 4.30757 -3
      vertex 6.89101 -4.30757 -3
    endloop
  endfacet
  facet normal 0 0 -1
    outer loop
      vertex 6.11622 -4.55931 -3
      vertex 6.11622 4.55931 -3
      vertex 6.89101 4.30757 -3
    endloop
  endfacet
  facet normal 0 0 -1
    outer loop
      vertex 5.42837 -4.99583 -3
      vertex 6.11622 4.55931 -3
      vertex 6.11622 -4.55931 -3
    endloop
  endfacet
  facet normal 0 0 -1
    outer loop
      vertex 5.42837 -4.99583 -3
      vertex 5.42837 4.99583 -3
      vertex 6.11622 4.55931 -3
    endloop
  endfacet
  facet normal 0 0 -1
    outer loop
      vertex -5.13085 -5.27522 -3
      vertex 4.87069 -5.5897 -3
      vertex -4.652 -5.9343 -3
    endloop
  endfacet
  facet normal 0 0 -1
    outer loop
      vertex 4.87069 -5.5897 -3
      vertex -5.13085 -5.27522 -3
      vertex 5.42837 -4.99583 -3
    endloop
  endfacet
  facet normal 0 0 -1
    outer loop
      vertex 4.27563 -7.09267 -3
      vertex -4.3521 -6.69176 -3
      vertex 4.47823 -6.30359 -3
    endloop
  endfacet
  facet normal 0 0 -1
    outer loop
      vertex -4.652 -5.9343 -3
      vertex 4.47823 -6.30359 -3
      vertex -4.3521 -6.69176 -3
    endloop
  endfacet
  facet normal 0 0 -1
    outer loop
      vertex -4.3521 -6.69176 -3
      vertex 4.27563 -7.09267 -3
      vertex -4.25 -7.5 -3
    endloop
  endfacet
  facet normal 0 0 -1
    outer loop
      vertex 4.47823 -6.30359 -3
      vertex -4.652 -5.9343 -3
      vertex 4.87069 -5.5897 -3
    endloop
  endfacet
  facet normal 0 0 -1
    outer loop
      vertex 13.5 -8.5 -3
      vertex 10.6479 -8.30824 -3
      vertex 10.75 -7.5 -3
    endloop
  endfacet
  facet normal 0 0 -1
    outer loop
      vertex 11.9227 -12.1448 -3
      vertex 10.348 -9.0657 -3
      vertex 10.6479 -8.30824 -3
    endloop
  endfacet
  facet normal 0 0 -1
    outer loop
      vertex 11.9227 -12.1448 -3
      vertex 9.86915 -9.72478 -3
      vertex 10.348 -9.0657 -3
    endloop
  endfacet
  facet normal 0 0 -1
    outer loop
      vertex 9.24144 -10.2441 -3
      vertex 10.9088 -12.8815 -3
      vertex 9.74345 -13.3429 -3
    endloop
  endfacet
  facet normal 0 0 -1
    outer loop
      vertex 11.9227 -12.1448 -3
      vertex 9.24144 -10.2441 -3
      vertex 9.86915 -9.72478 -3
    endloop
  endfacet
  facet normal 0 0 -1
    outer loop
      vertex 9.74345 -13.3429 -3
      vertex 8.5043 -10.5909 -3
      vertex 9.24144 -10.2441 -3
    endloop
  endfacet
  facet normal 0 0 -1
    outer loop
      vertex 8.5 -13.5 -3
      vertex 8.5043 -10.5909 -3
      vertex 9.74345 -13.3429 -3
    endloop
  endfacet
  facet normal 0 0 -1
    outer loop
      vertex 8.5 -13.5 -3
      vertex 7.70407 -10.7436 -3
      vertex 8.5043 -10.5909 -3
    endloop
  endfacet
  facet normal 0 0 -1
    outer loop
      vertex 8.5 -13.5 -3
      vertex 6.89101 -10.6924 -3
      vertex 7.70407 -10.7436 -3
    endloop
  endfacet
  facet normal 0 0 -1
    outer loop
      vertex 8.5 -13.5 -3
      vertex 6.11622 -10.4407 -3
      vertex 6.89101 -10.6924 -3
    endloop
  endfacet
  facet normal 0 0 -1
    outer loop
      vertex 8.5 -13.5 -3
      vertex 5.42837 -10.0042 -3
      vertex 6.11622 -10.4407 -3
    endloop
  endfacet
  facet normal 0 0 -1
    outer loop
      vertex -5.75856 -10.2441 -3
      vertex 5.42837 -10.0042 -3
      vertex 8.5 -13.5 -3
    endloop
  endfacet
  facet normal 0 0 -1
    outer loop
      vertex -4.25 -7.5 -3
      vertex 4.27563 -7.09267 -3
      vertex 4.27563 -7.90733 -3
    endloop
  endfacet
  facet normal 0 0 -1
    outer loop
      vertex 4.87069 5.5897 -3
      vertex -4.25 7.5 -3
      vertex 4.47823 6.30359 -3
    endloop
  endfacet
  facet normal 0 0 -1
    outer loop
      vertex 4.47823 6.30359 -3
      vertex -4.25 7.5 -3
      vertex 4.27563 7.09267 -3
    endloop
  endfacet
  facet normal 0 0 -1
    outer loop
      vertex -4.3521 -8.30824 -3
      vertex 4.27563 -7.90733 -3
      vertex 4.47823 -8.6964 -3
    endloop
  endfacet
  facet normal 0 0 -1
    outer loop
      vertex -4.652 -9.0657 -3
      vertex 4.47823 -8.6964 -3
      vertex 4.87069 -9.4103 -3
    endloop
  endfacet
  facet normal 0 -0 -1
    outer loop
      vertex -5.13085 -9.72478 -3
      vertex 5.42837 -10.0042 -3
      vertex -5.75856 -10.2441 -3
    endloop
  endfacet
  facet normal -0 0 -1
    outer loop
      vertex 4.27563 -7.90733 -3
      vertex -4.3521 -8.30824 -3
      vertex -4.25 -7.5 -3
    endloop
  endfacet
  facet normal -0 0 -1
    outer loop
      vertex 4.47823 -8.6964 -3
      vertex -4.652 -9.0657 -3
      vertex -4.3521 -8.30824 -3
    endloop
  endfacet
  facet normal -0 0 -1
    outer loop
      vertex 4.87069 -9.4103 -3
      vertex -5.13085 -9.72478 -3
      vertex -4.652 -9.0657 -3
    endloop
  endfacet
  facet normal 0 0 -1
    outer loop
      vertex 5.42837 -10.0042 -3
      vertex -5.13085 -9.72478 -3
      vertex 4.87069 -9.4103 -3
    endloop
  endfacet
  facet normal 0 0 -1
    outer loop
      vertex -8.5 -13.5 -3
      vertex -5.75856 -10.2441 -3
      vertex 8.5 -13.5 -3
    endloop
  endfacet
  facet normal 0 0 -1
    outer loop
      vertex -5.75856 -10.2441 -3
      vertex -8.5 -13.5 -3
      vertex -6.49569 -10.5909 -3
    endloop
  endfacet
  facet normal 0 0 -1
    outer loop
      vertex -6.49569 -10.5909 -3
      vertex -8.5 -13.5 -3
      vertex -7.29593 -10.7436 -3
    endloop
  endfacet
  facet normal -0 0 -1
    outer loop
      vertex -7.29593 -10.7436 -3
      vertex -8.5 -13.5 -3
      vertex -8.10899 -10.6924 -3
    endloop
  endfacet
  facet normal 0 0 -1
    outer loop
      vertex -8.5 -13.5 -3
      vertex -8.88378 -10.4407 -3
      vertex -8.10899 -10.6924 -3
    endloop
  endfacet
  facet normal 0 0 -1
    outer loop
      vertex -10.0451 -13.2553 -3
      vertex -8.88378 -10.4407 -3
      vertex -8.5 -13.5 -3
    endloop
  endfacet
  facet normal 0 0 -1
    outer loop
      vertex -11.1791 -12.7216 -3
      vertex -8.88378 -10.4407 -3
      vertex -10.0451 -13.2553 -3
    endloop
  endfacet
  facet normal -0 0 -1
    outer loop
      vertex -8.88378 -10.4407 -3
      vertex -11.1791 -12.7216 -3
      vertex -9.57163 -10.0042 -3
    endloop
  endfacet
  facet normal 0 0 -1
    outer loop
      vertex -12.1448 -11.9227 -3
      vertex -9.57163 -10.0042 -3
      vertex -11.1791 -12.7216 -3
    endloop
  endfacet
  facet normal -0 0 -1
    outer loop
      vertex -9.57163 -10.0042 -3
      vertex -12.1448 -11.9227 -3
      vertex -10.1293 -9.4103 -3
    endloop
  endfacet
  facet normal 0 0 -1
    outer loop
      vertex -13.5 -8.5 -3
      vertex -10.7244 -7.09267 -3
      vertex -10.7244 -7.90733 -3
    endloop
  endfacet
  facet normal 0 0 -1
    outer loop
      vertex -10.1293 5.5897 -3
      vertex -13.5 8.5 -3
      vertex -10.5218 6.30359 -3
    endloop
  endfacet
  facet normal 0 0 -1
    outer loop
      vertex -10.7244 7.09267 -3
      vertex -13.5 8.5 -3
      vertex -10.7244 7.90733 -3
    endloop
  endfacet
  facet normal 0 0 -1
    outer loop
      vertex -12.8815 -10.9088 -3
      vertex -10.1293 -9.4103 -3
      vertex -12.1448 -11.9227 -3
    endloop
  endfacet
  facet normal -0 0 -1
    outer loop
      vertex -10.1293 -9.4103 -3
      vertex -12.8815 -10.9088 -3
      vertex -10.5218 -8.6964 -3
    endloop
  endfacet
  facet normal 0 0 -1
    outer loop
      vertex -10.5218 6.30359 -3
      vertex -13.5 8.5 -3
      vertex -10.7244 7.09267 -3
    endloop
  endfacet
  facet normal 0 0 -1
    outer loop
      vertex -13.3429 -9.74345 -3
      vertex -10.5218 -8.6964 -3
      vertex -12.8815 -10.9088 -3
    endloop
  endfacet
  facet normal 0 -0 -1
    outer loop
      vertex -13.2553 10.0451 -3
      vertex -10.7244 7.90733 -3
      vertex -13.5 8.5 -3
    endloop
  endfacet
  facet normal 0 0 -1
    outer loop
      vertex -13.5 -8.5 -3
      vertex -10.5218 -8.6964 -3
      vertex -13.3429 -9.74345 -3
    endloop
  endfacet
  facet normal 0 0 -1
    outer loop
      vertex -10.7244 7.90733 -3
      vertex -11.9227 12.1448 -3
      vertex -10.9088 12.8815 -3
    endloop
  endfacet
  facet normal 0 0 -1
    outer loop
      vertex -10.5218 -8.6964 -3
      vertex -13.5 -8.5 -3
      vertex -10.7244 -7.90733 -3
    endloop
  endfacet
  facet normal 0 0 -1
    outer loop
      vertex -10.7244 7.90733 -3
      vertex -12.7216 11.1791 -3
      vertex -11.9227 12.1448 -3
    endloop
  endfacet
  facet normal 0 0 -1
    outer loop
      vertex -10.7244 7.90733 -3
      vertex -13.2553 10.0451 -3
      vertex -12.7216 11.1791 -3
    endloop
  endfacet
  facet normal 0 0 -1
    outer loop
      vertex 10.348 -5.9343 -3
      vertex 13.5 -8.5 -3
      vertex 10.6479 -6.69176 -3
    endloop
  endfacet
  facet normal 0 0 -1
    outer loop
      vertex 10.6479 -8.30824 -3
      vertex 13.5 -8.5 -3
      vertex 13.2553 -10.0451 -3
    endloop
  endfacet
  facet normal 0 0 -1
    outer loop
      vertex 10.6479 -6.69176 -3
      vertex 13.5 -8.5 -3
      vertex 10.75 -7.5 -3
    endloop
  endfacet
  facet normal 0 0 -1
    outer loop
      vertex 10.6479 -8.30824 -3
      vertex 13.2553 -10.0451 -3
      vertex 12.7216 -11.1791 -3
    endloop
  endfacet
  facet normal 0 0 -1
    outer loop
      vertex 10.6479 8.30824 -3
      vertex 13.5 8.5 -3
      vertex 10.75 7.5 -3
    endloop
  endfacet
  facet normal 0 0 -1
    outer loop
      vertex 10.6479 -8.30824 -3
      vertex 12.7216 -11.1791 -3
      vertex 11.9227 -12.1448 -3
    endloop
  endfacet
  facet normal -0 0 -1
    outer loop
      vertex 13.5 8.5 -3
      vertex 10.6479 8.30824 -3
      vertex 13.3429 9.74345 -3
    endloop
  endfacet
  facet normal 0 0 -1
    outer loop
      vertex 9.24144 -10.2441 -3
      vertex 11.9227 -12.1448 -3
      vertex 10.9088 -12.8815 -3
    endloop
  endfacet
  facet normal 0 0 -1
    outer loop
      vertex 10.348 9.0657 -3
      vertex 13.3429 9.74345 -3
      vertex 10.6479 8.30824 -3
    endloop
  endfacet
  facet normal -0 0 -1
    outer loop
      vertex 13.3429 9.74345 -3
      vertex 10.348 9.0657 -3
      vertex 12.8815 10.9088 -3
    endloop
  endfacet
  facet normal 0 0 -1
    outer loop
      vertex 9.86915 9.72478 -3
      vertex 12.8815 10.9088 -3
      vertex 10.348 9.0657 -3
    endloop
  endfacet
  facet normal -0 0 -1
    outer loop
      vertex 12.8815 10.9088 -3
      vertex 9.86915 9.72478 -3
      vertex 12.1448 11.9227 -3
    endloop
  endfacet
  facet normal -0 0 -1
    outer loop
      vertex 12.1448 11.9227 -3
      vertex 9.86915 9.72478 -3
      vertex 11.1791 12.7216 -3
    endloop
  endfacet
  facet normal 0 0 -1
    outer loop
      vertex 9.24144 10.2441 -3
      vertex 11.1791 12.7216 -3
      vertex 9.86915 9.72478 -3
    endloop
  endfacet
  facet normal -0 0 -1
    outer loop
      vertex 11.1791 12.7216 -3
      vertex 9.24144 10.2441 -3
      vertex 10.0451 13.2553 -3
    endloop
  endfacet
  facet normal 0 0 -1
    outer loop
      vertex 8.5043 10.5909 -3
      vertex 10.0451 13.2553 -3
      vertex 9.24144 10.2441 -3
    endloop
  endfacet
  facet normal 0 0 -1
    outer loop
      vertex 8.5043 10.5909 -3
      vertex 8.5 13.5 -3
      vertex 10.0451 13.2553 -3
    endloop
  endfacet
  facet normal 0 0 -1
    outer loop
      vertex 7.70407 10.7436 -3
      vertex 8.5 13.5 -3
      vertex 8.5043 10.5909 -3
    endloop
  endfacet
  facet normal 0 0 -1
    outer loop
      vertex 6.89101 10.6924 -3
      vertex 8.5 13.5 -3
      vertex 7.70407 10.7436 -3
    endloop
  endfacet
  facet normal 0 0 -1
    outer loop
      vertex 6.11622 10.4407 -3
      vertex 8.5 13.5 -3
      vertex 6.89101 10.6924 -3
    endloop
  endfacet
  facet normal 0 0 -1
    outer loop
      vertex 5.42837 10.0042 -3
      vertex 8.5 13.5 -3
      vertex 6.11622 10.4407 -3
    endloop
  endfacet
  facet normal 0 0 -1
    outer loop
      vertex -5.13085 9.72478 -3
      vertex 5.42837 10.0042 -3
      vertex 4.87069 9.4103 -3
    endloop
  endfacet
  facet normal 0 0 -1
    outer loop
      vertex 4.27563 7.09267 -3
      vertex -4.25 7.5 -3
      vertex 4.27563 7.90733 -3
    endloop
  endfacet
  facet normal 0 0 -1
    outer loop
      vertex -4.3521 8.30824 -3
      vertex 4.27563 7.90733 -3
      vertex -4.25 7.5 -3
    endloop
  endfacet
  facet normal 0 0 -1
    outer loop
      vertex 4.27563 7.90733 -3
      vertex -4.3521 8.30824 -3
      vertex 4.47823 8.6964 -3
    endloop
  endfacet
  facet normal 0 0 -1
    outer loop
      vertex -4.652 9.0657 -3
      vertex 4.47823 8.6964 -3
      vertex -4.3521 8.30824 -3
    endloop
  endfacet
  facet normal 0 0 -1
    outer loop
      vertex 4.47823 8.6964 -3
      vertex -4.652 9.0657 -3
      vertex 4.87069 9.4103 -3
    endloop
  endfacet
  facet normal 0 0 -1
    outer loop
      vertex -5.13085 9.72478 -3
      vertex 4.87069 9.4103 -3
      vertex -4.652 9.0657 -3
    endloop
  endfacet
  facet normal -0 0 -1
    outer loop
      vertex 5.42837 10.0042 -3
      vertex -5.13085 9.72478 -3
      vertex -5.75856 10.2441 -3
    endloop
  endfacet
  facet normal 0 0 -1
    outer loop
      vertex 5.42837 10.0042 -3
      vertex -5.75856 10.2441 -3
      vertex 8.5 13.5 -3
    endloop
  endfacet
  facet normal 0 0 -1
    outer loop
      vertex -8.5 13.5 -3
      vertex -5.75856 10.2441 -3
      vertex -6.49569 10.5909 -3
    endloop
  endfacet
  facet normal 0 0 -1
    outer loop
      vertex -8.5 13.5 -3
      vertex -6.49569 10.5909 -3
      vertex -7.29593 10.7436 -3
    endloop
  endfacet
  facet normal 0 0 -1
    outer loop
      vertex -8.5 13.5 -3
      vertex -7.29593 10.7436 -3
      vertex -8.10899 10.6924 -3
    endloop
  endfacet
  facet normal 0 0 -1
    outer loop
      vertex -5.75856 10.2441 -3
      vertex -8.5 13.5 -3
      vertex 8.5 13.5 -3
    endloop
  endfacet
  facet normal 0 0 -1
    outer loop
      vertex -9.74345 13.3429 -3
      vertex -8.10899 10.6924 -3
      vertex -8.88378 10.4407 -3
    endloop
  endfacet
  facet normal 0 0 -1
    outer loop
      vertex -10.9088 12.8815 -3
      vertex -8.88378 10.4407 -3
      vertex -9.57163 10.0042 -3
    endloop
  endfacet
  facet normal 0 0 -1
    outer loop
      vertex -8.10899 10.6924 -3
      vertex -9.74345 13.3429 -3
      vertex -8.5 13.5 -3
    endloop
  endfacet
  facet normal 0 0 -1
    outer loop
      vertex -10.9088 12.8815 -3
      vertex -9.57163 10.0042 -3
      vertex -10.1293 9.4103 -3
    endloop
  endfacet
  facet normal 0 0 -1
    outer loop
      vertex -10.9088 12.8815 -3
      vertex -10.1293 9.4103 -3
      vertex -10.5218 8.6964 -3
    endloop
  endfacet
  facet normal 0 0 -1
    outer loop
      vertex -10.9088 12.8815 -3
      vertex -10.5218 8.6964 -3
      vertex -10.7244 7.90733 -3
    endloop
  endfacet
  facet normal 0 0 -1
    outer loop
      vertex -8.88378 10.4407 -3
      vertex -10.9088 12.8815 -3
      vertex -9.74345 13.3429 -3
    endloop
  endfacet
  facet normal -0.808995 -0.587816 0
    outer loop
      vertex -12.1448 -11.9227 -3
      vertex -12.8815 -10.9088 0
      vertex -12.8815 -10.9088 -3
    endloop
  endfacet
  facet normal -0.808995 -0.587816 0
    outer loop
      vertex -12.8815 -10.9088 0
      vertex -12.1448 -11.9227 -3
      vertex -12.1448 -11.9227 0
    endloop
  endfacet
  facet normal 0 0 1
    outer loop
      vertex 5.42837 4.99583 0
      vertex -5.13085 5.27522 0
      vertex 5.42837 -4.99583 0
    endloop
  endfacet
  facet normal 0 0 1
    outer loop
      vertex 4.87069 -5.5897 0
      vertex -4.3521 -6.69176 0
      vertex -4.25 -7.5 0
    endloop
  endfacet
  facet normal 0 0 1
    outer loop
      vertex -5.13085 -5.27522 0
      vertex 5.42837 -4.99583 0
      vertex -5.13085 5.27522 0
    endloop
  endfacet
  facet normal 0 0 1
    outer loop
      vertex 4.87069 -5.5897 0
      vertex -4.652 -5.9343 0
      vertex -4.3521 -6.69176 0
    endloop
  endfacet
  facet normal 0 0 1
    outer loop
      vertex 5.42837 -4.99583 0
      vertex -5.13085 -5.27522 0
      vertex 4.87069 -5.5897 0
    endloop
  endfacet
  facet normal 0 0 1
    outer loop
      vertex 4.87069 -5.5897 0
      vertex -5.13085 -5.27522 0
      vertex -4.652 -5.9343 0
    endloop
  endfacet
  facet normal -0 0 1
    outer loop
      vertex -5.75856 4.75593 0
      vertex -5.13085 -5.27522 0
      vertex -5.13085 5.27522 0
    endloop
  endfacet
  facet normal 0 0 1
    outer loop
      vertex -5.75856 4.75593 0
      vertex -5.75856 -4.75593 0
      vertex -5.13085 -5.27522 0
    endloop
  endfacet
  facet normal -0 0 1
    outer loop
      vertex -6.49569 4.40907 0
      vertex -5.75856 -4.75593 0
      vertex -5.75856 4.75593 0
    endloop
  endfacet
  facet normal 0 0 1
    outer loop
      vertex -6.49569 4.40907 0
      vertex -6.49569 -4.40907 0
      vertex -5.75856 -4.75593 0
    endloop
  endfacet
  facet normal -0 0 1
    outer loop
      vertex -7.29593 4.25641 0
      vertex -6.49569 -4.40907 0
      vertex -6.49569 4.40907 0
    endloop
  endfacet
  facet normal 0 0 1
    outer loop
      vertex -7.29593 4.25641 0
      vertex -7.29593 -4.25641 0
      vertex -6.49569 -4.40907 0
    endloop
  endfacet
  facet normal 0 0 1
    outer loop
      vertex -8.10899 4.30757 0
      vertex -7.29593 -4.25641 0
      vertex -7.29593 4.25641 0
    endloop
  endfacet
  facet normal 0 0 1
    outer loop
      vertex -8.10899 4.30757 0
      vertex -8.10899 -4.30757 0
      vertex -7.29593 -4.25641 0
    endloop
  endfacet
  facet normal 0 0 1
    outer loop
      vertex -8.88378 4.55931 0
      vertex -8.10899 -4.30757 0
      vertex -8.10899 4.30757 0
    endloop
  endfacet
  facet normal 0 0 1
    outer loop
      vertex -8.88378 4.55931 0
      vertex -8.88378 -4.55931 0
      vertex -8.10899 -4.30757 0
    endloop
  endfacet
  facet normal 0 0 1
    outer loop
      vertex -9.57163 4.99583 0
      vertex -8.88378 -4.55931 0
      vertex -8.88378 4.55931 0
    endloop
  endfacet
  facet normal 0 0 1
    outer loop
      vertex -9.57163 4.99583 0
      vertex -9.57163 -4.99583 0
      vertex -8.88378 -4.55931 0
    endloop
  endfacet
  facet normal 0 0 1
    outer loop
      vertex -10.1293 5.5897 0
      vertex -9.57163 -4.99583 0
      vertex -9.57163 4.99583 0
    endloop
  endfacet
  facet normal 0 0 1
    outer loop
      vertex -10.1293 5.5897 0
      vertex -10.1293 -5.5897 0
      vertex -9.57163 -4.99583 0
    endloop
  endfacet
  facet normal 0 0 1
    outer loop
      vertex -13.5 8.5 0
      vertex -10.1293 5.5897 0
      vertex -10.5218 6.30359 0
    endloop
  endfacet
  facet normal 0 0 1
    outer loop
      vertex -10.1293 5.5897 0
      vertex -13.5 8.5 0
      vertex -10.1293 -5.5897 0
    endloop
  endfacet
  facet normal 0 0 1
    outer loop
      vertex -13.5 8.5 0
      vertex -10.5218 6.30359 0
      vertex -10.7244 7.09267 0
    endloop
  endfacet
  facet normal 0 0 1
    outer loop
      vertex -13.5 -8.5 0
      vertex -10.1293 -5.5897 0
      vertex -13.5 8.5 0
    endloop
  endfacet
  facet normal 0 0 1
    outer loop
      vertex 13.5 8.5 0
      vertex 10.348 5.9343 0
      vertex 13.5 -8.5 0
    endloop
  endfacet
  facet normal 0 0 1
    outer loop
      vertex 13.5 -8.5 0
      vertex 10.6479 -6.69176 0
      vertex 10.75 -7.5 0
    endloop
  endfacet
  facet normal -0 0 1
    outer loop
      vertex 10.348 -5.9343 0
      vertex 13.5 -8.5 0
      vertex 10.348 5.9343 0
    endloop
  endfacet
  facet normal 0 0 1
    outer loop
      vertex 13.5 -8.5 0
      vertex 10.348 -5.9343 0
      vertex 10.6479 -6.69176 0
    endloop
  endfacet
  facet normal -0 0 1
    outer loop
      vertex 9.86915 5.27522 0
      vertex 10.348 -5.9343 0
      vertex 10.348 5.9343 0
    endloop
  endfacet
  facet normal 0 0 1
    outer loop
      vertex 9.86915 5.27522 0
      vertex 9.86915 -5.27522 0
      vertex 10.348 -5.9343 0
    endloop
  endfacet
  facet normal -0 0 1
    outer loop
      vertex 9.24144 4.75593 0
      vertex 9.86915 -5.27522 0
      vertex 9.86915 5.27522 0
    endloop
  endfacet
  facet normal 0 0 1
    outer loop
      vertex 9.24144 4.75593 0
      vertex 9.24144 -4.75593 0
      vertex 9.86915 -5.27522 0
    endloop
  endfacet
  facet normal -0 0 1
    outer loop
      vertex 8.5043 4.40907 0
      vertex 9.24144 -4.75593 0
      vertex 9.24144 4.75593 0
    endloop
  endfacet
  facet normal 0 0 1
    outer loop
      vertex 8.5043 4.40907 0
      vertex 8.5043 -4.40907 0
      vertex 9.24144 -4.75593 0
    endloop
  endfacet
  facet normal -0 0 1
    outer loop
      vertex 7.70407 4.25641 0
      vertex 8.5043 -4.40907 0
      vertex 8.5043 4.40907 0
    endloop
  endfacet
  facet normal 0 0 1
    outer loop
      vertex 7.70407 4.25641 0
      vertex 7.70407 -4.25641 0
      vertex 8.5043 -4.40907 0
    endloop
  endfacet
  facet normal 0 0 1
    outer loop
      vertex 6.89101 4.30757 0
      vertex 7.70407 -4.25641 0
      vertex 7.70407 4.25641 0
    endloop
  endfacet
  facet normal 0 0 1
    outer loop
      vertex 6.89101 4.30757 0
      vertex 6.89101 -4.30757 0
      vertex 7.70407 -4.25641 0
    endloop
  endfacet
  facet normal 0 0 1
    outer loop
      vertex 6.11622 4.55931 0
      vertex 6.89101 -4.30757 0
      vertex 6.89101 4.30757 0
    endloop
  endfacet
  facet normal 0 0 1
    outer loop
      vertex 6.11622 4.55931 0
      vertex 6.11622 -4.55931 0
      vertex 6.89101 -4.30757 0
    endloop
  endfacet
  facet normal 0 0 1
    outer loop
      vertex 5.42837 4.99583 0
      vertex 6.11622 -4.55931 0
      vertex 6.11622 4.55931 0
    endloop
  endfacet
  facet normal 0 0 1
    outer loop
      vertex 5.42837 4.99583 0
      vertex 5.42837 -4.99583 0
      vertex 6.11622 -4.55931 0
    endloop
  endfacet
  facet normal 0 0 1
    outer loop
      vertex -5.13085 5.27522 0
      vertex 4.87069 5.5897 0
      vertex -4.652 5.9343 0
    endloop
  endfacet
  facet normal 0 0 1
    outer loop
      vertex 4.87069 5.5897 0
      vertex -5.13085 5.27522 0
      vertex 5.42837 4.99583 0
    endloop
  endfacet
  facet normal 0 0 1
    outer loop
      vertex 4.27563 7.09267 0
      vertex -4.3521 6.69176 0
      vertex 4.47823 6.30359 0
    endloop
  endfacet
  facet normal 0 0 1
    outer loop
      vertex -4.652 5.9343 0
      vertex 4.47823 6.30359 0
      vertex -4.3521 6.69176 0
    endloop
  endfacet
  facet normal 0 0 1
    outer loop
      vertex -4.3521 6.69176 0
      vertex 4.27563 7.09267 0
      vertex -4.25 7.5 0
    endloop
  endfacet
  facet normal 0 0 1
    outer loop
      vertex 4.47823 6.30359 0
      vertex -4.652 5.9343 0
      vertex 4.87069 5.5897 0
    endloop
  endfacet
  facet normal 0 0 1
    outer loop
      vertex 10.6479 8.30824 0
      vertex 13.5 8.5 0
      vertex 13.3429 9.74345 0
    endloop
  endfacet
  facet normal 0 0 1
    outer loop
      vertex 10.6479 6.69176 0
      vertex 13.5 8.5 0
      vertex 10.75 7.5 0
    endloop
  endfacet
  facet normal 0 0 1
    outer loop
      vertex 10.348 9.0657 0
      vertex 13.3429 9.74345 0
      vertex 12.8815 10.9088 0
    endloop
  endfacet
  facet normal 0 0 1
    outer loop
      vertex 10.348 5.9343 0
      vertex 13.5 8.5 0
      vertex 10.6479 6.69176 0
    endloop
  endfacet
  facet normal 0 0 1
    outer loop
      vertex 9.86915 9.72478 0
      vertex 12.8815 10.9088 0
      vertex 12.1448 11.9227 0
    endloop
  endfacet
  facet normal -0 0 1
    outer loop
      vertex 10.6479 -8.30824 0
      vertex 13.5 -8.5 0
      vertex 10.75 -7.5 0
    endloop
  endfacet
  facet normal 0 0 1
    outer loop
      vertex 9.86915 9.72478 0
      vertex 12.1448 11.9227 0
      vertex 11.1791 12.7216 0
    endloop
  endfacet
  facet normal 0 0 1
    outer loop
      vertex 13.5 -8.5 0
      vertex 10.6479 -8.30824 0
      vertex 13.2553 -10.0451 0
    endloop
  endfacet
  facet normal -0 0 1
    outer loop
      vertex 10.348 -9.0657 0
      vertex 13.2553 -10.0451 0
      vertex 10.6479 -8.30824 0
    endloop
  endfacet
  facet normal 0 0 1
    outer loop
      vertex 13.5 8.5 0
      vertex 10.6479 8.30824 0
      vertex 10.75 7.5 0
    endloop
  endfacet
  facet normal 0 0 1
    outer loop
      vertex 13.3429 9.74345 0
      vertex 10.348 9.0657 0
      vertex 10.6479 8.30824 0
    endloop
  endfacet
  facet normal 0 0 1
    outer loop
      vertex 9.24144 10.2441 0
      vertex 11.1791 12.7216 0
      vertex 10.0451 13.2553 0
    endloop
  endfacet
  facet normal 0 0 1
    outer loop
      vertex 12.8815 10.9088 0
      vertex 9.86915 9.72478 0
      vertex 10.348 9.0657 0
    endloop
  endfacet
  facet normal 0 0 1
    outer loop
      vertex 11.1791 12.7216 0
      vertex 9.24144 10.2441 0
      vertex 9.86915 9.72478 0
    endloop
  endfacet
  facet normal 0 0 1
    outer loop
      vertex 10.0451 13.2553 0
      vertex 8.5043 10.5909 0
      vertex 9.24144 10.2441 0
    endloop
  endfacet
  facet normal 0 0 1
    outer loop
      vertex 8.5 13.5 0
      vertex 8.5043 10.5909 0
      vertex 10.0451 13.2553 0
    endloop
  endfacet
  facet normal 0 0 1
    outer loop
      vertex 8.5 13.5 0
      vertex 7.70407 10.7436 0
      vertex 8.5043 10.5909 0
    endloop
  endfacet
  facet normal 0 0 1
    outer loop
      vertex 8.5 13.5 0
      vertex 6.89101 10.6924 0
      vertex 7.70407 10.7436 0
    endloop
  endfacet
  facet normal 0 0 1
    outer loop
      vertex 8.5 13.5 0
      vertex 6.11622 10.4407 0
      vertex 6.89101 10.6924 0
    endloop
  endfacet
  facet normal 0 0 1
    outer loop
      vertex 8.5 13.5 0
      vertex 5.42837 10.0042 0
      vertex 6.11622 10.4407 0
    endloop
  endfacet
  facet normal -0 0 1
    outer loop
      vertex -5.75856 10.2441 0
      vertex 5.42837 10.0042 0
      vertex 8.5 13.5 0
    endloop
  endfacet
  facet normal -0 0 1
    outer loop
      vertex -4.25 7.5 0
      vertex 4.27563 7.09267 0
      vertex 4.27563 7.90733 0
    endloop
  endfacet
  facet normal 0 0 1
    outer loop
      vertex 4.87069 -5.5897 0
      vertex -4.25 -7.5 0
      vertex 4.47823 -6.30359 0
    endloop
  endfacet
  facet normal 0 0 1
    outer loop
      vertex 4.47823 -6.30359 0
      vertex -4.25 -7.5 0
      vertex 4.27563 -7.09267 0
    endloop
  endfacet
  facet normal -0 0 1
    outer loop
      vertex -4.3521 8.30824 0
      vertex 4.27563 7.90733 0
      vertex 4.47823 8.6964 0
    endloop
  endfacet
  facet normal -0 0 1
    outer loop
      vertex -4.652 9.0657 0
      vertex 4.47823 8.6964 0
      vertex 4.87069 9.4103 0
    endloop
  endfacet
  facet normal 0 -0 1
    outer loop
      vertex -5.13085 9.72478 0
      vertex 5.42837 10.0042 0
      vertex -5.75856 10.2441 0
    endloop
  endfacet
  facet normal 0 0 1
    outer loop
      vertex 4.27563 7.90733 0
      vertex -4.3521 8.30824 0
      vertex -4.25 7.5 0
    endloop
  endfacet
  facet normal 0 0 1
    outer loop
      vertex 4.47823 8.6964 0
      vertex -4.652 9.0657 0
      vertex -4.3521 8.30824 0
    endloop
  endfacet
  facet normal 0 0 1
    outer loop
      vertex 4.87069 9.4103 0
      vertex -5.13085 9.72478 0
      vertex -4.652 9.0657 0
    endloop
  endfacet
  facet normal 0 0 1
    outer loop
      vertex 5.42837 10.0042 0
      vertex -5.13085 9.72478 0
      vertex 4.87069 9.4103 0
    endloop
  endfacet
  facet normal -0 0 1
    outer loop
      vertex -8.5 13.5 0
      vertex -5.75856 10.2441 0
      vertex 8.5 13.5 0
    endloop
  endfacet
  facet normal 0 0 1
    outer loop
      vertex -5.75856 10.2441 0
      vertex -8.5 13.5 0
      vertex -6.49569 10.5909 0
    endloop
  endfacet
  facet normal 0 0 1
    outer loop
      vertex -6.49569 10.5909 0
      vertex -8.5 13.5 0
      vertex -7.29593 10.7436 0
    endloop
  endfacet
  facet normal 0 0 1
    outer loop
      vertex -7.29593 10.7436 0
      vertex -8.5 13.5 0
      vertex -8.10899 10.6924 0
    endloop
  endfacet
  facet normal -0 0 1
    outer loop
      vertex -9.74345 13.3429 0
      vertex -8.10899 10.6924 0
      vertex -8.5 13.5 0
    endloop
  endfacet
  facet normal 0 0 1
    outer loop
      vertex -8.10899 10.6924 0
      vertex -9.74345 13.3429 0
      vertex -8.88378 10.4407 0
    endloop
  endfacet
  facet normal -0 0 1
    outer loop
      vertex -10.9088 12.8815 0
      vertex -8.88378 10.4407 0
      vertex -9.74345 13.3429 0
    endloop
  endfacet
  facet normal 0 0 1
    outer loop
      vertex -8.88378 10.4407 0
      vertex -10.9088 12.8815 0
      vertex -9.57163 10.0042 0
    endloop
  endfacet
  facet normal -0 0 1
    outer loop
      vertex -11.9227 12.1448 0
      vertex -9.57163 10.0042 0
      vertex -10.9088 12.8815 0
    endloop
  endfacet
  facet normal 0 0 1
    outer loop
      vertex -9.57163 10.0042 0
      vertex -11.9227 12.1448 0
      vertex -10.1293 9.4103 0
    endloop
  endfacet
  facet normal 0 0 1
    outer loop
      vertex -13.5 8.5 0
      vertex -10.7244 7.09267 0
      vertex -10.7244 7.90733 0
    endloop
  endfacet
  facet normal 0 0 1
    outer loop
      vertex -10.1293 -5.5897 0
      vertex -13.5 -8.5 0
      vertex -10.5218 -6.30359 0
    endloop
  endfacet
  facet normal -0 0 1
    outer loop
      vertex -13.2553 10.0451 0
      vertex -10.1293 9.4103 0
      vertex -12.7216 11.1791 0
    endloop
  endfacet
  facet normal -0 0 1
    outer loop
      vertex -12.7216 11.1791 0
      vertex -10.1293 9.4103 0
      vertex -11.9227 12.1448 0
    endloop
  endfacet
  facet normal 0 0 1
    outer loop
      vertex 13.2553 -10.0451 0
      vertex 10.348 -9.0657 0
      vertex 12.7216 -11.1791 0
    endloop
  endfacet
  facet normal -0 0 1
    outer loop
      vertex 9.86915 -9.72478 0
      vertex 12.7216 -11.1791 0
      vertex 10.348 -9.0657 0
    endloop
  endfacet
  facet normal 0 0 1
    outer loop
      vertex 12.7216 -11.1791 0
      vertex 9.86915 -9.72478 0
      vertex 11.9227 -12.1448 0
    endloop
  endfacet
  facet normal -0 0 1
    outer loop
      vertex 9.24144 -10.2441 0
      vertex 11.9227 -12.1448 0
      vertex 9.86915 -9.72478 0
    endloop
  endfacet
  facet normal 0 0 1
    outer loop
      vertex 11.9227 -12.1448 0
      vertex 9.24144 -10.2441 0
      vertex 10.9088 -12.8815 0
    endloop
  endfacet
  facet normal 0 0 1
    outer loop
      vertex 10.9088 -12.8815 0
      vertex 9.24144 -10.2441 0
      vertex 9.74345 -13.3429 0
    endloop
  endfacet
  facet normal -0 0 1
    outer loop
      vertex 8.5043 -10.5909 0
      vertex 9.74345 -13.3429 0
      vertex 9.24144 -10.2441 0
    endloop
  endfacet
  facet normal 0 0 1
    outer loop
      vertex 8.5043 -10.5909 0
      vertex 8.5 -13.5 0
      vertex 9.74345 -13.3429 0
    endloop
  endfacet
  facet normal -0 0 1
    outer loop
      vertex 7.70407 -10.7436 0
      vertex 8.5 -13.5 0
      vertex 8.5043 -10.5909 0
    endloop
  endfacet
  facet normal 0 0 1
    outer loop
      vertex 6.89101 -10.6924 0
      vertex 8.5 -13.5 0
      vertex 7.70407 -10.7436 0
    endloop
  endfacet
  facet normal 0 0 1
    outer loop
      vertex 6.11622 -10.4407 0
      vertex 8.5 -13.5 0
      vertex 6.89101 -10.6924 0
    endloop
  endfacet
  facet normal 0 0 1
    outer loop
      vertex 5.42837 -10.0042 0
      vertex 8.5 -13.5 0
      vertex 6.11622 -10.4407 0
    endloop
  endfacet
  facet normal -0 0 1
    outer loop
      vertex -5.13085 -9.72478 0
      vertex 5.42837 -10.0042 0
      vertex 4.87069 -9.4103 0
    endloop
  endfacet
  facet normal 0 0 1
    outer loop
      vertex 4.27563 -7.09267 0
      vertex -4.25 -7.5 0
      vertex 4.27563 -7.90733 0
    endloop
  endfacet
  facet normal 0 0 1
    outer loop
      vertex -4.3521 -8.30824 0
      vertex 4.27563 -7.90733 0
      vertex -4.25 -7.5 0
    endloop
  endfacet
  facet normal 0 0 1
    outer loop
      vertex 4.27563 -7.90733 0
      vertex -4.3521 -8.30824 0
      vertex 4.47823 -8.6964 0
    endloop
  endfacet
  facet normal 0 0 1
    outer loop
      vertex -4.652 -9.0657 0
      vertex 4.47823 -8.6964 0
      vertex -4.3521 -8.30824 0
    endloop
  endfacet
  facet normal 0 0 1
    outer loop
      vertex 4.47823 -8.6964 0
      vertex -4.652 -9.0657 0
      vertex 4.87069 -9.4103 0
    endloop
  endfacet
  facet normal 0 0 1
    outer loop
      vertex -5.13085 -9.72478 0
      vertex 4.87069 -9.4103 0
      vertex -4.652 -9.0657 0
    endloop
  endfacet
  facet normal 0 0 1
    outer loop
      vertex 5.42837 -10.0042 0
      vertex -5.13085 -9.72478 0
      vertex -5.75856 -10.2441 0
    endloop
  endfacet
  facet normal 0 0 1
    outer loop
      vertex 5.42837 -10.0042 0
      vertex -5.75856 -10.2441 0
      vertex 8.5 -13.5 0
    endloop
  endfacet
  facet normal 0 0 1
    outer loop
      vertex -8.5 -13.5 0
      vertex -5.75856 -10.2441 0
      vertex -6.49569 -10.5909 0
    endloop
  endfacet
  facet normal 0 0 1
    outer loop
      vertex -8.5 -13.5 0
      vertex -6.49569 -10.5909 0
      vertex -7.29593 -10.7436 0
    endloop
  endfacet
  facet normal 0 0 1
    outer loop
      vertex -8.5 -13.5 0
      vertex -7.29593 -10.7436 0
      vertex -8.10899 -10.6924 0
    endloop
  endfacet
  facet normal 0 0 1
    outer loop
      vertex -5.75856 -10.2441 0
      vertex -8.5 -13.5 0
      vertex 8.5 -13.5 0
    endloop
  endfacet
  facet normal 0 0 1
    outer loop
      vertex -8.88378 -10.4407 0
      vertex -8.5 -13.5 0
      vertex -8.10899 -10.6924 0
    endloop
  endfacet
  facet normal 0 0 1
    outer loop
      vertex -11.1791 -12.7216 0
      vertex -8.88378 -10.4407 0
      vertex -9.57163 -10.0042 0
    endloop
  endfacet
  facet normal 0 0 1
    outer loop
      vertex -8.88378 -10.4407 0
      vertex -10.0451 -13.2553 0
      vertex -8.5 -13.5 0
    endloop
  endfacet
  facet normal 0 0 1
    outer loop
      vertex -12.1448 -11.9227 0
      vertex -9.57163 -10.0042 0
      vertex -10.1293 -9.4103 0
    endloop
  endfacet
  facet normal 0 0 1
    outer loop
      vertex -12.8815 -10.9088 0
      vertex -10.1293 -9.4103 0
      vertex -10.5218 -8.6964 0
    endloop
  endfacet
  facet normal -0 0 1
    outer loop
      vertex -13.5 -8.5 0
      vertex -10.5218 -8.6964 0
      vertex -10.7244 -7.90733 0
    endloop
  endfacet
  facet normal 0 0 1
    outer loop
      vertex -8.88378 -10.4407 0
      vertex -11.1791 -12.7216 0
      vertex -10.0451 -13.2553 0
    endloop
  endfacet
  facet normal 0 0 1
    outer loop
      vertex -10.5218 -6.30359 0
      vertex -13.5 -8.5 0
      vertex -10.7244 -7.09267 0
    endloop
  endfacet
  facet normal 0 0 1
    outer loop
      vertex -10.1293 9.4103 0
      vertex -13.2553 10.0451 0
      vertex -10.5218 8.6964 0
    endloop
  endfacet
  facet normal 0 0 1
    outer loop
      vertex -10.7244 -7.09267 0
      vertex -13.5 -8.5 0
      vertex -10.7244 -7.90733 0
    endloop
  endfacet
  facet normal 0 0 1
    outer loop
      vertex -13.5 8.5 0
      vertex -10.5218 8.6964 0
      vertex -13.2553 10.0451 0
    endloop
  endfacet
  facet normal 0 0 1
    outer loop
      vertex -10.5218 -8.6964 0
      vertex -13.5 -8.5 0
      vertex -13.3429 -9.74345 0
    endloop
  endfacet
  facet normal 0 0 1
    outer loop
      vertex -10.5218 8.6964 0
      vertex -13.5 8.5 0
      vertex -10.7244 7.90733 0
    endloop
  endfacet
  facet normal 0 0 1
    outer loop
      vertex -9.57163 -10.0042 0
      vertex -12.1448 -11.9227 0
      vertex -11.1791 -12.7216 0
    endloop
  endfacet
  facet normal 0 0 1
    outer loop
      vertex -10.1293 -9.4103 0
      vertex -12.8815 -10.9088 0
      vertex -12.1448 -11.9227 0
    endloop
  endfacet
  facet normal 0 0 1
    outer loop
      vertex -10.5218 -8.6964 0
      vertex -13.3429 -9.74345 0
      vertex -12.8815 -10.9088 0
    endloop
  endfacet
  facet normal -0.637426 -0.770512 0
    outer loop
      vertex -12.1448 -11.9227 -3
      vertex -11.1791 -12.7216 0
      vertex -12.1448 -11.9227 0
    endloop
  endfacet
  facet normal -0.637426 -0.770512 -0
    outer loop
      vertex -11.1791 -12.7216 0
      vertex -12.1448 -11.9227 -3
      vertex -11.1791 -12.7216 -3
    endloop
  endfacet
  facet normal -0.425832 -0.904802 0
    outer loop
      vertex -11.1791 -12.7216 -3
      vertex -10.0451 -13.2553 0
      vertex -11.1791 -12.7216 0
    endloop
  endfacet
  facet normal -0.425832 -0.904802 -0
    outer loop
      vertex -10.0451 -13.2553 0
      vertex -11.1791 -12.7216 -3
      vertex -10.0451 -13.2553 -3
    endloop
  endfacet
  facet normal -0.368128 0.929775 0
    outer loop
      vertex -9.74345 13.3429 -3
      vertex -10.9088 12.8815 0
      vertex -9.74345 13.3429 0
    endloop
  endfacet
  facet normal -0.368128 0.929775 0
    outer loop
      vertex -10.9088 12.8815 0
      vertex -9.74345 13.3429 -3
      vertex -10.9088 12.8815 -3
    endloop
  endfacet
  facet normal 0.425832 0.904802 -0
    outer loop
      vertex 11.1791 12.7216 -3
      vertex 10.0451 13.2553 0
      vertex 11.1791 12.7216 0
    endloop
  endfacet
  facet normal 0.425832 0.904802 0
    outer loop
      vertex 10.0451 13.2553 0
      vertex 11.1791 12.7216 -3
      vertex 10.0451 13.2553 -3
    endloop
  endfacet
  facet normal 0.98769 -0.156422 0
    outer loop
      vertex 13.2553 -10.0451 0
      vertex 13.5 -8.5 -3
      vertex 13.5 -8.5 0
    endloop
  endfacet
  facet normal 0.98769 -0.156422 0
    outer loop
      vertex 13.5 -8.5 -3
      vertex 13.2553 -10.0451 0
      vertex 13.2553 -10.0451 -3
    endloop
  endfacet
  facet normal 0.770512 -0.637426 0
    outer loop
      vertex 11.9227 -12.1448 0
      vertex 12.7216 -11.1791 -3
      vertex 12.7216 -11.1791 0
    endloop
  endfacet
  facet normal 0.770512 -0.637426 0
    outer loop
      vertex 12.7216 -11.1791 -3
      vertex 11.9227 -12.1448 0
      vertex 11.9227 -12.1448 -3
    endloop
  endfacet
  facet normal 0.808995 0.587816 0
    outer loop
      vertex 12.8815 10.9088 0
      vertex 12.1448 11.9227 -3
      vertex 12.1448 11.9227 0
    endloop
  endfacet
  facet normal 0.808995 0.587816 0
    outer loop
      vertex 12.1448 11.9227 -3
      vertex 12.8815 10.9088 0
      vertex 12.8815 10.9088 -3
    endloop
  endfacet
  facet normal -0.98769 0.156422 0
    outer loop
      vertex -13.5 8.5 -3
      vertex -13.2553 10.0451 0
      vertex -13.2553 10.0451 -3
    endloop
  endfacet
  facet normal -0.98769 0.156422 0
    outer loop
      vertex -13.2553 10.0451 0
      vertex -13.5 8.5 -3
      vertex -13.5 8.5 0
    endloop
  endfacet
  facet normal -0.904802 0.425832 0
    outer loop
      vertex -13.2553 10.0451 -3
      vertex -12.7216 11.1791 0
      vertex -12.7216 11.1791 -3
    endloop
  endfacet
  facet normal -0.904802 0.425832 0
    outer loop
      vertex -12.7216 11.1791 0
      vertex -13.2553 10.0451 -3
      vertex -13.2553 10.0451 0
    endloop
  endfacet
  facet normal -0.770512 0.637426 0
    outer loop
      vertex -12.7216 11.1791 -3
      vertex -11.9227 12.1448 0
      vertex -11.9227 12.1448 -3
    endloop
  endfacet
  facet normal -0.770512 0.637426 0
    outer loop
      vertex -11.9227 12.1448 0
      vertex -12.7216 11.1791 -3
      vertex -12.7216 11.1791 0
    endloop
  endfacet
  facet normal -0.992113 -0.125346 0
    outer loop
      vertex -13.3429 -9.74345 -3
      vertex -13.5 -8.5 0
      vertex -13.5 -8.5 -3
    endloop
  endfacet
  facet normal -0.992113 -0.125346 0
    outer loop
      vertex -13.5 -8.5 0
      vertex -13.3429 -9.74345 -3
      vertex -13.3429 -9.74345 0
    endloop
  endfacet
  facet normal -0.125346 0.992113 0
    outer loop
      vertex -8.5 13.5 -3
      vertex -9.74345 13.3429 0
      vertex -8.5 13.5 0
    endloop
  endfacet
  facet normal -0.125346 0.992113 0
    outer loop
      vertex -9.74345 13.3429 0
      vertex -8.5 13.5 -3
      vertex -9.74345 13.3429 -3
    endloop
  endfacet
  facet normal 0.929775 0.368128 0
    outer loop
      vertex 13.3429 9.74345 0
      vertex 12.8815 10.9088 -3
      vertex 12.8815 10.9088 0
    endloop
  endfacet
  facet normal 0.929775 0.368128 0
    outer loop
      vertex 12.8815 10.9088 -3
      vertex 13.3429 9.74345 0
      vertex 13.3429 9.74345 -3
    endloop
  endfacet
  facet normal 0.992113 0.125346 0
    outer loop
      vertex 13.5 8.5 0
      vertex 13.3429 9.74345 -3
      vertex 13.3429 9.74345 0
    endloop
  endfacet
  facet normal 0.992113 0.125346 0
    outer loop
      vertex 13.3429 9.74345 -3
      vertex 13.5 8.5 0
      vertex 13.5 8.5 -3
    endloop
  endfacet
  facet normal -0.587816 0.808995 0
    outer loop
      vertex -10.9088 12.8815 -3
      vertex -11.9227 12.1448 0
      vertex -10.9088 12.8815 0
    endloop
  endfacet
  facet normal -0.587816 0.808995 0
    outer loop
      vertex -11.9227 12.1448 0
      vertex -10.9088 12.8815 -3
      vertex -11.9227 12.1448 -3
    endloop
  endfacet
  facet normal -0.929775 -0.368128 0
    outer loop
      vertex -12.8815 -10.9088 -3
      vertex -13.3429 -9.74345 0
      vertex -13.3429 -9.74345 -3
    endloop
  endfacet
  facet normal -0.929775 -0.368128 0
    outer loop
      vertex -13.3429 -9.74345 0
      vertex -12.8815 -10.9088 -3
      vertex -12.8815 -10.9088 0
    endloop
  endfacet
endsolid OpenSCAD_Model
