<?xml version="1.0" standalone="no"?>
<!DOCTYPE svg PUBLIC "-//W3C//DTD SVG 1.1//EN" "http://www.w3.org/Graphics/SVG/1.1/DTD/svg11.dtd">
<svg width="28mm" height="28mm" viewBox="-14 -14 28 28" xmlns="http://www.w3.org/2000/svg" version="1.1">
<title>OpenSCAD Model</title>
<path d="
M 9.15762,13.4622 L 9.79909,13.3346 L 10.4184,13.1244 L 11.005,12.8351 L 11.5488,12.4718 L 12.0405,12.0405
 L 12.4718,11.5488 L 12.8351,11.005 L 13.1244,10.4184 L 13.3346,9.79909 L 13.4622,9.15762 L 13.505,8.50499
 L 13.505,-8.50499 L 13.4622,-9.15762 L 13.3346,-9.79909 L 13.1244,-10.4184 L 12.8351,-11.005 L 12.4718,-11.5488
 L 12.0405,-12.0405 L 11.5488,-12.4718 L 11.005,-12.8351 L 10.4184,-13.1244 L 9.79909,-13.3346 L 9.15762,-13.4622
 L 8.50499,-13.505 L -8.50499,-13.505 L -9.15762,-13.4622 L -9.79909,-13.3346 L -10.4184,-13.1244 L -11.005,-12.8351
 L -11.5488,-12.4718 L -12.0405,-12.0405 L -12.4718,-11.5488 L -12.8351,-11.005 L -13.1244,-10.4184 L -13.3346,-9.79909
 L -13.4622,-9.15762 L -13.505,-8.50499 L -13.505,8.50499 L -13.4622,9.15762 L -13.3346,9.79909 L -13.1244,10.4184
 L -12.8351,11.005 L -12.4718,11.5488 L -12.0405,12.0405 L -11.5488,12.4718 L -11.005,12.8351 L -10.4184,13.1244
 L -9.79909,13.3346 L -9.15762,13.4622 L -8.50499,13.505 L 8.50499,13.505 z
M 7.10841,-4.52567 L 6.72354,-4.60222 L 6.35194,-4.72835 L 6,-4.90192 L 5.67371,-5.11993 L 5.37868,-5.37868
 L 5.11993,-5.67371 L 4.90192,-6 L 4.72835,-6.35194 L 4.60222,-6.72354 L 4.52567,-7.10841 L 4.5,-7.5
 L 4.52567,-7.89157 L 4.60222,-8.27644 L 4.72835,-8.64804 L 4.90192,-9 L 5.11993,-9.32628 L 5.37868,-9.62131
 L 5.67371,-9.88005 L 6,-10.0981 L 6.35194,-10.2716 L 6.72354,-10.3978 L 7.10841,-10.4743 L 7.5,-10.5
 L 7.89157,-10.4743 L 8.27644,-10.3978 L 8.64804,-10.2716 L 9,-10.0981 L 9.32628,-9.88005 L 9.62131,-9.62131
 L 9.88005,-9.32628 L 10.0981,-9 L 10.2716,-8.64804 L 10.3978,-8.27644 L 10.4743,-7.89157 L 10.5,-7.5
 L 10.4743,-7.10841 L 10.3978,-6.72354 L 10.2716,-6.35194 L 10.0981,-6 L 9.88005,-5.67371 L 9.62131,-5.37868
 L 9.32628,-5.11993 L 9,-4.90192 L 8.64804,-4.72835 L 8.27644,-4.60222 L 7.89157,-4.52567 L 7.5,-4.5
 z
M -7.89157,-4.52567 L -8.27644,-4.60222 L -8.64804,-4.72835 L -9,-4.90192 L -9.32628,-5.11993 L -9.62131,-5.37868
 L -9.88005,-5.67371 L -10.0981,-6 L -10.2716,-6.35194 L -10.3978,-6.72354 L -10.4743,-7.10841 L -10.5,-7.5
 L -10.4743,-7.89157 L -10.3978,-8.27644 L -10.2716,-8.64804 L -10.0981,-9 L -9.88005,-9.32628 L -9.62131,-9.62131
 L -9.32628,-9.88005 L -9,-10.0981 L -8.64804,-10.2716 L -8.27644,-10.3978 L -7.89157,-10.4743 L -7.5,-10.5
 L -7.10841,-10.4743 L -6.72354,-10.3978 L -6.35194,-10.2716 L -6,-10.0981 L -5.67371,-9.88005 L -5.37868,-9.62131
 L -5.11993,-9.32628 L -4.90192,-9 L -4.72835,-8.64804 L -4.60222,-8.27644 L -4.52567,-7.89157 L -4.5,-7.5
 L -4.52567,-7.10841 L -4.60222,-6.72354 L -4.72835,-6.35194 L -4.90192,-6 L -5.11993,-5.67371 L -5.37868,-5.37868
 L -5.67371,-5.11993 L -6,-4.90192 L -6.35194,-4.72835 L -6.72354,-4.60222 L -7.10841,-4.52567 L -7.5,-4.5
 z
M -7.89157,10.4743 L -8.27644,10.3978 L -8.64804,10.2716 L -9,10.0981 L -9.32628,9.88005 L -9.62131,9.62131
 L -9.88005,9.32628 L -10.0981,9 L -10.2716,8.64804 L -10.3978,8.27644 L -10.4743,7.89157 L -10.5,7.5
 L -10.4743,7.10841 L -10.3978,6.72354 L -10.2716,6.35194 L -10.0981,6 L -9.88005,5.67371 L -9.62131,5.37868
 L -9.32628,5.11993 L -9,4.90192 L -8.64804,4.72835 L -8.27644,4.60222 L -7.89157,4.52567 L -7.5,4.5
 L -7.10841,4.52567 L -6.72354,4.60222 L -6.35194,4.72835 L -6,4.90192 L -5.67371,5.11993 L -5.37868,5.37868
 L -5.11993,5.67371 L -4.90192,6 L -4.72835,6.35194 L -4.60222,6.72354 L -4.52567,7.10841 L -4.5,7.5
 L -4.52567,7.89157 L -4.60222,8.27644 L -4.72835,8.64804 L -4.90192,9 L -5.11993,9.32628 L -5.37868,9.62131
 L -5.67371,9.88005 L -6,10.0981 L -6.35194,10.2716 L -6.72354,10.3978 L -7.10841,10.4743 L -7.5,10.5
 z
M 7.10841,10.4743 L 6.72354,10.3978 L 6.35194,10.2716 L 6,10.0981 L 5.67371,9.88005 L 5.37868,9.62131
 L 5.11993,9.32628 L 4.90192,9 L 4.72835,8.64804 L 4.60222,8.27644 L 4.52567,7.89157 L 4.5,7.5
 L 4.52567,7.10841 L 4.60222,6.72354 L 4.72835,6.35194 L 4.90192,6 L 5.11993,5.67371 L 5.37868,5.37868
 L 5.67371,5.11993 L 6,4.90192 L 6.35194,4.72835 L 6.72354,4.60222 L 7.10841,4.52567 L 7.5,4.5
 L 7.89157,4.52567 L 8.27644,4.60222 L 8.64804,4.72835 L 9,4.90192 L 9.32628,5.11993 L 9.62131,5.37868
 L 9.88005,5.67371 L 10.0981,6 L 10.2716,6.35194 L 10.3978,6.72354 L 10.4743,7.10841 L 10.5,7.5
 L 10.4743,7.89157 L 10.3978,8.27644 L 10.2716,8.64804 L 10.0981,9 L 9.88005,9.32628 L 9.62131,9.62131
 L 9.32628,9.88005 L 9,10.0981 L 8.64804,10.2716 L 8.27644,10.3978 L 7.89157,10.4743 L 7.5,10.5
 z
" stroke="black" fill="lightgray" stroke-width="0.5"/>
</svg>
