<?xml version="1.0" standalone="no"?>
<!DOCTYPE svg PUBLIC "-//W3C//DTD SVG 1.1//EN" "http://www.w3.org/Graphics/SVG/1.1/DTD/svg11.dtd">
<svg width="28mm" height="28mm" viewBox="-14 -14 28 28" xmlns="http://www.w3.org/2000/svg" version="1.1">
<title>OpenSCAD Model</title>
<path d="
M 9.15762,13.4622 L 9.79909,13.3346 L 10.4184,13.1244 L 11.005,12.8351 L 11.5488,12.4718 L 12.0405,12.0405
 L 12.4718,11.5488 L 12.8351,11.005 L 13.1244,10.4184 L 13.3346,9.79909 L 13.4622,9.15762 L 13.505,8.50499
 L 13.505,-8.50499 L 13.4622,-9.15762 L 13.3346,-9.79909 L 13.1244,-10.4184 L 12.8351,-11.005 L 12.4718,-11.5488
 L 12.0405,-12.0405 L 11.5488,-12.4718 L 11.005,-12.8351 L 10.4184,-13.1244 L 9.79909,-13.3346 L 9.15762,-13.4622
 L 8.50499,-13.505 L -8.50499,-13.505 L -9.15762,-13.4622 L -9.79909,-13.3346 L -10.4184,-13.1244 L -11.005,-12.8351
 L -11.5488,-12.4718 L -12.0405,-12.0405 L -12.4718,-11.5488 L -12.8351,-11.005 L -13.1244,-10.4184 L -13.3346,-9.79909
 L -13.4622,-9.15762 L -13.505,-8.50499 L -13.505,8.50499 L -13.4622,9.15762 L -13.3346,9.79909 L -13.1244,10.4184
 L -12.8351,11.005 L -12.4718,11.5488 L -12.0405,12.0405 L -11.5488,12.4718 L -11.005,12.8351 L -10.4184,13.1244
 L -9.79909,13.3346 L -9.15762,13.4622 L -8.50499,13.505 L 8.50499,13.505 z
M 7.07578,-4.2778 L 6.65883,-4.36073 L 6.25627,-4.49739 L 5.875,-4.68541 L 5.52151,-4.9216 L 5.20189,-5.20189
 L 4.9216,-5.52151 L 4.68541,-5.875 L 4.49739,-6.25627 L 4.36073,-6.65883 L 4.2778,-7.07578 L 4.25,-7.5
 L 4.2778,-7.92421 L 4.36073,-8.34116 L 4.49739,-8.74371 L 4.68541,-9.125 L 4.9216,-9.47847 L 5.20189,-9.7981
 L 5.52151,-10.0784 L 5.875,-10.3146 L 6.25627,-10.5026 L 6.65883,-10.6393 L 7.07578,-10.7222 L 7.5,-10.75
 L 7.92421,-10.7222 L 8.34116,-10.6393 L 8.74371,-10.5026 L 9.125,-10.3146 L 9.47847,-10.0784 L 9.7981,-9.7981
 L 10.0784,-9.47847 L 10.3146,-9.125 L 10.5026,-8.74371 L 10.6393,-8.34116 L 10.7222,-7.92421 L 10.75,-7.5
 L 10.7222,-7.07578 L 10.6393,-6.65883 L 10.5026,-6.25627 L 10.3146,-5.875 L 10.0784,-5.52151 L 9.7981,-5.20189
 L 9.47847,-4.9216 L 9.125,-4.68541 L 8.74371,-4.49739 L 8.34116,-4.36073 L 7.92421,-4.2778 L 7.5,-4.25
 z
M -7.92421,-4.2778 L -8.34116,-4.36073 L -8.74371,-4.49739 L -9.125,-4.68541 L -9.47847,-4.9216 L -9.7981,-5.20189
 L -10.0784,-5.52151 L -10.3146,-5.875 L -10.5026,-6.25627 L -10.6393,-6.65883 L -10.7222,-7.07578 L -10.75,-7.5
 L -10.7222,-7.92421 L -10.6393,-8.34116 L -10.5026,-8.74371 L -10.3146,-9.125 L -10.0784,-9.47847 L -9.7981,-9.7981
 L -9.47847,-10.0784 L -9.125,-10.3146 L -8.74371,-10.5026 L -8.34116,-10.6393 L -7.92421,-10.7222 L -7.5,-10.75
 L -7.07578,-10.7222 L -6.65883,-10.6393 L -6.25627,-10.5026 L -5.875,-10.3146 L -5.52151,-10.0784 L -5.20189,-9.7981
 L -4.9216,-9.47847 L -4.68541,-9.125 L -4.49739,-8.74371 L -4.36073,-8.34116 L -4.2778,-7.92421 L -4.25,-7.5
 L -4.2778,-7.07578 L -4.36073,-6.65883 L -4.49739,-6.25627 L -4.68541,-5.875 L -4.9216,-5.52151 L -5.20189,-5.20189
 L -5.52151,-4.9216 L -5.875,-4.68541 L -6.25627,-4.49739 L -6.65883,-4.36073 L -7.07578,-4.2778 L -7.5,-4.25
 z
M -7.92421,10.7222 L -8.34116,10.6393 L -8.74371,10.5026 L -9.125,10.3146 L -9.47847,10.0784 L -9.7981,9.7981
 L -10.0784,9.47847 L -10.3146,9.125 L -10.5026,8.74371 L -10.6393,8.34116 L -10.7222,7.92421 L -10.75,7.5
 L -10.7222,7.07578 L -10.6393,6.65883 L -10.5026,6.25627 L -10.3146,5.875 L -10.0784,5.52151 L -9.7981,5.20189
 L -9.47847,4.9216 L -9.125,4.68541 L -8.74371,4.49739 L -8.34116,4.36073 L -7.92421,4.2778 L -7.5,4.25
 L -7.07578,4.2778 L -6.65883,4.36073 L -6.25627,4.49739 L -5.875,4.68541 L -5.52151,4.9216 L -5.20189,5.20189
 L -4.9216,5.52151 L -4.68541,5.875 L -4.49739,6.25627 L -4.36073,6.65883 L -4.2778,7.07578 L -4.25,7.5
 L -4.2778,7.92421 L -4.36073,8.34116 L -4.49739,8.74371 L -4.68541,9.125 L -4.9216,9.47847 L -5.20189,9.7981
 L -5.52151,10.0784 L -5.875,10.3146 L -6.25627,10.5026 L -6.65883,10.6393 L -7.07578,10.7222 L -7.5,10.75
 z
M 7.07578,10.7222 L 6.65883,10.6393 L 6.25627,10.5026 L 5.875,10.3146 L 5.52151,10.0784 L 5.20189,9.7981
 L 4.9216,9.47847 L 4.68541,9.125 L 4.49739,8.74371 L 4.36073,8.34116 L 4.2778,7.92421 L 4.25,7.5
 L 4.2778,7.07578 L 4.36073,6.65883 L 4.49739,6.25627 L 4.68541,5.875 L 4.9216,5.52151 L 5.20189,5.20189
 L 5.52151,4.9216 L 5.875,4.68541 L 6.25627,4.49739 L 6.65883,4.36073 L 7.07578,4.2778 L 7.5,4.25
 L 7.92421,4.2778 L 8.34116,4.36073 L 8.74371,4.49739 L 9.125,4.68541 L 9.47847,4.9216 L 9.7981,5.20189
 L 10.0784,5.52151 L 10.3146,5.875 L 10.5026,6.25627 L 10.6393,6.65883 L 10.7222,7.07578 L 10.75,7.5
 L 10.7222,7.92421 L 10.6393,8.34116 L 10.5026,8.74371 L 10.3146,9.125 L 10.0784,9.47847 L 9.7981,9.7981
 L 9.47847,10.0784 L 9.125,10.3146 L 8.74371,10.5026 L 8.34116,10.6393 L 7.92421,10.7222 L 7.5,10.75
 z
" stroke="black" fill="lightgray" stroke-width="0.5"/>
</svg>
