  0
SECTION
  2
BLOCKS
  0
ENDSEC
  0
SECTION
  2
ENTITIES
  0
LINE
  8
0
 10
9.15762
 20
-13.4622
 11
9.79909
 21
-13.3346
  0
LINE
  8
0
 10
9.79909
 20
-13.3346
 11
10.4184
 21
-13.1244
  0
LINE
  8
0
 10
10.4184
 20
-13.1244
 11
11.005
 21
-12.8351
  0
LINE
  8
0
 10
11.005
 20
-12.8351
 11
11.5488
 21
-12.4718
  0
LINE
  8
0
 10
11.5488
 20
-12.4718
 11
12.0405
 21
-12.0405
  0
LINE
  8
0
 10
12.0405
 20
-12.0405
 11
12.4718
 21
-11.5488
  0
LINE
  8
0
 10
12.4718
 20
-11.5488
 11
12.8351
 21
-11.005
  0
LINE
  8
0
 10
12.8351
 20
-11.005
 11
13.1244
 21
-10.4184
  0
LINE
  8
0
 10
13.1244
 20
-10.4184
 11
13.3346
 21
-9.79909
  0
LINE
  8
0
 10
13.3346
 20
-9.79909
 11
13.4622
 21
-9.15762
  0
LINE
  8
0
 10
13.4622
 20
-9.15762
 11
13.505
 21
-8.50499
  0
LINE
  8
0
 10
13.505
 20
-8.50499
 11
13.505
 21
8.50499
  0
LINE
  8
0
 10
13.505
 20
8.50499
 11
13.4622
 21
9.15762
  0
LINE
  8
0
 10
13.4622
 20
9.15762
 11
13.3346
 21
9.79909
  0
LINE
  8
0
 10
13.3346
 20
9.79909
 11
13.1244
 21
10.4184
  0
LINE
  8
0
 10
13.1244
 20
10.4184
 11
12.8351
 21
11.005
  0
LINE
  8
0
 10
12.8351
 20
11.005
 11
12.4718
 21
11.5488
  0
LINE
  8
0
 10
12.4718
 20
11.5488
 11
12.0405
 21
12.0405
  0
LINE
  8
0
 10
12.0405
 20
12.0405
 11
11.5488
 21
12.4718
  0
LINE
  8
0
 10
11.5488
 20
12.4718
 11
11.005
 21
12.8351
  0
LINE
  8
0
 10
11.005
 20
12.8351
 11
10.4184
 21
13.1244
  0
LINE
  8
0
 10
10.4184
 20
13.1244
 11
9.79909
 21
13.3346
  0
LINE
  8
0
 10
9.79909
 20
13.3346
 11
9.15762
 21
13.4622
  0
LINE
  8
0
 10
9.15762
 20
13.4622
 11
8.50499
 21
13.505
  0
LINE
  8
0
 10
8.50499
 20
13.505
 11
-8.50499
 21
13.505
  0
LINE
  8
0
 10
-8.50499
 20
13.505
 11
-9.15762
 21
13.4622
  0
LINE
  8
0
 10
-9.15762
 20
13.4622
 11
-9.79909
 21
13.3346
  0
LINE
  8
0
 10
-9.79909
 20
13.3346
 11
-10.4184
 21
13.1244
  0
LINE
  8
0
 10
-10.4184
 20
13.1244
 11
-11.005
 21
12.8351
  0
LINE
  8
0
 10
-11.005
 20
12.8351
 11
-11.5488
 21
12.4718
  0
LINE
  8
0
 10
-11.5488
 20
12.4718
 11
-12.0405
 21
12.0405
  0
LINE
  8
0
 10
-12.0405
 20
12.0405
 11
-12.4718
 21
11.5488
  0
LINE
  8
0
 10
-12.4718
 20
11.5488
 11
-12.8351
 21
11.005
  0
LINE
  8
0
 10
-12.8351
 20
11.005
 11
-13.1244
 21
10.4184
  0
LINE
  8
0
 10
-13.1244
 20
10.4184
 11
-13.3346
 21
9.79909
  0
LINE
  8
0
 10
-13.3346
 20
9.79909
 11
-13.4622
 21
9.15762
  0
LINE
  8
0
 10
-13.4622
 20
9.15762
 11
-13.505
 21
8.50499
  0
LINE
  8
0
 10
-13.505
 20
8.50499
 11
-13.505
 21
-8.50499
  0
LINE
  8
0
 10
-13.505
 20
-8.50499
 11
-13.4622
 21
-9.15762
  0
LINE
  8
0
 10
-13.4622
 20
-9.15762
 11
-13.3346
 21
-9.79909
  0
LINE
  8
0
 10
-13.3346
 20
-9.79909
 11
-13.1244
 21
-10.4184
  0
LINE
  8
0
 10
-13.1244
 20
-10.4184
 11
-12.8351
 21
-11.005
  0
LINE
  8
0
 10
-12.8351
 20
-11.005
 11
-12.4718
 21
-11.5488
  0
LINE
  8
0
 10
-12.4718
 20
-11.5488
 11
-12.0405
 21
-12.0405
  0
LINE
  8
0
 10
-12.0405
 20
-12.0405
 11
-11.5488
 21
-12.4718
  0
LINE
  8
0
 10
-11.5488
 20
-12.4718
 11
-11.005
 21
-12.8351
  0
LINE
  8
0
 10
-11.005
 20
-12.8351
 11
-10.4184
 21
-13.1244
  0
LINE
  8
0
 10
-10.4184
 20
-13.1244
 11
-9.79909
 21
-13.3346
  0
LINE
  8
0
 10
-9.79909
 20
-13.3346
 11
-9.15762
 21
-13.4622
  0
LINE
  8
0
 10
-9.15762
 20
-13.4622
 11
-8.50499
 21
-13.505
  0
LINE
  8
0
 10
-8.50499
 20
-13.505
 11
8.50499
 21
-13.505
  0
LINE
  8
0
 10
8.50499
 20
-13.505
 11
9.15762
 21
-13.4622
  0
LINE
  8
0
 10
7.07578
 20
4.2778
 11
6.65883
 21
4.36073
  0
LINE
  8
0
 10
6.65883
 20
4.36073
 11
6.25627
 21
4.49739
  0
LINE
  8
0
 10
6.25627
 20
4.49739
 11
5.875
 21
4.68541
  0
LINE
  8
0
 10
5.875
 20
4.68541
 11
5.52151
 21
4.9216
  0
LINE
  8
0
 10
5.52151
 20
4.9216
 11
5.20189
 21
5.20189
  0
LINE
  8
0
 10
5.20189
 20
5.20189
 11
4.9216
 21
5.52151
  0
LINE
  8
0
 10
4.9216
 20
5.52151
 11
4.68541
 21
5.875
  0
LINE
  8
0
 10
4.68541
 20
5.875
 11
4.49739
 21
6.25627
  0
LINE
  8
0
 10
4.49739
 20
6.25627
 11
4.36073
 21
6.65883
  0
LINE
  8
0
 10
4.36073
 20
6.65883
 11
4.2778
 21
7.07578
  0
LINE
  8
0
 10
4.2778
 20
7.07578
 11
4.25
 21
7.5
  0
LINE
  8
0
 10
4.25
 20
7.5
 11
4.2778
 21
7.92421
  0
LINE
  8
0
 10
4.2778
 20
7.92421
 11
4.36073
 21
8.34116
  0
LINE
  8
0
 10
4.36073
 20
8.34116
 11
4.49739
 21
8.74371
  0
LINE
  8
0
 10
4.49739
 20
8.74371
 11
4.68541
 21
9.125
  0
LINE
  8
0
 10
4.68541
 20
9.125
 11
4.9216
 21
9.47847
  0
LINE
  8
0
 10
4.9216
 20
9.47847
 11
5.20189
 21
9.7981
  0
LINE
  8
0
 10
5.20189
 20
9.7981
 11
5.52151
 21
10.0784
  0
LINE
  8
0
 10
5.52151
 20
10.0784
 11
5.875
 21
10.3146
  0
LINE
  8
0
 10
5.875
 20
10.3146
 11
6.25627
 21
10.5026
  0
LINE
  8
0
 10
6.25627
 20
10.5026
 11
6.65883
 21
10.6393
  0
LINE
  8
0
 10
6.65883
 20
10.6393
 11
7.07578
 21
10.7222
  0
LINE
  8
0
 10
7.07578
 20
10.7222
 11
7.5
 21
10.75
  0
LINE
  8
0
 10
7.5
 20
10.75
 11
7.92421
 21
10.7222
  0
LINE
  8
0
 10
7.92421
 20
10.7222
 11
8.34116
 21
10.6393
  0
LINE
  8
0
 10
8.34116
 20
10.6393
 11
8.74371
 21
10.5026
  0
LINE
  8
0
 10
8.74371
 20
10.5026
 11
9.125
 21
10.3146
  0
LINE
  8
0
 10
9.125
 20
10.3146
 11
9.47847
 21
10.0784
  0
LINE
  8
0
 10
9.47847
 20
10.0784
 11
9.7981
 21
9.7981
  0
LINE
  8
0
 10
9.7981
 20
9.7981
 11
10.0784
 21
9.47847
  0
LINE
  8
0
 10
10.0784
 20
9.47847
 11
10.3146
 21
9.125
  0
LINE
  8
0
 10
10.3146
 20
9.125
 11
10.5026
 21
8.74371
  0
LINE
  8
0
 10
10.5026
 20
8.74371
 11
10.6393
 21
8.34116
  0
LINE
  8
0
 10
10.6393
 20
8.34116
 11
10.7222
 21
7.92421
  0
LINE
  8
0
 10
10.7222
 20
7.92421
 11
10.75
 21
7.5
  0
LINE
  8
0
 10
10.75
 20
7.5
 11
10.7222
 21
7.07578
  0
LINE
  8
0
 10
10.7222
 20
7.07578
 11
10.6393
 21
6.65883
  0
LINE
  8
0
 10
10.6393
 20
6.65883
 11
10.5026
 21
6.25627
  0
LINE
  8
0
 10
10.5026
 20
6.25627
 11
10.3146
 21
5.875
  0
LINE
  8
0
 10
10.3146
 20
5.875
 11
10.0784
 21
5.52151
  0
LINE
  8
0
 10
10.0784
 20
5.52151
 11
9.7981
 21
5.20189
  0
LINE
  8
0
 10
9.7981
 20
5.20189
 11
9.47847
 21
4.9216
  0
LINE
  8
0
 10
9.47847
 20
4.9216
 11
9.125
 21
4.68541
  0
LINE
  8
0
 10
9.125
 20
4.68541
 11
8.74371
 21
4.49739
  0
LINE
  8
0
 10
8.74371
 20
4.49739
 11
8.34116
 21
4.36073
  0
LINE
  8
0
 10
8.34116
 20
4.36073
 11
7.92421
 21
4.2778
  0
LINE
  8
0
 10
7.92421
 20
4.2778
 11
7.5
 21
4.25
  0
LINE
  8
0
 10
7.5
 20
4.25
 11
7.07578
 21
4.2778
  0
LINE
  8
0
 10
-7.92421
 20
4.2778
 11
-8.34116
 21
4.36073
  0
LINE
  8
0
 10
-8.34116
 20
4.36073
 11
-8.74371
 21
4.49739
  0
LINE
  8
0
 10
-8.74371
 20
4.49739
 11
-9.125
 21
4.68541
  0
LINE
  8
0
 10
-9.125
 20
4.68541
 11
-9.47847
 21
4.9216
  0
LINE
  8
0
 10
-9.47847
 20
4.9216
 11
-9.7981
 21
5.20189
  0
LINE
  8
0
 10
-9.7981
 20
5.20189
 11
-10.0784
 21
5.52151
  0
LINE
  8
0
 10
-10.0784
 20
5.52151
 11
-10.3146
 21
5.875
  0
LINE
  8
0
 10
-10.3146
 20
5.875
 11
-10.5026
 21
6.25627
  0
LINE
  8
0
 10
-10.5026
 20
6.25627
 11
-10.6393
 21
6.65883
  0
LINE
  8
0
 10
-10.6393
 20
6.65883
 11
-10.7222
 21
7.07578
  0
LINE
  8
0
 10
-10.7222
 20
7.07578
 11
-10.75
 21
7.5
  0
LINE
  8
0
 10
-10.75
 20
7.5
 11
-10.7222
 21
7.92421
  0
LINE
  8
0
 10
-10.7222
 20
7.92421
 11
-10.6393
 21
8.34116
  0
LINE
  8
0
 10
-10.6393
 20
8.34116
 11
-10.5026
 21
8.74371
  0
LINE
  8
0
 10
-10.5026
 20
8.74371
 11
-10.3146
 21
9.125
  0
LINE
  8
0
 10
-10.3146
 20
9.125
 11
-10.0784
 21
9.47847
  0
LINE
  8
0
 10
-10.0784
 20
9.47847
 11
-9.7981
 21
9.7981
  0
LINE
  8
0
 10
-9.7981
 20
9.7981
 11
-9.47847
 21
10.0784
  0
LINE
  8
0
 10
-9.47847
 20
10.0784
 11
-9.125
 21
10.3146
  0
LINE
  8
0
 10
-9.125
 20
10.3146
 11
-8.74371
 21
10.5026
  0
LINE
  8
0
 10
-8.74371
 20
10.5026
 11
-8.34116
 21
10.6393
  0
LINE
  8
0
 10
-8.34116
 20
10.6393
 11
-7.92421
 21
10.7222
  0
LINE
  8
0
 10
-7.92421
 20
10.7222
 11
-7.5
 21
10.75
  0
LINE
  8
0
 10
-7.5
 20
10.75
 11
-7.07578
 21
10.7222
  0
LINE
  8
0
 10
-7.07578
 20
10.7222
 11
-6.65883
 21
10.6393
  0
LINE
  8
0
 10
-6.65883
 20
10.6393
 11
-6.25627
 21
10.5026
  0
LINE
  8
0
 10
-6.25627
 20
10.5026
 11
-5.875
 21
10.3146
  0
LINE
  8
0
 10
-5.875
 20
10.3146
 11
-5.52151
 21
10.0784
  0
LINE
  8
0
 10
-5.52151
 20
10.0784
 11
-5.20189
 21
9.7981
  0
LINE
  8
0
 10
-5.20189
 20
9.7981
 11
-4.9216
 21
9.47847
  0
LINE
  8
0
 10
-4.9216
 20
9.47847
 11
-4.68541
 21
9.125
  0
LINE
  8
0
 10
-4.68541
 20
9.125
 11
-4.49739
 21
8.74371
  0
LINE
  8
0
 10
-4.49739
 20
8.74371
 11
-4.36073
 21
8.34116
  0
LINE
  8
0
 10
-4.36073
 20
8.34116
 11
-4.2778
 21
7.92421
  0
LINE
  8
0
 10
-4.2778
 20
7.92421
 11
-4.25
 21
7.5
  0
LINE
  8
0
 10
-4.25
 20
7.5
 11
-4.2778
 21
7.07578
  0
LINE
  8
0
 10
-4.2778
 20
7.07578
 11
-4.36073
 21
6.65883
  0
LINE
  8
0
 10
-4.36073
 20
6.65883
 11
-4.49739
 21
6.25627
  0
LINE
  8
0
 10
-4.49739
 20
6.25627
 11
-4.68541
 21
5.875
  0
LINE
  8
0
 10
-4.68541
 20
5.875
 11
-4.9216
 21
5.52151
  0
LINE
  8
0
 10
-4.9216
 20
5.52151
 11
-5.20189
 21
5.20189
  0
LINE
  8
0
 10
-5.20189
 20
5.20189
 11
-5.52151
 21
4.9216
  0
LINE
  8
0
 10
-5.52151
 20
4.9216
 11
-5.875
 21
4.68541
  0
LINE
  8
0
 10
-5.875
 20
4.68541
 11
-6.25627
 21
4.49739
  0
LINE
  8
0
 10
-6.25627
 20
4.49739
 11
-6.65883
 21
4.36073
  0
LINE
  8
0
 10
-6.65883
 20
4.36073
 11
-7.07578
 21
4.2778
  0
LINE
  8
0
 10
-7.07578
 20
4.2778
 11
-7.5
 21
4.25
  0
LINE
  8
0
 10
-7.5
 20
4.25
 11
-7.92421
 21
4.2778
  0
LINE
  8
0
 10
-7.92421
 20
-10.7222
 11
-8.34116
 21
-10.6393
  0
LINE
  8
0
 10
-8.34116
 20
-10.6393
 11
-8.74371
 21
-10.5026
  0
LINE
  8
0
 10
-8.74371
 20
-10.5026
 11
-9.125
 21
-10.3146
  0
LINE
  8
0
 10
-9.125
 20
-10.3146
 11
-9.47847
 21
-10.0784
  0
LINE
  8
0
 10
-9.47847
 20
-10.0784
 11
-9.7981
 21
-9.7981
  0
LINE
  8
0
 10
-9.7981
 20
-9.7981
 11
-10.0784
 21
-9.47847
  0
LINE
  8
0
 10
-10.0784
 20
-9.47847
 11
-10.3146
 21
-9.125
  0
LINE
  8
0
 10
-10.3146
 20
-9.125
 11
-10.5026
 21
-8.74371
  0
LINE
  8
0
 10
-10.5026
 20
-8.74371
 11
-10.6393
 21
-8.34116
  0
LINE
  8
0
 10
-10.6393
 20
-8.34116
 11
-10.7222
 21
-7.92421
  0
LINE
  8
0
 10
-10.7222
 20
-7.92421
 11
-10.75
 21
-7.5
  0
LINE
  8
0
 10
-10.75
 20
-7.5
 11
-10.7222
 21
-7.07578
  0
LINE
  8
0
 10
-10.7222
 20
-7.07578
 11
-10.6393
 21
-6.65883
  0
LINE
  8
0
 10
-10.6393
 20
-6.65883
 11
-10.5026
 21
-6.25627
  0
LINE
  8
0
 10
-10.5026
 20
-6.25627
 11
-10.3146
 21
-5.875
  0
LINE
  8
0
 10
-10.3146
 20
-5.875
 11
-10.0784
 21
-5.52151
  0
LINE
  8
0
 10
-10.0784
 20
-5.52151
 11
-9.7981
 21
-5.20189
  0
LINE
  8
0
 10
-9.7981
 20
-5.20189
 11
-9.47847
 21
-4.9216
  0
LINE
  8
0
 10
-9.47847
 20
-4.9216
 11
-9.125
 21
-4.68541
  0
LINE
  8
0
 10
-9.125
 20
-4.68541
 11
-8.74371
 21
-4.49739
  0
LINE
  8
0
 10
-8.74371
 20
-4.49739
 11
-8.34116
 21
-4.36073
  0
LINE
  8
0
 10
-8.34116
 20
-4.36073
 11
-7.92421
 21
-4.2778
  0
LINE
  8
0
 10
-7.92421
 20
-4.2778
 11
-7.5
 21
-4.25
  0
LINE
  8
0
 10
-7.5
 20
-4.25
 11
-7.07578
 21
-4.2778
  0
LINE
  8
0
 10
-7.07578
 20
-4.2778
 11
-6.65883
 21
-4.36073
  0
LINE
  8
0
 10
-6.65883
 20
-4.36073
 11
-6.25627
 21
-4.49739
  0
LINE
  8
0
 10
-6.25627
 20
-4.49739
 11
-5.875
 21
-4.68541
  0
LINE
  8
0
 10
-5.875
 20
-4.68541
 11
-5.52151
 21
-4.9216
  0
LINE
  8
0
 10
-5.52151
 20
-4.9216
 11
-5.20189
 21
-5.20189
  0
LINE
  8
0
 10
-5.20189
 20
-5.20189
 11
-4.9216
 21
-5.52151
  0
LINE
  8
0
 10
-4.9216
 20
-5.52151
 11
-4.68541
 21
-5.875
  0
LINE
  8
0
 10
-4.68541
 20
-5.875
 11
-4.49739
 21
-6.25627
  0
LINE
  8
0
 10
-4.49739
 20
-6.25627
 11
-4.36073
 21
-6.65883
  0
LINE
  8
0
 10
-4.36073
 20
-6.65883
 11
-4.2778
 21
-7.07578
  0
LINE
  8
0
 10
-4.2778
 20
-7.07578
 11
-4.25
 21
-7.5
  0
LINE
  8
0
 10
-4.25
 20
-7.5
 11
-4.2778
 21
-7.92421
  0
LINE
  8
0
 10
-4.2778
 20
-7.92421
 11
-4.36073
 21
-8.34116
  0
LINE
  8
0
 10
-4.36073
 20
-8.34116
 11
-4.49739
 21
-8.74371
  0
LINE
  8
0
 10
-4.49739
 20
-8.74371
 11
-4.68541
 21
-9.125
  0
LINE
  8
0
 10
-4.68541
 20
-9.125
 11
-4.9216
 21
-9.47847
  0
LINE
  8
0
 10
-4.9216
 20
-9.47847
 11
-5.20189
 21
-9.7981
  0
LINE
  8
0
 10
-5.20189
 20
-9.7981
 11
-5.52151
 21
-10.0784
  0
LINE
  8
0
 10
-5.52151
 20
-10.0784
 11
-5.875
 21
-10.3146
  0
LINE
  8
0
 10
-5.875
 20
-10.3146
 11
-6.25627
 21
-10.5026
  0
LINE
  8
0
 10
-6.25627
 20
-10.5026
 11
-6.65883
 21
-10.6393
  0
LINE
  8
0
 10
-6.65883
 20
-10.6393
 11
-7.07578
 21
-10.7222
  0
LINE
  8
0
 10
-7.07578
 20
-10.7222
 11
-7.5
 21
-10.75
  0
LINE
  8
0
 10
-7.5
 20
-10.75
 11
-7.92421
 21
-10.7222
  0
LINE
  8
0
 10
7.07578
 20
-10.7222
 11
6.65883
 21
-10.6393
  0
LINE
  8
0
 10
6.65883
 20
-10.6393
 11
6.25627
 21
-10.5026
  0
LINE
  8
0
 10
6.25627
 20
-10.5026
 11
5.875
 21
-10.3146
  0
LINE
  8
0
 10
5.875
 20
-10.3146
 11
5.52151
 21
-10.0784
  0
LINE
  8
0
 10
5.52151
 20
-10.0784
 11
5.20189
 21
-9.7981
  0
LINE
  8
0
 10
5.20189
 20
-9.7981
 11
4.9216
 21
-9.47847
  0
LINE
  8
0
 10
4.9216
 20
-9.47847
 11
4.68541
 21
-9.125
  0
LINE
  8
0
 10
4.68541
 20
-9.125
 11
4.49739
 21
-8.74371
  0
LINE
  8
0
 10
4.49739
 20
-8.74371
 11
4.36073
 21
-8.34116
  0
LINE
  8
0
 10
4.36073
 20
-8.34116
 11
4.2778
 21
-7.92421
  0
LINE
  8
0
 10
4.2778
 20
-7.92421
 11
4.25
 21
-7.5
  0
LINE
  8
0
 10
4.25
 20
-7.5
 11
4.2778
 21
-7.07578
  0
LINE
  8
0
 10
4.2778
 20
-7.07578
 11
4.36073
 21
-6.65883
  0
LINE
  8
0
 10
4.36073
 20
-6.65883
 11
4.49739
 21
-6.25627
  0
LINE
  8
0
 10
4.49739
 20
-6.25627
 11
4.68541
 21
-5.875
  0
LINE
  8
0
 10
4.68541
 20
-5.875
 11
4.9216
 21
-5.52151
  0
LINE
  8
0
 10
4.9216
 20
-5.52151
 11
5.20189
 21
-5.20189
  0
LINE
  8
0
 10
5.20189
 20
-5.20189
 11
5.52151
 21
-4.9216
  0
LINE
  8
0
 10
5.52151
 20
-4.9216
 11
5.875
 21
-4.68541
  0
LINE
  8
0
 10
5.875
 20
-4.68541
 11
6.25627
 21
-4.49739
  0
LINE
  8
0
 10
6.25627
 20
-4.49739
 11
6.65883
 21
-4.36073
  0
LINE
  8
0
 10
6.65883
 20
-4.36073
 11
7.07578
 21
-4.2778
  0
LINE
  8
0
 10
7.07578
 20
-4.2778
 11
7.5
 21
-4.25
  0
LINE
  8
0
 10
7.5
 20
-4.25
 11
7.92421
 21
-4.2778
  0
LINE
  8
0
 10
7.92421
 20
-4.2778
 11
8.34116
 21
-4.36073
  0
LINE
  8
0
 10
8.34116
 20
-4.36073
 11
8.74371
 21
-4.49739
  0
LINE
  8
0
 10
8.74371
 20
-4.49739
 11
9.125
 21
-4.68541
  0
LINE
  8
0
 10
9.125
 20
-4.68541
 11
9.47847
 21
-4.9216
  0
LINE
  8
0
 10
9.47847
 20
-4.9216
 11
9.7981
 21
-5.20189
  0
LINE
  8
0
 10
9.7981
 20
-5.20189
 11
10.0784
 21
-5.52151
  0
LINE
  8
0
 10
10.0784
 20
-5.52151
 11
10.3146
 21
-5.875
  0
LINE
  8
0
 10
10.3146
 20
-5.875
 11
10.5026
 21
-6.25627
  0
LINE
  8
0
 10
10.5026
 20
-6.25627
 11
10.6393
 21
-6.65883
  0
LINE
  8
0
 10
10.6393
 20
-6.65883
 11
10.7222
 21
-7.07578
  0
LINE
  8
0
 10
10.7222
 20
-7.07578
 11
10.75
 21
-7.5
  0
LINE
  8
0
 10
10.75
 20
-7.5
 11
10.7222
 21
-7.92421
  0
LINE
  8
0
 10
10.7222
 20
-7.92421
 11
10.6393
 21
-8.34116
  0
LINE
  8
0
 10
10.6393
 20
-8.34116
 11
10.5026
 21
-8.74371
  0
LINE
  8
0
 10
10.5026
 20
-8.74371
 11
10.3146
 21
-9.125
  0
LINE
  8
0
 10
10.3146
 20
-9.125
 11
10.0784
 21
-9.47847
  0
LINE
  8
0
 10
10.0784
 20
-9.47847
 11
9.7981
 21
-9.7981
  0
LINE
  8
0
 10
9.7981
 20
-9.7981
 11
9.47847
 21
-10.0784
  0
LINE
  8
0
 10
9.47847
 20
-10.0784
 11
9.125
 21
-10.3146
  0
LINE
  8
0
 10
9.125
 20
-10.3146
 11
8.74371
 21
-10.5026
  0
LINE
  8
0
 10
8.74371
 20
-10.5026
 11
8.34116
 21
-10.6393
  0
LINE
  8
0
 10
8.34116
 20
-10.6393
 11
7.92421
 21
-10.7222
  0
LINE
  8
0
 10
7.92421
 20
-10.7222
 11
7.5
 21
-10.75
  0
LINE
  8
0
 10
7.5
 20
-10.75
 11
7.07578
 21
-10.7222
  0
ENDSEC
  0
SECTION
  2
OBJECTS
  0
DICTIONARY
  0
ENDSEC
  0
EOF
