  0
SECTION
  2
BLOCKS
  0
ENDSEC
  0
SECTION
  2
ENTITIES
  0
LINE
  8
0
 10
0.960785
 20
-8.43289
 11
1.31766
 21
-7.75591
  0
LINE
  8
0
 10
1.31766
 20
-7.75591
 11
1.50809
 21
-7.19196
  0
LINE
  8
0
 10
1.50809
 20
-7.19196
 11
1.57867
 21
-6.77271
  0
LINE
  8
0
 10
1.57867
 20
-6.77271
 11
1.58125
 21
-6.51761
  0
LINE
  8
0
 10
1.58125
 20
-6.51761
 11
1.57001
 21
-6.43329
  0
LINE
  8
0
 10
1.57001
 20
-6.43329
 11
1.27646
 21
-5.23042
  0
LINE
  8
0
 10
1.27646
 20
-5.23042
 11
2.79587
 21
-4.60104
  0
LINE
  8
0
 10
2.79587
 20
-4.60104
 11
3.43886
 21
-5.65918
  0
LINE
  8
0
 10
3.43886
 20
-5.65918
 11
3.49052
 21
-5.72675
  0
LINE
  8
0
 10
3.49052
 20
-5.72675
 11
3.67273
 21
-5.9053
  0
LINE
  8
0
 10
3.67273
 20
-5.9053
 11
4.01909
 21
-6.15186
  0
LINE
  8
0
 10
4.01909
 20
-6.15186
 11
4.55252
 21
-6.41597
  0
LINE
  8
0
 10
4.55252
 20
-6.41597
 11
5.28357
 21
-6.64232
  0
LINE
  8
0
 10
5.28357
 20
-6.64232
 11
6.2097
 21
-6.77328
  0
LINE
  8
0
 10
6.2097
 20
-6.77328
 11
6.77328
 21
-6.2097
  0
LINE
  8
0
 10
6.77328
 20
-6.2097
 11
6.64232
 21
-5.28357
  0
LINE
  8
0
 10
6.64232
 20
-5.28357
 11
6.41597
 21
-4.55252
  0
LINE
  8
0
 10
6.41597
 20
-4.55252
 11
6.15186
 21
-4.01909
  0
LINE
  8
0
 10
6.15186
 20
-4.01909
 11
5.9053
 21
-3.67273
  0
LINE
  8
0
 10
5.9053
 20
-3.67273
 11
5.72675
 21
-3.49052
  0
LINE
  8
0
 10
5.72675
 20
-3.49052
 11
5.65918
 21
-3.43886
  0
LINE
  8
0
 10
5.65918
 20
-3.43886
 11
4.60104
 21
-2.79587
  0
LINE
  8
0
 10
4.60104
 20
-2.79587
 11
5.23042
 21
-1.27646
  0
LINE
  8
0
 10
5.23042
 20
-1.27646
 11
6.43329
 21
-1.57001
  0
LINE
  8
0
 10
6.43329
 20
-1.57001
 11
6.51761
 21
-1.58125
  0
LINE
  8
0
 10
6.51761
 20
-1.58125
 11
6.77271
 21
-1.57867
  0
LINE
  8
0
 10
6.77271
 20
-1.57867
 11
7.19196
 21
-1.50809
  0
LINE
  8
0
 10
7.19196
 20
-1.50809
 11
7.75591
 21
-1.31766
  0
LINE
  8
0
 10
7.75591
 20
-1.31766
 11
8.43289
 21
-0.960785
  0
LINE
  8
0
 10
8.43289
 20
-0.960785
 11
9.18036
 21
-0.398514
  0
LINE
  8
0
 10
9.18036
 20
-0.398514
 11
9.18036
 21
0.398514
  0
LINE
  8
0
 10
9.18036
 20
0.398514
 11
8.43289
 21
0.960785
  0
LINE
  8
0
 10
8.43289
 20
0.960785
 11
7.75591
 21
1.31766
  0
LINE
  8
0
 10
7.75591
 20
1.31766
 11
7.19196
 21
1.50809
  0
LINE
  8
0
 10
7.19196
 20
1.50809
 11
6.77271
 21
1.57867
  0
LINE
  8
0
 10
6.77271
 20
1.57867
 11
6.51761
 21
1.58125
  0
LINE
  8
0
 10
6.51761
 20
1.58125
 11
6.43329
 21
1.57001
  0
LINE
  8
0
 10
6.43329
 20
1.57001
 11
5.23042
 21
1.27646
  0
LINE
  8
0
 10
5.23042
 20
1.27646
 11
4.60104
 21
2.79587
  0
LINE
  8
0
 10
4.60104
 20
2.79587
 11
5.65918
 21
3.43886
  0
LINE
  8
0
 10
5.65918
 20
3.43886
 11
5.72675
 21
3.49052
  0
LINE
  8
0
 10
5.72675
 20
3.49052
 11
5.9053
 21
3.67273
  0
LINE
  8
0
 10
5.9053
 20
3.67273
 11
6.15186
 21
4.01909
  0
LINE
  8
0
 10
6.15186
 20
4.01909
 11
6.41597
 21
4.55252
  0
LINE
  8
0
 10
6.41597
 20
4.55252
 11
6.64232
 21
5.28357
  0
LINE
  8
0
 10
6.64232
 20
5.28357
 11
6.77328
 21
6.2097
  0
LINE
  8
0
 10
6.77328
 20
6.2097
 11
6.2097
 21
6.77328
  0
LINE
  8
0
 10
6.2097
 20
6.77328
 11
5.28357
 21
6.64232
  0
LINE
  8
0
 10
5.28357
 20
6.64232
 11
4.55252
 21
6.41597
  0
LINE
  8
0
 10
4.55252
 20
6.41597
 11
4.01909
 21
6.15186
  0
LINE
  8
0
 10
4.01909
 20
6.15186
 11
3.67273
 21
5.9053
  0
LINE
  8
0
 10
3.67273
 20
5.9053
 11
3.49052
 21
5.72675
  0
LINE
  8
0
 10
3.49052
 20
5.72675
 11
3.43886
 21
5.65918
  0
LINE
  8
0
 10
3.43886
 20
5.65918
 11
2.79587
 21
4.60104
  0
LINE
  8
0
 10
2.79587
 20
4.60104
 11
1.27646
 21
5.23042
  0
LINE
  8
0
 10
1.27646
 20
5.23042
 11
1.57001
 21
6.43329
  0
LINE
  8
0
 10
1.57001
 20
6.43329
 11
1.58125
 21
6.51761
  0
LINE
  8
0
 10
1.58125
 20
6.51761
 11
1.57867
 21
6.77271
  0
LINE
  8
0
 10
1.57867
 20
6.77271
 11
1.50809
 21
7.19196
  0
LINE
  8
0
 10
1.50809
 20
7.19196
 11
1.31766
 21
7.75591
  0
LINE
  8
0
 10
1.31766
 20
7.75591
 11
0.960785
 21
8.43289
  0
LINE
  8
0
 10
0.960785
 20
8.43289
 11
0.398514
 21
9.18036
  0
LINE
  8
0
 10
0.398514
 20
9.18036
 11
-0.398514
 21
9.18036
  0
LINE
  8
0
 10
-0.398514
 20
9.18036
 11
-0.960785
 21
8.43289
  0
LINE
  8
0
 10
-0.960785
 20
8.43289
 11
-1.31766
 21
7.75591
  0
LINE
  8
0
 10
-1.31766
 20
7.75591
 11
-1.50809
 21
7.19196
  0
LINE
  8
0
 10
-1.50809
 20
7.19196
 11
-1.57867
 21
6.77271
  0
LINE
  8
0
 10
-1.57867
 20
6.77271
 11
-1.58125
 21
6.51761
  0
LINE
  8
0
 10
-1.58125
 20
6.51761
 11
-1.57001
 21
6.43329
  0
LINE
  8
0
 10
-1.57001
 20
6.43329
 11
-1.27646
 21
5.23042
  0
LINE
  8
0
 10
-1.27646
 20
5.23042
 11
-2.79587
 21
4.60104
  0
LINE
  8
0
 10
-2.79587
 20
4.60104
 11
-3.43886
 21
5.65918
  0
LINE
  8
0
 10
-3.43886
 20
5.65918
 11
-3.49052
 21
5.72675
  0
LINE
  8
0
 10
-3.49052
 20
5.72675
 11
-3.67273
 21
5.9053
  0
LINE
  8
0
 10
-3.67273
 20
5.9053
 11
-4.01909
 21
6.15186
  0
LINE
  8
0
 10
-4.01909
 20
6.15186
 11
-4.55252
 21
6.41597
  0
LINE
  8
0
 10
-4.55252
 20
6.41597
 11
-5.28357
 21
6.64232
  0
LINE
  8
0
 10
-5.28357
 20
6.64232
 11
-6.2097
 21
6.77328
  0
LINE
  8
0
 10
-6.2097
 20
6.77328
 11
-6.77328
 21
6.2097
  0
LINE
  8
0
 10
-6.77328
 20
6.2097
 11
-6.64232
 21
5.28357
  0
LINE
  8
0
 10
-6.64232
 20
5.28357
 11
-6.41597
 21
4.55252
  0
LINE
  8
0
 10
-6.41597
 20
4.55252
 11
-6.15186
 21
4.01909
  0
LINE
  8
0
 10
-6.15186
 20
4.01909
 11
-5.9053
 21
3.67273
  0
LINE
  8
0
 10
-5.9053
 20
3.67273
 11
-5.72675
 21
3.49052
  0
LINE
  8
0
 10
-5.72675
 20
3.49052
 11
-5.65918
 21
3.43886
  0
LINE
  8
0
 10
-5.65918
 20
3.43886
 11
-4.60104
 21
2.79587
  0
LINE
  8
0
 10
-4.60104
 20
2.79587
 11
-5.23042
 21
1.27646
  0
LINE
  8
0
 10
-5.23042
 20
1.27646
 11
-6.43329
 21
1.57001
  0
LINE
  8
0
 10
-6.43329
 20
1.57001
 11
-6.51761
 21
1.58125
  0
LINE
  8
0
 10
-6.51761
 20
1.58125
 11
-6.77271
 21
1.57867
  0
LINE
  8
0
 10
-6.77271
 20
1.57867
 11
-7.19196
 21
1.50809
  0
LINE
  8
0
 10
-7.19196
 20
1.50809
 11
-7.75591
 21
1.31766
  0
LINE
  8
0
 10
-7.75591
 20
1.31766
 11
-8.43289
 21
0.960785
  0
LINE
  8
0
 10
-8.43289
 20
0.960785
 11
-9.18036
 21
0.398514
  0
LINE
  8
0
 10
-9.18036
 20
0.398514
 11
-9.18036
 21
-0.398514
  0
LINE
  8
0
 10
-9.18036
 20
-0.398514
 11
-8.43289
 21
-0.960785
  0
LINE
  8
0
 10
-8.43289
 20
-0.960785
 11
-7.75591
 21
-1.31766
  0
LINE
  8
0
 10
-7.75591
 20
-1.31766
 11
-7.19196
 21
-1.50809
  0
LINE
  8
0
 10
-7.19196
 20
-1.50809
 11
-6.77271
 21
-1.57867
  0
LINE
  8
0
 10
-6.77271
 20
-1.57867
 11
-6.51761
 21
-1.58125
  0
LINE
  8
0
 10
-6.51761
 20
-1.58125
 11
-6.43329
 21
-1.57001
  0
LINE
  8
0
 10
-6.43329
 20
-1.57001
 11
-5.23042
 21
-1.27646
  0
LINE
  8
0
 10
-5.23042
 20
-1.27646
 11
-4.60104
 21
-2.79587
  0
LINE
  8
0
 10
-4.60104
 20
-2.79587
 11
-5.65918
 21
-3.43886
  0
LINE
  8
0
 10
-5.65918
 20
-3.43886
 11
-5.72675
 21
-3.49052
  0
LINE
  8
0
 10
-5.72675
 20
-3.49052
 11
-5.9053
 21
-3.67273
  0
LINE
  8
0
 10
-5.9053
 20
-3.67273
 11
-6.15186
 21
-4.01909
  0
LINE
  8
0
 10
-6.15186
 20
-4.01909
 11
-6.41597
 21
-4.55252
  0
LINE
  8
0
 10
-6.41597
 20
-4.55252
 11
-6.64232
 21
-5.28357
  0
LINE
  8
0
 10
-6.64232
 20
-5.28357
 11
-6.77328
 21
-6.2097
  0
LINE
  8
0
 10
-6.77328
 20
-6.2097
 11
-6.2097
 21
-6.77328
  0
LINE
  8
0
 10
-6.2097
 20
-6.77328
 11
-5.28357
 21
-6.64232
  0
LINE
  8
0
 10
-5.28357
 20
-6.64232
 11
-4.55252
 21
-6.41597
  0
LINE
  8
0
 10
-4.55252
 20
-6.41597
 11
-4.01909
 21
-6.15186
  0
LINE
  8
0
 10
-4.01909
 20
-6.15186
 11
-3.67273
 21
-5.9053
  0
LINE
  8
0
 10
-3.67273
 20
-5.9053
 11
-3.49052
 21
-5.72675
  0
LINE
  8
0
 10
-3.49052
 20
-5.72675
 11
-3.43886
 21
-5.65918
  0
LINE
  8
0
 10
-3.43886
 20
-5.65918
 11
-2.79587
 21
-4.60104
  0
LINE
  8
0
 10
-2.79587
 20
-4.60104
 11
-1.27646
 21
-5.23042
  0
LINE
  8
0
 10
-1.27646
 20
-5.23042
 11
-1.57001
 21
-6.43329
  0
LINE
  8
0
 10
-1.57001
 20
-6.43329
 11
-1.58125
 21
-6.51761
  0
LINE
  8
0
 10
-1.58125
 20
-6.51761
 11
-1.57867
 21
-6.77271
  0
LINE
  8
0
 10
-1.57867
 20
-6.77271
 11
-1.50809
 21
-7.19196
  0
LINE
  8
0
 10
-1.50809
 20
-7.19196
 11
-1.31766
 21
-7.75591
  0
LINE
  8
0
 10
-1.31766
 20
-7.75591
 11
-0.960785
 21
-8.43289
  0
LINE
  8
0
 10
-0.960785
 20
-8.43289
 11
-0.398514
 21
-9.18036
  0
LINE
  8
0
 10
-0.398514
 20
-9.18036
 11
0.398514
 21
-9.18036
  0
LINE
  8
0
 10
0.398514
 20
-9.18036
 11
0.960785
 21
-8.43289
  0
LINE
  8
0
 10
-0.562134
 20
-2.94685
 11
-1.27733
 21
-2.71448
  0
LINE
  8
0
 10
-1.27733
 20
-2.71448
 11
-1.91226
 21
-2.31154
  0
LINE
  8
0
 10
-1.91226
 20
-2.31154
 11
-2.42705
 21
-1.76335
  0
LINE
  8
0
 10
-2.42705
 20
-1.76335
 11
-2.78932
 21
-1.10437
  0
LINE
  8
0
 10
-2.78932
 20
-1.10437
 11
-2.97633
 21
-0.375992
  0
LINE
  8
0
 10
-2.97633
 20
-0.375992
 11
-2.97633
 21
0.375992
  0
LINE
  8
0
 10
-2.97633
 20
0.375992
 11
-2.78932
 21
1.10437
  0
LINE
  8
0
 10
-2.78932
 20
1.10437
 11
-2.42705
 21
1.76335
  0
LINE
  8
0
 10
-2.42705
 20
1.76335
 11
-1.91226
 21
2.31154
  0
LINE
  8
0
 10
-1.91226
 20
2.31154
 11
-1.27733
 21
2.71448
  0
LINE
  8
0
 10
-1.27733
 20
2.71448
 11
-0.562134
 21
2.94685
  0
LINE
  8
0
 10
-0.562134
 20
2.94685
 11
0.18837
 21
2.99408
  0
LINE
  8
0
 10
0.18837
 20
2.99408
 11
0.927048
 21
2.85316
  0
LINE
  8
0
 10
0.927048
 20
2.85316
 11
1.60747
 21
2.53297
  0
LINE
  8
0
 10
1.60747
 20
2.53297
 11
2.1869
 21
2.05363
  0
LINE
  8
0
 10
2.1869
 20
2.05363
 11
2.62891
 21
1.44525
  0
LINE
  8
0
 10
2.62891
 20
1.44525
 11
2.90575
 21
0.746063
  0
LINE
  8
0
 10
2.90575
 20
0.746063
 11
3
 21
0
  0
LINE
  8
0
 10
3
 20
0
 11
2.90575
 21
-0.746063
  0
LINE
  8
0
 10
2.90575
 20
-0.746063
 11
2.62891
 21
-1.44525
  0
LINE
  8
0
 10
2.62891
 20
-1.44525
 11
2.1869
 21
-2.05363
  0
LINE
  8
0
 10
2.1869
 20
-2.05363
 11
1.60747
 21
-2.53297
  0
LINE
  8
0
 10
1.60747
 20
-2.53297
 11
0.927048
 21
-2.85316
  0
LINE
  8
0
 10
0.927048
 20
-2.85316
 11
0.18837
 21
-2.99408
  0
LINE
  8
0
 10
0.18837
 20
-2.99408
 11
-0.562134
 21
-2.94685
  0
ENDSEC
  0
SECTION
  2
OBJECTS
  0
DICTIONARY
  0
ENDSEC
  0
EOF
