solid OpenSCAD_Model
  facet normal 0 0 -1
    outer loop
      vertex 1.57867 -6.77271 0
      vertex 1.57001 -6.43329 0
      vertex 1.58125 -6.51761 0
    endloop
  endfacet
  facet normal 0 0 -1
    outer loop
      vertex -1.57867 -6.77271 0
      vertex 1.57867 -6.77271 0
      vertex 1.50809 -7.19196 0
    endloop
  endfacet
  facet normal 0 0 -1
    outer loop
      vertex -1.50809 -7.19196 0
      vertex 1.50809 -7.19196 0
      vertex 1.31766 -7.75591 0
    endloop
  endfacet
  facet normal 0 0 -1
    outer loop
      vertex -1.57867 -6.77271 0
      vertex 1.50809 -7.19196 0
      vertex -1.50809 -7.19196 0
    endloop
  endfacet
  facet normal 0 0 -1
    outer loop
      vertex -1.31766 -7.75591 0
      vertex 1.31766 -7.75591 0
      vertex 0.960785 -8.43289 0
    endloop
  endfacet
  facet normal 0 0 -1
    outer loop
      vertex 5.28357 -6.64232 0
      vertex 6.64232 -5.28357 0
      vertex 6.77328 -6.2097 0
    endloop
  endfacet
  facet normal 0 0 -1
    outer loop
      vertex 5.28357 -6.64232 0
      vertex 6.77328 -6.2097 0
      vertex 6.2097 -6.77328 0
    endloop
  endfacet
  facet normal -0 0 -1
    outer loop
      vertex 6.64232 -5.28357 0
      vertex 5.28357 -6.64232 0
      vertex 6.41597 -4.55252 0
    endloop
  endfacet
  facet normal 0 0 -1
    outer loop
      vertex 4.55252 -6.41597 0
      vertex 6.41597 -4.55252 0
      vertex 5.28357 -6.64232 0
    endloop
  endfacet
  facet normal -0 0 -1
    outer loop
      vertex 6.41597 -4.55252 0
      vertex 4.55252 -6.41597 0
      vertex 6.15186 -4.01909 0
    endloop
  endfacet
  facet normal 0 0 -1
    outer loop
      vertex 4.01909 -6.15186 0
      vertex 6.15186 -4.01909 0
      vertex 4.55252 -6.41597 0
    endloop
  endfacet
  facet normal -0 0 -1
    outer loop
      vertex 6.15186 -4.01909 0
      vertex 4.01909 -6.15186 0
      vertex 5.9053 -3.67273 0
    endloop
  endfacet
  facet normal 0 0 -1
    outer loop
      vertex 3.67273 -5.9053 0
      vertex 5.9053 -3.67273 0
      vertex 4.01909 -6.15186 0
    endloop
  endfacet
  facet normal 0 0 -1
    outer loop
      vertex 5.9053 -3.67273 0
      vertex 5.65918 -3.43886 0
      vertex 5.72675 -3.49052 0
    endloop
  endfacet
  facet normal 0 -0 -1
    outer loop
      vertex 5.65918 -3.43886 0
      vertex 5.9053 -3.67273 0
      vertex 3.67273 -5.9053 0
    endloop
  endfacet
  facet normal 0 0 -1
    outer loop
      vertex 8.43289 -0.960785 0
      vertex 9.18036 0.398514 0
      vertex 9.18036 -0.398514 0
    endloop
  endfacet
  facet normal 0 0 -1
    outer loop
      vertex 8.43289 -0.960785 0
      vertex 8.43289 0.960785 0
      vertex 9.18036 0.398514 0
    endloop
  endfacet
  facet normal 0 0 -1
    outer loop
      vertex 7.75591 -1.31766 0
      vertex 8.43289 0.960785 0
      vertex 8.43289 -0.960785 0
    endloop
  endfacet
  facet normal 0 0 -1
    outer loop
      vertex 7.75591 -1.31766 0
      vertex 7.75591 1.31766 0
      vertex 8.43289 0.960785 0
    endloop
  endfacet
  facet normal 0 0 -1
    outer loop
      vertex 7.19196 -1.50809 0
      vertex 7.75591 1.31766 0
      vertex 7.75591 -1.31766 0
    endloop
  endfacet
  facet normal 0 0 -1
    outer loop
      vertex 7.19196 -1.50809 0
      vertex 7.19196 1.50809 0
      vertex 7.75591 1.31766 0
    endloop
  endfacet
  facet normal 0 0 -1
    outer loop
      vertex 6.77271 -1.57867 0
      vertex 7.19196 1.50809 0
      vertex 7.19196 -1.50809 0
    endloop
  endfacet
  facet normal 0 0 -1
    outer loop
      vertex 6.77271 -1.57867 0
      vertex 6.77271 1.57867 0
      vertex 7.19196 1.50809 0
    endloop
  endfacet
  facet normal 0 0 -1
    outer loop
      vertex 6.43329 -1.57001 0
      vertex 6.77271 -1.57867 0
      vertex 6.51761 -1.58125 0
    endloop
  endfacet
  facet normal 0 0 -1
    outer loop
      vertex 6.77271 -1.57867 0
      vertex 6.43329 -1.57001 0
      vertex 6.77271 1.57867 0
    endloop
  endfacet
  facet normal 0 0 -1
    outer loop
      vertex 6.43329 1.57001 0
      vertex 6.77271 1.57867 0
      vertex 6.43329 -1.57001 0
    endloop
  endfacet
  facet normal -0 0 -1
    outer loop
      vertex 6.77271 1.57867 0
      vertex 6.43329 1.57001 0
      vertex 6.51761 1.58125 0
    endloop
  endfacet
  facet normal 0 0 -1
    outer loop
      vertex 5.23042 -1.27646 0
      vertex 6.43329 1.57001 0
      vertex 6.43329 -1.57001 0
    endloop
  endfacet
  facet normal 0 0 -1
    outer loop
      vertex 5.23042 -1.27646 0
      vertex 5.23042 1.27646 0
      vertex 6.43329 1.57001 0
    endloop
  endfacet
  facet normal 0 0 -1
    outer loop
      vertex 4.60104 -2.79587 0
      vertex 5.23042 1.27646 0
      vertex 5.23042 -1.27646 0
    endloop
  endfacet
  facet normal -0 0 -1
    outer loop
      vertex 5.23042 1.27646 0
      vertex 4.60104 -2.79587 0
      vertex 4.60104 2.79587 0
    endloop
  endfacet
  facet normal 0 0 -1
    outer loop
      vertex 5.28357 6.64232 0
      vertex 6.64232 5.28357 0
      vertex 6.41597 4.55252 0
    endloop
  endfacet
  facet normal 0 0 -1
    outer loop
      vertex 6.64232 5.28357 0
      vertex 5.28357 6.64232 0
      vertex 6.77328 6.2097 0
    endloop
  endfacet
  facet normal 0 0 -1
    outer loop
      vertex 4.55252 6.41597 0
      vertex 6.41597 4.55252 0
      vertex 6.15186 4.01909 0
    endloop
  endfacet
  facet normal 0 0 -1
    outer loop
      vertex 4.01909 6.15186 0
      vertex 6.15186 4.01909 0
      vertex 5.9053 3.67273 0
    endloop
  endfacet
  facet normal 0 0 -1
    outer loop
      vertex 5.65918 3.43886 0
      vertex 5.9053 3.67273 0
      vertex 5.72675 3.49052 0
    endloop
  endfacet
  facet normal -0 0 -1
    outer loop
      vertex 5.9053 3.67273 0
      vertex 5.65918 3.43886 0
      vertex 3.67273 5.9053 0
    endloop
  endfacet
  facet normal 0 0 -1
    outer loop
      vertex 6.77328 6.2097 0
      vertex 5.28357 6.64232 0
      vertex 6.2097 6.77328 0
    endloop
  endfacet
  facet normal 0 0 -1
    outer loop
      vertex 3.43886 5.65918 0
      vertex 5.65918 3.43886 0
      vertex 4.60104 2.79587 0
    endloop
  endfacet
  facet normal 0 0 -1
    outer loop
      vertex 6.41597 4.55252 0
      vertex 4.55252 6.41597 0
      vertex 5.28357 6.64232 0
    endloop
  endfacet
  facet normal 0 -0 -1
    outer loop
      vertex 3 0 0
      vertex 4.60104 -2.79587 0
      vertex 2.90575 -0.746069 0
    endloop
  endfacet
  facet normal 0 0 -1
    outer loop
      vertex 3.43886 -5.65918 0
      vertex 5.65918 -3.43886 0
      vertex 3.67273 -5.9053 0
    endloop
  endfacet
  facet normal 0 0 -1
    outer loop
      vertex 2.90575 0.746069 0
      vertex 4.60104 2.79587 0
      vertex 3 0 0
    endloop
  endfacet
  facet normal -0 0 -1
    outer loop
      vertex 5.65918 -3.43886 0
      vertex 3.43886 -5.65918 0
      vertex 4.60104 -2.79587 0
    endloop
  endfacet
  facet normal 0 0 -1
    outer loop
      vertex 2.62892 1.44526 0
      vertex 4.60104 2.79587 0
      vertex 2.90575 0.746069 0
    endloop
  endfacet
  facet normal 0 0 -1
    outer loop
      vertex 3.43886 -5.65918 0
      vertex 3.67273 -5.9053 0
      vertex 3.49052 -5.72675 0
    endloop
  endfacet
  facet normal 0 0 -1
    outer loop
      vertex 2.18691 2.05364 0
      vertex 4.60104 2.79587 0
      vertex 2.62892 1.44526 0
    endloop
  endfacet
  facet normal 0 0 -1
    outer loop
      vertex 4.60104 -2.79587 0
      vertex 3.43886 -5.65918 0
      vertex 2.79587 -4.60104 0
    endloop
  endfacet
  facet normal 0 -0 -1
    outer loop
      vertex 3.43886 5.65918 0
      vertex 4.60104 2.79587 0
      vertex 2.79587 4.60104 0
    endloop
  endfacet
  facet normal 0 0 -1
    outer loop
      vertex 5.65918 3.43886 0
      vertex 3.43886 5.65918 0
      vertex 3.67273 5.9053 0
    endloop
  endfacet
  facet normal 0 0 -1
    outer loop
      vertex 4.60104 -2.79587 0
      vertex 3 0 0
      vertex 4.60104 2.79587 0
    endloop
  endfacet
  facet normal 0 0 -1
    outer loop
      vertex 2.18691 -2.05364 0
      vertex 4.60104 -2.79587 0
      vertex 2.79587 -4.60104 0
    endloop
  endfacet
  facet normal 0 0 -1
    outer loop
      vertex 4.60104 -2.79587 0
      vertex 2.62892 -1.44526 0
      vertex 2.90575 -0.746069 0
    endloop
  endfacet
  facet normal 0 0 -1
    outer loop
      vertex 4.60104 -2.79587 0
      vertex 2.18691 -2.05364 0
      vertex 2.62892 -1.44526 0
    endloop
  endfacet
  facet normal 0 0 -1
    outer loop
      vertex 2.79587 -4.60104 0
      vertex 1.60748 -2.53298 0
      vertex 2.18691 -2.05364 0
    endloop
  endfacet
  facet normal 0 0 -1
    outer loop
      vertex 0.927051 -2.85317 0
      vertex 2.79587 -4.60104 0
      vertex 1.27646 -5.23042 0
    endloop
  endfacet
  facet normal 0 0 -1
    outer loop
      vertex 2.79587 -4.60104 0
      vertex 0.927051 -2.85317 0
      vertex 1.60748 -2.53298 0
    endloop
  endfacet
  facet normal 0 0 -1
    outer loop
      vertex 1.57867 -6.77271 0
      vertex -1.57867 -6.77271 0
      vertex 1.57001 -6.43329 0
    endloop
  endfacet
  facet normal 0 0 -1
    outer loop
      vertex -0.960785 -8.43289 0
      vertex 0.960785 -8.43289 0
      vertex 0.398514 -9.18036 0
    endloop
  endfacet
  facet normal 0 -0 -1
    outer loop
      vertex 0.188371 -2.99408 0
      vertex 1.27646 -5.23042 0
      vertex -1.27646 -5.23042 0
    endloop
  endfacet
  facet normal 0 0 -1
    outer loop
      vertex -0.960785 -8.43289 0
      vertex 0.398514 -9.18036 0
      vertex -0.398514 -9.18036 0
    endloop
  endfacet
  facet normal 0 0 -1
    outer loop
      vertex 1.27646 -5.23042 0
      vertex 0.188371 -2.99408 0
      vertex 0.927051 -2.85317 0
    endloop
  endfacet
  facet normal 0 0 -1
    outer loop
      vertex 0.960785 -8.43289 0
      vertex -0.960785 -8.43289 0
      vertex -1.31766 -7.75591 0
    endloop
  endfacet
  facet normal -0 0 -1
    outer loop
      vertex 0.188371 -2.99408 0
      vertex -1.27646 -5.23042 0
      vertex -0.562143 -2.94686 0
    endloop
  endfacet
  facet normal 0 0 -1
    outer loop
      vertex -1.27646 -5.23042 0
      vertex -1.27734 -2.71448 0
      vertex -0.562143 -2.94686 0
    endloop
  endfacet
  facet normal 0 0 -1
    outer loop
      vertex -2.79587 -4.60104 0
      vertex -1.27734 -2.71448 0
      vertex -1.27646 -5.23042 0
    endloop
  endfacet
  facet normal -0 0 -1
    outer loop
      vertex -1.27734 -2.71448 0
      vertex -2.79587 -4.60104 0
      vertex -1.91227 -2.31154 0
    endloop
  endfacet
  facet normal 0 0 -1
    outer loop
      vertex -4.60104 -2.79587 0
      vertex -1.91227 -2.31154 0
      vertex -2.79587 -4.60104 0
    endloop
  endfacet
  facet normal -0 0 -1
    outer loop
      vertex -1.91227 -2.31154 0
      vertex -4.60104 -2.79587 0
      vertex -2.42705 -1.76336 0
    endloop
  endfacet
  facet normal -0 0 -1
    outer loop
      vertex -2.42705 -1.76336 0
      vertex -4.60104 -2.79587 0
      vertex -2.78933 -1.10437 0
    endloop
  endfacet
  facet normal 0 0 -1
    outer loop
      vertex -5.23042 -1.27646 0
      vertex -2.78933 -1.10437 0
      vertex -4.60104 -2.79587 0
    endloop
  endfacet
  facet normal 0 0 -1
    outer loop
      vertex -4.60104 -2.79587 0
      vertex -2.79587 -4.60104 0
      vertex -3.43886 -5.65918 0
    endloop
  endfacet
  facet normal 0 0 -1
    outer loop
      vertex 3.67273 5.9053 0
      vertex 3.43886 5.65918 0
      vertex 3.49052 5.72675 0
    endloop
  endfacet
  facet normal 0 0 -1
    outer loop
      vertex 5.9053 3.67273 0
      vertex 3.67273 5.9053 0
      vertex 4.01909 6.15186 0
    endloop
  endfacet
  facet normal 0 0 -1
    outer loop
      vertex 6.15186 4.01909 0
      vertex 4.01909 6.15186 0
      vertex 4.55252 6.41597 0
    endloop
  endfacet
  facet normal -0 0 -1
    outer loop
      vertex 4.60104 2.79587 0
      vertex 2.18691 2.05364 0
      vertex 2.79587 4.60104 0
    endloop
  endfacet
  facet normal 0 0 -1
    outer loop
      vertex 1.60748 2.53298 0
      vertex 2.79587 4.60104 0
      vertex 2.18691 2.05364 0
    endloop
  endfacet
  facet normal 0 0 -1
    outer loop
      vertex 0.927051 2.85317 0
      vertex 2.79587 4.60104 0
      vertex 1.60748 2.53298 0
    endloop
  endfacet
  facet normal -0 0 -1
    outer loop
      vertex 2.79587 4.60104 0
      vertex 0.927051 2.85317 0
      vertex 1.27646 5.23042 0
    endloop
  endfacet
  facet normal 0 0 -1
    outer loop
      vertex 0.188371 2.99408 0
      vertex 1.27646 5.23042 0
      vertex 0.927051 2.85317 0
    endloop
  endfacet
  facet normal 0 0 -1
    outer loop
      vertex -1.57001 6.43329 0
      vertex 1.27646 5.23042 0
      vertex -1.27646 5.23042 0
    endloop
  endfacet
  facet normal -0 0 -1
    outer loop
      vertex 1.27646 5.23042 0
      vertex 0.188371 2.99408 0
      vertex -1.27646 5.23042 0
    endloop
  endfacet
  facet normal 0 0 -1
    outer loop
      vertex -1.57867 6.77271 0
      vertex 1.27646 5.23042 0
      vertex -1.57001 6.43329 0
    endloop
  endfacet
  facet normal 0 0 -1
    outer loop
      vertex -1.27646 5.23042 0
      vertex 0.188371 2.99408 0
      vertex -0.562143 2.94686 0
    endloop
  endfacet
  facet normal 0 -0 -1
    outer loop
      vertex -1.50809 7.19196 0
      vertex 1.27646 5.23042 0
      vertex -1.57867 6.77271 0
    endloop
  endfacet
  facet normal -0 0 -1
    outer loop
      vertex 0.398514 9.18036 0
      vertex -0.960785 8.43289 0
      vertex -0.398514 9.18036 0
    endloop
  endfacet
  facet normal 0 0 -1
    outer loop
      vertex -1.27734 2.71448 0
      vertex -1.27646 5.23042 0
      vertex -0.562143 2.94686 0
    endloop
  endfacet
  facet normal 0 0 -1
    outer loop
      vertex -2.79587 4.60104 0
      vertex -1.27734 2.71448 0
      vertex -1.91227 2.31154 0
    endloop
  endfacet
  facet normal 0 0 -1
    outer loop
      vertex -4.60104 2.79587 0
      vertex -1.91227 2.31154 0
      vertex -2.42705 1.76336 0
    endloop
  endfacet
  facet normal 0 0 -1
    outer loop
      vertex -4.60104 2.79587 0
      vertex -2.42705 1.76336 0
      vertex -2.78933 1.10437 0
    endloop
  endfacet
  facet normal 0 0 -1
    outer loop
      vertex -1.27734 2.71448 0
      vertex -2.79587 4.60104 0
      vertex -1.27646 5.23042 0
    endloop
  endfacet
  facet normal 0 0 -1
    outer loop
      vertex -5.23042 1.27646 0
      vertex -2.78933 1.10437 0
      vertex -2.97634 0.375999 0
    endloop
  endfacet
  facet normal -0 0 -1
    outer loop
      vertex -2.78933 -1.10437 0
      vertex -5.23042 -1.27646 0
      vertex -2.97634 -0.375999 0
    endloop
  endfacet
  facet normal -0 0 -1
    outer loop
      vertex -2.97634 -0.375999 0
      vertex -5.23042 -1.27646 0
      vertex -2.97634 0.375999 0
    endloop
  endfacet
  facet normal 0 0 -1
    outer loop
      vertex -3.67273 -5.9053 0
      vertex -3.43886 -5.65918 0
      vertex -3.49052 -5.72675 0
    endloop
  endfacet
  facet normal 0 0 -1
    outer loop
      vertex -1.91227 2.31154 0
      vertex -4.60104 2.79587 0
      vertex -2.79587 4.60104 0
    endloop
  endfacet
  facet normal -0 0 -1
    outer loop
      vertex -3.43886 -5.65918 0
      vertex -3.67273 -5.9053 0
      vertex -5.65918 -3.43886 0
    endloop
  endfacet
  facet normal -0 0 -1
    outer loop
      vertex -2.79587 4.60104 0
      vertex -4.60104 2.79587 0
      vertex -3.43886 5.65918 0
    endloop
  endfacet
  facet normal 0 0 -1
    outer loop
      vertex -5.9053 -3.67273 0
      vertex -3.67273 -5.9053 0
      vertex -4.01909 -6.15186 0
    endloop
  endfacet
  facet normal 0 0 -1
    outer loop
      vertex -5.65918 3.43886 0
      vertex -3.43886 5.65918 0
      vertex -4.60104 2.79587 0
    endloop
  endfacet
  facet normal 0 0 -1
    outer loop
      vertex -6.15186 -4.01909 0
      vertex -4.01909 -6.15186 0
      vertex -4.55252 -6.41597 0
    endloop
  endfacet
  facet normal 0 -0 -1
    outer loop
      vertex -3.67273 5.9053 0
      vertex -3.43886 5.65918 0
      vertex -5.65918 3.43886 0
    endloop
  endfacet
  facet normal 0 0 -1
    outer loop
      vertex -3.43886 5.65918 0
      vertex -3.67273 5.9053 0
      vertex -3.49052 5.72675 0
    endloop
  endfacet
  facet normal 0 0 -1
    outer loop
      vertex -6.41597 -4.55252 0
      vertex -4.55252 -6.41597 0
      vertex -5.28357 -6.64232 0
    endloop
  endfacet
  facet normal 0 0 -1
    outer loop
      vertex -3.43886 -5.65918 0
      vertex -5.65918 -3.43886 0
      vertex -4.60104 -2.79587 0
    endloop
  endfacet
  facet normal 0 0 -1
    outer loop
      vertex -3.67273 -5.9053 0
      vertex -5.9053 -3.67273 0
      vertex -5.65918 -3.43886 0
    endloop
  endfacet
  facet normal 0 0 -1
    outer loop
      vertex -5.65918 -3.43886 0
      vertex -5.9053 -3.67273 0
      vertex -5.72675 -3.49052 0
    endloop
  endfacet
  facet normal 0 0 -1
    outer loop
      vertex -4.01909 -6.15186 0
      vertex -6.15186 -4.01909 0
      vertex -5.9053 -3.67273 0
    endloop
  endfacet
  facet normal 0 0 -1
    outer loop
      vertex -6.64232 -5.28357 0
      vertex -5.28357 -6.64232 0
      vertex -6.2097 -6.77328 0
    endloop
  endfacet
  facet normal 0 0 -1
    outer loop
      vertex -4.55252 -6.41597 0
      vertex -6.41597 -4.55252 0
      vertex -6.15186 -4.01909 0
    endloop
  endfacet
  facet normal 0 0 -1
    outer loop
      vertex -5.28357 -6.64232 0
      vertex -6.64232 -5.28357 0
      vertex -6.41597 -4.55252 0
    endloop
  endfacet
  facet normal 0 -0 -1
    outer loop
      vertex -6.64232 -5.28357 0
      vertex -6.2097 -6.77328 0
      vertex -6.77328 -6.2097 0
    endloop
  endfacet
  facet normal 0 0 -1
    outer loop
      vertex -5.23042 1.27646 0
      vertex -2.97634 0.375999 0
      vertex -5.23042 -1.27646 0
    endloop
  endfacet
  facet normal 0 0 -1
    outer loop
      vertex -2.78933 1.10437 0
      vertex -5.23042 1.27646 0
      vertex -4.60104 2.79587 0
    endloop
  endfacet
  facet normal 0 0 -1
    outer loop
      vertex -6.43329 -1.57001 0
      vertex -5.23042 1.27646 0
      vertex -5.23042 -1.27646 0
    endloop
  endfacet
  facet normal 0 0 -1
    outer loop
      vertex -6.43329 -1.57001 0
      vertex -6.43329 1.57001 0
      vertex -5.23042 1.27646 0
    endloop
  endfacet
  facet normal 0 0 -1
    outer loop
      vertex -6.77271 -1.57867 0
      vertex -6.43329 -1.57001 0
      vertex -6.51761 -1.58125 0
    endloop
  endfacet
  facet normal -0 0 -1
    outer loop
      vertex -6.43329 -1.57001 0
      vertex -6.77271 -1.57867 0
      vertex -6.43329 1.57001 0
    endloop
  endfacet
  facet normal 0 0 -1
    outer loop
      vertex -6.77271 1.57867 0
      vertex -6.43329 1.57001 0
      vertex -6.77271 -1.57867 0
    endloop
  endfacet
  facet normal 0 0 -1
    outer loop
      vertex -6.43329 1.57001 0
      vertex -6.77271 1.57867 0
      vertex -6.51761 1.58125 0
    endloop
  endfacet
  facet normal 0 0 -1
    outer loop
      vertex -7.19196 -1.50809 0
      vertex -6.77271 1.57867 0
      vertex -6.77271 -1.57867 0
    endloop
  endfacet
  facet normal 0 0 -1
    outer loop
      vertex -7.19196 -1.50809 0
      vertex -7.19196 1.50809 0
      vertex -6.77271 1.57867 0
    endloop
  endfacet
  facet normal 0 0 -1
    outer loop
      vertex -7.75591 -1.31766 0
      vertex -7.19196 1.50809 0
      vertex -7.19196 -1.50809 0
    endloop
  endfacet
  facet normal 0 0 -1
    outer loop
      vertex -7.75591 -1.31766 0
      vertex -7.75591 1.31766 0
      vertex -7.19196 1.50809 0
    endloop
  endfacet
  facet normal 0 0 -1
    outer loop
      vertex -8.43289 -0.960785 0
      vertex -7.75591 1.31766 0
      vertex -7.75591 -1.31766 0
    endloop
  endfacet
  facet normal 0 0 -1
    outer loop
      vertex -8.43289 -0.960785 0
      vertex -8.43289 0.960785 0
      vertex -7.75591 1.31766 0
    endloop
  endfacet
  facet normal 0 0 -1
    outer loop
      vertex -9.18036 -0.398514 0
      vertex -8.43289 0.960785 0
      vertex -8.43289 -0.960785 0
    endloop
  endfacet
  facet normal 0 0 -1
    outer loop
      vertex -8.43289 0.960785 0
      vertex -9.18036 -0.398514 0
      vertex -9.18036 0.398514 0
    endloop
  endfacet
  facet normal 0 0 -1
    outer loop
      vertex -5.9053 3.67273 0
      vertex -3.67273 5.9053 0
      vertex -5.65918 3.43886 0
    endloop
  endfacet
  facet normal -0 0 -1
    outer loop
      vertex -3.67273 5.9053 0
      vertex -5.9053 3.67273 0
      vertex -4.01909 6.15186 0
    endloop
  endfacet
  facet normal 0 0 -1
    outer loop
      vertex -6.15186 4.01909 0
      vertex -4.01909 6.15186 0
      vertex -5.9053 3.67273 0
    endloop
  endfacet
  facet normal 0 0 -1
    outer loop
      vertex -5.9053 3.67273 0
      vertex -5.65918 3.43886 0
      vertex -5.72675 3.49052 0
    endloop
  endfacet
  facet normal -0 0 -1
    outer loop
      vertex -4.01909 6.15186 0
      vertex -6.15186 4.01909 0
      vertex -4.55252 6.41597 0
    endloop
  endfacet
  facet normal 0 0 -1
    outer loop
      vertex -6.41597 4.55252 0
      vertex -4.55252 6.41597 0
      vertex -6.15186 4.01909 0
    endloop
  endfacet
  facet normal -0 0 -1
    outer loop
      vertex -4.55252 6.41597 0
      vertex -6.41597 4.55252 0
      vertex -5.28357 6.64232 0
    endloop
  endfacet
  facet normal 0 0 -1
    outer loop
      vertex -6.64232 5.28357 0
      vertex -5.28357 6.64232 0
      vertex -6.41597 4.55252 0
    endloop
  endfacet
  facet normal -0 0 -1
    outer loop
      vertex -5.28357 6.64232 0
      vertex -6.64232 5.28357 0
      vertex -6.2097 6.77328 0
    endloop
  endfacet
  facet normal 0 0 -1
    outer loop
      vertex -6.2097 6.77328 0
      vertex -6.64232 5.28357 0
      vertex -6.77328 6.2097 0
    endloop
  endfacet
  facet normal 0 0 -1
    outer loop
      vertex 1.31766 -7.75591 0
      vertex -1.31766 -7.75591 0
      vertex -1.50809 -7.19196 0
    endloop
  endfacet
  facet normal -0 0 -1
    outer loop
      vertex 1.57001 -6.43329 0
      vertex -1.57867 -6.77271 0
      vertex -1.57001 -6.43329 0
    endloop
  endfacet
  facet normal -0 0 -1
    outer loop
      vertex 1.27646 -5.23042 0
      vertex -1.57001 -6.43329 0
      vertex -1.27646 -5.23042 0
    endloop
  endfacet
  facet normal 0 0 -1
    outer loop
      vertex 1.57001 -6.43329 0
      vertex -1.57001 -6.43329 0
      vertex 1.27646 -5.23042 0
    endloop
  endfacet
  facet normal 0 0 -1
    outer loop
      vertex -1.57001 -6.43329 0
      vertex -1.57867 -6.77271 0
      vertex -1.58125 -6.51761 0
    endloop
  endfacet
  facet normal 0 0 -1
    outer loop
      vertex 1.57001 6.43329 0
      vertex 1.57867 6.77271 0
      vertex 1.58125 6.51761 0
    endloop
  endfacet
  facet normal 0 0 -1
    outer loop
      vertex 1.57001 6.43329 0
      vertex 1.50809 7.19196 0
      vertex 1.57867 6.77271 0
    endloop
  endfacet
  facet normal 0 0 -1
    outer loop
      vertex 1.57001 6.43329 0
      vertex 1.31766 7.75591 0
      vertex 1.50809 7.19196 0
    endloop
  endfacet
  facet normal 0 0 -1
    outer loop
      vertex 1.27646 5.23042 0
      vertex 1.31766 7.75591 0
      vertex 1.57001 6.43329 0
    endloop
  endfacet
  facet normal -0 0 -1
    outer loop
      vertex 1.31766 7.75591 0
      vertex 1.27646 5.23042 0
      vertex 0.960785 8.43289 0
    endloop
  endfacet
  facet normal 0 0 -1
    outer loop
      vertex 0.960785 8.43289 0
      vertex -0.960785 8.43289 0
      vertex 0.398514 9.18036 0
    endloop
  endfacet
  facet normal 0 -0 -1
    outer loop
      vertex -1.31766 7.75591 0
      vertex 0.960785 8.43289 0
      vertex -1.50809 7.19196 0
    endloop
  endfacet
  facet normal 0 -0 -1
    outer loop
      vertex -0.960785 8.43289 0
      vertex 0.960785 8.43289 0
      vertex -1.31766 7.75591 0
    endloop
  endfacet
  facet normal 0 0 -1
    outer loop
      vertex 1.27646 5.23042 0
      vertex -1.50809 7.19196 0
      vertex 0.960785 8.43289 0
    endloop
  endfacet
  facet normal 0 -0 -1
    outer loop
      vertex -1.57867 6.77271 0
      vertex -1.57001 6.43329 0
      vertex -1.58125 6.51761 0
    endloop
  endfacet
  facet normal 0 0 1
    outer loop
      vertex 1.57867 6.77271 6
      vertex 1.57001 6.43329 6
      vertex 1.58125 6.51761 6
    endloop
  endfacet
  facet normal 0 0 1
    outer loop
      vertex -1.57867 6.77271 6
      vertex 1.57867 6.77271 6
      vertex 1.50809 7.19196 6
    endloop
  endfacet
  facet normal 0 0 1
    outer loop
      vertex -1.50809 7.19196 6
      vertex 1.50809 7.19196 6
      vertex 1.31766 7.75591 6
    endloop
  endfacet
  facet normal 0 0 1
    outer loop
      vertex -1.57867 6.77271 6
      vertex 1.50809 7.19196 6
      vertex -1.50809 7.19196 6
    endloop
  endfacet
  facet normal 0 0 1
    outer loop
      vertex -1.31766 7.75591 6
      vertex 1.31766 7.75591 6
      vertex 0.960785 8.43289 6
    endloop
  endfacet
  facet normal 0 0 1
    outer loop
      vertex 5.28357 6.64232 6
      vertex 6.64232 5.28357 6
      vertex 6.77328 6.2097 6
    endloop
  endfacet
  facet normal -0 0 1
    outer loop
      vertex 5.28357 6.64232 6
      vertex 6.77328 6.2097 6
      vertex 6.2097 6.77328 6
    endloop
  endfacet
  facet normal 0 0 1
    outer loop
      vertex 6.64232 5.28357 6
      vertex 5.28357 6.64232 6
      vertex 6.41597 4.55252 6
    endloop
  endfacet
  facet normal -0 0 1
    outer loop
      vertex 4.55252 6.41597 6
      vertex 6.41597 4.55252 6
      vertex 5.28357 6.64232 6
    endloop
  endfacet
  facet normal 0 0 1
    outer loop
      vertex 6.41597 4.55252 6
      vertex 4.55252 6.41597 6
      vertex 6.15186 4.01909 6
    endloop
  endfacet
  facet normal -0 0 1
    outer loop
      vertex 4.01909 6.15186 6
      vertex 6.15186 4.01909 6
      vertex 4.55252 6.41597 6
    endloop
  endfacet
  facet normal 0 0 1
    outer loop
      vertex 6.15186 4.01909 6
      vertex 4.01909 6.15186 6
      vertex 5.9053 3.67273 6
    endloop
  endfacet
  facet normal -0 0 1
    outer loop
      vertex 3.67273 5.9053 6
      vertex 5.9053 3.67273 6
      vertex 4.01909 6.15186 6
    endloop
  endfacet
  facet normal 0 0 1
    outer loop
      vertex 5.9053 3.67273 6
      vertex 5.65918 3.43886 6
      vertex 5.72675 3.49052 6
    endloop
  endfacet
  facet normal 0 -0 1
    outer loop
      vertex 5.65918 3.43886 6
      vertex 5.9053 3.67273 6
      vertex 3.67273 5.9053 6
    endloop
  endfacet
  facet normal 0 0 1
    outer loop
      vertex 8.43289 0.960785 6
      vertex 9.18036 -0.398514 6
      vertex 9.18036 0.398514 6
    endloop
  endfacet
  facet normal 0 0 1
    outer loop
      vertex 8.43289 0.960785 6
      vertex 8.43289 -0.960785 6
      vertex 9.18036 -0.398514 6
    endloop
  endfacet
  facet normal 0 0 1
    outer loop
      vertex 7.75591 1.31766 6
      vertex 8.43289 -0.960785 6
      vertex 8.43289 0.960785 6
    endloop
  endfacet
  facet normal 0 0 1
    outer loop
      vertex 7.75591 1.31766 6
      vertex 7.75591 -1.31766 6
      vertex 8.43289 -0.960785 6
    endloop
  endfacet
  facet normal 0 0 1
    outer loop
      vertex 7.19196 1.50809 6
      vertex 7.75591 -1.31766 6
      vertex 7.75591 1.31766 6
    endloop
  endfacet
  facet normal 0 0 1
    outer loop
      vertex 7.19196 1.50809 6
      vertex 7.19196 -1.50809 6
      vertex 7.75591 -1.31766 6
    endloop
  endfacet
  facet normal 0 0 1
    outer loop
      vertex 6.77271 1.57867 6
      vertex 7.19196 -1.50809 6
      vertex 7.19196 1.50809 6
    endloop
  endfacet
  facet normal 0 0 1
    outer loop
      vertex 6.77271 1.57867 6
      vertex 6.77271 -1.57867 6
      vertex 7.19196 -1.50809 6
    endloop
  endfacet
  facet normal 0 0 1
    outer loop
      vertex 6.43329 1.57001 6
      vertex 6.77271 1.57867 6
      vertex 6.51761 1.58125 6
    endloop
  endfacet
  facet normal 0 0 1
    outer loop
      vertex 6.77271 1.57867 6
      vertex 6.43329 1.57001 6
      vertex 6.77271 -1.57867 6
    endloop
  endfacet
  facet normal -0 0 1
    outer loop
      vertex 6.43329 -1.57001 6
      vertex 6.77271 -1.57867 6
      vertex 6.43329 1.57001 6
    endloop
  endfacet
  facet normal 0 0 1
    outer loop
      vertex 6.77271 -1.57867 6
      vertex 6.43329 -1.57001 6
      vertex 6.51761 -1.58125 6
    endloop
  endfacet
  facet normal -0 0 1
    outer loop
      vertex 5.23042 1.27646 6
      vertex 6.43329 -1.57001 6
      vertex 6.43329 1.57001 6
    endloop
  endfacet
  facet normal 0 0 1
    outer loop
      vertex 5.23042 1.27646 6
      vertex 5.23042 -1.27646 6
      vertex 6.43329 -1.57001 6
    endloop
  endfacet
  facet normal 0 0 1
    outer loop
      vertex 4.60104 2.79587 6
      vertex 5.23042 -1.27646 6
      vertex 5.23042 1.27646 6
    endloop
  endfacet
  facet normal 0 0 1
    outer loop
      vertex 5.23042 -1.27646 6
      vertex 4.60104 2.79587 6
      vertex 4.60104 -2.79587 6
    endloop
  endfacet
  facet normal 0 0 1
    outer loop
      vertex 5.28357 -6.64232 6
      vertex 6.64232 -5.28357 6
      vertex 6.41597 -4.55252 6
    endloop
  endfacet
  facet normal 0 0 1
    outer loop
      vertex 6.64232 -5.28357 6
      vertex 5.28357 -6.64232 6
      vertex 6.77328 -6.2097 6
    endloop
  endfacet
  facet normal 0 0 1
    outer loop
      vertex 4.55252 -6.41597 6
      vertex 6.41597 -4.55252 6
      vertex 6.15186 -4.01909 6
    endloop
  endfacet
  facet normal 0 0 1
    outer loop
      vertex 4.01909 -6.15186 6
      vertex 6.15186 -4.01909 6
      vertex 5.9053 -3.67273 6
    endloop
  endfacet
  facet normal 0 0 1
    outer loop
      vertex 5.65918 -3.43886 6
      vertex 5.9053 -3.67273 6
      vertex 5.72675 -3.49052 6
    endloop
  endfacet
  facet normal 0 0 1
    outer loop
      vertex 5.9053 -3.67273 6
      vertex 5.65918 -3.43886 6
      vertex 3.67273 -5.9053 6
    endloop
  endfacet
  facet normal 0 0 1
    outer loop
      vertex 6.77328 -6.2097 6
      vertex 5.28357 -6.64232 6
      vertex 6.2097 -6.77328 6
    endloop
  endfacet
  facet normal 0 0 1
    outer loop
      vertex 3.43886 -5.65918 6
      vertex 5.65918 -3.43886 6
      vertex 4.60104 -2.79587 6
    endloop
  endfacet
  facet normal 0 0 1
    outer loop
      vertex 6.41597 -4.55252 6
      vertex 4.55252 -6.41597 6
      vertex 5.28357 -6.64232 6
    endloop
  endfacet
  facet normal 0 -0 1
    outer loop
      vertex 3 0 6
      vertex 4.60104 2.79587 6
      vertex 2.90575 0.746069 6
    endloop
  endfacet
  facet normal -0 0 1
    outer loop
      vertex 3.43886 5.65918 6
      vertex 5.65918 3.43886 6
      vertex 3.67273 5.9053 6
    endloop
  endfacet
  facet normal -0 0 1
    outer loop
      vertex 2.90575 -0.746069 6
      vertex 4.60104 -2.79587 6
      vertex 3 0 6
    endloop
  endfacet
  facet normal 0 0 1
    outer loop
      vertex 5.65918 3.43886 6
      vertex 3.43886 5.65918 6
      vertex 4.60104 2.79587 6
    endloop
  endfacet
  facet normal -0 0 1
    outer loop
      vertex 2.62892 -1.44526 6
      vertex 4.60104 -2.79587 6
      vertex 2.90575 -0.746069 6
    endloop
  endfacet
  facet normal 0 0 1
    outer loop
      vertex 3.43886 5.65918 6
      vertex 3.67273 5.9053 6
      vertex 3.49052 5.72675 6
    endloop
  endfacet
  facet normal -0 0 1
    outer loop
      vertex 2.18691 -2.05364 6
      vertex 4.60104 -2.79587 6
      vertex 2.62892 -1.44526 6
    endloop
  endfacet
  facet normal 0 0 1
    outer loop
      vertex 4.60104 2.79587 6
      vertex 3.43886 5.65918 6
      vertex 2.79587 4.60104 6
    endloop
  endfacet
  facet normal 0 -0 1
    outer loop
      vertex 3.43886 -5.65918 6
      vertex 4.60104 -2.79587 6
      vertex 2.79587 -4.60104 6
    endloop
  endfacet
  facet normal 0 0 1
    outer loop
      vertex 5.65918 -3.43886 6
      vertex 3.43886 -5.65918 6
      vertex 3.67273 -5.9053 6
    endloop
  endfacet
  facet normal 0 0 1
    outer loop
      vertex 4.60104 2.79587 6
      vertex 3 0 6
      vertex 4.60104 -2.79587 6
    endloop
  endfacet
  facet normal 0 0 1
    outer loop
      vertex 2.18691 2.05364 6
      vertex 4.60104 2.79587 6
      vertex 2.79587 4.60104 6
    endloop
  endfacet
  facet normal 0 0 1
    outer loop
      vertex 4.60104 2.79587 6
      vertex 2.62892 1.44526 6
      vertex 2.90575 0.746069 6
    endloop
  endfacet
  facet normal 0 0 1
    outer loop
      vertex 4.60104 2.79587 6
      vertex 2.18691 2.05364 6
      vertex 2.62892 1.44526 6
    endloop
  endfacet
  facet normal 0 0 1
    outer loop
      vertex 2.79587 4.60104 6
      vertex 1.60748 2.53298 6
      vertex 2.18691 2.05364 6
    endloop
  endfacet
  facet normal 0 0 1
    outer loop
      vertex 0.927051 2.85317 6
      vertex 2.79587 4.60104 6
      vertex 1.27646 5.23042 6
    endloop
  endfacet
  facet normal 0 0 1
    outer loop
      vertex 2.79587 4.60104 6
      vertex 0.927051 2.85317 6
      vertex 1.60748 2.53298 6
    endloop
  endfacet
  facet normal 0 0 1
    outer loop
      vertex 1.57867 6.77271 6
      vertex -1.57867 6.77271 6
      vertex 1.57001 6.43329 6
    endloop
  endfacet
  facet normal 0 0 1
    outer loop
      vertex -0.960785 8.43289 6
      vertex 0.960785 8.43289 6
      vertex 0.398514 9.18036 6
    endloop
  endfacet
  facet normal 0 -0 1
    outer loop
      vertex 0.188371 2.99408 6
      vertex 1.27646 5.23042 6
      vertex -1.27646 5.23042 6
    endloop
  endfacet
  facet normal 0 0 1
    outer loop
      vertex -0.960785 8.43289 6
      vertex 0.398514 9.18036 6
      vertex -0.398514 9.18036 6
    endloop
  endfacet
  facet normal 0 0 1
    outer loop
      vertex 1.27646 5.23042 6
      vertex 0.188371 2.99408 6
      vertex 0.927051 2.85317 6
    endloop
  endfacet
  facet normal 0 0 1
    outer loop
      vertex 0.960785 8.43289 6
      vertex -0.960785 8.43289 6
      vertex -1.31766 7.75591 6
    endloop
  endfacet
  facet normal 0 0 1
    outer loop
      vertex 0.188371 2.99408 6
      vertex -1.27646 5.23042 6
      vertex -0.562143 2.94686 6
    endloop
  endfacet
  facet normal 0 0 1
    outer loop
      vertex -1.27646 5.23042 6
      vertex -1.27734 2.71448 6
      vertex -0.562143 2.94686 6
    endloop
  endfacet
  facet normal -0 0 1
    outer loop
      vertex -2.79587 4.60104 6
      vertex -1.27734 2.71448 6
      vertex -1.27646 5.23042 6
    endloop
  endfacet
  facet normal 0 0 1
    outer loop
      vertex -1.27734 2.71448 6
      vertex -2.79587 4.60104 6
      vertex -1.91227 2.31154 6
    endloop
  endfacet
  facet normal -0 0 1
    outer loop
      vertex -4.60104 2.79587 6
      vertex -1.91227 2.31154 6
      vertex -2.79587 4.60104 6
    endloop
  endfacet
  facet normal 0 0 1
    outer loop
      vertex -1.91227 2.31154 6
      vertex -4.60104 2.79587 6
      vertex -2.42705 1.76336 6
    endloop
  endfacet
  facet normal 0 0 1
    outer loop
      vertex -2.42705 1.76336 6
      vertex -4.60104 2.79587 6
      vertex -2.78933 1.10437 6
    endloop
  endfacet
  facet normal -0 0 1
    outer loop
      vertex -5.23042 1.27646 6
      vertex -2.78933 1.10437 6
      vertex -4.60104 2.79587 6
    endloop
  endfacet
  facet normal 0 0 1
    outer loop
      vertex -4.60104 2.79587 6
      vertex -2.79587 4.60104 6
      vertex -3.43886 5.65918 6
    endloop
  endfacet
  facet normal 0 0 1
    outer loop
      vertex 3.67273 -5.9053 6
      vertex 3.43886 -5.65918 6
      vertex 3.49052 -5.72675 6
    endloop
  endfacet
  facet normal 0 0 1
    outer loop
      vertex 5.9053 -3.67273 6
      vertex 3.67273 -5.9053 6
      vertex 4.01909 -6.15186 6
    endloop
  endfacet
  facet normal 0 0 1
    outer loop
      vertex 6.15186 -4.01909 6
      vertex 4.01909 -6.15186 6
      vertex 4.55252 -6.41597 6
    endloop
  endfacet
  facet normal 0 0 1
    outer loop
      vertex 4.60104 -2.79587 6
      vertex 2.18691 -2.05364 6
      vertex 2.79587 -4.60104 6
    endloop
  endfacet
  facet normal -0 0 1
    outer loop
      vertex 1.60748 -2.53298 6
      vertex 2.79587 -4.60104 6
      vertex 2.18691 -2.05364 6
    endloop
  endfacet
  facet normal -0 0 1
    outer loop
      vertex 0.927051 -2.85317 6
      vertex 2.79587 -4.60104 6
      vertex 1.60748 -2.53298 6
    endloop
  endfacet
  facet normal 0 0 1
    outer loop
      vertex 2.79587 -4.60104 6
      vertex 0.927051 -2.85317 6
      vertex 1.27646 -5.23042 6
    endloop
  endfacet
  facet normal -0 0 1
    outer loop
      vertex 0.188371 -2.99408 6
      vertex 1.27646 -5.23042 6
      vertex 0.927051 -2.85317 6
    endloop
  endfacet
  facet normal 0 0 1
    outer loop
      vertex -1.57001 -6.43329 6
      vertex 1.27646 -5.23042 6
      vertex -1.27646 -5.23042 6
    endloop
  endfacet
  facet normal 0 0 1
    outer loop
      vertex 1.27646 -5.23042 6
      vertex 0.188371 -2.99408 6
      vertex -1.27646 -5.23042 6
    endloop
  endfacet
  facet normal 0 0 1
    outer loop
      vertex -1.57867 -6.77271 6
      vertex 1.27646 -5.23042 6
      vertex -1.57001 -6.43329 6
    endloop
  endfacet
  facet normal 0 0 1
    outer loop
      vertex -1.27646 -5.23042 6
      vertex 0.188371 -2.99408 6
      vertex -0.562143 -2.94686 6
    endloop
  endfacet
  facet normal 0 -0 1
    outer loop
      vertex -1.50809 -7.19196 6
      vertex 1.27646 -5.23042 6
      vertex -1.57867 -6.77271 6
    endloop
  endfacet
  facet normal 0 0 1
    outer loop
      vertex 0.398514 -9.18036 6
      vertex -0.960785 -8.43289 6
      vertex -0.398514 -9.18036 6
    endloop
  endfacet
  facet normal 0 0 1
    outer loop
      vertex -1.27734 -2.71448 6
      vertex -1.27646 -5.23042 6
      vertex -0.562143 -2.94686 6
    endloop
  endfacet
  facet normal 0 0 1
    outer loop
      vertex -2.79587 -4.60104 6
      vertex -1.27734 -2.71448 6
      vertex -1.91227 -2.31154 6
    endloop
  endfacet
  facet normal 0 0 1
    outer loop
      vertex -4.60104 -2.79587 6
      vertex -1.91227 -2.31154 6
      vertex -2.42705 -1.76336 6
    endloop
  endfacet
  facet normal 0 0 1
    outer loop
      vertex -4.60104 -2.79587 6
      vertex -2.42705 -1.76336 6
      vertex -2.78933 -1.10437 6
    endloop
  endfacet
  facet normal 0 0 1
    outer loop
      vertex -1.27734 -2.71448 6
      vertex -2.79587 -4.60104 6
      vertex -1.27646 -5.23042 6
    endloop
  endfacet
  facet normal 0 0 1
    outer loop
      vertex -5.23042 -1.27646 6
      vertex -2.78933 -1.10437 6
      vertex -2.97634 -0.375999 6
    endloop
  endfacet
  facet normal 0 0 1
    outer loop
      vertex -2.78933 1.10437 6
      vertex -5.23042 1.27646 6
      vertex -2.97634 0.375999 6
    endloop
  endfacet
  facet normal 0 0 1
    outer loop
      vertex -2.97634 0.375999 6
      vertex -5.23042 1.27646 6
      vertex -2.97634 -0.375999 6
    endloop
  endfacet
  facet normal 0 0 1
    outer loop
      vertex -3.67273 5.9053 6
      vertex -3.43886 5.65918 6
      vertex -3.49052 5.72675 6
    endloop
  endfacet
  facet normal 0 0 1
    outer loop
      vertex -1.91227 -2.31154 6
      vertex -4.60104 -2.79587 6
      vertex -2.79587 -4.60104 6
    endloop
  endfacet
  facet normal 0 0 1
    outer loop
      vertex -3.43886 5.65918 6
      vertex -3.67273 5.9053 6
      vertex -5.65918 3.43886 6
    endloop
  endfacet
  facet normal 0 0 1
    outer loop
      vertex -2.79587 -4.60104 6
      vertex -4.60104 -2.79587 6
      vertex -3.43886 -5.65918 6
    endloop
  endfacet
  facet normal 0 0 1
    outer loop
      vertex -5.9053 3.67273 6
      vertex -3.67273 5.9053 6
      vertex -4.01909 6.15186 6
    endloop
  endfacet
  facet normal -0 0 1
    outer loop
      vertex -5.65918 -3.43886 6
      vertex -3.43886 -5.65918 6
      vertex -4.60104 -2.79587 6
    endloop
  endfacet
  facet normal 0 0 1
    outer loop
      vertex -6.15186 4.01909 6
      vertex -4.01909 6.15186 6
      vertex -4.55252 6.41597 6
    endloop
  endfacet
  facet normal 0 -0 1
    outer loop
      vertex -3.67273 -5.9053 6
      vertex -3.43886 -5.65918 6
      vertex -5.65918 -3.43886 6
    endloop
  endfacet
  facet normal 0 0 1
    outer loop
      vertex -3.43886 -5.65918 6
      vertex -3.67273 -5.9053 6
      vertex -3.49052 -5.72675 6
    endloop
  endfacet
  facet normal 0 0 1
    outer loop
      vertex -6.41597 4.55252 6
      vertex -4.55252 6.41597 6
      vertex -5.28357 6.64232 6
    endloop
  endfacet
  facet normal 0 0 1
    outer loop
      vertex -3.43886 5.65918 6
      vertex -5.65918 3.43886 6
      vertex -4.60104 2.79587 6
    endloop
  endfacet
  facet normal 0 0 1
    outer loop
      vertex -3.67273 5.9053 6
      vertex -5.9053 3.67273 6
      vertex -5.65918 3.43886 6
    endloop
  endfacet
  facet normal 0 0 1
    outer loop
      vertex -5.65918 3.43886 6
      vertex -5.9053 3.67273 6
      vertex -5.72675 3.49052 6
    endloop
  endfacet
  facet normal 0 0 1
    outer loop
      vertex -4.01909 6.15186 6
      vertex -6.15186 4.01909 6
      vertex -5.9053 3.67273 6
    endloop
  endfacet
  facet normal 0 0 1
    outer loop
      vertex -6.64232 5.28357 6
      vertex -5.28357 6.64232 6
      vertex -6.2097 6.77328 6
    endloop
  endfacet
  facet normal 0 0 1
    outer loop
      vertex -4.55252 6.41597 6
      vertex -6.41597 4.55252 6
      vertex -6.15186 4.01909 6
    endloop
  endfacet
  facet normal 0 0 1
    outer loop
      vertex -5.28357 6.64232 6
      vertex -6.64232 5.28357 6
      vertex -6.41597 4.55252 6
    endloop
  endfacet
  facet normal 0 -0 1
    outer loop
      vertex -6.64232 5.28357 6
      vertex -6.2097 6.77328 6
      vertex -6.77328 6.2097 6
    endloop
  endfacet
  facet normal 0 0 1
    outer loop
      vertex -5.23042 -1.27646 6
      vertex -2.97634 -0.375999 6
      vertex -5.23042 1.27646 6
    endloop
  endfacet
  facet normal 0 0 1
    outer loop
      vertex -2.78933 -1.10437 6
      vertex -5.23042 -1.27646 6
      vertex -4.60104 -2.79587 6
    endloop
  endfacet
  facet normal 0 0 1
    outer loop
      vertex -6.43329 1.57001 6
      vertex -5.23042 -1.27646 6
      vertex -5.23042 1.27646 6
    endloop
  endfacet
  facet normal 0 0 1
    outer loop
      vertex -6.43329 1.57001 6
      vertex -6.43329 -1.57001 6
      vertex -5.23042 -1.27646 6
    endloop
  endfacet
  facet normal -0 0 1
    outer loop
      vertex -6.77271 1.57867 6
      vertex -6.43329 1.57001 6
      vertex -6.51761 1.58125 6
    endloop
  endfacet
  facet normal 0 0 1
    outer loop
      vertex -6.43329 1.57001 6
      vertex -6.77271 1.57867 6
      vertex -6.43329 -1.57001 6
    endloop
  endfacet
  facet normal 0 0 1
    outer loop
      vertex -6.77271 -1.57867 6
      vertex -6.43329 -1.57001 6
      vertex -6.77271 1.57867 6
    endloop
  endfacet
  facet normal 0 0 1
    outer loop
      vertex -6.43329 -1.57001 6
      vertex -6.77271 -1.57867 6
      vertex -6.51761 -1.58125 6
    endloop
  endfacet
  facet normal -0 0 1
    outer loop
      vertex -7.19196 1.50809 6
      vertex -6.77271 -1.57867 6
      vertex -6.77271 1.57867 6
    endloop
  endfacet
  facet normal 0 0 1
    outer loop
      vertex -7.19196 1.50809 6
      vertex -7.19196 -1.50809 6
      vertex -6.77271 -1.57867 6
    endloop
  endfacet
  facet normal -0 0 1
    outer loop
      vertex -7.75591 1.31766 6
      vertex -7.19196 -1.50809 6
      vertex -7.19196 1.50809 6
    endloop
  endfacet
  facet normal 0 0 1
    outer loop
      vertex -7.75591 1.31766 6
      vertex -7.75591 -1.31766 6
      vertex -7.19196 -1.50809 6
    endloop
  endfacet
  facet normal -0 0 1
    outer loop
      vertex -8.43289 0.960785 6
      vertex -7.75591 -1.31766 6
      vertex -7.75591 1.31766 6
    endloop
  endfacet
  facet normal 0 0 1
    outer loop
      vertex -8.43289 0.960785 6
      vertex -8.43289 -0.960785 6
      vertex -7.75591 -1.31766 6
    endloop
  endfacet
  facet normal -0 0 1
    outer loop
      vertex -9.18036 0.398514 6
      vertex -8.43289 -0.960785 6
      vertex -8.43289 0.960785 6
    endloop
  endfacet
  facet normal 0 0 1
    outer loop
      vertex -8.43289 -0.960785 6
      vertex -9.18036 0.398514 6
      vertex -9.18036 -0.398514 6
    endloop
  endfacet
  facet normal -0 0 1
    outer loop
      vertex -5.9053 -3.67273 6
      vertex -3.67273 -5.9053 6
      vertex -5.65918 -3.43886 6
    endloop
  endfacet
  facet normal 0 0 1
    outer loop
      vertex -3.67273 -5.9053 6
      vertex -5.9053 -3.67273 6
      vertex -4.01909 -6.15186 6
    endloop
  endfacet
  facet normal -0 0 1
    outer loop
      vertex -6.15186 -4.01909 6
      vertex -4.01909 -6.15186 6
      vertex -5.9053 -3.67273 6
    endloop
  endfacet
  facet normal 0 0 1
    outer loop
      vertex -5.9053 -3.67273 6
      vertex -5.65918 -3.43886 6
      vertex -5.72675 -3.49052 6
    endloop
  endfacet
  facet normal 0 0 1
    outer loop
      vertex -4.01909 -6.15186 6
      vertex -6.15186 -4.01909 6
      vertex -4.55252 -6.41597 6
    endloop
  endfacet
  facet normal -0 0 1
    outer loop
      vertex -6.41597 -4.55252 6
      vertex -4.55252 -6.41597 6
      vertex -6.15186 -4.01909 6
    endloop
  endfacet
  facet normal 0 0 1
    outer loop
      vertex -4.55252 -6.41597 6
      vertex -6.41597 -4.55252 6
      vertex -5.28357 -6.64232 6
    endloop
  endfacet
  facet normal -0 0 1
    outer loop
      vertex -6.64232 -5.28357 6
      vertex -5.28357 -6.64232 6
      vertex -6.41597 -4.55252 6
    endloop
  endfacet
  facet normal 0 0 1
    outer loop
      vertex -5.28357 -6.64232 6
      vertex -6.64232 -5.28357 6
      vertex -6.2097 -6.77328 6
    endloop
  endfacet
  facet normal 0 0 1
    outer loop
      vertex -6.2097 -6.77328 6
      vertex -6.64232 -5.28357 6
      vertex -6.77328 -6.2097 6
    endloop
  endfacet
  facet normal 0 0 1
    outer loop
      vertex 1.31766 7.75591 6
      vertex -1.31766 7.75591 6
      vertex -1.50809 7.19196 6
    endloop
  endfacet
  facet normal 0 0 1
    outer loop
      vertex 1.57001 6.43329 6
      vertex -1.57867 6.77271 6
      vertex -1.57001 6.43329 6
    endloop
  endfacet
  facet normal 0 0 1
    outer loop
      vertex 1.27646 5.23042 6
      vertex -1.57001 6.43329 6
      vertex -1.27646 5.23042 6
    endloop
  endfacet
  facet normal 0 0 1
    outer loop
      vertex 1.57001 6.43329 6
      vertex -1.57001 6.43329 6
      vertex 1.27646 5.23042 6
    endloop
  endfacet
  facet normal 0 0 1
    outer loop
      vertex -1.57001 6.43329 6
      vertex -1.57867 6.77271 6
      vertex -1.58125 6.51761 6
    endloop
  endfacet
  facet normal 0 0 1
    outer loop
      vertex 1.57001 -6.43329 6
      vertex 1.57867 -6.77271 6
      vertex 1.58125 -6.51761 6
    endloop
  endfacet
  facet normal 0 0 1
    outer loop
      vertex 1.57001 -6.43329 6
      vertex 1.50809 -7.19196 6
      vertex 1.57867 -6.77271 6
    endloop
  endfacet
  facet normal 0 0 1
    outer loop
      vertex 1.57001 -6.43329 6
      vertex 1.31766 -7.75591 6
      vertex 1.50809 -7.19196 6
    endloop
  endfacet
  facet normal 0 0 1
    outer loop
      vertex 1.27646 -5.23042 6
      vertex 1.31766 -7.75591 6
      vertex 1.57001 -6.43329 6
    endloop
  endfacet
  facet normal 0 0 1
    outer loop
      vertex 1.31766 -7.75591 6
      vertex 1.27646 -5.23042 6
      vertex 0.960785 -8.43289 6
    endloop
  endfacet
  facet normal 0 0 1
    outer loop
      vertex 0.960785 -8.43289 6
      vertex -0.960785 -8.43289 6
      vertex 0.398514 -9.18036 6
    endloop
  endfacet
  facet normal -0 -0 1
    outer loop
      vertex -1.31766 -7.75591 6
      vertex 0.960785 -8.43289 6
      vertex -1.50809 -7.19196 6
    endloop
  endfacet
  facet normal 0 -0 1
    outer loop
      vertex -0.960785 -8.43289 6
      vertex 0.960785 -8.43289 6
      vertex -1.31766 -7.75591 6
    endloop
  endfacet
  facet normal 0 0 1
    outer loop
      vertex 1.27646 -5.23042 6
      vertex -1.50809 -7.19196 6
      vertex 0.960785 -8.43289 6
    endloop
  endfacet
  facet normal 0 -0 1
    outer loop
      vertex -1.57867 -6.77271 6
      vertex -1.57001 -6.43329 6
      vertex -1.58125 -6.51761 6
    endloop
  endfacet
  facet normal 0.884611 -0.466329 0
    outer loop
      vertex 0.960785 -8.43289 6
      vertex 1.31766 -7.75591 0
      vertex 1.31766 -7.75591 6
    endloop
  endfacet
  facet normal 0.884611 -0.466329 0
    outer loop
      vertex 1.31766 -7.75591 0
      vertex 0.960785 -8.43289 6
      vertex 0.960785 -8.43289 0
    endloop
  endfacet
  facet normal 0.947443 -0.319925 0
    outer loop
      vertex 1.31766 -7.75591 6
      vertex 1.50809 -7.19196 0
      vertex 1.50809 -7.19196 6
    endloop
  endfacet
  facet normal 0.947443 -0.319925 0
    outer loop
      vertex 1.50809 -7.19196 0
      vertex 1.31766 -7.75591 6
      vertex 1.31766 -7.75591 0
    endloop
  endfacet
  facet normal 0.986124 -0.166012 0
    outer loop
      vertex 1.50809 -7.19196 6
      vertex 1.57867 -6.77271 0
      vertex 1.57867 -6.77271 6
    endloop
  endfacet
  facet normal 0.986124 -0.166012 0
    outer loop
      vertex 1.57867 -6.77271 0
      vertex 1.50809 -7.19196 6
      vertex 1.50809 -7.19196 0
    endloop
  endfacet
  facet normal 0.999949 -0.0101132 0
    outer loop
      vertex 1.57867 -6.77271 6
      vertex 1.58125 -6.51761 0
      vertex 1.58125 -6.51761 6
    endloop
  endfacet
  facet normal 0.999949 -0.0101132 0
    outer loop
      vertex 1.58125 -6.51761 0
      vertex 1.57867 -6.77271 6
      vertex 1.57867 -6.77271 0
    endloop
  endfacet
  facet normal 0.991232 0.132133 0
    outer loop
      vertex 1.58125 -6.51761 6
      vertex 1.57001 -6.43329 0
      vertex 1.57001 -6.43329 6
    endloop
  endfacet
  facet normal 0.991232 0.132133 0
    outer loop
      vertex 1.57001 -6.43329 0
      vertex 1.58125 -6.51761 6
      vertex 1.58125 -6.51761 0
    endloop
  endfacet
  facet normal 0.971489 0.237084 0
    outer loop
      vertex 1.57001 -6.43329 6
      vertex 1.27646 -5.23042 0
      vertex 1.27646 -5.23042 6
    endloop
  endfacet
  facet normal 0.971489 0.237084 0
    outer loop
      vertex 1.27646 -5.23042 0
      vertex 1.57001 -6.43329 6
      vertex 1.57001 -6.43329 0
    endloop
  endfacet
  facet normal 0.382694 -0.923875 0
    outer loop
      vertex 1.27646 -5.23042 0
      vertex 2.79587 -4.60104 6
      vertex 1.27646 -5.23042 6
    endloop
  endfacet
  facet normal 0.382694 -0.923875 0
    outer loop
      vertex 2.79587 -4.60104 6
      vertex 1.27646 -5.23042 0
      vertex 2.79587 -4.60104 0
    endloop
  endfacet
  facet normal -0.854591 -0.519301 0
    outer loop
      vertex 3.43886 -5.65918 0
      vertex 2.79587 -4.60104 6
      vertex 2.79587 -4.60104 0
    endloop
  endfacet
  facet normal -0.854591 -0.519301 0
    outer loop
      vertex 2.79587 -4.60104 6
      vertex 3.43886 -5.65918 0
      vertex 3.43886 -5.65918 6
    endloop
  endfacet
  facet normal -0.794421 -0.607367 0
    outer loop
      vertex 3.49052 -5.72675 0
      vertex 3.43886 -5.65918 6
      vertex 3.43886 -5.65918 0
    endloop
  endfacet
  facet normal -0.794421 -0.607367 0
    outer loop
      vertex 3.43886 -5.65918 6
      vertex 3.49052 -5.72675 0
      vertex 3.49052 -5.72675 6
    endloop
  endfacet
  facet normal -0.699897 -0.714244 0
    outer loop
      vertex 3.49052 -5.72675 0
      vertex 3.67273 -5.9053 6
      vertex 3.49052 -5.72675 6
    endloop
  endfacet
  facet normal -0.699897 -0.714244 -0
    outer loop
      vertex 3.67273 -5.9053 6
      vertex 3.49052 -5.72675 0
      vertex 3.67273 -5.9053 0
    endloop
  endfacet
  facet normal -0.579929 -0.814667 0
    outer loop
      vertex 3.67273 -5.9053 0
      vertex 4.01909 -6.15186 6
      vertex 3.67273 -5.9053 6
    endloop
  endfacet
  facet normal -0.579929 -0.814667 -0
    outer loop
      vertex 4.01909 -6.15186 6
      vertex 3.67273 -5.9053 0
      vertex 4.01909 -6.15186 0
    endloop
  endfacet
  facet normal -0.443709 -0.896171 0
    outer loop
      vertex 4.01909 -6.15186 0
      vertex 4.55252 -6.41597 6
      vertex 4.01909 -6.15186 6
    endloop
  endfacet
  facet normal -0.443709 -0.896171 -0
    outer loop
      vertex 4.55252 -6.41597 6
      vertex 4.01909 -6.15186 0
      vertex 4.55252 -6.41597 0
    endloop
  endfacet
  facet normal -0.29577 -0.955259 0
    outer loop
      vertex 4.55252 -6.41597 0
      vertex 5.28357 -6.64232 6
      vertex 4.55252 -6.41597 6
    endloop
  endfacet
  facet normal -0.29577 -0.955259 -0
    outer loop
      vertex 5.28357 -6.64232 6
      vertex 4.55252 -6.41597 0
      vertex 5.28357 -6.64232 0
    endloop
  endfacet
  facet normal -0.140013 -0.99015 0
    outer loop
      vertex 5.28357 -6.64232 0
      vertex 6.2097 -6.77328 6
      vertex 5.28357 -6.64232 6
    endloop
  endfacet
  facet normal -0.140013 -0.99015 -0
    outer loop
      vertex 6.2097 -6.77328 6
      vertex 5.28357 -6.64232 0
      vertex 6.2097 -6.77328 0
    endloop
  endfacet
  facet normal 0.707107 -0.707107 0
    outer loop
      vertex 6.2097 -6.77328 6
      vertex 6.77328 -6.2097 0
      vertex 6.77328 -6.2097 6
    endloop
  endfacet
  facet normal 0.707107 -0.707107 0
    outer loop
      vertex 6.77328 -6.2097 0
      vertex 6.2097 -6.77328 6
      vertex 6.2097 -6.77328 0
    endloop
  endfacet
  facet normal 0.99015 0.140013 0
    outer loop
      vertex 6.77328 -6.2097 6
      vertex 6.64232 -5.28357 0
      vertex 6.64232 -5.28357 6
    endloop
  endfacet
  facet normal 0.99015 0.140013 0
    outer loop
      vertex 6.64232 -5.28357 0
      vertex 6.77328 -6.2097 6
      vertex 6.77328 -6.2097 0
    endloop
  endfacet
  facet normal 0.955259 0.29577 0
    outer loop
      vertex 6.64232 -5.28357 6
      vertex 6.41597 -4.55252 0
      vertex 6.41597 -4.55252 6
    endloop
  endfacet
  facet normal 0.955259 0.29577 0
    outer loop
      vertex 6.41597 -4.55252 0
      vertex 6.64232 -5.28357 6
      vertex 6.64232 -5.28357 0
    endloop
  endfacet
  facet normal 0.896171 0.443709 0
    outer loop
      vertex 6.41597 -4.55252 6
      vertex 6.15186 -4.01909 0
      vertex 6.15186 -4.01909 6
    endloop
  endfacet
  facet normal 0.896171 0.443709 0
    outer loop
      vertex 6.15186 -4.01909 0
      vertex 6.41597 -4.55252 6
      vertex 6.41597 -4.55252 0
    endloop
  endfacet
  facet normal 0.814667 0.579929 0
    outer loop
      vertex 6.15186 -4.01909 6
      vertex 5.9053 -3.67273 0
      vertex 5.9053 -3.67273 6
    endloop
  endfacet
  facet normal 0.814667 0.579929 0
    outer loop
      vertex 5.9053 -3.67273 0
      vertex 6.15186 -4.01909 6
      vertex 6.15186 -4.01909 0
    endloop
  endfacet
  facet normal 0.714244 0.699897 0
    outer loop
      vertex 5.9053 -3.67273 6
      vertex 5.72675 -3.49052 0
      vertex 5.72675 -3.49052 6
    endloop
  endfacet
  facet normal 0.714244 0.699897 0
    outer loop
      vertex 5.72675 -3.49052 0
      vertex 5.9053 -3.67273 6
      vertex 5.9053 -3.67273 0
    endloop
  endfacet
  facet normal 0.607367 0.794421 -0
    outer loop
      vertex 5.72675 -3.49052 0
      vertex 5.65918 -3.43886 6
      vertex 5.72675 -3.49052 6
    endloop
  endfacet
  facet normal 0.607367 0.794421 0
    outer loop
      vertex 5.65918 -3.43886 6
      vertex 5.72675 -3.49052 0
      vertex 5.65918 -3.43886 0
    endloop
  endfacet
  facet normal 0.519301 0.854591 -0
    outer loop
      vertex 5.65918 -3.43886 0
      vertex 4.60104 -2.79587 6
      vertex 5.65918 -3.43886 6
    endloop
  endfacet
  facet normal 0.519301 0.854591 0
    outer loop
      vertex 4.60104 -2.79587 6
      vertex 5.65918 -3.43886 0
      vertex 4.60104 -2.79587 0
    endloop
  endfacet
  facet normal 0.923875 -0.382694 0
    outer loop
      vertex 4.60104 -2.79587 6
      vertex 5.23042 -1.27646 0
      vertex 5.23042 -1.27646 6
    endloop
  endfacet
  facet normal 0.923875 -0.382694 0
    outer loop
      vertex 5.23042 -1.27646 0
      vertex 4.60104 -2.79587 6
      vertex 4.60104 -2.79587 0
    endloop
  endfacet
  facet normal -0.237084 -0.971489 0
    outer loop
      vertex 5.23042 -1.27646 0
      vertex 6.43329 -1.57001 6
      vertex 5.23042 -1.27646 6
    endloop
  endfacet
  facet normal -0.237084 -0.971489 -0
    outer loop
      vertex 6.43329 -1.57001 6
      vertex 5.23042 -1.27646 0
      vertex 6.43329 -1.57001 0
    endloop
  endfacet
  facet normal -0.132133 -0.991232 0
    outer loop
      vertex 6.43329 -1.57001 0
      vertex 6.51761 -1.58125 6
      vertex 6.43329 -1.57001 6
    endloop
  endfacet
  facet normal -0.132133 -0.991232 -0
    outer loop
      vertex 6.51761 -1.58125 6
      vertex 6.43329 -1.57001 0
      vertex 6.51761 -1.58125 0
    endloop
  endfacet
  facet normal 0.0101132 -0.999949 0
    outer loop
      vertex 6.51761 -1.58125 0
      vertex 6.77271 -1.57867 6
      vertex 6.51761 -1.58125 6
    endloop
  endfacet
  facet normal 0.0101132 -0.999949 0
    outer loop
      vertex 6.77271 -1.57867 6
      vertex 6.51761 -1.58125 0
      vertex 6.77271 -1.57867 0
    endloop
  endfacet
  facet normal 0.166012 -0.986124 0
    outer loop
      vertex 6.77271 -1.57867 0
      vertex 7.19196 -1.50809 6
      vertex 6.77271 -1.57867 6
    endloop
  endfacet
  facet normal 0.166012 -0.986124 0
    outer loop
      vertex 7.19196 -1.50809 6
      vertex 6.77271 -1.57867 0
      vertex 7.19196 -1.50809 0
    endloop
  endfacet
  facet normal 0.319925 -0.947443 0
    outer loop
      vertex 7.19196 -1.50809 0
      vertex 7.75591 -1.31766 6
      vertex 7.19196 -1.50809 6
    endloop
  endfacet
  facet normal 0.319925 -0.947443 0
    outer loop
      vertex 7.75591 -1.31766 6
      vertex 7.19196 -1.50809 0
      vertex 7.75591 -1.31766 0
    endloop
  endfacet
  facet normal 0.466329 -0.884611 0
    outer loop
      vertex 7.75591 -1.31766 0
      vertex 8.43289 -0.960785 6
      vertex 7.75591 -1.31766 6
    endloop
  endfacet
  facet normal 0.466329 -0.884611 0
    outer loop
      vertex 8.43289 -0.960785 6
      vertex 7.75591 -1.31766 0
      vertex 8.43289 -0.960785 0
    endloop
  endfacet
  facet normal 0.601141 -0.799143 0
    outer loop
      vertex 8.43289 -0.960785 0
      vertex 9.18036 -0.398514 6
      vertex 8.43289 -0.960785 6
    endloop
  endfacet
  facet normal 0.601141 -0.799143 0
    outer loop
      vertex 9.18036 -0.398514 6
      vertex 8.43289 -0.960785 0
      vertex 9.18036 -0.398514 0
    endloop
  endfacet
  facet normal 1 -0 0
    outer loop
      vertex 9.18036 -0.398514 6
      vertex 9.18036 0.398514 0
      vertex 9.18036 0.398514 6
    endloop
  endfacet
  facet normal 1 0 0
    outer loop
      vertex 9.18036 0.398514 0
      vertex 9.18036 -0.398514 6
      vertex 9.18036 -0.398514 0
    endloop
  endfacet
  facet normal 0.601141 0.799143 -0
    outer loop
      vertex 9.18036 0.398514 0
      vertex 8.43289 0.960785 6
      vertex 9.18036 0.398514 6
    endloop
  endfacet
  facet normal 0.601141 0.799143 0
    outer loop
      vertex 8.43289 0.960785 6
      vertex 9.18036 0.398514 0
      vertex 8.43289 0.960785 0
    endloop
  endfacet
  facet normal 0.466329 0.884611 -0
    outer loop
      vertex 8.43289 0.960785 0
      vertex 7.75591 1.31766 6
      vertex 8.43289 0.960785 6
    endloop
  endfacet
  facet normal 0.466329 0.884611 0
    outer loop
      vertex 7.75591 1.31766 6
      vertex 8.43289 0.960785 0
      vertex 7.75591 1.31766 0
    endloop
  endfacet
  facet normal 0.319925 0.947443 -0
    outer loop
      vertex 7.75591 1.31766 0
      vertex 7.19196 1.50809 6
      vertex 7.75591 1.31766 6
    endloop
  endfacet
  facet normal 0.319925 0.947443 0
    outer loop
      vertex 7.19196 1.50809 6
      vertex 7.75591 1.31766 0
      vertex 7.19196 1.50809 0
    endloop
  endfacet
  facet normal 0.166012 0.986124 -0
    outer loop
      vertex 7.19196 1.50809 0
      vertex 6.77271 1.57867 6
      vertex 7.19196 1.50809 6
    endloop
  endfacet
  facet normal 0.166012 0.986124 0
    outer loop
      vertex 6.77271 1.57867 6
      vertex 7.19196 1.50809 0
      vertex 6.77271 1.57867 0
    endloop
  endfacet
  facet normal 0.0101132 0.999949 -0
    outer loop
      vertex 6.77271 1.57867 0
      vertex 6.51761 1.58125 6
      vertex 6.77271 1.57867 6
    endloop
  endfacet
  facet normal 0.0101132 0.999949 0
    outer loop
      vertex 6.51761 1.58125 6
      vertex 6.77271 1.57867 0
      vertex 6.51761 1.58125 0
    endloop
  endfacet
  facet normal -0.132133 0.991232 0
    outer loop
      vertex 6.51761 1.58125 0
      vertex 6.43329 1.57001 6
      vertex 6.51761 1.58125 6
    endloop
  endfacet
  facet normal -0.132133 0.991232 0
    outer loop
      vertex 6.43329 1.57001 6
      vertex 6.51761 1.58125 0
      vertex 6.43329 1.57001 0
    endloop
  endfacet
  facet normal -0.237084 0.971489 0
    outer loop
      vertex 6.43329 1.57001 0
      vertex 5.23042 1.27646 6
      vertex 6.43329 1.57001 6
    endloop
  endfacet
  facet normal -0.237084 0.971489 0
    outer loop
      vertex 5.23042 1.27646 6
      vertex 6.43329 1.57001 0
      vertex 5.23042 1.27646 0
    endloop
  endfacet
  facet normal 0.923875 0.382694 0
    outer loop
      vertex 5.23042 1.27646 6
      vertex 4.60104 2.79587 0
      vertex 4.60104 2.79587 6
    endloop
  endfacet
  facet normal 0.923875 0.382694 0
    outer loop
      vertex 4.60104 2.79587 0
      vertex 5.23042 1.27646 6
      vertex 5.23042 1.27646 0
    endloop
  endfacet
  facet normal 0.519301 -0.854591 0
    outer loop
      vertex 4.60104 2.79587 0
      vertex 5.65918 3.43886 6
      vertex 4.60104 2.79587 6
    endloop
  endfacet
  facet normal 0.519301 -0.854591 0
    outer loop
      vertex 5.65918 3.43886 6
      vertex 4.60104 2.79587 0
      vertex 5.65918 3.43886 0
    endloop
  endfacet
  facet normal 0.607367 -0.794421 0
    outer loop
      vertex 5.65918 3.43886 0
      vertex 5.72675 3.49052 6
      vertex 5.65918 3.43886 6
    endloop
  endfacet
  facet normal 0.607367 -0.794421 0
    outer loop
      vertex 5.72675 3.49052 6
      vertex 5.65918 3.43886 0
      vertex 5.72675 3.49052 0
    endloop
  endfacet
  facet normal 0.714244 -0.699897 0
    outer loop
      vertex 5.72675 3.49052 6
      vertex 5.9053 3.67273 0
      vertex 5.9053 3.67273 6
    endloop
  endfacet
  facet normal 0.714244 -0.699897 0
    outer loop
      vertex 5.9053 3.67273 0
      vertex 5.72675 3.49052 6
      vertex 5.72675 3.49052 0
    endloop
  endfacet
  facet normal 0.814667 -0.579929 0
    outer loop
      vertex 5.9053 3.67273 6
      vertex 6.15186 4.01909 0
      vertex 6.15186 4.01909 6
    endloop
  endfacet
  facet normal 0.814667 -0.579929 0
    outer loop
      vertex 6.15186 4.01909 0
      vertex 5.9053 3.67273 6
      vertex 5.9053 3.67273 0
    endloop
  endfacet
  facet normal 0.896171 -0.443709 0
    outer loop
      vertex 6.15186 4.01909 6
      vertex 6.41597 4.55252 0
      vertex 6.41597 4.55252 6
    endloop
  endfacet
  facet normal 0.896171 -0.443709 0
    outer loop
      vertex 6.41597 4.55252 0
      vertex 6.15186 4.01909 6
      vertex 6.15186 4.01909 0
    endloop
  endfacet
  facet normal 0.955259 -0.29577 0
    outer loop
      vertex 6.41597 4.55252 6
      vertex 6.64232 5.28357 0
      vertex 6.64232 5.28357 6
    endloop
  endfacet
  facet normal 0.955259 -0.29577 0
    outer loop
      vertex 6.64232 5.28357 0
      vertex 6.41597 4.55252 6
      vertex 6.41597 4.55252 0
    endloop
  endfacet
  facet normal 0.99015 -0.140013 0
    outer loop
      vertex 6.64232 5.28357 6
      vertex 6.77328 6.2097 0
      vertex 6.77328 6.2097 6
    endloop
  endfacet
  facet normal 0.99015 -0.140013 0
    outer loop
      vertex 6.77328 6.2097 0
      vertex 6.64232 5.28357 6
      vertex 6.64232 5.28357 0
    endloop
  endfacet
  facet normal 0.707107 0.707107 0
    outer loop
      vertex 6.77328 6.2097 6
      vertex 6.2097 6.77328 0
      vertex 6.2097 6.77328 6
    endloop
  endfacet
  facet normal 0.707107 0.707107 0
    outer loop
      vertex 6.2097 6.77328 0
      vertex 6.77328 6.2097 6
      vertex 6.77328 6.2097 0
    endloop
  endfacet
  facet normal -0.140013 0.99015 0
    outer loop
      vertex 6.2097 6.77328 0
      vertex 5.28357 6.64232 6
      vertex 6.2097 6.77328 6
    endloop
  endfacet
  facet normal -0.140013 0.99015 0
    outer loop
      vertex 5.28357 6.64232 6
      vertex 6.2097 6.77328 0
      vertex 5.28357 6.64232 0
    endloop
  endfacet
  facet normal -0.29577 0.955259 0
    outer loop
      vertex 5.28357 6.64232 0
      vertex 4.55252 6.41597 6
      vertex 5.28357 6.64232 6
    endloop
  endfacet
  facet normal -0.29577 0.955259 0
    outer loop
      vertex 4.55252 6.41597 6
      vertex 5.28357 6.64232 0
      vertex 4.55252 6.41597 0
    endloop
  endfacet
  facet normal -0.443709 0.896171 0
    outer loop
      vertex 4.55252 6.41597 0
      vertex 4.01909 6.15186 6
      vertex 4.55252 6.41597 6
    endloop
  endfacet
  facet normal -0.443709 0.896171 0
    outer loop
      vertex 4.01909 6.15186 6
      vertex 4.55252 6.41597 0
      vertex 4.01909 6.15186 0
    endloop
  endfacet
  facet normal -0.579929 0.814667 0
    outer loop
      vertex 4.01909 6.15186 0
      vertex 3.67273 5.9053 6
      vertex 4.01909 6.15186 6
    endloop
  endfacet
  facet normal -0.579929 0.814667 0
    outer loop
      vertex 3.67273 5.9053 6
      vertex 4.01909 6.15186 0
      vertex 3.67273 5.9053 0
    endloop
  endfacet
  facet normal -0.699897 0.714244 0
    outer loop
      vertex 3.67273 5.9053 0
      vertex 3.49052 5.72675 6
      vertex 3.67273 5.9053 6
    endloop
  endfacet
  facet normal -0.699897 0.714244 0
    outer loop
      vertex 3.49052 5.72675 6
      vertex 3.67273 5.9053 0
      vertex 3.49052 5.72675 0
    endloop
  endfacet
  facet normal -0.794421 0.607367 0
    outer loop
      vertex 3.43886 5.65918 0
      vertex 3.49052 5.72675 6
      vertex 3.49052 5.72675 0
    endloop
  endfacet
  facet normal -0.794421 0.607367 0
    outer loop
      vertex 3.49052 5.72675 6
      vertex 3.43886 5.65918 0
      vertex 3.43886 5.65918 6
    endloop
  endfacet
  facet normal -0.854591 0.519301 0
    outer loop
      vertex 2.79587 4.60104 0
      vertex 3.43886 5.65918 6
      vertex 3.43886 5.65918 0
    endloop
  endfacet
  facet normal -0.854591 0.519301 0
    outer loop
      vertex 3.43886 5.65918 6
      vertex 2.79587 4.60104 0
      vertex 2.79587 4.60104 6
    endloop
  endfacet
  facet normal 0.382694 0.923875 -0
    outer loop
      vertex 2.79587 4.60104 0
      vertex 1.27646 5.23042 6
      vertex 2.79587 4.60104 6
    endloop
  endfacet
  facet normal 0.382694 0.923875 0
    outer loop
      vertex 1.27646 5.23042 6
      vertex 2.79587 4.60104 0
      vertex 1.27646 5.23042 0
    endloop
  endfacet
  facet normal 0.971489 -0.237084 0
    outer loop
      vertex 1.27646 5.23042 6
      vertex 1.57001 6.43329 0
      vertex 1.57001 6.43329 6
    endloop
  endfacet
  facet normal 0.971489 -0.237084 0
    outer loop
      vertex 1.57001 6.43329 0
      vertex 1.27646 5.23042 6
      vertex 1.27646 5.23042 0
    endloop
  endfacet
  facet normal 0.991232 -0.132133 0
    outer loop
      vertex 1.57001 6.43329 6
      vertex 1.58125 6.51761 0
      vertex 1.58125 6.51761 6
    endloop
  endfacet
  facet normal 0.991232 -0.132133 0
    outer loop
      vertex 1.58125 6.51761 0
      vertex 1.57001 6.43329 6
      vertex 1.57001 6.43329 0
    endloop
  endfacet
  facet normal 0.999949 0.0101132 0
    outer loop
      vertex 1.58125 6.51761 6
      vertex 1.57867 6.77271 0
      vertex 1.57867 6.77271 6
    endloop
  endfacet
  facet normal 0.999949 0.0101132 0
    outer loop
      vertex 1.57867 6.77271 0
      vertex 1.58125 6.51761 6
      vertex 1.58125 6.51761 0
    endloop
  endfacet
  facet normal 0.986124 0.166012 0
    outer loop
      vertex 1.57867 6.77271 6
      vertex 1.50809 7.19196 0
      vertex 1.50809 7.19196 6
    endloop
  endfacet
  facet normal 0.986124 0.166012 0
    outer loop
      vertex 1.50809 7.19196 0
      vertex 1.57867 6.77271 6
      vertex 1.57867 6.77271 0
    endloop
  endfacet
  facet normal 0.947443 0.319925 0
    outer loop
      vertex 1.50809 7.19196 6
      vertex 1.31766 7.75591 0
      vertex 1.31766 7.75591 6
    endloop
  endfacet
  facet normal 0.947443 0.319925 0
    outer loop
      vertex 1.31766 7.75591 0
      vertex 1.50809 7.19196 6
      vertex 1.50809 7.19196 0
    endloop
  endfacet
  facet normal 0.884611 0.466329 0
    outer loop
      vertex 1.31766 7.75591 6
      vertex 0.960785 8.43289 0
      vertex 0.960785 8.43289 6
    endloop
  endfacet
  facet normal 0.884611 0.466329 0
    outer loop
      vertex 0.960785 8.43289 0
      vertex 1.31766 7.75591 6
      vertex 1.31766 7.75591 0
    endloop
  endfacet
  facet normal 0.799143 0.601141 0
    outer loop
      vertex 0.960785 8.43289 6
      vertex 0.398514 9.18036 0
      vertex 0.398514 9.18036 6
    endloop
  endfacet
  facet normal 0.799143 0.601141 0
    outer loop
      vertex 0.398514 9.18036 0
      vertex 0.960785 8.43289 6
      vertex 0.960785 8.43289 0
    endloop
  endfacet
  facet normal 0 1 -0
    outer loop
      vertex 0.398514 9.18036 0
      vertex -0.398514 9.18036 6
      vertex 0.398514 9.18036 6
    endloop
  endfacet
  facet normal 0 1 0
    outer loop
      vertex -0.398514 9.18036 6
      vertex 0.398514 9.18036 0
      vertex -0.398514 9.18036 0
    endloop
  endfacet
  facet normal -0.799143 0.601141 0
    outer loop
      vertex -0.960785 8.43289 0
      vertex -0.398514 9.18036 6
      vertex -0.398514 9.18036 0
    endloop
  endfacet
  facet normal -0.799143 0.601141 0
    outer loop
      vertex -0.398514 9.18036 6
      vertex -0.960785 8.43289 0
      vertex -0.960785 8.43289 6
    endloop
  endfacet
  facet normal -0.884611 0.466329 0
    outer loop
      vertex -1.31766 7.75591 0
      vertex -0.960785 8.43289 6
      vertex -0.960785 8.43289 0
    endloop
  endfacet
  facet normal -0.884611 0.466329 0
    outer loop
      vertex -0.960785 8.43289 6
      vertex -1.31766 7.75591 0
      vertex -1.31766 7.75591 6
    endloop
  endfacet
  facet normal -0.947443 0.319925 0
    outer loop
      vertex -1.50809 7.19196 0
      vertex -1.31766 7.75591 6
      vertex -1.31766 7.75591 0
    endloop
  endfacet
  facet normal -0.947443 0.319925 0
    outer loop
      vertex -1.31766 7.75591 6
      vertex -1.50809 7.19196 0
      vertex -1.50809 7.19196 6
    endloop
  endfacet
  facet normal -0.986124 0.166012 0
    outer loop
      vertex -1.57867 6.77271 0
      vertex -1.50809 7.19196 6
      vertex -1.50809 7.19196 0
    endloop
  endfacet
  facet normal -0.986124 0.166012 0
    outer loop
      vertex -1.50809 7.19196 6
      vertex -1.57867 6.77271 0
      vertex -1.57867 6.77271 6
    endloop
  endfacet
  facet normal -0.999949 0.0101132 0
    outer loop
      vertex -1.58125 6.51761 0
      vertex -1.57867 6.77271 6
      vertex -1.57867 6.77271 0
    endloop
  endfacet
  facet normal -0.999949 0.0101132 0
    outer loop
      vertex -1.57867 6.77271 6
      vertex -1.58125 6.51761 0
      vertex -1.58125 6.51761 6
    endloop
  endfacet
  facet normal -0.991232 -0.132133 0
    outer loop
      vertex -1.57001 6.43329 0
      vertex -1.58125 6.51761 6
      vertex -1.58125 6.51761 0
    endloop
  endfacet
  facet normal -0.991232 -0.132133 0
    outer loop
      vertex -1.58125 6.51761 6
      vertex -1.57001 6.43329 0
      vertex -1.57001 6.43329 6
    endloop
  endfacet
  facet normal -0.971489 -0.237084 0
    outer loop
      vertex -1.27646 5.23042 0
      vertex -1.57001 6.43329 6
      vertex -1.57001 6.43329 0
    endloop
  endfacet
  facet normal -0.971489 -0.237084 0
    outer loop
      vertex -1.57001 6.43329 6
      vertex -1.27646 5.23042 0
      vertex -1.27646 5.23042 6
    endloop
  endfacet
  facet normal -0.382694 0.923875 0
    outer loop
      vertex -1.27646 5.23042 0
      vertex -2.79587 4.60104 6
      vertex -1.27646 5.23042 6
    endloop
  endfacet
  facet normal -0.382694 0.923875 0
    outer loop
      vertex -2.79587 4.60104 6
      vertex -1.27646 5.23042 0
      vertex -2.79587 4.60104 0
    endloop
  endfacet
  facet normal 0.854591 0.519301 0
    outer loop
      vertex -2.79587 4.60104 6
      vertex -3.43886 5.65918 0
      vertex -3.43886 5.65918 6
    endloop
  endfacet
  facet normal 0.854591 0.519301 0
    outer loop
      vertex -3.43886 5.65918 0
      vertex -2.79587 4.60104 6
      vertex -2.79587 4.60104 0
    endloop
  endfacet
  facet normal 0.794421 0.607367 0
    outer loop
      vertex -3.43886 5.65918 6
      vertex -3.49052 5.72675 0
      vertex -3.49052 5.72675 6
    endloop
  endfacet
  facet normal 0.794421 0.607367 0
    outer loop
      vertex -3.49052 5.72675 0
      vertex -3.43886 5.65918 6
      vertex -3.43886 5.65918 0
    endloop
  endfacet
  facet normal 0.699897 0.714244 -0
    outer loop
      vertex -3.49052 5.72675 0
      vertex -3.67273 5.9053 6
      vertex -3.49052 5.72675 6
    endloop
  endfacet
  facet normal 0.699897 0.714244 0
    outer loop
      vertex -3.67273 5.9053 6
      vertex -3.49052 5.72675 0
      vertex -3.67273 5.9053 0
    endloop
  endfacet
  facet normal 0.579929 0.814667 -0
    outer loop
      vertex -3.67273 5.9053 0
      vertex -4.01909 6.15186 6
      vertex -3.67273 5.9053 6
    endloop
  endfacet
  facet normal 0.579929 0.814667 0
    outer loop
      vertex -4.01909 6.15186 6
      vertex -3.67273 5.9053 0
      vertex -4.01909 6.15186 0
    endloop
  endfacet
  facet normal 0.443709 0.896171 -0
    outer loop
      vertex -4.01909 6.15186 0
      vertex -4.55252 6.41597 6
      vertex -4.01909 6.15186 6
    endloop
  endfacet
  facet normal 0.443709 0.896171 0
    outer loop
      vertex -4.55252 6.41597 6
      vertex -4.01909 6.15186 0
      vertex -4.55252 6.41597 0
    endloop
  endfacet
  facet normal 0.29577 0.955259 -0
    outer loop
      vertex -4.55252 6.41597 0
      vertex -5.28357 6.64232 6
      vertex -4.55252 6.41597 6
    endloop
  endfacet
  facet normal 0.29577 0.955259 0
    outer loop
      vertex -5.28357 6.64232 6
      vertex -4.55252 6.41597 0
      vertex -5.28357 6.64232 0
    endloop
  endfacet
  facet normal 0.140013 0.99015 -0
    outer loop
      vertex -5.28357 6.64232 0
      vertex -6.2097 6.77328 6
      vertex -5.28357 6.64232 6
    endloop
  endfacet
  facet normal 0.140013 0.99015 0
    outer loop
      vertex -6.2097 6.77328 6
      vertex -5.28357 6.64232 0
      vertex -6.2097 6.77328 0
    endloop
  endfacet
  facet normal -0.707107 0.707107 0
    outer loop
      vertex -6.77328 6.2097 0
      vertex -6.2097 6.77328 6
      vertex -6.2097 6.77328 0
    endloop
  endfacet
  facet normal -0.707107 0.707107 0
    outer loop
      vertex -6.2097 6.77328 6
      vertex -6.77328 6.2097 0
      vertex -6.77328 6.2097 6
    endloop
  endfacet
  facet normal -0.99015 -0.140013 0
    outer loop
      vertex -6.64232 5.28357 0
      vertex -6.77328 6.2097 6
      vertex -6.77328 6.2097 0
    endloop
  endfacet
  facet normal -0.99015 -0.140013 0
    outer loop
      vertex -6.77328 6.2097 6
      vertex -6.64232 5.28357 0
      vertex -6.64232 5.28357 6
    endloop
  endfacet
  facet normal -0.955259 -0.29577 0
    outer loop
      vertex -6.41597 4.55252 0
      vertex -6.64232 5.28357 6
      vertex -6.64232 5.28357 0
    endloop
  endfacet
  facet normal -0.955259 -0.29577 0
    outer loop
      vertex -6.64232 5.28357 6
      vertex -6.41597 4.55252 0
      vertex -6.41597 4.55252 6
    endloop
  endfacet
  facet normal -0.896171 -0.443709 0
    outer loop
      vertex -6.15186 4.01909 0
      vertex -6.41597 4.55252 6
      vertex -6.41597 4.55252 0
    endloop
  endfacet
  facet normal -0.896171 -0.443709 0
    outer loop
      vertex -6.41597 4.55252 6
      vertex -6.15186 4.01909 0
      vertex -6.15186 4.01909 6
    endloop
  endfacet
  facet normal -0.814667 -0.579929 0
    outer loop
      vertex -5.9053 3.67273 0
      vertex -6.15186 4.01909 6
      vertex -6.15186 4.01909 0
    endloop
  endfacet
  facet normal -0.814667 -0.579929 0
    outer loop
      vertex -6.15186 4.01909 6
      vertex -5.9053 3.67273 0
      vertex -5.9053 3.67273 6
    endloop
  endfacet
  facet normal -0.714244 -0.699897 0
    outer loop
      vertex -5.72675 3.49052 0
      vertex -5.9053 3.67273 6
      vertex -5.9053 3.67273 0
    endloop
  endfacet
  facet normal -0.714244 -0.699897 0
    outer loop
      vertex -5.9053 3.67273 6
      vertex -5.72675 3.49052 0
      vertex -5.72675 3.49052 6
    endloop
  endfacet
  facet normal -0.607367 -0.794421 0
    outer loop
      vertex -5.72675 3.49052 0
      vertex -5.65918 3.43886 6
      vertex -5.72675 3.49052 6
    endloop
  endfacet
  facet normal -0.607367 -0.794421 -0
    outer loop
      vertex -5.65918 3.43886 6
      vertex -5.72675 3.49052 0
      vertex -5.65918 3.43886 0
    endloop
  endfacet
  facet normal -0.519301 -0.854591 0
    outer loop
      vertex -5.65918 3.43886 0
      vertex -4.60104 2.79587 6
      vertex -5.65918 3.43886 6
    endloop
  endfacet
  facet normal -0.519301 -0.854591 -0
    outer loop
      vertex -4.60104 2.79587 6
      vertex -5.65918 3.43886 0
      vertex -4.60104 2.79587 0
    endloop
  endfacet
  facet normal -0.923875 0.382694 0
    outer loop
      vertex -5.23042 1.27646 0
      vertex -4.60104 2.79587 6
      vertex -4.60104 2.79587 0
    endloop
  endfacet
  facet normal -0.923875 0.382694 0
    outer loop
      vertex -4.60104 2.79587 6
      vertex -5.23042 1.27646 0
      vertex -5.23042 1.27646 6
    endloop
  endfacet
  facet normal 0.237084 0.971489 -0
    outer loop
      vertex -5.23042 1.27646 0
      vertex -6.43329 1.57001 6
      vertex -5.23042 1.27646 6
    endloop
  endfacet
  facet normal 0.237084 0.971489 0
    outer loop
      vertex -6.43329 1.57001 6
      vertex -5.23042 1.27646 0
      vertex -6.43329 1.57001 0
    endloop
  endfacet
  facet normal 0.132133 0.991232 -0
    outer loop
      vertex -6.43329 1.57001 0
      vertex -6.51761 1.58125 6
      vertex -6.43329 1.57001 6
    endloop
  endfacet
  facet normal 0.132133 0.991232 0
    outer loop
      vertex -6.51761 1.58125 6
      vertex -6.43329 1.57001 0
      vertex -6.51761 1.58125 0
    endloop
  endfacet
  facet normal -0.0101132 0.999949 0
    outer loop
      vertex -6.51761 1.58125 0
      vertex -6.77271 1.57867 6
      vertex -6.51761 1.58125 6
    endloop
  endfacet
  facet normal -0.0101132 0.999949 0
    outer loop
      vertex -6.77271 1.57867 6
      vertex -6.51761 1.58125 0
      vertex -6.77271 1.57867 0
    endloop
  endfacet
  facet normal -0.166012 0.986124 0
    outer loop
      vertex -6.77271 1.57867 0
      vertex -7.19196 1.50809 6
      vertex -6.77271 1.57867 6
    endloop
  endfacet
  facet normal -0.166012 0.986124 0
    outer loop
      vertex -7.19196 1.50809 6
      vertex -6.77271 1.57867 0
      vertex -7.19196 1.50809 0
    endloop
  endfacet
  facet normal -0.319925 0.947443 0
    outer loop
      vertex -7.19196 1.50809 0
      vertex -7.75591 1.31766 6
      vertex -7.19196 1.50809 6
    endloop
  endfacet
  facet normal -0.319925 0.947443 0
    outer loop
      vertex -7.75591 1.31766 6
      vertex -7.19196 1.50809 0
      vertex -7.75591 1.31766 0
    endloop
  endfacet
  facet normal -0.466329 0.884611 0
    outer loop
      vertex -7.75591 1.31766 0
      vertex -8.43289 0.960785 6
      vertex -7.75591 1.31766 6
    endloop
  endfacet
  facet normal -0.466329 0.884611 0
    outer loop
      vertex -8.43289 0.960785 6
      vertex -7.75591 1.31766 0
      vertex -8.43289 0.960785 0
    endloop
  endfacet
  facet normal -0.601141 0.799143 0
    outer loop
      vertex -8.43289 0.960785 0
      vertex -9.18036 0.398514 6
      vertex -8.43289 0.960785 6
    endloop
  endfacet
  facet normal -0.601141 0.799143 0
    outer loop
      vertex -9.18036 0.398514 6
      vertex -8.43289 0.960785 0
      vertex -9.18036 0.398514 0
    endloop
  endfacet
  facet normal -1 0 0
    outer loop
      vertex -9.18036 -0.398514 0
      vertex -9.18036 0.398514 6
      vertex -9.18036 0.398514 0
    endloop
  endfacet
  facet normal -1 -0 0
    outer loop
      vertex -9.18036 0.398514 6
      vertex -9.18036 -0.398514 0
      vertex -9.18036 -0.398514 6
    endloop
  endfacet
  facet normal -0.601141 -0.799143 0
    outer loop
      vertex -9.18036 -0.398514 0
      vertex -8.43289 -0.960785 6
      vertex -9.18036 -0.398514 6
    endloop
  endfacet
  facet normal -0.601141 -0.799143 -0
    outer loop
      vertex -8.43289 -0.960785 6
      vertex -9.18036 -0.398514 0
      vertex -8.43289 -0.960785 0
    endloop
  endfacet
  facet normal -0.466329 -0.884611 0
    outer loop
      vertex -8.43289 -0.960785 0
      vertex -7.75591 -1.31766 6
      vertex -8.43289 -0.960785 6
    endloop
  endfacet
  facet normal -0.466329 -0.884611 -0
    outer loop
      vertex -7.75591 -1.31766 6
      vertex -8.43289 -0.960785 0
      vertex -7.75591 -1.31766 0
    endloop
  endfacet
  facet normal -0.319925 -0.947443 0
    outer loop
      vertex -7.75591 -1.31766 0
      vertex -7.19196 -1.50809 6
      vertex -7.75591 -1.31766 6
    endloop
  endfacet
  facet normal -0.319925 -0.947443 -0
    outer loop
      vertex -7.19196 -1.50809 6
      vertex -7.75591 -1.31766 0
      vertex -7.19196 -1.50809 0
    endloop
  endfacet
  facet normal -0.166012 -0.986124 0
    outer loop
      vertex -7.19196 -1.50809 0
      vertex -6.77271 -1.57867 6
      vertex -7.19196 -1.50809 6
    endloop
  endfacet
  facet normal -0.166012 -0.986124 -0
    outer loop
      vertex -6.77271 -1.57867 6
      vertex -7.19196 -1.50809 0
      vertex -6.77271 -1.57867 0
    endloop
  endfacet
  facet normal -0.0101132 -0.999949 0
    outer loop
      vertex -6.77271 -1.57867 0
      vertex -6.51761 -1.58125 6
      vertex -6.77271 -1.57867 6
    endloop
  endfacet
  facet normal -0.0101132 -0.999949 -0
    outer loop
      vertex -6.51761 -1.58125 6
      vertex -6.77271 -1.57867 0
      vertex -6.51761 -1.58125 0
    endloop
  endfacet
  facet normal 0.132133 -0.991232 0
    outer loop
      vertex -6.51761 -1.58125 0
      vertex -6.43329 -1.57001 6
      vertex -6.51761 -1.58125 6
    endloop
  endfacet
  facet normal 0.132133 -0.991232 0
    outer loop
      vertex -6.43329 -1.57001 6
      vertex -6.51761 -1.58125 0
      vertex -6.43329 -1.57001 0
    endloop
  endfacet
  facet normal 0.237084 -0.971489 0
    outer loop
      vertex -6.43329 -1.57001 0
      vertex -5.23042 -1.27646 6
      vertex -6.43329 -1.57001 6
    endloop
  endfacet
  facet normal 0.237084 -0.971489 0
    outer loop
      vertex -5.23042 -1.27646 6
      vertex -6.43329 -1.57001 0
      vertex -5.23042 -1.27646 0
    endloop
  endfacet
  facet normal -0.923875 -0.382694 0
    outer loop
      vertex -4.60104 -2.79587 0
      vertex -5.23042 -1.27646 6
      vertex -5.23042 -1.27646 0
    endloop
  endfacet
  facet normal -0.923875 -0.382694 0
    outer loop
      vertex -5.23042 -1.27646 6
      vertex -4.60104 -2.79587 0
      vertex -4.60104 -2.79587 6
    endloop
  endfacet
  facet normal -0.519301 0.854591 0
    outer loop
      vertex -4.60104 -2.79587 0
      vertex -5.65918 -3.43886 6
      vertex -4.60104 -2.79587 6
    endloop
  endfacet
  facet normal -0.519301 0.854591 0
    outer loop
      vertex -5.65918 -3.43886 6
      vertex -4.60104 -2.79587 0
      vertex -5.65918 -3.43886 0
    endloop
  endfacet
  facet normal -0.607367 0.794421 0
    outer loop
      vertex -5.65918 -3.43886 0
      vertex -5.72675 -3.49052 6
      vertex -5.65918 -3.43886 6
    endloop
  endfacet
  facet normal -0.607367 0.794421 0
    outer loop
      vertex -5.72675 -3.49052 6
      vertex -5.65918 -3.43886 0
      vertex -5.72675 -3.49052 0
    endloop
  endfacet
  facet normal -0.714244 0.699897 0
    outer loop
      vertex -5.9053 -3.67273 0
      vertex -5.72675 -3.49052 6
      vertex -5.72675 -3.49052 0
    endloop
  endfacet
  facet normal -0.714244 0.699897 0
    outer loop
      vertex -5.72675 -3.49052 6
      vertex -5.9053 -3.67273 0
      vertex -5.9053 -3.67273 6
    endloop
  endfacet
  facet normal -0.814667 0.579929 0
    outer loop
      vertex -6.15186 -4.01909 0
      vertex -5.9053 -3.67273 6
      vertex -5.9053 -3.67273 0
    endloop
  endfacet
  facet normal -0.814667 0.579929 0
    outer loop
      vertex -5.9053 -3.67273 6
      vertex -6.15186 -4.01909 0
      vertex -6.15186 -4.01909 6
    endloop
  endfacet
  facet normal -0.896171 0.443709 0
    outer loop
      vertex -6.41597 -4.55252 0
      vertex -6.15186 -4.01909 6
      vertex -6.15186 -4.01909 0
    endloop
  endfacet
  facet normal -0.896171 0.443709 0
    outer loop
      vertex -6.15186 -4.01909 6
      vertex -6.41597 -4.55252 0
      vertex -6.41597 -4.55252 6
    endloop
  endfacet
  facet normal -0.955259 0.29577 0
    outer loop
      vertex -6.64232 -5.28357 0
      vertex -6.41597 -4.55252 6
      vertex -6.41597 -4.55252 0
    endloop
  endfacet
  facet normal -0.955259 0.29577 0
    outer loop
      vertex -6.41597 -4.55252 6
      vertex -6.64232 -5.28357 0
      vertex -6.64232 -5.28357 6
    endloop
  endfacet
  facet normal -0.99015 0.140013 0
    outer loop
      vertex -6.77328 -6.2097 0
      vertex -6.64232 -5.28357 6
      vertex -6.64232 -5.28357 0
    endloop
  endfacet
  facet normal -0.99015 0.140013 0
    outer loop
      vertex -6.64232 -5.28357 6
      vertex -6.77328 -6.2097 0
      vertex -6.77328 -6.2097 6
    endloop
  endfacet
  facet normal -0.707107 -0.707107 0
    outer loop
      vertex -6.2097 -6.77328 0
      vertex -6.77328 -6.2097 6
      vertex -6.77328 -6.2097 0
    endloop
  endfacet
  facet normal -0.707107 -0.707107 0
    outer loop
      vertex -6.77328 -6.2097 6
      vertex -6.2097 -6.77328 0
      vertex -6.2097 -6.77328 6
    endloop
  endfacet
  facet normal 0.140013 -0.99015 0
    outer loop
      vertex -6.2097 -6.77328 0
      vertex -5.28357 -6.64232 6
      vertex -6.2097 -6.77328 6
    endloop
  endfacet
  facet normal 0.140013 -0.99015 0
    outer loop
      vertex -5.28357 -6.64232 6
      vertex -6.2097 -6.77328 0
      vertex -5.28357 -6.64232 0
    endloop
  endfacet
  facet normal 0.29577 -0.955259 0
    outer loop
      vertex -5.28357 -6.64232 0
      vertex -4.55252 -6.41597 6
      vertex -5.28357 -6.64232 6
    endloop
  endfacet
  facet normal 0.29577 -0.955259 0
    outer loop
      vertex -4.55252 -6.41597 6
      vertex -5.28357 -6.64232 0
      vertex -4.55252 -6.41597 0
    endloop
  endfacet
  facet normal 0.443709 -0.896171 0
    outer loop
      vertex -4.55252 -6.41597 0
      vertex -4.01909 -6.15186 6
      vertex -4.55252 -6.41597 6
    endloop
  endfacet
  facet normal 0.443709 -0.896171 0
    outer loop
      vertex -4.01909 -6.15186 6
      vertex -4.55252 -6.41597 0
      vertex -4.01909 -6.15186 0
    endloop
  endfacet
  facet normal 0.579929 -0.814667 0
    outer loop
      vertex -4.01909 -6.15186 0
      vertex -3.67273 -5.9053 6
      vertex -4.01909 -6.15186 6
    endloop
  endfacet
  facet normal 0.579929 -0.814667 0
    outer loop
      vertex -3.67273 -5.9053 6
      vertex -4.01909 -6.15186 0
      vertex -3.67273 -5.9053 0
    endloop
  endfacet
  facet normal 0.699897 -0.714244 0
    outer loop
      vertex -3.67273 -5.9053 0
      vertex -3.49052 -5.72675 6
      vertex -3.67273 -5.9053 6
    endloop
  endfacet
  facet normal 0.699897 -0.714244 0
    outer loop
      vertex -3.49052 -5.72675 6
      vertex -3.67273 -5.9053 0
      vertex -3.49052 -5.72675 0
    endloop
  endfacet
  facet normal 0.794421 -0.607367 0
    outer loop
      vertex -3.49052 -5.72675 6
      vertex -3.43886 -5.65918 0
      vertex -3.43886 -5.65918 6
    endloop
  endfacet
  facet normal 0.794421 -0.607367 0
    outer loop
      vertex -3.43886 -5.65918 0
      vertex -3.49052 -5.72675 6
      vertex -3.49052 -5.72675 0
    endloop
  endfacet
  facet normal 0.854591 -0.519301 0
    outer loop
      vertex -3.43886 -5.65918 6
      vertex -2.79587 -4.60104 0
      vertex -2.79587 -4.60104 6
    endloop
  endfacet
  facet normal 0.854591 -0.519301 0
    outer loop
      vertex -2.79587 -4.60104 0
      vertex -3.43886 -5.65918 6
      vertex -3.43886 -5.65918 0
    endloop
  endfacet
  facet normal -0.382694 -0.923875 0
    outer loop
      vertex -2.79587 -4.60104 0
      vertex -1.27646 -5.23042 6
      vertex -2.79587 -4.60104 6
    endloop
  endfacet
  facet normal -0.382694 -0.923875 -0
    outer loop
      vertex -1.27646 -5.23042 6
      vertex -2.79587 -4.60104 0
      vertex -1.27646 -5.23042 0
    endloop
  endfacet
  facet normal -0.971489 0.237084 0
    outer loop
      vertex -1.57001 -6.43329 0
      vertex -1.27646 -5.23042 6
      vertex -1.27646 -5.23042 0
    endloop
  endfacet
  facet normal -0.971489 0.237084 0
    outer loop
      vertex -1.27646 -5.23042 6
      vertex -1.57001 -6.43329 0
      vertex -1.57001 -6.43329 6
    endloop
  endfacet
  facet normal -0.991232 0.132133 0
    outer loop
      vertex -1.58125 -6.51761 0
      vertex -1.57001 -6.43329 6
      vertex -1.57001 -6.43329 0
    endloop
  endfacet
  facet normal -0.991232 0.132133 0
    outer loop
      vertex -1.57001 -6.43329 6
      vertex -1.58125 -6.51761 0
      vertex -1.58125 -6.51761 6
    endloop
  endfacet
  facet normal -0.999949 -0.0101132 0
    outer loop
      vertex -1.57867 -6.77271 0
      vertex -1.58125 -6.51761 6
      vertex -1.58125 -6.51761 0
    endloop
  endfacet
  facet normal -0.999949 -0.0101132 0
    outer loop
      vertex -1.58125 -6.51761 6
      vertex -1.57867 -6.77271 0
      vertex -1.57867 -6.77271 6
    endloop
  endfacet
  facet normal -0.986124 -0.166012 0
    outer loop
      vertex -1.50809 -7.19196 0
      vertex -1.57867 -6.77271 6
      vertex -1.57867 -6.77271 0
    endloop
  endfacet
  facet normal -0.986124 -0.166012 0
    outer loop
      vertex -1.57867 -6.77271 6
      vertex -1.50809 -7.19196 0
      vertex -1.50809 -7.19196 6
    endloop
  endfacet
  facet normal -0.947443 -0.319925 0
    outer loop
      vertex -1.31766 -7.75591 0
      vertex -1.50809 -7.19196 6
      vertex -1.50809 -7.19196 0
    endloop
  endfacet
  facet normal -0.947443 -0.319925 0
    outer loop
      vertex -1.50809 -7.19196 6
      vertex -1.31766 -7.75591 0
      vertex -1.31766 -7.75591 6
    endloop
  endfacet
  facet normal -0.884611 -0.466329 0
    outer loop
      vertex -0.960785 -8.43289 0
      vertex -1.31766 -7.75591 6
      vertex -1.31766 -7.75591 0
    endloop
  endfacet
  facet normal -0.884611 -0.466329 0
    outer loop
      vertex -1.31766 -7.75591 6
      vertex -0.960785 -8.43289 0
      vertex -0.960785 -8.43289 6
    endloop
  endfacet
  facet normal -0.799143 -0.601141 0
    outer loop
      vertex -0.398514 -9.18036 0
      vertex -0.960785 -8.43289 6
      vertex -0.960785 -8.43289 0
    endloop
  endfacet
  facet normal -0.799143 -0.601141 0
    outer loop
      vertex -0.960785 -8.43289 6
      vertex -0.398514 -9.18036 0
      vertex -0.398514 -9.18036 6
    endloop
  endfacet
  facet normal 0 -1 0
    outer loop
      vertex -0.398514 -9.18036 0
      vertex 0.398514 -9.18036 6
      vertex -0.398514 -9.18036 6
    endloop
  endfacet
  facet normal 0 -1 -0
    outer loop
      vertex 0.398514 -9.18036 6
      vertex -0.398514 -9.18036 0
      vertex 0.398514 -9.18036 0
    endloop
  endfacet
  facet normal 0.799143 -0.601141 0
    outer loop
      vertex 0.398514 -9.18036 6
      vertex 0.960785 -8.43289 0
      vertex 0.960785 -8.43289 6
    endloop
  endfacet
  facet normal 0.799143 -0.601141 0
    outer loop
      vertex 0.960785 -8.43289 0
      vertex 0.398514 -9.18036 6
      vertex 0.398514 -9.18036 0
    endloop
  endfacet
  facet normal -0.992115 0.125333 0
    outer loop
      vertex 2.90575 -0.746069 0
      vertex 3 0 6
      vertex 3 0 0
    endloop
  endfacet
  facet normal -0.992115 0.125333 0
    outer loop
      vertex 3 0 6
      vertex 2.90575 -0.746069 0
      vertex 2.90575 -0.746069 6
    endloop
  endfacet
  facet normal -0.992115 -0.125333 0
    outer loop
      vertex 3 0 0
      vertex 2.90575 0.746069 6
      vertex 2.90575 0.746069 0
    endloop
  endfacet
  facet normal -0.992115 -0.125333 0
    outer loop
      vertex 2.90575 0.746069 6
      vertex 3 0 0
      vertex 3 0 6
    endloop
  endfacet
  facet normal 0.0627927 -0.998027 0
    outer loop
      vertex -0.562143 2.94686 0
      vertex 0.188371 2.99408 6
      vertex -0.562143 2.94686 6
    endloop
  endfacet
  facet normal 0.0627927 -0.998027 0
    outer loop
      vertex 0.188371 2.99408 6
      vertex -0.562143 2.94686 0
      vertex 0.188371 2.99408 0
    endloop
  endfacet
  facet normal 0.728965 0.68455 0
    outer loop
      vertex -1.91227 -2.31154 6
      vertex -2.42705 -1.76336 0
      vertex -2.42705 -1.76336 6
    endloop
  endfacet
  facet normal 0.728965 0.68455 0
    outer loop
      vertex -2.42705 -1.76336 0
      vertex -1.91227 -2.31154 6
      vertex -1.91227 -2.31154 0
    endloop
  endfacet
  facet normal 1 -0 0
    outer loop
      vertex -2.97634 -0.375999 6
      vertex -2.97634 0.375999 0
      vertex -2.97634 0.375999 6
    endloop
  endfacet
  facet normal 1 0 0
    outer loop
      vertex -2.97634 0.375999 0
      vertex -2.97634 -0.375999 6
      vertex -2.97634 -0.375999 0
    endloop
  endfacet
  facet normal -0.637419 0.770517 0
    outer loop
      vertex 2.18691 -2.05364 0
      vertex 1.60748 -2.53298 6
      vertex 2.18691 -2.05364 6
    endloop
  endfacet
  facet normal -0.637419 0.770517 0
    outer loop
      vertex 1.60748 -2.53298 6
      vertex 2.18691 -2.05364 0
      vertex 1.60748 -2.53298 0
    endloop
  endfacet
  facet normal -0.425784 0.904825 0
    outer loop
      vertex 1.60748 -2.53298 0
      vertex 0.927051 -2.85317 6
      vertex 1.60748 -2.53298 6
    endloop
  endfacet
  facet normal -0.425784 0.904825 0
    outer loop
      vertex 0.927051 -2.85317 6
      vertex 1.60748 -2.53298 0
      vertex 0.927051 -2.85317 0
    endloop
  endfacet
  facet normal 0.728965 -0.68455 0
    outer loop
      vertex -2.42705 1.76336 6
      vertex -1.91227 2.31154 0
      vertex -1.91227 2.31154 6
    endloop
  endfacet
  facet normal 0.728965 -0.68455 0
    outer loop
      vertex -1.91227 2.31154 0
      vertex -2.42705 1.76336 6
      vertex -2.42705 1.76336 0
    endloop
  endfacet
  facet normal -0.809019 -0.587782 0
    outer loop
      vertex 2.62892 1.44526 0
      vertex 2.18691 2.05364 6
      vertex 2.18691 2.05364 0
    endloop
  endfacet
  facet normal -0.809019 -0.587782 0
    outer loop
      vertex 2.18691 2.05364 6
      vertex 2.62892 1.44526 0
      vertex 2.62892 1.44526 6
    endloop
  endfacet
  facet normal 0.968584 0.248685 0
    outer loop
      vertex -2.78933 -1.10437 6
      vertex -2.97634 -0.375999 0
      vertex -2.97634 -0.375999 6
    endloop
  endfacet
  facet normal 0.968584 0.248685 0
    outer loop
      vertex -2.97634 -0.375999 0
      vertex -2.78933 -1.10437 6
      vertex -2.78933 -1.10437 0
    endloop
  endfacet
  facet normal 0.535828 0.844327 -0
    outer loop
      vertex -1.27734 -2.71448 0
      vertex -1.91227 -2.31154 6
      vertex -1.27734 -2.71448 6
    endloop
  endfacet
  facet normal 0.535828 0.844327 0
    outer loop
      vertex -1.91227 -2.31154 6
      vertex -1.27734 -2.71448 0
      vertex -1.91227 -2.31154 0
    endloop
  endfacet
  facet normal 0.309015 0.951057 -0
    outer loop
      vertex -0.562143 -2.94686 0
      vertex -1.27734 -2.71448 6
      vertex -0.562143 -2.94686 6
    endloop
  endfacet
  facet normal 0.309015 0.951057 0
    outer loop
      vertex -1.27734 -2.71448 6
      vertex -0.562143 -2.94686 0
      vertex -1.27734 -2.71448 0
    endloop
  endfacet
  facet normal 0.0627927 0.998027 -0
    outer loop
      vertex 0.188371 -2.99408 0
      vertex -0.562143 -2.94686 6
      vertex 0.188371 -2.99408 6
    endloop
  endfacet
  facet normal 0.0627927 0.998027 0
    outer loop
      vertex -0.562143 -2.94686 6
      vertex 0.188371 -2.99408 0
      vertex -0.562143 -2.94686 0
    endloop
  endfacet
  facet normal -0.929776 0.368125 0
    outer loop
      vertex 2.62892 -1.44526 0
      vertex 2.90575 -0.746069 6
      vertex 2.90575 -0.746069 0
    endloop
  endfacet
  facet normal -0.929776 0.368125 0
    outer loop
      vertex 2.90575 -0.746069 6
      vertex 2.62892 -1.44526 0
      vertex 2.62892 -1.44526 6
    endloop
  endfacet
  facet normal -0.18738 0.982287 0
    outer loop
      vertex 0.927051 -2.85317 0
      vertex 0.188371 -2.99408 6
      vertex 0.927051 -2.85317 6
    endloop
  endfacet
  facet normal -0.18738 0.982287 0
    outer loop
      vertex 0.188371 -2.99408 6
      vertex 0.927051 -2.85317 0
      vertex 0.188371 -2.99408 0
    endloop
  endfacet
  facet normal 0.535828 -0.844327 0
    outer loop
      vertex -1.91227 2.31154 0
      vertex -1.27734 2.71448 6
      vertex -1.91227 2.31154 6
    endloop
  endfacet
  facet normal 0.535828 -0.844327 0
    outer loop
      vertex -1.27734 2.71448 6
      vertex -1.91227 2.31154 0
      vertex -1.27734 2.71448 0
    endloop
  endfacet
  facet normal 0.876308 -0.481751 0
    outer loop
      vertex -2.78933 1.10437 6
      vertex -2.42705 1.76336 0
      vertex -2.42705 1.76336 6
    endloop
  endfacet
  facet normal 0.876308 -0.481751 0
    outer loop
      vertex -2.42705 1.76336 0
      vertex -2.78933 1.10437 6
      vertex -2.78933 1.10437 0
    endloop
  endfacet
  facet normal -0.18738 -0.982287 0
    outer loop
      vertex 0.188371 2.99408 0
      vertex 0.927051 2.85317 6
      vertex 0.188371 2.99408 6
    endloop
  endfacet
  facet normal -0.18738 -0.982287 -0
    outer loop
      vertex 0.927051 2.85317 6
      vertex 0.188371 2.99408 0
      vertex 0.927051 2.85317 0
    endloop
  endfacet
  facet normal -0.929776 -0.368125 0
    outer loop
      vertex 2.90575 0.746069 0
      vertex 2.62892 1.44526 6
      vertex 2.62892 1.44526 0
    endloop
  endfacet
  facet normal -0.929776 -0.368125 0
    outer loop
      vertex 2.62892 1.44526 6
      vertex 2.90575 0.746069 0
      vertex 2.90575 0.746069 6
    endloop
  endfacet
  facet normal 0.876308 0.481751 0
    outer loop
      vertex -2.42705 -1.76336 6
      vertex -2.78933 -1.10437 0
      vertex -2.78933 -1.10437 6
    endloop
  endfacet
  facet normal 0.876308 0.481751 0
    outer loop
      vertex -2.78933 -1.10437 0
      vertex -2.42705 -1.76336 6
      vertex -2.42705 -1.76336 0
    endloop
  endfacet
  facet normal -0.809019 0.587782 0
    outer loop
      vertex 2.18691 -2.05364 0
      vertex 2.62892 -1.44526 6
      vertex 2.62892 -1.44526 0
    endloop
  endfacet
  facet normal -0.809019 0.587782 0
    outer loop
      vertex 2.62892 -1.44526 6
      vertex 2.18691 -2.05364 0
      vertex 2.18691 -2.05364 6
    endloop
  endfacet
  facet normal 0.309015 -0.951057 0
    outer loop
      vertex -1.27734 2.71448 0
      vertex -0.562143 2.94686 6
      vertex -1.27734 2.71448 6
    endloop
  endfacet
  facet normal 0.309015 -0.951057 0
    outer loop
      vertex -0.562143 2.94686 6
      vertex -1.27734 2.71448 0
      vertex -0.562143 2.94686 0
    endloop
  endfacet
  facet normal 0.968584 -0.248685 0
    outer loop
      vertex -2.97634 0.375999 6
      vertex -2.78933 1.10437 0
      vertex -2.78933 1.10437 6
    endloop
  endfacet
  facet normal 0.968584 -0.248685 0
    outer loop
      vertex -2.78933 1.10437 0
      vertex -2.97634 0.375999 6
      vertex -2.97634 0.375999 0
    endloop
  endfacet
  facet normal -0.425784 -0.904825 0
    outer loop
      vertex 0.927051 2.85317 0
      vertex 1.60748 2.53298 6
      vertex 0.927051 2.85317 6
    endloop
  endfacet
  facet normal -0.425784 -0.904825 -0
    outer loop
      vertex 1.60748 2.53298 6
      vertex 0.927051 2.85317 0
      vertex 1.60748 2.53298 0
    endloop
  endfacet
  facet normal -0.637419 -0.770517 0
    outer loop
      vertex 1.60748 2.53298 0
      vertex 2.18691 2.05364 6
      vertex 1.60748 2.53298 6
    endloop
  endfacet
  facet normal -0.637419 -0.770517 -0
    outer loop
      vertex 2.18691 2.05364 6
      vertex 1.60748 2.53298 0
      vertex 2.18691 2.05364 0
    endloop
  endfacet
endsolid OpenSCAD_Model
