<?xml version="1.0" standalone="no"?>
<!DOCTYPE svg PUBLIC "-//W3C//DTD SVG 1.1//EN" "http://www.w3.org/Graphics/SVG/1.1/DTD/svg11.dtd">
<svg width="20mm" height="20mm" viewBox="-10 -10 20 20" xmlns="http://www.w3.org/2000/svg" version="1.1">
<title>OpenSCAD Model</title>
<path d="
M 0.960785,8.43289 L 1.31766,7.75591 L 1.50809,7.19196 L 1.57867,6.77271 L 1.58125,6.51761 L 1.57001,6.43329
 L 1.27646,5.23042 L 2.79587,4.60104 L 3.43886,5.65918 L 3.49052,5.72675 L 3.67273,5.9053 L 4.01909,6.15186
 L 4.55252,6.41597 L 5.28357,6.64232 L 6.2097,6.77328 L 6.77328,6.2097 L 6.64232,5.28357 L 6.41597,4.55252
 L 6.15186,4.01909 L 5.9053,3.67273 L 5.72675,3.49052 L 5.65918,3.43886 L 4.60104,2.79587 L 5.23042,1.27646
 L 6.43329,1.57001 L 6.51761,1.58125 L 6.77271,1.57867 L 7.19196,1.50809 L 7.75591,1.31766 L 8.43289,0.960785
 L 9.18036,0.398514 L 9.18036,-0.398514 L 8.43289,-0.960785 L 7.75591,-1.31766 L 7.19196,-1.50809 L 6.77271,-1.57867
 L 6.51761,-1.58125 L 6.43329,-1.57001 L 5.23042,-1.27646 L 4.60104,-2.79587 L 5.65918,-3.43886 L 5.72675,-3.49052
 L 5.9053,-3.67273 L 6.15186,-4.01909 L 6.41597,-4.55252 L 6.64232,-5.28357 L 6.77328,-6.2097 L 6.2097,-6.77328
 L 5.28357,-6.64232 L 4.55252,-6.41597 L 4.01909,-6.15186 L 3.67273,-5.9053 L 3.49052,-5.72675 L 3.43886,-5.65918
 L 2.79587,-4.60104 L 1.27646,-5.23042 L 1.57001,-6.43329 L 1.58125,-6.51761 L 1.57867,-6.77271 L 1.50809,-7.19196
 L 1.31766,-7.75591 L 0.960785,-8.43289 L 0.398514,-9.18036 L -0.398514,-9.18036 L -0.960785,-8.43289 L -1.31766,-7.75591
 L -1.50809,-7.19196 L -1.57867,-6.77271 L -1.58125,-6.51761 L -1.57001,-6.43329 L -1.27646,-5.23042 L -2.79587,-4.60104
 L -3.43886,-5.65918 L -3.49052,-5.72675 L -3.67273,-5.9053 L -4.01909,-6.15186 L -4.55252,-6.41597 L -5.28357,-6.64232
 L -6.2097,-6.77328 L -6.77328,-6.2097 L -6.64232,-5.28357 L -6.41597,-4.55252 L -6.15186,-4.01909 L -5.9053,-3.67273
 L -5.72675,-3.49052 L -5.65918,-3.43886 L -4.60104,-2.79587 L -5.23042,-1.27646 L -6.43329,-1.57001 L -6.51761,-1.58125
 L -6.77271,-1.57867 L -7.19196,-1.50809 L -7.75591,-1.31766 L -8.43289,-0.960785 L -9.18036,-0.398514 L -9.18036,0.398514
 L -8.43289,0.960785 L -7.75591,1.31766 L -7.19196,1.50809 L -6.77271,1.57867 L -6.51761,1.58125 L -6.43329,1.57001
 L -5.23042,1.27646 L -4.60104,2.79587 L -5.65918,3.43886 L -5.72675,3.49052 L -5.9053,3.67273 L -6.15186,4.01909
 L -6.41597,4.55252 L -6.64232,5.28357 L -6.77328,6.2097 L -6.2097,6.77328 L -5.28357,6.64232 L -4.55252,6.41597
 L -4.01909,6.15186 L -3.67273,5.9053 L -3.49052,5.72675 L -3.43886,5.65918 L -2.79587,4.60104 L -1.27646,5.23042
 L -1.57001,6.43329 L -1.58125,6.51761 L -1.57867,6.77271 L -1.50809,7.19196 L -1.31766,7.75591 L -0.960785,8.43289
 L -0.398514,9.18036 L 0.398514,9.18036 z
M -0.562134,2.94685 L -1.27733,2.71448 L -1.91226,2.31154 L -2.42705,1.76335 L -2.78932,1.10437 L -2.97633,0.375992
 L -2.97633,-0.375992 L -2.78932,-1.10437 L -2.42705,-1.76335 L -1.91226,-2.31154 L -1.27733,-2.71448 L -0.562134,-2.94685
 L 0.18837,-2.99408 L 0.927048,-2.85316 L 1.60747,-2.53297 L 2.1869,-2.05363 L 2.62891,-1.44525 L 2.90575,-0.746063
 L 3,-0 L 2.90575,0.746063 L 2.62891,1.44525 L 2.1869,2.05363 L 1.60747,2.53297 L 0.927048,2.85316
 L 0.18837,2.99408 z
" stroke="black" fill="lightgray" stroke-width="0.5"/>
</svg>
