solid OpenSCAD_Model
  facet normal 0 0 -1
    outer loop
      vertex 6.21446 -5.83576 -6
      vertex 6.64584 -5.47389 -6
      vertex 6.79562 -6.222 -6
    endloop
  endfacet
  facet normal 0 0 -1
    outer loop
      vertex 6.21446 -5.83576 -6
      vertex 6.79562 -6.222 -6
      vertex 6.222 -6.79562 -6
    endloop
  endfacet
  facet normal -0 0 -1
    outer loop
      vertex 6.64584 -5.47389 -6
      vertex 6.21446 -5.83576 -6
      vertex 6.59098 -5.31753 -6
    endloop
  endfacet
  facet normal 0 0 -1
    outer loop
      vertex 5.47389 -6.64584 -6
      vertex 6.21446 -5.83576 -6
      vertex 6.222 -6.79562 -6
    endloop
  endfacet
  facet normal 0 0 -1
    outer loop
      vertex 6.21446 -5.83576 -6
      vertex 5.47389 -6.64584 -6
      vertex 5.30632 -6.58704 -6
    endloop
  endfacet
  facet normal 0 0 -1
    outer loop
      vertex 8.525 0 -6
      vertex 9.20486 -0.405609 -6
      vertex 8.56996 -0.82869 -6
    endloop
  endfacet
  facet normal 0 0 -1
    outer loop
      vertex 9.20486 -0.405609 -6
      vertex 8.525 0 -6
      vertex 9.20486 0.405609 -6
    endloop
  endfacet
  facet normal -0 0 -1
    outer loop
      vertex 9.20486 0.405609 -6
      vertex 8.525 0 -6
      vertex 8.56996 0.82869 -6
    endloop
  endfacet
  facet normal 0 -0 -1
    outer loop
      vertex 8.525 0 -6
      vertex 8.56996 -0.82869 -6
      vertex 8.41064 -0.905243 -6
    endloop
  endfacet
  facet normal -0 0 -1
    outer loop
      vertex 8.56996 0.82869 -6
      vertex 8.525 0 -6
      vertex 8.41064 0.905243 -6
    endloop
  endfacet
  facet normal 0 0 -1
    outer loop
      vertex 6.21446 5.83576 -6
      vertex 6.64584 5.47389 -6
      vertex 6.59098 5.31753 -6
    endloop
  endfacet
  facet normal 0 0 -1
    outer loop
      vertex 6.64584 5.47389 -6
      vertex 6.21446 5.83576 -6
      vertex 6.79562 6.222 -6
    endloop
  endfacet
  facet normal -0 0 -1
    outer loop
      vertex 6.79562 6.222 -6
      vertex 6.21446 5.83576 -6
      vertex 6.222 6.79562 -6
    endloop
  endfacet
  facet normal 0 0 -1
    outer loop
      vertex 6.21446 5.83576 -6
      vertex 5.47389 6.64584 -6
      vertex 6.222 6.79562 -6
    endloop
  endfacet
  facet normal 0 -0 -1
    outer loop
      vertex 5.47389 6.64584 -6
      vertex 6.21446 5.83576 -6
      vertex 5.30632 6.58704 -6
    endloop
  endfacet
  facet normal 0 0 -1
    outer loop
      vertex 0.535289 8.50818 -6
      vertex 0.82869 8.56996 -6
      vertex 0.89098 8.44033 -6
    endloop
  endfacet
  facet normal 0 0 -1
    outer loop
      vertex 0.535289 8.50818 -6
      vertex 0.405609 9.20486 -6
      vertex 0.82869 8.56996 -6
    endloop
  endfacet
  facet normal 0 0 -1
    outer loop
      vertex 0.535289 8.50818 -6
      vertex -0.405609 9.20486 -6
      vertex 0.405609 9.20486 -6
    endloop
  endfacet
  facet normal 0 0 -1
    outer loop
      vertex 0.535289 8.50818 -6
      vertex -0.82869 8.56996 -6
      vertex -0.405609 9.20486 -6
    endloop
  endfacet
  facet normal 0 -0 -1
    outer loop
      vertex -0.82869 8.56996 -6
      vertex 0.535289 8.50818 -6
      vertex -0.901821 8.41776 -6
    endloop
  endfacet
  facet normal 0 0 -1
    outer loop
      vertex -5.43404 6.56862 -6
      vertex -5.47389 6.64584 -6
      vertex -5.36987 6.60934 -6
    endloop
  endfacet
  facet normal 0 0 -1
    outer loop
      vertex -5.43404 6.56862 -6
      vertex -6.222 6.79562 -6
      vertex -5.47389 6.64584 -6
    endloop
  endfacet
  facet normal 0 0 -1
    outer loop
      vertex -6.64584 5.47389 -6
      vertex -5.43404 6.56862 -6
      vertex -6.59585 5.33142 -6
    endloop
  endfacet
  facet normal 0 0 -1
    outer loop
      vertex -6.79562 6.222 -6
      vertex -5.43404 6.56862 -6
      vertex -6.64584 5.47389 -6
    endloop
  endfacet
  facet normal -0 0 -1
    outer loop
      vertex -5.43404 6.56862 -6
      vertex -6.79562 6.222 -6
      vertex -6.222 6.79562 -6
    endloop
  endfacet
  facet normal 0 0 -1
    outer loop
      vertex -8.56996 -0.82869 -6
      vertex -8.45778 0.882594 -6
      vertex -8.45778 -0.882594 -6
    endloop
  endfacet
  facet normal 0 0 -1
    outer loop
      vertex -8.56996 -0.82869 -6
      vertex -8.56996 0.82869 -6
      vertex -8.45778 0.882594 -6
    endloop
  endfacet
  facet normal 0 0 -1
    outer loop
      vertex -9.20486 -0.405609 -6
      vertex -8.56996 0.82869 -6
      vertex -8.56996 -0.82869 -6
    endloop
  endfacet
  facet normal 0 0 -1
    outer loop
      vertex -8.56996 0.82869 -6
      vertex -9.20486 -0.405609 -6
      vertex -9.20486 0.405609 -6
    endloop
  endfacet
  facet normal 0 0 -1
    outer loop
      vertex -5.47389 -6.64584 -6
      vertex -5.43404 -6.56862 -6
      vertex -5.36987 -6.60934 -6
    endloop
  endfacet
  facet normal 0 0 -1
    outer loop
      vertex -6.222 -6.79562 -6
      vertex -5.43404 -6.56862 -6
      vertex -5.47389 -6.64584 -6
    endloop
  endfacet
  facet normal 0 0 -1
    outer loop
      vertex -6.79562 -6.222 -6
      vertex -5.43404 -6.56862 -6
      vertex -6.222 -6.79562 -6
    endloop
  endfacet
  facet normal 0 0 -1
    outer loop
      vertex -5.43404 -6.56862 -6
      vertex -6.64584 -5.47389 -6
      vertex -6.59585 -5.33142 -6
    endloop
  endfacet
  facet normal 0 0 -1
    outer loop
      vertex -5.43404 -6.56862 -6
      vertex -6.79562 -6.222 -6
      vertex -6.64584 -5.47389 -6
    endloop
  endfacet
  facet normal 0 0 -1
    outer loop
      vertex 0.82869 -8.56996 -6
      vertex 0.535289 -8.50818 -6
      vertex 0.89098 -8.44033 -6
    endloop
  endfacet
  facet normal 0 0 -1
    outer loop
      vertex 0.405609 -9.20486 -6
      vertex 0.535289 -8.50818 -6
      vertex 0.82869 -8.56996 -6
    endloop
  endfacet
  facet normal 0 0 -1
    outer loop
      vertex -0.405609 -9.20486 -6
      vertex 0.535289 -8.50818 -6
      vertex 0.405609 -9.20486 -6
    endloop
  endfacet
  facet normal 0 0 -1
    outer loop
      vertex -0.82869 -8.56996 -6
      vertex 0.535289 -8.50818 -6
      vertex -0.405609 -9.20486 -6
    endloop
  endfacet
  facet normal -0 0 -1
    outer loop
      vertex 0.535289 -8.50818 -6
      vertex -0.82869 -8.56996 -6
      vertex -0.901821 -8.41776 -6
    endloop
  endfacet
  facet normal 0 0 1
    outer loop
      vertex 6.21446 -5.83576 0
      vertex 6.64584 -5.47389 0
      vertex 6.59098 -5.31753 0
    endloop
  endfacet
  facet normal 0 0 1
    outer loop
      vertex 6.64584 -5.47389 0
      vertex 6.21446 -5.83576 0
      vertex 6.79562 -6.222 0
    endloop
  endfacet
  facet normal 0 0 1
    outer loop
      vertex 6.79562 -6.222 0
      vertex 6.21446 -5.83576 0
      vertex 6.222 -6.79562 0
    endloop
  endfacet
  facet normal 0 0 1
    outer loop
      vertex 6.21446 -5.83576 0
      vertex 5.47389 -6.64584 0
      vertex 6.222 -6.79562 0
    endloop
  endfacet
  facet normal 0 -0 1
    outer loop
      vertex 5.47389 -6.64584 0
      vertex 6.21446 -5.83576 0
      vertex 5.30632 -6.58704 0
    endloop
  endfacet
  facet normal 0 0 1
    outer loop
      vertex 8.525 0 0
      vertex 9.20486 0.405609 0
      vertex 8.56996 0.82869 0
    endloop
  endfacet
  facet normal 0 0 1
    outer loop
      vertex 9.20486 0.405609 0
      vertex 8.525 0 0
      vertex 9.20486 -0.405609 0
    endloop
  endfacet
  facet normal 0 0 1
    outer loop
      vertex 9.20486 -0.405609 0
      vertex 8.525 0 0
      vertex 8.56996 -0.82869 0
    endloop
  endfacet
  facet normal 0 -0 1
    outer loop
      vertex 8.525 0 0
      vertex 8.56996 0.82869 0
      vertex 8.41064 0.905243 0
    endloop
  endfacet
  facet normal 0 0 1
    outer loop
      vertex 8.56996 -0.82869 0
      vertex 8.525 0 0
      vertex 8.41064 -0.905243 0
    endloop
  endfacet
  facet normal -0 0 1
    outer loop
      vertex 6.21446 5.83576 0
      vertex 6.64584 5.47389 0
      vertex 6.79562 6.222 0
    endloop
  endfacet
  facet normal 0 0 1
    outer loop
      vertex 6.21446 5.83576 0
      vertex 6.79562 6.222 0
      vertex 6.222 6.79562 0
    endloop
  endfacet
  facet normal 0 0 1
    outer loop
      vertex 6.64584 5.47389 0
      vertex 6.21446 5.83576 0
      vertex 6.59098 5.31753 0
    endloop
  endfacet
  facet normal -0 0 1
    outer loop
      vertex 5.47389 6.64584 0
      vertex 6.21446 5.83576 0
      vertex 6.222 6.79562 0
    endloop
  endfacet
  facet normal 0 0 1
    outer loop
      vertex 6.21446 5.83576 0
      vertex 5.47389 6.64584 0
      vertex 5.30632 6.58704 0
    endloop
  endfacet
  facet normal 0 0 1
    outer loop
      vertex 0.82869 8.56996 0
      vertex 0.535289 8.50818 0
      vertex 0.89098 8.44033 0
    endloop
  endfacet
  facet normal 0 0 1
    outer loop
      vertex 0.405609 9.20486 0
      vertex 0.535289 8.50818 0
      vertex 0.82869 8.56996 0
    endloop
  endfacet
  facet normal -0 0 1
    outer loop
      vertex -0.405609 9.20486 0
      vertex 0.535289 8.50818 0
      vertex 0.405609 9.20486 0
    endloop
  endfacet
  facet normal -0 0 1
    outer loop
      vertex -0.82869 8.56996 0
      vertex 0.535289 8.50818 0
      vertex -0.405609 9.20486 0
    endloop
  endfacet
  facet normal 0 0 1
    outer loop
      vertex 0.535289 8.50818 0
      vertex -0.82869 8.56996 0
      vertex -0.901821 8.41776 0
    endloop
  endfacet
  facet normal 0 0 1
    outer loop
      vertex -5.47389 6.64584 0
      vertex -5.43404 6.56862 0
      vertex -5.36987 6.60934 0
    endloop
  endfacet
  facet normal 0 0 1
    outer loop
      vertex -6.222 6.79562 0
      vertex -5.43404 6.56862 0
      vertex -5.47389 6.64584 0
    endloop
  endfacet
  facet normal 0 0 1
    outer loop
      vertex -6.79562 6.222 0
      vertex -5.43404 6.56862 0
      vertex -6.222 6.79562 0
    endloop
  endfacet
  facet normal 0 0 1
    outer loop
      vertex -5.43404 6.56862 0
      vertex -6.64584 5.47389 0
      vertex -6.59585 5.33142 0
    endloop
  endfacet
  facet normal 0 0 1
    outer loop
      vertex -5.43404 6.56862 0
      vertex -6.79562 6.222 0
      vertex -6.64584 5.47389 0
    endloop
  endfacet
  facet normal -0 0 1
    outer loop
      vertex -8.56996 0.82869 0
      vertex -8.45778 -0.882594 0
      vertex -8.45778 0.882594 0
    endloop
  endfacet
  facet normal 0 0 1
    outer loop
      vertex -8.56996 0.82869 0
      vertex -8.56996 -0.82869 0
      vertex -8.45778 -0.882594 0
    endloop
  endfacet
  facet normal -0 0 1
    outer loop
      vertex -9.20486 0.405609 0
      vertex -8.56996 -0.82869 0
      vertex -8.56996 0.82869 0
    endloop
  endfacet
  facet normal 0 0 1
    outer loop
      vertex -8.56996 -0.82869 0
      vertex -9.20486 0.405609 0
      vertex -9.20486 -0.405609 0
    endloop
  endfacet
  facet normal 0 0 1
    outer loop
      vertex -5.43404 -6.56862 0
      vertex -5.47389 -6.64584 0
      vertex -5.36987 -6.60934 0
    endloop
  endfacet
  facet normal 0 0 1
    outer loop
      vertex -5.43404 -6.56862 0
      vertex -6.222 -6.79562 0
      vertex -5.47389 -6.64584 0
    endloop
  endfacet
  facet normal -0 0 1
    outer loop
      vertex -6.64584 -5.47389 0
      vertex -5.43404 -6.56862 0
      vertex -6.59585 -5.33142 0
    endloop
  endfacet
  facet normal -0 0 1
    outer loop
      vertex -6.79562 -6.222 0
      vertex -5.43404 -6.56862 0
      vertex -6.64584 -5.47389 0
    endloop
  endfacet
  facet normal 0 0 1
    outer loop
      vertex -5.43404 -6.56862 0
      vertex -6.79562 -6.222 0
      vertex -6.222 -6.79562 0
    endloop
  endfacet
  facet normal -0 0 1
    outer loop
      vertex 0.535289 -8.50818 0
      vertex 0.82869 -8.56996 0
      vertex 0.89098 -8.44033 0
    endloop
  endfacet
  facet normal 0 0 1
    outer loop
      vertex 0.535289 -8.50818 0
      vertex 0.405609 -9.20486 0
      vertex 0.82869 -8.56996 0
    endloop
  endfacet
  facet normal 0 0 1
    outer loop
      vertex 0.535289 -8.50818 0
      vertex -0.405609 -9.20486 0
      vertex 0.405609 -9.20486 0
    endloop
  endfacet
  facet normal 0 0 1
    outer loop
      vertex 0.535289 -8.50818 0
      vertex -0.82869 -8.56996 0
      vertex -0.405609 -9.20486 0
    endloop
  endfacet
  facet normal 0 -0 1
    outer loop
      vertex -0.82869 -8.56996 0
      vertex 0.535289 -8.50818 0
      vertex -0.901821 -8.41776 0
    endloop
  endfacet
  facet normal 0.90134 -0.433113 0
    outer loop
      vertex 0.82869 -8.56996 0
      vertex 0.89098 -8.44033 -6
      vertex 0.89098 -8.44033 0
    endloop
  endfacet
  facet normal 0.90134 -0.433113 0
    outer loop
      vertex 0.89098 -8.44033 -6
      vertex 0.82869 -8.56996 0
      vertex 0.82869 -8.56996 -6
    endloop
  endfacet
  facet normal -0.331105 -0.943594 0
    outer loop
      vertex 5.30632 -6.58704 -6
      vertex 5.47389 -6.64584 0
      vertex 5.30632 -6.58704 0
    endloop
  endfacet
  facet normal -0.331105 -0.943594 -0
    outer loop
      vertex 5.47389 -6.64584 0
      vertex 5.30632 -6.58704 -6
      vertex 5.47389 -6.64584 -6
    endloop
  endfacet
  facet normal -0.196315 -0.980541 0
    outer loop
      vertex 5.47389 -6.64584 -6
      vertex 6.222 -6.79562 0
      vertex 5.47389 -6.64584 0
    endloop
  endfacet
  facet normal -0.196315 -0.980541 -0
    outer loop
      vertex 6.222 -6.79562 0
      vertex 5.47389 -6.64584 -6
      vertex 6.222 -6.79562 -6
    endloop
  endfacet
  facet normal 0.707107 -0.707107 0
    outer loop
      vertex 6.222 -6.79562 0
      vertex 6.79562 -6.222 -6
      vertex 6.79562 -6.222 0
    endloop
  endfacet
  facet normal 0.707107 -0.707107 0
    outer loop
      vertex 6.79562 -6.222 -6
      vertex 6.222 -6.79562 0
      vertex 6.222 -6.79562 -6
    endloop
  endfacet
  facet normal 0.980541 0.196315 0
    outer loop
      vertex 6.79562 -6.222 0
      vertex 6.64584 -5.47389 -6
      vertex 6.64584 -5.47389 0
    endloop
  endfacet
  facet normal 0.980541 0.196315 0
    outer loop
      vertex 6.64584 -5.47389 -6
      vertex 6.79562 -6.222 0
      vertex 6.79562 -6.222 -6
    endloop
  endfacet
  facet normal 0.943606 0.331071 0
    outer loop
      vertex 6.64584 -5.47389 0
      vertex 6.59098 -5.31753 -6
      vertex 6.59098 -5.31753 0
    endloop
  endfacet
  facet normal 0.943606 0.331071 0
    outer loop
      vertex 6.59098 -5.31753 -6
      vertex 6.64584 -5.47389 0
      vertex 6.64584 -5.47389 -6
    endloop
  endfacet
  facet normal 0.433096 -0.901348 0
    outer loop
      vertex 8.41064 -0.905243 -6
      vertex 8.56996 -0.82869 0
      vertex 8.41064 -0.905243 0
    endloop
  endfacet
  facet normal 0.433096 -0.901348 0
    outer loop
      vertex 8.56996 -0.82869 0
      vertex 8.41064 -0.905243 -6
      vertex 8.56996 -0.82869 -6
    endloop
  endfacet
  facet normal 0.554532 -0.832163 0
    outer loop
      vertex 8.56996 -0.82869 -6
      vertex 9.20486 -0.405609 0
      vertex 8.56996 -0.82869 0
    endloop
  endfacet
  facet normal 0.554532 -0.832163 0
    outer loop
      vertex 9.20486 -0.405609 0
      vertex 8.56996 -0.82869 -6
      vertex 9.20486 -0.405609 -6
    endloop
  endfacet
  facet normal 1 -0 0
    outer loop
      vertex 9.20486 -0.405609 0
      vertex 9.20486 0.405609 -6
      vertex 9.20486 0.405609 0
    endloop
  endfacet
  facet normal 1 0 0
    outer loop
      vertex 9.20486 0.405609 -6
      vertex 9.20486 -0.405609 0
      vertex 9.20486 -0.405609 -6
    endloop
  endfacet
  facet normal 0.554532 0.832163 -0
    outer loop
      vertex 9.20486 0.405609 -6
      vertex 8.56996 0.82869 0
      vertex 9.20486 0.405609 0
    endloop
  endfacet
  facet normal 0.554532 0.832163 0
    outer loop
      vertex 8.56996 0.82869 0
      vertex 9.20486 0.405609 -6
      vertex 8.56996 0.82869 -6
    endloop
  endfacet
  facet normal 0.433096 0.901348 -0
    outer loop
      vertex 8.56996 0.82869 -6
      vertex 8.41064 0.905243 0
      vertex 8.56996 0.82869 0
    endloop
  endfacet
  facet normal 0.433096 0.901348 0
    outer loop
      vertex 8.41064 0.905243 0
      vertex 8.56996 0.82869 -6
      vertex 8.41064 0.905243 -6
    endloop
  endfacet
  facet normal 0.943606 -0.331071 0
    outer loop
      vertex 6.59098 5.31753 0
      vertex 6.64584 5.47389 -6
      vertex 6.64584 5.47389 0
    endloop
  endfacet
  facet normal 0.943606 -0.331071 0
    outer loop
      vertex 6.64584 5.47389 -6
      vertex 6.59098 5.31753 0
      vertex 6.59098 5.31753 -6
    endloop
  endfacet
  facet normal 0.980541 -0.196315 0
    outer loop
      vertex 6.64584 5.47389 0
      vertex 6.79562 6.222 -6
      vertex 6.79562 6.222 0
    endloop
  endfacet
  facet normal 0.980541 -0.196315 0
    outer loop
      vertex 6.79562 6.222 -6
      vertex 6.64584 5.47389 0
      vertex 6.64584 5.47389 -6
    endloop
  endfacet
  facet normal 0.707107 0.707107 0
    outer loop
      vertex 6.79562 6.222 0
      vertex 6.222 6.79562 -6
      vertex 6.222 6.79562 0
    endloop
  endfacet
  facet normal 0.707107 0.707107 0
    outer loop
      vertex 6.222 6.79562 -6
      vertex 6.79562 6.222 0
      vertex 6.79562 6.222 -6
    endloop
  endfacet
  facet normal -0.196315 0.980541 0
    outer loop
      vertex 6.222 6.79562 -6
      vertex 5.47389 6.64584 0
      vertex 6.222 6.79562 0
    endloop
  endfacet
  facet normal -0.196315 0.980541 0
    outer loop
      vertex 5.47389 6.64584 0
      vertex 6.222 6.79562 -6
      vertex 5.47389 6.64584 -6
    endloop
  endfacet
  facet normal -0.331105 0.943594 0
    outer loop
      vertex 5.47389 6.64584 -6
      vertex 5.30632 6.58704 0
      vertex 5.47389 6.64584 0
    endloop
  endfacet
  facet normal -0.331105 0.943594 0
    outer loop
      vertex 5.30632 6.58704 0
      vertex 5.47389 6.64584 -6
      vertex 5.30632 6.58704 -6
    endloop
  endfacet
  facet normal 0.90134 0.433113 0
    outer loop
      vertex 0.89098 8.44033 0
      vertex 0.82869 8.56996 -6
      vertex 0.82869 8.56996 0
    endloop
  endfacet
  facet normal 0.90134 0.433113 0
    outer loop
      vertex 0.82869 8.56996 -6
      vertex 0.89098 8.44033 0
      vertex 0.89098 8.44033 -6
    endloop
  endfacet
  facet normal 0.832163 0.554532 0
    outer loop
      vertex 0.82869 8.56996 0
      vertex 0.405609 9.20486 -6
      vertex 0.405609 9.20486 0
    endloop
  endfacet
  facet normal 0.832163 0.554532 0
    outer loop
      vertex 0.405609 9.20486 -6
      vertex 0.82869 8.56996 0
      vertex 0.82869 8.56996 -6
    endloop
  endfacet
  facet normal 0 1 -0
    outer loop
      vertex 0.405609 9.20486 -6
      vertex -0.405609 9.20486 0
      vertex 0.405609 9.20486 0
    endloop
  endfacet
  facet normal 0 1 0
    outer loop
      vertex -0.405609 9.20486 0
      vertex 0.405609 9.20486 -6
      vertex -0.405609 9.20486 -6
    endloop
  endfacet
  facet normal -0.832163 0.554532 0
    outer loop
      vertex -0.82869 8.56996 -6
      vertex -0.405609 9.20486 0
      vertex -0.405609 9.20486 -6
    endloop
  endfacet
  facet normal -0.832163 0.554532 0
    outer loop
      vertex -0.405609 9.20486 0
      vertex -0.82869 8.56996 -6
      vertex -0.82869 8.56996 0
    endloop
  endfacet
  facet normal -0.90135 0.433092 0
    outer loop
      vertex -0.901821 8.41776 -6
      vertex -0.82869 8.56996 0
      vertex -0.82869 8.56996 -6
    endloop
  endfacet
  facet normal -0.90135 0.433092 0
    outer loop
      vertex -0.82869 8.56996 0
      vertex -0.901821 8.41776 -6
      vertex -0.901821 8.41776 0
    endloop
  endfacet
  facet normal 0.331102 0.943595 -0
    outer loop
      vertex -5.36987 6.60934 -6
      vertex -5.47389 6.64584 0
      vertex -5.36987 6.60934 0
    endloop
  endfacet
  facet normal 0.331102 0.943595 0
    outer loop
      vertex -5.47389 6.64584 0
      vertex -5.36987 6.60934 -6
      vertex -5.47389 6.64584 -6
    endloop
  endfacet
  facet normal 0.196315 0.980541 -0
    outer loop
      vertex -5.47389 6.64584 -6
      vertex -6.222 6.79562 0
      vertex -5.47389 6.64584 0
    endloop
  endfacet
  facet normal 0.196315 0.980541 0
    outer loop
      vertex -6.222 6.79562 0
      vertex -5.47389 6.64584 -6
      vertex -6.222 6.79562 -6
    endloop
  endfacet
  facet normal -0.707107 0.707107 0
    outer loop
      vertex -6.79562 6.222 -6
      vertex -6.222 6.79562 0
      vertex -6.222 6.79562 -6
    endloop
  endfacet
  facet normal -0.707107 0.707107 0
    outer loop
      vertex -6.222 6.79562 0
      vertex -6.79562 6.222 -6
      vertex -6.79562 6.222 0
    endloop
  endfacet
  facet normal -0.980541 -0.196315 0
    outer loop
      vertex -6.64584 5.47389 -6
      vertex -6.79562 6.222 0
      vertex -6.79562 6.222 -6
    endloop
  endfacet
  facet normal -0.980541 -0.196315 0
    outer loop
      vertex -6.79562 6.222 0
      vertex -6.64584 5.47389 -6
      vertex -6.64584 5.47389 0
    endloop
  endfacet
  facet normal -0.943599 -0.331091 0
    outer loop
      vertex -6.59585 5.33142 -6
      vertex -6.64584 5.47389 0
      vertex -6.64584 5.47389 -6
    endloop
  endfacet
  facet normal -0.943599 -0.331091 0
    outer loop
      vertex -6.64584 5.47389 0
      vertex -6.59585 5.33142 -6
      vertex -6.59585 5.33142 0
    endloop
  endfacet
  facet normal -0.433107 0.901342 0
    outer loop
      vertex -8.45778 0.882594 -6
      vertex -8.56996 0.82869 0
      vertex -8.45778 0.882594 0
    endloop
  endfacet
  facet normal -0.433107 0.901342 0
    outer loop
      vertex -8.56996 0.82869 0
      vertex -8.45778 0.882594 -6
      vertex -8.56996 0.82869 -6
    endloop
  endfacet
  facet normal -0.554532 0.832163 0
    outer loop
      vertex -8.56996 0.82869 -6
      vertex -9.20486 0.405609 0
      vertex -8.56996 0.82869 0
    endloop
  endfacet
  facet normal -0.554532 0.832163 0
    outer loop
      vertex -9.20486 0.405609 0
      vertex -8.56996 0.82869 -6
      vertex -9.20486 0.405609 -6
    endloop
  endfacet
  facet normal -1 0 0
    outer loop
      vertex -9.20486 -0.405609 -6
      vertex -9.20486 0.405609 0
      vertex -9.20486 0.405609 -6
    endloop
  endfacet
  facet normal -1 -0 0
    outer loop
      vertex -9.20486 0.405609 0
      vertex -9.20486 -0.405609 -6
      vertex -9.20486 -0.405609 0
    endloop
  endfacet
  facet normal -0.554532 -0.832163 0
    outer loop
      vertex -9.20486 -0.405609 -6
      vertex -8.56996 -0.82869 0
      vertex -9.20486 -0.405609 0
    endloop
  endfacet
  facet normal -0.554532 -0.832163 -0
    outer loop
      vertex -8.56996 -0.82869 0
      vertex -9.20486 -0.405609 -6
      vertex -8.56996 -0.82869 -6
    endloop
  endfacet
  facet normal -0.433107 -0.901342 0
    outer loop
      vertex -8.56996 -0.82869 -6
      vertex -8.45778 -0.882594 0
      vertex -8.56996 -0.82869 0
    endloop
  endfacet
  facet normal -0.433107 -0.901342 -0
    outer loop
      vertex -8.45778 -0.882594 0
      vertex -8.56996 -0.82869 -6
      vertex -8.45778 -0.882594 -6
    endloop
  endfacet
  facet normal -0.943599 0.331091 0
    outer loop
      vertex -6.64584 -5.47389 -6
      vertex -6.59585 -5.33142 0
      vertex -6.59585 -5.33142 -6
    endloop
  endfacet
  facet normal -0.943599 0.331091 0
    outer loop
      vertex -6.59585 -5.33142 0
      vertex -6.64584 -5.47389 -6
      vertex -6.64584 -5.47389 0
    endloop
  endfacet
  facet normal -0.980541 0.196315 0
    outer loop
      vertex -6.79562 -6.222 -6
      vertex -6.64584 -5.47389 0
      vertex -6.64584 -5.47389 -6
    endloop
  endfacet
  facet normal -0.980541 0.196315 0
    outer loop
      vertex -6.64584 -5.47389 0
      vertex -6.79562 -6.222 -6
      vertex -6.79562 -6.222 0
    endloop
  endfacet
  facet normal -0.707107 -0.707107 0
    outer loop
      vertex -6.222 -6.79562 -6
      vertex -6.79562 -6.222 0
      vertex -6.79562 -6.222 -6
    endloop
  endfacet
  facet normal -0.707107 -0.707107 0
    outer loop
      vertex -6.79562 -6.222 0
      vertex -6.222 -6.79562 -6
      vertex -6.222 -6.79562 0
    endloop
  endfacet
  facet normal 0.196315 -0.980541 0
    outer loop
      vertex -6.222 -6.79562 -6
      vertex -5.47389 -6.64584 0
      vertex -6.222 -6.79562 0
    endloop
  endfacet
  facet normal 0.196315 -0.980541 0
    outer loop
      vertex -5.47389 -6.64584 0
      vertex -6.222 -6.79562 -6
      vertex -5.47389 -6.64584 -6
    endloop
  endfacet
  facet normal 0.331102 -0.943595 0
    outer loop
      vertex -5.47389 -6.64584 -6
      vertex -5.36987 -6.60934 0
      vertex -5.47389 -6.64584 0
    endloop
  endfacet
  facet normal 0.331102 -0.943595 0
    outer loop
      vertex -5.36987 -6.60934 0
      vertex -5.47389 -6.64584 -6
      vertex -5.36987 -6.60934 -6
    endloop
  endfacet
  facet normal -0.90135 -0.433092 0
    outer loop
      vertex -0.82869 -8.56996 -6
      vertex -0.901821 -8.41776 0
      vertex -0.901821 -8.41776 -6
    endloop
  endfacet
  facet normal -0.90135 -0.433092 0
    outer loop
      vertex -0.901821 -8.41776 0
      vertex -0.82869 -8.56996 -6
      vertex -0.82869 -8.56996 0
    endloop
  endfacet
  facet normal -0.832163 -0.554532 0
    outer loop
      vertex -0.405609 -9.20486 -6
      vertex -0.82869 -8.56996 0
      vertex -0.82869 -8.56996 -6
    endloop
  endfacet
  facet normal -0.832163 -0.554532 0
    outer loop
      vertex -0.82869 -8.56996 0
      vertex -0.405609 -9.20486 -6
      vertex -0.405609 -9.20486 0
    endloop
  endfacet
  facet normal 0 -1 0
    outer loop
      vertex -0.405609 -9.20486 -6
      vertex 0.405609 -9.20486 0
      vertex -0.405609 -9.20486 0
    endloop
  endfacet
  facet normal 0 -1 -0
    outer loop
      vertex 0.405609 -9.20486 0
      vertex -0.405609 -9.20486 -6
      vertex 0.405609 -9.20486 -6
    endloop
  endfacet
  facet normal 0.832163 -0.554532 0
    outer loop
      vertex 0.405609 -9.20486 0
      vertex 0.82869 -8.56996 -6
      vertex 0.82869 -8.56996 0
    endloop
  endfacet
  facet normal 0.832163 -0.554532 0
    outer loop
      vertex 0.82869 -8.56996 -6
      vertex 0.405609 -9.20486 0
      vertex 0.405609 -9.20486 -6
    endloop
  endfacet
  facet normal -0.992115 0.125335 0
    outer loop
      vertex 8.41064 -0.905243 -6
      vertex 8.525 0 0
      vertex 8.525 0 -6
    endloop
  endfacet
  facet normal -0.992115 0.125335 0
    outer loop
      vertex 8.525 0 0
      vertex 8.41064 -0.905243 -6
      vertex 8.41064 -0.905243 0
    endloop
  endfacet
  facet normal -0.992115 -0.125335 0
    outer loop
      vertex 8.525 0 -6
      vertex 8.41064 0.905243 0
      vertex 8.41064 0.905243 -6
    endloop
  endfacet
  facet normal -0.992115 -0.125335 0
    outer loop
      vertex 8.41064 0.905243 0
      vertex 8.525 0 -6
      vertex 8.525 0 0
    endloop
  endfacet
  facet normal 0.0627938 -0.998027 0
    outer loop
      vertex -0.901821 8.41776 -6
      vertex 0.535289 8.50818 0
      vertex -0.901821 8.41776 0
    endloop
  endfacet
  facet normal 0.0627938 -0.998027 0
    outer loop
      vertex 0.535289 8.50818 0
      vertex -0.901821 8.41776 -6
      vertex 0.535289 8.50818 -6
    endloop
  endfacet
  facet normal 0.728968 0.684548 0
    outer loop
      vertex -5.43404 -6.56862 0
      vertex -6.59585 -5.33142 -6
      vertex -6.59585 -5.33142 0
    endloop
  endfacet
  facet normal 0.728968 0.684548 0
    outer loop
      vertex -6.59585 -5.33142 -6
      vertex -5.43404 -6.56862 0
      vertex -5.43404 -6.56862 -6
    endloop
  endfacet
  facet normal -0.637425 0.770513 0
    outer loop
      vertex 6.21446 -5.83576 -6
      vertex 5.30632 -6.58704 0
      vertex 6.21446 -5.83576 0
    endloop
  endfacet
  facet normal -0.637425 0.770513 0
    outer loop
      vertex 5.30632 -6.58704 0
      vertex 6.21446 -5.83576 -6
      vertex 5.30632 -6.58704 -6
    endloop
  endfacet
  facet normal -0.809014 0.587789 0
    outer loop
      vertex 6.21446 -5.83576 -6
      vertex 6.59098 -5.31753 0
      vertex 6.59098 -5.31753 -6
    endloop
  endfacet
  facet normal -0.809014 0.587789 0
    outer loop
      vertex 6.59098 -5.31753 0
      vertex 6.21446 -5.83576 -6
      vertex 6.21446 -5.83576 0
    endloop
  endfacet
  facet normal 0.728968 -0.684548 0
    outer loop
      vertex -6.59585 5.33142 0
      vertex -5.43404 6.56862 -6
      vertex -5.43404 6.56862 0
    endloop
  endfacet
  facet normal 0.728968 -0.684548 0
    outer loop
      vertex -5.43404 6.56862 -6
      vertex -6.59585 5.33142 0
      vertex -6.59585 5.33142 -6
    endloop
  endfacet
  facet normal -0.809014 -0.587789 0
    outer loop
      vertex 6.59098 5.31753 -6
      vertex 6.21446 5.83576 0
      vertex 6.21446 5.83576 -6
    endloop
  endfacet
  facet normal -0.809014 -0.587789 0
    outer loop
      vertex 6.21446 5.83576 0
      vertex 6.59098 5.31753 -6
      vertex 6.59098 5.31753 0
    endloop
  endfacet
  facet normal 0.0627938 0.998027 -0
    outer loop
      vertex 0.535289 -8.50818 -6
      vertex -0.901821 -8.41776 0
      vertex 0.535289 -8.50818 0
    endloop
  endfacet
  facet normal 0.0627938 0.998027 0
    outer loop
      vertex -0.901821 -8.41776 0
      vertex 0.535289 -8.50818 -6
      vertex -0.901821 -8.41776 -6
    endloop
  endfacet
  facet normal -0.187377 0.982288 0
    outer loop
      vertex 0.89098 -8.44033 -6
      vertex 0.535289 -8.50818 0
      vertex 0.89098 -8.44033 0
    endloop
  endfacet
  facet normal -0.187377 0.982288 0
    outer loop
      vertex 0.535289 -8.50818 0
      vertex 0.89098 -8.44033 -6
      vertex 0.535289 -8.50818 -6
    endloop
  endfacet
  facet normal 0.535794 -0.844349 0
    outer loop
      vertex -5.43404 6.56862 -6
      vertex -5.36987 6.60934 0
      vertex -5.43404 6.56862 0
    endloop
  endfacet
  facet normal 0.535794 -0.844349 0
    outer loop
      vertex -5.36987 6.60934 0
      vertex -5.43404 6.56862 -6
      vertex -5.36987 6.60934 -6
    endloop
  endfacet
  facet normal -0.187377 -0.982288 0
    outer loop
      vertex 0.535289 8.50818 -6
      vertex 0.89098 8.44033 0
      vertex 0.535289 8.50818 0
    endloop
  endfacet
  facet normal -0.187377 -0.982288 -0
    outer loop
      vertex 0.89098 8.44033 0
      vertex 0.535289 8.50818 -6
      vertex 0.89098 8.44033 -6
    endloop
  endfacet
  facet normal 1 -0 0
    outer loop
      vertex -8.45778 -0.882594 0
      vertex -8.45778 0.882594 -6
      vertex -8.45778 0.882594 0
    endloop
  endfacet
  facet normal 1 0 0
    outer loop
      vertex -8.45778 0.882594 -6
      vertex -8.45778 -0.882594 0
      vertex -8.45778 -0.882594 -6
    endloop
  endfacet
  facet normal 0.535794 0.844349 -0
    outer loop
      vertex -5.36987 -6.60934 -6
      vertex -5.43404 -6.56862 0
      vertex -5.36987 -6.60934 0
    endloop
  endfacet
  facet normal 0.535794 0.844349 0
    outer loop
      vertex -5.43404 -6.56862 0
      vertex -5.36987 -6.60934 -6
      vertex -5.43404 -6.56862 -6
    endloop
  endfacet
  facet normal -0.637425 -0.770513 0
    outer loop
      vertex 5.30632 6.58704 -6
      vertex 6.21446 5.83576 0
      vertex 5.30632 6.58704 0
    endloop
  endfacet
  facet normal -0.637425 -0.770513 -0
    outer loop
      vertex 6.21446 5.83576 0
      vertex 5.30632 6.58704 -6
      vertex 6.21446 5.83576 -6
    endloop
  endfacet
endsolid OpenSCAD_Model
