<?xml version="1.0" standalone="no"?>
<!DOCTYPE svg PUBLIC "-//W3C//DTD SVG 1.1//EN" "http://www.w3.org/Graphics/SVG/1.1/DTD/svg11.dtd">
<svg width="20mm" height="20mm" viewBox="-10 -10 20 20" xmlns="http://www.w3.org/2000/svg" version="1.1">
<title>OpenSCAD Model</title>
<path d="
M 0.533707,-8.48322 L 0.904327,-8.41252 L 0.82869,-8.56996 L 0.405609,-9.20486 L -0.405609,-9.20486 L -0.82869,-8.56996
 L -0.914124,-8.39214 z
M -5.41809,-6.54936 L -5.34006,-6.59888 L -5.47389,-6.64584 L -6.222,-6.79562 L -6.79562,-6.222 L -6.64584,-5.47389
 L -6.58659,-5.30504 z
M 6.64584,-5.47389 L 6.79562,-6.222 L 6.222,-6.79562 L 5.47389,-6.64584 L 5.27899,-6.57745 L 6.19623,-5.81865
 L 6.58098,-5.28906 z
M 8.56996,0.82869 L 9.20486,0.405609 L 9.20486,-0.405609 L 8.56996,-0.82869 L 8.38402,-0.91803 L 8.5,-0
 L 8.38402,0.91803 z
M -8.43297,-0.894501 L -8.56996,-0.82869 L -9.20486,-0.405609 L -9.20486,0.405609 L -8.56996,0.82869 L -8.43297,0.894501
 z
M 6.79562,6.222 L 6.64584,5.47389 L 6.58098,5.28906 L 6.19623,5.81865 L 5.27899,6.57745 L 5.47389,6.64584
 L 6.222,6.79562 z
M -5.47389,6.64584 L -5.34006,6.59888 L -5.41809,6.54936 L -6.58659,5.30504 L -6.64584,5.47389 L -6.79562,6.222
 L -6.222,6.79562 z
M 0.82869,8.56996 L 0.904327,8.41252 L 0.533707,8.48322 L -0.914124,8.39214 L -0.82869,8.56996 L -0.405609,9.20486
 L 0.405609,9.20486 z
" stroke="black" fill="lightgray" stroke-width="0.5"/>
</svg>
