solid OpenSCAD_Model
  facet normal 0 0 -1
    outer loop
      vertex 6.17801 -5.80154 -6
      vertex 6.8175 -5.36208 -6
      vertex 6.99155 -6.02092 -6
    endloop
  endfacet
  facet normal -0 0 -1
    outer loop
      vertex 6.8175 -5.36208 -6
      vertex 6.17801 -5.80154 -6
      vertex 6.70211 -5.08017 -6
    endloop
  endfacet
  facet normal 0 0 -1
    outer loop
      vertex 6.02092 -6.99155 -6
      vertex 6.17801 -5.80154 -6
      vertex 6.99155 -6.02092 -6
    endloop
  endfacet
  facet normal 0 0 -1
    outer loop
      vertex 5.36208 -6.8175 -6
      vertex 6.17801 -5.80154 -6
      vertex 6.02092 -6.99155 -6
    endloop
  endfacet
  facet normal 0 0 -1
    outer loop
      vertex 6.17801 -5.80154 -6
      vertex 5.36208 -6.8175 -6
      vertex 5.08635 -6.70464 -6
    endloop
  endfacet
  facet normal 0 0 -1
    outer loop
      vertex 8.475 0 -6
      vertex 9.20122 -0.68634 -6
      vertex 8.61227 -1.02914 -6
    endloop
  endfacet
  facet normal 0 0 -1
    outer loop
      vertex 9.20122 -0.68634 -6
      vertex 8.475 0 -6
      vertex 9.20122 0.68634 -6
    endloop
  endfacet
  facet normal -0 0 -1
    outer loop
      vertex 9.20122 0.68634 -6
      vertex 8.475 0 -6
      vertex 8.61227 1.02914 -6
    endloop
  endfacet
  facet normal 0 -0 -1
    outer loop
      vertex 8.475 0 -6
      vertex 8.61227 -1.02914 -6
      vertex 8.33004 -1.14743 -6
    endloop
  endfacet
  facet normal -0 0 -1
    outer loop
      vertex 8.61227 1.02914 -6
      vertex 8.475 0 -6
      vertex 8.33004 1.14743 -6
    endloop
  endfacet
  facet normal 0 0 -1
    outer loop
      vertex 6.17801 5.80154 -6
      vertex 6.8175 5.36208 -6
      vertex 6.70211 5.08017 -6
    endloop
  endfacet
  facet normal 0 0 -1
    outer loop
      vertex 6.8175 5.36208 -6
      vertex 6.17801 5.80154 -6
      vertex 6.99155 6.02092 -6
    endloop
  endfacet
  facet normal 0 0 -1
    outer loop
      vertex 6.17801 5.80154 -6
      vertex 6.02092 6.99155 -6
      vertex 6.99155 6.02092 -6
    endloop
  endfacet
  facet normal 0 0 -1
    outer loop
      vertex 6.17801 5.80154 -6
      vertex 5.36208 6.8175 -6
      vertex 6.02092 6.99155 -6
    endloop
  endfacet
  facet normal 0 -0 -1
    outer loop
      vertex 5.36208 6.8175 -6
      vertex 6.17801 5.80154 -6
      vertex 5.08635 6.70464 -6
    endloop
  endfacet
  facet normal 0 0 -1
    outer loop
      vertex 0.532149 8.45828 -6
      vertex 1.02914 8.61227 -6
      vertex 1.14249 8.34185 -6
    endloop
  endfacet
  facet normal -0 0 -1
    outer loop
      vertex 1.02914 8.61227 -6
      vertex 0.532149 8.45828 -6
      vertex 0.68634 9.20122 -6
    endloop
  endfacet
  facet normal 0 0 -1
    outer loop
      vertex 0.532149 8.45828 -6
      vertex -0.68634 9.20122 -6
      vertex 0.68634 9.20122 -6
    endloop
  endfacet
  facet normal 0 0 -1
    outer loop
      vertex 0.532149 8.45828 -6
      vertex -1.02914 8.61227 -6
      vertex -0.68634 9.20122 -6
    endloop
  endfacet
  facet normal 0 -0 -1
    outer loop
      vertex -1.02914 8.61227 -6
      vertex 0.532149 8.45828 -6
      vertex -1.13772 8.35322 -6
    endloop
  endfacet
  facet normal 0 0 -1
    outer loop
      vertex -5.40217 6.5301 -6
      vertex -5.36208 6.8175 -6
      vertex -5.11114 6.71479 -6
    endloop
  endfacet
  facet normal 0 0 -1
    outer loop
      vertex -5.40217 6.5301 -6
      vertex -6.02092 6.99155 -6
      vertex -5.36208 6.8175 -6
    endloop
  endfacet
  facet normal 0 0 -1
    outer loop
      vertex -6.8175 5.36208 -6
      vertex -5.40217 6.5301 -6
      vertex -6.72082 5.12588 -6
    endloop
  endfacet
  facet normal 0 0 -1
    outer loop
      vertex -6.99155 6.02092 -6
      vertex -5.40217 6.5301 -6
      vertex -6.8175 5.36208 -6
    endloop
  endfacet
  facet normal -0 0 -1
    outer loop
      vertex -5.40217 6.5301 -6
      vertex -6.99155 6.02092 -6
      vertex -6.02092 6.99155 -6
    endloop
  endfacet
  facet normal 0 0 -1
    outer loop
      vertex -8.40817 -1.0622 -6
      vertex -8.61227 -1.02914 -6
      vertex -8.40817 1.0622 -6
    endloop
  endfacet
  facet normal 0 0 -1
    outer loop
      vertex -8.61227 -1.02914 -6
      vertex -8.40817 -1.0622 -6
      vertex -8.39307 -1.12102 -6
    endloop
  endfacet
  facet normal -0 0 -1
    outer loop
      vertex -8.40817 1.0622 -6
      vertex -8.61227 1.02914 -6
      vertex -8.39307 1.12102 -6
    endloop
  endfacet
  facet normal 0 0 -1
    outer loop
      vertex -8.61227 -1.02914 -6
      vertex -8.61227 1.02914 -6
      vertex -8.40817 1.0622 -6
    endloop
  endfacet
  facet normal 0 0 -1
    outer loop
      vertex -9.20122 -0.68634 -6
      vertex -8.61227 1.02914 -6
      vertex -8.61227 -1.02914 -6
    endloop
  endfacet
  facet normal 0 0 -1
    outer loop
      vertex -8.61227 1.02914 -6
      vertex -9.20122 -0.68634 -6
      vertex -9.20122 0.68634 -6
    endloop
  endfacet
  facet normal 0 0 -1
    outer loop
      vertex -5.36208 -6.8175 -6
      vertex -5.40217 -6.5301 -6
      vertex -5.11114 -6.71479 -6
    endloop
  endfacet
  facet normal 0 0 -1
    outer loop
      vertex -6.02092 -6.99155 -6
      vertex -5.40217 -6.5301 -6
      vertex -5.36208 -6.8175 -6
    endloop
  endfacet
  facet normal 0 0 -1
    outer loop
      vertex -6.99155 -6.02092 -6
      vertex -5.40217 -6.5301 -6
      vertex -6.02092 -6.99155 -6
    endloop
  endfacet
  facet normal 0 0 -1
    outer loop
      vertex -5.40217 -6.5301 -6
      vertex -6.8175 -5.36208 -6
      vertex -6.72082 -5.12588 -6
    endloop
  endfacet
  facet normal 0 0 -1
    outer loop
      vertex -5.40217 -6.5301 -6
      vertex -6.99155 -6.02092 -6
      vertex -6.8175 -5.36208 -6
    endloop
  endfacet
  facet normal 0 0 -1
    outer loop
      vertex 0.532149 -8.45828 -6
      vertex 1.02914 -8.61227 -6
      vertex 0.68634 -9.20122 -6
    endloop
  endfacet
  facet normal 0 0 -1
    outer loop
      vertex 1.02914 -8.61227 -6
      vertex 0.532149 -8.45828 -6
      vertex 1.14249 -8.34185 -6
    endloop
  endfacet
  facet normal 0 0 -1
    outer loop
      vertex -0.68634 -9.20122 -6
      vertex 0.532149 -8.45828 -6
      vertex 0.68634 -9.20122 -6
    endloop
  endfacet
  facet normal 0 0 -1
    outer loop
      vertex -1.02914 -8.61227 -6
      vertex 0.532149 -8.45828 -6
      vertex -0.68634 -9.20122 -6
    endloop
  endfacet
  facet normal -0 0 -1
    outer loop
      vertex 0.532149 -8.45828 -6
      vertex -1.02914 -8.61227 -6
      vertex -1.13772 -8.35322 -6
    endloop
  endfacet
  facet normal 0 0 1
    outer loop
      vertex 6.17801 -5.80154 0
      vertex 6.8175 -5.36208 0
      vertex 6.70211 -5.08017 0
    endloop
  endfacet
  facet normal 0 0 1
    outer loop
      vertex 6.8175 -5.36208 0
      vertex 6.17801 -5.80154 0
      vertex 6.99155 -6.02092 0
    endloop
  endfacet
  facet normal 0 0 1
    outer loop
      vertex 6.17801 -5.80154 0
      vertex 6.02092 -6.99155 0
      vertex 6.99155 -6.02092 0
    endloop
  endfacet
  facet normal 0 0 1
    outer loop
      vertex 6.17801 -5.80154 0
      vertex 5.36208 -6.8175 0
      vertex 6.02092 -6.99155 0
    endloop
  endfacet
  facet normal 0 -0 1
    outer loop
      vertex 5.36208 -6.8175 0
      vertex 6.17801 -5.80154 0
      vertex 5.08635 -6.70464 0
    endloop
  endfacet
  facet normal 0 0 1
    outer loop
      vertex 8.475 0 0
      vertex 9.20122 0.68634 0
      vertex 8.61227 1.02914 0
    endloop
  endfacet
  facet normal 0 0 1
    outer loop
      vertex 9.20122 0.68634 0
      vertex 8.475 0 0
      vertex 9.20122 -0.68634 0
    endloop
  endfacet
  facet normal 0 0 1
    outer loop
      vertex 9.20122 -0.68634 0
      vertex 8.475 0 0
      vertex 8.61227 -1.02914 0
    endloop
  endfacet
  facet normal 0 -0 1
    outer loop
      vertex 8.475 0 0
      vertex 8.61227 1.02914 0
      vertex 8.33004 1.14743 0
    endloop
  endfacet
  facet normal 0 0 1
    outer loop
      vertex 8.61227 -1.02914 0
      vertex 8.475 0 0
      vertex 8.33004 -1.14743 0
    endloop
  endfacet
  facet normal -0 0 1
    outer loop
      vertex 6.17801 5.80154 0
      vertex 6.8175 5.36208 0
      vertex 6.99155 6.02092 0
    endloop
  endfacet
  facet normal 0 0 1
    outer loop
      vertex 6.8175 5.36208 0
      vertex 6.17801 5.80154 0
      vertex 6.70211 5.08017 0
    endloop
  endfacet
  facet normal 0 0 1
    outer loop
      vertex 6.02092 6.99155 0
      vertex 6.17801 5.80154 0
      vertex 6.99155 6.02092 0
    endloop
  endfacet
  facet normal -0 0 1
    outer loop
      vertex 5.36208 6.8175 0
      vertex 6.17801 5.80154 0
      vertex 6.02092 6.99155 0
    endloop
  endfacet
  facet normal 0 0 1
    outer loop
      vertex 6.17801 5.80154 0
      vertex 5.36208 6.8175 0
      vertex 5.08635 6.70464 0
    endloop
  endfacet
  facet normal 0 0 1
    outer loop
      vertex 0.532149 8.45828 0
      vertex 1.02914 8.61227 0
      vertex 0.68634 9.20122 0
    endloop
  endfacet
  facet normal 0 0 1
    outer loop
      vertex 1.02914 8.61227 0
      vertex 0.532149 8.45828 0
      vertex 1.14249 8.34185 0
    endloop
  endfacet
  facet normal -0 0 1
    outer loop
      vertex -0.68634 9.20122 0
      vertex 0.532149 8.45828 0
      vertex 0.68634 9.20122 0
    endloop
  endfacet
  facet normal -0 0 1
    outer loop
      vertex -1.02914 8.61227 0
      vertex 0.532149 8.45828 0
      vertex -0.68634 9.20122 0
    endloop
  endfacet
  facet normal 0 0 1
    outer loop
      vertex 0.532149 8.45828 0
      vertex -1.02914 8.61227 0
      vertex -1.13772 8.35322 0
    endloop
  endfacet
  facet normal 0 0 1
    outer loop
      vertex -5.36208 6.8175 0
      vertex -5.40217 6.5301 0
      vertex -5.11114 6.71479 0
    endloop
  endfacet
  facet normal 0 0 1
    outer loop
      vertex -6.02092 6.99155 0
      vertex -5.40217 6.5301 0
      vertex -5.36208 6.8175 0
    endloop
  endfacet
  facet normal 0 0 1
    outer loop
      vertex -6.99155 6.02092 0
      vertex -5.40217 6.5301 0
      vertex -6.02092 6.99155 0
    endloop
  endfacet
  facet normal 0 0 1
    outer loop
      vertex -5.40217 6.5301 0
      vertex -6.8175 5.36208 0
      vertex -6.72082 5.12588 0
    endloop
  endfacet
  facet normal 0 0 1
    outer loop
      vertex -5.40217 6.5301 0
      vertex -6.99155 6.02092 0
      vertex -6.8175 5.36208 0
    endloop
  endfacet
  facet normal 0 0 1
    outer loop
      vertex -8.40817 1.0622 0
      vertex -8.61227 1.02914 0
      vertex -8.40817 -1.0622 0
    endloop
  endfacet
  facet normal 0 0 1
    outer loop
      vertex -8.61227 1.02914 0
      vertex -8.40817 1.0622 0
      vertex -8.39307 1.12102 0
    endloop
  endfacet
  facet normal 0 0 1
    outer loop
      vertex -8.40817 -1.0622 0
      vertex -8.61227 -1.02914 0
      vertex -8.39307 -1.12102 0
    endloop
  endfacet
  facet normal 0 0 1
    outer loop
      vertex -8.61227 1.02914 0
      vertex -8.61227 -1.02914 0
      vertex -8.40817 -1.0622 0
    endloop
  endfacet
  facet normal -0 0 1
    outer loop
      vertex -9.20122 0.68634 0
      vertex -8.61227 -1.02914 0
      vertex -8.61227 1.02914 0
    endloop
  endfacet
  facet normal 0 0 1
    outer loop
      vertex -8.61227 -1.02914 0
      vertex -9.20122 0.68634 0
      vertex -9.20122 -0.68634 0
    endloop
  endfacet
  facet normal 0 0 1
    outer loop
      vertex -5.40217 -6.5301 0
      vertex -5.36208 -6.8175 0
      vertex -5.11114 -6.71479 0
    endloop
  endfacet
  facet normal 0 0 1
    outer loop
      vertex -5.40217 -6.5301 0
      vertex -6.02092 -6.99155 0
      vertex -5.36208 -6.8175 0
    endloop
  endfacet
  facet normal -0 0 1
    outer loop
      vertex -6.8175 -5.36208 0
      vertex -5.40217 -6.5301 0
      vertex -6.72082 -5.12588 0
    endloop
  endfacet
  facet normal -0 0 1
    outer loop
      vertex -6.99155 -6.02092 0
      vertex -5.40217 -6.5301 0
      vertex -6.8175 -5.36208 0
    endloop
  endfacet
  facet normal 0 0 1
    outer loop
      vertex -5.40217 -6.5301 0
      vertex -6.99155 -6.02092 0
      vertex -6.02092 -6.99155 0
    endloop
  endfacet
  facet normal -0 0 1
    outer loop
      vertex 0.532149 -8.45828 0
      vertex 1.02914 -8.61227 0
      vertex 1.14249 -8.34185 0
    endloop
  endfacet
  facet normal 0 0 1
    outer loop
      vertex 1.02914 -8.61227 0
      vertex 0.532149 -8.45828 0
      vertex 0.68634 -9.20122 0
    endloop
  endfacet
  facet normal 0 0 1
    outer loop
      vertex 0.532149 -8.45828 0
      vertex -0.68634 -9.20122 0
      vertex 0.68634 -9.20122 0
    endloop
  endfacet
  facet normal 0 0 1
    outer loop
      vertex 0.532149 -8.45828 0
      vertex -1.02914 -8.61227 0
      vertex -0.68634 -9.20122 0
    endloop
  endfacet
  facet normal 0 -0 1
    outer loop
      vertex -1.02914 -8.61227 0
      vertex 0.532149 -8.45828 0
      vertex -1.13772 -8.35322 0
    endloop
  endfacet
  facet normal 0.922258 -0.386576 0
    outer loop
      vertex 1.02914 -8.61227 0
      vertex 1.14249 -8.34185 -6
      vertex 1.14249 -8.34185 0
    endloop
  endfacet
  facet normal 0.922258 -0.386576 0
    outer loop
      vertex 1.14249 -8.34185 -6
      vertex 1.02914 -8.61227 0
      vertex 1.02914 -8.61227 -6
    endloop
  endfacet
  facet normal -0.378809 -0.925475 0
    outer loop
      vertex 5.08635 -6.70464 -6
      vertex 5.36208 -6.8175 0
      vertex 5.08635 -6.70464 0
    endloop
  endfacet
  facet normal -0.378809 -0.925475 -0
    outer loop
      vertex 5.36208 -6.8175 0
      vertex 5.08635 -6.70464 -6
      vertex 5.36208 -6.8175 -6
    endloop
  endfacet
  facet normal -0.255414 -0.966832 0
    outer loop
      vertex 5.36208 -6.8175 -6
      vertex 6.02092 -6.99155 0
      vertex 5.36208 -6.8175 0
    endloop
  endfacet
  facet normal -0.255414 -0.966832 -0
    outer loop
      vertex 6.02092 -6.99155 0
      vertex 5.36208 -6.8175 -6
      vertex 6.02092 -6.99155 -6
    endloop
  endfacet
  facet normal 0.707107 -0.707107 0
    outer loop
      vertex 6.02092 -6.99155 0
      vertex 6.99155 -6.02092 -6
      vertex 6.99155 -6.02092 0
    endloop
  endfacet
  facet normal 0.707107 -0.707107 0
    outer loop
      vertex 6.99155 -6.02092 -6
      vertex 6.02092 -6.99155 0
      vertex 6.02092 -6.99155 -6
    endloop
  endfacet
  facet normal 0.966832 0.255414 0
    outer loop
      vertex 6.99155 -6.02092 0
      vertex 6.8175 -5.36208 -6
      vertex 6.8175 -5.36208 0
    endloop
  endfacet
  facet normal 0.966832 0.255414 0
    outer loop
      vertex 6.8175 -5.36208 -6
      vertex 6.99155 -6.02092 0
      vertex 6.99155 -6.02092 -6
    endloop
  endfacet
  facet normal 0.925474 0.378811 0
    outer loop
      vertex 6.8175 -5.36208 0
      vertex 6.70211 -5.08017 -6
      vertex 6.70211 -5.08017 0
    endloop
  endfacet
  facet normal 0.925474 0.378811 0
    outer loop
      vertex 6.70211 -5.08017 -6
      vertex 6.8175 -5.36208 0
      vertex 6.8175 -5.36208 -6
    endloop
  endfacet
  facet normal 0.386547 -0.92227 0
    outer loop
      vertex 8.33004 -1.14743 -6
      vertex 8.61227 -1.02914 0
      vertex 8.33004 -1.14743 0
    endloop
  endfacet
  facet normal 0.386547 -0.92227 0
    outer loop
      vertex 8.61227 -1.02914 0
      vertex 8.33004 -1.14743 -6
      vertex 8.61227 -1.02914 -6
    endloop
  endfacet
  facet normal 0.503045 -0.86426 0
    outer loop
      vertex 8.61227 -1.02914 -6
      vertex 9.20122 -0.68634 0
      vertex 8.61227 -1.02914 0
    endloop
  endfacet
  facet normal 0.503045 -0.86426 0
    outer loop
      vertex 9.20122 -0.68634 0
      vertex 8.61227 -1.02914 -6
      vertex 9.20122 -0.68634 -6
    endloop
  endfacet
  facet normal 1 -0 0
    outer loop
      vertex 9.20122 -0.68634 0
      vertex 9.20122 0.68634 -6
      vertex 9.20122 0.68634 0
    endloop
  endfacet
  facet normal 1 0 0
    outer loop
      vertex 9.20122 0.68634 -6
      vertex 9.20122 -0.68634 0
      vertex 9.20122 -0.68634 -6
    endloop
  endfacet
  facet normal 0.503045 0.86426 -0
    outer loop
      vertex 9.20122 0.68634 -6
      vertex 8.61227 1.02914 0
      vertex 9.20122 0.68634 0
    endloop
  endfacet
  facet normal 0.503045 0.86426 0
    outer loop
      vertex 8.61227 1.02914 0
      vertex 9.20122 0.68634 -6
      vertex 8.61227 1.02914 -6
    endloop
  endfacet
  facet normal 0.386547 0.92227 -0
    outer loop
      vertex 8.61227 1.02914 -6
      vertex 8.33004 1.14743 0
      vertex 8.61227 1.02914 0
    endloop
  endfacet
  facet normal 0.386547 0.92227 0
    outer loop
      vertex 8.33004 1.14743 0
      vertex 8.61227 1.02914 -6
      vertex 8.33004 1.14743 -6
    endloop
  endfacet
  facet normal 0.925474 -0.378811 0
    outer loop
      vertex 6.70211 5.08017 0
      vertex 6.8175 5.36208 -6
      vertex 6.8175 5.36208 0
    endloop
  endfacet
  facet normal 0.925474 -0.378811 0
    outer loop
      vertex 6.8175 5.36208 -6
      vertex 6.70211 5.08017 0
      vertex 6.70211 5.08017 -6
    endloop
  endfacet
  facet normal 0.966832 -0.255414 0
    outer loop
      vertex 6.8175 5.36208 0
      vertex 6.99155 6.02092 -6
      vertex 6.99155 6.02092 0
    endloop
  endfacet
  facet normal 0.966832 -0.255414 0
    outer loop
      vertex 6.99155 6.02092 -6
      vertex 6.8175 5.36208 0
      vertex 6.8175 5.36208 -6
    endloop
  endfacet
  facet normal 0.707107 0.707107 0
    outer loop
      vertex 6.99155 6.02092 0
      vertex 6.02092 6.99155 -6
      vertex 6.02092 6.99155 0
    endloop
  endfacet
  facet normal 0.707107 0.707107 0
    outer loop
      vertex 6.02092 6.99155 -6
      vertex 6.99155 6.02092 0
      vertex 6.99155 6.02092 -6
    endloop
  endfacet
  facet normal -0.255414 0.966832 0
    outer loop
      vertex 6.02092 6.99155 -6
      vertex 5.36208 6.8175 0
      vertex 6.02092 6.99155 0
    endloop
  endfacet
  facet normal -0.255414 0.966832 0
    outer loop
      vertex 5.36208 6.8175 0
      vertex 6.02092 6.99155 -6
      vertex 5.36208 6.8175 -6
    endloop
  endfacet
  facet normal -0.378809 0.925475 0
    outer loop
      vertex 5.36208 6.8175 -6
      vertex 5.08635 6.70464 0
      vertex 5.36208 6.8175 0
    endloop
  endfacet
  facet normal -0.378809 0.925475 0
    outer loop
      vertex 5.08635 6.70464 0
      vertex 5.36208 6.8175 -6
      vertex 5.08635 6.70464 -6
    endloop
  endfacet
  facet normal 0.922258 0.386576 0
    outer loop
      vertex 1.14249 8.34185 0
      vertex 1.02914 8.61227 -6
      vertex 1.02914 8.61227 0
    endloop
  endfacet
  facet normal 0.922258 0.386576 0
    outer loop
      vertex 1.02914 8.61227 -6
      vertex 1.14249 8.34185 0
      vertex 1.14249 8.34185 -6
    endloop
  endfacet
  facet normal 0.86426 0.503045 0
    outer loop
      vertex 1.02914 8.61227 0
      vertex 0.68634 9.20122 -6
      vertex 0.68634 9.20122 0
    endloop
  endfacet
  facet normal 0.86426 0.503045 0
    outer loop
      vertex 0.68634 9.20122 -6
      vertex 1.02914 8.61227 0
      vertex 1.02914 8.61227 -6
    endloop
  endfacet
  facet normal 0 1 -0
    outer loop
      vertex 0.68634 9.20122 -6
      vertex -0.68634 9.20122 0
      vertex 0.68634 9.20122 0
    endloop
  endfacet
  facet normal 0 1 0
    outer loop
      vertex -0.68634 9.20122 0
      vertex 0.68634 9.20122 -6
      vertex -0.68634 9.20122 -6
    endloop
  endfacet
  facet normal -0.86426 0.503045 0
    outer loop
      vertex -1.02914 8.61227 -6
      vertex -0.68634 9.20122 0
      vertex -0.68634 9.20122 -6
    endloop
  endfacet
  facet normal -0.86426 0.503045 0
    outer loop
      vertex -0.68634 9.20122 0
      vertex -1.02914 8.61227 -6
      vertex -1.02914 8.61227 0
    endloop
  endfacet
  facet normal -0.922263 0.386564 0
    outer loop
      vertex -1.13772 8.35322 -6
      vertex -1.02914 8.61227 0
      vertex -1.02914 8.61227 -6
    endloop
  endfacet
  facet normal -0.922263 0.386564 0
    outer loop
      vertex -1.02914 8.61227 0
      vertex -1.13772 8.35322 -6
      vertex -1.13772 8.35322 0
    endloop
  endfacet
  facet normal 0.378799 0.925479 -0
    outer loop
      vertex -5.11114 6.71479 -6
      vertex -5.36208 6.8175 0
      vertex -5.11114 6.71479 0
    endloop
  endfacet
  facet normal 0.378799 0.925479 0
    outer loop
      vertex -5.36208 6.8175 0
      vertex -5.11114 6.71479 -6
      vertex -5.36208 6.8175 -6
    endloop
  endfacet
  facet normal 0.255414 0.966832 -0
    outer loop
      vertex -5.36208 6.8175 -6
      vertex -6.02092 6.99155 0
      vertex -5.36208 6.8175 0
    endloop
  endfacet
  facet normal 0.255414 0.966832 0
    outer loop
      vertex -6.02092 6.99155 0
      vertex -5.36208 6.8175 -6
      vertex -6.02092 6.99155 -6
    endloop
  endfacet
  facet normal -0.707107 0.707107 0
    outer loop
      vertex -6.99155 6.02092 -6
      vertex -6.02092 6.99155 0
      vertex -6.02092 6.99155 -6
    endloop
  endfacet
  facet normal -0.707107 0.707107 0
    outer loop
      vertex -6.02092 6.99155 0
      vertex -6.99155 6.02092 -6
      vertex -6.99155 6.02092 0
    endloop
  endfacet
  facet normal -0.966832 -0.255414 0
    outer loop
      vertex -6.8175 5.36208 -6
      vertex -6.99155 6.02092 0
      vertex -6.99155 6.02092 -6
    endloop
  endfacet
  facet normal -0.966832 -0.255414 0
    outer loop
      vertex -6.99155 6.02092 0
      vertex -6.8175 5.36208 -6
      vertex -6.8175 5.36208 0
    endloop
  endfacet
  facet normal -0.925475 -0.37881 0
    outer loop
      vertex -6.72082 5.12588 -6
      vertex -6.8175 5.36208 0
      vertex -6.8175 5.36208 -6
    endloop
  endfacet
  facet normal -0.925475 -0.37881 0
    outer loop
      vertex -6.8175 5.36208 0
      vertex -6.72082 5.12588 -6
      vertex -6.72082 5.12588 0
    endloop
  endfacet
  facet normal -0.386574 0.922258 0
    outer loop
      vertex -8.39307 1.12102 -6
      vertex -8.61227 1.02914 0
      vertex -8.39307 1.12102 0
    endloop
  endfacet
  facet normal -0.386574 0.922258 0
    outer loop
      vertex -8.61227 1.02914 0
      vertex -8.39307 1.12102 -6
      vertex -8.61227 1.02914 -6
    endloop
  endfacet
  facet normal -0.503045 0.86426 0
    outer loop
      vertex -8.61227 1.02914 -6
      vertex -9.20122 0.68634 0
      vertex -8.61227 1.02914 0
    endloop
  endfacet
  facet normal -0.503045 0.86426 0
    outer loop
      vertex -9.20122 0.68634 0
      vertex -8.61227 1.02914 -6
      vertex -9.20122 0.68634 -6
    endloop
  endfacet
  facet normal -1 0 0
    outer loop
      vertex -9.20122 -0.68634 -6
      vertex -9.20122 0.68634 0
      vertex -9.20122 0.68634 -6
    endloop
  endfacet
  facet normal -1 -0 0
    outer loop
      vertex -9.20122 0.68634 0
      vertex -9.20122 -0.68634 -6
      vertex -9.20122 -0.68634 0
    endloop
  endfacet
  facet normal -0.503045 -0.86426 0
    outer loop
      vertex -9.20122 -0.68634 -6
      vertex -8.61227 -1.02914 0
      vertex -9.20122 -0.68634 0
    endloop
  endfacet
  facet normal -0.503045 -0.86426 -0
    outer loop
      vertex -8.61227 -1.02914 0
      vertex -9.20122 -0.68634 -6
      vertex -8.61227 -1.02914 -6
    endloop
  endfacet
  facet normal -0.386574 -0.922258 0
    outer loop
      vertex -8.61227 -1.02914 -6
      vertex -8.39307 -1.12102 0
      vertex -8.61227 -1.02914 0
    endloop
  endfacet
  facet normal -0.386574 -0.922258 -0
    outer loop
      vertex -8.39307 -1.12102 0
      vertex -8.61227 -1.02914 -6
      vertex -8.39307 -1.12102 -6
    endloop
  endfacet
  facet normal -0.925475 0.37881 0
    outer loop
      vertex -6.8175 -5.36208 -6
      vertex -6.72082 -5.12588 0
      vertex -6.72082 -5.12588 -6
    endloop
  endfacet
  facet normal -0.925475 0.37881 0
    outer loop
      vertex -6.72082 -5.12588 0
      vertex -6.8175 -5.36208 -6
      vertex -6.8175 -5.36208 0
    endloop
  endfacet
  facet normal -0.966832 0.255414 0
    outer loop
      vertex -6.99155 -6.02092 -6
      vertex -6.8175 -5.36208 0
      vertex -6.8175 -5.36208 -6
    endloop
  endfacet
  facet normal -0.966832 0.255414 0
    outer loop
      vertex -6.8175 -5.36208 0
      vertex -6.99155 -6.02092 -6
      vertex -6.99155 -6.02092 0
    endloop
  endfacet
  facet normal -0.707107 -0.707107 0
    outer loop
      vertex -6.02092 -6.99155 -6
      vertex -6.99155 -6.02092 0
      vertex -6.99155 -6.02092 -6
    endloop
  endfacet
  facet normal -0.707107 -0.707107 0
    outer loop
      vertex -6.99155 -6.02092 0
      vertex -6.02092 -6.99155 -6
      vertex -6.02092 -6.99155 0
    endloop
  endfacet
  facet normal 0.255414 -0.966832 0
    outer loop
      vertex -6.02092 -6.99155 -6
      vertex -5.36208 -6.8175 0
      vertex -6.02092 -6.99155 0
    endloop
  endfacet
  facet normal 0.255414 -0.966832 0
    outer loop
      vertex -5.36208 -6.8175 0
      vertex -6.02092 -6.99155 -6
      vertex -5.36208 -6.8175 -6
    endloop
  endfacet
  facet normal 0.378799 -0.925479 0
    outer loop
      vertex -5.36208 -6.8175 -6
      vertex -5.11114 -6.71479 0
      vertex -5.36208 -6.8175 0
    endloop
  endfacet
  facet normal 0.378799 -0.925479 0
    outer loop
      vertex -5.11114 -6.71479 0
      vertex -5.36208 -6.8175 -6
      vertex -5.11114 -6.71479 -6
    endloop
  endfacet
  facet normal -0.922263 -0.386564 0
    outer loop
      vertex -1.02914 -8.61227 -6
      vertex -1.13772 -8.35322 0
      vertex -1.13772 -8.35322 -6
    endloop
  endfacet
  facet normal -0.922263 -0.386564 0
    outer loop
      vertex -1.13772 -8.35322 0
      vertex -1.02914 -8.61227 -6
      vertex -1.02914 -8.61227 0
    endloop
  endfacet
  facet normal -0.86426 -0.503045 0
    outer loop
      vertex -0.68634 -9.20122 -6
      vertex -1.02914 -8.61227 0
      vertex -1.02914 -8.61227 -6
    endloop
  endfacet
  facet normal -0.86426 -0.503045 0
    outer loop
      vertex -1.02914 -8.61227 0
      vertex -0.68634 -9.20122 -6
      vertex -0.68634 -9.20122 0
    endloop
  endfacet
  facet normal 0 -1 0
    outer loop
      vertex -0.68634 -9.20122 -6
      vertex 0.68634 -9.20122 0
      vertex -0.68634 -9.20122 0
    endloop
  endfacet
  facet normal 0 -1 -0
    outer loop
      vertex 0.68634 -9.20122 0
      vertex -0.68634 -9.20122 -6
      vertex 0.68634 -9.20122 -6
    endloop
  endfacet
  facet normal 0.86426 -0.503045 0
    outer loop
      vertex 0.68634 -9.20122 0
      vertex 1.02914 -8.61227 -6
      vertex 1.02914 -8.61227 0
    endloop
  endfacet
  facet normal 0.86426 -0.503045 0
    outer loop
      vertex 1.02914 -8.61227 -6
      vertex 0.68634 -9.20122 0
      vertex 0.68634 -9.20122 -6
    endloop
  endfacet
  facet normal 0.53582 0.844332 -0
    outer loop
      vertex -5.11114 -6.71479 -6
      vertex -5.40217 -6.5301 0
      vertex -5.11114 -6.71479 0
    endloop
  endfacet
  facet normal 0.53582 0.844332 0
    outer loop
      vertex -5.40217 -6.5301 0
      vertex -5.11114 -6.71479 -6
      vertex -5.40217 -6.5301 -6
    endloop
  endfacet
  facet normal -0.637424 -0.770513 0
    outer loop
      vertex 5.08635 6.70464 -6
      vertex 6.17801 5.80154 0
      vertex 5.08635 6.70464 0
    endloop
  endfacet
  facet normal -0.637424 -0.770513 -0
    outer loop
      vertex 6.17801 5.80154 0
      vertex 5.08635 6.70464 -6
      vertex 6.17801 5.80154 -6
    endloop
  endfacet
  facet normal 0.728969 0.684547 0
    outer loop
      vertex -5.40217 -6.5301 0
      vertex -6.72082 -5.12588 -6
      vertex -6.72082 -5.12588 0
    endloop
  endfacet
  facet normal 0.728969 0.684547 0
    outer loop
      vertex -6.72082 -5.12588 -6
      vertex -5.40217 -6.5301 0
      vertex -5.40217 -6.5301 -6
    endloop
  endfacet
  facet normal 0.968593 0.248653 0
    outer loop
      vertex -8.39307 -1.12102 0
      vertex -8.40817 -1.0622 -6
      vertex -8.40817 -1.0622 0
    endloop
  endfacet
  facet normal 0.968593 0.248653 0
    outer loop
      vertex -8.40817 -1.0622 -6
      vertex -8.39307 -1.12102 0
      vertex -8.39307 -1.12102 -6
    endloop
  endfacet
  facet normal 0.728969 -0.684547 0
    outer loop
      vertex -6.72082 5.12588 0
      vertex -5.40217 6.5301 -6
      vertex -5.40217 6.5301 0
    endloop
  endfacet
  facet normal 0.728969 -0.684547 0
    outer loop
      vertex -5.40217 6.5301 -6
      vertex -6.72082 5.12588 0
      vertex -6.72082 5.12588 -6
    endloop
  endfacet
  facet normal 0.968593 -0.248653 0
    outer loop
      vertex -8.40817 1.0622 0
      vertex -8.39307 1.12102 -6
      vertex -8.39307 1.12102 0
    endloop
  endfacet
  facet normal 0.968593 -0.248653 0
    outer loop
      vertex -8.39307 1.12102 -6
      vertex -8.40817 1.0622 0
      vertex -8.40817 1.0622 -6
    endloop
  endfacet
  facet normal -0.80902 0.587781 0
    outer loop
      vertex 6.17801 -5.80154 -6
      vertex 6.70211 -5.08017 0
      vertex 6.70211 -5.08017 -6
    endloop
  endfacet
  facet normal -0.80902 0.587781 0
    outer loop
      vertex 6.70211 -5.08017 0
      vertex 6.17801 -5.80154 -6
      vertex 6.17801 -5.80154 0
    endloop
  endfacet
  facet normal 0.53582 -0.844332 0
    outer loop
      vertex -5.40217 6.5301 -6
      vertex -5.11114 6.71479 0
      vertex -5.40217 6.5301 0
    endloop
  endfacet
  facet normal 0.53582 -0.844332 0
    outer loop
      vertex -5.11114 6.71479 0
      vertex -5.40217 6.5301 -6
      vertex -5.11114 6.71479 -6
    endloop
  endfacet
  facet normal 1 -0 0
    outer loop
      vertex -8.40817 -1.0622 0
      vertex -8.40817 1.0622 -6
      vertex -8.40817 1.0622 0
    endloop
  endfacet
  facet normal 1 0 0
    outer loop
      vertex -8.40817 1.0622 -6
      vertex -8.40817 -1.0622 0
      vertex -8.40817 -1.0622 -6
    endloop
  endfacet
  facet normal -0.992114 -0.125338 0
    outer loop
      vertex 8.475 0 -6
      vertex 8.33004 1.14743 0
      vertex 8.33004 1.14743 -6
    endloop
  endfacet
  facet normal -0.992114 -0.125338 0
    outer loop
      vertex 8.33004 1.14743 0
      vertex 8.475 0 -6
      vertex 8.475 0 0
    endloop
  endfacet
  facet normal -0.992114 0.125338 0
    outer loop
      vertex 8.33004 -1.14743 -6
      vertex 8.475 0 0
      vertex 8.475 0 -6
    endloop
  endfacet
  facet normal -0.992114 0.125338 0
    outer loop
      vertex 8.475 0 0
      vertex 8.33004 -1.14743 -6
      vertex 8.33004 -1.14743 0
    endloop
  endfacet
  facet normal -0.80902 -0.587781 0
    outer loop
      vertex 6.70211 5.08017 -6
      vertex 6.17801 5.80154 0
      vertex 6.17801 5.80154 -6
    endloop
  endfacet
  facet normal -0.80902 -0.587781 0
    outer loop
      vertex 6.17801 5.80154 0
      vertex 6.70211 5.08017 -6
      vertex 6.70211 5.08017 0
    endloop
  endfacet
  facet normal 0.062791 0.998027 -0
    outer loop
      vertex 0.532149 -8.45828 -6
      vertex -1.13772 -8.35322 0
      vertex 0.532149 -8.45828 0
    endloop
  endfacet
  facet normal 0.062791 0.998027 0
    outer loop
      vertex -1.13772 -8.35322 0
      vertex 0.532149 -8.45828 -6
      vertex -1.13772 -8.35322 -6
    endloop
  endfacet
  facet normal 0.062791 -0.998027 0
    outer loop
      vertex -1.13772 8.35322 -6
      vertex 0.532149 8.45828 0
      vertex -1.13772 8.35322 0
    endloop
  endfacet
  facet normal 0.062791 -0.998027 0
    outer loop
      vertex 0.532149 8.45828 0
      vertex -1.13772 8.35322 -6
      vertex 0.532149 8.45828 -6
    endloop
  endfacet
  facet normal -0.187383 -0.982287 0
    outer loop
      vertex 0.532149 8.45828 -6
      vertex 1.14249 8.34185 0
      vertex 0.532149 8.45828 0
    endloop
  endfacet
  facet normal -0.187383 -0.982287 -0
    outer loop
      vertex 1.14249 8.34185 0
      vertex 0.532149 8.45828 -6
      vertex 1.14249 8.34185 -6
    endloop
  endfacet
  facet normal -0.187383 0.982287 0
    outer loop
      vertex 1.14249 -8.34185 -6
      vertex 0.532149 -8.45828 0
      vertex 1.14249 -8.34185 0
    endloop
  endfacet
  facet normal -0.187383 0.982287 0
    outer loop
      vertex 0.532149 -8.45828 0
      vertex 1.14249 -8.34185 -6
      vertex 0.532149 -8.45828 -6
    endloop
  endfacet
  facet normal -0.637424 0.770513 0
    outer loop
      vertex 6.17801 -5.80154 -6
      vertex 5.08635 -6.70464 0
      vertex 6.17801 -5.80154 0
    endloop
  endfacet
  facet normal -0.637424 0.770513 0
    outer loop
      vertex 5.08635 -6.70464 0
      vertex 6.17801 -5.80154 -6
      vertex 5.08635 -6.70464 -6
    endloop
  endfacet
endsolid OpenSCAD_Model
