solid OpenSCAD_Model
  facet normal 0 0 -1
    outer loop
      vertex 6.19623 -5.81865 -6
      vertex 6.64584 -5.47389 -6
      vertex 6.79562 -6.222 -6
    endloop
  endfacet
  facet normal 0 0 -1
    outer loop
      vertex 6.19623 -5.81865 -6
      vertex 6.79562 -6.222 -6
      vertex 6.222 -6.79562 -6
    endloop
  endfacet
  facet normal -0 0 -1
    outer loop
      vertex 6.64584 -5.47389 -6
      vertex 6.19623 -5.81865 -6
      vertex 6.58099 -5.28907 -6
    endloop
  endfacet
  facet normal 0 0 -1
    outer loop
      vertex 5.47389 -6.64584 -6
      vertex 6.19623 -5.81865 -6
      vertex 6.222 -6.79562 -6
    endloop
  endfacet
  facet normal 0 0 -1
    outer loop
      vertex 6.19623 -5.81865 -6
      vertex 5.47389 -6.64584 -6
      vertex 5.27899 -6.57746 -6
    endloop
  endfacet
  facet normal 0 0 -1
    outer loop
      vertex 8.5 0 -6
      vertex 9.20486 -0.405609 -6
      vertex 8.56996 -0.82869 -6
    endloop
  endfacet
  facet normal 0 0 -1
    outer loop
      vertex 9.20486 -0.405609 -6
      vertex 8.5 0 -6
      vertex 9.20486 0.405609 -6
    endloop
  endfacet
  facet normal -0 0 -1
    outer loop
      vertex 9.20486 0.405609 -6
      vertex 8.5 0 -6
      vertex 8.56996 0.82869 -6
    endloop
  endfacet
  facet normal 0 -0 -1
    outer loop
      vertex 8.5 0 -6
      vertex 8.56996 -0.82869 -6
      vertex 8.38403 -0.918032 -6
    endloop
  endfacet
  facet normal -0 0 -1
    outer loop
      vertex 8.56996 0.82869 -6
      vertex 8.5 0 -6
      vertex 8.38403 0.918032 -6
    endloop
  endfacet
  facet normal 0 0 -1
    outer loop
      vertex 6.19623 5.81865 -6
      vertex 6.64584 5.47389 -6
      vertex 6.58099 5.28907 -6
    endloop
  endfacet
  facet normal 0 0 -1
    outer loop
      vertex 6.64584 5.47389 -6
      vertex 6.19623 5.81865 -6
      vertex 6.79562 6.222 -6
    endloop
  endfacet
  facet normal -0 0 -1
    outer loop
      vertex 6.79562 6.222 -6
      vertex 6.19623 5.81865 -6
      vertex 6.222 6.79562 -6
    endloop
  endfacet
  facet normal 0 0 -1
    outer loop
      vertex 6.19623 5.81865 -6
      vertex 5.47389 6.64584 -6
      vertex 6.222 6.79562 -6
    endloop
  endfacet
  facet normal 0 -0 -1
    outer loop
      vertex 5.47389 6.64584 -6
      vertex 6.19623 5.81865 -6
      vertex 5.27899 6.57746 -6
    endloop
  endfacet
  facet normal 0 0 -1
    outer loop
      vertex 0.533719 8.48323 -6
      vertex 0.82869 8.56996 -6
      vertex 0.904337 8.41253 -6
    endloop
  endfacet
  facet normal 0 0 -1
    outer loop
      vertex 0.533719 8.48323 -6
      vertex 0.405609 9.20486 -6
      vertex 0.82869 8.56996 -6
    endloop
  endfacet
  facet normal 0 0 -1
    outer loop
      vertex 0.533719 8.48323 -6
      vertex -0.405609 9.20486 -6
      vertex 0.405609 9.20486 -6
    endloop
  endfacet
  facet normal 0 0 -1
    outer loop
      vertex 0.533719 8.48323 -6
      vertex -0.82869 8.56996 -6
      vertex -0.405609 9.20486 -6
    endloop
  endfacet
  facet normal 0 -0 -1
    outer loop
      vertex -0.82869 8.56996 -6
      vertex 0.533719 8.48323 -6
      vertex -0.914135 8.39214 -6
    endloop
  endfacet
  facet normal 0 0 -1
    outer loop
      vertex -5.4181 6.54936 -6
      vertex -5.47389 6.64584 -6
      vertex -5.34007 6.59889 -6
    endloop
  endfacet
  facet normal 0 0 -1
    outer loop
      vertex -5.4181 6.54936 -6
      vertex -6.222 6.79562 -6
      vertex -5.47389 6.64584 -6
    endloop
  endfacet
  facet normal 0 0 -1
    outer loop
      vertex -6.64584 5.47389 -6
      vertex -5.4181 6.54936 -6
      vertex -6.5866 5.30504 -6
    endloop
  endfacet
  facet normal 0 0 -1
    outer loop
      vertex -6.79562 6.222 -6
      vertex -5.4181 6.54936 -6
      vertex -6.64584 5.47389 -6
    endloop
  endfacet
  facet normal -0 0 -1
    outer loop
      vertex -5.4181 6.54936 -6
      vertex -6.79562 6.222 -6
      vertex -6.222 6.79562 -6
    endloop
  endfacet
  facet normal 0 0 -1
    outer loop
      vertex -8.56996 -0.82869 -6
      vertex -8.43297 0.894512 -6
      vertex -8.43297 -0.894512 -6
    endloop
  endfacet
  facet normal 0 0 -1
    outer loop
      vertex -8.56996 -0.82869 -6
      vertex -8.56996 0.82869 -6
      vertex -8.43297 0.894512 -6
    endloop
  endfacet
  facet normal 0 0 -1
    outer loop
      vertex -9.20486 -0.405609 -6
      vertex -8.56996 0.82869 -6
      vertex -8.56996 -0.82869 -6
    endloop
  endfacet
  facet normal 0 0 -1
    outer loop
      vertex -8.56996 0.82869 -6
      vertex -9.20486 -0.405609 -6
      vertex -9.20486 0.405609 -6
    endloop
  endfacet
  facet normal 0 0 -1
    outer loop
      vertex -5.47389 -6.64584 -6
      vertex -5.4181 -6.54936 -6
      vertex -5.34007 -6.59889 -6
    endloop
  endfacet
  facet normal 0 0 -1
    outer loop
      vertex -6.222 -6.79562 -6
      vertex -5.4181 -6.54936 -6
      vertex -5.47389 -6.64584 -6
    endloop
  endfacet
  facet normal 0 0 -1
    outer loop
      vertex -6.79562 -6.222 -6
      vertex -5.4181 -6.54936 -6
      vertex -6.222 -6.79562 -6
    endloop
  endfacet
  facet normal 0 0 -1
    outer loop
      vertex -5.4181 -6.54936 -6
      vertex -6.64584 -5.47389 -6
      vertex -6.5866 -5.30504 -6
    endloop
  endfacet
  facet normal 0 0 -1
    outer loop
      vertex -5.4181 -6.54936 -6
      vertex -6.79562 -6.222 -6
      vertex -6.64584 -5.47389 -6
    endloop
  endfacet
  facet normal 0 0 -1
    outer loop
      vertex 0.82869 -8.56996 -6
      vertex 0.533719 -8.48323 -6
      vertex 0.904337 -8.41253 -6
    endloop
  endfacet
  facet normal 0 0 -1
    outer loop
      vertex 0.405609 -9.20486 -6
      vertex 0.533719 -8.48323 -6
      vertex 0.82869 -8.56996 -6
    endloop
  endfacet
  facet normal 0 0 -1
    outer loop
      vertex -0.405609 -9.20486 -6
      vertex 0.533719 -8.48323 -6
      vertex 0.405609 -9.20486 -6
    endloop
  endfacet
  facet normal 0 0 -1
    outer loop
      vertex -0.82869 -8.56996 -6
      vertex 0.533719 -8.48323 -6
      vertex -0.405609 -9.20486 -6
    endloop
  endfacet
  facet normal -0 0 -1
    outer loop
      vertex 0.533719 -8.48323 -6
      vertex -0.82869 -8.56996 -6
      vertex -0.914135 -8.39214 -6
    endloop
  endfacet
  facet normal 0 0 1
    outer loop
      vertex 6.19623 -5.81865 0
      vertex 6.64584 -5.47389 0
      vertex 6.58099 -5.28907 0
    endloop
  endfacet
  facet normal 0 0 1
    outer loop
      vertex 6.64584 -5.47389 0
      vertex 6.19623 -5.81865 0
      vertex 6.79562 -6.222 0
    endloop
  endfacet
  facet normal 0 0 1
    outer loop
      vertex 6.79562 -6.222 0
      vertex 6.19623 -5.81865 0
      vertex 6.222 -6.79562 0
    endloop
  endfacet
  facet normal 0 0 1
    outer loop
      vertex 6.19623 -5.81865 0
      vertex 5.47389 -6.64584 0
      vertex 6.222 -6.79562 0
    endloop
  endfacet
  facet normal 0 -0 1
    outer loop
      vertex 5.47389 -6.64584 0
      vertex 6.19623 -5.81865 0
      vertex 5.27899 -6.57746 0
    endloop
  endfacet
  facet normal 0 0 1
    outer loop
      vertex 8.5 0 0
      vertex 9.20486 0.405609 0
      vertex 8.56996 0.82869 0
    endloop
  endfacet
  facet normal 0 0 1
    outer loop
      vertex 9.20486 0.405609 0
      vertex 8.5 0 0
      vertex 9.20486 -0.405609 0
    endloop
  endfacet
  facet normal 0 0 1
    outer loop
      vertex 9.20486 -0.405609 0
      vertex 8.5 0 0
      vertex 8.56996 -0.82869 0
    endloop
  endfacet
  facet normal 0 -0 1
    outer loop
      vertex 8.5 0 0
      vertex 8.56996 0.82869 0
      vertex 8.38403 0.918032 0
    endloop
  endfacet
  facet normal 0 0 1
    outer loop
      vertex 8.56996 -0.82869 0
      vertex 8.5 0 0
      vertex 8.38403 -0.918032 0
    endloop
  endfacet
  facet normal -0 0 1
    outer loop
      vertex 6.19623 5.81865 0
      vertex 6.64584 5.47389 0
      vertex 6.79562 6.222 0
    endloop
  endfacet
  facet normal 0 0 1
    outer loop
      vertex 6.19623 5.81865 0
      vertex 6.79562 6.222 0
      vertex 6.222 6.79562 0
    endloop
  endfacet
  facet normal 0 0 1
    outer loop
      vertex 6.64584 5.47389 0
      vertex 6.19623 5.81865 0
      vertex 6.58099 5.28907 0
    endloop
  endfacet
  facet normal -0 0 1
    outer loop
      vertex 5.47389 6.64584 0
      vertex 6.19623 5.81865 0
      vertex 6.222 6.79562 0
    endloop
  endfacet
  facet normal 0 0 1
    outer loop
      vertex 6.19623 5.81865 0
      vertex 5.47389 6.64584 0
      vertex 5.27899 6.57746 0
    endloop
  endfacet
  facet normal 0 0 1
    outer loop
      vertex 0.82869 8.56996 0
      vertex 0.533719 8.48323 0
      vertex 0.904337 8.41253 0
    endloop
  endfacet
  facet normal 0 0 1
    outer loop
      vertex 0.405609 9.20486 0
      vertex 0.533719 8.48323 0
      vertex 0.82869 8.56996 0
    endloop
  endfacet
  facet normal -0 0 1
    outer loop
      vertex -0.405609 9.20486 0
      vertex 0.533719 8.48323 0
      vertex 0.405609 9.20486 0
    endloop
  endfacet
  facet normal -0 0 1
    outer loop
      vertex -0.82869 8.56996 0
      vertex 0.533719 8.48323 0
      vertex -0.405609 9.20486 0
    endloop
  endfacet
  facet normal 0 0 1
    outer loop
      vertex 0.533719 8.48323 0
      vertex -0.82869 8.56996 0
      vertex -0.914135 8.39214 0
    endloop
  endfacet
  facet normal 0 0 1
    outer loop
      vertex -5.47389 6.64584 0
      vertex -5.4181 6.54936 0
      vertex -5.34007 6.59889 0
    endloop
  endfacet
  facet normal 0 0 1
    outer loop
      vertex -6.222 6.79562 0
      vertex -5.4181 6.54936 0
      vertex -5.47389 6.64584 0
    endloop
  endfacet
  facet normal 0 0 1
    outer loop
      vertex -6.79562 6.222 0
      vertex -5.4181 6.54936 0
      vertex -6.222 6.79562 0
    endloop
  endfacet
  facet normal 0 0 1
    outer loop
      vertex -5.4181 6.54936 0
      vertex -6.64584 5.47389 0
      vertex -6.5866 5.30504 0
    endloop
  endfacet
  facet normal 0 0 1
    outer loop
      vertex -5.4181 6.54936 0
      vertex -6.79562 6.222 0
      vertex -6.64584 5.47389 0
    endloop
  endfacet
  facet normal -0 0 1
    outer loop
      vertex -8.56996 0.82869 0
      vertex -8.43297 -0.894512 0
      vertex -8.43297 0.894512 0
    endloop
  endfacet
  facet normal 0 0 1
    outer loop
      vertex -8.56996 0.82869 0
      vertex -8.56996 -0.82869 0
      vertex -8.43297 -0.894512 0
    endloop
  endfacet
  facet normal -0 0 1
    outer loop
      vertex -9.20486 0.405609 0
      vertex -8.56996 -0.82869 0
      vertex -8.56996 0.82869 0
    endloop
  endfacet
  facet normal 0 0 1
    outer loop
      vertex -8.56996 -0.82869 0
      vertex -9.20486 0.405609 0
      vertex -9.20486 -0.405609 0
    endloop
  endfacet
  facet normal 0 0 1
    outer loop
      vertex -5.4181 -6.54936 0
      vertex -5.47389 -6.64584 0
      vertex -5.34007 -6.59889 0
    endloop
  endfacet
  facet normal 0 0 1
    outer loop
      vertex -5.4181 -6.54936 0
      vertex -6.222 -6.79562 0
      vertex -5.47389 -6.64584 0
    endloop
  endfacet
  facet normal -0 0 1
    outer loop
      vertex -6.64584 -5.47389 0
      vertex -5.4181 -6.54936 0
      vertex -6.5866 -5.30504 0
    endloop
  endfacet
  facet normal -0 0 1
    outer loop
      vertex -6.79562 -6.222 0
      vertex -5.4181 -6.54936 0
      vertex -6.64584 -5.47389 0
    endloop
  endfacet
  facet normal 0 0 1
    outer loop
      vertex -5.4181 -6.54936 0
      vertex -6.79562 -6.222 0
      vertex -6.222 -6.79562 0
    endloop
  endfacet
  facet normal -0 0 1
    outer loop
      vertex 0.533719 -8.48323 0
      vertex 0.82869 -8.56996 0
      vertex 0.904337 -8.41253 0
    endloop
  endfacet
  facet normal 0 0 1
    outer loop
      vertex 0.533719 -8.48323 0
      vertex 0.405609 -9.20486 0
      vertex 0.82869 -8.56996 0
    endloop
  endfacet
  facet normal 0 0 1
    outer loop
      vertex 0.533719 -8.48323 0
      vertex -0.405609 -9.20486 0
      vertex 0.405609 -9.20486 0
    endloop
  endfacet
  facet normal 0 0 1
    outer loop
      vertex 0.533719 -8.48323 0
      vertex -0.82869 -8.56996 0
      vertex -0.405609 -9.20486 0
    endloop
  endfacet
  facet normal 0 -0 1
    outer loop
      vertex -0.82869 -8.56996 0
      vertex 0.533719 -8.48323 0
      vertex -0.914135 -8.39214 0
    endloop
  endfacet
  facet normal 0.901343 -0.433106 0
    outer loop
      vertex 0.82869 -8.56996 0
      vertex 0.904337 -8.41253 -6
      vertex 0.904337 -8.41253 0
    endloop
  endfacet
  facet normal 0.901343 -0.433106 0
    outer loop
      vertex 0.904337 -8.41253 -6
      vertex 0.82869 -8.56996 0
      vertex 0.82869 -8.56996 -6
    endloop
  endfacet
  facet normal -0.331062 -0.943609 0
    outer loop
      vertex 5.27899 -6.57746 -6
      vertex 5.47389 -6.64584 0
      vertex 5.27899 -6.57746 0
    endloop
  endfacet
  facet normal -0.331062 -0.943609 -0
    outer loop
      vertex 5.47389 -6.64584 0
      vertex 5.27899 -6.57746 -6
      vertex 5.47389 -6.64584 -6
    endloop
  endfacet
  facet normal -0.196315 -0.980541 0
    outer loop
      vertex 5.47389 -6.64584 -6
      vertex 6.222 -6.79562 0
      vertex 5.47389 -6.64584 0
    endloop
  endfacet
  facet normal -0.196315 -0.980541 -0
    outer loop
      vertex 6.222 -6.79562 0
      vertex 5.47389 -6.64584 -6
      vertex 6.222 -6.79562 -6
    endloop
  endfacet
  facet normal 0.707107 -0.707107 0
    outer loop
      vertex 6.222 -6.79562 0
      vertex 6.79562 -6.222 -6
      vertex 6.79562 -6.222 0
    endloop
  endfacet
  facet normal 0.707107 -0.707107 0
    outer loop
      vertex 6.79562 -6.222 -6
      vertex 6.222 -6.79562 0
      vertex 6.222 -6.79562 -6
    endloop
  endfacet
  facet normal 0.980541 0.196315 0
    outer loop
      vertex 6.79562 -6.222 0
      vertex 6.64584 -5.47389 -6
      vertex 6.64584 -5.47389 0
    endloop
  endfacet
  facet normal 0.980541 0.196315 0
    outer loop
      vertex 6.64584 -5.47389 -6
      vertex 6.79562 -6.222 0
      vertex 6.79562 -6.222 -6
    endloop
  endfacet
  facet normal 0.943599 0.331092 0
    outer loop
      vertex 6.64584 -5.47389 0
      vertex 6.58099 -5.28907 -6
      vertex 6.58099 -5.28907 0
    endloop
  endfacet
  facet normal 0.943599 0.331092 0
    outer loop
      vertex 6.58099 -5.28907 -6
      vertex 6.64584 -5.47389 0
      vertex 6.64584 -5.47389 -6
    endloop
  endfacet
  facet normal 0.433108 -0.901342 0
    outer loop
      vertex 8.38403 -0.918032 -6
      vertex 8.56996 -0.82869 0
      vertex 8.38403 -0.918032 0
    endloop
  endfacet
  facet normal 0.433108 -0.901342 0
    outer loop
      vertex 8.56996 -0.82869 0
      vertex 8.38403 -0.918032 -6
      vertex 8.56996 -0.82869 -6
    endloop
  endfacet
  facet normal 0.554532 -0.832163 0
    outer loop
      vertex 8.56996 -0.82869 -6
      vertex 9.20486 -0.405609 0
      vertex 8.56996 -0.82869 0
    endloop
  endfacet
  facet normal 0.554532 -0.832163 0
    outer loop
      vertex 9.20486 -0.405609 0
      vertex 8.56996 -0.82869 -6
      vertex 9.20486 -0.405609 -6
    endloop
  endfacet
  facet normal 1 -0 0
    outer loop
      vertex 9.20486 -0.405609 0
      vertex 9.20486 0.405609 -6
      vertex 9.20486 0.405609 0
    endloop
  endfacet
  facet normal 1 0 0
    outer loop
      vertex 9.20486 0.405609 -6
      vertex 9.20486 -0.405609 0
      vertex 9.20486 -0.405609 -6
    endloop
  endfacet
  facet normal 0.554532 0.832163 -0
    outer loop
      vertex 9.20486 0.405609 -6
      vertex 8.56996 0.82869 0
      vertex 9.20486 0.405609 0
    endloop
  endfacet
  facet normal 0.554532 0.832163 0
    outer loop
      vertex 8.56996 0.82869 0
      vertex 9.20486 0.405609 -6
      vertex 8.56996 0.82869 -6
    endloop
  endfacet
  facet normal 0.433108 0.901342 -0
    outer loop
      vertex 8.56996 0.82869 -6
      vertex 8.38403 0.918032 0
      vertex 8.56996 0.82869 0
    endloop
  endfacet
  facet normal 0.433108 0.901342 0
    outer loop
      vertex 8.38403 0.918032 0
      vertex 8.56996 0.82869 -6
      vertex 8.38403 0.918032 -6
    endloop
  endfacet
  facet normal 0.943599 -0.331092 0
    outer loop
      vertex 6.58099 5.28907 0
      vertex 6.64584 5.47389 -6
      vertex 6.64584 5.47389 0
    endloop
  endfacet
  facet normal 0.943599 -0.331092 0
    outer loop
      vertex 6.64584 5.47389 -6
      vertex 6.58099 5.28907 0
      vertex 6.58099 5.28907 -6
    endloop
  endfacet
  facet normal 0.980541 -0.196315 0
    outer loop
      vertex 6.64584 5.47389 0
      vertex 6.79562 6.222 -6
      vertex 6.79562 6.222 0
    endloop
  endfacet
  facet normal 0.980541 -0.196315 0
    outer loop
      vertex 6.79562 6.222 -6
      vertex 6.64584 5.47389 0
      vertex 6.64584 5.47389 -6
    endloop
  endfacet
  facet normal 0.707107 0.707107 0
    outer loop
      vertex 6.79562 6.222 0
      vertex 6.222 6.79562 -6
      vertex 6.222 6.79562 0
    endloop
  endfacet
  facet normal 0.707107 0.707107 0
    outer loop
      vertex 6.222 6.79562 -6
      vertex 6.79562 6.222 0
      vertex 6.79562 6.222 -6
    endloop
  endfacet
  facet normal -0.196315 0.980541 0
    outer loop
      vertex 6.222 6.79562 -6
      vertex 5.47389 6.64584 0
      vertex 6.222 6.79562 0
    endloop
  endfacet
  facet normal -0.196315 0.980541 0
    outer loop
      vertex 5.47389 6.64584 0
      vertex 6.222 6.79562 -6
      vertex 5.47389 6.64584 -6
    endloop
  endfacet
  facet normal -0.331062 0.943609 0
    outer loop
      vertex 5.47389 6.64584 -6
      vertex 5.27899 6.57746 0
      vertex 5.47389 6.64584 0
    endloop
  endfacet
  facet normal -0.331062 0.943609 0
    outer loop
      vertex 5.27899 6.57746 0
      vertex 5.47389 6.64584 -6
      vertex 5.27899 6.57746 -6
    endloop
  endfacet
  facet normal 0.901343 0.433106 0
    outer loop
      vertex 0.904337 8.41253 0
      vertex 0.82869 8.56996 -6
      vertex 0.82869 8.56996 0
    endloop
  endfacet
  facet normal 0.901343 0.433106 0
    outer loop
      vertex 0.82869 8.56996 -6
      vertex 0.904337 8.41253 0
      vertex 0.904337 8.41253 -6
    endloop
  endfacet
  facet normal 0.832163 0.554532 0
    outer loop
      vertex 0.82869 8.56996 0
      vertex 0.405609 9.20486 -6
      vertex 0.405609 9.20486 0
    endloop
  endfacet
  facet normal 0.832163 0.554532 0
    outer loop
      vertex 0.405609 9.20486 -6
      vertex 0.82869 8.56996 0
      vertex 0.82869 8.56996 -6
    endloop
  endfacet
  facet normal 0 1 -0
    outer loop
      vertex 0.405609 9.20486 -6
      vertex -0.405609 9.20486 0
      vertex 0.405609 9.20486 0
    endloop
  endfacet
  facet normal 0 1 0
    outer loop
      vertex -0.405609 9.20486 0
      vertex 0.405609 9.20486 -6
      vertex -0.405609 9.20486 -6
    endloop
  endfacet
  facet normal -0.832163 0.554532 0
    outer loop
      vertex -0.82869 8.56996 -6
      vertex -0.405609 9.20486 0
      vertex -0.405609 9.20486 -6
    endloop
  endfacet
  facet normal -0.832163 0.554532 0
    outer loop
      vertex -0.405609 9.20486 0
      vertex -0.82869 8.56996 -6
      vertex -0.82869 8.56996 0
    endloop
  endfacet
  facet normal -0.901342 0.433108 0
    outer loop
      vertex -0.914135 8.39214 -6
      vertex -0.82869 8.56996 0
      vertex -0.82869 8.56996 -6
    endloop
  endfacet
  facet normal -0.901342 0.433108 0
    outer loop
      vertex -0.82869 8.56996 0
      vertex -0.914135 8.39214 -6
      vertex -0.914135 8.39214 0
    endloop
  endfacet
  facet normal 0.33106 0.94361 -0
    outer loop
      vertex -5.34007 6.59889 -6
      vertex -5.47389 6.64584 0
      vertex -5.34007 6.59889 0
    endloop
  endfacet
  facet normal 0.33106 0.94361 0
    outer loop
      vertex -5.47389 6.64584 0
      vertex -5.34007 6.59889 -6
      vertex -5.47389 6.64584 -6
    endloop
  endfacet
  facet normal 0.196315 0.980541 -0
    outer loop
      vertex -5.47389 6.64584 -6
      vertex -6.222 6.79562 0
      vertex -5.47389 6.64584 0
    endloop
  endfacet
  facet normal 0.196315 0.980541 0
    outer loop
      vertex -6.222 6.79562 0
      vertex -5.47389 6.64584 -6
      vertex -6.222 6.79562 -6
    endloop
  endfacet
  facet normal -0.707107 0.707107 0
    outer loop
      vertex -6.79562 6.222 -6
      vertex -6.222 6.79562 0
      vertex -6.222 6.79562 -6
    endloop
  endfacet
  facet normal -0.707107 0.707107 0
    outer loop
      vertex -6.222 6.79562 0
      vertex -6.79562 6.222 -6
      vertex -6.79562 6.222 0
    endloop
  endfacet
  facet normal -0.980541 -0.196315 0
    outer loop
      vertex -6.64584 5.47389 -6
      vertex -6.79562 6.222 0
      vertex -6.79562 6.222 -6
    endloop
  endfacet
  facet normal -0.980541 -0.196315 0
    outer loop
      vertex -6.79562 6.222 0
      vertex -6.64584 5.47389 -6
      vertex -6.64584 5.47389 0
    endloop
  endfacet
  facet normal -0.94361 -0.33106 0
    outer loop
      vertex -6.5866 5.30504 -6
      vertex -6.64584 5.47389 0
      vertex -6.64584 5.47389 -6
    endloop
  endfacet
  facet normal -0.94361 -0.33106 0
    outer loop
      vertex -6.64584 5.47389 0
      vertex -6.5866 5.30504 -6
      vertex -6.5866 5.30504 0
    endloop
  endfacet
  facet normal -0.433088 0.901352 0
    outer loop
      vertex -8.43297 0.894512 -6
      vertex -8.56996 0.82869 0
      vertex -8.43297 0.894512 0
    endloop
  endfacet
  facet normal -0.433088 0.901352 0
    outer loop
      vertex -8.56996 0.82869 0
      vertex -8.43297 0.894512 -6
      vertex -8.56996 0.82869 -6
    endloop
  endfacet
  facet normal -0.554532 0.832163 0
    outer loop
      vertex -8.56996 0.82869 -6
      vertex -9.20486 0.405609 0
      vertex -8.56996 0.82869 0
    endloop
  endfacet
  facet normal -0.554532 0.832163 0
    outer loop
      vertex -9.20486 0.405609 0
      vertex -8.56996 0.82869 -6
      vertex -9.20486 0.405609 -6
    endloop
  endfacet
  facet normal -1 0 0
    outer loop
      vertex -9.20486 -0.405609 -6
      vertex -9.20486 0.405609 0
      vertex -9.20486 0.405609 -6
    endloop
  endfacet
  facet normal -1 -0 0
    outer loop
      vertex -9.20486 0.405609 0
      vertex -9.20486 -0.405609 -6
      vertex -9.20486 -0.405609 0
    endloop
  endfacet
  facet normal -0.554532 -0.832163 0
    outer loop
      vertex -9.20486 -0.405609 -6
      vertex -8.56996 -0.82869 0
      vertex -9.20486 -0.405609 0
    endloop
  endfacet
  facet normal -0.554532 -0.832163 -0
    outer loop
      vertex -8.56996 -0.82869 0
      vertex -9.20486 -0.405609 -6
      vertex -8.56996 -0.82869 -6
    endloop
  endfacet
  facet normal -0.433088 -0.901352 0
    outer loop
      vertex -8.56996 -0.82869 -6
      vertex -8.43297 -0.894512 0
      vertex -8.56996 -0.82869 0
    endloop
  endfacet
  facet normal -0.433088 -0.901352 -0
    outer loop
      vertex -8.43297 -0.894512 0
      vertex -8.56996 -0.82869 -6
      vertex -8.43297 -0.894512 -6
    endloop
  endfacet
  facet normal -0.94361 0.33106 0
    outer loop
      vertex -6.64584 -5.47389 -6
      vertex -6.5866 -5.30504 0
      vertex -6.5866 -5.30504 -6
    endloop
  endfacet
  facet normal -0.94361 0.33106 0
    outer loop
      vertex -6.5866 -5.30504 0
      vertex -6.64584 -5.47389 -6
      vertex -6.64584 -5.47389 0
    endloop
  endfacet
  facet normal -0.980541 0.196315 0
    outer loop
      vertex -6.79562 -6.222 -6
      vertex -6.64584 -5.47389 0
      vertex -6.64584 -5.47389 -6
    endloop
  endfacet
  facet normal -0.980541 0.196315 0
    outer loop
      vertex -6.64584 -5.47389 0
      vertex -6.79562 -6.222 -6
      vertex -6.79562 -6.222 0
    endloop
  endfacet
  facet normal -0.707107 -0.707107 0
    outer loop
      vertex -6.222 -6.79562 -6
      vertex -6.79562 -6.222 0
      vertex -6.79562 -6.222 -6
    endloop
  endfacet
  facet normal -0.707107 -0.707107 0
    outer loop
      vertex -6.79562 -6.222 0
      vertex -6.222 -6.79562 -6
      vertex -6.222 -6.79562 0
    endloop
  endfacet
  facet normal 0.196315 -0.980541 0
    outer loop
      vertex -6.222 -6.79562 -6
      vertex -5.47389 -6.64584 0
      vertex -6.222 -6.79562 0
    endloop
  endfacet
  facet normal 0.196315 -0.980541 0
    outer loop
      vertex -5.47389 -6.64584 0
      vertex -6.222 -6.79562 -6
      vertex -5.47389 -6.64584 -6
    endloop
  endfacet
  facet normal 0.33106 -0.94361 0
    outer loop
      vertex -5.47389 -6.64584 -6
      vertex -5.34007 -6.59889 0
      vertex -5.47389 -6.64584 0
    endloop
  endfacet
  facet normal 0.33106 -0.94361 0
    outer loop
      vertex -5.34007 -6.59889 0
      vertex -5.47389 -6.64584 -6
      vertex -5.34007 -6.59889 -6
    endloop
  endfacet
  facet normal -0.901342 -0.433108 0
    outer loop
      vertex -0.82869 -8.56996 -6
      vertex -0.914135 -8.39214 0
      vertex -0.914135 -8.39214 -6
    endloop
  endfacet
  facet normal -0.901342 -0.433108 0
    outer loop
      vertex -0.914135 -8.39214 0
      vertex -0.82869 -8.56996 -6
      vertex -0.82869 -8.56996 0
    endloop
  endfacet
  facet normal -0.832163 -0.554532 0
    outer loop
      vertex -0.405609 -9.20486 -6
      vertex -0.82869 -8.56996 0
      vertex -0.82869 -8.56996 -6
    endloop
  endfacet
  facet normal -0.832163 -0.554532 0
    outer loop
      vertex -0.82869 -8.56996 0
      vertex -0.405609 -9.20486 -6
      vertex -0.405609 -9.20486 0
    endloop
  endfacet
  facet normal 0 -1 0
    outer loop
      vertex -0.405609 -9.20486 -6
      vertex 0.405609 -9.20486 0
      vertex -0.405609 -9.20486 0
    endloop
  endfacet
  facet normal 0 -1 -0
    outer loop
      vertex 0.405609 -9.20486 0
      vertex -0.405609 -9.20486 -6
      vertex 0.405609 -9.20486 -6
    endloop
  endfacet
  facet normal 0.832163 -0.554532 0
    outer loop
      vertex 0.405609 -9.20486 0
      vertex 0.82869 -8.56996 -6
      vertex 0.82869 -8.56996 0
    endloop
  endfacet
  facet normal 0.832163 -0.554532 0
    outer loop
      vertex 0.82869 -8.56996 -6
      vertex 0.405609 -9.20486 0
      vertex 0.405609 -9.20486 -6
    endloop
  endfacet
  facet normal -0.992115 -0.125329 0
    outer loop
      vertex 8.5 0 -6
      vertex 8.38403 0.918032 0
      vertex 8.38403 0.918032 -6
    endloop
  endfacet
  facet normal -0.992115 -0.125329 0
    outer loop
      vertex 8.38403 0.918032 0
      vertex 8.5 0 -6
      vertex 8.5 0 0
    endloop
  endfacet
  facet normal -0.637426 -0.770512 0
    outer loop
      vertex 5.27899 6.57746 -6
      vertex 6.19623 5.81865 0
      vertex 5.27899 6.57746 0
    endloop
  endfacet
  facet normal -0.637426 -0.770512 -0
    outer loop
      vertex 6.19623 5.81865 0
      vertex 5.27899 6.57746 -6
      vertex 6.19623 5.81865 -6
    endloop
  endfacet
  facet normal -0.809019 -0.587783 0
    outer loop
      vertex 6.58099 5.28907 -6
      vertex 6.19623 5.81865 0
      vertex 6.19623 5.81865 -6
    endloop
  endfacet
  facet normal -0.809019 -0.587783 0
    outer loop
      vertex 6.19623 5.81865 0
      vertex 6.58099 5.28907 -6
      vertex 6.58099 5.28907 0
    endloop
  endfacet
  facet normal 0.728967 -0.684549 0
    outer loop
      vertex -6.5866 5.30504 0
      vertex -5.4181 6.54936 -6
      vertex -5.4181 6.54936 0
    endloop
  endfacet
  facet normal 0.728967 -0.684549 0
    outer loop
      vertex -5.4181 6.54936 -6
      vertex -6.5866 5.30504 0
      vertex -6.5866 5.30504 -6
    endloop
  endfacet
  facet normal 0.535909 0.844276 -0
    outer loop
      vertex -5.34007 -6.59889 -6
      vertex -5.4181 -6.54936 0
      vertex -5.34007 -6.59889 0
    endloop
  endfacet
  facet normal 0.535909 0.844276 0
    outer loop
      vertex -5.4181 -6.54936 0
      vertex -5.34007 -6.59889 -6
      vertex -5.4181 -6.54936 -6
    endloop
  endfacet
  facet normal -0.637426 0.770512 0
    outer loop
      vertex 6.19623 -5.81865 -6
      vertex 5.27899 -6.57746 0
      vertex 6.19623 -5.81865 0
    endloop
  endfacet
  facet normal -0.637426 0.770512 0
    outer loop
      vertex 5.27899 -6.57746 0
      vertex 6.19623 -5.81865 -6
      vertex 5.27899 -6.57746 -6
    endloop
  endfacet
  facet normal 0.535909 -0.844276 0
    outer loop
      vertex -5.4181 6.54936 -6
      vertex -5.34007 6.59889 0
      vertex -5.4181 6.54936 0
    endloop
  endfacet
  facet normal 0.535909 -0.844276 0
    outer loop
      vertex -5.34007 6.59889 0
      vertex -5.4181 6.54936 -6
      vertex -5.34007 6.59889 -6
    endloop
  endfacet
  facet normal -0.809019 0.587783 0
    outer loop
      vertex 6.19623 -5.81865 -6
      vertex 6.58099 -5.28907 0
      vertex 6.58099 -5.28907 -6
    endloop
  endfacet
  facet normal -0.809019 0.587783 0
    outer loop
      vertex 6.58099 -5.28907 0
      vertex 6.19623 -5.81865 -6
      vertex 6.19623 -5.81865 0
    endloop
  endfacet
  facet normal -0.187383 0.982287 0
    outer loop
      vertex 0.904337 -8.41253 -6
      vertex 0.533719 -8.48323 0
      vertex 0.904337 -8.41253 0
    endloop
  endfacet
  facet normal -0.187383 0.982287 0
    outer loop
      vertex 0.533719 -8.48323 0
      vertex 0.904337 -8.41253 -6
      vertex 0.533719 -8.48323 -6
    endloop
  endfacet
  facet normal 0.728967 0.684549 0
    outer loop
      vertex -5.4181 -6.54936 0
      vertex -6.5866 -5.30504 -6
      vertex -6.5866 -5.30504 0
    endloop
  endfacet
  facet normal 0.728967 0.684549 0
    outer loop
      vertex -6.5866 -5.30504 -6
      vertex -5.4181 -6.54936 0
      vertex -5.4181 -6.54936 -6
    endloop
  endfacet
  facet normal -0.992115 0.125329 0
    outer loop
      vertex 8.38403 -0.918032 -6
      vertex 8.5 0 0
      vertex 8.5 0 -6
    endloop
  endfacet
  facet normal -0.992115 0.125329 0
    outer loop
      vertex 8.5 0 0
      vertex 8.38403 -0.918032 -6
      vertex 8.38403 -0.918032 0
    endloop
  endfacet
  facet normal 0.0627897 0.998027 -0
    outer loop
      vertex 0.533719 -8.48323 -6
      vertex -0.914135 -8.39214 0
      vertex 0.533719 -8.48323 0
    endloop
  endfacet
  facet normal 0.0627897 0.998027 0
    outer loop
      vertex -0.914135 -8.39214 0
      vertex 0.533719 -8.48323 -6
      vertex -0.914135 -8.39214 -6
    endloop
  endfacet
  facet normal 1 -0 0
    outer loop
      vertex -8.43297 -0.894512 0
      vertex -8.43297 0.894512 -6
      vertex -8.43297 0.894512 0
    endloop
  endfacet
  facet normal 1 0 0
    outer loop
      vertex -8.43297 0.894512 -6
      vertex -8.43297 -0.894512 0
      vertex -8.43297 -0.894512 -6
    endloop
  endfacet
  facet normal 0.0627897 -0.998027 0
    outer loop
      vertex -0.914135 8.39214 -6
      vertex 0.533719 8.48323 0
      vertex -0.914135 8.39214 0
    endloop
  endfacet
  facet normal 0.0627897 -0.998027 0
    outer loop
      vertex 0.533719 8.48323 0
      vertex -0.914135 8.39214 -6
      vertex 0.533719 8.48323 -6
    endloop
  endfacet
  facet normal -0.187383 -0.982287 0
    outer loop
      vertex 0.533719 8.48323 -6
      vertex 0.904337 8.41253 0
      vertex 0.533719 8.48323 0
    endloop
  endfacet
  facet normal -0.187383 -0.982287 -0
    outer loop
      vertex 0.904337 8.41253 0
      vertex 0.533719 8.48323 -6
      vertex 0.904337 8.41253 -6
    endloop
  endfacet
endsolid OpenSCAD_Model
