<?xml version="1.0" standalone="no"?>
<!DOCTYPE svg PUBLIC "-//W3C//DTD SVG 1.1//EN" "http://www.w3.org/Graphics/SVG/1.1/DTD/svg11.dtd">
<svg width="20mm" height="20mm" viewBox="-10 -10 20 20" xmlns="http://www.w3.org/2000/svg" version="1.1">
<title>OpenSCAD Model</title>
<path d="
M 1.02914,-8.61227 L 0.68634,-9.20122 L -0.68634,-9.20122 L -1.02914,-8.61227 L -1.12701,-8.37874 L 0.533707,-8.48322
 L 1.13098,-8.36928 z
M -5.41809,-6.54936 L -5.13927,-6.7263 L -5.36208,-6.8175 L -6.02092,-6.99155 L -6.99155,-6.02092 L -6.8175,-5.36208
 L -6.73114,-5.15111 z
M 6.8175,-5.36208 L 6.99155,-6.02092 L 6.02092,-6.99155 L 5.36208,-6.8175 L 5.11237,-6.71529 L 6.19623,-5.81865
 L 6.71315,-5.10715 z
M 8.61227,1.02914 L 9.20122,0.68634 L 9.20122,-0.68634 L 8.61227,-1.02914 L 8.35643,-1.13637 L 8.5,-0
 L 8.35643,1.13637 z
M -8.43297,1.06532 L -8.43297,-1.06532 L -8.42175,-1.10898 L -8.61227,-1.02914 L -9.20122,-0.68634 L -9.20122,0.68634
 L -8.61227,1.02914 L -8.42175,1.10898 z
M 6.99155,6.02092 L 6.8175,5.36208 L 6.71315,5.10715 L 6.19623,5.81865 L 5.11237,6.71529 L 5.36208,6.8175
 L 6.02092,6.99155 z
M -5.36208,6.8175 L -5.13927,6.7263 L -5.41809,6.54936 L -6.73114,5.15111 L -6.8175,5.36208 L -6.99155,6.02092
 L -6.02092,6.99155 z
M 1.02914,8.61227 L 1.13098,8.36928 L 0.533707,8.48322 L -1.12701,8.37874 L -1.02914,8.61227 L -0.68634,9.20122
 L 0.68634,9.20122 z
" stroke="black" fill="lightgray" stroke-width="0.5"/>
</svg>
