solid OpenSCAD_Model
  facet normal 0 0 -1
    outer loop
      vertex 6.19623 -5.81865 -6
      vertex 6.8175 -5.36208 -6
      vertex 6.99155 -6.02092 -6
    endloop
  endfacet
  facet normal -0 0 -1
    outer loop
      vertex 6.8175 -5.36208 -6
      vertex 6.19623 -5.81865 -6
      vertex 6.71316 -5.10716 -6
    endloop
  endfacet
  facet normal 0 0 -1
    outer loop
      vertex 6.02092 -6.99155 -6
      vertex 6.19623 -5.81865 -6
      vertex 6.99155 -6.02092 -6
    endloop
  endfacet
  facet normal 0 0 -1
    outer loop
      vertex 5.36208 -6.8175 -6
      vertex 6.19623 -5.81865 -6
      vertex 6.02092 -6.99155 -6
    endloop
  endfacet
  facet normal 0 0 -1
    outer loop
      vertex 6.19623 -5.81865 -6
      vertex 5.36208 -6.8175 -6
      vertex 5.11238 -6.71529 -6
    endloop
  endfacet
  facet normal 0 0 -1
    outer loop
      vertex 8.5 0 -6
      vertex 9.20122 -0.68634 -6
      vertex 8.61227 -1.02914 -6
    endloop
  endfacet
  facet normal 0 0 -1
    outer loop
      vertex 9.20122 -0.68634 -6
      vertex 8.5 0 -6
      vertex 9.20122 0.68634 -6
    endloop
  endfacet
  facet normal -0 0 -1
    outer loop
      vertex 9.20122 0.68634 -6
      vertex 8.5 0 -6
      vertex 8.61227 1.02914 -6
    endloop
  endfacet
  facet normal 0 -0 -1
    outer loop
      vertex 8.5 0 -6
      vertex 8.61227 -1.02914 -6
      vertex 8.35644 -1.13637 -6
    endloop
  endfacet
  facet normal -0 0 -1
    outer loop
      vertex 8.61227 1.02914 -6
      vertex 8.5 0 -6
      vertex 8.35644 1.13637 -6
    endloop
  endfacet
  facet normal 0 0 -1
    outer loop
      vertex 6.19623 5.81865 -6
      vertex 6.8175 5.36208 -6
      vertex 6.71316 5.10716 -6
    endloop
  endfacet
  facet normal 0 0 -1
    outer loop
      vertex 6.8175 5.36208 -6
      vertex 6.19623 5.81865 -6
      vertex 6.99155 6.02092 -6
    endloop
  endfacet
  facet normal 0 0 -1
    outer loop
      vertex 6.19623 5.81865 -6
      vertex 6.02092 6.99155 -6
      vertex 6.99155 6.02092 -6
    endloop
  endfacet
  facet normal 0 0 -1
    outer loop
      vertex 6.19623 5.81865 -6
      vertex 5.36208 6.8175 -6
      vertex 6.02092 6.99155 -6
    endloop
  endfacet
  facet normal 0 -0 -1
    outer loop
      vertex 5.36208 6.8175 -6
      vertex 6.19623 5.81865 -6
      vertex 5.11238 6.71529 -6
    endloop
  endfacet
  facet normal 0 0 -1
    outer loop
      vertex 0.533719 8.48323 -6
      vertex 1.02914 8.61227 -6
      vertex 1.13098 8.36929 -6
    endloop
  endfacet
  facet normal -0 0 -1
    outer loop
      vertex 1.02914 8.61227 -6
      vertex 0.533719 8.48323 -6
      vertex 0.68634 9.20122 -6
    endloop
  endfacet
  facet normal 0 0 -1
    outer loop
      vertex 0.533719 8.48323 -6
      vertex -0.68634 9.20122 -6
      vertex 0.68634 9.20122 -6
    endloop
  endfacet
  facet normal 0 0 -1
    outer loop
      vertex 0.533719 8.48323 -6
      vertex -1.02914 8.61227 -6
      vertex -0.68634 9.20122 -6
    endloop
  endfacet
  facet normal 0 -0 -1
    outer loop
      vertex -1.02914 8.61227 -6
      vertex 0.533719 8.48323 -6
      vertex -1.12702 8.37874 -6
    endloop
  endfacet
  facet normal 0 0 -1
    outer loop
      vertex -5.4181 6.54936 -6
      vertex -5.36208 6.8175 -6
      vertex -5.13928 6.72631 -6
    endloop
  endfacet
  facet normal 0 0 -1
    outer loop
      vertex -5.4181 6.54936 -6
      vertex -6.02092 6.99155 -6
      vertex -5.36208 6.8175 -6
    endloop
  endfacet
  facet normal 0 0 -1
    outer loop
      vertex -6.8175 5.36208 -6
      vertex -5.4181 6.54936 -6
      vertex -6.73115 5.15111 -6
    endloop
  endfacet
  facet normal 0 0 -1
    outer loop
      vertex -6.99155 6.02092 -6
      vertex -5.4181 6.54936 -6
      vertex -6.8175 5.36208 -6
    endloop
  endfacet
  facet normal -0 0 -1
    outer loop
      vertex -5.4181 6.54936 -6
      vertex -6.99155 6.02092 -6
      vertex -6.02092 6.99155 -6
    endloop
  endfacet
  facet normal 0 0 -1
    outer loop
      vertex -8.43297 -1.06533 -6
      vertex -8.61227 -1.02914 -6
      vertex -8.43297 1.06533 -6
    endloop
  endfacet
  facet normal 0 0 -1
    outer loop
      vertex -8.61227 -1.02914 -6
      vertex -8.43297 -1.06533 -6
      vertex -8.42177 -1.10899 -6
    endloop
  endfacet
  facet normal -0 0 -1
    outer loop
      vertex -8.43297 1.06533 -6
      vertex -8.61227 1.02914 -6
      vertex -8.42177 1.10899 -6
    endloop
  endfacet
  facet normal 0 0 -1
    outer loop
      vertex -8.61227 -1.02914 -6
      vertex -8.61227 1.02914 -6
      vertex -8.43297 1.06533 -6
    endloop
  endfacet
  facet normal 0 0 -1
    outer loop
      vertex -9.20122 -0.68634 -6
      vertex -8.61227 1.02914 -6
      vertex -8.61227 -1.02914 -6
    endloop
  endfacet
  facet normal 0 0 -1
    outer loop
      vertex -8.61227 1.02914 -6
      vertex -9.20122 -0.68634 -6
      vertex -9.20122 0.68634 -6
    endloop
  endfacet
  facet normal 0 0 -1
    outer loop
      vertex -5.36208 -6.8175 -6
      vertex -5.4181 -6.54936 -6
      vertex -5.13928 -6.72631 -6
    endloop
  endfacet
  facet normal 0 0 -1
    outer loop
      vertex -6.02092 -6.99155 -6
      vertex -5.4181 -6.54936 -6
      vertex -5.36208 -6.8175 -6
    endloop
  endfacet
  facet normal 0 0 -1
    outer loop
      vertex -6.99155 -6.02092 -6
      vertex -5.4181 -6.54936 -6
      vertex -6.02092 -6.99155 -6
    endloop
  endfacet
  facet normal 0 0 -1
    outer loop
      vertex -5.4181 -6.54936 -6
      vertex -6.8175 -5.36208 -6
      vertex -6.73115 -5.15111 -6
    endloop
  endfacet
  facet normal 0 0 -1
    outer loop
      vertex -5.4181 -6.54936 -6
      vertex -6.99155 -6.02092 -6
      vertex -6.8175 -5.36208 -6
    endloop
  endfacet
  facet normal 0 0 -1
    outer loop
      vertex 0.533719 -8.48323 -6
      vertex 1.02914 -8.61227 -6
      vertex 0.68634 -9.20122 -6
    endloop
  endfacet
  facet normal 0 0 -1
    outer loop
      vertex 1.02914 -8.61227 -6
      vertex 0.533719 -8.48323 -6
      vertex 1.13098 -8.36929 -6
    endloop
  endfacet
  facet normal 0 0 -1
    outer loop
      vertex -0.68634 -9.20122 -6
      vertex 0.533719 -8.48323 -6
      vertex 0.68634 -9.20122 -6
    endloop
  endfacet
  facet normal 0 0 -1
    outer loop
      vertex -1.02914 -8.61227 -6
      vertex 0.533719 -8.48323 -6
      vertex -0.68634 -9.20122 -6
    endloop
  endfacet
  facet normal -0 0 -1
    outer loop
      vertex 0.533719 -8.48323 -6
      vertex -1.02914 -8.61227 -6
      vertex -1.12702 -8.37874 -6
    endloop
  endfacet
  facet normal 0 0 1
    outer loop
      vertex 6.19623 -5.81865 0
      vertex 6.8175 -5.36208 0
      vertex 6.71316 -5.10716 0
    endloop
  endfacet
  facet normal 0 0 1
    outer loop
      vertex 6.8175 -5.36208 0
      vertex 6.19623 -5.81865 0
      vertex 6.99155 -6.02092 0
    endloop
  endfacet
  facet normal 0 0 1
    outer loop
      vertex 6.19623 -5.81865 0
      vertex 6.02092 -6.99155 0
      vertex 6.99155 -6.02092 0
    endloop
  endfacet
  facet normal 0 0 1
    outer loop
      vertex 6.19623 -5.81865 0
      vertex 5.36208 -6.8175 0
      vertex 6.02092 -6.99155 0
    endloop
  endfacet
  facet normal 0 -0 1
    outer loop
      vertex 5.36208 -6.8175 0
      vertex 6.19623 -5.81865 0
      vertex 5.11238 -6.71529 0
    endloop
  endfacet
  facet normal 0 0 1
    outer loop
      vertex 8.5 0 0
      vertex 9.20122 0.68634 0
      vertex 8.61227 1.02914 0
    endloop
  endfacet
  facet normal 0 0 1
    outer loop
      vertex 9.20122 0.68634 0
      vertex 8.5 0 0
      vertex 9.20122 -0.68634 0
    endloop
  endfacet
  facet normal 0 0 1
    outer loop
      vertex 9.20122 -0.68634 0
      vertex 8.5 0 0
      vertex 8.61227 -1.02914 0
    endloop
  endfacet
  facet normal 0 -0 1
    outer loop
      vertex 8.5 0 0
      vertex 8.61227 1.02914 0
      vertex 8.35644 1.13637 0
    endloop
  endfacet
  facet normal 0 0 1
    outer loop
      vertex 8.61227 -1.02914 0
      vertex 8.5 0 0
      vertex 8.35644 -1.13637 0
    endloop
  endfacet
  facet normal -0 0 1
    outer loop
      vertex 6.19623 5.81865 0
      vertex 6.8175 5.36208 0
      vertex 6.99155 6.02092 0
    endloop
  endfacet
  facet normal 0 0 1
    outer loop
      vertex 6.8175 5.36208 0
      vertex 6.19623 5.81865 0
      vertex 6.71316 5.10716 0
    endloop
  endfacet
  facet normal 0 0 1
    outer loop
      vertex 6.02092 6.99155 0
      vertex 6.19623 5.81865 0
      vertex 6.99155 6.02092 0
    endloop
  endfacet
  facet normal -0 0 1
    outer loop
      vertex 5.36208 6.8175 0
      vertex 6.19623 5.81865 0
      vertex 6.02092 6.99155 0
    endloop
  endfacet
  facet normal 0 0 1
    outer loop
      vertex 6.19623 5.81865 0
      vertex 5.36208 6.8175 0
      vertex 5.11238 6.71529 0
    endloop
  endfacet
  facet normal 0 0 1
    outer loop
      vertex 0.533719 8.48323 0
      vertex 1.02914 8.61227 0
      vertex 0.68634 9.20122 0
    endloop
  endfacet
  facet normal 0 0 1
    outer loop
      vertex 1.02914 8.61227 0
      vertex 0.533719 8.48323 0
      vertex 1.13098 8.36929 0
    endloop
  endfacet
  facet normal -0 0 1
    outer loop
      vertex -0.68634 9.20122 0
      vertex 0.533719 8.48323 0
      vertex 0.68634 9.20122 0
    endloop
  endfacet
  facet normal -0 0 1
    outer loop
      vertex -1.02914 8.61227 0
      vertex 0.533719 8.48323 0
      vertex -0.68634 9.20122 0
    endloop
  endfacet
  facet normal 0 0 1
    outer loop
      vertex 0.533719 8.48323 0
      vertex -1.02914 8.61227 0
      vertex -1.12702 8.37874 0
    endloop
  endfacet
  facet normal 0 0 1
    outer loop
      vertex -5.36208 6.8175 0
      vertex -5.4181 6.54936 0
      vertex -5.13928 6.72631 0
    endloop
  endfacet
  facet normal 0 0 1
    outer loop
      vertex -6.02092 6.99155 0
      vertex -5.4181 6.54936 0
      vertex -5.36208 6.8175 0
    endloop
  endfacet
  facet normal 0 0 1
    outer loop
      vertex -6.99155 6.02092 0
      vertex -5.4181 6.54936 0
      vertex -6.02092 6.99155 0
    endloop
  endfacet
  facet normal 0 0 1
    outer loop
      vertex -5.4181 6.54936 0
      vertex -6.8175 5.36208 0
      vertex -6.73115 5.15111 0
    endloop
  endfacet
  facet normal 0 0 1
    outer loop
      vertex -5.4181 6.54936 0
      vertex -6.99155 6.02092 0
      vertex -6.8175 5.36208 0
    endloop
  endfacet
  facet normal 0 0 1
    outer loop
      vertex -8.43297 1.06533 0
      vertex -8.61227 1.02914 0
      vertex -8.43297 -1.06533 0
    endloop
  endfacet
  facet normal 0 0 1
    outer loop
      vertex -8.61227 1.02914 0
      vertex -8.43297 1.06533 0
      vertex -8.42177 1.10899 0
    endloop
  endfacet
  facet normal 0 0 1
    outer loop
      vertex -8.43297 -1.06533 0
      vertex -8.61227 -1.02914 0
      vertex -8.42177 -1.10899 0
    endloop
  endfacet
  facet normal 0 0 1
    outer loop
      vertex -8.61227 1.02914 0
      vertex -8.61227 -1.02914 0
      vertex -8.43297 -1.06533 0
    endloop
  endfacet
  facet normal -0 0 1
    outer loop
      vertex -9.20122 0.68634 0
      vertex -8.61227 -1.02914 0
      vertex -8.61227 1.02914 0
    endloop
  endfacet
  facet normal 0 0 1
    outer loop
      vertex -8.61227 -1.02914 0
      vertex -9.20122 0.68634 0
      vertex -9.20122 -0.68634 0
    endloop
  endfacet
  facet normal 0 0 1
    outer loop
      vertex -5.4181 -6.54936 0
      vertex -5.36208 -6.8175 0
      vertex -5.13928 -6.72631 0
    endloop
  endfacet
  facet normal 0 0 1
    outer loop
      vertex -5.4181 -6.54936 0
      vertex -6.02092 -6.99155 0
      vertex -5.36208 -6.8175 0
    endloop
  endfacet
  facet normal -0 0 1
    outer loop
      vertex -6.8175 -5.36208 0
      vertex -5.4181 -6.54936 0
      vertex -6.73115 -5.15111 0
    endloop
  endfacet
  facet normal -0 0 1
    outer loop
      vertex -6.99155 -6.02092 0
      vertex -5.4181 -6.54936 0
      vertex -6.8175 -5.36208 0
    endloop
  endfacet
  facet normal 0 0 1
    outer loop
      vertex -5.4181 -6.54936 0
      vertex -6.99155 -6.02092 0
      vertex -6.02092 -6.99155 0
    endloop
  endfacet
  facet normal -0 0 1
    outer loop
      vertex 0.533719 -8.48323 0
      vertex 1.02914 -8.61227 0
      vertex 1.13098 -8.36929 0
    endloop
  endfacet
  facet normal 0 0 1
    outer loop
      vertex 1.02914 -8.61227 0
      vertex 0.533719 -8.48323 0
      vertex 0.68634 -9.20122 0
    endloop
  endfacet
  facet normal 0 0 1
    outer loop
      vertex 0.533719 -8.48323 0
      vertex -0.68634 -9.20122 0
      vertex 0.68634 -9.20122 0
    endloop
  endfacet
  facet normal 0 0 1
    outer loop
      vertex 0.533719 -8.48323 0
      vertex -1.02914 -8.61227 0
      vertex -0.68634 -9.20122 0
    endloop
  endfacet
  facet normal 0 -0 1
    outer loop
      vertex -1.02914 -8.61227 0
      vertex 0.533719 -8.48323 0
      vertex -1.12702 -8.37874 0
    endloop
  endfacet
  facet normal 0.922269 -0.38655 0
    outer loop
      vertex 1.02914 -8.61227 0
      vertex 1.13098 -8.36929 -6
      vertex 1.13098 -8.36929 0
    endloop
  endfacet
  facet normal 0.922269 -0.38655 0
    outer loop
      vertex 1.13098 -8.36929 -6
      vertex 1.02914 -8.61227 0
      vertex 1.02914 -8.61227 -6
    endloop
  endfacet
  facet normal -0.378823 -0.925469 0
    outer loop
      vertex 5.11238 -6.71529 -6
      vertex 5.36208 -6.8175 0
      vertex 5.11238 -6.71529 0
    endloop
  endfacet
  facet normal -0.378823 -0.925469 -0
    outer loop
      vertex 5.36208 -6.8175 0
      vertex 5.11238 -6.71529 -6
      vertex 5.36208 -6.8175 -6
    endloop
  endfacet
  facet normal -0.255414 -0.966832 0
    outer loop
      vertex 5.36208 -6.8175 -6
      vertex 6.02092 -6.99155 0
      vertex 5.36208 -6.8175 0
    endloop
  endfacet
  facet normal -0.255414 -0.966832 -0
    outer loop
      vertex 6.02092 -6.99155 0
      vertex 5.36208 -6.8175 -6
      vertex 6.02092 -6.99155 -6
    endloop
  endfacet
  facet normal 0.707107 -0.707107 0
    outer loop
      vertex 6.02092 -6.99155 0
      vertex 6.99155 -6.02092 -6
      vertex 6.99155 -6.02092 0
    endloop
  endfacet
  facet normal 0.707107 -0.707107 0
    outer loop
      vertex 6.99155 -6.02092 -6
      vertex 6.02092 -6.99155 0
      vertex 6.02092 -6.99155 -6
    endloop
  endfacet
  facet normal 0.966832 0.255414 0
    outer loop
      vertex 6.99155 -6.02092 0
      vertex 6.8175 -5.36208 -6
      vertex 6.8175 -5.36208 0
    endloop
  endfacet
  facet normal 0.966832 0.255414 0
    outer loop
      vertex 6.8175 -5.36208 -6
      vertex 6.99155 -6.02092 0
      vertex 6.99155 -6.02092 -6
    endloop
  endfacet
  facet normal 0.925478 0.378802 0
    outer loop
      vertex 6.8175 -5.36208 0
      vertex 6.71316 -5.10716 -6
      vertex 6.71316 -5.10716 0
    endloop
  endfacet
  facet normal 0.925478 0.378802 0
    outer loop
      vertex 6.71316 -5.10716 -6
      vertex 6.8175 -5.36208 0
      vertex 6.8175 -5.36208 -6
    endloop
  endfacet
  facet normal 0.386562 -0.922263 0
    outer loop
      vertex 8.35644 -1.13637 -6
      vertex 8.61227 -1.02914 0
      vertex 8.35644 -1.13637 0
    endloop
  endfacet
  facet normal 0.386562 -0.922263 0
    outer loop
      vertex 8.61227 -1.02914 0
      vertex 8.35644 -1.13637 -6
      vertex 8.61227 -1.02914 -6
    endloop
  endfacet
  facet normal 0.503045 -0.86426 0
    outer loop
      vertex 8.61227 -1.02914 -6
      vertex 9.20122 -0.68634 0
      vertex 8.61227 -1.02914 0
    endloop
  endfacet
  facet normal 0.503045 -0.86426 0
    outer loop
      vertex 9.20122 -0.68634 0
      vertex 8.61227 -1.02914 -6
      vertex 9.20122 -0.68634 -6
    endloop
  endfacet
  facet normal 1 -0 0
    outer loop
      vertex 9.20122 -0.68634 0
      vertex 9.20122 0.68634 -6
      vertex 9.20122 0.68634 0
    endloop
  endfacet
  facet normal 1 0 0
    outer loop
      vertex 9.20122 0.68634 -6
      vertex 9.20122 -0.68634 0
      vertex 9.20122 -0.68634 -6
    endloop
  endfacet
  facet normal 0.503045 0.86426 -0
    outer loop
      vertex 9.20122 0.68634 -6
      vertex 8.61227 1.02914 0
      vertex 9.20122 0.68634 0
    endloop
  endfacet
  facet normal 0.503045 0.86426 0
    outer loop
      vertex 8.61227 1.02914 0
      vertex 9.20122 0.68634 -6
      vertex 8.61227 1.02914 -6
    endloop
  endfacet
  facet normal 0.386562 0.922263 -0
    outer loop
      vertex 8.61227 1.02914 -6
      vertex 8.35644 1.13637 0
      vertex 8.61227 1.02914 0
    endloop
  endfacet
  facet normal 0.386562 0.922263 0
    outer loop
      vertex 8.35644 1.13637 0
      vertex 8.61227 1.02914 -6
      vertex 8.35644 1.13637 -6
    endloop
  endfacet
  facet normal 0.925478 -0.378802 0
    outer loop
      vertex 6.71316 5.10716 0
      vertex 6.8175 5.36208 -6
      vertex 6.8175 5.36208 0
    endloop
  endfacet
  facet normal 0.925478 -0.378802 0
    outer loop
      vertex 6.8175 5.36208 -6
      vertex 6.71316 5.10716 0
      vertex 6.71316 5.10716 -6
    endloop
  endfacet
  facet normal 0.966832 -0.255414 0
    outer loop
      vertex 6.8175 5.36208 0
      vertex 6.99155 6.02092 -6
      vertex 6.99155 6.02092 0
    endloop
  endfacet
  facet normal 0.966832 -0.255414 0
    outer loop
      vertex 6.99155 6.02092 -6
      vertex 6.8175 5.36208 0
      vertex 6.8175 5.36208 -6
    endloop
  endfacet
  facet normal 0.707107 0.707107 0
    outer loop
      vertex 6.99155 6.02092 0
      vertex 6.02092 6.99155 -6
      vertex 6.02092 6.99155 0
    endloop
  endfacet
  facet normal 0.707107 0.707107 0
    outer loop
      vertex 6.02092 6.99155 -6
      vertex 6.99155 6.02092 0
      vertex 6.99155 6.02092 -6
    endloop
  endfacet
  facet normal -0.255414 0.966832 0
    outer loop
      vertex 6.02092 6.99155 -6
      vertex 5.36208 6.8175 0
      vertex 6.02092 6.99155 0
    endloop
  endfacet
  facet normal -0.255414 0.966832 0
    outer loop
      vertex 5.36208 6.8175 0
      vertex 6.02092 6.99155 -6
      vertex 5.36208 6.8175 -6
    endloop
  endfacet
  facet normal -0.378823 0.925469 0
    outer loop
      vertex 5.36208 6.8175 -6
      vertex 5.11238 6.71529 0
      vertex 5.36208 6.8175 0
    endloop
  endfacet
  facet normal -0.378823 0.925469 0
    outer loop
      vertex 5.11238 6.71529 0
      vertex 5.36208 6.8175 -6
      vertex 5.11238 6.71529 -6
    endloop
  endfacet
  facet normal 0.922269 0.38655 0
    outer loop
      vertex 1.13098 8.36929 0
      vertex 1.02914 8.61227 -6
      vertex 1.02914 8.61227 0
    endloop
  endfacet
  facet normal 0.922269 0.38655 0
    outer loop
      vertex 1.02914 8.61227 -6
      vertex 1.13098 8.36929 0
      vertex 1.13098 8.36929 -6
    endloop
  endfacet
  facet normal 0.86426 0.503045 0
    outer loop
      vertex 1.02914 8.61227 0
      vertex 0.68634 9.20122 -6
      vertex 0.68634 9.20122 0
    endloop
  endfacet
  facet normal 0.86426 0.503045 0
    outer loop
      vertex 0.68634 9.20122 -6
      vertex 1.02914 8.61227 0
      vertex 1.02914 8.61227 -6
    endloop
  endfacet
  facet normal 0 1 -0
    outer loop
      vertex 0.68634 9.20122 -6
      vertex -0.68634 9.20122 0
      vertex 0.68634 9.20122 0
    endloop
  endfacet
  facet normal 0 1 0
    outer loop
      vertex -0.68634 9.20122 0
      vertex 0.68634 9.20122 -6
      vertex -0.68634 9.20122 -6
    endloop
  endfacet
  facet normal -0.86426 0.503045 0
    outer loop
      vertex -1.02914 8.61227 -6
      vertex -0.68634 9.20122 0
      vertex -0.68634 9.20122 -6
    endloop
  endfacet
  facet normal -0.86426 0.503045 0
    outer loop
      vertex -0.68634 9.20122 0
      vertex -1.02914 8.61227 -6
      vertex -1.02914 8.61227 0
    endloop
  endfacet
  facet normal -0.922268 0.386552 0
    outer loop
      vertex -1.12702 8.37874 -6
      vertex -1.02914 8.61227 0
      vertex -1.02914 8.61227 -6
    endloop
  endfacet
  facet normal -0.922268 0.386552 0
    outer loop
      vertex -1.02914 8.61227 0
      vertex -1.12702 8.37874 -6
      vertex -1.12702 8.37874 0
    endloop
  endfacet
  facet normal 0.378791 0.925482 -0
    outer loop
      vertex -5.13928 6.72631 -6
      vertex -5.36208 6.8175 0
      vertex -5.13928 6.72631 0
    endloop
  endfacet
  facet normal 0.378791 0.925482 0
    outer loop
      vertex -5.36208 6.8175 0
      vertex -5.13928 6.72631 -6
      vertex -5.36208 6.8175 -6
    endloop
  endfacet
  facet normal 0.255414 0.966832 -0
    outer loop
      vertex -5.36208 6.8175 -6
      vertex -6.02092 6.99155 0
      vertex -5.36208 6.8175 0
    endloop
  endfacet
  facet normal 0.255414 0.966832 0
    outer loop
      vertex -6.02092 6.99155 0
      vertex -5.36208 6.8175 -6
      vertex -6.02092 6.99155 -6
    endloop
  endfacet
  facet normal -0.707107 0.707107 0
    outer loop
      vertex -6.99155 6.02092 -6
      vertex -6.02092 6.99155 0
      vertex -6.02092 6.99155 -6
    endloop
  endfacet
  facet normal -0.707107 0.707107 0
    outer loop
      vertex -6.02092 6.99155 0
      vertex -6.99155 6.02092 -6
      vertex -6.99155 6.02092 0
    endloop
  endfacet
  facet normal -0.966832 -0.255414 0
    outer loop
      vertex -6.8175 5.36208 -6
      vertex -6.99155 6.02092 0
      vertex -6.99155 6.02092 -6
    endloop
  endfacet
  facet normal -0.966832 -0.255414 0
    outer loop
      vertex -6.99155 6.02092 0
      vertex -6.8175 5.36208 -6
      vertex -6.8175 5.36208 0
    endloop
  endfacet
  facet normal -0.925479 -0.378799 0
    outer loop
      vertex -6.73115 5.15111 -6
      vertex -6.8175 5.36208 0
      vertex -6.8175 5.36208 -6
    endloop
  endfacet
  facet normal -0.925479 -0.378799 0
    outer loop
      vertex -6.8175 5.36208 0
      vertex -6.73115 5.15111 -6
      vertex -6.73115 5.15111 0
    endloop
  endfacet
  facet normal -0.386574 0.922258 0
    outer loop
      vertex -8.42177 1.10899 -6
      vertex -8.61227 1.02914 0
      vertex -8.42177 1.10899 0
    endloop
  endfacet
  facet normal -0.386574 0.922258 0
    outer loop
      vertex -8.61227 1.02914 0
      vertex -8.42177 1.10899 -6
      vertex -8.61227 1.02914 -6
    endloop
  endfacet
  facet normal -0.503045 0.86426 0
    outer loop
      vertex -8.61227 1.02914 -6
      vertex -9.20122 0.68634 0
      vertex -8.61227 1.02914 0
    endloop
  endfacet
  facet normal -0.503045 0.86426 0
    outer loop
      vertex -9.20122 0.68634 0
      vertex -8.61227 1.02914 -6
      vertex -9.20122 0.68634 -6
    endloop
  endfacet
  facet normal -1 0 0
    outer loop
      vertex -9.20122 -0.68634 -6
      vertex -9.20122 0.68634 0
      vertex -9.20122 0.68634 -6
    endloop
  endfacet
  facet normal -1 -0 0
    outer loop
      vertex -9.20122 0.68634 0
      vertex -9.20122 -0.68634 -6
      vertex -9.20122 -0.68634 0
    endloop
  endfacet
  facet normal -0.503045 -0.86426 0
    outer loop
      vertex -9.20122 -0.68634 -6
      vertex -8.61227 -1.02914 0
      vertex -9.20122 -0.68634 0
    endloop
  endfacet
  facet normal -0.503045 -0.86426 -0
    outer loop
      vertex -8.61227 -1.02914 0
      vertex -9.20122 -0.68634 -6
      vertex -8.61227 -1.02914 -6
    endloop
  endfacet
  facet normal -0.386574 -0.922258 0
    outer loop
      vertex -8.61227 -1.02914 -6
      vertex -8.42177 -1.10899 0
      vertex -8.61227 -1.02914 0
    endloop
  endfacet
  facet normal -0.386574 -0.922258 -0
    outer loop
      vertex -8.42177 -1.10899 0
      vertex -8.61227 -1.02914 -6
      vertex -8.42177 -1.10899 -6
    endloop
  endfacet
  facet normal -0.925479 0.378799 0
    outer loop
      vertex -6.8175 -5.36208 -6
      vertex -6.73115 -5.15111 0
      vertex -6.73115 -5.15111 -6
    endloop
  endfacet
  facet normal -0.925479 0.378799 0
    outer loop
      vertex -6.73115 -5.15111 0
      vertex -6.8175 -5.36208 -6
      vertex -6.8175 -5.36208 0
    endloop
  endfacet
  facet normal -0.966832 0.255414 0
    outer loop
      vertex -6.99155 -6.02092 -6
      vertex -6.8175 -5.36208 0
      vertex -6.8175 -5.36208 -6
    endloop
  endfacet
  facet normal -0.966832 0.255414 0
    outer loop
      vertex -6.8175 -5.36208 0
      vertex -6.99155 -6.02092 -6
      vertex -6.99155 -6.02092 0
    endloop
  endfacet
  facet normal -0.707107 -0.707107 0
    outer loop
      vertex -6.02092 -6.99155 -6
      vertex -6.99155 -6.02092 0
      vertex -6.99155 -6.02092 -6
    endloop
  endfacet
  facet normal -0.707107 -0.707107 0
    outer loop
      vertex -6.99155 -6.02092 0
      vertex -6.02092 -6.99155 -6
      vertex -6.02092 -6.99155 0
    endloop
  endfacet
  facet normal 0.255414 -0.966832 0
    outer loop
      vertex -6.02092 -6.99155 -6
      vertex -5.36208 -6.8175 0
      vertex -6.02092 -6.99155 0
    endloop
  endfacet
  facet normal 0.255414 -0.966832 0
    outer loop
      vertex -5.36208 -6.8175 0
      vertex -6.02092 -6.99155 -6
      vertex -5.36208 -6.8175 -6
    endloop
  endfacet
  facet normal 0.378791 -0.925482 0
    outer loop
      vertex -5.36208 -6.8175 -6
      vertex -5.13928 -6.72631 0
      vertex -5.36208 -6.8175 0
    endloop
  endfacet
  facet normal 0.378791 -0.925482 0
    outer loop
      vertex -5.13928 -6.72631 0
      vertex -5.36208 -6.8175 -6
      vertex -5.13928 -6.72631 -6
    endloop
  endfacet
  facet normal -0.922268 -0.386552 0
    outer loop
      vertex -1.02914 -8.61227 -6
      vertex -1.12702 -8.37874 0
      vertex -1.12702 -8.37874 -6
    endloop
  endfacet
  facet normal -0.922268 -0.386552 0
    outer loop
      vertex -1.12702 -8.37874 0
      vertex -1.02914 -8.61227 -6
      vertex -1.02914 -8.61227 0
    endloop
  endfacet
  facet normal -0.86426 -0.503045 0
    outer loop
      vertex -0.68634 -9.20122 -6
      vertex -1.02914 -8.61227 0
      vertex -1.02914 -8.61227 -6
    endloop
  endfacet
  facet normal -0.86426 -0.503045 0
    outer loop
      vertex -1.02914 -8.61227 0
      vertex -0.68634 -9.20122 -6
      vertex -0.68634 -9.20122 0
    endloop
  endfacet
  facet normal 0 -1 0
    outer loop
      vertex -0.68634 -9.20122 -6
      vertex 0.68634 -9.20122 0
      vertex -0.68634 -9.20122 0
    endloop
  endfacet
  facet normal 0 -1 -0
    outer loop
      vertex 0.68634 -9.20122 0
      vertex -0.68634 -9.20122 -6
      vertex 0.68634 -9.20122 -6
    endloop
  endfacet
  facet normal 0.86426 -0.503045 0
    outer loop
      vertex 0.68634 -9.20122 0
      vertex 1.02914 -8.61227 -6
      vertex 1.02914 -8.61227 0
    endloop
  endfacet
  facet normal 0.86426 -0.503045 0
    outer loop
      vertex 1.02914 -8.61227 -6
      vertex 0.68634 -9.20122 0
      vertex 0.68634 -9.20122 -6
    endloop
  endfacet
  facet normal -0.992114 -0.125336 0
    outer loop
      vertex 8.5 0 -6
      vertex 8.35644 1.13637 0
      vertex 8.35644 1.13637 -6
    endloop
  endfacet
  facet normal -0.992114 -0.125336 0
    outer loop
      vertex 8.35644 1.13637 0
      vertex 8.5 0 -6
      vertex 8.5 0 0
    endloop
  endfacet
  facet normal -0.637425 -0.770513 0
    outer loop
      vertex 5.11238 6.71529 -6
      vertex 6.19623 5.81865 0
      vertex 5.11238 6.71529 0
    endloop
  endfacet
  facet normal -0.637425 -0.770513 -0
    outer loop
      vertex 6.19623 5.81865 0
      vertex 5.11238 6.71529 -6
      vertex 6.19623 5.81865 -6
    endloop
  endfacet
  facet normal -0.809016 -0.587787 0
    outer loop
      vertex 6.71316 5.10716 -6
      vertex 6.19623 5.81865 0
      vertex 6.19623 5.81865 -6
    endloop
  endfacet
  facet normal -0.809016 -0.587787 0
    outer loop
      vertex 6.19623 5.81865 0
      vertex 6.71316 5.10716 -6
      vertex 6.71316 5.10716 0
    endloop
  endfacet
  facet normal 0.728967 -0.684549 0
    outer loop
      vertex -6.73115 5.15111 0
      vertex -5.4181 6.54936 -6
      vertex -5.4181 6.54936 0
    endloop
  endfacet
  facet normal 0.728967 -0.684549 0
    outer loop
      vertex -5.4181 6.54936 -6
      vertex -6.73115 5.15111 0
      vertex -6.73115 5.15111 -6
    endloop
  endfacet
  facet normal 0.535839 0.84432 -0
    outer loop
      vertex -5.13928 -6.72631 -6
      vertex -5.4181 -6.54936 0
      vertex -5.13928 -6.72631 0
    endloop
  endfacet
  facet normal 0.535839 0.84432 0
    outer loop
      vertex -5.4181 -6.54936 0
      vertex -5.13928 -6.72631 -6
      vertex -5.4181 -6.54936 -6
    endloop
  endfacet
  facet normal 0.535839 -0.84432 0
    outer loop
      vertex -5.4181 6.54936 -6
      vertex -5.13928 6.72631 0
      vertex -5.4181 6.54936 0
    endloop
  endfacet
  facet normal 0.535839 -0.84432 0
    outer loop
      vertex -5.13928 6.72631 0
      vertex -5.4181 6.54936 -6
      vertex -5.13928 6.72631 -6
    endloop
  endfacet
  facet normal -0.809016 0.587787 0
    outer loop
      vertex 6.19623 -5.81865 -6
      vertex 6.71316 -5.10716 0
      vertex 6.71316 -5.10716 -6
    endloop
  endfacet
  facet normal -0.809016 0.587787 0
    outer loop
      vertex 6.71316 -5.10716 0
      vertex 6.19623 -5.81865 -6
      vertex 6.19623 -5.81865 0
    endloop
  endfacet
  facet normal -0.187391 0.982285 0
    outer loop
      vertex 1.13098 -8.36929 -6
      vertex 0.533719 -8.48323 0
      vertex 1.13098 -8.36929 0
    endloop
  endfacet
  facet normal -0.187391 0.982285 0
    outer loop
      vertex 0.533719 -8.48323 0
      vertex 1.13098 -8.36929 -6
      vertex 0.533719 -8.48323 -6
    endloop
  endfacet
  facet normal 0.968636 0.248482 0
    outer loop
      vertex -8.42177 -1.10899 0
      vertex -8.43297 -1.06533 -6
      vertex -8.43297 -1.06533 0
    endloop
  endfacet
  facet normal 0.968636 0.248482 0
    outer loop
      vertex -8.43297 -1.06533 -6
      vertex -8.42177 -1.10899 0
      vertex -8.42177 -1.10899 -6
    endloop
  endfacet
  facet normal 0.728967 0.684549 0
    outer loop
      vertex -5.4181 -6.54936 0
      vertex -6.73115 -5.15111 -6
      vertex -6.73115 -5.15111 0
    endloop
  endfacet
  facet normal 0.728967 0.684549 0
    outer loop
      vertex -6.73115 -5.15111 -6
      vertex -5.4181 -6.54936 0
      vertex -5.4181 -6.54936 -6
    endloop
  endfacet
  facet normal -0.992114 0.125336 0
    outer loop
      vertex 8.35644 -1.13637 -6
      vertex 8.5 0 0
      vertex 8.5 0 -6
    endloop
  endfacet
  facet normal -0.992114 0.125336 0
    outer loop
      vertex 8.5 0 0
      vertex 8.35644 -1.13637 -6
      vertex 8.35644 -1.13637 0
    endloop
  endfacet
  facet normal 0.0627936 0.998027 -0
    outer loop
      vertex 0.533719 -8.48323 -6
      vertex -1.12702 -8.37874 0
      vertex 0.533719 -8.48323 0
    endloop
  endfacet
  facet normal 0.0627936 0.998027 0
    outer loop
      vertex -1.12702 -8.37874 0
      vertex 0.533719 -8.48323 -6
      vertex -1.12702 -8.37874 -6
    endloop
  endfacet
  facet normal -0.637425 0.770513 0
    outer loop
      vertex 6.19623 -5.81865 -6
      vertex 5.11238 -6.71529 0
      vertex 6.19623 -5.81865 0
    endloop
  endfacet
  facet normal -0.637425 0.770513 0
    outer loop
      vertex 5.11238 -6.71529 0
      vertex 6.19623 -5.81865 -6
      vertex 5.11238 -6.71529 -6
    endloop
  endfacet
  facet normal 1 -0 0
    outer loop
      vertex -8.43297 -1.06533 0
      vertex -8.43297 1.06533 -6
      vertex -8.43297 1.06533 0
    endloop
  endfacet
  facet normal 1 0 0
    outer loop
      vertex -8.43297 1.06533 -6
      vertex -8.43297 -1.06533 0
      vertex -8.43297 -1.06533 -6
    endloop
  endfacet
  facet normal 0.968636 -0.248482 0
    outer loop
      vertex -8.43297 1.06533 0
      vertex -8.42177 1.10899 -6
      vertex -8.42177 1.10899 0
    endloop
  endfacet
  facet normal 0.968636 -0.248482 0
    outer loop
      vertex -8.42177 1.10899 -6
      vertex -8.43297 1.06533 0
      vertex -8.43297 1.06533 -6
    endloop
  endfacet
  facet normal 0.0627936 -0.998027 0
    outer loop
      vertex -1.12702 8.37874 -6
      vertex 0.533719 8.48323 0
      vertex -1.12702 8.37874 0
    endloop
  endfacet
  facet normal 0.0627936 -0.998027 0
    outer loop
      vertex 0.533719 8.48323 0
      vertex -1.12702 8.37874 -6
      vertex 0.533719 8.48323 -6
    endloop
  endfacet
  facet normal -0.187391 -0.982285 0
    outer loop
      vertex 0.533719 8.48323 -6
      vertex 1.13098 8.36929 0
      vertex 0.533719 8.48323 0
    endloop
  endfacet
  facet normal -0.187391 -0.982285 -0
    outer loop
      vertex 1.13098 8.36929 0
      vertex 0.533719 8.48323 -6
      vertex 1.13098 8.36929 -6
    endloop
  endfacet
endsolid OpenSCAD_Model
