  0
SECTION
  2
BLOCKS
  0
ENDSEC
  0
SECTION
  2
ENTITIES
  0
LINE
  8
0
 10
0.533707
 20
8.48322
 11
0.904327
 21
8.41252
  0
LINE
  8
0
 10
0.904327
 20
8.41252
 11
0.82869
 21
8.56996
  0
LINE
  8
0
 10
0.82869
 20
8.56996
 11
0.405609
 21
9.20486
  0
LINE
  8
0
 10
0.405609
 20
9.20486
 11
-0.405609
 21
9.20486
  0
LINE
  8
0
 10
-0.405609
 20
9.20486
 11
-0.82869
 21
8.56996
  0
LINE
  8
0
 10
-0.82869
 20
8.56996
 11
-0.914124
 21
8.39214
  0
LINE
  8
0
 10
-0.914124
 20
8.39214
 11
0.533707
 21
8.48322
  0
LINE
  8
0
 10
-5.41809
 20
6.54936
 11
-5.34006
 21
6.59888
  0
LINE
  8
0
 10
-5.34006
 20
6.59888
 11
-5.47389
 21
6.64584
  0
LINE
  8
0
 10
-5.47389
 20
6.64584
 11
-6.222
 21
6.79562
  0
LINE
  8
0
 10
-6.222
 20
6.79562
 11
-6.79562
 21
6.222
  0
LINE
  8
0
 10
-6.79562
 20
6.222
 11
-6.64584
 21
5.47389
  0
LINE
  8
0
 10
-6.64584
 20
5.47389
 11
-6.58659
 21
5.30504
  0
LINE
  8
0
 10
-6.58659
 20
5.30504
 11
-5.41809
 21
6.54936
  0
LINE
  8
0
 10
6.64584
 20
5.47389
 11
6.79562
 21
6.222
  0
LINE
  8
0
 10
6.79562
 20
6.222
 11
6.222
 21
6.79562
  0
LINE
  8
0
 10
6.222
 20
6.79562
 11
5.47389
 21
6.64584
  0
LINE
  8
0
 10
5.47389
 20
6.64584
 11
5.27899
 21
6.57745
  0
LINE
  8
0
 10
5.27899
 20
6.57745
 11
6.19623
 21
5.81865
  0
LINE
  8
0
 10
6.19623
 20
5.81865
 11
6.58098
 21
5.28906
  0
LINE
  8
0
 10
6.58098
 20
5.28906
 11
6.64584
 21
5.47389
  0
LINE
  8
0
 10
8.56996
 20
-0.82869
 11
9.20486
 21
-0.405609
  0
LINE
  8
0
 10
9.20486
 20
-0.405609
 11
9.20486
 21
0.405609
  0
LINE
  8
0
 10
9.20486
 20
0.405609
 11
8.56996
 21
0.82869
  0
LINE
  8
0
 10
8.56996
 20
0.82869
 11
8.38402
 21
0.91803
  0
LINE
  8
0
 10
8.38402
 20
0.91803
 11
8.5
 21
0
  0
LINE
  8
0
 10
8.5
 20
0
 11
8.38402
 21
-0.91803
  0
LINE
  8
0
 10
8.38402
 20
-0.91803
 11
8.56996
 21
-0.82869
  0
LINE
  8
0
 10
-8.43297
 20
0.894501
 11
-8.56996
 21
0.82869
  0
LINE
  8
0
 10
-8.56996
 20
0.82869
 11
-9.20486
 21
0.405609
  0
LINE
  8
0
 10
-9.20486
 20
0.405609
 11
-9.20486
 21
-0.405609
  0
LINE
  8
0
 10
-9.20486
 20
-0.405609
 11
-8.56996
 21
-0.82869
  0
LINE
  8
0
 10
-8.56996
 20
-0.82869
 11
-8.43297
 21
-0.894501
  0
LINE
  8
0
 10
-8.43297
 20
-0.894501
 11
-8.43297
 21
0.894501
  0
LINE
  8
0
 10
6.79562
 20
-6.222
 11
6.64584
 21
-5.47389
  0
LINE
  8
0
 10
6.64584
 20
-5.47389
 11
6.58098
 21
-5.28906
  0
LINE
  8
0
 10
6.58098
 20
-5.28906
 11
6.19623
 21
-5.81865
  0
LINE
  8
0
 10
6.19623
 20
-5.81865
 11
5.27899
 21
-6.57745
  0
LINE
  8
0
 10
5.27899
 20
-6.57745
 11
5.47389
 21
-6.64584
  0
LINE
  8
0
 10
5.47389
 20
-6.64584
 11
6.222
 21
-6.79562
  0
LINE
  8
0
 10
6.222
 20
-6.79562
 11
6.79562
 21
-6.222
  0
LINE
  8
0
 10
-5.47389
 20
-6.64584
 11
-5.34006
 21
-6.59888
  0
LINE
  8
0
 10
-5.34006
 20
-6.59888
 11
-5.41809
 21
-6.54936
  0
LINE
  8
0
 10
-5.41809
 20
-6.54936
 11
-6.58659
 21
-5.30504
  0
LINE
  8
0
 10
-6.58659
 20
-5.30504
 11
-6.64584
 21
-5.47389
  0
LINE
  8
0
 10
-6.64584
 20
-5.47389
 11
-6.79562
 21
-6.222
  0
LINE
  8
0
 10
-6.79562
 20
-6.222
 11
-6.222
 21
-6.79562
  0
LINE
  8
0
 10
-6.222
 20
-6.79562
 11
-5.47389
 21
-6.64584
  0
LINE
  8
0
 10
0.82869
 20
-8.56996
 11
0.904327
 21
-8.41252
  0
LINE
  8
0
 10
0.904327
 20
-8.41252
 11
0.533707
 21
-8.48322
  0
LINE
  8
0
 10
0.533707
 20
-8.48322
 11
-0.914124
 21
-8.39214
  0
LINE
  8
0
 10
-0.914124
 20
-8.39214
 11
-0.82869
 21
-8.56996
  0
LINE
  8
0
 10
-0.82869
 20
-8.56996
 11
-0.405609
 21
-9.20486
  0
LINE
  8
0
 10
-0.405609
 20
-9.20486
 11
0.405609
 21
-9.20486
  0
LINE
  8
0
 10
0.405609
 20
-9.20486
 11
0.82869
 21
-8.56996
  0
ENDSEC
  0
SECTION
  2
OBJECTS
  0
DICTIONARY
  0
ENDSEC
  0
EOF
