<?xml version="1.0" standalone="no"?>
<!DOCTYPE svg PUBLIC "-//W3C//DTD SVG 1.1//EN" "http://www.w3.org/Graphics/SVG/1.1/DTD/svg11.dtd">
<svg width="42mm" height="42mm" viewBox="-21 -21 42 42" xmlns="http://www.w3.org/2000/svg" version="1.1">
<title>OpenSCAD Model</title>
<path d="
M 16.3139,20.9901 L 16.6267,20.9606 L 16.9369,20.9114 L 17.2435,20.8429 L 17.5451,20.7553 L 17.8406,20.6489
 L 18.1289,20.5241 L 18.4088,20.3815 L 18.6791,20.2216 L 18.9389,20.0451 L 19.1871,19.8526 L 19.4227,19.6448
 L 19.6448,19.4227 L 19.8526,19.1871 L 20.0451,18.9389 L 20.2216,18.6791 L 20.3815,18.4088 L 20.5241,18.1289
 L 20.6489,17.8406 L 20.7553,17.5451 L 20.8429,17.2435 L 20.9114,16.9369 L 20.9606,16.6267 L 20.9901,16.3139
 L 21,16 L 21,-16 L 20.9901,-16.3139 L 20.9606,-16.6267 L 20.9114,-16.9369 L 20.8429,-17.2435
 L 20.7553,-17.5451 L 20.6489,-17.8406 L 20.5241,-18.1289 L 20.3815,-18.4088 L 20.2216,-18.6791 L 20.0451,-18.9389
 L 19.8526,-19.1871 L 19.6448,-19.4227 L 19.4227,-19.6448 L 19.1871,-19.8526 L 18.9389,-20.0451 L 18.6791,-20.2216
 L 18.4088,-20.3815 L 18.1289,-20.5241 L 17.8406,-20.6489 L 17.5451,-20.7553 L 17.2435,-20.8429 L 16.9369,-20.9114
 L 16.6267,-20.9606 L 16.3139,-20.9901 L 16,-21 L -16,-21 L -16.3139,-20.9901 L -16.6267,-20.9606
 L -16.9369,-20.9114 L -17.2435,-20.8429 L -17.5451,-20.7553 L -17.8406,-20.6489 L -18.1289,-20.5241 L -18.4088,-20.3815
 L -18.6791,-20.2216 L -18.9389,-20.0451 L -19.1871,-19.8526 L -19.4227,-19.6448 L -19.6448,-19.4227 L -19.8526,-19.1871
 L -20.0451,-18.9389 L -20.2216,-18.6791 L -20.3815,-18.4088 L -20.5241,-18.1289 L -20.6489,-17.8406 L -20.7553,-17.5451
 L -20.8429,-17.2435 L -20.9114,-16.9369 L -20.9606,-16.6267 L -20.9901,-16.3139 L -21,-16 L -21,16
 L -20.9901,16.3139 L -20.9606,16.6267 L -20.9114,16.9369 L -20.8429,17.2435 L -20.7553,17.5451 L -20.6489,17.8406
 L -20.5241,18.1289 L -20.3815,18.4088 L -20.2216,18.6791 L -20.0451,18.9389 L -19.8526,19.1871 L -19.6448,19.4227
 L -19.4227,19.6448 L -19.1871,19.8526 L -18.9389,20.0451 L -18.6791,20.2216 L -18.4088,20.3815 L -18.1289,20.5241
 L -17.8406,20.6489 L -17.5451,20.7553 L -17.2435,20.8429 L -16.9369,20.9114 L -16.6267,20.9606 L -16.3139,20.9901
 L -16,21 L 16,21 z
M -0.0941772,-15.5029 L -0.187988,-15.5118 L -0.281067,-15.5266 L -0.373032,-15.5471 L -0.463516,-15.5734 L -0.552185,-15.6053
 L -0.638657,-15.6427 L -0.722626,-15.6855 L -0.803726,-15.7335 L -0.881668,-15.7865 L -0.956131,-15.8442 L -1.02681,-15.9065
 L -1.09344,-15.9732 L -1.15576,-16.0439 L -1.21352,-16.1183 L -1.26648,-16.1963 L -1.31445,-16.2774 L -1.35724,-16.3613
 L -1.39465,-16.4478 L -1.42657,-16.5365 L -1.45287,-16.627 L -1.47342,-16.7189 L -1.48816,-16.812 L -1.49704,-16.9058
 L -1.5,-17 L -1.49704,-17.0942 L -1.48816,-17.188 L -1.47342,-17.2811 L -1.45287,-17.373 L -1.42657,-17.4635
 L -1.39465,-17.5522 L -1.35724,-17.6387 L -1.31445,-17.7226 L -1.26648,-17.8037 L -1.21352,-17.8817 L -1.15576,-17.9561
 L -1.09344,-18.0268 L -1.02681,-18.0934 L -0.956131,-18.1558 L -0.881668,-18.2135 L -0.803726,-18.2665 L -0.722626,-18.3145
 L -0.638657,-18.3572 L -0.552185,-18.3947 L -0.463516,-18.4266 L -0.373032,-18.4529 L -0.281067,-18.4734 L -0.187988,-18.4882
 L -0.0941772,-18.497 L 0,-18.5 L 0.0941772,-18.497 L 0.187988,-18.4882 L 0.281067,-18.4734 L 0.373032,-18.4529
 L 0.463516,-18.4266 L 0.552185,-18.3947 L 0.638657,-18.3572 L 0.722626,-18.3145 L 0.803726,-18.2665 L 0.881668,-18.2135
 L 0.956131,-18.1558 L 1.02681,-18.0934 L 1.09344,-18.0268 L 1.15576,-17.9561 L 1.21352,-17.8817 L 1.26648,-17.8037
 L 1.31445,-17.7226 L 1.35724,-17.6387 L 1.39465,-17.5522 L 1.42657,-17.4635 L 1.45287,-17.373 L 1.47342,-17.2811
 L 1.48816,-17.188 L 1.49704,-17.0942 L 1.5,-17 L 1.49704,-16.9058 L 1.48816,-16.812 L 1.47342,-16.7189
 L 1.45287,-16.627 L 1.42657,-16.5365 L 1.39465,-16.4478 L 1.35724,-16.3613 L 1.31445,-16.2774 L 1.26648,-16.1963
 L 1.21352,-16.1183 L 1.15576,-16.0439 L 1.09344,-15.9732 L 1.02681,-15.9065 L 0.956131,-15.8442 L 0.881668,-15.7865
 L 0.803726,-15.7335 L 0.722626,-15.6855 L 0.638657,-15.6427 L 0.552185,-15.6053 L 0.463516,-15.5734 L 0.373032,-15.5471
 L 0.281067,-15.5266 L 0.187988,-15.5118 L 0.0941772,-15.5029 L 0,-15.5 z
M 14.8116,-12.0059 L 14.624,-12.0237 L 14.4379,-12.0531 L 14.2539,-12.0942 L 14.0729,-12.1468 L 13.8956,-12.2107
 L 13.7227,-12.2855 L 13.5547,-12.3711 L 13.3925,-12.467 L 13.2366,-12.5729 L 13.0877,-12.6884 L 12.9464,-12.8131
 L 12.8131,-12.9464 L 12.6884,-13.0877 L 12.5729,-13.2366 L 12.467,-13.3925 L 12.3711,-13.5547 L 12.2855,-13.7227
 L 12.2107,-13.8956 L 12.1468,-14.0729 L 12.0942,-14.2539 L 12.0531,-14.4379 L 12.0237,-14.624 L 12.0059,-14.8116
 L 12,-15 L 12.0059,-15.1884 L 12.0237,-15.376 L 12.0531,-15.5621 L 12.0942,-15.7461 L 12.1468,-15.927
 L 12.2107,-16.1044 L 12.2855,-16.2773 L 12.3711,-16.4453 L 12.467,-16.6075 L 12.5729,-16.7634 L 12.6884,-16.9123
 L 12.8131,-17.0536 L 12.9464,-17.1869 L 13.0877,-17.3115 L 13.2366,-17.427 L 13.3925,-17.533 L 13.5547,-17.6289
 L 13.7227,-17.7145 L 13.8956,-17.7893 L 14.0729,-17.8532 L 14.2539,-17.9057 L 14.4379,-17.9469 L 14.624,-17.9763
 L 14.8116,-17.9941 L 15,-18 L 15.1884,-17.9941 L 15.376,-17.9763 L 15.5621,-17.9469 L 15.7461,-17.9057
 L 15.927,-17.8532 L 16.1044,-17.7893 L 16.2773,-17.7145 L 16.4453,-17.6289 L 16.6075,-17.533 L 16.7634,-17.427
 L 16.9123,-17.3115 L 17.0536,-17.1869 L 17.1869,-17.0536 L 17.3115,-16.9123 L 17.427,-16.7634 L 17.533,-16.6075
 L 17.6289,-16.4453 L 17.7145,-16.2773 L 17.7893,-16.1044 L 17.8532,-15.927 L 17.9057,-15.7461 L 17.9469,-15.5621
 L 17.9763,-15.376 L 17.9941,-15.1884 L 18,-15 L 17.9941,-14.8116 L 17.9763,-14.624 L 17.9469,-14.4379
 L 17.9057,-14.2539 L 17.8532,-14.0729 L 17.7893,-13.8956 L 17.7145,-13.7227 L 17.6289,-13.5547 L 17.533,-13.3925
 L 17.427,-13.2366 L 17.3115,-13.0877 L 17.1869,-12.9464 L 17.0536,-12.8131 L 16.9123,-12.6884 L 16.7634,-12.5729
 L 16.6075,-12.467 L 16.4453,-12.3711 L 16.2773,-12.2855 L 16.1044,-12.2107 L 15.927,-12.1468 L 15.7461,-12.0942
 L 15.5621,-12.0531 L 15.376,-12.0237 L 15.1884,-12.0059 L 15,-12 z
M -15.1884,-12.0059 L -15.376,-12.0237 L -15.5621,-12.0531 L -15.7461,-12.0942 L -15.927,-12.1468 L -16.1044,-12.2107
 L -16.2773,-12.2855 L -16.4453,-12.3711 L -16.6075,-12.467 L -16.7634,-12.5729 L -16.9123,-12.6884 L -17.0536,-12.8131
 L -17.1869,-12.9464 L -17.3115,-13.0877 L -17.427,-13.2366 L -17.533,-13.3925 L -17.6289,-13.5547 L -17.7145,-13.7227
 L -17.7893,-13.8956 L -17.8532,-14.0729 L -17.9057,-14.2539 L -17.9469,-14.4379 L -17.9763,-14.624 L -17.9941,-14.8116
 L -18,-15 L -17.9941,-15.1884 L -17.9763,-15.376 L -17.9469,-15.5621 L -17.9057,-15.7461 L -17.8532,-15.927
 L -17.7893,-16.1044 L -17.7145,-16.2773 L -17.6289,-16.4453 L -17.533,-16.6075 L -17.427,-16.7634 L -17.3115,-16.9123
 L -17.1869,-17.0536 L -17.0536,-17.1869 L -16.9123,-17.3115 L -16.7634,-17.427 L -16.6075,-17.533 L -16.4453,-17.6289
 L -16.2773,-17.7145 L -16.1044,-17.7893 L -15.927,-17.8532 L -15.7461,-17.9057 L -15.5621,-17.9469 L -15.376,-17.9763
 L -15.1884,-17.9941 L -15,-18 L -14.8116,-17.9941 L -14.624,-17.9763 L -14.4379,-17.9469 L -14.2539,-17.9057
 L -14.0729,-17.8532 L -13.8956,-17.7893 L -13.7227,-17.7145 L -13.5547,-17.6289 L -13.3925,-17.533 L -13.2366,-17.427
 L -13.0877,-17.3115 L -12.9464,-17.1869 L -12.8131,-17.0536 L -12.6884,-16.9123 L -12.5729,-16.7634 L -12.467,-16.6075
 L -12.3711,-16.4453 L -12.2855,-16.2773 L -12.2107,-16.1044 L -12.1468,-15.927 L -12.0942,-15.7461 L -12.0531,-15.5621
 L -12.0237,-15.376 L -12.0059,-15.1884 L -12,-15 L -12.0059,-14.8116 L -12.0237,-14.624 L -12.0531,-14.4379
 L -12.0942,-14.2539 L -12.1468,-14.0729 L -12.2107,-13.8956 L -12.2855,-13.7227 L -12.3711,-13.5547 L -12.467,-13.3925
 L -12.5729,-13.2366 L -12.6884,-13.0877 L -12.8131,-12.9464 L -12.9464,-12.8131 L -13.0877,-12.6884 L -13.2366,-12.5729
 L -13.3925,-12.467 L -13.5547,-12.3711 L -13.7227,-12.2855 L -13.8956,-12.2107 L -14.0729,-12.1468 L -14.2539,-12.0942
 L -14.4379,-12.0531 L -14.624,-12.0237 L -14.8116,-12.0059 L -15,-12 z
M -0.659286,10.4793 L -1.31599,10.4172 L -1.9675,10.314 L -2.61124,10.1701 L -3.24467,9.98608 L -3.8653,9.76265
 L -4.47067,9.50067 L -5.05841,9.20122 L -5.62617,8.86543 L -6.17174,8.49467 L -6.69295,8.09038 L -7.18774,7.65416
 L -7.65416,7.18774 L -8.09038,6.69295 L -8.49467,6.17174 L -8.86543,5.62617 L -9.20122,5.05841 L -9.50067,4.47067
 L -9.76265,3.8653 L -9.98608,3.24467 L -10.1701,2.61124 L -10.314,1.9675 L -10.4172,1.31599 L -10.4793,0.659286
 L -10.5,-0 L -10.4793,-0.659286 L -10.4172,-1.31599 L -10.314,-1.9675 L -10.1701,-2.61124 L -9.98608,-3.24467
 L -9.76265,-3.8653 L -9.50067,-4.47067 L -9.20122,-5.05841 L -8.86543,-5.62617 L -8.49467,-6.17174 L -8.09038,-6.69295
 L -7.65416,-7.18774 L -7.18774,-7.65416 L -6.69295,-8.09038 L -6.17174,-8.49467 L -5.62617,-8.86543 L -5.05841,-9.20122
 L -4.47067,-9.50067 L -3.8653,-9.76265 L -3.24467,-9.98608 L -2.61124,-10.1701 L -1.9675,-10.314 L -1.31599,-10.4172
 L -0.659286,-10.4793 L 0,-10.5 L 0.659286,-10.4793 L 1.31599,-10.4172 L 1.9675,-10.314 L 2.61124,-10.1701
 L 3.24467,-9.98608 L 3.8653,-9.76265 L 4.47067,-9.50067 L 5.05841,-9.20122 L 5.62617,-8.86543 L 6.17174,-8.49467
 L 6.69295,-8.09038 L 7.18774,-7.65416 L 7.65416,-7.18774 L 8.09038,-6.69295 L 8.49467,-6.17174 L 8.86543,-5.62617
 L 9.20122,-5.05841 L 9.50067,-4.47067 L 9.76265,-3.8653 L 9.98608,-3.24467 L 10.1701,-2.61124 L 10.314,-1.9675
 L 10.4172,-1.31599 L 10.4793,-0.659286 L 10.5,-0 L 10.4793,0.659286 L 10.4172,1.31599 L 10.314,1.9675
 L 10.1701,2.61124 L 9.98608,3.24467 L 9.76265,3.8653 L 9.50067,4.47067 L 9.20122,5.05841 L 8.86543,5.62617
 L 8.49467,6.17174 L 8.09038,6.69295 L 7.65416,7.18774 L 7.18774,7.65416 L 6.69295,8.09038 L 6.17174,8.49467
 L 5.62617,8.86543 L 5.05841,9.20122 L 4.47067,9.50067 L 3.8653,9.76265 L 3.24467,9.98608 L 2.61124,10.1701
 L 1.9675,10.314 L 1.31599,10.4172 L 0.659286,10.4793 L 0,10.5 z
M -17.0942,1.49704 L -17.188,1.48816 L -17.2811,1.47342 L -17.373,1.45287 L -17.4635,1.42657 L -17.5522,1.39465
 L -17.6387,1.35724 L -17.7226,1.31445 L -17.8037,1.26648 L -17.8817,1.21352 L -17.9561,1.15576 L -18.0268,1.09344
 L -18.0934,1.02681 L -18.1558,0.956131 L -18.2135,0.881668 L -18.2665,0.803726 L -18.3145,0.722626 L -18.3572,0.638657
 L -18.3947,0.552185 L -18.4266,0.463516 L -18.4529,0.373032 L -18.4734,0.281067 L -18.4882,0.187988 L -18.497,0.0941772
 L -18.5,-0 L -18.497,-0.0941772 L -18.4882,-0.187988 L -18.4734,-0.281067 L -18.4529,-0.373032 L -18.4266,-0.463516
 L -18.3947,-0.552185 L -18.3572,-0.638657 L -18.3145,-0.722626 L -18.2665,-0.803726 L -18.2135,-0.881668 L -18.1558,-0.956131
 L -18.0934,-1.02681 L -18.0268,-1.09344 L -17.9561,-1.15576 L -17.8817,-1.21352 L -17.8037,-1.26648 L -17.7226,-1.31445
 L -17.6387,-1.35724 L -17.5522,-1.39465 L -17.4635,-1.42657 L -17.373,-1.45287 L -17.2811,-1.47342 L -17.188,-1.48816
 L -17.0942,-1.49704 L -17,-1.5 L -16.9058,-1.49704 L -16.812,-1.48816 L -16.7189,-1.47342 L -16.627,-1.45287
 L -16.5365,-1.42657 L -16.4478,-1.39465 L -16.3613,-1.35724 L -16.2774,-1.31445 L -16.1963,-1.26648 L -16.1183,-1.21352
 L -16.0439,-1.15576 L -15.9732,-1.09344 L -15.9065,-1.02681 L -15.8442,-0.956131 L -15.7865,-0.881668 L -15.7335,-0.803726
 L -15.6855,-0.722626 L -15.6427,-0.638657 L -15.6053,-0.552185 L -15.5734,-0.463516 L -15.5471,-0.373032 L -15.5266,-0.281067
 L -15.5118,-0.187988 L -15.5029,-0.0941772 L -15.5,-0 L -15.5029,0.0941772 L -15.5118,0.187988 L -15.5266,0.281067
 L -15.5471,0.373032 L -15.5734,0.463516 L -15.6053,0.552185 L -15.6427,0.638657 L -15.6855,0.722626 L -15.7335,0.803726
 L -15.7865,0.881668 L -15.8442,0.956131 L -15.9065,1.02681 L -15.9732,1.09344 L -16.0439,1.15576 L -16.1183,1.21352
 L -16.1963,1.26648 L -16.2774,1.31445 L -16.3613,1.35724 L -16.4478,1.39465 L -16.5365,1.42657 L -16.627,1.45287
 L -16.7189,1.47342 L -16.812,1.48816 L -16.9058,1.49704 L -17,1.5 z
M 16.9058,1.49704 L 16.812,1.48816 L 16.7189,1.47342 L 16.627,1.45287 L 16.5365,1.42657 L 16.4478,1.39465
 L 16.3613,1.35724 L 16.2774,1.31445 L 16.1963,1.26648 L 16.1183,1.21352 L 16.0439,1.15576 L 15.9732,1.09344
 L 15.9065,1.02681 L 15.8442,0.956131 L 15.7865,0.881668 L 15.7335,0.803726 L 15.6855,0.722626 L 15.6427,0.638657
 L 15.6053,0.552185 L 15.5734,0.463516 L 15.5471,0.373032 L 15.5266,0.281067 L 15.5118,0.187988 L 15.5029,0.0941772
 L 15.5,-0 L 15.5029,-0.0941772 L 15.5118,-0.187988 L 15.5266,-0.281067 L 15.5471,-0.373032 L 15.5734,-0.463516
 L 15.6053,-0.552185 L 15.6427,-0.638657 L 15.6855,-0.722626 L 15.7335,-0.803726 L 15.7865,-0.881668 L 15.8442,-0.956131
 L 15.9065,-1.02681 L 15.9732,-1.09344 L 16.0439,-1.15576 L 16.1183,-1.21352 L 16.1963,-1.26648 L 16.2774,-1.31445
 L 16.3613,-1.35724 L 16.4478,-1.39465 L 16.5365,-1.42657 L 16.627,-1.45287 L 16.7189,-1.47342 L 16.812,-1.48816
 L 16.9058,-1.49704 L 17,-1.5 L 17.0942,-1.49704 L 17.188,-1.48816 L 17.2811,-1.47342 L 17.373,-1.45287
 L 17.4635,-1.42657 L 17.5522,-1.39465 L 17.6387,-1.35724 L 17.7226,-1.31445 L 17.8037,-1.26648 L 17.8817,-1.21352
 L 17.9561,-1.15576 L 18.0268,-1.09344 L 18.0934,-1.02681 L 18.1558,-0.956131 L 18.2135,-0.881668 L 18.2665,-0.803726
 L 18.3145,-0.722626 L 18.3572,-0.638657 L 18.3947,-0.552185 L 18.4266,-0.463516 L 18.4529,-0.373032 L 18.4734,-0.281067
 L 18.4882,-0.187988 L 18.497,-0.0941772 L 18.5,-0 L 18.497,0.0941772 L 18.4882,0.187988 L 18.4734,0.281067
 L 18.4529,0.373032 L 18.4266,0.463516 L 18.3947,0.552185 L 18.3572,0.638657 L 18.3145,0.722626 L 18.2665,0.803726
 L 18.2135,0.881668 L 18.1558,0.956131 L 18.0934,1.02681 L 18.0268,1.09344 L 17.9561,1.15576 L 17.8817,1.21352
 L 17.8037,1.26648 L 17.7226,1.31445 L 17.6387,1.35724 L 17.5522,1.39465 L 17.4635,1.42657 L 17.373,1.45287
 L 17.2811,1.47342 L 17.188,1.48816 L 17.0942,1.49704 L 17,1.5 z
M -15.1884,17.9941 L -15.376,17.9763 L -15.5621,17.9469 L -15.7461,17.9057 L -15.927,17.8532 L -16.1044,17.7893
 L -16.2773,17.7145 L -16.4453,17.6289 L -16.6075,17.533 L -16.7634,17.427 L -16.9123,17.3115 L -17.0536,17.1869
 L -17.1869,17.0536 L -17.3115,16.9123 L -17.427,16.7634 L -17.533,16.6075 L -17.6289,16.4453 L -17.7145,16.2773
 L -17.7893,16.1044 L -17.8532,15.927 L -17.9057,15.7461 L -17.9469,15.5621 L -17.9763,15.376 L -17.9941,15.1884
 L -18,15 L -17.9941,14.8116 L -17.9763,14.624 L -17.9469,14.4379 L -17.9057,14.2539 L -17.8532,14.0729
 L -17.7893,13.8956 L -17.7145,13.7227 L -17.6289,13.5547 L -17.533,13.3925 L -17.427,13.2366 L -17.3115,13.0877
 L -17.1869,12.9464 L -17.0536,12.8131 L -16.9123,12.6884 L -16.7634,12.5729 L -16.6075,12.467 L -16.4453,12.3711
 L -16.2773,12.2855 L -16.1044,12.2107 L -15.927,12.1468 L -15.7461,12.0942 L -15.5621,12.0531 L -15.376,12.0237
 L -15.1884,12.0059 L -15,12 L -14.8116,12.0059 L -14.624,12.0237 L -14.4379,12.0531 L -14.2539,12.0942
 L -14.0729,12.1468 L -13.8956,12.2107 L -13.7227,12.2855 L -13.5547,12.3711 L -13.3925,12.467 L -13.2366,12.5729
 L -13.0877,12.6884 L -12.9464,12.8131 L -12.8131,12.9464 L -12.6884,13.0877 L -12.5729,13.2366 L -12.467,13.3925
 L -12.3711,13.5547 L -12.2855,13.7227 L -12.2107,13.8956 L -12.1468,14.0729 L -12.0942,14.2539 L -12.0531,14.4379
 L -12.0237,14.624 L -12.0059,14.8116 L -12,15 L -12.0059,15.1884 L -12.0237,15.376 L -12.0531,15.5621
 L -12.0942,15.7461 L -12.1468,15.927 L -12.2107,16.1044 L -12.2855,16.2773 L -12.3711,16.4453 L -12.467,16.6075
 L -12.5729,16.7634 L -12.6884,16.9123 L -12.8131,17.0536 L -12.9464,17.1869 L -13.0877,17.3115 L -13.2366,17.427
 L -13.3925,17.533 L -13.5547,17.6289 L -13.7227,17.7145 L -13.8956,17.7893 L -14.0729,17.8532 L -14.2539,17.9057
 L -14.4379,17.9469 L -14.624,17.9763 L -14.8116,17.9941 L -15,18 z
M 14.8116,17.9941 L 14.624,17.9763 L 14.4379,17.9469 L 14.2539,17.9057 L 14.0729,17.8532 L 13.8956,17.7893
 L 13.7227,17.7145 L 13.5547,17.6289 L 13.3925,17.533 L 13.2366,17.427 L 13.0877,17.3115 L 12.9464,17.1869
 L 12.8131,17.0536 L 12.6884,16.9123 L 12.5729,16.7634 L 12.467,16.6075 L 12.3711,16.4453 L 12.2855,16.2773
 L 12.2107,16.1044 L 12.1468,15.927 L 12.0942,15.7461 L 12.0531,15.5621 L 12.0237,15.376 L 12.0059,15.1884
 L 12,15 L 12.0059,14.8116 L 12.0237,14.624 L 12.0531,14.4379 L 12.0942,14.2539 L 12.1468,14.0729
 L 12.2107,13.8956 L 12.2855,13.7227 L 12.3711,13.5547 L 12.467,13.3925 L 12.5729,13.2366 L 12.6884,13.0877
 L 12.8131,12.9464 L 12.9464,12.8131 L 13.0877,12.6884 L 13.2366,12.5729 L 13.3925,12.467 L 13.5547,12.3711
 L 13.7227,12.2855 L 13.8956,12.2107 L 14.0729,12.1468 L 14.2539,12.0942 L 14.4379,12.0531 L 14.624,12.0237
 L 14.8116,12.0059 L 15,12 L 15.1884,12.0059 L 15.376,12.0237 L 15.5621,12.0531 L 15.7461,12.0942
 L 15.927,12.1468 L 16.1044,12.2107 L 16.2773,12.2855 L 16.4453,12.3711 L 16.6075,12.467 L 16.7634,12.5729
 L 16.9123,12.6884 L 17.0536,12.8131 L 17.1869,12.9464 L 17.3115,13.0877 L 17.427,13.2366 L 17.533,13.3925
 L 17.6289,13.5547 L 17.7145,13.7227 L 17.7893,13.8956 L 17.8532,14.0729 L 17.9057,14.2539 L 17.9469,14.4379
 L 17.9763,14.624 L 17.9941,14.8116 L 18,15 L 17.9941,15.1884 L 17.9763,15.376 L 17.9469,15.5621
 L 17.9057,15.7461 L 17.8532,15.927 L 17.7893,16.1044 L 17.7145,16.2773 L 17.6289,16.4453 L 17.533,16.6075
 L 17.427,16.7634 L 17.3115,16.9123 L 17.1869,17.0536 L 17.0536,17.1869 L 16.9123,17.3115 L 16.7634,17.427
 L 16.6075,17.533 L 16.4453,17.6289 L 16.2773,17.7145 L 16.1044,17.7893 L 15.927,17.8532 L 15.7461,17.9057
 L 15.5621,17.9469 L 15.376,17.9763 L 15.1884,17.9941 L 15,18 z
M -0.0941772,18.497 L -0.187988,18.4882 L -0.281067,18.4734 L -0.373032,18.4529 L -0.463516,18.4266 L -0.552185,18.3947
 L -0.638657,18.3572 L -0.722626,18.3145 L -0.803726,18.2665 L -0.881668,18.2135 L -0.956131,18.1558 L -1.02681,18.0934
 L -1.09344,18.0268 L -1.15576,17.9561 L -1.21352,17.8817 L -1.26648,17.8037 L -1.31445,17.7226 L -1.35724,17.6387
 L -1.39465,17.5522 L -1.42657,17.4635 L -1.45287,17.373 L -1.47342,17.2811 L -1.48816,17.188 L -1.49704,17.0942
 L -1.5,17 L -1.49704,16.9058 L -1.48816,16.812 L -1.47342,16.7189 L -1.45287,16.627 L -1.42657,16.5365
 L -1.39465,16.4478 L -1.35724,16.3613 L -1.31445,16.2774 L -1.26648,16.1963 L -1.21352,16.1183 L -1.15576,16.0439
 L -1.09344,15.9732 L -1.02681,15.9065 L -0.956131,15.8442 L -0.881668,15.7865 L -0.803726,15.7335 L -0.722626,15.6855
 L -0.638657,15.6427 L -0.552185,15.6053 L -0.463516,15.5734 L -0.373032,15.5471 L -0.281067,15.5266 L -0.187988,15.5118
 L -0.0941772,15.5029 L 0,15.5 L 0.0941772,15.5029 L 0.187988,15.5118 L 0.281067,15.5266 L 0.373032,15.5471
 L 0.463516,15.5734 L 0.552185,15.6053 L 0.638657,15.6427 L 0.722626,15.6855 L 0.803726,15.7335 L 0.881668,15.7865
 L 0.956131,15.8442 L 1.02681,15.9065 L 1.09344,15.9732 L 1.15576,16.0439 L 1.21352,16.1183 L 1.26648,16.1963
 L 1.31445,16.2774 L 1.35724,16.3613 L 1.39465,16.4478 L 1.42657,16.5365 L 1.45287,16.627 L 1.47342,16.7189
 L 1.48816,16.812 L 1.49704,16.9058 L 1.5,17 L 1.49704,17.0942 L 1.48816,17.188 L 1.47342,17.2811
 L 1.45287,17.373 L 1.42657,17.4635 L 1.39465,17.5522 L 1.35724,17.6387 L 1.31445,17.7226 L 1.26648,17.8037
 L 1.21352,17.8817 L 1.15576,17.9561 L 1.09344,18.0268 L 1.02681,18.0934 L 0.956131,18.1558 L 0.881668,18.2135
 L 0.803726,18.2665 L 0.722626,18.3145 L 0.638657,18.3572 L 0.552185,18.3947 L 0.463516,18.4266 L 0.373032,18.4529
 L 0.281067,18.4734 L 0.187988,18.4882 L 0.0941772,18.497 L 0,18.5 z
" stroke="black" fill="lightgray" stroke-width="0.5"/>
</svg>
