  0
SECTION
  2
BLOCKS
  0
ENDSEC
  0
SECTION
  2
ENTITIES
  0
LINE
  8
0
 10
16.3139
 20
-20.9901
 11
16.6267
 21
-20.9606
  0
LINE
  8
0
 10
16.6267
 20
-20.9606
 11
16.9369
 21
-20.9114
  0
LINE
  8
0
 10
16.9369
 20
-20.9114
 11
17.2435
 21
-20.8429
  0
LINE
  8
0
 10
17.2435
 20
-20.8429
 11
17.5451
 21
-20.7553
  0
LINE
  8
0
 10
17.5451
 20
-20.7553
 11
17.8406
 21
-20.6489
  0
LINE
  8
0
 10
17.8406
 20
-20.6489
 11
18.1289
 21
-20.5241
  0
LINE
  8
0
 10
18.1289
 20
-20.5241
 11
18.4088
 21
-20.3815
  0
LINE
  8
0
 10
18.4088
 20
-20.3815
 11
18.6791
 21
-20.2216
  0
LINE
  8
0
 10
18.6791
 20
-20.2216
 11
18.9389
 21
-20.0451
  0
LINE
  8
0
 10
18.9389
 20
-20.0451
 11
19.1871
 21
-19.8526
  0
LINE
  8
0
 10
19.1871
 20
-19.8526
 11
19.4227
 21
-19.6448
  0
LINE
  8
0
 10
19.4227
 20
-19.6448
 11
19.6448
 21
-19.4227
  0
LINE
  8
0
 10
19.6448
 20
-19.4227
 11
19.8526
 21
-19.1871
  0
LINE
  8
0
 10
19.8526
 20
-19.1871
 11
20.0451
 21
-18.9389
  0
LINE
  8
0
 10
20.0451
 20
-18.9389
 11
20.2216
 21
-18.6791
  0
LINE
  8
0
 10
20.2216
 20
-18.6791
 11
20.3815
 21
-18.4088
  0
LINE
  8
0
 10
20.3815
 20
-18.4088
 11
20.5241
 21
-18.1289
  0
LINE
  8
0
 10
20.5241
 20
-18.1289
 11
20.6489
 21
-17.8406
  0
LINE
  8
0
 10
20.6489
 20
-17.8406
 11
20.7553
 21
-17.5451
  0
LINE
  8
0
 10
20.7553
 20
-17.5451
 11
20.8429
 21
-17.2435
  0
LINE
  8
0
 10
20.8429
 20
-17.2435
 11
20.9114
 21
-16.9369
  0
LINE
  8
0
 10
20.9114
 20
-16.9369
 11
20.9606
 21
-16.6267
  0
LINE
  8
0
 10
20.9606
 20
-16.6267
 11
20.9901
 21
-16.3139
  0
LINE
  8
0
 10
20.9901
 20
-16.3139
 11
21
 21
-16
  0
LINE
  8
0
 10
21
 20
-16
 11
21
 21
16
  0
LINE
  8
0
 10
21
 20
16
 11
20.9901
 21
16.3139
  0
LINE
  8
0
 10
20.9901
 20
16.3139
 11
20.9606
 21
16.6267
  0
LINE
  8
0
 10
20.9606
 20
16.6267
 11
20.9114
 21
16.9369
  0
LINE
  8
0
 10
20.9114
 20
16.9369
 11
20.8429
 21
17.2435
  0
LINE
  8
0
 10
20.8429
 20
17.2435
 11
20.7553
 21
17.5451
  0
LINE
  8
0
 10
20.7553
 20
17.5451
 11
20.6489
 21
17.8406
  0
LINE
  8
0
 10
20.6489
 20
17.8406
 11
20.5241
 21
18.1289
  0
LINE
  8
0
 10
20.5241
 20
18.1289
 11
20.3815
 21
18.4088
  0
LINE
  8
0
 10
20.3815
 20
18.4088
 11
20.2216
 21
18.6791
  0
LINE
  8
0
 10
20.2216
 20
18.6791
 11
20.0451
 21
18.9389
  0
LINE
  8
0
 10
20.0451
 20
18.9389
 11
19.8526
 21
19.1871
  0
LINE
  8
0
 10
19.8526
 20
19.1871
 11
19.6448
 21
19.4227
  0
LINE
  8
0
 10
19.6448
 20
19.4227
 11
19.4227
 21
19.6448
  0
LINE
  8
0
 10
19.4227
 20
19.6448
 11
19.1871
 21
19.8526
  0
LINE
  8
0
 10
19.1871
 20
19.8526
 11
18.9389
 21
20.0451
  0
LINE
  8
0
 10
18.9389
 20
20.0451
 11
18.6791
 21
20.2216
  0
LINE
  8
0
 10
18.6791
 20
20.2216
 11
18.4088
 21
20.3815
  0
LINE
  8
0
 10
18.4088
 20
20.3815
 11
18.1289
 21
20.5241
  0
LINE
  8
0
 10
18.1289
 20
20.5241
 11
17.8406
 21
20.6489
  0
LINE
  8
0
 10
17.8406
 20
20.6489
 11
17.5451
 21
20.7553
  0
LINE
  8
0
 10
17.5451
 20
20.7553
 11
17.2435
 21
20.8429
  0
LINE
  8
0
 10
17.2435
 20
20.8429
 11
16.9369
 21
20.9114
  0
LINE
  8
0
 10
16.9369
 20
20.9114
 11
16.6267
 21
20.9606
  0
LINE
  8
0
 10
16.6267
 20
20.9606
 11
16.3139
 21
20.9901
  0
LINE
  8
0
 10
16.3139
 20
20.9901
 11
16
 21
21
  0
LINE
  8
0
 10
16
 20
21
 11
-16
 21
21
  0
LINE
  8
0
 10
-16
 20
21
 11
-16.3139
 21
20.9901
  0
LINE
  8
0
 10
-16.3139
 20
20.9901
 11
-16.6267
 21
20.9606
  0
LINE
  8
0
 10
-16.6267
 20
20.9606
 11
-16.9369
 21
20.9114
  0
LINE
  8
0
 10
-16.9369
 20
20.9114
 11
-17.2435
 21
20.8429
  0
LINE
  8
0
 10
-17.2435
 20
20.8429
 11
-17.5451
 21
20.7553
  0
LINE
  8
0
 10
-17.5451
 20
20.7553
 11
-17.8406
 21
20.6489
  0
LINE
  8
0
 10
-17.8406
 20
20.6489
 11
-18.1289
 21
20.5241
  0
LINE
  8
0
 10
-18.1289
 20
20.5241
 11
-18.4088
 21
20.3815
  0
LINE
  8
0
 10
-18.4088
 20
20.3815
 11
-18.6791
 21
20.2216
  0
LINE
  8
0
 10
-18.6791
 20
20.2216
 11
-18.9389
 21
20.0451
  0
LINE
  8
0
 10
-18.9389
 20
20.0451
 11
-19.1871
 21
19.8526
  0
LINE
  8
0
 10
-19.1871
 20
19.8526
 11
-19.4227
 21
19.6448
  0
LINE
  8
0
 10
-19.4227
 20
19.6448
 11
-19.6448
 21
19.4227
  0
LINE
  8
0
 10
-19.6448
 20
19.4227
 11
-19.8526
 21
19.1871
  0
LINE
  8
0
 10
-19.8526
 20
19.1871
 11
-20.0451
 21
18.9389
  0
LINE
  8
0
 10
-20.0451
 20
18.9389
 11
-20.2216
 21
18.6791
  0
LINE
  8
0
 10
-20.2216
 20
18.6791
 11
-20.3815
 21
18.4088
  0
LINE
  8
0
 10
-20.3815
 20
18.4088
 11
-20.5241
 21
18.1289
  0
LINE
  8
0
 10
-20.5241
 20
18.1289
 11
-20.6489
 21
17.8406
  0
LINE
  8
0
 10
-20.6489
 20
17.8406
 11
-20.7553
 21
17.5451
  0
LINE
  8
0
 10
-20.7553
 20
17.5451
 11
-20.8429
 21
17.2435
  0
LINE
  8
0
 10
-20.8429
 20
17.2435
 11
-20.9114
 21
16.9369
  0
LINE
  8
0
 10
-20.9114
 20
16.9369
 11
-20.9606
 21
16.6267
  0
LINE
  8
0
 10
-20.9606
 20
16.6267
 11
-20.9901
 21
16.3139
  0
LINE
  8
0
 10
-20.9901
 20
16.3139
 11
-21
 21
16
  0
LINE
  8
0
 10
-21
 20
16
 11
-21
 21
-16
  0
LINE
  8
0
 10
-21
 20
-16
 11
-20.9901
 21
-16.3139
  0
LINE
  8
0
 10
-20.9901
 20
-16.3139
 11
-20.9606
 21
-16.6267
  0
LINE
  8
0
 10
-20.9606
 20
-16.6267
 11
-20.9114
 21
-16.9369
  0
LINE
  8
0
 10
-20.9114
 20
-16.9369
 11
-20.8429
 21
-17.2435
  0
LINE
  8
0
 10
-20.8429
 20
-17.2435
 11
-20.7553
 21
-17.5451
  0
LINE
  8
0
 10
-20.7553
 20
-17.5451
 11
-20.6489
 21
-17.8406
  0
LINE
  8
0
 10
-20.6489
 20
-17.8406
 11
-20.5241
 21
-18.1289
  0
LINE
  8
0
 10
-20.5241
 20
-18.1289
 11
-20.3815
 21
-18.4088
  0
LINE
  8
0
 10
-20.3815
 20
-18.4088
 11
-20.2216
 21
-18.6791
  0
LINE
  8
0
 10
-20.2216
 20
-18.6791
 11
-20.0451
 21
-18.9389
  0
LINE
  8
0
 10
-20.0451
 20
-18.9389
 11
-19.8526
 21
-19.1871
  0
LINE
  8
0
 10
-19.8526
 20
-19.1871
 11
-19.6448
 21
-19.4227
  0
LINE
  8
0
 10
-19.6448
 20
-19.4227
 11
-19.4227
 21
-19.6448
  0
LINE
  8
0
 10
-19.4227
 20
-19.6448
 11
-19.1871
 21
-19.8526
  0
LINE
  8
0
 10
-19.1871
 20
-19.8526
 11
-18.9389
 21
-20.0451
  0
LINE
  8
0
 10
-18.9389
 20
-20.0451
 11
-18.6791
 21
-20.2216
  0
LINE
  8
0
 10
-18.6791
 20
-20.2216
 11
-18.4088
 21
-20.3815
  0
LINE
  8
0
 10
-18.4088
 20
-20.3815
 11
-18.1289
 21
-20.5241
  0
LINE
  8
0
 10
-18.1289
 20
-20.5241
 11
-17.8406
 21
-20.6489
  0
LINE
  8
0
 10
-17.8406
 20
-20.6489
 11
-17.5451
 21
-20.7553
  0
LINE
  8
0
 10
-17.5451
 20
-20.7553
 11
-17.2435
 21
-20.8429
  0
LINE
  8
0
 10
-17.2435
 20
-20.8429
 11
-16.9369
 21
-20.9114
  0
LINE
  8
0
 10
-16.9369
 20
-20.9114
 11
-16.6267
 21
-20.9606
  0
LINE
  8
0
 10
-16.6267
 20
-20.9606
 11
-16.3139
 21
-20.9901
  0
LINE
  8
0
 10
-16.3139
 20
-20.9901
 11
-16
 21
-21
  0
LINE
  8
0
 10
-16
 20
-21
 11
16
 21
-21
  0
LINE
  8
0
 10
16
 20
-21
 11
16.3139
 21
-20.9901
  0
LINE
  8
0
 10
-0.0941772
 20
15.5029
 11
-0.187988
 21
15.5118
  0
LINE
  8
0
 10
-0.187988
 20
15.5118
 11
-0.281067
 21
15.5266
  0
LINE
  8
0
 10
-0.281067
 20
15.5266
 11
-0.373032
 21
15.5471
  0
LINE
  8
0
 10
-0.373032
 20
15.5471
 11
-0.463516
 21
15.5734
  0
LINE
  8
0
 10
-0.463516
 20
15.5734
 11
-0.552185
 21
15.6053
  0
LINE
  8
0
 10
-0.552185
 20
15.6053
 11
-0.638657
 21
15.6427
  0
LINE
  8
0
 10
-0.638657
 20
15.6427
 11
-0.722626
 21
15.6855
  0
LINE
  8
0
 10
-0.722626
 20
15.6855
 11
-0.803726
 21
15.7335
  0
LINE
  8
0
 10
-0.803726
 20
15.7335
 11
-0.881668
 21
15.7865
  0
LINE
  8
0
 10
-0.881668
 20
15.7865
 11
-0.956131
 21
15.8442
  0
LINE
  8
0
 10
-0.956131
 20
15.8442
 11
-1.02681
 21
15.9065
  0
LINE
  8
0
 10
-1.02681
 20
15.9065
 11
-1.09344
 21
15.9732
  0
LINE
  8
0
 10
-1.09344
 20
15.9732
 11
-1.15576
 21
16.0439
  0
LINE
  8
0
 10
-1.15576
 20
16.0439
 11
-1.21352
 21
16.1183
  0
LINE
  8
0
 10
-1.21352
 20
16.1183
 11
-1.26648
 21
16.1963
  0
LINE
  8
0
 10
-1.26648
 20
16.1963
 11
-1.31445
 21
16.2774
  0
LINE
  8
0
 10
-1.31445
 20
16.2774
 11
-1.35724
 21
16.3613
  0
LINE
  8
0
 10
-1.35724
 20
16.3613
 11
-1.39465
 21
16.4478
  0
LINE
  8
0
 10
-1.39465
 20
16.4478
 11
-1.42657
 21
16.5365
  0
LINE
  8
0
 10
-1.42657
 20
16.5365
 11
-1.45287
 21
16.627
  0
LINE
  8
0
 10
-1.45287
 20
16.627
 11
-1.47342
 21
16.7189
  0
LINE
  8
0
 10
-1.47342
 20
16.7189
 11
-1.48816
 21
16.812
  0
LINE
  8
0
 10
-1.48816
 20
16.812
 11
-1.49704
 21
16.9058
  0
LINE
  8
0
 10
-1.49704
 20
16.9058
 11
-1.5
 21
17
  0
LINE
  8
0
 10
-1.5
 20
17
 11
-1.49704
 21
17.0942
  0
LINE
  8
0
 10
-1.49704
 20
17.0942
 11
-1.48816
 21
17.188
  0
LINE
  8
0
 10
-1.48816
 20
17.188
 11
-1.47342
 21
17.2811
  0
LINE
  8
0
 10
-1.47342
 20
17.2811
 11
-1.45287
 21
17.373
  0
LINE
  8
0
 10
-1.45287
 20
17.373
 11
-1.42657
 21
17.4635
  0
LINE
  8
0
 10
-1.42657
 20
17.4635
 11
-1.39465
 21
17.5522
  0
LINE
  8
0
 10
-1.39465
 20
17.5522
 11
-1.35724
 21
17.6387
  0
LINE
  8
0
 10
-1.35724
 20
17.6387
 11
-1.31445
 21
17.7226
  0
LINE
  8
0
 10
-1.31445
 20
17.7226
 11
-1.26648
 21
17.8037
  0
LINE
  8
0
 10
-1.26648
 20
17.8037
 11
-1.21352
 21
17.8817
  0
LINE
  8
0
 10
-1.21352
 20
17.8817
 11
-1.15576
 21
17.9561
  0
LINE
  8
0
 10
-1.15576
 20
17.9561
 11
-1.09344
 21
18.0268
  0
LINE
  8
0
 10
-1.09344
 20
18.0268
 11
-1.02681
 21
18.0934
  0
LINE
  8
0
 10
-1.02681
 20
18.0934
 11
-0.956131
 21
18.1558
  0
LINE
  8
0
 10
-0.956131
 20
18.1558
 11
-0.881668
 21
18.2135
  0
LINE
  8
0
 10
-0.881668
 20
18.2135
 11
-0.803726
 21
18.2665
  0
LINE
  8
0
 10
-0.803726
 20
18.2665
 11
-0.722626
 21
18.3145
  0
LINE
  8
0
 10
-0.722626
 20
18.3145
 11
-0.638657
 21
18.3572
  0
LINE
  8
0
 10
-0.638657
 20
18.3572
 11
-0.552185
 21
18.3947
  0
LINE
  8
0
 10
-0.552185
 20
18.3947
 11
-0.463516
 21
18.4266
  0
LINE
  8
0
 10
-0.463516
 20
18.4266
 11
-0.373032
 21
18.4529
  0
LINE
  8
0
 10
-0.373032
 20
18.4529
 11
-0.281067
 21
18.4734
  0
LINE
  8
0
 10
-0.281067
 20
18.4734
 11
-0.187988
 21
18.4882
  0
LINE
  8
0
 10
-0.187988
 20
18.4882
 11
-0.0941772
 21
18.497
  0
LINE
  8
0
 10
-0.0941772
 20
18.497
 11
0
 21
18.5
  0
LINE
  8
0
 10
0
 20
18.5
 11
0.0941772
 21
18.497
  0
LINE
  8
0
 10
0.0941772
 20
18.497
 11
0.187988
 21
18.4882
  0
LINE
  8
0
 10
0.187988
 20
18.4882
 11
0.281067
 21
18.4734
  0
LINE
  8
0
 10
0.281067
 20
18.4734
 11
0.373032
 21
18.4529
  0
LINE
  8
0
 10
0.373032
 20
18.4529
 11
0.463516
 21
18.4266
  0
LINE
  8
0
 10
0.463516
 20
18.4266
 11
0.552185
 21
18.3947
  0
LINE
  8
0
 10
0.552185
 20
18.3947
 11
0.638657
 21
18.3572
  0
LINE
  8
0
 10
0.638657
 20
18.3572
 11
0.722626
 21
18.3145
  0
LINE
  8
0
 10
0.722626
 20
18.3145
 11
0.803726
 21
18.2665
  0
LINE
  8
0
 10
0.803726
 20
18.2665
 11
0.881668
 21
18.2135
  0
LINE
  8
0
 10
0.881668
 20
18.2135
 11
0.956131
 21
18.1558
  0
LINE
  8
0
 10
0.956131
 20
18.1558
 11
1.02681
 21
18.0934
  0
LINE
  8
0
 10
1.02681
 20
18.0934
 11
1.09344
 21
18.0268
  0
LINE
  8
0
 10
1.09344
 20
18.0268
 11
1.15576
 21
17.9561
  0
LINE
  8
0
 10
1.15576
 20
17.9561
 11
1.21352
 21
17.8817
  0
LINE
  8
0
 10
1.21352
 20
17.8817
 11
1.26648
 21
17.8037
  0
LINE
  8
0
 10
1.26648
 20
17.8037
 11
1.31445
 21
17.7226
  0
LINE
  8
0
 10
1.31445
 20
17.7226
 11
1.35724
 21
17.6387
  0
LINE
  8
0
 10
1.35724
 20
17.6387
 11
1.39465
 21
17.5522
  0
LINE
  8
0
 10
1.39465
 20
17.5522
 11
1.42657
 21
17.4635
  0
LINE
  8
0
 10
1.42657
 20
17.4635
 11
1.45287
 21
17.373
  0
LINE
  8
0
 10
1.45287
 20
17.373
 11
1.47342
 21
17.2811
  0
LINE
  8
0
 10
1.47342
 20
17.2811
 11
1.48816
 21
17.188
  0
LINE
  8
0
 10
1.48816
 20
17.188
 11
1.49704
 21
17.0942
  0
LINE
  8
0
 10
1.49704
 20
17.0942
 11
1.5
 21
17
  0
LINE
  8
0
 10
1.5
 20
17
 11
1.49704
 21
16.9058
  0
LINE
  8
0
 10
1.49704
 20
16.9058
 11
1.48816
 21
16.812
  0
LINE
  8
0
 10
1.48816
 20
16.812
 11
1.47342
 21
16.7189
  0
LINE
  8
0
 10
1.47342
 20
16.7189
 11
1.45287
 21
16.627
  0
LINE
  8
0
 10
1.45287
 20
16.627
 11
1.42657
 21
16.5365
  0
LINE
  8
0
 10
1.42657
 20
16.5365
 11
1.39465
 21
16.4478
  0
LINE
  8
0
 10
1.39465
 20
16.4478
 11
1.35724
 21
16.3613
  0
LINE
  8
0
 10
1.35724
 20
16.3613
 11
1.31445
 21
16.2774
  0
LINE
  8
0
 10
1.31445
 20
16.2774
 11
1.26648
 21
16.1963
  0
LINE
  8
0
 10
1.26648
 20
16.1963
 11
1.21352
 21
16.1183
  0
LINE
  8
0
 10
1.21352
 20
16.1183
 11
1.15576
 21
16.0439
  0
LINE
  8
0
 10
1.15576
 20
16.0439
 11
1.09344
 21
15.9732
  0
LINE
  8
0
 10
1.09344
 20
15.9732
 11
1.02681
 21
15.9065
  0
LINE
  8
0
 10
1.02681
 20
15.9065
 11
0.956131
 21
15.8442
  0
LINE
  8
0
 10
0.956131
 20
15.8442
 11
0.881668
 21
15.7865
  0
LINE
  8
0
 10
0.881668
 20
15.7865
 11
0.803726
 21
15.7335
  0
LINE
  8
0
 10
0.803726
 20
15.7335
 11
0.722626
 21
15.6855
  0
LINE
  8
0
 10
0.722626
 20
15.6855
 11
0.638657
 21
15.6427
  0
LINE
  8
0
 10
0.638657
 20
15.6427
 11
0.552185
 21
15.6053
  0
LINE
  8
0
 10
0.552185
 20
15.6053
 11
0.463516
 21
15.5734
  0
LINE
  8
0
 10
0.463516
 20
15.5734
 11
0.373032
 21
15.5471
  0
LINE
  8
0
 10
0.373032
 20
15.5471
 11
0.281067
 21
15.5266
  0
LINE
  8
0
 10
0.281067
 20
15.5266
 11
0.187988
 21
15.5118
  0
LINE
  8
0
 10
0.187988
 20
15.5118
 11
0.0941772
 21
15.5029
  0
LINE
  8
0
 10
0.0941772
 20
15.5029
 11
0
 21
15.5
  0
LINE
  8
0
 10
0
 20
15.5
 11
-0.0941772
 21
15.5029
  0
LINE
  8
0
 10
-15.1884
 20
12.0059
 11
-15.376
 21
12.0237
  0
LINE
  8
0
 10
-15.376
 20
12.0237
 11
-15.5621
 21
12.0531
  0
LINE
  8
0
 10
-15.5621
 20
12.0531
 11
-15.7461
 21
12.0942
  0
LINE
  8
0
 10
-15.7461
 20
12.0942
 11
-15.927
 21
12.1468
  0
LINE
  8
0
 10
-15.927
 20
12.1468
 11
-16.1044
 21
12.2107
  0
LINE
  8
0
 10
-16.1044
 20
12.2107
 11
-16.2773
 21
12.2855
  0
LINE
  8
0
 10
-16.2773
 20
12.2855
 11
-16.4453
 21
12.3711
  0
LINE
  8
0
 10
-16.4453
 20
12.3711
 11
-16.6075
 21
12.467
  0
LINE
  8
0
 10
-16.6075
 20
12.467
 11
-16.7634
 21
12.5729
  0
LINE
  8
0
 10
-16.7634
 20
12.5729
 11
-16.9123
 21
12.6884
  0
LINE
  8
0
 10
-16.9123
 20
12.6884
 11
-17.0536
 21
12.8131
  0
LINE
  8
0
 10
-17.0536
 20
12.8131
 11
-17.1869
 21
12.9464
  0
LINE
  8
0
 10
-17.1869
 20
12.9464
 11
-17.3115
 21
13.0877
  0
LINE
  8
0
 10
-17.3115
 20
13.0877
 11
-17.427
 21
13.2366
  0
LINE
  8
0
 10
-17.427
 20
13.2366
 11
-17.533
 21
13.3925
  0
LINE
  8
0
 10
-17.533
 20
13.3925
 11
-17.6289
 21
13.5547
  0
LINE
  8
0
 10
-17.6289
 20
13.5547
 11
-17.7145
 21
13.7227
  0
LINE
  8
0
 10
-17.7145
 20
13.7227
 11
-17.7893
 21
13.8956
  0
LINE
  8
0
 10
-17.7893
 20
13.8956
 11
-17.8532
 21
14.0729
  0
LINE
  8
0
 10
-17.8532
 20
14.0729
 11
-17.9057
 21
14.2539
  0
LINE
  8
0
 10
-17.9057
 20
14.2539
 11
-17.9469
 21
14.4379
  0
LINE
  8
0
 10
-17.9469
 20
14.4379
 11
-17.9763
 21
14.624
  0
LINE
  8
0
 10
-17.9763
 20
14.624
 11
-17.9941
 21
14.8116
  0
LINE
  8
0
 10
-17.9941
 20
14.8116
 11
-18
 21
15
  0
LINE
  8
0
 10
-18
 20
15
 11
-17.9941
 21
15.1884
  0
LINE
  8
0
 10
-17.9941
 20
15.1884
 11
-17.9763
 21
15.376
  0
LINE
  8
0
 10
-17.9763
 20
15.376
 11
-17.9469
 21
15.5621
  0
LINE
  8
0
 10
-17.9469
 20
15.5621
 11
-17.9057
 21
15.7461
  0
LINE
  8
0
 10
-17.9057
 20
15.7461
 11
-17.8532
 21
15.927
  0
LINE
  8
0
 10
-17.8532
 20
15.927
 11
-17.7893
 21
16.1044
  0
LINE
  8
0
 10
-17.7893
 20
16.1044
 11
-17.7145
 21
16.2773
  0
LINE
  8
0
 10
-17.7145
 20
16.2773
 11
-17.6289
 21
16.4453
  0
LINE
  8
0
 10
-17.6289
 20
16.4453
 11
-17.533
 21
16.6075
  0
LINE
  8
0
 10
-17.533
 20
16.6075
 11
-17.427
 21
16.7634
  0
LINE
  8
0
 10
-17.427
 20
16.7634
 11
-17.3115
 21
16.9123
  0
LINE
  8
0
 10
-17.3115
 20
16.9123
 11
-17.1869
 21
17.0536
  0
LINE
  8
0
 10
-17.1869
 20
17.0536
 11
-17.0536
 21
17.1869
  0
LINE
  8
0
 10
-17.0536
 20
17.1869
 11
-16.9123
 21
17.3115
  0
LINE
  8
0
 10
-16.9123
 20
17.3115
 11
-16.7634
 21
17.427
  0
LINE
  8
0
 10
-16.7634
 20
17.427
 11
-16.6075
 21
17.533
  0
LINE
  8
0
 10
-16.6075
 20
17.533
 11
-16.4453
 21
17.6289
  0
LINE
  8
0
 10
-16.4453
 20
17.6289
 11
-16.2773
 21
17.7145
  0
LINE
  8
0
 10
-16.2773
 20
17.7145
 11
-16.1044
 21
17.7893
  0
LINE
  8
0
 10
-16.1044
 20
17.7893
 11
-15.927
 21
17.8532
  0
LINE
  8
0
 10
-15.927
 20
17.8532
 11
-15.7461
 21
17.9057
  0
LINE
  8
0
 10
-15.7461
 20
17.9057
 11
-15.5621
 21
17.9469
  0
LINE
  8
0
 10
-15.5621
 20
17.9469
 11
-15.376
 21
17.9763
  0
LINE
  8
0
 10
-15.376
 20
17.9763
 11
-15.1884
 21
17.9941
  0
LINE
  8
0
 10
-15.1884
 20
17.9941
 11
-15
 21
18
  0
LINE
  8
0
 10
-15
 20
18
 11
-14.8116
 21
17.9941
  0
LINE
  8
0
 10
-14.8116
 20
17.9941
 11
-14.624
 21
17.9763
  0
LINE
  8
0
 10
-14.624
 20
17.9763
 11
-14.4379
 21
17.9469
  0
LINE
  8
0
 10
-14.4379
 20
17.9469
 11
-14.2539
 21
17.9057
  0
LINE
  8
0
 10
-14.2539
 20
17.9057
 11
-14.0729
 21
17.8532
  0
LINE
  8
0
 10
-14.0729
 20
17.8532
 11
-13.8956
 21
17.7893
  0
LINE
  8
0
 10
-13.8956
 20
17.7893
 11
-13.7227
 21
17.7145
  0
LINE
  8
0
 10
-13.7227
 20
17.7145
 11
-13.5547
 21
17.6289
  0
LINE
  8
0
 10
-13.5547
 20
17.6289
 11
-13.3925
 21
17.533
  0
LINE
  8
0
 10
-13.3925
 20
17.533
 11
-13.2366
 21
17.427
  0
LINE
  8
0
 10
-13.2366
 20
17.427
 11
-13.0877
 21
17.3115
  0
LINE
  8
0
 10
-13.0877
 20
17.3115
 11
-12.9464
 21
17.1869
  0
LINE
  8
0
 10
-12.9464
 20
17.1869
 11
-12.8131
 21
17.0536
  0
LINE
  8
0
 10
-12.8131
 20
17.0536
 11
-12.6884
 21
16.9123
  0
LINE
  8
0
 10
-12.6884
 20
16.9123
 11
-12.5729
 21
16.7634
  0
LINE
  8
0
 10
-12.5729
 20
16.7634
 11
-12.467
 21
16.6075
  0
LINE
  8
0
 10
-12.467
 20
16.6075
 11
-12.3711
 21
16.4453
  0
LINE
  8
0
 10
-12.3711
 20
16.4453
 11
-12.2855
 21
16.2773
  0
LINE
  8
0
 10
-12.2855
 20
16.2773
 11
-12.2107
 21
16.1044
  0
LINE
  8
0
 10
-12.2107
 20
16.1044
 11
-12.1468
 21
15.927
  0
LINE
  8
0
 10
-12.1468
 20
15.927
 11
-12.0942
 21
15.7461
  0
LINE
  8
0
 10
-12.0942
 20
15.7461
 11
-12.0531
 21
15.5621
  0
LINE
  8
0
 10
-12.0531
 20
15.5621
 11
-12.0237
 21
15.376
  0
LINE
  8
0
 10
-12.0237
 20
15.376
 11
-12.0059
 21
15.1884
  0
LINE
  8
0
 10
-12.0059
 20
15.1884
 11
-12
 21
15
  0
LINE
  8
0
 10
-12
 20
15
 11
-12.0059
 21
14.8116
  0
LINE
  8
0
 10
-12.0059
 20
14.8116
 11
-12.0237
 21
14.624
  0
LINE
  8
0
 10
-12.0237
 20
14.624
 11
-12.0531
 21
14.4379
  0
LINE
  8
0
 10
-12.0531
 20
14.4379
 11
-12.0942
 21
14.2539
  0
LINE
  8
0
 10
-12.0942
 20
14.2539
 11
-12.1468
 21
14.0729
  0
LINE
  8
0
 10
-12.1468
 20
14.0729
 11
-12.2107
 21
13.8956
  0
LINE
  8
0
 10
-12.2107
 20
13.8956
 11
-12.2855
 21
13.7227
  0
LINE
  8
0
 10
-12.2855
 20
13.7227
 11
-12.3711
 21
13.5547
  0
LINE
  8
0
 10
-12.3711
 20
13.5547
 11
-12.467
 21
13.3925
  0
LINE
  8
0
 10
-12.467
 20
13.3925
 11
-12.5729
 21
13.2366
  0
LINE
  8
0
 10
-12.5729
 20
13.2366
 11
-12.6884
 21
13.0877
  0
LINE
  8
0
 10
-12.6884
 20
13.0877
 11
-12.8131
 21
12.9464
  0
LINE
  8
0
 10
-12.8131
 20
12.9464
 11
-12.9464
 21
12.8131
  0
LINE
  8
0
 10
-12.9464
 20
12.8131
 11
-13.0877
 21
12.6884
  0
LINE
  8
0
 10
-13.0877
 20
12.6884
 11
-13.2366
 21
12.5729
  0
LINE
  8
0
 10
-13.2366
 20
12.5729
 11
-13.3925
 21
12.467
  0
LINE
  8
0
 10
-13.3925
 20
12.467
 11
-13.5547
 21
12.3711
  0
LINE
  8
0
 10
-13.5547
 20
12.3711
 11
-13.7227
 21
12.2855
  0
LINE
  8
0
 10
-13.7227
 20
12.2855
 11
-13.8956
 21
12.2107
  0
LINE
  8
0
 10
-13.8956
 20
12.2107
 11
-14.0729
 21
12.1468
  0
LINE
  8
0
 10
-14.0729
 20
12.1468
 11
-14.2539
 21
12.0942
  0
LINE
  8
0
 10
-14.2539
 20
12.0942
 11
-14.4379
 21
12.0531
  0
LINE
  8
0
 10
-14.4379
 20
12.0531
 11
-14.624
 21
12.0237
  0
LINE
  8
0
 10
-14.624
 20
12.0237
 11
-14.8116
 21
12.0059
  0
LINE
  8
0
 10
-14.8116
 20
12.0059
 11
-15
 21
12
  0
LINE
  8
0
 10
-15
 20
12
 11
-15.1884
 21
12.0059
  0
LINE
  8
0
 10
14.8116
 20
12.0059
 11
14.624
 21
12.0237
  0
LINE
  8
0
 10
14.624
 20
12.0237
 11
14.4379
 21
12.0531
  0
LINE
  8
0
 10
14.4379
 20
12.0531
 11
14.2539
 21
12.0942
  0
LINE
  8
0
 10
14.2539
 20
12.0942
 11
14.0729
 21
12.1468
  0
LINE
  8
0
 10
14.0729
 20
12.1468
 11
13.8956
 21
12.2107
  0
LINE
  8
0
 10
13.8956
 20
12.2107
 11
13.7227
 21
12.2855
  0
LINE
  8
0
 10
13.7227
 20
12.2855
 11
13.5547
 21
12.3711
  0
LINE
  8
0
 10
13.5547
 20
12.3711
 11
13.3925
 21
12.467
  0
LINE
  8
0
 10
13.3925
 20
12.467
 11
13.2366
 21
12.5729
  0
LINE
  8
0
 10
13.2366
 20
12.5729
 11
13.0877
 21
12.6884
  0
LINE
  8
0
 10
13.0877
 20
12.6884
 11
12.9464
 21
12.8131
  0
LINE
  8
0
 10
12.9464
 20
12.8131
 11
12.8131
 21
12.9464
  0
LINE
  8
0
 10
12.8131
 20
12.9464
 11
12.6884
 21
13.0877
  0
LINE
  8
0
 10
12.6884
 20
13.0877
 11
12.5729
 21
13.2366
  0
LINE
  8
0
 10
12.5729
 20
13.2366
 11
12.467
 21
13.3925
  0
LINE
  8
0
 10
12.467
 20
13.3925
 11
12.3711
 21
13.5547
  0
LINE
  8
0
 10
12.3711
 20
13.5547
 11
12.2855
 21
13.7227
  0
LINE
  8
0
 10
12.2855
 20
13.7227
 11
12.2107
 21
13.8956
  0
LINE
  8
0
 10
12.2107
 20
13.8956
 11
12.1468
 21
14.0729
  0
LINE
  8
0
 10
12.1468
 20
14.0729
 11
12.0942
 21
14.2539
  0
LINE
  8
0
 10
12.0942
 20
14.2539
 11
12.0531
 21
14.4379
  0
LINE
  8
0
 10
12.0531
 20
14.4379
 11
12.0237
 21
14.624
  0
LINE
  8
0
 10
12.0237
 20
14.624
 11
12.0059
 21
14.8116
  0
LINE
  8
0
 10
12.0059
 20
14.8116
 11
12
 21
15
  0
LINE
  8
0
 10
12
 20
15
 11
12.0059
 21
15.1884
  0
LINE
  8
0
 10
12.0059
 20
15.1884
 11
12.0237
 21
15.376
  0
LINE
  8
0
 10
12.0237
 20
15.376
 11
12.0531
 21
15.5621
  0
LINE
  8
0
 10
12.0531
 20
15.5621
 11
12.0942
 21
15.7461
  0
LINE
  8
0
 10
12.0942
 20
15.7461
 11
12.1468
 21
15.927
  0
LINE
  8
0
 10
12.1468
 20
15.927
 11
12.2107
 21
16.1044
  0
LINE
  8
0
 10
12.2107
 20
16.1044
 11
12.2855
 21
16.2773
  0
LINE
  8
0
 10
12.2855
 20
16.2773
 11
12.3711
 21
16.4453
  0
LINE
  8
0
 10
12.3711
 20
16.4453
 11
12.467
 21
16.6075
  0
LINE
  8
0
 10
12.467
 20
16.6075
 11
12.5729
 21
16.7634
  0
LINE
  8
0
 10
12.5729
 20
16.7634
 11
12.6884
 21
16.9123
  0
LINE
  8
0
 10
12.6884
 20
16.9123
 11
12.8131
 21
17.0536
  0
LINE
  8
0
 10
12.8131
 20
17.0536
 11
12.9464
 21
17.1869
  0
LINE
  8
0
 10
12.9464
 20
17.1869
 11
13.0877
 21
17.3115
  0
LINE
  8
0
 10
13.0877
 20
17.3115
 11
13.2366
 21
17.427
  0
LINE
  8
0
 10
13.2366
 20
17.427
 11
13.3925
 21
17.533
  0
LINE
  8
0
 10
13.3925
 20
17.533
 11
13.5547
 21
17.6289
  0
LINE
  8
0
 10
13.5547
 20
17.6289
 11
13.7227
 21
17.7145
  0
LINE
  8
0
 10
13.7227
 20
17.7145
 11
13.8956
 21
17.7893
  0
LINE
  8
0
 10
13.8956
 20
17.7893
 11
14.0729
 21
17.8532
  0
LINE
  8
0
 10
14.0729
 20
17.8532
 11
14.2539
 21
17.9057
  0
LINE
  8
0
 10
14.2539
 20
17.9057
 11
14.4379
 21
17.9469
  0
LINE
  8
0
 10
14.4379
 20
17.9469
 11
14.624
 21
17.9763
  0
LINE
  8
0
 10
14.624
 20
17.9763
 11
14.8116
 21
17.9941
  0
LINE
  8
0
 10
14.8116
 20
17.9941
 11
15
 21
18
  0
LINE
  8
0
 10
15
 20
18
 11
15.1884
 21
17.9941
  0
LINE
  8
0
 10
15.1884
 20
17.9941
 11
15.376
 21
17.9763
  0
LINE
  8
0
 10
15.376
 20
17.9763
 11
15.5621
 21
17.9469
  0
LINE
  8
0
 10
15.5621
 20
17.9469
 11
15.7461
 21
17.9057
  0
LINE
  8
0
 10
15.7461
 20
17.9057
 11
15.927
 21
17.8532
  0
LINE
  8
0
 10
15.927
 20
17.8532
 11
16.1044
 21
17.7893
  0
LINE
  8
0
 10
16.1044
 20
17.7893
 11
16.2773
 21
17.7145
  0
LINE
  8
0
 10
16.2773
 20
17.7145
 11
16.4453
 21
17.6289
  0
LINE
  8
0
 10
16.4453
 20
17.6289
 11
16.6075
 21
17.533
  0
LINE
  8
0
 10
16.6075
 20
17.533
 11
16.7634
 21
17.427
  0
LINE
  8
0
 10
16.7634
 20
17.427
 11
16.9123
 21
17.3115
  0
LINE
  8
0
 10
16.9123
 20
17.3115
 11
17.0536
 21
17.1869
  0
LINE
  8
0
 10
17.0536
 20
17.1869
 11
17.1869
 21
17.0536
  0
LINE
  8
0
 10
17.1869
 20
17.0536
 11
17.3115
 21
16.9123
  0
LINE
  8
0
 10
17.3115
 20
16.9123
 11
17.427
 21
16.7634
  0
LINE
  8
0
 10
17.427
 20
16.7634
 11
17.533
 21
16.6075
  0
LINE
  8
0
 10
17.533
 20
16.6075
 11
17.6289
 21
16.4453
  0
LINE
  8
0
 10
17.6289
 20
16.4453
 11
17.7145
 21
16.2773
  0
LINE
  8
0
 10
17.7145
 20
16.2773
 11
17.7893
 21
16.1044
  0
LINE
  8
0
 10
17.7893
 20
16.1044
 11
17.8532
 21
15.927
  0
LINE
  8
0
 10
17.8532
 20
15.927
 11
17.9057
 21
15.7461
  0
LINE
  8
0
 10
17.9057
 20
15.7461
 11
17.9469
 21
15.5621
  0
LINE
  8
0
 10
17.9469
 20
15.5621
 11
17.9763
 21
15.376
  0
LINE
  8
0
 10
17.9763
 20
15.376
 11
17.9941
 21
15.1884
  0
LINE
  8
0
 10
17.9941
 20
15.1884
 11
18
 21
15
  0
LINE
  8
0
 10
18
 20
15
 11
17.9941
 21
14.8116
  0
LINE
  8
0
 10
17.9941
 20
14.8116
 11
17.9763
 21
14.624
  0
LINE
  8
0
 10
17.9763
 20
14.624
 11
17.9469
 21
14.4379
  0
LINE
  8
0
 10
17.9469
 20
14.4379
 11
17.9057
 21
14.2539
  0
LINE
  8
0
 10
17.9057
 20
14.2539
 11
17.8532
 21
14.0729
  0
LINE
  8
0
 10
17.8532
 20
14.0729
 11
17.7893
 21
13.8956
  0
LINE
  8
0
 10
17.7893
 20
13.8956
 11
17.7145
 21
13.7227
  0
LINE
  8
0
 10
17.7145
 20
13.7227
 11
17.6289
 21
13.5547
  0
LINE
  8
0
 10
17.6289
 20
13.5547
 11
17.533
 21
13.3925
  0
LINE
  8
0
 10
17.533
 20
13.3925
 11
17.427
 21
13.2366
  0
LINE
  8
0
 10
17.427
 20
13.2366
 11
17.3115
 21
13.0877
  0
LINE
  8
0
 10
17.3115
 20
13.0877
 11
17.1869
 21
12.9464
  0
LINE
  8
0
 10
17.1869
 20
12.9464
 11
17.0536
 21
12.8131
  0
LINE
  8
0
 10
17.0536
 20
12.8131
 11
16.9123
 21
12.6884
  0
LINE
  8
0
 10
16.9123
 20
12.6884
 11
16.7634
 21
12.5729
  0
LINE
  8
0
 10
16.7634
 20
12.5729
 11
16.6075
 21
12.467
  0
LINE
  8
0
 10
16.6075
 20
12.467
 11
16.4453
 21
12.3711
  0
LINE
  8
0
 10
16.4453
 20
12.3711
 11
16.2773
 21
12.2855
  0
LINE
  8
0
 10
16.2773
 20
12.2855
 11
16.1044
 21
12.2107
  0
LINE
  8
0
 10
16.1044
 20
12.2107
 11
15.927
 21
12.1468
  0
LINE
  8
0
 10
15.927
 20
12.1468
 11
15.7461
 21
12.0942
  0
LINE
  8
0
 10
15.7461
 20
12.0942
 11
15.5621
 21
12.0531
  0
LINE
  8
0
 10
15.5621
 20
12.0531
 11
15.376
 21
12.0237
  0
LINE
  8
0
 10
15.376
 20
12.0237
 11
15.1884
 21
12.0059
  0
LINE
  8
0
 10
15.1884
 20
12.0059
 11
15
 21
12
  0
LINE
  8
0
 10
15
 20
12
 11
14.8116
 21
12.0059
  0
LINE
  8
0
 10
-0.659286
 20
-10.4793
 11
-1.31599
 21
-10.4172
  0
LINE
  8
0
 10
-1.31599
 20
-10.4172
 11
-1.9675
 21
-10.314
  0
LINE
  8
0
 10
-1.9675
 20
-10.314
 11
-2.61124
 21
-10.1701
  0
LINE
  8
0
 10
-2.61124
 20
-10.1701
 11
-3.24467
 21
-9.98608
  0
LINE
  8
0
 10
-3.24467
 20
-9.98608
 11
-3.8653
 21
-9.76265
  0
LINE
  8
0
 10
-3.8653
 20
-9.76265
 11
-4.47067
 21
-9.50067
  0
LINE
  8
0
 10
-4.47067
 20
-9.50067
 11
-5.05841
 21
-9.20122
  0
LINE
  8
0
 10
-5.05841
 20
-9.20122
 11
-5.62617
 21
-8.86543
  0
LINE
  8
0
 10
-5.62617
 20
-8.86543
 11
-6.17174
 21
-8.49467
  0
LINE
  8
0
 10
-6.17174
 20
-8.49467
 11
-6.69295
 21
-8.09038
  0
LINE
  8
0
 10
-6.69295
 20
-8.09038
 11
-7.18774
 21
-7.65416
  0
LINE
  8
0
 10
-7.18774
 20
-7.65416
 11
-7.65416
 21
-7.18774
  0
LINE
  8
0
 10
-7.65416
 20
-7.18774
 11
-8.09038
 21
-6.69295
  0
LINE
  8
0
 10
-8.09038
 20
-6.69295
 11
-8.49467
 21
-6.17174
  0
LINE
  8
0
 10
-8.49467
 20
-6.17174
 11
-8.86543
 21
-5.62617
  0
LINE
  8
0
 10
-8.86543
 20
-5.62617
 11
-9.20122
 21
-5.05841
  0
LINE
  8
0
 10
-9.20122
 20
-5.05841
 11
-9.50067
 21
-4.47067
  0
LINE
  8
0
 10
-9.50067
 20
-4.47067
 11
-9.76265
 21
-3.8653
  0
LINE
  8
0
 10
-9.76265
 20
-3.8653
 11
-9.98608
 21
-3.24467
  0
LINE
  8
0
 10
-9.98608
 20
-3.24467
 11
-10.1701
 21
-2.61124
  0
LINE
  8
0
 10
-10.1701
 20
-2.61124
 11
-10.314
 21
-1.9675
  0
LINE
  8
0
 10
-10.314
 20
-1.9675
 11
-10.4172
 21
-1.31599
  0
LINE
  8
0
 10
-10.4172
 20
-1.31599
 11
-10.4793
 21
-0.659286
  0
LINE
  8
0
 10
-10.4793
 20
-0.659286
 11
-10.5
 21
0
  0
LINE
  8
0
 10
-10.5
 20
0
 11
-10.4793
 21
0.659286
  0
LINE
  8
0
 10
-10.4793
 20
0.659286
 11
-10.4172
 21
1.31599
  0
LINE
  8
0
 10
-10.4172
 20
1.31599
 11
-10.314
 21
1.9675
  0
LINE
  8
0
 10
-10.314
 20
1.9675
 11
-10.1701
 21
2.61124
  0
LINE
  8
0
 10
-10.1701
 20
2.61124
 11
-9.98608
 21
3.24467
  0
LINE
  8
0
 10
-9.98608
 20
3.24467
 11
-9.76265
 21
3.8653
  0
LINE
  8
0
 10
-9.76265
 20
3.8653
 11
-9.50067
 21
4.47067
  0
LINE
  8
0
 10
-9.50067
 20
4.47067
 11
-9.20122
 21
5.05841
  0
LINE
  8
0
 10
-9.20122
 20
5.05841
 11
-8.86543
 21
5.62617
  0
LINE
  8
0
 10
-8.86543
 20
5.62617
 11
-8.49467
 21
6.17174
  0
LINE
  8
0
 10
-8.49467
 20
6.17174
 11
-8.09038
 21
6.69295
  0
LINE
  8
0
 10
-8.09038
 20
6.69295
 11
-7.65416
 21
7.18774
  0
LINE
  8
0
 10
-7.65416
 20
7.18774
 11
-7.18774
 21
7.65416
  0
LINE
  8
0
 10
-7.18774
 20
7.65416
 11
-6.69295
 21
8.09038
  0
LINE
  8
0
 10
-6.69295
 20
8.09038
 11
-6.17174
 21
8.49467
  0
LINE
  8
0
 10
-6.17174
 20
8.49467
 11
-5.62617
 21
8.86543
  0
LINE
  8
0
 10
-5.62617
 20
8.86543
 11
-5.05841
 21
9.20122
  0
LINE
  8
0
 10
-5.05841
 20
9.20122
 11
-4.47067
 21
9.50067
  0
LINE
  8
0
 10
-4.47067
 20
9.50067
 11
-3.8653
 21
9.76265
  0
LINE
  8
0
 10
-3.8653
 20
9.76265
 11
-3.24467
 21
9.98608
  0
LINE
  8
0
 10
-3.24467
 20
9.98608
 11
-2.61124
 21
10.1701
  0
LINE
  8
0
 10
-2.61124
 20
10.1701
 11
-1.9675
 21
10.314
  0
LINE
  8
0
 10
-1.9675
 20
10.314
 11
-1.31599
 21
10.4172
  0
LINE
  8
0
 10
-1.31599
 20
10.4172
 11
-0.659286
 21
10.4793
  0
LINE
  8
0
 10
-0.659286
 20
10.4793
 11
0
 21
10.5
  0
LINE
  8
0
 10
0
 20
10.5
 11
0.659286
 21
10.4793
  0
LINE
  8
0
 10
0.659286
 20
10.4793
 11
1.31599
 21
10.4172
  0
LINE
  8
0
 10
1.31599
 20
10.4172
 11
1.9675
 21
10.314
  0
LINE
  8
0
 10
1.9675
 20
10.314
 11
2.61124
 21
10.1701
  0
LINE
  8
0
 10
2.61124
 20
10.1701
 11
3.24467
 21
9.98608
  0
LINE
  8
0
 10
3.24467
 20
9.98608
 11
3.8653
 21
9.76265
  0
LINE
  8
0
 10
3.8653
 20
9.76265
 11
4.47067
 21
9.50067
  0
LINE
  8
0
 10
4.47067
 20
9.50067
 11
5.05841
 21
9.20122
  0
LINE
  8
0
 10
5.05841
 20
9.20122
 11
5.62617
 21
8.86543
  0
LINE
  8
0
 10
5.62617
 20
8.86543
 11
6.17174
 21
8.49467
  0
LINE
  8
0
 10
6.17174
 20
8.49467
 11
6.69295
 21
8.09038
  0
LINE
  8
0
 10
6.69295
 20
8.09038
 11
7.18774
 21
7.65416
  0
LINE
  8
0
 10
7.18774
 20
7.65416
 11
7.65416
 21
7.18774
  0
LINE
  8
0
 10
7.65416
 20
7.18774
 11
8.09038
 21
6.69295
  0
LINE
  8
0
 10
8.09038
 20
6.69295
 11
8.49467
 21
6.17174
  0
LINE
  8
0
 10
8.49467
 20
6.17174
 11
8.86543
 21
5.62617
  0
LINE
  8
0
 10
8.86543
 20
5.62617
 11
9.20122
 21
5.05841
  0
LINE
  8
0
 10
9.20122
 20
5.05841
 11
9.50067
 21
4.47067
  0
LINE
  8
0
 10
9.50067
 20
4.47067
 11
9.76265
 21
3.8653
  0
LINE
  8
0
 10
9.76265
 20
3.8653
 11
9.98608
 21
3.24467
  0
LINE
  8
0
 10
9.98608
 20
3.24467
 11
10.1701
 21
2.61124
  0
LINE
  8
0
 10
10.1701
 20
2.61124
 11
10.314
 21
1.9675
  0
LINE
  8
0
 10
10.314
 20
1.9675
 11
10.4172
 21
1.31599
  0
LINE
  8
0
 10
10.4172
 20
1.31599
 11
10.4793
 21
0.659286
  0
LINE
  8
0
 10
10.4793
 20
0.659286
 11
10.5
 21
0
  0
LINE
  8
0
 10
10.5
 20
0
 11
10.4793
 21
-0.659286
  0
LINE
  8
0
 10
10.4793
 20
-0.659286
 11
10.4172
 21
-1.31599
  0
LINE
  8
0
 10
10.4172
 20
-1.31599
 11
10.314
 21
-1.9675
  0
LINE
  8
0
 10
10.314
 20
-1.9675
 11
10.1701
 21
-2.61124
  0
LINE
  8
0
 10
10.1701
 20
-2.61124
 11
9.98608
 21
-3.24467
  0
LINE
  8
0
 10
9.98608
 20
-3.24467
 11
9.76265
 21
-3.8653
  0
LINE
  8
0
 10
9.76265
 20
-3.8653
 11
9.50067
 21
-4.47067
  0
LINE
  8
0
 10
9.50067
 20
-4.47067
 11
9.20122
 21
-5.05841
  0
LINE
  8
0
 10
9.20122
 20
-5.05841
 11
8.86543
 21
-5.62617
  0
LINE
  8
0
 10
8.86543
 20
-5.62617
 11
8.49467
 21
-6.17174
  0
LINE
  8
0
 10
8.49467
 20
-6.17174
 11
8.09038
 21
-6.69295
  0
LINE
  8
0
 10
8.09038
 20
-6.69295
 11
7.65416
 21
-7.18774
  0
LINE
  8
0
 10
7.65416
 20
-7.18774
 11
7.18774
 21
-7.65416
  0
LINE
  8
0
 10
7.18774
 20
-7.65416
 11
6.69295
 21
-8.09038
  0
LINE
  8
0
 10
6.69295
 20
-8.09038
 11
6.17174
 21
-8.49467
  0
LINE
  8
0
 10
6.17174
 20
-8.49467
 11
5.62617
 21
-8.86543
  0
LINE
  8
0
 10
5.62617
 20
-8.86543
 11
5.05841
 21
-9.20122
  0
LINE
  8
0
 10
5.05841
 20
-9.20122
 11
4.47067
 21
-9.50067
  0
LINE
  8
0
 10
4.47067
 20
-9.50067
 11
3.8653
 21
-9.76265
  0
LINE
  8
0
 10
3.8653
 20
-9.76265
 11
3.24467
 21
-9.98608
  0
LINE
  8
0
 10
3.24467
 20
-9.98608
 11
2.61124
 21
-10.1701
  0
LINE
  8
0
 10
2.61124
 20
-10.1701
 11
1.9675
 21
-10.314
  0
LINE
  8
0
 10
1.9675
 20
-10.314
 11
1.31599
 21
-10.4172
  0
LINE
  8
0
 10
1.31599
 20
-10.4172
 11
0.659286
 21
-10.4793
  0
LINE
  8
0
 10
0.659286
 20
-10.4793
 11
0
 21
-10.5
  0
LINE
  8
0
 10
0
 20
-10.5
 11
-0.659286
 21
-10.4793
  0
LINE
  8
0
 10
-17.0942
 20
-1.49704
 11
-17.188
 21
-1.48816
  0
LINE
  8
0
 10
-17.188
 20
-1.48816
 11
-17.2811
 21
-1.47342
  0
LINE
  8
0
 10
-17.2811
 20
-1.47342
 11
-17.373
 21
-1.45287
  0
LINE
  8
0
 10
-17.373
 20
-1.45287
 11
-17.4635
 21
-1.42657
  0
LINE
  8
0
 10
-17.4635
 20
-1.42657
 11
-17.5522
 21
-1.39465
  0
LINE
  8
0
 10
-17.5522
 20
-1.39465
 11
-17.6387
 21
-1.35724
  0
LINE
  8
0
 10
-17.6387
 20
-1.35724
 11
-17.7226
 21
-1.31445
  0
LINE
  8
0
 10
-17.7226
 20
-1.31445
 11
-17.8037
 21
-1.26648
  0
LINE
  8
0
 10
-17.8037
 20
-1.26648
 11
-17.8817
 21
-1.21352
  0
LINE
  8
0
 10
-17.8817
 20
-1.21352
 11
-17.9561
 21
-1.15576
  0
LINE
  8
0
 10
-17.9561
 20
-1.15576
 11
-18.0268
 21
-1.09344
  0
LINE
  8
0
 10
-18.0268
 20
-1.09344
 11
-18.0934
 21
-1.02681
  0
LINE
  8
0
 10
-18.0934
 20
-1.02681
 11
-18.1558
 21
-0.956131
  0
LINE
  8
0
 10
-18.1558
 20
-0.956131
 11
-18.2135
 21
-0.881668
  0
LINE
  8
0
 10
-18.2135
 20
-0.881668
 11
-18.2665
 21
-0.803726
  0
LINE
  8
0
 10
-18.2665
 20
-0.803726
 11
-18.3145
 21
-0.722626
  0
LINE
  8
0
 10
-18.3145
 20
-0.722626
 11
-18.3572
 21
-0.638657
  0
LINE
  8
0
 10
-18.3572
 20
-0.638657
 11
-18.3947
 21
-0.552185
  0
LINE
  8
0
 10
-18.3947
 20
-0.552185
 11
-18.4266
 21
-0.463516
  0
LINE
  8
0
 10
-18.4266
 20
-0.463516
 11
-18.4529
 21
-0.373032
  0
LINE
  8
0
 10
-18.4529
 20
-0.373032
 11
-18.4734
 21
-0.281067
  0
LINE
  8
0
 10
-18.4734
 20
-0.281067
 11
-18.4882
 21
-0.187988
  0
LINE
  8
0
 10
-18.4882
 20
-0.187988
 11
-18.497
 21
-0.0941772
  0
LINE
  8
0
 10
-18.497
 20
-0.0941772
 11
-18.5
 21
0
  0
LINE
  8
0
 10
-18.5
 20
0
 11
-18.497
 21
0.0941772
  0
LINE
  8
0
 10
-18.497
 20
0.0941772
 11
-18.4882
 21
0.187988
  0
LINE
  8
0
 10
-18.4882
 20
0.187988
 11
-18.4734
 21
0.281067
  0
LINE
  8
0
 10
-18.4734
 20
0.281067
 11
-18.4529
 21
0.373032
  0
LINE
  8
0
 10
-18.4529
 20
0.373032
 11
-18.4266
 21
0.463516
  0
LINE
  8
0
 10
-18.4266
 20
0.463516
 11
-18.3947
 21
0.552185
  0
LINE
  8
0
 10
-18.3947
 20
0.552185
 11
-18.3572
 21
0.638657
  0
LINE
  8
0
 10
-18.3572
 20
0.638657
 11
-18.3145
 21
0.722626
  0
LINE
  8
0
 10
-18.3145
 20
0.722626
 11
-18.2665
 21
0.803726
  0
LINE
  8
0
 10
-18.2665
 20
0.803726
 11
-18.2135
 21
0.881668
  0
LINE
  8
0
 10
-18.2135
 20
0.881668
 11
-18.1558
 21
0.956131
  0
LINE
  8
0
 10
-18.1558
 20
0.956131
 11
-18.0934
 21
1.02681
  0
LINE
  8
0
 10
-18.0934
 20
1.02681
 11
-18.0268
 21
1.09344
  0
LINE
  8
0
 10
-18.0268
 20
1.09344
 11
-17.9561
 21
1.15576
  0
LINE
  8
0
 10
-17.9561
 20
1.15576
 11
-17.8817
 21
1.21352
  0
LINE
  8
0
 10
-17.8817
 20
1.21352
 11
-17.8037
 21
1.26648
  0
LINE
  8
0
 10
-17.8037
 20
1.26648
 11
-17.7226
 21
1.31445
  0
LINE
  8
0
 10
-17.7226
 20
1.31445
 11
-17.6387
 21
1.35724
  0
LINE
  8
0
 10
-17.6387
 20
1.35724
 11
-17.5522
 21
1.39465
  0
LINE
  8
0
 10
-17.5522
 20
1.39465
 11
-17.4635
 21
1.42657
  0
LINE
  8
0
 10
-17.4635
 20
1.42657
 11
-17.373
 21
1.45287
  0
LINE
  8
0
 10
-17.373
 20
1.45287
 11
-17.2811
 21
1.47342
  0
LINE
  8
0
 10
-17.2811
 20
1.47342
 11
-17.188
 21
1.48816
  0
LINE
  8
0
 10
-17.188
 20
1.48816
 11
-17.0942
 21
1.49704
  0
LINE
  8
0
 10
-17.0942
 20
1.49704
 11
-17
 21
1.5
  0
LINE
  8
0
 10
-17
 20
1.5
 11
-16.9058
 21
1.49704
  0
LINE
  8
0
 10
-16.9058
 20
1.49704
 11
-16.812
 21
1.48816
  0
LINE
  8
0
 10
-16.812
 20
1.48816
 11
-16.7189
 21
1.47342
  0
LINE
  8
0
 10
-16.7189
 20
1.47342
 11
-16.627
 21
1.45287
  0
LINE
  8
0
 10
-16.627
 20
1.45287
 11
-16.5365
 21
1.42657
  0
LINE
  8
0
 10
-16.5365
 20
1.42657
 11
-16.4478
 21
1.39465
  0
LINE
  8
0
 10
-16.4478
 20
1.39465
 11
-16.3613
 21
1.35724
  0
LINE
  8
0
 10
-16.3613
 20
1.35724
 11
-16.2774
 21
1.31445
  0
LINE
  8
0
 10
-16.2774
 20
1.31445
 11
-16.1963
 21
1.26648
  0
LINE
  8
0
 10
-16.1963
 20
1.26648
 11
-16.1183
 21
1.21352
  0
LINE
  8
0
 10
-16.1183
 20
1.21352
 11
-16.0439
 21
1.15576
  0
LINE
  8
0
 10
-16.0439
 20
1.15576
 11
-15.9732
 21
1.09344
  0
LINE
  8
0
 10
-15.9732
 20
1.09344
 11
-15.9065
 21
1.02681
  0
LINE
  8
0
 10
-15.9065
 20
1.02681
 11
-15.8442
 21
0.956131
  0
LINE
  8
0
 10
-15.8442
 20
0.956131
 11
-15.7865
 21
0.881668
  0
LINE
  8
0
 10
-15.7865
 20
0.881668
 11
-15.7335
 21
0.803726
  0
LINE
  8
0
 10
-15.7335
 20
0.803726
 11
-15.6855
 21
0.722626
  0
LINE
  8
0
 10
-15.6855
 20
0.722626
 11
-15.6427
 21
0.638657
  0
LINE
  8
0
 10
-15.6427
 20
0.638657
 11
-15.6053
 21
0.552185
  0
LINE
  8
0
 10
-15.6053
 20
0.552185
 11
-15.5734
 21
0.463516
  0
LINE
  8
0
 10
-15.5734
 20
0.463516
 11
-15.5471
 21
0.373032
  0
LINE
  8
0
 10
-15.5471
 20
0.373032
 11
-15.5266
 21
0.281067
  0
LINE
  8
0
 10
-15.5266
 20
0.281067
 11
-15.5118
 21
0.187988
  0
LINE
  8
0
 10
-15.5118
 20
0.187988
 11
-15.5029
 21
0.0941772
  0
LINE
  8
0
 10
-15.5029
 20
0.0941772
 11
-15.5
 21
0
  0
LINE
  8
0
 10
-15.5
 20
0
 11
-15.5029
 21
-0.0941772
  0
LINE
  8
0
 10
-15.5029
 20
-0.0941772
 11
-15.5118
 21
-0.187988
  0
LINE
  8
0
 10
-15.5118
 20
-0.187988
 11
-15.5266
 21
-0.281067
  0
LINE
  8
0
 10
-15.5266
 20
-0.281067
 11
-15.5471
 21
-0.373032
  0
LINE
  8
0
 10
-15.5471
 20
-0.373032
 11
-15.5734
 21
-0.463516
  0
LINE
  8
0
 10
-15.5734
 20
-0.463516
 11
-15.6053
 21
-0.552185
  0
LINE
  8
0
 10
-15.6053
 20
-0.552185
 11
-15.6427
 21
-0.638657
  0
LINE
  8
0
 10
-15.6427
 20
-0.638657
 11
-15.6855
 21
-0.722626
  0
LINE
  8
0
 10
-15.6855
 20
-0.722626
 11
-15.7335
 21
-0.803726
  0
LINE
  8
0
 10
-15.7335
 20
-0.803726
 11
-15.7865
 21
-0.881668
  0
LINE
  8
0
 10
-15.7865
 20
-0.881668
 11
-15.8442
 21
-0.956131
  0
LINE
  8
0
 10
-15.8442
 20
-0.956131
 11
-15.9065
 21
-1.02681
  0
LINE
  8
0
 10
-15.9065
 20
-1.02681
 11
-15.9732
 21
-1.09344
  0
LINE
  8
0
 10
-15.9732
 20
-1.09344
 11
-16.0439
 21
-1.15576
  0
LINE
  8
0
 10
-16.0439
 20
-1.15576
 11
-16.1183
 21
-1.21352
  0
LINE
  8
0
 10
-16.1183
 20
-1.21352
 11
-16.1963
 21
-1.26648
  0
LINE
  8
0
 10
-16.1963
 20
-1.26648
 11
-16.2774
 21
-1.31445
  0
LINE
  8
0
 10
-16.2774
 20
-1.31445
 11
-16.3613
 21
-1.35724
  0
LINE
  8
0
 10
-16.3613
 20
-1.35724
 11
-16.4478
 21
-1.39465
  0
LINE
  8
0
 10
-16.4478
 20
-1.39465
 11
-16.5365
 21
-1.42657
  0
LINE
  8
0
 10
-16.5365
 20
-1.42657
 11
-16.627
 21
-1.45287
  0
LINE
  8
0
 10
-16.627
 20
-1.45287
 11
-16.7189
 21
-1.47342
  0
LINE
  8
0
 10
-16.7189
 20
-1.47342
 11
-16.812
 21
-1.48816
  0
LINE
  8
0
 10
-16.812
 20
-1.48816
 11
-16.9058
 21
-1.49704
  0
LINE
  8
0
 10
-16.9058
 20
-1.49704
 11
-17
 21
-1.5
  0
LINE
  8
0
 10
-17
 20
-1.5
 11
-17.0942
 21
-1.49704
  0
LINE
  8
0
 10
16.9058
 20
-1.49704
 11
16.812
 21
-1.48816
  0
LINE
  8
0
 10
16.812
 20
-1.48816
 11
16.7189
 21
-1.47342
  0
LINE
  8
0
 10
16.7189
 20
-1.47342
 11
16.627
 21
-1.45287
  0
LINE
  8
0
 10
16.627
 20
-1.45287
 11
16.5365
 21
-1.42657
  0
LINE
  8
0
 10
16.5365
 20
-1.42657
 11
16.4478
 21
-1.39465
  0
LINE
  8
0
 10
16.4478
 20
-1.39465
 11
16.3613
 21
-1.35724
  0
LINE
  8
0
 10
16.3613
 20
-1.35724
 11
16.2774
 21
-1.31445
  0
LINE
  8
0
 10
16.2774
 20
-1.31445
 11
16.1963
 21
-1.26648
  0
LINE
  8
0
 10
16.1963
 20
-1.26648
 11
16.1183
 21
-1.21352
  0
LINE
  8
0
 10
16.1183
 20
-1.21352
 11
16.0439
 21
-1.15576
  0
LINE
  8
0
 10
16.0439
 20
-1.15576
 11
15.9732
 21
-1.09344
  0
LINE
  8
0
 10
15.9732
 20
-1.09344
 11
15.9065
 21
-1.02681
  0
LINE
  8
0
 10
15.9065
 20
-1.02681
 11
15.8442
 21
-0.956131
  0
LINE
  8
0
 10
15.8442
 20
-0.956131
 11
15.7865
 21
-0.881668
  0
LINE
  8
0
 10
15.7865
 20
-0.881668
 11
15.7335
 21
-0.803726
  0
LINE
  8
0
 10
15.7335
 20
-0.803726
 11
15.6855
 21
-0.722626
  0
LINE
  8
0
 10
15.6855
 20
-0.722626
 11
15.6427
 21
-0.638657
  0
LINE
  8
0
 10
15.6427
 20
-0.638657
 11
15.6053
 21
-0.552185
  0
LINE
  8
0
 10
15.6053
 20
-0.552185
 11
15.5734
 21
-0.463516
  0
LINE
  8
0
 10
15.5734
 20
-0.463516
 11
15.5471
 21
-0.373032
  0
LINE
  8
0
 10
15.5471
 20
-0.373032
 11
15.5266
 21
-0.281067
  0
LINE
  8
0
 10
15.5266
 20
-0.281067
 11
15.5118
 21
-0.187988
  0
LINE
  8
0
 10
15.5118
 20
-0.187988
 11
15.5029
 21
-0.0941772
  0
LINE
  8
0
 10
15.5029
 20
-0.0941772
 11
15.5
 21
0
  0
LINE
  8
0
 10
15.5
 20
0
 11
15.5029
 21
0.0941772
  0
LINE
  8
0
 10
15.5029
 20
0.0941772
 11
15.5118
 21
0.187988
  0
LINE
  8
0
 10
15.5118
 20
0.187988
 11
15.5266
 21
0.281067
  0
LINE
  8
0
 10
15.5266
 20
0.281067
 11
15.5471
 21
0.373032
  0
LINE
  8
0
 10
15.5471
 20
0.373032
 11
15.5734
 21
0.463516
  0
LINE
  8
0
 10
15.5734
 20
0.463516
 11
15.6053
 21
0.552185
  0
LINE
  8
0
 10
15.6053
 20
0.552185
 11
15.6427
 21
0.638657
  0
LINE
  8
0
 10
15.6427
 20
0.638657
 11
15.6855
 21
0.722626
  0
LINE
  8
0
 10
15.6855
 20
0.722626
 11
15.7335
 21
0.803726
  0
LINE
  8
0
 10
15.7335
 20
0.803726
 11
15.7865
 21
0.881668
  0
LINE
  8
0
 10
15.7865
 20
0.881668
 11
15.8442
 21
0.956131
  0
LINE
  8
0
 10
15.8442
 20
0.956131
 11
15.9065
 21
1.02681
  0
LINE
  8
0
 10
15.9065
 20
1.02681
 11
15.9732
 21
1.09344
  0
LINE
  8
0
 10
15.9732
 20
1.09344
 11
16.0439
 21
1.15576
  0
LINE
  8
0
 10
16.0439
 20
1.15576
 11
16.1183
 21
1.21352
  0
LINE
  8
0
 10
16.1183
 20
1.21352
 11
16.1963
 21
1.26648
  0
LINE
  8
0
 10
16.1963
 20
1.26648
 11
16.2774
 21
1.31445
  0
LINE
  8
0
 10
16.2774
 20
1.31445
 11
16.3613
 21
1.35724
  0
LINE
  8
0
 10
16.3613
 20
1.35724
 11
16.4478
 21
1.39465
  0
LINE
  8
0
 10
16.4478
 20
1.39465
 11
16.5365
 21
1.42657
  0
LINE
  8
0
 10
16.5365
 20
1.42657
 11
16.627
 21
1.45287
  0
LINE
  8
0
 10
16.627
 20
1.45287
 11
16.7189
 21
1.47342
  0
LINE
  8
0
 10
16.7189
 20
1.47342
 11
16.812
 21
1.48816
  0
LINE
  8
0
 10
16.812
 20
1.48816
 11
16.9058
 21
1.49704
  0
LINE
  8
0
 10
16.9058
 20
1.49704
 11
17
 21
1.5
  0
LINE
  8
0
 10
17
 20
1.5
 11
17.0942
 21
1.49704
  0
LINE
  8
0
 10
17.0942
 20
1.49704
 11
17.188
 21
1.48816
  0
LINE
  8
0
 10
17.188
 20
1.48816
 11
17.2811
 21
1.47342
  0
LINE
  8
0
 10
17.2811
 20
1.47342
 11
17.373
 21
1.45287
  0
LINE
  8
0
 10
17.373
 20
1.45287
 11
17.4635
 21
1.42657
  0
LINE
  8
0
 10
17.4635
 20
1.42657
 11
17.5522
 21
1.39465
  0
LINE
  8
0
 10
17.5522
 20
1.39465
 11
17.6387
 21
1.35724
  0
LINE
  8
0
 10
17.6387
 20
1.35724
 11
17.7226
 21
1.31445
  0
LINE
  8
0
 10
17.7226
 20
1.31445
 11
17.8037
 21
1.26648
  0
LINE
  8
0
 10
17.8037
 20
1.26648
 11
17.8817
 21
1.21352
  0
LINE
  8
0
 10
17.8817
 20
1.21352
 11
17.9561
 21
1.15576
  0
LINE
  8
0
 10
17.9561
 20
1.15576
 11
18.0268
 21
1.09344
  0
LINE
  8
0
 10
18.0268
 20
1.09344
 11
18.0934
 21
1.02681
  0
LINE
  8
0
 10
18.0934
 20
1.02681
 11
18.1558
 21
0.956131
  0
LINE
  8
0
 10
18.1558
 20
0.956131
 11
18.2135
 21
0.881668
  0
LINE
  8
0
 10
18.2135
 20
0.881668
 11
18.2665
 21
0.803726
  0
LINE
  8
0
 10
18.2665
 20
0.803726
 11
18.3145
 21
0.722626
  0
LINE
  8
0
 10
18.3145
 20
0.722626
 11
18.3572
 21
0.638657
  0
LINE
  8
0
 10
18.3572
 20
0.638657
 11
18.3947
 21
0.552185
  0
LINE
  8
0
 10
18.3947
 20
0.552185
 11
18.4266
 21
0.463516
  0
LINE
  8
0
 10
18.4266
 20
0.463516
 11
18.4529
 21
0.373032
  0
LINE
  8
0
 10
18.4529
 20
0.373032
 11
18.4734
 21
0.281067
  0
LINE
  8
0
 10
18.4734
 20
0.281067
 11
18.4882
 21
0.187988
  0
LINE
  8
0
 10
18.4882
 20
0.187988
 11
18.497
 21
0.0941772
  0
LINE
  8
0
 10
18.497
 20
0.0941772
 11
18.5
 21
0
  0
LINE
  8
0
 10
18.5
 20
0
 11
18.497
 21
-0.0941772
  0
LINE
  8
0
 10
18.497
 20
-0.0941772
 11
18.4882
 21
-0.187988
  0
LINE
  8
0
 10
18.4882
 20
-0.187988
 11
18.4734
 21
-0.281067
  0
LINE
  8
0
 10
18.4734
 20
-0.281067
 11
18.4529
 21
-0.373032
  0
LINE
  8
0
 10
18.4529
 20
-0.373032
 11
18.4266
 21
-0.463516
  0
LINE
  8
0
 10
18.4266
 20
-0.463516
 11
18.3947
 21
-0.552185
  0
LINE
  8
0
 10
18.3947
 20
-0.552185
 11
18.3572
 21
-0.638657
  0
LINE
  8
0
 10
18.3572
 20
-0.638657
 11
18.3145
 21
-0.722626
  0
LINE
  8
0
 10
18.3145
 20
-0.722626
 11
18.2665
 21
-0.803726
  0
LINE
  8
0
 10
18.2665
 20
-0.803726
 11
18.2135
 21
-0.881668
  0
LINE
  8
0
 10
18.2135
 20
-0.881668
 11
18.1558
 21
-0.956131
  0
LINE
  8
0
 10
18.1558
 20
-0.956131
 11
18.0934
 21
-1.02681
  0
LINE
  8
0
 10
18.0934
 20
-1.02681
 11
18.0268
 21
-1.09344
  0
LINE
  8
0
 10
18.0268
 20
-1.09344
 11
17.9561
 21
-1.15576
  0
LINE
  8
0
 10
17.9561
 20
-1.15576
 11
17.8817
 21
-1.21352
  0
LINE
  8
0
 10
17.8817
 20
-1.21352
 11
17.8037
 21
-1.26648
  0
LINE
  8
0
 10
17.8037
 20
-1.26648
 11
17.7226
 21
-1.31445
  0
LINE
  8
0
 10
17.7226
 20
-1.31445
 11
17.6387
 21
-1.35724
  0
LINE
  8
0
 10
17.6387
 20
-1.35724
 11
17.5522
 21
-1.39465
  0
LINE
  8
0
 10
17.5522
 20
-1.39465
 11
17.4635
 21
-1.42657
  0
LINE
  8
0
 10
17.4635
 20
-1.42657
 11
17.373
 21
-1.45287
  0
LINE
  8
0
 10
17.373
 20
-1.45287
 11
17.2811
 21
-1.47342
  0
LINE
  8
0
 10
17.2811
 20
-1.47342
 11
17.188
 21
-1.48816
  0
LINE
  8
0
 10
17.188
 20
-1.48816
 11
17.0942
 21
-1.49704
  0
LINE
  8
0
 10
17.0942
 20
-1.49704
 11
17
 21
-1.5
  0
LINE
  8
0
 10
17
 20
-1.5
 11
16.9058
 21
-1.49704
  0
LINE
  8
0
 10
-15.1884
 20
-17.9941
 11
-15.376
 21
-17.9763
  0
LINE
  8
0
 10
-15.376
 20
-17.9763
 11
-15.5621
 21
-17.9469
  0
LINE
  8
0
 10
-15.5621
 20
-17.9469
 11
-15.7461
 21
-17.9057
  0
LINE
  8
0
 10
-15.7461
 20
-17.9057
 11
-15.927
 21
-17.8532
  0
LINE
  8
0
 10
-15.927
 20
-17.8532
 11
-16.1044
 21
-17.7893
  0
LINE
  8
0
 10
-16.1044
 20
-17.7893
 11
-16.2773
 21
-17.7145
  0
LINE
  8
0
 10
-16.2773
 20
-17.7145
 11
-16.4453
 21
-17.6289
  0
LINE
  8
0
 10
-16.4453
 20
-17.6289
 11
-16.6075
 21
-17.533
  0
LINE
  8
0
 10
-16.6075
 20
-17.533
 11
-16.7634
 21
-17.427
  0
LINE
  8
0
 10
-16.7634
 20
-17.427
 11
-16.9123
 21
-17.3115
  0
LINE
  8
0
 10
-16.9123
 20
-17.3115
 11
-17.0536
 21
-17.1869
  0
LINE
  8
0
 10
-17.0536
 20
-17.1869
 11
-17.1869
 21
-17.0536
  0
LINE
  8
0
 10
-17.1869
 20
-17.0536
 11
-17.3115
 21
-16.9123
  0
LINE
  8
0
 10
-17.3115
 20
-16.9123
 11
-17.427
 21
-16.7634
  0
LINE
  8
0
 10
-17.427
 20
-16.7634
 11
-17.533
 21
-16.6075
  0
LINE
  8
0
 10
-17.533
 20
-16.6075
 11
-17.6289
 21
-16.4453
  0
LINE
  8
0
 10
-17.6289
 20
-16.4453
 11
-17.7145
 21
-16.2773
  0
LINE
  8
0
 10
-17.7145
 20
-16.2773
 11
-17.7893
 21
-16.1044
  0
LINE
  8
0
 10
-17.7893
 20
-16.1044
 11
-17.8532
 21
-15.927
  0
LINE
  8
0
 10
-17.8532
 20
-15.927
 11
-17.9057
 21
-15.7461
  0
LINE
  8
0
 10
-17.9057
 20
-15.7461
 11
-17.9469
 21
-15.5621
  0
LINE
  8
0
 10
-17.9469
 20
-15.5621
 11
-17.9763
 21
-15.376
  0
LINE
  8
0
 10
-17.9763
 20
-15.376
 11
-17.9941
 21
-15.1884
  0
LINE
  8
0
 10
-17.9941
 20
-15.1884
 11
-18
 21
-15
  0
LINE
  8
0
 10
-18
 20
-15
 11
-17.9941
 21
-14.8116
  0
LINE
  8
0
 10
-17.9941
 20
-14.8116
 11
-17.9763
 21
-14.624
  0
LINE
  8
0
 10
-17.9763
 20
-14.624
 11
-17.9469
 21
-14.4379
  0
LINE
  8
0
 10
-17.9469
 20
-14.4379
 11
-17.9057
 21
-14.2539
  0
LINE
  8
0
 10
-17.9057
 20
-14.2539
 11
-17.8532
 21
-14.0729
  0
LINE
  8
0
 10
-17.8532
 20
-14.0729
 11
-17.7893
 21
-13.8956
  0
LINE
  8
0
 10
-17.7893
 20
-13.8956
 11
-17.7145
 21
-13.7227
  0
LINE
  8
0
 10
-17.7145
 20
-13.7227
 11
-17.6289
 21
-13.5547
  0
LINE
  8
0
 10
-17.6289
 20
-13.5547
 11
-17.533
 21
-13.3925
  0
LINE
  8
0
 10
-17.533
 20
-13.3925
 11
-17.427
 21
-13.2366
  0
LINE
  8
0
 10
-17.427
 20
-13.2366
 11
-17.3115
 21
-13.0877
  0
LINE
  8
0
 10
-17.3115
 20
-13.0877
 11
-17.1869
 21
-12.9464
  0
LINE
  8
0
 10
-17.1869
 20
-12.9464
 11
-17.0536
 21
-12.8131
  0
LINE
  8
0
 10
-17.0536
 20
-12.8131
 11
-16.9123
 21
-12.6884
  0
LINE
  8
0
 10
-16.9123
 20
-12.6884
 11
-16.7634
 21
-12.5729
  0
LINE
  8
0
 10
-16.7634
 20
-12.5729
 11
-16.6075
 21
-12.467
  0
LINE
  8
0
 10
-16.6075
 20
-12.467
 11
-16.4453
 21
-12.3711
  0
LINE
  8
0
 10
-16.4453
 20
-12.3711
 11
-16.2773
 21
-12.2855
  0
LINE
  8
0
 10
-16.2773
 20
-12.2855
 11
-16.1044
 21
-12.2107
  0
LINE
  8
0
 10
-16.1044
 20
-12.2107
 11
-15.927
 21
-12.1468
  0
LINE
  8
0
 10
-15.927
 20
-12.1468
 11
-15.7461
 21
-12.0942
  0
LINE
  8
0
 10
-15.7461
 20
-12.0942
 11
-15.5621
 21
-12.0531
  0
LINE
  8
0
 10
-15.5621
 20
-12.0531
 11
-15.376
 21
-12.0237
  0
LINE
  8
0
 10
-15.376
 20
-12.0237
 11
-15.1884
 21
-12.0059
  0
LINE
  8
0
 10
-15.1884
 20
-12.0059
 11
-15
 21
-12
  0
LINE
  8
0
 10
-15
 20
-12
 11
-14.8116
 21
-12.0059
  0
LINE
  8
0
 10
-14.8116
 20
-12.0059
 11
-14.624
 21
-12.0237
  0
LINE
  8
0
 10
-14.624
 20
-12.0237
 11
-14.4379
 21
-12.0531
  0
LINE
  8
0
 10
-14.4379
 20
-12.0531
 11
-14.2539
 21
-12.0942
  0
LINE
  8
0
 10
-14.2539
 20
-12.0942
 11
-14.0729
 21
-12.1468
  0
LINE
  8
0
 10
-14.0729
 20
-12.1468
 11
-13.8956
 21
-12.2107
  0
LINE
  8
0
 10
-13.8956
 20
-12.2107
 11
-13.7227
 21
-12.2855
  0
LINE
  8
0
 10
-13.7227
 20
-12.2855
 11
-13.5547
 21
-12.3711
  0
LINE
  8
0
 10
-13.5547
 20
-12.3711
 11
-13.3925
 21
-12.467
  0
LINE
  8
0
 10
-13.3925
 20
-12.467
 11
-13.2366
 21
-12.5729
  0
LINE
  8
0
 10
-13.2366
 20
-12.5729
 11
-13.0877
 21
-12.6884
  0
LINE
  8
0
 10
-13.0877
 20
-12.6884
 11
-12.9464
 21
-12.8131
  0
LINE
  8
0
 10
-12.9464
 20
-12.8131
 11
-12.8131
 21
-12.9464
  0
LINE
  8
0
 10
-12.8131
 20
-12.9464
 11
-12.6884
 21
-13.0877
  0
LINE
  8
0
 10
-12.6884
 20
-13.0877
 11
-12.5729
 21
-13.2366
  0
LINE
  8
0
 10
-12.5729
 20
-13.2366
 11
-12.467
 21
-13.3925
  0
LINE
  8
0
 10
-12.467
 20
-13.3925
 11
-12.3711
 21
-13.5547
  0
LINE
  8
0
 10
-12.3711
 20
-13.5547
 11
-12.2855
 21
-13.7227
  0
LINE
  8
0
 10
-12.2855
 20
-13.7227
 11
-12.2107
 21
-13.8956
  0
LINE
  8
0
 10
-12.2107
 20
-13.8956
 11
-12.1468
 21
-14.0729
  0
LINE
  8
0
 10
-12.1468
 20
-14.0729
 11
-12.0942
 21
-14.2539
  0
LINE
  8
0
 10
-12.0942
 20
-14.2539
 11
-12.0531
 21
-14.4379
  0
LINE
  8
0
 10
-12.0531
 20
-14.4379
 11
-12.0237
 21
-14.624
  0
LINE
  8
0
 10
-12.0237
 20
-14.624
 11
-12.0059
 21
-14.8116
  0
LINE
  8
0
 10
-12.0059
 20
-14.8116
 11
-12
 21
-15
  0
LINE
  8
0
 10
-12
 20
-15
 11
-12.0059
 21
-15.1884
  0
LINE
  8
0
 10
-12.0059
 20
-15.1884
 11
-12.0237
 21
-15.376
  0
LINE
  8
0
 10
-12.0237
 20
-15.376
 11
-12.0531
 21
-15.5621
  0
LINE
  8
0
 10
-12.0531
 20
-15.5621
 11
-12.0942
 21
-15.7461
  0
LINE
  8
0
 10
-12.0942
 20
-15.7461
 11
-12.1468
 21
-15.927
  0
LINE
  8
0
 10
-12.1468
 20
-15.927
 11
-12.2107
 21
-16.1044
  0
LINE
  8
0
 10
-12.2107
 20
-16.1044
 11
-12.2855
 21
-16.2773
  0
LINE
  8
0
 10
-12.2855
 20
-16.2773
 11
-12.3711
 21
-16.4453
  0
LINE
  8
0
 10
-12.3711
 20
-16.4453
 11
-12.467
 21
-16.6075
  0
LINE
  8
0
 10
-12.467
 20
-16.6075
 11
-12.5729
 21
-16.7634
  0
LINE
  8
0
 10
-12.5729
 20
-16.7634
 11
-12.6884
 21
-16.9123
  0
LINE
  8
0
 10
-12.6884
 20
-16.9123
 11
-12.8131
 21
-17.0536
  0
LINE
  8
0
 10
-12.8131
 20
-17.0536
 11
-12.9464
 21
-17.1869
  0
LINE
  8
0
 10
-12.9464
 20
-17.1869
 11
-13.0877
 21
-17.3115
  0
LINE
  8
0
 10
-13.0877
 20
-17.3115
 11
-13.2366
 21
-17.427
  0
LINE
  8
0
 10
-13.2366
 20
-17.427
 11
-13.3925
 21
-17.533
  0
LINE
  8
0
 10
-13.3925
 20
-17.533
 11
-13.5547
 21
-17.6289
  0
LINE
  8
0
 10
-13.5547
 20
-17.6289
 11
-13.7227
 21
-17.7145
  0
LINE
  8
0
 10
-13.7227
 20
-17.7145
 11
-13.8956
 21
-17.7893
  0
LINE
  8
0
 10
-13.8956
 20
-17.7893
 11
-14.0729
 21
-17.8532
  0
LINE
  8
0
 10
-14.0729
 20
-17.8532
 11
-14.2539
 21
-17.9057
  0
LINE
  8
0
 10
-14.2539
 20
-17.9057
 11
-14.4379
 21
-17.9469
  0
LINE
  8
0
 10
-14.4379
 20
-17.9469
 11
-14.624
 21
-17.9763
  0
LINE
  8
0
 10
-14.624
 20
-17.9763
 11
-14.8116
 21
-17.9941
  0
LINE
  8
0
 10
-14.8116
 20
-17.9941
 11
-15
 21
-18
  0
LINE
  8
0
 10
-15
 20
-18
 11
-15.1884
 21
-17.9941
  0
LINE
  8
0
 10
14.8116
 20
-17.9941
 11
14.624
 21
-17.9763
  0
LINE
  8
0
 10
14.624
 20
-17.9763
 11
14.4379
 21
-17.9469
  0
LINE
  8
0
 10
14.4379
 20
-17.9469
 11
14.2539
 21
-17.9057
  0
LINE
  8
0
 10
14.2539
 20
-17.9057
 11
14.0729
 21
-17.8532
  0
LINE
  8
0
 10
14.0729
 20
-17.8532
 11
13.8956
 21
-17.7893
  0
LINE
  8
0
 10
13.8956
 20
-17.7893
 11
13.7227
 21
-17.7145
  0
LINE
  8
0
 10
13.7227
 20
-17.7145
 11
13.5547
 21
-17.6289
  0
LINE
  8
0
 10
13.5547
 20
-17.6289
 11
13.3925
 21
-17.533
  0
LINE
  8
0
 10
13.3925
 20
-17.533
 11
13.2366
 21
-17.427
  0
LINE
  8
0
 10
13.2366
 20
-17.427
 11
13.0877
 21
-17.3115
  0
LINE
  8
0
 10
13.0877
 20
-17.3115
 11
12.9464
 21
-17.1869
  0
LINE
  8
0
 10
12.9464
 20
-17.1869
 11
12.8131
 21
-17.0536
  0
LINE
  8
0
 10
12.8131
 20
-17.0536
 11
12.6884
 21
-16.9123
  0
LINE
  8
0
 10
12.6884
 20
-16.9123
 11
12.5729
 21
-16.7634
  0
LINE
  8
0
 10
12.5729
 20
-16.7634
 11
12.467
 21
-16.6075
  0
LINE
  8
0
 10
12.467
 20
-16.6075
 11
12.3711
 21
-16.4453
  0
LINE
  8
0
 10
12.3711
 20
-16.4453
 11
12.2855
 21
-16.2773
  0
LINE
  8
0
 10
12.2855
 20
-16.2773
 11
12.2107
 21
-16.1044
  0
LINE
  8
0
 10
12.2107
 20
-16.1044
 11
12.1468
 21
-15.927
  0
LINE
  8
0
 10
12.1468
 20
-15.927
 11
12.0942
 21
-15.7461
  0
LINE
  8
0
 10
12.0942
 20
-15.7461
 11
12.0531
 21
-15.5621
  0
LINE
  8
0
 10
12.0531
 20
-15.5621
 11
12.0237
 21
-15.376
  0
LINE
  8
0
 10
12.0237
 20
-15.376
 11
12.0059
 21
-15.1884
  0
LINE
  8
0
 10
12.0059
 20
-15.1884
 11
12
 21
-15
  0
LINE
  8
0
 10
12
 20
-15
 11
12.0059
 21
-14.8116
  0
LINE
  8
0
 10
12.0059
 20
-14.8116
 11
12.0237
 21
-14.624
  0
LINE
  8
0
 10
12.0237
 20
-14.624
 11
12.0531
 21
-14.4379
  0
LINE
  8
0
 10
12.0531
 20
-14.4379
 11
12.0942
 21
-14.2539
  0
LINE
  8
0
 10
12.0942
 20
-14.2539
 11
12.1468
 21
-14.0729
  0
LINE
  8
0
 10
12.1468
 20
-14.0729
 11
12.2107
 21
-13.8956
  0
LINE
  8
0
 10
12.2107
 20
-13.8956
 11
12.2855
 21
-13.7227
  0
LINE
  8
0
 10
12.2855
 20
-13.7227
 11
12.3711
 21
-13.5547
  0
LINE
  8
0
 10
12.3711
 20
-13.5547
 11
12.467
 21
-13.3925
  0
LINE
  8
0
 10
12.467
 20
-13.3925
 11
12.5729
 21
-13.2366
  0
LINE
  8
0
 10
12.5729
 20
-13.2366
 11
12.6884
 21
-13.0877
  0
LINE
  8
0
 10
12.6884
 20
-13.0877
 11
12.8131
 21
-12.9464
  0
LINE
  8
0
 10
12.8131
 20
-12.9464
 11
12.9464
 21
-12.8131
  0
LINE
  8
0
 10
12.9464
 20
-12.8131
 11
13.0877
 21
-12.6884
  0
LINE
  8
0
 10
13.0877
 20
-12.6884
 11
13.2366
 21
-12.5729
  0
LINE
  8
0
 10
13.2366
 20
-12.5729
 11
13.3925
 21
-12.467
  0
LINE
  8
0
 10
13.3925
 20
-12.467
 11
13.5547
 21
-12.3711
  0
LINE
  8
0
 10
13.5547
 20
-12.3711
 11
13.7227
 21
-12.2855
  0
LINE
  8
0
 10
13.7227
 20
-12.2855
 11
13.8956
 21
-12.2107
  0
LINE
  8
0
 10
13.8956
 20
-12.2107
 11
14.0729
 21
-12.1468
  0
LINE
  8
0
 10
14.0729
 20
-12.1468
 11
14.2539
 21
-12.0942
  0
LINE
  8
0
 10
14.2539
 20
-12.0942
 11
14.4379
 21
-12.0531
  0
LINE
  8
0
 10
14.4379
 20
-12.0531
 11
14.624
 21
-12.0237
  0
LINE
  8
0
 10
14.624
 20
-12.0237
 11
14.8116
 21
-12.0059
  0
LINE
  8
0
 10
14.8116
 20
-12.0059
 11
15
 21
-12
  0
LINE
  8
0
 10
15
 20
-12
 11
15.1884
 21
-12.0059
  0
LINE
  8
0
 10
15.1884
 20
-12.0059
 11
15.376
 21
-12.0237
  0
LINE
  8
0
 10
15.376
 20
-12.0237
 11
15.5621
 21
-12.0531
  0
LINE
  8
0
 10
15.5621
 20
-12.0531
 11
15.7461
 21
-12.0942
  0
LINE
  8
0
 10
15.7461
 20
-12.0942
 11
15.927
 21
-12.1468
  0
LINE
  8
0
 10
15.927
 20
-12.1468
 11
16.1044
 21
-12.2107
  0
LINE
  8
0
 10
16.1044
 20
-12.2107
 11
16.2773
 21
-12.2855
  0
LINE
  8
0
 10
16.2773
 20
-12.2855
 11
16.4453
 21
-12.3711
  0
LINE
  8
0
 10
16.4453
 20
-12.3711
 11
16.6075
 21
-12.467
  0
LINE
  8
0
 10
16.6075
 20
-12.467
 11
16.7634
 21
-12.5729
  0
LINE
  8
0
 10
16.7634
 20
-12.5729
 11
16.9123
 21
-12.6884
  0
LINE
  8
0
 10
16.9123
 20
-12.6884
 11
17.0536
 21
-12.8131
  0
LINE
  8
0
 10
17.0536
 20
-12.8131
 11
17.1869
 21
-12.9464
  0
LINE
  8
0
 10
17.1869
 20
-12.9464
 11
17.3115
 21
-13.0877
  0
LINE
  8
0
 10
17.3115
 20
-13.0877
 11
17.427
 21
-13.2366
  0
LINE
  8
0
 10
17.427
 20
-13.2366
 11
17.533
 21
-13.3925
  0
LINE
  8
0
 10
17.533
 20
-13.3925
 11
17.6289
 21
-13.5547
  0
LINE
  8
0
 10
17.6289
 20
-13.5547
 11
17.7145
 21
-13.7227
  0
LINE
  8
0
 10
17.7145
 20
-13.7227
 11
17.7893
 21
-13.8956
  0
LINE
  8
0
 10
17.7893
 20
-13.8956
 11
17.8532
 21
-14.0729
  0
LINE
  8
0
 10
17.8532
 20
-14.0729
 11
17.9057
 21
-14.2539
  0
LINE
  8
0
 10
17.9057
 20
-14.2539
 11
17.9469
 21
-14.4379
  0
LINE
  8
0
 10
17.9469
 20
-14.4379
 11
17.9763
 21
-14.624
  0
LINE
  8
0
 10
17.9763
 20
-14.624
 11
17.9941
 21
-14.8116
  0
LINE
  8
0
 10
17.9941
 20
-14.8116
 11
18
 21
-15
  0
LINE
  8
0
 10
18
 20
-15
 11
17.9941
 21
-15.1884
  0
LINE
  8
0
 10
17.9941
 20
-15.1884
 11
17.9763
 21
-15.376
  0
LINE
  8
0
 10
17.9763
 20
-15.376
 11
17.9469
 21
-15.5621
  0
LINE
  8
0
 10
17.9469
 20
-15.5621
 11
17.9057
 21
-15.7461
  0
LINE
  8
0
 10
17.9057
 20
-15.7461
 11
17.8532
 21
-15.927
  0
LINE
  8
0
 10
17.8532
 20
-15.927
 11
17.7893
 21
-16.1044
  0
LINE
  8
0
 10
17.7893
 20
-16.1044
 11
17.7145
 21
-16.2773
  0
LINE
  8
0
 10
17.7145
 20
-16.2773
 11
17.6289
 21
-16.4453
  0
LINE
  8
0
 10
17.6289
 20
-16.4453
 11
17.533
 21
-16.6075
  0
LINE
  8
0
 10
17.533
 20
-16.6075
 11
17.427
 21
-16.7634
  0
LINE
  8
0
 10
17.427
 20
-16.7634
 11
17.3115
 21
-16.9123
  0
LINE
  8
0
 10
17.3115
 20
-16.9123
 11
17.1869
 21
-17.0536
  0
LINE
  8
0
 10
17.1869
 20
-17.0536
 11
17.0536
 21
-17.1869
  0
LINE
  8
0
 10
17.0536
 20
-17.1869
 11
16.9123
 21
-17.3115
  0
LINE
  8
0
 10
16.9123
 20
-17.3115
 11
16.7634
 21
-17.427
  0
LINE
  8
0
 10
16.7634
 20
-17.427
 11
16.6075
 21
-17.533
  0
LINE
  8
0
 10
16.6075
 20
-17.533
 11
16.4453
 21
-17.6289
  0
LINE
  8
0
 10
16.4453
 20
-17.6289
 11
16.2773
 21
-17.7145
  0
LINE
  8
0
 10
16.2773
 20
-17.7145
 11
16.1044
 21
-17.7893
  0
LINE
  8
0
 10
16.1044
 20
-17.7893
 11
15.927
 21
-17.8532
  0
LINE
  8
0
 10
15.927
 20
-17.8532
 11
15.7461
 21
-17.9057
  0
LINE
  8
0
 10
15.7461
 20
-17.9057
 11
15.5621
 21
-17.9469
  0
LINE
  8
0
 10
15.5621
 20
-17.9469
 11
15.376
 21
-17.9763
  0
LINE
  8
0
 10
15.376
 20
-17.9763
 11
15.1884
 21
-17.9941
  0
LINE
  8
0
 10
15.1884
 20
-17.9941
 11
15
 21
-18
  0
LINE
  8
0
 10
15
 20
-18
 11
14.8116
 21
-17.9941
  0
LINE
  8
0
 10
-0.0941772
 20
-18.497
 11
-0.187988
 21
-18.4882
  0
LINE
  8
0
 10
-0.187988
 20
-18.4882
 11
-0.281067
 21
-18.4734
  0
LINE
  8
0
 10
-0.281067
 20
-18.4734
 11
-0.373032
 21
-18.4529
  0
LINE
  8
0
 10
-0.373032
 20
-18.4529
 11
-0.463516
 21
-18.4266
  0
LINE
  8
0
 10
-0.463516
 20
-18.4266
 11
-0.552185
 21
-18.3947
  0
LINE
  8
0
 10
-0.552185
 20
-18.3947
 11
-0.638657
 21
-18.3572
  0
LINE
  8
0
 10
-0.638657
 20
-18.3572
 11
-0.722626
 21
-18.3145
  0
LINE
  8
0
 10
-0.722626
 20
-18.3145
 11
-0.803726
 21
-18.2665
  0
LINE
  8
0
 10
-0.803726
 20
-18.2665
 11
-0.881668
 21
-18.2135
  0
LINE
  8
0
 10
-0.881668
 20
-18.2135
 11
-0.956131
 21
-18.1558
  0
LINE
  8
0
 10
-0.956131
 20
-18.1558
 11
-1.02681
 21
-18.0934
  0
LINE
  8
0
 10
-1.02681
 20
-18.0934
 11
-1.09344
 21
-18.0268
  0
LINE
  8
0
 10
-1.09344
 20
-18.0268
 11
-1.15576
 21
-17.9561
  0
LINE
  8
0
 10
-1.15576
 20
-17.9561
 11
-1.21352
 21
-17.8817
  0
LINE
  8
0
 10
-1.21352
 20
-17.8817
 11
-1.26648
 21
-17.8037
  0
LINE
  8
0
 10
-1.26648
 20
-17.8037
 11
-1.31445
 21
-17.7226
  0
LINE
  8
0
 10
-1.31445
 20
-17.7226
 11
-1.35724
 21
-17.6387
  0
LINE
  8
0
 10
-1.35724
 20
-17.6387
 11
-1.39465
 21
-17.5522
  0
LINE
  8
0
 10
-1.39465
 20
-17.5522
 11
-1.42657
 21
-17.4635
  0
LINE
  8
0
 10
-1.42657
 20
-17.4635
 11
-1.45287
 21
-17.373
  0
LINE
  8
0
 10
-1.45287
 20
-17.373
 11
-1.47342
 21
-17.2811
  0
LINE
  8
0
 10
-1.47342
 20
-17.2811
 11
-1.48816
 21
-17.188
  0
LINE
  8
0
 10
-1.48816
 20
-17.188
 11
-1.49704
 21
-17.0942
  0
LINE
  8
0
 10
-1.49704
 20
-17.0942
 11
-1.5
 21
-17
  0
LINE
  8
0
 10
-1.5
 20
-17
 11
-1.49704
 21
-16.9058
  0
LINE
  8
0
 10
-1.49704
 20
-16.9058
 11
-1.48816
 21
-16.812
  0
LINE
  8
0
 10
-1.48816
 20
-16.812
 11
-1.47342
 21
-16.7189
  0
LINE
  8
0
 10
-1.47342
 20
-16.7189
 11
-1.45287
 21
-16.627
  0
LINE
  8
0
 10
-1.45287
 20
-16.627
 11
-1.42657
 21
-16.5365
  0
LINE
  8
0
 10
-1.42657
 20
-16.5365
 11
-1.39465
 21
-16.4478
  0
LINE
  8
0
 10
-1.39465
 20
-16.4478
 11
-1.35724
 21
-16.3613
  0
LINE
  8
0
 10
-1.35724
 20
-16.3613
 11
-1.31445
 21
-16.2774
  0
LINE
  8
0
 10
-1.31445
 20
-16.2774
 11
-1.26648
 21
-16.1963
  0
LINE
  8
0
 10
-1.26648
 20
-16.1963
 11
-1.21352
 21
-16.1183
  0
LINE
  8
0
 10
-1.21352
 20
-16.1183
 11
-1.15576
 21
-16.0439
  0
LINE
  8
0
 10
-1.15576
 20
-16.0439
 11
-1.09344
 21
-15.9732
  0
LINE
  8
0
 10
-1.09344
 20
-15.9732
 11
-1.02681
 21
-15.9065
  0
LINE
  8
0
 10
-1.02681
 20
-15.9065
 11
-0.956131
 21
-15.8442
  0
LINE
  8
0
 10
-0.956131
 20
-15.8442
 11
-0.881668
 21
-15.7865
  0
LINE
  8
0
 10
-0.881668
 20
-15.7865
 11
-0.803726
 21
-15.7335
  0
LINE
  8
0
 10
-0.803726
 20
-15.7335
 11
-0.722626
 21
-15.6855
  0
LINE
  8
0
 10
-0.722626
 20
-15.6855
 11
-0.638657
 21
-15.6427
  0
LINE
  8
0
 10
-0.638657
 20
-15.6427
 11
-0.552185
 21
-15.6053
  0
LINE
  8
0
 10
-0.552185
 20
-15.6053
 11
-0.463516
 21
-15.5734
  0
LINE
  8
0
 10
-0.463516
 20
-15.5734
 11
-0.373032
 21
-15.5471
  0
LINE
  8
0
 10
-0.373032
 20
-15.5471
 11
-0.281067
 21
-15.5266
  0
LINE
  8
0
 10
-0.281067
 20
-15.5266
 11
-0.187988
 21
-15.5118
  0
LINE
  8
0
 10
-0.187988
 20
-15.5118
 11
-0.0941772
 21
-15.5029
  0
LINE
  8
0
 10
-0.0941772
 20
-15.5029
 11
0
 21
-15.5
  0
LINE
  8
0
 10
0
 20
-15.5
 11
0.0941772
 21
-15.5029
  0
LINE
  8
0
 10
0.0941772
 20
-15.5029
 11
0.187988
 21
-15.5118
  0
LINE
  8
0
 10
0.187988
 20
-15.5118
 11
0.281067
 21
-15.5266
  0
LINE
  8
0
 10
0.281067
 20
-15.5266
 11
0.373032
 21
-15.5471
  0
LINE
  8
0
 10
0.373032
 20
-15.5471
 11
0.463516
 21
-15.5734
  0
LINE
  8
0
 10
0.463516
 20
-15.5734
 11
0.552185
 21
-15.6053
  0
LINE
  8
0
 10
0.552185
 20
-15.6053
 11
0.638657
 21
-15.6427
  0
LINE
  8
0
 10
0.638657
 20
-15.6427
 11
0.722626
 21
-15.6855
  0
LINE
  8
0
 10
0.722626
 20
-15.6855
 11
0.803726
 21
-15.7335
  0
LINE
  8
0
 10
0.803726
 20
-15.7335
 11
0.881668
 21
-15.7865
  0
LINE
  8
0
 10
0.881668
 20
-15.7865
 11
0.956131
 21
-15.8442
  0
LINE
  8
0
 10
0.956131
 20
-15.8442
 11
1.02681
 21
-15.9065
  0
LINE
  8
0
 10
1.02681
 20
-15.9065
 11
1.09344
 21
-15.9732
  0
LINE
  8
0
 10
1.09344
 20
-15.9732
 11
1.15576
 21
-16.0439
  0
LINE
  8
0
 10
1.15576
 20
-16.0439
 11
1.21352
 21
-16.1183
  0
LINE
  8
0
 10
1.21352
 20
-16.1183
 11
1.26648
 21
-16.1963
  0
LINE
  8
0
 10
1.26648
 20
-16.1963
 11
1.31445
 21
-16.2774
  0
LINE
  8
0
 10
1.31445
 20
-16.2774
 11
1.35724
 21
-16.3613
  0
LINE
  8
0
 10
1.35724
 20
-16.3613
 11
1.39465
 21
-16.4478
  0
LINE
  8
0
 10
1.39465
 20
-16.4478
 11
1.42657
 21
-16.5365
  0
LINE
  8
0
 10
1.42657
 20
-16.5365
 11
1.45287
 21
-16.627
  0
LINE
  8
0
 10
1.45287
 20
-16.627
 11
1.47342
 21
-16.7189
  0
LINE
  8
0
 10
1.47342
 20
-16.7189
 11
1.48816
 21
-16.812
  0
LINE
  8
0
 10
1.48816
 20
-16.812
 11
1.49704
 21
-16.9058
  0
LINE
  8
0
 10
1.49704
 20
-16.9058
 11
1.5
 21
-17
  0
LINE
  8
0
 10
1.5
 20
-17
 11
1.49704
 21
-17.0942
  0
LINE
  8
0
 10
1.49704
 20
-17.0942
 11
1.48816
 21
-17.188
  0
LINE
  8
0
 10
1.48816
 20
-17.188
 11
1.47342
 21
-17.2811
  0
LINE
  8
0
 10
1.47342
 20
-17.2811
 11
1.45287
 21
-17.373
  0
LINE
  8
0
 10
1.45287
 20
-17.373
 11
1.42657
 21
-17.4635
  0
LINE
  8
0
 10
1.42657
 20
-17.4635
 11
1.39465
 21
-17.5522
  0
LINE
  8
0
 10
1.39465
 20
-17.5522
 11
1.35724
 21
-17.6387
  0
LINE
  8
0
 10
1.35724
 20
-17.6387
 11
1.31445
 21
-17.7226
  0
LINE
  8
0
 10
1.31445
 20
-17.7226
 11
1.26648
 21
-17.8037
  0
LINE
  8
0
 10
1.26648
 20
-17.8037
 11
1.21352
 21
-17.8817
  0
LINE
  8
0
 10
1.21352
 20
-17.8817
 11
1.15576
 21
-17.9561
  0
LINE
  8
0
 10
1.15576
 20
-17.9561
 11
1.09344
 21
-18.0268
  0
LINE
  8
0
 10
1.09344
 20
-18.0268
 11
1.02681
 21
-18.0934
  0
LINE
  8
0
 10
1.02681
 20
-18.0934
 11
0.956131
 21
-18.1558
  0
LINE
  8
0
 10
0.956131
 20
-18.1558
 11
0.881668
 21
-18.2135
  0
LINE
  8
0
 10
0.881668
 20
-18.2135
 11
0.803726
 21
-18.2665
  0
LINE
  8
0
 10
0.803726
 20
-18.2665
 11
0.722626
 21
-18.3145
  0
LINE
  8
0
 10
0.722626
 20
-18.3145
 11
0.638657
 21
-18.3572
  0
LINE
  8
0
 10
0.638657
 20
-18.3572
 11
0.552185
 21
-18.3947
  0
LINE
  8
0
 10
0.552185
 20
-18.3947
 11
0.463516
 21
-18.4266
  0
LINE
  8
0
 10
0.463516
 20
-18.4266
 11
0.373032
 21
-18.4529
  0
LINE
  8
0
 10
0.373032
 20
-18.4529
 11
0.281067
 21
-18.4734
  0
LINE
  8
0
 10
0.281067
 20
-18.4734
 11
0.187988
 21
-18.4882
  0
LINE
  8
0
 10
0.187988
 20
-18.4882
 11
0.0941772
 21
-18.497
  0
LINE
  8
0
 10
0.0941772
 20
-18.497
 11
0
 21
-18.5
  0
LINE
  8
0
 10
0
 20
-18.5
 11
-0.0941772
 21
-18.497
  0
ENDSEC
  0
SECTION
  2
OBJECTS
  0
DICTIONARY
  0
ENDSEC
  0
EOF
