  0
SECTION
  2
BLOCKS
  0
ENDSEC
  0
SECTION
  2
ENTITIES
  0
LINE
  8
0
 10
136
 20
9.02962
 11
136.314
 21
9.00986
  0
LINE
  8
0
 10
136.314
 20
9.00986
 11
137.545
 21
9.24471
  0
LINE
  8
0
 10
137.545
 20
9.24471
 11
138.679
 21
9.77835
  0
LINE
  8
0
 10
138.679
 20
9.77835
 11
139.645
 21
10.5773
  0
LINE
  8
0
 10
139.645
 20
10.5773
 11
140.382
 21
11.5912
  0
LINE
  8
0
 10
140.382
 20
11.5912
 11
140.843
 21
12.7565
  0
LINE
  8
0
 10
140.843
 20
12.7565
 11
141
 21
14
  0
LINE
  8
0
 10
141
 20
14
 11
141
 21
76
  0
LINE
  8
0
 10
141
 20
76
 11
140.843
 21
77.2434
  0
LINE
  8
0
 10
140.843
 20
77.2434
 11
140.382
 21
78.4088
  0
LINE
  8
0
 10
140.382
 20
78.4088
 11
139.645
 21
79.4227
  0
LINE
  8
0
 10
139.645
 20
79.4227
 11
138.679
 21
80.2216
  0
LINE
  8
0
 10
138.679
 20
80.2216
 11
137.545
 21
80.7553
  0
LINE
  8
0
 10
137.545
 20
80.7553
 11
136.314
 21
80.9901
  0
LINE
  8
0
 10
136.314
 20
80.9901
 11
136
 21
80.9704
  0
LINE
  8
0
 10
136
 20
80.9704
 11
136
 21
81
  0
LINE
  8
0
 10
136
 20
81
 11
14
 21
81
  0
LINE
  8
0
 10
14
 20
81
 11
14
 21
80.9704
  0
LINE
  8
0
 10
14
 20
80.9704
 11
13.0631
 21
80.9114
  0
LINE
  8
0
 10
13.0631
 20
80.9114
 11
11.8711
 21
80.5241
  0
LINE
  8
0
 10
11.8711
 20
80.5241
 11
10.8129
 21
79.8526
  0
LINE
  8
0
 10
10.8129
 20
79.8526
 11
9.95491
 21
78.9389
  0
LINE
  8
0
 10
9.95491
 20
78.9389
 11
9.3511
 21
77.8406
  0
LINE
  8
0
 10
9.3511
 20
77.8406
 11
9.03941
 21
76.6267
  0
LINE
  8
0
 10
9.03941
 20
76.6267
 11
9.03941
 21
76
  0
LINE
  8
0
 10
9.03941
 20
76
 11
9
 21
76
  0
LINE
  8
0
 10
9
 20
76
 11
9
 21
14
  0
LINE
  8
0
 10
9
 20
14
 11
9.03941
 21
14
  0
LINE
  8
0
 10
9.03941
 20
14
 11
9.03941
 21
13.3733
  0
LINE
  8
0
 10
9.03941
 20
13.3733
 11
9.3511
 21
12.1594
  0
LINE
  8
0
 10
9.3511
 20
12.1594
 11
9.95491
 21
11.0611
  0
LINE
  8
0
 10
9.95491
 20
11.0611
 11
10.8129
 21
10.1474
  0
LINE
  8
0
 10
10.8129
 20
10.1474
 11
11.8711
 21
9.47586
  0
LINE
  8
0
 10
11.8711
 20
9.47586
 11
13.0631
 21
9.08856
  0
LINE
  8
0
 10
13.0631
 20
9.08856
 11
14
 21
9.02962
  0
LINE
  8
0
 10
14
 20
9.02962
 11
14
 21
9
  0
LINE
  8
0
 10
14
 20
9
 11
136
 21
9
  0
LINE
  8
0
 10
136
 20
9
 11
136
 21
9.02962
  0
ENDSEC
  0
SECTION
  2
OBJECTS
  0
DICTIONARY
  0
ENDSEC
  0
EOF
