  0
SECTION
  2
HEADER
  9
$ACADVER
  1
AC1021
  9
$ACADMAINTVER
 70
    25
  9
$DWGCODEPAGE
  3
ANSI_1252
  9
$INSBASE
 10
0.0
 20
0.0
 30
0.0
  9
$EXTMIN
 10
8.82354
 20
-17.52646
 30
0.0
  9
$EXTMAX
 10
14.17646
 20
-12.17354
 30
0.0
  9
$LIMMIN
 10
0.0
 20
0.0
  9
$LIMMAX
 10
12.0
 20
9.0
  9
$ORTHOMODE
 70
     0
  9
$REGENMODE
 70
     1
  9
$FILLMODE
 70
     1
  9
$QTEXTMODE
 70
     0
  9
$MIRRTEXT
 70
     1
  9
$LTSCALE
 40
1.0
  9
$ATTMODE
 70
     1
  9
$TEXTSIZE
 40
0.2
  9
$TRACEWID
 40
0.05
  9
$TEXTSTYLE
  7
Standard
  9
$CLAYER
  8
0
  9
$CELTYPE
  6
ByLayer
  9
$CECOLOR
 62
   256
  9
$CELTSCALE
 40
1.0
  9
$DISPSILH
 70
     0
  9
$DIMSCALE
 40
1.0
  9
$DIMASZ
 40
0.18
  9
$DIMEXO
 40
0.0625
  9
$DIMDLI
 40
0.38
  9
$DIMRND
 40
0.0
  9
$DIMDLE
 40
0.0
  9
$DIMEXE
 40
0.18
  9
$DIMTP
 40
0.0
  9
$DIMTM
 40
0.0
  9
$DIMTXT
 40
0.18
  9
$DIMCEN
 40
0.09
  9
$DIMTSZ
 40
0.0
  9
$DIMTOL
 70
     0
  9
$DIMLIM
 70
     0
  9
$DIMTIH
 70
     1
  9
$DIMTOH
 70
     1
  9
$DIMSE1
 70
     0
  9
$DIMSE2
 70
     0
  9
$DIMTAD
 70
     0
  9
$DIMZIN
 70
     0
  9
$DIMBLK
  1

  9
$DIMASO
 70
     1
  9
$DIMSHO
 70
     1
  9
$DIMPOST
  1

  9
$DIMAPOST
  1

  9
$DIMALT
 70
     0
  9
$DIMALTD
 70
     2
  9
$DIMALTF
 40
25.4
  9
$DIMLFAC
 40
1.0
  9
$DIMTOFL
 70
     0
  9
$DIMTVP
 40
0.0
  9
$DIMTIX
 70
     0
  9
$DIMSOXD
 70
     0
  9
$DIMSAH
 70
     0
  9
$DIMBLK1
  1

  9
$DIMBLK2
  1

  9
$DIMSTYLE
  2
Standard
  9
$DIMCLRD
 70
     0
  9
$DIMCLRE
 70
     0
  9
$DIMCLRT
 70
     0
  9
$DIMTFAC
 40
1.0
  9
$DIMGAP
 40
0.09
  9
$DIMJUST
 70
     0
  9
$DIMSD1
 70
     0
  9
$DIMSD2
 70
     0
  9
$DIMTOLJ
 70
     1
  9
$DIMTZIN
 70
     0
  9
$DIMALTZ
 70
     0
  9
$DIMALTTZ
 70
     0
  9
$DIMUPT
 70
     0
  9
$DIMDEC
 70
     4
  9
$DIMTDEC
 70
     4
  9
$DIMALTU
 70
     2
  9
$DIMALTTD
 70
     2
  9
$DIMTXSTY
  7
Standard
  9
$DIMAUNIT
 70
     0
  9
$DIMADEC
 70
     0
  9
$DIMALTRND
 40
0.0
  9
$DIMAZIN
 70
     0
  9
$DIMDSEP
 70
    46
  9
$DIMATFIT
 70
     3
  9
$DIMFRAC
 70
     0
  9
$DIMLDRBLK
  1

  9
$DIMLUNIT
 70
     2
  9
$DIMLWD
 70
    -2
  9
$DIMLWE
 70
    -2
  9
$DIMTMOVE
 70
     0
  9
$DIMFXL
 40
1.0
  9
$DIMFXLON
 70
     0
  9
$DIMJOGANG
 40
0.7853981633974483
  9
$DIMTFILL
 70
     0
  9
$DIMTFILLCLR
 70
     0
  9
$DIMARCSYM
 70
     0
  9
$DIMLTYPE
  6

  9
$DIMLTEX1
  6

  9
$DIMLTEX2
  6

  9
$LUNITS
 70
     2
  9
$LUPREC
 70
     4
  9
$SKETCHINC
 40
0.1
  9
$FILLETRAD
 40
0.5
  9
$AUNITS
 70
     0
  9
$AUPREC
 70
     0
  9
$MENU
  1
.
  9
$ELEVATION
 40
0.0
  9
$PELEVATION
 40
0.0
  9
$THICKNESS
 40
0.0
  9
$LIMCHECK
 70
     0
  9
$CHAMFERA
 40
0.5
  9
$CHAMFERB
 40
0.5
  9
$CHAMFERC
 40
1.0
  9
$CHAMFERD
 40
0.0
  9
$SKPOLY
 70
     0
  9
$TDCREATE
 40
2457798.829996979
  9
$TDUCREATE
 40
2457798.829996979
  9
$TDUPDATE
 40
2457798.829996991
  9
$TDUUPDATE
 40
2457798.829996991
  9
$TDINDWG
 40
0.0000000116
  9
$TDUSRTIMER
 40
0.0000000116
  9
$USRTIMER
 70
     1
  9
$ANGBASE
 50
0.0
  9
$ANGDIR
 70
     0
  9
$PDMODE
 70
     0
  9
$PDSIZE
 40
0.0
  9
$PLINEWID
 40
0.0
  9
$SPLFRAME
 70
     0
  9
$SPLINETYPE
 70
     6
  9
$SPLINESEGS
 70
     8
  9
$HANDSEED
  5
89
  9
$SURFTAB1
 70
     6
  9
$SURFTAB2
 70
     6
  9
$SURFTYPE
 70
     6
  9
$SURFU
 70
     6
  9
$SURFV
 70
     6
  9
$UCSBASE
  2

  9
$UCSNAME
  2

  9
$UCSORG
 10
0.0
 20
0.0
 30
0.0
  9
$UCSXDIR
 10
1.0
 20
0.0
 30
0.0
  9
$UCSYDIR
 10
0.0
 20
1.0
 30
0.0
  9
$UCSORTHOREF
  2

  9
$UCSORTHOVIEW
 70
     0
  9
$UCSORGTOP
 10
0.0
 20
0.0
 30
0.0
  9
$UCSORGBOTTOM
 10
0.0
 20
0.0
 30
0.0
  9
$UCSORGLEFT
 10
0.0
 20
0.0
 30
0.0
  9
$UCSORGRIGHT
 10
0.0
 20
0.0
 30
0.0
  9
$UCSORGFRONT
 10
0.0
 20
0.0
 30
0.0
  9
$UCSORGBACK
 10
0.0
 20
0.0
 30
0.0
  9
$PUCSBASE
  2

  9
$PUCSNAME
  2

  9
$PUCSORG
 10
0.0
 20
0.0
 30
0.0
  9
$PUCSXDIR
 10
1.0
 20
0.0
 30
0.0
  9
$PUCSYDIR
 10
0.0
 20
1.0
 30
0.0
  9
$PUCSORTHOREF
  2

  9
$PUCSORTHOVIEW
 70
     0
  9
$PUCSORGTOP
 10
0.0
 20
0.0
 30
0.0
  9
$PUCSORGBOTTOM
 10
0.0
 20
0.0
 30
0.0
  9
$PUCSORGLEFT
 10
0.0
 20
0.0
 30
0.0
  9
$PUCSORGRIGHT
 10
0.0
 20
0.0
 30
0.0
  9
$PUCSORGFRONT
 10
0.0
 20
0.0
 30
0.0
  9
$PUCSORGBACK
 10
0.0
 20
0.0
 30
0.0
  9
$USERI1
 70
     0
  9
$USERI2
 70
     0
  9
$USERI3
 70
     0
  9
$USERI4
 70
     0
  9
$USERI5
 70
     0
  9
$USERR1
 40
0.0
  9
$USERR2
 40
0.0
  9
$USERR3
 40
0.0
  9
$USERR4
 40
0.0
  9
$USERR5
 40
0.0
  9
$WORLDVIEW
 70
     1
  9
$SHADEDGE
 70
     3
  9
$SHADEDIF
 70
    70
  9
$TILEMODE
 70
     1
  9
$MAXACTVP
 70
    64
  9
$PINSBASE
 10
0.0
 20
0.0
 30
0.0
  9
$PLIMCHECK
 70
     0
  9
$PEXTMIN
 10
1.000000000000000E+20
 20
1.000000000000000E+20
 30
1.000000000000000E+20
  9
$PEXTMAX
 10
-1.000000000000000E+20
 20
-1.000000000000000E+20
 30
-1.000000000000000E+20
  9
$PLIMMIN
 10
0.0
 20
0.0
  9
$PLIMMAX
 10
12.0
 20
9.0
  9
$UNITMODE
 70
     0
  9
$VISRETAIN
 70
     1
  9
$PLINEGEN
 70
     0
  9
$PSLTSCALE
 70
     1
  9
$TREEDEPTH
 70
  3020
  9
$CMLSTYLE
  2
Standard
  9
$CMLJUST
 70
     0
  9
$CMLSCALE
 40
1.0
  9
$PROXYGRAPHICS
 70
     1
  9
$MEASUREMENT
 70
     0
  9
$CELWEIGHT
370
    -1
  9
$ENDCAPS
280
     0
  9
$JOINSTYLE
280
     0
  9
$LWDISPLAY
290
     0
  9
$INSUNITS
 70
     5
  9
$HYPERLINKBASE
  1

  9
$STYLESHEET
  1

  9
$XEDIT
290
     1
  9
$CEPSNTYPE
380
     0
  9
$PSTYLEMODE
290
     1
  9
$FINGERPRINTGUID
  2
{02ED5695-94D0-4642-A855-CEF2198E040D}
  9
$VERSIONGUID
  2
{FAEB1C32-E019-11D5-929B-00C0DF256EC4}
  9
$EXTNAMES
290
     1
  9
$PSVPSCALE
 40
0.0
  9
$OLESTARTUP
290
     0
  9
$SORTENTS
280
   127
  9
$INDEXCTL
280
     0
  9
$HIDETEXT
280
     1
  9
$XCLIPFRAME
290
     0
  9
$HALOGAP
280
     0
  9
$OBSCOLOR
 70
   257
  9
$OBSLTYPE
280
     0
  9
$INTERSECTIONDISPLAY
280
     0
  9
$INTERSECTIONCOLOR
 70
   257
  9
$DIMASSOC
280
     2
  9
$PROJECTNAME
  1

  9
$CAMERADISPLAY
290
     0
  9
$LENSLENGTH
 40
50.0
  9
$CAMERAHEIGHT
 40
0.0
  9
$STEPSPERSEC
 40
2.0
  9
$STEPSIZE
 40
6.0
  9
$3DDWFPREC
 40
2.0
  9
$PSOLWIDTH
 40
0.25
  9
$PSOLHEIGHT
 40
4.0
  9
$LOFTANG1
 40
1.570796326794897
  9
$LOFTANG2
 40
1.570796326794897
  9
$LOFTMAG1
 40
0.0
  9
$LOFTMAG2
 40
0.0
  9
$LOFTPARAM
 70
     7
  9
$LOFTNORMALS
280
     1
  9
$LATITUDE
 40
37.795
  9
$LONGITUDE
 40
-122.394
  9
$NORTHDIRECTION
 40
0.0
  9
$TIMEZONE
 70
 -8000
  9
$LIGHTGLYPHDISPLAY
280
     1
  9
$TILEMODELIGHTSYNCH
280
     1
  9
$SOLIDHIST
280
     1
  9
$SHOWHIST
280
     1
  9
$DWFFRAME
280
     2
  9
$DGNFRAME
280
     2
  9
$REALWORLDSCALE
290
     1
  9
$INTERFERECOLOR
 62
   256
  9
$CSHADOW
280
     0
  9
$SHADOWPLANELOCATION
 40
0.0
  0
ENDSEC
  0
SECTION
  2
CLASSES
  0
CLASS
  1
ACDBDICTIONARYWDFLT
  2
AcDbDictionaryWithDefault
  3
ObjectDBX Classes
 90
        0
 91
        3
280
     0
281
     0
  0
CLASS
  1
VISUALSTYLE
  2
AcDbVisualStyle
  3
ObjectDBX Classes
 90
     4095
 91
        3
280
     0
281
     0
  0
CLASS
  1
SCALE
  2
AcDbScale
  3
ObjectDBX Classes
 90
     1153
 91
        3
280
     0
281
     0
  0
ENDSEC
  0
SECTION
  2
TABLES
  0
TABLE
  2
VPORT
  5
8
330
0
100
AcDbSymbolTable
 70
     1
  0
VPORT
  5
29
330
8
100
AcDbSymbolTableRecord
100
AcDbViewportTableRecord
  2
*Active
 70
     0
 10
0.0
 20
0.0
 11
1.0
 21
1.0
 12
10.42990654205607
 22
4.5
 13
0.0
 23
0.0
 14
0.5
 24
0.5
 15
0.5
 25
0.5
 16
0.0
 26
0.0
 36
1.0
 17
0.0
 27
0.0
 37
0.0
 40
9.0
 41
1.972972972850329
 42
50.0
 43
0.0
 44
0.0
 50
0.0
 51
0.0
 71
     0
 72
   100
 73
     1
 74
     3
 75
     0
 76
     0
 77
     0
 78
     0
281
     0
 65
     1
110
0.0
120
0.0
130
0.0
111
1.0
121
0.0
131
0.0
112
0.0
122
1.0
132
0.0
 79
     0
146
0.0
 60
     3
 61
     5
292
     1
282
     1
141
0.0
142
0.0
 63
   256
  0
ENDTAB
  0
TABLE
  2
LTYPE
  5
5
330
0
100
AcDbSymbolTable
 70
     1
  0
LTYPE
  5
14
330
5
100
AcDbSymbolTableRecord
100
AcDbLinetypeTableRecord
  2
ByBlock
 70
     0
  3

 72
    65
 73
     0
 40
0.0
  0
LTYPE
  5
15
330
5
100
AcDbSymbolTableRecord
100
AcDbLinetypeTableRecord
  2
ByLayer
 70
     0
  3

 72
    65
 73
     0
 40
0.0
  0
LTYPE
  5
16
330
5
100
AcDbSymbolTableRecord
100
AcDbLinetypeTableRecord
  2
Continuous
 70
     0
  3
Solid line
 72
    65
 73
     0
 40
0.0
  0
ENDTAB
  0
TABLE
  2
LAYER
  5
2
330
0
100
AcDbSymbolTable
 70
     2
  0
LAYER
  5
10
330
2
100
AcDbSymbolTableRecord
100
AcDbLayerTableRecord
  2
0
 70
     0
 62
     7
  6
Continuous
370
    -3
390
F
347
0
  0
LAYER
  5
5E
330
2
100
AcDbSymbolTableRecord
100
AcDbLayerTableRecord
  2
Layer 1
 70
     0
 62
     7
  6
Continuous
370
    -3
390
F
347
0
  0
ENDTAB
  0
TABLE
  2
STYLE
  5
3
330
0
100
AcDbSymbolTable
 70
     1
  0
STYLE
  5
11
330
3
100
AcDbSymbolTableRecord
100
AcDbTextStyleTableRecord
  2
Standard
 70
     0
 40
0.0
 41
1.0
 50
0.0
 71
     0
 42
0.2
  3
txt
  4

  0
ENDTAB
  0
TABLE
  2
VIEW
  5
6
330
0
100
AcDbSymbolTable
 70
     0
  0
ENDTAB
  0
TABLE
  2
UCS
  5
7
330
0
100
AcDbSymbolTable
 70
     0
  0
ENDTAB
  0
TABLE
  2
APPID
  5
9
330
0
100
AcDbSymbolTable
 70
     2
  0
APPID
  5
12
330
9
100
AcDbSymbolTableRecord
100
AcDbRegAppTableRecord
  2
ACAD
 70
     0
  0
APPID
  5
5D
330
9
100
AcDbSymbolTableRecord
100
AcDbRegAppTableRecord
  2
ODA
 70
     0
  0
ENDTAB
  0
TABLE
  2
DIMSTYLE
  5
A
330
0
100
AcDbSymbolTable
 70
     1
100
AcDbDimStyleTable
  0
DIMSTYLE
105
27
330
A
100
AcDbSymbolTableRecord
100
AcDbDimStyleTableRecord
  2
Standard
 70
     0
340
11
  0
ENDTAB
  0
TABLE
  2
BLOCK_RECORD
  5
1
330
0
100
AcDbSymbolTable
 70
     1
  0
BLOCK_RECORD
  5
1F
330
1
100
AcDbSymbolTableRecord
100
AcDbBlockTableRecord
  2
*Model_Space
340
22
 70
     0
280
     1
281
     0
  0
BLOCK_RECORD
  5
1B
330
1
100
AcDbSymbolTableRecord
100
AcDbBlockTableRecord
  2
*Paper_Space
340
1E
 70
     0
280
     1
281
     0
  0
BLOCK_RECORD
  5
23
330
1
100
AcDbSymbolTableRecord
100
AcDbBlockTableRecord
  2
*Paper_Space0
340
26
 70
     0
280
     1
281
     0
  0
ENDTAB
  0
ENDSEC
  0
SECTION
  2
BLOCKS
  0
BLOCK
  5
20
330
1F
100
AcDbEntity
  8
0
100
AcDbBlockBegin
  2
*Model_Space
 70
     0
 10
0.0
 20
0.0
 30
0.0
  3
*Model_Space
  1

  0
ENDBLK
  5
21
330
1F
100
AcDbEntity
  8
0
100
AcDbBlockEnd
  0
BLOCK
  5
1C
330
1B
100
AcDbEntity
 67
     1
  8
0
100
AcDbBlockBegin
  2
*Paper_Space
 70
     0
 10
0.0
 20
0.0
 30
0.0
  3
*Paper_Space
  1

  0
ENDBLK
  5
1D
330
1B
100
AcDbEntity
 67
     1
  8
0
100
AcDbBlockEnd
  0
BLOCK
  5
24
330
23
100
AcDbEntity
  8
0
100
AcDbBlockBegin
  2
*Paper_Space0
 70
     0
 10
0.0
 20
0.0
 30
0.0
  3
*Paper_Space0
  1

  0
ENDBLK
  5
25
330
23
100
AcDbEntity
  8
0
100
AcDbBlockEnd
  0
ENDSEC
  0
SECTION
  2
ENTITIES
  0
SPLINE
  5
5F
330
1F
100
AcDbEntity
  8
Layer 1
 62
     5
370
    53
100
AcDbSpline
210
0.0
220
0.0
230
1.0
 70
    11
 71
     3
 72
    36
 73
    32
 74
     0
 42
0.0000000001
 43
0.0000000001
 40
0.0
 40
0.0
 40
0.0
 40
0.0
 40
0.125
 40
0.125
 40
0.125
 40
0.125
 40
0.25
 40
0.25
 40
0.25
 40
0.25
 40
0.375
 40
0.375
 40
0.375
 40
0.375
 40
0.5
 40
0.5
 40
0.5
 40
0.5
 40
0.625
 40
0.625
 40
0.625
 40
0.625
 40
0.75
 40
0.75
 40
0.75
 40
0.75
 40
0.875
 40
0.875
 40
0.875
 40
0.875
 40
1.0
 40
1.0
 40
1.0
 40
1.0
 10
10.61884
 20
-16.71838
 30
0.0
 10
10.61884
 20
-16.71838
 30
0.0
 10
10.61884
 20
-16.54947
 30
0.0
 10
10.61884
 20
-16.54947
 30
0.0
 10
10.61884
 20
-16.54947
 30
0.0
 10
10.61884
 20
-16.54947
 30
0.0
 10
10.83431
 20
-16.54947
 30
0.0
 10
10.83431
 20
-16.54947
 30
0.0
 10
10.83431
 20
-16.54947
 30
0.0
 10
10.83431
 20
-16.54947
 30
0.0
 10
10.83431
 20
-16.71838
 30
0.0
 10
10.83431
 20
-16.71838
 30
0.0
 10
10.83431
 20
-16.71838
 30
0.0
 10
10.83431
 20
-16.71838
 30
0.0
 10
10.83431
 20
-16.41358
 30
0.0
 10
10.83431
 20
-16.41358
 30
0.0
 10
10.83431
 20
-16.41358
 30
0.0
 10
10.83431
 20
-16.41358
 30
0.0
 10
10.83431
 20
-16.54947
 30
0.0
 10
10.83431
 20
-16.54947
 30
0.0
 10
10.83431
 20
-16.54947
 30
0.0
 10
10.83431
 20
-16.54947
 30
0.0
 10
10.61884
 20
-16.54947
 30
0.0
 10
10.61884
 20
-16.54947
 30
0.0
 10
10.61884
 20
-16.54947
 30
0.0
 10
10.61884
 20
-16.54947
 30
0.0
 10
10.61884
 20
-16.41358
 30
0.0
 10
10.61884
 20
-16.41358
 30
0.0
 10
10.61884
 20
-16.41358
 30
0.0
 10
10.61884
 20
-16.41358
 30
0.0
 10
10.61884
 20
-16.71838
 30
0.0
 10
10.61884
 20
-16.71838
 30
0.0
  0
SPLINE
  5
60
330
1F
100
AcDbEntity
  8
Layer 1
 62
     5
370
    53
100
AcDbSpline
210
0.0
220
0.0
230
1.0
 70
    11
 71
     3
 72
    20
 73
    16
 74
     0
 42
0.0000000001
 43
0.0000000001
 40
0.0
 40
0.0
 40
0.0
 40
0.0
 40
0.25
 40
0.25
 40
0.25
 40
0.25
 40
0.5
 40
0.5
 40
0.5
 40
0.5
 40
0.75
 40
0.75
 40
0.75
 40
0.75
 40
1.0
 40
1.0
 40
1.0
 40
1.0
 10
11.21023
 20
-16.71838
 30
0.0
 10
11.21023
 20
-16.71838
 30
0.0
 10
11.03201
 20
-16.71838
 30
0.0
 10
11.03201
 20
-16.71838
 30
0.0
 10
11.03201
 20
-16.71838
 30
0.0
 10
11.03201
 20
-16.71838
 30
0.0
 10
11.03201
 20
-16.41316
 30
0.0
 10
11.03201
 20
-16.41316
 30
0.0
 10
11.03201
 20
-16.41316
 30
0.0
 10
11.03201
 20
-16.41316
 30
0.0
 10
11.03201
 20
-16.71838
 30
0.0
 10
11.03201
 20
-16.71838
 30
0.0
 10
11.03201
 20
-16.71838
 30
0.0
 10
11.03201
 20
-16.71838
 30
0.0
 10
11.21023
 20
-16.71838
 30
0.0
 10
11.21023
 20
-16.71838
 30
0.0
  0
SPLINE
  5
61
330
1F
100
AcDbEntity
  8
Layer 1
 62
     5
370
    53
100
AcDbSpline
210
0.0
220
0.0
230
1.0
 70
    27
 71
     3
 72
    12
 73
     8
 74
     0
 42
0.0000000001
 43
0.0000000001
 40
0.0
 40
0.0
 40
0.0
 40
0.0
 40
0.5
 40
0.5
 40
0.5
 40
0.5
 40
1.0
 40
1.0
 40
1.0
 40
1.0
 10
11.31225
 20
-16.55878
 30
0.0
 10
11.31225
 20
-16.55878
 30
0.0
 10
11.43544
 20
-16.55878
 30
0.0
 10
11.43544
 20
-16.55878
 30
0.0
 10
11.43544
 20
-16.55878
 30
0.0
 10
11.43544
 20
-16.55878
 30
0.0
 10
11.31225
 20
-16.55878
 30
0.0
 10
11.31225
 20
-16.55878
 30
0.0
  0
SPLINE
  5
62
330
1F
100
AcDbEntity
  8
Layer 1
 62
     5
370
    53
100
AcDbSpline
210
0.0
220
0.0
230
1.0
 70
    11
 71
     3
 72
    92
 73
    88
 74
     0
 42
0.0000000001
 43
0.0000000001
 40
0.0
 40
0.0
 40
0.0
 40
0.0
 40
0.0454545454545455
 40
0.0454545454545455
 40
0.0454545454545455
 40
0.0454545454545455
 40
0.0909090909090909
 40
0.0909090909090909
 40
0.0909090909090909
 40
0.0909090909090909
 40
0.1363636363636364
 40
0.1363636363636364
 40
0.1363636363636364
 40
0.1363636363636364
 40
0.1818181818181818
 40
0.1818181818181818
 40
0.1818181818181818
 40
0.1818181818181818
 40
0.2272727272727273
 40
0.2272727272727273
 40
0.2272727272727273
 40
0.2272727272727273
 40
0.2727272727272728
 40
0.2727272727272728
 40
0.2727272727272728
 40
0.2727272727272728
 40
0.3181818181818182
 40
0.3181818181818182
 40
0.3181818181818182
 40
0.3181818181818182
 40
0.3636363636363637
 40
0.3636363636363637
 40
0.3636363636363637
 40
0.3636363636363637
 40
0.4090909090909092
 40
0.4090909090909092
 40
0.4090909090909092
 40
0.4090909090909092
 40
0.4545454545454546
 40
0.4545454545454546
 40
0.4545454545454546
 40
0.4545454545454546
 40
0.5000000000000001
 40
0.5000000000000001
 40
0.5000000000000001
 40
0.5000000000000001
 40
0.5454545454545455
 40
0.5454545454545455
 40
0.5454545454545455
 40
0.5454545454545455
 40
0.5909090909090909
 40
0.5909090909090909
 40
0.5909090909090909
 40
0.5909090909090909
 40
0.6363636363636364
 40
0.6363636363636364
 40
0.6363636363636364
 40
0.6363636363636364
 40
0.6818181818181818
 40
0.6818181818181818
 40
0.6818181818181818
 40
0.6818181818181818
 40
0.7272727272727272
 40
0.7272727272727272
 40
0.7272727272727272
 40
0.7272727272727272
 40
0.7727272727272726
 40
0.7727272727272726
 40
0.7727272727272726
 40
0.7727272727272726
 40
0.818181818181818
 40
0.818181818181818
 40
0.818181818181818
 40
0.818181818181818
 40
0.8636363636363634
 40
0.8636363636363634
 40
0.8636363636363634
 40
0.8636363636363634
 40
0.9090909090909088
 40
0.9090909090909088
 40
0.9090909090909088
 40
0.9090909090909088
 40
0.9545454545454543
 40
0.9545454545454543
 40
0.9545454545454543
 40
0.9545454545454543
 40
1.0
 40
1.0
 40
1.0
 40
1.0
 10
11.5781
 20
-16.71838
 30
0.0
 10
11.5781
 20
-16.71838
 30
0.0
 10
11.5781
 20
-16.41316
 30
0.0
 10
11.5781
 20
-16.41316
 30
0.0
 10
11.5781
 20
-16.41316
 30
0.0
 10
11.5781
 20
-16.41316
 30
0.0
 10
11.67547
 20
-16.41316
 30
0.0
 10
11.67547
 20
-16.41316
 30
0.0
 10
11.67547
 20
-16.41316
 30
0.0
 10
11.69494
 20
-16.41323
 30
0.0
 10
11.71095
 20
-16.41542
 30
0.0
 10
11.72358
 20
-16.41965
 30
0.0
 10
11.72358
 20
-16.41965
 30
0.0
 10
11.73614
 20
-16.42381
 30
0.0
 10
11.74602
 20
-16.4296
 30
0.0
 10
11.75315
 20
-16.43694
 30
0.0
 10
11.75315
 20
-16.43694
 30
0.0
 10
11.76027
 20
-16.4442
 30
0.0
 10
11.76535
 20
-16.45253
 30
0.0
 10
11.76846
 20
-16.46191
 30
0.0
 10
11.76846
 20
-16.46191
 30
0.0
 10
11.77149
 20
-16.4713
 30
0.0
 10
11.77325
 20
-16.4811
 30
0.0
 10
11.77368
 20
-16.49148
 30
0.0
 10
11.77368
 20
-16.49148
 30
0.0
 10
11.77417
 20
-16.50185
 30
0.0
 10
11.77297
 20
-16.51201
 30
0.0
 10
11.77015
 20
-16.52188
 30
0.0
 10
11.77015
 20
-16.52188
 30
0.0
 10
11.76726
 20
-16.53176
 30
0.0
 10
11.76239
 20
-16.54072
 30
0.0
 10
11.7554
 20
-16.54877
 30
0.0
 10
11.7554
 20
-16.54877
 30
0.0
 10
11.74849
 20
-16.55681
 30
0.0
 10
11.73911
 20
-16.56323
 30
0.0
 10
11.72732
 20
-16.56796
 30
0.0
 10
11.72732
 20
-16.56796
 30
0.0
 10
11.71554
 20
-16.57275
 30
0.0
 10
11.70094
 20
-16.57515
 30
0.0
 10
11.68351
 20
-16.57529
 30
0.0
 10
11.68351
 20
-16.57529
 30
0.0
 10
11.68351
 20
-16.57529
 30
0.0
 10
11.5781
 20
-16.57529
 30
0.0
 10
11.5781
 20
-16.57529
 30
0.0
 10
11.5781
 20
-16.57529
 30
0.0
 10
11.5781
 20
-16.57529
 30
0.0
 10
11.68351
 20
-16.57529
 30
0.0
 10
11.68351
 20
-16.57529
 30
0.0
 10
11.68351
 20
-16.57529
 30
0.0
 10
11.70058
 20
-16.57515
 30
0.0
 10
11.71505
 20
-16.57275
 30
0.0
 10
11.72676
 20
-16.56796
 30
0.0
 10
11.72676
 20
-16.56796
 30
0.0
 10
11.73854
 20
-16.56323
 30
0.0
 10
11.74793
 20
-16.55681
 30
0.0
 10
11.75498
 20
-16.54877
 30
0.0
 10
11.75498
 20
-16.54877
 30
0.0
 10
11.76197
 20
-16.54072
 30
0.0
 10
11.76698
 20
-16.53176
 30
0.0
 10
11.76994
 20
-16.52188
 30
0.0
 10
11.76994
 20
-16.52188
 30
0.0
 10
11.7729
 20
-16.51201
 30
0.0
 10
11.77417
 20
-16.50185
 30
0.0
 10
11.77368
 20
-16.49148
 30
0.0
 10
11.77368
 20
-16.49148
 30
0.0
 10
11.77325
 20
-16.4811
 30
0.0
 10
11.77149
 20
-16.4713
 30
0.0
 10
11.76832
 20
-16.46191
 30
0.0
 10
11.76832
 20
-16.46191
 30
0.0
 10
11.76521
 20
-16.45253
 30
0.0
 10
11.75999
 20
-16.4442
 30
0.0
 10
11.75286
 20
-16.43694
 30
0.0
 10
11.75286
 20
-16.43694
 30
0.0
 10
11.74567
 20
-16.4296
 30
0.0
 10
11.73579
 20
-16.42381
 30
0.0
 10
11.72323
 20
-16.41965
 30
0.0
 10
11.72323
 20
-16.41965
 30
0.0
 10
11.7106
 20
-16.41542
 30
0.0
 10
11.69473
 20
-16.41323
 30
0.0
 10
11.67547
 20
-16.41316
 30
0.0
 10
11.67547
 20
-16.41316
 30
0.0
 10
11.67547
 20
-16.41316
 30
0.0
 10
11.5781
 20
-16.41316
 30
0.0
 10
11.5781
 20
-16.41316
 30
0.0
 10
11.5781
 20
-16.41316
 30
0.0
 10
11.5781
 20
-16.41316
 30
0.0
 10
11.5781
 20
-16.71838
 30
0.0
 10
11.5781
 20
-16.71838
 30
0.0
  0
SPLINE
  5
63
330
1F
100
AcDbEntity
  8
Layer 1
 62
     5
370
    53
100
AcDbSpline
210
0.0
220
0.0
230
1.0
 70
    11
 71
     3
 72
    84
 73
    80
 74
     0
 42
0.0000000001
 43
0.0000000001
 40
0.0
 40
0.0
 40
0.0
 40
0.0
 40
0.05
 40
0.05
 40
0.05
 40
0.05
 40
0.1
 40
0.1
 40
0.1
 40
0.1
 40
0.15
 40
0.15
 40
0.15
 40
0.15
 40
0.2
 40
0.2
 40
0.2
 40
0.2
 40
0.25
 40
0.25
 40
0.25
 40
0.25
 40
0.3
 40
0.3
 40
0.3
 40
0.3
 40
0.35
 40
0.35
 40
0.35
 40
0.35
 40
0.4
 40
0.4
 40
0.4
 40
0.4
 40
0.45
 40
0.45
 40
0.45
 40
0.45
 40
0.4999999999999999
 40
0.4999999999999999
 40
0.4999999999999999
 40
0.4999999999999999
 40
0.5499999999999999
 40
0.5499999999999999
 40
0.5499999999999999
 40
0.5499999999999999
 40
0.6
 40
0.6
 40
0.6
 40
0.6
 40
0.65
 40
0.65
 40
0.65
 40
0.65
 40
0.7000000000000001
 40
0.7000000000000001
 40
0.7000000000000001
 40
0.7000000000000001
 40
0.7500000000000001
 40
0.7500000000000001
 40
0.7500000000000001
 40
0.7500000000000001
 40
0.8000000000000002
 40
0.8000000000000002
 40
0.8000000000000002
 40
0.8000000000000002
 40
0.8500000000000002
 40
0.8500000000000002
 40
0.8500000000000002
 40
0.8500000000000002
 40
0.9000000000000002
 40
0.9000000000000002
 40
0.9000000000000002
 40
0.9000000000000002
 40
0.9500000000000003
 40
0.9500000000000003
 40
0.9500000000000003
 40
0.9500000000000003
 40
1.0
 40
1.0
 40
1.0
 40
1.0
 10
12.01328
 20
-16.72092
 30
0.0
 10
12.02817
 20
-16.72099
 30
0.0
 10
12.04228
 20
-16.71923
 30
0.0
 10
12.05575
 20
-16.71577
 30
0.0
 10
12.05575
 20
-16.71577
 30
0.0
 10
12.06916
 20
-16.71224
 30
0.0
 10
12.08143
 20
-16.70674
 30
0.0
 10
12.09265
 20
-16.69912
 30
0.0
 10
12.09265
 20
-16.69912
 30
0.0
 10
12.10387
 20
-16.69157
 30
0.0
 10
12.11361
 20
-16.68162
 30
0.0
 10
12.12186
 20
-16.66934
 30
0.0
 10
12.12186
 20
-16.66934
 30
0.0
 10
12.13012
 20
-16.65707
 30
0.0
 10
12.13647
 20
-16.64218
 30
0.0
 10
12.14098
 20
-16.62468
 30
0.0
 10
12.14098
 20
-16.62468
 30
0.0
 10
12.14557
 20
-16.60719
 30
0.0
 10
12.14783
 20
-16.58679
 30
0.0
 10
12.1479
 20
-16.56344
 30
0.0
 10
12.1479
 20
-16.56344
 30
0.0
 10
12.14783
 20
-16.54009
 30
0.0
 10
12.14557
 20
-16.5197
 30
0.0
 10
12.14098
 20
-16.50213
 30
0.0
 10
12.14098
 20
-16.50213
 30
0.0
 10
12.13647
 20
-16.48456
 30
0.0
 10
12.13012
 20
-16.4696
 30
0.0
 10
12.12186
 20
-16.45726
 30
0.0
 10
12.12186
 20
-16.45726
 30
0.0
 10
12.11361
 20
-16.44491
 30
0.0
 10
12.10387
 20
-16.43489
 30
0.0
 10
12.09265
 20
-16.4272
 30
0.0
 10
12.09265
 20
-16.4272
 30
0.0
 10
12.08143
 20
-16.41951
 30
0.0
 10
12.06916
 20
-16.41394
 30
0.0
 10
12.05575
 20
-16.41034
 30
0.0
 10
12.05575
 20
-16.41034
 30
0.0
 10
12.04228
 20
-16.40681
 30
0.0
 10
12.02817
 20
-16.40505
 30
0.0
 10
12.01328
 20
-16.40512
 30
0.0
 10
12.01328
 20
-16.40512
 30
0.0
 10
11.99839
 20
-16.40505
 30
0.0
 10
11.98428
 20
-16.40681
 30
0.0
 10
11.9708
 20
-16.41034
 30
0.0
 10
11.9708
 20
-16.41034
 30
0.0
 10
11.9574
 20
-16.41394
 30
0.0
 10
11.94512
 20
-16.41951
 30
0.0
 10
11.9339
 20
-16.4272
 30
0.0
 10
11.9339
 20
-16.4272
 30
0.0
 10
11.92269
 20
-16.43489
 30
0.0
 10
11.91295
 20
-16.44491
 30
0.0
 10
11.90469
 20
-16.45726
 30
0.0
 10
11.90469
 20
-16.45726
 30
0.0
 10
11.89644
 20
-16.4696
 30
0.0
 10
11.89009
 20
-16.48456
 30
0.0
 10
11.88557
 20
-16.50213
 30
0.0
 10
11.88557
 20
-16.50213
 30
0.0
 10
11.88099
 20
-16.5197
 30
0.0
 10
11.87873
 20
-16.54009
 30
0.0
 10
11.87866
 20
-16.56344
 30
0.0
 10
11.87866
 20
-16.56344
 30
0.0
 10
11.87873
 20
-16.58679
 30
0.0
 10
11.88099
 20
-16.60719
 30
0.0
 10
11.88557
 20
-16.62468
 30
0.0
 10
11.88557
 20
-16.62468
 30
0.0
 10
11.89009
 20
-16.64218
 30
0.0
 10
11.89644
 20
-16.65707
 30
0.0
 10
11.90469
 20
-16.66934
 30
0.0
 10
11.90469
 20
-16.66934
 30
0.0
 10
11.91295
 20
-16.68162
 30
0.0
 10
11.92269
 20
-16.69157
 30
0.0
 10
11.9339
 20
-16.69912
 30
0.0
 10
11.9339
 20
-16.69912
 30
0.0
 10
11.94512
 20
-16.70674
 30
0.0
 10
11.9574
 20
-16.71224
 30
0.0
 10
11.9708
 20
-16.71577
 30
0.0
 10
11.9708
 20
-16.71577
 30
0.0
 10
11.98428
 20
-16.71923
 30
0.0
 10
11.99839
 20
-16.72099
 30
0.0
 10
12.01328
 20
-16.72092
 30
0.0
  0
SPLINE
  5
64
330
1F
100
AcDbEntity
  8
Layer 1
 62
     5
370
    53
100
AcDbSpline
210
0.0
220
0.0
230
1.0
 70
    11
 71
     3
 72
    84
 73
    80
 74
     0
 42
0.0000000001
 43
0.0000000001
 40
0.0
 40
0.0
 40
0.0
 40
0.0
 40
0.05
 40
0.05
 40
0.05
 40
0.05
 40
0.1
 40
0.1
 40
0.1
 40
0.1
 40
0.15
 40
0.15
 40
0.15
 40
0.15
 40
0.2
 40
0.2
 40
0.2
 40
0.2
 40
0.25
 40
0.25
 40
0.25
 40
0.25
 40
0.3
 40
0.3
 40
0.3
 40
0.3
 40
0.35
 40
0.35
 40
0.35
 40
0.35
 40
0.4
 40
0.4
 40
0.4
 40
0.4
 40
0.45
 40
0.45
 40
0.45
 40
0.45
 40
0.4999999999999999
 40
0.4999999999999999
 40
0.4999999999999999
 40
0.4999999999999999
 40
0.5499999999999999
 40
0.5499999999999999
 40
0.5499999999999999
 40
0.5499999999999999
 40
0.6
 40
0.6
 40
0.6
 40
0.6
 40
0.65
 40
0.65
 40
0.65
 40
0.65
 40
0.7000000000000001
 40
0.7000000000000001
 40
0.7000000000000001
 40
0.7000000000000001
 40
0.7500000000000001
 40
0.7500000000000001
 40
0.7500000000000001
 40
0.7500000000000001
 40
0.8000000000000002
 40
0.8000000000000002
 40
0.8000000000000002
 40
0.8000000000000002
 40
0.8500000000000002
 40
0.8500000000000002
 40
0.8500000000000002
 40
0.8500000000000002
 40
0.9000000000000002
 40
0.9000000000000002
 40
0.9000000000000002
 40
0.9000000000000002
 40
0.9500000000000003
 40
0.9500000000000003
 40
0.9500000000000003
 40
0.9500000000000003
 40
1.0
 40
1.0
 40
1.0
 40
1.0
 10
12.01328
 20
-16.72092
 30
0.0
 10
12.02817
 20
-16.72099
 30
0.0
 10
12.04228
 20
-16.71923
 30
0.0
 10
12.05575
 20
-16.71577
 30
0.0
 10
12.05575
 20
-16.71577
 30
0.0
 10
12.06916
 20
-16.71224
 30
0.0
 10
12.08143
 20
-16.70674
 30
0.0
 10
12.09265
 20
-16.69912
 30
0.0
 10
12.09265
 20
-16.69912
 30
0.0
 10
12.10387
 20
-16.69157
 30
0.0
 10
12.11361
 20
-16.68162
 30
0.0
 10
12.12186
 20
-16.66934
 30
0.0
 10
12.12186
 20
-16.66934
 30
0.0
 10
12.13012
 20
-16.65707
 30
0.0
 10
12.13647
 20
-16.64218
 30
0.0
 10
12.14098
 20
-16.62468
 30
0.0
 10
12.14098
 20
-16.62468
 30
0.0
 10
12.14557
 20
-16.60719
 30
0.0
 10
12.14783
 20
-16.58679
 30
0.0
 10
12.1479
 20
-16.56344
 30
0.0
 10
12.1479
 20
-16.56344
 30
0.0
 10
12.14783
 20
-16.54009
 30
0.0
 10
12.14557
 20
-16.5197
 30
0.0
 10
12.14098
 20
-16.50213
 30
0.0
 10
12.14098
 20
-16.50213
 30
0.0
 10
12.13647
 20
-16.48456
 30
0.0
 10
12.13012
 20
-16.4696
 30
0.0
 10
12.12186
 20
-16.45726
 30
0.0
 10
12.12186
 20
-16.45726
 30
0.0
 10
12.11361
 20
-16.44491
 30
0.0
 10
12.10387
 20
-16.43489
 30
0.0
 10
12.09265
 20
-16.4272
 30
0.0
 10
12.09265
 20
-16.4272
 30
0.0
 10
12.08143
 20
-16.41951
 30
0.0
 10
12.06916
 20
-16.41394
 30
0.0
 10
12.05575
 20
-16.41034
 30
0.0
 10
12.05575
 20
-16.41034
 30
0.0
 10
12.04228
 20
-16.40681
 30
0.0
 10
12.02817
 20
-16.40505
 30
0.0
 10
12.01328
 20
-16.40512
 30
0.0
 10
12.01328
 20
-16.40512
 30
0.0
 10
11.99839
 20
-16.40505
 30
0.0
 10
11.98428
 20
-16.40681
 30
0.0
 10
11.9708
 20
-16.41034
 30
0.0
 10
11.9708
 20
-16.41034
 30
0.0
 10
11.9574
 20
-16.41394
 30
0.0
 10
11.94512
 20
-16.41951
 30
0.0
 10
11.9339
 20
-16.4272
 30
0.0
 10
11.9339
 20
-16.4272
 30
0.0
 10
11.92269
 20
-16.43489
 30
0.0
 10
11.91295
 20
-16.44491
 30
0.0
 10
11.90469
 20
-16.45726
 30
0.0
 10
11.90469
 20
-16.45726
 30
0.0
 10
11.89644
 20
-16.4696
 30
0.0
 10
11.89009
 20
-16.48456
 30
0.0
 10
11.88557
 20
-16.50213
 30
0.0
 10
11.88557
 20
-16.50213
 30
0.0
 10
11.88099
 20
-16.5197
 30
0.0
 10
11.87873
 20
-16.54009
 30
0.0
 10
11.87866
 20
-16.56344
 30
0.0
 10
11.87866
 20
-16.56344
 30
0.0
 10
11.87873
 20
-16.58679
 30
0.0
 10
11.88099
 20
-16.60719
 30
0.0
 10
11.88557
 20
-16.62468
 30
0.0
 10
11.88557
 20
-16.62468
 30
0.0
 10
11.89009
 20
-16.64218
 30
0.0
 10
11.89644
 20
-16.65707
 30
0.0
 10
11.90469
 20
-16.66934
 30
0.0
 10
11.90469
 20
-16.66934
 30
0.0
 10
11.91295
 20
-16.68162
 30
0.0
 10
11.92269
 20
-16.69157
 30
0.0
 10
11.9339
 20
-16.69912
 30
0.0
 10
11.9339
 20
-16.69912
 30
0.0
 10
11.94512
 20
-16.70674
 30
0.0
 10
11.9574
 20
-16.71224
 30
0.0
 10
11.9708
 20
-16.71577
 30
0.0
 10
11.9708
 20
-16.71577
 30
0.0
 10
11.98428
 20
-16.71923
 30
0.0
 10
11.99839
 20
-16.72099
 30
0.0
 10
12.01328
 20
-16.72092
 30
0.0
  0
SPLINE
  5
65
330
1F
100
AcDbEntity
  8
Layer 1
 62
     5
370
    53
100
AcDbSpline
210
0.0
220
0.0
230
1.0
 70
    11
 71
     3
 72
    24
 73
    20
 74
     0
 42
0.0000000001
 43
0.0000000001
 40
0.0
 40
0.0
 40
0.0
 40
0.0
 40
0.2
 40
0.2
 40
0.2
 40
0.2
 40
0.4
 40
0.4
 40
0.4
 40
0.4
 40
0.6000000000000001
 40
0.6000000000000001
 40
0.6000000000000001
 40
0.6000000000000001
 40
0.8
 40
0.8
 40
0.8
 40
0.8
 40
1.0
 40
1.0
 40
1.0
 40
1.0
 10
12.3621
 20
-16.71838
 30
0.0
 10
12.3621
 20
-16.71838
 30
0.0
 10
12.3621
 20
-16.41316
 30
0.0
 10
12.3621
 20
-16.41316
 30
0.0
 10
12.3621
 20
-16.41316
 30
0.0
 10
12.3621
 20
-16.41316
 30
0.0
 10
12.25246
 20
-16.41316
 30
0.0
 10
12.25246
 20
-16.41316
 30
0.0
 10
12.25246
 20
-16.41316
 30
0.0
 10
12.25246
 20
-16.41316
 30
0.0
 10
12.47259
 20
-16.41316
 30
0.0
 10
12.47259
 20
-16.41316
 30
0.0
 10
12.47259
 20
-16.41316
 30
0.0
 10
12.47259
 20
-16.41316
 30
0.0
 10
12.3621
 20
-16.41316
 30
0.0
 10
12.3621
 20
-16.41316
 30
0.0
 10
12.3621
 20
-16.41316
 30
0.0
 10
12.3621
 20
-16.41316
 30
0.0
 10
12.3621
 20
-16.71838
 30
0.0
 10
12.3621
 20
-16.71838
 30
0.0
  0
SPLINE
  5
66
330
1F
100
AcDbEntity
  8
Layer 1
 62
     5
370
    53
100
AcDbSpline
210
0.0
220
0.0
230
1.0
 70
    11
 71
     3
 72
    84
 73
    80
 74
     0
 42
0.0000000001
 43
0.0000000001
 40
0.0
 40
0.0
 40
0.0
 40
0.0
 40
0.05
 40
0.05
 40
0.05
 40
0.05
 40
0.1
 40
0.1
 40
0.1
 40
0.1
 40
0.15
 40
0.15
 40
0.15
 40
0.15
 40
0.2
 40
0.2
 40
0.2
 40
0.2
 40
0.25
 40
0.25
 40
0.25
 40
0.25
 40
0.3
 40
0.3
 40
0.3
 40
0.3
 40
0.35
 40
0.35
 40
0.35
 40
0.35
 40
0.4
 40
0.4
 40
0.4
 40
0.4
 40
0.45
 40
0.45
 40
0.45
 40
0.45
 40
0.4999999999999999
 40
0.4999999999999999
 40
0.4999999999999999
 40
0.4999999999999999
 40
0.5499999999999999
 40
0.5499999999999999
 40
0.5499999999999999
 40
0.5499999999999999
 40
0.6
 40
0.6
 40
0.6
 40
0.6
 40
0.65
 40
0.65
 40
0.65
 40
0.65
 40
0.7000000000000001
 40
0.7000000000000001
 40
0.7000000000000001
 40
0.7000000000000001
 40
0.7500000000000001
 40
0.7500000000000001
 40
0.7500000000000001
 40
0.7500000000000001
 40
0.8000000000000002
 40
0.8000000000000002
 40
0.8000000000000002
 40
0.8000000000000002
 40
0.8500000000000002
 40
0.8500000000000002
 40
0.8500000000000002
 40
0.8500000000000002
 40
0.9000000000000002
 40
0.9000000000000002
 40
0.9000000000000002
 40
0.9000000000000002
 40
0.9500000000000003
 40
0.9500000000000003
 40
0.9500000000000003
 40
0.9500000000000003
 40
1.0
 40
1.0
 40
1.0
 40
1.0
 10
10.99264
 20
-17.29369
 30
0.0
 10
11.00745
 20
-17.29362
 30
0.0
 10
11.02022
 20
-17.29101
 30
0.0
 10
11.03088
 20
-17.28593
 30
0.0
 10
11.03088
 20
-17.28593
 30
0.0
 10
11.04146
 20
-17.28085
 30
0.0
 10
11.05028
 20
-17.27358
 30
0.0
 10
11.05733
 20
-17.26434
 30
0.0
 10
11.05733
 20
-17.26434
 30
0.0
 10
11.06432
 20
-17.25503
 30
0.0
 10
11.06982
 20
-17.24402
 30
0.0
 10
11.07391
 20
-17.23132
 30
0.0
 10
11.07391
 20
-17.23132
 30
0.0
 10
11.07794
 20
-17.21862
 30
0.0
 10
11.08083
 20
-17.20472
 30
0.0
 10
11.08245
 20
-17.18948
 30
0.0
 10
11.08245
 20
-17.18948
 30
0.0
 10
11.08415
 20
-17.17424
 30
0.0
 10
11.08499
 20
-17.15822
 30
0.0
 10
11.08492
 20
-17.14129
 30
0.0
 10
11.08492
 20
-17.14129
 30
0.0
 10
11.08499
 20
-17.12443
 30
0.0
 10
11.08415
 20
-17.10841
 30
0.0
 10
11.08245
 20
-17.09324
 30
0.0
 10
11.08245
 20
-17.09324
 30
0.0
 10
11.08083
 20
-17.07807
 30
0.0
 10
11.07794
 20
-17.0641
 30
0.0
 10
11.07391
 20
-17.0514
 30
0.0
 10
11.07391
 20
-17.0514
 30
0.0
 10
11.06982
 20
-17.03877
 30
0.0
 10
11.06432
 20
-17.02777
 30
0.0
 10
11.05733
 20
-17.01838
 30
0.0
 10
11.05733
 20
-17.01838
 30
0.0
 10
11.05028
 20
-17.00907
 30
0.0
 10
11.04146
 20
-17.0018
 30
0.0
 10
11.03088
 20
-16.99672
 30
0.0
 10
11.03088
 20
-16.99672
 30
0.0
 10
11.02022
 20
-16.99157
 30
0.0
 10
11.00745
 20
-16.98896
 30
0.0
 10
10.99264
 20
-16.98889
 30
0.0
 10
10.99264
 20
-16.98889
 30
0.0
 10
10.97782
 20
-16.98896
 30
0.0
 10
10.96505
 20
-16.99157
 30
0.0
 10
10.95439
 20
-16.99672
 30
0.0
 10
10.95439
 20
-16.99672
 30
0.0
 10
10.94381
 20
-17.0018
 30
0.0
 10
10.93499
 20
-17.00907
 30
0.0
 10
10.92794
 20
-17.01838
 30
0.0
 10
10.92794
 20
-17.01838
 30
0.0
 10
10.92095
 20
-17.02777
 30
0.0
 10
10.91545
 20
-17.03877
 30
0.0
 10
10.91136
 20
-17.0514
 30
0.0
 10
10.91136
 20
-17.0514
 30
0.0
 10
10.90733
 20
-17.0641
 30
0.0
 10
10.90444
 20
-17.07807
 30
0.0
 10
10.90282
 20
-17.09324
 30
0.0
 10
10.90282
 20
-17.09324
 30
0.0
 10
10.90113
 20
-17.10841
 30
0.0
 10
10.90028
 20
-17.12443
 30
0.0
 10
10.90035
 20
-17.14129
 30
0.0
 10
10.90035
 20
-17.14129
 30
0.0
 10
10.90028
 20
-17.15822
 30
0.0
 10
10.90113
 20
-17.17424
 30
0.0
 10
10.90282
 20
-17.18948
 30
0.0
 10
10.90282
 20
-17.18948
 30
0.0
 10
10.90444
 20
-17.20472
 30
0.0
 10
10.90733
 20
-17.21862
 30
0.0
 10
10.91136
 20
-17.23132
 30
0.0
 10
10.91136
 20
-17.23132
 30
0.0
 10
10.91545
 20
-17.24402
 30
0.0
 10
10.92095
 20
-17.25503
 30
0.0
 10
10.92794
 20
-17.26434
 30
0.0
 10
10.92794
 20
-17.26434
 30
0.0
 10
10.93499
 20
-17.27358
 30
0.0
 10
10.94381
 20
-17.28085
 30
0.0
 10
10.95439
 20
-17.28593
 30
0.0
 10
10.95439
 20
-17.28593
 30
0.0
 10
10.96505
 20
-17.29101
 30
0.0
 10
10.97782
 20
-17.29362
 30
0.0
 10
10.99264
 20
-17.29369
 30
0.0
  0
SPLINE
  5
67
330
1F
100
AcDbEntity
  8
Layer 1
 62
     5
370
    53
100
AcDbSpline
210
0.0
220
0.0
230
1.0
 70
    11
 71
     3
 72
    84
 73
    80
 74
     0
 42
0.0000000001
 43
0.0000000001
 40
0.0
 40
0.0
 40
0.0
 40
0.0
 40
0.05
 40
0.05
 40
0.05
 40
0.05
 40
0.1
 40
0.1
 40
0.1
 40
0.1
 40
0.15
 40
0.15
 40
0.15
 40
0.15
 40
0.2
 40
0.2
 40
0.2
 40
0.2
 40
0.25
 40
0.25
 40
0.25
 40
0.25
 40
0.3
 40
0.3
 40
0.3
 40
0.3
 40
0.35
 40
0.35
 40
0.35
 40
0.35
 40
0.4
 40
0.4
 40
0.4
 40
0.4
 40
0.45
 40
0.45
 40
0.45
 40
0.45
 40
0.4999999999999999
 40
0.4999999999999999
 40
0.4999999999999999
 40
0.4999999999999999
 40
0.5499999999999999
 40
0.5499999999999999
 40
0.5499999999999999
 40
0.5499999999999999
 40
0.6
 40
0.6
 40
0.6
 40
0.6
 40
0.65
 40
0.65
 40
0.65
 40
0.65
 40
0.7000000000000001
 40
0.7000000000000001
 40
0.7000000000000001
 40
0.7000000000000001
 40
0.7500000000000001
 40
0.7500000000000001
 40
0.7500000000000001
 40
0.7500000000000001
 40
0.8000000000000002
 40
0.8000000000000002
 40
0.8000000000000002
 40
0.8000000000000002
 40
0.8500000000000002
 40
0.8500000000000002
 40
0.8500000000000002
 40
0.8500000000000002
 40
0.9000000000000002
 40
0.9000000000000002
 40
0.9000000000000002
 40
0.9000000000000002
 40
0.9500000000000003
 40
0.9500000000000003
 40
0.9500000000000003
 40
0.9500000000000003
 40
1.0
 40
1.0
 40
1.0
 40
1.0
 10
10.99264
 20
-17.29369
 30
0.0
 10
11.00745
 20
-17.29362
 30
0.0
 10
11.02022
 20
-17.29101
 30
0.0
 10
11.03088
 20
-17.28593
 30
0.0
 10
11.03088
 20
-17.28593
 30
0.0
 10
11.04146
 20
-17.28085
 30
0.0
 10
11.05028
 20
-17.27358
 30
0.0
 10
11.05733
 20
-17.26434
 30
0.0
 10
11.05733
 20
-17.26434
 30
0.0
 10
11.06432
 20
-17.25503
 30
0.0
 10
11.06982
 20
-17.24402
 30
0.0
 10
11.07391
 20
-17.23132
 30
0.0
 10
11.07391
 20
-17.23132
 30
0.0
 10
11.07794
 20
-17.21862
 30
0.0
 10
11.08083
 20
-17.20472
 30
0.0
 10
11.08245
 20
-17.18948
 30
0.0
 10
11.08245
 20
-17.18948
 30
0.0
 10
11.08415
 20
-17.17424
 30
0.0
 10
11.08499
 20
-17.15822
 30
0.0
 10
11.08492
 20
-17.14129
 30
0.0
 10
11.08492
 20
-17.14129
 30
0.0
 10
11.08499
 20
-17.12443
 30
0.0
 10
11.08415
 20
-17.10841
 30
0.0
 10
11.08245
 20
-17.09324
 30
0.0
 10
11.08245
 20
-17.09324
 30
0.0
 10
11.08083
 20
-17.07807
 30
0.0
 10
11.07794
 20
-17.0641
 30
0.0
 10
11.07391
 20
-17.0514
 30
0.0
 10
11.07391
 20
-17.0514
 30
0.0
 10
11.06982
 20
-17.03877
 30
0.0
 10
11.06432
 20
-17.02777
 30
0.0
 10
11.05733
 20
-17.01838
 30
0.0
 10
11.05733
 20
-17.01838
 30
0.0
 10
11.05028
 20
-17.00907
 30
0.0
 10
11.04146
 20
-17.0018
 30
0.0
 10
11.03088
 20
-16.99672
 30
0.0
 10
11.03088
 20
-16.99672
 30
0.0
 10
11.02022
 20
-16.99157
 30
0.0
 10
11.00745
 20
-16.98896
 30
0.0
 10
10.99264
 20
-16.98889
 30
0.0
 10
10.99264
 20
-16.98889
 30
0.0
 10
10.97782
 20
-16.98896
 30
0.0
 10
10.96505
 20
-16.99157
 30
0.0
 10
10.95439
 20
-16.99672
 30
0.0
 10
10.95439
 20
-16.99672
 30
0.0
 10
10.94381
 20
-17.0018
 30
0.0
 10
10.93499
 20
-17.00907
 30
0.0
 10
10.92794
 20
-17.01838
 30
0.0
 10
10.92794
 20
-17.01838
 30
0.0
 10
10.92095
 20
-17.02777
 30
0.0
 10
10.91545
 20
-17.03877
 30
0.0
 10
10.91136
 20
-17.0514
 30
0.0
 10
10.91136
 20
-17.0514
 30
0.0
 10
10.90733
 20
-17.0641
 30
0.0
 10
10.90444
 20
-17.07807
 30
0.0
 10
10.90282
 20
-17.09324
 30
0.0
 10
10.90282
 20
-17.09324
 30
0.0
 10
10.90113
 20
-17.10841
 30
0.0
 10
10.90028
 20
-17.12443
 30
0.0
 10
10.90035
 20
-17.14129
 30
0.0
 10
10.90035
 20
-17.14129
 30
0.0
 10
10.90028
 20
-17.15822
 30
0.0
 10
10.90113
 20
-17.17424
 30
0.0
 10
10.90282
 20
-17.18948
 30
0.0
 10
10.90282
 20
-17.18948
 30
0.0
 10
10.90444
 20
-17.20472
 30
0.0
 10
10.90733
 20
-17.21862
 30
0.0
 10
10.91136
 20
-17.23132
 30
0.0
 10
10.91136
 20
-17.23132
 30
0.0
 10
10.91545
 20
-17.24402
 30
0.0
 10
10.92095
 20
-17.25503
 30
0.0
 10
10.92794
 20
-17.26434
 30
0.0
 10
10.92794
 20
-17.26434
 30
0.0
 10
10.93499
 20
-17.27358
 30
0.0
 10
10.94381
 20
-17.28085
 30
0.0
 10
10.95439
 20
-17.28593
 30
0.0
 10
10.95439
 20
-17.28593
 30
0.0
 10
10.96505
 20
-17.29101
 30
0.0
 10
10.97782
 20
-17.29362
 30
0.0
 10
10.99264
 20
-17.29369
 30
0.0
  0
SPLINE
  5
68
330
1F
100
AcDbEntity
  8
Layer 1
 62
     5
370
    53
100
AcDbSpline
210
0.0
220
0.0
230
1.0
 70
    11
 71
     3
 72
   180
 73
   176
 74
     0
 42
0.0000000001
 43
0.0000000001
 40
0.0
 40
0.0
 40
0.0
 40
0.0
 40
0.0227272727272727
 40
0.0227272727272727
 40
0.0227272727272727
 40
0.0227272727272727
 40
0.0454545454545455
 40
0.0454545454545455
 40
0.0454545454545455
 40
0.0454545454545455
 40
0.0681818181818182
 40
0.0681818181818182
 40
0.0681818181818182
 40
0.0681818181818182
 40
0.0909090909090909
 40
0.0909090909090909
 40
0.0909090909090909
 40
0.0909090909090909
 40
0.1136363636363636
 40
0.1136363636363636
 40
0.1136363636363636
 40
0.1136363636363636
 40
0.1363636363636364
 40
0.1363636363636364
 40
0.1363636363636364
 40
0.1363636363636364
 40
0.1590909090909091
 40
0.1590909090909091
 40
0.1590909090909091
 40
0.1590909090909091
 40
0.1818181818181819
 40
0.1818181818181819
 40
0.1818181818181819
 40
0.1818181818181819
 40
0.2045454545454546
 40
0.2045454545454546
 40
0.2045454545454546
 40
0.2045454545454546
 40
0.2272727272727273
 40
0.2272727272727273
 40
0.2272727272727273
 40
0.2272727272727273
 40
0.2500000000000001
 40
0.2500000000000001
 40
0.2500000000000001
 40
0.2500000000000001
 40
0.2727272727272728
 40
0.2727272727272728
 40
0.2727272727272728
 40
0.2727272727272728
 40
0.2954545454545455
 40
0.2954545454545455
 40
0.2954545454545455
 40
0.2954545454545455
 40
0.3181818181818182
 40
0.3181818181818182
 40
0.3181818181818182
 40
0.3181818181818182
 40
0.3409090909090909
 40
0.3409090909090909
 40
0.3409090909090909
 40
0.3409090909090909
 40
0.3636363636363636
 40
0.3636363636363636
 40
0.3636363636363636
 40
0.3636363636363636
 40
0.3863636363636363
 40
0.3863636363636363
 40
0.3863636363636363
 40
0.3863636363636363
 40
0.409090909090909
 40
0.409090909090909
 40
0.409090909090909
 40
0.409090909090909
 40
0.4318181818181817
 40
0.4318181818181817
 40
0.4318181818181817
 40
0.4318181818181817
 40
0.4545454545454544
 40
0.4545454545454544
 40
0.4545454545454544
 40
0.4545454545454544
 40
0.4772727272727271
 40
0.4772727272727271
 40
0.4772727272727271
 40
0.4772727272727271
 40
0.4999999999999998
 40
0.4999999999999998
 40
0.4999999999999998
 40
0.4999999999999998
 40
0.5227272727272726
 40
0.5227272727272726
 40
0.5227272727272726
 40
0.5227272727272726
 40
0.5454545454545453
 40
0.5454545454545453
 40
0.5454545454545453
 40
0.5454545454545453
 40
0.568181818181818
 40
0.568181818181818
 40
0.568181818181818
 40
0.568181818181818
 40
0.5909090909090907
 40
0.5909090909090907
 40
0.5909090909090907
 40
0.5909090909090907
 40
0.6136363636363634
 40
0.6136363636363634
 40
0.6136363636363634
 40
0.6136363636363634
 40
0.6363636363636361
 40
0.6363636363636361
 40
0.6363636363636361
 40
0.6363636363636361
 40
0.6590909090909088
 40
0.6590909090909088
 40
0.6590909090909088
 40
0.6590909090909088
 40
0.6818181818181815
 40
0.6818181818181815
 40
0.6818181818181815
 40
0.6818181818181815
 40
0.7045454545454543
 40
0.7045454545454543
 40
0.7045454545454543
 40
0.7045454545454543
 40
0.727272727272727
 40
0.727272727272727
 40
0.727272727272727
 40
0.727272727272727
 40
0.7499999999999997
 40
0.7499999999999997
 40
0.7499999999999997
 40
0.7499999999999997
 40
0.7727272727272724
 40
0.7727272727272724
 40
0.7727272727272724
 40
0.7727272727272724
 40
0.7954545454545451
 40
0.7954545454545451
 40
0.7954545454545451
 40
0.7954545454545451
 40
0.8181818181818178
 40
0.8181818181818178
 40
0.8181818181818178
 40
0.8181818181818178
 40
0.8409090909090905
 40
0.8409090909090905
 40
0.8409090909090905
 40
0.8409090909090905
 40
0.8636363636363632
 40
0.8636363636363632
 40
0.8636363636363632
 40
0.8636363636363632
 40
0.8863636363636359
 40
0.8863636363636359
 40
0.8863636363636359
 40
0.8863636363636359
 40
0.9090909090909086
 40
0.9090909090909086
 40
0.9090909090909086
 40
0.9090909090909086
 40
0.9318181818181813
 40
0.9318181818181813
 40
0.9318181818181813
 40
0.9318181818181813
 40
0.954545454545454
 40
0.954545454545454
 40
0.954545454545454
 40
0.954545454545454
 40
0.9772727272727267
 40
0.9772727272727267
 40
0.9772727272727267
 40
0.9772727272727267
 40
1.0
 40
1.0
 40
1.0
 40
1.0
 10
11.18525
 20
-17.21707
 30
0.0
 10
11.18532
 20
-17.23231
 30
0.0
 10
11.18885
 20
-17.24557
 30
0.0
 10
11.19583
 20
-17.25707
 30
0.0
 10
11.19583
 20
-17.25707
 30
0.0
 10
11.20282
 20
-17.2685
 30
0.0
 10
11.21277
 20
-17.27746
 30
0.0
 10
11.22575
 20
-17.28388
 30
0.0
 10
11.22575
 20
-17.28388
 30
0.0
 10
11.23873
 20
-17.2903
 30
0.0
 10
11.25432
 20
-17.29355
 30
0.0
 10
11.27246
 20
-17.29369
 30
0.0
 10
11.27246
 20
-17.29369
 30
0.0
 10
11.28607
 20
-17.29369
 30
0.0
 10
11.29842
 20
-17.29228
 30
0.0
 10
11.30964
 20
-17.28932
 30
0.0
 10
11.30964
 20
-17.28932
 30
0.0
 10
11.32079
 20
-17.28635
 30
0.0
 10
11.33038
 20
-17.28177
 30
0.0
 10
11.3385
 20
-17.27549
 30
0.0
 10
11.3385
 20
-17.27549
 30
0.0
 10
11.34661
 20
-17.26921
 30
0.0
 10
11.35282
 20
-17.26109
 30
0.0
 10
11.35726
 20
-17.25122
 30
0.0
 10
11.35726
 20
-17.25122
 30
0.0
 10
11.36164
 20
-17.24127
 30
0.0
 10
11.36382
 20
-17.22934
 30
0.0
 10
11.36389
 20
-17.21537
 30
0.0
 10
11.36389
 20
-17.21537
 30
0.0
 10
11.36397
 20
-17.19675
 30
0.0
 10
11.36016
 20
-17.18101
 30
0.0
 10
11.35261
 20
-17.16824
 30
0.0
 10
11.35261
 20
-17.16824
 30
0.0
 10
11.34506
 20
-17.15547
 30
0.0
 10
11.33334
 20
-17.14588
 30
0.0
 10
11.31761
 20
-17.13932
 30
0.0
 10
11.31761
 20
-17.13932
 30
0.0
 10
11.30188
 20
-17.13275
 30
0.0
 10
11.2817
 20
-17.12944
 30
0.0
 10
11.25722
 20
-17.12944
 30
0.0
 10
11.25722
 20
-17.12944
 30
0.0
 10
11.27549
 20
-17.12951
 30
0.0
 10
11.2908
 20
-17.12782
 30
0.0
 10
11.30329
 20
-17.12436
 30
0.0
 10
11.30329
 20
-17.12436
 30
0.0
 10
11.31571
 20
-17.1209
 30
0.0
 10
11.32565
 20
-17.11603
 30
0.0
 10
11.33313
 20
-17.10968
 30
0.0
 10
11.33313
 20
-17.10968
 30
0.0
 10
11.34061
 20
-17.1034
 30
0.0
 10
11.34604
 20
-17.09592
 30
0.0
 10
11.34929
 20
-17.08732
 30
0.0
 10
11.34929
 20
-17.08732
 30
0.0
 10
11.35261
 20
-17.07878
 30
0.0
 10
11.35423
 20
-17.0694
 30
0.0
 10
11.35416
 20
-17.05917
 30
0.0
 10
11.35416
 20
-17.05917
 30
0.0
 10
11.35423
 20
-17.04893
 30
0.0
 10
11.35282
 20
-17.03948
 30
0.0
 10
11.35
 20
-17.03073
 30
0.0
 10
11.35
 20
-17.03073
 30
0.0
 10
11.34724
 20
-17.02198
 30
0.0
 10
11.34273
 20
-17.01429
 30
0.0
 10
11.33659
 20
-17.00773
 30
0.0
 10
11.33659
 20
-17.00773
 30
0.0
 10
11.33045
 20
-17.00117
 30
0.0
 10
11.32234
 20
-16.99602
 30
0.0
 10
11.31239
 20
-16.99235
 30
0.0
 10
11.31239
 20
-16.99235
 30
0.0
 10
11.30237
 20
-16.98868
 30
0.0
 10
11.29016
 20
-16.98685
 30
0.0
 10
11.27584
 20
-16.98678
 30
0.0
 10
11.27584
 20
-16.98678
 30
0.0
 10
11.26159
 20
-16.98685
 30
0.0
 10
11.2491
 20
-16.98896
 30
0.0
 10
11.23852
 20
-16.99306
 30
0.0
 10
11.23852
 20
-16.99306
 30
0.0
 10
11.22786
 20
-16.99715
 30
0.0
 10
11.21912
 20
-17.00272
 30
0.0
 10
11.21206
 20
-17.00985
 30
0.0
 10
11.21206
 20
-17.00985
 30
0.0
 10
11.20508
 20
-17.01697
 30
0.0
 10
11.19985
 20
-17.02509
 30
0.0
 10
11.1964
 20
-17.03426
 30
0.0
 10
11.1964
 20
-17.03426
 30
0.0
 10
11.19287
 20
-17.04343
 30
0.0
 10
11.19118
 20
-17.05317
 30
0.0
 10
11.19118
 20
-17.0634
 30
0.0
 10
11.19118
 20
-17.0634
 30
0.0
 10
11.19118
 20
-17.05317
 30
0.0
 10
11.19287
 20
-17.04343
 30
0.0
 10
11.1964
 20
-17.03426
 30
0.0
 10
11.1964
 20
-17.03426
 30
0.0
 10
11.19985
 20
-17.02509
 30
0.0
 10
11.20508
 20
-17.01697
 30
0.0
 10
11.21206
 20
-17.00985
 30
0.0
 10
11.21206
 20
-17.00985
 30
0.0
 10
11.21912
 20
-17.00272
 30
0.0
 10
11.22786
 20
-16.99715
 30
0.0
 10
11.23852
 20
-16.99306
 30
0.0
 10
11.23852
 20
-16.99306
 30
0.0
 10
11.2491
 20
-16.98896
 30
0.0
 10
11.26159
 20
-16.98685
 30
0.0
 10
11.27584
 20
-16.98678
 30
0.0
 10
11.27584
 20
-16.98678
 30
0.0
 10
11.29016
 20
-16.98685
 30
0.0
 10
11.30237
 20
-16.98868
 30
0.0
 10
11.31239
 20
-16.99235
 30
0.0
 10
11.31239
 20
-16.99235
 30
0.0
 10
11.32234
 20
-16.99602
 30
0.0
 10
11.33045
 20
-17.00117
 30
0.0
 10
11.33659
 20
-17.00773
 30
0.0
 10
11.33659
 20
-17.00773
 30
0.0
 10
11.34273
 20
-17.01429
 30
0.0
 10
11.34724
 20
-17.02198
 30
0.0
 10
11.35
 20
-17.03073
 30
0.0
 10
11.35
 20
-17.03073
 30
0.0
 10
11.35282
 20
-17.03948
 30
0.0
 10
11.35423
 20
-17.04893
 30
0.0
 10
11.35416
 20
-17.05917
 30
0.0
 10
11.35416
 20
-17.05917
 30
0.0
 10
11.35423
 20
-17.0694
 30
0.0
 10
11.35261
 20
-17.07878
 30
0.0
 10
11.34929
 20
-17.08732
 30
0.0
 10
11.34929
 20
-17.08732
 30
0.0
 10
11.34604
 20
-17.09592
 30
0.0
 10
11.34061
 20
-17.1034
 30
0.0
 10
11.33313
 20
-17.10968
 30
0.0
 10
11.33313
 20
-17.10968
 30
0.0
 10
11.32565
 20
-17.11603
 30
0.0
 10
11.31571
 20
-17.1209
 30
0.0
 10
11.30329
 20
-17.12436
 30
0.0
 10
11.30329
 20
-17.12436
 30
0.0
 10
11.2908
 20
-17.12782
 30
0.0
 10
11.27549
 20
-17.12951
 30
0.0
 10
11.25722
 20
-17.12944
 30
0.0
 10
11.25722
 20
-17.12944
 30
0.0
 10
11.2817
 20
-17.12944
 30
0.0
 10
11.30188
 20
-17.13275
 30
0.0
 10
11.31761
 20
-17.13932
 30
0.0
 10
11.31761
 20
-17.13932
 30
0.0
 10
11.33334
 20
-17.14588
 30
0.0
 10
11.34506
 20
-17.15547
 30
0.0
 10
11.35261
 20
-17.16824
 30
0.0
 10
11.35261
 20
-17.16824
 30
0.0
 10
11.36016
 20
-17.18101
 30
0.0
 10
11.36397
 20
-17.19675
 30
0.0
 10
11.36389
 20
-17.21537
 30
0.0
 10
11.36389
 20
-17.21537
 30
0.0
 10
11.36382
 20
-17.22934
 30
0.0
 10
11.36164
 20
-17.24127
 30
0.0
 10
11.35726
 20
-17.25122
 30
0.0
 10
11.35726
 20
-17.25122
 30
0.0
 10
11.35282
 20
-17.26109
 30
0.0
 10
11.34661
 20
-17.26921
 30
0.0
 10
11.3385
 20
-17.27549
 30
0.0
 10
11.3385
 20
-17.27549
 30
0.0
 10
11.33038
 20
-17.28177
 30
0.0
 10
11.32079
 20
-17.28635
 30
0.0
 10
11.30964
 20
-17.28932
 30
0.0
 10
11.30964
 20
-17.28932
 30
0.0
 10
11.29842
 20
-17.29228
 30
0.0
 10
11.28607
 20
-17.29369
 30
0.0
 10
11.27246
 20
-17.29369
 30
0.0
 10
11.27246
 20
-17.29369
 30
0.0
 10
11.25432
 20
-17.29355
 30
0.0
 10
11.23873
 20
-17.2903
 30
0.0
 10
11.22575
 20
-17.28388
 30
0.0
 10
11.22575
 20
-17.28388
 30
0.0
 10
11.21277
 20
-17.27746
 30
0.0
 10
11.20282
 20
-17.2685
 30
0.0
 10
11.19583
 20
-17.25707
 30
0.0
 10
11.19583
 20
-17.25707
 30
0.0
 10
11.18885
 20
-17.24557
 30
0.0
 10
11.18532
 20
-17.23231
 30
0.0
 10
11.18525
 20
-17.21707
 30
0.0
  0
SPLINE
  5
69
330
1F
100
AcDbEntity
  8
Layer 1
 62
     5
370
    53
100
AcDbSpline
210
0.0
220
0.0
230
1.0
 70
    27
 71
     3
 72
    12
 73
     8
 74
     0
 42
0.0000000001
 43
0.0000000001
 40
0.0
 40
0.0
 40
0.0
 40
0.0
 40
0.5
 40
0.5
 40
0.5
 40
0.5
 40
1.0
 40
1.0
 40
1.0
 40
1.0
 10
11.4638
 20
-17.13409
 30
0.0
 10
11.4638
 20
-17.13409
 30
0.0
 10
11.58699
 20
-17.13409
 30
0.0
 10
11.58699
 20
-17.13409
 30
0.0
 10
11.58699
 20
-17.13409
 30
0.0
 10
11.58699
 20
-17.13409
 30
0.0
 10
11.4638
 20
-17.13409
 30
0.0
 10
11.4638
 20
-17.13409
 30
0.0
  0
SPLINE
  5
6A
330
1F
100
AcDbEntity
  8
Layer 1
 62
     5
370
    53
100
AcDbSpline
210
0.0
220
0.0
230
1.0
 70
    11
 71
     3
 72
    84
 73
    80
 74
     0
 42
0.0000000001
 43
0.0000000001
 40
0.0
 40
0.0
 40
0.0
 40
0.0
 40
0.05
 40
0.05
 40
0.05
 40
0.05
 40
0.1
 40
0.1
 40
0.1
 40
0.1
 40
0.15
 40
0.15
 40
0.15
 40
0.15
 40
0.2
 40
0.2
 40
0.2
 40
0.2
 40
0.25
 40
0.25
 40
0.25
 40
0.25
 40
0.3
 40
0.3
 40
0.3
 40
0.3
 40
0.35
 40
0.35
 40
0.35
 40
0.35
 40
0.4
 40
0.4
 40
0.4
 40
0.4
 40
0.45
 40
0.45
 40
0.45
 40
0.45
 40
0.4999999999999999
 40
0.4999999999999999
 40
0.4999999999999999
 40
0.4999999999999999
 40
0.5499999999999999
 40
0.5499999999999999
 40
0.5499999999999999
 40
0.5499999999999999
 40
0.6
 40
0.6
 40
0.6
 40
0.6
 40
0.65
 40
0.65
 40
0.65
 40
0.65
 40
0.7000000000000001
 40
0.7000000000000001
 40
0.7000000000000001
 40
0.7000000000000001
 40
0.7500000000000001
 40
0.7500000000000001
 40
0.7500000000000001
 40
0.7500000000000001
 40
0.8000000000000002
 40
0.8000000000000002
 40
0.8000000000000002
 40
0.8000000000000002
 40
0.8500000000000002
 40
0.8500000000000002
 40
0.8500000000000002
 40
0.8500000000000002
 40
0.9000000000000002
 40
0.9000000000000002
 40
0.9000000000000002
 40
0.9000000000000002
 40
0.9500000000000003
 40
0.9500000000000003
 40
0.9500000000000003
 40
0.9500000000000003
 40
1.0
 40
1.0
 40
1.0
 40
1.0
 10
11.77622
 20
-17.29369
 30
0.0
 10
11.79103
 20
-17.29362
 30
0.0
 10
11.8038
 20
-17.29101
 30
0.0
 10
11.81446
 20
-17.28593
 30
0.0
 10
11.81446
 20
-17.28593
 30
0.0
 10
11.82504
 20
-17.28085
 30
0.0
 10
11.83386
 20
-17.27358
 30
0.0
 10
11.84091
 20
-17.26434
 30
0.0
 10
11.84091
 20
-17.26434
 30
0.0
 10
11.8479
 20
-17.25503
 30
0.0
 10
11.8534
 20
-17.24402
 30
0.0
 10
11.85749
 20
-17.23132
 30
0.0
 10
11.85749
 20
-17.23132
 30
0.0
 10
11.86152
 20
-17.21862
 30
0.0
 10
11.86441
 20
-17.20472
 30
0.0
 10
11.86603
 20
-17.18948
 30
0.0
 10
11.86603
 20
-17.18948
 30
0.0
 10
11.86773
 20
-17.17424
 30
0.0
 10
11.86857
 20
-17.15822
 30
0.0
 10
11.8685
 20
-17.14129
 30
0.0
 10
11.8685
 20
-17.14129
 30
0.0
 10
11.86857
 20
-17.12443
 30
0.0
 10
11.86773
 20
-17.10841
 30
0.0
 10
11.86603
 20
-17.09324
 30
0.0
 10
11.86603
 20
-17.09324
 30
0.0
 10
11.86441
 20
-17.07807
 30
0.0
 10
11.86152
 20
-17.0641
 30
0.0
 10
11.85749
 20
-17.0514
 30
0.0
 10
11.85749
 20
-17.0514
 30
0.0
 10
11.8534
 20
-17.03877
 30
0.0
 10
11.8479
 20
-17.02777
 30
0.0
 10
11.84091
 20
-17.01838
 30
0.0
 10
11.84091
 20
-17.01838
 30
0.0
 10
11.83386
 20
-17.00907
 30
0.0
 10
11.82504
 20
-17.0018
 30
0.0
 10
11.81446
 20
-16.99672
 30
0.0
 10
11.81446
 20
-16.99672
 30
0.0
 10
11.8038
 20
-16.99157
 30
0.0
 10
11.79103
 20
-16.98896
 30
0.0
 10
11.77622
 20
-16.98889
 30
0.0
 10
11.77622
 20
-16.98889
 30
0.0
 10
11.7614
 20
-16.98896
 30
0.0
 10
11.74863
 20
-16.99157
 30
0.0
 10
11.73797
 20
-16.99672
 30
0.0
 10
11.73797
 20
-16.99672
 30
0.0
 10
11.72739
 20
-17.0018
 30
0.0
 10
11.71857
 20
-17.00907
 30
0.0
 10
11.71152
 20
-17.01838
 30
0.0
 10
11.71152
 20
-17.01838
 30
0.0
 10
11.70453
 20
-17.02777
 30
0.0
 10
11.69903
 20
-17.03877
 30
0.0
 10
11.69494
 20
-17.0514
 30
0.0
 10
11.69494
 20
-17.0514
 30
0.0
 10
11.69091
 20
-17.0641
 30
0.0
 10
11.68802
 20
-17.07807
 30
0.0
 10
11.6864
 20
-17.09324
 30
0.0
 10
11.6864
 20
-17.09324
 30
0.0
 10
11.68471
 20
-17.10841
 30
0.0
 10
11.68386
 20
-17.12443
 30
0.0
 10
11.68393
 20
-17.14129
 30
0.0
 10
11.68393
 20
-17.14129
 30
0.0
 10
11.68386
 20
-17.15822
 30
0.0
 10
11.68471
 20
-17.17424
 30
0.0
 10
11.6864
 20
-17.18948
 30
0.0
 10
11.6864
 20
-17.18948
 30
0.0
 10
11.68802
 20
-17.20472
 30
0.0
 10
11.69091
 20
-17.21862
 30
0.0
 10
11.69494
 20
-17.23132
 30
0.0
 10
11.69494
 20
-17.23132
 30
0.0
 10
11.69903
 20
-17.24402
 30
0.0
 10
11.70453
 20
-17.25503
 30
0.0
 10
11.71152
 20
-17.26434
 30
0.0
 10
11.71152
 20
-17.26434
 30
0.0
 10
11.71857
 20
-17.27358
 30
0.0
 10
11.72739
 20
-17.28085
 30
0.0
 10
11.73797
 20
-17.28593
 30
0.0
 10
11.73797
 20
-17.28593
 30
0.0
 10
11.74863
 20
-17.29101
 30
0.0
 10
11.7614
 20
-17.29362
 30
0.0
 10
11.77622
 20
-17.29369
 30
0.0
  0
SPLINE
  5
6B
330
1F
100
AcDbEntity
  8
Layer 1
 62
     5
370
    53
100
AcDbSpline
210
0.0
220
0.0
230
1.0
 70
    11
 71
     3
 72
    84
 73
    80
 74
     0
 42
0.0000000001
 43
0.0000000001
 40
0.0
 40
0.0
 40
0.0
 40
0.0
 40
0.05
 40
0.05
 40
0.05
 40
0.05
 40
0.1
 40
0.1
 40
0.1
 40
0.1
 40
0.15
 40
0.15
 40
0.15
 40
0.15
 40
0.2
 40
0.2
 40
0.2
 40
0.2
 40
0.25
 40
0.25
 40
0.25
 40
0.25
 40
0.3
 40
0.3
 40
0.3
 40
0.3
 40
0.35
 40
0.35
 40
0.35
 40
0.35
 40
0.4
 40
0.4
 40
0.4
 40
0.4
 40
0.45
 40
0.45
 40
0.45
 40
0.45
 40
0.4999999999999999
 40
0.4999999999999999
 40
0.4999999999999999
 40
0.4999999999999999
 40
0.5499999999999999
 40
0.5499999999999999
 40
0.5499999999999999
 40
0.5499999999999999
 40
0.6
 40
0.6
 40
0.6
 40
0.6
 40
0.65
 40
0.65
 40
0.65
 40
0.65
 40
0.7000000000000001
 40
0.7000000000000001
 40
0.7000000000000001
 40
0.7000000000000001
 40
0.7500000000000001
 40
0.7500000000000001
 40
0.7500000000000001
 40
0.7500000000000001
 40
0.8000000000000002
 40
0.8000000000000002
 40
0.8000000000000002
 40
0.8000000000000002
 40
0.8500000000000002
 40
0.8500000000000002
 40
0.8500000000000002
 40
0.8500000000000002
 40
0.9000000000000002
 40
0.9000000000000002
 40
0.9000000000000002
 40
0.9000000000000002
 40
0.9500000000000003
 40
0.9500000000000003
 40
0.9500000000000003
 40
0.9500000000000003
 40
1.0
 40
1.0
 40
1.0
 40
1.0
 10
11.77622
 20
-17.29369
 30
0.0
 10
11.79103
 20
-17.29362
 30
0.0
 10
11.8038
 20
-17.29101
 30
0.0
 10
11.81446
 20
-17.28593
 30
0.0
 10
11.81446
 20
-17.28593
 30
0.0
 10
11.82504
 20
-17.28085
 30
0.0
 10
11.83386
 20
-17.27358
 30
0.0
 10
11.84091
 20
-17.26434
 30
0.0
 10
11.84091
 20
-17.26434
 30
0.0
 10
11.8479
 20
-17.25503
 30
0.0
 10
11.8534
 20
-17.24402
 30
0.0
 10
11.85749
 20
-17.23132
 30
0.0
 10
11.85749
 20
-17.23132
 30
0.0
 10
11.86152
 20
-17.21862
 30
0.0
 10
11.86441
 20
-17.20472
 30
0.0
 10
11.86603
 20
-17.18948
 30
0.0
 10
11.86603
 20
-17.18948
 30
0.0
 10
11.86773
 20
-17.17424
 30
0.0
 10
11.86857
 20
-17.15822
 30
0.0
 10
11.8685
 20
-17.14129
 30
0.0
 10
11.8685
 20
-17.14129
 30
0.0
 10
11.86857
 20
-17.12443
 30
0.0
 10
11.86773
 20
-17.10841
 30
0.0
 10
11.86603
 20
-17.09324
 30
0.0
 10
11.86603
 20
-17.09324
 30
0.0
 10
11.86441
 20
-17.07807
 30
0.0
 10
11.86152
 20
-17.0641
 30
0.0
 10
11.85749
 20
-17.0514
 30
0.0
 10
11.85749
 20
-17.0514
 30
0.0
 10
11.8534
 20
-17.03877
 30
0.0
 10
11.8479
 20
-17.02777
 30
0.0
 10
11.84091
 20
-17.01838
 30
0.0
 10
11.84091
 20
-17.01838
 30
0.0
 10
11.83386
 20
-17.00907
 30
0.0
 10
11.82504
 20
-17.0018
 30
0.0
 10
11.81446
 20
-16.99672
 30
0.0
 10
11.81446
 20
-16.99672
 30
0.0
 10
11.8038
 20
-16.99157
 30
0.0
 10
11.79103
 20
-16.98896
 30
0.0
 10
11.77622
 20
-16.98889
 30
0.0
 10
11.77622
 20
-16.98889
 30
0.0
 10
11.7614
 20
-16.98896
 30
0.0
 10
11.74863
 20
-16.99157
 30
0.0
 10
11.73797
 20
-16.99672
 30
0.0
 10
11.73797
 20
-16.99672
 30
0.0
 10
11.72739
 20
-17.0018
 30
0.0
 10
11.71857
 20
-17.00907
 30
0.0
 10
11.71152
 20
-17.01838
 30
0.0
 10
11.71152
 20
-17.01838
 30
0.0
 10
11.70453
 20
-17.02777
 30
0.0
 10
11.69903
 20
-17.03877
 30
0.0
 10
11.69494
 20
-17.0514
 30
0.0
 10
11.69494
 20
-17.0514
 30
0.0
 10
11.69091
 20
-17.0641
 30
0.0
 10
11.68802
 20
-17.07807
 30
0.0
 10
11.6864
 20
-17.09324
 30
0.0
 10
11.6864
 20
-17.09324
 30
0.0
 10
11.68471
 20
-17.10841
 30
0.0
 10
11.68386
 20
-17.12443
 30
0.0
 10
11.68393
 20
-17.14129
 30
0.0
 10
11.68393
 20
-17.14129
 30
0.0
 10
11.68386
 20
-17.15822
 30
0.0
 10
11.68471
 20
-17.17424
 30
0.0
 10
11.6864
 20
-17.18948
 30
0.0
 10
11.6864
 20
-17.18948
 30
0.0
 10
11.68802
 20
-17.20472
 30
0.0
 10
11.69091
 20
-17.21862
 30
0.0
 10
11.69494
 20
-17.23132
 30
0.0
 10
11.69494
 20
-17.23132
 30
0.0
 10
11.69903
 20
-17.24402
 30
0.0
 10
11.70453
 20
-17.25503
 30
0.0
 10
11.71152
 20
-17.26434
 30
0.0
 10
11.71152
 20
-17.26434
 30
0.0
 10
11.71857
 20
-17.27358
 30
0.0
 10
11.72739
 20
-17.28085
 30
0.0
 10
11.73797
 20
-17.28593
 30
0.0
 10
11.73797
 20
-17.28593
 30
0.0
 10
11.74863
 20
-17.29101
 30
0.0
 10
11.7614
 20
-17.29362
 30
0.0
 10
11.77622
 20
-17.29369
 30
0.0
  0
SPLINE
  5
6C
330
1F
100
AcDbEntity
  8
Layer 1
 62
     5
370
    53
100
AcDbSpline
210
0.0
220
0.0
230
1.0
 70
    11
 71
     3
 72
   180
 73
   176
 74
     0
 42
0.0000000001
 43
0.0000000001
 40
0.0
 40
0.0
 40
0.0
 40
0.0
 40
0.0227272727272727
 40
0.0227272727272727
 40
0.0227272727272727
 40
0.0227272727272727
 40
0.0454545454545455
 40
0.0454545454545455
 40
0.0454545454545455
 40
0.0454545454545455
 40
0.0681818181818182
 40
0.0681818181818182
 40
0.0681818181818182
 40
0.0681818181818182
 40
0.0909090909090909
 40
0.0909090909090909
 40
0.0909090909090909
 40
0.0909090909090909
 40
0.1136363636363636
 40
0.1136363636363636
 40
0.1136363636363636
 40
0.1136363636363636
 40
0.1363636363636364
 40
0.1363636363636364
 40
0.1363636363636364
 40
0.1363636363636364
 40
0.1590909090909091
 40
0.1590909090909091
 40
0.1590909090909091
 40
0.1590909090909091
 40
0.1818181818181819
 40
0.1818181818181819
 40
0.1818181818181819
 40
0.1818181818181819
 40
0.2045454545454546
 40
0.2045454545454546
 40
0.2045454545454546
 40
0.2045454545454546
 40
0.2272727272727273
 40
0.2272727272727273
 40
0.2272727272727273
 40
0.2272727272727273
 40
0.2500000000000001
 40
0.2500000000000001
 40
0.2500000000000001
 40
0.2500000000000001
 40
0.2727272727272728
 40
0.2727272727272728
 40
0.2727272727272728
 40
0.2727272727272728
 40
0.2954545454545455
 40
0.2954545454545455
 40
0.2954545454545455
 40
0.2954545454545455
 40
0.3181818181818182
 40
0.3181818181818182
 40
0.3181818181818182
 40
0.3181818181818182
 40
0.3409090909090909
 40
0.3409090909090909
 40
0.3409090909090909
 40
0.3409090909090909
 40
0.3636363636363636
 40
0.3636363636363636
 40
0.3636363636363636
 40
0.3636363636363636
 40
0.3863636363636363
 40
0.3863636363636363
 40
0.3863636363636363
 40
0.3863636363636363
 40
0.409090909090909
 40
0.409090909090909
 40
0.409090909090909
 40
0.409090909090909
 40
0.4318181818181817
 40
0.4318181818181817
 40
0.4318181818181817
 40
0.4318181818181817
 40
0.4545454545454544
 40
0.4545454545454544
 40
0.4545454545454544
 40
0.4545454545454544
 40
0.4772727272727271
 40
0.4772727272727271
 40
0.4772727272727271
 40
0.4772727272727271
 40
0.4999999999999998
 40
0.4999999999999998
 40
0.4999999999999998
 40
0.4999999999999998
 40
0.5227272727272726
 40
0.5227272727272726
 40
0.5227272727272726
 40
0.5227272727272726
 40
0.5454545454545453
 40
0.5454545454545453
 40
0.5454545454545453
 40
0.5454545454545453
 40
0.568181818181818
 40
0.568181818181818
 40
0.568181818181818
 40
0.568181818181818
 40
0.5909090909090907
 40
0.5909090909090907
 40
0.5909090909090907
 40
0.5909090909090907
 40
0.6136363636363634
 40
0.6136363636363634
 40
0.6136363636363634
 40
0.6136363636363634
 40
0.6363636363636361
 40
0.6363636363636361
 40
0.6363636363636361
 40
0.6363636363636361
 40
0.6590909090909088
 40
0.6590909090909088
 40
0.6590909090909088
 40
0.6590909090909088
 40
0.6818181818181815
 40
0.6818181818181815
 40
0.6818181818181815
 40
0.6818181818181815
 40
0.7045454545454543
 40
0.7045454545454543
 40
0.7045454545454543
 40
0.7045454545454543
 40
0.727272727272727
 40
0.727272727272727
 40
0.727272727272727
 40
0.727272727272727
 40
0.7499999999999997
 40
0.7499999999999997
 40
0.7499999999999997
 40
0.7499999999999997
 40
0.7727272727272724
 40
0.7727272727272724
 40
0.7727272727272724
 40
0.7727272727272724
 40
0.7954545454545451
 40
0.7954545454545451
 40
0.7954545454545451
 40
0.7954545454545451
 40
0.8181818181818178
 40
0.8181818181818178
 40
0.8181818181818178
 40
0.8181818181818178
 40
0.8409090909090905
 40
0.8409090909090905
 40
0.8409090909090905
 40
0.8409090909090905
 40
0.8636363636363632
 40
0.8636363636363632
 40
0.8636363636363632
 40
0.8636363636363632
 40
0.8863636363636359
 40
0.8863636363636359
 40
0.8863636363636359
 40
0.8863636363636359
 40
0.9090909090909086
 40
0.9090909090909086
 40
0.9090909090909086
 40
0.9090909090909086
 40
0.9318181818181813
 40
0.9318181818181813
 40
0.9318181818181813
 40
0.9318181818181813
 40
0.954545454545454
 40
0.954545454545454
 40
0.954545454545454
 40
0.954545454545454
 40
0.9772727272727267
 40
0.9772727272727267
 40
0.9772727272727267
 40
0.9772727272727267
 40
1.0
 40
1.0
 40
1.0
 40
1.0
 10
11.96883
 20
-17.21707
 30
0.0
 10
11.9689
 20
-17.23231
 30
0.0
 10
11.97243
 20
-17.24557
 30
0.0
 10
11.97941
 20
-17.25707
 30
0.0
 10
11.97941
 20
-17.25707
 30
0.0
 10
11.9864
 20
-17.2685
 30
0.0
 10
11.99635
 20
-17.27746
 30
0.0
 10
12.00933
 20
-17.28388
 30
0.0
 10
12.00933
 20
-17.28388
 30
0.0
 10
12.02231
 20
-17.2903
 30
0.0
 10
12.0379
 20
-17.29355
 30
0.0
 10
12.05604
 20
-17.29369
 30
0.0
 10
12.05604
 20
-17.29369
 30
0.0
 10
12.06965
 20
-17.29369
 30
0.0
 10
12.082
 20
-17.29228
 30
0.0
 10
12.09322
 20
-17.28932
 30
0.0
 10
12.09322
 20
-17.28932
 30
0.0
 10
12.10437
 20
-17.28635
 30
0.0
 10
12.11396
 20
-17.28177
 30
0.0
 10
12.12208
 20
-17.27549
 30
0.0
 10
12.12208
 20
-17.27549
 30
0.0
 10
12.13019
 20
-17.26921
 30
0.0
 10
12.1364
 20
-17.26109
 30
0.0
 10
12.14084
 20
-17.25122
 30
0.0
 10
12.14084
 20
-17.25122
 30
0.0
 10
12.14522
 20
-17.24127
 30
0.0
 10
12.1474
 20
-17.22934
 30
0.0
 10
12.14747
 20
-17.21537
 30
0.0
 10
12.14747
 20
-17.21537
 30
0.0
 10
12.14755
 20
-17.19675
 30
0.0
 10
12.14374
 20
-17.18101
 30
0.0
 10
12.13619
 20
-17.16824
 30
0.0
 10
12.13619
 20
-17.16824
 30
0.0
 10
12.12864
 20
-17.15547
 30
0.0
 10
12.11692
 20
-17.14588
 30
0.0
 10
12.10119
 20
-17.13932
 30
0.0
 10
12.10119
 20
-17.13932
 30
0.0
 10
12.08546
 20
-17.13275
 30
0.0
 10
12.06528
 20
-17.12944
 30
0.0
 10
12.0408
 20
-17.12944
 30
0.0
 10
12.0408
 20
-17.12944
 30
0.0
 10
12.05907
 20
-17.12951
 30
0.0
 10
12.07438
 20
-17.12782
 30
0.0
 10
12.08687
 20
-17.12436
 30
0.0
 10
12.08687
 20
-17.12436
 30
0.0
 10
12.09929
 20
-17.1209
 30
0.0
 10
12.10923
 20
-17.11603
 30
0.0
 10
12.11671
 20
-17.10968
 30
0.0
 10
12.11671
 20
-17.10968
 30
0.0
 10
12.12419
 20
-17.1034
 30
0.0
 10
12.12962
 20
-17.09592
 30
0.0
 10
12.13287
 20
-17.08732
 30
0.0
 10
12.13287
 20
-17.08732
 30
0.0
 10
12.13619
 20
-17.07878
 30
0.0
 10
12.13781
 20
-17.0694
 30
0.0
 10
12.13774
 20
-17.05917
 30
0.0
 10
12.13774
 20
-17.05917
 30
0.0
 10
12.13781
 20
-17.04893
 30
0.0
 10
12.1364
 20
-17.03948
 30
0.0
 10
12.13358
 20
-17.03073
 30
0.0
 10
12.13358
 20
-17.03073
 30
0.0
 10
12.13082
 20
-17.02198
 30
0.0
 10
12.12631
 20
-17.01429
 30
0.0
 10
12.12017
 20
-17.00773
 30
0.0
 10
12.12017
 20
-17.00773
 30
0.0
 10
12.11403
 20
-17.00117
 30
0.0
 10
12.10592
 20
-16.99602
 30
0.0
 10
12.09597
 20
-16.99235
 30
0.0
 10
12.09597
 20
-16.99235
 30
0.0
 10
12.08595
 20
-16.98868
 30
0.0
 10
12.07374
 20
-16.98685
 30
0.0
 10
12.05942
 20
-16.98678
 30
0.0
 10
12.05942
 20
-16.98678
 30
0.0
 10
12.04517
 20
-16.98685
 30
0.0
 10
12.03268
 20
-16.98896
 30
0.0
 10
12.0221
 20
-16.99306
 30
0.0
 10
12.0221
 20
-16.99306
 30
0.0
 10
12.01144
 20
-16.99715
 30
0.0
 10
12.0027
 20
-17.00272
 30
0.0
 10
11.99564
 20
-17.00985
 30
0.0
 10
11.99564
 20
-17.00985
 30
0.0
 10
11.98866
 20
-17.01697
 30
0.0
 10
11.98343
 20
-17.02509
 30
0.0
 10
11.97998
 20
-17.03426
 30
0.0
 10
11.97998
 20
-17.03426
 30
0.0
 10
11.97645
 20
-17.04343
 30
0.0
 10
11.97476
 20
-17.05317
 30
0.0
 10
11.97476
 20
-17.0634
 30
0.0
 10
11.97476
 20
-17.0634
 30
0.0
 10
11.97476
 20
-17.05317
 30
0.0
 10
11.97645
 20
-17.04343
 30
0.0
 10
11.97998
 20
-17.03426
 30
0.0
 10
11.97998
 20
-17.03426
 30
0.0
 10
11.98343
 20
-17.02509
 30
0.0
 10
11.98866
 20
-17.01697
 30
0.0
 10
11.99564
 20
-17.00985
 30
0.0
 10
11.99564
 20
-17.00985
 30
0.0
 10
12.0027
 20
-17.00272
 30
0.0
 10
12.01144
 20
-16.99715
 30
0.0
 10
12.0221
 20
-16.99306
 30
0.0
 10
12.0221
 20
-16.99306
 30
0.0
 10
12.03268
 20
-16.98896
 30
0.0
 10
12.04517
 20
-16.98685
 30
0.0
 10
12.05942
 20
-16.98678
 30
0.0
 10
12.05942
 20
-16.98678
 30
0.0
 10
12.07374
 20
-16.98685
 30
0.0
 10
12.08595
 20
-16.98868
 30
0.0
 10
12.09597
 20
-16.99235
 30
0.0
 10
12.09597
 20
-16.99235
 30
0.0
 10
12.10592
 20
-16.99602
 30
0.0
 10
12.11403
 20
-17.00117
 30
0.0
 10
12.12017
 20
-17.00773
 30
0.0
 10
12.12017
 20
-17.00773
 30
0.0
 10
12.12631
 20
-17.01429
 30
0.0
 10
12.13082
 20
-17.02198
 30
0.0
 10
12.13358
 20
-17.03073
 30
0.0
 10
12.13358
 20
-17.03073
 30
0.0
 10
12.1364
 20
-17.03948
 30
0.0
 10
12.13781
 20
-17.04893
 30
0.0
 10
12.13774
 20
-17.05917
 30
0.0
 10
12.13774
 20
-17.05917
 30
0.0
 10
12.13781
 20
-17.0694
 30
0.0
 10
12.13619
 20
-17.07878
 30
0.0
 10
12.13287
 20
-17.08732
 30
0.0
 10
12.13287
 20
-17.08732
 30
0.0
 10
12.12962
 20
-17.09592
 30
0.0
 10
12.12419
 20
-17.1034
 30
0.0
 10
12.11671
 20
-17.10968
 30
0.0
 10
12.11671
 20
-17.10968
 30
0.0
 10
12.10923
 20
-17.11603
 30
0.0
 10
12.09929
 20
-17.1209
 30
0.0
 10
12.08687
 20
-17.12436
 30
0.0
 10
12.08687
 20
-17.12436
 30
0.0
 10
12.07438
 20
-17.12782
 30
0.0
 10
12.05907
 20
-17.12951
 30
0.0
 10
12.0408
 20
-17.12944
 30
0.0
 10
12.0408
 20
-17.12944
 30
0.0
 10
12.06528
 20
-17.12944
 30
0.0
 10
12.08546
 20
-17.13275
 30
0.0
 10
12.10119
 20
-17.13932
 30
0.0
 10
12.10119
 20
-17.13932
 30
0.0
 10
12.11692
 20
-17.14588
 30
0.0
 10
12.12864
 20
-17.15547
 30
0.0
 10
12.13619
 20
-17.16824
 30
0.0
 10
12.13619
 20
-17.16824
 30
0.0
 10
12.14374
 20
-17.18101
 30
0.0
 10
12.14755
 20
-17.19675
 30
0.0
 10
12.14747
 20
-17.21537
 30
0.0
 10
12.14747
 20
-17.21537
 30
0.0
 10
12.1474
 20
-17.22934
 30
0.0
 10
12.14522
 20
-17.24127
 30
0.0
 10
12.14084
 20
-17.25122
 30
0.0
 10
12.14084
 20
-17.25122
 30
0.0
 10
12.1364
 20
-17.26109
 30
0.0
 10
12.13019
 20
-17.26921
 30
0.0
 10
12.12208
 20
-17.27549
 30
0.0
 10
12.12208
 20
-17.27549
 30
0.0
 10
12.11396
 20
-17.28177
 30
0.0
 10
12.10437
 20
-17.28635
 30
0.0
 10
12.09322
 20
-17.28932
 30
0.0
 10
12.09322
 20
-17.28932
 30
0.0
 10
12.082
 20
-17.29228
 30
0.0
 10
12.06965
 20
-17.29369
 30
0.0
 10
12.05604
 20
-17.29369
 30
0.0
 10
12.05604
 20
-17.29369
 30
0.0
 10
12.0379
 20
-17.29355
 30
0.0
 10
12.02231
 20
-17.2903
 30
0.0
 10
12.00933
 20
-17.28388
 30
0.0
 10
12.00933
 20
-17.28388
 30
0.0
 10
11.99635
 20
-17.27746
 30
0.0
 10
11.9864
 20
-17.2685
 30
0.0
 10
11.97941
 20
-17.25707
 30
0.0
 10
11.97941
 20
-17.25707
 30
0.0
 10
11.97243
 20
-17.24557
 30
0.0
 10
11.9689
 20
-17.23231
 30
0.0
 10
11.96883
 20
-17.21707
 30
0.0
  0
LWPOLYLINE
  5
6D
330
1F
100
AcDbEntity
  8
Layer 1
370
    53
100
AcDbPolyline
 90
        5
 70
     1
 43
0.0
 10
10.66
 20
-14.98999
 10
10.78
 20
-14.98999
 10
10.78
 20
-14.71001
 10
10.66
 20
-14.71001
 10
10.66
 20
-14.98999
  0
ELLIPSE
  5
6E
330
1F
100
AcDbEntity
  8
Layer 1
370
    53
100
AcDbEllipse
 10
11.5
 20
-14.85
 30
0.0
 11
0.35
 21
0.0
 31
0.0
210
0.0
220
0.0
230
1.0
 40
0.9999714285714287
 41
0.0
 42
6.283185307179586
  0
LWPOLYLINE
  5
6F
330
1F
100
AcDbEntity
  8
Layer 1
370
    53
100
AcDbPolyline
 90
        5
 70
     1
 43
0.0
 10
9.35
 20
-16.15
 10
9.65
 20
-16.15
 10
9.65
 20
-15.55
 10
9.35
 20
-15.55
 10
9.35
 20
-16.15
  0
LWPOLYLINE
  5
70
330
1F
100
AcDbEntity
  8
Layer 1
370
    53
100
AcDbPolyline
 90
        5
 70
     1
 43
0.0
 10
9.35
 20
-14.15
 10
9.65
 20
-14.15
 10
9.65
 20
-13.55
 10
9.35
 20
-13.55
 10
9.35
 20
-14.15
  0
LWPOLYLINE
  5
71
330
1F
100
AcDbEntity
  8
Layer 1
370
    53
100
AcDbPolyline
 90
        5
 70
     1
 43
0.0
 10
13.35
 20
-16.15
 10
13.65
 20
-16.15
 10
13.65
 20
-15.55
 10
13.35
 20
-15.55
 10
13.35
 20
-16.15
  0
LWPOLYLINE
  5
72
330
1F
100
AcDbEntity
  8
Layer 1
370
    53
100
AcDbPolyline
 90
        5
 70
     1
 43
0.0
 10
13.35
 20
-14.15
 10
13.65
 20
-14.15
 10
13.65
 20
-13.55
 10
13.35
 20
-13.55
 10
13.35
 20
-14.15
  0
SPLINE
  5
73
330
1F
100
AcDbEntity
  8
Layer 1
370
    53
100
AcDbSpline
210
0.0
220
0.0
230
1.0
 70
    11
 71
     3
 72
    84
 73
    80
 74
     0
 42
0.0000000001
 43
0.0000000001
 40
0.0
 40
0.0
 40
0.0
 40
0.0
 40
0.05
 40
0.05
 40
0.05
 40
0.05
 40
0.1
 40
0.1
 40
0.1
 40
0.1
 40
0.15
 40
0.15
 40
0.15
 40
0.15
 40
0.2
 40
0.2
 40
0.2
 40
0.2
 40
0.25
 40
0.25
 40
0.25
 40
0.25
 40
0.3
 40
0.3
 40
0.3
 40
0.3
 40
0.35
 40
0.35
 40
0.35
 40
0.35
 40
0.4
 40
0.4
 40
0.4
 40
0.4
 40
0.45
 40
0.45
 40
0.45
 40
0.45
 40
0.4999999999999999
 40
0.4999999999999999
 40
0.4999999999999999
 40
0.4999999999999999
 40
0.5499999999999999
 40
0.5499999999999999
 40
0.5499999999999999
 40
0.5499999999999999
 40
0.6
 40
0.6
 40
0.6
 40
0.6
 40
0.65
 40
0.65
 40
0.65
 40
0.65
 40
0.7000000000000001
 40
0.7000000000000001
 40
0.7000000000000001
 40
0.7000000000000001
 40
0.7500000000000001
 40
0.7500000000000001
 40
0.7500000000000001
 40
0.7500000000000001
 40
0.8000000000000002
 40
0.8000000000000002
 40
0.8000000000000002
 40
0.8000000000000002
 40
0.8500000000000002
 40
0.8500000000000002
 40
0.8500000000000002
 40
0.8500000000000002
 40
0.9000000000000002
 40
0.9000000000000002
 40
0.9000000000000002
 40
0.9000000000000002
 40
0.9500000000000003
 40
0.9500000000000003
 40
0.9500000000000003
 40
0.9500000000000003
 40
1.0
 40
1.0
 40
1.0
 40
1.0
 10
9.2
 20
-16.7
 30
0.0
 10
9.2
 20
-16.7
 30
0.0
 10
9.24015
 20
-16.7
 30
0.0
 10
9.24015
 20
-16.7
 30
0.0
 10
9.24015
 20
-16.7
 30
0.0
 10
9.2665
 20
-16.65447
 30
0.0
 10
9.30447
 20
-16.6165
 30
0.0
 10
9.35
 20
-16.59015
 30
0.0
 10
9.35
 20
-16.59015
 30
0.0
 10
9.35
 20
-16.59015
 30
0.0
 10
9.35
 20
-16.55
 30
0.0
 10
9.35
 20
-16.55
 30
0.0
 10
9.35
 20
-16.55
 30
0.0
 10
9.35
 20
-16.55
 30
0.0
 10
9.5
 20
-16.55
 30
0.0
 10
9.5
 20
-16.55
 30
0.0
 10
9.5
 20
-16.55
 30
0.0
 10
9.5
 20
-16.55
 30
0.0
 10
9.65
 20
-16.55
 30
0.0
 10
9.65
 20
-16.55
 30
0.0
 10
9.65
 20
-16.55
 30
0.0
 10
9.65
 20
-16.55
 30
0.0
 10
9.65
 20
-16.59015
 30
0.0
 10
9.65
 20
-16.59015
 30
0.0
 10
9.65
 20
-16.59015
 30
0.0
 10
9.69553
 20
-16.6165
 30
0.0
 10
9.7335
 20
-16.65447
 30
0.0
 10
9.75985
 20
-16.7
 30
0.0
 10
9.75985
 20
-16.7
 30
0.0
 10
9.75985
 20
-16.7
 30
0.0
 10
9.8
 20
-16.7
 30
0.0
 10
9.8
 20
-16.7
 30
0.0
 10
9.8
 20
-16.7
 30
0.0
 10
9.8
 20
-16.7
 30
0.0
 10
9.8
 20
-16.85
 30
0.0
 10
9.8
 20
-16.85
 30
0.0
 10
9.8
 20
-16.85
 30
0.0
 10
9.8
 20
-16.85
 30
0.0
 10
9.8
 20
-17.0
 30
0.0
 10
9.8
 20
-17.0
 30
0.0
 10
9.8
 20
-17.0
 30
0.0
 10
9.8
 20
-17.0
 30
0.0
 10
9.75985
 20
-17.0
 30
0.0
 10
9.75985
 20
-17.0
 30
0.0
 10
9.75985
 20
-17.0
 30
0.0
 10
9.7335
 20
-17.04553
 30
0.0
 10
9.69553
 20
-17.0835
 30
0.0
 10
9.65
 20
-17.10985
 30
0.0
 10
9.65
 20
-17.10985
 30
0.0
 10
9.65
 20
-17.10985
 30
0.0
 10
9.65
 20
-17.15
 30
0.0
 10
9.65
 20
-17.15
 30
0.0
 10
9.65
 20
-17.15
 30
0.0
 10
9.65
 20
-17.15
 30
0.0
 10
9.5
 20
-17.15
 30
0.0
 10
9.5
 20
-17.15
 30
0.0
 10
9.5
 20
-17.15
 30
0.0
 10
9.5
 20
-17.15
 30
0.0
 10
9.35
 20
-17.15
 30
0.0
 10
9.35
 20
-17.15
 30
0.0
 10
9.35
 20
-17.15
 30
0.0
 10
9.35
 20
-17.15
 30
0.0
 10
9.35
 20
-17.10985
 30
0.0
 10
9.35
 20
-17.10985
 30
0.0
 10
9.35
 20
-17.10985
 30
0.0
 10
9.30447
 20
-17.0835
 30
0.0
 10
9.2665
 20
-17.04553
 30
0.0
 10
9.24015
 20
-17.0
 30
0.0
 10
9.24015
 20
-17.0
 30
0.0
 10
9.24015
 20
-17.0
 30
0.0
 10
9.2
 20
-17.0
 30
0.0
 10
9.2
 20
-17.0
 30
0.0
 10
9.2
 20
-17.0
 30
0.0
 10
9.2
 20
-17.0
 30
0.0
 10
9.2
 20
-16.85
 30
0.0
 10
9.2
 20
-16.85
 30
0.0
 10
9.2
 20
-16.85
 30
0.0
 10
9.2
 20
-16.85
 30
0.0
 10
9.2
 20
-16.7
 30
0.0
 10
9.2
 20
-16.7
 30
0.0
  0
SPLINE
  5
74
330
1F
100
AcDbEntity
  8
Layer 1
370
    53
100
AcDbSpline
210
0.0
220
0.0
230
1.0
 70
    11
 71
     3
 72
    84
 73
    80
 74
     0
 42
0.0000000001
 43
0.0000000001
 40
0.0
 40
0.0
 40
0.0
 40
0.0
 40
0.05
 40
0.05
 40
0.05
 40
0.05
 40
0.1
 40
0.1
 40
0.1
 40
0.1
 40
0.15
 40
0.15
 40
0.15
 40
0.15
 40
0.2
 40
0.2
 40
0.2
 40
0.2
 40
0.25
 40
0.25
 40
0.25
 40
0.25
 40
0.3
 40
0.3
 40
0.3
 40
0.3
 40
0.35
 40
0.35
 40
0.35
 40
0.35
 40
0.4
 40
0.4
 40
0.4
 40
0.4
 40
0.45
 40
0.45
 40
0.45
 40
0.45
 40
0.4999999999999999
 40
0.4999999999999999
 40
0.4999999999999999
 40
0.4999999999999999
 40
0.5499999999999999
 40
0.5499999999999999
 40
0.5499999999999999
 40
0.5499999999999999
 40
0.6
 40
0.6
 40
0.6
 40
0.6
 40
0.65
 40
0.65
 40
0.65
 40
0.65
 40
0.7000000000000001
 40
0.7000000000000001
 40
0.7000000000000001
 40
0.7000000000000001
 40
0.7500000000000001
 40
0.7500000000000001
 40
0.7500000000000001
 40
0.7500000000000001
 40
0.8000000000000002
 40
0.8000000000000002
 40
0.8000000000000002
 40
0.8000000000000002
 40
0.8500000000000002
 40
0.8500000000000002
 40
0.8500000000000002
 40
0.8500000000000002
 40
0.9000000000000002
 40
0.9000000000000002
 40
0.9000000000000002
 40
0.9000000000000002
 40
0.9500000000000003
 40
0.9500000000000003
 40
0.9500000000000003
 40
0.9500000000000003
 40
1.0
 40
1.0
 40
1.0
 40
1.0
 10
9.2
 20
-12.7
 30
0.0
 10
9.2
 20
-12.7
 30
0.0
 10
9.24015
 20
-12.7
 30
0.0
 10
9.24015
 20
-12.7
 30
0.0
 10
9.24015
 20
-12.7
 30
0.0
 10
9.2665
 20
-12.65447
 30
0.0
 10
9.30447
 20
-12.6165
 30
0.0
 10
9.35
 20
-12.59015
 30
0.0
 10
9.35
 20
-12.59015
 30
0.0
 10
9.35
 20
-12.59015
 30
0.0
 10
9.35
 20
-12.55
 30
0.0
 10
9.35
 20
-12.55
 30
0.0
 10
9.35
 20
-12.55
 30
0.0
 10
9.35
 20
-12.55
 30
0.0
 10
9.5
 20
-12.55
 30
0.0
 10
9.5
 20
-12.55
 30
0.0
 10
9.5
 20
-12.55
 30
0.0
 10
9.5
 20
-12.55
 30
0.0
 10
9.65
 20
-12.55
 30
0.0
 10
9.65
 20
-12.55
 30
0.0
 10
9.65
 20
-12.55
 30
0.0
 10
9.65
 20
-12.55
 30
0.0
 10
9.65
 20
-12.59015
 30
0.0
 10
9.65
 20
-12.59015
 30
0.0
 10
9.65
 20
-12.59015
 30
0.0
 10
9.69553
 20
-12.6165
 30
0.0
 10
9.7335
 20
-12.65447
 30
0.0
 10
9.75985
 20
-12.7
 30
0.0
 10
9.75985
 20
-12.7
 30
0.0
 10
9.75985
 20
-12.7
 30
0.0
 10
9.8
 20
-12.7
 30
0.0
 10
9.8
 20
-12.7
 30
0.0
 10
9.8
 20
-12.7
 30
0.0
 10
9.8
 20
-12.7
 30
0.0
 10
9.8
 20
-12.85
 30
0.0
 10
9.8
 20
-12.85
 30
0.0
 10
9.8
 20
-12.85
 30
0.0
 10
9.8
 20
-12.85
 30
0.0
 10
9.8
 20
-13.0
 30
0.0
 10
9.8
 20
-13.0
 30
0.0
 10
9.8
 20
-13.0
 30
0.0
 10
9.8
 20
-13.0
 30
0.0
 10
9.75985
 20
-13.0
 30
0.0
 10
9.75985
 20
-13.0
 30
0.0
 10
9.75985
 20
-13.0
 30
0.0
 10
9.7335
 20
-13.04553
 30
0.0
 10
9.69553
 20
-13.0835
 30
0.0
 10
9.65
 20
-13.10985
 30
0.0
 10
9.65
 20
-13.10985
 30
0.0
 10
9.65
 20
-13.10985
 30
0.0
 10
9.65
 20
-13.15
 30
0.0
 10
9.65
 20
-13.15
 30
0.0
 10
9.65
 20
-13.15
 30
0.0
 10
9.65
 20
-13.15
 30
0.0
 10
9.5
 20
-13.15
 30
0.0
 10
9.5
 20
-13.15
 30
0.0
 10
9.5
 20
-13.15
 30
0.0
 10
9.5
 20
-13.15
 30
0.0
 10
9.35
 20
-13.15
 30
0.0
 10
9.35
 20
-13.15
 30
0.0
 10
9.35
 20
-13.15
 30
0.0
 10
9.35
 20
-13.15
 30
0.0
 10
9.35
 20
-13.10985
 30
0.0
 10
9.35
 20
-13.10985
 30
0.0
 10
9.35
 20
-13.10985
 30
0.0
 10
9.30447
 20
-13.0835
 30
0.0
 10
9.2665
 20
-13.04553
 30
0.0
 10
9.24015
 20
-13.0
 30
0.0
 10
9.24015
 20
-13.0
 30
0.0
 10
9.24015
 20
-13.0
 30
0.0
 10
9.2
 20
-13.0
 30
0.0
 10
9.2
 20
-13.0
 30
0.0
 10
9.2
 20
-13.0
 30
0.0
 10
9.2
 20
-13.0
 30
0.0
 10
9.2
 20
-12.85
 30
0.0
 10
9.2
 20
-12.85
 30
0.0
 10
9.2
 20
-12.85
 30
0.0
 10
9.2
 20
-12.85
 30
0.0
 10
9.2
 20
-12.7
 30
0.0
 10
9.2
 20
-12.7
 30
0.0
  0
SPLINE
  5
75
330
1F
100
AcDbEntity
  8
Layer 1
370
    53
100
AcDbSpline
210
0.0
220
0.0
230
1.0
 70
    11
 71
     3
 72
    84
 73
    80
 74
     0
 42
0.0000000001
 43
0.0000000001
 40
0.0
 40
0.0
 40
0.0
 40
0.0
 40
0.05
 40
0.05
 40
0.05
 40
0.05
 40
0.1
 40
0.1
 40
0.1
 40
0.1
 40
0.15
 40
0.15
 40
0.15
 40
0.15
 40
0.2
 40
0.2
 40
0.2
 40
0.2
 40
0.25
 40
0.25
 40
0.25
 40
0.25
 40
0.3
 40
0.3
 40
0.3
 40
0.3
 40
0.35
 40
0.35
 40
0.35
 40
0.35
 40
0.4
 40
0.4
 40
0.4
 40
0.4
 40
0.45
 40
0.45
 40
0.45
 40
0.45
 40
0.4999999999999999
 40
0.4999999999999999
 40
0.4999999999999999
 40
0.4999999999999999
 40
0.5499999999999999
 40
0.5499999999999999
 40
0.5499999999999999
 40
0.5499999999999999
 40
0.6
 40
0.6
 40
0.6
 40
0.6
 40
0.65
 40
0.65
 40
0.65
 40
0.65
 40
0.7000000000000001
 40
0.7000000000000001
 40
0.7000000000000001
 40
0.7000000000000001
 40
0.7500000000000001
 40
0.7500000000000001
 40
0.7500000000000001
 40
0.7500000000000001
 40
0.8000000000000002
 40
0.8000000000000002
 40
0.8000000000000002
 40
0.8000000000000002
 40
0.8500000000000002
 40
0.8500000000000002
 40
0.8500000000000002
 40
0.8500000000000002
 40
0.9000000000000002
 40
0.9000000000000002
 40
0.9000000000000002
 40
0.9000000000000002
 40
0.9500000000000003
 40
0.9500000000000003
 40
0.9500000000000003
 40
0.9500000000000003
 40
1.0
 40
1.0
 40
1.0
 40
1.0
 10
13.2
 20
-16.7
 30
0.0
 10
13.2
 20
-16.7
 30
0.0
 10
13.24015
 20
-16.7
 30
0.0
 10
13.24015
 20
-16.7
 30
0.0
 10
13.24015
 20
-16.7
 30
0.0
 10
13.2665
 20
-16.65447
 30
0.0
 10
13.30447
 20
-16.6165
 30
0.0
 10
13.35
 20
-16.59015
 30
0.0
 10
13.35
 20
-16.59015
 30
0.0
 10
13.35
 20
-16.59015
 30
0.0
 10
13.35
 20
-16.55
 30
0.0
 10
13.35
 20
-16.55
 30
0.0
 10
13.35
 20
-16.55
 30
0.0
 10
13.35
 20
-16.55
 30
0.0
 10
13.5
 20
-16.55
 30
0.0
 10
13.5
 20
-16.55
 30
0.0
 10
13.5
 20
-16.55
 30
0.0
 10
13.5
 20
-16.55
 30
0.0
 10
13.65
 20
-16.55
 30
0.0
 10
13.65
 20
-16.55
 30
0.0
 10
13.65
 20
-16.55
 30
0.0
 10
13.65
 20
-16.55
 30
0.0
 10
13.65
 20
-16.59015
 30
0.0
 10
13.65
 20
-16.59015
 30
0.0
 10
13.65
 20
-16.59015
 30
0.0
 10
13.69553
 20
-16.6165
 30
0.0
 10
13.7335
 20
-16.65447
 30
0.0
 10
13.75985
 20
-16.7
 30
0.0
 10
13.75985
 20
-16.7
 30
0.0
 10
13.75985
 20
-16.7
 30
0.0
 10
13.8
 20
-16.7
 30
0.0
 10
13.8
 20
-16.7
 30
0.0
 10
13.8
 20
-16.7
 30
0.0
 10
13.8
 20
-16.7
 30
0.0
 10
13.8
 20
-16.85
 30
0.0
 10
13.8
 20
-16.85
 30
0.0
 10
13.8
 20
-16.85
 30
0.0
 10
13.8
 20
-16.85
 30
0.0
 10
13.8
 20
-17.0
 30
0.0
 10
13.8
 20
-17.0
 30
0.0
 10
13.8
 20
-17.0
 30
0.0
 10
13.8
 20
-17.0
 30
0.0
 10
13.75985
 20
-17.0
 30
0.0
 10
13.75985
 20
-17.0
 30
0.0
 10
13.75985
 20
-17.0
 30
0.0
 10
13.7335
 20
-17.04553
 30
0.0
 10
13.69553
 20
-17.0835
 30
0.0
 10
13.65
 20
-17.10985
 30
0.0
 10
13.65
 20
-17.10985
 30
0.0
 10
13.65
 20
-17.10985
 30
0.0
 10
13.65
 20
-17.15
 30
0.0
 10
13.65
 20
-17.15
 30
0.0
 10
13.65
 20
-17.15
 30
0.0
 10
13.65
 20
-17.15
 30
0.0
 10
13.5
 20
-17.15
 30
0.0
 10
13.5
 20
-17.15
 30
0.0
 10
13.5
 20
-17.15
 30
0.0
 10
13.5
 20
-17.15
 30
0.0
 10
13.35
 20
-17.15
 30
0.0
 10
13.35
 20
-17.15
 30
0.0
 10
13.35
 20
-17.15
 30
0.0
 10
13.35
 20
-17.15
 30
0.0
 10
13.35
 20
-17.10985
 30
0.0
 10
13.35
 20
-17.10985
 30
0.0
 10
13.35
 20
-17.10985
 30
0.0
 10
13.30447
 20
-17.0835
 30
0.0
 10
13.2665
 20
-17.04553
 30
0.0
 10
13.24015
 20
-17.0
 30
0.0
 10
13.24015
 20
-17.0
 30
0.0
 10
13.24015
 20
-17.0
 30
0.0
 10
13.2
 20
-17.0
 30
0.0
 10
13.2
 20
-17.0
 30
0.0
 10
13.2
 20
-17.0
 30
0.0
 10
13.2
 20
-17.0
 30
0.0
 10
13.2
 20
-16.85
 30
0.0
 10
13.2
 20
-16.85
 30
0.0
 10
13.2
 20
-16.85
 30
0.0
 10
13.2
 20
-16.85
 30
0.0
 10
13.2
 20
-16.7
 30
0.0
 10
13.2
 20
-16.7
 30
0.0
  0
SPLINE
  5
76
330
1F
100
AcDbEntity
  8
Layer 1
370
    53
100
AcDbSpline
210
0.0
220
0.0
230
1.0
 70
    11
 71
     3
 72
    84
 73
    80
 74
     0
 42
0.0000000001
 43
0.0000000001
 40
0.0
 40
0.0
 40
0.0
 40
0.0
 40
0.05
 40
0.05
 40
0.05
 40
0.05
 40
0.1
 40
0.1
 40
0.1
 40
0.1
 40
0.15
 40
0.15
 40
0.15
 40
0.15
 40
0.2
 40
0.2
 40
0.2
 40
0.2
 40
0.25
 40
0.25
 40
0.25
 40
0.25
 40
0.3
 40
0.3
 40
0.3
 40
0.3
 40
0.35
 40
0.35
 40
0.35
 40
0.35
 40
0.4
 40
0.4
 40
0.4
 40
0.4
 40
0.45
 40
0.45
 40
0.45
 40
0.45
 40
0.4999999999999999
 40
0.4999999999999999
 40
0.4999999999999999
 40
0.4999999999999999
 40
0.5499999999999999
 40
0.5499999999999999
 40
0.5499999999999999
 40
0.5499999999999999
 40
0.6
 40
0.6
 40
0.6
 40
0.6
 40
0.65
 40
0.65
 40
0.65
 40
0.65
 40
0.7000000000000001
 40
0.7000000000000001
 40
0.7000000000000001
 40
0.7000000000000001
 40
0.7500000000000001
 40
0.7500000000000001
 40
0.7500000000000001
 40
0.7500000000000001
 40
0.8000000000000002
 40
0.8000000000000002
 40
0.8000000000000002
 40
0.8000000000000002
 40
0.8500000000000002
 40
0.8500000000000002
 40
0.8500000000000002
 40
0.8500000000000002
 40
0.9000000000000002
 40
0.9000000000000002
 40
0.9000000000000002
 40
0.9000000000000002
 40
0.9500000000000003
 40
0.9500000000000003
 40
0.9500000000000003
 40
0.9500000000000003
 40
1.0
 40
1.0
 40
1.0
 40
1.0
 10
13.2
 20
-12.7
 30
0.0
 10
13.2
 20
-12.7
 30
0.0
 10
13.24015
 20
-12.7
 30
0.0
 10
13.24015
 20
-12.7
 30
0.0
 10
13.24015
 20
-12.7
 30
0.0
 10
13.2665
 20
-12.65447
 30
0.0
 10
13.30447
 20
-12.6165
 30
0.0
 10
13.35
 20
-12.59015
 30
0.0
 10
13.35
 20
-12.59015
 30
0.0
 10
13.35
 20
-12.59015
 30
0.0
 10
13.35
 20
-12.55
 30
0.0
 10
13.35
 20
-12.55
 30
0.0
 10
13.35
 20
-12.55
 30
0.0
 10
13.35
 20
-12.55
 30
0.0
 10
13.5
 20
-12.55
 30
0.0
 10
13.5
 20
-12.55
 30
0.0
 10
13.5
 20
-12.55
 30
0.0
 10
13.5
 20
-12.55
 30
0.0
 10
13.65
 20
-12.55
 30
0.0
 10
13.65
 20
-12.55
 30
0.0
 10
13.65
 20
-12.55
 30
0.0
 10
13.65
 20
-12.55
 30
0.0
 10
13.65
 20
-12.59015
 30
0.0
 10
13.65
 20
-12.59015
 30
0.0
 10
13.65
 20
-12.59015
 30
0.0
 10
13.69553
 20
-12.6165
 30
0.0
 10
13.7335
 20
-12.65447
 30
0.0
 10
13.75985
 20
-12.7
 30
0.0
 10
13.75985
 20
-12.7
 30
0.0
 10
13.75985
 20
-12.7
 30
0.0
 10
13.8
 20
-12.7
 30
0.0
 10
13.8
 20
-12.7
 30
0.0
 10
13.8
 20
-12.7
 30
0.0
 10
13.8
 20
-12.7
 30
0.0
 10
13.8
 20
-12.85
 30
0.0
 10
13.8
 20
-12.85
 30
0.0
 10
13.8
 20
-12.85
 30
0.0
 10
13.8
 20
-12.85
 30
0.0
 10
13.8
 20
-13.0
 30
0.0
 10
13.8
 20
-13.0
 30
0.0
 10
13.8
 20
-13.0
 30
0.0
 10
13.8
 20
-13.0
 30
0.0
 10
13.75985
 20
-13.0
 30
0.0
 10
13.75985
 20
-13.0
 30
0.0
 10
13.75985
 20
-13.0
 30
0.0
 10
13.7335
 20
-13.04553
 30
0.0
 10
13.69553
 20
-13.0835
 30
0.0
 10
13.65
 20
-13.10985
 30
0.0
 10
13.65
 20
-13.10985
 30
0.0
 10
13.65
 20
-13.10985
 30
0.0
 10
13.65
 20
-13.15
 30
0.0
 10
13.65
 20
-13.15
 30
0.0
 10
13.65
 20
-13.15
 30
0.0
 10
13.65
 20
-13.15
 30
0.0
 10
13.5
 20
-13.15
 30
0.0
 10
13.5
 20
-13.15
 30
0.0
 10
13.5
 20
-13.15
 30
0.0
 10
13.5
 20
-13.15
 30
0.0
 10
13.35
 20
-13.15
 30
0.0
 10
13.35
 20
-13.15
 30
0.0
 10
13.35
 20
-13.15
 30
0.0
 10
13.35
 20
-13.15
 30
0.0
 10
13.35
 20
-13.10985
 30
0.0
 10
13.35
 20
-13.10985
 30
0.0
 10
13.35
 20
-13.10985
 30
0.0
 10
13.30447
 20
-13.0835
 30
0.0
 10
13.2665
 20
-13.04553
 30
0.0
 10
13.24015
 20
-13.0
 30
0.0
 10
13.24015
 20
-13.0
 30
0.0
 10
13.24015
 20
-13.0
 30
0.0
 10
13.2
 20
-13.0
 30
0.0
 10
13.2
 20
-13.0
 30
0.0
 10
13.2
 20
-13.0
 30
0.0
 10
13.2
 20
-13.0
 30
0.0
 10
13.2
 20
-12.85
 30
0.0
 10
13.2
 20
-12.85
 30
0.0
 10
13.2
 20
-12.85
 30
0.0
 10
13.2
 20
-12.85
 30
0.0
 10
13.2
 20
-12.7
 30
0.0
 10
13.2
 20
-12.7
 30
0.0
  0
SPLINE
  5
77
330
1F
100
AcDbEntity
  8
Layer 1
370
    53
100
AcDbSpline
210
0.0
220
0.0
230
1.0
 70
    11
 71
     3
 72
    36
 73
    32
 74
     0
 42
0.0000000001
 43
0.0000000001
 40
0.0
 40
0.0
 40
0.0
 40
0.0
 40
0.125
 40
0.125
 40
0.125
 40
0.125
 40
0.25
 40
0.25
 40
0.25
 40
0.25
 40
0.375
 40
0.375
 40
0.375
 40
0.375
 40
0.5
 40
0.5
 40
0.5
 40
0.5
 40
0.625
 40
0.625
 40
0.625
 40
0.625
 40
0.75
 40
0.75
 40
0.75
 40
0.75
 40
0.875
 40
0.875
 40
0.875
 40
0.875
 40
1.0
 40
1.0
 40
1.0
 40
1.0
 10
8.85
 20
-17.0
 30
0.0
 10
8.85
 20
-17.0
 30
0.0
 10
8.85
 20
-12.7
 30
0.0
 10
8.85
 20
-12.7
 30
0.0
 10
8.85
 20
-12.7
 30
0.0
 10
8.85
 20
-12.42391
 30
0.0
 10
9.07391
 20
-12.2
 30
0.0
 10
9.35
 20
-12.2
 30
0.0
 10
9.35
 20
-12.2
 30
0.0
 10
9.35
 20
-12.2
 30
0.0
 10
13.65
 20
-12.2
 30
0.0
 10
13.65
 20
-12.2
 30
0.0
 10
13.65
 20
-12.2
 30
0.0
 10
13.92609
 20
-12.2
 30
0.0
 10
14.15
 20
-12.42391
 30
0.0
 10
14.15
 20
-12.7
 30
0.0
 10
14.15
 20
-12.7
 30
0.0
 10
14.15
 20
-12.7
 30
0.0
 10
14.15
 20
-17.0
 30
0.0
 10
14.15
 20
-17.0
 30
0.0
 10
14.15
 20
-17.0
 30
0.0
 10
14.15
 20
-17.27609
 30
0.0
 10
13.92609
 20
-17.5
 30
0.0
 10
13.65
 20
-17.5
 30
0.0
 10
13.65
 20
-17.5
 30
0.0
 10
13.65
 20
-17.5
 30
0.0
 10
9.35
 20
-17.5
 30
0.0
 10
9.35
 20
-17.5
 30
0.0
 10
9.35
 20
-17.5
 30
0.0
 10
9.07391
 20
-17.5
 30
0.0
 10
8.85
 20
-17.27609
 30
0.0
 10
8.85
 20
-17.0
 30
0.0
  0
ELLIPSE
  5
78
330
1F
100
AcDbEntity
  8
Layer 1
370
    53
100
AcDbEllipse
 10
9.5
 20
-14.85
 30
0.0
 11
0.0
 21
0.24
 31
0.0
210
0.0
220
0.0
230
1.0
 40
1.0
 41
0.0
 42
6.283185307179586
  0
ELLIPSE
  5
79
330
1F
100
AcDbEntity
  8
Layer 1
370
    53
100
AcDbEllipse
 10
13.5
 20
-14.85
 30
0.0
 11
0.0
 21
0.24
 31
0.0
210
0.0
220
0.0
230
1.0
 40
1.0
 41
0.0
 42
6.283185307179586
  0
SPLINE
  5
7A
330
1F
100
AcDbEntity
  8
Layer 1
370
    53
100
AcDbSpline
210
0.0
220
0.0
230
1.0
 70
    11
 71
     3
 72
    84
 73
    80
 74
     0
 42
0.0000000001
 43
0.0000000001
 40
0.0
 40
0.0
 40
0.0
 40
0.0
 40
0.05
 40
0.05
 40
0.05
 40
0.05
 40
0.1
 40
0.1
 40
0.1
 40
0.1
 40
0.15
 40
0.15
 40
0.15
 40
0.15
 40
0.2
 40
0.2
 40
0.2
 40
0.2
 40
0.25
 40
0.25
 40
0.25
 40
0.25
 40
0.3
 40
0.3
 40
0.3
 40
0.3
 40
0.35
 40
0.35
 40
0.35
 40
0.35
 40
0.4
 40
0.4
 40
0.4
 40
0.4
 40
0.45
 40
0.45
 40
0.45
 40
0.45
 40
0.4999999999999999
 40
0.4999999999999999
 40
0.4999999999999999
 40
0.4999999999999999
 40
0.5499999999999999
 40
0.5499999999999999
 40
0.5499999999999999
 40
0.5499999999999999
 40
0.6
 40
0.6
 40
0.6
 40
0.6
 40
0.65
 40
0.65
 40
0.65
 40
0.65
 40
0.7000000000000001
 40
0.7000000000000001
 40
0.7000000000000001
 40
0.7000000000000001
 40
0.7500000000000001
 40
0.7500000000000001
 40
0.7500000000000001
 40
0.7500000000000001
 40
0.8000000000000002
 40
0.8000000000000002
 40
0.8000000000000002
 40
0.8000000000000002
 40
0.8500000000000002
 40
0.8500000000000002
 40
0.8500000000000002
 40
0.8500000000000002
 40
0.9000000000000002
 40
0.9000000000000002
 40
0.9000000000000002
 40
0.9000000000000002
 40
0.9500000000000003
 40
0.9500000000000003
 40
0.9500000000000003
 40
0.9500000000000003
 40
1.0
 40
1.0
 40
1.0
 40
1.0
 10
11.2
 20
-12.7
 30
0.0
 10
11.2
 20
-12.7
 30
0.0
 10
11.24015
 20
-12.7
 30
0.0
 10
11.24015
 20
-12.7
 30
0.0
 10
11.24015
 20
-12.7
 30
0.0
 10
11.2665
 20
-12.65447
 30
0.0
 10
11.30447
 20
-12.6165
 30
0.0
 10
11.35
 20
-12.59015
 30
0.0
 10
11.35
 20
-12.59015
 30
0.0
 10
11.35
 20
-12.59015
 30
0.0
 10
11.35
 20
-12.55
 30
0.0
 10
11.35
 20
-12.55
 30
0.0
 10
11.35
 20
-12.55
 30
0.0
 10
11.35
 20
-12.55
 30
0.0
 10
11.5
 20
-12.55
 30
0.0
 10
11.5
 20
-12.55
 30
0.0
 10
11.5
 20
-12.55
 30
0.0
 10
11.5
 20
-12.55
 30
0.0
 10
11.65
 20
-12.55
 30
0.0
 10
11.65
 20
-12.55
 30
0.0
 10
11.65
 20
-12.55
 30
0.0
 10
11.65
 20
-12.55
 30
0.0
 10
11.65
 20
-12.59015
 30
0.0
 10
11.65
 20
-12.59015
 30
0.0
 10
11.65
 20
-12.59015
 30
0.0
 10
11.69553
 20
-12.6165
 30
0.0
 10
11.7335
 20
-12.65447
 30
0.0
 10
11.75985
 20
-12.7
 30
0.0
 10
11.75985
 20
-12.7
 30
0.0
 10
11.75985
 20
-12.7
 30
0.0
 10
11.8
 20
-12.7
 30
0.0
 10
11.8
 20
-12.7
 30
0.0
 10
11.8
 20
-12.7
 30
0.0
 10
11.8
 20
-12.7
 30
0.0
 10
11.8
 20
-12.85
 30
0.0
 10
11.8
 20
-12.85
 30
0.0
 10
11.8
 20
-12.85
 30
0.0
 10
11.8
 20
-12.85
 30
0.0
 10
11.8
 20
-13.0
 30
0.0
 10
11.8
 20
-13.0
 30
0.0
 10
11.8
 20
-13.0
 30
0.0
 10
11.8
 20
-13.0
 30
0.0
 10
11.75985
 20
-13.0
 30
0.0
 10
11.75985
 20
-13.0
 30
0.0
 10
11.75985
 20
-13.0
 30
0.0
 10
11.7335
 20
-13.04553
 30
0.0
 10
11.69553
 20
-13.0835
 30
0.0
 10
11.65
 20
-13.10985
 30
0.0
 10
11.65
 20
-13.10985
 30
0.0
 10
11.65
 20
-13.10985
 30
0.0
 10
11.65
 20
-13.15
 30
0.0
 10
11.65
 20
-13.15
 30
0.0
 10
11.65
 20
-13.15
 30
0.0
 10
11.65
 20
-13.15
 30
0.0
 10
11.5
 20
-13.15
 30
0.0
 10
11.5
 20
-13.15
 30
0.0
 10
11.5
 20
-13.15
 30
0.0
 10
11.5
 20
-13.15
 30
0.0
 10
11.35
 20
-13.15
 30
0.0
 10
11.35
 20
-13.15
 30
0.0
 10
11.35
 20
-13.15
 30
0.0
 10
11.35
 20
-13.15
 30
0.0
 10
11.35
 20
-13.10985
 30
0.0
 10
11.35
 20
-13.10985
 30
0.0
 10
11.35
 20
-13.10985
 30
0.0
 10
11.30447
 20
-13.0835
 30
0.0
 10
11.2665
 20
-13.04553
 30
0.0
 10
11.24015
 20
-13.0
 30
0.0
 10
11.24015
 20
-13.0
 30
0.0
 10
11.24015
 20
-13.0
 30
0.0
 10
11.2
 20
-13.0
 30
0.0
 10
11.2
 20
-13.0
 30
0.0
 10
11.2
 20
-13.0
 30
0.0
 10
11.2
 20
-13.0
 30
0.0
 10
11.2
 20
-12.85
 30
0.0
 10
11.2
 20
-12.85
 30
0.0
 10
11.2
 20
-12.85
 30
0.0
 10
11.2
 20
-12.85
 30
0.0
 10
11.2
 20
-12.7
 30
0.0
 10
11.2
 20
-12.7
 30
0.0
  0
SPLINE
  5
7B
330
1F
100
AcDbEntity
  8
Layer 1
370
    53
100
AcDbSpline
210
0.0
220
0.0
230
1.0
 70
    11
 71
     3
 72
    20
 73
    16
 74
     0
 42
0.0000000001
 43
0.0000000001
 40
0.0
 40
0.0
 40
0.0
 40
0.0
 40
0.25
 40
0.25
 40
0.25
 40
0.25
 40
0.5
 40
0.5
 40
0.5
 40
0.5
 40
0.75
 40
0.75
 40
0.75
 40
0.75
 40
1.0
 40
1.0
 40
1.0
 40
1.0
 10
10.2
 20
-13.0
 30
0.0
 10
10.2
 20
-13.0
 30
0.0
 10
10.2
 20
-12.7
 30
0.0
 10
10.2
 20
-12.7
 30
0.0
 10
10.2
 20
-12.7
 30
0.0
 10
10.2
 20
-12.7
 30
0.0
 10
10.8
 20
-12.7
 30
0.0
 10
10.8
 20
-12.7
 30
0.0
 10
10.8
 20
-12.7
 30
0.0
 10
10.8
 20
-12.7
 30
0.0
 10
10.8
 20
-13.0
 30
0.0
 10
10.8
 20
-13.0
 30
0.0
 10
10.8
 20
-13.0
 30
0.0
 10
10.8
 20
-13.0
 30
0.0
 10
10.2
 20
-13.0
 30
0.0
 10
10.2
 20
-13.0
 30
0.0
  0
SPLINE
  5
7C
330
1F
100
AcDbEntity
  8
Layer 1
370
    53
100
AcDbSpline
210
0.0
220
0.0
230
1.0
 70
    11
 71
     3
 72
    20
 73
    16
 74
     0
 42
0.0000000001
 43
0.0000000001
 40
0.0
 40
0.0
 40
0.0
 40
0.0
 40
0.25
 40
0.25
 40
0.25
 40
0.25
 40
0.5
 40
0.5
 40
0.5
 40
0.5
 40
0.75
 40
0.75
 40
0.75
 40
0.75
 40
1.0
 40
1.0
 40
1.0
 40
1.0
 10
12.2
 20
-13.0
 30
0.0
 10
12.2
 20
-13.0
 30
0.0
 10
12.2
 20
-12.7
 30
0.0
 10
12.2
 20
-12.7
 30
0.0
 10
12.2
 20
-12.7
 30
0.0
 10
12.2
 20
-12.7
 30
0.0
 10
12.8
 20
-12.7
 30
0.0
 10
12.8
 20
-12.7
 30
0.0
 10
12.8
 20
-12.7
 30
0.0
 10
12.8
 20
-12.7
 30
0.0
 10
12.8
 20
-13.0
 30
0.0
 10
12.8
 20
-13.0
 30
0.0
 10
12.8
 20
-13.0
 30
0.0
 10
12.8
 20
-13.0
 30
0.0
 10
12.2
 20
-13.0
 30
0.0
 10
12.2
 20
-13.0
 30
0.0
  0
SPLINE
  5
7D
330
1F
100
AcDbEntity
  8
Layer 1
 62
     5
370
    53
100
AcDbSpline
210
0.0
220
0.0
230
1.0
 70
    24
 71
     3
 72
     8
 73
     4
 74
     0
 42
0.0000000001
 43
0.0000000001
 40
0.0
 40
0.0
 40
0.0
 40
0.0
 40
1.0
 40
1.0
 40
1.0
 40
1.0
 10
11.49998
 20
-14.05001
 30
0.0
 10
11.49998
 20
-14.05001
 30
0.0
 10
11.49998
 20
-13.55001
 30
0.0
 10
11.49998
 20
-13.55001
 30
0.0
  0
SPLINE
  5
7E
330
1F
100
AcDbEntity
  8
Layer 1
 62
     5
370
    53
100
AcDbSpline
210
0.0
220
0.0
230
1.0
 70
    24
 71
     3
 72
     8
 73
     4
 74
     0
 42
0.0000000001
 43
0.0000000001
 40
0.0
 40
0.0
 40
0.0
 40
0.0
 40
1.0
 40
1.0
 40
1.0
 40
1.0
 10
10.72725
 20
-14.64295
 30
0.0
 10
10.72725
 20
-14.64295
 30
0.0
 10
10.24429
 20
-14.51354
 30
0.0
 10
10.24429
 20
-14.51354
 30
0.0
  0
SPLINE
  5
7F
330
1F
100
AcDbEntity
  8
Layer 1
 62
     5
370
    53
100
AcDbSpline
210
0.0
220
0.0
230
1.0
 70
    24
 71
     3
 72
     8
 73
     4
 74
     0
 42
0.0000000001
 43
0.0000000001
 40
0.0
 40
0.0
 40
0.0
 40
0.0
 40
1.0
 40
1.0
 40
1.0
 40
1.0
 10
12.27274
 20
-14.64293
 30
0.0
 10
12.27274
 20
-14.64293
 30
0.0
 10
12.7557
 20
-14.51352
 30
0.0
 10
12.7557
 20
-14.51352
 30
0.0
  0
SPLINE
  5
80
330
1F
100
AcDbEntity
  8
Layer 1
 62
     5
370
    53
100
AcDbSpline
210
0.0
220
0.0
230
1.0
 70
    24
 71
     3
 72
     8
 73
     4
 74
     0
 42
0.0000000001
 43
0.0000000001
 40
0.0
 40
0.0
 40
0.0
 40
0.0
 40
1.0
 40
1.0
 40
1.0
 40
1.0
 10
11.90001
 20
-15.54282
 30
0.0
 10
11.90001
 20
-15.54282
 30
0.0
 10
12.15001
 20
-15.97583
 30
0.0
 10
12.15001
 20
-15.97583
 30
0.0
  0
SPLINE
  5
81
330
1F
100
AcDbEntity
  8
Layer 1
 62
     5
370
    53
100
AcDbSpline
210
0.0
220
0.0
230
1.0
 70
    24
 71
     3
 72
     8
 73
     4
 74
     0
 42
0.0000000001
 43
0.0000000001
 40
0.0
 40
0.0
 40
0.0
 40
0.0
 40
1.0
 40
1.0
 40
1.0
 40
1.0
 10
11.10001
 20
-15.54283
 30
0.0
 10
11.10001
 20
-15.54283
 30
0.0
 10
10.85001
 20
-15.97584
 30
0.0
 10
10.85001
 20
-15.97584
 30
0.0
  0
SPLINE
  5
82
330
1F
100
AcDbEntity
  8
Layer 1
 62
     5
370
    53
100
AcDbSpline
210
0.0
220
0.0
230
1.0
 70
    24
 71
     3
 72
     8
 73
     4
 74
     0
 42
0.0000000001
 43
0.0000000001
 40
0.0
 40
0.0
 40
0.0
 40
0.0
 40
1.0
 40
1.0
 40
1.0
 40
1.0
 10
11.01298
 20
-14.21533
 30
0.0
 10
11.01298
 20
-14.21533
 30
0.0
 10
10.89123
 20
-14.05666
 30
0.0
 10
10.89123
 20
-14.05666
 30
0.0
  0
SPLINE
  5
83
330
1F
100
AcDbEntity
  8
Layer 1
 62
     5
370
    53
100
AcDbSpline
210
0.0
220
0.0
230
1.0
 70
    24
 71
     3
 72
     8
 73
     4
 74
     0
 42
0.0000000001
 43
0.0000000001
 40
0.0
 40
0.0
 40
0.0
 40
0.0
 40
1.0
 40
1.0
 40
1.0
 40
1.0
 10
11.98699
 20
-14.21532
 30
0.0
 10
11.98699
 20
-14.21532
 30
0.0
 10
12.10874
 20
-14.05665
 30
0.0
 10
12.10874
 20
-14.05665
 30
0.0
  0
SPLINE
  5
84
330
1F
100
AcDbEntity
  8
Layer 1
 62
     5
370
    53
100
AcDbSpline
210
0.0
220
0.0
230
1.0
 70
    24
 71
     3
 72
     8
 73
     4
 74
     0
 42
0.0000000001
 43
0.0000000001
 40
0.0
 40
0.0
 40
0.0
 40
0.0
 40
1.0
 40
1.0
 40
1.0
 40
1.0
 10
11.98699
 20
-14.21532
 30
0.0
 10
11.98699
 20
-14.21532
 30
0.0
 10
12.10874
 20
-14.05665
 30
0.0
 10
12.10874
 20
-14.05665
 30
0.0
  0
SPLINE
  5
85
330
1F
100
AcDbEntity
  8
Layer 1
 62
     5
370
    53
100
AcDbSpline
210
0.0
220
0.0
230
1.0
 70
    24
 71
     3
 72
     8
 73
     4
 74
     0
 42
0.0000000001
 43
0.0000000001
 40
0.0
 40
0.0
 40
0.0
 40
0.0
 40
1.0
 40
1.0
 40
1.0
 40
1.0
 10
10.76089
 20
-15.15617
 30
0.0
 10
10.76089
 20
-15.15617
 30
0.0
 10
10.57611
 20
-15.23271
 30
0.0
 10
10.57611
 20
-15.23271
 30
0.0
  0
SPLINE
  5
86
330
1F
100
AcDbEntity
  8
Layer 1
 62
     5
370
    53
100
AcDbSpline
210
0.0
220
0.0
230
1.0
 70
    24
 71
     3
 72
     8
 73
     4
 74
     0
 42
0.0000000001
 43
0.0000000001
 40
0.0
 40
0.0
 40
0.0
 40
0.0
 40
1.0
 40
1.0
 40
1.0
 40
1.0
 10
12.2391
 20
-15.15614
 30
0.0
 10
12.2391
 20
-15.15614
 30
0.0
 10
12.42388
 20
-15.23268
 30
0.0
 10
12.42388
 20
-15.23268
 30
0.0
  0
ENDSEC
  0
SECTION
  2
OBJECTS
  0
DICTIONARY
  5
C
330
0
100
AcDbDictionary
281
     1
  3
ACAD_GROUP
350
D
  3
ACAD_LAYOUT
350
1A
  3
ACAD_MLEADERSTYLE
350
88
  3
ACAD_MLINESTYLE
350
17
  3
ACAD_PLOTSETTINGS
350
19
  3
ACAD_PLOTSTYLENAME
350
E
  3
ACAD_SCALELIST
350
3B
  3
ACAD_TABLESTYLE
350
87
  3
ACAD_VISUALSTYLE
350
2A
  0
DICTIONARY
  5
D
102
{ACAD_REACTORS
330
C
102
}
330
C
100
AcDbDictionary
281
     1
  0
DICTIONARY
  5
1A
102
{ACAD_REACTORS
330
C
102
}
330
C
100
AcDbDictionary
281
     1
  3
Layout1
350
1E
  3
Layout2
350
26
  3
Model
350
22
  0
DICTIONARY
  5
88
102
{ACAD_REACTORS
330
C
102
}
330
C
100
AcDbDictionary
281
     1
  0
DICTIONARY
  5
17
102
{ACAD_REACTORS
330
C
102
}
330
C
100
AcDbDictionary
281
     1
  3
Standard
350
18
  0
DICTIONARY
  5
19
102
{ACAD_REACTORS
330
C
102
}
330
C
100
AcDbDictionary
281
     1
  0
ACDBDICTIONARYWDFLT
  5
E
102
{ACAD_REACTORS
330
C
102
}
330
C
100
AcDbDictionary
281
     1
  3
Normal
350
F
100
AcDbDictionaryWithDefault
340
F
  0
DICTIONARY
  5
3B
102
{ACAD_REACTORS
330
C
102
}
330
C
100
AcDbDictionary
281
     1
  3
A0
350
3C
  3
A1
350
3D
  3
A2
350
3E
  3
A3
350
3F
  3
A4
350
40
  3
A5
350
41
  3
A6
350
42
  3
A7
350
43
  3
A8
350
44
  3
A9
350
45
  3
B0
350
46
  3
B1
350
47
  3
B2
350
48
  3
B3
350
49
  3
B4
350
4A
  3
B5
350
4B
  3
B6
350
4C
  3
B7
350
4D
  3
B8
350
4E
  3
B9
350
4F
  3
C0
350
50
  3
C1
350
51
  3
C2
350
52
  3
C3
350
53
  3
C4
350
54
  3
C5
350
55
  3
C6
350
56
  3
C7
350
57
  3
C8
350
58
  3
C9
350
59
  3
D0
350
5A
  3
D1
350
5B
  3
D2
350
5C
  0
DICTIONARY
  5
87
102
{ACAD_REACTORS
330
C
102
}
330
C
100
AcDbDictionary
281
     1
  0
DICTIONARY
  5
2A
102
{ACAD_REACTORS
330
C
102
}
330
C
100
AcDbDictionary
281
     1
  3
2dWireframe
350
2F
  3
3D Hidden
350
31
  3
3dWireframe
350
30
  3
Basic
350
32
  3
Brighten
350
36
  3
ColorChange
350
3A
  3
Conceptual
350
34
  3
Dim
350
35
  3
Facepattern
350
39
  3
Flat
350
2B
  3
FlatWithEdges
350
2C
  3
Gouraud
350
2D
  3
GouraudWithEdges
350
2E
  3
Linepattern
350
38
  3
Realistic
350
33
  3
Thicken
350
37
  0
LAYOUT
  5
1E
102
{ACAD_REACTORS
330
1A
102
}
330
1A
100
AcDbPlotSettings
  1

  2
none_device
  4

  6

 40
0.0
 41
0.0
 42
0.0
 43
0.0
 44
0.0
 45
0.0
 46
0.0
 47
0.0
 48
0.0
 49
0.0
140
0.0
141
0.0
142
1.0
143
1.0
 70
   688
 72
     0
 73
     0
 74
     5
  7

 75
    16
 76
     0
 77
     2
 78
   300
147
1.0
148
0.0
149
0.0
100
AcDbLayout
  1
Layout1
 70
     1
 71
     1
 10
0.0
 20
0.0
 11
12.0
 21
9.0
 12
0.0
 22
0.0
 32
0.0
 14
1.000000000000000E+20
 24
1.000000000000000E+20
 34
1.000000000000000E+20
 15
-1.000000000000000E+20
 25
-1.000000000000000E+20
 35
-1.000000000000000E+20
146
0.0
 13
0.0
 23
0.0
 33
0.0
 16
1.0
 26
0.0
 36
0.0
 17
0.0
 27
1.0
 37
0.0
 76
     0
330
1B
  0
LAYOUT
  5
26
102
{ACAD_REACTORS
330
1A
102
}
330
1A
100
AcDbPlotSettings
  1

  2
none_device
  4

  6

 40
0.0
 41
0.0
 42
0.0
 43
0.0
 44
0.0
 45
0.0
 46
0.0
 47
0.0
 48
0.0
 49
0.0
140
0.0
141
0.0
142
1.0
143
1.0
 70
   688
 72
     0
 73
     0
 74
     5
  7

 75
    16
 76
     0
 77
     2
 78
   300
147
1.0
148
0.0
149
0.0
100
AcDbLayout
  1
Layout2
 70
     1
 71
     2
 10
0.0
 20
0.0
 11
0.0
 21
0.0
 12
0.0
 22
0.0
 32
0.0
 14
0.0
 24
0.0
 34
0.0
 15
0.0
 25
0.0
 35
0.0
146
0.0
 13
0.0
 23
0.0
 33
0.0
 16
1.0
 26
0.0
 36
0.0
 17
0.0
 27
1.0
 37
0.0
 76
     0
330
23
  0
LAYOUT
  5
22
102
{ACAD_REACTORS
330
1A
102
}
330
1A
100
AcDbPlotSettings
  1

  2
none_device
  4

  6

 40
0.0
 41
0.0
 42
0.0
 43
0.0
 44
0.0
 45
0.0
 46
0.0
 47
0.0
 48
0.0
 49
0.0
140
0.0
141
0.0
142
1.0
143
1.0
 70
  1712
 72
     0
 73
     0
 74
     0
  7

 75
     0
 76
     0
 77
     2
 78
   300
147
1.0
148
0.0
149
0.0
100
AcDbLayout
  1
Model
 70
     1
 71
     0
 10
0.0
 20
0.0
 11
12.0
 21
9.0
 12
0.0
 22
0.0
 32
0.0
 14
8.82354
 24
-17.52646
 34
0.0
 15
14.17646
 25
-12.17354
 35
0.0
146
0.0
 13
0.0
 23
0.0
 33
0.0
 16
1.0
 26
0.0
 36
0.0
 17
0.0
 27
1.0
 37
0.0
 76
     0
330
1F
331
29
  0
MLINESTYLE
  5
18
102
{ACAD_REACTORS
330
17
102
}
330
17
100
AcDbMlineStyle
  2
Standard
 70
     0
  3

 62
   256
 51
90.0
 52
90.0
 71
     2
 49
0.5
 62
   256
  6
BYLAYER
 49
-0.5
 62
   256
  6
BYLAYER
  0
ACDBPLACEHOLDER
  5
F
102
{ACAD_REACTORS
330
E
102
}
330
E
  0
SCALE
  5
3C
102
{ACAD_REACTORS
330
3B
102
}
330
3B
100
AcDbScale
 70
     0
300
1:1
140
1.0
141
1.0
290
     1
  0
SCALE
  5
3D
102
{ACAD_REACTORS
330
3B
102
}
330
3B
100
AcDbScale
 70
     0
300
1:2
140
1.0
141
2.0
290
     0
  0
SCALE
  5
3E
102
{ACAD_REACTORS
330
3B
102
}
330
3B
100
AcDbScale
 70
     0
300
1:4
140
1.0
141
4.0
290
     0
  0
SCALE
  5
3F
102
{ACAD_REACTORS
330
3B
102
}
330
3B
100
AcDbScale
 70
     0
300
1:5
140
1.0
141
5.0
290
     0
  0
SCALE
  5
40
102
{ACAD_REACTORS
330
3B
102
}
330
3B
100
AcDbScale
 70
     0
300
1:8
140
1.0
141
8.0
290
     0
  0
SCALE
  5
41
102
{ACAD_REACTORS
330
3B
102
}
330
3B
100
AcDbScale
 70
     0
300
1:10
140
1.0
141
10.0
290
     0
  0
SCALE
  5
42
102
{ACAD_REACTORS
330
3B
102
}
330
3B
100
AcDbScale
 70
     0
300
1:16
140
1.0
141
16.0
290
     0
  0
SCALE
  5
43
102
{ACAD_REACTORS
330
3B
102
}
330
3B
100
AcDbScale
 70
     0
300
1:20
140
1.0
141
20.0
290
     0
  0
SCALE
  5
44
102
{ACAD_REACTORS
330
3B
102
}
330
3B
100
AcDbScale
 70
     0
300
1:30
140
1.0
141
30.0
290
     0
  0
SCALE
  5
45
102
{ACAD_REACTORS
330
3B
102
}
330
3B
100
AcDbScale
 70
     0
300
1:40
140
1.0
141
40.0
290
     0
  0
SCALE
  5
46
102
{ACAD_REACTORS
330
3B
102
}
330
3B
100
AcDbScale
 70
     0
300
1:50
140
1.0
141
50.0
290
     0
  0
SCALE
  5
47
102
{ACAD_REACTORS
330
3B
102
}
330
3B
100
AcDbScale
 70
     0
300
1:100
140
1.0
141
100.0
290
     0
  0
SCALE
  5
48
102
{ACAD_REACTORS
330
3B
102
}
330
3B
100
AcDbScale
 70
     0
300
2:1
140
2.0
141
1.0
290
     0
  0
SCALE
  5
49
102
{ACAD_REACTORS
330
3B
102
}
330
3B
100
AcDbScale
 70
     0
300
4:1
140
4.0
141
1.0
290
     0
  0
SCALE
  5
4A
102
{ACAD_REACTORS
330
3B
102
}
330
3B
100
AcDbScale
 70
     0
300
8:1
140
8.0
141
1.0
290
     0
  0
SCALE
  5
4B
102
{ACAD_REACTORS
330
3B
102
}
330
3B
100
AcDbScale
 70
     0
300
10:1
140
10.0
141
1.0
290
     0
  0
SCALE
  5
4C
102
{ACAD_REACTORS
330
3B
102
}
330
3B
100
AcDbScale
 70
     0
300
100:1
140
100.0
141
1.0
290
     0
  0
SCALE
  5
4D
102
{ACAD_REACTORS
330
3B
102
}
330
3B
100
AcDbScale
 70
     0
300
1/128" = 1'-0"
140
0.0078125
141
12.0
290
     0
  0
SCALE
  5
4E
102
{ACAD_REACTORS
330
3B
102
}
330
3B
100
AcDbScale
 70
     0
300
1/64" = 1'-0"
140
0.015625
141
12.0
290
     0
  0
SCALE
  5
4F
102
{ACAD_REACTORS
330
3B
102
}
330
3B
100
AcDbScale
 70
     0
300
1/32" = 1'-0"
140
0.03125
141
12.0
290
     0
  0
SCALE
  5
50
102
{ACAD_REACTORS
330
3B
102
}
330
3B
100
AcDbScale
 70
     0
300
1/16" = 1'-0"
140
0.0625
141
12.0
290
     0
  0
SCALE
  5
51
102
{ACAD_REACTORS
330
3B
102
}
330
3B
100
AcDbScale
 70
     0
300
3/32" = 1'-0"
140
0.09375
141
12.0
290
     0
  0
SCALE
  5
52
102
{ACAD_REACTORS
330
3B
102
}
330
3B
100
AcDbScale
 70
     0
300
1/8" = 1'-0"
140
0.125
141
12.0
290
     0
  0
SCALE
  5
53
102
{ACAD_REACTORS
330
3B
102
}
330
3B
100
AcDbScale
 70
     0
300
3/16" = 1'-0"
140
0.1875
141
12.0
290
     0
  0
SCALE
  5
54
102
{ACAD_REACTORS
330
3B
102
}
330
3B
100
AcDbScale
 70
     0
300
1/4" = 1'-0"
140
0.25
141
12.0
290
     0
  0
SCALE
  5
55
102
{ACAD_REACTORS
330
3B
102
}
330
3B
100
AcDbScale
 70
     0
300
3/8" = 1'-0"
140
0.375
141
12.0
290
     0
  0
SCALE
  5
56
102
{ACAD_REACTORS
330
3B
102
}
330
3B
100
AcDbScale
 70
     0
300
1/2" = 1'-0"
140
0.5
141
12.0
290
     0
  0
SCALE
  5
57
102
{ACAD_REACTORS
330
3B
102
}
330
3B
100
AcDbScale
 70
     0
300
3/4" = 1'-0"
140
0.75
141
12.0
290
     0
  0
SCALE
  5
58
102
{ACAD_REACTORS
330
3B
102
}
330
3B
100
AcDbScale
 70
     0
300
1" = 1'-0"
140
1.0
141
12.0
290
     0
  0
SCALE
  5
59
102
{ACAD_REACTORS
330
3B
102
}
330
3B
100
AcDbScale
 70
     0
300
1-1/2" = 1'-0"
140
1.5
141
12.0
290
     0
  0
SCALE
  5
5A
102
{ACAD_REACTORS
330
3B
102
}
330
3B
100
AcDbScale
 70
     0
300
3" = 1'-0"
140
3.0
141
12.0
290
     0
  0
SCALE
  5
5B
102
{ACAD_REACTORS
330
3B
102
}
330
3B
100
AcDbScale
 70
     0
300
6" = 1'-0"
140
6.0
141
12.0
290
     0
  0
SCALE
  5
5C
102
{ACAD_REACTORS
330
3B
102
}
330
3B
100
AcDbScale
 70
     0
300
1'-0" = 1'-0"
140
12.0
141
12.0
290
     0
  0
VISUALSTYLE
  5
2F
102
{ACAD_REACTORS
330
2A
102
}
330
2A
100
AcDbVisualStyle
  2
2dWireframe
 70
     4
 71
     0
 72
     2
 73
     0
 90
        0
 40
-0.6
 41
-30.0
 62
     5
 63
     7
421
 16777215
 74
     1
 91
        4
 64
     7
 65
   257
 75
     1
175
     1
 42
1.0
 92
        0
 66
   257
 43
1.0
 76
     1
 77
     6
 78
     2
 67
     7
 79
     5
170
     0
171
     0
290
     0
174
     0
 93
        1
 44
0.0
173
     0
291
     0
 45
0.0
  0
VISUALSTYLE
  5
31
102
{ACAD_REACTORS
330
2A
102
}
330
2A
100
AcDbVisualStyle
  2
3D Hidden
 70
     6
 71
     1
 72
     2
 73
     2
 90
        0
 40
-0.6
 41
-30.0
 62
     5
 63
     7
421
 16777215
 74
     2
 91
        2
 64
     7
 65
   257
 75
     2
175
     1
 42
40.0
 92
        0
 66
   257
 43
1.0
 76
     1
 77
     6
 78
     2
 67
     7
 79
     3
170
     0
171
     0
290
     0
174
     0
 93
        1
 44
0.0
173
     0
291
     0
 45
0.0
  0
VISUALSTYLE
  5
30
102
{ACAD_REACTORS
330
2A
102
}
330
2A
100
AcDbVisualStyle
  2
3dWireframe
 70
     5
 71
     0
 72
     2
 73
     0
 90
        0
 40
-0.6
 41
-30.0
 62
     5
 63
     7
421
 16777215
 74
     1
 91
        4
 64
     7
 65
   257
 75
     1
175
     1
 42
1.0
 92
        0
 66
   257
 43
1.0
 76
     1
 77
     6
 78
     2
 67
     7
 79
     5
170
     0
171
     0
290
     0
174
     0
 93
        1
 44
0.0
173
     0
291
     0
 45
0.0
  0
VISUALSTYLE
  5
32
102
{ACAD_REACTORS
330
2A
102
}
330
2A
100
AcDbVisualStyle
  2
Basic
 70
     7
 71
     1
 72
     0
 73
     1
 90
        0
 40
-0.6
 41
-30.0
 62
     5
 63
     7
421
 16777215
 74
     0
 91
        4
 64
     7
 65
   257
 75
     1
175
     1
 42
1.0
 92
        8
 66
     7
 43
1.0
 76
     1
 77
     6
 78
     2
 67
     7
 79
     5
170
     0
171
     0
290
     0
174
     0
 93
        1
 44
0.0
173
     0
291
     1
 45
0.0
  0
VISUALSTYLE
  5
36
102
{ACAD_REACTORS
330
2A
102
}
330
2A
100
AcDbVisualStyle
  2
Brighten
 70
    12
 71
     2
 72
     2
 73
     0
 90
        0
 40
-0.6
 41
-30.0
 62
     5
 63
     7
421
 16777215
 74
     1
 91
        4
 64
     7
 65
   257
 75
     1
175
     1
 42
1.0
 92
        8
 66
     7
 43
1.0
 76
     1
 77
     6
 78
     2
 67
     7
 79
     5
170
     0
171
     0
290
     0
174
     0
 93
        1
 44
50.0
173
     0
291
     1
 45
0.0
  0
VISUALSTYLE
  5
3A
102
{ACAD_REACTORS
330
2A
102
}
330
2A
100
AcDbVisualStyle
  2
ColorChange
 70
    16
 71
     2
 72
     2
 73
     3
 90
        0
 40
-0.6
 41
-30.0
 62
     5
 63
     8
421
  8421504
 74
     1
 91
        4
 64
     7
 65
   257
 75
     1
175
     1
 42
1.0
 92
        8
 66
     8
424
  8421504
 43
1.0
 76
     1
 77
     6
 78
     2
 67
     7
 79
     5
170
     0
171
     0
290
     0
174
     0
 93
        1
 44
0.0
173
     0
291
     1
 45
0.0
  0
VISUALSTYLE
  5
34
102
{ACAD_REACTORS
330
2A
102
}
330
2A
100
AcDbVisualStyle
  2
Conceptual
 70
     9
 71
     3
 72
     2
 73
     0
 90
        0
 40
-0.6
 41
-30.0
 62
     5
 63
     7
421
 16777215
 74
     2
 91
        2
 64
     7
 65
   257
 75
     1
175
     1
 42
40.0
 92
        8
 66
     7
 43
1.0
 76
     1
 77
     6
 78
     2
 67
     7
 79
     3
170
     0
171
     0
290
     0
174
     0
 93
        1
 44
0.0
173
     0
291
     0
 45
0.0
  0
VISUALSTYLE
  5
35
102
{ACAD_REACTORS
330
2A
102
}
330
2A
100
AcDbVisualStyle
  2
Dim
 70
    11
 71
     2
 72
     2
 73
     0
 90
        0
 40
-0.6
 41
-30.0
 62
     5
 63
     7
421
 16777215
 74
     1
 91
        4
 64
     7
 65
   257
 75
     1
175
     1
 42
1.0
 92
        8
 66
     7
 43
1.0
 76
     1
 77
     6
 78
     2
 67
     7
 79
     5
170
     0
171
     0
290
     0
174
     0
 93
        1
 44
-50.0
173
     0
291
     1
 45
0.0
  0
VISUALSTYLE
  5
39
102
{ACAD_REACTORS
330
2A
102
}
330
2A
100
AcDbVisualStyle
  2
Facepattern
 70
    15
 71
     2
 72
     2
 73
     0
 90
        0
 40
-0.6
 41
-30.0
 62
     5
 63
     7
421
 16777215
 74
     1
 91
        4
 64
     7
 65
   257
 75
     1
175
     1
 42
1.0
 92
        8
 66
     7
 43
1.0
 76
     1
 77
     6
 78
     2
 67
     7
 79
     5
170
     0
171
     0
290
     0
174
     0
 93
        1
 44
0.0
173
     0
291
     1
 45
0.0
  0
VISUALSTYLE
  5
2B
102
{ACAD_REACTORS
330
2A
102
}
330
2A
100
AcDbVisualStyle
  2
Flat
 70
     0
 71
     2
 72
     1
 73
     1
 90
        2
 40
-0.6
 41
30.0
 62
     5
 63
     7
421
 16777215
 74
     0
 91
        4
 64
     7
 65
   257
 75
     1
175
     1
 42
1.0
 92
        8
 66
     7
 43
1.0
 76
     1
 77
     6
 78
     2
 67
     7
 79
     5
170
     0
171
     0
290
     0
174
     0
 93
       13
 44
0.0
173
     0
291
     1
 45
0.0
  0
VISUALSTYLE
  5
2C
102
{ACAD_REACTORS
330
2A
102
}
330
2A
100
AcDbVisualStyle
  2
FlatWithEdges
 70
     1
 71
     2
 72
     1
 73
     1
 90
        2
 40
-0.6
 41
30.0
 62
     5
 63
     7
421
 16777215
 74
     1
 91
        4
 64
     7
 65
   257
 75
     1
175
     1
 42
1.0
 92
        0
 66
   257
 43
1.0
 76
     1
 77
     6
 78
     2
 67
     7
 79
     5
170
     0
171
     0
290
     0
174
     0
 93
       13
 44
0.0
173
     0
291
     1
 45
0.0
  0
VISUALSTYLE
  5
2D
102
{ACAD_REACTORS
330
2A
102
}
330
2A
100
AcDbVisualStyle
  2
Gouraud
 70
     2
 71
     2
 72
     2
 73
     1
 90
        2
 40
-0.6
 41
30.0
 62
     5
 63
     7
421
 16777215
 74
     0
 91
        4
 64
     7
 65
   257
 75
     1
175
     1
 42
1.0
 92
        0
 66
     7
 43
1.0
 76
     1
 77
     6
 78
     2
 67
     7
 79
     5
170
     0
171
     0
290
     0
174
     0
 93
       13
 44
0.0
173
     0
291
     1
 45
0.0
  0
VISUALSTYLE
  5
2E
102
{ACAD_REACTORS
330
2A
102
}
330
2A
100
AcDbVisualStyle
  2
GouraudWithEdges
 70
     3
 71
     2
 72
     2
 73
     1
 90
        2
 40
-0.6
 41
30.0
 62
     5
 63
     7
421
 16777215
 74
     1
 91
        4
 64
     7
 65
   257
 75
     1
175
     1
 42
1.0
 92
        0
 66
   257
 43
1.0
 76
     1
 77
     6
 78
     2
 67
     7
 79
     5
170
     0
171
     0
290
     0
174
     0
 93
       13
 44
0.0
173
     0
291
     1
 45
0.0
  0
VISUALSTYLE
  5
38
102
{ACAD_REACTORS
330
2A
102
}
330
2A
100
AcDbVisualStyle
  2
Linepattern
 70
    14
 71
     2
 72
     2
 73
     0
 90
        0
 40
-0.6
 41
-30.0
 62
     5
 63
     7
421
 16777215
 74
     1
 91
        4
 64
     7
 65
   257
 75
     7
175
     7
 42
1.0
 92
        8
 66
     7
 43
1.0
 76
     1
 77
     6
 78
     2
 67
     7
 79
     5
170
     0
171
     0
290
     0
174
     0
 93
        1
 44
0.0
173
     0
291
     1
 45
0.0
  0
VISUALSTYLE
  5
33
102
{ACAD_REACTORS
330
2A
102
}
330
2A
100
AcDbVisualStyle
  2
Realistic
 70
     8
 71
     2
 72
     2
 73
     0
 90
        0
 40
-0.6
 41
-30.0
 62
     5
 63
     7
421
 16777215
 74
     1
 91
        0
 64
     7
 65
   257
 75
     1
175
     1
 42
1.0
 92
        8
 66
     8
424
  7895160
 43
1.0
 76
     1
 77
     6
 78
     2
 67
     7
 79
     5
170
     0
171
     0
290
     0
174
     0
 93
       13
 44
0.0
173
     0
291
     0
 45
0.0
  0
VISUALSTYLE
  5
37
102
{ACAD_REACTORS
330
2A
102
}
330
2A
100
AcDbVisualStyle
  2
Thicken
 70
    13
 71
     2
 72
     2
 73
     0
 90
        0
 40
-0.6
 41
-30.0
 62
     5
 63
     7
421
 16777215
 74
     1
 91
        4
 64
     7
 65
   257
 75
     1
175
     1
 42
1.0
 92
       12
 66
     7
 43
1.0
 76
     1
 77
     6
 78
     2
 67
     7
 79
     5
170
     0
171
     0
290
     0
174
     0
 93
        1
 44
0.0
173
     0
291
     1
 45
0.0
  0
ENDSEC
  0
EOF
