<?xml version="1.0" standalone="no"?>
<!DOCTYPE svg PUBLIC "-//W3C//DTD SVG 1.1//EN" "http://www.w3.org/Graphics/SVG/1.1/DTD/svg11.dtd">
<svg width="27mm" height="12mm" viewBox="9 -21 27 12" xmlns="http://www.w3.org/2000/svg" version="1.1">
<title>OpenSCAD Model</title>
<path d="
M 31.3139,-9.00986 L 31.6267,-9.03941 L 31.9369,-9.08856 L 32.2434,-9.15707 L 32.5451,-9.24471 L 32.8406,-9.3511
 L 33.1289,-9.47586 L 33.4088,-9.61845 L 33.6791,-9.77835 L 33.9389,-9.95491 L 34.1871,-10.1474 L 34.4227,-10.3551
 L 34.6448,-10.5773 L 34.8526,-10.8129 L 35.0451,-11.0611 L 35.2216,-11.3209 L 35.3815,-11.5912 L 35.5241,-11.8711
 L 35.6489,-12.1594 L 35.7553,-12.4549 L 35.8429,-12.7565 L 35.9114,-13.0631 L 35.9606,-13.3733 L 35.9901,-13.686
 L 36,-14 L 36,-16 L 35.9901,-16.3139 L 35.9606,-16.6267 L 35.9114,-16.9369 L 35.8429,-17.2434
 L 35.7553,-17.5451 L 35.6489,-17.8406 L 35.5241,-18.1289 L 35.3815,-18.4088 L 35.2216,-18.6791 L 35.0451,-18.9389
 L 34.8526,-19.1871 L 34.6448,-19.4227 L 34.4227,-19.6448 L 34.1871,-19.8526 L 33.9389,-20.0451 L 33.6791,-20.2216
 L 33.4088,-20.3815 L 33.1289,-20.5241 L 32.8406,-20.6489 L 32.5451,-20.7553 L 32.2434,-20.8429 L 31.9369,-20.9114
 L 31.6267,-20.9606 L 31.3139,-20.9901 L 31,-21 L 14,-21 L 13.686,-20.9901 L 13.3733,-20.9606
 L 13.0631,-20.9114 L 12.7565,-20.8429 L 12.4549,-20.7553 L 12.1594,-20.6489 L 11.8711,-20.5241 L 11.5912,-20.3815
 L 11.3209,-20.2216 L 11.0611,-20.0451 L 10.8129,-19.8526 L 10.5773,-19.6448 L 10.3551,-19.4227 L 10.1474,-19.1871
 L 9.95491,-18.9389 L 9.77835,-18.6791 L 9.61845,-18.4088 L 9.47586,-18.1289 L 9.3511,-17.8406 L 9.24471,-17.5451
 L 9.15707,-17.2434 L 9.08856,-16.9369 L 9.03941,-16.6267 L 9.00986,-16.3139 L 9,-16 L 9,-14
 L 9.00986,-13.686 L 9.03941,-13.3733 L 9.08856,-13.0631 L 9.15707,-12.7565 L 9.24471,-12.4549 L 9.3511,-12.1594
 L 9.47586,-11.8711 L 9.61845,-11.5912 L 9.77835,-11.3209 L 9.95491,-11.0611 L 10.1474,-10.8129 L 10.3551,-10.5773
 L 10.5773,-10.3551 L 10.8129,-10.1474 L 11.0611,-9.95491 L 11.3209,-9.77835 L 11.5912,-9.61845 L 11.8711,-9.47586
 L 12.1594,-9.3511 L 12.4549,-9.24471 L 12.7565,-9.15707 L 13.0631,-9.08856 L 13.3733,-9.03941 L 13.686,-9.00986
 L 14,-9 L 31,-9 z
M 14.8116,-12.0059 L 14.624,-12.0237 L 14.4379,-12.0531 L 14.2539,-12.0942 L 14.0729,-12.1468 L 13.8956,-12.2107
 L 13.7227,-12.2855 L 13.5547,-12.3711 L 13.3925,-12.467 L 13.2366,-12.5729 L 13.0877,-12.6884 L 12.9464,-12.8131
 L 12.8131,-12.9464 L 12.6884,-13.0877 L 12.5729,-13.2366 L 12.467,-13.3925 L 12.3711,-13.5547 L 12.2855,-13.7227
 L 12.2107,-13.8956 L 12.1468,-14.0729 L 12.0942,-14.2539 L 12.0531,-14.4379 L 12.0237,-14.624 L 12.0059,-14.8116
 L 12,-15 L 12.0059,-15.1884 L 12.0237,-15.376 L 12.0531,-15.5621 L 12.0942,-15.7461 L 12.1468,-15.927
 L 12.2107,-16.1044 L 12.2855,-16.2773 L 12.3711,-16.4453 L 12.467,-16.6075 L 12.5729,-16.7634 L 12.6884,-16.9123
 L 12.8131,-17.0536 L 12.9464,-17.1869 L 13.0877,-17.3115 L 13.2366,-17.427 L 13.3925,-17.533 L 13.5547,-17.6289
 L 13.7227,-17.7145 L 13.8956,-17.7893 L 14.0729,-17.8532 L 14.2539,-17.9057 L 14.4379,-17.9469 L 14.624,-17.9763
 L 14.8116,-17.9941 L 15,-18 L 15.1884,-17.9941 L 15.376,-17.9763 L 15.5621,-17.9469 L 15.7461,-17.9057
 L 15.927,-17.8532 L 16.1044,-17.7893 L 16.2773,-17.7145 L 16.4453,-17.6289 L 16.6075,-17.533 L 16.7634,-17.427
 L 16.9123,-17.3115 L 17.0536,-17.1869 L 17.1869,-17.0536 L 17.3115,-16.9123 L 17.427,-16.7634 L 17.533,-16.6075
 L 17.6289,-16.4453 L 17.7145,-16.2773 L 17.7893,-16.1044 L 17.8532,-15.927 L 17.9057,-15.7461 L 17.9469,-15.5621
 L 17.9763,-15.376 L 17.9941,-15.1884 L 18,-15 L 17.9941,-14.8116 L 17.9763,-14.624 L 17.9469,-14.4379
 L 17.9057,-14.2539 L 17.8532,-14.0729 L 17.7893,-13.8956 L 17.7145,-13.7227 L 17.6289,-13.5547 L 17.533,-13.3925
 L 17.427,-13.2366 L 17.3115,-13.0877 L 17.1869,-12.9464 L 17.0536,-12.8131 L 16.9123,-12.6884 L 16.7634,-12.5729
 L 16.6075,-12.467 L 16.4453,-12.3711 L 16.2773,-12.2855 L 16.1044,-12.2107 L 15.927,-12.1468 L 15.7461,-12.0942
 L 15.5621,-12.0531 L 15.376,-12.0237 L 15.1884,-12.0059 L 15,-12 z
M 29.8116,-12.0059 L 29.624,-12.0237 L 29.4379,-12.0531 L 29.2539,-12.0942 L 29.0729,-12.1468 L 28.8956,-12.2107
 L 28.7227,-12.2855 L 28.5547,-12.3711 L 28.3925,-12.467 L 28.2366,-12.5729 L 28.0877,-12.6884 L 27.9464,-12.8131
 L 27.8131,-12.9464 L 27.6884,-13.0877 L 27.5729,-13.2366 L 27.467,-13.3925 L 27.3711,-13.5547 L 27.2855,-13.7227
 L 27.2107,-13.8956 L 27.1468,-14.0729 L 27.0942,-14.2539 L 27.0531,-14.4379 L 27.0237,-14.624 L 27.0059,-14.8116
 L 27,-15 L 27.0059,-15.1884 L 27.0237,-15.376 L 27.0531,-15.5621 L 27.0942,-15.7461 L 27.1468,-15.927
 L 27.2107,-16.1044 L 27.2855,-16.2773 L 27.3711,-16.4453 L 27.467,-16.6075 L 27.5729,-16.7634 L 27.6884,-16.9123
 L 27.8131,-17.0536 L 27.9464,-17.1869 L 28.0877,-17.3115 L 28.2366,-17.427 L 28.3925,-17.533 L 28.5547,-17.6289
 L 28.7227,-17.7145 L 28.8956,-17.7893 L 29.0729,-17.8532 L 29.2539,-17.9057 L 29.4379,-17.9469 L 29.624,-17.9763
 L 29.8116,-17.9941 L 30,-18 L 30.1884,-17.9941 L 30.376,-17.9763 L 30.5621,-17.9469 L 30.7461,-17.9057
 L 30.927,-17.8532 L 31.1044,-17.7893 L 31.2773,-17.7145 L 31.4453,-17.6289 L 31.6075,-17.533 L 31.7634,-17.427
 L 31.9123,-17.3115 L 32.0536,-17.1869 L 32.1869,-17.0536 L 32.3115,-16.9123 L 32.427,-16.7634 L 32.533,-16.6075
 L 32.6289,-16.4453 L 32.7145,-16.2773 L 32.7893,-16.1044 L 32.8532,-15.927 L 32.9057,-15.7461 L 32.9469,-15.5621
 L 32.9763,-15.376 L 32.9941,-15.1884 L 33,-15 L 32.9941,-14.8116 L 32.9763,-14.624 L 32.9469,-14.4379
 L 32.9057,-14.2539 L 32.8532,-14.0729 L 32.7893,-13.8956 L 32.7145,-13.7227 L 32.6289,-13.5547 L 32.533,-13.3925
 L 32.427,-13.2366 L 32.3115,-13.0877 L 32.1869,-12.9464 L 32.0536,-12.8131 L 31.9123,-12.6884 L 31.7634,-12.5729
 L 31.6075,-12.467 L 31.4453,-12.3711 L 31.2773,-12.2855 L 31.1044,-12.2107 L 30.927,-12.1468 L 30.7461,-12.0942
 L 30.5621,-12.0531 L 30.376,-12.0237 L 30.1884,-12.0059 L 30,-12 z
M 21,-13.5 L 21,-16.5 L 24,-16.5 L 24,-13.5 z
" stroke="black" fill="lightgray" stroke-width="0.5"/>
</svg>
