solid OpenSCAD_Model
  facet normal -0.992124 0.125262 0
    outer loop
      vertex 17.9058 14.2539 0
      vertex 18 15 3
      vertex 18 15 0
    endloop
  endfacet
  facet normal -0.992124 0.125262 0
    outer loop
      vertex 18 15 3
      vertex 17.9058 14.2539 0
      vertex 17.9058 14.2539 3
    endloop
  endfacet
  facet normal -0.992124 -0.125262 0
    outer loop
      vertex 18 15 0
      vertex 17.9058 15.7461 3
      vertex 17.9058 15.7461 0
    endloop
  endfacet
  facet normal -0.992124 -0.125262 0
    outer loop
      vertex 17.9058 15.7461 3
      vertex 18 15 0
      vertex 18 15 3
    endloop
  endfacet
  facet normal 0.96859 -0.248663 0
    outer loop
      vertex 12.0237 15.376 3
      vertex 12.2107 16.1044 0
      vertex 12.2107 16.1044 3
    endloop
  endfacet
  facet normal 0.96859 -0.248663 0
    outer loop
      vertex 12.2107 16.1044 0
      vertex 12.0237 15.376 3
      vertex 12.0237 15.376 0
    endloop
  endfacet
  facet normal 1 -0 0
    outer loop
      vertex 12.0237 14.624 3
      vertex 12.0237 15.376 0
      vertex 12.0237 15.376 3
    endloop
  endfacet
  facet normal 1 0 0
    outer loop
      vertex 12.0237 15.376 0
      vertex 12.0237 14.624 3
      vertex 12.0237 14.624 0
    endloop
  endfacet
  facet normal 0.728902 0.684618 0
    outer loop
      vertex 13.0877 12.6885 3
      vertex 12.5729 13.2366 0
      vertex 12.5729 13.2366 3
    endloop
  endfacet
  facet normal 0.728902 0.684618 0
    outer loop
      vertex 12.5729 13.2366 0
      vertex 13.0877 12.6885 3
      vertex 13.0877 12.6885 0
    endloop
  endfacet
  facet normal -0.808989 -0.587824 0
    outer loop
      vertex 17.6289 16.4453 0
      vertex 17.1869 17.0536 3
      vertex 17.1869 17.0536 0
    endloop
  endfacet
  facet normal -0.808989 -0.587824 0
    outer loop
      vertex 17.1869 17.0536 3
      vertex 17.6289 16.4453 0
      vertex 17.6289 16.4453 3
    endloop
  endfacet
  facet normal 0.96859 0.248663 0
    outer loop
      vertex 12.2107 13.8956 3
      vertex 12.0237 14.624 0
      vertex 12.0237 14.624 3
    endloop
  endfacet
  facet normal 0.96859 0.248663 0
    outer loop
      vertex 12.0237 14.624 0
      vertex 12.2107 13.8956 3
      vertex 12.2107 13.8956 0
    endloop
  endfacet
  facet normal 0.535843 0.844318 -0
    outer loop
      vertex 13.7227 12.2855 0
      vertex 13.0877 12.6885 3
      vertex 13.7227 12.2855 3
    endloop
  endfacet
  facet normal 0.535843 0.844318 0
    outer loop
      vertex 13.0877 12.6885 3
      vertex 13.7227 12.2855 0
      vertex 13.0877 12.6885 0
    endloop
  endfacet
  facet normal 0.0627674 0.998028 -0
    outer loop
      vertex 15.1884 12.0059 0
      vertex 14.4379 12.0531 3
      vertex 15.1884 12.0059 3
    endloop
  endfacet
  facet normal 0.0627674 0.998028 0
    outer loop
      vertex 14.4379 12.0531 3
      vertex 15.1884 12.0059 0
      vertex 14.4379 12.0531 0
    endloop
  endfacet
  facet normal -0.42581 0.904813 0
    outer loop
      vertex 16.6075 12.467 0
      vertex 15.9271 12.1468 3
      vertex 16.6075 12.467 3
    endloop
  endfacet
  facet normal -0.42581 0.904813 0
    outer loop
      vertex 15.9271 12.1468 3
      vertex 16.6075 12.467 0
      vertex 15.9271 12.1468 0
    endloop
  endfacet
  facet normal -0.637486 0.770462 0
    outer loop
      vertex 17.1869 12.9464 0
      vertex 16.6075 12.467 3
      vertex 17.1869 12.9464 3
    endloop
  endfacet
  facet normal -0.637486 0.770462 0
    outer loop
      vertex 16.6075 12.467 3
      vertex 17.1869 12.9464 0
      vertex 16.6075 12.467 0
    endloop
  endfacet
  facet normal -0.929746 0.368202 0
    outer loop
      vertex 17.6289 13.5547 0
      vertex 17.9058 14.2539 3
      vertex 17.9058 14.2539 0
    endloop
  endfacet
  facet normal -0.929746 0.368202 0
    outer loop
      vertex 17.9058 14.2539 3
      vertex 17.6289 13.5547 0
      vertex 17.6289 13.5547 3
    endloop
  endfacet
  facet normal 0.728902 -0.684618 0
    outer loop
      vertex 12.5729 16.7634 3
      vertex 13.0877 17.3115 0
      vertex 13.0877 17.3115 3
    endloop
  endfacet
  facet normal 0.728902 -0.684618 0
    outer loop
      vertex 13.0877 17.3115 0
      vertex 12.5729 16.7634 3
      vertex 12.5729 16.7634 0
    endloop
  endfacet
  facet normal 0.535843 -0.844318 0
    outer loop
      vertex 13.0877 17.3115 0
      vertex 13.7227 17.7145 3
      vertex 13.0877 17.3115 3
    endloop
  endfacet
  facet normal 0.535843 -0.844318 0
    outer loop
      vertex 13.7227 17.7145 3
      vertex 13.0877 17.3115 0
      vertex 13.7227 17.7145 0
    endloop
  endfacet
  facet normal 0.309038 -0.95105 0
    outer loop
      vertex 13.7227 17.7145 0
      vertex 14.4379 17.9469 3
      vertex 13.7227 17.7145 3
    endloop
  endfacet
  facet normal 0.309038 -0.95105 0
    outer loop
      vertex 14.4379 17.9469 3
      vertex 13.7227 17.7145 0
      vertex 14.4379 17.9469 0
    endloop
  endfacet
  facet normal -0.929746 -0.368202 0
    outer loop
      vertex 17.9058 15.7461 0
      vertex 17.6289 16.4453 3
      vertex 17.6289 16.4453 0
    endloop
  endfacet
  facet normal -0.929746 -0.368202 0
    outer loop
      vertex 17.6289 16.4453 3
      vertex 17.9058 15.7461 0
      vertex 17.9058 15.7461 3
    endloop
  endfacet
  facet normal 0.876356 0.481663 0
    outer loop
      vertex 12.5729 13.2366 3
      vertex 12.2107 13.8956 0
      vertex 12.2107 13.8956 3
    endloop
  endfacet
  facet normal 0.876356 0.481663 0
    outer loop
      vertex 12.2107 13.8956 0
      vertex 12.5729 13.2366 3
      vertex 12.5729 13.2366 0
    endloop
  endfacet
  facet normal 0.309038 0.95105 -0
    outer loop
      vertex 14.4379 12.0531 0
      vertex 13.7227 12.2855 3
      vertex 14.4379 12.0531 3
    endloop
  endfacet
  facet normal 0.309038 0.95105 0
    outer loop
      vertex 13.7227 12.2855 3
      vertex 14.4379 12.0531 0
      vertex 13.7227 12.2855 0
    endloop
  endfacet
  facet normal -0.187363 0.982291 0
    outer loop
      vertex 15.9271 12.1468 0
      vertex 15.1884 12.0059 3
      vertex 15.9271 12.1468 3
    endloop
  endfacet
  facet normal -0.187363 0.982291 0
    outer loop
      vertex 15.1884 12.0059 3
      vertex 15.9271 12.1468 0
      vertex 15.1884 12.0059 0
    endloop
  endfacet
  facet normal -0.808989 0.587824 0
    outer loop
      vertex 17.1869 12.9464 0
      vertex 17.6289 13.5547 3
      vertex 17.6289 13.5547 0
    endloop
  endfacet
  facet normal -0.808989 0.587824 0
    outer loop
      vertex 17.6289 13.5547 3
      vertex 17.1869 12.9464 0
      vertex 17.1869 12.9464 3
    endloop
  endfacet
  facet normal 0.876356 -0.481663 0
    outer loop
      vertex 12.2107 16.1044 3
      vertex 12.5729 16.7634 0
      vertex 12.5729 16.7634 3
    endloop
  endfacet
  facet normal 0.876356 -0.481663 0
    outer loop
      vertex 12.5729 16.7634 0
      vertex 12.2107 16.1044 3
      vertex 12.2107 16.1044 0
    endloop
  endfacet
  facet normal -0.42581 -0.904813 0
    outer loop
      vertex 15.9271 17.8532 0
      vertex 16.6075 17.533 3
      vertex 15.9271 17.8532 3
    endloop
  endfacet
  facet normal -0.42581 -0.904813 -0
    outer loop
      vertex 16.6075 17.533 3
      vertex 15.9271 17.8532 0
      vertex 16.6075 17.533 0
    endloop
  endfacet
  facet normal 0.0627674 -0.998028 0
    outer loop
      vertex 14.4379 17.9469 0
      vertex 15.1884 17.9941 3
      vertex 14.4379 17.9469 3
    endloop
  endfacet
  facet normal 0.0627674 -0.998028 0
    outer loop
      vertex 15.1884 17.9941 3
      vertex 14.4379 17.9469 0
      vertex 15.1884 17.9941 0
    endloop
  endfacet
  facet normal -0.637486 -0.770462 0
    outer loop
      vertex 16.6075 17.533 0
      vertex 17.1869 17.0536 3
      vertex 16.6075 17.533 3
    endloop
  endfacet
  facet normal -0.637486 -0.770462 -0
    outer loop
      vertex 17.1869 17.0536 3
      vertex 16.6075 17.533 0
      vertex 17.1869 17.0536 0
    endloop
  endfacet
  facet normal -0.187363 -0.982291 0
    outer loop
      vertex 15.1884 17.9941 0
      vertex 15.9271 17.8532 3
      vertex 15.1884 17.9941 3
    endloop
  endfacet
  facet normal -0.187363 -0.982291 -0
    outer loop
      vertex 15.9271 17.8532 3
      vertex 15.1884 17.9941 0
      vertex 15.9271 17.8532 0
    endloop
  endfacet
  facet normal -0.992124 0.125262 0
    outer loop
      vertex 32.9058 14.2539 0
      vertex 33 15 3
      vertex 33 15 0
    endloop
  endfacet
  facet normal -0.992124 0.125262 0
    outer loop
      vertex 33 15 3
      vertex 32.9058 14.2539 0
      vertex 32.9058 14.2539 3
    endloop
  endfacet
  facet normal -0.992124 -0.125262 0
    outer loop
      vertex 33 15 0
      vertex 32.9058 15.7461 3
      vertex 32.9058 15.7461 0
    endloop
  endfacet
  facet normal -0.992124 -0.125262 0
    outer loop
      vertex 32.9058 15.7461 3
      vertex 33 15 0
      vertex 33 15 3
    endloop
  endfacet
  facet normal 0.96859 -0.248663 0
    outer loop
      vertex 27.0237 15.376 3
      vertex 27.2107 16.1044 0
      vertex 27.2107 16.1044 3
    endloop
  endfacet
  facet normal 0.96859 -0.248663 0
    outer loop
      vertex 27.2107 16.1044 0
      vertex 27.0237 15.376 3
      vertex 27.0237 15.376 0
    endloop
  endfacet
  facet normal 1 -0 0
    outer loop
      vertex 27.0237 14.624 3
      vertex 27.0237 15.376 0
      vertex 27.0237 15.376 3
    endloop
  endfacet
  facet normal 1 0 0
    outer loop
      vertex 27.0237 15.376 0
      vertex 27.0237 14.624 3
      vertex 27.0237 14.624 0
    endloop
  endfacet
  facet normal 0.728902 0.684618 0
    outer loop
      vertex 28.0877 12.6885 3
      vertex 27.5729 13.2366 0
      vertex 27.5729 13.2366 3
    endloop
  endfacet
  facet normal 0.728902 0.684618 0
    outer loop
      vertex 27.5729 13.2366 0
      vertex 28.0877 12.6885 3
      vertex 28.0877 12.6885 0
    endloop
  endfacet
  facet normal -0.808989 -0.587824 0
    outer loop
      vertex 32.6289 16.4453 0
      vertex 32.1869 17.0536 3
      vertex 32.1869 17.0536 0
    endloop
  endfacet
  facet normal -0.808989 -0.587824 0
    outer loop
      vertex 32.1869 17.0536 3
      vertex 32.6289 16.4453 0
      vertex 32.6289 16.4453 3
    endloop
  endfacet
  facet normal 0.96859 0.248663 0
    outer loop
      vertex 27.2107 13.8956 3
      vertex 27.0237 14.624 0
      vertex 27.0237 14.624 3
    endloop
  endfacet
  facet normal 0.96859 0.248663 0
    outer loop
      vertex 27.0237 14.624 0
      vertex 27.2107 13.8956 3
      vertex 27.2107 13.8956 0
    endloop
  endfacet
  facet normal 0.535843 0.844318 -0
    outer loop
      vertex 28.7227 12.2855 0
      vertex 28.0877 12.6885 3
      vertex 28.7227 12.2855 3
    endloop
  endfacet
  facet normal 0.535843 0.844318 0
    outer loop
      vertex 28.0877 12.6885 3
      vertex 28.7227 12.2855 0
      vertex 28.0877 12.6885 0
    endloop
  endfacet
  facet normal 0.0627674 0.998028 -0
    outer loop
      vertex 30.1884 12.0059 0
      vertex 29.4379 12.0531 3
      vertex 30.1884 12.0059 3
    endloop
  endfacet
  facet normal 0.0627674 0.998028 0
    outer loop
      vertex 29.4379 12.0531 3
      vertex 30.1884 12.0059 0
      vertex 29.4379 12.0531 0
    endloop
  endfacet
  facet normal -0.42581 0.904813 0
    outer loop
      vertex 31.6075 12.467 0
      vertex 30.9271 12.1468 3
      vertex 31.6075 12.467 3
    endloop
  endfacet
  facet normal -0.42581 0.904813 0
    outer loop
      vertex 30.9271 12.1468 3
      vertex 31.6075 12.467 0
      vertex 30.9271 12.1468 0
    endloop
  endfacet
  facet normal -0.637486 0.770462 0
    outer loop
      vertex 32.1869 12.9464 0
      vertex 31.6075 12.467 3
      vertex 32.1869 12.9464 3
    endloop
  endfacet
  facet normal -0.637486 0.770462 0
    outer loop
      vertex 31.6075 12.467 3
      vertex 32.1869 12.9464 0
      vertex 31.6075 12.467 0
    endloop
  endfacet
  facet normal -0.929746 0.368202 0
    outer loop
      vertex 32.6289 13.5547 0
      vertex 32.9058 14.2539 3
      vertex 32.9058 14.2539 0
    endloop
  endfacet
  facet normal -0.929746 0.368202 0
    outer loop
      vertex 32.9058 14.2539 3
      vertex 32.6289 13.5547 0
      vertex 32.6289 13.5547 3
    endloop
  endfacet
  facet normal 0.728902 -0.684618 0
    outer loop
      vertex 27.5729 16.7634 3
      vertex 28.0877 17.3115 0
      vertex 28.0877 17.3115 3
    endloop
  endfacet
  facet normal 0.728902 -0.684618 0
    outer loop
      vertex 28.0877 17.3115 0
      vertex 27.5729 16.7634 3
      vertex 27.5729 16.7634 0
    endloop
  endfacet
  facet normal 0.535843 -0.844318 0
    outer loop
      vertex 28.0877 17.3115 0
      vertex 28.7227 17.7145 3
      vertex 28.0877 17.3115 3
    endloop
  endfacet
  facet normal 0.535843 -0.844318 0
    outer loop
      vertex 28.7227 17.7145 3
      vertex 28.0877 17.3115 0
      vertex 28.7227 17.7145 0
    endloop
  endfacet
  facet normal 0.309038 -0.95105 0
    outer loop
      vertex 28.7227 17.7145 0
      vertex 29.4379 17.9469 3
      vertex 28.7227 17.7145 3
    endloop
  endfacet
  facet normal 0.309038 -0.95105 0
    outer loop
      vertex 29.4379 17.9469 3
      vertex 28.7227 17.7145 0
      vertex 29.4379 17.9469 0
    endloop
  endfacet
  facet normal -0.929746 -0.368202 0
    outer loop
      vertex 32.9058 15.7461 0
      vertex 32.6289 16.4453 3
      vertex 32.6289 16.4453 0
    endloop
  endfacet
  facet normal -0.929746 -0.368202 0
    outer loop
      vertex 32.6289 16.4453 3
      vertex 32.9058 15.7461 0
      vertex 32.9058 15.7461 3
    endloop
  endfacet
  facet normal 0.876356 0.481663 0
    outer loop
      vertex 27.5729 13.2366 3
      vertex 27.2107 13.8956 0
      vertex 27.2107 13.8956 3
    endloop
  endfacet
  facet normal 0.876356 0.481663 0
    outer loop
      vertex 27.2107 13.8956 0
      vertex 27.5729 13.2366 3
      vertex 27.5729 13.2366 0
    endloop
  endfacet
  facet normal 0.309038 0.95105 -0
    outer loop
      vertex 29.4379 12.0531 0
      vertex 28.7227 12.2855 3
      vertex 29.4379 12.0531 3
    endloop
  endfacet
  facet normal 0.309038 0.95105 0
    outer loop
      vertex 28.7227 12.2855 3
      vertex 29.4379 12.0531 0
      vertex 28.7227 12.2855 0
    endloop
  endfacet
  facet normal -0.187363 0.982291 0
    outer loop
      vertex 30.9271 12.1468 0
      vertex 30.1884 12.0059 3
      vertex 30.9271 12.1468 3
    endloop
  endfacet
  facet normal -0.187363 0.982291 0
    outer loop
      vertex 30.1884 12.0059 3
      vertex 30.9271 12.1468 0
      vertex 30.1884 12.0059 0
    endloop
  endfacet
  facet normal -0.808989 0.587824 0
    outer loop
      vertex 32.1869 12.9464 0
      vertex 32.6289 13.5547 3
      vertex 32.6289 13.5547 0
    endloop
  endfacet
  facet normal -0.808989 0.587824 0
    outer loop
      vertex 32.6289 13.5547 3
      vertex 32.1869 12.9464 0
      vertex 32.1869 12.9464 3
    endloop
  endfacet
  facet normal 0.876356 -0.481663 0
    outer loop
      vertex 27.2107 16.1044 3
      vertex 27.5729 16.7634 0
      vertex 27.5729 16.7634 3
    endloop
  endfacet
  facet normal 0.876356 -0.481663 0
    outer loop
      vertex 27.5729 16.7634 0
      vertex 27.2107 16.1044 3
      vertex 27.2107 16.1044 0
    endloop
  endfacet
  facet normal -0.42581 -0.904813 0
    outer loop
      vertex 30.9271 17.8532 0
      vertex 31.6075 17.533 3
      vertex 30.9271 17.8532 3
    endloop
  endfacet
  facet normal -0.42581 -0.904813 -0
    outer loop
      vertex 31.6075 17.533 3
      vertex 30.9271 17.8532 0
      vertex 31.6075 17.533 0
    endloop
  endfacet
  facet normal 0.0627674 -0.998028 0
    outer loop
      vertex 29.4379 17.9469 0
      vertex 30.1884 17.9941 3
      vertex 29.4379 17.9469 3
    endloop
  endfacet
  facet normal 0.0627674 -0.998028 0
    outer loop
      vertex 30.1884 17.9941 3
      vertex 29.4379 17.9469 0
      vertex 30.1884 17.9941 0
    endloop
  endfacet
  facet normal -0.637486 -0.770462 0
    outer loop
      vertex 31.6075 17.533 0
      vertex 32.1869 17.0536 3
      vertex 31.6075 17.533 3
    endloop
  endfacet
  facet normal -0.637486 -0.770462 -0
    outer loop
      vertex 32.1869 17.0536 3
      vertex 31.6075 17.533 0
      vertex 32.1869 17.0536 0
    endloop
  endfacet
  facet normal -0.187363 -0.982291 0
    outer loop
      vertex 30.1884 17.9941 0
      vertex 30.9271 17.8532 3
      vertex 30.1884 17.9941 3
    endloop
  endfacet
  facet normal -0.187363 -0.982291 -0
    outer loop
      vertex 30.9271 17.8532 3
      vertex 30.1884 17.9941 0
      vertex 30.9271 17.8532 0
    endloop
  endfacet
  facet normal 0 0 -1
    outer loop
      vertex 9 14 0
      vertex 9.03941 16 0
      vertex 9.03941 14 0
    endloop
  endfacet
  facet normal -0 0 -1
    outer loop
      vertex 9.03941 16 0
      vertex 9 14 0
      vertex 9 16 0
    endloop
  endfacet
  facet normal 0 0 -1
    outer loop
      vertex 13.0631 20.9114 0
      vertex 14.4379 17.9469 0
      vertex 13.7227 17.7145 0
    endloop
  endfacet
  facet normal 0 0 -1
    outer loop
      vertex 11.8711 20.5241 0
      vertex 13.7227 17.7145 0
      vertex 13.0877 17.3115 0
    endloop
  endfacet
  facet normal 0 0 -1
    outer loop
      vertex 14.4379 17.9469 0
      vertex 13.0631 20.9114 0
      vertex 14 20.9704 0
    endloop
  endfacet
  facet normal 0 0 -1
    outer loop
      vertex 9.95491 18.9389 0
      vertex 13.0877 17.3115 0
      vertex 12.5729 16.7634 0
    endloop
  endfacet
  facet normal 0 0 -1
    outer loop
      vertex 9.3511 17.8406 0
      vertex 12.5729 16.7634 0
      vertex 12.2107 16.1044 0
    endloop
  endfacet
  facet normal 0 0 -1
    outer loop
      vertex 9.03941 16 0
      vertex 12.2107 16.1044 0
      vertex 12.0237 15.376 0
    endloop
  endfacet
  facet normal 0 0 -1
    outer loop
      vertex 13.7227 17.7145 0
      vertex 11.8711 20.5241 0
      vertex 13.0631 20.9114 0
    endloop
  endfacet
  facet normal -0 0 -1
    outer loop
      vertex 12.5729 13.2366 0
      vertex 9.3511 12.1594 0
      vertex 12.2107 13.8956 0
    endloop
  endfacet
  facet normal 0 0 -1
    outer loop
      vertex 9.03941 13.3733 0
      vertex 12.2107 13.8956 0
      vertex 9.3511 12.1594 0
    endloop
  endfacet
  facet normal 0 0 -1
    outer loop
      vertex 9.03941 16 0
      vertex 12.0237 15.376 0
      vertex 9.03941 14 0
    endloop
  endfacet
  facet normal 0 0 -1
    outer loop
      vertex 9.03941 14 0
      vertex 12.2107 13.8956 0
      vertex 9.03941 13.3733 0
    endloop
  endfacet
  facet normal -0 0 -1
    outer loop
      vertex 12.2107 16.1044 0
      vertex 9.03941 16 0
      vertex 9.03941 16.6267 0
    endloop
  endfacet
  facet normal 0 0 -1
    outer loop
      vertex 12.2107 13.8956 0
      vertex 9.03941 14 0
      vertex 12.0237 14.624 0
    endloop
  endfacet
  facet normal 0 0 -1
    outer loop
      vertex 13.0877 17.3115 0
      vertex 10.8129 19.8526 0
      vertex 11.8711 20.5241 0
    endloop
  endfacet
  facet normal -0 0 -1
    outer loop
      vertex 12.0237 14.624 0
      vertex 9.03941 14 0
      vertex 12.0237 15.376 0
    endloop
  endfacet
  facet normal 0 0 -1
    outer loop
      vertex 13.0877 17.3115 0
      vertex 9.95491 18.9389 0
      vertex 10.8129 19.8526 0
    endloop
  endfacet
  facet normal 0 0 -1
    outer loop
      vertex 12.5729 16.7634 0
      vertex 9.3511 17.8406 0
      vertex 9.95491 18.9389 0
    endloop
  endfacet
  facet normal 0 0 -1
    outer loop
      vertex 12.2107 16.1044 0
      vertex 9.03941 16.6267 0
      vertex 9.3511 17.8406 0
    endloop
  endfacet
  facet normal 0 0 -1
    outer loop
      vertex 28.7227 12.2855 0
      vertex 31 9.02962 0
      vertex 31 9 0
    endloop
  endfacet
  facet normal 0 0 -1
    outer loop
      vertex 31 9.02962 0
      vertex 30.1884 12.0059 0
      vertex 30.9271 12.1468 0
    endloop
  endfacet
  facet normal 0 0 -1
    outer loop
      vertex 31 9.02962 0
      vertex 29.4379 12.0531 0
      vertex 30.1884 12.0059 0
    endloop
  endfacet
  facet normal 0 0 -1
    outer loop
      vertex 31 9.02962 0
      vertex 28.7227 12.2855 0
      vertex 29.4379 12.0531 0
    endloop
  endfacet
  facet normal 0 0 -1
    outer loop
      vertex 31 9 0
      vertex 28.0877 12.6885 0
      vertex 28.7227 12.2855 0
    endloop
  endfacet
  facet normal 0 0 -1
    outer loop
      vertex 16.6075 12.467 0
      vertex 28.0877 12.6885 0
      vertex 31 9 0
    endloop
  endfacet
  facet normal 0 0 -1
    outer loop
      vertex 27.0237 14.624 0
      vertex 18 15 0
      vertex 27.0237 15.376 0
    endloop
  endfacet
  facet normal 0 0 -1
    outer loop
      vertex 17.9058 14.2539 0
      vertex 27.0237 14.624 0
      vertex 27.2107 13.8956 0
    endloop
  endfacet
  facet normal 0 0 -1
    outer loop
      vertex 17.6289 13.5547 0
      vertex 27.2107 13.8956 0
      vertex 27.5729 13.2366 0
    endloop
  endfacet
  facet normal 0 0 -1
    outer loop
      vertex 28.0877 12.6885 0
      vertex 17.1869 12.9464 0
      vertex 27.5729 13.2366 0
    endloop
  endfacet
  facet normal -0 0 -1
    outer loop
      vertex 27.0237 14.624 0
      vertex 17.9058 14.2539 0
      vertex 18 15 0
    endloop
  endfacet
  facet normal -0 0 -1
    outer loop
      vertex 27.2107 13.8956 0
      vertex 17.6289 13.5547 0
      vertex 17.9058 14.2539 0
    endloop
  endfacet
  facet normal -0 0 -1
    outer loop
      vertex 27.5729 13.2366 0
      vertex 17.1869 12.9464 0
      vertex 17.6289 13.5547 0
    endloop
  endfacet
  facet normal -0 0 -1
    outer loop
      vertex 28.0877 12.6885 0
      vertex 16.6075 12.467 0
      vertex 17.1869 12.9464 0
    endloop
  endfacet
  facet normal 0 0 -1
    outer loop
      vertex 14 9 0
      vertex 16.6075 12.467 0
      vertex 31 9 0
    endloop
  endfacet
  facet normal 0 0 -1
    outer loop
      vertex 16.6075 12.467 0
      vertex 14 9 0
      vertex 15.9271 12.1468 0
    endloop
  endfacet
  facet normal 0 0 -1
    outer loop
      vertex 14 9.02962 0
      vertex 15.9271 12.1468 0
      vertex 14 9 0
    endloop
  endfacet
  facet normal 0 0 -1
    outer loop
      vertex 15.9271 12.1468 0
      vertex 14 9.02962 0
      vertex 15.1884 12.0059 0
    endloop
  endfacet
  facet normal -0 0 -1
    outer loop
      vertex 15.1884 12.0059 0
      vertex 14 9.02962 0
      vertex 14.4379 12.0531 0
    endloop
  endfacet
  facet normal 0 0 -1
    outer loop
      vertex 13.0631 9.08856 0
      vertex 14.4379 12.0531 0
      vertex 14 9.02962 0
    endloop
  endfacet
  facet normal -0 0 -1
    outer loop
      vertex 14.4379 12.0531 0
      vertex 13.0631 9.08856 0
      vertex 13.7227 12.2855 0
    endloop
  endfacet
  facet normal 0 0 -1
    outer loop
      vertex 11.8711 9.47586 0
      vertex 13.7227 12.2855 0
      vertex 13.0631 9.08856 0
    endloop
  endfacet
  facet normal -0 0 -1
    outer loop
      vertex 13.7227 12.2855 0
      vertex 11.8711 9.47586 0
      vertex 13.0877 12.6885 0
    endloop
  endfacet
  facet normal 0 0 -1
    outer loop
      vertex 10.8129 10.1474 0
      vertex 13.0877 12.6885 0
      vertex 11.8711 9.47586 0
    endloop
  endfacet
  facet normal 0 0 -1
    outer loop
      vertex 9.95491 11.0611 0
      vertex 13.0877 12.6885 0
      vertex 10.8129 10.1474 0
    endloop
  endfacet
  facet normal 0 0 -1
    outer loop
      vertex 9.3511 12.1594 0
      vertex 12.5729 13.2366 0
      vertex 9.95491 11.0611 0
    endloop
  endfacet
  facet normal -0 0 -1
    outer loop
      vertex 13.0877 12.6885 0
      vertex 9.95491 11.0611 0
      vertex 12.5729 13.2366 0
    endloop
  endfacet
  facet normal 0 0 -1
    outer loop
      vertex 32.9058 14.2539 0
      vertex 36 14 0
      vertex 35.8429 12.7565 0
    endloop
  endfacet
  facet normal 0 0 -1
    outer loop
      vertex 36 14 0
      vertex 33 15 0
      vertex 36 16 0
    endloop
  endfacet
  facet normal 0 0 -1
    outer loop
      vertex 32.6289 13.5547 0
      vertex 35.8429 12.7565 0
      vertex 35.3815 11.5912 0
    endloop
  endfacet
  facet normal 0 0 -1
    outer loop
      vertex 32.9058 15.7461 0
      vertex 36 16 0
      vertex 33 15 0
    endloop
  endfacet
  facet normal 0 0 -1
    outer loop
      vertex 32.1869 12.9464 0
      vertex 35.3815 11.5912 0
      vertex 34.6448 10.5773 0
    endloop
  endfacet
  facet normal -0 0 -1
    outer loop
      vertex 36 16 0
      vertex 32.9058 15.7461 0
      vertex 35.8429 17.2434 0
    endloop
  endfacet
  facet normal 0 0 -1
    outer loop
      vertex 32.1869 12.9464 0
      vertex 34.6448 10.5773 0
      vertex 33.6791 9.77835 0
    endloop
  endfacet
  facet normal 0 0 -1
    outer loop
      vertex 32.6289 16.4453 0
      vertex 35.8429 17.2434 0
      vertex 32.9058 15.7461 0
    endloop
  endfacet
  facet normal -0 0 -1
    outer loop
      vertex 35.8429 17.2434 0
      vertex 32.6289 16.4453 0
      vertex 35.3815 18.4088 0
    endloop
  endfacet
  facet normal 0 0 -1
    outer loop
      vertex 36 14 0
      vertex 32.9058 14.2539 0
      vertex 33 15 0
    endloop
  endfacet
  facet normal 0 0 -1
    outer loop
      vertex 35.8429 12.7565 0
      vertex 32.6289 13.5547 0
      vertex 32.9058 14.2539 0
    endloop
  endfacet
  facet normal 0 0 -1
    outer loop
      vertex 31.6075 12.467 0
      vertex 33.6791 9.77835 0
      vertex 32.5451 9.24471 0
    endloop
  endfacet
  facet normal 0 0 -1
    outer loop
      vertex 35.3815 11.5912 0
      vertex 32.1869 12.9464 0
      vertex 32.6289 13.5547 0
    endloop
  endfacet
  facet normal 0 0 -1
    outer loop
      vertex 33.6791 9.77835 0
      vertex 31.6075 12.467 0
      vertex 32.1869 12.9464 0
    endloop
  endfacet
  facet normal 0 0 -1
    outer loop
      vertex 30.9271 12.1468 0
      vertex 32.5451 9.24471 0
      vertex 31.3139 9.00986 0
    endloop
  endfacet
  facet normal 0 0 -1
    outer loop
      vertex 30.9271 12.1468 0
      vertex 31.3139 9.00986 0
      vertex 31 9.02962 0
    endloop
  endfacet
  facet normal 0 0 -1
    outer loop
      vertex 32.5451 9.24471 0
      vertex 30.9271 12.1468 0
      vertex 31.6075 12.467 0
    endloop
  endfacet
  facet normal 0 0 -1
    outer loop
      vertex 32.1869 17.0536 0
      vertex 35.3815 18.4088 0
      vertex 32.6289 16.4453 0
    endloop
  endfacet
  facet normal -0 0 -1
    outer loop
      vertex 35.3815 18.4088 0
      vertex 32.1869 17.0536 0
      vertex 34.6448 19.4227 0
    endloop
  endfacet
  facet normal -0 0 -1
    outer loop
      vertex 34.6448 19.4227 0
      vertex 32.1869 17.0536 0
      vertex 33.6791 20.2216 0
    endloop
  endfacet
  facet normal 0 0 -1
    outer loop
      vertex 31.6075 17.533 0
      vertex 33.6791 20.2216 0
      vertex 32.1869 17.0536 0
    endloop
  endfacet
  facet normal -0 0 -1
    outer loop
      vertex 33.6791 20.2216 0
      vertex 31.6075 17.533 0
      vertex 32.5451 20.7553 0
    endloop
  endfacet
  facet normal 0 0 -1
    outer loop
      vertex 30.9271 17.8532 0
      vertex 32.5451 20.7553 0
      vertex 31.6075 17.533 0
    endloop
  endfacet
  facet normal -0 0 -1
    outer loop
      vertex 32.5451 20.7553 0
      vertex 30.9271 17.8532 0
      vertex 31.3139 20.9901 0
    endloop
  endfacet
  facet normal 0 0 -1
    outer loop
      vertex 31.3139 20.9901 0
      vertex 30.9271 17.8532 0
      vertex 31 20.9704 0
    endloop
  endfacet
  facet normal 0 0 -1
    outer loop
      vertex 30.1884 17.9941 0
      vertex 31 20.9704 0
      vertex 30.9271 17.8532 0
    endloop
  endfacet
  facet normal 0 0 -1
    outer loop
      vertex 29.4379 17.9469 0
      vertex 31 20.9704 0
      vertex 30.1884 17.9941 0
    endloop
  endfacet
  facet normal 0 0 -1
    outer loop
      vertex 28.7227 17.7145 0
      vertex 31 20.9704 0
      vertex 29.4379 17.9469 0
    endloop
  endfacet
  facet normal -0 0 -1
    outer loop
      vertex 31 20.9704 0
      vertex 28.7227 17.7145 0
      vertex 31 21 0
    endloop
  endfacet
  facet normal 0 0 -1
    outer loop
      vertex 28.0877 17.3115 0
      vertex 31 21 0
      vertex 28.7227 17.7145 0
    endloop
  endfacet
  facet normal 0 0 -1
    outer loop
      vertex 17.1869 17.0536 0
      vertex 28.0877 17.3115 0
      vertex 27.5729 16.7634 0
    endloop
  endfacet
  facet normal 0 0 -1
    outer loop
      vertex 17.9058 15.7461 0
      vertex 27.0237 15.376 0
      vertex 18 15 0
    endloop
  endfacet
  facet normal 0 0 -1
    outer loop
      vertex 27.0237 15.376 0
      vertex 17.9058 15.7461 0
      vertex 27.2107 16.1044 0
    endloop
  endfacet
  facet normal 0 0 -1
    outer loop
      vertex 17.6289 16.4453 0
      vertex 27.2107 16.1044 0
      vertex 17.9058 15.7461 0
    endloop
  endfacet
  facet normal 0 0 -1
    outer loop
      vertex 27.2107 16.1044 0
      vertex 17.6289 16.4453 0
      vertex 27.5729 16.7634 0
    endloop
  endfacet
  facet normal 0 0 -1
    outer loop
      vertex 17.1869 17.0536 0
      vertex 27.5729 16.7634 0
      vertex 17.6289 16.4453 0
    endloop
  endfacet
  facet normal 0 0 -1
    outer loop
      vertex 16.6075 17.533 0
      vertex 28.0877 17.3115 0
      vertex 17.1869 17.0536 0
    endloop
  endfacet
  facet normal 0 0 -1
    outer loop
      vertex 28.0877 17.3115 0
      vertex 16.6075 17.533 0
      vertex 31 21 0
    endloop
  endfacet
  facet normal 0 0 -1
    outer loop
      vertex 14 21 0
      vertex 16.6075 17.533 0
      vertex 15.9271 17.8532 0
    endloop
  endfacet
  facet normal 0 0 -1
    outer loop
      vertex 14 20.9704 0
      vertex 15.9271 17.8532 0
      vertex 15.1884 17.9941 0
    endloop
  endfacet
  facet normal 0 0 -1
    outer loop
      vertex 14 20.9704 0
      vertex 15.1884 17.9941 0
      vertex 14.4379 17.9469 0
    endloop
  endfacet
  facet normal 0 0 -1
    outer loop
      vertex 15.9271 17.8532 0
      vertex 14 20.9704 0
      vertex 14 21 0
    endloop
  endfacet
  facet normal 0 0 -1
    outer loop
      vertex 16.6075 17.533 0
      vertex 14 21 0
      vertex 31 21 0
    endloop
  endfacet
  facet normal -0 0 1
    outer loop
      vertex 9 16 3
      vertex 9.03941 14 3
      vertex 9.03941 16 3
    endloop
  endfacet
  facet normal 0 0 1
    outer loop
      vertex 9.03941 14 3
      vertex 9 16 3
      vertex 9 14 3
    endloop
  endfacet
  facet normal 0 0 1
    outer loop
      vertex 13.0631 9.08856 3
      vertex 14.4379 12.0531 3
      vertex 13.7227 12.2855 3
    endloop
  endfacet
  facet normal 0 0 1
    outer loop
      vertex 11.8711 9.47586 3
      vertex 13.7227 12.2855 3
      vertex 13.0877 12.6885 3
    endloop
  endfacet
  facet normal 0 0 1
    outer loop
      vertex 14.4379 12.0531 3
      vertex 13.0631 9.08856 3
      vertex 14 9.02962 3
    endloop
  endfacet
  facet normal 0 0 1
    outer loop
      vertex 9.95491 11.0611 3
      vertex 13.0877 12.6885 3
      vertex 12.5729 13.2366 3
    endloop
  endfacet
  facet normal 0 0 1
    outer loop
      vertex 9.3511 12.1594 3
      vertex 12.5729 13.2366 3
      vertex 12.2107 13.8956 3
    endloop
  endfacet
  facet normal -0 0 1
    outer loop
      vertex 9.03941 14 3
      vertex 12.2107 13.8956 3
      vertex 12.0237 14.624 3
    endloop
  endfacet
  facet normal 0 0 1
    outer loop
      vertex 13.7227 12.2855 3
      vertex 11.8711 9.47586 3
      vertex 13.0631 9.08856 3
    endloop
  endfacet
  facet normal 0 0 1
    outer loop
      vertex 12.5729 16.7634 3
      vertex 9.3511 17.8406 3
      vertex 12.2107 16.1044 3
    endloop
  endfacet
  facet normal -0 0 1
    outer loop
      vertex 9.03941 16.6267 3
      vertex 12.2107 16.1044 3
      vertex 9.3511 17.8406 3
    endloop
  endfacet
  facet normal 0 0 1
    outer loop
      vertex 9.03941 14 3
      vertex 12.0237 14.624 3
      vertex 9.03941 16 3
    endloop
  endfacet
  facet normal 0 0 1
    outer loop
      vertex 9.03941 16 3
      vertex 12.2107 16.1044 3
      vertex 9.03941 16.6267 3
    endloop
  endfacet
  facet normal 0 0 1
    outer loop
      vertex 12.2107 13.8956 3
      vertex 9.03941 14 3
      vertex 9.03941 13.3733 3
    endloop
  endfacet
  facet normal 0 0 1
    outer loop
      vertex 12.2107 16.1044 3
      vertex 9.03941 16 3
      vertex 12.0237 15.376 3
    endloop
  endfacet
  facet normal 0 0 1
    outer loop
      vertex 13.0877 12.6885 3
      vertex 10.8129 10.1474 3
      vertex 11.8711 9.47586 3
    endloop
  endfacet
  facet normal 0 0 1
    outer loop
      vertex 12.0237 15.376 3
      vertex 9.03941 16 3
      vertex 12.0237 14.624 3
    endloop
  endfacet
  facet normal 0 0 1
    outer loop
      vertex 13.0877 12.6885 3
      vertex 9.95491 11.0611 3
      vertex 10.8129 10.1474 3
    endloop
  endfacet
  facet normal 0 0 1
    outer loop
      vertex 12.5729 13.2366 3
      vertex 9.3511 12.1594 3
      vertex 9.95491 11.0611 3
    endloop
  endfacet
  facet normal 0 0 1
    outer loop
      vertex 12.2107 13.8956 3
      vertex 9.03941 13.3733 3
      vertex 9.3511 12.1594 3
    endloop
  endfacet
  facet normal 0 0 1
    outer loop
      vertex 28.7227 17.7145 3
      vertex 31 20.9704 3
      vertex 31 21 3
    endloop
  endfacet
  facet normal 0 0 1
    outer loop
      vertex 31 20.9704 3
      vertex 30.1884 17.9941 3
      vertex 30.9271 17.8532 3
    endloop
  endfacet
  facet normal 0 0 1
    outer loop
      vertex 31 20.9704 3
      vertex 29.4379 17.9469 3
      vertex 30.1884 17.9941 3
    endloop
  endfacet
  facet normal 0 0 1
    outer loop
      vertex 31 20.9704 3
      vertex 28.7227 17.7145 3
      vertex 29.4379 17.9469 3
    endloop
  endfacet
  facet normal 0 0 1
    outer loop
      vertex 31 21 3
      vertex 28.0877 17.3115 3
      vertex 28.7227 17.7145 3
    endloop
  endfacet
  facet normal -0 0 1
    outer loop
      vertex 16.6075 17.533 3
      vertex 28.0877 17.3115 3
      vertex 31 21 3
    endloop
  endfacet
  facet normal 0 0 1
    outer loop
      vertex 27.0237 15.376 3
      vertex 18 15 3
      vertex 27.0237 14.624 3
    endloop
  endfacet
  facet normal -0 0 1
    outer loop
      vertex 17.9058 15.7461 3
      vertex 27.0237 15.376 3
      vertex 27.2107 16.1044 3
    endloop
  endfacet
  facet normal -0 0 1
    outer loop
      vertex 17.6289 16.4453 3
      vertex 27.2107 16.1044 3
      vertex 27.5729 16.7634 3
    endloop
  endfacet
  facet normal 0 0 1
    outer loop
      vertex 28.0877 17.3115 3
      vertex 17.1869 17.0536 3
      vertex 27.5729 16.7634 3
    endloop
  endfacet
  facet normal 0 0 1
    outer loop
      vertex 27.0237 15.376 3
      vertex 17.9058 15.7461 3
      vertex 18 15 3
    endloop
  endfacet
  facet normal 0 0 1
    outer loop
      vertex 27.2107 16.1044 3
      vertex 17.6289 16.4453 3
      vertex 17.9058 15.7461 3
    endloop
  endfacet
  facet normal 0 0 1
    outer loop
      vertex 27.5729 16.7634 3
      vertex 17.1869 17.0536 3
      vertex 17.6289 16.4453 3
    endloop
  endfacet
  facet normal 0 0 1
    outer loop
      vertex 28.0877 17.3115 3
      vertex 16.6075 17.533 3
      vertex 17.1869 17.0536 3
    endloop
  endfacet
  facet normal -0 0 1
    outer loop
      vertex 14 21 3
      vertex 16.6075 17.533 3
      vertex 31 21 3
    endloop
  endfacet
  facet normal 0 0 1
    outer loop
      vertex 16.6075 17.533 3
      vertex 14 21 3
      vertex 15.9271 17.8532 3
    endloop
  endfacet
  facet normal -0 0 1
    outer loop
      vertex 14 20.9704 3
      vertex 15.9271 17.8532 3
      vertex 14 21 3
    endloop
  endfacet
  facet normal 0 0 1
    outer loop
      vertex 15.9271 17.8532 3
      vertex 14 20.9704 3
      vertex 15.1884 17.9941 3
    endloop
  endfacet
  facet normal 0 0 1
    outer loop
      vertex 15.1884 17.9941 3
      vertex 14 20.9704 3
      vertex 14.4379 17.9469 3
    endloop
  endfacet
  facet normal -0 0 1
    outer loop
      vertex 13.0631 20.9114 3
      vertex 14.4379 17.9469 3
      vertex 14 20.9704 3
    endloop
  endfacet
  facet normal 0 0 1
    outer loop
      vertex 14.4379 17.9469 3
      vertex 13.0631 20.9114 3
      vertex 13.7227 17.7145 3
    endloop
  endfacet
  facet normal -0 0 1
    outer loop
      vertex 11.8711 20.5241 3
      vertex 13.7227 17.7145 3
      vertex 13.0631 20.9114 3
    endloop
  endfacet
  facet normal 0 0 1
    outer loop
      vertex 13.7227 17.7145 3
      vertex 11.8711 20.5241 3
      vertex 13.0877 17.3115 3
    endloop
  endfacet
  facet normal -0 0 1
    outer loop
      vertex 10.8129 19.8526 3
      vertex 13.0877 17.3115 3
      vertex 11.8711 20.5241 3
    endloop
  endfacet
  facet normal -0 0 1
    outer loop
      vertex 9.95491 18.9389 3
      vertex 13.0877 17.3115 3
      vertex 10.8129 19.8526 3
    endloop
  endfacet
  facet normal -0 0 1
    outer loop
      vertex 9.3511 17.8406 3
      vertex 12.5729 16.7634 3
      vertex 9.95491 18.9389 3
    endloop
  endfacet
  facet normal 0 0 1
    outer loop
      vertex 13.0877 17.3115 3
      vertex 9.95491 18.9389 3
      vertex 12.5729 16.7634 3
    endloop
  endfacet
  facet normal 0 0 1
    outer loop
      vertex 32.9058 15.7461 3
      vertex 36 16 3
      vertex 35.8429 17.2434 3
    endloop
  endfacet
  facet normal 0 0 1
    outer loop
      vertex 36 16 3
      vertex 33 15 3
      vertex 36 14 3
    endloop
  endfacet
  facet normal 0 0 1
    outer loop
      vertex 32.6289 16.4453 3
      vertex 35.8429 17.2434 3
      vertex 35.3815 18.4088 3
    endloop
  endfacet
  facet normal -0 0 1
    outer loop
      vertex 32.9058 14.2539 3
      vertex 36 14 3
      vertex 33 15 3
    endloop
  endfacet
  facet normal 0 0 1
    outer loop
      vertex 32.1869 17.0536 3
      vertex 35.3815 18.4088 3
      vertex 34.6448 19.4227 3
    endloop
  endfacet
  facet normal 0 0 1
    outer loop
      vertex 36 14 3
      vertex 32.9058 14.2539 3
      vertex 35.8429 12.7565 3
    endloop
  endfacet
  facet normal 0 0 1
    outer loop
      vertex 32.1869 17.0536 3
      vertex 34.6448 19.4227 3
      vertex 33.6791 20.2216 3
    endloop
  endfacet
  facet normal -0 0 1
    outer loop
      vertex 32.6289 13.5547 3
      vertex 35.8429 12.7565 3
      vertex 32.9058 14.2539 3
    endloop
  endfacet
  facet normal 0 0 1
    outer loop
      vertex 35.8429 12.7565 3
      vertex 32.6289 13.5547 3
      vertex 35.3815 11.5912 3
    endloop
  endfacet
  facet normal 0 0 1
    outer loop
      vertex 36 16 3
      vertex 32.9058 15.7461 3
      vertex 33 15 3
    endloop
  endfacet
  facet normal 0 0 1
    outer loop
      vertex 35.8429 17.2434 3
      vertex 32.6289 16.4453 3
      vertex 32.9058 15.7461 3
    endloop
  endfacet
  facet normal 0 0 1
    outer loop
      vertex 31.6075 17.533 3
      vertex 33.6791 20.2216 3
      vertex 32.5451 20.7553 3
    endloop
  endfacet
  facet normal 0 0 1
    outer loop
      vertex 35.3815 18.4088 3
      vertex 32.1869 17.0536 3
      vertex 32.6289 16.4453 3
    endloop
  endfacet
  facet normal 0 0 1
    outer loop
      vertex 33.6791 20.2216 3
      vertex 31.6075 17.533 3
      vertex 32.1869 17.0536 3
    endloop
  endfacet
  facet normal 0 0 1
    outer loop
      vertex 30.9271 17.8532 3
      vertex 32.5451 20.7553 3
      vertex 31.3139 20.9901 3
    endloop
  endfacet
  facet normal 0 0 1
    outer loop
      vertex 30.9271 17.8532 3
      vertex 31.3139 20.9901 3
      vertex 31 20.9704 3
    endloop
  endfacet
  facet normal 0 0 1
    outer loop
      vertex 32.5451 20.7553 3
      vertex 30.9271 17.8532 3
      vertex 31.6075 17.533 3
    endloop
  endfacet
  facet normal -0 0 1
    outer loop
      vertex 32.1869 12.9464 3
      vertex 35.3815 11.5912 3
      vertex 32.6289 13.5547 3
    endloop
  endfacet
  facet normal 0 0 1
    outer loop
      vertex 35.3815 11.5912 3
      vertex 32.1869 12.9464 3
      vertex 34.6448 10.5773 3
    endloop
  endfacet
  facet normal 0 0 1
    outer loop
      vertex 34.6448 10.5773 3
      vertex 32.1869 12.9464 3
      vertex 33.6791 9.77835 3
    endloop
  endfacet
  facet normal -0 0 1
    outer loop
      vertex 31.6075 12.467 3
      vertex 33.6791 9.77835 3
      vertex 32.1869 12.9464 3
    endloop
  endfacet
  facet normal 0 0 1
    outer loop
      vertex 33.6791 9.77835 3
      vertex 31.6075 12.467 3
      vertex 32.5451 9.24471 3
    endloop
  endfacet
  facet normal -0 0 1
    outer loop
      vertex 30.9271 12.1468 3
      vertex 32.5451 9.24471 3
      vertex 31.6075 12.467 3
    endloop
  endfacet
  facet normal 0 0 1
    outer loop
      vertex 32.5451 9.24471 3
      vertex 30.9271 12.1468 3
      vertex 31.3139 9.00986 3
    endloop
  endfacet
  facet normal 0 0 1
    outer loop
      vertex 31.3139 9.00986 3
      vertex 30.9271 12.1468 3
      vertex 31 9.02962 3
    endloop
  endfacet
  facet normal -0 0 1
    outer loop
      vertex 30.1884 12.0059 3
      vertex 31 9.02962 3
      vertex 30.9271 12.1468 3
    endloop
  endfacet
  facet normal 0 0 1
    outer loop
      vertex 29.4379 12.0531 3
      vertex 31 9.02962 3
      vertex 30.1884 12.0059 3
    endloop
  endfacet
  facet normal 0 0 1
    outer loop
      vertex 28.7227 12.2855 3
      vertex 31 9.02962 3
      vertex 29.4379 12.0531 3
    endloop
  endfacet
  facet normal 0 0 1
    outer loop
      vertex 31 9.02962 3
      vertex 28.7227 12.2855 3
      vertex 31 9 3
    endloop
  endfacet
  facet normal 0 0 1
    outer loop
      vertex 28.0877 12.6885 3
      vertex 31 9 3
      vertex 28.7227 12.2855 3
    endloop
  endfacet
  facet normal -0 0 1
    outer loop
      vertex 17.1869 12.9464 3
      vertex 28.0877 12.6885 3
      vertex 27.5729 13.2366 3
    endloop
  endfacet
  facet normal 0 0 1
    outer loop
      vertex 17.9058 14.2539 3
      vertex 27.0237 14.624 3
      vertex 18 15 3
    endloop
  endfacet
  facet normal 0 0 1
    outer loop
      vertex 27.0237 14.624 3
      vertex 17.9058 14.2539 3
      vertex 27.2107 13.8956 3
    endloop
  endfacet
  facet normal 0 0 1
    outer loop
      vertex 17.6289 13.5547 3
      vertex 27.2107 13.8956 3
      vertex 17.9058 14.2539 3
    endloop
  endfacet
  facet normal 0 0 1
    outer loop
      vertex 27.2107 13.8956 3
      vertex 17.6289 13.5547 3
      vertex 27.5729 13.2366 3
    endloop
  endfacet
  facet normal 0 0 1
    outer loop
      vertex 17.1869 12.9464 3
      vertex 27.5729 13.2366 3
      vertex 17.6289 13.5547 3
    endloop
  endfacet
  facet normal 0 0 1
    outer loop
      vertex 16.6075 12.467 3
      vertex 28.0877 12.6885 3
      vertex 17.1869 12.9464 3
    endloop
  endfacet
  facet normal 0 0 1
    outer loop
      vertex 28.0877 12.6885 3
      vertex 16.6075 12.467 3
      vertex 31 9 3
    endloop
  endfacet
  facet normal 0 0 1
    outer loop
      vertex 14 9 3
      vertex 16.6075 12.467 3
      vertex 15.9271 12.1468 3
    endloop
  endfacet
  facet normal 0 0 1
    outer loop
      vertex 14 9.02962 3
      vertex 15.9271 12.1468 3
      vertex 15.1884 12.0059 3
    endloop
  endfacet
  facet normal 0 0 1
    outer loop
      vertex 14 9.02962 3
      vertex 15.1884 12.0059 3
      vertex 14.4379 12.0531 3
    endloop
  endfacet
  facet normal 0 0 1
    outer loop
      vertex 15.9271 12.1468 3
      vertex 14 9.02962 3
      vertex 14 9 3
    endloop
  endfacet
  facet normal 0 0 1
    outer loop
      vertex 16.6075 12.467 3
      vertex 14 9 3
      vertex 31 9 3
    endloop
  endfacet
  facet normal -0.0628256 -0.998025 0
    outer loop
      vertex 31 9.02962 0
      vertex 31.3139 9.00986 3
      vertex 31 9.02962 3
    endloop
  endfacet
  facet normal -0.0628256 -0.998025 -0
    outer loop
      vertex 31.3139 9.00986 3
      vertex 31 9.02962 0
      vertex 31.3139 9.00986 0
    endloop
  endfacet
  facet normal 0.187371 -0.982289 0
    outer loop
      vertex 31.3139 9.00986 0
      vertex 32.5451 9.24471 3
      vertex 31.3139 9.00986 3
    endloop
  endfacet
  facet normal 0.187371 -0.982289 0
    outer loop
      vertex 32.5451 9.24471 3
      vertex 31.3139 9.00986 0
      vertex 32.5451 9.24471 0
    endloop
  endfacet
  facet normal 0.425792 -0.904821 0
    outer loop
      vertex 32.5451 9.24471 0
      vertex 33.6791 9.77835 3
      vertex 32.5451 9.24471 3
    endloop
  endfacet
  facet normal 0.425792 -0.904821 0
    outer loop
      vertex 33.6791 9.77835 3
      vertex 32.5451 9.24471 0
      vertex 33.6791 9.77835 0
    endloop
  endfacet
  facet normal 0.637449 -0.770492 0
    outer loop
      vertex 33.6791 9.77835 0
      vertex 34.6448 10.5773 3
      vertex 33.6791 9.77835 3
    endloop
  endfacet
  facet normal 0.637449 -0.770492 0
    outer loop
      vertex 34.6448 10.5773 3
      vertex 33.6791 9.77835 0
      vertex 34.6448 10.5773 0
    endloop
  endfacet
  facet normal 0.808995 -0.587816 0
    outer loop
      vertex 34.6448 10.5773 3
      vertex 35.3815 11.5912 0
      vertex 35.3815 11.5912 3
    endloop
  endfacet
  facet normal 0.808995 -0.587816 0
    outer loop
      vertex 35.3815 11.5912 0
      vertex 34.6448 10.5773 3
      vertex 34.6448 10.5773 0
    endloop
  endfacet
  facet normal 0.92977 -0.368142 0
    outer loop
      vertex 35.3815 11.5912 3
      vertex 35.8429 12.7565 0
      vertex 35.8429 12.7565 3
    endloop
  endfacet
  facet normal 0.92977 -0.368142 0
    outer loop
      vertex 35.8429 12.7565 0
      vertex 35.3815 11.5912 3
      vertex 35.3815 11.5912 0
    endloop
  endfacet
  facet normal 0.992114 -0.125341 0
    outer loop
      vertex 35.8429 12.7565 3
      vertex 36 14 0
      vertex 36 14 3
    endloop
  endfacet
  facet normal 0.992114 -0.125341 0
    outer loop
      vertex 36 14 0
      vertex 35.8429 12.7565 3
      vertex 35.8429 12.7565 0
    endloop
  endfacet
  facet normal 1 -0 0
    outer loop
      vertex 36 14 3
      vertex 36 16 0
      vertex 36 16 3
    endloop
  endfacet
  facet normal 1 0 0
    outer loop
      vertex 36 16 0
      vertex 36 14 3
      vertex 36 14 0
    endloop
  endfacet
  facet normal 0.992113 0.125351 0
    outer loop
      vertex 36 16 3
      vertex 35.8429 17.2434 0
      vertex 35.8429 17.2434 3
    endloop
  endfacet
  facet normal 0.992113 0.125351 0
    outer loop
      vertex 35.8429 17.2434 0
      vertex 36 16 3
      vertex 36 16 0
    endloop
  endfacet
  facet normal 0.92978 0.368115 0
    outer loop
      vertex 35.8429 17.2434 3
      vertex 35.3815 18.4088 0
      vertex 35.3815 18.4088 3
    endloop
  endfacet
  facet normal 0.92978 0.368115 0
    outer loop
      vertex 35.3815 18.4088 0
      vertex 35.8429 17.2434 3
      vertex 35.8429 17.2434 0
    endloop
  endfacet
  facet normal 0.808995 0.587816 0
    outer loop
      vertex 35.3815 18.4088 3
      vertex 34.6448 19.4227 0
      vertex 34.6448 19.4227 3
    endloop
  endfacet
  facet normal 0.808995 0.587816 0
    outer loop
      vertex 34.6448 19.4227 0
      vertex 35.3815 18.4088 3
      vertex 35.3815 18.4088 0
    endloop
  endfacet
  facet normal 0.637426 0.770512 -0
    outer loop
      vertex 34.6448 19.4227 0
      vertex 33.6791 20.2216 3
      vertex 34.6448 19.4227 3
    endloop
  endfacet
  facet normal 0.637426 0.770512 0
    outer loop
      vertex 33.6791 20.2216 3
      vertex 34.6448 19.4227 0
      vertex 33.6791 20.2216 0
    endloop
  endfacet
  facet normal 0.425832 0.904802 -0
    outer loop
      vertex 33.6791 20.2216 0
      vertex 32.5451 20.7553 3
      vertex 33.6791 20.2216 3
    endloop
  endfacet
  facet normal 0.425832 0.904802 0
    outer loop
      vertex 32.5451 20.7553 3
      vertex 33.6791 20.2216 0
      vertex 32.5451 20.7553 0
    endloop
  endfacet
  facet normal 0.187332 0.982297 -0
    outer loop
      vertex 32.5451 20.7553 0
      vertex 31.3139 20.9901 3
      vertex 32.5451 20.7553 3
    endloop
  endfacet
  facet normal 0.187332 0.982297 0
    outer loop
      vertex 31.3139 20.9901 3
      vertex 32.5451 20.7553 0
      vertex 31.3139 20.9901 0
    endloop
  endfacet
  facet normal -0.0626356 0.998036 0
    outer loop
      vertex 31.3139 20.9901 0
      vertex 31 20.9704 3
      vertex 31.3139 20.9901 3
    endloop
  endfacet
  facet normal -0.0626356 0.998036 0
    outer loop
      vertex 31 20.9704 3
      vertex 31.3139 20.9901 0
      vertex 31 20.9704 0
    endloop
  endfacet
  facet normal 1 -0 0
    outer loop
      vertex 31 20.9704 3
      vertex 31 21 0
      vertex 31 21 3
    endloop
  endfacet
  facet normal 1 0 0
    outer loop
      vertex 31 21 0
      vertex 31 20.9704 3
      vertex 31 20.9704 0
    endloop
  endfacet
  facet normal 0 1 -0
    outer loop
      vertex 31 21 0
      vertex 14 21 3
      vertex 31 21 3
    endloop
  endfacet
  facet normal 0 1 0
    outer loop
      vertex 14 21 3
      vertex 31 21 0
      vertex 14 21 0
    endloop
  endfacet
  facet normal -1 0 0
    outer loop
      vertex 14 20.9704 0
      vertex 14 21 3
      vertex 14 21 0
    endloop
  endfacet
  facet normal -1 -0 0
    outer loop
      vertex 14 21 3
      vertex 14 20.9704 0
      vertex 14 20.9704 3
    endloop
  endfacet
  facet normal -0.0628491 0.998023 0
    outer loop
      vertex 14 20.9704 0
      vertex 13.0631 20.9114 3
      vertex 14 20.9704 3
    endloop
  endfacet
  facet normal -0.0628491 0.998023 0
    outer loop
      vertex 13.0631 20.9114 3
      vertex 14 20.9704 0
      vertex 13.0631 20.9114 0
    endloop
  endfacet
  facet normal -0.309014 0.951058 0
    outer loop
      vertex 13.0631 20.9114 0
      vertex 11.8711 20.5241 3
      vertex 13.0631 20.9114 3
    endloop
  endfacet
  facet normal -0.309014 0.951058 0
    outer loop
      vertex 11.8711 20.5241 3
      vertex 13.0631 20.9114 0
      vertex 11.8711 20.5241 0
    endloop
  endfacet
  facet normal -0.535796 0.844347 0
    outer loop
      vertex 11.8711 20.5241 0
      vertex 10.8129 19.8526 3
      vertex 11.8711 20.5241 3
    endloop
  endfacet
  facet normal -0.535796 0.844347 0
    outer loop
      vertex 10.8129 19.8526 3
      vertex 11.8711 20.5241 0
      vertex 10.8129 19.8526 0
    endloop
  endfacet
  facet normal -0.728981 0.684534 0
    outer loop
      vertex 9.95491 18.9389 0
      vertex 10.8129 19.8526 3
      vertex 10.8129 19.8526 0
    endloop
  endfacet
  facet normal -0.728981 0.684534 0
    outer loop
      vertex 10.8129 19.8526 3
      vertex 9.95491 18.9389 0
      vertex 9.95491 18.9389 3
    endloop
  endfacet
  facet normal -0.876302 0.481763 0
    outer loop
      vertex 9.3511 17.8406 0
      vertex 9.95491 18.9389 3
      vertex 9.95491 18.9389 0
    endloop
  endfacet
  facet normal -0.876302 0.481763 0
    outer loop
      vertex 9.95491 18.9389 3
      vertex 9.3511 17.8406 0
      vertex 9.3511 17.8406 3
    endloop
  endfacet
  facet normal -0.968581 0.2487 0
    outer loop
      vertex 9.03941 16.6267 0
      vertex 9.3511 17.8406 3
      vertex 9.3511 17.8406 0
    endloop
  endfacet
  facet normal -0.968581 0.2487 0
    outer loop
      vertex 9.3511 17.8406 3
      vertex 9.03941 16.6267 0
      vertex 9.03941 16.6267 3
    endloop
  endfacet
  facet normal -1 0 0
    outer loop
      vertex 9.03941 16 0
      vertex 9.03941 16.6267 3
      vertex 9.03941 16.6267 0
    endloop
  endfacet
  facet normal -1 -0 0
    outer loop
      vertex 9.03941 16.6267 3
      vertex 9.03941 16 0
      vertex 9.03941 16 3
    endloop
  endfacet
  facet normal 0 1 -0
    outer loop
      vertex 9.03941 16 0
      vertex 9 16 3
      vertex 9.03941 16 3
    endloop
  endfacet
  facet normal 0 1 0
    outer loop
      vertex 9 16 3
      vertex 9.03941 16 0
      vertex 9 16 0
    endloop
  endfacet
  facet normal -1 0 0
    outer loop
      vertex 9 14 0
      vertex 9 16 3
      vertex 9 16 0
    endloop
  endfacet
  facet normal -1 -0 0
    outer loop
      vertex 9 16 3
      vertex 9 14 0
      vertex 9 14 3
    endloop
  endfacet
  facet normal 0 -1 0
    outer loop
      vertex 9 14 0
      vertex 9.03941 14 3
      vertex 9 14 3
    endloop
  endfacet
  facet normal 0 -1 -0
    outer loop
      vertex 9.03941 14 3
      vertex 9 14 0
      vertex 9.03941 14 0
    endloop
  endfacet
  facet normal -1 0 0
    outer loop
      vertex 9.03941 13.3733 0
      vertex 9.03941 14 3
      vertex 9.03941 14 0
    endloop
  endfacet
  facet normal -1 -0 0
    outer loop
      vertex 9.03941 14 3
      vertex 9.03941 13.3733 0
      vertex 9.03941 13.3733 3
    endloop
  endfacet
  facet normal -0.968581 -0.2487 0
    outer loop
      vertex 9.3511 12.1594 0
      vertex 9.03941 13.3733 3
      vertex 9.03941 13.3733 0
    endloop
  endfacet
  facet normal -0.968581 -0.2487 0
    outer loop
      vertex 9.03941 13.3733 3
      vertex 9.3511 12.1594 0
      vertex 9.3511 12.1594 3
    endloop
  endfacet
  facet normal -0.876302 -0.481763 0
    outer loop
      vertex 9.95491 11.0611 0
      vertex 9.3511 12.1594 3
      vertex 9.3511 12.1594 0
    endloop
  endfacet
  facet normal -0.876302 -0.481763 0
    outer loop
      vertex 9.3511 12.1594 3
      vertex 9.95491 11.0611 0
      vertex 9.95491 11.0611 3
    endloop
  endfacet
  facet normal -0.728981 -0.684534 0
    outer loop
      vertex 10.8129 10.1474 0
      vertex 9.95491 11.0611 3
      vertex 9.95491 11.0611 0
    endloop
  endfacet
  facet normal -0.728981 -0.684534 0
    outer loop
      vertex 9.95491 11.0611 3
      vertex 10.8129 10.1474 0
      vertex 10.8129 10.1474 3
    endloop
  endfacet
  facet normal -0.535819 -0.844333 0
    outer loop
      vertex 10.8129 10.1474 0
      vertex 11.8711 9.47586 3
      vertex 10.8129 10.1474 3
    endloop
  endfacet
  facet normal -0.535819 -0.844333 -0
    outer loop
      vertex 11.8711 9.47586 3
      vertex 10.8129 10.1474 0
      vertex 11.8711 9.47586 0
    endloop
  endfacet
  facet normal -0.309014 -0.951058 0
    outer loop
      vertex 11.8711 9.47586 0
      vertex 13.0631 9.08856 3
      vertex 11.8711 9.47586 3
    endloop
  endfacet
  facet normal -0.309014 -0.951058 -0
    outer loop
      vertex 13.0631 9.08856 3
      vertex 11.8711 9.47586 0
      vertex 13.0631 9.08856 0
    endloop
  endfacet
  facet normal -0.0627855 -0.998027 0
    outer loop
      vertex 13.0631 9.08856 0
      vertex 14 9.02962 3
      vertex 13.0631 9.08856 3
    endloop
  endfacet
  facet normal -0.0627855 -0.998027 -0
    outer loop
      vertex 14 9.02962 3
      vertex 13.0631 9.08856 0
      vertex 14 9.02962 0
    endloop
  endfacet
  facet normal -1 0 0
    outer loop
      vertex 14 9 0
      vertex 14 9.02962 3
      vertex 14 9.02962 0
    endloop
  endfacet
  facet normal -1 -0 0
    outer loop
      vertex 14 9.02962 3
      vertex 14 9 0
      vertex 14 9 3
    endloop
  endfacet
  facet normal 0 -1 0
    outer loop
      vertex 14 9 0
      vertex 31 9 3
      vertex 14 9 3
    endloop
  endfacet
  facet normal 0 -1 -0
    outer loop
      vertex 31 9 3
      vertex 14 9 0
      vertex 31 9 0
    endloop
  endfacet
  facet normal 1 -0 0
    outer loop
      vertex 31 9 3
      vertex 31 9.02962 0
      vertex 31 9.02962 3
    endloop
  endfacet
  facet normal 1 0 0
    outer loop
      vertex 31 9.02962 0
      vertex 31 9 3
      vertex 31 9 0
    endloop
  endfacet
endsolid OpenSCAD_Model
