solid OpenSCAD_Model
  facet normal -0.992115 0.125333 0
    outer loop
      vertex -4.59425 -0.746069 -3
      vertex -4.5 0 0
      vertex -4.5 0 -3
    endloop
  endfacet
  facet normal -0.992115 0.125333 0
    outer loop
      vertex -4.5 0 0
      vertex -4.59425 -0.746069 -3
      vertex -4.59425 -0.746069 0
    endloop
  endfacet
  facet normal -0.992115 -0.125333 0
    outer loop
      vertex -4.5 0 -3
      vertex -4.59425 0.746069 0
      vertex -4.59425 0.746069 -3
    endloop
  endfacet
  facet normal -0.992115 -0.125333 0
    outer loop
      vertex -4.59425 0.746069 0
      vertex -4.5 0 -3
      vertex -4.5 0 0
    endloop
  endfacet
  facet normal 0.968588 -0.248673 0
    outer loop
      vertex -10.4763 0.375999 0
      vertex -10.2893 1.10437 -3
      vertex -10.2893 1.10437 0
    endloop
  endfacet
  facet normal 0.968588 -0.248673 0
    outer loop
      vertex -10.2893 1.10437 -3
      vertex -10.4763 0.375999 0
      vertex -10.4763 0.375999 -3
    endloop
  endfacet
  facet normal -0.809019 -0.587782 0
    outer loop
      vertex -4.87108 1.44526 -3
      vertex -5.31309 2.05364 0
      vertex -5.31309 2.05364 -3
    endloop
  endfacet
  facet normal -0.809019 -0.587782 0
    outer loop
      vertex -5.31309 2.05364 0
      vertex -4.87108 1.44526 -3
      vertex -4.87108 1.44526 0
    endloop
  endfacet
  facet normal 1 -0 0
    outer loop
      vertex -10.4763 -0.375999 0
      vertex -10.4763 0.375999 -3
      vertex -10.4763 0.375999 0
    endloop
  endfacet
  facet normal 1 0 0
    outer loop
      vertex -10.4763 0.375999 -3
      vertex -10.4763 -0.375999 0
      vertex -10.4763 -0.375999 -3
    endloop
  endfacet
  facet normal 0.728965 0.68455 0
    outer loop
      vertex -9.41227 -2.31154 0
      vertex -9.92705 -1.76336 -3
      vertex -9.92705 -1.76336 0
    endloop
  endfacet
  facet normal 0.728965 0.68455 0
    outer loop
      vertex -9.92705 -1.76336 -3
      vertex -9.41227 -2.31154 0
      vertex -9.41227 -2.31154 -3
    endloop
  endfacet
  facet normal 0.968588 0.248673 0
    outer loop
      vertex -10.2893 -1.10437 0
      vertex -10.4763 -0.375999 -3
      vertex -10.4763 -0.375999 0
    endloop
  endfacet
  facet normal 0.968588 0.248673 0
    outer loop
      vertex -10.4763 -0.375999 -3
      vertex -10.2893 -1.10437 0
      vertex -10.2893 -1.10437 -3
    endloop
  endfacet
  facet normal 0.535828 0.844327 -0
    outer loop
      vertex -8.77734 -2.71448 -3
      vertex -9.41227 -2.31154 0
      vertex -8.77734 -2.71448 0
    endloop
  endfacet
  facet normal 0.535828 0.844327 0
    outer loop
      vertex -9.41227 -2.31154 0
      vertex -8.77734 -2.71448 -3
      vertex -9.41227 -2.31154 -3
    endloop
  endfacet
  facet normal 0.0627931 0.998027 -0
    outer loop
      vertex -7.31163 -2.99408 -3
      vertex -8.06214 -2.94686 0
      vertex -7.31163 -2.99408 0
    endloop
  endfacet
  facet normal 0.0627931 0.998027 0
    outer loop
      vertex -8.06214 -2.94686 0
      vertex -7.31163 -2.99408 -3
      vertex -8.06214 -2.94686 -3
    endloop
  endfacet
  facet normal -0.425784 0.904825 0
    outer loop
      vertex -5.89252 -2.53298 -3
      vertex -6.57295 -2.85317 0
      vertex -5.89252 -2.53298 0
    endloop
  endfacet
  facet normal -0.425784 0.904825 0
    outer loop
      vertex -6.57295 -2.85317 0
      vertex -5.89252 -2.53298 -3
      vertex -6.57295 -2.85317 -3
    endloop
  endfacet
  facet normal -0.637419 0.770517 0
    outer loop
      vertex -5.31309 -2.05364 -3
      vertex -5.89252 -2.53298 0
      vertex -5.31309 -2.05364 0
    endloop
  endfacet
  facet normal -0.637419 0.770517 0
    outer loop
      vertex -5.89252 -2.53298 0
      vertex -5.31309 -2.05364 -3
      vertex -5.89252 -2.53298 -3
    endloop
  endfacet
  facet normal -0.929776 0.368125 0
    outer loop
      vertex -4.87108 -1.44526 -3
      vertex -4.59425 -0.746069 0
      vertex -4.59425 -0.746069 -3
    endloop
  endfacet
  facet normal -0.929776 0.368125 0
    outer loop
      vertex -4.59425 -0.746069 0
      vertex -4.87108 -1.44526 -3
      vertex -4.87108 -1.44526 0
    endloop
  endfacet
  facet normal 0.728965 -0.68455 0
    outer loop
      vertex -9.92705 1.76336 0
      vertex -9.41227 2.31154 -3
      vertex -9.41227 2.31154 0
    endloop
  endfacet
  facet normal 0.728965 -0.68455 0
    outer loop
      vertex -9.41227 2.31154 -3
      vertex -9.92705 1.76336 0
      vertex -9.92705 1.76336 -3
    endloop
  endfacet
  facet normal 0.535828 -0.844327 0
    outer loop
      vertex -9.41227 2.31154 -3
      vertex -8.77734 2.71448 0
      vertex -9.41227 2.31154 0
    endloop
  endfacet
  facet normal 0.535828 -0.844327 0
    outer loop
      vertex -8.77734 2.71448 0
      vertex -9.41227 2.31154 -3
      vertex -8.77734 2.71448 -3
    endloop
  endfacet
  facet normal 0.309014 -0.951058 0
    outer loop
      vertex -8.77734 2.71448 -3
      vertex -8.06214 2.94686 0
      vertex -8.77734 2.71448 0
    endloop
  endfacet
  facet normal 0.309014 -0.951058 0
    outer loop
      vertex -8.06214 2.94686 0
      vertex -8.77734 2.71448 -3
      vertex -8.06214 2.94686 -3
    endloop
  endfacet
  facet normal -0.929776 -0.368125 0
    outer loop
      vertex -4.59425 0.746069 -3
      vertex -4.87108 1.44526 0
      vertex -4.87108 1.44526 -3
    endloop
  endfacet
  facet normal -0.929776 -0.368125 0
    outer loop
      vertex -4.87108 1.44526 0
      vertex -4.59425 0.746069 -3
      vertex -4.59425 0.746069 0
    endloop
  endfacet
  facet normal 0.876325 0.48172 0
    outer loop
      vertex -9.92705 -1.76336 0
      vertex -10.2893 -1.10437 -3
      vertex -10.2893 -1.10437 0
    endloop
  endfacet
  facet normal 0.876325 0.48172 0
    outer loop
      vertex -10.2893 -1.10437 -3
      vertex -9.92705 -1.76336 0
      vertex -9.92705 -1.76336 -3
    endloop
  endfacet
  facet normal 0.309014 0.951058 -0
    outer loop
      vertex -8.06214 -2.94686 -3
      vertex -8.77734 -2.71448 0
      vertex -8.06214 -2.94686 0
    endloop
  endfacet
  facet normal 0.309014 0.951058 0
    outer loop
      vertex -8.77734 -2.71448 0
      vertex -8.06214 -2.94686 -3
      vertex -8.77734 -2.71448 -3
    endloop
  endfacet
  facet normal -0.18738 0.982287 0
    outer loop
      vertex -6.57295 -2.85317 -3
      vertex -7.31163 -2.99408 0
      vertex -6.57295 -2.85317 0
    endloop
  endfacet
  facet normal -0.18738 0.982287 0
    outer loop
      vertex -7.31163 -2.99408 0
      vertex -6.57295 -2.85317 -3
      vertex -7.31163 -2.99408 -3
    endloop
  endfacet
  facet normal -0.809019 0.587782 0
    outer loop
      vertex -5.31309 -2.05364 -3
      vertex -4.87108 -1.44526 0
      vertex -4.87108 -1.44526 -3
    endloop
  endfacet
  facet normal -0.809019 0.587782 0
    outer loop
      vertex -4.87108 -1.44526 0
      vertex -5.31309 -2.05364 -3
      vertex -5.31309 -2.05364 0
    endloop
  endfacet
  facet normal 0.876325 -0.48172 0
    outer loop
      vertex -10.2893 1.10437 0
      vertex -9.92705 1.76336 -3
      vertex -9.92705 1.76336 0
    endloop
  endfacet
  facet normal 0.876325 -0.48172 0
    outer loop
      vertex -9.92705 1.76336 -3
      vertex -10.2893 1.10437 0
      vertex -10.2893 1.10437 -3
    endloop
  endfacet
  facet normal -0.425784 -0.904825 0
    outer loop
      vertex -6.57295 2.85317 -3
      vertex -5.89252 2.53298 0
      vertex -6.57295 2.85317 0
    endloop
  endfacet
  facet normal -0.425784 -0.904825 -0
    outer loop
      vertex -5.89252 2.53298 0
      vertex -6.57295 2.85317 -3
      vertex -5.89252 2.53298 -3
    endloop
  endfacet
  facet normal 0.0627931 -0.998027 0
    outer loop
      vertex -8.06214 2.94686 -3
      vertex -7.31163 2.99408 0
      vertex -8.06214 2.94686 0
    endloop
  endfacet
  facet normal 0.0627931 -0.998027 0
    outer loop
      vertex -7.31163 2.99408 0
      vertex -8.06214 2.94686 -3
      vertex -7.31163 2.99408 -3
    endloop
  endfacet
  facet normal -0.637419 -0.770517 0
    outer loop
      vertex -5.89252 2.53298 -3
      vertex -5.31309 2.05364 0
      vertex -5.89252 2.53298 0
    endloop
  endfacet
  facet normal -0.637419 -0.770517 -0
    outer loop
      vertex -5.31309 2.05364 0
      vertex -5.89252 2.53298 -3
      vertex -5.31309 2.05364 -3
    endloop
  endfacet
  facet normal -0.18738 -0.982287 0
    outer loop
      vertex -7.31163 2.99408 -3
      vertex -6.57295 2.85317 0
      vertex -7.31163 2.99408 0
    endloop
  endfacet
  facet normal -0.18738 -0.982287 -0
    outer loop
      vertex -6.57295 2.85317 0
      vertex -7.31163 2.99408 -3
      vertex -6.57295 2.85317 -3
    endloop
  endfacet
  facet normal -0.92979 0.368091 0
    outer loop
      vertex 10.1289 -1.44526 -3
      vertex 10.4057 -0.746069 0
      vertex 10.4057 -0.746069 -3
    endloop
  endfacet
  facet normal -0.92979 0.368091 0
    outer loop
      vertex 10.4057 -0.746069 0
      vertex 10.1289 -1.44526 -3
      vertex 10.1289 -1.44526 0
    endloop
  endfacet
  facet normal -0.992107 0.125398 0
    outer loop
      vertex 10.4057 -0.746069 -3
      vertex 10.5 0 0
      vertex 10.5 0 -3
    endloop
  endfacet
  facet normal -0.992107 0.125398 0
    outer loop
      vertex 10.5 0 0
      vertex 10.4057 -0.746069 -3
      vertex 10.4057 -0.746069 0
    endloop
  endfacet
  facet normal -0.992107 -0.125398 0
    outer loop
      vertex 10.5 0 -3
      vertex 10.4057 0.746069 0
      vertex 10.4057 0.746069 -3
    endloop
  endfacet
  facet normal -0.992107 -0.125398 0
    outer loop
      vertex 10.4057 0.746069 0
      vertex 10.5 0 -3
      vertex 10.5 0 0
    endloop
  endfacet
  facet normal 0.968584 -0.248685 0
    outer loop
      vertex 4.52366 0.375999 0
      vertex 4.71067 1.10437 -3
      vertex 4.71067 1.10437 0
    endloop
  endfacet
  facet normal 0.968584 -0.248685 0
    outer loop
      vertex 4.71067 1.10437 -3
      vertex 4.52366 0.375999 0
      vertex 4.52366 0.375999 -3
    endloop
  endfacet
  facet normal 1 -0 0
    outer loop
      vertex 4.52366 -0.375999 0
      vertex 4.52366 0.375999 -3
      vertex 4.52366 0.375999 0
    endloop
  endfacet
  facet normal 1 0 0
    outer loop
      vertex 4.52366 0.375999 -3
      vertex 4.52366 -0.375999 0
      vertex 4.52366 -0.375999 -3
    endloop
  endfacet
  facet normal 0.728965 0.68455 0
    outer loop
      vertex 5.58773 -2.31154 0
      vertex 5.07295 -1.76336 -3
      vertex 5.07295 -1.76336 0
    endloop
  endfacet
  facet normal 0.728965 0.68455 0
    outer loop
      vertex 5.07295 -1.76336 -3
      vertex 5.58773 -2.31154 0
      vertex 5.58773 -2.31154 -3
    endloop
  endfacet
  facet normal -0.637419 -0.770517 0
    outer loop
      vertex 9.10748 2.53298 -3
      vertex 9.68691 2.05364 0
      vertex 9.10748 2.53298 0
    endloop
  endfacet
  facet normal -0.637419 -0.770517 -0
    outer loop
      vertex 9.68691 2.05364 0
      vertex 9.10748 2.53298 -3
      vertex 9.68691 2.05364 -3
    endloop
  endfacet
  facet normal -0.809032 -0.587764 0
    outer loop
      vertex 10.1289 1.44526 -3
      vertex 9.68691 2.05364 0
      vertex 9.68691 2.05364 -3
    endloop
  endfacet
  facet normal -0.809032 -0.587764 0
    outer loop
      vertex 9.68691 2.05364 0
      vertex 10.1289 1.44526 -3
      vertex 10.1289 1.44526 0
    endloop
  endfacet
  facet normal 0.968584 0.248685 0
    outer loop
      vertex 4.71067 -1.10437 0
      vertex 4.52366 -0.375999 -3
      vertex 4.52366 -0.375999 0
    endloop
  endfacet
  facet normal 0.968584 0.248685 0
    outer loop
      vertex 4.52366 -0.375999 -3
      vertex 4.71067 -1.10437 0
      vertex 4.71067 -1.10437 -3
    endloop
  endfacet
  facet normal 0.535828 0.844327 -0
    outer loop
      vertex 6.22266 -2.71448 -3
      vertex 5.58773 -2.31154 0
      vertex 6.22266 -2.71448 0
    endloop
  endfacet
  facet normal 0.535828 0.844327 0
    outer loop
      vertex 5.58773 -2.31154 0
      vertex 6.22266 -2.71448 -3
      vertex 5.58773 -2.31154 -3
    endloop
  endfacet
  facet normal 0.0627931 0.998027 -0
    outer loop
      vertex 7.68837 -2.99408 -3
      vertex 6.93786 -2.94686 0
      vertex 7.68837 -2.99408 0
    endloop
  endfacet
  facet normal 0.0627931 0.998027 0
    outer loop
      vertex 6.93786 -2.94686 0
      vertex 7.68837 -2.99408 -3
      vertex 6.93786 -2.94686 -3
    endloop
  endfacet
  facet normal -0.425784 0.904825 0
    outer loop
      vertex 9.10748 -2.53298 -3
      vertex 8.42705 -2.85317 0
      vertex 9.10748 -2.53298 0
    endloop
  endfacet
  facet normal -0.425784 0.904825 0
    outer loop
      vertex 8.42705 -2.85317 0
      vertex 9.10748 -2.53298 -3
      vertex 8.42705 -2.85317 -3
    endloop
  endfacet
  facet normal -0.637419 0.770517 0
    outer loop
      vertex 9.68691 -2.05364 -3
      vertex 9.10748 -2.53298 0
      vertex 9.68691 -2.05364 0
    endloop
  endfacet
  facet normal -0.637419 0.770517 0
    outer loop
      vertex 9.10748 -2.53298 0
      vertex 9.68691 -2.05364 -3
      vertex 9.10748 -2.53298 -3
    endloop
  endfacet
  facet normal 0.728965 -0.68455 0
    outer loop
      vertex 5.07295 1.76336 0
      vertex 5.58773 2.31154 -3
      vertex 5.58773 2.31154 0
    endloop
  endfacet
  facet normal 0.728965 -0.68455 0
    outer loop
      vertex 5.58773 2.31154 -3
      vertex 5.07295 1.76336 0
      vertex 5.07295 1.76336 -3
    endloop
  endfacet
  facet normal 0.535828 -0.844327 0
    outer loop
      vertex 5.58773 2.31154 -3
      vertex 6.22266 2.71448 0
      vertex 5.58773 2.31154 0
    endloop
  endfacet
  facet normal 0.535828 -0.844327 0
    outer loop
      vertex 6.22266 2.71448 0
      vertex 5.58773 2.31154 -3
      vertex 6.22266 2.71448 -3
    endloop
  endfacet
  facet normal 0.309014 -0.951058 0
    outer loop
      vertex 6.22266 2.71448 -3
      vertex 6.93786 2.94686 0
      vertex 6.22266 2.71448 0
    endloop
  endfacet
  facet normal 0.309014 -0.951058 0
    outer loop
      vertex 6.93786 2.94686 0
      vertex 6.22266 2.71448 -3
      vertex 6.93786 2.94686 -3
    endloop
  endfacet
  facet normal -0.92979 -0.368091 0
    outer loop
      vertex 10.4057 0.746069 -3
      vertex 10.1289 1.44526 0
      vertex 10.1289 1.44526 -3
    endloop
  endfacet
  facet normal -0.92979 -0.368091 0
    outer loop
      vertex 10.1289 1.44526 0
      vertex 10.4057 0.746069 -3
      vertex 10.4057 0.746069 0
    endloop
  endfacet
  facet normal 0.876308 0.481751 0
    outer loop
      vertex 5.07295 -1.76336 0
      vertex 4.71067 -1.10437 -3
      vertex 4.71067 -1.10437 0
    endloop
  endfacet
  facet normal 0.876308 0.481751 0
    outer loop
      vertex 4.71067 -1.10437 -3
      vertex 5.07295 -1.76336 0
      vertex 5.07295 -1.76336 -3
    endloop
  endfacet
  facet normal 0.309014 0.951058 -0
    outer loop
      vertex 6.93786 -2.94686 -3
      vertex 6.22266 -2.71448 0
      vertex 6.93786 -2.94686 0
    endloop
  endfacet
  facet normal 0.309014 0.951058 0
    outer loop
      vertex 6.22266 -2.71448 0
      vertex 6.93786 -2.94686 -3
      vertex 6.22266 -2.71448 -3
    endloop
  endfacet
  facet normal -0.18738 0.982287 0
    outer loop
      vertex 8.42705 -2.85317 -3
      vertex 7.68837 -2.99408 0
      vertex 8.42705 -2.85317 0
    endloop
  endfacet
  facet normal -0.18738 0.982287 0
    outer loop
      vertex 7.68837 -2.99408 0
      vertex 8.42705 -2.85317 -3
      vertex 7.68837 -2.99408 -3
    endloop
  endfacet
  facet normal -0.809032 0.587764 0
    outer loop
      vertex 9.68691 -2.05364 -3
      vertex 10.1289 -1.44526 0
      vertex 10.1289 -1.44526 -3
    endloop
  endfacet
  facet normal -0.809032 0.587764 0
    outer loop
      vertex 10.1289 -1.44526 0
      vertex 9.68691 -2.05364 -3
      vertex 9.68691 -2.05364 0
    endloop
  endfacet
  facet normal 0.876308 -0.481751 0
    outer loop
      vertex 4.71067 1.10437 0
      vertex 5.07295 1.76336 -3
      vertex 5.07295 1.76336 0
    endloop
  endfacet
  facet normal 0.876308 -0.481751 0
    outer loop
      vertex 5.07295 1.76336 -3
      vertex 4.71067 1.10437 0
      vertex 4.71067 1.10437 -3
    endloop
  endfacet
  facet normal -0.425784 -0.904825 0
    outer loop
      vertex 8.42705 2.85317 -3
      vertex 9.10748 2.53298 0
      vertex 8.42705 2.85317 0
    endloop
  endfacet
  facet normal -0.425784 -0.904825 -0
    outer loop
      vertex 9.10748 2.53298 0
      vertex 8.42705 2.85317 -3
      vertex 9.10748 2.53298 -3
    endloop
  endfacet
  facet normal 0.0627931 -0.998027 0
    outer loop
      vertex 6.93786 2.94686 -3
      vertex 7.68837 2.99408 0
      vertex 6.93786 2.94686 0
    endloop
  endfacet
  facet normal 0.0627931 -0.998027 0
    outer loop
      vertex 7.68837 2.99408 0
      vertex 6.93786 2.94686 -3
      vertex 7.68837 2.99408 -3
    endloop
  endfacet
  facet normal -0.18738 -0.982287 0
    outer loop
      vertex 7.68837 2.99408 -3
      vertex 8.42705 2.85317 0
      vertex 7.68837 2.99408 0
    endloop
  endfacet
  facet normal -0.18738 -0.982287 -0
    outer loop
      vertex 8.42705 2.85317 0
      vertex 7.68837 2.99408 -3
      vertex 8.42705 2.85317 -3
    endloop
  endfacet
  facet normal 0.587811 -0.808999 0
    outer loop
      vertex 10.9088 -5.38153 -3
      vertex 11.9227 -4.64484 0
      vertex 10.9088 -5.38153 0
    endloop
  endfacet
  facet normal 0.587811 -0.808999 0
    outer loop
      vertex 11.9227 -4.64484 0
      vertex 10.9088 -5.38153 -3
      vertex 11.9227 -4.64484 -3
    endloop
  endfacet
  facet normal 0.125338 -0.992114 0
    outer loop
      vertex 8.5 -6 -3
      vertex 9.74345 -5.84291 0
      vertex 8.5 -6 0
    endloop
  endfacet
  facet normal 0.125338 -0.992114 0
    outer loop
      vertex 9.74345 -5.84291 0
      vertex 8.5 -6 -3
      vertex 9.74345 -5.84291 -3
    endloop
  endfacet
  facet normal -0.368114 0.929781 0
    outer loop
      vertex -9.74345 5.84291 -3
      vertex -10.9088 5.38153 0
      vertex -9.74345 5.84291 0
    endloop
  endfacet
  facet normal -0.368114 0.929781 0
    outer loop
      vertex -10.9088 5.38153 0
      vertex -9.74345 5.84291 -3
      vertex -10.9088 5.38153 -3
    endloop
  endfacet
  facet normal 0.368114 -0.929781 0
    outer loop
      vertex 9.74345 -5.84291 -3
      vertex 10.9088 -5.38153 0
      vertex 9.74345 -5.84291 0
    endloop
  endfacet
  facet normal 0.368114 -0.929781 0
    outer loop
      vertex 10.9088 -5.38153 0
      vertex 9.74345 -5.84291 -3
      vertex 10.9088 -5.38153 -3
    endloop
  endfacet
  facet normal 0.425799 0.904818 -0
    outer loop
      vertex 11.1791 5.22163 -3
      vertex 10.0451 5.75528 0
      vertex 11.1791 5.22163 0
    endloop
  endfacet
  facet normal 0.425799 0.904818 0
    outer loop
      vertex 10.0451 5.75528 0
      vertex 11.1791 5.22163 -3
      vertex 10.0451 5.75528 -3
    endloop
  endfacet
  facet normal 0.992113 0.125346 0
    outer loop
      vertex 13.5 1 0
      vertex 13.3429 2.24345 -3
      vertex 13.3429 2.24345 0
    endloop
  endfacet
  facet normal 0.992113 0.125346 0
    outer loop
      vertex 13.3429 2.24345 -3
      vertex 13.5 1 0
      vertex 13.5 1 -3
    endloop
  endfacet
  facet normal -0.98769 0.156423 0
    outer loop
      vertex -13.5 1 -3
      vertex -13.2553 2.54509 0
      vertex -13.2553 2.54509 -3
    endloop
  endfacet
  facet normal -0.98769 0.156423 0
    outer loop
      vertex -13.2553 2.54509 0
      vertex -13.5 1 -3
      vertex -13.5 1 0
    endloop
  endfacet
  facet normal 0 0 -1
    outer loop
      vertex 13.5 -1 -3
      vertex 10.4057 -0.746069 -3
      vertex 10.5 0 -3
    endloop
  endfacet
  facet normal 0 0 -1
    outer loop
      vertex 11.9227 -4.64484 -3
      vertex 10.1289 -1.44526 -3
      vertex 10.4057 -0.746069 -3
    endloop
  endfacet
  facet normal 0 0 -1
    outer loop
      vertex 9.10748 -2.53298 -3
      vertex 10.9088 -5.38153 -3
      vertex 9.74345 -5.84291 -3
    endloop
  endfacet
  facet normal 0 0 -1
    outer loop
      vertex 11.9227 -4.64484 -3
      vertex 9.68691 -2.05364 -3
      vertex 10.1289 -1.44526 -3
    endloop
  endfacet
  facet normal 0 0 -1
    outer loop
      vertex 11.9227 -4.64484 -3
      vertex 9.10748 -2.53298 -3
      vertex 9.68691 -2.05364 -3
    endloop
  endfacet
  facet normal 0 0 -1
    outer loop
      vertex 8.42705 -2.85317 -3
      vertex 9.74345 -5.84291 -3
      vertex 8.5 -6 -3
    endloop
  endfacet
  facet normal 0 0 -1
    outer loop
      vertex 9.74345 -5.84291 -3
      vertex 8.42705 -2.85317 -3
      vertex 9.10748 -2.53298 -3
    endloop
  endfacet
  facet normal 0 0 -1
    outer loop
      vertex 8.5 -6 -3
      vertex 7.68837 -2.99408 -3
      vertex 8.42705 -2.85317 -3
    endloop
  endfacet
  facet normal 0 0 -1
    outer loop
      vertex 8.5 -6 -3
      vertex 6.93786 -2.94686 -3
      vertex 7.68837 -2.99408 -3
    endloop
  endfacet
  facet normal 0 0 -1
    outer loop
      vertex 8.5 -6 -3
      vertex 6.22266 -2.71448 -3
      vertex 6.93786 -2.94686 -3
    endloop
  endfacet
  facet normal 0 0 -1
    outer loop
      vertex 8.5 -6 -3
      vertex 5.58773 -2.31154 -3
      vertex 6.22266 -2.71448 -3
    endloop
  endfacet
  facet normal 0 0 -1
    outer loop
      vertex -5.89252 -2.53298 -3
      vertex 5.58773 -2.31154 -3
      vertex 8.5 -6 -3
    endloop
  endfacet
  facet normal 0 0 -1
    outer loop
      vertex 4.52366 -0.375999 -3
      vertex -4.5 0 -3
      vertex 4.52366 0.375999 -3
    endloop
  endfacet
  facet normal 0 0 -1
    outer loop
      vertex -4.59425 -0.746069 -3
      vertex 4.52366 -0.375999 -3
      vertex 4.71067 -1.10437 -3
    endloop
  endfacet
  facet normal 0 0 -1
    outer loop
      vertex -4.87108 -1.44526 -3
      vertex 4.71067 -1.10437 -3
      vertex 5.07295 -1.76336 -3
    endloop
  endfacet
  facet normal 0 0 -1
    outer loop
      vertex 5.58773 -2.31154 -3
      vertex -5.31309 -2.05364 -3
      vertex 5.07295 -1.76336 -3
    endloop
  endfacet
  facet normal -0 0 -1
    outer loop
      vertex 4.52366 -0.375999 -3
      vertex -4.59425 -0.746069 -3
      vertex -4.5 0 -3
    endloop
  endfacet
  facet normal -0 0 -1
    outer loop
      vertex 4.71067 -1.10437 -3
      vertex -4.87108 -1.44526 -3
      vertex -4.59425 -0.746069 -3
    endloop
  endfacet
  facet normal -0 0 -1
    outer loop
      vertex 5.07295 -1.76336 -3
      vertex -5.31309 -2.05364 -3
      vertex -4.87108 -1.44526 -3
    endloop
  endfacet
  facet normal -0 0 -1
    outer loop
      vertex 5.58773 -2.31154 -3
      vertex -5.89252 -2.53298 -3
      vertex -5.31309 -2.05364 -3
    endloop
  endfacet
  facet normal 0 0 -1
    outer loop
      vertex -8.5 -6 -3
      vertex -5.89252 -2.53298 -3
      vertex 8.5 -6 -3
    endloop
  endfacet
  facet normal 0 0 -1
    outer loop
      vertex -5.89252 -2.53298 -3
      vertex -8.5 -6 -3
      vertex -6.57295 -2.85317 -3
    endloop
  endfacet
  facet normal 0 0 -1
    outer loop
      vertex -6.57295 -2.85317 -3
      vertex -8.5 -6 -3
      vertex -7.31163 -2.99408 -3
    endloop
  endfacet
  facet normal -0 0 -1
    outer loop
      vertex -7.31163 -2.99408 -3
      vertex -8.5 -6 -3
      vertex -8.06214 -2.94686 -3
    endloop
  endfacet
  facet normal 0 0 -1
    outer loop
      vertex -8.5 -6 -3
      vertex -8.77734 -2.71448 -3
      vertex -8.06214 -2.94686 -3
    endloop
  endfacet
  facet normal 0 0 -1
    outer loop
      vertex -10.0451 -5.75528 -3
      vertex -8.77734 -2.71448 -3
      vertex -8.5 -6 -3
    endloop
  endfacet
  facet normal 0 0 -1
    outer loop
      vertex -11.1791 -5.22163 -3
      vertex -8.77734 -2.71448 -3
      vertex -10.0451 -5.75528 -3
    endloop
  endfacet
  facet normal -0 0 -1
    outer loop
      vertex -8.77734 -2.71448 -3
      vertex -11.1791 -5.22163 -3
      vertex -9.41227 -2.31154 -3
    endloop
  endfacet
  facet normal 0 0 -1
    outer loop
      vertex -12.1448 -4.42273 -3
      vertex -9.41227 -2.31154 -3
      vertex -11.1791 -5.22163 -3
    endloop
  endfacet
  facet normal -0 0 -1
    outer loop
      vertex -9.41227 -2.31154 -3
      vertex -12.1448 -4.42273 -3
      vertex -9.92705 -1.76336 -3
    endloop
  endfacet
  facet normal 0 0 -1
    outer loop
      vertex -13.5 1 -3
      vertex -10.4763 0.375999 -3
      vertex -10.4763 -0.375999 -3
    endloop
  endfacet
  facet normal 0 0 -1
    outer loop
      vertex -12.8815 -3.40877 -3
      vertex -9.92705 -1.76336 -3
      vertex -12.1448 -4.42273 -3
    endloop
  endfacet
  facet normal -0 0 -1
    outer loop
      vertex -9.92705 -1.76336 -3
      vertex -12.8815 -3.40877 -3
      vertex -10.2893 -1.10437 -3
    endloop
  endfacet
  facet normal 0 0 -1
    outer loop
      vertex -10.4763 0.375999 -3
      vertex -13.5 1 -3
      vertex -13.2553 2.54509 -3
    endloop
  endfacet
  facet normal 0 0 -1
    outer loop
      vertex -13.3429 -2.24345 -3
      vertex -10.2893 -1.10437 -3
      vertex -12.8815 -3.40877 -3
    endloop
  endfacet
  facet normal 0 0 -1
    outer loop
      vertex -10.4763 0.375999 -3
      vertex -11.9227 4.64484 -3
      vertex -10.9088 5.38153 -3
    endloop
  endfacet
  facet normal 0 0 -1
    outer loop
      vertex -13.5 -1 -3
      vertex -10.2893 -1.10437 -3
      vertex -13.3429 -2.24345 -3
    endloop
  endfacet
  facet normal 0 0 -1
    outer loop
      vertex -10.4763 0.375999 -3
      vertex -12.7216 3.67914 -3
      vertex -11.9227 4.64484 -3
    endloop
  endfacet
  facet normal 0 0 -1
    outer loop
      vertex -10.2893 -1.10437 -3
      vertex -13.5 -1 -3
      vertex -10.4763 -0.375999 -3
    endloop
  endfacet
  facet normal -0 0 -1
    outer loop
      vertex -10.4763 -0.375999 -3
      vertex -13.5 -1 -3
      vertex -13.5 1 -3
    endloop
  endfacet
  facet normal 0 0 -1
    outer loop
      vertex -10.4763 0.375999 -3
      vertex -13.2553 2.54509 -3
      vertex -12.7216 3.67914 -3
    endloop
  endfacet
  facet normal 0 0 -1
    outer loop
      vertex 10.5 0 -3
      vertex 13.5 1 -3
      vertex 13.5 -1 -3
    endloop
  endfacet
  facet normal 0 0 -1
    outer loop
      vertex 10.4057 -0.746069 -3
      vertex 13.5 -1 -3
      vertex 13.2553 -2.54509 -3
    endloop
  endfacet
  facet normal 0 0 -1
    outer loop
      vertex 10.4057 0.746069 -3
      vertex 13.5 1 -3
      vertex 10.5 0 -3
    endloop
  endfacet
  facet normal 0 0 -1
    outer loop
      vertex 10.4057 -0.746069 -3
      vertex 13.2553 -2.54509 -3
      vertex 12.7216 -3.67914 -3
    endloop
  endfacet
  facet normal -0 0 -1
    outer loop
      vertex 13.5 1 -3
      vertex 10.4057 0.746069 -3
      vertex 13.3429 2.24345 -3
    endloop
  endfacet
  facet normal 0 0 -1
    outer loop
      vertex 10.4057 -0.746069 -3
      vertex 12.7216 -3.67914 -3
      vertex 11.9227 -4.64484 -3
    endloop
  endfacet
  facet normal 0 0 -1
    outer loop
      vertex 10.1289 1.44526 -3
      vertex 13.3429 2.24345 -3
      vertex 10.4057 0.746069 -3
    endloop
  endfacet
  facet normal 0 0 -1
    outer loop
      vertex 9.10748 -2.53298 -3
      vertex 11.9227 -4.64484 -3
      vertex 10.9088 -5.38153 -3
    endloop
  endfacet
  facet normal -0 0 -1
    outer loop
      vertex 13.3429 2.24345 -3
      vertex 10.1289 1.44526 -3
      vertex 12.8815 3.40877 -3
    endloop
  endfacet
  facet normal 0 0 -1
    outer loop
      vertex 9.68691 2.05364 -3
      vertex 12.8815 3.40877 -3
      vertex 10.1289 1.44526 -3
    endloop
  endfacet
  facet normal -0 0 -1
    outer loop
      vertex 12.8815 3.40877 -3
      vertex 9.68691 2.05364 -3
      vertex 12.1448 4.42273 -3
    endloop
  endfacet
  facet normal -0 0 -1
    outer loop
      vertex 12.1448 4.42273 -3
      vertex 9.68691 2.05364 -3
      vertex 11.1791 5.22163 -3
    endloop
  endfacet
  facet normal 0 0 -1
    outer loop
      vertex 9.10748 2.53298 -3
      vertex 11.1791 5.22163 -3
      vertex 9.68691 2.05364 -3
    endloop
  endfacet
  facet normal -0 0 -1
    outer loop
      vertex 11.1791 5.22163 -3
      vertex 9.10748 2.53298 -3
      vertex 10.0451 5.75528 -3
    endloop
  endfacet
  facet normal 0 0 -1
    outer loop
      vertex 8.42705 2.85317 -3
      vertex 10.0451 5.75528 -3
      vertex 9.10748 2.53298 -3
    endloop
  endfacet
  facet normal -0 0 -1
    outer loop
      vertex 10.0451 5.75528 -3
      vertex 8.42705 2.85317 -3
      vertex 8.5 6 -3
    endloop
  endfacet
  facet normal 0 0 -1
    outer loop
      vertex 7.68837 2.99408 -3
      vertex 8.5 6 -3
      vertex 8.42705 2.85317 -3
    endloop
  endfacet
  facet normal 0 0 -1
    outer loop
      vertex 6.93786 2.94686 -3
      vertex 8.5 6 -3
      vertex 7.68837 2.99408 -3
    endloop
  endfacet
  facet normal 0 0 -1
    outer loop
      vertex 6.22266 2.71448 -3
      vertex 8.5 6 -3
      vertex 6.93786 2.94686 -3
    endloop
  endfacet
  facet normal 0 0 -1
    outer loop
      vertex 5.58773 2.31154 -3
      vertex 8.5 6 -3
      vertex 6.22266 2.71448 -3
    endloop
  endfacet
  facet normal 0 0 -1
    outer loop
      vertex -5.31309 2.05364 -3
      vertex 5.58773 2.31154 -3
      vertex 5.07295 1.76336 -3
    endloop
  endfacet
  facet normal 0 0 -1
    outer loop
      vertex -4.59425 0.746069 -3
      vertex 4.52366 0.375999 -3
      vertex -4.5 0 -3
    endloop
  endfacet
  facet normal 0 0 -1
    outer loop
      vertex 4.52366 0.375999 -3
      vertex -4.59425 0.746069 -3
      vertex 4.71067 1.10437 -3
    endloop
  endfacet
  facet normal 0 0 -1
    outer loop
      vertex -4.87108 1.44526 -3
      vertex 4.71067 1.10437 -3
      vertex -4.59425 0.746069 -3
    endloop
  endfacet
  facet normal 0 0 -1
    outer loop
      vertex 4.71067 1.10437 -3
      vertex -4.87108 1.44526 -3
      vertex 5.07295 1.76336 -3
    endloop
  endfacet
  facet normal 0 0 -1
    outer loop
      vertex -5.31309 2.05364 -3
      vertex 5.07295 1.76336 -3
      vertex -4.87108 1.44526 -3
    endloop
  endfacet
  facet normal 0 0 -1
    outer loop
      vertex -5.89252 2.53298 -3
      vertex 5.58773 2.31154 -3
      vertex -5.31309 2.05364 -3
    endloop
  endfacet
  facet normal 0 0 -1
    outer loop
      vertex 5.58773 2.31154 -3
      vertex -5.89252 2.53298 -3
      vertex 8.5 6 -3
    endloop
  endfacet
  facet normal 0 0 -1
    outer loop
      vertex -8.5 6 -3
      vertex -5.89252 2.53298 -3
      vertex -6.57295 2.85317 -3
    endloop
  endfacet
  facet normal 0 0 -1
    outer loop
      vertex -8.5 6 -3
      vertex -6.57295 2.85317 -3
      vertex -7.31163 2.99408 -3
    endloop
  endfacet
  facet normal 0 0 -1
    outer loop
      vertex -8.5 6 -3
      vertex -7.31163 2.99408 -3
      vertex -8.06214 2.94686 -3
    endloop
  endfacet
  facet normal 0 0 -1
    outer loop
      vertex -5.89252 2.53298 -3
      vertex -8.5 6 -3
      vertex 8.5 6 -3
    endloop
  endfacet
  facet normal 0 0 -1
    outer loop
      vertex -8.77734 2.71448 -3
      vertex -8.5 6 -3
      vertex -8.06214 2.94686 -3
    endloop
  endfacet
  facet normal 0 0 -1
    outer loop
      vertex -10.9088 5.38153 -3
      vertex -8.77734 2.71448 -3
      vertex -9.41227 2.31154 -3
    endloop
  endfacet
  facet normal 0 0 -1
    outer loop
      vertex -8.77734 2.71448 -3
      vertex -9.74345 5.84291 -3
      vertex -8.5 6 -3
    endloop
  endfacet
  facet normal 0 0 -1
    outer loop
      vertex -10.9088 5.38153 -3
      vertex -9.41227 2.31154 -3
      vertex -9.92705 1.76336 -3
    endloop
  endfacet
  facet normal 0 0 -1
    outer loop
      vertex -10.9088 5.38153 -3
      vertex -9.92705 1.76336 -3
      vertex -10.2893 1.10437 -3
    endloop
  endfacet
  facet normal 0 0 -1
    outer loop
      vertex -10.9088 5.38153 -3
      vertex -10.2893 1.10437 -3
      vertex -10.4763 0.375999 -3
    endloop
  endfacet
  facet normal 0 0 -1
    outer loop
      vertex -8.77734 2.71448 -3
      vertex -10.9088 5.38153 -3
      vertex -9.74345 5.84291 -3
    endloop
  endfacet
  facet normal -0.425799 -0.904818 0
    outer loop
      vertex -11.1791 -5.22163 -3
      vertex -10.0451 -5.75528 0
      vertex -11.1791 -5.22163 0
    endloop
  endfacet
  facet normal -0.425799 -0.904818 -0
    outer loop
      vertex -10.0451 -5.75528 0
      vertex -11.1791 -5.22163 -3
      vertex -10.0451 -5.75528 -3
    endloop
  endfacet
  facet normal 0 -1 0
    outer loop
      vertex -8.5 -6 -3
      vertex 8.5 -6 0
      vertex -8.5 -6 0
    endloop
  endfacet
  facet normal 0 -1 -0
    outer loop
      vertex 8.5 -6 0
      vertex -8.5 -6 -3
      vertex 8.5 -6 -3
    endloop
  endfacet
  facet normal 0 1 -0
    outer loop
      vertex 8.5 6 -3
      vertex -8.5 6 0
      vertex 8.5 6 0
    endloop
  endfacet
  facet normal 0 1 0
    outer loop
      vertex -8.5 6 0
      vertex 8.5 6 -3
      vertex -8.5 6 -3
    endloop
  endfacet
  facet normal 0.156435 0.987688 -0
    outer loop
      vertex 10.0451 5.75528 -3
      vertex 8.5 6 0
      vertex 10.0451 5.75528 0
    endloop
  endfacet
  facet normal 0.156435 0.987688 0
    outer loop
      vertex 8.5 6 0
      vertex 10.0451 5.75528 -3
      vertex 8.5 6 -3
    endloop
  endfacet
  facet normal -0.125338 0.992114 0
    outer loop
      vertex -8.5 6 -3
      vertex -9.74345 5.84291 0
      vertex -8.5 6 0
    endloop
  endfacet
  facet normal -0.125338 0.992114 0
    outer loop
      vertex -9.74345 5.84291 0
      vertex -8.5 6 -3
      vertex -9.74345 5.84291 -3
    endloop
  endfacet
  facet normal -0.770512 0.637426 0
    outer loop
      vertex -12.7216 3.67914 -3
      vertex -11.9227 4.64484 0
      vertex -11.9227 4.64484 -3
    endloop
  endfacet
  facet normal -0.770512 0.637426 0
    outer loop
      vertex -11.9227 4.64484 0
      vertex -12.7216 3.67914 -3
      vertex -12.7216 3.67914 0
    endloop
  endfacet
  facet normal -0.587811 0.808999 0
    outer loop
      vertex -10.9088 5.38153 -3
      vertex -11.9227 4.64484 0
      vertex -10.9088 5.38153 0
    endloop
  endfacet
  facet normal -0.587811 0.808999 0
    outer loop
      vertex -11.9227 4.64484 0
      vertex -10.9088 5.38153 -3
      vertex -11.9227 4.64484 -3
    endloop
  endfacet
  facet normal -0.90481 0.425816 0
    outer loop
      vertex -13.2553 2.54509 -3
      vertex -12.7216 3.67914 0
      vertex -12.7216 3.67914 -3
    endloop
  endfacet
  facet normal -0.90481 0.425816 0
    outer loop
      vertex -12.7216 3.67914 0
      vertex -13.2553 2.54509 -3
      vertex -13.2553 2.54509 0
    endloop
  endfacet
  facet normal -0.929772 -0.368136 0
    outer loop
      vertex -12.8815 -3.40877 -3
      vertex -13.3429 -2.24345 0
      vertex -13.3429 -2.24345 -3
    endloop
  endfacet
  facet normal -0.929772 -0.368136 0
    outer loop
      vertex -13.3429 -2.24345 0
      vertex -12.8815 -3.40877 -3
      vertex -12.8815 -3.40877 0
    endloop
  endfacet
  facet normal -0.637426 -0.770512 0
    outer loop
      vertex -12.1448 -4.42273 -3
      vertex -11.1791 -5.22163 0
      vertex -12.1448 -4.42273 0
    endloop
  endfacet
  facet normal -0.637426 -0.770512 -0
    outer loop
      vertex -11.1791 -5.22163 0
      vertex -12.1448 -4.42273 -3
      vertex -11.1791 -5.22163 -3
    endloop
  endfacet
  facet normal -1 0 0
    outer loop
      vertex -13.5 -1 -3
      vertex -13.5 1 0
      vertex -13.5 1 -3
    endloop
  endfacet
  facet normal -1 -0 0
    outer loop
      vertex -13.5 1 0
      vertex -13.5 -1 -3
      vertex -13.5 -1 0
    endloop
  endfacet
  facet normal -0.156435 -0.987688 0
    outer loop
      vertex -10.0451 -5.75528 -3
      vertex -8.5 -6 0
      vertex -10.0451 -5.75528 0
    endloop
  endfacet
  facet normal -0.156435 -0.987688 -0
    outer loop
      vertex -8.5 -6 0
      vertex -10.0451 -5.75528 -3
      vertex -8.5 -6 -3
    endloop
  endfacet
  facet normal 0.809011 0.587793 0
    outer loop
      vertex 12.8815 3.40877 0
      vertex 12.1448 4.42273 -3
      vertex 12.1448 4.42273 0
    endloop
  endfacet
  facet normal 0.809011 0.587793 0
    outer loop
      vertex 12.1448 4.42273 -3
      vertex 12.8815 3.40877 0
      vertex 12.8815 3.40877 -3
    endloop
  endfacet
  facet normal 0.929772 0.368136 0
    outer loop
      vertex 13.3429 2.24345 0
      vertex 12.8815 3.40877 -3
      vertex 12.8815 3.40877 0
    endloop
  endfacet
  facet normal 0.929772 0.368136 0
    outer loop
      vertex 12.8815 3.40877 -3
      vertex 13.3429 2.24345 0
      vertex 13.3429 2.24345 -3
    endloop
  endfacet
  facet normal 0.637426 0.770512 -0
    outer loop
      vertex 12.1448 4.42273 -3
      vertex 11.1791 5.22163 0
      vertex 12.1448 4.42273 0
    endloop
  endfacet
  facet normal 0.637426 0.770512 0
    outer loop
      vertex 11.1791 5.22163 0
      vertex 12.1448 4.42273 -3
      vertex 11.1791 5.22163 -3
    endloop
  endfacet
  facet normal 0.98769 -0.156423 0
    outer loop
      vertex 13.2553 -2.54509 0
      vertex 13.5 -1 -3
      vertex 13.5 -1 0
    endloop
  endfacet
  facet normal 0.98769 -0.156423 0
    outer loop
      vertex 13.5 -1 -3
      vertex 13.2553 -2.54509 0
      vertex 13.2553 -2.54509 -3
    endloop
  endfacet
  facet normal 0.770512 -0.637426 0
    outer loop
      vertex 11.9227 -4.64484 0
      vertex 12.7216 -3.67914 -3
      vertex 12.7216 -3.67914 0
    endloop
  endfacet
  facet normal 0.770512 -0.637426 0
    outer loop
      vertex 12.7216 -3.67914 -3
      vertex 11.9227 -4.64484 0
      vertex 11.9227 -4.64484 -3
    endloop
  endfacet
  facet normal -0.809011 -0.587793 0
    outer loop
      vertex -12.1448 -4.42273 -3
      vertex -12.8815 -3.40877 0
      vertex -12.8815 -3.40877 -3
    endloop
  endfacet
  facet normal -0.809011 -0.587793 0
    outer loop
      vertex -12.8815 -3.40877 0
      vertex -12.1448 -4.42273 -3
      vertex -12.1448 -4.42273 0
    endloop
  endfacet
  facet normal -0.992113 -0.125346 0
    outer loop
      vertex -13.3429 -2.24345 -3
      vertex -13.5 -1 0
      vertex -13.5 -1 -3
    endloop
  endfacet
  facet normal -0.992113 -0.125346 0
    outer loop
      vertex -13.5 -1 0
      vertex -13.3429 -2.24345 -3
      vertex -13.3429 -2.24345 0
    endloop
  endfacet
  facet normal 0 0 1
    outer loop
      vertex 10.4057 0.746069 0
      vertex 13.5 1 0
      vertex 13.3429 2.24345 0
    endloop
  endfacet
  facet normal 0 0 1
    outer loop
      vertex 13.5 1 0
      vertex 10.5 0 0
      vertex 13.5 -1 0
    endloop
  endfacet
  facet normal 0 0 1
    outer loop
      vertex 10.1289 1.44526 0
      vertex 13.3429 2.24345 0
      vertex 12.8815 3.40877 0
    endloop
  endfacet
  facet normal -0 0 1
    outer loop
      vertex 10.4057 -0.746069 0
      vertex 13.5 -1 0
      vertex 10.5 0 0
    endloop
  endfacet
  facet normal 0 0 1
    outer loop
      vertex 9.68691 2.05364 0
      vertex 12.8815 3.40877 0
      vertex 12.1448 4.42273 0
    endloop
  endfacet
  facet normal 0 0 1
    outer loop
      vertex 13.5 -1 0
      vertex 10.4057 -0.746069 0
      vertex 13.2553 -2.54509 0
    endloop
  endfacet
  facet normal 0 0 1
    outer loop
      vertex 9.68691 2.05364 0
      vertex 12.1448 4.42273 0
      vertex 11.1791 5.22163 0
    endloop
  endfacet
  facet normal -0 0 1
    outer loop
      vertex 10.1289 -1.44526 0
      vertex 13.2553 -2.54509 0
      vertex 10.4057 -0.746069 0
    endloop
  endfacet
  facet normal 0 0 1
    outer loop
      vertex 13.2553 -2.54509 0
      vertex 10.1289 -1.44526 0
      vertex 12.7216 -3.67914 0
    endloop
  endfacet
  facet normal 0 0 1
    outer loop
      vertex 13.5 1 0
      vertex 10.4057 0.746069 0
      vertex 10.5 0 0
    endloop
  endfacet
  facet normal 0 0 1
    outer loop
      vertex 13.3429 2.24345 0
      vertex 10.1289 1.44526 0
      vertex 10.4057 0.746069 0
    endloop
  endfacet
  facet normal 0 0 1
    outer loop
      vertex 9.10748 2.53298 0
      vertex 11.1791 5.22163 0
      vertex 10.0451 5.75528 0
    endloop
  endfacet
  facet normal 0 0 1
    outer loop
      vertex 12.8815 3.40877 0
      vertex 9.68691 2.05364 0
      vertex 10.1289 1.44526 0
    endloop
  endfacet
  facet normal 0 0 1
    outer loop
      vertex 11.1791 5.22163 0
      vertex 9.10748 2.53298 0
      vertex 9.68691 2.05364 0
    endloop
  endfacet
  facet normal 0 0 1
    outer loop
      vertex 8.42705 2.85317 0
      vertex 10.0451 5.75528 0
      vertex 8.5 6 0
    endloop
  endfacet
  facet normal 0 0 1
    outer loop
      vertex 10.0451 5.75528 0
      vertex 8.42705 2.85317 0
      vertex 9.10748 2.53298 0
    endloop
  endfacet
  facet normal 0 0 1
    outer loop
      vertex 8.5 6 0
      vertex 7.68837 2.99408 0
      vertex 8.42705 2.85317 0
    endloop
  endfacet
  facet normal 0 0 1
    outer loop
      vertex 8.5 6 0
      vertex 6.93786 2.94686 0
      vertex 7.68837 2.99408 0
    endloop
  endfacet
  facet normal 0 0 1
    outer loop
      vertex 8.5 6 0
      vertex 6.22266 2.71448 0
      vertex 6.93786 2.94686 0
    endloop
  endfacet
  facet normal 0 0 1
    outer loop
      vertex 8.5 6 0
      vertex 5.58773 2.31154 0
      vertex 6.22266 2.71448 0
    endloop
  endfacet
  facet normal -0 0 1
    outer loop
      vertex -5.89252 2.53298 0
      vertex 5.58773 2.31154 0
      vertex 8.5 6 0
    endloop
  endfacet
  facet normal 0 0 1
    outer loop
      vertex 4.52366 0.375999 0
      vertex -4.5 0 0
      vertex 4.52366 -0.375999 0
    endloop
  endfacet
  facet normal -0 0 1
    outer loop
      vertex -4.59425 0.746069 0
      vertex 4.52366 0.375999 0
      vertex 4.71067 1.10437 0
    endloop
  endfacet
  facet normal -0 0 1
    outer loop
      vertex -4.87108 1.44526 0
      vertex 4.71067 1.10437 0
      vertex 5.07295 1.76336 0
    endloop
  endfacet
  facet normal 0 0 1
    outer loop
      vertex 5.58773 2.31154 0
      vertex -5.31309 2.05364 0
      vertex 5.07295 1.76336 0
    endloop
  endfacet
  facet normal 0 0 1
    outer loop
      vertex 4.52366 0.375999 0
      vertex -4.59425 0.746069 0
      vertex -4.5 0 0
    endloop
  endfacet
  facet normal 0 0 1
    outer loop
      vertex 4.71067 1.10437 0
      vertex -4.87108 1.44526 0
      vertex -4.59425 0.746069 0
    endloop
  endfacet
  facet normal 0 0 1
    outer loop
      vertex 5.07295 1.76336 0
      vertex -5.31309 2.05364 0
      vertex -4.87108 1.44526 0
    endloop
  endfacet
  facet normal 0 0 1
    outer loop
      vertex 5.58773 2.31154 0
      vertex -5.89252 2.53298 0
      vertex -5.31309 2.05364 0
    endloop
  endfacet
  facet normal -0 0 1
    outer loop
      vertex -8.5 6 0
      vertex -5.89252 2.53298 0
      vertex 8.5 6 0
    endloop
  endfacet
  facet normal 0 0 1
    outer loop
      vertex -5.89252 2.53298 0
      vertex -8.5 6 0
      vertex -6.57295 2.85317 0
    endloop
  endfacet
  facet normal 0 0 1
    outer loop
      vertex -6.57295 2.85317 0
      vertex -8.5 6 0
      vertex -7.31163 2.99408 0
    endloop
  endfacet
  facet normal 0 0 1
    outer loop
      vertex -7.31163 2.99408 0
      vertex -8.5 6 0
      vertex -8.06214 2.94686 0
    endloop
  endfacet
  facet normal 0 0 1
    outer loop
      vertex -8.5 6 0
      vertex -8.77734 2.71448 0
      vertex -8.06214 2.94686 0
    endloop
  endfacet
  facet normal -0 0 1
    outer loop
      vertex -9.74345 5.84291 0
      vertex -8.77734 2.71448 0
      vertex -8.5 6 0
    endloop
  endfacet
  facet normal -0 0 1
    outer loop
      vertex -10.9088 5.38153 0
      vertex -8.77734 2.71448 0
      vertex -9.74345 5.84291 0
    endloop
  endfacet
  facet normal 0 0 1
    outer loop
      vertex -8.77734 2.71448 0
      vertex -10.9088 5.38153 0
      vertex -9.41227 2.31154 0
    endloop
  endfacet
  facet normal -0 0 1
    outer loop
      vertex -11.9227 4.64484 0
      vertex -9.41227 2.31154 0
      vertex -10.9088 5.38153 0
    endloop
  endfacet
  facet normal 0 0 1
    outer loop
      vertex -9.41227 2.31154 0
      vertex -11.9227 4.64484 0
      vertex -9.92705 1.76336 0
    endloop
  endfacet
  facet normal -0 0 1
    outer loop
      vertex -13.2553 2.54509 0
      vertex -9.92705 1.76336 0
      vertex -12.7216 3.67914 0
    endloop
  endfacet
  facet normal -0 0 1
    outer loop
      vertex -12.7216 3.67914 0
      vertex -9.92705 1.76336 0
      vertex -11.9227 4.64484 0
    endloop
  endfacet
  facet normal -0 0 1
    outer loop
      vertex 9.68691 -2.05364 0
      vertex 12.7216 -3.67914 0
      vertex 10.1289 -1.44526 0
    endloop
  endfacet
  facet normal 0 0 1
    outer loop
      vertex 12.7216 -3.67914 0
      vertex 9.68691 -2.05364 0
      vertex 11.9227 -4.64484 0
    endloop
  endfacet
  facet normal -0 0 1
    outer loop
      vertex 9.10748 -2.53298 0
      vertex 11.9227 -4.64484 0
      vertex 9.68691 -2.05364 0
    endloop
  endfacet
  facet normal 0 0 1
    outer loop
      vertex 11.9227 -4.64484 0
      vertex 9.10748 -2.53298 0
      vertex 10.9088 -5.38153 0
    endloop
  endfacet
  facet normal 0 0 1
    outer loop
      vertex 10.9088 -5.38153 0
      vertex 9.10748 -2.53298 0
      vertex 9.74345 -5.84291 0
    endloop
  endfacet
  facet normal -0 0 1
    outer loop
      vertex 8.42705 -2.85317 0
      vertex 9.74345 -5.84291 0
      vertex 9.10748 -2.53298 0
    endloop
  endfacet
  facet normal 0 0 1
    outer loop
      vertex 9.74345 -5.84291 0
      vertex 8.42705 -2.85317 0
      vertex 8.5 -6 0
    endloop
  endfacet
  facet normal -0 0 1
    outer loop
      vertex 7.68837 -2.99408 0
      vertex 8.5 -6 0
      vertex 8.42705 -2.85317 0
    endloop
  endfacet
  facet normal 0 0 1
    outer loop
      vertex 6.93786 -2.94686 0
      vertex 8.5 -6 0
      vertex 7.68837 -2.99408 0
    endloop
  endfacet
  facet normal 0 0 1
    outer loop
      vertex 6.22266 -2.71448 0
      vertex 8.5 -6 0
      vertex 6.93786 -2.94686 0
    endloop
  endfacet
  facet normal 0 0 1
    outer loop
      vertex 5.58773 -2.31154 0
      vertex 8.5 -6 0
      vertex 6.22266 -2.71448 0
    endloop
  endfacet
  facet normal -0 0 1
    outer loop
      vertex -5.31309 -2.05364 0
      vertex 5.58773 -2.31154 0
      vertex 5.07295 -1.76336 0
    endloop
  endfacet
  facet normal 0 0 1
    outer loop
      vertex -4.59425 -0.746069 0
      vertex 4.52366 -0.375999 0
      vertex -4.5 0 0
    endloop
  endfacet
  facet normal 0 0 1
    outer loop
      vertex 4.52366 -0.375999 0
      vertex -4.59425 -0.746069 0
      vertex 4.71067 -1.10437 0
    endloop
  endfacet
  facet normal 0 0 1
    outer loop
      vertex -4.87108 -1.44526 0
      vertex 4.71067 -1.10437 0
      vertex -4.59425 -0.746069 0
    endloop
  endfacet
  facet normal 0 0 1
    outer loop
      vertex 4.71067 -1.10437 0
      vertex -4.87108 -1.44526 0
      vertex 5.07295 -1.76336 0
    endloop
  endfacet
  facet normal 0 0 1
    outer loop
      vertex -5.31309 -2.05364 0
      vertex 5.07295 -1.76336 0
      vertex -4.87108 -1.44526 0
    endloop
  endfacet
  facet normal 0 0 1
    outer loop
      vertex -5.89252 -2.53298 0
      vertex 5.58773 -2.31154 0
      vertex -5.31309 -2.05364 0
    endloop
  endfacet
  facet normal 0 0 1
    outer loop
      vertex 5.58773 -2.31154 0
      vertex -5.89252 -2.53298 0
      vertex 8.5 -6 0
    endloop
  endfacet
  facet normal 0 0 1
    outer loop
      vertex -8.5 -6 0
      vertex -5.89252 -2.53298 0
      vertex -6.57295 -2.85317 0
    endloop
  endfacet
  facet normal 0 0 1
    outer loop
      vertex -8.5 -6 0
      vertex -6.57295 -2.85317 0
      vertex -7.31163 -2.99408 0
    endloop
  endfacet
  facet normal 0 0 1
    outer loop
      vertex -8.5 -6 0
      vertex -7.31163 -2.99408 0
      vertex -8.06214 -2.94686 0
    endloop
  endfacet
  facet normal 0 0 1
    outer loop
      vertex -5.89252 -2.53298 0
      vertex -8.5 -6 0
      vertex 8.5 -6 0
    endloop
  endfacet
  facet normal 0 0 1
    outer loop
      vertex -8.77734 -2.71448 0
      vertex -8.5 -6 0
      vertex -8.06214 -2.94686 0
    endloop
  endfacet
  facet normal 0 0 1
    outer loop
      vertex -11.1791 -5.22163 0
      vertex -8.77734 -2.71448 0
      vertex -9.41227 -2.31154 0
    endloop
  endfacet
  facet normal 0 0 1
    outer loop
      vertex -12.1448 -4.42273 0
      vertex -9.41227 -2.31154 0
      vertex -9.92705 -1.76336 0
    endloop
  endfacet
  facet normal 0 0 1
    outer loop
      vertex -8.77734 -2.71448 0
      vertex -10.0451 -5.75528 0
      vertex -8.5 -6 0
    endloop
  endfacet
  facet normal 0 0 1
    outer loop
      vertex -12.8815 -3.40877 0
      vertex -9.92705 -1.76336 0
      vertex -10.2893 -1.10437 0
    endloop
  endfacet
  facet normal -0 0 1
    outer loop
      vertex -13.5 -1 0
      vertex -10.2893 -1.10437 0
      vertex -10.4763 -0.375999 0
    endloop
  endfacet
  facet normal 0 0 1
    outer loop
      vertex -8.77734 -2.71448 0
      vertex -11.1791 -5.22163 0
      vertex -10.0451 -5.75528 0
    endloop
  endfacet
  facet normal 0 0 1
    outer loop
      vertex -9.92705 1.76336 0
      vertex -13.2553 2.54509 0
      vertex -10.2893 1.10437 0
    endloop
  endfacet
  facet normal 0 0 1
    outer loop
      vertex -13.5 1 0
      vertex -10.2893 1.10437 0
      vertex -13.2553 2.54509 0
    endloop
  endfacet
  facet normal 0 0 1
    outer loop
      vertex -13.5 -1 0
      vertex -10.4763 -0.375999 0
      vertex -13.5 1 0
    endloop
  endfacet
  facet normal 0 0 1
    outer loop
      vertex -10.2893 1.10437 0
      vertex -13.5 1 0
      vertex -10.4763 0.375999 0
    endloop
  endfacet
  facet normal 0 0 1
    outer loop
      vertex -10.2893 -1.10437 0
      vertex -13.5 -1 0
      vertex -13.3429 -2.24345 0
    endloop
  endfacet
  facet normal 0 0 1
    outer loop
      vertex -10.4763 0.375999 0
      vertex -13.5 1 0
      vertex -10.4763 -0.375999 0
    endloop
  endfacet
  facet normal 0 0 1
    outer loop
      vertex -9.41227 -2.31154 0
      vertex -12.1448 -4.42273 0
      vertex -11.1791 -5.22163 0
    endloop
  endfacet
  facet normal 0 0 1
    outer loop
      vertex -9.92705 -1.76336 0
      vertex -12.8815 -3.40877 0
      vertex -12.1448 -4.42273 0
    endloop
  endfacet
  facet normal 0 0 1
    outer loop
      vertex -10.2893 -1.10437 0
      vertex -13.3429 -2.24345 0
      vertex -12.8815 -3.40877 0
    endloop
  endfacet
  facet normal 1 -0 0
    outer loop
      vertex 13.5 -1 0
      vertex 13.5 1 -3
      vertex 13.5 1 0
    endloop
  endfacet
  facet normal 1 0 0
    outer loop
      vertex 13.5 1 -3
      vertex 13.5 -1 0
      vertex 13.5 -1 -3
    endloop
  endfacet
  facet normal 0.90481 -0.425816 0
    outer loop
      vertex 12.7216 -3.67914 0
      vertex 13.2553 -2.54509 -3
      vertex 13.2553 -2.54509 0
    endloop
  endfacet
  facet normal 0.90481 -0.425816 0
    outer loop
      vertex 13.2553 -2.54509 -3
      vertex 12.7216 -3.67914 0
      vertex 12.7216 -3.67914 -3
    endloop
  endfacet
endsolid OpenSCAD_Model
