<?xml version="1.0" standalone="no"?>
<!DOCTYPE svg PUBLIC "-//W3C//DTD SVG 1.1//EN" "http://www.w3.org/Graphics/SVG/1.1/DTD/svg11.dtd">
<svg width="28mm" height="12mm" viewBox="-14 -6 28 12" xmlns="http://www.w3.org/2000/svg" version="1.1">
<title>OpenSCAD Model</title>
<path d="
M 9.74345,5.84291 L 10.9088,5.38153 L 11.9227,4.64484 L 12.7216,3.67914 L 13.2553,2.54509 L 13.5,1
 L 13.5,-1 L 13.3429,-2.24345 L 12.8815,-3.40877 L 12.1448,-4.42273 L 11.1791,-5.22163 L 10.0451,-5.75528
 L 8.5,-6 L -8.5,-6 L -9.74345,-5.84291 L -10.9088,-5.38153 L -11.9227,-4.64484 L -12.7216,-3.67914
 L -13.2553,-2.54509 L -13.5,-1 L -13.5,1 L -13.3429,2.24345 L -12.8815,3.40877 L -12.1448,4.42273
 L -11.1791,5.22163 L -10.0451,5.75528 L -8.5,6 L 8.5,6 z
M -8.06213,2.94685 L -8.77733,2.71448 L -9.41226,2.31154 L -9.92705,1.76335 L -10.2893,1.10437 L -10.4763,0.375992
 L -10.4763,-0.375992 L -10.2893,-1.10437 L -9.92705,-1.76335 L -9.41226,-2.31154 L -8.77733,-2.71448 L -8.06213,-2.94685
 L -7.31161,-2.99408 L -6.57294,-2.85316 L -5.89252,-2.53297 L -5.31308,-2.05363 L -4.87108,-1.44525 L -4.59424,-0.746063
 L -4.5,-0 L -4.59424,0.746063 L -4.87108,1.44525 L -5.31308,2.05363 L -5.89252,2.53297 L -6.57294,2.85316
 L -7.31161,2.99408 z
M 6.93785,2.94685 L 6.22266,2.71448 L 5.58772,2.31154 L 5.07294,1.76335 L 4.71066,1.10437 L 4.52365,0.375992
 L 4.52365,-0.375992 L 4.71066,-1.10437 L 5.07294,-1.76335 L 5.58772,-2.31154 L 6.22266,-2.71448 L 6.93785,-2.94685
 L 7.68837,-2.99408 L 8.42705,-2.85316 L 9.10747,-2.53297 L 9.6869,-2.05363 L 10.1289,-1.44525 L 10.4057,-0.746063
 L 10.5,-0 L 10.4057,0.746063 L 10.1289,1.44525 L 9.6869,2.05363 L 9.10747,2.53297 L 8.42705,2.85316
 L 7.68837,2.99408 z
" stroke="black" fill="lightgray" stroke-width="0.5"/>
</svg>
