solid OpenSCAD_Model
  facet normal -0.992115 0.125328 0
    outer loop
      vertex -4.3521 -0.808242 -3
      vertex -4.25 0 0
      vertex -4.25 0 -3
    endloop
  endfacet
  facet normal -0.992115 0.125328 0
    outer loop
      vertex -4.25 0 0
      vertex -4.3521 -0.808242 -3
      vertex -4.3521 -0.808242 0
    endloop
  endfacet
  facet normal -0.992115 -0.125328 0
    outer loop
      vertex -4.25 0 -3
      vertex -4.3521 0.808242 0
      vertex -4.3521 0.808242 -3
    endloop
  endfacet
  facet normal -0.992115 -0.125328 0
    outer loop
      vertex -4.3521 0.808242 0
      vertex -4.25 0 -3
      vertex -4.25 0 0
    endloop
  endfacet
  facet normal 1 -0 0
    outer loop
      vertex -10.7244 -0.407332 0
      vertex -10.7244 0.407332 -3
      vertex -10.7244 0.407332 0
    endloop
  endfacet
  facet normal 1 0 0
    outer loop
      vertex -10.7244 0.407332 -3
      vertex -10.7244 -0.407332 0
      vertex -10.7244 -0.407332 -3
    endloop
  endfacet
  facet normal 0.0627986 0.998026 -0
    outer loop
      vertex -7.29593 -3.24359 -3
      vertex -8.10899 -3.19243 0
      vertex -7.29593 -3.24359 0
    endloop
  endfacet
  facet normal 0.0627986 0.998026 0
    outer loop
      vertex -8.10899 -3.19243 0
      vertex -7.29593 -3.24359 -3
      vertex -8.10899 -3.19243 -3
    endloop
  endfacet
  facet normal 0.0627986 -0.998026 0
    outer loop
      vertex -8.10899 3.19243 -3
      vertex -7.29593 3.24359 0
      vertex -8.10899 3.19243 0
    endloop
  endfacet
  facet normal 0.0627986 -0.998026 0
    outer loop
      vertex -7.29593 3.24359 0
      vertex -8.10899 3.19243 -3
      vertex -7.29593 3.24359 -3
    endloop
  endfacet
  facet normal -0.637426 0.770511 0
    outer loop
      vertex -5.13085 -2.22478 -3
      vertex -5.75856 -2.74407 0
      vertex -5.13085 -2.22478 0
    endloop
  endfacet
  facet normal -0.637426 0.770511 0
    outer loop
      vertex -5.75856 -2.74407 0
      vertex -5.13085 -2.22478 -3
      vertex -5.75856 -2.74407 -3
    endloop
  endfacet
  facet normal -0.809017 0.587786 0
    outer loop
      vertex -5.13085 -2.22478 -3
      vertex -4.652 -1.5657 0
      vertex -4.652 -1.5657 -3
    endloop
  endfacet
  facet normal -0.809017 0.587786 0
    outer loop
      vertex -4.652 -1.5657 0
      vertex -5.13085 -2.22478 -3
      vertex -5.13085 -2.22478 0
    endloop
  endfacet
  facet normal 0.535824 0.84433 -0
    outer loop
      vertex -8.88378 -2.94069 -3
      vertex -9.57163 -2.50417 0
      vertex -8.88378 -2.94069 0
    endloop
  endfacet
  facet normal 0.535824 0.84433 0
    outer loop
      vertex -9.57163 -2.50417 0
      vertex -8.88378 -2.94069 -3
      vertex -9.57163 -2.50417 -3
    endloop
  endfacet
  facet normal -0.929776 0.368126 0
    outer loop
      vertex -4.652 -1.5657 -3
      vertex -4.3521 -0.808242 0
      vertex -4.3521 -0.808242 -3
    endloop
  endfacet
  facet normal -0.929776 0.368126 0
    outer loop
      vertex -4.3521 -0.808242 0
      vertex -4.652 -1.5657 -3
      vertex -4.652 -1.5657 0
    endloop
  endfacet
  facet normal 0.968583 -0.248692 0
    outer loop
      vertex -10.7244 0.407332 0
      vertex -10.5218 1.1964 -3
      vertex -10.5218 1.1964 0
    endloop
  endfacet
  facet normal 0.968583 -0.248692 0
    outer loop
      vertex -10.5218 1.1964 -3
      vertex -10.7244 0.407332 0
      vertex -10.7244 0.407332 -3
    endloop
  endfacet
  facet normal -0.809017 -0.587786 0
    outer loop
      vertex -4.652 1.5657 -3
      vertex -5.13085 2.22478 0
      vertex -5.13085 2.22478 -3
    endloop
  endfacet
  facet normal -0.809017 -0.587786 0
    outer loop
      vertex -5.13085 2.22478 0
      vertex -4.652 1.5657 -3
      vertex -4.652 1.5657 0
    endloop
  endfacet
  facet normal 0.728975 -0.68454 0
    outer loop
      vertex -10.1293 1.9103 0
      vertex -9.57163 2.50417 -3
      vertex -9.57163 2.50417 0
    endloop
  endfacet
  facet normal 0.728975 -0.68454 0
    outer loop
      vertex -9.57163 2.50417 -3
      vertex -10.1293 1.9103 0
      vertex -10.1293 1.9103 -3
    endloop
  endfacet
  facet normal 0.876291 -0.481782 0
    outer loop
      vertex -10.5218 1.1964 0
      vertex -10.1293 1.9103 -3
      vertex -10.1293 1.9103 0
    endloop
  endfacet
  facet normal 0.876291 -0.481782 0
    outer loop
      vertex -10.1293 1.9103 -3
      vertex -10.5218 1.1964 0
      vertex -10.5218 1.1964 -3
    endloop
  endfacet
  facet normal 0.728975 0.68454 0
    outer loop
      vertex -9.57163 -2.50417 0
      vertex -10.1293 -1.9103 -3
      vertex -10.1293 -1.9103 0
    endloop
  endfacet
  facet normal 0.728975 0.68454 0
    outer loop
      vertex -10.1293 -1.9103 -3
      vertex -9.57163 -2.50417 0
      vertex -9.57163 -2.50417 -3
    endloop
  endfacet
  facet normal 0.876291 0.481782 0
    outer loop
      vertex -10.1293 -1.9103 0
      vertex -10.5218 -1.1964 -3
      vertex -10.5218 -1.1964 0
    endloop
  endfacet
  facet normal 0.876291 0.481782 0
    outer loop
      vertex -10.5218 -1.1964 -3
      vertex -10.1293 -1.9103 0
      vertex -10.1293 -1.9103 -3
    endloop
  endfacet
  facet normal 0.968583 0.248692 0
    outer loop
      vertex -10.5218 -1.1964 0
      vertex -10.7244 -0.407332 -3
      vertex -10.7244 -0.407332 0
    endloop
  endfacet
  facet normal 0.968583 0.248692 0
    outer loop
      vertex -10.7244 -0.407332 -3
      vertex -10.5218 -1.1964 0
      vertex -10.5218 -1.1964 -3
    endloop
  endfacet
  facet normal 0.309012 0.951058 -0
    outer loop
      vertex -8.10899 -3.19243 -3
      vertex -8.88378 -2.94069 0
      vertex -8.10899 -3.19243 0
    endloop
  endfacet
  facet normal 0.309012 0.951058 0
    outer loop
      vertex -8.88378 -2.94069 0
      vertex -8.10899 -3.19243 -3
      vertex -8.88378 -2.94069 -3
    endloop
  endfacet
  facet normal -0.187388 0.982286 0
    outer loop
      vertex -6.49569 -3.09093 -3
      vertex -7.29593 -3.24359 0
      vertex -6.49569 -3.09093 0
    endloop
  endfacet
  facet normal -0.187388 0.982286 0
    outer loop
      vertex -7.29593 -3.24359 0
      vertex -6.49569 -3.09093 -3
      vertex -7.29593 -3.24359 -3
    endloop
  endfacet
  facet normal -0.187388 -0.982286 0
    outer loop
      vertex -7.29593 3.24359 -3
      vertex -6.49569 3.09093 0
      vertex -7.29593 3.24359 0
    endloop
  endfacet
  facet normal -0.187388 -0.982286 -0
    outer loop
      vertex -6.49569 3.09093 0
      vertex -7.29593 3.24359 -3
      vertex -6.49569 3.09093 -3
    endloop
  endfacet
  facet normal -0.637426 -0.770511 0
    outer loop
      vertex -5.75856 2.74407 -3
      vertex -5.13085 2.22478 0
      vertex -5.75856 2.74407 0
    endloop
  endfacet
  facet normal -0.637426 -0.770511 -0
    outer loop
      vertex -5.13085 2.22478 0
      vertex -5.75856 2.74407 -3
      vertex -5.13085 2.22478 -3
    endloop
  endfacet
  facet normal -0.425772 -0.90483 0
    outer loop
      vertex -6.49569 3.09093 -3
      vertex -5.75856 2.74407 0
      vertex -6.49569 3.09093 0
    endloop
  endfacet
  facet normal -0.425772 -0.90483 -0
    outer loop
      vertex -5.75856 2.74407 0
      vertex -6.49569 3.09093 -3
      vertex -5.75856 2.74407 -3
    endloop
  endfacet
  facet normal -0.425772 0.90483 0
    outer loop
      vertex -5.75856 -2.74407 -3
      vertex -6.49569 -3.09093 0
      vertex -5.75856 -2.74407 0
    endloop
  endfacet
  facet normal -0.425772 0.90483 0
    outer loop
      vertex -6.49569 -3.09093 0
      vertex -5.75856 -2.74407 -3
      vertex -6.49569 -3.09093 -3
    endloop
  endfacet
  facet normal -0.929776 -0.368126 0
    outer loop
      vertex -4.3521 0.808242 -3
      vertex -4.652 1.5657 0
      vertex -4.652 1.5657 -3
    endloop
  endfacet
  facet normal -0.929776 -0.368126 0
    outer loop
      vertex -4.652 1.5657 0
      vertex -4.3521 0.808242 -3
      vertex -4.3521 0.808242 0
    endloop
  endfacet
  facet normal 0.535824 -0.84433 0
    outer loop
      vertex -9.57163 2.50417 -3
      vertex -8.88378 2.94069 0
      vertex -9.57163 2.50417 0
    endloop
  endfacet
  facet normal 0.535824 -0.84433 0
    outer loop
      vertex -8.88378 2.94069 0
      vertex -9.57163 2.50417 -3
      vertex -8.88378 2.94069 -3
    endloop
  endfacet
  facet normal 0.309012 -0.951058 0
    outer loop
      vertex -8.88378 2.94069 -3
      vertex -8.10899 3.19243 0
      vertex -8.88378 2.94069 0
    endloop
  endfacet
  facet normal 0.309012 -0.951058 0
    outer loop
      vertex -8.10899 3.19243 0
      vertex -8.88378 2.94069 -3
      vertex -8.10899 3.19243 -3
    endloop
  endfacet
  facet normal -0.992115 0.125328 0
    outer loop
      vertex 10.6479 -0.808242 -3
      vertex 10.75 0 0
      vertex 10.75 0 -3
    endloop
  endfacet
  facet normal -0.992115 0.125328 0
    outer loop
      vertex 10.75 0 0
      vertex 10.6479 -0.808242 -3
      vertex 10.6479 -0.808242 0
    endloop
  endfacet
  facet normal -0.992115 -0.125328 0
    outer loop
      vertex 10.75 0 -3
      vertex 10.6479 0.808242 0
      vertex 10.6479 0.808242 -3
    endloop
  endfacet
  facet normal -0.992115 -0.125328 0
    outer loop
      vertex 10.6479 0.808242 0
      vertex 10.75 0 -3
      vertex 10.75 0 0
    endloop
  endfacet
  facet normal 1 -0 0
    outer loop
      vertex 4.27563 -0.407332 0
      vertex 4.27563 0.407332 -3
      vertex 4.27563 0.407332 0
    endloop
  endfacet
  facet normal 1 0 0
    outer loop
      vertex 4.27563 0.407332 -3
      vertex 4.27563 -0.407332 0
      vertex 4.27563 -0.407332 -3
    endloop
  endfacet
  facet normal 0.0627986 -0.998026 0
    outer loop
      vertex 6.89101 3.19243 -3
      vertex 7.70407 3.24359 0
      vertex 6.89101 3.19243 0
    endloop
  endfacet
  facet normal 0.0627986 -0.998026 0
    outer loop
      vertex 7.70407 3.24359 0
      vertex 6.89101 3.19243 -3
      vertex 7.70407 3.24359 -3
    endloop
  endfacet
  facet normal -0.637426 0.770511 0
    outer loop
      vertex 9.86915 -2.22478 -3
      vertex 9.24144 -2.74407 0
      vertex 9.86915 -2.22478 0
    endloop
  endfacet
  facet normal -0.637426 0.770511 0
    outer loop
      vertex 9.24144 -2.74407 0
      vertex 9.86915 -2.22478 -3
      vertex 9.24144 -2.74407 -3
    endloop
  endfacet
  facet normal -0.809017 0.587786 0
    outer loop
      vertex 9.86915 -2.22478 -3
      vertex 10.348 -1.5657 0
      vertex 10.348 -1.5657 -3
    endloop
  endfacet
  facet normal -0.809017 0.587786 0
    outer loop
      vertex 10.348 -1.5657 0
      vertex 9.86915 -2.22478 -3
      vertex 9.86915 -2.22478 0
    endloop
  endfacet
  facet normal 0.535824 0.84433 -0
    outer loop
      vertex 6.11622 -2.94069 -3
      vertex 5.42837 -2.50417 0
      vertex 6.11622 -2.94069 0
    endloop
  endfacet
  facet normal 0.535824 0.84433 0
    outer loop
      vertex 5.42837 -2.50417 0
      vertex 6.11622 -2.94069 -3
      vertex 5.42837 -2.50417 -3
    endloop
  endfacet
  facet normal 0.0627986 0.998026 -0
    outer loop
      vertex 7.70407 -3.24359 -3
      vertex 6.89101 -3.19243 0
      vertex 7.70407 -3.24359 0
    endloop
  endfacet
  facet normal 0.0627986 0.998026 0
    outer loop
      vertex 6.89101 -3.19243 0
      vertex 7.70407 -3.24359 -3
      vertex 6.89101 -3.19243 -3
    endloop
  endfacet
  facet normal -0.929776 0.368126 0
    outer loop
      vertex 10.348 -1.5657 -3
      vertex 10.6479 -0.808242 0
      vertex 10.6479 -0.808242 -3
    endloop
  endfacet
  facet normal -0.929776 0.368126 0
    outer loop
      vertex 10.6479 -0.808242 0
      vertex 10.348 -1.5657 -3
      vertex 10.348 -1.5657 0
    endloop
  endfacet
  facet normal 0.968583 -0.248692 0
    outer loop
      vertex 4.27563 0.407332 0
      vertex 4.47823 1.1964 -3
      vertex 4.47823 1.1964 0
    endloop
  endfacet
  facet normal 0.968583 -0.248692 0
    outer loop
      vertex 4.47823 1.1964 -3
      vertex 4.27563 0.407332 0
      vertex 4.27563 0.407332 -3
    endloop
  endfacet
  facet normal -0.809017 -0.587786 0
    outer loop
      vertex 10.348 1.5657 -3
      vertex 9.86915 2.22478 0
      vertex 9.86915 2.22478 -3
    endloop
  endfacet
  facet normal -0.809017 -0.587786 0
    outer loop
      vertex 9.86915 2.22478 0
      vertex 10.348 1.5657 -3
      vertex 10.348 1.5657 0
    endloop
  endfacet
  facet normal 0.728969 -0.684546 0
    outer loop
      vertex 4.87069 1.9103 0
      vertex 5.42837 2.50417 -3
      vertex 5.42837 2.50417 0
    endloop
  endfacet
  facet normal 0.728969 -0.684546 0
    outer loop
      vertex 5.42837 2.50417 -3
      vertex 4.87069 1.9103 0
      vertex 4.87069 1.9103 -3
    endloop
  endfacet
  facet normal 0.876312 -0.481744 0
    outer loop
      vertex 4.47823 1.1964 0
      vertex 4.87069 1.9103 -3
      vertex 4.87069 1.9103 0
    endloop
  endfacet
  facet normal 0.876312 -0.481744 0
    outer loop
      vertex 4.87069 1.9103 -3
      vertex 4.47823 1.1964 0
      vertex 4.47823 1.1964 -3
    endloop
  endfacet
  facet normal 0.728969 0.684546 0
    outer loop
      vertex 5.42837 -2.50417 0
      vertex 4.87069 -1.9103 -3
      vertex 4.87069 -1.9103 0
    endloop
  endfacet
  facet normal 0.728969 0.684546 0
    outer loop
      vertex 4.87069 -1.9103 -3
      vertex 5.42837 -2.50417 0
      vertex 5.42837 -2.50417 -3
    endloop
  endfacet
  facet normal 0.876312 0.481744 0
    outer loop
      vertex 4.87069 -1.9103 0
      vertex 4.47823 -1.1964 -3
      vertex 4.47823 -1.1964 0
    endloop
  endfacet
  facet normal 0.876312 0.481744 0
    outer loop
      vertex 4.47823 -1.1964 -3
      vertex 4.87069 -1.9103 0
      vertex 4.87069 -1.9103 -3
    endloop
  endfacet
  facet normal 0.968583 0.248692 0
    outer loop
      vertex 4.47823 -1.1964 0
      vertex 4.27563 -0.407332 -3
      vertex 4.27563 -0.407332 0
    endloop
  endfacet
  facet normal 0.968583 0.248692 0
    outer loop
      vertex 4.27563 -0.407332 -3
      vertex 4.47823 -1.1964 0
      vertex 4.47823 -1.1964 -3
    endloop
  endfacet
  facet normal 0.309012 0.951058 -0
    outer loop
      vertex 6.89101 -3.19243 -3
      vertex 6.11622 -2.94069 0
      vertex 6.89101 -3.19243 0
    endloop
  endfacet
  facet normal 0.309012 0.951058 0
    outer loop
      vertex 6.11622 -2.94069 0
      vertex 6.89101 -3.19243 -3
      vertex 6.11622 -2.94069 -3
    endloop
  endfacet
  facet normal -0.187391 0.982285 0
    outer loop
      vertex 8.5043 -3.09093 -3
      vertex 7.70407 -3.24359 0
      vertex 8.5043 -3.09093 0
    endloop
  endfacet
  facet normal -0.187391 0.982285 0
    outer loop
      vertex 7.70407 -3.24359 0
      vertex 8.5043 -3.09093 -3
      vertex 7.70407 -3.24359 -3
    endloop
  endfacet
  facet normal -0.187391 -0.982285 0
    outer loop
      vertex 7.70407 3.24359 -3
      vertex 8.5043 3.09093 0
      vertex 7.70407 3.24359 0
    endloop
  endfacet
  facet normal -0.187391 -0.982285 -0
    outer loop
      vertex 8.5043 3.09093 0
      vertex 7.70407 3.24359 -3
      vertex 8.5043 3.09093 -3
    endloop
  endfacet
  facet normal -0.637426 -0.770511 0
    outer loop
      vertex 9.24144 2.74407 -3
      vertex 9.86915 2.22478 0
      vertex 9.24144 2.74407 0
    endloop
  endfacet
  facet normal -0.637426 -0.770511 -0
    outer loop
      vertex 9.86915 2.22478 0
      vertex 9.24144 2.74407 -3
      vertex 9.86915 2.22478 -3
    endloop
  endfacet
  facet normal -0.425767 -0.904833 0
    outer loop
      vertex 8.5043 3.09093 -3
      vertex 9.24144 2.74407 0
      vertex 8.5043 3.09093 0
    endloop
  endfacet
  facet normal -0.425767 -0.904833 -0
    outer loop
      vertex 9.24144 2.74407 0
      vertex 8.5043 3.09093 -3
      vertex 9.24144 2.74407 -3
    endloop
  endfacet
  facet normal -0.425767 0.904833 0
    outer loop
      vertex 9.24144 -2.74407 -3
      vertex 8.5043 -3.09093 0
      vertex 9.24144 -2.74407 0
    endloop
  endfacet
  facet normal -0.425767 0.904833 0
    outer loop
      vertex 8.5043 -3.09093 0
      vertex 9.24144 -2.74407 -3
      vertex 8.5043 -3.09093 -3
    endloop
  endfacet
  facet normal 0.535824 -0.84433 0
    outer loop
      vertex 5.42837 2.50417 -3
      vertex 6.11622 2.94069 0
      vertex 5.42837 2.50417 0
    endloop
  endfacet
  facet normal 0.535824 -0.84433 0
    outer loop
      vertex 6.11622 2.94069 0
      vertex 5.42837 2.50417 -3
      vertex 6.11622 2.94069 -3
    endloop
  endfacet
  facet normal 0.309012 -0.951058 0
    outer loop
      vertex 6.11622 2.94069 -3
      vertex 6.89101 3.19243 0
      vertex 6.11622 2.94069 0
    endloop
  endfacet
  facet normal 0.309012 -0.951058 0
    outer loop
      vertex 6.89101 3.19243 0
      vertex 6.11622 2.94069 -3
      vertex 6.89101 3.19243 -3
    endloop
  endfacet
  facet normal -0.929776 -0.368126 0
    outer loop
      vertex 10.6479 0.808242 -3
      vertex 10.348 1.5657 0
      vertex 10.348 1.5657 -3
    endloop
  endfacet
  facet normal -0.929776 -0.368126 0
    outer loop
      vertex 10.348 1.5657 0
      vertex 10.6479 0.808242 -3
      vertex 10.6479 0.808242 0
    endloop
  endfacet
  facet normal 0.587811 -0.808999 0
    outer loop
      vertex 10.9088 -5.38153 -3
      vertex 11.9227 -4.64484 0
      vertex 10.9088 -5.38153 0
    endloop
  endfacet
  facet normal 0.587811 -0.808999 0
    outer loop
      vertex 11.9227 -4.64484 0
      vertex 10.9088 -5.38153 -3
      vertex 11.9227 -4.64484 -3
    endloop
  endfacet
  facet normal 0.125338 -0.992114 0
    outer loop
      vertex 8.5 -6 -3
      vertex 9.74345 -5.84291 0
      vertex 8.5 -6 0
    endloop
  endfacet
  facet normal 0.125338 -0.992114 0
    outer loop
      vertex 9.74345 -5.84291 0
      vertex 8.5 -6 -3
      vertex 9.74345 -5.84291 -3
    endloop
  endfacet
  facet normal -0.368114 0.929781 0
    outer loop
      vertex -9.74345 5.84291 -3
      vertex -10.9088 5.38153 0
      vertex -9.74345 5.84291 0
    endloop
  endfacet
  facet normal -0.368114 0.929781 0
    outer loop
      vertex -10.9088 5.38153 0
      vertex -9.74345 5.84291 -3
      vertex -10.9088 5.38153 -3
    endloop
  endfacet
  facet normal 0.368114 -0.929781 0
    outer loop
      vertex 9.74345 -5.84291 -3
      vertex 10.9088 -5.38153 0
      vertex 9.74345 -5.84291 0
    endloop
  endfacet
  facet normal 0.368114 -0.929781 0
    outer loop
      vertex 10.9088 -5.38153 0
      vertex 9.74345 -5.84291 -3
      vertex 10.9088 -5.38153 -3
    endloop
  endfacet
  facet normal 0.425799 0.904818 -0
    outer loop
      vertex 11.1791 5.22163 -3
      vertex 10.0451 5.75528 0
      vertex 11.1791 5.22163 0
    endloop
  endfacet
  facet normal 0.425799 0.904818 0
    outer loop
      vertex 10.0451 5.75528 0
      vertex 11.1791 5.22163 -3
      vertex 10.0451 5.75528 -3
    endloop
  endfacet
  facet normal 0.992113 0.125346 0
    outer loop
      vertex 13.5 1 0
      vertex 13.3429 2.24345 -3
      vertex 13.3429 2.24345 0
    endloop
  endfacet
  facet normal 0.992113 0.125346 0
    outer loop
      vertex 13.3429 2.24345 -3
      vertex 13.5 1 0
      vertex 13.5 1 -3
    endloop
  endfacet
  facet normal -0.98769 0.156423 0
    outer loop
      vertex -13.5 1 -3
      vertex -13.2553 2.54509 0
      vertex -13.2553 2.54509 -3
    endloop
  endfacet
  facet normal -0.98769 0.156423 0
    outer loop
      vertex -13.2553 2.54509 0
      vertex -13.5 1 -3
      vertex -13.5 1 0
    endloop
  endfacet
  facet normal 0 0 -1
    outer loop
      vertex 13.5 -1 -3
      vertex 10.6479 -0.808242 -3
      vertex 10.75 0 -3
    endloop
  endfacet
  facet normal 0 0 -1
    outer loop
      vertex 11.9227 -4.64484 -3
      vertex 10.348 -1.5657 -3
      vertex 10.6479 -0.808242 -3
    endloop
  endfacet
  facet normal 0 0 -1
    outer loop
      vertex 11.9227 -4.64484 -3
      vertex 9.86915 -2.22478 -3
      vertex 10.348 -1.5657 -3
    endloop
  endfacet
  facet normal 0 0 -1
    outer loop
      vertex 9.24144 -2.74407 -3
      vertex 10.9088 -5.38153 -3
      vertex 9.74345 -5.84291 -3
    endloop
  endfacet
  facet normal 0 0 -1
    outer loop
      vertex 11.9227 -4.64484 -3
      vertex 9.24144 -2.74407 -3
      vertex 9.86915 -2.22478 -3
    endloop
  endfacet
  facet normal 0 0 -1
    outer loop
      vertex 9.74345 -5.84291 -3
      vertex 8.5043 -3.09093 -3
      vertex 9.24144 -2.74407 -3
    endloop
  endfacet
  facet normal 0 0 -1
    outer loop
      vertex 8.5 -6 -3
      vertex 8.5043 -3.09093 -3
      vertex 9.74345 -5.84291 -3
    endloop
  endfacet
  facet normal 0 0 -1
    outer loop
      vertex 8.5 -6 -3
      vertex 7.70407 -3.24359 -3
      vertex 8.5043 -3.09093 -3
    endloop
  endfacet
  facet normal 0 0 -1
    outer loop
      vertex 8.5 -6 -3
      vertex 6.89101 -3.19243 -3
      vertex 7.70407 -3.24359 -3
    endloop
  endfacet
  facet normal 0 0 -1
    outer loop
      vertex 8.5 -6 -3
      vertex 6.11622 -2.94069 -3
      vertex 6.89101 -3.19243 -3
    endloop
  endfacet
  facet normal 0 0 -1
    outer loop
      vertex 8.5 -6 -3
      vertex 5.42837 -2.50417 -3
      vertex 6.11622 -2.94069 -3
    endloop
  endfacet
  facet normal 0 0 -1
    outer loop
      vertex -5.75856 -2.74407 -3
      vertex 5.42837 -2.50417 -3
      vertex 8.5 -6 -3
    endloop
  endfacet
  facet normal 0 0 -1
    outer loop
      vertex 4.27563 -0.407332 -3
      vertex -4.25 0 -3
      vertex 4.27563 0.407332 -3
    endloop
  endfacet
  facet normal 0 0 -1
    outer loop
      vertex -4.3521 -0.808242 -3
      vertex 4.27563 -0.407332 -3
      vertex 4.47823 -1.1964 -3
    endloop
  endfacet
  facet normal 0 0 -1
    outer loop
      vertex -4.652 -1.5657 -3
      vertex 4.47823 -1.1964 -3
      vertex 4.87069 -1.9103 -3
    endloop
  endfacet
  facet normal 0 -0 -1
    outer loop
      vertex -5.13085 -2.22478 -3
      vertex 5.42837 -2.50417 -3
      vertex -5.75856 -2.74407 -3
    endloop
  endfacet
  facet normal -0 0 -1
    outer loop
      vertex 4.27563 -0.407332 -3
      vertex -4.3521 -0.808242 -3
      vertex -4.25 0 -3
    endloop
  endfacet
  facet normal -0 0 -1
    outer loop
      vertex 4.47823 -1.1964 -3
      vertex -4.652 -1.5657 -3
      vertex -4.3521 -0.808242 -3
    endloop
  endfacet
  facet normal -0 0 -1
    outer loop
      vertex 4.87069 -1.9103 -3
      vertex -5.13085 -2.22478 -3
      vertex -4.652 -1.5657 -3
    endloop
  endfacet
  facet normal 0 0 -1
    outer loop
      vertex 5.42837 -2.50417 -3
      vertex -5.13085 -2.22478 -3
      vertex 4.87069 -1.9103 -3
    endloop
  endfacet
  facet normal 0 0 -1
    outer loop
      vertex -8.5 -6 -3
      vertex -5.75856 -2.74407 -3
      vertex 8.5 -6 -3
    endloop
  endfacet
  facet normal 0 0 -1
    outer loop
      vertex -5.75856 -2.74407 -3
      vertex -8.5 -6 -3
      vertex -6.49569 -3.09093 -3
    endloop
  endfacet
  facet normal 0 0 -1
    outer loop
      vertex -6.49569 -3.09093 -3
      vertex -8.5 -6 -3
      vertex -7.29593 -3.24359 -3
    endloop
  endfacet
  facet normal -0 0 -1
    outer loop
      vertex -7.29593 -3.24359 -3
      vertex -8.5 -6 -3
      vertex -8.10899 -3.19243 -3
    endloop
  endfacet
  facet normal 0 0 -1
    outer loop
      vertex -8.5 -6 -3
      vertex -8.88378 -2.94069 -3
      vertex -8.10899 -3.19243 -3
    endloop
  endfacet
  facet normal 0 0 -1
    outer loop
      vertex -10.0451 -5.75528 -3
      vertex -8.88378 -2.94069 -3
      vertex -8.5 -6 -3
    endloop
  endfacet
  facet normal 0 0 -1
    outer loop
      vertex -11.1791 -5.22163 -3
      vertex -8.88378 -2.94069 -3
      vertex -10.0451 -5.75528 -3
    endloop
  endfacet
  facet normal -0 0 -1
    outer loop
      vertex -8.88378 -2.94069 -3
      vertex -11.1791 -5.22163 -3
      vertex -9.57163 -2.50417 -3
    endloop
  endfacet
  facet normal 0 0 -1
    outer loop
      vertex -12.1448 -4.42273 -3
      vertex -9.57163 -2.50417 -3
      vertex -11.1791 -5.22163 -3
    endloop
  endfacet
  facet normal -0 0 -1
    outer loop
      vertex -9.57163 -2.50417 -3
      vertex -12.1448 -4.42273 -3
      vertex -10.1293 -1.9103 -3
    endloop
  endfacet
  facet normal 0 0 -1
    outer loop
      vertex -13.5 1 -3
      vertex -10.7244 0.407332 -3
      vertex -10.7244 -0.407332 -3
    endloop
  endfacet
  facet normal 0 0 -1
    outer loop
      vertex -12.8815 -3.40877 -3
      vertex -10.1293 -1.9103 -3
      vertex -12.1448 -4.42273 -3
    endloop
  endfacet
  facet normal -0 0 -1
    outer loop
      vertex -10.1293 -1.9103 -3
      vertex -12.8815 -3.40877 -3
      vertex -10.5218 -1.1964 -3
    endloop
  endfacet
  facet normal 0 0 -1
    outer loop
      vertex -10.7244 0.407332 -3
      vertex -13.5 1 -3
      vertex -13.2553 2.54509 -3
    endloop
  endfacet
  facet normal 0 0 -1
    outer loop
      vertex -13.3429 -2.24345 -3
      vertex -10.5218 -1.1964 -3
      vertex -12.8815 -3.40877 -3
    endloop
  endfacet
  facet normal 0 0 -1
    outer loop
      vertex -10.7244 0.407332 -3
      vertex -11.9227 4.64484 -3
      vertex -10.9088 5.38153 -3
    endloop
  endfacet
  facet normal 0 0 -1
    outer loop
      vertex -13.5 -1 -3
      vertex -10.5218 -1.1964 -3
      vertex -13.3429 -2.24345 -3
    endloop
  endfacet
  facet normal 0 0 -1
    outer loop
      vertex -10.7244 0.407332 -3
      vertex -12.7216 3.67914 -3
      vertex -11.9227 4.64484 -3
    endloop
  endfacet
  facet normal 0 0 -1
    outer loop
      vertex -10.5218 -1.1964 -3
      vertex -13.5 -1 -3
      vertex -10.7244 -0.407332 -3
    endloop
  endfacet
  facet normal -0 0 -1
    outer loop
      vertex -10.7244 -0.407332 -3
      vertex -13.5 -1 -3
      vertex -13.5 1 -3
    endloop
  endfacet
  facet normal 0 0 -1
    outer loop
      vertex -10.7244 0.407332 -3
      vertex -13.2553 2.54509 -3
      vertex -12.7216 3.67914 -3
    endloop
  endfacet
  facet normal 0 0 -1
    outer loop
      vertex 10.75 0 -3
      vertex 13.5 1 -3
      vertex 13.5 -1 -3
    endloop
  endfacet
  facet normal 0 0 -1
    outer loop
      vertex 10.6479 -0.808242 -3
      vertex 13.5 -1 -3
      vertex 13.2553 -2.54509 -3
    endloop
  endfacet
  facet normal 0 0 -1
    outer loop
      vertex 10.6479 0.808242 -3
      vertex 13.5 1 -3
      vertex 10.75 0 -3
    endloop
  endfacet
  facet normal 0 0 -1
    outer loop
      vertex 10.6479 -0.808242 -3
      vertex 13.2553 -2.54509 -3
      vertex 12.7216 -3.67914 -3
    endloop
  endfacet
  facet normal -0 0 -1
    outer loop
      vertex 13.5 1 -3
      vertex 10.6479 0.808242 -3
      vertex 13.3429 2.24345 -3
    endloop
  endfacet
  facet normal 0 0 -1
    outer loop
      vertex 10.6479 -0.808242 -3
      vertex 12.7216 -3.67914 -3
      vertex 11.9227 -4.64484 -3
    endloop
  endfacet
  facet normal 0 0 -1
    outer loop
      vertex 10.348 1.5657 -3
      vertex 13.3429 2.24345 -3
      vertex 10.6479 0.808242 -3
    endloop
  endfacet
  facet normal 0 0 -1
    outer loop
      vertex 9.24144 -2.74407 -3
      vertex 11.9227 -4.64484 -3
      vertex 10.9088 -5.38153 -3
    endloop
  endfacet
  facet normal -0 0 -1
    outer loop
      vertex 13.3429 2.24345 -3
      vertex 10.348 1.5657 -3
      vertex 12.8815 3.40877 -3
    endloop
  endfacet
  facet normal 0 0 -1
    outer loop
      vertex 9.86915 2.22478 -3
      vertex 12.8815 3.40877 -3
      vertex 10.348 1.5657 -3
    endloop
  endfacet
  facet normal -0 0 -1
    outer loop
      vertex 12.8815 3.40877 -3
      vertex 9.86915 2.22478 -3
      vertex 12.1448 4.42273 -3
    endloop
  endfacet
  facet normal -0 0 -1
    outer loop
      vertex 12.1448 4.42273 -3
      vertex 9.86915 2.22478 -3
      vertex 11.1791 5.22163 -3
    endloop
  endfacet
  facet normal 0 0 -1
    outer loop
      vertex 9.24144 2.74407 -3
      vertex 11.1791 5.22163 -3
      vertex 9.86915 2.22478 -3
    endloop
  endfacet
  facet normal -0 0 -1
    outer loop
      vertex 11.1791 5.22163 -3
      vertex 9.24144 2.74407 -3
      vertex 10.0451 5.75528 -3
    endloop
  endfacet
  facet normal 0 0 -1
    outer loop
      vertex 8.5043 3.09093 -3
      vertex 10.0451 5.75528 -3
      vertex 9.24144 2.74407 -3
    endloop
  endfacet
  facet normal 0 0 -1
    outer loop
      vertex 8.5043 3.09093 -3
      vertex 8.5 6 -3
      vertex 10.0451 5.75528 -3
    endloop
  endfacet
  facet normal 0 0 -1
    outer loop
      vertex 7.70407 3.24359 -3
      vertex 8.5 6 -3
      vertex 8.5043 3.09093 -3
    endloop
  endfacet
  facet normal 0 0 -1
    outer loop
      vertex 6.89101 3.19243 -3
      vertex 8.5 6 -3
      vertex 7.70407 3.24359 -3
    endloop
  endfacet
  facet normal 0 0 -1
    outer loop
      vertex 6.11622 2.94069 -3
      vertex 8.5 6 -3
      vertex 6.89101 3.19243 -3
    endloop
  endfacet
  facet normal 0 0 -1
    outer loop
      vertex 5.42837 2.50417 -3
      vertex 8.5 6 -3
      vertex 6.11622 2.94069 -3
    endloop
  endfacet
  facet normal 0 0 -1
    outer loop
      vertex -5.13085 2.22478 -3
      vertex 5.42837 2.50417 -3
      vertex 4.87069 1.9103 -3
    endloop
  endfacet
  facet normal 0 0 -1
    outer loop
      vertex -4.3521 0.808242 -3
      vertex 4.27563 0.407332 -3
      vertex -4.25 0 -3
    endloop
  endfacet
  facet normal 0 0 -1
    outer loop
      vertex 4.27563 0.407332 -3
      vertex -4.3521 0.808242 -3
      vertex 4.47823 1.1964 -3
    endloop
  endfacet
  facet normal 0 0 -1
    outer loop
      vertex -4.652 1.5657 -3
      vertex 4.47823 1.1964 -3
      vertex -4.3521 0.808242 -3
    endloop
  endfacet
  facet normal 0 0 -1
    outer loop
      vertex 4.47823 1.1964 -3
      vertex -4.652 1.5657 -3
      vertex 4.87069 1.9103 -3
    endloop
  endfacet
  facet normal 0 0 -1
    outer loop
      vertex -5.13085 2.22478 -3
      vertex 4.87069 1.9103 -3
      vertex -4.652 1.5657 -3
    endloop
  endfacet
  facet normal -0 0 -1
    outer loop
      vertex 5.42837 2.50417 -3
      vertex -5.13085 2.22478 -3
      vertex -5.75856 2.74407 -3
    endloop
  endfacet
  facet normal 0 0 -1
    outer loop
      vertex 5.42837 2.50417 -3
      vertex -5.75856 2.74407 -3
      vertex 8.5 6 -3
    endloop
  endfacet
  facet normal 0 0 -1
    outer loop
      vertex -8.5 6 -3
      vertex -5.75856 2.74407 -3
      vertex -6.49569 3.09093 -3
    endloop
  endfacet
  facet normal 0 0 -1
    outer loop
      vertex -8.5 6 -3
      vertex -6.49569 3.09093 -3
      vertex -7.29593 3.24359 -3
    endloop
  endfacet
  facet normal 0 0 -1
    outer loop
      vertex -8.5 6 -3
      vertex -7.29593 3.24359 -3
      vertex -8.10899 3.19243 -3
    endloop
  endfacet
  facet normal 0 0 -1
    outer loop
      vertex -5.75856 2.74407 -3
      vertex -8.5 6 -3
      vertex 8.5 6 -3
    endloop
  endfacet
  facet normal 0 0 -1
    outer loop
      vertex -9.74345 5.84291 -3
      vertex -8.10899 3.19243 -3
      vertex -8.88378 2.94069 -3
    endloop
  endfacet
  facet normal 0 0 -1
    outer loop
      vertex -10.9088 5.38153 -3
      vertex -8.88378 2.94069 -3
      vertex -9.57163 2.50417 -3
    endloop
  endfacet
  facet normal 0 0 -1
    outer loop
      vertex -8.10899 3.19243 -3
      vertex -9.74345 5.84291 -3
      vertex -8.5 6 -3
    endloop
  endfacet
  facet normal 0 0 -1
    outer loop
      vertex -10.9088 5.38153 -3
      vertex -9.57163 2.50417 -3
      vertex -10.1293 1.9103 -3
    endloop
  endfacet
  facet normal 0 0 -1
    outer loop
      vertex -10.9088 5.38153 -3
      vertex -10.1293 1.9103 -3
      vertex -10.5218 1.1964 -3
    endloop
  endfacet
  facet normal 0 0 -1
    outer loop
      vertex -10.9088 5.38153 -3
      vertex -10.5218 1.1964 -3
      vertex -10.7244 0.407332 -3
    endloop
  endfacet
  facet normal 0 0 -1
    outer loop
      vertex -8.88378 2.94069 -3
      vertex -10.9088 5.38153 -3
      vertex -9.74345 5.84291 -3
    endloop
  endfacet
  facet normal -0.425799 -0.904818 0
    outer loop
      vertex -11.1791 -5.22163 -3
      vertex -10.0451 -5.75528 0
      vertex -11.1791 -5.22163 0
    endloop
  endfacet
  facet normal -0.425799 -0.904818 -0
    outer loop
      vertex -10.0451 -5.75528 0
      vertex -11.1791 -5.22163 -3
      vertex -10.0451 -5.75528 -3
    endloop
  endfacet
  facet normal 0 -1 0
    outer loop
      vertex -8.5 -6 -3
      vertex 8.5 -6 0
      vertex -8.5 -6 0
    endloop
  endfacet
  facet normal 0 -1 -0
    outer loop
      vertex 8.5 -6 0
      vertex -8.5 -6 -3
      vertex 8.5 -6 -3
    endloop
  endfacet
  facet normal 0 1 -0
    outer loop
      vertex 8.5 6 -3
      vertex -8.5 6 0
      vertex 8.5 6 0
    endloop
  endfacet
  facet normal 0 1 0
    outer loop
      vertex -8.5 6 0
      vertex 8.5 6 -3
      vertex -8.5 6 -3
    endloop
  endfacet
  facet normal 0.156435 0.987688 -0
    outer loop
      vertex 10.0451 5.75528 -3
      vertex 8.5 6 0
      vertex 10.0451 5.75528 0
    endloop
  endfacet
  facet normal 0.156435 0.987688 0
    outer loop
      vertex 8.5 6 0
      vertex 10.0451 5.75528 -3
      vertex 8.5 6 -3
    endloop
  endfacet
  facet normal -0.125338 0.992114 0
    outer loop
      vertex -8.5 6 -3
      vertex -9.74345 5.84291 0
      vertex -8.5 6 0
    endloop
  endfacet
  facet normal -0.125338 0.992114 0
    outer loop
      vertex -9.74345 5.84291 0
      vertex -8.5 6 -3
      vertex -9.74345 5.84291 -3
    endloop
  endfacet
  facet normal -0.770512 0.637426 0
    outer loop
      vertex -12.7216 3.67914 -3
      vertex -11.9227 4.64484 0
      vertex -11.9227 4.64484 -3
    endloop
  endfacet
  facet normal -0.770512 0.637426 0
    outer loop
      vertex -11.9227 4.64484 0
      vertex -12.7216 3.67914 -3
      vertex -12.7216 3.67914 0
    endloop
  endfacet
  facet normal -0.587811 0.808999 0
    outer loop
      vertex -10.9088 5.38153 -3
      vertex -11.9227 4.64484 0
      vertex -10.9088 5.38153 0
    endloop
  endfacet
  facet normal -0.587811 0.808999 0
    outer loop
      vertex -11.9227 4.64484 0
      vertex -10.9088 5.38153 -3
      vertex -11.9227 4.64484 -3
    endloop
  endfacet
  facet normal -0.90481 0.425816 0
    outer loop
      vertex -13.2553 2.54509 -3
      vertex -12.7216 3.67914 0
      vertex -12.7216 3.67914 -3
    endloop
  endfacet
  facet normal -0.90481 0.425816 0
    outer loop
      vertex -12.7216 3.67914 0
      vertex -13.2553 2.54509 -3
      vertex -13.2553 2.54509 0
    endloop
  endfacet
  facet normal -0.929772 -0.368136 0
    outer loop
      vertex -12.8815 -3.40877 -3
      vertex -13.3429 -2.24345 0
      vertex -13.3429 -2.24345 -3
    endloop
  endfacet
  facet normal -0.929772 -0.368136 0
    outer loop
      vertex -13.3429 -2.24345 0
      vertex -12.8815 -3.40877 -3
      vertex -12.8815 -3.40877 0
    endloop
  endfacet
  facet normal -0.637426 -0.770512 0
    outer loop
      vertex -12.1448 -4.42273 -3
      vertex -11.1791 -5.22163 0
      vertex -12.1448 -4.42273 0
    endloop
  endfacet
  facet normal -0.637426 -0.770512 -0
    outer loop
      vertex -11.1791 -5.22163 0
      vertex -12.1448 -4.42273 -3
      vertex -11.1791 -5.22163 -3
    endloop
  endfacet
  facet normal -1 0 0
    outer loop
      vertex -13.5 -1 -3
      vertex -13.5 1 0
      vertex -13.5 1 -3
    endloop
  endfacet
  facet normal -1 -0 0
    outer loop
      vertex -13.5 1 0
      vertex -13.5 -1 -3
      vertex -13.5 -1 0
    endloop
  endfacet
  facet normal -0.156435 -0.987688 0
    outer loop
      vertex -10.0451 -5.75528 -3
      vertex -8.5 -6 0
      vertex -10.0451 -5.75528 0
    endloop
  endfacet
  facet normal -0.156435 -0.987688 -0
    outer loop
      vertex -8.5 -6 0
      vertex -10.0451 -5.75528 -3
      vertex -8.5 -6 -3
    endloop
  endfacet
  facet normal 0.809011 0.587793 0
    outer loop
      vertex 12.8815 3.40877 0
      vertex 12.1448 4.42273 -3
      vertex 12.1448 4.42273 0
    endloop
  endfacet
  facet normal 0.809011 0.587793 0
    outer loop
      vertex 12.1448 4.42273 -3
      vertex 12.8815 3.40877 0
      vertex 12.8815 3.40877 -3
    endloop
  endfacet
  facet normal 0.929772 0.368136 0
    outer loop
      vertex 13.3429 2.24345 0
      vertex 12.8815 3.40877 -3
      vertex 12.8815 3.40877 0
    endloop
  endfacet
  facet normal 0.929772 0.368136 0
    outer loop
      vertex 12.8815 3.40877 -3
      vertex 13.3429 2.24345 0
      vertex 13.3429 2.24345 -3
    endloop
  endfacet
  facet normal 0.637426 0.770512 -0
    outer loop
      vertex 12.1448 4.42273 -3
      vertex 11.1791 5.22163 0
      vertex 12.1448 4.42273 0
    endloop
  endfacet
  facet normal 0.637426 0.770512 0
    outer loop
      vertex 11.1791 5.22163 0
      vertex 12.1448 4.42273 -3
      vertex 11.1791 5.22163 -3
    endloop
  endfacet
  facet normal 0.98769 -0.156423 0
    outer loop
      vertex 13.2553 -2.54509 0
      vertex 13.5 -1 -3
      vertex 13.5 -1 0
    endloop
  endfacet
  facet normal 0.98769 -0.156423 0
    outer loop
      vertex 13.5 -1 -3
      vertex 13.2553 -2.54509 0
      vertex 13.2553 -2.54509 -3
    endloop
  endfacet
  facet normal 0.770512 -0.637426 0
    outer loop
      vertex 11.9227 -4.64484 0
      vertex 12.7216 -3.67914 -3
      vertex 12.7216 -3.67914 0
    endloop
  endfacet
  facet normal 0.770512 -0.637426 0
    outer loop
      vertex 12.7216 -3.67914 -3
      vertex 11.9227 -4.64484 0
      vertex 11.9227 -4.64484 -3
    endloop
  endfacet
  facet normal -0.809011 -0.587793 0
    outer loop
      vertex -12.1448 -4.42273 -3
      vertex -12.8815 -3.40877 0
      vertex -12.8815 -3.40877 -3
    endloop
  endfacet
  facet normal -0.809011 -0.587793 0
    outer loop
      vertex -12.8815 -3.40877 0
      vertex -12.1448 -4.42273 -3
      vertex -12.1448 -4.42273 0
    endloop
  endfacet
  facet normal -0.992113 -0.125346 0
    outer loop
      vertex -13.3429 -2.24345 -3
      vertex -13.5 -1 0
      vertex -13.5 -1 -3
    endloop
  endfacet
  facet normal -0.992113 -0.125346 0
    outer loop
      vertex -13.5 -1 0
      vertex -13.3429 -2.24345 -3
      vertex -13.3429 -2.24345 0
    endloop
  endfacet
  facet normal 0 0 1
    outer loop
      vertex 10.6479 0.808242 0
      vertex 13.5 1 0
      vertex 13.3429 2.24345 0
    endloop
  endfacet
  facet normal 0 0 1
    outer loop
      vertex 13.5 1 0
      vertex 10.75 0 0
      vertex 13.5 -1 0
    endloop
  endfacet
  facet normal 0 0 1
    outer loop
      vertex 10.348 1.5657 0
      vertex 13.3429 2.24345 0
      vertex 12.8815 3.40877 0
    endloop
  endfacet
  facet normal -0 0 1
    outer loop
      vertex 10.6479 -0.808242 0
      vertex 13.5 -1 0
      vertex 10.75 0 0
    endloop
  endfacet
  facet normal 0 0 1
    outer loop
      vertex 9.86915 2.22478 0
      vertex 12.8815 3.40877 0
      vertex 12.1448 4.42273 0
    endloop
  endfacet
  facet normal 0 0 1
    outer loop
      vertex 13.5 -1 0
      vertex 10.6479 -0.808242 0
      vertex 13.2553 -2.54509 0
    endloop
  endfacet
  facet normal 0 0 1
    outer loop
      vertex 9.86915 2.22478 0
      vertex 12.1448 4.42273 0
      vertex 11.1791 5.22163 0
    endloop
  endfacet
  facet normal -0 0 1
    outer loop
      vertex 10.348 -1.5657 0
      vertex 13.2553 -2.54509 0
      vertex 10.6479 -0.808242 0
    endloop
  endfacet
  facet normal 0 0 1
    outer loop
      vertex 13.2553 -2.54509 0
      vertex 10.348 -1.5657 0
      vertex 12.7216 -3.67914 0
    endloop
  endfacet
  facet normal 0 0 1
    outer loop
      vertex 13.5 1 0
      vertex 10.6479 0.808242 0
      vertex 10.75 0 0
    endloop
  endfacet
  facet normal 0 0 1
    outer loop
      vertex 13.3429 2.24345 0
      vertex 10.348 1.5657 0
      vertex 10.6479 0.808242 0
    endloop
  endfacet
  facet normal 0 0 1
    outer loop
      vertex 9.24144 2.74407 0
      vertex 11.1791 5.22163 0
      vertex 10.0451 5.75528 0
    endloop
  endfacet
  facet normal 0 0 1
    outer loop
      vertex 12.8815 3.40877 0
      vertex 9.86915 2.22478 0
      vertex 10.348 1.5657 0
    endloop
  endfacet
  facet normal 0 0 1
    outer loop
      vertex 11.1791 5.22163 0
      vertex 9.24144 2.74407 0
      vertex 9.86915 2.22478 0
    endloop
  endfacet
  facet normal 0 0 1
    outer loop
      vertex 10.0451 5.75528 0
      vertex 8.5043 3.09093 0
      vertex 9.24144 2.74407 0
    endloop
  endfacet
  facet normal 0 0 1
    outer loop
      vertex 8.5 6 0
      vertex 8.5043 3.09093 0
      vertex 10.0451 5.75528 0
    endloop
  endfacet
  facet normal 0 0 1
    outer loop
      vertex 8.5 6 0
      vertex 7.70407 3.24359 0
      vertex 8.5043 3.09093 0
    endloop
  endfacet
  facet normal 0 0 1
    outer loop
      vertex 8.5 6 0
      vertex 6.89101 3.19243 0
      vertex 7.70407 3.24359 0
    endloop
  endfacet
  facet normal 0 0 1
    outer loop
      vertex 8.5 6 0
      vertex 6.11622 2.94069 0
      vertex 6.89101 3.19243 0
    endloop
  endfacet
  facet normal 0 0 1
    outer loop
      vertex 8.5 6 0
      vertex 5.42837 2.50417 0
      vertex 6.11622 2.94069 0
    endloop
  endfacet
  facet normal -0 0 1
    outer loop
      vertex -5.75856 2.74407 0
      vertex 5.42837 2.50417 0
      vertex 8.5 6 0
    endloop
  endfacet
  facet normal 0 0 1
    outer loop
      vertex 4.27563 0.407332 0
      vertex -4.25 0 0
      vertex 4.27563 -0.407332 0
    endloop
  endfacet
  facet normal -0 0 1
    outer loop
      vertex -4.3521 0.808242 0
      vertex 4.27563 0.407332 0
      vertex 4.47823 1.1964 0
    endloop
  endfacet
  facet normal -0 0 1
    outer loop
      vertex -4.652 1.5657 0
      vertex 4.47823 1.1964 0
      vertex 4.87069 1.9103 0
    endloop
  endfacet
  facet normal 0 -0 1
    outer loop
      vertex -5.13085 2.22478 0
      vertex 5.42837 2.50417 0
      vertex -5.75856 2.74407 0
    endloop
  endfacet
  facet normal 0 0 1
    outer loop
      vertex 4.27563 0.407332 0
      vertex -4.3521 0.808242 0
      vertex -4.25 0 0
    endloop
  endfacet
  facet normal 0 0 1
    outer loop
      vertex 4.47823 1.1964 0
      vertex -4.652 1.5657 0
      vertex -4.3521 0.808242 0
    endloop
  endfacet
  facet normal 0 0 1
    outer loop
      vertex 4.87069 1.9103 0
      vertex -5.13085 2.22478 0
      vertex -4.652 1.5657 0
    endloop
  endfacet
  facet normal 0 0 1
    outer loop
      vertex 5.42837 2.50417 0
      vertex -5.13085 2.22478 0
      vertex 4.87069 1.9103 0
    endloop
  endfacet
  facet normal -0 0 1
    outer loop
      vertex -8.5 6 0
      vertex -5.75856 2.74407 0
      vertex 8.5 6 0
    endloop
  endfacet
  facet normal 0 0 1
    outer loop
      vertex -5.75856 2.74407 0
      vertex -8.5 6 0
      vertex -6.49569 3.09093 0
    endloop
  endfacet
  facet normal 0 0 1
    outer loop
      vertex -6.49569 3.09093 0
      vertex -8.5 6 0
      vertex -7.29593 3.24359 0
    endloop
  endfacet
  facet normal 0 0 1
    outer loop
      vertex -7.29593 3.24359 0
      vertex -8.5 6 0
      vertex -8.10899 3.19243 0
    endloop
  endfacet
  facet normal -0 0 1
    outer loop
      vertex -9.74345 5.84291 0
      vertex -8.10899 3.19243 0
      vertex -8.5 6 0
    endloop
  endfacet
  facet normal 0 0 1
    outer loop
      vertex -8.10899 3.19243 0
      vertex -9.74345 5.84291 0
      vertex -8.88378 2.94069 0
    endloop
  endfacet
  facet normal -0 0 1
    outer loop
      vertex -10.9088 5.38153 0
      vertex -8.88378 2.94069 0
      vertex -9.74345 5.84291 0
    endloop
  endfacet
  facet normal 0 0 1
    outer loop
      vertex -8.88378 2.94069 0
      vertex -10.9088 5.38153 0
      vertex -9.57163 2.50417 0
    endloop
  endfacet
  facet normal -0 0 1
    outer loop
      vertex -11.9227 4.64484 0
      vertex -9.57163 2.50417 0
      vertex -10.9088 5.38153 0
    endloop
  endfacet
  facet normal 0 0 1
    outer loop
      vertex -9.57163 2.50417 0
      vertex -11.9227 4.64484 0
      vertex -10.1293 1.9103 0
    endloop
  endfacet
  facet normal -0 0 1
    outer loop
      vertex -13.2553 2.54509 0
      vertex -10.1293 1.9103 0
      vertex -12.7216 3.67914 0
    endloop
  endfacet
  facet normal -0 0 1
    outer loop
      vertex -12.7216 3.67914 0
      vertex -10.1293 1.9103 0
      vertex -11.9227 4.64484 0
    endloop
  endfacet
  facet normal -0 0 1
    outer loop
      vertex 9.86915 -2.22478 0
      vertex 12.7216 -3.67914 0
      vertex 10.348 -1.5657 0
    endloop
  endfacet
  facet normal 0 0 1
    outer loop
      vertex 12.7216 -3.67914 0
      vertex 9.86915 -2.22478 0
      vertex 11.9227 -4.64484 0
    endloop
  endfacet
  facet normal -0 0 1
    outer loop
      vertex 9.24144 -2.74407 0
      vertex 11.9227 -4.64484 0
      vertex 9.86915 -2.22478 0
    endloop
  endfacet
  facet normal 0 0 1
    outer loop
      vertex 11.9227 -4.64484 0
      vertex 9.24144 -2.74407 0
      vertex 10.9088 -5.38153 0
    endloop
  endfacet
  facet normal 0 0 1
    outer loop
      vertex 10.9088 -5.38153 0
      vertex 9.24144 -2.74407 0
      vertex 9.74345 -5.84291 0
    endloop
  endfacet
  facet normal -0 0 1
    outer loop
      vertex 8.5043 -3.09093 0
      vertex 9.74345 -5.84291 0
      vertex 9.24144 -2.74407 0
    endloop
  endfacet
  facet normal 0 0 1
    outer loop
      vertex 8.5043 -3.09093 0
      vertex 8.5 -6 0
      vertex 9.74345 -5.84291 0
    endloop
  endfacet
  facet normal -0 0 1
    outer loop
      vertex 7.70407 -3.24359 0
      vertex 8.5 -6 0
      vertex 8.5043 -3.09093 0
    endloop
  endfacet
  facet normal 0 0 1
    outer loop
      vertex 6.89101 -3.19243 0
      vertex 8.5 -6 0
      vertex 7.70407 -3.24359 0
    endloop
  endfacet
  facet normal 0 0 1
    outer loop
      vertex 6.11622 -2.94069 0
      vertex 8.5 -6 0
      vertex 6.89101 -3.19243 0
    endloop
  endfacet
  facet normal 0 0 1
    outer loop
      vertex 5.42837 -2.50417 0
      vertex 8.5 -6 0
      vertex 6.11622 -2.94069 0
    endloop
  endfacet
  facet normal -0 0 1
    outer loop
      vertex -5.13085 -2.22478 0
      vertex 5.42837 -2.50417 0
      vertex 4.87069 -1.9103 0
    endloop
  endfacet
  facet normal 0 0 1
    outer loop
      vertex -4.3521 -0.808242 0
      vertex 4.27563 -0.407332 0
      vertex -4.25 0 0
    endloop
  endfacet
  facet normal 0 0 1
    outer loop
      vertex 4.27563 -0.407332 0
      vertex -4.3521 -0.808242 0
      vertex 4.47823 -1.1964 0
    endloop
  endfacet
  facet normal 0 0 1
    outer loop
      vertex -4.652 -1.5657 0
      vertex 4.47823 -1.1964 0
      vertex -4.3521 -0.808242 0
    endloop
  endfacet
  facet normal 0 0 1
    outer loop
      vertex 4.47823 -1.1964 0
      vertex -4.652 -1.5657 0
      vertex 4.87069 -1.9103 0
    endloop
  endfacet
  facet normal 0 0 1
    outer loop
      vertex -5.13085 -2.22478 0
      vertex 4.87069 -1.9103 0
      vertex -4.652 -1.5657 0
    endloop
  endfacet
  facet normal 0 0 1
    outer loop
      vertex 5.42837 -2.50417 0
      vertex -5.13085 -2.22478 0
      vertex -5.75856 -2.74407 0
    endloop
  endfacet
  facet normal 0 0 1
    outer loop
      vertex 5.42837 -2.50417 0
      vertex -5.75856 -2.74407 0
      vertex 8.5 -6 0
    endloop
  endfacet
  facet normal 0 0 1
    outer loop
      vertex -8.5 -6 0
      vertex -5.75856 -2.74407 0
      vertex -6.49569 -3.09093 0
    endloop
  endfacet
  facet normal 0 0 1
    outer loop
      vertex -8.5 -6 0
      vertex -6.49569 -3.09093 0
      vertex -7.29593 -3.24359 0
    endloop
  endfacet
  facet normal 0 0 1
    outer loop
      vertex -8.5 -6 0
      vertex -7.29593 -3.24359 0
      vertex -8.10899 -3.19243 0
    endloop
  endfacet
  facet normal 0 0 1
    outer loop
      vertex -5.75856 -2.74407 0
      vertex -8.5 -6 0
      vertex 8.5 -6 0
    endloop
  endfacet
  facet normal 0 0 1
    outer loop
      vertex -8.88378 -2.94069 0
      vertex -8.5 -6 0
      vertex -8.10899 -3.19243 0
    endloop
  endfacet
  facet normal 0 0 1
    outer loop
      vertex -11.1791 -5.22163 0
      vertex -8.88378 -2.94069 0
      vertex -9.57163 -2.50417 0
    endloop
  endfacet
  facet normal 0 0 1
    outer loop
      vertex -8.88378 -2.94069 0
      vertex -10.0451 -5.75528 0
      vertex -8.5 -6 0
    endloop
  endfacet
  facet normal 0 0 1
    outer loop
      vertex -12.1448 -4.42273 0
      vertex -9.57163 -2.50417 0
      vertex -10.1293 -1.9103 0
    endloop
  endfacet
  facet normal 0 0 1
    outer loop
      vertex -12.8815 -3.40877 0
      vertex -10.1293 -1.9103 0
      vertex -10.5218 -1.1964 0
    endloop
  endfacet
  facet normal -0 0 1
    outer loop
      vertex -13.5 -1 0
      vertex -10.5218 -1.1964 0
      vertex -10.7244 -0.407332 0
    endloop
  endfacet
  facet normal 0 0 1
    outer loop
      vertex -8.88378 -2.94069 0
      vertex -11.1791 -5.22163 0
      vertex -10.0451 -5.75528 0
    endloop
  endfacet
  facet normal 0 0 1
    outer loop
      vertex -10.1293 1.9103 0
      vertex -13.2553 2.54509 0
      vertex -10.5218 1.1964 0
    endloop
  endfacet
  facet normal 0 0 1
    outer loop
      vertex -13.5 1 0
      vertex -10.5218 1.1964 0
      vertex -13.2553 2.54509 0
    endloop
  endfacet
  facet normal 0 0 1
    outer loop
      vertex -13.5 -1 0
      vertex -10.7244 -0.407332 0
      vertex -13.5 1 0
    endloop
  endfacet
  facet normal 0 0 1
    outer loop
      vertex -10.5218 1.1964 0
      vertex -13.5 1 0
      vertex -10.7244 0.407332 0
    endloop
  endfacet
  facet normal 0 0 1
    outer loop
      vertex -10.5218 -1.1964 0
      vertex -13.5 -1 0
      vertex -13.3429 -2.24345 0
    endloop
  endfacet
  facet normal 0 0 1
    outer loop
      vertex -10.7244 0.407332 0
      vertex -13.5 1 0
      vertex -10.7244 -0.407332 0
    endloop
  endfacet
  facet normal 0 0 1
    outer loop
      vertex -9.57163 -2.50417 0
      vertex -12.1448 -4.42273 0
      vertex -11.1791 -5.22163 0
    endloop
  endfacet
  facet normal 0 0 1
    outer loop
      vertex -10.1293 -1.9103 0
      vertex -12.8815 -3.40877 0
      vertex -12.1448 -4.42273 0
    endloop
  endfacet
  facet normal 0 0 1
    outer loop
      vertex -10.5218 -1.1964 0
      vertex -13.3429 -2.24345 0
      vertex -12.8815 -3.40877 0
    endloop
  endfacet
  facet normal 1 -0 0
    outer loop
      vertex 13.5 -1 0
      vertex 13.5 1 -3
      vertex 13.5 1 0
    endloop
  endfacet
  facet normal 1 0 0
    outer loop
      vertex 13.5 1 -3
      vertex 13.5 -1 0
      vertex 13.5 -1 -3
    endloop
  endfacet
  facet normal 0.90481 -0.425816 0
    outer loop
      vertex 12.7216 -3.67914 0
      vertex 13.2553 -2.54509 -3
      vertex 13.2553 -2.54509 0
    endloop
  endfacet
  facet normal 0.90481 -0.425816 0
    outer loop
      vertex 13.2553 -2.54509 -3
      vertex 12.7216 -3.67914 0
      vertex 12.7216 -3.67914 -3
    endloop
  endfacet
endsolid OpenSCAD_Model
