<?xml version="1.0" standalone="no"?>
<!DOCTYPE svg PUBLIC "-//W3C//DTD SVG 1.1//EN" "http://www.w3.org/Graphics/SVG/1.1/DTD/svg11.dtd">
<svg width="28mm" height="14mm" viewBox="-14 -7 28 14" xmlns="http://www.w3.org/2000/svg" version="1.1">
<title>OpenSCAD Model</title>
<path d="
M 9.15762,5.96222 L 9.79909,5.83463 L 10.4184,5.62439 L 11.005,5.33511 L 11.5488,4.97176 L 12.0405,4.54053
 L 12.4718,4.0488 L 12.8351,3.50499 L 13.1244,2.91841 L 13.3346,2.29909 L 13.4622,1.65762 L 13.505,1.00499
 L 13.505,-1.00499 L 13.4622,-1.65762 L 13.3346,-2.29909 L 13.1244,-2.91841 L 12.8351,-3.50499 L 12.4718,-4.0488
 L 12.0405,-4.54053 L 11.5488,-4.97176 L 11.005,-5.33511 L 10.4184,-5.62439 L 9.79909,-5.83463 L 9.15762,-5.96222
 L 8.50499,-6.00499 L -8.50499,-6.00499 L -9.15762,-5.96222 L -9.79909,-5.83463 L -10.4184,-5.62439 L -11.005,-5.33511
 L -11.5488,-4.97176 L -12.0405,-4.54053 L -12.4718,-4.0488 L -12.8351,-3.50499 L -13.1244,-2.91841 L -13.3346,-2.29909
 L -13.4622,-1.65762 L -13.505,-1.00499 L -13.505,1.00499 L -13.4622,1.65762 L -13.3346,2.29909 L -13.1244,2.91841
 L -12.8351,3.50499 L -12.4718,4.0488 L -12.0405,4.54053 L -11.5488,4.97176 L -11.005,5.33511 L -10.4184,5.62439
 L -9.79909,5.83463 L -9.15762,5.96222 L -8.50499,6.00499 L 8.50499,6.00499 z
M -7.92421,3.22218 L -8.34116,3.13925 L -8.74371,3.00259 L -9.125,2.81458 L -9.47847,2.57838 L -9.7981,2.2981
 L -10.0784,1.97847 L -10.3146,1.625 L -10.5026,1.24371 L -10.6393,0.841156 L -10.7222,0.42421 L -10.75,-0
 L -10.7222,-0.42421 L -10.6393,-0.841156 L -10.5026,-1.24371 L -10.3146,-1.625 L -10.0784,-1.97847 L -9.7981,-2.2981
 L -9.47847,-2.57838 L -9.125,-2.81458 L -8.74371,-3.00259 L -8.34116,-3.13925 L -7.92421,-3.22218 L -7.5,-3.25
 L -7.07578,-3.22218 L -6.65883,-3.13925 L -6.25627,-3.00259 L -5.875,-2.81458 L -5.52151,-2.57838 L -5.20189,-2.2981
 L -4.9216,-1.97847 L -4.68541,-1.625 L -4.49739,-1.24371 L -4.36073,-0.841156 L -4.2778,-0.42421 L -4.25,-0
 L -4.2778,0.42421 L -4.36073,0.841156 L -4.49739,1.24371 L -4.68541,1.625 L -4.9216,1.97847 L -5.20189,2.2981
 L -5.52151,2.57838 L -5.875,2.81458 L -6.25627,3.00259 L -6.65883,3.13925 L -7.07578,3.22218 L -7.5,3.25
 z
M 7.07578,3.22218 L 6.65883,3.13925 L 6.25627,3.00259 L 5.875,2.81458 L 5.52151,2.57838 L 5.20189,2.2981
 L 4.9216,1.97847 L 4.68541,1.625 L 4.49739,1.24371 L 4.36073,0.841156 L 4.2778,0.42421 L 4.25,-0
 L 4.2778,-0.42421 L 4.36073,-0.841156 L 4.49739,-1.24371 L 4.68541,-1.625 L 4.9216,-1.97847 L 5.20189,-2.2981
 L 5.52151,-2.57838 L 5.875,-2.81458 L 6.25627,-3.00259 L 6.65883,-3.13925 L 7.07578,-3.22218 L 7.5,-3.25
 L 7.92421,-3.22218 L 8.34116,-3.13925 L 8.74371,-3.00259 L 9.125,-2.81458 L 9.47847,-2.57838 L 9.7981,-2.2981
 L 10.0784,-1.97847 L 10.3146,-1.625 L 10.5026,-1.24371 L 10.6393,-0.841156 L 10.7222,-0.42421 L 10.75,-0
 L 10.7222,0.42421 L 10.6393,0.841156 L 10.5026,1.24371 L 10.3146,1.625 L 10.0784,1.97847 L 9.7981,2.2981
 L 9.47847,2.57838 L 9.125,2.81458 L 8.74371,3.00259 L 8.34116,3.13925 L 7.92421,3.22218 L 7.5,3.25
 z
" stroke="black" fill="lightgray" stroke-width="0.5"/>
</svg>
