solid OpenSCAD_Model
  facet normal -0.99786 -0.0653933 0
    outer loop
      vertex -4.25 0 -3
      vertex -4.2778 0.42421 0
      vertex -4.2778 0.42421 -3
    endloop
  endfacet
  facet normal -0.99786 -0.0653933 0
    outer loop
      vertex -4.2778 0.42421 0
      vertex -4.25 0 -3
      vertex -4.25 0 0
    endloop
  endfacet
  facet normal 0.99786 -0.0653933 0
    outer loop
      vertex -10.75 0 0
      vertex -10.7222 0.42421 -3
      vertex -10.7222 0.42421 0
    endloop
  endfacet
  facet normal 0.99786 -0.0653933 0
    outer loop
      vertex -10.7222 0.42421 -3
      vertex -10.75 0 0
      vertex -10.75 0 -3
    endloop
  endfacet
  facet normal -0.0653933 -0.99786 0
    outer loop
      vertex -7.5 3.25 -3
      vertex -7.07579 3.2222 0
      vertex -7.5 3.25 0
    endloop
  endfacet
  facet normal -0.0653933 -0.99786 -0
    outer loop
      vertex -7.07579 3.2222 0
      vertex -7.5 3.25 -3
      vertex -7.07579 3.2222 -3
    endloop
  endfacet
  facet normal 0.0653933 0.99786 -0
    outer loop
      vertex -7.5 -3.25 -3
      vertex -7.92421 -3.2222 0
      vertex -7.5 -3.25 0
    endloop
  endfacet
  facet normal 0.0653933 0.99786 0
    outer loop
      vertex -7.92421 -3.2222 0
      vertex -7.5 -3.25 -3
      vertex -7.92421 -3.2222 -3
    endloop
  endfacet
  facet normal 0.751849 0.659335 0
    outer loop
      vertex -9.7981 -2.2981 0
      vertex -10.0784 -1.97847 -3
      vertex -10.0784 -1.97847 0
    endloop
  endfacet
  facet normal 0.751849 0.659335 0
    outer loop
      vertex -10.0784 -1.97847 -3
      vertex -9.7981 -2.2981 0
      vertex -9.7981 -2.2981 -3
    endloop
  endfacet
  facet normal -0.659347 -0.751839 0
    outer loop
      vertex -5.52152 2.5784 -3
      vertex -5.2019 2.2981 0
      vertex -5.52152 2.5784 0
    endloop
  endfacet
  facet normal -0.659347 -0.751839 -0
    outer loop
      vertex -5.2019 2.2981 0
      vertex -5.52152 2.5784 -3
      vertex -5.2019 2.2981 -3
    endloop
  endfacet
  facet normal 0.659335 -0.751849 0
    outer loop
      vertex -9.7981 2.2981 -3
      vertex -9.47847 2.5784 0
      vertex -9.7981 2.2981 0
    endloop
  endfacet
  facet normal 0.659335 -0.751849 0
    outer loop
      vertex -9.47847 2.5784 0
      vertex -9.7981 2.2981 -3
      vertex -9.47847 2.5784 -3
    endloop
  endfacet
  facet normal 0.321438 -0.946931 0
    outer loop
      vertex -8.74372 3.00261 -3
      vertex -8.34116 3.13926 0
      vertex -8.74372 3.00261 0
    endloop
  endfacet
  facet normal 0.321438 -0.946931 0
    outer loop
      vertex -8.34116 3.13926 0
      vertex -8.74372 3.00261 -3
      vertex -8.34116 3.13926 -3
    endloop
  endfacet
  facet normal 0.946894 0.321545 0
    outer loop
      vertex -10.5026 -1.24372 0
      vertex -10.6393 -0.841162 -3
      vertex -10.6393 -0.841162 0
    endloop
  endfacet
  facet normal 0.946894 0.321545 0
    outer loop
      vertex -10.6393 -0.841162 -3
      vertex -10.5026 -1.24372 0
      vertex -10.5026 -1.24372 -3
    endloop
  endfacet
  facet normal -0.896869 -0.442295 0
    outer loop
      vertex -4.49739 1.24372 -3
      vertex -4.68542 1.625 0
      vertex -4.68542 1.625 -3
    endloop
  endfacet
  facet normal -0.896869 -0.442295 0
    outer loop
      vertex -4.68542 1.625 0
      vertex -4.49739 1.24372 -3
      vertex -4.49739 1.24372 0
    endloop
  endfacet
  facet normal -0.831471 -0.555568 0
    outer loop
      vertex -4.68542 1.625 -3
      vertex -4.9216 1.97847 0
      vertex -4.9216 1.97847 -3
    endloop
  endfacet
  facet normal -0.831471 -0.555568 0
    outer loop
      vertex -4.9216 1.97847 0
      vertex -4.68542 1.625 -3
      vertex -4.68542 1.625 0
    endloop
  endfacet
  facet normal -0.442295 -0.896869 0
    outer loop
      vertex -6.25628 3.00261 -3
      vertex -5.875 2.81458 0
      vertex -6.25628 3.00261 0
    endloop
  endfacet
  facet normal -0.442295 -0.896869 -0
    outer loop
      vertex -5.875 2.81458 0
      vertex -6.25628 3.00261 -3
      vertex -5.875 2.81458 -3
    endloop
  endfacet
  facet normal -0.555558 -0.831478 0
    outer loop
      vertex -5.875 2.81458 -3
      vertex -5.52152 2.5784 0
      vertex -5.875 2.81458 0
    endloop
  endfacet
  facet normal -0.555558 -0.831478 -0
    outer loop
      vertex -5.52152 2.5784 0
      vertex -5.875 2.81458 -3
      vertex -5.52152 2.5784 -3
    endloop
  endfacet
  facet normal 0.896897 -0.442239 0
    outer loop
      vertex -10.5026 1.24372 0
      vertex -10.3146 1.625 -3
      vertex -10.3146 1.625 0
    endloop
  endfacet
  facet normal 0.896897 -0.442239 0
    outer loop
      vertex -10.3146 1.625 -3
      vertex -10.5026 1.24372 0
      vertex -10.5026 1.24372 -3
    endloop
  endfacet
  facet normal 0.751849 -0.659335 0
    outer loop
      vertex -10.0784 1.97847 0
      vertex -9.7981 2.2981 -3
      vertex -9.7981 2.2981 0
    endloop
  endfacet
  facet normal 0.751849 -0.659335 0
    outer loop
      vertex -9.7981 2.2981 -3
      vertex -10.0784 1.97847 0
      vertex -10.0784 1.97847 -3
    endloop
  endfacet
  facet normal 0.0653933 -0.99786 0
    outer loop
      vertex -7.92421 3.2222 -3
      vertex -7.5 3.25 0
      vertex -7.92421 3.2222 0
    endloop
  endfacet
  facet normal 0.0653933 -0.99786 0
    outer loop
      vertex -7.5 3.25 0
      vertex -7.92421 3.2222 -3
      vertex -7.5 3.25 -3
    endloop
  endfacet
  facet normal -0.0653933 0.99786 0
    outer loop
      vertex -7.07579 -3.2222 -3
      vertex -7.5 -3.25 0
      vertex -7.07579 -3.2222 0
    endloop
  endfacet
  facet normal -0.0653933 0.99786 0
    outer loop
      vertex -7.5 -3.25 0
      vertex -7.07579 -3.2222 -3
      vertex -7.5 -3.25 -3
    endloop
  endfacet
  facet normal -0.751849 0.659335 0
    outer loop
      vertex -5.2019 -2.2981 -3
      vertex -4.9216 -1.97847 0
      vertex -4.9216 -1.97847 -3
    endloop
  endfacet
  facet normal -0.751849 0.659335 0
    outer loop
      vertex -4.9216 -1.97847 0
      vertex -5.2019 -2.2981 -3
      vertex -5.2019 -2.2981 0
    endloop
  endfacet
  facet normal 0.659335 0.751849 -0
    outer loop
      vertex -9.47847 -2.5784 -3
      vertex -9.7981 -2.2981 0
      vertex -9.47847 -2.5784 0
    endloop
  endfacet
  facet normal 0.659335 0.751849 0
    outer loop
      vertex -9.7981 -2.2981 0
      vertex -9.47847 -2.5784 -3
      vertex -9.7981 -2.2981 -3
    endloop
  endfacet
  facet normal 0.99786 0.0653933 0
    outer loop
      vertex -10.7222 -0.42421 0
      vertex -10.75 0 -3
      vertex -10.75 0 0
    endloop
  endfacet
  facet normal 0.99786 0.0653933 0
    outer loop
      vertex -10.75 0 -3
      vertex -10.7222 -0.42421 0
      vertex -10.7222 -0.42421 -3
    endloop
  endfacet
  facet normal -0.94693 -0.321439 0
    outer loop
      vertex -4.36074 0.841162 -3
      vertex -4.49739 1.24372 0
      vertex -4.49739 1.24372 -3
    endloop
  endfacet
  facet normal -0.94693 -0.321439 0
    outer loop
      vertex -4.49739 1.24372 0
      vertex -4.36074 0.841162 -3
      vertex -4.36074 0.841162 0
    endloop
  endfacet
  facet normal -0.980784 -0.195097 0
    outer loop
      vertex -4.2778 0.42421 -3
      vertex -4.36074 0.841162 0
      vertex -4.36074 0.841162 -3
    endloop
  endfacet
  facet normal -0.980784 -0.195097 0
    outer loop
      vertex -4.36074 0.841162 0
      vertex -4.2778 0.42421 -3
      vertex -4.2778 0.42421 0
    endloop
  endfacet
  facet normal -0.751849 -0.659335 0
    outer loop
      vertex -4.9216 1.97847 -3
      vertex -5.2019 2.2981 0
      vertex -5.2019 2.2981 -3
    endloop
  endfacet
  facet normal -0.751849 -0.659335 0
    outer loop
      vertex -5.2019 2.2981 0
      vertex -4.9216 1.97847 -3
      vertex -4.9216 1.97847 0
    endloop
  endfacet
  facet normal -0.321438 -0.946931 0
    outer loop
      vertex -6.65884 3.13926 -3
      vertex -6.25628 3.00261 0
      vertex -6.65884 3.13926 0
    endloop
  endfacet
  facet normal -0.321438 -0.946931 -0
    outer loop
      vertex -6.25628 3.00261 0
      vertex -6.65884 3.13926 -3
      vertex -6.25628 3.00261 -3
    endloop
  endfacet
  facet normal -0.195098 -0.980784 0
    outer loop
      vertex -7.07579 3.2222 -3
      vertex -6.65884 3.13926 0
      vertex -7.07579 3.2222 0
    endloop
  endfacet
  facet normal -0.195098 -0.980784 -0
    outer loop
      vertex -6.65884 3.13926 0
      vertex -7.07579 3.2222 -3
      vertex -6.65884 3.13926 -3
    endloop
  endfacet
  facet normal 0.831449 -0.555601 0
    outer loop
      vertex -10.3146 1.625 0
      vertex -10.0784 1.97847 -3
      vertex -10.0784 1.97847 0
    endloop
  endfacet
  facet normal 0.831449 -0.555601 0
    outer loop
      vertex -10.0784 1.97847 -3
      vertex -10.3146 1.625 0
      vertex -10.3146 1.625 -3
    endloop
  endfacet
  facet normal 0.946894 -0.321545 0
    outer loop
      vertex -10.6393 0.841162 0
      vertex -10.5026 1.24372 -3
      vertex -10.5026 1.24372 0
    endloop
  endfacet
  facet normal 0.946894 -0.321545 0
    outer loop
      vertex -10.5026 1.24372 -3
      vertex -10.6393 0.841162 0
      vertex -10.6393 0.841162 -3
    endloop
  endfacet
  facet normal 0.980802 -0.195007 0
    outer loop
      vertex -10.7222 0.42421 0
      vertex -10.6393 0.841162 -3
      vertex -10.6393 0.841162 0
    endloop
  endfacet
  facet normal 0.980802 -0.195007 0
    outer loop
      vertex -10.6393 0.841162 -3
      vertex -10.7222 0.42421 0
      vertex -10.7222 0.42421 -3
    endloop
  endfacet
  facet normal 0.442295 -0.896869 0
    outer loop
      vertex -9.125 2.81458 -3
      vertex -8.74372 3.00261 0
      vertex -9.125 2.81458 0
    endloop
  endfacet
  facet normal 0.442295 -0.896869 0
    outer loop
      vertex -8.74372 3.00261 0
      vertex -9.125 2.81458 -3
      vertex -8.74372 3.00261 -3
    endloop
  endfacet
  facet normal 0.555568 -0.831471 0
    outer loop
      vertex -9.47847 2.5784 -3
      vertex -9.125 2.81458 0
      vertex -9.47847 2.5784 0
    endloop
  endfacet
  facet normal 0.555568 -0.831471 0
    outer loop
      vertex -9.125 2.81458 0
      vertex -9.47847 2.5784 -3
      vertex -9.125 2.81458 -3
    endloop
  endfacet
  facet normal 0.195098 -0.980784 0
    outer loop
      vertex -8.34116 3.13926 -3
      vertex -7.92421 3.2222 0
      vertex -8.34116 3.13926 0
    endloop
  endfacet
  facet normal 0.195098 -0.980784 0
    outer loop
      vertex -7.92421 3.2222 0
      vertex -8.34116 3.13926 -3
      vertex -7.92421 3.2222 -3
    endloop
  endfacet
  facet normal -0.99786 0.0653933 0
    outer loop
      vertex -4.2778 -0.42421 -3
      vertex -4.25 0 0
      vertex -4.25 0 -3
    endloop
  endfacet
  facet normal -0.99786 0.0653933 0
    outer loop
      vertex -4.25 0 0
      vertex -4.2778 -0.42421 -3
      vertex -4.2778 -0.42421 0
    endloop
  endfacet
  facet normal -0.195098 0.980784 0
    outer loop
      vertex -6.65884 -3.13926 -3
      vertex -7.07579 -3.2222 0
      vertex -6.65884 -3.13926 0
    endloop
  endfacet
  facet normal -0.195098 0.980784 0
    outer loop
      vertex -7.07579 -3.2222 0
      vertex -6.65884 -3.13926 -3
      vertex -7.07579 -3.2222 -3
    endloop
  endfacet
  facet normal -0.659347 0.751839 0
    outer loop
      vertex -5.2019 -2.2981 -3
      vertex -5.52152 -2.5784 0
      vertex -5.2019 -2.2981 0
    endloop
  endfacet
  facet normal -0.659347 0.751839 0
    outer loop
      vertex -5.52152 -2.5784 0
      vertex -5.2019 -2.2981 -3
      vertex -5.52152 -2.5784 -3
    endloop
  endfacet
  facet normal -0.442295 0.896869 0
    outer loop
      vertex -5.875 -2.81458 -3
      vertex -6.25628 -3.00261 0
      vertex -5.875 -2.81458 0
    endloop
  endfacet
  facet normal -0.442295 0.896869 0
    outer loop
      vertex -6.25628 -3.00261 0
      vertex -5.875 -2.81458 -3
      vertex -6.25628 -3.00261 -3
    endloop
  endfacet
  facet normal -0.831471 0.555568 0
    outer loop
      vertex -4.9216 -1.97847 -3
      vertex -4.68542 -1.625 0
      vertex -4.68542 -1.625 -3
    endloop
  endfacet
  facet normal -0.831471 0.555568 0
    outer loop
      vertex -4.68542 -1.625 0
      vertex -4.9216 -1.97847 -3
      vertex -4.9216 -1.97847 0
    endloop
  endfacet
  facet normal -0.94693 0.321439 0
    outer loop
      vertex -4.49739 -1.24372 -3
      vertex -4.36074 -0.841162 0
      vertex -4.36074 -0.841162 -3
    endloop
  endfacet
  facet normal -0.94693 0.321439 0
    outer loop
      vertex -4.36074 -0.841162 0
      vertex -4.49739 -1.24372 -3
      vertex -4.49739 -1.24372 0
    endloop
  endfacet
  facet normal 0.555568 0.831471 -0
    outer loop
      vertex -9.125 -2.81458 -3
      vertex -9.47847 -2.5784 0
      vertex -9.125 -2.81458 0
    endloop
  endfacet
  facet normal 0.555568 0.831471 0
    outer loop
      vertex -9.47847 -2.5784 0
      vertex -9.125 -2.81458 -3
      vertex -9.47847 -2.5784 -3
    endloop
  endfacet
  facet normal 0.321438 0.946931 -0
    outer loop
      vertex -8.34116 -3.13926 -3
      vertex -8.74372 -3.00261 0
      vertex -8.34116 -3.13926 0
    endloop
  endfacet
  facet normal 0.321438 0.946931 0
    outer loop
      vertex -8.74372 -3.00261 0
      vertex -8.34116 -3.13926 -3
      vertex -8.74372 -3.00261 -3
    endloop
  endfacet
  facet normal 0.896897 0.442239 0
    outer loop
      vertex -10.3146 -1.625 0
      vertex -10.5026 -1.24372 -3
      vertex -10.5026 -1.24372 0
    endloop
  endfacet
  facet normal 0.896897 0.442239 0
    outer loop
      vertex -10.5026 -1.24372 -3
      vertex -10.3146 -1.625 0
      vertex -10.3146 -1.625 -3
    endloop
  endfacet
  facet normal 0.980802 0.195007 0
    outer loop
      vertex -10.6393 -0.841162 0
      vertex -10.7222 -0.42421 -3
      vertex -10.7222 -0.42421 0
    endloop
  endfacet
  facet normal 0.980802 0.195007 0
    outer loop
      vertex -10.7222 -0.42421 -3
      vertex -10.6393 -0.841162 0
      vertex -10.6393 -0.841162 -3
    endloop
  endfacet
  facet normal -0.321438 0.946931 0
    outer loop
      vertex -6.25628 -3.00261 -3
      vertex -6.65884 -3.13926 0
      vertex -6.25628 -3.00261 0
    endloop
  endfacet
  facet normal -0.321438 0.946931 0
    outer loop
      vertex -6.65884 -3.13926 0
      vertex -6.25628 -3.00261 -3
      vertex -6.65884 -3.13926 -3
    endloop
  endfacet
  facet normal -0.555558 0.831478 0
    outer loop
      vertex -5.52152 -2.5784 -3
      vertex -5.875 -2.81458 0
      vertex -5.52152 -2.5784 0
    endloop
  endfacet
  facet normal -0.555558 0.831478 0
    outer loop
      vertex -5.875 -2.81458 0
      vertex -5.52152 -2.5784 -3
      vertex -5.875 -2.81458 -3
    endloop
  endfacet
  facet normal -0.896869 0.442295 0
    outer loop
      vertex -4.68542 -1.625 -3
      vertex -4.49739 -1.24372 0
      vertex -4.49739 -1.24372 -3
    endloop
  endfacet
  facet normal -0.896869 0.442295 0
    outer loop
      vertex -4.49739 -1.24372 0
      vertex -4.68542 -1.625 -3
      vertex -4.68542 -1.625 0
    endloop
  endfacet
  facet normal -0.980784 0.195097 0
    outer loop
      vertex -4.36074 -0.841162 -3
      vertex -4.2778 -0.42421 0
      vertex -4.2778 -0.42421 -3
    endloop
  endfacet
  facet normal -0.980784 0.195097 0
    outer loop
      vertex -4.2778 -0.42421 0
      vertex -4.36074 -0.841162 -3
      vertex -4.36074 -0.841162 0
    endloop
  endfacet
  facet normal 0.442295 0.896869 -0
    outer loop
      vertex -8.74372 -3.00261 -3
      vertex -9.125 -2.81458 0
      vertex -8.74372 -3.00261 0
    endloop
  endfacet
  facet normal 0.442295 0.896869 0
    outer loop
      vertex -9.125 -2.81458 0
      vertex -8.74372 -3.00261 -3
      vertex -9.125 -2.81458 -3
    endloop
  endfacet
  facet normal 0.195098 0.980784 -0
    outer loop
      vertex -7.92421 -3.2222 -3
      vertex -8.34116 -3.13926 0
      vertex -7.92421 -3.2222 0
    endloop
  endfacet
  facet normal 0.195098 0.980784 0
    outer loop
      vertex -8.34116 -3.13926 0
      vertex -7.92421 -3.2222 -3
      vertex -8.34116 -3.13926 -3
    endloop
  endfacet
  facet normal 0.831449 0.555601 0
    outer loop
      vertex -10.0784 -1.97847 0
      vertex -10.3146 -1.625 -3
      vertex -10.3146 -1.625 0
    endloop
  endfacet
  facet normal 0.831449 0.555601 0
    outer loop
      vertex -10.3146 -1.625 -3
      vertex -10.0784 -1.97847 0
      vertex -10.0784 -1.97847 -3
    endloop
  endfacet
  facet normal -0.896897 -0.442239 0
    outer loop
      vertex 10.5026 1.24372 -3
      vertex 10.3146 1.625 0
      vertex 10.3146 1.625 -3
    endloop
  endfacet
  facet normal -0.896897 -0.442239 0
    outer loop
      vertex 10.3146 1.625 0
      vertex 10.5026 1.24372 -3
      vertex 10.5026 1.24372 0
    endloop
  endfacet
  facet normal -0.831449 -0.555601 0
    outer loop
      vertex 10.3146 1.625 -3
      vertex 10.0784 1.97847 0
      vertex 10.0784 1.97847 -3
    endloop
  endfacet
  facet normal -0.831449 -0.555601 0
    outer loop
      vertex 10.0784 1.97847 0
      vertex 10.3146 1.625 -3
      vertex 10.3146 1.625 0
    endloop
  endfacet
  facet normal -0.321438 -0.946931 0
    outer loop
      vertex 8.34116 3.13926 -3
      vertex 8.74372 3.00261 0
      vertex 8.34116 3.13926 0
    endloop
  endfacet
  facet normal -0.321438 -0.946931 -0
    outer loop
      vertex 8.74372 3.00261 0
      vertex 8.34116 3.13926 -3
      vertex 8.74372 3.00261 -3
    endloop
  endfacet
  facet normal 0.442295 -0.896869 0
    outer loop
      vertex 5.875 2.81458 -3
      vertex 6.25628 3.00261 0
      vertex 5.875 2.81458 0
    endloop
  endfacet
  facet normal 0.442295 -0.896869 0
    outer loop
      vertex 6.25628 3.00261 0
      vertex 5.875 2.81458 -3
      vertex 6.25628 3.00261 -3
    endloop
  endfacet
  facet normal 0.94693 -0.321439 0
    outer loop
      vertex 4.36074 0.841162 0
      vertex 4.49739 1.24372 -3
      vertex 4.49739 1.24372 0
    endloop
  endfacet
  facet normal 0.94693 -0.321439 0
    outer loop
      vertex 4.49739 1.24372 -3
      vertex 4.36074 0.841162 0
      vertex 4.36074 0.841162 -3
    endloop
  endfacet
  facet normal 0.0653933 -0.99786 0
    outer loop
      vertex 7.07579 3.2222 -3
      vertex 7.5 3.25 0
      vertex 7.07579 3.2222 0
    endloop
  endfacet
  facet normal 0.0653933 -0.99786 0
    outer loop
      vertex 7.5 3.25 0
      vertex 7.07579 3.2222 -3
      vertex 7.5 3.25 -3
    endloop
  endfacet
  facet normal -0.442295 -0.896869 0
    outer loop
      vertex 8.74372 3.00261 -3
      vertex 9.125 2.81458 0
      vertex 8.74372 3.00261 0
    endloop
  endfacet
  facet normal -0.442295 -0.896869 -0
    outer loop
      vertex 9.125 2.81458 0
      vertex 8.74372 3.00261 -3
      vertex 9.125 2.81458 -3
    endloop
  endfacet
  facet normal 0.99786 -0.0653933 0
    outer loop
      vertex 4.25 0 0
      vertex 4.2778 0.42421 -3
      vertex 4.2778 0.42421 0
    endloop
  endfacet
  facet normal 0.99786 -0.0653933 0
    outer loop
      vertex 4.2778 0.42421 -3
      vertex 4.25 0 0
      vertex 4.25 0 -3
    endloop
  endfacet
  facet normal 0.831471 -0.555568 0
    outer loop
      vertex 4.68542 1.625 0
      vertex 4.9216 1.97847 -3
      vertex 4.9216 1.97847 0
    endloop
  endfacet
  facet normal 0.831471 -0.555568 0
    outer loop
      vertex 4.9216 1.97847 -3
      vertex 4.68542 1.625 0
      vertex 4.68542 1.625 -3
    endloop
  endfacet
  facet normal 0.555558 -0.831478 0
    outer loop
      vertex 5.52152 2.5784 -3
      vertex 5.875 2.81458 0
      vertex 5.52152 2.5784 0
    endloop
  endfacet
  facet normal 0.555558 -0.831478 0
    outer loop
      vertex 5.875 2.81458 0
      vertex 5.52152 2.5784 -3
      vertex 5.875 2.81458 -3
    endloop
  endfacet
  facet normal 0.321438 -0.946931 0
    outer loop
      vertex 6.25628 3.00261 -3
      vertex 6.65884 3.13926 0
      vertex 6.25628 3.00261 0
    endloop
  endfacet
  facet normal 0.321438 -0.946931 0
    outer loop
      vertex 6.65884 3.13926 0
      vertex 6.25628 3.00261 -3
      vertex 6.65884 3.13926 -3
    endloop
  endfacet
  facet normal -0.99786 -0.0653933 0
    outer loop
      vertex 10.75 0 -3
      vertex 10.7222 0.42421 0
      vertex 10.7222 0.42421 -3
    endloop
  endfacet
  facet normal -0.99786 -0.0653933 0
    outer loop
      vertex 10.7222 0.42421 0
      vertex 10.75 0 -3
      vertex 10.75 0 0
    endloop
  endfacet
  facet normal -0.946894 0.321545 0
    outer loop
      vertex 10.5026 -1.24372 -3
      vertex 10.6393 -0.841162 0
      vertex 10.6393 -0.841162 -3
    endloop
  endfacet
  facet normal -0.946894 0.321545 0
    outer loop
      vertex 10.6393 -0.841162 0
      vertex 10.5026 -1.24372 -3
      vertex 10.5026 -1.24372 0
    endloop
  endfacet
  facet normal 0.555558 0.831478 -0
    outer loop
      vertex 5.875 -2.81458 -3
      vertex 5.52152 -2.5784 0
      vertex 5.875 -2.81458 0
    endloop
  endfacet
  facet normal 0.555558 0.831478 0
    outer loop
      vertex 5.52152 -2.5784 0
      vertex 5.875 -2.81458 -3
      vertex 5.52152 -2.5784 -3
    endloop
  endfacet
  facet normal 0.831471 0.555568 0
    outer loop
      vertex 4.9216 -1.97847 0
      vertex 4.68542 -1.625 -3
      vertex 4.68542 -1.625 0
    endloop
  endfacet
  facet normal 0.831471 0.555568 0
    outer loop
      vertex 4.68542 -1.625 -3
      vertex 4.9216 -1.97847 0
      vertex 4.9216 -1.97847 -3
    endloop
  endfacet
  facet normal -0.555568 0.831471 0
    outer loop
      vertex 9.47847 -2.5784 -3
      vertex 9.125 -2.81458 0
      vertex 9.47847 -2.5784 0
    endloop
  endfacet
  facet normal -0.555568 0.831471 0
    outer loop
      vertex 9.125 -2.81458 0
      vertex 9.47847 -2.5784 -3
      vertex 9.125 -2.81458 -3
    endloop
  endfacet
  facet normal -0.980802 -0.195007 0
    outer loop
      vertex 10.7222 0.42421 -3
      vertex 10.6393 0.841162 0
      vertex 10.6393 0.841162 -3
    endloop
  endfacet
  facet normal -0.980802 -0.195007 0
    outer loop
      vertex 10.6393 0.841162 0
      vertex 10.7222 0.42421 -3
      vertex 10.7222 0.42421 0
    endloop
  endfacet
  facet normal -0.946894 -0.321545 0
    outer loop
      vertex 10.6393 0.841162 -3
      vertex 10.5026 1.24372 0
      vertex 10.5026 1.24372 -3
    endloop
  endfacet
  facet normal -0.946894 -0.321545 0
    outer loop
      vertex 10.5026 1.24372 0
      vertex 10.6393 0.841162 -3
      vertex 10.6393 0.841162 0
    endloop
  endfacet
  facet normal -0.659335 -0.751849 0
    outer loop
      vertex 9.47847 2.5784 -3
      vertex 9.7981 2.2981 0
      vertex 9.47847 2.5784 0
    endloop
  endfacet
  facet normal -0.659335 -0.751849 -0
    outer loop
      vertex 9.7981 2.2981 0
      vertex 9.47847 2.5784 -3
      vertex 9.7981 2.2981 -3
    endloop
  endfacet
  facet normal -0.751849 -0.659335 0
    outer loop
      vertex 10.0784 1.97847 -3
      vertex 9.7981 2.2981 0
      vertex 9.7981 2.2981 -3
    endloop
  endfacet
  facet normal -0.751849 -0.659335 0
    outer loop
      vertex 9.7981 2.2981 0
      vertex 10.0784 1.97847 -3
      vertex 10.0784 1.97847 0
    endloop
  endfacet
  facet normal -0.195098 -0.980784 0
    outer loop
      vertex 7.92421 3.2222 -3
      vertex 8.34116 3.13926 0
      vertex 7.92421 3.2222 0
    endloop
  endfacet
  facet normal -0.195098 -0.980784 -0
    outer loop
      vertex 8.34116 3.13926 0
      vertex 7.92421 3.2222 -3
      vertex 8.34116 3.13926 -3
    endloop
  endfacet
  facet normal -0.0653933 -0.99786 0
    outer loop
      vertex 7.5 3.25 -3
      vertex 7.92421 3.2222 0
      vertex 7.5 3.25 0
    endloop
  endfacet
  facet normal -0.0653933 -0.99786 -0
    outer loop
      vertex 7.92421 3.2222 0
      vertex 7.5 3.25 -3
      vertex 7.92421 3.2222 -3
    endloop
  endfacet
  facet normal -0.555568 -0.831471 0
    outer loop
      vertex 9.125 2.81458 -3
      vertex 9.47847 2.5784 0
      vertex 9.125 2.81458 0
    endloop
  endfacet
  facet normal -0.555568 -0.831471 -0
    outer loop
      vertex 9.47847 2.5784 0
      vertex 9.125 2.81458 -3
      vertex 9.47847 2.5784 -3
    endloop
  endfacet
  facet normal 0.99786 0.0653933 0
    outer loop
      vertex 4.2778 -0.42421 0
      vertex 4.25 0 -3
      vertex 4.25 0 0
    endloop
  endfacet
  facet normal 0.99786 0.0653933 0
    outer loop
      vertex 4.25 0 -3
      vertex 4.2778 -0.42421 0
      vertex 4.2778 -0.42421 -3
    endloop
  endfacet
  facet normal 0.980784 -0.195097 0
    outer loop
      vertex 4.2778 0.42421 0
      vertex 4.36074 0.841162 -3
      vertex 4.36074 0.841162 0
    endloop
  endfacet
  facet normal 0.980784 -0.195097 0
    outer loop
      vertex 4.36074 0.841162 -3
      vertex 4.2778 0.42421 0
      vertex 4.2778 0.42421 -3
    endloop
  endfacet
  facet normal 0.896869 -0.442295 0
    outer loop
      vertex 4.49739 1.24372 0
      vertex 4.68542 1.625 -3
      vertex 4.68542 1.625 0
    endloop
  endfacet
  facet normal 0.896869 -0.442295 0
    outer loop
      vertex 4.68542 1.625 -3
      vertex 4.49739 1.24372 0
      vertex 4.49739 1.24372 -3
    endloop
  endfacet
  facet normal 0.195098 -0.980784 0
    outer loop
      vertex 6.65884 3.13926 -3
      vertex 7.07579 3.2222 0
      vertex 6.65884 3.13926 0
    endloop
  endfacet
  facet normal 0.195098 -0.980784 0
    outer loop
      vertex 7.07579 3.2222 0
      vertex 6.65884 3.13926 -3
      vertex 7.07579 3.2222 -3
    endloop
  endfacet
  facet normal 0.659347 -0.751839 0
    outer loop
      vertex 5.2019 2.2981 -3
      vertex 5.52152 2.5784 0
      vertex 5.2019 2.2981 0
    endloop
  endfacet
  facet normal 0.659347 -0.751839 0
    outer loop
      vertex 5.52152 2.5784 0
      vertex 5.2019 2.2981 -3
      vertex 5.52152 2.5784 -3
    endloop
  endfacet
  facet normal 0.751849 -0.659335 0
    outer loop
      vertex 4.9216 1.97847 0
      vertex 5.2019 2.2981 -3
      vertex 5.2019 2.2981 0
    endloop
  endfacet
  facet normal 0.751849 -0.659335 0
    outer loop
      vertex 5.2019 2.2981 -3
      vertex 4.9216 1.97847 0
      vertex 4.9216 1.97847 -3
    endloop
  endfacet
  facet normal -0.99786 0.0653933 0
    outer loop
      vertex 10.7222 -0.42421 -3
      vertex 10.75 0 0
      vertex 10.75 0 -3
    endloop
  endfacet
  facet normal -0.99786 0.0653933 0
    outer loop
      vertex 10.75 0 0
      vertex 10.7222 -0.42421 -3
      vertex 10.7222 -0.42421 0
    endloop
  endfacet
  facet normal -0.831449 0.555601 0
    outer loop
      vertex 10.0784 -1.97847 -3
      vertex 10.3146 -1.625 0
      vertex 10.3146 -1.625 -3
    endloop
  endfacet
  facet normal -0.831449 0.555601 0
    outer loop
      vertex 10.3146 -1.625 0
      vertex 10.0784 -1.97847 -3
      vertex 10.0784 -1.97847 0
    endloop
  endfacet
  facet normal 0.751849 0.659335 0
    outer loop
      vertex 5.2019 -2.2981 0
      vertex 4.9216 -1.97847 -3
      vertex 4.9216 -1.97847 0
    endloop
  endfacet
  facet normal 0.751849 0.659335 0
    outer loop
      vertex 4.9216 -1.97847 -3
      vertex 5.2019 -2.2981 0
      vertex 5.2019 -2.2981 -3
    endloop
  endfacet
  facet normal -0.195098 0.980784 0
    outer loop
      vertex 8.34116 -3.13926 -3
      vertex 7.92421 -3.2222 0
      vertex 8.34116 -3.13926 0
    endloop
  endfacet
  facet normal -0.195098 0.980784 0
    outer loop
      vertex 7.92421 -3.2222 0
      vertex 8.34116 -3.13926 -3
      vertex 7.92421 -3.2222 -3
    endloop
  endfacet
  facet normal -0.659335 0.751849 0
    outer loop
      vertex 9.7981 -2.2981 -3
      vertex 9.47847 -2.5784 0
      vertex 9.7981 -2.2981 0
    endloop
  endfacet
  facet normal -0.659335 0.751849 0
    outer loop
      vertex 9.47847 -2.5784 0
      vertex 9.7981 -2.2981 -3
      vertex 9.47847 -2.5784 -3
    endloop
  endfacet
  facet normal -0.980802 0.195007 0
    outer loop
      vertex 10.6393 -0.841162 -3
      vertex 10.7222 -0.42421 0
      vertex 10.7222 -0.42421 -3
    endloop
  endfacet
  facet normal -0.980802 0.195007 0
    outer loop
      vertex 10.7222 -0.42421 0
      vertex 10.6393 -0.841162 -3
      vertex 10.6393 -0.841162 0
    endloop
  endfacet
  facet normal -0.896897 0.442239 0
    outer loop
      vertex 10.3146 -1.625 -3
      vertex 10.5026 -1.24372 0
      vertex 10.5026 -1.24372 -3
    endloop
  endfacet
  facet normal -0.896897 0.442239 0
    outer loop
      vertex 10.5026 -1.24372 0
      vertex 10.3146 -1.625 -3
      vertex 10.3146 -1.625 0
    endloop
  endfacet
  facet normal -0.0653933 0.99786 0
    outer loop
      vertex 7.92421 -3.2222 -3
      vertex 7.5 -3.25 0
      vertex 7.92421 -3.2222 0
    endloop
  endfacet
  facet normal -0.0653933 0.99786 0
    outer loop
      vertex 7.5 -3.25 0
      vertex 7.92421 -3.2222 -3
      vertex 7.5 -3.25 -3
    endloop
  endfacet
  facet normal 0.980784 0.195097 0
    outer loop
      vertex 4.36074 -0.841162 0
      vertex 4.2778 -0.42421 -3
      vertex 4.2778 -0.42421 0
    endloop
  endfacet
  facet normal 0.980784 0.195097 0
    outer loop
      vertex 4.2778 -0.42421 -3
      vertex 4.36074 -0.841162 0
      vertex 4.36074 -0.841162 -3
    endloop
  endfacet
  facet normal 0.896869 0.442295 0
    outer loop
      vertex 4.68542 -1.625 0
      vertex 4.49739 -1.24372 -3
      vertex 4.49739 -1.24372 0
    endloop
  endfacet
  facet normal 0.896869 0.442295 0
    outer loop
      vertex 4.49739 -1.24372 -3
      vertex 4.68542 -1.625 0
      vertex 4.68542 -1.625 -3
    endloop
  endfacet
  facet normal 0.659347 0.751839 -0
    outer loop
      vertex 5.52152 -2.5784 -3
      vertex 5.2019 -2.2981 0
      vertex 5.52152 -2.5784 0
    endloop
  endfacet
  facet normal 0.659347 0.751839 0
    outer loop
      vertex 5.2019 -2.2981 0
      vertex 5.52152 -2.5784 -3
      vertex 5.2019 -2.2981 -3
    endloop
  endfacet
  facet normal -0.442295 0.896869 0
    outer loop
      vertex 9.125 -2.81458 -3
      vertex 8.74372 -3.00261 0
      vertex 9.125 -2.81458 0
    endloop
  endfacet
  facet normal -0.442295 0.896869 0
    outer loop
      vertex 8.74372 -3.00261 0
      vertex 9.125 -2.81458 -3
      vertex 8.74372 -3.00261 -3
    endloop
  endfacet
  facet normal -0.321438 0.946931 0
    outer loop
      vertex 8.74372 -3.00261 -3
      vertex 8.34116 -3.13926 0
      vertex 8.74372 -3.00261 0
    endloop
  endfacet
  facet normal -0.321438 0.946931 0
    outer loop
      vertex 8.34116 -3.13926 0
      vertex 8.74372 -3.00261 -3
      vertex 8.34116 -3.13926 -3
    endloop
  endfacet
  facet normal -0.751849 0.659335 0
    outer loop
      vertex 9.7981 -2.2981 -3
      vertex 10.0784 -1.97847 0
      vertex 10.0784 -1.97847 -3
    endloop
  endfacet
  facet normal -0.751849 0.659335 0
    outer loop
      vertex 10.0784 -1.97847 0
      vertex 9.7981 -2.2981 -3
      vertex 9.7981 -2.2981 0
    endloop
  endfacet
  facet normal 0.321438 0.946931 -0
    outer loop
      vertex 6.65884 -3.13926 -3
      vertex 6.25628 -3.00261 0
      vertex 6.65884 -3.13926 0
    endloop
  endfacet
  facet normal 0.321438 0.946931 0
    outer loop
      vertex 6.25628 -3.00261 0
      vertex 6.65884 -3.13926 -3
      vertex 6.25628 -3.00261 -3
    endloop
  endfacet
  facet normal 0.0653933 0.99786 -0
    outer loop
      vertex 7.5 -3.25 -3
      vertex 7.07579 -3.2222 0
      vertex 7.5 -3.25 0
    endloop
  endfacet
  facet normal 0.0653933 0.99786 0
    outer loop
      vertex 7.07579 -3.2222 0
      vertex 7.5 -3.25 -3
      vertex 7.07579 -3.2222 -3
    endloop
  endfacet
  facet normal 0.94693 0.321439 0
    outer loop
      vertex 4.49739 -1.24372 0
      vertex 4.36074 -0.841162 -3
      vertex 4.36074 -0.841162 0
    endloop
  endfacet
  facet normal 0.94693 0.321439 0
    outer loop
      vertex 4.36074 -0.841162 -3
      vertex 4.49739 -1.24372 0
      vertex 4.49739 -1.24372 -3
    endloop
  endfacet
  facet normal 0.442295 0.896869 -0
    outer loop
      vertex 6.25628 -3.00261 -3
      vertex 5.875 -2.81458 0
      vertex 6.25628 -3.00261 0
    endloop
  endfacet
  facet normal 0.442295 0.896869 0
    outer loop
      vertex 5.875 -2.81458 0
      vertex 6.25628 -3.00261 -3
      vertex 5.875 -2.81458 -3
    endloop
  endfacet
  facet normal 0.195098 0.980784 -0
    outer loop
      vertex 7.07579 -3.2222 -3
      vertex 6.65884 -3.13926 0
      vertex 7.07579 -3.2222 0
    endloop
  endfacet
  facet normal 0.195098 0.980784 0
    outer loop
      vertex 6.65884 -3.13926 0
      vertex 7.07579 -3.2222 -3
      vertex 6.65884 -3.13926 -3
    endloop
  endfacet
  facet normal 0.321457 -0.946924 0
    outer loop
      vertex 9.79909 -5.83463 -3
      vertex 10.4184 -5.62439 0
      vertex 9.79909 -5.83463 0
    endloop
  endfacet
  facet normal 0.321457 -0.946924 0
    outer loop
      vertex 10.4184 -5.62439 0
      vertex 9.79909 -5.83463 -3
      vertex 10.4184 -5.62439 -3
    endloop
  endfacet
  facet normal 0.0653946 -0.997859 0
    outer loop
      vertex 8.50499 -6.00499 -3
      vertex 9.15762 -5.96222 0
      vertex 8.50499 -6.00499 0
    endloop
  endfacet
  facet normal 0.0653946 -0.997859 0
    outer loop
      vertex 9.15762 -5.96222 0
      vertex 8.50499 -6.00499 -3
      vertex 9.15762 -5.96222 -3
    endloop
  endfacet
  facet normal -0.195081 0.980787 0
    outer loop
      vertex -9.15762 5.96222 -3
      vertex -9.79909 5.83463 0
      vertex -9.15762 5.96222 0
    endloop
  endfacet
  facet normal -0.195081 0.980787 0
    outer loop
      vertex -9.79909 5.83463 0
      vertex -9.15762 5.96222 -3
      vertex -9.79909 5.83463 -3
    endloop
  endfacet
  facet normal 0.195081 -0.980787 0
    outer loop
      vertex 9.15762 -5.96222 -3
      vertex 9.79909 -5.83463 0
      vertex 9.15762 -5.96222 0
    endloop
  endfacet
  facet normal 0.195081 -0.980787 0
    outer loop
      vertex 9.79909 -5.83463 0
      vertex 9.15762 -5.96222 -3
      vertex 9.79909 -5.83463 -3
    endloop
  endfacet
  facet normal 0.555564 0.831474 -0
    outer loop
      vertex 11.5488 4.97176 -3
      vertex 11.005 5.33511 0
      vertex 11.5488 4.97176 0
    endloop
  endfacet
  facet normal 0.555564 0.831474 0
    outer loop
      vertex 11.005 5.33511 0
      vertex 11.5488 4.97176 -3
      vertex 11.005 5.33511 -3
    endloop
  endfacet
  facet normal -0.980784 0.195096 0
    outer loop
      vertex -13.4622 1.65762 -3
      vertex -13.3346 2.29909 0
      vertex -13.3346 2.29909 -3
    endloop
  endfacet
  facet normal -0.980784 0.195096 0
    outer loop
      vertex -13.3346 2.29909 0
      vertex -13.4622 1.65762 -3
      vertex -13.4622 1.65762 0
    endloop
  endfacet
  facet normal 0 -1 0
    outer loop
      vertex -8.50499 -6.00499 -3
      vertex 8.50499 -6.00499 0
      vertex -8.50499 -6.00499 0
    endloop
  endfacet
  facet normal 0 -1 -0
    outer loop
      vertex 8.50499 -6.00499 0
      vertex -8.50499 -6.00499 -3
      vertex 8.50499 -6.00499 -3
    endloop
  endfacet
  facet normal 0.0653946 0.997859 -0
    outer loop
      vertex 9.15762 5.96222 -3
      vertex 8.50499 6.00499 0
      vertex 9.15762 5.96222 0
    endloop
  endfacet
  facet normal 0.0653946 0.997859 0
    outer loop
      vertex 8.50499 6.00499 0
      vertex 9.15762 5.96222 -3
      vertex 8.50499 6.00499 -3
    endloop
  endfacet
  facet normal 0 1 -0
    outer loop
      vertex 8.50499 6.00499 -3
      vertex -8.50499 6.00499 0
      vertex 8.50499 6.00499 0
    endloop
  endfacet
  facet normal 0 1 0
    outer loop
      vertex -8.50499 6.00499 0
      vertex 8.50499 6.00499 -3
      vertex -8.50499 6.00499 -3
    endloop
  endfacet
  facet normal 0.659364 -0.751824 0
    outer loop
      vertex 11.5488 -4.97176 -3
      vertex 12.0405 -4.54053 0
      vertex 11.5488 -4.97176 0
    endloop
  endfacet
  facet normal 0.659364 -0.751824 0
    outer loop
      vertex 12.0405 -4.54053 0
      vertex 11.5488 -4.97176 -3
      vertex 12.0405 -4.54053 -3
    endloop
  endfacet
  facet normal -0.555564 0.831474 0
    outer loop
      vertex -11.005 5.33511 -3
      vertex -11.5488 4.97176 0
      vertex -11.005 5.33511 0
    endloop
  endfacet
  facet normal -0.555564 0.831474 0
    outer loop
      vertex -11.5488 4.97176 0
      vertex -11.005 5.33511 -3
      vertex -11.5488 4.97176 -3
    endloop
  endfacet
  facet normal -0.946944 -0.321397 0
    outer loop
      vertex -13.1244 -2.91841 -3
      vertex -13.3346 -2.29909 0
      vertex -13.3346 -2.29909 -3
    endloop
  endfacet
  facet normal -0.946944 -0.321397 0
    outer loop
      vertex -13.3346 -2.29909 0
      vertex -13.1244 -2.91841 -3
      vertex -13.1244 -2.91841 0
    endloop
  endfacet
  facet normal -0.44229 -0.896872 0
    outer loop
      vertex -11.005 -5.33511 -3
      vertex -10.4184 -5.62439 0
      vertex -11.005 -5.33511 0
    endloop
  endfacet
  facet normal -0.44229 -0.896872 -0
    outer loop
      vertex -10.4184 -5.62439 0
      vertex -11.005 -5.33511 -3
      vertex -10.4184 -5.62439 -3
    endloop
  endfacet
  facet normal -0.195081 -0.980787 0
    outer loop
      vertex -9.79909 -5.83463 -3
      vertex -9.15762 -5.96222 0
      vertex -9.79909 -5.83463 0
    endloop
  endfacet
  facet normal -0.195081 -0.980787 -0
    outer loop
      vertex -9.15762 -5.96222 0
      vertex -9.79909 -5.83463 -3
      vertex -9.15762 -5.96222 -3
    endloop
  endfacet
  facet normal 0.321457 0.946924 -0
    outer loop
      vertex 10.4184 5.62439 -3
      vertex 9.79909 5.83463 0
      vertex 10.4184 5.62439 0
    endloop
  endfacet
  facet normal 0.321457 0.946924 0
    outer loop
      vertex 9.79909 5.83463 0
      vertex 10.4184 5.62439 -3
      vertex 9.79909 5.83463 -3
    endloop
  endfacet
  facet normal 0.44229 0.896872 -0
    outer loop
      vertex 11.005 5.33511 -3
      vertex 10.4184 5.62439 0
      vertex 11.005 5.33511 0
    endloop
  endfacet
  facet normal 0.44229 0.896872 0
    outer loop
      vertex 10.4184 5.62439 0
      vertex 11.005 5.33511 -3
      vertex 10.4184 5.62439 -3
    endloop
  endfacet
  facet normal 0.195081 0.980787 -0
    outer loop
      vertex 9.79909 5.83463 -3
      vertex 9.15762 5.96222 0
      vertex 9.79909 5.83463 0
    endloop
  endfacet
  facet normal 0.195081 0.980787 0
    outer loop
      vertex 9.15762 5.96222 0
      vertex 9.79909 5.83463 -3
      vertex 9.15762 5.96222 -3
    endloop
  endfacet
  facet normal -0.0653946 0.997859 0
    outer loop
      vertex -8.50499 6.00499 -3
      vertex -9.15762 5.96222 0
      vertex -8.50499 6.00499 0
    endloop
  endfacet
  facet normal -0.0653946 0.997859 0
    outer loop
      vertex -9.15762 5.96222 0
      vertex -8.50499 6.00499 -3
      vertex -9.15762 5.96222 -3
    endloop
  endfacet
  facet normal 0.896854 0.442327 0
    outer loop
      vertex 13.1244 2.91841 0
      vertex 12.8351 3.50499 -3
      vertex 12.8351 3.50499 0
    endloop
  endfacet
  facet normal 0.896854 0.442327 0
    outer loop
      vertex 12.8351 3.50499 -3
      vertex 13.1244 2.91841 0
      vertex 13.1244 2.91841 -3
    endloop
  endfacet
  facet normal 0.980784 0.195096 0
    outer loop
      vertex 13.4622 1.65762 0
      vertex 13.3346 2.29909 -3
      vertex 13.3346 2.29909 0
    endloop
  endfacet
  facet normal 0.980784 0.195096 0
    outer loop
      vertex 13.3346 2.29909 -3
      vertex 13.4622 1.65762 0
      vertex 13.4622 1.65762 -3
    endloop
  endfacet
  facet normal 0.997856 -0.0654402 0
    outer loop
      vertex 13.4622 -1.65762 0
      vertex 13.505 -1.00499 -3
      vertex 13.505 -1.00499 0
    endloop
  endfacet
  facet normal 0.997856 -0.0654402 0
    outer loop
      vertex 13.505 -1.00499 -3
      vertex 13.4622 -1.65762 0
      vertex 13.4622 -1.65762 -3
    endloop
  endfacet
  facet normal 0.980784 -0.195096 0
    outer loop
      vertex 13.3346 -2.29909 0
      vertex 13.4622 -1.65762 -3
      vertex 13.4622 -1.65762 0
    endloop
  endfacet
  facet normal 0.980784 -0.195096 0
    outer loop
      vertex 13.4622 -1.65762 -3
      vertex 13.3346 -2.29909 0
      vertex 13.3346 -2.29909 -3
    endloop
  endfacet
  facet normal -0.44229 0.896872 0
    outer loop
      vertex -10.4184 5.62439 -3
      vertex -11.005 5.33511 0
      vertex -10.4184 5.62439 0
    endloop
  endfacet
  facet normal -0.44229 0.896872 0
    outer loop
      vertex -11.005 5.33511 0
      vertex -10.4184 5.62439 -3
      vertex -11.005 5.33511 -3
    endloop
  endfacet
  facet normal -0.321457 0.946924 0
    outer loop
      vertex -9.79909 5.83463 -3
      vertex -10.4184 5.62439 0
      vertex -9.79909 5.83463 0
    endloop
  endfacet
  facet normal -0.321457 0.946924 0
    outer loop
      vertex -10.4184 5.62439 0
      vertex -9.79909 5.83463 -3
      vertex -10.4184 5.62439 -3
    endloop
  endfacet
  facet normal -0.659364 0.751824 0
    outer loop
      vertex -11.5488 4.97176 -3
      vertex -12.0405 4.54053 0
      vertex -11.5488 4.97176 0
    endloop
  endfacet
  facet normal -0.659364 0.751824 0
    outer loop
      vertex -12.0405 4.54053 0
      vertex -11.5488 4.97176 -3
      vertex -12.0405 4.54053 -3
    endloop
  endfacet
  facet normal -0.751791 0.659401 0
    outer loop
      vertex -12.4718 4.0488 -3
      vertex -12.0405 4.54053 0
      vertex -12.0405 4.54053 -3
    endloop
  endfacet
  facet normal -0.751791 0.659401 0
    outer loop
      vertex -12.0405 4.54053 0
      vertex -12.4718 4.0488 -3
      vertex -12.4718 4.0488 0
    endloop
  endfacet
  facet normal -0.751791 -0.659401 0
    outer loop
      vertex -12.0405 -4.54053 -3
      vertex -12.4718 -4.0488 0
      vertex -12.4718 -4.0488 -3
    endloop
  endfacet
  facet normal -0.751791 -0.659401 0
    outer loop
      vertex -12.4718 -4.0488 0
      vertex -12.0405 -4.54053 -3
      vertex -12.0405 -4.54053 0
    endloop
  endfacet
  facet normal -0.659364 -0.751824 0
    outer loop
      vertex -12.0405 -4.54053 -3
      vertex -11.5488 -4.97176 0
      vertex -12.0405 -4.54053 0
    endloop
  endfacet
  facet normal -0.659364 -0.751824 -0
    outer loop
      vertex -11.5488 -4.97176 0
      vertex -12.0405 -4.54053 -3
      vertex -11.5488 -4.97176 -3
    endloop
  endfacet
  facet normal -0.980784 -0.195096 0
    outer loop
      vertex -13.3346 -2.29909 -3
      vertex -13.4622 -1.65762 0
      vertex -13.4622 -1.65762 -3
    endloop
  endfacet
  facet normal -0.980784 -0.195096 0
    outer loop
      vertex -13.4622 -1.65762 0
      vertex -13.3346 -2.29909 -3
      vertex -13.3346 -2.29909 0
    endloop
  endfacet
  facet normal -0.997856 0.0654402 0
    outer loop
      vertex -13.505 1.00499 -3
      vertex -13.4622 1.65762 0
      vertex -13.4622 1.65762 -3
    endloop
  endfacet
  facet normal -0.997856 0.0654402 0
    outer loop
      vertex -13.4622 1.65762 0
      vertex -13.505 1.00499 -3
      vertex -13.505 1.00499 0
    endloop
  endfacet
  facet normal -0.321457 -0.946924 0
    outer loop
      vertex -10.4184 -5.62439 -3
      vertex -9.79909 -5.83463 0
      vertex -10.4184 -5.62439 0
    endloop
  endfacet
  facet normal -0.321457 -0.946924 -0
    outer loop
      vertex -9.79909 -5.83463 0
      vertex -10.4184 -5.62439 -3
      vertex -9.79909 -5.83463 -3
    endloop
  endfacet
  facet normal -0.0653946 -0.997859 0
    outer loop
      vertex -9.15762 -5.96222 -3
      vertex -8.50499 -6.00499 0
      vertex -9.15762 -5.96222 0
    endloop
  endfacet
  facet normal -0.0653946 -0.997859 -0
    outer loop
      vertex -8.50499 -6.00499 0
      vertex -9.15762 -5.96222 -3
      vertex -8.50499 -6.00499 -3
    endloop
  endfacet
  facet normal 1 -0 0
    outer loop
      vertex 13.505 -1.00499 0
      vertex 13.505 1.00499 -3
      vertex 13.505 1.00499 0
    endloop
  endfacet
  facet normal 1 0 0
    outer loop
      vertex 13.505 1.00499 -3
      vertex 13.505 -1.00499 0
      vertex 13.505 -1.00499 -3
    endloop
  endfacet
  facet normal 0.946944 0.321397 0
    outer loop
      vertex 13.3346 2.29909 0
      vertex 13.1244 2.91841 -3
      vertex 13.1244 2.91841 0
    endloop
  endfacet
  facet normal 0.946944 0.321397 0
    outer loop
      vertex 13.1244 2.91841 -3
      vertex 13.3346 2.29909 0
      vertex 13.3346 2.29909 -3
    endloop
  endfacet
  facet normal 0.751791 0.659401 0
    outer loop
      vertex 12.4718 4.0488 0
      vertex 12.0405 4.54053 -3
      vertex 12.0405 4.54053 0
    endloop
  endfacet
  facet normal 0.751791 0.659401 0
    outer loop
      vertex 12.0405 4.54053 -3
      vertex 12.4718 4.0488 0
      vertex 12.4718 4.0488 -3
    endloop
  endfacet
  facet normal 0.997856 0.0654402 0
    outer loop
      vertex 13.505 1.00499 0
      vertex 13.4622 1.65762 -3
      vertex 13.4622 1.65762 0
    endloop
  endfacet
  facet normal 0.997856 0.0654402 0
    outer loop
      vertex 13.4622 1.65762 -3
      vertex 13.505 1.00499 0
      vertex 13.505 1.00499 -3
    endloop
  endfacet
  facet normal 0.831514 -0.555504 0
    outer loop
      vertex 12.4718 -4.0488 0
      vertex 12.8351 -3.50499 -3
      vertex 12.8351 -3.50499 0
    endloop
  endfacet
  facet normal 0.831514 -0.555504 0
    outer loop
      vertex 12.8351 -3.50499 -3
      vertex 12.4718 -4.0488 0
      vertex 12.4718 -4.0488 -3
    endloop
  endfacet
  facet normal 0.44229 -0.896872 0
    outer loop
      vertex 10.4184 -5.62439 -3
      vertex 11.005 -5.33511 0
      vertex 10.4184 -5.62439 0
    endloop
  endfacet
  facet normal 0.44229 -0.896872 0
    outer loop
      vertex 11.005 -5.33511 0
      vertex 10.4184 -5.62439 -3
      vertex 11.005 -5.33511 -3
    endloop
  endfacet
  facet normal -0.946944 0.321397 0
    outer loop
      vertex -13.3346 2.29909 -3
      vertex -13.1244 2.91841 0
      vertex -13.1244 2.91841 -3
    endloop
  endfacet
  facet normal -0.946944 0.321397 0
    outer loop
      vertex -13.1244 2.91841 0
      vertex -13.3346 2.29909 -3
      vertex -13.3346 2.29909 0
    endloop
  endfacet
  facet normal -0.831514 0.555504 0
    outer loop
      vertex -12.8351 3.50499 -3
      vertex -12.4718 4.0488 0
      vertex -12.4718 4.0488 -3
    endloop
  endfacet
  facet normal -0.831514 0.555504 0
    outer loop
      vertex -12.4718 4.0488 0
      vertex -12.8351 3.50499 -3
      vertex -12.8351 3.50499 0
    endloop
  endfacet
  facet normal -0.896854 0.442327 0
    outer loop
      vertex -13.1244 2.91841 -3
      vertex -12.8351 3.50499 0
      vertex -12.8351 3.50499 -3
    endloop
  endfacet
  facet normal -0.896854 0.442327 0
    outer loop
      vertex -12.8351 3.50499 0
      vertex -13.1244 2.91841 -3
      vertex -13.1244 2.91841 0
    endloop
  endfacet
  facet normal -0.896854 -0.442327 0
    outer loop
      vertex -12.8351 -3.50499 -3
      vertex -13.1244 -2.91841 0
      vertex -13.1244 -2.91841 -3
    endloop
  endfacet
  facet normal -0.896854 -0.442327 0
    outer loop
      vertex -13.1244 -2.91841 0
      vertex -12.8351 -3.50499 -3
      vertex -12.8351 -3.50499 0
    endloop
  endfacet
  facet normal -0.831514 -0.555504 0
    outer loop
      vertex -12.4718 -4.0488 -3
      vertex -12.8351 -3.50499 0
      vertex -12.8351 -3.50499 -3
    endloop
  endfacet
  facet normal -0.831514 -0.555504 0
    outer loop
      vertex -12.8351 -3.50499 0
      vertex -12.4718 -4.0488 -3
      vertex -12.4718 -4.0488 0
    endloop
  endfacet
  facet normal -0.555564 -0.831474 0
    outer loop
      vertex -11.5488 -4.97176 -3
      vertex -11.005 -5.33511 0
      vertex -11.5488 -4.97176 0
    endloop
  endfacet
  facet normal -0.555564 -0.831474 -0
    outer loop
      vertex -11.005 -5.33511 0
      vertex -11.5488 -4.97176 -3
      vertex -11.005 -5.33511 -3
    endloop
  endfacet
  facet normal 0 0 -1
    outer loop
      vertex 10.6393 -0.841162 -3
      vertex 13.505 -1.00499 -3
      vertex 13.4622 -1.65762 -3
    endloop
  endfacet
  facet normal 0 0 -1
    outer loop
      vertex 13.505 -1.00499 -3
      vertex 10.75 0 -3
      vertex 13.505 1.00499 -3
    endloop
  endfacet
  facet normal 0 0 -1
    outer loop
      vertex 10.5026 -1.24372 -3
      vertex 13.4622 -1.65762 -3
      vertex 13.3346 -2.29909 -3
    endloop
  endfacet
  facet normal 0 0 -1
    outer loop
      vertex 10.7222 0.42421 -3
      vertex 13.505 1.00499 -3
      vertex 10.75 0 -3
    endloop
  endfacet
  facet normal 0 0 -1
    outer loop
      vertex 10.5026 -1.24372 -3
      vertex 13.3346 -2.29909 -3
      vertex 13.1244 -2.91841 -3
    endloop
  endfacet
  facet normal 0 0 -1
    outer loop
      vertex 10.6393 0.841162 -3
      vertex 13.505 1.00499 -3
      vertex 10.7222 0.42421 -3
    endloop
  endfacet
  facet normal 0 0 -1
    outer loop
      vertex 10.3146 -1.625 -3
      vertex 13.1244 -2.91841 -3
      vertex 12.8351 -3.50499 -3
    endloop
  endfacet
  facet normal -0 0 -1
    outer loop
      vertex 13.505 1.00499 -3
      vertex 10.6393 0.841162 -3
      vertex 13.4622 1.65762 -3
    endloop
  endfacet
  facet normal 0 0 -1
    outer loop
      vertex 10.0784 -1.97847 -3
      vertex 12.8351 -3.50499 -3
      vertex 12.4718 -4.0488 -3
    endloop
  endfacet
  facet normal 0 0 -1
    outer loop
      vertex 10.5026 1.24372 -3
      vertex 13.4622 1.65762 -3
      vertex 10.6393 0.841162 -3
    endloop
  endfacet
  facet normal 0 0 -1
    outer loop
      vertex 9.7981 -2.2981 -3
      vertex 12.4718 -4.0488 -3
      vertex 12.0405 -4.54053 -3
    endloop
  endfacet
  facet normal -0 0 -1
    outer loop
      vertex 13.4622 1.65762 -3
      vertex 10.5026 1.24372 -3
      vertex 13.3346 2.29909 -3
    endloop
  endfacet
  facet normal 0 0 -1
    outer loop
      vertex 9.7981 -2.2981 -3
      vertex 12.0405 -4.54053 -3
      vertex 11.5488 -4.97176 -3
    endloop
  endfacet
  facet normal -0 0 -1
    outer loop
      vertex 13.3346 2.29909 -3
      vertex 10.5026 1.24372 -3
      vertex 13.1244 2.91841 -3
    endloop
  endfacet
  facet normal 0 0 -1
    outer loop
      vertex 9.47847 -2.5784 -3
      vertex 11.5488 -4.97176 -3
      vertex 11.005 -5.33511 -3
    endloop
  endfacet
  facet normal 0 0 -1
    outer loop
      vertex 10.3146 1.625 -3
      vertex 13.1244 2.91841 -3
      vertex 10.5026 1.24372 -3
    endloop
  endfacet
  facet normal -0 0 -1
    outer loop
      vertex 13.1244 2.91841 -3
      vertex 10.3146 1.625 -3
      vertex 12.8351 3.50499 -3
    endloop
  endfacet
  facet normal 0 0 -1
    outer loop
      vertex 13.505 -1.00499 -3
      vertex 10.7222 -0.42421 -3
      vertex 10.75 0 -3
    endloop
  endfacet
  facet normal 0 0 -1
    outer loop
      vertex 13.505 -1.00499 -3
      vertex 10.6393 -0.841162 -3
      vertex 10.7222 -0.42421 -3
    endloop
  endfacet
  facet normal 0 0 -1
    outer loop
      vertex 13.4622 -1.65762 -3
      vertex 10.5026 -1.24372 -3
      vertex 10.6393 -0.841162 -3
    endloop
  endfacet
  facet normal 0 0 -1
    outer loop
      vertex 9.125 -2.81458 -3
      vertex 11.005 -5.33511 -3
      vertex 10.4184 -5.62439 -3
    endloop
  endfacet
  facet normal 0 0 -1
    outer loop
      vertex 13.1244 -2.91841 -3
      vertex 10.3146 -1.625 -3
      vertex 10.5026 -1.24372 -3
    endloop
  endfacet
  facet normal 0 0 -1
    outer loop
      vertex 12.8351 -3.50499 -3
      vertex 10.0784 -1.97847 -3
      vertex 10.3146 -1.625 -3
    endloop
  endfacet
  facet normal 0 0 -1
    outer loop
      vertex 9.125 -2.81458 -3
      vertex 10.4184 -5.62439 -3
      vertex 9.79909 -5.83463 -3
    endloop
  endfacet
  facet normal 0 0 -1
    outer loop
      vertex 12.4718 -4.0488 -3
      vertex 9.7981 -2.2981 -3
      vertex 10.0784 -1.97847 -3
    endloop
  endfacet
  facet normal 0 0 -1
    outer loop
      vertex 11.5488 -4.97176 -3
      vertex 9.47847 -2.5784 -3
      vertex 9.7981 -2.2981 -3
    endloop
  endfacet
  facet normal 0 0 -1
    outer loop
      vertex 8.74372 -3.00261 -3
      vertex 9.79909 -5.83463 -3
      vertex 9.15762 -5.96222 -3
    endloop
  endfacet
  facet normal 0 0 -1
    outer loop
      vertex 11.005 -5.33511 -3
      vertex 9.125 -2.81458 -3
      vertex 9.47847 -2.5784 -3
    endloop
  endfacet
  facet normal 0 0 -1
    outer loop
      vertex 9.79909 -5.83463 -3
      vertex 8.74372 -3.00261 -3
      vertex 9.125 -2.81458 -3
    endloop
  endfacet
  facet normal 0 0 -1
    outer loop
      vertex 8.34116 -3.13926 -3
      vertex 9.15762 -5.96222 -3
      vertex 8.50499 -6.00499 -3
    endloop
  endfacet
  facet normal 0 0 -1
    outer loop
      vertex 9.15762 -5.96222 -3
      vertex 8.34116 -3.13926 -3
      vertex 8.74372 -3.00261 -3
    endloop
  endfacet
  facet normal 0 0 -1
    outer loop
      vertex 8.50499 -6.00499 -3
      vertex 7.92421 -3.2222 -3
      vertex 8.34116 -3.13926 -3
    endloop
  endfacet
  facet normal 0 0 -1
    outer loop
      vertex 8.50499 -6.00499 -3
      vertex 7.5 -3.25 -3
      vertex 7.92421 -3.2222 -3
    endloop
  endfacet
  facet normal 0 0 -1
    outer loop
      vertex 8.50499 -6.00499 -3
      vertex 7.07579 -3.2222 -3
      vertex 7.5 -3.25 -3
    endloop
  endfacet
  facet normal 0 0 -1
    outer loop
      vertex 8.50499 -6.00499 -3
      vertex 6.65884 -3.13926 -3
      vertex 7.07579 -3.2222 -3
    endloop
  endfacet
  facet normal 0 0 -1
    outer loop
      vertex 8.50499 -6.00499 -3
      vertex 6.25628 -3.00261 -3
      vertex 6.65884 -3.13926 -3
    endloop
  endfacet
  facet normal 0 0 -1
    outer loop
      vertex 8.50499 -6.00499 -3
      vertex 5.875 -2.81458 -3
      vertex 6.25628 -3.00261 -3
    endloop
  endfacet
  facet normal 0 0 -1
    outer loop
      vertex 8.50499 -6.00499 -3
      vertex 5.52152 -2.5784 -3
      vertex 5.875 -2.81458 -3
    endloop
  endfacet
  facet normal 0 0 -1
    outer loop
      vertex -5.52152 -2.5784 -3
      vertex 5.52152 -2.5784 -3
      vertex 8.50499 -6.00499 -3
    endloop
  endfacet
  facet normal 0 0 -1
    outer loop
      vertex 4.2778 -0.42421 -3
      vertex -4.25 0 -3
      vertex 4.25 0 -3
    endloop
  endfacet
  facet normal 0 0 -1
    outer loop
      vertex -4.2778 -0.42421 -3
      vertex 4.2778 -0.42421 -3
      vertex 4.36074 -0.841162 -3
    endloop
  endfacet
  facet normal 0 0 -1
    outer loop
      vertex -4.36074 -0.841162 -3
      vertex 4.36074 -0.841162 -3
      vertex 4.49739 -1.24372 -3
    endloop
  endfacet
  facet normal 0 0 -1
    outer loop
      vertex -4.49739 -1.24372 -3
      vertex 4.49739 -1.24372 -3
      vertex 4.68542 -1.625 -3
    endloop
  endfacet
  facet normal 0 0 -1
    outer loop
      vertex -4.68542 -1.625 -3
      vertex 4.68542 -1.625 -3
      vertex 4.9216 -1.97847 -3
    endloop
  endfacet
  facet normal 0 0 -1
    outer loop
      vertex -4.9216 -1.97847 -3
      vertex 4.9216 -1.97847 -3
      vertex 5.2019 -2.2981 -3
    endloop
  endfacet
  facet normal 0 0 -1
    outer loop
      vertex 5.52152 -2.5784 -3
      vertex -5.52152 -2.5784 -3
      vertex 5.2019 -2.2981 -3
    endloop
  endfacet
  facet normal 0 0 -1
    outer loop
      vertex 4.2778 -0.42421 -3
      vertex -4.2778 -0.42421 -3
      vertex -4.25 0 -3
    endloop
  endfacet
  facet normal 0 0 -1
    outer loop
      vertex 4.36074 -0.841162 -3
      vertex -4.36074 -0.841162 -3
      vertex -4.2778 -0.42421 -3
    endloop
  endfacet
  facet normal 0 0 -1
    outer loop
      vertex 4.49739 -1.24372 -3
      vertex -4.49739 -1.24372 -3
      vertex -4.36074 -0.841162 -3
    endloop
  endfacet
  facet normal 0 0 -1
    outer loop
      vertex 4.68542 -1.625 -3
      vertex -4.68542 -1.625 -3
      vertex -4.49739 -1.24372 -3
    endloop
  endfacet
  facet normal 0 0 -1
    outer loop
      vertex 4.9216 -1.97847 -3
      vertex -4.9216 -1.97847 -3
      vertex -4.68542 -1.625 -3
    endloop
  endfacet
  facet normal 0 0 -1
    outer loop
      vertex 5.2019 -2.2981 -3
      vertex -5.2019 -2.2981 -3
      vertex -4.9216 -1.97847 -3
    endloop
  endfacet
  facet normal -0 0 -1
    outer loop
      vertex 5.2019 -2.2981 -3
      vertex -5.52152 -2.5784 -3
      vertex -5.2019 -2.2981 -3
    endloop
  endfacet
  facet normal 0 0 -1
    outer loop
      vertex -8.50499 -6.00499 -3
      vertex -5.52152 -2.5784 -3
      vertex 8.50499 -6.00499 -3
    endloop
  endfacet
  facet normal 0 0 -1
    outer loop
      vertex -5.52152 -2.5784 -3
      vertex -8.50499 -6.00499 -3
      vertex -5.875 -2.81458 -3
    endloop
  endfacet
  facet normal 0 0 -1
    outer loop
      vertex -5.875 -2.81458 -3
      vertex -8.50499 -6.00499 -3
      vertex -6.25628 -3.00261 -3
    endloop
  endfacet
  facet normal 0 0 -1
    outer loop
      vertex -6.25628 -3.00261 -3
      vertex -8.50499 -6.00499 -3
      vertex -6.65884 -3.13926 -3
    endloop
  endfacet
  facet normal 0 0 -1
    outer loop
      vertex -6.65884 -3.13926 -3
      vertex -8.50499 -6.00499 -3
      vertex -7.07579 -3.2222 -3
    endloop
  endfacet
  facet normal 0 0 -1
    outer loop
      vertex -7.07579 -3.2222 -3
      vertex -8.50499 -6.00499 -3
      vertex -7.5 -3.25 -3
    endloop
  endfacet
  facet normal -0 0 -1
    outer loop
      vertex -7.5 -3.25 -3
      vertex -8.50499 -6.00499 -3
      vertex -7.92421 -3.2222 -3
    endloop
  endfacet
  facet normal 0 0 -1
    outer loop
      vertex -8.50499 -6.00499 -3
      vertex -8.34116 -3.13926 -3
      vertex -7.92421 -3.2222 -3
    endloop
  endfacet
  facet normal 0 0 -1
    outer loop
      vertex -9.15762 -5.96222 -3
      vertex -8.34116 -3.13926 -3
      vertex -8.50499 -6.00499 -3
    endloop
  endfacet
  facet normal -0 0 -1
    outer loop
      vertex -8.34116 -3.13926 -3
      vertex -9.15762 -5.96222 -3
      vertex -8.74372 -3.00261 -3
    endloop
  endfacet
  facet normal 0 0 -1
    outer loop
      vertex -9.79909 -5.83463 -3
      vertex -8.74372 -3.00261 -3
      vertex -9.15762 -5.96222 -3
    endloop
  endfacet
  facet normal -0 0 -1
    outer loop
      vertex -8.74372 -3.00261 -3
      vertex -9.79909 -5.83463 -3
      vertex -9.125 -2.81458 -3
    endloop
  endfacet
  facet normal 0 0 -1
    outer loop
      vertex -10.4184 -5.62439 -3
      vertex -9.125 -2.81458 -3
      vertex -9.79909 -5.83463 -3
    endloop
  endfacet
  facet normal 0 0 -1
    outer loop
      vertex -11.005 -5.33511 -3
      vertex -9.125 -2.81458 -3
      vertex -10.4184 -5.62439 -3
    endloop
  endfacet
  facet normal -0 0 -1
    outer loop
      vertex -9.125 -2.81458 -3
      vertex -11.005 -5.33511 -3
      vertex -9.47847 -2.5784 -3
    endloop
  endfacet
  facet normal 0 0 -1
    outer loop
      vertex -11.5488 -4.97176 -3
      vertex -9.47847 -2.5784 -3
      vertex -11.005 -5.33511 -3
    endloop
  endfacet
  facet normal -0 0 -1
    outer loop
      vertex -9.47847 -2.5784 -3
      vertex -11.5488 -4.97176 -3
      vertex -9.7981 -2.2981 -3
    endloop
  endfacet
  facet normal 0 0 -1
    outer loop
      vertex -12.0405 -4.54053 -3
      vertex -9.7981 -2.2981 -3
      vertex -11.5488 -4.97176 -3
    endloop
  endfacet
  facet normal 0 0 -1
    outer loop
      vertex -12.4718 -4.0488 -3
      vertex -9.7981 -2.2981 -3
      vertex -12.0405 -4.54053 -3
    endloop
  endfacet
  facet normal -0 0 -1
    outer loop
      vertex -9.7981 -2.2981 -3
      vertex -12.4718 -4.0488 -3
      vertex -10.0784 -1.97847 -3
    endloop
  endfacet
  facet normal 0 0 -1
    outer loop
      vertex -12.8351 -3.50499 -3
      vertex -10.0784 -1.97847 -3
      vertex -12.4718 -4.0488 -3
    endloop
  endfacet
  facet normal -0 0 -1
    outer loop
      vertex -10.0784 -1.97847 -3
      vertex -12.8351 -3.50499 -3
      vertex -10.3146 -1.625 -3
    endloop
  endfacet
  facet normal 0 0 -1
    outer loop
      vertex 10.0784 1.97847 -3
      vertex 12.8351 3.50499 -3
      vertex 10.3146 1.625 -3
    endloop
  endfacet
  facet normal -0 0 -1
    outer loop
      vertex 12.8351 3.50499 -3
      vertex 10.0784 1.97847 -3
      vertex 12.4718 4.0488 -3
    endloop
  endfacet
  facet normal 0 0 -1
    outer loop
      vertex 9.7981 2.2981 -3
      vertex 12.4718 4.0488 -3
      vertex 10.0784 1.97847 -3
    endloop
  endfacet
  facet normal -0 0 -1
    outer loop
      vertex 12.4718 4.0488 -3
      vertex 9.7981 2.2981 -3
      vertex 12.0405 4.54053 -3
    endloop
  endfacet
  facet normal -0 0 -1
    outer loop
      vertex 12.0405 4.54053 -3
      vertex 9.7981 2.2981 -3
      vertex 11.5488 4.97176 -3
    endloop
  endfacet
  facet normal 0 0 -1
    outer loop
      vertex 9.47847 2.5784 -3
      vertex 11.5488 4.97176 -3
      vertex 9.7981 2.2981 -3
    endloop
  endfacet
  facet normal -0 0 -1
    outer loop
      vertex 11.5488 4.97176 -3
      vertex 9.47847 2.5784 -3
      vertex 11.005 5.33511 -3
    endloop
  endfacet
  facet normal 0 0 -1
    outer loop
      vertex 9.125 2.81458 -3
      vertex 11.005 5.33511 -3
      vertex 9.47847 2.5784 -3
    endloop
  endfacet
  facet normal -0 0 -1
    outer loop
      vertex 11.005 5.33511 -3
      vertex 9.125 2.81458 -3
      vertex 10.4184 5.62439 -3
    endloop
  endfacet
  facet normal -0 0 -1
    outer loop
      vertex 10.4184 5.62439 -3
      vertex 9.125 2.81458 -3
      vertex 9.79909 5.83463 -3
    endloop
  endfacet
  facet normal 0 0 -1
    outer loop
      vertex 8.74372 3.00261 -3
      vertex 9.79909 5.83463 -3
      vertex 9.125 2.81458 -3
    endloop
  endfacet
  facet normal -0 0 -1
    outer loop
      vertex 9.79909 5.83463 -3
      vertex 8.74372 3.00261 -3
      vertex 9.15762 5.96222 -3
    endloop
  endfacet
  facet normal 0 0 -1
    outer loop
      vertex 8.34116 3.13926 -3
      vertex 9.15762 5.96222 -3
      vertex 8.74372 3.00261 -3
    endloop
  endfacet
  facet normal -0 0 -1
    outer loop
      vertex 9.15762 5.96222 -3
      vertex 8.34116 3.13926 -3
      vertex 8.50499 6.00499 -3
    endloop
  endfacet
  facet normal 0 0 -1
    outer loop
      vertex 7.92421 3.2222 -3
      vertex 8.50499 6.00499 -3
      vertex 8.34116 3.13926 -3
    endloop
  endfacet
  facet normal 0 0 -1
    outer loop
      vertex 7.5 3.25 -3
      vertex 8.50499 6.00499 -3
      vertex 7.92421 3.2222 -3
    endloop
  endfacet
  facet normal 0 0 -1
    outer loop
      vertex 7.07579 3.2222 -3
      vertex 8.50499 6.00499 -3
      vertex 7.5 3.25 -3
    endloop
  endfacet
  facet normal 0 0 -1
    outer loop
      vertex 6.65884 3.13926 -3
      vertex 8.50499 6.00499 -3
      vertex 7.07579 3.2222 -3
    endloop
  endfacet
  facet normal 0 0 -1
    outer loop
      vertex 6.25628 3.00261 -3
      vertex 8.50499 6.00499 -3
      vertex 6.65884 3.13926 -3
    endloop
  endfacet
  facet normal 0 0 -1
    outer loop
      vertex 5.875 2.81458 -3
      vertex 8.50499 6.00499 -3
      vertex 6.25628 3.00261 -3
    endloop
  endfacet
  facet normal 0 0 -1
    outer loop
      vertex 5.52152 2.5784 -3
      vertex 8.50499 6.00499 -3
      vertex 5.875 2.81458 -3
    endloop
  endfacet
  facet normal 0 0 -1
    outer loop
      vertex -5.52152 2.5784 -3
      vertex 5.52152 2.5784 -3
      vertex 5.2019 2.2981 -3
    endloop
  endfacet
  facet normal 0 0 -1
    outer loop
      vertex -4.25 0 -3
      vertex 4.2778 0.42421 -3
      vertex 4.25 0 -3
    endloop
  endfacet
  facet normal 0 0 -1
    outer loop
      vertex -4.2778 0.42421 -3
      vertex 4.2778 0.42421 -3
      vertex -4.25 0 -3
    endloop
  endfacet
  facet normal 0 0 -1
    outer loop
      vertex 4.2778 0.42421 -3
      vertex -4.2778 0.42421 -3
      vertex 4.36074 0.841162 -3
    endloop
  endfacet
  facet normal 0 0 -1
    outer loop
      vertex -4.36074 0.841162 -3
      vertex 4.36074 0.841162 -3
      vertex -4.2778 0.42421 -3
    endloop
  endfacet
  facet normal 0 0 -1
    outer loop
      vertex 4.36074 0.841162 -3
      vertex -4.36074 0.841162 -3
      vertex 4.49739 1.24372 -3
    endloop
  endfacet
  facet normal 0 0 -1
    outer loop
      vertex -4.49739 1.24372 -3
      vertex 4.49739 1.24372 -3
      vertex -4.36074 0.841162 -3
    endloop
  endfacet
  facet normal 0 0 -1
    outer loop
      vertex 4.49739 1.24372 -3
      vertex -4.49739 1.24372 -3
      vertex 4.68542 1.625 -3
    endloop
  endfacet
  facet normal 0 0 -1
    outer loop
      vertex -4.68542 1.625 -3
      vertex 4.68542 1.625 -3
      vertex -4.49739 1.24372 -3
    endloop
  endfacet
  facet normal 0 0 -1
    outer loop
      vertex 4.68542 1.625 -3
      vertex -4.68542 1.625 -3
      vertex 4.9216 1.97847 -3
    endloop
  endfacet
  facet normal 0 0 -1
    outer loop
      vertex -4.9216 1.97847 -3
      vertex 4.9216 1.97847 -3
      vertex -4.68542 1.625 -3
    endloop
  endfacet
  facet normal 0 0 -1
    outer loop
      vertex 4.9216 1.97847 -3
      vertex -4.9216 1.97847 -3
      vertex 5.2019 2.2981 -3
    endloop
  endfacet
  facet normal 0 0 -1
    outer loop
      vertex -5.2019 2.2981 -3
      vertex 5.2019 2.2981 -3
      vertex -4.9216 1.97847 -3
    endloop
  endfacet
  facet normal 0 0 -1
    outer loop
      vertex -5.52152 2.5784 -3
      vertex 5.2019 2.2981 -3
      vertex -5.2019 2.2981 -3
    endloop
  endfacet
  facet normal 0 0 -1
    outer loop
      vertex 5.52152 2.5784 -3
      vertex -5.52152 2.5784 -3
      vertex 8.50499 6.00499 -3
    endloop
  endfacet
  facet normal 0 0 -1
    outer loop
      vertex -8.50499 6.00499 -3
      vertex -5.52152 2.5784 -3
      vertex -5.875 2.81458 -3
    endloop
  endfacet
  facet normal 0 0 -1
    outer loop
      vertex -8.50499 6.00499 -3
      vertex -5.875 2.81458 -3
      vertex -6.25628 3.00261 -3
    endloop
  endfacet
  facet normal 0 0 -1
    outer loop
      vertex -8.50499 6.00499 -3
      vertex -6.25628 3.00261 -3
      vertex -6.65884 3.13926 -3
    endloop
  endfacet
  facet normal 0 0 -1
    outer loop
      vertex -8.50499 6.00499 -3
      vertex -6.65884 3.13926 -3
      vertex -7.07579 3.2222 -3
    endloop
  endfacet
  facet normal 0 0 -1
    outer loop
      vertex -8.50499 6.00499 -3
      vertex -7.07579 3.2222 -3
      vertex -7.5 3.25 -3
    endloop
  endfacet
  facet normal 0 0 -1
    outer loop
      vertex -8.50499 6.00499 -3
      vertex -7.5 3.25 -3
      vertex -7.92421 3.2222 -3
    endloop
  endfacet
  facet normal 0 0 -1
    outer loop
      vertex -5.52152 2.5784 -3
      vertex -8.50499 6.00499 -3
      vertex 8.50499 6.00499 -3
    endloop
  endfacet
  facet normal 0 0 -1
    outer loop
      vertex -8.34116 3.13926 -3
      vertex -8.50499 6.00499 -3
      vertex -7.92421 3.2222 -3
    endloop
  endfacet
  facet normal 0 0 -1
    outer loop
      vertex -9.15762 5.96222 -3
      vertex -8.34116 3.13926 -3
      vertex -8.74372 3.00261 -3
    endloop
  endfacet
  facet normal 0 0 -1
    outer loop
      vertex -9.79909 5.83463 -3
      vertex -8.74372 3.00261 -3
      vertex -9.125 2.81458 -3
    endloop
  endfacet
  facet normal 0 0 -1
    outer loop
      vertex -8.34116 3.13926 -3
      vertex -9.15762 5.96222 -3
      vertex -8.50499 6.00499 -3
    endloop
  endfacet
  facet normal 0 0 -1
    outer loop
      vertex -11.005 5.33511 -3
      vertex -9.125 2.81458 -3
      vertex -9.47847 2.5784 -3
    endloop
  endfacet
  facet normal 0 0 -1
    outer loop
      vertex -11.5488 4.97176 -3
      vertex -9.47847 2.5784 -3
      vertex -9.7981 2.2981 -3
    endloop
  endfacet
  facet normal 0 0 -1
    outer loop
      vertex -8.74372 3.00261 -3
      vertex -9.79909 5.83463 -3
      vertex -9.15762 5.96222 -3
    endloop
  endfacet
  facet normal 0 0 -1
    outer loop
      vertex -12.4718 4.0488 -3
      vertex -9.7981 2.2981 -3
      vertex -10.0784 1.97847 -3
    endloop
  endfacet
  facet normal 0 0 -1
    outer loop
      vertex -12.8351 3.50499 -3
      vertex -10.0784 1.97847 -3
      vertex -10.3146 1.625 -3
    endloop
  endfacet
  facet normal 0 0 -1
    outer loop
      vertex -9.125 2.81458 -3
      vertex -10.4184 5.62439 -3
      vertex -9.79909 5.83463 -3
    endloop
  endfacet
  facet normal 0 0 -1
    outer loop
      vertex -13.1244 2.91841 -3
      vertex -10.3146 1.625 -3
      vertex -10.5026 1.24372 -3
    endloop
  endfacet
  facet normal 0 0 -1
    outer loop
      vertex -13.4622 1.65762 -3
      vertex -10.5026 1.24372 -3
      vertex -10.6393 0.841162 -3
    endloop
  endfacet
  facet normal 0 0 -1
    outer loop
      vertex -13.505 1.00499 -3
      vertex -10.6393 0.841162 -3
      vertex -10.7222 0.42421 -3
    endloop
  endfacet
  facet normal 0 0 -1
    outer loop
      vertex -13.505 1.00499 -3
      vertex -10.7222 0.42421 -3
      vertex -10.75 0 -3
    endloop
  endfacet
  facet normal 0 0 -1
    outer loop
      vertex -9.125 2.81458 -3
      vertex -11.005 5.33511 -3
      vertex -10.4184 5.62439 -3
    endloop
  endfacet
  facet normal 0 0 -1
    outer loop
      vertex -13.1244 -2.91841 -3
      vertex -10.3146 -1.625 -3
      vertex -12.8351 -3.50499 -3
    endloop
  endfacet
  facet normal -0 0 -1
    outer loop
      vertex -10.3146 -1.625 -3
      vertex -13.1244 -2.91841 -3
      vertex -10.5026 -1.24372 -3
    endloop
  endfacet
  facet normal 0 0 -1
    outer loop
      vertex -13.505 1.00499 -3
      vertex -10.75 0 -3
      vertex -13.505 -1.00499 -3
    endloop
  endfacet
  facet normal 0 0 -1
    outer loop
      vertex -13.3346 -2.29909 -3
      vertex -10.5026 -1.24372 -3
      vertex -13.1244 -2.91841 -3
    endloop
  endfacet
  facet normal 0 0 -1
    outer loop
      vertex -10.6393 0.841162 -3
      vertex -13.505 1.00499 -3
      vertex -13.4622 1.65762 -3
    endloop
  endfacet
  facet normal 0 0 -1
    outer loop
      vertex -13.4622 -1.65762 -3
      vertex -10.5026 -1.24372 -3
      vertex -13.3346 -2.29909 -3
    endloop
  endfacet
  facet normal 0 0 -1
    outer loop
      vertex -9.47847 2.5784 -3
      vertex -11.5488 4.97176 -3
      vertex -11.005 5.33511 -3
    endloop
  endfacet
  facet normal -0 0 -1
    outer loop
      vertex -10.5026 -1.24372 -3
      vertex -13.4622 -1.65762 -3
      vertex -10.6393 -0.841162 -3
    endloop
  endfacet
  facet normal 0 0 -1
    outer loop
      vertex -9.7981 2.2981 -3
      vertex -12.0405 4.54053 -3
      vertex -11.5488 4.97176 -3
    endloop
  endfacet
  facet normal 0 0 -1
    outer loop
      vertex -13.505 -1.00499 -3
      vertex -10.6393 -0.841162 -3
      vertex -13.4622 -1.65762 -3
    endloop
  endfacet
  facet normal 0 0 -1
    outer loop
      vertex -9.7981 2.2981 -3
      vertex -12.4718 4.0488 -3
      vertex -12.0405 4.54053 -3
    endloop
  endfacet
  facet normal -0 0 -1
    outer loop
      vertex -10.6393 -0.841162 -3
      vertex -13.505 -1.00499 -3
      vertex -10.7222 -0.42421 -3
    endloop
  endfacet
  facet normal 0 0 -1
    outer loop
      vertex -10.0784 1.97847 -3
      vertex -12.8351 3.50499 -3
      vertex -12.4718 4.0488 -3
    endloop
  endfacet
  facet normal -0 0 -1
    outer loop
      vertex -10.7222 -0.42421 -3
      vertex -13.505 -1.00499 -3
      vertex -10.75 0 -3
    endloop
  endfacet
  facet normal 0 0 -1
    outer loop
      vertex -10.3146 1.625 -3
      vertex -13.1244 2.91841 -3
      vertex -12.8351 3.50499 -3
    endloop
  endfacet
  facet normal 0 0 -1
    outer loop
      vertex -10.5026 1.24372 -3
      vertex -13.3346 2.29909 -3
      vertex -13.1244 2.91841 -3
    endloop
  endfacet
  facet normal 0 0 -1
    outer loop
      vertex -10.5026 1.24372 -3
      vertex -13.4622 1.65762 -3
      vertex -13.3346 2.29909 -3
    endloop
  endfacet
  facet normal -1 0 0
    outer loop
      vertex -13.505 -1.00499 -3
      vertex -13.505 1.00499 0
      vertex -13.505 1.00499 -3
    endloop
  endfacet
  facet normal -1 -0 0
    outer loop
      vertex -13.505 1.00499 0
      vertex -13.505 -1.00499 -3
      vertex -13.505 -1.00499 0
    endloop
  endfacet
  facet normal 0 0 1
    outer loop
      vertex 10.6393 0.841162 0
      vertex 13.505 1.00499 0
      vertex 13.4622 1.65762 0
    endloop
  endfacet
  facet normal 0 0 1
    outer loop
      vertex 13.505 1.00499 0
      vertex 10.75 0 0
      vertex 13.505 -1.00499 0
    endloop
  endfacet
  facet normal 0 0 1
    outer loop
      vertex 10.5026 1.24372 0
      vertex 13.4622 1.65762 0
      vertex 13.3346 2.29909 0
    endloop
  endfacet
  facet normal -0 0 1
    outer loop
      vertex 10.7222 -0.42421 0
      vertex 13.505 -1.00499 0
      vertex 10.75 0 0
    endloop
  endfacet
  facet normal 0 0 1
    outer loop
      vertex 10.5026 1.24372 0
      vertex 13.3346 2.29909 0
      vertex 13.1244 2.91841 0
    endloop
  endfacet
  facet normal -0 0 1
    outer loop
      vertex 10.6393 -0.841162 0
      vertex 13.505 -1.00499 0
      vertex 10.7222 -0.42421 0
    endloop
  endfacet
  facet normal 0 0 1
    outer loop
      vertex 10.3146 1.625 0
      vertex 13.1244 2.91841 0
      vertex 12.8351 3.50499 0
    endloop
  endfacet
  facet normal 0 0 1
    outer loop
      vertex 13.505 -1.00499 0
      vertex 10.6393 -0.841162 0
      vertex 13.4622 -1.65762 0
    endloop
  endfacet
  facet normal 0 0 1
    outer loop
      vertex 10.0784 1.97847 0
      vertex 12.8351 3.50499 0
      vertex 12.4718 4.0488 0
    endloop
  endfacet
  facet normal -0 0 1
    outer loop
      vertex 10.5026 -1.24372 0
      vertex 13.4622 -1.65762 0
      vertex 10.6393 -0.841162 0
    endloop
  endfacet
  facet normal 0 0 1
    outer loop
      vertex 9.7981 2.2981 0
      vertex 12.4718 4.0488 0
      vertex 12.0405 4.54053 0
    endloop
  endfacet
  facet normal 0 0 1
    outer loop
      vertex 13.4622 -1.65762 0
      vertex 10.5026 -1.24372 0
      vertex 13.3346 -2.29909 0
    endloop
  endfacet
  facet normal 0 0 1
    outer loop
      vertex 9.7981 2.2981 0
      vertex 12.0405 4.54053 0
      vertex 11.5488 4.97176 0
    endloop
  endfacet
  facet normal 0 0 1
    outer loop
      vertex 13.3346 -2.29909 0
      vertex 10.5026 -1.24372 0
      vertex 13.1244 -2.91841 0
    endloop
  endfacet
  facet normal 0 0 1
    outer loop
      vertex 9.47847 2.5784 0
      vertex 11.5488 4.97176 0
      vertex 11.005 5.33511 0
    endloop
  endfacet
  facet normal -0 0 1
    outer loop
      vertex 10.3146 -1.625 0
      vertex 13.1244 -2.91841 0
      vertex 10.5026 -1.24372 0
    endloop
  endfacet
  facet normal 0 0 1
    outer loop
      vertex 13.1244 -2.91841 0
      vertex 10.3146 -1.625 0
      vertex 12.8351 -3.50499 0
    endloop
  endfacet
  facet normal 0 0 1
    outer loop
      vertex 13.505 1.00499 0
      vertex 10.7222 0.42421 0
      vertex 10.75 0 0
    endloop
  endfacet
  facet normal 0 0 1
    outer loop
      vertex 13.505 1.00499 0
      vertex 10.6393 0.841162 0
      vertex 10.7222 0.42421 0
    endloop
  endfacet
  facet normal 0 0 1
    outer loop
      vertex 13.4622 1.65762 0
      vertex 10.5026 1.24372 0
      vertex 10.6393 0.841162 0
    endloop
  endfacet
  facet normal 0 0 1
    outer loop
      vertex 9.125 2.81458 0
      vertex 11.005 5.33511 0
      vertex 10.4184 5.62439 0
    endloop
  endfacet
  facet normal 0 0 1
    outer loop
      vertex 13.1244 2.91841 0
      vertex 10.3146 1.625 0
      vertex 10.5026 1.24372 0
    endloop
  endfacet
  facet normal 0 0 1
    outer loop
      vertex 12.8351 3.50499 0
      vertex 10.0784 1.97847 0
      vertex 10.3146 1.625 0
    endloop
  endfacet
  facet normal 0 0 1
    outer loop
      vertex 9.125 2.81458 0
      vertex 10.4184 5.62439 0
      vertex 9.79909 5.83463 0
    endloop
  endfacet
  facet normal 0 0 1
    outer loop
      vertex 12.4718 4.0488 0
      vertex 9.7981 2.2981 0
      vertex 10.0784 1.97847 0
    endloop
  endfacet
  facet normal 0 0 1
    outer loop
      vertex 11.5488 4.97176 0
      vertex 9.47847 2.5784 0
      vertex 9.7981 2.2981 0
    endloop
  endfacet
  facet normal 0 0 1
    outer loop
      vertex 8.74372 3.00261 0
      vertex 9.79909 5.83463 0
      vertex 9.15762 5.96222 0
    endloop
  endfacet
  facet normal 0 0 1
    outer loop
      vertex 11.005 5.33511 0
      vertex 9.125 2.81458 0
      vertex 9.47847 2.5784 0
    endloop
  endfacet
  facet normal 0 0 1
    outer loop
      vertex 9.79909 5.83463 0
      vertex 8.74372 3.00261 0
      vertex 9.125 2.81458 0
    endloop
  endfacet
  facet normal 0 0 1
    outer loop
      vertex 8.34116 3.13926 0
      vertex 9.15762 5.96222 0
      vertex 8.50499 6.00499 0
    endloop
  endfacet
  facet normal 0 0 1
    outer loop
      vertex 9.15762 5.96222 0
      vertex 8.34116 3.13926 0
      vertex 8.74372 3.00261 0
    endloop
  endfacet
  facet normal 0 0 1
    outer loop
      vertex 8.50499 6.00499 0
      vertex 7.92421 3.2222 0
      vertex 8.34116 3.13926 0
    endloop
  endfacet
  facet normal 0 0 1
    outer loop
      vertex 8.50499 6.00499 0
      vertex 7.5 3.25 0
      vertex 7.92421 3.2222 0
    endloop
  endfacet
  facet normal 0 0 1
    outer loop
      vertex 8.50499 6.00499 0
      vertex 7.07579 3.2222 0
      vertex 7.5 3.25 0
    endloop
  endfacet
  facet normal 0 0 1
    outer loop
      vertex 8.50499 6.00499 0
      vertex 6.65884 3.13926 0
      vertex 7.07579 3.2222 0
    endloop
  endfacet
  facet normal 0 0 1
    outer loop
      vertex 8.50499 6.00499 0
      vertex 6.25628 3.00261 0
      vertex 6.65884 3.13926 0
    endloop
  endfacet
  facet normal 0 0 1
    outer loop
      vertex 8.50499 6.00499 0
      vertex 5.875 2.81458 0
      vertex 6.25628 3.00261 0
    endloop
  endfacet
  facet normal 0 0 1
    outer loop
      vertex 8.50499 6.00499 0
      vertex 5.52152 2.5784 0
      vertex 5.875 2.81458 0
    endloop
  endfacet
  facet normal 0 0 1
    outer loop
      vertex -5.52152 2.5784 0
      vertex 5.52152 2.5784 0
      vertex 8.50499 6.00499 0
    endloop
  endfacet
  facet normal 0 0 1
    outer loop
      vertex 4.2778 0.42421 0
      vertex -4.25 0 0
      vertex 4.25 0 0
    endloop
  endfacet
  facet normal 0 0 1
    outer loop
      vertex -4.2778 0.42421 0
      vertex 4.2778 0.42421 0
      vertex 4.36074 0.841162 0
    endloop
  endfacet
  facet normal 0 0 1
    outer loop
      vertex -4.36074 0.841162 0
      vertex 4.36074 0.841162 0
      vertex 4.49739 1.24372 0
    endloop
  endfacet
  facet normal 0 0 1
    outer loop
      vertex -4.49739 1.24372 0
      vertex 4.49739 1.24372 0
      vertex 4.68542 1.625 0
    endloop
  endfacet
  facet normal 0 0 1
    outer loop
      vertex -4.68542 1.625 0
      vertex 4.68542 1.625 0
      vertex 4.9216 1.97847 0
    endloop
  endfacet
  facet normal 0 0 1
    outer loop
      vertex -4.9216 1.97847 0
      vertex 4.9216 1.97847 0
      vertex 5.2019 2.2981 0
    endloop
  endfacet
  facet normal 0 0 1
    outer loop
      vertex 5.52152 2.5784 0
      vertex -5.52152 2.5784 0
      vertex 5.2019 2.2981 0
    endloop
  endfacet
  facet normal 0 0 1
    outer loop
      vertex 4.2778 0.42421 0
      vertex -4.2778 0.42421 0
      vertex -4.25 0 0
    endloop
  endfacet
  facet normal 0 0 1
    outer loop
      vertex 4.36074 0.841162 0
      vertex -4.36074 0.841162 0
      vertex -4.2778 0.42421 0
    endloop
  endfacet
  facet normal 0 0 1
    outer loop
      vertex 4.49739 1.24372 0
      vertex -4.49739 1.24372 0
      vertex -4.36074 0.841162 0
    endloop
  endfacet
  facet normal 0 0 1
    outer loop
      vertex 4.68542 1.625 0
      vertex -4.68542 1.625 0
      vertex -4.49739 1.24372 0
    endloop
  endfacet
  facet normal 0 0 1
    outer loop
      vertex 4.9216 1.97847 0
      vertex -4.9216 1.97847 0
      vertex -4.68542 1.625 0
    endloop
  endfacet
  facet normal 0 0 1
    outer loop
      vertex 5.2019 2.2981 0
      vertex -5.2019 2.2981 0
      vertex -4.9216 1.97847 0
    endloop
  endfacet
  facet normal 0 0 1
    outer loop
      vertex 5.2019 2.2981 0
      vertex -5.52152 2.5784 0
      vertex -5.2019 2.2981 0
    endloop
  endfacet
  facet normal -0 0 1
    outer loop
      vertex -8.50499 6.00499 0
      vertex -5.52152 2.5784 0
      vertex 8.50499 6.00499 0
    endloop
  endfacet
  facet normal 0 0 1
    outer loop
      vertex -5.52152 2.5784 0
      vertex -8.50499 6.00499 0
      vertex -5.875 2.81458 0
    endloop
  endfacet
  facet normal 0 0 1
    outer loop
      vertex -5.875 2.81458 0
      vertex -8.50499 6.00499 0
      vertex -6.25628 3.00261 0
    endloop
  endfacet
  facet normal 0 0 1
    outer loop
      vertex -6.25628 3.00261 0
      vertex -8.50499 6.00499 0
      vertex -6.65884 3.13926 0
    endloop
  endfacet
  facet normal 0 0 1
    outer loop
      vertex -6.65884 3.13926 0
      vertex -8.50499 6.00499 0
      vertex -7.07579 3.2222 0
    endloop
  endfacet
  facet normal 0 0 1
    outer loop
      vertex -7.07579 3.2222 0
      vertex -8.50499 6.00499 0
      vertex -7.5 3.25 0
    endloop
  endfacet
  facet normal 0 0 1
    outer loop
      vertex -7.5 3.25 0
      vertex -8.50499 6.00499 0
      vertex -7.92421 3.2222 0
    endloop
  endfacet
  facet normal 0 0 1
    outer loop
      vertex -8.50499 6.00499 0
      vertex -8.34116 3.13926 0
      vertex -7.92421 3.2222 0
    endloop
  endfacet
  facet normal -0 0 1
    outer loop
      vertex -9.15762 5.96222 0
      vertex -8.34116 3.13926 0
      vertex -8.50499 6.00499 0
    endloop
  endfacet
  facet normal 0 0 1
    outer loop
      vertex -8.34116 3.13926 0
      vertex -9.15762 5.96222 0
      vertex -8.74372 3.00261 0
    endloop
  endfacet
  facet normal -0 0 1
    outer loop
      vertex -9.79909 5.83463 0
      vertex -8.74372 3.00261 0
      vertex -9.15762 5.96222 0
    endloop
  endfacet
  facet normal 0 0 1
    outer loop
      vertex -8.74372 3.00261 0
      vertex -9.79909 5.83463 0
      vertex -9.125 2.81458 0
    endloop
  endfacet
  facet normal -0 0 1
    outer loop
      vertex -10.4184 5.62439 0
      vertex -9.125 2.81458 0
      vertex -9.79909 5.83463 0
    endloop
  endfacet
  facet normal -0 0 1
    outer loop
      vertex -11.005 5.33511 0
      vertex -9.125 2.81458 0
      vertex -10.4184 5.62439 0
    endloop
  endfacet
  facet normal 0 0 1
    outer loop
      vertex -9.125 2.81458 0
      vertex -11.005 5.33511 0
      vertex -9.47847 2.5784 0
    endloop
  endfacet
  facet normal -0 0 1
    outer loop
      vertex -11.5488 4.97176 0
      vertex -9.47847 2.5784 0
      vertex -11.005 5.33511 0
    endloop
  endfacet
  facet normal 0 0 1
    outer loop
      vertex -9.47847 2.5784 0
      vertex -11.5488 4.97176 0
      vertex -9.7981 2.2981 0
    endloop
  endfacet
  facet normal -0 0 1
    outer loop
      vertex -12.0405 4.54053 0
      vertex -9.7981 2.2981 0
      vertex -11.5488 4.97176 0
    endloop
  endfacet
  facet normal -0 0 1
    outer loop
      vertex -12.4718 4.0488 0
      vertex -9.7981 2.2981 0
      vertex -12.0405 4.54053 0
    endloop
  endfacet
  facet normal 0 0 1
    outer loop
      vertex -9.7981 2.2981 0
      vertex -12.4718 4.0488 0
      vertex -10.0784 1.97847 0
    endloop
  endfacet
  facet normal -0 0 1
    outer loop
      vertex -12.8351 3.50499 0
      vertex -10.0784 1.97847 0
      vertex -12.4718 4.0488 0
    endloop
  endfacet
  facet normal 0 0 1
    outer loop
      vertex -10.0784 1.97847 0
      vertex -12.8351 3.50499 0
      vertex -10.3146 1.625 0
    endloop
  endfacet
  facet normal -0 0 1
    outer loop
      vertex 10.0784 -1.97847 0
      vertex 12.8351 -3.50499 0
      vertex 10.3146 -1.625 0
    endloop
  endfacet
  facet normal 0 0 1
    outer loop
      vertex 12.8351 -3.50499 0
      vertex 10.0784 -1.97847 0
      vertex 12.4718 -4.0488 0
    endloop
  endfacet
  facet normal -0 0 1
    outer loop
      vertex 9.7981 -2.2981 0
      vertex 12.4718 -4.0488 0
      vertex 10.0784 -1.97847 0
    endloop
  endfacet
  facet normal 0 0 1
    outer loop
      vertex 12.4718 -4.0488 0
      vertex 9.7981 -2.2981 0
      vertex 12.0405 -4.54053 0
    endloop
  endfacet
  facet normal 0 0 1
    outer loop
      vertex 12.0405 -4.54053 0
      vertex 9.7981 -2.2981 0
      vertex 11.5488 -4.97176 0
    endloop
  endfacet
  facet normal -0 0 1
    outer loop
      vertex 9.47847 -2.5784 0
      vertex 11.5488 -4.97176 0
      vertex 9.7981 -2.2981 0
    endloop
  endfacet
  facet normal 0 0 1
    outer loop
      vertex 11.5488 -4.97176 0
      vertex 9.47847 -2.5784 0
      vertex 11.005 -5.33511 0
    endloop
  endfacet
  facet normal -0 0 1
    outer loop
      vertex 9.125 -2.81458 0
      vertex 11.005 -5.33511 0
      vertex 9.47847 -2.5784 0
    endloop
  endfacet
  facet normal 0 0 1
    outer loop
      vertex 11.005 -5.33511 0
      vertex 9.125 -2.81458 0
      vertex 10.4184 -5.62439 0
    endloop
  endfacet
  facet normal 0 0 1
    outer loop
      vertex 10.4184 -5.62439 0
      vertex 9.125 -2.81458 0
      vertex 9.79909 -5.83463 0
    endloop
  endfacet
  facet normal -0 0 1
    outer loop
      vertex 8.74372 -3.00261 0
      vertex 9.79909 -5.83463 0
      vertex 9.125 -2.81458 0
    endloop
  endfacet
  facet normal 0 0 1
    outer loop
      vertex 9.79909 -5.83463 0
      vertex 8.74372 -3.00261 0
      vertex 9.15762 -5.96222 0
    endloop
  endfacet
  facet normal -0 0 1
    outer loop
      vertex 8.34116 -3.13926 0
      vertex 9.15762 -5.96222 0
      vertex 8.74372 -3.00261 0
    endloop
  endfacet
  facet normal 0 0 1
    outer loop
      vertex 9.15762 -5.96222 0
      vertex 8.34116 -3.13926 0
      vertex 8.50499 -6.00499 0
    endloop
  endfacet
  facet normal -0 0 1
    outer loop
      vertex 7.92421 -3.2222 0
      vertex 8.50499 -6.00499 0
      vertex 8.34116 -3.13926 0
    endloop
  endfacet
  facet normal -0 0 1
    outer loop
      vertex 7.5 -3.25 0
      vertex 8.50499 -6.00499 0
      vertex 7.92421 -3.2222 0
    endloop
  endfacet
  facet normal 0 0 1
    outer loop
      vertex 7.07579 -3.2222 0
      vertex 8.50499 -6.00499 0
      vertex 7.5 -3.25 0
    endloop
  endfacet
  facet normal 0 0 1
    outer loop
      vertex 6.65884 -3.13926 0
      vertex 8.50499 -6.00499 0
      vertex 7.07579 -3.2222 0
    endloop
  endfacet
  facet normal 0 0 1
    outer loop
      vertex 6.25628 -3.00261 0
      vertex 8.50499 -6.00499 0
      vertex 6.65884 -3.13926 0
    endloop
  endfacet
  facet normal 0 0 1
    outer loop
      vertex 5.875 -2.81458 0
      vertex 8.50499 -6.00499 0
      vertex 6.25628 -3.00261 0
    endloop
  endfacet
  facet normal 0 0 1
    outer loop
      vertex 5.52152 -2.5784 0
      vertex 8.50499 -6.00499 0
      vertex 5.875 -2.81458 0
    endloop
  endfacet
  facet normal 0 0 1
    outer loop
      vertex -5.52152 -2.5784 0
      vertex 5.52152 -2.5784 0
      vertex 5.2019 -2.2981 0
    endloop
  endfacet
  facet normal -0 0 1
    outer loop
      vertex -4.25 0 0
      vertex 4.2778 -0.42421 0
      vertex 4.25 0 0
    endloop
  endfacet
  facet normal 0 0 1
    outer loop
      vertex -4.2778 -0.42421 0
      vertex 4.2778 -0.42421 0
      vertex -4.25 0 0
    endloop
  endfacet
  facet normal 0 0 1
    outer loop
      vertex 4.2778 -0.42421 0
      vertex -4.2778 -0.42421 0
      vertex 4.36074 -0.841162 0
    endloop
  endfacet
  facet normal 0 0 1
    outer loop
      vertex -4.36074 -0.841162 0
      vertex 4.36074 -0.841162 0
      vertex -4.2778 -0.42421 0
    endloop
  endfacet
  facet normal 0 0 1
    outer loop
      vertex 4.36074 -0.841162 0
      vertex -4.36074 -0.841162 0
      vertex 4.49739 -1.24372 0
    endloop
  endfacet
  facet normal 0 0 1
    outer loop
      vertex -4.49739 -1.24372 0
      vertex 4.49739 -1.24372 0
      vertex -4.36074 -0.841162 0
    endloop
  endfacet
  facet normal 0 0 1
    outer loop
      vertex 4.49739 -1.24372 0
      vertex -4.49739 -1.24372 0
      vertex 4.68542 -1.625 0
    endloop
  endfacet
  facet normal 0 0 1
    outer loop
      vertex -4.68542 -1.625 0
      vertex 4.68542 -1.625 0
      vertex -4.49739 -1.24372 0
    endloop
  endfacet
  facet normal 0 0 1
    outer loop
      vertex 4.68542 -1.625 0
      vertex -4.68542 -1.625 0
      vertex 4.9216 -1.97847 0
    endloop
  endfacet
  facet normal 0 0 1
    outer loop
      vertex -4.9216 -1.97847 0
      vertex 4.9216 -1.97847 0
      vertex -4.68542 -1.625 0
    endloop
  endfacet
  facet normal 0 0 1
    outer loop
      vertex 4.9216 -1.97847 0
      vertex -4.9216 -1.97847 0
      vertex 5.2019 -2.2981 0
    endloop
  endfacet
  facet normal 0 0 1
    outer loop
      vertex -5.2019 -2.2981 0
      vertex 5.2019 -2.2981 0
      vertex -4.9216 -1.97847 0
    endloop
  endfacet
  facet normal 0 0 1
    outer loop
      vertex -5.52152 -2.5784 0
      vertex 5.2019 -2.2981 0
      vertex -5.2019 -2.2981 0
    endloop
  endfacet
  facet normal 0 0 1
    outer loop
      vertex 5.52152 -2.5784 0
      vertex -5.52152 -2.5784 0
      vertex 8.50499 -6.00499 0
    endloop
  endfacet
  facet normal 0 0 1
    outer loop
      vertex -8.50499 -6.00499 0
      vertex -5.52152 -2.5784 0
      vertex -5.875 -2.81458 0
    endloop
  endfacet
  facet normal 0 0 1
    outer loop
      vertex -8.50499 -6.00499 0
      vertex -5.875 -2.81458 0
      vertex -6.25628 -3.00261 0
    endloop
  endfacet
  facet normal 0 0 1
    outer loop
      vertex -8.50499 -6.00499 0
      vertex -6.25628 -3.00261 0
      vertex -6.65884 -3.13926 0
    endloop
  endfacet
  facet normal 0 0 1
    outer loop
      vertex -8.50499 -6.00499 0
      vertex -6.65884 -3.13926 0
      vertex -7.07579 -3.2222 0
    endloop
  endfacet
  facet normal 0 0 1
    outer loop
      vertex -8.50499 -6.00499 0
      vertex -7.07579 -3.2222 0
      vertex -7.5 -3.25 0
    endloop
  endfacet
  facet normal 0 0 1
    outer loop
      vertex -8.50499 -6.00499 0
      vertex -7.5 -3.25 0
      vertex -7.92421 -3.2222 0
    endloop
  endfacet
  facet normal 0 0 1
    outer loop
      vertex -5.52152 -2.5784 0
      vertex -8.50499 -6.00499 0
      vertex 8.50499 -6.00499 0
    endloop
  endfacet
  facet normal 0 0 1
    outer loop
      vertex -8.34116 -3.13926 0
      vertex -8.50499 -6.00499 0
      vertex -7.92421 -3.2222 0
    endloop
  endfacet
  facet normal 0 0 1
    outer loop
      vertex -9.15762 -5.96222 0
      vertex -8.34116 -3.13926 0
      vertex -8.74372 -3.00261 0
    endloop
  endfacet
  facet normal 0 0 1
    outer loop
      vertex -9.79909 -5.83463 0
      vertex -8.74372 -3.00261 0
      vertex -9.125 -2.81458 0
    endloop
  endfacet
  facet normal 0 0 1
    outer loop
      vertex -8.34116 -3.13926 0
      vertex -9.15762 -5.96222 0
      vertex -8.50499 -6.00499 0
    endloop
  endfacet
  facet normal 0 0 1
    outer loop
      vertex -11.005 -5.33511 0
      vertex -9.125 -2.81458 0
      vertex -9.47847 -2.5784 0
    endloop
  endfacet
  facet normal 0 0 1
    outer loop
      vertex -11.5488 -4.97176 0
      vertex -9.47847 -2.5784 0
      vertex -9.7981 -2.2981 0
    endloop
  endfacet
  facet normal 0 0 1
    outer loop
      vertex -8.74372 -3.00261 0
      vertex -9.79909 -5.83463 0
      vertex -9.15762 -5.96222 0
    endloop
  endfacet
  facet normal 0 0 1
    outer loop
      vertex -12.4718 -4.0488 0
      vertex -9.7981 -2.2981 0
      vertex -10.0784 -1.97847 0
    endloop
  endfacet
  facet normal 0 0 1
    outer loop
      vertex -12.8351 -3.50499 0
      vertex -10.0784 -1.97847 0
      vertex -10.3146 -1.625 0
    endloop
  endfacet
  facet normal 0 0 1
    outer loop
      vertex -9.125 -2.81458 0
      vertex -10.4184 -5.62439 0
      vertex -9.79909 -5.83463 0
    endloop
  endfacet
  facet normal 0 0 1
    outer loop
      vertex -13.1244 -2.91841 0
      vertex -10.3146 -1.625 0
      vertex -10.5026 -1.24372 0
    endloop
  endfacet
  facet normal 0 0 1
    outer loop
      vertex -13.4622 -1.65762 0
      vertex -10.5026 -1.24372 0
      vertex -10.6393 -0.841162 0
    endloop
  endfacet
  facet normal 0 0 1
    outer loop
      vertex -13.505 -1.00499 0
      vertex -10.6393 -0.841162 0
      vertex -10.7222 -0.42421 0
    endloop
  endfacet
  facet normal 0 0 1
    outer loop
      vertex -13.505 -1.00499 0
      vertex -10.7222 -0.42421 0
      vertex -10.75 0 0
    endloop
  endfacet
  facet normal 0 0 1
    outer loop
      vertex -9.125 -2.81458 0
      vertex -11.005 -5.33511 0
      vertex -10.4184 -5.62439 0
    endloop
  endfacet
  facet normal -0 0 1
    outer loop
      vertex -13.1244 2.91841 0
      vertex -10.3146 1.625 0
      vertex -12.8351 3.50499 0
    endloop
  endfacet
  facet normal 0 0 1
    outer loop
      vertex -10.3146 1.625 0
      vertex -13.1244 2.91841 0
      vertex -10.5026 1.24372 0
    endloop
  endfacet
  facet normal 0 0 1
    outer loop
      vertex -13.505 -1.00499 0
      vertex -10.75 0 0
      vertex -13.505 1.00499 0
    endloop
  endfacet
  facet normal -0 0 1
    outer loop
      vertex -13.3346 2.29909 0
      vertex -10.5026 1.24372 0
      vertex -13.1244 2.91841 0
    endloop
  endfacet
  facet normal 0 0 1
    outer loop
      vertex -10.6393 -0.841162 0
      vertex -13.505 -1.00499 0
      vertex -13.4622 -1.65762 0
    endloop
  endfacet
  facet normal -0 0 1
    outer loop
      vertex -13.4622 1.65762 0
      vertex -10.5026 1.24372 0
      vertex -13.3346 2.29909 0
    endloop
  endfacet
  facet normal 0 0 1
    outer loop
      vertex -9.47847 -2.5784 0
      vertex -11.5488 -4.97176 0
      vertex -11.005 -5.33511 0
    endloop
  endfacet
  facet normal 0 0 1
    outer loop
      vertex -10.5026 1.24372 0
      vertex -13.4622 1.65762 0
      vertex -10.6393 0.841162 0
    endloop
  endfacet
  facet normal 0 0 1
    outer loop
      vertex -9.7981 -2.2981 0
      vertex -12.0405 -4.54053 0
      vertex -11.5488 -4.97176 0
    endloop
  endfacet
  facet normal -0 0 1
    outer loop
      vertex -13.505 1.00499 0
      vertex -10.6393 0.841162 0
      vertex -13.4622 1.65762 0
    endloop
  endfacet
  facet normal 0 0 1
    outer loop
      vertex -9.7981 -2.2981 0
      vertex -12.4718 -4.0488 0
      vertex -12.0405 -4.54053 0
    endloop
  endfacet
  facet normal 0 0 1
    outer loop
      vertex -10.6393 0.841162 0
      vertex -13.505 1.00499 0
      vertex -10.7222 0.42421 0
    endloop
  endfacet
  facet normal 0 0 1
    outer loop
      vertex -10.0784 -1.97847 0
      vertex -12.8351 -3.50499 0
      vertex -12.4718 -4.0488 0
    endloop
  endfacet
  facet normal 0 0 1
    outer loop
      vertex -10.7222 0.42421 0
      vertex -13.505 1.00499 0
      vertex -10.75 0 0
    endloop
  endfacet
  facet normal 0 0 1
    outer loop
      vertex -10.3146 -1.625 0
      vertex -13.1244 -2.91841 0
      vertex -12.8351 -3.50499 0
    endloop
  endfacet
  facet normal 0 0 1
    outer loop
      vertex -10.5026 -1.24372 0
      vertex -13.3346 -2.29909 0
      vertex -13.1244 -2.91841 0
    endloop
  endfacet
  facet normal 0 0 1
    outer loop
      vertex -10.5026 -1.24372 0
      vertex -13.4622 -1.65762 0
      vertex -13.3346 -2.29909 0
    endloop
  endfacet
  facet normal 0.831514 0.555504 0
    outer loop
      vertex 12.8351 3.50499 0
      vertex 12.4718 4.0488 -3
      vertex 12.4718 4.0488 0
    endloop
  endfacet
  facet normal 0.831514 0.555504 0
    outer loop
      vertex 12.4718 4.0488 -3
      vertex 12.8351 3.50499 0
      vertex 12.8351 3.50499 -3
    endloop
  endfacet
  facet normal 0.659364 0.751824 -0
    outer loop
      vertex 12.0405 4.54053 -3
      vertex 11.5488 4.97176 0
      vertex 12.0405 4.54053 0
    endloop
  endfacet
  facet normal 0.659364 0.751824 0
    outer loop
      vertex 11.5488 4.97176 0
      vertex 12.0405 4.54053 -3
      vertex 11.5488 4.97176 -3
    endloop
  endfacet
  facet normal 0.946944 -0.321397 0
    outer loop
      vertex 13.1244 -2.91841 0
      vertex 13.3346 -2.29909 -3
      vertex 13.3346 -2.29909 0
    endloop
  endfacet
  facet normal 0.946944 -0.321397 0
    outer loop
      vertex 13.3346 -2.29909 -3
      vertex 13.1244 -2.91841 0
      vertex 13.1244 -2.91841 -3
    endloop
  endfacet
  facet normal 0.896854 -0.442327 0
    outer loop
      vertex 12.8351 -3.50499 0
      vertex 13.1244 -2.91841 -3
      vertex 13.1244 -2.91841 0
    endloop
  endfacet
  facet normal 0.896854 -0.442327 0
    outer loop
      vertex 13.1244 -2.91841 -3
      vertex 12.8351 -3.50499 0
      vertex 12.8351 -3.50499 -3
    endloop
  endfacet
  facet normal 0.751791 -0.659401 0
    outer loop
      vertex 12.0405 -4.54053 0
      vertex 12.4718 -4.0488 -3
      vertex 12.4718 -4.0488 0
    endloop
  endfacet
  facet normal 0.751791 -0.659401 0
    outer loop
      vertex 12.4718 -4.0488 -3
      vertex 12.0405 -4.54053 0
      vertex 12.0405 -4.54053 -3
    endloop
  endfacet
  facet normal 0.555564 -0.831474 0
    outer loop
      vertex 11.005 -5.33511 -3
      vertex 11.5488 -4.97176 0
      vertex 11.005 -5.33511 0
    endloop
  endfacet
  facet normal 0.555564 -0.831474 0
    outer loop
      vertex 11.5488 -4.97176 0
      vertex 11.005 -5.33511 -3
      vertex 11.5488 -4.97176 -3
    endloop
  endfacet
  facet normal -0.997856 -0.0654402 0
    outer loop
      vertex -13.4622 -1.65762 -3
      vertex -13.505 -1.00499 0
      vertex -13.505 -1.00499 -3
    endloop
  endfacet
  facet normal -0.997856 -0.0654402 0
    outer loop
      vertex -13.505 -1.00499 0
      vertex -13.4622 -1.65762 -3
      vertex -13.4622 -1.65762 0
    endloop
  endfacet
endsolid OpenSCAD_Model
