  0
SECTION
  2
HEADER
  9
$ACADVER
  1
AC1021
  9
$ACADMAINTVER
 70
    25
  9
$DWGCODEPAGE
  3
ANSI_1252
  9
$INSBASE
 10
0.0
 20
0.0
 30
0.0
  9
$EXTMIN
 10
-12.17821
 20
-17.52824
 30
0.0
  9
$EXTMAX
 10
-8.82179
 20
-12.17176
 30
0.0
  9
$LIMMIN
 10
0.0
 20
0.0
  9
$LIMMAX
 10
12.0
 20
9.0
  9
$ORTHOMODE
 70
     0
  9
$REGENMODE
 70
     1
  9
$FILLMODE
 70
     1
  9
$QTEXTMODE
 70
     0
  9
$MIRRTEXT
 70
     1
  9
$LTSCALE
 40
1.0
  9
$ATTMODE
 70
     1
  9
$TEXTSIZE
 40
0.2
  9
$TRACEWID
 40
0.05
  9
$TEXTSTYLE
  7
Standard
  9
$CLAYER
  8
0
  9
$CELTYPE
  6
ByLayer
  9
$CECOLOR
 62
   256
  9
$CELTSCALE
 40
1.0
  9
$DISPSILH
 70
     0
  9
$DIMSCALE
 40
1.0
  9
$DIMASZ
 40
0.18
  9
$DIMEXO
 40
0.0625
  9
$DIMDLI
 40
0.38
  9
$DIMRND
 40
0.0
  9
$DIMDLE
 40
0.0
  9
$DIMEXE
 40
0.18
  9
$DIMTP
 40
0.0
  9
$DIMTM
 40
0.0
  9
$DIMTXT
 40
0.18
  9
$DIMCEN
 40
0.09
  9
$DIMTSZ
 40
0.0
  9
$DIMTOL
 70
     0
  9
$DIMLIM
 70
     0
  9
$DIMTIH
 70
     1
  9
$DIMTOH
 70
     1
  9
$DIMSE1
 70
     0
  9
$DIMSE2
 70
     0
  9
$DIMTAD
 70
     0
  9
$DIMZIN
 70
     0
  9
$DIMBLK
  1

  9
$DIMASO
 70
     1
  9
$DIMSHO
 70
     1
  9
$DIMPOST
  1

  9
$DIMAPOST
  1

  9
$DIMALT
 70
     0
  9
$DIMALTD
 70
     2
  9
$DIMALTF
 40
25.4
  9
$DIMLFAC
 40
1.0
  9
$DIMTOFL
 70
     0
  9
$DIMTVP
 40
0.0
  9
$DIMTIX
 70
     0
  9
$DIMSOXD
 70
     0
  9
$DIMSAH
 70
     0
  9
$DIMBLK1
  1

  9
$DIMBLK2
  1

  9
$DIMSTYLE
  2
Standard
  9
$DIMCLRD
 70
     0
  9
$DIMCLRE
 70
     0
  9
$DIMCLRT
 70
     0
  9
$DIMTFAC
 40
1.0
  9
$DIMGAP
 40
0.09
  9
$DIMJUST
 70
     0
  9
$DIMSD1
 70
     0
  9
$DIMSD2
 70
     0
  9
$DIMTOLJ
 70
     1
  9
$DIMTZIN
 70
     0
  9
$DIMALTZ
 70
     0
  9
$DIMALTTZ
 70
     0
  9
$DIMUPT
 70
     0
  9
$DIMDEC
 70
     4
  9
$DIMTDEC
 70
     4
  9
$DIMALTU
 70
     2
  9
$DIMALTTD
 70
     2
  9
$DIMTXSTY
  7
Standard
  9
$DIMAUNIT
 70
     0
  9
$DIMADEC
 70
     0
  9
$DIMALTRND
 40
0.0
  9
$DIMAZIN
 70
     0
  9
$DIMDSEP
 70
    46
  9
$DIMATFIT
 70
     3
  9
$DIMFRAC
 70
     0
  9
$DIMLDRBLK
  1

  9
$DIMLUNIT
 70
     2
  9
$DIMLWD
 70
    -2
  9
$DIMLWE
 70
    -2
  9
$DIMTMOVE
 70
     0
  9
$DIMFXL
 40
1.0
  9
$DIMFXLON
 70
     0
  9
$DIMJOGANG
 40
0.7853981633974483
  9
$DIMTFILL
 70
     0
  9
$DIMTFILLCLR
 70
     0
  9
$DIMARCSYM
 70
     0
  9
$DIMLTYPE
  6

  9
$DIMLTEX1
  6

  9
$DIMLTEX2
  6

  9
$LUNITS
 70
     2
  9
$LUPREC
 70
     4
  9
$SKETCHINC
 40
0.1
  9
$FILLETRAD
 40
0.5
  9
$AUNITS
 70
     0
  9
$AUPREC
 70
     0
  9
$MENU
  1
.
  9
$ELEVATION
 40
0.0
  9
$PELEVATION
 40
0.0
  9
$THICKNESS
 40
0.0
  9
$LIMCHECK
 70
     0
  9
$CHAMFERA
 40
0.5
  9
$CHAMFERB
 40
0.5
  9
$CHAMFERC
 40
1.0
  9
$CHAMFERD
 40
0.0
  9
$SKPOLY
 70
     0
  9
$TDCREATE
 40
2456927.774103009
  9
$TDUCREATE
 40
2456927.732436343
  9
$TDUPDATE
 40
2456927.774103021
  9
$TDUUPDATE
 40
2456927.732436354
  9
$TDINDWG
 40
0.0000000116
  9
$TDUSRTIMER
 40
0.0000000116
  9
$USRTIMER
 70
     1
  9
$ANGBASE
 50
0.0
  9
$ANGDIR
 70
     0
  9
$PDMODE
 70
     0
  9
$PDSIZE
 40
0.0
  9
$PLINEWID
 40
0.0
  9
$SPLFRAME
 70
     0
  9
$SPLINETYPE
 70
     6
  9
$SPLINESEGS
 70
     8
  9
$HANDSEED
  5
81
  9
$SURFTAB1
 70
     6
  9
$SURFTAB2
 70
     6
  9
$SURFTYPE
 70
     6
  9
$SURFU
 70
     6
  9
$SURFV
 70
     6
  9
$UCSBASE
  2

  9
$UCSNAME
  2

  9
$UCSORG
 10
0.0
 20
0.0
 30
0.0
  9
$UCSXDIR
 10
1.0
 20
0.0
 30
0.0
  9
$UCSYDIR
 10
0.0
 20
1.0
 30
0.0
  9
$UCSORTHOREF
  2

  9
$UCSORTHOVIEW
 70
     0
  9
$UCSORGTOP
 10
0.0
 20
0.0
 30
0.0
  9
$UCSORGBOTTOM
 10
0.0
 20
0.0
 30
0.0
  9
$UCSORGLEFT
 10
0.0
 20
0.0
 30
0.0
  9
$UCSORGRIGHT
 10
0.0
 20
0.0
 30
0.0
  9
$UCSORGFRONT
 10
0.0
 20
0.0
 30
0.0
  9
$UCSORGBACK
 10
0.0
 20
0.0
 30
0.0
  9
$PUCSBASE
  2

  9
$PUCSNAME
  2

  9
$PUCSORG
 10
0.0
 20
0.0
 30
0.0
  9
$PUCSXDIR
 10
1.0
 20
0.0
 30
0.0
  9
$PUCSYDIR
 10
0.0
 20
1.0
 30
0.0
  9
$PUCSORTHOREF
  2

  9
$PUCSORTHOVIEW
 70
     0
  9
$PUCSORGTOP
 10
0.0
 20
0.0
 30
0.0
  9
$PUCSORGBOTTOM
 10
0.0
 20
0.0
 30
0.0
  9
$PUCSORGLEFT
 10
0.0
 20
0.0
 30
0.0
  9
$PUCSORGRIGHT
 10
0.0
 20
0.0
 30
0.0
  9
$PUCSORGFRONT
 10
0.0
 20
0.0
 30
0.0
  9
$PUCSORGBACK
 10
0.0
 20
0.0
 30
0.0
  9
$USERI1
 70
     0
  9
$USERI2
 70
     0
  9
$USERI3
 70
     0
  9
$USERI4
 70
     0
  9
$USERI5
 70
     0
  9
$USERR1
 40
0.0
  9
$USERR2
 40
0.0
  9
$USERR3
 40
0.0
  9
$USERR4
 40
0.0
  9
$USERR5
 40
0.0
  9
$WORLDVIEW
 70
     1
  9
$SHADEDGE
 70
     3
  9
$SHADEDIF
 70
    70
  9
$TILEMODE
 70
     1
  9
$MAXACTVP
 70
    64
  9
$PINSBASE
 10
0.0
 20
0.0
 30
0.0
  9
$PLIMCHECK
 70
     0
  9
$PEXTMIN
 10
1.000000000000000E+20
 20
1.000000000000000E+20
 30
1.000000000000000E+20
  9
$PEXTMAX
 10
-1.000000000000000E+20
 20
-1.000000000000000E+20
 30
-1.000000000000000E+20
  9
$PLIMMIN
 10
0.0
 20
0.0
  9
$PLIMMAX
 10
12.0
 20
9.0
  9
$UNITMODE
 70
     0
  9
$VISRETAIN
 70
     1
  9
$PLINEGEN
 70
     0
  9
$PSLTSCALE
 70
     1
  9
$TREEDEPTH
 70
  3020
  9
$CMLSTYLE
  2
Standard
  9
$CMLJUST
 70
     0
  9
$CMLSCALE
 40
1.0
  9
$PROXYGRAPHICS
 70
     1
  9
$MEASUREMENT
 70
     0
  9
$CELWEIGHT
370
    -1
  9
$ENDCAPS
280
     0
  9
$JOINSTYLE
280
     0
  9
$LWDISPLAY
290
     0
  9
$INSUNITS
 70
     5
  9
$HYPERLINKBASE
  1

  9
$STYLESHEET
  1

  9
$XEDIT
290
     1
  9
$CEPSNTYPE
380
     0
  9
$PSTYLEMODE
290
     1
  9
$FINGERPRINTGUID
  2
{99A7D288-8F77-49CA-A7AF-51DB846C6FD1}
  9
$VERSIONGUID
  2
{FAEB1C32-E019-11D5-929B-00C0DF256EC4}
  9
$EXTNAMES
290
     1
  9
$PSVPSCALE
 40
0.0
  9
$OLESTARTUP
290
     0
  9
$SORTENTS
280
   127
  9
$INDEXCTL
280
     0
  9
$HIDETEXT
280
     1
  9
$XCLIPFRAME
290
     0
  9
$HALOGAP
280
     0
  9
$OBSCOLOR
 70
   257
  9
$OBSLTYPE
280
     0
  9
$INTERSECTIONDISPLAY
280
     0
  9
$INTERSECTIONCOLOR
 70
   257
  9
$DIMASSOC
280
     2
  9
$PROJECTNAME
  1

  9
$CAMERADISPLAY
290
     0
  9
$LENSLENGTH
 40
50.0
  9
$CAMERAHEIGHT
 40
0.0
  9
$STEPSPERSEC
 40
2.0
  9
$STEPSIZE
 40
6.0
  9
$3DDWFPREC
 40
2.0
  9
$PSOLWIDTH
 40
0.25
  9
$PSOLHEIGHT
 40
4.0
  9
$LOFTANG1
 40
1.570796326794897
  9
$LOFTANG2
 40
1.570796326794897
  9
$LOFTMAG1
 40
0.0
  9
$LOFTMAG2
 40
0.0
  9
$LOFTPARAM
 70
     7
  9
$LOFTNORMALS
280
     1
  9
$LATITUDE
 40
37.795
  9
$LONGITUDE
 40
-122.394
  9
$NORTHDIRECTION
 40
0.0
  9
$TIMEZONE
 70
 -8000
  9
$LIGHTGLYPHDISPLAY
280
     1
  9
$TILEMODELIGHTSYNCH
280
     1
  9
$SOLIDHIST
280
     1
  9
$SHOWHIST
280
     1
  9
$DWFFRAME
280
     2
  9
$DGNFRAME
280
     2
  9
$REALWORLDSCALE
290
     1
  9
$INTERFERECOLOR
 62
   256
  9
$CSHADOW
280
     0
  9
$SHADOWPLANELOCATION
 40
0.0
  0
ENDSEC
  0
SECTION
  2
CLASSES
  0
CLASS
  1
ACDBDICTIONARYWDFLT
  2
AcDbDictionaryWithDefault
  3
ObjectDBX Classes
 90
        0
 91
        3
280
     0
281
     0
  0
CLASS
  1
VISUALSTYLE
  2
AcDbVisualStyle
  3
ObjectDBX Classes
 90
     4095
 91
        3
280
     0
281
     0
  0
CLASS
  1
SCALE
  2
AcDbScale
  3
ObjectDBX Classes
 90
     1153
 91
        3
280
     0
281
     0
  0
ENDSEC
  0
SECTION
  2
TABLES
  0
TABLE
  2
VPORT
  5
8
330
0
100
AcDbSymbolTable
 70
     1
  0
VPORT
  5
29
330
8
100
AcDbSymbolTableRecord
100
AcDbViewportTableRecord
  2
*Active
 70
     0
 10
0.0
 20
0.0
 11
1.0
 21
1.0
 12
10.42990654205607
 22
4.5
 13
0.0
 23
0.0
 14
0.5
 24
0.5
 15
0.5
 25
0.5
 16
0.0
 26
0.0
 36
1.0
 17
0.0
 27
0.0
 37
0.0
 40
9.0
 41
1.972972972850329
 42
50.0
 43
0.0
 44
0.0
 50
0.0
 51
0.0
 71
     0
 72
   100
 73
     1
 74
     3
 75
     0
 76
     0
 77
     0
 78
     0
281
     0
 65
     1
110
0.0
120
0.0
130
0.0
111
1.0
121
0.0
131
0.0
112
0.0
122
1.0
132
0.0
 79
     0
146
0.0
 60
     3
 61
     5
292
     1
282
     1
141
0.0
142
0.0
 63
   256
  0
ENDTAB
  0
TABLE
  2
LTYPE
  5
5
330
0
100
AcDbSymbolTable
 70
     1
  0
LTYPE
  5
14
330
5
100
AcDbSymbolTableRecord
100
AcDbLinetypeTableRecord
  2
ByBlock
 70
     0
  3

 72
    65
 73
     0
 40
0.0
  0
LTYPE
  5
15
330
5
100
AcDbSymbolTableRecord
100
AcDbLinetypeTableRecord
  2
ByLayer
 70
     0
  3

 72
    65
 73
     0
 40
0.0
  0
LTYPE
  5
16
330
5
100
AcDbSymbolTableRecord
100
AcDbLinetypeTableRecord
  2
Continuous
 70
     0
  3
Solid line
 72
    65
 73
     0
 40
0.0
  0
ENDTAB
  0
TABLE
  2
LAYER
  5
2
330
0
100
AcDbSymbolTable
 70
     2
  0
LAYER
  5
10
330
2
100
AcDbSymbolTableRecord
100
AcDbLayerTableRecord
  2
0
 70
     0
 62
     7
  6
Continuous
370
    -3
390
F
347
0
  0
LAYER
  5
5E
330
2
100
AcDbSymbolTableRecord
100
AcDbLayerTableRecord
  2
Layer 1
 70
     0
 62
     7
  6
Continuous
370
    -3
390
F
347
0
  0
ENDTAB
  0
TABLE
  2
STYLE
  5
3
330
0
100
AcDbSymbolTable
 70
     1
  0
STYLE
  5
11
330
3
100
AcDbSymbolTableRecord
100
AcDbTextStyleTableRecord
  2
Standard
 70
     0
 40
0.0
 41
1.0
 50
0.0
 71
     0
 42
0.2
  3
txt
  4

  0
ENDTAB
  0
TABLE
  2
VIEW
  5
6
330
0
100
AcDbSymbolTable
 70
     0
  0
ENDTAB
  0
TABLE
  2
UCS
  5
7
330
0
100
AcDbSymbolTable
 70
     0
  0
ENDTAB
  0
TABLE
  2
APPID
  5
9
330
0
100
AcDbSymbolTable
 70
     2
  0
APPID
  5
12
330
9
100
AcDbSymbolTableRecord
100
AcDbRegAppTableRecord
  2
ACAD
 70
     0
  0
APPID
  5
5D
330
9
100
AcDbSymbolTableRecord
100
AcDbRegAppTableRecord
  2
ODA
 70
     0
  0
ENDTAB
  0
TABLE
  2
DIMSTYLE
  5
A
330
0
100
AcDbSymbolTable
 70
     1
100
AcDbDimStyleTable
  0
DIMSTYLE
105
27
330
A
100
AcDbSymbolTableRecord
100
AcDbDimStyleTableRecord
  2
Standard
 70
     0
340
11
  0
ENDTAB
  0
TABLE
  2
BLOCK_RECORD
  5
1
330
0
100
AcDbSymbolTable
 70
     1
  0
BLOCK_RECORD
  5
1F
330
1
100
AcDbSymbolTableRecord
100
AcDbBlockTableRecord
  2
*Model_Space
340
22
 70
     0
280
     1
281
     0
  0
BLOCK_RECORD
  5
1B
330
1
100
AcDbSymbolTableRecord
100
AcDbBlockTableRecord
  2
*Paper_Space
340
1E
 70
     0
280
     1
281
     0
  0
BLOCK_RECORD
  5
23
330
1
100
AcDbSymbolTableRecord
100
AcDbBlockTableRecord
  2
*Paper_Space0
340
26
 70
     0
280
     1
281
     0
  0
ENDTAB
  0
ENDSEC
  0
SECTION
  2
BLOCKS
  0
BLOCK
  5
20
330
1F
100
AcDbEntity
  8
0
100
AcDbBlockBegin
  2
*Model_Space
 70
     0
 10
0.0
 20
0.0
 30
0.0
  3
*Model_Space
  1

  0
ENDBLK
  5
21
330
1F
100
AcDbEntity
  8
0
100
AcDbBlockEnd
  0
BLOCK
  5
1C
330
1B
100
AcDbEntity
 67
     1
  8
0
100
AcDbBlockBegin
  2
*Paper_Space
 70
     0
 10
0.0
 20
0.0
 30
0.0
  3
*Paper_Space
  1

  0
ENDBLK
  5
1D
330
1B
100
AcDbEntity
 67
     1
  8
0
100
AcDbBlockEnd
  0
BLOCK
  5
24
330
23
100
AcDbEntity
  8
0
100
AcDbBlockBegin
  2
*Paper_Space0
 70
     0
 10
0.0
 20
0.0
 30
0.0
  3
*Paper_Space0
  1

  0
ENDBLK
  5
25
330
23
100
AcDbEntity
  8
0
100
AcDbBlockEnd
  0
ENDSEC
  0
SECTION
  2
ENTITIES
  0
LWPOLYLINE
  5
5F
330
1F
100
AcDbEntity
  8
Layer 1
 62
   250
370
    20
100
AcDbPolyline
 90
        5
 70
     1
 43
0.0
 10
-11.34001
 20
-15.99001
 10
-11.22001
 20
-15.99001
 10
-11.22001
 20
-15.71001
 10
-11.34001
 20
-15.71001
 10
-11.34001
 20
-15.99001
  0
ELLIPSE
  5
60
330
1F
100
AcDbEntity
  8
Layer 1
 62
   250
370
    20
100
AcDbEllipse
 10
-10.50001
 20
-15.85001
 30
0.0
 11
0.0
 21
0.35
 31
0.0
210
0.0
220
0.0
230
1.0
 40
1.0
 41
0.0
 42
6.283185307179586
  0
SPLINE
  5
61
330
1F
100
AcDbEntity
  8
Layer 1
370
    53
100
AcDbSpline
210
0.0
220
0.0
230
1.0
 70
    11
 71
     3
 72
    36
 73
    32
 74
     0
 42
0.0000000001
 43
0.0000000001
 40
0.0
 40
0.0
 40
0.0
 40
0.0
 40
0.125
 40
0.125
 40
0.125
 40
0.125
 40
0.25
 40
0.25
 40
0.25
 40
0.25
 40
0.375
 40
0.375
 40
0.375
 40
0.375
 40
0.5
 40
0.5
 40
0.5
 40
0.5
 40
0.625
 40
0.625
 40
0.625
 40
0.625
 40
0.75
 40
0.75
 40
0.75
 40
0.75
 40
0.875
 40
0.875
 40
0.875
 40
0.875
 40
1.0
 40
1.0
 40
1.0
 40
1.0
 10
-12.14999
 20
-16.99993
 30
0.0
 10
-12.14999
 20
-16.99993
 30
0.0
 10
-12.14999
 20
-12.70007
 30
0.0
 10
-12.14999
 20
-12.70007
 30
0.0
 10
-12.14999
 20
-12.70007
 30
0.0
 10
-12.14999
 20
-12.42294
 30
0.0
 10
-11.92689
 20
-12.19998
 30
0.0
 10
-11.64989
 20
-12.19998
 30
0.0
 10
-11.64989
 20
-12.19998
 30
0.0
 10
-11.64989
 20
-12.19998
 30
0.0
 10
-9.34997
 20
-12.19998
 30
0.0
 10
-9.34997
 20
-12.19998
 30
0.0
 10
-9.34997
 20
-12.19998
 30
0.0
 10
-9.07296
 20
-12.19998
 30
0.0
 10
-8.85001
 20
-12.42294
 30
0.0
 10
-8.85001
 20
-12.70007
 30
0.0
 10
-8.85001
 20
-12.70007
 30
0.0
 10
-8.85001
 20
-12.70007
 30
0.0
 10
-8.85001
 20
-16.99993
 30
0.0
 10
-8.85001
 20
-16.99993
 30
0.0
 10
-8.85001
 20
-16.99993
 30
0.0
 10
-8.85001
 20
-17.27693
 30
0.0
 10
-9.07296
 20
-17.50002
 30
0.0
 10
-9.34997
 20
-17.50002
 30
0.0
 10
-9.34997
 20
-17.50002
 30
0.0
 10
-9.34997
 20
-17.50002
 30
0.0
 10
-11.64989
 20
-17.50002
 30
0.0
 10
-11.64989
 20
-17.50002
 30
0.0
 10
-11.64989
 20
-17.50002
 30
0.0
 10
-11.92689
 20
-17.50002
 30
0.0
 10
-12.14999
 20
-17.27693
 30
0.0
 10
-12.14999
 20
-16.99993
 30
0.0
  0
SPLINE
  5
62
330
1F
100
AcDbEntity
  8
Layer 1
370
    53
100
AcDbSpline
210
0.0
220
0.0
230
1.0
 70
    11
 71
     3
 72
    20
 73
    16
 74
     0
 42
0.0000000001
 43
0.0000000001
 40
0.0
 40
0.0
 40
0.0
 40
0.0
 40
0.25
 40
0.25
 40
0.25
 40
0.25
 40
0.5
 40
0.5
 40
0.5
 40
0.5
 40
0.75
 40
0.75
 40
0.75
 40
0.75
 40
1.0
 40
1.0
 40
1.0
 40
1.0
 10
-9.4999
 20
-12.55001
 30
0.0
 10
-9.33427
 20
-12.55001
 30
0.0
 10
-9.19989
 20
-12.68433
 30
0.0
 10
-9.19989
 20
-12.85
 30
0.0
 10
-9.19989
 20
-12.85
 30
0.0
 10
-9.19989
 20
-13.01563
 30
0.0
 10
-9.33427
 20
-13.15
 30
0.0
 10
-9.4999
 20
-13.15
 30
0.0
 10
-9.4999
 20
-13.15
 30
0.0
 10
-9.66567
 20
-13.15
 30
0.0
 10
-9.7999
 20
-13.01563
 30
0.0
 10
-9.7999
 20
-12.85
 30
0.0
 10
-9.7999
 20
-12.85
 30
0.0
 10
-9.7999
 20
-12.68433
 30
0.0
 10
-9.66567
 20
-12.55001
 30
0.0
 10
-9.4999
 20
-12.55001
 30
0.0
  0
SPLINE
  5
63
330
1F
100
AcDbEntity
  8
Layer 1
370
    53
100
AcDbSpline
210
0.0
220
0.0
230
1.0
 70
    11
 71
     3
 72
    20
 73
    16
 74
     0
 42
0.0000000001
 43
0.0000000001
 40
0.0
 40
0.0
 40
0.0
 40
0.0
 40
0.25
 40
0.25
 40
0.25
 40
0.25
 40
0.5
 40
0.5
 40
0.5
 40
0.5
 40
0.75
 40
0.75
 40
0.75
 40
0.75
 40
1.0
 40
1.0
 40
1.0
 40
1.0
 10
-11.49996
 20
-12.55001
 30
0.0
 10
-11.33419
 20
-12.55001
 30
0.0
 10
-11.19996
 20
-12.68433
 30
0.0
 10
-11.19996
 20
-12.85
 30
0.0
 10
-11.19996
 20
-12.85
 30
0.0
 10
-11.19996
 20
-13.01563
 30
0.0
 10
-11.33419
 20
-13.15
 30
0.0
 10
-11.49996
 20
-13.15
 30
0.0
 10
-11.49996
 20
-13.15
 30
0.0
 10
-11.66562
 20
-13.15
 30
0.0
 10
-11.79996
 20
-13.01563
 30
0.0
 10
-11.79996
 20
-12.85
 30
0.0
 10
-11.79996
 20
-12.85
 30
0.0
 10
-11.79996
 20
-12.68433
 30
0.0
 10
-11.66562
 20
-12.55001
 30
0.0
 10
-11.49996
 20
-12.55001
 30
0.0
  0
SPLINE
  5
64
330
1F
100
AcDbEntity
  8
Layer 1
370
    53
100
AcDbSpline
210
0.0
220
0.0
230
1.0
 70
    11
 71
     3
 72
    20
 73
    16
 74
     0
 42
0.0000000001
 43
0.0000000001
 40
0.0
 40
0.0
 40
0.0
 40
0.0
 40
0.25
 40
0.25
 40
0.25
 40
0.25
 40
0.5
 40
0.5
 40
0.5
 40
0.5
 40
0.75
 40
0.75
 40
0.75
 40
0.75
 40
1.0
 40
1.0
 40
1.0
 40
1.0
 10
-10.79994
 20
-13.00007
 30
0.0
 10
-10.79994
 20
-13.00007
 30
0.0
 10
-10.79994
 20
-12.70007
 30
0.0
 10
-10.79994
 20
-12.70007
 30
0.0
 10
-10.79994
 20
-12.70007
 30
0.0
 10
-10.79994
 20
-12.70007
 30
0.0
 10
-10.19995
 20
-12.70007
 30
0.0
 10
-10.19995
 20
-12.70007
 30
0.0
 10
-10.19995
 20
-12.70007
 30
0.0
 10
-10.19995
 20
-12.70007
 30
0.0
 10
-10.19995
 20
-13.00007
 30
0.0
 10
-10.19995
 20
-13.00007
 30
0.0
 10
-10.19995
 20
-13.00007
 30
0.0
 10
-10.19995
 20
-13.00007
 30
0.0
 10
-10.79994
 20
-13.00007
 30
0.0
 10
-10.79994
 20
-13.00007
 30
0.0
  0
SPLINE
  5
65
330
1F
100
AcDbEntity
  8
Layer 1
370
    53
100
AcDbSpline
210
0.0
220
0.0
230
1.0
 70
    11
 71
     3
 72
    20
 73
    16
 74
     0
 42
0.0000000001
 43
0.0000000001
 40
0.0
 40
0.0
 40
0.0
 40
0.0
 40
0.25
 40
0.25
 40
0.25
 40
0.25
 40
0.5
 40
0.5
 40
0.5
 40
0.5
 40
0.75
 40
0.75
 40
0.75
 40
0.75
 40
1.0
 40
1.0
 40
1.0
 40
1.0
 10
-9.64997
 20
-14.15002
 30
0.0
 10
-9.64997
 20
-14.15002
 30
0.0
 10
-9.64997
 20
-13.55002
 30
0.0
 10
-9.64997
 20
-13.55002
 30
0.0
 10
-9.64997
 20
-13.55002
 30
0.0
 10
-9.64997
 20
-13.55002
 30
0.0
 10
-9.34997
 20
-13.55002
 30
0.0
 10
-9.34997
 20
-13.55002
 30
0.0
 10
-9.34997
 20
-13.55002
 30
0.0
 10
-9.34997
 20
-13.55002
 30
0.0
 10
-9.34997
 20
-14.15002
 30
0.0
 10
-9.34997
 20
-14.15002
 30
0.0
 10
-9.34997
 20
-14.15002
 30
0.0
 10
-9.34997
 20
-14.15002
 30
0.0
 10
-9.64997
 20
-14.15002
 30
0.0
 10
-9.64997
 20
-14.15002
 30
0.0
  0
SPLINE
  5
66
330
1F
100
AcDbEntity
  8
Layer 1
370
    53
100
AcDbSpline
210
0.0
220
0.0
230
1.0
 70
    11
 71
     3
 72
    20
 73
    16
 74
     0
 42
0.0000000001
 43
0.0000000001
 40
0.0
 40
0.0
 40
0.0
 40
0.0
 40
0.25
 40
0.25
 40
0.25
 40
0.25
 40
0.5
 40
0.5
 40
0.5
 40
0.5
 40
0.75
 40
0.75
 40
0.75
 40
0.75
 40
1.0
 40
1.0
 40
1.0
 40
1.0
 10
-11.64989
 20
-14.15002
 30
0.0
 10
-11.64989
 20
-14.15002
 30
0.0
 10
-11.64989
 20
-13.55002
 30
0.0
 10
-11.64989
 20
-13.55002
 30
0.0
 10
-11.64989
 20
-13.55002
 30
0.0
 10
-11.64989
 20
-13.55002
 30
0.0
 10
-11.34989
 20
-13.55002
 30
0.0
 10
-11.34989
 20
-13.55002
 30
0.0
 10
-11.34989
 20
-13.55002
 30
0.0
 10
-11.34989
 20
-13.55002
 30
0.0
 10
-11.34989
 20
-14.15002
 30
0.0
 10
-11.34989
 20
-14.15002
 30
0.0
 10
-11.34989
 20
-14.15002
 30
0.0
 10
-11.34989
 20
-14.15002
 30
0.0
 10
-11.64989
 20
-14.15002
 30
0.0
 10
-11.64989
 20
-14.15002
 30
0.0
  0
SPLINE
  5
67
330
1F
100
AcDbEntity
  8
Layer 1
 62
    30
370
     9
100
AcDbSpline
210
0.0
220
0.0
230
1.0
 70
    11
 71
     3
 72
    36
 73
    32
 74
     0
 42
0.0000000001
 43
0.0000000001
 40
0.0
 40
0.0
 40
0.0
 40
0.0
 40
0.125
 40
0.125
 40
0.125
 40
0.125
 40
0.25
 40
0.25
 40
0.25
 40
0.25
 40
0.375
 40
0.375
 40
0.375
 40
0.375
 40
0.5
 40
0.5
 40
0.5
 40
0.5
 40
0.625
 40
0.625
 40
0.625
 40
0.625
 40
0.75
 40
0.75
 40
0.75
 40
0.75
 40
0.875
 40
0.875
 40
0.875
 40
0.875
 40
1.0
 40
1.0
 40
1.0
 40
1.0
 10
-11.91402
 20
-17.30537
 30
0.0
 10
-11.91402
 20
-17.30537
 30
0.0
 10
-11.91402
 20
-17.05102
 30
0.0
 10
-11.91402
 20
-17.05102
 30
0.0
 10
-11.91402
 20
-17.05102
 30
0.0
 10
-11.91402
 20
-17.05102
 30
0.0
 10
-11.80466
 20
-17.30537
 30
0.0
 10
-11.80466
 20
-17.30537
 30
0.0
 10
-11.80466
 20
-17.30537
 30
0.0
 10
-11.80466
 20
-17.30537
 30
0.0
 10
-11.69494
 20
-17.05102
 30
0.0
 10
-11.69494
 20
-17.05102
 30
0.0
 10
-11.69494
 20
-17.05102
 30
0.0
 10
-11.69494
 20
-17.05102
 30
0.0
 10
-11.69494
 20
-17.30537
 30
0.0
 10
-11.69494
 20
-17.30537
 30
0.0
 10
-11.69494
 20
-17.30537
 30
0.0
 10
-11.69494
 20
-17.30537
 30
0.0
 10
-11.69494
 20
-17.05102
 30
0.0
 10
-11.69494
 20
-17.05102
 30
0.0
 10
-11.69494
 20
-17.05102
 30
0.0
 10
-11.69494
 20
-17.05102
 30
0.0
 10
-11.80466
 20
-17.30537
 30
0.0
 10
-11.80466
 20
-17.30537
 30
0.0
 10
-11.80466
 20
-17.30537
 30
0.0
 10
-11.80466
 20
-17.30537
 30
0.0
 10
-11.91402
 20
-17.05102
 30
0.0
 10
-11.91402
 20
-17.05102
 30
0.0
 10
-11.91402
 20
-17.05102
 30
0.0
 10
-11.91402
 20
-17.05102
 30
0.0
 10
-11.91402
 20
-17.30537
 30
0.0
 10
-11.91402
 20
-17.30537
 30
0.0
  0
SPLINE
  5
68
330
1F
100
AcDbEntity
  8
Layer 1
 62
    30
370
     9
100
AcDbSpline
210
0.0
220
0.0
230
1.0
 70
    11
 71
     3
 72
    92
 73
    88
 74
     0
 42
0.0000000001
 43
0.0000000001
 40
0.0
 40
0.0
 40
0.0
 40
0.0
 40
0.0454545454545455
 40
0.0454545454545455
 40
0.0454545454545455
 40
0.0454545454545455
 40
0.0909090909090909
 40
0.0909090909090909
 40
0.0909090909090909
 40
0.0909090909090909
 40
0.1363636363636364
 40
0.1363636363636364
 40
0.1363636363636364
 40
0.1363636363636364
 40
0.1818181818181818
 40
0.1818181818181818
 40
0.1818181818181818
 40
0.1818181818181818
 40
0.2272727272727273
 40
0.2272727272727273
 40
0.2272727272727273
 40
0.2272727272727273
 40
0.2727272727272728
 40
0.2727272727272728
 40
0.2727272727272728
 40
0.2727272727272728
 40
0.3181818181818182
 40
0.3181818181818182
 40
0.3181818181818182
 40
0.3181818181818182
 40
0.3636363636363637
 40
0.3636363636363637
 40
0.3636363636363637
 40
0.3636363636363637
 40
0.4090909090909092
 40
0.4090909090909092
 40
0.4090909090909092
 40
0.4090909090909092
 40
0.4545454545454546
 40
0.4545454545454546
 40
0.4545454545454546
 40
0.4545454545454546
 40
0.5000000000000001
 40
0.5000000000000001
 40
0.5000000000000001
 40
0.5000000000000001
 40
0.5454545454545455
 40
0.5454545454545455
 40
0.5454545454545455
 40
0.5454545454545455
 40
0.5909090909090909
 40
0.5909090909090909
 40
0.5909090909090909
 40
0.5909090909090909
 40
0.6363636363636364
 40
0.6363636363636364
 40
0.6363636363636364
 40
0.6363636363636364
 40
0.6818181818181818
 40
0.6818181818181818
 40
0.6818181818181818
 40
0.6818181818181818
 40
0.7272727272727272
 40
0.7272727272727272
 40
0.7272727272727272
 40
0.7272727272727272
 40
0.7727272727272726
 40
0.7727272727272726
 40
0.7727272727272726
 40
0.7727272727272726
 40
0.818181818181818
 40
0.818181818181818
 40
0.818181818181818
 40
0.818181818181818
 40
0.8636363636363634
 40
0.8636363636363634
 40
0.8636363636363634
 40
0.8636363636363634
 40
0.9090909090909088
 40
0.9090909090909088
 40
0.9090909090909088
 40
0.9090909090909088
 40
0.9545454545454543
 40
0.9545454545454543
 40
0.9545454545454543
 40
0.9545454545454543
 40
1.0
 40
1.0
 40
1.0
 40
1.0
 10
-11.52843
 20
-17.30537
 30
0.0
 10
-11.52843
 20
-17.30537
 30
0.0
 10
-11.52843
 20
-17.05102
 30
0.0
 10
-11.52843
 20
-17.05102
 30
0.0
 10
-11.52843
 20
-17.05102
 30
0.0
 10
-11.52843
 20
-17.05102
 30
0.0
 10
-11.44729
 20
-17.05102
 30
0.0
 10
-11.44729
 20
-17.05102
 30
0.0
 10
-11.44729
 20
-17.05102
 30
0.0
 10
-11.43106
 20
-17.05107
 30
0.0
 10
-11.41772
 20
-17.0529
 30
0.0
 10
-11.40719
 20
-17.05642
 30
0.0
 10
-11.40719
 20
-17.05642
 30
0.0
 10
-11.39672
 20
-17.05989
 30
0.0
 10
-11.38849
 20
-17.06472
 30
0.0
 10
-11.38255
 20
-17.07083
 30
0.0
 10
-11.38255
 20
-17.07083
 30
0.0
 10
-11.37662
 20
-17.07689
 30
0.0
 10
-11.37238
 20
-17.08382
 30
0.0
 10
-11.3698
 20
-17.09164
 30
0.0
 10
-11.3698
 20
-17.09164
 30
0.0
 10
-11.36727
 20
-17.09946
 30
0.0
 10
-11.3658
 20
-17.10764
 30
0.0
 10
-11.36545
 20
-17.11628
 30
0.0
 10
-11.36545
 20
-17.11628
 30
0.0
 10
-11.36503
 20
-17.12492
 30
0.0
 10
-11.36603
 20
-17.13339
 30
0.0
 10
-11.36838
 20
-17.14162
 30
0.0
 10
-11.36838
 20
-17.14162
 30
0.0
 10
-11.3708
 20
-17.14985
 30
0.0
 10
-11.37485
 20
-17.15732
 30
0.0
 10
-11.38067
 20
-17.16402
 30
0.0
 10
-11.38067
 20
-17.16402
 30
0.0
 10
-11.38644
 20
-17.17073
 30
0.0
 10
-11.39426
 20
-17.17608
 30
0.0
 10
-11.40407
 20
-17.18002
 30
0.0
 10
-11.40407
 20
-17.18002
 30
0.0
 10
-11.41389
 20
-17.18401
 30
0.0
 10
-11.42606
 20
-17.18601
 30
0.0
 10
-11.44059
 20
-17.18613
 30
0.0
 10
-11.44059
 20
-17.18613
 30
0.0
 10
-11.44059
 20
-17.18613
 30
0.0
 10
-11.52843
 20
-17.18613
 30
0.0
 10
-11.52843
 20
-17.18613
 30
0.0
 10
-11.52843
 20
-17.18613
 30
0.0
 10
-11.52843
 20
-17.18613
 30
0.0
 10
-11.44059
 20
-17.18613
 30
0.0
 10
-11.44059
 20
-17.18613
 30
0.0
 10
-11.44059
 20
-17.18613
 30
0.0
 10
-11.42636
 20
-17.18601
 30
0.0
 10
-11.41431
 20
-17.18401
 30
0.0
 10
-11.40454
 20
-17.18002
 30
0.0
 10
-11.40454
 20
-17.18002
 30
0.0
 10
-11.39473
 20
-17.17608
 30
0.0
 10
-11.38691
 20
-17.17073
 30
0.0
 10
-11.38103
 20
-17.16402
 30
0.0
 10
-11.38103
 20
-17.16402
 30
0.0
 10
-11.37521
 20
-17.15732
 30
0.0
 10
-11.37103
 20
-17.14985
 30
0.0
 10
-11.36856
 20
-17.14162
 30
0.0
 10
-11.36856
 20
-17.14162
 30
0.0
 10
-11.36609
 20
-17.13339
 30
0.0
 10
-11.36503
 20
-17.12492
 30
0.0
 10
-11.36545
 20
-17.11628
 30
0.0
 10
-11.36545
 20
-17.11628
 30
0.0
 10
-11.3658
 20
-17.10764
 30
0.0
 10
-11.36727
 20
-17.09946
 30
0.0
 10
-11.36991
 20
-17.09164
 30
0.0
 10
-11.36991
 20
-17.09164
 30
0.0
 10
-11.3725
 20
-17.08382
 30
0.0
 10
-11.37685
 20
-17.07689
 30
0.0
 10
-11.38279
 20
-17.07083
 30
0.0
 10
-11.38279
 20
-17.07083
 30
0.0
 10
-11.38879
 20
-17.06472
 30
0.0
 10
-11.39702
 20
-17.05989
 30
0.0
 10
-11.40748
 20
-17.05642
 30
0.0
 10
-11.40748
 20
-17.05642
 30
0.0
 10
-11.41801
 20
-17.0529
 30
0.0
 10
-11.43124
 20
-17.05107
 30
0.0
 10
-11.44729
 20
-17.05102
 30
0.0
 10
-11.44729
 20
-17.05102
 30
0.0
 10
-11.44729
 20
-17.05102
 30
0.0
 10
-11.52843
 20
-17.05102
 30
0.0
 10
-11.52843
 20
-17.05102
 30
0.0
 10
-11.52843
 20
-17.05102
 30
0.0
 10
-11.52843
 20
-17.05102
 30
0.0
 10
-11.52843
 20
-17.30537
 30
0.0
 10
-11.52843
 20
-17.30537
 30
0.0
  0
SPLINE
  5
69
330
1F
100
AcDbEntity
  8
Layer 1
 62
    30
370
     9
100
AcDbSpline
210
0.0
220
0.0
230
1.0
 70
    27
 71
     3
 72
    12
 73
     8
 74
     0
 42
0.0000000001
 43
0.0000000001
 40
0.0
 40
0.0
 40
0.0
 40
0.0
 40
0.5
 40
0.5
 40
0.5
 40
0.5
 40
1.0
 40
1.0
 40
1.0
 40
1.0
 10
-11.27796
 20
-17.17237
 30
0.0
 10
-11.27796
 20
-17.17237
 30
0.0
 10
-11.1753
 20
-17.17237
 30
0.0
 10
-11.1753
 20
-17.17237
 30
0.0
 10
-11.1753
 20
-17.17237
 30
0.0
 10
-11.1753
 20
-17.17237
 30
0.0
 10
-11.27796
 20
-17.17237
 30
0.0
 10
-11.27796
 20
-17.17237
 30
0.0
  0
SPLINE
  5
6A
330
1F
100
AcDbEntity
  8
Layer 1
 62
    30
370
     9
100
AcDbSpline
210
0.0
220
0.0
230
1.0
 70
    11
 71
     3
 72
    92
 73
    88
 74
     0
 42
0.0000000001
 43
0.0000000001
 40
0.0
 40
0.0
 40
0.0
 40
0.0
 40
0.0454545454545455
 40
0.0454545454545455
 40
0.0454545454545455
 40
0.0454545454545455
 40
0.0909090909090909
 40
0.0909090909090909
 40
0.0909090909090909
 40
0.0909090909090909
 40
0.1363636363636364
 40
0.1363636363636364
 40
0.1363636363636364
 40
0.1363636363636364
 40
0.1818181818181818
 40
0.1818181818181818
 40
0.1818181818181818
 40
0.1818181818181818
 40
0.2272727272727273
 40
0.2272727272727273
 40
0.2272727272727273
 40
0.2272727272727273
 40
0.2727272727272728
 40
0.2727272727272728
 40
0.2727272727272728
 40
0.2727272727272728
 40
0.3181818181818182
 40
0.3181818181818182
 40
0.3181818181818182
 40
0.3181818181818182
 40
0.3636363636363637
 40
0.3636363636363637
 40
0.3636363636363637
 40
0.3636363636363637
 40
0.4090909090909092
 40
0.4090909090909092
 40
0.4090909090909092
 40
0.4090909090909092
 40
0.4545454545454546
 40
0.4545454545454546
 40
0.4545454545454546
 40
0.4545454545454546
 40
0.5000000000000001
 40
0.5000000000000001
 40
0.5000000000000001
 40
0.5000000000000001
 40
0.5454545454545455
 40
0.5454545454545455
 40
0.5454545454545455
 40
0.5454545454545455
 40
0.5909090909090909
 40
0.5909090909090909
 40
0.5909090909090909
 40
0.5909090909090909
 40
0.6363636363636364
 40
0.6363636363636364
 40
0.6363636363636364
 40
0.6363636363636364
 40
0.6818181818181818
 40
0.6818181818181818
 40
0.6818181818181818
 40
0.6818181818181818
 40
0.7272727272727272
 40
0.7272727272727272
 40
0.7272727272727272
 40
0.7272727272727272
 40
0.7727272727272726
 40
0.7727272727272726
 40
0.7727272727272726
 40
0.7727272727272726
 40
0.818181818181818
 40
0.818181818181818
 40
0.818181818181818
 40
0.818181818181818
 40
0.8636363636363634
 40
0.8636363636363634
 40
0.8636363636363634
 40
0.8636363636363634
 40
0.9090909090909088
 40
0.9090909090909088
 40
0.9090909090909088
 40
0.9090909090909088
 40
0.9545454545454543
 40
0.9545454545454543
 40
0.9545454545454543
 40
0.9545454545454543
 40
1.0
 40
1.0
 40
1.0
 40
1.0
 10
-11.05641
 20
-17.30537
 30
0.0
 10
-11.05641
 20
-17.30537
 30
0.0
 10
-11.05641
 20
-17.05102
 30
0.0
 10
-11.05641
 20
-17.05102
 30
0.0
 10
-11.05641
 20
-17.05102
 30
0.0
 10
-11.05641
 20
-17.05102
 30
0.0
 10
-10.97527
 20
-17.05102
 30
0.0
 10
-10.97527
 20
-17.05102
 30
0.0
 10
-10.97527
 20
-17.05102
 30
0.0
 10
-10.95904
 20
-17.05107
 30
0.0
 10
-10.9457
 20
-17.0529
 30
0.0
 10
-10.93517
 20
-17.05642
 30
0.0
 10
-10.93517
 20
-17.05642
 30
0.0
 10
-10.9247
 20
-17.05989
 30
0.0
 10
-10.91647
 20
-17.06472
 30
0.0
 10
-10.91053
 20
-17.07083
 30
0.0
 10
-10.91053
 20
-17.07083
 30
0.0
 10
-10.9046
 20
-17.07689
 30
0.0
 10
-10.90036
 20
-17.08382
 30
0.0
 10
-10.89778
 20
-17.09164
 30
0.0
 10
-10.89778
 20
-17.09164
 30
0.0
 10
-10.89525
 20
-17.09946
 30
0.0
 10
-10.89378
 20
-17.10764
 30
0.0
 10
-10.89343
 20
-17.11628
 30
0.0
 10
-10.89343
 20
-17.11628
 30
0.0
 10
-10.89301
 20
-17.12492
 30
0.0
 10
-10.89401
 20
-17.13339
 30
0.0
 10
-10.89636
 20
-17.14162
 30
0.0
 10
-10.89636
 20
-17.14162
 30
0.0
 10
-10.89878
 20
-17.14985
 30
0.0
 10
-10.90283
 20
-17.15732
 30
0.0
 10
-10.90865
 20
-17.16402
 30
0.0
 10
-10.90865
 20
-17.16402
 30
0.0
 10
-10.91442
 20
-17.17073
 30
0.0
 10
-10.92224
 20
-17.17608
 30
0.0
 10
-10.93205
 20
-17.18002
 30
0.0
 10
-10.93205
 20
-17.18002
 30
0.0
 10
-10.94187
 20
-17.18401
 30
0.0
 10
-10.95404
 20
-17.18601
 30
0.0
 10
-10.96857
 20
-17.18613
 30
0.0
 10
-10.96857
 20
-17.18613
 30
0.0
 10
-10.96857
 20
-17.18613
 30
0.0
 10
-11.05641
 20
-17.18613
 30
0.0
 10
-11.05641
 20
-17.18613
 30
0.0
 10
-11.05641
 20
-17.18613
 30
0.0
 10
-11.05641
 20
-17.18613
 30
0.0
 10
-10.96857
 20
-17.18613
 30
0.0
 10
-10.96857
 20
-17.18613
 30
0.0
 10
-10.96857
 20
-17.18613
 30
0.0
 10
-10.95434
 20
-17.18601
 30
0.0
 10
-10.94229
 20
-17.18401
 30
0.0
 10
-10.93252
 20
-17.18002
 30
0.0
 10
-10.93252
 20
-17.18002
 30
0.0
 10
-10.92271
 20
-17.17608
 30
0.0
 10
-10.91489
 20
-17.17073
 30
0.0
 10
-10.90901
 20
-17.16402
 30
0.0
 10
-10.90901
 20
-17.16402
 30
0.0
 10
-10.90319
 20
-17.15732
 30
0.0
 10
-10.89901
 20
-17.14985
 30
0.0
 10
-10.89654
 20
-17.14162
 30
0.0
 10
-10.89654
 20
-17.14162
 30
0.0
 10
-10.89407
 20
-17.13339
 30
0.0
 10
-10.89301
 20
-17.12492
 30
0.0
 10
-10.89343
 20
-17.11628
 30
0.0
 10
-10.89343
 20
-17.11628
 30
0.0
 10
-10.89378
 20
-17.10764
 30
0.0
 10
-10.89525
 20
-17.09946
 30
0.0
 10
-10.89789
 20
-17.09164
 30
0.0
 10
-10.89789
 20
-17.09164
 30
0.0
 10
-10.90048
 20
-17.08382
 30
0.0
 10
-10.90483
 20
-17.07689
 30
0.0
 10
-10.91077
 20
-17.07083
 30
0.0
 10
-10.91077
 20
-17.07083
 30
0.0
 10
-10.91677
 20
-17.06472
 30
0.0
 10
-10.925
 20
-17.05989
 30
0.0
 10
-10.93546
 20
-17.05642
 30
0.0
 10
-10.93546
 20
-17.05642
 30
0.0
 10
-10.94599
 20
-17.0529
 30
0.0
 10
-10.95922
 20
-17.05107
 30
0.0
 10
-10.97527
 20
-17.05102
 30
0.0
 10
-10.97527
 20
-17.05102
 30
0.0
 10
-10.97527
 20
-17.05102
 30
0.0
 10
-11.05641
 20
-17.05102
 30
0.0
 10
-11.05641
 20
-17.05102
 30
0.0
 10
-11.05641
 20
-17.05102
 30
0.0
 10
-11.05641
 20
-17.05102
 30
0.0
 10
-11.05641
 20
-17.30537
 30
0.0
 10
-11.05641
 20
-17.30537
 30
0.0
  0
SPLINE
  5
6B
330
1F
100
AcDbEntity
  8
Layer 1
 62
    30
370
     9
100
AcDbSpline
210
0.0
220
0.0
230
1.0
 70
    11
 71
     3
 72
    84
 73
    80
 74
     0
 42
0.0000000001
 43
0.0000000001
 40
0.0
 40
0.0
 40
0.0
 40
0.0
 40
0.05
 40
0.05
 40
0.05
 40
0.05
 40
0.1
 40
0.1
 40
0.1
 40
0.1
 40
0.15
 40
0.15
 40
0.15
 40
0.15
 40
0.2
 40
0.2
 40
0.2
 40
0.2
 40
0.25
 40
0.25
 40
0.25
 40
0.25
 40
0.3
 40
0.3
 40
0.3
 40
0.3
 40
0.35
 40
0.35
 40
0.35
 40
0.35
 40
0.4
 40
0.4
 40
0.4
 40
0.4
 40
0.45
 40
0.45
 40
0.45
 40
0.45
 40
0.4999999999999999
 40
0.4999999999999999
 40
0.4999999999999999
 40
0.4999999999999999
 40
0.5499999999999999
 40
0.5499999999999999
 40
0.5499999999999999
 40
0.5499999999999999
 40
0.6
 40
0.6
 40
0.6
 40
0.6
 40
0.65
 40
0.65
 40
0.65
 40
0.65
 40
0.7000000000000001
 40
0.7000000000000001
 40
0.7000000000000001
 40
0.7000000000000001
 40
0.7500000000000001
 40
0.7500000000000001
 40
0.7500000000000001
 40
0.7500000000000001
 40
0.8000000000000002
 40
0.8000000000000002
 40
0.8000000000000002
 40
0.8000000000000002
 40
0.8500000000000002
 40
0.8500000000000002
 40
0.8500000000000002
 40
0.8500000000000002
 40
0.9000000000000002
 40
0.9000000000000002
 40
0.9000000000000002
 40
0.9000000000000002
 40
0.9500000000000003
 40
0.9500000000000003
 40
0.9500000000000003
 40
0.9500000000000003
 40
1.0
 40
1.0
 40
1.0
 40
1.0
 10
-10.69376
 20
-17.30749
 30
0.0
 10
-10.68135
 20
-17.30755
 30
0.0
 10
-10.66959
 20
-17.30608
 30
0.0
 10
-10.65836
 20
-17.30319
 30
0.0
 10
-10.65836
 20
-17.30319
 30
0.0
 10
-10.64719
 20
-17.30025
 30
0.0
 10
-10.63696
 20
-17.29567
 30
0.0
 10
-10.62761
 20
-17.28932
 30
0.0
 10
-10.62761
 20
-17.28932
 30
0.0
 10
-10.61826
 20
-17.28303
 30
0.0
 10
-10.61015
 20
-17.27474
 30
0.0
 10
-10.60327
 20
-17.26451
 30
0.0
 10
-10.60327
 20
-17.26451
 30
0.0
 10
-10.59639
 20
-17.25428
 30
0.0
 10
-10.5911
 20
-17.24187
 30
0.0
 10
-10.58733
 20
-17.22729
 30
0.0
 10
-10.58733
 20
-17.22729
 30
0.0
 10
-10.58351
 20
-17.21271
 30
0.0
 10
-10.58163
 20
-17.19571
 30
0.0
 10
-10.58157
 20
-17.17625
 30
0.0
 10
-10.58157
 20
-17.17625
 30
0.0
 10
-10.58163
 20
-17.15679
 30
0.0
 10
-10.58351
 20
-17.1398
 30
0.0
 10
-10.58733
 20
-17.12516
 30
0.0
 10
-10.58733
 20
-17.12516
 30
0.0
 10
-10.5911
 20
-17.11052
 30
0.0
 10
-10.59639
 20
-17.09805
 30
0.0
 10
-10.60327
 20
-17.08776
 30
0.0
 10
-10.60327
 20
-17.08776
 30
0.0
 10
-10.61015
 20
-17.07747
 30
0.0
 10
-10.61826
 20
-17.06912
 30
0.0
 10
-10.62761
 20
-17.06272
 30
0.0
 10
-10.62761
 20
-17.06272
 30
0.0
 10
-10.63696
 20
-17.05631
 30
0.0
 10
-10.64719
 20
-17.05166
 30
0.0
 10
-10.65836
 20
-17.04866
 30
0.0
 10
-10.65836
 20
-17.04866
 30
0.0
 10
-10.66959
 20
-17.04572
 30
0.0
 10
-10.68135
 20
-17.04425
 30
0.0
 10
-10.69376
 20
-17.04431
 30
0.0
 10
-10.69376
 20
-17.04431
 30
0.0
 10
-10.70616
 20
-17.04425
 30
0.0
 10
-10.71792
 20
-17.04572
 30
0.0
 10
-10.72915
 20
-17.04866
 30
0.0
 10
-10.72915
 20
-17.04866
 30
0.0
 10
-10.74032
 20
-17.05166
 30
0.0
 10
-10.75055
 20
-17.05631
 30
0.0
 10
-10.7599
 20
-17.06272
 30
0.0
 10
-10.7599
 20
-17.06272
 30
0.0
 10
-10.76925
 20
-17.06912
 30
0.0
 10
-10.77736
 20
-17.07747
 30
0.0
 10
-10.78424
 20
-17.08776
 30
0.0
 10
-10.78424
 20
-17.08776
 30
0.0
 10
-10.79112
 20
-17.09805
 30
0.0
 10
-10.79641
 20
-17.11052
 30
0.0
 10
-10.80018
 20
-17.12516
 30
0.0
 10
-10.80018
 20
-17.12516
 30
0.0
 10
-10.804
 20
-17.1398
 30
0.0
 10
-10.80588
 20
-17.15679
 30
0.0
 10
-10.80594
 20
-17.17625
 30
0.0
 10
-10.80594
 20
-17.17625
 30
0.0
 10
-10.80588
 20
-17.19571
 30
0.0
 10
-10.804
 20
-17.21271
 30
0.0
 10
-10.80018
 20
-17.22729
 30
0.0
 10
-10.80018
 20
-17.22729
 30
0.0
 10
-10.79641
 20
-17.24187
 30
0.0
 10
-10.79112
 20
-17.25428
 30
0.0
 10
-10.78424
 20
-17.26451
 30
0.0
 10
-10.78424
 20
-17.26451
 30
0.0
 10
-10.77736
 20
-17.27474
 30
0.0
 10
-10.76925
 20
-17.28303
 30
0.0
 10
-10.7599
 20
-17.28932
 30
0.0
 10
-10.7599
 20
-17.28932
 30
0.0
 10
-10.75055
 20
-17.29567
 30
0.0
 10
-10.74032
 20
-17.30025
 30
0.0
 10
-10.72915
 20
-17.30319
 30
0.0
 10
-10.72915
 20
-17.30319
 30
0.0
 10
-10.71792
 20
-17.30608
 30
0.0
 10
-10.70616
 20
-17.30755
 30
0.0
 10
-10.69376
 20
-17.30749
 30
0.0
  0
SPLINE
  5
6C
330
1F
100
AcDbEntity
  8
Layer 1
 62
    30
370
     9
100
AcDbSpline
210
0.0
220
0.0
230
1.0
 70
    11
 71
     3
 72
    84
 73
    80
 74
     0
 42
0.0000000001
 43
0.0000000001
 40
0.0
 40
0.0
 40
0.0
 40
0.0
 40
0.05
 40
0.05
 40
0.05
 40
0.05
 40
0.1
 40
0.1
 40
0.1
 40
0.1
 40
0.15
 40
0.15
 40
0.15
 40
0.15
 40
0.2
 40
0.2
 40
0.2
 40
0.2
 40
0.25
 40
0.25
 40
0.25
 40
0.25
 40
0.3
 40
0.3
 40
0.3
 40
0.3
 40
0.35
 40
0.35
 40
0.35
 40
0.35
 40
0.4
 40
0.4
 40
0.4
 40
0.4
 40
0.45
 40
0.45
 40
0.45
 40
0.45
 40
0.4999999999999999
 40
0.4999999999999999
 40
0.4999999999999999
 40
0.4999999999999999
 40
0.5499999999999999
 40
0.5499999999999999
 40
0.5499999999999999
 40
0.5499999999999999
 40
0.6
 40
0.6
 40
0.6
 40
0.6
 40
0.65
 40
0.65
 40
0.65
 40
0.65
 40
0.7000000000000001
 40
0.7000000000000001
 40
0.7000000000000001
 40
0.7000000000000001
 40
0.7500000000000001
 40
0.7500000000000001
 40
0.7500000000000001
 40
0.7500000000000001
 40
0.8000000000000002
 40
0.8000000000000002
 40
0.8000000000000002
 40
0.8000000000000002
 40
0.8500000000000002
 40
0.8500000000000002
 40
0.8500000000000002
 40
0.8500000000000002
 40
0.9000000000000002
 40
0.9000000000000002
 40
0.9000000000000002
 40
0.9000000000000002
 40
0.9500000000000003
 40
0.9500000000000003
 40
0.9500000000000003
 40
0.9500000000000003
 40
1.0
 40
1.0
 40
1.0
 40
1.0
 10
-10.69376
 20
-17.30749
 30
0.0
 10
-10.68135
 20
-17.30755
 30
0.0
 10
-10.66959
 20
-17.30608
 30
0.0
 10
-10.65836
 20
-17.30319
 30
0.0
 10
-10.65836
 20
-17.30319
 30
0.0
 10
-10.64719
 20
-17.30025
 30
0.0
 10
-10.63696
 20
-17.29567
 30
0.0
 10
-10.62761
 20
-17.28932
 30
0.0
 10
-10.62761
 20
-17.28932
 30
0.0
 10
-10.61826
 20
-17.28303
 30
0.0
 10
-10.61015
 20
-17.27474
 30
0.0
 10
-10.60327
 20
-17.26451
 30
0.0
 10
-10.60327
 20
-17.26451
 30
0.0
 10
-10.59639
 20
-17.25428
 30
0.0
 10
-10.5911
 20
-17.24187
 30
0.0
 10
-10.58733
 20
-17.22729
 30
0.0
 10
-10.58733
 20
-17.22729
 30
0.0
 10
-10.58351
 20
-17.21271
 30
0.0
 10
-10.58163
 20
-17.19571
 30
0.0
 10
-10.58157
 20
-17.17625
 30
0.0
 10
-10.58157
 20
-17.17625
 30
0.0
 10
-10.58163
 20
-17.15679
 30
0.0
 10
-10.58351
 20
-17.1398
 30
0.0
 10
-10.58733
 20
-17.12516
 30
0.0
 10
-10.58733
 20
-17.12516
 30
0.0
 10
-10.5911
 20
-17.11052
 30
0.0
 10
-10.59639
 20
-17.09805
 30
0.0
 10
-10.60327
 20
-17.08776
 30
0.0
 10
-10.60327
 20
-17.08776
 30
0.0
 10
-10.61015
 20
-17.07747
 30
0.0
 10
-10.61826
 20
-17.06912
 30
0.0
 10
-10.62761
 20
-17.06272
 30
0.0
 10
-10.62761
 20
-17.06272
 30
0.0
 10
-10.63696
 20
-17.05631
 30
0.0
 10
-10.64719
 20
-17.05166
 30
0.0
 10
-10.65836
 20
-17.04866
 30
0.0
 10
-10.65836
 20
-17.04866
 30
0.0
 10
-10.66959
 20
-17.04572
 30
0.0
 10
-10.68135
 20
-17.04425
 30
0.0
 10
-10.69376
 20
-17.04431
 30
0.0
 10
-10.69376
 20
-17.04431
 30
0.0
 10
-10.70616
 20
-17.04425
 30
0.0
 10
-10.71792
 20
-17.04572
 30
0.0
 10
-10.72915
 20
-17.04866
 30
0.0
 10
-10.72915
 20
-17.04866
 30
0.0
 10
-10.74032
 20
-17.05166
 30
0.0
 10
-10.75055
 20
-17.05631
 30
0.0
 10
-10.7599
 20
-17.06272
 30
0.0
 10
-10.7599
 20
-17.06272
 30
0.0
 10
-10.76925
 20
-17.06912
 30
0.0
 10
-10.77736
 20
-17.07747
 30
0.0
 10
-10.78424
 20
-17.08776
 30
0.0
 10
-10.78424
 20
-17.08776
 30
0.0
 10
-10.79112
 20
-17.09805
 30
0.0
 10
-10.79641
 20
-17.11052
 30
0.0
 10
-10.80018
 20
-17.12516
 30
0.0
 10
-10.80018
 20
-17.12516
 30
0.0
 10
-10.804
 20
-17.1398
 30
0.0
 10
-10.80588
 20
-17.15679
 30
0.0
 10
-10.80594
 20
-17.17625
 30
0.0
 10
-10.80594
 20
-17.17625
 30
0.0
 10
-10.80588
 20
-17.19571
 30
0.0
 10
-10.804
 20
-17.21271
 30
0.0
 10
-10.80018
 20
-17.22729
 30
0.0
 10
-10.80018
 20
-17.22729
 30
0.0
 10
-10.79641
 20
-17.24187
 30
0.0
 10
-10.79112
 20
-17.25428
 30
0.0
 10
-10.78424
 20
-17.26451
 30
0.0
 10
-10.78424
 20
-17.26451
 30
0.0
 10
-10.77736
 20
-17.27474
 30
0.0
 10
-10.76925
 20
-17.28303
 30
0.0
 10
-10.7599
 20
-17.28932
 30
0.0
 10
-10.7599
 20
-17.28932
 30
0.0
 10
-10.75055
 20
-17.29567
 30
0.0
 10
-10.74032
 20
-17.30025
 30
0.0
 10
-10.72915
 20
-17.30319
 30
0.0
 10
-10.72915
 20
-17.30319
 30
0.0
 10
-10.71792
 20
-17.30608
 30
0.0
 10
-10.70616
 20
-17.30755
 30
0.0
 10
-10.69376
 20
-17.30749
 30
0.0
  0
SPLINE
  5
6D
330
1F
100
AcDbEntity
  8
Layer 1
 62
    30
370
     9
100
AcDbSpline
210
0.0
220
0.0
230
1.0
 70
    11
 71
     3
 72
    24
 73
    20
 74
     0
 42
0.0000000001
 43
0.0000000001
 40
0.0
 40
0.0
 40
0.0
 40
0.0
 40
0.2
 40
0.2
 40
0.2
 40
0.2
 40
0.4
 40
0.4
 40
0.4
 40
0.4
 40
0.6000000000000001
 40
0.6000000000000001
 40
0.6000000000000001
 40
0.6000000000000001
 40
0.8
 40
0.8
 40
0.8
 40
0.8
 40
1.0
 40
1.0
 40
1.0
 40
1.0
 10
-10.40307
 20
-17.30537
 30
0.0
 10
-10.40307
 20
-17.30537
 30
0.0
 10
-10.40307
 20
-17.05102
 30
0.0
 10
-10.40307
 20
-17.05102
 30
0.0
 10
-10.40307
 20
-17.05102
 30
0.0
 10
-10.40307
 20
-17.05102
 30
0.0
 10
-10.49444
 20
-17.05102
 30
0.0
 10
-10.49444
 20
-17.05102
 30
0.0
 10
-10.49444
 20
-17.05102
 30
0.0
 10
-10.49444
 20
-17.05102
 30
0.0
 10
-10.31099
 20
-17.05102
 30
0.0
 10
-10.31099
 20
-17.05102
 30
0.0
 10
-10.31099
 20
-17.05102
 30
0.0
 10
-10.31099
 20
-17.05102
 30
0.0
 10
-10.40307
 20
-17.05102
 30
0.0
 10
-10.40307
 20
-17.05102
 30
0.0
 10
-10.40307
 20
-17.05102
 30
0.0
 10
-10.40307
 20
-17.05102
 30
0.0
 10
-10.40307
 20
-17.30537
 30
0.0
 10
-10.40307
 20
-17.30537
 30
0.0
  0
SPLINE
  5
6E
330
1F
100
AcDbEntity
  8
Layer 1
 62
    30
370
     9
100
AcDbSpline
210
0.0
220
0.0
230
1.0
 70
    27
 71
     3
 72
    12
 73
     8
 74
     0
 42
0.0000000001
 43
0.0000000001
 40
0.0
 40
0.0
 40
0.0
 40
0.0
 40
0.5
 40
0.5
 40
0.5
 40
0.5
 40
1.0
 40
1.0
 40
1.0
 40
1.0
 10
-10.22597
 20
-17.17237
 30
0.0
 10
-10.22597
 20
-17.17237
 30
0.0
 10
-10.12331
 20
-17.17237
 30
0.0
 10
-10.12331
 20
-17.17237
 30
0.0
 10
-10.12331
 20
-17.17237
 30
0.0
 10
-10.12331
 20
-17.17237
 30
0.0
 10
-10.22597
 20
-17.17237
 30
0.0
 10
-10.22597
 20
-17.17237
 30
0.0
  0
SPLINE
  5
6F
330
1F
100
AcDbEntity
  8
Layer 1
 62
    30
370
     9
100
AcDbSpline
210
0.0
220
0.0
230
1.0
 70
    11
 71
     3
 72
    84
 73
    80
 74
     0
 42
0.0000000001
 43
0.0000000001
 40
0.0
 40
0.0
 40
0.0
 40
0.0
 40
0.05
 40
0.05
 40
0.05
 40
0.05
 40
0.1
 40
0.1
 40
0.1
 40
0.1
 40
0.15
 40
0.15
 40
0.15
 40
0.15
 40
0.2
 40
0.2
 40
0.2
 40
0.2
 40
0.25
 40
0.25
 40
0.25
 40
0.25
 40
0.3
 40
0.3
 40
0.3
 40
0.3
 40
0.35
 40
0.35
 40
0.35
 40
0.35
 40
0.4
 40
0.4
 40
0.4
 40
0.4
 40
0.45
 40
0.45
 40
0.45
 40
0.45
 40
0.4999999999999999
 40
0.4999999999999999
 40
0.4999999999999999
 40
0.4999999999999999
 40
0.5499999999999999
 40
0.5499999999999999
 40
0.5499999999999999
 40
0.5499999999999999
 40
0.6
 40
0.6
 40
0.6
 40
0.6
 40
0.65
 40
0.65
 40
0.65
 40
0.65
 40
0.7000000000000001
 40
0.7000000000000001
 40
0.7000000000000001
 40
0.7000000000000001
 40
0.7500000000000001
 40
0.7500000000000001
 40
0.7500000000000001
 40
0.7500000000000001
 40
0.8000000000000002
 40
0.8000000000000002
 40
0.8000000000000002
 40
0.8000000000000002
 40
0.8500000000000002
 40
0.8500000000000002
 40
0.8500000000000002
 40
0.8500000000000002
 40
0.9000000000000002
 40
0.9000000000000002
 40
0.9000000000000002
 40
0.9000000000000002
 40
0.9500000000000003
 40
0.9500000000000003
 40
0.9500000000000003
 40
0.9500000000000003
 40
1.0
 40
1.0
 40
1.0
 40
1.0
 10
-9.96561
 20
-17.30537
 30
0.0
 10
-9.95327
 20
-17.30531
 30
0.0
 10
-9.94262
 20
-17.30314
 30
0.0
 10
-9.93375
 20
-17.2989
 30
0.0
 10
-9.93375
 20
-17.2989
 30
0.0
 10
-9.92493
 20
-17.29467
 30
0.0
 10
-9.91758
 20
-17.28861
 30
0.0
 10
-9.9117
 20
-17.28091
 30
0.0
 10
-9.9117
 20
-17.28091
 30
0.0
 10
-9.90588
 20
-17.27315
 30
0.0
 10
-9.90129
 20
-17.26398
 30
0.0
 10
-9.89788
 20
-17.25339
 30
0.0
 10
-9.89788
 20
-17.25339
 30
0.0
 10
-9.89453
 20
-17.24281
 30
0.0
 10
-9.89212
 20
-17.23123
 30
0.0
 10
-9.89077
 20
-17.21853
 30
0.0
 10
-9.89077
 20
-17.21853
 30
0.0
 10
-9.88935
 20
-17.20583
 30
0.0
 10
-9.88865
 20
-17.19248
 30
0.0
 10
-9.88871
 20
-17.17837
 30
0.0
 10
-9.88871
 20
-17.17837
 30
0.0
 10
-9.88865
 20
-17.16432
 30
0.0
 10
-9.88935
 20
-17.15097
 30
0.0
 10
-9.89077
 20
-17.13833
 30
0.0
 10
-9.89077
 20
-17.13833
 30
0.0
 10
-9.89212
 20
-17.12569
 30
0.0
 10
-9.89453
 20
-17.11405
 30
0.0
 10
-9.89788
 20
-17.10346
 30
0.0
 10
-9.89788
 20
-17.10346
 30
0.0
 10
-9.90129
 20
-17.09294
 30
0.0
 10
-9.90588
 20
-17.08377
 30
0.0
 10
-9.9117
 20
-17.07595
 30
0.0
 10
-9.9117
 20
-17.07595
 30
0.0
 10
-9.91758
 20
-17.06818
 30
0.0
 10
-9.92493
 20
-17.06213
 30
0.0
 10
-9.93375
 20
-17.05789
 30
0.0
 10
-9.93375
 20
-17.05789
 30
0.0
 10
-9.94262
 20
-17.0536
 30
0.0
 10
-9.95327
 20
-17.05143
 30
0.0
 10
-9.96561
 20
-17.05137
 30
0.0
 10
-9.96561
 20
-17.05137
 30
0.0
 10
-9.97796
 20
-17.05143
 30
0.0
 10
-9.9886
 20
-17.0536
 30
0.0
 10
-9.99748
 20
-17.05789
 30
0.0
 10
-9.99748
 20
-17.05789
 30
0.0
 10
-10.0063
 20
-17.06213
 30
0.0
 10
-10.01365
 20
-17.06818
 30
0.0
 10
-10.01953
 20
-17.07595
 30
0.0
 10
-10.01953
 20
-17.07595
 30
0.0
 10
-10.02535
 20
-17.08377
 30
0.0
 10
-10.02994
 20
-17.09294
 30
0.0
 10
-10.03335
 20
-17.10346
 30
0.0
 10
-10.03335
 20
-17.10346
 30
0.0
 10
-10.0367
 20
-17.11405
 30
0.0
 10
-10.03911
 20
-17.12569
 30
0.0
 10
-10.04046
 20
-17.13833
 30
0.0
 10
-10.04046
 20
-17.13833
 30
0.0
 10
-10.04187
 20
-17.15097
 30
0.0
 10
-10.04258
 20
-17.16432
 30
0.0
 10
-10.04252
 20
-17.17837
 30
0.0
 10
-10.04252
 20
-17.17837
 30
0.0
 10
-10.04258
 20
-17.19248
 30
0.0
 10
-10.04187
 20
-17.20583
 30
0.0
 10
-10.04046
 20
-17.21853
 30
0.0
 10
-10.04046
 20
-17.21853
 30
0.0
 10
-10.03911
 20
-17.23123
 30
0.0
 10
-10.0367
 20
-17.24281
 30
0.0
 10
-10.03335
 20
-17.25339
 30
0.0
 10
-10.03335
 20
-17.25339
 30
0.0
 10
-10.02994
 20
-17.26398
 30
0.0
 10
-10.02535
 20
-17.27315
 30
0.0
 10
-10.01953
 20
-17.28091
 30
0.0
 10
-10.01953
 20
-17.28091
 30
0.0
 10
-10.01365
 20
-17.28861
 30
0.0
 10
-10.0063
 20
-17.29467
 30
0.0
 10
-9.99748
 20
-17.2989
 30
0.0
 10
-9.99748
 20
-17.2989
 30
0.0
 10
-9.9886
 20
-17.30314
 30
0.0
 10
-9.97796
 20
-17.30531
 30
0.0
 10
-9.96561
 20
-17.30537
 30
0.0
  0
SPLINE
  5
70
330
1F
100
AcDbEntity
  8
Layer 1
 62
    30
370
     9
100
AcDbSpline
210
0.0
220
0.0
230
1.0
 70
    11
 71
     3
 72
    84
 73
    80
 74
     0
 42
0.0000000001
 43
0.0000000001
 40
0.0
 40
0.0
 40
0.0
 40
0.0
 40
0.05
 40
0.05
 40
0.05
 40
0.05
 40
0.1
 40
0.1
 40
0.1
 40
0.1
 40
0.15
 40
0.15
 40
0.15
 40
0.15
 40
0.2
 40
0.2
 40
0.2
 40
0.2
 40
0.25
 40
0.25
 40
0.25
 40
0.25
 40
0.3
 40
0.3
 40
0.3
 40
0.3
 40
0.35
 40
0.35
 40
0.35
 40
0.35
 40
0.4
 40
0.4
 40
0.4
 40
0.4
 40
0.45
 40
0.45
 40
0.45
 40
0.45
 40
0.4999999999999999
 40
0.4999999999999999
 40
0.4999999999999999
 40
0.4999999999999999
 40
0.5499999999999999
 40
0.5499999999999999
 40
0.5499999999999999
 40
0.5499999999999999
 40
0.6
 40
0.6
 40
0.6
 40
0.6
 40
0.65
 40
0.65
 40
0.65
 40
0.65
 40
0.7000000000000001
 40
0.7000000000000001
 40
0.7000000000000001
 40
0.7000000000000001
 40
0.7500000000000001
 40
0.7500000000000001
 40
0.7500000000000001
 40
0.7500000000000001
 40
0.8000000000000002
 40
0.8000000000000002
 40
0.8000000000000002
 40
0.8000000000000002
 40
0.8500000000000002
 40
0.8500000000000002
 40
0.8500000000000002
 40
0.8500000000000002
 40
0.9000000000000002
 40
0.9000000000000002
 40
0.9000000000000002
 40
0.9000000000000002
 40
0.9500000000000003
 40
0.9500000000000003
 40
0.9500000000000003
 40
0.9500000000000003
 40
1.0
 40
1.0
 40
1.0
 40
1.0
 10
-9.96561
 20
-17.30537
 30
0.0
 10
-9.95327
 20
-17.30531
 30
0.0
 10
-9.94262
 20
-17.30314
 30
0.0
 10
-9.93375
 20
-17.2989
 30
0.0
 10
-9.93375
 20
-17.2989
 30
0.0
 10
-9.92493
 20
-17.29467
 30
0.0
 10
-9.91758
 20
-17.28861
 30
0.0
 10
-9.9117
 20
-17.28091
 30
0.0
 10
-9.9117
 20
-17.28091
 30
0.0
 10
-9.90588
 20
-17.27315
 30
0.0
 10
-9.90129
 20
-17.26398
 30
0.0
 10
-9.89788
 20
-17.25339
 30
0.0
 10
-9.89788
 20
-17.25339
 30
0.0
 10
-9.89453
 20
-17.24281
 30
0.0
 10
-9.89212
 20
-17.23123
 30
0.0
 10
-9.89077
 20
-17.21853
 30
0.0
 10
-9.89077
 20
-17.21853
 30
0.0
 10
-9.88935
 20
-17.20583
 30
0.0
 10
-9.88865
 20
-17.19248
 30
0.0
 10
-9.88871
 20
-17.17837
 30
0.0
 10
-9.88871
 20
-17.17837
 30
0.0
 10
-9.88865
 20
-17.16432
 30
0.0
 10
-9.88935
 20
-17.15097
 30
0.0
 10
-9.89077
 20
-17.13833
 30
0.0
 10
-9.89077
 20
-17.13833
 30
0.0
 10
-9.89212
 20
-17.12569
 30
0.0
 10
-9.89453
 20
-17.11405
 30
0.0
 10
-9.89788
 20
-17.10346
 30
0.0
 10
-9.89788
 20
-17.10346
 30
0.0
 10
-9.90129
 20
-17.09294
 30
0.0
 10
-9.90588
 20
-17.08377
 30
0.0
 10
-9.9117
 20
-17.07595
 30
0.0
 10
-9.9117
 20
-17.07595
 30
0.0
 10
-9.91758
 20
-17.06818
 30
0.0
 10
-9.92493
 20
-17.06213
 30
0.0
 10
-9.93375
 20
-17.05789
 30
0.0
 10
-9.93375
 20
-17.05789
 30
0.0
 10
-9.94262
 20
-17.0536
 30
0.0
 10
-9.95327
 20
-17.05143
 30
0.0
 10
-9.96561
 20
-17.05137
 30
0.0
 10
-9.96561
 20
-17.05137
 30
0.0
 10
-9.97796
 20
-17.05143
 30
0.0
 10
-9.9886
 20
-17.0536
 30
0.0
 10
-9.99748
 20
-17.05789
 30
0.0
 10
-9.99748
 20
-17.05789
 30
0.0
 10
-10.0063
 20
-17.06213
 30
0.0
 10
-10.01365
 20
-17.06818
 30
0.0
 10
-10.01953
 20
-17.07595
 30
0.0
 10
-10.01953
 20
-17.07595
 30
0.0
 10
-10.02535
 20
-17.08377
 30
0.0
 10
-10.02994
 20
-17.09294
 30
0.0
 10
-10.03335
 20
-17.10346
 30
0.0
 10
-10.03335
 20
-17.10346
 30
0.0
 10
-10.0367
 20
-17.11405
 30
0.0
 10
-10.03911
 20
-17.12569
 30
0.0
 10
-10.04046
 20
-17.13833
 30
0.0
 10
-10.04046
 20
-17.13833
 30
0.0
 10
-10.04187
 20
-17.15097
 30
0.0
 10
-10.04258
 20
-17.16432
 30
0.0
 10
-10.04252
 20
-17.17837
 30
0.0
 10
-10.04252
 20
-17.17837
 30
0.0
 10
-10.04258
 20
-17.19248
 30
0.0
 10
-10.04187
 20
-17.20583
 30
0.0
 10
-10.04046
 20
-17.21853
 30
0.0
 10
-10.04046
 20
-17.21853
 30
0.0
 10
-10.03911
 20
-17.23123
 30
0.0
 10
-10.0367
 20
-17.24281
 30
0.0
 10
-10.03335
 20
-17.25339
 30
0.0
 10
-10.03335
 20
-17.25339
 30
0.0
 10
-10.02994
 20
-17.26398
 30
0.0
 10
-10.02535
 20
-17.27315
 30
0.0
 10
-10.01953
 20
-17.28091
 30
0.0
 10
-10.01953
 20
-17.28091
 30
0.0
 10
-10.01365
 20
-17.28861
 30
0.0
 10
-10.0063
 20
-17.29467
 30
0.0
 10
-9.99748
 20
-17.2989
 30
0.0
 10
-9.99748
 20
-17.2989
 30
0.0
 10
-9.9886
 20
-17.30314
 30
0.0
 10
-9.97796
 20
-17.30531
 30
0.0
 10
-9.96561
 20
-17.30537
 30
0.0
  0
SPLINE
  5
71
330
1F
100
AcDbEntity
  8
Layer 1
 62
    30
370
     9
100
AcDbSpline
210
0.0
220
0.0
230
1.0
 70
    11
 71
     3
 72
   180
 73
   176
 74
     0
 42
0.0000000001
 43
0.0000000001
 40
0.0
 40
0.0
 40
0.0
 40
0.0
 40
0.0227272727272727
 40
0.0227272727272727
 40
0.0227272727272727
 40
0.0227272727272727
 40
0.0454545454545455
 40
0.0454545454545455
 40
0.0454545454545455
 40
0.0454545454545455
 40
0.0681818181818182
 40
0.0681818181818182
 40
0.0681818181818182
 40
0.0681818181818182
 40
0.0909090909090909
 40
0.0909090909090909
 40
0.0909090909090909
 40
0.0909090909090909
 40
0.1136363636363636
 40
0.1136363636363636
 40
0.1136363636363636
 40
0.1136363636363636
 40
0.1363636363636364
 40
0.1363636363636364
 40
0.1363636363636364
 40
0.1363636363636364
 40
0.1590909090909091
 40
0.1590909090909091
 40
0.1590909090909091
 40
0.1590909090909091
 40
0.1818181818181819
 40
0.1818181818181819
 40
0.1818181818181819
 40
0.1818181818181819
 40
0.2045454545454546
 40
0.2045454545454546
 40
0.2045454545454546
 40
0.2045454545454546
 40
0.2272727272727273
 40
0.2272727272727273
 40
0.2272727272727273
 40
0.2272727272727273
 40
0.2500000000000001
 40
0.2500000000000001
 40
0.2500000000000001
 40
0.2500000000000001
 40
0.2727272727272728
 40
0.2727272727272728
 40
0.2727272727272728
 40
0.2727272727272728
 40
0.2954545454545455
 40
0.2954545454545455
 40
0.2954545454545455
 40
0.2954545454545455
 40
0.3181818181818182
 40
0.3181818181818182
 40
0.3181818181818182
 40
0.3181818181818182
 40
0.3409090909090909
 40
0.3409090909090909
 40
0.3409090909090909
 40
0.3409090909090909
 40
0.3636363636363636
 40
0.3636363636363636
 40
0.3636363636363636
 40
0.3636363636363636
 40
0.3863636363636363
 40
0.3863636363636363
 40
0.3863636363636363
 40
0.3863636363636363
 40
0.409090909090909
 40
0.409090909090909
 40
0.409090909090909
 40
0.409090909090909
 40
0.4318181818181817
 40
0.4318181818181817
 40
0.4318181818181817
 40
0.4318181818181817
 40
0.4545454545454544
 40
0.4545454545454544
 40
0.4545454545454544
 40
0.4545454545454544
 40
0.4772727272727271
 40
0.4772727272727271
 40
0.4772727272727271
 40
0.4772727272727271
 40
0.4999999999999998
 40
0.4999999999999998
 40
0.4999999999999998
 40
0.4999999999999998
 40
0.5227272727272726
 40
0.5227272727272726
 40
0.5227272727272726
 40
0.5227272727272726
 40
0.5454545454545453
 40
0.5454545454545453
 40
0.5454545454545453
 40
0.5454545454545453
 40
0.568181818181818
 40
0.568181818181818
 40
0.568181818181818
 40
0.568181818181818
 40
0.5909090909090907
 40
0.5909090909090907
 40
0.5909090909090907
 40
0.5909090909090907
 40
0.6136363636363634
 40
0.6136363636363634
 40
0.6136363636363634
 40
0.6136363636363634
 40
0.6363636363636361
 40
0.6363636363636361
 40
0.6363636363636361
 40
0.6363636363636361
 40
0.6590909090909088
 40
0.6590909090909088
 40
0.6590909090909088
 40
0.6590909090909088
 40
0.6818181818181815
 40
0.6818181818181815
 40
0.6818181818181815
 40
0.6818181818181815
 40
0.7045454545454543
 40
0.7045454545454543
 40
0.7045454545454543
 40
0.7045454545454543
 40
0.727272727272727
 40
0.727272727272727
 40
0.727272727272727
 40
0.727272727272727
 40
0.7499999999999997
 40
0.7499999999999997
 40
0.7499999999999997
 40
0.7499999999999997
 40
0.7727272727272724
 40
0.7727272727272724
 40
0.7727272727272724
 40
0.7727272727272724
 40
0.7954545454545451
 40
0.7954545454545451
 40
0.7954545454545451
 40
0.7954545454545451
 40
0.8181818181818178
 40
0.8181818181818178
 40
0.8181818181818178
 40
0.8181818181818178
 40
0.8409090909090905
 40
0.8409090909090905
 40
0.8409090909090905
 40
0.8409090909090905
 40
0.8636363636363632
 40
0.8636363636363632
 40
0.8636363636363632
 40
0.8636363636363632
 40
0.8863636363636359
 40
0.8863636363636359
 40
0.8863636363636359
 40
0.8863636363636359
 40
0.9090909090909086
 40
0.9090909090909086
 40
0.9090909090909086
 40
0.9090909090909086
 40
0.9318181818181813
 40
0.9318181818181813
 40
0.9318181818181813
 40
0.9318181818181813
 40
0.954545454545454
 40
0.954545454545454
 40
0.954545454545454
 40
0.954545454545454
 40
0.9772727272727267
 40
0.9772727272727267
 40
0.9772727272727267
 40
0.9772727272727267
 40
1.0
 40
1.0
 40
1.0
 40
1.0
 10
-9.8051
 20
-17.24152
 30
0.0
 10
-9.80504
 20
-17.25422
 30
0.0
 10
-9.8021
 20
-17.26527
 30
0.0
 10
-9.79628
 20
-17.27485
 30
0.0
 10
-9.79628
 20
-17.27485
 30
0.0
 10
-9.79046
 20
-17.28438
 30
0.0
 10
-9.78217
 20
-17.29185
 30
0.0
 10
-9.77135
 20
-17.2972
 30
0.0
 10
-9.77135
 20
-17.2972
 30
0.0
 10
-9.76053
 20
-17.30255
 30
0.0
 10
-9.74754
 20
-17.30525
 30
0.0
 10
-9.73243
 20
-17.30537
 30
0.0
 10
-9.73243
 20
-17.30537
 30
0.0
 10
-9.72108
 20
-17.30537
 30
0.0
 10
-9.71079
 20
-17.30419
 30
0.0
 10
-9.70144
 20
-17.30172
 30
0.0
 10
-9.70144
 20
-17.30172
 30
0.0
 10
-9.69215
 20
-17.29926
 30
0.0
 10
-9.68416
 20
-17.29543
 30
0.0
 10
-9.67739
 20
-17.2902
 30
0.0
 10
-9.67739
 20
-17.2902
 30
0.0
 10
-9.67063
 20
-17.28497
 30
0.0
 10
-9.66546
 20
-17.27821
 30
0.0
 10
-9.66175
 20
-17.26997
 30
0.0
 10
-9.66175
 20
-17.26997
 30
0.0
 10
-9.65811
 20
-17.26168
 30
0.0
 10
-9.65629
 20
-17.25175
 30
0.0
 10
-9.65623
 20
-17.24011
 30
0.0
 10
-9.65623
 20
-17.24011
 30
0.0
 10
-9.65617
 20
-17.22458
 30
0.0
 10
-9.65934
 20
-17.21147
 30
0.0
 10
-9.66563
 20
-17.20083
 30
0.0
 10
-9.66563
 20
-17.20083
 30
0.0
 10
-9.67193
 20
-17.19019
 30
0.0
 10
-9.68169
 20
-17.18219
 30
0.0
 10
-9.6948
 20
-17.17672
 30
0.0
 10
-9.6948
 20
-17.17672
 30
0.0
 10
-9.70791
 20
-17.17125
 30
0.0
 10
-9.72472
 20
-17.16849
 30
0.0
 10
-9.74513
 20
-17.16849
 30
0.0
 10
-9.74513
 20
-17.16849
 30
0.0
 10
-9.7299
 20
-17.16855
 30
0.0
 10
-9.71714
 20
-17.16714
 30
0.0
 10
-9.70673
 20
-17.16426
 30
0.0
 10
-9.70673
 20
-17.16426
 30
0.0
 10
-9.69638
 20
-17.16138
 30
0.0
 10
-9.68809
 20
-17.15732
 30
0.0
 10
-9.68186
 20
-17.15203
 30
0.0
 10
-9.68186
 20
-17.15203
 30
0.0
 10
-9.67563
 20
-17.1468
 30
0.0
 10
-9.6711
 20
-17.14056
 30
0.0
 10
-9.6684
 20
-17.13339
 30
0.0
 10
-9.6684
 20
-17.13339
 30
0.0
 10
-9.66563
 20
-17.12628
 30
0.0
 10
-9.66428
 20
-17.11846
 30
0.0
 10
-9.66434
 20
-17.10993
 30
0.0
 10
-9.66434
 20
-17.10993
 30
0.0
 10
-9.66428
 20
-17.1014
 30
0.0
 10
-9.66546
 20
-17.09353
 30
0.0
 10
-9.66781
 20
-17.08623
 30
0.0
 10
-9.66781
 20
-17.08623
 30
0.0
 10
-9.6701
 20
-17.07894
 30
0.0
 10
-9.67387
 20
-17.07254
 30
0.0
 10
-9.67898
 20
-17.06707
 30
0.0
 10
-9.67898
 20
-17.06707
 30
0.0
 10
-9.6841
 20
-17.0616
 30
0.0
 10
-9.69086
 20
-17.05731
 30
0.0
 10
-9.69915
 20
-17.05425
 30
0.0
 10
-9.69915
 20
-17.05425
 30
0.0
 10
-9.7075
 20
-17.05119
 30
0.0
 10
-9.71767
 20
-17.04966
 30
0.0
 10
-9.7296
 20
-17.0496
 30
0.0
 10
-9.7296
 20
-17.0496
 30
0.0
 10
-9.74148
 20
-17.04966
 30
0.0
 10
-9.75189
 20
-17.05143
 30
0.0
 10
-9.76071
 20
-17.05484
 30
0.0
 10
-9.76071
 20
-17.05484
 30
0.0
 10
-9.76959
 20
-17.05825
 30
0.0
 10
-9.77688
 20
-17.06289
 30
0.0
 10
-9.78276
 20
-17.06883
 30
0.0
 10
-9.78276
 20
-17.06883
 30
0.0
 10
-9.78858
 20
-17.07477
 30
0.0
 10
-9.79293
 20
-17.08153
 30
0.0
 10
-9.79581
 20
-17.08917
 30
0.0
 10
-9.79581
 20
-17.08917
 30
0.0
 10
-9.79875
 20
-17.09682
 30
0.0
 10
-9.80016
 20
-17.10493
 30
0.0
 10
-9.80016
 20
-17.11346
 30
0.0
 10
-9.80016
 20
-17.11346
 30
0.0
 10
-9.80016
 20
-17.10493
 30
0.0
 10
-9.79875
 20
-17.09682
 30
0.0
 10
-9.79581
 20
-17.08917
 30
0.0
 10
-9.79581
 20
-17.08917
 30
0.0
 10
-9.79293
 20
-17.08153
 30
0.0
 10
-9.78858
 20
-17.07477
 30
0.0
 10
-9.78276
 20
-17.06883
 30
0.0
 10
-9.78276
 20
-17.06883
 30
0.0
 10
-9.77688
 20
-17.06289
 30
0.0
 10
-9.76959
 20
-17.05825
 30
0.0
 10
-9.76071
 20
-17.05484
 30
0.0
 10
-9.76071
 20
-17.05484
 30
0.0
 10
-9.75189
 20
-17.05143
 30
0.0
 10
-9.74148
 20
-17.04966
 30
0.0
 10
-9.7296
 20
-17.0496
 30
0.0
 10
-9.7296
 20
-17.0496
 30
0.0
 10
-9.71767
 20
-17.04966
 30
0.0
 10
-9.7075
 20
-17.05119
 30
0.0
 10
-9.69915
 20
-17.05425
 30
0.0
 10
-9.69915
 20
-17.05425
 30
0.0
 10
-9.69086
 20
-17.05731
 30
0.0
 10
-9.6841
 20
-17.0616
 30
0.0
 10
-9.67898
 20
-17.06707
 30
0.0
 10
-9.67898
 20
-17.06707
 30
0.0
 10
-9.67387
 20
-17.07254
 30
0.0
 10
-9.6701
 20
-17.07894
 30
0.0
 10
-9.66781
 20
-17.08623
 30
0.0
 10
-9.66781
 20
-17.08623
 30
0.0
 10
-9.66546
 20
-17.09353
 30
0.0
 10
-9.66428
 20
-17.1014
 30
0.0
 10
-9.66434
 20
-17.10993
 30
0.0
 10
-9.66434
 20
-17.10993
 30
0.0
 10
-9.66428
 20
-17.11846
 30
0.0
 10
-9.66563
 20
-17.12628
 30
0.0
 10
-9.6684
 20
-17.13339
 30
0.0
 10
-9.6684
 20
-17.13339
 30
0.0
 10
-9.6711
 20
-17.14056
 30
0.0
 10
-9.67563
 20
-17.1468
 30
0.0
 10
-9.68186
 20
-17.15203
 30
0.0
 10
-9.68186
 20
-17.15203
 30
0.0
 10
-9.68809
 20
-17.15732
 30
0.0
 10
-9.69638
 20
-17.16138
 30
0.0
 10
-9.70673
 20
-17.16426
 30
0.0
 10
-9.70673
 20
-17.16426
 30
0.0
 10
-9.71714
 20
-17.16714
 30
0.0
 10
-9.7299
 20
-17.16855
 30
0.0
 10
-9.74513
 20
-17.16849
 30
0.0
 10
-9.74513
 20
-17.16849
 30
0.0
 10
-9.72472
 20
-17.16849
 30
0.0
 10
-9.70791
 20
-17.17125
 30
0.0
 10
-9.6948
 20
-17.17672
 30
0.0
 10
-9.6948
 20
-17.17672
 30
0.0
 10
-9.68169
 20
-17.18219
 30
0.0
 10
-9.67193
 20
-17.19019
 30
0.0
 10
-9.66563
 20
-17.20083
 30
0.0
 10
-9.66563
 20
-17.20083
 30
0.0
 10
-9.65934
 20
-17.21147
 30
0.0
 10
-9.65617
 20
-17.22458
 30
0.0
 10
-9.65623
 20
-17.24011
 30
0.0
 10
-9.65623
 20
-17.24011
 30
0.0
 10
-9.65629
 20
-17.25175
 30
0.0
 10
-9.65811
 20
-17.26168
 30
0.0
 10
-9.66175
 20
-17.26997
 30
0.0
 10
-9.66175
 20
-17.26997
 30
0.0
 10
-9.66546
 20
-17.27821
 30
0.0
 10
-9.67063
 20
-17.28497
 30
0.0
 10
-9.67739
 20
-17.2902
 30
0.0
 10
-9.67739
 20
-17.2902
 30
0.0
 10
-9.68416
 20
-17.29543
 30
0.0
 10
-9.69215
 20
-17.29926
 30
0.0
 10
-9.70144
 20
-17.30172
 30
0.0
 10
-9.70144
 20
-17.30172
 30
0.0
 10
-9.71079
 20
-17.30419
 30
0.0
 10
-9.72108
 20
-17.30537
 30
0.0
 10
-9.73243
 20
-17.30537
 30
0.0
 10
-9.73243
 20
-17.30537
 30
0.0
 10
-9.74754
 20
-17.30525
 30
0.0
 10
-9.76053
 20
-17.30255
 30
0.0
 10
-9.77135
 20
-17.2972
 30
0.0
 10
-9.77135
 20
-17.2972
 30
0.0
 10
-9.78217
 20
-17.29185
 30
0.0
 10
-9.79046
 20
-17.28438
 30
0.0
 10
-9.79628
 20
-17.27485
 30
0.0
 10
-9.79628
 20
-17.27485
 30
0.0
 10
-9.8021
 20
-17.26527
 30
0.0
 10
-9.80504
 20
-17.25422
 30
0.0
 10
-9.8051
 20
-17.24152
 30
0.0
  0
SPLINE
  5
72
330
1F
100
AcDbEntity
  8
Layer 1
 62
    30
370
     9
100
AcDbSpline
210
0.0
220
0.0
230
1.0
 70
    27
 71
     3
 72
    12
 73
     8
 74
     0
 42
0.0000000001
 43
0.0000000001
 40
0.0
 40
0.0
 40
0.0
 40
0.0
 40
0.5
 40
0.5
 40
0.5
 40
0.5
 40
1.0
 40
1.0
 40
1.0
 40
1.0
 10
-9.57297
 20
-17.17237
 30
0.0
 10
-9.57297
 20
-17.17237
 30
0.0
 10
-9.47031
 20
-17.17237
 30
0.0
 10
-9.47031
 20
-17.17237
 30
0.0
 10
-9.47031
 20
-17.17237
 30
0.0
 10
-9.47031
 20
-17.17237
 30
0.0
 10
-9.57297
 20
-17.17237
 30
0.0
 10
-9.57297
 20
-17.17237
 30
0.0
  0
SPLINE
  5
73
330
1F
100
AcDbEntity
  8
Layer 1
 62
    30
370
     9
100
AcDbSpline
210
0.0
220
0.0
230
1.0
 70
    11
 71
     3
 72
    84
 73
    80
 74
     0
 42
0.0000000001
 43
0.0000000001
 40
0.0
 40
0.0
 40
0.0
 40
0.0
 40
0.05
 40
0.05
 40
0.05
 40
0.05
 40
0.1
 40
0.1
 40
0.1
 40
0.1
 40
0.15
 40
0.15
 40
0.15
 40
0.15
 40
0.2
 40
0.2
 40
0.2
 40
0.2
 40
0.25
 40
0.25
 40
0.25
 40
0.25
 40
0.3
 40
0.3
 40
0.3
 40
0.3
 40
0.35
 40
0.35
 40
0.35
 40
0.35
 40
0.4
 40
0.4
 40
0.4
 40
0.4
 40
0.45
 40
0.45
 40
0.45
 40
0.45
 40
0.4999999999999999
 40
0.4999999999999999
 40
0.4999999999999999
 40
0.4999999999999999
 40
0.5499999999999999
 40
0.5499999999999999
 40
0.5499999999999999
 40
0.5499999999999999
 40
0.6
 40
0.6
 40
0.6
 40
0.6
 40
0.65
 40
0.65
 40
0.65
 40
0.65
 40
0.7000000000000001
 40
0.7000000000000001
 40
0.7000000000000001
 40
0.7000000000000001
 40
0.7500000000000001
 40
0.7500000000000001
 40
0.7500000000000001
 40
0.7500000000000001
 40
0.8000000000000002
 40
0.8000000000000002
 40
0.8000000000000002
 40
0.8000000000000002
 40
0.8500000000000002
 40
0.8500000000000002
 40
0.8500000000000002
 40
0.8500000000000002
 40
0.9000000000000002
 40
0.9000000000000002
 40
0.9000000000000002
 40
0.9000000000000002
 40
0.9500000000000003
 40
0.9500000000000003
 40
0.9500000000000003
 40
0.9500000000000003
 40
1.0
 40
1.0
 40
1.0
 40
1.0
 10
-9.31261
 20
-17.30537
 30
0.0
 10
-9.30027
 20
-17.30531
 30
0.0
 10
-9.28962
 20
-17.30314
 30
0.0
 10
-9.28075
 20
-17.2989
 30
0.0
 10
-9.28075
 20
-17.2989
 30
0.0
 10
-9.27193
 20
-17.29467
 30
0.0
 10
-9.26458
 20
-17.28861
 30
0.0
 10
-9.2587
 20
-17.28091
 30
0.0
 10
-9.2587
 20
-17.28091
 30
0.0
 10
-9.25288
 20
-17.27315
 30
0.0
 10
-9.24829
 20
-17.26398
 30
0.0
 10
-9.24488
 20
-17.25339
 30
0.0
 10
-9.24488
 20
-17.25339
 30
0.0
 10
-9.24153
 20
-17.24281
 30
0.0
 10
-9.23912
 20
-17.23123
 30
0.0
 10
-9.23777
 20
-17.21853
 30
0.0
 10
-9.23777
 20
-17.21853
 30
0.0
 10
-9.23635
 20
-17.20583
 30
0.0
 10
-9.23565
 20
-17.19248
 30
0.0
 10
-9.23571
 20
-17.17837
 30
0.0
 10
-9.23571
 20
-17.17837
 30
0.0
 10
-9.23565
 20
-17.16432
 30
0.0
 10
-9.23635
 20
-17.15097
 30
0.0
 10
-9.23777
 20
-17.13833
 30
0.0
 10
-9.23777
 20
-17.13833
 30
0.0
 10
-9.23912
 20
-17.12569
 30
0.0
 10
-9.24153
 20
-17.11405
 30
0.0
 10
-9.24488
 20
-17.10346
 30
0.0
 10
-9.24488
 20
-17.10346
 30
0.0
 10
-9.24829
 20
-17.09294
 30
0.0
 10
-9.25288
 20
-17.08377
 30
0.0
 10
-9.2587
 20
-17.07595
 30
0.0
 10
-9.2587
 20
-17.07595
 30
0.0
 10
-9.26458
 20
-17.06818
 30
0.0
 10
-9.27193
 20
-17.06213
 30
0.0
 10
-9.28075
 20
-17.05789
 30
0.0
 10
-9.28075
 20
-17.05789
 30
0.0
 10
-9.28962
 20
-17.0536
 30
0.0
 10
-9.30027
 20
-17.05143
 30
0.0
 10
-9.31261
 20
-17.05137
 30
0.0
 10
-9.31261
 20
-17.05137
 30
0.0
 10
-9.32496
 20
-17.05143
 30
0.0
 10
-9.3356
 20
-17.0536
 30
0.0
 10
-9.34448
 20
-17.05789
 30
0.0
 10
-9.34448
 20
-17.05789
 30
0.0
 10
-9.3533
 20
-17.06213
 30
0.0
 10
-9.36065
 20
-17.06818
 30
0.0
 10
-9.36653
 20
-17.07595
 30
0.0
 10
-9.36653
 20
-17.07595
 30
0.0
 10
-9.37235
 20
-17.08377
 30
0.0
 10
-9.37694
 20
-17.09294
 30
0.0
 10
-9.38035
 20
-17.10346
 30
0.0
 10
-9.38035
 20
-17.10346
 30
0.0
 10
-9.3837
 20
-17.11405
 30
0.0
 10
-9.38611
 20
-17.12569
 30
0.0
 10
-9.38746
 20
-17.13833
 30
0.0
 10
-9.38746
 20
-17.13833
 30
0.0
 10
-9.38887
 20
-17.15097
 30
0.0
 10
-9.38958
 20
-17.16432
 30
0.0
 10
-9.38952
 20
-17.17837
 30
0.0
 10
-9.38952
 20
-17.17837
 30
0.0
 10
-9.38958
 20
-17.19248
 30
0.0
 10
-9.38887
 20
-17.20583
 30
0.0
 10
-9.38746
 20
-17.21853
 30
0.0
 10
-9.38746
 20
-17.21853
 30
0.0
 10
-9.38611
 20
-17.23123
 30
0.0
 10
-9.3837
 20
-17.24281
 30
0.0
 10
-9.38035
 20
-17.25339
 30
0.0
 10
-9.38035
 20
-17.25339
 30
0.0
 10
-9.37694
 20
-17.26398
 30
0.0
 10
-9.37235
 20
-17.27315
 30
0.0
 10
-9.36653
 20
-17.28091
 30
0.0
 10
-9.36653
 20
-17.28091
 30
0.0
 10
-9.36065
 20
-17.28861
 30
0.0
 10
-9.3533
 20
-17.29467
 30
0.0
 10
-9.34448
 20
-17.2989
 30
0.0
 10
-9.34448
 20
-17.2989
 30
0.0
 10
-9.3356
 20
-17.30314
 30
0.0
 10
-9.32496
 20
-17.30531
 30
0.0
 10
-9.31261
 20
-17.30537
 30
0.0
  0
SPLINE
  5
74
330
1F
100
AcDbEntity
  8
Layer 1
 62
    30
370
     9
100
AcDbSpline
210
0.0
220
0.0
230
1.0
 70
    11
 71
     3
 72
    84
 73
    80
 74
     0
 42
0.0000000001
 43
0.0000000001
 40
0.0
 40
0.0
 40
0.0
 40
0.0
 40
0.05
 40
0.05
 40
0.05
 40
0.05
 40
0.1
 40
0.1
 40
0.1
 40
0.1
 40
0.15
 40
0.15
 40
0.15
 40
0.15
 40
0.2
 40
0.2
 40
0.2
 40
0.2
 40
0.25
 40
0.25
 40
0.25
 40
0.25
 40
0.3
 40
0.3
 40
0.3
 40
0.3
 40
0.35
 40
0.35
 40
0.35
 40
0.35
 40
0.4
 40
0.4
 40
0.4
 40
0.4
 40
0.45
 40
0.45
 40
0.45
 40
0.45
 40
0.4999999999999999
 40
0.4999999999999999
 40
0.4999999999999999
 40
0.4999999999999999
 40
0.5499999999999999
 40
0.5499999999999999
 40
0.5499999999999999
 40
0.5499999999999999
 40
0.6
 40
0.6
 40
0.6
 40
0.6
 40
0.65
 40
0.65
 40
0.65
 40
0.65
 40
0.7000000000000001
 40
0.7000000000000001
 40
0.7000000000000001
 40
0.7000000000000001
 40
0.7500000000000001
 40
0.7500000000000001
 40
0.7500000000000001
 40
0.7500000000000001
 40
0.8000000000000002
 40
0.8000000000000002
 40
0.8000000000000002
 40
0.8000000000000002
 40
0.8500000000000002
 40
0.8500000000000002
 40
0.8500000000000002
 40
0.8500000000000002
 40
0.9000000000000002
 40
0.9000000000000002
 40
0.9000000000000002
 40
0.9000000000000002
 40
0.9500000000000003
 40
0.9500000000000003
 40
0.9500000000000003
 40
0.9500000000000003
 40
1.0
 40
1.0
 40
1.0
 40
1.0
 10
-9.31261
 20
-17.30537
 30
0.0
 10
-9.30027
 20
-17.30531
 30
0.0
 10
-9.28962
 20
-17.30314
 30
0.0
 10
-9.28075
 20
-17.2989
 30
0.0
 10
-9.28075
 20
-17.2989
 30
0.0
 10
-9.27193
 20
-17.29467
 30
0.0
 10
-9.26458
 20
-17.28861
 30
0.0
 10
-9.2587
 20
-17.28091
 30
0.0
 10
-9.2587
 20
-17.28091
 30
0.0
 10
-9.25288
 20
-17.27315
 30
0.0
 10
-9.24829
 20
-17.26398
 30
0.0
 10
-9.24488
 20
-17.25339
 30
0.0
 10
-9.24488
 20
-17.25339
 30
0.0
 10
-9.24153
 20
-17.24281
 30
0.0
 10
-9.23912
 20
-17.23123
 30
0.0
 10
-9.23777
 20
-17.21853
 30
0.0
 10
-9.23777
 20
-17.21853
 30
0.0
 10
-9.23635
 20
-17.20583
 30
0.0
 10
-9.23565
 20
-17.19248
 30
0.0
 10
-9.23571
 20
-17.17837
 30
0.0
 10
-9.23571
 20
-17.17837
 30
0.0
 10
-9.23565
 20
-17.16432
 30
0.0
 10
-9.23635
 20
-17.15097
 30
0.0
 10
-9.23777
 20
-17.13833
 30
0.0
 10
-9.23777
 20
-17.13833
 30
0.0
 10
-9.23912
 20
-17.12569
 30
0.0
 10
-9.24153
 20
-17.11405
 30
0.0
 10
-9.24488
 20
-17.10346
 30
0.0
 10
-9.24488
 20
-17.10346
 30
0.0
 10
-9.24829
 20
-17.09294
 30
0.0
 10
-9.25288
 20
-17.08377
 30
0.0
 10
-9.2587
 20
-17.07595
 30
0.0
 10
-9.2587
 20
-17.07595
 30
0.0
 10
-9.26458
 20
-17.06818
 30
0.0
 10
-9.27193
 20
-17.06213
 30
0.0
 10
-9.28075
 20
-17.05789
 30
0.0
 10
-9.28075
 20
-17.05789
 30
0.0
 10
-9.28962
 20
-17.0536
 30
0.0
 10
-9.30027
 20
-17.05143
 30
0.0
 10
-9.31261
 20
-17.05137
 30
0.0
 10
-9.31261
 20
-17.05137
 30
0.0
 10
-9.32496
 20
-17.05143
 30
0.0
 10
-9.3356
 20
-17.0536
 30
0.0
 10
-9.34448
 20
-17.05789
 30
0.0
 10
-9.34448
 20
-17.05789
 30
0.0
 10
-9.3533
 20
-17.06213
 30
0.0
 10
-9.36065
 20
-17.06818
 30
0.0
 10
-9.36653
 20
-17.07595
 30
0.0
 10
-9.36653
 20
-17.07595
 30
0.0
 10
-9.37235
 20
-17.08377
 30
0.0
 10
-9.37694
 20
-17.09294
 30
0.0
 10
-9.38035
 20
-17.10346
 30
0.0
 10
-9.38035
 20
-17.10346
 30
0.0
 10
-9.3837
 20
-17.11405
 30
0.0
 10
-9.38611
 20
-17.12569
 30
0.0
 10
-9.38746
 20
-17.13833
 30
0.0
 10
-9.38746
 20
-17.13833
 30
0.0
 10
-9.38887
 20
-17.15097
 30
0.0
 10
-9.38958
 20
-17.16432
 30
0.0
 10
-9.38952
 20
-17.17837
 30
0.0
 10
-9.38952
 20
-17.17837
 30
0.0
 10
-9.38958
 20
-17.19248
 30
0.0
 10
-9.38887
 20
-17.20583
 30
0.0
 10
-9.38746
 20
-17.21853
 30
0.0
 10
-9.38746
 20
-17.21853
 30
0.0
 10
-9.38611
 20
-17.23123
 30
0.0
 10
-9.3837
 20
-17.24281
 30
0.0
 10
-9.38035
 20
-17.25339
 30
0.0
 10
-9.38035
 20
-17.25339
 30
0.0
 10
-9.37694
 20
-17.26398
 30
0.0
 10
-9.37235
 20
-17.27315
 30
0.0
 10
-9.36653
 20
-17.28091
 30
0.0
 10
-9.36653
 20
-17.28091
 30
0.0
 10
-9.36065
 20
-17.28861
 30
0.0
 10
-9.3533
 20
-17.29467
 30
0.0
 10
-9.34448
 20
-17.2989
 30
0.0
 10
-9.34448
 20
-17.2989
 30
0.0
 10
-9.3356
 20
-17.30314
 30
0.0
 10
-9.32496
 20
-17.30531
 30
0.0
 10
-9.31261
 20
-17.30537
 30
0.0
  0
SPLINE
  5
75
330
1F
100
AcDbEntity
  8
Layer 1
 62
    30
370
     9
100
AcDbSpline
210
0.0
220
0.0
230
1.0
 70
    11
 71
     3
 72
   172
 73
   168
 74
     0
 42
0.0000000001
 43
0.0000000001
 40
0.0
 40
0.0
 40
0.0
 40
0.0
 40
0.0238095238095238
 40
0.0238095238095238
 40
0.0238095238095238
 40
0.0238095238095238
 40
0.0476190476190476
 40
0.0476190476190476
 40
0.0476190476190476
 40
0.0476190476190476
 40
0.0714285714285714
 40
0.0714285714285714
 40
0.0714285714285714
 40
0.0714285714285714
 40
0.0952380952380952
 40
0.0952380952380952
 40
0.0952380952380952
 40
0.0952380952380952
 40
0.119047619047619
 40
0.119047619047619
 40
0.119047619047619
 40
0.119047619047619
 40
0.1428571428571428
 40
0.1428571428571428
 40
0.1428571428571428
 40
0.1428571428571428
 40
0.1666666666666667
 40
0.1666666666666667
 40
0.1666666666666667
 40
0.1666666666666667
 40
0.1904761904761905
 40
0.1904761904761905
 40
0.1904761904761905
 40
0.1904761904761905
 40
0.2142857142857143
 40
0.2142857142857143
 40
0.2142857142857143
 40
0.2142857142857143
 40
0.2380952380952381
 40
0.2380952380952381
 40
0.2380952380952381
 40
0.2380952380952381
 40
0.2619047619047619
 40
0.2619047619047619
 40
0.2619047619047619
 40
0.2619047619047619
 40
0.2857142857142857
 40
0.2857142857142857
 40
0.2857142857142857
 40
0.2857142857142857
 40
0.3095238095238095
 40
0.3095238095238095
 40
0.3095238095238095
 40
0.3095238095238095
 40
0.3333333333333334
 40
0.3333333333333334
 40
0.3333333333333334
 40
0.3333333333333334
 40
0.3571428571428572
 40
0.3571428571428572
 40
0.3571428571428572
 40
0.3571428571428572
 40
0.380952380952381
 40
0.380952380952381
 40
0.380952380952381
 40
0.380952380952381
 40
0.4047619047619049
 40
0.4047619047619049
 40
0.4047619047619049
 40
0.4047619047619049
 40
0.4285714285714287
 40
0.4285714285714287
 40
0.4285714285714287
 40
0.4285714285714287
 40
0.4523809523809526
 40
0.4523809523809526
 40
0.4523809523809526
 40
0.4523809523809526
 40
0.4761904761904764
 40
0.4761904761904764
 40
0.4761904761904764
 40
0.4761904761904764
 40
0.5000000000000002
 40
0.5000000000000002
 40
0.5000000000000002
 40
0.5000000000000002
 40
0.5238095238095241
 40
0.5238095238095241
 40
0.5238095238095241
 40
0.5238095238095241
 40
0.5476190476190479
 40
0.5476190476190479
 40
0.5476190476190479
 40
0.5476190476190479
 40
0.5714285714285717
 40
0.5714285714285717
 40
0.5714285714285717
 40
0.5714285714285717
 40
0.5952380952380956
 40
0.5952380952380956
 40
0.5952380952380956
 40
0.5952380952380956
 40
0.6190476190476194
 40
0.6190476190476194
 40
0.6190476190476194
 40
0.6190476190476194
 40
0.6428571428571432
 40
0.6428571428571432
 40
0.6428571428571432
 40
0.6428571428571432
 40
0.6666666666666671
 40
0.6666666666666671
 40
0.6666666666666671
 40
0.6666666666666671
 40
0.6904761904761909
 40
0.6904761904761909
 40
0.6904761904761909
 40
0.6904761904761909
 40
0.7142857142857147
 40
0.7142857142857147
 40
0.7142857142857147
 40
0.7142857142857147
 40
0.7380952380952386
 40
0.7380952380952386
 40
0.7380952380952386
 40
0.7380952380952386
 40
0.7619047619047624
 40
0.7619047619047624
 40
0.7619047619047624
 40
0.7619047619047624
 40
0.7857142857142863
 40
0.7857142857142863
 40
0.7857142857142863
 40
0.7857142857142863
 40
0.8095238095238101
 40
0.8095238095238101
 40
0.8095238095238101
 40
0.8095238095238101
 40
0.8333333333333339
 40
0.8333333333333339
 40
0.8333333333333339
 40
0.8333333333333339
 40
0.8571428571428578
 40
0.8571428571428578
 40
0.8571428571428578
 40
0.8571428571428578
 40
0.8809523809523816
 40
0.8809523809523816
 40
0.8809523809523816
 40
0.8809523809523816
 40
0.9047619047619054
 40
0.9047619047619054
 40
0.9047619047619054
 40
0.9047619047619054
 40
0.9285714285714293
 40
0.9285714285714293
 40
0.9285714285714293
 40
0.9285714285714293
 40
0.9523809523809531
 40
0.9523809523809531
 40
0.9523809523809531
 40
0.9523809523809531
 40
0.9761904761904769
 40
0.9761904761904769
 40
0.9761904761904769
 40
0.9761904761904769
 40
1.0
 40
1.0
 40
1.0
 40
1.0
 10
-9.00076
 20
-17.30537
 30
0.0
 10
-9.00076
 20
-17.30537
 30
0.0
 10
-9.1521
 20
-17.30537
 30
0.0
 10
-9.1521
 20
-17.30537
 30
0.0
 10
-9.1521
 20
-17.30537
 30
0.0
 10
-9.15181
 20
-17.29514
 30
0.0
 10
-9.15051
 20
-17.28608
 30
0.0
 10
-9.14834
 20
-17.27832
 30
0.0
 10
-9.14834
 20
-17.27832
 30
0.0
 10
-9.1461
 20
-17.27056
 30
0.0
 10
-9.1431
 20
-17.26374
 30
0.0
 10
-9.1394
 20
-17.25786
 30
0.0
 10
-9.1394
 20
-17.25786
 30
0.0
 10
-9.13564
 20
-17.25198
 30
0.0
 10
-9.13134
 20
-17.24675
 30
0.0
 10
-9.12646
 20
-17.24216
 30
0.0
 10
-9.12646
 20
-17.24216
 30
0.0
 10
-9.12158
 20
-17.23752
 30
0.0
 10
-9.11635
 20
-17.23329
 30
0.0
 10
-9.11071
 20
-17.22929
 30
0.0
 10
-9.11071
 20
-17.22929
 30
0.0
 10
-9.10506
 20
-17.22535
 30
0.0
 10
-9.09924
 20
-17.22141
 30
0.0
 10
-9.09319
 20
-17.21753
 30
0.0
 10
-9.09319
 20
-17.21753
 30
0.0
 10
-9.09319
 20
-17.21753
 30
0.0
 10
-9.03286
 20
-17.17731
 30
0.0
 10
-9.03286
 20
-17.17731
 30
0.0
 10
-9.03286
 20
-17.17731
 30
0.0
 10
-9.02669
 20
-17.17296
 30
0.0
 10
-9.02187
 20
-17.1682
 30
0.0
 10
-9.01845
 20
-17.16308
 30
0.0
 10
-9.01845
 20
-17.16308
 30
0.0
 10
-9.01499
 20
-17.15797
 30
0.0
 10
-9.01258
 20
-17.15256
 30
0.0
 10
-9.01111
 20
-17.14685
 30
0.0
 10
-9.01111
 20
-17.14685
 30
0.0
 10
-9.00969
 20
-17.14121
 30
0.0
 10
-9.00881
 20
-17.13539
 30
0.0
 10
-9.00852
 20
-17.12951
 30
0.0
 10
-9.00852
 20
-17.12951
 30
0.0
 10
-9.00822
 20
-17.12357
 30
0.0
 10
-9.00811
 20
-17.11763
 30
0.0
 10
-9.00817
 20
-17.11169
 30
0.0
 10
-9.00817
 20
-17.11169
 30
0.0
 10
-9.00817
 20
-17.10681
 30
0.0
 10
-9.00881
 20
-17.10158
 30
0.0
 10
-9.01011
 20
-17.09594
 30
0.0
 10
-9.01011
 20
-17.09594
 30
0.0
 10
-9.01146
 20
-17.09035
 30
0.0
 10
-9.01357
 20
-17.08476
 30
0.0
 10
-9.01657
 20
-17.07924
 30
0.0
 10
-9.01657
 20
-17.07924
 30
0.0
 10
-9.01957
 20
-17.07371
 30
0.0
 10
-9.02357
 20
-17.06865
 30
0.0
 10
-9.02857
 20
-17.06407
 30
0.0
 10
-9.02857
 20
-17.06407
 30
0.0
 10
-9.03357
 20
-17.05954
 30
0.0
 10
-9.03974
 20
-17.0559
 30
0.0
 10
-9.04709
 20
-17.05313
 30
0.0
 10
-9.04709
 20
-17.05313
 30
0.0
 10
-9.05444
 20
-17.05037
 30
0.0
 10
-9.06308
 20
-17.04896
 30
0.0
 10
-9.07308
 20
-17.0489
 30
0.0
 10
-9.07308
 20
-17.0489
 30
0.0
 10
-9.08313
 20
-17.04896
 30
0.0
 10
-9.09201
 20
-17.05037
 30
0.0
 10
-9.09965
 20
-17.05307
 30
0.0
 10
-9.09965
 20
-17.05307
 30
0.0
 10
-9.1073
 20
-17.05578
 30
0.0
 10
-9.11382
 20
-17.05954
 30
0.0
 10
-9.11923
 20
-17.0643
 30
0.0
 10
-9.11923
 20
-17.0643
 30
0.0
 10
-9.12464
 20
-17.06907
 30
0.0
 10
-9.12899
 20
-17.07459
 30
0.0
 10
-9.1324
 20
-17.08077
 30
0.0
 10
-9.1324
 20
-17.08077
 30
0.0
 10
-9.13581
 20
-17.08694
 30
0.0
 10
-9.13828
 20
-17.09353
 30
0.0
 10
-9.13987
 20
-17.10046
 30
0.0
 10
-9.13987
 20
-17.10046
 30
0.0
 10
-9.14146
 20
-17.1074
 30
0.0
 10
-9.14222
 20
-17.11446
 30
0.0
 10
-9.14222
 20
-17.12157
 30
0.0
 10
-9.14222
 20
-17.12157
 30
0.0
 10
-9.14222
 20
-17.11446
 30
0.0
 10
-9.14146
 20
-17.1074
 30
0.0
 10
-9.13987
 20
-17.10046
 30
0.0
 10
-9.13987
 20
-17.10046
 30
0.0
 10
-9.13828
 20
-17.09353
 30
0.0
 10
-9.13581
 20
-17.08694
 30
0.0
 10
-9.1324
 20
-17.08077
 30
0.0
 10
-9.1324
 20
-17.08077
 30
0.0
 10
-9.12899
 20
-17.07459
 30
0.0
 10
-9.12464
 20
-17.06907
 30
0.0
 10
-9.11923
 20
-17.0643
 30
0.0
 10
-9.11923
 20
-17.0643
 30
0.0
 10
-9.11382
 20
-17.05954
 30
0.0
 10
-9.1073
 20
-17.05578
 30
0.0
 10
-9.09965
 20
-17.05307
 30
0.0
 10
-9.09965
 20
-17.05307
 30
0.0
 10
-9.09201
 20
-17.05037
 30
0.0
 10
-9.08313
 20
-17.04896
 30
0.0
 10
-9.07308
 20
-17.0489
 30
0.0
 10
-9.07308
 20
-17.0489
 30
0.0
 10
-9.06308
 20
-17.04896
 30
0.0
 10
-9.05444
 20
-17.05037
 30
0.0
 10
-9.04709
 20
-17.05313
 30
0.0
 10
-9.04709
 20
-17.05313
 30
0.0
 10
-9.03974
 20
-17.0559
 30
0.0
 10
-9.03357
 20
-17.05954
 30
0.0
 10
-9.02857
 20
-17.06407
 30
0.0
 10
-9.02857
 20
-17.06407
 30
0.0
 10
-9.02357
 20
-17.06865
 30
0.0
 10
-9.01957
 20
-17.07371
 30
0.0
 10
-9.01657
 20
-17.07924
 30
0.0
 10
-9.01657
 20
-17.07924
 30
0.0
 10
-9.01357
 20
-17.08476
 30
0.0
 10
-9.01146
 20
-17.09035
 30
0.0
 10
-9.01011
 20
-17.09594
 30
0.0
 10
-9.01011
 20
-17.09594
 30
0.0
 10
-9.00881
 20
-17.10158
 30
0.0
 10
-9.00817
 20
-17.10681
 30
0.0
 10
-9.00817
 20
-17.11169
 30
0.0
 10
-9.00817
 20
-17.11169
 30
0.0
 10
-9.00811
 20
-17.11763
 30
0.0
 10
-9.00822
 20
-17.12357
 30
0.0
 10
-9.00852
 20
-17.12951
 30
0.0
 10
-9.00852
 20
-17.12951
 30
0.0
 10
-9.00881
 20
-17.13539
 30
0.0
 10
-9.00969
 20
-17.14121
 30
0.0
 10
-9.01111
 20
-17.14685
 30
0.0
 10
-9.01111
 20
-17.14685
 30
0.0
 10
-9.01258
 20
-17.15256
 30
0.0
 10
-9.01499
 20
-17.15797
 30
0.0
 10
-9.01845
 20
-17.16308
 30
0.0
 10
-9.01845
 20
-17.16308
 30
0.0
 10
-9.02187
 20
-17.1682
 30
0.0
 10
-9.02669
 20
-17.17296
 30
0.0
 10
-9.03286
 20
-17.17731
 30
0.0
 10
-9.03286
 20
-17.17731
 30
0.0
 10
-9.03286
 20
-17.17731
 30
0.0
 10
-9.09319
 20
-17.21753
 30
0.0
 10
-9.09319
 20
-17.21753
 30
0.0
 10
-9.09319
 20
-17.21753
 30
0.0
 10
-9.09924
 20
-17.22141
 30
0.0
 10
-9.10506
 20
-17.22535
 30
0.0
 10
-9.11071
 20
-17.22929
 30
0.0
 10
-9.11071
 20
-17.22929
 30
0.0
 10
-9.11635
 20
-17.23329
 30
0.0
 10
-9.12158
 20
-17.23752
 30
0.0
 10
-9.12646
 20
-17.24216
 30
0.0
 10
-9.12646
 20
-17.24216
 30
0.0
 10
-9.13134
 20
-17.24675
 30
0.0
 10
-9.13564
 20
-17.25198
 30
0.0
 10
-9.1394
 20
-17.25786
 30
0.0
 10
-9.1394
 20
-17.25786
 30
0.0
 10
-9.1431
 20
-17.26374
 30
0.0
 10
-9.1461
 20
-17.27056
 30
0.0
 10
-9.14834
 20
-17.27832
 30
0.0
 10
-9.14834
 20
-17.27832
 30
0.0
 10
-9.15051
 20
-17.28608
 30
0.0
 10
-9.15181
 20
-17.29514
 30
0.0
 10
-9.1521
 20
-17.30537
 30
0.0
 10
-9.1521
 20
-17.30537
 30
0.0
 10
-9.1521
 20
-17.30537
 30
0.0
 10
-9.00076
 20
-17.30537
 30
0.0
 10
-9.00076
 20
-17.30537
 30
0.0
  0
SPLINE
  5
76
330
1F
100
AcDbEntity
  8
Layer 1
 62
    30
370
    35
100
AcDbSpline
210
0.0
220
0.0
230
1.0
 70
    24
 71
     3
 72
     8
 73
     4
 74
     0
 42
0.0000000001
 43
0.0000000001
 40
0.0
 40
0.0
 40
0.0
 40
0.0
 40
1.0
 40
1.0
 40
1.0
 40
1.0
 10
-10.15001
 20
-16.45623
 30
0.0
 10
-10.15001
 20
-16.45623
 30
0.0
 10
-9.95001
 20
-16.80264
 30
0.0
 10
-9.95001
 20
-16.80264
 30
0.0
  0
SPLINE
  5
77
330
1F
100
AcDbEntity
  8
Layer 1
 62
    30
370
    35
100
AcDbSpline
210
0.0
220
0.0
230
1.0
 70
    24
 71
     3
 72
     8
 73
     4
 74
     0
 42
0.0000000001
 43
0.0000000001
 40
0.0
 40
0.0
 40
0.0
 40
0.0
 40
1.0
 40
1.0
 40
1.0
 40
1.0
 10
-9.82386
 20
-15.66884
 30
0.0
 10
-9.82386
 20
-15.66884
 30
0.0
 10
-9.43749
 20
-15.56531
 30
0.0
 10
-9.43749
 20
-15.56531
 30
0.0
  0
SPLINE
  5
78
330
1F
100
AcDbEntity
  8
Layer 1
 62
    30
370
    35
100
AcDbSpline
210
0.0
220
0.0
230
1.0
 70
    24
 71
     3
 72
     8
 73
     4
 74
     0
 42
0.0000000001
 43
0.0000000001
 40
0.0
 40
0.0
 40
0.0
 40
0.0
 40
1.0
 40
1.0
 40
1.0
 40
1.0
 10
-10.50001
 20
-15.15001
 30
0.0
 10
-10.50001
 20
-15.15001
 30
0.0
 10
-10.50001
 20
-14.75001
 30
0.0
 10
-10.50001
 20
-14.75001
 30
0.0
  0
SPLINE
  5
79
330
1F
100
AcDbEntity
  8
Layer 1
 62
    30
370
    35
100
AcDbSpline
210
0.0
220
0.0
230
1.0
 70
    24
 71
     3
 72
     8
 73
     4
 74
     0
 42
0.0000000001
 43
0.0000000001
 40
0.0
 40
0.0
 40
0.0
 40
0.0
 40
1.0
 40
1.0
 40
1.0
 40
1.0
 10
-11.17616
 20
-15.66884
 30
0.0
 10
-11.17616
 20
-15.66884
 30
0.0
 10
-11.56253
 20
-15.56531
 30
0.0
 10
-11.56253
 20
-15.56531
 30
0.0
  0
SPLINE
  5
7A
330
1F
100
AcDbEntity
  8
Layer 1
 62
    30
370
    35
100
AcDbSpline
210
0.0
220
0.0
230
1.0
 70
    24
 71
     3
 72
     8
 73
     4
 74
     0
 42
0.0000000001
 43
0.0000000001
 40
0.0
 40
0.0
 40
0.0
 40
0.0
 40
1.0
 40
1.0
 40
1.0
 40
1.0
 10
-10.85001
 20
-16.45623
 30
0.0
 10
-10.85001
 20
-16.45623
 30
0.0
 10
-11.05001
 20
-16.80264
 30
0.0
 10
-11.05001
 20
-16.80264
 30
0.0
  0
SPLINE
  5
7B
330
1F
100
AcDbEntity
  8
Layer 1
 62
    30
370
    35
100
AcDbSpline
210
0.0
220
0.0
230
1.0
 70
    24
 71
     3
 72
     8
 73
     4
 74
     0
 42
0.0000000001
 43
0.0000000001
 40
0.0
 40
0.0
 40
0.0
 40
0.0
 40
1.0
 40
1.0
 40
1.0
 40
1.0
 10
-11.14673
 20
-16.11789
 30
0.0
 10
-11.14673
 20
-16.11789
 30
0.0
 10
-11.3315
 20
-16.19443
 30
0.0
 10
-11.3315
 20
-16.19443
 30
0.0
  0
SPLINE
  5
7C
330
1F
100
AcDbEntity
  8
Layer 1
 62
    30
370
    35
100
AcDbSpline
210
0.0
220
0.0
230
1.0
 70
    24
 71
     3
 72
     8
 73
     4
 74
     0
 42
0.0000000001
 43
0.0000000001
 40
0.0
 40
0.0
 40
0.0
 40
0.0
 40
1.0
 40
1.0
 40
1.0
 40
1.0
 10
-10.92614
 20
-15.29466
 30
0.0
 10
-10.92614
 20
-15.29466
 30
0.0
 10
-11.0479
 20
-15.13599
 30
0.0
 10
-11.0479
 20
-15.13599
 30
0.0
  0
SPLINE
  5
7D
330
1F
100
AcDbEntity
  8
Layer 1
 62
    30
370
    35
100
AcDbSpline
210
0.0
220
0.0
230
1.0
 70
    24
 71
     3
 72
     8
 73
     4
 74
     0
 42
0.0000000001
 43
0.0000000001
 40
0.0
 40
0.0
 40
0.0
 40
0.0
 40
1.0
 40
1.0
 40
1.0
 40
1.0
 10
-10.07388
 20
-15.29466
 30
0.0
 10
-10.07388
 20
-15.29466
 30
0.0
 10
-9.95212
 20
-15.13599
 30
0.0
 10
-9.95212
 20
-15.13599
 30
0.0
  0
SPLINE
  5
7E
330
1F
100
AcDbEntity
  8
Layer 1
 62
    30
370
    35
100
AcDbSpline
210
0.0
220
0.0
230
1.0
 70
    24
 71
     3
 72
     8
 73
     4
 74
     0
 42
0.0000000001
 43
0.0000000001
 40
0.0
 40
0.0
 40
0.0
 40
0.0
 40
1.0
 40
1.0
 40
1.0
 40
1.0
 10
-9.85329
 20
-16.11789
 30
0.0
 10
-9.85329
 20
-16.11789
 30
0.0
 10
-9.66852
 20
-16.19443
 30
0.0
 10
-9.66852
 20
-16.19443
 30
0.0
  0
ENDSEC
  0
SECTION
  2
OBJECTS
  0
DICTIONARY
  5
C
330
0
100
AcDbDictionary
281
     1
  3
ACAD_GROUP
350
D
  3
ACAD_LAYOUT
350
1A
  3
ACAD_MLEADERSTYLE
350
80
  3
ACAD_MLINESTYLE
350
17
  3
ACAD_PLOTSETTINGS
350
19
  3
ACAD_PLOTSTYLENAME
350
E
  3
ACAD_SCALELIST
350
3B
  3
ACAD_TABLESTYLE
350
7F
  3
ACAD_VISUALSTYLE
350
2A
  0
DICTIONARY
  5
D
102
{ACAD_REACTORS
330
C
102
}
330
C
100
AcDbDictionary
281
     1
  0
DICTIONARY
  5
1A
102
{ACAD_REACTORS
330
C
102
}
330
C
100
AcDbDictionary
281
     1
  3
Layout1
350
1E
  3
Layout2
350
26
  3
Model
350
22
  0
DICTIONARY
  5
80
102
{ACAD_REACTORS
330
C
102
}
330
C
100
AcDbDictionary
281
     1
  0
DICTIONARY
  5
17
102
{ACAD_REACTORS
330
C
102
}
330
C
100
AcDbDictionary
281
     1
  3
Standard
350
18
  0
DICTIONARY
  5
19
102
{ACAD_REACTORS
330
C
102
}
330
C
100
AcDbDictionary
281
     1
  0
ACDBDICTIONARYWDFLT
  5
E
102
{ACAD_REACTORS
330
C
102
}
330
C
100
AcDbDictionary
281
     1
  3
Normal
350
F
100
AcDbDictionaryWithDefault
340
F
  0
DICTIONARY
  5
3B
102
{ACAD_REACTORS
330
C
102
}
330
C
100
AcDbDictionary
281
     1
  3
A0
350
3C
  3
A1
350
3D
  3
A2
350
3E
  3
A3
350
3F
  3
A4
350
40
  3
A5
350
41
  3
A6
350
42
  3
A7
350
43
  3
A8
350
44
  3
A9
350
45
  3
B0
350
46
  3
B1
350
47
  3
B2
350
48
  3
B3
350
49
  3
B4
350
4A
  3
B5
350
4B
  3
B6
350
4C
  3
B7
350
4D
  3
B8
350
4E
  3
B9
350
4F
  3
C0
350
50
  3
C1
350
51
  3
C2
350
52
  3
C3
350
53
  3
C4
350
54
  3
C5
350
55
  3
C6
350
56
  3
C7
350
57
  3
C8
350
58
  3
C9
350
59
  3
D0
350
5A
  3
D1
350
5B
  3
D2
350
5C
  0
DICTIONARY
  5
7F
102
{ACAD_REACTORS
330
C
102
}
330
C
100
AcDbDictionary
281
     1
  0
DICTIONARY
  5
2A
102
{ACAD_REACTORS
330
C
102
}
330
C
100
AcDbDictionary
281
     1
  3
2dWireframe
350
2F
  3
3D Hidden
350
31
  3
3dWireframe
350
30
  3
Basic
350
32
  3
Brighten
350
36
  3
ColorChange
350
3A
  3
Conceptual
350
34
  3
Dim
350
35
  3
Facepattern
350
39
  3
Flat
350
2B
  3
FlatWithEdges
350
2C
  3
Gouraud
350
2D
  3
GouraudWithEdges
350
2E
  3
Linepattern
350
38
  3
Realistic
350
33
  3
Thicken
350
37
  0
LAYOUT
  5
1E
102
{ACAD_REACTORS
330
1A
102
}
330
1A
100
AcDbPlotSettings
  1

  2
none_device
  4

  6

 40
0.0
 41
0.0
 42
0.0
 43
0.0
 44
0.0
 45
0.0
 46
0.0
 47
0.0
 48
0.0
 49
0.0
140
0.0
141
0.0
142
1.0
143
1.0
 70
   688
 72
     0
 73
     0
 74
     5
  7

 75
    16
 76
     0
 77
     2
 78
   300
147
1.0
148
0.0
149
0.0
100
AcDbLayout
  1
Layout1
 70
     1
 71
     1
 10
0.0
 20
0.0
 11
12.0
 21
9.0
 12
0.0
 22
0.0
 32
0.0
 14
1.000000000000000E+20
 24
1.000000000000000E+20
 34
1.000000000000000E+20
 15
-1.000000000000000E+20
 25
-1.000000000000000E+20
 35
-1.000000000000000E+20
146
0.0
 13
0.0
 23
0.0
 33
0.0
 16
1.0
 26
0.0
 36
0.0
 17
0.0
 27
1.0
 37
0.0
 76
     0
330
1B
  0
LAYOUT
  5
26
102
{ACAD_REACTORS
330
1A
102
}
330
1A
100
AcDbPlotSettings
  1

  2
none_device
  4

  6

 40
0.0
 41
0.0
 42
0.0
 43
0.0
 44
0.0
 45
0.0
 46
0.0
 47
0.0
 48
0.0
 49
0.0
140
0.0
141
0.0
142
1.0
143
1.0
 70
   688
 72
     0
 73
     0
 74
     5
  7

 75
    16
 76
     0
 77
     2
 78
   300
147
1.0
148
0.0
149
0.0
100
AcDbLayout
  1
Layout2
 70
     1
 71
     2
 10
0.0
 20
0.0
 11
0.0
 21
0.0
 12
0.0
 22
0.0
 32
0.0
 14
0.0
 24
0.0
 34
0.0
 15
0.0
 25
0.0
 35
0.0
146
0.0
 13
0.0
 23
0.0
 33
0.0
 16
1.0
 26
0.0
 36
0.0
 17
0.0
 27
1.0
 37
0.0
 76
     0
330
23
  0
LAYOUT
  5
22
102
{ACAD_REACTORS
330
1A
102
}
330
1A
100
AcDbPlotSettings
  1

  2
none_device
  4

  6

 40
0.0
 41
0.0
 42
0.0
 43
0.0
 44
0.0
 45
0.0
 46
0.0
 47
0.0
 48
0.0
 49
0.0
140
0.0
141
0.0
142
1.0
143
1.0
 70
  1712
 72
     0
 73
     0
 74
     0
  7

 75
     0
 76
     0
 77
     2
 78
   300
147
1.0
148
0.0
149
0.0
100
AcDbLayout
  1
Model
 70
     1
 71
     0
 10
0.0
 20
0.0
 11
12.0
 21
9.0
 12
0.0
 22
0.0
 32
0.0
 14
-12.17821
 24
-17.52824
 34
0.0
 15
-8.82179
 25
-12.17176
 35
0.0
146
0.0
 13
0.0
 23
0.0
 33
0.0
 16
1.0
 26
0.0
 36
0.0
 17
0.0
 27
1.0
 37
0.0
 76
     0
330
1F
331
29
  0
MLINESTYLE
  5
18
102
{ACAD_REACTORS
330
17
102
}
330
17
100
AcDbMlineStyle
  2
Standard
 70
     0
  3

 62
   256
 51
90.0
 52
90.0
 71
     2
 49
0.5
 62
   256
  6
BYLAYER
 49
-0.5
 62
   256
  6
BYLAYER
  0
ACDBPLACEHOLDER
  5
F
102
{ACAD_REACTORS
330
E
102
}
330
E
  0
SCALE
  5
3C
102
{ACAD_REACTORS
330
3B
102
}
330
3B
100
AcDbScale
 70
     0
300
1:1
140
1.0
141
1.0
290
     1
  0
SCALE
  5
3D
102
{ACAD_REACTORS
330
3B
102
}
330
3B
100
AcDbScale
 70
     0
300
1:2
140
1.0
141
2.0
290
     0
  0
SCALE
  5
3E
102
{ACAD_REACTORS
330
3B
102
}
330
3B
100
AcDbScale
 70
     0
300
1:4
140
1.0
141
4.0
290
     0
  0
SCALE
  5
3F
102
{ACAD_REACTORS
330
3B
102
}
330
3B
100
AcDbScale
 70
     0
300
1:5
140
1.0
141
5.0
290
     0
  0
SCALE
  5
40
102
{ACAD_REACTORS
330
3B
102
}
330
3B
100
AcDbScale
 70
     0
300
1:8
140
1.0
141
8.0
290
     0
  0
SCALE
  5
41
102
{ACAD_REACTORS
330
3B
102
}
330
3B
100
AcDbScale
 70
     0
300
1:10
140
1.0
141
10.0
290
     0
  0
SCALE
  5
42
102
{ACAD_REACTORS
330
3B
102
}
330
3B
100
AcDbScale
 70
     0
300
1:16
140
1.0
141
16.0
290
     0
  0
SCALE
  5
43
102
{ACAD_REACTORS
330
3B
102
}
330
3B
100
AcDbScale
 70
     0
300
1:20
140
1.0
141
20.0
290
     0
  0
SCALE
  5
44
102
{ACAD_REACTORS
330
3B
102
}
330
3B
100
AcDbScale
 70
     0
300
1:30
140
1.0
141
30.0
290
     0
  0
SCALE
  5
45
102
{ACAD_REACTORS
330
3B
102
}
330
3B
100
AcDbScale
 70
     0
300
1:40
140
1.0
141
40.0
290
     0
  0
SCALE
  5
46
102
{ACAD_REACTORS
330
3B
102
}
330
3B
100
AcDbScale
 70
     0
300
1:50
140
1.0
141
50.0
290
     0
  0
SCALE
  5
47
102
{ACAD_REACTORS
330
3B
102
}
330
3B
100
AcDbScale
 70
     0
300
1:100
140
1.0
141
100.0
290
     0
  0
SCALE
  5
48
102
{ACAD_REACTORS
330
3B
102
}
330
3B
100
AcDbScale
 70
     0
300
2:1
140
2.0
141
1.0
290
     0
  0
SCALE
  5
49
102
{ACAD_REACTORS
330
3B
102
}
330
3B
100
AcDbScale
 70
     0
300
4:1
140
4.0
141
1.0
290
     0
  0
SCALE
  5
4A
102
{ACAD_REACTORS
330
3B
102
}
330
3B
100
AcDbScale
 70
     0
300
8:1
140
8.0
141
1.0
290
     0
  0
SCALE
  5
4B
102
{ACAD_REACTORS
330
3B
102
}
330
3B
100
AcDbScale
 70
     0
300
10:1
140
10.0
141
1.0
290
     0
  0
SCALE
  5
4C
102
{ACAD_REACTORS
330
3B
102
}
330
3B
100
AcDbScale
 70
     0
300
100:1
140
100.0
141
1.0
290
     0
  0
SCALE
  5
4D
102
{ACAD_REACTORS
330
3B
102
}
330
3B
100
AcDbScale
 70
     0
300
1/128" = 1'-0"
140
0.0078125
141
12.0
290
     0
  0
SCALE
  5
4E
102
{ACAD_REACTORS
330
3B
102
}
330
3B
100
AcDbScale
 70
     0
300
1/64" = 1'-0"
140
0.015625
141
12.0
290
     0
  0
SCALE
  5
4F
102
{ACAD_REACTORS
330
3B
102
}
330
3B
100
AcDbScale
 70
     0
300
1/32" = 1'-0"
140
0.03125
141
12.0
290
     0
  0
SCALE
  5
50
102
{ACAD_REACTORS
330
3B
102
}
330
3B
100
AcDbScale
 70
     0
300
1/16" = 1'-0"
140
0.0625
141
12.0
290
     0
  0
SCALE
  5
51
102
{ACAD_REACTORS
330
3B
102
}
330
3B
100
AcDbScale
 70
     0
300
3/32" = 1'-0"
140
0.09375
141
12.0
290
     0
  0
SCALE
  5
52
102
{ACAD_REACTORS
330
3B
102
}
330
3B
100
AcDbScale
 70
     0
300
1/8" = 1'-0"
140
0.125
141
12.0
290
     0
  0
SCALE
  5
53
102
{ACAD_REACTORS
330
3B
102
}
330
3B
100
AcDbScale
 70
     0
300
3/16" = 1'-0"
140
0.1875
141
12.0
290
     0
  0
SCALE
  5
54
102
{ACAD_REACTORS
330
3B
102
}
330
3B
100
AcDbScale
 70
     0
300
1/4" = 1'-0"
140
0.25
141
12.0
290
     0
  0
SCALE
  5
55
102
{ACAD_REACTORS
330
3B
102
}
330
3B
100
AcDbScale
 70
     0
300
3/8" = 1'-0"
140
0.375
141
12.0
290
     0
  0
SCALE
  5
56
102
{ACAD_REACTORS
330
3B
102
}
330
3B
100
AcDbScale
 70
     0
300
1/2" = 1'-0"
140
0.5
141
12.0
290
     0
  0
SCALE
  5
57
102
{ACAD_REACTORS
330
3B
102
}
330
3B
100
AcDbScale
 70
     0
300
3/4" = 1'-0"
140
0.75
141
12.0
290
     0
  0
SCALE
  5
58
102
{ACAD_REACTORS
330
3B
102
}
330
3B
100
AcDbScale
 70
     0
300
1" = 1'-0"
140
1.0
141
12.0
290
     0
  0
SCALE
  5
59
102
{ACAD_REACTORS
330
3B
102
}
330
3B
100
AcDbScale
 70
     0
300
1-1/2" = 1'-0"
140
1.5
141
12.0
290
     0
  0
SCALE
  5
5A
102
{ACAD_REACTORS
330
3B
102
}
330
3B
100
AcDbScale
 70
     0
300
3" = 1'-0"
140
3.0
141
12.0
290
     0
  0
SCALE
  5
5B
102
{ACAD_REACTORS
330
3B
102
}
330
3B
100
AcDbScale
 70
     0
300
6" = 1'-0"
140
6.0
141
12.0
290
     0
  0
SCALE
  5
5C
102
{ACAD_REACTORS
330
3B
102
}
330
3B
100
AcDbScale
 70
     0
300
1'-0" = 1'-0"
140
12.0
141
12.0
290
     0
  0
VISUALSTYLE
  5
2F
102
{ACAD_REACTORS
330
2A
102
}
330
2A
100
AcDbVisualStyle
  2
2dWireframe
 70
     4
 71
     0
 72
     2
 73
     0
 90
        0
 40
-0.6
 41
-30.0
 62
     5
 63
     7
421
 16777215
 74
     1
 91
        4
 64
     7
 65
   257
 75
     1
175
     1
 42
1.0
 92
        0
 66
   257
 43
1.0
 76
     1
 77
     6
 78
     2
 67
     7
 79
     5
170
     0
171
     0
290
     0
174
     0
 93
        1
 44
0.0
173
     0
291
     0
 45
0.0
  0
VISUALSTYLE
  5
31
102
{ACAD_REACTORS
330
2A
102
}
330
2A
100
AcDbVisualStyle
  2
3D Hidden
 70
     6
 71
     1
 72
     2
 73
     2
 90
        0
 40
-0.6
 41
-30.0
 62
     5
 63
     7
421
 16777215
 74
     2
 91
        2
 64
     7
 65
   257
 75
     2
175
     1
 42
40.0
 92
        0
 66
   257
 43
1.0
 76
     1
 77
     6
 78
     2
 67
     7
 79
     3
170
     0
171
     0
290
     0
174
     0
 93
        1
 44
0.0
173
     0
291
     0
 45
0.0
  0
VISUALSTYLE
  5
30
102
{ACAD_REACTORS
330
2A
102
}
330
2A
100
AcDbVisualStyle
  2
3dWireframe
 70
     5
 71
     0
 72
     2
 73
     0
 90
        0
 40
-0.6
 41
-30.0
 62
     5
 63
     7
421
 16777215
 74
     1
 91
        4
 64
     7
 65
   257
 75
     1
175
     1
 42
1.0
 92
        0
 66
   257
 43
1.0
 76
     1
 77
     6
 78
     2
 67
     7
 79
     5
170
     0
171
     0
290
     0
174
     0
 93
        1
 44
0.0
173
     0
291
     0
 45
0.0
  0
VISUALSTYLE
  5
32
102
{ACAD_REACTORS
330
2A
102
}
330
2A
100
AcDbVisualStyle
  2
Basic
 70
     7
 71
     1
 72
     0
 73
     1
 90
        0
 40
-0.6
 41
-30.0
 62
     5
 63
     7
421
 16777215
 74
     0
 91
        4
 64
     7
 65
   257
 75
     1
175
     1
 42
1.0
 92
        8
 66
     7
 43
1.0
 76
     1
 77
     6
 78
     2
 67
     7
 79
     5
170
     0
171
     0
290
     0
174
     0
 93
        1
 44
0.0
173
     0
291
     1
 45
0.0
  0
VISUALSTYLE
  5
36
102
{ACAD_REACTORS
330
2A
102
}
330
2A
100
AcDbVisualStyle
  2
Brighten
 70
    12
 71
     2
 72
     2
 73
     0
 90
        0
 40
-0.6
 41
-30.0
 62
     5
 63
     7
421
 16777215
 74
     1
 91
        4
 64
     7
 65
   257
 75
     1
175
     1
 42
1.0
 92
        8
 66
     7
 43
1.0
 76
     1
 77
     6
 78
     2
 67
     7
 79
     5
170
     0
171
     0
290
     0
174
     0
 93
        1
 44
50.0
173
     0
291
     1
 45
0.0
  0
VISUALSTYLE
  5
3A
102
{ACAD_REACTORS
330
2A
102
}
330
2A
100
AcDbVisualStyle
  2
ColorChange
 70
    16
 71
     2
 72
     2
 73
     3
 90
        0
 40
-0.6
 41
-30.0
 62
     5
 63
     8
421
  8421504
 74
     1
 91
        4
 64
     7
 65
   257
 75
     1
175
     1
 42
1.0
 92
        8
 66
     8
424
  8421504
 43
1.0
 76
     1
 77
     6
 78
     2
 67
     7
 79
     5
170
     0
171
     0
290
     0
174
     0
 93
        1
 44
0.0
173
     0
291
     1
 45
0.0
  0
VISUALSTYLE
  5
34
102
{ACAD_REACTORS
330
2A
102
}
330
2A
100
AcDbVisualStyle
  2
Conceptual
 70
     9
 71
     3
 72
     2
 73
     0
 90
        0
 40
-0.6
 41
-30.0
 62
     5
 63
     7
421
 16777215
 74
     2
 91
        2
 64
     7
 65
   257
 75
     1
175
     1
 42
40.0
 92
        8
 66
     7
 43
1.0
 76
     1
 77
     6
 78
     2
 67
     7
 79
     3
170
     0
171
     0
290
     0
174
     0
 93
        1
 44
0.0
173
     0
291
     0
 45
0.0
  0
VISUALSTYLE
  5
35
102
{ACAD_REACTORS
330
2A
102
}
330
2A
100
AcDbVisualStyle
  2
Dim
 70
    11
 71
     2
 72
     2
 73
     0
 90
        0
 40
-0.6
 41
-30.0
 62
     5
 63
     7
421
 16777215
 74
     1
 91
        4
 64
     7
 65
   257
 75
     1
175
     1
 42
1.0
 92
        8
 66
     7
 43
1.0
 76
     1
 77
     6
 78
     2
 67
     7
 79
     5
170
     0
171
     0
290
     0
174
     0
 93
        1
 44
-50.0
173
     0
291
     1
 45
0.0
  0
VISUALSTYLE
  5
39
102
{ACAD_REACTORS
330
2A
102
}
330
2A
100
AcDbVisualStyle
  2
Facepattern
 70
    15
 71
     2
 72
     2
 73
     0
 90
        0
 40
-0.6
 41
-30.0
 62
     5
 63
     7
421
 16777215
 74
     1
 91
        4
 64
     7
 65
   257
 75
     1
175
     1
 42
1.0
 92
        8
 66
     7
 43
1.0
 76
     1
 77
     6
 78
     2
 67
     7
 79
     5
170
     0
171
     0
290
     0
174
     0
 93
        1
 44
0.0
173
     0
291
     1
 45
0.0
  0
VISUALSTYLE
  5
2B
102
{ACAD_REACTORS
330
2A
102
}
330
2A
100
AcDbVisualStyle
  2
Flat
 70
     0
 71
     2
 72
     1
 73
     1
 90
        2
 40
-0.6
 41
30.0
 62
     5
 63
     7
421
 16777215
 74
     0
 91
        4
 64
     7
 65
   257
 75
     1
175
     1
 42
1.0
 92
        8
 66
     7
 43
1.0
 76
     1
 77
     6
 78
     2
 67
     7
 79
     5
170
     0
171
     0
290
     0
174
     0
 93
       13
 44
0.0
173
     0
291
     1
 45
0.0
  0
VISUALSTYLE
  5
2C
102
{ACAD_REACTORS
330
2A
102
}
330
2A
100
AcDbVisualStyle
  2
FlatWithEdges
 70
     1
 71
     2
 72
     1
 73
     1
 90
        2
 40
-0.6
 41
30.0
 62
     5
 63
     7
421
 16777215
 74
     1
 91
        4
 64
     7
 65
   257
 75
     1
175
     1
 42
1.0
 92
        0
 66
   257
 43
1.0
 76
     1
 77
     6
 78
     2
 67
     7
 79
     5
170
     0
171
     0
290
     0
174
     0
 93
       13
 44
0.0
173
     0
291
     1
 45
0.0
  0
VISUALSTYLE
  5
2D
102
{ACAD_REACTORS
330
2A
102
}
330
2A
100
AcDbVisualStyle
  2
Gouraud
 70
     2
 71
     2
 72
     2
 73
     1
 90
        2
 40
-0.6
 41
30.0
 62
     5
 63
     7
421
 16777215
 74
     0
 91
        4
 64
     7
 65
   257
 75
     1
175
     1
 42
1.0
 92
        0
 66
     7
 43
1.0
 76
     1
 77
     6
 78
     2
 67
     7
 79
     5
170
     0
171
     0
290
     0
174
     0
 93
       13
 44
0.0
173
     0
291
     1
 45
0.0
  0
VISUALSTYLE
  5
2E
102
{ACAD_REACTORS
330
2A
102
}
330
2A
100
AcDbVisualStyle
  2
GouraudWithEdges
 70
     3
 71
     2
 72
     2
 73
     1
 90
        2
 40
-0.6
 41
30.0
 62
     5
 63
     7
421
 16777215
 74
     1
 91
        4
 64
     7
 65
   257
 75
     1
175
     1
 42
1.0
 92
        0
 66
   257
 43
1.0
 76
     1
 77
     6
 78
     2
 67
     7
 79
     5
170
     0
171
     0
290
     0
174
     0
 93
       13
 44
0.0
173
     0
291
     1
 45
0.0
  0
VISUALSTYLE
  5
38
102
{ACAD_REACTORS
330
2A
102
}
330
2A
100
AcDbVisualStyle
  2
Linepattern
 70
    14
 71
     2
 72
     2
 73
     0
 90
        0
 40
-0.6
 41
-30.0
 62
     5
 63
     7
421
 16777215
 74
     1
 91
        4
 64
     7
 65
   257
 75
     7
175
     7
 42
1.0
 92
        8
 66
     7
 43
1.0
 76
     1
 77
     6
 78
     2
 67
     7
 79
     5
170
     0
171
     0
290
     0
174
     0
 93
        1
 44
0.0
173
     0
291
     1
 45
0.0
  0
VISUALSTYLE
  5
33
102
{ACAD_REACTORS
330
2A
102
}
330
2A
100
AcDbVisualStyle
  2
Realistic
 70
     8
 71
     2
 72
     2
 73
     0
 90
        0
 40
-0.6
 41
-30.0
 62
     5
 63
     7
421
 16777215
 74
     1
 91
        0
 64
     7
 65
   257
 75
     1
175
     1
 42
1.0
 92
        8
 66
     8
424
  7895160
 43
1.0
 76
     1
 77
     6
 78
     2
 67
     7
 79
     5
170
     0
171
     0
290
     0
174
     0
 93
       13
 44
0.0
173
     0
291
     0
 45
0.0
  0
VISUALSTYLE
  5
37
102
{ACAD_REACTORS
330
2A
102
}
330
2A
100
AcDbVisualStyle
  2
Thicken
 70
    13
 71
     2
 72
     2
 73
     0
 90
        0
 40
-0.6
 41
-30.0
 62
     5
 63
     7
421
 16777215
 74
     1
 91
        4
 64
     7
 65
   257
 75
     1
175
     1
 42
1.0
 92
       12
 66
     7
 43
1.0
 76
     1
 77
     6
 78
     2
 67
     7
 79
     5
170
     0
171
     0
290
     0
174
     0
 93
        1
 44
0.0
173
     0
291
     1
 45
0.0
  0
ENDSEC
  0
EOF
