M48
;DRILL file {KiCad (5.0.2)-1} date 06/08/2021 22:31:03
;FORMAT={-:-/ absolute / inch / decimal}
FMAT,2
INCH,TZ
T1C0.0394
T2C0.0591
T3C0.1260
T4C0.2480
%
G90
G05
T1
X-0.3453Y0.4305
X-0.2453Y0.4305
X0.2453Y0.4305
X0.3453Y0.4305
T3
X-0.5906Y0.
X0.5906Y0.
T4
X-0.5906Y0.5906
X0.5906Y0.5906
T1
X-0.6363Y-0.2874G85X-0.5773Y-0.2874
G05
X-0.6363Y-0.4724G85X-0.5773Y-0.4724
G05
X-0.6363Y-0.6574G85X-0.5773Y-0.6574
G05
X-0.4463Y-0.2874G85X-0.3873Y-0.2874
G05
X-0.4463Y-0.4724G85X-0.3873Y-0.4724
G05
X-0.4463Y-0.6574G85X-0.3873Y-0.6574
G05
X0.3873Y-0.2874G85X0.4463Y-0.2874
G05
X0.3873Y-0.4724G85X0.4463Y-0.4724
G05
X0.3873Y-0.6574G85X0.4463Y-0.6574
G05
X0.5773Y-0.2874G85X0.6363Y-0.2874
G05
X0.5773Y-0.4724G85X0.6363Y-0.4724
G05
X0.5773Y-0.6574G85X0.6363Y-0.6574
G05
T2
X-0.185Y-0.3799G85X-0.185Y-0.4468
G05
X-0.0335Y-0.2952G85X0.0335Y-0.2952
G05
X-0.0335Y-0.5312G85X0.0335Y-0.5312
G05
T0
M30
