<?xml version="1.0" encoding="UTF-8"?>
<!DOCTYPE svg PUBLIC "-//W3C//DTD SVG 1.1//EN" "http://www.w3.org/Graphics/SVG/1.1/DTD/svg11.dtd">
<!-- Creator: CorelDRAW -->
<svg xmlns="http://www.w3.org/2000/svg" xml:space="preserve" width="133.529mm" height="93.5292mm" style="shape-rendering:geometricPrecision; text-rendering:geometricPrecision; image-rendering:optimizeQuality; fill-rule:evenodd; clip-rule:evenodd"
viewBox="0 0 51.9026 36.3546"
 xmlns:xlink="http://www.w3.org/1999/xlink">
 <defs>
  <style type="text/css">
   <![CDATA[
    .str2 {stroke:#1F1A17;stroke-width:0.205699}
    .str1 {stroke:#1F1A17;stroke-width:0.205699;stroke-linecap:round;stroke-linejoin:round}
    .str0 {stroke:black;stroke-width:0.205699;stroke-linecap:round;stroke-linejoin:round}
    .fil0 {fill:none}
   ]]>
  </style>
 </defs>
 <g id="Layer_x0020_1">
  <metadata id="CorelCorpID_0Corel-Layer"/>
  <path class="fil0 str0" d="M1.42442 33.1228l0.161271 0c0.105843,-0.182883 0.258329,-0.335369 0.441211,-0.441211l0 -0.161271 0.602482 0 0.602482 0 0 0.161271c0.182883,0.105843 0.335369,0.258329 0.441211,0.441211l0.161271 0 0 0.602482 0 0.602482 -0.161271 0c-0.105843,0.182883 -0.258329,0.335369 -0.441211,0.441211l0 0.161271 -0.602482 0 -0.602482 0 0 -0.161271c-0.182883,-0.105843 -0.335369,-0.258329 -0.441211,-0.441211l-0.161271 0 0 -0.602482 0 -0.602482z"/>
  <path class="fil0 str0" d="M1.42442 25.3488l0.161271 0c0.105843,-0.182883 0.258329,-0.335369 0.441211,-0.441211l0 -0.161271 0.602482 0 0.602482 0 0 0.161271c0.182883,0.105843 0.335369,0.258329 0.441211,0.441211l0.161271 0 0 0.602482 0 0.602482 -0.161271 0c-0.105843,0.182883 -0.258329,0.335369 -0.441211,0.441211l0 0.161271 -0.602482 0 -0.602482 0 0 -0.161271c-0.182883,-0.105843 -0.335369,-0.258329 -0.441211,-0.441211l-0.161271 0 0 -0.602482 0 -0.602482z"/>
  <path class="fil0 str0" d="M1.42442 17.5748l0.161271 0c0.105843,-0.182883 0.258329,-0.335369 0.441211,-0.441211l0 -0.161271 0.602482 0 0.602482 0 0 0.161271c0.182883,0.105843 0.335369,0.258329 0.441211,0.441211l0.161271 0 0 0.602482 0 0.602482 -0.161271 0c-0.105843,0.182883 -0.258329,0.335369 -0.441211,0.441211l0 0.161271 -0.602482 0 -0.602482 0 0 -0.161271c-0.182883,-0.105843 -0.335369,-0.258329 -0.441211,-0.441211l-0.161271 0 0 -0.602482 0 -0.602482z"/>
  <path class="fil0 str0" d="M1.42442 9.80087l0.161271 0c0.105843,-0.182883 0.258329,-0.335369 0.441211,-0.441211l0 -0.161271 0.602482 0 0.602482 0 0 0.161271c0.182883,0.105843 0.335369,0.258329 0.441211,0.441211l0.161271 0 0 0.602482 0 0.602482 -0.161271 0c-0.105843,0.182883 -0.258329,0.335369 -0.441211,0.441211l0 0.161271 -0.602482 0 -0.602482 0 0 -0.161271c-0.182883,-0.105843 -0.335369,-0.258329 -0.441211,-0.441211l-0.161271 0 0 -0.602482 0 -0.602482z"/>
  <path class="fil0 str0" d="M1.42442 2.02691l0.161271 0c0.105843,-0.182883 0.258329,-0.335369 0.441211,-0.441211l0 -0.161271 0.602482 0 0.602482 0 0 0.161271c0.182883,0.105843 0.335369,0.258329 0.441211,0.441211l0.161271 0 0 0.602482 0 0.602482 -0.161271 0c-0.105843,0.182883 -0.258329,0.335369 -0.441211,0.441211l0 0.161271 -0.602482 0 -0.602482 0 0 -0.161271c-0.182883,-0.105843 -0.335369,-0.258329 -0.441211,-0.441211l-0.161271 0 0 -0.602482 0 -0.602482z"/>
  <rect class="fil0 str1" x="2.00747" y="28.6333" width="1.24383" height="2.40993"/>
  <rect class="fil0 str1" x="2.00747" y="20.8593" width="1.24383" height="2.40993"/>
  <rect class="fil0 str1" x="2.00747" y="13.0854" width="1.24383" height="2.40993"/>
  <rect class="fil0 str1" x="2.00747" y="5.31141" width="1.24383" height="2.40993"/>
  <path class="fil0 str0" d="M9.19839 33.1228l0.161271 0c0.105843,-0.182883 0.258329,-0.335369 0.441211,-0.441211l0 -0.161271 0.602482 0 0.602482 0 0 0.161271c0.182883,0.105843 0.335369,0.258329 0.441211,0.441211l0.161271 0 0 0.602482 0 0.602482 -0.161271 0c-0.105843,0.182883 -0.258329,0.335369 -0.441211,0.441211l0 0.161271 -0.602482 0 -0.602482 0 0 -0.161271c-0.182883,-0.105843 -0.335369,-0.258329 -0.441211,-0.441211l-0.161271 0 0 -0.602482 0 -0.602482z"/>
  <path class="fil0 str0" d="M9.19839 25.3488l0.161271 0c0.105843,-0.182883 0.258329,-0.335369 0.441211,-0.441211l0 -0.161271 0.602482 0 0.602482 0 0 0.161271c0.182883,0.105843 0.335369,0.258329 0.441211,0.441211l0.161271 0 0 0.602482 0 0.602482 -0.161271 0c-0.105843,0.182883 -0.258329,0.335369 -0.441211,0.441211l0 0.161271 -0.602482 0 -0.602482 0 0 -0.161271c-0.182883,-0.105843 -0.335369,-0.258329 -0.441211,-0.441211l-0.161271 0 0 -0.602482 0 -0.602482z"/>
  <path class="fil0 str0" d="M9.19839 17.5748l0.161271 0c0.105843,-0.182883 0.258329,-0.335369 0.441211,-0.441211l0 -0.161271 0.602482 0 0.602482 0 0 0.161271c0.182883,0.105843 0.335369,0.258329 0.441211,0.441211l0.161271 0 0 0.602482 0 0.602482 -0.161271 0c-0.105843,0.182883 -0.258329,0.335369 -0.441211,0.441211l0 0.161271 -0.602482 0 -0.602482 0 0 -0.161271c-0.182883,-0.105843 -0.335369,-0.258329 -0.441211,-0.441211l-0.161271 0 0 -0.602482 0 -0.602482z"/>
  <path class="fil0 str0" d="M9.19839 9.80087l0.161271 0c0.105843,-0.182883 0.258329,-0.335369 0.441211,-0.441211l0 -0.161271 0.602482 0 0.602482 0 0 0.161271c0.182883,0.105843 0.335369,0.258329 0.441211,0.441211l0.161271 0 0 0.602482 0 0.602482 -0.161271 0c-0.105843,0.182883 -0.258329,0.335369 -0.441211,0.441211l0 0.161271 -0.602482 0 -0.602482 0 0 -0.161271c-0.182883,-0.105843 -0.335369,-0.258329 -0.441211,-0.441211l-0.161271 0 0 -0.602482 0 -0.602482z"/>
  <path class="fil0 str0" d="M9.19839 2.02691l0.161271 0c0.105843,-0.182883 0.258329,-0.335369 0.441211,-0.441211l0 -0.161271 0.602482 0 0.602482 0 0 0.161271c0.182883,0.105843 0.335369,0.258329 0.441211,0.441211l0.161271 0 0 0.602482 0 0.602482 -0.161271 0c-0.105843,0.182883 -0.258329,0.335369 -0.441211,0.441211l0 0.161271 -0.602482 0 -0.602482 0 0 -0.161271c-0.182883,-0.105843 -0.335369,-0.258329 -0.441211,-0.441211l-0.161271 0 0 -0.602482 0 -0.602482z"/>
  <rect class="fil0 str1" x="9.78144" y="28.6333" width="1.24383" height="2.40993"/>
  <rect class="fil0 str1" x="9.78144" y="20.8593" width="1.24383" height="2.40993"/>
  <rect class="fil0 str1" x="9.78144" y="13.0854" width="1.24383" height="2.40993"/>
  <rect class="fil0 str1" x="9.78144" y="5.31141" width="1.24383" height="2.40993"/>
  <path class="fil0 str0" d="M16.9724 33.1228l0.161271 0c0.105843,-0.182883 0.258329,-0.335369 0.441211,-0.441211l0 -0.161271 0.602482 0 0.602482 0 0 0.161271c0.182883,0.105843 0.335369,0.258329 0.441211,0.441211l0.161271 0 0 0.602482 0 0.602482 -0.161271 0c-0.105843,0.182883 -0.258329,0.335369 -0.441211,0.441211l0 0.161271 -0.602482 0 -0.602482 0 0 -0.161271c-0.182883,-0.105843 -0.335369,-0.258329 -0.441211,-0.441211l-0.161271 0 0 -0.602482 0 -0.602482z"/>
  <path class="fil0 str0" d="M16.9724 25.3488l0.161271 0c0.105843,-0.182883 0.258329,-0.335369 0.441211,-0.441211l0 -0.161271 0.602482 0 0.602482 0 0 0.161271c0.182883,0.105843 0.335369,0.258329 0.441211,0.441211l0.161271 0 0 0.602482 0 0.602482 -0.161271 0c-0.105843,0.182883 -0.258329,0.335369 -0.441211,0.441211l0 0.161271 -0.602482 0 -0.602482 0 0 -0.161271c-0.182883,-0.105843 -0.335369,-0.258329 -0.441211,-0.441211l-0.161271 0 0 -0.602482 0 -0.602482z"/>
  <path class="fil0 str0" d="M16.9724 17.5748l0.161271 0c0.105843,-0.182883 0.258329,-0.335369 0.441211,-0.441211l0 -0.161271 0.602482 0 0.602482 0 0 0.161271c0.182883,0.105843 0.335369,0.258329 0.441211,0.441211l0.161271 0 0 0.602482 0 0.602482 -0.161271 0c-0.105843,0.182883 -0.258329,0.335369 -0.441211,0.441211l0 0.161271 -0.602482 0 -0.602482 0 0 -0.161271c-0.182883,-0.105843 -0.335369,-0.258329 -0.441211,-0.441211l-0.161271 0 0 -0.602482 0 -0.602482z"/>
  <path class="fil0 str0" d="M16.9724 9.80087l0.161271 0c0.105843,-0.182883 0.258329,-0.335369 0.441211,-0.441211l0 -0.161271 0.602482 0 0.602482 0 0 0.161271c0.182883,0.105843 0.335369,0.258329 0.441211,0.441211l0.161271 0 0 0.602482 0 0.602482 -0.161271 0c-0.105843,0.182883 -0.258329,0.335369 -0.441211,0.441211l0 0.161271 -0.602482 0 -0.602482 0 0 -0.161271c-0.182883,-0.105843 -0.335369,-0.258329 -0.441211,-0.441211l-0.161271 0 0 -0.602482 0 -0.602482z"/>
  <path class="fil0 str0" d="M16.9724 2.02691l0.161271 0c0.105843,-0.182883 0.258329,-0.335369 0.441211,-0.441211l0 -0.161271 0.602482 0 0.602482 0 0 0.161271c0.182883,0.105843 0.335369,0.258329 0.441211,0.441211l0.161271 0 0 0.602482 0 0.602482 -0.161271 0c-0.105843,0.182883 -0.258329,0.335369 -0.441211,0.441211l0 0.161271 -0.602482 0 -0.602482 0 0 -0.161271c-0.182883,-0.105843 -0.335369,-0.258329 -0.441211,-0.441211l-0.161271 0 0 -0.602482 0 -0.602482z"/>
  <rect class="fil0 str1" x="17.5554" y="28.6333" width="1.24383" height="2.40993"/>
  <rect class="fil0 str1" x="17.5554" y="20.8593" width="1.24383" height="2.40993"/>
  <rect class="fil0 str1" x="17.5554" y="13.0854" width="1.24383" height="2.40993"/>
  <rect class="fil0 str1" x="17.5554" y="5.31141" width="1.24383" height="2.40993"/>
  <path class="fil0 str0" d="M24.7463 33.1228l0.161271 0c0.105843,-0.182883 0.258329,-0.335369 0.441211,-0.441211l0 -0.161271 0.602482 0 0.602482 0 0 0.161271c0.182883,0.105843 0.335369,0.258329 0.441211,0.441211l0.161271 0 0 0.602482 0 0.602482 -0.161271 0c-0.105843,0.182883 -0.258329,0.335369 -0.441211,0.441211l0 0.161271 -0.602482 0 -0.602482 0 0 -0.161271c-0.182883,-0.105843 -0.335369,-0.258329 -0.441211,-0.441211l-0.161271 0 0 -0.602482 0 -0.602482z"/>
  <path class="fil0 str0" d="M24.7463 25.3488l0.161271 0c0.105843,-0.182883 0.258329,-0.335369 0.441211,-0.441211l0 -0.161271 0.602482 0 0.602482 0 0 0.161271c0.182883,0.105843 0.335369,0.258329 0.441211,0.441211l0.161271 0 0 0.602482 0 0.602482 -0.161271 0c-0.105843,0.182883 -0.258329,0.335369 -0.441211,0.441211l0 0.161271 -0.602482 0 -0.602482 0 0 -0.161271c-0.182883,-0.105843 -0.335369,-0.258329 -0.441211,-0.441211l-0.161271 0 0 -0.602482 0 -0.602482z"/>
  <path class="fil0 str0" d="M24.7463 17.5748l0.161271 0c0.105843,-0.182883 0.258329,-0.335369 0.441211,-0.441211l0 -0.161271 0.602482 0 0.602482 0 0 0.161271c0.182883,0.105843 0.335369,0.258329 0.441211,0.441211l0.161271 0 0 0.602482 0 0.602482 -0.161271 0c-0.105843,0.182883 -0.258329,0.335369 -0.441211,0.441211l0 0.161271 -0.602482 0 -0.602482 0 0 -0.161271c-0.182883,-0.105843 -0.335369,-0.258329 -0.441211,-0.441211l-0.161271 0 0 -0.602482 0 -0.602482z"/>
  <path class="fil0 str0" d="M24.7463 9.80087l0.161271 0c0.105843,-0.182883 0.258329,-0.335369 0.441211,-0.441211l0 -0.161271 0.602482 0 0.602482 0 0 0.161271c0.182883,0.105843 0.335369,0.258329 0.441211,0.441211l0.161271 0 0 0.602482 0 0.602482 -0.161271 0c-0.105843,0.182883 -0.258329,0.335369 -0.441211,0.441211l0 0.161271 -0.602482 0 -0.602482 0 0 -0.161271c-0.182883,-0.105843 -0.335369,-0.258329 -0.441211,-0.441211l-0.161271 0 0 -0.602482 0 -0.602482z"/>
  <path class="fil0 str0" d="M24.7463 2.02691l0.161271 0c0.105843,-0.182883 0.258329,-0.335369 0.441211,-0.441211l0 -0.161271 0.602482 0 0.602482 0 0 0.161271c0.182883,0.105843 0.335369,0.258329 0.441211,0.441211l0.161271 0 0 0.602482 0 0.602482 -0.161271 0c-0.105843,0.182883 -0.258329,0.335369 -0.441211,0.441211l0 0.161271 -0.602482 0 -0.602482 0 0 -0.161271c-0.182883,-0.105843 -0.335369,-0.258329 -0.441211,-0.441211l-0.161271 0 0 -0.602482 0 -0.602482z"/>
  <rect class="fil0 str1" x="25.3294" y="28.6333" width="1.24383" height="2.40993"/>
  <rect class="fil0 str1" x="25.3294" y="20.8593" width="1.24383" height="2.40993"/>
  <rect class="fil0 str1" x="25.3294" y="13.0854" width="1.24383" height="2.40993"/>
  <rect class="fil0 str1" x="25.3294" y="5.31141" width="1.24383" height="2.40993"/>
  <path class="fil0 str0" d="M32.5203 33.1228l0.161271 0c0.105843,-0.182883 0.258329,-0.335369 0.441211,-0.441211l0 -0.161271 0.602482 0 0.602482 0 0 0.161271c0.182883,0.105843 0.335369,0.258329 0.441211,0.441211l0.161271 0 0 0.602482 0 0.602482 -0.161271 0c-0.105843,0.182883 -0.258329,0.335369 -0.441211,0.441211l0 0.161271 -0.602482 0 -0.602482 0 0 -0.161271c-0.182883,-0.105843 -0.335369,-0.258329 -0.441211,-0.441211l-0.161271 0 0 -0.602482 0 -0.602482z"/>
  <path class="fil0 str0" d="M32.5203 25.3488l0.161271 0c0.105843,-0.182883 0.258329,-0.335369 0.441211,-0.441211l0 -0.161271 0.602482 0 0.602482 0 0 0.161271c0.182883,0.105843 0.335369,0.258329 0.441211,0.441211l0.161271 0 0 0.602482 0 0.602482 -0.161271 0c-0.105843,0.182883 -0.258329,0.335369 -0.441211,0.441211l0 0.161271 -0.602482 0 -0.602482 0 0 -0.161271c-0.182883,-0.105843 -0.335369,-0.258329 -0.441211,-0.441211l-0.161271 0 0 -0.602482 0 -0.602482z"/>
  <path class="fil0 str0" d="M32.5203 17.5748l0.161271 0c0.105843,-0.182883 0.258329,-0.335369 0.441211,-0.441211l0 -0.161271 0.602482 0 0.602482 0 0 0.161271c0.182883,0.105843 0.335369,0.258329 0.441211,0.441211l0.161271 0 0 0.602482 0 0.602482 -0.161271 0c-0.105843,0.182883 -0.258329,0.335369 -0.441211,0.441211l0 0.161271 -0.602482 0 -0.602482 0 0 -0.161271c-0.182883,-0.105843 -0.335369,-0.258329 -0.441211,-0.441211l-0.161271 0 0 -0.602482 0 -0.602482z"/>
  <path class="fil0 str0" d="M32.5203 9.80087l0.161271 0c0.105843,-0.182883 0.258329,-0.335369 0.441211,-0.441211l0 -0.161271 0.602482 0 0.602482 0 0 0.161271c0.182883,0.105843 0.335369,0.258329 0.441211,0.441211l0.161271 0 0 0.602482 0 0.602482 -0.161271 0c-0.105843,0.182883 -0.258329,0.335369 -0.441211,0.441211l0 0.161271 -0.602482 0 -0.602482 0 0 -0.161271c-0.182883,-0.105843 -0.335369,-0.258329 -0.441211,-0.441211l-0.161271 0 0 -0.602482 0 -0.602482z"/>
  <path class="fil0 str0" d="M32.5203 2.02691l0.161271 0c0.105843,-0.182883 0.258329,-0.335369 0.441211,-0.441211l0 -0.161271 0.602482 0 0.602482 0 0 0.161271c0.182883,0.105843 0.335369,0.258329 0.441211,0.441211l0.161271 0 0 0.602482 0 0.602482 -0.161271 0c-0.105843,0.182883 -0.258329,0.335369 -0.441211,0.441211l0 0.161271 -0.602482 0 -0.602482 0 0 -0.161271c-0.182883,-0.105843 -0.335369,-0.258329 -0.441211,-0.441211l-0.161271 0 0 -0.602482 0 -0.602482z"/>
  <rect class="fil0 str1" x="33.1033" y="28.6333" width="1.24383" height="2.40993"/>
  <rect class="fil0 str1" x="33.1033" y="20.8593" width="1.24383" height="2.40993"/>
  <rect class="fil0 str1" x="33.1033" y="13.0854" width="1.24383" height="2.40993"/>
  <rect class="fil0 str1" x="33.1033" y="5.31141" width="1.24383" height="2.40993"/>
  <path class="fil0 str0" d="M40.2942 33.1228l0.161271 0c0.105843,-0.182883 0.258329,-0.335369 0.441211,-0.441211l0 -0.161271 0.602482 0 0.602482 0 0 0.161271c0.182883,0.105843 0.335369,0.258329 0.441211,0.441211l0.161271 0 0 0.602482 0 0.602482 -0.161271 0c-0.105843,0.182883 -0.258329,0.335369 -0.441211,0.441211l0 0.161271 -0.602482 0 -0.602482 0 0 -0.161271c-0.182883,-0.105843 -0.335369,-0.258329 -0.441211,-0.441211l-0.161271 0 0 -0.602482 0 -0.602482z"/>
  <path class="fil0 str0" d="M40.2942 25.3488l0.161271 0c0.105843,-0.182883 0.258329,-0.335369 0.441211,-0.441211l0 -0.161271 0.602482 0 0.602482 0 0 0.161271c0.182883,0.105843 0.335369,0.258329 0.441211,0.441211l0.161271 0 0 0.602482 0 0.602482 -0.161271 0c-0.105843,0.182883 -0.258329,0.335369 -0.441211,0.441211l0 0.161271 -0.602482 0 -0.602482 0 0 -0.161271c-0.182883,-0.105843 -0.335369,-0.258329 -0.441211,-0.441211l-0.161271 0 0 -0.602482 0 -0.602482z"/>
  <path class="fil0 str0" d="M40.2942 17.5748l0.161271 0c0.105843,-0.182883 0.258329,-0.335369 0.441211,-0.441211l0 -0.161271 0.602482 0 0.602482 0 0 0.161271c0.182883,0.105843 0.335369,0.258329 0.441211,0.441211l0.161271 0 0 0.602482 0 0.602482 -0.161271 0c-0.105843,0.182883 -0.258329,0.335369 -0.441211,0.441211l0 0.161271 -0.602482 0 -0.602482 0 0 -0.161271c-0.182883,-0.105843 -0.335369,-0.258329 -0.441211,-0.441211l-0.161271 0 0 -0.602482 0 -0.602482z"/>
  <path class="fil0 str0" d="M40.2942 9.80087l0.161271 0c0.105843,-0.182883 0.258329,-0.335369 0.441211,-0.441211l0 -0.161271 0.602482 0 0.602482 0 0 0.161271c0.182883,0.105843 0.335369,0.258329 0.441211,0.441211l0.161271 0 0 0.602482 0 0.602482 -0.161271 0c-0.105843,0.182883 -0.258329,0.335369 -0.441211,0.441211l0 0.161271 -0.602482 0 -0.602482 0 0 -0.161271c-0.182883,-0.105843 -0.335369,-0.258329 -0.441211,-0.441211l-0.161271 0 0 -0.602482 0 -0.602482z"/>
  <path class="fil0 str0" d="M40.2942 2.02691l0.161271 0c0.105843,-0.182883 0.258329,-0.335369 0.441211,-0.441211l0 -0.161271 0.602482 0 0.602482 0 0 0.161271c0.182883,0.105843 0.335369,0.258329 0.441211,0.441211l0.161271 0 0 0.602482 0 0.602482 -0.161271 0c-0.105843,0.182883 -0.258329,0.335369 -0.441211,0.441211l0 0.161271 -0.602482 0 -0.602482 0 0 -0.161271c-0.182883,-0.105843 -0.335369,-0.258329 -0.441211,-0.441211l-0.161271 0 0 -0.602482 0 -0.602482z"/>
  <rect class="fil0 str1" x="40.8773" y="28.6333" width="1.24383" height="2.40993"/>
  <rect class="fil0 str1" x="40.8773" y="20.8593" width="1.24383" height="2.40993"/>
  <rect class="fil0 str1" x="40.8773" y="13.0854" width="1.24383" height="2.40993"/>
  <rect class="fil0 str1" x="40.8773" y="5.31141" width="1.24383" height="2.40993"/>
  <path class="fil0 str0" d="M48.0682 33.1228l0.161271 0c0.105843,-0.182883 0.258329,-0.335369 0.441211,-0.441211l0 -0.161271 0.602482 0 0.602482 0 0 0.161271c0.182883,0.105843 0.335369,0.258329 0.441211,0.441211l0.161271 0 0 0.602482 0 0.602482 -0.161271 0c-0.105843,0.182883 -0.258329,0.335369 -0.441211,0.441211l0 0.161271 -0.602482 0 -0.602482 0 0 -0.161271c-0.182883,-0.105843 -0.335369,-0.258329 -0.441211,-0.441211l-0.161271 0 0 -0.602482 0 -0.602482z"/>
  <path class="fil0 str0" d="M48.0682 25.3488l0.161271 0c0.105843,-0.182883 0.258329,-0.335369 0.441211,-0.441211l0 -0.161271 0.602482 0 0.602482 0 0 0.161271c0.182883,0.105843 0.335369,0.258329 0.441211,0.441211l0.161271 0 0 0.602482 0 0.602482 -0.161271 0c-0.105843,0.182883 -0.258329,0.335369 -0.441211,0.441211l0 0.161271 -0.602482 0 -0.602482 0 0 -0.161271c-0.182883,-0.105843 -0.335369,-0.258329 -0.441211,-0.441211l-0.161271 0 0 -0.602482 0 -0.602482z"/>
  <path class="fil0 str0" d="M48.0682 17.5748l0.161271 0c0.105843,-0.182883 0.258329,-0.335369 0.441211,-0.441211l0 -0.161271 0.602482 0 0.602482 0 0 0.161271c0.182883,0.105843 0.335369,0.258329 0.441211,0.441211l0.161271 0 0 0.602482 0 0.602482 -0.161271 0c-0.105843,0.182883 -0.258329,0.335369 -0.441211,0.441211l0 0.161271 -0.602482 0 -0.602482 0 0 -0.161271c-0.182883,-0.105843 -0.335369,-0.258329 -0.441211,-0.441211l-0.161271 0 0 -0.602482 0 -0.602482z"/>
  <path class="fil0 str0" d="M48.0682 9.80087l0.161271 0c0.105843,-0.182883 0.258329,-0.335369 0.441211,-0.441211l0 -0.161271 0.602482 0 0.602482 0 0 0.161271c0.182883,0.105843 0.335369,0.258329 0.441211,0.441211l0.161271 0 0 0.602482 0 0.602482 -0.161271 0c-0.105843,0.182883 -0.258329,0.335369 -0.441211,0.441211l0 0.161271 -0.602482 0 -0.602482 0 0 -0.161271c-0.182883,-0.105843 -0.335369,-0.258329 -0.441211,-0.441211l-0.161271 0 0 -0.602482 0 -0.602482z"/>
  <path class="fil0 str0" d="M48.0682 2.02691l0.161271 0c0.105843,-0.182883 0.258329,-0.335369 0.441211,-0.441211l0 -0.161271 0.602482 0 0.602482 0 0 0.161271c0.182883,0.105843 0.335369,0.258329 0.441211,0.441211l0.161271 0 0 0.602482 0 0.602482 -0.161271 0c-0.105843,0.182883 -0.258329,0.335369 -0.441211,0.441211l0 0.161271 -0.602482 0 -0.602482 0 0 -0.161271c-0.182883,-0.105843 -0.335369,-0.258329 -0.441211,-0.441211l-0.161271 0 0 -0.602482 0 -0.602482z"/>
  <rect class="fil0 str1" x="48.6513" y="28.6333" width="1.24383" height="2.40993"/>
  <rect class="fil0 str1" x="48.6513" y="20.8593" width="1.24383" height="2.40993"/>
  <rect class="fil0 str1" x="48.6513" y="13.0854" width="1.24383" height="2.40993"/>
  <rect class="fil0 str1" x="48.6513" y="5.31141" width="1.24383" height="2.40993"/>
  <rect class="fil0 str1" x="5.31141" y="33.1033" width="2.40993" height="1.24383"/>
  <rect class="fil0 str1" x="13.0854" y="33.1033" width="2.40993" height="1.24383"/>
  <rect class="fil0 str1" x="20.8593" y="33.1033" width="2.40993" height="1.24383"/>
  <rect class="fil0 str1" x="28.6333" y="33.1033" width="2.40993" height="1.24383"/>
  <rect class="fil0 str1" x="36.4073" y="33.1033" width="2.40993" height="1.24383"/>
  <rect class="fil0 str1" x="44.1812" y="33.1033" width="2.40993" height="1.24383"/>
  <rect class="fil0 str1" x="5.31141" y="25.3294" width="2.40993" height="1.24383"/>
  <rect class="fil0 str1" x="13.0854" y="25.3294" width="2.40993" height="1.24383"/>
  <rect class="fil0 str1" x="20.8593" y="25.3294" width="2.40993" height="1.24383"/>
  <rect class="fil0 str1" x="28.6333" y="25.3294" width="2.40993" height="1.24383"/>
  <rect class="fil0 str1" x="36.4073" y="25.3294" width="2.40993" height="1.24383"/>
  <rect class="fil0 str1" x="44.1812" y="25.3294" width="2.40993" height="1.24383"/>
  <rect class="fil0 str1" x="5.31141" y="17.5554" width="2.40993" height="1.24383"/>
  <rect class="fil0 str1" x="13.0854" y="17.5554" width="2.40993" height="1.24383"/>
  <rect class="fil0 str1" x="20.8593" y="17.5554" width="2.40993" height="1.24383"/>
  <rect class="fil0 str1" x="28.6333" y="17.5554" width="2.40993" height="1.24383"/>
  <rect class="fil0 str1" x="36.4073" y="17.5554" width="2.40993" height="1.24383"/>
  <rect class="fil0 str1" x="44.1812" y="17.5554" width="2.40993" height="1.24383"/>
  <rect class="fil0 str1" x="5.31141" y="9.78144" width="2.40993" height="1.24383"/>
  <rect class="fil0 str1" x="13.0854" y="9.78144" width="2.40993" height="1.24383"/>
  <rect class="fil0 str1" x="20.8593" y="9.78144" width="2.40993" height="1.24383"/>
  <rect class="fil0 str1" x="28.6333" y="9.78144" width="2.40993" height="1.24383"/>
  <rect class="fil0 str1" x="36.4073" y="9.78144" width="2.40993" height="1.24383"/>
  <rect class="fil0 str1" x="44.1812" y="9.78144" width="2.40993" height="1.24383"/>
  <rect class="fil0 str1" x="5.31141" y="2.00747" width="2.40993" height="1.24383"/>
  <rect class="fil0 str1" x="13.0854" y="2.00747" width="2.40993" height="1.24383"/>
  <rect class="fil0 str1" x="20.8593" y="2.00747" width="2.40993" height="1.24383"/>
  <rect class="fil0 str1" x="28.6333" y="2.00747" width="2.40993" height="1.24383"/>
  <rect class="fil0 str1" x="36.4073" y="2.00747" width="2.40993" height="1.24383"/>
  <rect class="fil0 str1" x="44.1812" y="2.00747" width="2.40993" height="1.24383"/>
  <path class="fil0 str2" d="M0.10285 34.3083l0 -32.262c0,-1.07316 0.870334,-1.94349 1.94349,-1.94349l47.8099 0c1.07316,0 1.94349,0.870334 1.94349,1.94349l0 32.262c0,1.07316 -0.870334,1.94349 -1.94349,1.94349l-47.8099 0c-1.07316,0 -1.94349,-0.870334 -1.94349,-1.94349z"/>
 </g>
</svg>
