G04 #@! TF.GenerationSoftware,KiCad,Pcbnew,(5.0.2)-1*
G04 #@! TF.CreationDate,2021-07-15T21:47:40+01:00*
G04 #@! TF.ProjectId,KICAD-CN-BAS2-03-03,4b494341-442d-4434-9e2d-424153322d30,rev?*
G04 #@! TF.SameCoordinates,Original*
G04 #@! TF.FileFunction,Legend,Top*
G04 #@! TF.FilePolarity,Positive*
%FSLAX46Y46*%
G04 Gerber Fmt 4.6, Leading zero omitted, Abs format (unit mm)*
G04 Created by KiCad (PCBNEW (5.0.2)-1) date 15/07/2021 21:47:40*
%MOMM*%
%LPD*%
G01*
G04 APERTURE LIST*
%ADD10C,0.500000*%
%ADD11C,0.250000*%
%ADD12C,0.150000*%
G04 APERTURE END LIST*
D10*
G04 #@! TO.C,J1*
X-10040000Y12015000D02*
X-10040000Y20515000D01*
X-2420000Y12015000D02*
X-2420000Y20515000D01*
X-10040000Y14515000D02*
X-2420000Y14515000D01*
X-10040000Y20515000D02*
X-2420000Y20515000D01*
D11*
G04 #@! TO.C,J2*
X-4500880Y-19000500D02*
X4500880Y-19000500D01*
X-4500880Y-22500620D02*
X4500880Y-22500620D01*
X4500880Y-22500620D02*
X4500880Y-7999760D01*
X4500880Y-7999760D02*
X-4500880Y-7999760D01*
X-4500880Y-7999760D02*
X-4500880Y-22500620D01*
D10*
G04 #@! TO.C,J3*
X4960000Y20515000D02*
X12580000Y20515000D01*
X4960000Y14515000D02*
X12580000Y14515000D01*
X12580000Y12015000D02*
X12580000Y20515000D01*
X4960000Y12015000D02*
X4960000Y20515000D01*
D11*
G04 #@! TO.C,S1*
X-9750000Y2250000D02*
X-5250000Y2250000D01*
X-11000000Y6250000D02*
X-11000000Y4750000D01*
X-5250000Y8750000D02*
X-9750000Y8750000D01*
X-4000000Y4750000D02*
X-4000000Y6250000D01*
G04 #@! TO.C,S2*
X11000000Y4750000D02*
X11000000Y6250000D01*
X9750000Y8750000D02*
X5250000Y8750000D01*
X4000000Y6250000D02*
X4000000Y4750000D01*
X5250000Y2250000D02*
X9750000Y2250000D01*
G04 #@! TO.C,J1*
D12*
X-6563333Y16102619D02*
X-6563333Y15388333D01*
X-6610952Y15245476D01*
X-6706190Y15150238D01*
X-6849047Y15102619D01*
X-6944285Y15102619D01*
X-5563333Y15102619D02*
X-6134761Y15102619D01*
X-5849047Y15102619D02*
X-5849047Y16102619D01*
X-5944285Y15959761D01*
X-6039523Y15864523D01*
X-6134761Y15816904D01*
G04 #@! TO.C,J2*
X-333333Y-4353340D02*
X-333333Y-5067626D01*
X-380952Y-5210483D01*
X-476190Y-5305721D01*
X-619047Y-5353340D01*
X-714285Y-5353340D01*
X95238Y-4448579D02*
X142857Y-4400960D01*
X238095Y-4353340D01*
X476190Y-4353340D01*
X571428Y-4400960D01*
X619047Y-4448579D01*
X666666Y-4543817D01*
X666666Y-4639055D01*
X619047Y-4781912D01*
X47619Y-5353340D01*
X666666Y-5353340D01*
G04 #@! TO.C,J3*
X8436666Y16102619D02*
X8436666Y15388333D01*
X8389047Y15245476D01*
X8293809Y15150238D01*
X8150952Y15102619D01*
X8055714Y15102619D01*
X8817619Y16102619D02*
X9436666Y16102619D01*
X9103333Y15721666D01*
X9246190Y15721666D01*
X9341428Y15674047D01*
X9389047Y15626428D01*
X9436666Y15531190D01*
X9436666Y15293095D01*
X9389047Y15197857D01*
X9341428Y15150238D01*
X9246190Y15102619D01*
X8960476Y15102619D01*
X8865238Y15150238D01*
X8817619Y15197857D01*
G04 #@! TO.C,S1*
X-8261904Y9345238D02*
X-8119047Y9297619D01*
X-7880952Y9297619D01*
X-7785714Y9345238D01*
X-7738095Y9392857D01*
X-7690476Y9488095D01*
X-7690476Y9583333D01*
X-7738095Y9678571D01*
X-7785714Y9726190D01*
X-7880952Y9773809D01*
X-8071428Y9821428D01*
X-8166666Y9869047D01*
X-8214285Y9916666D01*
X-8261904Y10011904D01*
X-8261904Y10107142D01*
X-8214285Y10202380D01*
X-8166666Y10250000D01*
X-8071428Y10297619D01*
X-7833333Y10297619D01*
X-7690476Y10250000D01*
X-6738095Y9297619D02*
X-7309523Y9297619D01*
X-7023809Y9297619D02*
X-7023809Y10297619D01*
X-7119047Y10154761D01*
X-7214285Y10059523D01*
X-7309523Y10011904D01*
G04 #@! TO.C,S2*
X6738095Y9345238D02*
X6880952Y9297619D01*
X7119047Y9297619D01*
X7214285Y9345238D01*
X7261904Y9392857D01*
X7309523Y9488095D01*
X7309523Y9583333D01*
X7261904Y9678571D01*
X7214285Y9726190D01*
X7119047Y9773809D01*
X6928571Y9821428D01*
X6833333Y9869047D01*
X6785714Y9916666D01*
X6738095Y10011904D01*
X6738095Y10107142D01*
X6785714Y10202380D01*
X6833333Y10250000D01*
X6928571Y10297619D01*
X7166666Y10297619D01*
X7309523Y10250000D01*
X7690476Y10202380D02*
X7738095Y10250000D01*
X7833333Y10297619D01*
X8071428Y10297619D01*
X8166666Y10250000D01*
X8214285Y10202380D01*
X8261904Y10107142D01*
X8261904Y10011904D01*
X8214285Y9869047D01*
X7642857Y9297619D01*
X8261904Y9297619D01*
G04 #@! TO.C,*
G04 #@! TD*
M02*
