  0
SECTION
  2
BLOCKS
  0
ENDSEC
  0
SECTION
  2
ENTITIES
  0
LINE
  8
0
 10
136.314
 20
9.00986
 11
136.627
 21
9.03941
  0
LINE
  8
0
 10
136.627
 20
9.03941
 11
136.937
 21
9.08856
  0
LINE
  8
0
 10
136.937
 20
9.08856
 11
137.243
 21
9.15707
  0
LINE
  8
0
 10
137.243
 20
9.15707
 11
137.545
 21
9.24471
  0
LINE
  8
0
 10
137.545
 20
9.24471
 11
137.841
 21
9.3511
  0
LINE
  8
0
 10
137.841
 20
9.3511
 11
138.129
 21
9.47586
  0
LINE
  8
0
 10
138.129
 20
9.47586
 11
138.409
 21
9.61845
  0
LINE
  8
0
 10
138.409
 20
9.61845
 11
138.679
 21
9.77835
  0
LINE
  8
0
 10
138.679
 20
9.77835
 11
138.939
 21
9.95491
  0
LINE
  8
0
 10
138.939
 20
9.95491
 11
139.187
 21
10.1474
  0
LINE
  8
0
 10
139.187
 20
10.1474
 11
139.423
 21
10.3551
  0
LINE
  8
0
 10
139.423
 20
10.3551
 11
139.645
 21
10.5773
  0
LINE
  8
0
 10
139.645
 20
10.5773
 11
139.853
 21
10.8129
  0
LINE
  8
0
 10
139.853
 20
10.8129
 11
140.045
 21
11.0611
  0
LINE
  8
0
 10
140.045
 20
11.0611
 11
140.222
 21
11.3209
  0
LINE
  8
0
 10
140.222
 20
11.3209
 11
140.382
 21
11.5912
  0
LINE
  8
0
 10
140.382
 20
11.5912
 11
140.524
 21
11.8711
  0
LINE
  8
0
 10
140.524
 20
11.8711
 11
140.649
 21
12.1594
  0
LINE
  8
0
 10
140.649
 20
12.1594
 11
140.755
 21
12.4549
  0
LINE
  8
0
 10
140.755
 20
12.4549
 11
140.843
 21
12.7565
  0
LINE
  8
0
 10
140.843
 20
12.7565
 11
140.911
 21
13.0631
  0
LINE
  8
0
 10
140.911
 20
13.0631
 11
140.961
 21
13.3733
  0
LINE
  8
0
 10
140.961
 20
13.3733
 11
140.99
 21
13.686
  0
LINE
  8
0
 10
140.99
 20
13.686
 11
141
 21
14
  0
LINE
  8
0
 10
141
 20
14
 11
141
 21
46
  0
LINE
  8
0
 10
141
 20
46
 11
140.99
 21
46.3139
  0
LINE
  8
0
 10
140.99
 20
46.3139
 11
140.961
 21
46.6267
  0
LINE
  8
0
 10
140.961
 20
46.6267
 11
140.911
 21
46.9369
  0
LINE
  8
0
 10
140.911
 20
46.9369
 11
140.843
 21
47.2434
  0
LINE
  8
0
 10
140.843
 20
47.2434
 11
140.755
 21
47.5451
  0
LINE
  8
0
 10
140.755
 20
47.5451
 11
140.649
 21
47.8406
  0
LINE
  8
0
 10
140.649
 20
47.8406
 11
140.524
 21
48.1289
  0
LINE
  8
0
 10
140.524
 20
48.1289
 11
140.382
 21
48.4088
  0
LINE
  8
0
 10
140.382
 20
48.4088
 11
140.222
 21
48.6791
  0
LINE
  8
0
 10
140.222
 20
48.6791
 11
140.045
 21
48.9389
  0
LINE
  8
0
 10
140.045
 20
48.9389
 11
139.853
 21
49.1871
  0
LINE
  8
0
 10
139.853
 20
49.1871
 11
139.645
 21
49.4227
  0
LINE
  8
0
 10
139.645
 20
49.4227
 11
139.423
 21
49.6448
  0
LINE
  8
0
 10
139.423
 20
49.6448
 11
139.187
 21
49.8526
  0
LINE
  8
0
 10
139.187
 20
49.8526
 11
138.939
 21
50.0451
  0
LINE
  8
0
 10
138.939
 20
50.0451
 11
138.679
 21
50.2216
  0
LINE
  8
0
 10
138.679
 20
50.2216
 11
138.409
 21
50.3815
  0
LINE
  8
0
 10
138.409
 20
50.3815
 11
138.129
 21
50.5241
  0
LINE
  8
0
 10
138.129
 20
50.5241
 11
137.841
 21
50.6489
  0
LINE
  8
0
 10
137.841
 20
50.6489
 11
137.545
 21
50.7553
  0
LINE
  8
0
 10
137.545
 20
50.7553
 11
137.243
 21
50.8429
  0
LINE
  8
0
 10
137.243
 20
50.8429
 11
136.937
 21
50.9114
  0
LINE
  8
0
 10
136.937
 20
50.9114
 11
136.627
 21
50.9606
  0
LINE
  8
0
 10
136.627
 20
50.9606
 11
136.314
 21
50.9901
  0
LINE
  8
0
 10
136.314
 20
50.9901
 11
136
 21
51
  0
LINE
  8
0
 10
136
 20
51
 11
14
 21
51
  0
LINE
  8
0
 10
14
 20
51
 11
13.686
 21
50.9901
  0
LINE
  8
0
 10
13.686
 20
50.9901
 11
13.3733
 21
50.9606
  0
LINE
  8
0
 10
13.3733
 20
50.9606
 11
13.0631
 21
50.9114
  0
LINE
  8
0
 10
13.0631
 20
50.9114
 11
12.7565
 21
50.8429
  0
LINE
  8
0
 10
12.7565
 20
50.8429
 11
12.4549
 21
50.7553
  0
LINE
  8
0
 10
12.4549
 20
50.7553
 11
12.1594
 21
50.6489
  0
LINE
  8
0
 10
12.1594
 20
50.6489
 11
11.8711
 21
50.5241
  0
LINE
  8
0
 10
11.8711
 20
50.5241
 11
11.5912
 21
50.3815
  0
LINE
  8
0
 10
11.5912
 20
50.3815
 11
11.3209
 21
50.2216
  0
LINE
  8
0
 10
11.3209
 20
50.2216
 11
11.0611
 21
50.0451
  0
LINE
  8
0
 10
11.0611
 20
50.0451
 11
10.8129
 21
49.8526
  0
LINE
  8
0
 10
10.8129
 20
49.8526
 11
10.5773
 21
49.6448
  0
LINE
  8
0
 10
10.5773
 20
49.6448
 11
10.3551
 21
49.4227
  0
LINE
  8
0
 10
10.3551
 20
49.4227
 11
10.1474
 21
49.1871
  0
LINE
  8
0
 10
10.1474
 20
49.1871
 11
9.95491
 21
48.9389
  0
LINE
  8
0
 10
9.95491
 20
48.9389
 11
9.77835
 21
48.6791
  0
LINE
  8
0
 10
9.77835
 20
48.6791
 11
9.61845
 21
48.4088
  0
LINE
  8
0
 10
9.61845
 20
48.4088
 11
9.47586
 21
48.1289
  0
LINE
  8
0
 10
9.47586
 20
48.1289
 11
9.3511
 21
47.8406
  0
LINE
  8
0
 10
9.3511
 20
47.8406
 11
9.24471
 21
47.5451
  0
LINE
  8
0
 10
9.24471
 20
47.5451
 11
9.15707
 21
47.2434
  0
LINE
  8
0
 10
9.15707
 20
47.2434
 11
9.08856
 21
46.9369
  0
LINE
  8
0
 10
9.08856
 20
46.9369
 11
9.03941
 21
46.6267
  0
LINE
  8
0
 10
9.03941
 20
46.6267
 11
9.00986
 21
46.3139
  0
LINE
  8
0
 10
9.00986
 20
46.3139
 11
9
 21
46
  0
LINE
  8
0
 10
9
 20
46
 11
9
 21
14
  0
LINE
  8
0
 10
9
 20
14
 11
9.00986
 21
13.686
  0
LINE
  8
0
 10
9.00986
 20
13.686
 11
9.03941
 21
13.3733
  0
LINE
  8
0
 10
9.03941
 20
13.3733
 11
9.08856
 21
13.0631
  0
LINE
  8
0
 10
9.08856
 20
13.0631
 11
9.15707
 21
12.7565
  0
LINE
  8
0
 10
9.15707
 20
12.7565
 11
9.24471
 21
12.4549
  0
LINE
  8
0
 10
9.24471
 20
12.4549
 11
9.3511
 21
12.1594
  0
LINE
  8
0
 10
9.3511
 20
12.1594
 11
9.47586
 21
11.8711
  0
LINE
  8
0
 10
9.47586
 20
11.8711
 11
9.61845
 21
11.5912
  0
LINE
  8
0
 10
9.61845
 20
11.5912
 11
9.77835
 21
11.3209
  0
LINE
  8
0
 10
9.77835
 20
11.3209
 11
9.95491
 21
11.0611
  0
LINE
  8
0
 10
9.95491
 20
11.0611
 11
10.1474
 21
10.8129
  0
LINE
  8
0
 10
10.1474
 20
10.8129
 11
10.3551
 21
10.5773
  0
LINE
  8
0
 10
10.3551
 20
10.5773
 11
10.5773
 21
10.3551
  0
LINE
  8
0
 10
10.5773
 20
10.3551
 11
10.8129
 21
10.1474
  0
LINE
  8
0
 10
10.8129
 20
10.1474
 11
11.0611
 21
9.95491
  0
LINE
  8
0
 10
11.0611
 20
9.95491
 11
11.3209
 21
9.77835
  0
LINE
  8
0
 10
11.3209
 20
9.77835
 11
11.5912
 21
9.61845
  0
LINE
  8
0
 10
11.5912
 20
9.61845
 11
11.8711
 21
9.47586
  0
LINE
  8
0
 10
11.8711
 20
9.47586
 11
12.1594
 21
9.3511
  0
LINE
  8
0
 10
12.1594
 20
9.3511
 11
12.4549
 21
9.24471
  0
LINE
  8
0
 10
12.4549
 20
9.24471
 11
12.7565
 21
9.15707
  0
LINE
  8
0
 10
12.7565
 20
9.15707
 11
13.0631
 21
9.08856
  0
LINE
  8
0
 10
13.0631
 20
9.08856
 11
13.3733
 21
9.03941
  0
LINE
  8
0
 10
13.3733
 20
9.03941
 11
13.686
 21
9.00986
  0
LINE
  8
0
 10
13.686
 20
9.00986
 11
14
 21
9
  0
LINE
  8
0
 10
14
 20
9
 11
136
 21
9
  0
LINE
  8
0
 10
136
 20
9
 11
136.314
 21
9.00986
  0
LINE
  8
0
 10
29.8116
 20
42.0059
 11
29.624
 21
42.0237
  0
LINE
  8
0
 10
29.624
 20
42.0237
 11
29.4379
 21
42.0531
  0
LINE
  8
0
 10
29.4379
 20
42.0531
 11
29.2539
 21
42.0942
  0
LINE
  8
0
 10
29.2539
 20
42.0942
 11
29.0729
 21
42.1468
  0
LINE
  8
0
 10
29.0729
 20
42.1468
 11
28.8956
 21
42.2107
  0
LINE
  8
0
 10
28.8956
 20
42.2107
 11
28.7227
 21
42.2855
  0
LINE
  8
0
 10
28.7227
 20
42.2855
 11
28.5547
 21
42.3711
  0
LINE
  8
0
 10
28.5547
 20
42.3711
 11
28.3925
 21
42.467
  0
LINE
  8
0
 10
28.3925
 20
42.467
 11
28.2366
 21
42.5729
  0
LINE
  8
0
 10
28.2366
 20
42.5729
 11
28.0877
 21
42.6884
  0
LINE
  8
0
 10
28.0877
 20
42.6884
 11
27.9464
 21
42.8131
  0
LINE
  8
0
 10
27.9464
 20
42.8131
 11
27.8131
 21
42.9464
  0
LINE
  8
0
 10
27.8131
 20
42.9464
 11
27.6884
 21
43.0877
  0
LINE
  8
0
 10
27.6884
 20
43.0877
 11
27.5729
 21
43.2366
  0
LINE
  8
0
 10
27.5729
 20
43.2366
 11
27.467
 21
43.3925
  0
LINE
  8
0
 10
27.467
 20
43.3925
 11
27.3711
 21
43.5547
  0
LINE
  8
0
 10
27.3711
 20
43.5547
 11
27.2855
 21
43.7227
  0
LINE
  8
0
 10
27.2855
 20
43.7227
 11
27.2107
 21
43.8956
  0
LINE
  8
0
 10
27.2107
 20
43.8956
 11
27.1468
 21
44.0729
  0
LINE
  8
0
 10
27.1468
 20
44.0729
 11
27.0942
 21
44.2539
  0
LINE
  8
0
 10
27.0942
 20
44.2539
 11
27.0531
 21
44.4379
  0
LINE
  8
0
 10
27.0531
 20
44.4379
 11
27.0237
 21
44.624
  0
LINE
  8
0
 10
27.0237
 20
44.624
 11
27.0059
 21
44.8116
  0
LINE
  8
0
 10
27.0059
 20
44.8116
 11
27
 21
45
  0
LINE
  8
0
 10
27
 20
45
 11
27.0059
 21
45.1884
  0
LINE
  8
0
 10
27.0059
 20
45.1884
 11
27.0237
 21
45.376
  0
LINE
  8
0
 10
27.0237
 20
45.376
 11
27.0531
 21
45.5621
  0
LINE
  8
0
 10
27.0531
 20
45.5621
 11
27.0942
 21
45.7461
  0
LINE
  8
0
 10
27.0942
 20
45.7461
 11
27.1468
 21
45.927
  0
LINE
  8
0
 10
27.1468
 20
45.927
 11
27.2107
 21
46.1044
  0
LINE
  8
0
 10
27.2107
 20
46.1044
 11
27.2855
 21
46.2773
  0
LINE
  8
0
 10
27.2855
 20
46.2773
 11
27.3711
 21
46.4453
  0
LINE
  8
0
 10
27.3711
 20
46.4453
 11
27.467
 21
46.6075
  0
LINE
  8
0
 10
27.467
 20
46.6075
 11
27.5729
 21
46.7634
  0
LINE
  8
0
 10
27.5729
 20
46.7634
 11
27.6884
 21
46.9123
  0
LINE
  8
0
 10
27.6884
 20
46.9123
 11
27.8131
 21
47.0536
  0
LINE
  8
0
 10
27.8131
 20
47.0536
 11
27.9464
 21
47.1869
  0
LINE
  8
0
 10
27.9464
 20
47.1869
 11
28.0877
 21
47.3115
  0
LINE
  8
0
 10
28.0877
 20
47.3115
 11
28.2366
 21
47.427
  0
LINE
  8
0
 10
28.2366
 20
47.427
 11
28.3925
 21
47.533
  0
LINE
  8
0
 10
28.3925
 20
47.533
 11
28.5547
 21
47.6289
  0
LINE
  8
0
 10
28.5547
 20
47.6289
 11
28.7227
 21
47.7145
  0
LINE
  8
0
 10
28.7227
 20
47.7145
 11
28.8956
 21
47.7893
  0
LINE
  8
0
 10
28.8956
 20
47.7893
 11
29.0729
 21
47.8532
  0
LINE
  8
0
 10
29.0729
 20
47.8532
 11
29.2539
 21
47.9057
  0
LINE
  8
0
 10
29.2539
 20
47.9057
 11
29.4379
 21
47.9469
  0
LINE
  8
0
 10
29.4379
 20
47.9469
 11
29.624
 21
47.9763
  0
LINE
  8
0
 10
29.624
 20
47.9763
 11
29.8116
 21
47.9941
  0
LINE
  8
0
 10
29.8116
 20
47.9941
 11
30
 21
48
  0
LINE
  8
0
 10
30
 20
48
 11
30.1884
 21
47.9941
  0
LINE
  8
0
 10
30.1884
 20
47.9941
 11
30.376
 21
47.9763
  0
LINE
  8
0
 10
30.376
 20
47.9763
 11
30.5621
 21
47.9469
  0
LINE
  8
0
 10
30.5621
 20
47.9469
 11
30.7461
 21
47.9057
  0
LINE
  8
0
 10
30.7461
 20
47.9057
 11
30.927
 21
47.8532
  0
LINE
  8
0
 10
30.927
 20
47.8532
 11
31.1044
 21
47.7893
  0
LINE
  8
0
 10
31.1044
 20
47.7893
 11
31.2773
 21
47.7145
  0
LINE
  8
0
 10
31.2773
 20
47.7145
 11
31.4453
 21
47.6289
  0
LINE
  8
0
 10
31.4453
 20
47.6289
 11
31.6075
 21
47.533
  0
LINE
  8
0
 10
31.6075
 20
47.533
 11
31.7634
 21
47.427
  0
LINE
  8
0
 10
31.7634
 20
47.427
 11
31.9123
 21
47.3115
  0
LINE
  8
0
 10
31.9123
 20
47.3115
 11
32.0536
 21
47.1869
  0
LINE
  8
0
 10
32.0536
 20
47.1869
 11
32.1869
 21
47.0536
  0
LINE
  8
0
 10
32.1869
 20
47.0536
 11
32.3115
 21
46.9123
  0
LINE
  8
0
 10
32.3115
 20
46.9123
 11
32.427
 21
46.7634
  0
LINE
  8
0
 10
32.427
 20
46.7634
 11
32.533
 21
46.6075
  0
LINE
  8
0
 10
32.533
 20
46.6075
 11
32.6289
 21
46.4453
  0
LINE
  8
0
 10
32.6289
 20
46.4453
 11
32.7145
 21
46.2773
  0
LINE
  8
0
 10
32.7145
 20
46.2773
 11
32.7893
 21
46.1044
  0
LINE
  8
0
 10
32.7893
 20
46.1044
 11
32.8532
 21
45.927
  0
LINE
  8
0
 10
32.8532
 20
45.927
 11
32.9057
 21
45.7461
  0
LINE
  8
0
 10
32.9057
 20
45.7461
 11
32.9469
 21
45.5621
  0
LINE
  8
0
 10
32.9469
 20
45.5621
 11
32.9763
 21
45.376
  0
LINE
  8
0
 10
32.9763
 20
45.376
 11
32.9941
 21
45.1884
  0
LINE
  8
0
 10
32.9941
 20
45.1884
 11
33
 21
45
  0
LINE
  8
0
 10
33
 20
45
 11
32.9941
 21
44.8116
  0
LINE
  8
0
 10
32.9941
 20
44.8116
 11
32.9763
 21
44.624
  0
LINE
  8
0
 10
32.9763
 20
44.624
 11
32.9469
 21
44.4379
  0
LINE
  8
0
 10
32.9469
 20
44.4379
 11
32.9057
 21
44.2539
  0
LINE
  8
0
 10
32.9057
 20
44.2539
 11
32.8532
 21
44.0729
  0
LINE
  8
0
 10
32.8532
 20
44.0729
 11
32.7893
 21
43.8956
  0
LINE
  8
0
 10
32.7893
 20
43.8956
 11
32.7145
 21
43.7227
  0
LINE
  8
0
 10
32.7145
 20
43.7227
 11
32.6289
 21
43.5547
  0
LINE
  8
0
 10
32.6289
 20
43.5547
 11
32.533
 21
43.3925
  0
LINE
  8
0
 10
32.533
 20
43.3925
 11
32.427
 21
43.2366
  0
LINE
  8
0
 10
32.427
 20
43.2366
 11
32.3115
 21
43.0877
  0
LINE
  8
0
 10
32.3115
 20
43.0877
 11
32.1869
 21
42.9464
  0
LINE
  8
0
 10
32.1869
 20
42.9464
 11
32.0536
 21
42.8131
  0
LINE
  8
0
 10
32.0536
 20
42.8131
 11
31.9123
 21
42.6884
  0
LINE
  8
0
 10
31.9123
 20
42.6884
 11
31.7634
 21
42.5729
  0
LINE
  8
0
 10
31.7634
 20
42.5729
 11
31.6075
 21
42.467
  0
LINE
  8
0
 10
31.6075
 20
42.467
 11
31.4453
 21
42.3711
  0
LINE
  8
0
 10
31.4453
 20
42.3711
 11
31.2773
 21
42.2855
  0
LINE
  8
0
 10
31.2773
 20
42.2855
 11
31.1044
 21
42.2107
  0
LINE
  8
0
 10
31.1044
 20
42.2107
 11
30.927
 21
42.1468
  0
LINE
  8
0
 10
30.927
 20
42.1468
 11
30.7461
 21
42.0942
  0
LINE
  8
0
 10
30.7461
 20
42.0942
 11
30.5621
 21
42.0531
  0
LINE
  8
0
 10
30.5621
 20
42.0531
 11
30.376
 21
42.0237
  0
LINE
  8
0
 10
30.376
 20
42.0237
 11
30.1884
 21
42.0059
  0
LINE
  8
0
 10
30.1884
 20
42.0059
 11
30
 21
42
  0
LINE
  8
0
 10
30
 20
42
 11
29.8116
 21
42.0059
  0
LINE
  8
0
 10
14.8116
 20
42.0059
 11
14.624
 21
42.0237
  0
LINE
  8
0
 10
14.624
 20
42.0237
 11
14.4379
 21
42.0531
  0
LINE
  8
0
 10
14.4379
 20
42.0531
 11
14.2539
 21
42.0942
  0
LINE
  8
0
 10
14.2539
 20
42.0942
 11
14.0729
 21
42.1468
  0
LINE
  8
0
 10
14.0729
 20
42.1468
 11
13.8956
 21
42.2107
  0
LINE
  8
0
 10
13.8956
 20
42.2107
 11
13.7227
 21
42.2855
  0
LINE
  8
0
 10
13.7227
 20
42.2855
 11
13.5547
 21
42.3711
  0
LINE
  8
0
 10
13.5547
 20
42.3711
 11
13.3925
 21
42.467
  0
LINE
  8
0
 10
13.3925
 20
42.467
 11
13.2366
 21
42.5729
  0
LINE
  8
0
 10
13.2366
 20
42.5729
 11
13.0877
 21
42.6884
  0
LINE
  8
0
 10
13.0877
 20
42.6884
 11
12.9464
 21
42.8131
  0
LINE
  8
0
 10
12.9464
 20
42.8131
 11
12.8131
 21
42.9464
  0
LINE
  8
0
 10
12.8131
 20
42.9464
 11
12.6884
 21
43.0877
  0
LINE
  8
0
 10
12.6884
 20
43.0877
 11
12.5729
 21
43.2366
  0
LINE
  8
0
 10
12.5729
 20
43.2366
 11
12.467
 21
43.3925
  0
LINE
  8
0
 10
12.467
 20
43.3925
 11
12.3711
 21
43.5547
  0
LINE
  8
0
 10
12.3711
 20
43.5547
 11
12.2855
 21
43.7227
  0
LINE
  8
0
 10
12.2855
 20
43.7227
 11
12.2107
 21
43.8956
  0
LINE
  8
0
 10
12.2107
 20
43.8956
 11
12.1468
 21
44.0729
  0
LINE
  8
0
 10
12.1468
 20
44.0729
 11
12.0942
 21
44.2539
  0
LINE
  8
0
 10
12.0942
 20
44.2539
 11
12.0531
 21
44.4379
  0
LINE
  8
0
 10
12.0531
 20
44.4379
 11
12.0237
 21
44.624
  0
LINE
  8
0
 10
12.0237
 20
44.624
 11
12.0059
 21
44.8116
  0
LINE
  8
0
 10
12.0059
 20
44.8116
 11
12
 21
45
  0
LINE
  8
0
 10
12
 20
45
 11
12.0059
 21
45.1884
  0
LINE
  8
0
 10
12.0059
 20
45.1884
 11
12.0237
 21
45.376
  0
LINE
  8
0
 10
12.0237
 20
45.376
 11
12.0531
 21
45.5621
  0
LINE
  8
0
 10
12.0531
 20
45.5621
 11
12.0942
 21
45.7461
  0
LINE
  8
0
 10
12.0942
 20
45.7461
 11
12.1468
 21
45.927
  0
LINE
  8
0
 10
12.1468
 20
45.927
 11
12.2107
 21
46.1044
  0
LINE
  8
0
 10
12.2107
 20
46.1044
 11
12.2855
 21
46.2773
  0
LINE
  8
0
 10
12.2855
 20
46.2773
 11
12.3711
 21
46.4453
  0
LINE
  8
0
 10
12.3711
 20
46.4453
 11
12.467
 21
46.6075
  0
LINE
  8
0
 10
12.467
 20
46.6075
 11
12.5729
 21
46.7634
  0
LINE
  8
0
 10
12.5729
 20
46.7634
 11
12.6884
 21
46.9123
  0
LINE
  8
0
 10
12.6884
 20
46.9123
 11
12.8131
 21
47.0536
  0
LINE
  8
0
 10
12.8131
 20
47.0536
 11
12.9464
 21
47.1869
  0
LINE
  8
0
 10
12.9464
 20
47.1869
 11
13.0877
 21
47.3115
  0
LINE
  8
0
 10
13.0877
 20
47.3115
 11
13.2366
 21
47.427
  0
LINE
  8
0
 10
13.2366
 20
47.427
 11
13.3925
 21
47.533
  0
LINE
  8
0
 10
13.3925
 20
47.533
 11
13.5547
 21
47.6289
  0
LINE
  8
0
 10
13.5547
 20
47.6289
 11
13.7227
 21
47.7145
  0
LINE
  8
0
 10
13.7227
 20
47.7145
 11
13.8956
 21
47.7893
  0
LINE
  8
0
 10
13.8956
 20
47.7893
 11
14.0729
 21
47.8532
  0
LINE
  8
0
 10
14.0729
 20
47.8532
 11
14.2539
 21
47.9057
  0
LINE
  8
0
 10
14.2539
 20
47.9057
 11
14.4379
 21
47.9469
  0
LINE
  8
0
 10
14.4379
 20
47.9469
 11
14.624
 21
47.9763
  0
LINE
  8
0
 10
14.624
 20
47.9763
 11
14.8116
 21
47.9941
  0
LINE
  8
0
 10
14.8116
 20
47.9941
 11
15
 21
48
  0
LINE
  8
0
 10
15
 20
48
 11
15.1884
 21
47.9941
  0
LINE
  8
0
 10
15.1884
 20
47.9941
 11
15.376
 21
47.9763
  0
LINE
  8
0
 10
15.376
 20
47.9763
 11
15.5621
 21
47.9469
  0
LINE
  8
0
 10
15.5621
 20
47.9469
 11
15.7461
 21
47.9057
  0
LINE
  8
0
 10
15.7461
 20
47.9057
 11
15.927
 21
47.8532
  0
LINE
  8
0
 10
15.927
 20
47.8532
 11
16.1044
 21
47.7893
  0
LINE
  8
0
 10
16.1044
 20
47.7893
 11
16.2773
 21
47.7145
  0
LINE
  8
0
 10
16.2773
 20
47.7145
 11
16.4453
 21
47.6289
  0
LINE
  8
0
 10
16.4453
 20
47.6289
 11
16.6075
 21
47.533
  0
LINE
  8
0
 10
16.6075
 20
47.533
 11
16.7634
 21
47.427
  0
LINE
  8
0
 10
16.7634
 20
47.427
 11
16.9123
 21
47.3115
  0
LINE
  8
0
 10
16.9123
 20
47.3115
 11
17.0536
 21
47.1869
  0
LINE
  8
0
 10
17.0536
 20
47.1869
 11
17.1869
 21
47.0536
  0
LINE
  8
0
 10
17.1869
 20
47.0536
 11
17.3115
 21
46.9123
  0
LINE
  8
0
 10
17.3115
 20
46.9123
 11
17.427
 21
46.7634
  0
LINE
  8
0
 10
17.427
 20
46.7634
 11
17.533
 21
46.6075
  0
LINE
  8
0
 10
17.533
 20
46.6075
 11
17.6289
 21
46.4453
  0
LINE
  8
0
 10
17.6289
 20
46.4453
 11
17.7145
 21
46.2773
  0
LINE
  8
0
 10
17.7145
 20
46.2773
 11
17.7893
 21
46.1044
  0
LINE
  8
0
 10
17.7893
 20
46.1044
 11
17.8532
 21
45.927
  0
LINE
  8
0
 10
17.8532
 20
45.927
 11
17.9057
 21
45.7461
  0
LINE
  8
0
 10
17.9057
 20
45.7461
 11
17.9469
 21
45.5621
  0
LINE
  8
0
 10
17.9469
 20
45.5621
 11
17.9763
 21
45.376
  0
LINE
  8
0
 10
17.9763
 20
45.376
 11
17.9941
 21
45.1884
  0
LINE
  8
0
 10
17.9941
 20
45.1884
 11
18
 21
45
  0
LINE
  8
0
 10
18
 20
45
 11
17.9941
 21
44.8116
  0
LINE
  8
0
 10
17.9941
 20
44.8116
 11
17.9763
 21
44.624
  0
LINE
  8
0
 10
17.9763
 20
44.624
 11
17.9469
 21
44.4379
  0
LINE
  8
0
 10
17.9469
 20
44.4379
 11
17.9057
 21
44.2539
  0
LINE
  8
0
 10
17.9057
 20
44.2539
 11
17.8532
 21
44.0729
  0
LINE
  8
0
 10
17.8532
 20
44.0729
 11
17.7893
 21
43.8956
  0
LINE
  8
0
 10
17.7893
 20
43.8956
 11
17.7145
 21
43.7227
  0
LINE
  8
0
 10
17.7145
 20
43.7227
 11
17.6289
 21
43.5547
  0
LINE
  8
0
 10
17.6289
 20
43.5547
 11
17.533
 21
43.3925
  0
LINE
  8
0
 10
17.533
 20
43.3925
 11
17.427
 21
43.2366
  0
LINE
  8
0
 10
17.427
 20
43.2366
 11
17.3115
 21
43.0877
  0
LINE
  8
0
 10
17.3115
 20
43.0877
 11
17.1869
 21
42.9464
  0
LINE
  8
0
 10
17.1869
 20
42.9464
 11
17.0536
 21
42.8131
  0
LINE
  8
0
 10
17.0536
 20
42.8131
 11
16.9123
 21
42.6884
  0
LINE
  8
0
 10
16.9123
 20
42.6884
 11
16.7634
 21
42.5729
  0
LINE
  8
0
 10
16.7634
 20
42.5729
 11
16.6075
 21
42.467
  0
LINE
  8
0
 10
16.6075
 20
42.467
 11
16.4453
 21
42.3711
  0
LINE
  8
0
 10
16.4453
 20
42.3711
 11
16.2773
 21
42.2855
  0
LINE
  8
0
 10
16.2773
 20
42.2855
 11
16.1044
 21
42.2107
  0
LINE
  8
0
 10
16.1044
 20
42.2107
 11
15.927
 21
42.1468
  0
LINE
  8
0
 10
15.927
 20
42.1468
 11
15.7461
 21
42.0942
  0
LINE
  8
0
 10
15.7461
 20
42.0942
 11
15.5621
 21
42.0531
  0
LINE
  8
0
 10
15.5621
 20
42.0531
 11
15.376
 21
42.0237
  0
LINE
  8
0
 10
15.376
 20
42.0237
 11
15.1884
 21
42.0059
  0
LINE
  8
0
 10
15.1884
 20
42.0059
 11
15
 21
42
  0
LINE
  8
0
 10
15
 20
42
 11
14.8116
 21
42.0059
  0
LINE
  8
0
 10
89.8116
 20
42.0059
 11
89.624
 21
42.0237
  0
LINE
  8
0
 10
89.624
 20
42.0237
 11
89.4379
 21
42.0531
  0
LINE
  8
0
 10
89.4379
 20
42.0531
 11
89.2539
 21
42.0942
  0
LINE
  8
0
 10
89.2539
 20
42.0942
 11
89.0729
 21
42.1468
  0
LINE
  8
0
 10
89.0729
 20
42.1468
 11
88.8956
 21
42.2107
  0
LINE
  8
0
 10
88.8956
 20
42.2107
 11
88.7227
 21
42.2855
  0
LINE
  8
0
 10
88.7227
 20
42.2855
 11
88.5547
 21
42.3711
  0
LINE
  8
0
 10
88.5547
 20
42.3711
 11
88.3925
 21
42.467
  0
LINE
  8
0
 10
88.3925
 20
42.467
 11
88.2366
 21
42.5729
  0
LINE
  8
0
 10
88.2366
 20
42.5729
 11
88.0877
 21
42.6884
  0
LINE
  8
0
 10
88.0877
 20
42.6884
 11
87.9464
 21
42.8131
  0
LINE
  8
0
 10
87.9464
 20
42.8131
 11
87.8131
 21
42.9464
  0
LINE
  8
0
 10
87.8131
 20
42.9464
 11
87.6884
 21
43.0877
  0
LINE
  8
0
 10
87.6884
 20
43.0877
 11
87.5729
 21
43.2366
  0
LINE
  8
0
 10
87.5729
 20
43.2366
 11
87.467
 21
43.3925
  0
LINE
  8
0
 10
87.467
 20
43.3925
 11
87.3711
 21
43.5547
  0
LINE
  8
0
 10
87.3711
 20
43.5547
 11
87.2855
 21
43.7227
  0
LINE
  8
0
 10
87.2855
 20
43.7227
 11
87.2107
 21
43.8956
  0
LINE
  8
0
 10
87.2107
 20
43.8956
 11
87.1468
 21
44.0729
  0
LINE
  8
0
 10
87.1468
 20
44.0729
 11
87.0942
 21
44.2539
  0
LINE
  8
0
 10
87.0942
 20
44.2539
 11
87.0531
 21
44.4379
  0
LINE
  8
0
 10
87.0531
 20
44.4379
 11
87.0237
 21
44.624
  0
LINE
  8
0
 10
87.0237
 20
44.624
 11
87.0059
 21
44.8116
  0
LINE
  8
0
 10
87.0059
 20
44.8116
 11
87
 21
45
  0
LINE
  8
0
 10
87
 20
45
 11
87.0059
 21
45.1884
  0
LINE
  8
0
 10
87.0059
 20
45.1884
 11
87.0237
 21
45.376
  0
LINE
  8
0
 10
87.0237
 20
45.376
 11
87.0531
 21
45.5621
  0
LINE
  8
0
 10
87.0531
 20
45.5621
 11
87.0942
 21
45.7461
  0
LINE
  8
0
 10
87.0942
 20
45.7461
 11
87.1468
 21
45.927
  0
LINE
  8
0
 10
87.1468
 20
45.927
 11
87.2107
 21
46.1044
  0
LINE
  8
0
 10
87.2107
 20
46.1044
 11
87.2855
 21
46.2773
  0
LINE
  8
0
 10
87.2855
 20
46.2773
 11
87.3711
 21
46.4453
  0
LINE
  8
0
 10
87.3711
 20
46.4453
 11
87.467
 21
46.6075
  0
LINE
  8
0
 10
87.467
 20
46.6075
 11
87.5729
 21
46.7634
  0
LINE
  8
0
 10
87.5729
 20
46.7634
 11
87.6884
 21
46.9123
  0
LINE
  8
0
 10
87.6884
 20
46.9123
 11
87.8131
 21
47.0536
  0
LINE
  8
0
 10
87.8131
 20
47.0536
 11
87.9464
 21
47.1869
  0
LINE
  8
0
 10
87.9464
 20
47.1869
 11
88.0877
 21
47.3115
  0
LINE
  8
0
 10
88.0877
 20
47.3115
 11
88.2366
 21
47.427
  0
LINE
  8
0
 10
88.2366
 20
47.427
 11
88.3925
 21
47.533
  0
LINE
  8
0
 10
88.3925
 20
47.533
 11
88.5547
 21
47.6289
  0
LINE
  8
0
 10
88.5547
 20
47.6289
 11
88.7227
 21
47.7145
  0
LINE
  8
0
 10
88.7227
 20
47.7145
 11
88.8956
 21
47.7893
  0
LINE
  8
0
 10
88.8956
 20
47.7893
 11
89.0729
 21
47.8532
  0
LINE
  8
0
 10
89.0729
 20
47.8532
 11
89.2539
 21
47.9057
  0
LINE
  8
0
 10
89.2539
 20
47.9057
 11
89.4379
 21
47.9469
  0
LINE
  8
0
 10
89.4379
 20
47.9469
 11
89.624
 21
47.9763
  0
LINE
  8
0
 10
89.624
 20
47.9763
 11
89.8116
 21
47.9941
  0
LINE
  8
0
 10
89.8116
 20
47.9941
 11
90
 21
48
  0
LINE
  8
0
 10
90
 20
48
 11
90.1884
 21
47.9941
  0
LINE
  8
0
 10
90.1884
 20
47.9941
 11
90.376
 21
47.9763
  0
LINE
  8
0
 10
90.376
 20
47.9763
 11
90.5621
 21
47.9469
  0
LINE
  8
0
 10
90.5621
 20
47.9469
 11
90.7461
 21
47.9057
  0
LINE
  8
0
 10
90.7461
 20
47.9057
 11
90.927
 21
47.8532
  0
LINE
  8
0
 10
90.927
 20
47.8532
 11
91.1044
 21
47.7893
  0
LINE
  8
0
 10
91.1044
 20
47.7893
 11
91.2773
 21
47.7145
  0
LINE
  8
0
 10
91.2773
 20
47.7145
 11
91.4453
 21
47.6289
  0
LINE
  8
0
 10
91.4453
 20
47.6289
 11
91.6075
 21
47.533
  0
LINE
  8
0
 10
91.6075
 20
47.533
 11
91.7634
 21
47.427
  0
LINE
  8
0
 10
91.7634
 20
47.427
 11
91.9123
 21
47.3115
  0
LINE
  8
0
 10
91.9123
 20
47.3115
 11
92.0536
 21
47.1869
  0
LINE
  8
0
 10
92.0536
 20
47.1869
 11
92.1869
 21
47.0536
  0
LINE
  8
0
 10
92.1869
 20
47.0536
 11
92.3115
 21
46.9123
  0
LINE
  8
0
 10
92.3115
 20
46.9123
 11
92.427
 21
46.7634
  0
LINE
  8
0
 10
92.427
 20
46.7634
 11
92.533
 21
46.6075
  0
LINE
  8
0
 10
92.533
 20
46.6075
 11
92.6289
 21
46.4453
  0
LINE
  8
0
 10
92.6289
 20
46.4453
 11
92.7145
 21
46.2773
  0
LINE
  8
0
 10
92.7145
 20
46.2773
 11
92.7893
 21
46.1044
  0
LINE
  8
0
 10
92.7893
 20
46.1044
 11
92.8532
 21
45.927
  0
LINE
  8
0
 10
92.8532
 20
45.927
 11
92.9057
 21
45.7461
  0
LINE
  8
0
 10
92.9057
 20
45.7461
 11
92.9469
 21
45.5621
  0
LINE
  8
0
 10
92.9469
 20
45.5621
 11
92.9763
 21
45.376
  0
LINE
  8
0
 10
92.9763
 20
45.376
 11
92.9941
 21
45.1884
  0
LINE
  8
0
 10
92.9941
 20
45.1884
 11
93
 21
45
  0
LINE
  8
0
 10
93
 20
45
 11
92.9941
 21
44.8116
  0
LINE
  8
0
 10
92.9941
 20
44.8116
 11
92.9763
 21
44.624
  0
LINE
  8
0
 10
92.9763
 20
44.624
 11
92.9469
 21
44.4379
  0
LINE
  8
0
 10
92.9469
 20
44.4379
 11
92.9057
 21
44.2539
  0
LINE
  8
0
 10
92.9057
 20
44.2539
 11
92.8532
 21
44.0729
  0
LINE
  8
0
 10
92.8532
 20
44.0729
 11
92.7893
 21
43.8956
  0
LINE
  8
0
 10
92.7893
 20
43.8956
 11
92.7145
 21
43.7227
  0
LINE
  8
0
 10
92.7145
 20
43.7227
 11
92.6289
 21
43.5547
  0
LINE
  8
0
 10
92.6289
 20
43.5547
 11
92.533
 21
43.3925
  0
LINE
  8
0
 10
92.533
 20
43.3925
 11
92.427
 21
43.2366
  0
LINE
  8
0
 10
92.427
 20
43.2366
 11
92.3115
 21
43.0877
  0
LINE
  8
0
 10
92.3115
 20
43.0877
 11
92.1869
 21
42.9464
  0
LINE
  8
0
 10
92.1869
 20
42.9464
 11
92.0536
 21
42.8131
  0
LINE
  8
0
 10
92.0536
 20
42.8131
 11
91.9123
 21
42.6884
  0
LINE
  8
0
 10
91.9123
 20
42.6884
 11
91.7634
 21
42.5729
  0
LINE
  8
0
 10
91.7634
 20
42.5729
 11
91.6075
 21
42.467
  0
LINE
  8
0
 10
91.6075
 20
42.467
 11
91.4453
 21
42.3711
  0
LINE
  8
0
 10
91.4453
 20
42.3711
 11
91.2773
 21
42.2855
  0
LINE
  8
0
 10
91.2773
 20
42.2855
 11
91.1044
 21
42.2107
  0
LINE
  8
0
 10
91.1044
 20
42.2107
 11
90.927
 21
42.1468
  0
LINE
  8
0
 10
90.927
 20
42.1468
 11
90.7461
 21
42.0942
  0
LINE
  8
0
 10
90.7461
 20
42.0942
 11
90.5621
 21
42.0531
  0
LINE
  8
0
 10
90.5621
 20
42.0531
 11
90.376
 21
42.0237
  0
LINE
  8
0
 10
90.376
 20
42.0237
 11
90.1884
 21
42.0059
  0
LINE
  8
0
 10
90.1884
 20
42.0059
 11
90
 21
42
  0
LINE
  8
0
 10
90
 20
42
 11
89.8116
 21
42.0059
  0
LINE
  8
0
 10
74.8116
 20
42.0059
 11
74.624
 21
42.0237
  0
LINE
  8
0
 10
74.624
 20
42.0237
 11
74.4379
 21
42.0531
  0
LINE
  8
0
 10
74.4379
 20
42.0531
 11
74.2539
 21
42.0942
  0
LINE
  8
0
 10
74.2539
 20
42.0942
 11
74.0729
 21
42.1468
  0
LINE
  8
0
 10
74.0729
 20
42.1468
 11
73.8956
 21
42.2107
  0
LINE
  8
0
 10
73.8956
 20
42.2107
 11
73.7227
 21
42.2855
  0
LINE
  8
0
 10
73.7227
 20
42.2855
 11
73.5547
 21
42.3711
  0
LINE
  8
0
 10
73.5547
 20
42.3711
 11
73.3925
 21
42.467
  0
LINE
  8
0
 10
73.3925
 20
42.467
 11
73.2366
 21
42.5729
  0
LINE
  8
0
 10
73.2366
 20
42.5729
 11
73.0877
 21
42.6884
  0
LINE
  8
0
 10
73.0877
 20
42.6884
 11
72.9464
 21
42.8131
  0
LINE
  8
0
 10
72.9464
 20
42.8131
 11
72.8131
 21
42.9464
  0
LINE
  8
0
 10
72.8131
 20
42.9464
 11
72.6884
 21
43.0877
  0
LINE
  8
0
 10
72.6884
 20
43.0877
 11
72.5729
 21
43.2366
  0
LINE
  8
0
 10
72.5729
 20
43.2366
 11
72.467
 21
43.3925
  0
LINE
  8
0
 10
72.467
 20
43.3925
 11
72.3711
 21
43.5547
  0
LINE
  8
0
 10
72.3711
 20
43.5547
 11
72.2855
 21
43.7227
  0
LINE
  8
0
 10
72.2855
 20
43.7227
 11
72.2107
 21
43.8956
  0
LINE
  8
0
 10
72.2107
 20
43.8956
 11
72.1468
 21
44.0729
  0
LINE
  8
0
 10
72.1468
 20
44.0729
 11
72.0942
 21
44.2539
  0
LINE
  8
0
 10
72.0942
 20
44.2539
 11
72.0531
 21
44.4379
  0
LINE
  8
0
 10
72.0531
 20
44.4379
 11
72.0237
 21
44.624
  0
LINE
  8
0
 10
72.0237
 20
44.624
 11
72.0059
 21
44.8116
  0
LINE
  8
0
 10
72.0059
 20
44.8116
 11
72
 21
45
  0
LINE
  8
0
 10
72
 20
45
 11
72.0059
 21
45.1884
  0
LINE
  8
0
 10
72.0059
 20
45.1884
 11
72.0237
 21
45.376
  0
LINE
  8
0
 10
72.0237
 20
45.376
 11
72.0531
 21
45.5621
  0
LINE
  8
0
 10
72.0531
 20
45.5621
 11
72.0942
 21
45.7461
  0
LINE
  8
0
 10
72.0942
 20
45.7461
 11
72.1468
 21
45.927
  0
LINE
  8
0
 10
72.1468
 20
45.927
 11
72.2107
 21
46.1044
  0
LINE
  8
0
 10
72.2107
 20
46.1044
 11
72.2855
 21
46.2773
  0
LINE
  8
0
 10
72.2855
 20
46.2773
 11
72.3711
 21
46.4453
  0
LINE
  8
0
 10
72.3711
 20
46.4453
 11
72.467
 21
46.6075
  0
LINE
  8
0
 10
72.467
 20
46.6075
 11
72.5729
 21
46.7634
  0
LINE
  8
0
 10
72.5729
 20
46.7634
 11
72.6884
 21
46.9123
  0
LINE
  8
0
 10
72.6884
 20
46.9123
 11
72.8131
 21
47.0536
  0
LINE
  8
0
 10
72.8131
 20
47.0536
 11
72.9464
 21
47.1869
  0
LINE
  8
0
 10
72.9464
 20
47.1869
 11
73.0877
 21
47.3115
  0
LINE
  8
0
 10
73.0877
 20
47.3115
 11
73.2366
 21
47.427
  0
LINE
  8
0
 10
73.2366
 20
47.427
 11
73.3925
 21
47.533
  0
LINE
  8
0
 10
73.3925
 20
47.533
 11
73.5547
 21
47.6289
  0
LINE
  8
0
 10
73.5547
 20
47.6289
 11
73.7227
 21
47.7145
  0
LINE
  8
0
 10
73.7227
 20
47.7145
 11
73.8956
 21
47.7893
  0
LINE
  8
0
 10
73.8956
 20
47.7893
 11
74.0729
 21
47.8532
  0
LINE
  8
0
 10
74.0729
 20
47.8532
 11
74.2539
 21
47.9057
  0
LINE
  8
0
 10
74.2539
 20
47.9057
 11
74.4379
 21
47.9469
  0
LINE
  8
0
 10
74.4379
 20
47.9469
 11
74.624
 21
47.9763
  0
LINE
  8
0
 10
74.624
 20
47.9763
 11
74.8116
 21
47.9941
  0
LINE
  8
0
 10
74.8116
 20
47.9941
 11
75
 21
48
  0
LINE
  8
0
 10
75
 20
48
 11
75.1884
 21
47.9941
  0
LINE
  8
0
 10
75.1884
 20
47.9941
 11
75.376
 21
47.9763
  0
LINE
  8
0
 10
75.376
 20
47.9763
 11
75.5621
 21
47.9469
  0
LINE
  8
0
 10
75.5621
 20
47.9469
 11
75.7461
 21
47.9057
  0
LINE
  8
0
 10
75.7461
 20
47.9057
 11
75.927
 21
47.8532
  0
LINE
  8
0
 10
75.927
 20
47.8532
 11
76.1044
 21
47.7893
  0
LINE
  8
0
 10
76.1044
 20
47.7893
 11
76.2773
 21
47.7145
  0
LINE
  8
0
 10
76.2773
 20
47.7145
 11
76.4453
 21
47.6289
  0
LINE
  8
0
 10
76.4453
 20
47.6289
 11
76.6075
 21
47.533
  0
LINE
  8
0
 10
76.6075
 20
47.533
 11
76.7634
 21
47.427
  0
LINE
  8
0
 10
76.7634
 20
47.427
 11
76.9123
 21
47.3115
  0
LINE
  8
0
 10
76.9123
 20
47.3115
 11
77.0536
 21
47.1869
  0
LINE
  8
0
 10
77.0536
 20
47.1869
 11
77.1869
 21
47.0536
  0
LINE
  8
0
 10
77.1869
 20
47.0536
 11
77.3115
 21
46.9123
  0
LINE
  8
0
 10
77.3115
 20
46.9123
 11
77.427
 21
46.7634
  0
LINE
  8
0
 10
77.427
 20
46.7634
 11
77.533
 21
46.6075
  0
LINE
  8
0
 10
77.533
 20
46.6075
 11
77.6289
 21
46.4453
  0
LINE
  8
0
 10
77.6289
 20
46.4453
 11
77.7145
 21
46.2773
  0
LINE
  8
0
 10
77.7145
 20
46.2773
 11
77.7893
 21
46.1044
  0
LINE
  8
0
 10
77.7893
 20
46.1044
 11
77.8532
 21
45.927
  0
LINE
  8
0
 10
77.8532
 20
45.927
 11
77.9057
 21
45.7461
  0
LINE
  8
0
 10
77.9057
 20
45.7461
 11
77.9469
 21
45.5621
  0
LINE
  8
0
 10
77.9469
 20
45.5621
 11
77.9763
 21
45.376
  0
LINE
  8
0
 10
77.9763
 20
45.376
 11
77.9941
 21
45.1884
  0
LINE
  8
0
 10
77.9941
 20
45.1884
 11
78
 21
45
  0
LINE
  8
0
 10
78
 20
45
 11
77.9941
 21
44.8116
  0
LINE
  8
0
 10
77.9941
 20
44.8116
 11
77.9763
 21
44.624
  0
LINE
  8
0
 10
77.9763
 20
44.624
 11
77.9469
 21
44.4379
  0
LINE
  8
0
 10
77.9469
 20
44.4379
 11
77.9057
 21
44.2539
  0
LINE
  8
0
 10
77.9057
 20
44.2539
 11
77.8532
 21
44.0729
  0
LINE
  8
0
 10
77.8532
 20
44.0729
 11
77.7893
 21
43.8956
  0
LINE
  8
0
 10
77.7893
 20
43.8956
 11
77.7145
 21
43.7227
  0
LINE
  8
0
 10
77.7145
 20
43.7227
 11
77.6289
 21
43.5547
  0
LINE
  8
0
 10
77.6289
 20
43.5547
 11
77.533
 21
43.3925
  0
LINE
  8
0
 10
77.533
 20
43.3925
 11
77.427
 21
43.2366
  0
LINE
  8
0
 10
77.427
 20
43.2366
 11
77.3115
 21
43.0877
  0
LINE
  8
0
 10
77.3115
 20
43.0877
 11
77.1869
 21
42.9464
  0
LINE
  8
0
 10
77.1869
 20
42.9464
 11
77.0536
 21
42.8131
  0
LINE
  8
0
 10
77.0536
 20
42.8131
 11
76.9123
 21
42.6884
  0
LINE
  8
0
 10
76.9123
 20
42.6884
 11
76.7634
 21
42.5729
  0
LINE
  8
0
 10
76.7634
 20
42.5729
 11
76.6075
 21
42.467
  0
LINE
  8
0
 10
76.6075
 20
42.467
 11
76.4453
 21
42.3711
  0
LINE
  8
0
 10
76.4453
 20
42.3711
 11
76.2773
 21
42.2855
  0
LINE
  8
0
 10
76.2773
 20
42.2855
 11
76.1044
 21
42.2107
  0
LINE
  8
0
 10
76.1044
 20
42.2107
 11
75.927
 21
42.1468
  0
LINE
  8
0
 10
75.927
 20
42.1468
 11
75.7461
 21
42.0942
  0
LINE
  8
0
 10
75.7461
 20
42.0942
 11
75.5621
 21
42.0531
  0
LINE
  8
0
 10
75.5621
 20
42.0531
 11
75.376
 21
42.0237
  0
LINE
  8
0
 10
75.376
 20
42.0237
 11
75.1884
 21
42.0059
  0
LINE
  8
0
 10
75.1884
 20
42.0059
 11
75
 21
42
  0
LINE
  8
0
 10
75
 20
42
 11
74.8116
 21
42.0059
  0
LINE
  8
0
 10
104.812
 20
42.0059
 11
104.624
 21
42.0237
  0
LINE
  8
0
 10
104.624
 20
42.0237
 11
104.438
 21
42.0531
  0
LINE
  8
0
 10
104.438
 20
42.0531
 11
104.254
 21
42.0942
  0
LINE
  8
0
 10
104.254
 20
42.0942
 11
104.073
 21
42.1468
  0
LINE
  8
0
 10
104.073
 20
42.1468
 11
103.896
 21
42.2107
  0
LINE
  8
0
 10
103.896
 20
42.2107
 11
103.723
 21
42.2855
  0
LINE
  8
0
 10
103.723
 20
42.2855
 11
103.555
 21
42.3711
  0
LINE
  8
0
 10
103.555
 20
42.3711
 11
103.393
 21
42.467
  0
LINE
  8
0
 10
103.393
 20
42.467
 11
103.237
 21
42.5729
  0
LINE
  8
0
 10
103.237
 20
42.5729
 11
103.088
 21
42.6884
  0
LINE
  8
0
 10
103.088
 20
42.6884
 11
102.946
 21
42.8131
  0
LINE
  8
0
 10
102.946
 20
42.8131
 11
102.813
 21
42.9464
  0
LINE
  8
0
 10
102.813
 20
42.9464
 11
102.688
 21
43.0877
  0
LINE
  8
0
 10
102.688
 20
43.0877
 11
102.573
 21
43.2366
  0
LINE
  8
0
 10
102.573
 20
43.2366
 11
102.467
 21
43.3925
  0
LINE
  8
0
 10
102.467
 20
43.3925
 11
102.371
 21
43.5547
  0
LINE
  8
0
 10
102.371
 20
43.5547
 11
102.286
 21
43.7227
  0
LINE
  8
0
 10
102.286
 20
43.7227
 11
102.211
 21
43.8956
  0
LINE
  8
0
 10
102.211
 20
43.8956
 11
102.147
 21
44.0729
  0
LINE
  8
0
 10
102.147
 20
44.0729
 11
102.094
 21
44.2539
  0
LINE
  8
0
 10
102.094
 20
44.2539
 11
102.053
 21
44.4379
  0
LINE
  8
0
 10
102.053
 20
44.4379
 11
102.024
 21
44.624
  0
LINE
  8
0
 10
102.024
 20
44.624
 11
102.006
 21
44.8116
  0
LINE
  8
0
 10
102.006
 20
44.8116
 11
102
 21
45
  0
LINE
  8
0
 10
102
 20
45
 11
102.006
 21
45.1884
  0
LINE
  8
0
 10
102.006
 20
45.1884
 11
102.024
 21
45.376
  0
LINE
  8
0
 10
102.024
 20
45.376
 11
102.053
 21
45.5621
  0
LINE
  8
0
 10
102.053
 20
45.5621
 11
102.094
 21
45.7461
  0
LINE
  8
0
 10
102.094
 20
45.7461
 11
102.147
 21
45.927
  0
LINE
  8
0
 10
102.147
 20
45.927
 11
102.211
 21
46.1044
  0
LINE
  8
0
 10
102.211
 20
46.1044
 11
102.286
 21
46.2773
  0
LINE
  8
0
 10
102.286
 20
46.2773
 11
102.371
 21
46.4453
  0
LINE
  8
0
 10
102.371
 20
46.4453
 11
102.467
 21
46.6075
  0
LINE
  8
0
 10
102.467
 20
46.6075
 11
102.573
 21
46.7634
  0
LINE
  8
0
 10
102.573
 20
46.7634
 11
102.688
 21
46.9123
  0
LINE
  8
0
 10
102.688
 20
46.9123
 11
102.813
 21
47.0536
  0
LINE
  8
0
 10
102.813
 20
47.0536
 11
102.946
 21
47.1869
  0
LINE
  8
0
 10
102.946
 20
47.1869
 11
103.088
 21
47.3115
  0
LINE
  8
0
 10
103.088
 20
47.3115
 11
103.237
 21
47.427
  0
LINE
  8
0
 10
103.237
 20
47.427
 11
103.393
 21
47.533
  0
LINE
  8
0
 10
103.393
 20
47.533
 11
103.555
 21
47.6289
  0
LINE
  8
0
 10
103.555
 20
47.6289
 11
103.723
 21
47.7145
  0
LINE
  8
0
 10
103.723
 20
47.7145
 11
103.896
 21
47.7893
  0
LINE
  8
0
 10
103.896
 20
47.7893
 11
104.073
 21
47.8532
  0
LINE
  8
0
 10
104.073
 20
47.8532
 11
104.254
 21
47.9057
  0
LINE
  8
0
 10
104.254
 20
47.9057
 11
104.438
 21
47.9469
  0
LINE
  8
0
 10
104.438
 20
47.9469
 11
104.624
 21
47.9763
  0
LINE
  8
0
 10
104.624
 20
47.9763
 11
104.812
 21
47.9941
  0
LINE
  8
0
 10
104.812
 20
47.9941
 11
105
 21
48
  0
LINE
  8
0
 10
105
 20
48
 11
105.188
 21
47.9941
  0
LINE
  8
0
 10
105.188
 20
47.9941
 11
105.376
 21
47.9763
  0
LINE
  8
0
 10
105.376
 20
47.9763
 11
105.562
 21
47.9469
  0
LINE
  8
0
 10
105.562
 20
47.9469
 11
105.746
 21
47.9057
  0
LINE
  8
0
 10
105.746
 20
47.9057
 11
105.927
 21
47.8532
  0
LINE
  8
0
 10
105.927
 20
47.8532
 11
106.104
 21
47.7893
  0
LINE
  8
0
 10
106.104
 20
47.7893
 11
106.277
 21
47.7145
  0
LINE
  8
0
 10
106.277
 20
47.7145
 11
106.445
 21
47.6289
  0
LINE
  8
0
 10
106.445
 20
47.6289
 11
106.607
 21
47.533
  0
LINE
  8
0
 10
106.607
 20
47.533
 11
106.763
 21
47.427
  0
LINE
  8
0
 10
106.763
 20
47.427
 11
106.912
 21
47.3115
  0
LINE
  8
0
 10
106.912
 20
47.3115
 11
107.054
 21
47.1869
  0
LINE
  8
0
 10
107.054
 20
47.1869
 11
107.187
 21
47.0536
  0
LINE
  8
0
 10
107.187
 20
47.0536
 11
107.312
 21
46.9123
  0
LINE
  8
0
 10
107.312
 20
46.9123
 11
107.427
 21
46.7634
  0
LINE
  8
0
 10
107.427
 20
46.7634
 11
107.533
 21
46.6075
  0
LINE
  8
0
 10
107.533
 20
46.6075
 11
107.629
 21
46.4453
  0
LINE
  8
0
 10
107.629
 20
46.4453
 11
107.714
 21
46.2773
  0
LINE
  8
0
 10
107.714
 20
46.2773
 11
107.789
 21
46.1044
  0
LINE
  8
0
 10
107.789
 20
46.1044
 11
107.853
 21
45.927
  0
LINE
  8
0
 10
107.853
 20
45.927
 11
107.906
 21
45.7461
  0
LINE
  8
0
 10
107.906
 20
45.7461
 11
107.947
 21
45.5621
  0
LINE
  8
0
 10
107.947
 20
45.5621
 11
107.976
 21
45.376
  0
LINE
  8
0
 10
107.976
 20
45.376
 11
107.994
 21
45.1884
  0
LINE
  8
0
 10
107.994
 20
45.1884
 11
108
 21
45
  0
LINE
  8
0
 10
108
 20
45
 11
107.994
 21
44.8116
  0
LINE
  8
0
 10
107.994
 20
44.8116
 11
107.976
 21
44.624
  0
LINE
  8
0
 10
107.976
 20
44.624
 11
107.947
 21
44.4379
  0
LINE
  8
0
 10
107.947
 20
44.4379
 11
107.906
 21
44.2539
  0
LINE
  8
0
 10
107.906
 20
44.2539
 11
107.853
 21
44.0729
  0
LINE
  8
0
 10
107.853
 20
44.0729
 11
107.789
 21
43.8956
  0
LINE
  8
0
 10
107.789
 20
43.8956
 11
107.714
 21
43.7227
  0
LINE
  8
0
 10
107.714
 20
43.7227
 11
107.629
 21
43.5547
  0
LINE
  8
0
 10
107.629
 20
43.5547
 11
107.533
 21
43.3925
  0
LINE
  8
0
 10
107.533
 20
43.3925
 11
107.427
 21
43.2366
  0
LINE
  8
0
 10
107.427
 20
43.2366
 11
107.312
 21
43.0877
  0
LINE
  8
0
 10
107.312
 20
43.0877
 11
107.187
 21
42.9464
  0
LINE
  8
0
 10
107.187
 20
42.9464
 11
107.054
 21
42.8131
  0
LINE
  8
0
 10
107.054
 20
42.8131
 11
106.912
 21
42.6884
  0
LINE
  8
0
 10
106.912
 20
42.6884
 11
106.763
 21
42.5729
  0
LINE
  8
0
 10
106.763
 20
42.5729
 11
106.607
 21
42.467
  0
LINE
  8
0
 10
106.607
 20
42.467
 11
106.445
 21
42.3711
  0
LINE
  8
0
 10
106.445
 20
42.3711
 11
106.277
 21
42.2855
  0
LINE
  8
0
 10
106.277
 20
42.2855
 11
106.104
 21
42.2107
  0
LINE
  8
0
 10
106.104
 20
42.2107
 11
105.927
 21
42.1468
  0
LINE
  8
0
 10
105.927
 20
42.1468
 11
105.746
 21
42.0942
  0
LINE
  8
0
 10
105.746
 20
42.0942
 11
105.562
 21
42.0531
  0
LINE
  8
0
 10
105.562
 20
42.0531
 11
105.376
 21
42.0237
  0
LINE
  8
0
 10
105.376
 20
42.0237
 11
105.188
 21
42.0059
  0
LINE
  8
0
 10
105.188
 20
42.0059
 11
105
 21
42
  0
LINE
  8
0
 10
105
 20
42
 11
104.812
 21
42.0059
  0
LINE
  8
0
 10
59.8116
 20
42.0059
 11
59.624
 21
42.0237
  0
LINE
  8
0
 10
59.624
 20
42.0237
 11
59.4379
 21
42.0531
  0
LINE
  8
0
 10
59.4379
 20
42.0531
 11
59.2539
 21
42.0942
  0
LINE
  8
0
 10
59.2539
 20
42.0942
 11
59.0729
 21
42.1468
  0
LINE
  8
0
 10
59.0729
 20
42.1468
 11
58.8956
 21
42.2107
  0
LINE
  8
0
 10
58.8956
 20
42.2107
 11
58.7227
 21
42.2855
  0
LINE
  8
0
 10
58.7227
 20
42.2855
 11
58.5547
 21
42.3711
  0
LINE
  8
0
 10
58.5547
 20
42.3711
 11
58.3925
 21
42.467
  0
LINE
  8
0
 10
58.3925
 20
42.467
 11
58.2366
 21
42.5729
  0
LINE
  8
0
 10
58.2366
 20
42.5729
 11
58.0877
 21
42.6884
  0
LINE
  8
0
 10
58.0877
 20
42.6884
 11
57.9464
 21
42.8131
  0
LINE
  8
0
 10
57.9464
 20
42.8131
 11
57.8131
 21
42.9464
  0
LINE
  8
0
 10
57.8131
 20
42.9464
 11
57.6884
 21
43.0877
  0
LINE
  8
0
 10
57.6884
 20
43.0877
 11
57.5729
 21
43.2366
  0
LINE
  8
0
 10
57.5729
 20
43.2366
 11
57.467
 21
43.3925
  0
LINE
  8
0
 10
57.467
 20
43.3925
 11
57.3711
 21
43.5547
  0
LINE
  8
0
 10
57.3711
 20
43.5547
 11
57.2855
 21
43.7227
  0
LINE
  8
0
 10
57.2855
 20
43.7227
 11
57.2107
 21
43.8956
  0
LINE
  8
0
 10
57.2107
 20
43.8956
 11
57.1468
 21
44.0729
  0
LINE
  8
0
 10
57.1468
 20
44.0729
 11
57.0942
 21
44.2539
  0
LINE
  8
0
 10
57.0942
 20
44.2539
 11
57.0531
 21
44.4379
  0
LINE
  8
0
 10
57.0531
 20
44.4379
 11
57.0237
 21
44.624
  0
LINE
  8
0
 10
57.0237
 20
44.624
 11
57.0059
 21
44.8116
  0
LINE
  8
0
 10
57.0059
 20
44.8116
 11
57
 21
45
  0
LINE
  8
0
 10
57
 20
45
 11
57.0059
 21
45.1884
  0
LINE
  8
0
 10
57.0059
 20
45.1884
 11
57.0237
 21
45.376
  0
LINE
  8
0
 10
57.0237
 20
45.376
 11
57.0531
 21
45.5621
  0
LINE
  8
0
 10
57.0531
 20
45.5621
 11
57.0942
 21
45.7461
  0
LINE
  8
0
 10
57.0942
 20
45.7461
 11
57.1468
 21
45.927
  0
LINE
  8
0
 10
57.1468
 20
45.927
 11
57.2107
 21
46.1044
  0
LINE
  8
0
 10
57.2107
 20
46.1044
 11
57.2855
 21
46.2773
  0
LINE
  8
0
 10
57.2855
 20
46.2773
 11
57.3711
 21
46.4453
  0
LINE
  8
0
 10
57.3711
 20
46.4453
 11
57.467
 21
46.6075
  0
LINE
  8
0
 10
57.467
 20
46.6075
 11
57.5729
 21
46.7634
  0
LINE
  8
0
 10
57.5729
 20
46.7634
 11
57.6884
 21
46.9123
  0
LINE
  8
0
 10
57.6884
 20
46.9123
 11
57.8131
 21
47.0536
  0
LINE
  8
0
 10
57.8131
 20
47.0536
 11
57.9464
 21
47.1869
  0
LINE
  8
0
 10
57.9464
 20
47.1869
 11
58.0877
 21
47.3115
  0
LINE
  8
0
 10
58.0877
 20
47.3115
 11
58.2366
 21
47.427
  0
LINE
  8
0
 10
58.2366
 20
47.427
 11
58.3925
 21
47.533
  0
LINE
  8
0
 10
58.3925
 20
47.533
 11
58.5547
 21
47.6289
  0
LINE
  8
0
 10
58.5547
 20
47.6289
 11
58.7227
 21
47.7145
  0
LINE
  8
0
 10
58.7227
 20
47.7145
 11
58.8956
 21
47.7893
  0
LINE
  8
0
 10
58.8956
 20
47.7893
 11
59.0729
 21
47.8532
  0
LINE
  8
0
 10
59.0729
 20
47.8532
 11
59.2539
 21
47.9057
  0
LINE
  8
0
 10
59.2539
 20
47.9057
 11
59.4379
 21
47.9469
  0
LINE
  8
0
 10
59.4379
 20
47.9469
 11
59.624
 21
47.9763
  0
LINE
  8
0
 10
59.624
 20
47.9763
 11
59.8116
 21
47.9941
  0
LINE
  8
0
 10
59.8116
 20
47.9941
 11
60
 21
48
  0
LINE
  8
0
 10
60
 20
48
 11
60.1884
 21
47.9941
  0
LINE
  8
0
 10
60.1884
 20
47.9941
 11
60.376
 21
47.9763
  0
LINE
  8
0
 10
60.376
 20
47.9763
 11
60.5621
 21
47.9469
  0
LINE
  8
0
 10
60.5621
 20
47.9469
 11
60.7461
 21
47.9057
  0
LINE
  8
0
 10
60.7461
 20
47.9057
 11
60.927
 21
47.8532
  0
LINE
  8
0
 10
60.927
 20
47.8532
 11
61.1044
 21
47.7893
  0
LINE
  8
0
 10
61.1044
 20
47.7893
 11
61.2773
 21
47.7145
  0
LINE
  8
0
 10
61.2773
 20
47.7145
 11
61.4453
 21
47.6289
  0
LINE
  8
0
 10
61.4453
 20
47.6289
 11
61.6075
 21
47.533
  0
LINE
  8
0
 10
61.6075
 20
47.533
 11
61.7634
 21
47.427
  0
LINE
  8
0
 10
61.7634
 20
47.427
 11
61.9123
 21
47.3115
  0
LINE
  8
0
 10
61.9123
 20
47.3115
 11
62.0536
 21
47.1869
  0
LINE
  8
0
 10
62.0536
 20
47.1869
 11
62.1869
 21
47.0536
  0
LINE
  8
0
 10
62.1869
 20
47.0536
 11
62.3115
 21
46.9123
  0
LINE
  8
0
 10
62.3115
 20
46.9123
 11
62.427
 21
46.7634
  0
LINE
  8
0
 10
62.427
 20
46.7634
 11
62.533
 21
46.6075
  0
LINE
  8
0
 10
62.533
 20
46.6075
 11
62.6289
 21
46.4453
  0
LINE
  8
0
 10
62.6289
 20
46.4453
 11
62.7145
 21
46.2773
  0
LINE
  8
0
 10
62.7145
 20
46.2773
 11
62.7893
 21
46.1044
  0
LINE
  8
0
 10
62.7893
 20
46.1044
 11
62.8532
 21
45.927
  0
LINE
  8
0
 10
62.8532
 20
45.927
 11
62.9057
 21
45.7461
  0
LINE
  8
0
 10
62.9057
 20
45.7461
 11
62.9469
 21
45.5621
  0
LINE
  8
0
 10
62.9469
 20
45.5621
 11
62.9763
 21
45.376
  0
LINE
  8
0
 10
62.9763
 20
45.376
 11
62.9941
 21
45.1884
  0
LINE
  8
0
 10
62.9941
 20
45.1884
 11
63
 21
45
  0
LINE
  8
0
 10
63
 20
45
 11
62.9941
 21
44.8116
  0
LINE
  8
0
 10
62.9941
 20
44.8116
 11
62.9763
 21
44.624
  0
LINE
  8
0
 10
62.9763
 20
44.624
 11
62.9469
 21
44.4379
  0
LINE
  8
0
 10
62.9469
 20
44.4379
 11
62.9057
 21
44.2539
  0
LINE
  8
0
 10
62.9057
 20
44.2539
 11
62.8532
 21
44.0729
  0
LINE
  8
0
 10
62.8532
 20
44.0729
 11
62.7893
 21
43.8956
  0
LINE
  8
0
 10
62.7893
 20
43.8956
 11
62.7145
 21
43.7227
  0
LINE
  8
0
 10
62.7145
 20
43.7227
 11
62.6289
 21
43.5547
  0
LINE
  8
0
 10
62.6289
 20
43.5547
 11
62.533
 21
43.3925
  0
LINE
  8
0
 10
62.533
 20
43.3925
 11
62.427
 21
43.2366
  0
LINE
  8
0
 10
62.427
 20
43.2366
 11
62.3115
 21
43.0877
  0
LINE
  8
0
 10
62.3115
 20
43.0877
 11
62.1869
 21
42.9464
  0
LINE
  8
0
 10
62.1869
 20
42.9464
 11
62.0536
 21
42.8131
  0
LINE
  8
0
 10
62.0536
 20
42.8131
 11
61.9123
 21
42.6884
  0
LINE
  8
0
 10
61.9123
 20
42.6884
 11
61.7634
 21
42.5729
  0
LINE
  8
0
 10
61.7634
 20
42.5729
 11
61.6075
 21
42.467
  0
LINE
  8
0
 10
61.6075
 20
42.467
 11
61.4453
 21
42.3711
  0
LINE
  8
0
 10
61.4453
 20
42.3711
 11
61.2773
 21
42.2855
  0
LINE
  8
0
 10
61.2773
 20
42.2855
 11
61.1044
 21
42.2107
  0
LINE
  8
0
 10
61.1044
 20
42.2107
 11
60.927
 21
42.1468
  0
LINE
  8
0
 10
60.927
 20
42.1468
 11
60.7461
 21
42.0942
  0
LINE
  8
0
 10
60.7461
 20
42.0942
 11
60.5621
 21
42.0531
  0
LINE
  8
0
 10
60.5621
 20
42.0531
 11
60.376
 21
42.0237
  0
LINE
  8
0
 10
60.376
 20
42.0237
 11
60.1884
 21
42.0059
  0
LINE
  8
0
 10
60.1884
 20
42.0059
 11
60
 21
42
  0
LINE
  8
0
 10
60
 20
42
 11
59.8116
 21
42.0059
  0
LINE
  8
0
 10
119.812
 20
42.0059
 11
119.624
 21
42.0237
  0
LINE
  8
0
 10
119.624
 20
42.0237
 11
119.438
 21
42.0531
  0
LINE
  8
0
 10
119.438
 20
42.0531
 11
119.254
 21
42.0942
  0
LINE
  8
0
 10
119.254
 20
42.0942
 11
119.073
 21
42.1468
  0
LINE
  8
0
 10
119.073
 20
42.1468
 11
118.896
 21
42.2107
  0
LINE
  8
0
 10
118.896
 20
42.2107
 11
118.723
 21
42.2855
  0
LINE
  8
0
 10
118.723
 20
42.2855
 11
118.555
 21
42.3711
  0
LINE
  8
0
 10
118.555
 20
42.3711
 11
118.393
 21
42.467
  0
LINE
  8
0
 10
118.393
 20
42.467
 11
118.237
 21
42.5729
  0
LINE
  8
0
 10
118.237
 20
42.5729
 11
118.088
 21
42.6884
  0
LINE
  8
0
 10
118.088
 20
42.6884
 11
117.946
 21
42.8131
  0
LINE
  8
0
 10
117.946
 20
42.8131
 11
117.813
 21
42.9464
  0
LINE
  8
0
 10
117.813
 20
42.9464
 11
117.688
 21
43.0877
  0
LINE
  8
0
 10
117.688
 20
43.0877
 11
117.573
 21
43.2366
  0
LINE
  8
0
 10
117.573
 20
43.2366
 11
117.467
 21
43.3925
  0
LINE
  8
0
 10
117.467
 20
43.3925
 11
117.371
 21
43.5547
  0
LINE
  8
0
 10
117.371
 20
43.5547
 11
117.286
 21
43.7227
  0
LINE
  8
0
 10
117.286
 20
43.7227
 11
117.211
 21
43.8956
  0
LINE
  8
0
 10
117.211
 20
43.8956
 11
117.147
 21
44.0729
  0
LINE
  8
0
 10
117.147
 20
44.0729
 11
117.094
 21
44.2539
  0
LINE
  8
0
 10
117.094
 20
44.2539
 11
117.053
 21
44.4379
  0
LINE
  8
0
 10
117.053
 20
44.4379
 11
117.024
 21
44.624
  0
LINE
  8
0
 10
117.024
 20
44.624
 11
117.006
 21
44.8116
  0
LINE
  8
0
 10
117.006
 20
44.8116
 11
117
 21
45
  0
LINE
  8
0
 10
117
 20
45
 11
117.006
 21
45.1884
  0
LINE
  8
0
 10
117.006
 20
45.1884
 11
117.024
 21
45.376
  0
LINE
  8
0
 10
117.024
 20
45.376
 11
117.053
 21
45.5621
  0
LINE
  8
0
 10
117.053
 20
45.5621
 11
117.094
 21
45.7461
  0
LINE
  8
0
 10
117.094
 20
45.7461
 11
117.147
 21
45.927
  0
LINE
  8
0
 10
117.147
 20
45.927
 11
117.211
 21
46.1044
  0
LINE
  8
0
 10
117.211
 20
46.1044
 11
117.286
 21
46.2773
  0
LINE
  8
0
 10
117.286
 20
46.2773
 11
117.371
 21
46.4453
  0
LINE
  8
0
 10
117.371
 20
46.4453
 11
117.467
 21
46.6075
  0
LINE
  8
0
 10
117.467
 20
46.6075
 11
117.573
 21
46.7634
  0
LINE
  8
0
 10
117.573
 20
46.7634
 11
117.688
 21
46.9123
  0
LINE
  8
0
 10
117.688
 20
46.9123
 11
117.813
 21
47.0536
  0
LINE
  8
0
 10
117.813
 20
47.0536
 11
117.946
 21
47.1869
  0
LINE
  8
0
 10
117.946
 20
47.1869
 11
118.088
 21
47.3115
  0
LINE
  8
0
 10
118.088
 20
47.3115
 11
118.237
 21
47.427
  0
LINE
  8
0
 10
118.237
 20
47.427
 11
118.393
 21
47.533
  0
LINE
  8
0
 10
118.393
 20
47.533
 11
118.555
 21
47.6289
  0
LINE
  8
0
 10
118.555
 20
47.6289
 11
118.723
 21
47.7145
  0
LINE
  8
0
 10
118.723
 20
47.7145
 11
118.896
 21
47.7893
  0
LINE
  8
0
 10
118.896
 20
47.7893
 11
119.073
 21
47.8532
  0
LINE
  8
0
 10
119.073
 20
47.8532
 11
119.254
 21
47.9057
  0
LINE
  8
0
 10
119.254
 20
47.9057
 11
119.438
 21
47.9469
  0
LINE
  8
0
 10
119.438
 20
47.9469
 11
119.624
 21
47.9763
  0
LINE
  8
0
 10
119.624
 20
47.9763
 11
119.812
 21
47.9941
  0
LINE
  8
0
 10
119.812
 20
47.9941
 11
120
 21
48
  0
LINE
  8
0
 10
120
 20
48
 11
120.188
 21
47.9941
  0
LINE
  8
0
 10
120.188
 20
47.9941
 11
120.376
 21
47.9763
  0
LINE
  8
0
 10
120.376
 20
47.9763
 11
120.562
 21
47.9469
  0
LINE
  8
0
 10
120.562
 20
47.9469
 11
120.746
 21
47.9057
  0
LINE
  8
0
 10
120.746
 20
47.9057
 11
120.927
 21
47.8532
  0
LINE
  8
0
 10
120.927
 20
47.8532
 11
121.104
 21
47.7893
  0
LINE
  8
0
 10
121.104
 20
47.7893
 11
121.277
 21
47.7145
  0
LINE
  8
0
 10
121.277
 20
47.7145
 11
121.445
 21
47.6289
  0
LINE
  8
0
 10
121.445
 20
47.6289
 11
121.607
 21
47.533
  0
LINE
  8
0
 10
121.607
 20
47.533
 11
121.763
 21
47.427
  0
LINE
  8
0
 10
121.763
 20
47.427
 11
121.912
 21
47.3115
  0
LINE
  8
0
 10
121.912
 20
47.3115
 11
122.054
 21
47.1869
  0
LINE
  8
0
 10
122.054
 20
47.1869
 11
122.187
 21
47.0536
  0
LINE
  8
0
 10
122.187
 20
47.0536
 11
122.312
 21
46.9123
  0
LINE
  8
0
 10
122.312
 20
46.9123
 11
122.427
 21
46.7634
  0
LINE
  8
0
 10
122.427
 20
46.7634
 11
122.533
 21
46.6075
  0
LINE
  8
0
 10
122.533
 20
46.6075
 11
122.629
 21
46.4453
  0
LINE
  8
0
 10
122.629
 20
46.4453
 11
122.714
 21
46.2773
  0
LINE
  8
0
 10
122.714
 20
46.2773
 11
122.789
 21
46.1044
  0
LINE
  8
0
 10
122.789
 20
46.1044
 11
122.853
 21
45.927
  0
LINE
  8
0
 10
122.853
 20
45.927
 11
122.906
 21
45.7461
  0
LINE
  8
0
 10
122.906
 20
45.7461
 11
122.947
 21
45.5621
  0
LINE
  8
0
 10
122.947
 20
45.5621
 11
122.976
 21
45.376
  0
LINE
  8
0
 10
122.976
 20
45.376
 11
122.994
 21
45.1884
  0
LINE
  8
0
 10
122.994
 20
45.1884
 11
123
 21
45
  0
LINE
  8
0
 10
123
 20
45
 11
122.994
 21
44.8116
  0
LINE
  8
0
 10
122.994
 20
44.8116
 11
122.976
 21
44.624
  0
LINE
  8
0
 10
122.976
 20
44.624
 11
122.947
 21
44.4379
  0
LINE
  8
0
 10
122.947
 20
44.4379
 11
122.906
 21
44.2539
  0
LINE
  8
0
 10
122.906
 20
44.2539
 11
122.853
 21
44.0729
  0
LINE
  8
0
 10
122.853
 20
44.0729
 11
122.789
 21
43.8956
  0
LINE
  8
0
 10
122.789
 20
43.8956
 11
122.714
 21
43.7227
  0
LINE
  8
0
 10
122.714
 20
43.7227
 11
122.629
 21
43.5547
  0
LINE
  8
0
 10
122.629
 20
43.5547
 11
122.533
 21
43.3925
  0
LINE
  8
0
 10
122.533
 20
43.3925
 11
122.427
 21
43.2366
  0
LINE
  8
0
 10
122.427
 20
43.2366
 11
122.312
 21
43.0877
  0
LINE
  8
0
 10
122.312
 20
43.0877
 11
122.187
 21
42.9464
  0
LINE
  8
0
 10
122.187
 20
42.9464
 11
122.054
 21
42.8131
  0
LINE
  8
0
 10
122.054
 20
42.8131
 11
121.912
 21
42.6884
  0
LINE
  8
0
 10
121.912
 20
42.6884
 11
121.763
 21
42.5729
  0
LINE
  8
0
 10
121.763
 20
42.5729
 11
121.607
 21
42.467
  0
LINE
  8
0
 10
121.607
 20
42.467
 11
121.445
 21
42.3711
  0
LINE
  8
0
 10
121.445
 20
42.3711
 11
121.277
 21
42.2855
  0
LINE
  8
0
 10
121.277
 20
42.2855
 11
121.104
 21
42.2107
  0
LINE
  8
0
 10
121.104
 20
42.2107
 11
120.927
 21
42.1468
  0
LINE
  8
0
 10
120.927
 20
42.1468
 11
120.746
 21
42.0942
  0
LINE
  8
0
 10
120.746
 20
42.0942
 11
120.562
 21
42.0531
  0
LINE
  8
0
 10
120.562
 20
42.0531
 11
120.376
 21
42.0237
  0
LINE
  8
0
 10
120.376
 20
42.0237
 11
120.188
 21
42.0059
  0
LINE
  8
0
 10
120.188
 20
42.0059
 11
120
 21
42
  0
LINE
  8
0
 10
120
 20
42
 11
119.812
 21
42.0059
  0
LINE
  8
0
 10
44.8116
 20
42.0059
 11
44.624
 21
42.0237
  0
LINE
  8
0
 10
44.624
 20
42.0237
 11
44.4379
 21
42.0531
  0
LINE
  8
0
 10
44.4379
 20
42.0531
 11
44.2539
 21
42.0942
  0
LINE
  8
0
 10
44.2539
 20
42.0942
 11
44.0729
 21
42.1468
  0
LINE
  8
0
 10
44.0729
 20
42.1468
 11
43.8956
 21
42.2107
  0
LINE
  8
0
 10
43.8956
 20
42.2107
 11
43.7227
 21
42.2855
  0
LINE
  8
0
 10
43.7227
 20
42.2855
 11
43.5547
 21
42.3711
  0
LINE
  8
0
 10
43.5547
 20
42.3711
 11
43.3925
 21
42.467
  0
LINE
  8
0
 10
43.3925
 20
42.467
 11
43.2366
 21
42.5729
  0
LINE
  8
0
 10
43.2366
 20
42.5729
 11
43.0877
 21
42.6884
  0
LINE
  8
0
 10
43.0877
 20
42.6884
 11
42.9464
 21
42.8131
  0
LINE
  8
0
 10
42.9464
 20
42.8131
 11
42.8131
 21
42.9464
  0
LINE
  8
0
 10
42.8131
 20
42.9464
 11
42.6884
 21
43.0877
  0
LINE
  8
0
 10
42.6884
 20
43.0877
 11
42.5729
 21
43.2366
  0
LINE
  8
0
 10
42.5729
 20
43.2366
 11
42.467
 21
43.3925
  0
LINE
  8
0
 10
42.467
 20
43.3925
 11
42.3711
 21
43.5547
  0
LINE
  8
0
 10
42.3711
 20
43.5547
 11
42.2855
 21
43.7227
  0
LINE
  8
0
 10
42.2855
 20
43.7227
 11
42.2107
 21
43.8956
  0
LINE
  8
0
 10
42.2107
 20
43.8956
 11
42.1468
 21
44.0729
  0
LINE
  8
0
 10
42.1468
 20
44.0729
 11
42.0942
 21
44.2539
  0
LINE
  8
0
 10
42.0942
 20
44.2539
 11
42.0531
 21
44.4379
  0
LINE
  8
0
 10
42.0531
 20
44.4379
 11
42.0237
 21
44.624
  0
LINE
  8
0
 10
42.0237
 20
44.624
 11
42.0059
 21
44.8116
  0
LINE
  8
0
 10
42.0059
 20
44.8116
 11
42
 21
45
  0
LINE
  8
0
 10
42
 20
45
 11
42.0059
 21
45.1884
  0
LINE
  8
0
 10
42.0059
 20
45.1884
 11
42.0237
 21
45.376
  0
LINE
  8
0
 10
42.0237
 20
45.376
 11
42.0531
 21
45.5621
  0
LINE
  8
0
 10
42.0531
 20
45.5621
 11
42.0942
 21
45.7461
  0
LINE
  8
0
 10
42.0942
 20
45.7461
 11
42.1468
 21
45.927
  0
LINE
  8
0
 10
42.1468
 20
45.927
 11
42.2107
 21
46.1044
  0
LINE
  8
0
 10
42.2107
 20
46.1044
 11
42.2855
 21
46.2773
  0
LINE
  8
0
 10
42.2855
 20
46.2773
 11
42.3711
 21
46.4453
  0
LINE
  8
0
 10
42.3711
 20
46.4453
 11
42.467
 21
46.6075
  0
LINE
  8
0
 10
42.467
 20
46.6075
 11
42.5729
 21
46.7634
  0
LINE
  8
0
 10
42.5729
 20
46.7634
 11
42.6884
 21
46.9123
  0
LINE
  8
0
 10
42.6884
 20
46.9123
 11
42.8131
 21
47.0536
  0
LINE
  8
0
 10
42.8131
 20
47.0536
 11
42.9464
 21
47.1869
  0
LINE
  8
0
 10
42.9464
 20
47.1869
 11
43.0877
 21
47.3115
  0
LINE
  8
0
 10
43.0877
 20
47.3115
 11
43.2366
 21
47.427
  0
LINE
  8
0
 10
43.2366
 20
47.427
 11
43.3925
 21
47.533
  0
LINE
  8
0
 10
43.3925
 20
47.533
 11
43.5547
 21
47.6289
  0
LINE
  8
0
 10
43.5547
 20
47.6289
 11
43.7227
 21
47.7145
  0
LINE
  8
0
 10
43.7227
 20
47.7145
 11
43.8956
 21
47.7893
  0
LINE
  8
0
 10
43.8956
 20
47.7893
 11
44.0729
 21
47.8532
  0
LINE
  8
0
 10
44.0729
 20
47.8532
 11
44.2539
 21
47.9057
  0
LINE
  8
0
 10
44.2539
 20
47.9057
 11
44.4379
 21
47.9469
  0
LINE
  8
0
 10
44.4379
 20
47.9469
 11
44.624
 21
47.9763
  0
LINE
  8
0
 10
44.624
 20
47.9763
 11
44.8116
 21
47.9941
  0
LINE
  8
0
 10
44.8116
 20
47.9941
 11
45
 21
48
  0
LINE
  8
0
 10
45
 20
48
 11
45.1884
 21
47.9941
  0
LINE
  8
0
 10
45.1884
 20
47.9941
 11
45.376
 21
47.9763
  0
LINE
  8
0
 10
45.376
 20
47.9763
 11
45.5621
 21
47.9469
  0
LINE
  8
0
 10
45.5621
 20
47.9469
 11
45.7461
 21
47.9057
  0
LINE
  8
0
 10
45.7461
 20
47.9057
 11
45.927
 21
47.8532
  0
LINE
  8
0
 10
45.927
 20
47.8532
 11
46.1044
 21
47.7893
  0
LINE
  8
0
 10
46.1044
 20
47.7893
 11
46.2773
 21
47.7145
  0
LINE
  8
0
 10
46.2773
 20
47.7145
 11
46.4453
 21
47.6289
  0
LINE
  8
0
 10
46.4453
 20
47.6289
 11
46.6075
 21
47.533
  0
LINE
  8
0
 10
46.6075
 20
47.533
 11
46.7634
 21
47.427
  0
LINE
  8
0
 10
46.7634
 20
47.427
 11
46.9123
 21
47.3115
  0
LINE
  8
0
 10
46.9123
 20
47.3115
 11
47.0536
 21
47.1869
  0
LINE
  8
0
 10
47.0536
 20
47.1869
 11
47.1869
 21
47.0536
  0
LINE
  8
0
 10
47.1869
 20
47.0536
 11
47.3115
 21
46.9123
  0
LINE
  8
0
 10
47.3115
 20
46.9123
 11
47.427
 21
46.7634
  0
LINE
  8
0
 10
47.427
 20
46.7634
 11
47.533
 21
46.6075
  0
LINE
  8
0
 10
47.533
 20
46.6075
 11
47.6289
 21
46.4453
  0
LINE
  8
0
 10
47.6289
 20
46.4453
 11
47.7145
 21
46.2773
  0
LINE
  8
0
 10
47.7145
 20
46.2773
 11
47.7893
 21
46.1044
  0
LINE
  8
0
 10
47.7893
 20
46.1044
 11
47.8532
 21
45.927
  0
LINE
  8
0
 10
47.8532
 20
45.927
 11
47.9057
 21
45.7461
  0
LINE
  8
0
 10
47.9057
 20
45.7461
 11
47.9469
 21
45.5621
  0
LINE
  8
0
 10
47.9469
 20
45.5621
 11
47.9763
 21
45.376
  0
LINE
  8
0
 10
47.9763
 20
45.376
 11
47.9941
 21
45.1884
  0
LINE
  8
0
 10
47.9941
 20
45.1884
 11
48
 21
45
  0
LINE
  8
0
 10
48
 20
45
 11
47.9941
 21
44.8116
  0
LINE
  8
0
 10
47.9941
 20
44.8116
 11
47.9763
 21
44.624
  0
LINE
  8
0
 10
47.9763
 20
44.624
 11
47.9469
 21
44.4379
  0
LINE
  8
0
 10
47.9469
 20
44.4379
 11
47.9057
 21
44.2539
  0
LINE
  8
0
 10
47.9057
 20
44.2539
 11
47.8532
 21
44.0729
  0
LINE
  8
0
 10
47.8532
 20
44.0729
 11
47.7893
 21
43.8956
  0
LINE
  8
0
 10
47.7893
 20
43.8956
 11
47.7145
 21
43.7227
  0
LINE
  8
0
 10
47.7145
 20
43.7227
 11
47.6289
 21
43.5547
  0
LINE
  8
0
 10
47.6289
 20
43.5547
 11
47.533
 21
43.3925
  0
LINE
  8
0
 10
47.533
 20
43.3925
 11
47.427
 21
43.2366
  0
LINE
  8
0
 10
47.427
 20
43.2366
 11
47.3115
 21
43.0877
  0
LINE
  8
0
 10
47.3115
 20
43.0877
 11
47.1869
 21
42.9464
  0
LINE
  8
0
 10
47.1869
 20
42.9464
 11
47.0536
 21
42.8131
  0
LINE
  8
0
 10
47.0536
 20
42.8131
 11
46.9123
 21
42.6884
  0
LINE
  8
0
 10
46.9123
 20
42.6884
 11
46.7634
 21
42.5729
  0
LINE
  8
0
 10
46.7634
 20
42.5729
 11
46.6075
 21
42.467
  0
LINE
  8
0
 10
46.6075
 20
42.467
 11
46.4453
 21
42.3711
  0
LINE
  8
0
 10
46.4453
 20
42.3711
 11
46.2773
 21
42.2855
  0
LINE
  8
0
 10
46.2773
 20
42.2855
 11
46.1044
 21
42.2107
  0
LINE
  8
0
 10
46.1044
 20
42.2107
 11
45.927
 21
42.1468
  0
LINE
  8
0
 10
45.927
 20
42.1468
 11
45.7461
 21
42.0942
  0
LINE
  8
0
 10
45.7461
 20
42.0942
 11
45.5621
 21
42.0531
  0
LINE
  8
0
 10
45.5621
 20
42.0531
 11
45.376
 21
42.0237
  0
LINE
  8
0
 10
45.376
 20
42.0237
 11
45.1884
 21
42.0059
  0
LINE
  8
0
 10
45.1884
 20
42.0059
 11
45
 21
42
  0
LINE
  8
0
 10
45
 20
42
 11
44.8116
 21
42.0059
  0
LINE
  8
0
 10
134.812
 20
42.0059
 11
134.624
 21
42.0237
  0
LINE
  8
0
 10
134.624
 20
42.0237
 11
134.438
 21
42.0531
  0
LINE
  8
0
 10
134.438
 20
42.0531
 11
134.254
 21
42.0942
  0
LINE
  8
0
 10
134.254
 20
42.0942
 11
134.073
 21
42.1468
  0
LINE
  8
0
 10
134.073
 20
42.1468
 11
133.896
 21
42.2107
  0
LINE
  8
0
 10
133.896
 20
42.2107
 11
133.723
 21
42.2855
  0
LINE
  8
0
 10
133.723
 20
42.2855
 11
133.555
 21
42.3711
  0
LINE
  8
0
 10
133.555
 20
42.3711
 11
133.393
 21
42.467
  0
LINE
  8
0
 10
133.393
 20
42.467
 11
133.237
 21
42.5729
  0
LINE
  8
0
 10
133.237
 20
42.5729
 11
133.088
 21
42.6884
  0
LINE
  8
0
 10
133.088
 20
42.6884
 11
132.946
 21
42.8131
  0
LINE
  8
0
 10
132.946
 20
42.8131
 11
132.813
 21
42.9464
  0
LINE
  8
0
 10
132.813
 20
42.9464
 11
132.688
 21
43.0877
  0
LINE
  8
0
 10
132.688
 20
43.0877
 11
132.573
 21
43.2366
  0
LINE
  8
0
 10
132.573
 20
43.2366
 11
132.467
 21
43.3925
  0
LINE
  8
0
 10
132.467
 20
43.3925
 11
132.371
 21
43.5547
  0
LINE
  8
0
 10
132.371
 20
43.5547
 11
132.286
 21
43.7227
  0
LINE
  8
0
 10
132.286
 20
43.7227
 11
132.211
 21
43.8956
  0
LINE
  8
0
 10
132.211
 20
43.8956
 11
132.147
 21
44.0729
  0
LINE
  8
0
 10
132.147
 20
44.0729
 11
132.094
 21
44.2539
  0
LINE
  8
0
 10
132.094
 20
44.2539
 11
132.053
 21
44.4379
  0
LINE
  8
0
 10
132.053
 20
44.4379
 11
132.024
 21
44.624
  0
LINE
  8
0
 10
132.024
 20
44.624
 11
132.006
 21
44.8116
  0
LINE
  8
0
 10
132.006
 20
44.8116
 11
132
 21
45
  0
LINE
  8
0
 10
132
 20
45
 11
132.006
 21
45.1884
  0
LINE
  8
0
 10
132.006
 20
45.1884
 11
132.024
 21
45.376
  0
LINE
  8
0
 10
132.024
 20
45.376
 11
132.053
 21
45.5621
  0
LINE
  8
0
 10
132.053
 20
45.5621
 11
132.094
 21
45.7461
  0
LINE
  8
0
 10
132.094
 20
45.7461
 11
132.147
 21
45.927
  0
LINE
  8
0
 10
132.147
 20
45.927
 11
132.211
 21
46.1044
  0
LINE
  8
0
 10
132.211
 20
46.1044
 11
132.286
 21
46.2773
  0
LINE
  8
0
 10
132.286
 20
46.2773
 11
132.371
 21
46.4453
  0
LINE
  8
0
 10
132.371
 20
46.4453
 11
132.467
 21
46.6075
  0
LINE
  8
0
 10
132.467
 20
46.6075
 11
132.573
 21
46.7634
  0
LINE
  8
0
 10
132.573
 20
46.7634
 11
132.688
 21
46.9123
  0
LINE
  8
0
 10
132.688
 20
46.9123
 11
132.813
 21
47.0536
  0
LINE
  8
0
 10
132.813
 20
47.0536
 11
132.946
 21
47.1869
  0
LINE
  8
0
 10
132.946
 20
47.1869
 11
133.088
 21
47.3115
  0
LINE
  8
0
 10
133.088
 20
47.3115
 11
133.237
 21
47.427
  0
LINE
  8
0
 10
133.237
 20
47.427
 11
133.393
 21
47.533
  0
LINE
  8
0
 10
133.393
 20
47.533
 11
133.555
 21
47.6289
  0
LINE
  8
0
 10
133.555
 20
47.6289
 11
133.723
 21
47.7145
  0
LINE
  8
0
 10
133.723
 20
47.7145
 11
133.896
 21
47.7893
  0
LINE
  8
0
 10
133.896
 20
47.7893
 11
134.073
 21
47.8532
  0
LINE
  8
0
 10
134.073
 20
47.8532
 11
134.254
 21
47.9057
  0
LINE
  8
0
 10
134.254
 20
47.9057
 11
134.438
 21
47.9469
  0
LINE
  8
0
 10
134.438
 20
47.9469
 11
134.624
 21
47.9763
  0
LINE
  8
0
 10
134.624
 20
47.9763
 11
134.812
 21
47.9941
  0
LINE
  8
0
 10
134.812
 20
47.9941
 11
135
 21
48
  0
LINE
  8
0
 10
135
 20
48
 11
135.188
 21
47.9941
  0
LINE
  8
0
 10
135.188
 20
47.9941
 11
135.376
 21
47.9763
  0
LINE
  8
0
 10
135.376
 20
47.9763
 11
135.562
 21
47.9469
  0
LINE
  8
0
 10
135.562
 20
47.9469
 11
135.746
 21
47.9057
  0
LINE
  8
0
 10
135.746
 20
47.9057
 11
135.927
 21
47.8532
  0
LINE
  8
0
 10
135.927
 20
47.8532
 11
136.104
 21
47.7893
  0
LINE
  8
0
 10
136.104
 20
47.7893
 11
136.277
 21
47.7145
  0
LINE
  8
0
 10
136.277
 20
47.7145
 11
136.445
 21
47.6289
  0
LINE
  8
0
 10
136.445
 20
47.6289
 11
136.607
 21
47.533
  0
LINE
  8
0
 10
136.607
 20
47.533
 11
136.763
 21
47.427
  0
LINE
  8
0
 10
136.763
 20
47.427
 11
136.912
 21
47.3115
  0
LINE
  8
0
 10
136.912
 20
47.3115
 11
137.054
 21
47.1869
  0
LINE
  8
0
 10
137.054
 20
47.1869
 11
137.187
 21
47.0536
  0
LINE
  8
0
 10
137.187
 20
47.0536
 11
137.312
 21
46.9123
  0
LINE
  8
0
 10
137.312
 20
46.9123
 11
137.427
 21
46.7634
  0
LINE
  8
0
 10
137.427
 20
46.7634
 11
137.533
 21
46.6075
  0
LINE
  8
0
 10
137.533
 20
46.6075
 11
137.629
 21
46.4453
  0
LINE
  8
0
 10
137.629
 20
46.4453
 11
137.714
 21
46.2773
  0
LINE
  8
0
 10
137.714
 20
46.2773
 11
137.789
 21
46.1044
  0
LINE
  8
0
 10
137.789
 20
46.1044
 11
137.853
 21
45.927
  0
LINE
  8
0
 10
137.853
 20
45.927
 11
137.906
 21
45.7461
  0
LINE
  8
0
 10
137.906
 20
45.7461
 11
137.947
 21
45.5621
  0
LINE
  8
0
 10
137.947
 20
45.5621
 11
137.976
 21
45.376
  0
LINE
  8
0
 10
137.976
 20
45.376
 11
137.994
 21
45.1884
  0
LINE
  8
0
 10
137.994
 20
45.1884
 11
138
 21
45
  0
LINE
  8
0
 10
138
 20
45
 11
137.994
 21
44.8116
  0
LINE
  8
0
 10
137.994
 20
44.8116
 11
137.976
 21
44.624
  0
LINE
  8
0
 10
137.976
 20
44.624
 11
137.947
 21
44.4379
  0
LINE
  8
0
 10
137.947
 20
44.4379
 11
137.906
 21
44.2539
  0
LINE
  8
0
 10
137.906
 20
44.2539
 11
137.853
 21
44.0729
  0
LINE
  8
0
 10
137.853
 20
44.0729
 11
137.789
 21
43.8956
  0
LINE
  8
0
 10
137.789
 20
43.8956
 11
137.714
 21
43.7227
  0
LINE
  8
0
 10
137.714
 20
43.7227
 11
137.629
 21
43.5547
  0
LINE
  8
0
 10
137.629
 20
43.5547
 11
137.533
 21
43.3925
  0
LINE
  8
0
 10
137.533
 20
43.3925
 11
137.427
 21
43.2366
  0
LINE
  8
0
 10
137.427
 20
43.2366
 11
137.312
 21
43.0877
  0
LINE
  8
0
 10
137.312
 20
43.0877
 11
137.187
 21
42.9464
  0
LINE
  8
0
 10
137.187
 20
42.9464
 11
137.054
 21
42.8131
  0
LINE
  8
0
 10
137.054
 20
42.8131
 11
136.912
 21
42.6884
  0
LINE
  8
0
 10
136.912
 20
42.6884
 11
136.763
 21
42.5729
  0
LINE
  8
0
 10
136.763
 20
42.5729
 11
136.607
 21
42.467
  0
LINE
  8
0
 10
136.607
 20
42.467
 11
136.445
 21
42.3711
  0
LINE
  8
0
 10
136.445
 20
42.3711
 11
136.277
 21
42.2855
  0
LINE
  8
0
 10
136.277
 20
42.2855
 11
136.104
 21
42.2107
  0
LINE
  8
0
 10
136.104
 20
42.2107
 11
135.927
 21
42.1468
  0
LINE
  8
0
 10
135.927
 20
42.1468
 11
135.746
 21
42.0942
  0
LINE
  8
0
 10
135.746
 20
42.0942
 11
135.562
 21
42.0531
  0
LINE
  8
0
 10
135.562
 20
42.0531
 11
135.376
 21
42.0237
  0
LINE
  8
0
 10
135.376
 20
42.0237
 11
135.188
 21
42.0059
  0
LINE
  8
0
 10
135.188
 20
42.0059
 11
135
 21
42
  0
LINE
  8
0
 10
135
 20
42
 11
134.812
 21
42.0059
  0
LINE
  8
0
 10
126
 20
43.5
 11
126
 21
46.5
  0
LINE
  8
0
 10
126
 20
46.5
 11
129
 21
46.5
  0
LINE
  8
0
 10
129
 20
46.5
 11
129
 21
43.5
  0
LINE
  8
0
 10
129
 20
43.5
 11
126
 21
43.5
  0
LINE
  8
0
 10
21
 20
43.5
 11
21
 21
46.5
  0
LINE
  8
0
 10
21
 20
46.5
 11
24
 21
46.5
  0
LINE
  8
0
 10
24
 20
46.5
 11
24
 21
43.5
  0
LINE
  8
0
 10
24
 20
43.5
 11
21
 21
43.5
  0
LINE
  8
0
 10
36
 20
43.5
 11
36
 21
46.5
  0
LINE
  8
0
 10
36
 20
46.5
 11
39
 21
46.5
  0
LINE
  8
0
 10
39
 20
46.5
 11
39
 21
43.5
  0
LINE
  8
0
 10
39
 20
43.5
 11
36
 21
43.5
  0
LINE
  8
0
 10
51
 20
43.5
 11
51
 21
46.5
  0
LINE
  8
0
 10
51
 20
46.5
 11
54
 21
46.5
  0
LINE
  8
0
 10
54
 20
46.5
 11
54
 21
43.5
  0
LINE
  8
0
 10
54
 20
43.5
 11
51
 21
43.5
  0
LINE
  8
0
 10
111
 20
43.5
 11
111
 21
46.5
  0
LINE
  8
0
 10
111
 20
46.5
 11
114
 21
46.5
  0
LINE
  8
0
 10
114
 20
46.5
 11
114
 21
43.5
  0
LINE
  8
0
 10
114
 20
43.5
 11
111
 21
43.5
  0
LINE
  8
0
 10
66
 20
43.5
 11
66
 21
46.5
  0
LINE
  8
0
 10
66
 20
46.5
 11
69
 21
46.5
  0
LINE
  8
0
 10
69
 20
46.5
 11
69
 21
43.5
  0
LINE
  8
0
 10
69
 20
43.5
 11
66
 21
43.5
  0
LINE
  8
0
 10
96
 20
43.5
 11
96
 21
46.5
  0
LINE
  8
0
 10
96
 20
46.5
 11
99
 21
46.5
  0
LINE
  8
0
 10
99
 20
46.5
 11
99
 21
43.5
  0
LINE
  8
0
 10
99
 20
43.5
 11
96
 21
43.5
  0
LINE
  8
0
 10
81
 20
43.5
 11
81
 21
46.5
  0
LINE
  8
0
 10
81
 20
46.5
 11
84
 21
46.5
  0
LINE
  8
0
 10
84
 20
46.5
 11
84
 21
43.5
  0
LINE
  8
0
 10
84
 20
43.5
 11
81
 21
43.5
  0
LINE
  8
0
 10
133.5
 20
36
 11
133.5
 21
39
  0
LINE
  8
0
 10
133.5
 20
39
 11
136.5
 21
39
  0
LINE
  8
0
 10
136.5
 20
39
 11
136.5
 21
36
  0
LINE
  8
0
 10
136.5
 20
36
 11
133.5
 21
36
  0
LINE
  8
0
 10
28.5
 20
36
 11
28.5
 21
39
  0
LINE
  8
0
 10
28.5
 20
39
 11
31.5
 21
39
  0
LINE
  8
0
 10
31.5
 20
39
 11
31.5
 21
36
  0
LINE
  8
0
 10
31.5
 20
36
 11
28.5
 21
36
  0
LINE
  8
0
 10
43.5
 20
36
 11
43.5
 21
39
  0
LINE
  8
0
 10
43.5
 20
39
 11
46.5
 21
39
  0
LINE
  8
0
 10
46.5
 20
39
 11
46.5
 21
36
  0
LINE
  8
0
 10
46.5
 20
36
 11
43.5
 21
36
  0
LINE
  8
0
 10
58.5
 20
36
 11
58.5
 21
39
  0
LINE
  8
0
 10
58.5
 20
39
 11
61.5
 21
39
  0
LINE
  8
0
 10
61.5
 20
39
 11
61.5
 21
36
  0
LINE
  8
0
 10
61.5
 20
36
 11
58.5
 21
36
  0
LINE
  8
0
 10
118.5
 20
36
 11
118.5
 21
39
  0
LINE
  8
0
 10
118.5
 20
39
 11
121.5
 21
39
  0
LINE
  8
0
 10
121.5
 20
39
 11
121.5
 21
36
  0
LINE
  8
0
 10
121.5
 20
36
 11
118.5
 21
36
  0
LINE
  8
0
 10
73.5
 20
36
 11
73.5
 21
39
  0
LINE
  8
0
 10
73.5
 20
39
 11
76.5
 21
39
  0
LINE
  8
0
 10
76.5
 20
39
 11
76.5
 21
36
  0
LINE
  8
0
 10
76.5
 20
36
 11
73.5
 21
36
  0
LINE
  8
0
 10
13.5
 20
36
 11
13.5
 21
39
  0
LINE
  8
0
 10
13.5
 20
39
 11
16.5
 21
39
  0
LINE
  8
0
 10
16.5
 20
39
 11
16.5
 21
36
  0
LINE
  8
0
 10
16.5
 20
36
 11
13.5
 21
36
  0
LINE
  8
0
 10
88.5
 20
36
 11
88.5
 21
39
  0
LINE
  8
0
 10
88.5
 20
39
 11
91.5
 21
39
  0
LINE
  8
0
 10
91.5
 20
39
 11
91.5
 21
36
  0
LINE
  8
0
 10
91.5
 20
36
 11
88.5
 21
36
  0
LINE
  8
0
 10
103.5
 20
36
 11
103.5
 21
39
  0
LINE
  8
0
 10
103.5
 20
39
 11
106.5
 21
39
  0
LINE
  8
0
 10
106.5
 20
39
 11
106.5
 21
36
  0
LINE
  8
0
 10
106.5
 20
36
 11
103.5
 21
36
  0
LINE
  8
0
 10
74.8116
 20
27.0059
 11
74.624
 21
27.0237
  0
LINE
  8
0
 10
74.624
 20
27.0237
 11
74.4379
 21
27.0531
  0
LINE
  8
0
 10
74.4379
 20
27.0531
 11
74.2539
 21
27.0942
  0
LINE
  8
0
 10
74.2539
 20
27.0942
 11
74.0729
 21
27.1468
  0
LINE
  8
0
 10
74.0729
 20
27.1468
 11
73.8956
 21
27.2107
  0
LINE
  8
0
 10
73.8956
 20
27.2107
 11
73.7227
 21
27.2855
  0
LINE
  8
0
 10
73.7227
 20
27.2855
 11
73.5547
 21
27.3711
  0
LINE
  8
0
 10
73.5547
 20
27.3711
 11
73.3925
 21
27.467
  0
LINE
  8
0
 10
73.3925
 20
27.467
 11
73.2366
 21
27.5729
  0
LINE
  8
0
 10
73.2366
 20
27.5729
 11
73.0877
 21
27.6884
  0
LINE
  8
0
 10
73.0877
 20
27.6884
 11
72.9464
 21
27.8131
  0
LINE
  8
0
 10
72.9464
 20
27.8131
 11
72.8131
 21
27.9464
  0
LINE
  8
0
 10
72.8131
 20
27.9464
 11
72.6884
 21
28.0877
  0
LINE
  8
0
 10
72.6884
 20
28.0877
 11
72.5729
 21
28.2366
  0
LINE
  8
0
 10
72.5729
 20
28.2366
 11
72.467
 21
28.3925
  0
LINE
  8
0
 10
72.467
 20
28.3925
 11
72.3711
 21
28.5547
  0
LINE
  8
0
 10
72.3711
 20
28.5547
 11
72.2855
 21
28.7227
  0
LINE
  8
0
 10
72.2855
 20
28.7227
 11
72.2107
 21
28.8956
  0
LINE
  8
0
 10
72.2107
 20
28.8956
 11
72.1468
 21
29.0729
  0
LINE
  8
0
 10
72.1468
 20
29.0729
 11
72.0942
 21
29.2539
  0
LINE
  8
0
 10
72.0942
 20
29.2539
 11
72.0531
 21
29.4379
  0
LINE
  8
0
 10
72.0531
 20
29.4379
 11
72.0237
 21
29.624
  0
LINE
  8
0
 10
72.0237
 20
29.624
 11
72.0059
 21
29.8116
  0
LINE
  8
0
 10
72.0059
 20
29.8116
 11
72
 21
30
  0
LINE
  8
0
 10
72
 20
30
 11
72.0059
 21
30.1884
  0
LINE
  8
0
 10
72.0059
 20
30.1884
 11
72.0237
 21
30.376
  0
LINE
  8
0
 10
72.0237
 20
30.376
 11
72.0531
 21
30.5621
  0
LINE
  8
0
 10
72.0531
 20
30.5621
 11
72.0942
 21
30.7461
  0
LINE
  8
0
 10
72.0942
 20
30.7461
 11
72.1468
 21
30.927
  0
LINE
  8
0
 10
72.1468
 20
30.927
 11
72.2107
 21
31.1044
  0
LINE
  8
0
 10
72.2107
 20
31.1044
 11
72.2855
 21
31.2773
  0
LINE
  8
0
 10
72.2855
 20
31.2773
 11
72.3711
 21
31.4453
  0
LINE
  8
0
 10
72.3711
 20
31.4453
 11
72.467
 21
31.6075
  0
LINE
  8
0
 10
72.467
 20
31.6075
 11
72.5729
 21
31.7634
  0
LINE
  8
0
 10
72.5729
 20
31.7634
 11
72.6884
 21
31.9123
  0
LINE
  8
0
 10
72.6884
 20
31.9123
 11
72.8131
 21
32.0536
  0
LINE
  8
0
 10
72.8131
 20
32.0536
 11
72.9464
 21
32.1869
  0
LINE
  8
0
 10
72.9464
 20
32.1869
 11
73.0877
 21
32.3115
  0
LINE
  8
0
 10
73.0877
 20
32.3115
 11
73.2366
 21
32.427
  0
LINE
  8
0
 10
73.2366
 20
32.427
 11
73.3925
 21
32.533
  0
LINE
  8
0
 10
73.3925
 20
32.533
 11
73.5547
 21
32.6289
  0
LINE
  8
0
 10
73.5547
 20
32.6289
 11
73.7227
 21
32.7145
  0
LINE
  8
0
 10
73.7227
 20
32.7145
 11
73.8956
 21
32.7893
  0
LINE
  8
0
 10
73.8956
 20
32.7893
 11
74.0729
 21
32.8532
  0
LINE
  8
0
 10
74.0729
 20
32.8532
 11
74.2539
 21
32.9057
  0
LINE
  8
0
 10
74.2539
 20
32.9057
 11
74.4379
 21
32.9469
  0
LINE
  8
0
 10
74.4379
 20
32.9469
 11
74.624
 21
32.9763
  0
LINE
  8
0
 10
74.624
 20
32.9763
 11
74.8116
 21
32.9941
  0
LINE
  8
0
 10
74.8116
 20
32.9941
 11
75
 21
33
  0
LINE
  8
0
 10
75
 20
33
 11
75.1884
 21
32.9941
  0
LINE
  8
0
 10
75.1884
 20
32.9941
 11
75.376
 21
32.9763
  0
LINE
  8
0
 10
75.376
 20
32.9763
 11
75.5621
 21
32.9469
  0
LINE
  8
0
 10
75.5621
 20
32.9469
 11
75.7461
 21
32.9057
  0
LINE
  8
0
 10
75.7461
 20
32.9057
 11
75.927
 21
32.8532
  0
LINE
  8
0
 10
75.927
 20
32.8532
 11
76.1044
 21
32.7893
  0
LINE
  8
0
 10
76.1044
 20
32.7893
 11
76.2773
 21
32.7145
  0
LINE
  8
0
 10
76.2773
 20
32.7145
 11
76.4453
 21
32.6289
  0
LINE
  8
0
 10
76.4453
 20
32.6289
 11
76.6075
 21
32.533
  0
LINE
  8
0
 10
76.6075
 20
32.533
 11
76.7634
 21
32.427
  0
LINE
  8
0
 10
76.7634
 20
32.427
 11
76.9123
 21
32.3115
  0
LINE
  8
0
 10
76.9123
 20
32.3115
 11
77.0536
 21
32.1869
  0
LINE
  8
0
 10
77.0536
 20
32.1869
 11
77.1869
 21
32.0536
  0
LINE
  8
0
 10
77.1869
 20
32.0536
 11
77.3115
 21
31.9123
  0
LINE
  8
0
 10
77.3115
 20
31.9123
 11
77.427
 21
31.7634
  0
LINE
  8
0
 10
77.427
 20
31.7634
 11
77.533
 21
31.6075
  0
LINE
  8
0
 10
77.533
 20
31.6075
 11
77.6289
 21
31.4453
  0
LINE
  8
0
 10
77.6289
 20
31.4453
 11
77.7145
 21
31.2773
  0
LINE
  8
0
 10
77.7145
 20
31.2773
 11
77.7893
 21
31.1044
  0
LINE
  8
0
 10
77.7893
 20
31.1044
 11
77.8532
 21
30.927
  0
LINE
  8
0
 10
77.8532
 20
30.927
 11
77.9057
 21
30.7461
  0
LINE
  8
0
 10
77.9057
 20
30.7461
 11
77.9469
 21
30.5621
  0
LINE
  8
0
 10
77.9469
 20
30.5621
 11
77.9763
 21
30.376
  0
LINE
  8
0
 10
77.9763
 20
30.376
 11
77.9941
 21
30.1884
  0
LINE
  8
0
 10
77.9941
 20
30.1884
 11
78
 21
30
  0
LINE
  8
0
 10
78
 20
30
 11
77.9941
 21
29.8116
  0
LINE
  8
0
 10
77.9941
 20
29.8116
 11
77.9763
 21
29.624
  0
LINE
  8
0
 10
77.9763
 20
29.624
 11
77.9469
 21
29.4379
  0
LINE
  8
0
 10
77.9469
 20
29.4379
 11
77.9057
 21
29.2539
  0
LINE
  8
0
 10
77.9057
 20
29.2539
 11
77.8532
 21
29.0729
  0
LINE
  8
0
 10
77.8532
 20
29.0729
 11
77.7893
 21
28.8956
  0
LINE
  8
0
 10
77.7893
 20
28.8956
 11
77.7145
 21
28.7227
  0
LINE
  8
0
 10
77.7145
 20
28.7227
 11
77.6289
 21
28.5547
  0
LINE
  8
0
 10
77.6289
 20
28.5547
 11
77.533
 21
28.3925
  0
LINE
  8
0
 10
77.533
 20
28.3925
 11
77.427
 21
28.2366
  0
LINE
  8
0
 10
77.427
 20
28.2366
 11
77.3115
 21
28.0877
  0
LINE
  8
0
 10
77.3115
 20
28.0877
 11
77.1869
 21
27.9464
  0
LINE
  8
0
 10
77.1869
 20
27.9464
 11
77.0536
 21
27.8131
  0
LINE
  8
0
 10
77.0536
 20
27.8131
 11
76.9123
 21
27.6884
  0
LINE
  8
0
 10
76.9123
 20
27.6884
 11
76.7634
 21
27.5729
  0
LINE
  8
0
 10
76.7634
 20
27.5729
 11
76.6075
 21
27.467
  0
LINE
  8
0
 10
76.6075
 20
27.467
 11
76.4453
 21
27.3711
  0
LINE
  8
0
 10
76.4453
 20
27.3711
 11
76.2773
 21
27.2855
  0
LINE
  8
0
 10
76.2773
 20
27.2855
 11
76.1044
 21
27.2107
  0
LINE
  8
0
 10
76.1044
 20
27.2107
 11
75.927
 21
27.1468
  0
LINE
  8
0
 10
75.927
 20
27.1468
 11
75.7461
 21
27.0942
  0
LINE
  8
0
 10
75.7461
 20
27.0942
 11
75.5621
 21
27.0531
  0
LINE
  8
0
 10
75.5621
 20
27.0531
 11
75.376
 21
27.0237
  0
LINE
  8
0
 10
75.376
 20
27.0237
 11
75.1884
 21
27.0059
  0
LINE
  8
0
 10
75.1884
 20
27.0059
 11
75
 21
27
  0
LINE
  8
0
 10
75
 20
27
 11
74.8116
 21
27.0059
  0
LINE
  8
0
 10
59.8116
 20
27.0059
 11
59.624
 21
27.0237
  0
LINE
  8
0
 10
59.624
 20
27.0237
 11
59.4379
 21
27.0531
  0
LINE
  8
0
 10
59.4379
 20
27.0531
 11
59.2539
 21
27.0942
  0
LINE
  8
0
 10
59.2539
 20
27.0942
 11
59.0729
 21
27.1468
  0
LINE
  8
0
 10
59.0729
 20
27.1468
 11
58.8956
 21
27.2107
  0
LINE
  8
0
 10
58.8956
 20
27.2107
 11
58.7227
 21
27.2855
  0
LINE
  8
0
 10
58.7227
 20
27.2855
 11
58.5547
 21
27.3711
  0
LINE
  8
0
 10
58.5547
 20
27.3711
 11
58.3925
 21
27.467
  0
LINE
  8
0
 10
58.3925
 20
27.467
 11
58.2366
 21
27.5729
  0
LINE
  8
0
 10
58.2366
 20
27.5729
 11
58.0877
 21
27.6884
  0
LINE
  8
0
 10
58.0877
 20
27.6884
 11
57.9464
 21
27.8131
  0
LINE
  8
0
 10
57.9464
 20
27.8131
 11
57.8131
 21
27.9464
  0
LINE
  8
0
 10
57.8131
 20
27.9464
 11
57.6884
 21
28.0877
  0
LINE
  8
0
 10
57.6884
 20
28.0877
 11
57.5729
 21
28.2366
  0
LINE
  8
0
 10
57.5729
 20
28.2366
 11
57.467
 21
28.3925
  0
LINE
  8
0
 10
57.467
 20
28.3925
 11
57.3711
 21
28.5547
  0
LINE
  8
0
 10
57.3711
 20
28.5547
 11
57.2855
 21
28.7227
  0
LINE
  8
0
 10
57.2855
 20
28.7227
 11
57.2107
 21
28.8956
  0
LINE
  8
0
 10
57.2107
 20
28.8956
 11
57.1468
 21
29.0729
  0
LINE
  8
0
 10
57.1468
 20
29.0729
 11
57.0942
 21
29.2539
  0
LINE
  8
0
 10
57.0942
 20
29.2539
 11
57.0531
 21
29.4379
  0
LINE
  8
0
 10
57.0531
 20
29.4379
 11
57.0237
 21
29.624
  0
LINE
  8
0
 10
57.0237
 20
29.624
 11
57.0059
 21
29.8116
  0
LINE
  8
0
 10
57.0059
 20
29.8116
 11
57
 21
30
  0
LINE
  8
0
 10
57
 20
30
 11
57.0059
 21
30.1884
  0
LINE
  8
0
 10
57.0059
 20
30.1884
 11
57.0237
 21
30.376
  0
LINE
  8
0
 10
57.0237
 20
30.376
 11
57.0531
 21
30.5621
  0
LINE
  8
0
 10
57.0531
 20
30.5621
 11
57.0942
 21
30.7461
  0
LINE
  8
0
 10
57.0942
 20
30.7461
 11
57.1468
 21
30.927
  0
LINE
  8
0
 10
57.1468
 20
30.927
 11
57.2107
 21
31.1044
  0
LINE
  8
0
 10
57.2107
 20
31.1044
 11
57.2855
 21
31.2773
  0
LINE
  8
0
 10
57.2855
 20
31.2773
 11
57.3711
 21
31.4453
  0
LINE
  8
0
 10
57.3711
 20
31.4453
 11
57.467
 21
31.6075
  0
LINE
  8
0
 10
57.467
 20
31.6075
 11
57.5729
 21
31.7634
  0
LINE
  8
0
 10
57.5729
 20
31.7634
 11
57.6884
 21
31.9123
  0
LINE
  8
0
 10
57.6884
 20
31.9123
 11
57.8131
 21
32.0536
  0
LINE
  8
0
 10
57.8131
 20
32.0536
 11
57.9464
 21
32.1869
  0
LINE
  8
0
 10
57.9464
 20
32.1869
 11
58.0877
 21
32.3115
  0
LINE
  8
0
 10
58.0877
 20
32.3115
 11
58.2366
 21
32.427
  0
LINE
  8
0
 10
58.2366
 20
32.427
 11
58.3925
 21
32.533
  0
LINE
  8
0
 10
58.3925
 20
32.533
 11
58.5547
 21
32.6289
  0
LINE
  8
0
 10
58.5547
 20
32.6289
 11
58.7227
 21
32.7145
  0
LINE
  8
0
 10
58.7227
 20
32.7145
 11
58.8956
 21
32.7893
  0
LINE
  8
0
 10
58.8956
 20
32.7893
 11
59.0729
 21
32.8532
  0
LINE
  8
0
 10
59.0729
 20
32.8532
 11
59.2539
 21
32.9057
  0
LINE
  8
0
 10
59.2539
 20
32.9057
 11
59.4379
 21
32.9469
  0
LINE
  8
0
 10
59.4379
 20
32.9469
 11
59.624
 21
32.9763
  0
LINE
  8
0
 10
59.624
 20
32.9763
 11
59.8116
 21
32.9941
  0
LINE
  8
0
 10
59.8116
 20
32.9941
 11
60
 21
33
  0
LINE
  8
0
 10
60
 20
33
 11
60.1884
 21
32.9941
  0
LINE
  8
0
 10
60.1884
 20
32.9941
 11
60.376
 21
32.9763
  0
LINE
  8
0
 10
60.376
 20
32.9763
 11
60.5621
 21
32.9469
  0
LINE
  8
0
 10
60.5621
 20
32.9469
 11
60.7461
 21
32.9057
  0
LINE
  8
0
 10
60.7461
 20
32.9057
 11
60.927
 21
32.8532
  0
LINE
  8
0
 10
60.927
 20
32.8532
 11
61.1044
 21
32.7893
  0
LINE
  8
0
 10
61.1044
 20
32.7893
 11
61.2773
 21
32.7145
  0
LINE
  8
0
 10
61.2773
 20
32.7145
 11
61.4453
 21
32.6289
  0
LINE
  8
0
 10
61.4453
 20
32.6289
 11
61.6075
 21
32.533
  0
LINE
  8
0
 10
61.6075
 20
32.533
 11
61.7634
 21
32.427
  0
LINE
  8
0
 10
61.7634
 20
32.427
 11
61.9123
 21
32.3115
  0
LINE
  8
0
 10
61.9123
 20
32.3115
 11
62.0536
 21
32.1869
  0
LINE
  8
0
 10
62.0536
 20
32.1869
 11
62.1869
 21
32.0536
  0
LINE
  8
0
 10
62.1869
 20
32.0536
 11
62.3115
 21
31.9123
  0
LINE
  8
0
 10
62.3115
 20
31.9123
 11
62.427
 21
31.7634
  0
LINE
  8
0
 10
62.427
 20
31.7634
 11
62.533
 21
31.6075
  0
LINE
  8
0
 10
62.533
 20
31.6075
 11
62.6289
 21
31.4453
  0
LINE
  8
0
 10
62.6289
 20
31.4453
 11
62.7145
 21
31.2773
  0
LINE
  8
0
 10
62.7145
 20
31.2773
 11
62.7893
 21
31.1044
  0
LINE
  8
0
 10
62.7893
 20
31.1044
 11
62.8532
 21
30.927
  0
LINE
  8
0
 10
62.8532
 20
30.927
 11
62.9057
 21
30.7461
  0
LINE
  8
0
 10
62.9057
 20
30.7461
 11
62.9469
 21
30.5621
  0
LINE
  8
0
 10
62.9469
 20
30.5621
 11
62.9763
 21
30.376
  0
LINE
  8
0
 10
62.9763
 20
30.376
 11
62.9941
 21
30.1884
  0
LINE
  8
0
 10
62.9941
 20
30.1884
 11
63
 21
30
  0
LINE
  8
0
 10
63
 20
30
 11
62.9941
 21
29.8116
  0
LINE
  8
0
 10
62.9941
 20
29.8116
 11
62.9763
 21
29.624
  0
LINE
  8
0
 10
62.9763
 20
29.624
 11
62.9469
 21
29.4379
  0
LINE
  8
0
 10
62.9469
 20
29.4379
 11
62.9057
 21
29.2539
  0
LINE
  8
0
 10
62.9057
 20
29.2539
 11
62.8532
 21
29.0729
  0
LINE
  8
0
 10
62.8532
 20
29.0729
 11
62.7893
 21
28.8956
  0
LINE
  8
0
 10
62.7893
 20
28.8956
 11
62.7145
 21
28.7227
  0
LINE
  8
0
 10
62.7145
 20
28.7227
 11
62.6289
 21
28.5547
  0
LINE
  8
0
 10
62.6289
 20
28.5547
 11
62.533
 21
28.3925
  0
LINE
  8
0
 10
62.533
 20
28.3925
 11
62.427
 21
28.2366
  0
LINE
  8
0
 10
62.427
 20
28.2366
 11
62.3115
 21
28.0877
  0
LINE
  8
0
 10
62.3115
 20
28.0877
 11
62.1869
 21
27.9464
  0
LINE
  8
0
 10
62.1869
 20
27.9464
 11
62.0536
 21
27.8131
  0
LINE
  8
0
 10
62.0536
 20
27.8131
 11
61.9123
 21
27.6884
  0
LINE
  8
0
 10
61.9123
 20
27.6884
 11
61.7634
 21
27.5729
  0
LINE
  8
0
 10
61.7634
 20
27.5729
 11
61.6075
 21
27.467
  0
LINE
  8
0
 10
61.6075
 20
27.467
 11
61.4453
 21
27.3711
  0
LINE
  8
0
 10
61.4453
 20
27.3711
 11
61.2773
 21
27.2855
  0
LINE
  8
0
 10
61.2773
 20
27.2855
 11
61.1044
 21
27.2107
  0
LINE
  8
0
 10
61.1044
 20
27.2107
 11
60.927
 21
27.1468
  0
LINE
  8
0
 10
60.927
 20
27.1468
 11
60.7461
 21
27.0942
  0
LINE
  8
0
 10
60.7461
 20
27.0942
 11
60.5621
 21
27.0531
  0
LINE
  8
0
 10
60.5621
 20
27.0531
 11
60.376
 21
27.0237
  0
LINE
  8
0
 10
60.376
 20
27.0237
 11
60.1884
 21
27.0059
  0
LINE
  8
0
 10
60.1884
 20
27.0059
 11
60
 21
27
  0
LINE
  8
0
 10
60
 20
27
 11
59.8116
 21
27.0059
  0
LINE
  8
0
 10
44.8116
 20
27.0059
 11
44.624
 21
27.0237
  0
LINE
  8
0
 10
44.624
 20
27.0237
 11
44.4379
 21
27.0531
  0
LINE
  8
0
 10
44.4379
 20
27.0531
 11
44.2539
 21
27.0942
  0
LINE
  8
0
 10
44.2539
 20
27.0942
 11
44.0729
 21
27.1468
  0
LINE
  8
0
 10
44.0729
 20
27.1468
 11
43.8956
 21
27.2107
  0
LINE
  8
0
 10
43.8956
 20
27.2107
 11
43.7227
 21
27.2855
  0
LINE
  8
0
 10
43.7227
 20
27.2855
 11
43.5547
 21
27.3711
  0
LINE
  8
0
 10
43.5547
 20
27.3711
 11
43.3925
 21
27.467
  0
LINE
  8
0
 10
43.3925
 20
27.467
 11
43.2366
 21
27.5729
  0
LINE
  8
0
 10
43.2366
 20
27.5729
 11
43.0877
 21
27.6884
  0
LINE
  8
0
 10
43.0877
 20
27.6884
 11
42.9464
 21
27.8131
  0
LINE
  8
0
 10
42.9464
 20
27.8131
 11
42.8131
 21
27.9464
  0
LINE
  8
0
 10
42.8131
 20
27.9464
 11
42.6884
 21
28.0877
  0
LINE
  8
0
 10
42.6884
 20
28.0877
 11
42.5729
 21
28.2366
  0
LINE
  8
0
 10
42.5729
 20
28.2366
 11
42.467
 21
28.3925
  0
LINE
  8
0
 10
42.467
 20
28.3925
 11
42.3711
 21
28.5547
  0
LINE
  8
0
 10
42.3711
 20
28.5547
 11
42.2855
 21
28.7227
  0
LINE
  8
0
 10
42.2855
 20
28.7227
 11
42.2107
 21
28.8956
  0
LINE
  8
0
 10
42.2107
 20
28.8956
 11
42.1468
 21
29.0729
  0
LINE
  8
0
 10
42.1468
 20
29.0729
 11
42.0942
 21
29.2539
  0
LINE
  8
0
 10
42.0942
 20
29.2539
 11
42.0531
 21
29.4379
  0
LINE
  8
0
 10
42.0531
 20
29.4379
 11
42.0237
 21
29.624
  0
LINE
  8
0
 10
42.0237
 20
29.624
 11
42.0059
 21
29.8116
  0
LINE
  8
0
 10
42.0059
 20
29.8116
 11
42
 21
30
  0
LINE
  8
0
 10
42
 20
30
 11
42.0059
 21
30.1884
  0
LINE
  8
0
 10
42.0059
 20
30.1884
 11
42.0237
 21
30.376
  0
LINE
  8
0
 10
42.0237
 20
30.376
 11
42.0531
 21
30.5621
  0
LINE
  8
0
 10
42.0531
 20
30.5621
 11
42.0942
 21
30.7461
  0
LINE
  8
0
 10
42.0942
 20
30.7461
 11
42.1468
 21
30.927
  0
LINE
  8
0
 10
42.1468
 20
30.927
 11
42.2107
 21
31.1044
  0
LINE
  8
0
 10
42.2107
 20
31.1044
 11
42.2855
 21
31.2773
  0
LINE
  8
0
 10
42.2855
 20
31.2773
 11
42.3711
 21
31.4453
  0
LINE
  8
0
 10
42.3711
 20
31.4453
 11
42.467
 21
31.6075
  0
LINE
  8
0
 10
42.467
 20
31.6075
 11
42.5729
 21
31.7634
  0
LINE
  8
0
 10
42.5729
 20
31.7634
 11
42.6884
 21
31.9123
  0
LINE
  8
0
 10
42.6884
 20
31.9123
 11
42.8131
 21
32.0536
  0
LINE
  8
0
 10
42.8131
 20
32.0536
 11
42.9464
 21
32.1869
  0
LINE
  8
0
 10
42.9464
 20
32.1869
 11
43.0877
 21
32.3115
  0
LINE
  8
0
 10
43.0877
 20
32.3115
 11
43.2366
 21
32.427
  0
LINE
  8
0
 10
43.2366
 20
32.427
 11
43.3925
 21
32.533
  0
LINE
  8
0
 10
43.3925
 20
32.533
 11
43.5547
 21
32.6289
  0
LINE
  8
0
 10
43.5547
 20
32.6289
 11
43.7227
 21
32.7145
  0
LINE
  8
0
 10
43.7227
 20
32.7145
 11
43.8956
 21
32.7893
  0
LINE
  8
0
 10
43.8956
 20
32.7893
 11
44.0729
 21
32.8532
  0
LINE
  8
0
 10
44.0729
 20
32.8532
 11
44.2539
 21
32.9057
  0
LINE
  8
0
 10
44.2539
 20
32.9057
 11
44.4379
 21
32.9469
  0
LINE
  8
0
 10
44.4379
 20
32.9469
 11
44.624
 21
32.9763
  0
LINE
  8
0
 10
44.624
 20
32.9763
 11
44.8116
 21
32.9941
  0
LINE
  8
0
 10
44.8116
 20
32.9941
 11
45
 21
33
  0
LINE
  8
0
 10
45
 20
33
 11
45.1884
 21
32.9941
  0
LINE
  8
0
 10
45.1884
 20
32.9941
 11
45.376
 21
32.9763
  0
LINE
  8
0
 10
45.376
 20
32.9763
 11
45.5621
 21
32.9469
  0
LINE
  8
0
 10
45.5621
 20
32.9469
 11
45.7461
 21
32.9057
  0
LINE
  8
0
 10
45.7461
 20
32.9057
 11
45.927
 21
32.8532
  0
LINE
  8
0
 10
45.927
 20
32.8532
 11
46.1044
 21
32.7893
  0
LINE
  8
0
 10
46.1044
 20
32.7893
 11
46.2773
 21
32.7145
  0
LINE
  8
0
 10
46.2773
 20
32.7145
 11
46.4453
 21
32.6289
  0
LINE
  8
0
 10
46.4453
 20
32.6289
 11
46.6075
 21
32.533
  0
LINE
  8
0
 10
46.6075
 20
32.533
 11
46.7634
 21
32.427
  0
LINE
  8
0
 10
46.7634
 20
32.427
 11
46.9123
 21
32.3115
  0
LINE
  8
0
 10
46.9123
 20
32.3115
 11
47.0536
 21
32.1869
  0
LINE
  8
0
 10
47.0536
 20
32.1869
 11
47.1869
 21
32.0536
  0
LINE
  8
0
 10
47.1869
 20
32.0536
 11
47.3115
 21
31.9123
  0
LINE
  8
0
 10
47.3115
 20
31.9123
 11
47.427
 21
31.7634
  0
LINE
  8
0
 10
47.427
 20
31.7634
 11
47.533
 21
31.6075
  0
LINE
  8
0
 10
47.533
 20
31.6075
 11
47.6289
 21
31.4453
  0
LINE
  8
0
 10
47.6289
 20
31.4453
 11
47.7145
 21
31.2773
  0
LINE
  8
0
 10
47.7145
 20
31.2773
 11
47.7893
 21
31.1044
  0
LINE
  8
0
 10
47.7893
 20
31.1044
 11
47.8532
 21
30.927
  0
LINE
  8
0
 10
47.8532
 20
30.927
 11
47.9057
 21
30.7461
  0
LINE
  8
0
 10
47.9057
 20
30.7461
 11
47.9469
 21
30.5621
  0
LINE
  8
0
 10
47.9469
 20
30.5621
 11
47.9763
 21
30.376
  0
LINE
  8
0
 10
47.9763
 20
30.376
 11
47.9941
 21
30.1884
  0
LINE
  8
0
 10
47.9941
 20
30.1884
 11
48
 21
30
  0
LINE
  8
0
 10
48
 20
30
 11
47.9941
 21
29.8116
  0
LINE
  8
0
 10
47.9941
 20
29.8116
 11
47.9763
 21
29.624
  0
LINE
  8
0
 10
47.9763
 20
29.624
 11
47.9469
 21
29.4379
  0
LINE
  8
0
 10
47.9469
 20
29.4379
 11
47.9057
 21
29.2539
  0
LINE
  8
0
 10
47.9057
 20
29.2539
 11
47.8532
 21
29.0729
  0
LINE
  8
0
 10
47.8532
 20
29.0729
 11
47.7893
 21
28.8956
  0
LINE
  8
0
 10
47.7893
 20
28.8956
 11
47.7145
 21
28.7227
  0
LINE
  8
0
 10
47.7145
 20
28.7227
 11
47.6289
 21
28.5547
  0
LINE
  8
0
 10
47.6289
 20
28.5547
 11
47.533
 21
28.3925
  0
LINE
  8
0
 10
47.533
 20
28.3925
 11
47.427
 21
28.2366
  0
LINE
  8
0
 10
47.427
 20
28.2366
 11
47.3115
 21
28.0877
  0
LINE
  8
0
 10
47.3115
 20
28.0877
 11
47.1869
 21
27.9464
  0
LINE
  8
0
 10
47.1869
 20
27.9464
 11
47.0536
 21
27.8131
  0
LINE
  8
0
 10
47.0536
 20
27.8131
 11
46.9123
 21
27.6884
  0
LINE
  8
0
 10
46.9123
 20
27.6884
 11
46.7634
 21
27.5729
  0
LINE
  8
0
 10
46.7634
 20
27.5729
 11
46.6075
 21
27.467
  0
LINE
  8
0
 10
46.6075
 20
27.467
 11
46.4453
 21
27.3711
  0
LINE
  8
0
 10
46.4453
 20
27.3711
 11
46.2773
 21
27.2855
  0
LINE
  8
0
 10
46.2773
 20
27.2855
 11
46.1044
 21
27.2107
  0
LINE
  8
0
 10
46.1044
 20
27.2107
 11
45.927
 21
27.1468
  0
LINE
  8
0
 10
45.927
 20
27.1468
 11
45.7461
 21
27.0942
  0
LINE
  8
0
 10
45.7461
 20
27.0942
 11
45.5621
 21
27.0531
  0
LINE
  8
0
 10
45.5621
 20
27.0531
 11
45.376
 21
27.0237
  0
LINE
  8
0
 10
45.376
 20
27.0237
 11
45.1884
 21
27.0059
  0
LINE
  8
0
 10
45.1884
 20
27.0059
 11
45
 21
27
  0
LINE
  8
0
 10
45
 20
27
 11
44.8116
 21
27.0059
  0
LINE
  8
0
 10
89.8116
 20
27.0059
 11
89.624
 21
27.0237
  0
LINE
  8
0
 10
89.624
 20
27.0237
 11
89.4379
 21
27.0531
  0
LINE
  8
0
 10
89.4379
 20
27.0531
 11
89.2539
 21
27.0942
  0
LINE
  8
0
 10
89.2539
 20
27.0942
 11
89.0729
 21
27.1468
  0
LINE
  8
0
 10
89.0729
 20
27.1468
 11
88.8956
 21
27.2107
  0
LINE
  8
0
 10
88.8956
 20
27.2107
 11
88.7227
 21
27.2855
  0
LINE
  8
0
 10
88.7227
 20
27.2855
 11
88.5547
 21
27.3711
  0
LINE
  8
0
 10
88.5547
 20
27.3711
 11
88.3925
 21
27.467
  0
LINE
  8
0
 10
88.3925
 20
27.467
 11
88.2366
 21
27.5729
  0
LINE
  8
0
 10
88.2366
 20
27.5729
 11
88.0877
 21
27.6884
  0
LINE
  8
0
 10
88.0877
 20
27.6884
 11
87.9464
 21
27.8131
  0
LINE
  8
0
 10
87.9464
 20
27.8131
 11
87.8131
 21
27.9464
  0
LINE
  8
0
 10
87.8131
 20
27.9464
 11
87.6884
 21
28.0877
  0
LINE
  8
0
 10
87.6884
 20
28.0877
 11
87.5729
 21
28.2366
  0
LINE
  8
0
 10
87.5729
 20
28.2366
 11
87.467
 21
28.3925
  0
LINE
  8
0
 10
87.467
 20
28.3925
 11
87.3711
 21
28.5547
  0
LINE
  8
0
 10
87.3711
 20
28.5547
 11
87.2855
 21
28.7227
  0
LINE
  8
0
 10
87.2855
 20
28.7227
 11
87.2107
 21
28.8956
  0
LINE
  8
0
 10
87.2107
 20
28.8956
 11
87.1468
 21
29.0729
  0
LINE
  8
0
 10
87.1468
 20
29.0729
 11
87.0942
 21
29.2539
  0
LINE
  8
0
 10
87.0942
 20
29.2539
 11
87.0531
 21
29.4379
  0
LINE
  8
0
 10
87.0531
 20
29.4379
 11
87.0237
 21
29.624
  0
LINE
  8
0
 10
87.0237
 20
29.624
 11
87.0059
 21
29.8116
  0
LINE
  8
0
 10
87.0059
 20
29.8116
 11
87
 21
30
  0
LINE
  8
0
 10
87
 20
30
 11
87.0059
 21
30.1884
  0
LINE
  8
0
 10
87.0059
 20
30.1884
 11
87.0237
 21
30.376
  0
LINE
  8
0
 10
87.0237
 20
30.376
 11
87.0531
 21
30.5621
  0
LINE
  8
0
 10
87.0531
 20
30.5621
 11
87.0942
 21
30.7461
  0
LINE
  8
0
 10
87.0942
 20
30.7461
 11
87.1468
 21
30.927
  0
LINE
  8
0
 10
87.1468
 20
30.927
 11
87.2107
 21
31.1044
  0
LINE
  8
0
 10
87.2107
 20
31.1044
 11
87.2855
 21
31.2773
  0
LINE
  8
0
 10
87.2855
 20
31.2773
 11
87.3711
 21
31.4453
  0
LINE
  8
0
 10
87.3711
 20
31.4453
 11
87.467
 21
31.6075
  0
LINE
  8
0
 10
87.467
 20
31.6075
 11
87.5729
 21
31.7634
  0
LINE
  8
0
 10
87.5729
 20
31.7634
 11
87.6884
 21
31.9123
  0
LINE
  8
0
 10
87.6884
 20
31.9123
 11
87.8131
 21
32.0536
  0
LINE
  8
0
 10
87.8131
 20
32.0536
 11
87.9464
 21
32.1869
  0
LINE
  8
0
 10
87.9464
 20
32.1869
 11
88.0877
 21
32.3115
  0
LINE
  8
0
 10
88.0877
 20
32.3115
 11
88.2366
 21
32.427
  0
LINE
  8
0
 10
88.2366
 20
32.427
 11
88.3925
 21
32.533
  0
LINE
  8
0
 10
88.3925
 20
32.533
 11
88.5547
 21
32.6289
  0
LINE
  8
0
 10
88.5547
 20
32.6289
 11
88.7227
 21
32.7145
  0
LINE
  8
0
 10
88.7227
 20
32.7145
 11
88.8956
 21
32.7893
  0
LINE
  8
0
 10
88.8956
 20
32.7893
 11
89.0729
 21
32.8532
  0
LINE
  8
0
 10
89.0729
 20
32.8532
 11
89.2539
 21
32.9057
  0
LINE
  8
0
 10
89.2539
 20
32.9057
 11
89.4379
 21
32.9469
  0
LINE
  8
0
 10
89.4379
 20
32.9469
 11
89.624
 21
32.9763
  0
LINE
  8
0
 10
89.624
 20
32.9763
 11
89.8116
 21
32.9941
  0
LINE
  8
0
 10
89.8116
 20
32.9941
 11
90
 21
33
  0
LINE
  8
0
 10
90
 20
33
 11
90.1884
 21
32.9941
  0
LINE
  8
0
 10
90.1884
 20
32.9941
 11
90.376
 21
32.9763
  0
LINE
  8
0
 10
90.376
 20
32.9763
 11
90.5621
 21
32.9469
  0
LINE
  8
0
 10
90.5621
 20
32.9469
 11
90.7461
 21
32.9057
  0
LINE
  8
0
 10
90.7461
 20
32.9057
 11
90.927
 21
32.8532
  0
LINE
  8
0
 10
90.927
 20
32.8532
 11
91.1044
 21
32.7893
  0
LINE
  8
0
 10
91.1044
 20
32.7893
 11
91.2773
 21
32.7145
  0
LINE
  8
0
 10
91.2773
 20
32.7145
 11
91.4453
 21
32.6289
  0
LINE
  8
0
 10
91.4453
 20
32.6289
 11
91.6075
 21
32.533
  0
LINE
  8
0
 10
91.6075
 20
32.533
 11
91.7634
 21
32.427
  0
LINE
  8
0
 10
91.7634
 20
32.427
 11
91.9123
 21
32.3115
  0
LINE
  8
0
 10
91.9123
 20
32.3115
 11
92.0536
 21
32.1869
  0
LINE
  8
0
 10
92.0536
 20
32.1869
 11
92.1869
 21
32.0536
  0
LINE
  8
0
 10
92.1869
 20
32.0536
 11
92.3115
 21
31.9123
  0
LINE
  8
0
 10
92.3115
 20
31.9123
 11
92.427
 21
31.7634
  0
LINE
  8
0
 10
92.427
 20
31.7634
 11
92.533
 21
31.6075
  0
LINE
  8
0
 10
92.533
 20
31.6075
 11
92.6289
 21
31.4453
  0
LINE
  8
0
 10
92.6289
 20
31.4453
 11
92.7145
 21
31.2773
  0
LINE
  8
0
 10
92.7145
 20
31.2773
 11
92.7893
 21
31.1044
  0
LINE
  8
0
 10
92.7893
 20
31.1044
 11
92.8532
 21
30.927
  0
LINE
  8
0
 10
92.8532
 20
30.927
 11
92.9057
 21
30.7461
  0
LINE
  8
0
 10
92.9057
 20
30.7461
 11
92.9469
 21
30.5621
  0
LINE
  8
0
 10
92.9469
 20
30.5621
 11
92.9763
 21
30.376
  0
LINE
  8
0
 10
92.9763
 20
30.376
 11
92.9941
 21
30.1884
  0
LINE
  8
0
 10
92.9941
 20
30.1884
 11
93
 21
30
  0
LINE
  8
0
 10
93
 20
30
 11
92.9941
 21
29.8116
  0
LINE
  8
0
 10
92.9941
 20
29.8116
 11
92.9763
 21
29.624
  0
LINE
  8
0
 10
92.9763
 20
29.624
 11
92.9469
 21
29.4379
  0
LINE
  8
0
 10
92.9469
 20
29.4379
 11
92.9057
 21
29.2539
  0
LINE
  8
0
 10
92.9057
 20
29.2539
 11
92.8532
 21
29.0729
  0
LINE
  8
0
 10
92.8532
 20
29.0729
 11
92.7893
 21
28.8956
  0
LINE
  8
0
 10
92.7893
 20
28.8956
 11
92.7145
 21
28.7227
  0
LINE
  8
0
 10
92.7145
 20
28.7227
 11
92.6289
 21
28.5547
  0
LINE
  8
0
 10
92.6289
 20
28.5547
 11
92.533
 21
28.3925
  0
LINE
  8
0
 10
92.533
 20
28.3925
 11
92.427
 21
28.2366
  0
LINE
  8
0
 10
92.427
 20
28.2366
 11
92.3115
 21
28.0877
  0
LINE
  8
0
 10
92.3115
 20
28.0877
 11
92.1869
 21
27.9464
  0
LINE
  8
0
 10
92.1869
 20
27.9464
 11
92.0536
 21
27.8131
  0
LINE
  8
0
 10
92.0536
 20
27.8131
 11
91.9123
 21
27.6884
  0
LINE
  8
0
 10
91.9123
 20
27.6884
 11
91.7634
 21
27.5729
  0
LINE
  8
0
 10
91.7634
 20
27.5729
 11
91.6075
 21
27.467
  0
LINE
  8
0
 10
91.6075
 20
27.467
 11
91.4453
 21
27.3711
  0
LINE
  8
0
 10
91.4453
 20
27.3711
 11
91.2773
 21
27.2855
  0
LINE
  8
0
 10
91.2773
 20
27.2855
 11
91.1044
 21
27.2107
  0
LINE
  8
0
 10
91.1044
 20
27.2107
 11
90.927
 21
27.1468
  0
LINE
  8
0
 10
90.927
 20
27.1468
 11
90.7461
 21
27.0942
  0
LINE
  8
0
 10
90.7461
 20
27.0942
 11
90.5621
 21
27.0531
  0
LINE
  8
0
 10
90.5621
 20
27.0531
 11
90.376
 21
27.0237
  0
LINE
  8
0
 10
90.376
 20
27.0237
 11
90.1884
 21
27.0059
  0
LINE
  8
0
 10
90.1884
 20
27.0059
 11
90
 21
27
  0
LINE
  8
0
 10
90
 20
27
 11
89.8116
 21
27.0059
  0
LINE
  8
0
 10
119.812
 20
27.0059
 11
119.624
 21
27.0237
  0
LINE
  8
0
 10
119.624
 20
27.0237
 11
119.438
 21
27.0531
  0
LINE
  8
0
 10
119.438
 20
27.0531
 11
119.254
 21
27.0942
  0
LINE
  8
0
 10
119.254
 20
27.0942
 11
119.073
 21
27.1468
  0
LINE
  8
0
 10
119.073
 20
27.1468
 11
118.896
 21
27.2107
  0
LINE
  8
0
 10
118.896
 20
27.2107
 11
118.723
 21
27.2855
  0
LINE
  8
0
 10
118.723
 20
27.2855
 11
118.555
 21
27.3711
  0
LINE
  8
0
 10
118.555
 20
27.3711
 11
118.393
 21
27.467
  0
LINE
  8
0
 10
118.393
 20
27.467
 11
118.237
 21
27.5729
  0
LINE
  8
0
 10
118.237
 20
27.5729
 11
118.088
 21
27.6884
  0
LINE
  8
0
 10
118.088
 20
27.6884
 11
117.946
 21
27.8131
  0
LINE
  8
0
 10
117.946
 20
27.8131
 11
117.813
 21
27.9464
  0
LINE
  8
0
 10
117.813
 20
27.9464
 11
117.688
 21
28.0877
  0
LINE
  8
0
 10
117.688
 20
28.0877
 11
117.573
 21
28.2366
  0
LINE
  8
0
 10
117.573
 20
28.2366
 11
117.467
 21
28.3925
  0
LINE
  8
0
 10
117.467
 20
28.3925
 11
117.371
 21
28.5547
  0
LINE
  8
0
 10
117.371
 20
28.5547
 11
117.286
 21
28.7227
  0
LINE
  8
0
 10
117.286
 20
28.7227
 11
117.211
 21
28.8956
  0
LINE
  8
0
 10
117.211
 20
28.8956
 11
117.147
 21
29.0729
  0
LINE
  8
0
 10
117.147
 20
29.0729
 11
117.094
 21
29.2539
  0
LINE
  8
0
 10
117.094
 20
29.2539
 11
117.053
 21
29.4379
  0
LINE
  8
0
 10
117.053
 20
29.4379
 11
117.024
 21
29.624
  0
LINE
  8
0
 10
117.024
 20
29.624
 11
117.006
 21
29.8116
  0
LINE
  8
0
 10
117.006
 20
29.8116
 11
117
 21
30
  0
LINE
  8
0
 10
117
 20
30
 11
117.006
 21
30.1884
  0
LINE
  8
0
 10
117.006
 20
30.1884
 11
117.024
 21
30.376
  0
LINE
  8
0
 10
117.024
 20
30.376
 11
117.053
 21
30.5621
  0
LINE
  8
0
 10
117.053
 20
30.5621
 11
117.094
 21
30.7461
  0
LINE
  8
0
 10
117.094
 20
30.7461
 11
117.147
 21
30.927
  0
LINE
  8
0
 10
117.147
 20
30.927
 11
117.211
 21
31.1044
  0
LINE
  8
0
 10
117.211
 20
31.1044
 11
117.286
 21
31.2773
  0
LINE
  8
0
 10
117.286
 20
31.2773
 11
117.371
 21
31.4453
  0
LINE
  8
0
 10
117.371
 20
31.4453
 11
117.467
 21
31.6075
  0
LINE
  8
0
 10
117.467
 20
31.6075
 11
117.573
 21
31.7634
  0
LINE
  8
0
 10
117.573
 20
31.7634
 11
117.688
 21
31.9123
  0
LINE
  8
0
 10
117.688
 20
31.9123
 11
117.813
 21
32.0536
  0
LINE
  8
0
 10
117.813
 20
32.0536
 11
117.946
 21
32.1869
  0
LINE
  8
0
 10
117.946
 20
32.1869
 11
118.088
 21
32.3115
  0
LINE
  8
0
 10
118.088
 20
32.3115
 11
118.237
 21
32.427
  0
LINE
  8
0
 10
118.237
 20
32.427
 11
118.393
 21
32.533
  0
LINE
  8
0
 10
118.393
 20
32.533
 11
118.555
 21
32.6289
  0
LINE
  8
0
 10
118.555
 20
32.6289
 11
118.723
 21
32.7145
  0
LINE
  8
0
 10
118.723
 20
32.7145
 11
118.896
 21
32.7893
  0
LINE
  8
0
 10
118.896
 20
32.7893
 11
119.073
 21
32.8532
  0
LINE
  8
0
 10
119.073
 20
32.8532
 11
119.254
 21
32.9057
  0
LINE
  8
0
 10
119.254
 20
32.9057
 11
119.438
 21
32.9469
  0
LINE
  8
0
 10
119.438
 20
32.9469
 11
119.624
 21
32.9763
  0
LINE
  8
0
 10
119.624
 20
32.9763
 11
119.812
 21
32.9941
  0
LINE
  8
0
 10
119.812
 20
32.9941
 11
120
 21
33
  0
LINE
  8
0
 10
120
 20
33
 11
120.188
 21
32.9941
  0
LINE
  8
0
 10
120.188
 20
32.9941
 11
120.376
 21
32.9763
  0
LINE
  8
0
 10
120.376
 20
32.9763
 11
120.562
 21
32.9469
  0
LINE
  8
0
 10
120.562
 20
32.9469
 11
120.746
 21
32.9057
  0
LINE
  8
0
 10
120.746
 20
32.9057
 11
120.927
 21
32.8532
  0
LINE
  8
0
 10
120.927
 20
32.8532
 11
121.104
 21
32.7893
  0
LINE
  8
0
 10
121.104
 20
32.7893
 11
121.277
 21
32.7145
  0
LINE
  8
0
 10
121.277
 20
32.7145
 11
121.445
 21
32.6289
  0
LINE
  8
0
 10
121.445
 20
32.6289
 11
121.607
 21
32.533
  0
LINE
  8
0
 10
121.607
 20
32.533
 11
121.763
 21
32.427
  0
LINE
  8
0
 10
121.763
 20
32.427
 11
121.912
 21
32.3115
  0
LINE
  8
0
 10
121.912
 20
32.3115
 11
122.054
 21
32.1869
  0
LINE
  8
0
 10
122.054
 20
32.1869
 11
122.187
 21
32.0536
  0
LINE
  8
0
 10
122.187
 20
32.0536
 11
122.312
 21
31.9123
  0
LINE
  8
0
 10
122.312
 20
31.9123
 11
122.427
 21
31.7634
  0
LINE
  8
0
 10
122.427
 20
31.7634
 11
122.533
 21
31.6075
  0
LINE
  8
0
 10
122.533
 20
31.6075
 11
122.629
 21
31.4453
  0
LINE
  8
0
 10
122.629
 20
31.4453
 11
122.714
 21
31.2773
  0
LINE
  8
0
 10
122.714
 20
31.2773
 11
122.789
 21
31.1044
  0
LINE
  8
0
 10
122.789
 20
31.1044
 11
122.853
 21
30.927
  0
LINE
  8
0
 10
122.853
 20
30.927
 11
122.906
 21
30.7461
  0
LINE
  8
0
 10
122.906
 20
30.7461
 11
122.947
 21
30.5621
  0
LINE
  8
0
 10
122.947
 20
30.5621
 11
122.976
 21
30.376
  0
LINE
  8
0
 10
122.976
 20
30.376
 11
122.994
 21
30.1884
  0
LINE
  8
0
 10
122.994
 20
30.1884
 11
123
 21
30
  0
LINE
  8
0
 10
123
 20
30
 11
122.994
 21
29.8116
  0
LINE
  8
0
 10
122.994
 20
29.8116
 11
122.976
 21
29.624
  0
LINE
  8
0
 10
122.976
 20
29.624
 11
122.947
 21
29.4379
  0
LINE
  8
0
 10
122.947
 20
29.4379
 11
122.906
 21
29.2539
  0
LINE
  8
0
 10
122.906
 20
29.2539
 11
122.853
 21
29.0729
  0
LINE
  8
0
 10
122.853
 20
29.0729
 11
122.789
 21
28.8956
  0
LINE
  8
0
 10
122.789
 20
28.8956
 11
122.714
 21
28.7227
  0
LINE
  8
0
 10
122.714
 20
28.7227
 11
122.629
 21
28.5547
  0
LINE
  8
0
 10
122.629
 20
28.5547
 11
122.533
 21
28.3925
  0
LINE
  8
0
 10
122.533
 20
28.3925
 11
122.427
 21
28.2366
  0
LINE
  8
0
 10
122.427
 20
28.2366
 11
122.312
 21
28.0877
  0
LINE
  8
0
 10
122.312
 20
28.0877
 11
122.187
 21
27.9464
  0
LINE
  8
0
 10
122.187
 20
27.9464
 11
122.054
 21
27.8131
  0
LINE
  8
0
 10
122.054
 20
27.8131
 11
121.912
 21
27.6884
  0
LINE
  8
0
 10
121.912
 20
27.6884
 11
121.763
 21
27.5729
  0
LINE
  8
0
 10
121.763
 20
27.5729
 11
121.607
 21
27.467
  0
LINE
  8
0
 10
121.607
 20
27.467
 11
121.445
 21
27.3711
  0
LINE
  8
0
 10
121.445
 20
27.3711
 11
121.277
 21
27.2855
  0
LINE
  8
0
 10
121.277
 20
27.2855
 11
121.104
 21
27.2107
  0
LINE
  8
0
 10
121.104
 20
27.2107
 11
120.927
 21
27.1468
  0
LINE
  8
0
 10
120.927
 20
27.1468
 11
120.746
 21
27.0942
  0
LINE
  8
0
 10
120.746
 20
27.0942
 11
120.562
 21
27.0531
  0
LINE
  8
0
 10
120.562
 20
27.0531
 11
120.376
 21
27.0237
  0
LINE
  8
0
 10
120.376
 20
27.0237
 11
120.188
 21
27.0059
  0
LINE
  8
0
 10
120.188
 20
27.0059
 11
120
 21
27
  0
LINE
  8
0
 10
120
 20
27
 11
119.812
 21
27.0059
  0
LINE
  8
0
 10
134.812
 20
27.0059
 11
134.624
 21
27.0237
  0
LINE
  8
0
 10
134.624
 20
27.0237
 11
134.438
 21
27.0531
  0
LINE
  8
0
 10
134.438
 20
27.0531
 11
134.254
 21
27.0942
  0
LINE
  8
0
 10
134.254
 20
27.0942
 11
134.073
 21
27.1468
  0
LINE
  8
0
 10
134.073
 20
27.1468
 11
133.896
 21
27.2107
  0
LINE
  8
0
 10
133.896
 20
27.2107
 11
133.723
 21
27.2855
  0
LINE
  8
0
 10
133.723
 20
27.2855
 11
133.555
 21
27.3711
  0
LINE
  8
0
 10
133.555
 20
27.3711
 11
133.393
 21
27.467
  0
LINE
  8
0
 10
133.393
 20
27.467
 11
133.237
 21
27.5729
  0
LINE
  8
0
 10
133.237
 20
27.5729
 11
133.088
 21
27.6884
  0
LINE
  8
0
 10
133.088
 20
27.6884
 11
132.946
 21
27.8131
  0
LINE
  8
0
 10
132.946
 20
27.8131
 11
132.813
 21
27.9464
  0
LINE
  8
0
 10
132.813
 20
27.9464
 11
132.688
 21
28.0877
  0
LINE
  8
0
 10
132.688
 20
28.0877
 11
132.573
 21
28.2366
  0
LINE
  8
0
 10
132.573
 20
28.2366
 11
132.467
 21
28.3925
  0
LINE
  8
0
 10
132.467
 20
28.3925
 11
132.371
 21
28.5547
  0
LINE
  8
0
 10
132.371
 20
28.5547
 11
132.286
 21
28.7227
  0
LINE
  8
0
 10
132.286
 20
28.7227
 11
132.211
 21
28.8956
  0
LINE
  8
0
 10
132.211
 20
28.8956
 11
132.147
 21
29.0729
  0
LINE
  8
0
 10
132.147
 20
29.0729
 11
132.094
 21
29.2539
  0
LINE
  8
0
 10
132.094
 20
29.2539
 11
132.053
 21
29.4379
  0
LINE
  8
0
 10
132.053
 20
29.4379
 11
132.024
 21
29.624
  0
LINE
  8
0
 10
132.024
 20
29.624
 11
132.006
 21
29.8116
  0
LINE
  8
0
 10
132.006
 20
29.8116
 11
132
 21
30
  0
LINE
  8
0
 10
132
 20
30
 11
132.006
 21
30.1884
  0
LINE
  8
0
 10
132.006
 20
30.1884
 11
132.024
 21
30.376
  0
LINE
  8
0
 10
132.024
 20
30.376
 11
132.053
 21
30.5621
  0
LINE
  8
0
 10
132.053
 20
30.5621
 11
132.094
 21
30.7461
  0
LINE
  8
0
 10
132.094
 20
30.7461
 11
132.147
 21
30.927
  0
LINE
  8
0
 10
132.147
 20
30.927
 11
132.211
 21
31.1044
  0
LINE
  8
0
 10
132.211
 20
31.1044
 11
132.286
 21
31.2773
  0
LINE
  8
0
 10
132.286
 20
31.2773
 11
132.371
 21
31.4453
  0
LINE
  8
0
 10
132.371
 20
31.4453
 11
132.467
 21
31.6075
  0
LINE
  8
0
 10
132.467
 20
31.6075
 11
132.573
 21
31.7634
  0
LINE
  8
0
 10
132.573
 20
31.7634
 11
132.688
 21
31.9123
  0
LINE
  8
0
 10
132.688
 20
31.9123
 11
132.813
 21
32.0536
  0
LINE
  8
0
 10
132.813
 20
32.0536
 11
132.946
 21
32.1869
  0
LINE
  8
0
 10
132.946
 20
32.1869
 11
133.088
 21
32.3115
  0
LINE
  8
0
 10
133.088
 20
32.3115
 11
133.237
 21
32.427
  0
LINE
  8
0
 10
133.237
 20
32.427
 11
133.393
 21
32.533
  0
LINE
  8
0
 10
133.393
 20
32.533
 11
133.555
 21
32.6289
  0
LINE
  8
0
 10
133.555
 20
32.6289
 11
133.723
 21
32.7145
  0
LINE
  8
0
 10
133.723
 20
32.7145
 11
133.896
 21
32.7893
  0
LINE
  8
0
 10
133.896
 20
32.7893
 11
134.073
 21
32.8532
  0
LINE
  8
0
 10
134.073
 20
32.8532
 11
134.254
 21
32.9057
  0
LINE
  8
0
 10
134.254
 20
32.9057
 11
134.438
 21
32.9469
  0
LINE
  8
0
 10
134.438
 20
32.9469
 11
134.624
 21
32.9763
  0
LINE
  8
0
 10
134.624
 20
32.9763
 11
134.812
 21
32.9941
  0
LINE
  8
0
 10
134.812
 20
32.9941
 11
135
 21
33
  0
LINE
  8
0
 10
135
 20
33
 11
135.188
 21
32.9941
  0
LINE
  8
0
 10
135.188
 20
32.9941
 11
135.376
 21
32.9763
  0
LINE
  8
0
 10
135.376
 20
32.9763
 11
135.562
 21
32.9469
  0
LINE
  8
0
 10
135.562
 20
32.9469
 11
135.746
 21
32.9057
  0
LINE
  8
0
 10
135.746
 20
32.9057
 11
135.927
 21
32.8532
  0
LINE
  8
0
 10
135.927
 20
32.8532
 11
136.104
 21
32.7893
  0
LINE
  8
0
 10
136.104
 20
32.7893
 11
136.277
 21
32.7145
  0
LINE
  8
0
 10
136.277
 20
32.7145
 11
136.445
 21
32.6289
  0
LINE
  8
0
 10
136.445
 20
32.6289
 11
136.607
 21
32.533
  0
LINE
  8
0
 10
136.607
 20
32.533
 11
136.763
 21
32.427
  0
LINE
  8
0
 10
136.763
 20
32.427
 11
136.912
 21
32.3115
  0
LINE
  8
0
 10
136.912
 20
32.3115
 11
137.054
 21
32.1869
  0
LINE
  8
0
 10
137.054
 20
32.1869
 11
137.187
 21
32.0536
  0
LINE
  8
0
 10
137.187
 20
32.0536
 11
137.312
 21
31.9123
  0
LINE
  8
0
 10
137.312
 20
31.9123
 11
137.427
 21
31.7634
  0
LINE
  8
0
 10
137.427
 20
31.7634
 11
137.533
 21
31.6075
  0
LINE
  8
0
 10
137.533
 20
31.6075
 11
137.629
 21
31.4453
  0
LINE
  8
0
 10
137.629
 20
31.4453
 11
137.714
 21
31.2773
  0
LINE
  8
0
 10
137.714
 20
31.2773
 11
137.789
 21
31.1044
  0
LINE
  8
0
 10
137.789
 20
31.1044
 11
137.853
 21
30.927
  0
LINE
  8
0
 10
137.853
 20
30.927
 11
137.906
 21
30.7461
  0
LINE
  8
0
 10
137.906
 20
30.7461
 11
137.947
 21
30.5621
  0
LINE
  8
0
 10
137.947
 20
30.5621
 11
137.976
 21
30.376
  0
LINE
  8
0
 10
137.976
 20
30.376
 11
137.994
 21
30.1884
  0
LINE
  8
0
 10
137.994
 20
30.1884
 11
138
 21
30
  0
LINE
  8
0
 10
138
 20
30
 11
137.994
 21
29.8116
  0
LINE
  8
0
 10
137.994
 20
29.8116
 11
137.976
 21
29.624
  0
LINE
  8
0
 10
137.976
 20
29.624
 11
137.947
 21
29.4379
  0
LINE
  8
0
 10
137.947
 20
29.4379
 11
137.906
 21
29.2539
  0
LINE
  8
0
 10
137.906
 20
29.2539
 11
137.853
 21
29.0729
  0
LINE
  8
0
 10
137.853
 20
29.0729
 11
137.789
 21
28.8956
  0
LINE
  8
0
 10
137.789
 20
28.8956
 11
137.714
 21
28.7227
  0
LINE
  8
0
 10
137.714
 20
28.7227
 11
137.629
 21
28.5547
  0
LINE
  8
0
 10
137.629
 20
28.5547
 11
137.533
 21
28.3925
  0
LINE
  8
0
 10
137.533
 20
28.3925
 11
137.427
 21
28.2366
  0
LINE
  8
0
 10
137.427
 20
28.2366
 11
137.312
 21
28.0877
  0
LINE
  8
0
 10
137.312
 20
28.0877
 11
137.187
 21
27.9464
  0
LINE
  8
0
 10
137.187
 20
27.9464
 11
137.054
 21
27.8131
  0
LINE
  8
0
 10
137.054
 20
27.8131
 11
136.912
 21
27.6884
  0
LINE
  8
0
 10
136.912
 20
27.6884
 11
136.763
 21
27.5729
  0
LINE
  8
0
 10
136.763
 20
27.5729
 11
136.607
 21
27.467
  0
LINE
  8
0
 10
136.607
 20
27.467
 11
136.445
 21
27.3711
  0
LINE
  8
0
 10
136.445
 20
27.3711
 11
136.277
 21
27.2855
  0
LINE
  8
0
 10
136.277
 20
27.2855
 11
136.104
 21
27.2107
  0
LINE
  8
0
 10
136.104
 20
27.2107
 11
135.927
 21
27.1468
  0
LINE
  8
0
 10
135.927
 20
27.1468
 11
135.746
 21
27.0942
  0
LINE
  8
0
 10
135.746
 20
27.0942
 11
135.562
 21
27.0531
  0
LINE
  8
0
 10
135.562
 20
27.0531
 11
135.376
 21
27.0237
  0
LINE
  8
0
 10
135.376
 20
27.0237
 11
135.188
 21
27.0059
  0
LINE
  8
0
 10
135.188
 20
27.0059
 11
135
 21
27
  0
LINE
  8
0
 10
135
 20
27
 11
134.812
 21
27.0059
  0
LINE
  8
0
 10
14.8116
 20
27.0059
 11
14.624
 21
27.0237
  0
LINE
  8
0
 10
14.624
 20
27.0237
 11
14.4379
 21
27.0531
  0
LINE
  8
0
 10
14.4379
 20
27.0531
 11
14.2539
 21
27.0942
  0
LINE
  8
0
 10
14.2539
 20
27.0942
 11
14.0729
 21
27.1468
  0
LINE
  8
0
 10
14.0729
 20
27.1468
 11
13.8956
 21
27.2107
  0
LINE
  8
0
 10
13.8956
 20
27.2107
 11
13.7227
 21
27.2855
  0
LINE
  8
0
 10
13.7227
 20
27.2855
 11
13.5547
 21
27.3711
  0
LINE
  8
0
 10
13.5547
 20
27.3711
 11
13.3925
 21
27.467
  0
LINE
  8
0
 10
13.3925
 20
27.467
 11
13.2366
 21
27.5729
  0
LINE
  8
0
 10
13.2366
 20
27.5729
 11
13.0877
 21
27.6884
  0
LINE
  8
0
 10
13.0877
 20
27.6884
 11
12.9464
 21
27.8131
  0
LINE
  8
0
 10
12.9464
 20
27.8131
 11
12.8131
 21
27.9464
  0
LINE
  8
0
 10
12.8131
 20
27.9464
 11
12.6884
 21
28.0877
  0
LINE
  8
0
 10
12.6884
 20
28.0877
 11
12.5729
 21
28.2366
  0
LINE
  8
0
 10
12.5729
 20
28.2366
 11
12.467
 21
28.3925
  0
LINE
  8
0
 10
12.467
 20
28.3925
 11
12.3711
 21
28.5547
  0
LINE
  8
0
 10
12.3711
 20
28.5547
 11
12.2855
 21
28.7227
  0
LINE
  8
0
 10
12.2855
 20
28.7227
 11
12.2107
 21
28.8956
  0
LINE
  8
0
 10
12.2107
 20
28.8956
 11
12.1468
 21
29.0729
  0
LINE
  8
0
 10
12.1468
 20
29.0729
 11
12.0942
 21
29.2539
  0
LINE
  8
0
 10
12.0942
 20
29.2539
 11
12.0531
 21
29.4379
  0
LINE
  8
0
 10
12.0531
 20
29.4379
 11
12.0237
 21
29.624
  0
LINE
  8
0
 10
12.0237
 20
29.624
 11
12.0059
 21
29.8116
  0
LINE
  8
0
 10
12.0059
 20
29.8116
 11
12
 21
30
  0
LINE
  8
0
 10
12
 20
30
 11
12.0059
 21
30.1884
  0
LINE
  8
0
 10
12.0059
 20
30.1884
 11
12.0237
 21
30.376
  0
LINE
  8
0
 10
12.0237
 20
30.376
 11
12.0531
 21
30.5621
  0
LINE
  8
0
 10
12.0531
 20
30.5621
 11
12.0942
 21
30.7461
  0
LINE
  8
0
 10
12.0942
 20
30.7461
 11
12.1468
 21
30.927
  0
LINE
  8
0
 10
12.1468
 20
30.927
 11
12.2107
 21
31.1044
  0
LINE
  8
0
 10
12.2107
 20
31.1044
 11
12.2855
 21
31.2773
  0
LINE
  8
0
 10
12.2855
 20
31.2773
 11
12.3711
 21
31.4453
  0
LINE
  8
0
 10
12.3711
 20
31.4453
 11
12.467
 21
31.6075
  0
LINE
  8
0
 10
12.467
 20
31.6075
 11
12.5729
 21
31.7634
  0
LINE
  8
0
 10
12.5729
 20
31.7634
 11
12.6884
 21
31.9123
  0
LINE
  8
0
 10
12.6884
 20
31.9123
 11
12.8131
 21
32.0536
  0
LINE
  8
0
 10
12.8131
 20
32.0536
 11
12.9464
 21
32.1869
  0
LINE
  8
0
 10
12.9464
 20
32.1869
 11
13.0877
 21
32.3115
  0
LINE
  8
0
 10
13.0877
 20
32.3115
 11
13.2366
 21
32.427
  0
LINE
  8
0
 10
13.2366
 20
32.427
 11
13.3925
 21
32.533
  0
LINE
  8
0
 10
13.3925
 20
32.533
 11
13.5547
 21
32.6289
  0
LINE
  8
0
 10
13.5547
 20
32.6289
 11
13.7227
 21
32.7145
  0
LINE
  8
0
 10
13.7227
 20
32.7145
 11
13.8956
 21
32.7893
  0
LINE
  8
0
 10
13.8956
 20
32.7893
 11
14.0729
 21
32.8532
  0
LINE
  8
0
 10
14.0729
 20
32.8532
 11
14.2539
 21
32.9057
  0
LINE
  8
0
 10
14.2539
 20
32.9057
 11
14.4379
 21
32.9469
  0
LINE
  8
0
 10
14.4379
 20
32.9469
 11
14.624
 21
32.9763
  0
LINE
  8
0
 10
14.624
 20
32.9763
 11
14.8116
 21
32.9941
  0
LINE
  8
0
 10
14.8116
 20
32.9941
 11
15
 21
33
  0
LINE
  8
0
 10
15
 20
33
 11
15.1884
 21
32.9941
  0
LINE
  8
0
 10
15.1884
 20
32.9941
 11
15.376
 21
32.9763
  0
LINE
  8
0
 10
15.376
 20
32.9763
 11
15.5621
 21
32.9469
  0
LINE
  8
0
 10
15.5621
 20
32.9469
 11
15.7461
 21
32.9057
  0
LINE
  8
0
 10
15.7461
 20
32.9057
 11
15.927
 21
32.8532
  0
LINE
  8
0
 10
15.927
 20
32.8532
 11
16.1044
 21
32.7893
  0
LINE
  8
0
 10
16.1044
 20
32.7893
 11
16.2773
 21
32.7145
  0
LINE
  8
0
 10
16.2773
 20
32.7145
 11
16.4453
 21
32.6289
  0
LINE
  8
0
 10
16.4453
 20
32.6289
 11
16.6075
 21
32.533
  0
LINE
  8
0
 10
16.6075
 20
32.533
 11
16.7634
 21
32.427
  0
LINE
  8
0
 10
16.7634
 20
32.427
 11
16.9123
 21
32.3115
  0
LINE
  8
0
 10
16.9123
 20
32.3115
 11
17.0536
 21
32.1869
  0
LINE
  8
0
 10
17.0536
 20
32.1869
 11
17.1869
 21
32.0536
  0
LINE
  8
0
 10
17.1869
 20
32.0536
 11
17.3115
 21
31.9123
  0
LINE
  8
0
 10
17.3115
 20
31.9123
 11
17.427
 21
31.7634
  0
LINE
  8
0
 10
17.427
 20
31.7634
 11
17.533
 21
31.6075
  0
LINE
  8
0
 10
17.533
 20
31.6075
 11
17.6289
 21
31.4453
  0
LINE
  8
0
 10
17.6289
 20
31.4453
 11
17.7145
 21
31.2773
  0
LINE
  8
0
 10
17.7145
 20
31.2773
 11
17.7893
 21
31.1044
  0
LINE
  8
0
 10
17.7893
 20
31.1044
 11
17.8532
 21
30.927
  0
LINE
  8
0
 10
17.8532
 20
30.927
 11
17.9057
 21
30.7461
  0
LINE
  8
0
 10
17.9057
 20
30.7461
 11
17.9469
 21
30.5621
  0
LINE
  8
0
 10
17.9469
 20
30.5621
 11
17.9763
 21
30.376
  0
LINE
  8
0
 10
17.9763
 20
30.376
 11
17.9941
 21
30.1884
  0
LINE
  8
0
 10
17.9941
 20
30.1884
 11
18
 21
30
  0
LINE
  8
0
 10
18
 20
30
 11
17.9941
 21
29.8116
  0
LINE
  8
0
 10
17.9941
 20
29.8116
 11
17.9763
 21
29.624
  0
LINE
  8
0
 10
17.9763
 20
29.624
 11
17.9469
 21
29.4379
  0
LINE
  8
0
 10
17.9469
 20
29.4379
 11
17.9057
 21
29.2539
  0
LINE
  8
0
 10
17.9057
 20
29.2539
 11
17.8532
 21
29.0729
  0
LINE
  8
0
 10
17.8532
 20
29.0729
 11
17.7893
 21
28.8956
  0
LINE
  8
0
 10
17.7893
 20
28.8956
 11
17.7145
 21
28.7227
  0
LINE
  8
0
 10
17.7145
 20
28.7227
 11
17.6289
 21
28.5547
  0
LINE
  8
0
 10
17.6289
 20
28.5547
 11
17.533
 21
28.3925
  0
LINE
  8
0
 10
17.533
 20
28.3925
 11
17.427
 21
28.2366
  0
LINE
  8
0
 10
17.427
 20
28.2366
 11
17.3115
 21
28.0877
  0
LINE
  8
0
 10
17.3115
 20
28.0877
 11
17.1869
 21
27.9464
  0
LINE
  8
0
 10
17.1869
 20
27.9464
 11
17.0536
 21
27.8131
  0
LINE
  8
0
 10
17.0536
 20
27.8131
 11
16.9123
 21
27.6884
  0
LINE
  8
0
 10
16.9123
 20
27.6884
 11
16.7634
 21
27.5729
  0
LINE
  8
0
 10
16.7634
 20
27.5729
 11
16.6075
 21
27.467
  0
LINE
  8
0
 10
16.6075
 20
27.467
 11
16.4453
 21
27.3711
  0
LINE
  8
0
 10
16.4453
 20
27.3711
 11
16.2773
 21
27.2855
  0
LINE
  8
0
 10
16.2773
 20
27.2855
 11
16.1044
 21
27.2107
  0
LINE
  8
0
 10
16.1044
 20
27.2107
 11
15.927
 21
27.1468
  0
LINE
  8
0
 10
15.927
 20
27.1468
 11
15.7461
 21
27.0942
  0
LINE
  8
0
 10
15.7461
 20
27.0942
 11
15.5621
 21
27.0531
  0
LINE
  8
0
 10
15.5621
 20
27.0531
 11
15.376
 21
27.0237
  0
LINE
  8
0
 10
15.376
 20
27.0237
 11
15.1884
 21
27.0059
  0
LINE
  8
0
 10
15.1884
 20
27.0059
 11
15
 21
27
  0
LINE
  8
0
 10
15
 20
27
 11
14.8116
 21
27.0059
  0
LINE
  8
0
 10
29.8116
 20
27.0059
 11
29.624
 21
27.0237
  0
LINE
  8
0
 10
29.624
 20
27.0237
 11
29.4379
 21
27.0531
  0
LINE
  8
0
 10
29.4379
 20
27.0531
 11
29.2539
 21
27.0942
  0
LINE
  8
0
 10
29.2539
 20
27.0942
 11
29.0729
 21
27.1468
  0
LINE
  8
0
 10
29.0729
 20
27.1468
 11
28.8956
 21
27.2107
  0
LINE
  8
0
 10
28.8956
 20
27.2107
 11
28.7227
 21
27.2855
  0
LINE
  8
0
 10
28.7227
 20
27.2855
 11
28.5547
 21
27.3711
  0
LINE
  8
0
 10
28.5547
 20
27.3711
 11
28.3925
 21
27.467
  0
LINE
  8
0
 10
28.3925
 20
27.467
 11
28.2366
 21
27.5729
  0
LINE
  8
0
 10
28.2366
 20
27.5729
 11
28.0877
 21
27.6884
  0
LINE
  8
0
 10
28.0877
 20
27.6884
 11
27.9464
 21
27.8131
  0
LINE
  8
0
 10
27.9464
 20
27.8131
 11
27.8131
 21
27.9464
  0
LINE
  8
0
 10
27.8131
 20
27.9464
 11
27.6884
 21
28.0877
  0
LINE
  8
0
 10
27.6884
 20
28.0877
 11
27.5729
 21
28.2366
  0
LINE
  8
0
 10
27.5729
 20
28.2366
 11
27.467
 21
28.3925
  0
LINE
  8
0
 10
27.467
 20
28.3925
 11
27.3711
 21
28.5547
  0
LINE
  8
0
 10
27.3711
 20
28.5547
 11
27.2855
 21
28.7227
  0
LINE
  8
0
 10
27.2855
 20
28.7227
 11
27.2107
 21
28.8956
  0
LINE
  8
0
 10
27.2107
 20
28.8956
 11
27.1468
 21
29.0729
  0
LINE
  8
0
 10
27.1468
 20
29.0729
 11
27.0942
 21
29.2539
  0
LINE
  8
0
 10
27.0942
 20
29.2539
 11
27.0531
 21
29.4379
  0
LINE
  8
0
 10
27.0531
 20
29.4379
 11
27.0237
 21
29.624
  0
LINE
  8
0
 10
27.0237
 20
29.624
 11
27.0059
 21
29.8116
  0
LINE
  8
0
 10
27.0059
 20
29.8116
 11
27
 21
30
  0
LINE
  8
0
 10
27
 20
30
 11
27.0059
 21
30.1884
  0
LINE
  8
0
 10
27.0059
 20
30.1884
 11
27.0237
 21
30.376
  0
LINE
  8
0
 10
27.0237
 20
30.376
 11
27.0531
 21
30.5621
  0
LINE
  8
0
 10
27.0531
 20
30.5621
 11
27.0942
 21
30.7461
  0
LINE
  8
0
 10
27.0942
 20
30.7461
 11
27.1468
 21
30.927
  0
LINE
  8
0
 10
27.1468
 20
30.927
 11
27.2107
 21
31.1044
  0
LINE
  8
0
 10
27.2107
 20
31.1044
 11
27.2855
 21
31.2773
  0
LINE
  8
0
 10
27.2855
 20
31.2773
 11
27.3711
 21
31.4453
  0
LINE
  8
0
 10
27.3711
 20
31.4453
 11
27.467
 21
31.6075
  0
LINE
  8
0
 10
27.467
 20
31.6075
 11
27.5729
 21
31.7634
  0
LINE
  8
0
 10
27.5729
 20
31.7634
 11
27.6884
 21
31.9123
  0
LINE
  8
0
 10
27.6884
 20
31.9123
 11
27.8131
 21
32.0536
  0
LINE
  8
0
 10
27.8131
 20
32.0536
 11
27.9464
 21
32.1869
  0
LINE
  8
0
 10
27.9464
 20
32.1869
 11
28.0877
 21
32.3115
  0
LINE
  8
0
 10
28.0877
 20
32.3115
 11
28.2366
 21
32.427
  0
LINE
  8
0
 10
28.2366
 20
32.427
 11
28.3925
 21
32.533
  0
LINE
  8
0
 10
28.3925
 20
32.533
 11
28.5547
 21
32.6289
  0
LINE
  8
0
 10
28.5547
 20
32.6289
 11
28.7227
 21
32.7145
  0
LINE
  8
0
 10
28.7227
 20
32.7145
 11
28.8956
 21
32.7893
  0
LINE
  8
0
 10
28.8956
 20
32.7893
 11
29.0729
 21
32.8532
  0
LINE
  8
0
 10
29.0729
 20
32.8532
 11
29.2539
 21
32.9057
  0
LINE
  8
0
 10
29.2539
 20
32.9057
 11
29.4379
 21
32.9469
  0
LINE
  8
0
 10
29.4379
 20
32.9469
 11
29.624
 21
32.9763
  0
LINE
  8
0
 10
29.624
 20
32.9763
 11
29.8116
 21
32.9941
  0
LINE
  8
0
 10
29.8116
 20
32.9941
 11
30
 21
33
  0
LINE
  8
0
 10
30
 20
33
 11
30.1884
 21
32.9941
  0
LINE
  8
0
 10
30.1884
 20
32.9941
 11
30.376
 21
32.9763
  0
LINE
  8
0
 10
30.376
 20
32.9763
 11
30.5621
 21
32.9469
  0
LINE
  8
0
 10
30.5621
 20
32.9469
 11
30.7461
 21
32.9057
  0
LINE
  8
0
 10
30.7461
 20
32.9057
 11
30.927
 21
32.8532
  0
LINE
  8
0
 10
30.927
 20
32.8532
 11
31.1044
 21
32.7893
  0
LINE
  8
0
 10
31.1044
 20
32.7893
 11
31.2773
 21
32.7145
  0
LINE
  8
0
 10
31.2773
 20
32.7145
 11
31.4453
 21
32.6289
  0
LINE
  8
0
 10
31.4453
 20
32.6289
 11
31.6075
 21
32.533
  0
LINE
  8
0
 10
31.6075
 20
32.533
 11
31.7634
 21
32.427
  0
LINE
  8
0
 10
31.7634
 20
32.427
 11
31.9123
 21
32.3115
  0
LINE
  8
0
 10
31.9123
 20
32.3115
 11
32.0536
 21
32.1869
  0
LINE
  8
0
 10
32.0536
 20
32.1869
 11
32.1869
 21
32.0536
  0
LINE
  8
0
 10
32.1869
 20
32.0536
 11
32.3115
 21
31.9123
  0
LINE
  8
0
 10
32.3115
 20
31.9123
 11
32.427
 21
31.7634
  0
LINE
  8
0
 10
32.427
 20
31.7634
 11
32.533
 21
31.6075
  0
LINE
  8
0
 10
32.533
 20
31.6075
 11
32.6289
 21
31.4453
  0
LINE
  8
0
 10
32.6289
 20
31.4453
 11
32.7145
 21
31.2773
  0
LINE
  8
0
 10
32.7145
 20
31.2773
 11
32.7893
 21
31.1044
  0
LINE
  8
0
 10
32.7893
 20
31.1044
 11
32.8532
 21
30.927
  0
LINE
  8
0
 10
32.8532
 20
30.927
 11
32.9057
 21
30.7461
  0
LINE
  8
0
 10
32.9057
 20
30.7461
 11
32.9469
 21
30.5621
  0
LINE
  8
0
 10
32.9469
 20
30.5621
 11
32.9763
 21
30.376
  0
LINE
  8
0
 10
32.9763
 20
30.376
 11
32.9941
 21
30.1884
  0
LINE
  8
0
 10
32.9941
 20
30.1884
 11
33
 21
30
  0
LINE
  8
0
 10
33
 20
30
 11
32.9941
 21
29.8116
  0
LINE
  8
0
 10
32.9941
 20
29.8116
 11
32.9763
 21
29.624
  0
LINE
  8
0
 10
32.9763
 20
29.624
 11
32.9469
 21
29.4379
  0
LINE
  8
0
 10
32.9469
 20
29.4379
 11
32.9057
 21
29.2539
  0
LINE
  8
0
 10
32.9057
 20
29.2539
 11
32.8532
 21
29.0729
  0
LINE
  8
0
 10
32.8532
 20
29.0729
 11
32.7893
 21
28.8956
  0
LINE
  8
0
 10
32.7893
 20
28.8956
 11
32.7145
 21
28.7227
  0
LINE
  8
0
 10
32.7145
 20
28.7227
 11
32.6289
 21
28.5547
  0
LINE
  8
0
 10
32.6289
 20
28.5547
 11
32.533
 21
28.3925
  0
LINE
  8
0
 10
32.533
 20
28.3925
 11
32.427
 21
28.2366
  0
LINE
  8
0
 10
32.427
 20
28.2366
 11
32.3115
 21
28.0877
  0
LINE
  8
0
 10
32.3115
 20
28.0877
 11
32.1869
 21
27.9464
  0
LINE
  8
0
 10
32.1869
 20
27.9464
 11
32.0536
 21
27.8131
  0
LINE
  8
0
 10
32.0536
 20
27.8131
 11
31.9123
 21
27.6884
  0
LINE
  8
0
 10
31.9123
 20
27.6884
 11
31.7634
 21
27.5729
  0
LINE
  8
0
 10
31.7634
 20
27.5729
 11
31.6075
 21
27.467
  0
LINE
  8
0
 10
31.6075
 20
27.467
 11
31.4453
 21
27.3711
  0
LINE
  8
0
 10
31.4453
 20
27.3711
 11
31.2773
 21
27.2855
  0
LINE
  8
0
 10
31.2773
 20
27.2855
 11
31.1044
 21
27.2107
  0
LINE
  8
0
 10
31.1044
 20
27.2107
 11
30.927
 21
27.1468
  0
LINE
  8
0
 10
30.927
 20
27.1468
 11
30.7461
 21
27.0942
  0
LINE
  8
0
 10
30.7461
 20
27.0942
 11
30.5621
 21
27.0531
  0
LINE
  8
0
 10
30.5621
 20
27.0531
 11
30.376
 21
27.0237
  0
LINE
  8
0
 10
30.376
 20
27.0237
 11
30.1884
 21
27.0059
  0
LINE
  8
0
 10
30.1884
 20
27.0059
 11
30
 21
27
  0
LINE
  8
0
 10
30
 20
27
 11
29.8116
 21
27.0059
  0
LINE
  8
0
 10
104.812
 20
27.0059
 11
104.624
 21
27.0237
  0
LINE
  8
0
 10
104.624
 20
27.0237
 11
104.438
 21
27.0531
  0
LINE
  8
0
 10
104.438
 20
27.0531
 11
104.254
 21
27.0942
  0
LINE
  8
0
 10
104.254
 20
27.0942
 11
104.073
 21
27.1468
  0
LINE
  8
0
 10
104.073
 20
27.1468
 11
103.896
 21
27.2107
  0
LINE
  8
0
 10
103.896
 20
27.2107
 11
103.723
 21
27.2855
  0
LINE
  8
0
 10
103.723
 20
27.2855
 11
103.555
 21
27.3711
  0
LINE
  8
0
 10
103.555
 20
27.3711
 11
103.393
 21
27.467
  0
LINE
  8
0
 10
103.393
 20
27.467
 11
103.237
 21
27.5729
  0
LINE
  8
0
 10
103.237
 20
27.5729
 11
103.088
 21
27.6884
  0
LINE
  8
0
 10
103.088
 20
27.6884
 11
102.946
 21
27.8131
  0
LINE
  8
0
 10
102.946
 20
27.8131
 11
102.813
 21
27.9464
  0
LINE
  8
0
 10
102.813
 20
27.9464
 11
102.688
 21
28.0877
  0
LINE
  8
0
 10
102.688
 20
28.0877
 11
102.573
 21
28.2366
  0
LINE
  8
0
 10
102.573
 20
28.2366
 11
102.467
 21
28.3925
  0
LINE
  8
0
 10
102.467
 20
28.3925
 11
102.371
 21
28.5547
  0
LINE
  8
0
 10
102.371
 20
28.5547
 11
102.286
 21
28.7227
  0
LINE
  8
0
 10
102.286
 20
28.7227
 11
102.211
 21
28.8956
  0
LINE
  8
0
 10
102.211
 20
28.8956
 11
102.147
 21
29.0729
  0
LINE
  8
0
 10
102.147
 20
29.0729
 11
102.094
 21
29.2539
  0
LINE
  8
0
 10
102.094
 20
29.2539
 11
102.053
 21
29.4379
  0
LINE
  8
0
 10
102.053
 20
29.4379
 11
102.024
 21
29.624
  0
LINE
  8
0
 10
102.024
 20
29.624
 11
102.006
 21
29.8116
  0
LINE
  8
0
 10
102.006
 20
29.8116
 11
102
 21
30
  0
LINE
  8
0
 10
102
 20
30
 11
102.006
 21
30.1884
  0
LINE
  8
0
 10
102.006
 20
30.1884
 11
102.024
 21
30.376
  0
LINE
  8
0
 10
102.024
 20
30.376
 11
102.053
 21
30.5621
  0
LINE
  8
0
 10
102.053
 20
30.5621
 11
102.094
 21
30.7461
  0
LINE
  8
0
 10
102.094
 20
30.7461
 11
102.147
 21
30.927
  0
LINE
  8
0
 10
102.147
 20
30.927
 11
102.211
 21
31.1044
  0
LINE
  8
0
 10
102.211
 20
31.1044
 11
102.286
 21
31.2773
  0
LINE
  8
0
 10
102.286
 20
31.2773
 11
102.371
 21
31.4453
  0
LINE
  8
0
 10
102.371
 20
31.4453
 11
102.467
 21
31.6075
  0
LINE
  8
0
 10
102.467
 20
31.6075
 11
102.573
 21
31.7634
  0
LINE
  8
0
 10
102.573
 20
31.7634
 11
102.688
 21
31.9123
  0
LINE
  8
0
 10
102.688
 20
31.9123
 11
102.813
 21
32.0536
  0
LINE
  8
0
 10
102.813
 20
32.0536
 11
102.946
 21
32.1869
  0
LINE
  8
0
 10
102.946
 20
32.1869
 11
103.088
 21
32.3115
  0
LINE
  8
0
 10
103.088
 20
32.3115
 11
103.237
 21
32.427
  0
LINE
  8
0
 10
103.237
 20
32.427
 11
103.393
 21
32.533
  0
LINE
  8
0
 10
103.393
 20
32.533
 11
103.555
 21
32.6289
  0
LINE
  8
0
 10
103.555
 20
32.6289
 11
103.723
 21
32.7145
  0
LINE
  8
0
 10
103.723
 20
32.7145
 11
103.896
 21
32.7893
  0
LINE
  8
0
 10
103.896
 20
32.7893
 11
104.073
 21
32.8532
  0
LINE
  8
0
 10
104.073
 20
32.8532
 11
104.254
 21
32.9057
  0
LINE
  8
0
 10
104.254
 20
32.9057
 11
104.438
 21
32.9469
  0
LINE
  8
0
 10
104.438
 20
32.9469
 11
104.624
 21
32.9763
  0
LINE
  8
0
 10
104.624
 20
32.9763
 11
104.812
 21
32.9941
  0
LINE
  8
0
 10
104.812
 20
32.9941
 11
105
 21
33
  0
LINE
  8
0
 10
105
 20
33
 11
105.188
 21
32.9941
  0
LINE
  8
0
 10
105.188
 20
32.9941
 11
105.376
 21
32.9763
  0
LINE
  8
0
 10
105.376
 20
32.9763
 11
105.562
 21
32.9469
  0
LINE
  8
0
 10
105.562
 20
32.9469
 11
105.746
 21
32.9057
  0
LINE
  8
0
 10
105.746
 20
32.9057
 11
105.927
 21
32.8532
  0
LINE
  8
0
 10
105.927
 20
32.8532
 11
106.104
 21
32.7893
  0
LINE
  8
0
 10
106.104
 20
32.7893
 11
106.277
 21
32.7145
  0
LINE
  8
0
 10
106.277
 20
32.7145
 11
106.445
 21
32.6289
  0
LINE
  8
0
 10
106.445
 20
32.6289
 11
106.607
 21
32.533
  0
LINE
  8
0
 10
106.607
 20
32.533
 11
106.763
 21
32.427
  0
LINE
  8
0
 10
106.763
 20
32.427
 11
106.912
 21
32.3115
  0
LINE
  8
0
 10
106.912
 20
32.3115
 11
107.054
 21
32.1869
  0
LINE
  8
0
 10
107.054
 20
32.1869
 11
107.187
 21
32.0536
  0
LINE
  8
0
 10
107.187
 20
32.0536
 11
107.312
 21
31.9123
  0
LINE
  8
0
 10
107.312
 20
31.9123
 11
107.427
 21
31.7634
  0
LINE
  8
0
 10
107.427
 20
31.7634
 11
107.533
 21
31.6075
  0
LINE
  8
0
 10
107.533
 20
31.6075
 11
107.629
 21
31.4453
  0
LINE
  8
0
 10
107.629
 20
31.4453
 11
107.714
 21
31.2773
  0
LINE
  8
0
 10
107.714
 20
31.2773
 11
107.789
 21
31.1044
  0
LINE
  8
0
 10
107.789
 20
31.1044
 11
107.853
 21
30.927
  0
LINE
  8
0
 10
107.853
 20
30.927
 11
107.906
 21
30.7461
  0
LINE
  8
0
 10
107.906
 20
30.7461
 11
107.947
 21
30.5621
  0
LINE
  8
0
 10
107.947
 20
30.5621
 11
107.976
 21
30.376
  0
LINE
  8
0
 10
107.976
 20
30.376
 11
107.994
 21
30.1884
  0
LINE
  8
0
 10
107.994
 20
30.1884
 11
108
 21
30
  0
LINE
  8
0
 10
108
 20
30
 11
107.994
 21
29.8116
  0
LINE
  8
0
 10
107.994
 20
29.8116
 11
107.976
 21
29.624
  0
LINE
  8
0
 10
107.976
 20
29.624
 11
107.947
 21
29.4379
  0
LINE
  8
0
 10
107.947
 20
29.4379
 11
107.906
 21
29.2539
  0
LINE
  8
0
 10
107.906
 20
29.2539
 11
107.853
 21
29.0729
  0
LINE
  8
0
 10
107.853
 20
29.0729
 11
107.789
 21
28.8956
  0
LINE
  8
0
 10
107.789
 20
28.8956
 11
107.714
 21
28.7227
  0
LINE
  8
0
 10
107.714
 20
28.7227
 11
107.629
 21
28.5547
  0
LINE
  8
0
 10
107.629
 20
28.5547
 11
107.533
 21
28.3925
  0
LINE
  8
0
 10
107.533
 20
28.3925
 11
107.427
 21
28.2366
  0
LINE
  8
0
 10
107.427
 20
28.2366
 11
107.312
 21
28.0877
  0
LINE
  8
0
 10
107.312
 20
28.0877
 11
107.187
 21
27.9464
  0
LINE
  8
0
 10
107.187
 20
27.9464
 11
107.054
 21
27.8131
  0
LINE
  8
0
 10
107.054
 20
27.8131
 11
106.912
 21
27.6884
  0
LINE
  8
0
 10
106.912
 20
27.6884
 11
106.763
 21
27.5729
  0
LINE
  8
0
 10
106.763
 20
27.5729
 11
106.607
 21
27.467
  0
LINE
  8
0
 10
106.607
 20
27.467
 11
106.445
 21
27.3711
  0
LINE
  8
0
 10
106.445
 20
27.3711
 11
106.277
 21
27.2855
  0
LINE
  8
0
 10
106.277
 20
27.2855
 11
106.104
 21
27.2107
  0
LINE
  8
0
 10
106.104
 20
27.2107
 11
105.927
 21
27.1468
  0
LINE
  8
0
 10
105.927
 20
27.1468
 11
105.746
 21
27.0942
  0
LINE
  8
0
 10
105.746
 20
27.0942
 11
105.562
 21
27.0531
  0
LINE
  8
0
 10
105.562
 20
27.0531
 11
105.376
 21
27.0237
  0
LINE
  8
0
 10
105.376
 20
27.0237
 11
105.188
 21
27.0059
  0
LINE
  8
0
 10
105.188
 20
27.0059
 11
105
 21
27
  0
LINE
  8
0
 10
105
 20
27
 11
104.812
 21
27.0059
  0
LINE
  8
0
 10
81
 20
28.5
 11
81
 21
31.5
  0
LINE
  8
0
 10
81
 20
31.5
 11
84
 21
31.5
  0
LINE
  8
0
 10
84
 20
31.5
 11
84
 21
28.5
  0
LINE
  8
0
 10
84
 20
28.5
 11
81
 21
28.5
  0
LINE
  8
0
 10
21
 20
28.5
 11
21
 21
31.5
  0
LINE
  8
0
 10
21
 20
31.5
 11
24
 21
31.5
  0
LINE
  8
0
 10
24
 20
31.5
 11
24
 21
28.5
  0
LINE
  8
0
 10
24
 20
28.5
 11
21
 21
28.5
  0
LINE
  8
0
 10
126
 20
28.5
 11
126
 21
31.5
  0
LINE
  8
0
 10
126
 20
31.5
 11
129
 21
31.5
  0
LINE
  8
0
 10
129
 20
31.5
 11
129
 21
28.5
  0
LINE
  8
0
 10
129
 20
28.5
 11
126
 21
28.5
  0
LINE
  8
0
 10
111
 20
28.5
 11
111
 21
31.5
  0
LINE
  8
0
 10
111
 20
31.5
 11
114
 21
31.5
  0
LINE
  8
0
 10
114
 20
31.5
 11
114
 21
28.5
  0
LINE
  8
0
 10
114
 20
28.5
 11
111
 21
28.5
  0
LINE
  8
0
 10
96
 20
28.5
 11
96
 21
31.5
  0
LINE
  8
0
 10
96
 20
31.5
 11
99
 21
31.5
  0
LINE
  8
0
 10
99
 20
31.5
 11
99
 21
28.5
  0
LINE
  8
0
 10
99
 20
28.5
 11
96
 21
28.5
  0
LINE
  8
0
 10
66
 20
28.5
 11
66
 21
31.5
  0
LINE
  8
0
 10
66
 20
31.5
 11
69
 21
31.5
  0
LINE
  8
0
 10
69
 20
31.5
 11
69
 21
28.5
  0
LINE
  8
0
 10
69
 20
28.5
 11
66
 21
28.5
  0
LINE
  8
0
 10
51
 20
28.5
 11
51
 21
31.5
  0
LINE
  8
0
 10
51
 20
31.5
 11
54
 21
31.5
  0
LINE
  8
0
 10
54
 20
31.5
 11
54
 21
28.5
  0
LINE
  8
0
 10
54
 20
28.5
 11
51
 21
28.5
  0
LINE
  8
0
 10
36
 20
28.5
 11
36
 21
31.5
  0
LINE
  8
0
 10
36
 20
31.5
 11
39
 21
31.5
  0
LINE
  8
0
 10
39
 20
31.5
 11
39
 21
28.5
  0
LINE
  8
0
 10
39
 20
28.5
 11
36
 21
28.5
  0
LINE
  8
0
 10
43.5
 20
21
 11
43.5
 21
24
  0
LINE
  8
0
 10
43.5
 20
24
 11
46.5
 21
24
  0
LINE
  8
0
 10
46.5
 20
24
 11
46.5
 21
21
  0
LINE
  8
0
 10
46.5
 20
21
 11
43.5
 21
21
  0
LINE
  8
0
 10
13.5
 20
21
 11
13.5
 21
24
  0
LINE
  8
0
 10
13.5
 20
24
 11
16.5
 21
24
  0
LINE
  8
0
 10
16.5
 20
24
 11
16.5
 21
21
  0
LINE
  8
0
 10
16.5
 20
21
 11
13.5
 21
21
  0
LINE
  8
0
 10
28.5
 20
21
 11
28.5
 21
24
  0
LINE
  8
0
 10
28.5
 20
24
 11
31.5
 21
24
  0
LINE
  8
0
 10
31.5
 20
24
 11
31.5
 21
21
  0
LINE
  8
0
 10
31.5
 20
21
 11
28.5
 21
21
  0
LINE
  8
0
 10
58.5
 20
21
 11
58.5
 21
24
  0
LINE
  8
0
 10
58.5
 20
24
 11
61.5
 21
24
  0
LINE
  8
0
 10
61.5
 20
24
 11
61.5
 21
21
  0
LINE
  8
0
 10
61.5
 20
21
 11
58.5
 21
21
  0
LINE
  8
0
 10
103.5
 20
21
 11
103.5
 21
24
  0
LINE
  8
0
 10
103.5
 20
24
 11
106.5
 21
24
  0
LINE
  8
0
 10
106.5
 20
24
 11
106.5
 21
21
  0
LINE
  8
0
 10
106.5
 20
21
 11
103.5
 21
21
  0
LINE
  8
0
 10
118.5
 20
21
 11
118.5
 21
24
  0
LINE
  8
0
 10
118.5
 20
24
 11
121.5
 21
24
  0
LINE
  8
0
 10
121.5
 20
24
 11
121.5
 21
21
  0
LINE
  8
0
 10
121.5
 20
21
 11
118.5
 21
21
  0
LINE
  8
0
 10
133.5
 20
21
 11
133.5
 21
24
  0
LINE
  8
0
 10
133.5
 20
24
 11
136.5
 21
24
  0
LINE
  8
0
 10
136.5
 20
24
 11
136.5
 21
21
  0
LINE
  8
0
 10
136.5
 20
21
 11
133.5
 21
21
  0
LINE
  8
0
 10
73.5
 20
21
 11
73.5
 21
24
  0
LINE
  8
0
 10
73.5
 20
24
 11
76.5
 21
24
  0
LINE
  8
0
 10
76.5
 20
24
 11
76.5
 21
21
  0
LINE
  8
0
 10
76.5
 20
21
 11
73.5
 21
21
  0
LINE
  8
0
 10
88.5
 20
21
 11
88.5
 21
24
  0
LINE
  8
0
 10
88.5
 20
24
 11
91.5
 21
24
  0
LINE
  8
0
 10
91.5
 20
24
 11
91.5
 21
21
  0
LINE
  8
0
 10
91.5
 20
21
 11
88.5
 21
21
  0
LINE
  8
0
 10
44.8116
 20
12.0059
 11
44.624
 21
12.0237
  0
LINE
  8
0
 10
44.624
 20
12.0237
 11
44.4379
 21
12.0531
  0
LINE
  8
0
 10
44.4379
 20
12.0531
 11
44.2539
 21
12.0942
  0
LINE
  8
0
 10
44.2539
 20
12.0942
 11
44.0729
 21
12.1468
  0
LINE
  8
0
 10
44.0729
 20
12.1468
 11
43.8956
 21
12.2107
  0
LINE
  8
0
 10
43.8956
 20
12.2107
 11
43.7227
 21
12.2855
  0
LINE
  8
0
 10
43.7227
 20
12.2855
 11
43.5547
 21
12.3711
  0
LINE
  8
0
 10
43.5547
 20
12.3711
 11
43.3925
 21
12.467
  0
LINE
  8
0
 10
43.3925
 20
12.467
 11
43.2366
 21
12.5729
  0
LINE
  8
0
 10
43.2366
 20
12.5729
 11
43.0877
 21
12.6884
  0
LINE
  8
0
 10
43.0877
 20
12.6884
 11
42.9464
 21
12.8131
  0
LINE
  8
0
 10
42.9464
 20
12.8131
 11
42.8131
 21
12.9464
  0
LINE
  8
0
 10
42.8131
 20
12.9464
 11
42.6884
 21
13.0877
  0
LINE
  8
0
 10
42.6884
 20
13.0877
 11
42.5729
 21
13.2366
  0
LINE
  8
0
 10
42.5729
 20
13.2366
 11
42.467
 21
13.3925
  0
LINE
  8
0
 10
42.467
 20
13.3925
 11
42.3711
 21
13.5547
  0
LINE
  8
0
 10
42.3711
 20
13.5547
 11
42.2855
 21
13.7227
  0
LINE
  8
0
 10
42.2855
 20
13.7227
 11
42.2107
 21
13.8956
  0
LINE
  8
0
 10
42.2107
 20
13.8956
 11
42.1468
 21
14.0729
  0
LINE
  8
0
 10
42.1468
 20
14.0729
 11
42.0942
 21
14.2539
  0
LINE
  8
0
 10
42.0942
 20
14.2539
 11
42.0531
 21
14.4379
  0
LINE
  8
0
 10
42.0531
 20
14.4379
 11
42.0237
 21
14.624
  0
LINE
  8
0
 10
42.0237
 20
14.624
 11
42.0059
 21
14.8116
  0
LINE
  8
0
 10
42.0059
 20
14.8116
 11
42
 21
15
  0
LINE
  8
0
 10
42
 20
15
 11
42.0059
 21
15.1884
  0
LINE
  8
0
 10
42.0059
 20
15.1884
 11
42.0237
 21
15.376
  0
LINE
  8
0
 10
42.0237
 20
15.376
 11
42.0531
 21
15.5621
  0
LINE
  8
0
 10
42.0531
 20
15.5621
 11
42.0942
 21
15.7461
  0
LINE
  8
0
 10
42.0942
 20
15.7461
 11
42.1468
 21
15.927
  0
LINE
  8
0
 10
42.1468
 20
15.927
 11
42.2107
 21
16.1044
  0
LINE
  8
0
 10
42.2107
 20
16.1044
 11
42.2855
 21
16.2773
  0
LINE
  8
0
 10
42.2855
 20
16.2773
 11
42.3711
 21
16.4453
  0
LINE
  8
0
 10
42.3711
 20
16.4453
 11
42.467
 21
16.6075
  0
LINE
  8
0
 10
42.467
 20
16.6075
 11
42.5729
 21
16.7634
  0
LINE
  8
0
 10
42.5729
 20
16.7634
 11
42.6884
 21
16.9123
  0
LINE
  8
0
 10
42.6884
 20
16.9123
 11
42.8131
 21
17.0536
  0
LINE
  8
0
 10
42.8131
 20
17.0536
 11
42.9464
 21
17.1869
  0
LINE
  8
0
 10
42.9464
 20
17.1869
 11
43.0877
 21
17.3115
  0
LINE
  8
0
 10
43.0877
 20
17.3115
 11
43.2366
 21
17.427
  0
LINE
  8
0
 10
43.2366
 20
17.427
 11
43.3925
 21
17.533
  0
LINE
  8
0
 10
43.3925
 20
17.533
 11
43.5547
 21
17.6289
  0
LINE
  8
0
 10
43.5547
 20
17.6289
 11
43.7227
 21
17.7145
  0
LINE
  8
0
 10
43.7227
 20
17.7145
 11
43.8956
 21
17.7893
  0
LINE
  8
0
 10
43.8956
 20
17.7893
 11
44.0729
 21
17.8532
  0
LINE
  8
0
 10
44.0729
 20
17.8532
 11
44.2539
 21
17.9057
  0
LINE
  8
0
 10
44.2539
 20
17.9057
 11
44.4379
 21
17.9469
  0
LINE
  8
0
 10
44.4379
 20
17.9469
 11
44.624
 21
17.9763
  0
LINE
  8
0
 10
44.624
 20
17.9763
 11
44.8116
 21
17.9941
  0
LINE
  8
0
 10
44.8116
 20
17.9941
 11
45
 21
18
  0
LINE
  8
0
 10
45
 20
18
 11
45.1884
 21
17.9941
  0
LINE
  8
0
 10
45.1884
 20
17.9941
 11
45.376
 21
17.9763
  0
LINE
  8
0
 10
45.376
 20
17.9763
 11
45.5621
 21
17.9469
  0
LINE
  8
0
 10
45.5621
 20
17.9469
 11
45.7461
 21
17.9057
  0
LINE
  8
0
 10
45.7461
 20
17.9057
 11
45.927
 21
17.8532
  0
LINE
  8
0
 10
45.927
 20
17.8532
 11
46.1044
 21
17.7893
  0
LINE
  8
0
 10
46.1044
 20
17.7893
 11
46.2773
 21
17.7145
  0
LINE
  8
0
 10
46.2773
 20
17.7145
 11
46.4453
 21
17.6289
  0
LINE
  8
0
 10
46.4453
 20
17.6289
 11
46.6075
 21
17.533
  0
LINE
  8
0
 10
46.6075
 20
17.533
 11
46.7634
 21
17.427
  0
LINE
  8
0
 10
46.7634
 20
17.427
 11
46.9123
 21
17.3115
  0
LINE
  8
0
 10
46.9123
 20
17.3115
 11
47.0536
 21
17.1869
  0
LINE
  8
0
 10
47.0536
 20
17.1869
 11
47.1869
 21
17.0536
  0
LINE
  8
0
 10
47.1869
 20
17.0536
 11
47.3115
 21
16.9123
  0
LINE
  8
0
 10
47.3115
 20
16.9123
 11
47.427
 21
16.7634
  0
LINE
  8
0
 10
47.427
 20
16.7634
 11
47.533
 21
16.6075
  0
LINE
  8
0
 10
47.533
 20
16.6075
 11
47.6289
 21
16.4453
  0
LINE
  8
0
 10
47.6289
 20
16.4453
 11
47.7145
 21
16.2773
  0
LINE
  8
0
 10
47.7145
 20
16.2773
 11
47.7893
 21
16.1044
  0
LINE
  8
0
 10
47.7893
 20
16.1044
 11
47.8532
 21
15.927
  0
LINE
  8
0
 10
47.8532
 20
15.927
 11
47.9057
 21
15.7461
  0
LINE
  8
0
 10
47.9057
 20
15.7461
 11
47.9469
 21
15.5621
  0
LINE
  8
0
 10
47.9469
 20
15.5621
 11
47.9763
 21
15.376
  0
LINE
  8
0
 10
47.9763
 20
15.376
 11
47.9941
 21
15.1884
  0
LINE
  8
0
 10
47.9941
 20
15.1884
 11
48
 21
15
  0
LINE
  8
0
 10
48
 20
15
 11
47.9941
 21
14.8116
  0
LINE
  8
0
 10
47.9941
 20
14.8116
 11
47.9763
 21
14.624
  0
LINE
  8
0
 10
47.9763
 20
14.624
 11
47.9469
 21
14.4379
  0
LINE
  8
0
 10
47.9469
 20
14.4379
 11
47.9057
 21
14.2539
  0
LINE
  8
0
 10
47.9057
 20
14.2539
 11
47.8532
 21
14.0729
  0
LINE
  8
0
 10
47.8532
 20
14.0729
 11
47.7893
 21
13.8956
  0
LINE
  8
0
 10
47.7893
 20
13.8956
 11
47.7145
 21
13.7227
  0
LINE
  8
0
 10
47.7145
 20
13.7227
 11
47.6289
 21
13.5547
  0
LINE
  8
0
 10
47.6289
 20
13.5547
 11
47.533
 21
13.3925
  0
LINE
  8
0
 10
47.533
 20
13.3925
 11
47.427
 21
13.2366
  0
LINE
  8
0
 10
47.427
 20
13.2366
 11
47.3115
 21
13.0877
  0
LINE
  8
0
 10
47.3115
 20
13.0877
 11
47.1869
 21
12.9464
  0
LINE
  8
0
 10
47.1869
 20
12.9464
 11
47.0536
 21
12.8131
  0
LINE
  8
0
 10
47.0536
 20
12.8131
 11
46.9123
 21
12.6884
  0
LINE
  8
0
 10
46.9123
 20
12.6884
 11
46.7634
 21
12.5729
  0
LINE
  8
0
 10
46.7634
 20
12.5729
 11
46.6075
 21
12.467
  0
LINE
  8
0
 10
46.6075
 20
12.467
 11
46.4453
 21
12.3711
  0
LINE
  8
0
 10
46.4453
 20
12.3711
 11
46.2773
 21
12.2855
  0
LINE
  8
0
 10
46.2773
 20
12.2855
 11
46.1044
 21
12.2107
  0
LINE
  8
0
 10
46.1044
 20
12.2107
 11
45.927
 21
12.1468
  0
LINE
  8
0
 10
45.927
 20
12.1468
 11
45.7461
 21
12.0942
  0
LINE
  8
0
 10
45.7461
 20
12.0942
 11
45.5621
 21
12.0531
  0
LINE
  8
0
 10
45.5621
 20
12.0531
 11
45.376
 21
12.0237
  0
LINE
  8
0
 10
45.376
 20
12.0237
 11
45.1884
 21
12.0059
  0
LINE
  8
0
 10
45.1884
 20
12.0059
 11
45
 21
12
  0
LINE
  8
0
 10
45
 20
12
 11
44.8116
 21
12.0059
  0
LINE
  8
0
 10
59.8116
 20
12.0059
 11
59.624
 21
12.0237
  0
LINE
  8
0
 10
59.624
 20
12.0237
 11
59.4379
 21
12.0531
  0
LINE
  8
0
 10
59.4379
 20
12.0531
 11
59.2539
 21
12.0942
  0
LINE
  8
0
 10
59.2539
 20
12.0942
 11
59.0729
 21
12.1468
  0
LINE
  8
0
 10
59.0729
 20
12.1468
 11
58.8956
 21
12.2107
  0
LINE
  8
0
 10
58.8956
 20
12.2107
 11
58.7227
 21
12.2855
  0
LINE
  8
0
 10
58.7227
 20
12.2855
 11
58.5547
 21
12.3711
  0
LINE
  8
0
 10
58.5547
 20
12.3711
 11
58.3925
 21
12.467
  0
LINE
  8
0
 10
58.3925
 20
12.467
 11
58.2366
 21
12.5729
  0
LINE
  8
0
 10
58.2366
 20
12.5729
 11
58.0877
 21
12.6884
  0
LINE
  8
0
 10
58.0877
 20
12.6884
 11
57.9464
 21
12.8131
  0
LINE
  8
0
 10
57.9464
 20
12.8131
 11
57.8131
 21
12.9464
  0
LINE
  8
0
 10
57.8131
 20
12.9464
 11
57.6884
 21
13.0877
  0
LINE
  8
0
 10
57.6884
 20
13.0877
 11
57.5729
 21
13.2366
  0
LINE
  8
0
 10
57.5729
 20
13.2366
 11
57.467
 21
13.3925
  0
LINE
  8
0
 10
57.467
 20
13.3925
 11
57.3711
 21
13.5547
  0
LINE
  8
0
 10
57.3711
 20
13.5547
 11
57.2855
 21
13.7227
  0
LINE
  8
0
 10
57.2855
 20
13.7227
 11
57.2107
 21
13.8956
  0
LINE
  8
0
 10
57.2107
 20
13.8956
 11
57.1468
 21
14.0729
  0
LINE
  8
0
 10
57.1468
 20
14.0729
 11
57.0942
 21
14.2539
  0
LINE
  8
0
 10
57.0942
 20
14.2539
 11
57.0531
 21
14.4379
  0
LINE
  8
0
 10
57.0531
 20
14.4379
 11
57.0237
 21
14.624
  0
LINE
  8
0
 10
57.0237
 20
14.624
 11
57.0059
 21
14.8116
  0
LINE
  8
0
 10
57.0059
 20
14.8116
 11
57
 21
15
  0
LINE
  8
0
 10
57
 20
15
 11
57.0059
 21
15.1884
  0
LINE
  8
0
 10
57.0059
 20
15.1884
 11
57.0237
 21
15.376
  0
LINE
  8
0
 10
57.0237
 20
15.376
 11
57.0531
 21
15.5621
  0
LINE
  8
0
 10
57.0531
 20
15.5621
 11
57.0942
 21
15.7461
  0
LINE
  8
0
 10
57.0942
 20
15.7461
 11
57.1468
 21
15.927
  0
LINE
  8
0
 10
57.1468
 20
15.927
 11
57.2107
 21
16.1044
  0
LINE
  8
0
 10
57.2107
 20
16.1044
 11
57.2855
 21
16.2773
  0
LINE
  8
0
 10
57.2855
 20
16.2773
 11
57.3711
 21
16.4453
  0
LINE
  8
0
 10
57.3711
 20
16.4453
 11
57.467
 21
16.6075
  0
LINE
  8
0
 10
57.467
 20
16.6075
 11
57.5729
 21
16.7634
  0
LINE
  8
0
 10
57.5729
 20
16.7634
 11
57.6884
 21
16.9123
  0
LINE
  8
0
 10
57.6884
 20
16.9123
 11
57.8131
 21
17.0536
  0
LINE
  8
0
 10
57.8131
 20
17.0536
 11
57.9464
 21
17.1869
  0
LINE
  8
0
 10
57.9464
 20
17.1869
 11
58.0877
 21
17.3115
  0
LINE
  8
0
 10
58.0877
 20
17.3115
 11
58.2366
 21
17.427
  0
LINE
  8
0
 10
58.2366
 20
17.427
 11
58.3925
 21
17.533
  0
LINE
  8
0
 10
58.3925
 20
17.533
 11
58.5547
 21
17.6289
  0
LINE
  8
0
 10
58.5547
 20
17.6289
 11
58.7227
 21
17.7145
  0
LINE
  8
0
 10
58.7227
 20
17.7145
 11
58.8956
 21
17.7893
  0
LINE
  8
0
 10
58.8956
 20
17.7893
 11
59.0729
 21
17.8532
  0
LINE
  8
0
 10
59.0729
 20
17.8532
 11
59.2539
 21
17.9057
  0
LINE
  8
0
 10
59.2539
 20
17.9057
 11
59.4379
 21
17.9469
  0
LINE
  8
0
 10
59.4379
 20
17.9469
 11
59.624
 21
17.9763
  0
LINE
  8
0
 10
59.624
 20
17.9763
 11
59.8116
 21
17.9941
  0
LINE
  8
0
 10
59.8116
 20
17.9941
 11
60
 21
18
  0
LINE
  8
0
 10
60
 20
18
 11
60.1884
 21
17.9941
  0
LINE
  8
0
 10
60.1884
 20
17.9941
 11
60.376
 21
17.9763
  0
LINE
  8
0
 10
60.376
 20
17.9763
 11
60.5621
 21
17.9469
  0
LINE
  8
0
 10
60.5621
 20
17.9469
 11
60.7461
 21
17.9057
  0
LINE
  8
0
 10
60.7461
 20
17.9057
 11
60.927
 21
17.8532
  0
LINE
  8
0
 10
60.927
 20
17.8532
 11
61.1044
 21
17.7893
  0
LINE
  8
0
 10
61.1044
 20
17.7893
 11
61.2773
 21
17.7145
  0
LINE
  8
0
 10
61.2773
 20
17.7145
 11
61.4453
 21
17.6289
  0
LINE
  8
0
 10
61.4453
 20
17.6289
 11
61.6075
 21
17.533
  0
LINE
  8
0
 10
61.6075
 20
17.533
 11
61.7634
 21
17.427
  0
LINE
  8
0
 10
61.7634
 20
17.427
 11
61.9123
 21
17.3115
  0
LINE
  8
0
 10
61.9123
 20
17.3115
 11
62.0536
 21
17.1869
  0
LINE
  8
0
 10
62.0536
 20
17.1869
 11
62.1869
 21
17.0536
  0
LINE
  8
0
 10
62.1869
 20
17.0536
 11
62.3115
 21
16.9123
  0
LINE
  8
0
 10
62.3115
 20
16.9123
 11
62.427
 21
16.7634
  0
LINE
  8
0
 10
62.427
 20
16.7634
 11
62.533
 21
16.6075
  0
LINE
  8
0
 10
62.533
 20
16.6075
 11
62.6289
 21
16.4453
  0
LINE
  8
0
 10
62.6289
 20
16.4453
 11
62.7145
 21
16.2773
  0
LINE
  8
0
 10
62.7145
 20
16.2773
 11
62.7893
 21
16.1044
  0
LINE
  8
0
 10
62.7893
 20
16.1044
 11
62.8532
 21
15.927
  0
LINE
  8
0
 10
62.8532
 20
15.927
 11
62.9057
 21
15.7461
  0
LINE
  8
0
 10
62.9057
 20
15.7461
 11
62.9469
 21
15.5621
  0
LINE
  8
0
 10
62.9469
 20
15.5621
 11
62.9763
 21
15.376
  0
LINE
  8
0
 10
62.9763
 20
15.376
 11
62.9941
 21
15.1884
  0
LINE
  8
0
 10
62.9941
 20
15.1884
 11
63
 21
15
  0
LINE
  8
0
 10
63
 20
15
 11
62.9941
 21
14.8116
  0
LINE
  8
0
 10
62.9941
 20
14.8116
 11
62.9763
 21
14.624
  0
LINE
  8
0
 10
62.9763
 20
14.624
 11
62.9469
 21
14.4379
  0
LINE
  8
0
 10
62.9469
 20
14.4379
 11
62.9057
 21
14.2539
  0
LINE
  8
0
 10
62.9057
 20
14.2539
 11
62.8532
 21
14.0729
  0
LINE
  8
0
 10
62.8532
 20
14.0729
 11
62.7893
 21
13.8956
  0
LINE
  8
0
 10
62.7893
 20
13.8956
 11
62.7145
 21
13.7227
  0
LINE
  8
0
 10
62.7145
 20
13.7227
 11
62.6289
 21
13.5547
  0
LINE
  8
0
 10
62.6289
 20
13.5547
 11
62.533
 21
13.3925
  0
LINE
  8
0
 10
62.533
 20
13.3925
 11
62.427
 21
13.2366
  0
LINE
  8
0
 10
62.427
 20
13.2366
 11
62.3115
 21
13.0877
  0
LINE
  8
0
 10
62.3115
 20
13.0877
 11
62.1869
 21
12.9464
  0
LINE
  8
0
 10
62.1869
 20
12.9464
 11
62.0536
 21
12.8131
  0
LINE
  8
0
 10
62.0536
 20
12.8131
 11
61.9123
 21
12.6884
  0
LINE
  8
0
 10
61.9123
 20
12.6884
 11
61.7634
 21
12.5729
  0
LINE
  8
0
 10
61.7634
 20
12.5729
 11
61.6075
 21
12.467
  0
LINE
  8
0
 10
61.6075
 20
12.467
 11
61.4453
 21
12.3711
  0
LINE
  8
0
 10
61.4453
 20
12.3711
 11
61.2773
 21
12.2855
  0
LINE
  8
0
 10
61.2773
 20
12.2855
 11
61.1044
 21
12.2107
  0
LINE
  8
0
 10
61.1044
 20
12.2107
 11
60.927
 21
12.1468
  0
LINE
  8
0
 10
60.927
 20
12.1468
 11
60.7461
 21
12.0942
  0
LINE
  8
0
 10
60.7461
 20
12.0942
 11
60.5621
 21
12.0531
  0
LINE
  8
0
 10
60.5621
 20
12.0531
 11
60.376
 21
12.0237
  0
LINE
  8
0
 10
60.376
 20
12.0237
 11
60.1884
 21
12.0059
  0
LINE
  8
0
 10
60.1884
 20
12.0059
 11
60
 21
12
  0
LINE
  8
0
 10
60
 20
12
 11
59.8116
 21
12.0059
  0
LINE
  8
0
 10
89.8116
 20
12.0059
 11
89.624
 21
12.0237
  0
LINE
  8
0
 10
89.624
 20
12.0237
 11
89.4379
 21
12.0531
  0
LINE
  8
0
 10
89.4379
 20
12.0531
 11
89.2539
 21
12.0942
  0
LINE
  8
0
 10
89.2539
 20
12.0942
 11
89.0729
 21
12.1468
  0
LINE
  8
0
 10
89.0729
 20
12.1468
 11
88.8956
 21
12.2107
  0
LINE
  8
0
 10
88.8956
 20
12.2107
 11
88.7227
 21
12.2855
  0
LINE
  8
0
 10
88.7227
 20
12.2855
 11
88.5547
 21
12.3711
  0
LINE
  8
0
 10
88.5547
 20
12.3711
 11
88.3925
 21
12.467
  0
LINE
  8
0
 10
88.3925
 20
12.467
 11
88.2366
 21
12.5729
  0
LINE
  8
0
 10
88.2366
 20
12.5729
 11
88.0877
 21
12.6884
  0
LINE
  8
0
 10
88.0877
 20
12.6884
 11
87.9464
 21
12.8131
  0
LINE
  8
0
 10
87.9464
 20
12.8131
 11
87.8131
 21
12.9464
  0
LINE
  8
0
 10
87.8131
 20
12.9464
 11
87.6884
 21
13.0877
  0
LINE
  8
0
 10
87.6884
 20
13.0877
 11
87.5729
 21
13.2366
  0
LINE
  8
0
 10
87.5729
 20
13.2366
 11
87.467
 21
13.3925
  0
LINE
  8
0
 10
87.467
 20
13.3925
 11
87.3711
 21
13.5547
  0
LINE
  8
0
 10
87.3711
 20
13.5547
 11
87.2855
 21
13.7227
  0
LINE
  8
0
 10
87.2855
 20
13.7227
 11
87.2107
 21
13.8956
  0
LINE
  8
0
 10
87.2107
 20
13.8956
 11
87.1468
 21
14.0729
  0
LINE
  8
0
 10
87.1468
 20
14.0729
 11
87.0942
 21
14.2539
  0
LINE
  8
0
 10
87.0942
 20
14.2539
 11
87.0531
 21
14.4379
  0
LINE
  8
0
 10
87.0531
 20
14.4379
 11
87.0237
 21
14.624
  0
LINE
  8
0
 10
87.0237
 20
14.624
 11
87.0059
 21
14.8116
  0
LINE
  8
0
 10
87.0059
 20
14.8116
 11
87
 21
15
  0
LINE
  8
0
 10
87
 20
15
 11
87.0059
 21
15.1884
  0
LINE
  8
0
 10
87.0059
 20
15.1884
 11
87.0237
 21
15.376
  0
LINE
  8
0
 10
87.0237
 20
15.376
 11
87.0531
 21
15.5621
  0
LINE
  8
0
 10
87.0531
 20
15.5621
 11
87.0942
 21
15.7461
  0
LINE
  8
0
 10
87.0942
 20
15.7461
 11
87.1468
 21
15.927
  0
LINE
  8
0
 10
87.1468
 20
15.927
 11
87.2107
 21
16.1044
  0
LINE
  8
0
 10
87.2107
 20
16.1044
 11
87.2855
 21
16.2773
  0
LINE
  8
0
 10
87.2855
 20
16.2773
 11
87.3711
 21
16.4453
  0
LINE
  8
0
 10
87.3711
 20
16.4453
 11
87.467
 21
16.6075
  0
LINE
  8
0
 10
87.467
 20
16.6075
 11
87.5729
 21
16.7634
  0
LINE
  8
0
 10
87.5729
 20
16.7634
 11
87.6884
 21
16.9123
  0
LINE
  8
0
 10
87.6884
 20
16.9123
 11
87.8131
 21
17.0536
  0
LINE
  8
0
 10
87.8131
 20
17.0536
 11
87.9464
 21
17.1869
  0
LINE
  8
0
 10
87.9464
 20
17.1869
 11
88.0877
 21
17.3115
  0
LINE
  8
0
 10
88.0877
 20
17.3115
 11
88.2366
 21
17.427
  0
LINE
  8
0
 10
88.2366
 20
17.427
 11
88.3925
 21
17.533
  0
LINE
  8
0
 10
88.3925
 20
17.533
 11
88.5547
 21
17.6289
  0
LINE
  8
0
 10
88.5547
 20
17.6289
 11
88.7227
 21
17.7145
  0
LINE
  8
0
 10
88.7227
 20
17.7145
 11
88.8956
 21
17.7893
  0
LINE
  8
0
 10
88.8956
 20
17.7893
 11
89.0729
 21
17.8532
  0
LINE
  8
0
 10
89.0729
 20
17.8532
 11
89.2539
 21
17.9057
  0
LINE
  8
0
 10
89.2539
 20
17.9057
 11
89.4379
 21
17.9469
  0
LINE
  8
0
 10
89.4379
 20
17.9469
 11
89.624
 21
17.9763
  0
LINE
  8
0
 10
89.624
 20
17.9763
 11
89.8116
 21
17.9941
  0
LINE
  8
0
 10
89.8116
 20
17.9941
 11
90
 21
18
  0
LINE
  8
0
 10
90
 20
18
 11
90.1884
 21
17.9941
  0
LINE
  8
0
 10
90.1884
 20
17.9941
 11
90.376
 21
17.9763
  0
LINE
  8
0
 10
90.376
 20
17.9763
 11
90.5621
 21
17.9469
  0
LINE
  8
0
 10
90.5621
 20
17.9469
 11
90.7461
 21
17.9057
  0
LINE
  8
0
 10
90.7461
 20
17.9057
 11
90.927
 21
17.8532
  0
LINE
  8
0
 10
90.927
 20
17.8532
 11
91.1044
 21
17.7893
  0
LINE
  8
0
 10
91.1044
 20
17.7893
 11
91.2773
 21
17.7145
  0
LINE
  8
0
 10
91.2773
 20
17.7145
 11
91.4453
 21
17.6289
  0
LINE
  8
0
 10
91.4453
 20
17.6289
 11
91.6075
 21
17.533
  0
LINE
  8
0
 10
91.6075
 20
17.533
 11
91.7634
 21
17.427
  0
LINE
  8
0
 10
91.7634
 20
17.427
 11
91.9123
 21
17.3115
  0
LINE
  8
0
 10
91.9123
 20
17.3115
 11
92.0536
 21
17.1869
  0
LINE
  8
0
 10
92.0536
 20
17.1869
 11
92.1869
 21
17.0536
  0
LINE
  8
0
 10
92.1869
 20
17.0536
 11
92.3115
 21
16.9123
  0
LINE
  8
0
 10
92.3115
 20
16.9123
 11
92.427
 21
16.7634
  0
LINE
  8
0
 10
92.427
 20
16.7634
 11
92.533
 21
16.6075
  0
LINE
  8
0
 10
92.533
 20
16.6075
 11
92.6289
 21
16.4453
  0
LINE
  8
0
 10
92.6289
 20
16.4453
 11
92.7145
 21
16.2773
  0
LINE
  8
0
 10
92.7145
 20
16.2773
 11
92.7893
 21
16.1044
  0
LINE
  8
0
 10
92.7893
 20
16.1044
 11
92.8532
 21
15.927
  0
LINE
  8
0
 10
92.8532
 20
15.927
 11
92.9057
 21
15.7461
  0
LINE
  8
0
 10
92.9057
 20
15.7461
 11
92.9469
 21
15.5621
  0
LINE
  8
0
 10
92.9469
 20
15.5621
 11
92.9763
 21
15.376
  0
LINE
  8
0
 10
92.9763
 20
15.376
 11
92.9941
 21
15.1884
  0
LINE
  8
0
 10
92.9941
 20
15.1884
 11
93
 21
15
  0
LINE
  8
0
 10
93
 20
15
 11
92.9941
 21
14.8116
  0
LINE
  8
0
 10
92.9941
 20
14.8116
 11
92.9763
 21
14.624
  0
LINE
  8
0
 10
92.9763
 20
14.624
 11
92.9469
 21
14.4379
  0
LINE
  8
0
 10
92.9469
 20
14.4379
 11
92.9057
 21
14.2539
  0
LINE
  8
0
 10
92.9057
 20
14.2539
 11
92.8532
 21
14.0729
  0
LINE
  8
0
 10
92.8532
 20
14.0729
 11
92.7893
 21
13.8956
  0
LINE
  8
0
 10
92.7893
 20
13.8956
 11
92.7145
 21
13.7227
  0
LINE
  8
0
 10
92.7145
 20
13.7227
 11
92.6289
 21
13.5547
  0
LINE
  8
0
 10
92.6289
 20
13.5547
 11
92.533
 21
13.3925
  0
LINE
  8
0
 10
92.533
 20
13.3925
 11
92.427
 21
13.2366
  0
LINE
  8
0
 10
92.427
 20
13.2366
 11
92.3115
 21
13.0877
  0
LINE
  8
0
 10
92.3115
 20
13.0877
 11
92.1869
 21
12.9464
  0
LINE
  8
0
 10
92.1869
 20
12.9464
 11
92.0536
 21
12.8131
  0
LINE
  8
0
 10
92.0536
 20
12.8131
 11
91.9123
 21
12.6884
  0
LINE
  8
0
 10
91.9123
 20
12.6884
 11
91.7634
 21
12.5729
  0
LINE
  8
0
 10
91.7634
 20
12.5729
 11
91.6075
 21
12.467
  0
LINE
  8
0
 10
91.6075
 20
12.467
 11
91.4453
 21
12.3711
  0
LINE
  8
0
 10
91.4453
 20
12.3711
 11
91.2773
 21
12.2855
  0
LINE
  8
0
 10
91.2773
 20
12.2855
 11
91.1044
 21
12.2107
  0
LINE
  8
0
 10
91.1044
 20
12.2107
 11
90.927
 21
12.1468
  0
LINE
  8
0
 10
90.927
 20
12.1468
 11
90.7461
 21
12.0942
  0
LINE
  8
0
 10
90.7461
 20
12.0942
 11
90.5621
 21
12.0531
  0
LINE
  8
0
 10
90.5621
 20
12.0531
 11
90.376
 21
12.0237
  0
LINE
  8
0
 10
90.376
 20
12.0237
 11
90.1884
 21
12.0059
  0
LINE
  8
0
 10
90.1884
 20
12.0059
 11
90
 21
12
  0
LINE
  8
0
 10
90
 20
12
 11
89.8116
 21
12.0059
  0
LINE
  8
0
 10
104.812
 20
12.0059
 11
104.624
 21
12.0237
  0
LINE
  8
0
 10
104.624
 20
12.0237
 11
104.438
 21
12.0531
  0
LINE
  8
0
 10
104.438
 20
12.0531
 11
104.254
 21
12.0942
  0
LINE
  8
0
 10
104.254
 20
12.0942
 11
104.073
 21
12.1468
  0
LINE
  8
0
 10
104.073
 20
12.1468
 11
103.896
 21
12.2107
  0
LINE
  8
0
 10
103.896
 20
12.2107
 11
103.723
 21
12.2855
  0
LINE
  8
0
 10
103.723
 20
12.2855
 11
103.555
 21
12.3711
  0
LINE
  8
0
 10
103.555
 20
12.3711
 11
103.393
 21
12.467
  0
LINE
  8
0
 10
103.393
 20
12.467
 11
103.237
 21
12.5729
  0
LINE
  8
0
 10
103.237
 20
12.5729
 11
103.088
 21
12.6884
  0
LINE
  8
0
 10
103.088
 20
12.6884
 11
102.946
 21
12.8131
  0
LINE
  8
0
 10
102.946
 20
12.8131
 11
102.813
 21
12.9464
  0
LINE
  8
0
 10
102.813
 20
12.9464
 11
102.688
 21
13.0877
  0
LINE
  8
0
 10
102.688
 20
13.0877
 11
102.573
 21
13.2366
  0
LINE
  8
0
 10
102.573
 20
13.2366
 11
102.467
 21
13.3925
  0
LINE
  8
0
 10
102.467
 20
13.3925
 11
102.371
 21
13.5547
  0
LINE
  8
0
 10
102.371
 20
13.5547
 11
102.286
 21
13.7227
  0
LINE
  8
0
 10
102.286
 20
13.7227
 11
102.211
 21
13.8956
  0
LINE
  8
0
 10
102.211
 20
13.8956
 11
102.147
 21
14.0729
  0
LINE
  8
0
 10
102.147
 20
14.0729
 11
102.094
 21
14.2539
  0
LINE
  8
0
 10
102.094
 20
14.2539
 11
102.053
 21
14.4379
  0
LINE
  8
0
 10
102.053
 20
14.4379
 11
102.024
 21
14.624
  0
LINE
  8
0
 10
102.024
 20
14.624
 11
102.006
 21
14.8116
  0
LINE
  8
0
 10
102.006
 20
14.8116
 11
102
 21
15
  0
LINE
  8
0
 10
102
 20
15
 11
102.006
 21
15.1884
  0
LINE
  8
0
 10
102.006
 20
15.1884
 11
102.024
 21
15.376
  0
LINE
  8
0
 10
102.024
 20
15.376
 11
102.053
 21
15.5621
  0
LINE
  8
0
 10
102.053
 20
15.5621
 11
102.094
 21
15.7461
  0
LINE
  8
0
 10
102.094
 20
15.7461
 11
102.147
 21
15.927
  0
LINE
  8
0
 10
102.147
 20
15.927
 11
102.211
 21
16.1044
  0
LINE
  8
0
 10
102.211
 20
16.1044
 11
102.286
 21
16.2773
  0
LINE
  8
0
 10
102.286
 20
16.2773
 11
102.371
 21
16.4453
  0
LINE
  8
0
 10
102.371
 20
16.4453
 11
102.467
 21
16.6075
  0
LINE
  8
0
 10
102.467
 20
16.6075
 11
102.573
 21
16.7634
  0
LINE
  8
0
 10
102.573
 20
16.7634
 11
102.688
 21
16.9123
  0
LINE
  8
0
 10
102.688
 20
16.9123
 11
102.813
 21
17.0536
  0
LINE
  8
0
 10
102.813
 20
17.0536
 11
102.946
 21
17.1869
  0
LINE
  8
0
 10
102.946
 20
17.1869
 11
103.088
 21
17.3115
  0
LINE
  8
0
 10
103.088
 20
17.3115
 11
103.237
 21
17.427
  0
LINE
  8
0
 10
103.237
 20
17.427
 11
103.393
 21
17.533
  0
LINE
  8
0
 10
103.393
 20
17.533
 11
103.555
 21
17.6289
  0
LINE
  8
0
 10
103.555
 20
17.6289
 11
103.723
 21
17.7145
  0
LINE
  8
0
 10
103.723
 20
17.7145
 11
103.896
 21
17.7893
  0
LINE
  8
0
 10
103.896
 20
17.7893
 11
104.073
 21
17.8532
  0
LINE
  8
0
 10
104.073
 20
17.8532
 11
104.254
 21
17.9057
  0
LINE
  8
0
 10
104.254
 20
17.9057
 11
104.438
 21
17.9469
  0
LINE
  8
0
 10
104.438
 20
17.9469
 11
104.624
 21
17.9763
  0
LINE
  8
0
 10
104.624
 20
17.9763
 11
104.812
 21
17.9941
  0
LINE
  8
0
 10
104.812
 20
17.9941
 11
105
 21
18
  0
LINE
  8
0
 10
105
 20
18
 11
105.188
 21
17.9941
  0
LINE
  8
0
 10
105.188
 20
17.9941
 11
105.376
 21
17.9763
  0
LINE
  8
0
 10
105.376
 20
17.9763
 11
105.562
 21
17.9469
  0
LINE
  8
0
 10
105.562
 20
17.9469
 11
105.746
 21
17.9057
  0
LINE
  8
0
 10
105.746
 20
17.9057
 11
105.927
 21
17.8532
  0
LINE
  8
0
 10
105.927
 20
17.8532
 11
106.104
 21
17.7893
  0
LINE
  8
0
 10
106.104
 20
17.7893
 11
106.277
 21
17.7145
  0
LINE
  8
0
 10
106.277
 20
17.7145
 11
106.445
 21
17.6289
  0
LINE
  8
0
 10
106.445
 20
17.6289
 11
106.607
 21
17.533
  0
LINE
  8
0
 10
106.607
 20
17.533
 11
106.763
 21
17.427
  0
LINE
  8
0
 10
106.763
 20
17.427
 11
106.912
 21
17.3115
  0
LINE
  8
0
 10
106.912
 20
17.3115
 11
107.054
 21
17.1869
  0
LINE
  8
0
 10
107.054
 20
17.1869
 11
107.187
 21
17.0536
  0
LINE
  8
0
 10
107.187
 20
17.0536
 11
107.312
 21
16.9123
  0
LINE
  8
0
 10
107.312
 20
16.9123
 11
107.427
 21
16.7634
  0
LINE
  8
0
 10
107.427
 20
16.7634
 11
107.533
 21
16.6075
  0
LINE
  8
0
 10
107.533
 20
16.6075
 11
107.629
 21
16.4453
  0
LINE
  8
0
 10
107.629
 20
16.4453
 11
107.714
 21
16.2773
  0
LINE
  8
0
 10
107.714
 20
16.2773
 11
107.789
 21
16.1044
  0
LINE
  8
0
 10
107.789
 20
16.1044
 11
107.853
 21
15.927
  0
LINE
  8
0
 10
107.853
 20
15.927
 11
107.906
 21
15.7461
  0
LINE
  8
0
 10
107.906
 20
15.7461
 11
107.947
 21
15.5621
  0
LINE
  8
0
 10
107.947
 20
15.5621
 11
107.976
 21
15.376
  0
LINE
  8
0
 10
107.976
 20
15.376
 11
107.994
 21
15.1884
  0
LINE
  8
0
 10
107.994
 20
15.1884
 11
108
 21
15
  0
LINE
  8
0
 10
108
 20
15
 11
107.994
 21
14.8116
  0
LINE
  8
0
 10
107.994
 20
14.8116
 11
107.976
 21
14.624
  0
LINE
  8
0
 10
107.976
 20
14.624
 11
107.947
 21
14.4379
  0
LINE
  8
0
 10
107.947
 20
14.4379
 11
107.906
 21
14.2539
  0
LINE
  8
0
 10
107.906
 20
14.2539
 11
107.853
 21
14.0729
  0
LINE
  8
0
 10
107.853
 20
14.0729
 11
107.789
 21
13.8956
  0
LINE
  8
0
 10
107.789
 20
13.8956
 11
107.714
 21
13.7227
  0
LINE
  8
0
 10
107.714
 20
13.7227
 11
107.629
 21
13.5547
  0
LINE
  8
0
 10
107.629
 20
13.5547
 11
107.533
 21
13.3925
  0
LINE
  8
0
 10
107.533
 20
13.3925
 11
107.427
 21
13.2366
  0
LINE
  8
0
 10
107.427
 20
13.2366
 11
107.312
 21
13.0877
  0
LINE
  8
0
 10
107.312
 20
13.0877
 11
107.187
 21
12.9464
  0
LINE
  8
0
 10
107.187
 20
12.9464
 11
107.054
 21
12.8131
  0
LINE
  8
0
 10
107.054
 20
12.8131
 11
106.912
 21
12.6884
  0
LINE
  8
0
 10
106.912
 20
12.6884
 11
106.763
 21
12.5729
  0
LINE
  8
0
 10
106.763
 20
12.5729
 11
106.607
 21
12.467
  0
LINE
  8
0
 10
106.607
 20
12.467
 11
106.445
 21
12.3711
  0
LINE
  8
0
 10
106.445
 20
12.3711
 11
106.277
 21
12.2855
  0
LINE
  8
0
 10
106.277
 20
12.2855
 11
106.104
 21
12.2107
  0
LINE
  8
0
 10
106.104
 20
12.2107
 11
105.927
 21
12.1468
  0
LINE
  8
0
 10
105.927
 20
12.1468
 11
105.746
 21
12.0942
  0
LINE
  8
0
 10
105.746
 20
12.0942
 11
105.562
 21
12.0531
  0
LINE
  8
0
 10
105.562
 20
12.0531
 11
105.376
 21
12.0237
  0
LINE
  8
0
 10
105.376
 20
12.0237
 11
105.188
 21
12.0059
  0
LINE
  8
0
 10
105.188
 20
12.0059
 11
105
 21
12
  0
LINE
  8
0
 10
105
 20
12
 11
104.812
 21
12.0059
  0
LINE
  8
0
 10
29.8116
 20
12.0059
 11
29.624
 21
12.0237
  0
LINE
  8
0
 10
29.624
 20
12.0237
 11
29.4379
 21
12.0531
  0
LINE
  8
0
 10
29.4379
 20
12.0531
 11
29.2539
 21
12.0942
  0
LINE
  8
0
 10
29.2539
 20
12.0942
 11
29.0729
 21
12.1468
  0
LINE
  8
0
 10
29.0729
 20
12.1468
 11
28.8956
 21
12.2107
  0
LINE
  8
0
 10
28.8956
 20
12.2107
 11
28.7227
 21
12.2855
  0
LINE
  8
0
 10
28.7227
 20
12.2855
 11
28.5547
 21
12.3711
  0
LINE
  8
0
 10
28.5547
 20
12.3711
 11
28.3925
 21
12.467
  0
LINE
  8
0
 10
28.3925
 20
12.467
 11
28.2366
 21
12.5729
  0
LINE
  8
0
 10
28.2366
 20
12.5729
 11
28.0877
 21
12.6884
  0
LINE
  8
0
 10
28.0877
 20
12.6884
 11
27.9464
 21
12.8131
  0
LINE
  8
0
 10
27.9464
 20
12.8131
 11
27.8131
 21
12.9464
  0
LINE
  8
0
 10
27.8131
 20
12.9464
 11
27.6884
 21
13.0877
  0
LINE
  8
0
 10
27.6884
 20
13.0877
 11
27.5729
 21
13.2366
  0
LINE
  8
0
 10
27.5729
 20
13.2366
 11
27.467
 21
13.3925
  0
LINE
  8
0
 10
27.467
 20
13.3925
 11
27.3711
 21
13.5547
  0
LINE
  8
0
 10
27.3711
 20
13.5547
 11
27.2855
 21
13.7227
  0
LINE
  8
0
 10
27.2855
 20
13.7227
 11
27.2107
 21
13.8956
  0
LINE
  8
0
 10
27.2107
 20
13.8956
 11
27.1468
 21
14.0729
  0
LINE
  8
0
 10
27.1468
 20
14.0729
 11
27.0942
 21
14.2539
  0
LINE
  8
0
 10
27.0942
 20
14.2539
 11
27.0531
 21
14.4379
  0
LINE
  8
0
 10
27.0531
 20
14.4379
 11
27.0237
 21
14.624
  0
LINE
  8
0
 10
27.0237
 20
14.624
 11
27.0059
 21
14.8116
  0
LINE
  8
0
 10
27.0059
 20
14.8116
 11
27
 21
15
  0
LINE
  8
0
 10
27
 20
15
 11
27.0059
 21
15.1884
  0
LINE
  8
0
 10
27.0059
 20
15.1884
 11
27.0237
 21
15.376
  0
LINE
  8
0
 10
27.0237
 20
15.376
 11
27.0531
 21
15.5621
  0
LINE
  8
0
 10
27.0531
 20
15.5621
 11
27.0942
 21
15.7461
  0
LINE
  8
0
 10
27.0942
 20
15.7461
 11
27.1468
 21
15.927
  0
LINE
  8
0
 10
27.1468
 20
15.927
 11
27.2107
 21
16.1044
  0
LINE
  8
0
 10
27.2107
 20
16.1044
 11
27.2855
 21
16.2773
  0
LINE
  8
0
 10
27.2855
 20
16.2773
 11
27.3711
 21
16.4453
  0
LINE
  8
0
 10
27.3711
 20
16.4453
 11
27.467
 21
16.6075
  0
LINE
  8
0
 10
27.467
 20
16.6075
 11
27.5729
 21
16.7634
  0
LINE
  8
0
 10
27.5729
 20
16.7634
 11
27.6884
 21
16.9123
  0
LINE
  8
0
 10
27.6884
 20
16.9123
 11
27.8131
 21
17.0536
  0
LINE
  8
0
 10
27.8131
 20
17.0536
 11
27.9464
 21
17.1869
  0
LINE
  8
0
 10
27.9464
 20
17.1869
 11
28.0877
 21
17.3115
  0
LINE
  8
0
 10
28.0877
 20
17.3115
 11
28.2366
 21
17.427
  0
LINE
  8
0
 10
28.2366
 20
17.427
 11
28.3925
 21
17.533
  0
LINE
  8
0
 10
28.3925
 20
17.533
 11
28.5547
 21
17.6289
  0
LINE
  8
0
 10
28.5547
 20
17.6289
 11
28.7227
 21
17.7145
  0
LINE
  8
0
 10
28.7227
 20
17.7145
 11
28.8956
 21
17.7893
  0
LINE
  8
0
 10
28.8956
 20
17.7893
 11
29.0729
 21
17.8532
  0
LINE
  8
0
 10
29.0729
 20
17.8532
 11
29.2539
 21
17.9057
  0
LINE
  8
0
 10
29.2539
 20
17.9057
 11
29.4379
 21
17.9469
  0
LINE
  8
0
 10
29.4379
 20
17.9469
 11
29.624
 21
17.9763
  0
LINE
  8
0
 10
29.624
 20
17.9763
 11
29.8116
 21
17.9941
  0
LINE
  8
0
 10
29.8116
 20
17.9941
 11
30
 21
18
  0
LINE
  8
0
 10
30
 20
18
 11
30.1884
 21
17.9941
  0
LINE
  8
0
 10
30.1884
 20
17.9941
 11
30.376
 21
17.9763
  0
LINE
  8
0
 10
30.376
 20
17.9763
 11
30.5621
 21
17.9469
  0
LINE
  8
0
 10
30.5621
 20
17.9469
 11
30.7461
 21
17.9057
  0
LINE
  8
0
 10
30.7461
 20
17.9057
 11
30.927
 21
17.8532
  0
LINE
  8
0
 10
30.927
 20
17.8532
 11
31.1044
 21
17.7893
  0
LINE
  8
0
 10
31.1044
 20
17.7893
 11
31.2773
 21
17.7145
  0
LINE
  8
0
 10
31.2773
 20
17.7145
 11
31.4453
 21
17.6289
  0
LINE
  8
0
 10
31.4453
 20
17.6289
 11
31.6075
 21
17.533
  0
LINE
  8
0
 10
31.6075
 20
17.533
 11
31.7634
 21
17.427
  0
LINE
  8
0
 10
31.7634
 20
17.427
 11
31.9123
 21
17.3115
  0
LINE
  8
0
 10
31.9123
 20
17.3115
 11
32.0536
 21
17.1869
  0
LINE
  8
0
 10
32.0536
 20
17.1869
 11
32.1869
 21
17.0536
  0
LINE
  8
0
 10
32.1869
 20
17.0536
 11
32.3115
 21
16.9123
  0
LINE
  8
0
 10
32.3115
 20
16.9123
 11
32.427
 21
16.7634
  0
LINE
  8
0
 10
32.427
 20
16.7634
 11
32.533
 21
16.6075
  0
LINE
  8
0
 10
32.533
 20
16.6075
 11
32.6289
 21
16.4453
  0
LINE
  8
0
 10
32.6289
 20
16.4453
 11
32.7145
 21
16.2773
  0
LINE
  8
0
 10
32.7145
 20
16.2773
 11
32.7893
 21
16.1044
  0
LINE
  8
0
 10
32.7893
 20
16.1044
 11
32.8532
 21
15.927
  0
LINE
  8
0
 10
32.8532
 20
15.927
 11
32.9057
 21
15.7461
  0
LINE
  8
0
 10
32.9057
 20
15.7461
 11
32.9469
 21
15.5621
  0
LINE
  8
0
 10
32.9469
 20
15.5621
 11
32.9763
 21
15.376
  0
LINE
  8
0
 10
32.9763
 20
15.376
 11
32.9941
 21
15.1884
  0
LINE
  8
0
 10
32.9941
 20
15.1884
 11
33
 21
15
  0
LINE
  8
0
 10
33
 20
15
 11
32.9941
 21
14.8116
  0
LINE
  8
0
 10
32.9941
 20
14.8116
 11
32.9763
 21
14.624
  0
LINE
  8
0
 10
32.9763
 20
14.624
 11
32.9469
 21
14.4379
  0
LINE
  8
0
 10
32.9469
 20
14.4379
 11
32.9057
 21
14.2539
  0
LINE
  8
0
 10
32.9057
 20
14.2539
 11
32.8532
 21
14.0729
  0
LINE
  8
0
 10
32.8532
 20
14.0729
 11
32.7893
 21
13.8956
  0
LINE
  8
0
 10
32.7893
 20
13.8956
 11
32.7145
 21
13.7227
  0
LINE
  8
0
 10
32.7145
 20
13.7227
 11
32.6289
 21
13.5547
  0
LINE
  8
0
 10
32.6289
 20
13.5547
 11
32.533
 21
13.3925
  0
LINE
  8
0
 10
32.533
 20
13.3925
 11
32.427
 21
13.2366
  0
LINE
  8
0
 10
32.427
 20
13.2366
 11
32.3115
 21
13.0877
  0
LINE
  8
0
 10
32.3115
 20
13.0877
 11
32.1869
 21
12.9464
  0
LINE
  8
0
 10
32.1869
 20
12.9464
 11
32.0536
 21
12.8131
  0
LINE
  8
0
 10
32.0536
 20
12.8131
 11
31.9123
 21
12.6884
  0
LINE
  8
0
 10
31.9123
 20
12.6884
 11
31.7634
 21
12.5729
  0
LINE
  8
0
 10
31.7634
 20
12.5729
 11
31.6075
 21
12.467
  0
LINE
  8
0
 10
31.6075
 20
12.467
 11
31.4453
 21
12.3711
  0
LINE
  8
0
 10
31.4453
 20
12.3711
 11
31.2773
 21
12.2855
  0
LINE
  8
0
 10
31.2773
 20
12.2855
 11
31.1044
 21
12.2107
  0
LINE
  8
0
 10
31.1044
 20
12.2107
 11
30.927
 21
12.1468
  0
LINE
  8
0
 10
30.927
 20
12.1468
 11
30.7461
 21
12.0942
  0
LINE
  8
0
 10
30.7461
 20
12.0942
 11
30.5621
 21
12.0531
  0
LINE
  8
0
 10
30.5621
 20
12.0531
 11
30.376
 21
12.0237
  0
LINE
  8
0
 10
30.376
 20
12.0237
 11
30.1884
 21
12.0059
  0
LINE
  8
0
 10
30.1884
 20
12.0059
 11
30
 21
12
  0
LINE
  8
0
 10
30
 20
12
 11
29.8116
 21
12.0059
  0
LINE
  8
0
 10
119.812
 20
12.0059
 11
119.624
 21
12.0237
  0
LINE
  8
0
 10
119.624
 20
12.0237
 11
119.438
 21
12.0531
  0
LINE
  8
0
 10
119.438
 20
12.0531
 11
119.254
 21
12.0942
  0
LINE
  8
0
 10
119.254
 20
12.0942
 11
119.073
 21
12.1468
  0
LINE
  8
0
 10
119.073
 20
12.1468
 11
118.896
 21
12.2107
  0
LINE
  8
0
 10
118.896
 20
12.2107
 11
118.723
 21
12.2855
  0
LINE
  8
0
 10
118.723
 20
12.2855
 11
118.555
 21
12.3711
  0
LINE
  8
0
 10
118.555
 20
12.3711
 11
118.393
 21
12.467
  0
LINE
  8
0
 10
118.393
 20
12.467
 11
118.237
 21
12.5729
  0
LINE
  8
0
 10
118.237
 20
12.5729
 11
118.088
 21
12.6884
  0
LINE
  8
0
 10
118.088
 20
12.6884
 11
117.946
 21
12.8131
  0
LINE
  8
0
 10
117.946
 20
12.8131
 11
117.813
 21
12.9464
  0
LINE
  8
0
 10
117.813
 20
12.9464
 11
117.688
 21
13.0877
  0
LINE
  8
0
 10
117.688
 20
13.0877
 11
117.573
 21
13.2366
  0
LINE
  8
0
 10
117.573
 20
13.2366
 11
117.467
 21
13.3925
  0
LINE
  8
0
 10
117.467
 20
13.3925
 11
117.371
 21
13.5547
  0
LINE
  8
0
 10
117.371
 20
13.5547
 11
117.286
 21
13.7227
  0
LINE
  8
0
 10
117.286
 20
13.7227
 11
117.211
 21
13.8956
  0
LINE
  8
0
 10
117.211
 20
13.8956
 11
117.147
 21
14.0729
  0
LINE
  8
0
 10
117.147
 20
14.0729
 11
117.094
 21
14.2539
  0
LINE
  8
0
 10
117.094
 20
14.2539
 11
117.053
 21
14.4379
  0
LINE
  8
0
 10
117.053
 20
14.4379
 11
117.024
 21
14.624
  0
LINE
  8
0
 10
117.024
 20
14.624
 11
117.006
 21
14.8116
  0
LINE
  8
0
 10
117.006
 20
14.8116
 11
117
 21
15
  0
LINE
  8
0
 10
117
 20
15
 11
117.006
 21
15.1884
  0
LINE
  8
0
 10
117.006
 20
15.1884
 11
117.024
 21
15.376
  0
LINE
  8
0
 10
117.024
 20
15.376
 11
117.053
 21
15.5621
  0
LINE
  8
0
 10
117.053
 20
15.5621
 11
117.094
 21
15.7461
  0
LINE
  8
0
 10
117.094
 20
15.7461
 11
117.147
 21
15.927
  0
LINE
  8
0
 10
117.147
 20
15.927
 11
117.211
 21
16.1044
  0
LINE
  8
0
 10
117.211
 20
16.1044
 11
117.286
 21
16.2773
  0
LINE
  8
0
 10
117.286
 20
16.2773
 11
117.371
 21
16.4453
  0
LINE
  8
0
 10
117.371
 20
16.4453
 11
117.467
 21
16.6075
  0
LINE
  8
0
 10
117.467
 20
16.6075
 11
117.573
 21
16.7634
  0
LINE
  8
0
 10
117.573
 20
16.7634
 11
117.688
 21
16.9123
  0
LINE
  8
0
 10
117.688
 20
16.9123
 11
117.813
 21
17.0536
  0
LINE
  8
0
 10
117.813
 20
17.0536
 11
117.946
 21
17.1869
  0
LINE
  8
0
 10
117.946
 20
17.1869
 11
118.088
 21
17.3115
  0
LINE
  8
0
 10
118.088
 20
17.3115
 11
118.237
 21
17.427
  0
LINE
  8
0
 10
118.237
 20
17.427
 11
118.393
 21
17.533
  0
LINE
  8
0
 10
118.393
 20
17.533
 11
118.555
 21
17.6289
  0
LINE
  8
0
 10
118.555
 20
17.6289
 11
118.723
 21
17.7145
  0
LINE
  8
0
 10
118.723
 20
17.7145
 11
118.896
 21
17.7893
  0
LINE
  8
0
 10
118.896
 20
17.7893
 11
119.073
 21
17.8532
  0
LINE
  8
0
 10
119.073
 20
17.8532
 11
119.254
 21
17.9057
  0
LINE
  8
0
 10
119.254
 20
17.9057
 11
119.438
 21
17.9469
  0
LINE
  8
0
 10
119.438
 20
17.9469
 11
119.624
 21
17.9763
  0
LINE
  8
0
 10
119.624
 20
17.9763
 11
119.812
 21
17.9941
  0
LINE
  8
0
 10
119.812
 20
17.9941
 11
120
 21
18
  0
LINE
  8
0
 10
120
 20
18
 11
120.188
 21
17.9941
  0
LINE
  8
0
 10
120.188
 20
17.9941
 11
120.376
 21
17.9763
  0
LINE
  8
0
 10
120.376
 20
17.9763
 11
120.562
 21
17.9469
  0
LINE
  8
0
 10
120.562
 20
17.9469
 11
120.746
 21
17.9057
  0
LINE
  8
0
 10
120.746
 20
17.9057
 11
120.927
 21
17.8532
  0
LINE
  8
0
 10
120.927
 20
17.8532
 11
121.104
 21
17.7893
  0
LINE
  8
0
 10
121.104
 20
17.7893
 11
121.277
 21
17.7145
  0
LINE
  8
0
 10
121.277
 20
17.7145
 11
121.445
 21
17.6289
  0
LINE
  8
0
 10
121.445
 20
17.6289
 11
121.607
 21
17.533
  0
LINE
  8
0
 10
121.607
 20
17.533
 11
121.763
 21
17.427
  0
LINE
  8
0
 10
121.763
 20
17.427
 11
121.912
 21
17.3115
  0
LINE
  8
0
 10
121.912
 20
17.3115
 11
122.054
 21
17.1869
  0
LINE
  8
0
 10
122.054
 20
17.1869
 11
122.187
 21
17.0536
  0
LINE
  8
0
 10
122.187
 20
17.0536
 11
122.312
 21
16.9123
  0
LINE
  8
0
 10
122.312
 20
16.9123
 11
122.427
 21
16.7634
  0
LINE
  8
0
 10
122.427
 20
16.7634
 11
122.533
 21
16.6075
  0
LINE
  8
0
 10
122.533
 20
16.6075
 11
122.629
 21
16.4453
  0
LINE
  8
0
 10
122.629
 20
16.4453
 11
122.714
 21
16.2773
  0
LINE
  8
0
 10
122.714
 20
16.2773
 11
122.789
 21
16.1044
  0
LINE
  8
0
 10
122.789
 20
16.1044
 11
122.853
 21
15.927
  0
LINE
  8
0
 10
122.853
 20
15.927
 11
122.906
 21
15.7461
  0
LINE
  8
0
 10
122.906
 20
15.7461
 11
122.947
 21
15.5621
  0
LINE
  8
0
 10
122.947
 20
15.5621
 11
122.976
 21
15.376
  0
LINE
  8
0
 10
122.976
 20
15.376
 11
122.994
 21
15.1884
  0
LINE
  8
0
 10
122.994
 20
15.1884
 11
123
 21
15
  0
LINE
  8
0
 10
123
 20
15
 11
122.994
 21
14.8116
  0
LINE
  8
0
 10
122.994
 20
14.8116
 11
122.976
 21
14.624
  0
LINE
  8
0
 10
122.976
 20
14.624
 11
122.947
 21
14.4379
  0
LINE
  8
0
 10
122.947
 20
14.4379
 11
122.906
 21
14.2539
  0
LINE
  8
0
 10
122.906
 20
14.2539
 11
122.853
 21
14.0729
  0
LINE
  8
0
 10
122.853
 20
14.0729
 11
122.789
 21
13.8956
  0
LINE
  8
0
 10
122.789
 20
13.8956
 11
122.714
 21
13.7227
  0
LINE
  8
0
 10
122.714
 20
13.7227
 11
122.629
 21
13.5547
  0
LINE
  8
0
 10
122.629
 20
13.5547
 11
122.533
 21
13.3925
  0
LINE
  8
0
 10
122.533
 20
13.3925
 11
122.427
 21
13.2366
  0
LINE
  8
0
 10
122.427
 20
13.2366
 11
122.312
 21
13.0877
  0
LINE
  8
0
 10
122.312
 20
13.0877
 11
122.187
 21
12.9464
  0
LINE
  8
0
 10
122.187
 20
12.9464
 11
122.054
 21
12.8131
  0
LINE
  8
0
 10
122.054
 20
12.8131
 11
121.912
 21
12.6884
  0
LINE
  8
0
 10
121.912
 20
12.6884
 11
121.763
 21
12.5729
  0
LINE
  8
0
 10
121.763
 20
12.5729
 11
121.607
 21
12.467
  0
LINE
  8
0
 10
121.607
 20
12.467
 11
121.445
 21
12.3711
  0
LINE
  8
0
 10
121.445
 20
12.3711
 11
121.277
 21
12.2855
  0
LINE
  8
0
 10
121.277
 20
12.2855
 11
121.104
 21
12.2107
  0
LINE
  8
0
 10
121.104
 20
12.2107
 11
120.927
 21
12.1468
  0
LINE
  8
0
 10
120.927
 20
12.1468
 11
120.746
 21
12.0942
  0
LINE
  8
0
 10
120.746
 20
12.0942
 11
120.562
 21
12.0531
  0
LINE
  8
0
 10
120.562
 20
12.0531
 11
120.376
 21
12.0237
  0
LINE
  8
0
 10
120.376
 20
12.0237
 11
120.188
 21
12.0059
  0
LINE
  8
0
 10
120.188
 20
12.0059
 11
120
 21
12
  0
LINE
  8
0
 10
120
 20
12
 11
119.812
 21
12.0059
  0
LINE
  8
0
 10
14.8116
 20
12.0059
 11
14.624
 21
12.0237
  0
LINE
  8
0
 10
14.624
 20
12.0237
 11
14.4379
 21
12.0531
  0
LINE
  8
0
 10
14.4379
 20
12.0531
 11
14.2539
 21
12.0942
  0
LINE
  8
0
 10
14.2539
 20
12.0942
 11
14.0729
 21
12.1468
  0
LINE
  8
0
 10
14.0729
 20
12.1468
 11
13.8956
 21
12.2107
  0
LINE
  8
0
 10
13.8956
 20
12.2107
 11
13.7227
 21
12.2855
  0
LINE
  8
0
 10
13.7227
 20
12.2855
 11
13.5547
 21
12.3711
  0
LINE
  8
0
 10
13.5547
 20
12.3711
 11
13.3925
 21
12.467
  0
LINE
  8
0
 10
13.3925
 20
12.467
 11
13.2366
 21
12.5729
  0
LINE
  8
0
 10
13.2366
 20
12.5729
 11
13.0877
 21
12.6884
  0
LINE
  8
0
 10
13.0877
 20
12.6884
 11
12.9464
 21
12.8131
  0
LINE
  8
0
 10
12.9464
 20
12.8131
 11
12.8131
 21
12.9464
  0
LINE
  8
0
 10
12.8131
 20
12.9464
 11
12.6884
 21
13.0877
  0
LINE
  8
0
 10
12.6884
 20
13.0877
 11
12.5729
 21
13.2366
  0
LINE
  8
0
 10
12.5729
 20
13.2366
 11
12.467
 21
13.3925
  0
LINE
  8
0
 10
12.467
 20
13.3925
 11
12.3711
 21
13.5547
  0
LINE
  8
0
 10
12.3711
 20
13.5547
 11
12.2855
 21
13.7227
  0
LINE
  8
0
 10
12.2855
 20
13.7227
 11
12.2107
 21
13.8956
  0
LINE
  8
0
 10
12.2107
 20
13.8956
 11
12.1468
 21
14.0729
  0
LINE
  8
0
 10
12.1468
 20
14.0729
 11
12.0942
 21
14.2539
  0
LINE
  8
0
 10
12.0942
 20
14.2539
 11
12.0531
 21
14.4379
  0
LINE
  8
0
 10
12.0531
 20
14.4379
 11
12.0237
 21
14.624
  0
LINE
  8
0
 10
12.0237
 20
14.624
 11
12.0059
 21
14.8116
  0
LINE
  8
0
 10
12.0059
 20
14.8116
 11
12
 21
15
  0
LINE
  8
0
 10
12
 20
15
 11
12.0059
 21
15.1884
  0
LINE
  8
0
 10
12.0059
 20
15.1884
 11
12.0237
 21
15.376
  0
LINE
  8
0
 10
12.0237
 20
15.376
 11
12.0531
 21
15.5621
  0
LINE
  8
0
 10
12.0531
 20
15.5621
 11
12.0942
 21
15.7461
  0
LINE
  8
0
 10
12.0942
 20
15.7461
 11
12.1468
 21
15.927
  0
LINE
  8
0
 10
12.1468
 20
15.927
 11
12.2107
 21
16.1044
  0
LINE
  8
0
 10
12.2107
 20
16.1044
 11
12.2855
 21
16.2773
  0
LINE
  8
0
 10
12.2855
 20
16.2773
 11
12.3711
 21
16.4453
  0
LINE
  8
0
 10
12.3711
 20
16.4453
 11
12.467
 21
16.6075
  0
LINE
  8
0
 10
12.467
 20
16.6075
 11
12.5729
 21
16.7634
  0
LINE
  8
0
 10
12.5729
 20
16.7634
 11
12.6884
 21
16.9123
  0
LINE
  8
0
 10
12.6884
 20
16.9123
 11
12.8131
 21
17.0536
  0
LINE
  8
0
 10
12.8131
 20
17.0536
 11
12.9464
 21
17.1869
  0
LINE
  8
0
 10
12.9464
 20
17.1869
 11
13.0877
 21
17.3115
  0
LINE
  8
0
 10
13.0877
 20
17.3115
 11
13.2366
 21
17.427
  0
LINE
  8
0
 10
13.2366
 20
17.427
 11
13.3925
 21
17.533
  0
LINE
  8
0
 10
13.3925
 20
17.533
 11
13.5547
 21
17.6289
  0
LINE
  8
0
 10
13.5547
 20
17.6289
 11
13.7227
 21
17.7145
  0
LINE
  8
0
 10
13.7227
 20
17.7145
 11
13.8956
 21
17.7893
  0
LINE
  8
0
 10
13.8956
 20
17.7893
 11
14.0729
 21
17.8532
  0
LINE
  8
0
 10
14.0729
 20
17.8532
 11
14.2539
 21
17.9057
  0
LINE
  8
0
 10
14.2539
 20
17.9057
 11
14.4379
 21
17.9469
  0
LINE
  8
0
 10
14.4379
 20
17.9469
 11
14.624
 21
17.9763
  0
LINE
  8
0
 10
14.624
 20
17.9763
 11
14.8116
 21
17.9941
  0
LINE
  8
0
 10
14.8116
 20
17.9941
 11
15
 21
18
  0
LINE
  8
0
 10
15
 20
18
 11
15.1884
 21
17.9941
  0
LINE
  8
0
 10
15.1884
 20
17.9941
 11
15.376
 21
17.9763
  0
LINE
  8
0
 10
15.376
 20
17.9763
 11
15.5621
 21
17.9469
  0
LINE
  8
0
 10
15.5621
 20
17.9469
 11
15.7461
 21
17.9057
  0
LINE
  8
0
 10
15.7461
 20
17.9057
 11
15.927
 21
17.8532
  0
LINE
  8
0
 10
15.927
 20
17.8532
 11
16.1044
 21
17.7893
  0
LINE
  8
0
 10
16.1044
 20
17.7893
 11
16.2773
 21
17.7145
  0
LINE
  8
0
 10
16.2773
 20
17.7145
 11
16.4453
 21
17.6289
  0
LINE
  8
0
 10
16.4453
 20
17.6289
 11
16.6075
 21
17.533
  0
LINE
  8
0
 10
16.6075
 20
17.533
 11
16.7634
 21
17.427
  0
LINE
  8
0
 10
16.7634
 20
17.427
 11
16.9123
 21
17.3115
  0
LINE
  8
0
 10
16.9123
 20
17.3115
 11
17.0536
 21
17.1869
  0
LINE
  8
0
 10
17.0536
 20
17.1869
 11
17.1869
 21
17.0536
  0
LINE
  8
0
 10
17.1869
 20
17.0536
 11
17.3115
 21
16.9123
  0
LINE
  8
0
 10
17.3115
 20
16.9123
 11
17.427
 21
16.7634
  0
LINE
  8
0
 10
17.427
 20
16.7634
 11
17.533
 21
16.6075
  0
LINE
  8
0
 10
17.533
 20
16.6075
 11
17.6289
 21
16.4453
  0
LINE
  8
0
 10
17.6289
 20
16.4453
 11
17.7145
 21
16.2773
  0
LINE
  8
0
 10
17.7145
 20
16.2773
 11
17.7893
 21
16.1044
  0
LINE
  8
0
 10
17.7893
 20
16.1044
 11
17.8532
 21
15.927
  0
LINE
  8
0
 10
17.8532
 20
15.927
 11
17.9057
 21
15.7461
  0
LINE
  8
0
 10
17.9057
 20
15.7461
 11
17.9469
 21
15.5621
  0
LINE
  8
0
 10
17.9469
 20
15.5621
 11
17.9763
 21
15.376
  0
LINE
  8
0
 10
17.9763
 20
15.376
 11
17.9941
 21
15.1884
  0
LINE
  8
0
 10
17.9941
 20
15.1884
 11
18
 21
15
  0
LINE
  8
0
 10
18
 20
15
 11
17.9941
 21
14.8116
  0
LINE
  8
0
 10
17.9941
 20
14.8116
 11
17.9763
 21
14.624
  0
LINE
  8
0
 10
17.9763
 20
14.624
 11
17.9469
 21
14.4379
  0
LINE
  8
0
 10
17.9469
 20
14.4379
 11
17.9057
 21
14.2539
  0
LINE
  8
0
 10
17.9057
 20
14.2539
 11
17.8532
 21
14.0729
  0
LINE
  8
0
 10
17.8532
 20
14.0729
 11
17.7893
 21
13.8956
  0
LINE
  8
0
 10
17.7893
 20
13.8956
 11
17.7145
 21
13.7227
  0
LINE
  8
0
 10
17.7145
 20
13.7227
 11
17.6289
 21
13.5547
  0
LINE
  8
0
 10
17.6289
 20
13.5547
 11
17.533
 21
13.3925
  0
LINE
  8
0
 10
17.533
 20
13.3925
 11
17.427
 21
13.2366
  0
LINE
  8
0
 10
17.427
 20
13.2366
 11
17.3115
 21
13.0877
  0
LINE
  8
0
 10
17.3115
 20
13.0877
 11
17.1869
 21
12.9464
  0
LINE
  8
0
 10
17.1869
 20
12.9464
 11
17.0536
 21
12.8131
  0
LINE
  8
0
 10
17.0536
 20
12.8131
 11
16.9123
 21
12.6884
  0
LINE
  8
0
 10
16.9123
 20
12.6884
 11
16.7634
 21
12.5729
  0
LINE
  8
0
 10
16.7634
 20
12.5729
 11
16.6075
 21
12.467
  0
LINE
  8
0
 10
16.6075
 20
12.467
 11
16.4453
 21
12.3711
  0
LINE
  8
0
 10
16.4453
 20
12.3711
 11
16.2773
 21
12.2855
  0
LINE
  8
0
 10
16.2773
 20
12.2855
 11
16.1044
 21
12.2107
  0
LINE
  8
0
 10
16.1044
 20
12.2107
 11
15.927
 21
12.1468
  0
LINE
  8
0
 10
15.927
 20
12.1468
 11
15.7461
 21
12.0942
  0
LINE
  8
0
 10
15.7461
 20
12.0942
 11
15.5621
 21
12.0531
  0
LINE
  8
0
 10
15.5621
 20
12.0531
 11
15.376
 21
12.0237
  0
LINE
  8
0
 10
15.376
 20
12.0237
 11
15.1884
 21
12.0059
  0
LINE
  8
0
 10
15.1884
 20
12.0059
 11
15
 21
12
  0
LINE
  8
0
 10
15
 20
12
 11
14.8116
 21
12.0059
  0
LINE
  8
0
 10
134.812
 20
12.0059
 11
134.624
 21
12.0237
  0
LINE
  8
0
 10
134.624
 20
12.0237
 11
134.438
 21
12.0531
  0
LINE
  8
0
 10
134.438
 20
12.0531
 11
134.254
 21
12.0942
  0
LINE
  8
0
 10
134.254
 20
12.0942
 11
134.073
 21
12.1468
  0
LINE
  8
0
 10
134.073
 20
12.1468
 11
133.896
 21
12.2107
  0
LINE
  8
0
 10
133.896
 20
12.2107
 11
133.723
 21
12.2855
  0
LINE
  8
0
 10
133.723
 20
12.2855
 11
133.555
 21
12.3711
  0
LINE
  8
0
 10
133.555
 20
12.3711
 11
133.393
 21
12.467
  0
LINE
  8
0
 10
133.393
 20
12.467
 11
133.237
 21
12.5729
  0
LINE
  8
0
 10
133.237
 20
12.5729
 11
133.088
 21
12.6884
  0
LINE
  8
0
 10
133.088
 20
12.6884
 11
132.946
 21
12.8131
  0
LINE
  8
0
 10
132.946
 20
12.8131
 11
132.813
 21
12.9464
  0
LINE
  8
0
 10
132.813
 20
12.9464
 11
132.688
 21
13.0877
  0
LINE
  8
0
 10
132.688
 20
13.0877
 11
132.573
 21
13.2366
  0
LINE
  8
0
 10
132.573
 20
13.2366
 11
132.467
 21
13.3925
  0
LINE
  8
0
 10
132.467
 20
13.3925
 11
132.371
 21
13.5547
  0
LINE
  8
0
 10
132.371
 20
13.5547
 11
132.286
 21
13.7227
  0
LINE
  8
0
 10
132.286
 20
13.7227
 11
132.211
 21
13.8956
  0
LINE
  8
0
 10
132.211
 20
13.8956
 11
132.147
 21
14.0729
  0
LINE
  8
0
 10
132.147
 20
14.0729
 11
132.094
 21
14.2539
  0
LINE
  8
0
 10
132.094
 20
14.2539
 11
132.053
 21
14.4379
  0
LINE
  8
0
 10
132.053
 20
14.4379
 11
132.024
 21
14.624
  0
LINE
  8
0
 10
132.024
 20
14.624
 11
132.006
 21
14.8116
  0
LINE
  8
0
 10
132.006
 20
14.8116
 11
132
 21
15
  0
LINE
  8
0
 10
132
 20
15
 11
132.006
 21
15.1884
  0
LINE
  8
0
 10
132.006
 20
15.1884
 11
132.024
 21
15.376
  0
LINE
  8
0
 10
132.024
 20
15.376
 11
132.053
 21
15.5621
  0
LINE
  8
0
 10
132.053
 20
15.5621
 11
132.094
 21
15.7461
  0
LINE
  8
0
 10
132.094
 20
15.7461
 11
132.147
 21
15.927
  0
LINE
  8
0
 10
132.147
 20
15.927
 11
132.211
 21
16.1044
  0
LINE
  8
0
 10
132.211
 20
16.1044
 11
132.286
 21
16.2773
  0
LINE
  8
0
 10
132.286
 20
16.2773
 11
132.371
 21
16.4453
  0
LINE
  8
0
 10
132.371
 20
16.4453
 11
132.467
 21
16.6075
  0
LINE
  8
0
 10
132.467
 20
16.6075
 11
132.573
 21
16.7634
  0
LINE
  8
0
 10
132.573
 20
16.7634
 11
132.688
 21
16.9123
  0
LINE
  8
0
 10
132.688
 20
16.9123
 11
132.813
 21
17.0536
  0
LINE
  8
0
 10
132.813
 20
17.0536
 11
132.946
 21
17.1869
  0
LINE
  8
0
 10
132.946
 20
17.1869
 11
133.088
 21
17.3115
  0
LINE
  8
0
 10
133.088
 20
17.3115
 11
133.237
 21
17.427
  0
LINE
  8
0
 10
133.237
 20
17.427
 11
133.393
 21
17.533
  0
LINE
  8
0
 10
133.393
 20
17.533
 11
133.555
 21
17.6289
  0
LINE
  8
0
 10
133.555
 20
17.6289
 11
133.723
 21
17.7145
  0
LINE
  8
0
 10
133.723
 20
17.7145
 11
133.896
 21
17.7893
  0
LINE
  8
0
 10
133.896
 20
17.7893
 11
134.073
 21
17.8532
  0
LINE
  8
0
 10
134.073
 20
17.8532
 11
134.254
 21
17.9057
  0
LINE
  8
0
 10
134.254
 20
17.9057
 11
134.438
 21
17.9469
  0
LINE
  8
0
 10
134.438
 20
17.9469
 11
134.624
 21
17.9763
  0
LINE
  8
0
 10
134.624
 20
17.9763
 11
134.812
 21
17.9941
  0
LINE
  8
0
 10
134.812
 20
17.9941
 11
135
 21
18
  0
LINE
  8
0
 10
135
 20
18
 11
135.188
 21
17.9941
  0
LINE
  8
0
 10
135.188
 20
17.9941
 11
135.376
 21
17.9763
  0
LINE
  8
0
 10
135.376
 20
17.9763
 11
135.562
 21
17.9469
  0
LINE
  8
0
 10
135.562
 20
17.9469
 11
135.746
 21
17.9057
  0
LINE
  8
0
 10
135.746
 20
17.9057
 11
135.927
 21
17.8532
  0
LINE
  8
0
 10
135.927
 20
17.8532
 11
136.104
 21
17.7893
  0
LINE
  8
0
 10
136.104
 20
17.7893
 11
136.277
 21
17.7145
  0
LINE
  8
0
 10
136.277
 20
17.7145
 11
136.445
 21
17.6289
  0
LINE
  8
0
 10
136.445
 20
17.6289
 11
136.607
 21
17.533
  0
LINE
  8
0
 10
136.607
 20
17.533
 11
136.763
 21
17.427
  0
LINE
  8
0
 10
136.763
 20
17.427
 11
136.912
 21
17.3115
  0
LINE
  8
0
 10
136.912
 20
17.3115
 11
137.054
 21
17.1869
  0
LINE
  8
0
 10
137.054
 20
17.1869
 11
137.187
 21
17.0536
  0
LINE
  8
0
 10
137.187
 20
17.0536
 11
137.312
 21
16.9123
  0
LINE
  8
0
 10
137.312
 20
16.9123
 11
137.427
 21
16.7634
  0
LINE
  8
0
 10
137.427
 20
16.7634
 11
137.533
 21
16.6075
  0
LINE
  8
0
 10
137.533
 20
16.6075
 11
137.629
 21
16.4453
  0
LINE
  8
0
 10
137.629
 20
16.4453
 11
137.714
 21
16.2773
  0
LINE
  8
0
 10
137.714
 20
16.2773
 11
137.789
 21
16.1044
  0
LINE
  8
0
 10
137.789
 20
16.1044
 11
137.853
 21
15.927
  0
LINE
  8
0
 10
137.853
 20
15.927
 11
137.906
 21
15.7461
  0
LINE
  8
0
 10
137.906
 20
15.7461
 11
137.947
 21
15.5621
  0
LINE
  8
0
 10
137.947
 20
15.5621
 11
137.976
 21
15.376
  0
LINE
  8
0
 10
137.976
 20
15.376
 11
137.994
 21
15.1884
  0
LINE
  8
0
 10
137.994
 20
15.1884
 11
138
 21
15
  0
LINE
  8
0
 10
138
 20
15
 11
137.994
 21
14.8116
  0
LINE
  8
0
 10
137.994
 20
14.8116
 11
137.976
 21
14.624
  0
LINE
  8
0
 10
137.976
 20
14.624
 11
137.947
 21
14.4379
  0
LINE
  8
0
 10
137.947
 20
14.4379
 11
137.906
 21
14.2539
  0
LINE
  8
0
 10
137.906
 20
14.2539
 11
137.853
 21
14.0729
  0
LINE
  8
0
 10
137.853
 20
14.0729
 11
137.789
 21
13.8956
  0
LINE
  8
0
 10
137.789
 20
13.8956
 11
137.714
 21
13.7227
  0
LINE
  8
0
 10
137.714
 20
13.7227
 11
137.629
 21
13.5547
  0
LINE
  8
0
 10
137.629
 20
13.5547
 11
137.533
 21
13.3925
  0
LINE
  8
0
 10
137.533
 20
13.3925
 11
137.427
 21
13.2366
  0
LINE
  8
0
 10
137.427
 20
13.2366
 11
137.312
 21
13.0877
  0
LINE
  8
0
 10
137.312
 20
13.0877
 11
137.187
 21
12.9464
  0
LINE
  8
0
 10
137.187
 20
12.9464
 11
137.054
 21
12.8131
  0
LINE
  8
0
 10
137.054
 20
12.8131
 11
136.912
 21
12.6884
  0
LINE
  8
0
 10
136.912
 20
12.6884
 11
136.763
 21
12.5729
  0
LINE
  8
0
 10
136.763
 20
12.5729
 11
136.607
 21
12.467
  0
LINE
  8
0
 10
136.607
 20
12.467
 11
136.445
 21
12.3711
  0
LINE
  8
0
 10
136.445
 20
12.3711
 11
136.277
 21
12.2855
  0
LINE
  8
0
 10
136.277
 20
12.2855
 11
136.104
 21
12.2107
  0
LINE
  8
0
 10
136.104
 20
12.2107
 11
135.927
 21
12.1468
  0
LINE
  8
0
 10
135.927
 20
12.1468
 11
135.746
 21
12.0942
  0
LINE
  8
0
 10
135.746
 20
12.0942
 11
135.562
 21
12.0531
  0
LINE
  8
0
 10
135.562
 20
12.0531
 11
135.376
 21
12.0237
  0
LINE
  8
0
 10
135.376
 20
12.0237
 11
135.188
 21
12.0059
  0
LINE
  8
0
 10
135.188
 20
12.0059
 11
135
 21
12
  0
LINE
  8
0
 10
135
 20
12
 11
134.812
 21
12.0059
  0
LINE
  8
0
 10
74.8116
 20
12.0059
 11
74.624
 21
12.0237
  0
LINE
  8
0
 10
74.624
 20
12.0237
 11
74.4379
 21
12.0531
  0
LINE
  8
0
 10
74.4379
 20
12.0531
 11
74.2539
 21
12.0942
  0
LINE
  8
0
 10
74.2539
 20
12.0942
 11
74.0729
 21
12.1468
  0
LINE
  8
0
 10
74.0729
 20
12.1468
 11
73.8956
 21
12.2107
  0
LINE
  8
0
 10
73.8956
 20
12.2107
 11
73.7227
 21
12.2855
  0
LINE
  8
0
 10
73.7227
 20
12.2855
 11
73.5547
 21
12.3711
  0
LINE
  8
0
 10
73.5547
 20
12.3711
 11
73.3925
 21
12.467
  0
LINE
  8
0
 10
73.3925
 20
12.467
 11
73.2366
 21
12.5729
  0
LINE
  8
0
 10
73.2366
 20
12.5729
 11
73.0877
 21
12.6884
  0
LINE
  8
0
 10
73.0877
 20
12.6884
 11
72.9464
 21
12.8131
  0
LINE
  8
0
 10
72.9464
 20
12.8131
 11
72.8131
 21
12.9464
  0
LINE
  8
0
 10
72.8131
 20
12.9464
 11
72.6884
 21
13.0877
  0
LINE
  8
0
 10
72.6884
 20
13.0877
 11
72.5729
 21
13.2366
  0
LINE
  8
0
 10
72.5729
 20
13.2366
 11
72.467
 21
13.3925
  0
LINE
  8
0
 10
72.467
 20
13.3925
 11
72.3711
 21
13.5547
  0
LINE
  8
0
 10
72.3711
 20
13.5547
 11
72.2855
 21
13.7227
  0
LINE
  8
0
 10
72.2855
 20
13.7227
 11
72.2107
 21
13.8956
  0
LINE
  8
0
 10
72.2107
 20
13.8956
 11
72.1468
 21
14.0729
  0
LINE
  8
0
 10
72.1468
 20
14.0729
 11
72.0942
 21
14.2539
  0
LINE
  8
0
 10
72.0942
 20
14.2539
 11
72.0531
 21
14.4379
  0
LINE
  8
0
 10
72.0531
 20
14.4379
 11
72.0237
 21
14.624
  0
LINE
  8
0
 10
72.0237
 20
14.624
 11
72.0059
 21
14.8116
  0
LINE
  8
0
 10
72.0059
 20
14.8116
 11
72
 21
15
  0
LINE
  8
0
 10
72
 20
15
 11
72.0059
 21
15.1884
  0
LINE
  8
0
 10
72.0059
 20
15.1884
 11
72.0237
 21
15.376
  0
LINE
  8
0
 10
72.0237
 20
15.376
 11
72.0531
 21
15.5621
  0
LINE
  8
0
 10
72.0531
 20
15.5621
 11
72.0942
 21
15.7461
  0
LINE
  8
0
 10
72.0942
 20
15.7461
 11
72.1468
 21
15.927
  0
LINE
  8
0
 10
72.1468
 20
15.927
 11
72.2107
 21
16.1044
  0
LINE
  8
0
 10
72.2107
 20
16.1044
 11
72.2855
 21
16.2773
  0
LINE
  8
0
 10
72.2855
 20
16.2773
 11
72.3711
 21
16.4453
  0
LINE
  8
0
 10
72.3711
 20
16.4453
 11
72.467
 21
16.6075
  0
LINE
  8
0
 10
72.467
 20
16.6075
 11
72.5729
 21
16.7634
  0
LINE
  8
0
 10
72.5729
 20
16.7634
 11
72.6884
 21
16.9123
  0
LINE
  8
0
 10
72.6884
 20
16.9123
 11
72.8131
 21
17.0536
  0
LINE
  8
0
 10
72.8131
 20
17.0536
 11
72.9464
 21
17.1869
  0
LINE
  8
0
 10
72.9464
 20
17.1869
 11
73.0877
 21
17.3115
  0
LINE
  8
0
 10
73.0877
 20
17.3115
 11
73.2366
 21
17.427
  0
LINE
  8
0
 10
73.2366
 20
17.427
 11
73.3925
 21
17.533
  0
LINE
  8
0
 10
73.3925
 20
17.533
 11
73.5547
 21
17.6289
  0
LINE
  8
0
 10
73.5547
 20
17.6289
 11
73.7227
 21
17.7145
  0
LINE
  8
0
 10
73.7227
 20
17.7145
 11
73.8956
 21
17.7893
  0
LINE
  8
0
 10
73.8956
 20
17.7893
 11
74.0729
 21
17.8532
  0
LINE
  8
0
 10
74.0729
 20
17.8532
 11
74.2539
 21
17.9057
  0
LINE
  8
0
 10
74.2539
 20
17.9057
 11
74.4379
 21
17.9469
  0
LINE
  8
0
 10
74.4379
 20
17.9469
 11
74.624
 21
17.9763
  0
LINE
  8
0
 10
74.624
 20
17.9763
 11
74.8116
 21
17.9941
  0
LINE
  8
0
 10
74.8116
 20
17.9941
 11
75
 21
18
  0
LINE
  8
0
 10
75
 20
18
 11
75.1884
 21
17.9941
  0
LINE
  8
0
 10
75.1884
 20
17.9941
 11
75.376
 21
17.9763
  0
LINE
  8
0
 10
75.376
 20
17.9763
 11
75.5621
 21
17.9469
  0
LINE
  8
0
 10
75.5621
 20
17.9469
 11
75.7461
 21
17.9057
  0
LINE
  8
0
 10
75.7461
 20
17.9057
 11
75.927
 21
17.8532
  0
LINE
  8
0
 10
75.927
 20
17.8532
 11
76.1044
 21
17.7893
  0
LINE
  8
0
 10
76.1044
 20
17.7893
 11
76.2773
 21
17.7145
  0
LINE
  8
0
 10
76.2773
 20
17.7145
 11
76.4453
 21
17.6289
  0
LINE
  8
0
 10
76.4453
 20
17.6289
 11
76.6075
 21
17.533
  0
LINE
  8
0
 10
76.6075
 20
17.533
 11
76.7634
 21
17.427
  0
LINE
  8
0
 10
76.7634
 20
17.427
 11
76.9123
 21
17.3115
  0
LINE
  8
0
 10
76.9123
 20
17.3115
 11
77.0536
 21
17.1869
  0
LINE
  8
0
 10
77.0536
 20
17.1869
 11
77.1869
 21
17.0536
  0
LINE
  8
0
 10
77.1869
 20
17.0536
 11
77.3115
 21
16.9123
  0
LINE
  8
0
 10
77.3115
 20
16.9123
 11
77.427
 21
16.7634
  0
LINE
  8
0
 10
77.427
 20
16.7634
 11
77.533
 21
16.6075
  0
LINE
  8
0
 10
77.533
 20
16.6075
 11
77.6289
 21
16.4453
  0
LINE
  8
0
 10
77.6289
 20
16.4453
 11
77.7145
 21
16.2773
  0
LINE
  8
0
 10
77.7145
 20
16.2773
 11
77.7893
 21
16.1044
  0
LINE
  8
0
 10
77.7893
 20
16.1044
 11
77.8532
 21
15.927
  0
LINE
  8
0
 10
77.8532
 20
15.927
 11
77.9057
 21
15.7461
  0
LINE
  8
0
 10
77.9057
 20
15.7461
 11
77.9469
 21
15.5621
  0
LINE
  8
0
 10
77.9469
 20
15.5621
 11
77.9763
 21
15.376
  0
LINE
  8
0
 10
77.9763
 20
15.376
 11
77.9941
 21
15.1884
  0
LINE
  8
0
 10
77.9941
 20
15.1884
 11
78
 21
15
  0
LINE
  8
0
 10
78
 20
15
 11
77.9941
 21
14.8116
  0
LINE
  8
0
 10
77.9941
 20
14.8116
 11
77.9763
 21
14.624
  0
LINE
  8
0
 10
77.9763
 20
14.624
 11
77.9469
 21
14.4379
  0
LINE
  8
0
 10
77.9469
 20
14.4379
 11
77.9057
 21
14.2539
  0
LINE
  8
0
 10
77.9057
 20
14.2539
 11
77.8532
 21
14.0729
  0
LINE
  8
0
 10
77.8532
 20
14.0729
 11
77.7893
 21
13.8956
  0
LINE
  8
0
 10
77.7893
 20
13.8956
 11
77.7145
 21
13.7227
  0
LINE
  8
0
 10
77.7145
 20
13.7227
 11
77.6289
 21
13.5547
  0
LINE
  8
0
 10
77.6289
 20
13.5547
 11
77.533
 21
13.3925
  0
LINE
  8
0
 10
77.533
 20
13.3925
 11
77.427
 21
13.2366
  0
LINE
  8
0
 10
77.427
 20
13.2366
 11
77.3115
 21
13.0877
  0
LINE
  8
0
 10
77.3115
 20
13.0877
 11
77.1869
 21
12.9464
  0
LINE
  8
0
 10
77.1869
 20
12.9464
 11
77.0536
 21
12.8131
  0
LINE
  8
0
 10
77.0536
 20
12.8131
 11
76.9123
 21
12.6884
  0
LINE
  8
0
 10
76.9123
 20
12.6884
 11
76.7634
 21
12.5729
  0
LINE
  8
0
 10
76.7634
 20
12.5729
 11
76.6075
 21
12.467
  0
LINE
  8
0
 10
76.6075
 20
12.467
 11
76.4453
 21
12.3711
  0
LINE
  8
0
 10
76.4453
 20
12.3711
 11
76.2773
 21
12.2855
  0
LINE
  8
0
 10
76.2773
 20
12.2855
 11
76.1044
 21
12.2107
  0
LINE
  8
0
 10
76.1044
 20
12.2107
 11
75.927
 21
12.1468
  0
LINE
  8
0
 10
75.927
 20
12.1468
 11
75.7461
 21
12.0942
  0
LINE
  8
0
 10
75.7461
 20
12.0942
 11
75.5621
 21
12.0531
  0
LINE
  8
0
 10
75.5621
 20
12.0531
 11
75.376
 21
12.0237
  0
LINE
  8
0
 10
75.376
 20
12.0237
 11
75.1884
 21
12.0059
  0
LINE
  8
0
 10
75.1884
 20
12.0059
 11
75
 21
12
  0
LINE
  8
0
 10
75
 20
12
 11
74.8116
 21
12.0059
  0
LINE
  8
0
 10
126
 20
13.5
 11
126
 21
16.5
  0
LINE
  8
0
 10
126
 20
16.5
 11
129
 21
16.5
  0
LINE
  8
0
 10
129
 20
16.5
 11
129
 21
13.5
  0
LINE
  8
0
 10
129
 20
13.5
 11
126
 21
13.5
  0
LINE
  8
0
 10
21
 20
13.5
 11
21
 21
16.5
  0
LINE
  8
0
 10
21
 20
16.5
 11
24
 21
16.5
  0
LINE
  8
0
 10
24
 20
16.5
 11
24
 21
13.5
  0
LINE
  8
0
 10
24
 20
13.5
 11
21
 21
13.5
  0
LINE
  8
0
 10
111
 20
13.5
 11
111
 21
16.5
  0
LINE
  8
0
 10
111
 20
16.5
 11
114
 21
16.5
  0
LINE
  8
0
 10
114
 20
16.5
 11
114
 21
13.5
  0
LINE
  8
0
 10
114
 20
13.5
 11
111
 21
13.5
  0
LINE
  8
0
 10
36
 20
13.5
 11
36
 21
16.5
  0
LINE
  8
0
 10
36
 20
16.5
 11
39
 21
16.5
  0
LINE
  8
0
 10
39
 20
16.5
 11
39
 21
13.5
  0
LINE
  8
0
 10
39
 20
13.5
 11
36
 21
13.5
  0
LINE
  8
0
 10
96
 20
13.5
 11
96
 21
16.5
  0
LINE
  8
0
 10
96
 20
16.5
 11
99
 21
16.5
  0
LINE
  8
0
 10
99
 20
16.5
 11
99
 21
13.5
  0
LINE
  8
0
 10
99
 20
13.5
 11
96
 21
13.5
  0
LINE
  8
0
 10
51
 20
13.5
 11
51
 21
16.5
  0
LINE
  8
0
 10
51
 20
16.5
 11
54
 21
16.5
  0
LINE
  8
0
 10
54
 20
16.5
 11
54
 21
13.5
  0
LINE
  8
0
 10
54
 20
13.5
 11
51
 21
13.5
  0
LINE
  8
0
 10
81
 20
13.5
 11
81
 21
16.5
  0
LINE
  8
0
 10
81
 20
16.5
 11
84
 21
16.5
  0
LINE
  8
0
 10
84
 20
16.5
 11
84
 21
13.5
  0
LINE
  8
0
 10
84
 20
13.5
 11
81
 21
13.5
  0
LINE
  8
0
 10
66
 20
13.5
 11
66
 21
16.5
  0
LINE
  8
0
 10
66
 20
16.5
 11
69
 21
16.5
  0
LINE
  8
0
 10
69
 20
16.5
 11
69
 21
13.5
  0
LINE
  8
0
 10
69
 20
13.5
 11
66
 21
13.5
  0
ENDSEC
  0
SECTION
  2
OBJECTS
  0
DICTIONARY
  0
ENDSEC
  0
EOF
