<svg
xmlns:dc="http://purl.org/dc/elements/1.1/"
xmlns:cc="http://creativecommons.org/ns#"
xmlns:rdf="http://www.w3.org/1999/02/22-rdf-syntax-ns#"
xmlns:svg="http://www.w3.org/2000/svg"
xmlns="http://www.w3.org/2000/svg"
xmlns:xlink="http://www.w3.org/1999/xlink"
xmlns:sodipodi="http://sodipodi.sourceforge.net/DTD/sodipodi-0.dtd"
xmlns:inkscape="http://www.inkscape.org/namespaces/inkscape"
width="283mm"
height="103mm"
id="svg2"
version="1.1"
inkscape:version="0.48.1 "
sodipodi:docname="MultiLineTextINK.svg">
	<rect
		style="fill:none;stroke:#000000;stroke-width:2px " 
		x="5mm"
		y="5mm"
		rx="5mm"
		ry="5mm"
		width="273mm"
		height="93mm"
	/>
	<path 
	style="fill:none;stroke:#000000;stroke-width:0.564445573335591px " 
	d=
	"M10 14.5
	l0 -0.4015c-0.4553,-0.2635 -0.8349,-0.6432 -1.0984,-1.0985l-0.4016 0 0 -1.5 0 -1.5 0.4016 0c0.2635,-0.4553 0.6431,-0.835 1.0984,-1.0985l0 -0.4015 1.5 0 1.5 0 0 0.4015c0.4553,0.2635 0.8349,0.6432 1.0984,1.0985l0.4016 0 0 1.5 0 1.5 -0.4016 0c-0.2635,0.4553 -0.6431,0.835 -1.0984,1.0985l0 0.4015 -1.5 0 -1.5 0z"
	transform="scale(3.5433)"
	/>
	<path 
	style="fill:none;stroke:#000000;stroke-width:0.564445573335591px " 
	d=
	"M10 34.5
	l0 -0.4015c-0.4553,-0.2635 -0.8349,-0.6432 -1.0984,-1.0985l-0.4016 0 0 -1.5 0 -1.5 0.4016 0c0.2635,-0.4553 0.6431,-0.835 1.0984,-1.0985l0 -0.4015 1.5 0 1.5 0 0 0.4015c0.4553,0.2635 0.8349,0.6432 1.0984,1.0985l0.4016 0 0 1.5 0 1.5 -0.4016 0c-0.2635,0.4553 -0.6431,0.835 -1.0984,1.0985l0 0.4015 -1.5 0 -1.5 0z"
	transform="scale(3.5433)"
	/>
	<path 
	style="fill:none;stroke:#000000;stroke-width:0.564445573335591px " 
	d=
	"M10 54.5
	l0 -0.4015c-0.4553,-0.2635 -0.8349,-0.6432 -1.0984,-1.0985l-0.4016 0 0 -1.5 0 -1.5 0.4016 0c0.2635,-0.4553 0.6431,-0.835 1.0984,-1.0985l0 -0.4015 1.5 0 1.5 0 0 0.4015c0.4553,0.2635 0.8349,0.6432 1.0984,1.0985l0.4016 0 0 1.5 0 1.5 -0.4016 0c-0.2635,0.4553 -0.6431,0.835 -1.0984,1.0985l0 0.4015 -1.5 0 -1.5 0z"
	transform="scale(3.5433)"
	/>
	<path 
	style="fill:none;stroke:#000000;stroke-width:0.564445573335591px " 
	d=
	"M10 74.5
	l0 -0.4015c-0.4553,-0.2635 -0.8349,-0.6432 -1.0984,-1.0985l-0.4016 0 0 -1.5 0 -1.5 0.4016 0c0.2635,-0.4553 0.6431,-0.835 1.0984,-1.0985l0 -0.4015 1.5 0 1.5 0 0 0.4015c0.4553,0.2635 0.8349,0.6432 1.0984,1.0985l0.4016 0 0 1.5 0 1.5 -0.4016 0c-0.2635,0.4553 -0.6431,0.835 -1.0984,1.0985l0 0.4015 -1.5 0 -1.5 0z"
	transform="scale(3.5433)"
	/>
	<path 
	style="fill:none;stroke:#000000;stroke-width:0.564445573335591px " 
	d=
	"M10 94.5
	l0 -0.4015c-0.4553,-0.2635 -0.8349,-0.6432 -1.0984,-1.0985l-0.4016 0 0 -1.5 0 -1.5 0.4016 0c0.2635,-0.4553 0.6431,-0.835 1.0984,-1.0985l0 -0.4015 1.5 0 1.5 0 0 0.4015c0.4553,0.2635 0.8349,0.6432 1.0984,1.0985l0.4016 0 0 1.5 0 1.5 -0.4016 0c-0.2635,0.4553 -0.6431,0.835 -1.0984,1.0985l0 0.4015 -1.5 0 -1.5 0z"
	transform="scale(3.5433)"
	/>
	<path 
	style="fill:none;stroke:#000000;stroke-width:0.564445573335591px " 
	d=
	"M30 14.5
	l0 -0.4015c-0.4553,-0.2635 -0.8349,-0.6432 -1.0984,-1.0985l-0.4016 0 0 -1.5 0 -1.5 0.4016 0c0.2635,-0.4553 0.6431,-0.835 1.0984,-1.0985l0 -0.4015 1.5 0 1.5 0 0 0.4015c0.4553,0.2635 0.8349,0.6432 1.0984,1.0985l0.4016 0 0 1.5 0 1.5 -0.4016 0c-0.2635,0.4553 -0.6431,0.835 -1.0984,1.0985l0 0.4015 -1.5 0 -1.5 0z"
	transform="scale(3.5433)"
	/>
	<path 
	style="fill:none;stroke:#000000;stroke-width:0.564445573335591px " 
	d=
	"M30 34.5
	l0 -0.4015c-0.4553,-0.2635 -0.8349,-0.6432 -1.0984,-1.0985l-0.4016 0 0 -1.5 0 -1.5 0.4016 0c0.2635,-0.4553 0.6431,-0.835 1.0984,-1.0985l0 -0.4015 1.5 0 1.5 0 0 0.4015c0.4553,0.2635 0.8349,0.6432 1.0984,1.0985l0.4016 0 0 1.5 0 1.5 -0.4016 0c-0.2635,0.4553 -0.6431,0.835 -1.0984,1.0985l0 0.4015 -1.5 0 -1.5 0z"
	transform="scale(3.5433)"
	/>
	<path 
	style="fill:none;stroke:#000000;stroke-width:0.564445573335591px " 
	d=
	"M30 54.5
	l0 -0.4015c-0.4553,-0.2635 -0.8349,-0.6432 -1.0984,-1.0985l-0.4016 0 0 -1.5 0 -1.5 0.4016 0c0.2635,-0.4553 0.6431,-0.835 1.0984,-1.0985l0 -0.4015 1.5 0 1.5 0 0 0.4015c0.4553,0.2635 0.8349,0.6432 1.0984,1.0985l0.4016 0 0 1.5 0 1.5 -0.4016 0c-0.2635,0.4553 -0.6431,0.835 -1.0984,1.0985l0 0.4015 -1.5 0 -1.5 0z"
	transform="scale(3.5433)"
	/>
	<path 
	style="fill:none;stroke:#000000;stroke-width:0.564445573335591px " 
	d=
	"M30 74.5
	l0 -0.4015c-0.4553,-0.2635 -0.8349,-0.6432 -1.0984,-1.0985l-0.4016 0 0 -1.5 0 -1.5 0.4016 0c0.2635,-0.4553 0.6431,-0.835 1.0984,-1.0985l0 -0.4015 1.5 0 1.5 0 0 0.4015c0.4553,0.2635 0.8349,0.6432 1.0984,1.0985l0.4016 0 0 1.5 0 1.5 -0.4016 0c-0.2635,0.4553 -0.6431,0.835 -1.0984,1.0985l0 0.4015 -1.5 0 -1.5 0z"
	transform="scale(3.5433)"
	/>
	<path 
	style="fill:none;stroke:#000000;stroke-width:0.564445573335591px " 
	d=
	"M30 94.5
	l0 -0.4015c-0.4553,-0.2635 -0.8349,-0.6432 -1.0984,-1.0985l-0.4016 0 0 -1.5 0 -1.5 0.4016 0c0.2635,-0.4553 0.6431,-0.835 1.0984,-1.0985l0 -0.4015 1.5 0 1.5 0 0 0.4015c0.4553,0.2635 0.8349,0.6432 1.0984,1.0985l0.4016 0 0 1.5 0 1.5 -0.4016 0c-0.2635,0.4553 -0.6431,0.835 -1.0984,1.0985l0 0.4015 -1.5 0 -1.5 0z"
	transform="scale(3.5433)"
	/>
	<path 
	style="fill:none;stroke:#000000;stroke-width:0.564445573335591px " 
	d=
	"M50 14.5
	l0 -0.4015c-0.4553,-0.2635 -0.8349,-0.6432 -1.0984,-1.0985l-0.4016 0 0 -1.5 0 -1.5 0.4016 0c0.2635,-0.4553 0.6431,-0.835 1.0984,-1.0985l0 -0.4015 1.5 0 1.5 0 0 0.4015c0.4553,0.2635 0.8349,0.6432 1.0984,1.0985l0.4016 0 0 1.5 0 1.5 -0.4016 0c-0.2635,0.4553 -0.6431,0.835 -1.0984,1.0985l0 0.4015 -1.5 0 -1.5 0z"
	transform="scale(3.5433)"
	/>
	<path 
	style="fill:none;stroke:#000000;stroke-width:0.564445573335591px " 
	d=
	"M50 34.5
	l0 -0.4015c-0.4553,-0.2635 -0.8349,-0.6432 -1.0984,-1.0985l-0.4016 0 0 -1.5 0 -1.5 0.4016 0c0.2635,-0.4553 0.6431,-0.835 1.0984,-1.0985l0 -0.4015 1.5 0 1.5 0 0 0.4015c0.4553,0.2635 0.8349,0.6432 1.0984,1.0985l0.4016 0 0 1.5 0 1.5 -0.4016 0c-0.2635,0.4553 -0.6431,0.835 -1.0984,1.0985l0 0.4015 -1.5 0 -1.5 0z"
	transform="scale(3.5433)"
	/>
	<path 
	style="fill:none;stroke:#000000;stroke-width:0.564445573335591px " 
	d=
	"M50 54.5
	l0 -0.4015c-0.4553,-0.2635 -0.8349,-0.6432 -1.0984,-1.0985l-0.4016 0 0 -1.5 0 -1.5 0.4016 0c0.2635,-0.4553 0.6431,-0.835 1.0984,-1.0985l0 -0.4015 1.5 0 1.5 0 0 0.4015c0.4553,0.2635 0.8349,0.6432 1.0984,1.0985l0.4016 0 0 1.5 0 1.5 -0.4016 0c-0.2635,0.4553 -0.6431,0.835 -1.0984,1.0985l0 0.4015 -1.5 0 -1.5 0z"
	transform="scale(3.5433)"
	/>
	<path 
	style="fill:none;stroke:#000000;stroke-width:0.564445573335591px " 
	d=
	"M50 74.5
	l0 -0.4015c-0.4553,-0.2635 -0.8349,-0.6432 -1.0984,-1.0985l-0.4016 0 0 -1.5 0 -1.5 0.4016 0c0.2635,-0.4553 0.6431,-0.835 1.0984,-1.0985l0 -0.4015 1.5 0 1.5 0 0 0.4015c0.4553,0.2635 0.8349,0.6432 1.0984,1.0985l0.4016 0 0 1.5 0 1.5 -0.4016 0c-0.2635,0.4553 -0.6431,0.835 -1.0984,1.0985l0 0.4015 -1.5 0 -1.5 0z"
	transform="scale(3.5433)"
	/>
	<path 
	style="fill:none;stroke:#000000;stroke-width:0.564445573335591px " 
	d=
	"M50 94.5
	l0 -0.4015c-0.4553,-0.2635 -0.8349,-0.6432 -1.0984,-1.0985l-0.4016 0 0 -1.5 0 -1.5 0.4016 0c0.2635,-0.4553 0.6431,-0.835 1.0984,-1.0985l0 -0.4015 1.5 0 1.5 0 0 0.4015c0.4553,0.2635 0.8349,0.6432 1.0984,1.0985l0.4016 0 0 1.5 0 1.5 -0.4016 0c-0.2635,0.4553 -0.6431,0.835 -1.0984,1.0985l0 0.4015 -1.5 0 -1.5 0z"
	transform="scale(3.5433)"
	/>
	<path 
	style="fill:none;stroke:#000000;stroke-width:0.564445573335591px " 
	d=
	"M70 14.5
	l0 -0.4015c-0.4553,-0.2635 -0.8349,-0.6432 -1.0984,-1.0985l-0.4016 0 0 -1.5 0 -1.5 0.4016 0c0.2635,-0.4553 0.6431,-0.835 1.0984,-1.0985l0 -0.4015 1.5 0 1.5 0 0 0.4015c0.4553,0.2635 0.8349,0.6432 1.0984,1.0985l0.4016 0 0 1.5 0 1.5 -0.4016 0c-0.2635,0.4553 -0.6431,0.835 -1.0984,1.0985l0 0.4015 -1.5 0 -1.5 0z"
	transform="scale(3.5433)"
	/>
	<path 
	style="fill:none;stroke:#000000;stroke-width:0.564445573335591px " 
	d=
	"M70 34.5
	l0 -0.4015c-0.4553,-0.2635 -0.8349,-0.6432 -1.0984,-1.0985l-0.4016 0 0 -1.5 0 -1.5 0.4016 0c0.2635,-0.4553 0.6431,-0.835 1.0984,-1.0985l0 -0.4015 1.5 0 1.5 0 0 0.4015c0.4553,0.2635 0.8349,0.6432 1.0984,1.0985l0.4016 0 0 1.5 0 1.5 -0.4016 0c-0.2635,0.4553 -0.6431,0.835 -1.0984,1.0985l0 0.4015 -1.5 0 -1.5 0z"
	transform="scale(3.5433)"
	/>
	<path 
	style="fill:none;stroke:#000000;stroke-width:0.564445573335591px " 
	d=
	"M70 54.5
	l0 -0.4015c-0.4553,-0.2635 -0.8349,-0.6432 -1.0984,-1.0985l-0.4016 0 0 -1.5 0 -1.5 0.4016 0c0.2635,-0.4553 0.6431,-0.835 1.0984,-1.0985l0 -0.4015 1.5 0 1.5 0 0 0.4015c0.4553,0.2635 0.8349,0.6432 1.0984,1.0985l0.4016 0 0 1.5 0 1.5 -0.4016 0c-0.2635,0.4553 -0.6431,0.835 -1.0984,1.0985l0 0.4015 -1.5 0 -1.5 0z"
	transform="scale(3.5433)"
	/>
	<path 
	style="fill:none;stroke:#000000;stroke-width:0.564445573335591px " 
	d=
	"M70 74.5
	l0 -0.4015c-0.4553,-0.2635 -0.8349,-0.6432 -1.0984,-1.0985l-0.4016 0 0 -1.5 0 -1.5 0.4016 0c0.2635,-0.4553 0.6431,-0.835 1.0984,-1.0985l0 -0.4015 1.5 0 1.5 0 0 0.4015c0.4553,0.2635 0.8349,0.6432 1.0984,1.0985l0.4016 0 0 1.5 0 1.5 -0.4016 0c-0.2635,0.4553 -0.6431,0.835 -1.0984,1.0985l0 0.4015 -1.5 0 -1.5 0z"
	transform="scale(3.5433)"
	/>
	<path 
	style="fill:none;stroke:#000000;stroke-width:0.564445573335591px " 
	d=
	"M70 94.5
	l0 -0.4015c-0.4553,-0.2635 -0.8349,-0.6432 -1.0984,-1.0985l-0.4016 0 0 -1.5 0 -1.5 0.4016 0c0.2635,-0.4553 0.6431,-0.835 1.0984,-1.0985l0 -0.4015 1.5 0 1.5 0 0 0.4015c0.4553,0.2635 0.8349,0.6432 1.0984,1.0985l0.4016 0 0 1.5 0 1.5 -0.4016 0c-0.2635,0.4553 -0.6431,0.835 -1.0984,1.0985l0 0.4015 -1.5 0 -1.5 0z"
	transform="scale(3.5433)"
	/>
	<path 
	style="fill:none;stroke:#000000;stroke-width:0.564445573335591px " 
	d=
	"M90 14.5
	l0 -0.4015c-0.4553,-0.2635 -0.8349,-0.6432 -1.0984,-1.0985l-0.4016 0 0 -1.5 0 -1.5 0.4016 0c0.2635,-0.4553 0.6431,-0.835 1.0984,-1.0985l0 -0.4015 1.5 0 1.5 0 0 0.4015c0.4553,0.2635 0.8349,0.6432 1.0984,1.0985l0.4016 0 0 1.5 0 1.5 -0.4016 0c-0.2635,0.4553 -0.6431,0.835 -1.0984,1.0985l0 0.4015 -1.5 0 -1.5 0z"
	transform="scale(3.5433)"
	/>
	<path 
	style="fill:none;stroke:#000000;stroke-width:0.564445573335591px " 
	d=
	"M90 34.5
	l0 -0.4015c-0.4553,-0.2635 -0.8349,-0.6432 -1.0984,-1.0985l-0.4016 0 0 -1.5 0 -1.5 0.4016 0c0.2635,-0.4553 0.6431,-0.835 1.0984,-1.0985l0 -0.4015 1.5 0 1.5 0 0 0.4015c0.4553,0.2635 0.8349,0.6432 1.0984,1.0985l0.4016 0 0 1.5 0 1.5 -0.4016 0c-0.2635,0.4553 -0.6431,0.835 -1.0984,1.0985l0 0.4015 -1.5 0 -1.5 0z"
	transform="scale(3.5433)"
	/>
	<path 
	style="fill:none;stroke:#000000;stroke-width:0.564445573335591px " 
	d=
	"M90 54.5
	l0 -0.4015c-0.4553,-0.2635 -0.8349,-0.6432 -1.0984,-1.0985l-0.4016 0 0 -1.5 0 -1.5 0.4016 0c0.2635,-0.4553 0.6431,-0.835 1.0984,-1.0985l0 -0.4015 1.5 0 1.5 0 0 0.4015c0.4553,0.2635 0.8349,0.6432 1.0984,1.0985l0.4016 0 0 1.5 0 1.5 -0.4016 0c-0.2635,0.4553 -0.6431,0.835 -1.0984,1.0985l0 0.4015 -1.5 0 -1.5 0z"
	transform="scale(3.5433)"
	/>
	<path 
	style="fill:none;stroke:#000000;stroke-width:0.564445573335591px " 
	d=
	"M90 74.5
	l0 -0.4015c-0.4553,-0.2635 -0.8349,-0.6432 -1.0984,-1.0985l-0.4016 0 0 -1.5 0 -1.5 0.4016 0c0.2635,-0.4553 0.6431,-0.835 1.0984,-1.0985l0 -0.4015 1.5 0 1.5 0 0 0.4015c0.4553,0.2635 0.8349,0.6432 1.0984,1.0985l0.4016 0 0 1.5 0 1.5 -0.4016 0c-0.2635,0.4553 -0.6431,0.835 -1.0984,1.0985l0 0.4015 -1.5 0 -1.5 0z"
	transform="scale(3.5433)"
	/>
	<path 
	style="fill:none;stroke:#000000;stroke-width:0.564445573335591px " 
	d=
	"M90 94.5
	l0 -0.4015c-0.4553,-0.2635 -0.8349,-0.6432 -1.0984,-1.0985l-0.4016 0 0 -1.5 0 -1.5 0.4016 0c0.2635,-0.4553 0.6431,-0.835 1.0984,-1.0985l0 -0.4015 1.5 0 1.5 0 0 0.4015c0.4553,0.2635 0.8349,0.6432 1.0984,1.0985l0.4016 0 0 1.5 0 1.5 -0.4016 0c-0.2635,0.4553 -0.6431,0.835 -1.0984,1.0985l0 0.4015 -1.5 0 -1.5 0z"
	transform="scale(3.5433)"
	/>
	<path 
	style="fill:none;stroke:#000000;stroke-width:0.564445573335591px " 
	d=
	"M110 14.5
	l0 -0.4015c-0.4553,-0.2635 -0.8349,-0.6432 -1.0984,-1.0985l-0.4016 0 0 -1.5 0 -1.5 0.4016 0c0.2635,-0.4553 0.6431,-0.835 1.0984,-1.0985l0 -0.4015 1.5 0 1.5 0 0 0.4015c0.4553,0.2635 0.8349,0.6432 1.0984,1.0985l0.4016 0 0 1.5 0 1.5 -0.4016 0c-0.2635,0.4553 -0.6431,0.835 -1.0984,1.0985l0 0.4015 -1.5 0 -1.5 0z"
	transform="scale(3.5433)"
	/>
	<path 
	style="fill:none;stroke:#000000;stroke-width:0.564445573335591px " 
	d=
	"M110 34.5
	l0 -0.4015c-0.4553,-0.2635 -0.8349,-0.6432 -1.0984,-1.0985l-0.4016 0 0 -1.5 0 -1.5 0.4016 0c0.2635,-0.4553 0.6431,-0.835 1.0984,-1.0985l0 -0.4015 1.5 0 1.5 0 0 0.4015c0.4553,0.2635 0.8349,0.6432 1.0984,1.0985l0.4016 0 0 1.5 0 1.5 -0.4016 0c-0.2635,0.4553 -0.6431,0.835 -1.0984,1.0985l0 0.4015 -1.5 0 -1.5 0z"
	transform="scale(3.5433)"
	/>
	<path 
	style="fill:none;stroke:#000000;stroke-width:0.564445573335591px " 
	d=
	"M110 54.5
	l0 -0.4015c-0.4553,-0.2635 -0.8349,-0.6432 -1.0984,-1.0985l-0.4016 0 0 -1.5 0 -1.5 0.4016 0c0.2635,-0.4553 0.6431,-0.835 1.0984,-1.0985l0 -0.4015 1.5 0 1.5 0 0 0.4015c0.4553,0.2635 0.8349,0.6432 1.0984,1.0985l0.4016 0 0 1.5 0 1.5 -0.4016 0c-0.2635,0.4553 -0.6431,0.835 -1.0984,1.0985l0 0.4015 -1.5 0 -1.5 0z"
	transform="scale(3.5433)"
	/>
	<path 
	style="fill:none;stroke:#000000;stroke-width:0.564445573335591px " 
	d=
	"M110 74.5
	l0 -0.4015c-0.4553,-0.2635 -0.8349,-0.6432 -1.0984,-1.0985l-0.4016 0 0 -1.5 0 -1.5 0.4016 0c0.2635,-0.4553 0.6431,-0.835 1.0984,-1.0985l0 -0.4015 1.5 0 1.5 0 0 0.4015c0.4553,0.2635 0.8349,0.6432 1.0984,1.0985l0.4016 0 0 1.5 0 1.5 -0.4016 0c-0.2635,0.4553 -0.6431,0.835 -1.0984,1.0985l0 0.4015 -1.5 0 -1.5 0z"
	transform="scale(3.5433)"
	/>
	<path 
	style="fill:none;stroke:#000000;stroke-width:0.564445573335591px " 
	d=
	"M110 94.5
	l0 -0.4015c-0.4553,-0.2635 -0.8349,-0.6432 -1.0984,-1.0985l-0.4016 0 0 -1.5 0 -1.5 0.4016 0c0.2635,-0.4553 0.6431,-0.835 1.0984,-1.0985l0 -0.4015 1.5 0 1.5 0 0 0.4015c0.4553,0.2635 0.8349,0.6432 1.0984,1.0985l0.4016 0 0 1.5 0 1.5 -0.4016 0c-0.2635,0.4553 -0.6431,0.835 -1.0984,1.0985l0 0.4015 -1.5 0 -1.5 0z"
	transform="scale(3.5433)"
	/>
	<path 
	style="fill:none;stroke:#000000;stroke-width:0.564445573335591px " 
	d=
	"M130 14.5
	l0 -0.4015c-0.4553,-0.2635 -0.8349,-0.6432 -1.0984,-1.0985l-0.4016 0 0 -1.5 0 -1.5 0.4016 0c0.2635,-0.4553 0.6431,-0.835 1.0984,-1.0985l0 -0.4015 1.5 0 1.5 0 0 0.4015c0.4553,0.2635 0.8349,0.6432 1.0984,1.0985l0.4016 0 0 1.5 0 1.5 -0.4016 0c-0.2635,0.4553 -0.6431,0.835 -1.0984,1.0985l0 0.4015 -1.5 0 -1.5 0z"
	transform="scale(3.5433)"
	/>
	<path 
	style="fill:none;stroke:#000000;stroke-width:0.564445573335591px " 
	d=
	"M130 34.5
	l0 -0.4015c-0.4553,-0.2635 -0.8349,-0.6432 -1.0984,-1.0985l-0.4016 0 0 -1.5 0 -1.5 0.4016 0c0.2635,-0.4553 0.6431,-0.835 1.0984,-1.0985l0 -0.4015 1.5 0 1.5 0 0 0.4015c0.4553,0.2635 0.8349,0.6432 1.0984,1.0985l0.4016 0 0 1.5 0 1.5 -0.4016 0c-0.2635,0.4553 -0.6431,0.835 -1.0984,1.0985l0 0.4015 -1.5 0 -1.5 0z"
	transform="scale(3.5433)"
	/>
	<path 
	style="fill:none;stroke:#000000;stroke-width:0.564445573335591px " 
	d=
	"M130 54.5
	l0 -0.4015c-0.4553,-0.2635 -0.8349,-0.6432 -1.0984,-1.0985l-0.4016 0 0 -1.5 0 -1.5 0.4016 0c0.2635,-0.4553 0.6431,-0.835 1.0984,-1.0985l0 -0.4015 1.5 0 1.5 0 0 0.4015c0.4553,0.2635 0.8349,0.6432 1.0984,1.0985l0.4016 0 0 1.5 0 1.5 -0.4016 0c-0.2635,0.4553 -0.6431,0.835 -1.0984,1.0985l0 0.4015 -1.5 0 -1.5 0z"
	transform="scale(3.5433)"
	/>
	<path 
	style="fill:none;stroke:#000000;stroke-width:0.564445573335591px " 
	d=
	"M130 74.5
	l0 -0.4015c-0.4553,-0.2635 -0.8349,-0.6432 -1.0984,-1.0985l-0.4016 0 0 -1.5 0 -1.5 0.4016 0c0.2635,-0.4553 0.6431,-0.835 1.0984,-1.0985l0 -0.4015 1.5 0 1.5 0 0 0.4015c0.4553,0.2635 0.8349,0.6432 1.0984,1.0985l0.4016 0 0 1.5 0 1.5 -0.4016 0c-0.2635,0.4553 -0.6431,0.835 -1.0984,1.0985l0 0.4015 -1.5 0 -1.5 0z"
	transform="scale(3.5433)"
	/>
	<path 
	style="fill:none;stroke:#000000;stroke-width:0.564445573335591px " 
	d=
	"M130 94.5
	l0 -0.4015c-0.4553,-0.2635 -0.8349,-0.6432 -1.0984,-1.0985l-0.4016 0 0 -1.5 0 -1.5 0.4016 0c0.2635,-0.4553 0.6431,-0.835 1.0984,-1.0985l0 -0.4015 1.5 0 1.5 0 0 0.4015c0.4553,0.2635 0.8349,0.6432 1.0984,1.0985l0.4016 0 0 1.5 0 1.5 -0.4016 0c-0.2635,0.4553 -0.6431,0.835 -1.0984,1.0985l0 0.4015 -1.5 0 -1.5 0z"
	transform="scale(3.5433)"
	/>
	<path 
	style="fill:none;stroke:#000000;stroke-width:0.564445573335591px " 
	d=
	"M150 14.5
	l0 -0.4015c-0.4553,-0.2635 -0.8349,-0.6432 -1.0984,-1.0985l-0.4016 0 0 -1.5 0 -1.5 0.4016 0c0.2635,-0.4553 0.6431,-0.835 1.0984,-1.0985l0 -0.4015 1.5 0 1.5 0 0 0.4015c0.4553,0.2635 0.8349,0.6432 1.0984,1.0985l0.4016 0 0 1.5 0 1.5 -0.4016 0c-0.2635,0.4553 -0.6431,0.835 -1.0984,1.0985l0 0.4015 -1.5 0 -1.5 0z"
	transform="scale(3.5433)"
	/>
	<path 
	style="fill:none;stroke:#000000;stroke-width:0.564445573335591px " 
	d=
	"M150 34.5
	l0 -0.4015c-0.4553,-0.2635 -0.8349,-0.6432 -1.0984,-1.0985l-0.4016 0 0 -1.5 0 -1.5 0.4016 0c0.2635,-0.4553 0.6431,-0.835 1.0984,-1.0985l0 -0.4015 1.5 0 1.5 0 0 0.4015c0.4553,0.2635 0.8349,0.6432 1.0984,1.0985l0.4016 0 0 1.5 0 1.5 -0.4016 0c-0.2635,0.4553 -0.6431,0.835 -1.0984,1.0985l0 0.4015 -1.5 0 -1.5 0z"
	transform="scale(3.5433)"
	/>
	<path 
	style="fill:none;stroke:#000000;stroke-width:0.564445573335591px " 
	d=
	"M150 54.5
	l0 -0.4015c-0.4553,-0.2635 -0.8349,-0.6432 -1.0984,-1.0985l-0.4016 0 0 -1.5 0 -1.5 0.4016 0c0.2635,-0.4553 0.6431,-0.835 1.0984,-1.0985l0 -0.4015 1.5 0 1.5 0 0 0.4015c0.4553,0.2635 0.8349,0.6432 1.0984,1.0985l0.4016 0 0 1.5 0 1.5 -0.4016 0c-0.2635,0.4553 -0.6431,0.835 -1.0984,1.0985l0 0.4015 -1.5 0 -1.5 0z"
	transform="scale(3.5433)"
	/>
	<path 
	style="fill:none;stroke:#000000;stroke-width:0.564445573335591px " 
	d=
	"M150 74.5
	l0 -0.4015c-0.4553,-0.2635 -0.8349,-0.6432 -1.0984,-1.0985l-0.4016 0 0 -1.5 0 -1.5 0.4016 0c0.2635,-0.4553 0.6431,-0.835 1.0984,-1.0985l0 -0.4015 1.5 0 1.5 0 0 0.4015c0.4553,0.2635 0.8349,0.6432 1.0984,1.0985l0.4016 0 0 1.5 0 1.5 -0.4016 0c-0.2635,0.4553 -0.6431,0.835 -1.0984,1.0985l0 0.4015 -1.5 0 -1.5 0z"
	transform="scale(3.5433)"
	/>
	<path 
	style="fill:none;stroke:#000000;stroke-width:0.564445573335591px " 
	d=
	"M150 94.5
	l0 -0.4015c-0.4553,-0.2635 -0.8349,-0.6432 -1.0984,-1.0985l-0.4016 0 0 -1.5 0 -1.5 0.4016 0c0.2635,-0.4553 0.6431,-0.835 1.0984,-1.0985l0 -0.4015 1.5 0 1.5 0 0 0.4015c0.4553,0.2635 0.8349,0.6432 1.0984,1.0985l0.4016 0 0 1.5 0 1.5 -0.4016 0c-0.2635,0.4553 -0.6431,0.835 -1.0984,1.0985l0 0.4015 -1.5 0 -1.5 0z"
	transform="scale(3.5433)"
	/>
	<path 
	style="fill:none;stroke:#000000;stroke-width:0.564445573335591px " 
	d=
	"M170 14.5
	l0 -0.4015c-0.4553,-0.2635 -0.8349,-0.6432 -1.0984,-1.0985l-0.4016 0 0 -1.5 0 -1.5 0.4016 0c0.2635,-0.4553 0.6431,-0.835 1.0984,-1.0985l0 -0.4015 1.5 0 1.5 0 0 0.4015c0.4553,0.2635 0.8349,0.6432 1.0984,1.0985l0.4016 0 0 1.5 0 1.5 -0.4016 0c-0.2635,0.4553 -0.6431,0.835 -1.0984,1.0985l0 0.4015 -1.5 0 -1.5 0z"
	transform="scale(3.5433)"
	/>
	<path 
	style="fill:none;stroke:#000000;stroke-width:0.564445573335591px " 
	d=
	"M170 34.5
	l0 -0.4015c-0.4553,-0.2635 -0.8349,-0.6432 -1.0984,-1.0985l-0.4016 0 0 -1.5 0 -1.5 0.4016 0c0.2635,-0.4553 0.6431,-0.835 1.0984,-1.0985l0 -0.4015 1.5 0 1.5 0 0 0.4015c0.4553,0.2635 0.8349,0.6432 1.0984,1.0985l0.4016 0 0 1.5 0 1.5 -0.4016 0c-0.2635,0.4553 -0.6431,0.835 -1.0984,1.0985l0 0.4015 -1.5 0 -1.5 0z"
	transform="scale(3.5433)"
	/>
	<path 
	style="fill:none;stroke:#000000;stroke-width:0.564445573335591px " 
	d=
	"M170 54.5
	l0 -0.4015c-0.4553,-0.2635 -0.8349,-0.6432 -1.0984,-1.0985l-0.4016 0 0 -1.5 0 -1.5 0.4016 0c0.2635,-0.4553 0.6431,-0.835 1.0984,-1.0985l0 -0.4015 1.5 0 1.5 0 0 0.4015c0.4553,0.2635 0.8349,0.6432 1.0984,1.0985l0.4016 0 0 1.5 0 1.5 -0.4016 0c-0.2635,0.4553 -0.6431,0.835 -1.0984,1.0985l0 0.4015 -1.5 0 -1.5 0z"
	transform="scale(3.5433)"
	/>
	<path 
	style="fill:none;stroke:#000000;stroke-width:0.564445573335591px " 
	d=
	"M170 74.5
	l0 -0.4015c-0.4553,-0.2635 -0.8349,-0.6432 -1.0984,-1.0985l-0.4016 0 0 -1.5 0 -1.5 0.4016 0c0.2635,-0.4553 0.6431,-0.835 1.0984,-1.0985l0 -0.4015 1.5 0 1.5 0 0 0.4015c0.4553,0.2635 0.8349,0.6432 1.0984,1.0985l0.4016 0 0 1.5 0 1.5 -0.4016 0c-0.2635,0.4553 -0.6431,0.835 -1.0984,1.0985l0 0.4015 -1.5 0 -1.5 0z"
	transform="scale(3.5433)"
	/>
	<path 
	style="fill:none;stroke:#000000;stroke-width:0.564445573335591px " 
	d=
	"M170 94.5
	l0 -0.4015c-0.4553,-0.2635 -0.8349,-0.6432 -1.0984,-1.0985l-0.4016 0 0 -1.5 0 -1.5 0.4016 0c0.2635,-0.4553 0.6431,-0.835 1.0984,-1.0985l0 -0.4015 1.5 0 1.5 0 0 0.4015c0.4553,0.2635 0.8349,0.6432 1.0984,1.0985l0.4016 0 0 1.5 0 1.5 -0.4016 0c-0.2635,0.4553 -0.6431,0.835 -1.0984,1.0985l0 0.4015 -1.5 0 -1.5 0z"
	transform="scale(3.5433)"
	/>
	<path 
	style="fill:none;stroke:#000000;stroke-width:0.564445573335591px " 
	d=
	"M190 14.5
	l0 -0.4015c-0.4553,-0.2635 -0.8349,-0.6432 -1.0984,-1.0985l-0.4016 0 0 -1.5 0 -1.5 0.4016 0c0.2635,-0.4553 0.6431,-0.835 1.0984,-1.0985l0 -0.4015 1.5 0 1.5 0 0 0.4015c0.4553,0.2635 0.8349,0.6432 1.0984,1.0985l0.4016 0 0 1.5 0 1.5 -0.4016 0c-0.2635,0.4553 -0.6431,0.835 -1.0984,1.0985l0 0.4015 -1.5 0 -1.5 0z"
	transform="scale(3.5433)"
	/>
	<path 
	style="fill:none;stroke:#000000;stroke-width:0.564445573335591px " 
	d=
	"M190 34.5
	l0 -0.4015c-0.4553,-0.2635 -0.8349,-0.6432 -1.0984,-1.0985l-0.4016 0 0 -1.5 0 -1.5 0.4016 0c0.2635,-0.4553 0.6431,-0.835 1.0984,-1.0985l0 -0.4015 1.5 0 1.5 0 0 0.4015c0.4553,0.2635 0.8349,0.6432 1.0984,1.0985l0.4016 0 0 1.5 0 1.5 -0.4016 0c-0.2635,0.4553 -0.6431,0.835 -1.0984,1.0985l0 0.4015 -1.5 0 -1.5 0z"
	transform="scale(3.5433)"
	/>
	<path 
	style="fill:none;stroke:#000000;stroke-width:0.564445573335591px " 
	d=
	"M190 54.5
	l0 -0.4015c-0.4553,-0.2635 -0.8349,-0.6432 -1.0984,-1.0985l-0.4016 0 0 -1.5 0 -1.5 0.4016 0c0.2635,-0.4553 0.6431,-0.835 1.0984,-1.0985l0 -0.4015 1.5 0 1.5 0 0 0.4015c0.4553,0.2635 0.8349,0.6432 1.0984,1.0985l0.4016 0 0 1.5 0 1.5 -0.4016 0c-0.2635,0.4553 -0.6431,0.835 -1.0984,1.0985l0 0.4015 -1.5 0 -1.5 0z"
	transform="scale(3.5433)"
	/>
	<path 
	style="fill:none;stroke:#000000;stroke-width:0.564445573335591px " 
	d=
	"M190 74.5
	l0 -0.4015c-0.4553,-0.2635 -0.8349,-0.6432 -1.0984,-1.0985l-0.4016 0 0 -1.5 0 -1.5 0.4016 0c0.2635,-0.4553 0.6431,-0.835 1.0984,-1.0985l0 -0.4015 1.5 0 1.5 0 0 0.4015c0.4553,0.2635 0.8349,0.6432 1.0984,1.0985l0.4016 0 0 1.5 0 1.5 -0.4016 0c-0.2635,0.4553 -0.6431,0.835 -1.0984,1.0985l0 0.4015 -1.5 0 -1.5 0z"
	transform="scale(3.5433)"
	/>
	<path 
	style="fill:none;stroke:#000000;stroke-width:0.564445573335591px " 
	d=
	"M190 94.5
	l0 -0.4015c-0.4553,-0.2635 -0.8349,-0.6432 -1.0984,-1.0985l-0.4016 0 0 -1.5 0 -1.5 0.4016 0c0.2635,-0.4553 0.6431,-0.835 1.0984,-1.0985l0 -0.4015 1.5 0 1.5 0 0 0.4015c0.4553,0.2635 0.8349,0.6432 1.0984,1.0985l0.4016 0 0 1.5 0 1.5 -0.4016 0c-0.2635,0.4553 -0.6431,0.835 -1.0984,1.0985l0 0.4015 -1.5 0 -1.5 0z"
	transform="scale(3.5433)"
	/>
	<path 
	style="fill:none;stroke:#000000;stroke-width:0.564445573335591px " 
	d=
	"M210 14.5
	l0 -0.4015c-0.4553,-0.2635 -0.8349,-0.6432 -1.0984,-1.0985l-0.4016 0 0 -1.5 0 -1.5 0.4016 0c0.2635,-0.4553 0.6431,-0.835 1.0984,-1.0985l0 -0.4015 1.5 0 1.5 0 0 0.4015c0.4553,0.2635 0.8349,0.6432 1.0984,1.0985l0.4016 0 0 1.5 0 1.5 -0.4016 0c-0.2635,0.4553 -0.6431,0.835 -1.0984,1.0985l0 0.4015 -1.5 0 -1.5 0z"
	transform="scale(3.5433)"
	/>
	<path 
	style="fill:none;stroke:#000000;stroke-width:0.564445573335591px " 
	d=
	"M210 34.5
	l0 -0.4015c-0.4553,-0.2635 -0.8349,-0.6432 -1.0984,-1.0985l-0.4016 0 0 -1.5 0 -1.5 0.4016 0c0.2635,-0.4553 0.6431,-0.835 1.0984,-1.0985l0 -0.4015 1.5 0 1.5 0 0 0.4015c0.4553,0.2635 0.8349,0.6432 1.0984,1.0985l0.4016 0 0 1.5 0 1.5 -0.4016 0c-0.2635,0.4553 -0.6431,0.835 -1.0984,1.0985l0 0.4015 -1.5 0 -1.5 0z"
	transform="scale(3.5433)"
	/>
	<path 
	style="fill:none;stroke:#000000;stroke-width:0.564445573335591px " 
	d=
	"M210 54.5
	l0 -0.4015c-0.4553,-0.2635 -0.8349,-0.6432 -1.0984,-1.0985l-0.4016 0 0 -1.5 0 -1.5 0.4016 0c0.2635,-0.4553 0.6431,-0.835 1.0984,-1.0985l0 -0.4015 1.5 0 1.5 0 0 0.4015c0.4553,0.2635 0.8349,0.6432 1.0984,1.0985l0.4016 0 0 1.5 0 1.5 -0.4016 0c-0.2635,0.4553 -0.6431,0.835 -1.0984,1.0985l0 0.4015 -1.5 0 -1.5 0z"
	transform="scale(3.5433)"
	/>
	<path 
	style="fill:none;stroke:#000000;stroke-width:0.564445573335591px " 
	d=
	"M210 74.5
	l0 -0.4015c-0.4553,-0.2635 -0.8349,-0.6432 -1.0984,-1.0985l-0.4016 0 0 -1.5 0 -1.5 0.4016 0c0.2635,-0.4553 0.6431,-0.835 1.0984,-1.0985l0 -0.4015 1.5 0 1.5 0 0 0.4015c0.4553,0.2635 0.8349,0.6432 1.0984,1.0985l0.4016 0 0 1.5 0 1.5 -0.4016 0c-0.2635,0.4553 -0.6431,0.835 -1.0984,1.0985l0 0.4015 -1.5 0 -1.5 0z"
	transform="scale(3.5433)"
	/>
	<path 
	style="fill:none;stroke:#000000;stroke-width:0.564445573335591px " 
	d=
	"M210 94.5
	l0 -0.4015c-0.4553,-0.2635 -0.8349,-0.6432 -1.0984,-1.0985l-0.4016 0 0 -1.5 0 -1.5 0.4016 0c0.2635,-0.4553 0.6431,-0.835 1.0984,-1.0985l0 -0.4015 1.5 0 1.5 0 0 0.4015c0.4553,0.2635 0.8349,0.6432 1.0984,1.0985l0.4016 0 0 1.5 0 1.5 -0.4016 0c-0.2635,0.4553 -0.6431,0.835 -1.0984,1.0985l0 0.4015 -1.5 0 -1.5 0z"
	transform="scale(3.5433)"
	/>
	<path 
	style="fill:none;stroke:#000000;stroke-width:0.564445573335591px " 
	d=
	"M230 14.5
	l0 -0.4015c-0.4553,-0.2635 -0.8349,-0.6432 -1.0984,-1.0985l-0.4016 0 0 -1.5 0 -1.5 0.4016 0c0.2635,-0.4553 0.6431,-0.835 1.0984,-1.0985l0 -0.4015 1.5 0 1.5 0 0 0.4015c0.4553,0.2635 0.8349,0.6432 1.0984,1.0985l0.4016 0 0 1.5 0 1.5 -0.4016 0c-0.2635,0.4553 -0.6431,0.835 -1.0984,1.0985l0 0.4015 -1.5 0 -1.5 0z"
	transform="scale(3.5433)"
	/>
	<path 
	style="fill:none;stroke:#000000;stroke-width:0.564445573335591px " 
	d=
	"M230 34.5
	l0 -0.4015c-0.4553,-0.2635 -0.8349,-0.6432 -1.0984,-1.0985l-0.4016 0 0 -1.5 0 -1.5 0.4016 0c0.2635,-0.4553 0.6431,-0.835 1.0984,-1.0985l0 -0.4015 1.5 0 1.5 0 0 0.4015c0.4553,0.2635 0.8349,0.6432 1.0984,1.0985l0.4016 0 0 1.5 0 1.5 -0.4016 0c-0.2635,0.4553 -0.6431,0.835 -1.0984,1.0985l0 0.4015 -1.5 0 -1.5 0z"
	transform="scale(3.5433)"
	/>
	<path 
	style="fill:none;stroke:#000000;stroke-width:0.564445573335591px " 
	d=
	"M230 54.5
	l0 -0.4015c-0.4553,-0.2635 -0.8349,-0.6432 -1.0984,-1.0985l-0.4016 0 0 -1.5 0 -1.5 0.4016 0c0.2635,-0.4553 0.6431,-0.835 1.0984,-1.0985l0 -0.4015 1.5 0 1.5 0 0 0.4015c0.4553,0.2635 0.8349,0.6432 1.0984,1.0985l0.4016 0 0 1.5 0 1.5 -0.4016 0c-0.2635,0.4553 -0.6431,0.835 -1.0984,1.0985l0 0.4015 -1.5 0 -1.5 0z"
	transform="scale(3.5433)"
	/>
	<path 
	style="fill:none;stroke:#000000;stroke-width:0.564445573335591px " 
	d=
	"M230 74.5
	l0 -0.4015c-0.4553,-0.2635 -0.8349,-0.6432 -1.0984,-1.0985l-0.4016 0 0 -1.5 0 -1.5 0.4016 0c0.2635,-0.4553 0.6431,-0.835 1.0984,-1.0985l0 -0.4015 1.5 0 1.5 0 0 0.4015c0.4553,0.2635 0.8349,0.6432 1.0984,1.0985l0.4016 0 0 1.5 0 1.5 -0.4016 0c-0.2635,0.4553 -0.6431,0.835 -1.0984,1.0985l0 0.4015 -1.5 0 -1.5 0z"
	transform="scale(3.5433)"
	/>
	<path 
	style="fill:none;stroke:#000000;stroke-width:0.564445573335591px " 
	d=
	"M230 94.5
	l0 -0.4015c-0.4553,-0.2635 -0.8349,-0.6432 -1.0984,-1.0985l-0.4016 0 0 -1.5 0 -1.5 0.4016 0c0.2635,-0.4553 0.6431,-0.835 1.0984,-1.0985l0 -0.4015 1.5 0 1.5 0 0 0.4015c0.4553,0.2635 0.8349,0.6432 1.0984,1.0985l0.4016 0 0 1.5 0 1.5 -0.4016 0c-0.2635,0.4553 -0.6431,0.835 -1.0984,1.0985l0 0.4015 -1.5 0 -1.5 0z"
	transform="scale(3.5433)"
	/>
	<path 
	style="fill:none;stroke:#000000;stroke-width:0.564445573335591px " 
	d=
	"M250 14.5
	l0 -0.4015c-0.4553,-0.2635 -0.8349,-0.6432 -1.0984,-1.0985l-0.4016 0 0 -1.5 0 -1.5 0.4016 0c0.2635,-0.4553 0.6431,-0.835 1.0984,-1.0985l0 -0.4015 1.5 0 1.5 0 0 0.4015c0.4553,0.2635 0.8349,0.6432 1.0984,1.0985l0.4016 0 0 1.5 0 1.5 -0.4016 0c-0.2635,0.4553 -0.6431,0.835 -1.0984,1.0985l0 0.4015 -1.5 0 -1.5 0z"
	transform="scale(3.5433)"
	/>
	<path 
	style="fill:none;stroke:#000000;stroke-width:0.564445573335591px " 
	d=
	"M250 34.5
	l0 -0.4015c-0.4553,-0.2635 -0.8349,-0.6432 -1.0984,-1.0985l-0.4016 0 0 -1.5 0 -1.5 0.4016 0c0.2635,-0.4553 0.6431,-0.835 1.0984,-1.0985l0 -0.4015 1.5 0 1.5 0 0 0.4015c0.4553,0.2635 0.8349,0.6432 1.0984,1.0985l0.4016 0 0 1.5 0 1.5 -0.4016 0c-0.2635,0.4553 -0.6431,0.835 -1.0984,1.0985l0 0.4015 -1.5 0 -1.5 0z"
	transform="scale(3.5433)"
	/>
	<path 
	style="fill:none;stroke:#000000;stroke-width:0.564445573335591px " 
	d=
	"M250 54.5
	l0 -0.4015c-0.4553,-0.2635 -0.8349,-0.6432 -1.0984,-1.0985l-0.4016 0 0 -1.5 0 -1.5 0.4016 0c0.2635,-0.4553 0.6431,-0.835 1.0984,-1.0985l0 -0.4015 1.5 0 1.5 0 0 0.4015c0.4553,0.2635 0.8349,0.6432 1.0984,1.0985l0.4016 0 0 1.5 0 1.5 -0.4016 0c-0.2635,0.4553 -0.6431,0.835 -1.0984,1.0985l0 0.4015 -1.5 0 -1.5 0z"
	transform="scale(3.5433)"
	/>
	<path 
	style="fill:none;stroke:#000000;stroke-width:0.564445573335591px " 
	d=
	"M250 74.5
	l0 -0.4015c-0.4553,-0.2635 -0.8349,-0.6432 -1.0984,-1.0985l-0.4016 0 0 -1.5 0 -1.5 0.4016 0c0.2635,-0.4553 0.6431,-0.835 1.0984,-1.0985l0 -0.4015 1.5 0 1.5 0 0 0.4015c0.4553,0.2635 0.8349,0.6432 1.0984,1.0985l0.4016 0 0 1.5 0 1.5 -0.4016 0c-0.2635,0.4553 -0.6431,0.835 -1.0984,1.0985l0 0.4015 -1.5 0 -1.5 0z"
	transform="scale(3.5433)"
	/>
	<path 
	style="fill:none;stroke:#000000;stroke-width:0.564445573335591px " 
	d=
	"M250 94.5
	l0 -0.4015c-0.4553,-0.2635 -0.8349,-0.6432 -1.0984,-1.0985l-0.4016 0 0 -1.5 0 -1.5 0.4016 0c0.2635,-0.4553 0.6431,-0.835 1.0984,-1.0985l0 -0.4015 1.5 0 1.5 0 0 0.4015c0.4553,0.2635 0.8349,0.6432 1.0984,1.0985l0.4016 0 0 1.5 0 1.5 -0.4016 0c-0.2635,0.4553 -0.6431,0.835 -1.0984,1.0985l0 0.4015 -1.5 0 -1.5 0z"
	transform="scale(3.5433)"
	/>
	<path 
	style="fill:none;stroke:#000000;stroke-width:0.564445573335591px " 
	d=
	"M270 14.5
	l0 -0.4015c-0.4553,-0.2635 -0.8349,-0.6432 -1.0984,-1.0985l-0.4016 0 0 -1.5 0 -1.5 0.4016 0c0.2635,-0.4553 0.6431,-0.835 1.0984,-1.0985l0 -0.4015 1.5 0 1.5 0 0 0.4015c0.4553,0.2635 0.8349,0.6432 1.0984,1.0985l0.4016 0 0 1.5 0 1.5 -0.4016 0c-0.2635,0.4553 -0.6431,0.835 -1.0984,1.0985l0 0.4015 -1.5 0 -1.5 0z"
	transform="scale(3.5433)"
	/>
	<path 
	style="fill:none;stroke:#000000;stroke-width:0.564445573335591px " 
	d=
	"M270 34.5
	l0 -0.4015c-0.4553,-0.2635 -0.8349,-0.6432 -1.0984,-1.0985l-0.4016 0 0 -1.5 0 -1.5 0.4016 0c0.2635,-0.4553 0.6431,-0.835 1.0984,-1.0985l0 -0.4015 1.5 0 1.5 0 0 0.4015c0.4553,0.2635 0.8349,0.6432 1.0984,1.0985l0.4016 0 0 1.5 0 1.5 -0.4016 0c-0.2635,0.4553 -0.6431,0.835 -1.0984,1.0985l0 0.4015 -1.5 0 -1.5 0z"
	transform="scale(3.5433)"
	/>
	<path 
	style="fill:none;stroke:#000000;stroke-width:0.564445573335591px " 
	d=
	"M270 54.5
	l0 -0.4015c-0.4553,-0.2635 -0.8349,-0.6432 -1.0984,-1.0985l-0.4016 0 0 -1.5 0 -1.5 0.4016 0c0.2635,-0.4553 0.6431,-0.835 1.0984,-1.0985l0 -0.4015 1.5 0 1.5 0 0 0.4015c0.4553,0.2635 0.8349,0.6432 1.0984,1.0985l0.4016 0 0 1.5 0 1.5 -0.4016 0c-0.2635,0.4553 -0.6431,0.835 -1.0984,1.0985l0 0.4015 -1.5 0 -1.5 0z"
	transform="scale(3.5433)"
	/>
	<path 
	style="fill:none;stroke:#000000;stroke-width:0.564445573335591px " 
	d=
	"M270 74.5
	l0 -0.4015c-0.4553,-0.2635 -0.8349,-0.6432 -1.0984,-1.0985l-0.4016 0 0 -1.5 0 -1.5 0.4016 0c0.2635,-0.4553 0.6431,-0.835 1.0984,-1.0985l0 -0.4015 1.5 0 1.5 0 0 0.4015c0.4553,0.2635 0.8349,0.6432 1.0984,1.0985l0.4016 0 0 1.5 0 1.5 -0.4016 0c-0.2635,0.4553 -0.6431,0.835 -1.0984,1.0985l0 0.4015 -1.5 0 -1.5 0z"
	transform="scale(3.5433)"
	/>
	<path 
	style="fill:none;stroke:#000000;stroke-width:0.564445573335591px " 
	d=
	"M270 94.5
	l0 -0.4015c-0.4553,-0.2635 -0.8349,-0.6432 -1.0984,-1.0985l-0.4016 0 0 -1.5 0 -1.5 0.4016 0c0.2635,-0.4553 0.6431,-0.835 1.0984,-1.0985l0 -0.4015 1.5 0 1.5 0 0 0.4015c0.4553,0.2635 0.8349,0.6432 1.0984,1.0985l0.4016 0 0 1.5 0 1.5 -0.4016 0c-0.2635,0.4553 -0.6431,0.835 -1.0984,1.0985l0 0.4015 -1.5 0 -1.5 0z"
	transform="scale(3.5433)"
	/>
	<rect
		style="fill:none;stroke:#000000;stroke-width:2px " 
		x="10mm"
		y="78.5mm"
		width="3mm"
		height="6mm"
		id="oomID13248"
	/>
	<rect
		style="fill:none;stroke:#000000;stroke-width:2px " 
		x="10mm"
		y="58.5mm"
		width="3mm"
		height="6mm"
		id="oomID13249"
	/>
	<rect
		style="fill:none;stroke:#000000;stroke-width:2px " 
		x="10mm"
		y="38.5mm"
		width="3mm"
		height="6mm"
		id="oomID13250"
	/>
	<rect
		style="fill:none;stroke:#000000;stroke-width:2px " 
		x="10mm"
		y="18.5mm"
		width="3mm"
		height="6mm"
		id="oomID13251"
	/>
	<rect
		style="fill:none;stroke:#000000;stroke-width:2px " 
		x="30mm"
		y="78.5mm"
		width="3mm"
		height="6mm"
		id="oomID13252"
	/>
	<rect
		style="fill:none;stroke:#000000;stroke-width:2px " 
		x="30mm"
		y="58.5mm"
		width="3mm"
		height="6mm"
		id="oomID13253"
	/>
	<rect
		style="fill:none;stroke:#000000;stroke-width:2px " 
		x="30mm"
		y="38.5mm"
		width="3mm"
		height="6mm"
		id="oomID13254"
	/>
	<rect
		style="fill:none;stroke:#000000;stroke-width:2px " 
		x="30mm"
		y="18.5mm"
		width="3mm"
		height="6mm"
		id="oomID13255"
	/>
	<rect
		style="fill:none;stroke:#000000;stroke-width:2px " 
		x="50mm"
		y="78.5mm"
		width="3mm"
		height="6mm"
		id="oomID13256"
	/>
	<rect
		style="fill:none;stroke:#000000;stroke-width:2px " 
		x="50mm"
		y="58.5mm"
		width="3mm"
		height="6mm"
		id="oomID13257"
	/>
	<rect
		style="fill:none;stroke:#000000;stroke-width:2px " 
		x="50mm"
		y="38.5mm"
		width="3mm"
		height="6mm"
		id="oomID13258"
	/>
	<rect
		style="fill:none;stroke:#000000;stroke-width:2px " 
		x="50mm"
		y="18.5mm"
		width="3mm"
		height="6mm"
		id="oomID13259"
	/>
	<rect
		style="fill:none;stroke:#000000;stroke-width:2px " 
		x="70mm"
		y="78.5mm"
		width="3mm"
		height="6mm"
		id="oomID13260"
	/>
	<rect
		style="fill:none;stroke:#000000;stroke-width:2px " 
		x="70mm"
		y="58.5mm"
		width="3mm"
		height="6mm"
		id="oomID13261"
	/>
	<rect
		style="fill:none;stroke:#000000;stroke-width:2px " 
		x="70mm"
		y="38.5mm"
		width="3mm"
		height="6mm"
		id="oomID13262"
	/>
	<rect
		style="fill:none;stroke:#000000;stroke-width:2px " 
		x="70mm"
		y="18.5mm"
		width="3mm"
		height="6mm"
		id="oomID13263"
	/>
	<rect
		style="fill:none;stroke:#000000;stroke-width:2px " 
		x="90mm"
		y="78.5mm"
		width="3mm"
		height="6mm"
		id="oomID13264"
	/>
	<rect
		style="fill:none;stroke:#000000;stroke-width:2px " 
		x="90mm"
		y="58.5mm"
		width="3mm"
		height="6mm"
		id="oomID13265"
	/>
	<rect
		style="fill:none;stroke:#000000;stroke-width:2px " 
		x="90mm"
		y="38.5mm"
		width="3mm"
		height="6mm"
		id="oomID13266"
	/>
	<rect
		style="fill:none;stroke:#000000;stroke-width:2px " 
		x="90mm"
		y="18.5mm"
		width="3mm"
		height="6mm"
		id="oomID13267"
	/>
	<rect
		style="fill:none;stroke:#000000;stroke-width:2px " 
		x="110mm"
		y="78.5mm"
		width="3mm"
		height="6mm"
		id="oomID13268"
	/>
	<rect
		style="fill:none;stroke:#000000;stroke-width:2px " 
		x="110mm"
		y="58.5mm"
		width="3mm"
		height="6mm"
		id="oomID13269"
	/>
	<rect
		style="fill:none;stroke:#000000;stroke-width:2px " 
		x="110mm"
		y="38.5mm"
		width="3mm"
		height="6mm"
		id="oomID13270"
	/>
	<rect
		style="fill:none;stroke:#000000;stroke-width:2px " 
		x="110mm"
		y="18.5mm"
		width="3mm"
		height="6mm"
		id="oomID13271"
	/>
	<rect
		style="fill:none;stroke:#000000;stroke-width:2px " 
		x="130mm"
		y="78.5mm"
		width="3mm"
		height="6mm"
		id="oomID13272"
	/>
	<rect
		style="fill:none;stroke:#000000;stroke-width:2px " 
		x="130mm"
		y="58.5mm"
		width="3mm"
		height="6mm"
		id="oomID13273"
	/>
	<rect
		style="fill:none;stroke:#000000;stroke-width:2px " 
		x="130mm"
		y="38.5mm"
		width="3mm"
		height="6mm"
		id="oomID13274"
	/>
	<rect
		style="fill:none;stroke:#000000;stroke-width:2px " 
		x="130mm"
		y="18.5mm"
		width="3mm"
		height="6mm"
		id="oomID13275"
	/>
	<rect
		style="fill:none;stroke:#000000;stroke-width:2px " 
		x="150mm"
		y="78.5mm"
		width="3mm"
		height="6mm"
		id="oomID13276"
	/>
	<rect
		style="fill:none;stroke:#000000;stroke-width:2px " 
		x="150mm"
		y="58.5mm"
		width="3mm"
		height="6mm"
		id="oomID13277"
	/>
	<rect
		style="fill:none;stroke:#000000;stroke-width:2px " 
		x="150mm"
		y="38.5mm"
		width="3mm"
		height="6mm"
		id="oomID13278"
	/>
	<rect
		style="fill:none;stroke:#000000;stroke-width:2px " 
		x="150mm"
		y="18.5mm"
		width="3mm"
		height="6mm"
		id="oomID13279"
	/>
	<rect
		style="fill:none;stroke:#000000;stroke-width:2px " 
		x="170mm"
		y="78.5mm"
		width="3mm"
		height="6mm"
		id="oomID13280"
	/>
	<rect
		style="fill:none;stroke:#000000;stroke-width:2px " 
		x="170mm"
		y="58.5mm"
		width="3mm"
		height="6mm"
		id="oomID13281"
	/>
	<rect
		style="fill:none;stroke:#000000;stroke-width:2px " 
		x="170mm"
		y="38.5mm"
		width="3mm"
		height="6mm"
		id="oomID13282"
	/>
	<rect
		style="fill:none;stroke:#000000;stroke-width:2px " 
		x="170mm"
		y="18.5mm"
		width="3mm"
		height="6mm"
		id="oomID13283"
	/>
	<rect
		style="fill:none;stroke:#000000;stroke-width:2px " 
		x="190mm"
		y="78.5mm"
		width="3mm"
		height="6mm"
		id="oomID13284"
	/>
	<rect
		style="fill:none;stroke:#000000;stroke-width:2px " 
		x="190mm"
		y="58.5mm"
		width="3mm"
		height="6mm"
		id="oomID13285"
	/>
	<rect
		style="fill:none;stroke:#000000;stroke-width:2px " 
		x="190mm"
		y="38.5mm"
		width="3mm"
		height="6mm"
		id="oomID13286"
	/>
	<rect
		style="fill:none;stroke:#000000;stroke-width:2px " 
		x="190mm"
		y="18.5mm"
		width="3mm"
		height="6mm"
		id="oomID13287"
	/>
	<rect
		style="fill:none;stroke:#000000;stroke-width:2px " 
		x="210mm"
		y="78.5mm"
		width="3mm"
		height="6mm"
		id="oomID13288"
	/>
	<rect
		style="fill:none;stroke:#000000;stroke-width:2px " 
		x="210mm"
		y="58.5mm"
		width="3mm"
		height="6mm"
		id="oomID13289"
	/>
	<rect
		style="fill:none;stroke:#000000;stroke-width:2px " 
		x="210mm"
		y="38.5mm"
		width="3mm"
		height="6mm"
		id="oomID13290"
	/>
	<rect
		style="fill:none;stroke:#000000;stroke-width:2px " 
		x="210mm"
		y="18.5mm"
		width="3mm"
		height="6mm"
		id="oomID13291"
	/>
	<rect
		style="fill:none;stroke:#000000;stroke-width:2px " 
		x="230mm"
		y="78.5mm"
		width="3mm"
		height="6mm"
		id="oomID13292"
	/>
	<rect
		style="fill:none;stroke:#000000;stroke-width:2px " 
		x="230mm"
		y="58.5mm"
		width="3mm"
		height="6mm"
		id="oomID13293"
	/>
	<rect
		style="fill:none;stroke:#000000;stroke-width:2px " 
		x="230mm"
		y="38.5mm"
		width="3mm"
		height="6mm"
		id="oomID13294"
	/>
	<rect
		style="fill:none;stroke:#000000;stroke-width:2px " 
		x="230mm"
		y="18.5mm"
		width="3mm"
		height="6mm"
		id="oomID13295"
	/>
	<rect
		style="fill:none;stroke:#000000;stroke-width:2px " 
		x="250mm"
		y="78.5mm"
		width="3mm"
		height="6mm"
		id="oomID13296"
	/>
	<rect
		style="fill:none;stroke:#000000;stroke-width:2px " 
		x="250mm"
		y="58.5mm"
		width="3mm"
		height="6mm"
		id="oomID13297"
	/>
	<rect
		style="fill:none;stroke:#000000;stroke-width:2px " 
		x="250mm"
		y="38.5mm"
		width="3mm"
		height="6mm"
		id="oomID13298"
	/>
	<rect
		style="fill:none;stroke:#000000;stroke-width:2px " 
		x="250mm"
		y="18.5mm"
		width="3mm"
		height="6mm"
		id="oomID13299"
	/>
	<rect
		style="fill:none;stroke:#000000;stroke-width:2px " 
		x="270mm"
		y="78.5mm"
		width="3mm"
		height="6mm"
		id="oomID13300"
	/>
	<rect
		style="fill:none;stroke:#000000;stroke-width:2px " 
		x="270mm"
		y="58.5mm"
		width="3mm"
		height="6mm"
		id="oomID13301"
	/>
	<rect
		style="fill:none;stroke:#000000;stroke-width:2px " 
		x="270mm"
		y="38.5mm"
		width="3mm"
		height="6mm"
		id="oomID13302"
	/>
	<rect
		style="fill:none;stroke:#000000;stroke-width:2px " 
		x="270mm"
		y="18.5mm"
		width="3mm"
		height="6mm"
		id="oomID13303"
	/>
	<rect
		style="fill:none;stroke:#000000;stroke-width:2px " 
		x="18.5mm"
		y="90mm"
		width="6mm"
		height="3mm"
		id="oomID13304"
	/>
	<rect
		style="fill:none;stroke:#000000;stroke-width:2px " 
		x="18.5mm"
		y="70mm"
		width="6mm"
		height="3mm"
		id="oomID13305"
	/>
	<rect
		style="fill:none;stroke:#000000;stroke-width:2px " 
		x="18.5mm"
		y="50mm"
		width="6mm"
		height="3mm"
		id="oomID13306"
	/>
	<rect
		style="fill:none;stroke:#000000;stroke-width:2px " 
		x="18.5mm"
		y="30mm"
		width="6mm"
		height="3mm"
		id="oomID13307"
	/>
	<rect
		style="fill:none;stroke:#000000;stroke-width:2px " 
		x="18.5mm"
		y="10mm"
		width="6mm"
		height="3mm"
		id="oomID13308"
	/>
	<rect
		style="fill:none;stroke:#000000;stroke-width:2px " 
		x="38.5mm"
		y="90mm"
		width="6mm"
		height="3mm"
		id="oomID13309"
	/>
	<rect
		style="fill:none;stroke:#000000;stroke-width:2px " 
		x="38.5mm"
		y="70mm"
		width="6mm"
		height="3mm"
		id="oomID13310"
	/>
	<rect
		style="fill:none;stroke:#000000;stroke-width:2px " 
		x="38.5mm"
		y="50mm"
		width="6mm"
		height="3mm"
		id="oomID13311"
	/>
	<rect
		style="fill:none;stroke:#000000;stroke-width:2px " 
		x="38.5mm"
		y="30mm"
		width="6mm"
		height="3mm"
		id="oomID13312"
	/>
	<rect
		style="fill:none;stroke:#000000;stroke-width:2px " 
		x="38.5mm"
		y="10mm"
		width="6mm"
		height="3mm"
		id="oomID13313"
	/>
	<rect
		style="fill:none;stroke:#000000;stroke-width:2px " 
		x="58.5mm"
		y="90mm"
		width="6mm"
		height="3mm"
		id="oomID13314"
	/>
	<rect
		style="fill:none;stroke:#000000;stroke-width:2px " 
		x="58.5mm"
		y="70mm"
		width="6mm"
		height="3mm"
		id="oomID13315"
	/>
	<rect
		style="fill:none;stroke:#000000;stroke-width:2px " 
		x="58.5mm"
		y="50mm"
		width="6mm"
		height="3mm"
		id="oomID13316"
	/>
	<rect
		style="fill:none;stroke:#000000;stroke-width:2px " 
		x="58.5mm"
		y="30mm"
		width="6mm"
		height="3mm"
		id="oomID13317"
	/>
	<rect
		style="fill:none;stroke:#000000;stroke-width:2px " 
		x="58.5mm"
		y="10mm"
		width="6mm"
		height="3mm"
		id="oomID13318"
	/>
	<rect
		style="fill:none;stroke:#000000;stroke-width:2px " 
		x="78.5mm"
		y="90mm"
		width="6mm"
		height="3mm"
		id="oomID13319"
	/>
	<rect
		style="fill:none;stroke:#000000;stroke-width:2px " 
		x="78.5mm"
		y="70mm"
		width="6mm"
		height="3mm"
		id="oomID13320"
	/>
	<rect
		style="fill:none;stroke:#000000;stroke-width:2px " 
		x="78.5mm"
		y="50mm"
		width="6mm"
		height="3mm"
		id="oomID13321"
	/>
	<rect
		style="fill:none;stroke:#000000;stroke-width:2px " 
		x="78.5mm"
		y="30mm"
		width="6mm"
		height="3mm"
		id="oomID13322"
	/>
	<rect
		style="fill:none;stroke:#000000;stroke-width:2px " 
		x="78.5mm"
		y="10mm"
		width="6mm"
		height="3mm"
		id="oomID13323"
	/>
	<rect
		style="fill:none;stroke:#000000;stroke-width:2px " 
		x="98.5mm"
		y="90mm"
		width="6mm"
		height="3mm"
		id="oomID13324"
	/>
	<rect
		style="fill:none;stroke:#000000;stroke-width:2px " 
		x="98.5mm"
		y="70mm"
		width="6mm"
		height="3mm"
		id="oomID13325"
	/>
	<rect
		style="fill:none;stroke:#000000;stroke-width:2px " 
		x="98.5mm"
		y="50mm"
		width="6mm"
		height="3mm"
		id="oomID13326"
	/>
	<rect
		style="fill:none;stroke:#000000;stroke-width:2px " 
		x="98.5mm"
		y="30mm"
		width="6mm"
		height="3mm"
		id="oomID13327"
	/>
	<rect
		style="fill:none;stroke:#000000;stroke-width:2px " 
		x="98.5mm"
		y="10mm"
		width="6mm"
		height="3mm"
		id="oomID13328"
	/>
	<rect
		style="fill:none;stroke:#000000;stroke-width:2px " 
		x="118.5mm"
		y="90mm"
		width="6mm"
		height="3mm"
		id="oomID13329"
	/>
	<rect
		style="fill:none;stroke:#000000;stroke-width:2px " 
		x="118.5mm"
		y="70mm"
		width="6mm"
		height="3mm"
		id="oomID13330"
	/>
	<rect
		style="fill:none;stroke:#000000;stroke-width:2px " 
		x="118.5mm"
		y="50mm"
		width="6mm"
		height="3mm"
		id="oomID13331"
	/>
	<rect
		style="fill:none;stroke:#000000;stroke-width:2px " 
		x="118.5mm"
		y="30mm"
		width="6mm"
		height="3mm"
		id="oomID13332"
	/>
	<rect
		style="fill:none;stroke:#000000;stroke-width:2px " 
		x="118.5mm"
		y="10mm"
		width="6mm"
		height="3mm"
		id="oomID13333"
	/>
	<rect
		style="fill:none;stroke:#000000;stroke-width:2px " 
		x="138.5mm"
		y="90mm"
		width="6mm"
		height="3mm"
		id="oomID13334"
	/>
	<rect
		style="fill:none;stroke:#000000;stroke-width:2px " 
		x="138.5mm"
		y="70mm"
		width="6mm"
		height="3mm"
		id="oomID13335"
	/>
	<rect
		style="fill:none;stroke:#000000;stroke-width:2px " 
		x="138.5mm"
		y="50mm"
		width="6mm"
		height="3mm"
		id="oomID13336"
	/>
	<rect
		style="fill:none;stroke:#000000;stroke-width:2px " 
		x="138.5mm"
		y="30mm"
		width="6mm"
		height="3mm"
		id="oomID13337"
	/>
	<rect
		style="fill:none;stroke:#000000;stroke-width:2px " 
		x="138.5mm"
		y="10mm"
		width="6mm"
		height="3mm"
		id="oomID13338"
	/>
	<rect
		style="fill:none;stroke:#000000;stroke-width:2px " 
		x="158.5mm"
		y="90mm"
		width="6mm"
		height="3mm"
		id="oomID13339"
	/>
	<rect
		style="fill:none;stroke:#000000;stroke-width:2px " 
		x="158.5mm"
		y="70mm"
		width="6mm"
		height="3mm"
		id="oomID13340"
	/>
	<rect
		style="fill:none;stroke:#000000;stroke-width:2px " 
		x="158.5mm"
		y="50mm"
		width="6mm"
		height="3mm"
		id="oomID13341"
	/>
	<rect
		style="fill:none;stroke:#000000;stroke-width:2px " 
		x="158.5mm"
		y="30mm"
		width="6mm"
		height="3mm"
		id="oomID13342"
	/>
	<rect
		style="fill:none;stroke:#000000;stroke-width:2px " 
		x="158.5mm"
		y="10mm"
		width="6mm"
		height="3mm"
		id="oomID13343"
	/>
	<rect
		style="fill:none;stroke:#000000;stroke-width:2px " 
		x="178.5mm"
		y="90mm"
		width="6mm"
		height="3mm"
		id="oomID13344"
	/>
	<rect
		style="fill:none;stroke:#000000;stroke-width:2px " 
		x="178.5mm"
		y="70mm"
		width="6mm"
		height="3mm"
		id="oomID13345"
	/>
	<rect
		style="fill:none;stroke:#000000;stroke-width:2px " 
		x="178.5mm"
		y="50mm"
		width="6mm"
		height="3mm"
		id="oomID13346"
	/>
	<rect
		style="fill:none;stroke:#000000;stroke-width:2px " 
		x="178.5mm"
		y="30mm"
		width="6mm"
		height="3mm"
		id="oomID13347"
	/>
	<rect
		style="fill:none;stroke:#000000;stroke-width:2px " 
		x="178.5mm"
		y="10mm"
		width="6mm"
		height="3mm"
		id="oomID13348"
	/>
	<rect
		style="fill:none;stroke:#000000;stroke-width:2px " 
		x="198.5mm"
		y="90mm"
		width="6mm"
		height="3mm"
		id="oomID13349"
	/>
	<rect
		style="fill:none;stroke:#000000;stroke-width:2px " 
		x="198.5mm"
		y="70mm"
		width="6mm"
		height="3mm"
		id="oomID13350"
	/>
	<rect
		style="fill:none;stroke:#000000;stroke-width:2px " 
		x="198.5mm"
		y="50mm"
		width="6mm"
		height="3mm"
		id="oomID13351"
	/>
	<rect
		style="fill:none;stroke:#000000;stroke-width:2px " 
		x="198.5mm"
		y="30mm"
		width="6mm"
		height="3mm"
		id="oomID13352"
	/>
	<rect
		style="fill:none;stroke:#000000;stroke-width:2px " 
		x="198.5mm"
		y="10mm"
		width="6mm"
		height="3mm"
		id="oomID13353"
	/>
	<rect
		style="fill:none;stroke:#000000;stroke-width:2px " 
		x="218.5mm"
		y="90mm"
		width="6mm"
		height="3mm"
		id="oomID13354"
	/>
	<rect
		style="fill:none;stroke:#000000;stroke-width:2px " 
		x="218.5mm"
		y="70mm"
		width="6mm"
		height="3mm"
		id="oomID13355"
	/>
	<rect
		style="fill:none;stroke:#000000;stroke-width:2px " 
		x="218.5mm"
		y="50mm"
		width="6mm"
		height="3mm"
		id="oomID13356"
	/>
	<rect
		style="fill:none;stroke:#000000;stroke-width:2px " 
		x="218.5mm"
		y="30mm"
		width="6mm"
		height="3mm"
		id="oomID13357"
	/>
	<rect
		style="fill:none;stroke:#000000;stroke-width:2px " 
		x="218.5mm"
		y="10mm"
		width="6mm"
		height="3mm"
		id="oomID13358"
	/>
	<rect
		style="fill:none;stroke:#000000;stroke-width:2px " 
		x="238.5mm"
		y="90mm"
		width="6mm"
		height="3mm"
		id="oomID13359"
	/>
	<rect
		style="fill:none;stroke:#000000;stroke-width:2px " 
		x="238.5mm"
		y="70mm"
		width="6mm"
		height="3mm"
		id="oomID13360"
	/>
	<rect
		style="fill:none;stroke:#000000;stroke-width:2px " 
		x="238.5mm"
		y="50mm"
		width="6mm"
		height="3mm"
		id="oomID13361"
	/>
	<rect
		style="fill:none;stroke:#000000;stroke-width:2px " 
		x="238.5mm"
		y="30mm"
		width="6mm"
		height="3mm"
		id="oomID13362"
	/>
	<rect
		style="fill:none;stroke:#000000;stroke-width:2px " 
		x="238.5mm"
		y="10mm"
		width="6mm"
		height="3mm"
		id="oomID13363"
	/>
	<rect
		style="fill:none;stroke:#000000;stroke-width:2px " 
		x="258.5mm"
		y="90mm"
		width="6mm"
		height="3mm"
		id="oomID13364"
	/>
	<rect
		style="fill:none;stroke:#000000;stroke-width:2px " 
		x="258.5mm"
		y="70mm"
		width="6mm"
		height="3mm"
		id="oomID13365"
	/>
	<rect
		style="fill:none;stroke:#000000;stroke-width:2px " 
		x="258.5mm"
		y="50mm"
		width="6mm"
		height="3mm"
		id="oomID13366"
	/>
	<rect
		style="fill:none;stroke:#000000;stroke-width:2px " 
		x="258.5mm"
		y="30mm"
		width="6mm"
		height="3mm"
		id="oomID13367"
	/>
	<rect
		style="fill:none;stroke:#000000;stroke-width:2px " 
		x="258.5mm"
		y="10mm"
		width="6mm"
		height="3mm"
		id="oomID13368"
	/>
	<text x="21.5mm" y="81.5mm"
	style="text-anchor: middle; text-align: center; font-family: ENG_HelvLine; -inkscape-font-specification: ENG_HelvLine; font-size: 12pt; fill:none; font-style:normal;font-weight:normal;line-height:100%;letter-spacing:0px;word-spacing:0px;fill-opacity:1;stroke:#FFA500"
	><tspan sodipodi:role="line">PL</tspan><tspan sodipodi:role="line">14-05</tspan></text>
</svg>
