<?xml version="1.0" standalone="no"?>
<!DOCTYPE svg PUBLIC "-//W3C//DTD SVG 1.1//EN" "http://www.w3.org/Graphics/SVG/1.1/DTD/svg11.dtd">
<svg width="102mm" height="102mm" viewBox="9 -111 102 102" xmlns="http://www.w3.org/2000/svg" version="1.1">
<title>OpenSCAD Model</title>
<path d="
M 106,-9.00986 L 106.314,-9.00986 L 106.937,-9.08856 L 107.545,-9.24471 L 108.129,-9.47586 L 108.679,-9.77835
 L 109.187,-10.1474 L 109.645,-10.5773 L 110.045,-11.0611 L 110.382,-11.5912 L 110.649,-12.1594 L 110.843,-12.7565
 L 110.961,-13.3733 L 111,-14 L 111,-106 L 110.961,-106.627 L 110.843,-107.243 L 110.649,-107.841
 L 110.382,-108.409 L 110.045,-108.939 L 109.645,-109.423 L 109.187,-109.853 L 108.679,-110.222 L 108.129,-110.524
 L 107.545,-110.755 L 106.937,-110.911 L 106.314,-110.99 L 106,-110.99 L 106,-111 L 14,-111
 L 14,-110.99 L 13.686,-110.99 L 13.0631,-110.911 L 12.4549,-110.755 L 11.8711,-110.524 L 11.3209,-110.222
 L 10.8129,-109.853 L 10.3551,-109.423 L 9.95491,-108.939 L 9.61845,-108.409 L 9.3511,-107.841 L 9.15707,-107.243
 L 9.03941,-106.627 L 9,-106 L 9,-14 L 9.03941,-13.3733 L 9.15707,-12.7565 L 9.3511,-12.1594
 L 9.61845,-11.5912 L 9.95491,-11.0611 L 10.3551,-10.5773 L 10.8129,-10.1474 L 11.3209,-9.77835 L 11.8711,-9.47586
 L 12.4549,-9.24471 L 13.0631,-9.08856 L 13.686,-9.00986 L 14,-9.00986 L 14,-9 L 106,-9
 z
M 59.8116,-102.006 L 59.4379,-102.053 L 59.0729,-102.147 L 58.7227,-102.286 L 58.3925,-102.467 L 58.0877,-102.688
 L 57.8131,-102.946 L 57.5729,-103.237 L 57.3711,-103.555 L 57.2107,-103.896 L 57.0942,-104.254 L 57.0237,-104.624
 L 57,-105 L 57.0237,-105.376 L 57.0942,-105.746 L 57.2107,-106.104 L 57.3711,-106.445 L 57.5729,-106.763
 L 57.8131,-107.054 L 58.0877,-107.312 L 58.3925,-107.533 L 58.7227,-107.714 L 59.0729,-107.853 L 59.4379,-107.947
 L 59.8116,-107.994 L 60.1884,-107.994 L 60.5621,-107.947 L 60.927,-107.853 L 61.2773,-107.714 L 61.6075,-107.533
 L 61.9123,-107.312 L 62.1869,-107.054 L 62.427,-106.763 L 62.6289,-106.445 L 62.7893,-106.104 L 62.9057,-105.746
 L 62.9763,-105.376 L 63,-105 L 62.9763,-104.624 L 62.9057,-104.254 L 62.7893,-103.896 L 62.6289,-103.555
 L 62.427,-103.237 L 62.1869,-102.946 L 61.9123,-102.688 L 61.6075,-102.467 L 61.2773,-102.286 L 60.927,-102.147
 L 60.5621,-102.053 L 60.1884,-102.006 z
M 74.8116,-102.006 L 74.4379,-102.053 L 74.0729,-102.147 L 73.7227,-102.286 L 73.3925,-102.467 L 73.0877,-102.688
 L 72.8131,-102.946 L 72.5729,-103.237 L 72.3711,-103.555 L 72.2107,-103.896 L 72.0942,-104.254 L 72.0237,-104.624
 L 72,-105 L 72.0237,-105.376 L 72.0942,-105.746 L 72.2107,-106.104 L 72.3711,-106.445 L 72.5729,-106.763
 L 72.8131,-107.054 L 73.0877,-107.312 L 73.3925,-107.533 L 73.7227,-107.714 L 74.0729,-107.853 L 74.4379,-107.947
 L 74.8116,-107.994 L 75.1884,-107.994 L 75.5621,-107.947 L 75.927,-107.853 L 76.2773,-107.714 L 76.6075,-107.533
 L 76.9123,-107.312 L 77.1869,-107.054 L 77.427,-106.763 L 77.6289,-106.445 L 77.7893,-106.104 L 77.9057,-105.746
 L 77.9763,-105.376 L 78,-105 L 77.9763,-104.624 L 77.9057,-104.254 L 77.7893,-103.896 L 77.6289,-103.555
 L 77.427,-103.237 L 77.1869,-102.946 L 76.9123,-102.688 L 76.6075,-102.467 L 76.2773,-102.286 L 75.927,-102.147
 L 75.5621,-102.053 L 75.1884,-102.006 z
M 104.812,-102.006 L 104.438,-102.053 L 104.073,-102.147 L 103.723,-102.286 L 103.393,-102.467 L 103.088,-102.688
 L 102.813,-102.946 L 102.573,-103.237 L 102.371,-103.555 L 102.211,-103.896 L 102.094,-104.254 L 102.024,-104.624
 L 102,-105 L 102.024,-105.376 L 102.094,-105.746 L 102.211,-106.104 L 102.371,-106.445 L 102.573,-106.763
 L 102.813,-107.054 L 103.088,-107.312 L 103.393,-107.533 L 103.723,-107.714 L 104.073,-107.853 L 104.438,-107.947
 L 104.812,-107.994 L 105.188,-107.994 L 105.562,-107.947 L 105.927,-107.853 L 106.277,-107.714 L 106.607,-107.533
 L 106.912,-107.312 L 107.187,-107.054 L 107.427,-106.763 L 107.629,-106.445 L 107.789,-106.104 L 107.906,-105.746
 L 107.976,-105.376 L 108,-105 L 107.976,-104.624 L 107.906,-104.254 L 107.789,-103.896 L 107.629,-103.555
 L 107.427,-103.237 L 107.187,-102.946 L 106.912,-102.688 L 106.607,-102.467 L 106.277,-102.286 L 105.927,-102.147
 L 105.562,-102.053 L 105.188,-102.006 z
M 29.8116,-102.006 L 29.4379,-102.053 L 29.0729,-102.147 L 28.7227,-102.286 L 28.3925,-102.467 L 28.0877,-102.688
 L 27.8131,-102.946 L 27.5729,-103.237 L 27.3711,-103.555 L 27.2107,-103.896 L 27.0942,-104.254 L 27.0237,-104.624
 L 27,-105 L 27.0237,-105.376 L 27.0942,-105.746 L 27.2107,-106.104 L 27.3711,-106.445 L 27.5729,-106.763
 L 27.8131,-107.054 L 28.0877,-107.312 L 28.3925,-107.533 L 28.7227,-107.714 L 29.0729,-107.853 L 29.4379,-107.947
 L 29.8116,-107.994 L 30.1884,-107.994 L 30.5621,-107.947 L 30.927,-107.853 L 31.2773,-107.714 L 31.6075,-107.533
 L 31.9123,-107.312 L 32.1869,-107.054 L 32.427,-106.763 L 32.6289,-106.445 L 32.7893,-106.104 L 32.9057,-105.746
 L 32.9763,-105.376 L 33,-105 L 32.9763,-104.624 L 32.9057,-104.254 L 32.7893,-103.896 L 32.6289,-103.555
 L 32.427,-103.237 L 32.1869,-102.946 L 31.9123,-102.688 L 31.6075,-102.467 L 31.2773,-102.286 L 30.927,-102.147
 L 30.5621,-102.053 L 30.1884,-102.006 z
M 44.8116,-102.006 L 44.4379,-102.053 L 44.0729,-102.147 L 43.7227,-102.286 L 43.3925,-102.467 L 43.0877,-102.688
 L 42.8131,-102.946 L 42.5729,-103.237 L 42.3711,-103.555 L 42.2107,-103.896 L 42.0942,-104.254 L 42.0237,-104.624
 L 42,-105 L 42.0237,-105.376 L 42.0942,-105.746 L 42.2107,-106.104 L 42.3711,-106.445 L 42.5729,-106.763
 L 42.8131,-107.054 L 43.0877,-107.312 L 43.3925,-107.533 L 43.7227,-107.714 L 44.0729,-107.853 L 44.4379,-107.947
 L 44.8116,-107.994 L 45.1884,-107.994 L 45.5621,-107.947 L 45.927,-107.853 L 46.2773,-107.714 L 46.6075,-107.533
 L 46.9123,-107.312 L 47.1869,-107.054 L 47.427,-106.763 L 47.6289,-106.445 L 47.7893,-106.104 L 47.9057,-105.746
 L 47.9763,-105.376 L 48,-105 L 47.9763,-104.624 L 47.9057,-104.254 L 47.7893,-103.896 L 47.6289,-103.555
 L 47.427,-103.237 L 47.1869,-102.946 L 46.9123,-102.688 L 46.6075,-102.467 L 46.2773,-102.286 L 45.927,-102.147
 L 45.5621,-102.053 L 45.1884,-102.006 z
M 89.8116,-102.006 L 89.4379,-102.053 L 89.0729,-102.147 L 88.7227,-102.286 L 88.3925,-102.467 L 88.0877,-102.688
 L 87.8131,-102.946 L 87.5729,-103.237 L 87.3711,-103.555 L 87.2107,-103.896 L 87.0942,-104.254 L 87.0237,-104.624
 L 87,-105 L 87.0237,-105.376 L 87.0942,-105.746 L 87.2107,-106.104 L 87.3711,-106.445 L 87.5729,-106.763
 L 87.8131,-107.054 L 88.0877,-107.312 L 88.3925,-107.533 L 88.7227,-107.714 L 89.0729,-107.853 L 89.4379,-107.947
 L 89.8116,-107.994 L 90.1884,-107.994 L 90.5621,-107.947 L 90.927,-107.853 L 91.2773,-107.714 L 91.6075,-107.533
 L 91.9123,-107.312 L 92.1869,-107.054 L 92.427,-106.763 L 92.6289,-106.445 L 92.7893,-106.104 L 92.9057,-105.746
 L 92.9763,-105.376 L 93,-105 L 92.9763,-104.624 L 92.9057,-104.254 L 92.7893,-103.896 L 92.6289,-103.555
 L 92.427,-103.237 L 92.1869,-102.946 L 91.9123,-102.688 L 91.6075,-102.467 L 91.2773,-102.286 L 90.927,-102.147
 L 90.5621,-102.053 L 90.1884,-102.006 z
M 14.8116,-102.006 L 14.4379,-102.053 L 14.0729,-102.147 L 13.7227,-102.286 L 13.3925,-102.467 L 13.0877,-102.688
 L 12.8131,-102.946 L 12.5729,-103.237 L 12.3711,-103.555 L 12.2107,-103.896 L 12.0942,-104.254 L 12.0237,-104.624
 L 12,-105 L 12.0237,-105.376 L 12.0942,-105.746 L 12.2107,-106.104 L 12.3711,-106.445 L 12.5729,-106.763
 L 12.8131,-107.054 L 13.0877,-107.312 L 13.3925,-107.533 L 13.7227,-107.714 L 14.0729,-107.853 L 14.4379,-107.947
 L 14.8116,-107.994 L 15.1884,-107.994 L 15.5621,-107.947 L 15.927,-107.853 L 16.2773,-107.714 L 16.6075,-107.533
 L 16.9123,-107.312 L 17.1869,-107.054 L 17.427,-106.763 L 17.6289,-106.445 L 17.7893,-106.104 L 17.9057,-105.746
 L 17.9763,-105.376 L 18,-105 L 17.9763,-104.624 L 17.9057,-104.254 L 17.7893,-103.896 L 17.6289,-103.555
 L 17.427,-103.237 L 17.1869,-102.946 L 16.9123,-102.688 L 16.6075,-102.467 L 16.2773,-102.286 L 15.927,-102.147
 L 15.5621,-102.053 L 15.1884,-102.006 z
M 21,-103.5 L 21,-106.5 L 24,-106.5 L 24,-103.5 z
M 81,-103.5 L 81,-106.5 L 84,-106.5 L 84,-103.5 z
M 51,-103.5 L 51,-106.5 L 54,-106.5 L 54,-103.5 z
M 36,-103.5 L 36,-106.5 L 39,-106.5 L 39,-103.5 z
M 96,-103.5 L 96,-106.5 L 99,-106.5 L 99,-103.5 z
M 66,-103.5 L 66,-106.5 L 69,-106.5 L 69,-103.5 z
M 13.5,-96 L 13.5,-99 L 16.5,-99 L 16.5,-96 z
M 88.5,-96 L 88.5,-99 L 91.5,-99 L 91.5,-96 z
M 43.5,-96 L 43.5,-99 L 46.5,-99 L 46.5,-96 z
M 73.5,-96 L 73.5,-99 L 76.5,-99 L 76.5,-96 z
M 28.5,-96 L 28.5,-99 L 31.5,-99 L 31.5,-96 z
M 103.5,-96 L 103.5,-99 L 106.5,-99 L 106.5,-96 z
M 58.5,-96 L 58.5,-99 L 61.5,-99 L 61.5,-96 z
M 14.8116,-87.0059 L 14.4379,-87.0531 L 14.0729,-87.1468 L 13.7227,-87.2855 L 13.3925,-87.467 L 13.0877,-87.6884
 L 12.8131,-87.9464 L 12.5729,-88.2366 L 12.3711,-88.5547 L 12.2107,-88.8956 L 12.0942,-89.2539 L 12.0237,-89.624
 L 12,-90 L 12.0237,-90.376 L 12.0942,-90.7461 L 12.2107,-91.1044 L 12.3711,-91.4453 L 12.5729,-91.7634
 L 12.8131,-92.0536 L 13.0877,-92.3115 L 13.3925,-92.533 L 13.7227,-92.7145 L 14.0729,-92.8532 L 14.4379,-92.9469
 L 14.8116,-92.9941 L 15.1884,-92.9941 L 15.5621,-92.9469 L 15.927,-92.8532 L 16.2773,-92.7145 L 16.6075,-92.533
 L 16.9123,-92.3115 L 17.1869,-92.0536 L 17.427,-91.7634 L 17.6289,-91.4453 L 17.7893,-91.1044 L 17.9057,-90.7461
 L 17.9763,-90.376 L 18,-90 L 17.9763,-89.624 L 17.9057,-89.2539 L 17.7893,-88.8956 L 17.6289,-88.5547
 L 17.427,-88.2366 L 17.1869,-87.9464 L 16.9123,-87.6884 L 16.6075,-87.467 L 16.2773,-87.2855 L 15.927,-87.1468
 L 15.5621,-87.0531 L 15.1884,-87.0059 z
M 104.812,-87.0059 L 104.438,-87.0531 L 104.073,-87.1468 L 103.723,-87.2855 L 103.393,-87.467 L 103.088,-87.6884
 L 102.813,-87.9464 L 102.573,-88.2366 L 102.371,-88.5547 L 102.211,-88.8956 L 102.094,-89.2539 L 102.024,-89.624
 L 102,-90 L 102.024,-90.376 L 102.094,-90.7461 L 102.211,-91.1044 L 102.371,-91.4453 L 102.573,-91.7634
 L 102.813,-92.0536 L 103.088,-92.3115 L 103.393,-92.533 L 103.723,-92.7145 L 104.073,-92.8532 L 104.438,-92.9469
 L 104.812,-92.9941 L 105.188,-92.9941 L 105.562,-92.9469 L 105.927,-92.8532 L 106.277,-92.7145 L 106.607,-92.533
 L 106.912,-92.3115 L 107.187,-92.0536 L 107.427,-91.7634 L 107.629,-91.4453 L 107.789,-91.1044 L 107.906,-90.7461
 L 107.976,-90.376 L 108,-90 L 107.976,-89.624 L 107.906,-89.2539 L 107.789,-88.8956 L 107.629,-88.5547
 L 107.427,-88.2366 L 107.187,-87.9464 L 106.912,-87.6884 L 106.607,-87.467 L 106.277,-87.2855 L 105.927,-87.1468
 L 105.562,-87.0531 L 105.188,-87.0059 z
M 29.8116,-87.0059 L 29.4379,-87.0531 L 29.0729,-87.1468 L 28.7227,-87.2855 L 28.3925,-87.467 L 28.0877,-87.6884
 L 27.8131,-87.9464 L 27.5729,-88.2366 L 27.3711,-88.5547 L 27.2107,-88.8956 L 27.0942,-89.2539 L 27.0237,-89.624
 L 27,-90 L 27.0237,-90.376 L 27.0942,-90.7461 L 27.2107,-91.1044 L 27.3711,-91.4453 L 27.5729,-91.7634
 L 27.8131,-92.0536 L 28.0877,-92.3115 L 28.3925,-92.533 L 28.7227,-92.7145 L 29.0729,-92.8532 L 29.4379,-92.9469
 L 29.8116,-92.9941 L 30.1884,-92.9941 L 30.5621,-92.9469 L 30.927,-92.8532 L 31.2773,-92.7145 L 31.6075,-92.533
 L 31.9123,-92.3115 L 32.1869,-92.0536 L 32.427,-91.7634 L 32.6289,-91.4453 L 32.7893,-91.1044 L 32.9057,-90.7461
 L 32.9763,-90.376 L 33,-90 L 32.9763,-89.624 L 32.9057,-89.2539 L 32.7893,-88.8956 L 32.6289,-88.5547
 L 32.427,-88.2366 L 32.1869,-87.9464 L 31.9123,-87.6884 L 31.6075,-87.467 L 31.2773,-87.2855 L 30.927,-87.1468
 L 30.5621,-87.0531 L 30.1884,-87.0059 z
M 44.8116,-87.0059 L 44.4379,-87.0531 L 44.0729,-87.1468 L 43.7227,-87.2855 L 43.3925,-87.467 L 43.0877,-87.6884
 L 42.8131,-87.9464 L 42.5729,-88.2366 L 42.3711,-88.5547 L 42.2107,-88.8956 L 42.0942,-89.2539 L 42.0237,-89.624
 L 42,-90 L 42.0237,-90.376 L 42.0942,-90.7461 L 42.2107,-91.1044 L 42.3711,-91.4453 L 42.5729,-91.7634
 L 42.8131,-92.0536 L 43.0877,-92.3115 L 43.3925,-92.533 L 43.7227,-92.7145 L 44.0729,-92.8532 L 44.4379,-92.9469
 L 44.8116,-92.9941 L 45.1884,-92.9941 L 45.5621,-92.9469 L 45.927,-92.8532 L 46.2773,-92.7145 L 46.6075,-92.533
 L 46.9123,-92.3115 L 47.1869,-92.0536 L 47.427,-91.7634 L 47.6289,-91.4453 L 47.7893,-91.1044 L 47.9057,-90.7461
 L 47.9763,-90.376 L 48,-90 L 47.9763,-89.624 L 47.9057,-89.2539 L 47.7893,-88.8956 L 47.6289,-88.5547
 L 47.427,-88.2366 L 47.1869,-87.9464 L 46.9123,-87.6884 L 46.6075,-87.467 L 46.2773,-87.2855 L 45.927,-87.1468
 L 45.5621,-87.0531 L 45.1884,-87.0059 z
M 59.8116,-87.0059 L 59.4379,-87.0531 L 59.0729,-87.1468 L 58.7227,-87.2855 L 58.3925,-87.467 L 58.0877,-87.6884
 L 57.8131,-87.9464 L 57.5729,-88.2366 L 57.3711,-88.5547 L 57.2107,-88.8956 L 57.0942,-89.2539 L 57.0237,-89.624
 L 57,-90 L 57.0237,-90.376 L 57.0942,-90.7461 L 57.2107,-91.1044 L 57.3711,-91.4453 L 57.5729,-91.7634
 L 57.8131,-92.0536 L 58.0877,-92.3115 L 58.3925,-92.533 L 58.7227,-92.7145 L 59.0729,-92.8532 L 59.4379,-92.9469
 L 59.8116,-92.9941 L 60.1884,-92.9941 L 60.5621,-92.9469 L 60.927,-92.8532 L 61.2773,-92.7145 L 61.6075,-92.533
 L 61.9123,-92.3115 L 62.1869,-92.0536 L 62.427,-91.7634 L 62.6289,-91.4453 L 62.7893,-91.1044 L 62.9057,-90.7461
 L 62.9763,-90.376 L 63,-90 L 62.9763,-89.624 L 62.9057,-89.2539 L 62.7893,-88.8956 L 62.6289,-88.5547
 L 62.427,-88.2366 L 62.1869,-87.9464 L 61.9123,-87.6884 L 61.6075,-87.467 L 61.2773,-87.2855 L 60.927,-87.1468
 L 60.5621,-87.0531 L 60.1884,-87.0059 z
M 74.8116,-87.0059 L 74.4379,-87.0531 L 74.0729,-87.1468 L 73.7227,-87.2855 L 73.3925,-87.467 L 73.0877,-87.6884
 L 72.8131,-87.9464 L 72.5729,-88.2366 L 72.3711,-88.5547 L 72.2107,-88.8956 L 72.0942,-89.2539 L 72.0237,-89.624
 L 72,-90 L 72.0237,-90.376 L 72.0942,-90.7461 L 72.2107,-91.1044 L 72.3711,-91.4453 L 72.5729,-91.7634
 L 72.8131,-92.0536 L 73.0877,-92.3115 L 73.3925,-92.533 L 73.7227,-92.7145 L 74.0729,-92.8532 L 74.4379,-92.9469
 L 74.8116,-92.9941 L 75.1884,-92.9941 L 75.5621,-92.9469 L 75.927,-92.8532 L 76.2773,-92.7145 L 76.6075,-92.533
 L 76.9123,-92.3115 L 77.1869,-92.0536 L 77.427,-91.7634 L 77.6289,-91.4453 L 77.7893,-91.1044 L 77.9057,-90.7461
 L 77.9763,-90.376 L 78,-90 L 77.9763,-89.624 L 77.9057,-89.2539 L 77.7893,-88.8956 L 77.6289,-88.5547
 L 77.427,-88.2366 L 77.1869,-87.9464 L 76.9123,-87.6884 L 76.6075,-87.467 L 76.2773,-87.2855 L 75.927,-87.1468
 L 75.5621,-87.0531 L 75.1884,-87.0059 z
M 89.8116,-87.0059 L 89.4379,-87.0531 L 89.0729,-87.1468 L 88.7227,-87.2855 L 88.3925,-87.467 L 88.0877,-87.6884
 L 87.8131,-87.9464 L 87.5729,-88.2366 L 87.3711,-88.5547 L 87.2107,-88.8956 L 87.0942,-89.2539 L 87.0237,-89.624
 L 87,-90 L 87.0237,-90.376 L 87.0942,-90.7461 L 87.2107,-91.1044 L 87.3711,-91.4453 L 87.5729,-91.7634
 L 87.8131,-92.0536 L 88.0877,-92.3115 L 88.3925,-92.533 L 88.7227,-92.7145 L 89.0729,-92.8532 L 89.4379,-92.9469
 L 89.8116,-92.9941 L 90.1884,-92.9941 L 90.5621,-92.9469 L 90.927,-92.8532 L 91.2773,-92.7145 L 91.6075,-92.533
 L 91.9123,-92.3115 L 92.1869,-92.0536 L 92.427,-91.7634 L 92.6289,-91.4453 L 92.7893,-91.1044 L 92.9057,-90.7461
 L 92.9763,-90.376 L 93,-90 L 92.9763,-89.624 L 92.9057,-89.2539 L 92.7893,-88.8956 L 92.6289,-88.5547
 L 92.427,-88.2366 L 92.1869,-87.9464 L 91.9123,-87.6884 L 91.6075,-87.467 L 91.2773,-87.2855 L 90.927,-87.1468
 L 90.5621,-87.0531 L 90.1884,-87.0059 z
M 36,-88.5 L 36,-91.5 L 39,-91.5 L 39,-88.5 z
M 21,-88.5 L 21,-91.5 L 24,-91.5 L 24,-88.5 z
M 51,-88.5 L 51,-91.5 L 54,-91.5 L 54,-88.5 z
M 66,-88.5 L 66,-91.5 L 69,-91.5 L 69,-88.5 z
M 81,-88.5 L 81,-91.5 L 84,-91.5 L 84,-88.5 z
M 96,-88.5 L 96,-91.5 L 99,-91.5 L 99,-88.5 z
M 88.5,-81 L 88.5,-84 L 91.5,-84 L 91.5,-81 z
M 13.5,-81 L 13.5,-84 L 16.5,-84 L 16.5,-81 z
M 73.5,-81 L 73.5,-84 L 76.5,-84 L 76.5,-81 z
M 58.5,-81 L 58.5,-84 L 61.5,-84 L 61.5,-81 z
M 43.5,-81 L 43.5,-84 L 46.5,-84 L 46.5,-81 z
M 103.5,-81 L 103.5,-84 L 106.5,-84 L 106.5,-81 z
M 28.5,-81 L 28.5,-84 L 31.5,-84 L 31.5,-81 z
M 104.812,-72.0059 L 104.438,-72.0531 L 104.073,-72.1468 L 103.723,-72.2855 L 103.393,-72.467 L 103.088,-72.6884
 L 102.813,-72.9464 L 102.573,-73.2366 L 102.371,-73.5547 L 102.211,-73.8956 L 102.094,-74.2539 L 102.024,-74.624
 L 102,-75 L 102.024,-75.376 L 102.094,-75.7461 L 102.211,-76.1044 L 102.371,-76.4453 L 102.573,-76.7634
 L 102.813,-77.0536 L 103.088,-77.3115 L 103.393,-77.533 L 103.723,-77.7145 L 104.073,-77.8532 L 104.438,-77.9469
 L 104.812,-77.9941 L 105.188,-77.9941 L 105.562,-77.9469 L 105.927,-77.8532 L 106.277,-77.7145 L 106.607,-77.533
 L 106.912,-77.3115 L 107.187,-77.0536 L 107.427,-76.7634 L 107.629,-76.4453 L 107.789,-76.1044 L 107.906,-75.7461
 L 107.976,-75.376 L 108,-75 L 107.976,-74.624 L 107.906,-74.2539 L 107.789,-73.8956 L 107.629,-73.5547
 L 107.427,-73.2366 L 107.187,-72.9464 L 106.912,-72.6884 L 106.607,-72.467 L 106.277,-72.2855 L 105.927,-72.1468
 L 105.562,-72.0531 L 105.188,-72.0059 z
M 89.8116,-72.0059 L 89.4379,-72.0531 L 89.0729,-72.1468 L 88.7227,-72.2855 L 88.3925,-72.467 L 88.0877,-72.6884
 L 87.8131,-72.9464 L 87.5729,-73.2366 L 87.3711,-73.5547 L 87.2107,-73.8956 L 87.0942,-74.2539 L 87.0237,-74.624
 L 87,-75 L 87.0237,-75.376 L 87.0942,-75.7461 L 87.2107,-76.1044 L 87.3711,-76.4453 L 87.5729,-76.7634
 L 87.8131,-77.0536 L 88.0877,-77.3115 L 88.3925,-77.533 L 88.7227,-77.7145 L 89.0729,-77.8532 L 89.4379,-77.9469
 L 89.8116,-77.9941 L 90.1884,-77.9941 L 90.5621,-77.9469 L 90.927,-77.8532 L 91.2773,-77.7145 L 91.6075,-77.533
 L 91.9123,-77.3115 L 92.1869,-77.0536 L 92.427,-76.7634 L 92.6289,-76.4453 L 92.7893,-76.1044 L 92.9057,-75.7461
 L 92.9763,-75.376 L 93,-75 L 92.9763,-74.624 L 92.9057,-74.2539 L 92.7893,-73.8956 L 92.6289,-73.5547
 L 92.427,-73.2366 L 92.1869,-72.9464 L 91.9123,-72.6884 L 91.6075,-72.467 L 91.2773,-72.2855 L 90.927,-72.1468
 L 90.5621,-72.0531 L 90.1884,-72.0059 z
M 59.8116,-72.0059 L 59.4379,-72.0531 L 59.0729,-72.1468 L 58.7227,-72.2855 L 58.3925,-72.467 L 58.0877,-72.6884
 L 57.8131,-72.9464 L 57.5729,-73.2366 L 57.3711,-73.5547 L 57.2107,-73.8956 L 57.0942,-74.2539 L 57.0237,-74.624
 L 57,-75 L 57.0237,-75.376 L 57.0942,-75.7461 L 57.2107,-76.1044 L 57.3711,-76.4453 L 57.5729,-76.7634
 L 57.8131,-77.0536 L 58.0877,-77.3115 L 58.3925,-77.533 L 58.7227,-77.7145 L 59.0729,-77.8532 L 59.4379,-77.9469
 L 59.8116,-77.9941 L 60.1884,-77.9941 L 60.5621,-77.9469 L 60.927,-77.8532 L 61.2773,-77.7145 L 61.6075,-77.533
 L 61.9123,-77.3115 L 62.1869,-77.0536 L 62.427,-76.7634 L 62.6289,-76.4453 L 62.7893,-76.1044 L 62.9057,-75.7461
 L 62.9763,-75.376 L 63,-75 L 62.9763,-74.624 L 62.9057,-74.2539 L 62.7893,-73.8956 L 62.6289,-73.5547
 L 62.427,-73.2366 L 62.1869,-72.9464 L 61.9123,-72.6884 L 61.6075,-72.467 L 61.2773,-72.2855 L 60.927,-72.1468
 L 60.5621,-72.0531 L 60.1884,-72.0059 z
M 14.8116,-72.0059 L 14.4379,-72.0531 L 14.0729,-72.1468 L 13.7227,-72.2855 L 13.3925,-72.467 L 13.0877,-72.6884
 L 12.8131,-72.9464 L 12.5729,-73.2366 L 12.3711,-73.5547 L 12.2107,-73.8956 L 12.0942,-74.2539 L 12.0237,-74.624
 L 12,-75 L 12.0237,-75.376 L 12.0942,-75.7461 L 12.2107,-76.1044 L 12.3711,-76.4453 L 12.5729,-76.7634
 L 12.8131,-77.0536 L 13.0877,-77.3115 L 13.3925,-77.533 L 13.7227,-77.7145 L 14.0729,-77.8532 L 14.4379,-77.9469
 L 14.8116,-77.9941 L 15.1884,-77.9941 L 15.5621,-77.9469 L 15.927,-77.8532 L 16.2773,-77.7145 L 16.6075,-77.533
 L 16.9123,-77.3115 L 17.1869,-77.0536 L 17.427,-76.7634 L 17.6289,-76.4453 L 17.7893,-76.1044 L 17.9057,-75.7461
 L 17.9763,-75.376 L 18,-75 L 17.9763,-74.624 L 17.9057,-74.2539 L 17.7893,-73.8956 L 17.6289,-73.5547
 L 17.427,-73.2366 L 17.1869,-72.9464 L 16.9123,-72.6884 L 16.6075,-72.467 L 16.2773,-72.2855 L 15.927,-72.1468
 L 15.5621,-72.0531 L 15.1884,-72.0059 z
M 74.8116,-72.0059 L 74.4379,-72.0531 L 74.0729,-72.1468 L 73.7227,-72.2855 L 73.3925,-72.467 L 73.0877,-72.6884
 L 72.8131,-72.9464 L 72.5729,-73.2366 L 72.3711,-73.5547 L 72.2107,-73.8956 L 72.0942,-74.2539 L 72.0237,-74.624
 L 72,-75 L 72.0237,-75.376 L 72.0942,-75.7461 L 72.2107,-76.1044 L 72.3711,-76.4453 L 72.5729,-76.7634
 L 72.8131,-77.0536 L 73.0877,-77.3115 L 73.3925,-77.533 L 73.7227,-77.7145 L 74.0729,-77.8532 L 74.4379,-77.9469
 L 74.8116,-77.9941 L 75.1884,-77.9941 L 75.5621,-77.9469 L 75.927,-77.8532 L 76.2773,-77.7145 L 76.6075,-77.533
 L 76.9123,-77.3115 L 77.1869,-77.0536 L 77.427,-76.7634 L 77.6289,-76.4453 L 77.7893,-76.1044 L 77.9057,-75.7461
 L 77.9763,-75.376 L 78,-75 L 77.9763,-74.624 L 77.9057,-74.2539 L 77.7893,-73.8956 L 77.6289,-73.5547
 L 77.427,-73.2366 L 77.1869,-72.9464 L 76.9123,-72.6884 L 76.6075,-72.467 L 76.2773,-72.2855 L 75.927,-72.1468
 L 75.5621,-72.0531 L 75.1884,-72.0059 z
M 44.8116,-72.0059 L 44.4379,-72.0531 L 44.0729,-72.1468 L 43.7227,-72.2855 L 43.3925,-72.467 L 43.0877,-72.6884
 L 42.8131,-72.9464 L 42.5729,-73.2366 L 42.3711,-73.5547 L 42.2107,-73.8956 L 42.0942,-74.2539 L 42.0237,-74.624
 L 42,-75 L 42.0237,-75.376 L 42.0942,-75.7461 L 42.2107,-76.1044 L 42.3711,-76.4453 L 42.5729,-76.7634
 L 42.8131,-77.0536 L 43.0877,-77.3115 L 43.3925,-77.533 L 43.7227,-77.7145 L 44.0729,-77.8532 L 44.4379,-77.9469
 L 44.8116,-77.9941 L 45.1884,-77.9941 L 45.5621,-77.9469 L 45.927,-77.8532 L 46.2773,-77.7145 L 46.6075,-77.533
 L 46.9123,-77.3115 L 47.1869,-77.0536 L 47.427,-76.7634 L 47.6289,-76.4453 L 47.7893,-76.1044 L 47.9057,-75.7461
 L 47.9763,-75.376 L 48,-75 L 47.9763,-74.624 L 47.9057,-74.2539 L 47.7893,-73.8956 L 47.6289,-73.5547
 L 47.427,-73.2366 L 47.1869,-72.9464 L 46.9123,-72.6884 L 46.6075,-72.467 L 46.2773,-72.2855 L 45.927,-72.1468
 L 45.5621,-72.0531 L 45.1884,-72.0059 z
M 29.8116,-72.0059 L 29.4379,-72.0531 L 29.0729,-72.1468 L 28.7227,-72.2855 L 28.3925,-72.467 L 28.0877,-72.6884
 L 27.8131,-72.9464 L 27.5729,-73.2366 L 27.3711,-73.5547 L 27.2107,-73.8956 L 27.0942,-74.2539 L 27.0237,-74.624
 L 27,-75 L 27.0237,-75.376 L 27.0942,-75.7461 L 27.2107,-76.1044 L 27.3711,-76.4453 L 27.5729,-76.7634
 L 27.8131,-77.0536 L 28.0877,-77.3115 L 28.3925,-77.533 L 28.7227,-77.7145 L 29.0729,-77.8532 L 29.4379,-77.9469
 L 29.8116,-77.9941 L 30.1884,-77.9941 L 30.5621,-77.9469 L 30.927,-77.8532 L 31.2773,-77.7145 L 31.6075,-77.533
 L 31.9123,-77.3115 L 32.1869,-77.0536 L 32.427,-76.7634 L 32.6289,-76.4453 L 32.7893,-76.1044 L 32.9057,-75.7461
 L 32.9763,-75.376 L 33,-75 L 32.9763,-74.624 L 32.9057,-74.2539 L 32.7893,-73.8956 L 32.6289,-73.5547
 L 32.427,-73.2366 L 32.1869,-72.9464 L 31.9123,-72.6884 L 31.6075,-72.467 L 31.2773,-72.2855 L 30.927,-72.1468
 L 30.5621,-72.0531 L 30.1884,-72.0059 z
M 21,-73.5 L 21,-76.5 L 24,-76.5 L 24,-73.5 z
M 66,-73.5 L 66,-76.5 L 69,-76.5 L 69,-73.5 z
M 96,-73.5 L 96,-76.5 L 99,-76.5 L 99,-73.5 z
M 51,-73.5 L 51,-76.5 L 54,-76.5 L 54,-73.5 z
M 36,-73.5 L 36,-76.5 L 39,-76.5 L 39,-73.5 z
M 81,-73.5 L 81,-76.5 L 84,-76.5 L 84,-73.5 z
M 103.5,-66 L 103.5,-69 L 106.5,-69 L 106.5,-66 z
M 88.5,-66 L 88.5,-69 L 91.5,-69 L 91.5,-66 z
M 28.5,-66 L 28.5,-69 L 31.5,-69 L 31.5,-66 z
M 43.5,-66 L 43.5,-69 L 46.5,-69 L 46.5,-66 z
M 58.5,-66 L 58.5,-69 L 61.5,-69 L 61.5,-66 z
M 13.5,-66 L 13.5,-69 L 16.5,-69 L 16.5,-66 z
M 73.5,-66 L 73.5,-69 L 76.5,-69 L 76.5,-66 z
M 104.812,-57.0059 L 104.438,-57.0531 L 104.073,-57.1468 L 103.723,-57.2855 L 103.393,-57.467 L 103.088,-57.6884
 L 102.813,-57.9464 L 102.573,-58.2366 L 102.371,-58.5547 L 102.211,-58.8956 L 102.094,-59.2539 L 102.024,-59.624
 L 102,-60 L 102.024,-60.376 L 102.094,-60.7461 L 102.211,-61.1044 L 102.371,-61.4453 L 102.573,-61.7634
 L 102.813,-62.0536 L 103.088,-62.3115 L 103.393,-62.533 L 103.723,-62.7145 L 104.073,-62.8532 L 104.438,-62.9469
 L 104.812,-62.9941 L 105.188,-62.9941 L 105.562,-62.9469 L 105.927,-62.8532 L 106.277,-62.7145 L 106.607,-62.533
 L 106.912,-62.3115 L 107.187,-62.0536 L 107.427,-61.7634 L 107.629,-61.4453 L 107.789,-61.1044 L 107.906,-60.7461
 L 107.976,-60.376 L 108,-60 L 107.976,-59.624 L 107.906,-59.2539 L 107.789,-58.8956 L 107.629,-58.5547
 L 107.427,-58.2366 L 107.187,-57.9464 L 106.912,-57.6884 L 106.607,-57.467 L 106.277,-57.2855 L 105.927,-57.1468
 L 105.562,-57.0531 L 105.188,-57.0059 z
M 14.8116,-57.0059 L 14.4379,-57.0531 L 14.0729,-57.1468 L 13.7227,-57.2855 L 13.3925,-57.467 L 13.0877,-57.6884
 L 12.8131,-57.9464 L 12.5729,-58.2366 L 12.3711,-58.5547 L 12.2107,-58.8956 L 12.0942,-59.2539 L 12.0237,-59.624
 L 12,-60 L 12.0237,-60.376 L 12.0942,-60.7461 L 12.2107,-61.1044 L 12.3711,-61.4453 L 12.5729,-61.7634
 L 12.8131,-62.0536 L 13.0877,-62.3115 L 13.3925,-62.533 L 13.7227,-62.7145 L 14.0729,-62.8532 L 14.4379,-62.9469
 L 14.8116,-62.9941 L 15.1884,-62.9941 L 15.5621,-62.9469 L 15.927,-62.8532 L 16.2773,-62.7145 L 16.6075,-62.533
 L 16.9123,-62.3115 L 17.1869,-62.0536 L 17.427,-61.7634 L 17.6289,-61.4453 L 17.7893,-61.1044 L 17.9057,-60.7461
 L 17.9763,-60.376 L 18,-60 L 17.9763,-59.624 L 17.9057,-59.2539 L 17.7893,-58.8956 L 17.6289,-58.5547
 L 17.427,-58.2366 L 17.1869,-57.9464 L 16.9123,-57.6884 L 16.6075,-57.467 L 16.2773,-57.2855 L 15.927,-57.1468
 L 15.5621,-57.0531 L 15.1884,-57.0059 z
M 44.8116,-57.0059 L 44.4379,-57.0531 L 44.0729,-57.1468 L 43.7227,-57.2855 L 43.3925,-57.467 L 43.0877,-57.6884
 L 42.8131,-57.9464 L 42.5729,-58.2366 L 42.3711,-58.5547 L 42.2107,-58.8956 L 42.0942,-59.2539 L 42.0237,-59.624
 L 42,-60 L 42.0237,-60.376 L 42.0942,-60.7461 L 42.2107,-61.1044 L 42.3711,-61.4453 L 42.5729,-61.7634
 L 42.8131,-62.0536 L 43.0877,-62.3115 L 43.3925,-62.533 L 43.7227,-62.7145 L 44.0729,-62.8532 L 44.4379,-62.9469
 L 44.8116,-62.9941 L 45.1884,-62.9941 L 45.5621,-62.9469 L 45.927,-62.8532 L 46.2773,-62.7145 L 46.6075,-62.533
 L 46.9123,-62.3115 L 47.1869,-62.0536 L 47.427,-61.7634 L 47.6289,-61.4453 L 47.7893,-61.1044 L 47.9057,-60.7461
 L 47.9763,-60.376 L 48,-60 L 47.9763,-59.624 L 47.9057,-59.2539 L 47.7893,-58.8956 L 47.6289,-58.5547
 L 47.427,-58.2366 L 47.1869,-57.9464 L 46.9123,-57.6884 L 46.6075,-57.467 L 46.2773,-57.2855 L 45.927,-57.1468
 L 45.5621,-57.0531 L 45.1884,-57.0059 z
M 89.8116,-57.0059 L 89.4379,-57.0531 L 89.0729,-57.1468 L 88.7227,-57.2855 L 88.3925,-57.467 L 88.0877,-57.6884
 L 87.8131,-57.9464 L 87.5729,-58.2366 L 87.3711,-58.5547 L 87.2107,-58.8956 L 87.0942,-59.2539 L 87.0237,-59.624
 L 87,-60 L 87.0237,-60.376 L 87.0942,-60.7461 L 87.2107,-61.1044 L 87.3711,-61.4453 L 87.5729,-61.7634
 L 87.8131,-62.0536 L 88.0877,-62.3115 L 88.3925,-62.533 L 88.7227,-62.7145 L 89.0729,-62.8532 L 89.4379,-62.9469
 L 89.8116,-62.9941 L 90.1884,-62.9941 L 90.5621,-62.9469 L 90.927,-62.8532 L 91.2773,-62.7145 L 91.6075,-62.533
 L 91.9123,-62.3115 L 92.1869,-62.0536 L 92.427,-61.7634 L 92.6289,-61.4453 L 92.7893,-61.1044 L 92.9057,-60.7461
 L 92.9763,-60.376 L 93,-60 L 92.9763,-59.624 L 92.9057,-59.2539 L 92.7893,-58.8956 L 92.6289,-58.5547
 L 92.427,-58.2366 L 92.1869,-57.9464 L 91.9123,-57.6884 L 91.6075,-57.467 L 91.2773,-57.2855 L 90.927,-57.1468
 L 90.5621,-57.0531 L 90.1884,-57.0059 z
M 59.8116,-57.0059 L 59.4379,-57.0531 L 59.0729,-57.1468 L 58.7227,-57.2855 L 58.3925,-57.467 L 58.0877,-57.6884
 L 57.8131,-57.9464 L 57.5729,-58.2366 L 57.3711,-58.5547 L 57.2107,-58.8956 L 57.0942,-59.2539 L 57.0237,-59.624
 L 57,-60 L 57.0237,-60.376 L 57.0942,-60.7461 L 57.2107,-61.1044 L 57.3711,-61.4453 L 57.5729,-61.7634
 L 57.8131,-62.0536 L 58.0877,-62.3115 L 58.3925,-62.533 L 58.7227,-62.7145 L 59.0729,-62.8532 L 59.4379,-62.9469
 L 59.8116,-62.9941 L 60.1884,-62.9941 L 60.5621,-62.9469 L 60.927,-62.8532 L 61.2773,-62.7145 L 61.6075,-62.533
 L 61.9123,-62.3115 L 62.1869,-62.0536 L 62.427,-61.7634 L 62.6289,-61.4453 L 62.7893,-61.1044 L 62.9057,-60.7461
 L 62.9763,-60.376 L 63,-60 L 62.9763,-59.624 L 62.9057,-59.2539 L 62.7893,-58.8956 L 62.6289,-58.5547
 L 62.427,-58.2366 L 62.1869,-57.9464 L 61.9123,-57.6884 L 61.6075,-57.467 L 61.2773,-57.2855 L 60.927,-57.1468
 L 60.5621,-57.0531 L 60.1884,-57.0059 z
M 29.8116,-57.0059 L 29.4379,-57.0531 L 29.0729,-57.1468 L 28.7227,-57.2855 L 28.3925,-57.467 L 28.0877,-57.6884
 L 27.8131,-57.9464 L 27.5729,-58.2366 L 27.3711,-58.5547 L 27.2107,-58.8956 L 27.0942,-59.2539 L 27.0237,-59.624
 L 27,-60 L 27.0237,-60.376 L 27.0942,-60.7461 L 27.2107,-61.1044 L 27.3711,-61.4453 L 27.5729,-61.7634
 L 27.8131,-62.0536 L 28.0877,-62.3115 L 28.3925,-62.533 L 28.7227,-62.7145 L 29.0729,-62.8532 L 29.4379,-62.9469
 L 29.8116,-62.9941 L 30.1884,-62.9941 L 30.5621,-62.9469 L 30.927,-62.8532 L 31.2773,-62.7145 L 31.6075,-62.533
 L 31.9123,-62.3115 L 32.1869,-62.0536 L 32.427,-61.7634 L 32.6289,-61.4453 L 32.7893,-61.1044 L 32.9057,-60.7461
 L 32.9763,-60.376 L 33,-60 L 32.9763,-59.624 L 32.9057,-59.2539 L 32.7893,-58.8956 L 32.6289,-58.5547
 L 32.427,-58.2366 L 32.1869,-57.9464 L 31.9123,-57.6884 L 31.6075,-57.467 L 31.2773,-57.2855 L 30.927,-57.1468
 L 30.5621,-57.0531 L 30.1884,-57.0059 z
M 74.8116,-57.0059 L 74.4379,-57.0531 L 74.0729,-57.1468 L 73.7227,-57.2855 L 73.3925,-57.467 L 73.0877,-57.6884
 L 72.8131,-57.9464 L 72.5729,-58.2366 L 72.3711,-58.5547 L 72.2107,-58.8956 L 72.0942,-59.2539 L 72.0237,-59.624
 L 72,-60 L 72.0237,-60.376 L 72.0942,-60.7461 L 72.2107,-61.1044 L 72.3711,-61.4453 L 72.5729,-61.7634
 L 72.8131,-62.0536 L 73.0877,-62.3115 L 73.3925,-62.533 L 73.7227,-62.7145 L 74.0729,-62.8532 L 74.4379,-62.9469
 L 74.8116,-62.9941 L 75.1884,-62.9941 L 75.5621,-62.9469 L 75.927,-62.8532 L 76.2773,-62.7145 L 76.6075,-62.533
 L 76.9123,-62.3115 L 77.1869,-62.0536 L 77.427,-61.7634 L 77.6289,-61.4453 L 77.7893,-61.1044 L 77.9057,-60.7461
 L 77.9763,-60.376 L 78,-60 L 77.9763,-59.624 L 77.9057,-59.2539 L 77.7893,-58.8956 L 77.6289,-58.5547
 L 77.427,-58.2366 L 77.1869,-57.9464 L 76.9123,-57.6884 L 76.6075,-57.467 L 76.2773,-57.2855 L 75.927,-57.1468
 L 75.5621,-57.0531 L 75.1884,-57.0059 z
M 66,-58.5 L 66,-61.5 L 69,-61.5 L 69,-58.5 z
M 96,-58.5 L 96,-61.5 L 99,-61.5 L 99,-58.5 z
M 51,-58.5 L 51,-61.5 L 54,-61.5 L 54,-58.5 z
M 21,-58.5 L 21,-61.5 L 24,-61.5 L 24,-58.5 z
M 36,-58.5 L 36,-61.5 L 39,-61.5 L 39,-58.5 z
M 81,-58.5 L 81,-61.5 L 84,-61.5 L 84,-58.5 z
M 103.5,-51 L 103.5,-54 L 106.5,-54 L 106.5,-51 z
M 58.5,-51 L 58.5,-54 L 61.5,-54 L 61.5,-51 z
M 88.5,-51 L 88.5,-54 L 91.5,-54 L 91.5,-51 z
M 73.5,-51 L 73.5,-54 L 76.5,-54 L 76.5,-51 z
M 13.5,-51 L 13.5,-54 L 16.5,-54 L 16.5,-51 z
M 28.5,-51 L 28.5,-54 L 31.5,-54 L 31.5,-51 z
M 43.5,-51 L 43.5,-54 L 46.5,-54 L 46.5,-51 z
M 14.8116,-42.0059 L 14.4379,-42.0531 L 14.0729,-42.1468 L 13.7227,-42.2855 L 13.3925,-42.467 L 13.0877,-42.6884
 L 12.8131,-42.9464 L 12.5729,-43.2366 L 12.3711,-43.5547 L 12.2107,-43.8956 L 12.0942,-44.2539 L 12.0237,-44.624
 L 12,-45 L 12.0237,-45.376 L 12.0942,-45.7461 L 12.2107,-46.1044 L 12.3711,-46.4453 L 12.5729,-46.7634
 L 12.8131,-47.0536 L 13.0877,-47.3115 L 13.3925,-47.533 L 13.7227,-47.7145 L 14.0729,-47.8532 L 14.4379,-47.9469
 L 14.8116,-47.9941 L 15.1884,-47.9941 L 15.5621,-47.9469 L 15.927,-47.8532 L 16.2773,-47.7145 L 16.6075,-47.533
 L 16.9123,-47.3115 L 17.1869,-47.0536 L 17.427,-46.7634 L 17.6289,-46.4453 L 17.7893,-46.1044 L 17.9057,-45.7461
 L 17.9763,-45.376 L 18,-45 L 17.9763,-44.624 L 17.9057,-44.2539 L 17.7893,-43.8956 L 17.6289,-43.5547
 L 17.427,-43.2366 L 17.1869,-42.9464 L 16.9123,-42.6884 L 16.6075,-42.467 L 16.2773,-42.2855 L 15.927,-42.1468
 L 15.5621,-42.0531 L 15.1884,-42.0059 z
M 89.8116,-42.0059 L 89.4379,-42.0531 L 89.0729,-42.1468 L 88.7227,-42.2855 L 88.3925,-42.467 L 88.0877,-42.6884
 L 87.8131,-42.9464 L 87.5729,-43.2366 L 87.3711,-43.5547 L 87.2107,-43.8956 L 87.0942,-44.2539 L 87.0237,-44.624
 L 87,-45 L 87.0237,-45.376 L 87.0942,-45.7461 L 87.2107,-46.1044 L 87.3711,-46.4453 L 87.5729,-46.7634
 L 87.8131,-47.0536 L 88.0877,-47.3115 L 88.3925,-47.533 L 88.7227,-47.7145 L 89.0729,-47.8532 L 89.4379,-47.9469
 L 89.8116,-47.9941 L 90.1884,-47.9941 L 90.5621,-47.9469 L 90.927,-47.8532 L 91.2773,-47.7145 L 91.6075,-47.533
 L 91.9123,-47.3115 L 92.1869,-47.0536 L 92.427,-46.7634 L 92.6289,-46.4453 L 92.7893,-46.1044 L 92.9057,-45.7461
 L 92.9763,-45.376 L 93,-45 L 92.9763,-44.624 L 92.9057,-44.2539 L 92.7893,-43.8956 L 92.6289,-43.5547
 L 92.427,-43.2366 L 92.1869,-42.9464 L 91.9123,-42.6884 L 91.6075,-42.467 L 91.2773,-42.2855 L 90.927,-42.1468
 L 90.5621,-42.0531 L 90.1884,-42.0059 z
M 29.8116,-42.0059 L 29.4379,-42.0531 L 29.0729,-42.1468 L 28.7227,-42.2855 L 28.3925,-42.467 L 28.0877,-42.6884
 L 27.8131,-42.9464 L 27.5729,-43.2366 L 27.3711,-43.5547 L 27.2107,-43.8956 L 27.0942,-44.2539 L 27.0237,-44.624
 L 27,-45 L 27.0237,-45.376 L 27.0942,-45.7461 L 27.2107,-46.1044 L 27.3711,-46.4453 L 27.5729,-46.7634
 L 27.8131,-47.0536 L 28.0877,-47.3115 L 28.3925,-47.533 L 28.7227,-47.7145 L 29.0729,-47.8532 L 29.4379,-47.9469
 L 29.8116,-47.9941 L 30.1884,-47.9941 L 30.5621,-47.9469 L 30.927,-47.8532 L 31.2773,-47.7145 L 31.6075,-47.533
 L 31.9123,-47.3115 L 32.1869,-47.0536 L 32.427,-46.7634 L 32.6289,-46.4453 L 32.7893,-46.1044 L 32.9057,-45.7461
 L 32.9763,-45.376 L 33,-45 L 32.9763,-44.624 L 32.9057,-44.2539 L 32.7893,-43.8956 L 32.6289,-43.5547
 L 32.427,-43.2366 L 32.1869,-42.9464 L 31.9123,-42.6884 L 31.6075,-42.467 L 31.2773,-42.2855 L 30.927,-42.1468
 L 30.5621,-42.0531 L 30.1884,-42.0059 z
M 44.8116,-42.0059 L 44.4379,-42.0531 L 44.0729,-42.1468 L 43.7227,-42.2855 L 43.3925,-42.467 L 43.0877,-42.6884
 L 42.8131,-42.9464 L 42.5729,-43.2366 L 42.3711,-43.5547 L 42.2107,-43.8956 L 42.0942,-44.2539 L 42.0237,-44.624
 L 42,-45 L 42.0237,-45.376 L 42.0942,-45.7461 L 42.2107,-46.1044 L 42.3711,-46.4453 L 42.5729,-46.7634
 L 42.8131,-47.0536 L 43.0877,-47.3115 L 43.3925,-47.533 L 43.7227,-47.7145 L 44.0729,-47.8532 L 44.4379,-47.9469
 L 44.8116,-47.9941 L 45.1884,-47.9941 L 45.5621,-47.9469 L 45.927,-47.8532 L 46.2773,-47.7145 L 46.6075,-47.533
 L 46.9123,-47.3115 L 47.1869,-47.0536 L 47.427,-46.7634 L 47.6289,-46.4453 L 47.7893,-46.1044 L 47.9057,-45.7461
 L 47.9763,-45.376 L 48,-45 L 47.9763,-44.624 L 47.9057,-44.2539 L 47.7893,-43.8956 L 47.6289,-43.5547
 L 47.427,-43.2366 L 47.1869,-42.9464 L 46.9123,-42.6884 L 46.6075,-42.467 L 46.2773,-42.2855 L 45.927,-42.1468
 L 45.5621,-42.0531 L 45.1884,-42.0059 z
M 104.812,-42.0059 L 104.438,-42.0531 L 104.073,-42.1468 L 103.723,-42.2855 L 103.393,-42.467 L 103.088,-42.6884
 L 102.813,-42.9464 L 102.573,-43.2366 L 102.371,-43.5547 L 102.211,-43.8956 L 102.094,-44.2539 L 102.024,-44.624
 L 102,-45 L 102.024,-45.376 L 102.094,-45.7461 L 102.211,-46.1044 L 102.371,-46.4453 L 102.573,-46.7634
 L 102.813,-47.0536 L 103.088,-47.3115 L 103.393,-47.533 L 103.723,-47.7145 L 104.073,-47.8532 L 104.438,-47.9469
 L 104.812,-47.9941 L 105.188,-47.9941 L 105.562,-47.9469 L 105.927,-47.8532 L 106.277,-47.7145 L 106.607,-47.533
 L 106.912,-47.3115 L 107.187,-47.0536 L 107.427,-46.7634 L 107.629,-46.4453 L 107.789,-46.1044 L 107.906,-45.7461
 L 107.976,-45.376 L 108,-45 L 107.976,-44.624 L 107.906,-44.2539 L 107.789,-43.8956 L 107.629,-43.5547
 L 107.427,-43.2366 L 107.187,-42.9464 L 106.912,-42.6884 L 106.607,-42.467 L 106.277,-42.2855 L 105.927,-42.1468
 L 105.562,-42.0531 L 105.188,-42.0059 z
M 59.8116,-42.0059 L 59.4379,-42.0531 L 59.0729,-42.1468 L 58.7227,-42.2855 L 58.3925,-42.467 L 58.0877,-42.6884
 L 57.8131,-42.9464 L 57.5729,-43.2366 L 57.3711,-43.5547 L 57.2107,-43.8956 L 57.0942,-44.2539 L 57.0237,-44.624
 L 57,-45 L 57.0237,-45.376 L 57.0942,-45.7461 L 57.2107,-46.1044 L 57.3711,-46.4453 L 57.5729,-46.7634
 L 57.8131,-47.0536 L 58.0877,-47.3115 L 58.3925,-47.533 L 58.7227,-47.7145 L 59.0729,-47.8532 L 59.4379,-47.9469
 L 59.8116,-47.9941 L 60.1884,-47.9941 L 60.5621,-47.9469 L 60.927,-47.8532 L 61.2773,-47.7145 L 61.6075,-47.533
 L 61.9123,-47.3115 L 62.1869,-47.0536 L 62.427,-46.7634 L 62.6289,-46.4453 L 62.7893,-46.1044 L 62.9057,-45.7461
 L 62.9763,-45.376 L 63,-45 L 62.9763,-44.624 L 62.9057,-44.2539 L 62.7893,-43.8956 L 62.6289,-43.5547
 L 62.427,-43.2366 L 62.1869,-42.9464 L 61.9123,-42.6884 L 61.6075,-42.467 L 61.2773,-42.2855 L 60.927,-42.1468
 L 60.5621,-42.0531 L 60.1884,-42.0059 z
M 74.8116,-42.0059 L 74.4379,-42.0531 L 74.0729,-42.1468 L 73.7227,-42.2855 L 73.3925,-42.467 L 73.0877,-42.6884
 L 72.8131,-42.9464 L 72.5729,-43.2366 L 72.3711,-43.5547 L 72.2107,-43.8956 L 72.0942,-44.2539 L 72.0237,-44.624
 L 72,-45 L 72.0237,-45.376 L 72.0942,-45.7461 L 72.2107,-46.1044 L 72.3711,-46.4453 L 72.5729,-46.7634
 L 72.8131,-47.0536 L 73.0877,-47.3115 L 73.3925,-47.533 L 73.7227,-47.7145 L 74.0729,-47.8532 L 74.4379,-47.9469
 L 74.8116,-47.9941 L 75.1884,-47.9941 L 75.5621,-47.9469 L 75.927,-47.8532 L 76.2773,-47.7145 L 76.6075,-47.533
 L 76.9123,-47.3115 L 77.1869,-47.0536 L 77.427,-46.7634 L 77.6289,-46.4453 L 77.7893,-46.1044 L 77.9057,-45.7461
 L 77.9763,-45.376 L 78,-45 L 77.9763,-44.624 L 77.9057,-44.2539 L 77.7893,-43.8956 L 77.6289,-43.5547
 L 77.427,-43.2366 L 77.1869,-42.9464 L 76.9123,-42.6884 L 76.6075,-42.467 L 76.2773,-42.2855 L 75.927,-42.1468
 L 75.5621,-42.0531 L 75.1884,-42.0059 z
M 51,-43.5 L 51,-46.5 L 54,-46.5 L 54,-43.5 z
M 36,-43.5 L 36,-46.5 L 39,-46.5 L 39,-43.5 z
M 81,-43.5 L 81,-46.5 L 84,-46.5 L 84,-43.5 z
M 66,-43.5 L 66,-46.5 L 69,-46.5 L 69,-43.5 z
M 96,-43.5 L 96,-46.5 L 99,-46.5 L 99,-43.5 z
M 21,-43.5 L 21,-46.5 L 24,-46.5 L 24,-43.5 z
M 73.5,-36 L 73.5,-39 L 76.5,-39 L 76.5,-36 z
M 103.5,-36 L 103.5,-39 L 106.5,-39 L 106.5,-36 z
M 88.5,-36 L 88.5,-39 L 91.5,-39 L 91.5,-36 z
M 43.5,-36 L 43.5,-39 L 46.5,-39 L 46.5,-36 z
M 58.5,-36 L 58.5,-39 L 61.5,-39 L 61.5,-36 z
M 13.5,-36 L 13.5,-39 L 16.5,-39 L 16.5,-36 z
M 28.5,-36 L 28.5,-39 L 31.5,-39 L 31.5,-36 z
M 14.8116,-27.0059 L 14.4379,-27.0531 L 14.0729,-27.1468 L 13.7227,-27.2855 L 13.3925,-27.467 L 13.0877,-27.6884
 L 12.8131,-27.9464 L 12.5729,-28.2366 L 12.3711,-28.5547 L 12.2107,-28.8956 L 12.0942,-29.2539 L 12.0237,-29.624
 L 12,-30 L 12.0237,-30.376 L 12.0942,-30.7461 L 12.2107,-31.1044 L 12.3711,-31.4453 L 12.5729,-31.7634
 L 12.8131,-32.0536 L 13.0877,-32.3115 L 13.3925,-32.533 L 13.7227,-32.7145 L 14.0729,-32.8532 L 14.4379,-32.9469
 L 14.8116,-32.9941 L 15.1884,-32.9941 L 15.5621,-32.9469 L 15.927,-32.8532 L 16.2773,-32.7145 L 16.6075,-32.533
 L 16.9123,-32.3115 L 17.1869,-32.0536 L 17.427,-31.7634 L 17.6289,-31.4453 L 17.7893,-31.1044 L 17.9057,-30.7461
 L 17.9763,-30.376 L 18,-30 L 17.9763,-29.624 L 17.9057,-29.2539 L 17.7893,-28.8956 L 17.6289,-28.5547
 L 17.427,-28.2366 L 17.1869,-27.9464 L 16.9123,-27.6884 L 16.6075,-27.467 L 16.2773,-27.2855 L 15.927,-27.1468
 L 15.5621,-27.0531 L 15.1884,-27.0059 z
M 59.8116,-27.0059 L 59.4379,-27.0531 L 59.0729,-27.1468 L 58.7227,-27.2855 L 58.3925,-27.467 L 58.0877,-27.6884
 L 57.8131,-27.9464 L 57.5729,-28.2366 L 57.3711,-28.5547 L 57.2107,-28.8956 L 57.0942,-29.2539 L 57.0237,-29.624
 L 57,-30 L 57.0237,-30.376 L 57.0942,-30.7461 L 57.2107,-31.1044 L 57.3711,-31.4453 L 57.5729,-31.7634
 L 57.8131,-32.0536 L 58.0877,-32.3115 L 58.3925,-32.533 L 58.7227,-32.7145 L 59.0729,-32.8532 L 59.4379,-32.9469
 L 59.8116,-32.9941 L 60.1884,-32.9941 L 60.5621,-32.9469 L 60.927,-32.8532 L 61.2773,-32.7145 L 61.6075,-32.533
 L 61.9123,-32.3115 L 62.1869,-32.0536 L 62.427,-31.7634 L 62.6289,-31.4453 L 62.7893,-31.1044 L 62.9057,-30.7461
 L 62.9763,-30.376 L 63,-30 L 62.9763,-29.624 L 62.9057,-29.2539 L 62.7893,-28.8956 L 62.6289,-28.5547
 L 62.427,-28.2366 L 62.1869,-27.9464 L 61.9123,-27.6884 L 61.6075,-27.467 L 61.2773,-27.2855 L 60.927,-27.1468
 L 60.5621,-27.0531 L 60.1884,-27.0059 z
M 44.8116,-27.0059 L 44.4379,-27.0531 L 44.0729,-27.1468 L 43.7227,-27.2855 L 43.3925,-27.467 L 43.0877,-27.6884
 L 42.8131,-27.9464 L 42.5729,-28.2366 L 42.3711,-28.5547 L 42.2107,-28.8956 L 42.0942,-29.2539 L 42.0237,-29.624
 L 42,-30 L 42.0237,-30.376 L 42.0942,-30.7461 L 42.2107,-31.1044 L 42.3711,-31.4453 L 42.5729,-31.7634
 L 42.8131,-32.0536 L 43.0877,-32.3115 L 43.3925,-32.533 L 43.7227,-32.7145 L 44.0729,-32.8532 L 44.4379,-32.9469
 L 44.8116,-32.9941 L 45.1884,-32.9941 L 45.5621,-32.9469 L 45.927,-32.8532 L 46.2773,-32.7145 L 46.6075,-32.533
 L 46.9123,-32.3115 L 47.1869,-32.0536 L 47.427,-31.7634 L 47.6289,-31.4453 L 47.7893,-31.1044 L 47.9057,-30.7461
 L 47.9763,-30.376 L 48,-30 L 47.9763,-29.624 L 47.9057,-29.2539 L 47.7893,-28.8956 L 47.6289,-28.5547
 L 47.427,-28.2366 L 47.1869,-27.9464 L 46.9123,-27.6884 L 46.6075,-27.467 L 46.2773,-27.2855 L 45.927,-27.1468
 L 45.5621,-27.0531 L 45.1884,-27.0059 z
M 74.8116,-27.0059 L 74.4379,-27.0531 L 74.0729,-27.1468 L 73.7227,-27.2855 L 73.3925,-27.467 L 73.0877,-27.6884
 L 72.8131,-27.9464 L 72.5729,-28.2366 L 72.3711,-28.5547 L 72.2107,-28.8956 L 72.0942,-29.2539 L 72.0237,-29.624
 L 72,-30 L 72.0237,-30.376 L 72.0942,-30.7461 L 72.2107,-31.1044 L 72.3711,-31.4453 L 72.5729,-31.7634
 L 72.8131,-32.0536 L 73.0877,-32.3115 L 73.3925,-32.533 L 73.7227,-32.7145 L 74.0729,-32.8532 L 74.4379,-32.9469
 L 74.8116,-32.9941 L 75.1884,-32.9941 L 75.5621,-32.9469 L 75.927,-32.8532 L 76.2773,-32.7145 L 76.6075,-32.533
 L 76.9123,-32.3115 L 77.1869,-32.0536 L 77.427,-31.7634 L 77.6289,-31.4453 L 77.7893,-31.1044 L 77.9057,-30.7461
 L 77.9763,-30.376 L 78,-30 L 77.9763,-29.624 L 77.9057,-29.2539 L 77.7893,-28.8956 L 77.6289,-28.5547
 L 77.427,-28.2366 L 77.1869,-27.9464 L 76.9123,-27.6884 L 76.6075,-27.467 L 76.2773,-27.2855 L 75.927,-27.1468
 L 75.5621,-27.0531 L 75.1884,-27.0059 z
M 29.8116,-27.0059 L 29.4379,-27.0531 L 29.0729,-27.1468 L 28.7227,-27.2855 L 28.3925,-27.467 L 28.0877,-27.6884
 L 27.8131,-27.9464 L 27.5729,-28.2366 L 27.3711,-28.5547 L 27.2107,-28.8956 L 27.0942,-29.2539 L 27.0237,-29.624
 L 27,-30 L 27.0237,-30.376 L 27.0942,-30.7461 L 27.2107,-31.1044 L 27.3711,-31.4453 L 27.5729,-31.7634
 L 27.8131,-32.0536 L 28.0877,-32.3115 L 28.3925,-32.533 L 28.7227,-32.7145 L 29.0729,-32.8532 L 29.4379,-32.9469
 L 29.8116,-32.9941 L 30.1884,-32.9941 L 30.5621,-32.9469 L 30.927,-32.8532 L 31.2773,-32.7145 L 31.6075,-32.533
 L 31.9123,-32.3115 L 32.1869,-32.0536 L 32.427,-31.7634 L 32.6289,-31.4453 L 32.7893,-31.1044 L 32.9057,-30.7461
 L 32.9763,-30.376 L 33,-30 L 32.9763,-29.624 L 32.9057,-29.2539 L 32.7893,-28.8956 L 32.6289,-28.5547
 L 32.427,-28.2366 L 32.1869,-27.9464 L 31.9123,-27.6884 L 31.6075,-27.467 L 31.2773,-27.2855 L 30.927,-27.1468
 L 30.5621,-27.0531 L 30.1884,-27.0059 z
M 89.8116,-27.0059 L 89.4379,-27.0531 L 89.0729,-27.1468 L 88.7227,-27.2855 L 88.3925,-27.467 L 88.0877,-27.6884
 L 87.8131,-27.9464 L 87.5729,-28.2366 L 87.3711,-28.5547 L 87.2107,-28.8956 L 87.0942,-29.2539 L 87.0237,-29.624
 L 87,-30 L 87.0237,-30.376 L 87.0942,-30.7461 L 87.2107,-31.1044 L 87.3711,-31.4453 L 87.5729,-31.7634
 L 87.8131,-32.0536 L 88.0877,-32.3115 L 88.3925,-32.533 L 88.7227,-32.7145 L 89.0729,-32.8532 L 89.4379,-32.9469
 L 89.8116,-32.9941 L 90.1884,-32.9941 L 90.5621,-32.9469 L 90.927,-32.8532 L 91.2773,-32.7145 L 91.6075,-32.533
 L 91.9123,-32.3115 L 92.1869,-32.0536 L 92.427,-31.7634 L 92.6289,-31.4453 L 92.7893,-31.1044 L 92.9057,-30.7461
 L 92.9763,-30.376 L 93,-30 L 92.9763,-29.624 L 92.9057,-29.2539 L 92.7893,-28.8956 L 92.6289,-28.5547
 L 92.427,-28.2366 L 92.1869,-27.9464 L 91.9123,-27.6884 L 91.6075,-27.467 L 91.2773,-27.2855 L 90.927,-27.1468
 L 90.5621,-27.0531 L 90.1884,-27.0059 z
M 104.812,-27.0059 L 104.438,-27.0531 L 104.073,-27.1468 L 103.723,-27.2855 L 103.393,-27.467 L 103.088,-27.6884
 L 102.813,-27.9464 L 102.573,-28.2366 L 102.371,-28.5547 L 102.211,-28.8956 L 102.094,-29.2539 L 102.024,-29.624
 L 102,-30 L 102.024,-30.376 L 102.094,-30.7461 L 102.211,-31.1044 L 102.371,-31.4453 L 102.573,-31.7634
 L 102.813,-32.0536 L 103.088,-32.3115 L 103.393,-32.533 L 103.723,-32.7145 L 104.073,-32.8532 L 104.438,-32.9469
 L 104.812,-32.9941 L 105.188,-32.9941 L 105.562,-32.9469 L 105.927,-32.8532 L 106.277,-32.7145 L 106.607,-32.533
 L 106.912,-32.3115 L 107.187,-32.0536 L 107.427,-31.7634 L 107.629,-31.4453 L 107.789,-31.1044 L 107.906,-30.7461
 L 107.976,-30.376 L 108,-30 L 107.976,-29.624 L 107.906,-29.2539 L 107.789,-28.8956 L 107.629,-28.5547
 L 107.427,-28.2366 L 107.187,-27.9464 L 106.912,-27.6884 L 106.607,-27.467 L 106.277,-27.2855 L 105.927,-27.1468
 L 105.562,-27.0531 L 105.188,-27.0059 z
M 96,-28.5 L 96,-31.5 L 99,-31.5 L 99,-28.5 z
M 51,-28.5 L 51,-31.5 L 54,-31.5 L 54,-28.5 z
M 66,-28.5 L 66,-31.5 L 69,-31.5 L 69,-28.5 z
M 21,-28.5 L 21,-31.5 L 24,-31.5 L 24,-28.5 z
M 36,-28.5 L 36,-31.5 L 39,-31.5 L 39,-28.5 z
M 81,-28.5 L 81,-31.5 L 84,-31.5 L 84,-28.5 z
M 13.5,-21 L 13.5,-24 L 16.5,-24 L 16.5,-21 z
M 58.5,-21 L 58.5,-24 L 61.5,-24 L 61.5,-21 z
M 43.5,-21 L 43.5,-24 L 46.5,-24 L 46.5,-21 z
M 73.5,-21 L 73.5,-24 L 76.5,-24 L 76.5,-21 z
M 88.5,-21 L 88.5,-24 L 91.5,-24 L 91.5,-21 z
M 103.5,-21 L 103.5,-24 L 106.5,-24 L 106.5,-21 z
M 28.5,-21 L 28.5,-24 L 31.5,-24 L 31.5,-21 z
M 104.812,-12.0059 L 104.438,-12.0531 L 104.073,-12.1468 L 103.723,-12.2855 L 103.393,-12.467 L 103.088,-12.6884
 L 102.813,-12.9464 L 102.573,-13.2366 L 102.371,-13.5547 L 102.211,-13.8956 L 102.094,-14.2539 L 102.024,-14.624
 L 102,-15 L 102.024,-15.376 L 102.094,-15.7461 L 102.211,-16.1044 L 102.371,-16.4453 L 102.573,-16.7634
 L 102.813,-17.0536 L 103.088,-17.3115 L 103.393,-17.533 L 103.723,-17.7145 L 104.073,-17.8532 L 104.438,-17.9469
 L 104.812,-17.9941 L 105.188,-17.9941 L 105.562,-17.9469 L 105.927,-17.8532 L 106.277,-17.7145 L 106.607,-17.533
 L 106.912,-17.3115 L 107.187,-17.0536 L 107.427,-16.7634 L 107.629,-16.4453 L 107.789,-16.1044 L 107.906,-15.7461
 L 107.976,-15.376 L 108,-15 L 107.976,-14.624 L 107.906,-14.2539 L 107.789,-13.8956 L 107.629,-13.5547
 L 107.427,-13.2366 L 107.187,-12.9464 L 106.912,-12.6884 L 106.607,-12.467 L 106.277,-12.2855 L 105.927,-12.1468
 L 105.562,-12.0531 L 105.188,-12.0059 z
M 59.8116,-12.0059 L 59.4379,-12.0531 L 59.0729,-12.1468 L 58.7227,-12.2855 L 58.3925,-12.467 L 58.0877,-12.6884
 L 57.8131,-12.9464 L 57.5729,-13.2366 L 57.3711,-13.5547 L 57.2107,-13.8956 L 57.0942,-14.2539 L 57.0237,-14.624
 L 57,-15 L 57.0237,-15.376 L 57.0942,-15.7461 L 57.2107,-16.1044 L 57.3711,-16.4453 L 57.5729,-16.7634
 L 57.8131,-17.0536 L 58.0877,-17.3115 L 58.3925,-17.533 L 58.7227,-17.7145 L 59.0729,-17.8532 L 59.4379,-17.9469
 L 59.8116,-17.9941 L 60.1884,-17.9941 L 60.5621,-17.9469 L 60.927,-17.8532 L 61.2773,-17.7145 L 61.6075,-17.533
 L 61.9123,-17.3115 L 62.1869,-17.0536 L 62.427,-16.7634 L 62.6289,-16.4453 L 62.7893,-16.1044 L 62.9057,-15.7461
 L 62.9763,-15.376 L 63,-15 L 62.9763,-14.624 L 62.9057,-14.2539 L 62.7893,-13.8956 L 62.6289,-13.5547
 L 62.427,-13.2366 L 62.1869,-12.9464 L 61.9123,-12.6884 L 61.6075,-12.467 L 61.2773,-12.2855 L 60.927,-12.1468
 L 60.5621,-12.0531 L 60.1884,-12.0059 z
M 44.8116,-12.0059 L 44.4379,-12.0531 L 44.0729,-12.1468 L 43.7227,-12.2855 L 43.3925,-12.467 L 43.0877,-12.6884
 L 42.8131,-12.9464 L 42.5729,-13.2366 L 42.3711,-13.5547 L 42.2107,-13.8956 L 42.0942,-14.2539 L 42.0237,-14.624
 L 42,-15 L 42.0237,-15.376 L 42.0942,-15.7461 L 42.2107,-16.1044 L 42.3711,-16.4453 L 42.5729,-16.7634
 L 42.8131,-17.0536 L 43.0877,-17.3115 L 43.3925,-17.533 L 43.7227,-17.7145 L 44.0729,-17.8532 L 44.4379,-17.9469
 L 44.8116,-17.9941 L 45.1884,-17.9941 L 45.5621,-17.9469 L 45.927,-17.8532 L 46.2773,-17.7145 L 46.6075,-17.533
 L 46.9123,-17.3115 L 47.1869,-17.0536 L 47.427,-16.7634 L 47.6289,-16.4453 L 47.7893,-16.1044 L 47.9057,-15.7461
 L 47.9763,-15.376 L 48,-15 L 47.9763,-14.624 L 47.9057,-14.2539 L 47.7893,-13.8956 L 47.6289,-13.5547
 L 47.427,-13.2366 L 47.1869,-12.9464 L 46.9123,-12.6884 L 46.6075,-12.467 L 46.2773,-12.2855 L 45.927,-12.1468
 L 45.5621,-12.0531 L 45.1884,-12.0059 z
M 74.8116,-12.0059 L 74.4379,-12.0531 L 74.0729,-12.1468 L 73.7227,-12.2855 L 73.3925,-12.467 L 73.0877,-12.6884
 L 72.8131,-12.9464 L 72.5729,-13.2366 L 72.3711,-13.5547 L 72.2107,-13.8956 L 72.0942,-14.2539 L 72.0237,-14.624
 L 72,-15 L 72.0237,-15.376 L 72.0942,-15.7461 L 72.2107,-16.1044 L 72.3711,-16.4453 L 72.5729,-16.7634
 L 72.8131,-17.0536 L 73.0877,-17.3115 L 73.3925,-17.533 L 73.7227,-17.7145 L 74.0729,-17.8532 L 74.4379,-17.9469
 L 74.8116,-17.9941 L 75.1884,-17.9941 L 75.5621,-17.9469 L 75.927,-17.8532 L 76.2773,-17.7145 L 76.6075,-17.533
 L 76.9123,-17.3115 L 77.1869,-17.0536 L 77.427,-16.7634 L 77.6289,-16.4453 L 77.7893,-16.1044 L 77.9057,-15.7461
 L 77.9763,-15.376 L 78,-15 L 77.9763,-14.624 L 77.9057,-14.2539 L 77.7893,-13.8956 L 77.6289,-13.5547
 L 77.427,-13.2366 L 77.1869,-12.9464 L 76.9123,-12.6884 L 76.6075,-12.467 L 76.2773,-12.2855 L 75.927,-12.1468
 L 75.5621,-12.0531 L 75.1884,-12.0059 z
M 14.8116,-12.0059 L 14.4379,-12.0531 L 14.0729,-12.1468 L 13.7227,-12.2855 L 13.3925,-12.467 L 13.0877,-12.6884
 L 12.8131,-12.9464 L 12.5729,-13.2366 L 12.3711,-13.5547 L 12.2107,-13.8956 L 12.0942,-14.2539 L 12.0237,-14.624
 L 12,-15 L 12.0237,-15.376 L 12.0942,-15.7461 L 12.2107,-16.1044 L 12.3711,-16.4453 L 12.5729,-16.7634
 L 12.8131,-17.0536 L 13.0877,-17.3115 L 13.3925,-17.533 L 13.7227,-17.7145 L 14.0729,-17.8532 L 14.4379,-17.9469
 L 14.8116,-17.9941 L 15.1884,-17.9941 L 15.5621,-17.9469 L 15.927,-17.8532 L 16.2773,-17.7145 L 16.6075,-17.533
 L 16.9123,-17.3115 L 17.1869,-17.0536 L 17.427,-16.7634 L 17.6289,-16.4453 L 17.7893,-16.1044 L 17.9057,-15.7461
 L 17.9763,-15.376 L 18,-15 L 17.9763,-14.624 L 17.9057,-14.2539 L 17.7893,-13.8956 L 17.6289,-13.5547
 L 17.427,-13.2366 L 17.1869,-12.9464 L 16.9123,-12.6884 L 16.6075,-12.467 L 16.2773,-12.2855 L 15.927,-12.1468
 L 15.5621,-12.0531 L 15.1884,-12.0059 z
M 29.8116,-12.0059 L 29.4379,-12.0531 L 29.0729,-12.1468 L 28.7227,-12.2855 L 28.3925,-12.467 L 28.0877,-12.6884
 L 27.8131,-12.9464 L 27.5729,-13.2366 L 27.3711,-13.5547 L 27.2107,-13.8956 L 27.0942,-14.2539 L 27.0237,-14.624
 L 27,-15 L 27.0237,-15.376 L 27.0942,-15.7461 L 27.2107,-16.1044 L 27.3711,-16.4453 L 27.5729,-16.7634
 L 27.8131,-17.0536 L 28.0877,-17.3115 L 28.3925,-17.533 L 28.7227,-17.7145 L 29.0729,-17.8532 L 29.4379,-17.9469
 L 29.8116,-17.9941 L 30.1884,-17.9941 L 30.5621,-17.9469 L 30.927,-17.8532 L 31.2773,-17.7145 L 31.6075,-17.533
 L 31.9123,-17.3115 L 32.1869,-17.0536 L 32.427,-16.7634 L 32.6289,-16.4453 L 32.7893,-16.1044 L 32.9057,-15.7461
 L 32.9763,-15.376 L 33,-15 L 32.9763,-14.624 L 32.9057,-14.2539 L 32.7893,-13.8956 L 32.6289,-13.5547
 L 32.427,-13.2366 L 32.1869,-12.9464 L 31.9123,-12.6884 L 31.6075,-12.467 L 31.2773,-12.2855 L 30.927,-12.1468
 L 30.5621,-12.0531 L 30.1884,-12.0059 z
M 89.8116,-12.0059 L 89.4379,-12.0531 L 89.0729,-12.1468 L 88.7227,-12.2855 L 88.3925,-12.467 L 88.0877,-12.6884
 L 87.8131,-12.9464 L 87.5729,-13.2366 L 87.3711,-13.5547 L 87.2107,-13.8956 L 87.0942,-14.2539 L 87.0237,-14.624
 L 87,-15 L 87.0237,-15.376 L 87.0942,-15.7461 L 87.2107,-16.1044 L 87.3711,-16.4453 L 87.5729,-16.7634
 L 87.8131,-17.0536 L 88.0877,-17.3115 L 88.3925,-17.533 L 88.7227,-17.7145 L 89.0729,-17.8532 L 89.4379,-17.9469
 L 89.8116,-17.9941 L 90.1884,-17.9941 L 90.5621,-17.9469 L 90.927,-17.8532 L 91.2773,-17.7145 L 91.6075,-17.533
 L 91.9123,-17.3115 L 92.1869,-17.0536 L 92.427,-16.7634 L 92.6289,-16.4453 L 92.7893,-16.1044 L 92.9057,-15.7461
 L 92.9763,-15.376 L 93,-15 L 92.9763,-14.624 L 92.9057,-14.2539 L 92.7893,-13.8956 L 92.6289,-13.5547
 L 92.427,-13.2366 L 92.1869,-12.9464 L 91.9123,-12.6884 L 91.6075,-12.467 L 91.2773,-12.2855 L 90.927,-12.1468
 L 90.5621,-12.0531 L 90.1884,-12.0059 z
M 51,-13.5 L 51,-16.5 L 54,-16.5 L 54,-13.5 z
M 81,-13.5 L 81,-16.5 L 84,-16.5 L 84,-13.5 z
M 66,-13.5 L 66,-16.5 L 69,-16.5 L 69,-13.5 z
M 21,-13.5 L 21,-16.5 L 24,-16.5 L 24,-13.5 z
M 96,-13.5 L 96,-16.5 L 99,-16.5 L 99,-13.5 z
M 36,-13.5 L 36,-16.5 L 39,-16.5 L 39,-13.5 z
" stroke="black" fill="lightgray" stroke-width="0.5"/>
</svg>
