<?xml version="1.0" standalone="no"?>
<!DOCTYPE svg PUBLIC "-//W3C//DTD SVG 1.1//EN" "http://www.w3.org/Graphics/SVG/1.1/DTD/svg11.dtd">
<svg width="102mm" height="102mm" viewBox="9 -111 102 102" xmlns="http://www.w3.org/2000/svg" version="1.1">
<title>OpenSCAD Model</title>
<path d="
M 106.314,-9.00986 L 106.627,-9.03941 L 106.937,-9.08856 L 107.243,-9.15707 L 107.545,-9.24471 L 107.841,-9.3511
 L 108.129,-9.47586 L 108.409,-9.61845 L 108.679,-9.77835 L 108.939,-9.95491 L 109.187,-10.1474 L 109.423,-10.3551
 L 109.645,-10.5773 L 109.853,-10.8129 L 110.045,-11.0611 L 110.222,-11.3209 L 110.382,-11.5912 L 110.524,-11.8711
 L 110.649,-12.1594 L 110.755,-12.4549 L 110.843,-12.7565 L 110.911,-13.0631 L 110.961,-13.3733 L 110.99,-13.686
 L 111,-14 L 111,-106 L 110.99,-106.314 L 110.961,-106.627 L 110.911,-106.937 L 110.843,-107.243
 L 110.755,-107.545 L 110.649,-107.841 L 110.524,-108.129 L 110.382,-108.409 L 110.222,-108.679 L 110.045,-108.939
 L 109.853,-109.187 L 109.645,-109.423 L 109.423,-109.645 L 109.187,-109.853 L 108.939,-110.045 L 108.679,-110.222
 L 108.409,-110.382 L 108.129,-110.524 L 107.841,-110.649 L 107.545,-110.755 L 107.243,-110.843 L 106.937,-110.911
 L 106.627,-110.961 L 106.314,-110.99 L 106,-111 L 14,-111 L 13.686,-110.99 L 13.3733,-110.961
 L 13.0631,-110.911 L 12.7565,-110.843 L 12.4549,-110.755 L 12.1594,-110.649 L 11.8711,-110.524 L 11.5912,-110.382
 L 11.3209,-110.222 L 11.0611,-110.045 L 10.8129,-109.853 L 10.5773,-109.645 L 10.3551,-109.423 L 10.1474,-109.187
 L 9.95491,-108.939 L 9.77835,-108.679 L 9.61845,-108.409 L 9.47586,-108.129 L 9.3511,-107.841 L 9.24471,-107.545
 L 9.15707,-107.243 L 9.08856,-106.937 L 9.03941,-106.627 L 9.00986,-106.314 L 9,-106 L 9,-14
 L 9.00986,-13.686 L 9.03941,-13.3733 L 9.08856,-13.0631 L 9.15707,-12.7565 L 9.24471,-12.4549 L 9.3511,-12.1594
 L 9.47586,-11.8711 L 9.61845,-11.5912 L 9.77835,-11.3209 L 9.95491,-11.0611 L 10.1474,-10.8129 L 10.3551,-10.5773
 L 10.5773,-10.3551 L 10.8129,-10.1474 L 11.0611,-9.95491 L 11.3209,-9.77835 L 11.5912,-9.61845 L 11.8711,-9.47586
 L 12.1594,-9.3511 L 12.4549,-9.24471 L 12.7565,-9.15707 L 13.0631,-9.08856 L 13.3733,-9.03941 L 13.686,-9.00986
 L 14,-9 L 106,-9 z
M 59.8116,-102.006 L 59.624,-102.024 L 59.4379,-102.053 L 59.2539,-102.094 L 59.0729,-102.147 L 58.8956,-102.211
 L 58.7227,-102.286 L 58.5547,-102.371 L 58.3925,-102.467 L 58.2366,-102.573 L 58.0877,-102.688 L 57.9464,-102.813
 L 57.8131,-102.946 L 57.6884,-103.088 L 57.5729,-103.237 L 57.467,-103.393 L 57.3711,-103.555 L 57.2855,-103.723
 L 57.2107,-103.896 L 57.1468,-104.073 L 57.0942,-104.254 L 57.0531,-104.438 L 57.0237,-104.624 L 57.0059,-104.812
 L 57,-105 L 57.0059,-105.188 L 57.0237,-105.376 L 57.0531,-105.562 L 57.0942,-105.746 L 57.1468,-105.927
 L 57.2107,-106.104 L 57.2855,-106.277 L 57.3711,-106.445 L 57.467,-106.607 L 57.5729,-106.763 L 57.6884,-106.912
 L 57.8131,-107.054 L 57.9464,-107.187 L 58.0877,-107.312 L 58.2366,-107.427 L 58.3925,-107.533 L 58.5547,-107.629
 L 58.7227,-107.714 L 58.8956,-107.789 L 59.0729,-107.853 L 59.2539,-107.906 L 59.4379,-107.947 L 59.624,-107.976
 L 59.8116,-107.994 L 60,-108 L 60.1884,-107.994 L 60.376,-107.976 L 60.5621,-107.947 L 60.7461,-107.906
 L 60.927,-107.853 L 61.1044,-107.789 L 61.2773,-107.714 L 61.4453,-107.629 L 61.6075,-107.533 L 61.7634,-107.427
 L 61.9123,-107.312 L 62.0536,-107.187 L 62.1869,-107.054 L 62.3115,-106.912 L 62.427,-106.763 L 62.533,-106.607
 L 62.6289,-106.445 L 62.7145,-106.277 L 62.7893,-106.104 L 62.8532,-105.927 L 62.9057,-105.746 L 62.9469,-105.562
 L 62.9763,-105.376 L 62.9941,-105.188 L 63,-105 L 62.9941,-104.812 L 62.9763,-104.624 L 62.9469,-104.438
 L 62.9057,-104.254 L 62.8532,-104.073 L 62.7893,-103.896 L 62.7145,-103.723 L 62.6289,-103.555 L 62.533,-103.393
 L 62.427,-103.237 L 62.3115,-103.088 L 62.1869,-102.946 L 62.0536,-102.813 L 61.9123,-102.688 L 61.7634,-102.573
 L 61.6075,-102.467 L 61.4453,-102.371 L 61.2773,-102.286 L 61.1044,-102.211 L 60.927,-102.147 L 60.7461,-102.094
 L 60.5621,-102.053 L 60.376,-102.024 L 60.1884,-102.006 L 60,-102 z
M 74.8116,-102.006 L 74.624,-102.024 L 74.4379,-102.053 L 74.2539,-102.094 L 74.0729,-102.147 L 73.8956,-102.211
 L 73.7227,-102.286 L 73.5547,-102.371 L 73.3925,-102.467 L 73.2366,-102.573 L 73.0877,-102.688 L 72.9464,-102.813
 L 72.8131,-102.946 L 72.6884,-103.088 L 72.5729,-103.237 L 72.467,-103.393 L 72.3711,-103.555 L 72.2855,-103.723
 L 72.2107,-103.896 L 72.1468,-104.073 L 72.0942,-104.254 L 72.0531,-104.438 L 72.0237,-104.624 L 72.0059,-104.812
 L 72,-105 L 72.0059,-105.188 L 72.0237,-105.376 L 72.0531,-105.562 L 72.0942,-105.746 L 72.1468,-105.927
 L 72.2107,-106.104 L 72.2855,-106.277 L 72.3711,-106.445 L 72.467,-106.607 L 72.5729,-106.763 L 72.6884,-106.912
 L 72.8131,-107.054 L 72.9464,-107.187 L 73.0877,-107.312 L 73.2366,-107.427 L 73.3925,-107.533 L 73.5547,-107.629
 L 73.7227,-107.714 L 73.8956,-107.789 L 74.0729,-107.853 L 74.2539,-107.906 L 74.4379,-107.947 L 74.624,-107.976
 L 74.8116,-107.994 L 75,-108 L 75.1884,-107.994 L 75.376,-107.976 L 75.5621,-107.947 L 75.7461,-107.906
 L 75.927,-107.853 L 76.1044,-107.789 L 76.2773,-107.714 L 76.4453,-107.629 L 76.6075,-107.533 L 76.7634,-107.427
 L 76.9123,-107.312 L 77.0536,-107.187 L 77.1869,-107.054 L 77.3115,-106.912 L 77.427,-106.763 L 77.533,-106.607
 L 77.6289,-106.445 L 77.7145,-106.277 L 77.7893,-106.104 L 77.8532,-105.927 L 77.9057,-105.746 L 77.9469,-105.562
 L 77.9763,-105.376 L 77.9941,-105.188 L 78,-105 L 77.9941,-104.812 L 77.9763,-104.624 L 77.9469,-104.438
 L 77.9057,-104.254 L 77.8532,-104.073 L 77.7893,-103.896 L 77.7145,-103.723 L 77.6289,-103.555 L 77.533,-103.393
 L 77.427,-103.237 L 77.3115,-103.088 L 77.1869,-102.946 L 77.0536,-102.813 L 76.9123,-102.688 L 76.7634,-102.573
 L 76.6075,-102.467 L 76.4453,-102.371 L 76.2773,-102.286 L 76.1044,-102.211 L 75.927,-102.147 L 75.7461,-102.094
 L 75.5621,-102.053 L 75.376,-102.024 L 75.1884,-102.006 L 75,-102 z
M 104.812,-102.006 L 104.624,-102.024 L 104.438,-102.053 L 104.254,-102.094 L 104.073,-102.147 L 103.896,-102.211
 L 103.723,-102.286 L 103.555,-102.371 L 103.393,-102.467 L 103.237,-102.573 L 103.088,-102.688 L 102.946,-102.813
 L 102.813,-102.946 L 102.688,-103.088 L 102.573,-103.237 L 102.467,-103.393 L 102.371,-103.555 L 102.286,-103.723
 L 102.211,-103.896 L 102.147,-104.073 L 102.094,-104.254 L 102.053,-104.438 L 102.024,-104.624 L 102.006,-104.812
 L 102,-105 L 102.006,-105.188 L 102.024,-105.376 L 102.053,-105.562 L 102.094,-105.746 L 102.147,-105.927
 L 102.211,-106.104 L 102.286,-106.277 L 102.371,-106.445 L 102.467,-106.607 L 102.573,-106.763 L 102.688,-106.912
 L 102.813,-107.054 L 102.946,-107.187 L 103.088,-107.312 L 103.237,-107.427 L 103.393,-107.533 L 103.555,-107.629
 L 103.723,-107.714 L 103.896,-107.789 L 104.073,-107.853 L 104.254,-107.906 L 104.438,-107.947 L 104.624,-107.976
 L 104.812,-107.994 L 105,-108 L 105.188,-107.994 L 105.376,-107.976 L 105.562,-107.947 L 105.746,-107.906
 L 105.927,-107.853 L 106.104,-107.789 L 106.277,-107.714 L 106.445,-107.629 L 106.607,-107.533 L 106.763,-107.427
 L 106.912,-107.312 L 107.054,-107.187 L 107.187,-107.054 L 107.312,-106.912 L 107.427,-106.763 L 107.533,-106.607
 L 107.629,-106.445 L 107.714,-106.277 L 107.789,-106.104 L 107.853,-105.927 L 107.906,-105.746 L 107.947,-105.562
 L 107.976,-105.376 L 107.994,-105.188 L 108,-105 L 107.994,-104.812 L 107.976,-104.624 L 107.947,-104.438
 L 107.906,-104.254 L 107.853,-104.073 L 107.789,-103.896 L 107.714,-103.723 L 107.629,-103.555 L 107.533,-103.393
 L 107.427,-103.237 L 107.312,-103.088 L 107.187,-102.946 L 107.054,-102.813 L 106.912,-102.688 L 106.763,-102.573
 L 106.607,-102.467 L 106.445,-102.371 L 106.277,-102.286 L 106.104,-102.211 L 105.927,-102.147 L 105.746,-102.094
 L 105.562,-102.053 L 105.376,-102.024 L 105.188,-102.006 L 105,-102 z
M 29.8116,-102.006 L 29.624,-102.024 L 29.4379,-102.053 L 29.2539,-102.094 L 29.0729,-102.147 L 28.8956,-102.211
 L 28.7227,-102.286 L 28.5547,-102.371 L 28.3925,-102.467 L 28.2366,-102.573 L 28.0877,-102.688 L 27.9464,-102.813
 L 27.8131,-102.946 L 27.6884,-103.088 L 27.5729,-103.237 L 27.467,-103.393 L 27.3711,-103.555 L 27.2855,-103.723
 L 27.2107,-103.896 L 27.1468,-104.073 L 27.0942,-104.254 L 27.0531,-104.438 L 27.0237,-104.624 L 27.0059,-104.812
 L 27,-105 L 27.0059,-105.188 L 27.0237,-105.376 L 27.0531,-105.562 L 27.0942,-105.746 L 27.1468,-105.927
 L 27.2107,-106.104 L 27.2855,-106.277 L 27.3711,-106.445 L 27.467,-106.607 L 27.5729,-106.763 L 27.6884,-106.912
 L 27.8131,-107.054 L 27.9464,-107.187 L 28.0877,-107.312 L 28.2366,-107.427 L 28.3925,-107.533 L 28.5547,-107.629
 L 28.7227,-107.714 L 28.8956,-107.789 L 29.0729,-107.853 L 29.2539,-107.906 L 29.4379,-107.947 L 29.624,-107.976
 L 29.8116,-107.994 L 30,-108 L 30.1884,-107.994 L 30.376,-107.976 L 30.5621,-107.947 L 30.7461,-107.906
 L 30.927,-107.853 L 31.1044,-107.789 L 31.2773,-107.714 L 31.4453,-107.629 L 31.6075,-107.533 L 31.7634,-107.427
 L 31.9123,-107.312 L 32.0536,-107.187 L 32.1869,-107.054 L 32.3115,-106.912 L 32.427,-106.763 L 32.533,-106.607
 L 32.6289,-106.445 L 32.7145,-106.277 L 32.7893,-106.104 L 32.8532,-105.927 L 32.9057,-105.746 L 32.9469,-105.562
 L 32.9763,-105.376 L 32.9941,-105.188 L 33,-105 L 32.9941,-104.812 L 32.9763,-104.624 L 32.9469,-104.438
 L 32.9057,-104.254 L 32.8532,-104.073 L 32.7893,-103.896 L 32.7145,-103.723 L 32.6289,-103.555 L 32.533,-103.393
 L 32.427,-103.237 L 32.3115,-103.088 L 32.1869,-102.946 L 32.0536,-102.813 L 31.9123,-102.688 L 31.7634,-102.573
 L 31.6075,-102.467 L 31.4453,-102.371 L 31.2773,-102.286 L 31.1044,-102.211 L 30.927,-102.147 L 30.7461,-102.094
 L 30.5621,-102.053 L 30.376,-102.024 L 30.1884,-102.006 L 30,-102 z
M 44.8116,-102.006 L 44.624,-102.024 L 44.4379,-102.053 L 44.2539,-102.094 L 44.0729,-102.147 L 43.8956,-102.211
 L 43.7227,-102.286 L 43.5547,-102.371 L 43.3925,-102.467 L 43.2366,-102.573 L 43.0877,-102.688 L 42.9464,-102.813
 L 42.8131,-102.946 L 42.6884,-103.088 L 42.5729,-103.237 L 42.467,-103.393 L 42.3711,-103.555 L 42.2855,-103.723
 L 42.2107,-103.896 L 42.1468,-104.073 L 42.0942,-104.254 L 42.0531,-104.438 L 42.0237,-104.624 L 42.0059,-104.812
 L 42,-105 L 42.0059,-105.188 L 42.0237,-105.376 L 42.0531,-105.562 L 42.0942,-105.746 L 42.1468,-105.927
 L 42.2107,-106.104 L 42.2855,-106.277 L 42.3711,-106.445 L 42.467,-106.607 L 42.5729,-106.763 L 42.6884,-106.912
 L 42.8131,-107.054 L 42.9464,-107.187 L 43.0877,-107.312 L 43.2366,-107.427 L 43.3925,-107.533 L 43.5547,-107.629
 L 43.7227,-107.714 L 43.8956,-107.789 L 44.0729,-107.853 L 44.2539,-107.906 L 44.4379,-107.947 L 44.624,-107.976
 L 44.8116,-107.994 L 45,-108 L 45.1884,-107.994 L 45.376,-107.976 L 45.5621,-107.947 L 45.7461,-107.906
 L 45.927,-107.853 L 46.1044,-107.789 L 46.2773,-107.714 L 46.4453,-107.629 L 46.6075,-107.533 L 46.7634,-107.427
 L 46.9123,-107.312 L 47.0536,-107.187 L 47.1869,-107.054 L 47.3115,-106.912 L 47.427,-106.763 L 47.533,-106.607
 L 47.6289,-106.445 L 47.7145,-106.277 L 47.7893,-106.104 L 47.8532,-105.927 L 47.9057,-105.746 L 47.9469,-105.562
 L 47.9763,-105.376 L 47.9941,-105.188 L 48,-105 L 47.9941,-104.812 L 47.9763,-104.624 L 47.9469,-104.438
 L 47.9057,-104.254 L 47.8532,-104.073 L 47.7893,-103.896 L 47.7145,-103.723 L 47.6289,-103.555 L 47.533,-103.393
 L 47.427,-103.237 L 47.3115,-103.088 L 47.1869,-102.946 L 47.0536,-102.813 L 46.9123,-102.688 L 46.7634,-102.573
 L 46.6075,-102.467 L 46.4453,-102.371 L 46.2773,-102.286 L 46.1044,-102.211 L 45.927,-102.147 L 45.7461,-102.094
 L 45.5621,-102.053 L 45.376,-102.024 L 45.1884,-102.006 L 45,-102 z
M 89.8116,-102.006 L 89.624,-102.024 L 89.4379,-102.053 L 89.2539,-102.094 L 89.0729,-102.147 L 88.8956,-102.211
 L 88.7227,-102.286 L 88.5547,-102.371 L 88.3925,-102.467 L 88.2366,-102.573 L 88.0877,-102.688 L 87.9464,-102.813
 L 87.8131,-102.946 L 87.6884,-103.088 L 87.5729,-103.237 L 87.467,-103.393 L 87.3711,-103.555 L 87.2855,-103.723
 L 87.2107,-103.896 L 87.1468,-104.073 L 87.0942,-104.254 L 87.0531,-104.438 L 87.0237,-104.624 L 87.0059,-104.812
 L 87,-105 L 87.0059,-105.188 L 87.0237,-105.376 L 87.0531,-105.562 L 87.0942,-105.746 L 87.1468,-105.927
 L 87.2107,-106.104 L 87.2855,-106.277 L 87.3711,-106.445 L 87.467,-106.607 L 87.5729,-106.763 L 87.6884,-106.912
 L 87.8131,-107.054 L 87.9464,-107.187 L 88.0877,-107.312 L 88.2366,-107.427 L 88.3925,-107.533 L 88.5547,-107.629
 L 88.7227,-107.714 L 88.8956,-107.789 L 89.0729,-107.853 L 89.2539,-107.906 L 89.4379,-107.947 L 89.624,-107.976
 L 89.8116,-107.994 L 90,-108 L 90.1884,-107.994 L 90.376,-107.976 L 90.5621,-107.947 L 90.7461,-107.906
 L 90.927,-107.853 L 91.1044,-107.789 L 91.2773,-107.714 L 91.4453,-107.629 L 91.6075,-107.533 L 91.7634,-107.427
 L 91.9123,-107.312 L 92.0536,-107.187 L 92.1869,-107.054 L 92.3115,-106.912 L 92.427,-106.763 L 92.533,-106.607
 L 92.6289,-106.445 L 92.7145,-106.277 L 92.7893,-106.104 L 92.8532,-105.927 L 92.9057,-105.746 L 92.9469,-105.562
 L 92.9763,-105.376 L 92.9941,-105.188 L 93,-105 L 92.9941,-104.812 L 92.9763,-104.624 L 92.9469,-104.438
 L 92.9057,-104.254 L 92.8532,-104.073 L 92.7893,-103.896 L 92.7145,-103.723 L 92.6289,-103.555 L 92.533,-103.393
 L 92.427,-103.237 L 92.3115,-103.088 L 92.1869,-102.946 L 92.0536,-102.813 L 91.9123,-102.688 L 91.7634,-102.573
 L 91.6075,-102.467 L 91.4453,-102.371 L 91.2773,-102.286 L 91.1044,-102.211 L 90.927,-102.147 L 90.7461,-102.094
 L 90.5621,-102.053 L 90.376,-102.024 L 90.1884,-102.006 L 90,-102 z
M 14.8116,-102.006 L 14.624,-102.024 L 14.4379,-102.053 L 14.2539,-102.094 L 14.0729,-102.147 L 13.8956,-102.211
 L 13.7227,-102.286 L 13.5547,-102.371 L 13.3925,-102.467 L 13.2366,-102.573 L 13.0877,-102.688 L 12.9464,-102.813
 L 12.8131,-102.946 L 12.6884,-103.088 L 12.5729,-103.237 L 12.467,-103.393 L 12.3711,-103.555 L 12.2855,-103.723
 L 12.2107,-103.896 L 12.1468,-104.073 L 12.0942,-104.254 L 12.0531,-104.438 L 12.0237,-104.624 L 12.0059,-104.812
 L 12,-105 L 12.0059,-105.188 L 12.0237,-105.376 L 12.0531,-105.562 L 12.0942,-105.746 L 12.1468,-105.927
 L 12.2107,-106.104 L 12.2855,-106.277 L 12.3711,-106.445 L 12.467,-106.607 L 12.5729,-106.763 L 12.6884,-106.912
 L 12.8131,-107.054 L 12.9464,-107.187 L 13.0877,-107.312 L 13.2366,-107.427 L 13.3925,-107.533 L 13.5547,-107.629
 L 13.7227,-107.714 L 13.8956,-107.789 L 14.0729,-107.853 L 14.2539,-107.906 L 14.4379,-107.947 L 14.624,-107.976
 L 14.8116,-107.994 L 15,-108 L 15.1884,-107.994 L 15.376,-107.976 L 15.5621,-107.947 L 15.7461,-107.906
 L 15.927,-107.853 L 16.1044,-107.789 L 16.2773,-107.714 L 16.4453,-107.629 L 16.6075,-107.533 L 16.7634,-107.427
 L 16.9123,-107.312 L 17.0536,-107.187 L 17.1869,-107.054 L 17.3115,-106.912 L 17.427,-106.763 L 17.533,-106.607
 L 17.6289,-106.445 L 17.7145,-106.277 L 17.7893,-106.104 L 17.8532,-105.927 L 17.9057,-105.746 L 17.9469,-105.562
 L 17.9763,-105.376 L 17.9941,-105.188 L 18,-105 L 17.9941,-104.812 L 17.9763,-104.624 L 17.9469,-104.438
 L 17.9057,-104.254 L 17.8532,-104.073 L 17.7893,-103.896 L 17.7145,-103.723 L 17.6289,-103.555 L 17.533,-103.393
 L 17.427,-103.237 L 17.3115,-103.088 L 17.1869,-102.946 L 17.0536,-102.813 L 16.9123,-102.688 L 16.7634,-102.573
 L 16.6075,-102.467 L 16.4453,-102.371 L 16.2773,-102.286 L 16.1044,-102.211 L 15.927,-102.147 L 15.7461,-102.094
 L 15.5621,-102.053 L 15.376,-102.024 L 15.1884,-102.006 L 15,-102 z
M 81,-103.5 L 81,-106.5 L 84,-106.5 L 84,-103.5 z
M 51,-103.5 L 51,-106.5 L 54,-106.5 L 54,-103.5 z
M 66,-103.5 L 66,-106.5 L 69,-106.5 L 69,-103.5 z
M 21,-103.5 L 21,-106.5 L 24,-106.5 L 24,-103.5 z
M 96,-103.5 L 96,-106.5 L 99,-106.5 L 99,-103.5 z
M 36,-103.5 L 36,-106.5 L 39,-106.5 L 39,-103.5 z
M 88.5,-96 L 88.5,-99 L 91.5,-99 L 91.5,-96 z
M 43.5,-96 L 43.5,-99 L 46.5,-99 L 46.5,-96 z
M 73.5,-96 L 73.5,-99 L 76.5,-99 L 76.5,-96 z
M 13.5,-96 L 13.5,-99 L 16.5,-99 L 16.5,-96 z
M 28.5,-96 L 28.5,-99 L 31.5,-99 L 31.5,-96 z
M 103.5,-96 L 103.5,-99 L 106.5,-99 L 106.5,-96 z
M 58.5,-96 L 58.5,-99 L 61.5,-99 L 61.5,-96 z
M 14.8116,-87.0059 L 14.624,-87.0237 L 14.4379,-87.0531 L 14.2539,-87.0942 L 14.0729,-87.1468 L 13.8956,-87.2107
 L 13.7227,-87.2855 L 13.5547,-87.3711 L 13.3925,-87.467 L 13.2366,-87.5729 L 13.0877,-87.6884 L 12.9464,-87.8131
 L 12.8131,-87.9464 L 12.6884,-88.0877 L 12.5729,-88.2366 L 12.467,-88.3925 L 12.3711,-88.5547 L 12.2855,-88.7227
 L 12.2107,-88.8956 L 12.1468,-89.0729 L 12.0942,-89.2539 L 12.0531,-89.4379 L 12.0237,-89.624 L 12.0059,-89.8116
 L 12,-90 L 12.0059,-90.1884 L 12.0237,-90.376 L 12.0531,-90.5621 L 12.0942,-90.7461 L 12.1468,-90.927
 L 12.2107,-91.1044 L 12.2855,-91.2773 L 12.3711,-91.4453 L 12.467,-91.6075 L 12.5729,-91.7634 L 12.6884,-91.9123
 L 12.8131,-92.0536 L 12.9464,-92.1869 L 13.0877,-92.3115 L 13.2366,-92.427 L 13.3925,-92.533 L 13.5547,-92.6289
 L 13.7227,-92.7145 L 13.8956,-92.7893 L 14.0729,-92.8532 L 14.2539,-92.9057 L 14.4379,-92.9469 L 14.624,-92.9763
 L 14.8116,-92.9941 L 15,-93 L 15.1884,-92.9941 L 15.376,-92.9763 L 15.5621,-92.9469 L 15.7461,-92.9057
 L 15.927,-92.8532 L 16.1044,-92.7893 L 16.2773,-92.7145 L 16.4453,-92.6289 L 16.6075,-92.533 L 16.7634,-92.427
 L 16.9123,-92.3115 L 17.0536,-92.1869 L 17.1869,-92.0536 L 17.3115,-91.9123 L 17.427,-91.7634 L 17.533,-91.6075
 L 17.6289,-91.4453 L 17.7145,-91.2773 L 17.7893,-91.1044 L 17.8532,-90.927 L 17.9057,-90.7461 L 17.9469,-90.5621
 L 17.9763,-90.376 L 17.9941,-90.1884 L 18,-90 L 17.9941,-89.8116 L 17.9763,-89.624 L 17.9469,-89.4379
 L 17.9057,-89.2539 L 17.8532,-89.0729 L 17.7893,-88.8956 L 17.7145,-88.7227 L 17.6289,-88.5547 L 17.533,-88.3925
 L 17.427,-88.2366 L 17.3115,-88.0877 L 17.1869,-87.9464 L 17.0536,-87.8131 L 16.9123,-87.6884 L 16.7634,-87.5729
 L 16.6075,-87.467 L 16.4453,-87.3711 L 16.2773,-87.2855 L 16.1044,-87.2107 L 15.927,-87.1468 L 15.7461,-87.0942
 L 15.5621,-87.0531 L 15.376,-87.0237 L 15.1884,-87.0059 L 15,-87 z
M 104.812,-87.0059 L 104.624,-87.0237 L 104.438,-87.0531 L 104.254,-87.0942 L 104.073,-87.1468 L 103.896,-87.2107
 L 103.723,-87.2855 L 103.555,-87.3711 L 103.393,-87.467 L 103.237,-87.5729 L 103.088,-87.6884 L 102.946,-87.8131
 L 102.813,-87.9464 L 102.688,-88.0877 L 102.573,-88.2366 L 102.467,-88.3925 L 102.371,-88.5547 L 102.286,-88.7227
 L 102.211,-88.8956 L 102.147,-89.0729 L 102.094,-89.2539 L 102.053,-89.4379 L 102.024,-89.624 L 102.006,-89.8116
 L 102,-90 L 102.006,-90.1884 L 102.024,-90.376 L 102.053,-90.5621 L 102.094,-90.7461 L 102.147,-90.927
 L 102.211,-91.1044 L 102.286,-91.2773 L 102.371,-91.4453 L 102.467,-91.6075 L 102.573,-91.7634 L 102.688,-91.9123
 L 102.813,-92.0536 L 102.946,-92.1869 L 103.088,-92.3115 L 103.237,-92.427 L 103.393,-92.533 L 103.555,-92.6289
 L 103.723,-92.7145 L 103.896,-92.7893 L 104.073,-92.8532 L 104.254,-92.9057 L 104.438,-92.9469 L 104.624,-92.9763
 L 104.812,-92.9941 L 105,-93 L 105.188,-92.9941 L 105.376,-92.9763 L 105.562,-92.9469 L 105.746,-92.9057
 L 105.927,-92.8532 L 106.104,-92.7893 L 106.277,-92.7145 L 106.445,-92.6289 L 106.607,-92.533 L 106.763,-92.427
 L 106.912,-92.3115 L 107.054,-92.1869 L 107.187,-92.0536 L 107.312,-91.9123 L 107.427,-91.7634 L 107.533,-91.6075
 L 107.629,-91.4453 L 107.714,-91.2773 L 107.789,-91.1044 L 107.853,-90.927 L 107.906,-90.7461 L 107.947,-90.5621
 L 107.976,-90.376 L 107.994,-90.1884 L 108,-90 L 107.994,-89.8116 L 107.976,-89.624 L 107.947,-89.4379
 L 107.906,-89.2539 L 107.853,-89.0729 L 107.789,-88.8956 L 107.714,-88.7227 L 107.629,-88.5547 L 107.533,-88.3925
 L 107.427,-88.2366 L 107.312,-88.0877 L 107.187,-87.9464 L 107.054,-87.8131 L 106.912,-87.6884 L 106.763,-87.5729
 L 106.607,-87.467 L 106.445,-87.3711 L 106.277,-87.2855 L 106.104,-87.2107 L 105.927,-87.1468 L 105.746,-87.0942
 L 105.562,-87.0531 L 105.376,-87.0237 L 105.188,-87.0059 L 105,-87 z
M 29.8116,-87.0059 L 29.624,-87.0237 L 29.4379,-87.0531 L 29.2539,-87.0942 L 29.0729,-87.1468 L 28.8956,-87.2107
 L 28.7227,-87.2855 L 28.5547,-87.3711 L 28.3925,-87.467 L 28.2366,-87.5729 L 28.0877,-87.6884 L 27.9464,-87.8131
 L 27.8131,-87.9464 L 27.6884,-88.0877 L 27.5729,-88.2366 L 27.467,-88.3925 L 27.3711,-88.5547 L 27.2855,-88.7227
 L 27.2107,-88.8956 L 27.1468,-89.0729 L 27.0942,-89.2539 L 27.0531,-89.4379 L 27.0237,-89.624 L 27.0059,-89.8116
 L 27,-90 L 27.0059,-90.1884 L 27.0237,-90.376 L 27.0531,-90.5621 L 27.0942,-90.7461 L 27.1468,-90.927
 L 27.2107,-91.1044 L 27.2855,-91.2773 L 27.3711,-91.4453 L 27.467,-91.6075 L 27.5729,-91.7634 L 27.6884,-91.9123
 L 27.8131,-92.0536 L 27.9464,-92.1869 L 28.0877,-92.3115 L 28.2366,-92.427 L 28.3925,-92.533 L 28.5547,-92.6289
 L 28.7227,-92.7145 L 28.8956,-92.7893 L 29.0729,-92.8532 L 29.2539,-92.9057 L 29.4379,-92.9469 L 29.624,-92.9763
 L 29.8116,-92.9941 L 30,-93 L 30.1884,-92.9941 L 30.376,-92.9763 L 30.5621,-92.9469 L 30.7461,-92.9057
 L 30.927,-92.8532 L 31.1044,-92.7893 L 31.2773,-92.7145 L 31.4453,-92.6289 L 31.6075,-92.533 L 31.7634,-92.427
 L 31.9123,-92.3115 L 32.0536,-92.1869 L 32.1869,-92.0536 L 32.3115,-91.9123 L 32.427,-91.7634 L 32.533,-91.6075
 L 32.6289,-91.4453 L 32.7145,-91.2773 L 32.7893,-91.1044 L 32.8532,-90.927 L 32.9057,-90.7461 L 32.9469,-90.5621
 L 32.9763,-90.376 L 32.9941,-90.1884 L 33,-90 L 32.9941,-89.8116 L 32.9763,-89.624 L 32.9469,-89.4379
 L 32.9057,-89.2539 L 32.8532,-89.0729 L 32.7893,-88.8956 L 32.7145,-88.7227 L 32.6289,-88.5547 L 32.533,-88.3925
 L 32.427,-88.2366 L 32.3115,-88.0877 L 32.1869,-87.9464 L 32.0536,-87.8131 L 31.9123,-87.6884 L 31.7634,-87.5729
 L 31.6075,-87.467 L 31.4453,-87.3711 L 31.2773,-87.2855 L 31.1044,-87.2107 L 30.927,-87.1468 L 30.7461,-87.0942
 L 30.5621,-87.0531 L 30.376,-87.0237 L 30.1884,-87.0059 L 30,-87 z
M 44.8116,-87.0059 L 44.624,-87.0237 L 44.4379,-87.0531 L 44.2539,-87.0942 L 44.0729,-87.1468 L 43.8956,-87.2107
 L 43.7227,-87.2855 L 43.5547,-87.3711 L 43.3925,-87.467 L 43.2366,-87.5729 L 43.0877,-87.6884 L 42.9464,-87.8131
 L 42.8131,-87.9464 L 42.6884,-88.0877 L 42.5729,-88.2366 L 42.467,-88.3925 L 42.3711,-88.5547 L 42.2855,-88.7227
 L 42.2107,-88.8956 L 42.1468,-89.0729 L 42.0942,-89.2539 L 42.0531,-89.4379 L 42.0237,-89.624 L 42.0059,-89.8116
 L 42,-90 L 42.0059,-90.1884 L 42.0237,-90.376 L 42.0531,-90.5621 L 42.0942,-90.7461 L 42.1468,-90.927
 L 42.2107,-91.1044 L 42.2855,-91.2773 L 42.3711,-91.4453 L 42.467,-91.6075 L 42.5729,-91.7634 L 42.6884,-91.9123
 L 42.8131,-92.0536 L 42.9464,-92.1869 L 43.0877,-92.3115 L 43.2366,-92.427 L 43.3925,-92.533 L 43.5547,-92.6289
 L 43.7227,-92.7145 L 43.8956,-92.7893 L 44.0729,-92.8532 L 44.2539,-92.9057 L 44.4379,-92.9469 L 44.624,-92.9763
 L 44.8116,-92.9941 L 45,-93 L 45.1884,-92.9941 L 45.376,-92.9763 L 45.5621,-92.9469 L 45.7461,-92.9057
 L 45.927,-92.8532 L 46.1044,-92.7893 L 46.2773,-92.7145 L 46.4453,-92.6289 L 46.6075,-92.533 L 46.7634,-92.427
 L 46.9123,-92.3115 L 47.0536,-92.1869 L 47.1869,-92.0536 L 47.3115,-91.9123 L 47.427,-91.7634 L 47.533,-91.6075
 L 47.6289,-91.4453 L 47.7145,-91.2773 L 47.7893,-91.1044 L 47.8532,-90.927 L 47.9057,-90.7461 L 47.9469,-90.5621
 L 47.9763,-90.376 L 47.9941,-90.1884 L 48,-90 L 47.9941,-89.8116 L 47.9763,-89.624 L 47.9469,-89.4379
 L 47.9057,-89.2539 L 47.8532,-89.0729 L 47.7893,-88.8956 L 47.7145,-88.7227 L 47.6289,-88.5547 L 47.533,-88.3925
 L 47.427,-88.2366 L 47.3115,-88.0877 L 47.1869,-87.9464 L 47.0536,-87.8131 L 46.9123,-87.6884 L 46.7634,-87.5729
 L 46.6075,-87.467 L 46.4453,-87.3711 L 46.2773,-87.2855 L 46.1044,-87.2107 L 45.927,-87.1468 L 45.7461,-87.0942
 L 45.5621,-87.0531 L 45.376,-87.0237 L 45.1884,-87.0059 L 45,-87 z
M 74.8116,-87.0059 L 74.624,-87.0237 L 74.4379,-87.0531 L 74.2539,-87.0942 L 74.0729,-87.1468 L 73.8956,-87.2107
 L 73.7227,-87.2855 L 73.5547,-87.3711 L 73.3925,-87.467 L 73.2366,-87.5729 L 73.0877,-87.6884 L 72.9464,-87.8131
 L 72.8131,-87.9464 L 72.6884,-88.0877 L 72.5729,-88.2366 L 72.467,-88.3925 L 72.3711,-88.5547 L 72.2855,-88.7227
 L 72.2107,-88.8956 L 72.1468,-89.0729 L 72.0942,-89.2539 L 72.0531,-89.4379 L 72.0237,-89.624 L 72.0059,-89.8116
 L 72,-90 L 72.0059,-90.1884 L 72.0237,-90.376 L 72.0531,-90.5621 L 72.0942,-90.7461 L 72.1468,-90.927
 L 72.2107,-91.1044 L 72.2855,-91.2773 L 72.3711,-91.4453 L 72.467,-91.6075 L 72.5729,-91.7634 L 72.6884,-91.9123
 L 72.8131,-92.0536 L 72.9464,-92.1869 L 73.0877,-92.3115 L 73.2366,-92.427 L 73.3925,-92.533 L 73.5547,-92.6289
 L 73.7227,-92.7145 L 73.8956,-92.7893 L 74.0729,-92.8532 L 74.2539,-92.9057 L 74.4379,-92.9469 L 74.624,-92.9763
 L 74.8116,-92.9941 L 75,-93 L 75.1884,-92.9941 L 75.376,-92.9763 L 75.5621,-92.9469 L 75.7461,-92.9057
 L 75.927,-92.8532 L 76.1044,-92.7893 L 76.2773,-92.7145 L 76.4453,-92.6289 L 76.6075,-92.533 L 76.7634,-92.427
 L 76.9123,-92.3115 L 77.0536,-92.1869 L 77.1869,-92.0536 L 77.3115,-91.9123 L 77.427,-91.7634 L 77.533,-91.6075
 L 77.6289,-91.4453 L 77.7145,-91.2773 L 77.7893,-91.1044 L 77.8532,-90.927 L 77.9057,-90.7461 L 77.9469,-90.5621
 L 77.9763,-90.376 L 77.9941,-90.1884 L 78,-90 L 77.9941,-89.8116 L 77.9763,-89.624 L 77.9469,-89.4379
 L 77.9057,-89.2539 L 77.8532,-89.0729 L 77.7893,-88.8956 L 77.7145,-88.7227 L 77.6289,-88.5547 L 77.533,-88.3925
 L 77.427,-88.2366 L 77.3115,-88.0877 L 77.1869,-87.9464 L 77.0536,-87.8131 L 76.9123,-87.6884 L 76.7634,-87.5729
 L 76.6075,-87.467 L 76.4453,-87.3711 L 76.2773,-87.2855 L 76.1044,-87.2107 L 75.927,-87.1468 L 75.7461,-87.0942
 L 75.5621,-87.0531 L 75.376,-87.0237 L 75.1884,-87.0059 L 75,-87 z
M 59.8116,-87.0059 L 59.624,-87.0237 L 59.4379,-87.0531 L 59.2539,-87.0942 L 59.0729,-87.1468 L 58.8956,-87.2107
 L 58.7227,-87.2855 L 58.5547,-87.3711 L 58.3925,-87.467 L 58.2366,-87.5729 L 58.0877,-87.6884 L 57.9464,-87.8131
 L 57.8131,-87.9464 L 57.6884,-88.0877 L 57.5729,-88.2366 L 57.467,-88.3925 L 57.3711,-88.5547 L 57.2855,-88.7227
 L 57.2107,-88.8956 L 57.1468,-89.0729 L 57.0942,-89.2539 L 57.0531,-89.4379 L 57.0237,-89.624 L 57.0059,-89.8116
 L 57,-90 L 57.0059,-90.1884 L 57.0237,-90.376 L 57.0531,-90.5621 L 57.0942,-90.7461 L 57.1468,-90.927
 L 57.2107,-91.1044 L 57.2855,-91.2773 L 57.3711,-91.4453 L 57.467,-91.6075 L 57.5729,-91.7634 L 57.6884,-91.9123
 L 57.8131,-92.0536 L 57.9464,-92.1869 L 58.0877,-92.3115 L 58.2366,-92.427 L 58.3925,-92.533 L 58.5547,-92.6289
 L 58.7227,-92.7145 L 58.8956,-92.7893 L 59.0729,-92.8532 L 59.2539,-92.9057 L 59.4379,-92.9469 L 59.624,-92.9763
 L 59.8116,-92.9941 L 60,-93 L 60.1884,-92.9941 L 60.376,-92.9763 L 60.5621,-92.9469 L 60.7461,-92.9057
 L 60.927,-92.8532 L 61.1044,-92.7893 L 61.2773,-92.7145 L 61.4453,-92.6289 L 61.6075,-92.533 L 61.7634,-92.427
 L 61.9123,-92.3115 L 62.0536,-92.1869 L 62.1869,-92.0536 L 62.3115,-91.9123 L 62.427,-91.7634 L 62.533,-91.6075
 L 62.6289,-91.4453 L 62.7145,-91.2773 L 62.7893,-91.1044 L 62.8532,-90.927 L 62.9057,-90.7461 L 62.9469,-90.5621
 L 62.9763,-90.376 L 62.9941,-90.1884 L 63,-90 L 62.9941,-89.8116 L 62.9763,-89.624 L 62.9469,-89.4379
 L 62.9057,-89.2539 L 62.8532,-89.0729 L 62.7893,-88.8956 L 62.7145,-88.7227 L 62.6289,-88.5547 L 62.533,-88.3925
 L 62.427,-88.2366 L 62.3115,-88.0877 L 62.1869,-87.9464 L 62.0536,-87.8131 L 61.9123,-87.6884 L 61.7634,-87.5729
 L 61.6075,-87.467 L 61.4453,-87.3711 L 61.2773,-87.2855 L 61.1044,-87.2107 L 60.927,-87.1468 L 60.7461,-87.0942
 L 60.5621,-87.0531 L 60.376,-87.0237 L 60.1884,-87.0059 L 60,-87 z
M 89.8116,-87.0059 L 89.624,-87.0237 L 89.4379,-87.0531 L 89.2539,-87.0942 L 89.0729,-87.1468 L 88.8956,-87.2107
 L 88.7227,-87.2855 L 88.5547,-87.3711 L 88.3925,-87.467 L 88.2366,-87.5729 L 88.0877,-87.6884 L 87.9464,-87.8131
 L 87.8131,-87.9464 L 87.6884,-88.0877 L 87.5729,-88.2366 L 87.467,-88.3925 L 87.3711,-88.5547 L 87.2855,-88.7227
 L 87.2107,-88.8956 L 87.1468,-89.0729 L 87.0942,-89.2539 L 87.0531,-89.4379 L 87.0237,-89.624 L 87.0059,-89.8116
 L 87,-90 L 87.0059,-90.1884 L 87.0237,-90.376 L 87.0531,-90.5621 L 87.0942,-90.7461 L 87.1468,-90.927
 L 87.2107,-91.1044 L 87.2855,-91.2773 L 87.3711,-91.4453 L 87.467,-91.6075 L 87.5729,-91.7634 L 87.6884,-91.9123
 L 87.8131,-92.0536 L 87.9464,-92.1869 L 88.0877,-92.3115 L 88.2366,-92.427 L 88.3925,-92.533 L 88.5547,-92.6289
 L 88.7227,-92.7145 L 88.8956,-92.7893 L 89.0729,-92.8532 L 89.2539,-92.9057 L 89.4379,-92.9469 L 89.624,-92.9763
 L 89.8116,-92.9941 L 90,-93 L 90.1884,-92.9941 L 90.376,-92.9763 L 90.5621,-92.9469 L 90.7461,-92.9057
 L 90.927,-92.8532 L 91.1044,-92.7893 L 91.2773,-92.7145 L 91.4453,-92.6289 L 91.6075,-92.533 L 91.7634,-92.427
 L 91.9123,-92.3115 L 92.0536,-92.1869 L 92.1869,-92.0536 L 92.3115,-91.9123 L 92.427,-91.7634 L 92.533,-91.6075
 L 92.6289,-91.4453 L 92.7145,-91.2773 L 92.7893,-91.1044 L 92.8532,-90.927 L 92.9057,-90.7461 L 92.9469,-90.5621
 L 92.9763,-90.376 L 92.9941,-90.1884 L 93,-90 L 92.9941,-89.8116 L 92.9763,-89.624 L 92.9469,-89.4379
 L 92.9057,-89.2539 L 92.8532,-89.0729 L 92.7893,-88.8956 L 92.7145,-88.7227 L 92.6289,-88.5547 L 92.533,-88.3925
 L 92.427,-88.2366 L 92.3115,-88.0877 L 92.1869,-87.9464 L 92.0536,-87.8131 L 91.9123,-87.6884 L 91.7634,-87.5729
 L 91.6075,-87.467 L 91.4453,-87.3711 L 91.2773,-87.2855 L 91.1044,-87.2107 L 90.927,-87.1468 L 90.7461,-87.0942
 L 90.5621,-87.0531 L 90.376,-87.0237 L 90.1884,-87.0059 L 90,-87 z
M 36,-88.5 L 36,-91.5 L 39,-91.5 L 39,-88.5 z
M 21,-88.5 L 21,-91.5 L 24,-91.5 L 24,-88.5 z
M 51,-88.5 L 51,-91.5 L 54,-91.5 L 54,-88.5 z
M 66,-88.5 L 66,-91.5 L 69,-91.5 L 69,-88.5 z
M 81,-88.5 L 81,-91.5 L 84,-91.5 L 84,-88.5 z
M 96,-88.5 L 96,-91.5 L 99,-91.5 L 99,-88.5 z
M 88.5,-81 L 88.5,-84 L 91.5,-84 L 91.5,-81 z
M 13.5,-81 L 13.5,-84 L 16.5,-84 L 16.5,-81 z
M 73.5,-81 L 73.5,-84 L 76.5,-84 L 76.5,-81 z
M 58.5,-81 L 58.5,-84 L 61.5,-84 L 61.5,-81 z
M 43.5,-81 L 43.5,-84 L 46.5,-84 L 46.5,-81 z
M 103.5,-81 L 103.5,-84 L 106.5,-84 L 106.5,-81 z
M 28.5,-81 L 28.5,-84 L 31.5,-84 L 31.5,-81 z
M 29.8116,-72.0059 L 29.624,-72.0237 L 29.4379,-72.0531 L 29.2539,-72.0942 L 29.0729,-72.1468 L 28.8956,-72.2107
 L 28.7227,-72.2855 L 28.5547,-72.3711 L 28.3925,-72.467 L 28.2366,-72.5729 L 28.0877,-72.6884 L 27.9464,-72.8131
 L 27.8131,-72.9464 L 27.6884,-73.0877 L 27.5729,-73.2366 L 27.467,-73.3925 L 27.3711,-73.5547 L 27.2855,-73.7227
 L 27.2107,-73.8956 L 27.1468,-74.0729 L 27.0942,-74.2539 L 27.0531,-74.4379 L 27.0237,-74.624 L 27.0059,-74.8116
 L 27,-75 L 27.0059,-75.1884 L 27.0237,-75.376 L 27.0531,-75.5621 L 27.0942,-75.7461 L 27.1468,-75.927
 L 27.2107,-76.1044 L 27.2855,-76.2773 L 27.3711,-76.4453 L 27.467,-76.6075 L 27.5729,-76.7634 L 27.6884,-76.9123
 L 27.8131,-77.0536 L 27.9464,-77.1869 L 28.0877,-77.3115 L 28.2366,-77.427 L 28.3925,-77.533 L 28.5547,-77.6289
 L 28.7227,-77.7145 L 28.8956,-77.7893 L 29.0729,-77.8532 L 29.2539,-77.9057 L 29.4379,-77.9469 L 29.624,-77.9763
 L 29.8116,-77.9941 L 30,-78 L 30.1884,-77.9941 L 30.376,-77.9763 L 30.5621,-77.9469 L 30.7461,-77.9057
 L 30.927,-77.8532 L 31.1044,-77.7893 L 31.2773,-77.7145 L 31.4453,-77.6289 L 31.6075,-77.533 L 31.7634,-77.427
 L 31.9123,-77.3115 L 32.0536,-77.1869 L 32.1869,-77.0536 L 32.3115,-76.9123 L 32.427,-76.7634 L 32.533,-76.6075
 L 32.6289,-76.4453 L 32.7145,-76.2773 L 32.7893,-76.1044 L 32.8532,-75.927 L 32.9057,-75.7461 L 32.9469,-75.5621
 L 32.9763,-75.376 L 32.9941,-75.1884 L 33,-75 L 32.9941,-74.8116 L 32.9763,-74.624 L 32.9469,-74.4379
 L 32.9057,-74.2539 L 32.8532,-74.0729 L 32.7893,-73.8956 L 32.7145,-73.7227 L 32.6289,-73.5547 L 32.533,-73.3925
 L 32.427,-73.2366 L 32.3115,-73.0877 L 32.1869,-72.9464 L 32.0536,-72.8131 L 31.9123,-72.6884 L 31.7634,-72.5729
 L 31.6075,-72.467 L 31.4453,-72.3711 L 31.2773,-72.2855 L 31.1044,-72.2107 L 30.927,-72.1468 L 30.7461,-72.0942
 L 30.5621,-72.0531 L 30.376,-72.0237 L 30.1884,-72.0059 L 30,-72 z
M 44.8116,-72.0059 L 44.624,-72.0237 L 44.4379,-72.0531 L 44.2539,-72.0942 L 44.0729,-72.1468 L 43.8956,-72.2107
 L 43.7227,-72.2855 L 43.5547,-72.3711 L 43.3925,-72.467 L 43.2366,-72.5729 L 43.0877,-72.6884 L 42.9464,-72.8131
 L 42.8131,-72.9464 L 42.6884,-73.0877 L 42.5729,-73.2366 L 42.467,-73.3925 L 42.3711,-73.5547 L 42.2855,-73.7227
 L 42.2107,-73.8956 L 42.1468,-74.0729 L 42.0942,-74.2539 L 42.0531,-74.4379 L 42.0237,-74.624 L 42.0059,-74.8116
 L 42,-75 L 42.0059,-75.1884 L 42.0237,-75.376 L 42.0531,-75.5621 L 42.0942,-75.7461 L 42.1468,-75.927
 L 42.2107,-76.1044 L 42.2855,-76.2773 L 42.3711,-76.4453 L 42.467,-76.6075 L 42.5729,-76.7634 L 42.6884,-76.9123
 L 42.8131,-77.0536 L 42.9464,-77.1869 L 43.0877,-77.3115 L 43.2366,-77.427 L 43.3925,-77.533 L 43.5547,-77.6289
 L 43.7227,-77.7145 L 43.8956,-77.7893 L 44.0729,-77.8532 L 44.2539,-77.9057 L 44.4379,-77.9469 L 44.624,-77.9763
 L 44.8116,-77.9941 L 45,-78 L 45.1884,-77.9941 L 45.376,-77.9763 L 45.5621,-77.9469 L 45.7461,-77.9057
 L 45.927,-77.8532 L 46.1044,-77.7893 L 46.2773,-77.7145 L 46.4453,-77.6289 L 46.6075,-77.533 L 46.7634,-77.427
 L 46.9123,-77.3115 L 47.0536,-77.1869 L 47.1869,-77.0536 L 47.3115,-76.9123 L 47.427,-76.7634 L 47.533,-76.6075
 L 47.6289,-76.4453 L 47.7145,-76.2773 L 47.7893,-76.1044 L 47.8532,-75.927 L 47.9057,-75.7461 L 47.9469,-75.5621
 L 47.9763,-75.376 L 47.9941,-75.1884 L 48,-75 L 47.9941,-74.8116 L 47.9763,-74.624 L 47.9469,-74.4379
 L 47.9057,-74.2539 L 47.8532,-74.0729 L 47.7893,-73.8956 L 47.7145,-73.7227 L 47.6289,-73.5547 L 47.533,-73.3925
 L 47.427,-73.2366 L 47.3115,-73.0877 L 47.1869,-72.9464 L 47.0536,-72.8131 L 46.9123,-72.6884 L 46.7634,-72.5729
 L 46.6075,-72.467 L 46.4453,-72.3711 L 46.2773,-72.2855 L 46.1044,-72.2107 L 45.927,-72.1468 L 45.7461,-72.0942
 L 45.5621,-72.0531 L 45.376,-72.0237 L 45.1884,-72.0059 L 45,-72 z
M 74.8116,-72.0059 L 74.624,-72.0237 L 74.4379,-72.0531 L 74.2539,-72.0942 L 74.0729,-72.1468 L 73.8956,-72.2107
 L 73.7227,-72.2855 L 73.5547,-72.3711 L 73.3925,-72.467 L 73.2366,-72.5729 L 73.0877,-72.6884 L 72.9464,-72.8131
 L 72.8131,-72.9464 L 72.6884,-73.0877 L 72.5729,-73.2366 L 72.467,-73.3925 L 72.3711,-73.5547 L 72.2855,-73.7227
 L 72.2107,-73.8956 L 72.1468,-74.0729 L 72.0942,-74.2539 L 72.0531,-74.4379 L 72.0237,-74.624 L 72.0059,-74.8116
 L 72,-75 L 72.0059,-75.1884 L 72.0237,-75.376 L 72.0531,-75.5621 L 72.0942,-75.7461 L 72.1468,-75.927
 L 72.2107,-76.1044 L 72.2855,-76.2773 L 72.3711,-76.4453 L 72.467,-76.6075 L 72.5729,-76.7634 L 72.6884,-76.9123
 L 72.8131,-77.0536 L 72.9464,-77.1869 L 73.0877,-77.3115 L 73.2366,-77.427 L 73.3925,-77.533 L 73.5547,-77.6289
 L 73.7227,-77.7145 L 73.8956,-77.7893 L 74.0729,-77.8532 L 74.2539,-77.9057 L 74.4379,-77.9469 L 74.624,-77.9763
 L 74.8116,-77.9941 L 75,-78 L 75.1884,-77.9941 L 75.376,-77.9763 L 75.5621,-77.9469 L 75.7461,-77.9057
 L 75.927,-77.8532 L 76.1044,-77.7893 L 76.2773,-77.7145 L 76.4453,-77.6289 L 76.6075,-77.533 L 76.7634,-77.427
 L 76.9123,-77.3115 L 77.0536,-77.1869 L 77.1869,-77.0536 L 77.3115,-76.9123 L 77.427,-76.7634 L 77.533,-76.6075
 L 77.6289,-76.4453 L 77.7145,-76.2773 L 77.7893,-76.1044 L 77.8532,-75.927 L 77.9057,-75.7461 L 77.9469,-75.5621
 L 77.9763,-75.376 L 77.9941,-75.1884 L 78,-75 L 77.9941,-74.8116 L 77.9763,-74.624 L 77.9469,-74.4379
 L 77.9057,-74.2539 L 77.8532,-74.0729 L 77.7893,-73.8956 L 77.7145,-73.7227 L 77.6289,-73.5547 L 77.533,-73.3925
 L 77.427,-73.2366 L 77.3115,-73.0877 L 77.1869,-72.9464 L 77.0536,-72.8131 L 76.9123,-72.6884 L 76.7634,-72.5729
 L 76.6075,-72.467 L 76.4453,-72.3711 L 76.2773,-72.2855 L 76.1044,-72.2107 L 75.927,-72.1468 L 75.7461,-72.0942
 L 75.5621,-72.0531 L 75.376,-72.0237 L 75.1884,-72.0059 L 75,-72 z
M 14.8116,-72.0059 L 14.624,-72.0237 L 14.4379,-72.0531 L 14.2539,-72.0942 L 14.0729,-72.1468 L 13.8956,-72.2107
 L 13.7227,-72.2855 L 13.5547,-72.3711 L 13.3925,-72.467 L 13.2366,-72.5729 L 13.0877,-72.6884 L 12.9464,-72.8131
 L 12.8131,-72.9464 L 12.6884,-73.0877 L 12.5729,-73.2366 L 12.467,-73.3925 L 12.3711,-73.5547 L 12.2855,-73.7227
 L 12.2107,-73.8956 L 12.1468,-74.0729 L 12.0942,-74.2539 L 12.0531,-74.4379 L 12.0237,-74.624 L 12.0059,-74.8116
 L 12,-75 L 12.0059,-75.1884 L 12.0237,-75.376 L 12.0531,-75.5621 L 12.0942,-75.7461 L 12.1468,-75.927
 L 12.2107,-76.1044 L 12.2855,-76.2773 L 12.3711,-76.4453 L 12.467,-76.6075 L 12.5729,-76.7634 L 12.6884,-76.9123
 L 12.8131,-77.0536 L 12.9464,-77.1869 L 13.0877,-77.3115 L 13.2366,-77.427 L 13.3925,-77.533 L 13.5547,-77.6289
 L 13.7227,-77.7145 L 13.8956,-77.7893 L 14.0729,-77.8532 L 14.2539,-77.9057 L 14.4379,-77.9469 L 14.624,-77.9763
 L 14.8116,-77.9941 L 15,-78 L 15.1884,-77.9941 L 15.376,-77.9763 L 15.5621,-77.9469 L 15.7461,-77.9057
 L 15.927,-77.8532 L 16.1044,-77.7893 L 16.2773,-77.7145 L 16.4453,-77.6289 L 16.6075,-77.533 L 16.7634,-77.427
 L 16.9123,-77.3115 L 17.0536,-77.1869 L 17.1869,-77.0536 L 17.3115,-76.9123 L 17.427,-76.7634 L 17.533,-76.6075
 L 17.6289,-76.4453 L 17.7145,-76.2773 L 17.7893,-76.1044 L 17.8532,-75.927 L 17.9057,-75.7461 L 17.9469,-75.5621
 L 17.9763,-75.376 L 17.9941,-75.1884 L 18,-75 L 17.9941,-74.8116 L 17.9763,-74.624 L 17.9469,-74.4379
 L 17.9057,-74.2539 L 17.8532,-74.0729 L 17.7893,-73.8956 L 17.7145,-73.7227 L 17.6289,-73.5547 L 17.533,-73.3925
 L 17.427,-73.2366 L 17.3115,-73.0877 L 17.1869,-72.9464 L 17.0536,-72.8131 L 16.9123,-72.6884 L 16.7634,-72.5729
 L 16.6075,-72.467 L 16.4453,-72.3711 L 16.2773,-72.2855 L 16.1044,-72.2107 L 15.927,-72.1468 L 15.7461,-72.0942
 L 15.5621,-72.0531 L 15.376,-72.0237 L 15.1884,-72.0059 L 15,-72 z
M 59.8116,-72.0059 L 59.624,-72.0237 L 59.4379,-72.0531 L 59.2539,-72.0942 L 59.0729,-72.1468 L 58.8956,-72.2107
 L 58.7227,-72.2855 L 58.5547,-72.3711 L 58.3925,-72.467 L 58.2366,-72.5729 L 58.0877,-72.6884 L 57.9464,-72.8131
 L 57.8131,-72.9464 L 57.6884,-73.0877 L 57.5729,-73.2366 L 57.467,-73.3925 L 57.3711,-73.5547 L 57.2855,-73.7227
 L 57.2107,-73.8956 L 57.1468,-74.0729 L 57.0942,-74.2539 L 57.0531,-74.4379 L 57.0237,-74.624 L 57.0059,-74.8116
 L 57,-75 L 57.0059,-75.1884 L 57.0237,-75.376 L 57.0531,-75.5621 L 57.0942,-75.7461 L 57.1468,-75.927
 L 57.2107,-76.1044 L 57.2855,-76.2773 L 57.3711,-76.4453 L 57.467,-76.6075 L 57.5729,-76.7634 L 57.6884,-76.9123
 L 57.8131,-77.0536 L 57.9464,-77.1869 L 58.0877,-77.3115 L 58.2366,-77.427 L 58.3925,-77.533 L 58.5547,-77.6289
 L 58.7227,-77.7145 L 58.8956,-77.7893 L 59.0729,-77.8532 L 59.2539,-77.9057 L 59.4379,-77.9469 L 59.624,-77.9763
 L 59.8116,-77.9941 L 60,-78 L 60.1884,-77.9941 L 60.376,-77.9763 L 60.5621,-77.9469 L 60.7461,-77.9057
 L 60.927,-77.8532 L 61.1044,-77.7893 L 61.2773,-77.7145 L 61.4453,-77.6289 L 61.6075,-77.533 L 61.7634,-77.427
 L 61.9123,-77.3115 L 62.0536,-77.1869 L 62.1869,-77.0536 L 62.3115,-76.9123 L 62.427,-76.7634 L 62.533,-76.6075
 L 62.6289,-76.4453 L 62.7145,-76.2773 L 62.7893,-76.1044 L 62.8532,-75.927 L 62.9057,-75.7461 L 62.9469,-75.5621
 L 62.9763,-75.376 L 62.9941,-75.1884 L 63,-75 L 62.9941,-74.8116 L 62.9763,-74.624 L 62.9469,-74.4379
 L 62.9057,-74.2539 L 62.8532,-74.0729 L 62.7893,-73.8956 L 62.7145,-73.7227 L 62.6289,-73.5547 L 62.533,-73.3925
 L 62.427,-73.2366 L 62.3115,-73.0877 L 62.1869,-72.9464 L 62.0536,-72.8131 L 61.9123,-72.6884 L 61.7634,-72.5729
 L 61.6075,-72.467 L 61.4453,-72.3711 L 61.2773,-72.2855 L 61.1044,-72.2107 L 60.927,-72.1468 L 60.7461,-72.0942
 L 60.5621,-72.0531 L 60.376,-72.0237 L 60.1884,-72.0059 L 60,-72 z
M 89.8116,-72.0059 L 89.624,-72.0237 L 89.4379,-72.0531 L 89.2539,-72.0942 L 89.0729,-72.1468 L 88.8956,-72.2107
 L 88.7227,-72.2855 L 88.5547,-72.3711 L 88.3925,-72.467 L 88.2366,-72.5729 L 88.0877,-72.6884 L 87.9464,-72.8131
 L 87.8131,-72.9464 L 87.6884,-73.0877 L 87.5729,-73.2366 L 87.467,-73.3925 L 87.3711,-73.5547 L 87.2855,-73.7227
 L 87.2107,-73.8956 L 87.1468,-74.0729 L 87.0942,-74.2539 L 87.0531,-74.4379 L 87.0237,-74.624 L 87.0059,-74.8116
 L 87,-75 L 87.0059,-75.1884 L 87.0237,-75.376 L 87.0531,-75.5621 L 87.0942,-75.7461 L 87.1468,-75.927
 L 87.2107,-76.1044 L 87.2855,-76.2773 L 87.3711,-76.4453 L 87.467,-76.6075 L 87.5729,-76.7634 L 87.6884,-76.9123
 L 87.8131,-77.0536 L 87.9464,-77.1869 L 88.0877,-77.3115 L 88.2366,-77.427 L 88.3925,-77.533 L 88.5547,-77.6289
 L 88.7227,-77.7145 L 88.8956,-77.7893 L 89.0729,-77.8532 L 89.2539,-77.9057 L 89.4379,-77.9469 L 89.624,-77.9763
 L 89.8116,-77.9941 L 90,-78 L 90.1884,-77.9941 L 90.376,-77.9763 L 90.5621,-77.9469 L 90.7461,-77.9057
 L 90.927,-77.8532 L 91.1044,-77.7893 L 91.2773,-77.7145 L 91.4453,-77.6289 L 91.6075,-77.533 L 91.7634,-77.427
 L 91.9123,-77.3115 L 92.0536,-77.1869 L 92.1869,-77.0536 L 92.3115,-76.9123 L 92.427,-76.7634 L 92.533,-76.6075
 L 92.6289,-76.4453 L 92.7145,-76.2773 L 92.7893,-76.1044 L 92.8532,-75.927 L 92.9057,-75.7461 L 92.9469,-75.5621
 L 92.9763,-75.376 L 92.9941,-75.1884 L 93,-75 L 92.9941,-74.8116 L 92.9763,-74.624 L 92.9469,-74.4379
 L 92.9057,-74.2539 L 92.8532,-74.0729 L 92.7893,-73.8956 L 92.7145,-73.7227 L 92.6289,-73.5547 L 92.533,-73.3925
 L 92.427,-73.2366 L 92.3115,-73.0877 L 92.1869,-72.9464 L 92.0536,-72.8131 L 91.9123,-72.6884 L 91.7634,-72.5729
 L 91.6075,-72.467 L 91.4453,-72.3711 L 91.2773,-72.2855 L 91.1044,-72.2107 L 90.927,-72.1468 L 90.7461,-72.0942
 L 90.5621,-72.0531 L 90.376,-72.0237 L 90.1884,-72.0059 L 90,-72 z
M 104.812,-72.0059 L 104.624,-72.0237 L 104.438,-72.0531 L 104.254,-72.0942 L 104.073,-72.1468 L 103.896,-72.2107
 L 103.723,-72.2855 L 103.555,-72.3711 L 103.393,-72.467 L 103.237,-72.5729 L 103.088,-72.6884 L 102.946,-72.8131
 L 102.813,-72.9464 L 102.688,-73.0877 L 102.573,-73.2366 L 102.467,-73.3925 L 102.371,-73.5547 L 102.286,-73.7227
 L 102.211,-73.8956 L 102.147,-74.0729 L 102.094,-74.2539 L 102.053,-74.4379 L 102.024,-74.624 L 102.006,-74.8116
 L 102,-75 L 102.006,-75.1884 L 102.024,-75.376 L 102.053,-75.5621 L 102.094,-75.7461 L 102.147,-75.927
 L 102.211,-76.1044 L 102.286,-76.2773 L 102.371,-76.4453 L 102.467,-76.6075 L 102.573,-76.7634 L 102.688,-76.9123
 L 102.813,-77.0536 L 102.946,-77.1869 L 103.088,-77.3115 L 103.237,-77.427 L 103.393,-77.533 L 103.555,-77.6289
 L 103.723,-77.7145 L 103.896,-77.7893 L 104.073,-77.8532 L 104.254,-77.9057 L 104.438,-77.9469 L 104.624,-77.9763
 L 104.812,-77.9941 L 105,-78 L 105.188,-77.9941 L 105.376,-77.9763 L 105.562,-77.9469 L 105.746,-77.9057
 L 105.927,-77.8532 L 106.104,-77.7893 L 106.277,-77.7145 L 106.445,-77.6289 L 106.607,-77.533 L 106.763,-77.427
 L 106.912,-77.3115 L 107.054,-77.1869 L 107.187,-77.0536 L 107.312,-76.9123 L 107.427,-76.7634 L 107.533,-76.6075
 L 107.629,-76.4453 L 107.714,-76.2773 L 107.789,-76.1044 L 107.853,-75.927 L 107.906,-75.7461 L 107.947,-75.5621
 L 107.976,-75.376 L 107.994,-75.1884 L 108,-75 L 107.994,-74.8116 L 107.976,-74.624 L 107.947,-74.4379
 L 107.906,-74.2539 L 107.853,-74.0729 L 107.789,-73.8956 L 107.714,-73.7227 L 107.629,-73.5547 L 107.533,-73.3925
 L 107.427,-73.2366 L 107.312,-73.0877 L 107.187,-72.9464 L 107.054,-72.8131 L 106.912,-72.6884 L 106.763,-72.5729
 L 106.607,-72.467 L 106.445,-72.3711 L 106.277,-72.2855 L 106.104,-72.2107 L 105.927,-72.1468 L 105.746,-72.0942
 L 105.562,-72.0531 L 105.376,-72.0237 L 105.188,-72.0059 L 105,-72 z
M 21,-73.5 L 21,-76.5 L 24,-76.5 L 24,-73.5 z
M 66,-73.5 L 66,-76.5 L 69,-76.5 L 69,-73.5 z
M 96,-73.5 L 96,-76.5 L 99,-76.5 L 99,-73.5 z
M 51,-73.5 L 51,-76.5 L 54,-76.5 L 54,-73.5 z
M 36,-73.5 L 36,-76.5 L 39,-76.5 L 39,-73.5 z
M 81,-73.5 L 81,-76.5 L 84,-76.5 L 84,-73.5 z
M 43.5,-66 L 43.5,-69 L 46.5,-69 L 46.5,-66 z
M 103.5,-66 L 103.5,-69 L 106.5,-69 L 106.5,-66 z
M 58.5,-66 L 58.5,-69 L 61.5,-69 L 61.5,-66 z
M 13.5,-66 L 13.5,-69 L 16.5,-69 L 16.5,-66 z
M 73.5,-66 L 73.5,-69 L 76.5,-69 L 76.5,-66 z
M 28.5,-66 L 28.5,-69 L 31.5,-69 L 31.5,-66 z
M 88.5,-66 L 88.5,-69 L 91.5,-69 L 91.5,-66 z
M 104.812,-57.0059 L 104.624,-57.0237 L 104.438,-57.0531 L 104.254,-57.0942 L 104.073,-57.1468 L 103.896,-57.2107
 L 103.723,-57.2855 L 103.555,-57.3711 L 103.393,-57.467 L 103.237,-57.5729 L 103.088,-57.6884 L 102.946,-57.8131
 L 102.813,-57.9464 L 102.688,-58.0877 L 102.573,-58.2366 L 102.467,-58.3925 L 102.371,-58.5547 L 102.286,-58.7227
 L 102.211,-58.8956 L 102.147,-59.0729 L 102.094,-59.2539 L 102.053,-59.4379 L 102.024,-59.624 L 102.006,-59.8116
 L 102,-60 L 102.006,-60.1884 L 102.024,-60.376 L 102.053,-60.5621 L 102.094,-60.7461 L 102.147,-60.927
 L 102.211,-61.1044 L 102.286,-61.2773 L 102.371,-61.4453 L 102.467,-61.6075 L 102.573,-61.7634 L 102.688,-61.9123
 L 102.813,-62.0536 L 102.946,-62.1869 L 103.088,-62.3115 L 103.237,-62.427 L 103.393,-62.533 L 103.555,-62.6289
 L 103.723,-62.7145 L 103.896,-62.7893 L 104.073,-62.8532 L 104.254,-62.9057 L 104.438,-62.9469 L 104.624,-62.9763
 L 104.812,-62.9941 L 105,-63 L 105.188,-62.9941 L 105.376,-62.9763 L 105.562,-62.9469 L 105.746,-62.9057
 L 105.927,-62.8532 L 106.104,-62.7893 L 106.277,-62.7145 L 106.445,-62.6289 L 106.607,-62.533 L 106.763,-62.427
 L 106.912,-62.3115 L 107.054,-62.1869 L 107.187,-62.0536 L 107.312,-61.9123 L 107.427,-61.7634 L 107.533,-61.6075
 L 107.629,-61.4453 L 107.714,-61.2773 L 107.789,-61.1044 L 107.853,-60.927 L 107.906,-60.7461 L 107.947,-60.5621
 L 107.976,-60.376 L 107.994,-60.1884 L 108,-60 L 107.994,-59.8116 L 107.976,-59.624 L 107.947,-59.4379
 L 107.906,-59.2539 L 107.853,-59.0729 L 107.789,-58.8956 L 107.714,-58.7227 L 107.629,-58.5547 L 107.533,-58.3925
 L 107.427,-58.2366 L 107.312,-58.0877 L 107.187,-57.9464 L 107.054,-57.8131 L 106.912,-57.6884 L 106.763,-57.5729
 L 106.607,-57.467 L 106.445,-57.3711 L 106.277,-57.2855 L 106.104,-57.2107 L 105.927,-57.1468 L 105.746,-57.0942
 L 105.562,-57.0531 L 105.376,-57.0237 L 105.188,-57.0059 L 105,-57 z
M 14.8116,-57.0059 L 14.624,-57.0237 L 14.4379,-57.0531 L 14.2539,-57.0942 L 14.0729,-57.1468 L 13.8956,-57.2107
 L 13.7227,-57.2855 L 13.5547,-57.3711 L 13.3925,-57.467 L 13.2366,-57.5729 L 13.0877,-57.6884 L 12.9464,-57.8131
 L 12.8131,-57.9464 L 12.6884,-58.0877 L 12.5729,-58.2366 L 12.467,-58.3925 L 12.3711,-58.5547 L 12.2855,-58.7227
 L 12.2107,-58.8956 L 12.1468,-59.0729 L 12.0942,-59.2539 L 12.0531,-59.4379 L 12.0237,-59.624 L 12.0059,-59.8116
 L 12,-60 L 12.0059,-60.1884 L 12.0237,-60.376 L 12.0531,-60.5621 L 12.0942,-60.7461 L 12.1468,-60.927
 L 12.2107,-61.1044 L 12.2855,-61.2773 L 12.3711,-61.4453 L 12.467,-61.6075 L 12.5729,-61.7634 L 12.6884,-61.9123
 L 12.8131,-62.0536 L 12.9464,-62.1869 L 13.0877,-62.3115 L 13.2366,-62.427 L 13.3925,-62.533 L 13.5547,-62.6289
 L 13.7227,-62.7145 L 13.8956,-62.7893 L 14.0729,-62.8532 L 14.2539,-62.9057 L 14.4379,-62.9469 L 14.624,-62.9763
 L 14.8116,-62.9941 L 15,-63 L 15.1884,-62.9941 L 15.376,-62.9763 L 15.5621,-62.9469 L 15.7461,-62.9057
 L 15.927,-62.8532 L 16.1044,-62.7893 L 16.2773,-62.7145 L 16.4453,-62.6289 L 16.6075,-62.533 L 16.7634,-62.427
 L 16.9123,-62.3115 L 17.0536,-62.1869 L 17.1869,-62.0536 L 17.3115,-61.9123 L 17.427,-61.7634 L 17.533,-61.6075
 L 17.6289,-61.4453 L 17.7145,-61.2773 L 17.7893,-61.1044 L 17.8532,-60.927 L 17.9057,-60.7461 L 17.9469,-60.5621
 L 17.9763,-60.376 L 17.9941,-60.1884 L 18,-60 L 17.9941,-59.8116 L 17.9763,-59.624 L 17.9469,-59.4379
 L 17.9057,-59.2539 L 17.8532,-59.0729 L 17.7893,-58.8956 L 17.7145,-58.7227 L 17.6289,-58.5547 L 17.533,-58.3925
 L 17.427,-58.2366 L 17.3115,-58.0877 L 17.1869,-57.9464 L 17.0536,-57.8131 L 16.9123,-57.6884 L 16.7634,-57.5729
 L 16.6075,-57.467 L 16.4453,-57.3711 L 16.2773,-57.2855 L 16.1044,-57.2107 L 15.927,-57.1468 L 15.7461,-57.0942
 L 15.5621,-57.0531 L 15.376,-57.0237 L 15.1884,-57.0059 L 15,-57 z
M 44.8116,-57.0059 L 44.624,-57.0237 L 44.4379,-57.0531 L 44.2539,-57.0942 L 44.0729,-57.1468 L 43.8956,-57.2107
 L 43.7227,-57.2855 L 43.5547,-57.3711 L 43.3925,-57.467 L 43.2366,-57.5729 L 43.0877,-57.6884 L 42.9464,-57.8131
 L 42.8131,-57.9464 L 42.6884,-58.0877 L 42.5729,-58.2366 L 42.467,-58.3925 L 42.3711,-58.5547 L 42.2855,-58.7227
 L 42.2107,-58.8956 L 42.1468,-59.0729 L 42.0942,-59.2539 L 42.0531,-59.4379 L 42.0237,-59.624 L 42.0059,-59.8116
 L 42,-60 L 42.0059,-60.1884 L 42.0237,-60.376 L 42.0531,-60.5621 L 42.0942,-60.7461 L 42.1468,-60.927
 L 42.2107,-61.1044 L 42.2855,-61.2773 L 42.3711,-61.4453 L 42.467,-61.6075 L 42.5729,-61.7634 L 42.6884,-61.9123
 L 42.8131,-62.0536 L 42.9464,-62.1869 L 43.0877,-62.3115 L 43.2366,-62.427 L 43.3925,-62.533 L 43.5547,-62.6289
 L 43.7227,-62.7145 L 43.8956,-62.7893 L 44.0729,-62.8532 L 44.2539,-62.9057 L 44.4379,-62.9469 L 44.624,-62.9763
 L 44.8116,-62.9941 L 45,-63 L 45.1884,-62.9941 L 45.376,-62.9763 L 45.5621,-62.9469 L 45.7461,-62.9057
 L 45.927,-62.8532 L 46.1044,-62.7893 L 46.2773,-62.7145 L 46.4453,-62.6289 L 46.6075,-62.533 L 46.7634,-62.427
 L 46.9123,-62.3115 L 47.0536,-62.1869 L 47.1869,-62.0536 L 47.3115,-61.9123 L 47.427,-61.7634 L 47.533,-61.6075
 L 47.6289,-61.4453 L 47.7145,-61.2773 L 47.7893,-61.1044 L 47.8532,-60.927 L 47.9057,-60.7461 L 47.9469,-60.5621
 L 47.9763,-60.376 L 47.9941,-60.1884 L 48,-60 L 47.9941,-59.8116 L 47.9763,-59.624 L 47.9469,-59.4379
 L 47.9057,-59.2539 L 47.8532,-59.0729 L 47.7893,-58.8956 L 47.7145,-58.7227 L 47.6289,-58.5547 L 47.533,-58.3925
 L 47.427,-58.2366 L 47.3115,-58.0877 L 47.1869,-57.9464 L 47.0536,-57.8131 L 46.9123,-57.6884 L 46.7634,-57.5729
 L 46.6075,-57.467 L 46.4453,-57.3711 L 46.2773,-57.2855 L 46.1044,-57.2107 L 45.927,-57.1468 L 45.7461,-57.0942
 L 45.5621,-57.0531 L 45.376,-57.0237 L 45.1884,-57.0059 L 45,-57 z
M 89.8116,-57.0059 L 89.624,-57.0237 L 89.4379,-57.0531 L 89.2539,-57.0942 L 89.0729,-57.1468 L 88.8956,-57.2107
 L 88.7227,-57.2855 L 88.5547,-57.3711 L 88.3925,-57.467 L 88.2366,-57.5729 L 88.0877,-57.6884 L 87.9464,-57.8131
 L 87.8131,-57.9464 L 87.6884,-58.0877 L 87.5729,-58.2366 L 87.467,-58.3925 L 87.3711,-58.5547 L 87.2855,-58.7227
 L 87.2107,-58.8956 L 87.1468,-59.0729 L 87.0942,-59.2539 L 87.0531,-59.4379 L 87.0237,-59.624 L 87.0059,-59.8116
 L 87,-60 L 87.0059,-60.1884 L 87.0237,-60.376 L 87.0531,-60.5621 L 87.0942,-60.7461 L 87.1468,-60.927
 L 87.2107,-61.1044 L 87.2855,-61.2773 L 87.3711,-61.4453 L 87.467,-61.6075 L 87.5729,-61.7634 L 87.6884,-61.9123
 L 87.8131,-62.0536 L 87.9464,-62.1869 L 88.0877,-62.3115 L 88.2366,-62.427 L 88.3925,-62.533 L 88.5547,-62.6289
 L 88.7227,-62.7145 L 88.8956,-62.7893 L 89.0729,-62.8532 L 89.2539,-62.9057 L 89.4379,-62.9469 L 89.624,-62.9763
 L 89.8116,-62.9941 L 90,-63 L 90.1884,-62.9941 L 90.376,-62.9763 L 90.5621,-62.9469 L 90.7461,-62.9057
 L 90.927,-62.8532 L 91.1044,-62.7893 L 91.2773,-62.7145 L 91.4453,-62.6289 L 91.6075,-62.533 L 91.7634,-62.427
 L 91.9123,-62.3115 L 92.0536,-62.1869 L 92.1869,-62.0536 L 92.3115,-61.9123 L 92.427,-61.7634 L 92.533,-61.6075
 L 92.6289,-61.4453 L 92.7145,-61.2773 L 92.7893,-61.1044 L 92.8532,-60.927 L 92.9057,-60.7461 L 92.9469,-60.5621
 L 92.9763,-60.376 L 92.9941,-60.1884 L 93,-60 L 92.9941,-59.8116 L 92.9763,-59.624 L 92.9469,-59.4379
 L 92.9057,-59.2539 L 92.8532,-59.0729 L 92.7893,-58.8956 L 92.7145,-58.7227 L 92.6289,-58.5547 L 92.533,-58.3925
 L 92.427,-58.2366 L 92.3115,-58.0877 L 92.1869,-57.9464 L 92.0536,-57.8131 L 91.9123,-57.6884 L 91.7634,-57.5729
 L 91.6075,-57.467 L 91.4453,-57.3711 L 91.2773,-57.2855 L 91.1044,-57.2107 L 90.927,-57.1468 L 90.7461,-57.0942
 L 90.5621,-57.0531 L 90.376,-57.0237 L 90.1884,-57.0059 L 90,-57 z
M 59.8116,-57.0059 L 59.624,-57.0237 L 59.4379,-57.0531 L 59.2539,-57.0942 L 59.0729,-57.1468 L 58.8956,-57.2107
 L 58.7227,-57.2855 L 58.5547,-57.3711 L 58.3925,-57.467 L 58.2366,-57.5729 L 58.0877,-57.6884 L 57.9464,-57.8131
 L 57.8131,-57.9464 L 57.6884,-58.0877 L 57.5729,-58.2366 L 57.467,-58.3925 L 57.3711,-58.5547 L 57.2855,-58.7227
 L 57.2107,-58.8956 L 57.1468,-59.0729 L 57.0942,-59.2539 L 57.0531,-59.4379 L 57.0237,-59.624 L 57.0059,-59.8116
 L 57,-60 L 57.0059,-60.1884 L 57.0237,-60.376 L 57.0531,-60.5621 L 57.0942,-60.7461 L 57.1468,-60.927
 L 57.2107,-61.1044 L 57.2855,-61.2773 L 57.3711,-61.4453 L 57.467,-61.6075 L 57.5729,-61.7634 L 57.6884,-61.9123
 L 57.8131,-62.0536 L 57.9464,-62.1869 L 58.0877,-62.3115 L 58.2366,-62.427 L 58.3925,-62.533 L 58.5547,-62.6289
 L 58.7227,-62.7145 L 58.8956,-62.7893 L 59.0729,-62.8532 L 59.2539,-62.9057 L 59.4379,-62.9469 L 59.624,-62.9763
 L 59.8116,-62.9941 L 60,-63 L 60.1884,-62.9941 L 60.376,-62.9763 L 60.5621,-62.9469 L 60.7461,-62.9057
 L 60.927,-62.8532 L 61.1044,-62.7893 L 61.2773,-62.7145 L 61.4453,-62.6289 L 61.6075,-62.533 L 61.7634,-62.427
 L 61.9123,-62.3115 L 62.0536,-62.1869 L 62.1869,-62.0536 L 62.3115,-61.9123 L 62.427,-61.7634 L 62.533,-61.6075
 L 62.6289,-61.4453 L 62.7145,-61.2773 L 62.7893,-61.1044 L 62.8532,-60.927 L 62.9057,-60.7461 L 62.9469,-60.5621
 L 62.9763,-60.376 L 62.9941,-60.1884 L 63,-60 L 62.9941,-59.8116 L 62.9763,-59.624 L 62.9469,-59.4379
 L 62.9057,-59.2539 L 62.8532,-59.0729 L 62.7893,-58.8956 L 62.7145,-58.7227 L 62.6289,-58.5547 L 62.533,-58.3925
 L 62.427,-58.2366 L 62.3115,-58.0877 L 62.1869,-57.9464 L 62.0536,-57.8131 L 61.9123,-57.6884 L 61.7634,-57.5729
 L 61.6075,-57.467 L 61.4453,-57.3711 L 61.2773,-57.2855 L 61.1044,-57.2107 L 60.927,-57.1468 L 60.7461,-57.0942
 L 60.5621,-57.0531 L 60.376,-57.0237 L 60.1884,-57.0059 L 60,-57 z
M 29.8116,-57.0059 L 29.624,-57.0237 L 29.4379,-57.0531 L 29.2539,-57.0942 L 29.0729,-57.1468 L 28.8956,-57.2107
 L 28.7227,-57.2855 L 28.5547,-57.3711 L 28.3925,-57.467 L 28.2366,-57.5729 L 28.0877,-57.6884 L 27.9464,-57.8131
 L 27.8131,-57.9464 L 27.6884,-58.0877 L 27.5729,-58.2366 L 27.467,-58.3925 L 27.3711,-58.5547 L 27.2855,-58.7227
 L 27.2107,-58.8956 L 27.1468,-59.0729 L 27.0942,-59.2539 L 27.0531,-59.4379 L 27.0237,-59.624 L 27.0059,-59.8116
 L 27,-60 L 27.0059,-60.1884 L 27.0237,-60.376 L 27.0531,-60.5621 L 27.0942,-60.7461 L 27.1468,-60.927
 L 27.2107,-61.1044 L 27.2855,-61.2773 L 27.3711,-61.4453 L 27.467,-61.6075 L 27.5729,-61.7634 L 27.6884,-61.9123
 L 27.8131,-62.0536 L 27.9464,-62.1869 L 28.0877,-62.3115 L 28.2366,-62.427 L 28.3925,-62.533 L 28.5547,-62.6289
 L 28.7227,-62.7145 L 28.8956,-62.7893 L 29.0729,-62.8532 L 29.2539,-62.9057 L 29.4379,-62.9469 L 29.624,-62.9763
 L 29.8116,-62.9941 L 30,-63 L 30.1884,-62.9941 L 30.376,-62.9763 L 30.5621,-62.9469 L 30.7461,-62.9057
 L 30.927,-62.8532 L 31.1044,-62.7893 L 31.2773,-62.7145 L 31.4453,-62.6289 L 31.6075,-62.533 L 31.7634,-62.427
 L 31.9123,-62.3115 L 32.0536,-62.1869 L 32.1869,-62.0536 L 32.3115,-61.9123 L 32.427,-61.7634 L 32.533,-61.6075
 L 32.6289,-61.4453 L 32.7145,-61.2773 L 32.7893,-61.1044 L 32.8532,-60.927 L 32.9057,-60.7461 L 32.9469,-60.5621
 L 32.9763,-60.376 L 32.9941,-60.1884 L 33,-60 L 32.9941,-59.8116 L 32.9763,-59.624 L 32.9469,-59.4379
 L 32.9057,-59.2539 L 32.8532,-59.0729 L 32.7893,-58.8956 L 32.7145,-58.7227 L 32.6289,-58.5547 L 32.533,-58.3925
 L 32.427,-58.2366 L 32.3115,-58.0877 L 32.1869,-57.9464 L 32.0536,-57.8131 L 31.9123,-57.6884 L 31.7634,-57.5729
 L 31.6075,-57.467 L 31.4453,-57.3711 L 31.2773,-57.2855 L 31.1044,-57.2107 L 30.927,-57.1468 L 30.7461,-57.0942
 L 30.5621,-57.0531 L 30.376,-57.0237 L 30.1884,-57.0059 L 30,-57 z
M 74.8116,-57.0059 L 74.624,-57.0237 L 74.4379,-57.0531 L 74.2539,-57.0942 L 74.0729,-57.1468 L 73.8956,-57.2107
 L 73.7227,-57.2855 L 73.5547,-57.3711 L 73.3925,-57.467 L 73.2366,-57.5729 L 73.0877,-57.6884 L 72.9464,-57.8131
 L 72.8131,-57.9464 L 72.6884,-58.0877 L 72.5729,-58.2366 L 72.467,-58.3925 L 72.3711,-58.5547 L 72.2855,-58.7227
 L 72.2107,-58.8956 L 72.1468,-59.0729 L 72.0942,-59.2539 L 72.0531,-59.4379 L 72.0237,-59.624 L 72.0059,-59.8116
 L 72,-60 L 72.0059,-60.1884 L 72.0237,-60.376 L 72.0531,-60.5621 L 72.0942,-60.7461 L 72.1468,-60.927
 L 72.2107,-61.1044 L 72.2855,-61.2773 L 72.3711,-61.4453 L 72.467,-61.6075 L 72.5729,-61.7634 L 72.6884,-61.9123
 L 72.8131,-62.0536 L 72.9464,-62.1869 L 73.0877,-62.3115 L 73.2366,-62.427 L 73.3925,-62.533 L 73.5547,-62.6289
 L 73.7227,-62.7145 L 73.8956,-62.7893 L 74.0729,-62.8532 L 74.2539,-62.9057 L 74.4379,-62.9469 L 74.624,-62.9763
 L 74.8116,-62.9941 L 75,-63 L 75.1884,-62.9941 L 75.376,-62.9763 L 75.5621,-62.9469 L 75.7461,-62.9057
 L 75.927,-62.8532 L 76.1044,-62.7893 L 76.2773,-62.7145 L 76.4453,-62.6289 L 76.6075,-62.533 L 76.7634,-62.427
 L 76.9123,-62.3115 L 77.0536,-62.1869 L 77.1869,-62.0536 L 77.3115,-61.9123 L 77.427,-61.7634 L 77.533,-61.6075
 L 77.6289,-61.4453 L 77.7145,-61.2773 L 77.7893,-61.1044 L 77.8532,-60.927 L 77.9057,-60.7461 L 77.9469,-60.5621
 L 77.9763,-60.376 L 77.9941,-60.1884 L 78,-60 L 77.9941,-59.8116 L 77.9763,-59.624 L 77.9469,-59.4379
 L 77.9057,-59.2539 L 77.8532,-59.0729 L 77.7893,-58.8956 L 77.7145,-58.7227 L 77.6289,-58.5547 L 77.533,-58.3925
 L 77.427,-58.2366 L 77.3115,-58.0877 L 77.1869,-57.9464 L 77.0536,-57.8131 L 76.9123,-57.6884 L 76.7634,-57.5729
 L 76.6075,-57.467 L 76.4453,-57.3711 L 76.2773,-57.2855 L 76.1044,-57.2107 L 75.927,-57.1468 L 75.7461,-57.0942
 L 75.5621,-57.0531 L 75.376,-57.0237 L 75.1884,-57.0059 L 75,-57 z
M 21,-58.5 L 21,-61.5 L 24,-61.5 L 24,-58.5 z
M 66,-58.5 L 66,-61.5 L 69,-61.5 L 69,-58.5 z
M 96,-58.5 L 96,-61.5 L 99,-61.5 L 99,-58.5 z
M 51,-58.5 L 51,-61.5 L 54,-61.5 L 54,-58.5 z
M 81,-58.5 L 81,-61.5 L 84,-61.5 L 84,-58.5 z
M 36,-58.5 L 36,-61.5 L 39,-61.5 L 39,-58.5 z
M 43.5,-51 L 43.5,-54 L 46.5,-54 L 46.5,-51 z
M 28.5,-51 L 28.5,-54 L 31.5,-54 L 31.5,-51 z
M 13.5,-51 L 13.5,-54 L 16.5,-54 L 16.5,-51 z
M 73.5,-51 L 73.5,-54 L 76.5,-54 L 76.5,-51 z
M 88.5,-51 L 88.5,-54 L 91.5,-54 L 91.5,-51 z
M 58.5,-51 L 58.5,-54 L 61.5,-54 L 61.5,-51 z
M 103.5,-51 L 103.5,-54 L 106.5,-54 L 106.5,-51 z
M 74.8116,-42.0059 L 74.624,-42.0237 L 74.4379,-42.0531 L 74.2539,-42.0942 L 74.0729,-42.1468 L 73.8956,-42.2107
 L 73.7227,-42.2855 L 73.5547,-42.3711 L 73.3925,-42.467 L 73.2366,-42.5729 L 73.0877,-42.6884 L 72.9464,-42.8131
 L 72.8131,-42.9464 L 72.6884,-43.0877 L 72.5729,-43.2366 L 72.467,-43.3925 L 72.3711,-43.5547 L 72.2855,-43.7227
 L 72.2107,-43.8956 L 72.1468,-44.0729 L 72.0942,-44.2539 L 72.0531,-44.4379 L 72.0237,-44.624 L 72.0059,-44.8116
 L 72,-45 L 72.0059,-45.1884 L 72.0237,-45.376 L 72.0531,-45.5621 L 72.0942,-45.7461 L 72.1468,-45.927
 L 72.2107,-46.1044 L 72.2855,-46.2773 L 72.3711,-46.4453 L 72.467,-46.6075 L 72.5729,-46.7634 L 72.6884,-46.9123
 L 72.8131,-47.0536 L 72.9464,-47.1869 L 73.0877,-47.3115 L 73.2366,-47.427 L 73.3925,-47.533 L 73.5547,-47.6289
 L 73.7227,-47.7145 L 73.8956,-47.7893 L 74.0729,-47.8532 L 74.2539,-47.9057 L 74.4379,-47.9469 L 74.624,-47.9763
 L 74.8116,-47.9941 L 75,-48 L 75.1884,-47.9941 L 75.376,-47.9763 L 75.5621,-47.9469 L 75.7461,-47.9057
 L 75.927,-47.8532 L 76.1044,-47.7893 L 76.2773,-47.7145 L 76.4453,-47.6289 L 76.6075,-47.533 L 76.7634,-47.427
 L 76.9123,-47.3115 L 77.0536,-47.1869 L 77.1869,-47.0536 L 77.3115,-46.9123 L 77.427,-46.7634 L 77.533,-46.6075
 L 77.6289,-46.4453 L 77.7145,-46.2773 L 77.7893,-46.1044 L 77.8532,-45.927 L 77.9057,-45.7461 L 77.9469,-45.5621
 L 77.9763,-45.376 L 77.9941,-45.1884 L 78,-45 L 77.9941,-44.8116 L 77.9763,-44.624 L 77.9469,-44.4379
 L 77.9057,-44.2539 L 77.8532,-44.0729 L 77.7893,-43.8956 L 77.7145,-43.7227 L 77.6289,-43.5547 L 77.533,-43.3925
 L 77.427,-43.2366 L 77.3115,-43.0877 L 77.1869,-42.9464 L 77.0536,-42.8131 L 76.9123,-42.6884 L 76.7634,-42.5729
 L 76.6075,-42.467 L 76.4453,-42.3711 L 76.2773,-42.2855 L 76.1044,-42.2107 L 75.927,-42.1468 L 75.7461,-42.0942
 L 75.5621,-42.0531 L 75.376,-42.0237 L 75.1884,-42.0059 L 75,-42 z
M 59.8116,-42.0059 L 59.624,-42.0237 L 59.4379,-42.0531 L 59.2539,-42.0942 L 59.0729,-42.1468 L 58.8956,-42.2107
 L 58.7227,-42.2855 L 58.5547,-42.3711 L 58.3925,-42.467 L 58.2366,-42.5729 L 58.0877,-42.6884 L 57.9464,-42.8131
 L 57.8131,-42.9464 L 57.6884,-43.0877 L 57.5729,-43.2366 L 57.467,-43.3925 L 57.3711,-43.5547 L 57.2855,-43.7227
 L 57.2107,-43.8956 L 57.1468,-44.0729 L 57.0942,-44.2539 L 57.0531,-44.4379 L 57.0237,-44.624 L 57.0059,-44.8116
 L 57,-45 L 57.0059,-45.1884 L 57.0237,-45.376 L 57.0531,-45.5621 L 57.0942,-45.7461 L 57.1468,-45.927
 L 57.2107,-46.1044 L 57.2855,-46.2773 L 57.3711,-46.4453 L 57.467,-46.6075 L 57.5729,-46.7634 L 57.6884,-46.9123
 L 57.8131,-47.0536 L 57.9464,-47.1869 L 58.0877,-47.3115 L 58.2366,-47.427 L 58.3925,-47.533 L 58.5547,-47.6289
 L 58.7227,-47.7145 L 58.8956,-47.7893 L 59.0729,-47.8532 L 59.2539,-47.9057 L 59.4379,-47.9469 L 59.624,-47.9763
 L 59.8116,-47.9941 L 60,-48 L 60.1884,-47.9941 L 60.376,-47.9763 L 60.5621,-47.9469 L 60.7461,-47.9057
 L 60.927,-47.8532 L 61.1044,-47.7893 L 61.2773,-47.7145 L 61.4453,-47.6289 L 61.6075,-47.533 L 61.7634,-47.427
 L 61.9123,-47.3115 L 62.0536,-47.1869 L 62.1869,-47.0536 L 62.3115,-46.9123 L 62.427,-46.7634 L 62.533,-46.6075
 L 62.6289,-46.4453 L 62.7145,-46.2773 L 62.7893,-46.1044 L 62.8532,-45.927 L 62.9057,-45.7461 L 62.9469,-45.5621
 L 62.9763,-45.376 L 62.9941,-45.1884 L 63,-45 L 62.9941,-44.8116 L 62.9763,-44.624 L 62.9469,-44.4379
 L 62.9057,-44.2539 L 62.8532,-44.0729 L 62.7893,-43.8956 L 62.7145,-43.7227 L 62.6289,-43.5547 L 62.533,-43.3925
 L 62.427,-43.2366 L 62.3115,-43.0877 L 62.1869,-42.9464 L 62.0536,-42.8131 L 61.9123,-42.6884 L 61.7634,-42.5729
 L 61.6075,-42.467 L 61.4453,-42.3711 L 61.2773,-42.2855 L 61.1044,-42.2107 L 60.927,-42.1468 L 60.7461,-42.0942
 L 60.5621,-42.0531 L 60.376,-42.0237 L 60.1884,-42.0059 L 60,-42 z
M 104.812,-42.0059 L 104.624,-42.0237 L 104.438,-42.0531 L 104.254,-42.0942 L 104.073,-42.1468 L 103.896,-42.2107
 L 103.723,-42.2855 L 103.555,-42.3711 L 103.393,-42.467 L 103.237,-42.5729 L 103.088,-42.6884 L 102.946,-42.8131
 L 102.813,-42.9464 L 102.688,-43.0877 L 102.573,-43.2366 L 102.467,-43.3925 L 102.371,-43.5547 L 102.286,-43.7227
 L 102.211,-43.8956 L 102.147,-44.0729 L 102.094,-44.2539 L 102.053,-44.4379 L 102.024,-44.624 L 102.006,-44.8116
 L 102,-45 L 102.006,-45.1884 L 102.024,-45.376 L 102.053,-45.5621 L 102.094,-45.7461 L 102.147,-45.927
 L 102.211,-46.1044 L 102.286,-46.2773 L 102.371,-46.4453 L 102.467,-46.6075 L 102.573,-46.7634 L 102.688,-46.9123
 L 102.813,-47.0536 L 102.946,-47.1869 L 103.088,-47.3115 L 103.237,-47.427 L 103.393,-47.533 L 103.555,-47.6289
 L 103.723,-47.7145 L 103.896,-47.7893 L 104.073,-47.8532 L 104.254,-47.9057 L 104.438,-47.9469 L 104.624,-47.9763
 L 104.812,-47.9941 L 105,-48 L 105.188,-47.9941 L 105.376,-47.9763 L 105.562,-47.9469 L 105.746,-47.9057
 L 105.927,-47.8532 L 106.104,-47.7893 L 106.277,-47.7145 L 106.445,-47.6289 L 106.607,-47.533 L 106.763,-47.427
 L 106.912,-47.3115 L 107.054,-47.1869 L 107.187,-47.0536 L 107.312,-46.9123 L 107.427,-46.7634 L 107.533,-46.6075
 L 107.629,-46.4453 L 107.714,-46.2773 L 107.789,-46.1044 L 107.853,-45.927 L 107.906,-45.7461 L 107.947,-45.5621
 L 107.976,-45.376 L 107.994,-45.1884 L 108,-45 L 107.994,-44.8116 L 107.976,-44.624 L 107.947,-44.4379
 L 107.906,-44.2539 L 107.853,-44.0729 L 107.789,-43.8956 L 107.714,-43.7227 L 107.629,-43.5547 L 107.533,-43.3925
 L 107.427,-43.2366 L 107.312,-43.0877 L 107.187,-42.9464 L 107.054,-42.8131 L 106.912,-42.6884 L 106.763,-42.5729
 L 106.607,-42.467 L 106.445,-42.3711 L 106.277,-42.2855 L 106.104,-42.2107 L 105.927,-42.1468 L 105.746,-42.0942
 L 105.562,-42.0531 L 105.376,-42.0237 L 105.188,-42.0059 L 105,-42 z
M 44.8116,-42.0059 L 44.624,-42.0237 L 44.4379,-42.0531 L 44.2539,-42.0942 L 44.0729,-42.1468 L 43.8956,-42.2107
 L 43.7227,-42.2855 L 43.5547,-42.3711 L 43.3925,-42.467 L 43.2366,-42.5729 L 43.0877,-42.6884 L 42.9464,-42.8131
 L 42.8131,-42.9464 L 42.6884,-43.0877 L 42.5729,-43.2366 L 42.467,-43.3925 L 42.3711,-43.5547 L 42.2855,-43.7227
 L 42.2107,-43.8956 L 42.1468,-44.0729 L 42.0942,-44.2539 L 42.0531,-44.4379 L 42.0237,-44.624 L 42.0059,-44.8116
 L 42,-45 L 42.0059,-45.1884 L 42.0237,-45.376 L 42.0531,-45.5621 L 42.0942,-45.7461 L 42.1468,-45.927
 L 42.2107,-46.1044 L 42.2855,-46.2773 L 42.3711,-46.4453 L 42.467,-46.6075 L 42.5729,-46.7634 L 42.6884,-46.9123
 L 42.8131,-47.0536 L 42.9464,-47.1869 L 43.0877,-47.3115 L 43.2366,-47.427 L 43.3925,-47.533 L 43.5547,-47.6289
 L 43.7227,-47.7145 L 43.8956,-47.7893 L 44.0729,-47.8532 L 44.2539,-47.9057 L 44.4379,-47.9469 L 44.624,-47.9763
 L 44.8116,-47.9941 L 45,-48 L 45.1884,-47.9941 L 45.376,-47.9763 L 45.5621,-47.9469 L 45.7461,-47.9057
 L 45.927,-47.8532 L 46.1044,-47.7893 L 46.2773,-47.7145 L 46.4453,-47.6289 L 46.6075,-47.533 L 46.7634,-47.427
 L 46.9123,-47.3115 L 47.0536,-47.1869 L 47.1869,-47.0536 L 47.3115,-46.9123 L 47.427,-46.7634 L 47.533,-46.6075
 L 47.6289,-46.4453 L 47.7145,-46.2773 L 47.7893,-46.1044 L 47.8532,-45.927 L 47.9057,-45.7461 L 47.9469,-45.5621
 L 47.9763,-45.376 L 47.9941,-45.1884 L 48,-45 L 47.9941,-44.8116 L 47.9763,-44.624 L 47.9469,-44.4379
 L 47.9057,-44.2539 L 47.8532,-44.0729 L 47.7893,-43.8956 L 47.7145,-43.7227 L 47.6289,-43.5547 L 47.533,-43.3925
 L 47.427,-43.2366 L 47.3115,-43.0877 L 47.1869,-42.9464 L 47.0536,-42.8131 L 46.9123,-42.6884 L 46.7634,-42.5729
 L 46.6075,-42.467 L 46.4453,-42.3711 L 46.2773,-42.2855 L 46.1044,-42.2107 L 45.927,-42.1468 L 45.7461,-42.0942
 L 45.5621,-42.0531 L 45.376,-42.0237 L 45.1884,-42.0059 L 45,-42 z
M 29.8116,-42.0059 L 29.624,-42.0237 L 29.4379,-42.0531 L 29.2539,-42.0942 L 29.0729,-42.1468 L 28.8956,-42.2107
 L 28.7227,-42.2855 L 28.5547,-42.3711 L 28.3925,-42.467 L 28.2366,-42.5729 L 28.0877,-42.6884 L 27.9464,-42.8131
 L 27.8131,-42.9464 L 27.6884,-43.0877 L 27.5729,-43.2366 L 27.467,-43.3925 L 27.3711,-43.5547 L 27.2855,-43.7227
 L 27.2107,-43.8956 L 27.1468,-44.0729 L 27.0942,-44.2539 L 27.0531,-44.4379 L 27.0237,-44.624 L 27.0059,-44.8116
 L 27,-45 L 27.0059,-45.1884 L 27.0237,-45.376 L 27.0531,-45.5621 L 27.0942,-45.7461 L 27.1468,-45.927
 L 27.2107,-46.1044 L 27.2855,-46.2773 L 27.3711,-46.4453 L 27.467,-46.6075 L 27.5729,-46.7634 L 27.6884,-46.9123
 L 27.8131,-47.0536 L 27.9464,-47.1869 L 28.0877,-47.3115 L 28.2366,-47.427 L 28.3925,-47.533 L 28.5547,-47.6289
 L 28.7227,-47.7145 L 28.8956,-47.7893 L 29.0729,-47.8532 L 29.2539,-47.9057 L 29.4379,-47.9469 L 29.624,-47.9763
 L 29.8116,-47.9941 L 30,-48 L 30.1884,-47.9941 L 30.376,-47.9763 L 30.5621,-47.9469 L 30.7461,-47.9057
 L 30.927,-47.8532 L 31.1044,-47.7893 L 31.2773,-47.7145 L 31.4453,-47.6289 L 31.6075,-47.533 L 31.7634,-47.427
 L 31.9123,-47.3115 L 32.0536,-47.1869 L 32.1869,-47.0536 L 32.3115,-46.9123 L 32.427,-46.7634 L 32.533,-46.6075
 L 32.6289,-46.4453 L 32.7145,-46.2773 L 32.7893,-46.1044 L 32.8532,-45.927 L 32.9057,-45.7461 L 32.9469,-45.5621
 L 32.9763,-45.376 L 32.9941,-45.1884 L 33,-45 L 32.9941,-44.8116 L 32.9763,-44.624 L 32.9469,-44.4379
 L 32.9057,-44.2539 L 32.8532,-44.0729 L 32.7893,-43.8956 L 32.7145,-43.7227 L 32.6289,-43.5547 L 32.533,-43.3925
 L 32.427,-43.2366 L 32.3115,-43.0877 L 32.1869,-42.9464 L 32.0536,-42.8131 L 31.9123,-42.6884 L 31.7634,-42.5729
 L 31.6075,-42.467 L 31.4453,-42.3711 L 31.2773,-42.2855 L 31.1044,-42.2107 L 30.927,-42.1468 L 30.7461,-42.0942
 L 30.5621,-42.0531 L 30.376,-42.0237 L 30.1884,-42.0059 L 30,-42 z
M 89.8116,-42.0059 L 89.624,-42.0237 L 89.4379,-42.0531 L 89.2539,-42.0942 L 89.0729,-42.1468 L 88.8956,-42.2107
 L 88.7227,-42.2855 L 88.5547,-42.3711 L 88.3925,-42.467 L 88.2366,-42.5729 L 88.0877,-42.6884 L 87.9464,-42.8131
 L 87.8131,-42.9464 L 87.6884,-43.0877 L 87.5729,-43.2366 L 87.467,-43.3925 L 87.3711,-43.5547 L 87.2855,-43.7227
 L 87.2107,-43.8956 L 87.1468,-44.0729 L 87.0942,-44.2539 L 87.0531,-44.4379 L 87.0237,-44.624 L 87.0059,-44.8116
 L 87,-45 L 87.0059,-45.1884 L 87.0237,-45.376 L 87.0531,-45.5621 L 87.0942,-45.7461 L 87.1468,-45.927
 L 87.2107,-46.1044 L 87.2855,-46.2773 L 87.3711,-46.4453 L 87.467,-46.6075 L 87.5729,-46.7634 L 87.6884,-46.9123
 L 87.8131,-47.0536 L 87.9464,-47.1869 L 88.0877,-47.3115 L 88.2366,-47.427 L 88.3925,-47.533 L 88.5547,-47.6289
 L 88.7227,-47.7145 L 88.8956,-47.7893 L 89.0729,-47.8532 L 89.2539,-47.9057 L 89.4379,-47.9469 L 89.624,-47.9763
 L 89.8116,-47.9941 L 90,-48 L 90.1884,-47.9941 L 90.376,-47.9763 L 90.5621,-47.9469 L 90.7461,-47.9057
 L 90.927,-47.8532 L 91.1044,-47.7893 L 91.2773,-47.7145 L 91.4453,-47.6289 L 91.6075,-47.533 L 91.7634,-47.427
 L 91.9123,-47.3115 L 92.0536,-47.1869 L 92.1869,-47.0536 L 92.3115,-46.9123 L 92.427,-46.7634 L 92.533,-46.6075
 L 92.6289,-46.4453 L 92.7145,-46.2773 L 92.7893,-46.1044 L 92.8532,-45.927 L 92.9057,-45.7461 L 92.9469,-45.5621
 L 92.9763,-45.376 L 92.9941,-45.1884 L 93,-45 L 92.9941,-44.8116 L 92.9763,-44.624 L 92.9469,-44.4379
 L 92.9057,-44.2539 L 92.8532,-44.0729 L 92.7893,-43.8956 L 92.7145,-43.7227 L 92.6289,-43.5547 L 92.533,-43.3925
 L 92.427,-43.2366 L 92.3115,-43.0877 L 92.1869,-42.9464 L 92.0536,-42.8131 L 91.9123,-42.6884 L 91.7634,-42.5729
 L 91.6075,-42.467 L 91.4453,-42.3711 L 91.2773,-42.2855 L 91.1044,-42.2107 L 90.927,-42.1468 L 90.7461,-42.0942
 L 90.5621,-42.0531 L 90.376,-42.0237 L 90.1884,-42.0059 L 90,-42 z
M 14.8116,-42.0059 L 14.624,-42.0237 L 14.4379,-42.0531 L 14.2539,-42.0942 L 14.0729,-42.1468 L 13.8956,-42.2107
 L 13.7227,-42.2855 L 13.5547,-42.3711 L 13.3925,-42.467 L 13.2366,-42.5729 L 13.0877,-42.6884 L 12.9464,-42.8131
 L 12.8131,-42.9464 L 12.6884,-43.0877 L 12.5729,-43.2366 L 12.467,-43.3925 L 12.3711,-43.5547 L 12.2855,-43.7227
 L 12.2107,-43.8956 L 12.1468,-44.0729 L 12.0942,-44.2539 L 12.0531,-44.4379 L 12.0237,-44.624 L 12.0059,-44.8116
 L 12,-45 L 12.0059,-45.1884 L 12.0237,-45.376 L 12.0531,-45.5621 L 12.0942,-45.7461 L 12.1468,-45.927
 L 12.2107,-46.1044 L 12.2855,-46.2773 L 12.3711,-46.4453 L 12.467,-46.6075 L 12.5729,-46.7634 L 12.6884,-46.9123
 L 12.8131,-47.0536 L 12.9464,-47.1869 L 13.0877,-47.3115 L 13.2366,-47.427 L 13.3925,-47.533 L 13.5547,-47.6289
 L 13.7227,-47.7145 L 13.8956,-47.7893 L 14.0729,-47.8532 L 14.2539,-47.9057 L 14.4379,-47.9469 L 14.624,-47.9763
 L 14.8116,-47.9941 L 15,-48 L 15.1884,-47.9941 L 15.376,-47.9763 L 15.5621,-47.9469 L 15.7461,-47.9057
 L 15.927,-47.8532 L 16.1044,-47.7893 L 16.2773,-47.7145 L 16.4453,-47.6289 L 16.6075,-47.533 L 16.7634,-47.427
 L 16.9123,-47.3115 L 17.0536,-47.1869 L 17.1869,-47.0536 L 17.3115,-46.9123 L 17.427,-46.7634 L 17.533,-46.6075
 L 17.6289,-46.4453 L 17.7145,-46.2773 L 17.7893,-46.1044 L 17.8532,-45.927 L 17.9057,-45.7461 L 17.9469,-45.5621
 L 17.9763,-45.376 L 17.9941,-45.1884 L 18,-45 L 17.9941,-44.8116 L 17.9763,-44.624 L 17.9469,-44.4379
 L 17.9057,-44.2539 L 17.8532,-44.0729 L 17.7893,-43.8956 L 17.7145,-43.7227 L 17.6289,-43.5547 L 17.533,-43.3925
 L 17.427,-43.2366 L 17.3115,-43.0877 L 17.1869,-42.9464 L 17.0536,-42.8131 L 16.9123,-42.6884 L 16.7634,-42.5729
 L 16.6075,-42.467 L 16.4453,-42.3711 L 16.2773,-42.2855 L 16.1044,-42.2107 L 15.927,-42.1468 L 15.7461,-42.0942
 L 15.5621,-42.0531 L 15.376,-42.0237 L 15.1884,-42.0059 L 15,-42 z
M 21,-43.5 L 21,-46.5 L 24,-46.5 L 24,-43.5 z
M 36,-43.5 L 36,-46.5 L 39,-46.5 L 39,-43.5 z
M 51,-43.5 L 51,-46.5 L 54,-46.5 L 54,-43.5 z
M 96,-43.5 L 96,-46.5 L 99,-46.5 L 99,-43.5 z
M 66,-43.5 L 66,-46.5 L 69,-46.5 L 69,-43.5 z
M 81,-43.5 L 81,-46.5 L 84,-46.5 L 84,-43.5 z
M 103.5,-36 L 103.5,-39 L 106.5,-39 L 106.5,-36 z
M 73.5,-36 L 73.5,-39 L 76.5,-39 L 76.5,-36 z
M 28.5,-36 L 28.5,-39 L 31.5,-39 L 31.5,-36 z
M 13.5,-36 L 13.5,-39 L 16.5,-39 L 16.5,-36 z
M 58.5,-36 L 58.5,-39 L 61.5,-39 L 61.5,-36 z
M 43.5,-36 L 43.5,-39 L 46.5,-39 L 46.5,-36 z
M 88.5,-36 L 88.5,-39 L 91.5,-39 L 91.5,-36 z
M 104.812,-27.0059 L 104.624,-27.0237 L 104.438,-27.0531 L 104.254,-27.0942 L 104.073,-27.1468 L 103.896,-27.2107
 L 103.723,-27.2855 L 103.555,-27.3711 L 103.393,-27.467 L 103.237,-27.5729 L 103.088,-27.6884 L 102.946,-27.8131
 L 102.813,-27.9464 L 102.688,-28.0877 L 102.573,-28.2366 L 102.467,-28.3925 L 102.371,-28.5547 L 102.286,-28.7227
 L 102.211,-28.8956 L 102.147,-29.0729 L 102.094,-29.2539 L 102.053,-29.4379 L 102.024,-29.624 L 102.006,-29.8116
 L 102,-30 L 102.006,-30.1884 L 102.024,-30.376 L 102.053,-30.5621 L 102.094,-30.7461 L 102.147,-30.927
 L 102.211,-31.1044 L 102.286,-31.2773 L 102.371,-31.4453 L 102.467,-31.6075 L 102.573,-31.7634 L 102.688,-31.9123
 L 102.813,-32.0536 L 102.946,-32.1869 L 103.088,-32.3115 L 103.237,-32.427 L 103.393,-32.533 L 103.555,-32.6289
 L 103.723,-32.7145 L 103.896,-32.7893 L 104.073,-32.8532 L 104.254,-32.9057 L 104.438,-32.9469 L 104.624,-32.9763
 L 104.812,-32.9941 L 105,-33 L 105.188,-32.9941 L 105.376,-32.9763 L 105.562,-32.9469 L 105.746,-32.9057
 L 105.927,-32.8532 L 106.104,-32.7893 L 106.277,-32.7145 L 106.445,-32.6289 L 106.607,-32.533 L 106.763,-32.427
 L 106.912,-32.3115 L 107.054,-32.1869 L 107.187,-32.0536 L 107.312,-31.9123 L 107.427,-31.7634 L 107.533,-31.6075
 L 107.629,-31.4453 L 107.714,-31.2773 L 107.789,-31.1044 L 107.853,-30.927 L 107.906,-30.7461 L 107.947,-30.5621
 L 107.976,-30.376 L 107.994,-30.1884 L 108,-30 L 107.994,-29.8116 L 107.976,-29.624 L 107.947,-29.4379
 L 107.906,-29.2539 L 107.853,-29.0729 L 107.789,-28.8956 L 107.714,-28.7227 L 107.629,-28.5547 L 107.533,-28.3925
 L 107.427,-28.2366 L 107.312,-28.0877 L 107.187,-27.9464 L 107.054,-27.8131 L 106.912,-27.6884 L 106.763,-27.5729
 L 106.607,-27.467 L 106.445,-27.3711 L 106.277,-27.2855 L 106.104,-27.2107 L 105.927,-27.1468 L 105.746,-27.0942
 L 105.562,-27.0531 L 105.376,-27.0237 L 105.188,-27.0059 L 105,-27 z
M 14.8116,-27.0059 L 14.624,-27.0237 L 14.4379,-27.0531 L 14.2539,-27.0942 L 14.0729,-27.1468 L 13.8956,-27.2107
 L 13.7227,-27.2855 L 13.5547,-27.3711 L 13.3925,-27.467 L 13.2366,-27.5729 L 13.0877,-27.6884 L 12.9464,-27.8131
 L 12.8131,-27.9464 L 12.6884,-28.0877 L 12.5729,-28.2366 L 12.467,-28.3925 L 12.3711,-28.5547 L 12.2855,-28.7227
 L 12.2107,-28.8956 L 12.1468,-29.0729 L 12.0942,-29.2539 L 12.0531,-29.4379 L 12.0237,-29.624 L 12.0059,-29.8116
 L 12,-30 L 12.0059,-30.1884 L 12.0237,-30.376 L 12.0531,-30.5621 L 12.0942,-30.7461 L 12.1468,-30.927
 L 12.2107,-31.1044 L 12.2855,-31.2773 L 12.3711,-31.4453 L 12.467,-31.6075 L 12.5729,-31.7634 L 12.6884,-31.9123
 L 12.8131,-32.0536 L 12.9464,-32.1869 L 13.0877,-32.3115 L 13.2366,-32.427 L 13.3925,-32.533 L 13.5547,-32.6289
 L 13.7227,-32.7145 L 13.8956,-32.7893 L 14.0729,-32.8532 L 14.2539,-32.9057 L 14.4379,-32.9469 L 14.624,-32.9763
 L 14.8116,-32.9941 L 15,-33 L 15.1884,-32.9941 L 15.376,-32.9763 L 15.5621,-32.9469 L 15.7461,-32.9057
 L 15.927,-32.8532 L 16.1044,-32.7893 L 16.2773,-32.7145 L 16.4453,-32.6289 L 16.6075,-32.533 L 16.7634,-32.427
 L 16.9123,-32.3115 L 17.0536,-32.1869 L 17.1869,-32.0536 L 17.3115,-31.9123 L 17.427,-31.7634 L 17.533,-31.6075
 L 17.6289,-31.4453 L 17.7145,-31.2773 L 17.7893,-31.1044 L 17.8532,-30.927 L 17.9057,-30.7461 L 17.9469,-30.5621
 L 17.9763,-30.376 L 17.9941,-30.1884 L 18,-30 L 17.9941,-29.8116 L 17.9763,-29.624 L 17.9469,-29.4379
 L 17.9057,-29.2539 L 17.8532,-29.0729 L 17.7893,-28.8956 L 17.7145,-28.7227 L 17.6289,-28.5547 L 17.533,-28.3925
 L 17.427,-28.2366 L 17.3115,-28.0877 L 17.1869,-27.9464 L 17.0536,-27.8131 L 16.9123,-27.6884 L 16.7634,-27.5729
 L 16.6075,-27.467 L 16.4453,-27.3711 L 16.2773,-27.2855 L 16.1044,-27.2107 L 15.927,-27.1468 L 15.7461,-27.0942
 L 15.5621,-27.0531 L 15.376,-27.0237 L 15.1884,-27.0059 L 15,-27 z
M 89.8116,-27.0059 L 89.624,-27.0237 L 89.4379,-27.0531 L 89.2539,-27.0942 L 89.0729,-27.1468 L 88.8956,-27.2107
 L 88.7227,-27.2855 L 88.5547,-27.3711 L 88.3925,-27.467 L 88.2366,-27.5729 L 88.0877,-27.6884 L 87.9464,-27.8131
 L 87.8131,-27.9464 L 87.6884,-28.0877 L 87.5729,-28.2366 L 87.467,-28.3925 L 87.3711,-28.5547 L 87.2855,-28.7227
 L 87.2107,-28.8956 L 87.1468,-29.0729 L 87.0942,-29.2539 L 87.0531,-29.4379 L 87.0237,-29.624 L 87.0059,-29.8116
 L 87,-30 L 87.0059,-30.1884 L 87.0237,-30.376 L 87.0531,-30.5621 L 87.0942,-30.7461 L 87.1468,-30.927
 L 87.2107,-31.1044 L 87.2855,-31.2773 L 87.3711,-31.4453 L 87.467,-31.6075 L 87.5729,-31.7634 L 87.6884,-31.9123
 L 87.8131,-32.0536 L 87.9464,-32.1869 L 88.0877,-32.3115 L 88.2366,-32.427 L 88.3925,-32.533 L 88.5547,-32.6289
 L 88.7227,-32.7145 L 88.8956,-32.7893 L 89.0729,-32.8532 L 89.2539,-32.9057 L 89.4379,-32.9469 L 89.624,-32.9763
 L 89.8116,-32.9941 L 90,-33 L 90.1884,-32.9941 L 90.376,-32.9763 L 90.5621,-32.9469 L 90.7461,-32.9057
 L 90.927,-32.8532 L 91.1044,-32.7893 L 91.2773,-32.7145 L 91.4453,-32.6289 L 91.6075,-32.533 L 91.7634,-32.427
 L 91.9123,-32.3115 L 92.0536,-32.1869 L 92.1869,-32.0536 L 92.3115,-31.9123 L 92.427,-31.7634 L 92.533,-31.6075
 L 92.6289,-31.4453 L 92.7145,-31.2773 L 92.7893,-31.1044 L 92.8532,-30.927 L 92.9057,-30.7461 L 92.9469,-30.5621
 L 92.9763,-30.376 L 92.9941,-30.1884 L 93,-30 L 92.9941,-29.8116 L 92.9763,-29.624 L 92.9469,-29.4379
 L 92.9057,-29.2539 L 92.8532,-29.0729 L 92.7893,-28.8956 L 92.7145,-28.7227 L 92.6289,-28.5547 L 92.533,-28.3925
 L 92.427,-28.2366 L 92.3115,-28.0877 L 92.1869,-27.9464 L 92.0536,-27.8131 L 91.9123,-27.6884 L 91.7634,-27.5729
 L 91.6075,-27.467 L 91.4453,-27.3711 L 91.2773,-27.2855 L 91.1044,-27.2107 L 90.927,-27.1468 L 90.7461,-27.0942
 L 90.5621,-27.0531 L 90.376,-27.0237 L 90.1884,-27.0059 L 90,-27 z
M 29.8116,-27.0059 L 29.624,-27.0237 L 29.4379,-27.0531 L 29.2539,-27.0942 L 29.0729,-27.1468 L 28.8956,-27.2107
 L 28.7227,-27.2855 L 28.5547,-27.3711 L 28.3925,-27.467 L 28.2366,-27.5729 L 28.0877,-27.6884 L 27.9464,-27.8131
 L 27.8131,-27.9464 L 27.6884,-28.0877 L 27.5729,-28.2366 L 27.467,-28.3925 L 27.3711,-28.5547 L 27.2855,-28.7227
 L 27.2107,-28.8956 L 27.1468,-29.0729 L 27.0942,-29.2539 L 27.0531,-29.4379 L 27.0237,-29.624 L 27.0059,-29.8116
 L 27,-30 L 27.0059,-30.1884 L 27.0237,-30.376 L 27.0531,-30.5621 L 27.0942,-30.7461 L 27.1468,-30.927
 L 27.2107,-31.1044 L 27.2855,-31.2773 L 27.3711,-31.4453 L 27.467,-31.6075 L 27.5729,-31.7634 L 27.6884,-31.9123
 L 27.8131,-32.0536 L 27.9464,-32.1869 L 28.0877,-32.3115 L 28.2366,-32.427 L 28.3925,-32.533 L 28.5547,-32.6289
 L 28.7227,-32.7145 L 28.8956,-32.7893 L 29.0729,-32.8532 L 29.2539,-32.9057 L 29.4379,-32.9469 L 29.624,-32.9763
 L 29.8116,-32.9941 L 30,-33 L 30.1884,-32.9941 L 30.376,-32.9763 L 30.5621,-32.9469 L 30.7461,-32.9057
 L 30.927,-32.8532 L 31.1044,-32.7893 L 31.2773,-32.7145 L 31.4453,-32.6289 L 31.6075,-32.533 L 31.7634,-32.427
 L 31.9123,-32.3115 L 32.0536,-32.1869 L 32.1869,-32.0536 L 32.3115,-31.9123 L 32.427,-31.7634 L 32.533,-31.6075
 L 32.6289,-31.4453 L 32.7145,-31.2773 L 32.7893,-31.1044 L 32.8532,-30.927 L 32.9057,-30.7461 L 32.9469,-30.5621
 L 32.9763,-30.376 L 32.9941,-30.1884 L 33,-30 L 32.9941,-29.8116 L 32.9763,-29.624 L 32.9469,-29.4379
 L 32.9057,-29.2539 L 32.8532,-29.0729 L 32.7893,-28.8956 L 32.7145,-28.7227 L 32.6289,-28.5547 L 32.533,-28.3925
 L 32.427,-28.2366 L 32.3115,-28.0877 L 32.1869,-27.9464 L 32.0536,-27.8131 L 31.9123,-27.6884 L 31.7634,-27.5729
 L 31.6075,-27.467 L 31.4453,-27.3711 L 31.2773,-27.2855 L 31.1044,-27.2107 L 30.927,-27.1468 L 30.7461,-27.0942
 L 30.5621,-27.0531 L 30.376,-27.0237 L 30.1884,-27.0059 L 30,-27 z
M 74.8116,-27.0059 L 74.624,-27.0237 L 74.4379,-27.0531 L 74.2539,-27.0942 L 74.0729,-27.1468 L 73.8956,-27.2107
 L 73.7227,-27.2855 L 73.5547,-27.3711 L 73.3925,-27.467 L 73.2366,-27.5729 L 73.0877,-27.6884 L 72.9464,-27.8131
 L 72.8131,-27.9464 L 72.6884,-28.0877 L 72.5729,-28.2366 L 72.467,-28.3925 L 72.3711,-28.5547 L 72.2855,-28.7227
 L 72.2107,-28.8956 L 72.1468,-29.0729 L 72.0942,-29.2539 L 72.0531,-29.4379 L 72.0237,-29.624 L 72.0059,-29.8116
 L 72,-30 L 72.0059,-30.1884 L 72.0237,-30.376 L 72.0531,-30.5621 L 72.0942,-30.7461 L 72.1468,-30.927
 L 72.2107,-31.1044 L 72.2855,-31.2773 L 72.3711,-31.4453 L 72.467,-31.6075 L 72.5729,-31.7634 L 72.6884,-31.9123
 L 72.8131,-32.0536 L 72.9464,-32.1869 L 73.0877,-32.3115 L 73.2366,-32.427 L 73.3925,-32.533 L 73.5547,-32.6289
 L 73.7227,-32.7145 L 73.8956,-32.7893 L 74.0729,-32.8532 L 74.2539,-32.9057 L 74.4379,-32.9469 L 74.624,-32.9763
 L 74.8116,-32.9941 L 75,-33 L 75.1884,-32.9941 L 75.376,-32.9763 L 75.5621,-32.9469 L 75.7461,-32.9057
 L 75.927,-32.8532 L 76.1044,-32.7893 L 76.2773,-32.7145 L 76.4453,-32.6289 L 76.6075,-32.533 L 76.7634,-32.427
 L 76.9123,-32.3115 L 77.0536,-32.1869 L 77.1869,-32.0536 L 77.3115,-31.9123 L 77.427,-31.7634 L 77.533,-31.6075
 L 77.6289,-31.4453 L 77.7145,-31.2773 L 77.7893,-31.1044 L 77.8532,-30.927 L 77.9057,-30.7461 L 77.9469,-30.5621
 L 77.9763,-30.376 L 77.9941,-30.1884 L 78,-30 L 77.9941,-29.8116 L 77.9763,-29.624 L 77.9469,-29.4379
 L 77.9057,-29.2539 L 77.8532,-29.0729 L 77.7893,-28.8956 L 77.7145,-28.7227 L 77.6289,-28.5547 L 77.533,-28.3925
 L 77.427,-28.2366 L 77.3115,-28.0877 L 77.1869,-27.9464 L 77.0536,-27.8131 L 76.9123,-27.6884 L 76.7634,-27.5729
 L 76.6075,-27.467 L 76.4453,-27.3711 L 76.2773,-27.2855 L 76.1044,-27.2107 L 75.927,-27.1468 L 75.7461,-27.0942
 L 75.5621,-27.0531 L 75.376,-27.0237 L 75.1884,-27.0059 L 75,-27 z
M 44.8116,-27.0059 L 44.624,-27.0237 L 44.4379,-27.0531 L 44.2539,-27.0942 L 44.0729,-27.1468 L 43.8956,-27.2107
 L 43.7227,-27.2855 L 43.5547,-27.3711 L 43.3925,-27.467 L 43.2366,-27.5729 L 43.0877,-27.6884 L 42.9464,-27.8131
 L 42.8131,-27.9464 L 42.6884,-28.0877 L 42.5729,-28.2366 L 42.467,-28.3925 L 42.3711,-28.5547 L 42.2855,-28.7227
 L 42.2107,-28.8956 L 42.1468,-29.0729 L 42.0942,-29.2539 L 42.0531,-29.4379 L 42.0237,-29.624 L 42.0059,-29.8116
 L 42,-30 L 42.0059,-30.1884 L 42.0237,-30.376 L 42.0531,-30.5621 L 42.0942,-30.7461 L 42.1468,-30.927
 L 42.2107,-31.1044 L 42.2855,-31.2773 L 42.3711,-31.4453 L 42.467,-31.6075 L 42.5729,-31.7634 L 42.6884,-31.9123
 L 42.8131,-32.0536 L 42.9464,-32.1869 L 43.0877,-32.3115 L 43.2366,-32.427 L 43.3925,-32.533 L 43.5547,-32.6289
 L 43.7227,-32.7145 L 43.8956,-32.7893 L 44.0729,-32.8532 L 44.2539,-32.9057 L 44.4379,-32.9469 L 44.624,-32.9763
 L 44.8116,-32.9941 L 45,-33 L 45.1884,-32.9941 L 45.376,-32.9763 L 45.5621,-32.9469 L 45.7461,-32.9057
 L 45.927,-32.8532 L 46.1044,-32.7893 L 46.2773,-32.7145 L 46.4453,-32.6289 L 46.6075,-32.533 L 46.7634,-32.427
 L 46.9123,-32.3115 L 47.0536,-32.1869 L 47.1869,-32.0536 L 47.3115,-31.9123 L 47.427,-31.7634 L 47.533,-31.6075
 L 47.6289,-31.4453 L 47.7145,-31.2773 L 47.7893,-31.1044 L 47.8532,-30.927 L 47.9057,-30.7461 L 47.9469,-30.5621
 L 47.9763,-30.376 L 47.9941,-30.1884 L 48,-30 L 47.9941,-29.8116 L 47.9763,-29.624 L 47.9469,-29.4379
 L 47.9057,-29.2539 L 47.8532,-29.0729 L 47.7893,-28.8956 L 47.7145,-28.7227 L 47.6289,-28.5547 L 47.533,-28.3925
 L 47.427,-28.2366 L 47.3115,-28.0877 L 47.1869,-27.9464 L 47.0536,-27.8131 L 46.9123,-27.6884 L 46.7634,-27.5729
 L 46.6075,-27.467 L 46.4453,-27.3711 L 46.2773,-27.2855 L 46.1044,-27.2107 L 45.927,-27.1468 L 45.7461,-27.0942
 L 45.5621,-27.0531 L 45.376,-27.0237 L 45.1884,-27.0059 L 45,-27 z
M 59.8116,-27.0059 L 59.624,-27.0237 L 59.4379,-27.0531 L 59.2539,-27.0942 L 59.0729,-27.1468 L 58.8956,-27.2107
 L 58.7227,-27.2855 L 58.5547,-27.3711 L 58.3925,-27.467 L 58.2366,-27.5729 L 58.0877,-27.6884 L 57.9464,-27.8131
 L 57.8131,-27.9464 L 57.6884,-28.0877 L 57.5729,-28.2366 L 57.467,-28.3925 L 57.3711,-28.5547 L 57.2855,-28.7227
 L 57.2107,-28.8956 L 57.1468,-29.0729 L 57.0942,-29.2539 L 57.0531,-29.4379 L 57.0237,-29.624 L 57.0059,-29.8116
 L 57,-30 L 57.0059,-30.1884 L 57.0237,-30.376 L 57.0531,-30.5621 L 57.0942,-30.7461 L 57.1468,-30.927
 L 57.2107,-31.1044 L 57.2855,-31.2773 L 57.3711,-31.4453 L 57.467,-31.6075 L 57.5729,-31.7634 L 57.6884,-31.9123
 L 57.8131,-32.0536 L 57.9464,-32.1869 L 58.0877,-32.3115 L 58.2366,-32.427 L 58.3925,-32.533 L 58.5547,-32.6289
 L 58.7227,-32.7145 L 58.8956,-32.7893 L 59.0729,-32.8532 L 59.2539,-32.9057 L 59.4379,-32.9469 L 59.624,-32.9763
 L 59.8116,-32.9941 L 60,-33 L 60.1884,-32.9941 L 60.376,-32.9763 L 60.5621,-32.9469 L 60.7461,-32.9057
 L 60.927,-32.8532 L 61.1044,-32.7893 L 61.2773,-32.7145 L 61.4453,-32.6289 L 61.6075,-32.533 L 61.7634,-32.427
 L 61.9123,-32.3115 L 62.0536,-32.1869 L 62.1869,-32.0536 L 62.3115,-31.9123 L 62.427,-31.7634 L 62.533,-31.6075
 L 62.6289,-31.4453 L 62.7145,-31.2773 L 62.7893,-31.1044 L 62.8532,-30.927 L 62.9057,-30.7461 L 62.9469,-30.5621
 L 62.9763,-30.376 L 62.9941,-30.1884 L 63,-30 L 62.9941,-29.8116 L 62.9763,-29.624 L 62.9469,-29.4379
 L 62.9057,-29.2539 L 62.8532,-29.0729 L 62.7893,-28.8956 L 62.7145,-28.7227 L 62.6289,-28.5547 L 62.533,-28.3925
 L 62.427,-28.2366 L 62.3115,-28.0877 L 62.1869,-27.9464 L 62.0536,-27.8131 L 61.9123,-27.6884 L 61.7634,-27.5729
 L 61.6075,-27.467 L 61.4453,-27.3711 L 61.2773,-27.2855 L 61.1044,-27.2107 L 60.927,-27.1468 L 60.7461,-27.0942
 L 60.5621,-27.0531 L 60.376,-27.0237 L 60.1884,-27.0059 L 60,-27 z
M 81,-28.5 L 81,-31.5 L 84,-31.5 L 84,-28.5 z
M 96,-28.5 L 96,-31.5 L 99,-31.5 L 99,-28.5 z
M 36,-28.5 L 36,-31.5 L 39,-31.5 L 39,-28.5 z
M 21,-28.5 L 21,-31.5 L 24,-31.5 L 24,-28.5 z
M 66,-28.5 L 66,-31.5 L 69,-31.5 L 69,-28.5 z
M 51,-28.5 L 51,-31.5 L 54,-31.5 L 54,-28.5 z
M 28.5,-21 L 28.5,-24 L 31.5,-24 L 31.5,-21 z
M 58.5,-21 L 58.5,-24 L 61.5,-24 L 61.5,-21 z
M 43.5,-21 L 43.5,-24 L 46.5,-24 L 46.5,-21 z
M 13.5,-21 L 13.5,-24 L 16.5,-24 L 16.5,-21 z
M 73.5,-21 L 73.5,-24 L 76.5,-24 L 76.5,-21 z
M 88.5,-21 L 88.5,-24 L 91.5,-24 L 91.5,-21 z
M 103.5,-21 L 103.5,-24 L 106.5,-24 L 106.5,-21 z
M 29.8116,-12.0059 L 29.624,-12.0237 L 29.4379,-12.0531 L 29.2539,-12.0942 L 29.0729,-12.1468 L 28.8956,-12.2107
 L 28.7227,-12.2855 L 28.5547,-12.3711 L 28.3925,-12.467 L 28.2366,-12.5729 L 28.0877,-12.6884 L 27.9464,-12.8131
 L 27.8131,-12.9464 L 27.6884,-13.0877 L 27.5729,-13.2366 L 27.467,-13.3925 L 27.3711,-13.5547 L 27.2855,-13.7227
 L 27.2107,-13.8956 L 27.1468,-14.0729 L 27.0942,-14.2539 L 27.0531,-14.4379 L 27.0237,-14.624 L 27.0059,-14.8116
 L 27,-15 L 27.0059,-15.1884 L 27.0237,-15.376 L 27.0531,-15.5621 L 27.0942,-15.7461 L 27.1468,-15.927
 L 27.2107,-16.1044 L 27.2855,-16.2773 L 27.3711,-16.4453 L 27.467,-16.6075 L 27.5729,-16.7634 L 27.6884,-16.9123
 L 27.8131,-17.0536 L 27.9464,-17.1869 L 28.0877,-17.3115 L 28.2366,-17.427 L 28.3925,-17.533 L 28.5547,-17.6289
 L 28.7227,-17.7145 L 28.8956,-17.7893 L 29.0729,-17.8532 L 29.2539,-17.9057 L 29.4379,-17.9469 L 29.624,-17.9763
 L 29.8116,-17.9941 L 30,-18 L 30.1884,-17.9941 L 30.376,-17.9763 L 30.5621,-17.9469 L 30.7461,-17.9057
 L 30.927,-17.8532 L 31.1044,-17.7893 L 31.2773,-17.7145 L 31.4453,-17.6289 L 31.6075,-17.533 L 31.7634,-17.427
 L 31.9123,-17.3115 L 32.0536,-17.1869 L 32.1869,-17.0536 L 32.3115,-16.9123 L 32.427,-16.7634 L 32.533,-16.6075
 L 32.6289,-16.4453 L 32.7145,-16.2773 L 32.7893,-16.1044 L 32.8532,-15.927 L 32.9057,-15.7461 L 32.9469,-15.5621
 L 32.9763,-15.376 L 32.9941,-15.1884 L 33,-15 L 32.9941,-14.8116 L 32.9763,-14.624 L 32.9469,-14.4379
 L 32.9057,-14.2539 L 32.8532,-14.0729 L 32.7893,-13.8956 L 32.7145,-13.7227 L 32.6289,-13.5547 L 32.533,-13.3925
 L 32.427,-13.2366 L 32.3115,-13.0877 L 32.1869,-12.9464 L 32.0536,-12.8131 L 31.9123,-12.6884 L 31.7634,-12.5729
 L 31.6075,-12.467 L 31.4453,-12.3711 L 31.2773,-12.2855 L 31.1044,-12.2107 L 30.927,-12.1468 L 30.7461,-12.0942
 L 30.5621,-12.0531 L 30.376,-12.0237 L 30.1884,-12.0059 L 30,-12 z
M 89.8116,-12.0059 L 89.624,-12.0237 L 89.4379,-12.0531 L 89.2539,-12.0942 L 89.0729,-12.1468 L 88.8956,-12.2107
 L 88.7227,-12.2855 L 88.5547,-12.3711 L 88.3925,-12.467 L 88.2366,-12.5729 L 88.0877,-12.6884 L 87.9464,-12.8131
 L 87.8131,-12.9464 L 87.6884,-13.0877 L 87.5729,-13.2366 L 87.467,-13.3925 L 87.3711,-13.5547 L 87.2855,-13.7227
 L 87.2107,-13.8956 L 87.1468,-14.0729 L 87.0942,-14.2539 L 87.0531,-14.4379 L 87.0237,-14.624 L 87.0059,-14.8116
 L 87,-15 L 87.0059,-15.1884 L 87.0237,-15.376 L 87.0531,-15.5621 L 87.0942,-15.7461 L 87.1468,-15.927
 L 87.2107,-16.1044 L 87.2855,-16.2773 L 87.3711,-16.4453 L 87.467,-16.6075 L 87.5729,-16.7634 L 87.6884,-16.9123
 L 87.8131,-17.0536 L 87.9464,-17.1869 L 88.0877,-17.3115 L 88.2366,-17.427 L 88.3925,-17.533 L 88.5547,-17.6289
 L 88.7227,-17.7145 L 88.8956,-17.7893 L 89.0729,-17.8532 L 89.2539,-17.9057 L 89.4379,-17.9469 L 89.624,-17.9763
 L 89.8116,-17.9941 L 90,-18 L 90.1884,-17.9941 L 90.376,-17.9763 L 90.5621,-17.9469 L 90.7461,-17.9057
 L 90.927,-17.8532 L 91.1044,-17.7893 L 91.2773,-17.7145 L 91.4453,-17.6289 L 91.6075,-17.533 L 91.7634,-17.427
 L 91.9123,-17.3115 L 92.0536,-17.1869 L 92.1869,-17.0536 L 92.3115,-16.9123 L 92.427,-16.7634 L 92.533,-16.6075
 L 92.6289,-16.4453 L 92.7145,-16.2773 L 92.7893,-16.1044 L 92.8532,-15.927 L 92.9057,-15.7461 L 92.9469,-15.5621
 L 92.9763,-15.376 L 92.9941,-15.1884 L 93,-15 L 92.9941,-14.8116 L 92.9763,-14.624 L 92.9469,-14.4379
 L 92.9057,-14.2539 L 92.8532,-14.0729 L 92.7893,-13.8956 L 92.7145,-13.7227 L 92.6289,-13.5547 L 92.533,-13.3925
 L 92.427,-13.2366 L 92.3115,-13.0877 L 92.1869,-12.9464 L 92.0536,-12.8131 L 91.9123,-12.6884 L 91.7634,-12.5729
 L 91.6075,-12.467 L 91.4453,-12.3711 L 91.2773,-12.2855 L 91.1044,-12.2107 L 90.927,-12.1468 L 90.7461,-12.0942
 L 90.5621,-12.0531 L 90.376,-12.0237 L 90.1884,-12.0059 L 90,-12 z
M 14.8116,-12.0059 L 14.624,-12.0237 L 14.4379,-12.0531 L 14.2539,-12.0942 L 14.0729,-12.1468 L 13.8956,-12.2107
 L 13.7227,-12.2855 L 13.5547,-12.3711 L 13.3925,-12.467 L 13.2366,-12.5729 L 13.0877,-12.6884 L 12.9464,-12.8131
 L 12.8131,-12.9464 L 12.6884,-13.0877 L 12.5729,-13.2366 L 12.467,-13.3925 L 12.3711,-13.5547 L 12.2855,-13.7227
 L 12.2107,-13.8956 L 12.1468,-14.0729 L 12.0942,-14.2539 L 12.0531,-14.4379 L 12.0237,-14.624 L 12.0059,-14.8116
 L 12,-15 L 12.0059,-15.1884 L 12.0237,-15.376 L 12.0531,-15.5621 L 12.0942,-15.7461 L 12.1468,-15.927
 L 12.2107,-16.1044 L 12.2855,-16.2773 L 12.3711,-16.4453 L 12.467,-16.6075 L 12.5729,-16.7634 L 12.6884,-16.9123
 L 12.8131,-17.0536 L 12.9464,-17.1869 L 13.0877,-17.3115 L 13.2366,-17.427 L 13.3925,-17.533 L 13.5547,-17.6289
 L 13.7227,-17.7145 L 13.8956,-17.7893 L 14.0729,-17.8532 L 14.2539,-17.9057 L 14.4379,-17.9469 L 14.624,-17.9763
 L 14.8116,-17.9941 L 15,-18 L 15.1884,-17.9941 L 15.376,-17.9763 L 15.5621,-17.9469 L 15.7461,-17.9057
 L 15.927,-17.8532 L 16.1044,-17.7893 L 16.2773,-17.7145 L 16.4453,-17.6289 L 16.6075,-17.533 L 16.7634,-17.427
 L 16.9123,-17.3115 L 17.0536,-17.1869 L 17.1869,-17.0536 L 17.3115,-16.9123 L 17.427,-16.7634 L 17.533,-16.6075
 L 17.6289,-16.4453 L 17.7145,-16.2773 L 17.7893,-16.1044 L 17.8532,-15.927 L 17.9057,-15.7461 L 17.9469,-15.5621
 L 17.9763,-15.376 L 17.9941,-15.1884 L 18,-15 L 17.9941,-14.8116 L 17.9763,-14.624 L 17.9469,-14.4379
 L 17.9057,-14.2539 L 17.8532,-14.0729 L 17.7893,-13.8956 L 17.7145,-13.7227 L 17.6289,-13.5547 L 17.533,-13.3925
 L 17.427,-13.2366 L 17.3115,-13.0877 L 17.1869,-12.9464 L 17.0536,-12.8131 L 16.9123,-12.6884 L 16.7634,-12.5729
 L 16.6075,-12.467 L 16.4453,-12.3711 L 16.2773,-12.2855 L 16.1044,-12.2107 L 15.927,-12.1468 L 15.7461,-12.0942
 L 15.5621,-12.0531 L 15.376,-12.0237 L 15.1884,-12.0059 L 15,-12 z
M 74.8116,-12.0059 L 74.624,-12.0237 L 74.4379,-12.0531 L 74.2539,-12.0942 L 74.0729,-12.1468 L 73.8956,-12.2107
 L 73.7227,-12.2855 L 73.5547,-12.3711 L 73.3925,-12.467 L 73.2366,-12.5729 L 73.0877,-12.6884 L 72.9464,-12.8131
 L 72.8131,-12.9464 L 72.6884,-13.0877 L 72.5729,-13.2366 L 72.467,-13.3925 L 72.3711,-13.5547 L 72.2855,-13.7227
 L 72.2107,-13.8956 L 72.1468,-14.0729 L 72.0942,-14.2539 L 72.0531,-14.4379 L 72.0237,-14.624 L 72.0059,-14.8116
 L 72,-15 L 72.0059,-15.1884 L 72.0237,-15.376 L 72.0531,-15.5621 L 72.0942,-15.7461 L 72.1468,-15.927
 L 72.2107,-16.1044 L 72.2855,-16.2773 L 72.3711,-16.4453 L 72.467,-16.6075 L 72.5729,-16.7634 L 72.6884,-16.9123
 L 72.8131,-17.0536 L 72.9464,-17.1869 L 73.0877,-17.3115 L 73.2366,-17.427 L 73.3925,-17.533 L 73.5547,-17.6289
 L 73.7227,-17.7145 L 73.8956,-17.7893 L 74.0729,-17.8532 L 74.2539,-17.9057 L 74.4379,-17.9469 L 74.624,-17.9763
 L 74.8116,-17.9941 L 75,-18 L 75.1884,-17.9941 L 75.376,-17.9763 L 75.5621,-17.9469 L 75.7461,-17.9057
 L 75.927,-17.8532 L 76.1044,-17.7893 L 76.2773,-17.7145 L 76.4453,-17.6289 L 76.6075,-17.533 L 76.7634,-17.427
 L 76.9123,-17.3115 L 77.0536,-17.1869 L 77.1869,-17.0536 L 77.3115,-16.9123 L 77.427,-16.7634 L 77.533,-16.6075
 L 77.6289,-16.4453 L 77.7145,-16.2773 L 77.7893,-16.1044 L 77.8532,-15.927 L 77.9057,-15.7461 L 77.9469,-15.5621
 L 77.9763,-15.376 L 77.9941,-15.1884 L 78,-15 L 77.9941,-14.8116 L 77.9763,-14.624 L 77.9469,-14.4379
 L 77.9057,-14.2539 L 77.8532,-14.0729 L 77.7893,-13.8956 L 77.7145,-13.7227 L 77.6289,-13.5547 L 77.533,-13.3925
 L 77.427,-13.2366 L 77.3115,-13.0877 L 77.1869,-12.9464 L 77.0536,-12.8131 L 76.9123,-12.6884 L 76.7634,-12.5729
 L 76.6075,-12.467 L 76.4453,-12.3711 L 76.2773,-12.2855 L 76.1044,-12.2107 L 75.927,-12.1468 L 75.7461,-12.0942
 L 75.5621,-12.0531 L 75.376,-12.0237 L 75.1884,-12.0059 L 75,-12 z
M 44.8116,-12.0059 L 44.624,-12.0237 L 44.4379,-12.0531 L 44.2539,-12.0942 L 44.0729,-12.1468 L 43.8956,-12.2107
 L 43.7227,-12.2855 L 43.5547,-12.3711 L 43.3925,-12.467 L 43.2366,-12.5729 L 43.0877,-12.6884 L 42.9464,-12.8131
 L 42.8131,-12.9464 L 42.6884,-13.0877 L 42.5729,-13.2366 L 42.467,-13.3925 L 42.3711,-13.5547 L 42.2855,-13.7227
 L 42.2107,-13.8956 L 42.1468,-14.0729 L 42.0942,-14.2539 L 42.0531,-14.4379 L 42.0237,-14.624 L 42.0059,-14.8116
 L 42,-15 L 42.0059,-15.1884 L 42.0237,-15.376 L 42.0531,-15.5621 L 42.0942,-15.7461 L 42.1468,-15.927
 L 42.2107,-16.1044 L 42.2855,-16.2773 L 42.3711,-16.4453 L 42.467,-16.6075 L 42.5729,-16.7634 L 42.6884,-16.9123
 L 42.8131,-17.0536 L 42.9464,-17.1869 L 43.0877,-17.3115 L 43.2366,-17.427 L 43.3925,-17.533 L 43.5547,-17.6289
 L 43.7227,-17.7145 L 43.8956,-17.7893 L 44.0729,-17.8532 L 44.2539,-17.9057 L 44.4379,-17.9469 L 44.624,-17.9763
 L 44.8116,-17.9941 L 45,-18 L 45.1884,-17.9941 L 45.376,-17.9763 L 45.5621,-17.9469 L 45.7461,-17.9057
 L 45.927,-17.8532 L 46.1044,-17.7893 L 46.2773,-17.7145 L 46.4453,-17.6289 L 46.6075,-17.533 L 46.7634,-17.427
 L 46.9123,-17.3115 L 47.0536,-17.1869 L 47.1869,-17.0536 L 47.3115,-16.9123 L 47.427,-16.7634 L 47.533,-16.6075
 L 47.6289,-16.4453 L 47.7145,-16.2773 L 47.7893,-16.1044 L 47.8532,-15.927 L 47.9057,-15.7461 L 47.9469,-15.5621
 L 47.9763,-15.376 L 47.9941,-15.1884 L 48,-15 L 47.9941,-14.8116 L 47.9763,-14.624 L 47.9469,-14.4379
 L 47.9057,-14.2539 L 47.8532,-14.0729 L 47.7893,-13.8956 L 47.7145,-13.7227 L 47.6289,-13.5547 L 47.533,-13.3925
 L 47.427,-13.2366 L 47.3115,-13.0877 L 47.1869,-12.9464 L 47.0536,-12.8131 L 46.9123,-12.6884 L 46.7634,-12.5729
 L 46.6075,-12.467 L 46.4453,-12.3711 L 46.2773,-12.2855 L 46.1044,-12.2107 L 45.927,-12.1468 L 45.7461,-12.0942
 L 45.5621,-12.0531 L 45.376,-12.0237 L 45.1884,-12.0059 L 45,-12 z
M 59.8116,-12.0059 L 59.624,-12.0237 L 59.4379,-12.0531 L 59.2539,-12.0942 L 59.0729,-12.1468 L 58.8956,-12.2107
 L 58.7227,-12.2855 L 58.5547,-12.3711 L 58.3925,-12.467 L 58.2366,-12.5729 L 58.0877,-12.6884 L 57.9464,-12.8131
 L 57.8131,-12.9464 L 57.6884,-13.0877 L 57.5729,-13.2366 L 57.467,-13.3925 L 57.3711,-13.5547 L 57.2855,-13.7227
 L 57.2107,-13.8956 L 57.1468,-14.0729 L 57.0942,-14.2539 L 57.0531,-14.4379 L 57.0237,-14.624 L 57.0059,-14.8116
 L 57,-15 L 57.0059,-15.1884 L 57.0237,-15.376 L 57.0531,-15.5621 L 57.0942,-15.7461 L 57.1468,-15.927
 L 57.2107,-16.1044 L 57.2855,-16.2773 L 57.3711,-16.4453 L 57.467,-16.6075 L 57.5729,-16.7634 L 57.6884,-16.9123
 L 57.8131,-17.0536 L 57.9464,-17.1869 L 58.0877,-17.3115 L 58.2366,-17.427 L 58.3925,-17.533 L 58.5547,-17.6289
 L 58.7227,-17.7145 L 58.8956,-17.7893 L 59.0729,-17.8532 L 59.2539,-17.9057 L 59.4379,-17.9469 L 59.624,-17.9763
 L 59.8116,-17.9941 L 60,-18 L 60.1884,-17.9941 L 60.376,-17.9763 L 60.5621,-17.9469 L 60.7461,-17.9057
 L 60.927,-17.8532 L 61.1044,-17.7893 L 61.2773,-17.7145 L 61.4453,-17.6289 L 61.6075,-17.533 L 61.7634,-17.427
 L 61.9123,-17.3115 L 62.0536,-17.1869 L 62.1869,-17.0536 L 62.3115,-16.9123 L 62.427,-16.7634 L 62.533,-16.6075
 L 62.6289,-16.4453 L 62.7145,-16.2773 L 62.7893,-16.1044 L 62.8532,-15.927 L 62.9057,-15.7461 L 62.9469,-15.5621
 L 62.9763,-15.376 L 62.9941,-15.1884 L 63,-15 L 62.9941,-14.8116 L 62.9763,-14.624 L 62.9469,-14.4379
 L 62.9057,-14.2539 L 62.8532,-14.0729 L 62.7893,-13.8956 L 62.7145,-13.7227 L 62.6289,-13.5547 L 62.533,-13.3925
 L 62.427,-13.2366 L 62.3115,-13.0877 L 62.1869,-12.9464 L 62.0536,-12.8131 L 61.9123,-12.6884 L 61.7634,-12.5729
 L 61.6075,-12.467 L 61.4453,-12.3711 L 61.2773,-12.2855 L 61.1044,-12.2107 L 60.927,-12.1468 L 60.7461,-12.0942
 L 60.5621,-12.0531 L 60.376,-12.0237 L 60.1884,-12.0059 L 60,-12 z
M 104.812,-12.0059 L 104.624,-12.0237 L 104.438,-12.0531 L 104.254,-12.0942 L 104.073,-12.1468 L 103.896,-12.2107
 L 103.723,-12.2855 L 103.555,-12.3711 L 103.393,-12.467 L 103.237,-12.5729 L 103.088,-12.6884 L 102.946,-12.8131
 L 102.813,-12.9464 L 102.688,-13.0877 L 102.573,-13.2366 L 102.467,-13.3925 L 102.371,-13.5547 L 102.286,-13.7227
 L 102.211,-13.8956 L 102.147,-14.0729 L 102.094,-14.2539 L 102.053,-14.4379 L 102.024,-14.624 L 102.006,-14.8116
 L 102,-15 L 102.006,-15.1884 L 102.024,-15.376 L 102.053,-15.5621 L 102.094,-15.7461 L 102.147,-15.927
 L 102.211,-16.1044 L 102.286,-16.2773 L 102.371,-16.4453 L 102.467,-16.6075 L 102.573,-16.7634 L 102.688,-16.9123
 L 102.813,-17.0536 L 102.946,-17.1869 L 103.088,-17.3115 L 103.237,-17.427 L 103.393,-17.533 L 103.555,-17.6289
 L 103.723,-17.7145 L 103.896,-17.7893 L 104.073,-17.8532 L 104.254,-17.9057 L 104.438,-17.9469 L 104.624,-17.9763
 L 104.812,-17.9941 L 105,-18 L 105.188,-17.9941 L 105.376,-17.9763 L 105.562,-17.9469 L 105.746,-17.9057
 L 105.927,-17.8532 L 106.104,-17.7893 L 106.277,-17.7145 L 106.445,-17.6289 L 106.607,-17.533 L 106.763,-17.427
 L 106.912,-17.3115 L 107.054,-17.1869 L 107.187,-17.0536 L 107.312,-16.9123 L 107.427,-16.7634 L 107.533,-16.6075
 L 107.629,-16.4453 L 107.714,-16.2773 L 107.789,-16.1044 L 107.853,-15.927 L 107.906,-15.7461 L 107.947,-15.5621
 L 107.976,-15.376 L 107.994,-15.1884 L 108,-15 L 107.994,-14.8116 L 107.976,-14.624 L 107.947,-14.4379
 L 107.906,-14.2539 L 107.853,-14.0729 L 107.789,-13.8956 L 107.714,-13.7227 L 107.629,-13.5547 L 107.533,-13.3925
 L 107.427,-13.2366 L 107.312,-13.0877 L 107.187,-12.9464 L 107.054,-12.8131 L 106.912,-12.6884 L 106.763,-12.5729
 L 106.607,-12.467 L 106.445,-12.3711 L 106.277,-12.2855 L 106.104,-12.2107 L 105.927,-12.1468 L 105.746,-12.0942
 L 105.562,-12.0531 L 105.376,-12.0237 L 105.188,-12.0059 L 105,-12 z
M 96,-13.5 L 96,-16.5 L 99,-16.5 L 99,-13.5 z
M 36,-13.5 L 36,-16.5 L 39,-16.5 L 39,-13.5 z
M 51,-13.5 L 51,-16.5 L 54,-16.5 L 54,-13.5 z
M 21,-13.5 L 21,-16.5 L 24,-16.5 L 24,-13.5 z
M 66,-13.5 L 66,-16.5 L 69,-16.5 L 69,-13.5 z
M 81,-13.5 L 81,-16.5 L 84,-16.5 L 84,-13.5 z
" stroke="black" fill="lightgray" stroke-width="0.5"/>
</svg>
