<?xml version="1.0" standalone="no"?>
<!DOCTYPE svg PUBLIC "-//W3C//DTD SVG 1.1//EN" "http://www.w3.org/Graphics/SVG/1.1/DTD/svg11.dtd">
<svg width="102mm" height="102mm" viewBox="-51 -51 102 102" xmlns="http://www.w3.org/2000/svg" version="1.1">
<title>OpenSCAD Model</title>
<path d="
M 46.3139,50.9901 L 46.6267,50.9606 L 46.9369,50.9114 L 47.2435,50.8429 L 47.5451,50.7553 L 47.8406,50.6489
 L 48.1289,50.5241 L 48.4088,50.3815 L 48.6791,50.2216 L 48.9389,50.0451 L 49.1871,49.8526 L 49.4227,49.6448
 L 49.6448,49.4227 L 49.8526,49.1871 L 50.0451,48.9389 L 50.2216,48.6791 L 50.3815,48.4088 L 50.5241,48.1289
 L 50.6489,47.8406 L 50.7553,47.5451 L 50.8429,47.2435 L 50.9114,46.9369 L 50.9606,46.6267 L 50.9901,46.3139
 L 51,46 L 51,-46 L 50.9901,-46.3139 L 50.9606,-46.6267 L 50.9114,-46.9369 L 50.8429,-47.2435
 L 50.7553,-47.5451 L 50.6489,-47.8406 L 50.5241,-48.1289 L 50.3815,-48.4088 L 50.2216,-48.6791 L 50.0451,-48.9389
 L 49.8526,-49.1871 L 49.6448,-49.4227 L 49.4227,-49.6448 L 49.1871,-49.8526 L 48.9389,-50.0451 L 48.6791,-50.2216
 L 48.4088,-50.3815 L 48.1289,-50.5241 L 47.8406,-50.6489 L 47.5451,-50.7553 L 47.2435,-50.8429 L 46.9369,-50.9114
 L 46.6267,-50.9606 L 46.3139,-50.9901 L 46,-51 L -46,-51 L -46.3139,-50.9901 L -46.6267,-50.9606
 L -46.9369,-50.9114 L -47.2435,-50.8429 L -47.5451,-50.7553 L -47.8406,-50.6489 L -48.1289,-50.5241 L -48.4088,-50.3815
 L -48.6791,-50.2216 L -48.9389,-50.0451 L -49.1871,-49.8526 L -49.4227,-49.6448 L -49.6448,-49.4227 L -49.8526,-49.1871
 L -50.0451,-48.9389 L -50.2216,-48.6791 L -50.3815,-48.4088 L -50.5241,-48.1289 L -50.6489,-47.8406 L -50.7553,-47.5451
 L -50.8429,-47.2435 L -50.9114,-46.9369 L -50.9606,-46.6267 L -50.9901,-46.3139 L -51,-46 L -51,46
 L -50.9901,46.3139 L -50.9606,46.6267 L -50.9114,46.9369 L -50.8429,47.2435 L -50.7553,47.5451 L -50.6489,47.8406
 L -50.5241,48.1289 L -50.3815,48.4088 L -50.2216,48.6791 L -50.0451,48.9389 L -49.8526,49.1871 L -49.6448,49.4227
 L -49.4227,49.6448 L -49.1871,49.8526 L -48.9389,50.0451 L -48.6791,50.2216 L -48.4088,50.3815 L -48.1289,50.5241
 L -47.8406,50.6489 L -47.5451,50.7553 L -47.2435,50.8429 L -46.9369,50.9114 L -46.6267,50.9606 L -46.3139,50.9901
 L -46,51 L 46,51 z
M 44.8116,-42.0059 L 44.624,-42.0237 L 44.4379,-42.0531 L 44.2539,-42.0942 L 44.0729,-42.1468 L 43.8956,-42.2107
 L 43.7227,-42.2855 L 43.5547,-42.3711 L 43.3925,-42.467 L 43.2366,-42.5729 L 43.0877,-42.6885 L 42.9464,-42.8131
 L 42.8131,-42.9464 L 42.6885,-43.0877 L 42.5729,-43.2366 L 42.467,-43.3925 L 42.3711,-43.5547 L 42.2855,-43.7227
 L 42.2107,-43.8956 L 42.1468,-44.0729 L 42.0942,-44.2539 L 42.0531,-44.4379 L 42.0237,-44.624 L 42.0059,-44.8116
 L 42,-45 L 42.0059,-45.1884 L 42.0237,-45.376 L 42.0531,-45.5621 L 42.0942,-45.7461 L 42.1468,-45.927
 L 42.2107,-46.1044 L 42.2855,-46.2773 L 42.3711,-46.4453 L 42.467,-46.6075 L 42.5729,-46.7634 L 42.6885,-46.9123
 L 42.8131,-47.0536 L 42.9464,-47.1869 L 43.0877,-47.3115 L 43.2366,-47.427 L 43.3925,-47.533 L 43.5547,-47.6289
 L 43.7227,-47.7145 L 43.8956,-47.7893 L 44.0729,-47.8532 L 44.2539,-47.9057 L 44.4379,-47.9469 L 44.624,-47.9763
 L 44.8116,-47.9941 L 45,-48 L 45.1884,-47.9941 L 45.376,-47.9763 L 45.5621,-47.9469 L 45.7461,-47.9057
 L 45.927,-47.8532 L 46.1044,-47.7893 L 46.2773,-47.7145 L 46.4453,-47.6289 L 46.6075,-47.533 L 46.7634,-47.427
 L 46.9123,-47.3115 L 47.0536,-47.1869 L 47.1869,-47.0536 L 47.3115,-46.9123 L 47.427,-46.7634 L 47.533,-46.6075
 L 47.6289,-46.4453 L 47.7145,-46.2773 L 47.7893,-46.1044 L 47.8532,-45.927 L 47.9057,-45.7461 L 47.9469,-45.5621
 L 47.9763,-45.376 L 47.9941,-45.1884 L 48,-45 L 47.9941,-44.8116 L 47.9763,-44.624 L 47.9469,-44.4379
 L 47.9057,-44.2539 L 47.8532,-44.0729 L 47.7893,-43.8956 L 47.7145,-43.7227 L 47.6289,-43.5547 L 47.533,-43.3925
 L 47.427,-43.2366 L 47.3115,-43.0877 L 47.1869,-42.9464 L 47.0536,-42.8131 L 46.9123,-42.6885 L 46.7634,-42.5729
 L 46.6075,-42.467 L 46.4453,-42.3711 L 46.2773,-42.2855 L 46.1044,-42.2107 L 45.927,-42.1468 L 45.7461,-42.0942
 L 45.5621,-42.0531 L 45.376,-42.0237 L 45.1884,-42.0059 L 45,-42 z
M 27.467,-43.3925 L 27.3711,-43.5547 L 27.2855,-43.7227 L 27.2107,-43.8956 L 27.1468,-44.0729 L 27.0942,-44.2539
 L 27.0531,-44.4379 L 27.0237,-44.624 L 27.0059,-44.8116 L 27,-45 L 27.0059,-45.1884 L 27.0237,-45.376
 L 27.0531,-45.5621 L 27.0942,-45.7461 L 27.1468,-45.927 L 27.2107,-46.1044 L 27.2855,-46.2773 L 27.3711,-46.4453
 L 27.467,-46.6075 L 27.5729,-46.7634 L 27.6884,-46.9123 L 27.8131,-47.0536 L 27.9464,-47.1869 L 28.0877,-47.3115
 L 28.2366,-47.427 L 28.3925,-47.533 L 28.5547,-47.6289 L 28.7227,-47.7145 L 28.8956,-47.7893 L 29.0729,-47.8532
 L 29.2539,-47.9057 L 29.4379,-47.9469 L 29.624,-47.9763 L 29.8116,-47.9941 L 30,-48 L 30.1884,-47.9941
 L 30.376,-47.9763 L 30.5621,-47.9469 L 30.7461,-47.9057 L 30.927,-47.8532 L 31.1044,-47.7893 L 31.2773,-47.7145
 L 31.4453,-47.6289 L 31.6075,-47.533 L 31.7634,-47.427 L 31.9123,-47.3115 L 32.0536,-47.1869 L 32.1869,-47.0536
 L 32.3115,-46.9123 L 32.427,-46.7634 L 32.533,-46.6075 L 32.6289,-46.4453 L 32.7145,-46.2773 L 32.7893,-46.1044
 L 32.8532,-45.927 L 32.9057,-45.7461 L 32.9469,-45.5621 L 32.9763,-45.376 L 32.9941,-45.1884 L 33,-45
 L 32.9941,-44.8116 L 32.9763,-44.624 L 32.9469,-44.4379 L 32.9057,-44.2539 L 32.8532,-44.0729 L 32.7893,-43.8956
 L 32.7145,-43.7227 L 32.6289,-43.5547 L 32.533,-43.3925 L 32.427,-43.2366 L 32.3115,-43.0877 L 32.1869,-42.9464
 L 32.0536,-42.8131 L 31.9123,-42.6885 L 31.7634,-42.5729 L 31.6075,-42.467 L 31.4453,-42.3711 L 31.2773,-42.2855
 L 31.1044,-42.2107 L 30.927,-42.1468 L 30.7461,-42.0942 L 30.5621,-42.0531 L 30.376,-42.0237 L 30.1884,-42.0059
 L 30,-42 L 29.8116,-42.0059 L 29.624,-42.0237 L 29.4379,-42.0531 L 29.2539,-42.0942 L 29.0729,-42.1468
 L 28.8956,-42.2107 L 28.7227,-42.2855 L 28.5547,-42.3711 L 28.3925,-42.467 L 28.2366,-42.5729 L 28.0877,-42.6885
 L 27.9464,-42.8131 L 27.8131,-42.9464 L 27.6884,-43.0877 L 27.5729,-43.2366 z
M -15.1884,-42.0059 L -15.376,-42.0237 L -15.5621,-42.0531 L -15.7461,-42.0942 L -15.927,-42.1468 L -16.1044,-42.2107
 L -16.2773,-42.2855 L -16.4453,-42.3711 L -16.6075,-42.467 L -16.7634,-42.5729 L -16.9123,-42.6885 L -17.0536,-42.8131
 L -17.1869,-42.9464 L -17.3115,-43.0877 L -17.427,-43.2366 L -17.533,-43.3925 L -17.6289,-43.5547 L -17.7145,-43.7227
 L -17.7893,-43.8956 L -17.8532,-44.0729 L -17.9057,-44.2539 L -17.9469,-44.4379 L -17.9763,-44.624 L -17.9941,-44.8116
 L -18,-45 L -17.9941,-45.1884 L -17.9763,-45.376 L -17.9469,-45.5621 L -17.9057,-45.7461 L -17.8532,-45.927
 L -17.7893,-46.1044 L -17.7145,-46.2773 L -17.6289,-46.4453 L -17.533,-46.6075 L -17.427,-46.7634 L -17.3115,-46.9123
 L -17.1869,-47.0536 L -17.0536,-47.1869 L -16.9123,-47.3115 L -16.7634,-47.427 L -16.6075,-47.533 L -16.4453,-47.6289
 L -16.2773,-47.7145 L -16.1044,-47.7893 L -15.927,-47.8532 L -15.7461,-47.9057 L -15.5621,-47.9469 L -15.376,-47.9763
 L -15.1884,-47.9941 L -15,-48 L -14.8116,-47.9941 L -14.624,-47.9763 L -14.4379,-47.9469 L -14.2539,-47.9057
 L -14.0729,-47.8532 L -13.8956,-47.7893 L -13.7227,-47.7145 L -13.5547,-47.6289 L -13.3925,-47.533 L -13.2366,-47.427
 L -13.0877,-47.3115 L -12.9464,-47.1869 L -12.8131,-47.0536 L -12.6884,-46.9123 L -12.5729,-46.7634 L -12.467,-46.6075
 L -12.3711,-46.4453 L -12.2855,-46.2773 L -12.2107,-46.1044 L -12.1468,-45.927 L -12.0942,-45.7461 L -12.0531,-45.5621
 L -12.0237,-45.376 L -12.0059,-45.1884 L -12,-45 L -12.0059,-44.8116 L -12.0237,-44.624 L -12.0531,-44.4379
 L -12.0942,-44.2539 L -12.1468,-44.0729 L -12.2107,-43.8956 L -12.2855,-43.7227 L -12.3711,-43.5547 L -12.467,-43.3925
 L -12.5729,-43.2366 L -12.6884,-43.0877 L -12.8131,-42.9464 L -12.9464,-42.8131 L -13.0877,-42.6885 L -13.2366,-42.5729
 L -13.3925,-42.467 L -13.5547,-42.3711 L -13.7227,-42.2855 L -13.8956,-42.2107 L -14.0729,-42.1468 L -14.2539,-42.0942
 L -14.4379,-42.0531 L -14.624,-42.0237 L -14.8116,-42.0059 L -15,-42 z
M -30.1884,-42.0059 L -30.376,-42.0237 L -30.5621,-42.0531 L -30.7461,-42.0942 L -30.927,-42.1468 L -31.1044,-42.2107
 L -31.2773,-42.2855 L -31.4453,-42.3711 L -31.6075,-42.467 L -31.7634,-42.5729 L -31.9123,-42.6885 L -32.0536,-42.8131
 L -32.1869,-42.9464 L -32.3115,-43.0877 L -32.427,-43.2366 L -32.533,-43.3925 L -32.6289,-43.5547 L -32.7145,-43.7227
 L -32.7893,-43.8956 L -32.8532,-44.0729 L -32.9057,-44.2539 L -32.9469,-44.4379 L -32.9763,-44.624 L -32.9941,-44.8116
 L -33,-45 L -32.9941,-45.1884 L -32.9763,-45.376 L -32.9469,-45.5621 L -32.9057,-45.7461 L -32.8532,-45.927
 L -32.7893,-46.1044 L -32.7145,-46.2773 L -32.6289,-46.4453 L -32.533,-46.6075 L -32.427,-46.7634 L -32.3115,-46.9123
 L -32.1869,-47.0536 L -32.0536,-47.1869 L -31.9123,-47.3115 L -31.7634,-47.427 L -31.6075,-47.533 L -31.4453,-47.6289
 L -31.2773,-47.7145 L -31.1044,-47.7893 L -30.927,-47.8532 L -30.7461,-47.9057 L -30.5621,-47.9469 L -30.376,-47.9763
 L -30.1884,-47.9941 L -30,-48 L -29.8116,-47.9941 L -29.624,-47.9763 L -29.4379,-47.9469 L -29.2539,-47.9057
 L -29.0729,-47.8532 L -28.8956,-47.7893 L -28.7227,-47.7145 L -28.5547,-47.6289 L -28.3925,-47.533 L -28.2366,-47.427
 L -28.0877,-47.3115 L -27.9464,-47.1869 L -27.8131,-47.0536 L -27.6884,-46.9123 L -27.5729,-46.7634 L -27.467,-46.6075
 L -27.3711,-46.4453 L -27.2855,-46.2773 L -27.2107,-46.1044 L -27.1468,-45.927 L -27.0942,-45.7461 L -27.0531,-45.5621
 L -27.0237,-45.376 L -27.0059,-45.1884 L -27,-45 L -27.0059,-44.8116 L -27.0237,-44.624 L -27.0531,-44.4379
 L -27.0942,-44.2539 L -27.1468,-44.0729 L -27.2107,-43.8956 L -27.2855,-43.7227 L -27.3711,-43.5547 L -27.467,-43.3925
 L -27.5729,-43.2366 L -27.6884,-43.0877 L -27.8131,-42.9464 L -27.9464,-42.8131 L -28.0877,-42.6885 L -28.2366,-42.5729
 L -28.3925,-42.467 L -28.5547,-42.3711 L -28.7227,-42.2855 L -28.8956,-42.2107 L -29.0729,-42.1468 L -29.2539,-42.0942
 L -29.4379,-42.0531 L -29.624,-42.0237 L -29.8116,-42.0059 L -30,-42 z
M -45.1884,-42.0059 L -45.376,-42.0237 L -45.5621,-42.0531 L -45.7461,-42.0942 L -45.927,-42.1468 L -46.1044,-42.2107
 L -46.2773,-42.2855 L -46.4453,-42.3711 L -46.6075,-42.467 L -46.7634,-42.5729 L -46.9123,-42.6885 L -47.0536,-42.8131
 L -47.1869,-42.9464 L -47.3115,-43.0877 L -47.427,-43.2366 L -47.533,-43.3925 L -47.6289,-43.5547 L -47.7145,-43.7227
 L -47.7893,-43.8956 L -47.8532,-44.0729 L -47.9057,-44.2539 L -47.9469,-44.4379 L -47.9763,-44.624 L -47.9941,-44.8116
 L -48,-45 L -47.9941,-45.1884 L -47.9763,-45.376 L -47.9469,-45.5621 L -47.9057,-45.7461 L -47.8532,-45.927
 L -47.7893,-46.1044 L -47.7145,-46.2773 L -47.6289,-46.4453 L -47.533,-46.6075 L -47.427,-46.7634 L -47.3115,-46.9123
 L -47.1869,-47.0536 L -47.0536,-47.1869 L -46.9123,-47.3115 L -46.7634,-47.427 L -46.6075,-47.533 L -46.4453,-47.6289
 L -46.2773,-47.7145 L -46.1044,-47.7893 L -45.927,-47.8532 L -45.7461,-47.9057 L -45.5621,-47.9469 L -45.376,-47.9763
 L -45.1884,-47.9941 L -45,-48 L -44.8116,-47.9941 L -44.624,-47.9763 L -44.4379,-47.9469 L -44.2539,-47.9057
 L -44.0729,-47.8532 L -43.8956,-47.7893 L -43.7227,-47.7145 L -43.5547,-47.6289 L -43.3925,-47.533 L -43.2366,-47.427
 L -43.0877,-47.3115 L -42.9464,-47.1869 L -42.8131,-47.0536 L -42.6885,-46.9123 L -42.5729,-46.7634 L -42.467,-46.6075
 L -42.3711,-46.4453 L -42.2855,-46.2773 L -42.2107,-46.1044 L -42.1468,-45.927 L -42.0942,-45.7461 L -42.0531,-45.5621
 L -42.0237,-45.376 L -42.0059,-45.1884 L -42,-45 L -42.0059,-44.8116 L -42.0237,-44.624 L -42.0531,-44.4379
 L -42.0942,-44.2539 L -42.1468,-44.0729 L -42.2107,-43.8956 L -42.2855,-43.7227 L -42.3711,-43.5547 L -42.467,-43.3925
 L -42.5729,-43.2366 L -42.6885,-43.0877 L -42.8131,-42.9464 L -42.9464,-42.8131 L -43.0877,-42.6885 L -43.2366,-42.5729
 L -43.3925,-42.467 L -43.5547,-42.3711 L -43.7227,-42.2855 L -43.8956,-42.2107 L -44.0729,-42.1468 L -44.2539,-42.0942
 L -44.4379,-42.0531 L -44.624,-42.0237 L -44.8116,-42.0059 L -45,-42 z
M 29.8116,-27.0059 L 29.624,-27.0237 L 29.4379,-27.0531 L 29.2539,-27.0942 L 29.0729,-27.1468 L 28.8956,-27.2107
 L 28.7227,-27.2855 L 28.5547,-27.3711 L 28.3925,-27.467 L 28.2366,-27.5729 L 28.0877,-27.6884 L 27.9464,-27.8131
 L 27.8131,-27.9464 L 27.6884,-28.0877 L 27.5729,-28.2366 L 27.467,-28.3925 L 27.3711,-28.5547 L 27.2855,-28.7227
 L 27.2107,-28.8956 L 27.1468,-29.0729 L 27.0942,-29.2539 L 27.0531,-29.4379 L 27.0237,-29.624 L 27.0059,-29.8116
 L 27,-30 L 27.0059,-30.1884 L 27.0237,-30.376 L 27.0531,-30.5621 L 27.0942,-30.7461 L 27.1468,-30.927
 L 27.2107,-31.1044 L 27.2855,-31.2773 L 27.3711,-31.4453 L 27.467,-31.6075 L 27.5729,-31.7634 L 27.6884,-31.9123
 L 27.8131,-32.0536 L 27.9464,-32.1869 L 28.0877,-32.3115 L 28.2366,-32.427 L 28.3925,-32.533 L 28.5547,-32.6289
 L 28.7227,-32.7145 L 28.8956,-32.7893 L 29.0729,-32.8532 L 29.2539,-32.9057 L 29.4379,-32.9469 L 29.624,-32.9763
 L 29.8116,-32.9941 L 30,-33 L 30.1884,-32.9941 L 30.376,-32.9763 L 30.5621,-32.9469 L 30.7461,-32.9057
 L 30.927,-32.8532 L 31.1044,-32.7893 L 31.2773,-32.7145 L 31.4453,-32.6289 L 31.6075,-32.533 L 31.7634,-32.427
 L 31.9123,-32.3115 L 32.0536,-32.1869 L 32.1869,-32.0536 L 32.3115,-31.9123 L 32.427,-31.7634 L 32.533,-31.6075
 L 32.6289,-31.4453 L 32.7145,-31.2773 L 32.7893,-31.1044 L 32.8532,-30.927 L 32.9057,-30.7461 L 32.9469,-30.5621
 L 32.9763,-30.376 L 32.9941,-30.1884 L 33,-30 L 32.9941,-29.8116 L 32.9763,-29.624 L 32.9469,-29.4379
 L 32.9057,-29.2539 L 32.8532,-29.0729 L 32.7893,-28.8956 L 32.7145,-28.7227 L 32.6289,-28.5547 L 32.533,-28.3925
 L 32.427,-28.2366 L 32.3115,-28.0877 L 32.1869,-27.9464 L 32.0536,-27.8131 L 31.9123,-27.6884 L 31.7634,-27.5729
 L 31.6075,-27.467 L 31.4453,-27.3711 L 31.2773,-27.2855 L 31.1044,-27.2107 L 30.927,-27.1468 L 30.7461,-27.0942
 L 30.5621,-27.0531 L 30.376,-27.0237 L 30.1884,-27.0059 L 30,-27 z
M -15.1884,-27.0059 L -15.376,-27.0237 L -15.5621,-27.0531 L -15.7461,-27.0942 L -15.927,-27.1468 L -16.1044,-27.2107
 L -16.2773,-27.2855 L -16.4453,-27.3711 L -16.6075,-27.467 L -16.7634,-27.5729 L -16.9123,-27.6884 L -17.0536,-27.8131
 L -17.1869,-27.9464 L -17.3115,-28.0877 L -17.427,-28.2366 L -17.533,-28.3925 L -17.6289,-28.5547 L -17.7145,-28.7227
 L -17.7893,-28.8956 L -17.8532,-29.0729 L -17.9057,-29.2539 L -17.9469,-29.4379 L -17.9763,-29.624 L -17.9941,-29.8116
 L -18,-30 L -17.9941,-30.1884 L -17.9763,-30.376 L -17.9469,-30.5621 L -17.9057,-30.7461 L -17.8532,-30.927
 L -17.7893,-31.1044 L -17.7145,-31.2773 L -17.6289,-31.4453 L -17.533,-31.6075 L -17.427,-31.7634 L -17.3115,-31.9123
 L -17.1869,-32.0536 L -17.0536,-32.1869 L -16.9123,-32.3115 L -16.7634,-32.427 L -16.6075,-32.533 L -16.4453,-32.6289
 L -16.2773,-32.7145 L -16.1044,-32.7893 L -15.927,-32.8532 L -15.7461,-32.9057 L -15.5621,-32.9469 L -15.376,-32.9763
 L -15.1884,-32.9941 L -15,-33 L -14.8116,-32.9941 L -14.624,-32.9763 L -14.4379,-32.9469 L -14.2539,-32.9057
 L -14.0729,-32.8532 L -13.8956,-32.7893 L -13.7227,-32.7145 L -13.5547,-32.6289 L -13.3925,-32.533 L -13.2366,-32.427
 L -13.0877,-32.3115 L -12.9464,-32.1869 L -12.8131,-32.0536 L -12.6884,-31.9123 L -12.5729,-31.7634 L -12.467,-31.6075
 L -12.3711,-31.4453 L -12.2855,-31.2773 L -12.2107,-31.1044 L -12.1468,-30.927 L -12.0942,-30.7461 L -12.0531,-30.5621
 L -12.0237,-30.376 L -12.0059,-30.1884 L -12,-30 L -12.0059,-29.8116 L -12.0237,-29.624 L -12.0531,-29.4379
 L -12.0942,-29.2539 L -12.1468,-29.0729 L -12.2107,-28.8956 L -12.2855,-28.7227 L -12.3711,-28.5547 L -12.467,-28.3925
 L -12.5729,-28.2366 L -12.6884,-28.0877 L -12.8131,-27.9464 L -12.9464,-27.8131 L -13.0877,-27.6884 L -13.2366,-27.5729
 L -13.3925,-27.467 L -13.5547,-27.3711 L -13.7227,-27.2855 L -13.8956,-27.2107 L -14.0729,-27.1468 L -14.2539,-27.0942
 L -14.4379,-27.0531 L -14.624,-27.0237 L -14.8116,-27.0059 L -15,-27 z
M 44.8116,-27.0059 L 44.624,-27.0237 L 44.4379,-27.0531 L 44.2539,-27.0942 L 44.0729,-27.1468 L 43.8956,-27.2107
 L 43.7227,-27.2855 L 43.5547,-27.3711 L 43.3925,-27.467 L 43.2366,-27.5729 L 43.0877,-27.6884 L 42.9464,-27.8131
 L 42.8131,-27.9464 L 42.6885,-28.0877 L 42.5729,-28.2366 L 42.467,-28.3925 L 42.3711,-28.5547 L 42.2855,-28.7227
 L 42.2107,-28.8956 L 42.1468,-29.0729 L 42.0942,-29.2539 L 42.0531,-29.4379 L 42.0237,-29.624 L 42.0059,-29.8116
 L 42,-30 L 42.0059,-30.1884 L 42.0237,-30.376 L 42.0531,-30.5621 L 42.0942,-30.7461 L 42.1468,-30.927
 L 42.2107,-31.1044 L 42.2855,-31.2773 L 42.3711,-31.4453 L 42.467,-31.6075 L 42.5729,-31.7634 L 42.6885,-31.9123
 L 42.8131,-32.0536 L 42.9464,-32.1869 L 43.0877,-32.3115 L 43.2366,-32.427 L 43.3925,-32.533 L 43.5547,-32.6289
 L 43.7227,-32.7145 L 43.8956,-32.7893 L 44.0729,-32.8532 L 44.2539,-32.9057 L 44.4379,-32.9469 L 44.624,-32.9763
 L 44.8116,-32.9941 L 45,-33 L 45.1884,-32.9941 L 45.376,-32.9763 L 45.5621,-32.9469 L 45.7461,-32.9057
 L 45.927,-32.8532 L 46.1044,-32.7893 L 46.2773,-32.7145 L 46.4453,-32.6289 L 46.6075,-32.533 L 46.7634,-32.427
 L 46.9123,-32.3115 L 47.0536,-32.1869 L 47.1869,-32.0536 L 47.3115,-31.9123 L 47.427,-31.7634 L 47.533,-31.6075
 L 47.6289,-31.4453 L 47.7145,-31.2773 L 47.7893,-31.1044 L 47.8532,-30.927 L 47.9057,-30.7461 L 47.9469,-30.5621
 L 47.9763,-30.376 L 47.9941,-30.1884 L 48,-30 L 47.9941,-29.8116 L 47.9763,-29.624 L 47.9469,-29.4379
 L 47.9057,-29.2539 L 47.8532,-29.0729 L 47.7893,-28.8956 L 47.7145,-28.7227 L 47.6289,-28.5547 L 47.533,-28.3925
 L 47.427,-28.2366 L 47.3115,-28.0877 L 47.1869,-27.9464 L 47.0536,-27.8131 L 46.9123,-27.6884 L 46.7634,-27.5729
 L 46.6075,-27.467 L 46.4453,-27.3711 L 46.2773,-27.2855 L 46.1044,-27.2107 L 45.927,-27.1468 L 45.7461,-27.0942
 L 45.5621,-27.0531 L 45.376,-27.0237 L 45.1884,-27.0059 L 45,-27 z
M -45.1884,-27.0059 L -45.376,-27.0237 L -45.5621,-27.0531 L -45.7461,-27.0942 L -45.927,-27.1468 L -46.1044,-27.2107
 L -46.2773,-27.2855 L -46.4453,-27.3711 L -46.6075,-27.467 L -46.7634,-27.5729 L -46.9123,-27.6884 L -47.0536,-27.8131
 L -47.1869,-27.9464 L -47.3115,-28.0877 L -47.427,-28.2366 L -47.533,-28.3925 L -47.6289,-28.5547 L -47.7145,-28.7227
 L -47.7893,-28.8956 L -47.8532,-29.0729 L -47.9057,-29.2539 L -47.9469,-29.4379 L -47.9763,-29.624 L -47.9941,-29.8116
 L -48,-30 L -47.9941,-30.1884 L -47.9763,-30.376 L -47.9469,-30.5621 L -47.9057,-30.7461 L -47.8532,-30.927
 L -47.7893,-31.1044 L -47.7145,-31.2773 L -47.6289,-31.4453 L -47.533,-31.6075 L -47.427,-31.7634 L -47.3115,-31.9123
 L -47.1869,-32.0536 L -47.0536,-32.1869 L -46.9123,-32.3115 L -46.7634,-32.427 L -46.6075,-32.533 L -46.4453,-32.6289
 L -46.2773,-32.7145 L -46.1044,-32.7893 L -45.927,-32.8532 L -45.7461,-32.9057 L -45.5621,-32.9469 L -45.376,-32.9763
 L -45.1884,-32.9941 L -45,-33 L -44.8116,-32.9941 L -44.624,-32.9763 L -44.4379,-32.9469 L -44.2539,-32.9057
 L -44.0729,-32.8532 L -43.8956,-32.7893 L -43.7227,-32.7145 L -43.5547,-32.6289 L -43.3925,-32.533 L -43.2366,-32.427
 L -43.0877,-32.3115 L -42.9464,-32.1869 L -42.8131,-32.0536 L -42.6885,-31.9123 L -42.5729,-31.7634 L -42.467,-31.6075
 L -42.3711,-31.4453 L -42.2855,-31.2773 L -42.2107,-31.1044 L -42.1468,-30.927 L -42.0942,-30.7461 L -42.0531,-30.5621
 L -42.0237,-30.376 L -42.0059,-30.1884 L -42,-30 L -42.0059,-29.8116 L -42.0237,-29.624 L -42.0531,-29.4379
 L -42.0942,-29.2539 L -42.1468,-29.0729 L -42.2107,-28.8956 L -42.2855,-28.7227 L -42.3711,-28.5547 L -42.467,-28.3925
 L -42.5729,-28.2366 L -42.6885,-28.0877 L -42.8131,-27.9464 L -42.9464,-27.8131 L -43.0877,-27.6884 L -43.2366,-27.5729
 L -43.3925,-27.467 L -43.5547,-27.3711 L -43.7227,-27.2855 L -43.8956,-27.2107 L -44.0729,-27.1468 L -44.2539,-27.0942
 L -44.4379,-27.0531 L -44.624,-27.0237 L -44.8116,-27.0059 L -45,-27 z
M -0.18837,-27.0059 L -0.375992,-27.0237 L -0.562134,-27.0531 L -0.746063,-27.0942 L -0.927048,-27.1468 L -1.10437,-27.2107
 L -1.27733,-27.2855 L -1.44525,-27.3711 L -1.60747,-27.467 L -1.76335,-27.5729 L -1.91226,-27.6884 L -2.05363,-27.8131
 L -2.1869,-27.9464 L -2.31154,-28.0877 L -2.42705,-28.2366 L -2.53297,-28.3925 L -2.62891,-28.5547 L -2.71448,-28.7227
 L -2.78932,-28.8956 L -2.85316,-29.0729 L -2.90575,-29.2539 L -2.94685,-29.4379 L -2.97633,-29.624 L -2.99408,-29.8116
 L -3,-30 L -2.99408,-30.1884 L -2.97633,-30.376 L -2.94685,-30.5621 L -2.90575,-30.7461 L -2.85316,-30.927
 L -2.78932,-31.1044 L -2.71448,-31.2773 L -2.62891,-31.4453 L -2.53297,-31.6075 L -2.42705,-31.7634 L -2.31154,-31.9123
 L -2.1869,-32.0536 L -2.05363,-32.1869 L -1.91226,-32.3115 L -1.76335,-32.427 L -1.60747,-32.533 L -1.44525,-32.6289
 L -1.27733,-32.7145 L -1.10437,-32.7893 L -0.927048,-32.8532 L -0.746063,-32.9057 L -0.562134,-32.9469 L -0.375992,-32.9763
 L -0.18837,-32.9941 L 0,-33 L 0.18837,-32.9941 L 0.375992,-32.9763 L 0.562134,-32.9469 L 0.746063,-32.9057
 L 0.927048,-32.8532 L 1.10437,-32.7893 L 1.27733,-32.7145 L 1.44525,-32.6289 L 1.60747,-32.533 L 1.76335,-32.427
 L 1.91226,-32.3115 L 2.05363,-32.1869 L 2.1869,-32.0536 L 2.31154,-31.9123 L 2.42705,-31.7634 L 2.53297,-31.6075
 L 2.62891,-31.4453 L 2.71448,-31.2773 L 2.78932,-31.1044 L 2.85316,-30.927 L 2.90575,-30.7461 L 2.94685,-30.5621
 L 2.97633,-30.376 L 2.99408,-30.1884 L 3,-30 L 2.99408,-29.8116 L 2.97633,-29.624 L 2.94685,-29.4379
 L 2.90575,-29.2539 L 2.85316,-29.0729 L 2.78932,-28.8956 L 2.71448,-28.7227 L 2.62891,-28.5547 L 2.53297,-28.3925
 L 2.42705,-28.2366 L 2.31154,-28.0877 L 2.1869,-27.9464 L 2.05363,-27.8131 L 1.91226,-27.6884 L 1.76335,-27.5729
 L 1.60747,-27.467 L 1.44525,-27.3711 L 1.27733,-27.2855 L 1.10437,-27.2107 L 0.927048,-27.1468 L 0.746063,-27.0942
 L 0.562134,-27.0531 L 0.375992,-27.0237 L 0.18837,-27.0059 L 0,-27 z
M -30.1884,-27.0059 L -30.376,-27.0237 L -30.5621,-27.0531 L -30.7461,-27.0942 L -30.927,-27.1468 L -31.1044,-27.2107
 L -31.2773,-27.2855 L -31.4453,-27.3711 L -31.6075,-27.467 L -31.7634,-27.5729 L -31.9123,-27.6884 L -32.0536,-27.8131
 L -32.1869,-27.9464 L -32.3115,-28.0877 L -32.427,-28.2366 L -32.533,-28.3925 L -32.6289,-28.5547 L -32.7145,-28.7227
 L -32.7893,-28.8956 L -32.8532,-29.0729 L -32.9057,-29.2539 L -32.9469,-29.4379 L -32.9763,-29.624 L -32.9941,-29.8116
 L -33,-30 L -32.9941,-30.1884 L -32.9763,-30.376 L -32.9469,-30.5621 L -32.9057,-30.7461 L -32.8532,-30.927
 L -32.7893,-31.1044 L -32.7145,-31.2773 L -32.6289,-31.4453 L -32.533,-31.6075 L -32.427,-31.7634 L -32.3115,-31.9123
 L -32.1869,-32.0536 L -32.0536,-32.1869 L -31.9123,-32.3115 L -31.7634,-32.427 L -31.6075,-32.533 L -31.4453,-32.6289
 L -31.2773,-32.7145 L -31.1044,-32.7893 L -30.927,-32.8532 L -30.7461,-32.9057 L -30.5621,-32.9469 L -30.376,-32.9763
 L -30.1884,-32.9941 L -30,-33 L -29.8116,-32.9941 L -29.624,-32.9763 L -29.4379,-32.9469 L -29.2539,-32.9057
 L -29.0729,-32.8532 L -28.8956,-32.7893 L -28.7227,-32.7145 L -28.5547,-32.6289 L -28.3925,-32.533 L -28.2366,-32.427
 L -28.0877,-32.3115 L -27.9464,-32.1869 L -27.8131,-32.0536 L -27.6884,-31.9123 L -27.5729,-31.7634 L -27.467,-31.6075
 L -27.3711,-31.4453 L -27.2855,-31.2773 L -27.2107,-31.1044 L -27.1468,-30.927 L -27.0942,-30.7461 L -27.0531,-30.5621
 L -27.0237,-30.376 L -27.0059,-30.1884 L -27,-30 L -27.0059,-29.8116 L -27.0237,-29.624 L -27.0531,-29.4379
 L -27.0942,-29.2539 L -27.1468,-29.0729 L -27.2107,-28.8956 L -27.2855,-28.7227 L -27.3711,-28.5547 L -27.467,-28.3925
 L -27.5729,-28.2366 L -27.6884,-28.0877 L -27.8131,-27.9464 L -27.9464,-27.8131 L -28.0877,-27.6884 L -28.2366,-27.5729
 L -28.3925,-27.467 L -28.5547,-27.3711 L -28.7227,-27.2855 L -28.8956,-27.2107 L -29.0729,-27.1468 L -29.2539,-27.0942
 L -29.4379,-27.0531 L -29.624,-27.0237 L -29.8116,-27.0059 L -30,-27 z
M 14.8116,-27.0059 L 14.624,-27.0237 L 14.4379,-27.0531 L 14.2539,-27.0942 L 14.0729,-27.1468 L 13.8956,-27.2107
 L 13.7227,-27.2855 L 13.5547,-27.3711 L 13.3925,-27.467 L 13.2366,-27.5729 L 13.0877,-27.6884 L 12.9464,-27.8131
 L 12.8131,-27.9464 L 12.6884,-28.0877 L 12.5729,-28.2366 L 12.467,-28.3925 L 12.3711,-28.5547 L 12.2855,-28.7227
 L 12.2107,-28.8956 L 12.1468,-29.0729 L 12.0942,-29.2539 L 12.0531,-29.4379 L 12.0237,-29.624 L 12.0059,-29.8116
 L 12,-30 L 12.0059,-30.1884 L 12.0237,-30.376 L 12.0531,-30.5621 L 12.0942,-30.7461 L 12.1468,-30.927
 L 12.2107,-31.1044 L 12.2855,-31.2773 L 12.3711,-31.4453 L 12.467,-31.6075 L 12.5729,-31.7634 L 12.6884,-31.9123
 L 12.8131,-32.0536 L 12.9464,-32.1869 L 13.0877,-32.3115 L 13.2366,-32.427 L 13.3925,-32.533 L 13.5547,-32.6289
 L 13.7227,-32.7145 L 13.8956,-32.7893 L 14.0729,-32.8532 L 14.2539,-32.9057 L 14.4379,-32.9469 L 14.624,-32.9763
 L 14.8116,-32.9941 L 15,-33 L 15.1884,-32.9941 L 15.376,-32.9763 L 15.5621,-32.9469 L 15.7461,-32.9057
 L 15.927,-32.8532 L 16.1044,-32.7893 L 16.2773,-32.7145 L 16.4453,-32.6289 L 16.6075,-32.533 L 16.7634,-32.427
 L 16.9123,-32.3115 L 17.0536,-32.1869 L 17.1869,-32.0536 L 17.3115,-31.9123 L 17.427,-31.7634 L 17.533,-31.6075
 L 17.6289,-31.4453 L 17.7145,-31.2773 L 17.7893,-31.1044 L 17.8532,-30.927 L 17.9057,-30.7461 L 17.9469,-30.5621
 L 17.9763,-30.376 L 17.9941,-30.1884 L 18,-30 L 17.9941,-29.8116 L 17.9763,-29.624 L 17.9469,-29.4379
 L 17.9057,-29.2539 L 17.8532,-29.0729 L 17.7893,-28.8956 L 17.7145,-28.7227 L 17.6289,-28.5547 L 17.533,-28.3925
 L 17.427,-28.2366 L 17.3115,-28.0877 L 17.1869,-27.9464 L 17.0536,-27.8131 L 16.9123,-27.6884 L 16.7634,-27.5729
 L 16.6075,-27.467 L 16.4453,-27.3711 L 16.2773,-27.2855 L 16.1044,-27.2107 L 15.927,-27.1468 L 15.7461,-27.0942
 L 15.5621,-27.0531 L 15.376,-27.0237 L 15.1884,-27.0059 L 15,-27 z
M 14.8116,-12.0059 L 14.624,-12.0237 L 14.4379,-12.0531 L 14.2539,-12.0942 L 14.0729,-12.1468 L 13.8956,-12.2107
 L 13.7227,-12.2855 L 13.5547,-12.3711 L 13.3925,-12.467 L 13.2366,-12.5729 L 13.0877,-12.6884 L 12.9464,-12.8131
 L 12.8131,-12.9464 L 12.6884,-13.0877 L 12.5729,-13.2366 L 12.467,-13.3925 L 12.3711,-13.5547 L 12.2855,-13.7227
 L 12.2107,-13.8956 L 12.1468,-14.0729 L 12.0942,-14.2539 L 12.0531,-14.4379 L 12.0237,-14.624 L 12.0059,-14.8116
 L 12,-15 L 12.0059,-15.1884 L 12.0237,-15.376 L 12.0531,-15.5621 L 12.0942,-15.7461 L 12.1468,-15.927
 L 12.2107,-16.1044 L 12.2855,-16.2773 L 12.3711,-16.4453 L 12.467,-16.6075 L 12.5729,-16.7634 L 12.6884,-16.9123
 L 12.8131,-17.0536 L 12.9464,-17.1869 L 13.0877,-17.3115 L 13.2366,-17.427 L 13.3925,-17.533 L 13.5547,-17.6289
 L 13.7227,-17.7145 L 13.8956,-17.7893 L 14.0729,-17.8532 L 14.2539,-17.9057 L 14.4379,-17.9469 L 14.624,-17.9763
 L 14.8116,-17.9941 L 15,-18 L 15.1884,-17.9941 L 15.376,-17.9763 L 15.5621,-17.9469 L 15.7461,-17.9057
 L 15.927,-17.8532 L 16.1044,-17.7893 L 16.2773,-17.7145 L 16.4453,-17.6289 L 16.6075,-17.533 L 16.7634,-17.427
 L 16.9123,-17.3115 L 17.0536,-17.1869 L 17.1869,-17.0536 L 17.3115,-16.9123 L 17.427,-16.7634 L 17.533,-16.6075
 L 17.6289,-16.4453 L 17.7145,-16.2773 L 17.7893,-16.1044 L 17.8532,-15.927 L 17.9057,-15.7461 L 17.9469,-15.5621
 L 17.9763,-15.376 L 17.9941,-15.1884 L 18,-15 L 17.9941,-14.8116 L 17.9763,-14.624 L 17.9469,-14.4379
 L 17.9057,-14.2539 L 17.8532,-14.0729 L 17.7893,-13.8956 L 17.7145,-13.7227 L 17.6289,-13.5547 L 17.533,-13.3925
 L 17.427,-13.2366 L 17.3115,-13.0877 L 17.1869,-12.9464 L 17.0536,-12.8131 L 16.9123,-12.6884 L 16.7634,-12.5729
 L 16.6075,-12.467 L 16.4453,-12.3711 L 16.2773,-12.2855 L 16.1044,-12.2107 L 15.927,-12.1468 L 15.7461,-12.0942
 L 15.5621,-12.0531 L 15.376,-12.0237 L 15.1884,-12.0059 L 15,-12 z
M 44.8116,-12.0059 L 44.624,-12.0237 L 44.4379,-12.0531 L 44.2539,-12.0942 L 44.0729,-12.1468 L 43.8956,-12.2107
 L 43.7227,-12.2855 L 43.5547,-12.3711 L 43.3925,-12.467 L 43.2366,-12.5729 L 43.0877,-12.6884 L 42.9464,-12.8131
 L 42.8131,-12.9464 L 42.6885,-13.0877 L 42.5729,-13.2366 L 42.467,-13.3925 L 42.3711,-13.5547 L 42.2855,-13.7227
 L 42.2107,-13.8956 L 42.1468,-14.0729 L 42.0942,-14.2539 L 42.0531,-14.4379 L 42.0237,-14.624 L 42.0059,-14.8116
 L 42,-15 L 42.0059,-15.1884 L 42.0237,-15.376 L 42.0531,-15.5621 L 42.0942,-15.7461 L 42.1468,-15.927
 L 42.2107,-16.1044 L 42.2855,-16.2773 L 42.3711,-16.4453 L 42.467,-16.6075 L 42.5729,-16.7634 L 42.6885,-16.9123
 L 42.8131,-17.0536 L 42.9464,-17.1869 L 43.0877,-17.3115 L 43.2366,-17.427 L 43.3925,-17.533 L 43.5547,-17.6289
 L 43.7227,-17.7145 L 43.8956,-17.7893 L 44.0729,-17.8532 L 44.2539,-17.9057 L 44.4379,-17.9469 L 44.624,-17.9763
 L 44.8116,-17.9941 L 45,-18 L 45.1884,-17.9941 L 45.376,-17.9763 L 45.5621,-17.9469 L 45.7461,-17.9057
 L 45.927,-17.8532 L 46.1044,-17.7893 L 46.2773,-17.7145 L 46.4453,-17.6289 L 46.6075,-17.533 L 46.7634,-17.427
 L 46.9123,-17.3115 L 47.0536,-17.1869 L 47.1869,-17.0536 L 47.3115,-16.9123 L 47.427,-16.7634 L 47.533,-16.6075
 L 47.6289,-16.4453 L 47.7145,-16.2773 L 47.7893,-16.1044 L 47.8532,-15.927 L 47.9057,-15.7461 L 47.9469,-15.5621
 L 47.9763,-15.376 L 47.9941,-15.1884 L 48,-15 L 47.9941,-14.8116 L 47.9763,-14.624 L 47.9469,-14.4379
 L 47.9057,-14.2539 L 47.8532,-14.0729 L 47.7893,-13.8956 L 47.7145,-13.7227 L 47.6289,-13.5547 L 47.533,-13.3925
 L 47.427,-13.2366 L 47.3115,-13.0877 L 47.1869,-12.9464 L 47.0536,-12.8131 L 46.9123,-12.6884 L 46.7634,-12.5729
 L 46.6075,-12.467 L 46.4453,-12.3711 L 46.2773,-12.2855 L 46.1044,-12.2107 L 45.927,-12.1468 L 45.7461,-12.0942
 L 45.5621,-12.0531 L 45.376,-12.0237 L 45.1884,-12.0059 L 45,-12 z
M -17.533,-13.3925 L -17.6289,-13.5547 L -17.7145,-13.7227 L -17.7893,-13.8956 L -17.8532,-14.0729 L -17.9057,-14.2539
 L -17.9469,-14.4379 L -17.9763,-14.624 L -17.9941,-14.8116 L -18,-15 L -17.9941,-15.1884 L -17.9763,-15.376
 L -17.9469,-15.5621 L -17.9057,-15.7461 L -17.8532,-15.927 L -17.7893,-16.1044 L -17.7145,-16.2773 L -17.6289,-16.4453
 L -17.533,-16.6075 L -17.427,-16.7634 L -17.3115,-16.9123 L -17.1869,-17.0536 L -17.0536,-17.1869 L -16.9123,-17.3115
 L -16.7634,-17.427 L -16.6075,-17.533 L -16.4453,-17.6289 L -16.2773,-17.7145 L -16.1044,-17.7893 L -15.927,-17.8532
 L -15.7461,-17.9057 L -15.5621,-17.9469 L -15.376,-17.9763 L -15.1884,-17.9941 L -15,-18 L -14.8116,-17.9941
 L -14.624,-17.9763 L -14.4379,-17.9469 L -14.2539,-17.9057 L -14.0729,-17.8532 L -13.8956,-17.7893 L -13.7227,-17.7145
 L -13.5547,-17.6289 L -13.3925,-17.533 L -13.2366,-17.427 L -13.0877,-17.3115 L -12.9464,-17.1869 L -12.8131,-17.0536
 L -12.6884,-16.9123 L -12.5729,-16.7634 L -12.467,-16.6075 L -12.3711,-16.4453 L -12.2855,-16.2773 L -12.2107,-16.1044
 L -12.1468,-15.927 L -12.0942,-15.7461 L -12.0531,-15.5621 L -12.0237,-15.376 L -12.0059,-15.1884 L -12,-15
 L -12.0059,-14.8116 L -12.0237,-14.624 L -12.0531,-14.4379 L -12.0942,-14.2539 L -12.1468,-14.0729 L -12.2107,-13.8956
 L -12.2855,-13.7227 L -12.3711,-13.5547 L -12.467,-13.3925 L -12.5729,-13.2366 L -12.6884,-13.0877 L -12.8131,-12.9464
 L -12.9464,-12.8131 L -13.0877,-12.6884 L -13.2366,-12.5729 L -13.3925,-12.467 L -13.5547,-12.3711 L -13.7227,-12.2855
 L -13.8956,-12.2107 L -14.0729,-12.1468 L -14.2539,-12.0942 L -14.4379,-12.0531 L -14.624,-12.0237 L -14.8116,-12.0059
 L -15,-12 L -15.1884,-12.0059 L -15.376,-12.0237 L -15.5621,-12.0531 L -15.7461,-12.0942 L -15.927,-12.1468
 L -16.1044,-12.2107 L -16.2773,-12.2855 L -16.4453,-12.3711 L -16.6075,-12.467 L -16.7634,-12.5729 L -16.9123,-12.6884
 L -17.0536,-12.8131 L -17.1869,-12.9464 L -17.3115,-13.0877 L -17.427,-13.2366 z
M 29.8116,-12.0059 L 29.624,-12.0237 L 29.4379,-12.0531 L 29.2539,-12.0942 L 29.0729,-12.1468 L 28.8956,-12.2107
 L 28.7227,-12.2855 L 28.5547,-12.3711 L 28.3925,-12.467 L 28.2366,-12.5729 L 28.0877,-12.6884 L 27.9464,-12.8131
 L 27.8131,-12.9464 L 27.6884,-13.0877 L 27.5729,-13.2366 L 27.467,-13.3925 L 27.3711,-13.5547 L 27.2855,-13.7227
 L 27.2107,-13.8956 L 27.1468,-14.0729 L 27.0942,-14.2539 L 27.0531,-14.4379 L 27.0237,-14.624 L 27.0059,-14.8116
 L 27,-15 L 27.0059,-15.1884 L 27.0237,-15.376 L 27.0531,-15.5621 L 27.0942,-15.7461 L 27.1468,-15.927
 L 27.2107,-16.1044 L 27.2855,-16.2773 L 27.3711,-16.4453 L 27.467,-16.6075 L 27.5729,-16.7634 L 27.6884,-16.9123
 L 27.8131,-17.0536 L 27.9464,-17.1869 L 28.0877,-17.3115 L 28.2366,-17.427 L 28.3925,-17.533 L 28.5547,-17.6289
 L 28.7227,-17.7145 L 28.8956,-17.7893 L 29.0729,-17.8532 L 29.2539,-17.9057 L 29.4379,-17.9469 L 29.624,-17.9763
 L 29.8116,-17.9941 L 30,-18 L 30.1884,-17.9941 L 30.376,-17.9763 L 30.5621,-17.9469 L 30.7461,-17.9057
 L 30.927,-17.8532 L 31.1044,-17.7893 L 31.2773,-17.7145 L 31.4453,-17.6289 L 31.6075,-17.533 L 31.7634,-17.427
 L 31.9123,-17.3115 L 32.0536,-17.1869 L 32.1869,-17.0536 L 32.3115,-16.9123 L 32.427,-16.7634 L 32.533,-16.6075
 L 32.6289,-16.4453 L 32.7145,-16.2773 L 32.7893,-16.1044 L 32.8532,-15.927 L 32.9057,-15.7461 L 32.9469,-15.5621
 L 32.9763,-15.376 L 32.9941,-15.1884 L 33,-15 L 32.9941,-14.8116 L 32.9763,-14.624 L 32.9469,-14.4379
 L 32.9057,-14.2539 L 32.8532,-14.0729 L 32.7893,-13.8956 L 32.7145,-13.7227 L 32.6289,-13.5547 L 32.533,-13.3925
 L 32.427,-13.2366 L 32.3115,-13.0877 L 32.1869,-12.9464 L 32.0536,-12.8131 L 31.9123,-12.6884 L 31.7634,-12.5729
 L 31.6075,-12.467 L 31.4453,-12.3711 L 31.2773,-12.2855 L 31.1044,-12.2107 L 30.927,-12.1468 L 30.7461,-12.0942
 L 30.5621,-12.0531 L 30.376,-12.0237 L 30.1884,-12.0059 L 30,-12 z
M -0.18837,-12.0059 L -0.375992,-12.0237 L -0.562134,-12.0531 L -0.746063,-12.0942 L -0.927048,-12.1468 L -1.10437,-12.2107
 L -1.27733,-12.2855 L -1.44525,-12.3711 L -1.60747,-12.467 L -1.76335,-12.5729 L -1.91226,-12.6884 L -2.05363,-12.8131
 L -2.1869,-12.9464 L -2.31154,-13.0877 L -2.42705,-13.2366 L -2.53297,-13.3925 L -2.62891,-13.5547 L -2.71448,-13.7227
 L -2.78932,-13.8956 L -2.85316,-14.0729 L -2.90575,-14.2539 L -2.94685,-14.4379 L -2.97633,-14.624 L -2.99408,-14.8116
 L -3,-15 L -2.99408,-15.1884 L -2.97633,-15.376 L -2.94685,-15.5621 L -2.90575,-15.7461 L -2.85316,-15.927
 L -2.78932,-16.1044 L -2.71448,-16.2773 L -2.62891,-16.4453 L -2.53297,-16.6075 L -2.42705,-16.7634 L -2.31154,-16.9123
 L -2.1869,-17.0536 L -2.05363,-17.1869 L -1.91226,-17.3115 L -1.76335,-17.427 L -1.60747,-17.533 L -1.44525,-17.6289
 L -1.27733,-17.7145 L -1.10437,-17.7893 L -0.927048,-17.8532 L -0.746063,-17.9057 L -0.562134,-17.9469 L -0.375992,-17.9763
 L -0.18837,-17.9941 L 0,-18 L 0.18837,-17.9941 L 0.375992,-17.9763 L 0.562134,-17.9469 L 0.746063,-17.9057
 L 0.927048,-17.8532 L 1.10437,-17.7893 L 1.27733,-17.7145 L 1.44525,-17.6289 L 1.60747,-17.533 L 1.76335,-17.427
 L 1.91226,-17.3115 L 2.05363,-17.1869 L 2.1869,-17.0536 L 2.31154,-16.9123 L 2.42705,-16.7634 L 2.53297,-16.6075
 L 2.62891,-16.4453 L 2.71448,-16.2773 L 2.78932,-16.1044 L 2.85316,-15.927 L 2.90575,-15.7461 L 2.94685,-15.5621
 L 2.97633,-15.376 L 2.99408,-15.1884 L 3,-15 L 2.99408,-14.8116 L 2.97633,-14.624 L 2.94685,-14.4379
 L 2.90575,-14.2539 L 2.85316,-14.0729 L 2.78932,-13.8956 L 2.71448,-13.7227 L 2.62891,-13.5547 L 2.53297,-13.3925
 L 2.42705,-13.2366 L 2.31154,-13.0877 L 2.1869,-12.9464 L 2.05363,-12.8131 L 1.91226,-12.6884 L 1.76335,-12.5729
 L 1.60747,-12.467 L 1.44525,-12.3711 L 1.27733,-12.2855 L 1.10437,-12.2107 L 0.927048,-12.1468 L 0.746063,-12.0942
 L 0.562134,-12.0531 L 0.375992,-12.0237 L 0.18837,-12.0059 L 0,-12 z
M 27.467,1.60747 L 27.3711,1.44525 L 27.2855,1.27733 L 27.2107,1.10437 L 27.1468,0.927048 L 27.0942,0.746063
 L 27.0531,0.562134 L 27.0237,0.375992 L 27.0059,0.18837 L 27,-0 L 27.0059,-0.18837 L 27.0237,-0.375992
 L 27.0531,-0.562134 L 27.0942,-0.746063 L 27.1468,-0.927048 L 27.2107,-1.10437 L 27.2855,-1.27733 L 27.3711,-1.44525
 L 27.467,-1.60747 L 27.5729,-1.76335 L 27.6884,-1.91226 L 27.8131,-2.05363 L 27.9464,-2.1869 L 28.0877,-2.31154
 L 28.2366,-2.42705 L 28.3925,-2.53297 L 28.5547,-2.62891 L 28.7227,-2.71448 L 28.8956,-2.78932 L 29.0729,-2.85316
 L 29.2539,-2.90575 L 29.4379,-2.94685 L 29.624,-2.97633 L 29.8116,-2.99408 L 30,-3 L 30.1884,-2.99408
 L 30.376,-2.97633 L 30.5621,-2.94685 L 30.7461,-2.90575 L 30.927,-2.85316 L 31.1044,-2.78932 L 31.2773,-2.71448
 L 31.4453,-2.62891 L 31.6075,-2.53297 L 31.7634,-2.42705 L 31.9123,-2.31154 L 32.0536,-2.1869 L 32.1869,-2.05363
 L 32.3115,-1.91226 L 32.427,-1.76335 L 32.533,-1.60747 L 32.6289,-1.44525 L 32.7145,-1.27733 L 32.7893,-1.10437
 L 32.8532,-0.927048 L 32.9057,-0.746063 L 32.9469,-0.562134 L 32.9763,-0.375992 L 32.9941,-0.18837 L 33,-0
 L 32.9941,0.18837 L 32.9763,0.375992 L 32.9469,0.562134 L 32.9057,0.746063 L 32.8532,0.927048 L 32.7893,1.10437
 L 32.7145,1.27733 L 32.6289,1.44525 L 32.533,1.60747 L 32.427,1.76335 L 32.3115,1.91226 L 32.1869,2.05363
 L 32.0536,2.1869 L 31.9123,2.31154 L 31.7634,2.42705 L 31.6075,2.53297 L 31.4453,2.62891 L 31.2773,2.71448
 L 31.1044,2.78932 L 30.927,2.85316 L 30.7461,2.90575 L 30.5621,2.94685 L 30.376,2.97633 L 30.1884,2.99408
 L 30,3 L 29.8116,2.99408 L 29.624,2.97633 L 29.4379,2.94685 L 29.2539,2.90575 L 29.0729,2.85316
 L 28.8956,2.78932 L 28.7227,2.71448 L 28.5547,2.62891 L 28.3925,2.53297 L 28.2366,2.42705 L 28.0877,2.31154
 L 27.9464,2.1869 L 27.8131,2.05363 L 27.6884,1.91226 L 27.5729,1.76335 z
M -30.1884,2.99408 L -30.376,2.97633 L -30.5621,2.94685 L -30.7461,2.90575 L -30.927,2.85316 L -31.1044,2.78932
 L -31.2773,2.71448 L -31.4453,2.62891 L -31.6075,2.53297 L -31.7634,2.42705 L -31.9123,2.31154 L -32.0536,2.1869
 L -32.1869,2.05363 L -32.3115,1.91226 L -32.427,1.76335 L -32.533,1.60747 L -32.6289,1.44525 L -32.7145,1.27733
 L -32.7893,1.10437 L -32.8532,0.927048 L -32.9057,0.746063 L -32.9469,0.562134 L -32.9763,0.375992 L -32.9941,0.18837
 L -33,-0 L -32.9941,-0.18837 L -32.9763,-0.375992 L -32.9469,-0.562134 L -32.9057,-0.746063 L -32.8532,-0.927048
 L -32.7893,-1.10437 L -32.7145,-1.27733 L -32.6289,-1.44525 L -32.533,-1.60747 L -32.427,-1.76335 L -32.3115,-1.91226
 L -32.1869,-2.05363 L -32.0536,-2.1869 L -31.9123,-2.31154 L -31.7634,-2.42705 L -31.6075,-2.53297 L -31.4453,-2.62891
 L -31.2773,-2.71448 L -31.1044,-2.78932 L -30.927,-2.85316 L -30.7461,-2.90575 L -30.5621,-2.94685 L -30.376,-2.97633
 L -30.1884,-2.99408 L -30,-3 L -29.8116,-2.99408 L -29.624,-2.97633 L -29.4379,-2.94685 L -29.2539,-2.90575
 L -29.0729,-2.85316 L -28.8956,-2.78932 L -28.7227,-2.71448 L -28.5547,-2.62891 L -28.3925,-2.53297 L -28.2366,-2.42705
 L -28.0877,-2.31154 L -27.9464,-2.1869 L -27.8131,-2.05363 L -27.6884,-1.91226 L -27.5729,-1.76335 L -27.467,-1.60747
 L -27.3711,-1.44525 L -27.2855,-1.27733 L -27.2107,-1.10437 L -27.1468,-0.927048 L -27.0942,-0.746063 L -27.0531,-0.562134
 L -27.0237,-0.375992 L -27.0059,-0.18837 L -27,-0 L -27.0059,0.18837 L -27.0237,0.375992 L -27.0531,0.562134
 L -27.0942,0.746063 L -27.1468,0.927048 L -27.2107,1.10437 L -27.2855,1.27733 L -27.3711,1.44525 L -27.467,1.60747
 L -27.5729,1.76335 L -27.6884,1.91226 L -27.8131,2.05363 L -27.9464,2.1869 L -28.0877,2.31154 L -28.2366,2.42705
 L -28.3925,2.53297 L -28.5547,2.62891 L -28.7227,2.71448 L -28.8956,2.78932 L -29.0729,2.85316 L -29.2539,2.90575
 L -29.4379,2.94685 L -29.624,2.97633 L -29.8116,2.99408 L -30,3 z
M -45.1884,2.99408 L -45.376,2.97633 L -45.5621,2.94685 L -45.7461,2.90575 L -45.927,2.85316 L -46.1044,2.78932
 L -46.2773,2.71448 L -46.4453,2.62891 L -46.6075,2.53297 L -46.7634,2.42705 L -46.9123,2.31154 L -47.0536,2.1869
 L -47.1869,2.05363 L -47.3115,1.91226 L -47.427,1.76335 L -47.533,1.60747 L -47.6289,1.44525 L -47.7145,1.27733
 L -47.7893,1.10437 L -47.8532,0.927048 L -47.9057,0.746063 L -47.9469,0.562134 L -47.9763,0.375992 L -47.9941,0.18837
 L -48,-0 L -47.9941,-0.18837 L -47.9763,-0.375992 L -47.9469,-0.562134 L -47.9057,-0.746063 L -47.8532,-0.927048
 L -47.7893,-1.10437 L -47.7145,-1.27733 L -47.6289,-1.44525 L -47.533,-1.60747 L -47.427,-1.76335 L -47.3115,-1.91226
 L -47.1869,-2.05363 L -47.0536,-2.1869 L -46.9123,-2.31154 L -46.7634,-2.42705 L -46.6075,-2.53297 L -46.4453,-2.62891
 L -46.2773,-2.71448 L -46.1044,-2.78932 L -45.927,-2.85316 L -45.7461,-2.90575 L -45.5621,-2.94685 L -45.376,-2.97633
 L -45.1884,-2.99408 L -45,-3 L -44.8116,-2.99408 L -44.624,-2.97633 L -44.4379,-2.94685 L -44.2539,-2.90575
 L -44.0729,-2.85316 L -43.8956,-2.78932 L -43.7227,-2.71448 L -43.5547,-2.62891 L -43.3925,-2.53297 L -43.2366,-2.42705
 L -43.0877,-2.31154 L -42.9464,-2.1869 L -42.8131,-2.05363 L -42.6885,-1.91226 L -42.5729,-1.76335 L -42.467,-1.60747
 L -42.3711,-1.44525 L -42.2855,-1.27733 L -42.2107,-1.10437 L -42.1468,-0.927048 L -42.0942,-0.746063 L -42.0531,-0.562134
 L -42.0237,-0.375992 L -42.0059,-0.18837 L -42,-0 L -42.0059,0.18837 L -42.0237,0.375992 L -42.0531,0.562134
 L -42.0942,0.746063 L -42.1468,0.927048 L -42.2107,1.10437 L -42.2855,1.27733 L -42.3711,1.44525 L -42.467,1.60747
 L -42.5729,1.76335 L -42.6885,1.91226 L -42.8131,2.05363 L -42.9464,2.1869 L -43.0877,2.31154 L -43.2366,2.42705
 L -43.3925,2.53297 L -43.5547,2.62891 L -43.7227,2.71448 L -43.8956,2.78932 L -44.0729,2.85316 L -44.2539,2.90575
 L -44.4379,2.94685 L -44.624,2.97633 L -44.8116,2.99408 L -45,3 z
M -15.1884,2.99408 L -15.376,2.97633 L -15.5621,2.94685 L -15.7461,2.90575 L -15.927,2.85316 L -16.1044,2.78932
 L -16.2773,2.71448 L -16.4453,2.62891 L -16.6075,2.53297 L -16.7634,2.42705 L -16.9123,2.31154 L -17.0536,2.1869
 L -17.1869,2.05363 L -17.3115,1.91226 L -17.427,1.76335 L -17.533,1.60747 L -17.6289,1.44525 L -17.7145,1.27733
 L -17.7893,1.10437 L -17.8532,0.927048 L -17.9057,0.746063 L -17.9469,0.562134 L -17.9763,0.375992 L -17.9941,0.18837
 L -18,-0 L -17.9941,-0.18837 L -17.9763,-0.375992 L -17.9469,-0.562134 L -17.9057,-0.746063 L -17.8532,-0.927048
 L -17.7893,-1.10437 L -17.7145,-1.27733 L -17.6289,-1.44525 L -17.533,-1.60747 L -17.427,-1.76335 L -17.3115,-1.91226
 L -17.1869,-2.05363 L -17.0536,-2.1869 L -16.9123,-2.31154 L -16.7634,-2.42705 L -16.6075,-2.53297 L -16.4453,-2.62891
 L -16.2773,-2.71448 L -16.1044,-2.78932 L -15.927,-2.85316 L -15.7461,-2.90575 L -15.5621,-2.94685 L -15.376,-2.97633
 L -15.1884,-2.99408 L -15,-3 L -14.8116,-2.99408 L -14.624,-2.97633 L -14.4379,-2.94685 L -14.2539,-2.90575
 L -14.0729,-2.85316 L -13.8956,-2.78932 L -13.7227,-2.71448 L -13.5547,-2.62891 L -13.3925,-2.53297 L -13.2366,-2.42705
 L -13.0877,-2.31154 L -12.9464,-2.1869 L -12.8131,-2.05363 L -12.6884,-1.91226 L -12.5729,-1.76335 L -12.467,-1.60747
 L -12.3711,-1.44525 L -12.2855,-1.27733 L -12.2107,-1.10437 L -12.1468,-0.927048 L -12.0942,-0.746063 L -12.0531,-0.562134
 L -12.0237,-0.375992 L -12.0059,-0.18837 L -12,-0 L -12.0059,0.18837 L -12.0237,0.375992 L -12.0531,0.562134
 L -12.0942,0.746063 L -12.1468,0.927048 L -12.2107,1.10437 L -12.2855,1.27733 L -12.3711,1.44525 L -12.467,1.60747
 L -12.5729,1.76335 L -12.6884,1.91226 L -12.8131,2.05363 L -12.9464,2.1869 L -13.0877,2.31154 L -13.2366,2.42705
 L -13.3925,2.53297 L -13.5547,2.62891 L -13.7227,2.71448 L -13.8956,2.78932 L -14.0729,2.85316 L -14.2539,2.90575
 L -14.4379,2.94685 L -14.624,2.97633 L -14.8116,2.99408 L -15,3 z
M 44.8116,2.99408 L 44.624,2.97633 L 44.4379,2.94685 L 44.2539,2.90575 L 44.0729,2.85316 L 43.8956,2.78932
 L 43.7227,2.71448 L 43.5547,2.62891 L 43.3925,2.53297 L 43.2366,2.42705 L 43.0877,2.31154 L 42.9464,2.1869
 L 42.8131,2.05363 L 42.6885,1.91226 L 42.5729,1.76335 L 42.467,1.60747 L 42.3711,1.44525 L 42.2855,1.27733
 L 42.2107,1.10437 L 42.1468,0.927048 L 42.0942,0.746063 L 42.0531,0.562134 L 42.0237,0.375992 L 42.0059,0.18837
 L 42,-0 L 42.0059,-0.18837 L 42.0237,-0.375992 L 42.0531,-0.562134 L 42.0942,-0.746063 L 42.1468,-0.927048
 L 42.2107,-1.10437 L 42.2855,-1.27733 L 42.3711,-1.44525 L 42.467,-1.60747 L 42.5729,-1.76335 L 42.6885,-1.91226
 L 42.8131,-2.05363 L 42.9464,-2.1869 L 43.0877,-2.31154 L 43.2366,-2.42705 L 43.3925,-2.53297 L 43.5547,-2.62891
 L 43.7227,-2.71448 L 43.8956,-2.78932 L 44.0729,-2.85316 L 44.2539,-2.90575 L 44.4379,-2.94685 L 44.624,-2.97633
 L 44.8116,-2.99408 L 45,-3 L 45.1884,-2.99408 L 45.376,-2.97633 L 45.5621,-2.94685 L 45.7461,-2.90575
 L 45.927,-2.85316 L 46.1044,-2.78932 L 46.2773,-2.71448 L 46.4453,-2.62891 L 46.6075,-2.53297 L 46.7634,-2.42705
 L 46.9123,-2.31154 L 47.0536,-2.1869 L 47.1869,-2.05363 L 47.3115,-1.91226 L 47.427,-1.76335 L 47.533,-1.60747
 L 47.6289,-1.44525 L 47.7145,-1.27733 L 47.7893,-1.10437 L 47.8532,-0.927048 L 47.9057,-0.746063 L 47.9469,-0.562134
 L 47.9763,-0.375992 L 47.9941,-0.18837 L 48,-0 L 47.9941,0.18837 L 47.9763,0.375992 L 47.9469,0.562134
 L 47.9057,0.746063 L 47.8532,0.927048 L 47.7893,1.10437 L 47.7145,1.27733 L 47.6289,1.44525 L 47.533,1.60747
 L 47.427,1.76335 L 47.3115,1.91226 L 47.1869,2.05363 L 47.0536,2.1869 L 46.9123,2.31154 L 46.7634,2.42705
 L 46.6075,2.53297 L 46.4453,2.62891 L 46.2773,2.71448 L 46.1044,2.78932 L 45.927,2.85316 L 45.7461,2.90575
 L 45.5621,2.94685 L 45.376,2.97633 L 45.1884,2.99408 L 45,3 z
M -45.1884,17.9941 L -45.376,17.9763 L -45.5621,17.9469 L -45.7461,17.9057 L -45.927,17.8532 L -46.1044,17.7893
 L -46.2773,17.7145 L -46.4453,17.6289 L -46.6075,17.533 L -46.7634,17.427 L -46.9123,17.3115 L -47.0536,17.1869
 L -47.1869,17.0536 L -47.3115,16.9123 L -47.427,16.7634 L -47.533,16.6075 L -47.6289,16.4453 L -47.7145,16.2773
 L -47.7893,16.1044 L -47.8532,15.927 L -47.9057,15.7461 L -47.9469,15.5621 L -47.9763,15.376 L -47.9941,15.1884
 L -48,15 L -47.9941,14.8116 L -47.9763,14.624 L -47.9469,14.4379 L -47.9057,14.2539 L -47.8532,14.0729
 L -47.7893,13.8956 L -47.7145,13.7227 L -47.6289,13.5547 L -47.533,13.3925 L -47.427,13.2366 L -47.3115,13.0877
 L -47.1869,12.9464 L -47.0536,12.8131 L -46.9123,12.6884 L -46.7634,12.5729 L -46.6075,12.467 L -46.4453,12.3711
 L -46.2773,12.2855 L -46.1044,12.2107 L -45.927,12.1468 L -45.7461,12.0942 L -45.5621,12.0531 L -45.376,12.0237
 L -45.1884,12.0059 L -45,12 L -44.8116,12.0059 L -44.624,12.0237 L -44.4379,12.0531 L -44.2539,12.0942
 L -44.0729,12.1468 L -43.8956,12.2107 L -43.7227,12.2855 L -43.5547,12.3711 L -43.3925,12.467 L -43.2366,12.5729
 L -43.0877,12.6884 L -42.9464,12.8131 L -42.8131,12.9464 L -42.6885,13.0877 L -42.5729,13.2366 L -42.467,13.3925
 L -42.3711,13.5547 L -42.2855,13.7227 L -42.2107,13.8956 L -42.1468,14.0729 L -42.0942,14.2539 L -42.0531,14.4379
 L -42.0237,14.624 L -42.0059,14.8116 L -42,15 L -42.0059,15.1884 L -42.0237,15.376 L -42.0531,15.5621
 L -42.0942,15.7461 L -42.1468,15.927 L -42.2107,16.1044 L -42.2855,16.2773 L -42.3711,16.4453 L -42.467,16.6075
 L -42.5729,16.7634 L -42.6885,16.9123 L -42.8131,17.0536 L -42.9464,17.1869 L -43.0877,17.3115 L -43.2366,17.427
 L -43.3925,17.533 L -43.5547,17.6289 L -43.7227,17.7145 L -43.8956,17.7893 L -44.0729,17.8532 L -44.2539,17.9057
 L -44.4379,17.9469 L -44.624,17.9763 L -44.8116,17.9941 L -45,18 z
M 44.8116,17.9941 L 44.624,17.9763 L 44.4379,17.9469 L 44.2539,17.9057 L 44.0729,17.8532 L 43.8956,17.7893
 L 43.7227,17.7145 L 43.5547,17.6289 L 43.3925,17.533 L 43.2366,17.427 L 43.0877,17.3115 L 42.9464,17.1869
 L 42.8131,17.0536 L 42.6885,16.9123 L 42.5729,16.7634 L 42.467,16.6075 L 42.3711,16.4453 L 42.2855,16.2773
 L 42.2107,16.1044 L 42.1468,15.927 L 42.0942,15.7461 L 42.0531,15.5621 L 42.0237,15.376 L 42.0059,15.1884
 L 42,15 L 42.0059,14.8116 L 42.0237,14.624 L 42.0531,14.4379 L 42.0942,14.2539 L 42.1468,14.0729
 L 42.2107,13.8956 L 42.2855,13.7227 L 42.3711,13.5547 L 42.467,13.3925 L 42.5729,13.2366 L 42.6885,13.0877
 L 42.8131,12.9464 L 42.9464,12.8131 L 43.0877,12.6884 L 43.2366,12.5729 L 43.3925,12.467 L 43.5547,12.3711
 L 43.7227,12.2855 L 43.8956,12.2107 L 44.0729,12.1468 L 44.2539,12.0942 L 44.4379,12.0531 L 44.624,12.0237
 L 44.8116,12.0059 L 45,12 L 45.1884,12.0059 L 45.376,12.0237 L 45.5621,12.0531 L 45.7461,12.0942
 L 45.927,12.1468 L 46.1044,12.2107 L 46.2773,12.2855 L 46.4453,12.3711 L 46.6075,12.467 L 46.7634,12.5729
 L 46.9123,12.6884 L 47.0536,12.8131 L 47.1869,12.9464 L 47.3115,13.0877 L 47.427,13.2366 L 47.533,13.3925
 L 47.6289,13.5547 L 47.7145,13.7227 L 47.7893,13.8956 L 47.8532,14.0729 L 47.9057,14.2539 L 47.9469,14.4379
 L 47.9763,14.624 L 47.9941,14.8116 L 48,15 L 47.9941,15.1884 L 47.9763,15.376 L 47.9469,15.5621
 L 47.9057,15.7461 L 47.8532,15.927 L 47.7893,16.1044 L 47.7145,16.2773 L 47.6289,16.4453 L 47.533,16.6075
 L 47.427,16.7634 L 47.3115,16.9123 L 47.1869,17.0536 L 47.0536,17.1869 L 46.9123,17.3115 L 46.7634,17.427
 L 46.6075,17.533 L 46.4453,17.6289 L 46.2773,17.7145 L 46.1044,17.7893 L 45.927,17.8532 L 45.7461,17.9057
 L 45.5621,17.9469 L 45.376,17.9763 L 45.1884,17.9941 L 45,18 z
M -15.1884,17.9941 L -15.376,17.9763 L -15.5621,17.9469 L -15.7461,17.9057 L -15.927,17.8532 L -16.1044,17.7893
 L -16.2773,17.7145 L -16.4453,17.6289 L -16.6075,17.533 L -16.7634,17.427 L -16.9123,17.3115 L -17.0536,17.1869
 L -17.1869,17.0536 L -17.3115,16.9123 L -17.427,16.7634 L -17.533,16.6075 L -17.6289,16.4453 L -17.7145,16.2773
 L -17.7893,16.1044 L -17.8532,15.927 L -17.9057,15.7461 L -17.9469,15.5621 L -17.9763,15.376 L -17.9941,15.1884
 L -18,15 L -17.9941,14.8116 L -17.9763,14.624 L -17.9469,14.4379 L -17.9057,14.2539 L -17.8532,14.0729
 L -17.7893,13.8956 L -17.7145,13.7227 L -17.6289,13.5547 L -17.533,13.3925 L -17.427,13.2366 L -17.3115,13.0877
 L -17.1869,12.9464 L -17.0536,12.8131 L -16.9123,12.6884 L -16.7634,12.5729 L -16.6075,12.467 L -16.4453,12.3711
 L -16.2773,12.2855 L -16.1044,12.2107 L -15.927,12.1468 L -15.7461,12.0942 L -15.5621,12.0531 L -15.376,12.0237
 L -15.1884,12.0059 L -15,12 L -14.8116,12.0059 L -14.624,12.0237 L -14.4379,12.0531 L -14.2539,12.0942
 L -14.0729,12.1468 L -13.8956,12.2107 L -13.7227,12.2855 L -13.5547,12.3711 L -13.3925,12.467 L -13.2366,12.5729
 L -13.0877,12.6884 L -12.9464,12.8131 L -12.8131,12.9464 L -12.6884,13.0877 L -12.5729,13.2366 L -12.467,13.3925
 L -12.3711,13.5547 L -12.2855,13.7227 L -12.2107,13.8956 L -12.1468,14.0729 L -12.0942,14.2539 L -12.0531,14.4379
 L -12.0237,14.624 L -12.0059,14.8116 L -12,15 L -12.0059,15.1884 L -12.0237,15.376 L -12.0531,15.5621
 L -12.0942,15.7461 L -12.1468,15.927 L -12.2107,16.1044 L -12.2855,16.2773 L -12.3711,16.4453 L -12.467,16.6075
 L -12.5729,16.7634 L -12.6884,16.9123 L -12.8131,17.0536 L -12.9464,17.1869 L -13.0877,17.3115 L -13.2366,17.427
 L -13.3925,17.533 L -13.5547,17.6289 L -13.7227,17.7145 L -13.8956,17.7893 L -14.0729,17.8532 L -14.2539,17.9057
 L -14.4379,17.9469 L -14.624,17.9763 L -14.8116,17.9941 L -15,18 z
M -0.18837,17.9941 L -0.375992,17.9763 L -0.562134,17.9469 L -0.746063,17.9057 L -0.927048,17.8532 L -1.10437,17.7893
 L -1.27733,17.7145 L -1.44525,17.6289 L -1.60747,17.533 L -1.76335,17.427 L -1.91226,17.3115 L -2.05363,17.1869
 L -2.1869,17.0536 L -2.31154,16.9123 L -2.42705,16.7634 L -2.53297,16.6075 L -2.62891,16.4453 L -2.71448,16.2773
 L -2.78932,16.1044 L -2.85316,15.927 L -2.90575,15.7461 L -2.94685,15.5621 L -2.97633,15.376 L -2.99408,15.1884
 L -3,15 L -2.99408,14.8116 L -2.97633,14.624 L -2.94685,14.4379 L -2.90575,14.2539 L -2.85316,14.0729
 L -2.78932,13.8956 L -2.71448,13.7227 L -2.62891,13.5547 L -2.53297,13.3925 L -2.42705,13.2366 L -2.31154,13.0877
 L -2.1869,12.9464 L -2.05363,12.8131 L -1.91226,12.6884 L -1.76335,12.5729 L -1.60747,12.467 L -1.44525,12.3711
 L -1.27733,12.2855 L -1.10437,12.2107 L -0.927048,12.1468 L -0.746063,12.0942 L -0.562134,12.0531 L -0.375992,12.0237
 L -0.18837,12.0059 L 0,12 L 0.18837,12.0059 L 0.375992,12.0237 L 0.562134,12.0531 L 0.746063,12.0942
 L 0.927048,12.1468 L 1.10437,12.2107 L 1.27733,12.2855 L 1.44525,12.3711 L 1.60747,12.467 L 1.76335,12.5729
 L 1.91226,12.6884 L 2.05363,12.8131 L 2.1869,12.9464 L 2.31154,13.0877 L 2.42705,13.2366 L 2.53297,13.3925
 L 2.62891,13.5547 L 2.71448,13.7227 L 2.78932,13.8956 L 2.85316,14.0729 L 2.90575,14.2539 L 2.94685,14.4379
 L 2.97633,14.624 L 2.99408,14.8116 L 3,15 L 2.99408,15.1884 L 2.97633,15.376 L 2.94685,15.5621
 L 2.90575,15.7461 L 2.85316,15.927 L 2.78932,16.1044 L 2.71448,16.2773 L 2.62891,16.4453 L 2.53297,16.6075
 L 2.42705,16.7634 L 2.31154,16.9123 L 2.1869,17.0536 L 2.05363,17.1869 L 1.91226,17.3115 L 1.76335,17.427
 L 1.60747,17.533 L 1.44525,17.6289 L 1.27733,17.7145 L 1.10437,17.7893 L 0.927048,17.8532 L 0.746063,17.9057
 L 0.562134,17.9469 L 0.375992,17.9763 L 0.18837,17.9941 L 0,18 z
M -30.1884,17.9941 L -30.376,17.9763 L -30.5621,17.9469 L -30.7461,17.9057 L -30.927,17.8532 L -31.1044,17.7893
 L -31.2773,17.7145 L -31.4453,17.6289 L -31.6075,17.533 L -31.7634,17.427 L -31.9123,17.3115 L -32.0536,17.1869
 L -32.1869,17.0536 L -32.3115,16.9123 L -32.427,16.7634 L -32.533,16.6075 L -32.6289,16.4453 L -32.7145,16.2773
 L -32.7893,16.1044 L -32.8532,15.927 L -32.9057,15.7461 L -32.9469,15.5621 L -32.9763,15.376 L -32.9941,15.1884
 L -33,15 L -32.9941,14.8116 L -32.9763,14.624 L -32.9469,14.4379 L -32.9057,14.2539 L -32.8532,14.0729
 L -32.7893,13.8956 L -32.7145,13.7227 L -32.6289,13.5547 L -32.533,13.3925 L -32.427,13.2366 L -32.3115,13.0877
 L -32.1869,12.9464 L -32.0536,12.8131 L -31.9123,12.6884 L -31.7634,12.5729 L -31.6075,12.467 L -31.4453,12.3711
 L -31.2773,12.2855 L -31.1044,12.2107 L -30.927,12.1468 L -30.7461,12.0942 L -30.5621,12.0531 L -30.376,12.0237
 L -30.1884,12.0059 L -30,12 L -29.8116,12.0059 L -29.624,12.0237 L -29.4379,12.0531 L -29.2539,12.0942
 L -29.0729,12.1468 L -28.8956,12.2107 L -28.7227,12.2855 L -28.5547,12.3711 L -28.3925,12.467 L -28.2366,12.5729
 L -28.0877,12.6884 L -27.9464,12.8131 L -27.8131,12.9464 L -27.6884,13.0877 L -27.5729,13.2366 L -27.467,13.3925
 L -27.3711,13.5547 L -27.2855,13.7227 L -27.2107,13.8956 L -27.1468,14.0729 L -27.0942,14.2539 L -27.0531,14.4379
 L -27.0237,14.624 L -27.0059,14.8116 L -27,15 L -27.0059,15.1884 L -27.0237,15.376 L -27.0531,15.5621
 L -27.0942,15.7461 L -27.1468,15.927 L -27.2107,16.1044 L -27.2855,16.2773 L -27.3711,16.4453 L -27.467,16.6075
 L -27.5729,16.7634 L -27.6884,16.9123 L -27.8131,17.0536 L -27.9464,17.1869 L -28.0877,17.3115 L -28.2366,17.427
 L -28.3925,17.533 L -28.5547,17.6289 L -28.7227,17.7145 L -28.8956,17.7893 L -29.0729,17.8532 L -29.2539,17.9057
 L -29.4379,17.9469 L -29.624,17.9763 L -29.8116,17.9941 L -30,18 z
M 29.8116,17.9941 L 29.624,17.9763 L 29.4379,17.9469 L 29.2539,17.9057 L 29.0729,17.8532 L 28.8956,17.7893
 L 28.7227,17.7145 L 28.5547,17.6289 L 28.3925,17.533 L 28.2366,17.427 L 28.0877,17.3115 L 27.9464,17.1869
 L 27.8131,17.0536 L 27.6884,16.9123 L 27.5729,16.7634 L 27.467,16.6075 L 27.3711,16.4453 L 27.2855,16.2773
 L 27.2107,16.1044 L 27.1468,15.927 L 27.0942,15.7461 L 27.0531,15.5621 L 27.0237,15.376 L 27.0059,15.1884
 L 27,15 L 27.0059,14.8116 L 27.0237,14.624 L 27.0531,14.4379 L 27.0942,14.2539 L 27.1468,14.0729
 L 27.2107,13.8956 L 27.2855,13.7227 L 27.3711,13.5547 L 27.467,13.3925 L 27.5729,13.2366 L 27.6884,13.0877
 L 27.8131,12.9464 L 27.9464,12.8131 L 28.0877,12.6884 L 28.2366,12.5729 L 28.3925,12.467 L 28.5547,12.3711
 L 28.7227,12.2855 L 28.8956,12.2107 L 29.0729,12.1468 L 29.2539,12.0942 L 29.4379,12.0531 L 29.624,12.0237
 L 29.8116,12.0059 L 30,12 L 30.1884,12.0059 L 30.376,12.0237 L 30.5621,12.0531 L 30.7461,12.0942
 L 30.927,12.1468 L 31.1044,12.2107 L 31.2773,12.2855 L 31.4453,12.3711 L 31.6075,12.467 L 31.7634,12.5729
 L 31.9123,12.6884 L 32.0536,12.8131 L 32.1869,12.9464 L 32.3115,13.0877 L 32.427,13.2366 L 32.533,13.3925
 L 32.6289,13.5547 L 32.7145,13.7227 L 32.7893,13.8956 L 32.8532,14.0729 L 32.9057,14.2539 L 32.9469,14.4379
 L 32.9763,14.624 L 32.9941,14.8116 L 33,15 L 32.9941,15.1884 L 32.9763,15.376 L 32.9469,15.5621
 L 32.9057,15.7461 L 32.8532,15.927 L 32.7893,16.1044 L 32.7145,16.2773 L 32.6289,16.4453 L 32.533,16.6075
 L 32.427,16.7634 L 32.3115,16.9123 L 32.1869,17.0536 L 32.0536,17.1869 L 31.9123,17.3115 L 31.7634,17.427
 L 31.6075,17.533 L 31.4453,17.6289 L 31.2773,17.7145 L 31.1044,17.7893 L 30.927,17.8532 L 30.7461,17.9057
 L 30.5621,17.9469 L 30.376,17.9763 L 30.1884,17.9941 L 30,18 z
M 14.8116,17.9941 L 14.624,17.9763 L 14.4379,17.9469 L 14.2539,17.9057 L 14.0729,17.8532 L 13.8956,17.7893
 L 13.7227,17.7145 L 13.5547,17.6289 L 13.3925,17.533 L 13.2366,17.427 L 13.0877,17.3115 L 12.9464,17.1869
 L 12.8131,17.0536 L 12.6884,16.9123 L 12.5729,16.7634 L 12.467,16.6075 L 12.3711,16.4453 L 12.2855,16.2773
 L 12.2107,16.1044 L 12.1468,15.927 L 12.0942,15.7461 L 12.0531,15.5621 L 12.0237,15.376 L 12.0059,15.1884
 L 12,15 L 12.0059,14.8116 L 12.0237,14.624 L 12.0531,14.4379 L 12.0942,14.2539 L 12.1468,14.0729
 L 12.2107,13.8956 L 12.2855,13.7227 L 12.3711,13.5547 L 12.467,13.3925 L 12.5729,13.2366 L 12.6884,13.0877
 L 12.8131,12.9464 L 12.9464,12.8131 L 13.0877,12.6884 L 13.2366,12.5729 L 13.3925,12.467 L 13.5547,12.3711
 L 13.7227,12.2855 L 13.8956,12.2107 L 14.0729,12.1468 L 14.2539,12.0942 L 14.4379,12.0531 L 14.624,12.0237
 L 14.8116,12.0059 L 15,12 L 15.1884,12.0059 L 15.376,12.0237 L 15.5621,12.0531 L 15.7461,12.0942
 L 15.927,12.1468 L 16.1044,12.2107 L 16.2773,12.2855 L 16.4453,12.3711 L 16.6075,12.467 L 16.7634,12.5729
 L 16.9123,12.6884 L 17.0536,12.8131 L 17.1869,12.9464 L 17.3115,13.0877 L 17.427,13.2366 L 17.533,13.3925
 L 17.6289,13.5547 L 17.7145,13.7227 L 17.7893,13.8956 L 17.8532,14.0729 L 17.9057,14.2539 L 17.9469,14.4379
 L 17.9763,14.624 L 17.9941,14.8116 L 18,15 L 17.9941,15.1884 L 17.9763,15.376 L 17.9469,15.5621
 L 17.9057,15.7461 L 17.8532,15.927 L 17.7893,16.1044 L 17.7145,16.2773 L 17.6289,16.4453 L 17.533,16.6075
 L 17.427,16.7634 L 17.3115,16.9123 L 17.1869,17.0536 L 17.0536,17.1869 L 16.9123,17.3115 L 16.7634,17.427
 L 16.6075,17.533 L 16.4453,17.6289 L 16.2773,17.7145 L 16.1044,17.7893 L 15.927,17.8532 L 15.7461,17.9057
 L 15.5621,17.9469 L 15.376,17.9763 L 15.1884,17.9941 L 15,18 z
M 12.467,31.6075 L 12.3711,31.4453 L 12.2855,31.2773 L 12.2107,31.1044 L 12.1468,30.927 L 12.0942,30.7461
 L 12.0531,30.5621 L 12.0237,30.376 L 12.0059,30.1884 L 12,30 L 12.0059,29.8116 L 12.0237,29.624
 L 12.0531,29.4379 L 12.0942,29.2539 L 12.1468,29.0729 L 12.2107,28.8956 L 12.2855,28.7227 L 12.3711,28.5547
 L 12.467,28.3925 L 12.5729,28.2366 L 12.6884,28.0877 L 12.8131,27.9464 L 12.9464,27.8131 L 13.0877,27.6884
 L 13.2366,27.5729 L 13.3925,27.467 L 13.5547,27.3711 L 13.7227,27.2855 L 13.8956,27.2107 L 14.0729,27.1468
 L 14.2539,27.0942 L 14.4379,27.0531 L 14.624,27.0237 L 14.8116,27.0059 L 15,27 L 15.1884,27.0059
 L 15.376,27.0237 L 15.5621,27.0531 L 15.7461,27.0942 L 15.927,27.1468 L 16.1044,27.2107 L 16.2773,27.2855
 L 16.4453,27.3711 L 16.6075,27.467 L 16.7634,27.5729 L 16.9123,27.6884 L 17.0536,27.8131 L 17.1869,27.9464
 L 17.3115,28.0877 L 17.427,28.2366 L 17.533,28.3925 L 17.6289,28.5547 L 17.7145,28.7227 L 17.7893,28.8956
 L 17.8532,29.0729 L 17.9057,29.2539 L 17.9469,29.4379 L 17.9763,29.624 L 17.9941,29.8116 L 18,30
 L 17.9941,30.1884 L 17.9763,30.376 L 17.9469,30.5621 L 17.9057,30.7461 L 17.8532,30.927 L 17.7893,31.1044
 L 17.7145,31.2773 L 17.6289,31.4453 L 17.533,31.6075 L 17.427,31.7634 L 17.3115,31.9123 L 17.1869,32.0536
 L 17.0536,32.1869 L 16.9123,32.3115 L 16.7634,32.427 L 16.6075,32.533 L 16.4453,32.6289 L 16.2773,32.7145
 L 16.1044,32.7893 L 15.927,32.8532 L 15.7461,32.9057 L 15.5621,32.9469 L 15.376,32.9763 L 15.1884,32.9941
 L 15,33 L 14.8116,32.9941 L 14.624,32.9763 L 14.4379,32.9469 L 14.2539,32.9057 L 14.0729,32.8532
 L 13.8956,32.7893 L 13.7227,32.7145 L 13.5547,32.6289 L 13.3925,32.533 L 13.2366,32.427 L 13.0877,32.3115
 L 12.9464,32.1869 L 12.8131,32.0536 L 12.6884,31.9123 L 12.5729,31.7634 z
M 29.8116,32.9941 L 29.624,32.9763 L 29.4379,32.9469 L 29.2539,32.9057 L 29.0729,32.8532 L 28.8956,32.7893
 L 28.7227,32.7145 L 28.5547,32.6289 L 28.3925,32.533 L 28.2366,32.427 L 28.0877,32.3115 L 27.9464,32.1869
 L 27.8131,32.0536 L 27.6884,31.9123 L 27.5729,31.7634 L 27.467,31.6075 L 27.3711,31.4453 L 27.2855,31.2773
 L 27.2107,31.1044 L 27.1468,30.927 L 27.0942,30.7461 L 27.0531,30.5621 L 27.0237,30.376 L 27.0059,30.1884
 L 27,30 L 27.0059,29.8116 L 27.0237,29.624 L 27.0531,29.4379 L 27.0942,29.2539 L 27.1468,29.0729
 L 27.2107,28.8956 L 27.2855,28.7227 L 27.3711,28.5547 L 27.467,28.3925 L 27.5729,28.2366 L 27.6884,28.0877
 L 27.8131,27.9464 L 27.9464,27.8131 L 28.0877,27.6884 L 28.2366,27.5729 L 28.3925,27.467 L 28.5547,27.3711
 L 28.7227,27.2855 L 28.8956,27.2107 L 29.0729,27.1468 L 29.2539,27.0942 L 29.4379,27.0531 L 29.624,27.0237
 L 29.8116,27.0059 L 30,27 L 30.1884,27.0059 L 30.376,27.0237 L 30.5621,27.0531 L 30.7461,27.0942
 L 30.927,27.1468 L 31.1044,27.2107 L 31.2773,27.2855 L 31.4453,27.3711 L 31.6075,27.467 L 31.7634,27.5729
 L 31.9123,27.6884 L 32.0536,27.8131 L 32.1869,27.9464 L 32.3115,28.0877 L 32.427,28.2366 L 32.533,28.3925
 L 32.6289,28.5547 L 32.7145,28.7227 L 32.7893,28.8956 L 32.8532,29.0729 L 32.9057,29.2539 L 32.9469,29.4379
 L 32.9763,29.624 L 32.9941,29.8116 L 33,30 L 32.9941,30.1884 L 32.9763,30.376 L 32.9469,30.5621
 L 32.9057,30.7461 L 32.8532,30.927 L 32.7893,31.1044 L 32.7145,31.2773 L 32.6289,31.4453 L 32.533,31.6075
 L 32.427,31.7634 L 32.3115,31.9123 L 32.1869,32.0536 L 32.0536,32.1869 L 31.9123,32.3115 L 31.7634,32.427
 L 31.6075,32.533 L 31.4453,32.6289 L 31.2773,32.7145 L 31.1044,32.7893 L 30.927,32.8532 L 30.7461,32.9057
 L 30.5621,32.9469 L 30.376,32.9763 L 30.1884,32.9941 L 30,33 z
M 44.8116,32.9941 L 44.624,32.9763 L 44.4379,32.9469 L 44.2539,32.9057 L 44.0729,32.8532 L 43.8956,32.7893
 L 43.7227,32.7145 L 43.5547,32.6289 L 43.3925,32.533 L 43.2366,32.427 L 43.0877,32.3115 L 42.9464,32.1869
 L 42.8131,32.0536 L 42.6885,31.9123 L 42.5729,31.7634 L 42.467,31.6075 L 42.3711,31.4453 L 42.2855,31.2773
 L 42.2107,31.1044 L 42.1468,30.927 L 42.0942,30.7461 L 42.0531,30.5621 L 42.0237,30.376 L 42.0059,30.1884
 L 42,30 L 42.0059,29.8116 L 42.0237,29.624 L 42.0531,29.4379 L 42.0942,29.2539 L 42.1468,29.0729
 L 42.2107,28.8956 L 42.2855,28.7227 L 42.3711,28.5547 L 42.467,28.3925 L 42.5729,28.2366 L 42.6885,28.0877
 L 42.8131,27.9464 L 42.9464,27.8131 L 43.0877,27.6884 L 43.2366,27.5729 L 43.3925,27.467 L 43.5547,27.3711
 L 43.7227,27.2855 L 43.8956,27.2107 L 44.0729,27.1468 L 44.2539,27.0942 L 44.4379,27.0531 L 44.624,27.0237
 L 44.8116,27.0059 L 45,27 L 45.1884,27.0059 L 45.376,27.0237 L 45.5621,27.0531 L 45.7461,27.0942
 L 45.927,27.1468 L 46.1044,27.2107 L 46.2773,27.2855 L 46.4453,27.3711 L 46.6075,27.467 L 46.7634,27.5729
 L 46.9123,27.6884 L 47.0536,27.8131 L 47.1869,27.9464 L 47.3115,28.0877 L 47.427,28.2366 L 47.533,28.3925
 L 47.6289,28.5547 L 47.7145,28.7227 L 47.7893,28.8956 L 47.8532,29.0729 L 47.9057,29.2539 L 47.9469,29.4379
 L 47.9763,29.624 L 47.9941,29.8116 L 48,30 L 47.9941,30.1884 L 47.9763,30.376 L 47.9469,30.5621
 L 47.9057,30.7461 L 47.8532,30.927 L 47.7893,31.1044 L 47.7145,31.2773 L 47.6289,31.4453 L 47.533,31.6075
 L 47.427,31.7634 L 47.3115,31.9123 L 47.1869,32.0536 L 47.0536,32.1869 L 46.9123,32.3115 L 46.7634,32.427
 L 46.6075,32.533 L 46.4453,32.6289 L 46.2773,32.7145 L 46.1044,32.7893 L 45.927,32.8532 L 45.7461,32.9057
 L 45.5621,32.9469 L 45.376,32.9763 L 45.1884,32.9941 L 45,33 z
M -31.9123,27.6884 L -31.7634,27.5729 L -31.6075,27.467 L -31.4453,27.3711 L -31.2773,27.2855 L -31.1044,27.2107
 L -30.927,27.1468 L -30.7461,27.0942 L -30.5621,27.0531 L -30.376,27.0237 L -30.1884,27.0059 L -30,27
 L -29.8116,27.0059 L -29.624,27.0237 L -29.4379,27.0531 L -29.2539,27.0942 L -29.0729,27.1468 L -28.8956,27.2107
 L -28.7227,27.2855 L -28.5547,27.3711 L -28.3925,27.467 L -28.2366,27.5729 L -28.0877,27.6884 L -27.9464,27.8131
 L -27.8131,27.9464 L -27.6884,28.0877 L -27.5729,28.2366 L -27.467,28.3925 L -27.3711,28.5547 L -27.2855,28.7227
 L -27.2107,28.8956 L -27.1468,29.0729 L -27.0942,29.2539 L -27.0531,29.4379 L -27.0237,29.624 L -27.0059,29.8116
 L -27,30 L -27.0059,30.1884 L -27.0237,30.376 L -27.0531,30.5621 L -27.0942,30.7461 L -27.1468,30.927
 L -27.2107,31.1044 L -27.2855,31.2773 L -27.3711,31.4453 L -27.467,31.6075 L -27.5729,31.7634 L -27.6884,31.9123
 L -27.8131,32.0536 L -27.9464,32.1869 L -28.0877,32.3115 L -28.2366,32.427 L -28.3925,32.533 L -28.5547,32.6289
 L -28.7227,32.7145 L -28.8956,32.7893 L -29.0729,32.8532 L -29.2539,32.9057 L -29.4379,32.9469 L -29.624,32.9763
 L -29.8116,32.9941 L -30,33 L -30.1884,32.9941 L -30.376,32.9763 L -30.5621,32.9469 L -30.7461,32.9057
 L -30.927,32.8532 L -31.1044,32.7893 L -31.2773,32.7145 L -31.4453,32.6289 L -31.6075,32.533 L -31.7634,32.427
 L -31.9123,32.3115 L -32.0536,32.1869 L -32.1869,32.0536 L -32.3115,31.9123 L -32.427,31.7634 L -32.533,31.6075
 L -32.6289,31.4453 L -32.7145,31.2773 L -32.7893,31.1044 L -32.8532,30.927 L -32.9057,30.7461 L -32.9469,30.5621
 L -32.9763,30.376 L -32.9941,30.1884 L -33,30 L -32.9941,29.8116 L -32.9763,29.624 L -32.9469,29.4379
 L -32.9057,29.2539 L -32.8532,29.0729 L -32.7893,28.8956 L -32.7145,28.7227 L -32.6289,28.5547 L -32.533,28.3925
 L -32.427,28.2366 L -32.3115,28.0877 L -32.1869,27.9464 L -32.0536,27.8131 z
M -15.1884,32.9941 L -15.376,32.9763 L -15.5621,32.9469 L -15.7461,32.9057 L -15.927,32.8532 L -16.1044,32.7893
 L -16.2773,32.7145 L -16.4453,32.6289 L -16.6075,32.533 L -16.7634,32.427 L -16.9123,32.3115 L -17.0536,32.1869
 L -17.1869,32.0536 L -17.3115,31.9123 L -17.427,31.7634 L -17.533,31.6075 L -17.6289,31.4453 L -17.7145,31.2773
 L -17.7893,31.1044 L -17.8532,30.927 L -17.9057,30.7461 L -17.9469,30.5621 L -17.9763,30.376 L -17.9941,30.1884
 L -18,30 L -17.9941,29.8116 L -17.9763,29.624 L -17.9469,29.4379 L -17.9057,29.2539 L -17.8532,29.0729
 L -17.7893,28.8956 L -17.7145,28.7227 L -17.6289,28.5547 L -17.533,28.3925 L -17.427,28.2366 L -17.3115,28.0877
 L -17.1869,27.9464 L -17.0536,27.8131 L -16.9123,27.6884 L -16.7634,27.5729 L -16.6075,27.467 L -16.4453,27.3711
 L -16.2773,27.2855 L -16.1044,27.2107 L -15.927,27.1468 L -15.7461,27.0942 L -15.5621,27.0531 L -15.376,27.0237
 L -15.1884,27.0059 L -15,27 L -14.8116,27.0059 L -14.624,27.0237 L -14.4379,27.0531 L -14.2539,27.0942
 L -14.0729,27.1468 L -13.8956,27.2107 L -13.7227,27.2855 L -13.5547,27.3711 L -13.3925,27.467 L -13.2366,27.5729
 L -13.0877,27.6884 L -12.9464,27.8131 L -12.8131,27.9464 L -12.6884,28.0877 L -12.5729,28.2366 L -12.467,28.3925
 L -12.3711,28.5547 L -12.2855,28.7227 L -12.2107,28.8956 L -12.1468,29.0729 L -12.0942,29.2539 L -12.0531,29.4379
 L -12.0237,29.624 L -12.0059,29.8116 L -12,30 L -12.0059,30.1884 L -12.0237,30.376 L -12.0531,30.5621
 L -12.0942,30.7461 L -12.1468,30.927 L -12.2107,31.1044 L -12.2855,31.2773 L -12.3711,31.4453 L -12.467,31.6075
 L -12.5729,31.7634 L -12.6884,31.9123 L -12.8131,32.0536 L -12.9464,32.1869 L -13.0877,32.3115 L -13.2366,32.427
 L -13.3925,32.533 L -13.5547,32.6289 L -13.7227,32.7145 L -13.8956,32.7893 L -14.0729,32.8532 L -14.2539,32.9057
 L -14.4379,32.9469 L -14.624,32.9763 L -14.8116,32.9941 L -15,33 z
M -0.18837,47.9941 L -0.375992,47.9763 L -0.562134,47.9469 L -0.746063,47.9057 L -0.927048,47.8532 L -1.10437,47.7893
 L -1.27733,47.7145 L -1.44525,47.6289 L -1.60747,47.533 L -1.76335,47.427 L -1.91226,47.3115 L -2.05363,47.1869
 L -2.1869,47.0536 L -2.31154,46.9123 L -2.42705,46.7634 L -2.53297,46.6075 L -2.62891,46.4453 L -2.71448,46.2773
 L -2.78932,46.1044 L -2.85316,45.927 L -2.90575,45.7461 L -2.94685,45.5621 L -2.97633,45.376 L -2.99408,45.1884
 L -3,45 L -2.99408,44.8116 L -2.97633,44.624 L -2.94685,44.4379 L -2.90575,44.2539 L -2.85316,44.0729
 L -2.78932,43.8956 L -2.71448,43.7227 L -2.62891,43.5547 L -2.53297,43.3925 L -2.42705,43.2366 L -2.31154,43.0877
 L -2.1869,42.9464 L -2.05363,42.8131 L -1.91226,42.6885 L -1.76335,42.5729 L -1.60747,42.467 L -1.44525,42.3711
 L -1.27733,42.2855 L -1.10437,42.2107 L -0.927048,42.1468 L -0.746063,42.0942 L -0.562134,42.0531 L -0.375992,42.0237
 L -0.18837,42.0059 L 0,42 L 0.18837,42.0059 L 0.375992,42.0237 L 0.562134,42.0531 L 0.746063,42.0942
 L 0.927048,42.1468 L 1.10437,42.2107 L 1.27733,42.2855 L 1.44525,42.3711 L 1.60747,42.467 L 1.76335,42.5729
 L 1.91226,42.6885 L 2.05363,42.8131 L 2.1869,42.9464 L 2.31154,43.0877 L 2.42705,43.2366 L 2.53297,43.3925
 L 2.62891,43.5547 L 2.71448,43.7227 L 2.78932,43.8956 L 2.85316,44.0729 L 2.90575,44.2539 L 2.94685,44.4379
 L 2.97633,44.624 L 2.99408,44.8116 L 3,45 L 2.99408,45.1884 L 2.97633,45.376 L 2.94685,45.5621
 L 2.90575,45.7461 L 2.85316,45.927 L 2.78932,46.1044 L 2.71448,46.2773 L 2.62891,46.4453 L 2.53297,46.6075
 L 2.42705,46.7634 L 2.31154,46.9123 L 2.1869,47.0536 L 2.05363,47.1869 L 1.91226,47.3115 L 1.76335,47.427
 L 1.60747,47.533 L 1.44525,47.6289 L 1.27733,47.7145 L 1.10437,47.7893 L 0.927048,47.8532 L 0.746063,47.9057
 L 0.562134,47.9469 L 0.375992,47.9763 L 0.18837,47.9941 L 0,48 z
M 44.8116,47.9941 L 44.624,47.9763 L 44.4379,47.9469 L 44.2539,47.9057 L 44.0729,47.8532 L 43.8956,47.7893
 L 43.7227,47.7145 L 43.5547,47.6289 L 43.3925,47.533 L 43.2366,47.427 L 43.0877,47.3115 L 42.9464,47.1869
 L 42.8131,47.0536 L 42.6885,46.9123 L 42.5729,46.7634 L 42.467,46.6075 L 42.3711,46.4453 L 42.2855,46.2773
 L 42.2107,46.1044 L 42.1468,45.927 L 42.0942,45.7461 L 42.0531,45.5621 L 42.0237,45.376 L 42.0059,45.1884
 L 42,45 L 42.0059,44.8116 L 42.0237,44.624 L 42.0531,44.4379 L 42.0942,44.2539 L 42.1468,44.0729
 L 42.2107,43.8956 L 42.2855,43.7227 L 42.3711,43.5547 L 42.467,43.3925 L 42.5729,43.2366 L 42.6885,43.0877
 L 42.8131,42.9464 L 42.9464,42.8131 L 43.0877,42.6885 L 43.2366,42.5729 L 43.3925,42.467 L 43.5547,42.3711
 L 43.7227,42.2855 L 43.8956,42.2107 L 44.0729,42.1468 L 44.2539,42.0942 L 44.4379,42.0531 L 44.624,42.0237
 L 44.8116,42.0059 L 45,42 L 45.1884,42.0059 L 45.376,42.0237 L 45.5621,42.0531 L 45.7461,42.0942
 L 45.927,42.1468 L 46.1044,42.2107 L 46.2773,42.2855 L 46.4453,42.3711 L 46.6075,42.467 L 46.7634,42.5729
 L 46.9123,42.6885 L 47.0536,42.8131 L 47.1869,42.9464 L 47.3115,43.0877 L 47.427,43.2366 L 47.533,43.3925
 L 47.6289,43.5547 L 47.7145,43.7227 L 47.7893,43.8956 L 47.8532,44.0729 L 47.9057,44.2539 L 47.9469,44.4379
 L 47.9763,44.624 L 47.9941,44.8116 L 48,45 L 47.9941,45.1884 L 47.9763,45.376 L 47.9469,45.5621
 L 47.9057,45.7461 L 47.8532,45.927 L 47.7893,46.1044 L 47.7145,46.2773 L 47.6289,46.4453 L 47.533,46.6075
 L 47.427,46.7634 L 47.3115,46.9123 L 47.1869,47.0536 L 47.0536,47.1869 L 46.9123,47.3115 L 46.7634,47.427
 L 46.6075,47.533 L 46.4453,47.6289 L 46.2773,47.7145 L 46.1044,47.7893 L 45.927,47.8532 L 45.7461,47.9057
 L 45.5621,47.9469 L 45.376,47.9763 L 45.1884,47.9941 L 45,48 z
M 28.0877,42.6885 L 28.2366,42.5729 L 28.3925,42.467 L 28.5547,42.3711 L 28.7227,42.2855 L 28.8956,42.2107
 L 29.0729,42.1468 L 29.2539,42.0942 L 29.4379,42.0531 L 29.624,42.0237 L 29.8116,42.0059 L 30,42
 L 30.1884,42.0059 L 30.376,42.0237 L 30.5621,42.0531 L 30.7461,42.0942 L 30.927,42.1468 L 31.1044,42.2107
 L 31.2773,42.2855 L 31.4453,42.3711 L 31.6075,42.467 L 31.7634,42.5729 L 31.9123,42.6885 L 32.0536,42.8131
 L 32.1869,42.9464 L 32.3115,43.0877 L 32.427,43.2366 L 32.533,43.3925 L 32.6289,43.5547 L 32.7145,43.7227
 L 32.7893,43.8956 L 32.8532,44.0729 L 32.9057,44.2539 L 32.9469,44.4379 L 32.9763,44.624 L 32.9941,44.8116
 L 33,45 L 32.9941,45.1884 L 32.9763,45.376 L 32.9469,45.5621 L 32.9057,45.7461 L 32.8532,45.927
 L 32.7893,46.1044 L 32.7145,46.2773 L 32.6289,46.4453 L 32.533,46.6075 L 32.427,46.7634 L 32.3115,46.9123
 L 32.1869,47.0536 L 32.0536,47.1869 L 31.9123,47.3115 L 31.7634,47.427 L 31.6075,47.533 L 31.4453,47.6289
 L 31.2773,47.7145 L 31.1044,47.7893 L 30.927,47.8532 L 30.7461,47.9057 L 30.5621,47.9469 L 30.376,47.9763
 L 30.1884,47.9941 L 30,48 L 29.8116,47.9941 L 29.624,47.9763 L 29.4379,47.9469 L 29.2539,47.9057
 L 29.0729,47.8532 L 28.8956,47.7893 L 28.7227,47.7145 L 28.5547,47.6289 L 28.3925,47.533 L 28.2366,47.427
 L 28.0877,47.3115 L 27.9464,47.1869 L 27.8131,47.0536 L 27.6884,46.9123 L 27.5729,46.7634 L 27.467,46.6075
 L 27.3711,46.4453 L 27.2855,46.2773 L 27.2107,46.1044 L 27.1468,45.927 L 27.0942,45.7461 L 27.0531,45.5621
 L 27.0237,45.376 L 27.0059,45.1884 L 27,45 L 27.0059,44.8116 L 27.0237,44.624 L 27.0531,44.4379
 L 27.0942,44.2539 L 27.1468,44.0729 L 27.2107,43.8956 L 27.2855,43.7227 L 27.3711,43.5547 L 27.467,43.3925
 L 27.5729,43.2366 L 27.6884,43.0877 L 27.8131,42.9464 L 27.9464,42.8131 z
M -15.1884,47.9941 L -15.376,47.9763 L -15.5621,47.9469 L -15.7461,47.9057 L -15.927,47.8532 L -16.1044,47.7893
 L -16.2773,47.7145 L -16.4453,47.6289 L -16.6075,47.533 L -16.7634,47.427 L -16.9123,47.3115 L -17.0536,47.1869
 L -17.1869,47.0536 L -17.3115,46.9123 L -17.427,46.7634 L -17.533,46.6075 L -17.6289,46.4453 L -17.7145,46.2773
 L -17.7893,46.1044 L -17.8532,45.927 L -17.9057,45.7461 L -17.9469,45.5621 L -17.9763,45.376 L -17.9941,45.1884
 L -18,45 L -17.9941,44.8116 L -17.9763,44.624 L -17.9469,44.4379 L -17.9057,44.2539 L -17.8532,44.0729
 L -17.7893,43.8956 L -17.7145,43.7227 L -17.6289,43.5547 L -17.533,43.3925 L -17.427,43.2366 L -17.3115,43.0877
 L -17.1869,42.9464 L -17.0536,42.8131 L -16.9123,42.6885 L -16.7634,42.5729 L -16.6075,42.467 L -16.4453,42.3711
 L -16.2773,42.2855 L -16.1044,42.2107 L -15.927,42.1468 L -15.7461,42.0942 L -15.5621,42.0531 L -15.376,42.0237
 L -15.1884,42.0059 L -15,42 L -14.8116,42.0059 L -14.624,42.0237 L -14.4379,42.0531 L -14.2539,42.0942
 L -14.0729,42.1468 L -13.8956,42.2107 L -13.7227,42.2855 L -13.5547,42.3711 L -13.3925,42.467 L -13.2366,42.5729
 L -13.0877,42.6885 L -12.9464,42.8131 L -12.8131,42.9464 L -12.6884,43.0877 L -12.5729,43.2366 L -12.467,43.3925
 L -12.3711,43.5547 L -12.2855,43.7227 L -12.2107,43.8956 L -12.1468,44.0729 L -12.0942,44.2539 L -12.0531,44.4379
 L -12.0237,44.624 L -12.0059,44.8116 L -12,45 L -12.0059,45.1884 L -12.0237,45.376 L -12.0531,45.5621
 L -12.0942,45.7461 L -12.1468,45.927 L -12.2107,46.1044 L -12.2855,46.2773 L -12.3711,46.4453 L -12.467,46.6075
 L -12.5729,46.7634 L -12.6884,46.9123 L -12.8131,47.0536 L -12.9464,47.1869 L -13.0877,47.3115 L -13.2366,47.427
 L -13.3925,47.533 L -13.5547,47.6289 L -13.7227,47.7145 L -13.8956,47.7893 L -14.0729,47.8532 L -14.2539,47.9057
 L -14.4379,47.9469 L -14.624,47.9763 L -14.8116,47.9941 L -15,48 z
M -30.1884,47.9941 L -30.376,47.9763 L -30.5621,47.9469 L -30.7461,47.9057 L -30.927,47.8532 L -31.1044,47.7893
 L -31.2773,47.7145 L -31.4453,47.6289 L -31.6075,47.533 L -31.7634,47.427 L -31.9123,47.3115 L -32.0536,47.1869
 L -32.1869,47.0536 L -32.3115,46.9123 L -32.427,46.7634 L -32.533,46.6075 L -32.6289,46.4453 L -32.7145,46.2773
 L -32.7893,46.1044 L -32.8532,45.927 L -32.9057,45.7461 L -32.9469,45.5621 L -32.9763,45.376 L -32.9941,45.1884
 L -33,45 L -32.9941,44.8116 L -32.9763,44.624 L -32.9469,44.4379 L -32.9057,44.2539 L -32.8532,44.0729
 L -32.7893,43.8956 L -32.7145,43.7227 L -32.6289,43.5547 L -32.533,43.3925 L -32.427,43.2366 L -32.3115,43.0877
 L -32.1869,42.9464 L -32.0536,42.8131 L -31.9123,42.6885 L -31.7634,42.5729 L -31.6075,42.467 L -31.4453,42.3711
 L -31.2773,42.2855 L -31.1044,42.2107 L -30.927,42.1468 L -30.7461,42.0942 L -30.5621,42.0531 L -30.376,42.0237
 L -30.1884,42.0059 L -30,42 L -29.8116,42.0059 L -29.624,42.0237 L -29.4379,42.0531 L -29.2539,42.0942
 L -29.0729,42.1468 L -28.8956,42.2107 L -28.7227,42.2855 L -28.5547,42.3711 L -28.3925,42.467 L -28.2366,42.5729
 L -28.0877,42.6885 L -27.9464,42.8131 L -27.8131,42.9464 L -27.6884,43.0877 L -27.5729,43.2366 L -27.467,43.3925
 L -27.3711,43.5547 L -27.2855,43.7227 L -27.2107,43.8956 L -27.1468,44.0729 L -27.0942,44.2539 L -27.0531,44.4379
 L -27.0237,44.624 L -27.0059,44.8116 L -27,45 L -27.0059,45.1884 L -27.0237,45.376 L -27.0531,45.5621
 L -27.0942,45.7461 L -27.1468,45.927 L -27.2107,46.1044 L -27.2855,46.2773 L -27.3711,46.4453 L -27.467,46.6075
 L -27.5729,46.7634 L -27.6884,46.9123 L -27.8131,47.0536 L -27.9464,47.1869 L -28.0877,47.3115 L -28.2366,47.427
 L -28.3925,47.533 L -28.5547,47.6289 L -28.7227,47.7145 L -28.8956,47.7893 L -29.0729,47.8532 L -29.2539,47.9057
 L -29.4379,47.9469 L -29.624,47.9763 L -29.8116,47.9941 L -30,48 z
M -45.1884,47.9941 L -45.376,47.9763 L -45.5621,47.9469 L -45.7461,47.9057 L -45.927,47.8532 L -46.1044,47.7893
 L -46.2773,47.7145 L -46.4453,47.6289 L -46.6075,47.533 L -46.7634,47.427 L -46.9123,47.3115 L -47.0536,47.1869
 L -47.1869,47.0536 L -47.3115,46.9123 L -47.427,46.7634 L -47.533,46.6075 L -47.6289,46.4453 L -47.7145,46.2773
 L -47.7893,46.1044 L -47.8532,45.927 L -47.9057,45.7461 L -47.9469,45.5621 L -47.9763,45.376 L -47.9941,45.1884
 L -48,45 L -47.9941,44.8116 L -47.9763,44.624 L -47.9469,44.4379 L -47.9057,44.2539 L -47.8532,44.0729
 L -47.7893,43.8956 L -47.7145,43.7227 L -47.6289,43.5547 L -47.533,43.3925 L -47.427,43.2366 L -47.3115,43.0877
 L -47.1869,42.9464 L -47.0536,42.8131 L -46.9123,42.6885 L -46.7634,42.5729 L -46.6075,42.467 L -46.4453,42.3711
 L -46.2773,42.2855 L -46.1044,42.2107 L -45.927,42.1468 L -45.7461,42.0942 L -45.5621,42.0531 L -45.376,42.0237
 L -45.1884,42.0059 L -45,42 L -44.8116,42.0059 L -44.624,42.0237 L -44.4379,42.0531 L -44.2539,42.0942
 L -44.0729,42.1468 L -43.8956,42.2107 L -43.7227,42.2855 L -43.5547,42.3711 L -43.3925,42.467 L -43.2366,42.5729
 L -43.0877,42.6885 L -42.9464,42.8131 L -42.8131,42.9464 L -42.6885,43.0877 L -42.5729,43.2366 L -42.467,43.3925
 L -42.3711,43.5547 L -42.2855,43.7227 L -42.2107,43.8956 L -42.1468,44.0729 L -42.0942,44.2539 L -42.0531,44.4379
 L -42.0237,44.624 L -42.0059,44.8116 L -42,45 L -42.0059,45.1884 L -42.0237,45.376 L -42.0531,45.5621
 L -42.0942,45.7461 L -42.1468,45.927 L -42.2107,46.1044 L -42.2855,46.2773 L -42.3711,46.4453 L -42.467,46.6075
 L -42.5729,46.7634 L -42.6885,46.9123 L -42.8131,47.0536 L -42.9464,47.1869 L -43.0877,47.3115 L -43.2366,47.427
 L -43.3925,47.533 L -43.5547,47.6289 L -43.7227,47.7145 L -43.8956,47.7893 L -44.0729,47.8532 L -44.2539,47.9057
 L -44.4379,47.9469 L -44.624,47.9763 L -44.8116,47.9941 L -45,48 z
M 17.0536,-42.8131 L 16.9123,-42.6885 L 16.7634,-42.5729 L 16.6075,-42.467 L 16.4453,-42.3711 L 16.2773,-42.2855
 L 16.1044,-42.2107 L 15.927,-42.1468 L 15.7461,-42.0942 L 15.5621,-42.0531 L 15.376,-42.0237 L 15.1884,-42.0059
 L 15,-42 L 14.8116,-42.0059 L 14.624,-42.0237 L 14.4379,-42.0531 L 14.2539,-42.0942 L 14.0729,-42.1468
 L 13.8956,-42.2107 L 13.7227,-42.2855 L 13.5547,-42.3711 L 13.3925,-42.467 L 13.2366,-42.5729 L 13.0877,-42.6885
 L 12.9464,-42.8131 L 12.8131,-42.9464 L 12.6884,-43.0877 L 12.5729,-43.2366 L 12.467,-43.3925 L 12.3711,-43.5547
 L 12.2855,-43.7227 L 12.2107,-43.8956 L 12.1468,-44.0729 L 12.0942,-44.2539 L 12.0531,-44.4379 L 12.0237,-44.624
 L 12.0059,-44.8116 L 12,-45 L 12.0059,-45.1884 L 12.0237,-45.376 L 12.0531,-45.5621 L 12.0942,-45.7461
 L 12.1468,-45.927 L 12.2107,-46.1044 L 12.2855,-46.2773 L 12.3711,-46.4453 L 12.467,-46.6075 L 12.5729,-46.7634
 L 12.6884,-46.9123 L 12.8131,-47.0536 L 12.9464,-47.1869 L 13.0877,-47.3115 L 13.2366,-47.427 L 13.3925,-47.533
 L 13.5547,-47.6289 L 13.7227,-47.7145 L 13.8956,-47.7893 L 14.0729,-47.8532 L 14.2539,-47.9057 L 14.4379,-47.9469
 L 14.624,-47.9763 L 14.8116,-47.9941 L 15,-48 L 15.1884,-47.9941 L 15.376,-47.9763 L 15.5621,-47.9469
 L 15.7461,-47.9057 L 15.927,-47.8532 L 16.1044,-47.7893 L 16.2773,-47.7145 L 16.4453,-47.6289 L 16.6075,-47.533
 L 16.7634,-47.427 L 16.9123,-47.3115 L 17.0536,-47.1869 L 17.1869,-47.0536 L 17.3115,-46.9123 L 17.427,-46.7634
 L 17.533,-46.6075 L 17.6289,-46.4453 L 17.7145,-46.2773 L 17.7893,-46.1044 L 17.8532,-45.927 L 17.9057,-45.7461
 L 17.9469,-45.5621 L 17.9763,-45.376 L 17.9941,-45.1884 L 18,-45 L 17.9941,-44.8116 L 17.9763,-44.624
 L 17.9469,-44.4379 L 17.9057,-44.2539 L 17.8532,-44.0729 L 17.7893,-43.8956 L 17.7145,-43.7227 L 17.6289,-43.5547
 L 17.533,-43.3925 L 17.427,-43.2366 L 17.3115,-43.0877 L 17.1869,-42.9464 z
M 1.91226,-42.6885 L 1.76335,-42.5729 L 1.60747,-42.467 L 1.44525,-42.3711 L 1.27733,-42.2855 L 1.10437,-42.2107
 L 0.927048,-42.1468 L 0.746063,-42.0942 L 0.562134,-42.0531 L 0.375992,-42.0237 L 0.18837,-42.0059 L 0,-42
 L -0.18837,-42.0059 L -0.375992,-42.0237 L -0.562134,-42.0531 L -0.746063,-42.0942 L -0.927048,-42.1468 L -1.10437,-42.2107
 L -1.27733,-42.2855 L -1.44525,-42.3711 L -1.60747,-42.467 L -1.76335,-42.5729 L -1.91226,-42.6885 L -2.05363,-42.8131
 L -2.1869,-42.9464 L -2.31154,-43.0877 L -2.42705,-43.2366 L -2.53297,-43.3925 L -2.62891,-43.5547 L -2.71448,-43.7227
 L -2.78932,-43.8956 L -2.85316,-44.0729 L -2.90575,-44.2539 L -2.94685,-44.4379 L -2.97633,-44.624 L -2.99408,-44.8116
 L -3,-45 L -2.99408,-45.1884 L -2.97633,-45.376 L -2.94685,-45.5621 L -2.90575,-45.7461 L -2.85316,-45.927
 L -2.78932,-46.1044 L -2.71448,-46.2773 L -2.62891,-46.4453 L -2.53297,-46.6075 L -2.42705,-46.7634 L -2.31154,-46.9123
 L -2.1869,-47.0536 L -2.05363,-47.1869 L -1.91226,-47.3115 L -1.76335,-47.427 L -1.60747,-47.533 L -1.44525,-47.6289
 L -1.27733,-47.7145 L -1.10437,-47.7893 L -0.927048,-47.8532 L -0.746063,-47.9057 L -0.562134,-47.9469 L -0.375992,-47.9763
 L -0.18837,-47.9941 L 0,-48 L 0.18837,-47.9941 L 0.375992,-47.9763 L 0.562134,-47.9469 L 0.746063,-47.9057
 L 0.927048,-47.8532 L 1.10437,-47.7893 L 1.27733,-47.7145 L 1.44525,-47.6289 L 1.60747,-47.533 L 1.76335,-47.427
 L 1.91226,-47.3115 L 2.05363,-47.1869 L 2.1869,-47.0536 L 2.31154,-46.9123 L 2.42705,-46.7634 L 2.53297,-46.6075
 L 2.62891,-46.4453 L 2.71448,-46.2773 L 2.78932,-46.1044 L 2.85316,-45.927 L 2.90575,-45.7461 L 2.94685,-45.5621
 L 2.97633,-45.376 L 2.99408,-45.1884 L 3,-45 L 2.99408,-44.8116 L 2.97633,-44.624 L 2.94685,-44.4379
 L 2.90575,-44.2539 L 2.85316,-44.0729 L 2.78932,-43.8956 L 2.71448,-43.7227 L 2.62891,-43.5547 L 2.53297,-43.3925
 L 2.42705,-43.2366 L 2.31154,-43.0877 L 2.1869,-42.9464 L 2.05363,-42.8131 z
M -42.9464,-12.8131 L -43.0877,-12.6884 L -43.2366,-12.5729 L -43.3925,-12.467 L -43.5547,-12.3711 L -43.7227,-12.2855
 L -43.8956,-12.2107 L -44.0729,-12.1468 L -44.2539,-12.0942 L -44.4379,-12.0531 L -44.624,-12.0237 L -44.8116,-12.0059
 L -45,-12 L -45.1884,-12.0059 L -45.376,-12.0237 L -45.5621,-12.0531 L -45.7461,-12.0942 L -45.927,-12.1468
 L -46.1044,-12.2107 L -46.2773,-12.2855 L -46.4453,-12.3711 L -46.6075,-12.467 L -46.7634,-12.5729 L -46.9123,-12.6884
 L -47.0536,-12.8131 L -47.1869,-12.9464 L -47.3115,-13.0877 L -47.427,-13.2366 L -47.533,-13.3925 L -47.6289,-13.5547
 L -47.7145,-13.7227 L -47.7893,-13.8956 L -47.8532,-14.0729 L -47.9057,-14.2539 L -47.9469,-14.4379 L -47.9763,-14.624
 L -47.9941,-14.8116 L -48,-15 L -47.9941,-15.1884 L -47.9763,-15.376 L -47.9469,-15.5621 L -47.9057,-15.7461
 L -47.8532,-15.927 L -47.7893,-16.1044 L -47.7145,-16.2773 L -47.6289,-16.4453 L -47.533,-16.6075 L -47.427,-16.7634
 L -47.3115,-16.9123 L -47.1869,-17.0536 L -47.0536,-17.1869 L -46.9123,-17.3115 L -46.7634,-17.427 L -46.6075,-17.533
 L -46.4453,-17.6289 L -46.2773,-17.7145 L -46.1044,-17.7893 L -45.927,-17.8532 L -45.7461,-17.9057 L -45.5621,-17.9469
 L -45.376,-17.9763 L -45.1884,-17.9941 L -45,-18 L -44.8116,-17.9941 L -44.624,-17.9763 L -44.4379,-17.9469
 L -44.2539,-17.9057 L -44.0729,-17.8532 L -43.8956,-17.7893 L -43.7227,-17.7145 L -43.5547,-17.6289 L -43.3925,-17.533
 L -43.2366,-17.427 L -43.0877,-17.3115 L -42.9464,-17.1869 L -42.8131,-17.0536 L -42.6885,-16.9123 L -42.5729,-16.7634
 L -42.467,-16.6075 L -42.3711,-16.4453 L -42.2855,-16.2773 L -42.2107,-16.1044 L -42.1468,-15.927 L -42.0942,-15.7461
 L -42.0531,-15.5621 L -42.0237,-15.376 L -42.0059,-15.1884 L -42,-15 L -42.0059,-14.8116 L -42.0237,-14.624
 L -42.0531,-14.4379 L -42.0942,-14.2539 L -42.1468,-14.0729 L -42.2107,-13.8956 L -42.2855,-13.7227 L -42.3711,-13.5547
 L -42.467,-13.3925 L -42.5729,-13.2366 L -42.6885,-13.0877 L -42.8131,-12.9464 z
M -32.533,-13.3925 L -32.6289,-13.5547 L -32.7145,-13.7227 L -32.7893,-13.8956 L -32.8532,-14.0729 L -32.9057,-14.2539
 L -32.9469,-14.4379 L -32.9763,-14.624 L -32.9941,-14.8116 L -33,-15 L -32.9941,-15.1884 L -32.9763,-15.376
 L -32.9469,-15.5621 L -32.9057,-15.7461 L -32.8532,-15.927 L -32.7893,-16.1044 L -32.7145,-16.2773 L -32.6289,-16.4453
 L -32.533,-16.6075 L -32.427,-16.7634 L -32.3115,-16.9123 L -32.1869,-17.0536 L -32.0536,-17.1869 L -31.9123,-17.3115
 L -31.7634,-17.427 L -31.6075,-17.533 L -31.4453,-17.6289 L -31.2773,-17.7145 L -31.1044,-17.7893 L -30.927,-17.8532
 L -30.7461,-17.9057 L -30.5621,-17.9469 L -30.376,-17.9763 L -30.1884,-17.9941 L -30,-18 L -29.8116,-17.9941
 L -29.624,-17.9763 L -29.4379,-17.9469 L -29.2539,-17.9057 L -29.0729,-17.8532 L -28.8956,-17.7893 L -28.7227,-17.7145
 L -28.5547,-17.6289 L -28.3925,-17.533 L -28.2366,-17.427 L -28.0877,-17.3115 L -27.9464,-17.1869 L -27.8131,-17.0536
 L -27.6884,-16.9123 L -27.5729,-16.7634 L -27.467,-16.6075 L -27.3711,-16.4453 L -27.2855,-16.2773 L -27.2107,-16.1044
 L -27.1468,-15.927 L -27.0942,-15.7461 L -27.0531,-15.5621 L -27.0237,-15.376 L -27.0059,-15.1884 L -27,-15
 L -27.0059,-14.8116 L -27.0237,-14.624 L -27.0531,-14.4379 L -27.0942,-14.2539 L -27.1468,-14.0729 L -27.2107,-13.8956
 L -27.2855,-13.7227 L -27.3711,-13.5547 L -27.467,-13.3925 L -27.5729,-13.2366 L -27.6884,-13.0877 L -27.8131,-12.9464
 L -27.9464,-12.8131 L -28.0877,-12.6884 L -28.2366,-12.5729 L -28.3925,-12.467 L -28.5547,-12.3711 L -28.7227,-12.2855
 L -28.8956,-12.2107 L -29.0729,-12.1468 L -29.2539,-12.0942 L -29.4379,-12.0531 L -29.624,-12.0237 L -29.8116,-12.0059
 L -30,-12 L -30.1884,-12.0059 L -30.376,-12.0237 L -30.5621,-12.0531 L -30.7461,-12.0942 L -30.927,-12.1468
 L -31.1044,-12.2107 L -31.2773,-12.2855 L -31.4453,-12.3711 L -31.6075,-12.467 L -31.7634,-12.5729 L -31.9123,-12.6884
 L -32.0536,-12.8131 L -32.1869,-12.9464 L -32.3115,-13.0877 L -32.427,-13.2366 z
M 17.0536,2.1869 L 16.9123,2.31154 L 16.7634,2.42705 L 16.6075,2.53297 L 16.4453,2.62891 L 16.2773,2.71448
 L 16.1044,2.78932 L 15.927,2.85316 L 15.7461,2.90575 L 15.5621,2.94685 L 15.376,2.97633 L 15.1884,2.99408
 L 15,3 L 14.8116,2.99408 L 14.624,2.97633 L 14.4379,2.94685 L 14.2539,2.90575 L 14.0729,2.85316
 L 13.8956,2.78932 L 13.7227,2.71448 L 13.5547,2.62891 L 13.3925,2.53297 L 13.2366,2.42705 L 13.0877,2.31154
 L 12.9464,2.1869 L 12.8131,2.05363 L 12.6884,1.91226 L 12.5729,1.76335 L 12.467,1.60747 L 12.3711,1.44525
 L 12.2855,1.27733 L 12.2107,1.10437 L 12.1468,0.927048 L 12.0942,0.746063 L 12.0531,0.562134 L 12.0237,0.375992
 L 12.0059,0.18837 L 12,-0 L 12.0059,-0.18837 L 12.0237,-0.375992 L 12.0531,-0.562134 L 12.0942,-0.746063
 L 12.1468,-0.927048 L 12.2107,-1.10437 L 12.2855,-1.27733 L 12.3711,-1.44525 L 12.467,-1.60747 L 12.5729,-1.76335
 L 12.6884,-1.91226 L 12.8131,-2.05363 L 12.9464,-2.1869 L 13.0877,-2.31154 L 13.2366,-2.42705 L 13.3925,-2.53297
 L 13.5547,-2.62891 L 13.7227,-2.71448 L 13.8956,-2.78932 L 14.0729,-2.85316 L 14.2539,-2.90575 L 14.4379,-2.94685
 L 14.624,-2.97633 L 14.8116,-2.99408 L 15,-3 L 15.1884,-2.99408 L 15.376,-2.97633 L 15.5621,-2.94685
 L 15.7461,-2.90575 L 15.927,-2.85316 L 16.1044,-2.78932 L 16.2773,-2.71448 L 16.4453,-2.62891 L 16.6075,-2.53297
 L 16.7634,-2.42705 L 16.9123,-2.31154 L 17.0536,-2.1869 L 17.1869,-2.05363 L 17.3115,-1.91226 L 17.427,-1.76335
 L 17.533,-1.60747 L 17.6289,-1.44525 L 17.7145,-1.27733 L 17.7893,-1.10437 L 17.8532,-0.927048 L 17.9057,-0.746063
 L 17.9469,-0.562134 L 17.9763,-0.375992 L 17.9941,-0.18837 L 18,-0 L 17.9941,0.18837 L 17.9763,0.375992
 L 17.9469,0.562134 L 17.9057,0.746063 L 17.8532,0.927048 L 17.7893,1.10437 L 17.7145,1.27733 L 17.6289,1.44525
 L 17.533,1.60747 L 17.427,1.76335 L 17.3115,1.91226 L 17.1869,2.05363 z
M 1.91226,2.31154 L 1.76335,2.42705 L 1.60747,2.53297 L 1.44525,2.62891 L 1.27733,2.71448 L 1.10437,2.78932
 L 0.927048,2.85316 L 0.746063,2.90575 L 0.562134,2.94685 L 0.375992,2.97633 L 0.18837,2.99408 L 0,3
 L -0.18837,2.99408 L -0.375992,2.97633 L -0.562134,2.94685 L -0.746063,2.90575 L -0.927048,2.85316 L -1.10437,2.78932
 L -1.27733,2.71448 L -1.44525,2.62891 L -1.60747,2.53297 L -1.76335,2.42705 L -1.91226,2.31154 L -2.05363,2.1869
 L -2.1869,2.05363 L -2.31154,1.91226 L -2.42705,1.76335 L -2.53297,1.60747 L -2.62891,1.44525 L -2.71448,1.27733
 L -2.78932,1.10437 L -2.85316,0.927048 L -2.90575,0.746063 L -2.94685,0.562134 L -2.97633,0.375992 L -2.99408,0.18837
 L -3,-0 L -2.99408,-0.18837 L -2.97633,-0.375992 L -2.94685,-0.562134 L -2.90575,-0.746063 L -2.85316,-0.927048
 L -2.78932,-1.10437 L -2.71448,-1.27733 L -2.62891,-1.44525 L -2.53297,-1.60747 L -2.42705,-1.76335 L -2.31154,-1.91226
 L -2.1869,-2.05363 L -2.05363,-2.1869 L -1.91226,-2.31154 L -1.76335,-2.42705 L -1.60747,-2.53297 L -1.44525,-2.62891
 L -1.27733,-2.71448 L -1.10437,-2.78932 L -0.927048,-2.85316 L -0.746063,-2.90575 L -0.562134,-2.94685 L -0.375992,-2.97633
 L -0.18837,-2.99408 L 0,-3 L 0.18837,-2.99408 L 0.375992,-2.97633 L 0.562134,-2.94685 L 0.746063,-2.90575
 L 0.927048,-2.85316 L 1.10437,-2.78932 L 1.27733,-2.71448 L 1.44525,-2.62891 L 1.60747,-2.53297 L 1.76335,-2.42705
 L 1.91226,-2.31154 L 2.05363,-2.1869 L 2.1869,-2.05363 L 2.31154,-1.91226 L 2.42705,-1.76335 L 2.53297,-1.60747
 L 2.62891,-1.44525 L 2.71448,-1.27733 L 2.78932,-1.10437 L 2.85316,-0.927048 L 2.90575,-0.746063 L 2.94685,-0.562134
 L 2.97633,-0.375992 L 2.99408,-0.18837 L 3,-0 L 2.99408,0.18837 L 2.97633,0.375992 L 2.94685,0.562134
 L 2.90575,0.746063 L 2.85316,0.927048 L 2.78932,1.10437 L 2.71448,1.27733 L 2.62891,1.44525 L 2.53297,1.60747
 L 2.42705,1.76335 L 2.31154,1.91226 L 2.1869,2.05363 L 2.05363,2.1869 z
M 2.05363,32.1869 L 1.91226,32.3115 L 1.76335,32.427 L 1.60747,32.533 L 1.44525,32.6289 L 1.27733,32.7145
 L 1.10437,32.7893 L 0.927048,32.8532 L 0.746063,32.9057 L 0.562134,32.9469 L 0.375992,32.9763 L 0.18837,32.9941
 L 0,33 L -0.18837,32.9941 L -0.375992,32.9763 L -0.562134,32.9469 L -0.746063,32.9057 L -0.927048,32.8532
 L -1.10437,32.7893 L -1.27733,32.7145 L -1.44525,32.6289 L -1.60747,32.533 L -1.76335,32.427 L -1.91226,32.3115
 L -2.05363,32.1869 L -2.1869,32.0536 L -2.31154,31.9123 L -2.42705,31.7634 L -2.53297,31.6075 L -2.62891,31.4453
 L -2.71448,31.2773 L -2.78932,31.1044 L -2.85316,30.927 L -2.90575,30.7461 L -2.94685,30.5621 L -2.97633,30.376
 L -2.99408,30.1884 L -3,30 L -2.99408,29.8116 L -2.97633,29.624 L -2.94685,29.4379 L -2.90575,29.2539
 L -2.85316,29.0729 L -2.78932,28.8956 L -2.71448,28.7227 L -2.62891,28.5547 L -2.53297,28.3925 L -2.42705,28.2366
 L -2.31154,28.0877 L -2.1869,27.9464 L -2.05363,27.8131 L -1.91226,27.6884 L -1.76335,27.5729 L -1.60747,27.467
 L -1.44525,27.3711 L -1.27733,27.2855 L -1.10437,27.2107 L -0.927048,27.1468 L -0.746063,27.0942 L -0.562134,27.0531
 L -0.375992,27.0237 L -0.18837,27.0059 L 0,27 L 0.18837,27.0059 L 0.375992,27.0237 L 0.562134,27.0531
 L 0.746063,27.0942 L 0.927048,27.1468 L 1.10437,27.2107 L 1.27733,27.2855 L 1.44525,27.3711 L 1.60747,27.467
 L 1.76335,27.5729 L 1.91226,27.6884 L 2.05363,27.8131 L 2.1869,27.9464 L 2.31154,28.0877 L 2.42705,28.2366
 L 2.53297,28.3925 L 2.62891,28.5547 L 2.71448,28.7227 L 2.78932,28.8956 L 2.85316,29.0729 L 2.90575,29.2539
 L 2.94685,29.4379 L 2.97633,29.624 L 2.99408,29.8116 L 3,30 L 2.99408,30.1884 L 2.97633,30.376
 L 2.94685,30.5621 L 2.90575,30.7461 L 2.85316,30.927 L 2.78932,31.1044 L 2.71448,31.2773 L 2.62891,31.4453
 L 2.53297,31.6075 L 2.42705,31.7634 L 2.31154,31.9123 L 2.1869,32.0536 z
M -42.5729,28.2366 L -42.467,28.3925 L -42.3711,28.5547 L -42.2855,28.7227 L -42.2107,28.8956 L -42.1468,29.0729
 L -42.0942,29.2539 L -42.0531,29.4379 L -42.0237,29.624 L -42.0059,29.8116 L -42,30 L -42.0059,30.1884
 L -42.0237,30.376 L -42.0531,30.5621 L -42.0942,30.7461 L -42.1468,30.927 L -42.2107,31.1044 L -42.2855,31.2773
 L -42.3711,31.4453 L -42.467,31.6075 L -42.5729,31.7634 L -42.6885,31.9123 L -42.8131,32.0536 L -42.9464,32.1869
 L -43.0877,32.3115 L -43.2366,32.427 L -43.3925,32.533 L -43.5547,32.6289 L -43.7227,32.7145 L -43.8956,32.7893
 L -44.0729,32.8532 L -44.2539,32.9057 L -44.4379,32.9469 L -44.624,32.9763 L -44.8116,32.9941 L -45,33
 L -45.1884,32.9941 L -45.376,32.9763 L -45.5621,32.9469 L -45.7461,32.9057 L -45.927,32.8532 L -46.1044,32.7893
 L -46.2773,32.7145 L -46.4453,32.6289 L -46.6075,32.533 L -46.7634,32.427 L -46.9123,32.3115 L -47.0536,32.1869
 L -47.1869,32.0536 L -47.3115,31.9123 L -47.427,31.7634 L -47.533,31.6075 L -47.6289,31.4453 L -47.7145,31.2773
 L -47.7893,31.1044 L -47.8532,30.927 L -47.9057,30.7461 L -47.9469,30.5621 L -47.9763,30.376 L -47.9941,30.1884
 L -48,30 L -47.9941,29.8116 L -47.9763,29.624 L -47.9469,29.4379 L -47.9057,29.2539 L -47.8532,29.0729
 L -47.7893,28.8956 L -47.7145,28.7227 L -47.6289,28.5547 L -47.533,28.3925 L -47.427,28.2366 L -47.3115,28.0877
 L -47.1869,27.9464 L -47.0536,27.8131 L -46.9123,27.6884 L -46.7634,27.5729 L -46.6075,27.467 L -46.4453,27.3711
 L -46.2773,27.2855 L -46.1044,27.2107 L -45.927,27.1468 L -45.7461,27.0942 L -45.5621,27.0531 L -45.376,27.0237
 L -45.1884,27.0059 L -45,27 L -44.8116,27.0059 L -44.624,27.0237 L -44.4379,27.0531 L -44.2539,27.0942
 L -44.0729,27.1468 L -43.8956,27.2107 L -43.7227,27.2855 L -43.5547,27.3711 L -43.3925,27.467 L -43.2366,27.5729
 L -43.0877,27.6884 L -42.9464,27.8131 L -42.8131,27.9464 L -42.6885,28.0877 z
M 17.427,43.2366 L 17.533,43.3925 L 17.6289,43.5547 L 17.7145,43.7227 L 17.7893,43.8956 L 17.8532,44.0729
 L 17.9057,44.2539 L 17.9469,44.4379 L 17.9763,44.624 L 17.9941,44.8116 L 18,45 L 17.9941,45.1884
 L 17.9763,45.376 L 17.9469,45.5621 L 17.9057,45.7461 L 17.8532,45.927 L 17.7893,46.1044 L 17.7145,46.2773
 L 17.6289,46.4453 L 17.533,46.6075 L 17.427,46.7634 L 17.3115,46.9123 L 17.1869,47.0536 L 17.0536,47.1869
 L 16.9123,47.3115 L 16.7634,47.427 L 16.6075,47.533 L 16.4453,47.6289 L 16.2773,47.7145 L 16.1044,47.7893
 L 15.927,47.8532 L 15.7461,47.9057 L 15.5621,47.9469 L 15.376,47.9763 L 15.1884,47.9941 L 15,48
 L 14.8116,47.9941 L 14.624,47.9763 L 14.4379,47.9469 L 14.2539,47.9057 L 14.0729,47.8532 L 13.8956,47.7893
 L 13.7227,47.7145 L 13.5547,47.6289 L 13.3925,47.533 L 13.2366,47.427 L 13.0877,47.3115 L 12.9464,47.1869
 L 12.8131,47.0536 L 12.6884,46.9123 L 12.5729,46.7634 L 12.467,46.6075 L 12.3711,46.4453 L 12.2855,46.2773
 L 12.2107,46.1044 L 12.1468,45.927 L 12.0942,45.7461 L 12.0531,45.5621 L 12.0237,45.376 L 12.0059,45.1884
 L 12,45 L 12.0059,44.8116 L 12.0237,44.624 L 12.0531,44.4379 L 12.0942,44.2539 L 12.1468,44.0729
 L 12.2107,43.8956 L 12.2855,43.7227 L 12.3711,43.5547 L 12.467,43.3925 L 12.5729,43.2366 L 12.6884,43.0877
 L 12.8131,42.9464 L 12.9464,42.8131 L 13.0877,42.6885 L 13.2366,42.5729 L 13.3925,42.467 L 13.5547,42.3711
 L 13.7227,42.2855 L 13.8956,42.2107 L 14.0729,42.1468 L 14.2539,42.0942 L 14.4379,42.0531 L 14.624,42.0237
 L 14.8116,42.0059 L 15,42 L 15.1884,42.0059 L 15.376,42.0237 L 15.5621,42.0531 L 15.7461,42.0942
 L 15.927,42.1468 L 16.1044,42.2107 L 16.2773,42.2855 L 16.4453,42.3711 L 16.6075,42.467 L 16.7634,42.5729
 L 16.9123,42.6885 L 17.0536,42.8131 L 17.1869,42.9464 L 17.3115,43.0877 z
" stroke="black" fill="lightgray" stroke-width="0.5"/>
</svg>
