  0
SECTION
  2
BLOCKS
  0
ENDSEC
  0
SECTION
  2
ENTITIES
  0
LINE
  8
0
 10
47.2435
 20
-50.8429
 11
48.4088
 21
-50.3815
  0
LINE
  8
0
 10
48.4088
 20
-50.3815
 11
49.4227
 21
-49.6448
  0
LINE
  8
0
 10
49.4227
 20
-49.6448
 11
50.2216
 21
-48.6791
  0
LINE
  8
0
 10
50.2216
 20
-48.6791
 11
50.7553
 21
-47.5451
  0
LINE
  8
0
 10
50.7553
 20
-47.5451
 11
51
 21
-46
  0
LINE
  8
0
 10
51
 20
-46
 11
51
 21
46
  0
LINE
  8
0
 10
51
 20
46
 11
50.8429
 21
47.2435
  0
LINE
  8
0
 10
50.8429
 20
47.2435
 11
50.3815
 21
48.4088
  0
LINE
  8
0
 10
50.3815
 20
48.4088
 11
49.6448
 21
49.4227
  0
LINE
  8
0
 10
49.6448
 20
49.4227
 11
48.6791
 21
50.2216
  0
LINE
  8
0
 10
48.6791
 20
50.2216
 11
47.5451
 21
50.7553
  0
LINE
  8
0
 10
47.5451
 20
50.7553
 11
46
 21
51
  0
LINE
  8
0
 10
46
 20
51
 11
-46
 21
51
  0
LINE
  8
0
 10
-46
 20
51
 11
-47.2435
 21
50.8429
  0
LINE
  8
0
 10
-47.2435
 20
50.8429
 11
-48.4088
 21
50.3815
  0
LINE
  8
0
 10
-48.4088
 20
50.3815
 11
-49.4227
 21
49.6448
  0
LINE
  8
0
 10
-49.4227
 20
49.6448
 11
-50.2216
 21
48.6791
  0
LINE
  8
0
 10
-50.2216
 20
48.6791
 11
-50.7553
 21
47.5451
  0
LINE
  8
0
 10
-50.7553
 20
47.5451
 11
-51
 21
46
  0
LINE
  8
0
 10
-51
 20
46
 11
-51
 21
-46
  0
LINE
  8
0
 10
-51
 20
-46
 11
-50.8429
 21
-47.2435
  0
LINE
  8
0
 10
-50.8429
 20
-47.2435
 11
-50.3815
 21
-48.4088
  0
LINE
  8
0
 10
-50.3815
 20
-48.4088
 11
-49.6448
 21
-49.4227
  0
LINE
  8
0
 10
-49.6448
 20
-49.4227
 11
-48.6791
 21
-50.2216
  0
LINE
  8
0
 10
-48.6791
 20
-50.2216
 11
-47.5451
 21
-50.7553
  0
LINE
  8
0
 10
-47.5451
 20
-50.7553
 11
-46
 21
-51
  0
LINE
  8
0
 10
-46
 20
-51
 11
46
 21
-51
  0
LINE
  8
0
 10
46
 20
-51
 11
47.2435
 21
-50.8429
  0
LINE
  8
0
 10
-45.5621
 20
42.0531
 11
-46.2773
 21
42.2855
  0
LINE
  8
0
 10
-46.2773
 20
42.2855
 11
-46.9123
 21
42.6885
  0
LINE
  8
0
 10
-46.9123
 20
42.6885
 11
-47.427
 21
43.2366
  0
LINE
  8
0
 10
-47.427
 20
43.2366
 11
-47.7893
 21
43.8956
  0
LINE
  8
0
 10
-47.7893
 20
43.8956
 11
-47.9763
 21
44.624
  0
LINE
  8
0
 10
-47.9763
 20
44.624
 11
-47.9763
 21
45.376
  0
LINE
  8
0
 10
-47.9763
 20
45.376
 11
-47.7893
 21
46.1044
  0
LINE
  8
0
 10
-47.7893
 20
46.1044
 11
-47.427
 21
46.7634
  0
LINE
  8
0
 10
-47.427
 20
46.7634
 11
-46.9123
 21
47.3115
  0
LINE
  8
0
 10
-46.9123
 20
47.3115
 11
-46.2773
 21
47.7145
  0
LINE
  8
0
 10
-46.2773
 20
47.7145
 11
-45.5621
 21
47.9469
  0
LINE
  8
0
 10
-45.5621
 20
47.9469
 11
-44.8116
 21
47.9941
  0
LINE
  8
0
 10
-44.8116
 20
47.9941
 11
-44.0729
 21
47.8532
  0
LINE
  8
0
 10
-44.0729
 20
47.8532
 11
-43.3925
 21
47.533
  0
LINE
  8
0
 10
-43.3925
 20
47.533
 11
-42.8131
 21
47.0536
  0
LINE
  8
0
 10
-42.8131
 20
47.0536
 11
-42.3711
 21
46.4453
  0
LINE
  8
0
 10
-42.3711
 20
46.4453
 11
-42.0942
 21
45.7461
  0
LINE
  8
0
 10
-42.0942
 20
45.7461
 11
-42
 21
45
  0
LINE
  8
0
 10
-42
 20
45
 11
-42.0942
 21
44.2539
  0
LINE
  8
0
 10
-42.0942
 20
44.2539
 11
-42.3711
 21
43.5547
  0
LINE
  8
0
 10
-42.3711
 20
43.5547
 11
-42.8131
 21
42.9464
  0
LINE
  8
0
 10
-42.8131
 20
42.9464
 11
-43.3925
 21
42.467
  0
LINE
  8
0
 10
-43.3925
 20
42.467
 11
-44.0729
 21
42.1468
  0
LINE
  8
0
 10
-44.0729
 20
42.1468
 11
-44.8116
 21
42.0059
  0
LINE
  8
0
 10
-44.8116
 20
42.0059
 11
-45.5621
 21
42.0531
  0
LINE
  8
0
 10
-30.5621
 20
42.0531
 11
-31.2773
 21
42.2855
  0
LINE
  8
0
 10
-31.2773
 20
42.2855
 11
-31.9123
 21
42.6885
  0
LINE
  8
0
 10
-31.9123
 20
42.6885
 11
-32.427
 21
43.2366
  0
LINE
  8
0
 10
-32.427
 20
43.2366
 11
-32.7893
 21
43.8956
  0
LINE
  8
0
 10
-32.7893
 20
43.8956
 11
-32.9763
 21
44.624
  0
LINE
  8
0
 10
-32.9763
 20
44.624
 11
-32.9763
 21
45.376
  0
LINE
  8
0
 10
-32.9763
 20
45.376
 11
-32.7893
 21
46.1044
  0
LINE
  8
0
 10
-32.7893
 20
46.1044
 11
-32.427
 21
46.7634
  0
LINE
  8
0
 10
-32.427
 20
46.7634
 11
-31.9123
 21
47.3115
  0
LINE
  8
0
 10
-31.9123
 20
47.3115
 11
-31.2773
 21
47.7145
  0
LINE
  8
0
 10
-31.2773
 20
47.7145
 11
-30.5621
 21
47.9469
  0
LINE
  8
0
 10
-30.5621
 20
47.9469
 11
-29.8116
 21
47.9941
  0
LINE
  8
0
 10
-29.8116
 20
47.9941
 11
-29.0729
 21
47.8532
  0
LINE
  8
0
 10
-29.0729
 20
47.8532
 11
-28.3925
 21
47.533
  0
LINE
  8
0
 10
-28.3925
 20
47.533
 11
-27.8131
 21
47.0536
  0
LINE
  8
0
 10
-27.8131
 20
47.0536
 11
-27.3711
 21
46.4453
  0
LINE
  8
0
 10
-27.3711
 20
46.4453
 11
-27.0942
 21
45.7461
  0
LINE
  8
0
 10
-27.0942
 20
45.7461
 11
-27
 21
45
  0
LINE
  8
0
 10
-27
 20
45
 11
-27.0942
 21
44.2539
  0
LINE
  8
0
 10
-27.0942
 20
44.2539
 11
-27.3711
 21
43.5547
  0
LINE
  8
0
 10
-27.3711
 20
43.5547
 11
-27.8131
 21
42.9464
  0
LINE
  8
0
 10
-27.8131
 20
42.9464
 11
-28.3925
 21
42.467
  0
LINE
  8
0
 10
-28.3925
 20
42.467
 11
-29.0729
 21
42.1468
  0
LINE
  8
0
 10
-29.0729
 20
42.1468
 11
-29.8116
 21
42.0059
  0
LINE
  8
0
 10
-29.8116
 20
42.0059
 11
-30.5621
 21
42.0531
  0
LINE
  8
0
 10
29.4379
 20
42.0531
 11
28.7227
 21
42.2855
  0
LINE
  8
0
 10
28.7227
 20
42.2855
 11
28.0877
 21
42.6885
  0
LINE
  8
0
 10
28.0877
 20
42.6885
 11
27.5729
 21
43.2366
  0
LINE
  8
0
 10
27.5729
 20
43.2366
 11
27.2107
 21
43.8956
  0
LINE
  8
0
 10
27.2107
 20
43.8956
 11
27.0237
 21
44.624
  0
LINE
  8
0
 10
27.0237
 20
44.624
 11
27.0237
 21
45.376
  0
LINE
  8
0
 10
27.0237
 20
45.376
 11
27.2107
 21
46.1044
  0
LINE
  8
0
 10
27.2107
 20
46.1044
 11
27.5729
 21
46.7634
  0
LINE
  8
0
 10
27.5729
 20
46.7634
 11
28.0877
 21
47.3115
  0
LINE
  8
0
 10
28.0877
 20
47.3115
 11
28.7227
 21
47.7145
  0
LINE
  8
0
 10
28.7227
 20
47.7145
 11
29.4379
 21
47.9469
  0
LINE
  8
0
 10
29.4379
 20
47.9469
 11
30.1884
 21
47.9941
  0
LINE
  8
0
 10
30.1884
 20
47.9941
 11
30.927
 21
47.8532
  0
LINE
  8
0
 10
30.927
 20
47.8532
 11
31.6075
 21
47.533
  0
LINE
  8
0
 10
31.6075
 20
47.533
 11
32.1869
 21
47.0536
  0
LINE
  8
0
 10
32.1869
 20
47.0536
 11
32.6289
 21
46.4453
  0
LINE
  8
0
 10
32.6289
 20
46.4453
 11
32.9057
 21
45.7461
  0
LINE
  8
0
 10
32.9057
 20
45.7461
 11
33
 21
45
  0
LINE
  8
0
 10
33
 20
45
 11
32.9057
 21
44.2539
  0
LINE
  8
0
 10
32.9057
 20
44.2539
 11
32.6289
 21
43.5547
  0
LINE
  8
0
 10
32.6289
 20
43.5547
 11
32.1869
 21
42.9464
  0
LINE
  8
0
 10
32.1869
 20
42.9464
 11
31.6075
 21
42.467
  0
LINE
  8
0
 10
31.6075
 20
42.467
 11
30.927
 21
42.1468
  0
LINE
  8
0
 10
30.927
 20
42.1468
 11
30.1884
 21
42.0059
  0
LINE
  8
0
 10
30.1884
 20
42.0059
 11
29.4379
 21
42.0531
  0
LINE
  8
0
 10
-15.5621
 20
42.0531
 11
-16.2773
 21
42.2855
  0
LINE
  8
0
 10
-16.2773
 20
42.2855
 11
-16.9123
 21
42.6885
  0
LINE
  8
0
 10
-16.9123
 20
42.6885
 11
-17.427
 21
43.2366
  0
LINE
  8
0
 10
-17.427
 20
43.2366
 11
-17.7893
 21
43.8956
  0
LINE
  8
0
 10
-17.7893
 20
43.8956
 11
-17.9763
 21
44.624
  0
LINE
  8
0
 10
-17.9763
 20
44.624
 11
-17.9763
 21
45.376
  0
LINE
  8
0
 10
-17.9763
 20
45.376
 11
-17.7893
 21
46.1044
  0
LINE
  8
0
 10
-17.7893
 20
46.1044
 11
-17.427
 21
46.7634
  0
LINE
  8
0
 10
-17.427
 20
46.7634
 11
-16.9123
 21
47.3115
  0
LINE
  8
0
 10
-16.9123
 20
47.3115
 11
-16.2773
 21
47.7145
  0
LINE
  8
0
 10
-16.2773
 20
47.7145
 11
-15.5621
 21
47.9469
  0
LINE
  8
0
 10
-15.5621
 20
47.9469
 11
-14.8116
 21
47.9941
  0
LINE
  8
0
 10
-14.8116
 20
47.9941
 11
-14.0729
 21
47.8532
  0
LINE
  8
0
 10
-14.0729
 20
47.8532
 11
-13.3925
 21
47.533
  0
LINE
  8
0
 10
-13.3925
 20
47.533
 11
-12.8131
 21
47.0536
  0
LINE
  8
0
 10
-12.8131
 20
47.0536
 11
-12.3711
 21
46.4453
  0
LINE
  8
0
 10
-12.3711
 20
46.4453
 11
-12.0942
 21
45.7461
  0
LINE
  8
0
 10
-12.0942
 20
45.7461
 11
-12
 21
45
  0
LINE
  8
0
 10
-12
 20
45
 11
-12.0942
 21
44.2539
  0
LINE
  8
0
 10
-12.0942
 20
44.2539
 11
-12.3711
 21
43.5547
  0
LINE
  8
0
 10
-12.3711
 20
43.5547
 11
-12.8131
 21
42.9464
  0
LINE
  8
0
 10
-12.8131
 20
42.9464
 11
-13.3925
 21
42.467
  0
LINE
  8
0
 10
-13.3925
 20
42.467
 11
-14.0729
 21
42.1468
  0
LINE
  8
0
 10
-14.0729
 20
42.1468
 11
-14.8116
 21
42.0059
  0
LINE
  8
0
 10
-14.8116
 20
42.0059
 11
-15.5621
 21
42.0531
  0
LINE
  8
0
 10
1.60747
 20
47.533
 11
2.1869
 21
47.0536
  0
LINE
  8
0
 10
2.1869
 20
47.0536
 11
2.62891
 21
46.4453
  0
LINE
  8
0
 10
2.62891
 20
46.4453
 11
2.90575
 21
45.7461
  0
LINE
  8
0
 10
2.90575
 20
45.7461
 11
3
 21
45
  0
LINE
  8
0
 10
3
 20
45
 11
2.90575
 21
44.2539
  0
LINE
  8
0
 10
2.90575
 20
44.2539
 11
2.62891
 21
43.5547
  0
LINE
  8
0
 10
2.62891
 20
43.5547
 11
2.1869
 21
42.9464
  0
LINE
  8
0
 10
2.1869
 20
42.9464
 11
1.60747
 21
42.467
  0
LINE
  8
0
 10
1.60747
 20
42.467
 11
0.927048
 21
42.1468
  0
LINE
  8
0
 10
0.927048
 20
42.1468
 11
0.18837
 21
42.0059
  0
LINE
  8
0
 10
0.18837
 20
42.0059
 11
-0.562134
 21
42.0531
  0
LINE
  8
0
 10
-0.562134
 20
42.0531
 11
-1.27733
 21
42.2855
  0
LINE
  8
0
 10
-1.27733
 20
42.2855
 11
-1.91226
 21
42.6885
  0
LINE
  8
0
 10
-1.91226
 20
42.6885
 11
-2.42705
 21
43.2366
  0
LINE
  8
0
 10
-2.42705
 20
43.2366
 11
-2.78932
 21
43.8956
  0
LINE
  8
0
 10
-2.78932
 20
43.8956
 11
-2.97633
 21
44.624
  0
LINE
  8
0
 10
-2.97633
 20
44.624
 11
-2.97633
 21
45.376
  0
LINE
  8
0
 10
-2.97633
 20
45.376
 11
-2.78932
 21
46.1044
  0
LINE
  8
0
 10
-2.78932
 20
46.1044
 11
-2.42705
 21
46.7634
  0
LINE
  8
0
 10
-2.42705
 20
46.7634
 11
-1.91226
 21
47.3115
  0
LINE
  8
0
 10
-1.91226
 20
47.3115
 11
-1.27733
 21
47.7145
  0
LINE
  8
0
 10
-1.27733
 20
47.7145
 11
-0.562134
 21
47.9469
  0
LINE
  8
0
 10
-0.562134
 20
47.9469
 11
0.18837
 21
47.9941
  0
LINE
  8
0
 10
0.18837
 20
47.9941
 11
0.927048
 21
47.8532
  0
LINE
  8
0
 10
0.927048
 20
47.8532
 11
1.60747
 21
47.533
  0
LINE
  8
0
 10
44.4379
 20
42.0531
 11
43.7227
 21
42.2855
  0
LINE
  8
0
 10
43.7227
 20
42.2855
 11
43.0877
 21
42.6885
  0
LINE
  8
0
 10
43.0877
 20
42.6885
 11
42.5729
 21
43.2366
  0
LINE
  8
0
 10
42.5729
 20
43.2366
 11
42.2107
 21
43.8956
  0
LINE
  8
0
 10
42.2107
 20
43.8956
 11
42.0237
 21
44.624
  0
LINE
  8
0
 10
42.0237
 20
44.624
 11
42.0237
 21
45.376
  0
LINE
  8
0
 10
42.0237
 20
45.376
 11
42.2107
 21
46.1044
  0
LINE
  8
0
 10
42.2107
 20
46.1044
 11
42.5729
 21
46.7634
  0
LINE
  8
0
 10
42.5729
 20
46.7634
 11
43.0877
 21
47.3115
  0
LINE
  8
0
 10
43.0877
 20
47.3115
 11
43.7227
 21
47.7145
  0
LINE
  8
0
 10
43.7227
 20
47.7145
 11
44.4379
 21
47.9469
  0
LINE
  8
0
 10
44.4379
 20
47.9469
 11
45.1884
 21
47.9941
  0
LINE
  8
0
 10
45.1884
 20
47.9941
 11
45.927
 21
47.8532
  0
LINE
  8
0
 10
45.927
 20
47.8532
 11
46.6075
 21
47.533
  0
LINE
  8
0
 10
46.6075
 20
47.533
 11
47.1869
 21
47.0536
  0
LINE
  8
0
 10
47.1869
 20
47.0536
 11
47.6289
 21
46.4453
  0
LINE
  8
0
 10
47.6289
 20
46.4453
 11
47.9057
 21
45.7461
  0
LINE
  8
0
 10
47.9057
 20
45.7461
 11
48
 21
45
  0
LINE
  8
0
 10
48
 20
45
 11
47.9057
 21
44.2539
  0
LINE
  8
0
 10
47.9057
 20
44.2539
 11
47.6289
 21
43.5547
  0
LINE
  8
0
 10
47.6289
 20
43.5547
 11
47.1869
 21
42.9464
  0
LINE
  8
0
 10
47.1869
 20
42.9464
 11
46.6075
 21
42.467
  0
LINE
  8
0
 10
46.6075
 20
42.467
 11
45.927
 21
42.1468
  0
LINE
  8
0
 10
45.927
 20
42.1468
 11
45.1884
 21
42.0059
  0
LINE
  8
0
 10
45.1884
 20
42.0059
 11
44.4379
 21
42.0531
  0
LINE
  8
0
 10
14.4379
 20
42.0531
 11
13.7227
 21
42.2855
  0
LINE
  8
0
 10
13.7227
 20
42.2855
 11
13.0877
 21
42.6885
  0
LINE
  8
0
 10
13.0877
 20
42.6885
 11
12.5729
 21
43.2366
  0
LINE
  8
0
 10
12.5729
 20
43.2366
 11
12.2107
 21
43.8956
  0
LINE
  8
0
 10
12.2107
 20
43.8956
 11
12.0237
 21
44.624
  0
LINE
  8
0
 10
12.0237
 20
44.624
 11
12.0237
 21
45.376
  0
LINE
  8
0
 10
12.0237
 20
45.376
 11
12.2107
 21
46.1044
  0
LINE
  8
0
 10
12.2107
 20
46.1044
 11
12.5729
 21
46.7634
  0
LINE
  8
0
 10
12.5729
 20
46.7634
 11
13.0877
 21
47.3115
  0
LINE
  8
0
 10
13.0877
 20
47.3115
 11
13.7227
 21
47.7145
  0
LINE
  8
0
 10
13.7227
 20
47.7145
 11
14.4379
 21
47.9469
  0
LINE
  8
0
 10
14.4379
 20
47.9469
 11
15.1884
 21
47.9941
  0
LINE
  8
0
 10
15.1884
 20
47.9941
 11
15.927
 21
47.8532
  0
LINE
  8
0
 10
15.927
 20
47.8532
 11
16.6075
 21
47.533
  0
LINE
  8
0
 10
16.6075
 20
47.533
 11
17.1869
 21
47.0536
  0
LINE
  8
0
 10
17.1869
 20
47.0536
 11
17.6289
 21
46.4453
  0
LINE
  8
0
 10
17.6289
 20
46.4453
 11
17.9057
 21
45.7461
  0
LINE
  8
0
 10
17.9057
 20
45.7461
 11
18
 21
45
  0
LINE
  8
0
 10
18
 20
45
 11
17.9057
 21
44.2539
  0
LINE
  8
0
 10
17.9057
 20
44.2539
 11
17.6289
 21
43.5547
  0
LINE
  8
0
 10
17.6289
 20
43.5547
 11
17.1869
 21
42.9464
  0
LINE
  8
0
 10
17.1869
 20
42.9464
 11
16.6075
 21
42.467
  0
LINE
  8
0
 10
16.6075
 20
42.467
 11
15.927
 21
42.1468
  0
LINE
  8
0
 10
15.927
 20
42.1468
 11
15.1884
 21
42.0059
  0
LINE
  8
0
 10
15.1884
 20
42.0059
 11
14.4379
 21
42.0531
  0
LINE
  8
0
 10
-30.5621
 20
27.0531
 11
-31.2773
 21
27.2855
  0
LINE
  8
0
 10
-31.2773
 20
27.2855
 11
-31.9123
 21
27.6884
  0
LINE
  8
0
 10
-31.9123
 20
27.6884
 11
-32.427
 21
28.2366
  0
LINE
  8
0
 10
-32.427
 20
28.2366
 11
-32.7893
 21
28.8956
  0
LINE
  8
0
 10
-32.7893
 20
28.8956
 11
-32.9763
 21
29.624
  0
LINE
  8
0
 10
-32.9763
 20
29.624
 11
-32.9763
 21
30.376
  0
LINE
  8
0
 10
-32.9763
 20
30.376
 11
-32.7893
 21
31.1044
  0
LINE
  8
0
 10
-32.7893
 20
31.1044
 11
-32.427
 21
31.7634
  0
LINE
  8
0
 10
-32.427
 20
31.7634
 11
-31.9123
 21
32.3115
  0
LINE
  8
0
 10
-31.9123
 20
32.3115
 11
-31.2773
 21
32.7145
  0
LINE
  8
0
 10
-31.2773
 20
32.7145
 11
-30.5621
 21
32.9469
  0
LINE
  8
0
 10
-30.5621
 20
32.9469
 11
-29.8116
 21
32.9941
  0
LINE
  8
0
 10
-29.8116
 20
32.9941
 11
-29.0729
 21
32.8532
  0
LINE
  8
0
 10
-29.0729
 20
32.8532
 11
-28.3925
 21
32.533
  0
LINE
  8
0
 10
-28.3925
 20
32.533
 11
-27.8131
 21
32.0536
  0
LINE
  8
0
 10
-27.8131
 20
32.0536
 11
-27.3711
 21
31.4453
  0
LINE
  8
0
 10
-27.3711
 20
31.4453
 11
-27.0942
 21
30.7461
  0
LINE
  8
0
 10
-27.0942
 20
30.7461
 11
-27
 21
30
  0
LINE
  8
0
 10
-27
 20
30
 11
-27.0942
 21
29.2539
  0
LINE
  8
0
 10
-27.0942
 20
29.2539
 11
-27.3711
 21
28.5547
  0
LINE
  8
0
 10
-27.3711
 20
28.5547
 11
-27.8131
 21
27.9464
  0
LINE
  8
0
 10
-27.8131
 20
27.9464
 11
-28.3925
 21
27.467
  0
LINE
  8
0
 10
-28.3925
 20
27.467
 11
-29.0729
 21
27.1468
  0
LINE
  8
0
 10
-29.0729
 20
27.1468
 11
-29.8116
 21
27.0059
  0
LINE
  8
0
 10
-29.8116
 20
27.0059
 11
-30.5621
 21
27.0531
  0
LINE
  8
0
 10
44.4379
 20
27.0531
 11
43.7227
 21
27.2855
  0
LINE
  8
0
 10
43.7227
 20
27.2855
 11
43.0877
 21
27.6884
  0
LINE
  8
0
 10
43.0877
 20
27.6884
 11
42.5729
 21
28.2366
  0
LINE
  8
0
 10
42.5729
 20
28.2366
 11
42.2107
 21
28.8956
  0
LINE
  8
0
 10
42.2107
 20
28.8956
 11
42.0237
 21
29.624
  0
LINE
  8
0
 10
42.0237
 20
29.624
 11
42.0237
 21
30.376
  0
LINE
  8
0
 10
42.0237
 20
30.376
 11
42.2107
 21
31.1044
  0
LINE
  8
0
 10
42.2107
 20
31.1044
 11
42.5729
 21
31.7634
  0
LINE
  8
0
 10
42.5729
 20
31.7634
 11
43.0877
 21
32.3115
  0
LINE
  8
0
 10
43.0877
 20
32.3115
 11
43.7227
 21
32.7145
  0
LINE
  8
0
 10
43.7227
 20
32.7145
 11
44.4379
 21
32.9469
  0
LINE
  8
0
 10
44.4379
 20
32.9469
 11
45.1884
 21
32.9941
  0
LINE
  8
0
 10
45.1884
 20
32.9941
 11
45.927
 21
32.8532
  0
LINE
  8
0
 10
45.927
 20
32.8532
 11
46.6075
 21
32.533
  0
LINE
  8
0
 10
46.6075
 20
32.533
 11
47.1869
 21
32.0536
  0
LINE
  8
0
 10
47.1869
 20
32.0536
 11
47.6289
 21
31.4453
  0
LINE
  8
0
 10
47.6289
 20
31.4453
 11
47.9057
 21
30.7461
  0
LINE
  8
0
 10
47.9057
 20
30.7461
 11
48
 21
30
  0
LINE
  8
0
 10
48
 20
30
 11
47.9057
 21
29.2539
  0
LINE
  8
0
 10
47.9057
 20
29.2539
 11
47.6289
 21
28.5547
  0
LINE
  8
0
 10
47.6289
 20
28.5547
 11
47.1869
 21
27.9464
  0
LINE
  8
0
 10
47.1869
 20
27.9464
 11
46.6075
 21
27.467
  0
LINE
  8
0
 10
46.6075
 20
27.467
 11
45.927
 21
27.1468
  0
LINE
  8
0
 10
45.927
 20
27.1468
 11
45.1884
 21
27.0059
  0
LINE
  8
0
 10
45.1884
 20
27.0059
 11
44.4379
 21
27.0531
  0
LINE
  8
0
 10
29.4379
 20
27.0531
 11
28.7227
 21
27.2855
  0
LINE
  8
0
 10
28.7227
 20
27.2855
 11
28.0877
 21
27.6884
  0
LINE
  8
0
 10
28.0877
 20
27.6884
 11
27.5729
 21
28.2366
  0
LINE
  8
0
 10
27.5729
 20
28.2366
 11
27.2107
 21
28.8956
  0
LINE
  8
0
 10
27.2107
 20
28.8956
 11
27.0237
 21
29.624
  0
LINE
  8
0
 10
27.0237
 20
29.624
 11
27.0237
 21
30.376
  0
LINE
  8
0
 10
27.0237
 20
30.376
 11
27.2107
 21
31.1044
  0
LINE
  8
0
 10
27.2107
 20
31.1044
 11
27.5729
 21
31.7634
  0
LINE
  8
0
 10
27.5729
 20
31.7634
 11
28.0877
 21
32.3115
  0
LINE
  8
0
 10
28.0877
 20
32.3115
 11
28.7227
 21
32.7145
  0
LINE
  8
0
 10
28.7227
 20
32.7145
 11
29.4379
 21
32.9469
  0
LINE
  8
0
 10
29.4379
 20
32.9469
 11
30.1884
 21
32.9941
  0
LINE
  8
0
 10
30.1884
 20
32.9941
 11
30.927
 21
32.8532
  0
LINE
  8
0
 10
30.927
 20
32.8532
 11
31.6075
 21
32.533
  0
LINE
  8
0
 10
31.6075
 20
32.533
 11
32.1869
 21
32.0536
  0
LINE
  8
0
 10
32.1869
 20
32.0536
 11
32.6289
 21
31.4453
  0
LINE
  8
0
 10
32.6289
 20
31.4453
 11
32.9057
 21
30.7461
  0
LINE
  8
0
 10
32.9057
 20
30.7461
 11
33
 21
30
  0
LINE
  8
0
 10
33
 20
30
 11
32.9057
 21
29.2539
  0
LINE
  8
0
 10
32.9057
 20
29.2539
 11
32.6289
 21
28.5547
  0
LINE
  8
0
 10
32.6289
 20
28.5547
 11
32.1869
 21
27.9464
  0
LINE
  8
0
 10
32.1869
 20
27.9464
 11
31.6075
 21
27.467
  0
LINE
  8
0
 10
31.6075
 20
27.467
 11
30.927
 21
27.1468
  0
LINE
  8
0
 10
30.927
 20
27.1468
 11
30.1884
 21
27.0059
  0
LINE
  8
0
 10
30.1884
 20
27.0059
 11
29.4379
 21
27.0531
  0
LINE
  8
0
 10
-45.5621
 20
27.0531
 11
-46.2773
 21
27.2855
  0
LINE
  8
0
 10
-46.2773
 20
27.2855
 11
-46.9123
 21
27.6884
  0
LINE
  8
0
 10
-46.9123
 20
27.6884
 11
-47.427
 21
28.2366
  0
LINE
  8
0
 10
-47.427
 20
28.2366
 11
-47.7893
 21
28.8956
  0
LINE
  8
0
 10
-47.7893
 20
28.8956
 11
-47.9763
 21
29.624
  0
LINE
  8
0
 10
-47.9763
 20
29.624
 11
-47.9763
 21
30.376
  0
LINE
  8
0
 10
-47.9763
 20
30.376
 11
-47.7893
 21
31.1044
  0
LINE
  8
0
 10
-47.7893
 20
31.1044
 11
-47.427
 21
31.7634
  0
LINE
  8
0
 10
-47.427
 20
31.7634
 11
-46.9123
 21
32.3115
  0
LINE
  8
0
 10
-46.9123
 20
32.3115
 11
-46.2773
 21
32.7145
  0
LINE
  8
0
 10
-46.2773
 20
32.7145
 11
-45.5621
 21
32.9469
  0
LINE
  8
0
 10
-45.5621
 20
32.9469
 11
-44.8116
 21
32.9941
  0
LINE
  8
0
 10
-44.8116
 20
32.9941
 11
-44.0729
 21
32.8532
  0
LINE
  8
0
 10
-44.0729
 20
32.8532
 11
-43.3925
 21
32.533
  0
LINE
  8
0
 10
-43.3925
 20
32.533
 11
-42.8131
 21
32.0536
  0
LINE
  8
0
 10
-42.8131
 20
32.0536
 11
-42.3711
 21
31.4453
  0
LINE
  8
0
 10
-42.3711
 20
31.4453
 11
-42.0942
 21
30.7461
  0
LINE
  8
0
 10
-42.0942
 20
30.7461
 11
-42
 21
30
  0
LINE
  8
0
 10
-42
 20
30
 11
-42.0942
 21
29.2539
  0
LINE
  8
0
 10
-42.0942
 20
29.2539
 11
-42.3711
 21
28.5547
  0
LINE
  8
0
 10
-42.3711
 20
28.5547
 11
-42.8131
 21
27.9464
  0
LINE
  8
0
 10
-42.8131
 20
27.9464
 11
-43.3925
 21
27.467
  0
LINE
  8
0
 10
-43.3925
 20
27.467
 11
-44.0729
 21
27.1468
  0
LINE
  8
0
 10
-44.0729
 20
27.1468
 11
-44.8116
 21
27.0059
  0
LINE
  8
0
 10
-44.8116
 20
27.0059
 11
-45.5621
 21
27.0531
  0
LINE
  8
0
 10
14.4379
 20
27.0531
 11
13.7227
 21
27.2855
  0
LINE
  8
0
 10
13.7227
 20
27.2855
 11
13.0877
 21
27.6884
  0
LINE
  8
0
 10
13.0877
 20
27.6884
 11
12.5729
 21
28.2366
  0
LINE
  8
0
 10
12.5729
 20
28.2366
 11
12.2107
 21
28.8956
  0
LINE
  8
0
 10
12.2107
 20
28.8956
 11
12.0237
 21
29.624
  0
LINE
  8
0
 10
12.0237
 20
29.624
 11
12.0237
 21
30.376
  0
LINE
  8
0
 10
12.0237
 20
30.376
 11
12.2107
 21
31.1044
  0
LINE
  8
0
 10
12.2107
 20
31.1044
 11
12.5729
 21
31.7634
  0
LINE
  8
0
 10
12.5729
 20
31.7634
 11
13.0877
 21
32.3115
  0
LINE
  8
0
 10
13.0877
 20
32.3115
 11
13.7227
 21
32.7145
  0
LINE
  8
0
 10
13.7227
 20
32.7145
 11
14.4379
 21
32.9469
  0
LINE
  8
0
 10
14.4379
 20
32.9469
 11
15.1884
 21
32.9941
  0
LINE
  8
0
 10
15.1884
 20
32.9941
 11
15.927
 21
32.8532
  0
LINE
  8
0
 10
15.927
 20
32.8532
 11
16.6075
 21
32.533
  0
LINE
  8
0
 10
16.6075
 20
32.533
 11
17.1869
 21
32.0536
  0
LINE
  8
0
 10
17.1869
 20
32.0536
 11
17.6289
 21
31.4453
  0
LINE
  8
0
 10
17.6289
 20
31.4453
 11
17.9057
 21
30.7461
  0
LINE
  8
0
 10
17.9057
 20
30.7461
 11
18
 21
30
  0
LINE
  8
0
 10
18
 20
30
 11
17.9057
 21
29.2539
  0
LINE
  8
0
 10
17.9057
 20
29.2539
 11
17.6289
 21
28.5547
  0
LINE
  8
0
 10
17.6289
 20
28.5547
 11
17.1869
 21
27.9464
  0
LINE
  8
0
 10
17.1869
 20
27.9464
 11
16.6075
 21
27.467
  0
LINE
  8
0
 10
16.6075
 20
27.467
 11
15.927
 21
27.1468
  0
LINE
  8
0
 10
15.927
 20
27.1468
 11
15.1884
 21
27.0059
  0
LINE
  8
0
 10
15.1884
 20
27.0059
 11
14.4379
 21
27.0531
  0
LINE
  8
0
 10
-0.562134
 20
27.0531
 11
-1.27733
 21
27.2855
  0
LINE
  8
0
 10
-1.27733
 20
27.2855
 11
-1.91226
 21
27.6884
  0
LINE
  8
0
 10
-1.91226
 20
27.6884
 11
-2.42705
 21
28.2366
  0
LINE
  8
0
 10
-2.42705
 20
28.2366
 11
-2.78932
 21
28.8956
  0
LINE
  8
0
 10
-2.78932
 20
28.8956
 11
-2.97633
 21
29.624
  0
LINE
  8
0
 10
-2.97633
 20
29.624
 11
-2.97633
 21
30.376
  0
LINE
  8
0
 10
-2.97633
 20
30.376
 11
-2.78932
 21
31.1044
  0
LINE
  8
0
 10
-2.78932
 20
31.1044
 11
-2.42705
 21
31.7634
  0
LINE
  8
0
 10
-2.42705
 20
31.7634
 11
-1.91226
 21
32.3115
  0
LINE
  8
0
 10
-1.91226
 20
32.3115
 11
-1.27733
 21
32.7145
  0
LINE
  8
0
 10
-1.27733
 20
32.7145
 11
-0.562134
 21
32.9469
  0
LINE
  8
0
 10
-0.562134
 20
32.9469
 11
0.18837
 21
32.9941
  0
LINE
  8
0
 10
0.18837
 20
32.9941
 11
0.927048
 21
32.8532
  0
LINE
  8
0
 10
0.927048
 20
32.8532
 11
1.60747
 21
32.533
  0
LINE
  8
0
 10
1.60747
 20
32.533
 11
2.1869
 21
32.0536
  0
LINE
  8
0
 10
2.1869
 20
32.0536
 11
2.62891
 21
31.4453
  0
LINE
  8
0
 10
2.62891
 20
31.4453
 11
2.90575
 21
30.7461
  0
LINE
  8
0
 10
2.90575
 20
30.7461
 11
3
 21
30
  0
LINE
  8
0
 10
3
 20
30
 11
2.90575
 21
29.2539
  0
LINE
  8
0
 10
2.90575
 20
29.2539
 11
2.62891
 21
28.5547
  0
LINE
  8
0
 10
2.62891
 20
28.5547
 11
2.1869
 21
27.9464
  0
LINE
  8
0
 10
2.1869
 20
27.9464
 11
1.60747
 21
27.467
  0
LINE
  8
0
 10
1.60747
 20
27.467
 11
0.927048
 21
27.1468
  0
LINE
  8
0
 10
0.927048
 20
27.1468
 11
0.18837
 21
27.0059
  0
LINE
  8
0
 10
0.18837
 20
27.0059
 11
-0.562134
 21
27.0531
  0
LINE
  8
0
 10
-15.5621
 20
27.0531
 11
-16.2773
 21
27.2855
  0
LINE
  8
0
 10
-16.2773
 20
27.2855
 11
-16.9123
 21
27.6884
  0
LINE
  8
0
 10
-16.9123
 20
27.6884
 11
-17.427
 21
28.2366
  0
LINE
  8
0
 10
-17.427
 20
28.2366
 11
-17.7893
 21
28.8956
  0
LINE
  8
0
 10
-17.7893
 20
28.8956
 11
-17.9763
 21
29.624
  0
LINE
  8
0
 10
-17.9763
 20
29.624
 11
-17.9763
 21
30.376
  0
LINE
  8
0
 10
-17.9763
 20
30.376
 11
-17.7893
 21
31.1044
  0
LINE
  8
0
 10
-17.7893
 20
31.1044
 11
-17.427
 21
31.7634
  0
LINE
  8
0
 10
-17.427
 20
31.7634
 11
-16.9123
 21
32.3115
  0
LINE
  8
0
 10
-16.9123
 20
32.3115
 11
-16.2773
 21
32.7145
  0
LINE
  8
0
 10
-16.2773
 20
32.7145
 11
-15.5621
 21
32.9469
  0
LINE
  8
0
 10
-15.5621
 20
32.9469
 11
-14.8116
 21
32.9941
  0
LINE
  8
0
 10
-14.8116
 20
32.9941
 11
-14.0729
 21
32.8532
  0
LINE
  8
0
 10
-14.0729
 20
32.8532
 11
-13.3925
 21
32.533
  0
LINE
  8
0
 10
-13.3925
 20
32.533
 11
-12.8131
 21
32.0536
  0
LINE
  8
0
 10
-12.8131
 20
32.0536
 11
-12.3711
 21
31.4453
  0
LINE
  8
0
 10
-12.3711
 20
31.4453
 11
-12.0942
 21
30.7461
  0
LINE
  8
0
 10
-12.0942
 20
30.7461
 11
-12
 21
30
  0
LINE
  8
0
 10
-12
 20
30
 11
-12.0942
 21
29.2539
  0
LINE
  8
0
 10
-12.0942
 20
29.2539
 11
-12.3711
 21
28.5547
  0
LINE
  8
0
 10
-12.3711
 20
28.5547
 11
-12.8131
 21
27.9464
  0
LINE
  8
0
 10
-12.8131
 20
27.9464
 11
-13.3925
 21
27.467
  0
LINE
  8
0
 10
-13.3925
 20
27.467
 11
-14.0729
 21
27.1468
  0
LINE
  8
0
 10
-14.0729
 20
27.1468
 11
-14.8116
 21
27.0059
  0
LINE
  8
0
 10
-14.8116
 20
27.0059
 11
-15.5621
 21
27.0531
  0
LINE
  8
0
 10
-30.5621
 20
12.0531
 11
-31.2773
 21
12.2855
  0
LINE
  8
0
 10
-31.2773
 20
12.2855
 11
-31.9123
 21
12.6884
  0
LINE
  8
0
 10
-31.9123
 20
12.6884
 11
-32.427
 21
13.2366
  0
LINE
  8
0
 10
-32.427
 20
13.2366
 11
-32.7893
 21
13.8956
  0
LINE
  8
0
 10
-32.7893
 20
13.8956
 11
-32.9763
 21
14.624
  0
LINE
  8
0
 10
-32.9763
 20
14.624
 11
-32.9763
 21
15.376
  0
LINE
  8
0
 10
-32.9763
 20
15.376
 11
-32.7893
 21
16.1044
  0
LINE
  8
0
 10
-32.7893
 20
16.1044
 11
-32.427
 21
16.7634
  0
LINE
  8
0
 10
-32.427
 20
16.7634
 11
-31.9123
 21
17.3115
  0
LINE
  8
0
 10
-31.9123
 20
17.3115
 11
-31.2773
 21
17.7145
  0
LINE
  8
0
 10
-31.2773
 20
17.7145
 11
-30.5621
 21
17.9469
  0
LINE
  8
0
 10
-30.5621
 20
17.9469
 11
-29.8116
 21
17.9941
  0
LINE
  8
0
 10
-29.8116
 20
17.9941
 11
-29.0729
 21
17.8532
  0
LINE
  8
0
 10
-29.0729
 20
17.8532
 11
-28.3925
 21
17.533
  0
LINE
  8
0
 10
-28.3925
 20
17.533
 11
-27.8131
 21
17.0536
  0
LINE
  8
0
 10
-27.8131
 20
17.0536
 11
-27.3711
 21
16.4453
  0
LINE
  8
0
 10
-27.3711
 20
16.4453
 11
-27.0942
 21
15.7461
  0
LINE
  8
0
 10
-27.0942
 20
15.7461
 11
-27
 21
15
  0
LINE
  8
0
 10
-27
 20
15
 11
-27.0942
 21
14.2539
  0
LINE
  8
0
 10
-27.0942
 20
14.2539
 11
-27.3711
 21
13.5547
  0
LINE
  8
0
 10
-27.3711
 20
13.5547
 11
-27.8131
 21
12.9464
  0
LINE
  8
0
 10
-27.8131
 20
12.9464
 11
-28.3925
 21
12.467
  0
LINE
  8
0
 10
-28.3925
 20
12.467
 11
-29.0729
 21
12.1468
  0
LINE
  8
0
 10
-29.0729
 20
12.1468
 11
-29.8116
 21
12.0059
  0
LINE
  8
0
 10
-29.8116
 20
12.0059
 11
-30.5621
 21
12.0531
  0
LINE
  8
0
 10
-15.5621
 20
12.0531
 11
-16.2773
 21
12.2855
  0
LINE
  8
0
 10
-16.2773
 20
12.2855
 11
-16.9123
 21
12.6884
  0
LINE
  8
0
 10
-16.9123
 20
12.6884
 11
-17.427
 21
13.2366
  0
LINE
  8
0
 10
-17.427
 20
13.2366
 11
-17.7893
 21
13.8956
  0
LINE
  8
0
 10
-17.7893
 20
13.8956
 11
-17.9763
 21
14.624
  0
LINE
  8
0
 10
-17.9763
 20
14.624
 11
-17.9763
 21
15.376
  0
LINE
  8
0
 10
-17.9763
 20
15.376
 11
-17.7893
 21
16.1044
  0
LINE
  8
0
 10
-17.7893
 20
16.1044
 11
-17.427
 21
16.7634
  0
LINE
  8
0
 10
-17.427
 20
16.7634
 11
-16.9123
 21
17.3115
  0
LINE
  8
0
 10
-16.9123
 20
17.3115
 11
-16.2773
 21
17.7145
  0
LINE
  8
0
 10
-16.2773
 20
17.7145
 11
-15.5621
 21
17.9469
  0
LINE
  8
0
 10
-15.5621
 20
17.9469
 11
-14.8116
 21
17.9941
  0
LINE
  8
0
 10
-14.8116
 20
17.9941
 11
-14.0729
 21
17.8532
  0
LINE
  8
0
 10
-14.0729
 20
17.8532
 11
-13.3925
 21
17.533
  0
LINE
  8
0
 10
-13.3925
 20
17.533
 11
-12.8131
 21
17.0536
  0
LINE
  8
0
 10
-12.8131
 20
17.0536
 11
-12.3711
 21
16.4453
  0
LINE
  8
0
 10
-12.3711
 20
16.4453
 11
-12.0942
 21
15.7461
  0
LINE
  8
0
 10
-12.0942
 20
15.7461
 11
-12
 21
15
  0
LINE
  8
0
 10
-12
 20
15
 11
-12.0942
 21
14.2539
  0
LINE
  8
0
 10
-12.0942
 20
14.2539
 11
-12.3711
 21
13.5547
  0
LINE
  8
0
 10
-12.3711
 20
13.5547
 11
-12.8131
 21
12.9464
  0
LINE
  8
0
 10
-12.8131
 20
12.9464
 11
-13.3925
 21
12.467
  0
LINE
  8
0
 10
-13.3925
 20
12.467
 11
-14.0729
 21
12.1468
  0
LINE
  8
0
 10
-14.0729
 20
12.1468
 11
-14.8116
 21
12.0059
  0
LINE
  8
0
 10
-14.8116
 20
12.0059
 11
-15.5621
 21
12.0531
  0
LINE
  8
0
 10
-45.5621
 20
12.0531
 11
-46.2773
 21
12.2855
  0
LINE
  8
0
 10
-46.2773
 20
12.2855
 11
-46.9123
 21
12.6884
  0
LINE
  8
0
 10
-46.9123
 20
12.6884
 11
-47.427
 21
13.2366
  0
LINE
  8
0
 10
-47.427
 20
13.2366
 11
-47.7893
 21
13.8956
  0
LINE
  8
0
 10
-47.7893
 20
13.8956
 11
-47.9763
 21
14.624
  0
LINE
  8
0
 10
-47.9763
 20
14.624
 11
-47.9763
 21
15.376
  0
LINE
  8
0
 10
-47.9763
 20
15.376
 11
-47.7893
 21
16.1044
  0
LINE
  8
0
 10
-47.7893
 20
16.1044
 11
-47.427
 21
16.7634
  0
LINE
  8
0
 10
-47.427
 20
16.7634
 11
-46.9123
 21
17.3115
  0
LINE
  8
0
 10
-46.9123
 20
17.3115
 11
-46.2773
 21
17.7145
  0
LINE
  8
0
 10
-46.2773
 20
17.7145
 11
-45.5621
 21
17.9469
  0
LINE
  8
0
 10
-45.5621
 20
17.9469
 11
-44.8116
 21
17.9941
  0
LINE
  8
0
 10
-44.8116
 20
17.9941
 11
-44.0729
 21
17.8532
  0
LINE
  8
0
 10
-44.0729
 20
17.8532
 11
-43.3925
 21
17.533
  0
LINE
  8
0
 10
-43.3925
 20
17.533
 11
-42.8131
 21
17.0536
  0
LINE
  8
0
 10
-42.8131
 20
17.0536
 11
-42.3711
 21
16.4453
  0
LINE
  8
0
 10
-42.3711
 20
16.4453
 11
-42.0942
 21
15.7461
  0
LINE
  8
0
 10
-42.0942
 20
15.7461
 11
-42
 21
15
  0
LINE
  8
0
 10
-42
 20
15
 11
-42.0942
 21
14.2539
  0
LINE
  8
0
 10
-42.0942
 20
14.2539
 11
-42.3711
 21
13.5547
  0
LINE
  8
0
 10
-42.3711
 20
13.5547
 11
-42.8131
 21
12.9464
  0
LINE
  8
0
 10
-42.8131
 20
12.9464
 11
-43.3925
 21
12.467
  0
LINE
  8
0
 10
-43.3925
 20
12.467
 11
-44.0729
 21
12.1468
  0
LINE
  8
0
 10
-44.0729
 20
12.1468
 11
-44.8116
 21
12.0059
  0
LINE
  8
0
 10
-44.8116
 20
12.0059
 11
-45.5621
 21
12.0531
  0
LINE
  8
0
 10
29.4379
 20
12.0531
 11
28.7227
 21
12.2855
  0
LINE
  8
0
 10
28.7227
 20
12.2855
 11
28.0877
 21
12.6884
  0
LINE
  8
0
 10
28.0877
 20
12.6884
 11
27.5729
 21
13.2366
  0
LINE
  8
0
 10
27.5729
 20
13.2366
 11
27.2107
 21
13.8956
  0
LINE
  8
0
 10
27.2107
 20
13.8956
 11
27.0237
 21
14.624
  0
LINE
  8
0
 10
27.0237
 20
14.624
 11
27.0237
 21
15.376
  0
LINE
  8
0
 10
27.0237
 20
15.376
 11
27.2107
 21
16.1044
  0
LINE
  8
0
 10
27.2107
 20
16.1044
 11
27.5729
 21
16.7634
  0
LINE
  8
0
 10
27.5729
 20
16.7634
 11
28.0877
 21
17.3115
  0
LINE
  8
0
 10
28.0877
 20
17.3115
 11
28.7227
 21
17.7145
  0
LINE
  8
0
 10
28.7227
 20
17.7145
 11
29.4379
 21
17.9469
  0
LINE
  8
0
 10
29.4379
 20
17.9469
 11
30.1884
 21
17.9941
  0
LINE
  8
0
 10
30.1884
 20
17.9941
 11
30.927
 21
17.8532
  0
LINE
  8
0
 10
30.927
 20
17.8532
 11
31.6075
 21
17.533
  0
LINE
  8
0
 10
31.6075
 20
17.533
 11
32.1869
 21
17.0536
  0
LINE
  8
0
 10
32.1869
 20
17.0536
 11
32.6289
 21
16.4453
  0
LINE
  8
0
 10
32.6289
 20
16.4453
 11
32.9057
 21
15.7461
  0
LINE
  8
0
 10
32.9057
 20
15.7461
 11
33
 21
15
  0
LINE
  8
0
 10
33
 20
15
 11
32.9057
 21
14.2539
  0
LINE
  8
0
 10
32.9057
 20
14.2539
 11
32.6289
 21
13.5547
  0
LINE
  8
0
 10
32.6289
 20
13.5547
 11
32.1869
 21
12.9464
  0
LINE
  8
0
 10
32.1869
 20
12.9464
 11
31.6075
 21
12.467
  0
LINE
  8
0
 10
31.6075
 20
12.467
 11
30.927
 21
12.1468
  0
LINE
  8
0
 10
30.927
 20
12.1468
 11
30.1884
 21
12.0059
  0
LINE
  8
0
 10
30.1884
 20
12.0059
 11
29.4379
 21
12.0531
  0
LINE
  8
0
 10
-0.562134
 20
12.0531
 11
-1.27733
 21
12.2855
  0
LINE
  8
0
 10
-1.27733
 20
12.2855
 11
-1.91226
 21
12.6884
  0
LINE
  8
0
 10
-1.91226
 20
12.6884
 11
-2.42705
 21
13.2366
  0
LINE
  8
0
 10
-2.42705
 20
13.2366
 11
-2.78932
 21
13.8956
  0
LINE
  8
0
 10
-2.78932
 20
13.8956
 11
-2.97633
 21
14.624
  0
LINE
  8
0
 10
-2.97633
 20
14.624
 11
-2.97633
 21
15.376
  0
LINE
  8
0
 10
-2.97633
 20
15.376
 11
-2.78932
 21
16.1044
  0
LINE
  8
0
 10
-2.78932
 20
16.1044
 11
-2.42705
 21
16.7634
  0
LINE
  8
0
 10
-2.42705
 20
16.7634
 11
-1.91226
 21
17.3115
  0
LINE
  8
0
 10
-1.91226
 20
17.3115
 11
-1.27733
 21
17.7145
  0
LINE
  8
0
 10
-1.27733
 20
17.7145
 11
-0.562134
 21
17.9469
  0
LINE
  8
0
 10
-0.562134
 20
17.9469
 11
0.18837
 21
17.9941
  0
LINE
  8
0
 10
0.18837
 20
17.9941
 11
0.927048
 21
17.8532
  0
LINE
  8
0
 10
0.927048
 20
17.8532
 11
1.60747
 21
17.533
  0
LINE
  8
0
 10
1.60747
 20
17.533
 11
2.1869
 21
17.0536
  0
LINE
  8
0
 10
2.1869
 20
17.0536
 11
2.62891
 21
16.4453
  0
LINE
  8
0
 10
2.62891
 20
16.4453
 11
2.90575
 21
15.7461
  0
LINE
  8
0
 10
2.90575
 20
15.7461
 11
3
 21
15
  0
LINE
  8
0
 10
3
 20
15
 11
2.90575
 21
14.2539
  0
LINE
  8
0
 10
2.90575
 20
14.2539
 11
2.62891
 21
13.5547
  0
LINE
  8
0
 10
2.62891
 20
13.5547
 11
2.1869
 21
12.9464
  0
LINE
  8
0
 10
2.1869
 20
12.9464
 11
1.60747
 21
12.467
  0
LINE
  8
0
 10
1.60747
 20
12.467
 11
0.927048
 21
12.1468
  0
LINE
  8
0
 10
0.927048
 20
12.1468
 11
0.18837
 21
12.0059
  0
LINE
  8
0
 10
0.18837
 20
12.0059
 11
-0.562134
 21
12.0531
  0
LINE
  8
0
 10
44.4379
 20
12.0531
 11
43.7227
 21
12.2855
  0
LINE
  8
0
 10
43.7227
 20
12.2855
 11
43.0877
 21
12.6884
  0
LINE
  8
0
 10
43.0877
 20
12.6884
 11
42.5729
 21
13.2366
  0
LINE
  8
0
 10
42.5729
 20
13.2366
 11
42.2107
 21
13.8956
  0
LINE
  8
0
 10
42.2107
 20
13.8956
 11
42.0237
 21
14.624
  0
LINE
  8
0
 10
42.0237
 20
14.624
 11
42.0237
 21
15.376
  0
LINE
  8
0
 10
42.0237
 20
15.376
 11
42.2107
 21
16.1044
  0
LINE
  8
0
 10
42.2107
 20
16.1044
 11
42.5729
 21
16.7634
  0
LINE
  8
0
 10
42.5729
 20
16.7634
 11
43.0877
 21
17.3115
  0
LINE
  8
0
 10
43.0877
 20
17.3115
 11
43.7227
 21
17.7145
  0
LINE
  8
0
 10
43.7227
 20
17.7145
 11
44.4379
 21
17.9469
  0
LINE
  8
0
 10
44.4379
 20
17.9469
 11
45.1884
 21
17.9941
  0
LINE
  8
0
 10
45.1884
 20
17.9941
 11
45.927
 21
17.8532
  0
LINE
  8
0
 10
45.927
 20
17.8532
 11
46.6075
 21
17.533
  0
LINE
  8
0
 10
46.6075
 20
17.533
 11
47.1869
 21
17.0536
  0
LINE
  8
0
 10
47.1869
 20
17.0536
 11
47.6289
 21
16.4453
  0
LINE
  8
0
 10
47.6289
 20
16.4453
 11
47.9057
 21
15.7461
  0
LINE
  8
0
 10
47.9057
 20
15.7461
 11
48
 21
15
  0
LINE
  8
0
 10
48
 20
15
 11
47.9057
 21
14.2539
  0
LINE
  8
0
 10
47.9057
 20
14.2539
 11
47.6289
 21
13.5547
  0
LINE
  8
0
 10
47.6289
 20
13.5547
 11
47.1869
 21
12.9464
  0
LINE
  8
0
 10
47.1869
 20
12.9464
 11
46.6075
 21
12.467
  0
LINE
  8
0
 10
46.6075
 20
12.467
 11
45.927
 21
12.1468
  0
LINE
  8
0
 10
45.927
 20
12.1468
 11
45.1884
 21
12.0059
  0
LINE
  8
0
 10
45.1884
 20
12.0059
 11
44.4379
 21
12.0531
  0
LINE
  8
0
 10
14.4379
 20
12.0531
 11
13.7227
 21
12.2855
  0
LINE
  8
0
 10
13.7227
 20
12.2855
 11
13.0877
 21
12.6884
  0
LINE
  8
0
 10
13.0877
 20
12.6884
 11
12.5729
 21
13.2366
  0
LINE
  8
0
 10
12.5729
 20
13.2366
 11
12.2107
 21
13.8956
  0
LINE
  8
0
 10
12.2107
 20
13.8956
 11
12.0237
 21
14.624
  0
LINE
  8
0
 10
12.0237
 20
14.624
 11
12.0237
 21
15.376
  0
LINE
  8
0
 10
12.0237
 20
15.376
 11
12.2107
 21
16.1044
  0
LINE
  8
0
 10
12.2107
 20
16.1044
 11
12.5729
 21
16.7634
  0
LINE
  8
0
 10
12.5729
 20
16.7634
 11
13.0877
 21
17.3115
  0
LINE
  8
0
 10
13.0877
 20
17.3115
 11
13.7227
 21
17.7145
  0
LINE
  8
0
 10
13.7227
 20
17.7145
 11
14.4379
 21
17.9469
  0
LINE
  8
0
 10
14.4379
 20
17.9469
 11
15.1884
 21
17.9941
  0
LINE
  8
0
 10
15.1884
 20
17.9941
 11
15.927
 21
17.8532
  0
LINE
  8
0
 10
15.927
 20
17.8532
 11
16.6075
 21
17.533
  0
LINE
  8
0
 10
16.6075
 20
17.533
 11
17.1869
 21
17.0536
  0
LINE
  8
0
 10
17.1869
 20
17.0536
 11
17.6289
 21
16.4453
  0
LINE
  8
0
 10
17.6289
 20
16.4453
 11
17.9057
 21
15.7461
  0
LINE
  8
0
 10
17.9057
 20
15.7461
 11
18
 21
15
  0
LINE
  8
0
 10
18
 20
15
 11
17.9057
 21
14.2539
  0
LINE
  8
0
 10
17.9057
 20
14.2539
 11
17.6289
 21
13.5547
  0
LINE
  8
0
 10
17.6289
 20
13.5547
 11
17.1869
 21
12.9464
  0
LINE
  8
0
 10
17.1869
 20
12.9464
 11
16.6075
 21
12.467
  0
LINE
  8
0
 10
16.6075
 20
12.467
 11
15.927
 21
12.1468
  0
LINE
  8
0
 10
15.927
 20
12.1468
 11
15.1884
 21
12.0059
  0
LINE
  8
0
 10
15.1884
 20
12.0059
 11
14.4379
 21
12.0531
  0
LINE
  8
0
 10
29.4379
 20
-2.94685
 11
28.7227
 21
-2.71448
  0
LINE
  8
0
 10
28.7227
 20
-2.71448
 11
28.0877
 21
-2.31154
  0
LINE
  8
0
 10
28.0877
 20
-2.31154
 11
27.5729
 21
-1.76335
  0
LINE
  8
0
 10
27.5729
 20
-1.76335
 11
27.2107
 21
-1.10437
  0
LINE
  8
0
 10
27.2107
 20
-1.10437
 11
27.0237
 21
-0.375992
  0
LINE
  8
0
 10
27.0237
 20
-0.375992
 11
27.0237
 21
0.375992
  0
LINE
  8
0
 10
27.0237
 20
0.375992
 11
27.2107
 21
1.10437
  0
LINE
  8
0
 10
27.2107
 20
1.10437
 11
27.5729
 21
1.76335
  0
LINE
  8
0
 10
27.5729
 20
1.76335
 11
28.0877
 21
2.31154
  0
LINE
  8
0
 10
28.0877
 20
2.31154
 11
28.7227
 21
2.71448
  0
LINE
  8
0
 10
28.7227
 20
2.71448
 11
29.4379
 21
2.94685
  0
LINE
  8
0
 10
29.4379
 20
2.94685
 11
30.1884
 21
2.99408
  0
LINE
  8
0
 10
30.1884
 20
2.99408
 11
30.927
 21
2.85316
  0
LINE
  8
0
 10
30.927
 20
2.85316
 11
31.6075
 21
2.53297
  0
LINE
  8
0
 10
31.6075
 20
2.53297
 11
32.1869
 21
2.05363
  0
LINE
  8
0
 10
32.1869
 20
2.05363
 11
32.6289
 21
1.44525
  0
LINE
  8
0
 10
32.6289
 20
1.44525
 11
32.9057
 21
0.746063
  0
LINE
  8
0
 10
32.9057
 20
0.746063
 11
33
 21
0
  0
LINE
  8
0
 10
33
 20
0
 11
32.9057
 21
-0.746063
  0
LINE
  8
0
 10
32.9057
 20
-0.746063
 11
32.6289
 21
-1.44525
  0
LINE
  8
0
 10
32.6289
 20
-1.44525
 11
32.1869
 21
-2.05363
  0
LINE
  8
0
 10
32.1869
 20
-2.05363
 11
31.6075
 21
-2.53297
  0
LINE
  8
0
 10
31.6075
 20
-2.53297
 11
30.927
 21
-2.85316
  0
LINE
  8
0
 10
30.927
 20
-2.85316
 11
30.1884
 21
-2.99408
  0
LINE
  8
0
 10
30.1884
 20
-2.99408
 11
29.4379
 21
-2.94685
  0
LINE
  8
0
 10
-15.5621
 20
-2.94685
 11
-16.2773
 21
-2.71448
  0
LINE
  8
0
 10
-16.2773
 20
-2.71448
 11
-16.9123
 21
-2.31154
  0
LINE
  8
0
 10
-16.9123
 20
-2.31154
 11
-17.427
 21
-1.76335
  0
LINE
  8
0
 10
-17.427
 20
-1.76335
 11
-17.7893
 21
-1.10437
  0
LINE
  8
0
 10
-17.7893
 20
-1.10437
 11
-17.9763
 21
-0.375992
  0
LINE
  8
0
 10
-17.9763
 20
-0.375992
 11
-17.9763
 21
0.375992
  0
LINE
  8
0
 10
-17.9763
 20
0.375992
 11
-17.7893
 21
1.10437
  0
LINE
  8
0
 10
-17.7893
 20
1.10437
 11
-17.427
 21
1.76335
  0
LINE
  8
0
 10
-17.427
 20
1.76335
 11
-16.9123
 21
2.31154
  0
LINE
  8
0
 10
-16.9123
 20
2.31154
 11
-16.2773
 21
2.71448
  0
LINE
  8
0
 10
-16.2773
 20
2.71448
 11
-15.5621
 21
2.94685
  0
LINE
  8
0
 10
-15.5621
 20
2.94685
 11
-14.8116
 21
2.99408
  0
LINE
  8
0
 10
-14.8116
 20
2.99408
 11
-14.0729
 21
2.85316
  0
LINE
  8
0
 10
-14.0729
 20
2.85316
 11
-13.3925
 21
2.53297
  0
LINE
  8
0
 10
-13.3925
 20
2.53297
 11
-12.8131
 21
2.05363
  0
LINE
  8
0
 10
-12.8131
 20
2.05363
 11
-12.3711
 21
1.44525
  0
LINE
  8
0
 10
-12.3711
 20
1.44525
 11
-12.0942
 21
0.746063
  0
LINE
  8
0
 10
-12.0942
 20
0.746063
 11
-12
 21
0
  0
LINE
  8
0
 10
-12
 20
0
 11
-12.0942
 21
-0.746063
  0
LINE
  8
0
 10
-12.0942
 20
-0.746063
 11
-12.3711
 21
-1.44525
  0
LINE
  8
0
 10
-12.3711
 20
-1.44525
 11
-12.8131
 21
-2.05363
  0
LINE
  8
0
 10
-12.8131
 20
-2.05363
 11
-13.3925
 21
-2.53297
  0
LINE
  8
0
 10
-13.3925
 20
-2.53297
 11
-14.0729
 21
-2.85316
  0
LINE
  8
0
 10
-14.0729
 20
-2.85316
 11
-14.8116
 21
-2.99408
  0
LINE
  8
0
 10
-14.8116
 20
-2.99408
 11
-15.5621
 21
-2.94685
  0
LINE
  8
0
 10
-45.5621
 20
-2.94685
 11
-46.2773
 21
-2.71448
  0
LINE
  8
0
 10
-46.2773
 20
-2.71448
 11
-46.9123
 21
-2.31154
  0
LINE
  8
0
 10
-46.9123
 20
-2.31154
 11
-47.427
 21
-1.76335
  0
LINE
  8
0
 10
-47.427
 20
-1.76335
 11
-47.7893
 21
-1.10437
  0
LINE
  8
0
 10
-47.7893
 20
-1.10437
 11
-47.9763
 21
-0.375992
  0
LINE
  8
0
 10
-47.9763
 20
-0.375992
 11
-47.9763
 21
0.375992
  0
LINE
  8
0
 10
-47.9763
 20
0.375992
 11
-47.7893
 21
1.10437
  0
LINE
  8
0
 10
-47.7893
 20
1.10437
 11
-47.427
 21
1.76335
  0
LINE
  8
0
 10
-47.427
 20
1.76335
 11
-46.9123
 21
2.31154
  0
LINE
  8
0
 10
-46.9123
 20
2.31154
 11
-46.2773
 21
2.71448
  0
LINE
  8
0
 10
-46.2773
 20
2.71448
 11
-45.5621
 21
2.94685
  0
LINE
  8
0
 10
-45.5621
 20
2.94685
 11
-44.8116
 21
2.99408
  0
LINE
  8
0
 10
-44.8116
 20
2.99408
 11
-44.0729
 21
2.85316
  0
LINE
  8
0
 10
-44.0729
 20
2.85316
 11
-43.3925
 21
2.53297
  0
LINE
  8
0
 10
-43.3925
 20
2.53297
 11
-42.8131
 21
2.05363
  0
LINE
  8
0
 10
-42.8131
 20
2.05363
 11
-42.3711
 21
1.44525
  0
LINE
  8
0
 10
-42.3711
 20
1.44525
 11
-42.0942
 21
0.746063
  0
LINE
  8
0
 10
-42.0942
 20
0.746063
 11
-42
 21
0
  0
LINE
  8
0
 10
-42
 20
0
 11
-42.0942
 21
-0.746063
  0
LINE
  8
0
 10
-42.0942
 20
-0.746063
 11
-42.3711
 21
-1.44525
  0
LINE
  8
0
 10
-42.3711
 20
-1.44525
 11
-42.8131
 21
-2.05363
  0
LINE
  8
0
 10
-42.8131
 20
-2.05363
 11
-43.3925
 21
-2.53297
  0
LINE
  8
0
 10
-43.3925
 20
-2.53297
 11
-44.0729
 21
-2.85316
  0
LINE
  8
0
 10
-44.0729
 20
-2.85316
 11
-44.8116
 21
-2.99408
  0
LINE
  8
0
 10
-44.8116
 20
-2.99408
 11
-45.5621
 21
-2.94685
  0
LINE
  8
0
 10
44.4379
 20
-2.94685
 11
43.7227
 21
-2.71448
  0
LINE
  8
0
 10
43.7227
 20
-2.71448
 11
43.0877
 21
-2.31154
  0
LINE
  8
0
 10
43.0877
 20
-2.31154
 11
42.5729
 21
-1.76335
  0
LINE
  8
0
 10
42.5729
 20
-1.76335
 11
42.2107
 21
-1.10437
  0
LINE
  8
0
 10
42.2107
 20
-1.10437
 11
42.0237
 21
-0.375992
  0
LINE
  8
0
 10
42.0237
 20
-0.375992
 11
42.0237
 21
0.375992
  0
LINE
  8
0
 10
42.0237
 20
0.375992
 11
42.2107
 21
1.10437
  0
LINE
  8
0
 10
42.2107
 20
1.10437
 11
42.5729
 21
1.76335
  0
LINE
  8
0
 10
42.5729
 20
1.76335
 11
43.0877
 21
2.31154
  0
LINE
  8
0
 10
43.0877
 20
2.31154
 11
43.7227
 21
2.71448
  0
LINE
  8
0
 10
43.7227
 20
2.71448
 11
44.4379
 21
2.94685
  0
LINE
  8
0
 10
44.4379
 20
2.94685
 11
45.1884
 21
2.99408
  0
LINE
  8
0
 10
45.1884
 20
2.99408
 11
45.927
 21
2.85316
  0
LINE
  8
0
 10
45.927
 20
2.85316
 11
46.6075
 21
2.53297
  0
LINE
  8
0
 10
46.6075
 20
2.53297
 11
47.1869
 21
2.05363
  0
LINE
  8
0
 10
47.1869
 20
2.05363
 11
47.6289
 21
1.44525
  0
LINE
  8
0
 10
47.6289
 20
1.44525
 11
47.9057
 21
0.746063
  0
LINE
  8
0
 10
47.9057
 20
0.746063
 11
48
 21
0
  0
LINE
  8
0
 10
48
 20
0
 11
47.9057
 21
-0.746063
  0
LINE
  8
0
 10
47.9057
 20
-0.746063
 11
47.6289
 21
-1.44525
  0
LINE
  8
0
 10
47.6289
 20
-1.44525
 11
47.1869
 21
-2.05363
  0
LINE
  8
0
 10
47.1869
 20
-2.05363
 11
46.6075
 21
-2.53297
  0
LINE
  8
0
 10
46.6075
 20
-2.53297
 11
45.927
 21
-2.85316
  0
LINE
  8
0
 10
45.927
 20
-2.85316
 11
45.1884
 21
-2.99408
  0
LINE
  8
0
 10
45.1884
 20
-2.99408
 11
44.4379
 21
-2.94685
  0
LINE
  8
0
 10
-0.562134
 20
-2.94685
 11
-1.27733
 21
-2.71448
  0
LINE
  8
0
 10
-1.27733
 20
-2.71448
 11
-1.91226
 21
-2.31154
  0
LINE
  8
0
 10
-1.91226
 20
-2.31154
 11
-2.42705
 21
-1.76335
  0
LINE
  8
0
 10
-2.42705
 20
-1.76335
 11
-2.78932
 21
-1.10437
  0
LINE
  8
0
 10
-2.78932
 20
-1.10437
 11
-2.97633
 21
-0.375992
  0
LINE
  8
0
 10
-2.97633
 20
-0.375992
 11
-2.97633
 21
0.375992
  0
LINE
  8
0
 10
-2.97633
 20
0.375992
 11
-2.78932
 21
1.10437
  0
LINE
  8
0
 10
-2.78932
 20
1.10437
 11
-2.42705
 21
1.76335
  0
LINE
  8
0
 10
-2.42705
 20
1.76335
 11
-1.91226
 21
2.31154
  0
LINE
  8
0
 10
-1.91226
 20
2.31154
 11
-1.27733
 21
2.71448
  0
LINE
  8
0
 10
-1.27733
 20
2.71448
 11
-0.562134
 21
2.94685
  0
LINE
  8
0
 10
-0.562134
 20
2.94685
 11
0.18837
 21
2.99408
  0
LINE
  8
0
 10
0.18837
 20
2.99408
 11
0.927048
 21
2.85316
  0
LINE
  8
0
 10
0.927048
 20
2.85316
 11
1.60747
 21
2.53297
  0
LINE
  8
0
 10
1.60747
 20
2.53297
 11
2.1869
 21
2.05363
  0
LINE
  8
0
 10
2.1869
 20
2.05363
 11
2.62891
 21
1.44525
  0
LINE
  8
0
 10
2.62891
 20
1.44525
 11
2.90575
 21
0.746063
  0
LINE
  8
0
 10
2.90575
 20
0.746063
 11
3
 21
0
  0
LINE
  8
0
 10
3
 20
0
 11
2.90575
 21
-0.746063
  0
LINE
  8
0
 10
2.90575
 20
-0.746063
 11
2.62891
 21
-1.44525
  0
LINE
  8
0
 10
2.62891
 20
-1.44525
 11
2.1869
 21
-2.05363
  0
LINE
  8
0
 10
2.1869
 20
-2.05363
 11
1.60747
 21
-2.53297
  0
LINE
  8
0
 10
1.60747
 20
-2.53297
 11
0.927048
 21
-2.85316
  0
LINE
  8
0
 10
0.927048
 20
-2.85316
 11
0.18837
 21
-2.99408
  0
LINE
  8
0
 10
0.18837
 20
-2.99408
 11
-0.562134
 21
-2.94685
  0
LINE
  8
0
 10
14.4379
 20
-2.94685
 11
13.7227
 21
-2.71448
  0
LINE
  8
0
 10
13.7227
 20
-2.71448
 11
13.0877
 21
-2.31154
  0
LINE
  8
0
 10
13.0877
 20
-2.31154
 11
12.5729
 21
-1.76335
  0
LINE
  8
0
 10
12.5729
 20
-1.76335
 11
12.2107
 21
-1.10437
  0
LINE
  8
0
 10
12.2107
 20
-1.10437
 11
12.0237
 21
-0.375992
  0
LINE
  8
0
 10
12.0237
 20
-0.375992
 11
12.0237
 21
0.375992
  0
LINE
  8
0
 10
12.0237
 20
0.375992
 11
12.2107
 21
1.10437
  0
LINE
  8
0
 10
12.2107
 20
1.10437
 11
12.5729
 21
1.76335
  0
LINE
  8
0
 10
12.5729
 20
1.76335
 11
13.0877
 21
2.31154
  0
LINE
  8
0
 10
13.0877
 20
2.31154
 11
13.7227
 21
2.71448
  0
LINE
  8
0
 10
13.7227
 20
2.71448
 11
14.4379
 21
2.94685
  0
LINE
  8
0
 10
14.4379
 20
2.94685
 11
15.1884
 21
2.99408
  0
LINE
  8
0
 10
15.1884
 20
2.99408
 11
15.927
 21
2.85316
  0
LINE
  8
0
 10
15.927
 20
2.85316
 11
16.6075
 21
2.53297
  0
LINE
  8
0
 10
16.6075
 20
2.53297
 11
17.1869
 21
2.05363
  0
LINE
  8
0
 10
17.1869
 20
2.05363
 11
17.6289
 21
1.44525
  0
LINE
  8
0
 10
17.6289
 20
1.44525
 11
17.9057
 21
0.746063
  0
LINE
  8
0
 10
17.9057
 20
0.746063
 11
18
 21
0
  0
LINE
  8
0
 10
18
 20
0
 11
17.9057
 21
-0.746063
  0
LINE
  8
0
 10
17.9057
 20
-0.746063
 11
17.6289
 21
-1.44525
  0
LINE
  8
0
 10
17.6289
 20
-1.44525
 11
17.1869
 21
-2.05363
  0
LINE
  8
0
 10
17.1869
 20
-2.05363
 11
16.6075
 21
-2.53297
  0
LINE
  8
0
 10
16.6075
 20
-2.53297
 11
15.927
 21
-2.85316
  0
LINE
  8
0
 10
15.927
 20
-2.85316
 11
15.1884
 21
-2.99408
  0
LINE
  8
0
 10
15.1884
 20
-2.99408
 11
14.4379
 21
-2.94685
  0
LINE
  8
0
 10
-30.5621
 20
-2.94685
 11
-31.2773
 21
-2.71448
  0
LINE
  8
0
 10
-31.2773
 20
-2.71448
 11
-31.9123
 21
-2.31154
  0
LINE
  8
0
 10
-31.9123
 20
-2.31154
 11
-32.427
 21
-1.76335
  0
LINE
  8
0
 10
-32.427
 20
-1.76335
 11
-32.7893
 21
-1.10437
  0
LINE
  8
0
 10
-32.7893
 20
-1.10437
 11
-32.9763
 21
-0.375992
  0
LINE
  8
0
 10
-32.9763
 20
-0.375992
 11
-32.9763
 21
0.375992
  0
LINE
  8
0
 10
-32.9763
 20
0.375992
 11
-32.7893
 21
1.10437
  0
LINE
  8
0
 10
-32.7893
 20
1.10437
 11
-32.427
 21
1.76335
  0
LINE
  8
0
 10
-32.427
 20
1.76335
 11
-31.9123
 21
2.31154
  0
LINE
  8
0
 10
-31.9123
 20
2.31154
 11
-31.2773
 21
2.71448
  0
LINE
  8
0
 10
-31.2773
 20
2.71448
 11
-30.5621
 21
2.94685
  0
LINE
  8
0
 10
-30.5621
 20
2.94685
 11
-29.8116
 21
2.99408
  0
LINE
  8
0
 10
-29.8116
 20
2.99408
 11
-29.0729
 21
2.85316
  0
LINE
  8
0
 10
-29.0729
 20
2.85316
 11
-28.3925
 21
2.53297
  0
LINE
  8
0
 10
-28.3925
 20
2.53297
 11
-27.8131
 21
2.05363
  0
LINE
  8
0
 10
-27.8131
 20
2.05363
 11
-27.3711
 21
1.44525
  0
LINE
  8
0
 10
-27.3711
 20
1.44525
 11
-27.0942
 21
0.746063
  0
LINE
  8
0
 10
-27.0942
 20
0.746063
 11
-27
 21
0
  0
LINE
  8
0
 10
-27
 20
0
 11
-27.0942
 21
-0.746063
  0
LINE
  8
0
 10
-27.0942
 20
-0.746063
 11
-27.3711
 21
-1.44525
  0
LINE
  8
0
 10
-27.3711
 20
-1.44525
 11
-27.8131
 21
-2.05363
  0
LINE
  8
0
 10
-27.8131
 20
-2.05363
 11
-28.3925
 21
-2.53297
  0
LINE
  8
0
 10
-28.3925
 20
-2.53297
 11
-29.0729
 21
-2.85316
  0
LINE
  8
0
 10
-29.0729
 20
-2.85316
 11
-29.8116
 21
-2.99408
  0
LINE
  8
0
 10
-29.8116
 20
-2.99408
 11
-30.5621
 21
-2.94685
  0
LINE
  8
0
 10
-30.5621
 20
-17.9469
 11
-31.2773
 21
-17.7145
  0
LINE
  8
0
 10
-31.2773
 20
-17.7145
 11
-31.9123
 21
-17.3115
  0
LINE
  8
0
 10
-31.9123
 20
-17.3115
 11
-32.427
 21
-16.7634
  0
LINE
  8
0
 10
-32.427
 20
-16.7634
 11
-32.7893
 21
-16.1044
  0
LINE
  8
0
 10
-32.7893
 20
-16.1044
 11
-32.9763
 21
-15.376
  0
LINE
  8
0
 10
-32.9763
 20
-15.376
 11
-32.9763
 21
-14.624
  0
LINE
  8
0
 10
-32.9763
 20
-14.624
 11
-32.7893
 21
-13.8956
  0
LINE
  8
0
 10
-32.7893
 20
-13.8956
 11
-32.427
 21
-13.2366
  0
LINE
  8
0
 10
-32.427
 20
-13.2366
 11
-31.9123
 21
-12.6884
  0
LINE
  8
0
 10
-31.9123
 20
-12.6884
 11
-31.2773
 21
-12.2855
  0
LINE
  8
0
 10
-31.2773
 20
-12.2855
 11
-30.5621
 21
-12.0531
  0
LINE
  8
0
 10
-30.5621
 20
-12.0531
 11
-29.8116
 21
-12.0059
  0
LINE
  8
0
 10
-29.8116
 20
-12.0059
 11
-29.0729
 21
-12.1468
  0
LINE
  8
0
 10
-29.0729
 20
-12.1468
 11
-28.3925
 21
-12.467
  0
LINE
  8
0
 10
-28.3925
 20
-12.467
 11
-27.8131
 21
-12.9464
  0
LINE
  8
0
 10
-27.8131
 20
-12.9464
 11
-27.3711
 21
-13.5547
  0
LINE
  8
0
 10
-27.3711
 20
-13.5547
 11
-27.0942
 21
-14.2539
  0
LINE
  8
0
 10
-27.0942
 20
-14.2539
 11
-27
 21
-15
  0
LINE
  8
0
 10
-27
 20
-15
 11
-27.0942
 21
-15.7461
  0
LINE
  8
0
 10
-27.0942
 20
-15.7461
 11
-27.3711
 21
-16.4453
  0
LINE
  8
0
 10
-27.3711
 20
-16.4453
 11
-27.8131
 21
-17.0536
  0
LINE
  8
0
 10
-27.8131
 20
-17.0536
 11
-28.3925
 21
-17.533
  0
LINE
  8
0
 10
-28.3925
 20
-17.533
 11
-29.0729
 21
-17.8532
  0
LINE
  8
0
 10
-29.0729
 20
-17.8532
 11
-29.8116
 21
-17.9941
  0
LINE
  8
0
 10
-29.8116
 20
-17.9941
 11
-30.5621
 21
-17.9469
  0
LINE
  8
0
 10
44.4379
 20
-17.9469
 11
43.7227
 21
-17.7145
  0
LINE
  8
0
 10
43.7227
 20
-17.7145
 11
43.0877
 21
-17.3115
  0
LINE
  8
0
 10
43.0877
 20
-17.3115
 11
42.5729
 21
-16.7634
  0
LINE
  8
0
 10
42.5729
 20
-16.7634
 11
42.2107
 21
-16.1044
  0
LINE
  8
0
 10
42.2107
 20
-16.1044
 11
42.0237
 21
-15.376
  0
LINE
  8
0
 10
42.0237
 20
-15.376
 11
42.0237
 21
-14.624
  0
LINE
  8
0
 10
42.0237
 20
-14.624
 11
42.2107
 21
-13.8956
  0
LINE
  8
0
 10
42.2107
 20
-13.8956
 11
42.5729
 21
-13.2366
  0
LINE
  8
0
 10
42.5729
 20
-13.2366
 11
43.0877
 21
-12.6884
  0
LINE
  8
0
 10
43.0877
 20
-12.6884
 11
43.7227
 21
-12.2855
  0
LINE
  8
0
 10
43.7227
 20
-12.2855
 11
44.4379
 21
-12.0531
  0
LINE
  8
0
 10
44.4379
 20
-12.0531
 11
45.1884
 21
-12.0059
  0
LINE
  8
0
 10
45.1884
 20
-12.0059
 11
45.927
 21
-12.1468
  0
LINE
  8
0
 10
45.927
 20
-12.1468
 11
46.6075
 21
-12.467
  0
LINE
  8
0
 10
46.6075
 20
-12.467
 11
47.1869
 21
-12.9464
  0
LINE
  8
0
 10
47.1869
 20
-12.9464
 11
47.6289
 21
-13.5547
  0
LINE
  8
0
 10
47.6289
 20
-13.5547
 11
47.9057
 21
-14.2539
  0
LINE
  8
0
 10
47.9057
 20
-14.2539
 11
48
 21
-15
  0
LINE
  8
0
 10
48
 20
-15
 11
47.9057
 21
-15.7461
  0
LINE
  8
0
 10
47.9057
 20
-15.7461
 11
47.6289
 21
-16.4453
  0
LINE
  8
0
 10
47.6289
 20
-16.4453
 11
47.1869
 21
-17.0536
  0
LINE
  8
0
 10
47.1869
 20
-17.0536
 11
46.6075
 21
-17.533
  0
LINE
  8
0
 10
46.6075
 20
-17.533
 11
45.927
 21
-17.8532
  0
LINE
  8
0
 10
45.927
 20
-17.8532
 11
45.1884
 21
-17.9941
  0
LINE
  8
0
 10
45.1884
 20
-17.9941
 11
44.4379
 21
-17.9469
  0
LINE
  8
0
 10
29.4379
 20
-17.9469
 11
28.7227
 21
-17.7145
  0
LINE
  8
0
 10
28.7227
 20
-17.7145
 11
28.0877
 21
-17.3115
  0
LINE
  8
0
 10
28.0877
 20
-17.3115
 11
27.5729
 21
-16.7634
  0
LINE
  8
0
 10
27.5729
 20
-16.7634
 11
27.2107
 21
-16.1044
  0
LINE
  8
0
 10
27.2107
 20
-16.1044
 11
27.0237
 21
-15.376
  0
LINE
  8
0
 10
27.0237
 20
-15.376
 11
27.0237
 21
-14.624
  0
LINE
  8
0
 10
27.0237
 20
-14.624
 11
27.2107
 21
-13.8956
  0
LINE
  8
0
 10
27.2107
 20
-13.8956
 11
27.5729
 21
-13.2366
  0
LINE
  8
0
 10
27.5729
 20
-13.2366
 11
28.0877
 21
-12.6884
  0
LINE
  8
0
 10
28.0877
 20
-12.6884
 11
28.7227
 21
-12.2855
  0
LINE
  8
0
 10
28.7227
 20
-12.2855
 11
29.4379
 21
-12.0531
  0
LINE
  8
0
 10
29.4379
 20
-12.0531
 11
30.1884
 21
-12.0059
  0
LINE
  8
0
 10
30.1884
 20
-12.0059
 11
30.927
 21
-12.1468
  0
LINE
  8
0
 10
30.927
 20
-12.1468
 11
31.6075
 21
-12.467
  0
LINE
  8
0
 10
31.6075
 20
-12.467
 11
32.1869
 21
-12.9464
  0
LINE
  8
0
 10
32.1869
 20
-12.9464
 11
32.6289
 21
-13.5547
  0
LINE
  8
0
 10
32.6289
 20
-13.5547
 11
32.9057
 21
-14.2539
  0
LINE
  8
0
 10
32.9057
 20
-14.2539
 11
33
 21
-15
  0
LINE
  8
0
 10
33
 20
-15
 11
32.9057
 21
-15.7461
  0
LINE
  8
0
 10
32.9057
 20
-15.7461
 11
32.6289
 21
-16.4453
  0
LINE
  8
0
 10
32.6289
 20
-16.4453
 11
32.1869
 21
-17.0536
  0
LINE
  8
0
 10
32.1869
 20
-17.0536
 11
31.6075
 21
-17.533
  0
LINE
  8
0
 10
31.6075
 20
-17.533
 11
30.927
 21
-17.8532
  0
LINE
  8
0
 10
30.927
 20
-17.8532
 11
30.1884
 21
-17.9941
  0
LINE
  8
0
 10
30.1884
 20
-17.9941
 11
29.4379
 21
-17.9469
  0
LINE
  8
0
 10
-0.562134
 20
-17.9469
 11
-1.27733
 21
-17.7145
  0
LINE
  8
0
 10
-1.27733
 20
-17.7145
 11
-1.91226
 21
-17.3115
  0
LINE
  8
0
 10
-1.91226
 20
-17.3115
 11
-2.42705
 21
-16.7634
  0
LINE
  8
0
 10
-2.42705
 20
-16.7634
 11
-2.78932
 21
-16.1044
  0
LINE
  8
0
 10
-2.78932
 20
-16.1044
 11
-2.97633
 21
-15.376
  0
LINE
  8
0
 10
-2.97633
 20
-15.376
 11
-2.97633
 21
-14.624
  0
LINE
  8
0
 10
-2.97633
 20
-14.624
 11
-2.78932
 21
-13.8956
  0
LINE
  8
0
 10
-2.78932
 20
-13.8956
 11
-2.42705
 21
-13.2366
  0
LINE
  8
0
 10
-2.42705
 20
-13.2366
 11
-1.91226
 21
-12.6884
  0
LINE
  8
0
 10
-1.91226
 20
-12.6884
 11
-1.27733
 21
-12.2855
  0
LINE
  8
0
 10
-1.27733
 20
-12.2855
 11
-0.562134
 21
-12.0531
  0
LINE
  8
0
 10
-0.562134
 20
-12.0531
 11
0.18837
 21
-12.0059
  0
LINE
  8
0
 10
0.18837
 20
-12.0059
 11
0.927048
 21
-12.1468
  0
LINE
  8
0
 10
0.927048
 20
-12.1468
 11
1.60747
 21
-12.467
  0
LINE
  8
0
 10
1.60747
 20
-12.467
 11
2.1869
 21
-12.9464
  0
LINE
  8
0
 10
2.1869
 20
-12.9464
 11
2.62891
 21
-13.5547
  0
LINE
  8
0
 10
2.62891
 20
-13.5547
 11
2.90575
 21
-14.2539
  0
LINE
  8
0
 10
2.90575
 20
-14.2539
 11
3
 21
-15
  0
LINE
  8
0
 10
3
 20
-15
 11
2.90575
 21
-15.7461
  0
LINE
  8
0
 10
2.90575
 20
-15.7461
 11
2.62891
 21
-16.4453
  0
LINE
  8
0
 10
2.62891
 20
-16.4453
 11
2.1869
 21
-17.0536
  0
LINE
  8
0
 10
2.1869
 20
-17.0536
 11
1.60747
 21
-17.533
  0
LINE
  8
0
 10
1.60747
 20
-17.533
 11
0.927048
 21
-17.8532
  0
LINE
  8
0
 10
0.927048
 20
-17.8532
 11
0.18837
 21
-17.9941
  0
LINE
  8
0
 10
0.18837
 20
-17.9941
 11
-0.562134
 21
-17.9469
  0
LINE
  8
0
 10
14.4379
 20
-17.9469
 11
13.7227
 21
-17.7145
  0
LINE
  8
0
 10
13.7227
 20
-17.7145
 11
13.0877
 21
-17.3115
  0
LINE
  8
0
 10
13.0877
 20
-17.3115
 11
12.5729
 21
-16.7634
  0
LINE
  8
0
 10
12.5729
 20
-16.7634
 11
12.2107
 21
-16.1044
  0
LINE
  8
0
 10
12.2107
 20
-16.1044
 11
12.0237
 21
-15.376
  0
LINE
  8
0
 10
12.0237
 20
-15.376
 11
12.0237
 21
-14.624
  0
LINE
  8
0
 10
12.0237
 20
-14.624
 11
12.2107
 21
-13.8956
  0
LINE
  8
0
 10
12.2107
 20
-13.8956
 11
12.5729
 21
-13.2366
  0
LINE
  8
0
 10
12.5729
 20
-13.2366
 11
13.0877
 21
-12.6884
  0
LINE
  8
0
 10
13.0877
 20
-12.6884
 11
13.7227
 21
-12.2855
  0
LINE
  8
0
 10
13.7227
 20
-12.2855
 11
14.4379
 21
-12.0531
  0
LINE
  8
0
 10
14.4379
 20
-12.0531
 11
15.1884
 21
-12.0059
  0
LINE
  8
0
 10
15.1884
 20
-12.0059
 11
15.927
 21
-12.1468
  0
LINE
  8
0
 10
15.927
 20
-12.1468
 11
16.6075
 21
-12.467
  0
LINE
  8
0
 10
16.6075
 20
-12.467
 11
17.1869
 21
-12.9464
  0
LINE
  8
0
 10
17.1869
 20
-12.9464
 11
17.6289
 21
-13.5547
  0
LINE
  8
0
 10
17.6289
 20
-13.5547
 11
17.9057
 21
-14.2539
  0
LINE
  8
0
 10
17.9057
 20
-14.2539
 11
18
 21
-15
  0
LINE
  8
0
 10
18
 20
-15
 11
17.9057
 21
-15.7461
  0
LINE
  8
0
 10
17.9057
 20
-15.7461
 11
17.6289
 21
-16.4453
  0
LINE
  8
0
 10
17.6289
 20
-16.4453
 11
17.1869
 21
-17.0536
  0
LINE
  8
0
 10
17.1869
 20
-17.0536
 11
16.6075
 21
-17.533
  0
LINE
  8
0
 10
16.6075
 20
-17.533
 11
15.927
 21
-17.8532
  0
LINE
  8
0
 10
15.927
 20
-17.8532
 11
15.1884
 21
-17.9941
  0
LINE
  8
0
 10
15.1884
 20
-17.9941
 11
14.4379
 21
-17.9469
  0
LINE
  8
0
 10
-15.5621
 20
-17.9469
 11
-16.2773
 21
-17.7145
  0
LINE
  8
0
 10
-16.2773
 20
-17.7145
 11
-16.9123
 21
-17.3115
  0
LINE
  8
0
 10
-16.9123
 20
-17.3115
 11
-17.427
 21
-16.7634
  0
LINE
  8
0
 10
-17.427
 20
-16.7634
 11
-17.7893
 21
-16.1044
  0
LINE
  8
0
 10
-17.7893
 20
-16.1044
 11
-17.9763
 21
-15.376
  0
LINE
  8
0
 10
-17.9763
 20
-15.376
 11
-17.9763
 21
-14.624
  0
LINE
  8
0
 10
-17.9763
 20
-14.624
 11
-17.7893
 21
-13.8956
  0
LINE
  8
0
 10
-17.7893
 20
-13.8956
 11
-17.427
 21
-13.2366
  0
LINE
  8
0
 10
-17.427
 20
-13.2366
 11
-16.9123
 21
-12.6884
  0
LINE
  8
0
 10
-16.9123
 20
-12.6884
 11
-16.2773
 21
-12.2855
  0
LINE
  8
0
 10
-16.2773
 20
-12.2855
 11
-15.5621
 21
-12.0531
  0
LINE
  8
0
 10
-15.5621
 20
-12.0531
 11
-14.8116
 21
-12.0059
  0
LINE
  8
0
 10
-14.8116
 20
-12.0059
 11
-14.0729
 21
-12.1468
  0
LINE
  8
0
 10
-14.0729
 20
-12.1468
 11
-13.3925
 21
-12.467
  0
LINE
  8
0
 10
-13.3925
 20
-12.467
 11
-12.8131
 21
-12.9464
  0
LINE
  8
0
 10
-12.8131
 20
-12.9464
 11
-12.3711
 21
-13.5547
  0
LINE
  8
0
 10
-12.3711
 20
-13.5547
 11
-12.0942
 21
-14.2539
  0
LINE
  8
0
 10
-12.0942
 20
-14.2539
 11
-12
 21
-15
  0
LINE
  8
0
 10
-12
 20
-15
 11
-12.0942
 21
-15.7461
  0
LINE
  8
0
 10
-12.0942
 20
-15.7461
 11
-12.3711
 21
-16.4453
  0
LINE
  8
0
 10
-12.3711
 20
-16.4453
 11
-12.8131
 21
-17.0536
  0
LINE
  8
0
 10
-12.8131
 20
-17.0536
 11
-13.3925
 21
-17.533
  0
LINE
  8
0
 10
-13.3925
 20
-17.533
 11
-14.0729
 21
-17.8532
  0
LINE
  8
0
 10
-14.0729
 20
-17.8532
 11
-14.8116
 21
-17.9941
  0
LINE
  8
0
 10
-14.8116
 20
-17.9941
 11
-15.5621
 21
-17.9469
  0
LINE
  8
0
 10
-45.5621
 20
-17.9469
 11
-46.2773
 21
-17.7145
  0
LINE
  8
0
 10
-46.2773
 20
-17.7145
 11
-46.9123
 21
-17.3115
  0
LINE
  8
0
 10
-46.9123
 20
-17.3115
 11
-47.427
 21
-16.7634
  0
LINE
  8
0
 10
-47.427
 20
-16.7634
 11
-47.7893
 21
-16.1044
  0
LINE
  8
0
 10
-47.7893
 20
-16.1044
 11
-47.9763
 21
-15.376
  0
LINE
  8
0
 10
-47.9763
 20
-15.376
 11
-47.9763
 21
-14.624
  0
LINE
  8
0
 10
-47.9763
 20
-14.624
 11
-47.7893
 21
-13.8956
  0
LINE
  8
0
 10
-47.7893
 20
-13.8956
 11
-47.427
 21
-13.2366
  0
LINE
  8
0
 10
-47.427
 20
-13.2366
 11
-46.9123
 21
-12.6884
  0
LINE
  8
0
 10
-46.9123
 20
-12.6884
 11
-46.2773
 21
-12.2855
  0
LINE
  8
0
 10
-46.2773
 20
-12.2855
 11
-45.5621
 21
-12.0531
  0
LINE
  8
0
 10
-45.5621
 20
-12.0531
 11
-44.8116
 21
-12.0059
  0
LINE
  8
0
 10
-44.8116
 20
-12.0059
 11
-44.0729
 21
-12.1468
  0
LINE
  8
0
 10
-44.0729
 20
-12.1468
 11
-43.3925
 21
-12.467
  0
LINE
  8
0
 10
-43.3925
 20
-12.467
 11
-42.8131
 21
-12.9464
  0
LINE
  8
0
 10
-42.8131
 20
-12.9464
 11
-42.3711
 21
-13.5547
  0
LINE
  8
0
 10
-42.3711
 20
-13.5547
 11
-42.0942
 21
-14.2539
  0
LINE
  8
0
 10
-42.0942
 20
-14.2539
 11
-42
 21
-15
  0
LINE
  8
0
 10
-42
 20
-15
 11
-42.0942
 21
-15.7461
  0
LINE
  8
0
 10
-42.0942
 20
-15.7461
 11
-42.3711
 21
-16.4453
  0
LINE
  8
0
 10
-42.3711
 20
-16.4453
 11
-42.8131
 21
-17.0536
  0
LINE
  8
0
 10
-42.8131
 20
-17.0536
 11
-43.3925
 21
-17.533
  0
LINE
  8
0
 10
-43.3925
 20
-17.533
 11
-44.0729
 21
-17.8532
  0
LINE
  8
0
 10
-44.0729
 20
-17.8532
 11
-44.8116
 21
-17.9941
  0
LINE
  8
0
 10
-44.8116
 20
-17.9941
 11
-45.5621
 21
-17.9469
  0
LINE
  8
0
 10
-0.562134
 20
-32.9469
 11
-1.27733
 21
-32.7145
  0
LINE
  8
0
 10
-1.27733
 20
-32.7145
 11
-1.91226
 21
-32.3115
  0
LINE
  8
0
 10
-1.91226
 20
-32.3115
 11
-2.42705
 21
-31.7634
  0
LINE
  8
0
 10
-2.42705
 20
-31.7634
 11
-2.78932
 21
-31.1044
  0
LINE
  8
0
 10
-2.78932
 20
-31.1044
 11
-2.97633
 21
-30.376
  0
LINE
  8
0
 10
-2.97633
 20
-30.376
 11
-2.97633
 21
-29.624
  0
LINE
  8
0
 10
-2.97633
 20
-29.624
 11
-2.78932
 21
-28.8956
  0
LINE
  8
0
 10
-2.78932
 20
-28.8956
 11
-2.42705
 21
-28.2366
  0
LINE
  8
0
 10
-2.42705
 20
-28.2366
 11
-1.91226
 21
-27.6884
  0
LINE
  8
0
 10
-1.91226
 20
-27.6884
 11
-1.27733
 21
-27.2855
  0
LINE
  8
0
 10
-1.27733
 20
-27.2855
 11
-0.562134
 21
-27.0531
  0
LINE
  8
0
 10
-0.562134
 20
-27.0531
 11
0.18837
 21
-27.0059
  0
LINE
  8
0
 10
0.18837
 20
-27.0059
 11
0.927048
 21
-27.1468
  0
LINE
  8
0
 10
0.927048
 20
-27.1468
 11
1.60747
 21
-27.467
  0
LINE
  8
0
 10
1.60747
 20
-27.467
 11
2.1869
 21
-27.9464
  0
LINE
  8
0
 10
2.1869
 20
-27.9464
 11
2.62891
 21
-28.5547
  0
LINE
  8
0
 10
2.62891
 20
-28.5547
 11
2.90575
 21
-29.2539
  0
LINE
  8
0
 10
2.90575
 20
-29.2539
 11
3
 21
-30
  0
LINE
  8
0
 10
3
 20
-30
 11
2.90575
 21
-30.7461
  0
LINE
  8
0
 10
2.90575
 20
-30.7461
 11
2.62891
 21
-31.4453
  0
LINE
  8
0
 10
2.62891
 20
-31.4453
 11
2.1869
 21
-32.0536
  0
LINE
  8
0
 10
2.1869
 20
-32.0536
 11
1.60747
 21
-32.533
  0
LINE
  8
0
 10
1.60747
 20
-32.533
 11
0.927048
 21
-32.8532
  0
LINE
  8
0
 10
0.927048
 20
-32.8532
 11
0.18837
 21
-32.9941
  0
LINE
  8
0
 10
0.18837
 20
-32.9941
 11
-0.562134
 21
-32.9469
  0
LINE
  8
0
 10
44.4379
 20
-32.9469
 11
43.7227
 21
-32.7145
  0
LINE
  8
0
 10
43.7227
 20
-32.7145
 11
43.0877
 21
-32.3115
  0
LINE
  8
0
 10
43.0877
 20
-32.3115
 11
42.5729
 21
-31.7634
  0
LINE
  8
0
 10
42.5729
 20
-31.7634
 11
42.2107
 21
-31.1044
  0
LINE
  8
0
 10
42.2107
 20
-31.1044
 11
42.0237
 21
-30.376
  0
LINE
  8
0
 10
42.0237
 20
-30.376
 11
42.0237
 21
-29.624
  0
LINE
  8
0
 10
42.0237
 20
-29.624
 11
42.2107
 21
-28.8956
  0
LINE
  8
0
 10
42.2107
 20
-28.8956
 11
42.5729
 21
-28.2366
  0
LINE
  8
0
 10
42.5729
 20
-28.2366
 11
43.0877
 21
-27.6884
  0
LINE
  8
0
 10
43.0877
 20
-27.6884
 11
43.7227
 21
-27.2855
  0
LINE
  8
0
 10
43.7227
 20
-27.2855
 11
44.4379
 21
-27.0531
  0
LINE
  8
0
 10
44.4379
 20
-27.0531
 11
45.1884
 21
-27.0059
  0
LINE
  8
0
 10
45.1884
 20
-27.0059
 11
45.927
 21
-27.1468
  0
LINE
  8
0
 10
45.927
 20
-27.1468
 11
46.6075
 21
-27.467
  0
LINE
  8
0
 10
46.6075
 20
-27.467
 11
47.1869
 21
-27.9464
  0
LINE
  8
0
 10
47.1869
 20
-27.9464
 11
47.6289
 21
-28.5547
  0
LINE
  8
0
 10
47.6289
 20
-28.5547
 11
47.9057
 21
-29.2539
  0
LINE
  8
0
 10
47.9057
 20
-29.2539
 11
48
 21
-30
  0
LINE
  8
0
 10
48
 20
-30
 11
47.9057
 21
-30.7461
  0
LINE
  8
0
 10
47.9057
 20
-30.7461
 11
47.6289
 21
-31.4453
  0
LINE
  8
0
 10
47.6289
 20
-31.4453
 11
47.1869
 21
-32.0536
  0
LINE
  8
0
 10
47.1869
 20
-32.0536
 11
46.6075
 21
-32.533
  0
LINE
  8
0
 10
46.6075
 20
-32.533
 11
45.927
 21
-32.8532
  0
LINE
  8
0
 10
45.927
 20
-32.8532
 11
45.1884
 21
-32.9941
  0
LINE
  8
0
 10
45.1884
 20
-32.9941
 11
44.4379
 21
-32.9469
  0
LINE
  8
0
 10
29.4379
 20
-32.9469
 11
28.7227
 21
-32.7145
  0
LINE
  8
0
 10
28.7227
 20
-32.7145
 11
28.0877
 21
-32.3115
  0
LINE
  8
0
 10
28.0877
 20
-32.3115
 11
27.5729
 21
-31.7634
  0
LINE
  8
0
 10
27.5729
 20
-31.7634
 11
27.2107
 21
-31.1044
  0
LINE
  8
0
 10
27.2107
 20
-31.1044
 11
27.0237
 21
-30.376
  0
LINE
  8
0
 10
27.0237
 20
-30.376
 11
27.0237
 21
-29.624
  0
LINE
  8
0
 10
27.0237
 20
-29.624
 11
27.2107
 21
-28.8956
  0
LINE
  8
0
 10
27.2107
 20
-28.8956
 11
27.5729
 21
-28.2366
  0
LINE
  8
0
 10
27.5729
 20
-28.2366
 11
28.0877
 21
-27.6884
  0
LINE
  8
0
 10
28.0877
 20
-27.6884
 11
28.7227
 21
-27.2855
  0
LINE
  8
0
 10
28.7227
 20
-27.2855
 11
29.4379
 21
-27.0531
  0
LINE
  8
0
 10
29.4379
 20
-27.0531
 11
30.1884
 21
-27.0059
  0
LINE
  8
0
 10
30.1884
 20
-27.0059
 11
30.927
 21
-27.1468
  0
LINE
  8
0
 10
30.927
 20
-27.1468
 11
31.6075
 21
-27.467
  0
LINE
  8
0
 10
31.6075
 20
-27.467
 11
32.1869
 21
-27.9464
  0
LINE
  8
0
 10
32.1869
 20
-27.9464
 11
32.6289
 21
-28.5547
  0
LINE
  8
0
 10
32.6289
 20
-28.5547
 11
32.9057
 21
-29.2539
  0
LINE
  8
0
 10
32.9057
 20
-29.2539
 11
33
 21
-30
  0
LINE
  8
0
 10
33
 20
-30
 11
32.9057
 21
-30.7461
  0
LINE
  8
0
 10
32.9057
 20
-30.7461
 11
32.6289
 21
-31.4453
  0
LINE
  8
0
 10
32.6289
 20
-31.4453
 11
32.1869
 21
-32.0536
  0
LINE
  8
0
 10
32.1869
 20
-32.0536
 11
31.6075
 21
-32.533
  0
LINE
  8
0
 10
31.6075
 20
-32.533
 11
30.927
 21
-32.8532
  0
LINE
  8
0
 10
30.927
 20
-32.8532
 11
30.1884
 21
-32.9941
  0
LINE
  8
0
 10
30.1884
 20
-32.9941
 11
29.4379
 21
-32.9469
  0
LINE
  8
0
 10
-15.5621
 20
-32.9469
 11
-16.2773
 21
-32.7145
  0
LINE
  8
0
 10
-16.2773
 20
-32.7145
 11
-16.9123
 21
-32.3115
  0
LINE
  8
0
 10
-16.9123
 20
-32.3115
 11
-17.427
 21
-31.7634
  0
LINE
  8
0
 10
-17.427
 20
-31.7634
 11
-17.7893
 21
-31.1044
  0
LINE
  8
0
 10
-17.7893
 20
-31.1044
 11
-17.9763
 21
-30.376
  0
LINE
  8
0
 10
-17.9763
 20
-30.376
 11
-17.9763
 21
-29.624
  0
LINE
  8
0
 10
-17.9763
 20
-29.624
 11
-17.7893
 21
-28.8956
  0
LINE
  8
0
 10
-17.7893
 20
-28.8956
 11
-17.427
 21
-28.2366
  0
LINE
  8
0
 10
-17.427
 20
-28.2366
 11
-16.9123
 21
-27.6884
  0
LINE
  8
0
 10
-16.9123
 20
-27.6884
 11
-16.2773
 21
-27.2855
  0
LINE
  8
0
 10
-16.2773
 20
-27.2855
 11
-15.5621
 21
-27.0531
  0
LINE
  8
0
 10
-15.5621
 20
-27.0531
 11
-14.8116
 21
-27.0059
  0
LINE
  8
0
 10
-14.8116
 20
-27.0059
 11
-14.0729
 21
-27.1468
  0
LINE
  8
0
 10
-14.0729
 20
-27.1468
 11
-13.3925
 21
-27.467
  0
LINE
  8
0
 10
-13.3925
 20
-27.467
 11
-12.8131
 21
-27.9464
  0
LINE
  8
0
 10
-12.8131
 20
-27.9464
 11
-12.3711
 21
-28.5547
  0
LINE
  8
0
 10
-12.3711
 20
-28.5547
 11
-12.0942
 21
-29.2539
  0
LINE
  8
0
 10
-12.0942
 20
-29.2539
 11
-12
 21
-30
  0
LINE
  8
0
 10
-12
 20
-30
 11
-12.0942
 21
-30.7461
  0
LINE
  8
0
 10
-12.0942
 20
-30.7461
 11
-12.3711
 21
-31.4453
  0
LINE
  8
0
 10
-12.3711
 20
-31.4453
 11
-12.8131
 21
-32.0536
  0
LINE
  8
0
 10
-12.8131
 20
-32.0536
 11
-13.3925
 21
-32.533
  0
LINE
  8
0
 10
-13.3925
 20
-32.533
 11
-14.0729
 21
-32.8532
  0
LINE
  8
0
 10
-14.0729
 20
-32.8532
 11
-14.8116
 21
-32.9941
  0
LINE
  8
0
 10
-14.8116
 20
-32.9941
 11
-15.5621
 21
-32.9469
  0
LINE
  8
0
 10
-45.5621
 20
-32.9469
 11
-46.2773
 21
-32.7145
  0
LINE
  8
0
 10
-46.2773
 20
-32.7145
 11
-46.9123
 21
-32.3115
  0
LINE
  8
0
 10
-46.9123
 20
-32.3115
 11
-47.427
 21
-31.7634
  0
LINE
  8
0
 10
-47.427
 20
-31.7634
 11
-47.7893
 21
-31.1044
  0
LINE
  8
0
 10
-47.7893
 20
-31.1044
 11
-47.9763
 21
-30.376
  0
LINE
  8
0
 10
-47.9763
 20
-30.376
 11
-47.9763
 21
-29.624
  0
LINE
  8
0
 10
-47.9763
 20
-29.624
 11
-47.7893
 21
-28.8956
  0
LINE
  8
0
 10
-47.7893
 20
-28.8956
 11
-47.427
 21
-28.2366
  0
LINE
  8
0
 10
-47.427
 20
-28.2366
 11
-46.9123
 21
-27.6884
  0
LINE
  8
0
 10
-46.9123
 20
-27.6884
 11
-46.2773
 21
-27.2855
  0
LINE
  8
0
 10
-46.2773
 20
-27.2855
 11
-45.5621
 21
-27.0531
  0
LINE
  8
0
 10
-45.5621
 20
-27.0531
 11
-44.8116
 21
-27.0059
  0
LINE
  8
0
 10
-44.8116
 20
-27.0059
 11
-44.0729
 21
-27.1468
  0
LINE
  8
0
 10
-44.0729
 20
-27.1468
 11
-43.3925
 21
-27.467
  0
LINE
  8
0
 10
-43.3925
 20
-27.467
 11
-42.8131
 21
-27.9464
  0
LINE
  8
0
 10
-42.8131
 20
-27.9464
 11
-42.3711
 21
-28.5547
  0
LINE
  8
0
 10
-42.3711
 20
-28.5547
 11
-42.0942
 21
-29.2539
  0
LINE
  8
0
 10
-42.0942
 20
-29.2539
 11
-42
 21
-30
  0
LINE
  8
0
 10
-42
 20
-30
 11
-42.0942
 21
-30.7461
  0
LINE
  8
0
 10
-42.0942
 20
-30.7461
 11
-42.3711
 21
-31.4453
  0
LINE
  8
0
 10
-42.3711
 20
-31.4453
 11
-42.8131
 21
-32.0536
  0
LINE
  8
0
 10
-42.8131
 20
-32.0536
 11
-43.3925
 21
-32.533
  0
LINE
  8
0
 10
-43.3925
 20
-32.533
 11
-44.0729
 21
-32.8532
  0
LINE
  8
0
 10
-44.0729
 20
-32.8532
 11
-44.8116
 21
-32.9941
  0
LINE
  8
0
 10
-44.8116
 20
-32.9941
 11
-45.5621
 21
-32.9469
  0
LINE
  8
0
 10
-30.5621
 20
-32.9469
 11
-31.2773
 21
-32.7145
  0
LINE
  8
0
 10
-31.2773
 20
-32.7145
 11
-31.9123
 21
-32.3115
  0
LINE
  8
0
 10
-31.9123
 20
-32.3115
 11
-32.427
 21
-31.7634
  0
LINE
  8
0
 10
-32.427
 20
-31.7634
 11
-32.7893
 21
-31.1044
  0
LINE
  8
0
 10
-32.7893
 20
-31.1044
 11
-32.9763
 21
-30.376
  0
LINE
  8
0
 10
-32.9763
 20
-30.376
 11
-32.9763
 21
-29.624
  0
LINE
  8
0
 10
-32.9763
 20
-29.624
 11
-32.7893
 21
-28.8956
  0
LINE
  8
0
 10
-32.7893
 20
-28.8956
 11
-32.427
 21
-28.2366
  0
LINE
  8
0
 10
-32.427
 20
-28.2366
 11
-31.9123
 21
-27.6884
  0
LINE
  8
0
 10
-31.9123
 20
-27.6884
 11
-31.2773
 21
-27.2855
  0
LINE
  8
0
 10
-31.2773
 20
-27.2855
 11
-30.5621
 21
-27.0531
  0
LINE
  8
0
 10
-30.5621
 20
-27.0531
 11
-29.8116
 21
-27.0059
  0
LINE
  8
0
 10
-29.8116
 20
-27.0059
 11
-29.0729
 21
-27.1468
  0
LINE
  8
0
 10
-29.0729
 20
-27.1468
 11
-28.3925
 21
-27.467
  0
LINE
  8
0
 10
-28.3925
 20
-27.467
 11
-27.8131
 21
-27.9464
  0
LINE
  8
0
 10
-27.8131
 20
-27.9464
 11
-27.3711
 21
-28.5547
  0
LINE
  8
0
 10
-27.3711
 20
-28.5547
 11
-27.0942
 21
-29.2539
  0
LINE
  8
0
 10
-27.0942
 20
-29.2539
 11
-27
 21
-30
  0
LINE
  8
0
 10
-27
 20
-30
 11
-27.0942
 21
-30.7461
  0
LINE
  8
0
 10
-27.0942
 20
-30.7461
 11
-27.3711
 21
-31.4453
  0
LINE
  8
0
 10
-27.3711
 20
-31.4453
 11
-27.8131
 21
-32.0536
  0
LINE
  8
0
 10
-27.8131
 20
-32.0536
 11
-28.3925
 21
-32.533
  0
LINE
  8
0
 10
-28.3925
 20
-32.533
 11
-29.0729
 21
-32.8532
  0
LINE
  8
0
 10
-29.0729
 20
-32.8532
 11
-29.8116
 21
-32.9941
  0
LINE
  8
0
 10
-29.8116
 20
-32.9941
 11
-30.5621
 21
-32.9469
  0
LINE
  8
0
 10
14.4379
 20
-32.9469
 11
13.7227
 21
-32.7145
  0
LINE
  8
0
 10
13.7227
 20
-32.7145
 11
13.0877
 21
-32.3115
  0
LINE
  8
0
 10
13.0877
 20
-32.3115
 11
12.5729
 21
-31.7634
  0
LINE
  8
0
 10
12.5729
 20
-31.7634
 11
12.2107
 21
-31.1044
  0
LINE
  8
0
 10
12.2107
 20
-31.1044
 11
12.0237
 21
-30.376
  0
LINE
  8
0
 10
12.0237
 20
-30.376
 11
12.0237
 21
-29.624
  0
LINE
  8
0
 10
12.0237
 20
-29.624
 11
12.2107
 21
-28.8956
  0
LINE
  8
0
 10
12.2107
 20
-28.8956
 11
12.5729
 21
-28.2366
  0
LINE
  8
0
 10
12.5729
 20
-28.2366
 11
13.0877
 21
-27.6884
  0
LINE
  8
0
 10
13.0877
 20
-27.6884
 11
13.7227
 21
-27.2855
  0
LINE
  8
0
 10
13.7227
 20
-27.2855
 11
14.4379
 21
-27.0531
  0
LINE
  8
0
 10
14.4379
 20
-27.0531
 11
15.1884
 21
-27.0059
  0
LINE
  8
0
 10
15.1884
 20
-27.0059
 11
15.927
 21
-27.1468
  0
LINE
  8
0
 10
15.927
 20
-27.1468
 11
16.6075
 21
-27.467
  0
LINE
  8
0
 10
16.6075
 20
-27.467
 11
17.1869
 21
-27.9464
  0
LINE
  8
0
 10
17.1869
 20
-27.9464
 11
17.6289
 21
-28.5547
  0
LINE
  8
0
 10
17.6289
 20
-28.5547
 11
17.9057
 21
-29.2539
  0
LINE
  8
0
 10
17.9057
 20
-29.2539
 11
18
 21
-30
  0
LINE
  8
0
 10
18
 20
-30
 11
17.9057
 21
-30.7461
  0
LINE
  8
0
 10
17.9057
 20
-30.7461
 11
17.6289
 21
-31.4453
  0
LINE
  8
0
 10
17.6289
 20
-31.4453
 11
17.1869
 21
-32.0536
  0
LINE
  8
0
 10
17.1869
 20
-32.0536
 11
16.6075
 21
-32.533
  0
LINE
  8
0
 10
16.6075
 20
-32.533
 11
15.927
 21
-32.8532
  0
LINE
  8
0
 10
15.927
 20
-32.8532
 11
15.1884
 21
-32.9941
  0
LINE
  8
0
 10
15.1884
 20
-32.9941
 11
14.4379
 21
-32.9469
  0
LINE
  8
0
 10
-30.5621
 20
-47.9469
 11
-31.2773
 21
-47.7145
  0
LINE
  8
0
 10
-31.2773
 20
-47.7145
 11
-31.9123
 21
-47.3115
  0
LINE
  8
0
 10
-31.9123
 20
-47.3115
 11
-32.427
 21
-46.7634
  0
LINE
  8
0
 10
-32.427
 20
-46.7634
 11
-32.7893
 21
-46.1044
  0
LINE
  8
0
 10
-32.7893
 20
-46.1044
 11
-32.9763
 21
-45.376
  0
LINE
  8
0
 10
-32.9763
 20
-45.376
 11
-32.9763
 21
-44.624
  0
LINE
  8
0
 10
-32.9763
 20
-44.624
 11
-32.7893
 21
-43.8956
  0
LINE
  8
0
 10
-32.7893
 20
-43.8956
 11
-32.427
 21
-43.2366
  0
LINE
  8
0
 10
-32.427
 20
-43.2366
 11
-31.9123
 21
-42.6885
  0
LINE
  8
0
 10
-31.9123
 20
-42.6885
 11
-31.2773
 21
-42.2855
  0
LINE
  8
0
 10
-31.2773
 20
-42.2855
 11
-30.5621
 21
-42.0531
  0
LINE
  8
0
 10
-30.5621
 20
-42.0531
 11
-29.8116
 21
-42.0059
  0
LINE
  8
0
 10
-29.8116
 20
-42.0059
 11
-29.0729
 21
-42.1468
  0
LINE
  8
0
 10
-29.0729
 20
-42.1468
 11
-28.3925
 21
-42.467
  0
LINE
  8
0
 10
-28.3925
 20
-42.467
 11
-27.8131
 21
-42.9464
  0
LINE
  8
0
 10
-27.8131
 20
-42.9464
 11
-27.3711
 21
-43.5547
  0
LINE
  8
0
 10
-27.3711
 20
-43.5547
 11
-27.0942
 21
-44.2539
  0
LINE
  8
0
 10
-27.0942
 20
-44.2539
 11
-27
 21
-45
  0
LINE
  8
0
 10
-27
 20
-45
 11
-27.0942
 21
-45.7461
  0
LINE
  8
0
 10
-27.0942
 20
-45.7461
 11
-27.3711
 21
-46.4453
  0
LINE
  8
0
 10
-27.3711
 20
-46.4453
 11
-27.8131
 21
-47.0536
  0
LINE
  8
0
 10
-27.8131
 20
-47.0536
 11
-28.3925
 21
-47.533
  0
LINE
  8
0
 10
-28.3925
 20
-47.533
 11
-29.0729
 21
-47.8532
  0
LINE
  8
0
 10
-29.0729
 20
-47.8532
 11
-29.8116
 21
-47.9941
  0
LINE
  8
0
 10
-29.8116
 20
-47.9941
 11
-30.5621
 21
-47.9469
  0
LINE
  8
0
 10
29.4379
 20
-47.9469
 11
28.7227
 21
-47.7145
  0
LINE
  8
0
 10
28.7227
 20
-47.7145
 11
28.0877
 21
-47.3115
  0
LINE
  8
0
 10
28.0877
 20
-47.3115
 11
27.5729
 21
-46.7634
  0
LINE
  8
0
 10
27.5729
 20
-46.7634
 11
27.2107
 21
-46.1044
  0
LINE
  8
0
 10
27.2107
 20
-46.1044
 11
27.0237
 21
-45.376
  0
LINE
  8
0
 10
27.0237
 20
-45.376
 11
27.0237
 21
-44.624
  0
LINE
  8
0
 10
27.0237
 20
-44.624
 11
27.2107
 21
-43.8956
  0
LINE
  8
0
 10
27.2107
 20
-43.8956
 11
27.5729
 21
-43.2366
  0
LINE
  8
0
 10
27.5729
 20
-43.2366
 11
28.0877
 21
-42.6885
  0
LINE
  8
0
 10
28.0877
 20
-42.6885
 11
28.7227
 21
-42.2855
  0
LINE
  8
0
 10
28.7227
 20
-42.2855
 11
29.4379
 21
-42.0531
  0
LINE
  8
0
 10
29.4379
 20
-42.0531
 11
30.1884
 21
-42.0059
  0
LINE
  8
0
 10
30.1884
 20
-42.0059
 11
30.927
 21
-42.1468
  0
LINE
  8
0
 10
30.927
 20
-42.1468
 11
31.6075
 21
-42.467
  0
LINE
  8
0
 10
31.6075
 20
-42.467
 11
32.1869
 21
-42.9464
  0
LINE
  8
0
 10
32.1869
 20
-42.9464
 11
32.6289
 21
-43.5547
  0
LINE
  8
0
 10
32.6289
 20
-43.5547
 11
32.9057
 21
-44.2539
  0
LINE
  8
0
 10
32.9057
 20
-44.2539
 11
33
 21
-45
  0
LINE
  8
0
 10
33
 20
-45
 11
32.9057
 21
-45.7461
  0
LINE
  8
0
 10
32.9057
 20
-45.7461
 11
32.6289
 21
-46.4453
  0
LINE
  8
0
 10
32.6289
 20
-46.4453
 11
32.1869
 21
-47.0536
  0
LINE
  8
0
 10
32.1869
 20
-47.0536
 11
31.6075
 21
-47.533
  0
LINE
  8
0
 10
31.6075
 20
-47.533
 11
30.927
 21
-47.8532
  0
LINE
  8
0
 10
30.927
 20
-47.8532
 11
30.1884
 21
-47.9941
  0
LINE
  8
0
 10
30.1884
 20
-47.9941
 11
29.4379
 21
-47.9469
  0
LINE
  8
0
 10
44.4379
 20
-47.9469
 11
43.7227
 21
-47.7145
  0
LINE
  8
0
 10
43.7227
 20
-47.7145
 11
43.0877
 21
-47.3115
  0
LINE
  8
0
 10
43.0877
 20
-47.3115
 11
42.5729
 21
-46.7634
  0
LINE
  8
0
 10
42.5729
 20
-46.7634
 11
42.2107
 21
-46.1044
  0
LINE
  8
0
 10
42.2107
 20
-46.1044
 11
42.0237
 21
-45.376
  0
LINE
  8
0
 10
42.0237
 20
-45.376
 11
42.0237
 21
-44.624
  0
LINE
  8
0
 10
42.0237
 20
-44.624
 11
42.2107
 21
-43.8956
  0
LINE
  8
0
 10
42.2107
 20
-43.8956
 11
42.5729
 21
-43.2366
  0
LINE
  8
0
 10
42.5729
 20
-43.2366
 11
43.0877
 21
-42.6885
  0
LINE
  8
0
 10
43.0877
 20
-42.6885
 11
43.7227
 21
-42.2855
  0
LINE
  8
0
 10
43.7227
 20
-42.2855
 11
44.4379
 21
-42.0531
  0
LINE
  8
0
 10
44.4379
 20
-42.0531
 11
45.1884
 21
-42.0059
  0
LINE
  8
0
 10
45.1884
 20
-42.0059
 11
45.927
 21
-42.1468
  0
LINE
  8
0
 10
45.927
 20
-42.1468
 11
46.6075
 21
-42.467
  0
LINE
  8
0
 10
46.6075
 20
-42.467
 11
47.1869
 21
-42.9464
  0
LINE
  8
0
 10
47.1869
 20
-42.9464
 11
47.6289
 21
-43.5547
  0
LINE
  8
0
 10
47.6289
 20
-43.5547
 11
47.9057
 21
-44.2539
  0
LINE
  8
0
 10
47.9057
 20
-44.2539
 11
48
 21
-45
  0
LINE
  8
0
 10
48
 20
-45
 11
47.9057
 21
-45.7461
  0
LINE
  8
0
 10
47.9057
 20
-45.7461
 11
47.6289
 21
-46.4453
  0
LINE
  8
0
 10
47.6289
 20
-46.4453
 11
47.1869
 21
-47.0536
  0
LINE
  8
0
 10
47.1869
 20
-47.0536
 11
46.6075
 21
-47.533
  0
LINE
  8
0
 10
46.6075
 20
-47.533
 11
45.927
 21
-47.8532
  0
LINE
  8
0
 10
45.927
 20
-47.8532
 11
45.1884
 21
-47.9941
  0
LINE
  8
0
 10
45.1884
 20
-47.9941
 11
44.4379
 21
-47.9469
  0
LINE
  8
0
 10
14.4379
 20
-47.9469
 11
13.7227
 21
-47.7145
  0
LINE
  8
0
 10
13.7227
 20
-47.7145
 11
13.0877
 21
-47.3115
  0
LINE
  8
0
 10
13.0877
 20
-47.3115
 11
12.5729
 21
-46.7634
  0
LINE
  8
0
 10
12.5729
 20
-46.7634
 11
12.2107
 21
-46.1044
  0
LINE
  8
0
 10
12.2107
 20
-46.1044
 11
12.0237
 21
-45.376
  0
LINE
  8
0
 10
12.0237
 20
-45.376
 11
12.0237
 21
-44.624
  0
LINE
  8
0
 10
12.0237
 20
-44.624
 11
12.2107
 21
-43.8956
  0
LINE
  8
0
 10
12.2107
 20
-43.8956
 11
12.5729
 21
-43.2366
  0
LINE
  8
0
 10
12.5729
 20
-43.2366
 11
13.0877
 21
-42.6885
  0
LINE
  8
0
 10
13.0877
 20
-42.6885
 11
13.7227
 21
-42.2855
  0
LINE
  8
0
 10
13.7227
 20
-42.2855
 11
14.4379
 21
-42.0531
  0
LINE
  8
0
 10
14.4379
 20
-42.0531
 11
15.1884
 21
-42.0059
  0
LINE
  8
0
 10
15.1884
 20
-42.0059
 11
15.927
 21
-42.1468
  0
LINE
  8
0
 10
15.927
 20
-42.1468
 11
16.6075
 21
-42.467
  0
LINE
  8
0
 10
16.6075
 20
-42.467
 11
17.1869
 21
-42.9464
  0
LINE
  8
0
 10
17.1869
 20
-42.9464
 11
17.6289
 21
-43.5547
  0
LINE
  8
0
 10
17.6289
 20
-43.5547
 11
17.9057
 21
-44.2539
  0
LINE
  8
0
 10
17.9057
 20
-44.2539
 11
18
 21
-45
  0
LINE
  8
0
 10
18
 20
-45
 11
17.9057
 21
-45.7461
  0
LINE
  8
0
 10
17.9057
 20
-45.7461
 11
17.6289
 21
-46.4453
  0
LINE
  8
0
 10
17.6289
 20
-46.4453
 11
17.1869
 21
-47.0536
  0
LINE
  8
0
 10
17.1869
 20
-47.0536
 11
16.6075
 21
-47.533
  0
LINE
  8
0
 10
16.6075
 20
-47.533
 11
15.927
 21
-47.8532
  0
LINE
  8
0
 10
15.927
 20
-47.8532
 11
15.1884
 21
-47.9941
  0
LINE
  8
0
 10
15.1884
 20
-47.9941
 11
14.4379
 21
-47.9469
  0
LINE
  8
0
 10
-0.562134
 20
-47.9469
 11
-1.27733
 21
-47.7145
  0
LINE
  8
0
 10
-1.27733
 20
-47.7145
 11
-1.91226
 21
-47.3115
  0
LINE
  8
0
 10
-1.91226
 20
-47.3115
 11
-2.42705
 21
-46.7634
  0
LINE
  8
0
 10
-2.42705
 20
-46.7634
 11
-2.78932
 21
-46.1044
  0
LINE
  8
0
 10
-2.78932
 20
-46.1044
 11
-2.97633
 21
-45.376
  0
LINE
  8
0
 10
-2.97633
 20
-45.376
 11
-2.97633
 21
-44.624
  0
LINE
  8
0
 10
-2.97633
 20
-44.624
 11
-2.78932
 21
-43.8956
  0
LINE
  8
0
 10
-2.78932
 20
-43.8956
 11
-2.42705
 21
-43.2366
  0
LINE
  8
0
 10
-2.42705
 20
-43.2366
 11
-1.91226
 21
-42.6885
  0
LINE
  8
0
 10
-1.91226
 20
-42.6885
 11
-1.27733
 21
-42.2855
  0
LINE
  8
0
 10
-1.27733
 20
-42.2855
 11
-0.562134
 21
-42.0531
  0
LINE
  8
0
 10
-0.562134
 20
-42.0531
 11
0.18837
 21
-42.0059
  0
LINE
  8
0
 10
0.18837
 20
-42.0059
 11
0.927048
 21
-42.1468
  0
LINE
  8
0
 10
0.927048
 20
-42.1468
 11
1.60747
 21
-42.467
  0
LINE
  8
0
 10
1.60747
 20
-42.467
 11
2.1869
 21
-42.9464
  0
LINE
  8
0
 10
2.1869
 20
-42.9464
 11
2.62891
 21
-43.5547
  0
LINE
  8
0
 10
2.62891
 20
-43.5547
 11
2.90575
 21
-44.2539
  0
LINE
  8
0
 10
2.90575
 20
-44.2539
 11
3
 21
-45
  0
LINE
  8
0
 10
3
 20
-45
 11
2.90575
 21
-45.7461
  0
LINE
  8
0
 10
2.90575
 20
-45.7461
 11
2.62891
 21
-46.4453
  0
LINE
  8
0
 10
2.62891
 20
-46.4453
 11
2.1869
 21
-47.0536
  0
LINE
  8
0
 10
2.1869
 20
-47.0536
 11
1.60747
 21
-47.533
  0
LINE
  8
0
 10
1.60747
 20
-47.533
 11
0.927048
 21
-47.8532
  0
LINE
  8
0
 10
0.927048
 20
-47.8532
 11
0.18837
 21
-47.9941
  0
LINE
  8
0
 10
0.18837
 20
-47.9941
 11
-0.562134
 21
-47.9469
  0
LINE
  8
0
 10
-45.5621
 20
-47.9469
 11
-46.2773
 21
-47.7145
  0
LINE
  8
0
 10
-46.2773
 20
-47.7145
 11
-46.9123
 21
-47.3115
  0
LINE
  8
0
 10
-46.9123
 20
-47.3115
 11
-47.427
 21
-46.7634
  0
LINE
  8
0
 10
-47.427
 20
-46.7634
 11
-47.7893
 21
-46.1044
  0
LINE
  8
0
 10
-47.7893
 20
-46.1044
 11
-47.9763
 21
-45.376
  0
LINE
  8
0
 10
-47.9763
 20
-45.376
 11
-47.9763
 21
-44.624
  0
LINE
  8
0
 10
-47.9763
 20
-44.624
 11
-47.7893
 21
-43.8956
  0
LINE
  8
0
 10
-47.7893
 20
-43.8956
 11
-47.427
 21
-43.2366
  0
LINE
  8
0
 10
-47.427
 20
-43.2366
 11
-46.9123
 21
-42.6885
  0
LINE
  8
0
 10
-46.9123
 20
-42.6885
 11
-46.2773
 21
-42.2855
  0
LINE
  8
0
 10
-46.2773
 20
-42.2855
 11
-45.5621
 21
-42.0531
  0
LINE
  8
0
 10
-45.5621
 20
-42.0531
 11
-44.8116
 21
-42.0059
  0
LINE
  8
0
 10
-44.8116
 20
-42.0059
 11
-44.0729
 21
-42.1468
  0
LINE
  8
0
 10
-44.0729
 20
-42.1468
 11
-43.3925
 21
-42.467
  0
LINE
  8
0
 10
-43.3925
 20
-42.467
 11
-42.8131
 21
-42.9464
  0
LINE
  8
0
 10
-42.8131
 20
-42.9464
 11
-42.3711
 21
-43.5547
  0
LINE
  8
0
 10
-42.3711
 20
-43.5547
 11
-42.0942
 21
-44.2539
  0
LINE
  8
0
 10
-42.0942
 20
-44.2539
 11
-42
 21
-45
  0
LINE
  8
0
 10
-42
 20
-45
 11
-42.0942
 21
-45.7461
  0
LINE
  8
0
 10
-42.0942
 20
-45.7461
 11
-42.3711
 21
-46.4453
  0
LINE
  8
0
 10
-42.3711
 20
-46.4453
 11
-42.8131
 21
-47.0536
  0
LINE
  8
0
 10
-42.8131
 20
-47.0536
 11
-43.3925
 21
-47.533
  0
LINE
  8
0
 10
-43.3925
 20
-47.533
 11
-44.0729
 21
-47.8532
  0
LINE
  8
0
 10
-44.0729
 20
-47.8532
 11
-44.8116
 21
-47.9941
  0
LINE
  8
0
 10
-44.8116
 20
-47.9941
 11
-45.5621
 21
-47.9469
  0
LINE
  8
0
 10
-15.5621
 20
-47.9469
 11
-16.2773
 21
-47.7145
  0
LINE
  8
0
 10
-16.2773
 20
-47.7145
 11
-16.9123
 21
-47.3115
  0
LINE
  8
0
 10
-16.9123
 20
-47.3115
 11
-17.427
 21
-46.7634
  0
LINE
  8
0
 10
-17.427
 20
-46.7634
 11
-17.7893
 21
-46.1044
  0
LINE
  8
0
 10
-17.7893
 20
-46.1044
 11
-17.9763
 21
-45.376
  0
LINE
  8
0
 10
-17.9763
 20
-45.376
 11
-17.9763
 21
-44.624
  0
LINE
  8
0
 10
-17.9763
 20
-44.624
 11
-17.7893
 21
-43.8956
  0
LINE
  8
0
 10
-17.7893
 20
-43.8956
 11
-17.427
 21
-43.2366
  0
LINE
  8
0
 10
-17.427
 20
-43.2366
 11
-16.9123
 21
-42.6885
  0
LINE
  8
0
 10
-16.9123
 20
-42.6885
 11
-16.2773
 21
-42.2855
  0
LINE
  8
0
 10
-16.2773
 20
-42.2855
 11
-15.5621
 21
-42.0531
  0
LINE
  8
0
 10
-15.5621
 20
-42.0531
 11
-14.8116
 21
-42.0059
  0
LINE
  8
0
 10
-14.8116
 20
-42.0059
 11
-14.0729
 21
-42.1468
  0
LINE
  8
0
 10
-14.0729
 20
-42.1468
 11
-13.3925
 21
-42.467
  0
LINE
  8
0
 10
-13.3925
 20
-42.467
 11
-12.8131
 21
-42.9464
  0
LINE
  8
0
 10
-12.8131
 20
-42.9464
 11
-12.3711
 21
-43.5547
  0
LINE
  8
0
 10
-12.3711
 20
-43.5547
 11
-12.0942
 21
-44.2539
  0
LINE
  8
0
 10
-12.0942
 20
-44.2539
 11
-12
 21
-45
  0
LINE
  8
0
 10
-12
 20
-45
 11
-12.0942
 21
-45.7461
  0
LINE
  8
0
 10
-12.0942
 20
-45.7461
 11
-12.3711
 21
-46.4453
  0
LINE
  8
0
 10
-12.3711
 20
-46.4453
 11
-12.8131
 21
-47.0536
  0
LINE
  8
0
 10
-12.8131
 20
-47.0536
 11
-13.3925
 21
-47.533
  0
LINE
  8
0
 10
-13.3925
 20
-47.533
 11
-14.0729
 21
-47.8532
  0
LINE
  8
0
 10
-14.0729
 20
-47.8532
 11
-14.8116
 21
-47.9941
  0
LINE
  8
0
 10
-14.8116
 20
-47.9941
 11
-15.5621
 21
-47.9469
  0
ENDSEC
  0
SECTION
  2
OBJECTS
  0
DICTIONARY
  0
ENDSEC
  0
EOF
