  0
SECTION
  2
BLOCKS
  0
ENDSEC
  0
SECTION
  2
ENTITIES
  0
LINE
  8
0
 10
106
 20
9.00986
 11
106.314
 21
9.00986
  0
LINE
  8
0
 10
106.314
 20
9.00986
 11
106.937
 21
9.08856
  0
LINE
  8
0
 10
106.937
 20
9.08856
 11
107.545
 21
9.24471
  0
LINE
  8
0
 10
107.545
 20
9.24471
 11
108.129
 21
9.47586
  0
LINE
  8
0
 10
108.129
 20
9.47586
 11
108.679
 21
9.77835
  0
LINE
  8
0
 10
108.679
 20
9.77835
 11
109.187
 21
10.1474
  0
LINE
  8
0
 10
109.187
 20
10.1474
 11
109.645
 21
10.5773
  0
LINE
  8
0
 10
109.645
 20
10.5773
 11
110.045
 21
11.0611
  0
LINE
  8
0
 10
110.045
 20
11.0611
 11
110.382
 21
11.5912
  0
LINE
  8
0
 10
110.382
 20
11.5912
 11
110.649
 21
12.1594
  0
LINE
  8
0
 10
110.649
 20
12.1594
 11
110.843
 21
12.7565
  0
LINE
  8
0
 10
110.843
 20
12.7565
 11
110.961
 21
13.3733
  0
LINE
  8
0
 10
110.961
 20
13.3733
 11
111
 21
14
  0
LINE
  8
0
 10
111
 20
14
 11
111
 21
106
  0
LINE
  8
0
 10
111
 20
106
 11
110.961
 21
106.627
  0
LINE
  8
0
 10
110.961
 20
106.627
 11
110.843
 21
107.243
  0
LINE
  8
0
 10
110.843
 20
107.243
 11
110.649
 21
107.841
  0
LINE
  8
0
 10
110.649
 20
107.841
 11
110.382
 21
108.409
  0
LINE
  8
0
 10
110.382
 20
108.409
 11
110.045
 21
108.939
  0
LINE
  8
0
 10
110.045
 20
108.939
 11
109.645
 21
109.423
  0
LINE
  8
0
 10
109.645
 20
109.423
 11
109.187
 21
109.853
  0
LINE
  8
0
 10
109.187
 20
109.853
 11
108.679
 21
110.222
  0
LINE
  8
0
 10
108.679
 20
110.222
 11
108.129
 21
110.524
  0
LINE
  8
0
 10
108.129
 20
110.524
 11
107.545
 21
110.755
  0
LINE
  8
0
 10
107.545
 20
110.755
 11
106.937
 21
110.911
  0
LINE
  8
0
 10
106.937
 20
110.911
 11
106.314
 21
110.99
  0
LINE
  8
0
 10
106.314
 20
110.99
 11
106
 21
110.99
  0
LINE
  8
0
 10
106
 20
110.99
 11
106
 21
111
  0
LINE
  8
0
 10
106
 20
111
 11
14
 21
111
  0
LINE
  8
0
 10
14
 20
111
 11
14
 21
110.99
  0
LINE
  8
0
 10
14
 20
110.99
 11
13.686
 21
110.99
  0
LINE
  8
0
 10
13.686
 20
110.99
 11
13.0631
 21
110.911
  0
LINE
  8
0
 10
13.0631
 20
110.911
 11
12.4549
 21
110.755
  0
LINE
  8
0
 10
12.4549
 20
110.755
 11
11.8711
 21
110.524
  0
LINE
  8
0
 10
11.8711
 20
110.524
 11
11.3209
 21
110.222
  0
LINE
  8
0
 10
11.3209
 20
110.222
 11
10.8129
 21
109.853
  0
LINE
  8
0
 10
10.8129
 20
109.853
 11
10.3551
 21
109.423
  0
LINE
  8
0
 10
10.3551
 20
109.423
 11
9.95491
 21
108.939
  0
LINE
  8
0
 10
9.95491
 20
108.939
 11
9.61845
 21
108.409
  0
LINE
  8
0
 10
9.61845
 20
108.409
 11
9.3511
 21
107.841
  0
LINE
  8
0
 10
9.3511
 20
107.841
 11
9.15707
 21
107.243
  0
LINE
  8
0
 10
9.15707
 20
107.243
 11
9.03941
 21
106.627
  0
LINE
  8
0
 10
9.03941
 20
106.627
 11
9
 21
106
  0
LINE
  8
0
 10
9
 20
106
 11
9
 21
14
  0
LINE
  8
0
 10
9
 20
14
 11
9.03941
 21
13.3733
  0
LINE
  8
0
 10
9.03941
 20
13.3733
 11
9.15707
 21
12.7565
  0
LINE
  8
0
 10
9.15707
 20
12.7565
 11
9.3511
 21
12.1594
  0
LINE
  8
0
 10
9.3511
 20
12.1594
 11
9.61845
 21
11.5912
  0
LINE
  8
0
 10
9.61845
 20
11.5912
 11
9.95491
 21
11.0611
  0
LINE
  8
0
 10
9.95491
 20
11.0611
 11
10.3551
 21
10.5773
  0
LINE
  8
0
 10
10.3551
 20
10.5773
 11
10.8129
 21
10.1474
  0
LINE
  8
0
 10
10.8129
 20
10.1474
 11
11.3209
 21
9.77835
  0
LINE
  8
0
 10
11.3209
 20
9.77835
 11
11.8711
 21
9.47586
  0
LINE
  8
0
 10
11.8711
 20
9.47586
 11
12.4549
 21
9.24471
  0
LINE
  8
0
 10
12.4549
 20
9.24471
 11
13.0631
 21
9.08856
  0
LINE
  8
0
 10
13.0631
 20
9.08856
 11
13.686
 21
9.00986
  0
LINE
  8
0
 10
13.686
 20
9.00986
 11
14
 21
9.00986
  0
LINE
  8
0
 10
14
 20
9.00986
 11
14
 21
9
  0
LINE
  8
0
 10
14
 20
9
 11
106
 21
9
  0
LINE
  8
0
 10
106
 20
9
 11
106
 21
9.00986
  0
ENDSEC
  0
SECTION
  2
OBJECTS
  0
DICTIONARY
  0
ENDSEC
  0
EOF
