<?xml version="1.0" standalone="no"?>
<!DOCTYPE svg PUBLIC "-//W3C//DTD SVG 1.1//EN" "http://www.w3.org/Graphics/SVG/1.1/DTD/svg11.dtd">
<svg width="102mm" height="102mm" viewBox="9 -111 102 102" xmlns="http://www.w3.org/2000/svg" version="1.1">
<title>OpenSCAD Model</title>
<path d="
M 106,-9.02962 L 106.314,-9.00986 L 107.545,-9.24471 L 108.679,-9.77835 L 109.645,-10.5773 L 110.382,-11.5912
 L 110.843,-12.7565 L 111,-14 L 111,-106 L 110.843,-107.243 L 110.382,-108.409 L 109.645,-109.423
 L 108.679,-110.222 L 107.545,-110.755 L 106.314,-110.99 L 106,-110.97 L 106,-111 L 14,-111
 L 14,-110.97 L 13.0631,-110.911 L 11.8711,-110.524 L 10.8129,-109.853 L 9.95491,-108.939 L 9.3511,-107.841
 L 9.03941,-106.627 L 9.03941,-106 L 9,-106 L 9,-14 L 9.03941,-14 L 9.03941,-13.3733
 L 9.3511,-12.1594 L 9.95491,-11.0611 L 10.8129,-10.1474 L 11.8711,-9.47586 L 13.0631,-9.08856 L 14,-9.02962
 L 14,-9 L 106,-9 z
" stroke="black" fill="lightgray" stroke-width="0.5"/>
</svg>
