<?xml version="1.0" standalone="no"?>
<!DOCTYPE svg PUBLIC "-//W3C//DTD SVG 1.1//EN" "http://www.w3.org/Graphics/SVG/1.1/DTD/svg11.dtd">
<svg width="110mm" height="110mm" viewBox="-55 -55 110 110" xmlns="http://www.w3.org/2000/svg" version="1.1">
<title>OpenSCAD Model</title>
<path d="
M 0.942123,53.4901 L 1.3049,52.8107 L 1.62936,52.1572 L 1.91737,51.5312 L 2.17085,50.9344 L 2.39182,50.3682
 L 2.39096,50.3503 L 3.26151,50.3014 L 3.26266,50.3193 L 3.54564,50.8572 L 3.86433,51.4219 L 4.22063,52.0116
 L 4.61621,52.6247 L 5.05278,53.2593 L 5.53195,53.9134 L 6.60359,53.7926 L 6.92519,53.0483 L 7.20961,52.3325
 L 7.45886,51.6468 L 7.67497,50.9925 L 7.86005,50.3711 L 8.01622,49.7837 L 8.01337,49.766 L 8.87297,49.6199
 L 8.87613,49.6376 L 9.21754,50.1405 L 9.59747,50.6659 L 10.0175,51.212 L 10.4793,51.777 L 10.9842,52.3587
 L 11.5336,52.955 L 12.5849,52.715 L 12.8212,51.9394 L 13.0237,51.1962 L 13.1946,50.4869 L 13.3361,49.8126
 L 13.4504,49.1743 L 13.5398,48.5732 L 13.535,48.5559 L 14.3729,48.3145 L 14.378,48.3317 L 14.7735,48.7931
 L 15.2099,49.2727 L 15.6885,49.7684 L 16.2106,50.2781 L 16.7774,50.7996 L 17.3901,51.3307 L 18.408,50.9745
 L 18.5559,50.1773 L 18.6739,49.4161 L 18.7643,48.6921 L 18.8295,48.0062 L 18.8716,47.3592 L 18.8932,46.7518
 L 18.8864,46.7351 L 19.692,46.4015 L 19.699,46.418 L 20.1437,46.8322 L 20.6311,47.2599 L 21.1621,47.6989
 L 21.738,48.1469 L 22.3597,48.6017 L 23.028,49.0609 L 23.9996,48.593 L 24.0573,47.7842 L 24.0894,47.0146
 L 24.0981,46.285 L 24.086,45.5961 L 24.0555,44.9484 L 24.0089,44.3424 L 24.0004,44.3267 L 24.7635,43.9049
 L 24.7723,43.9205 L 25.2606,44.2824 L 25.7928,44.6528 L 26.3696,45.0296 L 26.9921,45.4103 L 27.6607,45.7926
 L 28.3763,46.1741 L 29.2894,45.6003 L 29.2562,44.7901 L 29.2019,44.0218 L 29.1289,43.2958 L 29.0397,42.6126
 L 28.9369,41.9724 L 28.8227,41.3755 L 28.8125,41.3607 L 29.5236,40.8562 L 29.5341,40.8707 L 30.0598,41.1756
 L 30.6301,41.4842 L 31.2456,41.794 L 31.9067,42.1026 L 32.614,42.4077 L 33.3677,42.7066 L 34.2108,42.0342
 L 34.0871,41.2328 L 33.9471,40.4754 L 33.7933,39.7622 L 33.6283,39.0933 L 33.4543,38.4686 L 33.2741,37.8882
 L 33.2622,37.8747 L 33.9124,37.2937 L 33.9245,37.307 L 34.481,37.5511 L 35.0823,37.7939 L 35.7285,38.0328
 L 36.4201,38.2655 L 37.157,38.4894 L 37.9395,38.7021 L 38.7021,37.9395 L 38.4894,37.157 L 38.2655,36.4201
 L 38.0328,35.7285 L 37.7939,35.0823 L 37.5511,34.481 L 37.307,33.9245 L 37.2937,33.9124 L 37.8747,33.2622
 L 37.8882,33.2741 L 38.4686,33.4543 L 39.0933,33.6283 L 39.7622,33.7933 L 40.4754,33.9471 L 41.2328,34.0871
 L 42.0342,34.2108 L 42.7066,33.3677 L 42.4077,32.614 L 42.1026,31.9067 L 41.794,31.2456 L 41.4842,30.6301
 L 41.1756,30.0598 L 40.8707,29.5341 L 40.8562,29.5236 L 41.3607,28.8125 L 41.3755,28.8227 L 41.9724,28.9369
 L 42.6126,29.0397 L 43.2958,29.1289 L 44.0218,29.2019 L 44.7901,29.2562 L 45.6003,29.2894 L 46.1741,28.3763
 L 45.7926,27.6607 L 45.4103,26.9921 L 45.0296,26.3696 L 44.6528,25.7928 L 44.2824,25.2606 L 43.9205,24.7723
 L 43.9049,24.7635 L 44.3267,24.0004 L 44.3424,24.0089 L 44.9484,24.0555 L 45.5961,24.086 L 46.285,24.0981
 L 47.0146,24.0894 L 47.7842,24.0573 L 48.593,23.9996 L 49.0609,23.028 L 48.6017,22.3597 L 48.1469,21.738
 L 47.6989,21.1621 L 47.2599,20.6311 L 46.8322,20.1437 L 46.418,19.699 L 46.4015,19.692 L 46.7351,18.8864
 L 46.7518,18.8932 L 47.3592,18.8716 L 48.0062,18.8295 L 48.6921,18.7643 L 49.4161,18.6739 L 50.1773,18.5559
 L 50.9745,18.408 L 51.3307,17.3901 L 50.7996,16.7774 L 50.2781,16.2106 L 49.7684,15.6885 L 49.2727,15.2099
 L 48.7931,14.7735 L 48.3317,14.378 L 48.3145,14.3729 L 48.5559,13.535 L 48.5732,13.5398 L 49.1743,13.4504
 L 49.8126,13.3361 L 50.4869,13.1946 L 51.1962,13.0237 L 51.9394,12.8212 L 52.715,12.5849 L 52.955,11.5336
 L 52.3587,10.9842 L 51.777,10.4793 L 51.212,10.0175 L 50.6659,9.59747 L 50.1405,9.21754 L 49.6376,8.87613
 L 49.6199,8.87297 L 49.766,8.01337 L 49.7837,8.01622 L 50.3711,7.86005 L 50.9925,7.67497 L 51.6468,7.45886
 L 52.3325,7.20961 L 53.0483,6.92519 L 53.7926,6.60359 L 53.9134,5.53195 L 53.2593,5.05278 L 52.6247,4.61621
 L 52.0116,4.22063 L 51.4219,3.86433 L 50.8572,3.54564 L 50.3193,3.26266 L 50.3014,3.26151 L 50.3503,2.39096
 L 50.3682,2.39182 L 50.9344,2.17085 L 51.5312,1.91737 L 52.1572,1.62936 L 52.8107,1.3049 L 53.4901,0.942123
 L 54.1938,0.539215 L 54.1938,-0.539215 L 53.4901,-0.942123 L 52.8107,-1.3049 L 52.1572,-1.62936 L 51.5312,-1.91737
 L 50.9344,-2.17085 L 50.3682,-2.39182 L 50.3503,-2.39096 L 50.3014,-3.26151 L 50.3193,-3.26266 L 50.8572,-3.54564
 L 51.4219,-3.86433 L 52.0116,-4.22063 L 52.6247,-4.61621 L 53.2593,-5.05278 L 53.9134,-5.53195 L 53.7926,-6.60359
 L 53.0483,-6.92519 L 52.3325,-7.20961 L 51.6468,-7.45886 L 50.9925,-7.67497 L 50.3711,-7.86005 L 49.7837,-8.01622
 L 49.766,-8.01337 L 49.6199,-8.87297 L 49.6376,-8.87613 L 50.1405,-9.21754 L 50.6659,-9.59747 L 51.212,-10.0175
 L 51.777,-10.4793 L 52.3587,-10.9842 L 52.955,-11.5336 L 52.715,-12.5849 L 51.9394,-12.8212 L 51.1962,-13.0237
 L 50.4869,-13.1946 L 49.8126,-13.3361 L 49.1743,-13.4504 L 48.5732,-13.5398 L 48.5559,-13.535 L 48.3145,-14.3729
 L 48.3317,-14.378 L 48.7931,-14.7735 L 49.2727,-15.2099 L 49.7684,-15.6885 L 50.2781,-16.2106 L 50.7996,-16.7774
 L 51.3307,-17.3901 L 50.9745,-18.408 L 50.1773,-18.5559 L 49.4161,-18.6739 L 48.6921,-18.7643 L 48.0062,-18.8295
 L 47.3592,-18.8716 L 46.7518,-18.8932 L 46.7351,-18.8864 L 46.4015,-19.692 L 46.418,-19.699 L 46.8322,-20.1437
 L 47.2599,-20.6311 L 47.6989,-21.1621 L 48.1469,-21.738 L 48.6017,-22.3597 L 49.0609,-23.028 L 48.593,-23.9996
 L 47.7842,-24.0573 L 47.0146,-24.0894 L 46.285,-24.0981 L 45.5961,-24.086 L 44.9484,-24.0555 L 44.3424,-24.0089
 L 44.3267,-24.0004 L 43.9049,-24.7635 L 43.9205,-24.7723 L 44.2824,-25.2606 L 44.6528,-25.7928 L 45.0296,-26.3696
 L 45.4103,-26.9921 L 45.7926,-27.6607 L 46.1741,-28.3763 L 45.6003,-29.2894 L 44.7901,-29.2562 L 44.0218,-29.2019
 L 43.2958,-29.1289 L 42.6126,-29.0397 L 41.9724,-28.9369 L 41.3755,-28.8227 L 41.3607,-28.8125 L 40.8562,-29.5236
 L 40.8707,-29.5341 L 41.1756,-30.0598 L 41.4842,-30.6301 L 41.794,-31.2456 L 42.1026,-31.9067 L 42.4077,-32.614
 L 42.7066,-33.3677 L 42.0342,-34.2108 L 41.2328,-34.0871 L 40.4754,-33.9471 L 39.7622,-33.7933 L 39.0933,-33.6283
 L 38.4686,-33.4543 L 37.8882,-33.2741 L 37.8747,-33.2622 L 37.2937,-33.9124 L 37.307,-33.9245 L 37.5511,-34.481
 L 37.7939,-35.0823 L 38.0328,-35.7285 L 38.2655,-36.4201 L 38.4894,-37.157 L 38.7021,-37.9395 L 37.9395,-38.7021
 L 37.157,-38.4894 L 36.4201,-38.2655 L 35.7285,-38.0328 L 35.0823,-37.7939 L 34.481,-37.5511 L 33.9245,-37.307
 L 33.9124,-37.2937 L 33.2622,-37.8747 L 33.2741,-37.8882 L 33.4543,-38.4686 L 33.6283,-39.0933 L 33.7933,-39.7622
 L 33.9471,-40.4754 L 34.0871,-41.2328 L 34.2108,-42.0342 L 33.3677,-42.7066 L 32.614,-42.4077 L 31.9067,-42.1026
 L 31.2456,-41.794 L 30.6301,-41.4842 L 30.0598,-41.1756 L 29.5341,-40.8707 L 29.5236,-40.8562 L 28.8125,-41.3607
 L 28.8227,-41.3755 L 28.9369,-41.9724 L 29.0397,-42.6126 L 29.1289,-43.2958 L 29.2019,-44.0218 L 29.2562,-44.7901
 L 29.2894,-45.6003 L 28.3763,-46.1741 L 27.6607,-45.7926 L 26.9921,-45.4103 L 26.3696,-45.0296 L 25.7928,-44.6528
 L 25.2606,-44.2824 L 24.7723,-43.9205 L 24.7635,-43.9049 L 24.0004,-44.3267 L 24.0089,-44.3424 L 24.0555,-44.9484
 L 24.086,-45.5961 L 24.0981,-46.285 L 24.0894,-47.0146 L 24.0573,-47.7842 L 23.9996,-48.593 L 23.028,-49.0609
 L 22.3597,-48.6017 L 21.738,-48.1469 L 21.1621,-47.6989 L 20.6311,-47.2599 L 20.1437,-46.8322 L 19.699,-46.418
 L 19.692,-46.4015 L 18.8864,-46.7351 L 18.8932,-46.7518 L 18.8716,-47.3592 L 18.8295,-48.0062 L 18.7643,-48.6921
 L 18.6739,-49.4161 L 18.5559,-50.1773 L 18.408,-50.9745 L 17.3901,-51.3307 L 16.7774,-50.7996 L 16.2106,-50.2781
 L 15.6885,-49.7684 L 15.2099,-49.2727 L 14.7735,-48.7931 L 14.378,-48.3317 L 14.3729,-48.3145 L 13.535,-48.5559
 L 13.5398,-48.5732 L 13.4504,-49.1743 L 13.3361,-49.8126 L 13.1946,-50.4869 L 13.0237,-51.1962 L 12.8212,-51.9394
 L 12.5849,-52.715 L 11.5336,-52.955 L 10.9842,-52.3587 L 10.4793,-51.777 L 10.0175,-51.212 L 9.59747,-50.6659
 L 9.21754,-50.1405 L 8.87613,-49.6376 L 8.87297,-49.6199 L 8.01337,-49.766 L 8.01622,-49.7837 L 7.86005,-50.3711
 L 7.67497,-50.9925 L 7.45886,-51.6468 L 7.20961,-52.3325 L 6.92519,-53.0483 L 6.60359,-53.7926 L 5.53195,-53.9134
 L 5.05278,-53.2593 L 4.61621,-52.6247 L 4.22063,-52.0116 L 3.86433,-51.4219 L 3.54564,-50.8572 L 3.26266,-50.3193
 L 3.26151,-50.3014 L 2.39096,-50.3503 L 2.39182,-50.3682 L 2.17085,-50.9344 L 1.91737,-51.5312 L 1.62936,-52.1572
 L 1.3049,-52.8107 L 0.942123,-53.4901 L 0.539215,-54.1938 L -0.539215,-54.1938 L -0.942123,-53.4901 L -1.3049,-52.8107
 L -1.62936,-52.1572 L -1.91737,-51.5312 L -2.17085,-50.9344 L -2.39182,-50.3682 L -2.39096,-50.3503 L -3.26151,-50.3014
 L -3.26266,-50.3193 L -3.54564,-50.8572 L -3.86433,-51.4219 L -4.22063,-52.0116 L -4.61621,-52.6247 L -5.05278,-53.2593
 L -5.53195,-53.9134 L -6.60359,-53.7926 L -6.92519,-53.0483 L -7.20961,-52.3325 L -7.45886,-51.6468 L -7.67497,-50.9925
 L -7.86005,-50.3711 L -8.01622,-49.7837 L -8.01337,-49.766 L -8.87297,-49.6199 L -8.87613,-49.6376 L -9.21754,-50.1405
 L -9.59747,-50.6659 L -10.0175,-51.212 L -10.4793,-51.777 L -10.9842,-52.3587 L -11.5336,-52.955 L -12.5849,-52.715
 L -12.8212,-51.9394 L -13.0237,-51.1962 L -13.1946,-50.4869 L -13.3361,-49.8126 L -13.4504,-49.1743 L -13.5398,-48.5732
 L -13.535,-48.5559 L -14.3729,-48.3145 L -14.378,-48.3317 L -14.7735,-48.7931 L -15.2099,-49.2727 L -15.6885,-49.7684
 L -16.2106,-50.2781 L -16.7774,-50.7996 L -17.3901,-51.3307 L -18.408,-50.9745 L -18.5559,-50.1773 L -18.6739,-49.4161
 L -18.7643,-48.6921 L -18.8295,-48.0062 L -18.8716,-47.3592 L -18.8932,-46.7518 L -18.8864,-46.7351 L -19.692,-46.4015
 L -19.699,-46.418 L -20.1437,-46.8322 L -20.6311,-47.2599 L -21.1621,-47.6989 L -21.738,-48.1469 L -22.3597,-48.6017
 L -23.028,-49.0609 L -23.9996,-48.593 L -24.0573,-47.7842 L -24.0894,-47.0146 L -24.0981,-46.285 L -24.086,-45.5961
 L -24.0555,-44.9484 L -24.0089,-44.3424 L -24.0004,-44.3267 L -24.7635,-43.9049 L -24.7723,-43.9205 L -25.2606,-44.2824
 L -25.7928,-44.6528 L -26.3696,-45.0296 L -26.9921,-45.4103 L -27.6607,-45.7926 L -28.3763,-46.1741 L -29.2894,-45.6003
 L -29.2562,-44.7901 L -29.2019,-44.0218 L -29.1289,-43.2958 L -29.0397,-42.6126 L -28.9369,-41.9724 L -28.8227,-41.3755
 L -28.8125,-41.3607 L -29.5236,-40.8562 L -29.5341,-40.8707 L -30.0598,-41.1756 L -30.6301,-41.4842 L -31.2456,-41.794
 L -31.9067,-42.1026 L -32.614,-42.4077 L -33.3677,-42.7066 L -34.2108,-42.0342 L -34.0871,-41.2328 L -33.9471,-40.4754
 L -33.7933,-39.7622 L -33.6283,-39.0933 L -33.4543,-38.4686 L -33.2741,-37.8882 L -33.2622,-37.8747 L -33.9124,-37.2937
 L -33.9245,-37.307 L -34.481,-37.5511 L -35.0823,-37.7939 L -35.7285,-38.0328 L -36.4201,-38.2655 L -37.157,-38.4894
 L -37.9395,-38.7021 L -38.7021,-37.9395 L -38.4894,-37.157 L -38.2655,-36.4201 L -38.0328,-35.7285 L -37.7939,-35.0823
 L -37.5511,-34.481 L -37.307,-33.9245 L -37.2937,-33.9124 L -37.8747,-33.2622 L -37.8882,-33.2741 L -38.4686,-33.4543
 L -39.0933,-33.6283 L -39.7622,-33.7933 L -40.4754,-33.9471 L -41.2328,-34.0871 L -42.0342,-34.2108 L -42.7066,-33.3677
 L -42.4077,-32.614 L -42.1026,-31.9067 L -41.794,-31.2456 L -41.4842,-30.6301 L -41.1756,-30.0598 L -40.8707,-29.5341
 L -40.8562,-29.5236 L -41.3607,-28.8125 L -41.3755,-28.8227 L -41.9724,-28.9369 L -42.6126,-29.0397 L -43.2958,-29.1289
 L -44.0218,-29.2019 L -44.7901,-29.2562 L -45.6003,-29.2894 L -46.1741,-28.3763 L -45.7926,-27.6607 L -45.4103,-26.9921
 L -45.0296,-26.3696 L -44.6528,-25.7928 L -44.2824,-25.2606 L -43.9205,-24.7723 L -43.9049,-24.7635 L -44.3267,-24.0004
 L -44.3424,-24.0089 L -44.9484,-24.0555 L -45.5961,-24.086 L -46.285,-24.0981 L -47.0146,-24.0894 L -47.7842,-24.0573
 L -48.593,-23.9996 L -49.0609,-23.028 L -48.6017,-22.3597 L -48.1469,-21.738 L -47.6989,-21.1621 L -47.2599,-20.6311
 L -46.8322,-20.1437 L -46.418,-19.699 L -46.4015,-19.692 L -46.7351,-18.8864 L -46.7518,-18.8932 L -47.3592,-18.8716
 L -48.0062,-18.8295 L -48.6921,-18.7643 L -49.4161,-18.6739 L -50.1773,-18.5559 L -50.9745,-18.408 L -51.3307,-17.3901
 L -50.7996,-16.7774 L -50.2781,-16.2106 L -49.7684,-15.6885 L -49.2727,-15.2099 L -48.7931,-14.7735 L -48.3317,-14.378
 L -48.3145,-14.3729 L -48.5559,-13.535 L -48.5732,-13.5398 L -49.1743,-13.4504 L -49.8126,-13.3361 L -50.4869,-13.1946
 L -51.1962,-13.0237 L -51.9394,-12.8212 L -52.715,-12.5849 L -52.955,-11.5336 L -52.3587,-10.9842 L -51.777,-10.4793
 L -51.212,-10.0175 L -50.6659,-9.59747 L -50.1405,-9.21754 L -49.6376,-8.87613 L -49.6199,-8.87297 L -49.766,-8.01337
 L -49.7837,-8.01622 L -50.3711,-7.86005 L -50.9925,-7.67497 L -51.6468,-7.45886 L -52.3325,-7.20961 L -53.0483,-6.92519
 L -53.7926,-6.60359 L -53.9134,-5.53195 L -53.2593,-5.05278 L -52.6247,-4.61621 L -52.0116,-4.22063 L -51.4219,-3.86433
 L -50.8572,-3.54564 L -50.3193,-3.26266 L -50.3014,-3.26151 L -50.3503,-2.39096 L -50.3682,-2.39182 L -50.9344,-2.17085
 L -51.5312,-1.91737 L -52.1572,-1.62936 L -52.8107,-1.3049 L -53.4901,-0.942123 L -54.1938,-0.539215 L -54.1938,0.539215
 L -53.4901,0.942123 L -52.8107,1.3049 L -52.1572,1.62936 L -51.5312,1.91737 L -50.9344,2.17085 L -50.3682,2.39182
 L -50.3503,2.39096 L -50.3014,3.26151 L -50.3193,3.26266 L -50.8572,3.54564 L -51.4219,3.86433 L -52.0116,4.22063
 L -52.6247,4.61621 L -53.2593,5.05278 L -53.9134,5.53195 L -53.7926,6.60359 L -53.0483,6.92519 L -52.3325,7.20961
 L -51.6468,7.45886 L -50.9925,7.67497 L -50.3711,7.86005 L -49.7837,8.01622 L -49.766,8.01337 L -49.6199,8.87297
 L -49.6376,8.87613 L -50.1405,9.21754 L -50.6659,9.59747 L -51.212,10.0175 L -51.777,10.4793 L -52.3587,10.9842
 L -52.955,11.5336 L -52.715,12.5849 L -51.9394,12.8212 L -51.1962,13.0237 L -50.4869,13.1946 L -49.8126,13.3361
 L -49.1743,13.4504 L -48.5732,13.5398 L -48.5559,13.535 L -48.3145,14.3729 L -48.3317,14.378 L -48.7931,14.7735
 L -49.2727,15.2099 L -49.7684,15.6885 L -50.2781,16.2106 L -50.7996,16.7774 L -51.3307,17.3901 L -50.9745,18.408
 L -50.1773,18.5559 L -49.4161,18.6739 L -48.6921,18.7643 L -48.0062,18.8295 L -47.3592,18.8716 L -46.7518,18.8932
 L -46.7351,18.8864 L -46.4015,19.692 L -46.418,19.699 L -46.8322,20.1437 L -47.2599,20.6311 L -47.6989,21.1621
 L -48.1469,21.738 L -48.6017,22.3597 L -49.0609,23.028 L -48.593,23.9996 L -47.7842,24.0573 L -47.0146,24.0894
 L -46.285,24.0981 L -45.5961,24.086 L -44.9484,24.0555 L -44.3424,24.0089 L -44.3267,24.0004 L -43.9049,24.7635
 L -43.9205,24.7723 L -44.2824,25.2606 L -44.6528,25.7928 L -45.0296,26.3696 L -45.4103,26.9921 L -45.7926,27.6607
 L -46.1741,28.3763 L -45.6003,29.2894 L -44.7901,29.2562 L -44.0218,29.2019 L -43.2958,29.1289 L -42.6126,29.0397
 L -41.9724,28.9369 L -41.3755,28.8227 L -41.3607,28.8125 L -40.8562,29.5236 L -40.8707,29.5341 L -41.1756,30.0598
 L -41.4842,30.6301 L -41.794,31.2456 L -42.1026,31.9067 L -42.4077,32.614 L -42.7066,33.3677 L -42.0342,34.2108
 L -41.2328,34.0871 L -40.4754,33.9471 L -39.7622,33.7933 L -39.0933,33.6283 L -38.4686,33.4543 L -37.8882,33.2741
 L -37.8747,33.2622 L -37.2937,33.9124 L -37.307,33.9245 L -37.5511,34.481 L -37.7939,35.0823 L -38.0328,35.7285
 L -38.2655,36.4201 L -38.4894,37.157 L -38.7021,37.9395 L -37.9395,38.7021 L -37.157,38.4894 L -36.4201,38.2655
 L -35.7285,38.0328 L -35.0823,37.7939 L -34.481,37.5511 L -33.9245,37.307 L -33.9124,37.2937 L -33.2622,37.8747
 L -33.2741,37.8882 L -33.4543,38.4686 L -33.6283,39.0933 L -33.7933,39.7622 L -33.9471,40.4754 L -34.0871,41.2328
 L -34.2108,42.0342 L -33.3677,42.7066 L -32.614,42.4077 L -31.9067,42.1026 L -31.2456,41.794 L -30.6301,41.4842
 L -30.0598,41.1756 L -29.5341,40.8707 L -29.5236,40.8562 L -28.8125,41.3607 L -28.8227,41.3755 L -28.9369,41.9724
 L -29.0397,42.6126 L -29.1289,43.2958 L -29.2019,44.0218 L -29.2562,44.7901 L -29.2894,45.6003 L -28.3763,46.1741
 L -27.6607,45.7926 L -26.9921,45.4103 L -26.3696,45.0296 L -25.7928,44.6528 L -25.2606,44.2824 L -24.7723,43.9205
 L -24.7635,43.9049 L -24.0004,44.3267 L -24.0089,44.3424 L -24.0555,44.9484 L -24.086,45.5961 L -24.0981,46.285
 L -24.0894,47.0146 L -24.0573,47.7842 L -23.9996,48.593 L -23.028,49.0609 L -22.3597,48.6017 L -21.738,48.1469
 L -21.1621,47.6989 L -20.6311,47.2599 L -20.1437,46.8322 L -19.699,46.418 L -19.692,46.4015 L -18.8864,46.7351
 L -18.8932,46.7518 L -18.8716,47.3592 L -18.8295,48.0062 L -18.7643,48.6921 L -18.6739,49.4161 L -18.5559,50.1773
 L -18.408,50.9745 L -17.3901,51.3307 L -16.7774,50.7996 L -16.2106,50.2781 L -15.6885,49.7684 L -15.2099,49.2727
 L -14.7735,48.7931 L -14.378,48.3317 L -14.3729,48.3145 L -13.535,48.5559 L -13.5398,48.5732 L -13.4504,49.1743
 L -13.3361,49.8126 L -13.1946,50.4869 L -13.0237,51.1962 L -12.8212,51.9394 L -12.5849,52.715 L -11.5336,52.955
 L -10.9842,52.3587 L -10.4793,51.777 L -10.0175,51.212 L -9.59747,50.6659 L -9.21754,50.1405 L -8.87613,49.6376
 L -8.87297,49.6199 L -8.01337,49.766 L -8.01622,49.7837 L -7.86005,50.3711 L -7.67497,50.9925 L -7.45886,51.6468
 L -7.20961,52.3325 L -6.92519,53.0483 L -6.60359,53.7926 L -5.53195,53.9134 L -5.05278,53.2593 L -4.61621,52.6247
 L -4.22063,52.0116 L -3.86433,51.4219 L -3.54564,50.8572 L -3.26266,50.3193 L -3.26151,50.3014 L -2.39096,50.3503
 L -2.39182,50.3682 L -2.17085,50.9344 L -1.91737,51.5312 L -1.62936,52.1572 L -1.3049,52.8107 L -0.942123,53.4901
 L -0.539215,54.1938 L 0.539215,54.1938 z
M -0.562134,-42.0531 L -1.27733,-42.2855 L -1.91226,-42.6885 L -2.42705,-43.2366 L -2.78932,-43.8956 L -2.97633,-44.624
 L -2.97633,-45.376 L -2.78932,-46.1044 L -2.42705,-46.7634 L -1.91226,-47.3115 L -1.27733,-47.7145 L -0.562134,-47.9469
 L 0.18837,-47.9941 L 0.927048,-47.8532 L 1.60747,-47.533 L 2.1869,-47.0536 L 2.62891,-46.4453 L 2.90575,-45.7461
 L 3,-45 L 2.90575,-44.2539 L 2.62891,-43.5547 L 2.1869,-42.9464 L 1.60747,-42.467 L 0.927048,-42.1468
 L 0.18837,-42.0059 z
M -30.5621,-27.0531 L -31.2773,-27.2855 L -31.9123,-27.6884 L -32.427,-28.2366 L -32.7893,-28.8956 L -32.9763,-29.624
 L -32.9763,-30.376 L -32.7893,-31.1044 L -32.427,-31.7634 L -31.9123,-32.3115 L -31.2773,-32.7145 L -30.5621,-32.9469
 L -29.8116,-32.9941 L -29.0729,-32.8532 L -28.3925,-32.533 L -27.8131,-32.0536 L -27.3711,-31.4453 L -27.0942,-30.7461
 L -27,-30 L -27.0942,-29.2539 L -27.3711,-28.5547 L -27.8131,-27.9464 L -28.3925,-27.467 L -29.0729,-27.1468
 L -29.8116,-27.0059 z
M -0.562134,-27.0531 L -1.27733,-27.2855 L -1.91226,-27.6884 L -2.42705,-28.2366 L -2.78932,-28.8956 L -2.97633,-29.624
 L -2.97633,-30.376 L -2.78932,-31.1044 L -2.42705,-31.7634 L -1.91226,-32.3115 L -1.27733,-32.7145 L -0.562134,-32.9469
 L 0.18837,-32.9941 L 0.927048,-32.8532 L 1.60747,-32.533 L 2.1869,-32.0536 L 2.62891,-31.4453 L 2.90575,-30.7461
 L 3,-30 L 2.90575,-29.2539 L 2.62891,-28.5547 L 2.1869,-27.9464 L 1.60747,-27.467 L 0.927048,-27.1468
 L 0.18837,-27.0059 z
M 29.4379,-27.0531 L 28.7227,-27.2855 L 28.0877,-27.6884 L 27.5729,-28.2366 L 27.2107,-28.8956 L 27.0237,-29.624
 L 27.0237,-30.376 L 27.2107,-31.1044 L 27.5729,-31.7634 L 28.0877,-32.3115 L 28.7227,-32.7145 L 29.4379,-32.9469
 L 30.1884,-32.9941 L 30.927,-32.8532 L 31.6075,-32.533 L 32.1869,-32.0536 L 32.6289,-31.4453 L 32.9057,-30.7461
 L 33,-30 L 32.9057,-29.2539 L 32.6289,-28.5547 L 32.1869,-27.9464 L 31.6075,-27.467 L 30.927,-27.1468
 L 30.1884,-27.0059 z
M 14.4379,-27.0531 L 13.7227,-27.2855 L 13.0877,-27.6884 L 12.5729,-28.2366 L 12.2107,-28.8956 L 12.0237,-29.624
 L 12.0237,-30.376 L 12.2107,-31.1044 L 12.5729,-31.7634 L 13.0877,-32.3115 L 13.7227,-32.7145 L 14.4379,-32.9469
 L 15.1884,-32.9941 L 15.927,-32.8532 L 16.6075,-32.533 L 17.1869,-32.0536 L 17.6289,-31.4453 L 17.9057,-30.7461
 L 18,-30 L 17.9057,-29.2539 L 17.6289,-28.5547 L 17.1869,-27.9464 L 16.6075,-27.467 L 15.927,-27.1468
 L 15.1884,-27.0059 z
M -15.5621,-27.0531 L -16.2773,-27.2855 L -16.9123,-27.6884 L -17.427,-28.2366 L -17.7893,-28.8956 L -17.9763,-29.624
 L -17.9763,-30.376 L -17.7893,-31.1044 L -17.427,-31.7634 L -16.9123,-32.3115 L -16.2773,-32.7145 L -15.5621,-32.9469
 L -14.8116,-32.9941 L -14.0729,-32.8532 L -13.3925,-32.533 L -12.8131,-32.0536 L -12.3711,-31.4453 L -12.0942,-30.7461
 L -12,-30 L -12.0942,-29.2539 L -12.3711,-28.5547 L -12.8131,-27.9464 L -13.3925,-27.467 L -14.0729,-27.1468
 L -14.8116,-27.0059 z
M -15.5621,-12.0531 L -16.2773,-12.2855 L -16.9123,-12.6884 L -17.427,-13.2366 L -17.7893,-13.8956 L -17.9763,-14.624
 L -17.9763,-15.376 L -17.7893,-16.1044 L -17.427,-16.7634 L -16.9123,-17.3115 L -16.2773,-17.7145 L -15.5621,-17.9469
 L -14.8116,-17.9941 L -14.0729,-17.8532 L -13.3925,-17.533 L -12.8131,-17.0536 L -12.3711,-16.4453 L -12.0942,-15.7461
 L -12,-15 L -12.0942,-14.2539 L -12.3711,-13.5547 L -12.8131,-12.9464 L -13.3925,-12.467 L -14.0729,-12.1468
 L -14.8116,-12.0059 z
M -30.5621,-12.0531 L -31.2773,-12.2855 L -31.9123,-12.6884 L -32.427,-13.2366 L -32.7893,-13.8956 L -32.9763,-14.624
 L -32.9763,-15.376 L -32.7893,-16.1044 L -32.427,-16.7634 L -31.9123,-17.3115 L -31.2773,-17.7145 L -30.5621,-17.9469
 L -29.8116,-17.9941 L -29.0729,-17.8532 L -28.3925,-17.533 L -27.8131,-17.0536 L -27.3711,-16.4453 L -27.0942,-15.7461
 L -27,-15 L -27.0942,-14.2539 L -27.3711,-13.5547 L -27.8131,-12.9464 L -28.3925,-12.467 L -29.0729,-12.1468
 L -29.8116,-12.0059 z
M 29.4379,-12.0531 L 28.7227,-12.2855 L 28.0877,-12.6884 L 27.5729,-13.2366 L 27.2107,-13.8956 L 27.0237,-14.624
 L 27.0237,-15.376 L 27.2107,-16.1044 L 27.5729,-16.7634 L 28.0877,-17.3115 L 28.7227,-17.7145 L 29.4379,-17.9469
 L 30.1884,-17.9941 L 30.927,-17.8532 L 31.6075,-17.533 L 32.1869,-17.0536 L 32.6289,-16.4453 L 32.9057,-15.7461
 L 33,-15 L 32.9057,-14.2539 L 32.6289,-13.5547 L 32.1869,-12.9464 L 31.6075,-12.467 L 30.927,-12.1468
 L 30.1884,-12.0059 z
M -0.562134,-12.0531 L -1.27733,-12.2855 L -1.91226,-12.6884 L -2.42705,-13.2366 L -2.78932,-13.8956 L -2.97633,-14.624
 L -2.97633,-15.376 L -2.78932,-16.1044 L -2.42705,-16.7634 L -1.91226,-17.3115 L -1.27733,-17.7145 L -0.562134,-17.9469
 L 0.18837,-17.9941 L 0.927048,-17.8532 L 1.60747,-17.533 L 2.1869,-17.0536 L 2.62891,-16.4453 L 2.90575,-15.7461
 L 3,-15 L 2.90575,-14.2539 L 2.62891,-13.5547 L 2.1869,-12.9464 L 1.60747,-12.467 L 0.927048,-12.1468
 L 0.18837,-12.0059 z
M 14.4379,-12.0531 L 13.7227,-12.2855 L 13.0877,-12.6884 L 12.5729,-13.2366 L 12.2107,-13.8956 L 12.0237,-14.624
 L 12.0237,-15.376 L 12.2107,-16.1044 L 12.5729,-16.7634 L 13.0877,-17.3115 L 13.7227,-17.7145 L 14.4379,-17.9469
 L 15.1884,-17.9941 L 15.927,-17.8532 L 16.6075,-17.533 L 17.1869,-17.0536 L 17.6289,-16.4453 L 17.9057,-15.7461
 L 18,-15 L 17.9057,-14.2539 L 17.6289,-13.5547 L 17.1869,-12.9464 L 16.6075,-12.467 L 15.927,-12.1468
 L 15.1884,-12.0059 z
M 14.4379,2.94685 L 13.7227,2.71448 L 13.0877,2.31154 L 12.5729,1.76335 L 12.2107,1.10437 L 12.0237,0.375992
 L 12.0237,-0.375992 L 12.2107,-1.10437 L 12.5729,-1.76335 L 13.0877,-2.31154 L 13.7227,-2.71448 L 14.4379,-2.94685
 L 15.1884,-2.99408 L 15.927,-2.85316 L 16.6075,-2.53297 L 17.1869,-2.05363 L 17.6289,-1.44525 L 17.9057,-0.746063
 L 18,-0 L 17.9057,0.746063 L 17.6289,1.44525 L 17.1869,2.05363 L 16.6075,2.53297 L 15.927,2.85316
 L 15.1884,2.99408 z
M -0.562134,2.94685 L -1.27733,2.71448 L -1.91226,2.31154 L -2.42705,1.76335 L -2.78932,1.10437 L -2.97633,0.375992
 L -2.97633,-0.375992 L -2.78932,-1.10437 L -2.42705,-1.76335 L -1.91226,-2.31154 L -1.27733,-2.71448 L -0.562134,-2.94685
 L 0.18837,-2.99408 L 0.927048,-2.85316 L 1.60747,-2.53297 L 2.1869,-2.05363 L 2.62891,-1.44525 L 2.90575,-0.746063
 L 3,-0 L 2.90575,0.746063 L 2.62891,1.44525 L 2.1869,2.05363 L 1.60747,2.53297 L 0.927048,2.85316
 L 0.18837,2.99408 z
M -45.5621,2.94685 L -46.2773,2.71448 L -46.9123,2.31154 L -47.427,1.76335 L -47.7893,1.10437 L -47.9763,0.375992
 L -47.9763,-0.375992 L -47.7893,-1.10437 L -47.427,-1.76335 L -46.9123,-2.31154 L -46.2773,-2.71448 L -45.5621,-2.94685
 L -44.8116,-2.99408 L -44.0729,-2.85316 L -43.3925,-2.53297 L -42.8131,-2.05363 L -42.3711,-1.44525 L -42.0942,-0.746063
 L -42,-0 L -42.0942,0.746063 L -42.3711,1.44525 L -42.8131,2.05363 L -43.3925,2.53297 L -44.0729,2.85316
 L -44.8116,2.99408 z
M -30.5621,2.94685 L -31.2773,2.71448 L -31.9123,2.31154 L -32.427,1.76335 L -32.7893,1.10437 L -32.9763,0.375992
 L -32.9763,-0.375992 L -32.7893,-1.10437 L -32.427,-1.76335 L -31.9123,-2.31154 L -31.2773,-2.71448 L -30.5621,-2.94685
 L -29.8116,-2.99408 L -29.0729,-2.85316 L -28.3925,-2.53297 L -27.8131,-2.05363 L -27.3711,-1.44525 L -27.0942,-0.746063
 L -27,-0 L -27.0942,0.746063 L -27.3711,1.44525 L -27.8131,2.05363 L -28.3925,2.53297 L -29.0729,2.85316
 L -29.8116,2.99408 z
M 44.4379,2.94685 L 43.7227,2.71448 L 43.0877,2.31154 L 42.5729,1.76335 L 42.2107,1.10437 L 42.0237,0.375992
 L 42.0237,-0.375992 L 42.2107,-1.10437 L 42.5729,-1.76335 L 43.0877,-2.31154 L 43.7227,-2.71448 L 44.4379,-2.94685
 L 45.1884,-2.99408 L 45.927,-2.85316 L 46.6075,-2.53297 L 47.1869,-2.05363 L 47.6289,-1.44525 L 47.9057,-0.746063
 L 48,-0 L 47.9057,0.746063 L 47.6289,1.44525 L 47.1869,2.05363 L 46.6075,2.53297 L 45.927,2.85316
 L 45.1884,2.99408 z
M 29.4379,2.94685 L 28.7227,2.71448 L 28.0877,2.31154 L 27.5729,1.76335 L 27.2107,1.10437 L 27.0237,0.375992
 L 27.0237,-0.375992 L 27.2107,-1.10437 L 27.5729,-1.76335 L 28.0877,-2.31154 L 28.7227,-2.71448 L 29.4379,-2.94685
 L 30.1884,-2.99408 L 30.927,-2.85316 L 31.6075,-2.53297 L 32.1869,-2.05363 L 32.6289,-1.44525 L 32.9057,-0.746063
 L 33,-0 L 32.9057,0.746063 L 32.6289,1.44525 L 32.1869,2.05363 L 31.6075,2.53297 L 30.927,2.85316
 L 30.1884,2.99408 z
M -15.5621,2.94685 L -16.2773,2.71448 L -16.9123,2.31154 L -17.427,1.76335 L -17.7893,1.10437 L -17.9763,0.375992
 L -17.9763,-0.375992 L -17.7893,-1.10437 L -17.427,-1.76335 L -16.9123,-2.31154 L -16.2773,-2.71448 L -15.5621,-2.94685
 L -14.8116,-2.99408 L -14.0729,-2.85316 L -13.3925,-2.53297 L -12.8131,-2.05363 L -12.3711,-1.44525 L -12.0942,-0.746063
 L -12,-0 L -12.0942,0.746063 L -12.3711,1.44525 L -12.8131,2.05363 L -13.3925,2.53297 L -14.0729,2.85316
 L -14.8116,2.99408 z
M -15.5621,17.9469 L -16.2773,17.7145 L -16.9123,17.3115 L -17.427,16.7634 L -17.7893,16.1044 L -17.9763,15.376
 L -17.9763,14.624 L -17.7893,13.8956 L -17.427,13.2366 L -16.9123,12.6884 L -16.2773,12.2855 L -15.5621,12.0531
 L -14.8116,12.0059 L -14.0729,12.1468 L -13.3925,12.467 L -12.8131,12.9464 L -12.3711,13.5547 L -12.0942,14.2539
 L -12,15 L -12.0942,15.7461 L -12.3711,16.4453 L -12.8131,17.0536 L -13.3925,17.533 L -14.0729,17.8532
 L -14.8116,17.9941 z
M -30.5621,17.9469 L -31.2773,17.7145 L -31.9123,17.3115 L -32.427,16.7634 L -32.7893,16.1044 L -32.9763,15.376
 L -32.9763,14.624 L -32.7893,13.8956 L -32.427,13.2366 L -31.9123,12.6884 L -31.2773,12.2855 L -30.5621,12.0531
 L -29.8116,12.0059 L -29.0729,12.1468 L -28.3925,12.467 L -27.8131,12.9464 L -27.3711,13.5547 L -27.0942,14.2539
 L -27,15 L -27.0942,15.7461 L -27.3711,16.4453 L -27.8131,17.0536 L -28.3925,17.533 L -29.0729,17.8532
 L -29.8116,17.9941 z
M 29.4379,17.9469 L 28.7227,17.7145 L 28.0877,17.3115 L 27.5729,16.7634 L 27.2107,16.1044 L 27.0237,15.376
 L 27.0237,14.624 L 27.2107,13.8956 L 27.5729,13.2366 L 28.0877,12.6884 L 28.7227,12.2855 L 29.4379,12.0531
 L 30.1884,12.0059 L 30.927,12.1468 L 31.6075,12.467 L 32.1869,12.9464 L 32.6289,13.5547 L 32.9057,14.2539
 L 33,15 L 32.9057,15.7461 L 32.6289,16.4453 L 32.1869,17.0536 L 31.6075,17.533 L 30.927,17.8532
 L 30.1884,17.9941 z
M -0.562134,17.9469 L -1.27733,17.7145 L -1.91226,17.3115 L -2.42705,16.7634 L -2.78932,16.1044 L -2.97633,15.376
 L -2.97633,14.624 L -2.78932,13.8956 L -2.42705,13.2366 L -1.91226,12.6884 L -1.27733,12.2855 L -0.562134,12.0531
 L 0.18837,12.0059 L 0.927048,12.1468 L 1.60747,12.467 L 2.1869,12.9464 L 2.62891,13.5547 L 2.90575,14.2539
 L 3,15 L 2.90575,15.7461 L 2.62891,16.4453 L 2.1869,17.0536 L 1.60747,17.533 L 0.927048,17.8532
 L 0.18837,17.9941 z
M 14.4379,17.9469 L 13.7227,17.7145 L 13.0877,17.3115 L 12.5729,16.7634 L 12.2107,16.1044 L 12.0237,15.376
 L 12.0237,14.624 L 12.2107,13.8956 L 12.5729,13.2366 L 13.0877,12.6884 L 13.7227,12.2855 L 14.4379,12.0531
 L 15.1884,12.0059 L 15.927,12.1468 L 16.6075,12.467 L 17.1869,12.9464 L 17.6289,13.5547 L 17.9057,14.2539
 L 18,15 L 17.9057,15.7461 L 17.6289,16.4453 L 17.1869,17.0536 L 16.6075,17.533 L 15.927,17.8532
 L 15.1884,17.9941 z
M -15.5621,32.9469 L -16.2773,32.7145 L -16.9123,32.3115 L -17.427,31.7634 L -17.7893,31.1044 L -17.9763,30.376
 L -17.9763,29.624 L -17.7893,28.8956 L -17.427,28.2366 L -16.9123,27.6884 L -16.2773,27.2855 L -15.5621,27.0531
 L -14.8116,27.0059 L -14.0729,27.1468 L -13.3925,27.467 L -12.8131,27.9464 L -12.3711,28.5547 L -12.0942,29.2539
 L -12,30 L -12.0942,30.7461 L -12.3711,31.4453 L -12.8131,32.0536 L -13.3925,32.533 L -14.0729,32.8532
 L -14.8116,32.9941 z
M -30.5621,32.9469 L -31.2773,32.7145 L -31.9123,32.3115 L -32.427,31.7634 L -32.7893,31.1044 L -32.9763,30.376
 L -32.9763,29.624 L -32.7893,28.8956 L -32.427,28.2366 L -31.9123,27.6884 L -31.2773,27.2855 L -30.5621,27.0531
 L -29.8116,27.0059 L -29.0729,27.1468 L -28.3925,27.467 L -27.8131,27.9464 L -27.3711,28.5547 L -27.0942,29.2539
 L -27,30 L -27.0942,30.7461 L -27.3711,31.4453 L -27.8131,32.0536 L -28.3925,32.533 L -29.0729,32.8532
 L -29.8116,32.9941 z
M 29.4379,32.9469 L 28.7227,32.7145 L 28.0877,32.3115 L 27.5729,31.7634 L 27.2107,31.1044 L 27.0237,30.376
 L 27.0237,29.624 L 27.2107,28.8956 L 27.5729,28.2366 L 28.0877,27.6884 L 28.7227,27.2855 L 29.4379,27.0531
 L 30.1884,27.0059 L 30.927,27.1468 L 31.6075,27.467 L 32.1869,27.9464 L 32.6289,28.5547 L 32.9057,29.2539
 L 33,30 L 32.9057,30.7461 L 32.6289,31.4453 L 32.1869,32.0536 L 31.6075,32.533 L 30.927,32.8532
 L 30.1884,32.9941 z
M 14.4379,32.9469 L 13.7227,32.7145 L 13.0877,32.3115 L 12.5729,31.7634 L 12.2107,31.1044 L 12.0237,30.376
 L 12.0237,29.624 L 12.2107,28.8956 L 12.5729,28.2366 L 13.0877,27.6884 L 13.7227,27.2855 L 14.4379,27.0531
 L 15.1884,27.0059 L 15.927,27.1468 L 16.6075,27.467 L 17.1869,27.9464 L 17.6289,28.5547 L 17.9057,29.2539
 L 18,30 L 17.9057,30.7461 L 17.6289,31.4453 L 17.1869,32.0536 L 16.6075,32.533 L 15.927,32.8532
 L 15.1884,32.9941 z
M -0.562134,32.9469 L -1.27733,32.7145 L -1.91226,32.3115 L -2.42705,31.7634 L -2.78932,31.1044 L -2.97633,30.376
 L -2.97633,29.624 L -2.78932,28.8956 L -2.42705,28.2366 L -1.91226,27.6884 L -1.27733,27.2855 L -0.562134,27.0531
 L 0.18837,27.0059 L 0.927048,27.1468 L 1.60747,27.467 L 2.1869,27.9464 L 2.62891,28.5547 L 2.90575,29.2539
 L 3,30 L 2.90575,30.7461 L 2.62891,31.4453 L 2.1869,32.0536 L 1.60747,32.533 L 0.927048,32.8532
 L 0.18837,32.9941 z
M -0.562134,47.9469 L -1.27733,47.7145 L -1.91226,47.3115 L -2.42705,46.7634 L -2.78932,46.1044 L -2.97633,45.376
 L -2.97633,44.624 L -2.78932,43.8956 L -2.42705,43.2366 L -1.91226,42.6885 L -1.27733,42.2855 L -0.562134,42.0531
 L 0.18837,42.0059 L 0.927048,42.1468 L 1.60747,42.467 L 2.1869,42.9464 L 2.62891,43.5547 L 2.90575,44.2539
 L 3,45 L 2.90575,45.7461 L 2.62891,46.4453 L 2.1869,47.0536 L 1.60747,47.533 L 0.927048,47.8532
 L 0.18837,47.9941 z
" stroke="black" fill="lightgray" stroke-width="0.5"/>
</svg>
