<?xml version="1.0" standalone="no"?>
<!DOCTYPE svg PUBLIC "-//W3C//DTD SVG 1.1//EN" "http://www.w3.org/Graphics/SVG/1.1/DTD/svg11.dtd">
<svg width="88mm" height="58mm" viewBox="1 -59 88 58" xmlns="http://www.w3.org/2000/svg" version="1.1">
<title>OpenSCAD Model</title>
<path d="
M 84.1576,-1.53778 L 84.7991,-1.66537 L 85.4184,-1.87561 L 86.005,-2.16489 L 86.5488,-2.52824 L 87.0405,-2.95947
 L 87.4718,-3.4512 L 87.8351,-3.99501 L 88.1244,-4.58159 L 88.3346,-5.20091 L 88.4622,-5.84238 L 88.505,-6.49501
 L 88.505,-53.505 L 88.4622,-54.1576 L 88.3346,-54.7991 L 88.1244,-55.4184 L 87.8351,-56.005 L 87.4718,-56.5488
 L 87.0405,-57.0405 L 86.5488,-57.4718 L 86.005,-57.8351 L 85.4184,-58.1244 L 84.7991,-58.3346 L 84.1576,-58.4622
 L 83.505,-58.505 L 6.49501,-58.505 L 5.84238,-58.4622 L 5.20091,-58.3346 L 4.58159,-58.1244 L 3.99501,-57.8351
 L 3.4512,-57.4718 L 2.95947,-57.0405 L 2.52824,-56.5488 L 2.16489,-56.005 L 1.87561,-55.4184 L 1.66537,-54.7991
 L 1.53778,-54.1576 L 1.49501,-53.505 L 1.49501,-6.49501 L 1.53778,-5.84238 L 1.66537,-5.20091 L 1.87561,-4.58159
 L 2.16489,-3.99501 L 2.52824,-3.4512 L 2.95947,-2.95947 L 3.4512,-2.52824 L 3.99501,-2.16489 L 4.58159,-1.87561
 L 5.20091,-1.66537 L 5.84238,-1.53778 L 6.49501,-1.49501 L 83.505,-1.49501 z
M 52.0758,-49.2778 L 51.6588,-49.3607 L 51.2563,-49.4974 L 50.875,-49.6854 L 50.5215,-49.9216 L 50.2019,-50.2019
 L 49.9216,-50.5215 L 49.6854,-50.875 L 49.4974,-51.2563 L 49.3607,-51.6588 L 49.2778,-52.0758 L 49.25,-52.5
 L 49.2778,-52.9242 L 49.3607,-53.3412 L 49.4974,-53.7437 L 49.6854,-54.125 L 49.9216,-54.4785 L 50.2019,-54.7981
 L 50.5215,-55.0784 L 50.875,-55.3146 L 51.2563,-55.5026 L 51.6588,-55.6393 L 52.0758,-55.7222 L 52.5,-55.75
 L 52.9242,-55.7222 L 53.3412,-55.6393 L 53.7437,-55.5026 L 54.125,-55.3146 L 54.4785,-55.0784 L 54.7981,-54.7981
 L 55.0784,-54.4785 L 55.3146,-54.125 L 55.5026,-53.7437 L 55.6393,-53.3412 L 55.7222,-52.9242 L 55.75,-52.5
 L 55.7222,-52.0758 L 55.6393,-51.6588 L 55.5026,-51.2563 L 55.3146,-50.875 L 55.0784,-50.5215 L 54.7981,-50.2019
 L 54.4785,-49.9216 L 54.125,-49.6854 L 53.7437,-49.4974 L 53.3412,-49.3607 L 52.9242,-49.2778 L 52.5,-49.25
 z
M 82.0758,-49.2778 L 81.6588,-49.3607 L 81.2563,-49.4974 L 80.875,-49.6854 L 80.5215,-49.9216 L 80.2019,-50.2019
 L 79.9216,-50.5215 L 79.6854,-50.875 L 79.4974,-51.2563 L 79.3607,-51.6588 L 79.2778,-52.0758 L 79.25,-52.5
 L 79.2778,-52.9242 L 79.3607,-53.3412 L 79.4974,-53.7437 L 79.6854,-54.125 L 79.9216,-54.4785 L 80.2019,-54.7981
 L 80.5215,-55.0784 L 80.875,-55.3146 L 81.2563,-55.5026 L 81.6588,-55.6393 L 82.0758,-55.7222 L 82.5,-55.75
 L 82.9242,-55.7222 L 83.3412,-55.6393 L 83.7437,-55.5026 L 84.125,-55.3146 L 84.4785,-55.0784 L 84.7981,-54.7981
 L 85.0784,-54.4785 L 85.3146,-54.125 L 85.5026,-53.7437 L 85.6393,-53.3412 L 85.7222,-52.9242 L 85.75,-52.5
 L 85.7222,-52.0758 L 85.6393,-51.6588 L 85.5026,-51.2563 L 85.3146,-50.875 L 85.0784,-50.5215 L 84.7981,-50.2019
 L 84.4785,-49.9216 L 84.125,-49.6854 L 83.7437,-49.4974 L 83.3412,-49.3607 L 82.9242,-49.2778 L 82.5,-49.25
 z
M 67.0758,-49.2778 L 66.6588,-49.3607 L 66.2563,-49.4974 L 65.875,-49.6854 L 65.5215,-49.9216 L 65.2019,-50.2019
 L 64.9216,-50.5215 L 64.6854,-50.875 L 64.4974,-51.2563 L 64.3607,-51.6588 L 64.2778,-52.0758 L 64.25,-52.5
 L 64.2778,-52.9242 L 64.3607,-53.3412 L 64.4974,-53.7437 L 64.6854,-54.125 L 64.9216,-54.4785 L 65.2019,-54.7981
 L 65.5215,-55.0784 L 65.875,-55.3146 L 66.2563,-55.5026 L 66.6588,-55.6393 L 67.0758,-55.7222 L 67.5,-55.75
 L 67.9242,-55.7222 L 68.3412,-55.6393 L 68.7437,-55.5026 L 69.125,-55.3146 L 69.4785,-55.0784 L 69.7981,-54.7981
 L 70.0784,-54.4785 L 70.3146,-54.125 L 70.5026,-53.7437 L 70.6393,-53.3412 L 70.7222,-52.9242 L 70.75,-52.5
 L 70.7222,-52.0758 L 70.6393,-51.6588 L 70.5026,-51.2563 L 70.3146,-50.875 L 70.0784,-50.5215 L 69.7981,-50.2019
 L 69.4785,-49.9216 L 69.125,-49.6854 L 68.7437,-49.4974 L 68.3412,-49.3607 L 67.9242,-49.2778 L 67.5,-49.25
 z
M 37.0758,-49.2778 L 36.6588,-49.3607 L 36.2563,-49.4974 L 35.875,-49.6854 L 35.5215,-49.9216 L 35.2019,-50.2019
 L 34.9216,-50.5215 L 34.6854,-50.875 L 34.4974,-51.2563 L 34.3607,-51.6588 L 34.2778,-52.0758 L 34.25,-52.5
 L 34.2778,-52.9242 L 34.3607,-53.3412 L 34.4974,-53.7437 L 34.6854,-54.125 L 34.9216,-54.4785 L 35.2019,-54.7981
 L 35.5215,-55.0784 L 35.875,-55.3146 L 36.2563,-55.5026 L 36.6588,-55.6393 L 37.0758,-55.7222 L 37.5,-55.75
 L 37.9242,-55.7222 L 38.3412,-55.6393 L 38.7437,-55.5026 L 39.125,-55.3146 L 39.4785,-55.0784 L 39.7981,-54.7981
 L 40.0784,-54.4785 L 40.3146,-54.125 L 40.5026,-53.7437 L 40.6393,-53.3412 L 40.7222,-52.9242 L 40.75,-52.5
 L 40.7222,-52.0758 L 40.6393,-51.6588 L 40.5026,-51.2563 L 40.3146,-50.875 L 40.0784,-50.5215 L 39.7981,-50.2019
 L 39.4785,-49.9216 L 39.125,-49.6854 L 38.7437,-49.4974 L 38.3412,-49.3607 L 37.9242,-49.2778 L 37.5,-49.25
 z
M 7.07578,-49.2778 L 6.65883,-49.3607 L 6.25627,-49.4974 L 5.875,-49.6854 L 5.52151,-49.9216 L 5.20189,-50.2019
 L 4.9216,-50.5215 L 4.68541,-50.875 L 4.49739,-51.2563 L 4.36073,-51.6588 L 4.2778,-52.0758 L 4.25,-52.5
 L 4.2778,-52.9242 L 4.36073,-53.3412 L 4.49739,-53.7437 L 4.68541,-54.125 L 4.9216,-54.4785 L 5.20189,-54.7981
 L 5.52151,-55.0784 L 5.875,-55.3146 L 6.25627,-55.5026 L 6.65883,-55.6393 L 7.07578,-55.7222 L 7.5,-55.75
 L 7.92421,-55.7222 L 8.34116,-55.6393 L 8.74371,-55.5026 L 9.125,-55.3146 L 9.47847,-55.0784 L 9.7981,-54.7981
 L 10.0784,-54.4785 L 10.3146,-54.125 L 10.5026,-53.7437 L 10.6393,-53.3412 L 10.7222,-52.9242 L 10.75,-52.5
 L 10.7222,-52.0758 L 10.6393,-51.6588 L 10.5026,-51.2563 L 10.3146,-50.875 L 10.0784,-50.5215 L 9.7981,-50.2019
 L 9.47847,-49.9216 L 9.125,-49.6854 L 8.74371,-49.4974 L 8.34116,-49.3607 L 7.92421,-49.2778 L 7.5,-49.25
 z
M 22.0758,-49.2778 L 21.6588,-49.3607 L 21.2563,-49.4974 L 20.875,-49.6854 L 20.5215,-49.9216 L 20.2019,-50.2019
 L 19.9216,-50.5215 L 19.6854,-50.875 L 19.4974,-51.2563 L 19.3607,-51.6588 L 19.2778,-52.0758 L 19.25,-52.5
 L 19.2778,-52.9242 L 19.3607,-53.3412 L 19.4974,-53.7437 L 19.6854,-54.125 L 19.9216,-54.4785 L 20.2019,-54.7981
 L 20.5215,-55.0784 L 20.875,-55.3146 L 21.2563,-55.5026 L 21.6588,-55.6393 L 22.0758,-55.7222 L 22.5,-55.75
 L 22.9242,-55.7222 L 23.3412,-55.6393 L 23.7437,-55.5026 L 24.125,-55.3146 L 24.4785,-55.0784 L 24.7981,-54.7981
 L 25.0784,-54.4785 L 25.3146,-54.125 L 25.5026,-53.7437 L 25.6393,-53.3412 L 25.7222,-52.9242 L 25.75,-52.5
 L 25.7222,-52.0758 L 25.6393,-51.6588 L 25.5026,-51.2563 L 25.3146,-50.875 L 25.0784,-50.5215 L 24.7981,-50.2019
 L 24.4785,-49.9216 L 24.125,-49.6854 L 23.7437,-49.4974 L 23.3412,-49.3607 L 22.9242,-49.2778 L 22.5,-49.25
 z
M 7.07578,-34.2778 L 6.65883,-34.3607 L 6.25627,-34.4974 L 5.875,-34.6854 L 5.52151,-34.9216 L 5.20189,-35.2019
 L 4.9216,-35.5215 L 4.68541,-35.875 L 4.49739,-36.2563 L 4.36073,-36.6588 L 4.2778,-37.0758 L 4.25,-37.5
 L 4.2778,-37.9242 L 4.36073,-38.3412 L 4.49739,-38.7437 L 4.68541,-39.125 L 4.9216,-39.4785 L 5.20189,-39.7981
 L 5.52151,-40.0784 L 5.875,-40.3146 L 6.25627,-40.5026 L 6.65883,-40.6393 L 7.07578,-40.7222 L 7.5,-40.75
 L 7.92421,-40.7222 L 8.34116,-40.6393 L 8.74371,-40.5026 L 9.125,-40.3146 L 9.47847,-40.0784 L 9.7981,-39.7981
 L 10.0784,-39.4785 L 10.3146,-39.125 L 10.5026,-38.7437 L 10.6393,-38.3412 L 10.7222,-37.9242 L 10.75,-37.5
 L 10.7222,-37.0758 L 10.6393,-36.6588 L 10.5026,-36.2563 L 10.3146,-35.875 L 10.0784,-35.5215 L 9.7981,-35.2019
 L 9.47847,-34.9216 L 9.125,-34.6854 L 8.74371,-34.4974 L 8.34116,-34.3607 L 7.92421,-34.2778 L 7.5,-34.25
 z
M 22.0758,-34.2778 L 21.6588,-34.3607 L 21.2563,-34.4974 L 20.875,-34.6854 L 20.5215,-34.9216 L 20.2019,-35.2019
 L 19.9216,-35.5215 L 19.6854,-35.875 L 19.4974,-36.2563 L 19.3607,-36.6588 L 19.2778,-37.0758 L 19.25,-37.5
 L 19.2778,-37.9242 L 19.3607,-38.3412 L 19.4974,-38.7437 L 19.6854,-39.125 L 19.9216,-39.4785 L 20.2019,-39.7981
 L 20.5215,-40.0784 L 20.875,-40.3146 L 21.2563,-40.5026 L 21.6588,-40.6393 L 22.0758,-40.7222 L 22.5,-40.75
 L 22.9242,-40.7222 L 23.3412,-40.6393 L 23.7437,-40.5026 L 24.125,-40.3146 L 24.4785,-40.0784 L 24.7981,-39.7981
 L 25.0784,-39.4785 L 25.3146,-39.125 L 25.5026,-38.7437 L 25.6393,-38.3412 L 25.7222,-37.9242 L 25.75,-37.5
 L 25.7222,-37.0758 L 25.6393,-36.6588 L 25.5026,-36.2563 L 25.3146,-35.875 L 25.0784,-35.5215 L 24.7981,-35.2019
 L 24.4785,-34.9216 L 24.125,-34.6854 L 23.7437,-34.4974 L 23.3412,-34.3607 L 22.9242,-34.2778 L 22.5,-34.25
 z
M 37.0758,-34.2778 L 36.6588,-34.3607 L 36.2563,-34.4974 L 35.875,-34.6854 L 35.5215,-34.9216 L 35.2019,-35.2019
 L 34.9216,-35.5215 L 34.6854,-35.875 L 34.4974,-36.2563 L 34.3607,-36.6588 L 34.2778,-37.0758 L 34.25,-37.5
 L 34.2778,-37.9242 L 34.3607,-38.3412 L 34.4974,-38.7437 L 34.6854,-39.125 L 34.9216,-39.4785 L 35.2019,-39.7981
 L 35.5215,-40.0784 L 35.875,-40.3146 L 36.2563,-40.5026 L 36.6588,-40.6393 L 37.0758,-40.7222 L 37.5,-40.75
 L 37.9242,-40.7222 L 38.3412,-40.6393 L 38.7437,-40.5026 L 39.125,-40.3146 L 39.4785,-40.0784 L 39.7981,-39.7981
 L 40.0784,-39.4785 L 40.3146,-39.125 L 40.5026,-38.7437 L 40.6393,-38.3412 L 40.7222,-37.9242 L 40.75,-37.5
 L 40.7222,-37.0758 L 40.6393,-36.6588 L 40.5026,-36.2563 L 40.3146,-35.875 L 40.0784,-35.5215 L 39.7981,-35.2019
 L 39.4785,-34.9216 L 39.125,-34.6854 L 38.7437,-34.4974 L 38.3412,-34.3607 L 37.9242,-34.2778 L 37.5,-34.25
 z
M 52.0758,-34.2778 L 51.6588,-34.3607 L 51.2563,-34.4974 L 50.875,-34.6854 L 50.5215,-34.9216 L 50.2019,-35.2019
 L 49.9216,-35.5215 L 49.6854,-35.875 L 49.4974,-36.2563 L 49.3607,-36.6588 L 49.2778,-37.0758 L 49.25,-37.5
 L 49.2778,-37.9242 L 49.3607,-38.3412 L 49.4974,-38.7437 L 49.6854,-39.125 L 49.9216,-39.4785 L 50.2019,-39.7981
 L 50.5215,-40.0784 L 50.875,-40.3146 L 51.2563,-40.5026 L 51.6588,-40.6393 L 52.0758,-40.7222 L 52.5,-40.75
 L 52.9242,-40.7222 L 53.3412,-40.6393 L 53.7437,-40.5026 L 54.125,-40.3146 L 54.4785,-40.0784 L 54.7981,-39.7981
 L 55.0784,-39.4785 L 55.3146,-39.125 L 55.5026,-38.7437 L 55.6393,-38.3412 L 55.7222,-37.9242 L 55.75,-37.5
 L 55.7222,-37.0758 L 55.6393,-36.6588 L 55.5026,-36.2563 L 55.3146,-35.875 L 55.0784,-35.5215 L 54.7981,-35.2019
 L 54.4785,-34.9216 L 54.125,-34.6854 L 53.7437,-34.4974 L 53.3412,-34.3607 L 52.9242,-34.2778 L 52.5,-34.25
 z
M 79.4974,-36.2563 L 79.3607,-36.6588 L 79.2778,-37.0758 L 79.25,-37.5 L 79.2778,-37.9242 L 79.3607,-38.3412
 L 79.4974,-38.7437 L 79.6854,-39.125 L 79.9216,-39.4785 L 80.2019,-39.7981 L 80.5215,-40.0784 L 80.875,-40.3146
 L 81.2563,-40.5026 L 81.6588,-40.6393 L 82.0758,-40.7222 L 82.5,-40.75 L 82.9242,-40.7222 L 83.3412,-40.6393
 L 83.7437,-40.5026 L 84.125,-40.3146 L 84.4785,-40.0784 L 84.7981,-39.7981 L 85.0784,-39.4785 L 85.3146,-39.125
 L 85.5026,-38.7437 L 85.6393,-38.3412 L 85.7222,-37.9242 L 85.75,-37.5 L 85.7222,-37.0758 L 85.6393,-36.6588
 L 85.5026,-36.2563 L 85.3146,-35.875 L 85.0784,-35.5215 L 84.7981,-35.2019 L 84.4785,-34.9216 L 84.125,-34.6854
 L 83.7437,-34.4974 L 83.3412,-34.3607 L 82.9242,-34.2778 L 82.5,-34.25 L 82.0758,-34.2778 L 81.6588,-34.3607
 L 81.2563,-34.4974 L 80.875,-34.6854 L 80.5215,-34.9216 L 80.2019,-35.2019 L 79.9216,-35.5215 L 79.6854,-35.875
 z
M 82.0758,-19.2778 L 81.6588,-19.3607 L 81.2563,-19.4974 L 80.875,-19.6854 L 80.5215,-19.9216 L 80.2019,-20.2019
 L 79.9216,-20.5215 L 79.6854,-20.875 L 79.4974,-21.2563 L 79.3607,-21.6588 L 79.2778,-22.0758 L 79.25,-22.5
 L 79.2778,-22.9242 L 79.3607,-23.3412 L 79.4974,-23.7437 L 79.6854,-24.125 L 79.9216,-24.4785 L 80.2019,-24.7981
 L 80.5215,-25.0784 L 80.875,-25.3146 L 81.2563,-25.5026 L 81.6588,-25.6393 L 82.0758,-25.7222 L 82.5,-25.75
 L 82.9242,-25.7222 L 83.3412,-25.6393 L 83.7437,-25.5026 L 84.125,-25.3146 L 84.4785,-25.0784 L 84.7981,-24.7981
 L 85.0784,-24.4785 L 85.3146,-24.125 L 85.5026,-23.7437 L 85.6393,-23.3412 L 85.7222,-22.9242 L 85.75,-22.5
 L 85.7222,-22.0758 L 85.6393,-21.6588 L 85.5026,-21.2563 L 85.3146,-20.875 L 85.0784,-20.5215 L 84.7981,-20.2019
 L 84.4785,-19.9216 L 84.125,-19.6854 L 83.7437,-19.4974 L 83.3412,-19.3607 L 82.9242,-19.2778 L 82.5,-19.25
 z
M 22.0758,-19.2778 L 21.6588,-19.3607 L 21.2563,-19.4974 L 20.875,-19.6854 L 20.5215,-19.9216 L 20.2019,-20.2019
 L 19.9216,-20.5215 L 19.6854,-20.875 L 19.4974,-21.2563 L 19.3607,-21.6588 L 19.2778,-22.0758 L 19.25,-22.5
 L 19.2778,-22.9242 L 19.3607,-23.3412 L 19.4974,-23.7437 L 19.6854,-24.125 L 19.9216,-24.4785 L 20.2019,-24.7981
 L 20.5215,-25.0784 L 20.875,-25.3146 L 21.2563,-25.5026 L 21.6588,-25.6393 L 22.0758,-25.7222 L 22.5,-25.75
 L 22.9242,-25.7222 L 23.3412,-25.6393 L 23.7437,-25.5026 L 24.125,-25.3146 L 24.4785,-25.0784 L 24.7981,-24.7981
 L 25.0784,-24.4785 L 25.3146,-24.125 L 25.5026,-23.7437 L 25.6393,-23.3412 L 25.7222,-22.9242 L 25.75,-22.5
 L 25.7222,-22.0758 L 25.6393,-21.6588 L 25.5026,-21.2563 L 25.3146,-20.875 L 25.0784,-20.5215 L 24.7981,-20.2019
 L 24.4785,-19.9216 L 24.125,-19.6854 L 23.7437,-19.4974 L 23.3412,-19.3607 L 22.9242,-19.2778 L 22.5,-19.25
 z
M 37.0758,-19.2778 L 36.6588,-19.3607 L 36.2563,-19.4974 L 35.875,-19.6854 L 35.5215,-19.9216 L 35.2019,-20.2019
 L 34.9216,-20.5215 L 34.6854,-20.875 L 34.4974,-21.2563 L 34.3607,-21.6588 L 34.2778,-22.0758 L 34.25,-22.5
 L 34.2778,-22.9242 L 34.3607,-23.3412 L 34.4974,-23.7437 L 34.6854,-24.125 L 34.9216,-24.4785 L 35.2019,-24.7981
 L 35.5215,-25.0784 L 35.875,-25.3146 L 36.2563,-25.5026 L 36.6588,-25.6393 L 37.0758,-25.7222 L 37.5,-25.75
 L 37.9242,-25.7222 L 38.3412,-25.6393 L 38.7437,-25.5026 L 39.125,-25.3146 L 39.4785,-25.0784 L 39.7981,-24.7981
 L 40.0784,-24.4785 L 40.3146,-24.125 L 40.5026,-23.7437 L 40.6393,-23.3412 L 40.7222,-22.9242 L 40.75,-22.5
 L 40.7222,-22.0758 L 40.6393,-21.6588 L 40.5026,-21.2563 L 40.3146,-20.875 L 40.0784,-20.5215 L 39.7981,-20.2019
 L 39.4785,-19.9216 L 39.125,-19.6854 L 38.7437,-19.4974 L 38.3412,-19.3607 L 37.9242,-19.2778 L 37.5,-19.25
 z
M 7.07578,-19.2778 L 6.65883,-19.3607 L 6.25627,-19.4974 L 5.875,-19.6854 L 5.52151,-19.9216 L 5.20189,-20.2019
 L 4.9216,-20.5215 L 4.68541,-20.875 L 4.49739,-21.2563 L 4.36073,-21.6588 L 4.2778,-22.0758 L 4.25,-22.5
 L 4.2778,-22.9242 L 4.36073,-23.3412 L 4.49739,-23.7437 L 4.68541,-24.125 L 4.9216,-24.4785 L 5.20189,-24.7981
 L 5.52151,-25.0784 L 5.875,-25.3146 L 6.25627,-25.5026 L 6.65883,-25.6393 L 7.07578,-25.7222 L 7.5,-25.75
 L 7.92421,-25.7222 L 8.34116,-25.6393 L 8.74371,-25.5026 L 9.125,-25.3146 L 9.47847,-25.0784 L 9.7981,-24.7981
 L 10.0784,-24.4785 L 10.3146,-24.125 L 10.5026,-23.7437 L 10.6393,-23.3412 L 10.7222,-22.9242 L 10.75,-22.5
 L 10.7222,-22.0758 L 10.6393,-21.6588 L 10.5026,-21.2563 L 10.3146,-20.875 L 10.0784,-20.5215 L 9.7981,-20.2019
 L 9.47847,-19.9216 L 9.125,-19.6854 L 8.74371,-19.4974 L 8.34116,-19.3607 L 7.92421,-19.2778 L 7.5,-19.25
 z
M 52.0758,-19.2778 L 51.6588,-19.3607 L 51.2563,-19.4974 L 50.875,-19.6854 L 50.5215,-19.9216 L 50.2019,-20.2019
 L 49.9216,-20.5215 L 49.6854,-20.875 L 49.4974,-21.2563 L 49.3607,-21.6588 L 49.2778,-22.0758 L 49.25,-22.5
 L 49.2778,-22.9242 L 49.3607,-23.3412 L 49.4974,-23.7437 L 49.6854,-24.125 L 49.9216,-24.4785 L 50.2019,-24.7981
 L 50.5215,-25.0784 L 50.875,-25.3146 L 51.2563,-25.5026 L 51.6588,-25.6393 L 52.0758,-25.7222 L 52.5,-25.75
 L 52.9242,-25.7222 L 53.3412,-25.6393 L 53.7437,-25.5026 L 54.125,-25.3146 L 54.4785,-25.0784 L 54.7981,-24.7981
 L 55.0784,-24.4785 L 55.3146,-24.125 L 55.5026,-23.7437 L 55.6393,-23.3412 L 55.7222,-22.9242 L 55.75,-22.5
 L 55.7222,-22.0758 L 55.6393,-21.6588 L 55.5026,-21.2563 L 55.3146,-20.875 L 55.0784,-20.5215 L 54.7981,-20.2019
 L 54.4785,-19.9216 L 54.125,-19.6854 L 53.7437,-19.4974 L 53.3412,-19.3607 L 52.9242,-19.2778 L 52.5,-19.25
 z
M 67.0758,-19.2778 L 66.6588,-19.3607 L 66.2563,-19.4974 L 65.875,-19.6854 L 65.5215,-19.9216 L 65.2019,-20.2019
 L 64.9216,-20.5215 L 64.6854,-20.875 L 64.4974,-21.2563 L 64.3607,-21.6588 L 64.2778,-22.0758 L 64.25,-22.5
 L 64.2778,-22.9242 L 64.3607,-23.3412 L 64.4974,-23.7437 L 64.6854,-24.125 L 64.9216,-24.4785 L 65.2019,-24.7981
 L 65.5215,-25.0784 L 65.875,-25.3146 L 66.2563,-25.5026 L 66.6588,-25.6393 L 67.0758,-25.7222 L 67.5,-25.75
 L 67.9242,-25.7222 L 68.3412,-25.6393 L 68.7437,-25.5026 L 69.125,-25.3146 L 69.4785,-25.0784 L 69.7981,-24.7981
 L 70.0784,-24.4785 L 70.3146,-24.125 L 70.5026,-23.7437 L 70.6393,-23.3412 L 70.7222,-22.9242 L 70.75,-22.5
 L 70.7222,-22.0758 L 70.6393,-21.6588 L 70.5026,-21.2563 L 70.3146,-20.875 L 70.0784,-20.5215 L 69.7981,-20.2019
 L 69.4785,-19.9216 L 69.125,-19.6854 L 68.7437,-19.4974 L 68.3412,-19.3607 L 67.9242,-19.2778 L 67.5,-19.25
 z
M 7.07578,-4.2778 L 6.65883,-4.36073 L 6.25627,-4.49739 L 5.875,-4.68541 L 5.52151,-4.9216 L 5.20189,-5.20189
 L 4.9216,-5.52151 L 4.68541,-5.875 L 4.49739,-6.25627 L 4.36073,-6.65883 L 4.2778,-7.07578 L 4.25,-7.5
 L 4.2778,-7.92421 L 4.36073,-8.34116 L 4.49739,-8.74371 L 4.68541,-9.125 L 4.9216,-9.47847 L 5.20189,-9.7981
 L 5.52151,-10.0784 L 5.875,-10.3146 L 6.25627,-10.5026 L 6.65883,-10.6393 L 7.07578,-10.7222 L 7.5,-10.75
 L 7.92421,-10.7222 L 8.34116,-10.6393 L 8.74371,-10.5026 L 9.125,-10.3146 L 9.47847,-10.0784 L 9.7981,-9.7981
 L 10.0784,-9.47847 L 10.3146,-9.125 L 10.5026,-8.74371 L 10.6393,-8.34116 L 10.7222,-7.92421 L 10.75,-7.5
 L 10.7222,-7.07578 L 10.6393,-6.65883 L 10.5026,-6.25627 L 10.3146,-5.875 L 10.0784,-5.52151 L 9.7981,-5.20189
 L 9.47847,-4.9216 L 9.125,-4.68541 L 8.74371,-4.49739 L 8.34116,-4.36073 L 7.92421,-4.2778 L 7.5,-4.25
 z
M 22.0758,-4.2778 L 21.6588,-4.36073 L 21.2563,-4.49739 L 20.875,-4.68541 L 20.5215,-4.9216 L 20.2019,-5.20189
 L 19.9216,-5.52151 L 19.6854,-5.875 L 19.4974,-6.25627 L 19.3607,-6.65883 L 19.2778,-7.07578 L 19.25,-7.5
 L 19.2778,-7.92421 L 19.3607,-8.34116 L 19.4974,-8.74371 L 19.6854,-9.125 L 19.9216,-9.47847 L 20.2019,-9.7981
 L 20.5215,-10.0784 L 20.875,-10.3146 L 21.2563,-10.5026 L 21.6588,-10.6393 L 22.0758,-10.7222 L 22.5,-10.75
 L 22.9242,-10.7222 L 23.3412,-10.6393 L 23.7437,-10.5026 L 24.125,-10.3146 L 24.4785,-10.0784 L 24.7981,-9.7981
 L 25.0784,-9.47847 L 25.3146,-9.125 L 25.5026,-8.74371 L 25.6393,-8.34116 L 25.7222,-7.92421 L 25.75,-7.5
 L 25.7222,-7.07578 L 25.6393,-6.65883 L 25.5026,-6.25627 L 25.3146,-5.875 L 25.0784,-5.52151 L 24.7981,-5.20189
 L 24.4785,-4.9216 L 24.125,-4.68541 L 23.7437,-4.49739 L 23.3412,-4.36073 L 22.9242,-4.2778 L 22.5,-4.25
 z
M 67.0758,-4.2778 L 66.6588,-4.36073 L 66.2563,-4.49739 L 65.875,-4.68541 L 65.5215,-4.9216 L 65.2019,-5.20189
 L 64.9216,-5.52151 L 64.6854,-5.875 L 64.4974,-6.25627 L 64.3607,-6.65883 L 64.2778,-7.07578 L 64.25,-7.5
 L 64.2778,-7.92421 L 64.3607,-8.34116 L 64.4974,-8.74371 L 64.6854,-9.125 L 64.9216,-9.47847 L 65.2019,-9.7981
 L 65.5215,-10.0784 L 65.875,-10.3146 L 66.2563,-10.5026 L 66.6588,-10.6393 L 67.0758,-10.7222 L 67.5,-10.75
 L 67.9242,-10.7222 L 68.3412,-10.6393 L 68.7437,-10.5026 L 69.125,-10.3146 L 69.4785,-10.0784 L 69.7981,-9.7981
 L 70.0784,-9.47847 L 70.3146,-9.125 L 70.5026,-8.74371 L 70.6393,-8.34116 L 70.7222,-7.92421 L 70.75,-7.5
 L 70.7222,-7.07578 L 70.6393,-6.65883 L 70.5026,-6.25627 L 70.3146,-5.875 L 70.0784,-5.52151 L 69.7981,-5.20189
 L 69.4785,-4.9216 L 69.125,-4.68541 L 68.7437,-4.49739 L 68.3412,-4.36073 L 67.9242,-4.2778 L 67.5,-4.25
 z
M 82.0758,-4.2778 L 81.6588,-4.36073 L 81.2563,-4.49739 L 80.875,-4.68541 L 80.5215,-4.9216 L 80.2019,-5.20189
 L 79.9216,-5.52151 L 79.6854,-5.875 L 79.4974,-6.25627 L 79.3607,-6.65883 L 79.2778,-7.07578 L 79.25,-7.5
 L 79.2778,-7.92421 L 79.3607,-8.34116 L 79.4974,-8.74371 L 79.6854,-9.125 L 79.9216,-9.47847 L 80.2019,-9.7981
 L 80.5215,-10.0784 L 80.875,-10.3146 L 81.2563,-10.5026 L 81.6588,-10.6393 L 82.0758,-10.7222 L 82.5,-10.75
 L 82.9242,-10.7222 L 83.3412,-10.6393 L 83.7437,-10.5026 L 84.125,-10.3146 L 84.4785,-10.0784 L 84.7981,-9.7981
 L 85.0784,-9.47847 L 85.3146,-9.125 L 85.5026,-8.74371 L 85.6393,-8.34116 L 85.7222,-7.92421 L 85.75,-7.5
 L 85.7222,-7.07578 L 85.6393,-6.65883 L 85.5026,-6.25627 L 85.3146,-5.875 L 85.0784,-5.52151 L 84.7981,-5.20189
 L 84.4785,-4.9216 L 84.125,-4.68541 L 83.7437,-4.49739 L 83.3412,-4.36073 L 82.9242,-4.2778 L 82.5,-4.25
 z
M 52.0758,-4.2778 L 51.6588,-4.36073 L 51.2563,-4.49739 L 50.875,-4.68541 L 50.5215,-4.9216 L 50.2019,-5.20189
 L 49.9216,-5.52151 L 49.6854,-5.875 L 49.4974,-6.25627 L 49.3607,-6.65883 L 49.2778,-7.07578 L 49.25,-7.5
 L 49.2778,-7.92421 L 49.3607,-8.34116 L 49.4974,-8.74371 L 49.6854,-9.125 L 49.9216,-9.47847 L 50.2019,-9.7981
 L 50.5215,-10.0784 L 50.875,-10.3146 L 51.2563,-10.5026 L 51.6588,-10.6393 L 52.0758,-10.7222 L 52.5,-10.75
 L 52.9242,-10.7222 L 53.3412,-10.6393 L 53.7437,-10.5026 L 54.125,-10.3146 L 54.4785,-10.0784 L 54.7981,-9.7981
 L 55.0784,-9.47847 L 55.3146,-9.125 L 55.5026,-8.74371 L 55.6393,-8.34116 L 55.7222,-7.92421 L 55.75,-7.5
 L 55.7222,-7.07578 L 55.6393,-6.65883 L 55.5026,-6.25627 L 55.3146,-5.875 L 55.0784,-5.52151 L 54.7981,-5.20189
 L 54.4785,-4.9216 L 54.125,-4.68541 L 53.7437,-4.49739 L 53.3412,-4.36073 L 52.9242,-4.2778 L 52.5,-4.25
 z
M 37.0758,-4.2778 L 36.6588,-4.36073 L 36.2563,-4.49739 L 35.875,-4.68541 L 35.5215,-4.9216 L 35.2019,-5.20189
 L 34.9216,-5.52151 L 34.6854,-5.875 L 34.4974,-6.25627 L 34.3607,-6.65883 L 34.2778,-7.07578 L 34.25,-7.5
 L 34.2778,-7.92421 L 34.3607,-8.34116 L 34.4974,-8.74371 L 34.6854,-9.125 L 34.9216,-9.47847 L 35.2019,-9.7981
 L 35.5215,-10.0784 L 35.875,-10.3146 L 36.2563,-10.5026 L 36.6588,-10.6393 L 37.0758,-10.7222 L 37.5,-10.75
 L 37.9242,-10.7222 L 38.3412,-10.6393 L 38.7437,-10.5026 L 39.125,-10.3146 L 39.4785,-10.0784 L 39.7981,-9.7981
 L 40.0784,-9.47847 L 40.3146,-9.125 L 40.5026,-8.74371 L 40.6393,-8.34116 L 40.7222,-7.92421 L 40.75,-7.5
 L 40.7222,-7.07578 L 40.6393,-6.65883 L 40.5026,-6.25627 L 40.3146,-5.875 L 40.0784,-5.52151 L 39.7981,-5.20189
 L 39.4785,-4.9216 L 39.125,-4.68541 L 38.7437,-4.49739 L 38.3412,-4.36073 L 37.9242,-4.2778 L 37.5,-4.25
 z
M 69.4785,-34.9216 L 69.125,-34.6854 L 68.7437,-34.4974 L 68.3412,-34.3607 L 67.9242,-34.2778 L 67.5,-34.25
 L 67.0758,-34.2778 L 66.6588,-34.3607 L 66.2563,-34.4974 L 65.875,-34.6854 L 65.5215,-34.9216 L 65.2019,-35.2019
 L 64.9216,-35.5215 L 64.6854,-35.875 L 64.4974,-36.2563 L 64.3607,-36.6588 L 64.2778,-37.0758 L 64.25,-37.5
 L 64.2778,-37.9242 L 64.3607,-38.3412 L 64.4974,-38.7437 L 64.6854,-39.125 L 64.9216,-39.4785 L 65.2019,-39.7981
 L 65.5215,-40.0784 L 65.875,-40.3146 L 66.2563,-40.5026 L 66.6588,-40.6393 L 67.0758,-40.7222 L 67.5,-40.75
 L 67.9242,-40.7222 L 68.3412,-40.6393 L 68.7437,-40.5026 L 69.125,-40.3146 L 69.4785,-40.0784 L 69.7981,-39.7981
 L 70.0784,-39.4785 L 70.3146,-39.125 L 70.5026,-38.7437 L 70.6393,-38.3412 L 70.7222,-37.9242 L 70.75,-37.5
 L 70.7222,-37.0758 L 70.6393,-36.6588 L 70.5026,-36.2563 L 70.3146,-35.875 L 70.0784,-35.5215 L 69.7981,-35.2019
 z
" stroke="black" fill="lightgray" stroke-width="0.5"/>
</svg>
