<?xml version="1.0" standalone="no"?>
<!DOCTYPE svg PUBLIC "-//W3C//DTD SVG 1.1//EN" "http://www.w3.org/Graphics/SVG/1.1/DTD/svg11.dtd">
<svg width="88mm" height="58mm" viewBox="1 -59 88 58" xmlns="http://www.w3.org/2000/svg" version="1.1">
<title>OpenSCAD Model</title>
<path d="
M 84.1576,-1.53778 L 84.7991,-1.66537 L 85.4184,-1.87561 L 86.005,-2.16489 L 86.5488,-2.52824 L 87.0405,-2.95947
 L 87.4718,-3.4512 L 87.8351,-3.99501 L 88.1244,-4.58159 L 88.3346,-5.20091 L 88.4622,-5.84238 L 88.505,-6.49501
 L 88.505,-53.505 L 88.4622,-54.1576 L 88.3346,-54.7991 L 88.1244,-55.4184 L 87.8351,-56.005 L 87.4718,-56.5488
 L 87.0405,-57.0405 L 86.5488,-57.4718 L 86.005,-57.8351 L 85.4184,-58.1244 L 84.7991,-58.3346 L 84.1576,-58.4622
 L 83.505,-58.505 L 6.49501,-58.505 L 5.84238,-58.4622 L 5.20091,-58.3346 L 4.58159,-58.1244 L 3.99501,-57.8351
 L 3.4512,-57.4718 L 2.95947,-57.0405 L 2.52824,-56.5488 L 2.16489,-56.005 L 1.87561,-55.4184 L 1.66537,-54.7991
 L 1.53778,-54.1576 L 1.49501,-53.505 L 1.49501,-6.49501 L 1.53778,-5.84238 L 1.66537,-5.20091 L 1.87561,-4.58159
 L 2.16489,-3.99501 L 2.52824,-3.4512 L 2.95947,-2.95947 L 3.4512,-2.52824 L 3.99501,-2.16489 L 4.58159,-1.87561
 L 5.20091,-1.66537 L 5.84238,-1.53778 L 6.49501,-1.49501 L 83.505,-1.49501 z
M 79.7284,-51.3519 L 79.6022,-51.7235 L 79.5257,-52.1084 L 79.5,-52.5 L 79.5257,-52.8916 L 79.6022,-53.2765
 L 79.7284,-53.648 L 79.9019,-54 L 80.1199,-54.3263 L 80.3787,-54.6213 L 80.6737,-54.8801 L 81,-55.0981
 L 81.3519,-55.2716 L 81.7235,-55.3978 L 82.1084,-55.4743 L 82.5,-55.5 L 82.8916,-55.4743 L 83.2765,-55.3978
 L 83.648,-55.2716 L 84,-55.0981 L 84.3263,-54.8801 L 84.6213,-54.6213 L 84.8801,-54.3263 L 85.0981,-54
 L 85.2716,-53.648 L 85.3978,-53.2765 L 85.4743,-52.8916 L 85.5,-52.5 L 85.4743,-52.1084 L 85.3978,-51.7235
 L 85.2716,-51.3519 L 85.0981,-51 L 84.8801,-50.6737 L 84.6213,-50.3787 L 84.3263,-50.1199 L 84,-49.9019
 L 83.648,-49.7284 L 83.2765,-49.6022 L 82.8916,-49.5257 L 82.5,-49.5 L 82.1084,-49.5257 L 81.7235,-49.6022
 L 81.3519,-49.7284 L 81,-49.9019 L 80.6737,-50.1199 L 80.3787,-50.3787 L 80.1199,-50.6737 L 79.9019,-51
 z
M 19.7283,-51.3519 L 19.6022,-51.7235 L 19.5257,-52.1084 L 19.5,-52.5 L 19.5257,-52.8916 L 19.6022,-53.2765
 L 19.7283,-53.648 L 19.9019,-54 L 20.1199,-54.3263 L 20.3787,-54.6213 L 20.6737,-54.8801 L 21,-55.0981
 L 21.3519,-55.2716 L 21.7235,-55.3978 L 22.1084,-55.4743 L 22.5,-55.5 L 22.8916,-55.4743 L 23.2764,-55.3978
 L 23.648,-55.2716 L 24,-55.0981 L 24.3263,-54.8801 L 24.6213,-54.6213 L 24.8801,-54.3263 L 25.0981,-54
 L 25.2716,-53.648 L 25.3978,-53.2765 L 25.4743,-52.8916 L 25.5,-52.5 L 25.4743,-52.1084 L 25.3978,-51.7235
 L 25.2716,-51.3519 L 25.0981,-51 L 24.8801,-50.6737 L 24.6213,-50.3787 L 24.3263,-50.1199 L 24,-49.9019
 L 23.648,-49.7284 L 23.2764,-49.6022 L 22.8916,-49.5257 L 22.5,-49.5 L 22.1084,-49.5257 L 21.7235,-49.6022
 L 21.3519,-49.7284 L 21,-49.9019 L 20.6737,-50.1199 L 20.3787,-50.3787 L 20.1199,-50.6737 L 19.9019,-51
 z
M 37.1084,-49.5257 L 36.7235,-49.6022 L 36.3519,-49.7284 L 36,-49.9019 L 35.6737,-50.1199 L 35.3787,-50.3787
 L 35.1199,-50.6737 L 34.9019,-51 L 34.7284,-51.3519 L 34.6022,-51.7235 L 34.5257,-52.1084 L 34.5,-52.5
 L 34.5257,-52.8916 L 34.6022,-53.2765 L 34.7284,-53.648 L 34.9019,-54 L 35.1199,-54.3263 L 35.3787,-54.6213
 L 35.6737,-54.8801 L 36,-55.0981 L 36.3519,-55.2716 L 36.7235,-55.3978 L 37.1084,-55.4743 L 37.5,-55.5
 L 37.8916,-55.4743 L 38.2765,-55.3978 L 38.648,-55.2716 L 39,-55.0981 L 39.3263,-54.8801 L 39.6213,-54.6213
 L 39.8801,-54.3263 L 40.0981,-54 L 40.2716,-53.648 L 40.3978,-53.2765 L 40.4743,-52.8916 L 40.5,-52.5
 L 40.4743,-52.1084 L 40.3978,-51.7235 L 40.2716,-51.3519 L 40.0981,-51 L 39.8801,-50.6737 L 39.6213,-50.3787
 L 39.3263,-50.1199 L 39,-49.9019 L 38.648,-49.7284 L 38.2765,-49.6022 L 37.8916,-49.5257 L 37.5,-49.5
 z
M 52.1084,-49.5257 L 51.7235,-49.6022 L 51.3519,-49.7284 L 51,-49.9019 L 50.6737,-50.1199 L 50.3787,-50.3787
 L 50.1199,-50.6737 L 49.9019,-51 L 49.7284,-51.3519 L 49.6022,-51.7235 L 49.5257,-52.1084 L 49.5,-52.5
 L 49.5257,-52.8916 L 49.6022,-53.2765 L 49.7284,-53.648 L 49.9019,-54 L 50.1199,-54.3263 L 50.3787,-54.6213
 L 50.6737,-54.8801 L 51,-55.0981 L 51.3519,-55.2716 L 51.7235,-55.3978 L 52.1084,-55.4743 L 52.5,-55.5
 L 52.8916,-55.4743 L 53.2765,-55.3978 L 53.648,-55.2716 L 54,-55.0981 L 54.3263,-54.8801 L 54.6213,-54.6213
 L 54.8801,-54.3263 L 55.0981,-54 L 55.2716,-53.648 L 55.3978,-53.2765 L 55.4743,-52.8916 L 55.5,-52.5
 L 55.4743,-52.1084 L 55.3978,-51.7235 L 55.2716,-51.3519 L 55.0981,-51 L 54.8801,-50.6737 L 54.6213,-50.3787
 L 54.3263,-50.1199 L 54,-49.9019 L 53.648,-49.7284 L 53.2765,-49.6022 L 52.8916,-49.5257 L 52.5,-49.5
 z
M 37.1084,-34.5257 L 36.7235,-34.6022 L 36.3519,-34.7284 L 36,-34.9019 L 35.6737,-35.1199 L 35.3787,-35.3787
 L 35.1199,-35.6737 L 34.9019,-36 L 34.7284,-36.3519 L 34.6022,-36.7235 L 34.5257,-37.1084 L 34.5,-37.5
 L 34.5257,-37.8916 L 34.6022,-38.2765 L 34.7284,-38.648 L 34.9019,-39 L 35.1199,-39.3263 L 35.3787,-39.6213
 L 35.6737,-39.8801 L 36,-40.0981 L 36.3519,-40.2716 L 36.7235,-40.3978 L 37.1084,-40.4743 L 37.5,-40.5
 L 37.8916,-40.4743 L 38.2765,-40.3978 L 38.648,-40.2716 L 39,-40.0981 L 39.3263,-39.8801 L 39.6213,-39.6213
 L 39.8801,-39.3263 L 40.0981,-39 L 40.2716,-38.648 L 40.3978,-38.2765 L 40.4743,-37.8916 L 40.5,-37.5
 L 40.4743,-37.1084 L 40.3978,-36.7235 L 40.2716,-36.3519 L 40.0981,-36 L 39.8801,-35.6737 L 39.6213,-35.3787
 L 39.3263,-35.1199 L 39,-34.9019 L 38.648,-34.7284 L 38.2765,-34.6022 L 37.8916,-34.5257 L 37.5,-34.5
 z
M 82.1084,-34.5257 L 81.7235,-34.6022 L 81.3519,-34.7284 L 81,-34.9019 L 80.6737,-35.1199 L 80.3787,-35.3787
 L 80.1199,-35.6737 L 79.9019,-36 L 79.7284,-36.3519 L 79.6022,-36.7235 L 79.5257,-37.1084 L 79.5,-37.5
 L 79.5257,-37.8916 L 79.6022,-38.2765 L 79.7284,-38.648 L 79.9019,-39 L 80.1199,-39.3263 L 80.3787,-39.6213
 L 80.6737,-39.8801 L 81,-40.0981 L 81.3519,-40.2716 L 81.7235,-40.3978 L 82.1084,-40.4743 L 82.5,-40.5
 L 82.8916,-40.4743 L 83.2765,-40.3978 L 83.648,-40.2716 L 84,-40.0981 L 84.3263,-39.8801 L 84.6213,-39.6213
 L 84.8801,-39.3263 L 85.0981,-39 L 85.2716,-38.648 L 85.3978,-38.2765 L 85.4743,-37.8916 L 85.5,-37.5
 L 85.4743,-37.1084 L 85.3978,-36.7235 L 85.2716,-36.3519 L 85.0981,-36 L 84.8801,-35.6737 L 84.6213,-35.3787
 L 84.3263,-35.1199 L 84,-34.9019 L 83.648,-34.7284 L 83.2765,-34.6022 L 82.8916,-34.5257 L 82.5,-34.5
 z
M 52.1084,-34.5257 L 51.7235,-34.6022 L 51.3519,-34.7284 L 51,-34.9019 L 50.6737,-35.1199 L 50.3787,-35.3787
 L 50.1199,-35.6737 L 49.9019,-36 L 49.7284,-36.3519 L 49.6022,-36.7235 L 49.5257,-37.1084 L 49.5,-37.5
 L 49.5257,-37.8916 L 49.6022,-38.2765 L 49.7284,-38.648 L 49.9019,-39 L 50.1199,-39.3263 L 50.3787,-39.6213
 L 50.6737,-39.8801 L 51,-40.0981 L 51.3519,-40.2716 L 51.7235,-40.3978 L 52.1084,-40.4743 L 52.5,-40.5
 L 52.8916,-40.4743 L 53.2765,-40.3978 L 53.648,-40.2716 L 54,-40.0981 L 54.3263,-39.8801 L 54.6213,-39.6213
 L 54.8801,-39.3263 L 55.0981,-39 L 55.2716,-38.648 L 55.3978,-38.2765 L 55.4743,-37.8916 L 55.5,-37.5
 L 55.4743,-37.1084 L 55.3978,-36.7235 L 55.2716,-36.3519 L 55.0981,-36 L 54.8801,-35.6737 L 54.6213,-35.3787
 L 54.3263,-35.1199 L 54,-34.9019 L 53.648,-34.7284 L 53.2765,-34.6022 L 52.8916,-34.5257 L 52.5,-34.5
 z
M 67.1084,-34.5257 L 66.7235,-34.6022 L 66.3519,-34.7284 L 66,-34.9019 L 65.6737,-35.1199 L 65.3787,-35.3787
 L 65.1199,-35.6737 L 64.9019,-36 L 64.7284,-36.3519 L 64.6022,-36.7235 L 64.5257,-37.1084 L 64.5,-37.5
 L 64.5257,-37.8916 L 64.6022,-38.2765 L 64.7284,-38.648 L 64.9019,-39 L 65.1199,-39.3263 L 65.3787,-39.6213
 L 65.6737,-39.8801 L 66,-40.0981 L 66.3519,-40.2716 L 66.7235,-40.3978 L 67.1084,-40.4743 L 67.5,-40.5
 L 67.8916,-40.4743 L 68.2765,-40.3978 L 68.648,-40.2716 L 69,-40.0981 L 69.3263,-39.8801 L 69.6213,-39.6213
 L 69.8801,-39.3263 L 70.0981,-39 L 70.2716,-38.648 L 70.3978,-38.2765 L 70.4743,-37.8916 L 70.5,-37.5
 L 70.4743,-37.1084 L 70.3978,-36.7235 L 70.2716,-36.3519 L 70.0981,-36 L 69.8801,-35.6737 L 69.6213,-35.3787
 L 69.3263,-35.1199 L 69,-34.9019 L 68.648,-34.7284 L 68.2765,-34.6022 L 67.8916,-34.5257 L 67.5,-34.5
 z
M 22.1084,-34.5257 L 21.7235,-34.6022 L 21.3519,-34.7284 L 21,-34.9019 L 20.6737,-35.1199 L 20.3787,-35.3787
 L 20.1199,-35.6737 L 19.9019,-36 L 19.7283,-36.3519 L 19.6022,-36.7235 L 19.5257,-37.1084 L 19.5,-37.5
 L 19.5257,-37.8916 L 19.6022,-38.2765 L 19.7283,-38.648 L 19.9019,-39 L 20.1199,-39.3263 L 20.3787,-39.6213
 L 20.6737,-39.8801 L 21,-40.0981 L 21.3519,-40.2716 L 21.7235,-40.3978 L 22.1084,-40.4743 L 22.5,-40.5
 L 22.8916,-40.4743 L 23.2764,-40.3978 L 23.648,-40.2716 L 24,-40.0981 L 24.3263,-39.8801 L 24.6213,-39.6213
 L 24.8801,-39.3263 L 25.0981,-39 L 25.2716,-38.648 L 25.3978,-38.2765 L 25.4743,-37.8916 L 25.5,-37.5
 L 25.4743,-37.1084 L 25.3978,-36.7235 L 25.2716,-36.3519 L 25.0981,-36 L 24.8801,-35.6737 L 24.6213,-35.3787
 L 24.3263,-35.1199 L 24,-34.9019 L 23.648,-34.7284 L 23.2764,-34.6022 L 22.8916,-34.5257 L 22.5,-34.5
 z
M 7.10841,-34.5257 L 6.72354,-34.6022 L 6.35194,-34.7284 L 6,-34.9019 L 5.67371,-35.1199 L 5.37868,-35.3787
 L 5.11993,-35.6737 L 4.90192,-36 L 4.72835,-36.3519 L 4.60222,-36.7235 L 4.52567,-37.1084 L 4.5,-37.5
 L 4.52567,-37.8916 L 4.60222,-38.2765 L 4.72835,-38.648 L 4.90192,-39 L 5.11993,-39.3263 L 5.37868,-39.6213
 L 5.67371,-39.8801 L 6,-40.0981 L 6.35194,-40.2716 L 6.72354,-40.3978 L 7.10841,-40.4743 L 7.5,-40.5
 L 7.89157,-40.4743 L 8.27644,-40.3978 L 8.64804,-40.2716 L 9,-40.0981 L 9.32628,-39.8801 L 9.62131,-39.6213
 L 9.88005,-39.3263 L 10.0981,-39 L 10.2716,-38.648 L 10.3978,-38.2765 L 10.4743,-37.8916 L 10.5,-37.5
 L 10.4743,-37.1084 L 10.3978,-36.7235 L 10.2716,-36.3519 L 10.0981,-36 L 9.88005,-35.6737 L 9.62131,-35.3787
 L 9.32628,-35.1199 L 9,-34.9019 L 8.64804,-34.7284 L 8.27644,-34.6022 L 7.89157,-34.5257 L 7.5,-34.5
 z
M 82.1084,-19.5257 L 81.7235,-19.6022 L 81.3519,-19.7283 L 81,-19.9019 L 80.6737,-20.1199 L 80.3787,-20.3787
 L 80.1199,-20.6737 L 79.9019,-21 L 79.7284,-21.3519 L 79.6022,-21.7235 L 79.5257,-22.1084 L 79.5,-22.5
 L 79.5257,-22.8916 L 79.6022,-23.2764 L 79.7284,-23.648 L 79.9019,-24 L 80.1199,-24.3263 L 80.3787,-24.6213
 L 80.6737,-24.8801 L 81,-25.0981 L 81.3519,-25.2716 L 81.7235,-25.3978 L 82.1084,-25.4743 L 82.5,-25.5
 L 82.8916,-25.4743 L 83.2765,-25.3978 L 83.648,-25.2716 L 84,-25.0981 L 84.3263,-24.8801 L 84.6213,-24.6213
 L 84.8801,-24.3263 L 85.0981,-24 L 85.2716,-23.648 L 85.3978,-23.2764 L 85.4743,-22.8916 L 85.5,-22.5
 L 85.4743,-22.1084 L 85.3978,-21.7235 L 85.2716,-21.3519 L 85.0981,-21 L 84.8801,-20.6737 L 84.6213,-20.3787
 L 84.3263,-20.1199 L 84,-19.9019 L 83.648,-19.7283 L 83.2765,-19.6022 L 82.8916,-19.5257 L 82.5,-19.5
 z
M 22.1084,-19.5257 L 21.7235,-19.6022 L 21.3519,-19.7283 L 21,-19.9019 L 20.6737,-20.1199 L 20.3787,-20.3787
 L 20.1199,-20.6737 L 19.9019,-21 L 19.7283,-21.3519 L 19.6022,-21.7235 L 19.5257,-22.1084 L 19.5,-22.5
 L 19.5257,-22.8916 L 19.6022,-23.2764 L 19.7283,-23.648 L 19.9019,-24 L 20.1199,-24.3263 L 20.3787,-24.6213
 L 20.6737,-24.8801 L 21,-25.0981 L 21.3519,-25.2716 L 21.7235,-25.3978 L 22.1084,-25.4743 L 22.5,-25.5
 L 22.8916,-25.4743 L 23.2764,-25.3978 L 23.648,-25.2716 L 24,-25.0981 L 24.3263,-24.8801 L 24.6213,-24.6213
 L 24.8801,-24.3263 L 25.0981,-24 L 25.2716,-23.648 L 25.3978,-23.2764 L 25.4743,-22.8916 L 25.5,-22.5
 L 25.4743,-22.1084 L 25.3978,-21.7235 L 25.2716,-21.3519 L 25.0981,-21 L 24.8801,-20.6737 L 24.6213,-20.3787
 L 24.3263,-20.1199 L 24,-19.9019 L 23.648,-19.7283 L 23.2764,-19.6022 L 22.8916,-19.5257 L 22.5,-19.5
 z
M 37.1084,-19.5257 L 36.7235,-19.6022 L 36.3519,-19.7283 L 36,-19.9019 L 35.6737,-20.1199 L 35.3787,-20.3787
 L 35.1199,-20.6737 L 34.9019,-21 L 34.7284,-21.3519 L 34.6022,-21.7235 L 34.5257,-22.1084 L 34.5,-22.5
 L 34.5257,-22.8916 L 34.6022,-23.2764 L 34.7284,-23.648 L 34.9019,-24 L 35.1199,-24.3263 L 35.3787,-24.6213
 L 35.6737,-24.8801 L 36,-25.0981 L 36.3519,-25.2716 L 36.7235,-25.3978 L 37.1084,-25.4743 L 37.5,-25.5
 L 37.8916,-25.4743 L 38.2765,-25.3978 L 38.648,-25.2716 L 39,-25.0981 L 39.3263,-24.8801 L 39.6213,-24.6213
 L 39.8801,-24.3263 L 40.0981,-24 L 40.2716,-23.648 L 40.3978,-23.2764 L 40.4743,-22.8916 L 40.5,-22.5
 L 40.4743,-22.1084 L 40.3978,-21.7235 L 40.2716,-21.3519 L 40.0981,-21 L 39.8801,-20.6737 L 39.6213,-20.3787
 L 39.3263,-20.1199 L 39,-19.9019 L 38.648,-19.7283 L 38.2765,-19.6022 L 37.8916,-19.5257 L 37.5,-19.5
 z
M 7.10841,-19.5257 L 6.72354,-19.6022 L 6.35194,-19.7283 L 6,-19.9019 L 5.67371,-20.1199 L 5.37868,-20.3787
 L 5.11993,-20.6737 L 4.90192,-21 L 4.72835,-21.3519 L 4.60222,-21.7235 L 4.52567,-22.1084 L 4.5,-22.5
 L 4.52567,-22.8916 L 4.60222,-23.2764 L 4.72835,-23.648 L 4.90192,-24 L 5.11993,-24.3263 L 5.37868,-24.6213
 L 5.67371,-24.8801 L 6,-25.0981 L 6.35194,-25.2716 L 6.72354,-25.3978 L 7.10841,-25.4743 L 7.5,-25.5
 L 7.89157,-25.4743 L 8.27644,-25.3978 L 8.64804,-25.2716 L 9,-25.0981 L 9.32628,-24.8801 L 9.62131,-24.6213
 L 9.88005,-24.3263 L 10.0981,-24 L 10.2716,-23.648 L 10.3978,-23.2764 L 10.4743,-22.8916 L 10.5,-22.5
 L 10.4743,-22.1084 L 10.3978,-21.7235 L 10.2716,-21.3519 L 10.0981,-21 L 9.88005,-20.6737 L 9.62131,-20.3787
 L 9.32628,-20.1199 L 9,-19.9019 L 8.64804,-19.7283 L 8.27644,-19.6022 L 7.89157,-19.5257 L 7.5,-19.5
 z
M 52.1084,-19.5257 L 51.7235,-19.6022 L 51.3519,-19.7283 L 51,-19.9019 L 50.6737,-20.1199 L 50.3787,-20.3787
 L 50.1199,-20.6737 L 49.9019,-21 L 49.7284,-21.3519 L 49.6022,-21.7235 L 49.5257,-22.1084 L 49.5,-22.5
 L 49.5257,-22.8916 L 49.6022,-23.2764 L 49.7284,-23.648 L 49.9019,-24 L 50.1199,-24.3263 L 50.3787,-24.6213
 L 50.6737,-24.8801 L 51,-25.0981 L 51.3519,-25.2716 L 51.7235,-25.3978 L 52.1084,-25.4743 L 52.5,-25.5
 L 52.8916,-25.4743 L 53.2765,-25.3978 L 53.648,-25.2716 L 54,-25.0981 L 54.3263,-24.8801 L 54.6213,-24.6213
 L 54.8801,-24.3263 L 55.0981,-24 L 55.2716,-23.648 L 55.3978,-23.2764 L 55.4743,-22.8916 L 55.5,-22.5
 L 55.4743,-22.1084 L 55.3978,-21.7235 L 55.2716,-21.3519 L 55.0981,-21 L 54.8801,-20.6737 L 54.6213,-20.3787
 L 54.3263,-20.1199 L 54,-19.9019 L 53.648,-19.7283 L 53.2765,-19.6022 L 52.8916,-19.5257 L 52.5,-19.5
 z
M 67.1084,-19.5257 L 66.7235,-19.6022 L 66.3519,-19.7283 L 66,-19.9019 L 65.6737,-20.1199 L 65.3787,-20.3787
 L 65.1199,-20.6737 L 64.9019,-21 L 64.7284,-21.3519 L 64.6022,-21.7235 L 64.5257,-22.1084 L 64.5,-22.5
 L 64.5257,-22.8916 L 64.6022,-23.2764 L 64.7284,-23.648 L 64.9019,-24 L 65.1199,-24.3263 L 65.3787,-24.6213
 L 65.6737,-24.8801 L 66,-25.0981 L 66.3519,-25.2716 L 66.7235,-25.3978 L 67.1084,-25.4743 L 67.5,-25.5
 L 67.8916,-25.4743 L 68.2765,-25.3978 L 68.648,-25.2716 L 69,-25.0981 L 69.3263,-24.8801 L 69.6213,-24.6213
 L 69.8801,-24.3263 L 70.0981,-24 L 70.2716,-23.648 L 70.3978,-23.2764 L 70.4743,-22.8916 L 70.5,-22.5
 L 70.4743,-22.1084 L 70.3978,-21.7235 L 70.2716,-21.3519 L 70.0981,-21 L 69.8801,-20.6737 L 69.6213,-20.3787
 L 69.3263,-20.1199 L 69,-19.9019 L 68.648,-19.7283 L 68.2765,-19.6022 L 67.8916,-19.5257 L 67.5,-19.5
 z
M 7.10841,-4.52567 L 6.72354,-4.60222 L 6.35194,-4.72835 L 6,-4.90192 L 5.67371,-5.11993 L 5.37868,-5.37868
 L 5.11993,-5.67371 L 4.90192,-6 L 4.72835,-6.35194 L 4.60222,-6.72354 L 4.52567,-7.10841 L 4.5,-7.5
 L 4.52567,-7.89157 L 4.60222,-8.27644 L 4.72835,-8.64804 L 4.90192,-9 L 5.11993,-9.32628 L 5.37868,-9.62131
 L 5.67371,-9.88005 L 6,-10.0981 L 6.35194,-10.2716 L 6.72354,-10.3978 L 7.10841,-10.4743 L 7.5,-10.5
 L 7.89157,-10.4743 L 8.27644,-10.3978 L 8.64804,-10.2716 L 9,-10.0981 L 9.32628,-9.88005 L 9.62131,-9.62131
 L 9.88005,-9.32628 L 10.0981,-9 L 10.2716,-8.64804 L 10.3978,-8.27644 L 10.4743,-7.89157 L 10.5,-7.5
 L 10.4743,-7.10841 L 10.3978,-6.72354 L 10.2716,-6.35194 L 10.0981,-6 L 9.88005,-5.67371 L 9.62131,-5.37868
 L 9.32628,-5.11993 L 9,-4.90192 L 8.64804,-4.72835 L 8.27644,-4.60222 L 7.89157,-4.52567 L 7.5,-4.5
 z
M 22.1084,-4.52567 L 21.7235,-4.60222 L 21.3519,-4.72835 L 21,-4.90192 L 20.6737,-5.11993 L 20.3787,-5.37868
 L 20.1199,-5.67371 L 19.9019,-6 L 19.7283,-6.35194 L 19.6022,-6.72354 L 19.5257,-7.10841 L 19.5,-7.5
 L 19.5257,-7.89157 L 19.6022,-8.27644 L 19.7283,-8.64804 L 19.9019,-9 L 20.1199,-9.32628 L 20.3787,-9.62131
 L 20.6737,-9.88005 L 21,-10.0981 L 21.3519,-10.2716 L 21.7235,-10.3978 L 22.1084,-10.4743 L 22.5,-10.5
 L 22.8916,-10.4743 L 23.2764,-10.3978 L 23.648,-10.2716 L 24,-10.0981 L 24.3263,-9.88005 L 24.6213,-9.62131
 L 24.8801,-9.32628 L 25.0981,-9 L 25.2716,-8.64804 L 25.3978,-8.27644 L 25.4743,-7.89157 L 25.5,-7.5
 L 25.4743,-7.10841 L 25.3978,-6.72354 L 25.2716,-6.35194 L 25.0981,-6 L 24.8801,-5.67371 L 24.6213,-5.37868
 L 24.3263,-5.11993 L 24,-4.90192 L 23.648,-4.72835 L 23.2764,-4.60222 L 22.8916,-4.52567 L 22.5,-4.5
 z
M 67.1084,-4.52567 L 66.7235,-4.60222 L 66.3519,-4.72835 L 66,-4.90192 L 65.6737,-5.11993 L 65.3787,-5.37868
 L 65.1199,-5.67371 L 64.9019,-6 L 64.7284,-6.35194 L 64.6022,-6.72354 L 64.5257,-7.10841 L 64.5,-7.5
 L 64.5257,-7.89157 L 64.6022,-8.27644 L 64.7284,-8.64804 L 64.9019,-9 L 65.1199,-9.32628 L 65.3787,-9.62131
 L 65.6737,-9.88005 L 66,-10.0981 L 66.3519,-10.2716 L 66.7235,-10.3978 L 67.1084,-10.4743 L 67.5,-10.5
 L 67.8916,-10.4743 L 68.2765,-10.3978 L 68.648,-10.2716 L 69,-10.0981 L 69.3263,-9.88005 L 69.6213,-9.62131
 L 69.8801,-9.32628 L 70.0981,-9 L 70.2716,-8.64804 L 70.3978,-8.27644 L 70.4743,-7.89157 L 70.5,-7.5
 L 70.4743,-7.10841 L 70.3978,-6.72354 L 70.2716,-6.35194 L 70.0981,-6 L 69.8801,-5.67371 L 69.6213,-5.37868
 L 69.3263,-5.11993 L 69,-4.90192 L 68.648,-4.72835 L 68.2765,-4.60222 L 67.8916,-4.52567 L 67.5,-4.5
 z
M 82.1084,-4.52567 L 81.7235,-4.60222 L 81.3519,-4.72835 L 81,-4.90192 L 80.6737,-5.11993 L 80.3787,-5.37868
 L 80.1199,-5.67371 L 79.9019,-6 L 79.7284,-6.35194 L 79.6022,-6.72354 L 79.5257,-7.10841 L 79.5,-7.5
 L 79.5257,-7.89157 L 79.6022,-8.27644 L 79.7284,-8.64804 L 79.9019,-9 L 80.1199,-9.32628 L 80.3787,-9.62131
 L 80.6737,-9.88005 L 81,-10.0981 L 81.3519,-10.2716 L 81.7235,-10.3978 L 82.1084,-10.4743 L 82.5,-10.5
 L 82.8916,-10.4743 L 83.2765,-10.3978 L 83.648,-10.2716 L 84,-10.0981 L 84.3263,-9.88005 L 84.6213,-9.62131
 L 84.8801,-9.32628 L 85.0981,-9 L 85.2716,-8.64804 L 85.3978,-8.27644 L 85.4743,-7.89157 L 85.5,-7.5
 L 85.4743,-7.10841 L 85.3978,-6.72354 L 85.2716,-6.35194 L 85.0981,-6 L 84.8801,-5.67371 L 84.6213,-5.37868
 L 84.3263,-5.11993 L 84,-4.90192 L 83.648,-4.72835 L 83.2765,-4.60222 L 82.8916,-4.52567 L 82.5,-4.5
 z
M 52.1084,-4.52567 L 51.7235,-4.60222 L 51.3519,-4.72835 L 51,-4.90192 L 50.6737,-5.11993 L 50.3787,-5.37868
 L 50.1199,-5.67371 L 49.9019,-6 L 49.7284,-6.35194 L 49.6022,-6.72354 L 49.5257,-7.10841 L 49.5,-7.5
 L 49.5257,-7.89157 L 49.6022,-8.27644 L 49.7284,-8.64804 L 49.9019,-9 L 50.1199,-9.32628 L 50.3787,-9.62131
 L 50.6737,-9.88005 L 51,-10.0981 L 51.3519,-10.2716 L 51.7235,-10.3978 L 52.1084,-10.4743 L 52.5,-10.5
 L 52.8916,-10.4743 L 53.2765,-10.3978 L 53.648,-10.2716 L 54,-10.0981 L 54.3263,-9.88005 L 54.6213,-9.62131
 L 54.8801,-9.32628 L 55.0981,-9 L 55.2716,-8.64804 L 55.3978,-8.27644 L 55.4743,-7.89157 L 55.5,-7.5
 L 55.4743,-7.10841 L 55.3978,-6.72354 L 55.2716,-6.35194 L 55.0981,-6 L 54.8801,-5.67371 L 54.6213,-5.37868
 L 54.3263,-5.11993 L 54,-4.90192 L 53.648,-4.72835 L 53.2765,-4.60222 L 52.8916,-4.52567 L 52.5,-4.5
 z
M 37.1084,-4.52567 L 36.7235,-4.60222 L 36.3519,-4.72835 L 36,-4.90192 L 35.6737,-5.11993 L 35.3787,-5.37868
 L 35.1199,-5.67371 L 34.9019,-6 L 34.7284,-6.35194 L 34.6022,-6.72354 L 34.5257,-7.10841 L 34.5,-7.5
 L 34.5257,-7.89157 L 34.6022,-8.27644 L 34.7284,-8.64804 L 34.9019,-9 L 35.1199,-9.32628 L 35.3787,-9.62131
 L 35.6737,-9.88005 L 36,-10.0981 L 36.3519,-10.2716 L 36.7235,-10.3978 L 37.1084,-10.4743 L 37.5,-10.5
 L 37.8916,-10.4743 L 38.2765,-10.3978 L 38.648,-10.2716 L 39,-10.0981 L 39.3263,-9.88005 L 39.6213,-9.62131
 L 39.8801,-9.32628 L 40.0981,-9 L 40.2716,-8.64804 L 40.3978,-8.27644 L 40.4743,-7.89157 L 40.5,-7.5
 L 40.4743,-7.10841 L 40.3978,-6.72354 L 40.2716,-6.35194 L 40.0981,-6 L 39.8801,-5.67371 L 39.6213,-5.37868
 L 39.3263,-5.11993 L 39,-4.90192 L 38.648,-4.72835 L 38.2765,-4.60222 L 37.8916,-4.52567 L 37.5,-4.5
 z
M 69.3263,-50.1199 L 69,-49.9019 L 68.648,-49.7284 L 68.2765,-49.6022 L 67.8916,-49.5257 L 67.5,-49.5
 L 67.1084,-49.5257 L 66.7235,-49.6022 L 66.3519,-49.7284 L 66,-49.9019 L 65.6737,-50.1199 L 65.3787,-50.3787
 L 65.1199,-50.6737 L 64.9019,-51 L 64.7284,-51.3519 L 64.6022,-51.7235 L 64.5257,-52.1084 L 64.5,-52.5
 L 64.5257,-52.8916 L 64.6022,-53.2765 L 64.7284,-53.648 L 64.9019,-54 L 65.1199,-54.3263 L 65.3787,-54.6213
 L 65.6737,-54.8801 L 66,-55.0981 L 66.3519,-55.2716 L 66.7235,-55.3978 L 67.1084,-55.4743 L 67.5,-55.5
 L 67.8916,-55.4743 L 68.2765,-55.3978 L 68.648,-55.2716 L 69,-55.0981 L 69.3263,-54.8801 L 69.6213,-54.6213
 L 69.8801,-54.3263 L 70.0981,-54 L 70.2716,-53.648 L 70.3978,-53.2765 L 70.4743,-52.8916 L 70.5,-52.5
 L 70.4743,-52.1084 L 70.3978,-51.7235 L 70.2716,-51.3519 L 70.0981,-51 L 69.8801,-50.6737 L 69.6213,-50.3787
 z
M 9.32628,-50.1199 L 9,-49.9019 L 8.64804,-49.7284 L 8.27644,-49.6022 L 7.89157,-49.5257 L 7.5,-49.5
 L 7.10841,-49.5257 L 6.72354,-49.6022 L 6.35194,-49.7284 L 6,-49.9019 L 5.67371,-50.1199 L 5.37868,-50.3787
 L 5.11993,-50.6737 L 4.90192,-51 L 4.72835,-51.3519 L 4.60222,-51.7235 L 4.52567,-52.1084 L 4.5,-52.5
 L 4.52567,-52.8916 L 4.60222,-53.2765 L 4.72835,-53.648 L 4.90192,-54 L 5.11993,-54.3263 L 5.37868,-54.6213
 L 5.67371,-54.8801 L 6,-55.0981 L 6.35194,-55.2716 L 6.72354,-55.3978 L 7.10841,-55.4743 L 7.5,-55.5
 L 7.89157,-55.4743 L 8.27644,-55.3978 L 8.64804,-55.2716 L 9,-55.0981 L 9.32628,-54.8801 L 9.62131,-54.6213
 L 9.88005,-54.3263 L 10.0981,-54 L 10.2716,-53.648 L 10.3978,-53.2765 L 10.4743,-52.8916 L 10.5,-52.5
 L 10.4743,-52.1084 L 10.3978,-51.7235 L 10.2716,-51.3519 L 10.0981,-51 L 9.88005,-50.6737 L 9.62131,-50.3787
 z
" stroke="black" fill="lightgray" stroke-width="0.5"/>
</svg>
