<?xml version="1.0" standalone="no"?>
<!DOCTYPE svg PUBLIC "-//W3C//DTD SVG 1.1//EN" "http://www.w3.org/Graphics/SVG/1.1/DTD/svg11.dtd">
<svg width="12mm" height="12mm" viewBox="9 -21 12 12" xmlns="http://www.w3.org/2000/svg" version="1.1">
<title>OpenSCAD Model</title>
<path d="
M 16,-9.00986 L 16.3139,-9.00986 L 16.9369,-9.08856 L 17.5451,-9.24471 L 18.1289,-9.47586 L 18.6791,-9.77835
 L 19.1871,-10.1474 L 19.6448,-10.5773 L 20.0451,-11.0611 L 20.3815,-11.5912 L 20.6489,-12.1594 L 20.8429,-12.7565
 L 20.9606,-13.3733 L 21,-14 L 21,-16 L 20.9606,-16.6267 L 20.8429,-17.2434 L 20.6489,-17.8406
 L 20.3815,-18.4088 L 20.0451,-18.9389 L 19.6448,-19.4227 L 19.1871,-19.8526 L 18.6791,-20.2216 L 18.1289,-20.5241
 L 17.5451,-20.7553 L 16.9369,-20.9114 L 16.3139,-20.9901 L 16,-20.9901 L 16,-21 L 14,-21
 L 14,-20.9901 L 13.686,-20.9901 L 13.0631,-20.9114 L 12.4549,-20.7553 L 11.8711,-20.5241 L 11.3209,-20.2216
 L 10.8129,-19.8526 L 10.3551,-19.4227 L 9.95491,-18.9389 L 9.61845,-18.4088 L 9.3511,-17.8406 L 9.15707,-17.2434
 L 9.03941,-16.6267 L 9,-16 L 9,-14 L 9.03941,-13.3733 L 9.15707,-12.7565 L 9.3511,-12.1594
 L 9.61845,-11.5912 L 9.95491,-11.0611 L 10.3551,-10.5773 L 10.8129,-10.1474 L 11.3209,-9.77835 L 11.8711,-9.47586
 L 12.4549,-9.24471 L 13.0631,-9.08856 L 13.686,-9.00986 L 14,-9.00986 L 14,-9 L 16,-9
 z
M 14.7959,-11.7564 L 14.391,-11.8076 L 13.9957,-11.9091 L 13.6162,-12.0593 L 13.2586,-12.2559 L 12.9284,-12.4958
 L 12.6308,-12.7752 L 12.3707,-13.0897 L 12.152,-13.4343 L 11.9782,-13.8036 L 11.8521,-14.1918 L 11.7756,-14.5927
 L 11.75,-15 L 11.7756,-15.4073 L 11.8521,-15.8082 L 11.9782,-16.1964 L 12.152,-16.5657 L 12.3707,-16.9103
 L 12.6308,-17.2248 L 12.9284,-17.5042 L 13.2586,-17.7441 L 13.6162,-17.9407 L 13.9957,-18.0909 L 14.391,-18.1924
 L 14.7959,-18.2436 L 15.2041,-18.2436 L 15.609,-18.1924 L 16.0043,-18.0909 L 16.3838,-17.9407 L 16.7414,-17.7441
 L 17.0716,-17.5042 L 17.3691,-17.2248 L 17.6293,-16.9103 L 17.848,-16.5657 L 18.0218,-16.1964 L 18.1479,-15.8082
 L 18.2244,-15.4073 L 18.25,-15 L 18.2244,-14.5927 L 18.1479,-14.1918 L 18.0218,-13.8036 L 17.848,-13.4343
 L 17.6293,-13.0897 L 17.3691,-12.7752 L 17.0716,-12.4958 L 16.7414,-12.2559 L 16.3838,-12.0593 L 16.0043,-11.9091
 L 15.609,-11.8076 L 15.2041,-11.7564 z
" stroke="black" fill="lightgray" stroke-width="0.5"/>
</svg>
