<?xml version="1.0" standalone="no"?>
<!DOCTYPE svg PUBLIC "-//W3C//DTD SVG 1.1//EN" "http://www.w3.org/Graphics/SVG/1.1/DTD/svg11.dtd">
<svg width="58mm" height="28mm" viewBox="-29 -14 58 28" xmlns="http://www.w3.org/2000/svg" version="1.1">
<title>OpenSCAD Model</title>
<path d="
M -18,-1.74344 L 27,-1.74344 L 27,-0.493439 L 28.505,-0.493439 L 28.505,-8.50499 L 28.4622,-9.15762
 L 28.3346,-9.79909 L 28.1244,-10.4184 L 27.8351,-11.005 L 27.4718,-11.5488 L 27.0405,-12.0405 L 26.5488,-12.4718
 L 26.005,-12.8351 L 25.4184,-13.1244 L 24.7991,-13.3346 L 24.1576,-13.4622 L 23.505,-13.505 L -23.505,-13.505
 L -24.1576,-13.4622 L -24.7991,-13.3346 L -25.4184,-13.1244 L -26.005,-12.8351 L -26.5488,-12.4718 L -27.0405,-12.0405
 L -27.4718,-11.5488 L -27.8351,-11.005 L -28.1244,-10.4184 L -28.3346,-9.79909 L -28.4622,-9.15762 L -28.505,-8.50499
 L -28.505,-0.493439 L -18,-0.493439 z
M 22.1084,-4.52567 L 21.7235,-4.60222 L 21.3519,-4.72835 L 21,-4.90192 L 20.6737,-5.11993 L 20.3787,-5.37868
 L 20.1199,-5.67371 L 19.9019,-6 L 19.7283,-6.35194 L 19.6022,-6.72354 L 19.5257,-7.10841 L 19.5,-7.5
 L 19.5257,-7.89157 L 19.6022,-8.27644 L 19.7283,-8.64804 L 19.9019,-9 L 20.1199,-9.32628 L 20.3787,-9.62131
 L 20.6737,-9.88005 L 21,-10.0981 L 21.3519,-10.2716 L 21.7235,-10.3978 L 22.1084,-10.4743 L 22.5,-10.5
 L 22.8916,-10.4743 L 23.2764,-10.3978 L 23.648,-10.2716 L 24,-10.0981 L 24.3263,-9.88005 L 24.6213,-9.62131
 L 24.8801,-9.32628 L 25.0981,-9 L 25.2716,-8.64804 L 25.3978,-8.27644 L 25.4743,-7.89157 L 25.5,-7.5
 L 25.4743,-7.10841 L 25.3978,-6.72354 L 25.2716,-6.35194 L 25.0981,-6 L 24.8801,-5.67371 L 24.6213,-5.37868
 L 24.3263,-5.11993 L 24,-4.90192 L 23.648,-4.72835 L 23.2764,-4.60222 L 22.8916,-4.52567 L 22.5,-4.5
 z
M 7.10841,-4.52567 L 6.72354,-4.60222 L 6.35194,-4.72835 L 6,-4.90192 L 5.67371,-5.11993 L 5.37868,-5.37868
 L 5.11993,-5.67371 L 4.90192,-6 L 4.72835,-6.35194 L 4.60222,-6.72354 L 4.52567,-7.10841 L 4.5,-7.5
 L 4.52567,-7.89157 L 4.60222,-8.27644 L 4.72835,-8.64804 L 4.90192,-9 L 5.11993,-9.32628 L 5.37868,-9.62131
 L 5.67371,-9.88005 L 6,-10.0981 L 6.35194,-10.2716 L 6.72354,-10.3978 L 7.10841,-10.4743 L 7.5,-10.5
 L 7.89157,-10.4743 L 8.27644,-10.3978 L 8.64804,-10.2716 L 9,-10.0981 L 9.32628,-9.88005 L 9.62131,-9.62131
 L 9.88005,-9.32628 L 10.0981,-9 L 10.2716,-8.64804 L 10.3978,-8.27644 L 10.4743,-7.89157 L 10.5,-7.5
 L 10.4743,-7.10841 L 10.3978,-6.72354 L 10.2716,-6.35194 L 10.0981,-6 L 9.88005,-5.67371 L 9.62131,-5.37868
 L 9.32628,-5.11993 L 9,-4.90192 L 8.64804,-4.72835 L 8.27644,-4.60222 L 7.89157,-4.52567 L 7.5,-4.5
 z
M -10.3978,-8.27644 L -10.2716,-8.64804 L -10.0981,-9 L -9.88005,-9.32628 L -9.62131,-9.62131 L -9.32628,-9.88005
 L -9,-10.0981 L -8.64804,-10.2716 L -8.27644,-10.3978 L -7.89157,-10.4743 L -7.5,-10.5 L -7.10841,-10.4743
 L -6.72354,-10.3978 L -6.35194,-10.2716 L -6,-10.0981 L -5.67371,-9.88005 L -5.37868,-9.62131 L -5.11993,-9.32628
 L -4.90192,-9 L -4.72835,-8.64804 L -4.60222,-8.27644 L -4.52567,-7.89157 L -4.5,-7.5 L -4.52567,-7.10841
 L -4.60222,-6.72354 L -4.72835,-6.35194 L -4.90192,-6 L -5.11993,-5.67371 L -5.37868,-5.37868 L -5.67371,-5.11993
 L -6,-4.90192 L -6.35194,-4.72835 L -6.72354,-4.60222 L -7.10841,-4.52567 L -7.5,-4.5 L -7.89157,-4.52567
 L -8.27644,-4.60222 L -8.64804,-4.72835 L -9,-4.90192 L -9.32628,-5.11993 L -9.62131,-5.37868 L -9.88005,-5.67371
 L -10.0981,-6 L -10.2716,-6.35194 L -10.3978,-6.72354 L -10.4743,-7.10841 L -10.5,-7.5 L -10.4743,-7.89157
 z
M 14.8042,-3.51283 L 14.6118,-3.5511 L 14.426,-3.61417 L 14.25,-3.70096 L 14.0869,-3.80997 L 13.9393,-3.93933
 L 13.81,-4.08685 L 13.701,-4.25 L 13.6142,-4.42596 L 13.5511,-4.61177 L 13.5128,-4.8042 L 13.5,-5
 L 13.5128,-5.19579 L 13.5511,-5.38821 L 13.6142,-5.57402 L 13.701,-5.75 L 13.81,-5.91313 L 13.9393,-6.06065
 L 14.0869,-6.19002 L 14.25,-6.29903 L 14.426,-6.38582 L 14.6118,-6.44888 L 14.8042,-6.48715 L 15,-6.5
 L 15.1958,-6.48715 L 15.3882,-6.44888 L 15.574,-6.38582 L 15.75,-6.29903 L 15.9131,-6.19002 L 16.0607,-6.06065
 L 16.19,-5.91313 L 16.299,-5.75 L 16.3858,-5.57402 L 16.4489,-5.38821 L 16.4872,-5.19579 L 16.5,-5
 L 16.4872,-4.8042 L 16.4489,-4.61177 L 16.3858,-4.42596 L 16.299,-4.25 L 16.19,-4.08685 L 16.0607,-3.93933
 L 15.9131,-3.80997 L 15.75,-3.70096 L 15.574,-3.61417 L 15.3882,-3.5511 L 15.1958,-3.51283 L 15,-3.5
 z
M -19.6022,-6.72354 L -19.7283,-6.35194 L -19.9019,-6 L -20.1199,-5.67371 L -20.3787,-5.37868 L -20.6737,-5.11993
 L -21,-4.90192 L -21.3519,-4.72835 L -21.7235,-4.60222 L -22.1084,-4.52567 L -22.5,-4.5 L -22.8916,-4.52567
 L -23.2764,-4.60222 L -23.648,-4.72835 L -24,-4.90192 L -24.3263,-5.11993 L -24.6213,-5.37868 L -24.8801,-5.67371
 L -25.0981,-6 L -25.2716,-6.35194 L -25.3978,-6.72354 L -25.4743,-7.10841 L -25.5,-7.5 L -25.4743,-7.89157
 L -25.3978,-8.27644 L -25.2716,-8.64804 L -25.0981,-9 L -24.8801,-9.32628 L -24.6213,-9.62131 L -24.3263,-9.88005
 L -24,-10.0981 L -23.648,-10.2716 L -23.2764,-10.3978 L -22.8916,-10.4743 L -22.5,-10.5 L -22.1084,-10.4743
 L -21.7235,-10.3978 L -21.3519,-10.2716 L -21,-10.0981 L -20.6737,-9.88005 L -20.3787,-9.62131 L -20.1199,-9.32628
 L -19.9019,-9 L -19.7283,-8.64804 L -19.6022,-8.27644 L -19.5257,-7.89157 L -19.5,-7.5 L -19.5257,-7.10841
 z
M 24.1576,13.4622 L 24.7991,13.3346 L 25.4184,13.1244 L 26.005,12.8351 L 26.5488,12.4718 L 27.0405,12.0405
 L 27.4718,11.5488 L 27.8351,11.005 L 28.1244,10.4184 L 28.3346,9.79909 L 28.4622,9.15762 L 28.505,8.50499
 L 28.505,5.49344 L 27,5.49344 L 27,6.74344 L -18,6.74344 L -18,5.49344 L -28.505,5.49344
 L -28.505,8.50499 L -28.4622,9.15762 L -28.3346,9.79909 L -28.1244,10.4184 L -27.8351,11.005 L -27.4718,11.5488
 L -27.0405,12.0405 L -26.5488,12.4718 L -26.005,12.8351 L -25.4184,13.1244 L -24.7991,13.3346 L -24.1576,13.4622
 L -23.505,13.505 L 23.505,13.505 z
M -0.195786,11.4872 L -0.388214,11.4489 L -0.57402,11.3858 L -0.75,11.299 L -0.913132,11.19 L -1.06065,11.0607
 L -1.19002,10.9131 L -1.29903,10.75 L -1.38582,10.574 L -1.44888,10.3882 L -1.48715,10.1958 L -1.5,10
 L -1.48715,9.8042 L -1.44888,9.61177 L -1.38582,9.42596 L -1.29903,9.25 L -1.19002,9.08685 L -1.06065,8.93933
 L -0.913132,8.80997 L -0.75,8.70096 L -0.57402,8.61417 L -0.388214,8.5511 L -0.195786,8.51283 L 0,8.5
 L 0.195786,8.51283 L 0.388214,8.5511 L 0.57402,8.61417 L 0.75,8.70096 L 0.913132,8.80997 L 1.06065,8.93933
 L 1.19002,9.08685 L 1.29903,9.25 L 1.38582,9.42596 L 1.44888,9.61177 L 1.48715,9.8042 L 1.5,10
 L 1.48715,10.1958 L 1.44888,10.3882 L 1.38582,10.574 L 1.29903,10.75 L 1.19002,10.9131 L 1.06065,11.0607
 L 0.913132,11.19 L 0.75,11.299 L 0.57402,11.3858 L 0.388214,11.4489 L 0.195786,11.4872 L 0,11.5
 z
" stroke="black" fill="lightgray" stroke-width="0.5"/>
</svg>
