solid OpenSCAD_Model
  facet normal -0 0 -1
    outer loop
      vertex 9.9 30.7456 0
      vertex 9.75947 30.7367 0
      vertex 9.9 30.75 0
    endloop
  endfacet
  facet normal 0 0 -1
    outer loop
      vertex 12.15 30.75 0
      vertex 9.9 30.75 0
      vertex 12.15 36.875 0
    endloop
  endfacet
  facet normal -0 0 -1
    outer loop
      vertex 33.45 14.4911 0
      vertex 33.1689 14.4734 0
      vertex 33.45 14.5 0
    endloop
  endfacet
  facet normal 0 0 -1
    outer loop
      vertex 36.5442 14.497 0
      vertex 40 20 0
      vertex 36.9135 14.4266 0
    endloop
  endfacet
  facet normal 0 0 -1
    outer loop
      vertex 36.45 14.5 0
      vertex 40 20 0
      vertex 36.5442 14.497 0
    endloop
  endfacet
  facet normal 0 0 -1
    outer loop
      vertex 36.45 14.5 0
      vertex 36.5442 14.497 0
      vertex 36.45 14.4911 0
    endloop
  endfacet
  facet normal -0 0 -1
    outer loop
      vertex 40 20 0
      vertex 36.45 14.5 0
      vertex 37.15 23.125 0
    endloop
  endfacet
  facet normal 0 0 -1
    outer loop
      vertex 33.45 14.5 0
      vertex 37.15 23.125 0
      vertex 36.45 14.5 0
    endloop
  endfacet
  facet normal 0 0 -1
    outer loop
      vertex 30 20 0
      vertex 33.45 14.5 0
      vertex 33.1689 14.4734 0
    endloop
  endfacet
  facet normal 0 0 -1
    outer loop
      vertex 30 20 0
      vertex 33.1689 14.4734 0
      vertex 32.8113 14.3572 0
    endloop
  endfacet
  facet normal 0 0 -1
    outer loop
      vertex 30 20 0
      vertex 32.8113 14.3572 0
      vertex 32.4939 14.1558 0
    endloop
  endfacet
  facet normal 0 0 -1
    outer loop
      vertex 30 20 0
      vertex 32.4939 14.1558 0
      vertex 32.2365 13.8817 0
    endloop
  endfacet
  facet normal 0 0 -1
    outer loop
      vertex 30 20 0
      vertex 32.2365 13.8817 0
      vertex 32.0553 13.5522 0
    endloop
  endfacet
  facet normal 0 0 -1
    outer loop
      vertex 30 20 0
      vertex 31.9618 13.188 0
      vertex 30 9 0
    endloop
  endfacet
  facet normal 0 0 -1
    outer loop
      vertex 31.9618 13.188 0
      vertex 30 20 0
      vertex 32.0553 13.5522 0
    endloop
  endfacet
  facet normal 0 0 -1
    outer loop
      vertex 33.45 14.5 0
      vertex 30 20 0
      vertex 37.15 23.125 0
    endloop
  endfacet
  facet normal 0 0 -1
    outer loop
      vertex 30 20 0
      vertex 12.15 23.125 0
      vertex 37.15 23.125 0
    endloop
  endfacet
  facet normal 0 0 -1
    outer loop
      vertex 12.15 23.125 0
      vertex 9.9 29.25 0
      vertex 12.15 29.25 0
    endloop
  endfacet
  facet normal 0 0 -1
    outer loop
      vertex 9.9 29.25 0
      vertex 9.75947 29.2633 0
      vertex 9.9 29.2544 0
    endloop
  endfacet
  facet normal 0 0 -1
    outer loop
      vertex 12.15 23.125 0
      vertex 9.75947 29.2633 0
      vertex 9.9 29.25 0
    endloop
  endfacet
  facet normal 0 0 -1
    outer loop
      vertex 12.15 23.125 0
      vertex 9.58068 29.3214 0
      vertex 9.75947 29.2633 0
    endloop
  endfacet
  facet normal 0 0 -1
    outer loop
      vertex 8.15 20 0
      vertex 9.58068 29.3214 0
      vertex 12.15 23.125 0
    endloop
  endfacet
  facet normal -0 0 -1
    outer loop
      vertex 9.58068 29.3214 0
      vertex 8.15 20 0
      vertex 9.42194 29.4221 0
    endloop
  endfacet
  facet normal -0 0 -1
    outer loop
      vertex 9.42194 29.4221 0
      vertex 8.15 20 0
      vertex 9.29325 29.5592 0
    endloop
  endfacet
  facet normal -0 0 -1
    outer loop
      vertex 9.15592 29.906 0
      vertex 8.15 20 0
      vertex 9.15592 30.094 0
    endloop
  endfacet
  facet normal -0 0 -1
    outer loop
      vertex 9.20267 29.7239 0
      vertex 8.15 20 0
      vertex 9.15592 29.906 0
    endloop
  endfacet
  facet normal -0 0 -1
    outer loop
      vertex 9.29325 29.5592 0
      vertex 8.15 20 0
      vertex 9.20267 29.7239 0
    endloop
  endfacet
  facet normal 0 0 -1
    outer loop
      vertex 8.15 20 0
      vertex 12.15 23.125 0
      vertex 30 20 0
    endloop
  endfacet
  facet normal 0 0 -1
    outer loop
      vertex 40 51 0
      vertex 37.9029 46.627 0
      vertex 37.95 47 0
    endloop
  endfacet
  facet normal 0 0 -1
    outer loop
      vertex 36.45 45.5 0
      vertex 40 40 0
      vertex 37.15 36.875 0
    endloop
  endfacet
  facet normal 0 0 -1
    outer loop
      vertex 40 40 0
      vertex 37.7645 46.2774 0
      vertex 37.9029 46.627 0
    endloop
  endfacet
  facet normal 0 0 -1
    outer loop
      vertex 40 40 0
      vertex 37.5434 45.9732 0
      vertex 37.7645 46.2774 0
    endloop
  endfacet
  facet normal 0 0 -1
    outer loop
      vertex 37.15 36.875 0
      vertex 39.4 30.75 0
      vertex 37.15 30.75 0
    endloop
  endfacet
  facet normal 0 0 -1
    outer loop
      vertex 40 40 0
      vertex 37.2537 45.7335 0
      vertex 37.5434 45.9732 0
    endloop
  endfacet
  facet normal 0 0 -1
    outer loop
      vertex 40 40 0
      vertex 36.9135 45.5734 0
      vertex 37.2537 45.7335 0
    endloop
  endfacet
  facet normal 0 0 -1
    outer loop
      vertex 40 40 0
      vertex 36.5442 45.503 0
      vertex 36.9135 45.5734 0
    endloop
  endfacet
  facet normal 0 0 -1
    outer loop
      vertex 40 40 0
      vertex 36.45 45.5 0
      vertex 36.5442 45.503 0
    endloop
  endfacet
  facet normal 0 0 -1
    outer loop
      vertex 37.15 36.875 0
      vertex 33.45 45.5 0
      vertex 36.45 45.5 0
    endloop
  endfacet
  facet normal 0 0 -1
    outer loop
      vertex 33.45 45.5 0
      vertex 33.1689 45.5266 0
      vertex 33.45 45.5089 0
    endloop
  endfacet
  facet normal 0 0 -1
    outer loop
      vertex 30 40 0
      vertex 33.45 45.5 0
      vertex 37.15 36.875 0
    endloop
  endfacet
  facet normal -0 0 -1
    outer loop
      vertex 33.45 45.5 0
      vertex 30 40 0
      vertex 33.1689 45.5266 0
    endloop
  endfacet
  facet normal -0 0 -1
    outer loop
      vertex 33.1689 45.5266 0
      vertex 30 40 0
      vertex 32.8113 45.6428 0
    endloop
  endfacet
  facet normal -0 0 -1
    outer loop
      vertex 32.8113 45.6428 0
      vertex 30 40 0
      vertex 32.4939 45.8442 0
    endloop
  endfacet
  facet normal -0 0 -1
    outer loop
      vertex 32.4939 45.8442 0
      vertex 30 40 0
      vertex 32.2365 46.1183 0
    endloop
  endfacet
  facet normal 0 0 -1
    outer loop
      vertex 30 51 0
      vertex 31.9618 46.812 0
      vertex 30 40 0
    endloop
  endfacet
  facet normal -0 0 -1
    outer loop
      vertex 32.0553 46.4478 0
      vertex 30 40 0
      vertex 31.9618 46.812 0
    endloop
  endfacet
  facet normal -0 0 -1
    outer loop
      vertex 32.2365 46.1183 0
      vertex 30 40 0
      vertex 32.0553 46.4478 0
    endloop
  endfacet
  facet normal 0 0 -1
    outer loop
      vertex 12.15 36.875 0
      vertex 30 40 0
      vertex 37.15 36.875 0
    endloop
  endfacet
  facet normal 0 0 -1
    outer loop
      vertex 9.75947 30.7367 0
      vertex 12.15 36.875 0
      vertex 9.9 30.75 0
    endloop
  endfacet
  facet normal 0 0 -1
    outer loop
      vertex 9.58068 30.6786 0
      vertex 12.15 36.875 0
      vertex 9.75947 30.7367 0
    endloop
  endfacet
  facet normal 0 0 -1
    outer loop
      vertex 8.15 40 0
      vertex 9.58068 30.6786 0
      vertex 9.42194 30.5779 0
    endloop
  endfacet
  facet normal 0 0 -1
    outer loop
      vertex 8.15 40 0
      vertex 9.42194 30.5779 0
      vertex 9.29325 30.4408 0
    endloop
  endfacet
  facet normal 0 0 -1
    outer loop
      vertex 8.15 40 0
      vertex 9.29325 30.4408 0
      vertex 9.20267 30.2761 0
    endloop
  endfacet
  facet normal 0 0 -1
    outer loop
      vertex 12.15 36.875 0
      vertex 8.15 40 0
      vertex 30 40 0
    endloop
  endfacet
  facet normal 0 0 -1
    outer loop
      vertex 9.58068 30.6786 0
      vertex 8.15 40 0
      vertex 12.15 36.875 0
    endloop
  endfacet
  facet normal 0 0 -1
    outer loop
      vertex 9.15592 30.094 0
      vertex 8.15 40 0
      vertex 9.20267 30.2761 0
    endloop
  endfacet
  facet normal 0 0 -1
    outer loop
      vertex 8.15 40 0
      vertex 9.15592 30.094 0
      vertex 8.15 20 0
    endloop
  endfacet
  facet normal 0 0 -1
    outer loop
      vertex 37.9029 13.373 0
      vertex 40 20 0
      vertex 40 9 0
    endloop
  endfacet
  facet normal 0 0 -1
    outer loop
      vertex 37.7645 13.7226 0
      vertex 40 20 0
      vertex 37.9029 13.373 0
    endloop
  endfacet
  facet normal 0 -0 -1
    outer loop
      vertex 39.8019 29.3668 0
      vertex 40 20 0
      vertex 37.15 23.125 0
    endloop
  endfacet
  facet normal 0 0 -1
    outer loop
      vertex 40 20 0
      vertex 39.8019 29.3668 0
      vertex 39.9467 29.4866 0
    endloop
  endfacet
  facet normal 0 0 -1
    outer loop
      vertex 39.8019 29.3668 0
      vertex 37.15 23.125 0
      vertex 39.6318 29.2867 0
    endloop
  endfacet
  facet normal 0 0 -1
    outer loop
      vertex 37.9029 13.373 0
      vertex 40 9 0
      vertex 37.95 13 0
    endloop
  endfacet
  facet normal 0 0 -1
    outer loop
      vertex 40 9 0
      vertex 37.9029 12.627 0
      vertex 37.95 13 0
    endloop
  endfacet
  facet normal 0 0 -1
    outer loop
      vertex 40 9 0
      vertex 37.7645 12.2774 0
      vertex 37.9029 12.627 0
    endloop
  endfacet
  facet normal 0 0 -1
    outer loop
      vertex 40 9 0
      vertex 37.5434 11.9732 0
      vertex 37.7645 12.2774 0
    endloop
  endfacet
  facet normal 0 0 -1
    outer loop
      vertex 40 9 0
      vertex 37.2537 11.7335 0
      vertex 37.5434 11.9732 0
    endloop
  endfacet
  facet normal 0 0 -1
    outer loop
      vertex 40 9 0
      vertex 36.9135 11.5734 0
      vertex 37.2537 11.7335 0
    endloop
  endfacet
  facet normal 0 0 -1
    outer loop
      vertex 40 9 0
      vertex 36.5442 11.503 0
      vertex 36.9135 11.5734 0
    endloop
  endfacet
  facet normal 0 0 -1
    outer loop
      vertex 40 9 0
      vertex 36.45 11.5 0
      vertex 36.5442 11.503 0
    endloop
  endfacet
  facet normal 0 0 -1
    outer loop
      vertex 30 9 0
      vertex 36.45 11.5 0
      vertex 40 9 0
    endloop
  endfacet
  facet normal 0 0 -1
    outer loop
      vertex 33.45 11.5 0
      vertex 33.1689 11.5266 0
      vertex 33.45 11.5089 0
    endloop
  endfacet
  facet normal -0 0 -1
    outer loop
      vertex 36.45 11.5 0
      vertex 30 9 0
      vertex 33.45 11.5 0
    endloop
  endfacet
  facet normal -0 0 -1
    outer loop
      vertex 33.45 11.5 0
      vertex 30 9 0
      vertex 33.1689 11.5266 0
    endloop
  endfacet
  facet normal -0 0 -1
    outer loop
      vertex 31.9618 12.812 0
      vertex 30 9 0
      vertex 31.9618 13.188 0
    endloop
  endfacet
  facet normal -0 0 -1
    outer loop
      vertex 32.0553 12.4478 0
      vertex 30 9 0
      vertex 31.9618 12.812 0
    endloop
  endfacet
  facet normal -0 0 -1
    outer loop
      vertex 32.2365 12.1183 0
      vertex 30 9 0
      vertex 32.0553 12.4478 0
    endloop
  endfacet
  facet normal -0 0 -1
    outer loop
      vertex 32.4939 11.8442 0
      vertex 30 9 0
      vertex 32.2365 12.1183 0
    endloop
  endfacet
  facet normal -0 0 -1
    outer loop
      vertex 32.8113 11.6428 0
      vertex 30 9 0
      vertex 32.4939 11.8442 0
    endloop
  endfacet
  facet normal -0 0 -1
    outer loop
      vertex 33.1689 11.5266 0
      vertex 30 9 0
      vertex 32.8113 11.6428 0
    endloop
  endfacet
  facet normal 0 0 -1
    outer loop
      vertex 41.15 20 0
      vertex 40.15 30 0
      vertex 41.15 40 0
    endloop
  endfacet
  facet normal 0 0 -1
    outer loop
      vertex 41.15 20 0
      vertex 40.1264 29.8135 0
      vertex 40.15 30 0
    endloop
  endfacet
  facet normal 0 0 -1
    outer loop
      vertex 41.15 20 0
      vertex 40.0572 29.6387 0
      vertex 40.1264 29.8135 0
    endloop
  endfacet
  facet normal 0 0 -1
    outer loop
      vertex 39.9467 29.4866 0
      vertex 41.15 20 0
      vertex 40 20 0
    endloop
  endfacet
  facet normal 0 0 -1
    outer loop
      vertex 41.15 20 0
      vertex 39.9467 29.4866 0
      vertex 40.0572 29.6387 0
    endloop
  endfacet
  facet normal 0 0 -1
    outer loop
      vertex 40.1264 30.1865 0
      vertex 41.15 40 0
      vertex 40.15 30 0
    endloop
  endfacet
  facet normal 0 0 -1
    outer loop
      vertex 40.0572 30.3613 0
      vertex 41.15 40 0
      vertex 40.1264 30.1865 0
    endloop
  endfacet
  facet normal 0 0 -1
    outer loop
      vertex 39.9467 30.5134 0
      vertex 41.15 40 0
      vertex 40.0572 30.3613 0
    endloop
  endfacet
  facet normal 0 0 -1
    outer loop
      vertex 39.8019 30.6332 0
      vertex 41.15 40 0
      vertex 39.9467 30.5134 0
    endloop
  endfacet
  facet normal 0 0 -1
    outer loop
      vertex 39.6318 30.7133 0
      vertex 41.15 40 0
      vertex 39.8019 30.6332 0
    endloop
  endfacet
  facet normal 0 0 -1
    outer loop
      vertex 37.15 36.875 0
      vertex 41.15 40 0
      vertex 39.6318 30.7133 0
    endloop
  endfacet
  facet normal 0 0 -1
    outer loop
      vertex 37.15 36.875 0
      vertex 39.6318 30.7133 0
      vertex 39.4471 30.7485 0
    endloop
  endfacet
  facet normal 0 0 -1
    outer loop
      vertex 37.15 36.875 0
      vertex 39.4471 30.7485 0
      vertex 39.4 30.75 0
    endloop
  endfacet
  facet normal 0 0 -1
    outer loop
      vertex 39.4 30.75 0
      vertex 39.4471 30.7485 0
      vertex 39.4 30.7456 0
    endloop
  endfacet
  facet normal -0 0 -1
    outer loop
      vertex 41.15 40 0
      vertex 37.15 36.875 0
      vertex 40 40 0
    endloop
  endfacet
  facet normal 0 0 -1
    outer loop
      vertex 37.9029 46.627 0
      vertex 40 51 0
      vertex 40 40 0
    endloop
  endfacet
  facet normal 0 0 -1
    outer loop
      vertex 37.9029 47.373 0
      vertex 40 51 0
      vertex 37.95 47 0
    endloop
  endfacet
  facet normal 0 0 -1
    outer loop
      vertex 37.7645 47.7226 0
      vertex 40 51 0
      vertex 37.9029 47.373 0
    endloop
  endfacet
  facet normal 0 0 -1
    outer loop
      vertex 37.5434 48.0268 0
      vertex 40 51 0
      vertex 37.7645 47.7226 0
    endloop
  endfacet
  facet normal 0 0 -1
    outer loop
      vertex 37.2537 48.2665 0
      vertex 40 51 0
      vertex 37.5434 48.0268 0
    endloop
  endfacet
  facet normal 0 0 -1
    outer loop
      vertex 36.9135 48.4266 0
      vertex 40 51 0
      vertex 37.2537 48.2665 0
    endloop
  endfacet
  facet normal 0 0 -1
    outer loop
      vertex 36.5442 48.497 0
      vertex 40 51 0
      vertex 36.9135 48.4266 0
    endloop
  endfacet
  facet normal 0 0 -1
    outer loop
      vertex 36.45 48.5 0
      vertex 36.5442 48.497 0
      vertex 36.45 48.4911 0
    endloop
  endfacet
  facet normal 0 0 -1
    outer loop
      vertex 36.5442 48.497 0
      vertex 36.45 48.5 0
      vertex 40 51 0
    endloop
  endfacet
  facet normal 0 0 -1
    outer loop
      vertex 30 51 0
      vertex 36.45 48.5 0
      vertex 33.45 48.5 0
    endloop
  endfacet
  facet normal 0 0 -1
    outer loop
      vertex 30 51 0
      vertex 33.45 48.5 0
      vertex 33.1689 48.4734 0
    endloop
  endfacet
  facet normal 0 0 -1
    outer loop
      vertex 30 51 0
      vertex 33.1689 48.4734 0
      vertex 32.8113 48.3572 0
    endloop
  endfacet
  facet normal 0 0 -1
    outer loop
      vertex 31.9618 46.812 0
      vertex 30 51 0
      vertex 31.9618 47.188 0
    endloop
  endfacet
  facet normal 0 0 -1
    outer loop
      vertex 36.45 48.5 0
      vertex 30 51 0
      vertex 40 51 0
    endloop
  endfacet
  facet normal 0 0 -1
    outer loop
      vertex 32.4939 48.1558 0
      vertex 30 51 0
      vertex 32.8113 48.3572 0
    endloop
  endfacet
  facet normal 0 0 -1
    outer loop
      vertex 32.2365 47.8817 0
      vertex 30 51 0
      vertex 32.4939 48.1558 0
    endloop
  endfacet
  facet normal 0 0 -1
    outer loop
      vertex 32.0553 47.5522 0
      vertex 30 51 0
      vertex 32.2365 47.8817 0
    endloop
  endfacet
  facet normal 0 0 -1
    outer loop
      vertex 31.9618 47.188 0
      vertex 30 51 0
      vertex 32.0553 47.5522 0
    endloop
  endfacet
  facet normal -0 0 -1
    outer loop
      vertex 39.4471 29.2515 0
      vertex 39.4 29.25 0
      vertex 39.4 29.2544 0
    endloop
  endfacet
  facet normal 0 0 -1
    outer loop
      vertex 39.6318 29.2867 0
      vertex 37.15 23.125 0
      vertex 39.4471 29.2515 0
    endloop
  endfacet
  facet normal 0 0 -1
    outer loop
      vertex 37.5434 14.0268 0
      vertex 40 20 0
      vertex 37.7645 13.7226 0
    endloop
  endfacet
  facet normal 0 0 -1
    outer loop
      vertex 37.2537 14.2665 0
      vertex 40 20 0
      vertex 37.5434 14.0268 0
    endloop
  endfacet
  facet normal 0 0 -1
    outer loop
      vertex 36.9135 14.4266 0
      vertex 40 20 0
      vertex 37.2537 14.2665 0
    endloop
  endfacet
  facet normal 0 0 -1
    outer loop
      vertex 39.4471 29.2515 0
      vertex 37.15 23.125 0
      vertex 39.4 29.25 0
    endloop
  endfacet
  facet normal -0 0 -1
    outer loop
      vertex 39.4 29.25 0
      vertex 37.15 23.125 0
      vertex 37.15 29.25 0
    endloop
  endfacet
  facet normal -0 0 -1
    outer loop
      vertex 36.5442 11.503 0
      vertex 36.45 11.5 0
      vertex 36.45 11.5089 0
    endloop
  endfacet
  facet normal -0 0 -1
    outer loop
      vertex 36.5442 45.503 0
      vertex 36.45 45.5 0
      vertex 36.45 45.5089 0
    endloop
  endfacet
  facet normal -0 0 -1
    outer loop
      vertex 33.45 48.4911 0
      vertex 33.1689 48.4734 0
      vertex 33.45 48.5 0
    endloop
  endfacet
  facet normal 1 -0 0
    outer loop
      vertex 41.15 20 4
      vertex 41.15 40 0
      vertex 41.15 40 4
    endloop
  endfacet
  facet normal 1 0 0
    outer loop
      vertex 41.15 40 0
      vertex 41.15 20 4
      vertex 41.15 20 0
    endloop
  endfacet
  facet normal -1 0 0
    outer loop
      vertex 8.15 20 0
      vertex 8.15 40 4
      vertex 8.15 40 0
    endloop
  endfacet
  facet normal -1 -0 0
    outer loop
      vertex 8.15 40 4
      vertex 8.15 20 0
      vertex 8.15 20 4
    endloop
  endfacet
  facet normal 0 -1 0
    outer loop
      vertex 8.15 20 0
      vertex 30 20 4
      vertex 8.15 20 4
    endloop
  endfacet
  facet normal 0 -1 -0
    outer loop
      vertex 30 20 4
      vertex 8.15 20 0
      vertex 30 20 0
    endloop
  endfacet
  facet normal 0 -1 0
    outer loop
      vertex 40 20 0
      vertex 41.15 20 4
      vertex 40 20 4
    endloop
  endfacet
  facet normal 0 -1 -0
    outer loop
      vertex 41.15 20 4
      vertex 40 20 0
      vertex 41.15 20 0
    endloop
  endfacet
  facet normal 0 1 -0
    outer loop
      vertex 30 40 0
      vertex 8.15 40 4
      vertex 30 40 4
    endloop
  endfacet
  facet normal 0 1 0
    outer loop
      vertex 8.15 40 4
      vertex 30 40 0
      vertex 8.15 40 0
    endloop
  endfacet
  facet normal 0 1 -0
    outer loop
      vertex 41.15 40 0
      vertex 40 40 4
      vertex 41.15 40 4
    endloop
  endfacet
  facet normal 0 1 0
    outer loop
      vertex 40 40 4
      vertex 41.15 40 0
      vertex 40 40 0
    endloop
  endfacet
  facet normal 0 0 1
    outer loop
      vertex 9.9 29.2544 4
      vertex 9.75947 29.2633 4
      vertex 9.9 29.25 4
    endloop
  endfacet
  facet normal 0 0 1
    outer loop
      vertex 12.15 29.25 4
      vertex 9.9 29.25 4
      vertex 12.15 23.125 4
    endloop
  endfacet
  facet normal 0 0 1
    outer loop
      vertex 33.45 11.5089 4
      vertex 33.1689 11.5266 4
      vertex 33.45 11.5 4
    endloop
  endfacet
  facet normal 0 0 1
    outer loop
      vertex 33.45 45.5089 4
      vertex 33.1689 45.5266 4
      vertex 33.45 45.5 4
    endloop
  endfacet
  facet normal -0 0 1
    outer loop
      vertex 36.5442 45.503 4
      vertex 40 40 4
      vertex 36.9135 45.5734 4
    endloop
  endfacet
  facet normal -0 0 1
    outer loop
      vertex 36.45 45.5 4
      vertex 40 40 4
      vertex 36.5442 45.503 4
    endloop
  endfacet
  facet normal 0 0 1
    outer loop
      vertex 36.45 45.5 4
      vertex 36.5442 45.503 4
      vertex 36.45 45.5089 4
    endloop
  endfacet
  facet normal 0 0 1
    outer loop
      vertex 40 40 4
      vertex 36.45 45.5 4
      vertex 37.15 36.875 4
    endloop
  endfacet
  facet normal -0 0 1
    outer loop
      vertex 33.45 45.5 4
      vertex 37.15 36.875 4
      vertex 36.45 45.5 4
    endloop
  endfacet
  facet normal 0 0 1
    outer loop
      vertex 30 40 4
      vertex 33.45 45.5 4
      vertex 33.1689 45.5266 4
    endloop
  endfacet
  facet normal 0 0 1
    outer loop
      vertex 30 40 4
      vertex 33.1689 45.5266 4
      vertex 32.8113 45.6428 4
    endloop
  endfacet
  facet normal 0 0 1
    outer loop
      vertex 30 40 4
      vertex 32.8113 45.6428 4
      vertex 32.4939 45.8442 4
    endloop
  endfacet
  facet normal 0 0 1
    outer loop
      vertex 30 40 4
      vertex 32.4939 45.8442 4
      vertex 32.2365 46.1183 4
    endloop
  endfacet
  facet normal 0 0 1
    outer loop
      vertex 30 40 4
      vertex 32.2365 46.1183 4
      vertex 32.0553 46.4478 4
    endloop
  endfacet
  facet normal 0 0 1
    outer loop
      vertex 30 40 4
      vertex 31.9618 46.812 4
      vertex 30 51 4
    endloop
  endfacet
  facet normal 0 0 1
    outer loop
      vertex 31.9618 46.812 4
      vertex 30 40 4
      vertex 32.0553 46.4478 4
    endloop
  endfacet
  facet normal 0 0 1
    outer loop
      vertex 33.45 45.5 4
      vertex 30 40 4
      vertex 37.15 36.875 4
    endloop
  endfacet
  facet normal 0 0 1
    outer loop
      vertex 30 40 4
      vertex 12.15 36.875 4
      vertex 37.15 36.875 4
    endloop
  endfacet
  facet normal 0 0 1
    outer loop
      vertex 12.15 36.875 4
      vertex 9.9 30.75 4
      vertex 12.15 30.75 4
    endloop
  endfacet
  facet normal 0 0 1
    outer loop
      vertex 9.9 30.75 4
      vertex 9.75947 30.7367 4
      vertex 9.9 30.7456 4
    endloop
  endfacet
  facet normal 0 0 1
    outer loop
      vertex 12.15 36.875 4
      vertex 9.75947 30.7367 4
      vertex 9.9 30.75 4
    endloop
  endfacet
  facet normal 0 0 1
    outer loop
      vertex 12.15 36.875 4
      vertex 9.58068 30.6786 4
      vertex 9.75947 30.7367 4
    endloop
  endfacet
  facet normal 0 0 1
    outer loop
      vertex 8.15 40 4
      vertex 9.58068 30.6786 4
      vertex 12.15 36.875 4
    endloop
  endfacet
  facet normal 0 0 1
    outer loop
      vertex 9.58068 30.6786 4
      vertex 8.15 40 4
      vertex 9.42194 30.5779 4
    endloop
  endfacet
  facet normal 0 0 1
    outer loop
      vertex 9.42194 30.5779 4
      vertex 8.15 40 4
      vertex 9.29325 30.4408 4
    endloop
  endfacet
  facet normal 0 0 1
    outer loop
      vertex 9.15592 30.094 4
      vertex 8.15 40 4
      vertex 9.15592 29.906 4
    endloop
  endfacet
  facet normal 0 0 1
    outer loop
      vertex 9.20267 30.2761 4
      vertex 8.15 40 4
      vertex 9.15592 30.094 4
    endloop
  endfacet
  facet normal 0 0 1
    outer loop
      vertex 9.29325 30.4408 4
      vertex 8.15 40 4
      vertex 9.20267 30.2761 4
    endloop
  endfacet
  facet normal -0 0 1
    outer loop
      vertex 8.15 40 4
      vertex 12.15 36.875 4
      vertex 30 40 4
    endloop
  endfacet
  facet normal 0 0 1
    outer loop
      vertex 40 9 4
      vertex 37.9029 13.373 4
      vertex 37.95 13 4
    endloop
  endfacet
  facet normal 0 0 1
    outer loop
      vertex 36.45 14.5 4
      vertex 40 20 4
      vertex 37.15 23.125 4
    endloop
  endfacet
  facet normal 0 0 1
    outer loop
      vertex 40 20 4
      vertex 37.7645 13.7226 4
      vertex 37.9029 13.373 4
    endloop
  endfacet
  facet normal 0 0 1
    outer loop
      vertex 40 20 4
      vertex 37.5434 14.0268 4
      vertex 37.7645 13.7226 4
    endloop
  endfacet
  facet normal 0 0 1
    outer loop
      vertex 37.15 23.125 4
      vertex 39.4 29.25 4
      vertex 37.15 29.25 4
    endloop
  endfacet
  facet normal 0 0 1
    outer loop
      vertex 40 20 4
      vertex 37.2537 14.2665 4
      vertex 37.5434 14.0268 4
    endloop
  endfacet
  facet normal 0 0 1
    outer loop
      vertex 40 20 4
      vertex 36.9135 14.4266 4
      vertex 37.2537 14.2665 4
    endloop
  endfacet
  facet normal 0 0 1
    outer loop
      vertex 40 20 4
      vertex 36.5442 14.497 4
      vertex 36.9135 14.4266 4
    endloop
  endfacet
  facet normal 0 0 1
    outer loop
      vertex 40 20 4
      vertex 36.45 14.5 4
      vertex 36.5442 14.497 4
    endloop
  endfacet
  facet normal 0 0 1
    outer loop
      vertex 37.15 23.125 4
      vertex 33.45 14.5 4
      vertex 36.45 14.5 4
    endloop
  endfacet
  facet normal 0 0 1
    outer loop
      vertex 33.45 14.5 4
      vertex 33.1689 14.4734 4
      vertex 33.45 14.4911 4
    endloop
  endfacet
  facet normal -0 0 1
    outer loop
      vertex 30 20 4
      vertex 33.45 14.5 4
      vertex 37.15 23.125 4
    endloop
  endfacet
  facet normal 0 0 1
    outer loop
      vertex 33.45 14.5 4
      vertex 30 20 4
      vertex 33.1689 14.4734 4
    endloop
  endfacet
  facet normal 0 0 1
    outer loop
      vertex 33.1689 14.4734 4
      vertex 30 20 4
      vertex 32.8113 14.3572 4
    endloop
  endfacet
  facet normal 0 0 1
    outer loop
      vertex 32.8113 14.3572 4
      vertex 30 20 4
      vertex 32.4939 14.1558 4
    endloop
  endfacet
  facet normal 0 0 1
    outer loop
      vertex 32.4939 14.1558 4
      vertex 30 20 4
      vertex 32.2365 13.8817 4
    endloop
  endfacet
  facet normal 0 0 1
    outer loop
      vertex 30 9 4
      vertex 31.9618 13.188 4
      vertex 30 20 4
    endloop
  endfacet
  facet normal 0 0 1
    outer loop
      vertex 32.0553 13.5522 4
      vertex 30 20 4
      vertex 31.9618 13.188 4
    endloop
  endfacet
  facet normal 0 0 1
    outer loop
      vertex 32.2365 13.8817 4
      vertex 30 20 4
      vertex 32.0553 13.5522 4
    endloop
  endfacet
  facet normal -0 0 1
    outer loop
      vertex 12.15 23.125 4
      vertex 30 20 4
      vertex 37.15 23.125 4
    endloop
  endfacet
  facet normal 0 0 1
    outer loop
      vertex 9.75947 29.2633 4
      vertex 12.15 23.125 4
      vertex 9.9 29.25 4
    endloop
  endfacet
  facet normal 0 0 1
    outer loop
      vertex 9.58068 29.3214 4
      vertex 12.15 23.125 4
      vertex 9.75947 29.2633 4
    endloop
  endfacet
  facet normal 0 0 1
    outer loop
      vertex 8.15 20 4
      vertex 9.58068 29.3214 4
      vertex 9.42194 29.4221 4
    endloop
  endfacet
  facet normal 0 0 1
    outer loop
      vertex 8.15 20 4
      vertex 9.42194 29.4221 4
      vertex 9.29325 29.5592 4
    endloop
  endfacet
  facet normal 0 0 1
    outer loop
      vertex 8.15 20 4
      vertex 9.29325 29.5592 4
      vertex 9.20267 29.7239 4
    endloop
  endfacet
  facet normal 0 0 1
    outer loop
      vertex 12.15 23.125 4
      vertex 8.15 20 4
      vertex 30 20 4
    endloop
  endfacet
  facet normal 0 0 1
    outer loop
      vertex 9.58068 29.3214 4
      vertex 8.15 20 4
      vertex 12.15 23.125 4
    endloop
  endfacet
  facet normal 0 0 1
    outer loop
      vertex 9.15592 29.906 4
      vertex 8.15 20 4
      vertex 9.20267 29.7239 4
    endloop
  endfacet
  facet normal 0 0 1
    outer loop
      vertex 8.15 20 4
      vertex 9.15592 29.906 4
      vertex 8.15 40 4
    endloop
  endfacet
  facet normal -0 0 1
    outer loop
      vertex 37.9029 46.627 4
      vertex 40 40 4
      vertex 40 51 4
    endloop
  endfacet
  facet normal -0 0 1
    outer loop
      vertex 37.7645 46.2774 4
      vertex 40 40 4
      vertex 37.9029 46.627 4
    endloop
  endfacet
  facet normal 0 -0 1
    outer loop
      vertex 39.8019 30.6332 4
      vertex 40 40 4
      vertex 37.15 36.875 4
    endloop
  endfacet
  facet normal 0 0 1
    outer loop
      vertex 40 40 4
      vertex 39.8019 30.6332 4
      vertex 39.9467 30.5134 4
    endloop
  endfacet
  facet normal 0 0 1
    outer loop
      vertex 39.8019 30.6332 4
      vertex 37.15 36.875 4
      vertex 39.6318 30.7133 4
    endloop
  endfacet
  facet normal 0 0 1
    outer loop
      vertex 37.9029 46.627 4
      vertex 40 51 4
      vertex 37.95 47 4
    endloop
  endfacet
  facet normal 0 0 1
    outer loop
      vertex 40 51 4
      vertex 37.9029 47.373 4
      vertex 37.95 47 4
    endloop
  endfacet
  facet normal 0 0 1
    outer loop
      vertex 40 51 4
      vertex 37.7645 47.7226 4
      vertex 37.9029 47.373 4
    endloop
  endfacet
  facet normal 0 0 1
    outer loop
      vertex 40 51 4
      vertex 37.5434 48.0268 4
      vertex 37.7645 47.7226 4
    endloop
  endfacet
  facet normal 0 0 1
    outer loop
      vertex 40 51 4
      vertex 37.2537 48.2665 4
      vertex 37.5434 48.0268 4
    endloop
  endfacet
  facet normal 0 0 1
    outer loop
      vertex 40 51 4
      vertex 36.9135 48.4266 4
      vertex 37.2537 48.2665 4
    endloop
  endfacet
  facet normal 0 0 1
    outer loop
      vertex 40 51 4
      vertex 36.5442 48.497 4
      vertex 36.9135 48.4266 4
    endloop
  endfacet
  facet normal 0 0 1
    outer loop
      vertex 40 51 4
      vertex 36.45 48.5 4
      vertex 36.5442 48.497 4
    endloop
  endfacet
  facet normal -0 0 1
    outer loop
      vertex 30 51 4
      vertex 36.45 48.5 4
      vertex 40 51 4
    endloop
  endfacet
  facet normal 0 0 1
    outer loop
      vertex 33.45 48.5 4
      vertex 33.1689 48.4734 4
      vertex 33.45 48.4911 4
    endloop
  endfacet
  facet normal 0 0 1
    outer loop
      vertex 36.45 48.5 4
      vertex 30 51 4
      vertex 33.45 48.5 4
    endloop
  endfacet
  facet normal 0 0 1
    outer loop
      vertex 33.45 48.5 4
      vertex 30 51 4
      vertex 33.1689 48.4734 4
    endloop
  endfacet
  facet normal 0 0 1
    outer loop
      vertex 31.9618 47.188 4
      vertex 30 51 4
      vertex 31.9618 46.812 4
    endloop
  endfacet
  facet normal 0 0 1
    outer loop
      vertex 32.0553 47.5522 4
      vertex 30 51 4
      vertex 31.9618 47.188 4
    endloop
  endfacet
  facet normal 0 0 1
    outer loop
      vertex 32.2365 47.8817 4
      vertex 30 51 4
      vertex 32.0553 47.5522 4
    endloop
  endfacet
  facet normal 0 0 1
    outer loop
      vertex 32.4939 48.1558 4
      vertex 30 51 4
      vertex 32.2365 47.8817 4
    endloop
  endfacet
  facet normal 0 0 1
    outer loop
      vertex 32.8113 48.3572 4
      vertex 30 51 4
      vertex 32.4939 48.1558 4
    endloop
  endfacet
  facet normal 0 0 1
    outer loop
      vertex 33.1689 48.4734 4
      vertex 30 51 4
      vertex 32.8113 48.3572 4
    endloop
  endfacet
  facet normal 0 0 1
    outer loop
      vertex 41.15 40 4
      vertex 40.15 30 4
      vertex 41.15 20 4
    endloop
  endfacet
  facet normal 0 0 1
    outer loop
      vertex 41.15 40 4
      vertex 40.1264 30.1865 4
      vertex 40.15 30 4
    endloop
  endfacet
  facet normal 0 0 1
    outer loop
      vertex 41.15 40 4
      vertex 40.0572 30.3613 4
      vertex 40.1264 30.1865 4
    endloop
  endfacet
  facet normal 0 0 1
    outer loop
      vertex 39.9467 30.5134 4
      vertex 41.15 40 4
      vertex 40 40 4
    endloop
  endfacet
  facet normal 0 0 1
    outer loop
      vertex 41.15 40 4
      vertex 39.9467 30.5134 4
      vertex 40.0572 30.3613 4
    endloop
  endfacet
  facet normal -0 0 1
    outer loop
      vertex 40.1264 29.8135 4
      vertex 41.15 20 4
      vertex 40.15 30 4
    endloop
  endfacet
  facet normal -0 0 1
    outer loop
      vertex 40.0572 29.6387 4
      vertex 41.15 20 4
      vertex 40.1264 29.8135 4
    endloop
  endfacet
  facet normal -0 0 1
    outer loop
      vertex 39.9467 29.4866 4
      vertex 41.15 20 4
      vertex 40.0572 29.6387 4
    endloop
  endfacet
  facet normal -0 0 1
    outer loop
      vertex 39.8019 29.3668 4
      vertex 41.15 20 4
      vertex 39.9467 29.4866 4
    endloop
  endfacet
  facet normal -0 0 1
    outer loop
      vertex 39.6318 29.2867 4
      vertex 41.15 20 4
      vertex 39.8019 29.3668 4
    endloop
  endfacet
  facet normal -0 0 1
    outer loop
      vertex 37.15 23.125 4
      vertex 41.15 20 4
      vertex 39.6318 29.2867 4
    endloop
  endfacet
  facet normal 0 0 1
    outer loop
      vertex 37.15 23.125 4
      vertex 39.6318 29.2867 4
      vertex 39.4471 29.2515 4
    endloop
  endfacet
  facet normal 0 0 1
    outer loop
      vertex 37.15 23.125 4
      vertex 39.4471 29.2515 4
      vertex 39.4 29.25 4
    endloop
  endfacet
  facet normal 0 0 1
    outer loop
      vertex 39.4 29.25 4
      vertex 39.4471 29.2515 4
      vertex 39.4 29.2544 4
    endloop
  endfacet
  facet normal 0 0 1
    outer loop
      vertex 41.15 20 4
      vertex 37.15 23.125 4
      vertex 40 20 4
    endloop
  endfacet
  facet normal -0 0 1
    outer loop
      vertex 37.9029 13.373 4
      vertex 40 9 4
      vertex 40 20 4
    endloop
  endfacet
  facet normal -0 0 1
    outer loop
      vertex 37.9029 12.627 4
      vertex 40 9 4
      vertex 37.95 13 4
    endloop
  endfacet
  facet normal -0 0 1
    outer loop
      vertex 37.7645 12.2774 4
      vertex 40 9 4
      vertex 37.9029 12.627 4
    endloop
  endfacet
  facet normal -0 0 1
    outer loop
      vertex 37.5434 11.9732 4
      vertex 40 9 4
      vertex 37.7645 12.2774 4
    endloop
  endfacet
  facet normal -0 0 1
    outer loop
      vertex 37.2537 11.7335 4
      vertex 40 9 4
      vertex 37.5434 11.9732 4
    endloop
  endfacet
  facet normal -0 0 1
    outer loop
      vertex 36.9135 11.5734 4
      vertex 40 9 4
      vertex 37.2537 11.7335 4
    endloop
  endfacet
  facet normal -0 0 1
    outer loop
      vertex 36.5442 11.503 4
      vertex 40 9 4
      vertex 36.9135 11.5734 4
    endloop
  endfacet
  facet normal 0 0 1
    outer loop
      vertex 36.45 11.5 4
      vertex 36.5442 11.503 4
      vertex 36.45 11.5089 4
    endloop
  endfacet
  facet normal 0 0 1
    outer loop
      vertex 36.5442 11.503 4
      vertex 36.45 11.5 4
      vertex 40 9 4
    endloop
  endfacet
  facet normal 0 0 1
    outer loop
      vertex 30 9 4
      vertex 36.45 11.5 4
      vertex 33.45 11.5 4
    endloop
  endfacet
  facet normal 0 0 1
    outer loop
      vertex 30 9 4
      vertex 33.45 11.5 4
      vertex 33.1689 11.5266 4
    endloop
  endfacet
  facet normal 0 0 1
    outer loop
      vertex 30 9 4
      vertex 33.1689 11.5266 4
      vertex 32.8113 11.6428 4
    endloop
  endfacet
  facet normal 0 0 1
    outer loop
      vertex 31.9618 13.188 4
      vertex 30 9 4
      vertex 31.9618 12.812 4
    endloop
  endfacet
  facet normal 0 0 1
    outer loop
      vertex 36.45 11.5 4
      vertex 30 9 4
      vertex 40 9 4
    endloop
  endfacet
  facet normal 0 0 1
    outer loop
      vertex 32.4939 11.8442 4
      vertex 30 9 4
      vertex 32.8113 11.6428 4
    endloop
  endfacet
  facet normal 0 0 1
    outer loop
      vertex 32.2365 12.1183 4
      vertex 30 9 4
      vertex 32.4939 11.8442 4
    endloop
  endfacet
  facet normal 0 0 1
    outer loop
      vertex 32.0553 12.4478 4
      vertex 30 9 4
      vertex 32.2365 12.1183 4
    endloop
  endfacet
  facet normal 0 0 1
    outer loop
      vertex 31.9618 12.812 4
      vertex 30 9 4
      vertex 32.0553 12.4478 4
    endloop
  endfacet
  facet normal 0 0 1
    outer loop
      vertex 39.4471 30.7485 4
      vertex 39.4 30.75 4
      vertex 39.4 30.7456 4
    endloop
  endfacet
  facet normal 0 0 1
    outer loop
      vertex 39.6318 30.7133 4
      vertex 37.15 36.875 4
      vertex 39.4471 30.7485 4
    endloop
  endfacet
  facet normal -0 0 1
    outer loop
      vertex 37.5434 45.9732 4
      vertex 40 40 4
      vertex 37.7645 46.2774 4
    endloop
  endfacet
  facet normal -0 0 1
    outer loop
      vertex 37.2537 45.7335 4
      vertex 40 40 4
      vertex 37.5434 45.9732 4
    endloop
  endfacet
  facet normal -0 0 1
    outer loop
      vertex 36.9135 45.5734 4
      vertex 40 40 4
      vertex 37.2537 45.7335 4
    endloop
  endfacet
  facet normal 0 0 1
    outer loop
      vertex 39.4471 30.7485 4
      vertex 37.15 36.875 4
      vertex 39.4 30.75 4
    endloop
  endfacet
  facet normal 0 0 1
    outer loop
      vertex 39.4 30.75 4
      vertex 37.15 36.875 4
      vertex 37.15 30.75 4
    endloop
  endfacet
  facet normal 0 0 1
    outer loop
      vertex 36.5442 48.497 4
      vertex 36.45 48.5 4
      vertex 36.45 48.4911 4
    endloop
  endfacet
  facet normal 0 0 1
    outer loop
      vertex 36.5442 14.497 4
      vertex 36.45 14.5 4
      vertex 36.45 14.4911 4
    endloop
  endfacet
  facet normal 1 -0 0
    outer loop
      vertex 40 9 4
      vertex 40 20 0
      vertex 40 20 4
    endloop
  endfacet
  facet normal 1 0 0
    outer loop
      vertex 40 20 0
      vertex 40 9 4
      vertex 40 9 0
    endloop
  endfacet
  facet normal 1 -0 0
    outer loop
      vertex 40 40 4
      vertex 40 51 0
      vertex 40 51 4
    endloop
  endfacet
  facet normal 1 0 0
    outer loop
      vertex 40 51 0
      vertex 40 40 4
      vertex 40 40 0
    endloop
  endfacet
  facet normal -1 0 0
    outer loop
      vertex 30 9 0
      vertex 30 20 4
      vertex 30 20 0
    endloop
  endfacet
  facet normal -1 -0 0
    outer loop
      vertex 30 20 4
      vertex 30 9 0
      vertex 30 9 4
    endloop
  endfacet
  facet normal -1 0 0
    outer loop
      vertex 30 40 0
      vertex 30 51 4
      vertex 30 51 0
    endloop
  endfacet
  facet normal -1 -0 0
    outer loop
      vertex 30 51 4
      vertex 30 40 0
      vertex 30 40 4
    endloop
  endfacet
  facet normal 0 -1 0
    outer loop
      vertex 30 9 0
      vertex 40 9 4
      vertex 30 9 4
    endloop
  endfacet
  facet normal 0 -1 -0
    outer loop
      vertex 40 9 4
      vertex 30 9 0
      vertex 40 9 0
    endloop
  endfacet
  facet normal 0 1 -0
    outer loop
      vertex 40 51 0
      vertex 30 51 4
      vertex 40 51 4
    endloop
  endfacet
  facet normal 0 1 0
    outer loop
      vertex 30 51 4
      vertex 40 51 0
      vertex 30 51 0
    endloop
  endfacet
  facet normal 0 1 -0
    outer loop
      vertex 39.4 29.25 0
      vertex 37.15 29.25 4
      vertex 39.4 29.25 4
    endloop
  endfacet
  facet normal 0 1 0
    outer loop
      vertex 37.15 29.25 4
      vertex 39.4 29.25 0
      vertex 37.15 29.25 0
    endloop
  endfacet
  facet normal -1 0 0
    outer loop
      vertex 39.4 29.25 0
      vertex 39.4 29.2544 4
      vertex 39.4 29.2544 0
    endloop
  endfacet
  facet normal -1 -0 0
    outer loop
      vertex 39.4 29.2544 4
      vertex 39.4 29.25 0
      vertex 39.4 29.25 4
    endloop
  endfacet
  facet normal 0.0614547 0.99811 -0
    outer loop
      vertex 39.4471 29.2515 0
      vertex 39.4 29.2544 4
      vertex 39.4471 29.2515 4
    endloop
  endfacet
  facet normal 0.0614547 0.99811 0
    outer loop
      vertex 39.4 29.2544 4
      vertex 39.4471 29.2515 0
      vertex 39.4 29.2544 0
    endloop
  endfacet
  facet normal -0.18721 0.98232 0
    outer loop
      vertex 39.6318 29.2867 0
      vertex 39.4471 29.2515 4
      vertex 39.6318 29.2867 4
    endloop
  endfacet
  facet normal -0.18721 0.98232 0
    outer loop
      vertex 39.4471 29.2515 4
      vertex 39.6318 29.2867 0
      vertex 39.4471 29.2515 0
    endloop
  endfacet
  facet normal -0.426028 0.90471 0
    outer loop
      vertex 39.8019 29.3668 0
      vertex 39.6318 29.2867 4
      vertex 39.8019 29.3668 4
    endloop
  endfacet
  facet normal -0.426028 0.90471 0
    outer loop
      vertex 39.6318 29.2867 4
      vertex 39.8019 29.3668 0
      vertex 39.6318 29.2867 0
    endloop
  endfacet
  facet normal -0.637459 0.770484 0
    outer loop
      vertex 39.9467 29.4866 0
      vertex 39.8019 29.3668 4
      vertex 39.9467 29.4866 4
    endloop
  endfacet
  facet normal -0.637459 0.770484 0
    outer loop
      vertex 39.8019 29.3668 4
      vertex 39.9467 29.4866 0
      vertex 39.8019 29.3668 0
    endloop
  endfacet
  facet normal -0.809035 0.58776 0
    outer loop
      vertex 39.9467 29.4866 0
      vertex 40.0572 29.6387 4
      vertex 40.0572 29.6387 0
    endloop
  endfacet
  facet normal -0.809035 0.58776 0
    outer loop
      vertex 40.0572 29.6387 4
      vertex 39.9467 29.4866 0
      vertex 39.9467 29.4866 4
    endloop
  endfacet
  facet normal -0.929791 0.368087 0
    outer loop
      vertex 40.0572 29.6387 0
      vertex 40.1264 29.8135 4
      vertex 40.1264 29.8135 0
    endloop
  endfacet
  facet normal -0.929791 0.368087 0
    outer loop
      vertex 40.1264 29.8135 4
      vertex 40.0572 29.6387 0
      vertex 40.0572 29.6387 4
    endloop
  endfacet
  facet normal -0.992089 0.12554 0
    outer loop
      vertex 40.1264 29.8135 0
      vertex 40.15 30 4
      vertex 40.15 30 0
    endloop
  endfacet
  facet normal -0.992089 0.12554 0
    outer loop
      vertex 40.15 30 4
      vertex 40.1264 29.8135 0
      vertex 40.1264 29.8135 4
    endloop
  endfacet
  facet normal -0.992089 -0.12554 0
    outer loop
      vertex 40.15 30 0
      vertex 40.1264 30.1865 4
      vertex 40.1264 30.1865 0
    endloop
  endfacet
  facet normal -0.992089 -0.12554 0
    outer loop
      vertex 40.1264 30.1865 4
      vertex 40.15 30 0
      vertex 40.15 30 4
    endloop
  endfacet
  facet normal -0.929791 -0.368087 0
    outer loop
      vertex 40.1264 30.1865 0
      vertex 40.0572 30.3613 4
      vertex 40.0572 30.3613 0
    endloop
  endfacet
  facet normal -0.929791 -0.368087 0
    outer loop
      vertex 40.0572 30.3613 4
      vertex 40.1264 30.1865 0
      vertex 40.1264 30.1865 4
    endloop
  endfacet
  facet normal -0.809035 -0.58776 0
    outer loop
      vertex 40.0572 30.3613 0
      vertex 39.9467 30.5134 4
      vertex 39.9467 30.5134 0
    endloop
  endfacet
  facet normal -0.809035 -0.58776 0
    outer loop
      vertex 39.9467 30.5134 4
      vertex 40.0572 30.3613 0
      vertex 40.0572 30.3613 4
    endloop
  endfacet
  facet normal -0.637459 -0.770484 0
    outer loop
      vertex 39.8019 30.6332 0
      vertex 39.9467 30.5134 4
      vertex 39.8019 30.6332 4
    endloop
  endfacet
  facet normal -0.637459 -0.770484 -0
    outer loop
      vertex 39.9467 30.5134 4
      vertex 39.8019 30.6332 0
      vertex 39.9467 30.5134 0
    endloop
  endfacet
  facet normal -0.426028 -0.90471 0
    outer loop
      vertex 39.6318 30.7133 0
      vertex 39.8019 30.6332 4
      vertex 39.6318 30.7133 4
    endloop
  endfacet
  facet normal -0.426028 -0.90471 -0
    outer loop
      vertex 39.8019 30.6332 4
      vertex 39.6318 30.7133 0
      vertex 39.8019 30.6332 0
    endloop
  endfacet
  facet normal -0.18721 -0.98232 0
    outer loop
      vertex 39.4471 30.7485 0
      vertex 39.6318 30.7133 4
      vertex 39.4471 30.7485 4
    endloop
  endfacet
  facet normal -0.18721 -0.98232 -0
    outer loop
      vertex 39.6318 30.7133 4
      vertex 39.4471 30.7485 0
      vertex 39.6318 30.7133 0
    endloop
  endfacet
  facet normal 0.0614547 -0.99811 0
    outer loop
      vertex 39.4 30.7456 0
      vertex 39.4471 30.7485 4
      vertex 39.4 30.7456 4
    endloop
  endfacet
  facet normal 0.0614547 -0.99811 0
    outer loop
      vertex 39.4471 30.7485 4
      vertex 39.4 30.7456 0
      vertex 39.4471 30.7485 0
    endloop
  endfacet
  facet normal -1 0 0
    outer loop
      vertex 39.4 30.7456 0
      vertex 39.4 30.75 4
      vertex 39.4 30.75 0
    endloop
  endfacet
  facet normal -1 -0 0
    outer loop
      vertex 39.4 30.75 4
      vertex 39.4 30.7456 0
      vertex 39.4 30.7456 4
    endloop
  endfacet
  facet normal 0 -1 0
    outer loop
      vertex 37.15 30.75 0
      vertex 39.4 30.75 4
      vertex 37.15 30.75 4
    endloop
  endfacet
  facet normal 0 -1 -0
    outer loop
      vertex 39.4 30.75 4
      vertex 37.15 30.75 0
      vertex 39.4 30.75 0
    endloop
  endfacet
  facet normal -1 0 0
    outer loop
      vertex 37.15 30.75 0
      vertex 37.15 36.875 4
      vertex 37.15 36.875 0
    endloop
  endfacet
  facet normal -1 -0 0
    outer loop
      vertex 37.15 36.875 4
      vertex 37.15 30.75 0
      vertex 37.15 30.75 4
    endloop
  endfacet
  facet normal 0 -1 0
    outer loop
      vertex 12.15 36.875 0
      vertex 37.15 36.875 4
      vertex 12.15 36.875 4
    endloop
  endfacet
  facet normal 0 -1 -0
    outer loop
      vertex 37.15 36.875 4
      vertex 12.15 36.875 0
      vertex 37.15 36.875 0
    endloop
  endfacet
  facet normal 1 -0 0
    outer loop
      vertex 12.15 30.75 4
      vertex 12.15 36.875 0
      vertex 12.15 36.875 4
    endloop
  endfacet
  facet normal 1 0 0
    outer loop
      vertex 12.15 36.875 0
      vertex 12.15 30.75 4
      vertex 12.15 30.75 0
    endloop
  endfacet
  facet normal 0 -1 0
    outer loop
      vertex 9.9 30.75 0
      vertex 12.15 30.75 4
      vertex 9.9 30.75 4
    endloop
  endfacet
  facet normal 0 -1 -0
    outer loop
      vertex 12.15 30.75 4
      vertex 9.9 30.75 0
      vertex 12.15 30.75 0
    endloop
  endfacet
  facet normal 1 -0 0
    outer loop
      vertex 9.9 30.7456 4
      vertex 9.9 30.75 0
      vertex 9.9 30.75 4
    endloop
  endfacet
  facet normal 1 0 0
    outer loop
      vertex 9.9 30.75 0
      vertex 9.9 30.7456 4
      vertex 9.9 30.7456 0
    endloop
  endfacet
  facet normal 0.063205 -0.998001 0
    outer loop
      vertex 9.75947 30.7367 0
      vertex 9.9 30.7456 4
      vertex 9.75947 30.7367 4
    endloop
  endfacet
  facet normal 0.063205 -0.998001 0
    outer loop
      vertex 9.9 30.7456 4
      vertex 9.75947 30.7367 0
      vertex 9.9 30.7456 0
    endloop
  endfacet
  facet normal 0.309054 -0.951045 0
    outer loop
      vertex 9.58068 30.6786 0
      vertex 9.75947 30.7367 4
      vertex 9.58068 30.6786 4
    endloop
  endfacet
  facet normal 0.309054 -0.951045 0
    outer loop
      vertex 9.75947 30.7367 4
      vertex 9.58068 30.6786 0
      vertex 9.75947 30.7367 0
    endloop
  endfacet
  facet normal 0.535677 -0.844423 0
    outer loop
      vertex 9.42194 30.5779 0
      vertex 9.58068 30.6786 4
      vertex 9.42194 30.5779 4
    endloop
  endfacet
  facet normal 0.535677 -0.844423 0
    outer loop
      vertex 9.58068 30.6786 4
      vertex 9.42194 30.5779 0
      vertex 9.58068 30.6786 0
    endloop
  endfacet
  facet normal 0.729116 -0.68439 0
    outer loop
      vertex 9.29325 30.4408 4
      vertex 9.42194 30.5779 0
      vertex 9.42194 30.5779 4
    endloop
  endfacet
  facet normal 0.729116 -0.68439 0
    outer loop
      vertex 9.42194 30.5779 0
      vertex 9.29325 30.4408 4
      vertex 9.29325 30.4408 0
    endloop
  endfacet
  facet normal 0.876227 -0.481898 0
    outer loop
      vertex 9.20267 30.2761 4
      vertex 9.29325 30.4408 0
      vertex 9.29325 30.4408 4
    endloop
  endfacet
  facet normal 0.876227 -0.481898 0
    outer loop
      vertex 9.29325 30.4408 0
      vertex 9.20267 30.2761 4
      vertex 9.20267 30.2761 0
    endloop
  endfacet
  facet normal 0.96859 -0.248663 0
    outer loop
      vertex 9.15592 30.094 4
      vertex 9.20267 30.2761 0
      vertex 9.20267 30.2761 4
    endloop
  endfacet
  facet normal 0.96859 -0.248663 0
    outer loop
      vertex 9.20267 30.2761 0
      vertex 9.15592 30.094 4
      vertex 9.15592 30.094 0
    endloop
  endfacet
  facet normal 1 -0 0
    outer loop
      vertex 9.15592 29.906 4
      vertex 9.15592 30.094 0
      vertex 9.15592 30.094 4
    endloop
  endfacet
  facet normal 1 0 0
    outer loop
      vertex 9.15592 30.094 0
      vertex 9.15592 29.906 4
      vertex 9.15592 29.906 0
    endloop
  endfacet
  facet normal 0.96859 0.248663 0
    outer loop
      vertex 9.20267 29.7239 4
      vertex 9.15592 29.906 0
      vertex 9.15592 29.906 4
    endloop
  endfacet
  facet normal 0.96859 0.248663 0
    outer loop
      vertex 9.15592 29.906 0
      vertex 9.20267 29.7239 4
      vertex 9.20267 29.7239 0
    endloop
  endfacet
  facet normal 0.876227 0.481898 0
    outer loop
      vertex 9.29325 29.5592 4
      vertex 9.20267 29.7239 0
      vertex 9.20267 29.7239 4
    endloop
  endfacet
  facet normal 0.876227 0.481898 0
    outer loop
      vertex 9.20267 29.7239 0
      vertex 9.29325 29.5592 4
      vertex 9.29325 29.5592 0
    endloop
  endfacet
  facet normal 0.729116 0.68439 0
    outer loop
      vertex 9.42194 29.4221 4
      vertex 9.29325 29.5592 0
      vertex 9.29325 29.5592 4
    endloop
  endfacet
  facet normal 0.729116 0.68439 0
    outer loop
      vertex 9.29325 29.5592 0
      vertex 9.42194 29.4221 4
      vertex 9.42194 29.4221 0
    endloop
  endfacet
  facet normal 0.535677 0.844423 -0
    outer loop
      vertex 9.58068 29.3214 0
      vertex 9.42194 29.4221 4
      vertex 9.58068 29.3214 4
    endloop
  endfacet
  facet normal 0.535677 0.844423 0
    outer loop
      vertex 9.42194 29.4221 4
      vertex 9.58068 29.3214 0
      vertex 9.42194 29.4221 0
    endloop
  endfacet
  facet normal 0.309054 0.951045 -0
    outer loop
      vertex 9.75947 29.2633 0
      vertex 9.58068 29.3214 4
      vertex 9.75947 29.2633 4
    endloop
  endfacet
  facet normal 0.309054 0.951045 0
    outer loop
      vertex 9.58068 29.3214 4
      vertex 9.75947 29.2633 0
      vertex 9.58068 29.3214 0
    endloop
  endfacet
  facet normal 0.063205 0.998001 -0
    outer loop
      vertex 9.9 29.2544 0
      vertex 9.75947 29.2633 4
      vertex 9.9 29.2544 4
    endloop
  endfacet
  facet normal 0.063205 0.998001 0
    outer loop
      vertex 9.75947 29.2633 4
      vertex 9.9 29.2544 0
      vertex 9.75947 29.2633 0
    endloop
  endfacet
  facet normal 1 -0 0
    outer loop
      vertex 9.9 29.25 4
      vertex 9.9 29.2544 0
      vertex 9.9 29.2544 4
    endloop
  endfacet
  facet normal 1 0 0
    outer loop
      vertex 9.9 29.2544 0
      vertex 9.9 29.25 4
      vertex 9.9 29.25 0
    endloop
  endfacet
  facet normal 0 1 -0
    outer loop
      vertex 12.15 29.25 0
      vertex 9.9 29.25 4
      vertex 12.15 29.25 4
    endloop
  endfacet
  facet normal 0 1 0
    outer loop
      vertex 9.9 29.25 4
      vertex 12.15 29.25 0
      vertex 9.9 29.25 0
    endloop
  endfacet
  facet normal 1 -0 0
    outer loop
      vertex 12.15 23.125 4
      vertex 12.15 29.25 0
      vertex 12.15 29.25 4
    endloop
  endfacet
  facet normal 1 0 0
    outer loop
      vertex 12.15 29.25 0
      vertex 12.15 23.125 4
      vertex 12.15 23.125 0
    endloop
  endfacet
  facet normal 0 1 -0
    outer loop
      vertex 37.15 23.125 0
      vertex 12.15 23.125 4
      vertex 37.15 23.125 4
    endloop
  endfacet
  facet normal 0 1 0
    outer loop
      vertex 12.15 23.125 4
      vertex 37.15 23.125 0
      vertex 12.15 23.125 0
    endloop
  endfacet
  facet normal -1 0 0
    outer loop
      vertex 37.15 23.125 0
      vertex 37.15 29.25 4
      vertex 37.15 29.25 0
    endloop
  endfacet
  facet normal -1 -0 0
    outer loop
      vertex 37.15 29.25 4
      vertex 37.15 23.125 0
      vertex 37.15 23.125 4
    endloop
  endfacet
  facet normal 0.0625102 0.998044 -0
    outer loop
      vertex 36.5442 45.503 0
      vertex 36.45 45.5089 4
      vertex 36.5442 45.503 4
    endloop
  endfacet
  facet normal 0.0625102 0.998044 0
    outer loop
      vertex 36.45 45.5089 4
      vertex 36.5442 45.503 0
      vertex 36.45 45.5089 0
    endloop
  endfacet
  facet normal -0.187259 0.982311 0
    outer loop
      vertex 36.9135 45.5734 0
      vertex 36.5442 45.503 4
      vertex 36.9135 45.5734 4
    endloop
  endfacet
  facet normal -0.187259 0.982311 0
    outer loop
      vertex 36.5442 45.503 4
      vertex 36.9135 45.5734 0
      vertex 36.5442 45.503 0
    endloop
  endfacet
  facet normal -0.42581 0.904813 0
    outer loop
      vertex 37.2537 45.7335 0
      vertex 36.9135 45.5734 4
      vertex 37.2537 45.7335 4
    endloop
  endfacet
  facet normal -0.42581 0.904813 0
    outer loop
      vertex 36.9135 45.5734 4
      vertex 37.2537 45.7335 0
      vertex 36.9135 45.5734 0
    endloop
  endfacet
  facet normal -0.637486 0.770462 0
    outer loop
      vertex 37.5434 45.9732 0
      vertex 37.2537 45.7335 4
      vertex 37.5434 45.9732 4
    endloop
  endfacet
  facet normal -0.637486 0.770462 0
    outer loop
      vertex 37.2537 45.7335 4
      vertex 37.5434 45.9732 0
      vertex 37.2537 45.7335 0
    endloop
  endfacet
  facet normal -0.808909 0.587935 0
    outer loop
      vertex 37.5434 45.9732 0
      vertex 37.7645 46.2774 4
      vertex 37.7645 46.2774 0
    endloop
  endfacet
  facet normal -0.808909 0.587935 0
    outer loop
      vertex 37.7645 46.2774 4
      vertex 37.5434 45.9732 0
      vertex 37.5434 45.9732 4
    endloop
  endfacet
  facet normal -0.929791 0.368087 0
    outer loop
      vertex 37.7645 46.2774 0
      vertex 37.9029 46.627 4
      vertex 37.9029 46.627 0
    endloop
  endfacet
  facet normal -0.929791 0.368087 0
    outer loop
      vertex 37.9029 46.627 4
      vertex 37.7645 46.2774 0
      vertex 37.7645 46.2774 4
    endloop
  endfacet
  facet normal -0.992122 0.125279 0
    outer loop
      vertex 37.9029 46.627 0
      vertex 37.95 47 4
      vertex 37.95 47 0
    endloop
  endfacet
  facet normal -0.992122 0.125279 0
    outer loop
      vertex 37.95 47 4
      vertex 37.9029 46.627 0
      vertex 37.9029 46.627 4
    endloop
  endfacet
  facet normal -0.992122 -0.125279 0
    outer loop
      vertex 37.95 47 0
      vertex 37.9029 47.373 4
      vertex 37.9029 47.373 0
    endloop
  endfacet
  facet normal -0.992122 -0.125279 0
    outer loop
      vertex 37.9029 47.373 4
      vertex 37.95 47 0
      vertex 37.95 47 4
    endloop
  endfacet
  facet normal -0.929791 -0.368087 0
    outer loop
      vertex 37.9029 47.373 0
      vertex 37.7645 47.7226 4
      vertex 37.7645 47.7226 0
    endloop
  endfacet
  facet normal -0.929791 -0.368087 0
    outer loop
      vertex 37.7645 47.7226 4
      vertex 37.9029 47.373 0
      vertex 37.9029 47.373 4
    endloop
  endfacet
  facet normal -0.808909 -0.587935 0
    outer loop
      vertex 37.7645 47.7226 0
      vertex 37.5434 48.0268 4
      vertex 37.5434 48.0268 0
    endloop
  endfacet
  facet normal -0.808909 -0.587935 0
    outer loop
      vertex 37.5434 48.0268 4
      vertex 37.7645 47.7226 0
      vertex 37.7645 47.7226 4
    endloop
  endfacet
  facet normal -0.637486 -0.770462 0
    outer loop
      vertex 37.2537 48.2665 0
      vertex 37.5434 48.0268 4
      vertex 37.2537 48.2665 4
    endloop
  endfacet
  facet normal -0.637486 -0.770462 -0
    outer loop
      vertex 37.5434 48.0268 4
      vertex 37.2537 48.2665 0
      vertex 37.5434 48.0268 0
    endloop
  endfacet
  facet normal -0.42581 -0.904813 0
    outer loop
      vertex 36.9135 48.4266 0
      vertex 37.2537 48.2665 4
      vertex 36.9135 48.4266 4
    endloop
  endfacet
  facet normal -0.42581 -0.904813 -0
    outer loop
      vertex 37.2537 48.2665 4
      vertex 36.9135 48.4266 0
      vertex 37.2537 48.2665 0
    endloop
  endfacet
  facet normal -0.187259 -0.982311 0
    outer loop
      vertex 36.5442 48.497 0
      vertex 36.9135 48.4266 4
      vertex 36.5442 48.497 4
    endloop
  endfacet
  facet normal -0.187259 -0.982311 -0
    outer loop
      vertex 36.9135 48.4266 4
      vertex 36.5442 48.497 0
      vertex 36.9135 48.4266 0
    endloop
  endfacet
  facet normal 0.0625102 -0.998044 0
    outer loop
      vertex 36.45 48.4911 0
      vertex 36.5442 48.497 4
      vertex 36.45 48.4911 4
    endloop
  endfacet
  facet normal 0.0625102 -0.998044 0
    outer loop
      vertex 36.5442 48.497 4
      vertex 36.45 48.4911 0
      vertex 36.5442 48.497 0
    endloop
  endfacet
  facet normal -1 0 0
    outer loop
      vertex 36.45 48.4911 0
      vertex 36.45 48.5 4
      vertex 36.45 48.5 0
    endloop
  endfacet
  facet normal -1 -0 0
    outer loop
      vertex 36.45 48.5 4
      vertex 36.45 48.4911 0
      vertex 36.45 48.4911 4
    endloop
  endfacet
  facet normal 0 -1 0
    outer loop
      vertex 33.45 48.5 0
      vertex 36.45 48.5 4
      vertex 33.45 48.5 4
    endloop
  endfacet
  facet normal 0 -1 -0
    outer loop
      vertex 36.45 48.5 4
      vertex 33.45 48.5 0
      vertex 36.45 48.5 0
    endloop
  endfacet
  facet normal 1 -0 0
    outer loop
      vertex 33.45 48.4911 4
      vertex 33.45 48.5 0
      vertex 33.45 48.5 4
    endloop
  endfacet
  facet normal 1 0 0
    outer loop
      vertex 33.45 48.5 0
      vertex 33.45 48.4911 4
      vertex 33.45 48.4911 0
    endloop
  endfacet
  facet normal 0.0628425 -0.998023 0
    outer loop
      vertex 33.1689 48.4734 0
      vertex 33.45 48.4911 4
      vertex 33.1689 48.4734 4
    endloop
  endfacet
  facet normal 0.0628425 -0.998023 0
    outer loop
      vertex 33.45 48.4911 4
      vertex 33.1689 48.4734 0
      vertex 33.45 48.4911 0
    endloop
  endfacet
  facet normal 0.309038 -0.95105 0
    outer loop
      vertex 32.8113 48.3572 0
      vertex 33.1689 48.4734 4
      vertex 32.8113 48.3572 4
    endloop
  endfacet
  facet normal 0.309038 -0.95105 0
    outer loop
      vertex 33.1689 48.4734 4
      vertex 32.8113 48.3572 0
      vertex 33.1689 48.4734 0
    endloop
  endfacet
  facet normal 0.535773 -0.844362 0
    outer loop
      vertex 32.4939 48.1558 0
      vertex 32.8113 48.3572 4
      vertex 32.4939 48.1558 4
    endloop
  endfacet
  facet normal 0.535773 -0.844362 0
    outer loop
      vertex 32.8113 48.3572 4
      vertex 32.4939 48.1558 0
      vertex 32.8113 48.3572 0
    endloop
  endfacet
  facet normal 0.728965 -0.684551 0
    outer loop
      vertex 32.2365 47.8817 4
      vertex 32.4939 48.1558 0
      vertex 32.4939 48.1558 4
    endloop
  endfacet
  facet normal 0.728965 -0.684551 0
    outer loop
      vertex 32.4939 48.1558 0
      vertex 32.2365 47.8817 4
      vertex 32.2365 47.8817 0
    endloop
  endfacet
  facet normal 0.876244 -0.481868 0
    outer loop
      vertex 32.0553 47.5522 4
      vertex 32.2365 47.8817 0
      vertex 32.2365 47.8817 4
    endloop
  endfacet
  facet normal 0.876244 -0.481868 0
    outer loop
      vertex 32.2365 47.8817 0
      vertex 32.0553 47.5522 4
      vertex 32.0553 47.5522 0
    endloop
  endfacet
  facet normal 0.96859 -0.248663 0
    outer loop
      vertex 31.9618 47.188 4
      vertex 32.0553 47.5522 0
      vertex 32.0553 47.5522 4
    endloop
  endfacet
  facet normal 0.96859 -0.248663 0
    outer loop
      vertex 32.0553 47.5522 0
      vertex 31.9618 47.188 4
      vertex 31.9618 47.188 0
    endloop
  endfacet
  facet normal 1 -0 0
    outer loop
      vertex 31.9618 46.812 4
      vertex 31.9618 47.188 0
      vertex 31.9618 47.188 4
    endloop
  endfacet
  facet normal 1 0 0
    outer loop
      vertex 31.9618 47.188 0
      vertex 31.9618 46.812 4
      vertex 31.9618 46.812 0
    endloop
  endfacet
  facet normal 0.96859 0.248663 0
    outer loop
      vertex 32.0553 46.4478 4
      vertex 31.9618 46.812 0
      vertex 31.9618 46.812 4
    endloop
  endfacet
  facet normal 0.96859 0.248663 0
    outer loop
      vertex 31.9618 46.812 0
      vertex 32.0553 46.4478 4
      vertex 32.0553 46.4478 0
    endloop
  endfacet
  facet normal 0.876244 0.481868 0
    outer loop
      vertex 32.2365 46.1183 4
      vertex 32.0553 46.4478 0
      vertex 32.0553 46.4478 4
    endloop
  endfacet
  facet normal 0.876244 0.481868 0
    outer loop
      vertex 32.0553 46.4478 0
      vertex 32.2365 46.1183 4
      vertex 32.2365 46.1183 0
    endloop
  endfacet
  facet normal 0.728965 0.684551 0
    outer loop
      vertex 32.4939 45.8442 4
      vertex 32.2365 46.1183 0
      vertex 32.2365 46.1183 4
    endloop
  endfacet
  facet normal 0.728965 0.684551 0
    outer loop
      vertex 32.2365 46.1183 0
      vertex 32.4939 45.8442 4
      vertex 32.4939 45.8442 0
    endloop
  endfacet
  facet normal 0.535773 0.844362 -0
    outer loop
      vertex 32.8113 45.6428 0
      vertex 32.4939 45.8442 4
      vertex 32.8113 45.6428 4
    endloop
  endfacet
  facet normal 0.535773 0.844362 0
    outer loop
      vertex 32.4939 45.8442 4
      vertex 32.8113 45.6428 0
      vertex 32.4939 45.8442 0
    endloop
  endfacet
  facet normal 0.309038 0.95105 -0
    outer loop
      vertex 33.1689 45.5266 0
      vertex 32.8113 45.6428 4
      vertex 33.1689 45.5266 4
    endloop
  endfacet
  facet normal 0.309038 0.95105 0
    outer loop
      vertex 32.8113 45.6428 4
      vertex 33.1689 45.5266 0
      vertex 32.8113 45.6428 0
    endloop
  endfacet
  facet normal 0.0628425 0.998023 -0
    outer loop
      vertex 33.45 45.5089 0
      vertex 33.1689 45.5266 4
      vertex 33.45 45.5089 4
    endloop
  endfacet
  facet normal 0.0628425 0.998023 0
    outer loop
      vertex 33.1689 45.5266 4
      vertex 33.45 45.5089 0
      vertex 33.1689 45.5266 0
    endloop
  endfacet
  facet normal 1 -0 0
    outer loop
      vertex 33.45 45.5 4
      vertex 33.45 45.5089 0
      vertex 33.45 45.5089 4
    endloop
  endfacet
  facet normal 1 0 0
    outer loop
      vertex 33.45 45.5089 0
      vertex 33.45 45.5 4
      vertex 33.45 45.5 0
    endloop
  endfacet
  facet normal 0 1 -0
    outer loop
      vertex 36.45 45.5 0
      vertex 33.45 45.5 4
      vertex 36.45 45.5 4
    endloop
  endfacet
  facet normal 0 1 0
    outer loop
      vertex 33.45 45.5 4
      vertex 36.45 45.5 0
      vertex 33.45 45.5 0
    endloop
  endfacet
  facet normal -1 0 0
    outer loop
      vertex 36.45 45.5 0
      vertex 36.45 45.5089 4
      vertex 36.45 45.5089 0
    endloop
  endfacet
  facet normal -1 -0 0
    outer loop
      vertex 36.45 45.5089 4
      vertex 36.45 45.5 0
      vertex 36.45 45.5 4
    endloop
  endfacet
  facet normal 0.0625102 0.998044 -0
    outer loop
      vertex 36.5442 11.503 0
      vertex 36.45 11.5089 4
      vertex 36.5442 11.503 4
    endloop
  endfacet
  facet normal 0.0625102 0.998044 0
    outer loop
      vertex 36.45 11.5089 4
      vertex 36.5442 11.503 0
      vertex 36.45 11.5089 0
    endloop
  endfacet
  facet normal -0.187259 0.982311 0
    outer loop
      vertex 36.9135 11.5734 0
      vertex 36.5442 11.503 4
      vertex 36.9135 11.5734 4
    endloop
  endfacet
  facet normal -0.187259 0.982311 0
    outer loop
      vertex 36.5442 11.503 4
      vertex 36.9135 11.5734 0
      vertex 36.5442 11.503 0
    endloop
  endfacet
  facet normal -0.42581 0.904813 0
    outer loop
      vertex 37.2537 11.7335 0
      vertex 36.9135 11.5734 4
      vertex 37.2537 11.7335 4
    endloop
  endfacet
  facet normal -0.42581 0.904813 0
    outer loop
      vertex 36.9135 11.5734 4
      vertex 37.2537 11.7335 0
      vertex 36.9135 11.5734 0
    endloop
  endfacet
  facet normal -0.637486 0.770462 0
    outer loop
      vertex 37.5434 11.9732 0
      vertex 37.2537 11.7335 4
      vertex 37.5434 11.9732 4
    endloop
  endfacet
  facet normal -0.637486 0.770462 0
    outer loop
      vertex 37.2537 11.7335 4
      vertex 37.5434 11.9732 0
      vertex 37.2537 11.7335 0
    endloop
  endfacet
  facet normal -0.808909 0.587935 0
    outer loop
      vertex 37.5434 11.9732 0
      vertex 37.7645 12.2774 4
      vertex 37.7645 12.2774 0
    endloop
  endfacet
  facet normal -0.808909 0.587935 0
    outer loop
      vertex 37.7645 12.2774 4
      vertex 37.5434 11.9732 0
      vertex 37.5434 11.9732 4
    endloop
  endfacet
  facet normal -0.929791 0.368087 0
    outer loop
      vertex 37.7645 12.2774 0
      vertex 37.9029 12.627 4
      vertex 37.9029 12.627 0
    endloop
  endfacet
  facet normal -0.929791 0.368087 0
    outer loop
      vertex 37.9029 12.627 4
      vertex 37.7645 12.2774 0
      vertex 37.7645 12.2774 4
    endloop
  endfacet
  facet normal -0.992122 0.125279 0
    outer loop
      vertex 37.9029 12.627 0
      vertex 37.95 13 4
      vertex 37.95 13 0
    endloop
  endfacet
  facet normal -0.992122 0.125279 0
    outer loop
      vertex 37.95 13 4
      vertex 37.9029 12.627 0
      vertex 37.9029 12.627 4
    endloop
  endfacet
  facet normal -0.992122 -0.125279 0
    outer loop
      vertex 37.95 13 0
      vertex 37.9029 13.373 4
      vertex 37.9029 13.373 0
    endloop
  endfacet
  facet normal -0.992122 -0.125279 0
    outer loop
      vertex 37.9029 13.373 4
      vertex 37.95 13 0
      vertex 37.95 13 4
    endloop
  endfacet
  facet normal -0.929791 -0.368087 0
    outer loop
      vertex 37.9029 13.373 0
      vertex 37.7645 13.7226 4
      vertex 37.7645 13.7226 0
    endloop
  endfacet
  facet normal -0.929791 -0.368087 0
    outer loop
      vertex 37.7645 13.7226 4
      vertex 37.9029 13.373 0
      vertex 37.9029 13.373 4
    endloop
  endfacet
  facet normal -0.808909 -0.587935 0
    outer loop
      vertex 37.7645 13.7226 0
      vertex 37.5434 14.0268 4
      vertex 37.5434 14.0268 0
    endloop
  endfacet
  facet normal -0.808909 -0.587935 0
    outer loop
      vertex 37.5434 14.0268 4
      vertex 37.7645 13.7226 0
      vertex 37.7645 13.7226 4
    endloop
  endfacet
  facet normal -0.637486 -0.770462 0
    outer loop
      vertex 37.2537 14.2665 0
      vertex 37.5434 14.0268 4
      vertex 37.2537 14.2665 4
    endloop
  endfacet
  facet normal -0.637486 -0.770462 -0
    outer loop
      vertex 37.5434 14.0268 4
      vertex 37.2537 14.2665 0
      vertex 37.5434 14.0268 0
    endloop
  endfacet
  facet normal -0.42581 -0.904813 0
    outer loop
      vertex 36.9135 14.4266 0
      vertex 37.2537 14.2665 4
      vertex 36.9135 14.4266 4
    endloop
  endfacet
  facet normal -0.42581 -0.904813 -0
    outer loop
      vertex 37.2537 14.2665 4
      vertex 36.9135 14.4266 0
      vertex 37.2537 14.2665 0
    endloop
  endfacet
  facet normal -0.187259 -0.982311 0
    outer loop
      vertex 36.5442 14.497 0
      vertex 36.9135 14.4266 4
      vertex 36.5442 14.497 4
    endloop
  endfacet
  facet normal -0.187259 -0.982311 -0
    outer loop
      vertex 36.9135 14.4266 4
      vertex 36.5442 14.497 0
      vertex 36.9135 14.4266 0
    endloop
  endfacet
  facet normal 0.0625102 -0.998044 0
    outer loop
      vertex 36.45 14.4911 0
      vertex 36.5442 14.497 4
      vertex 36.45 14.4911 4
    endloop
  endfacet
  facet normal 0.0625102 -0.998044 0
    outer loop
      vertex 36.5442 14.497 4
      vertex 36.45 14.4911 0
      vertex 36.5442 14.497 0
    endloop
  endfacet
  facet normal -1 0 0
    outer loop
      vertex 36.45 14.4911 0
      vertex 36.45 14.5 4
      vertex 36.45 14.5 0
    endloop
  endfacet
  facet normal -1 -0 0
    outer loop
      vertex 36.45 14.5 4
      vertex 36.45 14.4911 0
      vertex 36.45 14.4911 4
    endloop
  endfacet
  facet normal 0 -1 0
    outer loop
      vertex 33.45 14.5 0
      vertex 36.45 14.5 4
      vertex 33.45 14.5 4
    endloop
  endfacet
  facet normal 0 -1 -0
    outer loop
      vertex 36.45 14.5 4
      vertex 33.45 14.5 0
      vertex 36.45 14.5 0
    endloop
  endfacet
  facet normal 1 -0 0
    outer loop
      vertex 33.45 14.4911 4
      vertex 33.45 14.5 0
      vertex 33.45 14.5 4
    endloop
  endfacet
  facet normal 1 0 0
    outer loop
      vertex 33.45 14.5 0
      vertex 33.45 14.4911 4
      vertex 33.45 14.4911 0
    endloop
  endfacet
  facet normal 0.0628425 -0.998023 0
    outer loop
      vertex 33.1689 14.4734 0
      vertex 33.45 14.4911 4
      vertex 33.1689 14.4734 4
    endloop
  endfacet
  facet normal 0.0628425 -0.998023 0
    outer loop
      vertex 33.45 14.4911 4
      vertex 33.1689 14.4734 0
      vertex 33.45 14.4911 0
    endloop
  endfacet
  facet normal 0.309038 -0.95105 0
    outer loop
      vertex 32.8113 14.3572 0
      vertex 33.1689 14.4734 4
      vertex 32.8113 14.3572 4
    endloop
  endfacet
  facet normal 0.309038 -0.95105 0
    outer loop
      vertex 33.1689 14.4734 4
      vertex 32.8113 14.3572 0
      vertex 33.1689 14.4734 0
    endloop
  endfacet
  facet normal 0.535773 -0.844362 0
    outer loop
      vertex 32.4939 14.1558 0
      vertex 32.8113 14.3572 4
      vertex 32.4939 14.1558 4
    endloop
  endfacet
  facet normal 0.535773 -0.844362 0
    outer loop
      vertex 32.8113 14.3572 4
      vertex 32.4939 14.1558 0
      vertex 32.8113 14.3572 0
    endloop
  endfacet
  facet normal 0.728965 -0.684551 0
    outer loop
      vertex 32.2365 13.8817 4
      vertex 32.4939 14.1558 0
      vertex 32.4939 14.1558 4
    endloop
  endfacet
  facet normal 0.728965 -0.684551 0
    outer loop
      vertex 32.4939 14.1558 0
      vertex 32.2365 13.8817 4
      vertex 32.2365 13.8817 0
    endloop
  endfacet
  facet normal 0.876244 -0.481868 0
    outer loop
      vertex 32.0553 13.5522 4
      vertex 32.2365 13.8817 0
      vertex 32.2365 13.8817 4
    endloop
  endfacet
  facet normal 0.876244 -0.481868 0
    outer loop
      vertex 32.2365 13.8817 0
      vertex 32.0553 13.5522 4
      vertex 32.0553 13.5522 0
    endloop
  endfacet
  facet normal 0.96859 -0.248663 0
    outer loop
      vertex 31.9618 13.188 4
      vertex 32.0553 13.5522 0
      vertex 32.0553 13.5522 4
    endloop
  endfacet
  facet normal 0.96859 -0.248663 0
    outer loop
      vertex 32.0553 13.5522 0
      vertex 31.9618 13.188 4
      vertex 31.9618 13.188 0
    endloop
  endfacet
  facet normal 1 -0 0
    outer loop
      vertex 31.9618 12.812 4
      vertex 31.9618 13.188 0
      vertex 31.9618 13.188 4
    endloop
  endfacet
  facet normal 1 0 0
    outer loop
      vertex 31.9618 13.188 0
      vertex 31.9618 12.812 4
      vertex 31.9618 12.812 0
    endloop
  endfacet
  facet normal 0.96859 0.248663 0
    outer loop
      vertex 32.0553 12.4478 4
      vertex 31.9618 12.812 0
      vertex 31.9618 12.812 4
    endloop
  endfacet
  facet normal 0.96859 0.248663 0
    outer loop
      vertex 31.9618 12.812 0
      vertex 32.0553 12.4478 4
      vertex 32.0553 12.4478 0
    endloop
  endfacet
  facet normal 0.876244 0.481868 0
    outer loop
      vertex 32.2365 12.1183 4
      vertex 32.0553 12.4478 0
      vertex 32.0553 12.4478 4
    endloop
  endfacet
  facet normal 0.876244 0.481868 0
    outer loop
      vertex 32.0553 12.4478 0
      vertex 32.2365 12.1183 4
      vertex 32.2365 12.1183 0
    endloop
  endfacet
  facet normal 0.728965 0.684551 0
    outer loop
      vertex 32.4939 11.8442 4
      vertex 32.2365 12.1183 0
      vertex 32.2365 12.1183 4
    endloop
  endfacet
  facet normal 0.728965 0.684551 0
    outer loop
      vertex 32.2365 12.1183 0
      vertex 32.4939 11.8442 4
      vertex 32.4939 11.8442 0
    endloop
  endfacet
  facet normal 0.535773 0.844362 -0
    outer loop
      vertex 32.8113 11.6428 0
      vertex 32.4939 11.8442 4
      vertex 32.8113 11.6428 4
    endloop
  endfacet
  facet normal 0.535773 0.844362 0
    outer loop
      vertex 32.4939 11.8442 4
      vertex 32.8113 11.6428 0
      vertex 32.4939 11.8442 0
    endloop
  endfacet
  facet normal 0.309038 0.95105 -0
    outer loop
      vertex 33.1689 11.5266 0
      vertex 32.8113 11.6428 4
      vertex 33.1689 11.5266 4
    endloop
  endfacet
  facet normal 0.309038 0.95105 0
    outer loop
      vertex 32.8113 11.6428 4
      vertex 33.1689 11.5266 0
      vertex 32.8113 11.6428 0
    endloop
  endfacet
  facet normal 0.0628425 0.998023 -0
    outer loop
      vertex 33.45 11.5089 0
      vertex 33.1689 11.5266 4
      vertex 33.45 11.5089 4
    endloop
  endfacet
  facet normal 0.0628425 0.998023 0
    outer loop
      vertex 33.1689 11.5266 4
      vertex 33.45 11.5089 0
      vertex 33.1689 11.5266 0
    endloop
  endfacet
  facet normal 1 -0 0
    outer loop
      vertex 33.45 11.5 4
      vertex 33.45 11.5089 0
      vertex 33.45 11.5089 4
    endloop
  endfacet
  facet normal 1 0 0
    outer loop
      vertex 33.45 11.5089 0
      vertex 33.45 11.5 4
      vertex 33.45 11.5 0
    endloop
  endfacet
  facet normal 0 1 -0
    outer loop
      vertex 36.45 11.5 0
      vertex 33.45 11.5 4
      vertex 36.45 11.5 4
    endloop
  endfacet
  facet normal 0 1 0
    outer loop
      vertex 33.45 11.5 4
      vertex 36.45 11.5 0
      vertex 33.45 11.5 0
    endloop
  endfacet
  facet normal -1 0 0
    outer loop
      vertex 36.45 11.5 0
      vertex 36.45 11.5089 4
      vertex 36.45 11.5089 0
    endloop
  endfacet
  facet normal -1 -0 0
    outer loop
      vertex 36.45 11.5089 4
      vertex 36.45 11.5 0
      vertex 36.45 11.5 4
    endloop
  endfacet
endsolid OpenSCAD_Model
