<?xml version="1.0" standalone="no"?>
<!DOCTYPE svg PUBLIC "-//W3C//DTD SVG 1.1//EN" "http://www.w3.org/Graphics/SVG/1.1/DTD/svg11.dtd">
<svg width="73mm" height="43mm" viewBox="1 -44 73 43" xmlns="http://www.w3.org/2000/svg" version="1.1">
<title>OpenSCAD Model</title>
<path d="
M 69.1576,-1.53778 L 69.7991,-1.66537 L 70.4184,-1.87561 L 71.005,-2.16489 L 71.5488,-2.52824 L 72.0405,-2.95947
 L 72.4718,-3.4512 L 72.8351,-3.99501 L 73.1244,-4.58159 L 73.3346,-5.20091 L 73.4622,-5.84238 L 73.505,-6.49501
 L 73.505,-38.505 L 73.4622,-39.1576 L 73.3346,-39.7991 L 73.1244,-40.4184 L 72.8351,-41.005 L 72.4718,-41.5488
 L 72.0405,-42.0405 L 71.5488,-42.4718 L 71.005,-42.8351 L 70.4184,-43.1244 L 69.7991,-43.3346 L 69.1576,-43.4622
 L 68.505,-43.505 L 6.49501,-43.505 L 5.84238,-43.4622 L 5.20091,-43.3346 L 4.58159,-43.1244 L 3.99501,-42.8351
 L 3.4512,-42.4718 L 2.95947,-42.0405 L 2.52824,-41.5488 L 2.16489,-41.005 L 1.87561,-40.4184 L 1.66537,-39.7991
 L 1.53778,-39.1576 L 1.49501,-38.505 L 1.49501,-6.49501 L 1.53778,-5.84238 L 1.66537,-5.20091 L 1.87561,-4.58159
 L 2.16489,-3.99501 L 2.52824,-3.4512 L 2.95947,-2.95947 L 3.4512,-2.52824 L 3.99501,-2.16489 L 4.58159,-1.87561
 L 5.20091,-1.66537 L 5.84238,-1.53778 L 6.49501,-1.49501 L 68.505,-1.49501 z
M 64.7284,-36.3519 L 64.6022,-36.7235 L 64.5257,-37.1084 L 64.5,-37.5 L 64.5257,-37.8916 L 64.6022,-38.2765
 L 64.7284,-38.648 L 64.9019,-39 L 65.1199,-39.3263 L 65.3787,-39.6213 L 65.6737,-39.8801 L 66,-40.0981
 L 66.3519,-40.2716 L 66.7235,-40.3978 L 67.1084,-40.4743 L 67.5,-40.5 L 67.8916,-40.4743 L 68.2765,-40.3978
 L 68.648,-40.2716 L 69,-40.0981 L 69.3263,-39.8801 L 69.6213,-39.6213 L 69.8801,-39.3263 L 70.0981,-39
 L 70.2716,-38.648 L 70.3978,-38.2765 L 70.4743,-37.8916 L 70.5,-37.5 L 70.4743,-37.1084 L 70.3978,-36.7235
 L 70.2716,-36.3519 L 70.0981,-36 L 69.8801,-35.6737 L 69.6213,-35.3787 L 69.3263,-35.1199 L 69,-34.9019
 L 68.648,-34.7284 L 68.2765,-34.6022 L 67.8916,-34.5257 L 67.5,-34.5 L 67.1084,-34.5257 L 66.7235,-34.6022
 L 66.3519,-34.7284 L 66,-34.9019 L 65.6737,-35.1199 L 65.3787,-35.3787 L 65.1199,-35.6737 L 64.9019,-36
 z
M 7.10841,-34.5257 L 6.72354,-34.6022 L 6.35194,-34.7284 L 6,-34.9019 L 5.67371,-35.1199 L 5.37868,-35.3787
 L 5.11993,-35.6737 L 4.90192,-36 L 4.72835,-36.3519 L 4.60222,-36.7235 L 4.52567,-37.1084 L 4.5,-37.5
 L 4.52567,-37.8916 L 4.60222,-38.2765 L 4.72835,-38.648 L 4.90192,-39 L 5.11993,-39.3263 L 5.37868,-39.6213
 L 5.67371,-39.8801 L 6,-40.0981 L 6.35194,-40.2716 L 6.72354,-40.3978 L 7.10841,-40.4743 L 7.5,-40.5
 L 7.89157,-40.4743 L 8.27644,-40.3978 L 8.64804,-40.2716 L 9,-40.0981 L 9.32628,-39.8801 L 9.62131,-39.6213
 L 9.88005,-39.3263 L 10.0981,-39 L 10.2716,-38.648 L 10.3978,-38.2765 L 10.4743,-37.8916 L 10.5,-37.5
 L 10.4743,-37.1084 L 10.3978,-36.7235 L 10.2716,-36.3519 L 10.0981,-36 L 9.88005,-35.6737 L 9.62131,-35.3787
 L 9.32628,-35.1199 L 9,-34.9019 L 8.64804,-34.7284 L 8.27644,-34.6022 L 7.89157,-34.5257 L 7.5,-34.5
 z
M 34.9019,-36 L 34.7284,-36.3519 L 34.6022,-36.7235 L 34.5257,-37.1084 L 34.5,-37.5 L 34.5257,-37.8916
 L 34.6022,-38.2765 L 34.7284,-38.648 L 34.9019,-39 L 35.1199,-39.3263 L 35.3787,-39.6213 L 35.6737,-39.8801
 L 36,-40.0981 L 36.3519,-40.2716 L 36.7235,-40.3978 L 37.1084,-40.4743 L 37.5,-40.5 L 37.8916,-40.4743
 L 38.2765,-40.3978 L 38.648,-40.2716 L 39,-40.0981 L 39.3263,-39.8801 L 39.6213,-39.6213 L 39.8801,-39.3263
 L 40.0981,-39 L 40.2716,-38.648 L 40.3978,-38.2765 L 40.4743,-37.8916 L 40.5,-37.5 L 40.4743,-37.1084
 L 40.3978,-36.7235 L 40.2716,-36.3519 L 40.0981,-36 L 39.8801,-35.6737 L 39.6213,-35.3787 L 39.3263,-35.1199
 L 39,-34.9019 L 38.648,-34.7284 L 38.2765,-34.6022 L 37.8916,-34.5257 L 37.5,-34.5 L 37.1084,-34.5257
 L 36.7235,-34.6022 L 36.3519,-34.7284 L 36,-34.9019 L 35.6737,-35.1199 L 35.3787,-35.3787 L 35.1199,-35.6737
 z
M 49.9019,-21 L 49.7284,-21.3519 L 49.6022,-21.7235 L 49.5257,-22.1084 L 49.5,-22.5 L 49.5257,-22.8916
 L 49.6022,-23.2764 L 49.7284,-23.648 L 49.9019,-24 L 50.1199,-24.3263 L 50.3787,-24.6213 L 50.6737,-24.8801
 L 51,-25.0981 L 51.3519,-25.2716 L 51.7235,-25.3978 L 52.1084,-25.4743 L 52.5,-25.5 L 52.8916,-25.4743
 L 53.2765,-25.3978 L 53.648,-25.2716 L 54,-25.0981 L 54.3263,-24.8801 L 54.6213,-24.6213 L 54.8801,-24.3263
 L 55.0981,-24 L 55.2716,-23.648 L 55.3978,-23.2764 L 55.4743,-22.8916 L 55.5,-22.5 L 55.4743,-22.1084
 L 55.3978,-21.7235 L 55.2716,-21.3519 L 55.0981,-21 L 54.8801,-20.6737 L 54.6213,-20.3787 L 54.3263,-20.1199
 L 54,-19.9019 L 53.648,-19.7283 L 53.2765,-19.6022 L 52.8916,-19.5257 L 52.5,-19.5 L 52.1084,-19.5257
 L 51.7235,-19.6022 L 51.3519,-19.7283 L 51,-19.9019 L 50.6737,-20.1199 L 50.3787,-20.3787 L 50.1199,-20.6737
 z
M 7.10841,-19.5257 L 6.72354,-19.6022 L 6.35194,-19.7283 L 6,-19.9019 L 5.67371,-20.1199 L 5.37868,-20.3787
 L 5.11993,-20.6737 L 4.90192,-21 L 4.72835,-21.3519 L 4.60222,-21.7235 L 4.52567,-22.1084 L 4.5,-22.5
 L 4.52567,-22.8916 L 4.60222,-23.2764 L 4.72835,-23.648 L 4.90192,-24 L 5.11993,-24.3263 L 5.37868,-24.6213
 L 5.67371,-24.8801 L 6,-25.0981 L 6.35194,-25.2716 L 6.72354,-25.3978 L 7.10841,-25.4743 L 7.5,-25.5
 L 7.89157,-25.4743 L 8.27644,-25.3978 L 8.64804,-25.2716 L 9,-25.0981 L 9.32628,-24.8801 L 9.62131,-24.6213
 L 9.88005,-24.3263 L 10.0981,-24 L 10.2716,-23.648 L 10.3978,-23.2764 L 10.4743,-22.8916 L 10.5,-22.5
 L 10.4743,-22.1084 L 10.3978,-21.7235 L 10.2716,-21.3519 L 10.0981,-21 L 9.88005,-20.6737 L 9.62131,-20.3787
 L 9.32628,-20.1199 L 9,-19.9019 L 8.64804,-19.7283 L 8.27644,-19.6022 L 7.89157,-19.5257 L 7.5,-19.5
 z
M 22.1084,-19.5257 L 21.7235,-19.6022 L 21.3519,-19.7283 L 21,-19.9019 L 20.6737,-20.1199 L 20.3787,-20.3787
 L 20.1199,-20.6737 L 19.9019,-21 L 19.7283,-21.3519 L 19.6022,-21.7235 L 19.5257,-22.1084 L 19.5,-22.5
 L 19.5257,-22.8916 L 19.6022,-23.2764 L 19.7283,-23.648 L 19.9019,-24 L 20.1199,-24.3263 L 20.3787,-24.6213
 L 20.6737,-24.8801 L 21,-25.0981 L 21.3519,-25.2716 L 21.7235,-25.3978 L 22.1084,-25.4743 L 22.5,-25.5
 L 22.8916,-25.4743 L 23.2764,-25.3978 L 23.648,-25.2716 L 24,-25.0981 L 24.3263,-24.8801 L 24.6213,-24.6213
 L 24.8801,-24.3263 L 25.0981,-24 L 25.2716,-23.648 L 25.3978,-23.2764 L 25.4743,-22.8916 L 25.5,-22.5
 L 25.4743,-22.1084 L 25.3978,-21.7235 L 25.2716,-21.3519 L 25.0981,-21 L 24.8801,-20.6737 L 24.6213,-20.3787
 L 24.3263,-20.1199 L 24,-19.9019 L 23.648,-19.7283 L 23.2764,-19.6022 L 22.8916,-19.5257 L 22.5,-19.5
 z
M 67.1084,-19.5257 L 66.7235,-19.6022 L 66.3519,-19.7283 L 66,-19.9019 L 65.6737,-20.1199 L 65.3787,-20.3787
 L 65.1199,-20.6737 L 64.9019,-21 L 64.7284,-21.3519 L 64.6022,-21.7235 L 64.5257,-22.1084 L 64.5,-22.5
 L 64.5257,-22.8916 L 64.6022,-23.2764 L 64.7284,-23.648 L 64.9019,-24 L 65.1199,-24.3263 L 65.3787,-24.6213
 L 65.6737,-24.8801 L 66,-25.0981 L 66.3519,-25.2716 L 66.7235,-25.3978 L 67.1084,-25.4743 L 67.5,-25.5
 L 67.8916,-25.4743 L 68.2765,-25.3978 L 68.648,-25.2716 L 69,-25.0981 L 69.3263,-24.8801 L 69.6213,-24.6213
 L 69.8801,-24.3263 L 70.0981,-24 L 70.2716,-23.648 L 70.3978,-23.2764 L 70.4743,-22.8916 L 70.5,-22.5
 L 70.4743,-22.1084 L 70.3978,-21.7235 L 70.2716,-21.3519 L 70.0981,-21 L 69.8801,-20.6737 L 69.6213,-20.3787
 L 69.3263,-20.1199 L 69,-19.9019 L 68.648,-19.7283 L 68.2765,-19.6022 L 67.8916,-19.5257 L 67.5,-19.5
 z
M 7.10841,-4.52567 L 6.72354,-4.60222 L 6.35194,-4.72835 L 6,-4.90192 L 5.67371,-5.11993 L 5.37868,-5.37868
 L 5.11993,-5.67371 L 4.90192,-6 L 4.72835,-6.35194 L 4.60222,-6.72354 L 4.52567,-7.10841 L 4.5,-7.5
 L 4.52567,-7.89157 L 4.60222,-8.27644 L 4.72835,-8.64804 L 4.90192,-9 L 5.11993,-9.32628 L 5.37868,-9.62131
 L 5.67371,-9.88005 L 6,-10.0981 L 6.35194,-10.2716 L 6.72354,-10.3978 L 7.10841,-10.4743 L 7.5,-10.5
 L 7.89157,-10.4743 L 8.27644,-10.3978 L 8.64804,-10.2716 L 9,-10.0981 L 9.32628,-9.88005 L 9.62131,-9.62131
 L 9.88005,-9.32628 L 10.0981,-9 L 10.2716,-8.64804 L 10.3978,-8.27644 L 10.4743,-7.89157 L 10.5,-7.5
 L 10.4743,-7.10841 L 10.3978,-6.72354 L 10.2716,-6.35194 L 10.0981,-6 L 9.88005,-5.67371 L 9.62131,-5.37868
 L 9.32628,-5.11993 L 9,-4.90192 L 8.64804,-4.72835 L 8.27644,-4.60222 L 7.89157,-4.52567 L 7.5,-4.5
 z
M 22.1084,-4.52567 L 21.7235,-4.60222 L 21.3519,-4.72835 L 21,-4.90192 L 20.6737,-5.11993 L 20.3787,-5.37868
 L 20.1199,-5.67371 L 19.9019,-6 L 19.7283,-6.35194 L 19.6022,-6.72354 L 19.5257,-7.10841 L 19.5,-7.5
 L 19.5257,-7.89157 L 19.6022,-8.27644 L 19.7283,-8.64804 L 19.9019,-9 L 20.1199,-9.32628 L 20.3787,-9.62131
 L 20.6737,-9.88005 L 21,-10.0981 L 21.3519,-10.2716 L 21.7235,-10.3978 L 22.1084,-10.4743 L 22.5,-10.5
 L 22.8916,-10.4743 L 23.2764,-10.3978 L 23.648,-10.2716 L 24,-10.0981 L 24.3263,-9.88005 L 24.6213,-9.62131
 L 24.8801,-9.32628 L 25.0981,-9 L 25.2716,-8.64804 L 25.3978,-8.27644 L 25.4743,-7.89157 L 25.5,-7.5
 L 25.4743,-7.10841 L 25.3978,-6.72354 L 25.2716,-6.35194 L 25.0981,-6 L 24.8801,-5.67371 L 24.6213,-5.37868
 L 24.3263,-5.11993 L 24,-4.90192 L 23.648,-4.72835 L 23.2764,-4.60222 L 22.8916,-4.52567 L 22.5,-4.5
 z
M 52.1084,-4.52567 L 51.7235,-4.60222 L 51.3519,-4.72835 L 51,-4.90192 L 50.6737,-5.11993 L 50.3787,-5.37868
 L 50.1199,-5.67371 L 49.9019,-6 L 49.7284,-6.35194 L 49.6022,-6.72354 L 49.5257,-7.10841 L 49.5,-7.5
 L 49.5257,-7.89157 L 49.6022,-8.27644 L 49.7284,-8.64804 L 49.9019,-9 L 50.1199,-9.32628 L 50.3787,-9.62131
 L 50.6737,-9.88005 L 51,-10.0981 L 51.3519,-10.2716 L 51.7235,-10.3978 L 52.1084,-10.4743 L 52.5,-10.5
 L 52.8916,-10.4743 L 53.2765,-10.3978 L 53.648,-10.2716 L 54,-10.0981 L 54.3263,-9.88005 L 54.6213,-9.62131
 L 54.8801,-9.32628 L 55.0981,-9 L 55.2716,-8.64804 L 55.3978,-8.27644 L 55.4743,-7.89157 L 55.5,-7.5
 L 55.4743,-7.10841 L 55.3978,-6.72354 L 55.2716,-6.35194 L 55.0981,-6 L 54.8801,-5.67371 L 54.6213,-5.37868
 L 54.3263,-5.11993 L 54,-4.90192 L 53.648,-4.72835 L 53.2765,-4.60222 L 52.8916,-4.52567 L 52.5,-4.5
 z
M 67.1084,-4.52567 L 66.7235,-4.60222 L 66.3519,-4.72835 L 66,-4.90192 L 65.6737,-5.11993 L 65.3787,-5.37868
 L 65.1199,-5.67371 L 64.9019,-6 L 64.7284,-6.35194 L 64.6022,-6.72354 L 64.5257,-7.10841 L 64.5,-7.5
 L 64.5257,-7.89157 L 64.6022,-8.27644 L 64.7284,-8.64804 L 64.9019,-9 L 65.1199,-9.32628 L 65.3787,-9.62131
 L 65.6737,-9.88005 L 66,-10.0981 L 66.3519,-10.2716 L 66.7235,-10.3978 L 67.1084,-10.4743 L 67.5,-10.5
 L 67.8916,-10.4743 L 68.2765,-10.3978 L 68.648,-10.2716 L 69,-10.0981 L 69.3263,-9.88005 L 69.6213,-9.62131
 L 69.8801,-9.32628 L 70.0981,-9 L 70.2716,-8.64804 L 70.3978,-8.27644 L 70.4743,-7.89157 L 70.5,-7.5
 L 70.4743,-7.10841 L 70.3978,-6.72354 L 70.2716,-6.35194 L 70.0981,-6 L 69.8801,-5.67371 L 69.6213,-5.37868
 L 69.3263,-5.11993 L 69,-4.90192 L 68.648,-4.72835 L 68.2765,-4.60222 L 67.8916,-4.52567 L 67.5,-4.5
 z
M 37.1084,-4.52567 L 36.7235,-4.60222 L 36.3519,-4.72835 L 36,-4.90192 L 35.6737,-5.11993 L 35.3787,-5.37868
 L 35.1199,-5.67371 L 34.9019,-6 L 34.7284,-6.35194 L 34.6022,-6.72354 L 34.5257,-7.10841 L 34.5,-7.5
 L 34.5257,-7.89157 L 34.6022,-8.27644 L 34.7284,-8.64804 L 34.9019,-9 L 35.1199,-9.32628 L 35.3787,-9.62131
 L 35.6737,-9.88005 L 36,-10.0981 L 36.3519,-10.2716 L 36.7235,-10.3978 L 37.1084,-10.4743 L 37.5,-10.5
 L 37.8916,-10.4743 L 38.2765,-10.3978 L 38.648,-10.2716 L 39,-10.0981 L 39.3263,-9.88005 L 39.6213,-9.62131
 L 39.8801,-9.32628 L 40.0981,-9 L 40.2716,-8.64804 L 40.3978,-8.27644 L 40.4743,-7.89157 L 40.5,-7.5
 L 40.4743,-7.10841 L 40.3978,-6.72354 L 40.2716,-6.35194 L 40.0981,-6 L 39.8801,-5.67371 L 39.6213,-5.37868
 L 39.3263,-5.11993 L 39,-4.90192 L 38.648,-4.72835 L 38.2765,-4.60222 L 37.8916,-4.52567 L 37.5,-4.5
 z
M 54.3263,-35.1199 L 54,-34.9019 L 53.648,-34.7284 L 53.2765,-34.6022 L 52.8916,-34.5257 L 52.5,-34.5
 L 52.1084,-34.5257 L 51.7235,-34.6022 L 51.3519,-34.7284 L 51,-34.9019 L 50.6737,-35.1199 L 50.3787,-35.3787
 L 50.1199,-35.6737 L 49.9019,-36 L 49.7284,-36.3519 L 49.6022,-36.7235 L 49.5257,-37.1084 L 49.5,-37.5
 L 49.5257,-37.8916 L 49.6022,-38.2765 L 49.7284,-38.648 L 49.9019,-39 L 50.1199,-39.3263 L 50.3787,-39.6213
 L 50.6737,-39.8801 L 51,-40.0981 L 51.3519,-40.2716 L 51.7235,-40.3978 L 52.1084,-40.4743 L 52.5,-40.5
 L 52.8916,-40.4743 L 53.2765,-40.3978 L 53.648,-40.2716 L 54,-40.0981 L 54.3263,-39.8801 L 54.6213,-39.6213
 L 54.8801,-39.3263 L 55.0981,-39 L 55.2716,-38.648 L 55.3978,-38.2765 L 55.4743,-37.8916 L 55.5,-37.5
 L 55.4743,-37.1084 L 55.3978,-36.7235 L 55.2716,-36.3519 L 55.0981,-36 L 54.8801,-35.6737 L 54.6213,-35.3787
 z
M 24,-34.9019 L 23.648,-34.7284 L 23.2764,-34.6022 L 22.8916,-34.5257 L 22.5,-34.5 L 22.1084,-34.5257
 L 21.7235,-34.6022 L 21.3519,-34.7284 L 21,-34.9019 L 20.6737,-35.1199 L 20.3787,-35.3787 L 20.1199,-35.6737
 L 19.9019,-36 L 19.7283,-36.3519 L 19.6022,-36.7235 L 19.5257,-37.1084 L 19.5,-37.5 L 19.5257,-37.8916
 L 19.6022,-38.2765 L 19.7283,-38.648 L 19.9019,-39 L 20.1199,-39.3263 L 20.3787,-39.6213 L 20.6737,-39.8801
 L 21,-40.0981 L 21.3519,-40.2716 L 21.7235,-40.3978 L 22.1084,-40.4743 L 22.5,-40.5 L 22.8916,-40.4743
 L 23.2764,-40.3978 L 23.648,-40.2716 L 24,-40.0981 L 24.3263,-39.8801 L 24.6213,-39.6213 L 24.8801,-39.3263
 L 25.0981,-39 L 25.2716,-38.648 L 25.3978,-38.2765 L 25.4743,-37.8916 L 25.5,-37.5 L 25.4743,-37.1084
 L 25.3978,-36.7235 L 25.2716,-36.3519 L 25.0981,-36 L 24.8801,-35.6737 L 24.6213,-35.3787 L 24.3263,-35.1199
 z
M 39,-19.9019 L 38.648,-19.7283 L 38.2765,-19.6022 L 37.8916,-19.5257 L 37.5,-19.5 L 37.1084,-19.5257
 L 36.7235,-19.6022 L 36.3519,-19.7283 L 36,-19.9019 L 35.6737,-20.1199 L 35.3787,-20.3787 L 35.1199,-20.6737
 L 34.9019,-21 L 34.7284,-21.3519 L 34.6022,-21.7235 L 34.5257,-22.1084 L 34.5,-22.5 L 34.5257,-22.8916
 L 34.6022,-23.2764 L 34.7284,-23.648 L 34.9019,-24 L 35.1199,-24.3263 L 35.3787,-24.6213 L 35.6737,-24.8801
 L 36,-25.0981 L 36.3519,-25.2716 L 36.7235,-25.3978 L 37.1084,-25.4743 L 37.5,-25.5 L 37.8916,-25.4743
 L 38.2765,-25.3978 L 38.648,-25.2716 L 39,-25.0981 L 39.3263,-24.8801 L 39.6213,-24.6213 L 39.8801,-24.3263
 L 40.0981,-24 L 40.2716,-23.648 L 40.3978,-23.2764 L 40.4743,-22.8916 L 40.5,-22.5 L 40.4743,-22.1084
 L 40.3978,-21.7235 L 40.2716,-21.3519 L 40.0981,-21 L 39.8801,-20.6737 L 39.6213,-20.3787 L 39.3263,-20.1199
 z
" stroke="black" fill="lightgray" stroke-width="0.5"/>
</svg>
