<?xml version="1.0" standalone="no"?>
<!DOCTYPE svg PUBLIC "-//W3C//DTD SVG 1.1//EN" "http://www.w3.org/Graphics/SVG/1.1/DTD/svg11.dtd">
<svg width="74mm" height="44mm" viewBox="-37 -22 74 44" xmlns="http://www.w3.org/2000/svg" version="1.1">
<title>OpenSCAD Model</title>
<path d="
M 31.6576,20.9622 L 32.2991,20.8346 L 32.9184,20.6244 L 33.505,20.3351 L 34.0488,19.9718 L 34.5405,19.5405
 L 34.9718,19.0488 L 35.3351,18.505 L 35.6244,17.9184 L 35.8346,17.2991 L 35.9622,16.6576 L 36.005,16.005
 L 36.005,-16.005 L 35.9622,-16.6576 L 35.8346,-17.2991 L 35.6244,-17.9184 L 35.3351,-18.505 L 34.9718,-19.0488
 L 34.5405,-19.5405 L 34.0488,-19.9718 L 33.505,-20.3351 L 32.9184,-20.6244 L 32.2991,-20.8346 L 31.6576,-20.9622
 L 31.005,-21.005 L -31.005,-21.005 L -31.6576,-20.9622 L -32.2991,-20.8346 L -32.9184,-20.6244 L -33.505,-20.3351
 L -34.0488,-19.9718 L -34.5405,-19.5405 L -34.9718,-19.0488 L -35.3351,-18.505 L -35.6244,-17.9184 L -35.8346,-17.2991
 L -35.9622,-16.6576 L -36.005,-16.005 L -36.005,16.005 L -35.9622,16.6576 L -35.8346,17.2991 L -35.6244,17.9184
 L -35.3351,18.505 L -34.9718,19.0488 L -34.5405,19.5405 L -34.0488,19.9718 L -33.505,20.3351 L -32.9184,20.6244
 L -32.2991,20.8346 L -31.6576,20.9622 L -31.005,21.005 L 31.005,21.005 z
M 27.2283,-13.8519 L 27.1022,-14.2235 L 27.0257,-14.6084 L 27,-15 L 27.0257,-15.3916 L 27.1022,-15.7764
 L 27.2283,-16.148 L 27.4019,-16.5 L 27.6199,-16.8263 L 27.8787,-17.1213 L 28.1737,-17.3801 L 28.5,-17.5981
 L 28.8519,-17.7716 L 29.2235,-17.8978 L 29.6084,-17.9743 L 30,-18 L 30.3916,-17.9743 L 30.7764,-17.8978
 L 31.148,-17.7716 L 31.5,-17.5981 L 31.8263,-17.3801 L 32.1213,-17.1213 L 32.3801,-16.8263 L 32.5981,-16.5
 L 32.7716,-16.148 L 32.8978,-15.7764 L 32.9743,-15.3916 L 33,-15 L 32.9743,-14.6084 L 32.8978,-14.2235
 L 32.7716,-13.8519 L 32.5981,-13.5 L 32.3801,-13.1737 L 32.1213,-12.8787 L 31.8263,-12.6199 L 31.5,-12.4019
 L 31.148,-12.2283 L 30.7764,-12.1022 L 30.3916,-12.0257 L 30,-12 L 29.6084,-12.0257 L 29.2235,-12.1022
 L 28.8519,-12.2283 L 28.5,-12.4019 L 28.1737,-12.6199 L 27.8787,-12.8787 L 27.6199,-13.1737 L 27.4019,-13.5
 z
M -30.3916,-12.0257 L -30.7764,-12.1022 L -31.148,-12.2283 L -31.5,-12.4019 L -31.8263,-12.6199 L -32.1213,-12.8787
 L -32.3801,-13.1737 L -32.5981,-13.5 L -32.7716,-13.8519 L -32.8978,-14.2235 L -32.9743,-14.6084 L -33,-15
 L -32.9743,-15.3916 L -32.8978,-15.7764 L -32.7716,-16.148 L -32.5981,-16.5 L -32.3801,-16.8263 L -32.1213,-17.1213
 L -31.8263,-17.3801 L -31.5,-17.5981 L -31.148,-17.7716 L -30.7764,-17.8978 L -30.3916,-17.9743 L -30,-18
 L -29.6084,-17.9743 L -29.2235,-17.8978 L -28.8519,-17.7716 L -28.5,-17.5981 L -28.1737,-17.3801 L -27.8787,-17.1213
 L -27.6199,-16.8263 L -27.4019,-16.5 L -27.2283,-16.148 L -27.1022,-15.7764 L -27.0257,-15.3916 L -27,-15
 L -27.0257,-14.6084 L -27.1022,-14.2235 L -27.2283,-13.8519 L -27.4019,-13.5 L -27.6199,-13.1737 L -27.8787,-12.8787
 L -28.1737,-12.6199 L -28.5,-12.4019 L -28.8519,-12.2283 L -29.2235,-12.1022 L -29.6084,-12.0257 L -30,-12
 z
M -2.59807,-13.5 L -2.77164,-13.8519 L -2.89777,-14.2235 L -2.97432,-14.6084 L -3,-15 L -2.97432,-15.3916
 L -2.89777,-15.7764 L -2.77164,-16.148 L -2.59807,-16.5 L -2.38005,-16.8263 L -2.12131,-17.1213 L -1.82628,-17.3801
 L -1.5,-17.5981 L -1.14804,-17.7716 L -0.776443,-17.8978 L -0.391571,-17.9743 L 0,-18 L 0.391571,-17.9743
 L 0.776443,-17.8978 L 1.14804,-17.7716 L 1.5,-17.5981 L 1.82628,-17.3801 L 2.12131,-17.1213 L 2.38005,-16.8263
 L 2.59807,-16.5 L 2.77164,-16.148 L 2.89777,-15.7764 L 2.97432,-15.3916 L 3,-15 L 2.97432,-14.6084
 L 2.89777,-14.2235 L 2.77164,-13.8519 L 2.59807,-13.5 L 2.38005,-13.1737 L 2.12131,-12.8787 L 1.82628,-12.6199
 L 1.5,-12.4019 L 1.14804,-12.2283 L 0.776443,-12.1022 L 0.391571,-12.0257 L 0,-12 L -0.391571,-12.0257
 L -0.776443,-12.1022 L -1.14804,-12.2283 L -1.5,-12.4019 L -1.82628,-12.6199 L -2.12131,-12.8787 L -2.38005,-13.1737
 z
M 12.4019,1.5 L 12.2283,1.14804 L 12.1022,0.776443 L 12.0257,0.391571 L 12,-0 L 12.0257,-0.391571
 L 12.1022,-0.776443 L 12.2283,-1.14804 L 12.4019,-1.5 L 12.6199,-1.82628 L 12.8787,-2.12131 L 13.1737,-2.38005
 L 13.5,-2.59807 L 13.8519,-2.77164 L 14.2235,-2.89777 L 14.6084,-2.97432 L 15,-3 L 15.3916,-2.97432
 L 15.7764,-2.89777 L 16.148,-2.77164 L 16.5,-2.59807 L 16.8263,-2.38005 L 17.1213,-2.12131 L 17.3801,-1.82628
 L 17.5981,-1.5 L 17.7716,-1.14804 L 17.8978,-0.776443 L 17.9743,-0.391571 L 18,-0 L 17.9743,0.391571
 L 17.8978,0.776443 L 17.7716,1.14804 L 17.5981,1.5 L 17.3801,1.82628 L 17.1213,2.12131 L 16.8263,2.38005
 L 16.5,2.59807 L 16.148,2.77164 L 15.7764,2.89777 L 15.3916,2.97432 L 15,3 L 14.6084,2.97432
 L 14.2235,2.89777 L 13.8519,2.77164 L 13.5,2.59807 L 13.1737,2.38005 L 12.8787,2.12131 L 12.6199,1.82628
 z
M -30.3916,2.97432 L -30.7764,2.89777 L -31.148,2.77164 L -31.5,2.59807 L -31.8263,2.38005 L -32.1213,2.12131
 L -32.3801,1.82628 L -32.5981,1.5 L -32.7716,1.14804 L -32.8978,0.776443 L -32.9743,0.391571 L -33,-0
 L -32.9743,-0.391571 L -32.8978,-0.776443 L -32.7716,-1.14804 L -32.5981,-1.5 L -32.3801,-1.82628 L -32.1213,-2.12131
 L -31.8263,-2.38005 L -31.5,-2.59807 L -31.148,-2.77164 L -30.7764,-2.89777 L -30.3916,-2.97432 L -30,-3
 L -29.6084,-2.97432 L -29.2235,-2.89777 L -28.8519,-2.77164 L -28.5,-2.59807 L -28.1737,-2.38005 L -27.8787,-2.12131
 L -27.6199,-1.82628 L -27.4019,-1.5 L -27.2283,-1.14804 L -27.1022,-0.776443 L -27.0257,-0.391571 L -27,-0
 L -27.0257,0.391571 L -27.1022,0.776443 L -27.2283,1.14804 L -27.4019,1.5 L -27.6199,1.82628 L -27.8787,2.12131
 L -28.1737,2.38005 L -28.5,2.59807 L -28.8519,2.77164 L -29.2235,2.89777 L -29.6084,2.97432 L -30,3
 z
M -15.3916,2.97432 L -15.7764,2.89777 L -16.148,2.77164 L -16.5,2.59807 L -16.8263,2.38005 L -17.1213,2.12131
 L -17.3801,1.82628 L -17.5981,1.5 L -17.7716,1.14804 L -17.8978,0.776443 L -17.9743,0.391571 L -18,-0
 L -17.9743,-0.391571 L -17.8978,-0.776443 L -17.7716,-1.14804 L -17.5981,-1.5 L -17.3801,-1.82628 L -17.1213,-2.12131
 L -16.8263,-2.38005 L -16.5,-2.59807 L -16.148,-2.77164 L -15.7764,-2.89777 L -15.3916,-2.97432 L -15,-3
 L -14.6084,-2.97432 L -14.2235,-2.89777 L -13.8519,-2.77164 L -13.5,-2.59807 L -13.1737,-2.38005 L -12.8787,-2.12131
 L -12.6199,-1.82628 L -12.4019,-1.5 L -12.2283,-1.14804 L -12.1022,-0.776443 L -12.0257,-0.391571 L -12,-0
 L -12.0257,0.391571 L -12.1022,0.776443 L -12.2283,1.14804 L -12.4019,1.5 L -12.6199,1.82628 L -12.8787,2.12131
 L -13.1737,2.38005 L -13.5,2.59807 L -13.8519,2.77164 L -14.2235,2.89777 L -14.6084,2.97432 L -15,3
 z
M 29.6084,2.97432 L 29.2235,2.89777 L 28.8519,2.77164 L 28.5,2.59807 L 28.1737,2.38005 L 27.8787,2.12131
 L 27.6199,1.82628 L 27.4019,1.5 L 27.2283,1.14804 L 27.1022,0.776443 L 27.0257,0.391571 L 27,-0
 L 27.0257,-0.391571 L 27.1022,-0.776443 L 27.2283,-1.14804 L 27.4019,-1.5 L 27.6199,-1.82628 L 27.8787,-2.12131
 L 28.1737,-2.38005 L 28.5,-2.59807 L 28.8519,-2.77164 L 29.2235,-2.89777 L 29.6084,-2.97432 L 30,-3
 L 30.3916,-2.97432 L 30.7764,-2.89777 L 31.148,-2.77164 L 31.5,-2.59807 L 31.8263,-2.38005 L 32.1213,-2.12131
 L 32.3801,-1.82628 L 32.5981,-1.5 L 32.7716,-1.14804 L 32.8978,-0.776443 L 32.9743,-0.391571 L 33,-0
 L 32.9743,0.391571 L 32.8978,0.776443 L 32.7716,1.14804 L 32.5981,1.5 L 32.3801,1.82628 L 32.1213,2.12131
 L 31.8263,2.38005 L 31.5,2.59807 L 31.148,2.77164 L 30.7764,2.89777 L 30.3916,2.97432 L 30,3
 z
M -30.3916,17.9743 L -30.7764,17.8978 L -31.148,17.7716 L -31.5,17.5981 L -31.8263,17.3801 L -32.1213,17.1213
 L -32.3801,16.8263 L -32.5981,16.5 L -32.7716,16.148 L -32.8978,15.7764 L -32.9743,15.3916 L -33,15
 L -32.9743,14.6084 L -32.8978,14.2235 L -32.7716,13.8519 L -32.5981,13.5 L -32.3801,13.1737 L -32.1213,12.8787
 L -31.8263,12.6199 L -31.5,12.4019 L -31.148,12.2283 L -30.7764,12.1022 L -30.3916,12.0257 L -30,12
 L -29.6084,12.0257 L -29.2235,12.1022 L -28.8519,12.2283 L -28.5,12.4019 L -28.1737,12.6199 L -27.8787,12.8787
 L -27.6199,13.1737 L -27.4019,13.5 L -27.2283,13.8519 L -27.1022,14.2235 L -27.0257,14.6084 L -27,15
 L -27.0257,15.3916 L -27.1022,15.7764 L -27.2283,16.148 L -27.4019,16.5 L -27.6199,16.8263 L -27.8787,17.1213
 L -28.1737,17.3801 L -28.5,17.5981 L -28.8519,17.7716 L -29.2235,17.8978 L -29.6084,17.9743 L -30,18
 z
M -15.3916,17.9743 L -15.7764,17.8978 L -16.148,17.7716 L -16.5,17.5981 L -16.8263,17.3801 L -17.1213,17.1213
 L -17.3801,16.8263 L -17.5981,16.5 L -17.7716,16.148 L -17.8978,15.7764 L -17.9743,15.3916 L -18,15
 L -17.9743,14.6084 L -17.8978,14.2235 L -17.7716,13.8519 L -17.5981,13.5 L -17.3801,13.1737 L -17.1213,12.8787
 L -16.8263,12.6199 L -16.5,12.4019 L -16.148,12.2283 L -15.7764,12.1022 L -15.3916,12.0257 L -15,12
 L -14.6084,12.0257 L -14.2235,12.1022 L -13.8519,12.2283 L -13.5,12.4019 L -13.1737,12.6199 L -12.8787,12.8787
 L -12.6199,13.1737 L -12.4019,13.5 L -12.2283,13.8519 L -12.1022,14.2235 L -12.0257,14.6084 L -12,15
 L -12.0257,15.3916 L -12.1022,15.7764 L -12.2283,16.148 L -12.4019,16.5 L -12.6199,16.8263 L -12.8787,17.1213
 L -13.1737,17.3801 L -13.5,17.5981 L -13.8519,17.7716 L -14.2235,17.8978 L -14.6084,17.9743 L -15,18
 z
M 14.6084,17.9743 L 14.2235,17.8978 L 13.8519,17.7716 L 13.5,17.5981 L 13.1737,17.3801 L 12.8787,17.1213
 L 12.6199,16.8263 L 12.4019,16.5 L 12.2283,16.148 L 12.1022,15.7764 L 12.0257,15.3916 L 12,15
 L 12.0257,14.6084 L 12.1022,14.2235 L 12.2283,13.8519 L 12.4019,13.5 L 12.6199,13.1737 L 12.8787,12.8787
 L 13.1737,12.6199 L 13.5,12.4019 L 13.8519,12.2283 L 14.2235,12.1022 L 14.6084,12.0257 L 15,12
 L 15.3916,12.0257 L 15.7764,12.1022 L 16.148,12.2283 L 16.5,12.4019 L 16.8263,12.6199 L 17.1213,12.8787
 L 17.3801,13.1737 L 17.5981,13.5 L 17.7716,13.8519 L 17.8978,14.2235 L 17.9743,14.6084 L 18,15
 L 17.9743,15.3916 L 17.8978,15.7764 L 17.7716,16.148 L 17.5981,16.5 L 17.3801,16.8263 L 17.1213,17.1213
 L 16.8263,17.3801 L 16.5,17.5981 L 16.148,17.7716 L 15.7764,17.8978 L 15.3916,17.9743 L 15,18
 z
M 29.6084,17.9743 L 29.2235,17.8978 L 28.8519,17.7716 L 28.5,17.5981 L 28.1737,17.3801 L 27.8787,17.1213
 L 27.6199,16.8263 L 27.4019,16.5 L 27.2283,16.148 L 27.1022,15.7764 L 27.0257,15.3916 L 27,15
 L 27.0257,14.6084 L 27.1022,14.2235 L 27.2283,13.8519 L 27.4019,13.5 L 27.6199,13.1737 L 27.8787,12.8787
 L 28.1737,12.6199 L 28.5,12.4019 L 28.8519,12.2283 L 29.2235,12.1022 L 29.6084,12.0257 L 30,12
 L 30.3916,12.0257 L 30.7764,12.1022 L 31.148,12.2283 L 31.5,12.4019 L 31.8263,12.6199 L 32.1213,12.8787
 L 32.3801,13.1737 L 32.5981,13.5 L 32.7716,13.8519 L 32.8978,14.2235 L 32.9743,14.6084 L 33,15
 L 32.9743,15.3916 L 32.8978,15.7764 L 32.7716,16.148 L 32.5981,16.5 L 32.3801,16.8263 L 32.1213,17.1213
 L 31.8263,17.3801 L 31.5,17.5981 L 31.148,17.7716 L 30.7764,17.8978 L 30.3916,17.9743 L 30,18
 z
M -0.391571,17.9743 L -0.776443,17.8978 L -1.14804,17.7716 L -1.5,17.5981 L -1.82628,17.3801 L -2.12131,17.1213
 L -2.38005,16.8263 L -2.59807,16.5 L -2.77164,16.148 L -2.89777,15.7764 L -2.97432,15.3916 L -3,15
 L -2.97432,14.6084 L -2.89777,14.2235 L -2.77164,13.8519 L -2.59807,13.5 L -2.38005,13.1737 L -2.12131,12.8787
 L -1.82628,12.6199 L -1.5,12.4019 L -1.14804,12.2283 L -0.776443,12.1022 L -0.391571,12.0257 L 0,12
 L 0.391571,12.0257 L 0.776443,12.1022 L 1.14804,12.2283 L 1.5,12.4019 L 1.82628,12.6199 L 2.12131,12.8787
 L 2.38005,13.1737 L 2.59807,13.5 L 2.77164,13.8519 L 2.89777,14.2235 L 2.97432,14.6084 L 3,15
 L 2.97432,15.3916 L 2.89777,15.7764 L 2.77164,16.148 L 2.59807,16.5 L 2.38005,16.8263 L 2.12131,17.1213
 L 1.82628,17.3801 L 1.5,17.5981 L 1.14804,17.7716 L 0.776443,17.8978 L 0.391571,17.9743 L 0,18
 z
M 16.8263,-12.6199 L 16.5,-12.4019 L 16.148,-12.2283 L 15.7764,-12.1022 L 15.3916,-12.0257 L 15,-12
 L 14.6084,-12.0257 L 14.2235,-12.1022 L 13.8519,-12.2283 L 13.5,-12.4019 L 13.1737,-12.6199 L 12.8787,-12.8787
 L 12.6199,-13.1737 L 12.4019,-13.5 L 12.2283,-13.8519 L 12.1022,-14.2235 L 12.0257,-14.6084 L 12,-15
 L 12.0257,-15.3916 L 12.1022,-15.7764 L 12.2283,-16.148 L 12.4019,-16.5 L 12.6199,-16.8263 L 12.8787,-17.1213
 L 13.1737,-17.3801 L 13.5,-17.5981 L 13.8519,-17.7716 L 14.2235,-17.8978 L 14.6084,-17.9743 L 15,-18
 L 15.3916,-17.9743 L 15.7764,-17.8978 L 16.148,-17.7716 L 16.5,-17.5981 L 16.8263,-17.3801 L 17.1213,-17.1213
 L 17.3801,-16.8263 L 17.5981,-16.5 L 17.7716,-16.148 L 17.8978,-15.7764 L 17.9743,-15.3916 L 18,-15
 L 17.9743,-14.6084 L 17.8978,-14.2235 L 17.7716,-13.8519 L 17.5981,-13.5 L 17.3801,-13.1737 L 17.1213,-12.8787
 z
M -13.5,-12.4019 L -13.8519,-12.2283 L -14.2235,-12.1022 L -14.6084,-12.0257 L -15,-12 L -15.3916,-12.0257
 L -15.7764,-12.1022 L -16.148,-12.2283 L -16.5,-12.4019 L -16.8263,-12.6199 L -17.1213,-12.8787 L -17.3801,-13.1737
 L -17.5981,-13.5 L -17.7716,-13.8519 L -17.8978,-14.2235 L -17.9743,-14.6084 L -18,-15 L -17.9743,-15.3916
 L -17.8978,-15.7764 L -17.7716,-16.148 L -17.5981,-16.5 L -17.3801,-16.8263 L -17.1213,-17.1213 L -16.8263,-17.3801
 L -16.5,-17.5981 L -16.148,-17.7716 L -15.7764,-17.8978 L -15.3916,-17.9743 L -15,-18 L -14.6084,-17.9743
 L -14.2235,-17.8978 L -13.8519,-17.7716 L -13.5,-17.5981 L -13.1737,-17.3801 L -12.8787,-17.1213 L -12.6199,-16.8263
 L -12.4019,-16.5 L -12.2283,-16.148 L -12.1022,-15.7764 L -12.0257,-15.3916 L -12,-15 L -12.0257,-14.6084
 L -12.1022,-14.2235 L -12.2283,-13.8519 L -12.4019,-13.5 L -12.6199,-13.1737 L -12.8787,-12.8787 L -13.1737,-12.6199
 z
M 1.5,2.59807 L 1.14804,2.77164 L 0.776443,2.89777 L 0.391571,2.97432 L 0,3 L -0.391571,2.97432
 L -0.776443,2.89777 L -1.14804,2.77164 L -1.5,2.59807 L -1.82628,2.38005 L -2.12131,2.12131 L -2.38005,1.82628
 L -2.59807,1.5 L -2.77164,1.14804 L -2.89777,0.776443 L -2.97432,0.391571 L -3,-0 L -2.97432,-0.391571
 L -2.89777,-0.776443 L -2.77164,-1.14804 L -2.59807,-1.5 L -2.38005,-1.82628 L -2.12131,-2.12131 L -1.82628,-2.38005
 L -1.5,-2.59807 L -1.14804,-2.77164 L -0.776443,-2.89777 L -0.391571,-2.97432 L 0,-3 L 0.391571,-2.97432
 L 0.776443,-2.89777 L 1.14804,-2.77164 L 1.5,-2.59807 L 1.82628,-2.38005 L 2.12131,-2.12131 L 2.38005,-1.82628
 L 2.59807,-1.5 L 2.77164,-1.14804 L 2.89777,-0.776443 L 2.97432,-0.391571 L 3,-0 L 2.97432,0.391571
 L 2.89777,0.776443 L 2.77164,1.14804 L 2.59807,1.5 L 2.38005,1.82628 L 2.12131,2.12131 L 1.82628,2.38005
 z
" stroke="black" fill="lightgray" stroke-width="0.5"/>
</svg>
