<?xml version="1.0" standalone="no"?>
<!DOCTYPE svg PUBLIC "-//W3C//DTD SVG 1.1//EN" "http://www.w3.org/Graphics/SVG/1.1/DTD/svg11.dtd">
<svg width="50mm" height="50mm" viewBox="-25 -25 50 50" xmlns="http://www.w3.org/2000/svg" version="1.1">
<title>OpenSCAD Model</title>
<path d="
M 1.13786,23.4474 L 1.32161,22.8422 L 1.42651,22.3616 L 1.47391,22.0134 L 1.48586,21.8029 L 1.48483,21.7327
 L 1.37132,20.0712 L 3.87134,19.7491 L 3.87157,19.7491 L 4.19058,21.3764 L 4.20778,21.4446 L 4.2738,21.6448
 L 4.40968,21.9688 L 4.63541,22.4059 L 4.96953,22.9429 L 5.42911,23.5645 L 7.08051,23.122 L 7.16771,22.3539
 L 7.18857,21.7218 L 7.1655,21.2304 L 7.12117,20.8818 L 7.07823,20.6754 L 7.05905,20.6078 L 6.51939,19.0324
 L 8.85088,18.0742 L 8.85107,18.0741 L 9.58041,19.5634 L 9.61467,19.6248 L 9.73026,19.8011 L 9.94539,20.0789
 L 10.2765,20.4427 L 10.7383,20.8749 L 11.3431,21.3564 L 12.8237,20.5016 L 12.7091,19.7371 L 12.5656,19.1211
 L 12.4162,18.6524 L 12.2831,18.3272 L 12.1882,18.1389 L 12.1522,18.0786 L 11.2232,16.6965 L 13.2272,15.1676
 L 13.2274,15.1674 L 14.3174,16.4172 L 14.3663,16.4676 L 14.5236,16.608 L 14.8033,16.8207 L 15.2173,17.0864
 L 15.7752,17.3844 L 16.484,17.6929 L 17.6929,16.484 L 17.3844,15.7752 L 17.0864,15.2173 L 16.8207,14.8033
 L 16.608,14.5236 L 16.4676,14.3663 L 16.4172,14.3174 L 15.1622,13.2228 L 16.7022,11.2273 L 16.7023,11.2271
 L 18.0786,12.1522 L 18.1389,12.1882 L 18.3272,12.2831 L 18.6524,12.4162 L 19.1211,12.5656 L 19.7371,12.7091
 L 20.5016,12.8237 L 21.3564,11.3431 L 20.8749,10.7383 L 20.4427,10.2765 L 20.0789,9.94539 L 19.8011,9.73026
 L 19.6248,9.61467 L 19.5634,9.58041 L 18.0678,8.84801 L 19.0389,6.52187 L 19.039,6.52165 L 20.6078,7.05905
 L 20.6754,7.07823 L 20.8818,7.12117 L 21.2304,7.1655 L 21.7218,7.18857 L 22.3539,7.16771 L 23.122,7.08051
 L 23.5645,5.42911 L 22.9429,4.96953 L 22.4059,4.63541 L 21.9688,4.40968 L 21.6448,4.2738 L 21.4446,4.20778
 L 21.3764,4.19058 L 19.7422,3.87021 L 20.0782,1.37201 L 20.0782,1.3718 L 21.7327,1.48483 L 21.8029,1.48586
 L 22.0134,1.47391 L 22.3616,1.42651 L 22.8422,1.32161 L 23.4474,1.13786 L 24.1667,0.854828 L 24.1667,-0.854828
 L 23.4474,-1.13786 L 22.8422,-1.32161 L 22.3616,-1.42651 L 22.0134,-1.47391 L 21.8029,-1.48586 L 21.7327,-1.48483
 L 20.0712,-1.37132 L 19.7491,-3.87134 L 19.7491,-3.87157 L 21.3764,-4.19058 L 21.4446,-4.20778 L 21.6448,-4.2738
 L 21.9688,-4.40968 L 22.4059,-4.63541 L 22.9429,-4.96953 L 23.5645,-5.42911 L 23.122,-7.08051 L 22.3539,-7.16771
 L 21.7218,-7.18857 L 21.2304,-7.1655 L 20.8818,-7.12117 L 20.6754,-7.07823 L 20.6078,-7.05905 L 19.0324,-6.51939
 L 18.0742,-8.85088 L 18.0741,-8.85107 L 19.5634,-9.58041 L 19.6248,-9.61467 L 19.8011,-9.73026 L 20.0789,-9.94539
 L 20.4427,-10.2765 L 20.8749,-10.7383 L 21.3564,-11.3431 L 20.5016,-12.8237 L 19.7371,-12.7091 L 19.1211,-12.5656
 L 18.6524,-12.4162 L 18.3272,-12.2831 L 18.1389,-12.1882 L 18.0786,-12.1522 L 16.6965,-11.2232 L 15.1676,-13.2272
 L 15.1674,-13.2274 L 16.4172,-14.3174 L 16.4676,-14.3663 L 16.608,-14.5236 L 16.8207,-14.8033 L 17.0864,-15.2173
 L 17.3844,-15.7752 L 17.6929,-16.484 L 16.484,-17.6929 L 15.7752,-17.3844 L 15.2173,-17.0864 L 14.8033,-16.8207
 L 14.5236,-16.608 L 14.3663,-16.4676 L 14.3174,-16.4172 L 13.2228,-15.1622 L 11.2273,-16.7022 L 11.2271,-16.7023
 L 12.1522,-18.0786 L 12.1882,-18.1389 L 12.2831,-18.3272 L 12.4162,-18.6524 L 12.5656,-19.1211 L 12.7091,-19.7371
 L 12.8237,-20.5016 L 11.3431,-21.3564 L 10.7383,-20.8749 L 10.2765,-20.4427 L 9.94539,-20.0789 L 9.73026,-19.8011
 L 9.61467,-19.6248 L 9.58041,-19.5634 L 8.84801,-18.0678 L 6.52187,-19.0389 L 6.52165,-19.039 L 7.05905,-20.6078
 L 7.07823,-20.6754 L 7.12117,-20.8818 L 7.1655,-21.2304 L 7.18857,-21.7218 L 7.16771,-22.3539 L 7.08051,-23.122
 L 5.42911,-23.5645 L 4.96953,-22.9429 L 4.63541,-22.4059 L 4.40968,-21.9688 L 4.2738,-21.6448 L 4.20778,-21.4446
 L 4.19058,-21.3764 L 3.87021,-19.7422 L 1.37201,-20.0782 L 1.3718,-20.0782 L 1.48483,-21.7327 L 1.48586,-21.8029
 L 1.47391,-22.0134 L 1.42651,-22.3616 L 1.32161,-22.8422 L 1.13786,-23.4474 L 0.854828,-24.1667 L -0.854828,-24.1667
 L -1.13786,-23.4474 L -1.32161,-22.8422 L -1.42651,-22.3616 L -1.47391,-22.0134 L -1.48586,-21.8029 L -1.48483,-21.7327
 L -1.37132,-20.0712 L -3.87134,-19.7491 L -3.87157,-19.7491 L -4.19058,-21.3764 L -4.20778,-21.4446 L -4.2738,-21.6448
 L -4.40968,-21.9688 L -4.63541,-22.4059 L -4.96953,-22.9429 L -5.42911,-23.5645 L -7.08051,-23.122 L -7.16771,-22.3539
 L -7.18857,-21.7218 L -7.1655,-21.2304 L -7.12117,-20.8818 L -7.07823,-20.6754 L -7.05905,-20.6078 L -6.51939,-19.0324
 L -8.85088,-18.0742 L -8.85107,-18.0741 L -9.58041,-19.5634 L -9.61467,-19.6248 L -9.73026,-19.8011 L -9.94539,-20.0789
 L -10.2765,-20.4427 L -10.7383,-20.8749 L -11.3431,-21.3564 L -12.8237,-20.5016 L -12.7091,-19.7371 L -12.5656,-19.1211
 L -12.4162,-18.6524 L -12.2831,-18.3272 L -12.1882,-18.1389 L -12.1522,-18.0786 L -11.2232,-16.6965 L -13.2272,-15.1676
 L -13.2274,-15.1674 L -14.3174,-16.4172 L -14.3663,-16.4676 L -14.5236,-16.608 L -14.8033,-16.8207 L -15.2173,-17.0864
 L -15.7752,-17.3844 L -16.484,-17.6929 L -17.6929,-16.484 L -17.3844,-15.7752 L -17.0864,-15.2173 L -16.8207,-14.8033
 L -16.608,-14.5236 L -16.4676,-14.3663 L -16.4172,-14.3174 L -15.1622,-13.2228 L -16.7022,-11.2273 L -16.7023,-11.2271
 L -18.0786,-12.1522 L -18.1389,-12.1882 L -18.3272,-12.2831 L -18.6524,-12.4162 L -19.1211,-12.5656 L -19.7371,-12.7091
 L -20.5016,-12.8237 L -21.3564,-11.3431 L -20.8749,-10.7383 L -20.4427,-10.2765 L -20.0789,-9.94539 L -19.8011,-9.73026
 L -19.6248,-9.61467 L -19.5634,-9.58041 L -18.0678,-8.84801 L -19.0389,-6.52187 L -19.039,-6.52165 L -20.6078,-7.05905
 L -20.6754,-7.07823 L -20.8818,-7.12117 L -21.2304,-7.1655 L -21.7218,-7.18857 L -22.3539,-7.16771 L -23.122,-7.08051
 L -23.5645,-5.42911 L -22.9429,-4.96953 L -22.4059,-4.63541 L -21.9688,-4.40968 L -21.6448,-4.2738 L -21.4446,-4.20778
 L -21.3764,-4.19058 L -19.7422,-3.87021 L -20.0782,-1.37201 L -20.0782,-1.3718 L -21.7327,-1.48483 L -21.8029,-1.48586
 L -22.0134,-1.47391 L -22.3616,-1.42651 L -22.8422,-1.32161 L -23.4474,-1.13786 L -24.1667,-0.854828 L -24.1667,0.854828
 L -23.4474,1.13786 L -22.8422,1.32161 L -22.3616,1.42651 L -22.0134,1.47391 L -21.8029,1.48586 L -21.7327,1.48483
 L -20.0712,1.37132 L -19.7491,3.87134 L -19.7491,3.87157 L -21.3764,4.19058 L -21.4446,4.20778 L -21.6448,4.2738
 L -21.9688,4.40968 L -22.4059,4.63541 L -22.9429,4.96953 L -23.5645,5.42911 L -23.122,7.08051 L -22.3539,7.16771
 L -21.7218,7.18857 L -21.2304,7.1655 L -20.8818,7.12117 L -20.6754,7.07823 L -20.6078,7.05905 L -19.0324,6.51939
 L -18.0742,8.85088 L -18.0741,8.85107 L -19.5634,9.58041 L -19.6248,9.61467 L -19.8011,9.73026 L -20.0789,9.94539
 L -20.4427,10.2765 L -20.8749,10.7383 L -21.3564,11.3431 L -20.5016,12.8237 L -19.7371,12.7091 L -19.1211,12.5656
 L -18.6524,12.4162 L -18.3272,12.2831 L -18.1389,12.1882 L -18.0786,12.1522 L -16.6965,11.2232 L -15.1676,13.2272
 L -15.1674,13.2274 L -16.4172,14.3174 L -16.4676,14.3663 L -16.608,14.5236 L -16.8207,14.8033 L -17.0864,15.2173
 L -17.3844,15.7752 L -17.6929,16.484 L -16.484,17.6929 L -15.7752,17.3844 L -15.2173,17.0864 L -14.8033,16.8207
 L -14.5236,16.608 L -14.3663,16.4676 L -14.3174,16.4172 L -13.2228,15.1622 L -11.2273,16.7022 L -11.2271,16.7023
 L -12.1522,18.0786 L -12.1882,18.1389 L -12.2831,18.3272 L -12.4162,18.6524 L -12.5656,19.1211 L -12.7091,19.7371
 L -12.8237,20.5016 L -11.3431,21.3564 L -10.7383,20.8749 L -10.2765,20.4427 L -9.94539,20.0789 L -9.73026,19.8011
 L -9.61467,19.6248 L -9.58041,19.5634 L -8.84801,18.0678 L -6.52187,19.0389 L -6.52165,19.039 L -7.05905,20.6078
 L -7.07823,20.6754 L -7.12117,20.8818 L -7.1655,21.2304 L -7.18857,21.7218 L -7.16771,22.3539 L -7.08051,23.122
 L -5.42911,23.5645 L -4.96953,22.9429 L -4.63541,22.4059 L -4.40968,21.9688 L -4.2738,21.6448 L -4.20778,21.4446
 L -4.19058,21.3764 L -3.87021,19.7422 L -1.37201,20.0782 L -1.3718,20.0782 L -1.48483,21.7327 L -1.48586,21.8029
 L -1.47391,22.0134 L -1.42651,22.3616 L -1.32161,22.8422 L -1.13786,23.4474 L -0.854828,24.1667 L 0.854828,24.1667
 z
M -0.562134,-12.0531 L -1.27733,-12.2855 L -1.91226,-12.6884 L -2.42705,-13.2366 L -2.78932,-13.8956 L -2.97633,-14.624
 L -2.97633,-15.376 L -2.78932,-16.1044 L -2.42705,-16.7634 L -1.91226,-17.3115 L -1.27733,-17.7145 L -0.562134,-17.9469
 L 0.18837,-17.9941 L 0.927048,-17.8532 L 1.60747,-17.533 L 2.1869,-17.0536 L 2.62891,-16.4453 L 2.90575,-15.7461
 L 3,-15 L 2.90575,-14.2539 L 2.62891,-13.5547 L 2.1869,-12.9464 L 1.60747,-12.467 L 0.927048,-12.1468
 L 0.18837,-12.0059 z
M 10.1373,-7.64352 L 9.41515,-7.85333 L 8.76787,-8.23613 L 8.23613,-8.76787 L 7.85333,-9.41515 L 7.64352,-10.1373
 L 7.6199,-10.8889 L 7.78395,-11.6228 L 8.12535,-12.2928 L 8.62267,-12.8569 L 9.24463,-13.2796 L 9.95216,-13.5343
 L 10.7008,-13.6051 L 11.4436,-13.4875 L 12.1337,-13.1888 L 12.7279,-12.7279 L 13.1888,-12.1337 L 13.4875,-11.4436
 L 13.6051,-10.7008 L 13.5343,-9.95216 L 13.2796,-9.24463 L 12.8569,-8.62267 L 12.2928,-8.12535 L 11.6228,-7.78395
 L 10.8889,-7.6199 z
M -11.0759,-7.64352 L -11.798,-7.85333 L -12.4453,-8.23613 L -12.9771,-8.76787 L -13.3599,-9.41515 L -13.5697,-10.1373
 L -13.5933,-10.8889 L -13.4292,-11.6228 L -13.0878,-12.2928 L -12.5905,-12.8569 L -11.9686,-13.2796 L -11.261,-13.5343
 L -10.5124,-13.6051 L -9.76962,-13.4875 L -9.07947,-13.1888 L -8.48528,-12.7279 L -8.02437,-12.1337 L -7.72571,-11.4436
 L -7.60808,-10.7008 L -7.67885,-9.95216 L -7.93358,-9.24463 L -8.35626,-8.62267 L -8.92035,-8.12535 L -9.59038,-7.78395
 L -10.3243,-7.6199 z
M -0.140213,2.9734 L -0.469299,2.96306 L -0.514816,2.94983 L -0.562134,2.94685 L -0.875275,2.84511 L -1.19144,2.75325
 L -1.23224,2.72913 L -1.27733,2.71448 L -1.55533,2.53806 L -1.83871,2.37045 L -1.87224,2.33693 L -1.91226,2.31154
 L -2.13765,2.07152 L -2.37045,1.83871 L -2.39459,1.79791 L -2.42705,1.76335 L -2.58566,1.47482 L -2.75325,1.19144
 L -2.76648,1.1459 L -2.78932,1.10437 L -2.8712,0.785477 L -2.96306,0.469299 L -2.96454,0.421906 L -2.97633,0.375992
 L -2.97633,0.0467682 L -2.98668,-0.282318 L -2.97633,-0.328583 L -2.97633,-0.375992 L -2.89445,-0.694885 L -2.82263,-1.0162
 L -2.80112,-1.05844 L -2.78932,-1.10437 L -2.63071,-1.39288 L -2.48123,-1.68625 L -2.44987,-1.7218 L -2.42705,-1.76335
 L -2.20166,-2.00336 L -1.98393,-2.25032 L -1.94472,-2.27698 L -1.91226,-2.31154 L -1.63428,-2.48795 L -1.36197,-2.673
 L -1.31735,-2.68907 L -1.27733,-2.71448 L -0.964203,-2.81621 L -0.654419,-2.92773 L -0.607224,-2.93221 L -0.562134,-2.94685
 L -0.233536,-2.96753 L 0.094223,-2.9985 L 0.141052,-2.99109 L 0.18837,-2.99408 L 0.51178,-2.93237 L 0.83696,-2.88087
 L 0.880478,-2.86205 L 0.927048,-2.85316 L 1.22495,-2.71298 L 1.52711,-2.58221 L 1.56458,-2.55316 L 1.60747,-2.53297
 L 1.86115,-2.32312 L 2.12131,-2.12131 L 2.15038,-2.08385 L 2.1869,-2.05363 L 2.38042,-1.78728 L 2.58221,-1.52711
 L 2.60104,-1.48361 L 2.62891,-1.44525 L 2.75012,-1.13913 L 2.88087,-0.83696 L 2.88829,-0.790146 L 2.90575,-0.746063
 L 2.94701,-0.419403 L 2.9985,-0.094223 L 2.99405,-0.0470276 L 3,-0 L 2.95872,0.32666 L 2.92773,0.654419
 L 2.91168,0.69902 L 2.90575,0.746063 L 2.78453,1.05219 L 2.673,1.36197 L 2.64636,1.40117 L 2.62891,1.44525
 L 2.43539,1.71162 L 2.25032,1.98393 L 2.21477,2.01527 L 2.1869,2.05363 L 1.93321,2.26349 L 1.68625,2.48123
 L 1.644,2.50276 L 1.60747,2.53297 L 1.30956,2.67316 L 1.0162,2.82263 L 0.96994,2.83298 L 0.927048,2.85316
 L 0.603622,2.91486 L 0.282318,2.98668 L 0.234924,2.98518 L 0.18837,2.99408 z
M -15.5621,2.94685 L -16.2773,2.71448 L -16.9123,2.31154 L -17.427,1.76335 L -17.7893,1.10437 L -17.9763,0.375992
 L -17.9763,-0.375992 L -17.7893,-1.10437 L -17.427,-1.76335 L -16.9123,-2.31154 L -16.2773,-2.71448 L -15.5621,-2.94685
 L -14.8116,-2.99408 L -14.0729,-2.85316 L -13.3925,-2.53297 L -12.8131,-2.05363 L -12.3711,-1.44525 L -12.0942,-0.746063
 L -12,-0 L -12.0942,0.746063 L -12.3711,1.44525 L -12.8131,2.05363 L -13.3925,2.53297 L -14.0729,2.85316
 L -14.8116,2.99408 z
M 14.4379,2.94685 L 13.7227,2.71448 L 13.0877,2.31154 L 12.5729,1.76335 L 12.2107,1.10437 L 12.0237,0.375992
 L 12.0237,-0.375992 L 12.2107,-1.10437 L 12.5729,-1.76335 L 13.0877,-2.31154 L 13.7227,-2.71448 L 14.4379,-2.94685
 L 15.1884,-2.99408 L 15.927,-2.85316 L 16.6075,-2.53297 L 17.1869,-2.05363 L 17.6289,-1.44525 L 17.9057,-0.746063
 L 18,-0 L 17.9057,0.746063 L 17.6289,1.44525 L 17.1869,2.05363 L 16.6075,2.53297 L 15.927,2.85316
 L 15.1884,2.99408 z
M 10.1373,13.5697 L 9.41515,13.3599 L 8.76787,12.9771 L 8.23613,12.4453 L 7.85333,11.798 L 7.64352,11.0759
 L 7.6199,10.3243 L 7.78395,9.59038 L 8.12535,8.92035 L 8.62267,8.35626 L 9.24463,7.93358 L 9.95216,7.67885
 L 10.7008,7.60808 L 11.4436,7.72571 L 12.1337,8.02437 L 12.7279,8.48528 L 13.1888,9.07947 L 13.4875,9.76962
 L 13.6051,10.5124 L 13.5343,11.261 L 13.2796,11.9686 L 12.8569,12.5905 L 12.2928,13.0878 L 11.6228,13.4292
 L 10.8889,13.5933 z
M -11.0759,13.5697 L -11.798,13.3599 L -12.4453,12.9771 L -12.9771,12.4453 L -13.3599,11.798 L -13.5697,11.0759
 L -13.5933,10.3243 L -13.4292,9.59038 L -13.0878,8.92035 L -12.5905,8.35626 L -11.9686,7.93358 L -11.261,7.67885
 L -10.5124,7.60808 L -9.76962,7.72571 L -9.07947,8.02437 L -8.48528,8.48528 L -8.02437,9.07947 L -7.72571,9.76962
 L -7.60808,10.5124 L -7.67885,11.261 L -7.93358,11.9686 L -8.35626,12.5905 L -8.92035,13.0878 L -9.59038,13.4292
 L -10.3243,13.5933 z
M -0.562134,17.9469 L -1.27733,17.7145 L -1.91226,17.3115 L -2.42705,16.7634 L -2.78932,16.1044 L -2.97633,15.376
 L -2.97633,14.624 L -2.78932,13.8956 L -2.42705,13.2366 L -1.91226,12.6884 L -1.27733,12.2855 L -0.562134,12.0531
 L 0.18837,12.0059 L 0.927048,12.1468 L 1.60747,12.467 L 2.1869,12.9464 L 2.62891,13.5547 L 2.90575,14.2539
 L 3,15 L 2.90575,15.7461 L 2.62891,16.4453 L 2.1869,17.0536 L 1.60747,17.533 L 0.927048,17.8532
 L 0.18837,17.9941 z
" stroke="black" fill="lightgray" stroke-width="0.5"/>
</svg>
