<?xml version="1.0" standalone="no"?>
<!DOCTYPE svg PUBLIC "-//W3C//DTD SVG 1.1//EN" "http://www.w3.org/Graphics/SVG/1.1/DTD/svg11.dtd">
<svg width="50mm" height="50mm" viewBox="-25 -25 50 50" xmlns="http://www.w3.org/2000/svg" version="1.1">
<title>OpenSCAD Model</title>
<path d="
M 1.03658,23.3152 L 1.43065,22.5415 L 1.72162,21.8449 L 1.92363,21.236 L 2.05177,20.7235 L 2.12192,20.3145
 L 2.11813,20.2783 L 3.20244,20.1355 L 3.20815,20.1714 L 3.38176,20.5484 L 3.63818,21.0102 L 3.99092,21.5462
 L 4.45227,22.1437 L 5.03316,22.789 L 5.74297,23.467 L 6.75995,23.1945 L 7.03568,22.2525 L 7.21606,21.4032
 L 7.31683,20.655 L 7.35435,20.0145 L 7.34547,19.4863 L 7.30737,19.0731 L 7.29436,19.0391 L 8.30478,18.6206
 L 8.3196,18.6538 L 8.58484,18.9729 L 8.95206,19.3527 L 9.4315,19.7791 L 10.0318,20.2369 L 10.7599,20.7099
 L 11.621,21.181 L 12.5328,20.6546 L 12.5553,19.6733 L 12.5097,18.8062 L 12.4134,18.0574 L 12.2839,17.4291
 L 12.1386,16.9212 L 11.9949,16.5319 L 11.9735,16.5024 L 12.8412,15.8367 L 12.8641,15.8649 L 13.2029,16.1045
 L 13.6559,16.3763 L 14.2293,16.6641 L 14.9276,16.9509 L 15.7534,17.2193 L 16.7071,17.4516 L 17.4516,16.7071
 L 17.2193,15.7534 L 16.9509,14.9276 L 16.6641,14.2293 L 16.3763,13.6559 L 16.1045,13.2029 L 15.8649,12.8641
 L 15.8367,12.8412 L 16.5024,11.9735 L 16.5319,11.9949 L 16.9212,12.1386 L 17.4291,12.2839 L 18.0574,12.4134
 L 18.8062,12.5097 L 19.6733,12.5553 L 20.6546,12.5328 L 21.181,11.621 L 20.7099,10.7599 L 20.2369,10.0318
 L 19.7791,9.4315 L 19.3527,8.95206 L 18.9729,8.58484 L 18.6538,8.3196 L 18.6206,8.30478 L 19.0391,7.29436
 L 19.0731,7.30737 L 19.4863,7.34547 L 20.0145,7.35435 L 20.655,7.31683 L 21.4032,7.21606 L 22.2525,7.03568
 L 23.1945,6.75995 L 23.467,5.74297 L 22.789,5.03316 L 22.1437,4.45227 L 21.5462,3.99092 L 21.0102,3.63818
 L 20.5484,3.38176 L 20.1714,3.20815 L 20.1355,3.20244 L 20.2783,2.11813 L 20.3145,2.12192 L 20.7235,2.05177
 L 21.236,1.92363 L 21.8449,1.72162 L 22.5415,1.43065 L 23.3152,1.03658 L 24.1538,0.526428 L 24.1538,-0.526428
 L 23.3152,-1.03658 L 22.5415,-1.43065 L 21.8449,-1.72162 L 21.236,-1.92363 L 20.7235,-2.05177 L 20.3145,-2.12192
 L 20.2783,-2.11813 L 20.1355,-3.20244 L 20.1714,-3.20815 L 20.5484,-3.38176 L 21.0102,-3.63818 L 21.5462,-3.99092
 L 22.1437,-4.45227 L 22.789,-5.03316 L 23.467,-5.74297 L 23.1945,-6.75995 L 22.2525,-7.03568 L 21.4032,-7.21606
 L 20.655,-7.31683 L 20.0145,-7.35435 L 19.4863,-7.34547 L 19.0731,-7.30737 L 19.0391,-7.29436 L 18.6206,-8.30478
 L 18.6538,-8.3196 L 18.9729,-8.58484 L 19.3527,-8.95206 L 19.7791,-9.4315 L 20.2369,-10.0318 L 20.7099,-10.7599
 L 21.181,-11.621 L 20.6546,-12.5328 L 19.6733,-12.5553 L 18.8062,-12.5097 L 18.0574,-12.4134 L 17.4291,-12.2839
 L 16.9212,-12.1386 L 16.5319,-11.9949 L 16.5024,-11.9735 L 15.8367,-12.8412 L 15.8649,-12.8641 L 16.1045,-13.2029
 L 16.3763,-13.6559 L 16.6641,-14.2293 L 16.9509,-14.9276 L 17.2193,-15.7534 L 17.4516,-16.7071 L 16.7071,-17.4516
 L 15.7534,-17.2193 L 14.9276,-16.9509 L 14.2293,-16.6641 L 13.6559,-16.3763 L 13.2029,-16.1045 L 12.8641,-15.8649
 L 12.8412,-15.8367 L 11.9735,-16.5024 L 11.9949,-16.5319 L 12.1386,-16.9212 L 12.2839,-17.4291 L 12.4134,-18.0574
 L 12.5097,-18.8062 L 12.5553,-19.6733 L 12.5328,-20.6546 L 11.621,-21.181 L 10.7599,-20.7099 L 10.0318,-20.2369
 L 9.4315,-19.7791 L 8.95206,-19.3527 L 8.58484,-18.9729 L 8.3196,-18.6538 L 8.30478,-18.6206 L 7.29436,-19.0391
 L 7.30737,-19.0731 L 7.34547,-19.4863 L 7.35435,-20.0145 L 7.31683,-20.655 L 7.21606,-21.4032 L 7.03568,-22.2525
 L 6.75995,-23.1945 L 5.74297,-23.467 L 5.03316,-22.789 L 4.45227,-22.1437 L 3.99092,-21.5462 L 3.63818,-21.0102
 L 3.38176,-20.5484 L 3.20815,-20.1714 L 3.20244,-20.1355 L 2.11813,-20.2783 L 2.12192,-20.3145 L 2.05177,-20.7235
 L 1.92363,-21.236 L 1.72162,-21.8449 L 1.43065,-22.5415 L 1.03658,-23.3152 L 0.526428,-24.1538 L -0.526428,-24.1538
 L -1.03658,-23.3152 L -1.43065,-22.5415 L -1.72162,-21.8449 L -1.92363,-21.236 L -2.05177,-20.7235 L -2.12192,-20.3145
 L -2.11813,-20.2783 L -3.20244,-20.1355 L -3.20815,-20.1714 L -3.38176,-20.5484 L -3.63818,-21.0102 L -3.99092,-21.5462
 L -4.45227,-22.1437 L -5.03316,-22.789 L -5.74297,-23.467 L -6.75995,-23.1945 L -7.03568,-22.2525 L -7.21606,-21.4032
 L -7.31683,-20.655 L -7.35435,-20.0145 L -7.34547,-19.4863 L -7.30737,-19.0731 L -7.29436,-19.0391 L -8.30478,-18.6206
 L -8.3196,-18.6538 L -8.58484,-18.9729 L -8.95206,-19.3527 L -9.4315,-19.7791 L -10.0318,-20.2369 L -10.7599,-20.7099
 L -11.621,-21.181 L -12.5328,-20.6546 L -12.5553,-19.6733 L -12.5097,-18.8062 L -12.4134,-18.0574 L -12.2839,-17.4291
 L -12.1386,-16.9212 L -11.9949,-16.5319 L -11.9735,-16.5024 L -12.8412,-15.8367 L -12.8641,-15.8649 L -13.2029,-16.1045
 L -13.6559,-16.3763 L -14.2293,-16.6641 L -14.9276,-16.9509 L -15.7534,-17.2193 L -16.7071,-17.4516 L -17.4516,-16.7071
 L -17.2193,-15.7534 L -16.9509,-14.9276 L -16.6641,-14.2293 L -16.3763,-13.6559 L -16.1045,-13.2029 L -15.8649,-12.8641
 L -15.8367,-12.8412 L -16.5024,-11.9735 L -16.5319,-11.9949 L -16.9212,-12.1386 L -17.4291,-12.2839 L -18.0574,-12.4134
 L -18.8062,-12.5097 L -19.6733,-12.5553 L -20.6546,-12.5328 L -21.181,-11.621 L -20.7099,-10.7599 L -20.2369,-10.0318
 L -19.7791,-9.4315 L -19.3527,-8.95206 L -18.9729,-8.58484 L -18.6538,-8.3196 L -18.6206,-8.30478 L -19.0391,-7.29436
 L -19.0731,-7.30737 L -19.4863,-7.34547 L -20.0145,-7.35435 L -20.655,-7.31683 L -21.4032,-7.21606 L -22.2525,-7.03568
 L -23.1945,-6.75995 L -23.467,-5.74297 L -22.789,-5.03316 L -22.1437,-4.45227 L -21.5462,-3.99092 L -21.0102,-3.63818
 L -20.5484,-3.38176 L -20.1714,-3.20815 L -20.1355,-3.20244 L -20.2783,-2.11813 L -20.3145,-2.12192 L -20.7235,-2.05177
 L -21.236,-1.92363 L -21.8449,-1.72162 L -22.5415,-1.43065 L -23.3152,-1.03658 L -24.1538,-0.526428 L -24.1538,0.526428
 L -23.3152,1.03658 L -22.5415,1.43065 L -21.8449,1.72162 L -21.236,1.92363 L -20.7235,2.05177 L -20.3145,2.12192
 L -20.2783,2.11813 L -20.1355,3.20244 L -20.1714,3.20815 L -20.5484,3.38176 L -21.0102,3.63818 L -21.5462,3.99092
 L -22.1437,4.45227 L -22.789,5.03316 L -23.467,5.74297 L -23.1945,6.75995 L -22.2525,7.03568 L -21.4032,7.21606
 L -20.655,7.31683 L -20.0145,7.35435 L -19.4863,7.34547 L -19.0731,7.30737 L -19.0391,7.29436 L -18.6206,8.30478
 L -18.6538,8.3196 L -18.9729,8.58484 L -19.3527,8.95206 L -19.7791,9.4315 L -20.2369,10.0318 L -20.7099,10.7599
 L -21.181,11.621 L -20.6546,12.5328 L -19.6733,12.5553 L -18.8062,12.5097 L -18.0574,12.4134 L -17.4291,12.2839
 L -16.9212,12.1386 L -16.5319,11.9949 L -16.5024,11.9735 L -15.8367,12.8412 L -15.8649,12.8641 L -16.1045,13.2029
 L -16.3763,13.6559 L -16.6641,14.2293 L -16.9509,14.9276 L -17.2193,15.7534 L -17.4516,16.7071 L -16.7071,17.4516
 L -15.7534,17.2193 L -14.9276,16.9509 L -14.2293,16.6641 L -13.6559,16.3763 L -13.2029,16.1045 L -12.8641,15.8649
 L -12.8412,15.8367 L -11.9735,16.5024 L -11.9949,16.5319 L -12.1386,16.9212 L -12.2839,17.4291 L -12.4134,18.0574
 L -12.5097,18.8062 L -12.5553,19.6733 L -12.5328,20.6546 L -11.621,21.181 L -10.7599,20.7099 L -10.0318,20.2369
 L -9.4315,19.7791 L -8.95206,19.3527 L -8.58484,18.9729 L -8.3196,18.6538 L -8.30478,18.6206 L -7.29436,19.0391
 L -7.30737,19.0731 L -7.34547,19.4863 L -7.35435,20.0145 L -7.31683,20.655 L -7.21606,21.4032 L -7.03568,22.2525
 L -6.75995,23.1945 L -5.74297,23.467 L -5.03316,22.789 L -4.45227,22.1437 L -3.99092,21.5462 L -3.63818,21.0102
 L -3.38176,20.5484 L -3.20815,20.1714 L -3.20244,20.1355 L -2.11813,20.2783 L -2.12192,20.3145 L -2.05177,20.7235
 L -1.92363,21.236 L -1.72162,21.8449 L -1.43065,22.5415 L -1.03658,23.3152 L -0.526428,24.1538 L 0.526428,24.1538
 z
M -0.562134,-12.0531 L -1.27733,-12.2855 L -1.91226,-12.6884 L -2.42705,-13.2366 L -2.78932,-13.8956 L -2.97633,-14.624
 L -2.97633,-15.376 L -2.78932,-16.1044 L -2.42705,-16.7634 L -1.91226,-17.3115 L -1.27733,-17.7145 L -0.562134,-17.9469
 L 0.18837,-17.9941 L 0.927048,-17.8532 L 1.60747,-17.533 L 2.1869,-17.0536 L 2.62891,-16.4453 L 2.90575,-15.7461
 L 3,-15 L 2.90575,-14.2539 L 2.62891,-13.5547 L 2.1869,-12.9464 L 1.60747,-12.467 L 0.927048,-12.1468
 L 0.18837,-12.0059 z
M 10.1373,-7.64352 L 9.41515,-7.85333 L 8.76787,-8.23613 L 8.23613,-8.76787 L 7.85333,-9.41515 L 7.64352,-10.1373
 L 7.6199,-10.8889 L 7.78395,-11.6228 L 8.12535,-12.2928 L 8.62267,-12.8569 L 9.24463,-13.2796 L 9.95216,-13.5343
 L 10.7008,-13.6051 L 11.4436,-13.4875 L 12.1337,-13.1888 L 12.7279,-12.7279 L 13.1888,-12.1337 L 13.4875,-11.4436
 L 13.6051,-10.7008 L 13.5343,-9.95216 L 13.2796,-9.24463 L 12.8569,-8.62267 L 12.2928,-8.12535 L 11.6228,-7.78395
 L 10.8889,-7.6199 z
M -11.0759,-7.64352 L -11.798,-7.85333 L -12.4453,-8.23613 L -12.9771,-8.76787 L -13.3599,-9.41515 L -13.5697,-10.1373
 L -13.5933,-10.8889 L -13.4292,-11.6228 L -13.0878,-12.2928 L -12.5905,-12.8569 L -11.9686,-13.2796 L -11.261,-13.5343
 L -10.5124,-13.6051 L -9.76962,-13.4875 L -9.07947,-13.1888 L -8.48528,-12.7279 L -8.02437,-12.1337 L -7.72571,-11.4436
 L -7.60808,-10.7008 L -7.67885,-9.95216 L -7.93358,-9.24463 L -8.35626,-8.62267 L -8.92035,-8.12535 L -9.59038,-7.78395
 L -10.3243,-7.6199 z
M -0.140213,2.9734 L -0.469299,2.96306 L -0.514816,2.94983 L -0.562134,2.94685 L -0.875275,2.84511 L -1.19144,2.75325
 L -1.23224,2.72913 L -1.27733,2.71448 L -1.55533,2.53806 L -1.83871,2.37045 L -1.87224,2.33693 L -1.91226,2.31154
 L -2.13765,2.07152 L -2.37045,1.83871 L -2.39459,1.79791 L -2.42705,1.76335 L -2.58566,1.47482 L -2.75325,1.19144
 L -2.76648,1.1459 L -2.78932,1.10437 L -2.8712,0.785477 L -2.96306,0.469299 L -2.96454,0.421906 L -2.97633,0.375992
 L -2.97633,0.0467682 L -2.98668,-0.282318 L -2.97633,-0.328583 L -2.97633,-0.375992 L -2.89445,-0.694885 L -2.82263,-1.0162
 L -2.80112,-1.05844 L -2.78932,-1.10437 L -2.63071,-1.39288 L -2.48123,-1.68625 L -2.44987,-1.7218 L -2.42705,-1.76335
 L -2.20166,-2.00336 L -1.98393,-2.25032 L -1.94472,-2.27698 L -1.91226,-2.31154 L -1.63428,-2.48795 L -1.36197,-2.673
 L -1.31735,-2.68907 L -1.27733,-2.71448 L -0.964203,-2.81621 L -0.654419,-2.92773 L -0.607224,-2.93221 L -0.562134,-2.94685
 L -0.233536,-2.96753 L 0.094223,-2.9985 L 0.141052,-2.99109 L 0.18837,-2.99408 L 0.51178,-2.93237 L 0.83696,-2.88087
 L 0.880478,-2.86205 L 0.927048,-2.85316 L 1.22495,-2.71298 L 1.52711,-2.58221 L 1.56458,-2.55316 L 1.60747,-2.53297
 L 1.86115,-2.32312 L 2.12131,-2.12131 L 2.15038,-2.08385 L 2.1869,-2.05363 L 2.38042,-1.78728 L 2.58221,-1.52711
 L 2.60104,-1.48361 L 2.62891,-1.44525 L 2.75012,-1.13913 L 2.88087,-0.83696 L 2.88829,-0.790146 L 2.90575,-0.746063
 L 2.94701,-0.419403 L 2.9985,-0.094223 L 2.99405,-0.0470276 L 3,-0 L 2.95872,0.32666 L 2.92773,0.654419
 L 2.91168,0.69902 L 2.90575,0.746063 L 2.78453,1.05219 L 2.673,1.36197 L 2.64636,1.40117 L 2.62891,1.44525
 L 2.43539,1.71162 L 2.25032,1.98393 L 2.21477,2.01527 L 2.1869,2.05363 L 1.93321,2.26349 L 1.68625,2.48123
 L 1.644,2.50276 L 1.60747,2.53297 L 1.30956,2.67316 L 1.0162,2.82263 L 0.96994,2.83298 L 0.927048,2.85316
 L 0.603622,2.91486 L 0.282318,2.98668 L 0.234924,2.98518 L 0.18837,2.99408 z
M 14.4379,2.94685 L 13.7227,2.71448 L 13.0877,2.31154 L 12.5729,1.76335 L 12.2107,1.10437 L 12.0237,0.375992
 L 12.0237,-0.375992 L 12.2107,-1.10437 L 12.5729,-1.76335 L 13.0877,-2.31154 L 13.7227,-2.71448 L 14.4379,-2.94685
 L 15.1884,-2.99408 L 15.927,-2.85316 L 16.6075,-2.53297 L 17.1869,-2.05363 L 17.6289,-1.44525 L 17.9057,-0.746063
 L 18,-0 L 17.9057,0.746063 L 17.6289,1.44525 L 17.1869,2.05363 L 16.6075,2.53297 L 15.927,2.85316
 L 15.1884,2.99408 z
M -15.5621,2.94685 L -16.2773,2.71448 L -16.9123,2.31154 L -17.427,1.76335 L -17.7893,1.10437 L -17.9763,0.375992
 L -17.9763,-0.375992 L -17.7893,-1.10437 L -17.427,-1.76335 L -16.9123,-2.31154 L -16.2773,-2.71448 L -15.5621,-2.94685
 L -14.8116,-2.99408 L -14.0729,-2.85316 L -13.3925,-2.53297 L -12.8131,-2.05363 L -12.3711,-1.44525 L -12.0942,-0.746063
 L -12,-0 L -12.0942,0.746063 L -12.3711,1.44525 L -12.8131,2.05363 L -13.3925,2.53297 L -14.0729,2.85316
 L -14.8116,2.99408 z
M 10.1373,13.5697 L 9.41515,13.3599 L 8.76787,12.9771 L 8.23613,12.4453 L 7.85333,11.798 L 7.64352,11.0759
 L 7.6199,10.3243 L 7.78395,9.59038 L 8.12535,8.92035 L 8.62267,8.35626 L 9.24463,7.93358 L 9.95216,7.67885
 L 10.7008,7.60808 L 11.4436,7.72571 L 12.1337,8.02437 L 12.7279,8.48528 L 13.1888,9.07947 L 13.4875,9.76962
 L 13.6051,10.5124 L 13.5343,11.261 L 13.2796,11.9686 L 12.8569,12.5905 L 12.2928,13.0878 L 11.6228,13.4292
 L 10.8889,13.5933 z
M -11.0759,13.5697 L -11.798,13.3599 L -12.4453,12.9771 L -12.9771,12.4453 L -13.3599,11.798 L -13.5697,11.0759
 L -13.5933,10.3243 L -13.4292,9.59038 L -13.0878,8.92035 L -12.5905,8.35626 L -11.9686,7.93358 L -11.261,7.67885
 L -10.5124,7.60808 L -9.76962,7.72571 L -9.07947,8.02437 L -8.48528,8.48528 L -8.02437,9.07947 L -7.72571,9.76962
 L -7.60808,10.5124 L -7.67885,11.261 L -7.93358,11.9686 L -8.35626,12.5905 L -8.92035,13.0878 L -9.59038,13.4292
 L -10.3243,13.5933 z
M -0.562134,17.9469 L -1.27733,17.7145 L -1.91226,17.3115 L -2.42705,16.7634 L -2.78932,16.1044 L -2.97633,15.376
 L -2.97633,14.624 L -2.78932,13.8956 L -2.42705,13.2366 L -1.91226,12.6884 L -1.27733,12.2855 L -0.562134,12.0531
 L 0.18837,12.0059 L 0.927048,12.1468 L 1.60747,12.467 L 2.1869,12.9464 L 2.62891,13.5547 L 2.90575,14.2539
 L 3,15 L 2.90575,15.7461 L 2.62891,16.4453 L 2.1869,17.0536 L 1.60747,17.533 L 0.927048,17.8532
 L 0.18837,17.9941 z
" stroke="black" fill="lightgray" stroke-width="0.5"/>
</svg>
