  0
SECTION
  2
BLOCKS
  0
ENDSEC
  0
SECTION
  2
ENTITIES
  0
LINE
  8
0
 10
1.03658
 20
-23.3152
 11
1.43065
 21
-22.5415
  0
LINE
  8
0
 10
1.43065
 20
-22.5415
 11
1.72162
 21
-21.8449
  0
LINE
  8
0
 10
1.72162
 20
-21.8449
 11
1.92363
 21
-21.236
  0
LINE
  8
0
 10
1.92363
 20
-21.236
 11
2.05177
 21
-20.7235
  0
LINE
  8
0
 10
2.05177
 20
-20.7235
 11
2.12192
 21
-20.3145
  0
LINE
  8
0
 10
2.12192
 20
-20.3145
 11
2.11813
 21
-20.2783
  0
LINE
  8
0
 10
2.11813
 20
-20.2783
 11
3.20244
 21
-20.1355
  0
LINE
  8
0
 10
3.20244
 20
-20.1355
 11
3.20815
 21
-20.1714
  0
LINE
  8
0
 10
3.20815
 20
-20.1714
 11
3.38176
 21
-20.5484
  0
LINE
  8
0
 10
3.38176
 20
-20.5484
 11
3.63818
 21
-21.0102
  0
LINE
  8
0
 10
3.63818
 20
-21.0102
 11
3.99092
 21
-21.5462
  0
LINE
  8
0
 10
3.99092
 20
-21.5462
 11
4.45227
 21
-22.1437
  0
LINE
  8
0
 10
4.45227
 20
-22.1437
 11
5.03316
 21
-22.789
  0
LINE
  8
0
 10
5.03316
 20
-22.789
 11
5.74297
 21
-23.467
  0
LINE
  8
0
 10
5.74297
 20
-23.467
 11
6.75995
 21
-23.1945
  0
LINE
  8
0
 10
6.75995
 20
-23.1945
 11
7.03568
 21
-22.2525
  0
LINE
  8
0
 10
7.03568
 20
-22.2525
 11
7.21606
 21
-21.4032
  0
LINE
  8
0
 10
7.21606
 20
-21.4032
 11
7.31683
 21
-20.655
  0
LINE
  8
0
 10
7.31683
 20
-20.655
 11
7.35435
 21
-20.0145
  0
LINE
  8
0
 10
7.35435
 20
-20.0145
 11
7.34547
 21
-19.4863
  0
LINE
  8
0
 10
7.34547
 20
-19.4863
 11
7.30737
 21
-19.0731
  0
LINE
  8
0
 10
7.30737
 20
-19.0731
 11
7.29436
 21
-19.0391
  0
LINE
  8
0
 10
7.29436
 20
-19.0391
 11
8.30478
 21
-18.6206
  0
LINE
  8
0
 10
8.30478
 20
-18.6206
 11
8.3196
 21
-18.6538
  0
LINE
  8
0
 10
8.3196
 20
-18.6538
 11
8.58484
 21
-18.9729
  0
LINE
  8
0
 10
8.58484
 20
-18.9729
 11
8.95206
 21
-19.3527
  0
LINE
  8
0
 10
8.95206
 20
-19.3527
 11
9.4315
 21
-19.7791
  0
LINE
  8
0
 10
9.4315
 20
-19.7791
 11
10.0318
 21
-20.2369
  0
LINE
  8
0
 10
10.0318
 20
-20.2369
 11
10.7599
 21
-20.7099
  0
LINE
  8
0
 10
10.7599
 20
-20.7099
 11
11.621
 21
-21.181
  0
LINE
  8
0
 10
11.621
 20
-21.181
 11
12.5328
 21
-20.6546
  0
LINE
  8
0
 10
12.5328
 20
-20.6546
 11
12.5553
 21
-19.6733
  0
LINE
  8
0
 10
12.5553
 20
-19.6733
 11
12.5097
 21
-18.8062
  0
LINE
  8
0
 10
12.5097
 20
-18.8062
 11
12.4134
 21
-18.0574
  0
LINE
  8
0
 10
12.4134
 20
-18.0574
 11
12.2839
 21
-17.4291
  0
LINE
  8
0
 10
12.2839
 20
-17.4291
 11
12.1386
 21
-16.9212
  0
LINE
  8
0
 10
12.1386
 20
-16.9212
 11
11.9949
 21
-16.5319
  0
LINE
  8
0
 10
11.9949
 20
-16.5319
 11
11.9735
 21
-16.5024
  0
LINE
  8
0
 10
11.9735
 20
-16.5024
 11
12.8412
 21
-15.8367
  0
LINE
  8
0
 10
12.8412
 20
-15.8367
 11
12.8641
 21
-15.8649
  0
LINE
  8
0
 10
12.8641
 20
-15.8649
 11
13.2029
 21
-16.1045
  0
LINE
  8
0
 10
13.2029
 20
-16.1045
 11
13.6559
 21
-16.3763
  0
LINE
  8
0
 10
13.6559
 20
-16.3763
 11
14.2293
 21
-16.6641
  0
LINE
  8
0
 10
14.2293
 20
-16.6641
 11
14.9276
 21
-16.9509
  0
LINE
  8
0
 10
14.9276
 20
-16.9509
 11
15.7534
 21
-17.2193
  0
LINE
  8
0
 10
15.7534
 20
-17.2193
 11
16.7071
 21
-17.4516
  0
LINE
  8
0
 10
16.7071
 20
-17.4516
 11
17.4516
 21
-16.7071
  0
LINE
  8
0
 10
17.4516
 20
-16.7071
 11
17.2193
 21
-15.7534
  0
LINE
  8
0
 10
17.2193
 20
-15.7534
 11
16.9509
 21
-14.9276
  0
LINE
  8
0
 10
16.9509
 20
-14.9276
 11
16.6641
 21
-14.2293
  0
LINE
  8
0
 10
16.6641
 20
-14.2293
 11
16.3763
 21
-13.6559
  0
LINE
  8
0
 10
16.3763
 20
-13.6559
 11
16.1045
 21
-13.2029
  0
LINE
  8
0
 10
16.1045
 20
-13.2029
 11
15.8649
 21
-12.8641
  0
LINE
  8
0
 10
15.8649
 20
-12.8641
 11
15.8367
 21
-12.8412
  0
LINE
  8
0
 10
15.8367
 20
-12.8412
 11
16.5024
 21
-11.9735
  0
LINE
  8
0
 10
16.5024
 20
-11.9735
 11
16.5319
 21
-11.9949
  0
LINE
  8
0
 10
16.5319
 20
-11.9949
 11
16.9212
 21
-12.1386
  0
LINE
  8
0
 10
16.9212
 20
-12.1386
 11
17.4291
 21
-12.2839
  0
LINE
  8
0
 10
17.4291
 20
-12.2839
 11
18.0574
 21
-12.4134
  0
LINE
  8
0
 10
18.0574
 20
-12.4134
 11
18.8062
 21
-12.5097
  0
LINE
  8
0
 10
18.8062
 20
-12.5097
 11
19.6733
 21
-12.5553
  0
LINE
  8
0
 10
19.6733
 20
-12.5553
 11
20.6546
 21
-12.5328
  0
LINE
  8
0
 10
20.6546
 20
-12.5328
 11
21.181
 21
-11.621
  0
LINE
  8
0
 10
21.181
 20
-11.621
 11
20.7099
 21
-10.7599
  0
LINE
  8
0
 10
20.7099
 20
-10.7599
 11
20.2369
 21
-10.0318
  0
LINE
  8
0
 10
20.2369
 20
-10.0318
 11
19.7791
 21
-9.4315
  0
LINE
  8
0
 10
19.7791
 20
-9.4315
 11
19.3527
 21
-8.95206
  0
LINE
  8
0
 10
19.3527
 20
-8.95206
 11
18.9729
 21
-8.58484
  0
LINE
  8
0
 10
18.9729
 20
-8.58484
 11
18.6538
 21
-8.3196
  0
LINE
  8
0
 10
18.6538
 20
-8.3196
 11
18.6206
 21
-8.30478
  0
LINE
  8
0
 10
18.6206
 20
-8.30478
 11
19.0391
 21
-7.29436
  0
LINE
  8
0
 10
19.0391
 20
-7.29436
 11
19.0731
 21
-7.30737
  0
LINE
  8
0
 10
19.0731
 20
-7.30737
 11
19.4863
 21
-7.34547
  0
LINE
  8
0
 10
19.4863
 20
-7.34547
 11
20.0145
 21
-7.35435
  0
LINE
  8
0
 10
20.0145
 20
-7.35435
 11
20.655
 21
-7.31683
  0
LINE
  8
0
 10
20.655
 20
-7.31683
 11
21.4032
 21
-7.21606
  0
LINE
  8
0
 10
21.4032
 20
-7.21606
 11
22.2525
 21
-7.03568
  0
LINE
  8
0
 10
22.2525
 20
-7.03568
 11
23.1945
 21
-6.75995
  0
LINE
  8
0
 10
23.1945
 20
-6.75995
 11
23.467
 21
-5.74297
  0
LINE
  8
0
 10
23.467
 20
-5.74297
 11
22.789
 21
-5.03316
  0
LINE
  8
0
 10
22.789
 20
-5.03316
 11
22.1437
 21
-4.45227
  0
LINE
  8
0
 10
22.1437
 20
-4.45227
 11
21.5462
 21
-3.99092
  0
LINE
  8
0
 10
21.5462
 20
-3.99092
 11
21.0102
 21
-3.63818
  0
LINE
  8
0
 10
21.0102
 20
-3.63818
 11
20.5484
 21
-3.38176
  0
LINE
  8
0
 10
20.5484
 20
-3.38176
 11
20.1714
 21
-3.20815
  0
LINE
  8
0
 10
20.1714
 20
-3.20815
 11
20.1355
 21
-3.20244
  0
LINE
  8
0
 10
20.1355
 20
-3.20244
 11
20.2783
 21
-2.11813
  0
LINE
  8
0
 10
20.2783
 20
-2.11813
 11
20.3145
 21
-2.12192
  0
LINE
  8
0
 10
20.3145
 20
-2.12192
 11
20.7235
 21
-2.05177
  0
LINE
  8
0
 10
20.7235
 20
-2.05177
 11
21.236
 21
-1.92363
  0
LINE
  8
0
 10
21.236
 20
-1.92363
 11
21.8449
 21
-1.72162
  0
LINE
  8
0
 10
21.8449
 20
-1.72162
 11
22.5415
 21
-1.43065
  0
LINE
  8
0
 10
22.5415
 20
-1.43065
 11
23.3152
 21
-1.03658
  0
LINE
  8
0
 10
23.3152
 20
-1.03658
 11
24.1538
 21
-0.526428
  0
LINE
  8
0
 10
24.1538
 20
-0.526428
 11
24.1538
 21
0.526428
  0
LINE
  8
0
 10
24.1538
 20
0.526428
 11
23.3152
 21
1.03658
  0
LINE
  8
0
 10
23.3152
 20
1.03658
 11
22.5415
 21
1.43065
  0
LINE
  8
0
 10
22.5415
 20
1.43065
 11
21.8449
 21
1.72162
  0
LINE
  8
0
 10
21.8449
 20
1.72162
 11
21.236
 21
1.92363
  0
LINE
  8
0
 10
21.236
 20
1.92363
 11
20.7235
 21
2.05177
  0
LINE
  8
0
 10
20.7235
 20
2.05177
 11
20.3145
 21
2.12192
  0
LINE
  8
0
 10
20.3145
 20
2.12192
 11
20.2783
 21
2.11813
  0
LINE
  8
0
 10
20.2783
 20
2.11813
 11
20.1355
 21
3.20244
  0
LINE
  8
0
 10
20.1355
 20
3.20244
 11
20.1714
 21
3.20815
  0
LINE
  8
0
 10
20.1714
 20
3.20815
 11
20.5484
 21
3.38176
  0
LINE
  8
0
 10
20.5484
 20
3.38176
 11
21.0102
 21
3.63818
  0
LINE
  8
0
 10
21.0102
 20
3.63818
 11
21.5462
 21
3.99092
  0
LINE
  8
0
 10
21.5462
 20
3.99092
 11
22.1437
 21
4.45227
  0
LINE
  8
0
 10
22.1437
 20
4.45227
 11
22.789
 21
5.03316
  0
LINE
  8
0
 10
22.789
 20
5.03316
 11
23.467
 21
5.74297
  0
LINE
  8
0
 10
23.467
 20
5.74297
 11
23.1945
 21
6.75995
  0
LINE
  8
0
 10
23.1945
 20
6.75995
 11
22.2525
 21
7.03568
  0
LINE
  8
0
 10
22.2525
 20
7.03568
 11
21.4032
 21
7.21606
  0
LINE
  8
0
 10
21.4032
 20
7.21606
 11
20.655
 21
7.31683
  0
LINE
  8
0
 10
20.655
 20
7.31683
 11
20.0145
 21
7.35435
  0
LINE
  8
0
 10
20.0145
 20
7.35435
 11
19.4863
 21
7.34547
  0
LINE
  8
0
 10
19.4863
 20
7.34547
 11
19.0731
 21
7.30737
  0
LINE
  8
0
 10
19.0731
 20
7.30737
 11
19.0391
 21
7.29436
  0
LINE
  8
0
 10
19.0391
 20
7.29436
 11
18.6206
 21
8.30478
  0
LINE
  8
0
 10
18.6206
 20
8.30478
 11
18.6538
 21
8.3196
  0
LINE
  8
0
 10
18.6538
 20
8.3196
 11
18.9729
 21
8.58484
  0
LINE
  8
0
 10
18.9729
 20
8.58484
 11
19.3527
 21
8.95206
  0
LINE
  8
0
 10
19.3527
 20
8.95206
 11
19.7791
 21
9.4315
  0
LINE
  8
0
 10
19.7791
 20
9.4315
 11
20.2369
 21
10.0318
  0
LINE
  8
0
 10
20.2369
 20
10.0318
 11
20.7099
 21
10.7599
  0
LINE
  8
0
 10
20.7099
 20
10.7599
 11
21.181
 21
11.621
  0
LINE
  8
0
 10
21.181
 20
11.621
 11
20.6546
 21
12.5328
  0
LINE
  8
0
 10
20.6546
 20
12.5328
 11
19.6733
 21
12.5553
  0
LINE
  8
0
 10
19.6733
 20
12.5553
 11
18.8062
 21
12.5097
  0
LINE
  8
0
 10
18.8062
 20
12.5097
 11
18.0574
 21
12.4134
  0
LINE
  8
0
 10
18.0574
 20
12.4134
 11
17.4291
 21
12.2839
  0
LINE
  8
0
 10
17.4291
 20
12.2839
 11
16.9212
 21
12.1386
  0
LINE
  8
0
 10
16.9212
 20
12.1386
 11
16.5319
 21
11.9949
  0
LINE
  8
0
 10
16.5319
 20
11.9949
 11
16.5024
 21
11.9735
  0
LINE
  8
0
 10
16.5024
 20
11.9735
 11
15.8367
 21
12.8412
  0
LINE
  8
0
 10
15.8367
 20
12.8412
 11
15.8649
 21
12.8641
  0
LINE
  8
0
 10
15.8649
 20
12.8641
 11
16.1045
 21
13.2029
  0
LINE
  8
0
 10
16.1045
 20
13.2029
 11
16.3763
 21
13.6559
  0
LINE
  8
0
 10
16.3763
 20
13.6559
 11
16.6641
 21
14.2293
  0
LINE
  8
0
 10
16.6641
 20
14.2293
 11
16.9509
 21
14.9276
  0
LINE
  8
0
 10
16.9509
 20
14.9276
 11
17.2193
 21
15.7534
  0
LINE
  8
0
 10
17.2193
 20
15.7534
 11
17.4516
 21
16.7071
  0
LINE
  8
0
 10
17.4516
 20
16.7071
 11
16.7071
 21
17.4516
  0
LINE
  8
0
 10
16.7071
 20
17.4516
 11
15.7534
 21
17.2193
  0
LINE
  8
0
 10
15.7534
 20
17.2193
 11
14.9276
 21
16.9509
  0
LINE
  8
0
 10
14.9276
 20
16.9509
 11
14.2293
 21
16.6641
  0
LINE
  8
0
 10
14.2293
 20
16.6641
 11
13.6559
 21
16.3763
  0
LINE
  8
0
 10
13.6559
 20
16.3763
 11
13.2029
 21
16.1045
  0
LINE
  8
0
 10
13.2029
 20
16.1045
 11
12.8641
 21
15.8649
  0
LINE
  8
0
 10
12.8641
 20
15.8649
 11
12.8412
 21
15.8367
  0
LINE
  8
0
 10
12.8412
 20
15.8367
 11
11.9735
 21
16.5024
  0
LINE
  8
0
 10
11.9735
 20
16.5024
 11
11.9949
 21
16.5319
  0
LINE
  8
0
 10
11.9949
 20
16.5319
 11
12.1386
 21
16.9212
  0
LINE
  8
0
 10
12.1386
 20
16.9212
 11
12.2839
 21
17.4291
  0
LINE
  8
0
 10
12.2839
 20
17.4291
 11
12.4134
 21
18.0574
  0
LINE
  8
0
 10
12.4134
 20
18.0574
 11
12.5097
 21
18.8062
  0
LINE
  8
0
 10
12.5097
 20
18.8062
 11
12.5553
 21
19.6733
  0
LINE
  8
0
 10
12.5553
 20
19.6733
 11
12.5328
 21
20.6546
  0
LINE
  8
0
 10
12.5328
 20
20.6546
 11
11.621
 21
21.181
  0
LINE
  8
0
 10
11.621
 20
21.181
 11
10.7599
 21
20.7099
  0
LINE
  8
0
 10
10.7599
 20
20.7099
 11
10.0318
 21
20.2369
  0
LINE
  8
0
 10
10.0318
 20
20.2369
 11
9.4315
 21
19.7791
  0
LINE
  8
0
 10
9.4315
 20
19.7791
 11
8.95206
 21
19.3527
  0
LINE
  8
0
 10
8.95206
 20
19.3527
 11
8.58484
 21
18.9729
  0
LINE
  8
0
 10
8.58484
 20
18.9729
 11
8.3196
 21
18.6538
  0
LINE
  8
0
 10
8.3196
 20
18.6538
 11
8.30478
 21
18.6206
  0
LINE
  8
0
 10
8.30478
 20
18.6206
 11
7.29436
 21
19.0391
  0
LINE
  8
0
 10
7.29436
 20
19.0391
 11
7.30737
 21
19.0731
  0
LINE
  8
0
 10
7.30737
 20
19.0731
 11
7.34547
 21
19.4863
  0
LINE
  8
0
 10
7.34547
 20
19.4863
 11
7.35435
 21
20.0145
  0
LINE
  8
0
 10
7.35435
 20
20.0145
 11
7.31683
 21
20.655
  0
LINE
  8
0
 10
7.31683
 20
20.655
 11
7.21606
 21
21.4032
  0
LINE
  8
0
 10
7.21606
 20
21.4032
 11
7.03568
 21
22.2525
  0
LINE
  8
0
 10
7.03568
 20
22.2525
 11
6.75995
 21
23.1945
  0
LINE
  8
0
 10
6.75995
 20
23.1945
 11
5.74297
 21
23.467
  0
LINE
  8
0
 10
5.74297
 20
23.467
 11
5.03316
 21
22.789
  0
LINE
  8
0
 10
5.03316
 20
22.789
 11
4.45227
 21
22.1437
  0
LINE
  8
0
 10
4.45227
 20
22.1437
 11
3.99092
 21
21.5462
  0
LINE
  8
0
 10
3.99092
 20
21.5462
 11
3.63818
 21
21.0102
  0
LINE
  8
0
 10
3.63818
 20
21.0102
 11
3.38176
 21
20.5484
  0
LINE
  8
0
 10
3.38176
 20
20.5484
 11
3.20815
 21
20.1714
  0
LINE
  8
0
 10
3.20815
 20
20.1714
 11
3.20244
 21
20.1355
  0
LINE
  8
0
 10
3.20244
 20
20.1355
 11
2.11813
 21
20.2783
  0
LINE
  8
0
 10
2.11813
 20
20.2783
 11
2.12192
 21
20.3145
  0
LINE
  8
0
 10
2.12192
 20
20.3145
 11
2.05177
 21
20.7235
  0
LINE
  8
0
 10
2.05177
 20
20.7235
 11
1.92363
 21
21.236
  0
LINE
  8
0
 10
1.92363
 20
21.236
 11
1.72162
 21
21.8449
  0
LINE
  8
0
 10
1.72162
 20
21.8449
 11
1.43065
 21
22.5415
  0
LINE
  8
0
 10
1.43065
 20
22.5415
 11
1.03658
 21
23.3152
  0
LINE
  8
0
 10
1.03658
 20
23.3152
 11
0.526428
 21
24.1538
  0
LINE
  8
0
 10
0.526428
 20
24.1538
 11
-0.526428
 21
24.1538
  0
LINE
  8
0
 10
-0.526428
 20
24.1538
 11
-1.03658
 21
23.3152
  0
LINE
  8
0
 10
-1.03658
 20
23.3152
 11
-1.43065
 21
22.5415
  0
LINE
  8
0
 10
-1.43065
 20
22.5415
 11
-1.72162
 21
21.8449
  0
LINE
  8
0
 10
-1.72162
 20
21.8449
 11
-1.92363
 21
21.236
  0
LINE
  8
0
 10
-1.92363
 20
21.236
 11
-2.05177
 21
20.7235
  0
LINE
  8
0
 10
-2.05177
 20
20.7235
 11
-2.12192
 21
20.3145
  0
LINE
  8
0
 10
-2.12192
 20
20.3145
 11
-2.11813
 21
20.2783
  0
LINE
  8
0
 10
-2.11813
 20
20.2783
 11
-3.20244
 21
20.1355
  0
LINE
  8
0
 10
-3.20244
 20
20.1355
 11
-3.20815
 21
20.1714
  0
LINE
  8
0
 10
-3.20815
 20
20.1714
 11
-3.38176
 21
20.5484
  0
LINE
  8
0
 10
-3.38176
 20
20.5484
 11
-3.63818
 21
21.0102
  0
LINE
  8
0
 10
-3.63818
 20
21.0102
 11
-3.99092
 21
21.5462
  0
LINE
  8
0
 10
-3.99092
 20
21.5462
 11
-4.45227
 21
22.1437
  0
LINE
  8
0
 10
-4.45227
 20
22.1437
 11
-5.03316
 21
22.789
  0
LINE
  8
0
 10
-5.03316
 20
22.789
 11
-5.74297
 21
23.467
  0
LINE
  8
0
 10
-5.74297
 20
23.467
 11
-6.75995
 21
23.1945
  0
LINE
  8
0
 10
-6.75995
 20
23.1945
 11
-7.03568
 21
22.2525
  0
LINE
  8
0
 10
-7.03568
 20
22.2525
 11
-7.21606
 21
21.4032
  0
LINE
  8
0
 10
-7.21606
 20
21.4032
 11
-7.31683
 21
20.655
  0
LINE
  8
0
 10
-7.31683
 20
20.655
 11
-7.35435
 21
20.0145
  0
LINE
  8
0
 10
-7.35435
 20
20.0145
 11
-7.34547
 21
19.4863
  0
LINE
  8
0
 10
-7.34547
 20
19.4863
 11
-7.30737
 21
19.0731
  0
LINE
  8
0
 10
-7.30737
 20
19.0731
 11
-7.29436
 21
19.0391
  0
LINE
  8
0
 10
-7.29436
 20
19.0391
 11
-8.30478
 21
18.6206
  0
LINE
  8
0
 10
-8.30478
 20
18.6206
 11
-8.3196
 21
18.6538
  0
LINE
  8
0
 10
-8.3196
 20
18.6538
 11
-8.58484
 21
18.9729
  0
LINE
  8
0
 10
-8.58484
 20
18.9729
 11
-8.95206
 21
19.3527
  0
LINE
  8
0
 10
-8.95206
 20
19.3527
 11
-9.4315
 21
19.7791
  0
LINE
  8
0
 10
-9.4315
 20
19.7791
 11
-10.0318
 21
20.2369
  0
LINE
  8
0
 10
-10.0318
 20
20.2369
 11
-10.7599
 21
20.7099
  0
LINE
  8
0
 10
-10.7599
 20
20.7099
 11
-11.621
 21
21.181
  0
LINE
  8
0
 10
-11.621
 20
21.181
 11
-12.5328
 21
20.6546
  0
LINE
  8
0
 10
-12.5328
 20
20.6546
 11
-12.5553
 21
19.6733
  0
LINE
  8
0
 10
-12.5553
 20
19.6733
 11
-12.5097
 21
18.8062
  0
LINE
  8
0
 10
-12.5097
 20
18.8062
 11
-12.4134
 21
18.0574
  0
LINE
  8
0
 10
-12.4134
 20
18.0574
 11
-12.2839
 21
17.4291
  0
LINE
  8
0
 10
-12.2839
 20
17.4291
 11
-12.1386
 21
16.9212
  0
LINE
  8
0
 10
-12.1386
 20
16.9212
 11
-11.9949
 21
16.5319
  0
LINE
  8
0
 10
-11.9949
 20
16.5319
 11
-11.9735
 21
16.5024
  0
LINE
  8
0
 10
-11.9735
 20
16.5024
 11
-12.8412
 21
15.8367
  0
LINE
  8
0
 10
-12.8412
 20
15.8367
 11
-12.8641
 21
15.8649
  0
LINE
  8
0
 10
-12.8641
 20
15.8649
 11
-13.2029
 21
16.1045
  0
LINE
  8
0
 10
-13.2029
 20
16.1045
 11
-13.6559
 21
16.3763
  0
LINE
  8
0
 10
-13.6559
 20
16.3763
 11
-14.2293
 21
16.6641
  0
LINE
  8
0
 10
-14.2293
 20
16.6641
 11
-14.9276
 21
16.9509
  0
LINE
  8
0
 10
-14.9276
 20
16.9509
 11
-15.7534
 21
17.2193
  0
LINE
  8
0
 10
-15.7534
 20
17.2193
 11
-16.7071
 21
17.4516
  0
LINE
  8
0
 10
-16.7071
 20
17.4516
 11
-17.4516
 21
16.7071
  0
LINE
  8
0
 10
-17.4516
 20
16.7071
 11
-17.2193
 21
15.7534
  0
LINE
  8
0
 10
-17.2193
 20
15.7534
 11
-16.9509
 21
14.9276
  0
LINE
  8
0
 10
-16.9509
 20
14.9276
 11
-16.6641
 21
14.2293
  0
LINE
  8
0
 10
-16.6641
 20
14.2293
 11
-16.3763
 21
13.6559
  0
LINE
  8
0
 10
-16.3763
 20
13.6559
 11
-16.1045
 21
13.2029
  0
LINE
  8
0
 10
-16.1045
 20
13.2029
 11
-15.8649
 21
12.8641
  0
LINE
  8
0
 10
-15.8649
 20
12.8641
 11
-15.8367
 21
12.8412
  0
LINE
  8
0
 10
-15.8367
 20
12.8412
 11
-16.5024
 21
11.9735
  0
LINE
  8
0
 10
-16.5024
 20
11.9735
 11
-16.5319
 21
11.9949
  0
LINE
  8
0
 10
-16.5319
 20
11.9949
 11
-16.9212
 21
12.1386
  0
LINE
  8
0
 10
-16.9212
 20
12.1386
 11
-17.4291
 21
12.2839
  0
LINE
  8
0
 10
-17.4291
 20
12.2839
 11
-18.0574
 21
12.4134
  0
LINE
  8
0
 10
-18.0574
 20
12.4134
 11
-18.8062
 21
12.5097
  0
LINE
  8
0
 10
-18.8062
 20
12.5097
 11
-19.6733
 21
12.5553
  0
LINE
  8
0
 10
-19.6733
 20
12.5553
 11
-20.6546
 21
12.5328
  0
LINE
  8
0
 10
-20.6546
 20
12.5328
 11
-21.181
 21
11.621
  0
LINE
  8
0
 10
-21.181
 20
11.621
 11
-20.7099
 21
10.7599
  0
LINE
  8
0
 10
-20.7099
 20
10.7599
 11
-20.2369
 21
10.0318
  0
LINE
  8
0
 10
-20.2369
 20
10.0318
 11
-19.7791
 21
9.4315
  0
LINE
  8
0
 10
-19.7791
 20
9.4315
 11
-19.3527
 21
8.95206
  0
LINE
  8
0
 10
-19.3527
 20
8.95206
 11
-18.9729
 21
8.58484
  0
LINE
  8
0
 10
-18.9729
 20
8.58484
 11
-18.6538
 21
8.3196
  0
LINE
  8
0
 10
-18.6538
 20
8.3196
 11
-18.6206
 21
8.30478
  0
LINE
  8
0
 10
-18.6206
 20
8.30478
 11
-19.0391
 21
7.29436
  0
LINE
  8
0
 10
-19.0391
 20
7.29436
 11
-19.0731
 21
7.30737
  0
LINE
  8
0
 10
-19.0731
 20
7.30737
 11
-19.4863
 21
7.34547
  0
LINE
  8
0
 10
-19.4863
 20
7.34547
 11
-20.0145
 21
7.35435
  0
LINE
  8
0
 10
-20.0145
 20
7.35435
 11
-20.655
 21
7.31683
  0
LINE
  8
0
 10
-20.655
 20
7.31683
 11
-21.4032
 21
7.21606
  0
LINE
  8
0
 10
-21.4032
 20
7.21606
 11
-22.2525
 21
7.03568
  0
LINE
  8
0
 10
-22.2525
 20
7.03568
 11
-23.1945
 21
6.75995
  0
LINE
  8
0
 10
-23.1945
 20
6.75995
 11
-23.467
 21
5.74297
  0
LINE
  8
0
 10
-23.467
 20
5.74297
 11
-22.789
 21
5.03316
  0
LINE
  8
0
 10
-22.789
 20
5.03316
 11
-22.1437
 21
4.45227
  0
LINE
  8
0
 10
-22.1437
 20
4.45227
 11
-21.5462
 21
3.99092
  0
LINE
  8
0
 10
-21.5462
 20
3.99092
 11
-21.0102
 21
3.63818
  0
LINE
  8
0
 10
-21.0102
 20
3.63818
 11
-20.5484
 21
3.38176
  0
LINE
  8
0
 10
-20.5484
 20
3.38176
 11
-20.1714
 21
3.20815
  0
LINE
  8
0
 10
-20.1714
 20
3.20815
 11
-20.1355
 21
3.20244
  0
LINE
  8
0
 10
-20.1355
 20
3.20244
 11
-20.2783
 21
2.11813
  0
LINE
  8
0
 10
-20.2783
 20
2.11813
 11
-20.3145
 21
2.12192
  0
LINE
  8
0
 10
-20.3145
 20
2.12192
 11
-20.7235
 21
2.05177
  0
LINE
  8
0
 10
-20.7235
 20
2.05177
 11
-21.236
 21
1.92363
  0
LINE
  8
0
 10
-21.236
 20
1.92363
 11
-21.8449
 21
1.72162
  0
LINE
  8
0
 10
-21.8449
 20
1.72162
 11
-22.5415
 21
1.43065
  0
LINE
  8
0
 10
-22.5415
 20
1.43065
 11
-23.3152
 21
1.03658
  0
LINE
  8
0
 10
-23.3152
 20
1.03658
 11
-24.1538
 21
0.526428
  0
LINE
  8
0
 10
-24.1538
 20
0.526428
 11
-24.1538
 21
-0.526428
  0
LINE
  8
0
 10
-24.1538
 20
-0.526428
 11
-23.3152
 21
-1.03658
  0
LINE
  8
0
 10
-23.3152
 20
-1.03658
 11
-22.5415
 21
-1.43065
  0
LINE
  8
0
 10
-22.5415
 20
-1.43065
 11
-21.8449
 21
-1.72162
  0
LINE
  8
0
 10
-21.8449
 20
-1.72162
 11
-21.236
 21
-1.92363
  0
LINE
  8
0
 10
-21.236
 20
-1.92363
 11
-20.7235
 21
-2.05177
  0
LINE
  8
0
 10
-20.7235
 20
-2.05177
 11
-20.3145
 21
-2.12192
  0
LINE
  8
0
 10
-20.3145
 20
-2.12192
 11
-20.2783
 21
-2.11813
  0
LINE
  8
0
 10
-20.2783
 20
-2.11813
 11
-20.1355
 21
-3.20244
  0
LINE
  8
0
 10
-20.1355
 20
-3.20244
 11
-20.1714
 21
-3.20815
  0
LINE
  8
0
 10
-20.1714
 20
-3.20815
 11
-20.5484
 21
-3.38176
  0
LINE
  8
0
 10
-20.5484
 20
-3.38176
 11
-21.0102
 21
-3.63818
  0
LINE
  8
0
 10
-21.0102
 20
-3.63818
 11
-21.5462
 21
-3.99092
  0
LINE
  8
0
 10
-21.5462
 20
-3.99092
 11
-22.1437
 21
-4.45227
  0
LINE
  8
0
 10
-22.1437
 20
-4.45227
 11
-22.789
 21
-5.03316
  0
LINE
  8
0
 10
-22.789
 20
-5.03316
 11
-23.467
 21
-5.74297
  0
LINE
  8
0
 10
-23.467
 20
-5.74297
 11
-23.1945
 21
-6.75995
  0
LINE
  8
0
 10
-23.1945
 20
-6.75995
 11
-22.2525
 21
-7.03568
  0
LINE
  8
0
 10
-22.2525
 20
-7.03568
 11
-21.4032
 21
-7.21606
  0
LINE
  8
0
 10
-21.4032
 20
-7.21606
 11
-20.655
 21
-7.31683
  0
LINE
  8
0
 10
-20.655
 20
-7.31683
 11
-20.0145
 21
-7.35435
  0
LINE
  8
0
 10
-20.0145
 20
-7.35435
 11
-19.4863
 21
-7.34547
  0
LINE
  8
0
 10
-19.4863
 20
-7.34547
 11
-19.0731
 21
-7.30737
  0
LINE
  8
0
 10
-19.0731
 20
-7.30737
 11
-19.0391
 21
-7.29436
  0
LINE
  8
0
 10
-19.0391
 20
-7.29436
 11
-18.6206
 21
-8.30478
  0
LINE
  8
0
 10
-18.6206
 20
-8.30478
 11
-18.6538
 21
-8.3196
  0
LINE
  8
0
 10
-18.6538
 20
-8.3196
 11
-18.9729
 21
-8.58484
  0
LINE
  8
0
 10
-18.9729
 20
-8.58484
 11
-19.3527
 21
-8.95206
  0
LINE
  8
0
 10
-19.3527
 20
-8.95206
 11
-19.7791
 21
-9.4315
  0
LINE
  8
0
 10
-19.7791
 20
-9.4315
 11
-20.2369
 21
-10.0318
  0
LINE
  8
0
 10
-20.2369
 20
-10.0318
 11
-20.7099
 21
-10.7599
  0
LINE
  8
0
 10
-20.7099
 20
-10.7599
 11
-21.181
 21
-11.621
  0
LINE
  8
0
 10
-21.181
 20
-11.621
 11
-20.6546
 21
-12.5328
  0
LINE
  8
0
 10
-20.6546
 20
-12.5328
 11
-19.6733
 21
-12.5553
  0
LINE
  8
0
 10
-19.6733
 20
-12.5553
 11
-18.8062
 21
-12.5097
  0
LINE
  8
0
 10
-18.8062
 20
-12.5097
 11
-18.0574
 21
-12.4134
  0
LINE
  8
0
 10
-18.0574
 20
-12.4134
 11
-17.4291
 21
-12.2839
  0
LINE
  8
0
 10
-17.4291
 20
-12.2839
 11
-16.9212
 21
-12.1386
  0
LINE
  8
0
 10
-16.9212
 20
-12.1386
 11
-16.5319
 21
-11.9949
  0
LINE
  8
0
 10
-16.5319
 20
-11.9949
 11
-16.5024
 21
-11.9735
  0
LINE
  8
0
 10
-16.5024
 20
-11.9735
 11
-15.8367
 21
-12.8412
  0
LINE
  8
0
 10
-15.8367
 20
-12.8412
 11
-15.8649
 21
-12.8641
  0
LINE
  8
0
 10
-15.8649
 20
-12.8641
 11
-16.1045
 21
-13.2029
  0
LINE
  8
0
 10
-16.1045
 20
-13.2029
 11
-16.3763
 21
-13.6559
  0
LINE
  8
0
 10
-16.3763
 20
-13.6559
 11
-16.6641
 21
-14.2293
  0
LINE
  8
0
 10
-16.6641
 20
-14.2293
 11
-16.9509
 21
-14.9276
  0
LINE
  8
0
 10
-16.9509
 20
-14.9276
 11
-17.2193
 21
-15.7534
  0
LINE
  8
0
 10
-17.2193
 20
-15.7534
 11
-17.4516
 21
-16.7071
  0
LINE
  8
0
 10
-17.4516
 20
-16.7071
 11
-16.7071
 21
-17.4516
  0
LINE
  8
0
 10
-16.7071
 20
-17.4516
 11
-15.7534
 21
-17.2193
  0
LINE
  8
0
 10
-15.7534
 20
-17.2193
 11
-14.9276
 21
-16.9509
  0
LINE
  8
0
 10
-14.9276
 20
-16.9509
 11
-14.2293
 21
-16.6641
  0
LINE
  8
0
 10
-14.2293
 20
-16.6641
 11
-13.6559
 21
-16.3763
  0
LINE
  8
0
 10
-13.6559
 20
-16.3763
 11
-13.2029
 21
-16.1045
  0
LINE
  8
0
 10
-13.2029
 20
-16.1045
 11
-12.8641
 21
-15.8649
  0
LINE
  8
0
 10
-12.8641
 20
-15.8649
 11
-12.8412
 21
-15.8367
  0
LINE
  8
0
 10
-12.8412
 20
-15.8367
 11
-11.9735
 21
-16.5024
  0
LINE
  8
0
 10
-11.9735
 20
-16.5024
 11
-11.9949
 21
-16.5319
  0
LINE
  8
0
 10
-11.9949
 20
-16.5319
 11
-12.1386
 21
-16.9212
  0
LINE
  8
0
 10
-12.1386
 20
-16.9212
 11
-12.2839
 21
-17.4291
  0
LINE
  8
0
 10
-12.2839
 20
-17.4291
 11
-12.4134
 21
-18.0574
  0
LINE
  8
0
 10
-12.4134
 20
-18.0574
 11
-12.5097
 21
-18.8062
  0
LINE
  8
0
 10
-12.5097
 20
-18.8062
 11
-12.5553
 21
-19.6733
  0
LINE
  8
0
 10
-12.5553
 20
-19.6733
 11
-12.5328
 21
-20.6546
  0
LINE
  8
0
 10
-12.5328
 20
-20.6546
 11
-11.621
 21
-21.181
  0
LINE
  8
0
 10
-11.621
 20
-21.181
 11
-10.7599
 21
-20.7099
  0
LINE
  8
0
 10
-10.7599
 20
-20.7099
 11
-10.0318
 21
-20.2369
  0
LINE
  8
0
 10
-10.0318
 20
-20.2369
 11
-9.4315
 21
-19.7791
  0
LINE
  8
0
 10
-9.4315
 20
-19.7791
 11
-8.95206
 21
-19.3527
  0
LINE
  8
0
 10
-8.95206
 20
-19.3527
 11
-8.58484
 21
-18.9729
  0
LINE
  8
0
 10
-8.58484
 20
-18.9729
 11
-8.3196
 21
-18.6538
  0
LINE
  8
0
 10
-8.3196
 20
-18.6538
 11
-8.30478
 21
-18.6206
  0
LINE
  8
0
 10
-8.30478
 20
-18.6206
 11
-7.29436
 21
-19.0391
  0
LINE
  8
0
 10
-7.29436
 20
-19.0391
 11
-7.30737
 21
-19.0731
  0
LINE
  8
0
 10
-7.30737
 20
-19.0731
 11
-7.34547
 21
-19.4863
  0
LINE
  8
0
 10
-7.34547
 20
-19.4863
 11
-7.35435
 21
-20.0145
  0
LINE
  8
0
 10
-7.35435
 20
-20.0145
 11
-7.31683
 21
-20.655
  0
LINE
  8
0
 10
-7.31683
 20
-20.655
 11
-7.21606
 21
-21.4032
  0
LINE
  8
0
 10
-7.21606
 20
-21.4032
 11
-7.03568
 21
-22.2525
  0
LINE
  8
0
 10
-7.03568
 20
-22.2525
 11
-6.75995
 21
-23.1945
  0
LINE
  8
0
 10
-6.75995
 20
-23.1945
 11
-5.74297
 21
-23.467
  0
LINE
  8
0
 10
-5.74297
 20
-23.467
 11
-5.03316
 21
-22.789
  0
LINE
  8
0
 10
-5.03316
 20
-22.789
 11
-4.45227
 21
-22.1437
  0
LINE
  8
0
 10
-4.45227
 20
-22.1437
 11
-3.99092
 21
-21.5462
  0
LINE
  8
0
 10
-3.99092
 20
-21.5462
 11
-3.63818
 21
-21.0102
  0
LINE
  8
0
 10
-3.63818
 20
-21.0102
 11
-3.38176
 21
-20.5484
  0
LINE
  8
0
 10
-3.38176
 20
-20.5484
 11
-3.20815
 21
-20.1714
  0
LINE
  8
0
 10
-3.20815
 20
-20.1714
 11
-3.20244
 21
-20.1355
  0
LINE
  8
0
 10
-3.20244
 20
-20.1355
 11
-2.11813
 21
-20.2783
  0
LINE
  8
0
 10
-2.11813
 20
-20.2783
 11
-2.12192
 21
-20.3145
  0
LINE
  8
0
 10
-2.12192
 20
-20.3145
 11
-2.05177
 21
-20.7235
  0
LINE
  8
0
 10
-2.05177
 20
-20.7235
 11
-1.92363
 21
-21.236
  0
LINE
  8
0
 10
-1.92363
 20
-21.236
 11
-1.72162
 21
-21.8449
  0
LINE
  8
0
 10
-1.72162
 20
-21.8449
 11
-1.43065
 21
-22.5415
  0
LINE
  8
0
 10
-1.43065
 20
-22.5415
 11
-1.03658
 21
-23.3152
  0
LINE
  8
0
 10
-1.03658
 20
-23.3152
 11
-0.526428
 21
-24.1538
  0
LINE
  8
0
 10
-0.526428
 20
-24.1538
 11
0.526428
 21
-24.1538
  0
LINE
  8
0
 10
0.526428
 20
-24.1538
 11
1.03658
 21
-23.3152
  0
LINE
  8
0
 10
-0.562134
 20
12.0531
 11
-1.27733
 21
12.2855
  0
LINE
  8
0
 10
-1.27733
 20
12.2855
 11
-1.91226
 21
12.6884
  0
LINE
  8
0
 10
-1.91226
 20
12.6884
 11
-2.42705
 21
13.2366
  0
LINE
  8
0
 10
-2.42705
 20
13.2366
 11
-2.78932
 21
13.8956
  0
LINE
  8
0
 10
-2.78932
 20
13.8956
 11
-2.97633
 21
14.624
  0
LINE
  8
0
 10
-2.97633
 20
14.624
 11
-2.97633
 21
15.376
  0
LINE
  8
0
 10
-2.97633
 20
15.376
 11
-2.78932
 21
16.1044
  0
LINE
  8
0
 10
-2.78932
 20
16.1044
 11
-2.42705
 21
16.7634
  0
LINE
  8
0
 10
-2.42705
 20
16.7634
 11
-1.91226
 21
17.3115
  0
LINE
  8
0
 10
-1.91226
 20
17.3115
 11
-1.27733
 21
17.7145
  0
LINE
  8
0
 10
-1.27733
 20
17.7145
 11
-0.562134
 21
17.9469
  0
LINE
  8
0
 10
-0.562134
 20
17.9469
 11
0.18837
 21
17.9941
  0
LINE
  8
0
 10
0.18837
 20
17.9941
 11
0.927048
 21
17.8532
  0
LINE
  8
0
 10
0.927048
 20
17.8532
 11
1.60747
 21
17.533
  0
LINE
  8
0
 10
1.60747
 20
17.533
 11
2.1869
 21
17.0536
  0
LINE
  8
0
 10
2.1869
 20
17.0536
 11
2.62891
 21
16.4453
  0
LINE
  8
0
 10
2.62891
 20
16.4453
 11
2.90575
 21
15.7461
  0
LINE
  8
0
 10
2.90575
 20
15.7461
 11
3
 21
15
  0
LINE
  8
0
 10
3
 20
15
 11
2.90575
 21
14.2539
  0
LINE
  8
0
 10
2.90575
 20
14.2539
 11
2.62891
 21
13.5547
  0
LINE
  8
0
 10
2.62891
 20
13.5547
 11
2.1869
 21
12.9464
  0
LINE
  8
0
 10
2.1869
 20
12.9464
 11
1.60747
 21
12.467
  0
LINE
  8
0
 10
1.60747
 20
12.467
 11
0.927048
 21
12.1468
  0
LINE
  8
0
 10
0.927048
 20
12.1468
 11
0.18837
 21
12.0059
  0
LINE
  8
0
 10
0.18837
 20
12.0059
 11
-0.562134
 21
12.0531
  0
LINE
  8
0
 10
10.1373
 20
7.64352
 11
9.41515
 21
7.85333
  0
LINE
  8
0
 10
9.41515
 20
7.85333
 11
8.76787
 21
8.23613
  0
LINE
  8
0
 10
8.76787
 20
8.23613
 11
8.23613
 21
8.76787
  0
LINE
  8
0
 10
8.23613
 20
8.76787
 11
7.85333
 21
9.41515
  0
LINE
  8
0
 10
7.85333
 20
9.41515
 11
7.64352
 21
10.1373
  0
LINE
  8
0
 10
7.64352
 20
10.1373
 11
7.6199
 21
10.8889
  0
LINE
  8
0
 10
7.6199
 20
10.8889
 11
7.78395
 21
11.6228
  0
LINE
  8
0
 10
7.78395
 20
11.6228
 11
8.12535
 21
12.2928
  0
LINE
  8
0
 10
8.12535
 20
12.2928
 11
8.62267
 21
12.8569
  0
LINE
  8
0
 10
8.62267
 20
12.8569
 11
9.24463
 21
13.2796
  0
LINE
  8
0
 10
9.24463
 20
13.2796
 11
9.95216
 21
13.5343
  0
LINE
  8
0
 10
9.95216
 20
13.5343
 11
10.7008
 21
13.6051
  0
LINE
  8
0
 10
10.7008
 20
13.6051
 11
11.4436
 21
13.4875
  0
LINE
  8
0
 10
11.4436
 20
13.4875
 11
12.1337
 21
13.1888
  0
LINE
  8
0
 10
12.1337
 20
13.1888
 11
12.7279
 21
12.7279
  0
LINE
  8
0
 10
12.7279
 20
12.7279
 11
13.1888
 21
12.1337
  0
LINE
  8
0
 10
13.1888
 20
12.1337
 11
13.4875
 21
11.4436
  0
LINE
  8
0
 10
13.4875
 20
11.4436
 11
13.6051
 21
10.7008
  0
LINE
  8
0
 10
13.6051
 20
10.7008
 11
13.5343
 21
9.95216
  0
LINE
  8
0
 10
13.5343
 20
9.95216
 11
13.2796
 21
9.24463
  0
LINE
  8
0
 10
13.2796
 20
9.24463
 11
12.8569
 21
8.62267
  0
LINE
  8
0
 10
12.8569
 20
8.62267
 11
12.2928
 21
8.12535
  0
LINE
  8
0
 10
12.2928
 20
8.12535
 11
11.6228
 21
7.78395
  0
LINE
  8
0
 10
11.6228
 20
7.78395
 11
10.8889
 21
7.6199
  0
LINE
  8
0
 10
10.8889
 20
7.6199
 11
10.1373
 21
7.64352
  0
LINE
  8
0
 10
-11.0759
 20
7.64352
 11
-11.798
 21
7.85333
  0
LINE
  8
0
 10
-11.798
 20
7.85333
 11
-12.4453
 21
8.23613
  0
LINE
  8
0
 10
-12.4453
 20
8.23613
 11
-12.9771
 21
8.76787
  0
LINE
  8
0
 10
-12.9771
 20
8.76787
 11
-13.3599
 21
9.41515
  0
LINE
  8
0
 10
-13.3599
 20
9.41515
 11
-13.5697
 21
10.1373
  0
LINE
  8
0
 10
-13.5697
 20
10.1373
 11
-13.5933
 21
10.8889
  0
LINE
  8
0
 10
-13.5933
 20
10.8889
 11
-13.4292
 21
11.6228
  0
LINE
  8
0
 10
-13.4292
 20
11.6228
 11
-13.0878
 21
12.2928
  0
LINE
  8
0
 10
-13.0878
 20
12.2928
 11
-12.5905
 21
12.8569
  0
LINE
  8
0
 10
-12.5905
 20
12.8569
 11
-11.9686
 21
13.2796
  0
LINE
  8
0
 10
-11.9686
 20
13.2796
 11
-11.261
 21
13.5343
  0
LINE
  8
0
 10
-11.261
 20
13.5343
 11
-10.5124
 21
13.6051
  0
LINE
  8
0
 10
-10.5124
 20
13.6051
 11
-9.76962
 21
13.4875
  0
LINE
  8
0
 10
-9.76962
 20
13.4875
 11
-9.07947
 21
13.1888
  0
LINE
  8
0
 10
-9.07947
 20
13.1888
 11
-8.48528
 21
12.7279
  0
LINE
  8
0
 10
-8.48528
 20
12.7279
 11
-8.02437
 21
12.1337
  0
LINE
  8
0
 10
-8.02437
 20
12.1337
 11
-7.72571
 21
11.4436
  0
LINE
  8
0
 10
-7.72571
 20
11.4436
 11
-7.60808
 21
10.7008
  0
LINE
  8
0
 10
-7.60808
 20
10.7008
 11
-7.67885
 21
9.95216
  0
LINE
  8
0
 10
-7.67885
 20
9.95216
 11
-7.93358
 21
9.24463
  0
LINE
  8
0
 10
-7.93358
 20
9.24463
 11
-8.35626
 21
8.62267
  0
LINE
  8
0
 10
-8.35626
 20
8.62267
 11
-8.92035
 21
8.12535
  0
LINE
  8
0
 10
-8.92035
 20
8.12535
 11
-9.59038
 21
7.78395
  0
LINE
  8
0
 10
-9.59038
 20
7.78395
 11
-10.3243
 21
7.6199
  0
LINE
  8
0
 10
-10.3243
 20
7.6199
 11
-11.0759
 21
7.64352
  0
LINE
  8
0
 10
-0.140213
 20
-2.9734
 11
-0.469299
 21
-2.96306
  0
LINE
  8
0
 10
-0.469299
 20
-2.96306
 11
-0.514816
 21
-2.94983
  0
LINE
  8
0
 10
-0.514816
 20
-2.94983
 11
-0.562134
 21
-2.94685
  0
LINE
  8
0
 10
-0.562134
 20
-2.94685
 11
-0.875275
 21
-2.84511
  0
LINE
  8
0
 10
-0.875275
 20
-2.84511
 11
-1.19144
 21
-2.75325
  0
LINE
  8
0
 10
-1.19144
 20
-2.75325
 11
-1.23224
 21
-2.72913
  0
LINE
  8
0
 10
-1.23224
 20
-2.72913
 11
-1.27733
 21
-2.71448
  0
LINE
  8
0
 10
-1.27733
 20
-2.71448
 11
-1.55533
 21
-2.53806
  0
LINE
  8
0
 10
-1.55533
 20
-2.53806
 11
-1.83871
 21
-2.37045
  0
LINE
  8
0
 10
-1.83871
 20
-2.37045
 11
-1.87224
 21
-2.33693
  0
LINE
  8
0
 10
-1.87224
 20
-2.33693
 11
-1.91226
 21
-2.31154
  0
LINE
  8
0
 10
-1.91226
 20
-2.31154
 11
-2.13765
 21
-2.07152
  0
LINE
  8
0
 10
-2.13765
 20
-2.07152
 11
-2.37045
 21
-1.83871
  0
LINE
  8
0
 10
-2.37045
 20
-1.83871
 11
-2.39459
 21
-1.79791
  0
LINE
  8
0
 10
-2.39459
 20
-1.79791
 11
-2.42705
 21
-1.76335
  0
LINE
  8
0
 10
-2.42705
 20
-1.76335
 11
-2.58566
 21
-1.47482
  0
LINE
  8
0
 10
-2.58566
 20
-1.47482
 11
-2.75325
 21
-1.19144
  0
LINE
  8
0
 10
-2.75325
 20
-1.19144
 11
-2.76648
 21
-1.1459
  0
LINE
  8
0
 10
-2.76648
 20
-1.1459
 11
-2.78932
 21
-1.10437
  0
LINE
  8
0
 10
-2.78932
 20
-1.10437
 11
-2.8712
 21
-0.785477
  0
LINE
  8
0
 10
-2.8712
 20
-0.785477
 11
-2.96306
 21
-0.469299
  0
LINE
  8
0
 10
-2.96306
 20
-0.469299
 11
-2.96454
 21
-0.421906
  0
LINE
  8
0
 10
-2.96454
 20
-0.421906
 11
-2.97633
 21
-0.375992
  0
LINE
  8
0
 10
-2.97633
 20
-0.375992
 11
-2.97633
 21
-0.0467682
  0
LINE
  8
0
 10
-2.97633
 20
-0.0467682
 11
-2.98668
 21
0.282318
  0
LINE
  8
0
 10
-2.98668
 20
0.282318
 11
-2.97633
 21
0.328583
  0
LINE
  8
0
 10
-2.97633
 20
0.328583
 11
-2.97633
 21
0.375992
  0
LINE
  8
0
 10
-2.97633
 20
0.375992
 11
-2.89445
 21
0.694885
  0
LINE
  8
0
 10
-2.89445
 20
0.694885
 11
-2.82263
 21
1.0162
  0
LINE
  8
0
 10
-2.82263
 20
1.0162
 11
-2.80112
 21
1.05844
  0
LINE
  8
0
 10
-2.80112
 20
1.05844
 11
-2.78932
 21
1.10437
  0
LINE
  8
0
 10
-2.78932
 20
1.10437
 11
-2.63071
 21
1.39288
  0
LINE
  8
0
 10
-2.63071
 20
1.39288
 11
-2.48123
 21
1.68625
  0
LINE
  8
0
 10
-2.48123
 20
1.68625
 11
-2.44987
 21
1.7218
  0
LINE
  8
0
 10
-2.44987
 20
1.7218
 11
-2.42705
 21
1.76335
  0
LINE
  8
0
 10
-2.42705
 20
1.76335
 11
-2.20166
 21
2.00336
  0
LINE
  8
0
 10
-2.20166
 20
2.00336
 11
-1.98393
 21
2.25032
  0
LINE
  8
0
 10
-1.98393
 20
2.25032
 11
-1.94472
 21
2.27698
  0
LINE
  8
0
 10
-1.94472
 20
2.27698
 11
-1.91226
 21
2.31154
  0
LINE
  8
0
 10
-1.91226
 20
2.31154
 11
-1.63428
 21
2.48795
  0
LINE
  8
0
 10
-1.63428
 20
2.48795
 11
-1.36197
 21
2.673
  0
LINE
  8
0
 10
-1.36197
 20
2.673
 11
-1.31735
 21
2.68907
  0
LINE
  8
0
 10
-1.31735
 20
2.68907
 11
-1.27733
 21
2.71448
  0
LINE
  8
0
 10
-1.27733
 20
2.71448
 11
-0.964203
 21
2.81621
  0
LINE
  8
0
 10
-0.964203
 20
2.81621
 11
-0.654419
 21
2.92773
  0
LINE
  8
0
 10
-0.654419
 20
2.92773
 11
-0.607224
 21
2.93221
  0
LINE
  8
0
 10
-0.607224
 20
2.93221
 11
-0.562134
 21
2.94685
  0
LINE
  8
0
 10
-0.562134
 20
2.94685
 11
-0.233536
 21
2.96753
  0
LINE
  8
0
 10
-0.233536
 20
2.96753
 11
0.094223
 21
2.9985
  0
LINE
  8
0
 10
0.094223
 20
2.9985
 11
0.141052
 21
2.99109
  0
LINE
  8
0
 10
0.141052
 20
2.99109
 11
0.18837
 21
2.99408
  0
LINE
  8
0
 10
0.18837
 20
2.99408
 11
0.51178
 21
2.93237
  0
LINE
  8
0
 10
0.51178
 20
2.93237
 11
0.83696
 21
2.88087
  0
LINE
  8
0
 10
0.83696
 20
2.88087
 11
0.880478
 21
2.86205
  0
LINE
  8
0
 10
0.880478
 20
2.86205
 11
0.927048
 21
2.85316
  0
LINE
  8
0
 10
0.927048
 20
2.85316
 11
1.22495
 21
2.71298
  0
LINE
  8
0
 10
1.22495
 20
2.71298
 11
1.52711
 21
2.58221
  0
LINE
  8
0
 10
1.52711
 20
2.58221
 11
1.56458
 21
2.55316
  0
LINE
  8
0
 10
1.56458
 20
2.55316
 11
1.60747
 21
2.53297
  0
LINE
  8
0
 10
1.60747
 20
2.53297
 11
1.86115
 21
2.32312
  0
LINE
  8
0
 10
1.86115
 20
2.32312
 11
2.12131
 21
2.12131
  0
LINE
  8
0
 10
2.12131
 20
2.12131
 11
2.15038
 21
2.08385
  0
LINE
  8
0
 10
2.15038
 20
2.08385
 11
2.1869
 21
2.05363
  0
LINE
  8
0
 10
2.1869
 20
2.05363
 11
2.38042
 21
1.78728
  0
LINE
  8
0
 10
2.38042
 20
1.78728
 11
2.58221
 21
1.52711
  0
LINE
  8
0
 10
2.58221
 20
1.52711
 11
2.60104
 21
1.48361
  0
LINE
  8
0
 10
2.60104
 20
1.48361
 11
2.62891
 21
1.44525
  0
LINE
  8
0
 10
2.62891
 20
1.44525
 11
2.75012
 21
1.13913
  0
LINE
  8
0
 10
2.75012
 20
1.13913
 11
2.88087
 21
0.83696
  0
LINE
  8
0
 10
2.88087
 20
0.83696
 11
2.88829
 21
0.790146
  0
LINE
  8
0
 10
2.88829
 20
0.790146
 11
2.90575
 21
0.746063
  0
LINE
  8
0
 10
2.90575
 20
0.746063
 11
2.94701
 21
0.419403
  0
LINE
  8
0
 10
2.94701
 20
0.419403
 11
2.9985
 21
0.094223
  0
LINE
  8
0
 10
2.9985
 20
0.094223
 11
2.99405
 21
0.0470276
  0
LINE
  8
0
 10
2.99405
 20
0.0470276
 11
3
 21
0
  0
LINE
  8
0
 10
3
 20
0
 11
2.95872
 21
-0.32666
  0
LINE
  8
0
 10
2.95872
 20
-0.32666
 11
2.92773
 21
-0.654419
  0
LINE
  8
0
 10
2.92773
 20
-0.654419
 11
2.91168
 21
-0.69902
  0
LINE
  8
0
 10
2.91168
 20
-0.69902
 11
2.90575
 21
-0.746063
  0
LINE
  8
0
 10
2.90575
 20
-0.746063
 11
2.78453
 21
-1.05219
  0
LINE
  8
0
 10
2.78453
 20
-1.05219
 11
2.673
 21
-1.36197
  0
LINE
  8
0
 10
2.673
 20
-1.36197
 11
2.64636
 21
-1.40117
  0
LINE
  8
0
 10
2.64636
 20
-1.40117
 11
2.62891
 21
-1.44525
  0
LINE
  8
0
 10
2.62891
 20
-1.44525
 11
2.43539
 21
-1.71162
  0
LINE
  8
0
 10
2.43539
 20
-1.71162
 11
2.25032
 21
-1.98393
  0
LINE
  8
0
 10
2.25032
 20
-1.98393
 11
2.21477
 21
-2.01527
  0
LINE
  8
0
 10
2.21477
 20
-2.01527
 11
2.1869
 21
-2.05363
  0
LINE
  8
0
 10
2.1869
 20
-2.05363
 11
1.93321
 21
-2.26349
  0
LINE
  8
0
 10
1.93321
 20
-2.26349
 11
1.68625
 21
-2.48123
  0
LINE
  8
0
 10
1.68625
 20
-2.48123
 11
1.644
 21
-2.50276
  0
LINE
  8
0
 10
1.644
 20
-2.50276
 11
1.60747
 21
-2.53297
  0
LINE
  8
0
 10
1.60747
 20
-2.53297
 11
1.30956
 21
-2.67316
  0
LINE
  8
0
 10
1.30956
 20
-2.67316
 11
1.0162
 21
-2.82263
  0
LINE
  8
0
 10
1.0162
 20
-2.82263
 11
0.96994
 21
-2.83298
  0
LINE
  8
0
 10
0.96994
 20
-2.83298
 11
0.927048
 21
-2.85316
  0
LINE
  8
0
 10
0.927048
 20
-2.85316
 11
0.603622
 21
-2.91486
  0
LINE
  8
0
 10
0.603622
 20
-2.91486
 11
0.282318
 21
-2.98668
  0
LINE
  8
0
 10
0.282318
 20
-2.98668
 11
0.234924
 21
-2.98518
  0
LINE
  8
0
 10
0.234924
 20
-2.98518
 11
0.18837
 21
-2.99408
  0
LINE
  8
0
 10
0.18837
 20
-2.99408
 11
-0.140213
 21
-2.9734
  0
LINE
  8
0
 10
14.4379
 20
-2.94685
 11
13.7227
 21
-2.71448
  0
LINE
  8
0
 10
13.7227
 20
-2.71448
 11
13.0877
 21
-2.31154
  0
LINE
  8
0
 10
13.0877
 20
-2.31154
 11
12.5729
 21
-1.76335
  0
LINE
  8
0
 10
12.5729
 20
-1.76335
 11
12.2107
 21
-1.10437
  0
LINE
  8
0
 10
12.2107
 20
-1.10437
 11
12.0237
 21
-0.375992
  0
LINE
  8
0
 10
12.0237
 20
-0.375992
 11
12.0237
 21
0.375992
  0
LINE
  8
0
 10
12.0237
 20
0.375992
 11
12.2107
 21
1.10437
  0
LINE
  8
0
 10
12.2107
 20
1.10437
 11
12.5729
 21
1.76335
  0
LINE
  8
0
 10
12.5729
 20
1.76335
 11
13.0877
 21
2.31154
  0
LINE
  8
0
 10
13.0877
 20
2.31154
 11
13.7227
 21
2.71448
  0
LINE
  8
0
 10
13.7227
 20
2.71448
 11
14.4379
 21
2.94685
  0
LINE
  8
0
 10
14.4379
 20
2.94685
 11
15.1884
 21
2.99408
  0
LINE
  8
0
 10
15.1884
 20
2.99408
 11
15.927
 21
2.85316
  0
LINE
  8
0
 10
15.927
 20
2.85316
 11
16.6075
 21
2.53297
  0
LINE
  8
0
 10
16.6075
 20
2.53297
 11
17.1869
 21
2.05363
  0
LINE
  8
0
 10
17.1869
 20
2.05363
 11
17.6289
 21
1.44525
  0
LINE
  8
0
 10
17.6289
 20
1.44525
 11
17.9057
 21
0.746063
  0
LINE
  8
0
 10
17.9057
 20
0.746063
 11
18
 21
0
  0
LINE
  8
0
 10
18
 20
0
 11
17.9057
 21
-0.746063
  0
LINE
  8
0
 10
17.9057
 20
-0.746063
 11
17.6289
 21
-1.44525
  0
LINE
  8
0
 10
17.6289
 20
-1.44525
 11
17.1869
 21
-2.05363
  0
LINE
  8
0
 10
17.1869
 20
-2.05363
 11
16.6075
 21
-2.53297
  0
LINE
  8
0
 10
16.6075
 20
-2.53297
 11
15.927
 21
-2.85316
  0
LINE
  8
0
 10
15.927
 20
-2.85316
 11
15.1884
 21
-2.99408
  0
LINE
  8
0
 10
15.1884
 20
-2.99408
 11
14.4379
 21
-2.94685
  0
LINE
  8
0
 10
-15.5621
 20
-2.94685
 11
-16.2773
 21
-2.71448
  0
LINE
  8
0
 10
-16.2773
 20
-2.71448
 11
-16.9123
 21
-2.31154
  0
LINE
  8
0
 10
-16.9123
 20
-2.31154
 11
-17.427
 21
-1.76335
  0
LINE
  8
0
 10
-17.427
 20
-1.76335
 11
-17.7893
 21
-1.10437
  0
LINE
  8
0
 10
-17.7893
 20
-1.10437
 11
-17.9763
 21
-0.375992
  0
LINE
  8
0
 10
-17.9763
 20
-0.375992
 11
-17.9763
 21
0.375992
  0
LINE
  8
0
 10
-17.9763
 20
0.375992
 11
-17.7893
 21
1.10437
  0
LINE
  8
0
 10
-17.7893
 20
1.10437
 11
-17.427
 21
1.76335
  0
LINE
  8
0
 10
-17.427
 20
1.76335
 11
-16.9123
 21
2.31154
  0
LINE
  8
0
 10
-16.9123
 20
2.31154
 11
-16.2773
 21
2.71448
  0
LINE
  8
0
 10
-16.2773
 20
2.71448
 11
-15.5621
 21
2.94685
  0
LINE
  8
0
 10
-15.5621
 20
2.94685
 11
-14.8116
 21
2.99408
  0
LINE
  8
0
 10
-14.8116
 20
2.99408
 11
-14.0729
 21
2.85316
  0
LINE
  8
0
 10
-14.0729
 20
2.85316
 11
-13.3925
 21
2.53297
  0
LINE
  8
0
 10
-13.3925
 20
2.53297
 11
-12.8131
 21
2.05363
  0
LINE
  8
0
 10
-12.8131
 20
2.05363
 11
-12.3711
 21
1.44525
  0
LINE
  8
0
 10
-12.3711
 20
1.44525
 11
-12.0942
 21
0.746063
  0
LINE
  8
0
 10
-12.0942
 20
0.746063
 11
-12
 21
0
  0
LINE
  8
0
 10
-12
 20
0
 11
-12.0942
 21
-0.746063
  0
LINE
  8
0
 10
-12.0942
 20
-0.746063
 11
-12.3711
 21
-1.44525
  0
LINE
  8
0
 10
-12.3711
 20
-1.44525
 11
-12.8131
 21
-2.05363
  0
LINE
  8
0
 10
-12.8131
 20
-2.05363
 11
-13.3925
 21
-2.53297
  0
LINE
  8
0
 10
-13.3925
 20
-2.53297
 11
-14.0729
 21
-2.85316
  0
LINE
  8
0
 10
-14.0729
 20
-2.85316
 11
-14.8116
 21
-2.99408
  0
LINE
  8
0
 10
-14.8116
 20
-2.99408
 11
-15.5621
 21
-2.94685
  0
LINE
  8
0
 10
10.1373
 20
-13.5697
 11
9.41515
 21
-13.3599
  0
LINE
  8
0
 10
9.41515
 20
-13.3599
 11
8.76787
 21
-12.9771
  0
LINE
  8
0
 10
8.76787
 20
-12.9771
 11
8.23613
 21
-12.4453
  0
LINE
  8
0
 10
8.23613
 20
-12.4453
 11
7.85333
 21
-11.798
  0
LINE
  8
0
 10
7.85333
 20
-11.798
 11
7.64352
 21
-11.0759
  0
LINE
  8
0
 10
7.64352
 20
-11.0759
 11
7.6199
 21
-10.3243
  0
LINE
  8
0
 10
7.6199
 20
-10.3243
 11
7.78395
 21
-9.59038
  0
LINE
  8
0
 10
7.78395
 20
-9.59038
 11
8.12535
 21
-8.92035
  0
LINE
  8
0
 10
8.12535
 20
-8.92035
 11
8.62267
 21
-8.35626
  0
LINE
  8
0
 10
8.62267
 20
-8.35626
 11
9.24463
 21
-7.93358
  0
LINE
  8
0
 10
9.24463
 20
-7.93358
 11
9.95216
 21
-7.67885
  0
LINE
  8
0
 10
9.95216
 20
-7.67885
 11
10.7008
 21
-7.60808
  0
LINE
  8
0
 10
10.7008
 20
-7.60808
 11
11.4436
 21
-7.72571
  0
LINE
  8
0
 10
11.4436
 20
-7.72571
 11
12.1337
 21
-8.02437
  0
LINE
  8
0
 10
12.1337
 20
-8.02437
 11
12.7279
 21
-8.48528
  0
LINE
  8
0
 10
12.7279
 20
-8.48528
 11
13.1888
 21
-9.07947
  0
LINE
  8
0
 10
13.1888
 20
-9.07947
 11
13.4875
 21
-9.76962
  0
LINE
  8
0
 10
13.4875
 20
-9.76962
 11
13.6051
 21
-10.5124
  0
LINE
  8
0
 10
13.6051
 20
-10.5124
 11
13.5343
 21
-11.261
  0
LINE
  8
0
 10
13.5343
 20
-11.261
 11
13.2796
 21
-11.9686
  0
LINE
  8
0
 10
13.2796
 20
-11.9686
 11
12.8569
 21
-12.5905
  0
LINE
  8
0
 10
12.8569
 20
-12.5905
 11
12.2928
 21
-13.0878
  0
LINE
  8
0
 10
12.2928
 20
-13.0878
 11
11.6228
 21
-13.4292
  0
LINE
  8
0
 10
11.6228
 20
-13.4292
 11
10.8889
 21
-13.5933
  0
LINE
  8
0
 10
10.8889
 20
-13.5933
 11
10.1373
 21
-13.5697
  0
LINE
  8
0
 10
-11.0759
 20
-13.5697
 11
-11.798
 21
-13.3599
  0
LINE
  8
0
 10
-11.798
 20
-13.3599
 11
-12.4453
 21
-12.9771
  0
LINE
  8
0
 10
-12.4453
 20
-12.9771
 11
-12.9771
 21
-12.4453
  0
LINE
  8
0
 10
-12.9771
 20
-12.4453
 11
-13.3599
 21
-11.798
  0
LINE
  8
0
 10
-13.3599
 20
-11.798
 11
-13.5697
 21
-11.0759
  0
LINE
  8
0
 10
-13.5697
 20
-11.0759
 11
-13.5933
 21
-10.3243
  0
LINE
  8
0
 10
-13.5933
 20
-10.3243
 11
-13.4292
 21
-9.59038
  0
LINE
  8
0
 10
-13.4292
 20
-9.59038
 11
-13.0878
 21
-8.92035
  0
LINE
  8
0
 10
-13.0878
 20
-8.92035
 11
-12.5905
 21
-8.35626
  0
LINE
  8
0
 10
-12.5905
 20
-8.35626
 11
-11.9686
 21
-7.93358
  0
LINE
  8
0
 10
-11.9686
 20
-7.93358
 11
-11.261
 21
-7.67885
  0
LINE
  8
0
 10
-11.261
 20
-7.67885
 11
-10.5124
 21
-7.60808
  0
LINE
  8
0
 10
-10.5124
 20
-7.60808
 11
-9.76962
 21
-7.72571
  0
LINE
  8
0
 10
-9.76962
 20
-7.72571
 11
-9.07947
 21
-8.02437
  0
LINE
  8
0
 10
-9.07947
 20
-8.02437
 11
-8.48528
 21
-8.48528
  0
LINE
  8
0
 10
-8.48528
 20
-8.48528
 11
-8.02437
 21
-9.07947
  0
LINE
  8
0
 10
-8.02437
 20
-9.07947
 11
-7.72571
 21
-9.76962
  0
LINE
  8
0
 10
-7.72571
 20
-9.76962
 11
-7.60808
 21
-10.5124
  0
LINE
  8
0
 10
-7.60808
 20
-10.5124
 11
-7.67885
 21
-11.261
  0
LINE
  8
0
 10
-7.67885
 20
-11.261
 11
-7.93358
 21
-11.9686
  0
LINE
  8
0
 10
-7.93358
 20
-11.9686
 11
-8.35626
 21
-12.5905
  0
LINE
  8
0
 10
-8.35626
 20
-12.5905
 11
-8.92035
 21
-13.0878
  0
LINE
  8
0
 10
-8.92035
 20
-13.0878
 11
-9.59038
 21
-13.4292
  0
LINE
  8
0
 10
-9.59038
 20
-13.4292
 11
-10.3243
 21
-13.5933
  0
LINE
  8
0
 10
-10.3243
 20
-13.5933
 11
-11.0759
 21
-13.5697
  0
LINE
  8
0
 10
-0.562134
 20
-17.9469
 11
-1.27733
 21
-17.7145
  0
LINE
  8
0
 10
-1.27733
 20
-17.7145
 11
-1.91226
 21
-17.3115
  0
LINE
  8
0
 10
-1.91226
 20
-17.3115
 11
-2.42705
 21
-16.7634
  0
LINE
  8
0
 10
-2.42705
 20
-16.7634
 11
-2.78932
 21
-16.1044
  0
LINE
  8
0
 10
-2.78932
 20
-16.1044
 11
-2.97633
 21
-15.376
  0
LINE
  8
0
 10
-2.97633
 20
-15.376
 11
-2.97633
 21
-14.624
  0
LINE
  8
0
 10
-2.97633
 20
-14.624
 11
-2.78932
 21
-13.8956
  0
LINE
  8
0
 10
-2.78932
 20
-13.8956
 11
-2.42705
 21
-13.2366
  0
LINE
  8
0
 10
-2.42705
 20
-13.2366
 11
-1.91226
 21
-12.6884
  0
LINE
  8
0
 10
-1.91226
 20
-12.6884
 11
-1.27733
 21
-12.2855
  0
LINE
  8
0
 10
-1.27733
 20
-12.2855
 11
-0.562134
 21
-12.0531
  0
LINE
  8
0
 10
-0.562134
 20
-12.0531
 11
0.18837
 21
-12.0059
  0
LINE
  8
0
 10
0.18837
 20
-12.0059
 11
0.927048
 21
-12.1468
  0
LINE
  8
0
 10
0.927048
 20
-12.1468
 11
1.60747
 21
-12.467
  0
LINE
  8
0
 10
1.60747
 20
-12.467
 11
2.1869
 21
-12.9464
  0
LINE
  8
0
 10
2.1869
 20
-12.9464
 11
2.62891
 21
-13.5547
  0
LINE
  8
0
 10
2.62891
 20
-13.5547
 11
2.90575
 21
-14.2539
  0
LINE
  8
0
 10
2.90575
 20
-14.2539
 11
3
 21
-15
  0
LINE
  8
0
 10
3
 20
-15
 11
2.90575
 21
-15.7461
  0
LINE
  8
0
 10
2.90575
 20
-15.7461
 11
2.62891
 21
-16.4453
  0
LINE
  8
0
 10
2.62891
 20
-16.4453
 11
2.1869
 21
-17.0536
  0
LINE
  8
0
 10
2.1869
 20
-17.0536
 11
1.60747
 21
-17.533
  0
LINE
  8
0
 10
1.60747
 20
-17.533
 11
0.927048
 21
-17.8532
  0
LINE
  8
0
 10
0.927048
 20
-17.8532
 11
0.18837
 21
-17.9941
  0
LINE
  8
0
 10
0.18837
 20
-17.9941
 11
-0.562134
 21
-17.9469
  0
ENDSEC
  0
SECTION
  2
OBJECTS
  0
DICTIONARY
  0
ENDSEC
  0
EOF
