<?xml version="1.0" standalone="no"?>
<!DOCTYPE svg PUBLIC "-//W3C//DTD SVG 1.1//EN" "http://www.w3.org/Graphics/SVG/1.1/DTD/svg11.dtd">
<svg width="87mm" height="12mm" viewBox="9 -21 87 12" xmlns="http://www.w3.org/2000/svg" version="1.1">
<title>OpenSCAD Model</title>
<path d="
M 91,-9.00986 L 91.3139,-9.00986 L 91.9369,-9.08856 L 92.5451,-9.24471 L 93.1289,-9.47586 L 93.6791,-9.77835
 L 94.1871,-10.1474 L 94.6448,-10.5773 L 95.0451,-11.0611 L 95.3815,-11.5912 L 95.6489,-12.1594 L 95.8429,-12.7565
 L 95.9606,-13.3733 L 96,-14 L 96,-16 L 95.9606,-16.6267 L 95.8429,-17.2434 L 95.6489,-17.8406
 L 95.3815,-18.4088 L 95.0451,-18.9389 L 94.6448,-19.4227 L 94.1871,-19.8526 L 93.6791,-20.2216 L 93.1289,-20.5241
 L 92.5451,-20.7553 L 91.9369,-20.9114 L 91.3139,-20.9901 L 91,-20.9901 L 91,-21 L 14,-21
 L 14,-20.9901 L 13.686,-20.9901 L 13.0631,-20.9114 L 12.4549,-20.7553 L 11.8711,-20.5241 L 11.3209,-20.2216
 L 10.8129,-19.8526 L 10.3551,-19.4227 L 9.95491,-18.9389 L 9.61845,-18.4088 L 9.3511,-17.8406 L 9.15707,-17.2434
 L 9.03941,-16.6267 L 9,-16 L 9,-14 L 9.03941,-13.3733 L 9.15707,-12.7565 L 9.3511,-12.1594
 L 9.61845,-11.5912 L 9.95491,-11.0611 L 10.3551,-10.5773 L 10.8129,-10.1474 L 11.3209,-9.77835 L 11.8711,-9.47586
 L 12.4549,-9.24471 L 13.0631,-9.08856 L 13.686,-9.00986 L 14,-9.00986 L 14,-9 L 91,-9
 z
" stroke="black" fill="lightgray" stroke-width="0.5"/>
</svg>
