  0
SECTION
  2
BLOCKS
  0
ENDSEC
  0
SECTION
  2
ENTITIES
  0
LINE
  8
0
 10
91.3139
 20
9.00986
 11
91.6267
 21
9.03941
  0
LINE
  8
0
 10
91.6267
 20
9.03941
 11
91.9369
 21
9.08856
  0
LINE
  8
0
 10
91.9369
 20
9.08856
 11
92.2434
 21
9.15707
  0
LINE
  8
0
 10
92.2434
 20
9.15707
 11
92.5451
 21
9.24471
  0
LINE
  8
0
 10
92.5451
 20
9.24471
 11
92.8406
 21
9.3511
  0
LINE
  8
0
 10
92.8406
 20
9.3511
 11
93.1289
 21
9.47586
  0
LINE
  8
0
 10
93.1289
 20
9.47586
 11
93.4088
 21
9.61845
  0
LINE
  8
0
 10
93.4088
 20
9.61845
 11
93.6791
 21
9.77835
  0
LINE
  8
0
 10
93.6791
 20
9.77835
 11
93.9389
 21
9.95491
  0
LINE
  8
0
 10
93.9389
 20
9.95491
 11
94.1871
 21
10.1474
  0
LINE
  8
0
 10
94.1871
 20
10.1474
 11
94.4227
 21
10.3551
  0
LINE
  8
0
 10
94.4227
 20
10.3551
 11
94.6448
 21
10.5773
  0
LINE
  8
0
 10
94.6448
 20
10.5773
 11
94.8526
 21
10.8129
  0
LINE
  8
0
 10
94.8526
 20
10.8129
 11
95.0451
 21
11.0611
  0
LINE
  8
0
 10
95.0451
 20
11.0611
 11
95.2216
 21
11.3209
  0
LINE
  8
0
 10
95.2216
 20
11.3209
 11
95.3815
 21
11.5912
  0
LINE
  8
0
 10
95.3815
 20
11.5912
 11
95.5241
 21
11.8711
  0
LINE
  8
0
 10
95.5241
 20
11.8711
 11
95.6489
 21
12.1594
  0
LINE
  8
0
 10
95.6489
 20
12.1594
 11
95.7553
 21
12.4549
  0
LINE
  8
0
 10
95.7553
 20
12.4549
 11
95.8429
 21
12.7565
  0
LINE
  8
0
 10
95.8429
 20
12.7565
 11
95.9114
 21
13.0631
  0
LINE
  8
0
 10
95.9114
 20
13.0631
 11
95.9606
 21
13.3733
  0
LINE
  8
0
 10
95.9606
 20
13.3733
 11
95.9901
 21
13.686
  0
LINE
  8
0
 10
95.9901
 20
13.686
 11
96
 21
14
  0
LINE
  8
0
 10
96
 20
14
 11
96
 21
16
  0
LINE
  8
0
 10
96
 20
16
 11
95.9901
 21
16.3139
  0
LINE
  8
0
 10
95.9901
 20
16.3139
 11
95.9606
 21
16.6267
  0
LINE
  8
0
 10
95.9606
 20
16.6267
 11
95.9114
 21
16.9369
  0
LINE
  8
0
 10
95.9114
 20
16.9369
 11
95.8429
 21
17.2434
  0
LINE
  8
0
 10
95.8429
 20
17.2434
 11
95.7553
 21
17.5451
  0
LINE
  8
0
 10
95.7553
 20
17.5451
 11
95.6489
 21
17.8406
  0
LINE
  8
0
 10
95.6489
 20
17.8406
 11
95.5241
 21
18.1289
  0
LINE
  8
0
 10
95.5241
 20
18.1289
 11
95.3815
 21
18.4088
  0
LINE
  8
0
 10
95.3815
 20
18.4088
 11
95.2216
 21
18.6791
  0
LINE
  8
0
 10
95.2216
 20
18.6791
 11
95.0451
 21
18.9389
  0
LINE
  8
0
 10
95.0451
 20
18.9389
 11
94.8526
 21
19.1871
  0
LINE
  8
0
 10
94.8526
 20
19.1871
 11
94.6448
 21
19.4227
  0
LINE
  8
0
 10
94.6448
 20
19.4227
 11
94.4227
 21
19.6448
  0
LINE
  8
0
 10
94.4227
 20
19.6448
 11
94.1871
 21
19.8526
  0
LINE
  8
0
 10
94.1871
 20
19.8526
 11
93.9389
 21
20.0451
  0
LINE
  8
0
 10
93.9389
 20
20.0451
 11
93.6791
 21
20.2216
  0
LINE
  8
0
 10
93.6791
 20
20.2216
 11
93.4088
 21
20.3815
  0
LINE
  8
0
 10
93.4088
 20
20.3815
 11
93.1289
 21
20.5241
  0
LINE
  8
0
 10
93.1289
 20
20.5241
 11
92.8406
 21
20.6489
  0
LINE
  8
0
 10
92.8406
 20
20.6489
 11
92.5451
 21
20.7553
  0
LINE
  8
0
 10
92.5451
 20
20.7553
 11
92.2434
 21
20.8429
  0
LINE
  8
0
 10
92.2434
 20
20.8429
 11
91.9369
 21
20.9114
  0
LINE
  8
0
 10
91.9369
 20
20.9114
 11
91.6267
 21
20.9606
  0
LINE
  8
0
 10
91.6267
 20
20.9606
 11
91.3139
 21
20.9901
  0
LINE
  8
0
 10
91.3139
 20
20.9901
 11
91
 21
21
  0
LINE
  8
0
 10
91
 20
21
 11
14
 21
21
  0
LINE
  8
0
 10
14
 20
21
 11
13.686
 21
20.9901
  0
LINE
  8
0
 10
13.686
 20
20.9901
 11
13.3733
 21
20.9606
  0
LINE
  8
0
 10
13.3733
 20
20.9606
 11
13.0631
 21
20.9114
  0
LINE
  8
0
 10
13.0631
 20
20.9114
 11
12.7565
 21
20.8429
  0
LINE
  8
0
 10
12.7565
 20
20.8429
 11
12.4549
 21
20.7553
  0
LINE
  8
0
 10
12.4549
 20
20.7553
 11
12.1594
 21
20.6489
  0
LINE
  8
0
 10
12.1594
 20
20.6489
 11
11.8711
 21
20.5241
  0
LINE
  8
0
 10
11.8711
 20
20.5241
 11
11.5912
 21
20.3815
  0
LINE
  8
0
 10
11.5912
 20
20.3815
 11
11.3209
 21
20.2216
  0
LINE
  8
0
 10
11.3209
 20
20.2216
 11
11.0611
 21
20.0451
  0
LINE
  8
0
 10
11.0611
 20
20.0451
 11
10.8129
 21
19.8526
  0
LINE
  8
0
 10
10.8129
 20
19.8526
 11
10.5773
 21
19.6448
  0
LINE
  8
0
 10
10.5773
 20
19.6448
 11
10.3551
 21
19.4227
  0
LINE
  8
0
 10
10.3551
 20
19.4227
 11
10.1474
 21
19.1871
  0
LINE
  8
0
 10
10.1474
 20
19.1871
 11
9.95491
 21
18.9389
  0
LINE
  8
0
 10
9.95491
 20
18.9389
 11
9.77835
 21
18.6791
  0
LINE
  8
0
 10
9.77835
 20
18.6791
 11
9.61845
 21
18.4088
  0
LINE
  8
0
 10
9.61845
 20
18.4088
 11
9.47586
 21
18.1289
  0
LINE
  8
0
 10
9.47586
 20
18.1289
 11
9.3511
 21
17.8406
  0
LINE
  8
0
 10
9.3511
 20
17.8406
 11
9.24471
 21
17.5451
  0
LINE
  8
0
 10
9.24471
 20
17.5451
 11
9.15707
 21
17.2434
  0
LINE
  8
0
 10
9.15707
 20
17.2434
 11
9.08856
 21
16.9369
  0
LINE
  8
0
 10
9.08856
 20
16.9369
 11
9.03941
 21
16.6267
  0
LINE
  8
0
 10
9.03941
 20
16.6267
 11
9.00986
 21
16.3139
  0
LINE
  8
0
 10
9.00986
 20
16.3139
 11
9
 21
16
  0
LINE
  8
0
 10
9
 20
16
 11
9
 21
14
  0
LINE
  8
0
 10
9
 20
14
 11
9.00986
 21
13.686
  0
LINE
  8
0
 10
9.00986
 20
13.686
 11
9.03941
 21
13.3733
  0
LINE
  8
0
 10
9.03941
 20
13.3733
 11
9.08856
 21
13.0631
  0
LINE
  8
0
 10
9.08856
 20
13.0631
 11
9.15707
 21
12.7565
  0
LINE
  8
0
 10
9.15707
 20
12.7565
 11
9.24471
 21
12.4549
  0
LINE
  8
0
 10
9.24471
 20
12.4549
 11
9.3511
 21
12.1594
  0
LINE
  8
0
 10
9.3511
 20
12.1594
 11
9.47586
 21
11.8711
  0
LINE
  8
0
 10
9.47586
 20
11.8711
 11
9.61845
 21
11.5912
  0
LINE
  8
0
 10
9.61845
 20
11.5912
 11
9.77835
 21
11.3209
  0
LINE
  8
0
 10
9.77835
 20
11.3209
 11
9.95491
 21
11.0611
  0
LINE
  8
0
 10
9.95491
 20
11.0611
 11
10.1474
 21
10.8129
  0
LINE
  8
0
 10
10.1474
 20
10.8129
 11
10.3551
 21
10.5773
  0
LINE
  8
0
 10
10.3551
 20
10.5773
 11
10.5773
 21
10.3551
  0
LINE
  8
0
 10
10.5773
 20
10.3551
 11
10.8129
 21
10.1474
  0
LINE
  8
0
 10
10.8129
 20
10.1474
 11
11.0611
 21
9.95491
  0
LINE
  8
0
 10
11.0611
 20
9.95491
 11
11.3209
 21
9.77835
  0
LINE
  8
0
 10
11.3209
 20
9.77835
 11
11.5912
 21
9.61845
  0
LINE
  8
0
 10
11.5912
 20
9.61845
 11
11.8711
 21
9.47586
  0
LINE
  8
0
 10
11.8711
 20
9.47586
 11
12.1594
 21
9.3511
  0
LINE
  8
0
 10
12.1594
 20
9.3511
 11
12.4549
 21
9.24471
  0
LINE
  8
0
 10
12.4549
 20
9.24471
 11
12.7565
 21
9.15707
  0
LINE
  8
0
 10
12.7565
 20
9.15707
 11
13.0631
 21
9.08856
  0
LINE
  8
0
 10
13.0631
 20
9.08856
 11
13.3733
 21
9.03941
  0
LINE
  8
0
 10
13.3733
 20
9.03941
 11
13.686
 21
9.00986
  0
LINE
  8
0
 10
13.686
 20
9.00986
 11
14
 21
9
  0
LINE
  8
0
 10
14
 20
9
 11
91
 21
9
  0
LINE
  8
0
 10
91
 20
9
 11
91.3139
 21
9.00986
  0
LINE
  8
0
 10
14.8116
 20
12.0059
 11
14.624
 21
12.0237
  0
LINE
  8
0
 10
14.624
 20
12.0237
 11
14.4379
 21
12.0531
  0
LINE
  8
0
 10
14.4379
 20
12.0531
 11
14.2539
 21
12.0942
  0
LINE
  8
0
 10
14.2539
 20
12.0942
 11
14.0729
 21
12.1468
  0
LINE
  8
0
 10
14.0729
 20
12.1468
 11
13.8956
 21
12.2107
  0
LINE
  8
0
 10
13.8956
 20
12.2107
 11
13.7227
 21
12.2855
  0
LINE
  8
0
 10
13.7227
 20
12.2855
 11
13.5547
 21
12.3711
  0
LINE
  8
0
 10
13.5547
 20
12.3711
 11
13.3925
 21
12.467
  0
LINE
  8
0
 10
13.3925
 20
12.467
 11
13.2366
 21
12.5729
  0
LINE
  8
0
 10
13.2366
 20
12.5729
 11
13.0877
 21
12.6884
  0
LINE
  8
0
 10
13.0877
 20
12.6884
 11
12.9464
 21
12.8131
  0
LINE
  8
0
 10
12.9464
 20
12.8131
 11
12.8131
 21
12.9464
  0
LINE
  8
0
 10
12.8131
 20
12.9464
 11
12.6884
 21
13.0877
  0
LINE
  8
0
 10
12.6884
 20
13.0877
 11
12.5729
 21
13.2366
  0
LINE
  8
0
 10
12.5729
 20
13.2366
 11
12.467
 21
13.3925
  0
LINE
  8
0
 10
12.467
 20
13.3925
 11
12.3711
 21
13.5547
  0
LINE
  8
0
 10
12.3711
 20
13.5547
 11
12.2855
 21
13.7227
  0
LINE
  8
0
 10
12.2855
 20
13.7227
 11
12.2107
 21
13.8956
  0
LINE
  8
0
 10
12.2107
 20
13.8956
 11
12.1468
 21
14.0729
  0
LINE
  8
0
 10
12.1468
 20
14.0729
 11
12.0942
 21
14.2539
  0
LINE
  8
0
 10
12.0942
 20
14.2539
 11
12.0531
 21
14.4379
  0
LINE
  8
0
 10
12.0531
 20
14.4379
 11
12.0237
 21
14.624
  0
LINE
  8
0
 10
12.0237
 20
14.624
 11
12.0059
 21
14.8116
  0
LINE
  8
0
 10
12.0059
 20
14.8116
 11
12
 21
15
  0
LINE
  8
0
 10
12
 20
15
 11
12.0059
 21
15.1884
  0
LINE
  8
0
 10
12.0059
 20
15.1884
 11
12.0237
 21
15.376
  0
LINE
  8
0
 10
12.0237
 20
15.376
 11
12.0531
 21
15.5621
  0
LINE
  8
0
 10
12.0531
 20
15.5621
 11
12.0942
 21
15.7461
  0
LINE
  8
0
 10
12.0942
 20
15.7461
 11
12.1468
 21
15.927
  0
LINE
  8
0
 10
12.1468
 20
15.927
 11
12.2107
 21
16.1044
  0
LINE
  8
0
 10
12.2107
 20
16.1044
 11
12.2855
 21
16.2773
  0
LINE
  8
0
 10
12.2855
 20
16.2773
 11
12.3711
 21
16.4453
  0
LINE
  8
0
 10
12.3711
 20
16.4453
 11
12.467
 21
16.6075
  0
LINE
  8
0
 10
12.467
 20
16.6075
 11
12.5729
 21
16.7634
  0
LINE
  8
0
 10
12.5729
 20
16.7634
 11
12.6884
 21
16.9123
  0
LINE
  8
0
 10
12.6884
 20
16.9123
 11
12.8131
 21
17.0536
  0
LINE
  8
0
 10
12.8131
 20
17.0536
 11
12.9464
 21
17.1869
  0
LINE
  8
0
 10
12.9464
 20
17.1869
 11
13.0877
 21
17.3115
  0
LINE
  8
0
 10
13.0877
 20
17.3115
 11
13.2366
 21
17.427
  0
LINE
  8
0
 10
13.2366
 20
17.427
 11
13.3925
 21
17.533
  0
LINE
  8
0
 10
13.3925
 20
17.533
 11
13.5547
 21
17.6289
  0
LINE
  8
0
 10
13.5547
 20
17.6289
 11
13.7227
 21
17.7145
  0
LINE
  8
0
 10
13.7227
 20
17.7145
 11
13.8956
 21
17.7893
  0
LINE
  8
0
 10
13.8956
 20
17.7893
 11
14.0729
 21
17.8532
  0
LINE
  8
0
 10
14.0729
 20
17.8532
 11
14.2539
 21
17.9057
  0
LINE
  8
0
 10
14.2539
 20
17.9057
 11
14.4379
 21
17.9469
  0
LINE
  8
0
 10
14.4379
 20
17.9469
 11
14.624
 21
17.9763
  0
LINE
  8
0
 10
14.624
 20
17.9763
 11
14.8116
 21
17.9941
  0
LINE
  8
0
 10
14.8116
 20
17.9941
 11
15
 21
18
  0
LINE
  8
0
 10
15
 20
18
 11
15.1884
 21
17.9941
  0
LINE
  8
0
 10
15.1884
 20
17.9941
 11
15.376
 21
17.9763
  0
LINE
  8
0
 10
15.376
 20
17.9763
 11
15.5621
 21
17.9469
  0
LINE
  8
0
 10
15.5621
 20
17.9469
 11
15.7461
 21
17.9057
  0
LINE
  8
0
 10
15.7461
 20
17.9057
 11
15.927
 21
17.8532
  0
LINE
  8
0
 10
15.927
 20
17.8532
 11
16.1044
 21
17.7893
  0
LINE
  8
0
 10
16.1044
 20
17.7893
 11
16.2773
 21
17.7145
  0
LINE
  8
0
 10
16.2773
 20
17.7145
 11
16.4453
 21
17.6289
  0
LINE
  8
0
 10
16.4453
 20
17.6289
 11
16.6075
 21
17.533
  0
LINE
  8
0
 10
16.6075
 20
17.533
 11
16.7634
 21
17.427
  0
LINE
  8
0
 10
16.7634
 20
17.427
 11
16.9123
 21
17.3115
  0
LINE
  8
0
 10
16.9123
 20
17.3115
 11
17.0536
 21
17.1869
  0
LINE
  8
0
 10
17.0536
 20
17.1869
 11
17.1869
 21
17.0536
  0
LINE
  8
0
 10
17.1869
 20
17.0536
 11
17.3115
 21
16.9123
  0
LINE
  8
0
 10
17.3115
 20
16.9123
 11
17.427
 21
16.7634
  0
LINE
  8
0
 10
17.427
 20
16.7634
 11
17.533
 21
16.6075
  0
LINE
  8
0
 10
17.533
 20
16.6075
 11
17.6289
 21
16.4453
  0
LINE
  8
0
 10
17.6289
 20
16.4453
 11
17.7145
 21
16.2773
  0
LINE
  8
0
 10
17.7145
 20
16.2773
 11
17.7893
 21
16.1044
  0
LINE
  8
0
 10
17.7893
 20
16.1044
 11
17.8532
 21
15.927
  0
LINE
  8
0
 10
17.8532
 20
15.927
 11
17.9057
 21
15.7461
  0
LINE
  8
0
 10
17.9057
 20
15.7461
 11
17.9469
 21
15.5621
  0
LINE
  8
0
 10
17.9469
 20
15.5621
 11
17.9763
 21
15.376
  0
LINE
  8
0
 10
17.9763
 20
15.376
 11
17.9941
 21
15.1884
  0
LINE
  8
0
 10
17.9941
 20
15.1884
 11
18
 21
15
  0
LINE
  8
0
 10
18
 20
15
 11
17.9941
 21
14.8116
  0
LINE
  8
0
 10
17.9941
 20
14.8116
 11
17.9763
 21
14.624
  0
LINE
  8
0
 10
17.9763
 20
14.624
 11
17.9469
 21
14.4379
  0
LINE
  8
0
 10
17.9469
 20
14.4379
 11
17.9057
 21
14.2539
  0
LINE
  8
0
 10
17.9057
 20
14.2539
 11
17.8532
 21
14.0729
  0
LINE
  8
0
 10
17.8532
 20
14.0729
 11
17.7893
 21
13.8956
  0
LINE
  8
0
 10
17.7893
 20
13.8956
 11
17.7145
 21
13.7227
  0
LINE
  8
0
 10
17.7145
 20
13.7227
 11
17.6289
 21
13.5547
  0
LINE
  8
0
 10
17.6289
 20
13.5547
 11
17.533
 21
13.3925
  0
LINE
  8
0
 10
17.533
 20
13.3925
 11
17.427
 21
13.2366
  0
LINE
  8
0
 10
17.427
 20
13.2366
 11
17.3115
 21
13.0877
  0
LINE
  8
0
 10
17.3115
 20
13.0877
 11
17.1869
 21
12.9464
  0
LINE
  8
0
 10
17.1869
 20
12.9464
 11
17.0536
 21
12.8131
  0
LINE
  8
0
 10
17.0536
 20
12.8131
 11
16.9123
 21
12.6884
  0
LINE
  8
0
 10
16.9123
 20
12.6884
 11
16.7634
 21
12.5729
  0
LINE
  8
0
 10
16.7634
 20
12.5729
 11
16.6075
 21
12.467
  0
LINE
  8
0
 10
16.6075
 20
12.467
 11
16.4453
 21
12.3711
  0
LINE
  8
0
 10
16.4453
 20
12.3711
 11
16.2773
 21
12.2855
  0
LINE
  8
0
 10
16.2773
 20
12.2855
 11
16.1044
 21
12.2107
  0
LINE
  8
0
 10
16.1044
 20
12.2107
 11
15.927
 21
12.1468
  0
LINE
  8
0
 10
15.927
 20
12.1468
 11
15.7461
 21
12.0942
  0
LINE
  8
0
 10
15.7461
 20
12.0942
 11
15.5621
 21
12.0531
  0
LINE
  8
0
 10
15.5621
 20
12.0531
 11
15.376
 21
12.0237
  0
LINE
  8
0
 10
15.376
 20
12.0237
 11
15.1884
 21
12.0059
  0
LINE
  8
0
 10
15.1884
 20
12.0059
 11
15
 21
12
  0
LINE
  8
0
 10
15
 20
12
 11
14.8116
 21
12.0059
  0
LINE
  8
0
 10
29.8116
 20
12.0059
 11
29.624
 21
12.0237
  0
LINE
  8
0
 10
29.624
 20
12.0237
 11
29.4379
 21
12.0531
  0
LINE
  8
0
 10
29.4379
 20
12.0531
 11
29.2539
 21
12.0942
  0
LINE
  8
0
 10
29.2539
 20
12.0942
 11
29.0729
 21
12.1468
  0
LINE
  8
0
 10
29.0729
 20
12.1468
 11
28.8956
 21
12.2107
  0
LINE
  8
0
 10
28.8956
 20
12.2107
 11
28.7227
 21
12.2855
  0
LINE
  8
0
 10
28.7227
 20
12.2855
 11
28.5547
 21
12.3711
  0
LINE
  8
0
 10
28.5547
 20
12.3711
 11
28.3925
 21
12.467
  0
LINE
  8
0
 10
28.3925
 20
12.467
 11
28.2366
 21
12.5729
  0
LINE
  8
0
 10
28.2366
 20
12.5729
 11
28.0877
 21
12.6884
  0
LINE
  8
0
 10
28.0877
 20
12.6884
 11
27.9464
 21
12.8131
  0
LINE
  8
0
 10
27.9464
 20
12.8131
 11
27.8131
 21
12.9464
  0
LINE
  8
0
 10
27.8131
 20
12.9464
 11
27.6884
 21
13.0877
  0
LINE
  8
0
 10
27.6884
 20
13.0877
 11
27.5729
 21
13.2366
  0
LINE
  8
0
 10
27.5729
 20
13.2366
 11
27.467
 21
13.3925
  0
LINE
  8
0
 10
27.467
 20
13.3925
 11
27.3711
 21
13.5547
  0
LINE
  8
0
 10
27.3711
 20
13.5547
 11
27.2855
 21
13.7227
  0
LINE
  8
0
 10
27.2855
 20
13.7227
 11
27.2107
 21
13.8956
  0
LINE
  8
0
 10
27.2107
 20
13.8956
 11
27.1468
 21
14.0729
  0
LINE
  8
0
 10
27.1468
 20
14.0729
 11
27.0942
 21
14.2539
  0
LINE
  8
0
 10
27.0942
 20
14.2539
 11
27.0531
 21
14.4379
  0
LINE
  8
0
 10
27.0531
 20
14.4379
 11
27.0237
 21
14.624
  0
LINE
  8
0
 10
27.0237
 20
14.624
 11
27.0059
 21
14.8116
  0
LINE
  8
0
 10
27.0059
 20
14.8116
 11
27
 21
15
  0
LINE
  8
0
 10
27
 20
15
 11
27.0059
 21
15.1884
  0
LINE
  8
0
 10
27.0059
 20
15.1884
 11
27.0237
 21
15.376
  0
LINE
  8
0
 10
27.0237
 20
15.376
 11
27.0531
 21
15.5621
  0
LINE
  8
0
 10
27.0531
 20
15.5621
 11
27.0942
 21
15.7461
  0
LINE
  8
0
 10
27.0942
 20
15.7461
 11
27.1468
 21
15.927
  0
LINE
  8
0
 10
27.1468
 20
15.927
 11
27.2107
 21
16.1044
  0
LINE
  8
0
 10
27.2107
 20
16.1044
 11
27.2855
 21
16.2773
  0
LINE
  8
0
 10
27.2855
 20
16.2773
 11
27.3711
 21
16.4453
  0
LINE
  8
0
 10
27.3711
 20
16.4453
 11
27.467
 21
16.6075
  0
LINE
  8
0
 10
27.467
 20
16.6075
 11
27.5729
 21
16.7634
  0
LINE
  8
0
 10
27.5729
 20
16.7634
 11
27.6884
 21
16.9123
  0
LINE
  8
0
 10
27.6884
 20
16.9123
 11
27.8131
 21
17.0536
  0
LINE
  8
0
 10
27.8131
 20
17.0536
 11
27.9464
 21
17.1869
  0
LINE
  8
0
 10
27.9464
 20
17.1869
 11
28.0877
 21
17.3115
  0
LINE
  8
0
 10
28.0877
 20
17.3115
 11
28.2366
 21
17.427
  0
LINE
  8
0
 10
28.2366
 20
17.427
 11
28.3925
 21
17.533
  0
LINE
  8
0
 10
28.3925
 20
17.533
 11
28.5547
 21
17.6289
  0
LINE
  8
0
 10
28.5547
 20
17.6289
 11
28.7227
 21
17.7145
  0
LINE
  8
0
 10
28.7227
 20
17.7145
 11
28.8956
 21
17.7893
  0
LINE
  8
0
 10
28.8956
 20
17.7893
 11
29.0729
 21
17.8532
  0
LINE
  8
0
 10
29.0729
 20
17.8532
 11
29.2539
 21
17.9057
  0
LINE
  8
0
 10
29.2539
 20
17.9057
 11
29.4379
 21
17.9469
  0
LINE
  8
0
 10
29.4379
 20
17.9469
 11
29.624
 21
17.9763
  0
LINE
  8
0
 10
29.624
 20
17.9763
 11
29.8116
 21
17.9941
  0
LINE
  8
0
 10
29.8116
 20
17.9941
 11
30
 21
18
  0
LINE
  8
0
 10
30
 20
18
 11
30.1884
 21
17.9941
  0
LINE
  8
0
 10
30.1884
 20
17.9941
 11
30.376
 21
17.9763
  0
LINE
  8
0
 10
30.376
 20
17.9763
 11
30.5621
 21
17.9469
  0
LINE
  8
0
 10
30.5621
 20
17.9469
 11
30.7461
 21
17.9057
  0
LINE
  8
0
 10
30.7461
 20
17.9057
 11
30.927
 21
17.8532
  0
LINE
  8
0
 10
30.927
 20
17.8532
 11
31.1044
 21
17.7893
  0
LINE
  8
0
 10
31.1044
 20
17.7893
 11
31.2773
 21
17.7145
  0
LINE
  8
0
 10
31.2773
 20
17.7145
 11
31.4453
 21
17.6289
  0
LINE
  8
0
 10
31.4453
 20
17.6289
 11
31.6075
 21
17.533
  0
LINE
  8
0
 10
31.6075
 20
17.533
 11
31.7634
 21
17.427
  0
LINE
  8
0
 10
31.7634
 20
17.427
 11
31.9123
 21
17.3115
  0
LINE
  8
0
 10
31.9123
 20
17.3115
 11
32.0536
 21
17.1869
  0
LINE
  8
0
 10
32.0536
 20
17.1869
 11
32.1869
 21
17.0536
  0
LINE
  8
0
 10
32.1869
 20
17.0536
 11
32.3115
 21
16.9123
  0
LINE
  8
0
 10
32.3115
 20
16.9123
 11
32.427
 21
16.7634
  0
LINE
  8
0
 10
32.427
 20
16.7634
 11
32.533
 21
16.6075
  0
LINE
  8
0
 10
32.533
 20
16.6075
 11
32.6289
 21
16.4453
  0
LINE
  8
0
 10
32.6289
 20
16.4453
 11
32.7145
 21
16.2773
  0
LINE
  8
0
 10
32.7145
 20
16.2773
 11
32.7893
 21
16.1044
  0
LINE
  8
0
 10
32.7893
 20
16.1044
 11
32.8532
 21
15.927
  0
LINE
  8
0
 10
32.8532
 20
15.927
 11
32.9057
 21
15.7461
  0
LINE
  8
0
 10
32.9057
 20
15.7461
 11
32.9469
 21
15.5621
  0
LINE
  8
0
 10
32.9469
 20
15.5621
 11
32.9763
 21
15.376
  0
LINE
  8
0
 10
32.9763
 20
15.376
 11
32.9941
 21
15.1884
  0
LINE
  8
0
 10
32.9941
 20
15.1884
 11
33
 21
15
  0
LINE
  8
0
 10
33
 20
15
 11
32.9941
 21
14.8116
  0
LINE
  8
0
 10
32.9941
 20
14.8116
 11
32.9763
 21
14.624
  0
LINE
  8
0
 10
32.9763
 20
14.624
 11
32.9469
 21
14.4379
  0
LINE
  8
0
 10
32.9469
 20
14.4379
 11
32.9057
 21
14.2539
  0
LINE
  8
0
 10
32.9057
 20
14.2539
 11
32.8532
 21
14.0729
  0
LINE
  8
0
 10
32.8532
 20
14.0729
 11
32.7893
 21
13.8956
  0
LINE
  8
0
 10
32.7893
 20
13.8956
 11
32.7145
 21
13.7227
  0
LINE
  8
0
 10
32.7145
 20
13.7227
 11
32.6289
 21
13.5547
  0
LINE
  8
0
 10
32.6289
 20
13.5547
 11
32.533
 21
13.3925
  0
LINE
  8
0
 10
32.533
 20
13.3925
 11
32.427
 21
13.2366
  0
LINE
  8
0
 10
32.427
 20
13.2366
 11
32.3115
 21
13.0877
  0
LINE
  8
0
 10
32.3115
 20
13.0877
 11
32.1869
 21
12.9464
  0
LINE
  8
0
 10
32.1869
 20
12.9464
 11
32.0536
 21
12.8131
  0
LINE
  8
0
 10
32.0536
 20
12.8131
 11
31.9123
 21
12.6884
  0
LINE
  8
0
 10
31.9123
 20
12.6884
 11
31.7634
 21
12.5729
  0
LINE
  8
0
 10
31.7634
 20
12.5729
 11
31.6075
 21
12.467
  0
LINE
  8
0
 10
31.6075
 20
12.467
 11
31.4453
 21
12.3711
  0
LINE
  8
0
 10
31.4453
 20
12.3711
 11
31.2773
 21
12.2855
  0
LINE
  8
0
 10
31.2773
 20
12.2855
 11
31.1044
 21
12.2107
  0
LINE
  8
0
 10
31.1044
 20
12.2107
 11
30.927
 21
12.1468
  0
LINE
  8
0
 10
30.927
 20
12.1468
 11
30.7461
 21
12.0942
  0
LINE
  8
0
 10
30.7461
 20
12.0942
 11
30.5621
 21
12.0531
  0
LINE
  8
0
 10
30.5621
 20
12.0531
 11
30.376
 21
12.0237
  0
LINE
  8
0
 10
30.376
 20
12.0237
 11
30.1884
 21
12.0059
  0
LINE
  8
0
 10
30.1884
 20
12.0059
 11
30
 21
12
  0
LINE
  8
0
 10
30
 20
12
 11
29.8116
 21
12.0059
  0
LINE
  8
0
 10
44.8116
 20
12.0059
 11
44.624
 21
12.0237
  0
LINE
  8
0
 10
44.624
 20
12.0237
 11
44.4379
 21
12.0531
  0
LINE
  8
0
 10
44.4379
 20
12.0531
 11
44.2539
 21
12.0942
  0
LINE
  8
0
 10
44.2539
 20
12.0942
 11
44.0729
 21
12.1468
  0
LINE
  8
0
 10
44.0729
 20
12.1468
 11
43.8956
 21
12.2107
  0
LINE
  8
0
 10
43.8956
 20
12.2107
 11
43.7227
 21
12.2855
  0
LINE
  8
0
 10
43.7227
 20
12.2855
 11
43.5547
 21
12.3711
  0
LINE
  8
0
 10
43.5547
 20
12.3711
 11
43.3925
 21
12.467
  0
LINE
  8
0
 10
43.3925
 20
12.467
 11
43.2366
 21
12.5729
  0
LINE
  8
0
 10
43.2366
 20
12.5729
 11
43.0877
 21
12.6884
  0
LINE
  8
0
 10
43.0877
 20
12.6884
 11
42.9464
 21
12.8131
  0
LINE
  8
0
 10
42.9464
 20
12.8131
 11
42.8131
 21
12.9464
  0
LINE
  8
0
 10
42.8131
 20
12.9464
 11
42.6884
 21
13.0877
  0
LINE
  8
0
 10
42.6884
 20
13.0877
 11
42.5729
 21
13.2366
  0
LINE
  8
0
 10
42.5729
 20
13.2366
 11
42.467
 21
13.3925
  0
LINE
  8
0
 10
42.467
 20
13.3925
 11
42.3711
 21
13.5547
  0
LINE
  8
0
 10
42.3711
 20
13.5547
 11
42.2855
 21
13.7227
  0
LINE
  8
0
 10
42.2855
 20
13.7227
 11
42.2107
 21
13.8956
  0
LINE
  8
0
 10
42.2107
 20
13.8956
 11
42.1468
 21
14.0729
  0
LINE
  8
0
 10
42.1468
 20
14.0729
 11
42.0942
 21
14.2539
  0
LINE
  8
0
 10
42.0942
 20
14.2539
 11
42.0531
 21
14.4379
  0
LINE
  8
0
 10
42.0531
 20
14.4379
 11
42.0237
 21
14.624
  0
LINE
  8
0
 10
42.0237
 20
14.624
 11
42.0059
 21
14.8116
  0
LINE
  8
0
 10
42.0059
 20
14.8116
 11
42
 21
15
  0
LINE
  8
0
 10
42
 20
15
 11
42.0059
 21
15.1884
  0
LINE
  8
0
 10
42.0059
 20
15.1884
 11
42.0237
 21
15.376
  0
LINE
  8
0
 10
42.0237
 20
15.376
 11
42.0531
 21
15.5621
  0
LINE
  8
0
 10
42.0531
 20
15.5621
 11
42.0942
 21
15.7461
  0
LINE
  8
0
 10
42.0942
 20
15.7461
 11
42.1468
 21
15.927
  0
LINE
  8
0
 10
42.1468
 20
15.927
 11
42.2107
 21
16.1044
  0
LINE
  8
0
 10
42.2107
 20
16.1044
 11
42.2855
 21
16.2773
  0
LINE
  8
0
 10
42.2855
 20
16.2773
 11
42.3711
 21
16.4453
  0
LINE
  8
0
 10
42.3711
 20
16.4453
 11
42.467
 21
16.6075
  0
LINE
  8
0
 10
42.467
 20
16.6075
 11
42.5729
 21
16.7634
  0
LINE
  8
0
 10
42.5729
 20
16.7634
 11
42.6884
 21
16.9123
  0
LINE
  8
0
 10
42.6884
 20
16.9123
 11
42.8131
 21
17.0536
  0
LINE
  8
0
 10
42.8131
 20
17.0536
 11
42.9464
 21
17.1869
  0
LINE
  8
0
 10
42.9464
 20
17.1869
 11
43.0877
 21
17.3115
  0
LINE
  8
0
 10
43.0877
 20
17.3115
 11
43.2366
 21
17.427
  0
LINE
  8
0
 10
43.2366
 20
17.427
 11
43.3925
 21
17.533
  0
LINE
  8
0
 10
43.3925
 20
17.533
 11
43.5547
 21
17.6289
  0
LINE
  8
0
 10
43.5547
 20
17.6289
 11
43.7227
 21
17.7145
  0
LINE
  8
0
 10
43.7227
 20
17.7145
 11
43.8956
 21
17.7893
  0
LINE
  8
0
 10
43.8956
 20
17.7893
 11
44.0729
 21
17.8532
  0
LINE
  8
0
 10
44.0729
 20
17.8532
 11
44.2539
 21
17.9057
  0
LINE
  8
0
 10
44.2539
 20
17.9057
 11
44.4379
 21
17.9469
  0
LINE
  8
0
 10
44.4379
 20
17.9469
 11
44.624
 21
17.9763
  0
LINE
  8
0
 10
44.624
 20
17.9763
 11
44.8116
 21
17.9941
  0
LINE
  8
0
 10
44.8116
 20
17.9941
 11
45
 21
18
  0
LINE
  8
0
 10
45
 20
18
 11
45.1884
 21
17.9941
  0
LINE
  8
0
 10
45.1884
 20
17.9941
 11
45.376
 21
17.9763
  0
LINE
  8
0
 10
45.376
 20
17.9763
 11
45.5621
 21
17.9469
  0
LINE
  8
0
 10
45.5621
 20
17.9469
 11
45.7461
 21
17.9057
  0
LINE
  8
0
 10
45.7461
 20
17.9057
 11
45.927
 21
17.8532
  0
LINE
  8
0
 10
45.927
 20
17.8532
 11
46.1044
 21
17.7893
  0
LINE
  8
0
 10
46.1044
 20
17.7893
 11
46.2773
 21
17.7145
  0
LINE
  8
0
 10
46.2773
 20
17.7145
 11
46.4453
 21
17.6289
  0
LINE
  8
0
 10
46.4453
 20
17.6289
 11
46.6075
 21
17.533
  0
LINE
  8
0
 10
46.6075
 20
17.533
 11
46.7634
 21
17.427
  0
LINE
  8
0
 10
46.7634
 20
17.427
 11
46.9123
 21
17.3115
  0
LINE
  8
0
 10
46.9123
 20
17.3115
 11
47.0536
 21
17.1869
  0
LINE
  8
0
 10
47.0536
 20
17.1869
 11
47.1869
 21
17.0536
  0
LINE
  8
0
 10
47.1869
 20
17.0536
 11
47.3115
 21
16.9123
  0
LINE
  8
0
 10
47.3115
 20
16.9123
 11
47.427
 21
16.7634
  0
LINE
  8
0
 10
47.427
 20
16.7634
 11
47.533
 21
16.6075
  0
LINE
  8
0
 10
47.533
 20
16.6075
 11
47.6289
 21
16.4453
  0
LINE
  8
0
 10
47.6289
 20
16.4453
 11
47.7145
 21
16.2773
  0
LINE
  8
0
 10
47.7145
 20
16.2773
 11
47.7893
 21
16.1044
  0
LINE
  8
0
 10
47.7893
 20
16.1044
 11
47.8532
 21
15.927
  0
LINE
  8
0
 10
47.8532
 20
15.927
 11
47.9057
 21
15.7461
  0
LINE
  8
0
 10
47.9057
 20
15.7461
 11
47.9469
 21
15.5621
  0
LINE
  8
0
 10
47.9469
 20
15.5621
 11
47.9763
 21
15.376
  0
LINE
  8
0
 10
47.9763
 20
15.376
 11
47.9941
 21
15.1884
  0
LINE
  8
0
 10
47.9941
 20
15.1884
 11
48
 21
15
  0
LINE
  8
0
 10
48
 20
15
 11
47.9941
 21
14.8116
  0
LINE
  8
0
 10
47.9941
 20
14.8116
 11
47.9763
 21
14.624
  0
LINE
  8
0
 10
47.9763
 20
14.624
 11
47.9469
 21
14.4379
  0
LINE
  8
0
 10
47.9469
 20
14.4379
 11
47.9057
 21
14.2539
  0
LINE
  8
0
 10
47.9057
 20
14.2539
 11
47.8532
 21
14.0729
  0
LINE
  8
0
 10
47.8532
 20
14.0729
 11
47.7893
 21
13.8956
  0
LINE
  8
0
 10
47.7893
 20
13.8956
 11
47.7145
 21
13.7227
  0
LINE
  8
0
 10
47.7145
 20
13.7227
 11
47.6289
 21
13.5547
  0
LINE
  8
0
 10
47.6289
 20
13.5547
 11
47.533
 21
13.3925
  0
LINE
  8
0
 10
47.533
 20
13.3925
 11
47.427
 21
13.2366
  0
LINE
  8
0
 10
47.427
 20
13.2366
 11
47.3115
 21
13.0877
  0
LINE
  8
0
 10
47.3115
 20
13.0877
 11
47.1869
 21
12.9464
  0
LINE
  8
0
 10
47.1869
 20
12.9464
 11
47.0536
 21
12.8131
  0
LINE
  8
0
 10
47.0536
 20
12.8131
 11
46.9123
 21
12.6884
  0
LINE
  8
0
 10
46.9123
 20
12.6884
 11
46.7634
 21
12.5729
  0
LINE
  8
0
 10
46.7634
 20
12.5729
 11
46.6075
 21
12.467
  0
LINE
  8
0
 10
46.6075
 20
12.467
 11
46.4453
 21
12.3711
  0
LINE
  8
0
 10
46.4453
 20
12.3711
 11
46.2773
 21
12.2855
  0
LINE
  8
0
 10
46.2773
 20
12.2855
 11
46.1044
 21
12.2107
  0
LINE
  8
0
 10
46.1044
 20
12.2107
 11
45.927
 21
12.1468
  0
LINE
  8
0
 10
45.927
 20
12.1468
 11
45.7461
 21
12.0942
  0
LINE
  8
0
 10
45.7461
 20
12.0942
 11
45.5621
 21
12.0531
  0
LINE
  8
0
 10
45.5621
 20
12.0531
 11
45.376
 21
12.0237
  0
LINE
  8
0
 10
45.376
 20
12.0237
 11
45.1884
 21
12.0059
  0
LINE
  8
0
 10
45.1884
 20
12.0059
 11
45
 21
12
  0
LINE
  8
0
 10
45
 20
12
 11
44.8116
 21
12.0059
  0
LINE
  8
0
 10
59.8116
 20
12.0059
 11
59.624
 21
12.0237
  0
LINE
  8
0
 10
59.624
 20
12.0237
 11
59.4379
 21
12.0531
  0
LINE
  8
0
 10
59.4379
 20
12.0531
 11
59.2539
 21
12.0942
  0
LINE
  8
0
 10
59.2539
 20
12.0942
 11
59.0729
 21
12.1468
  0
LINE
  8
0
 10
59.0729
 20
12.1468
 11
58.8956
 21
12.2107
  0
LINE
  8
0
 10
58.8956
 20
12.2107
 11
58.7227
 21
12.2855
  0
LINE
  8
0
 10
58.7227
 20
12.2855
 11
58.5547
 21
12.3711
  0
LINE
  8
0
 10
58.5547
 20
12.3711
 11
58.3925
 21
12.467
  0
LINE
  8
0
 10
58.3925
 20
12.467
 11
58.2366
 21
12.5729
  0
LINE
  8
0
 10
58.2366
 20
12.5729
 11
58.0877
 21
12.6884
  0
LINE
  8
0
 10
58.0877
 20
12.6884
 11
57.9464
 21
12.8131
  0
LINE
  8
0
 10
57.9464
 20
12.8131
 11
57.8131
 21
12.9464
  0
LINE
  8
0
 10
57.8131
 20
12.9464
 11
57.6884
 21
13.0877
  0
LINE
  8
0
 10
57.6884
 20
13.0877
 11
57.5729
 21
13.2366
  0
LINE
  8
0
 10
57.5729
 20
13.2366
 11
57.467
 21
13.3925
  0
LINE
  8
0
 10
57.467
 20
13.3925
 11
57.3711
 21
13.5547
  0
LINE
  8
0
 10
57.3711
 20
13.5547
 11
57.2855
 21
13.7227
  0
LINE
  8
0
 10
57.2855
 20
13.7227
 11
57.2107
 21
13.8956
  0
LINE
  8
0
 10
57.2107
 20
13.8956
 11
57.1468
 21
14.0729
  0
LINE
  8
0
 10
57.1468
 20
14.0729
 11
57.0942
 21
14.2539
  0
LINE
  8
0
 10
57.0942
 20
14.2539
 11
57.0531
 21
14.4379
  0
LINE
  8
0
 10
57.0531
 20
14.4379
 11
57.0237
 21
14.624
  0
LINE
  8
0
 10
57.0237
 20
14.624
 11
57.0059
 21
14.8116
  0
LINE
  8
0
 10
57.0059
 20
14.8116
 11
57
 21
15
  0
LINE
  8
0
 10
57
 20
15
 11
57.0059
 21
15.1884
  0
LINE
  8
0
 10
57.0059
 20
15.1884
 11
57.0237
 21
15.376
  0
LINE
  8
0
 10
57.0237
 20
15.376
 11
57.0531
 21
15.5621
  0
LINE
  8
0
 10
57.0531
 20
15.5621
 11
57.0942
 21
15.7461
  0
LINE
  8
0
 10
57.0942
 20
15.7461
 11
57.1468
 21
15.927
  0
LINE
  8
0
 10
57.1468
 20
15.927
 11
57.2107
 21
16.1044
  0
LINE
  8
0
 10
57.2107
 20
16.1044
 11
57.2855
 21
16.2773
  0
LINE
  8
0
 10
57.2855
 20
16.2773
 11
57.3711
 21
16.4453
  0
LINE
  8
0
 10
57.3711
 20
16.4453
 11
57.467
 21
16.6075
  0
LINE
  8
0
 10
57.467
 20
16.6075
 11
57.5729
 21
16.7634
  0
LINE
  8
0
 10
57.5729
 20
16.7634
 11
57.6884
 21
16.9123
  0
LINE
  8
0
 10
57.6884
 20
16.9123
 11
57.8131
 21
17.0536
  0
LINE
  8
0
 10
57.8131
 20
17.0536
 11
57.9464
 21
17.1869
  0
LINE
  8
0
 10
57.9464
 20
17.1869
 11
58.0877
 21
17.3115
  0
LINE
  8
0
 10
58.0877
 20
17.3115
 11
58.2366
 21
17.427
  0
LINE
  8
0
 10
58.2366
 20
17.427
 11
58.3925
 21
17.533
  0
LINE
  8
0
 10
58.3925
 20
17.533
 11
58.5547
 21
17.6289
  0
LINE
  8
0
 10
58.5547
 20
17.6289
 11
58.7227
 21
17.7145
  0
LINE
  8
0
 10
58.7227
 20
17.7145
 11
58.8956
 21
17.7893
  0
LINE
  8
0
 10
58.8956
 20
17.7893
 11
59.0729
 21
17.8532
  0
LINE
  8
0
 10
59.0729
 20
17.8532
 11
59.2539
 21
17.9057
  0
LINE
  8
0
 10
59.2539
 20
17.9057
 11
59.4379
 21
17.9469
  0
LINE
  8
0
 10
59.4379
 20
17.9469
 11
59.624
 21
17.9763
  0
LINE
  8
0
 10
59.624
 20
17.9763
 11
59.8116
 21
17.9941
  0
LINE
  8
0
 10
59.8116
 20
17.9941
 11
60
 21
18
  0
LINE
  8
0
 10
60
 20
18
 11
60.1884
 21
17.9941
  0
LINE
  8
0
 10
60.1884
 20
17.9941
 11
60.376
 21
17.9763
  0
LINE
  8
0
 10
60.376
 20
17.9763
 11
60.5621
 21
17.9469
  0
LINE
  8
0
 10
60.5621
 20
17.9469
 11
60.7461
 21
17.9057
  0
LINE
  8
0
 10
60.7461
 20
17.9057
 11
60.927
 21
17.8532
  0
LINE
  8
0
 10
60.927
 20
17.8532
 11
61.1044
 21
17.7893
  0
LINE
  8
0
 10
61.1044
 20
17.7893
 11
61.2773
 21
17.7145
  0
LINE
  8
0
 10
61.2773
 20
17.7145
 11
61.4453
 21
17.6289
  0
LINE
  8
0
 10
61.4453
 20
17.6289
 11
61.6075
 21
17.533
  0
LINE
  8
0
 10
61.6075
 20
17.533
 11
61.7634
 21
17.427
  0
LINE
  8
0
 10
61.7634
 20
17.427
 11
61.9123
 21
17.3115
  0
LINE
  8
0
 10
61.9123
 20
17.3115
 11
62.0536
 21
17.1869
  0
LINE
  8
0
 10
62.0536
 20
17.1869
 11
62.1869
 21
17.0536
  0
LINE
  8
0
 10
62.1869
 20
17.0536
 11
62.3115
 21
16.9123
  0
LINE
  8
0
 10
62.3115
 20
16.9123
 11
62.427
 21
16.7634
  0
LINE
  8
0
 10
62.427
 20
16.7634
 11
62.533
 21
16.6075
  0
LINE
  8
0
 10
62.533
 20
16.6075
 11
62.6289
 21
16.4453
  0
LINE
  8
0
 10
62.6289
 20
16.4453
 11
62.7145
 21
16.2773
  0
LINE
  8
0
 10
62.7145
 20
16.2773
 11
62.7893
 21
16.1044
  0
LINE
  8
0
 10
62.7893
 20
16.1044
 11
62.8532
 21
15.927
  0
LINE
  8
0
 10
62.8532
 20
15.927
 11
62.9057
 21
15.7461
  0
LINE
  8
0
 10
62.9057
 20
15.7461
 11
62.9469
 21
15.5621
  0
LINE
  8
0
 10
62.9469
 20
15.5621
 11
62.9763
 21
15.376
  0
LINE
  8
0
 10
62.9763
 20
15.376
 11
62.9941
 21
15.1884
  0
LINE
  8
0
 10
62.9941
 20
15.1884
 11
63
 21
15
  0
LINE
  8
0
 10
63
 20
15
 11
62.9941
 21
14.8116
  0
LINE
  8
0
 10
62.9941
 20
14.8116
 11
62.9763
 21
14.624
  0
LINE
  8
0
 10
62.9763
 20
14.624
 11
62.9469
 21
14.4379
  0
LINE
  8
0
 10
62.9469
 20
14.4379
 11
62.9057
 21
14.2539
  0
LINE
  8
0
 10
62.9057
 20
14.2539
 11
62.8532
 21
14.0729
  0
LINE
  8
0
 10
62.8532
 20
14.0729
 11
62.7893
 21
13.8956
  0
LINE
  8
0
 10
62.7893
 20
13.8956
 11
62.7145
 21
13.7227
  0
LINE
  8
0
 10
62.7145
 20
13.7227
 11
62.6289
 21
13.5547
  0
LINE
  8
0
 10
62.6289
 20
13.5547
 11
62.533
 21
13.3925
  0
LINE
  8
0
 10
62.533
 20
13.3925
 11
62.427
 21
13.2366
  0
LINE
  8
0
 10
62.427
 20
13.2366
 11
62.3115
 21
13.0877
  0
LINE
  8
0
 10
62.3115
 20
13.0877
 11
62.1869
 21
12.9464
  0
LINE
  8
0
 10
62.1869
 20
12.9464
 11
62.0536
 21
12.8131
  0
LINE
  8
0
 10
62.0536
 20
12.8131
 11
61.9123
 21
12.6884
  0
LINE
  8
0
 10
61.9123
 20
12.6884
 11
61.7634
 21
12.5729
  0
LINE
  8
0
 10
61.7634
 20
12.5729
 11
61.6075
 21
12.467
  0
LINE
  8
0
 10
61.6075
 20
12.467
 11
61.4453
 21
12.3711
  0
LINE
  8
0
 10
61.4453
 20
12.3711
 11
61.2773
 21
12.2855
  0
LINE
  8
0
 10
61.2773
 20
12.2855
 11
61.1044
 21
12.2107
  0
LINE
  8
0
 10
61.1044
 20
12.2107
 11
60.927
 21
12.1468
  0
LINE
  8
0
 10
60.927
 20
12.1468
 11
60.7461
 21
12.0942
  0
LINE
  8
0
 10
60.7461
 20
12.0942
 11
60.5621
 21
12.0531
  0
LINE
  8
0
 10
60.5621
 20
12.0531
 11
60.376
 21
12.0237
  0
LINE
  8
0
 10
60.376
 20
12.0237
 11
60.1884
 21
12.0059
  0
LINE
  8
0
 10
60.1884
 20
12.0059
 11
60
 21
12
  0
LINE
  8
0
 10
60
 20
12
 11
59.8116
 21
12.0059
  0
LINE
  8
0
 10
74.8116
 20
12.0059
 11
74.624
 21
12.0237
  0
LINE
  8
0
 10
74.624
 20
12.0237
 11
74.4379
 21
12.0531
  0
LINE
  8
0
 10
74.4379
 20
12.0531
 11
74.2539
 21
12.0942
  0
LINE
  8
0
 10
74.2539
 20
12.0942
 11
74.0729
 21
12.1468
  0
LINE
  8
0
 10
74.0729
 20
12.1468
 11
73.8956
 21
12.2107
  0
LINE
  8
0
 10
73.8956
 20
12.2107
 11
73.7227
 21
12.2855
  0
LINE
  8
0
 10
73.7227
 20
12.2855
 11
73.5547
 21
12.3711
  0
LINE
  8
0
 10
73.5547
 20
12.3711
 11
73.3925
 21
12.467
  0
LINE
  8
0
 10
73.3925
 20
12.467
 11
73.2366
 21
12.5729
  0
LINE
  8
0
 10
73.2366
 20
12.5729
 11
73.0877
 21
12.6884
  0
LINE
  8
0
 10
73.0877
 20
12.6884
 11
72.9464
 21
12.8131
  0
LINE
  8
0
 10
72.9464
 20
12.8131
 11
72.8131
 21
12.9464
  0
LINE
  8
0
 10
72.8131
 20
12.9464
 11
72.6884
 21
13.0877
  0
LINE
  8
0
 10
72.6884
 20
13.0877
 11
72.5729
 21
13.2366
  0
LINE
  8
0
 10
72.5729
 20
13.2366
 11
72.467
 21
13.3925
  0
LINE
  8
0
 10
72.467
 20
13.3925
 11
72.3711
 21
13.5547
  0
LINE
  8
0
 10
72.3711
 20
13.5547
 11
72.2855
 21
13.7227
  0
LINE
  8
0
 10
72.2855
 20
13.7227
 11
72.2107
 21
13.8956
  0
LINE
  8
0
 10
72.2107
 20
13.8956
 11
72.1468
 21
14.0729
  0
LINE
  8
0
 10
72.1468
 20
14.0729
 11
72.0942
 21
14.2539
  0
LINE
  8
0
 10
72.0942
 20
14.2539
 11
72.0531
 21
14.4379
  0
LINE
  8
0
 10
72.0531
 20
14.4379
 11
72.0237
 21
14.624
  0
LINE
  8
0
 10
72.0237
 20
14.624
 11
72.0059
 21
14.8116
  0
LINE
  8
0
 10
72.0059
 20
14.8116
 11
72
 21
15
  0
LINE
  8
0
 10
72
 20
15
 11
72.0059
 21
15.1884
  0
LINE
  8
0
 10
72.0059
 20
15.1884
 11
72.0237
 21
15.376
  0
LINE
  8
0
 10
72.0237
 20
15.376
 11
72.0531
 21
15.5621
  0
LINE
  8
0
 10
72.0531
 20
15.5621
 11
72.0942
 21
15.7461
  0
LINE
  8
0
 10
72.0942
 20
15.7461
 11
72.1468
 21
15.927
  0
LINE
  8
0
 10
72.1468
 20
15.927
 11
72.2107
 21
16.1044
  0
LINE
  8
0
 10
72.2107
 20
16.1044
 11
72.2855
 21
16.2773
  0
LINE
  8
0
 10
72.2855
 20
16.2773
 11
72.3711
 21
16.4453
  0
LINE
  8
0
 10
72.3711
 20
16.4453
 11
72.467
 21
16.6075
  0
LINE
  8
0
 10
72.467
 20
16.6075
 11
72.5729
 21
16.7634
  0
LINE
  8
0
 10
72.5729
 20
16.7634
 11
72.6884
 21
16.9123
  0
LINE
  8
0
 10
72.6884
 20
16.9123
 11
72.8131
 21
17.0536
  0
LINE
  8
0
 10
72.8131
 20
17.0536
 11
72.9464
 21
17.1869
  0
LINE
  8
0
 10
72.9464
 20
17.1869
 11
73.0877
 21
17.3115
  0
LINE
  8
0
 10
73.0877
 20
17.3115
 11
73.2366
 21
17.427
  0
LINE
  8
0
 10
73.2366
 20
17.427
 11
73.3925
 21
17.533
  0
LINE
  8
0
 10
73.3925
 20
17.533
 11
73.5547
 21
17.6289
  0
LINE
  8
0
 10
73.5547
 20
17.6289
 11
73.7227
 21
17.7145
  0
LINE
  8
0
 10
73.7227
 20
17.7145
 11
73.8956
 21
17.7893
  0
LINE
  8
0
 10
73.8956
 20
17.7893
 11
74.0729
 21
17.8532
  0
LINE
  8
0
 10
74.0729
 20
17.8532
 11
74.2539
 21
17.9057
  0
LINE
  8
0
 10
74.2539
 20
17.9057
 11
74.4379
 21
17.9469
  0
LINE
  8
0
 10
74.4379
 20
17.9469
 11
74.624
 21
17.9763
  0
LINE
  8
0
 10
74.624
 20
17.9763
 11
74.8116
 21
17.9941
  0
LINE
  8
0
 10
74.8116
 20
17.9941
 11
75
 21
18
  0
LINE
  8
0
 10
75
 20
18
 11
75.1884
 21
17.9941
  0
LINE
  8
0
 10
75.1884
 20
17.9941
 11
75.376
 21
17.9763
  0
LINE
  8
0
 10
75.376
 20
17.9763
 11
75.5621
 21
17.9469
  0
LINE
  8
0
 10
75.5621
 20
17.9469
 11
75.7461
 21
17.9057
  0
LINE
  8
0
 10
75.7461
 20
17.9057
 11
75.927
 21
17.8532
  0
LINE
  8
0
 10
75.927
 20
17.8532
 11
76.1044
 21
17.7893
  0
LINE
  8
0
 10
76.1044
 20
17.7893
 11
76.2773
 21
17.7145
  0
LINE
  8
0
 10
76.2773
 20
17.7145
 11
76.4453
 21
17.6289
  0
LINE
  8
0
 10
76.4453
 20
17.6289
 11
76.6075
 21
17.533
  0
LINE
  8
0
 10
76.6075
 20
17.533
 11
76.7634
 21
17.427
  0
LINE
  8
0
 10
76.7634
 20
17.427
 11
76.9123
 21
17.3115
  0
LINE
  8
0
 10
76.9123
 20
17.3115
 11
77.0536
 21
17.1869
  0
LINE
  8
0
 10
77.0536
 20
17.1869
 11
77.1869
 21
17.0536
  0
LINE
  8
0
 10
77.1869
 20
17.0536
 11
77.3115
 21
16.9123
  0
LINE
  8
0
 10
77.3115
 20
16.9123
 11
77.427
 21
16.7634
  0
LINE
  8
0
 10
77.427
 20
16.7634
 11
77.533
 21
16.6075
  0
LINE
  8
0
 10
77.533
 20
16.6075
 11
77.6289
 21
16.4453
  0
LINE
  8
0
 10
77.6289
 20
16.4453
 11
77.7145
 21
16.2773
  0
LINE
  8
0
 10
77.7145
 20
16.2773
 11
77.7893
 21
16.1044
  0
LINE
  8
0
 10
77.7893
 20
16.1044
 11
77.8532
 21
15.927
  0
LINE
  8
0
 10
77.8532
 20
15.927
 11
77.9057
 21
15.7461
  0
LINE
  8
0
 10
77.9057
 20
15.7461
 11
77.9469
 21
15.5621
  0
LINE
  8
0
 10
77.9469
 20
15.5621
 11
77.9763
 21
15.376
  0
LINE
  8
0
 10
77.9763
 20
15.376
 11
77.9941
 21
15.1884
  0
LINE
  8
0
 10
77.9941
 20
15.1884
 11
78
 21
15
  0
LINE
  8
0
 10
78
 20
15
 11
77.9941
 21
14.8116
  0
LINE
  8
0
 10
77.9941
 20
14.8116
 11
77.9763
 21
14.624
  0
LINE
  8
0
 10
77.9763
 20
14.624
 11
77.9469
 21
14.4379
  0
LINE
  8
0
 10
77.9469
 20
14.4379
 11
77.9057
 21
14.2539
  0
LINE
  8
0
 10
77.9057
 20
14.2539
 11
77.8532
 21
14.0729
  0
LINE
  8
0
 10
77.8532
 20
14.0729
 11
77.7893
 21
13.8956
  0
LINE
  8
0
 10
77.7893
 20
13.8956
 11
77.7145
 21
13.7227
  0
LINE
  8
0
 10
77.7145
 20
13.7227
 11
77.6289
 21
13.5547
  0
LINE
  8
0
 10
77.6289
 20
13.5547
 11
77.533
 21
13.3925
  0
LINE
  8
0
 10
77.533
 20
13.3925
 11
77.427
 21
13.2366
  0
LINE
  8
0
 10
77.427
 20
13.2366
 11
77.3115
 21
13.0877
  0
LINE
  8
0
 10
77.3115
 20
13.0877
 11
77.1869
 21
12.9464
  0
LINE
  8
0
 10
77.1869
 20
12.9464
 11
77.0536
 21
12.8131
  0
LINE
  8
0
 10
77.0536
 20
12.8131
 11
76.9123
 21
12.6884
  0
LINE
  8
0
 10
76.9123
 20
12.6884
 11
76.7634
 21
12.5729
  0
LINE
  8
0
 10
76.7634
 20
12.5729
 11
76.6075
 21
12.467
  0
LINE
  8
0
 10
76.6075
 20
12.467
 11
76.4453
 21
12.3711
  0
LINE
  8
0
 10
76.4453
 20
12.3711
 11
76.2773
 21
12.2855
  0
LINE
  8
0
 10
76.2773
 20
12.2855
 11
76.1044
 21
12.2107
  0
LINE
  8
0
 10
76.1044
 20
12.2107
 11
75.927
 21
12.1468
  0
LINE
  8
0
 10
75.927
 20
12.1468
 11
75.7461
 21
12.0942
  0
LINE
  8
0
 10
75.7461
 20
12.0942
 11
75.5621
 21
12.0531
  0
LINE
  8
0
 10
75.5621
 20
12.0531
 11
75.376
 21
12.0237
  0
LINE
  8
0
 10
75.376
 20
12.0237
 11
75.1884
 21
12.0059
  0
LINE
  8
0
 10
75.1884
 20
12.0059
 11
75
 21
12
  0
LINE
  8
0
 10
75
 20
12
 11
74.8116
 21
12.0059
  0
LINE
  8
0
 10
89.8116
 20
12.0059
 11
89.624
 21
12.0237
  0
LINE
  8
0
 10
89.624
 20
12.0237
 11
89.4379
 21
12.0531
  0
LINE
  8
0
 10
89.4379
 20
12.0531
 11
89.2539
 21
12.0942
  0
LINE
  8
0
 10
89.2539
 20
12.0942
 11
89.0729
 21
12.1468
  0
LINE
  8
0
 10
89.0729
 20
12.1468
 11
88.8956
 21
12.2107
  0
LINE
  8
0
 10
88.8956
 20
12.2107
 11
88.7227
 21
12.2855
  0
LINE
  8
0
 10
88.7227
 20
12.2855
 11
88.5547
 21
12.3711
  0
LINE
  8
0
 10
88.5547
 20
12.3711
 11
88.3925
 21
12.467
  0
LINE
  8
0
 10
88.3925
 20
12.467
 11
88.2366
 21
12.5729
  0
LINE
  8
0
 10
88.2366
 20
12.5729
 11
88.0877
 21
12.6884
  0
LINE
  8
0
 10
88.0877
 20
12.6884
 11
87.9464
 21
12.8131
  0
LINE
  8
0
 10
87.9464
 20
12.8131
 11
87.8131
 21
12.9464
  0
LINE
  8
0
 10
87.8131
 20
12.9464
 11
87.6884
 21
13.0877
  0
LINE
  8
0
 10
87.6884
 20
13.0877
 11
87.5729
 21
13.2366
  0
LINE
  8
0
 10
87.5729
 20
13.2366
 11
87.467
 21
13.3925
  0
LINE
  8
0
 10
87.467
 20
13.3925
 11
87.3711
 21
13.5547
  0
LINE
  8
0
 10
87.3711
 20
13.5547
 11
87.2855
 21
13.7227
  0
LINE
  8
0
 10
87.2855
 20
13.7227
 11
87.2107
 21
13.8956
  0
LINE
  8
0
 10
87.2107
 20
13.8956
 11
87.1468
 21
14.0729
  0
LINE
  8
0
 10
87.1468
 20
14.0729
 11
87.0942
 21
14.2539
  0
LINE
  8
0
 10
87.0942
 20
14.2539
 11
87.0531
 21
14.4379
  0
LINE
  8
0
 10
87.0531
 20
14.4379
 11
87.0237
 21
14.624
  0
LINE
  8
0
 10
87.0237
 20
14.624
 11
87.0059
 21
14.8116
  0
LINE
  8
0
 10
87.0059
 20
14.8116
 11
87
 21
15
  0
LINE
  8
0
 10
87
 20
15
 11
87.0059
 21
15.1884
  0
LINE
  8
0
 10
87.0059
 20
15.1884
 11
87.0237
 21
15.376
  0
LINE
  8
0
 10
87.0237
 20
15.376
 11
87.0531
 21
15.5621
  0
LINE
  8
0
 10
87.0531
 20
15.5621
 11
87.0942
 21
15.7461
  0
LINE
  8
0
 10
87.0942
 20
15.7461
 11
87.1468
 21
15.927
  0
LINE
  8
0
 10
87.1468
 20
15.927
 11
87.2107
 21
16.1044
  0
LINE
  8
0
 10
87.2107
 20
16.1044
 11
87.2855
 21
16.2773
  0
LINE
  8
0
 10
87.2855
 20
16.2773
 11
87.3711
 21
16.4453
  0
LINE
  8
0
 10
87.3711
 20
16.4453
 11
87.467
 21
16.6075
  0
LINE
  8
0
 10
87.467
 20
16.6075
 11
87.5729
 21
16.7634
  0
LINE
  8
0
 10
87.5729
 20
16.7634
 11
87.6884
 21
16.9123
  0
LINE
  8
0
 10
87.6884
 20
16.9123
 11
87.8131
 21
17.0536
  0
LINE
  8
0
 10
87.8131
 20
17.0536
 11
87.9464
 21
17.1869
  0
LINE
  8
0
 10
87.9464
 20
17.1869
 11
88.0877
 21
17.3115
  0
LINE
  8
0
 10
88.0877
 20
17.3115
 11
88.2366
 21
17.427
  0
LINE
  8
0
 10
88.2366
 20
17.427
 11
88.3925
 21
17.533
  0
LINE
  8
0
 10
88.3925
 20
17.533
 11
88.5547
 21
17.6289
  0
LINE
  8
0
 10
88.5547
 20
17.6289
 11
88.7227
 21
17.7145
  0
LINE
  8
0
 10
88.7227
 20
17.7145
 11
88.8956
 21
17.7893
  0
LINE
  8
0
 10
88.8956
 20
17.7893
 11
89.0729
 21
17.8532
  0
LINE
  8
0
 10
89.0729
 20
17.8532
 11
89.2539
 21
17.9057
  0
LINE
  8
0
 10
89.2539
 20
17.9057
 11
89.4379
 21
17.9469
  0
LINE
  8
0
 10
89.4379
 20
17.9469
 11
89.624
 21
17.9763
  0
LINE
  8
0
 10
89.624
 20
17.9763
 11
89.8116
 21
17.9941
  0
LINE
  8
0
 10
89.8116
 20
17.9941
 11
90
 21
18
  0
LINE
  8
0
 10
90
 20
18
 11
90.1884
 21
17.9941
  0
LINE
  8
0
 10
90.1884
 20
17.9941
 11
90.376
 21
17.9763
  0
LINE
  8
0
 10
90.376
 20
17.9763
 11
90.5621
 21
17.9469
  0
LINE
  8
0
 10
90.5621
 20
17.9469
 11
90.7461
 21
17.9057
  0
LINE
  8
0
 10
90.7461
 20
17.9057
 11
90.927
 21
17.8532
  0
LINE
  8
0
 10
90.927
 20
17.8532
 11
91.1044
 21
17.7893
  0
LINE
  8
0
 10
91.1044
 20
17.7893
 11
91.2773
 21
17.7145
  0
LINE
  8
0
 10
91.2773
 20
17.7145
 11
91.4453
 21
17.6289
  0
LINE
  8
0
 10
91.4453
 20
17.6289
 11
91.6075
 21
17.533
  0
LINE
  8
0
 10
91.6075
 20
17.533
 11
91.7634
 21
17.427
  0
LINE
  8
0
 10
91.7634
 20
17.427
 11
91.9123
 21
17.3115
  0
LINE
  8
0
 10
91.9123
 20
17.3115
 11
92.0536
 21
17.1869
  0
LINE
  8
0
 10
92.0536
 20
17.1869
 11
92.1869
 21
17.0536
  0
LINE
  8
0
 10
92.1869
 20
17.0536
 11
92.3115
 21
16.9123
  0
LINE
  8
0
 10
92.3115
 20
16.9123
 11
92.427
 21
16.7634
  0
LINE
  8
0
 10
92.427
 20
16.7634
 11
92.533
 21
16.6075
  0
LINE
  8
0
 10
92.533
 20
16.6075
 11
92.6289
 21
16.4453
  0
LINE
  8
0
 10
92.6289
 20
16.4453
 11
92.7145
 21
16.2773
  0
LINE
  8
0
 10
92.7145
 20
16.2773
 11
92.7893
 21
16.1044
  0
LINE
  8
0
 10
92.7893
 20
16.1044
 11
92.8532
 21
15.927
  0
LINE
  8
0
 10
92.8532
 20
15.927
 11
92.9057
 21
15.7461
  0
LINE
  8
0
 10
92.9057
 20
15.7461
 11
92.9469
 21
15.5621
  0
LINE
  8
0
 10
92.9469
 20
15.5621
 11
92.9763
 21
15.376
  0
LINE
  8
0
 10
92.9763
 20
15.376
 11
92.9941
 21
15.1884
  0
LINE
  8
0
 10
92.9941
 20
15.1884
 11
93
 21
15
  0
LINE
  8
0
 10
93
 20
15
 11
92.9941
 21
14.8116
  0
LINE
  8
0
 10
92.9941
 20
14.8116
 11
92.9763
 21
14.624
  0
LINE
  8
0
 10
92.9763
 20
14.624
 11
92.9469
 21
14.4379
  0
LINE
  8
0
 10
92.9469
 20
14.4379
 11
92.9057
 21
14.2539
  0
LINE
  8
0
 10
92.9057
 20
14.2539
 11
92.8532
 21
14.0729
  0
LINE
  8
0
 10
92.8532
 20
14.0729
 11
92.7893
 21
13.8956
  0
LINE
  8
0
 10
92.7893
 20
13.8956
 11
92.7145
 21
13.7227
  0
LINE
  8
0
 10
92.7145
 20
13.7227
 11
92.6289
 21
13.5547
  0
LINE
  8
0
 10
92.6289
 20
13.5547
 11
92.533
 21
13.3925
  0
LINE
  8
0
 10
92.533
 20
13.3925
 11
92.427
 21
13.2366
  0
LINE
  8
0
 10
92.427
 20
13.2366
 11
92.3115
 21
13.0877
  0
LINE
  8
0
 10
92.3115
 20
13.0877
 11
92.1869
 21
12.9464
  0
LINE
  8
0
 10
92.1869
 20
12.9464
 11
92.0536
 21
12.8131
  0
LINE
  8
0
 10
92.0536
 20
12.8131
 11
91.9123
 21
12.6884
  0
LINE
  8
0
 10
91.9123
 20
12.6884
 11
91.7634
 21
12.5729
  0
LINE
  8
0
 10
91.7634
 20
12.5729
 11
91.6075
 21
12.467
  0
LINE
  8
0
 10
91.6075
 20
12.467
 11
91.4453
 21
12.3711
  0
LINE
  8
0
 10
91.4453
 20
12.3711
 11
91.2773
 21
12.2855
  0
LINE
  8
0
 10
91.2773
 20
12.2855
 11
91.1044
 21
12.2107
  0
LINE
  8
0
 10
91.1044
 20
12.2107
 11
90.927
 21
12.1468
  0
LINE
  8
0
 10
90.927
 20
12.1468
 11
90.7461
 21
12.0942
  0
LINE
  8
0
 10
90.7461
 20
12.0942
 11
90.5621
 21
12.0531
  0
LINE
  8
0
 10
90.5621
 20
12.0531
 11
90.376
 21
12.0237
  0
LINE
  8
0
 10
90.376
 20
12.0237
 11
90.1884
 21
12.0059
  0
LINE
  8
0
 10
90.1884
 20
12.0059
 11
90
 21
12
  0
LINE
  8
0
 10
90
 20
12
 11
89.8116
 21
12.0059
  0
LINE
  8
0
 10
21
 20
13.5
 11
21
 21
16.5
  0
LINE
  8
0
 10
21
 20
16.5
 11
24
 21
16.5
  0
LINE
  8
0
 10
24
 20
16.5
 11
24
 21
13.5
  0
LINE
  8
0
 10
24
 20
13.5
 11
21
 21
13.5
  0
LINE
  8
0
 10
36
 20
13.5
 11
36
 21
16.5
  0
LINE
  8
0
 10
36
 20
16.5
 11
39
 21
16.5
  0
LINE
  8
0
 10
39
 20
16.5
 11
39
 21
13.5
  0
LINE
  8
0
 10
39
 20
13.5
 11
36
 21
13.5
  0
LINE
  8
0
 10
51
 20
13.5
 11
51
 21
16.5
  0
LINE
  8
0
 10
51
 20
16.5
 11
54
 21
16.5
  0
LINE
  8
0
 10
54
 20
16.5
 11
54
 21
13.5
  0
LINE
  8
0
 10
54
 20
13.5
 11
51
 21
13.5
  0
LINE
  8
0
 10
66
 20
13.5
 11
66
 21
16.5
  0
LINE
  8
0
 10
66
 20
16.5
 11
69
 21
16.5
  0
LINE
  8
0
 10
69
 20
16.5
 11
69
 21
13.5
  0
LINE
  8
0
 10
69
 20
13.5
 11
66
 21
13.5
  0
LINE
  8
0
 10
81
 20
13.5
 11
81
 21
16.5
  0
LINE
  8
0
 10
81
 20
16.5
 11
84
 21
16.5
  0
LINE
  8
0
 10
84
 20
16.5
 11
84
 21
13.5
  0
LINE
  8
0
 10
84
 20
13.5
 11
81
 21
13.5
  0
ENDSEC
  0
SECTION
  2
OBJECTS
  0
DICTIONARY
  0
ENDSEC
  0
EOF
