<?xml version="1.0" standalone="no"?>
<!DOCTYPE svg PUBLIC "-//W3C//DTD SVG 1.1//EN" "http://www.w3.org/Graphics/SVG/1.1/DTD/svg11.dtd">
<svg width="88mm" height="12mm" viewBox="-44 -6 88 12" xmlns="http://www.w3.org/2000/svg" version="1.1">
<title>OpenSCAD Model</title>
<path d="
M 39.7435,5.84291 L 40.9088,5.38153 L 41.9227,4.64484 L 42.7216,3.67914 L 43.2553,2.54509 L 43.5,1
 L 43.5,-1 L 43.3429,-2.24345 L 42.8815,-3.40877 L 42.1448,-4.42273 L 41.1791,-5.22163 L 40.0451,-5.75528
 L 38.5,-6 L -38.5,-6 L -39.7435,-5.84291 L -40.9088,-5.38153 L -41.9227,-4.64484 L -42.7216,-3.67914
 L -43.2553,-2.54509 L -43.5,-1 L -43.5,1 L -43.3429,2.24345 L -42.8815,3.40877 L -42.1448,4.42273
 L -41.1791,5.22163 L -40.0451,5.75528 L -38.5,6 L 38.5,6 z
M -38.0621,2.94685 L -38.7773,2.71448 L -39.4123,2.31154 L -39.927,1.76335 L -40.2893,1.10437 L -40.4763,0.375992
 L -40.4763,-0.375992 L -40.2893,-1.10437 L -39.927,-1.76335 L -39.4123,-2.31154 L -38.7773,-2.71448 L -38.0621,-2.94685
 L -37.3116,-2.99408 L -36.5729,-2.85316 L -35.8925,-2.53297 L -35.3131,-2.05363 L -34.8711,-1.44525 L -34.5942,-0.746063
 L -34.5,-0 L -34.5942,0.746063 L -34.8711,1.44525 L -35.3131,2.05363 L -35.8925,2.53297 L -36.5729,2.85316
 L -37.3116,2.99408 z
M -23.0621,2.94685 L -23.7773,2.71448 L -24.4123,2.31154 L -24.927,1.76335 L -25.2893,1.10437 L -25.4763,0.375992
 L -25.4763,-0.375992 L -25.2893,-1.10437 L -24.927,-1.76335 L -24.4123,-2.31154 L -23.7773,-2.71448 L -23.0621,-2.94685
 L -22.3116,-2.99408 L -21.5729,-2.85316 L -20.8925,-2.53297 L -20.3131,-2.05363 L -19.8711,-1.44525 L -19.5942,-0.746063
 L -19.5,-0 L -19.5942,0.746063 L -19.8711,1.44525 L -20.3131,2.05363 L -20.8925,2.53297 L -21.5729,2.85316
 L -22.3116,2.99408 z
M 21.9379,2.94685 L 21.2227,2.71448 L 20.5877,2.31154 L 20.0729,1.76335 L 19.7107,1.10437 L 19.5237,0.375992
 L 19.5237,-0.375992 L 19.7107,-1.10437 L 20.0729,-1.76335 L 20.5877,-2.31154 L 21.2227,-2.71448 L 21.9379,-2.94685
 L 22.6884,-2.99408 L 23.427,-2.85316 L 24.1075,-2.53297 L 24.6869,-2.05363 L 25.1289,-1.44525 L 25.4057,-0.746063
 L 25.5,-0 L 25.4057,0.746063 L 25.1289,1.44525 L 24.6869,2.05363 L 24.1075,2.53297 L 23.427,2.85316
 L 22.6884,2.99408 z
M 36.9379,2.94685 L 36.2227,2.71448 L 35.5877,2.31154 L 35.0729,1.76335 L 34.7107,1.10437 L 34.5237,0.375992
 L 34.5237,-0.375992 L 34.7107,-1.10437 L 35.0729,-1.76335 L 35.5877,-2.31154 L 36.2227,-2.71448 L 36.9379,-2.94685
 L 37.6884,-2.99408 L 38.427,-2.85316 L 39.1075,-2.53297 L 39.6869,-2.05363 L 40.1289,-1.44525 L 40.4057,-0.746063
 L 40.5,-0 L 40.4057,0.746063 L 40.1289,1.44525 L 39.6869,2.05363 L 39.1075,2.53297 L 38.427,2.85316
 L 37.6884,2.99408 z
M 6.93785,2.94685 L 6.22266,2.71448 L 5.58772,2.31154 L 5.07294,1.76335 L 4.71066,1.10437 L 4.52365,0.375992
 L 4.52365,-0.375992 L 4.71066,-1.10437 L 5.07294,-1.76335 L 5.58772,-2.31154 L 6.22266,-2.71448 L 6.93785,-2.94685
 L 7.68837,-2.99408 L 8.42705,-2.85316 L 9.10747,-2.53297 L 9.6869,-2.05363 L 10.1289,-1.44525 L 10.4057,-0.746063
 L 10.5,-0 L 10.4057,0.746063 L 10.1289,1.44525 L 9.6869,2.05363 L 9.10747,2.53297 L 8.42705,2.85316
 L 7.68837,2.99408 z
M -8.06213,2.94685 L -8.77733,2.71448 L -9.41226,2.31154 L -9.92705,1.76335 L -10.2893,1.10437 L -10.4763,0.375992
 L -10.4763,-0.375992 L -10.2893,-1.10437 L -9.92705,-1.76335 L -9.41226,-2.31154 L -8.77733,-2.71448 L -8.06213,-2.94685
 L -7.31161,-2.99408 L -6.57294,-2.85316 L -5.89252,-2.53297 L -5.31308,-2.05363 L -4.87108,-1.44525 L -4.59424,-0.746063
 L -4.5,-0 L -4.59424,0.746063 L -4.87108,1.44525 L -5.31308,2.05363 L -5.89252,2.53297 L -6.57294,2.85316
 L -7.31161,2.99408 z
" stroke="black" fill="lightgray" stroke-width="0.5"/>
</svg>
