<?xml version="1.0" standalone="no"?>
<!DOCTYPE svg PUBLIC "-//W3C//DTD SVG 1.1//EN" "http://www.w3.org/Graphics/SVG/1.1/DTD/svg11.dtd">
<svg width="88mm" height="14mm" viewBox="-44 -7 88 14" xmlns="http://www.w3.org/2000/svg" version="1.1">
<title>OpenSCAD Model</title>
<path d="
M 39.1576,5.96222 L 39.7991,5.83463 L 40.4184,5.62439 L 41.005,5.33511 L 41.5488,4.97176 L 42.0405,4.54053
 L 42.4718,4.0488 L 42.8351,3.50499 L 43.1244,2.91841 L 43.3346,2.29909 L 43.4622,1.65762 L 43.505,1.00499
 L 43.505,-1.00499 L 43.4622,-1.65762 L 43.3346,-2.29909 L 43.1244,-2.91841 L 42.8351,-3.50499 L 42.4718,-4.0488
 L 42.0405,-4.54053 L 41.5488,-4.97176 L 41.005,-5.33511 L 40.4184,-5.62439 L 39.7991,-5.83463 L 39.1576,-5.96222
 L 38.505,-6.00499 L -38.505,-6.00499 L -39.1576,-5.96222 L -39.7991,-5.83463 L -40.4184,-5.62439 L -41.005,-5.33511
 L -41.5488,-4.97176 L -42.0405,-4.54053 L -42.4718,-4.0488 L -42.8351,-3.50499 L -43.1244,-2.91841 L -43.3346,-2.29909
 L -43.4622,-1.65762 L -43.505,-1.00499 L -43.505,1.00499 L -43.4622,1.65762 L -43.3346,2.29909 L -43.1244,2.91841
 L -42.8351,3.50499 L -42.4718,4.0488 L -42.0405,4.54053 L -41.5488,4.97176 L -41.005,5.33511 L -40.4184,5.62439
 L -39.7991,5.83463 L -39.1576,5.96222 L -38.505,6.00499 L 38.505,6.00499 z
M -37.9242,3.22218 L -38.3412,3.13925 L -38.7437,3.00259 L -39.125,2.81458 L -39.4785,2.57838 L -39.7981,2.2981
 L -40.0784,1.97847 L -40.3146,1.625 L -40.5026,1.24371 L -40.6393,0.841156 L -40.7222,0.42421 L -40.75,-0
 L -40.7222,-0.42421 L -40.6393,-0.841156 L -40.5026,-1.24371 L -40.3146,-1.625 L -40.0784,-1.97847 L -39.7981,-2.2981
 L -39.4785,-2.57838 L -39.125,-2.81458 L -38.7437,-3.00259 L -38.3412,-3.13925 L -37.9242,-3.22218 L -37.5,-3.25
 L -37.0758,-3.22218 L -36.6588,-3.13925 L -36.2563,-3.00259 L -35.875,-2.81458 L -35.5215,-2.57838 L -35.2019,-2.2981
 L -34.9216,-1.97847 L -34.6854,-1.625 L -34.4974,-1.24371 L -34.3607,-0.841156 L -34.2778,-0.42421 L -34.25,-0
 L -34.2778,0.42421 L -34.3607,0.841156 L -34.4974,1.24371 L -34.6854,1.625 L -34.9216,1.97847 L -35.2019,2.2981
 L -35.5215,2.57838 L -35.875,2.81458 L -36.2563,3.00259 L -36.6588,3.13925 L -37.0758,3.22218 L -37.5,3.25
 z
M -22.9242,3.22218 L -23.3412,3.13925 L -23.7437,3.00259 L -24.125,2.81458 L -24.4785,2.57838 L -24.7981,2.2981
 L -25.0784,1.97847 L -25.3146,1.625 L -25.5026,1.24371 L -25.6393,0.841156 L -25.7222,0.42421 L -25.75,-0
 L -25.7222,-0.42421 L -25.6393,-0.841156 L -25.5026,-1.24371 L -25.3146,-1.625 L -25.0784,-1.97847 L -24.7981,-2.2981
 L -24.4785,-2.57838 L -24.125,-2.81458 L -23.7437,-3.00259 L -23.3412,-3.13925 L -22.9242,-3.22218 L -22.5,-3.25
 L -22.0758,-3.22218 L -21.6588,-3.13925 L -21.2563,-3.00259 L -20.875,-2.81458 L -20.5215,-2.57838 L -20.2019,-2.2981
 L -19.9216,-1.97847 L -19.6854,-1.625 L -19.4974,-1.24371 L -19.3607,-0.841156 L -19.2778,-0.42421 L -19.25,-0
 L -19.2778,0.42421 L -19.3607,0.841156 L -19.4974,1.24371 L -19.6854,1.625 L -19.9216,1.97847 L -20.2019,2.2981
 L -20.5215,2.57838 L -20.875,2.81458 L -21.2563,3.00259 L -21.6588,3.13925 L -22.0758,3.22218 L -22.5,3.25
 z
M 22.0758,3.22218 L 21.6588,3.13925 L 21.2563,3.00259 L 20.875,2.81458 L 20.5215,2.57838 L 20.2019,2.2981
 L 19.9216,1.97847 L 19.6854,1.625 L 19.4974,1.24371 L 19.3607,0.841156 L 19.2778,0.42421 L 19.25,-0
 L 19.2778,-0.42421 L 19.3607,-0.841156 L 19.4974,-1.24371 L 19.6854,-1.625 L 19.9216,-1.97847 L 20.2019,-2.2981
 L 20.5215,-2.57838 L 20.875,-2.81458 L 21.2563,-3.00259 L 21.6588,-3.13925 L 22.0758,-3.22218 L 22.5,-3.25
 L 22.9242,-3.22218 L 23.3412,-3.13925 L 23.7437,-3.00259 L 24.125,-2.81458 L 24.4785,-2.57838 L 24.7981,-2.2981
 L 25.0784,-1.97847 L 25.3146,-1.625 L 25.5026,-1.24371 L 25.6393,-0.841156 L 25.7222,-0.42421 L 25.75,-0
 L 25.7222,0.42421 L 25.6393,0.841156 L 25.5026,1.24371 L 25.3146,1.625 L 25.0784,1.97847 L 24.7981,2.2981
 L 24.4785,2.57838 L 24.125,2.81458 L 23.7437,3.00259 L 23.3412,3.13925 L 22.9242,3.22218 L 22.5,3.25
 z
M 37.0758,3.22218 L 36.6588,3.13925 L 36.2563,3.00259 L 35.875,2.81458 L 35.5215,2.57838 L 35.2019,2.2981
 L 34.9216,1.97847 L 34.6854,1.625 L 34.4974,1.24371 L 34.3607,0.841156 L 34.2778,0.42421 L 34.25,-0
 L 34.2778,-0.42421 L 34.3607,-0.841156 L 34.4974,-1.24371 L 34.6854,-1.625 L 34.9216,-1.97847 L 35.2019,-2.2981
 L 35.5215,-2.57838 L 35.875,-2.81458 L 36.2563,-3.00259 L 36.6588,-3.13925 L 37.0758,-3.22218 L 37.5,-3.25
 L 37.9242,-3.22218 L 38.3412,-3.13925 L 38.7437,-3.00259 L 39.125,-2.81458 L 39.4785,-2.57838 L 39.7981,-2.2981
 L 40.0784,-1.97847 L 40.3146,-1.625 L 40.5026,-1.24371 L 40.6393,-0.841156 L 40.7222,-0.42421 L 40.75,-0
 L 40.7222,0.42421 L 40.6393,0.841156 L 40.5026,1.24371 L 40.3146,1.625 L 40.0784,1.97847 L 39.7981,2.2981
 L 39.4785,2.57838 L 39.125,2.81458 L 38.7437,3.00259 L 38.3412,3.13925 L 37.9242,3.22218 L 37.5,3.25
 z
M 7.07578,3.22218 L 6.65883,3.13925 L 6.25627,3.00259 L 5.875,2.81458 L 5.52151,2.57838 L 5.20189,2.2981
 L 4.9216,1.97847 L 4.68541,1.625 L 4.49739,1.24371 L 4.36073,0.841156 L 4.2778,0.42421 L 4.25,-0
 L 4.2778,-0.42421 L 4.36073,-0.841156 L 4.49739,-1.24371 L 4.68541,-1.625 L 4.9216,-1.97847 L 5.20189,-2.2981
 L 5.52151,-2.57838 L 5.875,-2.81458 L 6.25627,-3.00259 L 6.65883,-3.13925 L 7.07578,-3.22218 L 7.5,-3.25
 L 7.92421,-3.22218 L 8.34116,-3.13925 L 8.74371,-3.00259 L 9.125,-2.81458 L 9.47847,-2.57838 L 9.7981,-2.2981
 L 10.0784,-1.97847 L 10.3146,-1.625 L 10.5026,-1.24371 L 10.6393,-0.841156 L 10.7222,-0.42421 L 10.75,-0
 L 10.7222,0.42421 L 10.6393,0.841156 L 10.5026,1.24371 L 10.3146,1.625 L 10.0784,1.97847 L 9.7981,2.2981
 L 9.47847,2.57838 L 9.125,2.81458 L 8.74371,3.00259 L 8.34116,3.13925 L 7.92421,3.22218 L 7.5,3.25
 z
M -7.92421,3.22218 L -8.34116,3.13925 L -8.74371,3.00259 L -9.125,2.81458 L -9.47847,2.57838 L -9.7981,2.2981
 L -10.0784,1.97847 L -10.3146,1.625 L -10.5026,1.24371 L -10.6393,0.841156 L -10.7222,0.42421 L -10.75,-0
 L -10.7222,-0.42421 L -10.6393,-0.841156 L -10.5026,-1.24371 L -10.3146,-1.625 L -10.0784,-1.97847 L -9.7981,-2.2981
 L -9.47847,-2.57838 L -9.125,-2.81458 L -8.74371,-3.00259 L -8.34116,-3.13925 L -7.92421,-3.22218 L -7.5,-3.25
 L -7.07578,-3.22218 L -6.65883,-3.13925 L -6.25627,-3.00259 L -5.875,-2.81458 L -5.52151,-2.57838 L -5.20189,-2.2981
 L -4.9216,-1.97847 L -4.68541,-1.625 L -4.49739,-1.24371 L -4.36073,-0.841156 L -4.2778,-0.42421 L -4.25,-0
 L -4.2778,0.42421 L -4.36073,0.841156 L -4.49739,1.24371 L -4.68541,1.625 L -4.9216,1.97847 L -5.20189,2.2981
 L -5.52151,2.57838 L -5.875,2.81458 L -6.25627,3.00259 L -6.65883,3.13925 L -7.07578,3.22218 L -7.5,3.25
 z
" stroke="black" fill="lightgray" stroke-width="0.5"/>
</svg>
