  0
SECTION
  2
HEADER
  9
$ACADVER
  1
AC1021
  9
$ACADMAINTVER
 70
    25
  9
$DWGCODEPAGE
  3
ANSI_1252
  9
$INSBASE
 10
0.0
 20
0.0
 30
0.0
  9
$EXTMIN
 10
-16.17646
 20
-17.52646
 30
0.0
  9
$EXTMAX
 10
-4.82354
 20
-12.17354
 30
0.0
  9
$LIMMIN
 10
0.0
 20
0.0
  9
$LIMMAX
 10
12.0
 20
9.0
  9
$ORTHOMODE
 70
     0
  9
$REGENMODE
 70
     1
  9
$FILLMODE
 70
     1
  9
$QTEXTMODE
 70
     0
  9
$MIRRTEXT
 70
     1
  9
$LTSCALE
 40
1.0
  9
$ATTMODE
 70
     1
  9
$TEXTSIZE
 40
0.2
  9
$TRACEWID
 40
0.05
  9
$TEXTSTYLE
  7
Standard
  9
$CLAYER
  8
0
  9
$CELTYPE
  6
ByLayer
  9
$CECOLOR
 62
   256
  9
$CELTSCALE
 40
1.0
  9
$DISPSILH
 70
     0
  9
$DIMSCALE
 40
1.0
  9
$DIMASZ
 40
0.18
  9
$DIMEXO
 40
0.0625
  9
$DIMDLI
 40
0.38
  9
$DIMRND
 40
0.0
  9
$DIMDLE
 40
0.0
  9
$DIMEXE
 40
0.18
  9
$DIMTP
 40
0.0
  9
$DIMTM
 40
0.0
  9
$DIMTXT
 40
0.18
  9
$DIMCEN
 40
0.09
  9
$DIMTSZ
 40
0.0
  9
$DIMTOL
 70
     0
  9
$DIMLIM
 70
     0
  9
$DIMTIH
 70
     1
  9
$DIMTOH
 70
     1
  9
$DIMSE1
 70
     0
  9
$DIMSE2
 70
     0
  9
$DIMTAD
 70
     0
  9
$DIMZIN
 70
     0
  9
$DIMBLK
  1

  9
$DIMASO
 70
     1
  9
$DIMSHO
 70
     1
  9
$DIMPOST
  1

  9
$DIMAPOST
  1

  9
$DIMALT
 70
     0
  9
$DIMALTD
 70
     2
  9
$DIMALTF
 40
25.4
  9
$DIMLFAC
 40
1.0
  9
$DIMTOFL
 70
     0
  9
$DIMTVP
 40
0.0
  9
$DIMTIX
 70
     0
  9
$DIMSOXD
 70
     0
  9
$DIMSAH
 70
     0
  9
$DIMBLK1
  1

  9
$DIMBLK2
  1

  9
$DIMSTYLE
  2
Standard
  9
$DIMCLRD
 70
     0
  9
$DIMCLRE
 70
     0
  9
$DIMCLRT
 70
     0
  9
$DIMTFAC
 40
1.0
  9
$DIMGAP
 40
0.09
  9
$DIMJUST
 70
     0
  9
$DIMSD1
 70
     0
  9
$DIMSD2
 70
     0
  9
$DIMTOLJ
 70
     1
  9
$DIMTZIN
 70
     0
  9
$DIMALTZ
 70
     0
  9
$DIMALTTZ
 70
     0
  9
$DIMUPT
 70
     0
  9
$DIMDEC
 70
     4
  9
$DIMTDEC
 70
     4
  9
$DIMALTU
 70
     2
  9
$DIMALTTD
 70
     2
  9
$DIMTXSTY
  7
Standard
  9
$DIMAUNIT
 70
     0
  9
$DIMADEC
 70
     0
  9
$DIMALTRND
 40
0.0
  9
$DIMAZIN
 70
     0
  9
$DIMDSEP
 70
    46
  9
$DIMATFIT
 70
     3
  9
$DIMFRAC
 70
     0
  9
$DIMLDRBLK
  1

  9
$DIMLUNIT
 70
     2
  9
$DIMLWD
 70
    -2
  9
$DIMLWE
 70
    -2
  9
$DIMTMOVE
 70
     0
  9
$DIMFXL
 40
1.0
  9
$DIMFXLON
 70
     0
  9
$DIMJOGANG
 40
0.7853981633974483
  9
$DIMTFILL
 70
     0
  9
$DIMTFILLCLR
 70
     0
  9
$DIMARCSYM
 70
     0
  9
$DIMLTYPE
  6

  9
$DIMLTEX1
  6

  9
$DIMLTEX2
  6

  9
$LUNITS
 70
     2
  9
$LUPREC
 70
     4
  9
$SKETCHINC
 40
0.1
  9
$FILLETRAD
 40
0.5
  9
$AUNITS
 70
     0
  9
$AUPREC
 70
     0
  9
$MENU
  1
.
  9
$ELEVATION
 40
0.0
  9
$PELEVATION
 40
0.0
  9
$THICKNESS
 40
0.0
  9
$LIMCHECK
 70
     0
  9
$CHAMFERA
 40
0.5
  9
$CHAMFERB
 40
0.5
  9
$CHAMFERC
 40
1.0
  9
$CHAMFERD
 40
0.0
  9
$SKPOLY
 70
     0
  9
$TDCREATE
 40
2457804.857851111
  9
$TDUCREATE
 40
2457804.857851111
  9
$TDUPDATE
 40
2457804.857851123
  9
$TDUUPDATE
 40
2457804.857851123
  9
$TDINDWG
 40
0.0000000116
  9
$TDUSRTIMER
 40
0.0000000116
  9
$USRTIMER
 70
     1
  9
$ANGBASE
 50
0.0
  9
$ANGDIR
 70
     0
  9
$PDMODE
 70
     0
  9
$PDSIZE
 40
0.0
  9
$PLINEWID
 40
0.0
  9
$SPLFRAME
 70
     0
  9
$SPLINETYPE
 70
     6
  9
$SPLINESEGS
 70
     8
  9
$HANDSEED
  5
83
  9
$SURFTAB1
 70
     6
  9
$SURFTAB2
 70
     6
  9
$SURFTYPE
 70
     6
  9
$SURFU
 70
     6
  9
$SURFV
 70
     6
  9
$UCSBASE
  2

  9
$UCSNAME
  2

  9
$UCSORG
 10
0.0
 20
0.0
 30
0.0
  9
$UCSXDIR
 10
1.0
 20
0.0
 30
0.0
  9
$UCSYDIR
 10
0.0
 20
1.0
 30
0.0
  9
$UCSORTHOREF
  2

  9
$UCSORTHOVIEW
 70
     0
  9
$UCSORGTOP
 10
0.0
 20
0.0
 30
0.0
  9
$UCSORGBOTTOM
 10
0.0
 20
0.0
 30
0.0
  9
$UCSORGLEFT
 10
0.0
 20
0.0
 30
0.0
  9
$UCSORGRIGHT
 10
0.0
 20
0.0
 30
0.0
  9
$UCSORGFRONT
 10
0.0
 20
0.0
 30
0.0
  9
$UCSORGBACK
 10
0.0
 20
0.0
 30
0.0
  9
$PUCSBASE
  2

  9
$PUCSNAME
  2

  9
$PUCSORG
 10
0.0
 20
0.0
 30
0.0
  9
$PUCSXDIR
 10
1.0
 20
0.0
 30
0.0
  9
$PUCSYDIR
 10
0.0
 20
1.0
 30
0.0
  9
$PUCSORTHOREF
  2

  9
$PUCSORTHOVIEW
 70
     0
  9
$PUCSORGTOP
 10
0.0
 20
0.0
 30
0.0
  9
$PUCSORGBOTTOM
 10
0.0
 20
0.0
 30
0.0
  9
$PUCSORGLEFT
 10
0.0
 20
0.0
 30
0.0
  9
$PUCSORGRIGHT
 10
0.0
 20
0.0
 30
0.0
  9
$PUCSORGFRONT
 10
0.0
 20
0.0
 30
0.0
  9
$PUCSORGBACK
 10
0.0
 20
0.0
 30
0.0
  9
$USERI1
 70
     0
  9
$USERI2
 70
     0
  9
$USERI3
 70
     0
  9
$USERI4
 70
     0
  9
$USERI5
 70
     0
  9
$USERR1
 40
0.0
  9
$USERR2
 40
0.0
  9
$USERR3
 40
0.0
  9
$USERR4
 40
0.0
  9
$USERR5
 40
0.0
  9
$WORLDVIEW
 70
     1
  9
$SHADEDGE
 70
     3
  9
$SHADEDIF
 70
    70
  9
$TILEMODE
 70
     1
  9
$MAXACTVP
 70
    64
  9
$PINSBASE
 10
0.0
 20
0.0
 30
0.0
  9
$PLIMCHECK
 70
     0
  9
$PEXTMIN
 10
1.000000000000000E+20
 20
1.000000000000000E+20
 30
1.000000000000000E+20
  9
$PEXTMAX
 10
-1.000000000000000E+20
 20
-1.000000000000000E+20
 30
-1.000000000000000E+20
  9
$PLIMMIN
 10
0.0
 20
0.0
  9
$PLIMMAX
 10
12.0
 20
9.0
  9
$UNITMODE
 70
     0
  9
$VISRETAIN
 70
     1
  9
$PLINEGEN
 70
     0
  9
$PSLTSCALE
 70
     1
  9
$TREEDEPTH
 70
  3020
  9
$CMLSTYLE
  2
Standard
  9
$CMLJUST
 70
     0
  9
$CMLSCALE
 40
1.0
  9
$PROXYGRAPHICS
 70
     1
  9
$MEASUREMENT
 70
     0
  9
$CELWEIGHT
370
    -1
  9
$ENDCAPS
280
     0
  9
$JOINSTYLE
280
     0
  9
$LWDISPLAY
290
     0
  9
$INSUNITS
 70
     5
  9
$HYPERLINKBASE
  1

  9
$STYLESHEET
  1

  9
$XEDIT
290
     1
  9
$CEPSNTYPE
380
     0
  9
$PSTYLEMODE
290
     1
  9
$FINGERPRINTGUID
  2
{3D7D704D-D5D0-4C94-BAE9-0A71C2445D7E}
  9
$VERSIONGUID
  2
{FAEB1C32-E019-11D5-929B-00C0DF256EC4}
  9
$EXTNAMES
290
     1
  9
$PSVPSCALE
 40
0.0
  9
$OLESTARTUP
290
     0
  9
$SORTENTS
280
   127
  9
$INDEXCTL
280
     0
  9
$HIDETEXT
280
     1
  9
$XCLIPFRAME
290
     0
  9
$HALOGAP
280
     0
  9
$OBSCOLOR
 70
   257
  9
$OBSLTYPE
280
     0
  9
$INTERSECTIONDISPLAY
280
     0
  9
$INTERSECTIONCOLOR
 70
   257
  9
$DIMASSOC
280
     2
  9
$PROJECTNAME
  1

  9
$CAMERADISPLAY
290
     0
  9
$LENSLENGTH
 40
50.0
  9
$CAMERAHEIGHT
 40
0.0
  9
$STEPSPERSEC
 40
2.0
  9
$STEPSIZE
 40
6.0
  9
$3DDWFPREC
 40
2.0
  9
$PSOLWIDTH
 40
0.25
  9
$PSOLHEIGHT
 40
4.0
  9
$LOFTANG1
 40
1.570796326794897
  9
$LOFTANG2
 40
1.570796326794897
  9
$LOFTMAG1
 40
0.0
  9
$LOFTMAG2
 40
0.0
  9
$LOFTPARAM
 70
     7
  9
$LOFTNORMALS
280
     1
  9
$LATITUDE
 40
37.795
  9
$LONGITUDE
 40
-122.394
  9
$NORTHDIRECTION
 40
0.0
  9
$TIMEZONE
 70
 -8000
  9
$LIGHTGLYPHDISPLAY
280
     1
  9
$TILEMODELIGHTSYNCH
280
     1
  9
$SOLIDHIST
280
     1
  9
$SHOWHIST
280
     1
  9
$DWFFRAME
280
     2
  9
$DGNFRAME
280
     2
  9
$REALWORLDSCALE
290
     1
  9
$INTERFERECOLOR
 62
   256
  9
$CSHADOW
280
     0
  9
$SHADOWPLANELOCATION
 40
0.0
  0
ENDSEC
  0
SECTION
  2
CLASSES
  0
CLASS
  1
ACDBDICTIONARYWDFLT
  2
AcDbDictionaryWithDefault
  3
ObjectDBX Classes
 90
        0
 91
        3
280
     0
281
     0
  0
CLASS
  1
VISUALSTYLE
  2
AcDbVisualStyle
  3
ObjectDBX Classes
 90
     4095
 91
        3
280
     0
281
     0
  0
CLASS
  1
SCALE
  2
AcDbScale
  3
ObjectDBX Classes
 90
     1153
 91
        3
280
     0
281
     0
  0
ENDSEC
  0
SECTION
  2
TABLES
  0
TABLE
  2
VPORT
  5
8
330
0
100
AcDbSymbolTable
 70
     1
  0
VPORT
  5
29
330
8
100
AcDbSymbolTableRecord
100
AcDbViewportTableRecord
  2
*Active
 70
     0
 10
0.0
 20
0.0
 11
1.0
 21
1.0
 12
10.42990654205607
 22
4.5
 13
0.0
 23
0.0
 14
0.5
 24
0.5
 15
0.5
 25
0.5
 16
0.0
 26
0.0
 36
1.0
 17
0.0
 27
0.0
 37
0.0
 40
9.0
 41
1.972972972850329
 42
50.0
 43
0.0
 44
0.0
 50
0.0
 51
0.0
 71
     0
 72
   100
 73
     1
 74
     3
 75
     0
 76
     0
 77
     0
 78
     0
281
     0
 65
     1
110
0.0
120
0.0
130
0.0
111
1.0
121
0.0
131
0.0
112
0.0
122
1.0
132
0.0
 79
     0
146
0.0
 60
     3
 61
     5
292
     1
282
     1
141
0.0
142
0.0
 63
   256
  0
ENDTAB
  0
TABLE
  2
LTYPE
  5
5
330
0
100
AcDbSymbolTable
 70
     1
  0
LTYPE
  5
14
330
5
100
AcDbSymbolTableRecord
100
AcDbLinetypeTableRecord
  2
ByBlock
 70
     0
  3

 72
    65
 73
     0
 40
0.0
  0
LTYPE
  5
15
330
5
100
AcDbSymbolTableRecord
100
AcDbLinetypeTableRecord
  2
ByLayer
 70
     0
  3

 72
    65
 73
     0
 40
0.0
  0
LTYPE
  5
16
330
5
100
AcDbSymbolTableRecord
100
AcDbLinetypeTableRecord
  2
Continuous
 70
     0
  3
Solid line
 72
    65
 73
     0
 40
0.0
  0
ENDTAB
  0
TABLE
  2
LAYER
  5
2
330
0
100
AcDbSymbolTable
 70
     2
  0
LAYER
  5
10
330
2
100
AcDbSymbolTableRecord
100
AcDbLayerTableRecord
  2
0
 70
     0
 62
     7
  6
Continuous
370
    -3
390
F
347
0
  0
LAYER
  5
5E
330
2
100
AcDbSymbolTableRecord
100
AcDbLayerTableRecord
  2
Layer 1
 70
     0
 62
     7
  6
Continuous
370
    -3
390
F
347
0
  0
ENDTAB
  0
TABLE
  2
STYLE
  5
3
330
0
100
AcDbSymbolTable
 70
     1
  0
STYLE
  5
11
330
3
100
AcDbSymbolTableRecord
100
AcDbTextStyleTableRecord
  2
Standard
 70
     0
 40
0.0
 41
1.0
 50
0.0
 71
     0
 42
0.2
  3
txt
  4

  0
ENDTAB
  0
TABLE
  2
VIEW
  5
6
330
0
100
AcDbSymbolTable
 70
     0
  0
ENDTAB
  0
TABLE
  2
UCS
  5
7
330
0
100
AcDbSymbolTable
 70
     0
  0
ENDTAB
  0
TABLE
  2
APPID
  5
9
330
0
100
AcDbSymbolTable
 70
     2
  0
APPID
  5
12
330
9
100
AcDbSymbolTableRecord
100
AcDbRegAppTableRecord
  2
ACAD
 70
     0
  0
APPID
  5
5D
330
9
100
AcDbSymbolTableRecord
100
AcDbRegAppTableRecord
  2
ODA
 70
     0
  0
ENDTAB
  0
TABLE
  2
DIMSTYLE
  5
A
330
0
100
AcDbSymbolTable
 70
     1
100
AcDbDimStyleTable
  0
DIMSTYLE
105
27
330
A
100
AcDbSymbolTableRecord
100
AcDbDimStyleTableRecord
  2
Standard
 70
     0
340
11
  0
ENDTAB
  0
TABLE
  2
BLOCK_RECORD
  5
1
330
0
100
AcDbSymbolTable
 70
     1
  0
BLOCK_RECORD
  5
1F
330
1
100
AcDbSymbolTableRecord
100
AcDbBlockTableRecord
  2
*Model_Space
340
22
 70
     0
280
     1
281
     0
  0
BLOCK_RECORD
  5
1B
330
1
100
AcDbSymbolTableRecord
100
AcDbBlockTableRecord
  2
*Paper_Space
340
1E
 70
     0
280
     1
281
     0
  0
BLOCK_RECORD
  5
23
330
1
100
AcDbSymbolTableRecord
100
AcDbBlockTableRecord
  2
*Paper_Space0
340
26
 70
     0
280
     1
281
     0
  0
ENDTAB
  0
ENDSEC
  0
SECTION
  2
BLOCKS
  0
BLOCK
  5
20
330
1F
100
AcDbEntity
  8
0
100
AcDbBlockBegin
  2
*Model_Space
 70
     0
 10
0.0
 20
0.0
 30
0.0
  3
*Model_Space
  1

  0
ENDBLK
  5
21
330
1F
100
AcDbEntity
  8
0
100
AcDbBlockEnd
  0
BLOCK
  5
1C
330
1B
100
AcDbEntity
 67
     1
  8
0
100
AcDbBlockBegin
  2
*Paper_Space
 70
     0
 10
0.0
 20
0.0
 30
0.0
  3
*Paper_Space
  1

  0
ENDBLK
  5
1D
330
1B
100
AcDbEntity
 67
     1
  8
0
100
AcDbBlockEnd
  0
BLOCK
  5
24
330
23
100
AcDbEntity
  8
0
100
AcDbBlockBegin
  2
*Paper_Space0
 70
     0
 10
0.0
 20
0.0
 30
0.0
  3
*Paper_Space0
  1

  0
ENDBLK
  5
25
330
23
100
AcDbEntity
  8
0
100
AcDbBlockEnd
  0
ENDSEC
  0
SECTION
  2
ENTITIES
  0
LWPOLYLINE
  5
5F
330
1F
100
AcDbEntity
  8
Layer 1
370
    53
100
AcDbPolyline
 90
        5
 70
     1
 43
0.0
 10
-15.65
 20
-16.15
 10
-15.35
 20
-16.15
 10
-15.35
 20
-15.55
 10
-15.65
 20
-15.55
 10
-15.65
 20
-16.15
  0
LWPOLYLINE
  5
60
330
1F
100
AcDbEntity
  8
Layer 1
370
    53
100
AcDbPolyline
 90
        5
 70
     1
 43
0.0
 10
-15.65
 20
-14.15
 10
-15.35
 20
-14.15
 10
-15.35
 20
-13.55
 10
-15.65
 20
-13.55
 10
-15.65
 20
-14.15
  0
LWPOLYLINE
  5
61
330
1F
100
AcDbEntity
  8
Layer 1
370
    53
100
AcDbPolyline
 90
        5
 70
     1
 43
0.0
 10
-5.65
 20
-16.15
 10
-5.35
 20
-16.15
 10
-5.35
 20
-15.55
 10
-5.65
 20
-15.55
 10
-5.65
 20
-16.15
  0
LWPOLYLINE
  5
62
330
1F
100
AcDbEntity
  8
Layer 1
370
    53
100
AcDbPolyline
 90
        5
 70
     1
 43
0.0
 10
-5.65
 20
-14.15
 10
-5.35
 20
-14.15
 10
-5.35
 20
-13.55
 10
-5.65
 20
-13.55
 10
-5.65
 20
-14.15
  0
SPLINE
  5
63
330
1F
100
AcDbEntity
  8
Layer 1
370
    53
100
AcDbSpline
210
0.0
220
0.0
230
1.0
 70
    11
 71
     3
 72
    84
 73
    80
 74
     0
 42
0.0000000001
 43
0.0000000001
 40
0.0
 40
0.0
 40
0.0
 40
0.0
 40
0.05
 40
0.05
 40
0.05
 40
0.05
 40
0.1
 40
0.1
 40
0.1
 40
0.1
 40
0.15
 40
0.15
 40
0.15
 40
0.15
 40
0.2
 40
0.2
 40
0.2
 40
0.2
 40
0.25
 40
0.25
 40
0.25
 40
0.25
 40
0.3
 40
0.3
 40
0.3
 40
0.3
 40
0.35
 40
0.35
 40
0.35
 40
0.35
 40
0.4
 40
0.4
 40
0.4
 40
0.4
 40
0.45
 40
0.45
 40
0.45
 40
0.45
 40
0.4999999999999999
 40
0.4999999999999999
 40
0.4999999999999999
 40
0.4999999999999999
 40
0.5499999999999999
 40
0.5499999999999999
 40
0.5499999999999999
 40
0.5499999999999999
 40
0.6
 40
0.6
 40
0.6
 40
0.6
 40
0.65
 40
0.65
 40
0.65
 40
0.65
 40
0.7000000000000001
 40
0.7000000000000001
 40
0.7000000000000001
 40
0.7000000000000001
 40
0.7500000000000001
 40
0.7500000000000001
 40
0.7500000000000001
 40
0.7500000000000001
 40
0.8000000000000002
 40
0.8000000000000002
 40
0.8000000000000002
 40
0.8000000000000002
 40
0.8500000000000002
 40
0.8500000000000002
 40
0.8500000000000002
 40
0.8500000000000002
 40
0.9000000000000002
 40
0.9000000000000002
 40
0.9000000000000002
 40
0.9000000000000002
 40
0.9500000000000003
 40
0.9500000000000003
 40
0.9500000000000003
 40
0.9500000000000003
 40
1.0
 40
1.0
 40
1.0
 40
1.0
 10
-15.8
 20
-16.7
 30
0.0
 10
-15.8
 20
-16.7
 30
0.0
 10
-15.75985
 20
-16.7
 30
0.0
 10
-15.75985
 20
-16.7
 30
0.0
 10
-15.75985
 20
-16.7
 30
0.0
 10
-15.7335
 20
-16.65447
 30
0.0
 10
-15.69553
 20
-16.6165
 30
0.0
 10
-15.65
 20
-16.59015
 30
0.0
 10
-15.65
 20
-16.59015
 30
0.0
 10
-15.65
 20
-16.59015
 30
0.0
 10
-15.65
 20
-16.55
 30
0.0
 10
-15.65
 20
-16.55
 30
0.0
 10
-15.65
 20
-16.55
 30
0.0
 10
-15.65
 20
-16.55
 30
0.0
 10
-15.5
 20
-16.55
 30
0.0
 10
-15.5
 20
-16.55
 30
0.0
 10
-15.5
 20
-16.55
 30
0.0
 10
-15.5
 20
-16.55
 30
0.0
 10
-15.35
 20
-16.55
 30
0.0
 10
-15.35
 20
-16.55
 30
0.0
 10
-15.35
 20
-16.55
 30
0.0
 10
-15.35
 20
-16.55
 30
0.0
 10
-15.35
 20
-16.59015
 30
0.0
 10
-15.35
 20
-16.59015
 30
0.0
 10
-15.35
 20
-16.59015
 30
0.0
 10
-15.30447
 20
-16.6165
 30
0.0
 10
-15.2665
 20
-16.65447
 30
0.0
 10
-15.24015
 20
-16.7
 30
0.0
 10
-15.24015
 20
-16.7
 30
0.0
 10
-15.24015
 20
-16.7
 30
0.0
 10
-15.2
 20
-16.7
 30
0.0
 10
-15.2
 20
-16.7
 30
0.0
 10
-15.2
 20
-16.7
 30
0.0
 10
-15.2
 20
-16.7
 30
0.0
 10
-15.2
 20
-16.85
 30
0.0
 10
-15.2
 20
-16.85
 30
0.0
 10
-15.2
 20
-16.85
 30
0.0
 10
-15.2
 20
-16.85
 30
0.0
 10
-15.2
 20
-17.0
 30
0.0
 10
-15.2
 20
-17.0
 30
0.0
 10
-15.2
 20
-17.0
 30
0.0
 10
-15.2
 20
-17.0
 30
0.0
 10
-15.24015
 20
-17.0
 30
0.0
 10
-15.24015
 20
-17.0
 30
0.0
 10
-15.24015
 20
-17.0
 30
0.0
 10
-15.2665
 20
-17.04553
 30
0.0
 10
-15.30447
 20
-17.0835
 30
0.0
 10
-15.35
 20
-17.10985
 30
0.0
 10
-15.35
 20
-17.10985
 30
0.0
 10
-15.35
 20
-17.10985
 30
0.0
 10
-15.35
 20
-17.15
 30
0.0
 10
-15.35
 20
-17.15
 30
0.0
 10
-15.35
 20
-17.15
 30
0.0
 10
-15.35
 20
-17.15
 30
0.0
 10
-15.5
 20
-17.15
 30
0.0
 10
-15.5
 20
-17.15
 30
0.0
 10
-15.5
 20
-17.15
 30
0.0
 10
-15.5
 20
-17.15
 30
0.0
 10
-15.65
 20
-17.15
 30
0.0
 10
-15.65
 20
-17.15
 30
0.0
 10
-15.65
 20
-17.15
 30
0.0
 10
-15.65
 20
-17.15
 30
0.0
 10
-15.65
 20
-17.10985
 30
0.0
 10
-15.65
 20
-17.10985
 30
0.0
 10
-15.65
 20
-17.10985
 30
0.0
 10
-15.69553
 20
-17.0835
 30
0.0
 10
-15.7335
 20
-17.04553
 30
0.0
 10
-15.75985
 20
-17.0
 30
0.0
 10
-15.75985
 20
-17.0
 30
0.0
 10
-15.75985
 20
-17.0
 30
0.0
 10
-15.8
 20
-17.0
 30
0.0
 10
-15.8
 20
-17.0
 30
0.0
 10
-15.8
 20
-17.0
 30
0.0
 10
-15.8
 20
-17.0
 30
0.0
 10
-15.8
 20
-16.85
 30
0.0
 10
-15.8
 20
-16.85
 30
0.0
 10
-15.8
 20
-16.85
 30
0.0
 10
-15.8
 20
-16.85
 30
0.0
 10
-15.8
 20
-16.7
 30
0.0
 10
-15.8
 20
-16.7
 30
0.0
  0
SPLINE
  5
64
330
1F
100
AcDbEntity
  8
Layer 1
370
    53
100
AcDbSpline
210
0.0
220
0.0
230
1.0
 70
    11
 71
     3
 72
    84
 73
    80
 74
     0
 42
0.0000000001
 43
0.0000000001
 40
0.0
 40
0.0
 40
0.0
 40
0.0
 40
0.05
 40
0.05
 40
0.05
 40
0.05
 40
0.1
 40
0.1
 40
0.1
 40
0.1
 40
0.15
 40
0.15
 40
0.15
 40
0.15
 40
0.2
 40
0.2
 40
0.2
 40
0.2
 40
0.25
 40
0.25
 40
0.25
 40
0.25
 40
0.3
 40
0.3
 40
0.3
 40
0.3
 40
0.35
 40
0.35
 40
0.35
 40
0.35
 40
0.4
 40
0.4
 40
0.4
 40
0.4
 40
0.45
 40
0.45
 40
0.45
 40
0.45
 40
0.4999999999999999
 40
0.4999999999999999
 40
0.4999999999999999
 40
0.4999999999999999
 40
0.5499999999999999
 40
0.5499999999999999
 40
0.5499999999999999
 40
0.5499999999999999
 40
0.6
 40
0.6
 40
0.6
 40
0.6
 40
0.65
 40
0.65
 40
0.65
 40
0.65
 40
0.7000000000000001
 40
0.7000000000000001
 40
0.7000000000000001
 40
0.7000000000000001
 40
0.7500000000000001
 40
0.7500000000000001
 40
0.7500000000000001
 40
0.7500000000000001
 40
0.8000000000000002
 40
0.8000000000000002
 40
0.8000000000000002
 40
0.8000000000000002
 40
0.8500000000000002
 40
0.8500000000000002
 40
0.8500000000000002
 40
0.8500000000000002
 40
0.9000000000000002
 40
0.9000000000000002
 40
0.9000000000000002
 40
0.9000000000000002
 40
0.9500000000000003
 40
0.9500000000000003
 40
0.9500000000000003
 40
0.9500000000000003
 40
1.0
 40
1.0
 40
1.0
 40
1.0
 10
-15.8
 20
-12.7
 30
0.0
 10
-15.8
 20
-12.7
 30
0.0
 10
-15.75985
 20
-12.7
 30
0.0
 10
-15.75985
 20
-12.7
 30
0.0
 10
-15.75985
 20
-12.7
 30
0.0
 10
-15.7335
 20
-12.65447
 30
0.0
 10
-15.69553
 20
-12.6165
 30
0.0
 10
-15.65
 20
-12.59015
 30
0.0
 10
-15.65
 20
-12.59015
 30
0.0
 10
-15.65
 20
-12.59015
 30
0.0
 10
-15.65
 20
-12.55
 30
0.0
 10
-15.65
 20
-12.55
 30
0.0
 10
-15.65
 20
-12.55
 30
0.0
 10
-15.65
 20
-12.55
 30
0.0
 10
-15.5
 20
-12.55
 30
0.0
 10
-15.5
 20
-12.55
 30
0.0
 10
-15.5
 20
-12.55
 30
0.0
 10
-15.5
 20
-12.55
 30
0.0
 10
-15.35
 20
-12.55
 30
0.0
 10
-15.35
 20
-12.55
 30
0.0
 10
-15.35
 20
-12.55
 30
0.0
 10
-15.35
 20
-12.55
 30
0.0
 10
-15.35
 20
-12.59015
 30
0.0
 10
-15.35
 20
-12.59015
 30
0.0
 10
-15.35
 20
-12.59015
 30
0.0
 10
-15.30447
 20
-12.6165
 30
0.0
 10
-15.2665
 20
-12.65447
 30
0.0
 10
-15.24015
 20
-12.7
 30
0.0
 10
-15.24015
 20
-12.7
 30
0.0
 10
-15.24015
 20
-12.7
 30
0.0
 10
-15.2
 20
-12.7
 30
0.0
 10
-15.2
 20
-12.7
 30
0.0
 10
-15.2
 20
-12.7
 30
0.0
 10
-15.2
 20
-12.7
 30
0.0
 10
-15.2
 20
-12.85
 30
0.0
 10
-15.2
 20
-12.85
 30
0.0
 10
-15.2
 20
-12.85
 30
0.0
 10
-15.2
 20
-12.85
 30
0.0
 10
-15.2
 20
-13.0
 30
0.0
 10
-15.2
 20
-13.0
 30
0.0
 10
-15.2
 20
-13.0
 30
0.0
 10
-15.2
 20
-13.0
 30
0.0
 10
-15.24015
 20
-13.0
 30
0.0
 10
-15.24015
 20
-13.0
 30
0.0
 10
-15.24015
 20
-13.0
 30
0.0
 10
-15.2665
 20
-13.04553
 30
0.0
 10
-15.30447
 20
-13.0835
 30
0.0
 10
-15.35
 20
-13.10985
 30
0.0
 10
-15.35
 20
-13.10985
 30
0.0
 10
-15.35
 20
-13.10985
 30
0.0
 10
-15.35
 20
-13.15
 30
0.0
 10
-15.35
 20
-13.15
 30
0.0
 10
-15.35
 20
-13.15
 30
0.0
 10
-15.35
 20
-13.15
 30
0.0
 10
-15.5
 20
-13.15
 30
0.0
 10
-15.5
 20
-13.15
 30
0.0
 10
-15.5
 20
-13.15
 30
0.0
 10
-15.5
 20
-13.15
 30
0.0
 10
-15.65
 20
-13.15
 30
0.0
 10
-15.65
 20
-13.15
 30
0.0
 10
-15.65
 20
-13.15
 30
0.0
 10
-15.65
 20
-13.15
 30
0.0
 10
-15.65
 20
-13.10985
 30
0.0
 10
-15.65
 20
-13.10985
 30
0.0
 10
-15.65
 20
-13.10985
 30
0.0
 10
-15.69553
 20
-13.0835
 30
0.0
 10
-15.7335
 20
-13.04553
 30
0.0
 10
-15.75985
 20
-13.0
 30
0.0
 10
-15.75985
 20
-13.0
 30
0.0
 10
-15.75985
 20
-13.0
 30
0.0
 10
-15.8
 20
-13.0
 30
0.0
 10
-15.8
 20
-13.0
 30
0.0
 10
-15.8
 20
-13.0
 30
0.0
 10
-15.8
 20
-13.0
 30
0.0
 10
-15.8
 20
-12.85
 30
0.0
 10
-15.8
 20
-12.85
 30
0.0
 10
-15.8
 20
-12.85
 30
0.0
 10
-15.8
 20
-12.85
 30
0.0
 10
-15.8
 20
-12.7
 30
0.0
 10
-15.8
 20
-12.7
 30
0.0
  0
SPLINE
  5
65
330
1F
100
AcDbEntity
  8
Layer 1
370
    53
100
AcDbSpline
210
0.0
220
0.0
230
1.0
 70
    11
 71
     3
 72
    84
 73
    80
 74
     0
 42
0.0000000001
 43
0.0000000001
 40
0.0
 40
0.0
 40
0.0
 40
0.0
 40
0.05
 40
0.05
 40
0.05
 40
0.05
 40
0.1
 40
0.1
 40
0.1
 40
0.1
 40
0.15
 40
0.15
 40
0.15
 40
0.15
 40
0.2
 40
0.2
 40
0.2
 40
0.2
 40
0.25
 40
0.25
 40
0.25
 40
0.25
 40
0.3
 40
0.3
 40
0.3
 40
0.3
 40
0.35
 40
0.35
 40
0.35
 40
0.35
 40
0.4
 40
0.4
 40
0.4
 40
0.4
 40
0.45
 40
0.45
 40
0.45
 40
0.45
 40
0.4999999999999999
 40
0.4999999999999999
 40
0.4999999999999999
 40
0.4999999999999999
 40
0.5499999999999999
 40
0.5499999999999999
 40
0.5499999999999999
 40
0.5499999999999999
 40
0.6
 40
0.6
 40
0.6
 40
0.6
 40
0.65
 40
0.65
 40
0.65
 40
0.65
 40
0.7000000000000001
 40
0.7000000000000001
 40
0.7000000000000001
 40
0.7000000000000001
 40
0.7500000000000001
 40
0.7500000000000001
 40
0.7500000000000001
 40
0.7500000000000001
 40
0.8000000000000002
 40
0.8000000000000002
 40
0.8000000000000002
 40
0.8000000000000002
 40
0.8500000000000002
 40
0.8500000000000002
 40
0.8500000000000002
 40
0.8500000000000002
 40
0.9000000000000002
 40
0.9000000000000002
 40
0.9000000000000002
 40
0.9000000000000002
 40
0.9500000000000003
 40
0.9500000000000003
 40
0.9500000000000003
 40
0.9500000000000003
 40
1.0
 40
1.0
 40
1.0
 40
1.0
 10
-5.8
 20
-16.7
 30
0.0
 10
-5.8
 20
-16.7
 30
0.0
 10
-5.75985
 20
-16.7
 30
0.0
 10
-5.75985
 20
-16.7
 30
0.0
 10
-5.75985
 20
-16.7
 30
0.0
 10
-5.7335
 20
-16.65447
 30
0.0
 10
-5.69553
 20
-16.6165
 30
0.0
 10
-5.65
 20
-16.59015
 30
0.0
 10
-5.65
 20
-16.59015
 30
0.0
 10
-5.65
 20
-16.59015
 30
0.0
 10
-5.65
 20
-16.55
 30
0.0
 10
-5.65
 20
-16.55
 30
0.0
 10
-5.65
 20
-16.55
 30
0.0
 10
-5.65
 20
-16.55
 30
0.0
 10
-5.5
 20
-16.55
 30
0.0
 10
-5.5
 20
-16.55
 30
0.0
 10
-5.5
 20
-16.55
 30
0.0
 10
-5.5
 20
-16.55
 30
0.0
 10
-5.35
 20
-16.55
 30
0.0
 10
-5.35
 20
-16.55
 30
0.0
 10
-5.35
 20
-16.55
 30
0.0
 10
-5.35
 20
-16.55
 30
0.0
 10
-5.35
 20
-16.59015
 30
0.0
 10
-5.35
 20
-16.59015
 30
0.0
 10
-5.35
 20
-16.59015
 30
0.0
 10
-5.30447
 20
-16.6165
 30
0.0
 10
-5.2665
 20
-16.65447
 30
0.0
 10
-5.24015
 20
-16.7
 30
0.0
 10
-5.24015
 20
-16.7
 30
0.0
 10
-5.24015
 20
-16.7
 30
0.0
 10
-5.2
 20
-16.7
 30
0.0
 10
-5.2
 20
-16.7
 30
0.0
 10
-5.2
 20
-16.7
 30
0.0
 10
-5.2
 20
-16.7
 30
0.0
 10
-5.2
 20
-16.85
 30
0.0
 10
-5.2
 20
-16.85
 30
0.0
 10
-5.2
 20
-16.85
 30
0.0
 10
-5.2
 20
-16.85
 30
0.0
 10
-5.2
 20
-17.0
 30
0.0
 10
-5.2
 20
-17.0
 30
0.0
 10
-5.2
 20
-17.0
 30
0.0
 10
-5.2
 20
-17.0
 30
0.0
 10
-5.24015
 20
-17.0
 30
0.0
 10
-5.24015
 20
-17.0
 30
0.0
 10
-5.24015
 20
-17.0
 30
0.0
 10
-5.2665
 20
-17.04553
 30
0.0
 10
-5.30447
 20
-17.0835
 30
0.0
 10
-5.35
 20
-17.10985
 30
0.0
 10
-5.35
 20
-17.10985
 30
0.0
 10
-5.35
 20
-17.10985
 30
0.0
 10
-5.35
 20
-17.15
 30
0.0
 10
-5.35
 20
-17.15
 30
0.0
 10
-5.35
 20
-17.15
 30
0.0
 10
-5.35
 20
-17.15
 30
0.0
 10
-5.5
 20
-17.15
 30
0.0
 10
-5.5
 20
-17.15
 30
0.0
 10
-5.5
 20
-17.15
 30
0.0
 10
-5.5
 20
-17.15
 30
0.0
 10
-5.65
 20
-17.15
 30
0.0
 10
-5.65
 20
-17.15
 30
0.0
 10
-5.65
 20
-17.15
 30
0.0
 10
-5.65
 20
-17.15
 30
0.0
 10
-5.65
 20
-17.10985
 30
0.0
 10
-5.65
 20
-17.10985
 30
0.0
 10
-5.65
 20
-17.10985
 30
0.0
 10
-5.69553
 20
-17.0835
 30
0.0
 10
-5.7335
 20
-17.04553
 30
0.0
 10
-5.75985
 20
-17.0
 30
0.0
 10
-5.75985
 20
-17.0
 30
0.0
 10
-5.75985
 20
-17.0
 30
0.0
 10
-5.8
 20
-17.0
 30
0.0
 10
-5.8
 20
-17.0
 30
0.0
 10
-5.8
 20
-17.0
 30
0.0
 10
-5.8
 20
-17.0
 30
0.0
 10
-5.8
 20
-16.85
 30
0.0
 10
-5.8
 20
-16.85
 30
0.0
 10
-5.8
 20
-16.85
 30
0.0
 10
-5.8
 20
-16.85
 30
0.0
 10
-5.8
 20
-16.7
 30
0.0
 10
-5.8
 20
-16.7
 30
0.0
  0
SPLINE
  5
66
330
1F
100
AcDbEntity
  8
Layer 1
370
    53
100
AcDbSpline
210
0.0
220
0.0
230
1.0
 70
    11
 71
     3
 72
    84
 73
    80
 74
     0
 42
0.0000000001
 43
0.0000000001
 40
0.0
 40
0.0
 40
0.0
 40
0.0
 40
0.05
 40
0.05
 40
0.05
 40
0.05
 40
0.1
 40
0.1
 40
0.1
 40
0.1
 40
0.15
 40
0.15
 40
0.15
 40
0.15
 40
0.2
 40
0.2
 40
0.2
 40
0.2
 40
0.25
 40
0.25
 40
0.25
 40
0.25
 40
0.3
 40
0.3
 40
0.3
 40
0.3
 40
0.35
 40
0.35
 40
0.35
 40
0.35
 40
0.4
 40
0.4
 40
0.4
 40
0.4
 40
0.45
 40
0.45
 40
0.45
 40
0.45
 40
0.4999999999999999
 40
0.4999999999999999
 40
0.4999999999999999
 40
0.4999999999999999
 40
0.5499999999999999
 40
0.5499999999999999
 40
0.5499999999999999
 40
0.5499999999999999
 40
0.6
 40
0.6
 40
0.6
 40
0.6
 40
0.65
 40
0.65
 40
0.65
 40
0.65
 40
0.7000000000000001
 40
0.7000000000000001
 40
0.7000000000000001
 40
0.7000000000000001
 40
0.7500000000000001
 40
0.7500000000000001
 40
0.7500000000000001
 40
0.7500000000000001
 40
0.8000000000000002
 40
0.8000000000000002
 40
0.8000000000000002
 40
0.8000000000000002
 40
0.8500000000000002
 40
0.8500000000000002
 40
0.8500000000000002
 40
0.8500000000000002
 40
0.9000000000000002
 40
0.9000000000000002
 40
0.9000000000000002
 40
0.9000000000000002
 40
0.9500000000000003
 40
0.9500000000000003
 40
0.9500000000000003
 40
0.9500000000000003
 40
1.0
 40
1.0
 40
1.0
 40
1.0
 10
-5.8
 20
-12.7
 30
0.0
 10
-5.8
 20
-12.7
 30
0.0
 10
-5.75985
 20
-12.7
 30
0.0
 10
-5.75985
 20
-12.7
 30
0.0
 10
-5.75985
 20
-12.7
 30
0.0
 10
-5.7335
 20
-12.65447
 30
0.0
 10
-5.69553
 20
-12.6165
 30
0.0
 10
-5.65
 20
-12.59015
 30
0.0
 10
-5.65
 20
-12.59015
 30
0.0
 10
-5.65
 20
-12.59015
 30
0.0
 10
-5.65
 20
-12.55
 30
0.0
 10
-5.65
 20
-12.55
 30
0.0
 10
-5.65
 20
-12.55
 30
0.0
 10
-5.65
 20
-12.55
 30
0.0
 10
-5.5
 20
-12.55
 30
0.0
 10
-5.5
 20
-12.55
 30
0.0
 10
-5.5
 20
-12.55
 30
0.0
 10
-5.5
 20
-12.55
 30
0.0
 10
-5.35
 20
-12.55
 30
0.0
 10
-5.35
 20
-12.55
 30
0.0
 10
-5.35
 20
-12.55
 30
0.0
 10
-5.35
 20
-12.55
 30
0.0
 10
-5.35
 20
-12.59015
 30
0.0
 10
-5.35
 20
-12.59015
 30
0.0
 10
-5.35
 20
-12.59015
 30
0.0
 10
-5.30447
 20
-12.6165
 30
0.0
 10
-5.2665
 20
-12.65447
 30
0.0
 10
-5.24015
 20
-12.7
 30
0.0
 10
-5.24015
 20
-12.7
 30
0.0
 10
-5.24015
 20
-12.7
 30
0.0
 10
-5.2
 20
-12.7
 30
0.0
 10
-5.2
 20
-12.7
 30
0.0
 10
-5.2
 20
-12.7
 30
0.0
 10
-5.2
 20
-12.7
 30
0.0
 10
-5.2
 20
-12.85
 30
0.0
 10
-5.2
 20
-12.85
 30
0.0
 10
-5.2
 20
-12.85
 30
0.0
 10
-5.2
 20
-12.85
 30
0.0
 10
-5.2
 20
-13.0
 30
0.0
 10
-5.2
 20
-13.0
 30
0.0
 10
-5.2
 20
-13.0
 30
0.0
 10
-5.2
 20
-13.0
 30
0.0
 10
-5.24015
 20
-13.0
 30
0.0
 10
-5.24015
 20
-13.0
 30
0.0
 10
-5.24015
 20
-13.0
 30
0.0
 10
-5.2665
 20
-13.04553
 30
0.0
 10
-5.30447
 20
-13.0835
 30
0.0
 10
-5.35
 20
-13.10985
 30
0.0
 10
-5.35
 20
-13.10985
 30
0.0
 10
-5.35
 20
-13.10985
 30
0.0
 10
-5.35
 20
-13.15
 30
0.0
 10
-5.35
 20
-13.15
 30
0.0
 10
-5.35
 20
-13.15
 30
0.0
 10
-5.35
 20
-13.15
 30
0.0
 10
-5.5
 20
-13.15
 30
0.0
 10
-5.5
 20
-13.15
 30
0.0
 10
-5.5
 20
-13.15
 30
0.0
 10
-5.5
 20
-13.15
 30
0.0
 10
-5.65
 20
-13.15
 30
0.0
 10
-5.65
 20
-13.15
 30
0.0
 10
-5.65
 20
-13.15
 30
0.0
 10
-5.65
 20
-13.15
 30
0.0
 10
-5.65
 20
-13.10985
 30
0.0
 10
-5.65
 20
-13.10985
 30
0.0
 10
-5.65
 20
-13.10985
 30
0.0
 10
-5.69553
 20
-13.0835
 30
0.0
 10
-5.7335
 20
-13.04553
 30
0.0
 10
-5.75985
 20
-13.0
 30
0.0
 10
-5.75985
 20
-13.0
 30
0.0
 10
-5.75985
 20
-13.0
 30
0.0
 10
-5.8
 20
-13.0
 30
0.0
 10
-5.8
 20
-13.0
 30
0.0
 10
-5.8
 20
-13.0
 30
0.0
 10
-5.8
 20
-13.0
 30
0.0
 10
-5.8
 20
-12.85
 30
0.0
 10
-5.8
 20
-12.85
 30
0.0
 10
-5.8
 20
-12.85
 30
0.0
 10
-5.8
 20
-12.85
 30
0.0
 10
-5.8
 20
-12.7
 30
0.0
 10
-5.8
 20
-12.7
 30
0.0
  0
SPLINE
  5
67
330
1F
100
AcDbEntity
  8
Layer 1
370
    53
100
AcDbSpline
210
0.0
220
0.0
230
1.0
 70
    11
 71
     3
 72
    36
 73
    32
 74
     0
 42
0.0000000001
 43
0.0000000001
 40
0.0
 40
0.0
 40
0.0
 40
0.0
 40
0.125
 40
0.125
 40
0.125
 40
0.125
 40
0.25
 40
0.25
 40
0.25
 40
0.25
 40
0.375
 40
0.375
 40
0.375
 40
0.375
 40
0.5
 40
0.5
 40
0.5
 40
0.5
 40
0.625
 40
0.625
 40
0.625
 40
0.625
 40
0.75
 40
0.75
 40
0.75
 40
0.75
 40
0.875
 40
0.875
 40
0.875
 40
0.875
 40
1.0
 40
1.0
 40
1.0
 40
1.0
 10
-16.15
 20
-17.0
 30
0.0
 10
-16.15
 20
-17.0
 30
0.0
 10
-16.15
 20
-12.7
 30
0.0
 10
-16.15
 20
-12.7
 30
0.0
 10
-16.15
 20
-12.7
 30
0.0
 10
-16.15
 20
-12.42391
 30
0.0
 10
-15.92609
 20
-12.2
 30
0.0
 10
-15.65
 20
-12.2
 30
0.0
 10
-15.65
 20
-12.2
 30
0.0
 10
-15.65
 20
-12.2
 30
0.0
 10
-5.35
 20
-12.2
 30
0.0
 10
-5.35
 20
-12.2
 30
0.0
 10
-5.35
 20
-12.2
 30
0.0
 10
-5.07391
 20
-12.2
 30
0.0
 10
-4.85
 20
-12.42391
 30
0.0
 10
-4.85
 20
-12.7
 30
0.0
 10
-4.85
 20
-12.7
 30
0.0
 10
-4.85
 20
-12.7
 30
0.0
 10
-4.85
 20
-17.0
 30
0.0
 10
-4.85
 20
-17.0
 30
0.0
 10
-4.85
 20
-17.0
 30
0.0
 10
-4.85
 20
-17.27609
 30
0.0
 10
-5.07391
 20
-17.5
 30
0.0
 10
-5.35
 20
-17.5
 30
0.0
 10
-5.35
 20
-17.5
 30
0.0
 10
-5.35
 20
-17.5
 30
0.0
 10
-15.65
 20
-17.5
 30
0.0
 10
-15.65
 20
-17.5
 30
0.0
 10
-15.65
 20
-17.5
 30
0.0
 10
-15.92609
 20
-17.5
 30
0.0
 10
-16.15
 20
-17.27609
 30
0.0
 10
-16.15
 20
-17.0
 30
0.0
  0
ELLIPSE
  5
68
330
1F
100
AcDbEntity
  8
Layer 1
370
    53
100
AcDbEllipse
 10
-15.5
 20
-14.85
 30
0.0
 11
0.0
 21
0.24
 31
0.0
210
0.0
220
0.0
230
1.0
 40
1.0
 41
0.0
 42
6.283185307179586
  0
ELLIPSE
  5
69
330
1F
100
AcDbEntity
  8
Layer 1
370
    53
100
AcDbEllipse
 10
-5.5
 20
-14.85
 30
0.0
 11
0.0
 21
0.24
 31
0.0
210
0.0
220
0.0
230
1.0
 40
1.0
 41
0.0
 42
6.283185307179586
  0
SPLINE
  5
6A
330
1F
100
AcDbEntity
  8
Layer 1
 62
     5
370
    53
100
AcDbSpline
210
0.0
220
0.0
230
1.0
 70
    11
 71
     3
 72
    36
 73
    32
 74
     0
 42
0.0000000001
 43
0.0000000001
 40
0.0
 40
0.0
 40
0.0
 40
0.0
 40
0.125
 40
0.125
 40
0.125
 40
0.125
 40
0.25
 40
0.25
 40
0.25
 40
0.25
 40
0.375
 40
0.375
 40
0.375
 40
0.375
 40
0.5
 40
0.5
 40
0.5
 40
0.5
 40
0.625
 40
0.625
 40
0.625
 40
0.625
 40
0.75
 40
0.75
 40
0.75
 40
0.75
 40
0.875
 40
0.875
 40
0.875
 40
0.875
 40
1.0
 40
1.0
 40
1.0
 40
1.0
 10
-11.36507
 20
-13.71494
 30
0.0
 10
-11.36507
 20
-13.71494
 30
0.0
 10
-11.36507
 20
-13.54603
 30
0.0
 10
-11.36507
 20
-13.54603
 30
0.0
 10
-11.36507
 20
-13.54603
 30
0.0
 10
-11.36507
 20
-13.54603
 30
0.0
 10
-11.1496
 20
-13.54603
 30
0.0
 10
-11.1496
 20
-13.54603
 30
0.0
 10
-11.1496
 20
-13.54603
 30
0.0
 10
-11.1496
 20
-13.54603
 30
0.0
 10
-11.1496
 20
-13.71494
 30
0.0
 10
-11.1496
 20
-13.71494
 30
0.0
 10
-11.1496
 20
-13.71494
 30
0.0
 10
-11.1496
 20
-13.71494
 30
0.0
 10
-11.1496
 20
-13.41014
 30
0.0
 10
-11.1496
 20
-13.41014
 30
0.0
 10
-11.1496
 20
-13.41014
 30
0.0
 10
-11.1496
 20
-13.41014
 30
0.0
 10
-11.1496
 20
-13.54603
 30
0.0
 10
-11.1496
 20
-13.54603
 30
0.0
 10
-11.1496
 20
-13.54603
 30
0.0
 10
-11.1496
 20
-13.54603
 30
0.0
 10
-11.36507
 20
-13.54603
 30
0.0
 10
-11.36507
 20
-13.54603
 30
0.0
 10
-11.36507
 20
-13.54603
 30
0.0
 10
-11.36507
 20
-13.54603
 30
0.0
 10
-11.36507
 20
-13.41014
 30
0.0
 10
-11.36507
 20
-13.41014
 30
0.0
 10
-11.36507
 20
-13.41014
 30
0.0
 10
-11.36507
 20
-13.41014
 30
0.0
 10
-11.36507
 20
-13.71494
 30
0.0
 10
-11.36507
 20
-13.71494
 30
0.0
  0
SPLINE
  5
6B
330
1F
100
AcDbEntity
  8
Layer 1
 62
     5
370
    53
100
AcDbSpline
210
0.0
220
0.0
230
1.0
 70
    11
 71
     3
 72
    20
 73
    16
 74
     0
 42
0.0000000001
 43
0.0000000001
 40
0.0
 40
0.0
 40
0.0
 40
0.0
 40
0.25
 40
0.25
 40
0.25
 40
0.25
 40
0.5
 40
0.5
 40
0.5
 40
0.5
 40
0.75
 40
0.75
 40
0.75
 40
0.75
 40
1.0
 40
1.0
 40
1.0
 40
1.0
 10
-10.77368
 20
-13.71494
 30
0.0
 10
-10.77368
 20
-13.71494
 30
0.0
 10
-10.9519
 20
-13.71494
 30
0.0
 10
-10.9519
 20
-13.71494
 30
0.0
 10
-10.9519
 20
-13.71494
 30
0.0
 10
-10.9519
 20
-13.71494
 30
0.0
 10
-10.9519
 20
-13.40972
 30
0.0
 10
-10.9519
 20
-13.40972
 30
0.0
 10
-10.9519
 20
-13.40972
 30
0.0
 10
-10.9519
 20
-13.40972
 30
0.0
 10
-10.9519
 20
-13.71494
 30
0.0
 10
-10.9519
 20
-13.71494
 30
0.0
 10
-10.9519
 20
-13.71494
 30
0.0
 10
-10.9519
 20
-13.71494
 30
0.0
 10
-10.77368
 20
-13.71494
 30
0.0
 10
-10.77368
 20
-13.71494
 30
0.0
  0
SPLINE
  5
6C
330
1F
100
AcDbEntity
  8
Layer 1
 62
     5
370
    53
100
AcDbSpline
210
0.0
220
0.0
230
1.0
 70
    27
 71
     3
 72
    12
 73
     8
 74
     0
 42
0.0000000001
 43
0.0000000001
 40
0.0
 40
0.0
 40
0.0
 40
0.0
 40
0.5
 40
0.5
 40
0.5
 40
0.5
 40
1.0
 40
1.0
 40
1.0
 40
1.0
 10
-10.67166
 20
-13.55534
 30
0.0
 10
-10.67166
 20
-13.55534
 30
0.0
 10
-10.54847
 20
-13.55534
 30
0.0
 10
-10.54847
 20
-13.55534
 30
0.0
 10
-10.54847
 20
-13.55534
 30
0.0
 10
-10.54847
 20
-13.55534
 30
0.0
 10
-10.67166
 20
-13.55534
 30
0.0
 10
-10.67166
 20
-13.55534
 30
0.0
  0
SPLINE
  5
6D
330
1F
100
AcDbEntity
  8
Layer 1
 62
     5
370
    53
100
AcDbSpline
210
0.0
220
0.0
230
1.0
 70
    11
 71
     3
 72
   164
 73
   160
 74
     0
 42
0.0000000001
 43
0.0000000001
 40
0.0
 40
0.0
 40
0.0
 40
0.0
 40
0.025
 40
0.025
 40
0.025
 40
0.025
 40
0.05
 40
0.05
 40
0.05
 40
0.05
 40
0.075
 40
0.075
 40
0.075
 40
0.075
 40
0.1
 40
0.1
 40
0.1
 40
0.1
 40
0.125
 40
0.125
 40
0.125
 40
0.125
 40
0.15
 40
0.15
 40
0.15
 40
0.15
 40
0.175
 40
0.175
 40
0.175
 40
0.175
 40
0.2
 40
0.2
 40
0.2
 40
0.2
 40
0.225
 40
0.225
 40
0.225
 40
0.225
 40
0.25
 40
0.25
 40
0.25
 40
0.25
 40
0.275
 40
0.275
 40
0.275
 40
0.275
 40
0.3
 40
0.3
 40
0.3
 40
0.3
 40
0.325
 40
0.325
 40
0.325
 40
0.325
 40
0.35
 40
0.35
 40
0.35
 40
0.35
 40
0.3750000000000001
 40
0.3750000000000001
 40
0.3750000000000001
 40
0.3750000000000001
 40
0.4000000000000001
 40
0.4000000000000001
 40
0.4000000000000001
 40
0.4000000000000001
 40
0.4250000000000001
 40
0.4250000000000001
 40
0.4250000000000001
 40
0.4250000000000001
 40
0.4500000000000001
 40
0.4500000000000001
 40
0.4500000000000001
 40
0.4500000000000001
 40
0.4750000000000001
 40
0.4750000000000001
 40
0.4750000000000001
 40
0.4750000000000001
 40
0.5000000000000001
 40
0.5000000000000001
 40
0.5000000000000001
 40
0.5000000000000001
 40
0.5250000000000001
 40
0.5250000000000001
 40
0.5250000000000001
 40
0.5250000000000001
 40
0.5500000000000002
 40
0.5500000000000002
 40
0.5500000000000002
 40
0.5500000000000002
 40
0.5750000000000002
 40
0.5750000000000002
 40
0.5750000000000002
 40
0.5750000000000002
 40
0.6000000000000002
 40
0.6000000000000002
 40
0.6000000000000002
 40
0.6000000000000002
 40
0.6250000000000002
 40
0.6250000000000002
 40
0.6250000000000002
 40
0.6250000000000002
 40
0.6500000000000002
 40
0.6500000000000002
 40
0.6500000000000002
 40
0.6500000000000002
 40
0.6750000000000003
 40
0.6750000000000003
 40
0.6750000000000003
 40
0.6750000000000003
 40
0.7000000000000003
 40
0.7000000000000003
 40
0.7000000000000003
 40
0.7000000000000003
 40
0.7250000000000003
 40
0.7250000000000003
 40
0.7250000000000003
 40
0.7250000000000003
 40
0.7500000000000003
 40
0.7500000000000003
 40
0.7500000000000003
 40
0.7500000000000003
 40
0.7750000000000004
 40
0.7750000000000004
 40
0.7750000000000004
 40
0.7750000000000004
 40
0.8000000000000004
 40
0.8000000000000004
 40
0.8000000000000004
 40
0.8000000000000004
 40
0.8250000000000004
 40
0.8250000000000004
 40
0.8250000000000004
 40
0.8250000000000004
 40
0.8500000000000004
 40
0.8500000000000004
 40
0.8500000000000004
 40
0.8500000000000004
 40
0.8750000000000004
 40
0.8750000000000004
 40
0.8750000000000004
 40
0.8750000000000004
 40
0.9000000000000005
 40
0.9000000000000005
 40
0.9000000000000005
 40
0.9000000000000005
 40
0.9250000000000005
 40
0.9250000000000005
 40
0.9250000000000005
 40
0.9250000000000005
 40
0.9500000000000005
 40
0.9500000000000005
 40
0.9500000000000005
 40
0.9500000000000005
 40
0.9750000000000005
 40
0.9750000000000005
 40
0.9750000000000005
 40
0.9750000000000005
 40
1.0
 40
1.0
 40
1.0
 40
1.0
 10
-10.40581
 20
-13.55788
 30
0.0
 10
-10.40581
 20
-13.55788
 30
0.0
 10
-10.28855
 20
-13.55788
 30
0.0
 10
-10.28855
 20
-13.55788
 30
0.0
 10
-10.28855
 20
-13.55788
 30
0.0
 10
-10.27331
 20
-13.55781
 30
0.0
 10
-10.26033
 20
-13.5557
 30
0.0
 10
-10.24939
 20
-13.55153
 30
0.0
 10
-10.24939
 20
-13.55153
 30
0.0
 10
-10.23852
 20
-13.54744
 30
0.0
 10
-10.22971
 20
-13.54187
 30
0.0
 10
-10.22286
 20
-13.53488
 30
0.0
 10
-10.22286
 20
-13.53488
 30
0.0
 10
-10.21602
 20
-13.5279
 30
0.0
 10
-10.21108
 20
-13.52
 30
0.0
 10
-10.20797
 20
-13.51125
 30
0.0
 10
-10.20797
 20
-13.51125
 30
0.0
 10
-10.20494
 20
-13.50257
 30
0.0
 10
-10.20353
 20
-13.49354
 30
0.0
 10
-10.20388
 20
-13.48423
 30
0.0
 10
-10.20388
 20
-13.48423
 30
0.0
 10
-10.20431
 20
-13.47491
 30
0.0
 10
-10.20628
 20
-13.46588
 30
0.0
 10
-10.20981
 20
-13.45706
 30
0.0
 10
-10.20981
 20
-13.45706
 30
0.0
 10
-10.21327
 20
-13.44824
 30
0.0
 10
-10.21849
 20
-13.44027
 30
0.0
 10
-10.22533
 20
-13.43314
 30
0.0
 10
-10.22533
 20
-13.43314
 30
0.0
 10
-10.23217
 20
-13.42602
 30
0.0
 10
-10.24071
 20
-13.42037
 30
0.0
 10
-10.25108
 20
-13.41621
 30
0.0
 10
-10.25108
 20
-13.41621
 30
0.0
 10
-10.26146
 20
-13.41198
 30
0.0
 10
-10.27366
 20
-13.40979
 30
0.0
 10
-10.2877
 20
-13.40972
 30
0.0
 10
-10.2877
 20
-13.40972
 30
0.0
 10
-10.2877
 20
-13.40972
 30
0.0
 10
-10.40581
 20
-13.40972
 30
0.0
 10
-10.40581
 20
-13.40972
 30
0.0
 10
-10.40581
 20
-13.40972
 30
0.0
 10
-10.40581
 20
-13.40972
 30
0.0
 10
-10.40581
 20
-13.71494
 30
0.0
 10
-10.40581
 20
-13.71494
 30
0.0
 10
-10.40581
 20
-13.71494
 30
0.0
 10
-10.40581
 20
-13.71494
 30
0.0
 10
-10.27585
 20
-13.71494
 30
0.0
 10
-10.27585
 20
-13.71494
 30
0.0
 10
-10.27585
 20
-13.71494
 30
0.0
 10
-10.26371
 20
-13.71494
 30
0.0
 10
-10.25242
 20
-13.71318
 30
0.0
 10
-10.24198
 20
-13.70972
 30
0.0
 10
-10.24198
 20
-13.70972
 30
0.0
 10
-10.23154
 20
-13.70619
 30
0.0
 10
-10.22244
 20
-13.70118
 30
0.0
 10
-10.21454
 20
-13.69448
 30
0.0
 10
-10.21454
 20
-13.69448
 30
0.0
 10
-10.2067
 20
-13.68785
 30
0.0
 10
-10.20057
 20
-13.6798
 30
0.0
 10
-10.19619
 20
-13.67028
 30
0.0
 10
-10.19619
 20
-13.67028
 30
0.0
 10
-10.19182
 20
-13.66075
 30
0.0
 10
-10.18956
 20
-13.64996
 30
0.0
 10
-10.18949
 20
-13.63789
 30
0.0
 10
-10.18949
 20
-13.63789
 30
0.0
 10
-10.18977
 20
-13.62576
 30
0.0
 10
-10.19231
 20
-13.61482
 30
0.0
 10
-10.19718
 20
-13.60502
 30
0.0
 10
-10.19718
 20
-13.60502
 30
0.0
 10
-10.20205
 20
-13.59521
 30
0.0
 10
-10.20882
 20
-13.58681
 30
0.0
 10
-10.21757
 20
-13.57976
 30
0.0
 10
-10.21757
 20
-13.57976
 30
0.0
 10
-10.22632
 20
-13.57277
 30
0.0
 10
-10.23676
 20
-13.56734
 30
0.0
 10
-10.24876
 20
-13.5636
 30
0.0
 10
-10.24876
 20
-13.5636
 30
0.0
 10
-10.26075
 20
-13.55986
 30
0.0
 10
-10.27401
 20
-13.55796
 30
0.0
 10
-10.28855
 20
-13.55788
 30
0.0
 10
-10.28855
 20
-13.55788
 30
0.0
 10
-10.27401
 20
-13.55796
 30
0.0
 10
-10.26075
 20
-13.55986
 30
0.0
 10
-10.24876
 20
-13.5636
 30
0.0
 10
-10.24876
 20
-13.5636
 30
0.0
 10
-10.23676
 20
-13.56734
 30
0.0
 10
-10.22632
 20
-13.57277
 30
0.0
 10
-10.21757
 20
-13.57976
 30
0.0
 10
-10.21757
 20
-13.57976
 30
0.0
 10
-10.20882
 20
-13.58681
 30
0.0
 10
-10.20205
 20
-13.59521
 30
0.0
 10
-10.19718
 20
-13.60502
 30
0.0
 10
-10.19718
 20
-13.60502
 30
0.0
 10
-10.19231
 20
-13.61482
 30
0.0
 10
-10.18977
 20
-13.62576
 30
0.0
 10
-10.18949
 20
-13.63789
 30
0.0
 10
-10.18949
 20
-13.63789
 30
0.0
 10
-10.18956
 20
-13.64996
 30
0.0
 10
-10.19182
 20
-13.66075
 30
0.0
 10
-10.19619
 20
-13.67028
 30
0.0
 10
-10.19619
 20
-13.67028
 30
0.0
 10
-10.20057
 20
-13.6798
 30
0.0
 10
-10.2067
 20
-13.68785
 30
0.0
 10
-10.21454
 20
-13.69448
 30
0.0
 10
-10.21454
 20
-13.69448
 30
0.0
 10
-10.22244
 20
-13.70118
 30
0.0
 10
-10.23154
 20
-13.70619
 30
0.0
 10
-10.24198
 20
-13.70972
 30
0.0
 10
-10.24198
 20
-13.70972
 30
0.0
 10
-10.25242
 20
-13.71318
 30
0.0
 10
-10.26371
 20
-13.71494
 30
0.0
 10
-10.27585
 20
-13.71494
 30
0.0
 10
-10.27585
 20
-13.71494
 30
0.0
 10
-10.27585
 20
-13.71494
 30
0.0
 10
-10.40581
 20
-13.71494
 30
0.0
 10
-10.40581
 20
-13.71494
 30
0.0
 10
-10.40581
 20
-13.71494
 30
0.0
 10
-10.40581
 20
-13.71494
 30
0.0
 10
-10.40581
 20
-13.40972
 30
0.0
 10
-10.40581
 20
-13.40972
 30
0.0
 10
-10.40581
 20
-13.40972
 30
0.0
 10
-10.40581
 20
-13.40972
 30
0.0
 10
-10.2877
 20
-13.40972
 30
0.0
 10
-10.2877
 20
-13.40972
 30
0.0
 10
-10.2877
 20
-13.40972
 30
0.0
 10
-10.27366
 20
-13.40979
 30
0.0
 10
-10.26146
 20
-13.41198
 30
0.0
 10
-10.25108
 20
-13.41621
 30
0.0
 10
-10.25108
 20
-13.41621
 30
0.0
 10
-10.24071
 20
-13.42037
 30
0.0
 10
-10.23217
 20
-13.42602
 30
0.0
 10
-10.22533
 20
-13.43314
 30
0.0
 10
-10.22533
 20
-13.43314
 30
0.0
 10
-10.21849
 20
-13.44027
 30
0.0
 10
-10.21327
 20
-13.44824
 30
0.0
 10
-10.20981
 20
-13.45706
 30
0.0
 10
-10.20981
 20
-13.45706
 30
0.0
 10
-10.20628
 20
-13.46588
 30
0.0
 10
-10.20431
 20
-13.47491
 30
0.0
 10
-10.20388
 20
-13.48423
 30
0.0
 10
-10.20388
 20
-13.48423
 30
0.0
 10
-10.20353
 20
-13.49354
 30
0.0
 10
-10.20494
 20
-13.50257
 30
0.0
 10
-10.20797
 20
-13.51125
 30
0.0
 10
-10.20797
 20
-13.51125
 30
0.0
 10
-10.21108
 20
-13.52
 30
0.0
 10
-10.21602
 20
-13.5279
 30
0.0
 10
-10.22286
 20
-13.53488
 30
0.0
 10
-10.22286
 20
-13.53488
 30
0.0
 10
-10.22971
 20
-13.54187
 30
0.0
 10
-10.23852
 20
-13.54744
 30
0.0
 10
-10.24939
 20
-13.55153
 30
0.0
 10
-10.24939
 20
-13.55153
 30
0.0
 10
-10.26033
 20
-13.5557
 30
0.0
 10
-10.27331
 20
-13.55781
 30
0.0
 10
-10.28855
 20
-13.55788
 30
0.0
 10
-10.28855
 20
-13.55788
 30
0.0
 10
-10.28855
 20
-13.55788
 30
0.0
 10
-10.40581
 20
-13.55788
 30
0.0
 10
-10.40581
 20
-13.55788
 30
0.0
  0
SPLINE
  5
6E
330
1F
100
AcDbEntity
  8
Layer 1
 62
     5
370
    53
100
AcDbSpline
210
0.0
220
0.0
230
1.0
 70
    11
 71
     3
 72
    84
 73
    80
 74
     0
 42
0.0000000001
 43
0.0000000001
 40
0.0
 40
0.0
 40
0.0
 40
0.0
 40
0.05
 40
0.05
 40
0.05
 40
0.05
 40
0.1
 40
0.1
 40
0.1
 40
0.1
 40
0.15
 40
0.15
 40
0.15
 40
0.15
 40
0.2
 40
0.2
 40
0.2
 40
0.2
 40
0.25
 40
0.25
 40
0.25
 40
0.25
 40
0.3
 40
0.3
 40
0.3
 40
0.3
 40
0.35
 40
0.35
 40
0.35
 40
0.35
 40
0.4
 40
0.4
 40
0.4
 40
0.4
 40
0.45
 40
0.45
 40
0.45
 40
0.45
 40
0.4999999999999999
 40
0.4999999999999999
 40
0.4999999999999999
 40
0.4999999999999999
 40
0.5499999999999999
 40
0.5499999999999999
 40
0.5499999999999999
 40
0.5499999999999999
 40
0.6
 40
0.6
 40
0.6
 40
0.6
 40
0.65
 40
0.65
 40
0.65
 40
0.65
 40
0.7000000000000001
 40
0.7000000000000001
 40
0.7000000000000001
 40
0.7000000000000001
 40
0.7500000000000001
 40
0.7500000000000001
 40
0.7500000000000001
 40
0.7500000000000001
 40
0.8000000000000002
 40
0.8000000000000002
 40
0.8000000000000002
 40
0.8000000000000002
 40
0.8500000000000002
 40
0.8500000000000002
 40
0.8500000000000002
 40
0.8500000000000002
 40
0.9000000000000002
 40
0.9000000000000002
 40
0.9000000000000002
 40
0.9000000000000002
 40
0.9500000000000003
 40
0.9500000000000003
 40
0.9500000000000003
 40
0.9500000000000003
 40
1.0
 40
1.0
 40
1.0
 40
1.0
 10
-9.95073
 20
-13.71748
 30
0.0
 10
-9.93584
 20
-13.71755
 30
0.0
 10
-9.92173
 20
-13.71579
 30
0.0
 10
-9.90826
 20
-13.71233
 30
0.0
 10
-9.90826
 20
-13.71233
 30
0.0
 10
-9.89485
 20
-13.7088
 30
0.0
 10
-9.88258
 20
-13.7033
 30
0.0
 10
-9.87136
 20
-13.69568
 30
0.0
 10
-9.87136
 20
-13.69568
 30
0.0
 10
-9.86014
 20
-13.68813
 30
0.0
 10
-9.8504
 20
-13.67818
 30
0.0
 10
-9.84215
 20
-13.6659
 30
0.0
 10
-9.84215
 20
-13.6659
 30
0.0
 10
-9.83389
 20
-13.65363
 30
0.0
 10
-9.82754
 20
-13.63874
 30
0.0
 10
-9.82303
 20
-13.62124
 30
0.0
 10
-9.82303
 20
-13.62124
 30
0.0
 10
-9.81844
 20
-13.60375
 30
0.0
 10
-9.81618
 20
-13.58335
 30
0.0
 10
-9.81611
 20
-13.56
 30
0.0
 10
-9.81611
 20
-13.56
 30
0.0
 10
-9.81618
 20
-13.53665
 30
0.0
 10
-9.81844
 20
-13.51626
 30
0.0
 10
-9.82303
 20
-13.49869
 30
0.0
 10
-9.82303
 20
-13.49869
 30
0.0
 10
-9.82754
 20
-13.48112
 30
0.0
 10
-9.83389
 20
-13.46616
 30
0.0
 10
-9.84215
 20
-13.45382
 30
0.0
 10
-9.84215
 20
-13.45382
 30
0.0
 10
-9.8504
 20
-13.44147
 30
0.0
 10
-9.86014
 20
-13.43145
 30
0.0
 10
-9.87136
 20
-13.42376
 30
0.0
 10
-9.87136
 20
-13.42376
 30
0.0
 10
-9.88258
 20
-13.41607
 30
0.0
 10
-9.89485
 20
-13.4105
 30
0.0
 10
-9.90826
 20
-13.4069
 30
0.0
 10
-9.90826
 20
-13.4069
 30
0.0
 10
-9.92173
 20
-13.40337
 30
0.0
 10
-9.93584
 20
-13.40161
 30
0.0
 10
-9.95073
 20
-13.40168
 30
0.0
 10
-9.95073
 20
-13.40168
 30
0.0
 10
-9.96562
 20
-13.40161
 30
0.0
 10
-9.97973
 20
-13.40337
 30
0.0
 10
-9.99321
 20
-13.4069
 30
0.0
 10
-9.99321
 20
-13.4069
 30
0.0
 10
-10.00661
 20
-13.4105
 30
0.0
 10
-10.01889
 20
-13.41607
 30
0.0
 10
-10.03011
 20
-13.42376
 30
0.0
 10
-10.03011
 20
-13.42376
 30
0.0
 10
-10.04132
 20
-13.43145
 30
0.0
 10
-10.05106
 20
-13.44147
 30
0.0
 10
-10.05932
 20
-13.45382
 30
0.0
 10
-10.05932
 20
-13.45382
 30
0.0
 10
-10.06757
 20
-13.46616
 30
0.0
 10
-10.07392
 20
-13.48112
 30
0.0
 10
-10.07844
 20
-13.49869
 30
0.0
 10
-10.07844
 20
-13.49869
 30
0.0
 10
-10.08302
 20
-13.51626
 30
0.0
 10
-10.08528
 20
-13.53665
 30
0.0
 10
-10.08535
 20
-13.56
 30
0.0
 10
-10.08535
 20
-13.56
 30
0.0
 10
-10.08528
 20
-13.58335
 30
0.0
 10
-10.08302
 20
-13.60375
 30
0.0
 10
-10.07844
 20
-13.62124
 30
0.0
 10
-10.07844
 20
-13.62124
 30
0.0
 10
-10.07392
 20
-13.63874
 30
0.0
 10
-10.06757
 20
-13.65363
 30
0.0
 10
-10.05932
 20
-13.6659
 30
0.0
 10
-10.05932
 20
-13.6659
 30
0.0
 10
-10.05106
 20
-13.67818
 30
0.0
 10
-10.04132
 20
-13.68813
 30
0.0
 10
-10.03011
 20
-13.69568
 30
0.0
 10
-10.03011
 20
-13.69568
 30
0.0
 10
-10.01889
 20
-13.7033
 30
0.0
 10
-10.00661
 20
-13.7088
 30
0.0
 10
-9.99321
 20
-13.71233
 30
0.0
 10
-9.99321
 20
-13.71233
 30
0.0
 10
-9.97973
 20
-13.71579
 30
0.0
 10
-9.96562
 20
-13.71755
 30
0.0
 10
-9.95073
 20
-13.71748
 30
0.0
  0
SPLINE
  5
6F
330
1F
100
AcDbEntity
  8
Layer 1
 62
     5
370
    53
100
AcDbSpline
210
0.0
220
0.0
230
1.0
 70
    11
 71
     3
 72
    84
 73
    80
 74
     0
 42
0.0000000001
 43
0.0000000001
 40
0.0
 40
0.0
 40
0.0
 40
0.0
 40
0.05
 40
0.05
 40
0.05
 40
0.05
 40
0.1
 40
0.1
 40
0.1
 40
0.1
 40
0.15
 40
0.15
 40
0.15
 40
0.15
 40
0.2
 40
0.2
 40
0.2
 40
0.2
 40
0.25
 40
0.25
 40
0.25
 40
0.25
 40
0.3
 40
0.3
 40
0.3
 40
0.3
 40
0.35
 40
0.35
 40
0.35
 40
0.35
 40
0.4
 40
0.4
 40
0.4
 40
0.4
 40
0.45
 40
0.45
 40
0.45
 40
0.45
 40
0.4999999999999999
 40
0.4999999999999999
 40
0.4999999999999999
 40
0.4999999999999999
 40
0.5499999999999999
 40
0.5499999999999999
 40
0.5499999999999999
 40
0.5499999999999999
 40
0.6
 40
0.6
 40
0.6
 40
0.6
 40
0.65
 40
0.65
 40
0.65
 40
0.65
 40
0.7000000000000001
 40
0.7000000000000001
 40
0.7000000000000001
 40
0.7000000000000001
 40
0.7500000000000001
 40
0.7500000000000001
 40
0.7500000000000001
 40
0.7500000000000001
 40
0.8000000000000002
 40
0.8000000000000002
 40
0.8000000000000002
 40
0.8000000000000002
 40
0.8500000000000002
 40
0.8500000000000002
 40
0.8500000000000002
 40
0.8500000000000002
 40
0.9000000000000002
 40
0.9000000000000002
 40
0.9000000000000002
 40
0.9000000000000002
 40
0.9500000000000003
 40
0.9500000000000003
 40
0.9500000000000003
 40
0.9500000000000003
 40
1.0
 40
1.0
 40
1.0
 40
1.0
 10
-9.95073
 20
-13.71748
 30
0.0
 10
-9.93584
 20
-13.71755
 30
0.0
 10
-9.92173
 20
-13.71579
 30
0.0
 10
-9.90826
 20
-13.71233
 30
0.0
 10
-9.90826
 20
-13.71233
 30
0.0
 10
-9.89485
 20
-13.7088
 30
0.0
 10
-9.88258
 20
-13.7033
 30
0.0
 10
-9.87136
 20
-13.69568
 30
0.0
 10
-9.87136
 20
-13.69568
 30
0.0
 10
-9.86014
 20
-13.68813
 30
0.0
 10
-9.8504
 20
-13.67818
 30
0.0
 10
-9.84215
 20
-13.6659
 30
0.0
 10
-9.84215
 20
-13.6659
 30
0.0
 10
-9.83389
 20
-13.65363
 30
0.0
 10
-9.82754
 20
-13.63874
 30
0.0
 10
-9.82303
 20
-13.62124
 30
0.0
 10
-9.82303
 20
-13.62124
 30
0.0
 10
-9.81844
 20
-13.60375
 30
0.0
 10
-9.81618
 20
-13.58335
 30
0.0
 10
-9.81611
 20
-13.56
 30
0.0
 10
-9.81611
 20
-13.56
 30
0.0
 10
-9.81618
 20
-13.53665
 30
0.0
 10
-9.81844
 20
-13.51626
 30
0.0
 10
-9.82303
 20
-13.49869
 30
0.0
 10
-9.82303
 20
-13.49869
 30
0.0
 10
-9.82754
 20
-13.48112
 30
0.0
 10
-9.83389
 20
-13.46616
 30
0.0
 10
-9.84215
 20
-13.45382
 30
0.0
 10
-9.84215
 20
-13.45382
 30
0.0
 10
-9.8504
 20
-13.44147
 30
0.0
 10
-9.86014
 20
-13.43145
 30
0.0
 10
-9.87136
 20
-13.42376
 30
0.0
 10
-9.87136
 20
-13.42376
 30
0.0
 10
-9.88258
 20
-13.41607
 30
0.0
 10
-9.89485
 20
-13.4105
 30
0.0
 10
-9.90826
 20
-13.4069
 30
0.0
 10
-9.90826
 20
-13.4069
 30
0.0
 10
-9.92173
 20
-13.40337
 30
0.0
 10
-9.93584
 20
-13.40161
 30
0.0
 10
-9.95073
 20
-13.40168
 30
0.0
 10
-9.95073
 20
-13.40168
 30
0.0
 10
-9.96562
 20
-13.40161
 30
0.0
 10
-9.97973
 20
-13.40337
 30
0.0
 10
-9.99321
 20
-13.4069
 30
0.0
 10
-9.99321
 20
-13.4069
 30
0.0
 10
-10.00661
 20
-13.4105
 30
0.0
 10
-10.01889
 20
-13.41607
 30
0.0
 10
-10.03011
 20
-13.42376
 30
0.0
 10
-10.03011
 20
-13.42376
 30
0.0
 10
-10.04132
 20
-13.43145
 30
0.0
 10
-10.05106
 20
-13.44147
 30
0.0
 10
-10.05932
 20
-13.45382
 30
0.0
 10
-10.05932
 20
-13.45382
 30
0.0
 10
-10.06757
 20
-13.46616
 30
0.0
 10
-10.07392
 20
-13.48112
 30
0.0
 10
-10.07844
 20
-13.49869
 30
0.0
 10
-10.07844
 20
-13.49869
 30
0.0
 10
-10.08302
 20
-13.51626
 30
0.0
 10
-10.08528
 20
-13.53665
 30
0.0
 10
-10.08535
 20
-13.56
 30
0.0
 10
-10.08535
 20
-13.56
 30
0.0
 10
-10.08528
 20
-13.58335
 30
0.0
 10
-10.08302
 20
-13.60375
 30
0.0
 10
-10.07844
 20
-13.62124
 30
0.0
 10
-10.07844
 20
-13.62124
 30
0.0
 10
-10.07392
 20
-13.63874
 30
0.0
 10
-10.06757
 20
-13.65363
 30
0.0
 10
-10.05932
 20
-13.6659
 30
0.0
 10
-10.05932
 20
-13.6659
 30
0.0
 10
-10.05106
 20
-13.67818
 30
0.0
 10
-10.04132
 20
-13.68813
 30
0.0
 10
-10.03011
 20
-13.69568
 30
0.0
 10
-10.03011
 20
-13.69568
 30
0.0
 10
-10.01889
 20
-13.7033
 30
0.0
 10
-10.00661
 20
-13.7088
 30
0.0
 10
-9.99321
 20
-13.71233
 30
0.0
 10
-9.99321
 20
-13.71233
 30
0.0
 10
-9.97973
 20
-13.71579
 30
0.0
 10
-9.96562
 20
-13.71755
 30
0.0
 10
-9.95073
 20
-13.71748
 30
0.0
  0
SPLINE
  5
70
330
1F
100
AcDbEntity
  8
Layer 1
 62
     5
370
    53
100
AcDbSpline
210
0.0
220
0.0
230
1.0
 70
    11
 71
     3
 72
    24
 73
    20
 74
     0
 42
0.0000000001
 43
0.0000000001
 40
0.0
 40
0.0
 40
0.0
 40
0.0
 40
0.2
 40
0.2
 40
0.2
 40
0.2
 40
0.4
 40
0.4
 40
0.4
 40
0.4
 40
0.6000000000000001
 40
0.6000000000000001
 40
0.6000000000000001
 40
0.6000000000000001
 40
0.8
 40
0.8
 40
0.8
 40
0.8
 40
1.0
 40
1.0
 40
1.0
 40
1.0
 10
-9.60191
 20
-13.71494
 30
0.0
 10
-9.60191
 20
-13.71494
 30
0.0
 10
-9.60191
 20
-13.40972
 30
0.0
 10
-9.60191
 20
-13.40972
 30
0.0
 10
-9.60191
 20
-13.40972
 30
0.0
 10
-9.60191
 20
-13.40972
 30
0.0
 10
-9.71155
 20
-13.40972
 30
0.0
 10
-9.71155
 20
-13.40972
 30
0.0
 10
-9.71155
 20
-13.40972
 30
0.0
 10
-9.71155
 20
-13.40972
 30
0.0
 10
-9.49142
 20
-13.40972
 30
0.0
 10
-9.49142
 20
-13.40972
 30
0.0
 10
-9.49142
 20
-13.40972
 30
0.0
 10
-9.49142
 20
-13.40972
 30
0.0
 10
-9.60191
 20
-13.40972
 30
0.0
 10
-9.60191
 20
-13.40972
 30
0.0
 10
-9.60191
 20
-13.40972
 30
0.0
 10
-9.60191
 20
-13.40972
 30
0.0
 10
-9.60191
 20
-13.71494
 30
0.0
 10
-9.60191
 20
-13.71494
 30
0.0
  0
SPLINE
  5
71
330
1F
100
AcDbEntity
  8
Layer 1
 62
     5
370
    53
100
AcDbSpline
210
0.0
220
0.0
230
1.0
 70
    11
 71
     3
 72
    84
 73
    80
 74
     0
 42
0.0000000001
 43
0.0000000001
 40
0.0
 40
0.0
 40
0.0
 40
0.0
 40
0.05
 40
0.05
 40
0.05
 40
0.05
 40
0.1
 40
0.1
 40
0.1
 40
0.1
 40
0.15
 40
0.15
 40
0.15
 40
0.15
 40
0.2
 40
0.2
 40
0.2
 40
0.2
 40
0.25
 40
0.25
 40
0.25
 40
0.25
 40
0.3
 40
0.3
 40
0.3
 40
0.3
 40
0.35
 40
0.35
 40
0.35
 40
0.35
 40
0.4
 40
0.4
 40
0.4
 40
0.4
 40
0.45
 40
0.45
 40
0.45
 40
0.45
 40
0.4999999999999999
 40
0.4999999999999999
 40
0.4999999999999999
 40
0.4999999999999999
 40
0.5499999999999999
 40
0.5499999999999999
 40
0.5499999999999999
 40
0.5499999999999999
 40
0.6
 40
0.6
 40
0.6
 40
0.6
 40
0.65
 40
0.65
 40
0.65
 40
0.65
 40
0.7000000000000001
 40
0.7000000000000001
 40
0.7000000000000001
 40
0.7000000000000001
 40
0.7500000000000001
 40
0.7500000000000001
 40
0.7500000000000001
 40
0.7500000000000001
 40
0.8000000000000002
 40
0.8000000000000002
 40
0.8000000000000002
 40
0.8000000000000002
 40
0.8500000000000002
 40
0.8500000000000002
 40
0.8500000000000002
 40
0.8500000000000002
 40
0.9000000000000002
 40
0.9000000000000002
 40
0.9000000000000002
 40
0.9000000000000002
 40
0.9500000000000003
 40
0.9500000000000003
 40
0.9500000000000003
 40
0.9500000000000003
 40
1.0
 40
1.0
 40
1.0
 40
1.0
 10
-10.99402
 20
-14.29025
 30
0.0
 10
-10.97921
 20
-14.29018
 30
0.0
 10
-10.96644
 20
-14.28757
 30
0.0
 10
-10.95578
 20
-14.28249
 30
0.0
 10
-10.95578
 20
-14.28249
 30
0.0
 10
-10.9452
 20
-14.27741
 30
0.0
 10
-10.93638
 20
-14.27014
 30
0.0
 10
-10.92933
 20
-14.2609
 30
0.0
 10
-10.92933
 20
-14.2609
 30
0.0
 10
-10.92234
 20
-14.25159
 30
0.0
 10
-10.91684
 20
-14.24058
 30
0.0
 10
-10.91275
 20
-14.22788
 30
0.0
 10
-10.91275
 20
-14.22788
 30
0.0
 10
-10.90872
 20
-14.21518
 30
0.0
 10
-10.90583
 20
-14.20128
 30
0.0
 10
-10.90421
 20
-14.18604
 30
0.0
 10
-10.90421
 20
-14.18604
 30
0.0
 10
-10.90251
 20
-14.1708
 30
0.0
 10
-10.90167
 20
-14.15478
 30
0.0
 10
-10.90174
 20
-14.13785
 30
0.0
 10
-10.90174
 20
-14.13785
 30
0.0
 10
-10.90167
 20
-14.12099
 30
0.0
 10
-10.90251
 20
-14.10497
 30
0.0
 10
-10.90421
 20
-14.0898
 30
0.0
 10
-10.90421
 20
-14.0898
 30
0.0
 10
-10.90583
 20
-14.07463
 30
0.0
 10
-10.90872
 20
-14.06066
 30
0.0
 10
-10.91275
 20
-14.04796
 30
0.0
 10
-10.91275
 20
-14.04796
 30
0.0
 10
-10.91684
 20
-14.03533
 30
0.0
 10
-10.92234
 20
-14.02433
 30
0.0
 10
-10.92933
 20
-14.01494
 30
0.0
 10
-10.92933
 20
-14.01494
 30
0.0
 10
-10.93638
 20
-14.00563
 30
0.0
 10
-10.9452
 20
-13.99836
 30
0.0
 10
-10.95578
 20
-13.99328
 30
0.0
 10
-10.95578
 20
-13.99328
 30
0.0
 10
-10.96644
 20
-13.98813
 30
0.0
 10
-10.97921
 20
-13.98552
 30
0.0
 10
-10.99402
 20
-13.98545
 30
0.0
 10
-10.99402
 20
-13.98545
 30
0.0
 10
-11.00884
 20
-13.98552
 30
0.0
 10
-11.02161
 20
-13.98813
 30
0.0
 10
-11.03227
 20
-13.99328
 30
0.0
 10
-11.03227
 20
-13.99328
 30
0.0
 10
-11.04285
 20
-13.99836
 30
0.0
 10
-11.05167
 20
-14.00563
 30
0.0
 10
-11.05872
 20
-14.01494
 30
0.0
 10
-11.05872
 20
-14.01494
 30
0.0
 10
-11.06571
 20
-14.02433
 30
0.0
 10
-11.07121
 20
-14.03533
 30
0.0
 10
-11.0753
 20
-14.04796
 30
0.0
 10
-11.0753
 20
-14.04796
 30
0.0
 10
-11.07933
 20
-14.06066
 30
0.0
 10
-11.08222
 20
-14.07463
 30
0.0
 10
-11.08384
 20
-14.0898
 30
0.0
 10
-11.08384
 20
-14.0898
 30
0.0
 10
-11.08553
 20
-14.10497
 30
0.0
 10
-11.08638
 20
-14.12099
 30
0.0
 10
-11.08631
 20
-14.13785
 30
0.0
 10
-11.08631
 20
-14.13785
 30
0.0
 10
-11.08638
 20
-14.15478
 30
0.0
 10
-11.08553
 20
-14.1708
 30
0.0
 10
-11.08384
 20
-14.18604
 30
0.0
 10
-11.08384
 20
-14.18604
 30
0.0
 10
-11.08222
 20
-14.20128
 30
0.0
 10
-11.07933
 20
-14.21518
 30
0.0
 10
-11.0753
 20
-14.22788
 30
0.0
 10
-11.0753
 20
-14.22788
 30
0.0
 10
-11.07121
 20
-14.24058
 30
0.0
 10
-11.06571
 20
-14.25159
 30
0.0
 10
-11.05872
 20
-14.2609
 30
0.0
 10
-11.05872
 20
-14.2609
 30
0.0
 10
-11.05167
 20
-14.27014
 30
0.0
 10
-11.04285
 20
-14.27741
 30
0.0
 10
-11.03227
 20
-14.28249
 30
0.0
 10
-11.03227
 20
-14.28249
 30
0.0
 10
-11.02161
 20
-14.28757
 30
0.0
 10
-11.00884
 20
-14.29018
 30
0.0
 10
-10.99402
 20
-14.29025
 30
0.0
  0
SPLINE
  5
72
330
1F
100
AcDbEntity
  8
Layer 1
 62
     5
370
    53
100
AcDbSpline
210
0.0
220
0.0
230
1.0
 70
    11
 71
     3
 72
    84
 73
    80
 74
     0
 42
0.0000000001
 43
0.0000000001
 40
0.0
 40
0.0
 40
0.0
 40
0.0
 40
0.05
 40
0.05
 40
0.05
 40
0.05
 40
0.1
 40
0.1
 40
0.1
 40
0.1
 40
0.15
 40
0.15
 40
0.15
 40
0.15
 40
0.2
 40
0.2
 40
0.2
 40
0.2
 40
0.25
 40
0.25
 40
0.25
 40
0.25
 40
0.3
 40
0.3
 40
0.3
 40
0.3
 40
0.35
 40
0.35
 40
0.35
 40
0.35
 40
0.4
 40
0.4
 40
0.4
 40
0.4
 40
0.45
 40
0.45
 40
0.45
 40
0.45
 40
0.4999999999999999
 40
0.4999999999999999
 40
0.4999999999999999
 40
0.4999999999999999
 40
0.5499999999999999
 40
0.5499999999999999
 40
0.5499999999999999
 40
0.5499999999999999
 40
0.6
 40
0.6
 40
0.6
 40
0.6
 40
0.65
 40
0.65
 40
0.65
 40
0.65
 40
0.7000000000000001
 40
0.7000000000000001
 40
0.7000000000000001
 40
0.7000000000000001
 40
0.7500000000000001
 40
0.7500000000000001
 40
0.7500000000000001
 40
0.7500000000000001
 40
0.8000000000000002
 40
0.8000000000000002
 40
0.8000000000000002
 40
0.8000000000000002
 40
0.8500000000000002
 40
0.8500000000000002
 40
0.8500000000000002
 40
0.8500000000000002
 40
0.9000000000000002
 40
0.9000000000000002
 40
0.9000000000000002
 40
0.9000000000000002
 40
0.9500000000000003
 40
0.9500000000000003
 40
0.9500000000000003
 40
0.9500000000000003
 40
1.0
 40
1.0
 40
1.0
 40
1.0
 10
-10.99402
 20
-14.29025
 30
0.0
 10
-10.97921
 20
-14.29018
 30
0.0
 10
-10.96644
 20
-14.28757
 30
0.0
 10
-10.95578
 20
-14.28249
 30
0.0
 10
-10.95578
 20
-14.28249
 30
0.0
 10
-10.9452
 20
-14.27741
 30
0.0
 10
-10.93638
 20
-14.27014
 30
0.0
 10
-10.92933
 20
-14.2609
 30
0.0
 10
-10.92933
 20
-14.2609
 30
0.0
 10
-10.92234
 20
-14.25159
 30
0.0
 10
-10.91684
 20
-14.24058
 30
0.0
 10
-10.91275
 20
-14.22788
 30
0.0
 10
-10.91275
 20
-14.22788
 30
0.0
 10
-10.90872
 20
-14.21518
 30
0.0
 10
-10.90583
 20
-14.20128
 30
0.0
 10
-10.90421
 20
-14.18604
 30
0.0
 10
-10.90421
 20
-14.18604
 30
0.0
 10
-10.90251
 20
-14.1708
 30
0.0
 10
-10.90167
 20
-14.15478
 30
0.0
 10
-10.90174
 20
-14.13785
 30
0.0
 10
-10.90174
 20
-14.13785
 30
0.0
 10
-10.90167
 20
-14.12099
 30
0.0
 10
-10.90251
 20
-14.10497
 30
0.0
 10
-10.90421
 20
-14.0898
 30
0.0
 10
-10.90421
 20
-14.0898
 30
0.0
 10
-10.90583
 20
-14.07463
 30
0.0
 10
-10.90872
 20
-14.06066
 30
0.0
 10
-10.91275
 20
-14.04796
 30
0.0
 10
-10.91275
 20
-14.04796
 30
0.0
 10
-10.91684
 20
-14.03533
 30
0.0
 10
-10.92234
 20
-14.02433
 30
0.0
 10
-10.92933
 20
-14.01494
 30
0.0
 10
-10.92933
 20
-14.01494
 30
0.0
 10
-10.93638
 20
-14.00563
 30
0.0
 10
-10.9452
 20
-13.99836
 30
0.0
 10
-10.95578
 20
-13.99328
 30
0.0
 10
-10.95578
 20
-13.99328
 30
0.0
 10
-10.96644
 20
-13.98813
 30
0.0
 10
-10.97921
 20
-13.98552
 30
0.0
 10
-10.99402
 20
-13.98545
 30
0.0
 10
-10.99402
 20
-13.98545
 30
0.0
 10
-11.00884
 20
-13.98552
 30
0.0
 10
-11.02161
 20
-13.98813
 30
0.0
 10
-11.03227
 20
-13.99328
 30
0.0
 10
-11.03227
 20
-13.99328
 30
0.0
 10
-11.04285
 20
-13.99836
 30
0.0
 10
-11.05167
 20
-14.00563
 30
0.0
 10
-11.05872
 20
-14.01494
 30
0.0
 10
-11.05872
 20
-14.01494
 30
0.0
 10
-11.06571
 20
-14.02433
 30
0.0
 10
-11.07121
 20
-14.03533
 30
0.0
 10
-11.0753
 20
-14.04796
 30
0.0
 10
-11.0753
 20
-14.04796
 30
0.0
 10
-11.07933
 20
-14.06066
 30
0.0
 10
-11.08222
 20
-14.07463
 30
0.0
 10
-11.08384
 20
-14.0898
 30
0.0
 10
-11.08384
 20
-14.0898
 30
0.0
 10
-11.08553
 20
-14.10497
 30
0.0
 10
-11.08638
 20
-14.12099
 30
0.0
 10
-11.08631
 20
-14.13785
 30
0.0
 10
-11.08631
 20
-14.13785
 30
0.0
 10
-11.08638
 20
-14.15478
 30
0.0
 10
-11.08553
 20
-14.1708
 30
0.0
 10
-11.08384
 20
-14.18604
 30
0.0
 10
-11.08384
 20
-14.18604
 30
0.0
 10
-11.08222
 20
-14.20128
 30
0.0
 10
-11.07933
 20
-14.21518
 30
0.0
 10
-11.0753
 20
-14.22788
 30
0.0
 10
-11.0753
 20
-14.22788
 30
0.0
 10
-11.07121
 20
-14.24058
 30
0.0
 10
-11.06571
 20
-14.25159
 30
0.0
 10
-11.05872
 20
-14.2609
 30
0.0
 10
-11.05872
 20
-14.2609
 30
0.0
 10
-11.05167
 20
-14.27014
 30
0.0
 10
-11.04285
 20
-14.27741
 30
0.0
 10
-11.03227
 20
-14.28249
 30
0.0
 10
-11.03227
 20
-14.28249
 30
0.0
 10
-11.02161
 20
-14.28757
 30
0.0
 10
-11.00884
 20
-14.29018
 30
0.0
 10
-10.99402
 20
-14.29025
 30
0.0
  0
SPLINE
  5
73
330
1F
100
AcDbEntity
  8
Layer 1
 62
     5
370
    53
100
AcDbSpline
210
0.0
220
0.0
230
1.0
 70
    11
 71
     3
 72
   236
 73
   232
 74
     0
 42
0.0000000001
 43
0.0000000001
 40
0.0
 40
0.0
 40
0.0
 40
0.0
 40
0.0172413793103448
 40
0.0172413793103448
 40
0.0172413793103448
 40
0.0172413793103448
 40
0.0344827586206897
 40
0.0344827586206897
 40
0.0344827586206897
 40
0.0344827586206897
 40
0.0517241379310345
 40
0.0517241379310345
 40
0.0517241379310345
 40
0.0517241379310345
 40
0.0689655172413793
 40
0.0689655172413793
 40
0.0689655172413793
 40
0.0689655172413793
 40
0.0862068965517241
 40
0.0862068965517241
 40
0.0862068965517241
 40
0.0862068965517241
 40
0.103448275862069
 40
0.103448275862069
 40
0.103448275862069
 40
0.103448275862069
 40
0.1206896551724138
 40
0.1206896551724138
 40
0.1206896551724138
 40
0.1206896551724138
 40
0.1379310344827586
 40
0.1379310344827586
 40
0.1379310344827586
 40
0.1379310344827586
 40
0.1551724137931035
 40
0.1551724137931035
 40
0.1551724137931035
 40
0.1551724137931035
 40
0.1724137931034483
 40
0.1724137931034483
 40
0.1724137931034483
 40
0.1724137931034483
 40
0.1896551724137931
 40
0.1896551724137931
 40
0.1896551724137931
 40
0.1896551724137931
 40
0.206896551724138
 40
0.206896551724138
 40
0.206896551724138
 40
0.206896551724138
 40
0.2241379310344828
 40
0.2241379310344828
 40
0.2241379310344828
 40
0.2241379310344828
 40
0.2413793103448277
 40
0.2413793103448277
 40
0.2413793103448277
 40
0.2413793103448277
 40
0.2586206896551725
 40
0.2586206896551725
 40
0.2586206896551725
 40
0.2586206896551725
 40
0.2758620689655173
 40
0.2758620689655173
 40
0.2758620689655173
 40
0.2758620689655173
 40
0.2931034482758621
 40
0.2931034482758621
 40
0.2931034482758621
 40
0.2931034482758621
 40
0.3103448275862069
 40
0.3103448275862069
 40
0.3103448275862069
 40
0.3103448275862069
 40
0.3275862068965517
 40
0.3275862068965517
 40
0.3275862068965517
 40
0.3275862068965517
 40
0.3448275862068965
 40
0.3448275862068965
 40
0.3448275862068965
 40
0.3448275862068965
 40
0.3620689655172413
 40
0.3620689655172413
 40
0.3620689655172413
 40
0.3620689655172413
 40
0.3793103448275861
 40
0.3793103448275861
 40
0.3793103448275861
 40
0.3793103448275861
 40
0.3965517241379309
 40
0.3965517241379309
 40
0.3965517241379309
 40
0.3965517241379309
 40
0.4137931034482757
 40
0.4137931034482757
 40
0.4137931034482757
 40
0.4137931034482757
 40
0.4310344827586206
 40
0.4310344827586206
 40
0.4310344827586206
 40
0.4310344827586206
 40
0.4482758620689654
 40
0.4482758620689654
 40
0.4482758620689654
 40
0.4482758620689654
 40
0.4655172413793102
 40
0.4655172413793102
 40
0.4655172413793102
 40
0.4655172413793102
 40
0.482758620689655
 40
0.482758620689655
 40
0.482758620689655
 40
0.482758620689655
 40
0.4999999999999998
 40
0.4999999999999998
 40
0.4999999999999998
 40
0.4999999999999998
 40
0.5172413793103446
 40
0.5172413793103446
 40
0.5172413793103446
 40
0.5172413793103446
 40
0.5344827586206895
 40
0.5344827586206895
 40
0.5344827586206895
 40
0.5344827586206895
 40
0.5517241379310344
 40
0.5517241379310344
 40
0.5517241379310344
 40
0.5517241379310344
 40
0.5689655172413792
 40
0.5689655172413792
 40
0.5689655172413792
 40
0.5689655172413792
 40
0.5862068965517241
 40
0.5862068965517241
 40
0.5862068965517241
 40
0.5862068965517241
 40
0.603448275862069
 40
0.603448275862069
 40
0.603448275862069
 40
0.603448275862069
 40
0.6206896551724138
 40
0.6206896551724138
 40
0.6206896551724138
 40
0.6206896551724138
 40
0.6379310344827587
 40
0.6379310344827587
 40
0.6379310344827587
 40
0.6379310344827587
 40
0.6551724137931035
 40
0.6551724137931035
 40
0.6551724137931035
 40
0.6551724137931035
 40
0.6724137931034484
 40
0.6724137931034484
 40
0.6724137931034484
 40
0.6724137931034484
 40
0.6896551724137933
 40
0.6896551724137933
 40
0.6896551724137933
 40
0.6896551724137933
 40
0.7068965517241381
 40
0.7068965517241381
 40
0.7068965517241381
 40
0.7068965517241381
 40
0.724137931034483
 40
0.724137931034483
 40
0.724137931034483
 40
0.724137931034483
 40
0.7413793103448278
 40
0.7413793103448278
 40
0.7413793103448278
 40
0.7413793103448278
 40
0.7586206896551727
 40
0.7586206896551727
 40
0.7586206896551727
 40
0.7586206896551727
 40
0.7758620689655176
 40
0.7758620689655176
 40
0.7758620689655176
 40
0.7758620689655176
 40
0.7931034482758624
 40
0.7931034482758624
 40
0.7931034482758624
 40
0.7931034482758624
 40
0.8103448275862073
 40
0.8103448275862073
 40
0.8103448275862073
 40
0.8103448275862073
 40
0.8275862068965522
 40
0.8275862068965522
 40
0.8275862068965522
 40
0.8275862068965522
 40
0.844827586206897
 40
0.844827586206897
 40
0.844827586206897
 40
0.844827586206897
 40
0.8620689655172419
 40
0.8620689655172419
 40
0.8620689655172419
 40
0.8620689655172419
 40
0.8793103448275867
 40
0.8793103448275867
 40
0.8793103448275867
 40
0.8793103448275867
 40
0.8965517241379316
 40
0.8965517241379316
 40
0.8965517241379316
 40
0.8965517241379316
 40
0.9137931034482765
 40
0.9137931034482765
 40
0.9137931034482765
 40
0.9137931034482765
 40
0.9310344827586213
 40
0.9310344827586213
 40
0.9310344827586213
 40
0.9310344827586213
 40
0.9482758620689662
 40
0.9482758620689662
 40
0.9482758620689662
 40
0.9482758620689662
 40
0.965517241379311
 40
0.965517241379311
 40
0.965517241379311
 40
0.965517241379311
 40
0.9827586206896559
 40
0.9827586206896559
 40
0.9827586206896559
 40
0.9827586206896559
 40
1.0
 40
1.0
 40
1.0
 40
1.0
 10
-10.78151
 20
-14.19839
 30
0.0
 10
-10.78144
 20
-14.18456
 30
0.0
 10
-10.77919
 20
-14.17207
 30
0.0
 10
-10.77467
 20
-14.16078
 30
0.0
 10
-10.77467
 20
-14.16078
 30
0.0
 10
-10.77023
 20
-14.14956
 30
0.0
 10
-10.76395
 20
-14.1399
 30
0.0
 10
-10.75583
 20
-14.13178
 30
0.0
 10
-10.75583
 20
-14.13178
 30
0.0
 10
-10.74779
 20
-14.12374
 30
0.0
 10
-10.73826
 20
-14.11753
 30
0.0
 10
-10.7274
 20
-14.11316
 30
0.0
 10
-10.7274
 20
-14.11316
 30
0.0
 10
-10.71653
 20
-14.10878
 30
0.0
 10
-10.70461
 20
-14.1066
 30
0.0
 10
-10.69177
 20
-14.10652
 30
0.0
 10
-10.69177
 20
-14.10652
 30
0.0
 10
-10.67886
 20
-14.10645
 30
0.0
 10
-10.66679
 20
-14.10808
 30
0.0
 10
-10.65557
 20
-14.11132
 30
0.0
 10
-10.65557
 20
-14.11132
 30
0.0
 10
-10.64435
 20
-14.1145
 30
0.0
 10
-10.63455
 20
-14.11972
 30
0.0
 10
-10.62601
 20
-14.12692
 30
0.0
 10
-10.62601
 20
-14.12692
 30
0.0
 10
-10.61747
 20
-14.13404
 30
0.0
 10
-10.61077
 20
-14.1435
 30
0.0
 10
-10.60597
 20
-14.15528
 30
0.0
 10
-10.60597
 20
-14.15528
 30
0.0
 10
-10.60118
 20
-14.16706
 30
0.0
 10
-10.59871
 20
-14.18138
 30
0.0
 10
-10.59864
 20
-14.19839
 30
0.0
 10
-10.59864
 20
-14.19839
 30
0.0
 10
-10.59871
 20
-14.21539
 30
0.0
 10
-10.60118
 20
-14.22971
 30
0.0
 10
-10.60597
 20
-14.2415
 30
0.0
 10
-10.60597
 20
-14.2415
 30
0.0
 10
-10.61077
 20
-14.25328
 30
0.0
 10
-10.61747
 20
-14.26273
 30
0.0
 10
-10.62601
 20
-14.26986
 30
0.0
 10
-10.62601
 20
-14.26986
 30
0.0
 10
-10.63455
 20
-14.27706
 30
0.0
 10
-10.64435
 20
-14.28228
 30
0.0
 10
-10.65557
 20
-14.28545
 30
0.0
 10
-10.65557
 20
-14.28545
 30
0.0
 10
-10.66679
 20
-14.2887
 30
0.0
 10
-10.67886
 20
-14.29032
 30
0.0
 10
-10.69177
 20
-14.29025
 30
0.0
 10
-10.69177
 20
-14.29025
 30
0.0
 10
-10.70461
 20
-14.29018
 30
0.0
 10
-10.71639
 20
-14.28799
 30
0.0
 10
-10.72719
 20
-14.28362
 30
0.0
 10
-10.72719
 20
-14.28362
 30
0.0
 10
-10.73791
 20
-14.27924
 30
0.0
 10
-10.74722
 20
-14.27303
 30
0.0
 10
-10.7552
 20
-14.26492
 30
0.0
 10
-10.7552
 20
-14.26492
 30
0.0
 10
-10.76317
 20
-14.25688
 30
0.0
 10
-10.76945
 20
-14.24721
 30
0.0
 10
-10.77396
 20
-14.23592
 30
0.0
 10
-10.77396
 20
-14.23592
 30
0.0
 10
-10.77855
 20
-14.2247
 30
0.0
 10
-10.78102
 20
-14.21222
 30
0.0
 10
-10.78151
 20
-14.19839
 30
0.0
 10
-10.78151
 20
-14.19839
 30
0.0
 10
-10.7818
 20
-14.1914
 30
0.0
 10
-10.78215
 20
-14.18308
 30
0.0
 10
-10.78264
 20
-14.17341
 30
0.0
 10
-10.78264
 20
-14.17341
 30
0.0
 10
-10.78314
 20
-14.16367
 30
0.0
 10
-10.78342
 20
-14.15309
 30
0.0
 10
-10.78349
 20
-14.14173
 30
0.0
 10
-10.78349
 20
-14.14173
 30
0.0
 10
-10.78356
 20
-14.1303
 30
0.0
 10
-10.78321
 20
-14.11852
 30
0.0
 10
-10.78229
 20
-14.10645
 30
0.0
 10
-10.78229
 20
-14.10645
 30
0.0
 10
-10.78144
 20
-14.09432
 30
0.0
 10
-10.77975
 20
-14.08239
 30
0.0
 10
-10.77728
 20
-14.07061
 30
0.0
 10
-10.77728
 20
-14.07061
 30
0.0
 10
-10.77481
 20
-14.0589
 30
0.0
 10
-10.77128
 20
-14.04782
 30
0.0
 10
-10.76663
 20
-14.03745
 30
0.0
 10
-10.76663
 20
-14.03745
 30
0.0
 10
-10.76197
 20
-14.02708
 30
0.0
 10
-10.75597
 20
-14.01791
 30
0.0
 10
-10.74856
 20
-14.00993
 30
0.0
 10
-10.74856
 20
-14.00993
 30
0.0
 10
-10.74109
 20
-14.00196
 30
0.0
 10
-10.73198
 20
-13.99568
 30
0.0
 10
-10.72119
 20
-13.9911
 30
0.0
 10
-10.72119
 20
-13.9911
 30
0.0
 10
-10.71039
 20
-13.98658
 30
0.0
 10
-10.69762
 20
-13.98425
 30
0.0
 10
-10.68288
 20
-13.98418
 30
0.0
 10
-10.68288
 20
-13.98418
 30
0.0
 10
-10.67004
 20
-13.98425
 30
0.0
 10
-10.65917
 20
-13.98552
 30
0.0
 10
-10.65014
 20
-13.98799
 30
0.0
 10
-10.65014
 20
-13.98799
 30
0.0
 10
-10.64111
 20
-13.99046
 30
0.0
 10
-10.6337
 20
-13.99378
 30
0.0
 10
-10.62777
 20
-13.99787
 30
0.0
 10
-10.62777
 20
-13.99787
 30
0.0
 10
-10.62192
 20
-14.00203
 30
0.0
 10
-10.61726
 20
-14.00655
 30
0.0
 10
-10.61388
 20
-14.01156
 30
0.0
 10
-10.61388
 20
-14.01156
 30
0.0
 10
-10.61049
 20
-14.0165
 30
0.0
 10
-10.60795
 20
-14.02151
 30
0.0
 10
-10.6064
 20
-14.02652
 30
0.0
 10
-10.6064
 20
-14.02652
 30
0.0
 10
-10.60477
 20
-14.03152
 30
0.0
 10
-10.60372
 20
-14.03618
 30
0.0
 10
-10.60329
 20
-14.04049
 30
0.0
 10
-10.60329
 20
-14.04049
 30
0.0
 10
-10.60372
 20
-14.03618
 30
0.0
 10
-10.60477
 20
-14.03152
 30
0.0
 10
-10.6064
 20
-14.02652
 30
0.0
 10
-10.6064
 20
-14.02652
 30
0.0
 10
-10.60795
 20
-14.02151
 30
0.0
 10
-10.61049
 20
-14.0165
 30
0.0
 10
-10.61388
 20
-14.01156
 30
0.0
 10
-10.61388
 20
-14.01156
 30
0.0
 10
-10.61726
 20
-14.00655
 30
0.0
 10
-10.62192
 20
-14.00203
 30
0.0
 10
-10.62777
 20
-13.99787
 30
0.0
 10
-10.62777
 20
-13.99787
 30
0.0
 10
-10.6337
 20
-13.99378
 30
0.0
 10
-10.64111
 20
-13.99046
 30
0.0
 10
-10.65014
 20
-13.98799
 30
0.0
 10
-10.65014
 20
-13.98799
 30
0.0
 10
-10.65917
 20
-13.98552
 30
0.0
 10
-10.67004
 20
-13.98425
 30
0.0
 10
-10.68288
 20
-13.98418
 30
0.0
 10
-10.68288
 20
-13.98418
 30
0.0
 10
-10.69762
 20
-13.98425
 30
0.0
 10
-10.71039
 20
-13.98658
 30
0.0
 10
-10.72119
 20
-13.9911
 30
0.0
 10
-10.72119
 20
-13.9911
 30
0.0
 10
-10.73198
 20
-13.99568
 30
0.0
 10
-10.74109
 20
-14.00196
 30
0.0
 10
-10.74856
 20
-14.00993
 30
0.0
 10
-10.74856
 20
-14.00993
 30
0.0
 10
-10.75597
 20
-14.01791
 30
0.0
 10
-10.76197
 20
-14.02708
 30
0.0
 10
-10.76663
 20
-14.03745
 30
0.0
 10
-10.76663
 20
-14.03745
 30
0.0
 10
-10.77128
 20
-14.04782
 30
0.0
 10
-10.77481
 20
-14.0589
 30
0.0
 10
-10.77728
 20
-14.07061
 30
0.0
 10
-10.77728
 20
-14.07061
 30
0.0
 10
-10.77975
 20
-14.08239
 30
0.0
 10
-10.78144
 20
-14.09432
 30
0.0
 10
-10.78229
 20
-14.10645
 30
0.0
 10
-10.78229
 20
-14.10645
 30
0.0
 10
-10.78321
 20
-14.11852
 30
0.0
 10
-10.78356
 20
-14.1303
 30
0.0
 10
-10.78349
 20
-14.14173
 30
0.0
 10
-10.78349
 20
-14.14173
 30
0.0
 10
-10.78342
 20
-14.15309
 30
0.0
 10
-10.78314
 20
-14.16367
 30
0.0
 10
-10.78264
 20
-14.17341
 30
0.0
 10
-10.78264
 20
-14.17341
 30
0.0
 10
-10.78215
 20
-14.18308
 30
0.0
 10
-10.7818
 20
-14.1914
 30
0.0
 10
-10.78151
 20
-14.19839
 30
0.0
 10
-10.78151
 20
-14.19839
 30
0.0
 10
-10.78102
 20
-14.21222
 30
0.0
 10
-10.77855
 20
-14.2247
 30
0.0
 10
-10.77396
 20
-14.23592
 30
0.0
 10
-10.77396
 20
-14.23592
 30
0.0
 10
-10.76945
 20
-14.24721
 30
0.0
 10
-10.76317
 20
-14.25688
 30
0.0
 10
-10.7552
 20
-14.26492
 30
0.0
 10
-10.7552
 20
-14.26492
 30
0.0
 10
-10.74722
 20
-14.27303
 30
0.0
 10
-10.73791
 20
-14.27924
 30
0.0
 10
-10.72719
 20
-14.28362
 30
0.0
 10
-10.72719
 20
-14.28362
 30
0.0
 10
-10.71639
 20
-14.28799
 30
0.0
 10
-10.70461
 20
-14.29018
 30
0.0
 10
-10.69177
 20
-14.29025
 30
0.0
 10
-10.69177
 20
-14.29025
 30
0.0
 10
-10.67886
 20
-14.29032
 30
0.0
 10
-10.66679
 20
-14.2887
 30
0.0
 10
-10.65557
 20
-14.28545
 30
0.0
 10
-10.65557
 20
-14.28545
 30
0.0
 10
-10.64435
 20
-14.28228
 30
0.0
 10
-10.63455
 20
-14.27706
 30
0.0
 10
-10.62601
 20
-14.26986
 30
0.0
 10
-10.62601
 20
-14.26986
 30
0.0
 10
-10.61747
 20
-14.26273
 30
0.0
 10
-10.61077
 20
-14.25328
 30
0.0
 10
-10.60597
 20
-14.2415
 30
0.0
 10
-10.60597
 20
-14.2415
 30
0.0
 10
-10.60118
 20
-14.22971
 30
0.0
 10
-10.59871
 20
-14.21539
 30
0.0
 10
-10.59864
 20
-14.19839
 30
0.0
 10
-10.59864
 20
-14.19839
 30
0.0
 10
-10.59871
 20
-14.18138
 30
0.0
 10
-10.60118
 20
-14.16706
 30
0.0
 10
-10.60597
 20
-14.15528
 30
0.0
 10
-10.60597
 20
-14.15528
 30
0.0
 10
-10.61077
 20
-14.1435
 30
0.0
 10
-10.61747
 20
-14.13404
 30
0.0
 10
-10.62601
 20
-14.12692
 30
0.0
 10
-10.62601
 20
-14.12692
 30
0.0
 10
-10.63455
 20
-14.11972
 30
0.0
 10
-10.64435
 20
-14.1145
 30
0.0
 10
-10.65557
 20
-14.11132
 30
0.0
 10
-10.65557
 20
-14.11132
 30
0.0
 10
-10.66679
 20
-14.10808
 30
0.0
 10
-10.67886
 20
-14.10645
 30
0.0
 10
-10.69177
 20
-14.10652
 30
0.0
 10
-10.69177
 20
-14.10652
 30
0.0
 10
-10.70461
 20
-14.1066
 30
0.0
 10
-10.71653
 20
-14.10878
 30
0.0
 10
-10.7274
 20
-14.11316
 30
0.0
 10
-10.7274
 20
-14.11316
 30
0.0
 10
-10.73826
 20
-14.11753
 30
0.0
 10
-10.74779
 20
-14.12374
 30
0.0
 10
-10.75583
 20
-14.13178
 30
0.0
 10
-10.75583
 20
-14.13178
 30
0.0
 10
-10.76395
 20
-14.1399
 30
0.0
 10
-10.77023
 20
-14.14956
 30
0.0
 10
-10.77467
 20
-14.16078
 30
0.0
 10
-10.77467
 20
-14.16078
 30
0.0
 10
-10.77919
 20
-14.17207
 30
0.0
 10
-10.78144
 20
-14.18456
 30
0.0
 10
-10.78151
 20
-14.19839
 30
0.0
  0
SPLINE
  5
74
330
1F
100
AcDbEntity
  8
Layer 1
 62
     5
370
    53
100
AcDbSpline
210
0.0
220
0.0
230
1.0
 70
    27
 71
     3
 72
    12
 73
     8
 74
     0
 42
0.0000000001
 43
0.0000000001
 40
0.0
 40
0.0
 40
0.0
 40
0.0
 40
0.5
 40
0.5
 40
0.5
 40
0.5
 40
1.0
 40
1.0
 40
1.0
 40
1.0
 10
-10.49746
 20
-14.13065
 30
0.0
 10
-10.49746
 20
-14.13065
 30
0.0
 10
-10.37427
 20
-14.13065
 30
0.0
 10
-10.37427
 20
-14.13065
 30
0.0
 10
-10.37427
 20
-14.13065
 30
0.0
 10
-10.37427
 20
-14.13065
 30
0.0
 10
-10.49746
 20
-14.13065
 30
0.0
 10
-10.49746
 20
-14.13065
 30
0.0
  0
SPLINE
  5
75
330
1F
100
AcDbEntity
  8
Layer 1
 62
     5
370
    53
100
AcDbSpline
210
0.0
220
0.0
230
1.0
 70
    11
 71
     3
 72
    84
 73
    80
 74
     0
 42
0.0000000001
 43
0.0000000001
 40
0.0
 40
0.0
 40
0.0
 40
0.0
 40
0.05
 40
0.05
 40
0.05
 40
0.05
 40
0.1
 40
0.1
 40
0.1
 40
0.1
 40
0.15
 40
0.15
 40
0.15
 40
0.15
 40
0.2
 40
0.2
 40
0.2
 40
0.2
 40
0.25
 40
0.25
 40
0.25
 40
0.25
 40
0.3
 40
0.3
 40
0.3
 40
0.3
 40
0.35
 40
0.35
 40
0.35
 40
0.35
 40
0.4
 40
0.4
 40
0.4
 40
0.4
 40
0.45
 40
0.45
 40
0.45
 40
0.45
 40
0.4999999999999999
 40
0.4999999999999999
 40
0.4999999999999999
 40
0.4999999999999999
 40
0.5499999999999999
 40
0.5499999999999999
 40
0.5499999999999999
 40
0.5499999999999999
 40
0.6
 40
0.6
 40
0.6
 40
0.6
 40
0.65
 40
0.65
 40
0.65
 40
0.65
 40
0.7000000000000001
 40
0.7000000000000001
 40
0.7000000000000001
 40
0.7000000000000001
 40
0.7500000000000001
 40
0.7500000000000001
 40
0.7500000000000001
 40
0.7500000000000001
 40
0.8000000000000002
 40
0.8000000000000002
 40
0.8000000000000002
 40
0.8000000000000002
 40
0.8500000000000002
 40
0.8500000000000002
 40
0.8500000000000002
 40
0.8500000000000002
 40
0.9000000000000002
 40
0.9000000000000002
 40
0.9000000000000002
 40
0.9000000000000002
 40
0.9500000000000003
 40
0.9500000000000003
 40
0.9500000000000003
 40
0.9500000000000003
 40
1.0
 40
1.0
 40
1.0
 40
1.0
 10
-10.18504
 20
-14.29025
 30
0.0
 10
-10.17023
 20
-14.29018
 30
0.0
 10
-10.15746
 20
-14.28757
 30
0.0
 10
-10.1468
 20
-14.28249
 30
0.0
 10
-10.1468
 20
-14.28249
 30
0.0
 10
-10.13622
 20
-14.27741
 30
0.0
 10
-10.1274
 20
-14.27014
 30
0.0
 10
-10.12035
 20
-14.2609
 30
0.0
 10
-10.12035
 20
-14.2609
 30
0.0
 10
-10.11336
 20
-14.25159
 30
0.0
 10
-10.10786
 20
-14.24058
 30
0.0
 10
-10.10377
 20
-14.22788
 30
0.0
 10
-10.10377
 20
-14.22788
 30
0.0
 10
-10.09974
 20
-14.21518
 30
0.0
 10
-10.09685
 20
-14.20128
 30
0.0
 10
-10.09523
 20
-14.18604
 30
0.0
 10
-10.09523
 20
-14.18604
 30
0.0
 10
-10.09353
 20
-14.1708
 30
0.0
 10
-10.09269
 20
-14.15478
 30
0.0
 10
-10.09276
 20
-14.13785
 30
0.0
 10
-10.09276
 20
-14.13785
 30
0.0
 10
-10.09269
 20
-14.12099
 30
0.0
 10
-10.09353
 20
-14.10497
 30
0.0
 10
-10.09523
 20
-14.0898
 30
0.0
 10
-10.09523
 20
-14.0898
 30
0.0
 10
-10.09685
 20
-14.07463
 30
0.0
 10
-10.09974
 20
-14.06066
 30
0.0
 10
-10.10377
 20
-14.04796
 30
0.0
 10
-10.10377
 20
-14.04796
 30
0.0
 10
-10.10786
 20
-14.03533
 30
0.0
 10
-10.11336
 20
-14.02433
 30
0.0
 10
-10.12035
 20
-14.01494
 30
0.0
 10
-10.12035
 20
-14.01494
 30
0.0
 10
-10.1274
 20
-14.00563
 30
0.0
 10
-10.13622
 20
-13.99836
 30
0.0
 10
-10.1468
 20
-13.99328
 30
0.0
 10
-10.1468
 20
-13.99328
 30
0.0
 10
-10.15746
 20
-13.98813
 30
0.0
 10
-10.17023
 20
-13.98552
 30
0.0
 10
-10.18504
 20
-13.98545
 30
0.0
 10
-10.18504
 20
-13.98545
 30
0.0
 10
-10.19986
 20
-13.98552
 30
0.0
 10
-10.21263
 20
-13.98813
 30
0.0
 10
-10.22329
 20
-13.99328
 30
0.0
 10
-10.22329
 20
-13.99328
 30
0.0
 10
-10.23387
 20
-13.99836
 30
0.0
 10
-10.24269
 20
-14.00563
 30
0.0
 10
-10.24974
 20
-14.01494
 30
0.0
 10
-10.24974
 20
-14.01494
 30
0.0
 10
-10.25673
 20
-14.02433
 30
0.0
 10
-10.26223
 20
-14.03533
 30
0.0
 10
-10.26632
 20
-14.04796
 30
0.0
 10
-10.26632
 20
-14.04796
 30
0.0
 10
-10.27035
 20
-14.06066
 30
0.0
 10
-10.27324
 20
-14.07463
 30
0.0
 10
-10.27486
 20
-14.0898
 30
0.0
 10
-10.27486
 20
-14.0898
 30
0.0
 10
-10.27655
 20
-14.10497
 30
0.0
 10
-10.2774
 20
-14.12099
 30
0.0
 10
-10.27733
 20
-14.13785
 30
0.0
 10
-10.27733
 20
-14.13785
 30
0.0
 10
-10.2774
 20
-14.15478
 30
0.0
 10
-10.27655
 20
-14.1708
 30
0.0
 10
-10.27486
 20
-14.18604
 30
0.0
 10
-10.27486
 20
-14.18604
 30
0.0
 10
-10.27324
 20
-14.20128
 30
0.0
 10
-10.27035
 20
-14.21518
 30
0.0
 10
-10.26632
 20
-14.22788
 30
0.0
 10
-10.26632
 20
-14.22788
 30
0.0
 10
-10.26223
 20
-14.24058
 30
0.0
 10
-10.25673
 20
-14.25159
 30
0.0
 10
-10.24974
 20
-14.2609
 30
0.0
 10
-10.24974
 20
-14.2609
 30
0.0
 10
-10.24269
 20
-14.27014
 30
0.0
 10
-10.23387
 20
-14.27741
 30
0.0
 10
-10.22329
 20
-14.28249
 30
0.0
 10
-10.22329
 20
-14.28249
 30
0.0
 10
-10.21263
 20
-14.28757
 30
0.0
 10
-10.19986
 20
-14.29018
 30
0.0
 10
-10.18504
 20
-14.29025
 30
0.0
  0
SPLINE
  5
76
330
1F
100
AcDbEntity
  8
Layer 1
 62
     5
370
    53
100
AcDbSpline
210
0.0
220
0.0
230
1.0
 70
    11
 71
     3
 72
    84
 73
    80
 74
     0
 42
0.0000000001
 43
0.0000000001
 40
0.0
 40
0.0
 40
0.0
 40
0.0
 40
0.05
 40
0.05
 40
0.05
 40
0.05
 40
0.1
 40
0.1
 40
0.1
 40
0.1
 40
0.15
 40
0.15
 40
0.15
 40
0.15
 40
0.2
 40
0.2
 40
0.2
 40
0.2
 40
0.25
 40
0.25
 40
0.25
 40
0.25
 40
0.3
 40
0.3
 40
0.3
 40
0.3
 40
0.35
 40
0.35
 40
0.35
 40
0.35
 40
0.4
 40
0.4
 40
0.4
 40
0.4
 40
0.45
 40
0.45
 40
0.45
 40
0.45
 40
0.4999999999999999
 40
0.4999999999999999
 40
0.4999999999999999
 40
0.4999999999999999
 40
0.5499999999999999
 40
0.5499999999999999
 40
0.5499999999999999
 40
0.5499999999999999
 40
0.6
 40
0.6
 40
0.6
 40
0.6
 40
0.65
 40
0.65
 40
0.65
 40
0.65
 40
0.7000000000000001
 40
0.7000000000000001
 40
0.7000000000000001
 40
0.7000000000000001
 40
0.7500000000000001
 40
0.7500000000000001
 40
0.7500000000000001
 40
0.7500000000000001
 40
0.8000000000000002
 40
0.8000000000000002
 40
0.8000000000000002
 40
0.8000000000000002
 40
0.8500000000000002
 40
0.8500000000000002
 40
0.8500000000000002
 40
0.8500000000000002
 40
0.9000000000000002
 40
0.9000000000000002
 40
0.9000000000000002
 40
0.9000000000000002
 40
0.9500000000000003
 40
0.9500000000000003
 40
0.9500000000000003
 40
0.9500000000000003
 40
1.0
 40
1.0
 40
1.0
 40
1.0
 10
-10.18504
 20
-14.29025
 30
0.0
 10
-10.17023
 20
-14.29018
 30
0.0
 10
-10.15746
 20
-14.28757
 30
0.0
 10
-10.1468
 20
-14.28249
 30
0.0
 10
-10.1468
 20
-14.28249
 30
0.0
 10
-10.13622
 20
-14.27741
 30
0.0
 10
-10.1274
 20
-14.27014
 30
0.0
 10
-10.12035
 20
-14.2609
 30
0.0
 10
-10.12035
 20
-14.2609
 30
0.0
 10
-10.11336
 20
-14.25159
 30
0.0
 10
-10.10786
 20
-14.24058
 30
0.0
 10
-10.10377
 20
-14.22788
 30
0.0
 10
-10.10377
 20
-14.22788
 30
0.0
 10
-10.09974
 20
-14.21518
 30
0.0
 10
-10.09685
 20
-14.20128
 30
0.0
 10
-10.09523
 20
-14.18604
 30
0.0
 10
-10.09523
 20
-14.18604
 30
0.0
 10
-10.09353
 20
-14.1708
 30
0.0
 10
-10.09269
 20
-14.15478
 30
0.0
 10
-10.09276
 20
-14.13785
 30
0.0
 10
-10.09276
 20
-14.13785
 30
0.0
 10
-10.09269
 20
-14.12099
 30
0.0
 10
-10.09353
 20
-14.10497
 30
0.0
 10
-10.09523
 20
-14.0898
 30
0.0
 10
-10.09523
 20
-14.0898
 30
0.0
 10
-10.09685
 20
-14.07463
 30
0.0
 10
-10.09974
 20
-14.06066
 30
0.0
 10
-10.10377
 20
-14.04796
 30
0.0
 10
-10.10377
 20
-14.04796
 30
0.0
 10
-10.10786
 20
-14.03533
 30
0.0
 10
-10.11336
 20
-14.02433
 30
0.0
 10
-10.12035
 20
-14.01494
 30
0.0
 10
-10.12035
 20
-14.01494
 30
0.0
 10
-10.1274
 20
-14.00563
 30
0.0
 10
-10.13622
 20
-13.99836
 30
0.0
 10
-10.1468
 20
-13.99328
 30
0.0
 10
-10.1468
 20
-13.99328
 30
0.0
 10
-10.15746
 20
-13.98813
 30
0.0
 10
-10.17023
 20
-13.98552
 30
0.0
 10
-10.18504
 20
-13.98545
 30
0.0
 10
-10.18504
 20
-13.98545
 30
0.0
 10
-10.19986
 20
-13.98552
 30
0.0
 10
-10.21263
 20
-13.98813
 30
0.0
 10
-10.22329
 20
-13.99328
 30
0.0
 10
-10.22329
 20
-13.99328
 30
0.0
 10
-10.23387
 20
-13.99836
 30
0.0
 10
-10.24269
 20
-14.00563
 30
0.0
 10
-10.24974
 20
-14.01494
 30
0.0
 10
-10.24974
 20
-14.01494
 30
0.0
 10
-10.25673
 20
-14.02433
 30
0.0
 10
-10.26223
 20
-14.03533
 30
0.0
 10
-10.26632
 20
-14.04796
 30
0.0
 10
-10.26632
 20
-14.04796
 30
0.0
 10
-10.27035
 20
-14.06066
 30
0.0
 10
-10.27324
 20
-14.07463
 30
0.0
 10
-10.27486
 20
-14.0898
 30
0.0
 10
-10.27486
 20
-14.0898
 30
0.0
 10
-10.27655
 20
-14.10497
 30
0.0
 10
-10.2774
 20
-14.12099
 30
0.0
 10
-10.27733
 20
-14.13785
 30
0.0
 10
-10.27733
 20
-14.13785
 30
0.0
 10
-10.2774
 20
-14.15478
 30
0.0
 10
-10.27655
 20
-14.1708
 30
0.0
 10
-10.27486
 20
-14.18604
 30
0.0
 10
-10.27486
 20
-14.18604
 30
0.0
 10
-10.27324
 20
-14.20128
 30
0.0
 10
-10.27035
 20
-14.21518
 30
0.0
 10
-10.26632
 20
-14.22788
 30
0.0
 10
-10.26632
 20
-14.22788
 30
0.0
 10
-10.26223
 20
-14.24058
 30
0.0
 10
-10.25673
 20
-14.25159
 30
0.0
 10
-10.24974
 20
-14.2609
 30
0.0
 10
-10.24974
 20
-14.2609
 30
0.0
 10
-10.24269
 20
-14.27014
 30
0.0
 10
-10.23387
 20
-14.27741
 30
0.0
 10
-10.22329
 20
-14.28249
 30
0.0
 10
-10.22329
 20
-14.28249
 30
0.0
 10
-10.21263
 20
-14.28757
 30
0.0
 10
-10.19986
 20
-14.29018
 30
0.0
 10
-10.18504
 20
-14.29025
 30
0.0
  0
SPLINE
  5
77
330
1F
100
AcDbEntity
  8
Layer 1
 62
     5
370
    53
100
AcDbSpline
210
0.0
220
0.0
230
1.0
 70
    11
 71
     3
 72
   180
 73
   176
 74
     0
 42
0.0000000001
 43
0.0000000001
 40
0.0
 40
0.0
 40
0.0
 40
0.0
 40
0.0227272727272727
 40
0.0227272727272727
 40
0.0227272727272727
 40
0.0227272727272727
 40
0.0454545454545455
 40
0.0454545454545455
 40
0.0454545454545455
 40
0.0454545454545455
 40
0.0681818181818182
 40
0.0681818181818182
 40
0.0681818181818182
 40
0.0681818181818182
 40
0.0909090909090909
 40
0.0909090909090909
 40
0.0909090909090909
 40
0.0909090909090909
 40
0.1136363636363636
 40
0.1136363636363636
 40
0.1136363636363636
 40
0.1136363636363636
 40
0.1363636363636364
 40
0.1363636363636364
 40
0.1363636363636364
 40
0.1363636363636364
 40
0.1590909090909091
 40
0.1590909090909091
 40
0.1590909090909091
 40
0.1590909090909091
 40
0.1818181818181819
 40
0.1818181818181819
 40
0.1818181818181819
 40
0.1818181818181819
 40
0.2045454545454546
 40
0.2045454545454546
 40
0.2045454545454546
 40
0.2045454545454546
 40
0.2272727272727273
 40
0.2272727272727273
 40
0.2272727272727273
 40
0.2272727272727273
 40
0.2500000000000001
 40
0.2500000000000001
 40
0.2500000000000001
 40
0.2500000000000001
 40
0.2727272727272728
 40
0.2727272727272728
 40
0.2727272727272728
 40
0.2727272727272728
 40
0.2954545454545455
 40
0.2954545454545455
 40
0.2954545454545455
 40
0.2954545454545455
 40
0.3181818181818182
 40
0.3181818181818182
 40
0.3181818181818182
 40
0.3181818181818182
 40
0.3409090909090909
 40
0.3409090909090909
 40
0.3409090909090909
 40
0.3409090909090909
 40
0.3636363636363636
 40
0.3636363636363636
 40
0.3636363636363636
 40
0.3636363636363636
 40
0.3863636363636363
 40
0.3863636363636363
 40
0.3863636363636363
 40
0.3863636363636363
 40
0.409090909090909
 40
0.409090909090909
 40
0.409090909090909
 40
0.409090909090909
 40
0.4318181818181817
 40
0.4318181818181817
 40
0.4318181818181817
 40
0.4318181818181817
 40
0.4545454545454544
 40
0.4545454545454544
 40
0.4545454545454544
 40
0.4545454545454544
 40
0.4772727272727271
 40
0.4772727272727271
 40
0.4772727272727271
 40
0.4772727272727271
 40
0.4999999999999998
 40
0.4999999999999998
 40
0.4999999999999998
 40
0.4999999999999998
 40
0.5227272727272726
 40
0.5227272727272726
 40
0.5227272727272726
 40
0.5227272727272726
 40
0.5454545454545453
 40
0.5454545454545453
 40
0.5454545454545453
 40
0.5454545454545453
 40
0.568181818181818
 40
0.568181818181818
 40
0.568181818181818
 40
0.568181818181818
 40
0.5909090909090907
 40
0.5909090909090907
 40
0.5909090909090907
 40
0.5909090909090907
 40
0.6136363636363634
 40
0.6136363636363634
 40
0.6136363636363634
 40
0.6136363636363634
 40
0.6363636363636361
 40
0.6363636363636361
 40
0.6363636363636361
 40
0.6363636363636361
 40
0.6590909090909088
 40
0.6590909090909088
 40
0.6590909090909088
 40
0.6590909090909088
 40
0.6818181818181815
 40
0.6818181818181815
 40
0.6818181818181815
 40
0.6818181818181815
 40
0.7045454545454543
 40
0.7045454545454543
 40
0.7045454545454543
 40
0.7045454545454543
 40
0.727272727272727
 40
0.727272727272727
 40
0.727272727272727
 40
0.727272727272727
 40
0.7499999999999997
 40
0.7499999999999997
 40
0.7499999999999997
 40
0.7499999999999997
 40
0.7727272727272724
 40
0.7727272727272724
 40
0.7727272727272724
 40
0.7727272727272724
 40
0.7954545454545451
 40
0.7954545454545451
 40
0.7954545454545451
 40
0.7954545454545451
 40
0.8181818181818178
 40
0.8181818181818178
 40
0.8181818181818178
 40
0.8181818181818178
 40
0.8409090909090905
 40
0.8409090909090905
 40
0.8409090909090905
 40
0.8409090909090905
 40
0.8636363636363632
 40
0.8636363636363632
 40
0.8636363636363632
 40
0.8636363636363632
 40
0.8863636363636359
 40
0.8863636363636359
 40
0.8863636363636359
 40
0.8863636363636359
 40
0.9090909090909086
 40
0.9090909090909086
 40
0.9090909090909086
 40
0.9090909090909086
 40
0.9318181818181813
 40
0.9318181818181813
 40
0.9318181818181813
 40
0.9318181818181813
 40
0.954545454545454
 40
0.954545454545454
 40
0.954545454545454
 40
0.954545454545454
 40
0.9772727272727267
 40
0.9772727272727267
 40
0.9772727272727267
 40
0.9772727272727267
 40
1.0
 40
1.0
 40
1.0
 40
1.0
 10
-9.99243
 20
-14.21363
 30
0.0
 10
-9.99236
 20
-14.22887
 30
0.0
 10
-9.98883
 20
-14.24213
 30
0.0
 10
-9.98185
 20
-14.25363
 30
0.0
 10
-9.98185
 20
-14.25363
 30
0.0
 10
-9.97486
 20
-14.26506
 30
0.0
 10
-9.96491
 20
-14.27402
 30
0.0
 10
-9.95193
 20
-14.28044
 30
0.0
 10
-9.95193
 20
-14.28044
 30
0.0
 10
-9.93895
 20
-14.28686
 30
0.0
 10
-9.92336
 20
-14.29011
 30
0.0
 10
-9.90522
 20
-14.29025
 30
0.0
 10
-9.90522
 20
-14.29025
 30
0.0
 10
-9.89161
 20
-14.29025
 30
0.0
 10
-9.87926
 20
-14.28884
 30
0.0
 10
-9.86804
 20
-14.28588
 30
0.0
 10
-9.86804
 20
-14.28588
 30
0.0
 10
-9.85689
 20
-14.28291
 30
0.0
 10
-9.8473
 20
-14.27833
 30
0.0
 10
-9.83918
 20
-14.27205
 30
0.0
 10
-9.83918
 20
-14.27205
 30
0.0
 10
-9.83107
 20
-14.26577
 30
0.0
 10
-9.82486
 20
-14.25765
 30
0.0
 10
-9.82042
 20
-14.24778
 30
0.0
 10
-9.82042
 20
-14.24778
 30
0.0
 10
-9.81604
 20
-14.23783
 30
0.0
 10
-9.81386
 20
-14.2259
 30
0.0
 10
-9.81379
 20
-14.21193
 30
0.0
 10
-9.81379
 20
-14.21193
 30
0.0
 10
-9.81371
 20
-14.19331
 30
0.0
 10
-9.81752
 20
-14.17757
 30
0.0
 10
-9.82507
 20
-14.1648
 30
0.0
 10
-9.82507
 20
-14.1648
 30
0.0
 10
-9.83262
 20
-14.15203
 30
0.0
 10
-9.84434
 20
-14.14244
 30
0.0
 10
-9.86007
 20
-14.13588
 30
0.0
 10
-9.86007
 20
-14.13588
 30
0.0
 10
-9.8758
 20
-14.12931
 30
0.0
 10
-9.89598
 20
-14.126
 30
0.0
 10
-9.92046
 20
-14.126
 30
0.0
 10
-9.92046
 20
-14.126
 30
0.0
 10
-9.90219
 20
-14.12607
 30
0.0
 10
-9.88688
 20
-14.12438
 30
0.0
 10
-9.87439
 20
-14.12092
 30
0.0
 10
-9.87439
 20
-14.12092
 30
0.0
 10
-9.86197
 20
-14.11746
 30
0.0
 10
-9.85203
 20
-14.11259
 30
0.0
 10
-9.84455
 20
-14.10624
 30
0.0
 10
-9.84455
 20
-14.10624
 30
0.0
 10
-9.83707
 20
-14.09996
 30
0.0
 10
-9.83164
 20
-14.09248
 30
0.0
 10
-9.82839
 20
-14.08388
 30
0.0
 10
-9.82839
 20
-14.08388
 30
0.0
 10
-9.82507
 20
-14.07534
 30
0.0
 10
-9.82345
 20
-14.06596
 30
0.0
 10
-9.82352
 20
-14.05573
 30
0.0
 10
-9.82352
 20
-14.05573
 30
0.0
 10
-9.82345
 20
-14.04549
 30
0.0
 10
-9.82486
 20
-14.03604
 30
0.0
 10
-9.82768
 20
-14.02729
 30
0.0
 10
-9.82768
 20
-14.02729
 30
0.0
 10
-9.83044
 20
-14.01854
 30
0.0
 10
-9.83495
 20
-14.01085
 30
0.0
 10
-9.84109
 20
-14.00429
 30
0.0
 10
-9.84109
 20
-14.00429
 30
0.0
 10
-9.84723
 20
-13.99773
 30
0.0
 10
-9.85534
 20
-13.99258
 30
0.0
 10
-9.86529
 20
-13.98891
 30
0.0
 10
-9.86529
 20
-13.98891
 30
0.0
 10
-9.87531
 20
-13.98524
 30
0.0
 10
-9.88752
 20
-13.98341
 30
0.0
 10
-9.90184
 20
-13.98334
 30
0.0
 10
-9.90184
 20
-13.98334
 30
0.0
 10
-9.91609
 20
-13.98341
 30
0.0
 10
-9.92858
 20
-13.98552
 30
0.0
 10
-9.93916
 20
-13.98962
 30
0.0
 10
-9.93916
 20
-13.98962
 30
0.0
 10
-9.94982
 20
-13.99371
 30
0.0
 10
-9.95856
 20
-13.99928
 30
0.0
 10
-9.96562
 20
-14.00641
 30
0.0
 10
-9.96562
 20
-14.00641
 30
0.0
 10
-9.9726
 20
-14.01353
 30
0.0
 10
-9.97783
 20
-14.02165
 30
0.0
 10
-9.98128
 20
-14.03082
 30
0.0
 10
-9.98128
 20
-14.03082
 30
0.0
 10
-9.98481
 20
-14.03999
 30
0.0
 10
-9.9865
 20
-14.04973
 30
0.0
 10
-9.9865
 20
-14.05996
 30
0.0
 10
-9.9865
 20
-14.05996
 30
0.0
 10
-9.9865
 20
-14.04973
 30
0.0
 10
-9.98481
 20
-14.03999
 30
0.0
 10
-9.98128
 20
-14.03082
 30
0.0
 10
-9.98128
 20
-14.03082
 30
0.0
 10
-9.97783
 20
-14.02165
 30
0.0
 10
-9.9726
 20
-14.01353
 30
0.0
 10
-9.96562
 20
-14.00641
 30
0.0
 10
-9.96562
 20
-14.00641
 30
0.0
 10
-9.95856
 20
-13.99928
 30
0.0
 10
-9.94982
 20
-13.99371
 30
0.0
 10
-9.93916
 20
-13.98962
 30
0.0
 10
-9.93916
 20
-13.98962
 30
0.0
 10
-9.92858
 20
-13.98552
 30
0.0
 10
-9.91609
 20
-13.98341
 30
0.0
 10
-9.90184
 20
-13.98334
 30
0.0
 10
-9.90184
 20
-13.98334
 30
0.0
 10
-9.88752
 20
-13.98341
 30
0.0
 10
-9.87531
 20
-13.98524
 30
0.0
 10
-9.86529
 20
-13.98891
 30
0.0
 10
-9.86529
 20
-13.98891
 30
0.0
 10
-9.85534
 20
-13.99258
 30
0.0
 10
-9.84723
 20
-13.99773
 30
0.0
 10
-9.84109
 20
-14.00429
 30
0.0
 10
-9.84109
 20
-14.00429
 30
0.0
 10
-9.83495
 20
-14.01085
 30
0.0
 10
-9.83044
 20
-14.01854
 30
0.0
 10
-9.82768
 20
-14.02729
 30
0.0
 10
-9.82768
 20
-14.02729
 30
0.0
 10
-9.82486
 20
-14.03604
 30
0.0
 10
-9.82345
 20
-14.04549
 30
0.0
 10
-9.82352
 20
-14.05573
 30
0.0
 10
-9.82352
 20
-14.05573
 30
0.0
 10
-9.82345
 20
-14.06596
 30
0.0
 10
-9.82507
 20
-14.07534
 30
0.0
 10
-9.82839
 20
-14.08388
 30
0.0
 10
-9.82839
 20
-14.08388
 30
0.0
 10
-9.83164
 20
-14.09248
 30
0.0
 10
-9.83707
 20
-14.09996
 30
0.0
 10
-9.84455
 20
-14.10624
 30
0.0
 10
-9.84455
 20
-14.10624
 30
0.0
 10
-9.85203
 20
-14.11259
 30
0.0
 10
-9.86197
 20
-14.11746
 30
0.0
 10
-9.87439
 20
-14.12092
 30
0.0
 10
-9.87439
 20
-14.12092
 30
0.0
 10
-9.88688
 20
-14.12438
 30
0.0
 10
-9.90219
 20
-14.12607
 30
0.0
 10
-9.92046
 20
-14.126
 30
0.0
 10
-9.92046
 20
-14.126
 30
0.0
 10
-9.89598
 20
-14.126
 30
0.0
 10
-9.8758
 20
-14.12931
 30
0.0
 10
-9.86007
 20
-14.13588
 30
0.0
 10
-9.86007
 20
-14.13588
 30
0.0
 10
-9.84434
 20
-14.14244
 30
0.0
 10
-9.83262
 20
-14.15203
 30
0.0
 10
-9.82507
 20
-14.1648
 30
0.0
 10
-9.82507
 20
-14.1648
 30
0.0
 10
-9.81752
 20
-14.17757
 30
0.0
 10
-9.81371
 20
-14.19331
 30
0.0
 10
-9.81379
 20
-14.21193
 30
0.0
 10
-9.81379
 20
-14.21193
 30
0.0
 10
-9.81386
 20
-14.2259
 30
0.0
 10
-9.81604
 20
-14.23783
 30
0.0
 10
-9.82042
 20
-14.24778
 30
0.0
 10
-9.82042
 20
-14.24778
 30
0.0
 10
-9.82486
 20
-14.25765
 30
0.0
 10
-9.83107
 20
-14.26577
 30
0.0
 10
-9.83918
 20
-14.27205
 30
0.0
 10
-9.83918
 20
-14.27205
 30
0.0
 10
-9.8473
 20
-14.27833
 30
0.0
 10
-9.85689
 20
-14.28291
 30
0.0
 10
-9.86804
 20
-14.28588
 30
0.0
 10
-9.86804
 20
-14.28588
 30
0.0
 10
-9.87926
 20
-14.28884
 30
0.0
 10
-9.89161
 20
-14.29025
 30
0.0
 10
-9.90522
 20
-14.29025
 30
0.0
 10
-9.90522
 20
-14.29025
 30
0.0
 10
-9.92336
 20
-14.29011
 30
0.0
 10
-9.93895
 20
-14.28686
 30
0.0
 10
-9.95193
 20
-14.28044
 30
0.0
 10
-9.95193
 20
-14.28044
 30
0.0
 10
-9.96491
 20
-14.27402
 30
0.0
 10
-9.97486
 20
-14.26506
 30
0.0
 10
-9.98185
 20
-14.25363
 30
0.0
 10
-9.98185
 20
-14.25363
 30
0.0
 10
-9.98883
 20
-14.24213
 30
0.0
 10
-9.99236
 20
-14.22887
 30
0.0
 10
-9.99243
 20
-14.21363
 30
0.0
  0
SPLINE
  5
78
330
1F
100
AcDbEntity
  8
Layer 1
370
    53
100
AcDbSpline
210
0.0
220
0.0
230
1.0
 70
    11
 71
     3
 72
    84
 73
    80
 74
     0
 42
0.0000000001
 43
0.0000000001
 40
0.0
 40
0.0
 40
0.0
 40
0.0
 40
0.05
 40
0.05
 40
0.05
 40
0.05
 40
0.1
 40
0.1
 40
0.1
 40
0.1
 40
0.15
 40
0.15
 40
0.15
 40
0.15
 40
0.2
 40
0.2
 40
0.2
 40
0.2
 40
0.25
 40
0.25
 40
0.25
 40
0.25
 40
0.3
 40
0.3
 40
0.3
 40
0.3
 40
0.35
 40
0.35
 40
0.35
 40
0.35
 40
0.4
 40
0.4
 40
0.4
 40
0.4
 40
0.45
 40
0.45
 40
0.45
 40
0.45
 40
0.4999999999999999
 40
0.4999999999999999
 40
0.4999999999999999
 40
0.4999999999999999
 40
0.5499999999999999
 40
0.5499999999999999
 40
0.5499999999999999
 40
0.5499999999999999
 40
0.6
 40
0.6
 40
0.6
 40
0.6
 40
0.65
 40
0.65
 40
0.65
 40
0.65
 40
0.7000000000000001
 40
0.7000000000000001
 40
0.7000000000000001
 40
0.7000000000000001
 40
0.7500000000000001
 40
0.7500000000000001
 40
0.7500000000000001
 40
0.7500000000000001
 40
0.8000000000000002
 40
0.8000000000000002
 40
0.8000000000000002
 40
0.8000000000000002
 40
0.8500000000000002
 40
0.8500000000000002
 40
0.8500000000000002
 40
0.8500000000000002
 40
0.9000000000000002
 40
0.9000000000000002
 40
0.9000000000000002
 40
0.9000000000000002
 40
0.9500000000000003
 40
0.9500000000000003
 40
0.9500000000000003
 40
0.9500000000000003
 40
1.0
 40
1.0
 40
1.0
 40
1.0
 10
-13.8
 20
-12.7
 30
0.0
 10
-13.8
 20
-12.7
 30
0.0
 10
-13.75985
 20
-12.7
 30
0.0
 10
-13.75985
 20
-12.7
 30
0.0
 10
-13.75985
 20
-12.7
 30
0.0
 10
-13.7335
 20
-12.65447
 30
0.0
 10
-13.69553
 20
-12.6165
 30
0.0
 10
-13.65
 20
-12.59015
 30
0.0
 10
-13.65
 20
-12.59015
 30
0.0
 10
-13.65
 20
-12.59015
 30
0.0
 10
-13.65
 20
-12.55
 30
0.0
 10
-13.65
 20
-12.55
 30
0.0
 10
-13.65
 20
-12.55
 30
0.0
 10
-13.65
 20
-12.55
 30
0.0
 10
-13.5
 20
-12.55
 30
0.0
 10
-13.5
 20
-12.55
 30
0.0
 10
-13.5
 20
-12.55
 30
0.0
 10
-13.5
 20
-12.55
 30
0.0
 10
-13.35
 20
-12.55
 30
0.0
 10
-13.35
 20
-12.55
 30
0.0
 10
-13.35
 20
-12.55
 30
0.0
 10
-13.35
 20
-12.55
 30
0.0
 10
-13.35
 20
-12.59015
 30
0.0
 10
-13.35
 20
-12.59015
 30
0.0
 10
-13.35
 20
-12.59015
 30
0.0
 10
-13.30447
 20
-12.6165
 30
0.0
 10
-13.2665
 20
-12.65447
 30
0.0
 10
-13.24015
 20
-12.7
 30
0.0
 10
-13.24015
 20
-12.7
 30
0.0
 10
-13.24015
 20
-12.7
 30
0.0
 10
-13.2
 20
-12.7
 30
0.0
 10
-13.2
 20
-12.7
 30
0.0
 10
-13.2
 20
-12.7
 30
0.0
 10
-13.2
 20
-12.7
 30
0.0
 10
-13.2
 20
-12.85
 30
0.0
 10
-13.2
 20
-12.85
 30
0.0
 10
-13.2
 20
-12.85
 30
0.0
 10
-13.2
 20
-12.85
 30
0.0
 10
-13.2
 20
-13.0
 30
0.0
 10
-13.2
 20
-13.0
 30
0.0
 10
-13.2
 20
-13.0
 30
0.0
 10
-13.2
 20
-13.0
 30
0.0
 10
-13.24015
 20
-13.0
 30
0.0
 10
-13.24015
 20
-13.0
 30
0.0
 10
-13.24015
 20
-13.0
 30
0.0
 10
-13.2665
 20
-13.04553
 30
0.0
 10
-13.30447
 20
-13.0835
 30
0.0
 10
-13.35
 20
-13.10985
 30
0.0
 10
-13.35
 20
-13.10985
 30
0.0
 10
-13.35
 20
-13.10985
 30
0.0
 10
-13.35
 20
-13.15
 30
0.0
 10
-13.35
 20
-13.15
 30
0.0
 10
-13.35
 20
-13.15
 30
0.0
 10
-13.35
 20
-13.15
 30
0.0
 10
-13.5
 20
-13.15
 30
0.0
 10
-13.5
 20
-13.15
 30
0.0
 10
-13.5
 20
-13.15
 30
0.0
 10
-13.5
 20
-13.15
 30
0.0
 10
-13.65
 20
-13.15
 30
0.0
 10
-13.65
 20
-13.15
 30
0.0
 10
-13.65
 20
-13.15
 30
0.0
 10
-13.65
 20
-13.15
 30
0.0
 10
-13.65
 20
-13.10985
 30
0.0
 10
-13.65
 20
-13.10985
 30
0.0
 10
-13.65
 20
-13.10985
 30
0.0
 10
-13.69553
 20
-13.0835
 30
0.0
 10
-13.7335
 20
-13.04553
 30
0.0
 10
-13.75985
 20
-13.0
 30
0.0
 10
-13.75985
 20
-13.0
 30
0.0
 10
-13.75985
 20
-13.0
 30
0.0
 10
-13.8
 20
-13.0
 30
0.0
 10
-13.8
 20
-13.0
 30
0.0
 10
-13.8
 20
-13.0
 30
0.0
 10
-13.8
 20
-13.0
 30
0.0
 10
-13.8
 20
-12.85
 30
0.0
 10
-13.8
 20
-12.85
 30
0.0
 10
-13.8
 20
-12.85
 30
0.0
 10
-13.8
 20
-12.85
 30
0.0
 10
-13.8
 20
-12.7
 30
0.0
 10
-13.8
 20
-12.7
 30
0.0
  0
SPLINE
  5
79
330
1F
100
AcDbEntity
  8
Layer 1
370
    53
100
AcDbSpline
210
0.0
220
0.0
230
1.0
 70
    11
 71
     3
 72
    20
 73
    16
 74
     0
 42
0.0000000001
 43
0.0000000001
 40
0.0
 40
0.0
 40
0.0
 40
0.0
 40
0.25
 40
0.25
 40
0.25
 40
0.25
 40
0.5
 40
0.5
 40
0.5
 40
0.5
 40
0.75
 40
0.75
 40
0.75
 40
0.75
 40
1.0
 40
1.0
 40
1.0
 40
1.0
 10
-14.8
 20
-13.0
 30
0.0
 10
-14.8
 20
-13.0
 30
0.0
 10
-14.8
 20
-12.7
 30
0.0
 10
-14.8
 20
-12.7
 30
0.0
 10
-14.8
 20
-12.7
 30
0.0
 10
-14.8
 20
-12.7
 30
0.0
 10
-14.2
 20
-12.7
 30
0.0
 10
-14.2
 20
-12.7
 30
0.0
 10
-14.2
 20
-12.7
 30
0.0
 10
-14.2
 20
-12.7
 30
0.0
 10
-14.2
 20
-13.0
 30
0.0
 10
-14.2
 20
-13.0
 30
0.0
 10
-14.2
 20
-13.0
 30
0.0
 10
-14.2
 20
-13.0
 30
0.0
 10
-14.8
 20
-13.0
 30
0.0
 10
-14.8
 20
-13.0
 30
0.0
  0
SPLINE
  5
7A
330
1F
100
AcDbEntity
  8
Layer 1
370
    53
100
AcDbSpline
210
0.0
220
0.0
230
1.0
 70
    11
 71
     3
 72
    20
 73
    16
 74
     0
 42
0.0000000001
 43
0.0000000001
 40
0.0
 40
0.0
 40
0.0
 40
0.0
 40
0.25
 40
0.25
 40
0.25
 40
0.25
 40
0.5
 40
0.5
 40
0.5
 40
0.5
 40
0.75
 40
0.75
 40
0.75
 40
0.75
 40
1.0
 40
1.0
 40
1.0
 40
1.0
 10
-12.8
 20
-13.0
 30
0.0
 10
-12.8
 20
-13.0
 30
0.0
 10
-12.8
 20
-12.7
 30
0.0
 10
-12.8
 20
-12.7
 30
0.0
 10
-12.8
 20
-12.7
 30
0.0
 10
-12.8
 20
-12.7
 30
0.0
 10
-12.2
 20
-12.7
 30
0.0
 10
-12.2
 20
-12.7
 30
0.0
 10
-12.2
 20
-12.7
 30
0.0
 10
-12.2
 20
-12.7
 30
0.0
 10
-12.2
 20
-13.0
 30
0.0
 10
-12.2
 20
-13.0
 30
0.0
 10
-12.2
 20
-13.0
 30
0.0
 10
-12.2
 20
-13.0
 30
0.0
 10
-12.8
 20
-13.0
 30
0.0
 10
-12.8
 20
-13.0
 30
0.0
  0
SPLINE
  5
7B
330
1F
100
AcDbEntity
  8
Layer 1
370
    53
100
AcDbSpline
210
0.0
220
0.0
230
1.0
 70
    11
 71
     3
 72
    84
 73
    80
 74
     0
 42
0.0000000001
 43
0.0000000001
 40
0.0
 40
0.0
 40
0.0
 40
0.0
 40
0.05
 40
0.05
 40
0.05
 40
0.05
 40
0.1
 40
0.1
 40
0.1
 40
0.1
 40
0.15
 40
0.15
 40
0.15
 40
0.15
 40
0.2
 40
0.2
 40
0.2
 40
0.2
 40
0.25
 40
0.25
 40
0.25
 40
0.25
 40
0.3
 40
0.3
 40
0.3
 40
0.3
 40
0.35
 40
0.35
 40
0.35
 40
0.35
 40
0.4
 40
0.4
 40
0.4
 40
0.4
 40
0.45
 40
0.45
 40
0.45
 40
0.45
 40
0.4999999999999999
 40
0.4999999999999999
 40
0.4999999999999999
 40
0.4999999999999999
 40
0.5499999999999999
 40
0.5499999999999999
 40
0.5499999999999999
 40
0.5499999999999999
 40
0.6
 40
0.6
 40
0.6
 40
0.6
 40
0.65
 40
0.65
 40
0.65
 40
0.65
 40
0.7000000000000001
 40
0.7000000000000001
 40
0.7000000000000001
 40
0.7000000000000001
 40
0.7500000000000001
 40
0.7500000000000001
 40
0.7500000000000001
 40
0.7500000000000001
 40
0.8000000000000002
 40
0.8000000000000002
 40
0.8000000000000002
 40
0.8000000000000002
 40
0.8500000000000002
 40
0.8500000000000002
 40
0.8500000000000002
 40
0.8500000000000002
 40
0.9000000000000002
 40
0.9000000000000002
 40
0.9000000000000002
 40
0.9000000000000002
 40
0.9500000000000003
 40
0.9500000000000003
 40
0.9500000000000003
 40
0.9500000000000003
 40
1.0
 40
1.0
 40
1.0
 40
1.0
 10
-11.8
 20
-12.7
 30
0.0
 10
-11.8
 20
-12.7
 30
0.0
 10
-11.75985
 20
-12.7
 30
0.0
 10
-11.75985
 20
-12.7
 30
0.0
 10
-11.75985
 20
-12.7
 30
0.0
 10
-11.7335
 20
-12.65447
 30
0.0
 10
-11.69553
 20
-12.6165
 30
0.0
 10
-11.65
 20
-12.59015
 30
0.0
 10
-11.65
 20
-12.59015
 30
0.0
 10
-11.65
 20
-12.59015
 30
0.0
 10
-11.65
 20
-12.55
 30
0.0
 10
-11.65
 20
-12.55
 30
0.0
 10
-11.65
 20
-12.55
 30
0.0
 10
-11.65
 20
-12.55
 30
0.0
 10
-11.5
 20
-12.55
 30
0.0
 10
-11.5
 20
-12.55
 30
0.0
 10
-11.5
 20
-12.55
 30
0.0
 10
-11.5
 20
-12.55
 30
0.0
 10
-11.35
 20
-12.55
 30
0.0
 10
-11.35
 20
-12.55
 30
0.0
 10
-11.35
 20
-12.55
 30
0.0
 10
-11.35
 20
-12.55
 30
0.0
 10
-11.35
 20
-12.59015
 30
0.0
 10
-11.35
 20
-12.59015
 30
0.0
 10
-11.35
 20
-12.59015
 30
0.0
 10
-11.30447
 20
-12.6165
 30
0.0
 10
-11.2665
 20
-12.65447
 30
0.0
 10
-11.24015
 20
-12.7
 30
0.0
 10
-11.24015
 20
-12.7
 30
0.0
 10
-11.24015
 20
-12.7
 30
0.0
 10
-11.2
 20
-12.7
 30
0.0
 10
-11.2
 20
-12.7
 30
0.0
 10
-11.2
 20
-12.7
 30
0.0
 10
-11.2
 20
-12.7
 30
0.0
 10
-11.2
 20
-12.85
 30
0.0
 10
-11.2
 20
-12.85
 30
0.0
 10
-11.2
 20
-12.85
 30
0.0
 10
-11.2
 20
-12.85
 30
0.0
 10
-11.2
 20
-13.0
 30
0.0
 10
-11.2
 20
-13.0
 30
0.0
 10
-11.2
 20
-13.0
 30
0.0
 10
-11.2
 20
-13.0
 30
0.0
 10
-11.24015
 20
-13.0
 30
0.0
 10
-11.24015
 20
-13.0
 30
0.0
 10
-11.24015
 20
-13.0
 30
0.0
 10
-11.2665
 20
-13.04553
 30
0.0
 10
-11.30447
 20
-13.0835
 30
0.0
 10
-11.35
 20
-13.10985
 30
0.0
 10
-11.35
 20
-13.10985
 30
0.0
 10
-11.35
 20
-13.10985
 30
0.0
 10
-11.35
 20
-13.15
 30
0.0
 10
-11.35
 20
-13.15
 30
0.0
 10
-11.35
 20
-13.15
 30
0.0
 10
-11.35
 20
-13.15
 30
0.0
 10
-11.5
 20
-13.15
 30
0.0
 10
-11.5
 20
-13.15
 30
0.0
 10
-11.5
 20
-13.15
 30
0.0
 10
-11.5
 20
-13.15
 30
0.0
 10
-11.65
 20
-13.15
 30
0.0
 10
-11.65
 20
-13.15
 30
0.0
 10
-11.65
 20
-13.15
 30
0.0
 10
-11.65
 20
-13.15
 30
0.0
 10
-11.65
 20
-13.10985
 30
0.0
 10
-11.65
 20
-13.10985
 30
0.0
 10
-11.65
 20
-13.10985
 30
0.0
 10
-11.69553
 20
-13.0835
 30
0.0
 10
-11.7335
 20
-13.04553
 30
0.0
 10
-11.75985
 20
-13.0
 30
0.0
 10
-11.75985
 20
-13.0
 30
0.0
 10
-11.75985
 20
-13.0
 30
0.0
 10
-11.8
 20
-13.0
 30
0.0
 10
-11.8
 20
-13.0
 30
0.0
 10
-11.8
 20
-13.0
 30
0.0
 10
-11.8
 20
-13.0
 30
0.0
 10
-11.8
 20
-12.85
 30
0.0
 10
-11.8
 20
-12.85
 30
0.0
 10
-11.8
 20
-12.85
 30
0.0
 10
-11.8
 20
-12.85
 30
0.0
 10
-11.8
 20
-12.7
 30
0.0
 10
-11.8
 20
-12.7
 30
0.0
  0
SPLINE
  5
7C
330
1F
100
AcDbEntity
  8
Layer 1
370
    53
100
AcDbSpline
210
0.0
220
0.0
230
1.0
 70
    11
 71
     3
 72
    20
 73
    16
 74
     0
 42
0.0000000001
 43
0.0000000001
 40
0.0
 40
0.0
 40
0.0
 40
0.0
 40
0.25
 40
0.25
 40
0.25
 40
0.25
 40
0.5
 40
0.5
 40
0.5
 40
0.5
 40
0.75
 40
0.75
 40
0.75
 40
0.75
 40
1.0
 40
1.0
 40
1.0
 40
1.0
 10
-10.8
 20
-13.0
 30
0.0
 10
-10.8
 20
-13.0
 30
0.0
 10
-10.8
 20
-12.7
 30
0.0
 10
-10.8
 20
-12.7
 30
0.0
 10
-10.8
 20
-12.7
 30
0.0
 10
-10.8
 20
-12.7
 30
0.0
 10
-10.2
 20
-12.7
 30
0.0
 10
-10.2
 20
-12.7
 30
0.0
 10
-10.2
 20
-12.7
 30
0.0
 10
-10.2
 20
-12.7
 30
0.0
 10
-10.2
 20
-13.0
 30
0.0
 10
-10.2
 20
-13.0
 30
0.0
 10
-10.2
 20
-13.0
 30
0.0
 10
-10.2
 20
-13.0
 30
0.0
 10
-10.8
 20
-13.0
 30
0.0
 10
-10.8
 20
-13.0
 30
0.0
  0
SPLINE
  5
7D
330
1F
100
AcDbEntity
  8
Layer 1
370
    53
100
AcDbSpline
210
0.0
220
0.0
230
1.0
 70
    11
 71
     3
 72
    84
 73
    80
 74
     0
 42
0.0000000001
 43
0.0000000001
 40
0.0
 40
0.0
 40
0.0
 40
0.0
 40
0.05
 40
0.05
 40
0.05
 40
0.05
 40
0.1
 40
0.1
 40
0.1
 40
0.1
 40
0.15
 40
0.15
 40
0.15
 40
0.15
 40
0.2
 40
0.2
 40
0.2
 40
0.2
 40
0.25
 40
0.25
 40
0.25
 40
0.25
 40
0.3
 40
0.3
 40
0.3
 40
0.3
 40
0.35
 40
0.35
 40
0.35
 40
0.35
 40
0.4
 40
0.4
 40
0.4
 40
0.4
 40
0.45
 40
0.45
 40
0.45
 40
0.45
 40
0.4999999999999999
 40
0.4999999999999999
 40
0.4999999999999999
 40
0.4999999999999999
 40
0.5499999999999999
 40
0.5499999999999999
 40
0.5499999999999999
 40
0.5499999999999999
 40
0.6
 40
0.6
 40
0.6
 40
0.6
 40
0.65
 40
0.65
 40
0.65
 40
0.65
 40
0.7000000000000001
 40
0.7000000000000001
 40
0.7000000000000001
 40
0.7000000000000001
 40
0.7500000000000001
 40
0.7500000000000001
 40
0.7500000000000001
 40
0.7500000000000001
 40
0.8000000000000002
 40
0.8000000000000002
 40
0.8000000000000002
 40
0.8000000000000002
 40
0.8500000000000002
 40
0.8500000000000002
 40
0.8500000000000002
 40
0.8500000000000002
 40
0.9000000000000002
 40
0.9000000000000002
 40
0.9000000000000002
 40
0.9000000000000002
 40
0.9500000000000003
 40
0.9500000000000003
 40
0.9500000000000003
 40
0.9500000000000003
 40
1.0
 40
1.0
 40
1.0
 40
1.0
 10
-9.8
 20
-12.7
 30
0.0
 10
-9.8
 20
-12.7
 30
0.0
 10
-9.75985
 20
-12.7
 30
0.0
 10
-9.75985
 20
-12.7
 30
0.0
 10
-9.75985
 20
-12.7
 30
0.0
 10
-9.7335
 20
-12.65447
 30
0.0
 10
-9.69553
 20
-12.6165
 30
0.0
 10
-9.65
 20
-12.59015
 30
0.0
 10
-9.65
 20
-12.59015
 30
0.0
 10
-9.65
 20
-12.59015
 30
0.0
 10
-9.65
 20
-12.55
 30
0.0
 10
-9.65
 20
-12.55
 30
0.0
 10
-9.65
 20
-12.55
 30
0.0
 10
-9.65
 20
-12.55
 30
0.0
 10
-9.5
 20
-12.55
 30
0.0
 10
-9.5
 20
-12.55
 30
0.0
 10
-9.5
 20
-12.55
 30
0.0
 10
-9.5
 20
-12.55
 30
0.0
 10
-9.35
 20
-12.55
 30
0.0
 10
-9.35
 20
-12.55
 30
0.0
 10
-9.35
 20
-12.55
 30
0.0
 10
-9.35
 20
-12.55
 30
0.0
 10
-9.35
 20
-12.59015
 30
0.0
 10
-9.35
 20
-12.59015
 30
0.0
 10
-9.35
 20
-12.59015
 30
0.0
 10
-9.30447
 20
-12.6165
 30
0.0
 10
-9.2665
 20
-12.65447
 30
0.0
 10
-9.24015
 20
-12.7
 30
0.0
 10
-9.24015
 20
-12.7
 30
0.0
 10
-9.24015
 20
-12.7
 30
0.0
 10
-9.2
 20
-12.7
 30
0.0
 10
-9.2
 20
-12.7
 30
0.0
 10
-9.2
 20
-12.7
 30
0.0
 10
-9.2
 20
-12.7
 30
0.0
 10
-9.2
 20
-12.85
 30
0.0
 10
-9.2
 20
-12.85
 30
0.0
 10
-9.2
 20
-12.85
 30
0.0
 10
-9.2
 20
-12.85
 30
0.0
 10
-9.2
 20
-13.0
 30
0.0
 10
-9.2
 20
-13.0
 30
0.0
 10
-9.2
 20
-13.0
 30
0.0
 10
-9.2
 20
-13.0
 30
0.0
 10
-9.24015
 20
-13.0
 30
0.0
 10
-9.24015
 20
-13.0
 30
0.0
 10
-9.24015
 20
-13.0
 30
0.0
 10
-9.2665
 20
-13.04553
 30
0.0
 10
-9.30447
 20
-13.0835
 30
0.0
 10
-9.35
 20
-13.10985
 30
0.0
 10
-9.35
 20
-13.10985
 30
0.0
 10
-9.35
 20
-13.10985
 30
0.0
 10
-9.35
 20
-13.15
 30
0.0
 10
-9.35
 20
-13.15
 30
0.0
 10
-9.35
 20
-13.15
 30
0.0
 10
-9.35
 20
-13.15
 30
0.0
 10
-9.5
 20
-13.15
 30
0.0
 10
-9.5
 20
-13.15
 30
0.0
 10
-9.5
 20
-13.15
 30
0.0
 10
-9.5
 20
-13.15
 30
0.0
 10
-9.65
 20
-13.15
 30
0.0
 10
-9.65
 20
-13.15
 30
0.0
 10
-9.65
 20
-13.15
 30
0.0
 10
-9.65
 20
-13.15
 30
0.0
 10
-9.65
 20
-13.10985
 30
0.0
 10
-9.65
 20
-13.10985
 30
0.0
 10
-9.65
 20
-13.10985
 30
0.0
 10
-9.69553
 20
-13.0835
 30
0.0
 10
-9.7335
 20
-13.04553
 30
0.0
 10
-9.75985
 20
-13.0
 30
0.0
 10
-9.75985
 20
-13.0
 30
0.0
 10
-9.75985
 20
-13.0
 30
0.0
 10
-9.8
 20
-13.0
 30
0.0
 10
-9.8
 20
-13.0
 30
0.0
 10
-9.8
 20
-13.0
 30
0.0
 10
-9.8
 20
-13.0
 30
0.0
 10
-9.8
 20
-12.85
 30
0.0
 10
-9.8
 20
-12.85
 30
0.0
 10
-9.8
 20
-12.85
 30
0.0
 10
-9.8
 20
-12.85
 30
0.0
 10
-9.8
 20
-12.7
 30
0.0
 10
-9.8
 20
-12.7
 30
0.0
  0
SPLINE
  5
7E
330
1F
100
AcDbEntity
  8
Layer 1
370
    53
100
AcDbSpline
210
0.0
220
0.0
230
1.0
 70
    11
 71
     3
 72
    20
 73
    16
 74
     0
 42
0.0000000001
 43
0.0000000001
 40
0.0
 40
0.0
 40
0.0
 40
0.0
 40
0.25
 40
0.25
 40
0.25
 40
0.25
 40
0.5
 40
0.5
 40
0.5
 40
0.5
 40
0.75
 40
0.75
 40
0.75
 40
0.75
 40
1.0
 40
1.0
 40
1.0
 40
1.0
 10
-8.8
 20
-13.0
 30
0.0
 10
-8.8
 20
-13.0
 30
0.0
 10
-8.8
 20
-12.7
 30
0.0
 10
-8.8
 20
-12.7
 30
0.0
 10
-8.8
 20
-12.7
 30
0.0
 10
-8.8
 20
-12.7
 30
0.0
 10
-8.2
 20
-12.7
 30
0.0
 10
-8.2
 20
-12.7
 30
0.0
 10
-8.2
 20
-12.7
 30
0.0
 10
-8.2
 20
-12.7
 30
0.0
 10
-8.2
 20
-13.0
 30
0.0
 10
-8.2
 20
-13.0
 30
0.0
 10
-8.2
 20
-13.0
 30
0.0
 10
-8.2
 20
-13.0
 30
0.0
 10
-8.8
 20
-13.0
 30
0.0
 10
-8.8
 20
-13.0
 30
0.0
  0
SPLINE
  5
7F
330
1F
100
AcDbEntity
  8
Layer 1
370
    53
100
AcDbSpline
210
0.0
220
0.0
230
1.0
 70
    11
 71
     3
 72
    84
 73
    80
 74
     0
 42
0.0000000001
 43
0.0000000001
 40
0.0
 40
0.0
 40
0.0
 40
0.0
 40
0.05
 40
0.05
 40
0.05
 40
0.05
 40
0.1
 40
0.1
 40
0.1
 40
0.1
 40
0.15
 40
0.15
 40
0.15
 40
0.15
 40
0.2
 40
0.2
 40
0.2
 40
0.2
 40
0.25
 40
0.25
 40
0.25
 40
0.25
 40
0.3
 40
0.3
 40
0.3
 40
0.3
 40
0.35
 40
0.35
 40
0.35
 40
0.35
 40
0.4
 40
0.4
 40
0.4
 40
0.4
 40
0.45
 40
0.45
 40
0.45
 40
0.45
 40
0.4999999999999999
 40
0.4999999999999999
 40
0.4999999999999999
 40
0.4999999999999999
 40
0.5499999999999999
 40
0.5499999999999999
 40
0.5499999999999999
 40
0.5499999999999999
 40
0.6
 40
0.6
 40
0.6
 40
0.6
 40
0.65
 40
0.65
 40
0.65
 40
0.65
 40
0.7000000000000001
 40
0.7000000000000001
 40
0.7000000000000001
 40
0.7000000000000001
 40
0.7500000000000001
 40
0.7500000000000001
 40
0.7500000000000001
 40
0.7500000000000001
 40
0.8000000000000002
 40
0.8000000000000002
 40
0.8000000000000002
 40
0.8000000000000002
 40
0.8500000000000002
 40
0.8500000000000002
 40
0.8500000000000002
 40
0.8500000000000002
 40
0.9000000000000002
 40
0.9000000000000002
 40
0.9000000000000002
 40
0.9000000000000002
 40
0.9500000000000003
 40
0.9500000000000003
 40
0.9500000000000003
 40
0.9500000000000003
 40
1.0
 40
1.0
 40
1.0
 40
1.0
 10
-7.8
 20
-12.7
 30
0.0
 10
-7.8
 20
-12.7
 30
0.0
 10
-7.75985
 20
-12.7
 30
0.0
 10
-7.75985
 20
-12.7
 30
0.0
 10
-7.75985
 20
-12.7
 30
0.0
 10
-7.7335
 20
-12.65447
 30
0.0
 10
-7.69553
 20
-12.6165
 30
0.0
 10
-7.65
 20
-12.59015
 30
0.0
 10
-7.65
 20
-12.59015
 30
0.0
 10
-7.65
 20
-12.59015
 30
0.0
 10
-7.65
 20
-12.55
 30
0.0
 10
-7.65
 20
-12.55
 30
0.0
 10
-7.65
 20
-12.55
 30
0.0
 10
-7.65
 20
-12.55
 30
0.0
 10
-7.5
 20
-12.55
 30
0.0
 10
-7.5
 20
-12.55
 30
0.0
 10
-7.5
 20
-12.55
 30
0.0
 10
-7.5
 20
-12.55
 30
0.0
 10
-7.35
 20
-12.55
 30
0.0
 10
-7.35
 20
-12.55
 30
0.0
 10
-7.35
 20
-12.55
 30
0.0
 10
-7.35
 20
-12.55
 30
0.0
 10
-7.35
 20
-12.59015
 30
0.0
 10
-7.35
 20
-12.59015
 30
0.0
 10
-7.35
 20
-12.59015
 30
0.0
 10
-7.30447
 20
-12.6165
 30
0.0
 10
-7.2665
 20
-12.65447
 30
0.0
 10
-7.24015
 20
-12.7
 30
0.0
 10
-7.24015
 20
-12.7
 30
0.0
 10
-7.24015
 20
-12.7
 30
0.0
 10
-7.2
 20
-12.7
 30
0.0
 10
-7.2
 20
-12.7
 30
0.0
 10
-7.2
 20
-12.7
 30
0.0
 10
-7.2
 20
-12.7
 30
0.0
 10
-7.2
 20
-12.85
 30
0.0
 10
-7.2
 20
-12.85
 30
0.0
 10
-7.2
 20
-12.85
 30
0.0
 10
-7.2
 20
-12.85
 30
0.0
 10
-7.2
 20
-13.0
 30
0.0
 10
-7.2
 20
-13.0
 30
0.0
 10
-7.2
 20
-13.0
 30
0.0
 10
-7.2
 20
-13.0
 30
0.0
 10
-7.24015
 20
-13.0
 30
0.0
 10
-7.24015
 20
-13.0
 30
0.0
 10
-7.24015
 20
-13.0
 30
0.0
 10
-7.2665
 20
-13.04553
 30
0.0
 10
-7.30447
 20
-13.0835
 30
0.0
 10
-7.35
 20
-13.10985
 30
0.0
 10
-7.35
 20
-13.10985
 30
0.0
 10
-7.35
 20
-13.10985
 30
0.0
 10
-7.35
 20
-13.15
 30
0.0
 10
-7.35
 20
-13.15
 30
0.0
 10
-7.35
 20
-13.15
 30
0.0
 10
-7.35
 20
-13.15
 30
0.0
 10
-7.5
 20
-13.15
 30
0.0
 10
-7.5
 20
-13.15
 30
0.0
 10
-7.5
 20
-13.15
 30
0.0
 10
-7.5
 20
-13.15
 30
0.0
 10
-7.65
 20
-13.15
 30
0.0
 10
-7.65
 20
-13.15
 30
0.0
 10
-7.65
 20
-13.15
 30
0.0
 10
-7.65
 20
-13.15
 30
0.0
 10
-7.65
 20
-13.10985
 30
0.0
 10
-7.65
 20
-13.10985
 30
0.0
 10
-7.65
 20
-13.10985
 30
0.0
 10
-7.69553
 20
-13.0835
 30
0.0
 10
-7.7335
 20
-13.04553
 30
0.0
 10
-7.75985
 20
-13.0
 30
0.0
 10
-7.75985
 20
-13.0
 30
0.0
 10
-7.75985
 20
-13.0
 30
0.0
 10
-7.8
 20
-13.0
 30
0.0
 10
-7.8
 20
-13.0
 30
0.0
 10
-7.8
 20
-13.0
 30
0.0
 10
-7.8
 20
-13.0
 30
0.0
 10
-7.8
 20
-12.85
 30
0.0
 10
-7.8
 20
-12.85
 30
0.0
 10
-7.8
 20
-12.85
 30
0.0
 10
-7.8
 20
-12.85
 30
0.0
 10
-7.8
 20
-12.7
 30
0.0
 10
-7.8
 20
-12.7
 30
0.0
  0
SPLINE
  5
80
330
1F
100
AcDbEntity
  8
Layer 1
370
    53
100
AcDbSpline
210
0.0
220
0.0
230
1.0
 70
    11
 71
     3
 72
    20
 73
    16
 74
     0
 42
0.0000000001
 43
0.0000000001
 40
0.0
 40
0.0
 40
0.0
 40
0.0
 40
0.25
 40
0.25
 40
0.25
 40
0.25
 40
0.5
 40
0.5
 40
0.5
 40
0.5
 40
0.75
 40
0.75
 40
0.75
 40
0.75
 40
1.0
 40
1.0
 40
1.0
 40
1.0
 10
-6.8
 20
-13.0
 30
0.0
 10
-6.8
 20
-13.0
 30
0.0
 10
-6.8
 20
-12.7
 30
0.0
 10
-6.8
 20
-12.7
 30
0.0
 10
-6.8
 20
-12.7
 30
0.0
 10
-6.8
 20
-12.7
 30
0.0
 10
-6.2
 20
-12.7
 30
0.0
 10
-6.2
 20
-12.7
 30
0.0
 10
-6.2
 20
-12.7
 30
0.0
 10
-6.2
 20
-12.7
 30
0.0
 10
-6.2
 20
-13.0
 30
0.0
 10
-6.2
 20
-13.0
 30
0.0
 10
-6.2
 20
-13.0
 30
0.0
 10
-6.2
 20
-13.0
 30
0.0
 10
-6.8
 20
-13.0
 30
0.0
 10
-6.8
 20
-13.0
 30
0.0
  0
ENDSEC
  0
SECTION
  2
OBJECTS
  0
DICTIONARY
  5
C
330
0
100
AcDbDictionary
281
     1
  3
ACAD_GROUP
350
D
  3
ACAD_LAYOUT
350
1A
  3
ACAD_MLEADERSTYLE
350
82
  3
ACAD_MLINESTYLE
350
17
  3
ACAD_PLOTSETTINGS
350
19
  3
ACAD_PLOTSTYLENAME
350
E
  3
ACAD_SCALELIST
350
3B
  3
ACAD_TABLESTYLE
350
81
  3
ACAD_VISUALSTYLE
350
2A
  0
DICTIONARY
  5
D
102
{ACAD_REACTORS
330
C
102
}
330
C
100
AcDbDictionary
281
     1
  0
DICTIONARY
  5
1A
102
{ACAD_REACTORS
330
C
102
}
330
C
100
AcDbDictionary
281
     1
  3
Layout1
350
1E
  3
Layout2
350
26
  3
Model
350
22
  0
DICTIONARY
  5
82
102
{ACAD_REACTORS
330
C
102
}
330
C
100
AcDbDictionary
281
     1
  0
DICTIONARY
  5
17
102
{ACAD_REACTORS
330
C
102
}
330
C
100
AcDbDictionary
281
     1
  3
Standard
350
18
  0
DICTIONARY
  5
19
102
{ACAD_REACTORS
330
C
102
}
330
C
100
AcDbDictionary
281
     1
  0
ACDBDICTIONARYWDFLT
  5
E
102
{ACAD_REACTORS
330
C
102
}
330
C
100
AcDbDictionary
281
     1
  3
Normal
350
F
100
AcDbDictionaryWithDefault
340
F
  0
DICTIONARY
  5
3B
102
{ACAD_REACTORS
330
C
102
}
330
C
100
AcDbDictionary
281
     1
  3
A0
350
3C
  3
A1
350
3D
  3
A2
350
3E
  3
A3
350
3F
  3
A4
350
40
  3
A5
350
41
  3
A6
350
42
  3
A7
350
43
  3
A8
350
44
  3
A9
350
45
  3
B0
350
46
  3
B1
350
47
  3
B2
350
48
  3
B3
350
49
  3
B4
350
4A
  3
B5
350
4B
  3
B6
350
4C
  3
B7
350
4D
  3
B8
350
4E
  3
B9
350
4F
  3
C0
350
50
  3
C1
350
51
  3
C2
350
52
  3
C3
350
53
  3
C4
350
54
  3
C5
350
55
  3
C6
350
56
  3
C7
350
57
  3
C8
350
58
  3
C9
350
59
  3
D0
350
5A
  3
D1
350
5B
  3
D2
350
5C
  0
DICTIONARY
  5
81
102
{ACAD_REACTORS
330
C
102
}
330
C
100
AcDbDictionary
281
     1
  0
DICTIONARY
  5
2A
102
{ACAD_REACTORS
330
C
102
}
330
C
100
AcDbDictionary
281
     1
  3
2dWireframe
350
2F
  3
3D Hidden
350
31
  3
3dWireframe
350
30
  3
Basic
350
32
  3
Brighten
350
36
  3
ColorChange
350
3A
  3
Conceptual
350
34
  3
Dim
350
35
  3
Facepattern
350
39
  3
Flat
350
2B
  3
FlatWithEdges
350
2C
  3
Gouraud
350
2D
  3
GouraudWithEdges
350
2E
  3
Linepattern
350
38
  3
Realistic
350
33
  3
Thicken
350
37
  0
LAYOUT
  5
1E
102
{ACAD_REACTORS
330
1A
102
}
330
1A
100
AcDbPlotSettings
  1

  2
none_device
  4

  6

 40
0.0
 41
0.0
 42
0.0
 43
0.0
 44
0.0
 45
0.0
 46
0.0
 47
0.0
 48
0.0
 49
0.0
140
0.0
141
0.0
142
1.0
143
1.0
 70
   688
 72
     0
 73
     0
 74
     5
  7

 75
    16
 76
     0
 77
     2
 78
   300
147
1.0
148
0.0
149
0.0
100
AcDbLayout
  1
Layout1
 70
     1
 71
     1
 10
0.0
 20
0.0
 11
12.0
 21
9.0
 12
0.0
 22
0.0
 32
0.0
 14
1.000000000000000E+20
 24
1.000000000000000E+20
 34
1.000000000000000E+20
 15
-1.000000000000000E+20
 25
-1.000000000000000E+20
 35
-1.000000000000000E+20
146
0.0
 13
0.0
 23
0.0
 33
0.0
 16
1.0
 26
0.0
 36
0.0
 17
0.0
 27
1.0
 37
0.0
 76
     0
330
1B
  0
LAYOUT
  5
26
102
{ACAD_REACTORS
330
1A
102
}
330
1A
100
AcDbPlotSettings
  1

  2
none_device
  4

  6

 40
0.0
 41
0.0
 42
0.0
 43
0.0
 44
0.0
 45
0.0
 46
0.0
 47
0.0
 48
0.0
 49
0.0
140
0.0
141
0.0
142
1.0
143
1.0
 70
   688
 72
     0
 73
     0
 74
     5
  7

 75
    16
 76
     0
 77
     2
 78
   300
147
1.0
148
0.0
149
0.0
100
AcDbLayout
  1
Layout2
 70
     1
 71
     2
 10
0.0
 20
0.0
 11
0.0
 21
0.0
 12
0.0
 22
0.0
 32
0.0
 14
0.0
 24
0.0
 34
0.0
 15
0.0
 25
0.0
 35
0.0
146
0.0
 13
0.0
 23
0.0
 33
0.0
 16
1.0
 26
0.0
 36
0.0
 17
0.0
 27
1.0
 37
0.0
 76
     0
330
23
  0
LAYOUT
  5
22
102
{ACAD_REACTORS
330
1A
102
}
330
1A
100
AcDbPlotSettings
  1

  2
none_device
  4

  6

 40
0.0
 41
0.0
 42
0.0
 43
0.0
 44
0.0
 45
0.0
 46
0.0
 47
0.0
 48
0.0
 49
0.0
140
0.0
141
0.0
142
1.0
143
1.0
 70
  1712
 72
     0
 73
     0
 74
     0
  7

 75
     0
 76
     0
 77
     2
 78
   300
147
1.0
148
0.0
149
0.0
100
AcDbLayout
  1
Model
 70
     1
 71
     0
 10
0.0
 20
0.0
 11
12.0
 21
9.0
 12
0.0
 22
0.0
 32
0.0
 14
-16.17646
 24
-17.52646
 34
0.0
 15
-4.82354
 25
-12.17354
 35
0.0
146
0.0
 13
0.0
 23
0.0
 33
0.0
 16
1.0
 26
0.0
 36
0.0
 17
0.0
 27
1.0
 37
0.0
 76
     0
330
1F
331
29
  0
MLINESTYLE
  5
18
102
{ACAD_REACTORS
330
17
102
}
330
17
100
AcDbMlineStyle
  2
Standard
 70
     0
  3

 62
   256
 51
90.0
 52
90.0
 71
     2
 49
0.5
 62
   256
  6
BYLAYER
 49
-0.5
 62
   256
  6
BYLAYER
  0
ACDBPLACEHOLDER
  5
F
102
{ACAD_REACTORS
330
E
102
}
330
E
  0
SCALE
  5
3C
102
{ACAD_REACTORS
330
3B
102
}
330
3B
100
AcDbScale
 70
     0
300
1:1
140
1.0
141
1.0
290
     1
  0
SCALE
  5
3D
102
{ACAD_REACTORS
330
3B
102
}
330
3B
100
AcDbScale
 70
     0
300
1:2
140
1.0
141
2.0
290
     0
  0
SCALE
  5
3E
102
{ACAD_REACTORS
330
3B
102
}
330
3B
100
AcDbScale
 70
     0
300
1:4
140
1.0
141
4.0
290
     0
  0
SCALE
  5
3F
102
{ACAD_REACTORS
330
3B
102
}
330
3B
100
AcDbScale
 70
     0
300
1:5
140
1.0
141
5.0
290
     0
  0
SCALE
  5
40
102
{ACAD_REACTORS
330
3B
102
}
330
3B
100
AcDbScale
 70
     0
300
1:8
140
1.0
141
8.0
290
     0
  0
SCALE
  5
41
102
{ACAD_REACTORS
330
3B
102
}
330
3B
100
AcDbScale
 70
     0
300
1:10
140
1.0
141
10.0
290
     0
  0
SCALE
  5
42
102
{ACAD_REACTORS
330
3B
102
}
330
3B
100
AcDbScale
 70
     0
300
1:16
140
1.0
141
16.0
290
     0
  0
SCALE
  5
43
102
{ACAD_REACTORS
330
3B
102
}
330
3B
100
AcDbScale
 70
     0
300
1:20
140
1.0
141
20.0
290
     0
  0
SCALE
  5
44
102
{ACAD_REACTORS
330
3B
102
}
330
3B
100
AcDbScale
 70
     0
300
1:30
140
1.0
141
30.0
290
     0
  0
SCALE
  5
45
102
{ACAD_REACTORS
330
3B
102
}
330
3B
100
AcDbScale
 70
     0
300
1:40
140
1.0
141
40.0
290
     0
  0
SCALE
  5
46
102
{ACAD_REACTORS
330
3B
102
}
330
3B
100
AcDbScale
 70
     0
300
1:50
140
1.0
141
50.0
290
     0
  0
SCALE
  5
47
102
{ACAD_REACTORS
330
3B
102
}
330
3B
100
AcDbScale
 70
     0
300
1:100
140
1.0
141
100.0
290
     0
  0
SCALE
  5
48
102
{ACAD_REACTORS
330
3B
102
}
330
3B
100
AcDbScale
 70
     0
300
2:1
140
2.0
141
1.0
290
     0
  0
SCALE
  5
49
102
{ACAD_REACTORS
330
3B
102
}
330
3B
100
AcDbScale
 70
     0
300
4:1
140
4.0
141
1.0
290
     0
  0
SCALE
  5
4A
102
{ACAD_REACTORS
330
3B
102
}
330
3B
100
AcDbScale
 70
     0
300
8:1
140
8.0
141
1.0
290
     0
  0
SCALE
  5
4B
102
{ACAD_REACTORS
330
3B
102
}
330
3B
100
AcDbScale
 70
     0
300
10:1
140
10.0
141
1.0
290
     0
  0
SCALE
  5
4C
102
{ACAD_REACTORS
330
3B
102
}
330
3B
100
AcDbScale
 70
     0
300
100:1
140
100.0
141
1.0
290
     0
  0
SCALE
  5
4D
102
{ACAD_REACTORS
330
3B
102
}
330
3B
100
AcDbScale
 70
     0
300
1/128" = 1'-0"
140
0.0078125
141
12.0
290
     0
  0
SCALE
  5
4E
102
{ACAD_REACTORS
330
3B
102
}
330
3B
100
AcDbScale
 70
     0
300
1/64" = 1'-0"
140
0.015625
141
12.0
290
     0
  0
SCALE
  5
4F
102
{ACAD_REACTORS
330
3B
102
}
330
3B
100
AcDbScale
 70
     0
300
1/32" = 1'-0"
140
0.03125
141
12.0
290
     0
  0
SCALE
  5
50
102
{ACAD_REACTORS
330
3B
102
}
330
3B
100
AcDbScale
 70
     0
300
1/16" = 1'-0"
140
0.0625
141
12.0
290
     0
  0
SCALE
  5
51
102
{ACAD_REACTORS
330
3B
102
}
330
3B
100
AcDbScale
 70
     0
300
3/32" = 1'-0"
140
0.09375
141
12.0
290
     0
  0
SCALE
  5
52
102
{ACAD_REACTORS
330
3B
102
}
330
3B
100
AcDbScale
 70
     0
300
1/8" = 1'-0"
140
0.125
141
12.0
290
     0
  0
SCALE
  5
53
102
{ACAD_REACTORS
330
3B
102
}
330
3B
100
AcDbScale
 70
     0
300
3/16" = 1'-0"
140
0.1875
141
12.0
290
     0
  0
SCALE
  5
54
102
{ACAD_REACTORS
330
3B
102
}
330
3B
100
AcDbScale
 70
     0
300
1/4" = 1'-0"
140
0.25
141
12.0
290
     0
  0
SCALE
  5
55
102
{ACAD_REACTORS
330
3B
102
}
330
3B
100
AcDbScale
 70
     0
300
3/8" = 1'-0"
140
0.375
141
12.0
290
     0
  0
SCALE
  5
56
102
{ACAD_REACTORS
330
3B
102
}
330
3B
100
AcDbScale
 70
     0
300
1/2" = 1'-0"
140
0.5
141
12.0
290
     0
  0
SCALE
  5
57
102
{ACAD_REACTORS
330
3B
102
}
330
3B
100
AcDbScale
 70
     0
300
3/4" = 1'-0"
140
0.75
141
12.0
290
     0
  0
SCALE
  5
58
102
{ACAD_REACTORS
330
3B
102
}
330
3B
100
AcDbScale
 70
     0
300
1" = 1'-0"
140
1.0
141
12.0
290
     0
  0
SCALE
  5
59
102
{ACAD_REACTORS
330
3B
102
}
330
3B
100
AcDbScale
 70
     0
300
1-1/2" = 1'-0"
140
1.5
141
12.0
290
     0
  0
SCALE
  5
5A
102
{ACAD_REACTORS
330
3B
102
}
330
3B
100
AcDbScale
 70
     0
300
3" = 1'-0"
140
3.0
141
12.0
290
     0
  0
SCALE
  5
5B
102
{ACAD_REACTORS
330
3B
102
}
330
3B
100
AcDbScale
 70
     0
300
6" = 1'-0"
140
6.0
141
12.0
290
     0
  0
SCALE
  5
5C
102
{ACAD_REACTORS
330
3B
102
}
330
3B
100
AcDbScale
 70
     0
300
1'-0" = 1'-0"
140
12.0
141
12.0
290
     0
  0
VISUALSTYLE
  5
2F
102
{ACAD_REACTORS
330
2A
102
}
330
2A
100
AcDbVisualStyle
  2
2dWireframe
 70
     4
 71
     0
 72
     2
 73
     0
 90
        0
 40
-0.6
 41
-30.0
 62
     5
 63
     7
421
 16777215
 74
     1
 91
        4
 64
     7
 65
   257
 75
     1
175
     1
 42
1.0
 92
        0
 66
   257
 43
1.0
 76
     1
 77
     6
 78
     2
 67
     7
 79
     5
170
     0
171
     0
290
     0
174
     0
 93
        1
 44
0.0
173
     0
291
     0
 45
0.0
  0
VISUALSTYLE
  5
31
102
{ACAD_REACTORS
330
2A
102
}
330
2A
100
AcDbVisualStyle
  2
3D Hidden
 70
     6
 71
     1
 72
     2
 73
     2
 90
        0
 40
-0.6
 41
-30.0
 62
     5
 63
     7
421
 16777215
 74
     2
 91
        2
 64
     7
 65
   257
 75
     2
175
     1
 42
40.0
 92
        0
 66
   257
 43
1.0
 76
     1
 77
     6
 78
     2
 67
     7
 79
     3
170
     0
171
     0
290
     0
174
     0
 93
        1
 44
0.0
173
     0
291
     0
 45
0.0
  0
VISUALSTYLE
  5
30
102
{ACAD_REACTORS
330
2A
102
}
330
2A
100
AcDbVisualStyle
  2
3dWireframe
 70
     5
 71
     0
 72
     2
 73
     0
 90
        0
 40
-0.6
 41
-30.0
 62
     5
 63
     7
421
 16777215
 74
     1
 91
        4
 64
     7
 65
   257
 75
     1
175
     1
 42
1.0
 92
        0
 66
   257
 43
1.0
 76
     1
 77
     6
 78
     2
 67
     7
 79
     5
170
     0
171
     0
290
     0
174
     0
 93
        1
 44
0.0
173
     0
291
     0
 45
0.0
  0
VISUALSTYLE
  5
32
102
{ACAD_REACTORS
330
2A
102
}
330
2A
100
AcDbVisualStyle
  2
Basic
 70
     7
 71
     1
 72
     0
 73
     1
 90
        0
 40
-0.6
 41
-30.0
 62
     5
 63
     7
421
 16777215
 74
     0
 91
        4
 64
     7
 65
   257
 75
     1
175
     1
 42
1.0
 92
        8
 66
     7
 43
1.0
 76
     1
 77
     6
 78
     2
 67
     7
 79
     5
170
     0
171
     0
290
     0
174
     0
 93
        1
 44
0.0
173
     0
291
     1
 45
0.0
  0
VISUALSTYLE
  5
36
102
{ACAD_REACTORS
330
2A
102
}
330
2A
100
AcDbVisualStyle
  2
Brighten
 70
    12
 71
     2
 72
     2
 73
     0
 90
        0
 40
-0.6
 41
-30.0
 62
     5
 63
     7
421
 16777215
 74
     1
 91
        4
 64
     7
 65
   257
 75
     1
175
     1
 42
1.0
 92
        8
 66
     7
 43
1.0
 76
     1
 77
     6
 78
     2
 67
     7
 79
     5
170
     0
171
     0
290
     0
174
     0
 93
        1
 44
50.0
173
     0
291
     1
 45
0.0
  0
VISUALSTYLE
  5
3A
102
{ACAD_REACTORS
330
2A
102
}
330
2A
100
AcDbVisualStyle
  2
ColorChange
 70
    16
 71
     2
 72
     2
 73
     3
 90
        0
 40
-0.6
 41
-30.0
 62
     5
 63
     8
421
  8421504
 74
     1
 91
        4
 64
     7
 65
   257
 75
     1
175
     1
 42
1.0
 92
        8
 66
     8
424
  8421504
 43
1.0
 76
     1
 77
     6
 78
     2
 67
     7
 79
     5
170
     0
171
     0
290
     0
174
     0
 93
        1
 44
0.0
173
     0
291
     1
 45
0.0
  0
VISUALSTYLE
  5
34
102
{ACAD_REACTORS
330
2A
102
}
330
2A
100
AcDbVisualStyle
  2
Conceptual
 70
     9
 71
     3
 72
     2
 73
     0
 90
        0
 40
-0.6
 41
-30.0
 62
     5
 63
     7
421
 16777215
 74
     2
 91
        2
 64
     7
 65
   257
 75
     1
175
     1
 42
40.0
 92
        8
 66
     7
 43
1.0
 76
     1
 77
     6
 78
     2
 67
     7
 79
     3
170
     0
171
     0
290
     0
174
     0
 93
        1
 44
0.0
173
     0
291
     0
 45
0.0
  0
VISUALSTYLE
  5
35
102
{ACAD_REACTORS
330
2A
102
}
330
2A
100
AcDbVisualStyle
  2
Dim
 70
    11
 71
     2
 72
     2
 73
     0
 90
        0
 40
-0.6
 41
-30.0
 62
     5
 63
     7
421
 16777215
 74
     1
 91
        4
 64
     7
 65
   257
 75
     1
175
     1
 42
1.0
 92
        8
 66
     7
 43
1.0
 76
     1
 77
     6
 78
     2
 67
     7
 79
     5
170
     0
171
     0
290
     0
174
     0
 93
        1
 44
-50.0
173
     0
291
     1
 45
0.0
  0
VISUALSTYLE
  5
39
102
{ACAD_REACTORS
330
2A
102
}
330
2A
100
AcDbVisualStyle
  2
Facepattern
 70
    15
 71
     2
 72
     2
 73
     0
 90
        0
 40
-0.6
 41
-30.0
 62
     5
 63
     7
421
 16777215
 74
     1
 91
        4
 64
     7
 65
   257
 75
     1
175
     1
 42
1.0
 92
        8
 66
     7
 43
1.0
 76
     1
 77
     6
 78
     2
 67
     7
 79
     5
170
     0
171
     0
290
     0
174
     0
 93
        1
 44
0.0
173
     0
291
     1
 45
0.0
  0
VISUALSTYLE
  5
2B
102
{ACAD_REACTORS
330
2A
102
}
330
2A
100
AcDbVisualStyle
  2
Flat
 70
     0
 71
     2
 72
     1
 73
     1
 90
        2
 40
-0.6
 41
30.0
 62
     5
 63
     7
421
 16777215
 74
     0
 91
        4
 64
     7
 65
   257
 75
     1
175
     1
 42
1.0
 92
        8
 66
     7
 43
1.0
 76
     1
 77
     6
 78
     2
 67
     7
 79
     5
170
     0
171
     0
290
     0
174
     0
 93
       13
 44
0.0
173
     0
291
     1
 45
0.0
  0
VISUALSTYLE
  5
2C
102
{ACAD_REACTORS
330
2A
102
}
330
2A
100
AcDbVisualStyle
  2
FlatWithEdges
 70
     1
 71
     2
 72
     1
 73
     1
 90
        2
 40
-0.6
 41
30.0
 62
     5
 63
     7
421
 16777215
 74
     1
 91
        4
 64
     7
 65
   257
 75
     1
175
     1
 42
1.0
 92
        0
 66
   257
 43
1.0
 76
     1
 77
     6
 78
     2
 67
     7
 79
     5
170
     0
171
     0
290
     0
174
     0
 93
       13
 44
0.0
173
     0
291
     1
 45
0.0
  0
VISUALSTYLE
  5
2D
102
{ACAD_REACTORS
330
2A
102
}
330
2A
100
AcDbVisualStyle
  2
Gouraud
 70
     2
 71
     2
 72
     2
 73
     1
 90
        2
 40
-0.6
 41
30.0
 62
     5
 63
     7
421
 16777215
 74
     0
 91
        4
 64
     7
 65
   257
 75
     1
175
     1
 42
1.0
 92
        0
 66
     7
 43
1.0
 76
     1
 77
     6
 78
     2
 67
     7
 79
     5
170
     0
171
     0
290
     0
174
     0
 93
       13
 44
0.0
173
     0
291
     1
 45
0.0
  0
VISUALSTYLE
  5
2E
102
{ACAD_REACTORS
330
2A
102
}
330
2A
100
AcDbVisualStyle
  2
GouraudWithEdges
 70
     3
 71
     2
 72
     2
 73
     1
 90
        2
 40
-0.6
 41
30.0
 62
     5
 63
     7
421
 16777215
 74
     1
 91
        4
 64
     7
 65
   257
 75
     1
175
     1
 42
1.0
 92
        0
 66
   257
 43
1.0
 76
     1
 77
     6
 78
     2
 67
     7
 79
     5
170
     0
171
     0
290
     0
174
     0
 93
       13
 44
0.0
173
     0
291
     1
 45
0.0
  0
VISUALSTYLE
  5
38
102
{ACAD_REACTORS
330
2A
102
}
330
2A
100
AcDbVisualStyle
  2
Linepattern
 70
    14
 71
     2
 72
     2
 73
     0
 90
        0
 40
-0.6
 41
-30.0
 62
     5
 63
     7
421
 16777215
 74
     1
 91
        4
 64
     7
 65
   257
 75
     7
175
     7
 42
1.0
 92
        8
 66
     7
 43
1.0
 76
     1
 77
     6
 78
     2
 67
     7
 79
     5
170
     0
171
     0
290
     0
174
     0
 93
        1
 44
0.0
173
     0
291
     1
 45
0.0
  0
VISUALSTYLE
  5
33
102
{ACAD_REACTORS
330
2A
102
}
330
2A
100
AcDbVisualStyle
  2
Realistic
 70
     8
 71
     2
 72
     2
 73
     0
 90
        0
 40
-0.6
 41
-30.0
 62
     5
 63
     7
421
 16777215
 74
     1
 91
        0
 64
     7
 65
   257
 75
     1
175
     1
 42
1.0
 92
        8
 66
     8
424
  7895160
 43
1.0
 76
     1
 77
     6
 78
     2
 67
     7
 79
     5
170
     0
171
     0
290
     0
174
     0
 93
       13
 44
0.0
173
     0
291
     0
 45
0.0
  0
VISUALSTYLE
  5
37
102
{ACAD_REACTORS
330
2A
102
}
330
2A
100
AcDbVisualStyle
  2
Thicken
 70
    13
 71
     2
 72
     2
 73
     0
 90
        0
 40
-0.6
 41
-30.0
 62
     5
 63
     7
421
 16777215
 74
     1
 91
        4
 64
     7
 65
   257
 75
     1
175
     1
 42
1.0
 92
       12
 66
     7
 43
1.0
 76
     1
 77
     6
 78
     2
 67
     7
 79
     5
170
     0
171
     0
290
     0
174
     0
 93
        1
 44
0.0
173
     0
291
     1
 45
0.0
  0
ENDSEC
  0
EOF
