<?xml version="1.0" standalone="no"?>
<!DOCTYPE svg PUBLIC "-//W3C//DTD SVG 1.1//EN" "http://www.w3.org/Graphics/SVG/1.1/DTD/svg11.dtd">
<svg width="162mm" height="162mm" viewBox="-81 -81 162 162" xmlns="http://www.w3.org/2000/svg" version="1.1">
<title>OpenSCAD Model</title>
<path d="
M 10.5726,80.307 L 20.9643,78.24 L 27.2179,76.1172 L 27.1022,75.7765 L 27.0257,75.3916 L 27,75
 L 27.0257,74.6084 L 27.1022,74.2235 L 27.2283,73.8519 L 27.4019,73.5 L 27.6199,73.1737 L 27.8787,72.8787
 L 28.1737,72.6199 L 28.5,72.4019 L 28.8519,72.2284 L 29.2235,72.1022 L 29.6084,72.0257 L 30,72
 L 30.3916,72.0257 L 30.7764,72.1022 L 31.148,72.2284 L 31.5,72.4019 L 31.8263,72.6199 L 32.1213,72.8787
 L 32.3801,73.1737 L 32.5981,73.5 L 32.7716,73.8519 L 32.8028,73.9439 L 40.5,70.1481 L 49.3097,64.2616
 L 57.2757,57.2757 L 64.2616,49.3097 L 70.1481,40.5 L 73.9439,32.8028 L 73.8519,32.7716 L 73.5,32.5981
 L 73.1737,32.3801 L 72.8787,32.1213 L 72.6199,31.8263 L 72.4019,31.5 L 72.2284,31.148 L 72.1022,30.7764
 L 72.0257,30.3916 L 72,30 L 72.0257,29.6084 L 72.1022,29.2235 L 72.2284,28.8519 L 72.4019,28.5
 L 72.6199,28.1737 L 72.8787,27.8787 L 73.1737,27.6199 L 73.5,27.4019 L 73.8519,27.2283 L 74.2235,27.1022
 L 74.6084,27.0257 L 75,27 L 75.3916,27.0257 L 75.7765,27.1022 L 76.1172,27.2179 L 78.24,20.9643
 L 80.307,10.5726 L 81,-0 L 80.307,-10.5726 L 78.24,-20.9643 L 76.1172,-27.2179 L 75.7765,-27.1022
 L 75.3916,-27.0257 L 75,-27 L 74.6084,-27.0257 L 74.2235,-27.1022 L 73.8519,-27.2283 L 73.5,-27.4019
 L 73.1737,-27.6199 L 72.8787,-27.8787 L 72.6199,-28.1737 L 72.4019,-28.5 L 72.2284,-28.8519 L 72.1022,-29.2235
 L 72.0257,-29.6084 L 72,-30 L 72.0257,-30.3916 L 72.1022,-30.7764 L 72.2284,-31.148 L 72.4019,-31.5
 L 72.6199,-31.8263 L 72.8787,-32.1213 L 73.1737,-32.3801 L 73.5,-32.5981 L 73.8519,-32.7716 L 73.9439,-32.8028
 L 70.1481,-40.5 L 64.2616,-49.3097 L 57.2757,-57.2757 L 49.3097,-64.2616 L 40.5,-70.1481 L 32.8028,-73.9439
 L 32.7716,-73.8519 L 32.5981,-73.5 L 32.3801,-73.1737 L 32.1213,-72.8787 L 31.8263,-72.6199 L 31.5,-72.4019
 L 31.148,-72.2284 L 30.7764,-72.1022 L 30.3916,-72.0257 L 30,-72 L 29.6084,-72.0257 L 29.2235,-72.1022
 L 28.8519,-72.2284 L 28.5,-72.4019 L 28.1737,-72.6199 L 27.8787,-72.8787 L 27.6199,-73.1737 L 27.4019,-73.5
 L 27.2283,-73.8519 L 27.1022,-74.2235 L 27.0257,-74.6084 L 27,-75 L 27.0257,-75.3916 L 27.1022,-75.7765
 L 27.2179,-76.1172 L 20.9643,-78.24 L 10.5726,-80.307 L 0,-81 L -10.5726,-80.307 L -20.9643,-78.24
 L -27.2179,-76.1172 L -27.1022,-75.7765 L -27.0257,-75.3916 L -27,-75 L -27.0257,-74.6084 L -27.1022,-74.2235
 L -27.2283,-73.8519 L -27.4019,-73.5 L -27.6199,-73.1737 L -27.8787,-72.8787 L -28.1737,-72.6199 L -28.5,-72.4019
 L -28.8519,-72.2284 L -29.2235,-72.1022 L -29.6084,-72.0257 L -30,-72 L -30.3916,-72.0257 L -30.7764,-72.1022
 L -31.148,-72.2284 L -31.5,-72.4019 L -31.8263,-72.6199 L -32.1213,-72.8787 L -32.3801,-73.1737 L -32.5981,-73.5
 L -32.7716,-73.8519 L -32.8028,-73.9439 L -40.5,-70.1481 L -49.3097,-64.2616 L -57.2757,-57.2757 L -64.2616,-49.3097
 L -70.1481,-40.5 L -73.9439,-32.8028 L -73.8519,-32.7716 L -73.5,-32.5981 L -73.1737,-32.3801 L -72.8787,-32.1213
 L -72.6199,-31.8263 L -72.4019,-31.5 L -72.2284,-31.148 L -72.1022,-30.7764 L -72.0257,-30.3916 L -72,-30
 L -72.0257,-29.6084 L -72.1022,-29.2235 L -72.2284,-28.8519 L -72.4019,-28.5 L -72.6199,-28.1737 L -72.8787,-27.8787
 L -73.1737,-27.6199 L -73.5,-27.4019 L -73.8519,-27.2283 L -74.2235,-27.1022 L -74.6084,-27.0257 L -75,-27
 L -75.3916,-27.0257 L -75.7765,-27.1022 L -76.1172,-27.2179 L -78.24,-20.9643 L -80.307,-10.5726 L -81,-0
 L -80.307,10.5726 L -78.24,20.9643 L -76.1172,27.2179 L -75.7765,27.1022 L -75.3916,27.0257 L -75,27
 L -74.6084,27.0257 L -74.2235,27.1022 L -73.8519,27.2283 L -73.5,27.4019 L -73.1737,27.6199 L -72.8787,27.8787
 L -72.6199,28.1737 L -72.4019,28.5 L -72.2284,28.8519 L -72.1022,29.2235 L -72.0257,29.6084 L -72,30
 L -72.0257,30.3916 L -72.1022,30.7764 L -72.2284,31.148 L -72.4019,31.5 L -72.6199,31.8263 L -72.8787,32.1213
 L -73.1737,32.3801 L -73.5,32.5981 L -73.8519,32.7716 L -73.9439,32.8028 L -70.1481,40.5 L -64.2616,49.3097
 L -57.2757,57.2757 L -49.3097,64.2616 L -40.5,70.1481 L -32.8028,73.9439 L -32.7716,73.8519 L -32.5981,73.5
 L -32.3801,73.1737 L -32.1213,72.8787 L -31.8263,72.6199 L -31.5,72.4019 L -31.148,72.2284 L -30.7764,72.1022
 L -30.3916,72.0257 L -30,72 L -29.6084,72.0257 L -29.2235,72.1022 L -28.8519,72.2284 L -28.5,72.4019
 L -28.1737,72.6199 L -27.8787,72.8787 L -27.6199,73.1737 L -27.4019,73.5 L -27.2283,73.8519 L -27.1022,74.2235
 L -27.0257,74.6084 L -27,75 L -27.0257,75.3916 L -27.1022,75.7765 L -27.2179,76.1172 L -20.9643,78.24
 L -10.5726,80.307 L 0,81 z
M 14.6084,-72.0257 L 14.2235,-72.1022 L 13.8519,-72.2284 L 13.5,-72.4019 L 13.1737,-72.6199 L 12.8787,-72.8787
 L 12.6199,-73.1737 L 12.4019,-73.5 L 12.2283,-73.8519 L 12.1022,-74.2235 L 12.0257,-74.6084 L 12,-75
 L 12.0257,-75.3916 L 12.1022,-75.7765 L 12.2283,-76.148 L 12.4019,-76.5 L 12.6199,-76.8263 L 12.8787,-77.1213
 L 13.1737,-77.3801 L 13.5,-77.5981 L 13.8519,-77.7716 L 14.2235,-77.8978 L 14.6084,-77.9743 L 15,-78
 L 15.3916,-77.9743 L 15.7764,-77.8978 L 16.148,-77.7716 L 16.5,-77.5981 L 16.8263,-77.3801 L 17.1213,-77.1213
 L 17.3801,-76.8263 L 17.5981,-76.5 L 17.7716,-76.148 L 17.8978,-75.7765 L 17.9743,-75.3916 L 18,-75
 L 17.9743,-74.6084 L 17.8978,-74.2235 L 17.7716,-73.8519 L 17.5981,-73.5 L 17.3801,-73.1737 L 17.1213,-72.8787
 L 16.8263,-72.6199 L 16.5,-72.4019 L 16.148,-72.2284 L 15.7764,-72.1022 L 15.3916,-72.0257 L 15,-72
 z
M -15.3916,-72.0257 L -15.7764,-72.1022 L -16.148,-72.2284 L -16.5,-72.4019 L -16.8263,-72.6199 L -17.1213,-72.8787
 L -17.3801,-73.1737 L -17.5981,-73.5 L -17.7716,-73.8519 L -17.8978,-74.2235 L -17.9743,-74.6084 L -18,-75
 L -17.9743,-75.3916 L -17.8978,-75.7765 L -17.7716,-76.148 L -17.5981,-76.5 L -17.3801,-76.8263 L -17.1213,-77.1213
 L -16.8263,-77.3801 L -16.5,-77.5981 L -16.148,-77.7716 L -15.7764,-77.8978 L -15.3916,-77.9743 L -15,-78
 L -14.6084,-77.9743 L -14.2235,-77.8978 L -13.8519,-77.7716 L -13.5,-77.5981 L -13.1737,-77.3801 L -12.8787,-77.1213
 L -12.6199,-76.8263 L -12.4019,-76.5 L -12.2283,-76.148 L -12.1022,-75.7765 L -12.0257,-75.3916 L -12,-75
 L -12.0257,-74.6084 L -12.1022,-74.2235 L -12.2283,-73.8519 L -12.4019,-73.5 L -12.6199,-73.1737 L -12.8787,-72.8787
 L -13.1737,-72.6199 L -13.5,-72.4019 L -13.8519,-72.2284 L -14.2235,-72.1022 L -14.6084,-72.0257 L -15,-72
 z
M -0.391571,-72.0257 L -0.776443,-72.1022 L -1.14804,-72.2284 L -1.5,-72.4019 L -1.82628,-72.6199 L -2.12131,-72.8787
 L -2.38005,-73.1737 L -2.59807,-73.5 L -2.77164,-73.8519 L -2.89777,-74.2235 L -2.97432,-74.6084 L -3,-75
 L -2.97432,-75.3916 L -2.89777,-75.7765 L -2.77164,-76.148 L -2.59807,-76.5 L -2.38005,-76.8263 L -2.12131,-77.1213
 L -1.82628,-77.3801 L -1.5,-77.5981 L -1.14804,-77.7716 L -0.776443,-77.8978 L -0.391571,-77.9743 L 0,-78
 L 0.391571,-77.9743 L 0.776443,-77.8978 L 1.14804,-77.7716 L 1.5,-77.5981 L 1.82628,-77.3801 L 2.12131,-77.1213
 L 2.38005,-76.8263 L 2.59807,-76.5 L 2.77164,-76.148 L 2.89777,-75.7765 L 2.97432,-75.3916 L 3,-75
 L 2.97432,-74.6084 L 2.89777,-74.2235 L 2.77164,-73.8519 L 2.59807,-73.5 L 2.38005,-73.1737 L 2.12131,-72.8787
 L 1.82628,-72.6199 L 1.5,-72.4019 L 1.14804,-72.2284 L 0.776443,-72.1022 L 0.391571,-72.0257 L 0,-72
 z
M -0.391571,-57.0257 L -0.776443,-57.1022 L -1.14804,-57.2284 L -1.5,-57.4019 L -1.82628,-57.6199 L -2.12131,-57.8787
 L -2.38005,-58.1737 L -2.59807,-58.5 L -2.77164,-58.8519 L -2.89777,-59.2235 L -2.97432,-59.6084 L -3,-60
 L -2.97432,-60.3916 L -2.89777,-60.7765 L -2.77164,-61.148 L -2.59807,-61.5 L -2.38005,-61.8263 L -2.12131,-62.1213
 L -1.82628,-62.3801 L -1.5,-62.5981 L -1.14804,-62.7716 L -0.776443,-62.8978 L -0.391571,-62.9743 L 0,-63
 L 0.391571,-62.9743 L 0.776443,-62.8978 L 1.14804,-62.7716 L 1.5,-62.5981 L 1.82628,-62.3801 L 2.12131,-62.1213
 L 2.38005,-61.8263 L 2.59807,-61.5 L 2.77164,-61.148 L 2.89777,-60.7765 L 2.97432,-60.3916 L 3,-60
 L 2.97432,-59.6084 L 2.89777,-59.2235 L 2.77164,-58.8519 L 2.59807,-58.5 L 2.38005,-58.1737 L 2.12131,-57.8787
 L 1.82628,-57.6199 L 1.5,-57.4019 L 1.14804,-57.2284 L 0.776443,-57.1022 L 0.391571,-57.0257 L 0,-57
 z
M -30.3916,-57.0257 L -30.7764,-57.1022 L -31.148,-57.2284 L -31.5,-57.4019 L -31.8263,-57.6199 L -32.1213,-57.8787
 L -32.3801,-58.1737 L -32.5981,-58.5 L -32.7716,-58.8519 L -32.8978,-59.2235 L -32.9743,-59.6084 L -33,-60
 L -32.9743,-60.3916 L -32.8978,-60.7765 L -32.7716,-61.148 L -32.5981,-61.5 L -32.3801,-61.8263 L -32.1213,-62.1213
 L -31.8263,-62.3801 L -31.5,-62.5981 L -31.148,-62.7716 L -30.7764,-62.8978 L -30.3916,-62.9743 L -30,-63
 L -29.6084,-62.9743 L -29.2235,-62.8978 L -28.8519,-62.7716 L -28.5,-62.5981 L -28.1737,-62.3801 L -27.8787,-62.1213
 L -27.6199,-61.8263 L -27.4019,-61.5 L -27.2283,-61.148 L -27.1022,-60.7765 L -27.0257,-60.3916 L -27,-60
 L -27.0257,-59.6084 L -27.1022,-59.2235 L -27.2283,-58.8519 L -27.4019,-58.5 L -27.6199,-58.1737 L -27.8787,-57.8787
 L -28.1737,-57.6199 L -28.5,-57.4019 L -28.8519,-57.2284 L -29.2235,-57.1022 L -29.6084,-57.0257 L -30,-57
 z
M 44.6084,-57.0257 L 44.2235,-57.1022 L 43.8519,-57.2284 L 43.5,-57.4019 L 43.1737,-57.6199 L 42.8787,-57.8787
 L 42.6199,-58.1737 L 42.4019,-58.5 L 42.2284,-58.8519 L 42.1022,-59.2235 L 42.0257,-59.6084 L 42,-60
 L 42.0257,-60.3916 L 42.1022,-60.7765 L 42.2284,-61.148 L 42.4019,-61.5 L 42.6199,-61.8263 L 42.8787,-62.1213
 L 43.1737,-62.3801 L 43.5,-62.5981 L 43.8519,-62.7716 L 44.2235,-62.8978 L 44.6084,-62.9743 L 45,-63
 L 45.3916,-62.9743 L 45.7765,-62.8978 L 46.148,-62.7716 L 46.5,-62.5981 L 46.8263,-62.3801 L 47.1213,-62.1213
 L 47.3801,-61.8263 L 47.5981,-61.5 L 47.7716,-61.148 L 47.8978,-60.7765 L 47.9743,-60.3916 L 48,-60
 L 47.9743,-59.6084 L 47.8978,-59.2235 L 47.7716,-58.8519 L 47.5981,-58.5 L 47.3801,-58.1737 L 47.1213,-57.8787
 L 46.8263,-57.6199 L 46.5,-57.4019 L 46.148,-57.2284 L 45.7765,-57.1022 L 45.3916,-57.0257 L 45,-57
 z
M -15.3916,-57.0257 L -15.7764,-57.1022 L -16.148,-57.2284 L -16.5,-57.4019 L -16.8263,-57.6199 L -17.1213,-57.8787
 L -17.3801,-58.1737 L -17.5981,-58.5 L -17.7716,-58.8519 L -17.8978,-59.2235 L -17.9743,-59.6084 L -18,-60
 L -17.9743,-60.3916 L -17.8978,-60.7765 L -17.7716,-61.148 L -17.5981,-61.5 L -17.3801,-61.8263 L -17.1213,-62.1213
 L -16.8263,-62.3801 L -16.5,-62.5981 L -16.148,-62.7716 L -15.7764,-62.8978 L -15.3916,-62.9743 L -15,-63
 L -14.6084,-62.9743 L -14.2235,-62.8978 L -13.8519,-62.7716 L -13.5,-62.5981 L -13.1737,-62.3801 L -12.8787,-62.1213
 L -12.6199,-61.8263 L -12.4019,-61.5 L -12.2283,-61.148 L -12.1022,-60.7765 L -12.0257,-60.3916 L -12,-60
 L -12.0257,-59.6084 L -12.1022,-59.2235 L -12.2283,-58.8519 L -12.4019,-58.5 L -12.6199,-58.1737 L -12.8787,-57.8787
 L -13.1737,-57.6199 L -13.5,-57.4019 L -13.8519,-57.2284 L -14.2235,-57.1022 L -14.6084,-57.0257 L -15,-57
 z
M 14.6084,-57.0257 L 14.2235,-57.1022 L 13.8519,-57.2284 L 13.5,-57.4019 L 13.1737,-57.6199 L 12.8787,-57.8787
 L 12.6199,-58.1737 L 12.4019,-58.5 L 12.2283,-58.8519 L 12.1022,-59.2235 L 12.0257,-59.6084 L 12,-60
 L 12.0257,-60.3916 L 12.1022,-60.7765 L 12.2283,-61.148 L 12.4019,-61.5 L 12.6199,-61.8263 L 12.8787,-62.1213
 L 13.1737,-62.3801 L 13.5,-62.5981 L 13.8519,-62.7716 L 14.2235,-62.8978 L 14.6084,-62.9743 L 15,-63
 L 15.3916,-62.9743 L 15.7764,-62.8978 L 16.148,-62.7716 L 16.5,-62.5981 L 16.8263,-62.3801 L 17.1213,-62.1213
 L 17.3801,-61.8263 L 17.5981,-61.5 L 17.7716,-61.148 L 17.8978,-60.7765 L 17.9743,-60.3916 L 18,-60
 L 17.9743,-59.6084 L 17.8978,-59.2235 L 17.7716,-58.8519 L 17.5981,-58.5 L 17.3801,-58.1737 L 17.1213,-57.8787
 L 16.8263,-57.6199 L 16.5,-57.4019 L 16.148,-57.2284 L 15.7764,-57.1022 L 15.3916,-57.0257 L 15,-57
 z
M 29.6084,-57.0257 L 29.2235,-57.1022 L 28.8519,-57.2284 L 28.5,-57.4019 L 28.1737,-57.6199 L 27.8787,-57.8787
 L 27.6199,-58.1737 L 27.4019,-58.5 L 27.2283,-58.8519 L 27.1022,-59.2235 L 27.0257,-59.6084 L 27,-60
 L 27.0257,-60.3916 L 27.1022,-60.7765 L 27.2283,-61.148 L 27.4019,-61.5 L 27.6199,-61.8263 L 27.8787,-62.1213
 L 28.1737,-62.3801 L 28.5,-62.5981 L 28.8519,-62.7716 L 29.2235,-62.8978 L 29.6084,-62.9743 L 30,-63
 L 30.3916,-62.9743 L 30.7764,-62.8978 L 31.148,-62.7716 L 31.5,-62.5981 L 31.8263,-62.3801 L 32.1213,-62.1213
 L 32.3801,-61.8263 L 32.5981,-61.5 L 32.7716,-61.148 L 32.8978,-60.7765 L 32.9743,-60.3916 L 33,-60
 L 32.9743,-59.6084 L 32.8978,-59.2235 L 32.7716,-58.8519 L 32.5981,-58.5 L 32.3801,-58.1737 L 32.1213,-57.8787
 L 31.8263,-57.6199 L 31.5,-57.4019 L 31.148,-57.2284 L 30.7764,-57.1022 L 30.3916,-57.0257 L 30,-57
 z
M -45.3916,-57.0257 L -45.7765,-57.1022 L -46.148,-57.2284 L -46.5,-57.4019 L -46.8263,-57.6199 L -47.1213,-57.8787
 L -47.3801,-58.1737 L -47.5981,-58.5 L -47.7716,-58.8519 L -47.8978,-59.2235 L -47.9743,-59.6084 L -48,-60
 L -47.9743,-60.3916 L -47.8978,-60.7765 L -47.7716,-61.148 L -47.5981,-61.5 L -47.3801,-61.8263 L -47.1213,-62.1213
 L -46.8263,-62.3801 L -46.5,-62.5981 L -46.148,-62.7716 L -45.7765,-62.8978 L -45.3916,-62.9743 L -45,-63
 L -44.6084,-62.9743 L -44.2235,-62.8978 L -43.8519,-62.7716 L -43.5,-62.5981 L -43.1737,-62.3801 L -42.8787,-62.1213
 L -42.6199,-61.8263 L -42.4019,-61.5 L -42.2284,-61.148 L -42.1022,-60.7765 L -42.0257,-60.3916 L -42,-60
 L -42.0257,-59.6084 L -42.1022,-59.2235 L -42.2284,-58.8519 L -42.4019,-58.5 L -42.6199,-58.1737 L -42.8787,-57.8787
 L -43.1737,-57.6199 L -43.5,-57.4019 L -43.8519,-57.2284 L -44.2235,-57.1022 L -44.6084,-57.0257 L -45,-57
 z
M -0.391571,-42.0257 L -0.776443,-42.1022 L -1.14804,-42.2284 L -1.5,-42.4019 L -1.82628,-42.6199 L -2.12131,-42.8787
 L -2.38005,-43.1737 L -2.59807,-43.5 L -2.77164,-43.8519 L -2.89777,-44.2235 L -2.97432,-44.6084 L -3,-45
 L -2.97432,-45.3916 L -2.89777,-45.7765 L -2.77164,-46.148 L -2.59807,-46.5 L -2.38005,-46.8263 L -2.12131,-47.1213
 L -1.82628,-47.3801 L -1.5,-47.5981 L -1.14804,-47.7716 L -0.776443,-47.8978 L -0.391571,-47.9743 L 0,-48
 L 0.391571,-47.9743 L 0.776443,-47.8978 L 1.14804,-47.7716 L 1.5,-47.5981 L 1.82628,-47.3801 L 2.12131,-47.1213
 L 2.38005,-46.8263 L 2.59807,-46.5 L 2.77164,-46.148 L 2.89777,-45.7765 L 2.97432,-45.3916 L 3,-45
 L 2.97432,-44.6084 L 2.89777,-44.2235 L 2.77164,-43.8519 L 2.59807,-43.5 L 2.38005,-43.1737 L 2.12131,-42.8787
 L 1.82628,-42.6199 L 1.5,-42.4019 L 1.14804,-42.2284 L 0.776443,-42.1022 L 0.391571,-42.0257 L 0,-42
 z
M -15.3916,-42.0257 L -15.7764,-42.1022 L -16.148,-42.2284 L -16.5,-42.4019 L -16.8263,-42.6199 L -17.1213,-42.8787
 L -17.3801,-43.1737 L -17.5981,-43.5 L -17.7716,-43.8519 L -17.8978,-44.2235 L -17.9743,-44.6084 L -18,-45
 L -17.9743,-45.3916 L -17.8978,-45.7765 L -17.7716,-46.148 L -17.5981,-46.5 L -17.3801,-46.8263 L -17.1213,-47.1213
 L -16.8263,-47.3801 L -16.5,-47.5981 L -16.148,-47.7716 L -15.7764,-47.8978 L -15.3916,-47.9743 L -15,-48
 L -14.6084,-47.9743 L -14.2235,-47.8978 L -13.8519,-47.7716 L -13.5,-47.5981 L -13.1737,-47.3801 L -12.8787,-47.1213
 L -12.6199,-46.8263 L -12.4019,-46.5 L -12.2283,-46.148 L -12.1022,-45.7765 L -12.0257,-45.3916 L -12,-45
 L -12.0257,-44.6084 L -12.1022,-44.2235 L -12.2283,-43.8519 L -12.4019,-43.5 L -12.6199,-43.1737 L -12.8787,-42.8787
 L -13.1737,-42.6199 L -13.5,-42.4019 L -13.8519,-42.2284 L -14.2235,-42.1022 L -14.6084,-42.0257 L -15,-42
 z
M -45.3916,-42.0257 L -45.7765,-42.1022 L -46.148,-42.2284 L -46.5,-42.4019 L -46.8263,-42.6199 L -47.1213,-42.8787
 L -47.3801,-43.1737 L -47.5981,-43.5 L -47.7716,-43.8519 L -47.8978,-44.2235 L -47.9743,-44.6084 L -48,-45
 L -47.9743,-45.3916 L -47.8978,-45.7765 L -47.7716,-46.148 L -47.5981,-46.5 L -47.3801,-46.8263 L -47.1213,-47.1213
 L -46.8263,-47.3801 L -46.5,-47.5981 L -46.148,-47.7716 L -45.7765,-47.8978 L -45.3916,-47.9743 L -45,-48
 L -44.6084,-47.9743 L -44.2235,-47.8978 L -43.8519,-47.7716 L -43.5,-47.5981 L -43.1737,-47.3801 L -42.8787,-47.1213
 L -42.6199,-46.8263 L -42.4019,-46.5 L -42.2284,-46.148 L -42.1022,-45.7765 L -42.0257,-45.3916 L -42,-45
 L -42.0257,-44.6084 L -42.1022,-44.2235 L -42.2284,-43.8519 L -42.4019,-43.5 L -42.6199,-43.1737 L -42.8787,-42.8787
 L -43.1737,-42.6199 L -43.5,-42.4019 L -43.8519,-42.2284 L -44.2235,-42.1022 L -44.6084,-42.0257 L -45,-42
 z
M -60.3916,-42.0257 L -60.7765,-42.1022 L -61.148,-42.2284 L -61.5,-42.4019 L -61.8263,-42.6199 L -62.1213,-42.8787
 L -62.3801,-43.1737 L -62.5981,-43.5 L -62.7716,-43.8519 L -62.8978,-44.2235 L -62.9743,-44.6084 L -63,-45
 L -62.9743,-45.3916 L -62.8978,-45.7765 L -62.7716,-46.148 L -62.5981,-46.5 L -62.3801,-46.8263 L -62.1213,-47.1213
 L -61.8263,-47.3801 L -61.5,-47.5981 L -61.148,-47.7716 L -60.7765,-47.8978 L -60.3916,-47.9743 L -60,-48
 L -59.6084,-47.9743 L -59.2235,-47.8978 L -58.8519,-47.7716 L -58.5,-47.5981 L -58.1737,-47.3801 L -57.8787,-47.1213
 L -57.6199,-46.8263 L -57.4019,-46.5 L -57.2284,-46.148 L -57.1022,-45.7765 L -57.0257,-45.3916 L -57,-45
 L -57.0257,-44.6084 L -57.1022,-44.2235 L -57.2284,-43.8519 L -57.4019,-43.5 L -57.6199,-43.1737 L -57.8787,-42.8787
 L -58.1737,-42.6199 L -58.5,-42.4019 L -58.8519,-42.2284 L -59.2235,-42.1022 L -59.6084,-42.0257 L -60,-42
 z
M 29.6084,-42.0257 L 29.2235,-42.1022 L 28.8519,-42.2284 L 28.5,-42.4019 L 28.1737,-42.6199 L 27.8787,-42.8787
 L 27.6199,-43.1737 L 27.4019,-43.5 L 27.2283,-43.8519 L 27.1022,-44.2235 L 27.0257,-44.6084 L 27,-45
 L 27.0257,-45.3916 L 27.1022,-45.7765 L 27.2283,-46.148 L 27.4019,-46.5 L 27.6199,-46.8263 L 27.8787,-47.1213
 L 28.1737,-47.3801 L 28.5,-47.5981 L 28.8519,-47.7716 L 29.2235,-47.8978 L 29.6084,-47.9743 L 30,-48
 L 30.3916,-47.9743 L 30.7764,-47.8978 L 31.148,-47.7716 L 31.5,-47.5981 L 31.8263,-47.3801 L 32.1213,-47.1213
 L 32.3801,-46.8263 L 32.5981,-46.5 L 32.7716,-46.148 L 32.8978,-45.7765 L 32.9743,-45.3916 L 33,-45
 L 32.9743,-44.6084 L 32.8978,-44.2235 L 32.7716,-43.8519 L 32.5981,-43.5 L 32.3801,-43.1737 L 32.1213,-42.8787
 L 31.8263,-42.6199 L 31.5,-42.4019 L 31.148,-42.2284 L 30.7764,-42.1022 L 30.3916,-42.0257 L 30,-42
 z
M -30.3916,-42.0257 L -30.7764,-42.1022 L -31.148,-42.2284 L -31.5,-42.4019 L -31.8263,-42.6199 L -32.1213,-42.8787
 L -32.3801,-43.1737 L -32.5981,-43.5 L -32.7716,-43.8519 L -32.8978,-44.2235 L -32.9743,-44.6084 L -33,-45
 L -32.9743,-45.3916 L -32.8978,-45.7765 L -32.7716,-46.148 L -32.5981,-46.5 L -32.3801,-46.8263 L -32.1213,-47.1213
 L -31.8263,-47.3801 L -31.5,-47.5981 L -31.148,-47.7716 L -30.7764,-47.8978 L -30.3916,-47.9743 L -30,-48
 L -29.6084,-47.9743 L -29.2235,-47.8978 L -28.8519,-47.7716 L -28.5,-47.5981 L -28.1737,-47.3801 L -27.8787,-47.1213
 L -27.6199,-46.8263 L -27.4019,-46.5 L -27.2283,-46.148 L -27.1022,-45.7765 L -27.0257,-45.3916 L -27,-45
 L -27.0257,-44.6084 L -27.1022,-44.2235 L -27.2283,-43.8519 L -27.4019,-43.5 L -27.6199,-43.1737 L -27.8787,-42.8787
 L -28.1737,-42.6199 L -28.5,-42.4019 L -28.8519,-42.2284 L -29.2235,-42.1022 L -29.6084,-42.0257 L -30,-42
 z
M 44.6084,-42.0257 L 44.2235,-42.1022 L 43.8519,-42.2284 L 43.5,-42.4019 L 43.1737,-42.6199 L 42.8787,-42.8787
 L 42.6199,-43.1737 L 42.4019,-43.5 L 42.2284,-43.8519 L 42.1022,-44.2235 L 42.0257,-44.6084 L 42,-45
 L 42.0257,-45.3916 L 42.1022,-45.7765 L 42.2284,-46.148 L 42.4019,-46.5 L 42.6199,-46.8263 L 42.8787,-47.1213
 L 43.1737,-47.3801 L 43.5,-47.5981 L 43.8519,-47.7716 L 44.2235,-47.8978 L 44.6084,-47.9743 L 45,-48
 L 45.3916,-47.9743 L 45.7765,-47.8978 L 46.148,-47.7716 L 46.5,-47.5981 L 46.8263,-47.3801 L 47.1213,-47.1213
 L 47.3801,-46.8263 L 47.5981,-46.5 L 47.7716,-46.148 L 47.8978,-45.7765 L 47.9743,-45.3916 L 48,-45
 L 47.9743,-44.6084 L 47.8978,-44.2235 L 47.7716,-43.8519 L 47.5981,-43.5 L 47.3801,-43.1737 L 47.1213,-42.8787
 L 46.8263,-42.6199 L 46.5,-42.4019 L 46.148,-42.2284 L 45.7765,-42.1022 L 45.3916,-42.0257 L 45,-42
 z
M 14.6084,-42.0257 L 14.2235,-42.1022 L 13.8519,-42.2284 L 13.5,-42.4019 L 13.1737,-42.6199 L 12.8787,-42.8787
 L 12.6199,-43.1737 L 12.4019,-43.5 L 12.2283,-43.8519 L 12.1022,-44.2235 L 12.0257,-44.6084 L 12,-45
 L 12.0257,-45.3916 L 12.1022,-45.7765 L 12.2283,-46.148 L 12.4019,-46.5 L 12.6199,-46.8263 L 12.8787,-47.1213
 L 13.1737,-47.3801 L 13.5,-47.5981 L 13.8519,-47.7716 L 14.2235,-47.8978 L 14.6084,-47.9743 L 15,-48
 L 15.3916,-47.9743 L 15.7764,-47.8978 L 16.148,-47.7716 L 16.5,-47.5981 L 16.8263,-47.3801 L 17.1213,-47.1213
 L 17.3801,-46.8263 L 17.5981,-46.5 L 17.7716,-46.148 L 17.8978,-45.7765 L 17.9743,-45.3916 L 18,-45
 L 17.9743,-44.6084 L 17.8978,-44.2235 L 17.7716,-43.8519 L 17.5981,-43.5 L 17.3801,-43.1737 L 17.1213,-42.8787
 L 16.8263,-42.6199 L 16.5,-42.4019 L 16.148,-42.2284 L 15.7764,-42.1022 L 15.3916,-42.0257 L 15,-42
 z
M 59.6084,-42.0257 L 59.2235,-42.1022 L 58.8519,-42.2284 L 58.5,-42.4019 L 58.1737,-42.6199 L 57.8787,-42.8787
 L 57.6199,-43.1737 L 57.4019,-43.5 L 57.2284,-43.8519 L 57.1022,-44.2235 L 57.0257,-44.6084 L 57,-45
 L 57.0257,-45.3916 L 57.1022,-45.7765 L 57.2284,-46.148 L 57.4019,-46.5 L 57.6199,-46.8263 L 57.8787,-47.1213
 L 58.1737,-47.3801 L 58.5,-47.5981 L 58.8519,-47.7716 L 59.2235,-47.8978 L 59.6084,-47.9743 L 60,-48
 L 60.3916,-47.9743 L 60.7765,-47.8978 L 61.148,-47.7716 L 61.5,-47.5981 L 61.8263,-47.3801 L 62.1213,-47.1213
 L 62.3801,-46.8263 L 62.5981,-46.5 L 62.7716,-46.148 L 62.8978,-45.7765 L 62.9743,-45.3916 L 63,-45
 L 62.9743,-44.6084 L 62.8978,-44.2235 L 62.7716,-43.8519 L 62.5981,-43.5 L 62.3801,-43.1737 L 62.1213,-42.8787
 L 61.8263,-42.6199 L 61.5,-42.4019 L 61.148,-42.2284 L 60.7765,-42.1022 L 60.3916,-42.0257 L 60,-42
 z
M -30.3916,-27.0257 L -30.7764,-27.1022 L -31.148,-27.2283 L -31.5,-27.4019 L -31.8263,-27.6199 L -32.1213,-27.8787
 L -32.3801,-28.1737 L -32.5981,-28.5 L -32.7716,-28.8519 L -32.8978,-29.2235 L -32.9743,-29.6084 L -33,-30
 L -32.9743,-30.3916 L -32.8978,-30.7764 L -32.7716,-31.148 L -32.5981,-31.5 L -32.3801,-31.8263 L -32.1213,-32.1213
 L -31.8263,-32.3801 L -31.5,-32.5981 L -31.148,-32.7716 L -30.7764,-32.8978 L -30.3916,-32.9743 L -30,-33
 L -29.6084,-32.9743 L -29.2235,-32.8978 L -28.8519,-32.7716 L -28.5,-32.5981 L -28.1737,-32.3801 L -27.8787,-32.1213
 L -27.6199,-31.8263 L -27.4019,-31.5 L -27.2283,-31.148 L -27.1022,-30.7764 L -27.0257,-30.3916 L -27,-30
 L -27.0257,-29.6084 L -27.1022,-29.2235 L -27.2283,-28.8519 L -27.4019,-28.5 L -27.6199,-28.1737 L -27.8787,-27.8787
 L -28.1737,-27.6199 L -28.5,-27.4019 L -28.8519,-27.2283 L -29.2235,-27.1022 L -29.6084,-27.0257 L -30,-27
 z
M 29.6084,-27.0257 L 29.2235,-27.1022 L 28.8519,-27.2283 L 28.5,-27.4019 L 28.1737,-27.6199 L 27.8787,-27.8787
 L 27.6199,-28.1737 L 27.4019,-28.5 L 27.2283,-28.8519 L 27.1022,-29.2235 L 27.0257,-29.6084 L 27,-30
 L 27.0257,-30.3916 L 27.1022,-30.7764 L 27.2283,-31.148 L 27.4019,-31.5 L 27.6199,-31.8263 L 27.8787,-32.1213
 L 28.1737,-32.3801 L 28.5,-32.5981 L 28.8519,-32.7716 L 29.2235,-32.8978 L 29.6084,-32.9743 L 30,-33
 L 30.3916,-32.9743 L 30.7764,-32.8978 L 31.148,-32.7716 L 31.5,-32.5981 L 31.8263,-32.3801 L 32.1213,-32.1213
 L 32.3801,-31.8263 L 32.5981,-31.5 L 32.7716,-31.148 L 32.8978,-30.7764 L 32.9743,-30.3916 L 33,-30
 L 32.9743,-29.6084 L 32.8978,-29.2235 L 32.7716,-28.8519 L 32.5981,-28.5 L 32.3801,-28.1737 L 32.1213,-27.8787
 L 31.8263,-27.6199 L 31.5,-27.4019 L 31.148,-27.2283 L 30.7764,-27.1022 L 30.3916,-27.0257 L 30,-27
 z
M -45.3916,-27.0257 L -45.7765,-27.1022 L -46.148,-27.2283 L -46.5,-27.4019 L -46.8263,-27.6199 L -47.1213,-27.8787
 L -47.3801,-28.1737 L -47.5981,-28.5 L -47.7716,-28.8519 L -47.8978,-29.2235 L -47.9743,-29.6084 L -48,-30
 L -47.9743,-30.3916 L -47.8978,-30.7764 L -47.7716,-31.148 L -47.5981,-31.5 L -47.3801,-31.8263 L -47.1213,-32.1213
 L -46.8263,-32.3801 L -46.5,-32.5981 L -46.148,-32.7716 L -45.7765,-32.8978 L -45.3916,-32.9743 L -45,-33
 L -44.6084,-32.9743 L -44.2235,-32.8978 L -43.8519,-32.7716 L -43.5,-32.5981 L -43.1737,-32.3801 L -42.8787,-32.1213
 L -42.6199,-31.8263 L -42.4019,-31.5 L -42.2284,-31.148 L -42.1022,-30.7764 L -42.0257,-30.3916 L -42,-30
 L -42.0257,-29.6084 L -42.1022,-29.2235 L -42.2284,-28.8519 L -42.4019,-28.5 L -42.6199,-28.1737 L -42.8787,-27.8787
 L -43.1737,-27.6199 L -43.5,-27.4019 L -43.8519,-27.2283 L -44.2235,-27.1022 L -44.6084,-27.0257 L -45,-27
 z
M -15.3916,-27.0257 L -15.7764,-27.1022 L -16.148,-27.2283 L -16.5,-27.4019 L -16.8263,-27.6199 L -17.1213,-27.8787
 L -17.3801,-28.1737 L -17.5981,-28.5 L -17.7716,-28.8519 L -17.8978,-29.2235 L -17.9743,-29.6084 L -18,-30
 L -17.9743,-30.3916 L -17.8978,-30.7764 L -17.7716,-31.148 L -17.5981,-31.5 L -17.3801,-31.8263 L -17.1213,-32.1213
 L -16.8263,-32.3801 L -16.5,-32.5981 L -16.148,-32.7716 L -15.7764,-32.8978 L -15.3916,-32.9743 L -15,-33
 L -14.6084,-32.9743 L -14.2235,-32.8978 L -13.8519,-32.7716 L -13.5,-32.5981 L -13.1737,-32.3801 L -12.8787,-32.1213
 L -12.6199,-31.8263 L -12.4019,-31.5 L -12.2283,-31.148 L -12.1022,-30.7764 L -12.0257,-30.3916 L -12,-30
 L -12.0257,-29.6084 L -12.1022,-29.2235 L -12.2283,-28.8519 L -12.4019,-28.5 L -12.6199,-28.1737 L -12.8787,-27.8787
 L -13.1737,-27.6199 L -13.5,-27.4019 L -13.8519,-27.2283 L -14.2235,-27.1022 L -14.6084,-27.0257 L -15,-27
 z
M 14.6084,-27.0257 L 14.2235,-27.1022 L 13.8519,-27.2283 L 13.5,-27.4019 L 13.1737,-27.6199 L 12.8787,-27.8787
 L 12.6199,-28.1737 L 12.4019,-28.5 L 12.2283,-28.8519 L 12.1022,-29.2235 L 12.0257,-29.6084 L 12,-30
 L 12.0257,-30.3916 L 12.1022,-30.7764 L 12.2283,-31.148 L 12.4019,-31.5 L 12.6199,-31.8263 L 12.8787,-32.1213
 L 13.1737,-32.3801 L 13.5,-32.5981 L 13.8519,-32.7716 L 14.2235,-32.8978 L 14.6084,-32.9743 L 15,-33
 L 15.3916,-32.9743 L 15.7764,-32.8978 L 16.148,-32.7716 L 16.5,-32.5981 L 16.8263,-32.3801 L 17.1213,-32.1213
 L 17.3801,-31.8263 L 17.5981,-31.5 L 17.7716,-31.148 L 17.8978,-30.7764 L 17.9743,-30.3916 L 18,-30
 L 17.9743,-29.6084 L 17.8978,-29.2235 L 17.7716,-28.8519 L 17.5981,-28.5 L 17.3801,-28.1737 L 17.1213,-27.8787
 L 16.8263,-27.6199 L 16.5,-27.4019 L 16.148,-27.2283 L 15.7764,-27.1022 L 15.3916,-27.0257 L 15,-27
 z
M -60.3916,-27.0257 L -60.7765,-27.1022 L -61.148,-27.2283 L -61.5,-27.4019 L -61.8263,-27.6199 L -62.1213,-27.8787
 L -62.3801,-28.1737 L -62.5981,-28.5 L -62.7716,-28.8519 L -62.8978,-29.2235 L -62.9743,-29.6084 L -63,-30
 L -62.9743,-30.3916 L -62.8978,-30.7764 L -62.7716,-31.148 L -62.5981,-31.5 L -62.3801,-31.8263 L -62.1213,-32.1213
 L -61.8263,-32.3801 L -61.5,-32.5981 L -61.148,-32.7716 L -60.7765,-32.8978 L -60.3916,-32.9743 L -60,-33
 L -59.6084,-32.9743 L -59.2235,-32.8978 L -58.8519,-32.7716 L -58.5,-32.5981 L -58.1737,-32.3801 L -57.8787,-32.1213
 L -57.6199,-31.8263 L -57.4019,-31.5 L -57.2284,-31.148 L -57.1022,-30.7764 L -57.0257,-30.3916 L -57,-30
 L -57.0257,-29.6084 L -57.1022,-29.2235 L -57.2284,-28.8519 L -57.4019,-28.5 L -57.6199,-28.1737 L -57.8787,-27.8787
 L -58.1737,-27.6199 L -58.5,-27.4019 L -58.8519,-27.2283 L -59.2235,-27.1022 L -59.6084,-27.0257 L -60,-27
 z
M -0.391571,-27.0257 L -0.776443,-27.1022 L -1.14804,-27.2283 L -1.5,-27.4019 L -1.82628,-27.6199 L -2.12131,-27.8787
 L -2.38005,-28.1737 L -2.59807,-28.5 L -2.77164,-28.8519 L -2.89777,-29.2235 L -2.97432,-29.6084 L -3,-30
 L -2.97432,-30.3916 L -2.89777,-30.7764 L -2.77164,-31.148 L -2.59807,-31.5 L -2.38005,-31.8263 L -2.12131,-32.1213
 L -1.82628,-32.3801 L -1.5,-32.5981 L -1.14804,-32.7716 L -0.776443,-32.8978 L -0.391571,-32.9743 L 0,-33
 L 0.391571,-32.9743 L 0.776443,-32.8978 L 1.14804,-32.7716 L 1.5,-32.5981 L 1.82628,-32.3801 L 2.12131,-32.1213
 L 2.38005,-31.8263 L 2.59807,-31.5 L 2.77164,-31.148 L 2.89777,-30.7764 L 2.97432,-30.3916 L 3,-30
 L 2.97432,-29.6084 L 2.89777,-29.2235 L 2.77164,-28.8519 L 2.59807,-28.5 L 2.38005,-28.1737 L 2.12131,-27.8787
 L 1.82628,-27.6199 L 1.5,-27.4019 L 1.14804,-27.2283 L 0.776443,-27.1022 L 0.391571,-27.0257 L 0,-27
 z
M 44.6084,-27.0257 L 44.2235,-27.1022 L 43.8519,-27.2283 L 43.5,-27.4019 L 43.1737,-27.6199 L 42.8787,-27.8787
 L 42.6199,-28.1737 L 42.4019,-28.5 L 42.2284,-28.8519 L 42.1022,-29.2235 L 42.0257,-29.6084 L 42,-30
 L 42.0257,-30.3916 L 42.1022,-30.7764 L 42.2284,-31.148 L 42.4019,-31.5 L 42.6199,-31.8263 L 42.8787,-32.1213
 L 43.1737,-32.3801 L 43.5,-32.5981 L 43.8519,-32.7716 L 44.2235,-32.8978 L 44.6084,-32.9743 L 45,-33
 L 45.3916,-32.9743 L 45.7765,-32.8978 L 46.148,-32.7716 L 46.5,-32.5981 L 46.8263,-32.3801 L 47.1213,-32.1213
 L 47.3801,-31.8263 L 47.5981,-31.5 L 47.7716,-31.148 L 47.8978,-30.7764 L 47.9743,-30.3916 L 48,-30
 L 47.9743,-29.6084 L 47.8978,-29.2235 L 47.7716,-28.8519 L 47.5981,-28.5 L 47.3801,-28.1737 L 47.1213,-27.8787
 L 46.8263,-27.6199 L 46.5,-27.4019 L 46.148,-27.2283 L 45.7765,-27.1022 L 45.3916,-27.0257 L 45,-27
 z
M 59.6084,-27.0257 L 59.2235,-27.1022 L 58.8519,-27.2283 L 58.5,-27.4019 L 58.1737,-27.6199 L 57.8787,-27.8787
 L 57.6199,-28.1737 L 57.4019,-28.5 L 57.2284,-28.8519 L 57.1022,-29.2235 L 57.0257,-29.6084 L 57,-30
 L 57.0257,-30.3916 L 57.1022,-30.7764 L 57.2284,-31.148 L 57.4019,-31.5 L 57.6199,-31.8263 L 57.8787,-32.1213
 L 58.1737,-32.3801 L 58.5,-32.5981 L 58.8519,-32.7716 L 59.2235,-32.8978 L 59.6084,-32.9743 L 60,-33
 L 60.3916,-32.9743 L 60.7765,-32.8978 L 61.148,-32.7716 L 61.5,-32.5981 L 61.8263,-32.3801 L 62.1213,-32.1213
 L 62.3801,-31.8263 L 62.5981,-31.5 L 62.7716,-31.148 L 62.8978,-30.7764 L 62.9743,-30.3916 L 63,-30
 L 62.9743,-29.6084 L 62.8978,-29.2235 L 62.7716,-28.8519 L 62.5981,-28.5 L 62.3801,-28.1737 L 62.1213,-27.8787
 L 61.8263,-27.6199 L 61.5,-27.4019 L 61.148,-27.2283 L 60.7765,-27.1022 L 60.3916,-27.0257 L 60,-27
 z
M 29.6084,-12.0257 L 29.2235,-12.1022 L 28.8519,-12.2283 L 28.5,-12.4019 L 28.1737,-12.6199 L 27.8787,-12.8787
 L 27.6199,-13.1737 L 27.4019,-13.5 L 27.2283,-13.8519 L 27.1022,-14.2235 L 27.0257,-14.6084 L 27,-15
 L 27.0257,-15.3916 L 27.1022,-15.7764 L 27.2283,-16.148 L 27.4019,-16.5 L 27.6199,-16.8263 L 27.8787,-17.1213
 L 28.1737,-17.3801 L 28.5,-17.5981 L 28.8519,-17.7716 L 29.2235,-17.8978 L 29.6084,-17.9743 L 30,-18
 L 30.3916,-17.9743 L 30.7764,-17.8978 L 31.148,-17.7716 L 31.5,-17.5981 L 31.8263,-17.3801 L 32.1213,-17.1213
 L 32.3801,-16.8263 L 32.5981,-16.5 L 32.7716,-16.148 L 32.8978,-15.7764 L 32.9743,-15.3916 L 33,-15
 L 32.9743,-14.6084 L 32.8978,-14.2235 L 32.7716,-13.8519 L 32.5981,-13.5 L 32.3801,-13.1737 L 32.1213,-12.8787
 L 31.8263,-12.6199 L 31.5,-12.4019 L 31.148,-12.2283 L 30.7764,-12.1022 L 30.3916,-12.0257 L 30,-12
 z
M -15.3916,-12.0257 L -15.7764,-12.1022 L -16.148,-12.2283 L -16.5,-12.4019 L -16.8263,-12.6199 L -17.1213,-12.8787
 L -17.3801,-13.1737 L -17.5981,-13.5 L -17.7716,-13.8519 L -17.8978,-14.2235 L -17.9743,-14.6084 L -18,-15
 L -17.9743,-15.3916 L -17.8978,-15.7764 L -17.7716,-16.148 L -17.5981,-16.5 L -17.3801,-16.8263 L -17.1213,-17.1213
 L -16.8263,-17.3801 L -16.5,-17.5981 L -16.148,-17.7716 L -15.7764,-17.8978 L -15.3916,-17.9743 L -15,-18
 L -14.6084,-17.9743 L -14.2235,-17.8978 L -13.8519,-17.7716 L -13.5,-17.5981 L -13.1737,-17.3801 L -12.8787,-17.1213
 L -12.6199,-16.8263 L -12.4019,-16.5 L -12.2283,-16.148 L -12.1022,-15.7764 L -12.0257,-15.3916 L -12,-15
 L -12.0257,-14.6084 L -12.1022,-14.2235 L -12.2283,-13.8519 L -12.4019,-13.5 L -12.6199,-13.1737 L -12.8787,-12.8787
 L -13.1737,-12.6199 L -13.5,-12.4019 L -13.8519,-12.2283 L -14.2235,-12.1022 L -14.6084,-12.0257 L -15,-12
 z
M -45.3916,-12.0257 L -45.7765,-12.1022 L -46.148,-12.2283 L -46.5,-12.4019 L -46.8263,-12.6199 L -47.1213,-12.8787
 L -47.3801,-13.1737 L -47.5981,-13.5 L -47.7716,-13.8519 L -47.8978,-14.2235 L -47.9743,-14.6084 L -48,-15
 L -47.9743,-15.3916 L -47.8978,-15.7764 L -47.7716,-16.148 L -47.5981,-16.5 L -47.3801,-16.8263 L -47.1213,-17.1213
 L -46.8263,-17.3801 L -46.5,-17.5981 L -46.148,-17.7716 L -45.7765,-17.8978 L -45.3916,-17.9743 L -45,-18
 L -44.6084,-17.9743 L -44.2235,-17.8978 L -43.8519,-17.7716 L -43.5,-17.5981 L -43.1737,-17.3801 L -42.8787,-17.1213
 L -42.6199,-16.8263 L -42.4019,-16.5 L -42.2284,-16.148 L -42.1022,-15.7764 L -42.0257,-15.3916 L -42,-15
 L -42.0257,-14.6084 L -42.1022,-14.2235 L -42.2284,-13.8519 L -42.4019,-13.5 L -42.6199,-13.1737 L -42.8787,-12.8787
 L -43.1737,-12.6199 L -43.5,-12.4019 L -43.8519,-12.2283 L -44.2235,-12.1022 L -44.6084,-12.0257 L -45,-12
 z
M 59.6084,-12.0257 L 59.2235,-12.1022 L 58.8519,-12.2283 L 58.5,-12.4019 L 58.1737,-12.6199 L 57.8787,-12.8787
 L 57.6199,-13.1737 L 57.4019,-13.5 L 57.2284,-13.8519 L 57.1022,-14.2235 L 57.0257,-14.6084 L 57,-15
 L 57.0257,-15.3916 L 57.1022,-15.7764 L 57.2284,-16.148 L 57.4019,-16.5 L 57.6199,-16.8263 L 57.8787,-17.1213
 L 58.1737,-17.3801 L 58.5,-17.5981 L 58.8519,-17.7716 L 59.2235,-17.8978 L 59.6084,-17.9743 L 60,-18
 L 60.3916,-17.9743 L 60.7765,-17.8978 L 61.148,-17.7716 L 61.5,-17.5981 L 61.8263,-17.3801 L 62.1213,-17.1213
 L 62.3801,-16.8263 L 62.5981,-16.5 L 62.7716,-16.148 L 62.8978,-15.7764 L 62.9743,-15.3916 L 63,-15
 L 62.9743,-14.6084 L 62.8978,-14.2235 L 62.7716,-13.8519 L 62.5981,-13.5 L 62.3801,-13.1737 L 62.1213,-12.8787
 L 61.8263,-12.6199 L 61.5,-12.4019 L 61.148,-12.2283 L 60.7765,-12.1022 L 60.3916,-12.0257 L 60,-12
 z
M -75.3916,-12.0257 L -75.7765,-12.1022 L -76.148,-12.2283 L -76.5,-12.4019 L -76.8263,-12.6199 L -77.1213,-12.8787
 L -77.3801,-13.1737 L -77.5981,-13.5 L -77.7716,-13.8519 L -77.8978,-14.2235 L -77.9743,-14.6084 L -78,-15
 L -77.9743,-15.3916 L -77.8978,-15.7764 L -77.7716,-16.148 L -77.5981,-16.5 L -77.3801,-16.8263 L -77.1213,-17.1213
 L -76.8263,-17.3801 L -76.5,-17.5981 L -76.148,-17.7716 L -75.7765,-17.8978 L -75.3916,-17.9743 L -75,-18
 L -74.6084,-17.9743 L -74.2235,-17.8978 L -73.8519,-17.7716 L -73.5,-17.5981 L -73.1737,-17.3801 L -72.8787,-17.1213
 L -72.6199,-16.8263 L -72.4019,-16.5 L -72.2284,-16.148 L -72.1022,-15.7764 L -72.0257,-15.3916 L -72,-15
 L -72.0257,-14.6084 L -72.1022,-14.2235 L -72.2284,-13.8519 L -72.4019,-13.5 L -72.6199,-13.1737 L -72.8787,-12.8787
 L -73.1737,-12.6199 L -73.5,-12.4019 L -73.8519,-12.2283 L -74.2235,-12.1022 L -74.6084,-12.0257 L -75,-12
 z
M 14.6084,-12.0257 L 14.2235,-12.1022 L 13.8519,-12.2283 L 13.5,-12.4019 L 13.1737,-12.6199 L 12.8787,-12.8787
 L 12.6199,-13.1737 L 12.4019,-13.5 L 12.2283,-13.8519 L 12.1022,-14.2235 L 12.0257,-14.6084 L 12,-15
 L 12.0257,-15.3916 L 12.1022,-15.7764 L 12.2283,-16.148 L 12.4019,-16.5 L 12.6199,-16.8263 L 12.8787,-17.1213
 L 13.1737,-17.3801 L 13.5,-17.5981 L 13.8519,-17.7716 L 14.2235,-17.8978 L 14.6084,-17.9743 L 15,-18
 L 15.3916,-17.9743 L 15.7764,-17.8978 L 16.148,-17.7716 L 16.5,-17.5981 L 16.8263,-17.3801 L 17.1213,-17.1213
 L 17.3801,-16.8263 L 17.5981,-16.5 L 17.7716,-16.148 L 17.8978,-15.7764 L 17.9743,-15.3916 L 18,-15
 L 17.9743,-14.6084 L 17.8978,-14.2235 L 17.7716,-13.8519 L 17.5981,-13.5 L 17.3801,-13.1737 L 17.1213,-12.8787
 L 16.8263,-12.6199 L 16.5,-12.4019 L 16.148,-12.2283 L 15.7764,-12.1022 L 15.3916,-12.0257 L 15,-12
 z
M 44.6084,-12.0257 L 44.2235,-12.1022 L 43.8519,-12.2283 L 43.5,-12.4019 L 43.1737,-12.6199 L 42.8787,-12.8787
 L 42.6199,-13.1737 L 42.4019,-13.5 L 42.2284,-13.8519 L 42.1022,-14.2235 L 42.0257,-14.6084 L 42,-15
 L 42.0257,-15.3916 L 42.1022,-15.7764 L 42.2284,-16.148 L 42.4019,-16.5 L 42.6199,-16.8263 L 42.8787,-17.1213
 L 43.1737,-17.3801 L 43.5,-17.5981 L 43.8519,-17.7716 L 44.2235,-17.8978 L 44.6084,-17.9743 L 45,-18
 L 45.3916,-17.9743 L 45.7765,-17.8978 L 46.148,-17.7716 L 46.5,-17.5981 L 46.8263,-17.3801 L 47.1213,-17.1213
 L 47.3801,-16.8263 L 47.5981,-16.5 L 47.7716,-16.148 L 47.8978,-15.7764 L 47.9743,-15.3916 L 48,-15
 L 47.9743,-14.6084 L 47.8978,-14.2235 L 47.7716,-13.8519 L 47.5981,-13.5 L 47.3801,-13.1737 L 47.1213,-12.8787
 L 46.8263,-12.6199 L 46.5,-12.4019 L 46.148,-12.2283 L 45.7765,-12.1022 L 45.3916,-12.0257 L 45,-12
 z
M -60.3916,-12.0257 L -60.7765,-12.1022 L -61.148,-12.2283 L -61.5,-12.4019 L -61.8263,-12.6199 L -62.1213,-12.8787
 L -62.3801,-13.1737 L -62.5981,-13.5 L -62.7716,-13.8519 L -62.8978,-14.2235 L -62.9743,-14.6084 L -63,-15
 L -62.9743,-15.3916 L -62.8978,-15.7764 L -62.7716,-16.148 L -62.5981,-16.5 L -62.3801,-16.8263 L -62.1213,-17.1213
 L -61.8263,-17.3801 L -61.5,-17.5981 L -61.148,-17.7716 L -60.7765,-17.8978 L -60.3916,-17.9743 L -60,-18
 L -59.6084,-17.9743 L -59.2235,-17.8978 L -58.8519,-17.7716 L -58.5,-17.5981 L -58.1737,-17.3801 L -57.8787,-17.1213
 L -57.6199,-16.8263 L -57.4019,-16.5 L -57.2284,-16.148 L -57.1022,-15.7764 L -57.0257,-15.3916 L -57,-15
 L -57.0257,-14.6084 L -57.1022,-14.2235 L -57.2284,-13.8519 L -57.4019,-13.5 L -57.6199,-13.1737 L -57.8787,-12.8787
 L -58.1737,-12.6199 L -58.5,-12.4019 L -58.8519,-12.2283 L -59.2235,-12.1022 L -59.6084,-12.0257 L -60,-12
 z
M 74.6084,-12.0257 L 74.2235,-12.1022 L 73.8519,-12.2283 L 73.5,-12.4019 L 73.1737,-12.6199 L 72.8787,-12.8787
 L 72.6199,-13.1737 L 72.4019,-13.5 L 72.2284,-13.8519 L 72.1022,-14.2235 L 72.0257,-14.6084 L 72,-15
 L 72.0257,-15.3916 L 72.1022,-15.7764 L 72.2284,-16.148 L 72.4019,-16.5 L 72.6199,-16.8263 L 72.8787,-17.1213
 L 73.1737,-17.3801 L 73.5,-17.5981 L 73.8519,-17.7716 L 74.2235,-17.8978 L 74.6084,-17.9743 L 75,-18
 L 75.3916,-17.9743 L 75.7765,-17.8978 L 76.148,-17.7716 L 76.5,-17.5981 L 76.8263,-17.3801 L 77.1213,-17.1213
 L 77.3801,-16.8263 L 77.5981,-16.5 L 77.7716,-16.148 L 77.8978,-15.7764 L 77.9743,-15.3916 L 78,-15
 L 77.9743,-14.6084 L 77.8978,-14.2235 L 77.7716,-13.8519 L 77.5981,-13.5 L 77.3801,-13.1737 L 77.1213,-12.8787
 L 76.8263,-12.6199 L 76.5,-12.4019 L 76.148,-12.2283 L 75.7765,-12.1022 L 75.3916,-12.0257 L 75,-12
 z
M -30.3916,-12.0257 L -30.7764,-12.1022 L -31.148,-12.2283 L -31.5,-12.4019 L -31.8263,-12.6199 L -32.1213,-12.8787
 L -32.3801,-13.1737 L -32.5981,-13.5 L -32.7716,-13.8519 L -32.8978,-14.2235 L -32.9743,-14.6084 L -33,-15
 L -32.9743,-15.3916 L -32.8978,-15.7764 L -32.7716,-16.148 L -32.5981,-16.5 L -32.3801,-16.8263 L -32.1213,-17.1213
 L -31.8263,-17.3801 L -31.5,-17.5981 L -31.148,-17.7716 L -30.7764,-17.8978 L -30.3916,-17.9743 L -30,-18
 L -29.6084,-17.9743 L -29.2235,-17.8978 L -28.8519,-17.7716 L -28.5,-17.5981 L -28.1737,-17.3801 L -27.8787,-17.1213
 L -27.6199,-16.8263 L -27.4019,-16.5 L -27.2283,-16.148 L -27.1022,-15.7764 L -27.0257,-15.3916 L -27,-15
 L -27.0257,-14.6084 L -27.1022,-14.2235 L -27.2283,-13.8519 L -27.4019,-13.5 L -27.6199,-13.1737 L -27.8787,-12.8787
 L -28.1737,-12.6199 L -28.5,-12.4019 L -28.8519,-12.2283 L -29.2235,-12.1022 L -29.6084,-12.0257 L -30,-12
 z
M -0.391571,-12.0257 L -0.776443,-12.1022 L -1.14804,-12.2283 L -1.5,-12.4019 L -1.82628,-12.6199 L -2.12131,-12.8787
 L -2.38005,-13.1737 L -2.59807,-13.5 L -2.77164,-13.8519 L -2.89777,-14.2235 L -2.97432,-14.6084 L -3,-15
 L -2.97432,-15.3916 L -2.89777,-15.7764 L -2.77164,-16.148 L -2.59807,-16.5 L -2.38005,-16.8263 L -2.12131,-17.1213
 L -1.82628,-17.3801 L -1.5,-17.5981 L -1.14804,-17.7716 L -0.776443,-17.8978 L -0.391571,-17.9743 L 0,-18
 L 0.391571,-17.9743 L 0.776443,-17.8978 L 1.14804,-17.7716 L 1.5,-17.5981 L 1.82628,-17.3801 L 2.12131,-17.1213
 L 2.38005,-16.8263 L 2.59807,-16.5 L 2.77164,-16.148 L 2.89777,-15.7764 L 2.97432,-15.3916 L 3,-15
 L 2.97432,-14.6084 L 2.89777,-14.2235 L 2.77164,-13.8519 L 2.59807,-13.5 L 2.38005,-13.1737 L 2.12131,-12.8787
 L 1.82628,-12.6199 L 1.5,-12.4019 L 1.14804,-12.2283 L 0.776443,-12.1022 L 0.391571,-12.0257 L 0,-12
 z
M -75.3916,2.97432 L -75.7765,2.89777 L -76.148,2.77164 L -76.5,2.59807 L -76.8263,2.38005 L -77.1213,2.12131
 L -77.3801,1.82628 L -77.5981,1.5 L -77.7716,1.14804 L -77.8978,0.776443 L -77.9743,0.391571 L -78,-0
 L -77.9743,-0.391571 L -77.8978,-0.776443 L -77.7716,-1.14804 L -77.5981,-1.5 L -77.3801,-1.82628 L -77.1213,-2.12131
 L -76.8263,-2.38005 L -76.5,-2.59807 L -76.148,-2.77164 L -75.7765,-2.89777 L -75.3916,-2.97432 L -75,-3
 L -74.6084,-2.97432 L -74.2235,-2.89777 L -73.8519,-2.77164 L -73.5,-2.59807 L -73.1737,-2.38005 L -72.8787,-2.12131
 L -72.6199,-1.82628 L -72.4019,-1.5 L -72.2284,-1.14804 L -72.1022,-0.776443 L -72.0257,-0.391571 L -72,-0
 L -72.0257,0.391571 L -72.1022,0.776443 L -72.2284,1.14804 L -72.4019,1.5 L -72.6199,1.82628 L -72.8787,2.12131
 L -73.1737,2.38005 L -73.5,2.59807 L -73.8519,2.77164 L -74.2235,2.89777 L -74.6084,2.97432 L -75,3
 z
M -60.3916,2.97432 L -60.7765,2.89777 L -61.148,2.77164 L -61.5,2.59807 L -61.8263,2.38005 L -62.1213,2.12131
 L -62.3801,1.82628 L -62.5981,1.5 L -62.7716,1.14804 L -62.8978,0.776443 L -62.9743,0.391571 L -63,-0
 L -62.9743,-0.391571 L -62.8978,-0.776443 L -62.7716,-1.14804 L -62.5981,-1.5 L -62.3801,-1.82628 L -62.1213,-2.12131
 L -61.8263,-2.38005 L -61.5,-2.59807 L -61.148,-2.77164 L -60.7765,-2.89777 L -60.3916,-2.97432 L -60,-3
 L -59.6084,-2.97432 L -59.2235,-2.89777 L -58.8519,-2.77164 L -58.5,-2.59807 L -58.1737,-2.38005 L -57.8787,-2.12131
 L -57.6199,-1.82628 L -57.4019,-1.5 L -57.2284,-1.14804 L -57.1022,-0.776443 L -57.0257,-0.391571 L -57,-0
 L -57.0257,0.391571 L -57.1022,0.776443 L -57.2284,1.14804 L -57.4019,1.5 L -57.6199,1.82628 L -57.8787,2.12131
 L -58.1737,2.38005 L -58.5,2.59807 L -58.8519,2.77164 L -59.2235,2.89777 L -59.6084,2.97432 L -60,3
 z
M 59.6084,2.97432 L 59.2235,2.89777 L 58.8519,2.77164 L 58.5,2.59807 L 58.1737,2.38005 L 57.8787,2.12131
 L 57.6199,1.82628 L 57.4019,1.5 L 57.2284,1.14804 L 57.1022,0.776443 L 57.0257,0.391571 L 57,-0
 L 57.0257,-0.391571 L 57.1022,-0.776443 L 57.2284,-1.14804 L 57.4019,-1.5 L 57.6199,-1.82628 L 57.8787,-2.12131
 L 58.1737,-2.38005 L 58.5,-2.59807 L 58.8519,-2.77164 L 59.2235,-2.89777 L 59.6084,-2.97432 L 60,-3
 L 60.3916,-2.97432 L 60.7765,-2.89777 L 61.148,-2.77164 L 61.5,-2.59807 L 61.8263,-2.38005 L 62.1213,-2.12131
 L 62.3801,-1.82628 L 62.5981,-1.5 L 62.7716,-1.14804 L 62.8978,-0.776443 L 62.9743,-0.391571 L 63,-0
 L 62.9743,0.391571 L 62.8978,0.776443 L 62.7716,1.14804 L 62.5981,1.5 L 62.3801,1.82628 L 62.1213,2.12131
 L 61.8263,2.38005 L 61.5,2.59807 L 61.148,2.77164 L 60.7765,2.89777 L 60.3916,2.97432 L 60,3
 z
M -45.3916,2.97432 L -45.7765,2.89777 L -46.148,2.77164 L -46.5,2.59807 L -46.8263,2.38005 L -47.1213,2.12131
 L -47.3801,1.82628 L -47.5981,1.5 L -47.7716,1.14804 L -47.8978,0.776443 L -47.9743,0.391571 L -48,-0
 L -47.9743,-0.391571 L -47.8978,-0.776443 L -47.7716,-1.14804 L -47.5981,-1.5 L -47.3801,-1.82628 L -47.1213,-2.12131
 L -46.8263,-2.38005 L -46.5,-2.59807 L -46.148,-2.77164 L -45.7765,-2.89777 L -45.3916,-2.97432 L -45,-3
 L -44.6084,-2.97432 L -44.2235,-2.89777 L -43.8519,-2.77164 L -43.5,-2.59807 L -43.1737,-2.38005 L -42.8787,-2.12131
 L -42.6199,-1.82628 L -42.4019,-1.5 L -42.2284,-1.14804 L -42.1022,-0.776443 L -42.0257,-0.391571 L -42,-0
 L -42.0257,0.391571 L -42.1022,0.776443 L -42.2284,1.14804 L -42.4019,1.5 L -42.6199,1.82628 L -42.8787,2.12131
 L -43.1737,2.38005 L -43.5,2.59807 L -43.8519,2.77164 L -44.2235,2.89777 L -44.6084,2.97432 L -45,3
 z
M 44.6084,2.97432 L 44.2235,2.89777 L 43.8519,2.77164 L 43.5,2.59807 L 43.1737,2.38005 L 42.8787,2.12131
 L 42.6199,1.82628 L 42.4019,1.5 L 42.2284,1.14804 L 42.1022,0.776443 L 42.0257,0.391571 L 42,-0
 L 42.0257,-0.391571 L 42.1022,-0.776443 L 42.2284,-1.14804 L 42.4019,-1.5 L 42.6199,-1.82628 L 42.8787,-2.12131
 L 43.1737,-2.38005 L 43.5,-2.59807 L 43.8519,-2.77164 L 44.2235,-2.89777 L 44.6084,-2.97432 L 45,-3
 L 45.3916,-2.97432 L 45.7765,-2.89777 L 46.148,-2.77164 L 46.5,-2.59807 L 46.8263,-2.38005 L 47.1213,-2.12131
 L 47.3801,-1.82628 L 47.5981,-1.5 L 47.7716,-1.14804 L 47.8978,-0.776443 L 47.9743,-0.391571 L 48,-0
 L 47.9743,0.391571 L 47.8978,0.776443 L 47.7716,1.14804 L 47.5981,1.5 L 47.3801,1.82628 L 47.1213,2.12131
 L 46.8263,2.38005 L 46.5,2.59807 L 46.148,2.77164 L 45.7765,2.89777 L 45.3916,2.97432 L 45,3
 z
M -16.5,-2.59807 L -16.148,-2.77164 L -15.7764,-2.89777 L -15.3916,-2.97432 L -15,-3 L -14.6084,-2.97432
 L -14.2235,-2.89777 L -13.8519,-2.77164 L -13.5,-2.59807 L -13.1737,-2.38005 L -12.8787,-2.12131 L -12.6199,-1.82628
 L -12.4019,-1.5 L -12.2283,-1.14804 L -12.1022,-0.776443 L -12.0257,-0.391571 L -12,-0 L -12.0257,0.391571
 L -12.1022,0.776443 L -12.2283,1.14804 L -12.4019,1.5 L -12.6199,1.82628 L -12.8787,2.12131 L -13.1737,2.38005
 L -13.5,2.59807 L -13.8519,2.77164 L -14.2235,2.89777 L -14.6084,2.97432 L -15,3 L -15.3916,2.97432
 L -15.7764,2.89777 L -16.148,2.77164 L -16.5,2.59807 L -16.8263,2.38005 L -17.1213,2.12131 L -17.3801,1.82628
 L -17.5981,1.5 L -17.7716,1.14804 L -17.8978,0.776443 L -17.9743,0.391571 L -18,-0 L -17.9743,-0.391571
 L -17.8978,-0.776443 L -17.7716,-1.14804 L -17.5981,-1.5 L -17.3801,-1.82628 L -17.1213,-2.12131 L -16.8263,-2.38005
 z
M 74.6084,2.97432 L 74.2235,2.89777 L 73.8519,2.77164 L 73.5,2.59807 L 73.1737,2.38005 L 72.8787,2.12131
 L 72.6199,1.82628 L 72.4019,1.5 L 72.2284,1.14804 L 72.1022,0.776443 L 72.0257,0.391571 L 72,-0
 L 72.0257,-0.391571 L 72.1022,-0.776443 L 72.2284,-1.14804 L 72.4019,-1.5 L 72.6199,-1.82628 L 72.8787,-2.12131
 L 73.1737,-2.38005 L 73.5,-2.59807 L 73.8519,-2.77164 L 74.2235,-2.89777 L 74.6084,-2.97432 L 75,-3
 L 75.3916,-2.97432 L 75.7765,-2.89777 L 76.148,-2.77164 L 76.5,-2.59807 L 76.8263,-2.38005 L 77.1213,-2.12131
 L 77.3801,-1.82628 L 77.5981,-1.5 L 77.7716,-1.14804 L 77.8978,-0.776443 L 77.9743,-0.391571 L 78,-0
 L 77.9743,0.391571 L 77.8978,0.776443 L 77.7716,1.14804 L 77.5981,1.5 L 77.3801,1.82628 L 77.1213,2.12131
 L 76.8263,2.38005 L 76.5,2.59807 L 76.148,2.77164 L 75.7765,2.89777 L 75.3916,2.97432 L 75,3
 z
M -0.391571,2.97432 L -0.776443,2.89777 L -1.14804,2.77164 L -1.5,2.59807 L -1.82628,2.38005 L -2.12131,2.12131
 L -2.38005,1.82628 L -2.59807,1.5 L -2.77164,1.14804 L -2.89777,0.776443 L -2.97432,0.391571 L -3,-0
 L -2.97432,-0.391571 L -2.89777,-0.776443 L -2.77164,-1.14804 L -2.59807,-1.5 L -2.38005,-1.82628 L -2.12131,-2.12131
 L -1.82628,-2.38005 L -1.5,-2.59807 L -1.14804,-2.77164 L -0.776443,-2.89777 L -0.391571,-2.97432 L 0,-3
 L 0.391571,-2.97432 L 0.776443,-2.89777 L 1.14804,-2.77164 L 1.5,-2.59807 L 1.82628,-2.38005 L 2.12131,-2.12131
 L 2.38005,-1.82628 L 2.59807,-1.5 L 2.77164,-1.14804 L 2.89777,-0.776443 L 2.97432,-0.391571 L 3,-0
 L 2.97432,0.391571 L 2.89777,0.776443 L 2.77164,1.14804 L 2.59807,1.5 L 2.38005,1.82628 L 2.12131,2.12131
 L 1.82628,2.38005 L 1.5,2.59807 L 1.14804,2.77164 L 0.776443,2.89777 L 0.391571,2.97432 L 0,3
 z
M 29.6084,2.97432 L 29.2235,2.89777 L 28.8519,2.77164 L 28.5,2.59807 L 28.1737,2.38005 L 27.8787,2.12131
 L 27.6199,1.82628 L 27.4019,1.5 L 27.2283,1.14804 L 27.1022,0.776443 L 27.0257,0.391571 L 27,-0
 L 27.0257,-0.391571 L 27.1022,-0.776443 L 27.2283,-1.14804 L 27.4019,-1.5 L 27.6199,-1.82628 L 27.8787,-2.12131
 L 28.1737,-2.38005 L 28.5,-2.59807 L 28.8519,-2.77164 L 29.2235,-2.89777 L 29.6084,-2.97432 L 30,-3
 L 30.3916,-2.97432 L 30.7764,-2.89777 L 31.148,-2.77164 L 31.5,-2.59807 L 31.8263,-2.38005 L 32.1213,-2.12131
 L 32.3801,-1.82628 L 32.5981,-1.5 L 32.7716,-1.14804 L 32.8978,-0.776443 L 32.9743,-0.391571 L 33,-0
 L 32.9743,0.391571 L 32.8978,0.776443 L 32.7716,1.14804 L 32.5981,1.5 L 32.3801,1.82628 L 32.1213,2.12131
 L 31.8263,2.38005 L 31.5,2.59807 L 31.148,2.77164 L 30.7764,2.89777 L 30.3916,2.97432 L 30,3
 z
M 14.6084,2.97432 L 14.2235,2.89777 L 13.8519,2.77164 L 13.5,2.59807 L 13.1737,2.38005 L 12.8787,2.12131
 L 12.6199,1.82628 L 12.4019,1.5 L 12.2283,1.14804 L 12.1022,0.776443 L 12.0257,0.391571 L 12,-0
 L 12.0257,-0.391571 L 12.1022,-0.776443 L 12.2283,-1.14804 L 12.4019,-1.5 L 12.6199,-1.82628 L 12.8787,-2.12131
 L 13.1737,-2.38005 L 13.5,-2.59807 L 13.8519,-2.77164 L 14.2235,-2.89777 L 14.6084,-2.97432 L 15,-3
 L 15.3916,-2.97432 L 15.7764,-2.89777 L 16.148,-2.77164 L 16.5,-2.59807 L 16.8263,-2.38005 L 17.1213,-2.12131
 L 17.3801,-1.82628 L 17.5981,-1.5 L 17.7716,-1.14804 L 17.8978,-0.776443 L 17.9743,-0.391571 L 18,-0
 L 17.9743,0.391571 L 17.8978,0.776443 L 17.7716,1.14804 L 17.5981,1.5 L 17.3801,1.82628 L 17.1213,2.12131
 L 16.8263,2.38005 L 16.5,2.59807 L 16.148,2.77164 L 15.7764,2.89777 L 15.3916,2.97432 L 15,3
 z
M 14.6084,17.9743 L 14.2235,17.8978 L 13.8519,17.7716 L 13.5,17.5981 L 13.1737,17.3801 L 12.8787,17.1213
 L 12.6199,16.8263 L 12.4019,16.5 L 12.2283,16.148 L 12.1022,15.7764 L 12.0257,15.3916 L 12,15
 L 12.0257,14.6084 L 12.1022,14.2235 L 12.2283,13.8519 L 12.4019,13.5 L 12.6199,13.1737 L 12.8787,12.8787
 L 13.1737,12.6199 L 13.5,12.4019 L 13.8519,12.2283 L 14.2235,12.1022 L 14.6084,12.0257 L 15,12
 L 15.3916,12.0257 L 15.7764,12.1022 L 16.148,12.2283 L 16.5,12.4019 L 16.8263,12.6199 L 17.1213,12.8787
 L 17.3801,13.1737 L 17.5981,13.5 L 17.7716,13.8519 L 17.8978,14.2235 L 17.9743,14.6084 L 18,15
 L 17.9743,15.3916 L 17.8978,15.7764 L 17.7716,16.148 L 17.5981,16.5 L 17.3801,16.8263 L 17.1213,17.1213
 L 16.8263,17.3801 L 16.5,17.5981 L 16.148,17.7716 L 15.7764,17.8978 L 15.3916,17.9743 L 15,18
 z
M -45.3916,17.9743 L -45.7765,17.8978 L -46.148,17.7716 L -46.5,17.5981 L -46.8263,17.3801 L -47.1213,17.1213
 L -47.3801,16.8263 L -47.5981,16.5 L -47.7716,16.148 L -47.8978,15.7764 L -47.9743,15.3916 L -48,15
 L -47.9743,14.6084 L -47.8978,14.2235 L -47.7716,13.8519 L -47.5981,13.5 L -47.3801,13.1737 L -47.1213,12.8787
 L -46.8263,12.6199 L -46.5,12.4019 L -46.148,12.2283 L -45.7765,12.1022 L -45.3916,12.0257 L -45,12
 L -44.6084,12.0257 L -44.2235,12.1022 L -43.8519,12.2283 L -43.5,12.4019 L -43.1737,12.6199 L -42.8787,12.8787
 L -42.6199,13.1737 L -42.4019,13.5 L -42.2284,13.8519 L -42.1022,14.2235 L -42.0257,14.6084 L -42,15
 L -42.0257,15.3916 L -42.1022,15.7764 L -42.2284,16.148 L -42.4019,16.5 L -42.6199,16.8263 L -42.8787,17.1213
 L -43.1737,17.3801 L -43.5,17.5981 L -43.8519,17.7716 L -44.2235,17.8978 L -44.6084,17.9743 L -45,18
 z
M -75.3916,17.9743 L -75.7765,17.8978 L -76.148,17.7716 L -76.5,17.5981 L -76.8263,17.3801 L -77.1213,17.1213
 L -77.3801,16.8263 L -77.5981,16.5 L -77.7716,16.148 L -77.8978,15.7764 L -77.9743,15.3916 L -78,15
 L -77.9743,14.6084 L -77.8978,14.2235 L -77.7716,13.8519 L -77.5981,13.5 L -77.3801,13.1737 L -77.1213,12.8787
 L -76.8263,12.6199 L -76.5,12.4019 L -76.148,12.2283 L -75.7765,12.1022 L -75.3916,12.0257 L -75,12
 L -74.6084,12.0257 L -74.2235,12.1022 L -73.8519,12.2283 L -73.5,12.4019 L -73.1737,12.6199 L -72.8787,12.8787
 L -72.6199,13.1737 L -72.4019,13.5 L -72.2284,13.8519 L -72.1022,14.2235 L -72.0257,14.6084 L -72,15
 L -72.0257,15.3916 L -72.1022,15.7764 L -72.2284,16.148 L -72.4019,16.5 L -72.6199,16.8263 L -72.8787,17.1213
 L -73.1737,17.3801 L -73.5,17.5981 L -73.8519,17.7716 L -74.2235,17.8978 L -74.6084,17.9743 L -75,18
 z
M 74.6084,17.9743 L 74.2235,17.8978 L 73.8519,17.7716 L 73.5,17.5981 L 73.1737,17.3801 L 72.8787,17.1213
 L 72.6199,16.8263 L 72.4019,16.5 L 72.2284,16.148 L 72.1022,15.7764 L 72.0257,15.3916 L 72,15
 L 72.0257,14.6084 L 72.1022,14.2235 L 72.2284,13.8519 L 72.4019,13.5 L 72.6199,13.1737 L 72.8787,12.8787
 L 73.1737,12.6199 L 73.5,12.4019 L 73.8519,12.2283 L 74.2235,12.1022 L 74.6084,12.0257 L 75,12
 L 75.3916,12.0257 L 75.7765,12.1022 L 76.148,12.2283 L 76.5,12.4019 L 76.8263,12.6199 L 77.1213,12.8787
 L 77.3801,13.1737 L 77.5981,13.5 L 77.7716,13.8519 L 77.8978,14.2235 L 77.9743,14.6084 L 78,15
 L 77.9743,15.3916 L 77.8978,15.7764 L 77.7716,16.148 L 77.5981,16.5 L 77.3801,16.8263 L 77.1213,17.1213
 L 76.8263,17.3801 L 76.5,17.5981 L 76.148,17.7716 L 75.7765,17.8978 L 75.3916,17.9743 L 75,18
 z
M 44.6084,17.9743 L 44.2235,17.8978 L 43.8519,17.7716 L 43.5,17.5981 L 43.1737,17.3801 L 42.8787,17.1213
 L 42.6199,16.8263 L 42.4019,16.5 L 42.2284,16.148 L 42.1022,15.7764 L 42.0257,15.3916 L 42,15
 L 42.0257,14.6084 L 42.1022,14.2235 L 42.2284,13.8519 L 42.4019,13.5 L 42.6199,13.1737 L 42.8787,12.8787
 L 43.1737,12.6199 L 43.5,12.4019 L 43.8519,12.2283 L 44.2235,12.1022 L 44.6084,12.0257 L 45,12
 L 45.3916,12.0257 L 45.7765,12.1022 L 46.148,12.2283 L 46.5,12.4019 L 46.8263,12.6199 L 47.1213,12.8787
 L 47.3801,13.1737 L 47.5981,13.5 L 47.7716,13.8519 L 47.8978,14.2235 L 47.9743,14.6084 L 48,15
 L 47.9743,15.3916 L 47.8978,15.7764 L 47.7716,16.148 L 47.5981,16.5 L 47.3801,16.8263 L 47.1213,17.1213
 L 46.8263,17.3801 L 46.5,17.5981 L 46.148,17.7716 L 45.7765,17.8978 L 45.3916,17.9743 L 45,18
 z
M 59.6084,17.9743 L 59.2235,17.8978 L 58.8519,17.7716 L 58.5,17.5981 L 58.1737,17.3801 L 57.8787,17.1213
 L 57.6199,16.8263 L 57.4019,16.5 L 57.2284,16.148 L 57.1022,15.7764 L 57.0257,15.3916 L 57,15
 L 57.0257,14.6084 L 57.1022,14.2235 L 57.2284,13.8519 L 57.4019,13.5 L 57.6199,13.1737 L 57.8787,12.8787
 L 58.1737,12.6199 L 58.5,12.4019 L 58.8519,12.2283 L 59.2235,12.1022 L 59.6084,12.0257 L 60,12
 L 60.3916,12.0257 L 60.7765,12.1022 L 61.148,12.2283 L 61.5,12.4019 L 61.8263,12.6199 L 62.1213,12.8787
 L 62.3801,13.1737 L 62.5981,13.5 L 62.7716,13.8519 L 62.8978,14.2235 L 62.9743,14.6084 L 63,15
 L 62.9743,15.3916 L 62.8978,15.7764 L 62.7716,16.148 L 62.5981,16.5 L 62.3801,16.8263 L 62.1213,17.1213
 L 61.8263,17.3801 L 61.5,17.5981 L 61.148,17.7716 L 60.7765,17.8978 L 60.3916,17.9743 L 60,18
 z
M -2.89777,14.2235 L -2.77164,13.8519 L -2.59807,13.5 L -2.38005,13.1737 L -2.12131,12.8787 L -1.82628,12.6199
 L -1.5,12.4019 L -1.14804,12.2283 L -0.776443,12.1022 L -0.391571,12.0257 L 0,12 L 0.391571,12.0257
 L 0.776443,12.1022 L 1.14804,12.2283 L 1.5,12.4019 L 1.82628,12.6199 L 2.12131,12.8787 L 2.38005,13.1737
 L 2.59807,13.5 L 2.77164,13.8519 L 2.89777,14.2235 L 2.97432,14.6084 L 3,15 L 2.97432,15.3916
 L 2.89777,15.7764 L 2.77164,16.148 L 2.59807,16.5 L 2.38005,16.8263 L 2.12131,17.1213 L 1.82628,17.3801
 L 1.5,17.5981 L 1.14804,17.7716 L 0.776443,17.8978 L 0.391571,17.9743 L 0,18 L -0.391571,17.9743
 L -0.776443,17.8978 L -1.14804,17.7716 L -1.5,17.5981 L -1.82628,17.3801 L -2.12131,17.1213 L -2.38005,16.8263
 L -2.59807,16.5 L -2.77164,16.148 L -2.89777,15.7764 L -2.97432,15.3916 L -3,15 L -2.97432,14.6084
 z
M -30.3916,17.9743 L -30.7764,17.8978 L -31.148,17.7716 L -31.5,17.5981 L -31.8263,17.3801 L -32.1213,17.1213
 L -32.3801,16.8263 L -32.5981,16.5 L -32.7716,16.148 L -32.8978,15.7764 L -32.9743,15.3916 L -33,15
 L -32.9743,14.6084 L -32.8978,14.2235 L -32.7716,13.8519 L -32.5981,13.5 L -32.3801,13.1737 L -32.1213,12.8787
 L -31.8263,12.6199 L -31.5,12.4019 L -31.148,12.2283 L -30.7764,12.1022 L -30.3916,12.0257 L -30,12
 L -29.6084,12.0257 L -29.2235,12.1022 L -28.8519,12.2283 L -28.5,12.4019 L -28.1737,12.6199 L -27.8787,12.8787
 L -27.6199,13.1737 L -27.4019,13.5 L -27.2283,13.8519 L -27.1022,14.2235 L -27.0257,14.6084 L -27,15
 L -27.0257,15.3916 L -27.1022,15.7764 L -27.2283,16.148 L -27.4019,16.5 L -27.6199,16.8263 L -27.8787,17.1213
 L -28.1737,17.3801 L -28.5,17.5981 L -28.8519,17.7716 L -29.2235,17.8978 L -29.6084,17.9743 L -30,18
 z
M 29.6084,17.9743 L 29.2235,17.8978 L 28.8519,17.7716 L 28.5,17.5981 L 28.1737,17.3801 L 27.8787,17.1213
 L 27.6199,16.8263 L 27.4019,16.5 L 27.2283,16.148 L 27.1022,15.7764 L 27.0257,15.3916 L 27,15
 L 27.0257,14.6084 L 27.1022,14.2235 L 27.2283,13.8519 L 27.4019,13.5 L 27.6199,13.1737 L 27.8787,12.8787
 L 28.1737,12.6199 L 28.5,12.4019 L 28.8519,12.2283 L 29.2235,12.1022 L 29.6084,12.0257 L 30,12
 L 30.3916,12.0257 L 30.7764,12.1022 L 31.148,12.2283 L 31.5,12.4019 L 31.8263,12.6199 L 32.1213,12.8787
 L 32.3801,13.1737 L 32.5981,13.5 L 32.7716,13.8519 L 32.8978,14.2235 L 32.9743,14.6084 L 33,15
 L 32.9743,15.3916 L 32.8978,15.7764 L 32.7716,16.148 L 32.5981,16.5 L 32.3801,16.8263 L 32.1213,17.1213
 L 31.8263,17.3801 L 31.5,17.5981 L 31.148,17.7716 L 30.7764,17.8978 L 30.3916,17.9743 L 30,18
 z
M -60.3916,17.9743 L -60.7765,17.8978 L -61.148,17.7716 L -61.5,17.5981 L -61.8263,17.3801 L -62.1213,17.1213
 L -62.3801,16.8263 L -62.5981,16.5 L -62.7716,16.148 L -62.8978,15.7764 L -62.9743,15.3916 L -63,15
 L -62.9743,14.6084 L -62.8978,14.2235 L -62.7716,13.8519 L -62.5981,13.5 L -62.3801,13.1737 L -62.1213,12.8787
 L -61.8263,12.6199 L -61.5,12.4019 L -61.148,12.2283 L -60.7765,12.1022 L -60.3916,12.0257 L -60,12
 L -59.6084,12.0257 L -59.2235,12.1022 L -58.8519,12.2283 L -58.5,12.4019 L -58.1737,12.6199 L -57.8787,12.8787
 L -57.6199,13.1737 L -57.4019,13.5 L -57.2284,13.8519 L -57.1022,14.2235 L -57.0257,14.6084 L -57,15
 L -57.0257,15.3916 L -57.1022,15.7764 L -57.2284,16.148 L -57.4019,16.5 L -57.6199,16.8263 L -57.8787,17.1213
 L -58.1737,17.3801 L -58.5,17.5981 L -58.8519,17.7716 L -59.2235,17.8978 L -59.6084,17.9743 L -60,18
 z
M -0.391571,32.9743 L -0.776443,32.8978 L -1.14804,32.7716 L -1.5,32.5981 L -1.82628,32.3801 L -2.12131,32.1213
 L -2.38005,31.8263 L -2.59807,31.5 L -2.77164,31.148 L -2.89777,30.7764 L -2.97432,30.3916 L -3,30
 L -2.97432,29.6084 L -2.89777,29.2235 L -2.77164,28.8519 L -2.59807,28.5 L -2.38005,28.1737 L -2.12131,27.8787
 L -1.82628,27.6199 L -1.5,27.4019 L -1.14804,27.2283 L -0.776443,27.1022 L -0.391571,27.0257 L 0,27
 L 0.391571,27.0257 L 0.776443,27.1022 L 1.14804,27.2283 L 1.5,27.4019 L 1.82628,27.6199 L 2.12131,27.8787
 L 2.38005,28.1737 L 2.59807,28.5 L 2.77164,28.8519 L 2.89777,29.2235 L 2.97432,29.6084 L 3,30
 L 2.97432,30.3916 L 2.89777,30.7764 L 2.77164,31.148 L 2.59807,31.5 L 2.38005,31.8263 L 2.12131,32.1213
 L 1.82628,32.3801 L 1.5,32.5981 L 1.14804,32.7716 L 0.776443,32.8978 L 0.391571,32.9743 L 0,33
 z
M -15.3916,32.9743 L -15.7764,32.8978 L -16.148,32.7716 L -16.5,32.5981 L -16.8263,32.3801 L -17.1213,32.1213
 L -17.3801,31.8263 L -17.5981,31.5 L -17.7716,31.148 L -17.8978,30.7764 L -17.9743,30.3916 L -18,30
 L -17.9743,29.6084 L -17.8978,29.2235 L -17.7716,28.8519 L -17.5981,28.5 L -17.3801,28.1737 L -17.1213,27.8787
 L -16.8263,27.6199 L -16.5,27.4019 L -16.148,27.2283 L -15.7764,27.1022 L -15.3916,27.0257 L -15,27
 L -14.6084,27.0257 L -14.2235,27.1022 L -13.8519,27.2283 L -13.5,27.4019 L -13.1737,27.6199 L -12.8787,27.8787
 L -12.6199,28.1737 L -12.4019,28.5 L -12.2283,28.8519 L -12.1022,29.2235 L -12.0257,29.6084 L -12,30
 L -12.0257,30.3916 L -12.1022,30.7764 L -12.2283,31.148 L -12.4019,31.5 L -12.6199,31.8263 L -12.8787,32.1213
 L -13.1737,32.3801 L -13.5,32.5981 L -13.8519,32.7716 L -14.2235,32.8978 L -14.6084,32.9743 L -15,33
 z
M -30.3916,32.9743 L -30.7764,32.8978 L -31.148,32.7716 L -31.5,32.5981 L -31.8263,32.3801 L -32.1213,32.1213
 L -32.3801,31.8263 L -32.5981,31.5 L -32.7716,31.148 L -32.8978,30.7764 L -32.9743,30.3916 L -33,30
 L -32.9743,29.6084 L -32.8978,29.2235 L -32.7716,28.8519 L -32.5981,28.5 L -32.3801,28.1737 L -32.1213,27.8787
 L -31.8263,27.6199 L -31.5,27.4019 L -31.148,27.2283 L -30.7764,27.1022 L -30.3916,27.0257 L -30,27
 L -29.6084,27.0257 L -29.2235,27.1022 L -28.8519,27.2283 L -28.5,27.4019 L -28.1737,27.6199 L -27.8787,27.8787
 L -27.6199,28.1737 L -27.4019,28.5 L -27.2283,28.8519 L -27.1022,29.2235 L -27.0257,29.6084 L -27,30
 L -27.0257,30.3916 L -27.1022,30.7764 L -27.2283,31.148 L -27.4019,31.5 L -27.6199,31.8263 L -27.8787,32.1213
 L -28.1737,32.3801 L -28.5,32.5981 L -28.8519,32.7716 L -29.2235,32.8978 L -29.6084,32.9743 L -30,33
 z
M -45.3916,32.9743 L -45.7765,32.8978 L -46.148,32.7716 L -46.5,32.5981 L -46.8263,32.3801 L -47.1213,32.1213
 L -47.3801,31.8263 L -47.5981,31.5 L -47.7716,31.148 L -47.8978,30.7764 L -47.9743,30.3916 L -48,30
 L -47.9743,29.6084 L -47.8978,29.2235 L -47.7716,28.8519 L -47.5981,28.5 L -47.3801,28.1737 L -47.1213,27.8787
 L -46.8263,27.6199 L -46.5,27.4019 L -46.148,27.2283 L -45.7765,27.1022 L -45.3916,27.0257 L -45,27
 L -44.6084,27.0257 L -44.2235,27.1022 L -43.8519,27.2283 L -43.5,27.4019 L -43.1737,27.6199 L -42.8787,27.8787
 L -42.6199,28.1737 L -42.4019,28.5 L -42.2284,28.8519 L -42.1022,29.2235 L -42.0257,29.6084 L -42,30
 L -42.0257,30.3916 L -42.1022,30.7764 L -42.2284,31.148 L -42.4019,31.5 L -42.6199,31.8263 L -42.8787,32.1213
 L -43.1737,32.3801 L -43.5,32.5981 L -43.8519,32.7716 L -44.2235,32.8978 L -44.6084,32.9743 L -45,33
 z
M -60.3916,32.9743 L -60.7765,32.8978 L -61.148,32.7716 L -61.5,32.5981 L -61.8263,32.3801 L -62.1213,32.1213
 L -62.3801,31.8263 L -62.5981,31.5 L -62.7716,31.148 L -62.8978,30.7764 L -62.9743,30.3916 L -63,30
 L -62.9743,29.6084 L -62.8978,29.2235 L -62.7716,28.8519 L -62.5981,28.5 L -62.3801,28.1737 L -62.1213,27.8787
 L -61.8263,27.6199 L -61.5,27.4019 L -61.148,27.2283 L -60.7765,27.1022 L -60.3916,27.0257 L -60,27
 L -59.6084,27.0257 L -59.2235,27.1022 L -58.8519,27.2283 L -58.5,27.4019 L -58.1737,27.6199 L -57.8787,27.8787
 L -57.6199,28.1737 L -57.4019,28.5 L -57.2284,28.8519 L -57.1022,29.2235 L -57.0257,29.6084 L -57,30
 L -57.0257,30.3916 L -57.1022,30.7764 L -57.2284,31.148 L -57.4019,31.5 L -57.6199,31.8263 L -57.8787,32.1213
 L -58.1737,32.3801 L -58.5,32.5981 L -58.8519,32.7716 L -59.2235,32.8978 L -59.6084,32.9743 L -60,33
 z
M 59.6084,32.9743 L 59.2235,32.8978 L 58.8519,32.7716 L 58.5,32.5981 L 58.1737,32.3801 L 57.8787,32.1213
 L 57.6199,31.8263 L 57.4019,31.5 L 57.2284,31.148 L 57.1022,30.7764 L 57.0257,30.3916 L 57,30
 L 57.0257,29.6084 L 57.1022,29.2235 L 57.2284,28.8519 L 57.4019,28.5 L 57.6199,28.1737 L 57.8787,27.8787
 L 58.1737,27.6199 L 58.5,27.4019 L 58.8519,27.2283 L 59.2235,27.1022 L 59.6084,27.0257 L 60,27
 L 60.3916,27.0257 L 60.7765,27.1022 L 61.148,27.2283 L 61.5,27.4019 L 61.8263,27.6199 L 62.1213,27.8787
 L 62.3801,28.1737 L 62.5981,28.5 L 62.7716,28.8519 L 62.8978,29.2235 L 62.9743,29.6084 L 63,30
 L 62.9743,30.3916 L 62.8978,30.7764 L 62.7716,31.148 L 62.5981,31.5 L 62.3801,31.8263 L 62.1213,32.1213
 L 61.8263,32.3801 L 61.5,32.5981 L 61.148,32.7716 L 60.7765,32.8978 L 60.3916,32.9743 L 60,33
 z
M 14.6084,32.9743 L 14.2235,32.8978 L 13.8519,32.7716 L 13.5,32.5981 L 13.1737,32.3801 L 12.8787,32.1213
 L 12.6199,31.8263 L 12.4019,31.5 L 12.2283,31.148 L 12.1022,30.7764 L 12.0257,30.3916 L 12,30
 L 12.0257,29.6084 L 12.1022,29.2235 L 12.2283,28.8519 L 12.4019,28.5 L 12.6199,28.1737 L 12.8787,27.8787
 L 13.1737,27.6199 L 13.5,27.4019 L 13.8519,27.2283 L 14.2235,27.1022 L 14.6084,27.0257 L 15,27
 L 15.3916,27.0257 L 15.7764,27.1022 L 16.148,27.2283 L 16.5,27.4019 L 16.8263,27.6199 L 17.1213,27.8787
 L 17.3801,28.1737 L 17.5981,28.5 L 17.7716,28.8519 L 17.8978,29.2235 L 17.9743,29.6084 L 18,30
 L 17.9743,30.3916 L 17.8978,30.7764 L 17.7716,31.148 L 17.5981,31.5 L 17.3801,31.8263 L 17.1213,32.1213
 L 16.8263,32.3801 L 16.5,32.5981 L 16.148,32.7716 L 15.7764,32.8978 L 15.3916,32.9743 L 15,33
 z
M 29.6084,32.9743 L 29.2235,32.8978 L 28.8519,32.7716 L 28.5,32.5981 L 28.1737,32.3801 L 27.8787,32.1213
 L 27.6199,31.8263 L 27.4019,31.5 L 27.2283,31.148 L 27.1022,30.7764 L 27.0257,30.3916 L 27,30
 L 27.0257,29.6084 L 27.1022,29.2235 L 27.2283,28.8519 L 27.4019,28.5 L 27.6199,28.1737 L 27.8787,27.8787
 L 28.1737,27.6199 L 28.5,27.4019 L 28.8519,27.2283 L 29.2235,27.1022 L 29.6084,27.0257 L 30,27
 L 30.3916,27.0257 L 30.7764,27.1022 L 31.148,27.2283 L 31.5,27.4019 L 31.8263,27.6199 L 32.1213,27.8787
 L 32.3801,28.1737 L 32.5981,28.5 L 32.7716,28.8519 L 32.8978,29.2235 L 32.9743,29.6084 L 33,30
 L 32.9743,30.3916 L 32.8978,30.7764 L 32.7716,31.148 L 32.5981,31.5 L 32.3801,31.8263 L 32.1213,32.1213
 L 31.8263,32.3801 L 31.5,32.5981 L 31.148,32.7716 L 30.7764,32.8978 L 30.3916,32.9743 L 30,33
 z
M 44.6084,32.9743 L 44.2235,32.8978 L 43.8519,32.7716 L 43.5,32.5981 L 43.1737,32.3801 L 42.8787,32.1213
 L 42.6199,31.8263 L 42.4019,31.5 L 42.2284,31.148 L 42.1022,30.7764 L 42.0257,30.3916 L 42,30
 L 42.0257,29.6084 L 42.1022,29.2235 L 42.2284,28.8519 L 42.4019,28.5 L 42.6199,28.1737 L 42.8787,27.8787
 L 43.1737,27.6199 L 43.5,27.4019 L 43.8519,27.2283 L 44.2235,27.1022 L 44.6084,27.0257 L 45,27
 L 45.3916,27.0257 L 45.7765,27.1022 L 46.148,27.2283 L 46.5,27.4019 L 46.8263,27.6199 L 47.1213,27.8787
 L 47.3801,28.1737 L 47.5981,28.5 L 47.7716,28.8519 L 47.8978,29.2235 L 47.9743,29.6084 L 48,30
 L 47.9743,30.3916 L 47.8978,30.7764 L 47.7716,31.148 L 47.5981,31.5 L 47.3801,31.8263 L 47.1213,32.1213
 L 46.8263,32.3801 L 46.5,32.5981 L 46.148,32.7716 L 45.7765,32.8978 L 45.3916,32.9743 L 45,33
 z
M -30.3916,47.9743 L -30.7764,47.8978 L -31.148,47.7716 L -31.5,47.5981 L -31.8263,47.3801 L -32.1213,47.1213
 L -32.3801,46.8263 L -32.5981,46.5 L -32.7716,46.148 L -32.8978,45.7765 L -32.9743,45.3916 L -33,45
 L -32.9743,44.6084 L -32.8978,44.2235 L -32.7716,43.8519 L -32.5981,43.5 L -32.3801,43.1737 L -32.1213,42.8787
 L -31.8263,42.6199 L -31.5,42.4019 L -31.148,42.2284 L -30.7764,42.1022 L -30.3916,42.0257 L -30,42
 L -29.6084,42.0257 L -29.2235,42.1022 L -28.8519,42.2284 L -28.5,42.4019 L -28.1737,42.6199 L -27.8787,42.8787
 L -27.6199,43.1737 L -27.4019,43.5 L -27.2283,43.8519 L -27.1022,44.2235 L -27.0257,44.6084 L -27,45
 L -27.0257,45.3916 L -27.1022,45.7765 L -27.2283,46.148 L -27.4019,46.5 L -27.6199,46.8263 L -27.8787,47.1213
 L -28.1737,47.3801 L -28.5,47.5981 L -28.8519,47.7716 L -29.2235,47.8978 L -29.6084,47.9743 L -30,48
 z
M 29.6084,47.9743 L 29.2235,47.8978 L 28.8519,47.7716 L 28.5,47.5981 L 28.1737,47.3801 L 27.8787,47.1213
 L 27.6199,46.8263 L 27.4019,46.5 L 27.2283,46.148 L 27.1022,45.7765 L 27.0257,45.3916 L 27,45
 L 27.0257,44.6084 L 27.1022,44.2235 L 27.2283,43.8519 L 27.4019,43.5 L 27.6199,43.1737 L 27.8787,42.8787
 L 28.1737,42.6199 L 28.5,42.4019 L 28.8519,42.2284 L 29.2235,42.1022 L 29.6084,42.0257 L 30,42
 L 30.3916,42.0257 L 30.7764,42.1022 L 31.148,42.2284 L 31.5,42.4019 L 31.8263,42.6199 L 32.1213,42.8787
 L 32.3801,43.1737 L 32.5981,43.5 L 32.7716,43.8519 L 32.8978,44.2235 L 32.9743,44.6084 L 33,45
 L 32.9743,45.3916 L 32.8978,45.7765 L 32.7716,46.148 L 32.5981,46.5 L 32.3801,46.8263 L 32.1213,47.1213
 L 31.8263,47.3801 L 31.5,47.5981 L 31.148,47.7716 L 30.7764,47.8978 L 30.3916,47.9743 L 30,48
 z
M 59.6084,47.9743 L 59.2235,47.8978 L 58.8519,47.7716 L 58.5,47.5981 L 58.1737,47.3801 L 57.8787,47.1213
 L 57.6199,46.8263 L 57.4019,46.5 L 57.2284,46.148 L 57.1022,45.7765 L 57.0257,45.3916 L 57,45
 L 57.0257,44.6084 L 57.1022,44.2235 L 57.2284,43.8519 L 57.4019,43.5 L 57.6199,43.1737 L 57.8787,42.8787
 L 58.1737,42.6199 L 58.5,42.4019 L 58.8519,42.2284 L 59.2235,42.1022 L 59.6084,42.0257 L 60,42
 L 60.3916,42.0257 L 60.7765,42.1022 L 61.148,42.2284 L 61.5,42.4019 L 61.8263,42.6199 L 62.1213,42.8787
 L 62.3801,43.1737 L 62.5981,43.5 L 62.7716,43.8519 L 62.8978,44.2235 L 62.9743,44.6084 L 63,45
 L 62.9743,45.3916 L 62.8978,45.7765 L 62.7716,46.148 L 62.5981,46.5 L 62.3801,46.8263 L 62.1213,47.1213
 L 61.8263,47.3801 L 61.5,47.5981 L 61.148,47.7716 L 60.7765,47.8978 L 60.3916,47.9743 L 60,48
 z
M -45.3916,47.9743 L -45.7765,47.8978 L -46.148,47.7716 L -46.5,47.5981 L -46.8263,47.3801 L -47.1213,47.1213
 L -47.3801,46.8263 L -47.5981,46.5 L -47.7716,46.148 L -47.8978,45.7765 L -47.9743,45.3916 L -48,45
 L -47.9743,44.6084 L -47.8978,44.2235 L -47.7716,43.8519 L -47.5981,43.5 L -47.3801,43.1737 L -47.1213,42.8787
 L -46.8263,42.6199 L -46.5,42.4019 L -46.148,42.2284 L -45.7765,42.1022 L -45.3916,42.0257 L -45,42
 L -44.6084,42.0257 L -44.2235,42.1022 L -43.8519,42.2284 L -43.5,42.4019 L -43.1737,42.6199 L -42.8787,42.8787
 L -42.6199,43.1737 L -42.4019,43.5 L -42.2284,43.8519 L -42.1022,44.2235 L -42.0257,44.6084 L -42,45
 L -42.0257,45.3916 L -42.1022,45.7765 L -42.2284,46.148 L -42.4019,46.5 L -42.6199,46.8263 L -42.8787,47.1213
 L -43.1737,47.3801 L -43.5,47.5981 L -43.8519,47.7716 L -44.2235,47.8978 L -44.6084,47.9743 L -45,48
 z
M -0.391571,47.9743 L -0.776443,47.8978 L -1.14804,47.7716 L -1.5,47.5981 L -1.82628,47.3801 L -2.12131,47.1213
 L -2.38005,46.8263 L -2.59807,46.5 L -2.77164,46.148 L -2.89777,45.7765 L -2.97432,45.3916 L -3,45
 L -2.97432,44.6084 L -2.89777,44.2235 L -2.77164,43.8519 L -2.59807,43.5 L -2.38005,43.1737 L -2.12131,42.8787
 L -1.82628,42.6199 L -1.5,42.4019 L -1.14804,42.2284 L -0.776443,42.1022 L -0.391571,42.0257 L 0,42
 L 0.391571,42.0257 L 0.776443,42.1022 L 1.14804,42.2284 L 1.5,42.4019 L 1.82628,42.6199 L 2.12131,42.8787
 L 2.38005,43.1737 L 2.59807,43.5 L 2.77164,43.8519 L 2.89777,44.2235 L 2.97432,44.6084 L 3,45
 L 2.97432,45.3916 L 2.89777,45.7765 L 2.77164,46.148 L 2.59807,46.5 L 2.38005,46.8263 L 2.12131,47.1213
 L 1.82628,47.3801 L 1.5,47.5981 L 1.14804,47.7716 L 0.776443,47.8978 L 0.391571,47.9743 L 0,48
 z
M 44.6084,47.9743 L 44.2235,47.8978 L 43.8519,47.7716 L 43.5,47.5981 L 43.1737,47.3801 L 42.8787,47.1213
 L 42.6199,46.8263 L 42.4019,46.5 L 42.2284,46.148 L 42.1022,45.7765 L 42.0257,45.3916 L 42,45
 L 42.0257,44.6084 L 42.1022,44.2235 L 42.2284,43.8519 L 42.4019,43.5 L 42.6199,43.1737 L 42.8787,42.8787
 L 43.1737,42.6199 L 43.5,42.4019 L 43.8519,42.2284 L 44.2235,42.1022 L 44.6084,42.0257 L 45,42
 L 45.3916,42.0257 L 45.7765,42.1022 L 46.148,42.2284 L 46.5,42.4019 L 46.8263,42.6199 L 47.1213,42.8787
 L 47.3801,43.1737 L 47.5981,43.5 L 47.7716,43.8519 L 47.8978,44.2235 L 47.9743,44.6084 L 48,45
 L 47.9743,45.3916 L 47.8978,45.7765 L 47.7716,46.148 L 47.5981,46.5 L 47.3801,46.8263 L 47.1213,47.1213
 L 46.8263,47.3801 L 46.5,47.5981 L 46.148,47.7716 L 45.7765,47.8978 L 45.3916,47.9743 L 45,48
 z
M 14.6084,47.9743 L 14.2235,47.8978 L 13.8519,47.7716 L 13.5,47.5981 L 13.1737,47.3801 L 12.8787,47.1213
 L 12.6199,46.8263 L 12.4019,46.5 L 12.2283,46.148 L 12.1022,45.7765 L 12.0257,45.3916 L 12,45
 L 12.0257,44.6084 L 12.1022,44.2235 L 12.2283,43.8519 L 12.4019,43.5 L 12.6199,43.1737 L 12.8787,42.8787
 L 13.1737,42.6199 L 13.5,42.4019 L 13.8519,42.2284 L 14.2235,42.1022 L 14.6084,42.0257 L 15,42
 L 15.3916,42.0257 L 15.7764,42.1022 L 16.148,42.2284 L 16.5,42.4019 L 16.8263,42.6199 L 17.1213,42.8787
 L 17.3801,43.1737 L 17.5981,43.5 L 17.7716,43.8519 L 17.8978,44.2235 L 17.9743,44.6084 L 18,45
 L 17.9743,45.3916 L 17.8978,45.7765 L 17.7716,46.148 L 17.5981,46.5 L 17.3801,46.8263 L 17.1213,47.1213
 L 16.8263,47.3801 L 16.5,47.5981 L 16.148,47.7716 L 15.7764,47.8978 L 15.3916,47.9743 L 15,48
 z
M -15.3916,47.9743 L -15.7764,47.8978 L -16.148,47.7716 L -16.5,47.5981 L -16.8263,47.3801 L -17.1213,47.1213
 L -17.3801,46.8263 L -17.5981,46.5 L -17.7716,46.148 L -17.8978,45.7765 L -17.9743,45.3916 L -18,45
 L -17.9743,44.6084 L -17.8978,44.2235 L -17.7716,43.8519 L -17.5981,43.5 L -17.3801,43.1737 L -17.1213,42.8787
 L -16.8263,42.6199 L -16.5,42.4019 L -16.148,42.2284 L -15.7764,42.1022 L -15.3916,42.0257 L -15,42
 L -14.6084,42.0257 L -14.2235,42.1022 L -13.8519,42.2284 L -13.5,42.4019 L -13.1737,42.6199 L -12.8787,42.8787
 L -12.6199,43.1737 L -12.4019,43.5 L -12.2283,43.8519 L -12.1022,44.2235 L -12.0257,44.6084 L -12,45
 L -12.0257,45.3916 L -12.1022,45.7765 L -12.2283,46.148 L -12.4019,46.5 L -12.6199,46.8263 L -12.8787,47.1213
 L -13.1737,47.3801 L -13.5,47.5981 L -13.8519,47.7716 L -14.2235,47.8978 L -14.6084,47.9743 L -15,48
 z
M -60.3916,47.9743 L -60.7765,47.8978 L -61.148,47.7716 L -61.5,47.5981 L -61.8263,47.3801 L -62.1213,47.1213
 L -62.3801,46.8263 L -62.5981,46.5 L -62.7716,46.148 L -62.8978,45.7765 L -62.9743,45.3916 L -63,45
 L -62.9743,44.6084 L -62.8978,44.2235 L -62.7716,43.8519 L -62.5981,43.5 L -62.3801,43.1737 L -62.1213,42.8787
 L -61.8263,42.6199 L -61.5,42.4019 L -61.148,42.2284 L -60.7765,42.1022 L -60.3916,42.0257 L -60,42
 L -59.6084,42.0257 L -59.2235,42.1022 L -58.8519,42.2284 L -58.5,42.4019 L -58.1737,42.6199 L -57.8787,42.8787
 L -57.6199,43.1737 L -57.4019,43.5 L -57.2284,43.8519 L -57.1022,44.2235 L -57.0257,44.6084 L -57,45
 L -57.0257,45.3916 L -57.1022,45.7765 L -57.2284,46.148 L -57.4019,46.5 L -57.6199,46.8263 L -57.8787,47.1213
 L -58.1737,47.3801 L -58.5,47.5981 L -58.8519,47.7716 L -59.2235,47.8978 L -59.6084,47.9743 L -60,48
 z
M 14.6084,62.9743 L 14.2235,62.8978 L 13.8519,62.7716 L 13.5,62.5981 L 13.1737,62.3801 L 12.8787,62.1213
 L 12.6199,61.8263 L 12.4019,61.5 L 12.2283,61.148 L 12.1022,60.7765 L 12.0257,60.3916 L 12,60
 L 12.0257,59.6084 L 12.1022,59.2235 L 12.2283,58.8519 L 12.4019,58.5 L 12.6199,58.1737 L 12.8787,57.8787
 L 13.1737,57.6199 L 13.5,57.4019 L 13.8519,57.2284 L 14.2235,57.1022 L 14.6084,57.0257 L 15,57
 L 15.3916,57.0257 L 15.7764,57.1022 L 16.148,57.2284 L 16.5,57.4019 L 16.8263,57.6199 L 17.1213,57.8787
 L 17.3801,58.1737 L 17.5981,58.5 L 17.7716,58.8519 L 17.8978,59.2235 L 17.9743,59.6084 L 18,60
 L 17.9743,60.3916 L 17.8978,60.7765 L 17.7716,61.148 L 17.5981,61.5 L 17.3801,61.8263 L 17.1213,62.1213
 L 16.8263,62.3801 L 16.5,62.5981 L 16.148,62.7716 L 15.7764,62.8978 L 15.3916,62.9743 L 15,63
 z
M -15.3916,62.9743 L -15.7764,62.8978 L -16.148,62.7716 L -16.5,62.5981 L -16.8263,62.3801 L -17.1213,62.1213
 L -17.3801,61.8263 L -17.5981,61.5 L -17.7716,61.148 L -17.8978,60.7765 L -17.9743,60.3916 L -18,60
 L -17.9743,59.6084 L -17.8978,59.2235 L -17.7716,58.8519 L -17.5981,58.5 L -17.3801,58.1737 L -17.1213,57.8787
 L -16.8263,57.6199 L -16.5,57.4019 L -16.148,57.2284 L -15.7764,57.1022 L -15.3916,57.0257 L -15,57
 L -14.6084,57.0257 L -14.2235,57.1022 L -13.8519,57.2284 L -13.5,57.4019 L -13.1737,57.6199 L -12.8787,57.8787
 L -12.6199,58.1737 L -12.4019,58.5 L -12.2283,58.8519 L -12.1022,59.2235 L -12.0257,59.6084 L -12,60
 L -12.0257,60.3916 L -12.1022,60.7765 L -12.2283,61.148 L -12.4019,61.5 L -12.6199,61.8263 L -12.8787,62.1213
 L -13.1737,62.3801 L -13.5,62.5981 L -13.8519,62.7716 L -14.2235,62.8978 L -14.6084,62.9743 L -15,63
 z
M 29.6084,62.9743 L 29.2235,62.8978 L 28.8519,62.7716 L 28.5,62.5981 L 28.1737,62.3801 L 27.8787,62.1213
 L 27.6199,61.8263 L 27.4019,61.5 L 27.2283,61.148 L 27.1022,60.7765 L 27.0257,60.3916 L 27,60
 L 27.0257,59.6084 L 27.1022,59.2235 L 27.2283,58.8519 L 27.4019,58.5 L 27.6199,58.1737 L 27.8787,57.8787
 L 28.1737,57.6199 L 28.5,57.4019 L 28.8519,57.2284 L 29.2235,57.1022 L 29.6084,57.0257 L 30,57
 L 30.3916,57.0257 L 30.7764,57.1022 L 31.148,57.2284 L 31.5,57.4019 L 31.8263,57.6199 L 32.1213,57.8787
 L 32.3801,58.1737 L 32.5981,58.5 L 32.7716,58.8519 L 32.8978,59.2235 L 32.9743,59.6084 L 33,60
 L 32.9743,60.3916 L 32.8978,60.7765 L 32.7716,61.148 L 32.5981,61.5 L 32.3801,61.8263 L 32.1213,62.1213
 L 31.8263,62.3801 L 31.5,62.5981 L 31.148,62.7716 L 30.7764,62.8978 L 30.3916,62.9743 L 30,63
 z
M -0.391571,62.9743 L -0.776443,62.8978 L -1.14804,62.7716 L -1.5,62.5981 L -1.82628,62.3801 L -2.12131,62.1213
 L -2.38005,61.8263 L -2.59807,61.5 L -2.77164,61.148 L -2.89777,60.7765 L -2.97432,60.3916 L -3,60
 L -2.97432,59.6084 L -2.89777,59.2235 L -2.77164,58.8519 L -2.59807,58.5 L -2.38005,58.1737 L -2.12131,57.8787
 L -1.82628,57.6199 L -1.5,57.4019 L -1.14804,57.2284 L -0.776443,57.1022 L -0.391571,57.0257 L 0,57
 L 0.391571,57.0257 L 0.776443,57.1022 L 1.14804,57.2284 L 1.5,57.4019 L 1.82628,57.6199 L 2.12131,57.8787
 L 2.38005,58.1737 L 2.59807,58.5 L 2.77164,58.8519 L 2.89777,59.2235 L 2.97432,59.6084 L 3,60
 L 2.97432,60.3916 L 2.89777,60.7765 L 2.77164,61.148 L 2.59807,61.5 L 2.38005,61.8263 L 2.12131,62.1213
 L 1.82628,62.3801 L 1.5,62.5981 L 1.14804,62.7716 L 0.776443,62.8978 L 0.391571,62.9743 L 0,63
 z
M 44.6084,62.9743 L 44.2235,62.8978 L 43.8519,62.7716 L 43.5,62.5981 L 43.1737,62.3801 L 42.8787,62.1213
 L 42.6199,61.8263 L 42.4019,61.5 L 42.2284,61.148 L 42.1022,60.7765 L 42.0257,60.3916 L 42,60
 L 42.0257,59.6084 L 42.1022,59.2235 L 42.2284,58.8519 L 42.4019,58.5 L 42.6199,58.1737 L 42.8787,57.8787
 L 43.1737,57.6199 L 43.5,57.4019 L 43.8519,57.2284 L 44.2235,57.1022 L 44.6084,57.0257 L 45,57
 L 45.3916,57.0257 L 45.7765,57.1022 L 46.148,57.2284 L 46.5,57.4019 L 46.8263,57.6199 L 47.1213,57.8787
 L 47.3801,58.1737 L 47.5981,58.5 L 47.7716,58.8519 L 47.8978,59.2235 L 47.9743,59.6084 L 48,60
 L 47.9743,60.3916 L 47.8978,60.7765 L 47.7716,61.148 L 47.5981,61.5 L 47.3801,61.8263 L 47.1213,62.1213
 L 46.8263,62.3801 L 46.5,62.5981 L 46.148,62.7716 L 45.7765,62.8978 L 45.3916,62.9743 L 45,63
 z
M -45.3916,62.9743 L -45.7765,62.8978 L -46.148,62.7716 L -46.5,62.5981 L -46.8263,62.3801 L -47.1213,62.1213
 L -47.3801,61.8263 L -47.5981,61.5 L -47.7716,61.148 L -47.8978,60.7765 L -47.9743,60.3916 L -48,60
 L -47.9743,59.6084 L -47.8978,59.2235 L -47.7716,58.8519 L -47.5981,58.5 L -47.3801,58.1737 L -47.1213,57.8787
 L -46.8263,57.6199 L -46.5,57.4019 L -46.148,57.2284 L -45.7765,57.1022 L -45.3916,57.0257 L -45,57
 L -44.6084,57.0257 L -44.2235,57.1022 L -43.8519,57.2284 L -43.5,57.4019 L -43.1737,57.6199 L -42.8787,57.8787
 L -42.6199,58.1737 L -42.4019,58.5 L -42.2284,58.8519 L -42.1022,59.2235 L -42.0257,59.6084 L -42,60
 L -42.0257,60.3916 L -42.1022,60.7765 L -42.2284,61.148 L -42.4019,61.5 L -42.6199,61.8263 L -42.8787,62.1213
 L -43.1737,62.3801 L -43.5,62.5981 L -43.8519,62.7716 L -44.2235,62.8978 L -44.6084,62.9743 L -45,63
 z
M -30.3916,62.9743 L -30.7764,62.8978 L -31.148,62.7716 L -31.5,62.5981 L -31.8263,62.3801 L -32.1213,62.1213
 L -32.3801,61.8263 L -32.5981,61.5 L -32.7716,61.148 L -32.8978,60.7765 L -32.9743,60.3916 L -33,60
 L -32.9743,59.6084 L -32.8978,59.2235 L -32.7716,58.8519 L -32.5981,58.5 L -32.3801,58.1737 L -32.1213,57.8787
 L -31.8263,57.6199 L -31.5,57.4019 L -31.148,57.2284 L -30.7764,57.1022 L -30.3916,57.0257 L -30,57
 L -29.6084,57.0257 L -29.2235,57.1022 L -28.8519,57.2284 L -28.5,57.4019 L -28.1737,57.6199 L -27.8787,57.8787
 L -27.6199,58.1737 L -27.4019,58.5 L -27.2283,58.8519 L -27.1022,59.2235 L -27.0257,59.6084 L -27,60
 L -27.0257,60.3916 L -27.1022,60.7765 L -27.2283,61.148 L -27.4019,61.5 L -27.6199,61.8263 L -27.8787,62.1213
 L -28.1737,62.3801 L -28.5,62.5981 L -28.8519,62.7716 L -29.2235,62.8978 L -29.6084,62.9743 L -30,63
 z
M -0.391571,77.9743 L -0.776443,77.8978 L -1.14804,77.7716 L -1.5,77.5981 L -1.82628,77.3801 L -2.12131,77.1213
 L -2.38005,76.8263 L -2.59807,76.5 L -2.77164,76.148 L -2.89777,75.7765 L -2.97432,75.3916 L -3,75
 L -2.97432,74.6084 L -2.89777,74.2235 L -2.77164,73.8519 L -2.59807,73.5 L -2.38005,73.1737 L -2.12131,72.8787
 L -1.82628,72.6199 L -1.5,72.4019 L -1.14804,72.2284 L -0.776443,72.1022 L -0.391571,72.0257 L 0,72
 L 0.391571,72.0257 L 0.776443,72.1022 L 1.14804,72.2284 L 1.5,72.4019 L 1.82628,72.6199 L 2.12131,72.8787
 L 2.38005,73.1737 L 2.59807,73.5 L 2.77164,73.8519 L 2.89777,74.2235 L 2.97432,74.6084 L 3,75
 L 2.97432,75.3916 L 2.89777,75.7765 L 2.77164,76.148 L 2.59807,76.5 L 2.38005,76.8263 L 2.12131,77.1213
 L 1.82628,77.3801 L 1.5,77.5981 L 1.14804,77.7716 L 0.776443,77.8978 L 0.391571,77.9743 L 0,78
 z
M 14.6084,77.9743 L 14.2235,77.8978 L 13.8519,77.7716 L 13.5,77.5981 L 13.1737,77.3801 L 12.8787,77.1213
 L 12.6199,76.8263 L 12.4019,76.5 L 12.2283,76.148 L 12.1022,75.7765 L 12.0257,75.3916 L 12,75
 L 12.0257,74.6084 L 12.1022,74.2235 L 12.2283,73.8519 L 12.4019,73.5 L 12.6199,73.1737 L 12.8787,72.8787
 L 13.1737,72.6199 L 13.5,72.4019 L 13.8519,72.2284 L 14.2235,72.1022 L 14.6084,72.0257 L 15,72
 L 15.3916,72.0257 L 15.7764,72.1022 L 16.148,72.2284 L 16.5,72.4019 L 16.8263,72.6199 L 17.1213,72.8787
 L 17.3801,73.1737 L 17.5981,73.5 L 17.7716,73.8519 L 17.8978,74.2235 L 17.9743,74.6084 L 18,75
 L 17.9743,75.3916 L 17.8978,75.7765 L 17.7716,76.148 L 17.5981,76.5 L 17.3801,76.8263 L 17.1213,77.1213
 L 16.8263,77.3801 L 16.5,77.5981 L 16.148,77.7716 L 15.7764,77.8978 L 15.3916,77.9743 L 15,78
 z
M -15.3916,77.9743 L -15.7764,77.8978 L -16.148,77.7716 L -16.5,77.5981 L -16.8263,77.3801 L -17.1213,77.1213
 L -17.3801,76.8263 L -17.5981,76.5 L -17.7716,76.148 L -17.8978,75.7765 L -17.9743,75.3916 L -18,75
 L -17.9743,74.6084 L -17.8978,74.2235 L -17.7716,73.8519 L -17.5981,73.5 L -17.3801,73.1737 L -17.1213,72.8787
 L -16.8263,72.6199 L -16.5,72.4019 L -16.148,72.2284 L -15.7764,72.1022 L -15.3916,72.0257 L -15,72
 L -14.6084,72.0257 L -14.2235,72.1022 L -13.8519,72.2284 L -13.5,72.4019 L -13.1737,72.6199 L -12.8787,72.8787
 L -12.6199,73.1737 L -12.4019,73.5 L -12.2283,73.8519 L -12.1022,74.2235 L -12.0257,74.6084 L -12,75
 L -12.0257,75.3916 L -12.1022,75.7765 L -12.2283,76.148 L -12.4019,76.5 L -12.6199,76.8263 L -12.8787,77.1213
 L -13.1737,77.3801 L -13.5,77.5981 L -13.8519,77.7716 L -14.2235,77.8978 L -14.6084,77.9743 L -15,78
 z
M -27.4019,-1.5 L -27.2283,-1.14804 L -27.1022,-0.776443 L -27.0257,-0.391571 L -27,-0 L -27.0257,0.391571
 L -27.1022,0.776443 L -27.2283,1.14804 L -27.4019,1.5 L -27.6199,1.82628 L -27.8787,2.12131 L -28.1737,2.38005
 L -28.5,2.59807 L -28.8519,2.77164 L -29.2235,2.89777 L -29.6084,2.97432 L -30,3 L -30.3916,2.97432
 L -30.7764,2.89777 L -31.148,2.77164 L -31.5,2.59807 L -31.8263,2.38005 L -32.1213,2.12131 L -32.3801,1.82628
 L -32.5981,1.5 L -32.7716,1.14804 L -32.8978,0.776443 L -32.9743,0.391571 L -33,-0 L -32.9743,-0.391571
 L -32.8978,-0.776443 L -32.7716,-1.14804 L -32.5981,-1.5 L -32.3801,-1.82628 L -32.1213,-2.12131 L -31.8263,-2.38005
 L -31.5,-2.59807 L -31.148,-2.77164 L -30.7764,-2.89777 L -30.3916,-2.97432 L -30,-3 L -29.6084,-2.97432
 L -29.2235,-2.89777 L -28.8519,-2.77164 L -28.5,-2.59807 L -28.1737,-2.38005 L -27.8787,-2.12131 L -27.6199,-1.82628
 z
M -12.1022,15.7764 L -12.2283,16.148 L -12.4019,16.5 L -12.6199,16.8263 L -12.8787,17.1213 L -13.1737,17.3801
 L -13.5,17.5981 L -13.8519,17.7716 L -14.2235,17.8978 L -14.6084,17.9743 L -15,18 L -15.3916,17.9743
 L -15.7764,17.8978 L -16.148,17.7716 L -16.5,17.5981 L -16.8263,17.3801 L -17.1213,17.1213 L -17.3801,16.8263
 L -17.5981,16.5 L -17.7716,16.148 L -17.8978,15.7764 L -17.9743,15.3916 L -18,15 L -17.9743,14.6084
 L -17.8978,14.2235 L -17.7716,13.8519 L -17.5981,13.5 L -17.3801,13.1737 L -17.1213,12.8787 L -16.8263,12.6199
 L -16.5,12.4019 L -16.148,12.2283 L -15.7764,12.1022 L -15.3916,12.0257 L -15,12 L -14.6084,12.0257
 L -14.2235,12.1022 L -13.8519,12.2283 L -13.5,12.4019 L -13.1737,12.6199 L -12.8787,12.8787 L -12.6199,13.1737
 L -12.4019,13.5 L -12.2283,13.8519 L -12.1022,14.2235 L -12.0257,14.6084 L -12,15 L -12.0257,15.3916
 z
" stroke="black" fill="lightgray" stroke-width="0.5"/>
</svg>
