<?xml version="1.0" standalone="no"?>
<!DOCTYPE svg PUBLIC "-//W3C//DTD SVG 1.1//EN" "http://www.w3.org/Graphics/SVG/1.1/DTD/svg11.dtd">
<svg width="132mm" height="132mm" viewBox="-66 -66 132 132" xmlns="http://www.w3.org/2000/svg" version="1.1">
<title>OpenSCAD Model</title>
<path d="
M 12.3672,64.8309 L 20.3951,62.7697 L 28.1014,59.7186 L 35.3646,55.7256 L 42.07,50.8539 L 48.1119,45.1801
 L 53.3951,38.7938 L 57.8362,31.7957 L 61.3652,24.2962 L 63.9265,16.4135 L 65.4796,8.27199 L 66,-0
 L 65.4796,-8.27199 L 63.9265,-16.4135 L 61.3652,-24.2962 L 57.8362,-31.7957 L 53.3951,-38.7938 L 48.1119,-45.1801
 L 42.07,-50.8539 L 35.3646,-55.7256 L 28.1014,-59.7186 L 20.3951,-62.7697 L 12.3672,-64.8309 L 4.14417,-65.8698
 L -4.14417,-65.8698 L -12.3672,-64.8309 L -20.3951,-62.7697 L -28.1014,-59.7186 L -35.3646,-55.7256 L -42.07,-50.8539
 L -48.1119,-45.1801 L -53.3951,-38.7938 L -57.8362,-31.7957 L -61.3652,-24.2962 L -63.9265,-16.4135 L -65.4796,-8.27199
 L -66,-0 L -65.4796,8.27199 L -63.9265,16.4135 L -61.3652,24.2962 L -57.8362,31.7957 L -53.3951,38.7938
 L -48.1119,45.1801 L -42.07,50.8539 L -35.3646,55.7256 L -28.1014,59.7186 L -20.3951,62.7697 L -12.3672,64.8309
 L -4.14417,65.8698 L 4.14417,65.8698 z
M -0.18837,-57.0059 L -0.562134,-57.0531 L -0.927048,-57.1468 L -1.27733,-57.2855 L -1.60747,-57.467 L -1.91226,-57.6884
 L -2.1869,-57.9464 L -2.42705,-58.2366 L -2.62891,-58.5547 L -2.78932,-58.8956 L -2.90575,-59.2539 L -2.97633,-59.624
 L -3,-60 L -2.97633,-60.376 L -2.90575,-60.7461 L -2.78932,-61.1044 L -2.62891,-61.4453 L -2.42705,-61.7634
 L -2.1869,-62.0536 L -1.91226,-62.3115 L -1.60747,-62.533 L -1.27733,-62.7145 L -0.927048,-62.8532 L -0.562134,-62.9469
 L -0.18837,-62.9941 L 0.18837,-62.9941 L 0.562134,-62.9469 L 0.927048,-62.8532 L 1.27733,-62.7145 L 1.60747,-62.533
 L 1.91226,-62.3115 L 2.1869,-62.0536 L 2.42705,-61.7634 L 2.62891,-61.4453 L 2.78932,-61.1044 L 2.90575,-60.7461
 L 2.97633,-60.376 L 3,-60 L 2.97633,-59.624 L 2.90575,-59.2539 L 2.78932,-58.8956 L 2.62891,-58.5547
 L 2.42705,-58.2366 L 2.1869,-57.9464 L 1.91226,-57.6884 L 1.60747,-57.467 L 1.27733,-57.2855 L 0.927048,-57.1468
 L 0.562134,-57.0531 L 0.18837,-57.0059 z
M -30.1884,-42.0059 L -30.5621,-42.0531 L -30.927,-42.1468 L -31.2773,-42.2855 L -31.6075,-42.467 L -31.9123,-42.6884
 L -32.1869,-42.9464 L -32.427,-43.2366 L -32.6289,-43.5547 L -32.7893,-43.8956 L -32.9057,-44.2539 L -32.9763,-44.624
 L -33,-45 L -32.9763,-45.376 L -32.9057,-45.7461 L -32.7893,-46.1044 L -32.6289,-46.4453 L -32.427,-46.7634
 L -32.1869,-47.0536 L -31.9123,-47.3115 L -31.6075,-47.533 L -31.2773,-47.7145 L -30.927,-47.8532 L -30.5621,-47.9469
 L -30.1884,-47.9941 L -29.8116,-47.9941 L -29.4379,-47.9469 L -29.0729,-47.8532 L -28.7227,-47.7145 L -28.3925,-47.533
 L -28.0877,-47.3115 L -27.8131,-47.0536 L -27.5729,-46.7634 L -27.3711,-46.4453 L -27.2107,-46.1044 L -27.0942,-45.7461
 L -27.0237,-45.376 L -27,-45 L -27.0237,-44.624 L -27.0942,-44.2539 L -27.2107,-43.8956 L -27.3711,-43.5547
 L -27.5729,-43.2366 L -27.8131,-42.9464 L -28.0877,-42.6884 L -28.3925,-42.467 L -28.7227,-42.2855 L -29.0729,-42.1468
 L -29.4379,-42.0531 L -29.8116,-42.0059 z
M 14.8116,-42.0059 L 14.4379,-42.0531 L 14.0729,-42.1468 L 13.7227,-42.2855 L 13.3925,-42.467 L 13.0877,-42.6884
 L 12.8131,-42.9464 L 12.5729,-43.2366 L 12.3711,-43.5547 L 12.2107,-43.8956 L 12.0942,-44.2539 L 12.0237,-44.624
 L 12,-45 L 12.0237,-45.376 L 12.0942,-45.7461 L 12.2107,-46.1044 L 12.3711,-46.4453 L 12.5729,-46.7634
 L 12.8131,-47.0536 L 13.0877,-47.3115 L 13.3925,-47.533 L 13.7227,-47.7145 L 14.0729,-47.8532 L 14.4379,-47.9469
 L 14.8116,-47.9941 L 15.1884,-47.9941 L 15.5621,-47.9469 L 15.927,-47.8532 L 16.2773,-47.7145 L 16.6075,-47.533
 L 16.9123,-47.3115 L 17.1869,-47.0536 L 17.427,-46.7634 L 17.6289,-46.4453 L 17.7893,-46.1044 L 17.9057,-45.7461
 L 17.9763,-45.376 L 18,-45 L 17.9763,-44.624 L 17.9057,-44.2539 L 17.7893,-43.8956 L 17.6289,-43.5547
 L 17.427,-43.2366 L 17.1869,-42.9464 L 16.9123,-42.6884 L 16.6075,-42.467 L 16.2773,-42.2855 L 15.927,-42.1468
 L 15.5621,-42.0531 L 15.1884,-42.0059 z
M -0.18837,-42.0059 L -0.562134,-42.0531 L -0.927048,-42.1468 L -1.27733,-42.2855 L -1.60747,-42.467 L -1.91226,-42.6884
 L -2.1869,-42.9464 L -2.42705,-43.2366 L -2.62891,-43.5547 L -2.78932,-43.8956 L -2.90575,-44.2539 L -2.97633,-44.624
 L -3,-45 L -2.97633,-45.376 L -2.90575,-45.7461 L -2.78932,-46.1044 L -2.62891,-46.4453 L -2.42705,-46.7634
 L -2.1869,-47.0536 L -1.91226,-47.3115 L -1.60747,-47.533 L -1.27733,-47.7145 L -0.927048,-47.8532 L -0.562134,-47.9469
 L -0.18837,-47.9941 L 0.18837,-47.9941 L 0.562134,-47.9469 L 0.927048,-47.8532 L 1.27733,-47.7145 L 1.60747,-47.533
 L 1.91226,-47.3115 L 2.1869,-47.0536 L 2.42705,-46.7634 L 2.62891,-46.4453 L 2.78932,-46.1044 L 2.90575,-45.7461
 L 2.97633,-45.376 L 3,-45 L 2.97633,-44.624 L 2.90575,-44.2539 L 2.78932,-43.8956 L 2.62891,-43.5547
 L 2.42705,-43.2366 L 2.1869,-42.9464 L 1.91226,-42.6884 L 1.60747,-42.467 L 1.27733,-42.2855 L 0.927048,-42.1468
 L 0.562134,-42.0531 L 0.18837,-42.0059 z
M -15.1884,-42.0059 L -15.5621,-42.0531 L -15.927,-42.1468 L -16.2773,-42.2855 L -16.6075,-42.467 L -16.9123,-42.6884
 L -17.1869,-42.9464 L -17.427,-43.2366 L -17.6289,-43.5547 L -17.7893,-43.8956 L -17.9057,-44.2539 L -17.9763,-44.624
 L -18,-45 L -17.9763,-45.376 L -17.9057,-45.7461 L -17.7893,-46.1044 L -17.6289,-46.4453 L -17.427,-46.7634
 L -17.1869,-47.0536 L -16.9123,-47.3115 L -16.6075,-47.533 L -16.2773,-47.7145 L -15.927,-47.8532 L -15.5621,-47.9469
 L -15.1884,-47.9941 L -14.8116,-47.9941 L -14.4379,-47.9469 L -14.0729,-47.8532 L -13.7227,-47.7145 L -13.3925,-47.533
 L -13.0877,-47.3115 L -12.8131,-47.0536 L -12.5729,-46.7634 L -12.3711,-46.4453 L -12.2107,-46.1044 L -12.0942,-45.7461
 L -12.0237,-45.376 L -12,-45 L -12.0237,-44.624 L -12.0942,-44.2539 L -12.2107,-43.8956 L -12.3711,-43.5547
 L -12.5729,-43.2366 L -12.8131,-42.9464 L -13.0877,-42.6884 L -13.3925,-42.467 L -13.7227,-42.2855 L -14.0729,-42.1468
 L -14.4379,-42.0531 L -14.8116,-42.0059 z
M 29.8116,-42.0059 L 29.4379,-42.0531 L 29.0729,-42.1468 L 28.7227,-42.2855 L 28.3925,-42.467 L 28.0877,-42.6884
 L 27.8131,-42.9464 L 27.5729,-43.2366 L 27.3711,-43.5547 L 27.2107,-43.8956 L 27.0942,-44.2539 L 27.0237,-44.624
 L 27,-45 L 27.0237,-45.376 L 27.0942,-45.7461 L 27.2107,-46.1044 L 27.3711,-46.4453 L 27.5729,-46.7634
 L 27.8131,-47.0536 L 28.0877,-47.3115 L 28.3925,-47.533 L 28.7227,-47.7145 L 29.0729,-47.8532 L 29.4379,-47.9469
 L 29.8116,-47.9941 L 30.1884,-47.9941 L 30.5621,-47.9469 L 30.927,-47.8532 L 31.2773,-47.7145 L 31.6075,-47.533
 L 31.9123,-47.3115 L 32.1869,-47.0536 L 32.427,-46.7634 L 32.6289,-46.4453 L 32.7893,-46.1044 L 32.9057,-45.7461
 L 32.9763,-45.376 L 33,-45 L 32.9763,-44.624 L 32.9057,-44.2539 L 32.7893,-43.8956 L 32.6289,-43.5547
 L 32.427,-43.2366 L 32.1869,-42.9464 L 31.9123,-42.6884 L 31.6075,-42.467 L 31.2773,-42.2855 L 30.927,-42.1468
 L 30.5621,-42.0531 L 30.1884,-42.0059 z
M 44.8116,-27.0059 L 44.4379,-27.0531 L 44.0729,-27.1468 L 43.7227,-27.2855 L 43.3925,-27.467 L 43.0877,-27.6884
 L 42.8131,-27.9464 L 42.5729,-28.2366 L 42.3711,-28.5547 L 42.2107,-28.8956 L 42.0942,-29.2539 L 42.0237,-29.624
 L 42,-30 L 42.0237,-30.376 L 42.0942,-30.7461 L 42.2107,-31.1044 L 42.3711,-31.4453 L 42.5729,-31.7634
 L 42.8131,-32.0536 L 43.0877,-32.3115 L 43.3925,-32.533 L 43.7227,-32.7145 L 44.0729,-32.8532 L 44.4379,-32.9469
 L 44.8116,-32.9941 L 45.1884,-32.9941 L 45.5621,-32.9469 L 45.927,-32.8532 L 46.2773,-32.7145 L 46.6075,-32.533
 L 46.9123,-32.3115 L 47.1869,-32.0536 L 47.427,-31.7634 L 47.6289,-31.4453 L 47.7893,-31.1044 L 47.9057,-30.7461
 L 47.9763,-30.376 L 48,-30 L 47.9763,-29.624 L 47.9057,-29.2539 L 47.7893,-28.8956 L 47.6289,-28.5547
 L 47.427,-28.2366 L 47.1869,-27.9464 L 46.9123,-27.6884 L 46.6075,-27.467 L 46.2773,-27.2855 L 45.927,-27.1468
 L 45.5621,-27.0531 L 45.1884,-27.0059 z
M -30.1884,-27.0059 L -30.5621,-27.0531 L -30.927,-27.1468 L -31.2773,-27.2855 L -31.6075,-27.467 L -31.9123,-27.6884
 L -32.1869,-27.9464 L -32.427,-28.2366 L -32.6289,-28.5547 L -32.7893,-28.8956 L -32.9057,-29.2539 L -32.9763,-29.624
 L -33,-30 L -32.9763,-30.376 L -32.9057,-30.7461 L -32.7893,-31.1044 L -32.6289,-31.4453 L -32.427,-31.7634
 L -32.1869,-32.0536 L -31.9123,-32.3115 L -31.6075,-32.533 L -31.2773,-32.7145 L -30.927,-32.8532 L -30.5621,-32.9469
 L -30.1884,-32.9941 L -29.8116,-32.9941 L -29.4379,-32.9469 L -29.0729,-32.8532 L -28.7227,-32.7145 L -28.3925,-32.533
 L -28.0877,-32.3115 L -27.8131,-32.0536 L -27.5729,-31.7634 L -27.3711,-31.4453 L -27.2107,-31.1044 L -27.0942,-30.7461
 L -27.0237,-30.376 L -27,-30 L -27.0237,-29.624 L -27.0942,-29.2539 L -27.2107,-28.8956 L -27.3711,-28.5547
 L -27.5729,-28.2366 L -27.8131,-27.9464 L -28.0877,-27.6884 L -28.3925,-27.467 L -28.7227,-27.2855 L -29.0729,-27.1468
 L -29.4379,-27.0531 L -29.8116,-27.0059 z
M -45.1884,-27.0059 L -45.5621,-27.0531 L -45.927,-27.1468 L -46.2773,-27.2855 L -46.6075,-27.467 L -46.9123,-27.6884
 L -47.1869,-27.9464 L -47.427,-28.2366 L -47.6289,-28.5547 L -47.7893,-28.8956 L -47.9057,-29.2539 L -47.9763,-29.624
 L -48,-30 L -47.9763,-30.376 L -47.9057,-30.7461 L -47.7893,-31.1044 L -47.6289,-31.4453 L -47.427,-31.7634
 L -47.1869,-32.0536 L -46.9123,-32.3115 L -46.6075,-32.533 L -46.2773,-32.7145 L -45.927,-32.8532 L -45.5621,-32.9469
 L -45.1884,-32.9941 L -44.8116,-32.9941 L -44.4379,-32.9469 L -44.0729,-32.8532 L -43.7227,-32.7145 L -43.3925,-32.533
 L -43.0877,-32.3115 L -42.8131,-32.0536 L -42.5729,-31.7634 L -42.3711,-31.4453 L -42.2107,-31.1044 L -42.0942,-30.7461
 L -42.0237,-30.376 L -42,-30 L -42.0237,-29.624 L -42.0942,-29.2539 L -42.2107,-28.8956 L -42.3711,-28.5547
 L -42.5729,-28.2366 L -42.8131,-27.9464 L -43.0877,-27.6884 L -43.3925,-27.467 L -43.7227,-27.2855 L -44.0729,-27.1468
 L -44.4379,-27.0531 L -44.8116,-27.0059 z
M -15.1884,-27.0059 L -15.5621,-27.0531 L -15.927,-27.1468 L -16.2773,-27.2855 L -16.6075,-27.467 L -16.9123,-27.6884
 L -17.1869,-27.9464 L -17.427,-28.2366 L -17.6289,-28.5547 L -17.7893,-28.8956 L -17.9057,-29.2539 L -17.9763,-29.624
 L -18,-30 L -17.9763,-30.376 L -17.9057,-30.7461 L -17.7893,-31.1044 L -17.6289,-31.4453 L -17.427,-31.7634
 L -17.1869,-32.0536 L -16.9123,-32.3115 L -16.6075,-32.533 L -16.2773,-32.7145 L -15.927,-32.8532 L -15.5621,-32.9469
 L -15.1884,-32.9941 L -14.8116,-32.9941 L -14.4379,-32.9469 L -14.0729,-32.8532 L -13.7227,-32.7145 L -13.3925,-32.533
 L -13.0877,-32.3115 L -12.8131,-32.0536 L -12.5729,-31.7634 L -12.3711,-31.4453 L -12.2107,-31.1044 L -12.0942,-30.7461
 L -12.0237,-30.376 L -12,-30 L -12.0237,-29.624 L -12.0942,-29.2539 L -12.2107,-28.8956 L -12.3711,-28.5547
 L -12.5729,-28.2366 L -12.8131,-27.9464 L -13.0877,-27.6884 L -13.3925,-27.467 L -13.7227,-27.2855 L -14.0729,-27.1468
 L -14.4379,-27.0531 L -14.8116,-27.0059 z
M -0.18837,-27.0059 L -0.562134,-27.0531 L -0.927048,-27.1468 L -1.27733,-27.2855 L -1.60747,-27.467 L -1.91226,-27.6884
 L -2.1869,-27.9464 L -2.42705,-28.2366 L -2.62891,-28.5547 L -2.78932,-28.8956 L -2.90575,-29.2539 L -2.97633,-29.624
 L -3,-30 L -2.97633,-30.376 L -2.90575,-30.7461 L -2.78932,-31.1044 L -2.62891,-31.4453 L -2.42705,-31.7634
 L -2.1869,-32.0536 L -1.91226,-32.3115 L -1.60747,-32.533 L -1.27733,-32.7145 L -0.927048,-32.8532 L -0.562134,-32.9469
 L -0.18837,-32.9941 L 0.18837,-32.9941 L 0.562134,-32.9469 L 0.927048,-32.8532 L 1.27733,-32.7145 L 1.60747,-32.533
 L 1.91226,-32.3115 L 2.1869,-32.0536 L 2.42705,-31.7634 L 2.62891,-31.4453 L 2.78932,-31.1044 L 2.90575,-30.7461
 L 2.97633,-30.376 L 3,-30 L 2.97633,-29.624 L 2.90575,-29.2539 L 2.78932,-28.8956 L 2.62891,-28.5547
 L 2.42705,-28.2366 L 2.1869,-27.9464 L 1.91226,-27.6884 L 1.60747,-27.467 L 1.27733,-27.2855 L 0.927048,-27.1468
 L 0.562134,-27.0531 L 0.18837,-27.0059 z
M 14.8116,-27.0059 L 14.4379,-27.0531 L 14.0729,-27.1468 L 13.7227,-27.2855 L 13.3925,-27.467 L 13.0877,-27.6884
 L 12.8131,-27.9464 L 12.5729,-28.2366 L 12.3711,-28.5547 L 12.2107,-28.8956 L 12.0942,-29.2539 L 12.0237,-29.624
 L 12,-30 L 12.0237,-30.376 L 12.0942,-30.7461 L 12.2107,-31.1044 L 12.3711,-31.4453 L 12.5729,-31.7634
 L 12.8131,-32.0536 L 13.0877,-32.3115 L 13.3925,-32.533 L 13.7227,-32.7145 L 14.0729,-32.8532 L 14.4379,-32.9469
 L 14.8116,-32.9941 L 15.1884,-32.9941 L 15.5621,-32.9469 L 15.927,-32.8532 L 16.2773,-32.7145 L 16.6075,-32.533
 L 16.9123,-32.3115 L 17.1869,-32.0536 L 17.427,-31.7634 L 17.6289,-31.4453 L 17.7893,-31.1044 L 17.9057,-30.7461
 L 17.9763,-30.376 L 18,-30 L 17.9763,-29.624 L 17.9057,-29.2539 L 17.7893,-28.8956 L 17.6289,-28.5547
 L 17.427,-28.2366 L 17.1869,-27.9464 L 16.9123,-27.6884 L 16.6075,-27.467 L 16.2773,-27.2855 L 15.927,-27.1468
 L 15.5621,-27.0531 L 15.1884,-27.0059 z
M 29.8116,-27.0059 L 29.4379,-27.0531 L 29.0729,-27.1468 L 28.7227,-27.2855 L 28.3925,-27.467 L 28.0877,-27.6884
 L 27.8131,-27.9464 L 27.5729,-28.2366 L 27.3711,-28.5547 L 27.2107,-28.8956 L 27.0942,-29.2539 L 27.0237,-29.624
 L 27,-30 L 27.0237,-30.376 L 27.0942,-30.7461 L 27.2107,-31.1044 L 27.3711,-31.4453 L 27.5729,-31.7634
 L 27.8131,-32.0536 L 28.0877,-32.3115 L 28.3925,-32.533 L 28.7227,-32.7145 L 29.0729,-32.8532 L 29.4379,-32.9469
 L 29.8116,-32.9941 L 30.1884,-32.9941 L 30.5621,-32.9469 L 30.927,-32.8532 L 31.2773,-32.7145 L 31.6075,-32.533
 L 31.9123,-32.3115 L 32.1869,-32.0536 L 32.427,-31.7634 L 32.6289,-31.4453 L 32.7893,-31.1044 L 32.9057,-30.7461
 L 32.9763,-30.376 L 33,-30 L 32.9763,-29.624 L 32.9057,-29.2539 L 32.7893,-28.8956 L 32.6289,-28.5547
 L 32.427,-28.2366 L 32.1869,-27.9464 L 31.9123,-27.6884 L 31.6075,-27.467 L 31.2773,-27.2855 L 30.927,-27.1468
 L 30.5621,-27.0531 L 30.1884,-27.0059 z
M 44.8116,-12.0059 L 44.4379,-12.0531 L 44.0729,-12.1468 L 43.7227,-12.2855 L 43.3925,-12.467 L 43.0877,-12.6884
 L 42.8131,-12.9464 L 42.5729,-13.2366 L 42.3711,-13.5547 L 42.2107,-13.8956 L 42.0942,-14.2539 L 42.0237,-14.624
 L 42,-15 L 42.0237,-15.376 L 42.0942,-15.7461 L 42.2107,-16.1044 L 42.3711,-16.4453 L 42.5729,-16.7634
 L 42.8131,-17.0536 L 43.0877,-17.3115 L 43.3925,-17.533 L 43.7227,-17.7145 L 44.0729,-17.8532 L 44.4379,-17.9469
 L 44.8116,-17.9941 L 45.1884,-17.9941 L 45.5621,-17.9469 L 45.927,-17.8532 L 46.2773,-17.7145 L 46.6075,-17.533
 L 46.9123,-17.3115 L 47.1869,-17.0536 L 47.427,-16.7634 L 47.6289,-16.4453 L 47.7893,-16.1044 L 47.9057,-15.7461
 L 47.9763,-15.376 L 48,-15 L 47.9763,-14.624 L 47.9057,-14.2539 L 47.7893,-13.8956 L 47.6289,-13.5547
 L 47.427,-13.2366 L 47.1869,-12.9464 L 46.9123,-12.6884 L 46.6075,-12.467 L 46.2773,-12.2855 L 45.927,-12.1468
 L 45.5621,-12.0531 L 45.1884,-12.0059 z
M -45.1884,-12.0059 L -45.5621,-12.0531 L -45.927,-12.1468 L -46.2773,-12.2855 L -46.6075,-12.467 L -46.9123,-12.6884
 L -47.1869,-12.9464 L -47.427,-13.2366 L -47.6289,-13.5547 L -47.7893,-13.8956 L -47.9057,-14.2539 L -47.9763,-14.624
 L -48,-15 L -47.9763,-15.376 L -47.9057,-15.7461 L -47.7893,-16.1044 L -47.6289,-16.4453 L -47.427,-16.7634
 L -47.1869,-17.0536 L -46.9123,-17.3115 L -46.6075,-17.533 L -46.2773,-17.7145 L -45.927,-17.8532 L -45.5621,-17.9469
 L -45.1884,-17.9941 L -44.8116,-17.9941 L -44.4379,-17.9469 L -44.0729,-17.8532 L -43.7227,-17.7145 L -43.3925,-17.533
 L -43.0877,-17.3115 L -42.8131,-17.0536 L -42.5729,-16.7634 L -42.3711,-16.4453 L -42.2107,-16.1044 L -42.0942,-15.7461
 L -42.0237,-15.376 L -42,-15 L -42.0237,-14.624 L -42.0942,-14.2539 L -42.2107,-13.8956 L -42.3711,-13.5547
 L -42.5729,-13.2366 L -42.8131,-12.9464 L -43.0877,-12.6884 L -43.3925,-12.467 L -43.7227,-12.2855 L -44.0729,-12.1468
 L -44.4379,-12.0531 L -44.8116,-12.0059 z
M -30.1884,-12.0059 L -30.5621,-12.0531 L -30.927,-12.1468 L -31.2773,-12.2855 L -31.6075,-12.467 L -31.9123,-12.6884
 L -32.1869,-12.9464 L -32.427,-13.2366 L -32.6289,-13.5547 L -32.7893,-13.8956 L -32.9057,-14.2539 L -32.9763,-14.624
 L -33,-15 L -32.9763,-15.376 L -32.9057,-15.7461 L -32.7893,-16.1044 L -32.6289,-16.4453 L -32.427,-16.7634
 L -32.1869,-17.0536 L -31.9123,-17.3115 L -31.6075,-17.533 L -31.2773,-17.7145 L -30.927,-17.8532 L -30.5621,-17.9469
 L -30.1884,-17.9941 L -29.8116,-17.9941 L -29.4379,-17.9469 L -29.0729,-17.8532 L -28.7227,-17.7145 L -28.3925,-17.533
 L -28.0877,-17.3115 L -27.8131,-17.0536 L -27.5729,-16.7634 L -27.3711,-16.4453 L -27.2107,-16.1044 L -27.0942,-15.7461
 L -27.0237,-15.376 L -27,-15 L -27.0237,-14.624 L -27.0942,-14.2539 L -27.2107,-13.8956 L -27.3711,-13.5547
 L -27.5729,-13.2366 L -27.8131,-12.9464 L -28.0877,-12.6884 L -28.3925,-12.467 L -28.7227,-12.2855 L -29.0729,-12.1468
 L -29.4379,-12.0531 L -29.8116,-12.0059 z
M -15.1884,-12.0059 L -15.5621,-12.0531 L -15.927,-12.1468 L -16.2773,-12.2855 L -16.6075,-12.467 L -16.9123,-12.6884
 L -17.1869,-12.9464 L -17.427,-13.2366 L -17.6289,-13.5547 L -17.7893,-13.8956 L -17.9057,-14.2539 L -17.9763,-14.624
 L -18,-15 L -17.9763,-15.376 L -17.9057,-15.7461 L -17.7893,-16.1044 L -17.6289,-16.4453 L -17.427,-16.7634
 L -17.1869,-17.0536 L -16.9123,-17.3115 L -16.6075,-17.533 L -16.2773,-17.7145 L -15.927,-17.8532 L -15.5621,-17.9469
 L -15.1884,-17.9941 L -14.8116,-17.9941 L -14.4379,-17.9469 L -14.0729,-17.8532 L -13.7227,-17.7145 L -13.3925,-17.533
 L -13.0877,-17.3115 L -12.8131,-17.0536 L -12.5729,-16.7634 L -12.3711,-16.4453 L -12.2107,-16.1044 L -12.0942,-15.7461
 L -12.0237,-15.376 L -12,-15 L -12.0237,-14.624 L -12.0942,-14.2539 L -12.2107,-13.8956 L -12.3711,-13.5547
 L -12.5729,-13.2366 L -12.8131,-12.9464 L -13.0877,-12.6884 L -13.3925,-12.467 L -13.7227,-12.2855 L -14.0729,-12.1468
 L -14.4379,-12.0531 L -14.8116,-12.0059 z
M -0.18837,-12.0059 L -0.562134,-12.0531 L -0.927048,-12.1468 L -1.27733,-12.2855 L -1.60747,-12.467 L -1.91226,-12.6884
 L -2.1869,-12.9464 L -2.42705,-13.2366 L -2.62891,-13.5547 L -2.78932,-13.8956 L -2.90575,-14.2539 L -2.97633,-14.624
 L -3,-15 L -2.97633,-15.376 L -2.90575,-15.7461 L -2.78932,-16.1044 L -2.62891,-16.4453 L -2.42705,-16.7634
 L -2.1869,-17.0536 L -1.91226,-17.3115 L -1.60747,-17.533 L -1.27733,-17.7145 L -0.927048,-17.8532 L -0.562134,-17.9469
 L -0.18837,-17.9941 L 0.18837,-17.9941 L 0.562134,-17.9469 L 0.927048,-17.8532 L 1.27733,-17.7145 L 1.60747,-17.533
 L 1.91226,-17.3115 L 2.1869,-17.0536 L 2.42705,-16.7634 L 2.62891,-16.4453 L 2.78932,-16.1044 L 2.90575,-15.7461
 L 2.97633,-15.376 L 3,-15 L 2.97633,-14.624 L 2.90575,-14.2539 L 2.78932,-13.8956 L 2.62891,-13.5547
 L 2.42705,-13.2366 L 2.1869,-12.9464 L 1.91226,-12.6884 L 1.60747,-12.467 L 1.27733,-12.2855 L 0.927048,-12.1468
 L 0.562134,-12.0531 L 0.18837,-12.0059 z
M 14.8116,-12.0059 L 14.4379,-12.0531 L 14.0729,-12.1468 L 13.7227,-12.2855 L 13.3925,-12.467 L 13.0877,-12.6884
 L 12.8131,-12.9464 L 12.5729,-13.2366 L 12.3711,-13.5547 L 12.2107,-13.8956 L 12.0942,-14.2539 L 12.0237,-14.624
 L 12,-15 L 12.0237,-15.376 L 12.0942,-15.7461 L 12.2107,-16.1044 L 12.3711,-16.4453 L 12.5729,-16.7634
 L 12.8131,-17.0536 L 13.0877,-17.3115 L 13.3925,-17.533 L 13.7227,-17.7145 L 14.0729,-17.8532 L 14.4379,-17.9469
 L 14.8116,-17.9941 L 15.1884,-17.9941 L 15.5621,-17.9469 L 15.927,-17.8532 L 16.2773,-17.7145 L 16.6075,-17.533
 L 16.9123,-17.3115 L 17.1869,-17.0536 L 17.427,-16.7634 L 17.6289,-16.4453 L 17.7893,-16.1044 L 17.9057,-15.7461
 L 17.9763,-15.376 L 18,-15 L 17.9763,-14.624 L 17.9057,-14.2539 L 17.7893,-13.8956 L 17.6289,-13.5547
 L 17.427,-13.2366 L 17.1869,-12.9464 L 16.9123,-12.6884 L 16.6075,-12.467 L 16.2773,-12.2855 L 15.927,-12.1468
 L 15.5621,-12.0531 L 15.1884,-12.0059 z
M 29.8116,-12.0059 L 29.4379,-12.0531 L 29.0729,-12.1468 L 28.7227,-12.2855 L 28.3925,-12.467 L 28.0877,-12.6884
 L 27.8131,-12.9464 L 27.5729,-13.2366 L 27.3711,-13.5547 L 27.2107,-13.8956 L 27.0942,-14.2539 L 27.0237,-14.624
 L 27,-15 L 27.0237,-15.376 L 27.0942,-15.7461 L 27.2107,-16.1044 L 27.3711,-16.4453 L 27.5729,-16.7634
 L 27.8131,-17.0536 L 28.0877,-17.3115 L 28.3925,-17.533 L 28.7227,-17.7145 L 29.0729,-17.8532 L 29.4379,-17.9469
 L 29.8116,-17.9941 L 30.1884,-17.9941 L 30.5621,-17.9469 L 30.927,-17.8532 L 31.2773,-17.7145 L 31.6075,-17.533
 L 31.9123,-17.3115 L 32.1869,-17.0536 L 32.427,-16.7634 L 32.6289,-16.4453 L 32.7893,-16.1044 L 32.9057,-15.7461
 L 32.9763,-15.376 L 33,-15 L 32.9763,-14.624 L 32.9057,-14.2539 L 32.7893,-13.8956 L 32.6289,-13.5547
 L 32.427,-13.2366 L 32.1869,-12.9464 L 31.9123,-12.6884 L 31.6075,-12.467 L 31.2773,-12.2855 L 30.927,-12.1468
 L 30.5621,-12.0531 L 30.1884,-12.0059 z
M -60.1884,2.99408 L -60.5621,2.94685 L -60.927,2.85316 L -61.2773,2.71448 L -61.6075,2.53297 L -61.9123,2.31154
 L -62.1869,2.05363 L -62.427,1.76335 L -62.6289,1.44525 L -62.7893,1.10437 L -62.9057,0.746063 L -62.9763,0.375992
 L -63,-0 L -62.9763,-0.375992 L -62.9057,-0.746063 L -62.7893,-1.10437 L -62.6289,-1.44525 L -62.427,-1.76335
 L -62.1869,-2.05363 L -61.9123,-2.31154 L -61.6075,-2.53297 L -61.2773,-2.71448 L -60.927,-2.85316 L -60.5621,-2.94685
 L -60.1884,-2.99408 L -59.8116,-2.99408 L -59.4379,-2.94685 L -59.0729,-2.85316 L -58.7227,-2.71448 L -58.3925,-2.53297
 L -58.0877,-2.31154 L -57.8131,-2.05363 L -57.5729,-1.76335 L -57.3711,-1.44525 L -57.2107,-1.10437 L -57.0942,-0.746063
 L -57.0237,-0.375992 L -57,-0 L -57.0237,0.375992 L -57.0942,0.746063 L -57.2107,1.10437 L -57.3711,1.44525
 L -57.5729,1.76335 L -57.8131,2.05363 L -58.0877,2.31154 L -58.3925,2.53297 L -58.7227,2.71448 L -59.0729,2.85316
 L -59.4379,2.94685 L -59.8116,2.99408 z
M -45.1884,2.99408 L -45.5621,2.94685 L -45.927,2.85316 L -46.2773,2.71448 L -46.6075,2.53297 L -46.9123,2.31154
 L -47.1869,2.05363 L -47.427,1.76335 L -47.6289,1.44525 L -47.7893,1.10437 L -47.9057,0.746063 L -47.9763,0.375992
 L -48,-0 L -47.9763,-0.375992 L -47.9057,-0.746063 L -47.7893,-1.10437 L -47.6289,-1.44525 L -47.427,-1.76335
 L -47.1869,-2.05363 L -46.9123,-2.31154 L -46.6075,-2.53297 L -46.2773,-2.71448 L -45.927,-2.85316 L -45.5621,-2.94685
 L -45.1884,-2.99408 L -44.8116,-2.99408 L -44.4379,-2.94685 L -44.0729,-2.85316 L -43.7227,-2.71448 L -43.3925,-2.53297
 L -43.0877,-2.31154 L -42.8131,-2.05363 L -42.5729,-1.76335 L -42.3711,-1.44525 L -42.2107,-1.10437 L -42.0942,-0.746063
 L -42.0237,-0.375992 L -42,-0 L -42.0237,0.375992 L -42.0942,0.746063 L -42.2107,1.10437 L -42.3711,1.44525
 L -42.5729,1.76335 L -42.8131,2.05363 L -43.0877,2.31154 L -43.3925,2.53297 L -43.7227,2.71448 L -44.0729,2.85316
 L -44.4379,2.94685 L -44.8116,2.99408 z
M -0.18837,2.99408 L -0.562134,2.94685 L -0.927048,2.85316 L -1.27733,2.71448 L -1.60747,2.53297 L -1.91226,2.31154
 L -2.1869,2.05363 L -2.42705,1.76335 L -2.62891,1.44525 L -2.78932,1.10437 L -2.90575,0.746063 L -2.97633,0.375992
 L -3,-0 L -2.97633,-0.375992 L -2.90575,-0.746063 L -2.78932,-1.10437 L -2.62891,-1.44525 L -2.42705,-1.76335
 L -2.1869,-2.05363 L -1.91226,-2.31154 L -1.60747,-2.53297 L -1.27733,-2.71448 L -0.927048,-2.85316 L -0.562134,-2.94685
 L -0.18837,-2.99408 L 0.18837,-2.99408 L 0.562134,-2.94685 L 0.927048,-2.85316 L 1.27733,-2.71448 L 1.60747,-2.53297
 L 1.91226,-2.31154 L 2.1869,-2.05363 L 2.42705,-1.76335 L 2.62891,-1.44525 L 2.78932,-1.10437 L 2.90575,-0.746063
 L 2.97633,-0.375992 L 3,-0 L 2.97633,0.375992 L 2.90575,0.746063 L 2.78932,1.10437 L 2.62891,1.44525
 L 2.42705,1.76335 L 2.1869,2.05363 L 1.91226,2.31154 L 1.60747,2.53297 L 1.27733,2.71448 L 0.927048,2.85316
 L 0.562134,2.94685 L 0.18837,2.99408 z
M -15.1884,2.99408 L -15.5621,2.94685 L -15.927,2.85316 L -16.2773,2.71448 L -16.6075,2.53297 L -16.9123,2.31154
 L -17.1869,2.05363 L -17.427,1.76335 L -17.6289,1.44525 L -17.7893,1.10437 L -17.9057,0.746063 L -17.9763,0.375992
 L -18,-0 L -17.9763,-0.375992 L -17.9057,-0.746063 L -17.7893,-1.10437 L -17.6289,-1.44525 L -17.427,-1.76335
 L -17.1869,-2.05363 L -16.9123,-2.31154 L -16.6075,-2.53297 L -16.2773,-2.71448 L -15.927,-2.85316 L -15.5621,-2.94685
 L -15.1884,-2.99408 L -14.8116,-2.99408 L -14.4379,-2.94685 L -14.0729,-2.85316 L -13.7227,-2.71448 L -13.3925,-2.53297
 L -13.0877,-2.31154 L -12.8131,-2.05363 L -12.5729,-1.76335 L -12.3711,-1.44525 L -12.2107,-1.10437 L -12.0942,-0.746063
 L -12.0237,-0.375992 L -12,-0 L -12.0237,0.375992 L -12.0942,0.746063 L -12.2107,1.10437 L -12.3711,1.44525
 L -12.5729,1.76335 L -12.8131,2.05363 L -13.0877,2.31154 L -13.3925,2.53297 L -13.7227,2.71448 L -14.0729,2.85316
 L -14.4379,2.94685 L -14.8116,2.99408 z
M 14.8116,2.99408 L 14.4379,2.94685 L 14.0729,2.85316 L 13.7227,2.71448 L 13.3925,2.53297 L 13.0877,2.31154
 L 12.8131,2.05363 L 12.5729,1.76335 L 12.3711,1.44525 L 12.2107,1.10437 L 12.0942,0.746063 L 12.0237,0.375992
 L 12,-0 L 12.0237,-0.375992 L 12.0942,-0.746063 L 12.2107,-1.10437 L 12.3711,-1.44525 L 12.5729,-1.76335
 L 12.8131,-2.05363 L 13.0877,-2.31154 L 13.3925,-2.53297 L 13.7227,-2.71448 L 14.0729,-2.85316 L 14.4379,-2.94685
 L 14.8116,-2.99408 L 15.1884,-2.99408 L 15.5621,-2.94685 L 15.927,-2.85316 L 16.2773,-2.71448 L 16.6075,-2.53297
 L 16.9123,-2.31154 L 17.1869,-2.05363 L 17.427,-1.76335 L 17.6289,-1.44525 L 17.7893,-1.10437 L 17.9057,-0.746063
 L 17.9763,-0.375992 L 18,-0 L 17.9763,0.375992 L 17.9057,0.746063 L 17.7893,1.10437 L 17.6289,1.44525
 L 17.427,1.76335 L 17.1869,2.05363 L 16.9123,2.31154 L 16.6075,2.53297 L 16.2773,2.71448 L 15.927,2.85316
 L 15.5621,2.94685 L 15.1884,2.99408 z
M 44.8116,2.99408 L 44.4379,2.94685 L 44.0729,2.85316 L 43.7227,2.71448 L 43.3925,2.53297 L 43.0877,2.31154
 L 42.8131,2.05363 L 42.5729,1.76335 L 42.3711,1.44525 L 42.2107,1.10437 L 42.0942,0.746063 L 42.0237,0.375992
 L 42,-0 L 42.0237,-0.375992 L 42.0942,-0.746063 L 42.2107,-1.10437 L 42.3711,-1.44525 L 42.5729,-1.76335
 L 42.8131,-2.05363 L 43.0877,-2.31154 L 43.3925,-2.53297 L 43.7227,-2.71448 L 44.0729,-2.85316 L 44.4379,-2.94685
 L 44.8116,-2.99408 L 45.1884,-2.99408 L 45.5621,-2.94685 L 45.927,-2.85316 L 46.2773,-2.71448 L 46.6075,-2.53297
 L 46.9123,-2.31154 L 47.1869,-2.05363 L 47.427,-1.76335 L 47.6289,-1.44525 L 47.7893,-1.10437 L 47.9057,-0.746063
 L 47.9763,-0.375992 L 48,-0 L 47.9763,0.375992 L 47.9057,0.746063 L 47.7893,1.10437 L 47.6289,1.44525
 L 47.427,1.76335 L 47.1869,2.05363 L 46.9123,2.31154 L 46.6075,2.53297 L 46.2773,2.71448 L 45.927,2.85316
 L 45.5621,2.94685 L 45.1884,2.99408 z
M -30.1884,2.99408 L -30.5621,2.94685 L -30.927,2.85316 L -31.2773,2.71448 L -31.6075,2.53297 L -31.9123,2.31154
 L -32.1869,2.05363 L -32.427,1.76335 L -32.6289,1.44525 L -32.7893,1.10437 L -32.9057,0.746063 L -32.9763,0.375992
 L -33,-0 L -32.9763,-0.375992 L -32.9057,-0.746063 L -32.7893,-1.10437 L -32.6289,-1.44525 L -32.427,-1.76335
 L -32.1869,-2.05363 L -31.9123,-2.31154 L -31.6075,-2.53297 L -31.2773,-2.71448 L -30.927,-2.85316 L -30.5621,-2.94685
 L -30.1884,-2.99408 L -29.8116,-2.99408 L -29.4379,-2.94685 L -29.0729,-2.85316 L -28.7227,-2.71448 L -28.3925,-2.53297
 L -28.0877,-2.31154 L -27.8131,-2.05363 L -27.5729,-1.76335 L -27.3711,-1.44525 L -27.2107,-1.10437 L -27.0942,-0.746063
 L -27.0237,-0.375992 L -27,-0 L -27.0237,0.375992 L -27.0942,0.746063 L -27.2107,1.10437 L -27.3711,1.44525
 L -27.5729,1.76335 L -27.8131,2.05363 L -28.0877,2.31154 L -28.3925,2.53297 L -28.7227,2.71448 L -29.0729,2.85316
 L -29.4379,2.94685 L -29.8116,2.99408 z
M 29.8116,2.99408 L 29.4379,2.94685 L 29.0729,2.85316 L 28.7227,2.71448 L 28.3925,2.53297 L 28.0877,2.31154
 L 27.8131,2.05363 L 27.5729,1.76335 L 27.3711,1.44525 L 27.2107,1.10437 L 27.0942,0.746063 L 27.0237,0.375992
 L 27,-0 L 27.0237,-0.375992 L 27.0942,-0.746063 L 27.2107,-1.10437 L 27.3711,-1.44525 L 27.5729,-1.76335
 L 27.8131,-2.05363 L 28.0877,-2.31154 L 28.3925,-2.53297 L 28.7227,-2.71448 L 29.0729,-2.85316 L 29.4379,-2.94685
 L 29.8116,-2.99408 L 30.1884,-2.99408 L 30.5621,-2.94685 L 30.927,-2.85316 L 31.2773,-2.71448 L 31.6075,-2.53297
 L 31.9123,-2.31154 L 32.1869,-2.05363 L 32.427,-1.76335 L 32.6289,-1.44525 L 32.7893,-1.10437 L 32.9057,-0.746063
 L 32.9763,-0.375992 L 33,-0 L 32.9763,0.375992 L 32.9057,0.746063 L 32.7893,1.10437 L 32.6289,1.44525
 L 32.427,1.76335 L 32.1869,2.05363 L 31.9123,2.31154 L 31.6075,2.53297 L 31.2773,2.71448 L 30.927,2.85316
 L 30.5621,2.94685 L 30.1884,2.99408 z
M 59.8116,2.99408 L 59.4379,2.94685 L 59.0729,2.85316 L 58.7227,2.71448 L 58.3925,2.53297 L 58.0877,2.31154
 L 57.8131,2.05363 L 57.5729,1.76335 L 57.3711,1.44525 L 57.2107,1.10437 L 57.0942,0.746063 L 57.0237,0.375992
 L 57,-0 L 57.0237,-0.375992 L 57.0942,-0.746063 L 57.2107,-1.10437 L 57.3711,-1.44525 L 57.5729,-1.76335
 L 57.8131,-2.05363 L 58.0877,-2.31154 L 58.3925,-2.53297 L 58.7227,-2.71448 L 59.0729,-2.85316 L 59.4379,-2.94685
 L 59.8116,-2.99408 L 60.1884,-2.99408 L 60.5621,-2.94685 L 60.927,-2.85316 L 61.2773,-2.71448 L 61.6075,-2.53297
 L 61.9123,-2.31154 L 62.1869,-2.05363 L 62.427,-1.76335 L 62.6289,-1.44525 L 62.7893,-1.10437 L 62.9057,-0.746063
 L 62.9763,-0.375992 L 63,-0 L 62.9763,0.375992 L 62.9057,0.746063 L 62.7893,1.10437 L 62.6289,1.44525
 L 62.427,1.76335 L 62.1869,2.05363 L 61.9123,2.31154 L 61.6075,2.53297 L 61.2773,2.71448 L 60.927,2.85316
 L 60.5621,2.94685 L 60.1884,2.99408 z
M 44.8116,17.9941 L 44.4379,17.9469 L 44.0729,17.8532 L 43.7227,17.7145 L 43.3925,17.533 L 43.0877,17.3115
 L 42.8131,17.0536 L 42.5729,16.7634 L 42.3711,16.4453 L 42.2107,16.1044 L 42.0942,15.7461 L 42.0237,15.376
 L 42,15 L 42.0237,14.624 L 42.0942,14.2539 L 42.2107,13.8956 L 42.3711,13.5547 L 42.5729,13.2366
 L 42.8131,12.9464 L 43.0877,12.6884 L 43.3925,12.467 L 43.7227,12.2855 L 44.0729,12.1468 L 44.4379,12.0531
 L 44.8116,12.0059 L 45.1884,12.0059 L 45.5621,12.0531 L 45.927,12.1468 L 46.2773,12.2855 L 46.6075,12.467
 L 46.9123,12.6884 L 47.1869,12.9464 L 47.427,13.2366 L 47.6289,13.5547 L 47.7893,13.8956 L 47.9057,14.2539
 L 47.9763,14.624 L 48,15 L 47.9763,15.376 L 47.9057,15.7461 L 47.7893,16.1044 L 47.6289,16.4453
 L 47.427,16.7634 L 47.1869,17.0536 L 46.9123,17.3115 L 46.6075,17.533 L 46.2773,17.7145 L 45.927,17.8532
 L 45.5621,17.9469 L 45.1884,17.9941 z
M 29.8116,17.9941 L 29.4379,17.9469 L 29.0729,17.8532 L 28.7227,17.7145 L 28.3925,17.533 L 28.0877,17.3115
 L 27.8131,17.0536 L 27.5729,16.7634 L 27.3711,16.4453 L 27.2107,16.1044 L 27.0942,15.7461 L 27.0237,15.376
 L 27,15 L 27.0237,14.624 L 27.0942,14.2539 L 27.2107,13.8956 L 27.3711,13.5547 L 27.5729,13.2366
 L 27.8131,12.9464 L 28.0877,12.6884 L 28.3925,12.467 L 28.7227,12.2855 L 29.0729,12.1468 L 29.4379,12.0531
 L 29.8116,12.0059 L 30.1884,12.0059 L 30.5621,12.0531 L 30.927,12.1468 L 31.2773,12.2855 L 31.6075,12.467
 L 31.9123,12.6884 L 32.1869,12.9464 L 32.427,13.2366 L 32.6289,13.5547 L 32.7893,13.8956 L 32.9057,14.2539
 L 32.9763,14.624 L 33,15 L 32.9763,15.376 L 32.9057,15.7461 L 32.7893,16.1044 L 32.6289,16.4453
 L 32.427,16.7634 L 32.1869,17.0536 L 31.9123,17.3115 L 31.6075,17.533 L 31.2773,17.7145 L 30.927,17.8532
 L 30.5621,17.9469 L 30.1884,17.9941 z
M 14.8116,17.9941 L 14.4379,17.9469 L 14.0729,17.8532 L 13.7227,17.7145 L 13.3925,17.533 L 13.0877,17.3115
 L 12.8131,17.0536 L 12.5729,16.7634 L 12.3711,16.4453 L 12.2107,16.1044 L 12.0942,15.7461 L 12.0237,15.376
 L 12,15 L 12.0237,14.624 L 12.0942,14.2539 L 12.2107,13.8956 L 12.3711,13.5547 L 12.5729,13.2366
 L 12.8131,12.9464 L 13.0877,12.6884 L 13.3925,12.467 L 13.7227,12.2855 L 14.0729,12.1468 L 14.4379,12.0531
 L 14.8116,12.0059 L 15.1884,12.0059 L 15.5621,12.0531 L 15.927,12.1468 L 16.2773,12.2855 L 16.6075,12.467
 L 16.9123,12.6884 L 17.1869,12.9464 L 17.427,13.2366 L 17.6289,13.5547 L 17.7893,13.8956 L 17.9057,14.2539
 L 17.9763,14.624 L 18,15 L 17.9763,15.376 L 17.9057,15.7461 L 17.7893,16.1044 L 17.6289,16.4453
 L 17.427,16.7634 L 17.1869,17.0536 L 16.9123,17.3115 L 16.6075,17.533 L 16.2773,17.7145 L 15.927,17.8532
 L 15.5621,17.9469 L 15.1884,17.9941 z
M -0.18837,17.9941 L -0.562134,17.9469 L -0.927048,17.8532 L -1.27733,17.7145 L -1.60747,17.533 L -1.91226,17.3115
 L -2.1869,17.0536 L -2.42705,16.7634 L -2.62891,16.4453 L -2.78932,16.1044 L -2.90575,15.7461 L -2.97633,15.376
 L -3,15 L -2.97633,14.624 L -2.90575,14.2539 L -2.78932,13.8956 L -2.62891,13.5547 L -2.42705,13.2366
 L -2.1869,12.9464 L -1.91226,12.6884 L -1.60747,12.467 L -1.27733,12.2855 L -0.927048,12.1468 L -0.562134,12.0531
 L -0.18837,12.0059 L 0.18837,12.0059 L 0.562134,12.0531 L 0.927048,12.1468 L 1.27733,12.2855 L 1.60747,12.467
 L 1.91226,12.6884 L 2.1869,12.9464 L 2.42705,13.2366 L 2.62891,13.5547 L 2.78932,13.8956 L 2.90575,14.2539
 L 2.97633,14.624 L 3,15 L 2.97633,15.376 L 2.90575,15.7461 L 2.78932,16.1044 L 2.62891,16.4453
 L 2.42705,16.7634 L 2.1869,17.0536 L 1.91226,17.3115 L 1.60747,17.533 L 1.27733,17.7145 L 0.927048,17.8532
 L 0.562134,17.9469 L 0.18837,17.9941 z
M -15.1884,17.9941 L -15.5621,17.9469 L -15.927,17.8532 L -16.2773,17.7145 L -16.6075,17.533 L -16.9123,17.3115
 L -17.1869,17.0536 L -17.427,16.7634 L -17.6289,16.4453 L -17.7893,16.1044 L -17.9057,15.7461 L -17.9763,15.376
 L -18,15 L -17.9763,14.624 L -17.9057,14.2539 L -17.7893,13.8956 L -17.6289,13.5547 L -17.427,13.2366
 L -17.1869,12.9464 L -16.9123,12.6884 L -16.6075,12.467 L -16.2773,12.2855 L -15.927,12.1468 L -15.5621,12.0531
 L -15.1884,12.0059 L -14.8116,12.0059 L -14.4379,12.0531 L -14.0729,12.1468 L -13.7227,12.2855 L -13.3925,12.467
 L -13.0877,12.6884 L -12.8131,12.9464 L -12.5729,13.2366 L -12.3711,13.5547 L -12.2107,13.8956 L -12.0942,14.2539
 L -12.0237,14.624 L -12,15 L -12.0237,15.376 L -12.0942,15.7461 L -12.2107,16.1044 L -12.3711,16.4453
 L -12.5729,16.7634 L -12.8131,17.0536 L -13.0877,17.3115 L -13.3925,17.533 L -13.7227,17.7145 L -14.0729,17.8532
 L -14.4379,17.9469 L -14.8116,17.9941 z
M -45.1884,17.9941 L -45.5621,17.9469 L -45.927,17.8532 L -46.2773,17.7145 L -46.6075,17.533 L -46.9123,17.3115
 L -47.1869,17.0536 L -47.427,16.7634 L -47.6289,16.4453 L -47.7893,16.1044 L -47.9057,15.7461 L -47.9763,15.376
 L -48,15 L -47.9763,14.624 L -47.9057,14.2539 L -47.7893,13.8956 L -47.6289,13.5547 L -47.427,13.2366
 L -47.1869,12.9464 L -46.9123,12.6884 L -46.6075,12.467 L -46.2773,12.2855 L -45.927,12.1468 L -45.5621,12.0531
 L -45.1884,12.0059 L -44.8116,12.0059 L -44.4379,12.0531 L -44.0729,12.1468 L -43.7227,12.2855 L -43.3925,12.467
 L -43.0877,12.6884 L -42.8131,12.9464 L -42.5729,13.2366 L -42.3711,13.5547 L -42.2107,13.8956 L -42.0942,14.2539
 L -42.0237,14.624 L -42,15 L -42.0237,15.376 L -42.0942,15.7461 L -42.2107,16.1044 L -42.3711,16.4453
 L -42.5729,16.7634 L -42.8131,17.0536 L -43.0877,17.3115 L -43.3925,17.533 L -43.7227,17.7145 L -44.0729,17.8532
 L -44.4379,17.9469 L -44.8116,17.9941 z
M -30.1884,17.9941 L -30.5621,17.9469 L -30.927,17.8532 L -31.2773,17.7145 L -31.6075,17.533 L -31.9123,17.3115
 L -32.1869,17.0536 L -32.427,16.7634 L -32.6289,16.4453 L -32.7893,16.1044 L -32.9057,15.7461 L -32.9763,15.376
 L -33,15 L -32.9763,14.624 L -32.9057,14.2539 L -32.7893,13.8956 L -32.6289,13.5547 L -32.427,13.2366
 L -32.1869,12.9464 L -31.9123,12.6884 L -31.6075,12.467 L -31.2773,12.2855 L -30.927,12.1468 L -30.5621,12.0531
 L -30.1884,12.0059 L -29.8116,12.0059 L -29.4379,12.0531 L -29.0729,12.1468 L -28.7227,12.2855 L -28.3925,12.467
 L -28.0877,12.6884 L -27.8131,12.9464 L -27.5729,13.2366 L -27.3711,13.5547 L -27.2107,13.8956 L -27.0942,14.2539
 L -27.0237,14.624 L -27,15 L -27.0237,15.376 L -27.0942,15.7461 L -27.2107,16.1044 L -27.3711,16.4453
 L -27.5729,16.7634 L -27.8131,17.0536 L -28.0877,17.3115 L -28.3925,17.533 L -28.7227,17.7145 L -29.0729,17.8532
 L -29.4379,17.9469 L -29.8116,17.9941 z
M 44.8116,32.9941 L 44.4379,32.9469 L 44.0729,32.8532 L 43.7227,32.7145 L 43.3925,32.533 L 43.0877,32.3115
 L 42.8131,32.0536 L 42.5729,31.7634 L 42.3711,31.4453 L 42.2107,31.1044 L 42.0942,30.7461 L 42.0237,30.376
 L 42,30 L 42.0237,29.624 L 42.0942,29.2539 L 42.2107,28.8956 L 42.3711,28.5547 L 42.5729,28.2366
 L 42.8131,27.9464 L 43.0877,27.6884 L 43.3925,27.467 L 43.7227,27.2855 L 44.0729,27.1468 L 44.4379,27.0531
 L 44.8116,27.0059 L 45.1884,27.0059 L 45.5621,27.0531 L 45.927,27.1468 L 46.2773,27.2855 L 46.6075,27.467
 L 46.9123,27.6884 L 47.1869,27.9464 L 47.427,28.2366 L 47.6289,28.5547 L 47.7893,28.8956 L 47.9057,29.2539
 L 47.9763,29.624 L 48,30 L 47.9763,30.376 L 47.9057,30.7461 L 47.7893,31.1044 L 47.6289,31.4453
 L 47.427,31.7634 L 47.1869,32.0536 L 46.9123,32.3115 L 46.6075,32.533 L 46.2773,32.7145 L 45.927,32.8532
 L 45.5621,32.9469 L 45.1884,32.9941 z
M -30.1884,32.9941 L -30.5621,32.9469 L -30.927,32.8532 L -31.2773,32.7145 L -31.6075,32.533 L -31.9123,32.3115
 L -32.1869,32.0536 L -32.427,31.7634 L -32.6289,31.4453 L -32.7893,31.1044 L -32.9057,30.7461 L -32.9763,30.376
 L -33,30 L -32.9763,29.624 L -32.9057,29.2539 L -32.7893,28.8956 L -32.6289,28.5547 L -32.427,28.2366
 L -32.1869,27.9464 L -31.9123,27.6884 L -31.6075,27.467 L -31.2773,27.2855 L -30.927,27.1468 L -30.5621,27.0531
 L -30.1884,27.0059 L -29.8116,27.0059 L -29.4379,27.0531 L -29.0729,27.1468 L -28.7227,27.2855 L -28.3925,27.467
 L -28.0877,27.6884 L -27.8131,27.9464 L -27.5729,28.2366 L -27.3711,28.5547 L -27.2107,28.8956 L -27.0942,29.2539
 L -27.0237,29.624 L -27,30 L -27.0237,30.376 L -27.0942,30.7461 L -27.2107,31.1044 L -27.3711,31.4453
 L -27.5729,31.7634 L -27.8131,32.0536 L -28.0877,32.3115 L -28.3925,32.533 L -28.7227,32.7145 L -29.0729,32.8532
 L -29.4379,32.9469 L -29.8116,32.9941 z
M -15.1884,32.9941 L -15.5621,32.9469 L -15.927,32.8532 L -16.2773,32.7145 L -16.6075,32.533 L -16.9123,32.3115
 L -17.1869,32.0536 L -17.427,31.7634 L -17.6289,31.4453 L -17.7893,31.1044 L -17.9057,30.7461 L -17.9763,30.376
 L -18,30 L -17.9763,29.624 L -17.9057,29.2539 L -17.7893,28.8956 L -17.6289,28.5547 L -17.427,28.2366
 L -17.1869,27.9464 L -16.9123,27.6884 L -16.6075,27.467 L -16.2773,27.2855 L -15.927,27.1468 L -15.5621,27.0531
 L -15.1884,27.0059 L -14.8116,27.0059 L -14.4379,27.0531 L -14.0729,27.1468 L -13.7227,27.2855 L -13.3925,27.467
 L -13.0877,27.6884 L -12.8131,27.9464 L -12.5729,28.2366 L -12.3711,28.5547 L -12.2107,28.8956 L -12.0942,29.2539
 L -12.0237,29.624 L -12,30 L -12.0237,30.376 L -12.0942,30.7461 L -12.2107,31.1044 L -12.3711,31.4453
 L -12.5729,31.7634 L -12.8131,32.0536 L -13.0877,32.3115 L -13.3925,32.533 L -13.7227,32.7145 L -14.0729,32.8532
 L -14.4379,32.9469 L -14.8116,32.9941 z
M -0.18837,32.9941 L -0.562134,32.9469 L -0.927048,32.8532 L -1.27733,32.7145 L -1.60747,32.533 L -1.91226,32.3115
 L -2.1869,32.0536 L -2.42705,31.7634 L -2.62891,31.4453 L -2.78932,31.1044 L -2.90575,30.7461 L -2.97633,30.376
 L -3,30 L -2.97633,29.624 L -2.90575,29.2539 L -2.78932,28.8956 L -2.62891,28.5547 L -2.42705,28.2366
 L -2.1869,27.9464 L -1.91226,27.6884 L -1.60747,27.467 L -1.27733,27.2855 L -0.927048,27.1468 L -0.562134,27.0531
 L -0.18837,27.0059 L 0.18837,27.0059 L 0.562134,27.0531 L 0.927048,27.1468 L 1.27733,27.2855 L 1.60747,27.467
 L 1.91226,27.6884 L 2.1869,27.9464 L 2.42705,28.2366 L 2.62891,28.5547 L 2.78932,28.8956 L 2.90575,29.2539
 L 2.97633,29.624 L 3,30 L 2.97633,30.376 L 2.90575,30.7461 L 2.78932,31.1044 L 2.62891,31.4453
 L 2.42705,31.7634 L 2.1869,32.0536 L 1.91226,32.3115 L 1.60747,32.533 L 1.27733,32.7145 L 0.927048,32.8532
 L 0.562134,32.9469 L 0.18837,32.9941 z
M 14.8116,32.9941 L 14.4379,32.9469 L 14.0729,32.8532 L 13.7227,32.7145 L 13.3925,32.533 L 13.0877,32.3115
 L 12.8131,32.0536 L 12.5729,31.7634 L 12.3711,31.4453 L 12.2107,31.1044 L 12.0942,30.7461 L 12.0237,30.376
 L 12,30 L 12.0237,29.624 L 12.0942,29.2539 L 12.2107,28.8956 L 12.3711,28.5547 L 12.5729,28.2366
 L 12.8131,27.9464 L 13.0877,27.6884 L 13.3925,27.467 L 13.7227,27.2855 L 14.0729,27.1468 L 14.4379,27.0531
 L 14.8116,27.0059 L 15.1884,27.0059 L 15.5621,27.0531 L 15.927,27.1468 L 16.2773,27.2855 L 16.6075,27.467
 L 16.9123,27.6884 L 17.1869,27.9464 L 17.427,28.2366 L 17.6289,28.5547 L 17.7893,28.8956 L 17.9057,29.2539
 L 17.9763,29.624 L 18,30 L 17.9763,30.376 L 17.9057,30.7461 L 17.7893,31.1044 L 17.6289,31.4453
 L 17.427,31.7634 L 17.1869,32.0536 L 16.9123,32.3115 L 16.6075,32.533 L 16.2773,32.7145 L 15.927,32.8532
 L 15.5621,32.9469 L 15.1884,32.9941 z
M 29.8116,32.9941 L 29.4379,32.9469 L 29.0729,32.8532 L 28.7227,32.7145 L 28.3925,32.533 L 28.0877,32.3115
 L 27.8131,32.0536 L 27.5729,31.7634 L 27.3711,31.4453 L 27.2107,31.1044 L 27.0942,30.7461 L 27.0237,30.376
 L 27,30 L 27.0237,29.624 L 27.0942,29.2539 L 27.2107,28.8956 L 27.3711,28.5547 L 27.5729,28.2366
 L 27.8131,27.9464 L 28.0877,27.6884 L 28.3925,27.467 L 28.7227,27.2855 L 29.0729,27.1468 L 29.4379,27.0531
 L 29.8116,27.0059 L 30.1884,27.0059 L 30.5621,27.0531 L 30.927,27.1468 L 31.2773,27.2855 L 31.6075,27.467
 L 31.9123,27.6884 L 32.1869,27.9464 L 32.427,28.2366 L 32.6289,28.5547 L 32.7893,28.8956 L 32.9057,29.2539
 L 32.9763,29.624 L 33,30 L 32.9763,30.376 L 32.9057,30.7461 L 32.7893,31.1044 L 32.6289,31.4453
 L 32.427,31.7634 L 32.1869,32.0536 L 31.9123,32.3115 L 31.6075,32.533 L 31.2773,32.7145 L 30.927,32.8532
 L 30.5621,32.9469 L 30.1884,32.9941 z
M -45.1884,32.9941 L -45.5621,32.9469 L -45.927,32.8532 L -46.2773,32.7145 L -46.6075,32.533 L -46.9123,32.3115
 L -47.1869,32.0536 L -47.427,31.7634 L -47.6289,31.4453 L -47.7893,31.1044 L -47.9057,30.7461 L -47.9763,30.376
 L -48,30 L -47.9763,29.624 L -47.9057,29.2539 L -47.7893,28.8956 L -47.6289,28.5547 L -47.427,28.2366
 L -47.1869,27.9464 L -46.9123,27.6884 L -46.6075,27.467 L -46.2773,27.2855 L -45.927,27.1468 L -45.5621,27.0531
 L -45.1884,27.0059 L -44.8116,27.0059 L -44.4379,27.0531 L -44.0729,27.1468 L -43.7227,27.2855 L -43.3925,27.467
 L -43.0877,27.6884 L -42.8131,27.9464 L -42.5729,28.2366 L -42.3711,28.5547 L -42.2107,28.8956 L -42.0942,29.2539
 L -42.0237,29.624 L -42,30 L -42.0237,30.376 L -42.0942,30.7461 L -42.2107,31.1044 L -42.3711,31.4453
 L -42.5729,31.7634 L -42.8131,32.0536 L -43.0877,32.3115 L -43.3925,32.533 L -43.7227,32.7145 L -44.0729,32.8532
 L -44.4379,32.9469 L -44.8116,32.9941 z
M -30.1884,47.9941 L -30.5621,47.9469 L -30.927,47.8532 L -31.2773,47.7145 L -31.6075,47.533 L -31.9123,47.3115
 L -32.1869,47.0536 L -32.427,46.7634 L -32.6289,46.4453 L -32.7893,46.1044 L -32.9057,45.7461 L -32.9763,45.376
 L -33,45 L -32.9763,44.624 L -32.9057,44.2539 L -32.7893,43.8956 L -32.6289,43.5547 L -32.427,43.2366
 L -32.1869,42.9464 L -31.9123,42.6884 L -31.6075,42.467 L -31.2773,42.2855 L -30.927,42.1468 L -30.5621,42.0531
 L -30.1884,42.0059 L -29.8116,42.0059 L -29.4379,42.0531 L -29.0729,42.1468 L -28.7227,42.2855 L -28.3925,42.467
 L -28.0877,42.6884 L -27.8131,42.9464 L -27.5729,43.2366 L -27.3711,43.5547 L -27.2107,43.8956 L -27.0942,44.2539
 L -27.0237,44.624 L -27,45 L -27.0237,45.376 L -27.0942,45.7461 L -27.2107,46.1044 L -27.3711,46.4453
 L -27.5729,46.7634 L -27.8131,47.0536 L -28.0877,47.3115 L -28.3925,47.533 L -28.7227,47.7145 L -29.0729,47.8532
 L -29.4379,47.9469 L -29.8116,47.9941 z
M -15.1884,47.9941 L -15.5621,47.9469 L -15.927,47.8532 L -16.2773,47.7145 L -16.6075,47.533 L -16.9123,47.3115
 L -17.1869,47.0536 L -17.427,46.7634 L -17.6289,46.4453 L -17.7893,46.1044 L -17.9057,45.7461 L -17.9763,45.376
 L -18,45 L -17.9763,44.624 L -17.9057,44.2539 L -17.7893,43.8956 L -17.6289,43.5547 L -17.427,43.2366
 L -17.1869,42.9464 L -16.9123,42.6884 L -16.6075,42.467 L -16.2773,42.2855 L -15.927,42.1468 L -15.5621,42.0531
 L -15.1884,42.0059 L -14.8116,42.0059 L -14.4379,42.0531 L -14.0729,42.1468 L -13.7227,42.2855 L -13.3925,42.467
 L -13.0877,42.6884 L -12.8131,42.9464 L -12.5729,43.2366 L -12.3711,43.5547 L -12.2107,43.8956 L -12.0942,44.2539
 L -12.0237,44.624 L -12,45 L -12.0237,45.376 L -12.0942,45.7461 L -12.2107,46.1044 L -12.3711,46.4453
 L -12.5729,46.7634 L -12.8131,47.0536 L -13.0877,47.3115 L -13.3925,47.533 L -13.7227,47.7145 L -14.0729,47.8532
 L -14.4379,47.9469 L -14.8116,47.9941 z
M -0.18837,47.9941 L -0.562134,47.9469 L -0.927048,47.8532 L -1.27733,47.7145 L -1.60747,47.533 L -1.91226,47.3115
 L -2.1869,47.0536 L -2.42705,46.7634 L -2.62891,46.4453 L -2.78932,46.1044 L -2.90575,45.7461 L -2.97633,45.376
 L -3,45 L -2.97633,44.624 L -2.90575,44.2539 L -2.78932,43.8956 L -2.62891,43.5547 L -2.42705,43.2366
 L -2.1869,42.9464 L -1.91226,42.6884 L -1.60747,42.467 L -1.27733,42.2855 L -0.927048,42.1468 L -0.562134,42.0531
 L -0.18837,42.0059 L 0.18837,42.0059 L 0.562134,42.0531 L 0.927048,42.1468 L 1.27733,42.2855 L 1.60747,42.467
 L 1.91226,42.6884 L 2.1869,42.9464 L 2.42705,43.2366 L 2.62891,43.5547 L 2.78932,43.8956 L 2.90575,44.2539
 L 2.97633,44.624 L 3,45 L 2.97633,45.376 L 2.90575,45.7461 L 2.78932,46.1044 L 2.62891,46.4453
 L 2.42705,46.7634 L 2.1869,47.0536 L 1.91226,47.3115 L 1.60747,47.533 L 1.27733,47.7145 L 0.927048,47.8532
 L 0.562134,47.9469 L 0.18837,47.9941 z
M 14.8116,47.9941 L 14.4379,47.9469 L 14.0729,47.8532 L 13.7227,47.7145 L 13.3925,47.533 L 13.0877,47.3115
 L 12.8131,47.0536 L 12.5729,46.7634 L 12.3711,46.4453 L 12.2107,46.1044 L 12.0942,45.7461 L 12.0237,45.376
 L 12,45 L 12.0237,44.624 L 12.0942,44.2539 L 12.2107,43.8956 L 12.3711,43.5547 L 12.5729,43.2366
 L 12.8131,42.9464 L 13.0877,42.6884 L 13.3925,42.467 L 13.7227,42.2855 L 14.0729,42.1468 L 14.4379,42.0531
 L 14.8116,42.0059 L 15.1884,42.0059 L 15.5621,42.0531 L 15.927,42.1468 L 16.2773,42.2855 L 16.6075,42.467
 L 16.9123,42.6884 L 17.1869,42.9464 L 17.427,43.2366 L 17.6289,43.5547 L 17.7893,43.8956 L 17.9057,44.2539
 L 17.9763,44.624 L 18,45 L 17.9763,45.376 L 17.9057,45.7461 L 17.7893,46.1044 L 17.6289,46.4453
 L 17.427,46.7634 L 17.1869,47.0536 L 16.9123,47.3115 L 16.6075,47.533 L 16.2773,47.7145 L 15.927,47.8532
 L 15.5621,47.9469 L 15.1884,47.9941 z
M 29.8116,47.9941 L 29.4379,47.9469 L 29.0729,47.8532 L 28.7227,47.7145 L 28.3925,47.533 L 28.0877,47.3115
 L 27.8131,47.0536 L 27.5729,46.7634 L 27.3711,46.4453 L 27.2107,46.1044 L 27.0942,45.7461 L 27.0237,45.376
 L 27,45 L 27.0237,44.624 L 27.0942,44.2539 L 27.2107,43.8956 L 27.3711,43.5547 L 27.5729,43.2366
 L 27.8131,42.9464 L 28.0877,42.6884 L 28.3925,42.467 L 28.7227,42.2855 L 29.0729,42.1468 L 29.4379,42.0531
 L 29.8116,42.0059 L 30.1884,42.0059 L 30.5621,42.0531 L 30.927,42.1468 L 31.2773,42.2855 L 31.6075,42.467
 L 31.9123,42.6884 L 32.1869,42.9464 L 32.427,43.2366 L 32.6289,43.5547 L 32.7893,43.8956 L 32.9057,44.2539
 L 32.9763,44.624 L 33,45 L 32.9763,45.376 L 32.9057,45.7461 L 32.7893,46.1044 L 32.6289,46.4453
 L 32.427,46.7634 L 32.1869,47.0536 L 31.9123,47.3115 L 31.6075,47.533 L 31.2773,47.7145 L 30.927,47.8532
 L 30.5621,47.9469 L 30.1884,47.9941 z
M -0.18837,62.9941 L -0.562134,62.9469 L -0.927048,62.8532 L -1.27733,62.7145 L -1.60747,62.533 L -1.91226,62.3115
 L -2.1869,62.0536 L -2.42705,61.7634 L -2.62891,61.4453 L -2.78932,61.1044 L -2.90575,60.7461 L -2.97633,60.376
 L -3,60 L -2.97633,59.624 L -2.90575,59.2539 L -2.78932,58.8956 L -2.62891,58.5547 L -2.42705,58.2366
 L -2.1869,57.9464 L -1.91226,57.6884 L -1.60747,57.467 L -1.27733,57.2855 L -0.927048,57.1468 L -0.562134,57.0531
 L -0.18837,57.0059 L 0.18837,57.0059 L 0.562134,57.0531 L 0.927048,57.1468 L 1.27733,57.2855 L 1.60747,57.467
 L 1.91226,57.6884 L 2.1869,57.9464 L 2.42705,58.2366 L 2.62891,58.5547 L 2.78932,58.8956 L 2.90575,59.2539
 L 2.97633,59.624 L 3,60 L 2.97633,60.376 L 2.90575,60.7461 L 2.78932,61.1044 L 2.62891,61.4453
 L 2.42705,61.7634 L 2.1869,62.0536 L 1.91226,62.3115 L 1.60747,62.533 L 1.27733,62.7145 L 0.927048,62.8532
 L 0.562134,62.9469 L 0.18837,62.9941 z
" stroke="black" fill="lightgray" stroke-width="0.5"/>
</svg>
