<?xml version="1.0" standalone="no"?>
<!DOCTYPE svg PUBLIC "-//W3C//DTD SVG 1.1//EN" "http://www.w3.org/Graphics/SVG/1.1/DTD/svg11.dtd">
<svg width="132mm" height="132mm" viewBox="-66 -66 132 132" xmlns="http://www.w3.org/2000/svg" version="1.1">
<title>OpenSCAD Model</title>
<path d="
M 12.3672,64.8309 L 20.3951,62.7697 L 28.1014,59.7186 L 35.3646,55.7256 L 42.07,50.8539 L 48.1119,45.1801
 L 53.3951,38.7938 L 57.8362,31.7957 L 61.3652,24.2962 L 63.9265,16.4135 L 65.4796,8.27199 L 66,-0
 L 65.4796,-8.27199 L 63.9265,-16.4135 L 61.3652,-24.2962 L 57.8362,-31.7957 L 53.3951,-38.7938 L 48.1119,-45.1801
 L 42.07,-50.8539 L 35.3646,-55.7256 L 28.1014,-59.7186 L 20.3951,-62.7697 L 12.3672,-64.8309 L 4.14417,-65.8698
 L -4.14417,-65.8698 L -12.3672,-64.8309 L -20.3951,-62.7697 L -28.1014,-59.7186 L -35.3646,-55.7256 L -42.07,-50.8539
 L -48.1119,-45.1801 L -53.3951,-38.7938 L -57.8362,-31.7957 L -61.3652,-24.2962 L -63.9265,-16.4135 L -65.4796,-8.27199
 L -66,-0 L -65.4796,8.27199 L -63.9265,16.4135 L -61.3652,24.2962 L -57.8362,31.7957 L -53.3951,38.7938
 L -48.1119,45.1801 L -42.07,50.8539 L -35.3646,55.7256 L -28.1014,59.7186 L -20.3951,62.7697 L -12.3672,64.8309
 L -4.14417,65.8698 L 4.14417,65.8698 z
M -0.204056,-56.7564 L -0.608978,-56.8076 L -1.0043,-56.9091 L -1.38377,-57.0593 L -1.74142,-57.2559 L -2.07162,-57.4958
 L -2.36914,-57.7752 L -2.6293,-58.0897 L -2.84799,-58.4343 L -3.02176,-58.8036 L -3.14789,-59.1918 L -3.22437,-59.5927
 L -3.25,-60 L -3.22437,-60.4073 L -3.14789,-60.8082 L -3.02176,-61.1964 L -2.84799,-61.5657 L -2.6293,-61.9103
 L -2.36914,-62.2248 L -2.07162,-62.5042 L -1.74142,-62.7441 L -1.38377,-62.9407 L -1.0043,-63.0909 L -0.608978,-63.1924
 L -0.204056,-63.2436 L 0.204056,-63.2436 L 0.608978,-63.1924 L 1.0043,-63.0909 L 1.38377,-62.9407 L 1.74142,-62.7441
 L 2.07162,-62.5042 L 2.36914,-62.2248 L 2.6293,-61.9103 L 2.84799,-61.5657 L 3.02176,-61.1964 L 3.14789,-60.8082
 L 3.22437,-60.4073 L 3.25,-60 L 3.22437,-59.5927 L 3.14789,-59.1918 L 3.02176,-58.8036 L 2.84799,-58.4343
 L 2.6293,-58.0897 L 2.36914,-57.7752 L 2.07162,-57.4958 L 1.74142,-57.2559 L 1.38377,-57.0593 L 1.0043,-56.9091
 L 0.608978,-56.8076 L 0.204056,-56.7564 z
M -30.2041,-41.7564 L -30.609,-41.8076 L -31.0043,-41.9091 L -31.3838,-42.0593 L -31.7414,-42.2559 L -32.0716,-42.4958
 L -32.3691,-42.7752 L -32.6293,-43.0897 L -32.848,-43.4343 L -33.0218,-43.8036 L -33.1479,-44.1918 L -33.2244,-44.5927
 L -33.25,-45 L -33.2244,-45.4073 L -33.1479,-45.8082 L -33.0218,-46.1964 L -32.848,-46.5657 L -32.6293,-46.9103
 L -32.3691,-47.2248 L -32.0716,-47.5042 L -31.7414,-47.7441 L -31.3838,-47.9407 L -31.0043,-48.0909 L -30.609,-48.1924
 L -30.2041,-48.2436 L -29.7959,-48.2436 L -29.391,-48.1924 L -28.9957,-48.0909 L -28.6162,-47.9407 L -28.2586,-47.7441
 L -27.9284,-47.5042 L -27.6308,-47.2248 L -27.3707,-46.9103 L -27.152,-46.5657 L -26.9782,-46.1964 L -26.8521,-45.8082
 L -26.7756,-45.4073 L -26.75,-45 L -26.7756,-44.5927 L -26.8521,-44.1918 L -26.9782,-43.8036 L -27.152,-43.4343
 L -27.3707,-43.0897 L -27.6308,-42.7752 L -27.9284,-42.4958 L -28.2586,-42.2559 L -28.6162,-42.0593 L -28.9957,-41.9091
 L -29.391,-41.8076 L -29.7959,-41.7564 z
M 14.7959,-41.7564 L 14.391,-41.8076 L 13.9957,-41.9091 L 13.6162,-42.0593 L 13.2586,-42.2559 L 12.9284,-42.4958
 L 12.6308,-42.7752 L 12.3707,-43.0897 L 12.152,-43.4343 L 11.9782,-43.8036 L 11.8521,-44.1918 L 11.7756,-44.5927
 L 11.75,-45 L 11.7756,-45.4073 L 11.8521,-45.8082 L 11.9782,-46.1964 L 12.152,-46.5657 L 12.3707,-46.9103
 L 12.6308,-47.2248 L 12.9284,-47.5042 L 13.2586,-47.7441 L 13.6162,-47.9407 L 13.9957,-48.0909 L 14.391,-48.1924
 L 14.7959,-48.2436 L 15.2041,-48.2436 L 15.609,-48.1924 L 16.0043,-48.0909 L 16.3838,-47.9407 L 16.7414,-47.7441
 L 17.0716,-47.5042 L 17.3691,-47.2248 L 17.6293,-46.9103 L 17.848,-46.5657 L 18.0218,-46.1964 L 18.1479,-45.8082
 L 18.2244,-45.4073 L 18.25,-45 L 18.2244,-44.5927 L 18.1479,-44.1918 L 18.0218,-43.8036 L 17.848,-43.4343
 L 17.6293,-43.0897 L 17.3691,-42.7752 L 17.0716,-42.4958 L 16.7414,-42.2559 L 16.3838,-42.0593 L 16.0043,-41.9091
 L 15.609,-41.8076 L 15.2041,-41.7564 z
M -0.204056,-41.7564 L -0.608978,-41.8076 L -1.0043,-41.9091 L -1.38377,-42.0593 L -1.74142,-42.2559 L -2.07162,-42.4958
 L -2.36914,-42.7752 L -2.6293,-43.0897 L -2.84799,-43.4343 L -3.02176,-43.8036 L -3.14789,-44.1918 L -3.22437,-44.5927
 L -3.25,-45 L -3.22437,-45.4073 L -3.14789,-45.8082 L -3.02176,-46.1964 L -2.84799,-46.5657 L -2.6293,-46.9103
 L -2.36914,-47.2248 L -2.07162,-47.5042 L -1.74142,-47.7441 L -1.38377,-47.9407 L -1.0043,-48.0909 L -0.608978,-48.1924
 L -0.204056,-48.2436 L 0.204056,-48.2436 L 0.608978,-48.1924 L 1.0043,-48.0909 L 1.38377,-47.9407 L 1.74142,-47.7441
 L 2.07162,-47.5042 L 2.36914,-47.2248 L 2.6293,-46.9103 L 2.84799,-46.5657 L 3.02176,-46.1964 L 3.14789,-45.8082
 L 3.22437,-45.4073 L 3.25,-45 L 3.22437,-44.5927 L 3.14789,-44.1918 L 3.02176,-43.8036 L 2.84799,-43.4343
 L 2.6293,-43.0897 L 2.36914,-42.7752 L 2.07162,-42.4958 L 1.74142,-42.2559 L 1.38377,-42.0593 L 1.0043,-41.9091
 L 0.608978,-41.8076 L 0.204056,-41.7564 z
M -15.2041,-41.7564 L -15.609,-41.8076 L -16.0043,-41.9091 L -16.3838,-42.0593 L -16.7414,-42.2559 L -17.0716,-42.4958
 L -17.3691,-42.7752 L -17.6293,-43.0897 L -17.848,-43.4343 L -18.0218,-43.8036 L -18.1479,-44.1918 L -18.2244,-44.5927
 L -18.25,-45 L -18.2244,-45.4073 L -18.1479,-45.8082 L -18.0218,-46.1964 L -17.848,-46.5657 L -17.6293,-46.9103
 L -17.3691,-47.2248 L -17.0716,-47.5042 L -16.7414,-47.7441 L -16.3838,-47.9407 L -16.0043,-48.0909 L -15.609,-48.1924
 L -15.2041,-48.2436 L -14.7959,-48.2436 L -14.391,-48.1924 L -13.9957,-48.0909 L -13.6162,-47.9407 L -13.2586,-47.7441
 L -12.9284,-47.5042 L -12.6308,-47.2248 L -12.3707,-46.9103 L -12.152,-46.5657 L -11.9782,-46.1964 L -11.8521,-45.8082
 L -11.7756,-45.4073 L -11.75,-45 L -11.7756,-44.5927 L -11.8521,-44.1918 L -11.9782,-43.8036 L -12.152,-43.4343
 L -12.3707,-43.0897 L -12.6308,-42.7752 L -12.9284,-42.4958 L -13.2586,-42.2559 L -13.6162,-42.0593 L -13.9957,-41.9091
 L -14.391,-41.8076 L -14.7959,-41.7564 z
M 29.7959,-41.7564 L 29.391,-41.8076 L 28.9957,-41.9091 L 28.6162,-42.0593 L 28.2586,-42.2559 L 27.9284,-42.4958
 L 27.6308,-42.7752 L 27.3707,-43.0897 L 27.152,-43.4343 L 26.9782,-43.8036 L 26.8521,-44.1918 L 26.7756,-44.5927
 L 26.75,-45 L 26.7756,-45.4073 L 26.8521,-45.8082 L 26.9782,-46.1964 L 27.152,-46.5657 L 27.3707,-46.9103
 L 27.6308,-47.2248 L 27.9284,-47.5042 L 28.2586,-47.7441 L 28.6162,-47.9407 L 28.9957,-48.0909 L 29.391,-48.1924
 L 29.7959,-48.2436 L 30.2041,-48.2436 L 30.609,-48.1924 L 31.0043,-48.0909 L 31.3838,-47.9407 L 31.7414,-47.7441
 L 32.0716,-47.5042 L 32.3691,-47.2248 L 32.6293,-46.9103 L 32.848,-46.5657 L 33.0218,-46.1964 L 33.1479,-45.8082
 L 33.2244,-45.4073 L 33.25,-45 L 33.2244,-44.5927 L 33.1479,-44.1918 L 33.0218,-43.8036 L 32.848,-43.4343
 L 32.6293,-43.0897 L 32.3691,-42.7752 L 32.0716,-42.4958 L 31.7414,-42.2559 L 31.3838,-42.0593 L 31.0043,-41.9091
 L 30.609,-41.8076 L 30.2041,-41.7564 z
M 44.7959,-26.7564 L 44.391,-26.8076 L 43.9957,-26.9091 L 43.6162,-27.0593 L 43.2586,-27.2559 L 42.9284,-27.4958
 L 42.6308,-27.7752 L 42.3707,-28.0897 L 42.152,-28.4343 L 41.9782,-28.8036 L 41.8521,-29.1918 L 41.7756,-29.5927
 L 41.75,-30 L 41.7756,-30.4073 L 41.8521,-30.8082 L 41.9782,-31.1964 L 42.152,-31.5657 L 42.3707,-31.9103
 L 42.6308,-32.2248 L 42.9284,-32.5042 L 43.2586,-32.7441 L 43.6162,-32.9407 L 43.9957,-33.0909 L 44.391,-33.1924
 L 44.7959,-33.2436 L 45.2041,-33.2436 L 45.609,-33.1924 L 46.0043,-33.0909 L 46.3838,-32.9407 L 46.7414,-32.7441
 L 47.0716,-32.5042 L 47.3691,-32.2248 L 47.6293,-31.9103 L 47.848,-31.5657 L 48.0218,-31.1964 L 48.1479,-30.8082
 L 48.2244,-30.4073 L 48.25,-30 L 48.2244,-29.5927 L 48.1479,-29.1918 L 48.0218,-28.8036 L 47.848,-28.4343
 L 47.6293,-28.0897 L 47.3691,-27.7752 L 47.0716,-27.4958 L 46.7414,-27.2559 L 46.3838,-27.0593 L 46.0043,-26.9091
 L 45.609,-26.8076 L 45.2041,-26.7564 z
M -30.2041,-26.7564 L -30.609,-26.8076 L -31.0043,-26.9091 L -31.3838,-27.0593 L -31.7414,-27.2559 L -32.0716,-27.4958
 L -32.3691,-27.7752 L -32.6293,-28.0897 L -32.848,-28.4343 L -33.0218,-28.8036 L -33.1479,-29.1918 L -33.2244,-29.5927
 L -33.25,-30 L -33.2244,-30.4073 L -33.1479,-30.8082 L -33.0218,-31.1964 L -32.848,-31.5657 L -32.6293,-31.9103
 L -32.3691,-32.2248 L -32.0716,-32.5042 L -31.7414,-32.7441 L -31.3838,-32.9407 L -31.0043,-33.0909 L -30.609,-33.1924
 L -30.2041,-33.2436 L -29.7959,-33.2436 L -29.391,-33.1924 L -28.9957,-33.0909 L -28.6162,-32.9407 L -28.2586,-32.7441
 L -27.9284,-32.5042 L -27.6308,-32.2248 L -27.3707,-31.9103 L -27.152,-31.5657 L -26.9782,-31.1964 L -26.8521,-30.8082
 L -26.7756,-30.4073 L -26.75,-30 L -26.7756,-29.5927 L -26.8521,-29.1918 L -26.9782,-28.8036 L -27.152,-28.4343
 L -27.3707,-28.0897 L -27.6308,-27.7752 L -27.9284,-27.4958 L -28.2586,-27.2559 L -28.6162,-27.0593 L -28.9957,-26.9091
 L -29.391,-26.8076 L -29.7959,-26.7564 z
M -45.2041,-26.7564 L -45.609,-26.8076 L -46.0043,-26.9091 L -46.3838,-27.0593 L -46.7414,-27.2559 L -47.0716,-27.4958
 L -47.3691,-27.7752 L -47.6293,-28.0897 L -47.848,-28.4343 L -48.0218,-28.8036 L -48.1479,-29.1918 L -48.2244,-29.5927
 L -48.25,-30 L -48.2244,-30.4073 L -48.1479,-30.8082 L -48.0218,-31.1964 L -47.848,-31.5657 L -47.6293,-31.9103
 L -47.3691,-32.2248 L -47.0716,-32.5042 L -46.7414,-32.7441 L -46.3838,-32.9407 L -46.0043,-33.0909 L -45.609,-33.1924
 L -45.2041,-33.2436 L -44.7959,-33.2436 L -44.391,-33.1924 L -43.9957,-33.0909 L -43.6162,-32.9407 L -43.2586,-32.7441
 L -42.9284,-32.5042 L -42.6308,-32.2248 L -42.3707,-31.9103 L -42.152,-31.5657 L -41.9782,-31.1964 L -41.8521,-30.8082
 L -41.7756,-30.4073 L -41.75,-30 L -41.7756,-29.5927 L -41.8521,-29.1918 L -41.9782,-28.8036 L -42.152,-28.4343
 L -42.3707,-28.0897 L -42.6308,-27.7752 L -42.9284,-27.4958 L -43.2586,-27.2559 L -43.6162,-27.0593 L -43.9957,-26.9091
 L -44.391,-26.8076 L -44.7959,-26.7564 z
M -15.2041,-26.7564 L -15.609,-26.8076 L -16.0043,-26.9091 L -16.3838,-27.0593 L -16.7414,-27.2559 L -17.0716,-27.4958
 L -17.3691,-27.7752 L -17.6293,-28.0897 L -17.848,-28.4343 L -18.0218,-28.8036 L -18.1479,-29.1918 L -18.2244,-29.5927
 L -18.25,-30 L -18.2244,-30.4073 L -18.1479,-30.8082 L -18.0218,-31.1964 L -17.848,-31.5657 L -17.6293,-31.9103
 L -17.3691,-32.2248 L -17.0716,-32.5042 L -16.7414,-32.7441 L -16.3838,-32.9407 L -16.0043,-33.0909 L -15.609,-33.1924
 L -15.2041,-33.2436 L -14.7959,-33.2436 L -14.391,-33.1924 L -13.9957,-33.0909 L -13.6162,-32.9407 L -13.2586,-32.7441
 L -12.9284,-32.5042 L -12.6308,-32.2248 L -12.3707,-31.9103 L -12.152,-31.5657 L -11.9782,-31.1964 L -11.8521,-30.8082
 L -11.7756,-30.4073 L -11.75,-30 L -11.7756,-29.5927 L -11.8521,-29.1918 L -11.9782,-28.8036 L -12.152,-28.4343
 L -12.3707,-28.0897 L -12.6308,-27.7752 L -12.9284,-27.4958 L -13.2586,-27.2559 L -13.6162,-27.0593 L -13.9957,-26.9091
 L -14.391,-26.8076 L -14.7959,-26.7564 z
M -0.204056,-26.7564 L -0.608978,-26.8076 L -1.0043,-26.9091 L -1.38377,-27.0593 L -1.74142,-27.2559 L -2.07162,-27.4958
 L -2.36914,-27.7752 L -2.6293,-28.0897 L -2.84799,-28.4343 L -3.02176,-28.8036 L -3.14789,-29.1918 L -3.22437,-29.5927
 L -3.25,-30 L -3.22437,-30.4073 L -3.14789,-30.8082 L -3.02176,-31.1964 L -2.84799,-31.5657 L -2.6293,-31.9103
 L -2.36914,-32.2248 L -2.07162,-32.5042 L -1.74142,-32.7441 L -1.38377,-32.9407 L -1.0043,-33.0909 L -0.608978,-33.1924
 L -0.204056,-33.2436 L 0.204056,-33.2436 L 0.608978,-33.1924 L 1.0043,-33.0909 L 1.38377,-32.9407 L 1.74142,-32.7441
 L 2.07162,-32.5042 L 2.36914,-32.2248 L 2.6293,-31.9103 L 2.84799,-31.5657 L 3.02176,-31.1964 L 3.14789,-30.8082
 L 3.22437,-30.4073 L 3.25,-30 L 3.22437,-29.5927 L 3.14789,-29.1918 L 3.02176,-28.8036 L 2.84799,-28.4343
 L 2.6293,-28.0897 L 2.36914,-27.7752 L 2.07162,-27.4958 L 1.74142,-27.2559 L 1.38377,-27.0593 L 1.0043,-26.9091
 L 0.608978,-26.8076 L 0.204056,-26.7564 z
M 14.7959,-26.7564 L 14.391,-26.8076 L 13.9957,-26.9091 L 13.6162,-27.0593 L 13.2586,-27.2559 L 12.9284,-27.4958
 L 12.6308,-27.7752 L 12.3707,-28.0897 L 12.152,-28.4343 L 11.9782,-28.8036 L 11.8521,-29.1918 L 11.7756,-29.5927
 L 11.75,-30 L 11.7756,-30.4073 L 11.8521,-30.8082 L 11.9782,-31.1964 L 12.152,-31.5657 L 12.3707,-31.9103
 L 12.6308,-32.2248 L 12.9284,-32.5042 L 13.2586,-32.7441 L 13.6162,-32.9407 L 13.9957,-33.0909 L 14.391,-33.1924
 L 14.7959,-33.2436 L 15.2041,-33.2436 L 15.609,-33.1924 L 16.0043,-33.0909 L 16.3838,-32.9407 L 16.7414,-32.7441
 L 17.0716,-32.5042 L 17.3691,-32.2248 L 17.6293,-31.9103 L 17.848,-31.5657 L 18.0218,-31.1964 L 18.1479,-30.8082
 L 18.2244,-30.4073 L 18.25,-30 L 18.2244,-29.5927 L 18.1479,-29.1918 L 18.0218,-28.8036 L 17.848,-28.4343
 L 17.6293,-28.0897 L 17.3691,-27.7752 L 17.0716,-27.4958 L 16.7414,-27.2559 L 16.3838,-27.0593 L 16.0043,-26.9091
 L 15.609,-26.8076 L 15.2041,-26.7564 z
M 29.7959,-26.7564 L 29.391,-26.8076 L 28.9957,-26.9091 L 28.6162,-27.0593 L 28.2586,-27.2559 L 27.9284,-27.4958
 L 27.6308,-27.7752 L 27.3707,-28.0897 L 27.152,-28.4343 L 26.9782,-28.8036 L 26.8521,-29.1918 L 26.7756,-29.5927
 L 26.75,-30 L 26.7756,-30.4073 L 26.8521,-30.8082 L 26.9782,-31.1964 L 27.152,-31.5657 L 27.3707,-31.9103
 L 27.6308,-32.2248 L 27.9284,-32.5042 L 28.2586,-32.7441 L 28.6162,-32.9407 L 28.9957,-33.0909 L 29.391,-33.1924
 L 29.7959,-33.2436 L 30.2041,-33.2436 L 30.609,-33.1924 L 31.0043,-33.0909 L 31.3838,-32.9407 L 31.7414,-32.7441
 L 32.0716,-32.5042 L 32.3691,-32.2248 L 32.6293,-31.9103 L 32.848,-31.5657 L 33.0218,-31.1964 L 33.1479,-30.8082
 L 33.2244,-30.4073 L 33.25,-30 L 33.2244,-29.5927 L 33.1479,-29.1918 L 33.0218,-28.8036 L 32.848,-28.4343
 L 32.6293,-28.0897 L 32.3691,-27.7752 L 32.0716,-27.4958 L 31.7414,-27.2559 L 31.3838,-27.0593 L 31.0043,-26.9091
 L 30.609,-26.8076 L 30.2041,-26.7564 z
M 44.7959,-11.7564 L 44.391,-11.8076 L 43.9957,-11.9091 L 43.6162,-12.0593 L 43.2586,-12.2559 L 42.9284,-12.4958
 L 42.6308,-12.7752 L 42.3707,-13.0897 L 42.152,-13.4343 L 41.9782,-13.8036 L 41.8521,-14.1918 L 41.7756,-14.5927
 L 41.75,-15 L 41.7756,-15.4073 L 41.8521,-15.8082 L 41.9782,-16.1964 L 42.152,-16.5657 L 42.3707,-16.9103
 L 42.6308,-17.2248 L 42.9284,-17.5042 L 43.2586,-17.7441 L 43.6162,-17.9407 L 43.9957,-18.0909 L 44.391,-18.1924
 L 44.7959,-18.2436 L 45.2041,-18.2436 L 45.609,-18.1924 L 46.0043,-18.0909 L 46.3838,-17.9407 L 46.7414,-17.7441
 L 47.0716,-17.5042 L 47.3691,-17.2248 L 47.6293,-16.9103 L 47.848,-16.5657 L 48.0218,-16.1964 L 48.1479,-15.8082
 L 48.2244,-15.4073 L 48.25,-15 L 48.2244,-14.5927 L 48.1479,-14.1918 L 48.0218,-13.8036 L 47.848,-13.4343
 L 47.6293,-13.0897 L 47.3691,-12.7752 L 47.0716,-12.4958 L 46.7414,-12.2559 L 46.3838,-12.0593 L 46.0043,-11.9091
 L 45.609,-11.8076 L 45.2041,-11.7564 z
M -45.2041,-11.7564 L -45.609,-11.8076 L -46.0043,-11.9091 L -46.3838,-12.0593 L -46.7414,-12.2559 L -47.0716,-12.4958
 L -47.3691,-12.7752 L -47.6293,-13.0897 L -47.848,-13.4343 L -48.0218,-13.8036 L -48.1479,-14.1918 L -48.2244,-14.5927
 L -48.25,-15 L -48.2244,-15.4073 L -48.1479,-15.8082 L -48.0218,-16.1964 L -47.848,-16.5657 L -47.6293,-16.9103
 L -47.3691,-17.2248 L -47.0716,-17.5042 L -46.7414,-17.7441 L -46.3838,-17.9407 L -46.0043,-18.0909 L -45.609,-18.1924
 L -45.2041,-18.2436 L -44.7959,-18.2436 L -44.391,-18.1924 L -43.9957,-18.0909 L -43.6162,-17.9407 L -43.2586,-17.7441
 L -42.9284,-17.5042 L -42.6308,-17.2248 L -42.3707,-16.9103 L -42.152,-16.5657 L -41.9782,-16.1964 L -41.8521,-15.8082
 L -41.7756,-15.4073 L -41.75,-15 L -41.7756,-14.5927 L -41.8521,-14.1918 L -41.9782,-13.8036 L -42.152,-13.4343
 L -42.3707,-13.0897 L -42.6308,-12.7752 L -42.9284,-12.4958 L -43.2586,-12.2559 L -43.6162,-12.0593 L -43.9957,-11.9091
 L -44.391,-11.8076 L -44.7959,-11.7564 z
M -30.2041,-11.7564 L -30.609,-11.8076 L -31.0043,-11.9091 L -31.3838,-12.0593 L -31.7414,-12.2559 L -32.0716,-12.4958
 L -32.3691,-12.7752 L -32.6293,-13.0897 L -32.848,-13.4343 L -33.0218,-13.8036 L -33.1479,-14.1918 L -33.2244,-14.5927
 L -33.25,-15 L -33.2244,-15.4073 L -33.1479,-15.8082 L -33.0218,-16.1964 L -32.848,-16.5657 L -32.6293,-16.9103
 L -32.3691,-17.2248 L -32.0716,-17.5042 L -31.7414,-17.7441 L -31.3838,-17.9407 L -31.0043,-18.0909 L -30.609,-18.1924
 L -30.2041,-18.2436 L -29.7959,-18.2436 L -29.391,-18.1924 L -28.9957,-18.0909 L -28.6162,-17.9407 L -28.2586,-17.7441
 L -27.9284,-17.5042 L -27.6308,-17.2248 L -27.3707,-16.9103 L -27.152,-16.5657 L -26.9782,-16.1964 L -26.8521,-15.8082
 L -26.7756,-15.4073 L -26.75,-15 L -26.7756,-14.5927 L -26.8521,-14.1918 L -26.9782,-13.8036 L -27.152,-13.4343
 L -27.3707,-13.0897 L -27.6308,-12.7752 L -27.9284,-12.4958 L -28.2586,-12.2559 L -28.6162,-12.0593 L -28.9957,-11.9091
 L -29.391,-11.8076 L -29.7959,-11.7564 z
M -15.2041,-11.7564 L -15.609,-11.8076 L -16.0043,-11.9091 L -16.3838,-12.0593 L -16.7414,-12.2559 L -17.0716,-12.4958
 L -17.3691,-12.7752 L -17.6293,-13.0897 L -17.848,-13.4343 L -18.0218,-13.8036 L -18.1479,-14.1918 L -18.2244,-14.5927
 L -18.25,-15 L -18.2244,-15.4073 L -18.1479,-15.8082 L -18.0218,-16.1964 L -17.848,-16.5657 L -17.6293,-16.9103
 L -17.3691,-17.2248 L -17.0716,-17.5042 L -16.7414,-17.7441 L -16.3838,-17.9407 L -16.0043,-18.0909 L -15.609,-18.1924
 L -15.2041,-18.2436 L -14.7959,-18.2436 L -14.391,-18.1924 L -13.9957,-18.0909 L -13.6162,-17.9407 L -13.2586,-17.7441
 L -12.9284,-17.5042 L -12.6308,-17.2248 L -12.3707,-16.9103 L -12.152,-16.5657 L -11.9782,-16.1964 L -11.8521,-15.8082
 L -11.7756,-15.4073 L -11.75,-15 L -11.7756,-14.5927 L -11.8521,-14.1918 L -11.9782,-13.8036 L -12.152,-13.4343
 L -12.3707,-13.0897 L -12.6308,-12.7752 L -12.9284,-12.4958 L -13.2586,-12.2559 L -13.6162,-12.0593 L -13.9957,-11.9091
 L -14.391,-11.8076 L -14.7959,-11.7564 z
M -0.204056,-11.7564 L -0.608978,-11.8076 L -1.0043,-11.9091 L -1.38377,-12.0593 L -1.74142,-12.2559 L -2.07162,-12.4958
 L -2.36914,-12.7752 L -2.6293,-13.0897 L -2.84799,-13.4343 L -3.02176,-13.8036 L -3.14789,-14.1918 L -3.22437,-14.5927
 L -3.25,-15 L -3.22437,-15.4073 L -3.14789,-15.8082 L -3.02176,-16.1964 L -2.84799,-16.5657 L -2.6293,-16.9103
 L -2.36914,-17.2248 L -2.07162,-17.5042 L -1.74142,-17.7441 L -1.38377,-17.9407 L -1.0043,-18.0909 L -0.608978,-18.1924
 L -0.204056,-18.2436 L 0.204056,-18.2436 L 0.608978,-18.1924 L 1.0043,-18.0909 L 1.38377,-17.9407 L 1.74142,-17.7441
 L 2.07162,-17.5042 L 2.36914,-17.2248 L 2.6293,-16.9103 L 2.84799,-16.5657 L 3.02176,-16.1964 L 3.14789,-15.8082
 L 3.22437,-15.4073 L 3.25,-15 L 3.22437,-14.5927 L 3.14789,-14.1918 L 3.02176,-13.8036 L 2.84799,-13.4343
 L 2.6293,-13.0897 L 2.36914,-12.7752 L 2.07162,-12.4958 L 1.74142,-12.2559 L 1.38377,-12.0593 L 1.0043,-11.9091
 L 0.608978,-11.8076 L 0.204056,-11.7564 z
M 14.7959,-11.7564 L 14.391,-11.8076 L 13.9957,-11.9091 L 13.6162,-12.0593 L 13.2586,-12.2559 L 12.9284,-12.4958
 L 12.6308,-12.7752 L 12.3707,-13.0897 L 12.152,-13.4343 L 11.9782,-13.8036 L 11.8521,-14.1918 L 11.7756,-14.5927
 L 11.75,-15 L 11.7756,-15.4073 L 11.8521,-15.8082 L 11.9782,-16.1964 L 12.152,-16.5657 L 12.3707,-16.9103
 L 12.6308,-17.2248 L 12.9284,-17.5042 L 13.2586,-17.7441 L 13.6162,-17.9407 L 13.9957,-18.0909 L 14.391,-18.1924
 L 14.7959,-18.2436 L 15.2041,-18.2436 L 15.609,-18.1924 L 16.0043,-18.0909 L 16.3838,-17.9407 L 16.7414,-17.7441
 L 17.0716,-17.5042 L 17.3691,-17.2248 L 17.6293,-16.9103 L 17.848,-16.5657 L 18.0218,-16.1964 L 18.1479,-15.8082
 L 18.2244,-15.4073 L 18.25,-15 L 18.2244,-14.5927 L 18.1479,-14.1918 L 18.0218,-13.8036 L 17.848,-13.4343
 L 17.6293,-13.0897 L 17.3691,-12.7752 L 17.0716,-12.4958 L 16.7414,-12.2559 L 16.3838,-12.0593 L 16.0043,-11.9091
 L 15.609,-11.8076 L 15.2041,-11.7564 z
M 29.7959,-11.7564 L 29.391,-11.8076 L 28.9957,-11.9091 L 28.6162,-12.0593 L 28.2586,-12.2559 L 27.9284,-12.4958
 L 27.6308,-12.7752 L 27.3707,-13.0897 L 27.152,-13.4343 L 26.9782,-13.8036 L 26.8521,-14.1918 L 26.7756,-14.5927
 L 26.75,-15 L 26.7756,-15.4073 L 26.8521,-15.8082 L 26.9782,-16.1964 L 27.152,-16.5657 L 27.3707,-16.9103
 L 27.6308,-17.2248 L 27.9284,-17.5042 L 28.2586,-17.7441 L 28.6162,-17.9407 L 28.9957,-18.0909 L 29.391,-18.1924
 L 29.7959,-18.2436 L 30.2041,-18.2436 L 30.609,-18.1924 L 31.0043,-18.0909 L 31.3838,-17.9407 L 31.7414,-17.7441
 L 32.0716,-17.5042 L 32.3691,-17.2248 L 32.6293,-16.9103 L 32.848,-16.5657 L 33.0218,-16.1964 L 33.1479,-15.8082
 L 33.2244,-15.4073 L 33.25,-15 L 33.2244,-14.5927 L 33.1479,-14.1918 L 33.0218,-13.8036 L 32.848,-13.4343
 L 32.6293,-13.0897 L 32.3691,-12.7752 L 32.0716,-12.4958 L 31.7414,-12.2559 L 31.3838,-12.0593 L 31.0043,-11.9091
 L 30.609,-11.8076 L 30.2041,-11.7564 z
M -60.2041,3.24358 L -60.609,3.19243 L -61.0043,3.09093 L -61.3838,2.94067 L -61.7414,2.74406 L -62.0716,2.50417
 L -62.3691,2.22478 L -62.6293,1.91029 L -62.848,1.56569 L -63.0218,1.1964 L -63.1479,0.808228 L -63.2244,0.407318
 L -63.25,-0 L -63.2244,-0.407318 L -63.1479,-0.808228 L -63.0218,-1.1964 L -62.848,-1.56569 L -62.6293,-1.91029
 L -62.3691,-2.22478 L -62.0716,-2.50417 L -61.7414,-2.74406 L -61.3838,-2.94067 L -61.0043,-3.09093 L -60.609,-3.19243
 L -60.2041,-3.24358 L -59.7959,-3.24358 L -59.391,-3.19243 L -58.9957,-3.09093 L -58.6162,-2.94067 L -58.2586,-2.74406
 L -57.9284,-2.50417 L -57.6308,-2.22478 L -57.3707,-1.91029 L -57.152,-1.56569 L -56.9782,-1.1964 L -56.8521,-0.808228
 L -56.7756,-0.407318 L -56.75,-0 L -56.7756,0.407318 L -56.8521,0.808228 L -56.9782,1.1964 L -57.152,1.56569
 L -57.3707,1.91029 L -57.6308,2.22478 L -57.9284,2.50417 L -58.2586,2.74406 L -58.6162,2.94067 L -58.9957,3.09093
 L -59.391,3.19243 L -59.7959,3.24358 z
M -45.2041,3.24358 L -45.609,3.19243 L -46.0043,3.09093 L -46.3838,2.94067 L -46.7414,2.74406 L -47.0716,2.50417
 L -47.3691,2.22478 L -47.6293,1.91029 L -47.848,1.56569 L -48.0218,1.1964 L -48.1479,0.808228 L -48.2244,0.407318
 L -48.25,-0 L -48.2244,-0.407318 L -48.1479,-0.808228 L -48.0218,-1.1964 L -47.848,-1.56569 L -47.6293,-1.91029
 L -47.3691,-2.22478 L -47.0716,-2.50417 L -46.7414,-2.74406 L -46.3838,-2.94067 L -46.0043,-3.09093 L -45.609,-3.19243
 L -45.2041,-3.24358 L -44.7959,-3.24358 L -44.391,-3.19243 L -43.9957,-3.09093 L -43.6162,-2.94067 L -43.2586,-2.74406
 L -42.9284,-2.50417 L -42.6308,-2.22478 L -42.3707,-1.91029 L -42.152,-1.56569 L -41.9782,-1.1964 L -41.8521,-0.808228
 L -41.7756,-0.407318 L -41.75,-0 L -41.7756,0.407318 L -41.8521,0.808228 L -41.9782,1.1964 L -42.152,1.56569
 L -42.3707,1.91029 L -42.6308,2.22478 L -42.9284,2.50417 L -43.2586,2.74406 L -43.6162,2.94067 L -43.9957,3.09093
 L -44.391,3.19243 L -44.7959,3.24358 z
M -0.204056,3.24358 L -0.608978,3.19243 L -1.0043,3.09093 L -1.38377,2.94067 L -1.74142,2.74406 L -2.07162,2.50417
 L -2.36914,2.22478 L -2.6293,1.91029 L -2.84799,1.56569 L -3.02176,1.1964 L -3.14789,0.808228 L -3.22437,0.407318
 L -3.25,-0 L -3.22437,-0.407318 L -3.14789,-0.808228 L -3.02176,-1.1964 L -2.84799,-1.56569 L -2.6293,-1.91029
 L -2.36914,-2.22478 L -2.07162,-2.50417 L -1.74142,-2.74406 L -1.38377,-2.94067 L -1.0043,-3.09093 L -0.608978,-3.19243
 L -0.204056,-3.24358 L 0.204056,-3.24358 L 0.608978,-3.19243 L 1.0043,-3.09093 L 1.38377,-2.94067 L 1.74142,-2.74406
 L 2.07162,-2.50417 L 2.36914,-2.22478 L 2.6293,-1.91029 L 2.84799,-1.56569 L 3.02176,-1.1964 L 3.14789,-0.808228
 L 3.22437,-0.407318 L 3.25,-0 L 3.22437,0.407318 L 3.14789,0.808228 L 3.02176,1.1964 L 2.84799,1.56569
 L 2.6293,1.91029 L 2.36914,2.22478 L 2.07162,2.50417 L 1.74142,2.74406 L 1.38377,2.94067 L 1.0043,3.09093
 L 0.608978,3.19243 L 0.204056,3.24358 z
M -15.2041,3.24358 L -15.609,3.19243 L -16.0043,3.09093 L -16.3838,2.94067 L -16.7414,2.74406 L -17.0716,2.50417
 L -17.3691,2.22478 L -17.6293,1.91029 L -17.848,1.56569 L -18.0218,1.1964 L -18.1479,0.808228 L -18.2244,0.407318
 L -18.25,-0 L -18.2244,-0.407318 L -18.1479,-0.808228 L -18.0218,-1.1964 L -17.848,-1.56569 L -17.6293,-1.91029
 L -17.3691,-2.22478 L -17.0716,-2.50417 L -16.7414,-2.74406 L -16.3838,-2.94067 L -16.0043,-3.09093 L -15.609,-3.19243
 L -15.2041,-3.24358 L -14.7959,-3.24358 L -14.391,-3.19243 L -13.9957,-3.09093 L -13.6162,-2.94067 L -13.2586,-2.74406
 L -12.9284,-2.50417 L -12.6308,-2.22478 L -12.3707,-1.91029 L -12.152,-1.56569 L -11.9782,-1.1964 L -11.8521,-0.808228
 L -11.7756,-0.407318 L -11.75,-0 L -11.7756,0.407318 L -11.8521,0.808228 L -11.9782,1.1964 L -12.152,1.56569
 L -12.3707,1.91029 L -12.6308,2.22478 L -12.9284,2.50417 L -13.2586,2.74406 L -13.6162,2.94067 L -13.9957,3.09093
 L -14.391,3.19243 L -14.7959,3.24358 z
M 14.7959,3.24358 L 14.391,3.19243 L 13.9957,3.09093 L 13.6162,2.94067 L 13.2586,2.74406 L 12.9284,2.50417
 L 12.6308,2.22478 L 12.3707,1.91029 L 12.152,1.56569 L 11.9782,1.1964 L 11.8521,0.808228 L 11.7756,0.407318
 L 11.75,-0 L 11.7756,-0.407318 L 11.8521,-0.808228 L 11.9782,-1.1964 L 12.152,-1.56569 L 12.3707,-1.91029
 L 12.6308,-2.22478 L 12.9284,-2.50417 L 13.2586,-2.74406 L 13.6162,-2.94067 L 13.9957,-3.09093 L 14.391,-3.19243
 L 14.7959,-3.24358 L 15.2041,-3.24358 L 15.609,-3.19243 L 16.0043,-3.09093 L 16.3838,-2.94067 L 16.7414,-2.74406
 L 17.0716,-2.50417 L 17.3691,-2.22478 L 17.6293,-1.91029 L 17.848,-1.56569 L 18.0218,-1.1964 L 18.1479,-0.808228
 L 18.2244,-0.407318 L 18.25,-0 L 18.2244,0.407318 L 18.1479,0.808228 L 18.0218,1.1964 L 17.848,1.56569
 L 17.6293,1.91029 L 17.3691,2.22478 L 17.0716,2.50417 L 16.7414,2.74406 L 16.3838,2.94067 L 16.0043,3.09093
 L 15.609,3.19243 L 15.2041,3.24358 z
M 44.7959,3.24358 L 44.391,3.19243 L 43.9957,3.09093 L 43.6162,2.94067 L 43.2586,2.74406 L 42.9284,2.50417
 L 42.6308,2.22478 L 42.3707,1.91029 L 42.152,1.56569 L 41.9782,1.1964 L 41.8521,0.808228 L 41.7756,0.407318
 L 41.75,-0 L 41.7756,-0.407318 L 41.8521,-0.808228 L 41.9782,-1.1964 L 42.152,-1.56569 L 42.3707,-1.91029
 L 42.6308,-2.22478 L 42.9284,-2.50417 L 43.2586,-2.74406 L 43.6162,-2.94067 L 43.9957,-3.09093 L 44.391,-3.19243
 L 44.7959,-3.24358 L 45.2041,-3.24358 L 45.609,-3.19243 L 46.0043,-3.09093 L 46.3838,-2.94067 L 46.7414,-2.74406
 L 47.0716,-2.50417 L 47.3691,-2.22478 L 47.6293,-1.91029 L 47.848,-1.56569 L 48.0218,-1.1964 L 48.1479,-0.808228
 L 48.2244,-0.407318 L 48.25,-0 L 48.2244,0.407318 L 48.1479,0.808228 L 48.0218,1.1964 L 47.848,1.56569
 L 47.6293,1.91029 L 47.3691,2.22478 L 47.0716,2.50417 L 46.7414,2.74406 L 46.3838,2.94067 L 46.0043,3.09093
 L 45.609,3.19243 L 45.2041,3.24358 z
M -30.2041,3.24358 L -30.609,3.19243 L -31.0043,3.09093 L -31.3838,2.94067 L -31.7414,2.74406 L -32.0716,2.50417
 L -32.3691,2.22478 L -32.6293,1.91029 L -32.848,1.56569 L -33.0218,1.1964 L -33.1479,0.808228 L -33.2244,0.407318
 L -33.25,-0 L -33.2244,-0.407318 L -33.1479,-0.808228 L -33.0218,-1.1964 L -32.848,-1.56569 L -32.6293,-1.91029
 L -32.3691,-2.22478 L -32.0716,-2.50417 L -31.7414,-2.74406 L -31.3838,-2.94067 L -31.0043,-3.09093 L -30.609,-3.19243
 L -30.2041,-3.24358 L -29.7959,-3.24358 L -29.391,-3.19243 L -28.9957,-3.09093 L -28.6162,-2.94067 L -28.2586,-2.74406
 L -27.9284,-2.50417 L -27.6308,-2.22478 L -27.3707,-1.91029 L -27.152,-1.56569 L -26.9782,-1.1964 L -26.8521,-0.808228
 L -26.7756,-0.407318 L -26.75,-0 L -26.7756,0.407318 L -26.8521,0.808228 L -26.9782,1.1964 L -27.152,1.56569
 L -27.3707,1.91029 L -27.6308,2.22478 L -27.9284,2.50417 L -28.2586,2.74406 L -28.6162,2.94067 L -28.9957,3.09093
 L -29.391,3.19243 L -29.7959,3.24358 z
M 29.7959,3.24358 L 29.391,3.19243 L 28.9957,3.09093 L 28.6162,2.94067 L 28.2586,2.74406 L 27.9284,2.50417
 L 27.6308,2.22478 L 27.3707,1.91029 L 27.152,1.56569 L 26.9782,1.1964 L 26.8521,0.808228 L 26.7756,0.407318
 L 26.75,-0 L 26.7756,-0.407318 L 26.8521,-0.808228 L 26.9782,-1.1964 L 27.152,-1.56569 L 27.3707,-1.91029
 L 27.6308,-2.22478 L 27.9284,-2.50417 L 28.2586,-2.74406 L 28.6162,-2.94067 L 28.9957,-3.09093 L 29.391,-3.19243
 L 29.7959,-3.24358 L 30.2041,-3.24358 L 30.609,-3.19243 L 31.0043,-3.09093 L 31.3838,-2.94067 L 31.7414,-2.74406
 L 32.0716,-2.50417 L 32.3691,-2.22478 L 32.6293,-1.91029 L 32.848,-1.56569 L 33.0218,-1.1964 L 33.1479,-0.808228
 L 33.2244,-0.407318 L 33.25,-0 L 33.2244,0.407318 L 33.1479,0.808228 L 33.0218,1.1964 L 32.848,1.56569
 L 32.6293,1.91029 L 32.3691,2.22478 L 32.0716,2.50417 L 31.7414,2.74406 L 31.3838,2.94067 L 31.0043,3.09093
 L 30.609,3.19243 L 30.2041,3.24358 z
M 59.7959,3.24358 L 59.391,3.19243 L 58.9957,3.09093 L 58.6162,2.94067 L 58.2586,2.74406 L 57.9284,2.50417
 L 57.6308,2.22478 L 57.3707,1.91029 L 57.152,1.56569 L 56.9782,1.1964 L 56.8521,0.808228 L 56.7756,0.407318
 L 56.75,-0 L 56.7756,-0.407318 L 56.8521,-0.808228 L 56.9782,-1.1964 L 57.152,-1.56569 L 57.3707,-1.91029
 L 57.6308,-2.22478 L 57.9284,-2.50417 L 58.2586,-2.74406 L 58.6162,-2.94067 L 58.9957,-3.09093 L 59.391,-3.19243
 L 59.7959,-3.24358 L 60.2041,-3.24358 L 60.609,-3.19243 L 61.0043,-3.09093 L 61.3838,-2.94067 L 61.7414,-2.74406
 L 62.0716,-2.50417 L 62.3691,-2.22478 L 62.6293,-1.91029 L 62.848,-1.56569 L 63.0218,-1.1964 L 63.1479,-0.808228
 L 63.2244,-0.407318 L 63.25,-0 L 63.2244,0.407318 L 63.1479,0.808228 L 63.0218,1.1964 L 62.848,1.56569
 L 62.6293,1.91029 L 62.3691,2.22478 L 62.0716,2.50417 L 61.7414,2.74406 L 61.3838,2.94067 L 61.0043,3.09093
 L 60.609,3.19243 L 60.2041,3.24358 z
M 44.7959,18.2436 L 44.391,18.1924 L 43.9957,18.0909 L 43.6162,17.9407 L 43.2586,17.7441 L 42.9284,17.5042
 L 42.6308,17.2248 L 42.3707,16.9103 L 42.152,16.5657 L 41.9782,16.1964 L 41.8521,15.8082 L 41.7756,15.4073
 L 41.75,15 L 41.7756,14.5927 L 41.8521,14.1918 L 41.9782,13.8036 L 42.152,13.4343 L 42.3707,13.0897
 L 42.6308,12.7752 L 42.9284,12.4958 L 43.2586,12.2559 L 43.6162,12.0593 L 43.9957,11.9091 L 44.391,11.8076
 L 44.7959,11.7564 L 45.2041,11.7564 L 45.609,11.8076 L 46.0043,11.9091 L 46.3838,12.0593 L 46.7414,12.2559
 L 47.0716,12.4958 L 47.3691,12.7752 L 47.6293,13.0897 L 47.848,13.4343 L 48.0218,13.8036 L 48.1479,14.1918
 L 48.2244,14.5927 L 48.25,15 L 48.2244,15.4073 L 48.1479,15.8082 L 48.0218,16.1964 L 47.848,16.5657
 L 47.6293,16.9103 L 47.3691,17.2248 L 47.0716,17.5042 L 46.7414,17.7441 L 46.3838,17.9407 L 46.0043,18.0909
 L 45.609,18.1924 L 45.2041,18.2436 z
M 29.7959,18.2436 L 29.391,18.1924 L 28.9957,18.0909 L 28.6162,17.9407 L 28.2586,17.7441 L 27.9284,17.5042
 L 27.6308,17.2248 L 27.3707,16.9103 L 27.152,16.5657 L 26.9782,16.1964 L 26.8521,15.8082 L 26.7756,15.4073
 L 26.75,15 L 26.7756,14.5927 L 26.8521,14.1918 L 26.9782,13.8036 L 27.152,13.4343 L 27.3707,13.0897
 L 27.6308,12.7752 L 27.9284,12.4958 L 28.2586,12.2559 L 28.6162,12.0593 L 28.9957,11.9091 L 29.391,11.8076
 L 29.7959,11.7564 L 30.2041,11.7564 L 30.609,11.8076 L 31.0043,11.9091 L 31.3838,12.0593 L 31.7414,12.2559
 L 32.0716,12.4958 L 32.3691,12.7752 L 32.6293,13.0897 L 32.848,13.4343 L 33.0218,13.8036 L 33.1479,14.1918
 L 33.2244,14.5927 L 33.25,15 L 33.2244,15.4073 L 33.1479,15.8082 L 33.0218,16.1964 L 32.848,16.5657
 L 32.6293,16.9103 L 32.3691,17.2248 L 32.0716,17.5042 L 31.7414,17.7441 L 31.3838,17.9407 L 31.0043,18.0909
 L 30.609,18.1924 L 30.2041,18.2436 z
M 14.7959,18.2436 L 14.391,18.1924 L 13.9957,18.0909 L 13.6162,17.9407 L 13.2586,17.7441 L 12.9284,17.5042
 L 12.6308,17.2248 L 12.3707,16.9103 L 12.152,16.5657 L 11.9782,16.1964 L 11.8521,15.8082 L 11.7756,15.4073
 L 11.75,15 L 11.7756,14.5927 L 11.8521,14.1918 L 11.9782,13.8036 L 12.152,13.4343 L 12.3707,13.0897
 L 12.6308,12.7752 L 12.9284,12.4958 L 13.2586,12.2559 L 13.6162,12.0593 L 13.9957,11.9091 L 14.391,11.8076
 L 14.7959,11.7564 L 15.2041,11.7564 L 15.609,11.8076 L 16.0043,11.9091 L 16.3838,12.0593 L 16.7414,12.2559
 L 17.0716,12.4958 L 17.3691,12.7752 L 17.6293,13.0897 L 17.848,13.4343 L 18.0218,13.8036 L 18.1479,14.1918
 L 18.2244,14.5927 L 18.25,15 L 18.2244,15.4073 L 18.1479,15.8082 L 18.0218,16.1964 L 17.848,16.5657
 L 17.6293,16.9103 L 17.3691,17.2248 L 17.0716,17.5042 L 16.7414,17.7441 L 16.3838,17.9407 L 16.0043,18.0909
 L 15.609,18.1924 L 15.2041,18.2436 z
M -0.204056,18.2436 L -0.608978,18.1924 L -1.0043,18.0909 L -1.38377,17.9407 L -1.74142,17.7441 L -2.07162,17.5042
 L -2.36914,17.2248 L -2.6293,16.9103 L -2.84799,16.5657 L -3.02176,16.1964 L -3.14789,15.8082 L -3.22437,15.4073
 L -3.25,15 L -3.22437,14.5927 L -3.14789,14.1918 L -3.02176,13.8036 L -2.84799,13.4343 L -2.6293,13.0897
 L -2.36914,12.7752 L -2.07162,12.4958 L -1.74142,12.2559 L -1.38377,12.0593 L -1.0043,11.9091 L -0.608978,11.8076
 L -0.204056,11.7564 L 0.204056,11.7564 L 0.608978,11.8076 L 1.0043,11.9091 L 1.38377,12.0593 L 1.74142,12.2559
 L 2.07162,12.4958 L 2.36914,12.7752 L 2.6293,13.0897 L 2.84799,13.4343 L 3.02176,13.8036 L 3.14789,14.1918
 L 3.22437,14.5927 L 3.25,15 L 3.22437,15.4073 L 3.14789,15.8082 L 3.02176,16.1964 L 2.84799,16.5657
 L 2.6293,16.9103 L 2.36914,17.2248 L 2.07162,17.5042 L 1.74142,17.7441 L 1.38377,17.9407 L 1.0043,18.0909
 L 0.608978,18.1924 L 0.204056,18.2436 z
M -15.2041,18.2436 L -15.609,18.1924 L -16.0043,18.0909 L -16.3838,17.9407 L -16.7414,17.7441 L -17.0716,17.5042
 L -17.3691,17.2248 L -17.6293,16.9103 L -17.848,16.5657 L -18.0218,16.1964 L -18.1479,15.8082 L -18.2244,15.4073
 L -18.25,15 L -18.2244,14.5927 L -18.1479,14.1918 L -18.0218,13.8036 L -17.848,13.4343 L -17.6293,13.0897
 L -17.3691,12.7752 L -17.0716,12.4958 L -16.7414,12.2559 L -16.3838,12.0593 L -16.0043,11.9091 L -15.609,11.8076
 L -15.2041,11.7564 L -14.7959,11.7564 L -14.391,11.8076 L -13.9957,11.9091 L -13.6162,12.0593 L -13.2586,12.2559
 L -12.9284,12.4958 L -12.6308,12.7752 L -12.3707,13.0897 L -12.152,13.4343 L -11.9782,13.8036 L -11.8521,14.1918
 L -11.7756,14.5927 L -11.75,15 L -11.7756,15.4073 L -11.8521,15.8082 L -11.9782,16.1964 L -12.152,16.5657
 L -12.3707,16.9103 L -12.6308,17.2248 L -12.9284,17.5042 L -13.2586,17.7441 L -13.6162,17.9407 L -13.9957,18.0909
 L -14.391,18.1924 L -14.7959,18.2436 z
M -45.2041,18.2436 L -45.609,18.1924 L -46.0043,18.0909 L -46.3838,17.9407 L -46.7414,17.7441 L -47.0716,17.5042
 L -47.3691,17.2248 L -47.6293,16.9103 L -47.848,16.5657 L -48.0218,16.1964 L -48.1479,15.8082 L -48.2244,15.4073
 L -48.25,15 L -48.2244,14.5927 L -48.1479,14.1918 L -48.0218,13.8036 L -47.848,13.4343 L -47.6293,13.0897
 L -47.3691,12.7752 L -47.0716,12.4958 L -46.7414,12.2559 L -46.3838,12.0593 L -46.0043,11.9091 L -45.609,11.8076
 L -45.2041,11.7564 L -44.7959,11.7564 L -44.391,11.8076 L -43.9957,11.9091 L -43.6162,12.0593 L -43.2586,12.2559
 L -42.9284,12.4958 L -42.6308,12.7752 L -42.3707,13.0897 L -42.152,13.4343 L -41.9782,13.8036 L -41.8521,14.1918
 L -41.7756,14.5927 L -41.75,15 L -41.7756,15.4073 L -41.8521,15.8082 L -41.9782,16.1964 L -42.152,16.5657
 L -42.3707,16.9103 L -42.6308,17.2248 L -42.9284,17.5042 L -43.2586,17.7441 L -43.6162,17.9407 L -43.9957,18.0909
 L -44.391,18.1924 L -44.7959,18.2436 z
M -30.2041,18.2436 L -30.609,18.1924 L -31.0043,18.0909 L -31.3838,17.9407 L -31.7414,17.7441 L -32.0716,17.5042
 L -32.3691,17.2248 L -32.6293,16.9103 L -32.848,16.5657 L -33.0218,16.1964 L -33.1479,15.8082 L -33.2244,15.4073
 L -33.25,15 L -33.2244,14.5927 L -33.1479,14.1918 L -33.0218,13.8036 L -32.848,13.4343 L -32.6293,13.0897
 L -32.3691,12.7752 L -32.0716,12.4958 L -31.7414,12.2559 L -31.3838,12.0593 L -31.0043,11.9091 L -30.609,11.8076
 L -30.2041,11.7564 L -29.7959,11.7564 L -29.391,11.8076 L -28.9957,11.9091 L -28.6162,12.0593 L -28.2586,12.2559
 L -27.9284,12.4958 L -27.6308,12.7752 L -27.3707,13.0897 L -27.152,13.4343 L -26.9782,13.8036 L -26.8521,14.1918
 L -26.7756,14.5927 L -26.75,15 L -26.7756,15.4073 L -26.8521,15.8082 L -26.9782,16.1964 L -27.152,16.5657
 L -27.3707,16.9103 L -27.6308,17.2248 L -27.9284,17.5042 L -28.2586,17.7441 L -28.6162,17.9407 L -28.9957,18.0909
 L -29.391,18.1924 L -29.7959,18.2436 z
M 44.7959,33.2436 L 44.391,33.1924 L 43.9957,33.0909 L 43.6162,32.9407 L 43.2586,32.7441 L 42.9284,32.5042
 L 42.6308,32.2248 L 42.3707,31.9103 L 42.152,31.5657 L 41.9782,31.1964 L 41.8521,30.8082 L 41.7756,30.4073
 L 41.75,30 L 41.7756,29.5927 L 41.8521,29.1918 L 41.9782,28.8036 L 42.152,28.4343 L 42.3707,28.0897
 L 42.6308,27.7752 L 42.9284,27.4958 L 43.2586,27.2559 L 43.6162,27.0593 L 43.9957,26.9091 L 44.391,26.8076
 L 44.7959,26.7564 L 45.2041,26.7564 L 45.609,26.8076 L 46.0043,26.9091 L 46.3838,27.0593 L 46.7414,27.2559
 L 47.0716,27.4958 L 47.3691,27.7752 L 47.6293,28.0897 L 47.848,28.4343 L 48.0218,28.8036 L 48.1479,29.1918
 L 48.2244,29.5927 L 48.25,30 L 48.2244,30.4073 L 48.1479,30.8082 L 48.0218,31.1964 L 47.848,31.5657
 L 47.6293,31.9103 L 47.3691,32.2248 L 47.0716,32.5042 L 46.7414,32.7441 L 46.3838,32.9407 L 46.0043,33.0909
 L 45.609,33.1924 L 45.2041,33.2436 z
M -30.2041,33.2436 L -30.609,33.1924 L -31.0043,33.0909 L -31.3838,32.9407 L -31.7414,32.7441 L -32.0716,32.5042
 L -32.3691,32.2248 L -32.6293,31.9103 L -32.848,31.5657 L -33.0218,31.1964 L -33.1479,30.8082 L -33.2244,30.4073
 L -33.25,30 L -33.2244,29.5927 L -33.1479,29.1918 L -33.0218,28.8036 L -32.848,28.4343 L -32.6293,28.0897
 L -32.3691,27.7752 L -32.0716,27.4958 L -31.7414,27.2559 L -31.3838,27.0593 L -31.0043,26.9091 L -30.609,26.8076
 L -30.2041,26.7564 L -29.7959,26.7564 L -29.391,26.8076 L -28.9957,26.9091 L -28.6162,27.0593 L -28.2586,27.2559
 L -27.9284,27.4958 L -27.6308,27.7752 L -27.3707,28.0897 L -27.152,28.4343 L -26.9782,28.8036 L -26.8521,29.1918
 L -26.7756,29.5927 L -26.75,30 L -26.7756,30.4073 L -26.8521,30.8082 L -26.9782,31.1964 L -27.152,31.5657
 L -27.3707,31.9103 L -27.6308,32.2248 L -27.9284,32.5042 L -28.2586,32.7441 L -28.6162,32.9407 L -28.9957,33.0909
 L -29.391,33.1924 L -29.7959,33.2436 z
M -15.2041,33.2436 L -15.609,33.1924 L -16.0043,33.0909 L -16.3838,32.9407 L -16.7414,32.7441 L -17.0716,32.5042
 L -17.3691,32.2248 L -17.6293,31.9103 L -17.848,31.5657 L -18.0218,31.1964 L -18.1479,30.8082 L -18.2244,30.4073
 L -18.25,30 L -18.2244,29.5927 L -18.1479,29.1918 L -18.0218,28.8036 L -17.848,28.4343 L -17.6293,28.0897
 L -17.3691,27.7752 L -17.0716,27.4958 L -16.7414,27.2559 L -16.3838,27.0593 L -16.0043,26.9091 L -15.609,26.8076
 L -15.2041,26.7564 L -14.7959,26.7564 L -14.391,26.8076 L -13.9957,26.9091 L -13.6162,27.0593 L -13.2586,27.2559
 L -12.9284,27.4958 L -12.6308,27.7752 L -12.3707,28.0897 L -12.152,28.4343 L -11.9782,28.8036 L -11.8521,29.1918
 L -11.7756,29.5927 L -11.75,30 L -11.7756,30.4073 L -11.8521,30.8082 L -11.9782,31.1964 L -12.152,31.5657
 L -12.3707,31.9103 L -12.6308,32.2248 L -12.9284,32.5042 L -13.2586,32.7441 L -13.6162,32.9407 L -13.9957,33.0909
 L -14.391,33.1924 L -14.7959,33.2436 z
M -0.204056,33.2436 L -0.608978,33.1924 L -1.0043,33.0909 L -1.38377,32.9407 L -1.74142,32.7441 L -2.07162,32.5042
 L -2.36914,32.2248 L -2.6293,31.9103 L -2.84799,31.5657 L -3.02176,31.1964 L -3.14789,30.8082 L -3.22437,30.4073
 L -3.25,30 L -3.22437,29.5927 L -3.14789,29.1918 L -3.02176,28.8036 L -2.84799,28.4343 L -2.6293,28.0897
 L -2.36914,27.7752 L -2.07162,27.4958 L -1.74142,27.2559 L -1.38377,27.0593 L -1.0043,26.9091 L -0.608978,26.8076
 L -0.204056,26.7564 L 0.204056,26.7564 L 0.608978,26.8076 L 1.0043,26.9091 L 1.38377,27.0593 L 1.74142,27.2559
 L 2.07162,27.4958 L 2.36914,27.7752 L 2.6293,28.0897 L 2.84799,28.4343 L 3.02176,28.8036 L 3.14789,29.1918
 L 3.22437,29.5927 L 3.25,30 L 3.22437,30.4073 L 3.14789,30.8082 L 3.02176,31.1964 L 2.84799,31.5657
 L 2.6293,31.9103 L 2.36914,32.2248 L 2.07162,32.5042 L 1.74142,32.7441 L 1.38377,32.9407 L 1.0043,33.0909
 L 0.608978,33.1924 L 0.204056,33.2436 z
M 14.7959,33.2436 L 14.391,33.1924 L 13.9957,33.0909 L 13.6162,32.9407 L 13.2586,32.7441 L 12.9284,32.5042
 L 12.6308,32.2248 L 12.3707,31.9103 L 12.152,31.5657 L 11.9782,31.1964 L 11.8521,30.8082 L 11.7756,30.4073
 L 11.75,30 L 11.7756,29.5927 L 11.8521,29.1918 L 11.9782,28.8036 L 12.152,28.4343 L 12.3707,28.0897
 L 12.6308,27.7752 L 12.9284,27.4958 L 13.2586,27.2559 L 13.6162,27.0593 L 13.9957,26.9091 L 14.391,26.8076
 L 14.7959,26.7564 L 15.2041,26.7564 L 15.609,26.8076 L 16.0043,26.9091 L 16.3838,27.0593 L 16.7414,27.2559
 L 17.0716,27.4958 L 17.3691,27.7752 L 17.6293,28.0897 L 17.848,28.4343 L 18.0218,28.8036 L 18.1479,29.1918
 L 18.2244,29.5927 L 18.25,30 L 18.2244,30.4073 L 18.1479,30.8082 L 18.0218,31.1964 L 17.848,31.5657
 L 17.6293,31.9103 L 17.3691,32.2248 L 17.0716,32.5042 L 16.7414,32.7441 L 16.3838,32.9407 L 16.0043,33.0909
 L 15.609,33.1924 L 15.2041,33.2436 z
M 29.7959,33.2436 L 29.391,33.1924 L 28.9957,33.0909 L 28.6162,32.9407 L 28.2586,32.7441 L 27.9284,32.5042
 L 27.6308,32.2248 L 27.3707,31.9103 L 27.152,31.5657 L 26.9782,31.1964 L 26.8521,30.8082 L 26.7756,30.4073
 L 26.75,30 L 26.7756,29.5927 L 26.8521,29.1918 L 26.9782,28.8036 L 27.152,28.4343 L 27.3707,28.0897
 L 27.6308,27.7752 L 27.9284,27.4958 L 28.2586,27.2559 L 28.6162,27.0593 L 28.9957,26.9091 L 29.391,26.8076
 L 29.7959,26.7564 L 30.2041,26.7564 L 30.609,26.8076 L 31.0043,26.9091 L 31.3838,27.0593 L 31.7414,27.2559
 L 32.0716,27.4958 L 32.3691,27.7752 L 32.6293,28.0897 L 32.848,28.4343 L 33.0218,28.8036 L 33.1479,29.1918
 L 33.2244,29.5927 L 33.25,30 L 33.2244,30.4073 L 33.1479,30.8082 L 33.0218,31.1964 L 32.848,31.5657
 L 32.6293,31.9103 L 32.3691,32.2248 L 32.0716,32.5042 L 31.7414,32.7441 L 31.3838,32.9407 L 31.0043,33.0909
 L 30.609,33.1924 L 30.2041,33.2436 z
M -45.2041,33.2436 L -45.609,33.1924 L -46.0043,33.0909 L -46.3838,32.9407 L -46.7414,32.7441 L -47.0716,32.5042
 L -47.3691,32.2248 L -47.6293,31.9103 L -47.848,31.5657 L -48.0218,31.1964 L -48.1479,30.8082 L -48.2244,30.4073
 L -48.25,30 L -48.2244,29.5927 L -48.1479,29.1918 L -48.0218,28.8036 L -47.848,28.4343 L -47.6293,28.0897
 L -47.3691,27.7752 L -47.0716,27.4958 L -46.7414,27.2559 L -46.3838,27.0593 L -46.0043,26.9091 L -45.609,26.8076
 L -45.2041,26.7564 L -44.7959,26.7564 L -44.391,26.8076 L -43.9957,26.9091 L -43.6162,27.0593 L -43.2586,27.2559
 L -42.9284,27.4958 L -42.6308,27.7752 L -42.3707,28.0897 L -42.152,28.4343 L -41.9782,28.8036 L -41.8521,29.1918
 L -41.7756,29.5927 L -41.75,30 L -41.7756,30.4073 L -41.8521,30.8082 L -41.9782,31.1964 L -42.152,31.5657
 L -42.3707,31.9103 L -42.6308,32.2248 L -42.9284,32.5042 L -43.2586,32.7441 L -43.6162,32.9407 L -43.9957,33.0909
 L -44.391,33.1924 L -44.7959,33.2436 z
M -30.2041,48.2436 L -30.609,48.1924 L -31.0043,48.0909 L -31.3838,47.9407 L -31.7414,47.7441 L -32.0716,47.5042
 L -32.3691,47.2248 L -32.6293,46.9103 L -32.848,46.5657 L -33.0218,46.1964 L -33.1479,45.8082 L -33.2244,45.4073
 L -33.25,45 L -33.2244,44.5927 L -33.1479,44.1918 L -33.0218,43.8036 L -32.848,43.4343 L -32.6293,43.0897
 L -32.3691,42.7752 L -32.0716,42.4958 L -31.7414,42.2559 L -31.3838,42.0593 L -31.0043,41.9091 L -30.609,41.8076
 L -30.2041,41.7564 L -29.7959,41.7564 L -29.391,41.8076 L -28.9957,41.9091 L -28.6162,42.0593 L -28.2586,42.2559
 L -27.9284,42.4958 L -27.6308,42.7752 L -27.3707,43.0897 L -27.152,43.4343 L -26.9782,43.8036 L -26.8521,44.1918
 L -26.7756,44.5927 L -26.75,45 L -26.7756,45.4073 L -26.8521,45.8082 L -26.9782,46.1964 L -27.152,46.5657
 L -27.3707,46.9103 L -27.6308,47.2248 L -27.9284,47.5042 L -28.2586,47.7441 L -28.6162,47.9407 L -28.9957,48.0909
 L -29.391,48.1924 L -29.7959,48.2436 z
M -15.2041,48.2436 L -15.609,48.1924 L -16.0043,48.0909 L -16.3838,47.9407 L -16.7414,47.7441 L -17.0716,47.5042
 L -17.3691,47.2248 L -17.6293,46.9103 L -17.848,46.5657 L -18.0218,46.1964 L -18.1479,45.8082 L -18.2244,45.4073
 L -18.25,45 L -18.2244,44.5927 L -18.1479,44.1918 L -18.0218,43.8036 L -17.848,43.4343 L -17.6293,43.0897
 L -17.3691,42.7752 L -17.0716,42.4958 L -16.7414,42.2559 L -16.3838,42.0593 L -16.0043,41.9091 L -15.609,41.8076
 L -15.2041,41.7564 L -14.7959,41.7564 L -14.391,41.8076 L -13.9957,41.9091 L -13.6162,42.0593 L -13.2586,42.2559
 L -12.9284,42.4958 L -12.6308,42.7752 L -12.3707,43.0897 L -12.152,43.4343 L -11.9782,43.8036 L -11.8521,44.1918
 L -11.7756,44.5927 L -11.75,45 L -11.7756,45.4073 L -11.8521,45.8082 L -11.9782,46.1964 L -12.152,46.5657
 L -12.3707,46.9103 L -12.6308,47.2248 L -12.9284,47.5042 L -13.2586,47.7441 L -13.6162,47.9407 L -13.9957,48.0909
 L -14.391,48.1924 L -14.7959,48.2436 z
M -0.204056,48.2436 L -0.608978,48.1924 L -1.0043,48.0909 L -1.38377,47.9407 L -1.74142,47.7441 L -2.07162,47.5042
 L -2.36914,47.2248 L -2.6293,46.9103 L -2.84799,46.5657 L -3.02176,46.1964 L -3.14789,45.8082 L -3.22437,45.4073
 L -3.25,45 L -3.22437,44.5927 L -3.14789,44.1918 L -3.02176,43.8036 L -2.84799,43.4343 L -2.6293,43.0897
 L -2.36914,42.7752 L -2.07162,42.4958 L -1.74142,42.2559 L -1.38377,42.0593 L -1.0043,41.9091 L -0.608978,41.8076
 L -0.204056,41.7564 L 0.204056,41.7564 L 0.608978,41.8076 L 1.0043,41.9091 L 1.38377,42.0593 L 1.74142,42.2559
 L 2.07162,42.4958 L 2.36914,42.7752 L 2.6293,43.0897 L 2.84799,43.4343 L 3.02176,43.8036 L 3.14789,44.1918
 L 3.22437,44.5927 L 3.25,45 L 3.22437,45.4073 L 3.14789,45.8082 L 3.02176,46.1964 L 2.84799,46.5657
 L 2.6293,46.9103 L 2.36914,47.2248 L 2.07162,47.5042 L 1.74142,47.7441 L 1.38377,47.9407 L 1.0043,48.0909
 L 0.608978,48.1924 L 0.204056,48.2436 z
M 14.7959,48.2436 L 14.391,48.1924 L 13.9957,48.0909 L 13.6162,47.9407 L 13.2586,47.7441 L 12.9284,47.5042
 L 12.6308,47.2248 L 12.3707,46.9103 L 12.152,46.5657 L 11.9782,46.1964 L 11.8521,45.8082 L 11.7756,45.4073
 L 11.75,45 L 11.7756,44.5927 L 11.8521,44.1918 L 11.9782,43.8036 L 12.152,43.4343 L 12.3707,43.0897
 L 12.6308,42.7752 L 12.9284,42.4958 L 13.2586,42.2559 L 13.6162,42.0593 L 13.9957,41.9091 L 14.391,41.8076
 L 14.7959,41.7564 L 15.2041,41.7564 L 15.609,41.8076 L 16.0043,41.9091 L 16.3838,42.0593 L 16.7414,42.2559
 L 17.0716,42.4958 L 17.3691,42.7752 L 17.6293,43.0897 L 17.848,43.4343 L 18.0218,43.8036 L 18.1479,44.1918
 L 18.2244,44.5927 L 18.25,45 L 18.2244,45.4073 L 18.1479,45.8082 L 18.0218,46.1964 L 17.848,46.5657
 L 17.6293,46.9103 L 17.3691,47.2248 L 17.0716,47.5042 L 16.7414,47.7441 L 16.3838,47.9407 L 16.0043,48.0909
 L 15.609,48.1924 L 15.2041,48.2436 z
M 29.7959,48.2436 L 29.391,48.1924 L 28.9957,48.0909 L 28.6162,47.9407 L 28.2586,47.7441 L 27.9284,47.5042
 L 27.6308,47.2248 L 27.3707,46.9103 L 27.152,46.5657 L 26.9782,46.1964 L 26.8521,45.8082 L 26.7756,45.4073
 L 26.75,45 L 26.7756,44.5927 L 26.8521,44.1918 L 26.9782,43.8036 L 27.152,43.4343 L 27.3707,43.0897
 L 27.6308,42.7752 L 27.9284,42.4958 L 28.2586,42.2559 L 28.6162,42.0593 L 28.9957,41.9091 L 29.391,41.8076
 L 29.7959,41.7564 L 30.2041,41.7564 L 30.609,41.8076 L 31.0043,41.9091 L 31.3838,42.0593 L 31.7414,42.2559
 L 32.0716,42.4958 L 32.3691,42.7752 L 32.6293,43.0897 L 32.848,43.4343 L 33.0218,43.8036 L 33.1479,44.1918
 L 33.2244,44.5927 L 33.25,45 L 33.2244,45.4073 L 33.1479,45.8082 L 33.0218,46.1964 L 32.848,46.5657
 L 32.6293,46.9103 L 32.3691,47.2248 L 32.0716,47.5042 L 31.7414,47.7441 L 31.3838,47.9407 L 31.0043,48.0909
 L 30.609,48.1924 L 30.2041,48.2436 z
M -0.204056,63.2436 L -0.608978,63.1924 L -1.0043,63.0909 L -1.38377,62.9407 L -1.74142,62.7441 L -2.07162,62.5042
 L -2.36914,62.2248 L -2.6293,61.9103 L -2.84799,61.5657 L -3.02176,61.1964 L -3.14789,60.8082 L -3.22437,60.4073
 L -3.25,60 L -3.22437,59.5927 L -3.14789,59.1918 L -3.02176,58.8036 L -2.84799,58.4343 L -2.6293,58.0897
 L -2.36914,57.7752 L -2.07162,57.4958 L -1.74142,57.2559 L -1.38377,57.0593 L -1.0043,56.9091 L -0.608978,56.8076
 L -0.204056,56.7564 L 0.204056,56.7564 L 0.608978,56.8076 L 1.0043,56.9091 L 1.38377,57.0593 L 1.74142,57.2559
 L 2.07162,57.4958 L 2.36914,57.7752 L 2.6293,58.0897 L 2.84799,58.4343 L 3.02176,58.8036 L 3.14789,59.1918
 L 3.22437,59.5927 L 3.25,60 L 3.22437,60.4073 L 3.14789,60.8082 L 3.02176,61.1964 L 2.84799,61.5657
 L 2.6293,61.9103 L 2.36914,62.2248 L 2.07162,62.5042 L 1.74142,62.7441 L 1.38377,62.9407 L 1.0043,63.0909
 L 0.608978,63.1924 L 0.204056,63.2436 z
" stroke="black" fill="lightgray" stroke-width="0.5"/>
</svg>
