<?xml version="1.0" standalone="no"?>
<!DOCTYPE svg PUBLIC "-//W3C//DTD SVG 1.1//EN" "http://www.w3.org/Graphics/SVG/1.1/DTD/svg11.dtd">
<svg width="132mm" height="132mm" viewBox="-66 -66 132 132" xmlns="http://www.w3.org/2000/svg" version="1.1">
<title>OpenSCAD Model</title>
<path d="
M 12.3672,64.8309 L 20.3951,62.7697 L 28.1014,59.7186 L 35.3646,55.7256 L 42.07,50.8539 L 48.1119,45.1801
 L 53.3951,38.7938 L 57.8362,31.7957 L 61.3652,24.2962 L 63.9265,16.4135 L 65.4796,8.27199 L 66,-0
 L 65.4796,-8.27199 L 63.9265,-16.4135 L 61.3652,-24.2962 L 57.8362,-31.7957 L 53.3951,-38.7938 L 48.1119,-45.1801
 L 42.07,-50.8539 L 35.3646,-55.7256 L 28.1014,-59.7186 L 20.3951,-62.7697 L 12.3672,-64.8309 L 4.14417,-65.8698
 L -4.14417,-65.8698 L -12.3672,-64.8309 L -20.3951,-62.7697 L -28.1014,-59.7186 L -35.3646,-55.7256 L -42.07,-50.8539
 L -48.1119,-45.1801 L -53.3951,-38.7938 L -57.8362,-31.7957 L -61.3652,-24.2962 L -63.9265,-16.4135 L -65.4796,-8.27199
 L -66,-0 L -65.4796,8.27199 L -63.9265,16.4135 L -61.3652,24.2962 L -57.8362,31.7957 L -53.3951,38.7938
 L -48.1119,45.1801 L -42.07,50.8539 L -35.3646,55.7256 L -28.1014,59.7186 L -20.3951,62.7697 L -12.3672,64.8309
 L -4.14417,65.8698 L 4.14417,65.8698 z
" stroke="black" fill="lightgray" stroke-width="0.5"/>
</svg>
