  0
SECTION
  2
HEADER
  9
$ACADVER
  1
AC1021
  9
$ACADMAINTVER
 70
    25
  9
$DWGCODEPAGE
  3
ANSI_1252
  9
$INSBASE
 10
0.0
 20
0.0
 30
0.0
  9
$EXTMIN
 10
-21.02825
 20
-29.72828
 30
0.0
  9
$EXTMAX
 10
0.02824
 20
0.02827
 30
0.0
  9
$LIMMIN
 10
0.0
 20
0.0
  9
$LIMMAX
 10
12.0
 20
9.0
  9
$ORTHOMODE
 70
     0
  9
$REGENMODE
 70
     1
  9
$FILLMODE
 70
     1
  9
$QTEXTMODE
 70
     0
  9
$MIRRTEXT
 70
     1
  9
$LTSCALE
 40
1.0
  9
$ATTMODE
 70
     1
  9
$TEXTSIZE
 40
0.2
  9
$TRACEWID
 40
0.05
  9
$TEXTSTYLE
  7
Standard
  9
$CLAYER
  8
0
  9
$CELTYPE
  6
ByLayer
  9
$CECOLOR
 62
   256
  9
$CELTSCALE
 40
1.0
  9
$DISPSILH
 70
     0
  9
$DIMSCALE
 40
1.0
  9
$DIMASZ
 40
0.18
  9
$DIMEXO
 40
0.0625
  9
$DIMDLI
 40
0.38
  9
$DIMRND
 40
0.0
  9
$DIMDLE
 40
0.0
  9
$DIMEXE
 40
0.18
  9
$DIMTP
 40
0.0
  9
$DIMTM
 40
0.0
  9
$DIMTXT
 40
0.18
  9
$DIMCEN
 40
0.09
  9
$DIMTSZ
 40
0.0
  9
$DIMTOL
 70
     0
  9
$DIMLIM
 70
     0
  9
$DIMTIH
 70
     1
  9
$DIMTOH
 70
     1
  9
$DIMSE1
 70
     0
  9
$DIMSE2
 70
     0
  9
$DIMTAD
 70
     0
  9
$DIMZIN
 70
     0
  9
$DIMBLK
  1

  9
$DIMASO
 70
     1
  9
$DIMSHO
 70
     1
  9
$DIMPOST
  1

  9
$DIMAPOST
  1

  9
$DIMALT
 70
     0
  9
$DIMALTD
 70
     2
  9
$DIMALTF
 40
25.4
  9
$DIMLFAC
 40
1.0
  9
$DIMTOFL
 70
     0
  9
$DIMTVP
 40
0.0
  9
$DIMTIX
 70
     0
  9
$DIMSOXD
 70
     0
  9
$DIMSAH
 70
     0
  9
$DIMBLK1
  1

  9
$DIMBLK2
  1

  9
$DIMSTYLE
  2
Standard
  9
$DIMCLRD
 70
     0
  9
$DIMCLRE
 70
     0
  9
$DIMCLRT
 70
     0
  9
$DIMTFAC
 40
1.0
  9
$DIMGAP
 40
0.09
  9
$DIMJUST
 70
     0
  9
$DIMSD1
 70
     0
  9
$DIMSD2
 70
     0
  9
$DIMTOLJ
 70
     1
  9
$DIMTZIN
 70
     0
  9
$DIMALTZ
 70
     0
  9
$DIMALTTZ
 70
     0
  9
$DIMUPT
 70
     0
  9
$DIMDEC
 70
     4
  9
$DIMTDEC
 70
     4
  9
$DIMALTU
 70
     2
  9
$DIMALTTD
 70
     2
  9
$DIMTXSTY
  7
Standard
  9
$DIMAUNIT
 70
     0
  9
$DIMADEC
 70
     0
  9
$DIMALTRND
 40
0.0
  9
$DIMAZIN
 70
     0
  9
$DIMDSEP
 70
    46
  9
$DIMATFIT
 70
     3
  9
$DIMFRAC
 70
     0
  9
$DIMLDRBLK
  1

  9
$DIMLUNIT
 70
     2
  9
$DIMLWD
 70
    -2
  9
$DIMLWE
 70
    -2
  9
$DIMTMOVE
 70
     0
  9
$DIMFXL
 40
1.0
  9
$DIMFXLON
 70
     0
  9
$DIMJOGANG
 40
0.7853981633974483
  9
$DIMTFILL
 70
     0
  9
$DIMTFILLCLR
 70
     0
  9
$DIMARCSYM
 70
     0
  9
$DIMLTYPE
  6

  9
$DIMLTEX1
  6

  9
$DIMLTEX2
  6

  9
$LUNITS
 70
     2
  9
$LUPREC
 70
     4
  9
$SKETCHINC
 40
0.1
  9
$FILLETRAD
 40
0.5
  9
$AUNITS
 70
     0
  9
$AUPREC
 70
     0
  9
$MENU
  1
.
  9
$ELEVATION
 40
0.0
  9
$PELEVATION
 40
0.0
  9
$THICKNESS
 40
0.0
  9
$LIMCHECK
 70
     0
  9
$CHAMFERA
 40
0.5
  9
$CHAMFERB
 40
0.5
  9
$CHAMFERC
 40
1.0
  9
$CHAMFERD
 40
0.0
  9
$SKPOLY
 70
     0
  9
$TDCREATE
 40
2457093.717138032
  9
$TDUCREATE
 40
2457093.717138032
  9
$TDUPDATE
 40
2457093.717138044
  9
$TDUUPDATE
 40
2457093.717138044
  9
$TDINDWG
 40
0.0000000116
  9
$TDUSRTIMER
 40
0.0000000116
  9
$USRTIMER
 70
     1
  9
$ANGBASE
 50
0.0
  9
$ANGDIR
 70
     0
  9
$PDMODE
 70
     0
  9
$PDSIZE
 40
0.0
  9
$PLINEWID
 40
0.0
  9
$SPLFRAME
 70
     0
  9
$SPLINETYPE
 70
     6
  9
$SPLINESEGS
 70
     8
  9
$HANDSEED
  5
21F
  9
$SURFTAB1
 70
     6
  9
$SURFTAB2
 70
     6
  9
$SURFTYPE
 70
     6
  9
$SURFU
 70
     6
  9
$SURFV
 70
     6
  9
$UCSBASE
  2

  9
$UCSNAME
  2

  9
$UCSORG
 10
0.0
 20
0.0
 30
0.0
  9
$UCSXDIR
 10
1.0
 20
0.0
 30
0.0
  9
$UCSYDIR
 10
0.0
 20
1.0
 30
0.0
  9
$UCSORTHOREF
  2

  9
$UCSORTHOVIEW
 70
     0
  9
$UCSORGTOP
 10
0.0
 20
0.0
 30
0.0
  9
$UCSORGBOTTOM
 10
0.0
 20
0.0
 30
0.0
  9
$UCSORGLEFT
 10
0.0
 20
0.0
 30
0.0
  9
$UCSORGRIGHT
 10
0.0
 20
0.0
 30
0.0
  9
$UCSORGFRONT
 10
0.0
 20
0.0
 30
0.0
  9
$UCSORGBACK
 10
0.0
 20
0.0
 30
0.0
  9
$PUCSBASE
  2

  9
$PUCSNAME
  2

  9
$PUCSORG
 10
0.0
 20
0.0
 30
0.0
  9
$PUCSXDIR
 10
1.0
 20
0.0
 30
0.0
  9
$PUCSYDIR
 10
0.0
 20
1.0
 30
0.0
  9
$PUCSORTHOREF
  2

  9
$PUCSORTHOVIEW
 70
     0
  9
$PUCSORGTOP
 10
0.0
 20
0.0
 30
0.0
  9
$PUCSORGBOTTOM
 10
0.0
 20
0.0
 30
0.0
  9
$PUCSORGLEFT
 10
0.0
 20
0.0
 30
0.0
  9
$PUCSORGRIGHT
 10
0.0
 20
0.0
 30
0.0
  9
$PUCSORGFRONT
 10
0.0
 20
0.0
 30
0.0
  9
$PUCSORGBACK
 10
0.0
 20
0.0
 30
0.0
  9
$USERI1
 70
     0
  9
$USERI2
 70
     0
  9
$USERI3
 70
     0
  9
$USERI4
 70
     0
  9
$USERI5
 70
     0
  9
$USERR1
 40
0.0
  9
$USERR2
 40
0.0
  9
$USERR3
 40
0.0
  9
$USERR4
 40
0.0
  9
$USERR5
 40
0.0
  9
$WORLDVIEW
 70
     1
  9
$SHADEDGE
 70
     3
  9
$SHADEDIF
 70
    70
  9
$TILEMODE
 70
     1
  9
$MAXACTVP
 70
    64
  9
$PINSBASE
 10
0.0
 20
0.0
 30
0.0
  9
$PLIMCHECK
 70
     0
  9
$PEXTMIN
 10
1.000000000000000E+20
 20
1.000000000000000E+20
 30
1.000000000000000E+20
  9
$PEXTMAX
 10
-1.000000000000000E+20
 20
-1.000000000000000E+20
 30
-1.000000000000000E+20
  9
$PLIMMIN
 10
0.0
 20
0.0
  9
$PLIMMAX
 10
12.0
 20
9.0
  9
$UNITMODE
 70
     0
  9
$VISRETAIN
 70
     1
  9
$PLINEGEN
 70
     0
  9
$PSLTSCALE
 70
     1
  9
$TREEDEPTH
 70
  3020
  9
$CMLSTYLE
  2
Standard
  9
$CMLJUST
 70
     0
  9
$CMLSCALE
 40
1.0
  9
$PROXYGRAPHICS
 70
     1
  9
$MEASUREMENT
 70
     0
  9
$CELWEIGHT
370
    -1
  9
$ENDCAPS
280
     0
  9
$JOINSTYLE
280
     0
  9
$LWDISPLAY
290
     0
  9
$INSUNITS
 70
     5
  9
$HYPERLINKBASE
  1

  9
$STYLESHEET
  1

  9
$XEDIT
290
     1
  9
$CEPSNTYPE
380
     0
  9
$PSTYLEMODE
290
     1
  9
$FINGERPRINTGUID
  2
{F2BE36CB-1C63-4D2A-94F8-A4EA31D67C8B}
  9
$VERSIONGUID
  2
{FAEB1C32-E019-11D5-929B-00C0DF256EC4}
  9
$EXTNAMES
290
     1
  9
$PSVPSCALE
 40
0.0
  9
$OLESTARTUP
290
     0
  9
$SORTENTS
280
   127
  9
$INDEXCTL
280
     0
  9
$HIDETEXT
280
     1
  9
$XCLIPFRAME
290
     0
  9
$HALOGAP
280
     0
  9
$OBSCOLOR
 70
   257
  9
$OBSLTYPE
280
     0
  9
$INTERSECTIONDISPLAY
280
     0
  9
$INTERSECTIONCOLOR
 70
   257
  9
$DIMASSOC
280
     2
  9
$PROJECTNAME
  1

  9
$CAMERADISPLAY
290
     0
  9
$LENSLENGTH
 40
50.0
  9
$CAMERAHEIGHT
 40
0.0
  9
$STEPSPERSEC
 40
2.0
  9
$STEPSIZE
 40
6.0
  9
$3DDWFPREC
 40
2.0
  9
$PSOLWIDTH
 40
0.25
  9
$PSOLHEIGHT
 40
4.0
  9
$LOFTANG1
 40
1.570796326794897
  9
$LOFTANG2
 40
1.570796326794897
  9
$LOFTMAG1
 40
0.0
  9
$LOFTMAG2
 40
0.0
  9
$LOFTPARAM
 70
     7
  9
$LOFTNORMALS
280
     1
  9
$LATITUDE
 40
37.795
  9
$LONGITUDE
 40
-122.394
  9
$NORTHDIRECTION
 40
0.0
  9
$TIMEZONE
 70
 -8000
  9
$LIGHTGLYPHDISPLAY
280
     1
  9
$TILEMODELIGHTSYNCH
280
     1
  9
$SOLIDHIST
280
     1
  9
$SHOWHIST
280
     1
  9
$DWFFRAME
280
     2
  9
$DGNFRAME
280
     2
  9
$REALWORLDSCALE
290
     1
  9
$INTERFERECOLOR
 62
   256
  9
$CSHADOW
280
     0
  9
$SHADOWPLANELOCATION
 40
0.0
  0
ENDSEC
  0
SECTION
  2
CLASSES
  0
CLASS
  1
ACDBDICTIONARYWDFLT
  2
AcDbDictionaryWithDefault
  3
ObjectDBX Classes
 90
        0
 91
        3
280
     0
281
     0
  0
CLASS
  1
VISUALSTYLE
  2
AcDbVisualStyle
  3
ObjectDBX Classes
 90
     4095
 91
        3
280
     0
281
     0
  0
CLASS
  1
SCALE
  2
AcDbScale
  3
ObjectDBX Classes
 90
     1153
 91
        3
280
     0
281
     0
  0
ENDSEC
  0
SECTION
  2
TABLES
  0
TABLE
  2
VPORT
  5
8
330
0
100
AcDbSymbolTable
 70
     1
  0
VPORT
  5
29
330
8
100
AcDbSymbolTableRecord
100
AcDbViewportTableRecord
  2
*Active
 70
     0
 10
0.0
 20
0.0
 11
1.0
 21
1.0
 12
10.42990654205607
 22
4.5
 13
0.0
 23
0.0
 14
0.5
 24
0.5
 15
0.5
 25
0.5
 16
0.0
 26
0.0
 36
1.0
 17
0.0
 27
0.0
 37
0.0
 40
9.0
 41
1.972972972850329
 42
50.0
 43
0.0
 44
0.0
 50
0.0
 51
0.0
 71
     0
 72
   100
 73
     1
 74
     3
 75
     0
 76
     0
 77
     0
 78
     0
281
     0
 65
     1
110
0.0
120
0.0
130
0.0
111
1.0
121
0.0
131
0.0
112
0.0
122
1.0
132
0.0
 79
     0
146
0.0
 60
     3
 61
     5
292
     1
282
     1
141
0.0
142
0.0
 63
   256
  0
ENDTAB
  0
TABLE
  2
LTYPE
  5
5
330
0
100
AcDbSymbolTable
 70
     1
  0
LTYPE
  5
14
330
5
100
AcDbSymbolTableRecord
100
AcDbLinetypeTableRecord
  2
ByBlock
 70
     0
  3

 72
    65
 73
     0
 40
0.0
  0
LTYPE
  5
15
330
5
100
AcDbSymbolTableRecord
100
AcDbLinetypeTableRecord
  2
ByLayer
 70
     0
  3

 72
    65
 73
     0
 40
0.0
  0
LTYPE
  5
16
330
5
100
AcDbSymbolTableRecord
100
AcDbLinetypeTableRecord
  2
Continuous
 70
     0
  3
Solid line
 72
    65
 73
     0
 40
0.0
  0
ENDTAB
  0
TABLE
  2
LAYER
  5
2
330
0
100
AcDbSymbolTable
 70
     2
  0
LAYER
  5
10
330
2
100
AcDbSymbolTableRecord
100
AcDbLayerTableRecord
  2
0
 70
     0
 62
     7
  6
Continuous
370
    -3
390
F
347
0
  0
LAYER
  5
5E
330
2
100
AcDbSymbolTableRecord
100
AcDbLayerTableRecord
  2
Layer 1
 70
     0
 62
     7
  6
Continuous
370
    -3
390
F
347
0
  0
ENDTAB
  0
TABLE
  2
STYLE
  5
3
330
0
100
AcDbSymbolTable
 70
     1
  0
STYLE
  5
11
330
3
100
AcDbSymbolTableRecord
100
AcDbTextStyleTableRecord
  2
Standard
 70
     0
 40
0.0
 41
1.0
 50
0.0
 71
     0
 42
0.2
  3
txt
  4

  0
ENDTAB
  0
TABLE
  2
VIEW
  5
6
330
0
100
AcDbSymbolTable
 70
     0
  0
ENDTAB
  0
TABLE
  2
UCS
  5
7
330
0
100
AcDbSymbolTable
 70
     0
  0
ENDTAB
  0
TABLE
  2
APPID
  5
9
330
0
100
AcDbSymbolTable
 70
     2
  0
APPID
  5
12
330
9
100
AcDbSymbolTableRecord
100
AcDbRegAppTableRecord
  2
ACAD
 70
     0
  0
APPID
  5
5D
330
9
100
AcDbSymbolTableRecord
100
AcDbRegAppTableRecord
  2
ODA
 70
     0
  0
ENDTAB
  0
TABLE
  2
DIMSTYLE
  5
A
330
0
100
AcDbSymbolTable
 70
     1
100
AcDbDimStyleTable
  0
DIMSTYLE
105
27
330
A
100
AcDbSymbolTableRecord
100
AcDbDimStyleTableRecord
  2
Standard
 70
     0
340
11
  0
ENDTAB
  0
TABLE
  2
BLOCK_RECORD
  5
1
330
0
100
AcDbSymbolTable
 70
     1
  0
BLOCK_RECORD
  5
1F
330
1
100
AcDbSymbolTableRecord
100
AcDbBlockTableRecord
  2
*Model_Space
340
22
 70
     0
280
     1
281
     0
  0
BLOCK_RECORD
  5
1B
330
1
100
AcDbSymbolTableRecord
100
AcDbBlockTableRecord
  2
*Paper_Space
340
1E
 70
     0
280
     1
281
     0
  0
BLOCK_RECORD
  5
23
330
1
100
AcDbSymbolTableRecord
100
AcDbBlockTableRecord
  2
*Paper_Space0
340
26
 70
     0
280
     1
281
     0
  0
ENDTAB
  0
ENDSEC
  0
SECTION
  2
BLOCKS
  0
BLOCK
  5
20
330
1F
100
AcDbEntity
  8
0
100
AcDbBlockBegin
  2
*Model_Space
 70
     0
 10
0.0
 20
0.0
 30
0.0
  3
*Model_Space
  1

  0
ENDBLK
  5
21
330
1F
100
AcDbEntity
  8
0
100
AcDbBlockEnd
  0
BLOCK
  5
1C
330
1B
100
AcDbEntity
 67
     1
  8
0
100
AcDbBlockBegin
  2
*Paper_Space
 70
     0
 10
0.0
 20
0.0
 30
0.0
  3
*Paper_Space
  1

  0
ENDBLK
  5
1D
330
1B
100
AcDbEntity
 67
     1
  8
0
100
AcDbBlockEnd
  0
BLOCK
  5
24
330
23
100
AcDbEntity
  8
0
100
AcDbBlockBegin
  2
*Paper_Space0
 70
     0
 10
0.0
 20
0.0
 30
0.0
  3
*Paper_Space0
  1

  0
ENDBLK
  5
25
330
23
100
AcDbEntity
  8
0
100
AcDbBlockEnd
  0
ENDSEC
  0
SECTION
  2
ENTITIES
  0
SPLINE
  5
5F
330
1F
100
AcDbEntity
  8
Layer 1
 62
    22
370
    53
100
AcDbSpline
210
0.0
220
0.0
230
1.0
 70
    11
 71
     3
 72
    36
 73
    32
 74
     0
 42
0.0000000001
 43
0.0000000001
 40
0.0
 40
0.0
 40
0.0
 40
0.0
 40
0.125
 40
0.125
 40
0.125
 40
0.125
 40
0.25
 40
0.25
 40
0.25
 40
0.25
 40
0.375
 40
0.375
 40
0.375
 40
0.375
 40
0.5
 40
0.5
 40
0.5
 40
0.5
 40
0.625
 40
0.625
 40
0.625
 40
0.625
 40
0.75
 40
0.75
 40
0.75
 40
0.75
 40
0.875
 40
0.875
 40
0.875
 40
0.875
 40
1.0
 40
1.0
 40
1.0
 40
1.0
 10
-21.00003
 20
-29.19997
 30
0.0
 10
-21.00003
 20
-29.19997
 30
0.0
 10
-21.00003
 20
-0.49991
 30
0.0
 10
-21.00003
 20
-0.49991
 30
0.0
 10
-21.00003
 20
-0.49991
 30
0.0
 10
-21.00003
 20
-0.22294
 30
0.0
 10
-20.77694
 20
0.00005
 30
0.0
 10
-20.49994
 20
0.00005
 30
0.0
 10
-20.49994
 20
0.00005
 30
0.0
 10
-20.49994
 20
0.00005
 30
0.0
 10
-0.50008
 20
0.00005
 30
0.0
 10
-0.50008
 20
0.00005
 30
0.0
 10
-0.50008
 20
0.00005
 30
0.0
 10
-0.22294
 20
0.00005
 30
0.0
 10
0.00002
 20
-0.22294
 30
0.0
 10
0.00002
 20
-0.49991
 30
0.0
 10
0.00002
 20
-0.49991
 30
0.0
 10
0.00002
 20
-0.49991
 30
0.0
 10
0.00002
 20
-29.19997
 30
0.0
 10
0.00002
 20
-29.19997
 30
0.0
 10
0.00002
 20
-29.19997
 30
0.0
 10
0.00002
 20
-29.47697
 30
0.0
 10
-0.22294
 20
-29.70006
 30
0.0
 10
-0.50008
 20
-29.70006
 30
0.0
 10
-0.50008
 20
-29.70006
 30
0.0
 10
-0.50008
 20
-29.70006
 30
0.0
 10
-20.49994
 20
-29.70006
 30
0.0
 10
-20.49994
 20
-29.70006
 30
0.0
 10
-20.49994
 20
-29.70006
 30
0.0
 10
-20.77694
 20
-29.70006
 30
0.0
 10
-21.00003
 20
-29.47697
 30
0.0
 10
-21.00003
 20
-29.19997
 30
0.0
  0
SPLINE
  5
60
330
1F
100
AcDbEntity
  8
Layer 1
 62
    30
370
    53
100
AcDbSpline
210
0.0
220
0.0
230
1.0
 70
    11
 71
     3
 72
    68
 73
    64
 74
     0
 42
0.0000000001
 43
0.0000000001
 40
0.0
 40
0.0
 40
0.0
 40
0.0
 40
0.0625
 40
0.0625
 40
0.0625
 40
0.0625
 40
0.125
 40
0.125
 40
0.125
 40
0.125
 40
0.1875
 40
0.1875
 40
0.1875
 40
0.1875
 40
0.25
 40
0.25
 40
0.25
 40
0.25
 40
0.3125
 40
0.3125
 40
0.3125
 40
0.3125
 40
0.375
 40
0.375
 40
0.375
 40
0.375
 40
0.4375
 40
0.4375
 40
0.4375
 40
0.4375
 40
0.5
 40
0.5
 40
0.5
 40
0.5
 40
0.5625
 40
0.5625
 40
0.5625
 40
0.5625
 40
0.625
 40
0.625
 40
0.625
 40
0.625
 40
0.6875
 40
0.6875
 40
0.6875
 40
0.6875
 40
0.75
 40
0.75
 40
0.75
 40
0.75
 40
0.8125
 40
0.8125
 40
0.8125
 40
0.8125
 40
0.875
 40
0.875
 40
0.875
 40
0.875
 40
0.9375
 40
0.9375
 40
0.9375
 40
0.9375
 40
1.0
 40
1.0
 40
1.0
 40
1.0
 10
-6.3047
 20
-29.36994
 30
0.0
 10
-6.28692
 20
-29.37003
 30
0.0
 10
-6.27037
 20
-29.36778
 30
0.0
 10
-6.25494
 20
-29.36298
 30
0.0
 10
-6.25494
 20
-29.36298
 30
0.0
 10
-6.23951
 20
-29.35818
 30
0.0
 10
-6.22587
 20
-29.35018
 30
0.0
 10
-6.2142
 20
-29.33899
 30
0.0
 10
-6.2142
 20
-29.33899
 30
0.0
 10
-6.20244
 20
-29.3278
 30
0.0
 10
-6.19332
 20
-29.31265
 30
0.0
 10
-6.18664
 20
-29.29346
 30
0.0
 10
-6.18664
 20
-29.29346
 30
0.0
 10
-6.18006
 20
-29.27436
 30
0.0
 10
-6.17667
 20
-29.25056
 30
0.0
 10
-6.17657
 20
-29.22206
 30
0.0
 10
-6.17657
 20
-29.22206
 30
0.0
 10
-6.17667
 20
-29.19365
 30
0.0
 10
-6.18006
 20
-29.16994
 30
0.0
 10
-6.18664
 20
-29.15094
 30
0.0
 10
-6.18664
 20
-29.15094
 30
0.0
 10
-6.19332
 20
-29.13193
 30
0.0
 10
-6.20244
 20
-29.11679
 30
0.0
 10
-6.2142
 20
-29.10559
 30
0.0
 10
-6.2142
 20
-29.10559
 30
0.0
 10
-6.22587
 20
-29.09449
 30
0.0
 10
-6.23951
 20
-29.0865
 30
0.0
 10
-6.25494
 20
-29.0817
 30
0.0
 10
-6.25494
 20
-29.0817
 30
0.0
 10
-6.27037
 20
-29.0769
 30
0.0
 10
-6.28692
 20
-29.07464
 30
0.0
 10
-6.3047
 20
-29.07474
 30
0.0
 10
-6.3047
 20
-29.07474
 30
0.0
 10
-6.32229
 20
-29.07464
 30
0.0
 10
-6.33885
 20
-29.0769
 30
0.0
 10
-6.35428
 20
-29.0817
 30
0.0
 10
-6.35428
 20
-29.0817
 30
0.0
 10
-6.36971
 20
-29.0865
 30
0.0
 10
-6.38325
 20
-29.09449
 30
0.0
 10
-6.39501
 20
-29.10559
 30
0.0
 10
-6.39501
 20
-29.10559
 30
0.0
 10
-6.40677
 20
-29.11679
 30
0.0
 10
-6.41599
 20
-29.13193
 30
0.0
 10
-6.42267
 20
-29.15094
 30
0.0
 10
-6.42267
 20
-29.15094
 30
0.0
 10
-6.42935
 20
-29.16994
 30
0.0
 10
-6.43274
 20
-29.19365
 30
0.0
 10
-6.43283
 20
-29.22206
 30
0.0
 10
-6.43283
 20
-29.22206
 30
0.0
 10
-6.43274
 20
-29.25056
 30
0.0
 10
-6.42935
 20
-29.27436
 30
0.0
 10
-6.42267
 20
-29.29346
 30
0.0
 10
-6.42267
 20
-29.29346
 30
0.0
 10
-6.41599
 20
-29.31265
 30
0.0
 10
-6.40677
 20
-29.3278
 30
0.0
 10
-6.39501
 20
-29.33899
 30
0.0
 10
-6.39501
 20
-29.33899
 30
0.0
 10
-6.38325
 20
-29.35018
 30
0.0
 10
-6.36971
 20
-29.35818
 30
0.0
 10
-6.35428
 20
-29.36298
 30
0.0
 10
-6.35428
 20
-29.36298
 30
0.0
 10
-6.33885
 20
-29.36778
 30
0.0
 10
-6.32229
 20
-29.37003
 30
0.0
 10
-6.3047
 20
-29.36994
 30
0.0
  0
SPLINE
  5
61
330
1F
100
AcDbEntity
  8
Layer 1
 62
    30
370
    53
100
AcDbSpline
210
0.0
220
0.0
230
1.0
 70
    11
 71
     3
 72
    68
 73
    64
 74
     0
 42
0.0000000001
 43
0.0000000001
 40
0.0
 40
0.0
 40
0.0
 40
0.0
 40
0.0625
 40
0.0625
 40
0.0625
 40
0.0625
 40
0.125
 40
0.125
 40
0.125
 40
0.125
 40
0.1875
 40
0.1875
 40
0.1875
 40
0.1875
 40
0.25
 40
0.25
 40
0.25
 40
0.25
 40
0.3125
 40
0.3125
 40
0.3125
 40
0.3125
 40
0.375
 40
0.375
 40
0.375
 40
0.375
 40
0.4375
 40
0.4375
 40
0.4375
 40
0.4375
 40
0.5
 40
0.5
 40
0.5
 40
0.5
 40
0.5625
 40
0.5625
 40
0.5625
 40
0.5625
 40
0.625
 40
0.625
 40
0.625
 40
0.625
 40
0.6875
 40
0.6875
 40
0.6875
 40
0.6875
 40
0.75
 40
0.75
 40
0.75
 40
0.75
 40
0.8125
 40
0.8125
 40
0.8125
 40
0.8125
 40
0.875
 40
0.875
 40
0.875
 40
0.875
 40
0.9375
 40
0.9375
 40
0.9375
 40
0.9375
 40
1.0
 40
1.0
 40
1.0
 40
1.0
 10
-6.3047
 20
-29.36994
 30
0.0
 10
-6.28692
 20
-29.37003
 30
0.0
 10
-6.27037
 20
-29.36778
 30
0.0
 10
-6.25494
 20
-29.36298
 30
0.0
 10
-6.25494
 20
-29.36298
 30
0.0
 10
-6.23951
 20
-29.35818
 30
0.0
 10
-6.22587
 20
-29.35018
 30
0.0
 10
-6.2142
 20
-29.33899
 30
0.0
 10
-6.2142
 20
-29.33899
 30
0.0
 10
-6.20244
 20
-29.3278
 30
0.0
 10
-6.19332
 20
-29.31265
 30
0.0
 10
-6.18664
 20
-29.29346
 30
0.0
 10
-6.18664
 20
-29.29346
 30
0.0
 10
-6.18006
 20
-29.27436
 30
0.0
 10
-6.17667
 20
-29.25056
 30
0.0
 10
-6.17657
 20
-29.22206
 30
0.0
 10
-6.17657
 20
-29.22206
 30
0.0
 10
-6.17667
 20
-29.19365
 30
0.0
 10
-6.18006
 20
-29.16994
 30
0.0
 10
-6.18664
 20
-29.15094
 30
0.0
 10
-6.18664
 20
-29.15094
 30
0.0
 10
-6.19332
 20
-29.13193
 30
0.0
 10
-6.20244
 20
-29.11679
 30
0.0
 10
-6.2142
 20
-29.10559
 30
0.0
 10
-6.2142
 20
-29.10559
 30
0.0
 10
-6.22587
 20
-29.09449
 30
0.0
 10
-6.23951
 20
-29.0865
 30
0.0
 10
-6.25494
 20
-29.0817
 30
0.0
 10
-6.25494
 20
-29.0817
 30
0.0
 10
-6.27037
 20
-29.0769
 30
0.0
 10
-6.28692
 20
-29.07464
 30
0.0
 10
-6.3047
 20
-29.07474
 30
0.0
 10
-6.3047
 20
-29.07474
 30
0.0
 10
-6.32229
 20
-29.07464
 30
0.0
 10
-6.33885
 20
-29.0769
 30
0.0
 10
-6.35428
 20
-29.0817
 30
0.0
 10
-6.35428
 20
-29.0817
 30
0.0
 10
-6.36971
 20
-29.0865
 30
0.0
 10
-6.38325
 20
-29.09449
 30
0.0
 10
-6.39501
 20
-29.10559
 30
0.0
 10
-6.39501
 20
-29.10559
 30
0.0
 10
-6.40677
 20
-29.11679
 30
0.0
 10
-6.41599
 20
-29.13193
 30
0.0
 10
-6.42267
 20
-29.15094
 30
0.0
 10
-6.42267
 20
-29.15094
 30
0.0
 10
-6.42935
 20
-29.16994
 30
0.0
 10
-6.43274
 20
-29.19365
 30
0.0
 10
-6.43283
 20
-29.22206
 30
0.0
 10
-6.43283
 20
-29.22206
 30
0.0
 10
-6.43274
 20
-29.25056
 30
0.0
 10
-6.42935
 20
-29.27436
 30
0.0
 10
-6.42267
 20
-29.29346
 30
0.0
 10
-6.42267
 20
-29.29346
 30
0.0
 10
-6.41599
 20
-29.31265
 30
0.0
 10
-6.40677
 20
-29.3278
 30
0.0
 10
-6.39501
 20
-29.33899
 30
0.0
 10
-6.39501
 20
-29.33899
 30
0.0
 10
-6.38325
 20
-29.35018
 30
0.0
 10
-6.36971
 20
-29.35818
 30
0.0
 10
-6.35428
 20
-29.36298
 30
0.0
 10
-6.35428
 20
-29.36298
 30
0.0
 10
-6.33885
 20
-29.36778
 30
0.0
 10
-6.32229
 20
-29.37003
 30
0.0
 10
-6.3047
 20
-29.36994
 30
0.0
  0
SPLINE
  5
62
330
1F
100
AcDbEntity
  8
Layer 1
 62
    30
370
    53
100
AcDbSpline
210
0.0
220
0.0
230
1.0
 70
    11
 71
     3
 72
    68
 73
    64
 74
     0
 42
0.0000000001
 43
0.0000000001
 40
0.0
 40
0.0
 40
0.0
 40
0.0
 40
0.0625
 40
0.0625
 40
0.0625
 40
0.0625
 40
0.125
 40
0.125
 40
0.125
 40
0.125
 40
0.1875
 40
0.1875
 40
0.1875
 40
0.1875
 40
0.25
 40
0.25
 40
0.25
 40
0.25
 40
0.3125
 40
0.3125
 40
0.3125
 40
0.3125
 40
0.375
 40
0.375
 40
0.375
 40
0.375
 40
0.4375
 40
0.4375
 40
0.4375
 40
0.4375
 40
0.5
 40
0.5
 40
0.5
 40
0.5
 40
0.5625
 40
0.5625
 40
0.5625
 40
0.5625
 40
0.625
 40
0.625
 40
0.625
 40
0.625
 40
0.6875
 40
0.6875
 40
0.6875
 40
0.6875
 40
0.75
 40
0.75
 40
0.75
 40
0.75
 40
0.8125
 40
0.8125
 40
0.8125
 40
0.8125
 40
0.875
 40
0.875
 40
0.875
 40
0.875
 40
0.9375
 40
0.9375
 40
0.9375
 40
0.9375
 40
1.0
 40
1.0
 40
1.0
 40
1.0
 10
-5.91411
 20
-29.36994
 30
0.0
 10
-5.89633
 20
-29.37003
 30
0.0
 10
-5.87978
 20
-29.36778
 30
0.0
 10
-5.86435
 20
-29.36298
 30
0.0
 10
-5.86435
 20
-29.36298
 30
0.0
 10
-5.84892
 20
-29.35818
 30
0.0
 10
-5.83528
 20
-29.35018
 30
0.0
 10
-5.82361
 20
-29.33899
 30
0.0
 10
-5.82361
 20
-29.33899
 30
0.0
 10
-5.81185
 20
-29.3278
 30
0.0
 10
-5.80273
 20
-29.31265
 30
0.0
 10
-5.79605
 20
-29.29346
 30
0.0
 10
-5.79605
 20
-29.29346
 30
0.0
 10
-5.78947
 20
-29.27436
 30
0.0
 10
-5.78608
 20
-29.25056
 30
0.0
 10
-5.78598
 20
-29.22206
 30
0.0
 10
-5.78598
 20
-29.22206
 30
0.0
 10
-5.78608
 20
-29.19365
 30
0.0
 10
-5.78947
 20
-29.16994
 30
0.0
 10
-5.79605
 20
-29.15094
 30
0.0
 10
-5.79605
 20
-29.15094
 30
0.0
 10
-5.80273
 20
-29.13193
 30
0.0
 10
-5.81185
 20
-29.11679
 30
0.0
 10
-5.82361
 20
-29.10559
 30
0.0
 10
-5.82361
 20
-29.10559
 30
0.0
 10
-5.83528
 20
-29.09449
 30
0.0
 10
-5.84892
 20
-29.0865
 30
0.0
 10
-5.86435
 20
-29.0817
 30
0.0
 10
-5.86435
 20
-29.0817
 30
0.0
 10
-5.87978
 20
-29.0769
 30
0.0
 10
-5.89633
 20
-29.07464
 30
0.0
 10
-5.91411
 20
-29.07474
 30
0.0
 10
-5.91411
 20
-29.07474
 30
0.0
 10
-5.9317
 20
-29.07464
 30
0.0
 10
-5.94826
 20
-29.0769
 30
0.0
 10
-5.96369
 20
-29.0817
 30
0.0
 10
-5.96369
 20
-29.0817
 30
0.0
 10
-5.97912
 20
-29.0865
 30
0.0
 10
-5.99266
 20
-29.09449
 30
0.0
 10
-6.00442
 20
-29.10559
 30
0.0
 10
-6.00442
 20
-29.10559
 30
0.0
 10
-6.01618
 20
-29.11679
 30
0.0
 10
-6.0254
 20
-29.13193
 30
0.0
 10
-6.03208
 20
-29.15094
 30
0.0
 10
-6.03208
 20
-29.15094
 30
0.0
 10
-6.03876
 20
-29.16994
 30
0.0
 10
-6.04215
 20
-29.19365
 30
0.0
 10
-6.04224
 20
-29.22206
 30
0.0
 10
-6.04224
 20
-29.22206
 30
0.0
 10
-6.04215
 20
-29.25056
 30
0.0
 10
-6.03876
 20
-29.27436
 30
0.0
 10
-6.03208
 20
-29.29346
 30
0.0
 10
-6.03208
 20
-29.29346
 30
0.0
 10
-6.0254
 20
-29.31265
 30
0.0
 10
-6.01618
 20
-29.3278
 30
0.0
 10
-6.00442
 20
-29.33899
 30
0.0
 10
-6.00442
 20
-29.33899
 30
0.0
 10
-5.99266
 20
-29.35018
 30
0.0
 10
-5.97912
 20
-29.35818
 30
0.0
 10
-5.96369
 20
-29.36298
 30
0.0
 10
-5.96369
 20
-29.36298
 30
0.0
 10
-5.94826
 20
-29.36778
 30
0.0
 10
-5.9317
 20
-29.37003
 30
0.0
 10
-5.91411
 20
-29.36994
 30
0.0
  0
SPLINE
  5
63
330
1F
100
AcDbEntity
  8
Layer 1
 62
    30
370
    53
100
AcDbSpline
210
0.0
220
0.0
230
1.0
 70
    11
 71
     3
 72
    68
 73
    64
 74
     0
 42
0.0000000001
 43
0.0000000001
 40
0.0
 40
0.0
 40
0.0
 40
0.0
 40
0.0625
 40
0.0625
 40
0.0625
 40
0.0625
 40
0.125
 40
0.125
 40
0.125
 40
0.125
 40
0.1875
 40
0.1875
 40
0.1875
 40
0.1875
 40
0.25
 40
0.25
 40
0.25
 40
0.25
 40
0.3125
 40
0.3125
 40
0.3125
 40
0.3125
 40
0.375
 40
0.375
 40
0.375
 40
0.375
 40
0.4375
 40
0.4375
 40
0.4375
 40
0.4375
 40
0.5
 40
0.5
 40
0.5
 40
0.5
 40
0.5625
 40
0.5625
 40
0.5625
 40
0.5625
 40
0.625
 40
0.625
 40
0.625
 40
0.625
 40
0.6875
 40
0.6875
 40
0.6875
 40
0.6875
 40
0.75
 40
0.75
 40
0.75
 40
0.75
 40
0.8125
 40
0.8125
 40
0.8125
 40
0.8125
 40
0.875
 40
0.875
 40
0.875
 40
0.875
 40
0.9375
 40
0.9375
 40
0.9375
 40
0.9375
 40
1.0
 40
1.0
 40
1.0
 40
1.0
 10
-5.91411
 20
-29.36994
 30
0.0
 10
-5.89633
 20
-29.37003
 30
0.0
 10
-5.87978
 20
-29.36778
 30
0.0
 10
-5.86435
 20
-29.36298
 30
0.0
 10
-5.86435
 20
-29.36298
 30
0.0
 10
-5.84892
 20
-29.35818
 30
0.0
 10
-5.83528
 20
-29.35018
 30
0.0
 10
-5.82361
 20
-29.33899
 30
0.0
 10
-5.82361
 20
-29.33899
 30
0.0
 10
-5.81185
 20
-29.3278
 30
0.0
 10
-5.80273
 20
-29.31265
 30
0.0
 10
-5.79605
 20
-29.29346
 30
0.0
 10
-5.79605
 20
-29.29346
 30
0.0
 10
-5.78947
 20
-29.27436
 30
0.0
 10
-5.78608
 20
-29.25056
 30
0.0
 10
-5.78598
 20
-29.22206
 30
0.0
 10
-5.78598
 20
-29.22206
 30
0.0
 10
-5.78608
 20
-29.19365
 30
0.0
 10
-5.78947
 20
-29.16994
 30
0.0
 10
-5.79605
 20
-29.15094
 30
0.0
 10
-5.79605
 20
-29.15094
 30
0.0
 10
-5.80273
 20
-29.13193
 30
0.0
 10
-5.81185
 20
-29.11679
 30
0.0
 10
-5.82361
 20
-29.10559
 30
0.0
 10
-5.82361
 20
-29.10559
 30
0.0
 10
-5.83528
 20
-29.09449
 30
0.0
 10
-5.84892
 20
-29.0865
 30
0.0
 10
-5.86435
 20
-29.0817
 30
0.0
 10
-5.86435
 20
-29.0817
 30
0.0
 10
-5.87978
 20
-29.0769
 30
0.0
 10
-5.89633
 20
-29.07464
 30
0.0
 10
-5.91411
 20
-29.07474
 30
0.0
 10
-5.91411
 20
-29.07474
 30
0.0
 10
-5.9317
 20
-29.07464
 30
0.0
 10
-5.94826
 20
-29.0769
 30
0.0
 10
-5.96369
 20
-29.0817
 30
0.0
 10
-5.96369
 20
-29.0817
 30
0.0
 10
-5.97912
 20
-29.0865
 30
0.0
 10
-5.99266
 20
-29.09449
 30
0.0
 10
-6.00442
 20
-29.10559
 30
0.0
 10
-6.00442
 20
-29.10559
 30
0.0
 10
-6.01618
 20
-29.11679
 30
0.0
 10
-6.0254
 20
-29.13193
 30
0.0
 10
-6.03208
 20
-29.15094
 30
0.0
 10
-6.03208
 20
-29.15094
 30
0.0
 10
-6.03876
 20
-29.16994
 30
0.0
 10
-6.04215
 20
-29.19365
 30
0.0
 10
-6.04224
 20
-29.22206
 30
0.0
 10
-6.04224
 20
-29.22206
 30
0.0
 10
-6.04215
 20
-29.25056
 30
0.0
 10
-6.03876
 20
-29.27436
 30
0.0
 10
-6.03208
 20
-29.29346
 30
0.0
 10
-6.03208
 20
-29.29346
 30
0.0
 10
-6.0254
 20
-29.31265
 30
0.0
 10
-6.01618
 20
-29.3278
 30
0.0
 10
-6.00442
 20
-29.33899
 30
0.0
 10
-6.00442
 20
-29.33899
 30
0.0
 10
-5.99266
 20
-29.35018
 30
0.0
 10
-5.97912
 20
-29.35818
 30
0.0
 10
-5.96369
 20
-29.36298
 30
0.0
 10
-5.96369
 20
-29.36298
 30
0.0
 10
-5.94826
 20
-29.36778
 30
0.0
 10
-5.9317
 20
-29.37003
 30
0.0
 10
-5.91411
 20
-29.36994
 30
0.0
  0
SPLINE
  5
64
330
1F
100
AcDbEntity
  8
Layer 1
 62
    30
370
    53
100
AcDbSpline
210
0.0
220
0.0
230
1.0
 70
    11
 71
     3
 72
   148
 73
   144
 74
     0
 42
0.0000000001
 43
0.0000000001
 40
0.0
 40
0.0
 40
0.0
 40
0.0
 40
0.0277777777777778
 40
0.0277777777777778
 40
0.0277777777777778
 40
0.0277777777777778
 40
0.0555555555555556
 40
0.0555555555555556
 40
0.0555555555555556
 40
0.0555555555555556
 40
0.0833333333333333
 40
0.0833333333333333
 40
0.0833333333333333
 40
0.0833333333333333
 40
0.1111111111111111
 40
0.1111111111111111
 40
0.1111111111111111
 40
0.1111111111111111
 40
0.1388888888888889
 40
0.1388888888888889
 40
0.1388888888888889
 40
0.1388888888888889
 40
0.1666666666666667
 40
0.1666666666666667
 40
0.1666666666666667
 40
0.1666666666666667
 40
0.1944444444444445
 40
0.1944444444444445
 40
0.1944444444444445
 40
0.1944444444444445
 40
0.2222222222222223
 40
0.2222222222222223
 40
0.2222222222222223
 40
0.2222222222222223
 40
0.2500000000000001
 40
0.2500000000000001
 40
0.2500000000000001
 40
0.2500000000000001
 40
0.2777777777777778
 40
0.2777777777777778
 40
0.2777777777777778
 40
0.2777777777777778
 40
0.3055555555555556
 40
0.3055555555555556
 40
0.3055555555555556
 40
0.3055555555555556
 40
0.3333333333333334
 40
0.3333333333333334
 40
0.3333333333333334
 40
0.3333333333333334
 40
0.3611111111111112
 40
0.3611111111111112
 40
0.3611111111111112
 40
0.3611111111111112
 40
0.388888888888889
 40
0.388888888888889
 40
0.388888888888889
 40
0.388888888888889
 40
0.4166666666666668
 40
0.4166666666666668
 40
0.4166666666666668
 40
0.4166666666666668
 40
0.4444444444444446
 40
0.4444444444444446
 40
0.4444444444444446
 40
0.4444444444444446
 40
0.4722222222222224
 40
0.4722222222222224
 40
0.4722222222222224
 40
0.4722222222222224
 40
0.5000000000000001
 40
0.5000000000000001
 40
0.5000000000000001
 40
0.5000000000000001
 40
0.5277777777777779
 40
0.5277777777777779
 40
0.5277777777777779
 40
0.5277777777777779
 40
0.5555555555555557
 40
0.5555555555555557
 40
0.5555555555555557
 40
0.5555555555555557
 40
0.5833333333333335
 40
0.5833333333333335
 40
0.5833333333333335
 40
0.5833333333333335
 40
0.6111111111111113
 40
0.6111111111111113
 40
0.6111111111111113
 40
0.6111111111111113
 40
0.6388888888888891
 40
0.6388888888888891
 40
0.6388888888888891
 40
0.6388888888888891
 40
0.6666666666666669
 40
0.6666666666666669
 40
0.6666666666666669
 40
0.6666666666666669
 40
0.6944444444444446
 40
0.6944444444444446
 40
0.6944444444444446
 40
0.6944444444444446
 40
0.7222222222222224
 40
0.7222222222222224
 40
0.7222222222222224
 40
0.7222222222222224
 40
0.7500000000000002
 40
0.7500000000000002
 40
0.7500000000000002
 40
0.7500000000000002
 40
0.777777777777778
 40
0.777777777777778
 40
0.777777777777778
 40
0.777777777777778
 40
0.8055555555555558
 40
0.8055555555555558
 40
0.8055555555555558
 40
0.8055555555555558
 40
0.8333333333333336
 40
0.8333333333333336
 40
0.8333333333333336
 40
0.8333333333333336
 40
0.8611111111111114
 40
0.8611111111111114
 40
0.8611111111111114
 40
0.8611111111111114
 40
0.8888888888888892
 40
0.8888888888888892
 40
0.8888888888888892
 40
0.8888888888888892
 40
0.916666666666667
 40
0.916666666666667
 40
0.916666666666667
 40
0.916666666666667
 40
0.9444444444444448
 40
0.9444444444444448
 40
0.9444444444444448
 40
0.9444444444444448
 40
0.9722222222222225
 40
0.9722222222222225
 40
0.9722222222222225
 40
0.9722222222222225
 40
1.0
 40
1.0
 40
1.0
 40
1.0
 10
-5.20405
 20
-29.36994
 30
0.0
 10
-5.20405
 20
-29.36985
 30
0.0
 10
-5.20405
 20
-29.36712
 30
0.0
 10
-5.20405
 20
-29.36176
 30
0.0
 10
-5.20405
 20
-29.36176
 30
0.0
 10
-5.20405
 20
-29.35649
 30
0.0
 10
-5.20405
 20
-29.34924
 30
0.0
 10
-5.20405
 20
-29.34012
 30
0.0
 10
-5.20405
 20
-29.34012
 30
0.0
 10
-5.20405
 20
-29.3309
 30
0.0
 10
-5.20405
 20
-29.32055
 30
0.0
 10
-5.20405
 20
-29.30889
 30
0.0
 10
-5.20405
 20
-29.30889
 30
0.0
 10
-5.20405
 20
-29.29732
 30
0.0
 10
-5.20405
 20
-29.28518
 30
0.0
 10
-5.20405
 20
-29.27239
 30
0.0
 10
-5.20405
 20
-29.27239
 30
0.0
 10
-5.20405
 20
-29.25969
 30
0.0
 10
-5.20405
 20
-29.24717
 30
0.0
 10
-5.20405
 20
-29.23476
 30
0.0
 10
-5.20405
 20
-29.23476
 30
0.0
 10
-5.20405
 20
-29.22234
 30
0.0
 10
-5.20405
 20
-29.21067
 30
0.0
 10
-5.20405
 20
-29.19995
 30
0.0
 10
-5.20405
 20
-29.19995
 30
0.0
 10
-5.20405
 20
-29.18913
 30
0.0
 10
-5.20405
 20
-29.17991
 30
0.0
 10
-5.20405
 20
-29.1721
 30
0.0
 10
-5.20405
 20
-29.1721
 30
0.0
 10
-5.20405
 20
-29.16439
 30
0.0
 10
-5.20405
 20
-29.15884
 30
0.0
 10
-5.20405
 20
-29.15545
 30
0.0
 10
-5.20405
 20
-29.15545
 30
0.0
 10
-5.20405
 20
-29.15018
 30
0.0
 10
-5.20508
 20
-29.14426
 30
0.0
 10
-5.20725
 20
-29.13777
 30
0.0
 10
-5.20725
 20
-29.13777
 30
0.0
 10
-5.20932
 20
-29.13118
 30
0.0
 10
-5.2127
 20
-29.1246
 30
0.0
 10
-5.21741
 20
-29.11801
 30
0.0
 10
-5.21741
 20
-29.11801
 30
0.0
 10
-5.22202
 20
-29.11133
 30
0.0
 10
-5.22813
 20
-29.10522
 30
0.0
 10
-5.23566
 20
-29.09957
 30
0.0
 10
-5.23566
 20
-29.09957
 30
0.0
 10
-5.24318
 20
-29.09393
 30
0.0
 10
-5.25231
 20
-29.08941
 30
0.0
 10
-5.26303
 20
-29.08593
 30
0.0
 10
-5.26303
 20
-29.08593
 30
0.0
 10
-5.27376
 20
-29.08245
 30
0.0
 10
-5.28627
 20
-29.08057
 30
0.0
 10
-5.30057
 20
-29.08038
 30
0.0
 10
-5.30057
 20
-29.08038
 30
0.0
 10
-5.31487
 20
-29.08038
 30
0.0
 10
-5.32747
 20
-29.08236
 30
0.0
 10
-5.33829
 20
-29.08631
 30
0.0
 10
-5.33829
 20
-29.08631
 30
0.0
 10
-5.34902
 20
-29.09035
 30
0.0
 10
-5.35824
 20
-29.0959
 30
0.0
 10
-5.36595
 20
-29.10296
 30
0.0
 10
-5.36595
 20
-29.10296
 30
0.0
 10
-5.37357
 20
-29.11002
 30
0.0
 10
-5.37968
 20
-29.11811
 30
0.0
 10
-5.38448
 20
-29.12732
 30
0.0
 10
-5.38448
 20
-29.12732
 30
0.0
 10
-5.38928
 20
-29.13645
 30
0.0
 10
-5.39276
 20
-29.14614
 30
0.0
 10
-5.39492
 20
-29.15649
 30
0.0
 10
-5.39492
 20
-29.15649
 30
0.0
 10
-5.39718
 20
-29.16674
 30
0.0
 10
-5.39822
 20
-29.17718
 30
0.0
 10
-5.39822
 20
-29.18763
 30
0.0
 10
-5.39822
 20
-29.18763
 30
0.0
 10
-5.39822
 20
-29.17718
 30
0.0
 10
-5.39718
 20
-29.16674
 30
0.0
 10
-5.39492
 20
-29.15649
 30
0.0
 10
-5.39492
 20
-29.15649
 30
0.0
 10
-5.39276
 20
-29.14614
 30
0.0
 10
-5.38928
 20
-29.13645
 30
0.0
 10
-5.38448
 20
-29.12732
 30
0.0
 10
-5.38448
 20
-29.12732
 30
0.0
 10
-5.37968
 20
-29.11811
 30
0.0
 10
-5.37357
 20
-29.11002
 30
0.0
 10
-5.36595
 20
-29.10296
 30
0.0
 10
-5.36595
 20
-29.10296
 30
0.0
 10
-5.35824
 20
-29.0959
 30
0.0
 10
-5.34902
 20
-29.09035
 30
0.0
 10
-5.33829
 20
-29.08631
 30
0.0
 10
-5.33829
 20
-29.08631
 30
0.0
 10
-5.32747
 20
-29.08236
 30
0.0
 10
-5.31487
 20
-29.08038
 30
0.0
 10
-5.30057
 20
-29.08038
 30
0.0
 10
-5.30057
 20
-29.08038
 30
0.0
 10
-5.28627
 20
-29.08057
 30
0.0
 10
-5.27376
 20
-29.08245
 30
0.0
 10
-5.26303
 20
-29.08593
 30
0.0
 10
-5.26303
 20
-29.08593
 30
0.0
 10
-5.25231
 20
-29.08941
 30
0.0
 10
-5.24318
 20
-29.09393
 30
0.0
 10
-5.23566
 20
-29.09957
 30
0.0
 10
-5.23566
 20
-29.09957
 30
0.0
 10
-5.22813
 20
-29.10522
 30
0.0
 10
-5.22202
 20
-29.11133
 30
0.0
 10
-5.21741
 20
-29.11801
 30
0.0
 10
-5.21741
 20
-29.11801
 30
0.0
 10
-5.2127
 20
-29.1246
 30
0.0
 10
-5.20932
 20
-29.13118
 30
0.0
 10
-5.20725
 20
-29.13777
 30
0.0
 10
-5.20725
 20
-29.13777
 30
0.0
 10
-5.20508
 20
-29.14426
 30
0.0
 10
-5.20405
 20
-29.15018
 30
0.0
 10
-5.20405
 20
-29.15545
 30
0.0
 10
-5.20405
 20
-29.15545
 30
0.0
 10
-5.20405
 20
-29.15884
 30
0.0
 10
-5.20405
 20
-29.16439
 30
0.0
 10
-5.20405
 20
-29.1721
 30
0.0
 10
-5.20405
 20
-29.1721
 30
0.0
 10
-5.20405
 20
-29.17991
 30
0.0
 10
-5.20405
 20
-29.18913
 30
0.0
 10
-5.20405
 20
-29.19995
 30
0.0
 10
-5.20405
 20
-29.19995
 30
0.0
 10
-5.20405
 20
-29.21067
 30
0.0
 10
-5.20405
 20
-29.22234
 30
0.0
 10
-5.20405
 20
-29.23476
 30
0.0
 10
-5.20405
 20
-29.23476
 30
0.0
 10
-5.20405
 20
-29.24717
 30
0.0
 10
-5.20405
 20
-29.25969
 30
0.0
 10
-5.20405
 20
-29.27239
 30
0.0
 10
-5.20405
 20
-29.27239
 30
0.0
 10
-5.20405
 20
-29.28518
 30
0.0
 10
-5.20405
 20
-29.29732
 30
0.0
 10
-5.20405
 20
-29.30889
 30
0.0
 10
-5.20405
 20
-29.30889
 30
0.0
 10
-5.20405
 20
-29.32055
 30
0.0
 10
-5.20405
 20
-29.3309
 30
0.0
 10
-5.20405
 20
-29.34012
 30
0.0
 10
-5.20405
 20
-29.34012
 30
0.0
 10
-5.20405
 20
-29.34924
 30
0.0
 10
-5.20405
 20
-29.35649
 30
0.0
 10
-5.20405
 20
-29.36176
 30
0.0
 10
-5.20405
 20
-29.36176
 30
0.0
 10
-5.20405
 20
-29.36712
 30
0.0
 10
-5.20405
 20
-29.36985
 30
0.0
 10
-5.20405
 20
-29.36994
 30
0.0
  0
SPLINE
  5
65
330
1F
100
AcDbEntity
  8
Layer 1
 62
    30
370
    53
100
AcDbSpline
210
0.0
220
0.0
230
1.0
 70
    11
 71
     3
 72
   148
 73
   144
 74
     0
 42
0.0000000001
 43
0.0000000001
 40
0.0
 40
0.0
 40
0.0
 40
0.0
 40
0.0277777777777778
 40
0.0277777777777778
 40
0.0277777777777778
 40
0.0277777777777778
 40
0.0555555555555556
 40
0.0555555555555556
 40
0.0555555555555556
 40
0.0555555555555556
 40
0.0833333333333333
 40
0.0833333333333333
 40
0.0833333333333333
 40
0.0833333333333333
 40
0.1111111111111111
 40
0.1111111111111111
 40
0.1111111111111111
 40
0.1111111111111111
 40
0.1388888888888889
 40
0.1388888888888889
 40
0.1388888888888889
 40
0.1388888888888889
 40
0.1666666666666667
 40
0.1666666666666667
 40
0.1666666666666667
 40
0.1666666666666667
 40
0.1944444444444445
 40
0.1944444444444445
 40
0.1944444444444445
 40
0.1944444444444445
 40
0.2222222222222223
 40
0.2222222222222223
 40
0.2222222222222223
 40
0.2222222222222223
 40
0.2500000000000001
 40
0.2500000000000001
 40
0.2500000000000001
 40
0.2500000000000001
 40
0.2777777777777778
 40
0.2777777777777778
 40
0.2777777777777778
 40
0.2777777777777778
 40
0.3055555555555556
 40
0.3055555555555556
 40
0.3055555555555556
 40
0.3055555555555556
 40
0.3333333333333334
 40
0.3333333333333334
 40
0.3333333333333334
 40
0.3333333333333334
 40
0.3611111111111112
 40
0.3611111111111112
 40
0.3611111111111112
 40
0.3611111111111112
 40
0.388888888888889
 40
0.388888888888889
 40
0.388888888888889
 40
0.388888888888889
 40
0.4166666666666668
 40
0.4166666666666668
 40
0.4166666666666668
 40
0.4166666666666668
 40
0.4444444444444446
 40
0.4444444444444446
 40
0.4444444444444446
 40
0.4444444444444446
 40
0.4722222222222224
 40
0.4722222222222224
 40
0.4722222222222224
 40
0.4722222222222224
 40
0.5000000000000001
 40
0.5000000000000001
 40
0.5000000000000001
 40
0.5000000000000001
 40
0.5277777777777779
 40
0.5277777777777779
 40
0.5277777777777779
 40
0.5277777777777779
 40
0.5555555555555557
 40
0.5555555555555557
 40
0.5555555555555557
 40
0.5555555555555557
 40
0.5833333333333335
 40
0.5833333333333335
 40
0.5833333333333335
 40
0.5833333333333335
 40
0.6111111111111113
 40
0.6111111111111113
 40
0.6111111111111113
 40
0.6111111111111113
 40
0.6388888888888891
 40
0.6388888888888891
 40
0.6388888888888891
 40
0.6388888888888891
 40
0.6666666666666669
 40
0.6666666666666669
 40
0.6666666666666669
 40
0.6666666666666669
 40
0.6944444444444446
 40
0.6944444444444446
 40
0.6944444444444446
 40
0.6944444444444446
 40
0.7222222222222224
 40
0.7222222222222224
 40
0.7222222222222224
 40
0.7222222222222224
 40
0.7500000000000002
 40
0.7500000000000002
 40
0.7500000000000002
 40
0.7500000000000002
 40
0.777777777777778
 40
0.777777777777778
 40
0.777777777777778
 40
0.777777777777778
 40
0.8055555555555558
 40
0.8055555555555558
 40
0.8055555555555558
 40
0.8055555555555558
 40
0.8333333333333336
 40
0.8333333333333336
 40
0.8333333333333336
 40
0.8333333333333336
 40
0.8611111111111114
 40
0.8611111111111114
 40
0.8611111111111114
 40
0.8611111111111114
 40
0.8888888888888892
 40
0.8888888888888892
 40
0.8888888888888892
 40
0.8888888888888892
 40
0.916666666666667
 40
0.916666666666667
 40
0.916666666666667
 40
0.916666666666667
 40
0.9444444444444448
 40
0.9444444444444448
 40
0.9444444444444448
 40
0.9444444444444448
 40
0.9722222222222225
 40
0.9722222222222225
 40
0.9722222222222225
 40
0.9722222222222225
 40
1.0
 40
1.0
 40
1.0
 40
1.0
 10
-5.39822
 20
-29.36994
 30
0.0
 10
-5.39822
 20
-29.36985
 30
0.0
 10
-5.39822
 20
-29.36712
 30
0.0
 10
-5.39822
 20
-29.36176
 30
0.0
 10
-5.39822
 20
-29.36176
 30
0.0
 10
-5.39822
 20
-29.35649
 30
0.0
 10
-5.39822
 20
-29.34924
 30
0.0
 10
-5.39822
 20
-29.34012
 30
0.0
 10
-5.39822
 20
-29.34012
 30
0.0
 10
-5.39822
 20
-29.3309
 30
0.0
 10
-5.39822
 20
-29.32055
 30
0.0
 10
-5.39822
 20
-29.30889
 30
0.0
 10
-5.39822
 20
-29.30889
 30
0.0
 10
-5.39822
 20
-29.29732
 30
0.0
 10
-5.39822
 20
-29.28518
 30
0.0
 10
-5.39822
 20
-29.27239
 30
0.0
 10
-5.39822
 20
-29.27239
 30
0.0
 10
-5.39822
 20
-29.25969
 30
0.0
 10
-5.39822
 20
-29.24717
 30
0.0
 10
-5.39822
 20
-29.23476
 30
0.0
 10
-5.39822
 20
-29.23476
 30
0.0
 10
-5.39822
 20
-29.22234
 30
0.0
 10
-5.39822
 20
-29.21067
 30
0.0
 10
-5.39822
 20
-29.19995
 30
0.0
 10
-5.39822
 20
-29.19995
 30
0.0
 10
-5.39822
 20
-29.18913
 30
0.0
 10
-5.39822
 20
-29.17991
 30
0.0
 10
-5.39822
 20
-29.1721
 30
0.0
 10
-5.39822
 20
-29.1721
 30
0.0
 10
-5.39822
 20
-29.16439
 30
0.0
 10
-5.39822
 20
-29.15884
 30
0.0
 10
-5.39822
 20
-29.15545
 30
0.0
 10
-5.39822
 20
-29.15545
 30
0.0
 10
-5.39812
 20
-29.15018
 30
0.0
 10
-5.39897
 20
-29.14426
 30
0.0
 10
-5.40057
 20
-29.13777
 30
0.0
 10
-5.40057
 20
-29.13777
 30
0.0
 10
-5.40217
 20
-29.13118
 30
0.0
 10
-5.4049
 20
-29.1246
 30
0.0
 10
-5.40875
 20
-29.11801
 30
0.0
 10
-5.40875
 20
-29.11801
 30
0.0
 10
-5.41261
 20
-29.11133
 30
0.0
 10
-5.41797
 20
-29.10522
 30
0.0
 10
-5.42465
 20
-29.09957
 30
0.0
 10
-5.42465
 20
-29.09957
 30
0.0
 10
-5.43142
 20
-29.09393
 30
0.0
 10
-5.43989
 20
-29.08941
 30
0.0
 10
-5.45005
 20
-29.08593
 30
0.0
 10
-5.45005
 20
-29.08593
 30
0.0
 10
-5.46031
 20
-29.08245
 30
0.0
 10
-5.47253
 20
-29.08057
 30
0.0
 10
-5.48683
 20
-29.08038
 30
0.0
 10
-5.48683
 20
-29.08038
 30
0.0
 10
-5.50113
 20
-29.08038
 30
0.0
 10
-5.51393
 20
-29.08236
 30
0.0
 10
-5.52512
 20
-29.08631
 30
0.0
 10
-5.52512
 20
-29.08631
 30
0.0
 10
-5.53641
 20
-29.09035
 30
0.0
 10
-5.5461
 20
-29.0959
 30
0.0
 10
-5.55438
 20
-29.10296
 30
0.0
 10
-5.55438
 20
-29.10296
 30
0.0
 10
-5.56256
 20
-29.11002
 30
0.0
 10
-5.56943
 20
-29.11811
 30
0.0
 10
-5.57479
 20
-29.12732
 30
0.0
 10
-5.57479
 20
-29.12732
 30
0.0
 10
-5.58015
 20
-29.13645
 30
0.0
 10
-5.58411
 20
-29.14614
 30
0.0
 10
-5.58674
 20
-29.15649
 30
0.0
 10
-5.58674
 20
-29.15649
 30
0.0
 10
-5.58937
 20
-29.16674
 30
0.0
 10
-5.59069
 20
-29.17718
 30
0.0
 10
-5.59069
 20
-29.18763
 30
0.0
 10
-5.59069
 20
-29.18763
 30
0.0
 10
-5.59069
 20
-29.17718
 30
0.0
 10
-5.58937
 20
-29.16674
 30
0.0
 10
-5.58674
 20
-29.15649
 30
0.0
 10
-5.58674
 20
-29.15649
 30
0.0
 10
-5.58411
 20
-29.14614
 30
0.0
 10
-5.58015
 20
-29.13645
 30
0.0
 10
-5.57479
 20
-29.12732
 30
0.0
 10
-5.57479
 20
-29.12732
 30
0.0
 10
-5.56943
 20
-29.11811
 30
0.0
 10
-5.56256
 20
-29.11002
 30
0.0
 10
-5.55438
 20
-29.10296
 30
0.0
 10
-5.55438
 20
-29.10296
 30
0.0
 10
-5.5461
 20
-29.0959
 30
0.0
 10
-5.53641
 20
-29.09035
 30
0.0
 10
-5.52512
 20
-29.08631
 30
0.0
 10
-5.52512
 20
-29.08631
 30
0.0
 10
-5.51393
 20
-29.08236
 30
0.0
 10
-5.50113
 20
-29.08038
 30
0.0
 10
-5.48683
 20
-29.08038
 30
0.0
 10
-5.48683
 20
-29.08038
 30
0.0
 10
-5.47253
 20
-29.08057
 30
0.0
 10
-5.46031
 20
-29.08245
 30
0.0
 10
-5.45005
 20
-29.08593
 30
0.0
 10
-5.45005
 20
-29.08593
 30
0.0
 10
-5.43989
 20
-29.08941
 30
0.0
 10
-5.43142
 20
-29.09393
 30
0.0
 10
-5.42465
 20
-29.09957
 30
0.0
 10
-5.42465
 20
-29.09957
 30
0.0
 10
-5.41797
 20
-29.10522
 30
0.0
 10
-5.41261
 20
-29.11133
 30
0.0
 10
-5.40875
 20
-29.11801
 30
0.0
 10
-5.40875
 20
-29.11801
 30
0.0
 10
-5.4049
 20
-29.1246
 30
0.0
 10
-5.40217
 20
-29.13118
 30
0.0
 10
-5.40057
 20
-29.13777
 30
0.0
 10
-5.40057
 20
-29.13777
 30
0.0
 10
-5.39897
 20
-29.14426
 30
0.0
 10
-5.39812
 20
-29.15018
 30
0.0
 10
-5.39822
 20
-29.15545
 30
0.0
 10
-5.39822
 20
-29.15545
 30
0.0
 10
-5.39822
 20
-29.15884
 30
0.0
 10
-5.39822
 20
-29.16439
 30
0.0
 10
-5.39822
 20
-29.1721
 30
0.0
 10
-5.39822
 20
-29.1721
 30
0.0
 10
-5.39822
 20
-29.17991
 30
0.0
 10
-5.39822
 20
-29.18913
 30
0.0
 10
-5.39822
 20
-29.19995
 30
0.0
 10
-5.39822
 20
-29.19995
 30
0.0
 10
-5.39822
 20
-29.21067
 30
0.0
 10
-5.39822
 20
-29.22234
 30
0.0
 10
-5.39822
 20
-29.23476
 30
0.0
 10
-5.39822
 20
-29.23476
 30
0.0
 10
-5.39822
 20
-29.24717
 30
0.0
 10
-5.39822
 20
-29.25969
 30
0.0
 10
-5.39822
 20
-29.27239
 30
0.0
 10
-5.39822
 20
-29.27239
 30
0.0
 10
-5.39822
 20
-29.28518
 30
0.0
 10
-5.39822
 20
-29.29732
 30
0.0
 10
-5.39822
 20
-29.30889
 30
0.0
 10
-5.39822
 20
-29.30889
 30
0.0
 10
-5.39822
 20
-29.32055
 30
0.0
 10
-5.39822
 20
-29.3309
 30
0.0
 10
-5.39822
 20
-29.34012
 30
0.0
 10
-5.39822
 20
-29.34012
 30
0.0
 10
-5.39822
 20
-29.34924
 30
0.0
 10
-5.39822
 20
-29.35649
 30
0.0
 10
-5.39822
 20
-29.36176
 30
0.0
 10
-5.39822
 20
-29.36176
 30
0.0
 10
-5.39822
 20
-29.36712
 30
0.0
 10
-5.39822
 20
-29.36985
 30
0.0
 10
-5.39822
 20
-29.36994
 30
0.0
  0
SPLINE
  5
66
330
1F
100
AcDbEntity
  8
Layer 1
 62
    30
370
    53
100
AcDbSpline
210
0.0
220
0.0
230
1.0
 70
    27
 71
     3
 72
    12
 73
     8
 74
     0
 42
0.0000000001
 43
0.0000000001
 40
0.0
 40
0.0
 40
0.0
 40
0.0
 40
0.5
 40
0.5
 40
0.5
 40
0.5
 40
1.0
 40
1.0
 40
1.0
 40
1.0
 10
-5.59069
 20
-29.36994
 30
0.0
 10
-5.59069
 20
-29.36994
 30
0.0
 10
-5.59069
 20
-29.08038
 30
0.0
 10
-5.59069
 20
-29.08038
 30
0.0
 10
-5.59069
 20
-29.08038
 30
0.0
 10
-5.59069
 20
-29.08038
 30
0.0
 10
-5.59069
 20
-29.36994
 30
0.0
 10
-5.59069
 20
-29.36994
 30
0.0
  0
SPLINE
  5
67
330
1F
100
AcDbEntity
  8
Layer 1
 62
    30
370
    53
100
AcDbSpline
210
0.0
220
0.0
230
1.0
 70
    27
 71
     3
 72
    12
 73
     8
 74
     0
 42
0.0000000001
 43
0.0000000001
 40
0.0
 40
0.0
 40
0.0
 40
0.0
 40
0.5
 40
0.5
 40
0.5
 40
0.5
 40
1.0
 40
1.0
 40
1.0
 40
1.0
 10
-4.97093
 20
-29.36994
 30
0.0
 10
-4.97093
 20
-29.36994
 30
0.0
 10
-4.97093
 20
-29.3389
 30
0.0
 10
-4.97093
 20
-29.3389
 30
0.0
 10
-4.97093
 20
-29.3389
 30
0.0
 10
-4.97093
 20
-29.3389
 30
0.0
 10
-4.97093
 20
-29.36994
 30
0.0
 10
-4.97093
 20
-29.36994
 30
0.0
  0
SPLINE
  5
68
330
1F
100
AcDbEntity
  8
Layer 1
 62
    30
370
    53
100
AcDbSpline
210
0.0
220
0.0
230
1.0
 70
    27
 71
     3
 72
    12
 73
     8
 74
     0
 42
0.0000000001
 43
0.0000000001
 40
0.0
 40
0.0
 40
0.0
 40
0.0
 40
0.5
 40
0.5
 40
0.5
 40
0.5
 40
1.0
 40
1.0
 40
1.0
 40
1.0
 10
-4.72201
 20
-29.36994
 30
0.0
 10
-4.72201
 20
-29.36994
 30
0.0
 10
-4.72201
 20
-28.96298
 30
0.0
 10
-4.72201
 20
-28.96298
 30
0.0
 10
-4.72201
 20
-28.96298
 30
0.0
 10
-4.72201
 20
-28.96298
 30
0.0
 10
-4.72201
 20
-29.36994
 30
0.0
 10
-4.72201
 20
-29.36994
 30
0.0
  0
SPLINE
  5
69
330
1F
100
AcDbEntity
  8
Layer 1
 62
    30
370
    53
100
AcDbSpline
210
0.0
220
0.0
230
1.0
 70
    11
 71
     3
 72
   108
 73
   104
 74
     0
 42
0.0000000001
 43
0.0000000001
 40
0.0
 40
0.0
 40
0.0
 40
0.0
 40
0.0384615384615385
 40
0.0384615384615385
 40
0.0384615384615385
 40
0.0384615384615385
 40
0.0769230769230769
 40
0.0769230769230769
 40
0.0769230769230769
 40
0.0769230769230769
 40
0.1153846153846154
 40
0.1153846153846154
 40
0.1153846153846154
 40
0.1153846153846154
 40
0.1538461538461539
 40
0.1538461538461539
 40
0.1538461538461539
 40
0.1538461538461539
 40
0.1923076923076923
 40
0.1923076923076923
 40
0.1923076923076923
 40
0.1923076923076923
 40
0.2307692307692308
 40
0.2307692307692308
 40
0.2307692307692308
 40
0.2307692307692308
 40
0.2692307692307693
 40
0.2692307692307693
 40
0.2692307692307693
 40
0.2692307692307693
 40
0.3076923076923077
 40
0.3076923076923077
 40
0.3076923076923077
 40
0.3076923076923077
 40
0.3461538461538461
 40
0.3461538461538461
 40
0.3461538461538461
 40
0.3461538461538461
 40
0.3846153846153846
 40
0.3846153846153846
 40
0.3846153846153846
 40
0.3846153846153846
 40
0.423076923076923
 40
0.423076923076923
 40
0.423076923076923
 40
0.423076923076923
 40
0.4615384615384615
 40
0.4615384615384615
 40
0.4615384615384615
 40
0.4615384615384615
 40
0.4999999999999999
 40
0.4999999999999999
 40
0.4999999999999999
 40
0.4999999999999999
 40
0.5384615384615383
 40
0.5384615384615383
 40
0.5384615384615383
 40
0.5384615384615383
 40
0.5769230769230768
 40
0.5769230769230768
 40
0.5769230769230768
 40
0.5769230769230768
 40
0.6153846153846152
 40
0.6153846153846152
 40
0.6153846153846152
 40
0.6153846153846152
 40
0.6538461538461536
 40
0.6538461538461536
 40
0.6538461538461536
 40
0.6538461538461536
 40
0.6923076923076921
 40
0.6923076923076921
 40
0.6923076923076921
 40
0.6923076923076921
 40
0.7307692307692305
 40
0.7307692307692305
 40
0.7307692307692305
 40
0.7307692307692305
 40
0.7692307692307689
 40
0.7692307692307689
 40
0.7692307692307689
 40
0.7692307692307689
 40
0.8076923076923074
 40
0.8076923076923074
 40
0.8076923076923074
 40
0.8076923076923074
 40
0.8461538461538458
 40
0.8461538461538458
 40
0.8461538461538458
 40
0.8461538461538458
 40
0.8846153846153842
 40
0.8846153846153842
 40
0.8846153846153842
 40
0.8846153846153842
 40
0.9230769230769227
 40
0.9230769230769227
 40
0.9230769230769227
 40
0.9230769230769227
 40
0.9615384615384611
 40
0.9615384615384611
 40
0.9615384615384611
 40
0.9615384615384611
 40
1.0
 40
1.0
 40
1.0
 40
1.0
 10
-4.41721
 20
-29.36712
 30
0.0
 10
-4.42417
 20
-29.36768
 30
0.0
 10
-4.43113
 20
-29.36787
 30
0.0
 10
-4.43791
 20
-29.36768
 30
0.0
 10
-4.43791
 20
-29.36768
 30
0.0
 10
-4.44468
 20
-29.36749
 30
0.0
 10
-4.4508
 20
-29.36646
 30
0.0
 10
-4.45635
 20
-29.36439
 30
0.0
 10
-4.45635
 20
-29.36439
 30
0.0
 10
-4.4619
 20
-29.36241
 30
0.0
 10
-4.46632
 20
-29.35884
 30
0.0
 10
-4.4697
 20
-29.35376
 30
0.0
 10
-4.4697
 20
-29.35376
 30
0.0
 10
-4.473
 20
-29.34868
 30
0.0
 10
-4.47469
 20
-29.34144
 30
0.0
 10
-4.47478
 20
-29.33212
 30
0.0
 10
-4.47478
 20
-29.33212
 30
0.0
 10
-4.47478
 20
-29.3277
 30
0.0
 10
-4.47478
 20
-29.32018
 30
0.0
 10
-4.47478
 20
-29.30964
 30
0.0
 10
-4.47478
 20
-29.30964
 30
0.0
 10
-4.47478
 20
-29.29901
 30
0.0
 10
-4.47478
 20
-29.28621
 30
0.0
 10
-4.47478
 20
-29.27107
 30
0.0
 10
-4.47478
 20
-29.27107
 30
0.0
 10
-4.47478
 20
-29.25592
 30
0.0
 10
-4.47478
 20
-29.23937
 30
0.0
 10
-4.47478
 20
-29.2214
 30
0.0
 10
-4.47478
 20
-29.2214
 30
0.0
 10
-4.47478
 20
-29.20343
 30
0.0
 10
-4.47478
 20
-29.1849
 30
0.0
 10
-4.47478
 20
-29.16571
 30
0.0
 10
-4.47478
 20
-29.16571
 30
0.0
 10
-4.47478
 20
-29.14652
 30
0.0
 10
-4.47478
 20
-29.12761
 30
0.0
 10
-4.47478
 20
-29.10889
 30
0.0
 10
-4.47478
 20
-29.10889
 30
0.0
 10
-4.47478
 20
-29.09017
 30
0.0
 10
-4.47478
 20
-29.07257
 30
0.0
 10
-4.47478
 20
-29.05602
 30
0.0
 10
-4.47478
 20
-29.05602
 30
0.0
 10
-4.47478
 20
-29.03946
 30
0.0
 10
-4.47478
 20
-29.02478
 30
0.0
 10
-4.47478
 20
-29.01209
 30
0.0
 10
-4.47478
 20
-29.01209
 30
0.0
 10
-4.47478
 20
-28.99929
 30
0.0
 10
-4.47478
 20
-28.98932
 30
0.0
 10
-4.47478
 20
-28.98198
 30
0.0
 10
-4.47478
 20
-28.98198
 30
0.0
 10
-4.47478
 20
-28.97474
 30
0.0
 10
-4.47478
 20
-28.97097
 30
0.0
 10
-4.47478
 20
-28.97088
 30
0.0
 10
-4.47478
 20
-28.97088
 30
0.0
 10
-4.47478
 20
-28.97097
 30
0.0
 10
-4.47478
 20
-28.97474
 30
0.0
 10
-4.47478
 20
-28.98198
 30
0.0
 10
-4.47478
 20
-28.98198
 30
0.0
 10
-4.47478
 20
-28.98932
 30
0.0
 10
-4.47478
 20
-28.99929
 30
0.0
 10
-4.47478
 20
-29.01209
 30
0.0
 10
-4.47478
 20
-29.01209
 30
0.0
 10
-4.47478
 20
-29.02478
 30
0.0
 10
-4.47478
 20
-29.03946
 30
0.0
 10
-4.47478
 20
-29.05602
 30
0.0
 10
-4.47478
 20
-29.05602
 30
0.0
 10
-4.47478
 20
-29.07257
 30
0.0
 10
-4.47478
 20
-29.09017
 30
0.0
 10
-4.47478
 20
-29.10889
 30
0.0
 10
-4.47478
 20
-29.10889
 30
0.0
 10
-4.47478
 20
-29.12761
 30
0.0
 10
-4.47478
 20
-29.14652
 30
0.0
 10
-4.47478
 20
-29.16571
 30
0.0
 10
-4.47478
 20
-29.16571
 30
0.0
 10
-4.47478
 20
-29.1849
 30
0.0
 10
-4.47478
 20
-29.20343
 30
0.0
 10
-4.47478
 20
-29.2214
 30
0.0
 10
-4.47478
 20
-29.2214
 30
0.0
 10
-4.47478
 20
-29.23937
 30
0.0
 10
-4.47478
 20
-29.25592
 30
0.0
 10
-4.47478
 20
-29.27107
 30
0.0
 10
-4.47478
 20
-29.27107
 30
0.0
 10
-4.47478
 20
-29.28621
 30
0.0
 10
-4.47478
 20
-29.29901
 30
0.0
 10
-4.47478
 20
-29.30964
 30
0.0
 10
-4.47478
 20
-29.30964
 30
0.0
 10
-4.47478
 20
-29.32018
 30
0.0
 10
-4.47478
 20
-29.3277
 30
0.0
 10
-4.47478
 20
-29.33212
 30
0.0
 10
-4.47478
 20
-29.33212
 30
0.0
 10
-4.47469
 20
-29.34144
 30
0.0
 10
-4.473
 20
-29.34868
 30
0.0
 10
-4.4697
 20
-29.35376
 30
0.0
 10
-4.4697
 20
-29.35376
 30
0.0
 10
-4.46632
 20
-29.35884
 30
0.0
 10
-4.4619
 20
-29.36241
 30
0.0
 10
-4.45635
 20
-29.36439
 30
0.0
 10
-4.45635
 20
-29.36439
 30
0.0
 10
-4.4508
 20
-29.36646
 30
0.0
 10
-4.44468
 20
-29.36749
 30
0.0
 10
-4.43791
 20
-29.36768
 30
0.0
 10
-4.43791
 20
-29.36768
 30
0.0
 10
-4.43113
 20
-29.36787
 30
0.0
 10
-4.42417
 20
-29.36768
 30
0.0
 10
-4.41721
 20
-29.36712
 30
0.0
  0
SPLINE
  5
6A
330
1F
100
AcDbEntity
  8
Layer 1
 62
    30
370
    53
100
AcDbSpline
210
0.0
220
0.0
230
1.0
 70
    27
 71
     3
 72
    12
 73
     8
 74
     0
 42
0.0000000001
 43
0.0000000001
 40
0.0
 40
0.0
 40
0.0
 40
0.0
 40
0.5
 40
0.5
 40
0.5
 40
0.5
 40
1.0
 40
1.0
 40
1.0
 40
1.0
 10
-4.53405
 20
-29.07756
 30
0.0
 10
-4.53405
 20
-29.07756
 30
0.0
 10
-4.41608
 20
-29.07756
 30
0.0
 10
-4.41608
 20
-29.07756
 30
0.0
 10
-4.41608
 20
-29.07756
 30
0.0
 10
-4.41608
 20
-29.07756
 30
0.0
 10
-4.53405
 20
-29.07756
 30
0.0
 10
-4.53405
 20
-29.07756
 30
0.0
  0
SPLINE
  5
6B
330
1F
100
AcDbEntity
  8
Layer 1
 62
    30
370
    53
100
AcDbSpline
210
0.0
220
0.0
230
1.0
 70
    27
 71
     3
 72
    12
 73
     8
 74
     0
 42
0.0000000001
 43
0.0000000001
 40
0.0
 40
0.0
 40
0.0
 40
0.0
 40
0.5
 40
0.5
 40
0.5
 40
0.5
 40
1.0
 40
1.0
 40
1.0
 40
1.0
 10
-4.28908
 20
-29.37558
 30
0.0
 10
-4.28908
 20
-29.37558
 30
0.0
 10
-4.15079
 20
-28.95903
 30
0.0
 10
-4.15079
 20
-28.95903
 30
0.0
 10
-4.15079
 20
-28.95903
 30
0.0
 10
-4.15079
 20
-28.95903
 30
0.0
 10
-4.28908
 20
-29.37558
 30
0.0
 10
-4.28908
 20
-29.37558
 30
0.0
  0
SPLINE
  5
6C
330
1F
100
AcDbEntity
  8
Layer 1
 62
    30
370
    53
100
AcDbSpline
210
0.0
220
0.0
230
1.0
 70
    11
 71
     3
 72
    92
 73
    88
 74
     0
 42
0.0000000001
 43
0.0000000001
 40
0.0
 40
0.0
 40
0.0
 40
0.0
 40
0.0454545454545455
 40
0.0454545454545455
 40
0.0454545454545455
 40
0.0454545454545455
 40
0.0909090909090909
 40
0.0909090909090909
 40
0.0909090909090909
 40
0.0909090909090909
 40
0.1363636363636364
 40
0.1363636363636364
 40
0.1363636363636364
 40
0.1363636363636364
 40
0.1818181818181818
 40
0.1818181818181818
 40
0.1818181818181818
 40
0.1818181818181818
 40
0.2272727272727273
 40
0.2272727272727273
 40
0.2272727272727273
 40
0.2272727272727273
 40
0.2727272727272728
 40
0.2727272727272728
 40
0.2727272727272728
 40
0.2727272727272728
 40
0.3181818181818182
 40
0.3181818181818182
 40
0.3181818181818182
 40
0.3181818181818182
 40
0.3636363636363637
 40
0.3636363636363637
 40
0.3636363636363637
 40
0.3636363636363637
 40
0.4090909090909092
 40
0.4090909090909092
 40
0.4090909090909092
 40
0.4090909090909092
 40
0.4545454545454546
 40
0.4545454545454546
 40
0.4545454545454546
 40
0.4545454545454546
 40
0.5000000000000001
 40
0.5000000000000001
 40
0.5000000000000001
 40
0.5000000000000001
 40
0.5454545454545455
 40
0.5454545454545455
 40
0.5454545454545455
 40
0.5454545454545455
 40
0.5909090909090909
 40
0.5909090909090909
 40
0.5909090909090909
 40
0.5909090909090909
 40
0.6363636363636364
 40
0.6363636363636364
 40
0.6363636363636364
 40
0.6363636363636364
 40
0.6818181818181818
 40
0.6818181818181818
 40
0.6818181818181818
 40
0.6818181818181818
 40
0.7272727272727272
 40
0.7272727272727272
 40
0.7272727272727272
 40
0.7272727272727272
 40
0.7727272727272726
 40
0.7727272727272726
 40
0.7727272727272726
 40
0.7727272727272726
 40
0.818181818181818
 40
0.818181818181818
 40
0.818181818181818
 40
0.818181818181818
 40
0.8636363636363634
 40
0.8636363636363634
 40
0.8636363636363634
 40
0.8636363636363634
 40
0.9090909090909088
 40
0.9090909090909088
 40
0.9090909090909088
 40
0.9090909090909088
 40
0.9545454545454543
 40
0.9545454545454543
 40
0.9545454545454543
 40
0.9545454545454543
 40
1.0
 40
1.0
 40
1.0
 40
1.0
 10
-3.90074
 20
-29.36994
 30
0.0
 10
-3.90074
 20
-29.36994
 30
0.0
 10
-3.90074
 20
-28.75949
 30
0.0
 10
-3.90074
 20
-28.75949
 30
0.0
 10
-3.90074
 20
-28.75949
 30
0.0
 10
-3.90074
 20
-28.75949
 30
0.0
 10
-3.70601
 20
-28.75949
 30
0.0
 10
-3.70601
 20
-28.75949
 30
0.0
 10
-3.70601
 20
-28.75949
 30
0.0
 10
-3.66706
 20
-28.75963
 30
0.0
 10
-3.63503
 20
-28.76401
 30
0.0
 10
-3.60977
 20
-28.77247
 30
0.0
 10
-3.60977
 20
-28.77247
 30
0.0
 10
-3.58465
 20
-28.7808
 30
0.0
 10
-3.56489
 20
-28.79237
 30
0.0
 10
-3.55064
 20
-28.80705
 30
0.0
 10
-3.55064
 20
-28.80705
 30
0.0
 10
-3.53639
 20
-28.82158
 30
0.0
 10
-3.52623
 20
-28.83823
 30
0.0
 10
-3.52002
 20
-28.857
 30
0.0
 10
-3.52002
 20
-28.857
 30
0.0
 10
-3.51395
 20
-28.87577
 30
0.0
 10
-3.51042
 20
-28.89538
 30
0.0
 10
-3.50958
 20
-28.91612
 30
0.0
 10
-3.50958
 20
-28.91612
 30
0.0
 10
-3.50859
 20
-28.93687
 30
0.0
 10
-3.51099
 20
-28.95719
 30
0.0
 10
-3.51663
 20
-28.97694
 30
0.0
 10
-3.51663
 20
-28.97694
 30
0.0
 10
-3.52242
 20
-28.9967
 30
0.0
 10
-3.53216
 20
-29.01462
 30
0.0
 10
-3.54613
 20
-29.03071
 30
0.0
 10
-3.54613
 20
-29.03071
 30
0.0
 10
-3.55995
 20
-29.04679
 30
0.0
 10
-3.57872
 20
-29.05964
 30
0.0
 10
-3.60229
 20
-29.06909
 30
0.0
 10
-3.60229
 20
-29.06909
 30
0.0
 10
-3.62585
 20
-29.07869
 30
0.0
 10
-3.65506
 20
-29.08348
 30
0.0
 10
-3.68992
 20
-29.08377
 30
0.0
 10
-3.68992
 20
-29.08377
 30
0.0
 10
-3.68992
 20
-29.08377
 30
0.0
 10
-3.90074
 20
-29.08377
 30
0.0
 10
-3.90074
 20
-29.08377
 30
0.0
 10
-3.90074
 20
-29.08377
 30
0.0
 10
-3.90074
 20
-29.08377
 30
0.0
 10
-3.68992
 20
-29.08377
 30
0.0
 10
-3.68992
 20
-29.08377
 30
0.0
 10
-3.68992
 20
-29.08377
 30
0.0
 10
-3.65577
 20
-29.08348
 30
0.0
 10
-3.62684
 20
-29.07869
 30
0.0
 10
-3.60342
 20
-29.06909
 30
0.0
 10
-3.60342
 20
-29.06909
 30
0.0
 10
-3.57985
 20
-29.05964
 30
0.0
 10
-3.56108
 20
-29.04679
 30
0.0
 10
-3.54697
 20
-29.03071
 30
0.0
 10
-3.54697
 20
-29.03071
 30
0.0
 10
-3.533
 20
-29.01462
 30
0.0
 10
-3.52298
 20
-28.9967
 30
0.0
 10
-3.51706
 20
-28.97694
 30
0.0
 10
-3.51706
 20
-28.97694
 30
0.0
 10
-3.51113
 20
-28.95719
 30
0.0
 10
-3.50859
 20
-28.93687
 30
0.0
 10
-3.50958
 20
-28.91612
 30
0.0
 10
-3.50958
 20
-28.91612
 30
0.0
 10
-3.51042
 20
-28.89538
 30
0.0
 10
-3.51395
 20
-28.87577
 30
0.0
 10
-3.5203
 20
-28.857
 30
0.0
 10
-3.5203
 20
-28.857
 30
0.0
 10
-3.52651
 20
-28.83823
 30
0.0
 10
-3.53695
 20
-28.82158
 30
0.0
 10
-3.55121
 20
-28.80705
 30
0.0
 10
-3.55121
 20
-28.80705
 30
0.0
 10
-3.5656
 20
-28.79237
 30
0.0
 10
-3.58535
 20
-28.7808
 30
0.0
 10
-3.61047
 20
-28.77247
 30
0.0
 10
-3.61047
 20
-28.77247
 30
0.0
 10
-3.63573
 20
-28.76401
 30
0.0
 10
-3.66748
 20
-28.75963
 30
0.0
 10
-3.70601
 20
-28.75949
 30
0.0
 10
-3.70601
 20
-28.75949
 30
0.0
 10
-3.70601
 20
-28.75949
 30
0.0
 10
-3.90074
 20
-28.75949
 30
0.0
 10
-3.90074
 20
-28.75949
 30
0.0
 10
-3.90074
 20
-28.75949
 30
0.0
 10
-3.90074
 20
-28.75949
 30
0.0
 10
-3.90074
 20
-29.36994
 30
0.0
 10
-3.90074
 20
-29.36994
 30
0.0
  0
SPLINE
  5
6D
330
1F
100
AcDbEntity
  8
Layer 1
 62
    30
370
    53
100
AcDbSpline
210
0.0
220
0.0
230
1.0
 70
    11
 71
     3
 72
    20
 73
    16
 74
     0
 42
0.0000000001
 43
0.0000000001
 40
0.0
 40
0.0
 40
0.0
 40
0.0
 40
0.25
 40
0.25
 40
0.25
 40
0.25
 40
0.5
 40
0.5
 40
0.5
 40
0.5
 40
0.75
 40
0.75
 40
0.75
 40
0.75
 40
1.0
 40
1.0
 40
1.0
 40
1.0
 10
-2.85171
 20
-29.36994
 30
0.0
 10
-2.85171
 20
-29.36994
 30
0.0
 10
-3.20816
 20
-29.36994
 30
0.0
 10
-3.20816
 20
-29.36994
 30
0.0
 10
-3.20816
 20
-29.36994
 30
0.0
 10
-3.20816
 20
-29.36994
 30
0.0
 10
-3.20816
 20
-28.75949
 30
0.0
 10
-3.20816
 20
-28.75949
 30
0.0
 10
-3.20816
 20
-28.75949
 30
0.0
 10
-3.20816
 20
-28.75949
 30
0.0
 10
-3.20816
 20
-29.36994
 30
0.0
 10
-3.20816
 20
-29.36994
 30
0.0
 10
-3.20816
 20
-29.36994
 30
0.0
 10
-3.20816
 20
-29.36994
 30
0.0
 10
-2.85171
 20
-29.36994
 30
0.0
 10
-2.85171
 20
-29.36994
 30
0.0
  0
SPLINE
  5
6E
330
1F
100
AcDbEntity
  8
Layer 1
 62
    30
370
    53
100
AcDbSpline
210
0.0
220
0.0
230
1.0
 70
    27
 71
     3
 72
    12
 73
     8
 74
     0
 42
0.0000000001
 43
0.0000000001
 40
0.0
 40
0.0
 40
0.0
 40
0.0
 40
0.5
 40
0.5
 40
0.5
 40
0.5
 40
1.0
 40
1.0
 40
1.0
 40
1.0
 10
-2.64766
 20
-29.05075
 30
0.0
 10
-2.64766
 20
-29.05075
 30
0.0
 10
-2.40128
 20
-29.05075
 30
0.0
 10
-2.40128
 20
-29.05075
 30
0.0
 10
-2.40128
 20
-29.05075
 30
0.0
 10
-2.40128
 20
-29.05075
 30
0.0
 10
-2.64766
 20
-29.05075
 30
0.0
 10
-2.64766
 20
-29.05075
 30
0.0
  0
SPLINE
  5
6F
330
1F
100
AcDbEntity
  8
Layer 1
 62
    30
370
    53
100
AcDbSpline
210
0.0
220
0.0
230
1.0
 70
    11
 71
     3
 72
    84
 73
    80
 74
     0
 42
0.0000000001
 43
0.0000000001
 40
0.0
 40
0.0
 40
0.0
 40
0.0
 40
0.05
 40
0.05
 40
0.05
 40
0.05
 40
0.1
 40
0.1
 40
0.1
 40
0.1
 40
0.15
 40
0.15
 40
0.15
 40
0.15
 40
0.2
 40
0.2
 40
0.2
 40
0.2
 40
0.25
 40
0.25
 40
0.25
 40
0.25
 40
0.3
 40
0.3
 40
0.3
 40
0.3
 40
0.35
 40
0.35
 40
0.35
 40
0.35
 40
0.4
 40
0.4
 40
0.4
 40
0.4
 40
0.45
 40
0.45
 40
0.45
 40
0.45
 40
0.4999999999999999
 40
0.4999999999999999
 40
0.4999999999999999
 40
0.4999999999999999
 40
0.5499999999999999
 40
0.5499999999999999
 40
0.5499999999999999
 40
0.5499999999999999
 40
0.6
 40
0.6
 40
0.6
 40
0.6
 40
0.65
 40
0.65
 40
0.65
 40
0.65
 40
0.7000000000000001
 40
0.7000000000000001
 40
0.7000000000000001
 40
0.7000000000000001
 40
0.7500000000000001
 40
0.7500000000000001
 40
0.7500000000000001
 40
0.7500000000000001
 40
0.8000000000000002
 40
0.8000000000000002
 40
0.8000000000000002
 40
0.8000000000000002
 40
0.8500000000000002
 40
0.8500000000000002
 40
0.8500000000000002
 40
0.8500000000000002
 40
0.9000000000000002
 40
0.9000000000000002
 40
0.9000000000000002
 40
0.9000000000000002
 40
0.9500000000000003
 40
0.9500000000000003
 40
0.9500000000000003
 40
0.9500000000000003
 40
1.0
 40
1.0
 40
1.0
 40
1.0
 10
-2.02282
 20
-29.36994
 30
0.0
 10
-1.99318
 20
-29.3698
 30
0.0
 10
-1.96764
 20
-29.36458
 30
0.0
 10
-1.94633
 20
-29.35442
 30
0.0
 10
-1.94633
 20
-29.35442
 30
0.0
 10
-1.92517
 20
-29.34426
 30
0.0
 10
-1.90753
 20
-29.32972
 30
0.0
 10
-1.89342
 20
-29.31124
 30
0.0
 10
-1.89342
 20
-29.31124
 30
0.0
 10
-1.87945
 20
-29.29261
 30
0.0
 10
-1.86844
 20
-29.2706
 30
0.0
 10
-1.86025
 20
-29.2452
 30
0.0
 10
-1.86025
 20
-29.2452
 30
0.0
 10
-1.85221
 20
-29.2198
 30
0.0
 10
-1.84643
 20
-29.192
 30
0.0
 10
-1.84318
 20
-29.16152
 30
0.0
 10
-1.84318
 20
-29.16152
 30
0.0
 10
-1.83979
 20
-29.13104
 30
0.0
 10
-1.8381
 20
-29.09901
 30
0.0
 10
-1.83824
 20
-29.06514
 30
0.0
 10
-1.83824
 20
-29.06514
 30
0.0
 10
-1.8381
 20
-29.03141
 30
0.0
 10
-1.83979
 20
-28.99938
 30
0.0
 10
-1.84318
 20
-28.96904
 30
0.0
 10
-1.84318
 20
-28.96904
 30
0.0
 10
-1.84643
 20
-28.9387
 30
0.0
 10
-1.85221
 20
-28.91076
 30
0.0
 10
-1.86025
 20
-28.88536
 30
0.0
 10
-1.86025
 20
-28.88536
 30
0.0
 10
-1.86844
 20
-28.8601
 30
0.0
 10
-1.87945
 20
-28.83809
 30
0.0
 10
-1.89342
 20
-28.81932
 30
0.0
 10
-1.89342
 20
-28.81932
 30
0.0
 10
-1.90753
 20
-28.8007
 30
0.0
 10
-1.92517
 20
-28.78616
 30
0.0
 10
-1.94633
 20
-28.776
 30
0.0
 10
-1.94633
 20
-28.776
 30
0.0
 10
-1.96764
 20
-28.7657
 30
0.0
 10
-1.99318
 20
-28.76048
 30
0.0
 10
-2.02282
 20
-28.76034
 30
0.0
 10
-2.02282
 20
-28.76034
 30
0.0
 10
-2.05245
 20
-28.76048
 30
0.0
 10
-2.07799
 20
-28.7657
 30
0.0
 10
-2.0993
 20
-28.776
 30
0.0
 10
-2.0993
 20
-28.776
 30
0.0
 10
-2.12046
 20
-28.78616
 30
0.0
 10
-2.1381
 20
-28.8007
 30
0.0
 10
-2.15221
 20
-28.81932
 30
0.0
 10
-2.15221
 20
-28.81932
 30
0.0
 10
-2.16619
 20
-28.83809
 30
0.0
 10
-2.17719
 20
-28.8601
 30
0.0
 10
-2.18538
 20
-28.88536
 30
0.0
 10
-2.18538
 20
-28.88536
 30
0.0
 10
-2.19342
 20
-28.91076
 30
0.0
 10
-2.19921
 20
-28.9387
 30
0.0
 10
-2.20245
 20
-28.96904
 30
0.0
 10
-2.20245
 20
-28.96904
 30
0.0
 10
-2.20584
 20
-28.99938
 30
0.0
 10
-2.20753
 20
-29.03141
 30
0.0
 10
-2.20739
 20
-29.06514
 30
0.0
 10
-2.20739
 20
-29.06514
 30
0.0
 10
-2.20753
 20
-29.09901
 30
0.0
 10
-2.20584
 20
-29.13104
 30
0.0
 10
-2.20245
 20
-29.16152
 30
0.0
 10
-2.20245
 20
-29.16152
 30
0.0
 10
-2.19921
 20
-29.192
 30
0.0
 10
-2.19342
 20
-29.2198
 30
0.0
 10
-2.18538
 20
-29.2452
 30
0.0
 10
-2.18538
 20
-29.2452
 30
0.0
 10
-2.17719
 20
-29.2706
 30
0.0
 10
-2.16619
 20
-29.29261
 30
0.0
 10
-2.15221
 20
-29.31124
 30
0.0
 10
-2.15221
 20
-29.31124
 30
0.0
 10
-2.1381
 20
-29.32972
 30
0.0
 10
-2.12046
 20
-29.34426
 30
0.0
 10
-2.0993
 20
-29.35442
 30
0.0
 10
-2.0993
 20
-29.35442
 30
0.0
 10
-2.07799
 20
-29.36458
 30
0.0
 10
-2.05245
 20
-29.3698
 30
0.0
 10
-2.02282
 20
-29.36994
 30
0.0
  0
SPLINE
  5
70
330
1F
100
AcDbEntity
  8
Layer 1
 62
    30
370
    53
100
AcDbSpline
210
0.0
220
0.0
230
1.0
 70
    11
 71
     3
 72
    84
 73
    80
 74
     0
 42
0.0000000001
 43
0.0000000001
 40
0.0
 40
0.0
 40
0.0
 40
0.0
 40
0.05
 40
0.05
 40
0.05
 40
0.05
 40
0.1
 40
0.1
 40
0.1
 40
0.1
 40
0.15
 40
0.15
 40
0.15
 40
0.15
 40
0.2
 40
0.2
 40
0.2
 40
0.2
 40
0.25
 40
0.25
 40
0.25
 40
0.25
 40
0.3
 40
0.3
 40
0.3
 40
0.3
 40
0.35
 40
0.35
 40
0.35
 40
0.35
 40
0.4
 40
0.4
 40
0.4
 40
0.4
 40
0.45
 40
0.45
 40
0.45
 40
0.45
 40
0.4999999999999999
 40
0.4999999999999999
 40
0.4999999999999999
 40
0.4999999999999999
 40
0.5499999999999999
 40
0.5499999999999999
 40
0.5499999999999999
 40
0.5499999999999999
 40
0.6
 40
0.6
 40
0.6
 40
0.6
 40
0.65
 40
0.65
 40
0.65
 40
0.65
 40
0.7000000000000001
 40
0.7000000000000001
 40
0.7000000000000001
 40
0.7000000000000001
 40
0.7500000000000001
 40
0.7500000000000001
 40
0.7500000000000001
 40
0.7500000000000001
 40
0.8000000000000002
 40
0.8000000000000002
 40
0.8000000000000002
 40
0.8000000000000002
 40
0.8500000000000002
 40
0.8500000000000002
 40
0.8500000000000002
 40
0.8500000000000002
 40
0.9000000000000002
 40
0.9000000000000002
 40
0.9000000000000002
 40
0.9000000000000002
 40
0.9500000000000003
 40
0.9500000000000003
 40
0.9500000000000003
 40
0.9500000000000003
 40
1.0
 40
1.0
 40
1.0
 40
1.0
 10
-2.02282
 20
-29.36994
 30
0.0
 10
-1.99318
 20
-29.3698
 30
0.0
 10
-1.96764
 20
-29.36458
 30
0.0
 10
-1.94633
 20
-29.35442
 30
0.0
 10
-1.94633
 20
-29.35442
 30
0.0
 10
-1.92517
 20
-29.34426
 30
0.0
 10
-1.90753
 20
-29.32972
 30
0.0
 10
-1.89342
 20
-29.31124
 30
0.0
 10
-1.89342
 20
-29.31124
 30
0.0
 10
-1.87945
 20
-29.29261
 30
0.0
 10
-1.86844
 20
-29.2706
 30
0.0
 10
-1.86025
 20
-29.2452
 30
0.0
 10
-1.86025
 20
-29.2452
 30
0.0
 10
-1.85221
 20
-29.2198
 30
0.0
 10
-1.84643
 20
-29.192
 30
0.0
 10
-1.84318
 20
-29.16152
 30
0.0
 10
-1.84318
 20
-29.16152
 30
0.0
 10
-1.83979
 20
-29.13104
 30
0.0
 10
-1.8381
 20
-29.09901
 30
0.0
 10
-1.83824
 20
-29.06514
 30
0.0
 10
-1.83824
 20
-29.06514
 30
0.0
 10
-1.8381
 20
-29.03141
 30
0.0
 10
-1.83979
 20
-28.99938
 30
0.0
 10
-1.84318
 20
-28.96904
 30
0.0
 10
-1.84318
 20
-28.96904
 30
0.0
 10
-1.84643
 20
-28.9387
 30
0.0
 10
-1.85221
 20
-28.91076
 30
0.0
 10
-1.86025
 20
-28.88536
 30
0.0
 10
-1.86025
 20
-28.88536
 30
0.0
 10
-1.86844
 20
-28.8601
 30
0.0
 10
-1.87945
 20
-28.83809
 30
0.0
 10
-1.89342
 20
-28.81932
 30
0.0
 10
-1.89342
 20
-28.81932
 30
0.0
 10
-1.90753
 20
-28.8007
 30
0.0
 10
-1.92517
 20
-28.78616
 30
0.0
 10
-1.94633
 20
-28.776
 30
0.0
 10
-1.94633
 20
-28.776
 30
0.0
 10
-1.96764
 20
-28.7657
 30
0.0
 10
-1.99318
 20
-28.76048
 30
0.0
 10
-2.02282
 20
-28.76034
 30
0.0
 10
-2.02282
 20
-28.76034
 30
0.0
 10
-2.05245
 20
-28.76048
 30
0.0
 10
-2.07799
 20
-28.7657
 30
0.0
 10
-2.0993
 20
-28.776
 30
0.0
 10
-2.0993
 20
-28.776
 30
0.0
 10
-2.12046
 20
-28.78616
 30
0.0
 10
-2.1381
 20
-28.8007
 30
0.0
 10
-2.15221
 20
-28.81932
 30
0.0
 10
-2.15221
 20
-28.81932
 30
0.0
 10
-2.16619
 20
-28.83809
 30
0.0
 10
-2.17719
 20
-28.8601
 30
0.0
 10
-2.18538
 20
-28.88536
 30
0.0
 10
-2.18538
 20
-28.88536
 30
0.0
 10
-2.19342
 20
-28.91076
 30
0.0
 10
-2.19921
 20
-28.9387
 30
0.0
 10
-2.20245
 20
-28.96904
 30
0.0
 10
-2.20245
 20
-28.96904
 30
0.0
 10
-2.20584
 20
-28.99938
 30
0.0
 10
-2.20753
 20
-29.03141
 30
0.0
 10
-2.20739
 20
-29.06514
 30
0.0
 10
-2.20739
 20
-29.06514
 30
0.0
 10
-2.20753
 20
-29.09901
 30
0.0
 10
-2.20584
 20
-29.13104
 30
0.0
 10
-2.20245
 20
-29.16152
 30
0.0
 10
-2.20245
 20
-29.16152
 30
0.0
 10
-2.19921
 20
-29.192
 30
0.0
 10
-2.19342
 20
-29.2198
 30
0.0
 10
-2.18538
 20
-29.2452
 30
0.0
 10
-2.18538
 20
-29.2452
 30
0.0
 10
-2.17719
 20
-29.2706
 30
0.0
 10
-2.16619
 20
-29.29261
 30
0.0
 10
-2.15221
 20
-29.31124
 30
0.0
 10
-2.15221
 20
-29.31124
 30
0.0
 10
-2.1381
 20
-29.32972
 30
0.0
 10
-2.12046
 20
-29.34426
 30
0.0
 10
-2.0993
 20
-29.35442
 30
0.0
 10
-2.0993
 20
-29.35442
 30
0.0
 10
-2.07799
 20
-29.36458
 30
0.0
 10
-2.05245
 20
-29.3698
 30
0.0
 10
-2.02282
 20
-29.36994
 30
0.0
  0
SPLINE
  5
71
330
1F
100
AcDbEntity
  8
Layer 1
 62
    30
370
    53
100
AcDbSpline
210
0.0
220
0.0
230
1.0
 70
    11
 71
     3
 72
    52
 73
    48
 74
     0
 42
0.0000000001
 43
0.0000000001
 40
0.0
 40
0.0
 40
0.0
 40
0.0
 40
0.0833333333333333
 40
0.0833333333333333
 40
0.0833333333333333
 40
0.0833333333333333
 40
0.1666666666666667
 40
0.1666666666666667
 40
0.1666666666666667
 40
0.1666666666666667
 40
0.25
 40
0.25
 40
0.25
 40
0.25
 40
0.3333333333333333
 40
0.3333333333333333
 40
0.3333333333333333
 40
0.3333333333333333
 40
0.4166666666666666
 40
0.4166666666666666
 40
0.4166666666666666
 40
0.4166666666666666
 40
0.4999999999999999
 40
0.4999999999999999
 40
0.4999999999999999
 40
0.4999999999999999
 40
0.5833333333333333
 40
0.5833333333333333
 40
0.5833333333333333
 40
0.5833333333333333
 40
0.6666666666666666
 40
0.6666666666666666
 40
0.6666666666666666
 40
0.6666666666666666
 40
0.75
 40
0.75
 40
0.75
 40
0.75
 40
0.8333333333333334
 40
0.8333333333333334
 40
0.8333333333333334
 40
0.8333333333333334
 40
0.9166666666666667
 40
0.9166666666666667
 40
0.9166666666666667
 40
0.9166666666666667
 40
1.0
 40
1.0
 40
1.0
 40
1.0
 10
-1.49365
 20
-29.36994
 30
0.0
 10
-1.49365
 20
-29.36994
 30
0.0
 10
-1.49365
 20
-28.75949
 30
0.0
 10
-1.49365
 20
-28.75949
 30
0.0
 10
-1.49365
 20
-28.75949
 30
0.0
 10
-1.49379
 20
-28.78023
 30
0.0
 10
-1.49746
 20
-28.79801
 30
0.0
 10
-1.50451
 20
-28.81283
 30
0.0
 10
-1.50451
 20
-28.81283
 30
0.0
 10
-1.51143
 20
-28.82779
 30
0.0
 10
-1.5206
 20
-28.84007
 30
0.0
 10
-1.53189
 20
-28.84994
 30
0.0
 10
-1.53189
 20
-28.84994
 30
0.0
 10
-1.54318
 20
-28.85982
 30
0.0
 10
-1.55531
 20
-28.86772
 30
0.0
 10
-1.56829
 20
-28.87365
 30
0.0
 10
-1.56829
 20
-28.87365
 30
0.0
 10
-1.58128
 20
-28.87944
 30
0.0
 10
-1.59384
 20
-28.88381
 30
0.0
 10
-1.60597
 20
-28.88649
 30
0.0
 10
-1.60597
 20
-28.88649
 30
0.0
 10
-1.61825
 20
-28.88931
 30
0.0
 10
-1.62869
 20
-28.89101
 30
0.0
 10
-1.63758
 20
-28.89157
 30
0.0
 10
-1.63758
 20
-28.89157
 30
0.0
 10
-1.62869
 20
-28.89101
 30
0.0
 10
-1.61825
 20
-28.88931
 30
0.0
 10
-1.60597
 20
-28.88649
 30
0.0
 10
-1.60597
 20
-28.88649
 30
0.0
 10
-1.59384
 20
-28.88381
 30
0.0
 10
-1.58128
 20
-28.87944
 30
0.0
 10
-1.56829
 20
-28.87365
 30
0.0
 10
-1.56829
 20
-28.87365
 30
0.0
 10
-1.55531
 20
-28.86772
 30
0.0
 10
-1.54318
 20
-28.85982
 30
0.0
 10
-1.53189
 20
-28.84994
 30
0.0
 10
-1.53189
 20
-28.84994
 30
0.0
 10
-1.5206
 20
-28.84007
 30
0.0
 10
-1.51143
 20
-28.82779
 30
0.0
 10
-1.50451
 20
-28.81283
 30
0.0
 10
-1.50451
 20
-28.81283
 30
0.0
 10
-1.49746
 20
-28.79801
 30
0.0
 10
-1.49379
 20
-28.78023
 30
0.0
 10
-1.49365
 20
-28.75949
 30
0.0
 10
-1.49365
 20
-28.75949
 30
0.0
 10
-1.49365
 20
-28.75949
 30
0.0
 10
-1.49365
 20
-29.36994
 30
0.0
 10
-1.49365
 20
-29.36994
 30
0.0
  0
SPLINE
  5
72
330
1F
100
AcDbEntity
  8
Layer 1
 62
    30
370
    53
100
AcDbSpline
210
0.0
220
0.0
230
1.0
 70
    27
 71
     3
 72
    12
 73
     8
 74
     0
 42
0.0000000001
 43
0.0000000001
 40
0.0
 40
0.0
 40
0.0
 40
0.0
 40
0.5
 40
0.5
 40
0.5
 40
0.5
 40
1.0
 40
1.0
 40
1.0
 40
1.0
 10
-1.20916
 20
-29.05075
 30
0.0
 10
-1.20916
 20
-29.05075
 30
0.0
 10
-0.96278
 20
-29.05075
 30
0.0
 10
-0.96278
 20
-29.05075
 30
0.0
 10
-0.96278
 20
-29.05075
 30
0.0
 10
-0.96278
 20
-29.05075
 30
0.0
 10
-1.20916
 20
-29.05075
 30
0.0
 10
-1.20916
 20
-29.05075
 30
0.0
  0
SPLINE
  5
73
330
1F
100
AcDbEntity
  8
Layer 1
 62
    30
370
    53
100
AcDbSpline
210
0.0
220
0.0
230
1.0
 70
    11
 71
     3
 72
    20
 73
    16
 74
     0
 42
0.0000000001
 43
0.0000000001
 40
0.0
 40
0.0
 40
0.0
 40
0.0
 40
0.25
 40
0.25
 40
0.25
 40
0.25
 40
0.5
 40
0.5
 40
0.5
 40
0.5
 40
0.75
 40
0.75
 40
0.75
 40
0.75
 40
1.0
 40
1.0
 40
1.0
 40
1.0
 10
-0.76889
 20
-29.36994
 30
0.0
 10
-0.76889
 20
-29.36994
 30
0.0
 10
-0.52674
 20
-28.75949
 30
0.0
 10
-0.52674
 20
-28.75949
 30
0.0
 10
-0.52674
 20
-28.75949
 30
0.0
 10
-0.52674
 20
-28.75949
 30
0.0
 10
-0.28375
 20
-29.36994
 30
0.0
 10
-0.28375
 20
-29.36994
 30
0.0
 10
-0.28375
 20
-29.36994
 30
0.0
 10
-0.28375
 20
-29.36994
 30
0.0
 10
-0.52674
 20
-28.75949
 30
0.0
 10
-0.52674
 20
-28.75949
 30
0.0
 10
-0.52674
 20
-28.75949
 30
0.0
 10
-0.52674
 20
-28.75949
 30
0.0
 10
-0.76889
 20
-29.36994
 30
0.0
 10
-0.76889
 20
-29.36994
 30
0.0
  0
SPLINE
  5
74
330
1F
100
AcDbEntity
  8
Layer 1
 62
    30
370
    53
100
AcDbSpline
210
0.0
220
0.0
230
1.0
 70
    27
 71
     3
 72
    12
 73
     8
 74
     0
 42
0.0000000001
 43
0.0000000001
 40
0.0
 40
0.0
 40
0.0
 40
0.0
 40
0.5
 40
0.5
 40
0.5
 40
0.5
 40
1.0
 40
1.0
 40
1.0
 40
1.0
 10
-0.69269
 20
-29.17775
 30
0.0
 10
-0.69269
 20
-29.17775
 30
0.0
 10
-0.36079
 20
-29.17775
 30
0.0
 10
-0.36079
 20
-29.17775
 30
0.0
 10
-0.36079
 20
-29.17775
 30
0.0
 10
-0.36079
 20
-29.17775
 30
0.0
 10
-0.69269
 20
-29.17775
 30
0.0
 10
-0.69269
 20
-29.17775
 30
0.0
  0
ELLIPSE
  5
75
330
1F
100
AcDbEntity
  8
Layer 1
 62
   250
370
    35
100
AcDbEllipse
 10
-1.7
 20
-17.25
 30
0.0
 11
0.0
 21
0.3
 31
0.0
210
0.0
220
0.0
230
1.0
 40
1.0
 41
0.0
 42
6.283185307179586
  0
ELLIPSE
  5
76
330
1F
100
AcDbEntity
  8
Layer 1
 62
   114
370
    35
100
AcDbEllipse
 10
-1.7
 20
-17.25
 30
0.0
 11
0.0
 21
0.65
 31
0.0
210
0.0
220
0.0
230
1.0
 40
1.0
 41
0.0
 42
6.283185307179586
  0
ELLIPSE
  5
77
330
1F
100
AcDbEntity
  8
Layer 1
 62
   250
370
    35
100
AcDbEllipse
 10
-3.3
 20
-17.25
 30
0.0
 11
0.0
 21
0.3
 31
0.0
210
0.0
220
0.0
230
1.0
 40
1.0
 41
0.0
 42
6.283185307179586
  0
ELLIPSE
  5
78
330
1F
100
AcDbEntity
  8
Layer 1
 62
   114
370
    35
100
AcDbEllipse
 10
-3.3
 20
-17.25
 30
0.0
 11
0.0
 21
0.65
 31
0.0
210
0.0
220
0.0
230
1.0
 40
1.0
 41
0.0
 42
6.283185307179586
  0
ELLIPSE
  5
79
330
1F
100
AcDbEntity
  8
Layer 1
 62
   250
370
    35
100
AcDbEllipse
 10
-4.9
 20
-17.25
 30
0.0
 11
0.0
 21
0.3
 31
0.0
210
0.0
220
0.0
230
1.0
 40
1.0
 41
0.0
 42
6.283185307179586
  0
ELLIPSE
  5
7A
330
1F
100
AcDbEntity
  8
Layer 1
 62
   114
370
    35
100
AcDbEllipse
 10
-4.9
 20
-17.25
 30
0.0
 11
0.0
 21
0.65
 31
0.0
210
0.0
220
0.0
230
1.0
 40
1.0
 41
0.0
 42
6.283185307179586
  0
ELLIPSE
  5
7B
330
1F
100
AcDbEntity
  8
Layer 1
 62
   250
370
    35
100
AcDbEllipse
 10
-6.5
 20
-17.25
 30
0.0
 11
0.0
 21
0.3
 31
0.0
210
0.0
220
0.0
230
1.0
 40
1.0
 41
0.0
 42
6.283185307179586
  0
ELLIPSE
  5
7C
330
1F
100
AcDbEntity
  8
Layer 1
 62
   114
370
    35
100
AcDbEllipse
 10
-6.5
 20
-17.25
 30
0.0
 11
0.0
 21
0.65
 31
0.0
210
0.0
220
0.0
230
1.0
 40
1.0
 41
0.0
 42
6.283185307179586
  0
ELLIPSE
  5
7D
330
1F
100
AcDbEntity
  8
Layer 1
 62
   250
370
    35
100
AcDbEllipse
 10
-8.1
 20
-17.25
 30
0.0
 11
0.0
 21
0.3
 31
0.0
210
0.0
220
0.0
230
1.0
 40
1.0
 41
0.0
 42
6.283185307179586
  0
ELLIPSE
  5
7E
330
1F
100
AcDbEntity
  8
Layer 1
 62
   114
370
    35
100
AcDbEllipse
 10
-8.1
 20
-17.25
 30
0.0
 11
0.0
 21
0.65
 31
0.0
210
0.0
220
0.0
230
1.0
 40
1.0
 41
0.0
 42
6.283185307179586
  0
ELLIPSE
  5
7F
330
1F
100
AcDbEntity
  8
Layer 1
 62
   250
370
    35
100
AcDbEllipse
 10
-9.7
 20
-17.25
 30
0.0
 11
0.0
 21
0.3
 31
0.0
210
0.0
220
0.0
230
1.0
 40
1.0
 41
0.0
 42
6.283185307179586
  0
ELLIPSE
  5
80
330
1F
100
AcDbEntity
  8
Layer 1
 62
   114
370
    35
100
AcDbEllipse
 10
-9.7
 20
-17.25
 30
0.0
 11
0.0
 21
0.65
 31
0.0
210
0.0
220
0.0
230
1.0
 40
1.0
 41
0.0
 42
6.283185307179586
  0
ELLIPSE
  5
81
330
1F
100
AcDbEntity
  8
Layer 1
 62
   250
370
    35
100
AcDbEllipse
 10
-11.3
 20
-17.25
 30
0.0
 11
0.0
 21
0.3
 31
0.0
210
0.0
220
0.0
230
1.0
 40
1.0
 41
0.0
 42
6.283185307179586
  0
ELLIPSE
  5
82
330
1F
100
AcDbEntity
  8
Layer 1
 62
   114
370
    35
100
AcDbEllipse
 10
-11.3
 20
-17.25
 30
0.0
 11
0.0
 21
0.65
 31
0.0
210
0.0
220
0.0
230
1.0
 40
1.0
 41
0.0
 42
6.283185307179586
  0
ELLIPSE
  5
83
330
1F
100
AcDbEntity
  8
Layer 1
 62
   250
370
    35
100
AcDbEllipse
 10
-12.9
 20
-17.25
 30
0.0
 11
0.0
 21
0.3
 31
0.0
210
0.0
220
0.0
230
1.0
 40
1.0
 41
0.0
 42
6.283185307179586
  0
ELLIPSE
  5
84
330
1F
100
AcDbEntity
  8
Layer 1
 62
   114
370
    35
100
AcDbEllipse
 10
-12.9
 20
-17.25
 30
0.0
 11
0.0
 21
0.65
 31
0.0
210
0.0
220
0.0
230
1.0
 40
1.0
 41
0.0
 42
6.283185307179586
  0
ELLIPSE
  5
85
330
1F
100
AcDbEntity
  8
Layer 1
 62
   250
370
    35
100
AcDbEllipse
 10
-14.5
 20
-17.25
 30
0.0
 11
0.0
 21
0.3
 31
0.0
210
0.0
220
0.0
230
1.0
 40
1.0
 41
0.0
 42
6.283185307179586
  0
ELLIPSE
  5
86
330
1F
100
AcDbEntity
  8
Layer 1
 62
   114
370
    35
100
AcDbEllipse
 10
-14.5
 20
-17.25
 30
0.0
 11
0.0
 21
0.65
 31
0.0
210
0.0
220
0.0
230
1.0
 40
1.0
 41
0.0
 42
6.283185307179586
  0
ELLIPSE
  5
87
330
1F
100
AcDbEntity
  8
Layer 1
 62
   250
370
    35
100
AcDbEllipse
 10
-16.1
 20
-17.25
 30
0.0
 11
0.0
 21
0.3
 31
0.0
210
0.0
220
0.0
230
1.0
 40
1.0
 41
0.0
 42
6.283185307179586
  0
ELLIPSE
  5
88
330
1F
100
AcDbEntity
  8
Layer 1
 62
   114
370
    35
100
AcDbEllipse
 10
-16.1
 20
-17.25
 30
0.0
 11
0.0
 21
0.65
 31
0.0
210
0.0
220
0.0
230
1.0
 40
1.0
 41
0.0
 42
6.283185307179586
  0
ELLIPSE
  5
89
330
1F
100
AcDbEntity
  8
Layer 1
 62
   250
370
    35
100
AcDbEllipse
 10
-17.7
 20
-17.25
 30
0.0
 11
0.0
 21
0.3
 31
0.0
210
0.0
220
0.0
230
1.0
 40
1.0
 41
0.0
 42
6.283185307179586
  0
ELLIPSE
  5
8A
330
1F
100
AcDbEntity
  8
Layer 1
 62
   114
370
    35
100
AcDbEllipse
 10
-17.7
 20
-17.25
 30
0.0
 11
0.0
 21
0.65
 31
0.0
210
0.0
220
0.0
230
1.0
 40
1.0
 41
0.0
 42
6.283185307179586
  0
ELLIPSE
  5
8B
330
1F
100
AcDbEntity
  8
Layer 1
 62
   250
370
    35
100
AcDbEllipse
 10
-19.3
 20
-17.25
 30
0.0
 11
0.0
 21
0.3
 31
0.0
210
0.0
220
0.0
230
1.0
 40
1.0
 41
0.0
 42
6.283185307179586
  0
ELLIPSE
  5
8C
330
1F
100
AcDbEntity
  8
Layer 1
 62
   114
370
    35
100
AcDbEllipse
 10
-19.3
 20
-17.25
 30
0.0
 11
0.0
 21
0.65
 31
0.0
210
0.0
220
0.0
230
1.0
 40
1.0
 41
0.0
 42
6.283185307179586
  0
ELLIPSE
  5
8D
330
1F
100
AcDbEntity
  8
Layer 1
 62
   250
370
    35
100
AcDbEllipse
 10
-8.1
 20
-28.45
 30
0.0
 11
0.0
 21
0.3
 31
0.0
210
0.0
220
0.0
230
1.0
 40
1.0
 41
0.0
 42
6.283185307179586
  0
ELLIPSE
  5
8E
330
1F
100
AcDbEntity
  8
Layer 1
 62
   114
370
    35
100
AcDbEllipse
 10
-8.1
 20
-28.45
 30
0.0
 11
0.0
 21
0.65
 31
0.0
210
0.0
220
0.0
230
1.0
 40
1.0
 41
0.0
 42
6.283185307179586
  0
ELLIPSE
  5
8F
330
1F
100
AcDbEntity
  8
Layer 1
 62
   250
370
    35
100
AcDbEllipse
 10
-9.7
 20
-28.45
 30
0.0
 11
0.0
 21
0.3
 31
0.0
210
0.0
220
0.0
230
1.0
 40
1.0
 41
0.0
 42
6.283185307179586
  0
ELLIPSE
  5
90
330
1F
100
AcDbEntity
  8
Layer 1
 62
   114
370
    35
100
AcDbEllipse
 10
-9.7
 20
-28.45
 30
0.0
 11
0.0
 21
0.65
 31
0.0
210
0.0
220
0.0
230
1.0
 40
1.0
 41
0.0
 42
6.283185307179586
  0
ELLIPSE
  5
91
330
1F
100
AcDbEntity
  8
Layer 1
 62
   250
370
    35
100
AcDbEllipse
 10
-11.3
 20
-28.45
 30
0.0
 11
0.0
 21
0.3
 31
0.0
210
0.0
220
0.0
230
1.0
 40
1.0
 41
0.0
 42
6.283185307179586
  0
ELLIPSE
  5
92
330
1F
100
AcDbEntity
  8
Layer 1
 62
   114
370
    35
100
AcDbEllipse
 10
-11.3
 20
-28.45
 30
0.0
 11
0.0
 21
0.65
 31
0.0
210
0.0
220
0.0
230
1.0
 40
1.0
 41
0.0
 42
6.283185307179586
  0
ELLIPSE
  5
93
330
1F
100
AcDbEntity
  8
Layer 1
 62
   250
370
    35
100
AcDbEllipse
 10
-12.9
 20
-28.45
 30
0.0
 11
0.0
 21
0.3
 31
0.0
210
0.0
220
0.0
230
1.0
 40
1.0
 41
0.0
 42
6.283185307179586
  0
ELLIPSE
  5
94
330
1F
100
AcDbEntity
  8
Layer 1
 62
   114
370
    35
100
AcDbEllipse
 10
-12.9
 20
-28.45
 30
0.0
 11
0.0
 21
0.65
 31
0.0
210
0.0
220
0.0
230
1.0
 40
1.0
 41
0.0
 42
6.283185307179586
  0
ELLIPSE
  5
95
330
1F
100
AcDbEntity
  8
Layer 1
 62
   250
370
    35
100
AcDbEllipse
 10
-14.5
 20
-28.45
 30
0.0
 11
0.0
 21
0.3
 31
0.0
210
0.0
220
0.0
230
1.0
 40
1.0
 41
0.0
 42
6.283185307179586
  0
ELLIPSE
  5
96
330
1F
100
AcDbEntity
  8
Layer 1
 62
   114
370
    35
100
AcDbEllipse
 10
-14.5
 20
-28.45
 30
0.0
 11
0.0
 21
0.65
 31
0.0
210
0.0
220
0.0
230
1.0
 40
1.0
 41
0.0
 42
6.283185307179586
  0
ELLIPSE
  5
97
330
1F
100
AcDbEntity
  8
Layer 1
 62
   250
370
    35
100
AcDbEllipse
 10
-16.1
 20
-28.45
 30
0.0
 11
0.0
 21
0.3
 31
0.0
210
0.0
220
0.0
230
1.0
 40
1.0
 41
0.0
 42
6.283185307179586
  0
ELLIPSE
  5
98
330
1F
100
AcDbEntity
  8
Layer 1
 62
   114
370
    35
100
AcDbEllipse
 10
-16.1
 20
-28.45
 30
0.0
 11
0.0
 21
0.65
 31
0.0
210
0.0
220
0.0
230
1.0
 40
1.0
 41
0.0
 42
6.283185307179586
  0
ELLIPSE
  5
99
330
1F
100
AcDbEntity
  8
Layer 1
 62
   250
370
    35
100
AcDbEllipse
 10
-17.7
 20
-28.45
 30
0.0
 11
0.0
 21
0.3
 31
0.0
210
0.0
220
0.0
230
1.0
 40
1.0
 41
0.0
 42
6.283185307179586
  0
ELLIPSE
  5
9A
330
1F
100
AcDbEntity
  8
Layer 1
 62
   114
370
    35
100
AcDbEllipse
 10
-17.7
 20
-28.45
 30
0.0
 11
0.0
 21
0.65
 31
0.0
210
0.0
220
0.0
230
1.0
 40
1.0
 41
0.0
 42
6.283185307179586
  0
ELLIPSE
  5
9B
330
1F
100
AcDbEntity
  8
Layer 1
 62
   250
370
    35
100
AcDbEllipse
 10
-19.3
 20
-28.45
 30
0.0
 11
0.0
 21
0.3
 31
0.0
210
0.0
220
0.0
230
1.0
 40
1.0
 41
0.0
 42
6.283185307179586
  0
ELLIPSE
  5
9C
330
1F
100
AcDbEntity
  8
Layer 1
 62
   114
370
    35
100
AcDbEllipse
 10
-19.3
 20
-28.45
 30
0.0
 11
0.0
 21
0.65
 31
0.0
210
0.0
220
0.0
230
1.0
 40
1.0
 41
0.0
 42
6.283185307179586
  0
ELLIPSE
  5
9D
330
1F
100
AcDbEntity
  8
Layer 1
 62
   250
370
    35
100
AcDbEllipse
 10
-1.7
 20
-18.85
 30
0.0
 11
0.0
 21
0.3
 31
0.0
210
0.0
220
0.0
230
1.0
 40
1.0
 41
0.0
 42
6.283185307179586
  0
ELLIPSE
  5
9E
330
1F
100
AcDbEntity
  8
Layer 1
 62
   114
370
    35
100
AcDbEllipse
 10
-1.7
 20
-18.85
 30
0.0
 11
0.0
 21
0.65
 31
0.0
210
0.0
220
0.0
230
1.0
 40
1.0
 41
0.0
 42
6.283185307179586
  0
ELLIPSE
  5
9F
330
1F
100
AcDbEntity
  8
Layer 1
 62
   250
370
    35
100
AcDbEllipse
 10
-3.3
 20
-18.85
 30
0.0
 11
0.0
 21
0.3
 31
0.0
210
0.0
220
0.0
230
1.0
 40
1.0
 41
0.0
 42
6.283185307179586
  0
ELLIPSE
  5
A0
330
1F
100
AcDbEntity
  8
Layer 1
 62
   114
370
    35
100
AcDbEllipse
 10
-3.3
 20
-18.85
 30
0.0
 11
0.0
 21
0.65
 31
0.0
210
0.0
220
0.0
230
1.0
 40
1.0
 41
0.0
 42
6.283185307179586
  0
ELLIPSE
  5
A1
330
1F
100
AcDbEntity
  8
Layer 1
 62
   250
370
    35
100
AcDbEllipse
 10
-4.9
 20
-18.85
 30
0.0
 11
0.0
 21
0.3
 31
0.0
210
0.0
220
0.0
230
1.0
 40
1.0
 41
0.0
 42
6.283185307179586
  0
ELLIPSE
  5
A2
330
1F
100
AcDbEntity
  8
Layer 1
 62
   114
370
    35
100
AcDbEllipse
 10
-4.9
 20
-18.85
 30
0.0
 11
0.0
 21
0.65
 31
0.0
210
0.0
220
0.0
230
1.0
 40
1.0
 41
0.0
 42
6.283185307179586
  0
ELLIPSE
  5
A3
330
1F
100
AcDbEntity
  8
Layer 1
 62
   250
370
    35
100
AcDbEllipse
 10
-6.5
 20
-18.85
 30
0.0
 11
0.0
 21
0.3
 31
0.0
210
0.0
220
0.0
230
1.0
 40
1.0
 41
0.0
 42
6.283185307179586
  0
ELLIPSE
  5
A4
330
1F
100
AcDbEntity
  8
Layer 1
 62
   114
370
    35
100
AcDbEllipse
 10
-6.5
 20
-18.85
 30
0.0
 11
0.0
 21
0.65
 31
0.0
210
0.0
220
0.0
230
1.0
 40
1.0
 41
0.0
 42
6.283185307179586
  0
ELLIPSE
  5
A5
330
1F
100
AcDbEntity
  8
Layer 1
 62
   250
370
    35
100
AcDbEllipse
 10
-8.1
 20
-18.85
 30
0.0
 11
0.0
 21
0.3
 31
0.0
210
0.0
220
0.0
230
1.0
 40
1.0
 41
0.0
 42
6.283185307179586
  0
ELLIPSE
  5
A6
330
1F
100
AcDbEntity
  8
Layer 1
 62
   114
370
    35
100
AcDbEllipse
 10
-8.1
 20
-18.85
 30
0.0
 11
0.0
 21
0.65
 31
0.0
210
0.0
220
0.0
230
1.0
 40
1.0
 41
0.0
 42
6.283185307179586
  0
ELLIPSE
  5
A7
330
1F
100
AcDbEntity
  8
Layer 1
 62
   250
370
    35
100
AcDbEllipse
 10
-9.7
 20
-18.85
 30
0.0
 11
0.0
 21
0.3
 31
0.0
210
0.0
220
0.0
230
1.0
 40
1.0
 41
0.0
 42
6.283185307179586
  0
ELLIPSE
  5
A8
330
1F
100
AcDbEntity
  8
Layer 1
 62
   114
370
    35
100
AcDbEllipse
 10
-9.7
 20
-18.85
 30
0.0
 11
0.0
 21
0.65
 31
0.0
210
0.0
220
0.0
230
1.0
 40
1.0
 41
0.0
 42
6.283185307179586
  0
ELLIPSE
  5
A9
330
1F
100
AcDbEntity
  8
Layer 1
 62
   250
370
    35
100
AcDbEllipse
 10
-11.3
 20
-18.85
 30
0.0
 11
0.0
 21
0.3
 31
0.0
210
0.0
220
0.0
230
1.0
 40
1.0
 41
0.0
 42
6.283185307179586
  0
ELLIPSE
  5
AA
330
1F
100
AcDbEntity
  8
Layer 1
 62
   114
370
    35
100
AcDbEllipse
 10
-11.3
 20
-18.85
 30
0.0
 11
0.0
 21
0.65
 31
0.0
210
0.0
220
0.0
230
1.0
 40
1.0
 41
0.0
 42
6.283185307179586
  0
ELLIPSE
  5
AB
330
1F
100
AcDbEntity
  8
Layer 1
 62
   250
370
    35
100
AcDbEllipse
 10
-12.9
 20
-18.85
 30
0.0
 11
0.0
 21
0.3
 31
0.0
210
0.0
220
0.0
230
1.0
 40
1.0
 41
0.0
 42
6.283185307179586
  0
ELLIPSE
  5
AC
330
1F
100
AcDbEntity
  8
Layer 1
 62
   114
370
    35
100
AcDbEllipse
 10
-12.9
 20
-18.85
 30
0.0
 11
0.0
 21
0.65
 31
0.0
210
0.0
220
0.0
230
1.0
 40
1.0
 41
0.0
 42
6.283185307179586
  0
ELLIPSE
  5
AD
330
1F
100
AcDbEntity
  8
Layer 1
 62
   250
370
    35
100
AcDbEllipse
 10
-14.5
 20
-18.85
 30
0.0
 11
0.0
 21
0.3
 31
0.0
210
0.0
220
0.0
230
1.0
 40
1.0
 41
0.0
 42
6.283185307179586
  0
ELLIPSE
  5
AE
330
1F
100
AcDbEntity
  8
Layer 1
 62
   114
370
    35
100
AcDbEllipse
 10
-14.5
 20
-18.85
 30
0.0
 11
0.0
 21
0.65
 31
0.0
210
0.0
220
0.0
230
1.0
 40
1.0
 41
0.0
 42
6.283185307179586
  0
ELLIPSE
  5
AF
330
1F
100
AcDbEntity
  8
Layer 1
 62
   250
370
    35
100
AcDbEllipse
 10
-16.1
 20
-18.85
 30
0.0
 11
0.0
 21
0.3
 31
0.0
210
0.0
220
0.0
230
1.0
 40
1.0
 41
0.0
 42
6.283185307179586
  0
ELLIPSE
  5
B0
330
1F
100
AcDbEntity
  8
Layer 1
 62
   114
370
    35
100
AcDbEllipse
 10
-16.1
 20
-18.85
 30
0.0
 11
0.0
 21
0.65
 31
0.0
210
0.0
220
0.0
230
1.0
 40
1.0
 41
0.0
 42
6.283185307179586
  0
ELLIPSE
  5
B1
330
1F
100
AcDbEntity
  8
Layer 1
 62
   250
370
    35
100
AcDbEllipse
 10
-17.7
 20
-18.85
 30
0.0
 11
0.0
 21
0.3
 31
0.0
210
0.0
220
0.0
230
1.0
 40
1.0
 41
0.0
 42
6.283185307179586
  0
ELLIPSE
  5
B2
330
1F
100
AcDbEntity
  8
Layer 1
 62
   114
370
    35
100
AcDbEllipse
 10
-17.7
 20
-18.85
 30
0.0
 11
0.0
 21
0.65
 31
0.0
210
0.0
220
0.0
230
1.0
 40
1.0
 41
0.0
 42
6.283185307179586
  0
ELLIPSE
  5
B3
330
1F
100
AcDbEntity
  8
Layer 1
 62
   250
370
    35
100
AcDbEllipse
 10
-19.3
 20
-18.85
 30
0.0
 11
0.0
 21
0.3
 31
0.0
210
0.0
220
0.0
230
1.0
 40
1.0
 41
0.0
 42
6.283185307179586
  0
ELLIPSE
  5
B4
330
1F
100
AcDbEntity
  8
Layer 1
 62
   114
370
    35
100
AcDbEllipse
 10
-19.3
 20
-18.85
 30
0.0
 11
0.0
 21
0.65
 31
0.0
210
0.0
220
0.0
230
1.0
 40
1.0
 41
0.0
 42
6.283185307179586
  0
ELLIPSE
  5
B5
330
1F
100
AcDbEntity
  8
Layer 1
 62
   250
370
    35
100
AcDbEllipse
 10
-1.7
 20
-15.65
 30
0.0
 11
0.0
 21
0.3
 31
0.0
210
0.0
220
0.0
230
1.0
 40
1.0
 41
0.0
 42
6.283185307179586
  0
ELLIPSE
  5
B6
330
1F
100
AcDbEntity
  8
Layer 1
 62
   114
370
    35
100
AcDbEllipse
 10
-1.7
 20
-15.65
 30
0.0
 11
0.0
 21
0.65
 31
0.0
210
0.0
220
0.0
230
1.0
 40
1.0
 41
0.0
 42
6.283185307179586
  0
ELLIPSE
  5
B7
330
1F
100
AcDbEntity
  8
Layer 1
 62
   250
370
    35
100
AcDbEllipse
 10
-3.3
 20
-15.65
 30
0.0
 11
0.0
 21
0.3
 31
0.0
210
0.0
220
0.0
230
1.0
 40
1.0
 41
0.0
 42
6.283185307179586
  0
ELLIPSE
  5
B8
330
1F
100
AcDbEntity
  8
Layer 1
 62
   114
370
    35
100
AcDbEllipse
 10
-3.3
 20
-15.65
 30
0.0
 11
0.0
 21
0.65
 31
0.0
210
0.0
220
0.0
230
1.0
 40
1.0
 41
0.0
 42
6.283185307179586
  0
ELLIPSE
  5
B9
330
1F
100
AcDbEntity
  8
Layer 1
 62
   250
370
    35
100
AcDbEllipse
 10
-4.9
 20
-15.65
 30
0.0
 11
0.0
 21
0.3
 31
0.0
210
0.0
220
0.0
230
1.0
 40
1.0
 41
0.0
 42
6.283185307179586
  0
ELLIPSE
  5
BA
330
1F
100
AcDbEntity
  8
Layer 1
 62
   114
370
    35
100
AcDbEllipse
 10
-4.9
 20
-15.65
 30
0.0
 11
0.0
 21
0.65
 31
0.0
210
0.0
220
0.0
230
1.0
 40
1.0
 41
0.0
 42
6.283185307179586
  0
ELLIPSE
  5
BB
330
1F
100
AcDbEntity
  8
Layer 1
 62
   250
370
    35
100
AcDbEllipse
 10
-6.5
 20
-15.65
 30
0.0
 11
0.0
 21
0.3
 31
0.0
210
0.0
220
0.0
230
1.0
 40
1.0
 41
0.0
 42
6.283185307179586
  0
ELLIPSE
  5
BC
330
1F
100
AcDbEntity
  8
Layer 1
 62
   114
370
    35
100
AcDbEllipse
 10
-6.5
 20
-15.65
 30
0.0
 11
0.0
 21
0.65
 31
0.0
210
0.0
220
0.0
230
1.0
 40
1.0
 41
0.0
 42
6.283185307179586
  0
ELLIPSE
  5
BD
330
1F
100
AcDbEntity
  8
Layer 1
 62
   250
370
    35
100
AcDbEllipse
 10
-8.1
 20
-15.65
 30
0.0
 11
0.0
 21
0.3
 31
0.0
210
0.0
220
0.0
230
1.0
 40
1.0
 41
0.0
 42
6.283185307179586
  0
ELLIPSE
  5
BE
330
1F
100
AcDbEntity
  8
Layer 1
 62
   114
370
    35
100
AcDbEllipse
 10
-8.1
 20
-15.65
 30
0.0
 11
0.0
 21
0.65
 31
0.0
210
0.0
220
0.0
230
1.0
 40
1.0
 41
0.0
 42
6.283185307179586
  0
ELLIPSE
  5
BF
330
1F
100
AcDbEntity
  8
Layer 1
 62
   250
370
    35
100
AcDbEllipse
 10
-9.7
 20
-15.65
 30
0.0
 11
0.0
 21
0.3
 31
0.0
210
0.0
220
0.0
230
1.0
 40
1.0
 41
0.0
 42
6.283185307179586
  0
ELLIPSE
  5
C0
330
1F
100
AcDbEntity
  8
Layer 1
 62
   114
370
    35
100
AcDbEllipse
 10
-9.7
 20
-15.65
 30
0.0
 11
0.0
 21
0.65
 31
0.0
210
0.0
220
0.0
230
1.0
 40
1.0
 41
0.0
 42
6.283185307179586
  0
ELLIPSE
  5
C1
330
1F
100
AcDbEntity
  8
Layer 1
 62
   250
370
    35
100
AcDbEllipse
 10
-11.3
 20
-15.65
 30
0.0
 11
0.0
 21
0.3
 31
0.0
210
0.0
220
0.0
230
1.0
 40
1.0
 41
0.0
 42
6.283185307179586
  0
ELLIPSE
  5
C2
330
1F
100
AcDbEntity
  8
Layer 1
 62
   114
370
    35
100
AcDbEllipse
 10
-11.3
 20
-15.65
 30
0.0
 11
0.0
 21
0.65
 31
0.0
210
0.0
220
0.0
230
1.0
 40
1.0
 41
0.0
 42
6.283185307179586
  0
ELLIPSE
  5
C3
330
1F
100
AcDbEntity
  8
Layer 1
 62
   250
370
    35
100
AcDbEllipse
 10
-12.9
 20
-15.65
 30
0.0
 11
0.0
 21
0.3
 31
0.0
210
0.0
220
0.0
230
1.0
 40
1.0
 41
0.0
 42
6.283185307179586
  0
ELLIPSE
  5
C4
330
1F
100
AcDbEntity
  8
Layer 1
 62
   114
370
    35
100
AcDbEllipse
 10
-12.9
 20
-15.65
 30
0.0
 11
0.0
 21
0.65
 31
0.0
210
0.0
220
0.0
230
1.0
 40
1.0
 41
0.0
 42
6.283185307179586
  0
ELLIPSE
  5
C5
330
1F
100
AcDbEntity
  8
Layer 1
 62
   250
370
    35
100
AcDbEllipse
 10
-14.5
 20
-15.65
 30
0.0
 11
0.0
 21
0.3
 31
0.0
210
0.0
220
0.0
230
1.0
 40
1.0
 41
0.0
 42
6.283185307179586
  0
ELLIPSE
  5
C6
330
1F
100
AcDbEntity
  8
Layer 1
 62
   114
370
    35
100
AcDbEllipse
 10
-14.5
 20
-15.65
 30
0.0
 11
0.0
 21
0.65
 31
0.0
210
0.0
220
0.0
230
1.0
 40
1.0
 41
0.0
 42
6.283185307179586
  0
ELLIPSE
  5
C7
330
1F
100
AcDbEntity
  8
Layer 1
 62
   250
370
    35
100
AcDbEllipse
 10
-16.1
 20
-15.65
 30
0.0
 11
0.0
 21
0.3
 31
0.0
210
0.0
220
0.0
230
1.0
 40
1.0
 41
0.0
 42
6.283185307179586
  0
ELLIPSE
  5
C8
330
1F
100
AcDbEntity
  8
Layer 1
 62
   114
370
    35
100
AcDbEllipse
 10
-16.1
 20
-15.65
 30
0.0
 11
0.0
 21
0.65
 31
0.0
210
0.0
220
0.0
230
1.0
 40
1.0
 41
0.0
 42
6.283185307179586
  0
ELLIPSE
  5
C9
330
1F
100
AcDbEntity
  8
Layer 1
 62
   250
370
    35
100
AcDbEllipse
 10
-17.7
 20
-15.65
 30
0.0
 11
0.0
 21
0.3
 31
0.0
210
0.0
220
0.0
230
1.0
 40
1.0
 41
0.0
 42
6.283185307179586
  0
ELLIPSE
  5
CA
330
1F
100
AcDbEntity
  8
Layer 1
 62
   114
370
    35
100
AcDbEllipse
 10
-17.7
 20
-15.65
 30
0.0
 11
0.0
 21
0.65
 31
0.0
210
0.0
220
0.0
230
1.0
 40
1.0
 41
0.0
 42
6.283185307179586
  0
ELLIPSE
  5
CB
330
1F
100
AcDbEntity
  8
Layer 1
 62
   250
370
    35
100
AcDbEllipse
 10
-19.3
 20
-15.65
 30
0.0
 11
0.0
 21
0.3
 31
0.0
210
0.0
220
0.0
230
1.0
 40
1.0
 41
0.0
 42
6.283185307179586
  0
ELLIPSE
  5
CC
330
1F
100
AcDbEntity
  8
Layer 1
 62
   114
370
    35
100
AcDbEllipse
 10
-19.3
 20
-15.65
 30
0.0
 11
0.0
 21
0.65
 31
0.0
210
0.0
220
0.0
230
1.0
 40
1.0
 41
0.0
 42
6.283185307179586
  0
ELLIPSE
  5
CD
330
1F
100
AcDbEntity
  8
Layer 1
 62
   250
370
    35
100
AcDbEllipse
 10
-1.7
 20
-14.05
 30
0.0
 11
0.0
 21
0.3
 31
0.0
210
0.0
220
0.0
230
1.0
 40
1.0
 41
0.0
 42
6.283185307179586
  0
ELLIPSE
  5
CE
330
1F
100
AcDbEntity
  8
Layer 1
 62
   114
370
    35
100
AcDbEllipse
 10
-1.7
 20
-14.05
 30
0.0
 11
0.0
 21
0.65
 31
0.0
210
0.0
220
0.0
230
1.0
 40
1.0
 41
0.0
 42
6.283185307179586
  0
ELLIPSE
  5
CF
330
1F
100
AcDbEntity
  8
Layer 1
 62
   250
370
    35
100
AcDbEllipse
 10
-3.3
 20
-14.05
 30
0.0
 11
0.0
 21
0.3
 31
0.0
210
0.0
220
0.0
230
1.0
 40
1.0
 41
0.0
 42
6.283185307179586
  0
ELLIPSE
  5
D0
330
1F
100
AcDbEntity
  8
Layer 1
 62
   114
370
    35
100
AcDbEllipse
 10
-3.3
 20
-14.05
 30
0.0
 11
0.0
 21
0.65
 31
0.0
210
0.0
220
0.0
230
1.0
 40
1.0
 41
0.0
 42
6.283185307179586
  0
ELLIPSE
  5
D1
330
1F
100
AcDbEntity
  8
Layer 1
 62
   250
370
    35
100
AcDbEllipse
 10
-4.9
 20
-14.05
 30
0.0
 11
0.0
 21
0.3
 31
0.0
210
0.0
220
0.0
230
1.0
 40
1.0
 41
0.0
 42
6.283185307179586
  0
ELLIPSE
  5
D2
330
1F
100
AcDbEntity
  8
Layer 1
 62
   114
370
    35
100
AcDbEllipse
 10
-4.9
 20
-14.05
 30
0.0
 11
0.0
 21
0.65
 31
0.0
210
0.0
220
0.0
230
1.0
 40
1.0
 41
0.0
 42
6.283185307179586
  0
ELLIPSE
  5
D3
330
1F
100
AcDbEntity
  8
Layer 1
 62
   250
370
    35
100
AcDbEllipse
 10
-6.5
 20
-14.05
 30
0.0
 11
0.0
 21
0.3
 31
0.0
210
0.0
220
0.0
230
1.0
 40
1.0
 41
0.0
 42
6.283185307179586
  0
ELLIPSE
  5
D4
330
1F
100
AcDbEntity
  8
Layer 1
 62
   114
370
    35
100
AcDbEllipse
 10
-6.5
 20
-14.05
 30
0.0
 11
0.0
 21
0.65
 31
0.0
210
0.0
220
0.0
230
1.0
 40
1.0
 41
0.0
 42
6.283185307179586
  0
ELLIPSE
  5
D5
330
1F
100
AcDbEntity
  8
Layer 1
 62
   250
370
    35
100
AcDbEllipse
 10
-8.1
 20
-14.05
 30
0.0
 11
0.0
 21
0.3
 31
0.0
210
0.0
220
0.0
230
1.0
 40
1.0
 41
0.0
 42
6.283185307179586
  0
ELLIPSE
  5
D6
330
1F
100
AcDbEntity
  8
Layer 1
 62
   114
370
    35
100
AcDbEllipse
 10
-8.1
 20
-14.05
 30
0.0
 11
0.0
 21
0.65
 31
0.0
210
0.0
220
0.0
230
1.0
 40
1.0
 41
0.0
 42
6.283185307179586
  0
ELLIPSE
  5
D7
330
1F
100
AcDbEntity
  8
Layer 1
 62
   250
370
    35
100
AcDbEllipse
 10
-9.7
 20
-14.05
 30
0.0
 11
0.0
 21
0.3
 31
0.0
210
0.0
220
0.0
230
1.0
 40
1.0
 41
0.0
 42
6.283185307179586
  0
ELLIPSE
  5
D8
330
1F
100
AcDbEntity
  8
Layer 1
 62
   114
370
    35
100
AcDbEllipse
 10
-9.7
 20
-14.05
 30
0.0
 11
0.0
 21
0.65
 31
0.0
210
0.0
220
0.0
230
1.0
 40
1.0
 41
0.0
 42
6.283185307179586
  0
ELLIPSE
  5
D9
330
1F
100
AcDbEntity
  8
Layer 1
 62
   250
370
    35
100
AcDbEllipse
 10
-11.3
 20
-14.05
 30
0.0
 11
0.0
 21
0.3
 31
0.0
210
0.0
220
0.0
230
1.0
 40
1.0
 41
0.0
 42
6.283185307179586
  0
ELLIPSE
  5
DA
330
1F
100
AcDbEntity
  8
Layer 1
 62
   114
370
    35
100
AcDbEllipse
 10
-11.3
 20
-14.05
 30
0.0
 11
0.0
 21
0.65
 31
0.0
210
0.0
220
0.0
230
1.0
 40
1.0
 41
0.0
 42
6.283185307179586
  0
ELLIPSE
  5
DB
330
1F
100
AcDbEntity
  8
Layer 1
 62
   250
370
    35
100
AcDbEllipse
 10
-12.9
 20
-14.05
 30
0.0
 11
0.0
 21
0.3
 31
0.0
210
0.0
220
0.0
230
1.0
 40
1.0
 41
0.0
 42
6.283185307179586
  0
ELLIPSE
  5
DC
330
1F
100
AcDbEntity
  8
Layer 1
 62
   114
370
    35
100
AcDbEllipse
 10
-12.9
 20
-14.05
 30
0.0
 11
0.0
 21
0.65
 31
0.0
210
0.0
220
0.0
230
1.0
 40
1.0
 41
0.0
 42
6.283185307179586
  0
ELLIPSE
  5
DD
330
1F
100
AcDbEntity
  8
Layer 1
 62
   250
370
    35
100
AcDbEllipse
 10
-14.5
 20
-14.05
 30
0.0
 11
0.0
 21
0.3
 31
0.0
210
0.0
220
0.0
230
1.0
 40
1.0
 41
0.0
 42
6.283185307179586
  0
ELLIPSE
  5
DE
330
1F
100
AcDbEntity
  8
Layer 1
 62
   114
370
    35
100
AcDbEllipse
 10
-14.5
 20
-14.05
 30
0.0
 11
0.0
 21
0.65
 31
0.0
210
0.0
220
0.0
230
1.0
 40
1.0
 41
0.0
 42
6.283185307179586
  0
ELLIPSE
  5
DF
330
1F
100
AcDbEntity
  8
Layer 1
 62
   250
370
    35
100
AcDbEllipse
 10
-16.1
 20
-14.05
 30
0.0
 11
0.0
 21
0.3
 31
0.0
210
0.0
220
0.0
230
1.0
 40
1.0
 41
0.0
 42
6.283185307179586
  0
ELLIPSE
  5
E0
330
1F
100
AcDbEntity
  8
Layer 1
 62
   114
370
    35
100
AcDbEllipse
 10
-16.1
 20
-14.05
 30
0.0
 11
0.0
 21
0.65
 31
0.0
210
0.0
220
0.0
230
1.0
 40
1.0
 41
0.0
 42
6.283185307179586
  0
ELLIPSE
  5
E1
330
1F
100
AcDbEntity
  8
Layer 1
 62
   250
370
    35
100
AcDbEllipse
 10
-17.7
 20
-14.05
 30
0.0
 11
0.0
 21
0.3
 31
0.0
210
0.0
220
0.0
230
1.0
 40
1.0
 41
0.0
 42
6.283185307179586
  0
ELLIPSE
  5
E2
330
1F
100
AcDbEntity
  8
Layer 1
 62
   114
370
    35
100
AcDbEllipse
 10
-17.7
 20
-14.05
 30
0.0
 11
0.0
 21
0.65
 31
0.0
210
0.0
220
0.0
230
1.0
 40
1.0
 41
0.0
 42
6.283185307179586
  0
ELLIPSE
  5
E3
330
1F
100
AcDbEntity
  8
Layer 1
 62
   250
370
    35
100
AcDbEllipse
 10
-19.3
 20
-14.05
 30
0.0
 11
0.0
 21
0.3
 31
0.0
210
0.0
220
0.0
230
1.0
 40
1.0
 41
0.0
 42
6.283185307179586
  0
ELLIPSE
  5
E4
330
1F
100
AcDbEntity
  8
Layer 1
 62
   114
370
    35
100
AcDbEllipse
 10
-19.3
 20
-14.05
 30
0.0
 11
0.0
 21
0.65
 31
0.0
210
0.0
220
0.0
230
1.0
 40
1.0
 41
0.0
 42
6.283185307179586
  0
ELLIPSE
  5
E5
330
1F
100
AcDbEntity
  8
Layer 1
 62
   250
370
    35
100
AcDbEllipse
 10
-1.7
 20
-12.45
 30
0.0
 11
0.0
 21
0.3
 31
0.0
210
0.0
220
0.0
230
1.0
 40
1.0
 41
0.0
 42
6.283185307179586
  0
ELLIPSE
  5
E6
330
1F
100
AcDbEntity
  8
Layer 1
 62
   114
370
    35
100
AcDbEllipse
 10
-1.7
 20
-12.45
 30
0.0
 11
0.0
 21
0.65
 31
0.0
210
0.0
220
0.0
230
1.0
 40
1.0
 41
0.0
 42
6.283185307179586
  0
ELLIPSE
  5
E7
330
1F
100
AcDbEntity
  8
Layer 1
 62
   250
370
    35
100
AcDbEllipse
 10
-3.3
 20
-12.45
 30
0.0
 11
0.0
 21
0.3
 31
0.0
210
0.0
220
0.0
230
1.0
 40
1.0
 41
0.0
 42
6.283185307179586
  0
ELLIPSE
  5
E8
330
1F
100
AcDbEntity
  8
Layer 1
 62
   114
370
    35
100
AcDbEllipse
 10
-3.3
 20
-12.45
 30
0.0
 11
0.0
 21
0.65
 31
0.0
210
0.0
220
0.0
230
1.0
 40
1.0
 41
0.0
 42
6.283185307179586
  0
ELLIPSE
  5
E9
330
1F
100
AcDbEntity
  8
Layer 1
 62
   250
370
    35
100
AcDbEllipse
 10
-4.9
 20
-12.45
 30
0.0
 11
0.0
 21
0.3
 31
0.0
210
0.0
220
0.0
230
1.0
 40
1.0
 41
0.0
 42
6.283185307179586
  0
ELLIPSE
  5
EA
330
1F
100
AcDbEntity
  8
Layer 1
 62
   114
370
    35
100
AcDbEllipse
 10
-4.9
 20
-12.45
 30
0.0
 11
0.0
 21
0.65
 31
0.0
210
0.0
220
0.0
230
1.0
 40
1.0
 41
0.0
 42
6.283185307179586
  0
ELLIPSE
  5
EB
330
1F
100
AcDbEntity
  8
Layer 1
 62
   250
370
    35
100
AcDbEllipse
 10
-6.5
 20
-12.45
 30
0.0
 11
0.0
 21
0.3
 31
0.0
210
0.0
220
0.0
230
1.0
 40
1.0
 41
0.0
 42
6.283185307179586
  0
ELLIPSE
  5
EC
330
1F
100
AcDbEntity
  8
Layer 1
 62
   114
370
    35
100
AcDbEllipse
 10
-6.5
 20
-12.45
 30
0.0
 11
0.0
 21
0.65
 31
0.0
210
0.0
220
0.0
230
1.0
 40
1.0
 41
0.0
 42
6.283185307179586
  0
ELLIPSE
  5
ED
330
1F
100
AcDbEntity
  8
Layer 1
 62
   250
370
    35
100
AcDbEllipse
 10
-8.1
 20
-12.45
 30
0.0
 11
0.0
 21
0.3
 31
0.0
210
0.0
220
0.0
230
1.0
 40
1.0
 41
0.0
 42
6.283185307179586
  0
ELLIPSE
  5
EE
330
1F
100
AcDbEntity
  8
Layer 1
 62
   114
370
    35
100
AcDbEllipse
 10
-8.1
 20
-12.45
 30
0.0
 11
0.0
 21
0.65
 31
0.0
210
0.0
220
0.0
230
1.0
 40
1.0
 41
0.0
 42
6.283185307179586
  0
ELLIPSE
  5
EF
330
1F
100
AcDbEntity
  8
Layer 1
 62
   250
370
    35
100
AcDbEllipse
 10
-9.7
 20
-12.45
 30
0.0
 11
0.0
 21
0.3
 31
0.0
210
0.0
220
0.0
230
1.0
 40
1.0
 41
0.0
 42
6.283185307179586
  0
ELLIPSE
  5
F0
330
1F
100
AcDbEntity
  8
Layer 1
 62
   114
370
    35
100
AcDbEllipse
 10
-9.7
 20
-12.45
 30
0.0
 11
0.0
 21
0.65
 31
0.0
210
0.0
220
0.0
230
1.0
 40
1.0
 41
0.0
 42
6.283185307179586
  0
ELLIPSE
  5
F1
330
1F
100
AcDbEntity
  8
Layer 1
 62
   250
370
    35
100
AcDbEllipse
 10
-11.3
 20
-12.45
 30
0.0
 11
0.0
 21
0.3
 31
0.0
210
0.0
220
0.0
230
1.0
 40
1.0
 41
0.0
 42
6.283185307179586
  0
ELLIPSE
  5
F2
330
1F
100
AcDbEntity
  8
Layer 1
 62
   114
370
    35
100
AcDbEllipse
 10
-11.3
 20
-12.45
 30
0.0
 11
0.0
 21
0.65
 31
0.0
210
0.0
220
0.0
230
1.0
 40
1.0
 41
0.0
 42
6.283185307179586
  0
ELLIPSE
  5
F3
330
1F
100
AcDbEntity
  8
Layer 1
 62
   250
370
    35
100
AcDbEllipse
 10
-12.9
 20
-12.45
 30
0.0
 11
0.0
 21
0.3
 31
0.0
210
0.0
220
0.0
230
1.0
 40
1.0
 41
0.0
 42
6.283185307179586
  0
ELLIPSE
  5
F4
330
1F
100
AcDbEntity
  8
Layer 1
 62
   114
370
    35
100
AcDbEllipse
 10
-12.9
 20
-12.45
 30
0.0
 11
0.0
 21
0.65
 31
0.0
210
0.0
220
0.0
230
1.0
 40
1.0
 41
0.0
 42
6.283185307179586
  0
ELLIPSE
  5
F5
330
1F
100
AcDbEntity
  8
Layer 1
 62
   250
370
    35
100
AcDbEllipse
 10
-14.5
 20
-12.45
 30
0.0
 11
0.0
 21
0.3
 31
0.0
210
0.0
220
0.0
230
1.0
 40
1.0
 41
0.0
 42
6.283185307179586
  0
ELLIPSE
  5
F6
330
1F
100
AcDbEntity
  8
Layer 1
 62
   114
370
    35
100
AcDbEllipse
 10
-14.5
 20
-12.45
 30
0.0
 11
0.0
 21
0.65
 31
0.0
210
0.0
220
0.0
230
1.0
 40
1.0
 41
0.0
 42
6.283185307179586
  0
ELLIPSE
  5
F7
330
1F
100
AcDbEntity
  8
Layer 1
 62
   250
370
    35
100
AcDbEllipse
 10
-16.1
 20
-12.45
 30
0.0
 11
0.0
 21
0.3
 31
0.0
210
0.0
220
0.0
230
1.0
 40
1.0
 41
0.0
 42
6.283185307179586
  0
ELLIPSE
  5
F8
330
1F
100
AcDbEntity
  8
Layer 1
 62
   114
370
    35
100
AcDbEllipse
 10
-16.1
 20
-12.45
 30
0.0
 11
0.0
 21
0.65
 31
0.0
210
0.0
220
0.0
230
1.0
 40
1.0
 41
0.0
 42
6.283185307179586
  0
ELLIPSE
  5
F9
330
1F
100
AcDbEntity
  8
Layer 1
 62
   250
370
    35
100
AcDbEllipse
 10
-17.7
 20
-12.45
 30
0.0
 11
0.0
 21
0.3
 31
0.0
210
0.0
220
0.0
230
1.0
 40
1.0
 41
0.0
 42
6.283185307179586
  0
ELLIPSE
  5
FA
330
1F
100
AcDbEntity
  8
Layer 1
 62
   114
370
    35
100
AcDbEllipse
 10
-17.7
 20
-12.45
 30
0.0
 11
0.0
 21
0.65
 31
0.0
210
0.0
220
0.0
230
1.0
 40
1.0
 41
0.0
 42
6.283185307179586
  0
ELLIPSE
  5
FB
330
1F
100
AcDbEntity
  8
Layer 1
 62
   250
370
    35
100
AcDbEllipse
 10
-19.3
 20
-12.45
 30
0.0
 11
0.0
 21
0.3
 31
0.0
210
0.0
220
0.0
230
1.0
 40
1.0
 41
0.0
 42
6.283185307179586
  0
ELLIPSE
  5
FC
330
1F
100
AcDbEntity
  8
Layer 1
 62
   114
370
    35
100
AcDbEllipse
 10
-19.3
 20
-12.45
 30
0.0
 11
0.0
 21
0.65
 31
0.0
210
0.0
220
0.0
230
1.0
 40
1.0
 41
0.0
 42
6.283185307179586
  0
ELLIPSE
  5
FD
330
1F
100
AcDbEntity
  8
Layer 1
 62
   250
370
    35
100
AcDbEllipse
 10
-1.7
 20
-25.25
 30
0.0
 11
0.0
 21
0.3
 31
0.0
210
0.0
220
0.0
230
1.0
 40
1.0
 41
0.0
 42
6.283185307179586
  0
ELLIPSE
  5
FE
330
1F
100
AcDbEntity
  8
Layer 1
 62
   114
370
    35
100
AcDbEllipse
 10
-1.7
 20
-25.25
 30
0.0
 11
0.0
 21
0.65
 31
0.0
210
0.0
220
0.0
230
1.0
 40
1.0
 41
0.0
 42
6.283185307179586
  0
ELLIPSE
  5
FF
330
1F
100
AcDbEntity
  8
Layer 1
 62
   250
370
    35
100
AcDbEllipse
 10
-3.3
 20
-25.25
 30
0.0
 11
0.0
 21
0.3
 31
0.0
210
0.0
220
0.0
230
1.0
 40
1.0
 41
0.0
 42
6.283185307179586
  0
ELLIPSE
  5
100
330
1F
100
AcDbEntity
  8
Layer 1
 62
   114
370
    35
100
AcDbEllipse
 10
-3.3
 20
-25.25
 30
0.0
 11
0.0
 21
0.65
 31
0.0
210
0.0
220
0.0
230
1.0
 40
1.0
 41
0.0
 42
6.283185307179586
  0
ELLIPSE
  5
101
330
1F
100
AcDbEntity
  8
Layer 1
 62
   250
370
    35
100
AcDbEllipse
 10
-4.9
 20
-25.25
 30
0.0
 11
0.0
 21
0.3
 31
0.0
210
0.0
220
0.0
230
1.0
 40
1.0
 41
0.0
 42
6.283185307179586
  0
ELLIPSE
  5
102
330
1F
100
AcDbEntity
  8
Layer 1
 62
   114
370
    35
100
AcDbEllipse
 10
-4.9
 20
-25.25
 30
0.0
 11
0.0
 21
0.65
 31
0.0
210
0.0
220
0.0
230
1.0
 40
1.0
 41
0.0
 42
6.283185307179586
  0
ELLIPSE
  5
103
330
1F
100
AcDbEntity
  8
Layer 1
 62
   250
370
    35
100
AcDbEllipse
 10
-6.5
 20
-25.25
 30
0.0
 11
0.0
 21
0.3
 31
0.0
210
0.0
220
0.0
230
1.0
 40
1.0
 41
0.0
 42
6.283185307179586
  0
ELLIPSE
  5
104
330
1F
100
AcDbEntity
  8
Layer 1
 62
   114
370
    35
100
AcDbEllipse
 10
-6.5
 20
-25.25
 30
0.0
 11
0.0
 21
0.65
 31
0.0
210
0.0
220
0.0
230
1.0
 40
1.0
 41
0.0
 42
6.283185307179586
  0
ELLIPSE
  5
105
330
1F
100
AcDbEntity
  8
Layer 1
 62
   250
370
    35
100
AcDbEllipse
 10
-8.1
 20
-25.25
 30
0.0
 11
0.0
 21
0.3
 31
0.0
210
0.0
220
0.0
230
1.0
 40
1.0
 41
0.0
 42
6.283185307179586
  0
ELLIPSE
  5
106
330
1F
100
AcDbEntity
  8
Layer 1
 62
   114
370
    35
100
AcDbEllipse
 10
-8.1
 20
-25.25
 30
0.0
 11
0.0
 21
0.65
 31
0.0
210
0.0
220
0.0
230
1.0
 40
1.0
 41
0.0
 42
6.283185307179586
  0
ELLIPSE
  5
107
330
1F
100
AcDbEntity
  8
Layer 1
 62
   250
370
    35
100
AcDbEllipse
 10
-9.7
 20
-25.25
 30
0.0
 11
0.0
 21
0.3
 31
0.0
210
0.0
220
0.0
230
1.0
 40
1.0
 41
0.0
 42
6.283185307179586
  0
ELLIPSE
  5
108
330
1F
100
AcDbEntity
  8
Layer 1
 62
   114
370
    35
100
AcDbEllipse
 10
-9.7
 20
-25.25
 30
0.0
 11
0.0
 21
0.65
 31
0.0
210
0.0
220
0.0
230
1.0
 40
1.0
 41
0.0
 42
6.283185307179586
  0
ELLIPSE
  5
109
330
1F
100
AcDbEntity
  8
Layer 1
 62
   250
370
    35
100
AcDbEllipse
 10
-11.3
 20
-25.25
 30
0.0
 11
0.0
 21
0.3
 31
0.0
210
0.0
220
0.0
230
1.0
 40
1.0
 41
0.0
 42
6.283185307179586
  0
ELLIPSE
  5
10A
330
1F
100
AcDbEntity
  8
Layer 1
 62
   114
370
    35
100
AcDbEllipse
 10
-11.3
 20
-25.25
 30
0.0
 11
0.0
 21
0.65
 31
0.0
210
0.0
220
0.0
230
1.0
 40
1.0
 41
0.0
 42
6.283185307179586
  0
ELLIPSE
  5
10B
330
1F
100
AcDbEntity
  8
Layer 1
 62
   250
370
    35
100
AcDbEllipse
 10
-12.9
 20
-25.25
 30
0.0
 11
0.0
 21
0.3
 31
0.0
210
0.0
220
0.0
230
1.0
 40
1.0
 41
0.0
 42
6.283185307179586
  0
ELLIPSE
  5
10C
330
1F
100
AcDbEntity
  8
Layer 1
 62
   114
370
    35
100
AcDbEllipse
 10
-12.9
 20
-25.25
 30
0.0
 11
0.0
 21
0.65
 31
0.0
210
0.0
220
0.0
230
1.0
 40
1.0
 41
0.0
 42
6.283185307179586
  0
ELLIPSE
  5
10D
330
1F
100
AcDbEntity
  8
Layer 1
 62
   250
370
    35
100
AcDbEllipse
 10
-14.5
 20
-25.25
 30
0.0
 11
0.0
 21
0.3
 31
0.0
210
0.0
220
0.0
230
1.0
 40
1.0
 41
0.0
 42
6.283185307179586
  0
ELLIPSE
  5
10E
330
1F
100
AcDbEntity
  8
Layer 1
 62
   114
370
    35
100
AcDbEllipse
 10
-14.5
 20
-25.25
 30
0.0
 11
0.0
 21
0.65
 31
0.0
210
0.0
220
0.0
230
1.0
 40
1.0
 41
0.0
 42
6.283185307179586
  0
ELLIPSE
  5
10F
330
1F
100
AcDbEntity
  8
Layer 1
 62
   250
370
    35
100
AcDbEllipse
 10
-16.1
 20
-25.25
 30
0.0
 11
0.0
 21
0.3
 31
0.0
210
0.0
220
0.0
230
1.0
 40
1.0
 41
0.0
 42
6.283185307179586
  0
ELLIPSE
  5
110
330
1F
100
AcDbEntity
  8
Layer 1
 62
   114
370
    35
100
AcDbEllipse
 10
-16.1
 20
-25.25
 30
0.0
 11
0.0
 21
0.65
 31
0.0
210
0.0
220
0.0
230
1.0
 40
1.0
 41
0.0
 42
6.283185307179586
  0
ELLIPSE
  5
111
330
1F
100
AcDbEntity
  8
Layer 1
 62
   250
370
    35
100
AcDbEllipse
 10
-17.7
 20
-25.25
 30
0.0
 11
0.0
 21
0.3
 31
0.0
210
0.0
220
0.0
230
1.0
 40
1.0
 41
0.0
 42
6.283185307179586
  0
ELLIPSE
  5
112
330
1F
100
AcDbEntity
  8
Layer 1
 62
   114
370
    35
100
AcDbEllipse
 10
-17.7
 20
-25.25
 30
0.0
 11
0.0
 21
0.65
 31
0.0
210
0.0
220
0.0
230
1.0
 40
1.0
 41
0.0
 42
6.283185307179586
  0
ELLIPSE
  5
113
330
1F
100
AcDbEntity
  8
Layer 1
 62
   250
370
    35
100
AcDbEllipse
 10
-19.3
 20
-25.25
 30
0.0
 11
0.0
 21
0.3
 31
0.0
210
0.0
220
0.0
230
1.0
 40
1.0
 41
0.0
 42
6.283185307179586
  0
ELLIPSE
  5
114
330
1F
100
AcDbEntity
  8
Layer 1
 62
   114
370
    35
100
AcDbEllipse
 10
-19.3
 20
-25.25
 30
0.0
 11
0.0
 21
0.65
 31
0.0
210
0.0
220
0.0
230
1.0
 40
1.0
 41
0.0
 42
6.283185307179586
  0
ELLIPSE
  5
115
330
1F
100
AcDbEntity
  8
Layer 1
 62
   250
370
    35
100
AcDbEllipse
 10
-1.7
 20
-26.85
 30
0.0
 11
0.0
 21
0.3
 31
0.0
210
0.0
220
0.0
230
1.0
 40
1.0
 41
0.0
 42
6.283185307179586
  0
ELLIPSE
  5
116
330
1F
100
AcDbEntity
  8
Layer 1
 62
   114
370
    35
100
AcDbEllipse
 10
-1.7
 20
-26.85
 30
0.0
 11
0.0
 21
0.65
 31
0.0
210
0.0
220
0.0
230
1.0
 40
1.0
 41
0.0
 42
6.283185307179586
  0
ELLIPSE
  5
117
330
1F
100
AcDbEntity
  8
Layer 1
 62
   250
370
    35
100
AcDbEllipse
 10
-3.3
 20
-26.85
 30
0.0
 11
0.0
 21
0.3
 31
0.0
210
0.0
220
0.0
230
1.0
 40
1.0
 41
0.0
 42
6.283185307179586
  0
ELLIPSE
  5
118
330
1F
100
AcDbEntity
  8
Layer 1
 62
   114
370
    35
100
AcDbEllipse
 10
-3.3
 20
-26.85
 30
0.0
 11
0.0
 21
0.65
 31
0.0
210
0.0
220
0.0
230
1.0
 40
1.0
 41
0.0
 42
6.283185307179586
  0
ELLIPSE
  5
119
330
1F
100
AcDbEntity
  8
Layer 1
 62
   250
370
    35
100
AcDbEllipse
 10
-4.9
 20
-26.85
 30
0.0
 11
0.0
 21
0.3
 31
0.0
210
0.0
220
0.0
230
1.0
 40
1.0
 41
0.0
 42
6.283185307179586
  0
ELLIPSE
  5
11A
330
1F
100
AcDbEntity
  8
Layer 1
 62
   114
370
    35
100
AcDbEllipse
 10
-4.9
 20
-26.85
 30
0.0
 11
0.0
 21
0.65
 31
0.0
210
0.0
220
0.0
230
1.0
 40
1.0
 41
0.0
 42
6.283185307179586
  0
ELLIPSE
  5
11B
330
1F
100
AcDbEntity
  8
Layer 1
 62
   250
370
    35
100
AcDbEllipse
 10
-6.5
 20
-26.85
 30
0.0
 11
0.0
 21
0.3
 31
0.0
210
0.0
220
0.0
230
1.0
 40
1.0
 41
0.0
 42
6.283185307179586
  0
ELLIPSE
  5
11C
330
1F
100
AcDbEntity
  8
Layer 1
 62
   114
370
    35
100
AcDbEllipse
 10
-6.5
 20
-26.85
 30
0.0
 11
0.0
 21
0.65
 31
0.0
210
0.0
220
0.0
230
1.0
 40
1.0
 41
0.0
 42
6.283185307179586
  0
ELLIPSE
  5
11D
330
1F
100
AcDbEntity
  8
Layer 1
 62
   250
370
    35
100
AcDbEllipse
 10
-8.1
 20
-26.85
 30
0.0
 11
0.0
 21
0.3
 31
0.0
210
0.0
220
0.0
230
1.0
 40
1.0
 41
0.0
 42
6.283185307179586
  0
ELLIPSE
  5
11E
330
1F
100
AcDbEntity
  8
Layer 1
 62
   114
370
    35
100
AcDbEllipse
 10
-8.1
 20
-26.85
 30
0.0
 11
0.0
 21
0.65
 31
0.0
210
0.0
220
0.0
230
1.0
 40
1.0
 41
0.0
 42
6.283185307179586
  0
ELLIPSE
  5
11F
330
1F
100
AcDbEntity
  8
Layer 1
 62
   250
370
    35
100
AcDbEllipse
 10
-9.7
 20
-26.85
 30
0.0
 11
0.0
 21
0.3
 31
0.0
210
0.0
220
0.0
230
1.0
 40
1.0
 41
0.0
 42
6.283185307179586
  0
ELLIPSE
  5
120
330
1F
100
AcDbEntity
  8
Layer 1
 62
   114
370
    35
100
AcDbEllipse
 10
-9.7
 20
-26.85
 30
0.0
 11
0.0
 21
0.65
 31
0.0
210
0.0
220
0.0
230
1.0
 40
1.0
 41
0.0
 42
6.283185307179586
  0
ELLIPSE
  5
121
330
1F
100
AcDbEntity
  8
Layer 1
 62
   250
370
    35
100
AcDbEllipse
 10
-11.3
 20
-26.85
 30
0.0
 11
0.0
 21
0.3
 31
0.0
210
0.0
220
0.0
230
1.0
 40
1.0
 41
0.0
 42
6.283185307179586
  0
ELLIPSE
  5
122
330
1F
100
AcDbEntity
  8
Layer 1
 62
   114
370
    35
100
AcDbEllipse
 10
-11.3
 20
-26.85
 30
0.0
 11
0.0
 21
0.65
 31
0.0
210
0.0
220
0.0
230
1.0
 40
1.0
 41
0.0
 42
6.283185307179586
  0
ELLIPSE
  5
123
330
1F
100
AcDbEntity
  8
Layer 1
 62
   250
370
    35
100
AcDbEllipse
 10
-12.9
 20
-26.85
 30
0.0
 11
0.0
 21
0.3
 31
0.0
210
0.0
220
0.0
230
1.0
 40
1.0
 41
0.0
 42
6.283185307179586
  0
ELLIPSE
  5
124
330
1F
100
AcDbEntity
  8
Layer 1
 62
   114
370
    35
100
AcDbEllipse
 10
-12.9
 20
-26.85
 30
0.0
 11
0.0
 21
0.65
 31
0.0
210
0.0
220
0.0
230
1.0
 40
1.0
 41
0.0
 42
6.283185307179586
  0
ELLIPSE
  5
125
330
1F
100
AcDbEntity
  8
Layer 1
 62
   250
370
    35
100
AcDbEllipse
 10
-14.5
 20
-26.85
 30
0.0
 11
0.0
 21
0.3
 31
0.0
210
0.0
220
0.0
230
1.0
 40
1.0
 41
0.0
 42
6.283185307179586
  0
ELLIPSE
  5
126
330
1F
100
AcDbEntity
  8
Layer 1
 62
   114
370
    35
100
AcDbEllipse
 10
-14.5
 20
-26.85
 30
0.0
 11
0.0
 21
0.65
 31
0.0
210
0.0
220
0.0
230
1.0
 40
1.0
 41
0.0
 42
6.283185307179586
  0
ELLIPSE
  5
127
330
1F
100
AcDbEntity
  8
Layer 1
 62
   250
370
    35
100
AcDbEllipse
 10
-16.1
 20
-26.85
 30
0.0
 11
0.0
 21
0.3
 31
0.0
210
0.0
220
0.0
230
1.0
 40
1.0
 41
0.0
 42
6.283185307179586
  0
ELLIPSE
  5
128
330
1F
100
AcDbEntity
  8
Layer 1
 62
   114
370
    35
100
AcDbEllipse
 10
-16.1
 20
-26.85
 30
0.0
 11
0.0
 21
0.65
 31
0.0
210
0.0
220
0.0
230
1.0
 40
1.0
 41
0.0
 42
6.283185307179586
  0
ELLIPSE
  5
129
330
1F
100
AcDbEntity
  8
Layer 1
 62
   250
370
    35
100
AcDbEllipse
 10
-17.7
 20
-26.85
 30
0.0
 11
0.0
 21
0.3
 31
0.0
210
0.0
220
0.0
230
1.0
 40
1.0
 41
0.0
 42
6.283185307179586
  0
ELLIPSE
  5
12A
330
1F
100
AcDbEntity
  8
Layer 1
 62
   114
370
    35
100
AcDbEllipse
 10
-17.7
 20
-26.85
 30
0.0
 11
0.0
 21
0.65
 31
0.0
210
0.0
220
0.0
230
1.0
 40
1.0
 41
0.0
 42
6.283185307179586
  0
ELLIPSE
  5
12B
330
1F
100
AcDbEntity
  8
Layer 1
 62
   250
370
    35
100
AcDbEllipse
 10
-19.3
 20
-26.85
 30
0.0
 11
0.0
 21
0.3
 31
0.0
210
0.0
220
0.0
230
1.0
 40
1.0
 41
0.0
 42
6.283185307179586
  0
ELLIPSE
  5
12C
330
1F
100
AcDbEntity
  8
Layer 1
 62
   114
370
    35
100
AcDbEllipse
 10
-19.3
 20
-26.85
 30
0.0
 11
0.0
 21
0.65
 31
0.0
210
0.0
220
0.0
230
1.0
 40
1.0
 41
0.0
 42
6.283185307179586
  0
ELLIPSE
  5
12D
330
1F
100
AcDbEntity
  8
Layer 1
 62
   250
370
    35
100
AcDbEllipse
 10
-1.7
 20
-23.65
 30
0.0
 11
0.0
 21
0.3
 31
0.0
210
0.0
220
0.0
230
1.0
 40
1.0
 41
0.0
 42
6.283185307179586
  0
ELLIPSE
  5
12E
330
1F
100
AcDbEntity
  8
Layer 1
 62
   114
370
    35
100
AcDbEllipse
 10
-1.7
 20
-23.65
 30
0.0
 11
0.0
 21
0.65
 31
0.0
210
0.0
220
0.0
230
1.0
 40
1.0
 41
0.0
 42
6.283185307179586
  0
ELLIPSE
  5
12F
330
1F
100
AcDbEntity
  8
Layer 1
 62
   250
370
    35
100
AcDbEllipse
 10
-3.3
 20
-23.65
 30
0.0
 11
0.0
 21
0.3
 31
0.0
210
0.0
220
0.0
230
1.0
 40
1.0
 41
0.0
 42
6.283185307179586
  0
ELLIPSE
  5
130
330
1F
100
AcDbEntity
  8
Layer 1
 62
   114
370
    35
100
AcDbEllipse
 10
-3.3
 20
-23.65
 30
0.0
 11
0.0
 21
0.65
 31
0.0
210
0.0
220
0.0
230
1.0
 40
1.0
 41
0.0
 42
6.283185307179586
  0
ELLIPSE
  5
131
330
1F
100
AcDbEntity
  8
Layer 1
 62
   250
370
    35
100
AcDbEllipse
 10
-4.9
 20
-23.65
 30
0.0
 11
0.0
 21
0.3
 31
0.0
210
0.0
220
0.0
230
1.0
 40
1.0
 41
0.0
 42
6.283185307179586
  0
ELLIPSE
  5
132
330
1F
100
AcDbEntity
  8
Layer 1
 62
   114
370
    35
100
AcDbEllipse
 10
-4.9
 20
-23.65
 30
0.0
 11
0.0
 21
0.65
 31
0.0
210
0.0
220
0.0
230
1.0
 40
1.0
 41
0.0
 42
6.283185307179586
  0
ELLIPSE
  5
133
330
1F
100
AcDbEntity
  8
Layer 1
 62
   250
370
    35
100
AcDbEllipse
 10
-6.5
 20
-23.65
 30
0.0
 11
0.0
 21
0.3
 31
0.0
210
0.0
220
0.0
230
1.0
 40
1.0
 41
0.0
 42
6.283185307179586
  0
ELLIPSE
  5
134
330
1F
100
AcDbEntity
  8
Layer 1
 62
   114
370
    35
100
AcDbEllipse
 10
-6.5
 20
-23.65
 30
0.0
 11
0.0
 21
0.65
 31
0.0
210
0.0
220
0.0
230
1.0
 40
1.0
 41
0.0
 42
6.283185307179586
  0
ELLIPSE
  5
135
330
1F
100
AcDbEntity
  8
Layer 1
 62
   250
370
    35
100
AcDbEllipse
 10
-8.1
 20
-23.65
 30
0.0
 11
0.0
 21
0.3
 31
0.0
210
0.0
220
0.0
230
1.0
 40
1.0
 41
0.0
 42
6.283185307179586
  0
ELLIPSE
  5
136
330
1F
100
AcDbEntity
  8
Layer 1
 62
   114
370
    35
100
AcDbEllipse
 10
-8.1
 20
-23.65
 30
0.0
 11
0.0
 21
0.65
 31
0.0
210
0.0
220
0.0
230
1.0
 40
1.0
 41
0.0
 42
6.283185307179586
  0
ELLIPSE
  5
137
330
1F
100
AcDbEntity
  8
Layer 1
 62
   250
370
    35
100
AcDbEllipse
 10
-9.7
 20
-23.65
 30
0.0
 11
0.0
 21
0.3
 31
0.0
210
0.0
220
0.0
230
1.0
 40
1.0
 41
0.0
 42
6.283185307179586
  0
ELLIPSE
  5
138
330
1F
100
AcDbEntity
  8
Layer 1
 62
   114
370
    35
100
AcDbEllipse
 10
-9.7
 20
-23.65
 30
0.0
 11
0.0
 21
0.65
 31
0.0
210
0.0
220
0.0
230
1.0
 40
1.0
 41
0.0
 42
6.283185307179586
  0
ELLIPSE
  5
139
330
1F
100
AcDbEntity
  8
Layer 1
 62
   250
370
    35
100
AcDbEllipse
 10
-11.3
 20
-23.65
 30
0.0
 11
0.0
 21
0.3
 31
0.0
210
0.0
220
0.0
230
1.0
 40
1.0
 41
0.0
 42
6.283185307179586
  0
ELLIPSE
  5
13A
330
1F
100
AcDbEntity
  8
Layer 1
 62
   114
370
    35
100
AcDbEllipse
 10
-11.3
 20
-23.65
 30
0.0
 11
0.0
 21
0.65
 31
0.0
210
0.0
220
0.0
230
1.0
 40
1.0
 41
0.0
 42
6.283185307179586
  0
ELLIPSE
  5
13B
330
1F
100
AcDbEntity
  8
Layer 1
 62
   250
370
    35
100
AcDbEllipse
 10
-12.9
 20
-23.65
 30
0.0
 11
0.0
 21
0.3
 31
0.0
210
0.0
220
0.0
230
1.0
 40
1.0
 41
0.0
 42
6.283185307179586
  0
ELLIPSE
  5
13C
330
1F
100
AcDbEntity
  8
Layer 1
 62
   114
370
    35
100
AcDbEllipse
 10
-12.9
 20
-23.65
 30
0.0
 11
0.0
 21
0.65
 31
0.0
210
0.0
220
0.0
230
1.0
 40
1.0
 41
0.0
 42
6.283185307179586
  0
ELLIPSE
  5
13D
330
1F
100
AcDbEntity
  8
Layer 1
 62
   250
370
    35
100
AcDbEllipse
 10
-14.5
 20
-23.65
 30
0.0
 11
0.0
 21
0.3
 31
0.0
210
0.0
220
0.0
230
1.0
 40
1.0
 41
0.0
 42
6.283185307179586
  0
ELLIPSE
  5
13E
330
1F
100
AcDbEntity
  8
Layer 1
 62
   114
370
    35
100
AcDbEllipse
 10
-14.5
 20
-23.65
 30
0.0
 11
0.0
 21
0.65
 31
0.0
210
0.0
220
0.0
230
1.0
 40
1.0
 41
0.0
 42
6.283185307179586
  0
ELLIPSE
  5
13F
330
1F
100
AcDbEntity
  8
Layer 1
 62
   250
370
    35
100
AcDbEllipse
 10
-16.1
 20
-23.65
 30
0.0
 11
0.0
 21
0.3
 31
0.0
210
0.0
220
0.0
230
1.0
 40
1.0
 41
0.0
 42
6.283185307179586
  0
ELLIPSE
  5
140
330
1F
100
AcDbEntity
  8
Layer 1
 62
   114
370
    35
100
AcDbEllipse
 10
-16.1
 20
-23.65
 30
0.0
 11
0.0
 21
0.65
 31
0.0
210
0.0
220
0.0
230
1.0
 40
1.0
 41
0.0
 42
6.283185307179586
  0
ELLIPSE
  5
141
330
1F
100
AcDbEntity
  8
Layer 1
 62
   250
370
    35
100
AcDbEllipse
 10
-17.7
 20
-23.65
 30
0.0
 11
0.0
 21
0.3
 31
0.0
210
0.0
220
0.0
230
1.0
 40
1.0
 41
0.0
 42
6.283185307179586
  0
ELLIPSE
  5
142
330
1F
100
AcDbEntity
  8
Layer 1
 62
   114
370
    35
100
AcDbEllipse
 10
-17.7
 20
-23.65
 30
0.0
 11
0.0
 21
0.65
 31
0.0
210
0.0
220
0.0
230
1.0
 40
1.0
 41
0.0
 42
6.283185307179586
  0
ELLIPSE
  5
143
330
1F
100
AcDbEntity
  8
Layer 1
 62
   250
370
    35
100
AcDbEllipse
 10
-19.3
 20
-23.65
 30
0.0
 11
0.0
 21
0.3
 31
0.0
210
0.0
220
0.0
230
1.0
 40
1.0
 41
0.0
 42
6.283185307179586
  0
ELLIPSE
  5
144
330
1F
100
AcDbEntity
  8
Layer 1
 62
   114
370
    35
100
AcDbEllipse
 10
-19.3
 20
-23.65
 30
0.0
 11
0.0
 21
0.65
 31
0.0
210
0.0
220
0.0
230
1.0
 40
1.0
 41
0.0
 42
6.283185307179586
  0
ELLIPSE
  5
145
330
1F
100
AcDbEntity
  8
Layer 1
 62
   250
370
    35
100
AcDbEllipse
 10
-1.7
 20
-22.05
 30
0.0
 11
0.0
 21
0.3
 31
0.0
210
0.0
220
0.0
230
1.0
 40
1.0
 41
0.0
 42
6.283185307179586
  0
ELLIPSE
  5
146
330
1F
100
AcDbEntity
  8
Layer 1
 62
   114
370
    35
100
AcDbEllipse
 10
-1.7
 20
-22.05
 30
0.0
 11
0.0
 21
0.65
 31
0.0
210
0.0
220
0.0
230
1.0
 40
1.0
 41
0.0
 42
6.283185307179586
  0
ELLIPSE
  5
147
330
1F
100
AcDbEntity
  8
Layer 1
 62
   250
370
    35
100
AcDbEllipse
 10
-3.3
 20
-22.05
 30
0.0
 11
0.0
 21
0.3
 31
0.0
210
0.0
220
0.0
230
1.0
 40
1.0
 41
0.0
 42
6.283185307179586
  0
ELLIPSE
  5
148
330
1F
100
AcDbEntity
  8
Layer 1
 62
   114
370
    35
100
AcDbEllipse
 10
-3.3
 20
-22.05
 30
0.0
 11
0.0
 21
0.65
 31
0.0
210
0.0
220
0.0
230
1.0
 40
1.0
 41
0.0
 42
6.283185307179586
  0
ELLIPSE
  5
149
330
1F
100
AcDbEntity
  8
Layer 1
 62
   250
370
    35
100
AcDbEllipse
 10
-4.9
 20
-22.05
 30
0.0
 11
0.0
 21
0.3
 31
0.0
210
0.0
220
0.0
230
1.0
 40
1.0
 41
0.0
 42
6.283185307179586
  0
ELLIPSE
  5
14A
330
1F
100
AcDbEntity
  8
Layer 1
 62
   114
370
    35
100
AcDbEllipse
 10
-4.9
 20
-22.05
 30
0.0
 11
0.0
 21
0.65
 31
0.0
210
0.0
220
0.0
230
1.0
 40
1.0
 41
0.0
 42
6.283185307179586
  0
ELLIPSE
  5
14B
330
1F
100
AcDbEntity
  8
Layer 1
 62
   250
370
    35
100
AcDbEllipse
 10
-6.5
 20
-22.05
 30
0.0
 11
0.0
 21
0.3
 31
0.0
210
0.0
220
0.0
230
1.0
 40
1.0
 41
0.0
 42
6.283185307179586
  0
ELLIPSE
  5
14C
330
1F
100
AcDbEntity
  8
Layer 1
 62
   114
370
    35
100
AcDbEllipse
 10
-6.5
 20
-22.05
 30
0.0
 11
0.0
 21
0.65
 31
0.0
210
0.0
220
0.0
230
1.0
 40
1.0
 41
0.0
 42
6.283185307179586
  0
ELLIPSE
  5
14D
330
1F
100
AcDbEntity
  8
Layer 1
 62
   250
370
    35
100
AcDbEllipse
 10
-8.1
 20
-22.05
 30
0.0
 11
0.0
 21
0.3
 31
0.0
210
0.0
220
0.0
230
1.0
 40
1.0
 41
0.0
 42
6.283185307179586
  0
ELLIPSE
  5
14E
330
1F
100
AcDbEntity
  8
Layer 1
 62
   114
370
    35
100
AcDbEllipse
 10
-8.1
 20
-22.05
 30
0.0
 11
0.0
 21
0.65
 31
0.0
210
0.0
220
0.0
230
1.0
 40
1.0
 41
0.0
 42
6.283185307179586
  0
ELLIPSE
  5
14F
330
1F
100
AcDbEntity
  8
Layer 1
 62
   250
370
    35
100
AcDbEllipse
 10
-9.7
 20
-22.05
 30
0.0
 11
0.0
 21
0.3
 31
0.0
210
0.0
220
0.0
230
1.0
 40
1.0
 41
0.0
 42
6.283185307179586
  0
ELLIPSE
  5
150
330
1F
100
AcDbEntity
  8
Layer 1
 62
   114
370
    35
100
AcDbEllipse
 10
-9.7
 20
-22.05
 30
0.0
 11
0.0
 21
0.65
 31
0.0
210
0.0
220
0.0
230
1.0
 40
1.0
 41
0.0
 42
6.283185307179586
  0
ELLIPSE
  5
151
330
1F
100
AcDbEntity
  8
Layer 1
 62
   250
370
    35
100
AcDbEllipse
 10
-11.3
 20
-22.05
 30
0.0
 11
0.0
 21
0.3
 31
0.0
210
0.0
220
0.0
230
1.0
 40
1.0
 41
0.0
 42
6.283185307179586
  0
ELLIPSE
  5
152
330
1F
100
AcDbEntity
  8
Layer 1
 62
   114
370
    35
100
AcDbEllipse
 10
-11.3
 20
-22.05
 30
0.0
 11
0.0
 21
0.65
 31
0.0
210
0.0
220
0.0
230
1.0
 40
1.0
 41
0.0
 42
6.283185307179586
  0
ELLIPSE
  5
153
330
1F
100
AcDbEntity
  8
Layer 1
 62
   250
370
    35
100
AcDbEllipse
 10
-12.9
 20
-22.05
 30
0.0
 11
0.0
 21
0.3
 31
0.0
210
0.0
220
0.0
230
1.0
 40
1.0
 41
0.0
 42
6.283185307179586
  0
ELLIPSE
  5
154
330
1F
100
AcDbEntity
  8
Layer 1
 62
   114
370
    35
100
AcDbEllipse
 10
-12.9
 20
-22.05
 30
0.0
 11
0.0
 21
0.65
 31
0.0
210
0.0
220
0.0
230
1.0
 40
1.0
 41
0.0
 42
6.283185307179586
  0
ELLIPSE
  5
155
330
1F
100
AcDbEntity
  8
Layer 1
 62
   250
370
    35
100
AcDbEllipse
 10
-14.5
 20
-22.05
 30
0.0
 11
0.0
 21
0.3
 31
0.0
210
0.0
220
0.0
230
1.0
 40
1.0
 41
0.0
 42
6.283185307179586
  0
ELLIPSE
  5
156
330
1F
100
AcDbEntity
  8
Layer 1
 62
   114
370
    35
100
AcDbEllipse
 10
-14.5
 20
-22.05
 30
0.0
 11
0.0
 21
0.65
 31
0.0
210
0.0
220
0.0
230
1.0
 40
1.0
 41
0.0
 42
6.283185307179586
  0
ELLIPSE
  5
157
330
1F
100
AcDbEntity
  8
Layer 1
 62
   250
370
    35
100
AcDbEllipse
 10
-16.1
 20
-22.05
 30
0.0
 11
0.0
 21
0.3
 31
0.0
210
0.0
220
0.0
230
1.0
 40
1.0
 41
0.0
 42
6.283185307179586
  0
ELLIPSE
  5
158
330
1F
100
AcDbEntity
  8
Layer 1
 62
   114
370
    35
100
AcDbEllipse
 10
-16.1
 20
-22.05
 30
0.0
 11
0.0
 21
0.65
 31
0.0
210
0.0
220
0.0
230
1.0
 40
1.0
 41
0.0
 42
6.283185307179586
  0
ELLIPSE
  5
159
330
1F
100
AcDbEntity
  8
Layer 1
 62
   250
370
    35
100
AcDbEllipse
 10
-17.7
 20
-22.05
 30
0.0
 11
0.0
 21
0.3
 31
0.0
210
0.0
220
0.0
230
1.0
 40
1.0
 41
0.0
 42
6.283185307179586
  0
ELLIPSE
  5
15A
330
1F
100
AcDbEntity
  8
Layer 1
 62
   114
370
    35
100
AcDbEllipse
 10
-17.7
 20
-22.05
 30
0.0
 11
0.0
 21
0.65
 31
0.0
210
0.0
220
0.0
230
1.0
 40
1.0
 41
0.0
 42
6.283185307179586
  0
ELLIPSE
  5
15B
330
1F
100
AcDbEntity
  8
Layer 1
 62
   250
370
    35
100
AcDbEllipse
 10
-19.3
 20
-22.05
 30
0.0
 11
0.0
 21
0.3
 31
0.0
210
0.0
220
0.0
230
1.0
 40
1.0
 41
0.0
 42
6.283185307179586
  0
ELLIPSE
  5
15C
330
1F
100
AcDbEntity
  8
Layer 1
 62
   114
370
    35
100
AcDbEllipse
 10
-19.3
 20
-22.05
 30
0.0
 11
0.0
 21
0.65
 31
0.0
210
0.0
220
0.0
230
1.0
 40
1.0
 41
0.0
 42
6.283185307179586
  0
ELLIPSE
  5
15D
330
1F
100
AcDbEntity
  8
Layer 1
 62
   250
370
    35
100
AcDbEllipse
 10
-1.7
 20
-20.45
 30
0.0
 11
0.0
 21
0.3
 31
0.0
210
0.0
220
0.0
230
1.0
 40
1.0
 41
0.0
 42
6.283185307179586
  0
ELLIPSE
  5
15E
330
1F
100
AcDbEntity
  8
Layer 1
 62
   114
370
    35
100
AcDbEllipse
 10
-1.7
 20
-20.45
 30
0.0
 11
0.0
 21
0.65
 31
0.0
210
0.0
220
0.0
230
1.0
 40
1.0
 41
0.0
 42
6.283185307179586
  0
ELLIPSE
  5
15F
330
1F
100
AcDbEntity
  8
Layer 1
 62
   250
370
    35
100
AcDbEllipse
 10
-3.3
 20
-20.45
 30
0.0
 11
0.0
 21
0.3
 31
0.0
210
0.0
220
0.0
230
1.0
 40
1.0
 41
0.0
 42
6.283185307179586
  0
ELLIPSE
  5
160
330
1F
100
AcDbEntity
  8
Layer 1
 62
   114
370
    35
100
AcDbEllipse
 10
-3.3
 20
-20.45
 30
0.0
 11
0.0
 21
0.65
 31
0.0
210
0.0
220
0.0
230
1.0
 40
1.0
 41
0.0
 42
6.283185307179586
  0
ELLIPSE
  5
161
330
1F
100
AcDbEntity
  8
Layer 1
 62
   250
370
    35
100
AcDbEllipse
 10
-4.9
 20
-20.45
 30
0.0
 11
0.0
 21
0.3
 31
0.0
210
0.0
220
0.0
230
1.0
 40
1.0
 41
0.0
 42
6.283185307179586
  0
ELLIPSE
  5
162
330
1F
100
AcDbEntity
  8
Layer 1
 62
   114
370
    35
100
AcDbEllipse
 10
-4.9
 20
-20.45
 30
0.0
 11
0.0
 21
0.65
 31
0.0
210
0.0
220
0.0
230
1.0
 40
1.0
 41
0.0
 42
6.283185307179586
  0
ELLIPSE
  5
163
330
1F
100
AcDbEntity
  8
Layer 1
 62
   250
370
    35
100
AcDbEllipse
 10
-6.5
 20
-20.45
 30
0.0
 11
0.0
 21
0.3
 31
0.0
210
0.0
220
0.0
230
1.0
 40
1.0
 41
0.0
 42
6.283185307179586
  0
ELLIPSE
  5
164
330
1F
100
AcDbEntity
  8
Layer 1
 62
   114
370
    35
100
AcDbEllipse
 10
-6.5
 20
-20.45
 30
0.0
 11
0.0
 21
0.65
 31
0.0
210
0.0
220
0.0
230
1.0
 40
1.0
 41
0.0
 42
6.283185307179586
  0
ELLIPSE
  5
165
330
1F
100
AcDbEntity
  8
Layer 1
 62
   250
370
    35
100
AcDbEllipse
 10
-8.1
 20
-20.45
 30
0.0
 11
0.0
 21
0.3
 31
0.0
210
0.0
220
0.0
230
1.0
 40
1.0
 41
0.0
 42
6.283185307179586
  0
ELLIPSE
  5
166
330
1F
100
AcDbEntity
  8
Layer 1
 62
   114
370
    35
100
AcDbEllipse
 10
-8.1
 20
-20.45
 30
0.0
 11
0.0
 21
0.65
 31
0.0
210
0.0
220
0.0
230
1.0
 40
1.0
 41
0.0
 42
6.283185307179586
  0
ELLIPSE
  5
167
330
1F
100
AcDbEntity
  8
Layer 1
 62
   250
370
    35
100
AcDbEllipse
 10
-9.7
 20
-20.45
 30
0.0
 11
0.0
 21
0.3
 31
0.0
210
0.0
220
0.0
230
1.0
 40
1.0
 41
0.0
 42
6.283185307179586
  0
ELLIPSE
  5
168
330
1F
100
AcDbEntity
  8
Layer 1
 62
   114
370
    35
100
AcDbEllipse
 10
-9.7
 20
-20.45
 30
0.0
 11
0.0
 21
0.65
 31
0.0
210
0.0
220
0.0
230
1.0
 40
1.0
 41
0.0
 42
6.283185307179586
  0
ELLIPSE
  5
169
330
1F
100
AcDbEntity
  8
Layer 1
 62
   250
370
    35
100
AcDbEllipse
 10
-11.3
 20
-20.45
 30
0.0
 11
0.0
 21
0.3
 31
0.0
210
0.0
220
0.0
230
1.0
 40
1.0
 41
0.0
 42
6.283185307179586
  0
ELLIPSE
  5
16A
330
1F
100
AcDbEntity
  8
Layer 1
 62
   114
370
    35
100
AcDbEllipse
 10
-11.3
 20
-20.45
 30
0.0
 11
0.0
 21
0.65
 31
0.0
210
0.0
220
0.0
230
1.0
 40
1.0
 41
0.0
 42
6.283185307179586
  0
ELLIPSE
  5
16B
330
1F
100
AcDbEntity
  8
Layer 1
 62
   250
370
    35
100
AcDbEllipse
 10
-12.9
 20
-20.45
 30
0.0
 11
0.0
 21
0.3
 31
0.0
210
0.0
220
0.0
230
1.0
 40
1.0
 41
0.0
 42
6.283185307179586
  0
ELLIPSE
  5
16C
330
1F
100
AcDbEntity
  8
Layer 1
 62
   114
370
    35
100
AcDbEllipse
 10
-12.9
 20
-20.45
 30
0.0
 11
0.0
 21
0.65
 31
0.0
210
0.0
220
0.0
230
1.0
 40
1.0
 41
0.0
 42
6.283185307179586
  0
ELLIPSE
  5
16D
330
1F
100
AcDbEntity
  8
Layer 1
 62
   250
370
    35
100
AcDbEllipse
 10
-14.5
 20
-20.45
 30
0.0
 11
0.0
 21
0.3
 31
0.0
210
0.0
220
0.0
230
1.0
 40
1.0
 41
0.0
 42
6.283185307179586
  0
ELLIPSE
  5
16E
330
1F
100
AcDbEntity
  8
Layer 1
 62
   114
370
    35
100
AcDbEllipse
 10
-14.5
 20
-20.45
 30
0.0
 11
0.0
 21
0.65
 31
0.0
210
0.0
220
0.0
230
1.0
 40
1.0
 41
0.0
 42
6.283185307179586
  0
ELLIPSE
  5
16F
330
1F
100
AcDbEntity
  8
Layer 1
 62
   250
370
    35
100
AcDbEllipse
 10
-16.1
 20
-20.45
 30
0.0
 11
0.0
 21
0.3
 31
0.0
210
0.0
220
0.0
230
1.0
 40
1.0
 41
0.0
 42
6.283185307179586
  0
ELLIPSE
  5
170
330
1F
100
AcDbEntity
  8
Layer 1
 62
   114
370
    35
100
AcDbEllipse
 10
-16.1
 20
-20.45
 30
0.0
 11
0.0
 21
0.65
 31
0.0
210
0.0
220
0.0
230
1.0
 40
1.0
 41
0.0
 42
6.283185307179586
  0
ELLIPSE
  5
171
330
1F
100
AcDbEntity
  8
Layer 1
 62
   250
370
    35
100
AcDbEllipse
 10
-17.7
 20
-20.45
 30
0.0
 11
0.0
 21
0.3
 31
0.0
210
0.0
220
0.0
230
1.0
 40
1.0
 41
0.0
 42
6.283185307179586
  0
ELLIPSE
  5
172
330
1F
100
AcDbEntity
  8
Layer 1
 62
   114
370
    35
100
AcDbEllipse
 10
-17.7
 20
-20.45
 30
0.0
 11
0.0
 21
0.65
 31
0.0
210
0.0
220
0.0
230
1.0
 40
1.0
 41
0.0
 42
6.283185307179586
  0
ELLIPSE
  5
173
330
1F
100
AcDbEntity
  8
Layer 1
 62
   250
370
    35
100
AcDbEllipse
 10
-19.3
 20
-20.45
 30
0.0
 11
0.0
 21
0.3
 31
0.0
210
0.0
220
0.0
230
1.0
 40
1.0
 41
0.0
 42
6.283185307179586
  0
ELLIPSE
  5
174
330
1F
100
AcDbEntity
  8
Layer 1
 62
   114
370
    35
100
AcDbEllipse
 10
-19.3
 20
-20.45
 30
0.0
 11
0.0
 21
0.65
 31
0.0
210
0.0
220
0.0
230
1.0
 40
1.0
 41
0.0
 42
6.283185307179586
  0
ELLIPSE
  5
175
330
1F
100
AcDbEntity
  8
Layer 1
 62
   250
370
    35
100
AcDbEllipse
 10
-1.7
 20
-9.25
 30
0.0
 11
0.0
 21
0.3
 31
0.0
210
0.0
220
0.0
230
1.0
 40
1.0
 41
0.0
 42
6.283185307179586
  0
ELLIPSE
  5
176
330
1F
100
AcDbEntity
  8
Layer 1
 62
   114
370
    35
100
AcDbEllipse
 10
-1.7
 20
-9.25
 30
0.0
 11
0.0
 21
0.65
 31
0.0
210
0.0
220
0.0
230
1.0
 40
1.0
 41
0.0
 42
6.283185307179586
  0
ELLIPSE
  5
177
330
1F
100
AcDbEntity
  8
Layer 1
 62
   250
370
    35
100
AcDbEllipse
 10
-3.3
 20
-9.25
 30
0.0
 11
0.0
 21
0.3
 31
0.0
210
0.0
220
0.0
230
1.0
 40
1.0
 41
0.0
 42
6.283185307179586
  0
ELLIPSE
  5
178
330
1F
100
AcDbEntity
  8
Layer 1
 62
   114
370
    35
100
AcDbEllipse
 10
-3.3
 20
-9.25
 30
0.0
 11
0.0
 21
0.65
 31
0.0
210
0.0
220
0.0
230
1.0
 40
1.0
 41
0.0
 42
6.283185307179586
  0
ELLIPSE
  5
179
330
1F
100
AcDbEntity
  8
Layer 1
 62
   250
370
    35
100
AcDbEllipse
 10
-4.9
 20
-9.25
 30
0.0
 11
0.0
 21
0.3
 31
0.0
210
0.0
220
0.0
230
1.0
 40
1.0
 41
0.0
 42
6.283185307179586
  0
ELLIPSE
  5
17A
330
1F
100
AcDbEntity
  8
Layer 1
 62
   114
370
    35
100
AcDbEllipse
 10
-4.9
 20
-9.25
 30
0.0
 11
0.0
 21
0.65
 31
0.0
210
0.0
220
0.0
230
1.0
 40
1.0
 41
0.0
 42
6.283185307179586
  0
ELLIPSE
  5
17B
330
1F
100
AcDbEntity
  8
Layer 1
 62
   250
370
    35
100
AcDbEllipse
 10
-6.5
 20
-9.25
 30
0.0
 11
0.0
 21
0.3
 31
0.0
210
0.0
220
0.0
230
1.0
 40
1.0
 41
0.0
 42
6.283185307179586
  0
ELLIPSE
  5
17C
330
1F
100
AcDbEntity
  8
Layer 1
 62
   114
370
    35
100
AcDbEllipse
 10
-6.5
 20
-9.25
 30
0.0
 11
0.0
 21
0.65
 31
0.0
210
0.0
220
0.0
230
1.0
 40
1.0
 41
0.0
 42
6.283185307179586
  0
ELLIPSE
  5
17D
330
1F
100
AcDbEntity
  8
Layer 1
 62
   250
370
    35
100
AcDbEllipse
 10
-8.1
 20
-9.25
 30
0.0
 11
0.0
 21
0.3
 31
0.0
210
0.0
220
0.0
230
1.0
 40
1.0
 41
0.0
 42
6.283185307179586
  0
ELLIPSE
  5
17E
330
1F
100
AcDbEntity
  8
Layer 1
 62
   114
370
    35
100
AcDbEllipse
 10
-8.1
 20
-9.25
 30
0.0
 11
0.0
 21
0.65
 31
0.0
210
0.0
220
0.0
230
1.0
 40
1.0
 41
0.0
 42
6.283185307179586
  0
ELLIPSE
  5
17F
330
1F
100
AcDbEntity
  8
Layer 1
 62
   250
370
    35
100
AcDbEllipse
 10
-9.7
 20
-9.25
 30
0.0
 11
0.0
 21
0.3
 31
0.0
210
0.0
220
0.0
230
1.0
 40
1.0
 41
0.0
 42
6.283185307179586
  0
ELLIPSE
  5
180
330
1F
100
AcDbEntity
  8
Layer 1
 62
   114
370
    35
100
AcDbEllipse
 10
-9.7
 20
-9.25
 30
0.0
 11
0.0
 21
0.65
 31
0.0
210
0.0
220
0.0
230
1.0
 40
1.0
 41
0.0
 42
6.283185307179586
  0
ELLIPSE
  5
181
330
1F
100
AcDbEntity
  8
Layer 1
 62
   250
370
    35
100
AcDbEllipse
 10
-11.3
 20
-9.25
 30
0.0
 11
0.0
 21
0.3
 31
0.0
210
0.0
220
0.0
230
1.0
 40
1.0
 41
0.0
 42
6.283185307179586
  0
ELLIPSE
  5
182
330
1F
100
AcDbEntity
  8
Layer 1
 62
   114
370
    35
100
AcDbEllipse
 10
-11.3
 20
-9.25
 30
0.0
 11
0.0
 21
0.65
 31
0.0
210
0.0
220
0.0
230
1.0
 40
1.0
 41
0.0
 42
6.283185307179586
  0
ELLIPSE
  5
183
330
1F
100
AcDbEntity
  8
Layer 1
 62
   250
370
    35
100
AcDbEllipse
 10
-12.9
 20
-9.25
 30
0.0
 11
0.0
 21
0.3
 31
0.0
210
0.0
220
0.0
230
1.0
 40
1.0
 41
0.0
 42
6.283185307179586
  0
ELLIPSE
  5
184
330
1F
100
AcDbEntity
  8
Layer 1
 62
   114
370
    35
100
AcDbEllipse
 10
-12.9
 20
-9.25
 30
0.0
 11
0.0
 21
0.65
 31
0.0
210
0.0
220
0.0
230
1.0
 40
1.0
 41
0.0
 42
6.283185307179586
  0
ELLIPSE
  5
185
330
1F
100
AcDbEntity
  8
Layer 1
 62
   250
370
    35
100
AcDbEllipse
 10
-14.5
 20
-9.25
 30
0.0
 11
0.0
 21
0.3
 31
0.0
210
0.0
220
0.0
230
1.0
 40
1.0
 41
0.0
 42
6.283185307179586
  0
ELLIPSE
  5
186
330
1F
100
AcDbEntity
  8
Layer 1
 62
   114
370
    35
100
AcDbEllipse
 10
-14.5
 20
-9.25
 30
0.0
 11
0.0
 21
0.65
 31
0.0
210
0.0
220
0.0
230
1.0
 40
1.0
 41
0.0
 42
6.283185307179586
  0
ELLIPSE
  5
187
330
1F
100
AcDbEntity
  8
Layer 1
 62
   250
370
    35
100
AcDbEllipse
 10
-16.1
 20
-9.25
 30
0.0
 11
0.0
 21
0.3
 31
0.0
210
0.0
220
0.0
230
1.0
 40
1.0
 41
0.0
 42
6.283185307179586
  0
ELLIPSE
  5
188
330
1F
100
AcDbEntity
  8
Layer 1
 62
   114
370
    35
100
AcDbEllipse
 10
-16.1
 20
-9.25
 30
0.0
 11
0.0
 21
0.65
 31
0.0
210
0.0
220
0.0
230
1.0
 40
1.0
 41
0.0
 42
6.283185307179586
  0
ELLIPSE
  5
189
330
1F
100
AcDbEntity
  8
Layer 1
 62
   250
370
    35
100
AcDbEllipse
 10
-17.7
 20
-9.25
 30
0.0
 11
0.0
 21
0.3
 31
0.0
210
0.0
220
0.0
230
1.0
 40
1.0
 41
0.0
 42
6.283185307179586
  0
ELLIPSE
  5
18A
330
1F
100
AcDbEntity
  8
Layer 1
 62
   114
370
    35
100
AcDbEllipse
 10
-17.7
 20
-9.25
 30
0.0
 11
0.0
 21
0.65
 31
0.0
210
0.0
220
0.0
230
1.0
 40
1.0
 41
0.0
 42
6.283185307179586
  0
ELLIPSE
  5
18B
330
1F
100
AcDbEntity
  8
Layer 1
 62
   250
370
    35
100
AcDbEllipse
 10
-19.3
 20
-9.25
 30
0.0
 11
0.0
 21
0.3
 31
0.0
210
0.0
220
0.0
230
1.0
 40
1.0
 41
0.0
 42
6.283185307179586
  0
ELLIPSE
  5
18C
330
1F
100
AcDbEntity
  8
Layer 1
 62
   114
370
    35
100
AcDbEllipse
 10
-19.3
 20
-9.25
 30
0.0
 11
0.0
 21
0.65
 31
0.0
210
0.0
220
0.0
230
1.0
 40
1.0
 41
0.0
 42
6.283185307179586
  0
ELLIPSE
  5
18D
330
1F
100
AcDbEntity
  8
Layer 1
 62
   250
370
    35
100
AcDbEllipse
 10
-1.7
 20
-10.85
 30
0.0
 11
0.0
 21
0.3
 31
0.0
210
0.0
220
0.0
230
1.0
 40
1.0
 41
0.0
 42
6.283185307179586
  0
ELLIPSE
  5
18E
330
1F
100
AcDbEntity
  8
Layer 1
 62
   114
370
    35
100
AcDbEllipse
 10
-1.7
 20
-10.85
 30
0.0
 11
0.0
 21
0.65
 31
0.0
210
0.0
220
0.0
230
1.0
 40
1.0
 41
0.0
 42
6.283185307179586
  0
ELLIPSE
  5
18F
330
1F
100
AcDbEntity
  8
Layer 1
 62
   250
370
    35
100
AcDbEllipse
 10
-3.3
 20
-10.85
 30
0.0
 11
0.0
 21
0.3
 31
0.0
210
0.0
220
0.0
230
1.0
 40
1.0
 41
0.0
 42
6.283185307179586
  0
ELLIPSE
  5
190
330
1F
100
AcDbEntity
  8
Layer 1
 62
   114
370
    35
100
AcDbEllipse
 10
-3.3
 20
-10.85
 30
0.0
 11
0.0
 21
0.65
 31
0.0
210
0.0
220
0.0
230
1.0
 40
1.0
 41
0.0
 42
6.283185307179586
  0
ELLIPSE
  5
191
330
1F
100
AcDbEntity
  8
Layer 1
 62
   250
370
    35
100
AcDbEllipse
 10
-4.9
 20
-10.85
 30
0.0
 11
0.0
 21
0.3
 31
0.0
210
0.0
220
0.0
230
1.0
 40
1.0
 41
0.0
 42
6.283185307179586
  0
ELLIPSE
  5
192
330
1F
100
AcDbEntity
  8
Layer 1
 62
   114
370
    35
100
AcDbEllipse
 10
-4.9
 20
-10.85
 30
0.0
 11
0.0
 21
0.65
 31
0.0
210
0.0
220
0.0
230
1.0
 40
1.0
 41
0.0
 42
6.283185307179586
  0
ELLIPSE
  5
193
330
1F
100
AcDbEntity
  8
Layer 1
 62
   250
370
    35
100
AcDbEllipse
 10
-6.5
 20
-10.85
 30
0.0
 11
0.0
 21
0.3
 31
0.0
210
0.0
220
0.0
230
1.0
 40
1.0
 41
0.0
 42
6.283185307179586
  0
ELLIPSE
  5
194
330
1F
100
AcDbEntity
  8
Layer 1
 62
   114
370
    35
100
AcDbEllipse
 10
-6.5
 20
-10.85
 30
0.0
 11
0.0
 21
0.65
 31
0.0
210
0.0
220
0.0
230
1.0
 40
1.0
 41
0.0
 42
6.283185307179586
  0
ELLIPSE
  5
195
330
1F
100
AcDbEntity
  8
Layer 1
 62
   250
370
    35
100
AcDbEllipse
 10
-8.1
 20
-10.85
 30
0.0
 11
0.0
 21
0.3
 31
0.0
210
0.0
220
0.0
230
1.0
 40
1.0
 41
0.0
 42
6.283185307179586
  0
ELLIPSE
  5
196
330
1F
100
AcDbEntity
  8
Layer 1
 62
   114
370
    35
100
AcDbEllipse
 10
-8.1
 20
-10.85
 30
0.0
 11
0.0
 21
0.65
 31
0.0
210
0.0
220
0.0
230
1.0
 40
1.0
 41
0.0
 42
6.283185307179586
  0
ELLIPSE
  5
197
330
1F
100
AcDbEntity
  8
Layer 1
 62
   250
370
    35
100
AcDbEllipse
 10
-9.7
 20
-10.85
 30
0.0
 11
0.0
 21
0.3
 31
0.0
210
0.0
220
0.0
230
1.0
 40
1.0
 41
0.0
 42
6.283185307179586
  0
ELLIPSE
  5
198
330
1F
100
AcDbEntity
  8
Layer 1
 62
   114
370
    35
100
AcDbEllipse
 10
-9.7
 20
-10.85
 30
0.0
 11
0.0
 21
0.65
 31
0.0
210
0.0
220
0.0
230
1.0
 40
1.0
 41
0.0
 42
6.283185307179586
  0
ELLIPSE
  5
199
330
1F
100
AcDbEntity
  8
Layer 1
 62
   250
370
    35
100
AcDbEllipse
 10
-11.3
 20
-10.85
 30
0.0
 11
0.0
 21
0.3
 31
0.0
210
0.0
220
0.0
230
1.0
 40
1.0
 41
0.0
 42
6.283185307179586
  0
ELLIPSE
  5
19A
330
1F
100
AcDbEntity
  8
Layer 1
 62
   114
370
    35
100
AcDbEllipse
 10
-11.3
 20
-10.85
 30
0.0
 11
0.0
 21
0.65
 31
0.0
210
0.0
220
0.0
230
1.0
 40
1.0
 41
0.0
 42
6.283185307179586
  0
ELLIPSE
  5
19B
330
1F
100
AcDbEntity
  8
Layer 1
 62
   250
370
    35
100
AcDbEllipse
 10
-12.9
 20
-10.85
 30
0.0
 11
0.0
 21
0.3
 31
0.0
210
0.0
220
0.0
230
1.0
 40
1.0
 41
0.0
 42
6.283185307179586
  0
ELLIPSE
  5
19C
330
1F
100
AcDbEntity
  8
Layer 1
 62
   114
370
    35
100
AcDbEllipse
 10
-12.9
 20
-10.85
 30
0.0
 11
0.0
 21
0.65
 31
0.0
210
0.0
220
0.0
230
1.0
 40
1.0
 41
0.0
 42
6.283185307179586
  0
ELLIPSE
  5
19D
330
1F
100
AcDbEntity
  8
Layer 1
 62
   250
370
    35
100
AcDbEllipse
 10
-14.5
 20
-10.85
 30
0.0
 11
0.0
 21
0.3
 31
0.0
210
0.0
220
0.0
230
1.0
 40
1.0
 41
0.0
 42
6.283185307179586
  0
ELLIPSE
  5
19E
330
1F
100
AcDbEntity
  8
Layer 1
 62
   114
370
    35
100
AcDbEllipse
 10
-14.5
 20
-10.85
 30
0.0
 11
0.0
 21
0.65
 31
0.0
210
0.0
220
0.0
230
1.0
 40
1.0
 41
0.0
 42
6.283185307179586
  0
ELLIPSE
  5
19F
330
1F
100
AcDbEntity
  8
Layer 1
 62
   250
370
    35
100
AcDbEllipse
 10
-16.1
 20
-10.85
 30
0.0
 11
0.0
 21
0.3
 31
0.0
210
0.0
220
0.0
230
1.0
 40
1.0
 41
0.0
 42
6.283185307179586
  0
ELLIPSE
  5
1A0
330
1F
100
AcDbEntity
  8
Layer 1
 62
   114
370
    35
100
AcDbEllipse
 10
-16.1
 20
-10.85
 30
0.0
 11
0.0
 21
0.65
 31
0.0
210
0.0
220
0.0
230
1.0
 40
1.0
 41
0.0
 42
6.283185307179586
  0
ELLIPSE
  5
1A1
330
1F
100
AcDbEntity
  8
Layer 1
 62
   250
370
    35
100
AcDbEllipse
 10
-17.7
 20
-10.85
 30
0.0
 11
0.0
 21
0.3
 31
0.0
210
0.0
220
0.0
230
1.0
 40
1.0
 41
0.0
 42
6.283185307179586
  0
ELLIPSE
  5
1A2
330
1F
100
AcDbEntity
  8
Layer 1
 62
   114
370
    35
100
AcDbEllipse
 10
-17.7
 20
-10.85
 30
0.0
 11
0.0
 21
0.65
 31
0.0
210
0.0
220
0.0
230
1.0
 40
1.0
 41
0.0
 42
6.283185307179586
  0
ELLIPSE
  5
1A3
330
1F
100
AcDbEntity
  8
Layer 1
 62
   250
370
    35
100
AcDbEllipse
 10
-19.3
 20
-10.85
 30
0.0
 11
0.0
 21
0.3
 31
0.0
210
0.0
220
0.0
230
1.0
 40
1.0
 41
0.0
 42
6.283185307179586
  0
ELLIPSE
  5
1A4
330
1F
100
AcDbEntity
  8
Layer 1
 62
   114
370
    35
100
AcDbEllipse
 10
-19.3
 20
-10.85
 30
0.0
 11
0.0
 21
0.65
 31
0.0
210
0.0
220
0.0
230
1.0
 40
1.0
 41
0.0
 42
6.283185307179586
  0
ELLIPSE
  5
1A5
330
1F
100
AcDbEntity
  8
Layer 1
 62
   250
370
    35
100
AcDbEllipse
 10
-1.7
 20
-7.65
 30
0.0
 11
0.0
 21
0.3
 31
0.0
210
0.0
220
0.0
230
1.0
 40
1.0
 41
0.0
 42
6.283185307179586
  0
ELLIPSE
  5
1A6
330
1F
100
AcDbEntity
  8
Layer 1
 62
   114
370
    35
100
AcDbEllipse
 10
-1.7
 20
-7.65
 30
0.0
 11
0.0
 21
0.65
 31
0.0
210
0.0
220
0.0
230
1.0
 40
1.0
 41
0.0
 42
6.283185307179586
  0
ELLIPSE
  5
1A7
330
1F
100
AcDbEntity
  8
Layer 1
 62
   250
370
    35
100
AcDbEllipse
 10
-3.3
 20
-7.65
 30
0.0
 11
0.0
 21
0.3
 31
0.0
210
0.0
220
0.0
230
1.0
 40
1.0
 41
0.0
 42
6.283185307179586
  0
ELLIPSE
  5
1A8
330
1F
100
AcDbEntity
  8
Layer 1
 62
   114
370
    35
100
AcDbEllipse
 10
-3.3
 20
-7.65
 30
0.0
 11
0.0
 21
0.65
 31
0.0
210
0.0
220
0.0
230
1.0
 40
1.0
 41
0.0
 42
6.283185307179586
  0
ELLIPSE
  5
1A9
330
1F
100
AcDbEntity
  8
Layer 1
 62
   250
370
    35
100
AcDbEllipse
 10
-4.9
 20
-7.65
 30
0.0
 11
0.0
 21
0.3
 31
0.0
210
0.0
220
0.0
230
1.0
 40
1.0
 41
0.0
 42
6.283185307179586
  0
ELLIPSE
  5
1AA
330
1F
100
AcDbEntity
  8
Layer 1
 62
   114
370
    35
100
AcDbEllipse
 10
-4.9
 20
-7.65
 30
0.0
 11
0.0
 21
0.65
 31
0.0
210
0.0
220
0.0
230
1.0
 40
1.0
 41
0.0
 42
6.283185307179586
  0
ELLIPSE
  5
1AB
330
1F
100
AcDbEntity
  8
Layer 1
 62
   250
370
    35
100
AcDbEllipse
 10
-6.5
 20
-7.65
 30
0.0
 11
0.0
 21
0.3
 31
0.0
210
0.0
220
0.0
230
1.0
 40
1.0
 41
0.0
 42
6.283185307179586
  0
ELLIPSE
  5
1AC
330
1F
100
AcDbEntity
  8
Layer 1
 62
   114
370
    35
100
AcDbEllipse
 10
-6.5
 20
-7.65
 30
0.0
 11
0.0
 21
0.65
 31
0.0
210
0.0
220
0.0
230
1.0
 40
1.0
 41
0.0
 42
6.283185307179586
  0
ELLIPSE
  5
1AD
330
1F
100
AcDbEntity
  8
Layer 1
 62
   250
370
    35
100
AcDbEllipse
 10
-8.1
 20
-7.65
 30
0.0
 11
0.0
 21
0.3
 31
0.0
210
0.0
220
0.0
230
1.0
 40
1.0
 41
0.0
 42
6.283185307179586
  0
ELLIPSE
  5
1AE
330
1F
100
AcDbEntity
  8
Layer 1
 62
   114
370
    35
100
AcDbEllipse
 10
-8.1
 20
-7.65
 30
0.0
 11
0.0
 21
0.65
 31
0.0
210
0.0
220
0.0
230
1.0
 40
1.0
 41
0.0
 42
6.283185307179586
  0
ELLIPSE
  5
1AF
330
1F
100
AcDbEntity
  8
Layer 1
 62
   250
370
    35
100
AcDbEllipse
 10
-9.7
 20
-7.65
 30
0.0
 11
0.0
 21
0.3
 31
0.0
210
0.0
220
0.0
230
1.0
 40
1.0
 41
0.0
 42
6.283185307179586
  0
ELLIPSE
  5
1B0
330
1F
100
AcDbEntity
  8
Layer 1
 62
   114
370
    35
100
AcDbEllipse
 10
-9.7
 20
-7.65
 30
0.0
 11
0.0
 21
0.65
 31
0.0
210
0.0
220
0.0
230
1.0
 40
1.0
 41
0.0
 42
6.283185307179586
  0
ELLIPSE
  5
1B1
330
1F
100
AcDbEntity
  8
Layer 1
 62
   250
370
    35
100
AcDbEllipse
 10
-11.3
 20
-7.65
 30
0.0
 11
0.0
 21
0.3
 31
0.0
210
0.0
220
0.0
230
1.0
 40
1.0
 41
0.0
 42
6.283185307179586
  0
ELLIPSE
  5
1B2
330
1F
100
AcDbEntity
  8
Layer 1
 62
   114
370
    35
100
AcDbEllipse
 10
-11.3
 20
-7.65
 30
0.0
 11
0.0
 21
0.65
 31
0.0
210
0.0
220
0.0
230
1.0
 40
1.0
 41
0.0
 42
6.283185307179586
  0
ELLIPSE
  5
1B3
330
1F
100
AcDbEntity
  8
Layer 1
 62
   250
370
    35
100
AcDbEllipse
 10
-12.9
 20
-7.65
 30
0.0
 11
0.0
 21
0.3
 31
0.0
210
0.0
220
0.0
230
1.0
 40
1.0
 41
0.0
 42
6.283185307179586
  0
ELLIPSE
  5
1B4
330
1F
100
AcDbEntity
  8
Layer 1
 62
   114
370
    35
100
AcDbEllipse
 10
-12.9
 20
-7.65
 30
0.0
 11
0.0
 21
0.65
 31
0.0
210
0.0
220
0.0
230
1.0
 40
1.0
 41
0.0
 42
6.283185307179586
  0
ELLIPSE
  5
1B5
330
1F
100
AcDbEntity
  8
Layer 1
 62
   250
370
    35
100
AcDbEllipse
 10
-14.5
 20
-7.65
 30
0.0
 11
0.0
 21
0.3
 31
0.0
210
0.0
220
0.0
230
1.0
 40
1.0
 41
0.0
 42
6.283185307179586
  0
ELLIPSE
  5
1B6
330
1F
100
AcDbEntity
  8
Layer 1
 62
   114
370
    35
100
AcDbEllipse
 10
-14.5
 20
-7.65
 30
0.0
 11
0.0
 21
0.65
 31
0.0
210
0.0
220
0.0
230
1.0
 40
1.0
 41
0.0
 42
6.283185307179586
  0
ELLIPSE
  5
1B7
330
1F
100
AcDbEntity
  8
Layer 1
 62
   250
370
    35
100
AcDbEllipse
 10
-16.1
 20
-7.65
 30
0.0
 11
0.0
 21
0.3
 31
0.0
210
0.0
220
0.0
230
1.0
 40
1.0
 41
0.0
 42
6.283185307179586
  0
ELLIPSE
  5
1B8
330
1F
100
AcDbEntity
  8
Layer 1
 62
   114
370
    35
100
AcDbEllipse
 10
-16.1
 20
-7.65
 30
0.0
 11
0.0
 21
0.65
 31
0.0
210
0.0
220
0.0
230
1.0
 40
1.0
 41
0.0
 42
6.283185307179586
  0
ELLIPSE
  5
1B9
330
1F
100
AcDbEntity
  8
Layer 1
 62
   250
370
    35
100
AcDbEllipse
 10
-17.7
 20
-7.65
 30
0.0
 11
0.0
 21
0.3
 31
0.0
210
0.0
220
0.0
230
1.0
 40
1.0
 41
0.0
 42
6.283185307179586
  0
ELLIPSE
  5
1BA
330
1F
100
AcDbEntity
  8
Layer 1
 62
   114
370
    35
100
AcDbEllipse
 10
-17.7
 20
-7.65
 30
0.0
 11
0.0
 21
0.65
 31
0.0
210
0.0
220
0.0
230
1.0
 40
1.0
 41
0.0
 42
6.283185307179586
  0
ELLIPSE
  5
1BB
330
1F
100
AcDbEntity
  8
Layer 1
 62
   250
370
    35
100
AcDbEllipse
 10
-19.3
 20
-7.65
 30
0.0
 11
0.0
 21
0.3
 31
0.0
210
0.0
220
0.0
230
1.0
 40
1.0
 41
0.0
 42
6.283185307179586
  0
ELLIPSE
  5
1BC
330
1F
100
AcDbEntity
  8
Layer 1
 62
   114
370
    35
100
AcDbEllipse
 10
-19.3
 20
-7.65
 30
0.0
 11
0.0
 21
0.65
 31
0.0
210
0.0
220
0.0
230
1.0
 40
1.0
 41
0.0
 42
6.283185307179586
  0
ELLIPSE
  5
1BD
330
1F
100
AcDbEntity
  8
Layer 1
 62
   250
370
    35
100
AcDbEllipse
 10
-1.7
 20
-6.05
 30
0.0
 11
0.0
 21
0.3
 31
0.0
210
0.0
220
0.0
230
1.0
 40
1.0
 41
0.0
 42
6.283185307179586
  0
ELLIPSE
  5
1BE
330
1F
100
AcDbEntity
  8
Layer 1
 62
   114
370
    35
100
AcDbEllipse
 10
-1.7
 20
-6.05
 30
0.0
 11
0.0
 21
0.65
 31
0.0
210
0.0
220
0.0
230
1.0
 40
1.0
 41
0.0
 42
6.283185307179586
  0
ELLIPSE
  5
1BF
330
1F
100
AcDbEntity
  8
Layer 1
 62
   250
370
    35
100
AcDbEllipse
 10
-3.3
 20
-6.05
 30
0.0
 11
0.0
 21
0.3
 31
0.0
210
0.0
220
0.0
230
1.0
 40
1.0
 41
0.0
 42
6.283185307179586
  0
ELLIPSE
  5
1C0
330
1F
100
AcDbEntity
  8
Layer 1
 62
   114
370
    35
100
AcDbEllipse
 10
-3.3
 20
-6.05
 30
0.0
 11
0.0
 21
0.65
 31
0.0
210
0.0
220
0.0
230
1.0
 40
1.0
 41
0.0
 42
6.283185307179586
  0
ELLIPSE
  5
1C1
330
1F
100
AcDbEntity
  8
Layer 1
 62
   250
370
    35
100
AcDbEllipse
 10
-4.9
 20
-6.05
 30
0.0
 11
0.0
 21
0.3
 31
0.0
210
0.0
220
0.0
230
1.0
 40
1.0
 41
0.0
 42
6.283185307179586
  0
ELLIPSE
  5
1C2
330
1F
100
AcDbEntity
  8
Layer 1
 62
   114
370
    35
100
AcDbEllipse
 10
-4.9
 20
-6.05
 30
0.0
 11
0.0
 21
0.65
 31
0.0
210
0.0
220
0.0
230
1.0
 40
1.0
 41
0.0
 42
6.283185307179586
  0
ELLIPSE
  5
1C3
330
1F
100
AcDbEntity
  8
Layer 1
 62
   250
370
    35
100
AcDbEllipse
 10
-6.5
 20
-6.05
 30
0.0
 11
0.0
 21
0.3
 31
0.0
210
0.0
220
0.0
230
1.0
 40
1.0
 41
0.0
 42
6.283185307179586
  0
ELLIPSE
  5
1C4
330
1F
100
AcDbEntity
  8
Layer 1
 62
   114
370
    35
100
AcDbEllipse
 10
-6.5
 20
-6.05
 30
0.0
 11
0.0
 21
0.65
 31
0.0
210
0.0
220
0.0
230
1.0
 40
1.0
 41
0.0
 42
6.283185307179586
  0
ELLIPSE
  5
1C5
330
1F
100
AcDbEntity
  8
Layer 1
 62
   250
370
    35
100
AcDbEllipse
 10
-8.1
 20
-6.05
 30
0.0
 11
0.0
 21
0.3
 31
0.0
210
0.0
220
0.0
230
1.0
 40
1.0
 41
0.0
 42
6.283185307179586
  0
ELLIPSE
  5
1C6
330
1F
100
AcDbEntity
  8
Layer 1
 62
   114
370
    35
100
AcDbEllipse
 10
-8.1
 20
-6.05
 30
0.0
 11
0.0
 21
0.65
 31
0.0
210
0.0
220
0.0
230
1.0
 40
1.0
 41
0.0
 42
6.283185307179586
  0
ELLIPSE
  5
1C7
330
1F
100
AcDbEntity
  8
Layer 1
 62
   250
370
    35
100
AcDbEllipse
 10
-9.7
 20
-6.05
 30
0.0
 11
0.0
 21
0.3
 31
0.0
210
0.0
220
0.0
230
1.0
 40
1.0
 41
0.0
 42
6.283185307179586
  0
ELLIPSE
  5
1C8
330
1F
100
AcDbEntity
  8
Layer 1
 62
   114
370
    35
100
AcDbEllipse
 10
-9.7
 20
-6.05
 30
0.0
 11
0.0
 21
0.65
 31
0.0
210
0.0
220
0.0
230
1.0
 40
1.0
 41
0.0
 42
6.283185307179586
  0
ELLIPSE
  5
1C9
330
1F
100
AcDbEntity
  8
Layer 1
 62
   250
370
    35
100
AcDbEllipse
 10
-11.3
 20
-6.05
 30
0.0
 11
0.0
 21
0.3
 31
0.0
210
0.0
220
0.0
230
1.0
 40
1.0
 41
0.0
 42
6.283185307179586
  0
ELLIPSE
  5
1CA
330
1F
100
AcDbEntity
  8
Layer 1
 62
   114
370
    35
100
AcDbEllipse
 10
-11.3
 20
-6.05
 30
0.0
 11
0.0
 21
0.65
 31
0.0
210
0.0
220
0.0
230
1.0
 40
1.0
 41
0.0
 42
6.283185307179586
  0
ELLIPSE
  5
1CB
330
1F
100
AcDbEntity
  8
Layer 1
 62
   250
370
    35
100
AcDbEllipse
 10
-12.9
 20
-6.05
 30
0.0
 11
0.0
 21
0.3
 31
0.0
210
0.0
220
0.0
230
1.0
 40
1.0
 41
0.0
 42
6.283185307179586
  0
ELLIPSE
  5
1CC
330
1F
100
AcDbEntity
  8
Layer 1
 62
   114
370
    35
100
AcDbEllipse
 10
-12.9
 20
-6.05
 30
0.0
 11
0.0
 21
0.65
 31
0.0
210
0.0
220
0.0
230
1.0
 40
1.0
 41
0.0
 42
6.283185307179586
  0
ELLIPSE
  5
1CD
330
1F
100
AcDbEntity
  8
Layer 1
 62
   250
370
    35
100
AcDbEllipse
 10
-14.5
 20
-6.05
 30
0.0
 11
0.0
 21
0.3
 31
0.0
210
0.0
220
0.0
230
1.0
 40
1.0
 41
0.0
 42
6.283185307179586
  0
ELLIPSE
  5
1CE
330
1F
100
AcDbEntity
  8
Layer 1
 62
   114
370
    35
100
AcDbEllipse
 10
-14.5
 20
-6.05
 30
0.0
 11
0.0
 21
0.65
 31
0.0
210
0.0
220
0.0
230
1.0
 40
1.0
 41
0.0
 42
6.283185307179586
  0
ELLIPSE
  5
1CF
330
1F
100
AcDbEntity
  8
Layer 1
 62
   250
370
    35
100
AcDbEllipse
 10
-16.1
 20
-6.05
 30
0.0
 11
0.0
 21
0.3
 31
0.0
210
0.0
220
0.0
230
1.0
 40
1.0
 41
0.0
 42
6.283185307179586
  0
ELLIPSE
  5
1D0
330
1F
100
AcDbEntity
  8
Layer 1
 62
   114
370
    35
100
AcDbEllipse
 10
-16.1
 20
-6.05
 30
0.0
 11
0.0
 21
0.65
 31
0.0
210
0.0
220
0.0
230
1.0
 40
1.0
 41
0.0
 42
6.283185307179586
  0
ELLIPSE
  5
1D1
330
1F
100
AcDbEntity
  8
Layer 1
 62
   250
370
    35
100
AcDbEllipse
 10
-17.7
 20
-6.05
 30
0.0
 11
0.0
 21
0.3
 31
0.0
210
0.0
220
0.0
230
1.0
 40
1.0
 41
0.0
 42
6.283185307179586
  0
ELLIPSE
  5
1D2
330
1F
100
AcDbEntity
  8
Layer 1
 62
   114
370
    35
100
AcDbEllipse
 10
-17.7
 20
-6.05
 30
0.0
 11
0.0
 21
0.65
 31
0.0
210
0.0
220
0.0
230
1.0
 40
1.0
 41
0.0
 42
6.283185307179586
  0
ELLIPSE
  5
1D3
330
1F
100
AcDbEntity
  8
Layer 1
 62
   250
370
    35
100
AcDbEllipse
 10
-19.3
 20
-6.05
 30
0.0
 11
0.0
 21
0.3
 31
0.0
210
0.0
220
0.0
230
1.0
 40
1.0
 41
0.0
 42
6.283185307179586
  0
ELLIPSE
  5
1D4
330
1F
100
AcDbEntity
  8
Layer 1
 62
   114
370
    35
100
AcDbEllipse
 10
-19.3
 20
-6.05
 30
0.0
 11
0.0
 21
0.65
 31
0.0
210
0.0
220
0.0
230
1.0
 40
1.0
 41
0.0
 42
6.283185307179586
  0
ELLIPSE
  5
1D5
330
1F
100
AcDbEntity
  8
Layer 1
 62
   250
370
    35
100
AcDbEllipse
 10
-1.7
 20
-4.45
 30
0.0
 11
0.0
 21
0.3
 31
0.0
210
0.0
220
0.0
230
1.0
 40
1.0
 41
0.0
 42
6.283185307179586
  0
ELLIPSE
  5
1D6
330
1F
100
AcDbEntity
  8
Layer 1
 62
   114
370
    35
100
AcDbEllipse
 10
-1.7
 20
-4.45
 30
0.0
 11
0.0
 21
0.65
 31
0.0
210
0.0
220
0.0
230
1.0
 40
1.0
 41
0.0
 42
6.283185307179586
  0
ELLIPSE
  5
1D7
330
1F
100
AcDbEntity
  8
Layer 1
 62
   250
370
    35
100
AcDbEllipse
 10
-3.3
 20
-4.45
 30
0.0
 11
0.0
 21
0.3
 31
0.0
210
0.0
220
0.0
230
1.0
 40
1.0
 41
0.0
 42
6.283185307179586
  0
ELLIPSE
  5
1D8
330
1F
100
AcDbEntity
  8
Layer 1
 62
   114
370
    35
100
AcDbEllipse
 10
-3.3
 20
-4.45
 30
0.0
 11
0.0
 21
0.65
 31
0.0
210
0.0
220
0.0
230
1.0
 40
1.0
 41
0.0
 42
6.283185307179586
  0
ELLIPSE
  5
1D9
330
1F
100
AcDbEntity
  8
Layer 1
 62
   250
370
    35
100
AcDbEllipse
 10
-4.9
 20
-4.45
 30
0.0
 11
0.0
 21
0.3
 31
0.0
210
0.0
220
0.0
230
1.0
 40
1.0
 41
0.0
 42
6.283185307179586
  0
ELLIPSE
  5
1DA
330
1F
100
AcDbEntity
  8
Layer 1
 62
   114
370
    35
100
AcDbEllipse
 10
-4.9
 20
-4.45
 30
0.0
 11
0.0
 21
0.65
 31
0.0
210
0.0
220
0.0
230
1.0
 40
1.0
 41
0.0
 42
6.283185307179586
  0
ELLIPSE
  5
1DB
330
1F
100
AcDbEntity
  8
Layer 1
 62
   250
370
    35
100
AcDbEllipse
 10
-6.5
 20
-4.45
 30
0.0
 11
0.0
 21
0.3
 31
0.0
210
0.0
220
0.0
230
1.0
 40
1.0
 41
0.0
 42
6.283185307179586
  0
ELLIPSE
  5
1DC
330
1F
100
AcDbEntity
  8
Layer 1
 62
   114
370
    35
100
AcDbEllipse
 10
-6.5
 20
-4.45
 30
0.0
 11
0.0
 21
0.65
 31
0.0
210
0.0
220
0.0
230
1.0
 40
1.0
 41
0.0
 42
6.283185307179586
  0
ELLIPSE
  5
1DD
330
1F
100
AcDbEntity
  8
Layer 1
 62
   250
370
    35
100
AcDbEllipse
 10
-8.1
 20
-4.45
 30
0.0
 11
0.0
 21
0.3
 31
0.0
210
0.0
220
0.0
230
1.0
 40
1.0
 41
0.0
 42
6.283185307179586
  0
ELLIPSE
  5
1DE
330
1F
100
AcDbEntity
  8
Layer 1
 62
   114
370
    35
100
AcDbEllipse
 10
-8.1
 20
-4.45
 30
0.0
 11
0.0
 21
0.65
 31
0.0
210
0.0
220
0.0
230
1.0
 40
1.0
 41
0.0
 42
6.283185307179586
  0
ELLIPSE
  5
1DF
330
1F
100
AcDbEntity
  8
Layer 1
 62
   250
370
    35
100
AcDbEllipse
 10
-9.7
 20
-4.45
 30
0.0
 11
0.0
 21
0.3
 31
0.0
210
0.0
220
0.0
230
1.0
 40
1.0
 41
0.0
 42
6.283185307179586
  0
ELLIPSE
  5
1E0
330
1F
100
AcDbEntity
  8
Layer 1
 62
   114
370
    35
100
AcDbEllipse
 10
-9.7
 20
-4.45
 30
0.0
 11
0.0
 21
0.65
 31
0.0
210
0.0
220
0.0
230
1.0
 40
1.0
 41
0.0
 42
6.283185307179586
  0
ELLIPSE
  5
1E1
330
1F
100
AcDbEntity
  8
Layer 1
 62
   250
370
    35
100
AcDbEllipse
 10
-11.3
 20
-4.45
 30
0.0
 11
0.0
 21
0.3
 31
0.0
210
0.0
220
0.0
230
1.0
 40
1.0
 41
0.0
 42
6.283185307179586
  0
ELLIPSE
  5
1E2
330
1F
100
AcDbEntity
  8
Layer 1
 62
   114
370
    35
100
AcDbEllipse
 10
-11.3
 20
-4.45
 30
0.0
 11
0.0
 21
0.65
 31
0.0
210
0.0
220
0.0
230
1.0
 40
1.0
 41
0.0
 42
6.283185307179586
  0
ELLIPSE
  5
1E3
330
1F
100
AcDbEntity
  8
Layer 1
 62
   250
370
    35
100
AcDbEllipse
 10
-12.9
 20
-4.45
 30
0.0
 11
0.0
 21
0.3
 31
0.0
210
0.0
220
0.0
230
1.0
 40
1.0
 41
0.0
 42
6.283185307179586
  0
ELLIPSE
  5
1E4
330
1F
100
AcDbEntity
  8
Layer 1
 62
   114
370
    35
100
AcDbEllipse
 10
-12.9
 20
-4.45
 30
0.0
 11
0.0
 21
0.65
 31
0.0
210
0.0
220
0.0
230
1.0
 40
1.0
 41
0.0
 42
6.283185307179586
  0
ELLIPSE
  5
1E5
330
1F
100
AcDbEntity
  8
Layer 1
 62
   250
370
    35
100
AcDbEllipse
 10
-14.5
 20
-4.45
 30
0.0
 11
0.0
 21
0.3
 31
0.0
210
0.0
220
0.0
230
1.0
 40
1.0
 41
0.0
 42
6.283185307179586
  0
ELLIPSE
  5
1E6
330
1F
100
AcDbEntity
  8
Layer 1
 62
   114
370
    35
100
AcDbEllipse
 10
-14.5
 20
-4.45
 30
0.0
 11
0.0
 21
0.65
 31
0.0
210
0.0
220
0.0
230
1.0
 40
1.0
 41
0.0
 42
6.283185307179586
  0
ELLIPSE
  5
1E7
330
1F
100
AcDbEntity
  8
Layer 1
 62
   250
370
    35
100
AcDbEllipse
 10
-16.1
 20
-4.45
 30
0.0
 11
0.0
 21
0.3
 31
0.0
210
0.0
220
0.0
230
1.0
 40
1.0
 41
0.0
 42
6.283185307179586
  0
ELLIPSE
  5
1E8
330
1F
100
AcDbEntity
  8
Layer 1
 62
   114
370
    35
100
AcDbEllipse
 10
-16.1
 20
-4.45
 30
0.0
 11
0.0
 21
0.65
 31
0.0
210
0.0
220
0.0
230
1.0
 40
1.0
 41
0.0
 42
6.283185307179586
  0
ELLIPSE
  5
1E9
330
1F
100
AcDbEntity
  8
Layer 1
 62
   250
370
    35
100
AcDbEllipse
 10
-17.7
 20
-4.45
 30
0.0
 11
0.0
 21
0.3
 31
0.0
210
0.0
220
0.0
230
1.0
 40
1.0
 41
0.0
 42
6.283185307179586
  0
ELLIPSE
  5
1EA
330
1F
100
AcDbEntity
  8
Layer 1
 62
   114
370
    35
100
AcDbEllipse
 10
-17.7
 20
-4.45
 30
0.0
 11
0.0
 21
0.65
 31
0.0
210
0.0
220
0.0
230
1.0
 40
1.0
 41
0.0
 42
6.283185307179586
  0
ELLIPSE
  5
1EB
330
1F
100
AcDbEntity
  8
Layer 1
 62
   250
370
    35
100
AcDbEllipse
 10
-19.3
 20
-4.45
 30
0.0
 11
0.0
 21
0.3
 31
0.0
210
0.0
220
0.0
230
1.0
 40
1.0
 41
0.0
 42
6.283185307179586
  0
ELLIPSE
  5
1EC
330
1F
100
AcDbEntity
  8
Layer 1
 62
   114
370
    35
100
AcDbEllipse
 10
-19.3
 20
-4.45
 30
0.0
 11
0.0
 21
0.65
 31
0.0
210
0.0
220
0.0
230
1.0
 40
1.0
 41
0.0
 42
6.283185307179586
  0
ELLIPSE
  5
1ED
330
1F
100
AcDbEntity
  8
Layer 1
 62
   250
370
    35
100
AcDbEllipse
 10
-1.7
 20
-1.25
 30
0.0
 11
0.0
 21
0.3
 31
0.0
210
0.0
220
0.0
230
1.0
 40
1.0
 41
0.0
 42
6.283185307179586
  0
ELLIPSE
  5
1EE
330
1F
100
AcDbEntity
  8
Layer 1
 62
   114
370
    35
100
AcDbEllipse
 10
-1.7
 20
-1.25
 30
0.0
 11
0.0
 21
0.65
 31
0.0
210
0.0
220
0.0
230
1.0
 40
1.0
 41
0.0
 42
6.283185307179586
  0
ELLIPSE
  5
1EF
330
1F
100
AcDbEntity
  8
Layer 1
 62
   250
370
    35
100
AcDbEllipse
 10
-3.3
 20
-1.25
 30
0.0
 11
0.0
 21
0.3
 31
0.0
210
0.0
220
0.0
230
1.0
 40
1.0
 41
0.0
 42
6.283185307179586
  0
ELLIPSE
  5
1F0
330
1F
100
AcDbEntity
  8
Layer 1
 62
   114
370
    35
100
AcDbEllipse
 10
-3.3
 20
-1.25
 30
0.0
 11
0.0
 21
0.65
 31
0.0
210
0.0
220
0.0
230
1.0
 40
1.0
 41
0.0
 42
6.283185307179586
  0
ELLIPSE
  5
1F1
330
1F
100
AcDbEntity
  8
Layer 1
 62
   250
370
    35
100
AcDbEllipse
 10
-4.9
 20
-1.25
 30
0.0
 11
0.0
 21
0.3
 31
0.0
210
0.0
220
0.0
230
1.0
 40
1.0
 41
0.0
 42
6.283185307179586
  0
ELLIPSE
  5
1F2
330
1F
100
AcDbEntity
  8
Layer 1
 62
   114
370
    35
100
AcDbEllipse
 10
-4.9
 20
-1.25
 30
0.0
 11
0.0
 21
0.65
 31
0.0
210
0.0
220
0.0
230
1.0
 40
1.0
 41
0.0
 42
6.283185307179586
  0
ELLIPSE
  5
1F3
330
1F
100
AcDbEntity
  8
Layer 1
 62
   250
370
    35
100
AcDbEllipse
 10
-6.5
 20
-1.25
 30
0.0
 11
0.0
 21
0.3
 31
0.0
210
0.0
220
0.0
230
1.0
 40
1.0
 41
0.0
 42
6.283185307179586
  0
ELLIPSE
  5
1F4
330
1F
100
AcDbEntity
  8
Layer 1
 62
   114
370
    35
100
AcDbEllipse
 10
-6.5
 20
-1.25
 30
0.0
 11
0.0
 21
0.65
 31
0.0
210
0.0
220
0.0
230
1.0
 40
1.0
 41
0.0
 42
6.283185307179586
  0
ELLIPSE
  5
1F5
330
1F
100
AcDbEntity
  8
Layer 1
 62
   250
370
    35
100
AcDbEllipse
 10
-8.1
 20
-1.25
 30
0.0
 11
0.0
 21
0.3
 31
0.0
210
0.0
220
0.0
230
1.0
 40
1.0
 41
0.0
 42
6.283185307179586
  0
ELLIPSE
  5
1F6
330
1F
100
AcDbEntity
  8
Layer 1
 62
   114
370
    35
100
AcDbEllipse
 10
-8.1
 20
-1.25
 30
0.0
 11
0.0
 21
0.65
 31
0.0
210
0.0
220
0.0
230
1.0
 40
1.0
 41
0.0
 42
6.283185307179586
  0
ELLIPSE
  5
1F7
330
1F
100
AcDbEntity
  8
Layer 1
 62
   250
370
    35
100
AcDbEllipse
 10
-9.7
 20
-1.25
 30
0.0
 11
0.0
 21
0.3
 31
0.0
210
0.0
220
0.0
230
1.0
 40
1.0
 41
0.0
 42
6.283185307179586
  0
ELLIPSE
  5
1F8
330
1F
100
AcDbEntity
  8
Layer 1
 62
   114
370
    35
100
AcDbEllipse
 10
-9.7
 20
-1.25
 30
0.0
 11
0.0
 21
0.65
 31
0.0
210
0.0
220
0.0
230
1.0
 40
1.0
 41
0.0
 42
6.283185307179586
  0
ELLIPSE
  5
1F9
330
1F
100
AcDbEntity
  8
Layer 1
 62
   250
370
    35
100
AcDbEllipse
 10
-11.3
 20
-1.25
 30
0.0
 11
0.0
 21
0.3
 31
0.0
210
0.0
220
0.0
230
1.0
 40
1.0
 41
0.0
 42
6.283185307179586
  0
ELLIPSE
  5
1FA
330
1F
100
AcDbEntity
  8
Layer 1
 62
   114
370
    35
100
AcDbEllipse
 10
-11.3
 20
-1.25
 30
0.0
 11
0.0
 21
0.65
 31
0.0
210
0.0
220
0.0
230
1.0
 40
1.0
 41
0.0
 42
6.283185307179586
  0
ELLIPSE
  5
1FB
330
1F
100
AcDbEntity
  8
Layer 1
 62
   250
370
    35
100
AcDbEllipse
 10
-12.9
 20
-1.25
 30
0.0
 11
0.0
 21
0.3
 31
0.0
210
0.0
220
0.0
230
1.0
 40
1.0
 41
0.0
 42
6.283185307179586
  0
ELLIPSE
  5
1FC
330
1F
100
AcDbEntity
  8
Layer 1
 62
   114
370
    35
100
AcDbEllipse
 10
-12.9
 20
-1.25
 30
0.0
 11
0.0
 21
0.65
 31
0.0
210
0.0
220
0.0
230
1.0
 40
1.0
 41
0.0
 42
6.283185307179586
  0
ELLIPSE
  5
1FD
330
1F
100
AcDbEntity
  8
Layer 1
 62
   250
370
    35
100
AcDbEllipse
 10
-14.5
 20
-1.25
 30
0.0
 11
0.0
 21
0.3
 31
0.0
210
0.0
220
0.0
230
1.0
 40
1.0
 41
0.0
 42
6.283185307179586
  0
ELLIPSE
  5
1FE
330
1F
100
AcDbEntity
  8
Layer 1
 62
   114
370
    35
100
AcDbEllipse
 10
-14.5
 20
-1.25
 30
0.0
 11
0.0
 21
0.65
 31
0.0
210
0.0
220
0.0
230
1.0
 40
1.0
 41
0.0
 42
6.283185307179586
  0
ELLIPSE
  5
1FF
330
1F
100
AcDbEntity
  8
Layer 1
 62
   250
370
    35
100
AcDbEllipse
 10
-16.1
 20
-1.25
 30
0.0
 11
0.0
 21
0.3
 31
0.0
210
0.0
220
0.0
230
1.0
 40
1.0
 41
0.0
 42
6.283185307179586
  0
ELLIPSE
  5
200
330
1F
100
AcDbEntity
  8
Layer 1
 62
   114
370
    35
100
AcDbEllipse
 10
-16.1
 20
-1.25
 30
0.0
 11
0.0
 21
0.65
 31
0.0
210
0.0
220
0.0
230
1.0
 40
1.0
 41
0.0
 42
6.283185307179586
  0
ELLIPSE
  5
201
330
1F
100
AcDbEntity
  8
Layer 1
 62
   250
370
    35
100
AcDbEllipse
 10
-17.7
 20
-1.25
 30
0.0
 11
0.0
 21
0.3
 31
0.0
210
0.0
220
0.0
230
1.0
 40
1.0
 41
0.0
 42
6.283185307179586
  0
ELLIPSE
  5
202
330
1F
100
AcDbEntity
  8
Layer 1
 62
   114
370
    35
100
AcDbEllipse
 10
-17.7
 20
-1.25
 30
0.0
 11
0.0
 21
0.65
 31
0.0
210
0.0
220
0.0
230
1.0
 40
1.0
 41
0.0
 42
6.283185307179586
  0
ELLIPSE
  5
203
330
1F
100
AcDbEntity
  8
Layer 1
 62
   250
370
    35
100
AcDbEllipse
 10
-19.3
 20
-1.25
 30
0.0
 11
0.0
 21
0.3
 31
0.0
210
0.0
220
0.0
230
1.0
 40
1.0
 41
0.0
 42
6.283185307179586
  0
ELLIPSE
  5
204
330
1F
100
AcDbEntity
  8
Layer 1
 62
   114
370
    35
100
AcDbEllipse
 10
-19.3
 20
-1.25
 30
0.0
 11
0.0
 21
0.65
 31
0.0
210
0.0
220
0.0
230
1.0
 40
1.0
 41
0.0
 42
6.283185307179586
  0
ELLIPSE
  5
205
330
1F
100
AcDbEntity
  8
Layer 1
 62
   250
370
    35
100
AcDbEllipse
 10
-1.7
 20
-2.85
 30
0.0
 11
0.0
 21
0.3
 31
0.0
210
0.0
220
0.0
230
1.0
 40
1.0
 41
0.0
 42
6.283185307179586
  0
ELLIPSE
  5
206
330
1F
100
AcDbEntity
  8
Layer 1
 62
   114
370
    35
100
AcDbEllipse
 10
-1.7
 20
-2.85
 30
0.0
 11
0.0
 21
0.65
 31
0.0
210
0.0
220
0.0
230
1.0
 40
1.0
 41
0.0
 42
6.283185307179586
  0
ELLIPSE
  5
207
330
1F
100
AcDbEntity
  8
Layer 1
 62
   250
370
    35
100
AcDbEllipse
 10
-3.3
 20
-2.85
 30
0.0
 11
0.0
 21
0.3
 31
0.0
210
0.0
220
0.0
230
1.0
 40
1.0
 41
0.0
 42
6.283185307179586
  0
ELLIPSE
  5
208
330
1F
100
AcDbEntity
  8
Layer 1
 62
   114
370
    35
100
AcDbEllipse
 10
-3.3
 20
-2.85
 30
0.0
 11
0.0
 21
0.65
 31
0.0
210
0.0
220
0.0
230
1.0
 40
1.0
 41
0.0
 42
6.283185307179586
  0
ELLIPSE
  5
209
330
1F
100
AcDbEntity
  8
Layer 1
 62
   250
370
    35
100
AcDbEllipse
 10
-4.9
 20
-2.85
 30
0.0
 11
0.0
 21
0.3
 31
0.0
210
0.0
220
0.0
230
1.0
 40
1.0
 41
0.0
 42
6.283185307179586
  0
ELLIPSE
  5
20A
330
1F
100
AcDbEntity
  8
Layer 1
 62
   114
370
    35
100
AcDbEllipse
 10
-4.9
 20
-2.85
 30
0.0
 11
0.0
 21
0.65
 31
0.0
210
0.0
220
0.0
230
1.0
 40
1.0
 41
0.0
 42
6.283185307179586
  0
ELLIPSE
  5
20B
330
1F
100
AcDbEntity
  8
Layer 1
 62
   250
370
    35
100
AcDbEllipse
 10
-6.5
 20
-2.85
 30
0.0
 11
0.0
 21
0.3
 31
0.0
210
0.0
220
0.0
230
1.0
 40
1.0
 41
0.0
 42
6.283185307179586
  0
ELLIPSE
  5
20C
330
1F
100
AcDbEntity
  8
Layer 1
 62
   114
370
    35
100
AcDbEllipse
 10
-6.5
 20
-2.85
 30
0.0
 11
0.0
 21
0.65
 31
0.0
210
0.0
220
0.0
230
1.0
 40
1.0
 41
0.0
 42
6.283185307179586
  0
ELLIPSE
  5
20D
330
1F
100
AcDbEntity
  8
Layer 1
 62
   250
370
    35
100
AcDbEllipse
 10
-8.1
 20
-2.85
 30
0.0
 11
0.0
 21
0.3
 31
0.0
210
0.0
220
0.0
230
1.0
 40
1.0
 41
0.0
 42
6.283185307179586
  0
ELLIPSE
  5
20E
330
1F
100
AcDbEntity
  8
Layer 1
 62
   114
370
    35
100
AcDbEllipse
 10
-8.1
 20
-2.85
 30
0.0
 11
0.0
 21
0.65
 31
0.0
210
0.0
220
0.0
230
1.0
 40
1.0
 41
0.0
 42
6.283185307179586
  0
ELLIPSE
  5
20F
330
1F
100
AcDbEntity
  8
Layer 1
 62
   250
370
    35
100
AcDbEllipse
 10
-9.7
 20
-2.85
 30
0.0
 11
0.0
 21
0.3
 31
0.0
210
0.0
220
0.0
230
1.0
 40
1.0
 41
0.0
 42
6.283185307179586
  0
ELLIPSE
  5
210
330
1F
100
AcDbEntity
  8
Layer 1
 62
   114
370
    35
100
AcDbEllipse
 10
-9.7
 20
-2.85
 30
0.0
 11
0.0
 21
0.65
 31
0.0
210
0.0
220
0.0
230
1.0
 40
1.0
 41
0.0
 42
6.283185307179586
  0
ELLIPSE
  5
211
330
1F
100
AcDbEntity
  8
Layer 1
 62
   250
370
    35
100
AcDbEllipse
 10
-11.3
 20
-2.85
 30
0.0
 11
0.0
 21
0.3
 31
0.0
210
0.0
220
0.0
230
1.0
 40
1.0
 41
0.0
 42
6.283185307179586
  0
ELLIPSE
  5
212
330
1F
100
AcDbEntity
  8
Layer 1
 62
   114
370
    35
100
AcDbEllipse
 10
-11.3
 20
-2.85
 30
0.0
 11
0.0
 21
0.65
 31
0.0
210
0.0
220
0.0
230
1.0
 40
1.0
 41
0.0
 42
6.283185307179586
  0
ELLIPSE
  5
213
330
1F
100
AcDbEntity
  8
Layer 1
 62
   250
370
    35
100
AcDbEllipse
 10
-12.9
 20
-2.85
 30
0.0
 11
0.0
 21
0.3
 31
0.0
210
0.0
220
0.0
230
1.0
 40
1.0
 41
0.0
 42
6.283185307179586
  0
ELLIPSE
  5
214
330
1F
100
AcDbEntity
  8
Layer 1
 62
   114
370
    35
100
AcDbEllipse
 10
-12.9
 20
-2.85
 30
0.0
 11
0.0
 21
0.65
 31
0.0
210
0.0
220
0.0
230
1.0
 40
1.0
 41
0.0
 42
6.283185307179586
  0
ELLIPSE
  5
215
330
1F
100
AcDbEntity
  8
Layer 1
 62
   250
370
    35
100
AcDbEllipse
 10
-14.5
 20
-2.85
 30
0.0
 11
0.0
 21
0.3
 31
0.0
210
0.0
220
0.0
230
1.0
 40
1.0
 41
0.0
 42
6.283185307179586
  0
ELLIPSE
  5
216
330
1F
100
AcDbEntity
  8
Layer 1
 62
   114
370
    35
100
AcDbEllipse
 10
-14.5
 20
-2.85
 30
0.0
 11
0.0
 21
0.65
 31
0.0
210
0.0
220
0.0
230
1.0
 40
1.0
 41
0.0
 42
6.283185307179586
  0
ELLIPSE
  5
217
330
1F
100
AcDbEntity
  8
Layer 1
 62
   250
370
    35
100
AcDbEllipse
 10
-16.1
 20
-2.85
 30
0.0
 11
0.0
 21
0.3
 31
0.0
210
0.0
220
0.0
230
1.0
 40
1.0
 41
0.0
 42
6.283185307179586
  0
ELLIPSE
  5
218
330
1F
100
AcDbEntity
  8
Layer 1
 62
   114
370
    35
100
AcDbEllipse
 10
-16.1
 20
-2.85
 30
0.0
 11
0.0
 21
0.65
 31
0.0
210
0.0
220
0.0
230
1.0
 40
1.0
 41
0.0
 42
6.283185307179586
  0
ELLIPSE
  5
219
330
1F
100
AcDbEntity
  8
Layer 1
 62
   250
370
    35
100
AcDbEllipse
 10
-17.7
 20
-2.85
 30
0.0
 11
0.0
 21
0.3
 31
0.0
210
0.0
220
0.0
230
1.0
 40
1.0
 41
0.0
 42
6.283185307179586
  0
ELLIPSE
  5
21A
330
1F
100
AcDbEntity
  8
Layer 1
 62
   114
370
    35
100
AcDbEllipse
 10
-17.7
 20
-2.85
 30
0.0
 11
0.0
 21
0.65
 31
0.0
210
0.0
220
0.0
230
1.0
 40
1.0
 41
0.0
 42
6.283185307179586
  0
ELLIPSE
  5
21B
330
1F
100
AcDbEntity
  8
Layer 1
 62
   250
370
    35
100
AcDbEllipse
 10
-19.3
 20
-2.85
 30
0.0
 11
0.0
 21
0.3
 31
0.0
210
0.0
220
0.0
230
1.0
 40
1.0
 41
0.0
 42
6.283185307179586
  0
ELLIPSE
  5
21C
330
1F
100
AcDbEntity
  8
Layer 1
 62
   114
370
    35
100
AcDbEllipse
 10
-19.3
 20
-2.85
 30
0.0
 11
0.0
 21
0.65
 31
0.0
210
0.0
220
0.0
230
1.0
 40
1.0
 41
0.0
 42
6.283185307179586
  0
ENDSEC
  0
SECTION
  2
OBJECTS
  0
DICTIONARY
  5
C
330
0
100
AcDbDictionary
281
     1
  3
ACAD_GROUP
350
D
  3
ACAD_LAYOUT
350
1A
  3
ACAD_MLEADERSTYLE
350
21E
  3
ACAD_MLINESTYLE
350
17
  3
ACAD_PLOTSETTINGS
350
19
  3
ACAD_PLOTSTYLENAME
350
E
  3
ACAD_SCALELIST
350
3B
  3
ACAD_TABLESTYLE
350
21D
  3
ACAD_VISUALSTYLE
350
2A
  0
DICTIONARY
  5
D
102
{ACAD_REACTORS
330
C
102
}
330
C
100
AcDbDictionary
281
     1
  0
DICTIONARY
  5
1A
102
{ACAD_REACTORS
330
C
102
}
330
C
100
AcDbDictionary
281
     1
  3
Layout1
350
1E
  3
Layout2
350
26
  3
Model
350
22
  0
DICTIONARY
  5
21E
102
{ACAD_REACTORS
330
C
102
}
330
C
100
AcDbDictionary
281
     1
  0
DICTIONARY
  5
17
102
{ACAD_REACTORS
330
C
102
}
330
C
100
AcDbDictionary
281
     1
  3
Standard
350
18
  0
DICTIONARY
  5
19
102
{ACAD_REACTORS
330
C
102
}
330
C
100
AcDbDictionary
281
     1
  0
ACDBDICTIONARYWDFLT
  5
E
102
{ACAD_REACTORS
330
C
102
}
330
C
100
AcDbDictionary
281
     1
  3
Normal
350
F
100
AcDbDictionaryWithDefault
340
F
  0
DICTIONARY
  5
3B
102
{ACAD_REACTORS
330
C
102
}
330
C
100
AcDbDictionary
281
     1
  3
A0
350
3C
  3
A1
350
3D
  3
A2
350
3E
  3
A3
350
3F
  3
A4
350
40
  3
A5
350
41
  3
A6
350
42
  3
A7
350
43
  3
A8
350
44
  3
A9
350
45
  3
B0
350
46
  3
B1
350
47
  3
B2
350
48
  3
B3
350
49
  3
B4
350
4A
  3
B5
350
4B
  3
B6
350
4C
  3
B7
350
4D
  3
B8
350
4E
  3
B9
350
4F
  3
C0
350
50
  3
C1
350
51
  3
C2
350
52
  3
C3
350
53
  3
C4
350
54
  3
C5
350
55
  3
C6
350
56
  3
C7
350
57
  3
C8
350
58
  3
C9
350
59
  3
D0
350
5A
  3
D1
350
5B
  3
D2
350
5C
  0
DICTIONARY
  5
21D
102
{ACAD_REACTORS
330
C
102
}
330
C
100
AcDbDictionary
281
     1
  0
DICTIONARY
  5
2A
102
{ACAD_REACTORS
330
C
102
}
330
C
100
AcDbDictionary
281
     1
  3
2dWireframe
350
2F
  3
3D Hidden
350
31
  3
3dWireframe
350
30
  3
Basic
350
32
  3
Brighten
350
36
  3
ColorChange
350
3A
  3
Conceptual
350
34
  3
Dim
350
35
  3
Facepattern
350
39
  3
Flat
350
2B
  3
FlatWithEdges
350
2C
  3
Gouraud
350
2D
  3
GouraudWithEdges
350
2E
  3
Linepattern
350
38
  3
Realistic
350
33
  3
Thicken
350
37
  0
LAYOUT
  5
1E
102
{ACAD_REACTORS
330
1A
102
}
330
1A
100
AcDbPlotSettings
  1

  2
none_device
  4

  6

 40
0.0
 41
0.0
 42
0.0
 43
0.0
 44
0.0
 45
0.0
 46
0.0
 47
0.0
 48
0.0
 49
0.0
140
0.0
141
0.0
142
1.0
143
1.0
 70
   688
 72
     0
 73
     0
 74
     5
  7

 75
    16
 76
     0
 77
     2
 78
   300
147
1.0
148
0.0
149
0.0
100
AcDbLayout
  1
Layout1
 70
     1
 71
     1
 10
0.0
 20
0.0
 11
12.0
 21
9.0
 12
0.0
 22
0.0
 32
0.0
 14
1.000000000000000E+20
 24
1.000000000000000E+20
 34
1.000000000000000E+20
 15
-1.000000000000000E+20
 25
-1.000000000000000E+20
 35
-1.000000000000000E+20
146
0.0
 13
0.0
 23
0.0
 33
0.0
 16
1.0
 26
0.0
 36
0.0
 17
0.0
 27
1.0
 37
0.0
 76
     0
330
1B
  0
LAYOUT
  5
26
102
{ACAD_REACTORS
330
1A
102
}
330
1A
100
AcDbPlotSettings
  1

  2
none_device
  4

  6

 40
0.0
 41
0.0
 42
0.0
 43
0.0
 44
0.0
 45
0.0
 46
0.0
 47
0.0
 48
0.0
 49
0.0
140
0.0
141
0.0
142
1.0
143
1.0
 70
   688
 72
     0
 73
     0
 74
     5
  7

 75
    16
 76
     0
 77
     2
 78
   300
147
1.0
148
0.0
149
0.0
100
AcDbLayout
  1
Layout2
 70
     1
 71
     2
 10
0.0
 20
0.0
 11
0.0
 21
0.0
 12
0.0
 22
0.0
 32
0.0
 14
0.0
 24
0.0
 34
0.0
 15
0.0
 25
0.0
 35
0.0
146
0.0
 13
0.0
 23
0.0
 33
0.0
 16
1.0
 26
0.0
 36
0.0
 17
0.0
 27
1.0
 37
0.0
 76
     0
330
23
  0
LAYOUT
  5
22
102
{ACAD_REACTORS
330
1A
102
}
330
1A
100
AcDbPlotSettings
  1

  2
none_device
  4

  6

 40
0.0
 41
0.0
 42
0.0
 43
0.0
 44
0.0
 45
0.0
 46
0.0
 47
0.0
 48
0.0
 49
0.0
140
0.0
141
0.0
142
1.0
143
1.0
 70
  1712
 72
     0
 73
     0
 74
     0
  7

 75
     0
 76
     0
 77
     2
 78
   300
147
1.0
148
0.0
149
0.0
100
AcDbLayout
  1
Model
 70
     1
 71
     0
 10
0.0
 20
0.0
 11
12.0
 21
9.0
 12
0.0
 22
0.0
 32
0.0
 14
-21.02825
 24
-29.72828
 34
0.0
 15
0.02824
 25
0.02827
 35
0.0
146
0.0
 13
0.0
 23
0.0
 33
0.0
 16
1.0
 26
0.0
 36
0.0
 17
0.0
 27
1.0
 37
0.0
 76
     0
330
1F
331
29
  0
MLINESTYLE
  5
18
102
{ACAD_REACTORS
330
17
102
}
330
17
100
AcDbMlineStyle
  2
Standard
 70
     0
  3

 62
   256
 51
90.0
 52
90.0
 71
     2
 49
0.5
 62
   256
  6
BYLAYER
 49
-0.5
 62
   256
  6
BYLAYER
  0
ACDBPLACEHOLDER
  5
F
102
{ACAD_REACTORS
330
E
102
}
330
E
  0
SCALE
  5
3C
102
{ACAD_REACTORS
330
3B
102
}
330
3B
100
AcDbScale
 70
     0
300
1:1
140
1.0
141
1.0
290
     1
  0
SCALE
  5
3D
102
{ACAD_REACTORS
330
3B
102
}
330
3B
100
AcDbScale
 70
     0
300
1:2
140
1.0
141
2.0
290
     0
  0
SCALE
  5
3E
102
{ACAD_REACTORS
330
3B
102
}
330
3B
100
AcDbScale
 70
     0
300
1:4
140
1.0
141
4.0
290
     0
  0
SCALE
  5
3F
102
{ACAD_REACTORS
330
3B
102
}
330
3B
100
AcDbScale
 70
     0
300
1:5
140
1.0
141
5.0
290
     0
  0
SCALE
  5
40
102
{ACAD_REACTORS
330
3B
102
}
330
3B
100
AcDbScale
 70
     0
300
1:8
140
1.0
141
8.0
290
     0
  0
SCALE
  5
41
102
{ACAD_REACTORS
330
3B
102
}
330
3B
100
AcDbScale
 70
     0
300
1:10
140
1.0
141
10.0
290
     0
  0
SCALE
  5
42
102
{ACAD_REACTORS
330
3B
102
}
330
3B
100
AcDbScale
 70
     0
300
1:16
140
1.0
141
16.0
290
     0
  0
SCALE
  5
43
102
{ACAD_REACTORS
330
3B
102
}
330
3B
100
AcDbScale
 70
     0
300
1:20
140
1.0
141
20.0
290
     0
  0
SCALE
  5
44
102
{ACAD_REACTORS
330
3B
102
}
330
3B
100
AcDbScale
 70
     0
300
1:30
140
1.0
141
30.0
290
     0
  0
SCALE
  5
45
102
{ACAD_REACTORS
330
3B
102
}
330
3B
100
AcDbScale
 70
     0
300
1:40
140
1.0
141
40.0
290
     0
  0
SCALE
  5
46
102
{ACAD_REACTORS
330
3B
102
}
330
3B
100
AcDbScale
 70
     0
300
1:50
140
1.0
141
50.0
290
     0
  0
SCALE
  5
47
102
{ACAD_REACTORS
330
3B
102
}
330
3B
100
AcDbScale
 70
     0
300
1:100
140
1.0
141
100.0
290
     0
  0
SCALE
  5
48
102
{ACAD_REACTORS
330
3B
102
}
330
3B
100
AcDbScale
 70
     0
300
2:1
140
2.0
141
1.0
290
     0
  0
SCALE
  5
49
102
{ACAD_REACTORS
330
3B
102
}
330
3B
100
AcDbScale
 70
     0
300
4:1
140
4.0
141
1.0
290
     0
  0
SCALE
  5
4A
102
{ACAD_REACTORS
330
3B
102
}
330
3B
100
AcDbScale
 70
     0
300
8:1
140
8.0
141
1.0
290
     0
  0
SCALE
  5
4B
102
{ACAD_REACTORS
330
3B
102
}
330
3B
100
AcDbScale
 70
     0
300
10:1
140
10.0
141
1.0
290
     0
  0
SCALE
  5
4C
102
{ACAD_REACTORS
330
3B
102
}
330
3B
100
AcDbScale
 70
     0
300
100:1
140
100.0
141
1.0
290
     0
  0
SCALE
  5
4D
102
{ACAD_REACTORS
330
3B
102
}
330
3B
100
AcDbScale
 70
     0
300
1/128" = 1'-0"
140
0.0078125
141
12.0
290
     0
  0
SCALE
  5
4E
102
{ACAD_REACTORS
330
3B
102
}
330
3B
100
AcDbScale
 70
     0
300
1/64" = 1'-0"
140
0.015625
141
12.0
290
     0
  0
SCALE
  5
4F
102
{ACAD_REACTORS
330
3B
102
}
330
3B
100
AcDbScale
 70
     0
300
1/32" = 1'-0"
140
0.03125
141
12.0
290
     0
  0
SCALE
  5
50
102
{ACAD_REACTORS
330
3B
102
}
330
3B
100
AcDbScale
 70
     0
300
1/16" = 1'-0"
140
0.0625
141
12.0
290
     0
  0
SCALE
  5
51
102
{ACAD_REACTORS
330
3B
102
}
330
3B
100
AcDbScale
 70
     0
300
3/32" = 1'-0"
140
0.09375
141
12.0
290
     0
  0
SCALE
  5
52
102
{ACAD_REACTORS
330
3B
102
}
330
3B
100
AcDbScale
 70
     0
300
1/8" = 1'-0"
140
0.125
141
12.0
290
     0
  0
SCALE
  5
53
102
{ACAD_REACTORS
330
3B
102
}
330
3B
100
AcDbScale
 70
     0
300
3/16" = 1'-0"
140
0.1875
141
12.0
290
     0
  0
SCALE
  5
54
102
{ACAD_REACTORS
330
3B
102
}
330
3B
100
AcDbScale
 70
     0
300
1/4" = 1'-0"
140
0.25
141
12.0
290
     0
  0
SCALE
  5
55
102
{ACAD_REACTORS
330
3B
102
}
330
3B
100
AcDbScale
 70
     0
300
3/8" = 1'-0"
140
0.375
141
12.0
290
     0
  0
SCALE
  5
56
102
{ACAD_REACTORS
330
3B
102
}
330
3B
100
AcDbScale
 70
     0
300
1/2" = 1'-0"
140
0.5
141
12.0
290
     0
  0
SCALE
  5
57
102
{ACAD_REACTORS
330
3B
102
}
330
3B
100
AcDbScale
 70
     0
300
3/4" = 1'-0"
140
0.75
141
12.0
290
     0
  0
SCALE
  5
58
102
{ACAD_REACTORS
330
3B
102
}
330
3B
100
AcDbScale
 70
     0
300
1" = 1'-0"
140
1.0
141
12.0
290
     0
  0
SCALE
  5
59
102
{ACAD_REACTORS
330
3B
102
}
330
3B
100
AcDbScale
 70
     0
300
1-1/2" = 1'-0"
140
1.5
141
12.0
290
     0
  0
SCALE
  5
5A
102
{ACAD_REACTORS
330
3B
102
}
330
3B
100
AcDbScale
 70
     0
300
3" = 1'-0"
140
3.0
141
12.0
290
     0
  0
SCALE
  5
5B
102
{ACAD_REACTORS
330
3B
102
}
330
3B
100
AcDbScale
 70
     0
300
6" = 1'-0"
140
6.0
141
12.0
290
     0
  0
SCALE
  5
5C
102
{ACAD_REACTORS
330
3B
102
}
330
3B
100
AcDbScale
 70
     0
300
1'-0" = 1'-0"
140
12.0
141
12.0
290
     0
  0
VISUALSTYLE
  5
2F
102
{ACAD_REACTORS
330
2A
102
}
330
2A
100
AcDbVisualStyle
  2
2dWireframe
 70
     4
 71
     0
 72
     2
 73
     0
 90
        0
 40
-0.6
 41
-30.0
 62
     5
 63
     7
421
 16777215
 74
     1
 91
        4
 64
     7
 65
   257
 75
     1
175
     1
 42
1.0
 92
        0
 66
   257
 43
1.0
 76
     1
 77
     6
 78
     2
 67
     7
 79
     5
170
     0
171
     0
290
     0
174
     0
 93
        1
 44
0.0
173
     0
291
     0
 45
0.0
  0
VISUALSTYLE
  5
31
102
{ACAD_REACTORS
330
2A
102
}
330
2A
100
AcDbVisualStyle
  2
3D Hidden
 70
     6
 71
     1
 72
     2
 73
     2
 90
        0
 40
-0.6
 41
-30.0
 62
     5
 63
     7
421
 16777215
 74
     2
 91
        2
 64
     7
 65
   257
 75
     2
175
     1
 42
40.0
 92
        0
 66
   257
 43
1.0
 76
     1
 77
     6
 78
     2
 67
     7
 79
     3
170
     0
171
     0
290
     0
174
     0
 93
        1
 44
0.0
173
     0
291
     0
 45
0.0
  0
VISUALSTYLE
  5
30
102
{ACAD_REACTORS
330
2A
102
}
330
2A
100
AcDbVisualStyle
  2
3dWireframe
 70
     5
 71
     0
 72
     2
 73
     0
 90
        0
 40
-0.6
 41
-30.0
 62
     5
 63
     7
421
 16777215
 74
     1
 91
        4
 64
     7
 65
   257
 75
     1
175
     1
 42
1.0
 92
        0
 66
   257
 43
1.0
 76
     1
 77
     6
 78
     2
 67
     7
 79
     5
170
     0
171
     0
290
     0
174
     0
 93
        1
 44
0.0
173
     0
291
     0
 45
0.0
  0
VISUALSTYLE
  5
32
102
{ACAD_REACTORS
330
2A
102
}
330
2A
100
AcDbVisualStyle
  2
Basic
 70
     7
 71
     1
 72
     0
 73
     1
 90
        0
 40
-0.6
 41
-30.0
 62
     5
 63
     7
421
 16777215
 74
     0
 91
        4
 64
     7
 65
   257
 75
     1
175
     1
 42
1.0
 92
        8
 66
     7
 43
1.0
 76
     1
 77
     6
 78
     2
 67
     7
 79
     5
170
     0
171
     0
290
     0
174
     0
 93
        1
 44
0.0
173
     0
291
     1
 45
0.0
  0
VISUALSTYLE
  5
36
102
{ACAD_REACTORS
330
2A
102
}
330
2A
100
AcDbVisualStyle
  2
Brighten
 70
    12
 71
     2
 72
     2
 73
     0
 90
        0
 40
-0.6
 41
-30.0
 62
     5
 63
     7
421
 16777215
 74
     1
 91
        4
 64
     7
 65
   257
 75
     1
175
     1
 42
1.0
 92
        8
 66
     7
 43
1.0
 76
     1
 77
     6
 78
     2
 67
     7
 79
     5
170
     0
171
     0
290
     0
174
     0
 93
        1
 44
50.0
173
     0
291
     1
 45
0.0
  0
VISUALSTYLE
  5
3A
102
{ACAD_REACTORS
330
2A
102
}
330
2A
100
AcDbVisualStyle
  2
ColorChange
 70
    16
 71
     2
 72
     2
 73
     3
 90
        0
 40
-0.6
 41
-30.0
 62
     5
 63
     8
421
  8421504
 74
     1
 91
        4
 64
     7
 65
   257
 75
     1
175
     1
 42
1.0
 92
        8
 66
     8
424
  8421504
 43
1.0
 76
     1
 77
     6
 78
     2
 67
     7
 79
     5
170
     0
171
     0
290
     0
174
     0
 93
        1
 44
0.0
173
     0
291
     1
 45
0.0
  0
VISUALSTYLE
  5
34
102
{ACAD_REACTORS
330
2A
102
}
330
2A
100
AcDbVisualStyle
  2
Conceptual
 70
     9
 71
     3
 72
     2
 73
     0
 90
        0
 40
-0.6
 41
-30.0
 62
     5
 63
     7
421
 16777215
 74
     2
 91
        2
 64
     7
 65
   257
 75
     1
175
     1
 42
40.0
 92
        8
 66
     7
 43
1.0
 76
     1
 77
     6
 78
     2
 67
     7
 79
     3
170
     0
171
     0
290
     0
174
     0
 93
        1
 44
0.0
173
     0
291
     0
 45
0.0
  0
VISUALSTYLE
  5
35
102
{ACAD_REACTORS
330
2A
102
}
330
2A
100
AcDbVisualStyle
  2
Dim
 70
    11
 71
     2
 72
     2
 73
     0
 90
        0
 40
-0.6
 41
-30.0
 62
     5
 63
     7
421
 16777215
 74
     1
 91
        4
 64
     7
 65
   257
 75
     1
175
     1
 42
1.0
 92
        8
 66
     7
 43
1.0
 76
     1
 77
     6
 78
     2
 67
     7
 79
     5
170
     0
171
     0
290
     0
174
     0
 93
        1
 44
-50.0
173
     0
291
     1
 45
0.0
  0
VISUALSTYLE
  5
39
102
{ACAD_REACTORS
330
2A
102
}
330
2A
100
AcDbVisualStyle
  2
Facepattern
 70
    15
 71
     2
 72
     2
 73
     0
 90
        0
 40
-0.6
 41
-30.0
 62
     5
 63
     7
421
 16777215
 74
     1
 91
        4
 64
     7
 65
   257
 75
     1
175
     1
 42
1.0
 92
        8
 66
     7
 43
1.0
 76
     1
 77
     6
 78
     2
 67
     7
 79
     5
170
     0
171
     0
290
     0
174
     0
 93
        1
 44
0.0
173
     0
291
     1
 45
0.0
  0
VISUALSTYLE
  5
2B
102
{ACAD_REACTORS
330
2A
102
}
330
2A
100
AcDbVisualStyle
  2
Flat
 70
     0
 71
     2
 72
     1
 73
     1
 90
        2
 40
-0.6
 41
30.0
 62
     5
 63
     7
421
 16777215
 74
     0
 91
        4
 64
     7
 65
   257
 75
     1
175
     1
 42
1.0
 92
        8
 66
     7
 43
1.0
 76
     1
 77
     6
 78
     2
 67
     7
 79
     5
170
     0
171
     0
290
     0
174
     0
 93
       13
 44
0.0
173
     0
291
     1
 45
0.0
  0
VISUALSTYLE
  5
2C
102
{ACAD_REACTORS
330
2A
102
}
330
2A
100
AcDbVisualStyle
  2
FlatWithEdges
 70
     1
 71
     2
 72
     1
 73
     1
 90
        2
 40
-0.6
 41
30.0
 62
     5
 63
     7
421
 16777215
 74
     1
 91
        4
 64
     7
 65
   257
 75
     1
175
     1
 42
1.0
 92
        0
 66
   257
 43
1.0
 76
     1
 77
     6
 78
     2
 67
     7
 79
     5
170
     0
171
     0
290
     0
174
     0
 93
       13
 44
0.0
173
     0
291
     1
 45
0.0
  0
VISUALSTYLE
  5
2D
102
{ACAD_REACTORS
330
2A
102
}
330
2A
100
AcDbVisualStyle
  2
Gouraud
 70
     2
 71
     2
 72
     2
 73
     1
 90
        2
 40
-0.6
 41
30.0
 62
     5
 63
     7
421
 16777215
 74
     0
 91
        4
 64
     7
 65
   257
 75
     1
175
     1
 42
1.0
 92
        0
 66
     7
 43
1.0
 76
     1
 77
     6
 78
     2
 67
     7
 79
     5
170
     0
171
     0
290
     0
174
     0
 93
       13
 44
0.0
173
     0
291
     1
 45
0.0
  0
VISUALSTYLE
  5
2E
102
{ACAD_REACTORS
330
2A
102
}
330
2A
100
AcDbVisualStyle
  2
GouraudWithEdges
 70
     3
 71
     2
 72
     2
 73
     1
 90
        2
 40
-0.6
 41
30.0
 62
     5
 63
     7
421
 16777215
 74
     1
 91
        4
 64
     7
 65
   257
 75
     1
175
     1
 42
1.0
 92
        0
 66
   257
 43
1.0
 76
     1
 77
     6
 78
     2
 67
     7
 79
     5
170
     0
171
     0
290
     0
174
     0
 93
       13
 44
0.0
173
     0
291
     1
 45
0.0
  0
VISUALSTYLE
  5
38
102
{ACAD_REACTORS
330
2A
102
}
330
2A
100
AcDbVisualStyle
  2
Linepattern
 70
    14
 71
     2
 72
     2
 73
     0
 90
        0
 40
-0.6
 41
-30.0
 62
     5
 63
     7
421
 16777215
 74
     1
 91
        4
 64
     7
 65
   257
 75
     7
175
     7
 42
1.0
 92
        8
 66
     7
 43
1.0
 76
     1
 77
     6
 78
     2
 67
     7
 79
     5
170
     0
171
     0
290
     0
174
     0
 93
        1
 44
0.0
173
     0
291
     1
 45
0.0
  0
VISUALSTYLE
  5
33
102
{ACAD_REACTORS
330
2A
102
}
330
2A
100
AcDbVisualStyle
  2
Realistic
 70
     8
 71
     2
 72
     2
 73
     0
 90
        0
 40
-0.6
 41
-30.0
 62
     5
 63
     7
421
 16777215
 74
     1
 91
        0
 64
     7
 65
   257
 75
     1
175
     1
 42
1.0
 92
        8
 66
     8
424
  7895160
 43
1.0
 76
     1
 77
     6
 78
     2
 67
     7
 79
     5
170
     0
171
     0
290
     0
174
     0
 93
       13
 44
0.0
173
     0
291
     0
 45
0.0
  0
VISUALSTYLE
  5
37
102
{ACAD_REACTORS
330
2A
102
}
330
2A
100
AcDbVisualStyle
  2
Thicken
 70
    13
 71
     2
 72
     2
 73
     0
 90
        0
 40
-0.6
 41
-30.0
 62
     5
 63
     7
421
 16777215
 74
     1
 91
        4
 64
     7
 65
   257
 75
     1
175
     1
 42
1.0
 92
       12
 66
     7
 43
1.0
 76
     1
 77
     6
 78
     2
 67
     7
 79
     5
170
     0
171
     0
290
     0
174
     0
 93
        1
 44
0.0
173
     0
291
     1
 45
0.0
  0
ENDSEC
  0
EOF
