  0
SECTION
  2
HEADER
  9
$ACADVER
  1
AC1021
  9
$ACADMAINTVER
 70
    25
  9
$DWGCODEPAGE
  3
ANSI_1252
  9
$INSBASE
 10
0.0
 20
0.0
 30
0.0
  9
$EXTMIN
 10
-15.17822
 20
-19.52826
 30
0.0
  9
$EXTMAX
 10
-5.82178
 20
-10.17182
 30
0.0
  9
$LIMMIN
 10
0.0
 20
0.0
  9
$LIMMAX
 10
12.0
 20
9.0
  9
$ORTHOMODE
 70
     0
  9
$REGENMODE
 70
     1
  9
$FILLMODE
 70
     1
  9
$QTEXTMODE
 70
     0
  9
$MIRRTEXT
 70
     1
  9
$LTSCALE
 40
1.0
  9
$ATTMODE
 70
     1
  9
$TEXTSIZE
 40
0.2
  9
$TRACEWID
 40
0.05
  9
$TEXTSTYLE
  7
Standard
  9
$CLAYER
  8
0
  9
$CELTYPE
  6
ByLayer
  9
$CECOLOR
 62
   256
  9
$CELTSCALE
 40
1.0
  9
$DISPSILH
 70
     0
  9
$DIMSCALE
 40
1.0
  9
$DIMASZ
 40
0.18
  9
$DIMEXO
 40
0.0625
  9
$DIMDLI
 40
0.38
  9
$DIMRND
 40
0.0
  9
$DIMDLE
 40
0.0
  9
$DIMEXE
 40
0.18
  9
$DIMTP
 40
0.0
  9
$DIMTM
 40
0.0
  9
$DIMTXT
 40
0.18
  9
$DIMCEN
 40
0.09
  9
$DIMTSZ
 40
0.0
  9
$DIMTOL
 70
     0
  9
$DIMLIM
 70
     0
  9
$DIMTIH
 70
     1
  9
$DIMTOH
 70
     1
  9
$DIMSE1
 70
     0
  9
$DIMSE2
 70
     0
  9
$DIMTAD
 70
     0
  9
$DIMZIN
 70
     0
  9
$DIMBLK
  1

  9
$DIMASO
 70
     1
  9
$DIMSHO
 70
     1
  9
$DIMPOST
  1

  9
$DIMAPOST
  1

  9
$DIMALT
 70
     0
  9
$DIMALTD
 70
     2
  9
$DIMALTF
 40
25.4
  9
$DIMLFAC
 40
1.0
  9
$DIMTOFL
 70
     0
  9
$DIMTVP
 40
0.0
  9
$DIMTIX
 70
     0
  9
$DIMSOXD
 70
     0
  9
$DIMSAH
 70
     0
  9
$DIMBLK1
  1

  9
$DIMBLK2
  1

  9
$DIMSTYLE
  2
Standard
  9
$DIMCLRD
 70
     0
  9
$DIMCLRE
 70
     0
  9
$DIMCLRT
 70
     0
  9
$DIMTFAC
 40
1.0
  9
$DIMGAP
 40
0.09
  9
$DIMJUST
 70
     0
  9
$DIMSD1
 70
     0
  9
$DIMSD2
 70
     0
  9
$DIMTOLJ
 70
     1
  9
$DIMTZIN
 70
     0
  9
$DIMALTZ
 70
     0
  9
$DIMALTTZ
 70
     0
  9
$DIMUPT
 70
     0
  9
$DIMDEC
 70
     4
  9
$DIMTDEC
 70
     4
  9
$DIMALTU
 70
     2
  9
$DIMALTTD
 70
     2
  9
$DIMTXSTY
  7
Standard
  9
$DIMAUNIT
 70
     0
  9
$DIMADEC
 70
     0
  9
$DIMALTRND
 40
0.0
  9
$DIMAZIN
 70
     0
  9
$DIMDSEP
 70
    46
  9
$DIMATFIT
 70
     3
  9
$DIMFRAC
 70
     0
  9
$DIMLDRBLK
  1

  9
$DIMLUNIT
 70
     2
  9
$DIMLWD
 70
    -2
  9
$DIMLWE
 70
    -2
  9
$DIMTMOVE
 70
     0
  9
$DIMFXL
 40
1.0
  9
$DIMFXLON
 70
     0
  9
$DIMJOGANG
 40
0.7853981633974483
  9
$DIMTFILL
 70
     0
  9
$DIMTFILLCLR
 70
     0
  9
$DIMARCSYM
 70
     0
  9
$DIMLTYPE
  6

  9
$DIMLTEX1
  6

  9
$DIMLTEX2
  6

  9
$LUNITS
 70
     2
  9
$LUPREC
 70
     4
  9
$SKETCHINC
 40
0.1
  9
$FILLETRAD
 40
0.5
  9
$AUNITS
 70
     0
  9
$AUPREC
 70
     0
  9
$MENU
  1
.
  9
$ELEVATION
 40
0.0
  9
$PELEVATION
 40
0.0
  9
$THICKNESS
 40
0.0
  9
$LIMCHECK
 70
     0
  9
$CHAMFERA
 40
0.5
  9
$CHAMFERB
 40
0.5
  9
$CHAMFERC
 40
1.0
  9
$CHAMFERD
 40
0.0
  9
$SKPOLY
 70
     0
  9
$TDCREATE
 40
2457799.084501898
  9
$TDUCREATE
 40
2457799.084501898
  9
$TDUPDATE
 40
2457799.08450191
  9
$TDUUPDATE
 40
2457799.08450191
  9
$TDINDWG
 40
0.0000000116
  9
$TDUSRTIMER
 40
0.0000000116
  9
$USRTIMER
 70
     1
  9
$ANGBASE
 50
0.0
  9
$ANGDIR
 70
     0
  9
$PDMODE
 70
     0
  9
$PDSIZE
 40
0.0
  9
$PLINEWID
 40
0.0
  9
$SPLFRAME
 70
     0
  9
$SPLINETYPE
 70
     6
  9
$SPLINESEGS
 70
     8
  9
$HANDSEED
  5
72
  9
$SURFTAB1
 70
     6
  9
$SURFTAB2
 70
     6
  9
$SURFTYPE
 70
     6
  9
$SURFU
 70
     6
  9
$SURFV
 70
     6
  9
$UCSBASE
  2

  9
$UCSNAME
  2

  9
$UCSORG
 10
0.0
 20
0.0
 30
0.0
  9
$UCSXDIR
 10
1.0
 20
0.0
 30
0.0
  9
$UCSYDIR
 10
0.0
 20
1.0
 30
0.0
  9
$UCSORTHOREF
  2

  9
$UCSORTHOVIEW
 70
     0
  9
$UCSORGTOP
 10
0.0
 20
0.0
 30
0.0
  9
$UCSORGBOTTOM
 10
0.0
 20
0.0
 30
0.0
  9
$UCSORGLEFT
 10
0.0
 20
0.0
 30
0.0
  9
$UCSORGRIGHT
 10
0.0
 20
0.0
 30
0.0
  9
$UCSORGFRONT
 10
0.0
 20
0.0
 30
0.0
  9
$UCSORGBACK
 10
0.0
 20
0.0
 30
0.0
  9
$PUCSBASE
  2

  9
$PUCSNAME
  2

  9
$PUCSORG
 10
0.0
 20
0.0
 30
0.0
  9
$PUCSXDIR
 10
1.0
 20
0.0
 30
0.0
  9
$PUCSYDIR
 10
0.0
 20
1.0
 30
0.0
  9
$PUCSORTHOREF
  2

  9
$PUCSORTHOVIEW
 70
     0
  9
$PUCSORGTOP
 10
0.0
 20
0.0
 30
0.0
  9
$PUCSORGBOTTOM
 10
0.0
 20
0.0
 30
0.0
  9
$PUCSORGLEFT
 10
0.0
 20
0.0
 30
0.0
  9
$PUCSORGRIGHT
 10
0.0
 20
0.0
 30
0.0
  9
$PUCSORGFRONT
 10
0.0
 20
0.0
 30
0.0
  9
$PUCSORGBACK
 10
0.0
 20
0.0
 30
0.0
  9
$USERI1
 70
     0
  9
$USERI2
 70
     0
  9
$USERI3
 70
     0
  9
$USERI4
 70
     0
  9
$USERI5
 70
     0
  9
$USERR1
 40
0.0
  9
$USERR2
 40
0.0
  9
$USERR3
 40
0.0
  9
$USERR4
 40
0.0
  9
$USERR5
 40
0.0
  9
$WORLDVIEW
 70
     1
  9
$SHADEDGE
 70
     3
  9
$SHADEDIF
 70
    70
  9
$TILEMODE
 70
     1
  9
$MAXACTVP
 70
    64
  9
$PINSBASE
 10
0.0
 20
0.0
 30
0.0
  9
$PLIMCHECK
 70
     0
  9
$PEXTMIN
 10
1.000000000000000E+20
 20
1.000000000000000E+20
 30
1.000000000000000E+20
  9
$PEXTMAX
 10
-1.000000000000000E+20
 20
-1.000000000000000E+20
 30
-1.000000000000000E+20
  9
$PLIMMIN
 10
0.0
 20
0.0
  9
$PLIMMAX
 10
12.0
 20
9.0
  9
$UNITMODE
 70
     0
  9
$VISRETAIN
 70
     1
  9
$PLINEGEN
 70
     0
  9
$PSLTSCALE
 70
     1
  9
$TREEDEPTH
 70
  3020
  9
$CMLSTYLE
  2
Standard
  9
$CMLJUST
 70
     0
  9
$CMLSCALE
 40
1.0
  9
$PROXYGRAPHICS
 70
     1
  9
$MEASUREMENT
 70
     0
  9
$CELWEIGHT
370
    -1
  9
$ENDCAPS
280
     0
  9
$JOINSTYLE
280
     0
  9
$LWDISPLAY
290
     0
  9
$INSUNITS
 70
     5
  9
$HYPERLINKBASE
  1

  9
$STYLESHEET
  1

  9
$XEDIT
290
     1
  9
$CEPSNTYPE
380
     0
  9
$PSTYLEMODE
290
     1
  9
$FINGERPRINTGUID
  2
{53331DDB-F7BB-4741-8D1A-8E3DCB418F19}
  9
$VERSIONGUID
  2
{FAEB1C32-E019-11D5-929B-00C0DF256EC4}
  9
$EXTNAMES
290
     1
  9
$PSVPSCALE
 40
0.0
  9
$OLESTARTUP
290
     0
  9
$SORTENTS
280
   127
  9
$INDEXCTL
280
     0
  9
$HIDETEXT
280
     1
  9
$XCLIPFRAME
290
     0
  9
$HALOGAP
280
     0
  9
$OBSCOLOR
 70
   257
  9
$OBSLTYPE
280
     0
  9
$INTERSECTIONDISPLAY
280
     0
  9
$INTERSECTIONCOLOR
 70
   257
  9
$DIMASSOC
280
     2
  9
$PROJECTNAME
  1

  9
$CAMERADISPLAY
290
     0
  9
$LENSLENGTH
 40
50.0
  9
$CAMERAHEIGHT
 40
0.0
  9
$STEPSPERSEC
 40
2.0
  9
$STEPSIZE
 40
6.0
  9
$3DDWFPREC
 40
2.0
  9
$PSOLWIDTH
 40
0.25
  9
$PSOLHEIGHT
 40
4.0
  9
$LOFTANG1
 40
1.570796326794897
  9
$LOFTANG2
 40
1.570796326794897
  9
$LOFTMAG1
 40
0.0
  9
$LOFTMAG2
 40
0.0
  9
$LOFTPARAM
 70
     7
  9
$LOFTNORMALS
280
     1
  9
$LATITUDE
 40
37.795
  9
$LONGITUDE
 40
-122.394
  9
$NORTHDIRECTION
 40
0.0
  9
$TIMEZONE
 70
 -8000
  9
$LIGHTGLYPHDISPLAY
280
     1
  9
$TILEMODELIGHTSYNCH
280
     1
  9
$SOLIDHIST
280
     1
  9
$SHOWHIST
280
     1
  9
$DWFFRAME
280
     2
  9
$DGNFRAME
280
     2
  9
$REALWORLDSCALE
290
     1
  9
$INTERFERECOLOR
 62
   256
  9
$CSHADOW
280
     0
  9
$SHADOWPLANELOCATION
 40
0.0
  0
ENDSEC
  0
SECTION
  2
CLASSES
  0
CLASS
  1
ACDBDICTIONARYWDFLT
  2
AcDbDictionaryWithDefault
  3
ObjectDBX Classes
 90
        0
 91
        3
280
     0
281
     0
  0
CLASS
  1
VISUALSTYLE
  2
AcDbVisualStyle
  3
ObjectDBX Classes
 90
     4095
 91
        3
280
     0
281
     0
  0
CLASS
  1
SCALE
  2
AcDbScale
  3
ObjectDBX Classes
 90
     1153
 91
        3
280
     0
281
     0
  0
ENDSEC
  0
SECTION
  2
TABLES
  0
TABLE
  2
VPORT
  5
8
330
0
100
AcDbSymbolTable
 70
     1
  0
VPORT
  5
29
330
8
100
AcDbSymbolTableRecord
100
AcDbViewportTableRecord
  2
*Active
 70
     0
 10
0.0
 20
0.0
 11
1.0
 21
1.0
 12
10.42990654205607
 22
4.5
 13
0.0
 23
0.0
 14
0.5
 24
0.5
 15
0.5
 25
0.5
 16
0.0
 26
0.0
 36
1.0
 17
0.0
 27
0.0
 37
0.0
 40
9.0
 41
1.972972972850329
 42
50.0
 43
0.0
 44
0.0
 50
0.0
 51
0.0
 71
     0
 72
   100
 73
     1
 74
     3
 75
     0
 76
     0
 77
     0
 78
     0
281
     0
 65
     1
110
0.0
120
0.0
130
0.0
111
1.0
121
0.0
131
0.0
112
0.0
122
1.0
132
0.0
 79
     0
146
0.0
 60
     3
 61
     5
292
     1
282
     1
141
0.0
142
0.0
 63
   256
  0
ENDTAB
  0
TABLE
  2
LTYPE
  5
5
330
0
100
AcDbSymbolTable
 70
     1
  0
LTYPE
  5
14
330
5
100
AcDbSymbolTableRecord
100
AcDbLinetypeTableRecord
  2
ByBlock
 70
     0
  3

 72
    65
 73
     0
 40
0.0
  0
LTYPE
  5
15
330
5
100
AcDbSymbolTableRecord
100
AcDbLinetypeTableRecord
  2
ByLayer
 70
     0
  3

 72
    65
 73
     0
 40
0.0
  0
LTYPE
  5
16
330
5
100
AcDbSymbolTableRecord
100
AcDbLinetypeTableRecord
  2
Continuous
 70
     0
  3
Solid line
 72
    65
 73
     0
 40
0.0
  0
ENDTAB
  0
TABLE
  2
LAYER
  5
2
330
0
100
AcDbSymbolTable
 70
     2
  0
LAYER
  5
10
330
2
100
AcDbSymbolTableRecord
100
AcDbLayerTableRecord
  2
0
 70
     0
 62
     7
  6
Continuous
370
    -3
390
F
347
0
  0
LAYER
  5
5E
330
2
100
AcDbSymbolTableRecord
100
AcDbLayerTableRecord
  2
Layer 1
 70
     0
 62
     7
  6
Continuous
370
    -3
390
F
347
0
  0
ENDTAB
  0
TABLE
  2
STYLE
  5
3
330
0
100
AcDbSymbolTable
 70
     1
  0
STYLE
  5
11
330
3
100
AcDbSymbolTableRecord
100
AcDbTextStyleTableRecord
  2
Standard
 70
     0
 40
0.0
 41
1.0
 50
0.0
 71
     0
 42
0.2
  3
txt
  4

  0
ENDTAB
  0
TABLE
  2
VIEW
  5
6
330
0
100
AcDbSymbolTable
 70
     0
  0
ENDTAB
  0
TABLE
  2
UCS
  5
7
330
0
100
AcDbSymbolTable
 70
     0
  0
ENDTAB
  0
TABLE
  2
APPID
  5
9
330
0
100
AcDbSymbolTable
 70
     2
  0
APPID
  5
12
330
9
100
AcDbSymbolTableRecord
100
AcDbRegAppTableRecord
  2
ACAD
 70
     0
  0
APPID
  5
5D
330
9
100
AcDbSymbolTableRecord
100
AcDbRegAppTableRecord
  2
ODA
 70
     0
  0
ENDTAB
  0
TABLE
  2
DIMSTYLE
  5
A
330
0
100
AcDbSymbolTable
 70
     1
100
AcDbDimStyleTable
  0
DIMSTYLE
105
27
330
A
100
AcDbSymbolTableRecord
100
AcDbDimStyleTableRecord
  2
Standard
 70
     0
340
11
  0
ENDTAB
  0
TABLE
  2
BLOCK_RECORD
  5
1
330
0
100
AcDbSymbolTable
 70
     1
  0
BLOCK_RECORD
  5
1F
330
1
100
AcDbSymbolTableRecord
100
AcDbBlockTableRecord
  2
*Model_Space
340
22
 70
     0
280
     1
281
     0
  0
BLOCK_RECORD
  5
1B
330
1
100
AcDbSymbolTableRecord
100
AcDbBlockTableRecord
  2
*Paper_Space
340
1E
 70
     0
280
     1
281
     0
  0
BLOCK_RECORD
  5
23
330
1
100
AcDbSymbolTableRecord
100
AcDbBlockTableRecord
  2
*Paper_Space0
340
26
 70
     0
280
     1
281
     0
  0
ENDTAB
  0
ENDSEC
  0
SECTION
  2
BLOCKS
  0
BLOCK
  5
20
330
1F
100
AcDbEntity
  8
0
100
AcDbBlockBegin
  2
*Model_Space
 70
     0
 10
0.0
 20
0.0
 30
0.0
  3
*Model_Space
  1

  0
ENDBLK
  5
21
330
1F
100
AcDbEntity
  8
0
100
AcDbBlockEnd
  0
BLOCK
  5
1C
330
1B
100
AcDbEntity
 67
     1
  8
0
100
AcDbBlockBegin
  2
*Paper_Space
 70
     0
 10
0.0
 20
0.0
 30
0.0
  3
*Paper_Space
  1

  0
ENDBLK
  5
1D
330
1B
100
AcDbEntity
 67
     1
  8
0
100
AcDbBlockEnd
  0
BLOCK
  5
24
330
23
100
AcDbEntity
  8
0
100
AcDbBlockBegin
  2
*Paper_Space0
 70
     0
 10
0.0
 20
0.0
 30
0.0
  3
*Paper_Space0
  1

  0
ENDBLK
  5
25
330
23
100
AcDbEntity
  8
0
100
AcDbBlockEnd
  0
ENDSEC
  0
SECTION
  2
ENTITIES
  0
ELLIPSE
  5
5F
330
1F
100
AcDbEntity
  8
Layer 1
370
    53
100
AcDbEllipse
 10
-10.5
 20
-14.85004
 30
0.0
 11
0.0
 21
4.65
 31
0.0
210
0.0
220
0.0
230
1.0
 40
1.0
 41
0.0
 42
6.283185307179586
  0
SPLINE
  5
60
330
1F
100
AcDbEntity
  8
Layer 1
 62
     5
370
    53
100
AcDbSpline
210
0.0
220
0.0
230
1.0
 70
    11
 71
     3
 72
    36
 73
    32
 74
     0
 42
0.0000000001
 43
0.0000000001
 40
0.0
 40
0.0
 40
0.0
 40
0.0
 40
0.125
 40
0.125
 40
0.125
 40
0.125
 40
0.25
 40
0.25
 40
0.25
 40
0.25
 40
0.375
 40
0.375
 40
0.375
 40
0.375
 40
0.5
 40
0.5
 40
0.5
 40
0.5
 40
0.625
 40
0.625
 40
0.625
 40
0.625
 40
0.75
 40
0.75
 40
0.75
 40
0.75
 40
0.875
 40
0.875
 40
0.875
 40
0.875
 40
1.0
 40
1.0
 40
1.0
 40
1.0
 10
-12.58915
 20
-11.55204
 30
0.0
 10
-12.58915
 20
-11.55204
 30
0.0
 10
-12.65241
 20
-11.39541
 30
0.0
 10
-12.65241
 20
-11.39541
 30
0.0
 10
-12.65241
 20
-11.39541
 30
0.0
 10
-12.65241
 20
-11.39541
 30
0.0
 10
-12.45259
 20
-11.31474
 30
0.0
 10
-12.45259
 20
-11.31474
 30
0.0
 10
-12.45259
 20
-11.31474
 30
0.0
 10
-12.45259
 20
-11.31474
 30
0.0
 10
-12.38933
 20
-11.4713
 30
0.0
 10
-12.38933
 20
-11.4713
 30
0.0
 10
-12.38933
 20
-11.4713
 30
0.0
 10
-12.38933
 20
-11.4713
 30
0.0
 10
-12.50349
 20
-11.1887
 30
0.0
 10
-12.50349
 20
-11.1887
 30
0.0
 10
-12.50349
 20
-11.1887
 30
0.0
 10
-12.50349
 20
-11.1887
 30
0.0
 10
-12.45259
 20
-11.31474
 30
0.0
 10
-12.45259
 20
-11.31474
 30
0.0
 10
-12.45259
 20
-11.31474
 30
0.0
 10
-12.45259
 20
-11.31474
 30
0.0
 10
-12.65241
 20
-11.39541
 30
0.0
 10
-12.65241
 20
-11.39541
 30
0.0
 10
-12.65241
 20
-11.39541
 30
0.0
 10
-12.65241
 20
-11.39541
 30
0.0
 10
-12.70331
 20
-11.26945
 30
0.0
 10
-12.70331
 20
-11.26945
 30
0.0
 10
-12.70331
 20
-11.26945
 30
0.0
 10
-12.70331
 20
-11.26945
 30
0.0
 10
-12.58915
 20
-11.55204
 30
0.0
 10
-12.58915
 20
-11.55204
 30
0.0
  0
SPLINE
  5
61
330
1F
100
AcDbEntity
  8
Layer 1
 62
     5
370
    53
100
AcDbSpline
210
0.0
220
0.0
230
1.0
 70
    11
 71
     3
 72
    84
 73
    80
 74
     0
 42
0.0000000001
 43
0.0000000001
 40
0.0
 40
0.0
 40
0.0
 40
0.0
 40
0.05
 40
0.05
 40
0.05
 40
0.05
 40
0.1
 40
0.1
 40
0.1
 40
0.1
 40
0.15
 40
0.15
 40
0.15
 40
0.15
 40
0.2
 40
0.2
 40
0.2
 40
0.2
 40
0.25
 40
0.25
 40
0.25
 40
0.25
 40
0.3
 40
0.3
 40
0.3
 40
0.3
 40
0.35
 40
0.35
 40
0.35
 40
0.35
 40
0.4
 40
0.4
 40
0.4
 40
0.4
 40
0.45
 40
0.45
 40
0.45
 40
0.45
 40
0.4999999999999999
 40
0.4999999999999999
 40
0.4999999999999999
 40
0.4999999999999999
 40
0.5499999999999999
 40
0.5499999999999999
 40
0.5499999999999999
 40
0.5499999999999999
 40
0.6
 40
0.6
 40
0.6
 40
0.6
 40
0.65
 40
0.65
 40
0.65
 40
0.65
 40
0.7000000000000001
 40
0.7000000000000001
 40
0.7000000000000001
 40
0.7000000000000001
 40
0.7500000000000001
 40
0.7500000000000001
 40
0.7500000000000001
 40
0.7500000000000001
 40
0.8000000000000002
 40
0.8000000000000002
 40
0.8000000000000002
 40
0.8000000000000002
 40
0.8500000000000002
 40
0.8500000000000002
 40
0.8500000000000002
 40
0.8500000000000002
 40
0.9000000000000002
 40
0.9000000000000002
 40
0.9000000000000002
 40
0.9000000000000002
 40
0.9500000000000003
 40
0.9500000000000003
 40
0.9500000000000003
 40
0.9500000000000003
 40
1.0
 40
1.0
 40
1.0
 40
1.0
 10
-12.12404
 20
-11.36297
 30
0.0
 10
-12.11023
 20
-11.35745
 30
0.0
 10
-12.09775
 20
-11.35057
 30
0.0
 10
-12.0866
 20
-11.34227
 30
0.0
 10
-12.0866
 20
-11.34227
 30
0.0
 10
-12.07545
 20
-11.33405
 30
0.0
 10
-12.06612
 20
-11.32432
 30
0.0
 10
-12.05854
 20
-11.31303
 30
0.0
 10
-12.05854
 20
-11.31303
 30
0.0
 10
-12.05104
 20
-11.3018
 30
0.0
 10
-12.04571
 20
-11.28893
 30
0.0
 10
-12.04269
 20
-11.2745
 30
0.0
 10
-12.04269
 20
-11.2745
 30
0.0
 10
-12.0396
 20
-11.26006
 30
0.0
 10
-12.03932
 20
-11.24383
 30
0.0
 10
-12.04163
 20
-11.22589
 30
0.0
 10
-12.04163
 20
-11.22589
 30
0.0
 10
-12.04401
 20
-11.20795
 30
0.0
 10
-12.04955
 20
-11.18822
 30
0.0
 10
-12.05818
 20
-11.16655
 30
0.0
 10
-12.05818
 20
-11.16655
 30
0.0
 10
-12.06695
 20
-11.14495
 30
0.0
 10
-12.07675
 20
-11.12687
 30
0.0
 10
-12.08756
 20
-11.11225
 30
0.0
 10
-12.08756
 20
-11.11225
 30
0.0
 10
-12.09837
 20
-11.09769
 30
0.0
 10
-12.10984
 20
-11.08616
 30
0.0
 10
-12.12211
 20
-11.0778
 30
0.0
 10
-12.12211
 20
-11.0778
 30
0.0
 10
-12.13439
 20
-11.06943
 30
0.0
 10
-12.14718
 20
-11.06382
 30
0.0
 10
-12.16042
 20
-11.06088
 30
0.0
 10
-12.16042
 20
-11.06088
 30
0.0
 10
-12.17373
 20
-11.05802
 30
0.0
 10
-12.1872
 20
-11.0574
 30
0.0
 10
-12.20097
 20
-11.05911
 30
0.0
 10
-12.20097
 20
-11.05911
 30
0.0
 10
-12.21475
 20
-11.0609
 30
0.0
 10
-12.22854
 20
-11.06459
 30
0.0
 10
-12.24235
 20
-11.07018
 30
0.0
 10
-12.24235
 20
-11.07018
 30
0.0
 10
-12.25616
 20
-11.0757
 30
0.0
 10
-12.26863
 20
-11.08266
 30
0.0
 10
-12.27971
 20
-11.09095
 30
0.0
 10
-12.27971
 20
-11.09095
 30
0.0
 10
-12.29087
 20
-11.09925
 30
0.0
 10
-12.30012
 20
-11.10905
 30
0.0
 10
-12.30762
 20
-11.12041
 30
0.0
 10
-12.30762
 20
-11.12041
 30
0.0
 10
-12.31521
 20
-11.13171
 30
0.0
 10
-12.32047
 20
-11.14464
 30
0.0
 10
-12.32349
 20
-11.15915
 30
0.0
 10
-12.32349
 20
-11.15915
 30
0.0
 10
-12.32651
 20
-11.17373
 30
0.0
 10
-12.32679
 20
-11.18996
 30
0.0
 10
-12.3244
 20
-11.20797
 30
0.0
 10
-12.3244
 20
-11.20797
 30
0.0
 10
-12.32203
 20
-11.22592
 30
0.0
 10
-12.31648
 20
-11.24572
 30
0.0
 10
-12.30785
 20
-11.26739
 30
0.0
 10
-12.30785
 20
-11.26739
 30
0.0
 10
-12.29901
 20
-11.28898
 30
0.0
 10
-12.28929
 20
-11.30706
 30
0.0
 10
-12.27848
 20
-11.32162
 30
0.0
 10
-12.27848
 20
-11.32162
 30
0.0
 10
-12.26773
 20
-11.33611
 30
0.0
 10
-12.25627
 20
-11.34756
 30
0.0
 10
-12.24399
 20
-11.35585
 30
0.0
 10
-12.24399
 20
-11.35585
 30
0.0
 10
-12.23179
 20
-11.36415
 30
0.0
 10
-12.21899
 20
-11.36969
 30
0.0
 10
-12.20583
 20
-11.37249
 30
0.0
 10
-12.20583
 20
-11.37249
 30
0.0
 10
-12.19258
 20
-11.37536
 30
0.0
 10
-12.17905
 20
-11.3759
 30
0.0
 10
-12.16534
 20
-11.37411
 30
0.0
 10
-12.16534
 20
-11.37411
 30
0.0
 10
-12.15156
 20
-11.37233
 30
0.0
 10
-12.13777
 20
-11.36856
 30
0.0
 10
-12.12404
 20
-11.36297
 30
0.0
  0
SPLINE
  5
62
330
1F
100
AcDbEntity
  8
Layer 1
 62
     5
370
    53
100
AcDbSpline
210
0.0
220
0.0
230
1.0
 70
    11
 71
     3
 72
    84
 73
    80
 74
     0
 42
0.0000000001
 43
0.0000000001
 40
0.0
 40
0.0
 40
0.0
 40
0.0
 40
0.05
 40
0.05
 40
0.05
 40
0.05
 40
0.1
 40
0.1
 40
0.1
 40
0.1
 40
0.15
 40
0.15
 40
0.15
 40
0.15
 40
0.2
 40
0.2
 40
0.2
 40
0.2
 40
0.25
 40
0.25
 40
0.25
 40
0.25
 40
0.3
 40
0.3
 40
0.3
 40
0.3
 40
0.35
 40
0.35
 40
0.35
 40
0.35
 40
0.4
 40
0.4
 40
0.4
 40
0.4
 40
0.45
 40
0.45
 40
0.45
 40
0.45
 40
0.4999999999999999
 40
0.4999999999999999
 40
0.4999999999999999
 40
0.4999999999999999
 40
0.5499999999999999
 40
0.5499999999999999
 40
0.5499999999999999
 40
0.5499999999999999
 40
0.6
 40
0.6
 40
0.6
 40
0.6
 40
0.65
 40
0.65
 40
0.65
 40
0.65
 40
0.7000000000000001
 40
0.7000000000000001
 40
0.7000000000000001
 40
0.7000000000000001
 40
0.7500000000000001
 40
0.7500000000000001
 40
0.7500000000000001
 40
0.7500000000000001
 40
0.8000000000000002
 40
0.8000000000000002
 40
0.8000000000000002
 40
0.8000000000000002
 40
0.8500000000000002
 40
0.8500000000000002
 40
0.8500000000000002
 40
0.8500000000000002
 40
0.9000000000000002
 40
0.9000000000000002
 40
0.9000000000000002
 40
0.9000000000000002
 40
0.9500000000000003
 40
0.9500000000000003
 40
0.9500000000000003
 40
0.9500000000000003
 40
1.0
 40
1.0
 40
1.0
 40
1.0
 10
-12.12404
 20
-11.36297
 30
0.0
 10
-12.11023
 20
-11.35745
 30
0.0
 10
-12.09775
 20
-11.35057
 30
0.0
 10
-12.0866
 20
-11.34227
 30
0.0
 10
-12.0866
 20
-11.34227
 30
0.0
 10
-12.07545
 20
-11.33405
 30
0.0
 10
-12.06612
 20
-11.32432
 30
0.0
 10
-12.05854
 20
-11.31303
 30
0.0
 10
-12.05854
 20
-11.31303
 30
0.0
 10
-12.05104
 20
-11.3018
 30
0.0
 10
-12.04571
 20
-11.28893
 30
0.0
 10
-12.04269
 20
-11.2745
 30
0.0
 10
-12.04269
 20
-11.2745
 30
0.0
 10
-12.0396
 20
-11.26006
 30
0.0
 10
-12.03932
 20
-11.24383
 30
0.0
 10
-12.04163
 20
-11.22589
 30
0.0
 10
-12.04163
 20
-11.22589
 30
0.0
 10
-12.04401
 20
-11.20795
 30
0.0
 10
-12.04955
 20
-11.18822
 30
0.0
 10
-12.05818
 20
-11.16655
 30
0.0
 10
-12.05818
 20
-11.16655
 30
0.0
 10
-12.06695
 20
-11.14495
 30
0.0
 10
-12.07675
 20
-11.12687
 30
0.0
 10
-12.08756
 20
-11.11225
 30
0.0
 10
-12.08756
 20
-11.11225
 30
0.0
 10
-12.09837
 20
-11.09769
 30
0.0
 10
-12.10984
 20
-11.08616
 30
0.0
 10
-12.12211
 20
-11.0778
 30
0.0
 10
-12.12211
 20
-11.0778
 30
0.0
 10
-12.13439
 20
-11.06943
 30
0.0
 10
-12.14718
 20
-11.06382
 30
0.0
 10
-12.16042
 20
-11.06088
 30
0.0
 10
-12.16042
 20
-11.06088
 30
0.0
 10
-12.17373
 20
-11.05802
 30
0.0
 10
-12.1872
 20
-11.0574
 30
0.0
 10
-12.20097
 20
-11.05911
 30
0.0
 10
-12.20097
 20
-11.05911
 30
0.0
 10
-12.21475
 20
-11.0609
 30
0.0
 10
-12.22854
 20
-11.06459
 30
0.0
 10
-12.24235
 20
-11.07018
 30
0.0
 10
-12.24235
 20
-11.07018
 30
0.0
 10
-12.25616
 20
-11.0757
 30
0.0
 10
-12.26863
 20
-11.08266
 30
0.0
 10
-12.27971
 20
-11.09095
 30
0.0
 10
-12.27971
 20
-11.09095
 30
0.0
 10
-12.29087
 20
-11.09925
 30
0.0
 10
-12.30012
 20
-11.10905
 30
0.0
 10
-12.30762
 20
-11.12041
 30
0.0
 10
-12.30762
 20
-11.12041
 30
0.0
 10
-12.31521
 20
-11.13171
 30
0.0
 10
-12.32047
 20
-11.14464
 30
0.0
 10
-12.32349
 20
-11.15915
 30
0.0
 10
-12.32349
 20
-11.15915
 30
0.0
 10
-12.32651
 20
-11.17373
 30
0.0
 10
-12.32679
 20
-11.18996
 30
0.0
 10
-12.3244
 20
-11.20797
 30
0.0
 10
-12.3244
 20
-11.20797
 30
0.0
 10
-12.32203
 20
-11.22592
 30
0.0
 10
-12.31648
 20
-11.24572
 30
0.0
 10
-12.30785
 20
-11.26739
 30
0.0
 10
-12.30785
 20
-11.26739
 30
0.0
 10
-12.29901
 20
-11.28898
 30
0.0
 10
-12.28929
 20
-11.30706
 30
0.0
 10
-12.27848
 20
-11.32162
 30
0.0
 10
-12.27848
 20
-11.32162
 30
0.0
 10
-12.26773
 20
-11.33611
 30
0.0
 10
-12.25627
 20
-11.34756
 30
0.0
 10
-12.24399
 20
-11.35585
 30
0.0
 10
-12.24399
 20
-11.35585
 30
0.0
 10
-12.23179
 20
-11.36415
 30
0.0
 10
-12.21899
 20
-11.36969
 30
0.0
 10
-12.20583
 20
-11.37249
 30
0.0
 10
-12.20583
 20
-11.37249
 30
0.0
 10
-12.19258
 20
-11.37536
 30
0.0
 10
-12.17905
 20
-11.3759
 30
0.0
 10
-12.16534
 20
-11.37411
 30
0.0
 10
-12.16534
 20
-11.37411
 30
0.0
 10
-12.15156
 20
-11.37233
 30
0.0
 10
-12.13777
 20
-11.36856
 30
0.0
 10
-12.12404
 20
-11.36297
 30
0.0
  0
SPLINE
  5
63
330
1F
100
AcDbEntity
  8
Layer 1
 62
     5
370
    53
100
AcDbSpline
210
0.0
220
0.0
230
1.0
 70
    27
 71
     3
 72
    12
 73
     8
 74
     0
 42
0.0000000001
 43
0.0000000001
 40
0.0
 40
0.0
 40
0.0
 40
0.0
 40
0.5
 40
0.5
 40
0.5
 40
0.5
 40
1.0
 40
1.0
 40
1.0
 40
1.0
 10
-11.96423
 20
-11.12002
 30
0.0
 10
-11.96423
 20
-11.12002
 30
0.0
 10
-11.85001
 20
-11.07388
 30
0.0
 10
-11.85001
 20
-11.07388
 30
0.0
 10
-11.85001
 20
-11.07388
 30
0.0
 10
-11.85001
 20
-11.07388
 30
0.0
 10
-11.96423
 20
-11.12002
 30
0.0
 10
-11.96423
 20
-11.12002
 30
0.0
  0
SPLINE
  5
64
330
1F
100
AcDbEntity
  8
Layer 1
 62
     5
370
    53
100
AcDbSpline
210
0.0
220
0.0
230
1.0
 70
    11
 71
     3
 72
    84
 73
    80
 74
     0
 42
0.0000000001
 43
0.0000000001
 40
0.0
 40
0.0
 40
0.0
 40
0.0
 40
0.05
 40
0.05
 40
0.05
 40
0.05
 40
0.1
 40
0.1
 40
0.1
 40
0.1
 40
0.15
 40
0.15
 40
0.15
 40
0.15
 40
0.2
 40
0.2
 40
0.2
 40
0.2
 40
0.25
 40
0.25
 40
0.25
 40
0.25
 40
0.3
 40
0.3
 40
0.3
 40
0.3
 40
0.35
 40
0.35
 40
0.35
 40
0.35
 40
0.4
 40
0.4
 40
0.4
 40
0.4
 40
0.45
 40
0.45
 40
0.45
 40
0.45
 40
0.4999999999999999
 40
0.4999999999999999
 40
0.4999999999999999
 40
0.4999999999999999
 40
0.5499999999999999
 40
0.5499999999999999
 40
0.5499999999999999
 40
0.5499999999999999
 40
0.6
 40
0.6
 40
0.6
 40
0.6
 40
0.65
 40
0.65
 40
0.65
 40
0.65
 40
0.7000000000000001
 40
0.7000000000000001
 40
0.7000000000000001
 40
0.7000000000000001
 40
0.7500000000000001
 40
0.7500000000000001
 40
0.7500000000000001
 40
0.7500000000000001
 40
0.8000000000000002
 40
0.8000000000000002
 40
0.8000000000000002
 40
0.8000000000000002
 40
0.8500000000000002
 40
0.8500000000000002
 40
0.8500000000000002
 40
0.8500000000000002
 40
0.9000000000000002
 40
0.9000000000000002
 40
0.9000000000000002
 40
0.9000000000000002
 40
0.9500000000000003
 40
0.9500000000000003
 40
0.9500000000000003
 40
0.9500000000000003
 40
1.0
 40
1.0
 40
1.0
 40
1.0
 10
-11.61551
 20
-11.14916
 30
0.0
 10
-11.60177
 20
-11.14357
 30
0.0
 10
-11.59091
 20
-11.13639
 30
0.0
 10
-11.58301
 20
-11.12771
 30
0.0
 10
-11.58301
 20
-11.12771
 30
0.0
 10
-11.57503
 20
-11.11896
 30
0.0
 10
-11.56958
 20
-11.109
 30
0.0
 10
-11.56652
 20
-11.09773
 30
0.0
 10
-11.56652
 20
-11.09773
 30
0.0
 10
-11.56352
 20
-11.08646
 30
0.0
 10
-11.5625
 20
-11.0742
 30
0.0
 10
-11.56352
 20
-11.06093
 30
0.0
 10
-11.56352
 20
-11.06093
 30
0.0
 10
-11.56453
 20
-11.04765
 30
0.0
 10
-11.56709
 20
-11.03366
 30
0.0
 10
-11.57126
 20
-11.01894
 30
0.0
 10
-11.57126
 20
-11.01894
 30
0.0
 10
-11.57537
 20
-11.00416
 30
0.0
 10
-11.58067
 20
-10.98902
 30
0.0
 10
-11.58702
 20
-10.9733
 30
0.0
 10
-11.58702
 20
-10.9733
 30
0.0
 10
-11.59331
 20
-10.95772
 30
0.0
 10
-11.60002
 20
-10.94313
 30
0.0
 10
-11.60732
 20
-10.92973
 30
0.0
 10
-11.60732
 20
-10.92973
 30
0.0
 10
-11.61454
 20
-10.91626
 30
0.0
 10
-11.62241
 20
-10.90441
 30
0.0
 10
-11.63092
 20
-10.89417
 30
0.0
 10
-11.63092
 20
-10.89417
 30
0.0
 10
-11.63944
 20
-10.88386
 30
0.0
 10
-11.64869
 20
-10.87574
 30
0.0
 10
-11.65865
 20
-10.86973
 30
0.0
 10
-11.65865
 20
-10.86973
 30
0.0
 10
-11.66869
 20
-10.86371
 30
0.0
 10
-11.6796
 20
-10.86031
 30
0.0
 10
-11.69131
 20
-10.8595
 30
0.0
 10
-11.69131
 20
-10.8595
 30
0.0
 10
-11.70308
 20
-10.85875
 30
0.0
 10
-11.71587
 20
-10.86112
 30
0.0
 10
-11.72968
 20
-10.86657
 30
0.0
 10
-11.72968
 20
-10.86657
 30
0.0
 10
-11.74342
 20
-10.87224
 30
0.0
 10
-11.75427
 20
-10.87941
 30
0.0
 10
-11.76218
 20
-10.88816
 30
0.0
 10
-11.76218
 20
-10.88816
 30
0.0
 10
-11.77009
 20
-10.89691
 30
0.0
 10
-11.77561
 20
-10.90688
 30
0.0
 10
-11.7786
 20
-10.91815
 30
0.0
 10
-11.7786
 20
-10.91815
 30
0.0
 10
-11.78159
 20
-10.92947
 30
0.0
 10
-11.78261
 20
-10.94174
 30
0.0
 10
-11.7816
 20
-10.95502
 30
0.0
 10
-11.7816
 20
-10.95502
 30
0.0
 10
-11.78059
 20
-10.96829
 30
0.0
 10
-11.77803
 20
-10.98228
 30
0.0
 10
-11.77385
 20
-10.99699
 30
0.0
 10
-11.77385
 20
-10.99699
 30
0.0
 10
-11.76975
 20
-11.01171
 30
0.0
 10
-11.76452
 20
-11.02685
 30
0.0
 10
-11.75817
 20
-11.04244
 30
0.0
 10
-11.75817
 20
-11.04244
 30
0.0
 10
-11.75189
 20
-11.05815
 30
0.0
 10
-11.7451
 20
-11.07274
 30
0.0
 10
-11.7378
 20
-11.08622
 30
0.0
 10
-11.7378
 20
-11.08622
 30
0.0
 10
-11.73058
 20
-11.09968
 30
0.0
 10
-11.72271
 20
-11.1116
 30
0.0
 10
-11.71419
 20
-11.12184
 30
0.0
 10
-11.71419
 20
-11.12184
 30
0.0
 10
-11.70575
 20
-11.13207
 30
0.0
 10
-11.69644
 20
-11.1402
 30
0.0
 10
-11.68646
 20
-11.14614
 30
0.0
 10
-11.68646
 20
-11.14614
 30
0.0
 10
-11.6765
 20
-11.15216
 30
0.0
 10
-11.66559
 20
-11.15556
 30
0.0
 10
-11.65382
 20
-11.1563
 30
0.0
 10
-11.65382
 20
-11.1563
 30
0.0
 10
-11.64211
 20
-11.15704
 30
0.0
 10
-11.62931
 20
-11.15468
 30
0.0
 10
-11.61551
 20
-11.14916
 30
0.0
  0
SPLINE
  5
65
330
1F
100
AcDbEntity
  8
Layer 1
 62
     5
370
    53
100
AcDbSpline
210
0.0
220
0.0
230
1.0
 70
    11
 71
     3
 72
    84
 73
    80
 74
     0
 42
0.0000000001
 43
0.0000000001
 40
0.0
 40
0.0
 40
0.0
 40
0.0
 40
0.05
 40
0.05
 40
0.05
 40
0.05
 40
0.1
 40
0.1
 40
0.1
 40
0.1
 40
0.15
 40
0.15
 40
0.15
 40
0.15
 40
0.2
 40
0.2
 40
0.2
 40
0.2
 40
0.25
 40
0.25
 40
0.25
 40
0.25
 40
0.3
 40
0.3
 40
0.3
 40
0.3
 40
0.35
 40
0.35
 40
0.35
 40
0.35
 40
0.4
 40
0.4
 40
0.4
 40
0.4
 40
0.45
 40
0.45
 40
0.45
 40
0.45
 40
0.4999999999999999
 40
0.4999999999999999
 40
0.4999999999999999
 40
0.4999999999999999
 40
0.5499999999999999
 40
0.5499999999999999
 40
0.5499999999999999
 40
0.5499999999999999
 40
0.6
 40
0.6
 40
0.6
 40
0.6
 40
0.65
 40
0.65
 40
0.65
 40
0.65
 40
0.7000000000000001
 40
0.7000000000000001
 40
0.7000000000000001
 40
0.7000000000000001
 40
0.7500000000000001
 40
0.7500000000000001
 40
0.7500000000000001
 40
0.7500000000000001
 40
0.8000000000000002
 40
0.8000000000000002
 40
0.8000000000000002
 40
0.8000000000000002
 40
0.8500000000000002
 40
0.8500000000000002
 40
0.8500000000000002
 40
0.8500000000000002
 40
0.9000000000000002
 40
0.9000000000000002
 40
0.9000000000000002
 40
0.9000000000000002
 40
0.9500000000000003
 40
0.9500000000000003
 40
0.9500000000000003
 40
0.9500000000000003
 40
1.0
 40
1.0
 40
1.0
 40
1.0
 10
-11.61551
 20
-11.14916
 30
0.0
 10
-11.60177
 20
-11.14357
 30
0.0
 10
-11.59091
 20
-11.13639
 30
0.0
 10
-11.58301
 20
-11.12771
 30
0.0
 10
-11.58301
 20
-11.12771
 30
0.0
 10
-11.57503
 20
-11.11896
 30
0.0
 10
-11.56958
 20
-11.109
 30
0.0
 10
-11.56652
 20
-11.09773
 30
0.0
 10
-11.56652
 20
-11.09773
 30
0.0
 10
-11.56352
 20
-11.08646
 30
0.0
 10
-11.5625
 20
-11.0742
 30
0.0
 10
-11.56352
 20
-11.06093
 30
0.0
 10
-11.56352
 20
-11.06093
 30
0.0
 10
-11.56453
 20
-11.04765
 30
0.0
 10
-11.56709
 20
-11.03366
 30
0.0
 10
-11.57126
 20
-11.01894
 30
0.0
 10
-11.57126
 20
-11.01894
 30
0.0
 10
-11.57537
 20
-11.00416
 30
0.0
 10
-11.58067
 20
-10.98902
 30
0.0
 10
-11.58702
 20
-10.9733
 30
0.0
 10
-11.58702
 20
-10.9733
 30
0.0
 10
-11.59331
 20
-10.95772
 30
0.0
 10
-11.60002
 20
-10.94313
 30
0.0
 10
-11.60732
 20
-10.92973
 30
0.0
 10
-11.60732
 20
-10.92973
 30
0.0
 10
-11.61454
 20
-10.91626
 30
0.0
 10
-11.62241
 20
-10.90441
 30
0.0
 10
-11.63092
 20
-10.89417
 30
0.0
 10
-11.63092
 20
-10.89417
 30
0.0
 10
-11.63944
 20
-10.88386
 30
0.0
 10
-11.64869
 20
-10.87574
 30
0.0
 10
-11.65865
 20
-10.86973
 30
0.0
 10
-11.65865
 20
-10.86973
 30
0.0
 10
-11.66869
 20
-10.86371
 30
0.0
 10
-11.6796
 20
-10.86031
 30
0.0
 10
-11.69131
 20
-10.8595
 30
0.0
 10
-11.69131
 20
-10.8595
 30
0.0
 10
-11.70308
 20
-10.85875
 30
0.0
 10
-11.71587
 20
-10.86112
 30
0.0
 10
-11.72968
 20
-10.86657
 30
0.0
 10
-11.72968
 20
-10.86657
 30
0.0
 10
-11.74342
 20
-10.87224
 30
0.0
 10
-11.75427
 20
-10.87941
 30
0.0
 10
-11.76218
 20
-10.88816
 30
0.0
 10
-11.76218
 20
-10.88816
 30
0.0
 10
-11.77009
 20
-10.89691
 30
0.0
 10
-11.77561
 20
-10.90688
 30
0.0
 10
-11.7786
 20
-10.91815
 30
0.0
 10
-11.7786
 20
-10.91815
 30
0.0
 10
-11.78159
 20
-10.92947
 30
0.0
 10
-11.78261
 20
-10.94174
 30
0.0
 10
-11.7816
 20
-10.95502
 30
0.0
 10
-11.7816
 20
-10.95502
 30
0.0
 10
-11.78059
 20
-10.96829
 30
0.0
 10
-11.77803
 20
-10.98228
 30
0.0
 10
-11.77385
 20
-10.99699
 30
0.0
 10
-11.77385
 20
-10.99699
 30
0.0
 10
-11.76975
 20
-11.01171
 30
0.0
 10
-11.76452
 20
-11.02685
 30
0.0
 10
-11.75817
 20
-11.04244
 30
0.0
 10
-11.75817
 20
-11.04244
 30
0.0
 10
-11.75189
 20
-11.05815
 30
0.0
 10
-11.7451
 20
-11.07274
 30
0.0
 10
-11.7378
 20
-11.08622
 30
0.0
 10
-11.7378
 20
-11.08622
 30
0.0
 10
-11.73058
 20
-11.09968
 30
0.0
 10
-11.72271
 20
-11.1116
 30
0.0
 10
-11.71419
 20
-11.12184
 30
0.0
 10
-11.71419
 20
-11.12184
 30
0.0
 10
-11.70575
 20
-11.13207
 30
0.0
 10
-11.69644
 20
-11.1402
 30
0.0
 10
-11.68646
 20
-11.14614
 30
0.0
 10
-11.68646
 20
-11.14614
 30
0.0
 10
-11.6765
 20
-11.15216
 30
0.0
 10
-11.66559
 20
-11.15556
 30
0.0
 10
-11.65382
 20
-11.1563
 30
0.0
 10
-11.65382
 20
-11.1563
 30
0.0
 10
-11.64211
 20
-11.15704
 30
0.0
 10
-11.62931
 20
-11.15468
 30
0.0
 10
-11.61551
 20
-11.14916
 30
0.0
  0
SPLINE
  5
66
330
1F
100
AcDbEntity
  8
Layer 1
 62
     5
370
    53
100
AcDbSpline
210
0.0
220
0.0
230
1.0
 70
    11
 71
     3
 72
   180
 73
   176
 74
     0
 42
0.0000000001
 43
0.0000000001
 40
0.0
 40
0.0
 40
0.0
 40
0.0
 40
0.0227272727272727
 40
0.0227272727272727
 40
0.0227272727272727
 40
0.0227272727272727
 40
0.0454545454545455
 40
0.0454545454545455
 40
0.0454545454545455
 40
0.0454545454545455
 40
0.0681818181818182
 40
0.0681818181818182
 40
0.0681818181818182
 40
0.0681818181818182
 40
0.0909090909090909
 40
0.0909090909090909
 40
0.0909090909090909
 40
0.0909090909090909
 40
0.1136363636363636
 40
0.1136363636363636
 40
0.1136363636363636
 40
0.1136363636363636
 40
0.1363636363636364
 40
0.1363636363636364
 40
0.1363636363636364
 40
0.1363636363636364
 40
0.1590909090909091
 40
0.1590909090909091
 40
0.1590909090909091
 40
0.1590909090909091
 40
0.1818181818181819
 40
0.1818181818181819
 40
0.1818181818181819
 40
0.1818181818181819
 40
0.2045454545454546
 40
0.2045454545454546
 40
0.2045454545454546
 40
0.2045454545454546
 40
0.2272727272727273
 40
0.2272727272727273
 40
0.2272727272727273
 40
0.2272727272727273
 40
0.2500000000000001
 40
0.2500000000000001
 40
0.2500000000000001
 40
0.2500000000000001
 40
0.2727272727272728
 40
0.2727272727272728
 40
0.2727272727272728
 40
0.2727272727272728
 40
0.2954545454545455
 40
0.2954545454545455
 40
0.2954545454545455
 40
0.2954545454545455
 40
0.3181818181818182
 40
0.3181818181818182
 40
0.3181818181818182
 40
0.3181818181818182
 40
0.3409090909090909
 40
0.3409090909090909
 40
0.3409090909090909
 40
0.3409090909090909
 40
0.3636363636363636
 40
0.3636363636363636
 40
0.3636363636363636
 40
0.3636363636363636
 40
0.3863636363636363
 40
0.3863636363636363
 40
0.3863636363636363
 40
0.3863636363636363
 40
0.409090909090909
 40
0.409090909090909
 40
0.409090909090909
 40
0.409090909090909
 40
0.4318181818181817
 40
0.4318181818181817
 40
0.4318181818181817
 40
0.4318181818181817
 40
0.4545454545454544
 40
0.4545454545454544
 40
0.4545454545454544
 40
0.4545454545454544
 40
0.4772727272727271
 40
0.4772727272727271
 40
0.4772727272727271
 40
0.4772727272727271
 40
0.4999999999999998
 40
0.4999999999999998
 40
0.4999999999999998
 40
0.4999999999999998
 40
0.5227272727272726
 40
0.5227272727272726
 40
0.5227272727272726
 40
0.5227272727272726
 40
0.5454545454545453
 40
0.5454545454545453
 40
0.5454545454545453
 40
0.5454545454545453
 40
0.568181818181818
 40
0.568181818181818
 40
0.568181818181818
 40
0.568181818181818
 40
0.5909090909090907
 40
0.5909090909090907
 40
0.5909090909090907
 40
0.5909090909090907
 40
0.6136363636363634
 40
0.6136363636363634
 40
0.6136363636363634
 40
0.6136363636363634
 40
0.6363636363636361
 40
0.6363636363636361
 40
0.6363636363636361
 40
0.6363636363636361
 40
0.6590909090909088
 40
0.6590909090909088
 40
0.6590909090909088
 40
0.6590909090909088
 40
0.6818181818181815
 40
0.6818181818181815
 40
0.6818181818181815
 40
0.6818181818181815
 40
0.7045454545454543
 40
0.7045454545454543
 40
0.7045454545454543
 40
0.7045454545454543
 40
0.727272727272727
 40
0.727272727272727
 40
0.727272727272727
 40
0.727272727272727
 40
0.7499999999999997
 40
0.7499999999999997
 40
0.7499999999999997
 40
0.7499999999999997
 40
0.7727272727272724
 40
0.7727272727272724
 40
0.7727272727272724
 40
0.7727272727272724
 40
0.7954545454545451
 40
0.7954545454545451
 40
0.7954545454545451
 40
0.7954545454545451
 40
0.8181818181818178
 40
0.8181818181818178
 40
0.8181818181818178
 40
0.8181818181818178
 40
0.8409090909090905
 40
0.8409090909090905
 40
0.8409090909090905
 40
0.8409090909090905
 40
0.8636363636363632
 40
0.8636363636363632
 40
0.8636363636363632
 40
0.8636363636363632
 40
0.8863636363636359
 40
0.8863636363636359
 40
0.8863636363636359
 40
0.8863636363636359
 40
0.9090909090909086
 40
0.9090909090909086
 40
0.9090909090909086
 40
0.9090909090909086
 40
0.9318181818181813
 40
0.9318181818181813
 40
0.9318181818181813
 40
0.9318181818181813
 40
0.954545454545454
 40
0.954545454545454
 40
0.954545454545454
 40
0.954545454545454
 40
0.9772727272727267
 40
0.9772727272727267
 40
0.9772727272727267
 40
0.9772727272727267
 40
1.0
 40
1.0
 40
1.0
 40
1.0
 10
-11.39325
 20
-10.72748
 30
0.0
 10
-11.39325
 20
-10.72748
 30
0.0
 10
-11.511
 20
-10.77507
 30
0.0
 10
-11.511
 20
-10.77507
 30
0.0
 10
-11.511
 20
-10.77507
 30
0.0
 10
-11.511
 20
-10.77507
 30
0.0
 10
-11.48559
 20
-10.92826
 30
0.0
 10
-11.48559
 20
-10.92826
 30
0.0
 10
-11.48559
 20
-10.92826
 30
0.0
 10
-11.48201
 20
-10.92138
 30
0.0
 10
-11.47849
 20
-10.91499
 30
0.0
 10
-11.47499
 20
-10.90924
 30
0.0
 10
-11.47499
 20
-10.90924
 30
0.0
 10
-11.47148
 20
-10.90355
 30
0.0
 10
-11.46756
 20
-10.89822
 30
0.0
 10
-11.46307
 20
-10.89339
 30
0.0
 10
-11.46307
 20
-10.89339
 30
0.0
 10
-11.45865
 20
-10.88856
 30
0.0
 10
-11.45318
 20
-10.88402
 30
0.0
 10
-11.44664
 20
-10.87978
 30
0.0
 10
-11.44664
 20
-10.87978
 30
0.0
 10
-11.44012
 20
-10.8756
 30
0.0
 10
-11.43211
 20
-10.87151
 30
0.0
 10
-11.42248
 20
-10.86764
 30
0.0
 10
-11.42248
 20
-10.86764
 30
0.0
 10
-11.41462
 20
-10.86447
 30
0.0
 10
-11.40635
 20
-10.86235
 30
0.0
 10
-11.39766
 20
-10.86129
 30
0.0
 10
-11.39766
 20
-10.86129
 30
0.0
 10
-11.3889
 20
-10.86024
 30
0.0
 10
-11.38015
 20
-10.86039
 30
0.0
 10
-11.37135
 20
-10.86181
 30
0.0
 10
-11.37135
 20
-10.86181
 30
0.0
 10
-11.36254
 20
-10.86322
 30
0.0
 10
-11.3541
 20
-10.86605
 30
0.0
 10
-11.34595
 20
-10.87036
 30
0.0
 10
-11.34595
 20
-10.87036
 30
0.0
 10
-11.3378
 20
-10.87459
 30
0.0
 10
-11.33038
 20
-10.88044
 30
0.0
 10
-11.32367
 20
-10.88784
 30
0.0
 10
-11.32367
 20
-10.88784
 30
0.0
 10
-11.31696
 20
-10.89523
 30
0.0
 10
-11.31132
 20
-10.90445
 30
0.0
 10
-11.30683
 20
-10.91543
 30
0.0
 10
-11.30683
 20
-10.91543
 30
0.0
 10
-11.3051
 20
-10.91946
 30
0.0
 10
-11.30353
 20
-10.9247
 30
0.0
 10
-11.30196
 20
-10.93114
 30
0.0
 10
-11.30196
 20
-10.93114
 30
0.0
 10
-11.30039
 20
-10.9375
 30
0.0
 10
-11.29939
 20
-10.94463
 30
0.0
 10
-11.29876
 20
-10.95247
 30
0.0
 10
-11.29876
 20
-10.95247
 30
0.0
 10
-11.2982
 20
-10.96031
 30
0.0
 10
-11.29854
 20
-10.96848
 30
0.0
 10
-11.29982
 20
-10.97687
 30
0.0
 10
-11.29982
 20
-10.97687
 30
0.0
 10
-11.30102
 20
-10.98534
 30
0.0
 10
-11.30357
 20
-10.99357
 30
0.0
 10
-11.30744
 20
-11.00164
 30
0.0
 10
-11.30744
 20
-11.00164
 30
0.0
 10
-11.31139
 20
-11.0098
 30
0.0
 10
-11.31696
 20
-11.0173
 30
0.0
 10
-11.32436
 20
-11.02422
 30
0.0
 10
-11.32436
 20
-11.02422
 30
0.0
 10
-11.33177
 20
-11.03114
 30
0.0
 10
-11.34126
 20
-11.03698
 30
0.0
 10
-11.35302
 20
-11.04181
 30
0.0
 10
-11.35302
 20
-11.04181
 30
0.0
 10
-11.36697
 20
-11.04741
 30
0.0
 10
-11.37934
 20
-11.05069
 30
0.0
 10
-11.39007
 20
-11.05173
 30
0.0
 10
-11.39007
 20
-11.05173
 30
0.0
 10
-11.40081
 20
-11.05269
 30
0.0
 10
-11.41012
 20
-11.05212
 30
0.0
 10
-11.41808
 20
-11.04979
 30
0.0
 10
-11.41808
 20
-11.04979
 30
0.0
 10
-11.42596
 20
-11.04753
 30
0.0
 10
-11.43277
 20
-11.04429
 30
0.0
 10
-11.43845
 20
-11.04009
 30
0.0
 10
-11.43845
 20
-11.04009
 30
0.0
 10
-11.4442
 20
-11.0358
 30
0.0
 10
-11.44903
 20
-11.03124
 30
0.0
 10
-11.45293
 20
-11.02626
 30
0.0
 10
-11.45293
 20
-11.02626
 30
0.0
 10
-11.45691
 20
-11.02136
 30
0.0
 10
-11.46034
 20
-11.01668
 30
0.0
 10
-11.46305
 20
-11.01236
 30
0.0
 10
-11.46305
 20
-11.01236
 30
0.0
 10
-11.46034
 20
-11.01668
 30
0.0
 10
-11.45691
 20
-11.02136
 30
0.0
 10
-11.45293
 20
-11.02626
 30
0.0
 10
-11.45293
 20
-11.02626
 30
0.0
 10
-11.44903
 20
-11.03124
 30
0.0
 10
-11.4442
 20
-11.0358
 30
0.0
 10
-11.43845
 20
-11.04009
 30
0.0
 10
-11.43845
 20
-11.04009
 30
0.0
 10
-11.43277
 20
-11.04429
 30
0.0
 10
-11.42596
 20
-11.04753
 30
0.0
 10
-11.41808
 20
-11.04979
 30
0.0
 10
-11.41808
 20
-11.04979
 30
0.0
 10
-11.41012
 20
-11.05212
 30
0.0
 10
-11.40081
 20
-11.05269
 30
0.0
 10
-11.39007
 20
-11.05173
 30
0.0
 10
-11.39007
 20
-11.05173
 30
0.0
 10
-11.37934
 20
-11.05069
 30
0.0
 10
-11.36697
 20
-11.04741
 30
0.0
 10
-11.35302
 20
-11.04181
 30
0.0
 10
-11.35302
 20
-11.04181
 30
0.0
 10
-11.34126
 20
-11.03698
 30
0.0
 10
-11.33177
 20
-11.03114
 30
0.0
 10
-11.32436
 20
-11.02422
 30
0.0
 10
-11.32436
 20
-11.02422
 30
0.0
 10
-11.31696
 20
-11.0173
 30
0.0
 10
-11.31139
 20
-11.0098
 30
0.0
 10
-11.30744
 20
-11.00164
 30
0.0
 10
-11.30744
 20
-11.00164
 30
0.0
 10
-11.30357
 20
-10.99357
 30
0.0
 10
-11.30102
 20
-10.98534
 30
0.0
 10
-11.29982
 20
-10.97687
 30
0.0
 10
-11.29982
 20
-10.97687
 30
0.0
 10
-11.29854
 20
-10.96848
 30
0.0
 10
-11.2982
 20
-10.96031
 30
0.0
 10
-11.29876
 20
-10.95247
 30
0.0
 10
-11.29876
 20
-10.95247
 30
0.0
 10
-11.29939
 20
-10.94463
 30
0.0
 10
-11.30039
 20
-10.9375
 30
0.0
 10
-11.30196
 20
-10.93114
 30
0.0
 10
-11.30196
 20
-10.93114
 30
0.0
 10
-11.30353
 20
-10.9247
 30
0.0
 10
-11.3051
 20
-10.91946
 30
0.0
 10
-11.30683
 20
-10.91543
 30
0.0
 10
-11.30683
 20
-10.91543
 30
0.0
 10
-11.31132
 20
-10.90445
 30
0.0
 10
-11.31696
 20
-10.89523
 30
0.0
 10
-11.32367
 20
-10.88784
 30
0.0
 10
-11.32367
 20
-10.88784
 30
0.0
 10
-11.33038
 20
-10.88044
 30
0.0
 10
-11.3378
 20
-10.87459
 30
0.0
 10
-11.34595
 20
-10.87036
 30
0.0
 10
-11.34595
 20
-10.87036
 30
0.0
 10
-11.3541
 20
-10.86605
 30
0.0
 10
-11.36254
 20
-10.86322
 30
0.0
 10
-11.37135
 20
-10.86181
 30
0.0
 10
-11.37135
 20
-10.86181
 30
0.0
 10
-11.38015
 20
-10.86039
 30
0.0
 10
-11.3889
 20
-10.86024
 30
0.0
 10
-11.39766
 20
-10.86129
 30
0.0
 10
-11.39766
 20
-10.86129
 30
0.0
 10
-11.40635
 20
-10.86235
 30
0.0
 10
-11.41462
 20
-10.86447
 30
0.0
 10
-11.42248
 20
-10.86764
 30
0.0
 10
-11.42248
 20
-10.86764
 30
0.0
 10
-11.43211
 20
-10.87151
 30
0.0
 10
-11.44012
 20
-10.8756
 30
0.0
 10
-11.44664
 20
-10.87978
 30
0.0
 10
-11.44664
 20
-10.87978
 30
0.0
 10
-11.45318
 20
-10.88402
 30
0.0
 10
-11.45865
 20
-10.88856
 30
0.0
 10
-11.46307
 20
-10.89339
 30
0.0
 10
-11.46307
 20
-10.89339
 30
0.0
 10
-11.46756
 20
-10.89822
 30
0.0
 10
-11.47148
 20
-10.90355
 30
0.0
 10
-11.47499
 20
-10.90924
 30
0.0
 10
-11.47499
 20
-10.90924
 30
0.0
 10
-11.47849
 20
-10.91499
 30
0.0
 10
-11.48201
 20
-10.92138
 30
0.0
 10
-11.48559
 20
-10.92826
 30
0.0
 10
-11.48559
 20
-10.92826
 30
0.0
 10
-11.48559
 20
-10.92826
 30
0.0
 10
-11.511
 20
-10.77507
 30
0.0
 10
-11.511
 20
-10.77507
 30
0.0
 10
-11.511
 20
-10.77507
 30
0.0
 10
-11.511
 20
-10.77507
 30
0.0
 10
-11.39325
 20
-10.72748
 30
0.0
 10
-11.39325
 20
-10.72748
 30
0.0
  0
SPLINE
  5
67
330
1F
100
AcDbEntity
  8
Layer 1
370
    53
100
AcDbSpline
210
0.0
220
0.0
230
1.0
 70
    11
 71
     3
 72
    92
 73
    88
 74
     0
 42
0.0000000001
 43
0.0000000001
 40
0.0
 40
0.0
 40
0.0
 40
0.0
 40
0.0454545454545455
 40
0.0454545454545455
 40
0.0454545454545455
 40
0.0454545454545455
 40
0.0909090909090909
 40
0.0909090909090909
 40
0.0909090909090909
 40
0.0909090909090909
 40
0.1363636363636364
 40
0.1363636363636364
 40
0.1363636363636364
 40
0.1363636363636364
 40
0.1818181818181818
 40
0.1818181818181818
 40
0.1818181818181818
 40
0.1818181818181818
 40
0.2272727272727273
 40
0.2272727272727273
 40
0.2272727272727273
 40
0.2272727272727273
 40
0.2727272727272728
 40
0.2727272727272728
 40
0.2727272727272728
 40
0.2727272727272728
 40
0.3181818181818182
 40
0.3181818181818182
 40
0.3181818181818182
 40
0.3181818181818182
 40
0.3636363636363637
 40
0.3636363636363637
 40
0.3636363636363637
 40
0.3636363636363637
 40
0.4090909090909092
 40
0.4090909090909092
 40
0.4090909090909092
 40
0.4090909090909092
 40
0.4545454545454546
 40
0.4545454545454546
 40
0.4545454545454546
 40
0.4545454545454546
 40
0.5000000000000001
 40
0.5000000000000001
 40
0.5000000000000001
 40
0.5000000000000001
 40
0.5454545454545455
 40
0.5454545454545455
 40
0.5454545454545455
 40
0.5454545454545455
 40
0.5909090909090909
 40
0.5909090909090909
 40
0.5909090909090909
 40
0.5909090909090909
 40
0.6363636363636364
 40
0.6363636363636364
 40
0.6363636363636364
 40
0.6363636363636364
 40
0.6818181818181818
 40
0.6818181818181818
 40
0.6818181818181818
 40
0.6818181818181818
 40
0.7272727272727272
 40
0.7272727272727272
 40
0.7272727272727272
 40
0.7272727272727272
 40
0.7727272727272726
 40
0.7727272727272726
 40
0.7727272727272726
 40
0.7727272727272726
 40
0.818181818181818
 40
0.818181818181818
 40
0.818181818181818
 40
0.818181818181818
 40
0.8636363636363634
 40
0.8636363636363634
 40
0.8636363636363634
 40
0.8636363636363634
 40
0.9090909090909088
 40
0.9090909090909088
 40
0.9090909090909088
 40
0.9090909090909088
 40
0.9545454545454543
 40
0.9545454545454543
 40
0.9545454545454543
 40
0.9545454545454543
 40
1.0
 40
1.0
 40
1.0
 40
1.0
 10
-10.8
 20
-10.69994
 30
0.0
 10
-10.8
 20
-10.69994
 30
0.0
 10
-10.7598
 20
-10.69994
 30
0.0
 10
-10.7598
 20
-10.69994
 30
0.0
 10
-10.7598
 20
-10.69994
 30
0.0
 10
-10.73347
 20
-10.65442
 30
0.0
 10
-10.69551
 20
-10.61649
 30
0.0
 10
-10.65
 20
-10.59016
 30
0.0
 10
-10.65
 20
-10.59016
 30
0.0
 10
-10.65
 20
-10.59016
 30
0.0
 10
-10.65
 20
-10.54994
 30
0.0
 10
-10.65
 20
-10.54994
 30
0.0
 10
-10.65
 20
-10.54994
 30
0.0
 10
-10.65
 20
-10.54994
 30
0.0
 10
-10.35
 20
-10.54994
 30
0.0
 10
-10.35
 20
-10.54994
 30
0.0
 10
-10.35
 20
-10.54994
 30
0.0
 10
-10.35
 20
-10.54994
 30
0.0
 10
-10.35
 20
-10.59013
 30
0.0
 10
-10.35
 20
-10.59013
 30
0.0
 10
-10.35
 20
-10.59013
 30
0.0
 10
-10.30447
 20
-10.61646
 30
0.0
 10
-10.26648
 20
-10.65441
 30
0.0
 10
-10.24012
 20
-10.69994
 30
0.0
 10
-10.24012
 20
-10.69994
 30
0.0
 10
-10.24012
 20
-10.69994
 30
0.0
 10
-10.2
 20
-10.69994
 30
0.0
 10
-10.2
 20
-10.69994
 30
0.0
 10
-10.2
 20
-10.69994
 30
0.0
 10
-10.2
 20
-10.69994
 30
0.0
 10
-10.2
 20
-10.84536
 30
0.0
 10
-10.2
 20
-10.84536
 30
0.0
 10
-10.2
 20
-10.84536
 30
0.0
 10
-10.2
 20
-10.84536
 30
0.0
 10
-10.19994
 20
-10.85001
 30
0.0
 10
-10.19994
 20
-10.85001
 30
0.0
 10
-10.19994
 20
-10.85001
 30
0.0
 10
-10.19994
 20
-10.85001
 30
0.0
 10
-10.2
 20
-10.85465
 30
0.0
 10
-10.2
 20
-10.85465
 30
0.0
 10
-10.2
 20
-10.85465
 30
0.0
 10
-10.2
 20
-10.85465
 30
0.0
 10
-10.2
 20
-10.99994
 30
0.0
 10
-10.2
 20
-10.99994
 30
0.0
 10
-10.2
 20
-10.99994
 30
0.0
 10
-10.2
 20
-10.99994
 30
0.0
 10
-10.24007
 20
-10.99994
 30
0.0
 10
-10.24007
 20
-10.99994
 30
0.0
 10
-10.24007
 20
-10.99994
 30
0.0
 10
-10.26642
 20
-11.04551
 30
0.0
 10
-10.30442
 20
-11.08352
 30
0.0
 10
-10.35
 20
-11.10988
 30
0.0
 10
-10.35
 20
-11.10988
 30
0.0
 10
-10.35
 20
-11.10988
 30
0.0
 10
-10.35
 20
-11.14994
 30
0.0
 10
-10.35
 20
-11.14994
 30
0.0
 10
-10.35
 20
-11.14994
 30
0.0
 10
-10.35
 20
-11.14994
 30
0.0
 10
-10.49328
 20
-11.14994
 30
0.0
 10
-10.49328
 20
-11.14994
 30
0.0
 10
-10.49328
 20
-11.14994
 30
0.0
 10
-10.49328
 20
-11.14994
 30
0.0
 10
-10.49995
 20
-11.15002
 30
0.0
 10
-10.49995
 20
-11.15002
 30
0.0
 10
-10.49995
 20
-11.15002
 30
0.0
 10
-10.49995
 20
-11.15002
 30
0.0
 10
-10.50663
 20
-11.14994
 30
0.0
 10
-10.50663
 20
-11.14994
 30
0.0
 10
-10.50663
 20
-11.14994
 30
0.0
 10
-10.50663
 20
-11.14994
 30
0.0
 10
-10.65
 20
-11.14994
 30
0.0
 10
-10.65
 20
-11.14994
 30
0.0
 10
-10.65
 20
-11.14994
 30
0.0
 10
-10.65
 20
-11.14994
 30
0.0
 10
-10.65
 20
-11.10984
 30
0.0
 10
-10.65
 20
-11.10984
 30
0.0
 10
-10.65
 20
-11.10984
 30
0.0
 10
-10.69554
 20
-11.08348
 30
0.0
 10
-10.73352
 20
-11.04549
 30
0.0
 10
-10.75985
 20
-10.99994
 30
0.0
 10
-10.75985
 20
-10.99994
 30
0.0
 10
-10.75985
 20
-10.99994
 30
0.0
 10
-10.8
 20
-10.99994
 30
0.0
 10
-10.8
 20
-10.99994
 30
0.0
 10
-10.8
 20
-10.99994
 30
0.0
 10
-10.8
 20
-10.99994
 30
0.0
 10
-10.8
 20
-10.69994
 30
0.0
 10
-10.8
 20
-10.69994
 30
0.0
  0
SPLINE
  5
68
330
1F
100
AcDbEntity
  8
Layer 1
370
    53
100
AcDbSpline
210
0.0
220
0.0
230
1.0
 70
    11
 71
     3
 72
    92
 73
    88
 74
     0
 42
0.0000000001
 43
0.0000000001
 40
0.0
 40
0.0
 40
0.0
 40
0.0
 40
0.0454545454545455
 40
0.0454545454545455
 40
0.0454545454545455
 40
0.0454545454545455
 40
0.0909090909090909
 40
0.0909090909090909
 40
0.0909090909090909
 40
0.0909090909090909
 40
0.1363636363636364
 40
0.1363636363636364
 40
0.1363636363636364
 40
0.1363636363636364
 40
0.1818181818181818
 40
0.1818181818181818
 40
0.1818181818181818
 40
0.1818181818181818
 40
0.2272727272727273
 40
0.2272727272727273
 40
0.2272727272727273
 40
0.2272727272727273
 40
0.2727272727272728
 40
0.2727272727272728
 40
0.2727272727272728
 40
0.2727272727272728
 40
0.3181818181818182
 40
0.3181818181818182
 40
0.3181818181818182
 40
0.3181818181818182
 40
0.3636363636363637
 40
0.3636363636363637
 40
0.3636363636363637
 40
0.3636363636363637
 40
0.4090909090909092
 40
0.4090909090909092
 40
0.4090909090909092
 40
0.4090909090909092
 40
0.4545454545454546
 40
0.4545454545454546
 40
0.4545454545454546
 40
0.4545454545454546
 40
0.5000000000000001
 40
0.5000000000000001
 40
0.5000000000000001
 40
0.5000000000000001
 40
0.5454545454545455
 40
0.5454545454545455
 40
0.5454545454545455
 40
0.5454545454545455
 40
0.5909090909090909
 40
0.5909090909090909
 40
0.5909090909090909
 40
0.5909090909090909
 40
0.6363636363636364
 40
0.6363636363636364
 40
0.6363636363636364
 40
0.6363636363636364
 40
0.6818181818181818
 40
0.6818181818181818
 40
0.6818181818181818
 40
0.6818181818181818
 40
0.7272727272727272
 40
0.7272727272727272
 40
0.7272727272727272
 40
0.7272727272727272
 40
0.7727272727272726
 40
0.7727272727272726
 40
0.7727272727272726
 40
0.7727272727272726
 40
0.818181818181818
 40
0.818181818181818
 40
0.818181818181818
 40
0.818181818181818
 40
0.8636363636363634
 40
0.8636363636363634
 40
0.8636363636363634
 40
0.8636363636363634
 40
0.9090909090909088
 40
0.9090909090909088
 40
0.9090909090909088
 40
0.9090909090909088
 40
0.9545454545454543
 40
0.9545454545454543
 40
0.9545454545454543
 40
0.9545454545454543
 40
1.0
 40
1.0
 40
1.0
 40
1.0
 10
-14.8
 20
-14.69994
 30
0.0
 10
-14.8
 20
-14.69994
 30
0.0
 10
-14.7598
 20
-14.69994
 30
0.0
 10
-14.7598
 20
-14.69994
 30
0.0
 10
-14.7598
 20
-14.69994
 30
0.0
 10
-14.73347
 20
-14.65442
 30
0.0
 10
-14.69551
 20
-14.61649
 30
0.0
 10
-14.65
 20
-14.59016
 30
0.0
 10
-14.65
 20
-14.59016
 30
0.0
 10
-14.65
 20
-14.59016
 30
0.0
 10
-14.65
 20
-14.54994
 30
0.0
 10
-14.65
 20
-14.54994
 30
0.0
 10
-14.65
 20
-14.54994
 30
0.0
 10
-14.65
 20
-14.54994
 30
0.0
 10
-14.35
 20
-14.54994
 30
0.0
 10
-14.35
 20
-14.54994
 30
0.0
 10
-14.35
 20
-14.54994
 30
0.0
 10
-14.35
 20
-14.54994
 30
0.0
 10
-14.35
 20
-14.59013
 30
0.0
 10
-14.35
 20
-14.59013
 30
0.0
 10
-14.35
 20
-14.59013
 30
0.0
 10
-14.30447
 20
-14.61646
 30
0.0
 10
-14.26648
 20
-14.65441
 30
0.0
 10
-14.24012
 20
-14.69994
 30
0.0
 10
-14.24012
 20
-14.69994
 30
0.0
 10
-14.24012
 20
-14.69994
 30
0.0
 10
-14.2
 20
-14.69994
 30
0.0
 10
-14.2
 20
-14.69994
 30
0.0
 10
-14.2
 20
-14.69994
 30
0.0
 10
-14.2
 20
-14.69994
 30
0.0
 10
-14.2
 20
-14.84536
 30
0.0
 10
-14.2
 20
-14.84536
 30
0.0
 10
-14.2
 20
-14.84536
 30
0.0
 10
-14.2
 20
-14.84536
 30
0.0
 10
-14.19994
 20
-14.85001
 30
0.0
 10
-14.19994
 20
-14.85001
 30
0.0
 10
-14.19994
 20
-14.85001
 30
0.0
 10
-14.19994
 20
-14.85001
 30
0.0
 10
-14.2
 20
-14.85465
 30
0.0
 10
-14.2
 20
-14.85465
 30
0.0
 10
-14.2
 20
-14.85465
 30
0.0
 10
-14.2
 20
-14.85465
 30
0.0
 10
-14.2
 20
-14.99994
 30
0.0
 10
-14.2
 20
-14.99994
 30
0.0
 10
-14.2
 20
-14.99994
 30
0.0
 10
-14.2
 20
-14.99994
 30
0.0
 10
-14.24007
 20
-14.99994
 30
0.0
 10
-14.24007
 20
-14.99994
 30
0.0
 10
-14.24007
 20
-14.99994
 30
0.0
 10
-14.26642
 20
-15.04551
 30
0.0
 10
-14.30442
 20
-15.08352
 30
0.0
 10
-14.35
 20
-15.10988
 30
0.0
 10
-14.35
 20
-15.10988
 30
0.0
 10
-14.35
 20
-15.10988
 30
0.0
 10
-14.35
 20
-15.14994
 30
0.0
 10
-14.35
 20
-15.14994
 30
0.0
 10
-14.35
 20
-15.14994
 30
0.0
 10
-14.35
 20
-15.14994
 30
0.0
 10
-14.49328
 20
-15.14994
 30
0.0
 10
-14.49328
 20
-15.14994
 30
0.0
 10
-14.49328
 20
-15.14994
 30
0.0
 10
-14.49328
 20
-15.14994
 30
0.0
 10
-14.49995
 20
-15.15002
 30
0.0
 10
-14.49995
 20
-15.15002
 30
0.0
 10
-14.49995
 20
-15.15002
 30
0.0
 10
-14.49995
 20
-15.15002
 30
0.0
 10
-14.50663
 20
-15.14994
 30
0.0
 10
-14.50663
 20
-15.14994
 30
0.0
 10
-14.50663
 20
-15.14994
 30
0.0
 10
-14.50663
 20
-15.14994
 30
0.0
 10
-14.65
 20
-15.14994
 30
0.0
 10
-14.65
 20
-15.14994
 30
0.0
 10
-14.65
 20
-15.14994
 30
0.0
 10
-14.65
 20
-15.14994
 30
0.0
 10
-14.65
 20
-15.10984
 30
0.0
 10
-14.65
 20
-15.10984
 30
0.0
 10
-14.65
 20
-15.10984
 30
0.0
 10
-14.69554
 20
-15.08348
 30
0.0
 10
-14.73352
 20
-15.04549
 30
0.0
 10
-14.75985
 20
-14.99994
 30
0.0
 10
-14.75985
 20
-14.99994
 30
0.0
 10
-14.75985
 20
-14.99994
 30
0.0
 10
-14.8
 20
-14.99994
 30
0.0
 10
-14.8
 20
-14.99994
 30
0.0
 10
-14.8
 20
-14.99994
 30
0.0
 10
-14.8
 20
-14.99994
 30
0.0
 10
-14.8
 20
-14.69994
 30
0.0
 10
-14.8
 20
-14.69994
 30
0.0
  0
SPLINE
  5
69
330
1F
100
AcDbEntity
  8
Layer 1
370
    53
100
AcDbSpline
210
0.0
220
0.0
230
1.0
 70
    11
 71
     3
 72
    92
 73
    88
 74
     0
 42
0.0000000001
 43
0.0000000001
 40
0.0
 40
0.0
 40
0.0
 40
0.0
 40
0.0454545454545455
 40
0.0454545454545455
 40
0.0454545454545455
 40
0.0454545454545455
 40
0.0909090909090909
 40
0.0909090909090909
 40
0.0909090909090909
 40
0.0909090909090909
 40
0.1363636363636364
 40
0.1363636363636364
 40
0.1363636363636364
 40
0.1363636363636364
 40
0.1818181818181818
 40
0.1818181818181818
 40
0.1818181818181818
 40
0.1818181818181818
 40
0.2272727272727273
 40
0.2272727272727273
 40
0.2272727272727273
 40
0.2272727272727273
 40
0.2727272727272728
 40
0.2727272727272728
 40
0.2727272727272728
 40
0.2727272727272728
 40
0.3181818181818182
 40
0.3181818181818182
 40
0.3181818181818182
 40
0.3181818181818182
 40
0.3636363636363637
 40
0.3636363636363637
 40
0.3636363636363637
 40
0.3636363636363637
 40
0.4090909090909092
 40
0.4090909090909092
 40
0.4090909090909092
 40
0.4090909090909092
 40
0.4545454545454546
 40
0.4545454545454546
 40
0.4545454545454546
 40
0.4545454545454546
 40
0.5000000000000001
 40
0.5000000000000001
 40
0.5000000000000001
 40
0.5000000000000001
 40
0.5454545454545455
 40
0.5454545454545455
 40
0.5454545454545455
 40
0.5454545454545455
 40
0.5909090909090909
 40
0.5909090909090909
 40
0.5909090909090909
 40
0.5909090909090909
 40
0.6363636363636364
 40
0.6363636363636364
 40
0.6363636363636364
 40
0.6363636363636364
 40
0.6818181818181818
 40
0.6818181818181818
 40
0.6818181818181818
 40
0.6818181818181818
 40
0.7272727272727272
 40
0.7272727272727272
 40
0.7272727272727272
 40
0.7272727272727272
 40
0.7727272727272726
 40
0.7727272727272726
 40
0.7727272727272726
 40
0.7727272727272726
 40
0.818181818181818
 40
0.818181818181818
 40
0.818181818181818
 40
0.818181818181818
 40
0.8636363636363634
 40
0.8636363636363634
 40
0.8636363636363634
 40
0.8636363636363634
 40
0.9090909090909088
 40
0.9090909090909088
 40
0.9090909090909088
 40
0.9090909090909088
 40
0.9545454545454543
 40
0.9545454545454543
 40
0.9545454545454543
 40
0.9545454545454543
 40
1.0
 40
1.0
 40
1.0
 40
1.0
 10
-10.8
 20
-18.69994
 30
0.0
 10
-10.8
 20
-18.69994
 30
0.0
 10
-10.7598
 20
-18.69994
 30
0.0
 10
-10.7598
 20
-18.69994
 30
0.0
 10
-10.7598
 20
-18.69994
 30
0.0
 10
-10.73347
 20
-18.65442
 30
0.0
 10
-10.69551
 20
-18.61649
 30
0.0
 10
-10.65
 20
-18.59016
 30
0.0
 10
-10.65
 20
-18.59016
 30
0.0
 10
-10.65
 20
-18.59016
 30
0.0
 10
-10.65
 20
-18.54994
 30
0.0
 10
-10.65
 20
-18.54994
 30
0.0
 10
-10.65
 20
-18.54994
 30
0.0
 10
-10.65
 20
-18.54994
 30
0.0
 10
-10.35
 20
-18.54994
 30
0.0
 10
-10.35
 20
-18.54994
 30
0.0
 10
-10.35
 20
-18.54994
 30
0.0
 10
-10.35
 20
-18.54994
 30
0.0
 10
-10.35
 20
-18.59013
 30
0.0
 10
-10.35
 20
-18.59013
 30
0.0
 10
-10.35
 20
-18.59013
 30
0.0
 10
-10.30447
 20
-18.61646
 30
0.0
 10
-10.26648
 20
-18.65441
 30
0.0
 10
-10.24012
 20
-18.69994
 30
0.0
 10
-10.24012
 20
-18.69994
 30
0.0
 10
-10.24012
 20
-18.69994
 30
0.0
 10
-10.2
 20
-18.69994
 30
0.0
 10
-10.2
 20
-18.69994
 30
0.0
 10
-10.2
 20
-18.69994
 30
0.0
 10
-10.2
 20
-18.69994
 30
0.0
 10
-10.2
 20
-18.84536
 30
0.0
 10
-10.2
 20
-18.84536
 30
0.0
 10
-10.2
 20
-18.84536
 30
0.0
 10
-10.2
 20
-18.84536
 30
0.0
 10
-10.19994
 20
-18.85001
 30
0.0
 10
-10.19994
 20
-18.85001
 30
0.0
 10
-10.19994
 20
-18.85001
 30
0.0
 10
-10.19994
 20
-18.85001
 30
0.0
 10
-10.2
 20
-18.85465
 30
0.0
 10
-10.2
 20
-18.85465
 30
0.0
 10
-10.2
 20
-18.85465
 30
0.0
 10
-10.2
 20
-18.85465
 30
0.0
 10
-10.2
 20
-18.99994
 30
0.0
 10
-10.2
 20
-18.99994
 30
0.0
 10
-10.2
 20
-18.99994
 30
0.0
 10
-10.2
 20
-18.99994
 30
0.0
 10
-10.24007
 20
-18.99994
 30
0.0
 10
-10.24007
 20
-18.99994
 30
0.0
 10
-10.24007
 20
-18.99994
 30
0.0
 10
-10.26642
 20
-19.04551
 30
0.0
 10
-10.30442
 20
-19.08352
 30
0.0
 10
-10.35
 20
-19.10988
 30
0.0
 10
-10.35
 20
-19.10988
 30
0.0
 10
-10.35
 20
-19.10988
 30
0.0
 10
-10.35
 20
-19.14994
 30
0.0
 10
-10.35
 20
-19.14994
 30
0.0
 10
-10.35
 20
-19.14994
 30
0.0
 10
-10.35
 20
-19.14994
 30
0.0
 10
-10.49328
 20
-19.14994
 30
0.0
 10
-10.49328
 20
-19.14994
 30
0.0
 10
-10.49328
 20
-19.14994
 30
0.0
 10
-10.49328
 20
-19.14994
 30
0.0
 10
-10.49995
 20
-19.15002
 30
0.0
 10
-10.49995
 20
-19.15002
 30
0.0
 10
-10.49995
 20
-19.15002
 30
0.0
 10
-10.49995
 20
-19.15002
 30
0.0
 10
-10.50663
 20
-19.14994
 30
0.0
 10
-10.50663
 20
-19.14994
 30
0.0
 10
-10.50663
 20
-19.14994
 30
0.0
 10
-10.50663
 20
-19.14994
 30
0.0
 10
-10.65
 20
-19.14994
 30
0.0
 10
-10.65
 20
-19.14994
 30
0.0
 10
-10.65
 20
-19.14994
 30
0.0
 10
-10.65
 20
-19.14994
 30
0.0
 10
-10.65
 20
-19.10984
 30
0.0
 10
-10.65
 20
-19.10984
 30
0.0
 10
-10.65
 20
-19.10984
 30
0.0
 10
-10.69554
 20
-19.08348
 30
0.0
 10
-10.73352
 20
-19.04549
 30
0.0
 10
-10.75985
 20
-18.99994
 30
0.0
 10
-10.75985
 20
-18.99994
 30
0.0
 10
-10.75985
 20
-18.99994
 30
0.0
 10
-10.8
 20
-18.99994
 30
0.0
 10
-10.8
 20
-18.99994
 30
0.0
 10
-10.8
 20
-18.99994
 30
0.0
 10
-10.8
 20
-18.99994
 30
0.0
 10
-10.8
 20
-18.69994
 30
0.0
 10
-10.8
 20
-18.69994
 30
0.0
  0
SPLINE
  5
6A
330
1F
100
AcDbEntity
  8
Layer 1
370
    53
100
AcDbSpline
210
0.0
220
0.0
230
1.0
 70
    11
 71
     3
 72
    92
 73
    88
 74
     0
 42
0.0000000001
 43
0.0000000001
 40
0.0
 40
0.0
 40
0.0
 40
0.0
 40
0.0454545454545455
 40
0.0454545454545455
 40
0.0454545454545455
 40
0.0454545454545455
 40
0.0909090909090909
 40
0.0909090909090909
 40
0.0909090909090909
 40
0.0909090909090909
 40
0.1363636363636364
 40
0.1363636363636364
 40
0.1363636363636364
 40
0.1363636363636364
 40
0.1818181818181818
 40
0.1818181818181818
 40
0.1818181818181818
 40
0.1818181818181818
 40
0.2272727272727273
 40
0.2272727272727273
 40
0.2272727272727273
 40
0.2272727272727273
 40
0.2727272727272728
 40
0.2727272727272728
 40
0.2727272727272728
 40
0.2727272727272728
 40
0.3181818181818182
 40
0.3181818181818182
 40
0.3181818181818182
 40
0.3181818181818182
 40
0.3636363636363637
 40
0.3636363636363637
 40
0.3636363636363637
 40
0.3636363636363637
 40
0.4090909090909092
 40
0.4090909090909092
 40
0.4090909090909092
 40
0.4090909090909092
 40
0.4545454545454546
 40
0.4545454545454546
 40
0.4545454545454546
 40
0.4545454545454546
 40
0.5000000000000001
 40
0.5000000000000001
 40
0.5000000000000001
 40
0.5000000000000001
 40
0.5454545454545455
 40
0.5454545454545455
 40
0.5454545454545455
 40
0.5454545454545455
 40
0.5909090909090909
 40
0.5909090909090909
 40
0.5909090909090909
 40
0.5909090909090909
 40
0.6363636363636364
 40
0.6363636363636364
 40
0.6363636363636364
 40
0.6363636363636364
 40
0.6818181818181818
 40
0.6818181818181818
 40
0.6818181818181818
 40
0.6818181818181818
 40
0.7272727272727272
 40
0.7272727272727272
 40
0.7272727272727272
 40
0.7272727272727272
 40
0.7727272727272726
 40
0.7727272727272726
 40
0.7727272727272726
 40
0.7727272727272726
 40
0.818181818181818
 40
0.818181818181818
 40
0.818181818181818
 40
0.818181818181818
 40
0.8636363636363634
 40
0.8636363636363634
 40
0.8636363636363634
 40
0.8636363636363634
 40
0.9090909090909088
 40
0.9090909090909088
 40
0.9090909090909088
 40
0.9090909090909088
 40
0.9545454545454543
 40
0.9545454545454543
 40
0.9545454545454543
 40
0.9545454545454543
 40
1.0
 40
1.0
 40
1.0
 40
1.0
 10
-6.8
 20
-14.69994
 30
0.0
 10
-6.8
 20
-14.69994
 30
0.0
 10
-6.7598
 20
-14.69994
 30
0.0
 10
-6.7598
 20
-14.69994
 30
0.0
 10
-6.7598
 20
-14.69994
 30
0.0
 10
-6.73347
 20
-14.65442
 30
0.0
 10
-6.69551
 20
-14.61649
 30
0.0
 10
-6.65
 20
-14.59016
 30
0.0
 10
-6.65
 20
-14.59016
 30
0.0
 10
-6.65
 20
-14.59016
 30
0.0
 10
-6.65
 20
-14.54994
 30
0.0
 10
-6.65
 20
-14.54994
 30
0.0
 10
-6.65
 20
-14.54994
 30
0.0
 10
-6.65
 20
-14.54994
 30
0.0
 10
-6.35
 20
-14.54994
 30
0.0
 10
-6.35
 20
-14.54994
 30
0.0
 10
-6.35
 20
-14.54994
 30
0.0
 10
-6.35
 20
-14.54994
 30
0.0
 10
-6.35
 20
-14.59013
 30
0.0
 10
-6.35
 20
-14.59013
 30
0.0
 10
-6.35
 20
-14.59013
 30
0.0
 10
-6.30447
 20
-14.61646
 30
0.0
 10
-6.26648
 20
-14.65441
 30
0.0
 10
-6.24012
 20
-14.69994
 30
0.0
 10
-6.24012
 20
-14.69994
 30
0.0
 10
-6.24012
 20
-14.69994
 30
0.0
 10
-6.2
 20
-14.69994
 30
0.0
 10
-6.2
 20
-14.69994
 30
0.0
 10
-6.2
 20
-14.69994
 30
0.0
 10
-6.2
 20
-14.69994
 30
0.0
 10
-6.2
 20
-14.84536
 30
0.0
 10
-6.2
 20
-14.84536
 30
0.0
 10
-6.2
 20
-14.84536
 30
0.0
 10
-6.2
 20
-14.84536
 30
0.0
 10
-6.19994
 20
-14.85001
 30
0.0
 10
-6.19994
 20
-14.85001
 30
0.0
 10
-6.19994
 20
-14.85001
 30
0.0
 10
-6.19994
 20
-14.85001
 30
0.0
 10
-6.2
 20
-14.85465
 30
0.0
 10
-6.2
 20
-14.85465
 30
0.0
 10
-6.2
 20
-14.85465
 30
0.0
 10
-6.2
 20
-14.85465
 30
0.0
 10
-6.2
 20
-14.99994
 30
0.0
 10
-6.2
 20
-14.99994
 30
0.0
 10
-6.2
 20
-14.99994
 30
0.0
 10
-6.2
 20
-14.99994
 30
0.0
 10
-6.24007
 20
-14.99994
 30
0.0
 10
-6.24007
 20
-14.99994
 30
0.0
 10
-6.24007
 20
-14.99994
 30
0.0
 10
-6.26642
 20
-15.04551
 30
0.0
 10
-6.30442
 20
-15.08352
 30
0.0
 10
-6.35
 20
-15.10988
 30
0.0
 10
-6.35
 20
-15.10988
 30
0.0
 10
-6.35
 20
-15.10988
 30
0.0
 10
-6.35
 20
-15.14994
 30
0.0
 10
-6.35
 20
-15.14994
 30
0.0
 10
-6.35
 20
-15.14994
 30
0.0
 10
-6.35
 20
-15.14994
 30
0.0
 10
-6.49328
 20
-15.14994
 30
0.0
 10
-6.49328
 20
-15.14994
 30
0.0
 10
-6.49328
 20
-15.14994
 30
0.0
 10
-6.49328
 20
-15.14994
 30
0.0
 10
-6.49995
 20
-15.15002
 30
0.0
 10
-6.49995
 20
-15.15002
 30
0.0
 10
-6.49995
 20
-15.15002
 30
0.0
 10
-6.49995
 20
-15.15002
 30
0.0
 10
-6.50663
 20
-15.14994
 30
0.0
 10
-6.50663
 20
-15.14994
 30
0.0
 10
-6.50663
 20
-15.14994
 30
0.0
 10
-6.50663
 20
-15.14994
 30
0.0
 10
-6.65
 20
-15.14994
 30
0.0
 10
-6.65
 20
-15.14994
 30
0.0
 10
-6.65
 20
-15.14994
 30
0.0
 10
-6.65
 20
-15.14994
 30
0.0
 10
-6.65
 20
-15.10984
 30
0.0
 10
-6.65
 20
-15.10984
 30
0.0
 10
-6.65
 20
-15.10984
 30
0.0
 10
-6.69554
 20
-15.08348
 30
0.0
 10
-6.73352
 20
-15.04549
 30
0.0
 10
-6.75985
 20
-14.99994
 30
0.0
 10
-6.75985
 20
-14.99994
 30
0.0
 10
-6.75985
 20
-14.99994
 30
0.0
 10
-6.8
 20
-14.99994
 30
0.0
 10
-6.8
 20
-14.99994
 30
0.0
 10
-6.8
 20
-14.99994
 30
0.0
 10
-6.8
 20
-14.99994
 30
0.0
 10
-6.8
 20
-14.69994
 30
0.0
 10
-6.8
 20
-14.69994
 30
0.0
  0
ELLIPSE
  5
6B
330
1F
100
AcDbEntity
  8
Layer 1
370
    53
100
AcDbEllipse
 10
-10.5
 20
-14.85004
 30
0.0
 11
0.0
 21
3.35
 31
0.0
210
0.0
220
0.0
230
1.0
 40
1.0
 41
0.0
 42
6.283185307179586
  0
SPLINE
  5
6C
330
1F
100
AcDbEntity
  8
Layer 1
370
    53
100
AcDbSpline
210
0.0
220
0.0
230
1.0
 70
    11
 71
     3
 72
    92
 73
    88
 74
     0
 42
0.0000000001
 43
0.0000000001
 40
0.0
 40
0.0
 40
0.0
 40
0.0
 40
0.0454545454545455
 40
0.0454545454545455
 40
0.0454545454545455
 40
0.0454545454545455
 40
0.0909090909090909
 40
0.0909090909090909
 40
0.0909090909090909
 40
0.0909090909090909
 40
0.1363636363636364
 40
0.1363636363636364
 40
0.1363636363636364
 40
0.1363636363636364
 40
0.1818181818181818
 40
0.1818181818181818
 40
0.1818181818181818
 40
0.1818181818181818
 40
0.2272727272727273
 40
0.2272727272727273
 40
0.2272727272727273
 40
0.2272727272727273
 40
0.2727272727272728
 40
0.2727272727272728
 40
0.2727272727272728
 40
0.2727272727272728
 40
0.3181818181818182
 40
0.3181818181818182
 40
0.3181818181818182
 40
0.3181818181818182
 40
0.3636363636363637
 40
0.3636363636363637
 40
0.3636363636363637
 40
0.3636363636363637
 40
0.4090909090909092
 40
0.4090909090909092
 40
0.4090909090909092
 40
0.4090909090909092
 40
0.4545454545454546
 40
0.4545454545454546
 40
0.4545454545454546
 40
0.4545454545454546
 40
0.5000000000000001
 40
0.5000000000000001
 40
0.5000000000000001
 40
0.5000000000000001
 40
0.5454545454545455
 40
0.5454545454545455
 40
0.5454545454545455
 40
0.5454545454545455
 40
0.5909090909090909
 40
0.5909090909090909
 40
0.5909090909090909
 40
0.5909090909090909
 40
0.6363636363636364
 40
0.6363636363636364
 40
0.6363636363636364
 40
0.6363636363636364
 40
0.6818181818181818
 40
0.6818181818181818
 40
0.6818181818181818
 40
0.6818181818181818
 40
0.7272727272727272
 40
0.7272727272727272
 40
0.7272727272727272
 40
0.7272727272727272
 40
0.7727272727272726
 40
0.7727272727272726
 40
0.7727272727272726
 40
0.7727272727272726
 40
0.818181818181818
 40
0.818181818181818
 40
0.818181818181818
 40
0.818181818181818
 40
0.8636363636363634
 40
0.8636363636363634
 40
0.8636363636363634
 40
0.8636363636363634
 40
0.9090909090909088
 40
0.9090909090909088
 40
0.9090909090909088
 40
0.9090909090909088
 40
0.9545454545454543
 40
0.9545454545454543
 40
0.9545454545454543
 40
0.9545454545454543
 40
1.0
 40
1.0
 40
1.0
 40
1.0
 10
-13.64664
 20
-12.12761
 30
0.0
 10
-13.64664
 20
-12.12761
 30
0.0
 10
-13.61822
 20
-12.09919
 30
0.0
 10
-13.61822
 20
-12.09919
 30
0.0
 10
-13.61822
 20
-12.09919
 30
0.0
 10
-13.63179
 20
-12.04838
 30
0.0
 10
-13.63177
 20
-11.99472
 30
0.0
 10
-13.6182
 20
-11.94392
 30
0.0
 10
-13.6182
 20
-11.94392
 30
0.0
 10
-13.6182
 20
-11.94392
 30
0.0
 10
-13.64664
 20
-11.91548
 30
0.0
 10
-13.64664
 20
-11.91548
 30
0.0
 10
-13.64664
 20
-11.91548
 30
0.0
 10
-13.64664
 20
-11.91548
 30
0.0
 10
-13.43451
 20
-11.70335
 30
0.0
 10
-13.43451
 20
-11.70335
 30
0.0
 10
-13.43451
 20
-11.70335
 30
0.0
 10
-13.43451
 20
-11.70335
 30
0.0
 10
-13.40609
 20
-11.73177
 30
0.0
 10
-13.40609
 20
-11.73177
 30
0.0
 10
-13.40609
 20
-11.73177
 30
0.0
 10
-13.35528
 20
-11.71819
 30
0.0
 10
-13.30158
 20
-11.71816
 30
0.0
 10
-13.25075
 20
-11.73172
 30
0.0
 10
-13.25075
 20
-11.73172
 30
0.0
 10
-13.25075
 20
-11.73172
 30
0.0
 10
-13.22238
 20
-11.70335
 30
0.0
 10
-13.22238
 20
-11.70335
 30
0.0
 10
-13.22238
 20
-11.70335
 30
0.0
 10
-13.22238
 20
-11.70335
 30
0.0
 10
-13.11955
 20
-11.80618
 30
0.0
 10
-13.11955
 20
-11.80618
 30
0.0
 10
-13.11955
 20
-11.80618
 30
0.0
 10
-13.11955
 20
-11.80618
 30
0.0
 10
-13.11622
 20
-11.80942
 30
0.0
 10
-13.11622
 20
-11.80942
 30
0.0
 10
-13.11622
 20
-11.80942
 30
0.0
 10
-13.11622
 20
-11.80942
 30
0.0
 10
-13.11298
 20
-11.81274
 30
0.0
 10
-13.11298
 20
-11.81274
 30
0.0
 10
-13.11298
 20
-11.81274
 30
0.0
 10
-13.11298
 20
-11.81274
 30
0.0
 10
-13.01025
 20
-11.91548
 30
0.0
 10
-13.01025
 20
-11.91548
 30
0.0
 10
-13.01025
 20
-11.91548
 30
0.0
 10
-13.01025
 20
-11.91548
 30
0.0
 10
-13.03858
 20
-11.94381
 30
0.0
 10
-13.03858
 20
-11.94381
 30
0.0
 10
-13.03858
 20
-11.94381
 30
0.0
 10
-13.02499
 20
-11.99467
 30
0.0
 10
-13.02498
 20
-12.04842
 30
0.0
 10
-13.03858
 20
-12.09929
 30
0.0
 10
-13.03858
 20
-12.09929
 30
0.0
 10
-13.03858
 20
-12.09929
 30
0.0
 10
-13.01025
 20
-12.12761
 30
0.0
 10
-13.01025
 20
-12.12761
 30
0.0
 10
-13.01025
 20
-12.12761
 30
0.0
 10
-13.01025
 20
-12.12761
 30
0.0
 10
-13.11156
 20
-12.22893
 30
0.0
 10
-13.11156
 20
-12.22893
 30
0.0
 10
-13.11156
 20
-12.22893
 30
0.0
 10
-13.11156
 20
-12.22893
 30
0.0
 10
-13.11622
 20
-12.2337
 30
0.0
 10
-13.11622
 20
-12.2337
 30
0.0
 10
-13.11622
 20
-12.2337
 30
0.0
 10
-13.11622
 20
-12.2337
 30
0.0
 10
-13.121
 20
-12.23837
 30
0.0
 10
-13.121
 20
-12.23837
 30
0.0
 10
-13.121
 20
-12.23837
 30
0.0
 10
-13.121
 20
-12.23837
 30
0.0
 10
-13.22238
 20
-12.33974
 30
0.0
 10
-13.22238
 20
-12.33974
 30
0.0
 10
-13.22238
 20
-12.33974
 30
0.0
 10
-13.22238
 20
-12.33974
 30
0.0
 10
-13.25074
 20
-12.31139
 30
0.0
 10
-13.25074
 20
-12.31139
 30
0.0
 10
-13.25074
 20
-12.31139
 30
0.0
 10
-13.30158
 20
-12.32495
 30
0.0
 10
-13.3553
 20
-12.32494
 30
0.0
 10
-13.40612
 20
-12.31135
 30
0.0
 10
-13.40612
 20
-12.31135
 30
0.0
 10
-13.40612
 20
-12.31135
 30
0.0
 10
-13.43451
 20
-12.33974
 30
0.0
 10
-13.43451
 20
-12.33974
 30
0.0
 10
-13.43451
 20
-12.33974
 30
0.0
 10
-13.43451
 20
-12.33974
 30
0.0
 10
-13.64664
 20
-12.12761
 30
0.0
 10
-13.64664
 20
-12.12761
 30
0.0
  0
SPLINE
  5
6D
330
1F
100
AcDbEntity
  8
Layer 1
370
    53
100
AcDbSpline
210
0.0
220
0.0
230
1.0
 70
    11
 71
     3
 72
    92
 73
    88
 74
     0
 42
0.0000000001
 43
0.0000000001
 40
0.0
 40
0.0
 40
0.0
 40
0.0
 40
0.0454545454545455
 40
0.0454545454545455
 40
0.0454545454545455
 40
0.0454545454545455
 40
0.0909090909090909
 40
0.0909090909090909
 40
0.0909090909090909
 40
0.0909090909090909
 40
0.1363636363636364
 40
0.1363636363636364
 40
0.1363636363636364
 40
0.1363636363636364
 40
0.1818181818181818
 40
0.1818181818181818
 40
0.1818181818181818
 40
0.1818181818181818
 40
0.2272727272727273
 40
0.2272727272727273
 40
0.2272727272727273
 40
0.2272727272727273
 40
0.2727272727272728
 40
0.2727272727272728
 40
0.2727272727272728
 40
0.2727272727272728
 40
0.3181818181818182
 40
0.3181818181818182
 40
0.3181818181818182
 40
0.3181818181818182
 40
0.3636363636363637
 40
0.3636363636363637
 40
0.3636363636363637
 40
0.3636363636363637
 40
0.4090909090909092
 40
0.4090909090909092
 40
0.4090909090909092
 40
0.4090909090909092
 40
0.4545454545454546
 40
0.4545454545454546
 40
0.4545454545454546
 40
0.4545454545454546
 40
0.5000000000000001
 40
0.5000000000000001
 40
0.5000000000000001
 40
0.5000000000000001
 40
0.5454545454545455
 40
0.5454545454545455
 40
0.5454545454545455
 40
0.5454545454545455
 40
0.5909090909090909
 40
0.5909090909090909
 40
0.5909090909090909
 40
0.5909090909090909
 40
0.6363636363636364
 40
0.6363636363636364
 40
0.6363636363636364
 40
0.6363636363636364
 40
0.6818181818181818
 40
0.6818181818181818
 40
0.6818181818181818
 40
0.6818181818181818
 40
0.7272727272727272
 40
0.7272727272727272
 40
0.7272727272727272
 40
0.7272727272727272
 40
0.7727272727272726
 40
0.7727272727272726
 40
0.7727272727272726
 40
0.7727272727272726
 40
0.818181818181818
 40
0.818181818181818
 40
0.818181818181818
 40
0.818181818181818
 40
0.8636363636363634
 40
0.8636363636363634
 40
0.8636363636363634
 40
0.8636363636363634
 40
0.9090909090909088
 40
0.9090909090909088
 40
0.9090909090909088
 40
0.9090909090909088
 40
0.9545454545454543
 40
0.9545454545454543
 40
0.9545454545454543
 40
0.9545454545454543
 40
1.0
 40
1.0
 40
1.0
 40
1.0
 10
-13.64664
 20
-17.78447
 30
0.0
 10
-13.64664
 20
-17.78447
 30
0.0
 10
-13.61822
 20
-17.75604
 30
0.0
 10
-13.61822
 20
-17.75604
 30
0.0
 10
-13.61822
 20
-17.75604
 30
0.0
 10
-13.63179
 20
-17.70523
 30
0.0
 10
-13.63177
 20
-17.65157
 30
0.0
 10
-13.6182
 20
-17.60077
 30
0.0
 10
-13.6182
 20
-17.60077
 30
0.0
 10
-13.6182
 20
-17.60077
 30
0.0
 10
-13.64664
 20
-17.57233
 30
0.0
 10
-13.64664
 20
-17.57233
 30
0.0
 10
-13.64664
 20
-17.57233
 30
0.0
 10
-13.64664
 20
-17.57233
 30
0.0
 10
-13.43451
 20
-17.3602
 30
0.0
 10
-13.43451
 20
-17.3602
 30
0.0
 10
-13.43451
 20
-17.3602
 30
0.0
 10
-13.43451
 20
-17.3602
 30
0.0
 10
-13.40609
 20
-17.38862
 30
0.0
 10
-13.40609
 20
-17.38862
 30
0.0
 10
-13.40609
 20
-17.38862
 30
0.0
 10
-13.35528
 20
-17.37504
 30
0.0
 10
-13.30158
 20
-17.37502
 30
0.0
 10
-13.25075
 20
-17.38857
 30
0.0
 10
-13.25075
 20
-17.38857
 30
0.0
 10
-13.25075
 20
-17.38857
 30
0.0
 10
-13.22238
 20
-17.3602
 30
0.0
 10
-13.22238
 20
-17.3602
 30
0.0
 10
-13.22238
 20
-17.3602
 30
0.0
 10
-13.22238
 20
-17.3602
 30
0.0
 10
-13.11955
 20
-17.46303
 30
0.0
 10
-13.11955
 20
-17.46303
 30
0.0
 10
-13.11955
 20
-17.46303
 30
0.0
 10
-13.11955
 20
-17.46303
 30
0.0
 10
-13.11622
 20
-17.46628
 30
0.0
 10
-13.11622
 20
-17.46628
 30
0.0
 10
-13.11622
 20
-17.46628
 30
0.0
 10
-13.11622
 20
-17.46628
 30
0.0
 10
-13.11298
 20
-17.4696
 30
0.0
 10
-13.11298
 20
-17.4696
 30
0.0
 10
-13.11298
 20
-17.4696
 30
0.0
 10
-13.11298
 20
-17.4696
 30
0.0
 10
-13.01025
 20
-17.57233
 30
0.0
 10
-13.01025
 20
-17.57233
 30
0.0
 10
-13.01025
 20
-17.57233
 30
0.0
 10
-13.01025
 20
-17.57233
 30
0.0
 10
-13.03858
 20
-17.60067
 30
0.0
 10
-13.03858
 20
-17.60067
 30
0.0
 10
-13.03858
 20
-17.60067
 30
0.0
 10
-13.02499
 20
-17.65152
 30
0.0
 10
-13.02498
 20
-17.70527
 30
0.0
 10
-13.03858
 20
-17.75614
 30
0.0
 10
-13.03858
 20
-17.75614
 30
0.0
 10
-13.03858
 20
-17.75614
 30
0.0
 10
-13.01025
 20
-17.78447
 30
0.0
 10
-13.01025
 20
-17.78447
 30
0.0
 10
-13.01025
 20
-17.78447
 30
0.0
 10
-13.01025
 20
-17.78447
 30
0.0
 10
-13.11156
 20
-17.88578
 30
0.0
 10
-13.11156
 20
-17.88578
 30
0.0
 10
-13.11156
 20
-17.88578
 30
0.0
 10
-13.11156
 20
-17.88578
 30
0.0
 10
-13.11622
 20
-17.89055
 30
0.0
 10
-13.11622
 20
-17.89055
 30
0.0
 10
-13.11622
 20
-17.89055
 30
0.0
 10
-13.11622
 20
-17.89055
 30
0.0
 10
-13.121
 20
-17.89522
 30
0.0
 10
-13.121
 20
-17.89522
 30
0.0
 10
-13.121
 20
-17.89522
 30
0.0
 10
-13.121
 20
-17.89522
 30
0.0
 10
-13.22238
 20
-17.9966
 30
0.0
 10
-13.22238
 20
-17.9966
 30
0.0
 10
-13.22238
 20
-17.9966
 30
0.0
 10
-13.22238
 20
-17.9966
 30
0.0
 10
-13.25074
 20
-17.96824
 30
0.0
 10
-13.25074
 20
-17.96824
 30
0.0
 10
-13.25074
 20
-17.96824
 30
0.0
 10
-13.30158
 20
-17.98181
 30
0.0
 10
-13.3553
 20
-17.9818
 30
0.0
 10
-13.40612
 20
-17.96821
 30
0.0
 10
-13.40612
 20
-17.96821
 30
0.0
 10
-13.40612
 20
-17.96821
 30
0.0
 10
-13.43451
 20
-17.9966
 30
0.0
 10
-13.43451
 20
-17.9966
 30
0.0
 10
-13.43451
 20
-17.9966
 30
0.0
 10
-13.43451
 20
-17.9966
 30
0.0
 10
-13.64664
 20
-17.78447
 30
0.0
 10
-13.64664
 20
-17.78447
 30
0.0
  0
SPLINE
  5
6E
330
1F
100
AcDbEntity
  8
Layer 1
370
    53
100
AcDbSpline
210
0.0
220
0.0
230
1.0
 70
    11
 71
     3
 72
    92
 73
    88
 74
     0
 42
0.0000000001
 43
0.0000000001
 40
0.0
 40
0.0
 40
0.0
 40
0.0
 40
0.0454545454545455
 40
0.0454545454545455
 40
0.0454545454545455
 40
0.0454545454545455
 40
0.0909090909090909
 40
0.0909090909090909
 40
0.0909090909090909
 40
0.0909090909090909
 40
0.1363636363636364
 40
0.1363636363636364
 40
0.1363636363636364
 40
0.1363636363636364
 40
0.1818181818181818
 40
0.1818181818181818
 40
0.1818181818181818
 40
0.1818181818181818
 40
0.2272727272727273
 40
0.2272727272727273
 40
0.2272727272727273
 40
0.2272727272727273
 40
0.2727272727272728
 40
0.2727272727272728
 40
0.2727272727272728
 40
0.2727272727272728
 40
0.3181818181818182
 40
0.3181818181818182
 40
0.3181818181818182
 40
0.3181818181818182
 40
0.3636363636363637
 40
0.3636363636363637
 40
0.3636363636363637
 40
0.3636363636363637
 40
0.4090909090909092
 40
0.4090909090909092
 40
0.4090909090909092
 40
0.4090909090909092
 40
0.4545454545454546
 40
0.4545454545454546
 40
0.4545454545454546
 40
0.4545454545454546
 40
0.5000000000000001
 40
0.5000000000000001
 40
0.5000000000000001
 40
0.5000000000000001
 40
0.5454545454545455
 40
0.5454545454545455
 40
0.5454545454545455
 40
0.5454545454545455
 40
0.5909090909090909
 40
0.5909090909090909
 40
0.5909090909090909
 40
0.5909090909090909
 40
0.6363636363636364
 40
0.6363636363636364
 40
0.6363636363636364
 40
0.6363636363636364
 40
0.6818181818181818
 40
0.6818181818181818
 40
0.6818181818181818
 40
0.6818181818181818
 40
0.7272727272727272
 40
0.7272727272727272
 40
0.7272727272727272
 40
0.7272727272727272
 40
0.7727272727272726
 40
0.7727272727272726
 40
0.7727272727272726
 40
0.7727272727272726
 40
0.818181818181818
 40
0.818181818181818
 40
0.818181818181818
 40
0.818181818181818
 40
0.8636363636363634
 40
0.8636363636363634
 40
0.8636363636363634
 40
0.8636363636363634
 40
0.9090909090909088
 40
0.9090909090909088
 40
0.9090909090909088
 40
0.9090909090909088
 40
0.9545454545454543
 40
0.9545454545454543
 40
0.9545454545454543
 40
0.9545454545454543
 40
1.0
 40
1.0
 40
1.0
 40
1.0
 10
-7.98979
 20
-17.78447
 30
0.0
 10
-7.98979
 20
-17.78447
 30
0.0
 10
-7.96136
 20
-17.75604
 30
0.0
 10
-7.96136
 20
-17.75604
 30
0.0
 10
-7.96136
 20
-17.75604
 30
0.0
 10
-7.97493
 20
-17.70523
 30
0.0
 10
-7.97491
 20
-17.65157
 30
0.0
 10
-7.96135
 20
-17.60077
 30
0.0
 10
-7.96135
 20
-17.60077
 30
0.0
 10
-7.96135
 20
-17.60077
 30
0.0
 10
-7.98979
 20
-17.57233
 30
0.0
 10
-7.98979
 20
-17.57233
 30
0.0
 10
-7.98979
 20
-17.57233
 30
0.0
 10
-7.98979
 20
-17.57233
 30
0.0
 10
-7.77766
 20
-17.3602
 30
0.0
 10
-7.77766
 20
-17.3602
 30
0.0
 10
-7.77766
 20
-17.3602
 30
0.0
 10
-7.77766
 20
-17.3602
 30
0.0
 10
-7.74924
 20
-17.38862
 30
0.0
 10
-7.74924
 20
-17.38862
 30
0.0
 10
-7.74924
 20
-17.38862
 30
0.0
 10
-7.69843
 20
-17.37504
 30
0.0
 10
-7.64473
 20
-17.37502
 30
0.0
 10
-7.5939
 20
-17.38857
 30
0.0
 10
-7.5939
 20
-17.38857
 30
0.0
 10
-7.5939
 20
-17.38857
 30
0.0
 10
-7.56553
 20
-17.3602
 30
0.0
 10
-7.56553
 20
-17.3602
 30
0.0
 10
-7.56553
 20
-17.3602
 30
0.0
 10
-7.56553
 20
-17.3602
 30
0.0
 10
-7.4627
 20
-17.46303
 30
0.0
 10
-7.4627
 20
-17.46303
 30
0.0
 10
-7.4627
 20
-17.46303
 30
0.0
 10
-7.4627
 20
-17.46303
 30
0.0
 10
-7.45937
 20
-17.46628
 30
0.0
 10
-7.45937
 20
-17.46628
 30
0.0
 10
-7.45937
 20
-17.46628
 30
0.0
 10
-7.45937
 20
-17.46628
 30
0.0
 10
-7.45613
 20
-17.4696
 30
0.0
 10
-7.45613
 20
-17.4696
 30
0.0
 10
-7.45613
 20
-17.4696
 30
0.0
 10
-7.45613
 20
-17.4696
 30
0.0
 10
-7.35339
 20
-17.57233
 30
0.0
 10
-7.35339
 20
-17.57233
 30
0.0
 10
-7.35339
 20
-17.57233
 30
0.0
 10
-7.35339
 20
-17.57233
 30
0.0
 10
-7.38173
 20
-17.60067
 30
0.0
 10
-7.38173
 20
-17.60067
 30
0.0
 10
-7.38173
 20
-17.60067
 30
0.0
 10
-7.36814
 20
-17.65152
 30
0.0
 10
-7.36813
 20
-17.70527
 30
0.0
 10
-7.38172
 20
-17.75614
 30
0.0
 10
-7.38172
 20
-17.75614
 30
0.0
 10
-7.38172
 20
-17.75614
 30
0.0
 10
-7.35339
 20
-17.78447
 30
0.0
 10
-7.35339
 20
-17.78447
 30
0.0
 10
-7.35339
 20
-17.78447
 30
0.0
 10
-7.35339
 20
-17.78447
 30
0.0
 10
-7.45471
 20
-17.88578
 30
0.0
 10
-7.45471
 20
-17.88578
 30
0.0
 10
-7.45471
 20
-17.88578
 30
0.0
 10
-7.45471
 20
-17.88578
 30
0.0
 10
-7.45937
 20
-17.89055
 30
0.0
 10
-7.45937
 20
-17.89055
 30
0.0
 10
-7.45937
 20
-17.89055
 30
0.0
 10
-7.45937
 20
-17.89055
 30
0.0
 10
-7.46415
 20
-17.89522
 30
0.0
 10
-7.46415
 20
-17.89522
 30
0.0
 10
-7.46415
 20
-17.89522
 30
0.0
 10
-7.46415
 20
-17.89522
 30
0.0
 10
-7.56553
 20
-17.9966
 30
0.0
 10
-7.56553
 20
-17.9966
 30
0.0
 10
-7.56553
 20
-17.9966
 30
0.0
 10
-7.56553
 20
-17.9966
 30
0.0
 10
-7.59388
 20
-17.96824
 30
0.0
 10
-7.59388
 20
-17.96824
 30
0.0
 10
-7.59388
 20
-17.96824
 30
0.0
 10
-7.64472
 20
-17.98181
 30
0.0
 10
-7.69844
 20
-17.9818
 30
0.0
 10
-7.74927
 20
-17.96821
 30
0.0
 10
-7.74927
 20
-17.96821
 30
0.0
 10
-7.74927
 20
-17.96821
 30
0.0
 10
-7.77766
 20
-17.9966
 30
0.0
 10
-7.77766
 20
-17.9966
 30
0.0
 10
-7.77766
 20
-17.9966
 30
0.0
 10
-7.77766
 20
-17.9966
 30
0.0
 10
-7.98979
 20
-17.78447
 30
0.0
 10
-7.98979
 20
-17.78447
 30
0.0
  0
SPLINE
  5
6F
330
1F
100
AcDbEntity
  8
Layer 1
370
    53
100
AcDbSpline
210
0.0
220
0.0
230
1.0
 70
    11
 71
     3
 72
    92
 73
    88
 74
     0
 42
0.0000000001
 43
0.0000000001
 40
0.0
 40
0.0
 40
0.0
 40
0.0
 40
0.0454545454545455
 40
0.0454545454545455
 40
0.0454545454545455
 40
0.0454545454545455
 40
0.0909090909090909
 40
0.0909090909090909
 40
0.0909090909090909
 40
0.0909090909090909
 40
0.1363636363636364
 40
0.1363636363636364
 40
0.1363636363636364
 40
0.1363636363636364
 40
0.1818181818181818
 40
0.1818181818181818
 40
0.1818181818181818
 40
0.1818181818181818
 40
0.2272727272727273
 40
0.2272727272727273
 40
0.2272727272727273
 40
0.2272727272727273
 40
0.2727272727272728
 40
0.2727272727272728
 40
0.2727272727272728
 40
0.2727272727272728
 40
0.3181818181818182
 40
0.3181818181818182
 40
0.3181818181818182
 40
0.3181818181818182
 40
0.3636363636363637
 40
0.3636363636363637
 40
0.3636363636363637
 40
0.3636363636363637
 40
0.4090909090909092
 40
0.4090909090909092
 40
0.4090909090909092
 40
0.4090909090909092
 40
0.4545454545454546
 40
0.4545454545454546
 40
0.4545454545454546
 40
0.4545454545454546
 40
0.5000000000000001
 40
0.5000000000000001
 40
0.5000000000000001
 40
0.5000000000000001
 40
0.5454545454545455
 40
0.5454545454545455
 40
0.5454545454545455
 40
0.5454545454545455
 40
0.5909090909090909
 40
0.5909090909090909
 40
0.5909090909090909
 40
0.5909090909090909
 40
0.6363636363636364
 40
0.6363636363636364
 40
0.6363636363636364
 40
0.6363636363636364
 40
0.6818181818181818
 40
0.6818181818181818
 40
0.6818181818181818
 40
0.6818181818181818
 40
0.7272727272727272
 40
0.7272727272727272
 40
0.7272727272727272
 40
0.7272727272727272
 40
0.7727272727272726
 40
0.7727272727272726
 40
0.7727272727272726
 40
0.7727272727272726
 40
0.818181818181818
 40
0.818181818181818
 40
0.818181818181818
 40
0.818181818181818
 40
0.8636363636363634
 40
0.8636363636363634
 40
0.8636363636363634
 40
0.8636363636363634
 40
0.9090909090909088
 40
0.9090909090909088
 40
0.9090909090909088
 40
0.9090909090909088
 40
0.9545454545454543
 40
0.9545454545454543
 40
0.9545454545454543
 40
0.9545454545454543
 40
1.0
 40
1.0
 40
1.0
 40
1.0
 10
-7.98979
 20
-12.12761
 30
0.0
 10
-7.98979
 20
-12.12761
 30
0.0
 10
-7.96136
 20
-12.09919
 30
0.0
 10
-7.96136
 20
-12.09919
 30
0.0
 10
-7.96136
 20
-12.09919
 30
0.0
 10
-7.97493
 20
-12.04838
 30
0.0
 10
-7.97491
 20
-11.99472
 30
0.0
 10
-7.96135
 20
-11.94392
 30
0.0
 10
-7.96135
 20
-11.94392
 30
0.0
 10
-7.96135
 20
-11.94392
 30
0.0
 10
-7.98979
 20
-11.91548
 30
0.0
 10
-7.98979
 20
-11.91548
 30
0.0
 10
-7.98979
 20
-11.91548
 30
0.0
 10
-7.98979
 20
-11.91548
 30
0.0
 10
-7.77766
 20
-11.70335
 30
0.0
 10
-7.77766
 20
-11.70335
 30
0.0
 10
-7.77766
 20
-11.70335
 30
0.0
 10
-7.77766
 20
-11.70335
 30
0.0
 10
-7.74924
 20
-11.73177
 30
0.0
 10
-7.74924
 20
-11.73177
 30
0.0
 10
-7.74924
 20
-11.73177
 30
0.0
 10
-7.69843
 20
-11.71819
 30
0.0
 10
-7.64473
 20
-11.71816
 30
0.0
 10
-7.5939
 20
-11.73172
 30
0.0
 10
-7.5939
 20
-11.73172
 30
0.0
 10
-7.5939
 20
-11.73172
 30
0.0
 10
-7.56553
 20
-11.70335
 30
0.0
 10
-7.56553
 20
-11.70335
 30
0.0
 10
-7.56553
 20
-11.70335
 30
0.0
 10
-7.56553
 20
-11.70335
 30
0.0
 10
-7.4627
 20
-11.80618
 30
0.0
 10
-7.4627
 20
-11.80618
 30
0.0
 10
-7.4627
 20
-11.80618
 30
0.0
 10
-7.4627
 20
-11.80618
 30
0.0
 10
-7.45937
 20
-11.80942
 30
0.0
 10
-7.45937
 20
-11.80942
 30
0.0
 10
-7.45937
 20
-11.80942
 30
0.0
 10
-7.45937
 20
-11.80942
 30
0.0
 10
-7.45613
 20
-11.81274
 30
0.0
 10
-7.45613
 20
-11.81274
 30
0.0
 10
-7.45613
 20
-11.81274
 30
0.0
 10
-7.45613
 20
-11.81274
 30
0.0
 10
-7.35339
 20
-11.91548
 30
0.0
 10
-7.35339
 20
-11.91548
 30
0.0
 10
-7.35339
 20
-11.91548
 30
0.0
 10
-7.35339
 20
-11.91548
 30
0.0
 10
-7.38173
 20
-11.94381
 30
0.0
 10
-7.38173
 20
-11.94381
 30
0.0
 10
-7.38173
 20
-11.94381
 30
0.0
 10
-7.36814
 20
-11.99467
 30
0.0
 10
-7.36813
 20
-12.04842
 30
0.0
 10
-7.38172
 20
-12.09929
 30
0.0
 10
-7.38172
 20
-12.09929
 30
0.0
 10
-7.38172
 20
-12.09929
 30
0.0
 10
-7.35339
 20
-12.12761
 30
0.0
 10
-7.35339
 20
-12.12761
 30
0.0
 10
-7.35339
 20
-12.12761
 30
0.0
 10
-7.35339
 20
-12.12761
 30
0.0
 10
-7.45471
 20
-12.22893
 30
0.0
 10
-7.45471
 20
-12.22893
 30
0.0
 10
-7.45471
 20
-12.22893
 30
0.0
 10
-7.45471
 20
-12.22893
 30
0.0
 10
-7.45937
 20
-12.2337
 30
0.0
 10
-7.45937
 20
-12.2337
 30
0.0
 10
-7.45937
 20
-12.2337
 30
0.0
 10
-7.45937
 20
-12.2337
 30
0.0
 10
-7.46415
 20
-12.23837
 30
0.0
 10
-7.46415
 20
-12.23837
 30
0.0
 10
-7.46415
 20
-12.23837
 30
0.0
 10
-7.46415
 20
-12.23837
 30
0.0
 10
-7.56553
 20
-12.33974
 30
0.0
 10
-7.56553
 20
-12.33974
 30
0.0
 10
-7.56553
 20
-12.33974
 30
0.0
 10
-7.56553
 20
-12.33974
 30
0.0
 10
-7.59388
 20
-12.31139
 30
0.0
 10
-7.59388
 20
-12.31139
 30
0.0
 10
-7.59388
 20
-12.31139
 30
0.0
 10
-7.64472
 20
-12.32495
 30
0.0
 10
-7.69844
 20
-12.32494
 30
0.0
 10
-7.74927
 20
-12.31135
 30
0.0
 10
-7.74927
 20
-12.31135
 30
0.0
 10
-7.74927
 20
-12.31135
 30
0.0
 10
-7.77766
 20
-12.33974
 30
0.0
 10
-7.77766
 20
-12.33974
 30
0.0
 10
-7.77766
 20
-12.33974
 30
0.0
 10
-7.77766
 20
-12.33974
 30
0.0
 10
-7.98979
 20
-12.12761
 30
0.0
 10
-7.98979
 20
-12.12761
 30
0.0
  0
ENDSEC
  0
SECTION
  2
OBJECTS
  0
DICTIONARY
  5
C
330
0
100
AcDbDictionary
281
     1
  3
ACAD_GROUP
350
D
  3
ACAD_LAYOUT
350
1A
  3
ACAD_MLEADERSTYLE
350
71
  3
ACAD_MLINESTYLE
350
17
  3
ACAD_PLOTSETTINGS
350
19
  3
ACAD_PLOTSTYLENAME
350
E
  3
ACAD_SCALELIST
350
3B
  3
ACAD_TABLESTYLE
350
70
  3
ACAD_VISUALSTYLE
350
2A
  0
DICTIONARY
  5
D
102
{ACAD_REACTORS
330
C
102
}
330
C
100
AcDbDictionary
281
     1
  0
DICTIONARY
  5
1A
102
{ACAD_REACTORS
330
C
102
}
330
C
100
AcDbDictionary
281
     1
  3
Layout1
350
1E
  3
Layout2
350
26
  3
Model
350
22
  0
DICTIONARY
  5
71
102
{ACAD_REACTORS
330
C
102
}
330
C
100
AcDbDictionary
281
     1
  0
DICTIONARY
  5
17
102
{ACAD_REACTORS
330
C
102
}
330
C
100
AcDbDictionary
281
     1
  3
Standard
350
18
  0
DICTIONARY
  5
19
102
{ACAD_REACTORS
330
C
102
}
330
C
100
AcDbDictionary
281
     1
  0
ACDBDICTIONARYWDFLT
  5
E
102
{ACAD_REACTORS
330
C
102
}
330
C
100
AcDbDictionary
281
     1
  3
Normal
350
F
100
AcDbDictionaryWithDefault
340
F
  0
DICTIONARY
  5
3B
102
{ACAD_REACTORS
330
C
102
}
330
C
100
AcDbDictionary
281
     1
  3
A0
350
3C
  3
A1
350
3D
  3
A2
350
3E
  3
A3
350
3F
  3
A4
350
40
  3
A5
350
41
  3
A6
350
42
  3
A7
350
43
  3
A8
350
44
  3
A9
350
45
  3
B0
350
46
  3
B1
350
47
  3
B2
350
48
  3
B3
350
49
  3
B4
350
4A
  3
B5
350
4B
  3
B6
350
4C
  3
B7
350
4D
  3
B8
350
4E
  3
B9
350
4F
  3
C0
350
50
  3
C1
350
51
  3
C2
350
52
  3
C3
350
53
  3
C4
350
54
  3
C5
350
55
  3
C6
350
56
  3
C7
350
57
  3
C8
350
58
  3
C9
350
59
  3
D0
350
5A
  3
D1
350
5B
  3
D2
350
5C
  0
DICTIONARY
  5
70
102
{ACAD_REACTORS
330
C
102
}
330
C
100
AcDbDictionary
281
     1
  0
DICTIONARY
  5
2A
102
{ACAD_REACTORS
330
C
102
}
330
C
100
AcDbDictionary
281
     1
  3
2dWireframe
350
2F
  3
3D Hidden
350
31
  3
3dWireframe
350
30
  3
Basic
350
32
  3
Brighten
350
36
  3
ColorChange
350
3A
  3
Conceptual
350
34
  3
Dim
350
35
  3
Facepattern
350
39
  3
Flat
350
2B
  3
FlatWithEdges
350
2C
  3
Gouraud
350
2D
  3
GouraudWithEdges
350
2E
  3
Linepattern
350
38
  3
Realistic
350
33
  3
Thicken
350
37
  0
LAYOUT
  5
1E
102
{ACAD_REACTORS
330
1A
102
}
330
1A
100
AcDbPlotSettings
  1

  2
none_device
  4

  6

 40
0.0
 41
0.0
 42
0.0
 43
0.0
 44
0.0
 45
0.0
 46
0.0
 47
0.0
 48
0.0
 49
0.0
140
0.0
141
0.0
142
1.0
143
1.0
 70
   688
 72
     0
 73
     0
 74
     5
  7

 75
    16
 76
     0
 77
     2
 78
   300
147
1.0
148
0.0
149
0.0
100
AcDbLayout
  1
Layout1
 70
     1
 71
     1
 10
0.0
 20
0.0
 11
12.0
 21
9.0
 12
0.0
 22
0.0
 32
0.0
 14
1.000000000000000E+20
 24
1.000000000000000E+20
 34
1.000000000000000E+20
 15
-1.000000000000000E+20
 25
-1.000000000000000E+20
 35
-1.000000000000000E+20
146
0.0
 13
0.0
 23
0.0
 33
0.0
 16
1.0
 26
0.0
 36
0.0
 17
0.0
 27
1.0
 37
0.0
 76
     0
330
1B
  0
LAYOUT
  5
26
102
{ACAD_REACTORS
330
1A
102
}
330
1A
100
AcDbPlotSettings
  1

  2
none_device
  4

  6

 40
0.0
 41
0.0
 42
0.0
 43
0.0
 44
0.0
 45
0.0
 46
0.0
 47
0.0
 48
0.0
 49
0.0
140
0.0
141
0.0
142
1.0
143
1.0
 70
   688
 72
     0
 73
     0
 74
     5
  7

 75
    16
 76
     0
 77
     2
 78
   300
147
1.0
148
0.0
149
0.0
100
AcDbLayout
  1
Layout2
 70
     1
 71
     2
 10
0.0
 20
0.0
 11
0.0
 21
0.0
 12
0.0
 22
0.0
 32
0.0
 14
0.0
 24
0.0
 34
0.0
 15
0.0
 25
0.0
 35
0.0
146
0.0
 13
0.0
 23
0.0
 33
0.0
 16
1.0
 26
0.0
 36
0.0
 17
0.0
 27
1.0
 37
0.0
 76
     0
330
23
  0
LAYOUT
  5
22
102
{ACAD_REACTORS
330
1A
102
}
330
1A
100
AcDbPlotSettings
  1

  2
none_device
  4

  6

 40
0.0
 41
0.0
 42
0.0
 43
0.0
 44
0.0
 45
0.0
 46
0.0
 47
0.0
 48
0.0
 49
0.0
140
0.0
141
0.0
142
1.0
143
1.0
 70
  1712
 72
     0
 73
     0
 74
     0
  7

 75
     0
 76
     0
 77
     2
 78
   300
147
1.0
148
0.0
149
0.0
100
AcDbLayout
  1
Model
 70
     1
 71
     0
 10
0.0
 20
0.0
 11
12.0
 21
9.0
 12
0.0
 22
0.0
 32
0.0
 14
-15.17822
 24
-19.52826
 34
0.0
 15
-5.82178
 25
-10.17182
 35
0.0
146
0.0
 13
0.0
 23
0.0
 33
0.0
 16
1.0
 26
0.0
 36
0.0
 17
0.0
 27
1.0
 37
0.0
 76
     0
330
1F
331
29
  0
MLINESTYLE
  5
18
102
{ACAD_REACTORS
330
17
102
}
330
17
100
AcDbMlineStyle
  2
Standard
 70
     0
  3

 62
   256
 51
90.0
 52
90.0
 71
     2
 49
0.5
 62
   256
  6
BYLAYER
 49
-0.5
 62
   256
  6
BYLAYER
  0
ACDBPLACEHOLDER
  5
F
102
{ACAD_REACTORS
330
E
102
}
330
E
  0
SCALE
  5
3C
102
{ACAD_REACTORS
330
3B
102
}
330
3B
100
AcDbScale
 70
     0
300
1:1
140
1.0
141
1.0
290
     1
  0
SCALE
  5
3D
102
{ACAD_REACTORS
330
3B
102
}
330
3B
100
AcDbScale
 70
     0
300
1:2
140
1.0
141
2.0
290
     0
  0
SCALE
  5
3E
102
{ACAD_REACTORS
330
3B
102
}
330
3B
100
AcDbScale
 70
     0
300
1:4
140
1.0
141
4.0
290
     0
  0
SCALE
  5
3F
102
{ACAD_REACTORS
330
3B
102
}
330
3B
100
AcDbScale
 70
     0
300
1:5
140
1.0
141
5.0
290
     0
  0
SCALE
  5
40
102
{ACAD_REACTORS
330
3B
102
}
330
3B
100
AcDbScale
 70
     0
300
1:8
140
1.0
141
8.0
290
     0
  0
SCALE
  5
41
102
{ACAD_REACTORS
330
3B
102
}
330
3B
100
AcDbScale
 70
     0
300
1:10
140
1.0
141
10.0
290
     0
  0
SCALE
  5
42
102
{ACAD_REACTORS
330
3B
102
}
330
3B
100
AcDbScale
 70
     0
300
1:16
140
1.0
141
16.0
290
     0
  0
SCALE
  5
43
102
{ACAD_REACTORS
330
3B
102
}
330
3B
100
AcDbScale
 70
     0
300
1:20
140
1.0
141
20.0
290
     0
  0
SCALE
  5
44
102
{ACAD_REACTORS
330
3B
102
}
330
3B
100
AcDbScale
 70
     0
300
1:30
140
1.0
141
30.0
290
     0
  0
SCALE
  5
45
102
{ACAD_REACTORS
330
3B
102
}
330
3B
100
AcDbScale
 70
     0
300
1:40
140
1.0
141
40.0
290
     0
  0
SCALE
  5
46
102
{ACAD_REACTORS
330
3B
102
}
330
3B
100
AcDbScale
 70
     0
300
1:50
140
1.0
141
50.0
290
     0
  0
SCALE
  5
47
102
{ACAD_REACTORS
330
3B
102
}
330
3B
100
AcDbScale
 70
     0
300
1:100
140
1.0
141
100.0
290
     0
  0
SCALE
  5
48
102
{ACAD_REACTORS
330
3B
102
}
330
3B
100
AcDbScale
 70
     0
300
2:1
140
2.0
141
1.0
290
     0
  0
SCALE
  5
49
102
{ACAD_REACTORS
330
3B
102
}
330
3B
100
AcDbScale
 70
     0
300
4:1
140
4.0
141
1.0
290
     0
  0
SCALE
  5
4A
102
{ACAD_REACTORS
330
3B
102
}
330
3B
100
AcDbScale
 70
     0
300
8:1
140
8.0
141
1.0
290
     0
  0
SCALE
  5
4B
102
{ACAD_REACTORS
330
3B
102
}
330
3B
100
AcDbScale
 70
     0
300
10:1
140
10.0
141
1.0
290
     0
  0
SCALE
  5
4C
102
{ACAD_REACTORS
330
3B
102
}
330
3B
100
AcDbScale
 70
     0
300
100:1
140
100.0
141
1.0
290
     0
  0
SCALE
  5
4D
102
{ACAD_REACTORS
330
3B
102
}
330
3B
100
AcDbScale
 70
     0
300
1/128" = 1'-0"
140
0.0078125
141
12.0
290
     0
  0
SCALE
  5
4E
102
{ACAD_REACTORS
330
3B
102
}
330
3B
100
AcDbScale
 70
     0
300
1/64" = 1'-0"
140
0.015625
141
12.0
290
     0
  0
SCALE
  5
4F
102
{ACAD_REACTORS
330
3B
102
}
330
3B
100
AcDbScale
 70
     0
300
1/32" = 1'-0"
140
0.03125
141
12.0
290
     0
  0
SCALE
  5
50
102
{ACAD_REACTORS
330
3B
102
}
330
3B
100
AcDbScale
 70
     0
300
1/16" = 1'-0"
140
0.0625
141
12.0
290
     0
  0
SCALE
  5
51
102
{ACAD_REACTORS
330
3B
102
}
330
3B
100
AcDbScale
 70
     0
300
3/32" = 1'-0"
140
0.09375
141
12.0
290
     0
  0
SCALE
  5
52
102
{ACAD_REACTORS
330
3B
102
}
330
3B
100
AcDbScale
 70
     0
300
1/8" = 1'-0"
140
0.125
141
12.0
290
     0
  0
SCALE
  5
53
102
{ACAD_REACTORS
330
3B
102
}
330
3B
100
AcDbScale
 70
     0
300
3/16" = 1'-0"
140
0.1875
141
12.0
290
     0
  0
SCALE
  5
54
102
{ACAD_REACTORS
330
3B
102
}
330
3B
100
AcDbScale
 70
     0
300
1/4" = 1'-0"
140
0.25
141
12.0
290
     0
  0
SCALE
  5
55
102
{ACAD_REACTORS
330
3B
102
}
330
3B
100
AcDbScale
 70
     0
300
3/8" = 1'-0"
140
0.375
141
12.0
290
     0
  0
SCALE
  5
56
102
{ACAD_REACTORS
330
3B
102
}
330
3B
100
AcDbScale
 70
     0
300
1/2" = 1'-0"
140
0.5
141
12.0
290
     0
  0
SCALE
  5
57
102
{ACAD_REACTORS
330
3B
102
}
330
3B
100
AcDbScale
 70
     0
300
3/4" = 1'-0"
140
0.75
141
12.0
290
     0
  0
SCALE
  5
58
102
{ACAD_REACTORS
330
3B
102
}
330
3B
100
AcDbScale
 70
     0
300
1" = 1'-0"
140
1.0
141
12.0
290
     0
  0
SCALE
  5
59
102
{ACAD_REACTORS
330
3B
102
}
330
3B
100
AcDbScale
 70
     0
300
1-1/2" = 1'-0"
140
1.5
141
12.0
290
     0
  0
SCALE
  5
5A
102
{ACAD_REACTORS
330
3B
102
}
330
3B
100
AcDbScale
 70
     0
300
3" = 1'-0"
140
3.0
141
12.0
290
     0
  0
SCALE
  5
5B
102
{ACAD_REACTORS
330
3B
102
}
330
3B
100
AcDbScale
 70
     0
300
6" = 1'-0"
140
6.0
141
12.0
290
     0
  0
SCALE
  5
5C
102
{ACAD_REACTORS
330
3B
102
}
330
3B
100
AcDbScale
 70
     0
300
1'-0" = 1'-0"
140
12.0
141
12.0
290
     0
  0
VISUALSTYLE
  5
2F
102
{ACAD_REACTORS
330
2A
102
}
330
2A
100
AcDbVisualStyle
  2
2dWireframe
 70
     4
 71
     0
 72
     2
 73
     0
 90
        0
 40
-0.6
 41
-30.0
 62
     5
 63
     7
421
 16777215
 74
     1
 91
        4
 64
     7
 65
   257
 75
     1
175
     1
 42
1.0
 92
        0
 66
   257
 43
1.0
 76
     1
 77
     6
 78
     2
 67
     7
 79
     5
170
     0
171
     0
290
     0
174
     0
 93
        1
 44
0.0
173
     0
291
     0
 45
0.0
  0
VISUALSTYLE
  5
31
102
{ACAD_REACTORS
330
2A
102
}
330
2A
100
AcDbVisualStyle
  2
3D Hidden
 70
     6
 71
     1
 72
     2
 73
     2
 90
        0
 40
-0.6
 41
-30.0
 62
     5
 63
     7
421
 16777215
 74
     2
 91
        2
 64
     7
 65
   257
 75
     2
175
     1
 42
40.0
 92
        0
 66
   257
 43
1.0
 76
     1
 77
     6
 78
     2
 67
     7
 79
     3
170
     0
171
     0
290
     0
174
     0
 93
        1
 44
0.0
173
     0
291
     0
 45
0.0
  0
VISUALSTYLE
  5
30
102
{ACAD_REACTORS
330
2A
102
}
330
2A
100
AcDbVisualStyle
  2
3dWireframe
 70
     5
 71
     0
 72
     2
 73
     0
 90
        0
 40
-0.6
 41
-30.0
 62
     5
 63
     7
421
 16777215
 74
     1
 91
        4
 64
     7
 65
   257
 75
     1
175
     1
 42
1.0
 92
        0
 66
   257
 43
1.0
 76
     1
 77
     6
 78
     2
 67
     7
 79
     5
170
     0
171
     0
290
     0
174
     0
 93
        1
 44
0.0
173
     0
291
     0
 45
0.0
  0
VISUALSTYLE
  5
32
102
{ACAD_REACTORS
330
2A
102
}
330
2A
100
AcDbVisualStyle
  2
Basic
 70
     7
 71
     1
 72
     0
 73
     1
 90
        0
 40
-0.6
 41
-30.0
 62
     5
 63
     7
421
 16777215
 74
     0
 91
        4
 64
     7
 65
   257
 75
     1
175
     1
 42
1.0
 92
        8
 66
     7
 43
1.0
 76
     1
 77
     6
 78
     2
 67
     7
 79
     5
170
     0
171
     0
290
     0
174
     0
 93
        1
 44
0.0
173
     0
291
     1
 45
0.0
  0
VISUALSTYLE
  5
36
102
{ACAD_REACTORS
330
2A
102
}
330
2A
100
AcDbVisualStyle
  2
Brighten
 70
    12
 71
     2
 72
     2
 73
     0
 90
        0
 40
-0.6
 41
-30.0
 62
     5
 63
     7
421
 16777215
 74
     1
 91
        4
 64
     7
 65
   257
 75
     1
175
     1
 42
1.0
 92
        8
 66
     7
 43
1.0
 76
     1
 77
     6
 78
     2
 67
     7
 79
     5
170
     0
171
     0
290
     0
174
     0
 93
        1
 44
50.0
173
     0
291
     1
 45
0.0
  0
VISUALSTYLE
  5
3A
102
{ACAD_REACTORS
330
2A
102
}
330
2A
100
AcDbVisualStyle
  2
ColorChange
 70
    16
 71
     2
 72
     2
 73
     3
 90
        0
 40
-0.6
 41
-30.0
 62
     5
 63
     8
421
  8421504
 74
     1
 91
        4
 64
     7
 65
   257
 75
     1
175
     1
 42
1.0
 92
        8
 66
     8
424
  8421504
 43
1.0
 76
     1
 77
     6
 78
     2
 67
     7
 79
     5
170
     0
171
     0
290
     0
174
     0
 93
        1
 44
0.0
173
     0
291
     1
 45
0.0
  0
VISUALSTYLE
  5
34
102
{ACAD_REACTORS
330
2A
102
}
330
2A
100
AcDbVisualStyle
  2
Conceptual
 70
     9
 71
     3
 72
     2
 73
     0
 90
        0
 40
-0.6
 41
-30.0
 62
     5
 63
     7
421
 16777215
 74
     2
 91
        2
 64
     7
 65
   257
 75
     1
175
     1
 42
40.0
 92
        8
 66
     7
 43
1.0
 76
     1
 77
     6
 78
     2
 67
     7
 79
     3
170
     0
171
     0
290
     0
174
     0
 93
        1
 44
0.0
173
     0
291
     0
 45
0.0
  0
VISUALSTYLE
  5
35
102
{ACAD_REACTORS
330
2A
102
}
330
2A
100
AcDbVisualStyle
  2
Dim
 70
    11
 71
     2
 72
     2
 73
     0
 90
        0
 40
-0.6
 41
-30.0
 62
     5
 63
     7
421
 16777215
 74
     1
 91
        4
 64
     7
 65
   257
 75
     1
175
     1
 42
1.0
 92
        8
 66
     7
 43
1.0
 76
     1
 77
     6
 78
     2
 67
     7
 79
     5
170
     0
171
     0
290
     0
174
     0
 93
        1
 44
-50.0
173
     0
291
     1
 45
0.0
  0
VISUALSTYLE
  5
39
102
{ACAD_REACTORS
330
2A
102
}
330
2A
100
AcDbVisualStyle
  2
Facepattern
 70
    15
 71
     2
 72
     2
 73
     0
 90
        0
 40
-0.6
 41
-30.0
 62
     5
 63
     7
421
 16777215
 74
     1
 91
        4
 64
     7
 65
   257
 75
     1
175
     1
 42
1.0
 92
        8
 66
     7
 43
1.0
 76
     1
 77
     6
 78
     2
 67
     7
 79
     5
170
     0
171
     0
290
     0
174
     0
 93
        1
 44
0.0
173
     0
291
     1
 45
0.0
  0
VISUALSTYLE
  5
2B
102
{ACAD_REACTORS
330
2A
102
}
330
2A
100
AcDbVisualStyle
  2
Flat
 70
     0
 71
     2
 72
     1
 73
     1
 90
        2
 40
-0.6
 41
30.0
 62
     5
 63
     7
421
 16777215
 74
     0
 91
        4
 64
     7
 65
   257
 75
     1
175
     1
 42
1.0
 92
        8
 66
     7
 43
1.0
 76
     1
 77
     6
 78
     2
 67
     7
 79
     5
170
     0
171
     0
290
     0
174
     0
 93
       13
 44
0.0
173
     0
291
     1
 45
0.0
  0
VISUALSTYLE
  5
2C
102
{ACAD_REACTORS
330
2A
102
}
330
2A
100
AcDbVisualStyle
  2
FlatWithEdges
 70
     1
 71
     2
 72
     1
 73
     1
 90
        2
 40
-0.6
 41
30.0
 62
     5
 63
     7
421
 16777215
 74
     1
 91
        4
 64
     7
 65
   257
 75
     1
175
     1
 42
1.0
 92
        0
 66
   257
 43
1.0
 76
     1
 77
     6
 78
     2
 67
     7
 79
     5
170
     0
171
     0
290
     0
174
     0
 93
       13
 44
0.0
173
     0
291
     1
 45
0.0
  0
VISUALSTYLE
  5
2D
102
{ACAD_REACTORS
330
2A
102
}
330
2A
100
AcDbVisualStyle
  2
Gouraud
 70
     2
 71
     2
 72
     2
 73
     1
 90
        2
 40
-0.6
 41
30.0
 62
     5
 63
     7
421
 16777215
 74
     0
 91
        4
 64
     7
 65
   257
 75
     1
175
     1
 42
1.0
 92
        0
 66
     7
 43
1.0
 76
     1
 77
     6
 78
     2
 67
     7
 79
     5
170
     0
171
     0
290
     0
174
     0
 93
       13
 44
0.0
173
     0
291
     1
 45
0.0
  0
VISUALSTYLE
  5
2E
102
{ACAD_REACTORS
330
2A
102
}
330
2A
100
AcDbVisualStyle
  2
GouraudWithEdges
 70
     3
 71
     2
 72
     2
 73
     1
 90
        2
 40
-0.6
 41
30.0
 62
     5
 63
     7
421
 16777215
 74
     1
 91
        4
 64
     7
 65
   257
 75
     1
175
     1
 42
1.0
 92
        0
 66
   257
 43
1.0
 76
     1
 77
     6
 78
     2
 67
     7
 79
     5
170
     0
171
     0
290
     0
174
     0
 93
       13
 44
0.0
173
     0
291
     1
 45
0.0
  0
VISUALSTYLE
  5
38
102
{ACAD_REACTORS
330
2A
102
}
330
2A
100
AcDbVisualStyle
  2
Linepattern
 70
    14
 71
     2
 72
     2
 73
     0
 90
        0
 40
-0.6
 41
-30.0
 62
     5
 63
     7
421
 16777215
 74
     1
 91
        4
 64
     7
 65
   257
 75
     7
175
     7
 42
1.0
 92
        8
 66
     7
 43
1.0
 76
     1
 77
     6
 78
     2
 67
     7
 79
     5
170
     0
171
     0
290
     0
174
     0
 93
        1
 44
0.0
173
     0
291
     1
 45
0.0
  0
VISUALSTYLE
  5
33
102
{ACAD_REACTORS
330
2A
102
}
330
2A
100
AcDbVisualStyle
  2
Realistic
 70
     8
 71
     2
 72
     2
 73
     0
 90
        0
 40
-0.6
 41
-30.0
 62
     5
 63
     7
421
 16777215
 74
     1
 91
        0
 64
     7
 65
   257
 75
     1
175
     1
 42
1.0
 92
        8
 66
     8
424
  7895160
 43
1.0
 76
     1
 77
     6
 78
     2
 67
     7
 79
     5
170
     0
171
     0
290
     0
174
     0
 93
       13
 44
0.0
173
     0
291
     0
 45
0.0
  0
VISUALSTYLE
  5
37
102
{ACAD_REACTORS
330
2A
102
}
330
2A
100
AcDbVisualStyle
  2
Thicken
 70
    13
 71
     2
 72
     2
 73
     0
 90
        0
 40
-0.6
 41
-30.0
 62
     5
 63
     7
421
 16777215
 74
     1
 91
        4
 64
     7
 65
   257
 75
     1
175
     1
 42
1.0
 92
       12
 66
     7
 43
1.0
 76
     1
 77
     6
 78
     2
 67
     7
 79
     5
170
     0
171
     0
290
     0
174
     0
 93
        1
 44
0.0
173
     0
291
     1
 45
0.0
  0
ENDSEC
  0
EOF
