<?xml version="1.0" standalone="no"?>
<!DOCTYPE svg PUBLIC "-//W3C//DTD SVG 1.1//EN" "http://www.w3.org/Graphics/SVG/1.1/DTD/svg11.dtd">
<svg width="42mm" height="26mm" viewBox="-21 -13 42 26" xmlns="http://www.w3.org/2000/svg" version="1.1">
<title>OpenSCAD Model</title>
<path d="
M 0.784866,12.4753 L 1.56665,12.4014 L 2.34225,12.2786 L 3.10861,12.1073 L 3.8627,11.8882 L 4.60155,11.6222
 L 5.32224,11.3103 L 6.02191,10.9538 L 6.69783,10.5541 L 7.34731,10.1127 L 7.96779,9.63141 L 8.55682,9.11211
 L 9.11211,8.55682 L 9.63141,7.96779 L 10.1127,7.34731 L 10.5541,6.69783 L 10.9538,6.02191 L 10.965,6
 L 16,6 L 16.3139,5.99013 L 16.6267,5.96057 L 16.9369,5.91144 L 17.2435,5.84291 L 17.5451,5.75528
 L 17.8406,5.64888 L 18.1289,5.52414 L 18.4088,5.38153 L 18.6791,5.22163 L 18.9389,5.04509 L 19.1871,4.85257
 L 19.4227,4.64484 L 19.6448,4.42273 L 19.8526,4.18712 L 20.0451,3.93892 L 20.2216,3.67914 L 20.3815,3.40877
 L 20.5241,3.12889 L 20.6489,2.84062 L 20.7553,2.54509 L 20.8429,2.24345 L 20.9114,1.9369 L 20.9606,1.62666
 L 20.9901,1.31395 L 21,1 L 21,-1 L 20.9901,-1.31395 L 20.9606,-1.62666 L 20.9114,-1.9369
 L 20.8429,-2.24345 L 20.7553,-2.54509 L 20.6489,-2.84062 L 20.5241,-3.12889 L 20.3815,-3.40877 L 20.2216,-3.67914
 L 20.0451,-3.93892 L 19.8526,-4.18712 L 19.6448,-4.42273 L 19.4227,-4.64484 L 19.1871,-4.85257 L 18.9389,-5.04509
 L 18.6791,-5.22163 L 18.4088,-5.38153 L 18.1289,-5.52414 L 17.8406,-5.64888 L 17.5451,-5.75528 L 17.2435,-5.84291
 L 16.9369,-5.91144 L 16.6267,-5.96057 L 16.3139,-5.99013 L 16,-6 L 10.965,-6 L 10.9538,-6.02191
 L 10.5541,-6.69783 L 10.1127,-7.34731 L 9.63141,-7.96779 L 9.11211,-8.55682 L 8.55682,-9.11211 L 7.96779,-9.63141
 L 7.34731,-10.1127 L 6.69783,-10.5541 L 6.02191,-10.9538 L 5.32224,-11.3103 L 4.60155,-11.6222 L 3.8627,-11.8882
 L 3.10861,-12.1073 L 2.34225,-12.2786 L 1.56665,-12.4014 L 0.784866,-12.4753 L 0,-12.5 L -0.784866,-12.4753
 L -1.56665,-12.4014 L -2.34225,-12.2786 L -3.10861,-12.1073 L -3.8627,-11.8882 L -4.60155,-11.6222 L -5.32224,-11.3103
 L -6.02191,-10.9538 L -6.69783,-10.5541 L -7.34731,-10.1127 L -7.96779,-9.63141 L -8.55682,-9.11211 L -9.11211,-8.55682
 L -9.63141,-7.96779 L -10.1127,-7.34731 L -10.5541,-6.69783 L -10.9538,-6.02191 L -10.965,-6 L -16,-6
 L -16.3139,-5.99013 L -16.6267,-5.96057 L -16.9369,-5.91144 L -17.2435,-5.84291 L -17.5451,-5.75528 L -17.8406,-5.64888
 L -18.1289,-5.52414 L -18.4088,-5.38153 L -18.6791,-5.22163 L -18.9389,-5.04509 L -19.1871,-4.85257 L -19.4227,-4.64484
 L -19.6448,-4.42273 L -19.8526,-4.18712 L -20.0451,-3.93892 L -20.2216,-3.67914 L -20.3815,-3.40877 L -20.5241,-3.12889
 L -20.6489,-2.84062 L -20.7553,-2.54509 L -20.8429,-2.24345 L -20.9114,-1.9369 L -20.9606,-1.62666 L -20.9901,-1.31395
 L -21,-1 L -21,1 L -20.9901,1.31395 L -20.9606,1.62666 L -20.9114,1.9369 L -20.8429,2.24345
 L -20.7553,2.54509 L -20.6489,2.84062 L -20.5241,3.12889 L -20.3815,3.40877 L -20.2216,3.67914 L -20.0451,3.93892
 L -19.8526,4.18712 L -19.6448,4.42273 L -19.4227,4.64484 L -19.1871,4.85257 L -18.9389,5.04509 L -18.6791,5.22163
 L -18.4088,5.38153 L -18.1289,5.52414 L -17.8406,5.64888 L -17.5451,5.75528 L -17.2435,5.84291 L -16.9369,5.91144
 L -16.6267,5.96057 L -16.3139,5.99013 L -16,6 L -10.965,6 L -10.9538,6.02191 L -10.5541,6.69783
 L -10.1127,7.34731 L -9.63141,7.96779 L -9.11211,8.55682 L -8.55682,9.11211 L -7.96779,9.63141 L -7.34731,10.1127
 L -6.69783,10.5541 L -6.02191,10.9538 L -5.32224,11.3103 L -4.60155,11.6222 L -3.8627,11.8882 L -3.10861,12.1073
 L -2.34225,12.2786 L -1.56665,12.4014 L -0.784866,12.4753 L 0,12.5 z
M 14.8116,2.99408 L 14.624,2.97633 L 14.4379,2.94685 L 14.2539,2.90575 L 14.0729,2.85316 L 13.8956,2.78932
 L 13.7227,2.71448 L 13.5547,2.62891 L 13.3925,2.53297 L 13.2366,2.42705 L 13.0877,2.31154 L 12.9464,2.1869
 L 12.8131,2.05363 L 12.6884,1.91226 L 12.5729,1.76335 L 12.467,1.60747 L 12.3711,1.44525 L 12.2855,1.27733
 L 12.2107,1.10437 L 12.1468,0.927048 L 12.0942,0.746063 L 12.0531,0.562134 L 12.0237,0.375992 L 12.0059,0.18837
 L 12,-0 L 12.0059,-0.18837 L 12.0237,-0.375992 L 12.0531,-0.562134 L 12.0942,-0.746063 L 12.1468,-0.927048
 L 12.2107,-1.10437 L 12.2855,-1.27733 L 12.3711,-1.44525 L 12.467,-1.60747 L 12.5729,-1.76335 L 12.6884,-1.91226
 L 12.8131,-2.05363 L 12.9464,-2.1869 L 13.0877,-2.31154 L 13.2366,-2.42705 L 13.3925,-2.53297 L 13.5547,-2.62891
 L 13.7227,-2.71448 L 13.8956,-2.78932 L 14.0729,-2.85316 L 14.2539,-2.90575 L 14.4379,-2.94685 L 14.624,-2.97633
 L 14.8116,-2.99408 L 15,-3 L 15.1884,-2.99408 L 15.376,-2.97633 L 15.5621,-2.94685 L 15.7461,-2.90575
 L 15.927,-2.85316 L 16.1044,-2.78932 L 16.2773,-2.71448 L 16.4453,-2.62891 L 16.6075,-2.53297 L 16.7634,-2.42705
 L 16.9123,-2.31154 L 17.0536,-2.1869 L 17.1869,-2.05363 L 17.3115,-1.91226 L 17.427,-1.76335 L 17.533,-1.60747
 L 17.6289,-1.44525 L 17.7145,-1.27733 L 17.7893,-1.10437 L 17.8532,-0.927048 L 17.9057,-0.746063 L 17.9469,-0.562134
 L 17.9763,-0.375992 L 17.9941,-0.18837 L 18,-0 L 17.9941,0.18837 L 17.9763,0.375992 L 17.9469,0.562134
 L 17.9057,0.746063 L 17.8532,0.927048 L 17.7893,1.10437 L 17.7145,1.27733 L 17.6289,1.44525 L 17.533,1.60747
 L 17.427,1.76335 L 17.3115,1.91226 L 17.1869,2.05363 L 17.0536,2.1869 L 16.9123,2.31154 L 16.7634,2.42705
 L 16.6075,2.53297 L 16.4453,2.62891 L 16.2773,2.71448 L 16.1044,2.78932 L 15.927,2.85316 L 15.7461,2.90575
 L 15.5621,2.94685 L 15.376,2.97633 L 15.1884,2.99408 L 15,3 z
M -15.1884,2.99408 L -15.376,2.97633 L -15.5621,2.94685 L -15.7461,2.90575 L -15.927,2.85316 L -16.1044,2.78932
 L -16.2773,2.71448 L -16.4453,2.62891 L -16.6075,2.53297 L -16.7634,2.42705 L -16.9123,2.31154 L -17.0536,2.1869
 L -17.1869,2.05363 L -17.3115,1.91226 L -17.427,1.76335 L -17.533,1.60747 L -17.6289,1.44525 L -17.7145,1.27733
 L -17.7893,1.10437 L -17.8532,0.927048 L -17.9057,0.746063 L -17.9469,0.562134 L -17.9763,0.375992 L -17.9941,0.18837
 L -18,-0 L -17.9941,-0.18837 L -17.9763,-0.375992 L -17.9469,-0.562134 L -17.9057,-0.746063 L -17.8532,-0.927048
 L -17.7893,-1.10437 L -17.7145,-1.27733 L -17.6289,-1.44525 L -17.533,-1.60747 L -17.427,-1.76335 L -17.3115,-1.91226
 L -17.1869,-2.05363 L -17.0536,-2.1869 L -16.9123,-2.31154 L -16.7634,-2.42705 L -16.6075,-2.53297 L -16.4453,-2.62891
 L -16.2773,-2.71448 L -16.1044,-2.78932 L -15.927,-2.85316 L -15.7461,-2.90575 L -15.5621,-2.94685 L -15.376,-2.97633
 L -15.1884,-2.99408 L -15,-3 L -14.8116,-2.99408 L -14.624,-2.97633 L -14.4379,-2.94685 L -14.2539,-2.90575
 L -14.0729,-2.85316 L -13.8956,-2.78932 L -13.7227,-2.71448 L -13.5547,-2.62891 L -13.3925,-2.53297 L -13.2366,-2.42705
 L -13.0877,-2.31154 L -12.9464,-2.1869 L -12.8131,-2.05363 L -12.6884,-1.91226 L -12.5729,-1.76335 L -12.467,-1.60747
 L -12.3711,-1.44525 L -12.2855,-1.27733 L -12.2107,-1.10437 L -12.1468,-0.927048 L -12.0942,-0.746063 L -12.0531,-0.562134
 L -12.0237,-0.375992 L -12.0059,-0.18837 L -12,-0 L -12.0059,0.18837 L -12.0237,0.375992 L -12.0531,0.562134
 L -12.0942,0.746063 L -12.1468,0.927048 L -12.2107,1.10437 L -12.2855,1.27733 L -12.3711,1.44525 L -12.467,1.60747
 L -12.5729,1.76335 L -12.6884,1.91226 L -12.8131,2.05363 L -12.9464,2.1869 L -13.0877,2.31154 L -13.2366,2.42705
 L -13.3925,2.53297 L -13.5547,2.62891 L -13.7227,2.71448 L -13.8956,2.78932 L -14.0729,2.85316 L -14.2539,2.90575
 L -14.4379,2.94685 L -14.624,2.97633 L -14.8116,2.99408 L -15,3 z
" stroke="black" fill="lightgray" stroke-width="0.5"/>
</svg>
