<?xml version="1.0" standalone="no"?>
<!DOCTYPE svg PUBLIC "-//W3C//DTD SVG 1.1//EN" "http://www.w3.org/Graphics/SVG/1.1/DTD/svg11.dtd">
<svg width="72mm" height="72mm" viewBox="9 -81 72 72" xmlns="http://www.w3.org/2000/svg" version="1.1">
<title>OpenSCAD Model</title>
<path d="
M 76,-9.02962 L 76.3139,-9.00986 L 77.5451,-9.24471 L 78.6791,-9.77835 L 79.6448,-10.5773 L 80.3815,-11.5912
 L 80.8429,-12.7565 L 81,-14 L 81,-76 L 80.8429,-77.2434 L 80.3815,-78.4088 L 79.6448,-79.4227
 L 78.6791,-80.2216 L 77.5451,-80.7553 L 76.3139,-80.9901 L 76,-80.9704 L 76,-81 L 14,-81
 L 14,-80.9704 L 13.0631,-80.9114 L 11.8711,-80.5241 L 10.8129,-79.8526 L 9.95491,-78.9389 L 9.3511,-77.8406
 L 9.03941,-76.6267 L 9.03941,-76 L 9,-76 L 9,-14 L 9.03941,-14 L 9.03941,-13.3733
 L 9.3511,-12.1594 L 9.95491,-11.0611 L 10.8129,-10.1474 L 11.8711,-9.47586 L 13.0631,-9.08856 L 14,-9.02962
 L 14,-9 L 76,-9 z
" stroke="black" fill="lightgray" stroke-width="0.5"/>
</svg>
