<?xml version="1.0" encoding="UTF-8"?>
<!DOCTYPE svg PUBLIC "-//W3C//DTD SVG 1.1//EN" "http://www.w3.org/Graphics/SVG/1.1/DTD/svg11.dtd">
<!-- Creator: CorelDRAW -->
<svg xmlns="http://www.w3.org/2000/svg" xml:space="preserve" width="210mm" height="297mm" style="shape-rendering:geometricPrecision; text-rendering:geometricPrecision; image-rendering:optimizeQuality; fill-rule:evenodd; clip-rule:evenodd"
viewBox="0 0 210 297"
 xmlns:xlink="http://www.w3.org/1999/xlink">
 <defs>
  <style type="text/css">
   <![CDATA[
    .str2 {stroke:#1F1A17;stroke-width:0.5292}
    .str1 {stroke:#1F1A17;stroke-width:0.5292;stroke-linecap:round;stroke-linejoin:round}
    .str0 {stroke:black;stroke-width:0.5292;stroke-linecap:round;stroke-linejoin:round}
    .fil0 {fill:none}
   ]]>
  </style>
 </defs>
 <g id="Layer_x0020_1">
  <metadata id="CorelCorpID_0Corel-Layer"/>
  <path class="fil0 str0" d="M-293.1 335.45l0.4149 0c0.2723,-0.4705 0.6646,-0.8628 1.1351,-1.1351l0 -0.4149 1.55 0 1.55 0 0 0.4149c0.4705,0.2723 0.8628,0.6646 1.1351,1.1351l0.4149 0 0 1.55 0 1.55 -0.4149 0c-0.2723,0.4705 -0.6646,0.8628 -1.1351,1.1351l0 0.4149 -1.55 0 -1.55 0 0 -0.4149c-0.4705,-0.2723 -0.8628,-0.6646 -1.1351,-1.1351l-0.4149 0 0 -1.55 0 -1.55z"/>
  <path class="fil0 str0" d="M-293.1 315.45l0.4149 0c0.2723,-0.4705 0.6646,-0.8628 1.1351,-1.1351l0 -0.4149 1.55 0 1.55 0 0 0.4149c0.4705,0.2723 0.8628,0.6646 1.1351,1.1351l0.4149 0 0 1.55 0 1.55 -0.4149 0c-0.2723,0.4705 -0.6646,0.8628 -1.1351,1.1351l0 0.4149 -1.55 0 -1.55 0 0 -0.4149c-0.4705,-0.2723 -0.8628,-0.6646 -1.1351,-1.1351l-0.4149 0 0 -1.55 0 -1.55z"/>
  <path class="fil0 str0" d="M-293.1 295.45l0.4149 0c0.2723,-0.4705 0.6646,-0.8628 1.1351,-1.1351l0 -0.4149 1.55 0 1.55 0 0 0.4149c0.4705,0.2723 0.8628,0.6646 1.1351,1.1351l0.4149 0 0 1.55 0 1.55 -0.4149 0c-0.2723,0.4705 -0.6646,0.8628 -1.1351,1.1351l0 0.4149 -1.55 0 -1.55 0 0 -0.4149c-0.4705,-0.2723 -0.8628,-0.6646 -1.1351,-1.1351l-0.4149 0 0 -1.55 0 -1.55z"/>
  <path class="fil0 str0" d="M-293.1 275.45l0.4149 0c0.2723,-0.4705 0.6646,-0.8628 1.1351,-1.1351l0 -0.4149 1.55 0 1.55 0 0 0.4149c0.4705,0.2723 0.8628,0.6646 1.1351,1.1351l0.4149 0 0 1.55 0 1.55 -0.4149 0c-0.2723,0.4705 -0.6646,0.8628 -1.1351,1.1351l0 0.4149 -1.55 0 -1.55 0 0 -0.4149c-0.4705,-0.2723 -0.8628,-0.6646 -1.1351,-1.1351l-0.4149 0 0 -1.55 0 -1.55z"/>
  <path class="fil0 str0" d="M-293.1 255.45l0.4149 0c0.2723,-0.4705 0.6646,-0.8628 1.1351,-1.1351l0 -0.4149 1.55 0 1.55 0 0 0.4149c0.4705,0.2723 0.8628,0.6646 1.1351,1.1351l0.4149 0 0 1.55 0 1.55 -0.4149 0c-0.2723,0.4705 -0.6646,0.8628 -1.1351,1.1351l0 0.4149 -1.55 0 -1.55 0 0 -0.4149c-0.4705,-0.2723 -0.8628,-0.6646 -1.1351,-1.1351l-0.4149 0 0 -1.55 0 -1.55z"/>
  <rect class="fil0 str1" x="-291.6" y="323.9" width="3.2" height="6.2"/>
  <rect class="fil0 str1" x="-291.6" y="303.9" width="3.2" height="6.2"/>
  <rect class="fil0 str1" x="-291.6" y="283.9" width="3.2" height="6.2"/>
  <rect class="fil0 str1" x="-291.6" y="263.9" width="3.2" height="6.2"/>
  <path class="fil0 str0" d="M-273.1 335.45l0.4149 0c0.2723,-0.4705 0.6646,-0.8628 1.1351,-1.1351l0 -0.4149 1.55 0 1.55 0 0 0.4149c0.4705,0.2723 0.8628,0.6646 1.1351,1.1351l0.4149 0 0 1.55 0 1.55 -0.4149 0c-0.2723,0.4705 -0.6646,0.8628 -1.1351,1.1351l0 0.4149 -1.55 0 -1.55 0 0 -0.4149c-0.4705,-0.2723 -0.8628,-0.6646 -1.1351,-1.1351l-0.4149 0 0 -1.55 0 -1.55z"/>
  <path class="fil0 str0" d="M-273.1 315.45l0.4149 0c0.2723,-0.4705 0.6646,-0.8628 1.1351,-1.1351l0 -0.4149 1.55 0 1.55 0 0 0.4149c0.4705,0.2723 0.8628,0.6646 1.1351,1.1351l0.4149 0 0 1.55 0 1.55 -0.4149 0c-0.2723,0.4705 -0.6646,0.8628 -1.1351,1.1351l0 0.4149 -1.55 0 -1.55 0 0 -0.4149c-0.4705,-0.2723 -0.8628,-0.6646 -1.1351,-1.1351l-0.4149 0 0 -1.55 0 -1.55z"/>
  <path class="fil0 str0" d="M-273.1 295.45l0.4149 0c0.2723,-0.4705 0.6646,-0.8628 1.1351,-1.1351l0 -0.4149 1.55 0 1.55 0 0 0.4149c0.4705,0.2723 0.8628,0.6646 1.1351,1.1351l0.4149 0 0 1.55 0 1.55 -0.4149 0c-0.2723,0.4705 -0.6646,0.8628 -1.1351,1.1351l0 0.4149 -1.55 0 -1.55 0 0 -0.4149c-0.4705,-0.2723 -0.8628,-0.6646 -1.1351,-1.1351l-0.4149 0 0 -1.55 0 -1.55z"/>
  <path class="fil0 str0" d="M-273.1 275.45l0.4149 0c0.2723,-0.4705 0.6646,-0.8628 1.1351,-1.1351l0 -0.4149 1.55 0 1.55 0 0 0.4149c0.4705,0.2723 0.8628,0.6646 1.1351,1.1351l0.4149 0 0 1.55 0 1.55 -0.4149 0c-0.2723,0.4705 -0.6646,0.8628 -1.1351,1.1351l0 0.4149 -1.55 0 -1.55 0 0 -0.4149c-0.4705,-0.2723 -0.8628,-0.6646 -1.1351,-1.1351l-0.4149 0 0 -1.55 0 -1.55z"/>
  <path class="fil0 str0" d="M-273.1 255.45l0.4149 0c0.2723,-0.4705 0.6646,-0.8628 1.1351,-1.1351l0 -0.4149 1.55 0 1.55 0 0 0.4149c0.4705,0.2723 0.8628,0.6646 1.1351,1.1351l0.4149 0 0 1.55 0 1.55 -0.4149 0c-0.2723,0.4705 -0.6646,0.8628 -1.1351,1.1351l0 0.4149 -1.55 0 -1.55 0 0 -0.4149c-0.4705,-0.2723 -0.8628,-0.6646 -1.1351,-1.1351l-0.4149 0 0 -1.55 0 -1.55z"/>
  <rect class="fil0 str1" x="-271.6" y="323.9" width="3.2" height="6.2"/>
  <rect class="fil0 str1" x="-271.6" y="303.9" width="3.2" height="6.2"/>
  <rect class="fil0 str1" x="-271.6" y="283.9" width="3.2" height="6.2"/>
  <rect class="fil0 str1" x="-271.6" y="263.9" width="3.2" height="6.2"/>
  <path class="fil0 str0" d="M-253.1 335.45l0.4149 0c0.2723,-0.4705 0.6646,-0.8628 1.1351,-1.1351l0 -0.4149 1.55 0 1.55 0 0 0.4149c0.4705,0.2723 0.8628,0.6646 1.1351,1.1351l0.4149 0 0 1.55 0 1.55 -0.4149 0c-0.2723,0.4705 -0.6646,0.8628 -1.1351,1.1351l0 0.4149 -1.55 0 -1.55 0 0 -0.4149c-0.4705,-0.2723 -0.8628,-0.6646 -1.1351,-1.1351l-0.4149 0 0 -1.55 0 -1.55z"/>
  <path class="fil0 str0" d="M-253.1 315.45l0.4149 0c0.2723,-0.4705 0.6646,-0.8628 1.1351,-1.1351l0 -0.4149 1.55 0 1.55 0 0 0.4149c0.4705,0.2723 0.8628,0.6646 1.1351,1.1351l0.4149 0 0 1.55 0 1.55 -0.4149 0c-0.2723,0.4705 -0.6646,0.8628 -1.1351,1.1351l0 0.4149 -1.55 0 -1.55 0 0 -0.4149c-0.4705,-0.2723 -0.8628,-0.6646 -1.1351,-1.1351l-0.4149 0 0 -1.55 0 -1.55z"/>
  <path class="fil0 str0" d="M-253.1 295.45l0.4149 0c0.2723,-0.4705 0.6646,-0.8628 1.1351,-1.1351l0 -0.4149 1.55 0 1.55 0 0 0.4149c0.4705,0.2723 0.8628,0.6646 1.1351,1.1351l0.4149 0 0 1.55 0 1.55 -0.4149 0c-0.2723,0.4705 -0.6646,0.8628 -1.1351,1.1351l0 0.4149 -1.55 0 -1.55 0 0 -0.4149c-0.4705,-0.2723 -0.8628,-0.6646 -1.1351,-1.1351l-0.4149 0 0 -1.55 0 -1.55z"/>
  <path class="fil0 str0" d="M-253.1 275.45l0.4149 0c0.2723,-0.4705 0.6646,-0.8628 1.1351,-1.1351l0 -0.4149 1.55 0 1.55 0 0 0.4149c0.4705,0.2723 0.8628,0.6646 1.1351,1.1351l0.4149 0 0 1.55 0 1.55 -0.4149 0c-0.2723,0.4705 -0.6646,0.8628 -1.1351,1.1351l0 0.4149 -1.55 0 -1.55 0 0 -0.4149c-0.4705,-0.2723 -0.8628,-0.6646 -1.1351,-1.1351l-0.4149 0 0 -1.55 0 -1.55z"/>
  <path class="fil0 str0" d="M-253.1 255.45l0.4149 0c0.2723,-0.4705 0.6646,-0.8628 1.1351,-1.1351l0 -0.4149 1.55 0 1.55 0 0 0.4149c0.4705,0.2723 0.8628,0.6646 1.1351,1.1351l0.4149 0 0 1.55 0 1.55 -0.4149 0c-0.2723,0.4705 -0.6646,0.8628 -1.1351,1.1351l0 0.4149 -1.55 0 -1.55 0 0 -0.4149c-0.4705,-0.2723 -0.8628,-0.6646 -1.1351,-1.1351l-0.4149 0 0 -1.55 0 -1.55z"/>
  <rect class="fil0 str1" x="-251.6" y="323.9" width="3.2" height="6.2"/>
  <rect class="fil0 str1" x="-251.6" y="303.9" width="3.2" height="6.2"/>
  <rect class="fil0 str1" x="-251.6" y="283.9" width="3.2" height="6.2"/>
  <rect class="fil0 str1" x="-251.6" y="263.9" width="3.2" height="6.2"/>
  <path class="fil0 str0" d="M-233.1 335.45l0.4149 0c0.2723,-0.4705 0.6646,-0.8628 1.1351,-1.1351l0 -0.4149 1.55 0 1.55 0 0 0.4149c0.4705,0.2723 0.8628,0.6646 1.1351,1.1351l0.4149 0 0 1.55 0 1.55 -0.4149 0c-0.2723,0.4705 -0.6646,0.8628 -1.1351,1.1351l0 0.4149 -1.55 0 -1.55 0 0 -0.4149c-0.4705,-0.2723 -0.8628,-0.6646 -1.1351,-1.1351l-0.4149 0 0 -1.55 0 -1.55z"/>
  <path class="fil0 str0" d="M-233.1 315.45l0.4149 0c0.2723,-0.4705 0.6646,-0.8628 1.1351,-1.1351l0 -0.4149 1.55 0 1.55 0 0 0.4149c0.4705,0.2723 0.8628,0.6646 1.1351,1.1351l0.4149 0 0 1.55 0 1.55 -0.4149 0c-0.2723,0.4705 -0.6646,0.8628 -1.1351,1.1351l0 0.4149 -1.55 0 -1.55 0 0 -0.4149c-0.4705,-0.2723 -0.8628,-0.6646 -1.1351,-1.1351l-0.4149 0 0 -1.55 0 -1.55z"/>
  <path class="fil0 str0" d="M-233.1 295.45l0.4149 0c0.2723,-0.4705 0.6646,-0.8628 1.1351,-1.1351l0 -0.4149 1.55 0 1.55 0 0 0.4149c0.4705,0.2723 0.8628,0.6646 1.1351,1.1351l0.4149 0 0 1.55 0 1.55 -0.4149 0c-0.2723,0.4705 -0.6646,0.8628 -1.1351,1.1351l0 0.4149 -1.55 0 -1.55 0 0 -0.4149c-0.4705,-0.2723 -0.8628,-0.6646 -1.1351,-1.1351l-0.4149 0 0 -1.55 0 -1.55z"/>
  <path class="fil0 str0" d="M-233.1 275.45l0.4149 0c0.2723,-0.4705 0.6646,-0.8628 1.1351,-1.1351l0 -0.4149 1.55 0 1.55 0 0 0.4149c0.4705,0.2723 0.8628,0.6646 1.1351,1.1351l0.4149 0 0 1.55 0 1.55 -0.4149 0c-0.2723,0.4705 -0.6646,0.8628 -1.1351,1.1351l0 0.4149 -1.55 0 -1.55 0 0 -0.4149c-0.4705,-0.2723 -0.8628,-0.6646 -1.1351,-1.1351l-0.4149 0 0 -1.55 0 -1.55z"/>
  <path class="fil0 str0" d="M-233.1 255.45l0.4149 0c0.2723,-0.4705 0.6646,-0.8628 1.1351,-1.1351l0 -0.4149 1.55 0 1.55 0 0 0.4149c0.4705,0.2723 0.8628,0.6646 1.1351,1.1351l0.4149 0 0 1.55 0 1.55 -0.4149 0c-0.2723,0.4705 -0.6646,0.8628 -1.1351,1.1351l0 0.4149 -1.55 0 -1.55 0 0 -0.4149c-0.4705,-0.2723 -0.8628,-0.6646 -1.1351,-1.1351l-0.4149 0 0 -1.55 0 -1.55z"/>
  <rect class="fil0 str1" x="-231.6" y="323.9" width="3.2" height="6.2"/>
  <rect class="fil0 str1" x="-231.6" y="303.9" width="3.2" height="6.2"/>
  <rect class="fil0 str1" x="-231.6" y="283.9" width="3.2" height="6.2"/>
  <rect class="fil0 str1" x="-231.6" y="263.9" width="3.2" height="6.2"/>
  <path class="fil0 str0" d="M-213.1 335.45l0.4149 0c0.2723,-0.4705 0.6646,-0.8628 1.1351,-1.1351l0 -0.4149 1.55 0 1.55 0 0 0.4149c0.4705,0.2723 0.8628,0.6646 1.1351,1.1351l0.4149 0 0 1.55 0 1.55 -0.4149 0c-0.2723,0.4705 -0.6646,0.8628 -1.1351,1.1351l0 0.4149 -1.55 0 -1.55 0 0 -0.4149c-0.4705,-0.2723 -0.8628,-0.6646 -1.1351,-1.1351l-0.4149 0 0 -1.55 0 -1.55z"/>
  <path class="fil0 str0" d="M-213.1 315.45l0.4149 0c0.2723,-0.4705 0.6646,-0.8628 1.1351,-1.1351l0 -0.4149 1.55 0 1.55 0 0 0.4149c0.4705,0.2723 0.8628,0.6646 1.1351,1.1351l0.4149 0 0 1.55 0 1.55 -0.4149 0c-0.2723,0.4705 -0.6646,0.8628 -1.1351,1.1351l0 0.4149 -1.55 0 -1.55 0 0 -0.4149c-0.4705,-0.2723 -0.8628,-0.6646 -1.1351,-1.1351l-0.4149 0 0 -1.55 0 -1.55z"/>
  <path class="fil0 str0" d="M-213.1 295.45l0.4149 0c0.2723,-0.4705 0.6646,-0.8628 1.1351,-1.1351l0 -0.4149 1.55 0 1.55 0 0 0.4149c0.4705,0.2723 0.8628,0.6646 1.1351,1.1351l0.4149 0 0 1.55 0 1.55 -0.4149 0c-0.2723,0.4705 -0.6646,0.8628 -1.1351,1.1351l0 0.4149 -1.55 0 -1.55 0 0 -0.4149c-0.4705,-0.2723 -0.8628,-0.6646 -1.1351,-1.1351l-0.4149 0 0 -1.55 0 -1.55z"/>
  <path class="fil0 str0" d="M-213.1 275.45l0.4149 0c0.2723,-0.4705 0.6646,-0.8628 1.1351,-1.1351l0 -0.4149 1.55 0 1.55 0 0 0.4149c0.4705,0.2723 0.8628,0.6646 1.1351,1.1351l0.4149 0 0 1.55 0 1.55 -0.4149 0c-0.2723,0.4705 -0.6646,0.8628 -1.1351,1.1351l0 0.4149 -1.55 0 -1.55 0 0 -0.4149c-0.4705,-0.2723 -0.8628,-0.6646 -1.1351,-1.1351l-0.4149 0 0 -1.55 0 -1.55z"/>
  <path class="fil0 str0" d="M-213.1 255.45l0.4149 0c0.2723,-0.4705 0.6646,-0.8628 1.1351,-1.1351l0 -0.4149 1.55 0 1.55 0 0 0.4149c0.4705,0.2723 0.8628,0.6646 1.1351,1.1351l0.4149 0 0 1.55 0 1.55 -0.4149 0c-0.2723,0.4705 -0.6646,0.8628 -1.1351,1.1351l0 0.4149 -1.55 0 -1.55 0 0 -0.4149c-0.4705,-0.2723 -0.8628,-0.6646 -1.1351,-1.1351l-0.4149 0 0 -1.55 0 -1.55z"/>
  <rect class="fil0 str1" x="-211.6" y="323.9" width="3.2" height="6.2"/>
  <rect class="fil0 str1" x="-211.6" y="303.9" width="3.2" height="6.2"/>
  <rect class="fil0 str1" x="-211.6" y="283.9" width="3.2" height="6.2"/>
  <rect class="fil0 str1" x="-211.6" y="263.9" width="3.2" height="6.2"/>
  <path class="fil0 str0" d="M-193.1 335.45l0.4149 0c0.2723,-0.4705 0.6646,-0.8628 1.1351,-1.1351l0 -0.4149 1.55 0 1.55 0 0 0.4149c0.4705,0.2723 0.8628,0.6646 1.1351,1.1351l0.4149 0 0 1.55 0 1.55 -0.4149 0c-0.2723,0.4705 -0.6646,0.8628 -1.1351,1.1351l0 0.4149 -1.55 0 -1.55 0 0 -0.4149c-0.4705,-0.2723 -0.8628,-0.6646 -1.1351,-1.1351l-0.4149 0 0 -1.55 0 -1.55z"/>
  <path class="fil0 str0" d="M-193.1 315.45l0.4149 0c0.2723,-0.4705 0.6646,-0.8628 1.1351,-1.1351l0 -0.4149 1.55 0 1.55 0 0 0.4149c0.4705,0.2723 0.8628,0.6646 1.1351,1.1351l0.4149 0 0 1.55 0 1.55 -0.4149 0c-0.2723,0.4705 -0.6646,0.8628 -1.1351,1.1351l0 0.4149 -1.55 0 -1.55 0 0 -0.4149c-0.4705,-0.2723 -0.8628,-0.6646 -1.1351,-1.1351l-0.4149 0 0 -1.55 0 -1.55z"/>
  <path class="fil0 str0" d="M-193.1 295.45l0.4149 0c0.2723,-0.4705 0.6646,-0.8628 1.1351,-1.1351l0 -0.4149 1.55 0 1.55 0 0 0.4149c0.4705,0.2723 0.8628,0.6646 1.1351,1.1351l0.4149 0 0 1.55 0 1.55 -0.4149 0c-0.2723,0.4705 -0.6646,0.8628 -1.1351,1.1351l0 0.4149 -1.55 0 -1.55 0 0 -0.4149c-0.4705,-0.2723 -0.8628,-0.6646 -1.1351,-1.1351l-0.4149 0 0 -1.55 0 -1.55z"/>
  <path class="fil0 str0" d="M-193.1 275.45l0.4149 0c0.2723,-0.4705 0.6646,-0.8628 1.1351,-1.1351l0 -0.4149 1.55 0 1.55 0 0 0.4149c0.4705,0.2723 0.8628,0.6646 1.1351,1.1351l0.4149 0 0 1.55 0 1.55 -0.4149 0c-0.2723,0.4705 -0.6646,0.8628 -1.1351,1.1351l0 0.4149 -1.55 0 -1.55 0 0 -0.4149c-0.4705,-0.2723 -0.8628,-0.6646 -1.1351,-1.1351l-0.4149 0 0 -1.55 0 -1.55z"/>
  <path class="fil0 str0" d="M-193.1 255.45l0.4149 0c0.2723,-0.4705 0.6646,-0.8628 1.1351,-1.1351l0 -0.4149 1.55 0 1.55 0 0 0.4149c0.4705,0.2723 0.8628,0.6646 1.1351,1.1351l0.4149 0 0 1.55 0 1.55 -0.4149 0c-0.2723,0.4705 -0.6646,0.8628 -1.1351,1.1351l0 0.4149 -1.55 0 -1.55 0 0 -0.4149c-0.4705,-0.2723 -0.8628,-0.6646 -1.1351,-1.1351l-0.4149 0 0 -1.55 0 -1.55z"/>
  <rect class="fil0 str1" x="-191.6" y="323.9" width="3.2" height="6.2"/>
  <rect class="fil0 str1" x="-191.6" y="303.9" width="3.2" height="6.2"/>
  <rect class="fil0 str1" x="-191.6" y="283.9" width="3.2" height="6.2"/>
  <rect class="fil0 str1" x="-191.6" y="263.9" width="3.2" height="6.2"/>
  <path class="fil0 str0" d="M-173.1 335.45l0.4149 0c0.2723,-0.4705 0.6646,-0.8628 1.1351,-1.1351l0 -0.4149 1.55 0 1.55 0 0 0.4149c0.4705,0.2723 0.8628,0.6646 1.1351,1.1351l0.4149 0 0 1.55 0 1.55 -0.4149 0c-0.2723,0.4705 -0.6646,0.8628 -1.1351,1.1351l0 0.4149 -1.55 0 -1.55 0 0 -0.4149c-0.4705,-0.2723 -0.8628,-0.6646 -1.1351,-1.1351l-0.4149 0 0 -1.55 0 -1.55z"/>
  <path class="fil0 str0" d="M-173.1 315.45l0.4149 0c0.2723,-0.4705 0.6646,-0.8628 1.1351,-1.1351l0 -0.4149 1.55 0 1.55 0 0 0.4149c0.4705,0.2723 0.8628,0.6646 1.1351,1.1351l0.4149 0 0 1.55 0 1.55 -0.4149 0c-0.2723,0.4705 -0.6646,0.8628 -1.1351,1.1351l0 0.4149 -1.55 0 -1.55 0 0 -0.4149c-0.4705,-0.2723 -0.8628,-0.6646 -1.1351,-1.1351l-0.4149 0 0 -1.55 0 -1.55z"/>
  <path class="fil0 str0" d="M-173.1 295.45l0.4149 0c0.2723,-0.4705 0.6646,-0.8628 1.1351,-1.1351l0 -0.4149 1.55 0 1.55 0 0 0.4149c0.4705,0.2723 0.8628,0.6646 1.1351,1.1351l0.4149 0 0 1.55 0 1.55 -0.4149 0c-0.2723,0.4705 -0.6646,0.8628 -1.1351,1.1351l0 0.4149 -1.55 0 -1.55 0 0 -0.4149c-0.4705,-0.2723 -0.8628,-0.6646 -1.1351,-1.1351l-0.4149 0 0 -1.55 0 -1.55z"/>
  <path class="fil0 str0" d="M-173.1 275.45l0.4149 0c0.2723,-0.4705 0.6646,-0.8628 1.1351,-1.1351l0 -0.4149 1.55 0 1.55 0 0 0.4149c0.4705,0.2723 0.8628,0.6646 1.1351,1.1351l0.4149 0 0 1.55 0 1.55 -0.4149 0c-0.2723,0.4705 -0.6646,0.8628 -1.1351,1.1351l0 0.4149 -1.55 0 -1.55 0 0 -0.4149c-0.4705,-0.2723 -0.8628,-0.6646 -1.1351,-1.1351l-0.4149 0 0 -1.55 0 -1.55z"/>
  <path class="fil0 str0" d="M-173.1 255.45l0.4149 0c0.2723,-0.4705 0.6646,-0.8628 1.1351,-1.1351l0 -0.4149 1.55 0 1.55 0 0 0.4149c0.4705,0.2723 0.8628,0.6646 1.1351,1.1351l0.4149 0 0 1.55 0 1.55 -0.4149 0c-0.2723,0.4705 -0.6646,0.8628 -1.1351,1.1351l0 0.4149 -1.55 0 -1.55 0 0 -0.4149c-0.4705,-0.2723 -0.8628,-0.6646 -1.1351,-1.1351l-0.4149 0 0 -1.55 0 -1.55z"/>
  <rect class="fil0 str1" x="-171.6" y="323.9" width="3.2" height="6.2"/>
  <rect class="fil0 str1" x="-171.6" y="303.9" width="3.2" height="6.2"/>
  <rect class="fil0 str1" x="-171.6" y="283.9" width="3.2" height="6.2"/>
  <rect class="fil0 str1" x="-171.6" y="263.9" width="3.2" height="6.2"/>
  <path class="fil0 str0" d="M-153.1 335.45l0.4149 0c0.2723,-0.4705 0.6646,-0.8628 1.1351,-1.1351l0 -0.4149 1.55 0 1.55 0 0 0.4149c0.4705,0.2723 0.8628,0.6646 1.1351,1.1351l0.4149 0 0 1.55 0 1.55 -0.4149 0c-0.2723,0.4705 -0.6646,0.8628 -1.1351,1.1351l0 0.4149 -1.55 0 -1.55 0 0 -0.4149c-0.4705,-0.2723 -0.8628,-0.6646 -1.1351,-1.1351l-0.4149 0 0 -1.55 0 -1.55z"/>
  <path class="fil0 str0" d="M-153.1 315.45l0.4149 0c0.2723,-0.4705 0.6646,-0.8628 1.1351,-1.1351l0 -0.4149 1.55 0 1.55 0 0 0.4149c0.4705,0.2723 0.8628,0.6646 1.1351,1.1351l0.4149 0 0 1.55 0 1.55 -0.4149 0c-0.2723,0.4705 -0.6646,0.8628 -1.1351,1.1351l0 0.4149 -1.55 0 -1.55 0 0 -0.4149c-0.4705,-0.2723 -0.8628,-0.6646 -1.1351,-1.1351l-0.4149 0 0 -1.55 0 -1.55z"/>
  <path class="fil0 str0" d="M-153.1 295.45l0.4149 0c0.2723,-0.4705 0.6646,-0.8628 1.1351,-1.1351l0 -0.4149 1.55 0 1.55 0 0 0.4149c0.4705,0.2723 0.8628,0.6646 1.1351,1.1351l0.4149 0 0 1.55 0 1.55 -0.4149 0c-0.2723,0.4705 -0.6646,0.8628 -1.1351,1.1351l0 0.4149 -1.55 0 -1.55 0 0 -0.4149c-0.4705,-0.2723 -0.8628,-0.6646 -1.1351,-1.1351l-0.4149 0 0 -1.55 0 -1.55z"/>
  <path class="fil0 str0" d="M-153.1 275.45l0.4149 0c0.2723,-0.4705 0.6646,-0.8628 1.1351,-1.1351l0 -0.4149 1.55 0 1.55 0 0 0.4149c0.4705,0.2723 0.8628,0.6646 1.1351,1.1351l0.4149 0 0 1.55 0 1.55 -0.4149 0c-0.2723,0.4705 -0.6646,0.8628 -1.1351,1.1351l0 0.4149 -1.55 0 -1.55 0 0 -0.4149c-0.4705,-0.2723 -0.8628,-0.6646 -1.1351,-1.1351l-0.4149 0 0 -1.55 0 -1.55z"/>
  <path class="fil0 str0" d="M-153.1 255.45l0.4149 0c0.2723,-0.4705 0.6646,-0.8628 1.1351,-1.1351l0 -0.4149 1.55 0 1.55 0 0 0.4149c0.4705,0.2723 0.8628,0.6646 1.1351,1.1351l0.4149 0 0 1.55 0 1.55 -0.4149 0c-0.2723,0.4705 -0.6646,0.8628 -1.1351,1.1351l0 0.4149 -1.55 0 -1.55 0 0 -0.4149c-0.4705,-0.2723 -0.8628,-0.6646 -1.1351,-1.1351l-0.4149 0 0 -1.55 0 -1.55z"/>
  <rect class="fil0 str1" x="-151.6" y="323.9" width="3.2" height="6.2"/>
  <rect class="fil0 str1" x="-151.6" y="303.9" width="3.2" height="6.2"/>
  <rect class="fil0 str1" x="-151.6" y="283.9" width="3.2" height="6.2"/>
  <rect class="fil0 str1" x="-151.6" y="263.9" width="3.2" height="6.2"/>
  <path class="fil0 str0" d="M-133.1 335.45l0.4149 0c0.2723,-0.4705 0.6646,-0.8628 1.1351,-1.1351l0 -0.4149 1.55 0 1.55 0 0 0.4149c0.4705,0.2723 0.8628,0.6646 1.1351,1.1351l0.4149 0 0 1.55 0 1.55 -0.4149 0c-0.2723,0.4705 -0.6646,0.8628 -1.1351,1.1351l0 0.4149 -1.55 0 -1.55 0 0 -0.4149c-0.4705,-0.2723 -0.8628,-0.6646 -1.1351,-1.1351l-0.4149 0 0 -1.55 0 -1.55z"/>
  <path class="fil0 str0" d="M-133.1 315.45l0.4149 0c0.2723,-0.4705 0.6646,-0.8628 1.1351,-1.1351l0 -0.4149 1.55 0 1.55 0 0 0.4149c0.4705,0.2723 0.8628,0.6646 1.1351,1.1351l0.4149 0 0 1.55 0 1.55 -0.4149 0c-0.2723,0.4705 -0.6646,0.8628 -1.1351,1.1351l0 0.4149 -1.55 0 -1.55 0 0 -0.4149c-0.4705,-0.2723 -0.8628,-0.6646 -1.1351,-1.1351l-0.4149 0 0 -1.55 0 -1.55z"/>
  <path class="fil0 str0" d="M-133.1 295.45l0.4149 0c0.2723,-0.4705 0.6646,-0.8628 1.1351,-1.1351l0 -0.4149 1.55 0 1.55 0 0 0.4149c0.4705,0.2723 0.8628,0.6646 1.1351,1.1351l0.4149 0 0 1.55 0 1.55 -0.4149 0c-0.2723,0.4705 -0.6646,0.8628 -1.1351,1.1351l0 0.4149 -1.55 0 -1.55 0 0 -0.4149c-0.4705,-0.2723 -0.8628,-0.6646 -1.1351,-1.1351l-0.4149 0 0 -1.55 0 -1.55z"/>
  <path class="fil0 str0" d="M-133.1 275.45l0.4149 0c0.2723,-0.4705 0.6646,-0.8628 1.1351,-1.1351l0 -0.4149 1.55 0 1.55 0 0 0.4149c0.4705,0.2723 0.8628,0.6646 1.1351,1.1351l0.4149 0 0 1.55 0 1.55 -0.4149 0c-0.2723,0.4705 -0.6646,0.8628 -1.1351,1.1351l0 0.4149 -1.55 0 -1.55 0 0 -0.4149c-0.4705,-0.2723 -0.8628,-0.6646 -1.1351,-1.1351l-0.4149 0 0 -1.55 0 -1.55z"/>
  <path class="fil0 str0" d="M-133.1 255.45l0.4149 0c0.2723,-0.4705 0.6646,-0.8628 1.1351,-1.1351l0 -0.4149 1.55 0 1.55 0 0 0.4149c0.4705,0.2723 0.8628,0.6646 1.1351,1.1351l0.4149 0 0 1.55 0 1.55 -0.4149 0c-0.2723,0.4705 -0.6646,0.8628 -1.1351,1.1351l0 0.4149 -1.55 0 -1.55 0 0 -0.4149c-0.4705,-0.2723 -0.8628,-0.6646 -1.1351,-1.1351l-0.4149 0 0 -1.55 0 -1.55z"/>
  <rect class="fil0 str1" x="-131.6" y="323.9" width="3.2" height="6.2"/>
  <rect class="fil0 str1" x="-131.6" y="303.9" width="3.2" height="6.2"/>
  <rect class="fil0 str1" x="-131.6" y="283.9" width="3.2" height="6.2"/>
  <rect class="fil0 str1" x="-131.6" y="263.9" width="3.2" height="6.2"/>
  <path class="fil0 str0" d="M-113.1 335.45l0.4149 0c0.2723,-0.4705 0.6646,-0.8628 1.1351,-1.1351l0 -0.4149 1.55 0 1.55 0 0 0.4149c0.4705,0.2723 0.8628,0.6646 1.1351,1.1351l0.4149 0 0 1.55 0 1.55 -0.4149 0c-0.2723,0.4705 -0.6646,0.8628 -1.1351,1.1351l0 0.4149 -1.55 0 -1.55 0 0 -0.4149c-0.4705,-0.2723 -0.8628,-0.6646 -1.1351,-1.1351l-0.4149 0 0 -1.55 0 -1.55z"/>
  <path class="fil0 str0" d="M-113.1 315.45l0.4149 0c0.2723,-0.4705 0.6646,-0.8628 1.1351,-1.1351l0 -0.4149 1.55 0 1.55 0 0 0.4149c0.4705,0.2723 0.8628,0.6646 1.1351,1.1351l0.4149 0 0 1.55 0 1.55 -0.4149 0c-0.2723,0.4705 -0.6646,0.8628 -1.1351,1.1351l0 0.4149 -1.55 0 -1.55 0 0 -0.4149c-0.4705,-0.2723 -0.8628,-0.6646 -1.1351,-1.1351l-0.4149 0 0 -1.55 0 -1.55z"/>
  <path class="fil0 str0" d="M-113.1 295.45l0.4149 0c0.2723,-0.4705 0.6646,-0.8628 1.1351,-1.1351l0 -0.4149 1.55 0 1.55 0 0 0.4149c0.4705,0.2723 0.8628,0.6646 1.1351,1.1351l0.4149 0 0 1.55 0 1.55 -0.4149 0c-0.2723,0.4705 -0.6646,0.8628 -1.1351,1.1351l0 0.4149 -1.55 0 -1.55 0 0 -0.4149c-0.4705,-0.2723 -0.8628,-0.6646 -1.1351,-1.1351l-0.4149 0 0 -1.55 0 -1.55z"/>
  <path class="fil0 str0" d="M-113.1 275.45l0.4149 0c0.2723,-0.4705 0.6646,-0.8628 1.1351,-1.1351l0 -0.4149 1.55 0 1.55 0 0 0.4149c0.4705,0.2723 0.8628,0.6646 1.1351,1.1351l0.4149 0 0 1.55 0 1.55 -0.4149 0c-0.2723,0.4705 -0.6646,0.8628 -1.1351,1.1351l0 0.4149 -1.55 0 -1.55 0 0 -0.4149c-0.4705,-0.2723 -0.8628,-0.6646 -1.1351,-1.1351l-0.4149 0 0 -1.55 0 -1.55z"/>
  <path class="fil0 str0" d="M-113.1 255.45l0.4149 0c0.2723,-0.4705 0.6646,-0.8628 1.1351,-1.1351l0 -0.4149 1.55 0 1.55 0 0 0.4149c0.4705,0.2723 0.8628,0.6646 1.1351,1.1351l0.4149 0 0 1.55 0 1.55 -0.4149 0c-0.2723,0.4705 -0.6646,0.8628 -1.1351,1.1351l0 0.4149 -1.55 0 -1.55 0 0 -0.4149c-0.4705,-0.2723 -0.8628,-0.6646 -1.1351,-1.1351l-0.4149 0 0 -1.55 0 -1.55z"/>
  <rect class="fil0 str1" x="-111.6" y="323.9" width="3.2" height="6.2"/>
  <rect class="fil0 str1" x="-111.6" y="303.9" width="3.2" height="6.2"/>
  <rect class="fil0 str1" x="-111.6" y="283.9" width="3.2" height="6.2"/>
  <rect class="fil0 str1" x="-111.6" y="263.9" width="3.2" height="6.2"/>
  <path class="fil0 str0" d="M-93.1 335.45l0.4149 0c0.2723,-0.4705 0.6646,-0.8628 1.1351,-1.1351l0 -0.4149 1.55 0 1.55 0 0 0.4149c0.4705,0.2723 0.8628,0.6646 1.1351,1.1351l0.4149 0 0 1.55 0 1.55 -0.4149 0c-0.2723,0.4705 -0.6646,0.8628 -1.1351,1.1351l0 0.4149 -1.55 0 -1.55 0 0 -0.4149c-0.4705,-0.2723 -0.8628,-0.6646 -1.1351,-1.1351l-0.4149 0 0 -1.55 0 -1.55z"/>
  <path class="fil0 str0" d="M-93.1 315.45l0.4149 0c0.2723,-0.4705 0.6646,-0.8628 1.1351,-1.1351l0 -0.4149 1.55 0 1.55 0 0 0.4149c0.4705,0.2723 0.8628,0.6646 1.1351,1.1351l0.4149 0 0 1.55 0 1.55 -0.4149 0c-0.2723,0.4705 -0.6646,0.8628 -1.1351,1.1351l0 0.4149 -1.55 0 -1.55 0 0 -0.4149c-0.4705,-0.2723 -0.8628,-0.6646 -1.1351,-1.1351l-0.4149 0 0 -1.55 0 -1.55z"/>
  <path class="fil0 str0" d="M-93.1 295.45l0.4149 0c0.2723,-0.4705 0.6646,-0.8628 1.1351,-1.1351l0 -0.4149 1.55 0 1.55 0 0 0.4149c0.4705,0.2723 0.8628,0.6646 1.1351,1.1351l0.4149 0 0 1.55 0 1.55 -0.4149 0c-0.2723,0.4705 -0.6646,0.8628 -1.1351,1.1351l0 0.4149 -1.55 0 -1.55 0 0 -0.4149c-0.4705,-0.2723 -0.8628,-0.6646 -1.1351,-1.1351l-0.4149 0 0 -1.55 0 -1.55z"/>
  <path class="fil0 str0" d="M-93.1 275.45l0.4149 0c0.2723,-0.4705 0.6646,-0.8628 1.1351,-1.1351l0 -0.4149 1.55 0 1.55 0 0 0.4149c0.4705,0.2723 0.8628,0.6646 1.1351,1.1351l0.4149 0 0 1.55 0 1.55 -0.4149 0c-0.2723,0.4705 -0.6646,0.8628 -1.1351,1.1351l0 0.4149 -1.55 0 -1.55 0 0 -0.4149c-0.4705,-0.2723 -0.8628,-0.6646 -1.1351,-1.1351l-0.4149 0 0 -1.55 0 -1.55z"/>
  <path class="fil0 str0" d="M-93.1 255.45l0.4149 0c0.2723,-0.4705 0.6646,-0.8628 1.1351,-1.1351l0 -0.4149 1.55 0 1.55 0 0 0.4149c0.4705,0.2723 0.8628,0.6646 1.1351,1.1351l0.4149 0 0 1.55 0 1.55 -0.4149 0c-0.2723,0.4705 -0.6646,0.8628 -1.1351,1.1351l0 0.4149 -1.55 0 -1.55 0 0 -0.4149c-0.4705,-0.2723 -0.8628,-0.6646 -1.1351,-1.1351l-0.4149 0 0 -1.55 0 -1.55z"/>
  <rect class="fil0 str1" x="-91.6" y="323.9" width="3.2" height="6.2"/>
  <rect class="fil0 str1" x="-91.6" y="303.9" width="3.2" height="6.2"/>
  <rect class="fil0 str1" x="-91.6" y="283.9" width="3.2" height="6.2"/>
  <rect class="fil0 str1" x="-91.6" y="263.9" width="3.2" height="6.2"/>
  <path class="fil0 str0" d="M-73.1 335.45l0.4149 0c0.2723,-0.4705 0.6646,-0.8628 1.1351,-1.1351l0 -0.4149 1.55 0 1.55 0 0 0.4149c0.4705,0.2723 0.8628,0.6646 1.1351,1.1351l0.4149 0 0 1.55 0 1.55 -0.4149 0c-0.2723,0.4705 -0.6646,0.8628 -1.1351,1.1351l0 0.4149 -1.55 0 -1.55 0 0 -0.4149c-0.4705,-0.2723 -0.8628,-0.6646 -1.1351,-1.1351l-0.4149 0 0 -1.55 0 -1.55z"/>
  <path class="fil0 str0" d="M-73.1 315.45l0.4149 0c0.2723,-0.4705 0.6646,-0.8628 1.1351,-1.1351l0 -0.4149 1.55 0 1.55 0 0 0.4149c0.4705,0.2723 0.8628,0.6646 1.1351,1.1351l0.4149 0 0 1.55 0 1.55 -0.4149 0c-0.2723,0.4705 -0.6646,0.8628 -1.1351,1.1351l0 0.4149 -1.55 0 -1.55 0 0 -0.4149c-0.4705,-0.2723 -0.8628,-0.6646 -1.1351,-1.1351l-0.4149 0 0 -1.55 0 -1.55z"/>
  <path class="fil0 str0" d="M-73.1 295.45l0.4149 0c0.2723,-0.4705 0.6646,-0.8628 1.1351,-1.1351l0 -0.4149 1.55 0 1.55 0 0 0.4149c0.4705,0.2723 0.8628,0.6646 1.1351,1.1351l0.4149 0 0 1.55 0 1.55 -0.4149 0c-0.2723,0.4705 -0.6646,0.8628 -1.1351,1.1351l0 0.4149 -1.55 0 -1.55 0 0 -0.4149c-0.4705,-0.2723 -0.8628,-0.6646 -1.1351,-1.1351l-0.4149 0 0 -1.55 0 -1.55z"/>
  <path class="fil0 str0" d="M-73.1 275.45l0.4149 0c0.2723,-0.4705 0.6646,-0.8628 1.1351,-1.1351l0 -0.4149 1.55 0 1.55 0 0 0.4149c0.4705,0.2723 0.8628,0.6646 1.1351,1.1351l0.4149 0 0 1.55 0 1.55 -0.4149 0c-0.2723,0.4705 -0.6646,0.8628 -1.1351,1.1351l0 0.4149 -1.55 0 -1.55 0 0 -0.4149c-0.4705,-0.2723 -0.8628,-0.6646 -1.1351,-1.1351l-0.4149 0 0 -1.55 0 -1.55z"/>
  <path class="fil0 str0" d="M-73.1 255.45l0.4149 0c0.2723,-0.4705 0.6646,-0.8628 1.1351,-1.1351l0 -0.4149 1.55 0 1.55 0 0 0.4149c0.4705,0.2723 0.8628,0.6646 1.1351,1.1351l0.4149 0 0 1.55 0 1.55 -0.4149 0c-0.2723,0.4705 -0.6646,0.8628 -1.1351,1.1351l0 0.4149 -1.55 0 -1.55 0 0 -0.4149c-0.4705,-0.2723 -0.8628,-0.6646 -1.1351,-1.1351l-0.4149 0 0 -1.55 0 -1.55z"/>
  <rect class="fil0 str1" x="-71.6" y="323.9" width="3.2" height="6.2"/>
  <rect class="fil0 str1" x="-71.6" y="303.9" width="3.2" height="6.2"/>
  <rect class="fil0 str1" x="-71.6" y="283.9" width="3.2" height="6.2"/>
  <rect class="fil0 str1" x="-71.6" y="263.9" width="3.2" height="6.2"/>
  <path class="fil0 str0" d="M-53.1 335.45l0.4149 0c0.2723,-0.4705 0.6646,-0.8628 1.1351,-1.1351l0 -0.4149 1.55 0 1.55 0 0 0.4149c0.4705,0.2723 0.8628,0.6646 1.1351,1.1351l0.4149 0 0 1.55 0 1.55 -0.4149 0c-0.2723,0.4705 -0.6646,0.8628 -1.1351,1.1351l0 0.4149 -1.55 0 -1.55 0 0 -0.4149c-0.4705,-0.2723 -0.8628,-0.6646 -1.1351,-1.1351l-0.4149 0 0 -1.55 0 -1.55z"/>
  <path class="fil0 str0" d="M-53.1 315.45l0.4149 0c0.2723,-0.4705 0.6646,-0.8628 1.1351,-1.1351l0 -0.4149 1.55 0 1.55 0 0 0.4149c0.4705,0.2723 0.8628,0.6646 1.1351,1.1351l0.4149 0 0 1.55 0 1.55 -0.4149 0c-0.2723,0.4705 -0.6646,0.8628 -1.1351,1.1351l0 0.4149 -1.55 0 -1.55 0 0 -0.4149c-0.4705,-0.2723 -0.8628,-0.6646 -1.1351,-1.1351l-0.4149 0 0 -1.55 0 -1.55z"/>
  <path class="fil0 str0" d="M-53.1 295.45l0.4149 0c0.2723,-0.4705 0.6646,-0.8628 1.1351,-1.1351l0 -0.4149 1.55 0 1.55 0 0 0.4149c0.4705,0.2723 0.8628,0.6646 1.1351,1.1351l0.4149 0 0 1.55 0 1.55 -0.4149 0c-0.2723,0.4705 -0.6646,0.8628 -1.1351,1.1351l0 0.4149 -1.55 0 -1.55 0 0 -0.4149c-0.4705,-0.2723 -0.8628,-0.6646 -1.1351,-1.1351l-0.4149 0 0 -1.55 0 -1.55z"/>
  <path class="fil0 str0" d="M-53.1 275.45l0.4149 0c0.2723,-0.4705 0.6646,-0.8628 1.1351,-1.1351l0 -0.4149 1.55 0 1.55 0 0 0.4149c0.4705,0.2723 0.8628,0.6646 1.1351,1.1351l0.4149 0 0 1.55 0 1.55 -0.4149 0c-0.2723,0.4705 -0.6646,0.8628 -1.1351,1.1351l0 0.4149 -1.55 0 -1.55 0 0 -0.4149c-0.4705,-0.2723 -0.8628,-0.6646 -1.1351,-1.1351l-0.4149 0 0 -1.55 0 -1.55z"/>
  <path class="fil0 str0" d="M-53.1 255.45l0.4149 0c0.2723,-0.4705 0.6646,-0.8628 1.1351,-1.1351l0 -0.4149 1.55 0 1.55 0 0 0.4149c0.4705,0.2723 0.8628,0.6646 1.1351,1.1351l0.4149 0 0 1.55 0 1.55 -0.4149 0c-0.2723,0.4705 -0.6646,0.8628 -1.1351,1.1351l0 0.4149 -1.55 0 -1.55 0 0 -0.4149c-0.4705,-0.2723 -0.8628,-0.6646 -1.1351,-1.1351l-0.4149 0 0 -1.55 0 -1.55z"/>
  <rect class="fil0 str1" x="-51.6" y="323.9" width="3.2" height="6.2"/>
  <rect class="fil0 str1" x="-51.6" y="303.9" width="3.2" height="6.2"/>
  <rect class="fil0 str1" x="-51.6" y="283.9" width="3.2" height="6.2"/>
  <rect class="fil0 str1" x="-51.6" y="263.9" width="3.2" height="6.2"/>
  <path class="fil0 str0" d="M-33.1 335.45l0.4149 0c0.2723,-0.4705 0.6646,-0.8628 1.1351,-1.1351l0 -0.4149 1.55 0 1.55 0 0 0.4149c0.4705,0.2723 0.8628,0.6646 1.1351,1.1351l0.4149 0 0 1.55 0 1.55 -0.4149 0c-0.2723,0.4705 -0.6646,0.8628 -1.1351,1.1351l0 0.4149 -1.55 0 -1.55 0 0 -0.4149c-0.4705,-0.2723 -0.8628,-0.6646 -1.1351,-1.1351l-0.4149 0 0 -1.55 0 -1.55z"/>
  <path class="fil0 str0" d="M-33.1 315.45l0.4149 0c0.2723,-0.4705 0.6646,-0.8628 1.1351,-1.1351l0 -0.4149 1.55 0 1.55 0 0 0.4149c0.4705,0.2723 0.8628,0.6646 1.1351,1.1351l0.4149 0 0 1.55 0 1.55 -0.4149 0c-0.2723,0.4705 -0.6646,0.8628 -1.1351,1.1351l0 0.4149 -1.55 0 -1.55 0 0 -0.4149c-0.4705,-0.2723 -0.8628,-0.6646 -1.1351,-1.1351l-0.4149 0 0 -1.55 0 -1.55z"/>
  <path class="fil0 str0" d="M-33.1 295.45l0.4149 0c0.2723,-0.4705 0.6646,-0.8628 1.1351,-1.1351l0 -0.4149 1.55 0 1.55 0 0 0.4149c0.4705,0.2723 0.8628,0.6646 1.1351,1.1351l0.4149 0 0 1.55 0 1.55 -0.4149 0c-0.2723,0.4705 -0.6646,0.8628 -1.1351,1.1351l0 0.4149 -1.55 0 -1.55 0 0 -0.4149c-0.4705,-0.2723 -0.8628,-0.6646 -1.1351,-1.1351l-0.4149 0 0 -1.55 0 -1.55z"/>
  <path class="fil0 str0" d="M-33.1 275.45l0.4149 0c0.2723,-0.4705 0.6646,-0.8628 1.1351,-1.1351l0 -0.4149 1.55 0 1.55 0 0 0.4149c0.4705,0.2723 0.8628,0.6646 1.1351,1.1351l0.4149 0 0 1.55 0 1.55 -0.4149 0c-0.2723,0.4705 -0.6646,0.8628 -1.1351,1.1351l0 0.4149 -1.55 0 -1.55 0 0 -0.4149c-0.4705,-0.2723 -0.8628,-0.6646 -1.1351,-1.1351l-0.4149 0 0 -1.55 0 -1.55z"/>
  <path class="fil0 str0" d="M-33.1 255.45l0.4149 0c0.2723,-0.4705 0.6646,-0.8628 1.1351,-1.1351l0 -0.4149 1.55 0 1.55 0 0 0.4149c0.4705,0.2723 0.8628,0.6646 1.1351,1.1351l0.4149 0 0 1.55 0 1.55 -0.4149 0c-0.2723,0.4705 -0.6646,0.8628 -1.1351,1.1351l0 0.4149 -1.55 0 -1.55 0 0 -0.4149c-0.4705,-0.2723 -0.8628,-0.6646 -1.1351,-1.1351l-0.4149 0 0 -1.55 0 -1.55z"/>
  <rect class="fil0 str1" x="-31.6" y="323.9" width="3.2" height="6.2"/>
  <rect class="fil0 str1" x="-31.6" y="303.9" width="3.2" height="6.2"/>
  <rect class="fil0 str1" x="-31.6" y="283.9" width="3.2" height="6.2"/>
  <rect class="fil0 str1" x="-31.6" y="263.9" width="3.2" height="6.2"/>
  <path class="fil0 str0" d="M-13.1 335.45l0.4149 0c0.2723,-0.4705 0.6646,-0.8628 1.1351,-1.1351l0 -0.4149 1.55 0 1.55 0 0 0.4149c0.4705,0.2723 0.8628,0.6646 1.1351,1.1351l0.4149 0 0 1.55 0 1.55 -0.4149 0c-0.2723,0.4705 -0.6646,0.8628 -1.1351,1.1351l0 0.4149 -1.55 0 -1.55 0 0 -0.4149c-0.4705,-0.2723 -0.8628,-0.6646 -1.1351,-1.1351l-0.4149 0 0 -1.55 0 -1.55z"/>
  <path class="fil0 str0" d="M-13.1 315.45l0.4149 0c0.2723,-0.4705 0.6646,-0.8628 1.1351,-1.1351l0 -0.4149 1.55 0 1.55 0 0 0.4149c0.4705,0.2723 0.8628,0.6646 1.1351,1.1351l0.4149 0 0 1.55 0 1.55 -0.4149 0c-0.2723,0.4705 -0.6646,0.8628 -1.1351,1.1351l0 0.4149 -1.55 0 -1.55 0 0 -0.4149c-0.4705,-0.2723 -0.8628,-0.6646 -1.1351,-1.1351l-0.4149 0 0 -1.55 0 -1.55z"/>
  <path class="fil0 str0" d="M-13.1 295.45l0.4149 0c0.2723,-0.4705 0.6646,-0.8628 1.1351,-1.1351l0 -0.4149 1.55 0 1.55 0 0 0.4149c0.4705,0.2723 0.8628,0.6646 1.1351,1.1351l0.4149 0 0 1.55 0 1.55 -0.4149 0c-0.2723,0.4705 -0.6646,0.8628 -1.1351,1.1351l0 0.4149 -1.55 0 -1.55 0 0 -0.4149c-0.4705,-0.2723 -0.8628,-0.6646 -1.1351,-1.1351l-0.4149 0 0 -1.55 0 -1.55z"/>
  <path class="fil0 str0" d="M-13.1 275.45l0.4149 0c0.2723,-0.4705 0.6646,-0.8628 1.1351,-1.1351l0 -0.4149 1.55 0 1.55 0 0 0.4149c0.4705,0.2723 0.8628,0.6646 1.1351,1.1351l0.4149 0 0 1.55 0 1.55 -0.4149 0c-0.2723,0.4705 -0.6646,0.8628 -1.1351,1.1351l0 0.4149 -1.55 0 -1.55 0 0 -0.4149c-0.4705,-0.2723 -0.8628,-0.6646 -1.1351,-1.1351l-0.4149 0 0 -1.55 0 -1.55z"/>
  <path class="fil0 str0" d="M-13.1 255.45l0.4149 0c0.2723,-0.4705 0.6646,-0.8628 1.1351,-1.1351l0 -0.4149 1.55 0 1.55 0 0 0.4149c0.4705,0.2723 0.8628,0.6646 1.1351,1.1351l0.4149 0 0 1.55 0 1.55 -0.4149 0c-0.2723,0.4705 -0.6646,0.8628 -1.1351,1.1351l0 0.4149 -1.55 0 -1.55 0 0 -0.4149c-0.4705,-0.2723 -0.8628,-0.6646 -1.1351,-1.1351l-0.4149 0 0 -1.55 0 -1.55z"/>
  <rect class="fil0 str1" x="-11.6" y="323.9" width="3.2" height="6.2"/>
  <rect class="fil0 str1" x="-11.6" y="303.9" width="3.2" height="6.2"/>
  <rect class="fil0 str1" x="-11.6" y="283.9" width="3.2" height="6.2"/>
  <rect class="fil0 str1" x="-11.6" y="263.9" width="3.2" height="6.2"/>
  <path class="fil0 str0" d="M6.9 335.45l0.4149 0c0.2723,-0.4705 0.6646,-0.8628 1.1351,-1.1351l0 -0.4149 1.55 0 1.55 0 0 0.4149c0.4705,0.2723 0.8628,0.6646 1.1351,1.1351l0.4149 0 0 1.55 0 1.55 -0.4149 0c-0.2723,0.4705 -0.6646,0.8628 -1.1351,1.1351l0 0.4149 -1.55 0 -1.55 0 0 -0.4149c-0.4705,-0.2723 -0.8628,-0.6646 -1.1351,-1.1351l-0.4149 0 0 -1.55 0 -1.55z"/>
  <path class="fil0 str0" d="M6.9 315.45l0.4149 0c0.2723,-0.4705 0.6646,-0.8628 1.1351,-1.1351l0 -0.4149 1.55 0 1.55 0 0 0.4149c0.4705,0.2723 0.8628,0.6646 1.1351,1.1351l0.4149 0 0 1.55 0 1.55 -0.4149 0c-0.2723,0.4705 -0.6646,0.8628 -1.1351,1.1351l0 0.4149 -1.55 0 -1.55 0 0 -0.4149c-0.4705,-0.2723 -0.8628,-0.6646 -1.1351,-1.1351l-0.4149 0 0 -1.55 0 -1.55z"/>
  <path class="fil0 str0" d="M6.9 295.45l0.4149 0c0.2723,-0.4705 0.6646,-0.8628 1.1351,-1.1351l0 -0.4149 1.55 0 1.55 0 0 0.4149c0.4705,0.2723 0.8628,0.6646 1.1351,1.1351l0.4149 0 0 1.55 0 1.55 -0.4149 0c-0.2723,0.4705 -0.6646,0.8628 -1.1351,1.1351l0 0.4149 -1.55 0 -1.55 0 0 -0.4149c-0.4705,-0.2723 -0.8628,-0.6646 -1.1351,-1.1351l-0.4149 0 0 -1.55 0 -1.55z"/>
  <path class="fil0 str0" d="M6.9 275.45l0.4149 0c0.2723,-0.4705 0.6646,-0.8628 1.1351,-1.1351l0 -0.4149 1.55 0 1.55 0 0 0.4149c0.4705,0.2723 0.8628,0.6646 1.1351,1.1351l0.4149 0 0 1.55 0 1.55 -0.4149 0c-0.2723,0.4705 -0.6646,0.8628 -1.1351,1.1351l0 0.4149 -1.55 0 -1.55 0 0 -0.4149c-0.4705,-0.2723 -0.8628,-0.6646 -1.1351,-1.1351l-0.4149 0 0 -1.55 0 -1.55z"/>
  <path class="fil0 str0" d="M6.9 255.45l0.4149 0c0.2723,-0.4705 0.6646,-0.8628 1.1351,-1.1351l0 -0.4149 1.55 0 1.55 0 0 0.4149c0.4705,0.2723 0.8628,0.6646 1.1351,1.1351l0.4149 0 0 1.55 0 1.55 -0.4149 0c-0.2723,0.4705 -0.6646,0.8628 -1.1351,1.1351l0 0.4149 -1.55 0 -1.55 0 0 -0.4149c-0.4705,-0.2723 -0.8628,-0.6646 -1.1351,-1.1351l-0.4149 0 0 -1.55 0 -1.55z"/>
  <rect class="fil0 str1" x="8.4" y="323.9" width="3.2" height="6.2"/>
  <rect class="fil0 str1" x="8.4" y="303.9" width="3.2" height="6.2"/>
  <rect class="fil0 str1" x="8.4" y="283.9" width="3.2" height="6.2"/>
  <rect class="fil0 str1" x="8.4" y="263.9" width="3.2" height="6.2"/>
  <path class="fil0 str0" d="M26.9 335.45l0.4149 0c0.2723,-0.4705 0.6646,-0.8628 1.1351,-1.1351l0 -0.4149 1.55 0 1.55 0 0 0.4149c0.4705,0.2723 0.8628,0.6646 1.1351,1.1351l0.4149 0 0 1.55 0 1.55 -0.4149 0c-0.2723,0.4705 -0.6646,0.8628 -1.1351,1.1351l0 0.4149 -1.55 0 -1.55 0 0 -0.4149c-0.4705,-0.2723 -0.8628,-0.6646 -1.1351,-1.1351l-0.4149 0 0 -1.55 0 -1.55z"/>
  <path class="fil0 str0" d="M26.9 315.45l0.4149 0c0.2723,-0.4705 0.6646,-0.8628 1.1351,-1.1351l0 -0.4149 1.55 0 1.55 0 0 0.4149c0.4705,0.2723 0.8628,0.6646 1.1351,1.1351l0.4149 0 0 1.55 0 1.55 -0.4149 0c-0.2723,0.4705 -0.6646,0.8628 -1.1351,1.1351l0 0.4149 -1.55 0 -1.55 0 0 -0.4149c-0.4705,-0.2723 -0.8628,-0.6646 -1.1351,-1.1351l-0.4149 0 0 -1.55 0 -1.55z"/>
  <path class="fil0 str0" d="M26.9 295.45l0.4149 0c0.2723,-0.4705 0.6646,-0.8628 1.1351,-1.1351l0 -0.4149 1.55 0 1.55 0 0 0.4149c0.4705,0.2723 0.8628,0.6646 1.1351,1.1351l0.4149 0 0 1.55 0 1.55 -0.4149 0c-0.2723,0.4705 -0.6646,0.8628 -1.1351,1.1351l0 0.4149 -1.55 0 -1.55 0 0 -0.4149c-0.4705,-0.2723 -0.8628,-0.6646 -1.1351,-1.1351l-0.4149 0 0 -1.55 0 -1.55z"/>
  <path class="fil0 str0" d="M26.9 275.45l0.4149 0c0.2723,-0.4705 0.6646,-0.8628 1.1351,-1.1351l0 -0.4149 1.55 0 1.55 0 0 0.4149c0.4705,0.2723 0.8628,0.6646 1.1351,1.1351l0.4149 0 0 1.55 0 1.55 -0.4149 0c-0.2723,0.4705 -0.6646,0.8628 -1.1351,1.1351l0 0.4149 -1.55 0 -1.55 0 0 -0.4149c-0.4705,-0.2723 -0.8628,-0.6646 -1.1351,-1.1351l-0.4149 0 0 -1.55 0 -1.55z"/>
  <path class="fil0 str0" d="M26.9 255.45l0.4149 0c0.2723,-0.4705 0.6646,-0.8628 1.1351,-1.1351l0 -0.4149 1.55 0 1.55 0 0 0.4149c0.4705,0.2723 0.8628,0.6646 1.1351,1.1351l0.4149 0 0 1.55 0 1.55 -0.4149 0c-0.2723,0.4705 -0.6646,0.8628 -1.1351,1.1351l0 0.4149 -1.55 0 -1.55 0 0 -0.4149c-0.4705,-0.2723 -0.8628,-0.6646 -1.1351,-1.1351l-0.4149 0 0 -1.55 0 -1.55z"/>
  <rect class="fil0 str1" x="28.4" y="323.9" width="3.2" height="6.2"/>
  <rect class="fil0 str1" x="28.4" y="303.9" width="3.2" height="6.2"/>
  <rect class="fil0 str1" x="28.4" y="283.9" width="3.2" height="6.2"/>
  <rect class="fil0 str1" x="28.4" y="263.9" width="3.2" height="6.2"/>
  <path class="fil0 str0" d="M46.9 335.45l0.4149 0c0.2723,-0.4705 0.6646,-0.8628 1.1351,-1.1351l0 -0.4149 1.55 0 1.55 0 0 0.4149c0.4705,0.2723 0.8628,0.6646 1.1351,1.1351l0.4149 0 0 1.55 0 1.55 -0.4149 0c-0.2723,0.4705 -0.6646,0.8628 -1.1351,1.1351l0 0.4149 -1.55 0 -1.55 0 0 -0.4149c-0.4705,-0.2723 -0.8628,-0.6646 -1.1351,-1.1351l-0.4149 0 0 -1.55 0 -1.55z"/>
  <path class="fil0 str0" d="M46.9 315.45l0.4149 0c0.2723,-0.4705 0.6646,-0.8628 1.1351,-1.1351l0 -0.4149 1.55 0 1.55 0 0 0.4149c0.4705,0.2723 0.8628,0.6646 1.1351,1.1351l0.4149 0 0 1.55 0 1.55 -0.4149 0c-0.2723,0.4705 -0.6646,0.8628 -1.1351,1.1351l0 0.4149 -1.55 0 -1.55 0 0 -0.4149c-0.4705,-0.2723 -0.8628,-0.6646 -1.1351,-1.1351l-0.4149 0 0 -1.55 0 -1.55z"/>
  <path class="fil0 str0" d="M46.9 295.45l0.4149 0c0.2723,-0.4705 0.6646,-0.8628 1.1351,-1.1351l0 -0.4149 1.55 0 1.55 0 0 0.4149c0.4705,0.2723 0.8628,0.6646 1.1351,1.1351l0.4149 0 0 1.55 0 1.55 -0.4149 0c-0.2723,0.4705 -0.6646,0.8628 -1.1351,1.1351l0 0.4149 -1.55 0 -1.55 0 0 -0.4149c-0.4705,-0.2723 -0.8628,-0.6646 -1.1351,-1.1351l-0.4149 0 0 -1.55 0 -1.55z"/>
  <path class="fil0 str0" d="M46.9 275.45l0.4149 0c0.2723,-0.4705 0.6646,-0.8628 1.1351,-1.1351l0 -0.4149 1.55 0 1.55 0 0 0.4149c0.4705,0.2723 0.8628,0.6646 1.1351,1.1351l0.4149 0 0 1.55 0 1.55 -0.4149 0c-0.2723,0.4705 -0.6646,0.8628 -1.1351,1.1351l0 0.4149 -1.55 0 -1.55 0 0 -0.4149c-0.4705,-0.2723 -0.8628,-0.6646 -1.1351,-1.1351l-0.4149 0 0 -1.55 0 -1.55z"/>
  <path class="fil0 str0" d="M46.9 255.45l0.4149 0c0.2723,-0.4705 0.6646,-0.8628 1.1351,-1.1351l0 -0.4149 1.55 0 1.55 0 0 0.4149c0.4705,0.2723 0.8628,0.6646 1.1351,1.1351l0.4149 0 0 1.55 0 1.55 -0.4149 0c-0.2723,0.4705 -0.6646,0.8628 -1.1351,1.1351l0 0.4149 -1.55 0 -1.55 0 0 -0.4149c-0.4705,-0.2723 -0.8628,-0.6646 -1.1351,-1.1351l-0.4149 0 0 -1.55 0 -1.55z"/>
  <rect class="fil0 str1" x="48.4" y="323.9" width="3.2" height="6.2"/>
  <rect class="fil0 str1" x="48.4" y="303.9" width="3.2" height="6.2"/>
  <rect class="fil0 str1" x="48.4" y="283.9" width="3.2" height="6.2"/>
  <rect class="fil0 str1" x="48.4" y="263.9" width="3.2" height="6.2"/>
  <path class="fil0 str0" d="M66.9 335.45l0.4149 0c0.2723,-0.4705 0.6646,-0.8628 1.1351,-1.1351l0 -0.4149 1.55 0 1.55 0 0 0.4149c0.4705,0.2723 0.8628,0.6646 1.1351,1.1351l0.4149 0 0 1.55 0 1.55 -0.4149 0c-0.2723,0.4705 -0.6646,0.8628 -1.1351,1.1351l0 0.4149 -1.55 0 -1.55 0 0 -0.4149c-0.4705,-0.2723 -0.8628,-0.6646 -1.1351,-1.1351l-0.4149 0 0 -1.55 0 -1.55z"/>
  <path class="fil0 str0" d="M66.9 315.45l0.4149 0c0.2723,-0.4705 0.6646,-0.8628 1.1351,-1.1351l0 -0.4149 1.55 0 1.55 0 0 0.4149c0.4705,0.2723 0.8628,0.6646 1.1351,1.1351l0.4149 0 0 1.55 0 1.55 -0.4149 0c-0.2723,0.4705 -0.6646,0.8628 -1.1351,1.1351l0 0.4149 -1.55 0 -1.55 0 0 -0.4149c-0.4705,-0.2723 -0.8628,-0.6646 -1.1351,-1.1351l-0.4149 0 0 -1.55 0 -1.55z"/>
  <path class="fil0 str0" d="M66.9 295.45l0.4149 0c0.2723,-0.4705 0.6646,-0.8628 1.1351,-1.1351l0 -0.4149 1.55 0 1.55 0 0 0.4149c0.4705,0.2723 0.8628,0.6646 1.1351,1.1351l0.4149 0 0 1.55 0 1.55 -0.4149 0c-0.2723,0.4705 -0.6646,0.8628 -1.1351,1.1351l0 0.4149 -1.55 0 -1.55 0 0 -0.4149c-0.4705,-0.2723 -0.8628,-0.6646 -1.1351,-1.1351l-0.4149 0 0 -1.55 0 -1.55z"/>
  <path class="fil0 str0" d="M66.9 275.45l0.4149 0c0.2723,-0.4705 0.6646,-0.8628 1.1351,-1.1351l0 -0.4149 1.55 0 1.55 0 0 0.4149c0.4705,0.2723 0.8628,0.6646 1.1351,1.1351l0.4149 0 0 1.55 0 1.55 -0.4149 0c-0.2723,0.4705 -0.6646,0.8628 -1.1351,1.1351l0 0.4149 -1.55 0 -1.55 0 0 -0.4149c-0.4705,-0.2723 -0.8628,-0.6646 -1.1351,-1.1351l-0.4149 0 0 -1.55 0 -1.55z"/>
  <path class="fil0 str0" d="M66.9 255.45l0.4149 0c0.2723,-0.4705 0.6646,-0.8628 1.1351,-1.1351l0 -0.4149 1.55 0 1.55 0 0 0.4149c0.4705,0.2723 0.8628,0.6646 1.1351,1.1351l0.4149 0 0 1.55 0 1.55 -0.4149 0c-0.2723,0.4705 -0.6646,0.8628 -1.1351,1.1351l0 0.4149 -1.55 0 -1.55 0 0 -0.4149c-0.4705,-0.2723 -0.8628,-0.6646 -1.1351,-1.1351l-0.4149 0 0 -1.55 0 -1.55z"/>
  <rect class="fil0 str1" x="68.4" y="323.9" width="3.2" height="6.2"/>
  <rect class="fil0 str1" x="68.4" y="303.9" width="3.2" height="6.2"/>
  <rect class="fil0 str1" x="68.4" y="283.9" width="3.2" height="6.2"/>
  <rect class="fil0 str1" x="68.4" y="263.9" width="3.2" height="6.2"/>
  <path class="fil0 str0" d="M86.9 335.45l0.4149 0c0.2723,-0.4705 0.6646,-0.8628 1.1351,-1.1351l0 -0.4149 1.55 0 1.55 0 0 0.4149c0.4705,0.2723 0.8628,0.6646 1.1351,1.1351l0.4149 0 0 1.55 0 1.55 -0.4149 0c-0.2723,0.4705 -0.6646,0.8628 -1.1351,1.1351l0 0.4149 -1.55 0 -1.55 0 0 -0.4149c-0.4705,-0.2723 -0.8628,-0.6646 -1.1351,-1.1351l-0.4149 0 0 -1.55 0 -1.55z"/>
  <path class="fil0 str0" d="M86.9 315.45l0.4149 0c0.2723,-0.4705 0.6646,-0.8628 1.1351,-1.1351l0 -0.4149 1.55 0 1.55 0 0 0.4149c0.4705,0.2723 0.8628,0.6646 1.1351,1.1351l0.4149 0 0 1.55 0 1.55 -0.4149 0c-0.2723,0.4705 -0.6646,0.8628 -1.1351,1.1351l0 0.4149 -1.55 0 -1.55 0 0 -0.4149c-0.4705,-0.2723 -0.8628,-0.6646 -1.1351,-1.1351l-0.4149 0 0 -1.55 0 -1.55z"/>
  <path class="fil0 str0" d="M86.9 295.45l0.4149 0c0.2723,-0.4705 0.6646,-0.8628 1.1351,-1.1351l0 -0.4149 1.55 0 1.55 0 0 0.4149c0.4705,0.2723 0.8628,0.6646 1.1351,1.1351l0.4149 0 0 1.55 0 1.55 -0.4149 0c-0.2723,0.4705 -0.6646,0.8628 -1.1351,1.1351l0 0.4149 -1.55 0 -1.55 0 0 -0.4149c-0.4705,-0.2723 -0.8628,-0.6646 -1.1351,-1.1351l-0.4149 0 0 -1.55 0 -1.55z"/>
  <path class="fil0 str0" d="M86.9 275.45l0.4149 0c0.2723,-0.4705 0.6646,-0.8628 1.1351,-1.1351l0 -0.4149 1.55 0 1.55 0 0 0.4149c0.4705,0.2723 0.8628,0.6646 1.1351,1.1351l0.4149 0 0 1.55 0 1.55 -0.4149 0c-0.2723,0.4705 -0.6646,0.8628 -1.1351,1.1351l0 0.4149 -1.55 0 -1.55 0 0 -0.4149c-0.4705,-0.2723 -0.8628,-0.6646 -1.1351,-1.1351l-0.4149 0 0 -1.55 0 -1.55z"/>
  <path class="fil0 str0" d="M86.9 255.45l0.4149 0c0.2723,-0.4705 0.6646,-0.8628 1.1351,-1.1351l0 -0.4149 1.55 0 1.55 0 0 0.4149c0.4705,0.2723 0.8628,0.6646 1.1351,1.1351l0.4149 0 0 1.55 0 1.55 -0.4149 0c-0.2723,0.4705 -0.6646,0.8628 -1.1351,1.1351l0 0.4149 -1.55 0 -1.55 0 0 -0.4149c-0.4705,-0.2723 -0.8628,-0.6646 -1.1351,-1.1351l-0.4149 0 0 -1.55 0 -1.55z"/>
  <rect class="fil0 str1" x="88.4" y="323.9" width="3.2" height="6.2"/>
  <rect class="fil0 str1" x="88.4" y="303.9" width="3.2" height="6.2"/>
  <rect class="fil0 str1" x="88.4" y="283.9" width="3.2" height="6.2"/>
  <rect class="fil0 str1" x="88.4" y="263.9" width="3.2" height="6.2"/>
  <path class="fil0 str0" d="M106.9 335.45l0.4149 0c0.2723,-0.4705 0.6646,-0.8628 1.1351,-1.1351l0 -0.4149 1.55 0 1.55 0 0 0.4149c0.4705,0.2723 0.8628,0.6646 1.1351,1.1351l0.4149 0 0 1.55 0 1.55 -0.4149 0c-0.2723,0.4705 -0.6646,0.8628 -1.1351,1.1351l0 0.4149 -1.55 0 -1.55 0 0 -0.4149c-0.4705,-0.2723 -0.8628,-0.6646 -1.1351,-1.1351l-0.4149 0 0 -1.55 0 -1.55z"/>
  <path class="fil0 str0" d="M106.9 315.45l0.4149 0c0.2723,-0.4705 0.6646,-0.8628 1.1351,-1.1351l0 -0.4149 1.55 0 1.55 0 0 0.4149c0.4705,0.2723 0.8628,0.6646 1.1351,1.1351l0.4149 0 0 1.55 0 1.55 -0.4149 0c-0.2723,0.4705 -0.6646,0.8628 -1.1351,1.1351l0 0.4149 -1.55 0 -1.55 0 0 -0.4149c-0.4705,-0.2723 -0.8628,-0.6646 -1.1351,-1.1351l-0.4149 0 0 -1.55 0 -1.55z"/>
  <path class="fil0 str0" d="M106.9 295.45l0.4149 0c0.2723,-0.4705 0.6646,-0.8628 1.1351,-1.1351l0 -0.4149 1.55 0 1.55 0 0 0.4149c0.4705,0.2723 0.8628,0.6646 1.1351,1.1351l0.4149 0 0 1.55 0 1.55 -0.4149 0c-0.2723,0.4705 -0.6646,0.8628 -1.1351,1.1351l0 0.4149 -1.55 0 -1.55 0 0 -0.4149c-0.4705,-0.2723 -0.8628,-0.6646 -1.1351,-1.1351l-0.4149 0 0 -1.55 0 -1.55z"/>
  <path class="fil0 str0" d="M106.9 275.45l0.4149 0c0.2723,-0.4705 0.6646,-0.8628 1.1351,-1.1351l0 -0.4149 1.55 0 1.55 0 0 0.4149c0.4705,0.2723 0.8628,0.6646 1.1351,1.1351l0.4149 0 0 1.55 0 1.55 -0.4149 0c-0.2723,0.4705 -0.6646,0.8628 -1.1351,1.1351l0 0.4149 -1.55 0 -1.55 0 0 -0.4149c-0.4705,-0.2723 -0.8628,-0.6646 -1.1351,-1.1351l-0.4149 0 0 -1.55 0 -1.55z"/>
  <path class="fil0 str0" d="M106.9 255.45l0.4149 0c0.2723,-0.4705 0.6646,-0.8628 1.1351,-1.1351l0 -0.4149 1.55 0 1.55 0 0 0.4149c0.4705,0.2723 0.8628,0.6646 1.1351,1.1351l0.4149 0 0 1.55 0 1.55 -0.4149 0c-0.2723,0.4705 -0.6646,0.8628 -1.1351,1.1351l0 0.4149 -1.55 0 -1.55 0 0 -0.4149c-0.4705,-0.2723 -0.8628,-0.6646 -1.1351,-1.1351l-0.4149 0 0 -1.55 0 -1.55z"/>
  <rect class="fil0 str1" x="108.4" y="323.9" width="3.2" height="6.2"/>
  <rect class="fil0 str1" x="108.4" y="303.9" width="3.2" height="6.2"/>
  <rect class="fil0 str1" x="108.4" y="283.9" width="3.2" height="6.2"/>
  <rect class="fil0 str1" x="108.4" y="263.9" width="3.2" height="6.2"/>
  <path class="fil0 str0" d="M126.9 335.45l0.4149 0c0.2723,-0.4705 0.6646,-0.8628 1.1351,-1.1351l0 -0.4149 1.55 0 1.55 0 0 0.4149c0.4705,0.2723 0.8628,0.6646 1.1351,1.1351l0.4149 0 0 1.55 0 1.55 -0.4149 0c-0.2723,0.4705 -0.6646,0.8628 -1.1351,1.1351l0 0.4149 -1.55 0 -1.55 0 0 -0.4149c-0.4705,-0.2723 -0.8628,-0.6646 -1.1351,-1.1351l-0.4149 0 0 -1.55 0 -1.55z"/>
  <path class="fil0 str0" d="M126.9 315.45l0.4149 0c0.2723,-0.4705 0.6646,-0.8628 1.1351,-1.1351l0 -0.4149 1.55 0 1.55 0 0 0.4149c0.4705,0.2723 0.8628,0.6646 1.1351,1.1351l0.4149 0 0 1.55 0 1.55 -0.4149 0c-0.2723,0.4705 -0.6646,0.8628 -1.1351,1.1351l0 0.4149 -1.55 0 -1.55 0 0 -0.4149c-0.4705,-0.2723 -0.8628,-0.6646 -1.1351,-1.1351l-0.4149 0 0 -1.55 0 -1.55z"/>
  <path class="fil0 str0" d="M126.9 295.45l0.4149 0c0.2723,-0.4705 0.6646,-0.8628 1.1351,-1.1351l0 -0.4149 1.55 0 1.55 0 0 0.4149c0.4705,0.2723 0.8628,0.6646 1.1351,1.1351l0.4149 0 0 1.55 0 1.55 -0.4149 0c-0.2723,0.4705 -0.6646,0.8628 -1.1351,1.1351l0 0.4149 -1.55 0 -1.55 0 0 -0.4149c-0.4705,-0.2723 -0.8628,-0.6646 -1.1351,-1.1351l-0.4149 0 0 -1.55 0 -1.55z"/>
  <path class="fil0 str0" d="M126.9 275.45l0.4149 0c0.2723,-0.4705 0.6646,-0.8628 1.1351,-1.1351l0 -0.4149 1.55 0 1.55 0 0 0.4149c0.4705,0.2723 0.8628,0.6646 1.1351,1.1351l0.4149 0 0 1.55 0 1.55 -0.4149 0c-0.2723,0.4705 -0.6646,0.8628 -1.1351,1.1351l0 0.4149 -1.55 0 -1.55 0 0 -0.4149c-0.4705,-0.2723 -0.8628,-0.6646 -1.1351,-1.1351l-0.4149 0 0 -1.55 0 -1.55z"/>
  <path class="fil0 str0" d="M126.9 255.45l0.4149 0c0.2723,-0.4705 0.6646,-0.8628 1.1351,-1.1351l0 -0.4149 1.55 0 1.55 0 0 0.4149c0.4705,0.2723 0.8628,0.6646 1.1351,1.1351l0.4149 0 0 1.55 0 1.55 -0.4149 0c-0.2723,0.4705 -0.6646,0.8628 -1.1351,1.1351l0 0.4149 -1.55 0 -1.55 0 0 -0.4149c-0.4705,-0.2723 -0.8628,-0.6646 -1.1351,-1.1351l-0.4149 0 0 -1.55 0 -1.55z"/>
  <rect class="fil0 str1" x="128.4" y="323.9" width="3.2" height="6.2"/>
  <rect class="fil0 str1" x="128.4" y="303.9" width="3.2" height="6.2"/>
  <rect class="fil0 str1" x="128.4" y="283.9" width="3.2" height="6.2"/>
  <rect class="fil0 str1" x="128.4" y="263.9" width="3.2" height="6.2"/>
  <path class="fil0 str0" d="M146.9 335.45l0.4149 0c0.2723,-0.4705 0.6646,-0.8628 1.1351,-1.1351l0 -0.4149 1.55 0 1.55 0 0 0.4149c0.4705,0.2723 0.8628,0.6646 1.1351,1.1351l0.4149 0 0 1.55 0 1.55 -0.4149 0c-0.2723,0.4705 -0.6646,0.8628 -1.1351,1.1351l0 0.4149 -1.55 0 -1.55 0 0 -0.4149c-0.4705,-0.2723 -0.8628,-0.6646 -1.1351,-1.1351l-0.4149 0 0 -1.55 0 -1.55z"/>
  <path class="fil0 str0" d="M146.9 315.45l0.4149 0c0.2723,-0.4705 0.6646,-0.8628 1.1351,-1.1351l0 -0.4149 1.55 0 1.55 0 0 0.4149c0.4705,0.2723 0.8628,0.6646 1.1351,1.1351l0.4149 0 0 1.55 0 1.55 -0.4149 0c-0.2723,0.4705 -0.6646,0.8628 -1.1351,1.1351l0 0.4149 -1.55 0 -1.55 0 0 -0.4149c-0.4705,-0.2723 -0.8628,-0.6646 -1.1351,-1.1351l-0.4149 0 0 -1.55 0 -1.55z"/>
  <path class="fil0 str0" d="M146.9 295.45l0.4149 0c0.2723,-0.4705 0.6646,-0.8628 1.1351,-1.1351l0 -0.4149 1.55 0 1.55 0 0 0.4149c0.4705,0.2723 0.8628,0.6646 1.1351,1.1351l0.4149 0 0 1.55 0 1.55 -0.4149 0c-0.2723,0.4705 -0.6646,0.8628 -1.1351,1.1351l0 0.4149 -1.55 0 -1.55 0 0 -0.4149c-0.4705,-0.2723 -0.8628,-0.6646 -1.1351,-1.1351l-0.4149 0 0 -1.55 0 -1.55z"/>
  <path class="fil0 str0" d="M146.9 275.45l0.4149 0c0.2723,-0.4705 0.6646,-0.8628 1.1351,-1.1351l0 -0.4149 1.55 0 1.55 0 0 0.4149c0.4705,0.2723 0.8628,0.6646 1.1351,1.1351l0.4149 0 0 1.55 0 1.55 -0.4149 0c-0.2723,0.4705 -0.6646,0.8628 -1.1351,1.1351l0 0.4149 -1.55 0 -1.55 0 0 -0.4149c-0.4705,-0.2723 -0.8628,-0.6646 -1.1351,-1.1351l-0.4149 0 0 -1.55 0 -1.55z"/>
  <path class="fil0 str0" d="M146.9 255.45l0.4149 0c0.2723,-0.4705 0.6646,-0.8628 1.1351,-1.1351l0 -0.4149 1.55 0 1.55 0 0 0.4149c0.4705,0.2723 0.8628,0.6646 1.1351,1.1351l0.4149 0 0 1.55 0 1.55 -0.4149 0c-0.2723,0.4705 -0.6646,0.8628 -1.1351,1.1351l0 0.4149 -1.55 0 -1.55 0 0 -0.4149c-0.4705,-0.2723 -0.8628,-0.6646 -1.1351,-1.1351l-0.4149 0 0 -1.55 0 -1.55z"/>
  <rect class="fil0 str1" x="148.4" y="323.9" width="3.2" height="6.2"/>
  <rect class="fil0 str1" x="148.4" y="303.9" width="3.2" height="6.2"/>
  <rect class="fil0 str1" x="148.4" y="283.9" width="3.2" height="6.2"/>
  <rect class="fil0 str1" x="148.4" y="263.9" width="3.2" height="6.2"/>
  <path class="fil0 str0" d="M166.9 335.45l0.4149 0c0.2723,-0.4705 0.6646,-0.8628 1.1351,-1.1351l0 -0.4149 1.55 0 1.55 0 0 0.4149c0.4705,0.2723 0.8628,0.6646 1.1351,1.1351l0.4149 0 0 1.55 0 1.55 -0.4149 0c-0.2723,0.4705 -0.6646,0.8628 -1.1351,1.1351l0 0.4149 -1.55 0 -1.55 0 0 -0.4149c-0.4705,-0.2723 -0.8628,-0.6646 -1.1351,-1.1351l-0.4149 0 0 -1.55 0 -1.55z"/>
  <path class="fil0 str0" d="M166.9 315.45l0.4149 0c0.2723,-0.4705 0.6646,-0.8628 1.1351,-1.1351l0 -0.4149 1.55 0 1.55 0 0 0.4149c0.4705,0.2723 0.8628,0.6646 1.1351,1.1351l0.4149 0 0 1.55 0 1.55 -0.4149 0c-0.2723,0.4705 -0.6646,0.8628 -1.1351,1.1351l0 0.4149 -1.55 0 -1.55 0 0 -0.4149c-0.4705,-0.2723 -0.8628,-0.6646 -1.1351,-1.1351l-0.4149 0 0 -1.55 0 -1.55z"/>
  <path class="fil0 str0" d="M166.9 295.45l0.4149 0c0.2723,-0.4705 0.6646,-0.8628 1.1351,-1.1351l0 -0.4149 1.55 0 1.55 0 0 0.4149c0.4705,0.2723 0.8628,0.6646 1.1351,1.1351l0.4149 0 0 1.55 0 1.55 -0.4149 0c-0.2723,0.4705 -0.6646,0.8628 -1.1351,1.1351l0 0.4149 -1.55 0 -1.55 0 0 -0.4149c-0.4705,-0.2723 -0.8628,-0.6646 -1.1351,-1.1351l-0.4149 0 0 -1.55 0 -1.55z"/>
  <path class="fil0 str0" d="M166.9 275.45l0.4149 0c0.2723,-0.4705 0.6646,-0.8628 1.1351,-1.1351l0 -0.4149 1.55 0 1.55 0 0 0.4149c0.4705,0.2723 0.8628,0.6646 1.1351,1.1351l0.4149 0 0 1.55 0 1.55 -0.4149 0c-0.2723,0.4705 -0.6646,0.8628 -1.1351,1.1351l0 0.4149 -1.55 0 -1.55 0 0 -0.4149c-0.4705,-0.2723 -0.8628,-0.6646 -1.1351,-1.1351l-0.4149 0 0 -1.55 0 -1.55z"/>
  <path class="fil0 str0" d="M166.9 255.45l0.4149 0c0.2723,-0.4705 0.6646,-0.8628 1.1351,-1.1351l0 -0.4149 1.55 0 1.55 0 0 0.4149c0.4705,0.2723 0.8628,0.6646 1.1351,1.1351l0.4149 0 0 1.55 0 1.55 -0.4149 0c-0.2723,0.4705 -0.6646,0.8628 -1.1351,1.1351l0 0.4149 -1.55 0 -1.55 0 0 -0.4149c-0.4705,-0.2723 -0.8628,-0.6646 -1.1351,-1.1351l-0.4149 0 0 -1.55 0 -1.55z"/>
  <rect class="fil0 str1" x="168.4" y="323.9" width="3.2" height="6.2"/>
  <rect class="fil0 str1" x="168.4" y="303.9" width="3.2" height="6.2"/>
  <rect class="fil0 str1" x="168.4" y="283.9" width="3.2" height="6.2"/>
  <rect class="fil0 str1" x="168.4" y="263.9" width="3.2" height="6.2"/>
  <path class="fil0 str0" d="M186.9 335.45l0.4149 0c0.2723,-0.4705 0.6646,-0.8628 1.1351,-1.1351l0 -0.4149 1.55 0 1.55 0 0 0.4149c0.4705,0.2723 0.8628,0.6646 1.1351,1.1351l0.4149 0 0 1.55 0 1.55 -0.4149 0c-0.2723,0.4705 -0.6646,0.8628 -1.1351,1.1351l0 0.4149 -1.55 0 -1.55 0 0 -0.4149c-0.4705,-0.2723 -0.8628,-0.6646 -1.1351,-1.1351l-0.4149 0 0 -1.55 0 -1.55z"/>
  <path class="fil0 str0" d="M186.9 315.45l0.4149 0c0.2723,-0.4705 0.6646,-0.8628 1.1351,-1.1351l0 -0.4149 1.55 0 1.55 0 0 0.4149c0.4705,0.2723 0.8628,0.6646 1.1351,1.1351l0.4149 0 0 1.55 0 1.55 -0.4149 0c-0.2723,0.4705 -0.6646,0.8628 -1.1351,1.1351l0 0.4149 -1.55 0 -1.55 0 0 -0.4149c-0.4705,-0.2723 -0.8628,-0.6646 -1.1351,-1.1351l-0.4149 0 0 -1.55 0 -1.55z"/>
  <path class="fil0 str0" d="M186.9 295.45l0.4149 0c0.2723,-0.4705 0.6646,-0.8628 1.1351,-1.1351l0 -0.4149 1.55 0 1.55 0 0 0.4149c0.4705,0.2723 0.8628,0.6646 1.1351,1.1351l0.4149 0 0 1.55 0 1.55 -0.4149 0c-0.2723,0.4705 -0.6646,0.8628 -1.1351,1.1351l0 0.4149 -1.55 0 -1.55 0 0 -0.4149c-0.4705,-0.2723 -0.8628,-0.6646 -1.1351,-1.1351l-0.4149 0 0 -1.55 0 -1.55z"/>
  <path class="fil0 str0" d="M186.9 275.45l0.4149 0c0.2723,-0.4705 0.6646,-0.8628 1.1351,-1.1351l0 -0.4149 1.55 0 1.55 0 0 0.4149c0.4705,0.2723 0.8628,0.6646 1.1351,1.1351l0.4149 0 0 1.55 0 1.55 -0.4149 0c-0.2723,0.4705 -0.6646,0.8628 -1.1351,1.1351l0 0.4149 -1.55 0 -1.55 0 0 -0.4149c-0.4705,-0.2723 -0.8628,-0.6646 -1.1351,-1.1351l-0.4149 0 0 -1.55 0 -1.55z"/>
  <path class="fil0 str0" d="M186.9 255.45l0.4149 0c0.2723,-0.4705 0.6646,-0.8628 1.1351,-1.1351l0 -0.4149 1.55 0 1.55 0 0 0.4149c0.4705,0.2723 0.8628,0.6646 1.1351,1.1351l0.4149 0 0 1.55 0 1.55 -0.4149 0c-0.2723,0.4705 -0.6646,0.8628 -1.1351,1.1351l0 0.4149 -1.55 0 -1.55 0 0 -0.4149c-0.4705,-0.2723 -0.8628,-0.6646 -1.1351,-1.1351l-0.4149 0 0 -1.55 0 -1.55z"/>
  <rect class="fil0 str1" x="188.4" y="323.9" width="3.2" height="6.2"/>
  <rect class="fil0 str1" x="188.4" y="303.9" width="3.2" height="6.2"/>
  <rect class="fil0 str1" x="188.4" y="283.9" width="3.2" height="6.2"/>
  <rect class="fil0 str1" x="188.4" y="263.9" width="3.2" height="6.2"/>
  <path class="fil0 str0" d="M206.9 335.45l0.4149 0c0.2723,-0.4705 0.6646,-0.8628 1.1351,-1.1351l0 -0.4149 1.55 0 1.55 0 0 0.4149c0.4705,0.2723 0.8628,0.6646 1.1351,1.1351l0.4149 0 0 1.55 0 1.55 -0.4149 0c-0.2723,0.4705 -0.6646,0.8628 -1.1351,1.1351l0 0.4149 -1.55 0 -1.55 0 0 -0.4149c-0.4705,-0.2723 -0.8628,-0.6646 -1.1351,-1.1351l-0.4149 0 0 -1.55 0 -1.55z"/>
  <path class="fil0 str0" d="M206.9 315.45l0.4149 0c0.2723,-0.4705 0.6646,-0.8628 1.1351,-1.1351l0 -0.4149 1.55 0 1.55 0 0 0.4149c0.4705,0.2723 0.8628,0.6646 1.1351,1.1351l0.4149 0 0 1.55 0 1.55 -0.4149 0c-0.2723,0.4705 -0.6646,0.8628 -1.1351,1.1351l0 0.4149 -1.55 0 -1.55 0 0 -0.4149c-0.4705,-0.2723 -0.8628,-0.6646 -1.1351,-1.1351l-0.4149 0 0 -1.55 0 -1.55z"/>
  <path class="fil0 str0" d="M206.9 295.45l0.4149 0c0.2723,-0.4705 0.6646,-0.8628 1.1351,-1.1351l0 -0.4149 1.55 0 1.55 0 0 0.4149c0.4705,0.2723 0.8628,0.6646 1.1351,1.1351l0.4149 0 0 1.55 0 1.55 -0.4149 0c-0.2723,0.4705 -0.6646,0.8628 -1.1351,1.1351l0 0.4149 -1.55 0 -1.55 0 0 -0.4149c-0.4705,-0.2723 -0.8628,-0.6646 -1.1351,-1.1351l-0.4149 0 0 -1.55 0 -1.55z"/>
  <path class="fil0 str0" d="M206.9 275.45l0.4149 0c0.2723,-0.4705 0.6646,-0.8628 1.1351,-1.1351l0 -0.4149 1.55 0 1.55 0 0 0.4149c0.4705,0.2723 0.8628,0.6646 1.1351,1.1351l0.4149 0 0 1.55 0 1.55 -0.4149 0c-0.2723,0.4705 -0.6646,0.8628 -1.1351,1.1351l0 0.4149 -1.55 0 -1.55 0 0 -0.4149c-0.4705,-0.2723 -0.8628,-0.6646 -1.1351,-1.1351l-0.4149 0 0 -1.55 0 -1.55z"/>
  <path class="fil0 str0" d="M206.9 255.45l0.4149 0c0.2723,-0.4705 0.6646,-0.8628 1.1351,-1.1351l0 -0.4149 1.55 0 1.55 0 0 0.4149c0.4705,0.2723 0.8628,0.6646 1.1351,1.1351l0.4149 0 0 1.55 0 1.55 -0.4149 0c-0.2723,0.4705 -0.6646,0.8628 -1.1351,1.1351l0 0.4149 -1.55 0 -1.55 0 0 -0.4149c-0.4705,-0.2723 -0.8628,-0.6646 -1.1351,-1.1351l-0.4149 0 0 -1.55 0 -1.55z"/>
  <rect class="fil0 str1" x="208.4" y="323.9" width="3.2" height="6.2"/>
  <rect class="fil0 str1" x="208.4" y="303.9" width="3.2" height="6.2"/>
  <rect class="fil0 str1" x="208.4" y="283.9" width="3.2" height="6.2"/>
  <rect class="fil0 str1" x="208.4" y="263.9" width="3.2" height="6.2"/>
  <path class="fil0 str0" d="M226.9 335.45l0.4149 0c0.2723,-0.4705 0.6646,-0.8628 1.1351,-1.1351l0 -0.4149 1.55 0 1.55 0 0 0.4149c0.4705,0.2723 0.8628,0.6646 1.1351,1.1351l0.4149 0 0 1.55 0 1.55 -0.4149 0c-0.2723,0.4705 -0.6646,0.8628 -1.1351,1.1351l0 0.4149 -1.55 0 -1.55 0 0 -0.4149c-0.4705,-0.2723 -0.8628,-0.6646 -1.1351,-1.1351l-0.4149 0 0 -1.55 0 -1.55z"/>
  <path class="fil0 str0" d="M226.9 315.45l0.4149 0c0.2723,-0.4705 0.6646,-0.8628 1.1351,-1.1351l0 -0.4149 1.55 0 1.55 0 0 0.4149c0.4705,0.2723 0.8628,0.6646 1.1351,1.1351l0.4149 0 0 1.55 0 1.55 -0.4149 0c-0.2723,0.4705 -0.6646,0.8628 -1.1351,1.1351l0 0.4149 -1.55 0 -1.55 0 0 -0.4149c-0.4705,-0.2723 -0.8628,-0.6646 -1.1351,-1.1351l-0.4149 0 0 -1.55 0 -1.55z"/>
  <path class="fil0 str0" d="M226.9 295.45l0.4149 0c0.2723,-0.4705 0.6646,-0.8628 1.1351,-1.1351l0 -0.4149 1.55 0 1.55 0 0 0.4149c0.4705,0.2723 0.8628,0.6646 1.1351,1.1351l0.4149 0 0 1.55 0 1.55 -0.4149 0c-0.2723,0.4705 -0.6646,0.8628 -1.1351,1.1351l0 0.4149 -1.55 0 -1.55 0 0 -0.4149c-0.4705,-0.2723 -0.8628,-0.6646 -1.1351,-1.1351l-0.4149 0 0 -1.55 0 -1.55z"/>
  <path class="fil0 str0" d="M226.9 275.45l0.4149 0c0.2723,-0.4705 0.6646,-0.8628 1.1351,-1.1351l0 -0.4149 1.55 0 1.55 0 0 0.4149c0.4705,0.2723 0.8628,0.6646 1.1351,1.1351l0.4149 0 0 1.55 0 1.55 -0.4149 0c-0.2723,0.4705 -0.6646,0.8628 -1.1351,1.1351l0 0.4149 -1.55 0 -1.55 0 0 -0.4149c-0.4705,-0.2723 -0.8628,-0.6646 -1.1351,-1.1351l-0.4149 0 0 -1.55 0 -1.55z"/>
  <path class="fil0 str0" d="M226.9 255.45l0.4149 0c0.2723,-0.4705 0.6646,-0.8628 1.1351,-1.1351l0 -0.4149 1.55 0 1.55 0 0 0.4149c0.4705,0.2723 0.8628,0.6646 1.1351,1.1351l0.4149 0 0 1.55 0 1.55 -0.4149 0c-0.2723,0.4705 -0.6646,0.8628 -1.1351,1.1351l0 0.4149 -1.55 0 -1.55 0 0 -0.4149c-0.4705,-0.2723 -0.8628,-0.6646 -1.1351,-1.1351l-0.4149 0 0 -1.55 0 -1.55z"/>
  <rect class="fil0 str1" x="228.4" y="323.9" width="3.2" height="6.2"/>
  <rect class="fil0 str1" x="228.4" y="303.9" width="3.2" height="6.2"/>
  <rect class="fil0 str1" x="228.4" y="283.9" width="3.2" height="6.2"/>
  <rect class="fil0 str1" x="228.4" y="263.9" width="3.2" height="6.2"/>
  <path class="fil0 str0" d="M246.9 335.45l0.4149 0c0.2723,-0.4705 0.6646,-0.8628 1.1351,-1.1351l0 -0.4149 1.55 0 1.55 0 0 0.4149c0.4705,0.2723 0.8628,0.6646 1.1351,1.1351l0.4149 0 0 1.55 0 1.55 -0.4149 0c-0.2723,0.4705 -0.6646,0.8628 -1.1351,1.1351l0 0.4149 -1.55 0 -1.55 0 0 -0.4149c-0.4705,-0.2723 -0.8628,-0.6646 -1.1351,-1.1351l-0.4149 0 0 -1.55 0 -1.55z"/>
  <path class="fil0 str0" d="M246.9 315.45l0.4149 0c0.2723,-0.4705 0.6646,-0.8628 1.1351,-1.1351l0 -0.4149 1.55 0 1.55 0 0 0.4149c0.4705,0.2723 0.8628,0.6646 1.1351,1.1351l0.4149 0 0 1.55 0 1.55 -0.4149 0c-0.2723,0.4705 -0.6646,0.8628 -1.1351,1.1351l0 0.4149 -1.55 0 -1.55 0 0 -0.4149c-0.4705,-0.2723 -0.8628,-0.6646 -1.1351,-1.1351l-0.4149 0 0 -1.55 0 -1.55z"/>
  <path class="fil0 str0" d="M246.9 295.45l0.4149 0c0.2723,-0.4705 0.6646,-0.8628 1.1351,-1.1351l0 -0.4149 1.55 0 1.55 0 0 0.4149c0.4705,0.2723 0.8628,0.6646 1.1351,1.1351l0.4149 0 0 1.55 0 1.55 -0.4149 0c-0.2723,0.4705 -0.6646,0.8628 -1.1351,1.1351l0 0.4149 -1.55 0 -1.55 0 0 -0.4149c-0.4705,-0.2723 -0.8628,-0.6646 -1.1351,-1.1351l-0.4149 0 0 -1.55 0 -1.55z"/>
  <path class="fil0 str0" d="M246.9 275.45l0.4149 0c0.2723,-0.4705 0.6646,-0.8628 1.1351,-1.1351l0 -0.4149 1.55 0 1.55 0 0 0.4149c0.4705,0.2723 0.8628,0.6646 1.1351,1.1351l0.4149 0 0 1.55 0 1.55 -0.4149 0c-0.2723,0.4705 -0.6646,0.8628 -1.1351,1.1351l0 0.4149 -1.55 0 -1.55 0 0 -0.4149c-0.4705,-0.2723 -0.8628,-0.6646 -1.1351,-1.1351l-0.4149 0 0 -1.55 0 -1.55z"/>
  <path class="fil0 str0" d="M246.9 255.45l0.4149 0c0.2723,-0.4705 0.6646,-0.8628 1.1351,-1.1351l0 -0.4149 1.55 0 1.55 0 0 0.4149c0.4705,0.2723 0.8628,0.6646 1.1351,1.1351l0.4149 0 0 1.55 0 1.55 -0.4149 0c-0.2723,0.4705 -0.6646,0.8628 -1.1351,1.1351l0 0.4149 -1.55 0 -1.55 0 0 -0.4149c-0.4705,-0.2723 -0.8628,-0.6646 -1.1351,-1.1351l-0.4149 0 0 -1.55 0 -1.55z"/>
  <rect class="fil0 str1" x="248.4" y="323.9" width="3.2" height="6.2"/>
  <rect class="fil0 str1" x="248.4" y="303.9" width="3.2" height="6.2"/>
  <rect class="fil0 str1" x="248.4" y="283.9" width="3.2" height="6.2"/>
  <rect class="fil0 str1" x="248.4" y="263.9" width="3.2" height="6.2"/>
  <path class="fil0 str0" d="M266.9 335.45l0.4149 0c0.2723,-0.4705 0.6646,-0.8628 1.1351,-1.1351l0 -0.4149 1.55 0 1.55 0 0 0.4149c0.4705,0.2723 0.8628,0.6646 1.1351,1.1351l0.4149 0 0 1.55 0 1.55 -0.4149 0c-0.2723,0.4705 -0.6646,0.8628 -1.1351,1.1351l0 0.4149 -1.55 0 -1.55 0 0 -0.4149c-0.4705,-0.2723 -0.8628,-0.6646 -1.1351,-1.1351l-0.4149 0 0 -1.55 0 -1.55z"/>
  <path class="fil0 str0" d="M266.9 315.45l0.4149 0c0.2723,-0.4705 0.6646,-0.8628 1.1351,-1.1351l0 -0.4149 1.55 0 1.55 0 0 0.4149c0.4705,0.2723 0.8628,0.6646 1.1351,1.1351l0.4149 0 0 1.55 0 1.55 -0.4149 0c-0.2723,0.4705 -0.6646,0.8628 -1.1351,1.1351l0 0.4149 -1.55 0 -1.55 0 0 -0.4149c-0.4705,-0.2723 -0.8628,-0.6646 -1.1351,-1.1351l-0.4149 0 0 -1.55 0 -1.55z"/>
  <path class="fil0 str0" d="M266.9 295.45l0.4149 0c0.2723,-0.4705 0.6646,-0.8628 1.1351,-1.1351l0 -0.4149 1.55 0 1.55 0 0 0.4149c0.4705,0.2723 0.8628,0.6646 1.1351,1.1351l0.4149 0 0 1.55 0 1.55 -0.4149 0c-0.2723,0.4705 -0.6646,0.8628 -1.1351,1.1351l0 0.4149 -1.55 0 -1.55 0 0 -0.4149c-0.4705,-0.2723 -0.8628,-0.6646 -1.1351,-1.1351l-0.4149 0 0 -1.55 0 -1.55z"/>
  <path class="fil0 str0" d="M266.9 275.45l0.4149 0c0.2723,-0.4705 0.6646,-0.8628 1.1351,-1.1351l0 -0.4149 1.55 0 1.55 0 0 0.4149c0.4705,0.2723 0.8628,0.6646 1.1351,1.1351l0.4149 0 0 1.55 0 1.55 -0.4149 0c-0.2723,0.4705 -0.6646,0.8628 -1.1351,1.1351l0 0.4149 -1.55 0 -1.55 0 0 -0.4149c-0.4705,-0.2723 -0.8628,-0.6646 -1.1351,-1.1351l-0.4149 0 0 -1.55 0 -1.55z"/>
  <path class="fil0 str0" d="M266.9 255.45l0.4149 0c0.2723,-0.4705 0.6646,-0.8628 1.1351,-1.1351l0 -0.4149 1.55 0 1.55 0 0 0.4149c0.4705,0.2723 0.8628,0.6646 1.1351,1.1351l0.4149 0 0 1.55 0 1.55 -0.4149 0c-0.2723,0.4705 -0.6646,0.8628 -1.1351,1.1351l0 0.4149 -1.55 0 -1.55 0 0 -0.4149c-0.4705,-0.2723 -0.8628,-0.6646 -1.1351,-1.1351l-0.4149 0 0 -1.55 0 -1.55z"/>
  <rect class="fil0 str1" x="268.4" y="323.9" width="3.2" height="6.2"/>
  <rect class="fil0 str1" x="268.4" y="303.9" width="3.2" height="6.2"/>
  <rect class="fil0 str1" x="268.4" y="283.9" width="3.2" height="6.2"/>
  <rect class="fil0 str1" x="268.4" y="263.9" width="3.2" height="6.2"/>
  <path class="fil0 str0" d="M286.9 335.45l0.4149 0c0.2723,-0.4705 0.6646,-0.8628 1.1351,-1.1351l0 -0.4149 1.55 0 1.55 0 0 0.4149c0.4705,0.2723 0.8628,0.6646 1.1351,1.1351l0.4149 0 0 1.55 0 1.55 -0.4149 0c-0.2723,0.4705 -0.6646,0.8628 -1.1351,1.1351l0 0.4149 -1.55 0 -1.55 0 0 -0.4149c-0.4705,-0.2723 -0.8628,-0.6646 -1.1351,-1.1351l-0.4149 0 0 -1.55 0 -1.55z"/>
  <path class="fil0 str0" d="M286.9 315.45l0.4149 0c0.2723,-0.4705 0.6646,-0.8628 1.1351,-1.1351l0 -0.4149 1.55 0 1.55 0 0 0.4149c0.4705,0.2723 0.8628,0.6646 1.1351,1.1351l0.4149 0 0 1.55 0 1.55 -0.4149 0c-0.2723,0.4705 -0.6646,0.8628 -1.1351,1.1351l0 0.4149 -1.55 0 -1.55 0 0 -0.4149c-0.4705,-0.2723 -0.8628,-0.6646 -1.1351,-1.1351l-0.4149 0 0 -1.55 0 -1.55z"/>
  <path class="fil0 str0" d="M286.9 295.45l0.4149 0c0.2723,-0.4705 0.6646,-0.8628 1.1351,-1.1351l0 -0.4149 1.55 0 1.55 0 0 0.4149c0.4705,0.2723 0.8628,0.6646 1.1351,1.1351l0.4149 0 0 1.55 0 1.55 -0.4149 0c-0.2723,0.4705 -0.6646,0.8628 -1.1351,1.1351l0 0.4149 -1.55 0 -1.55 0 0 -0.4149c-0.4705,-0.2723 -0.8628,-0.6646 -1.1351,-1.1351l-0.4149 0 0 -1.55 0 -1.55z"/>
  <path class="fil0 str0" d="M286.9 275.45l0.4149 0c0.2723,-0.4705 0.6646,-0.8628 1.1351,-1.1351l0 -0.4149 1.55 0 1.55 0 0 0.4149c0.4705,0.2723 0.8628,0.6646 1.1351,1.1351l0.4149 0 0 1.55 0 1.55 -0.4149 0c-0.2723,0.4705 -0.6646,0.8628 -1.1351,1.1351l0 0.4149 -1.55 0 -1.55 0 0 -0.4149c-0.4705,-0.2723 -0.8628,-0.6646 -1.1351,-1.1351l-0.4149 0 0 -1.55 0 -1.55z"/>
  <path class="fil0 str0" d="M286.9 255.45l0.4149 0c0.2723,-0.4705 0.6646,-0.8628 1.1351,-1.1351l0 -0.4149 1.55 0 1.55 0 0 0.4149c0.4705,0.2723 0.8628,0.6646 1.1351,1.1351l0.4149 0 0 1.55 0 1.55 -0.4149 0c-0.2723,0.4705 -0.6646,0.8628 -1.1351,1.1351l0 0.4149 -1.55 0 -1.55 0 0 -0.4149c-0.4705,-0.2723 -0.8628,-0.6646 -1.1351,-1.1351l-0.4149 0 0 -1.55 0 -1.55z"/>
  <rect class="fil0 str1" x="288.4" y="323.9" width="3.2" height="6.2"/>
  <rect class="fil0 str1" x="288.4" y="303.9" width="3.2" height="6.2"/>
  <rect class="fil0 str1" x="288.4" y="283.9" width="3.2" height="6.2"/>
  <rect class="fil0 str1" x="288.4" y="263.9" width="3.2" height="6.2"/>
  <rect class="fil0 str1" x="-283.1" y="335.4" width="6.2" height="3.2"/>
  <rect class="fil0 str1" x="-263.1" y="335.4" width="6.2" height="3.2"/>
  <rect class="fil0 str1" x="-243.1" y="335.4" width="6.2" height="3.2"/>
  <rect class="fil0 str1" x="-223.1" y="335.4" width="6.2" height="3.2"/>
  <rect class="fil0 str1" x="-203.1" y="335.4" width="6.2" height="3.2"/>
  <rect class="fil0 str1" x="-183.1" y="335.4" width="6.2" height="3.2"/>
  <rect class="fil0 str1" x="-163.1" y="335.4" width="6.2" height="3.2"/>
  <rect class="fil0 str1" x="-143.1" y="335.4" width="6.2" height="3.2"/>
  <rect class="fil0 str1" x="-123.1" y="335.4" width="6.2" height="3.2"/>
  <rect class="fil0 str1" x="-103.1" y="335.4" width="6.2" height="3.2"/>
  <rect class="fil0 str1" x="-83.1" y="335.4" width="6.2" height="3.2"/>
  <rect class="fil0 str1" x="-63.1" y="335.4" width="6.2" height="3.2"/>
  <rect class="fil0 str1" x="-43.1" y="335.4" width="6.2" height="3.2"/>
  <rect class="fil0 str1" x="-23.1" y="335.4" width="6.2" height="3.2"/>
  <rect class="fil0 str1" x="-3.1" y="335.4" width="6.2" height="3.2"/>
  <rect class="fil0 str1" x="16.9" y="335.4" width="6.2" height="3.2"/>
  <rect class="fil0 str1" x="36.9" y="335.4" width="6.2" height="3.2"/>
  <rect class="fil0 str1" x="56.9" y="335.4" width="6.2" height="3.2"/>
  <rect class="fil0 str1" x="76.9" y="335.4" width="6.2" height="3.2"/>
  <rect class="fil0 str1" x="96.9" y="335.4" width="6.2" height="3.2"/>
  <rect class="fil0 str1" x="116.9" y="335.4" width="6.2" height="3.2"/>
  <rect class="fil0 str1" x="136.9" y="335.4" width="6.2" height="3.2"/>
  <rect class="fil0 str1" x="156.9" y="335.4" width="6.2" height="3.2"/>
  <rect class="fil0 str1" x="176.9" y="335.4" width="6.2" height="3.2"/>
  <rect class="fil0 str1" x="196.9" y="335.4" width="6.2" height="3.2"/>
  <rect class="fil0 str1" x="216.9" y="335.4" width="6.2" height="3.2"/>
  <rect class="fil0 str1" x="236.9" y="335.4" width="6.2" height="3.2"/>
  <rect class="fil0 str1" x="256.9" y="335.4" width="6.2" height="3.2"/>
  <rect class="fil0 str1" x="276.9" y="335.4" width="6.2" height="3.2"/>
  <rect class="fil0 str1" x="-283.1" y="315.4" width="6.2" height="3.2"/>
  <rect class="fil0 str1" x="-263.1" y="315.4" width="6.2" height="3.2"/>
  <rect class="fil0 str1" x="-243.1" y="315.4" width="6.2" height="3.2"/>
  <rect class="fil0 str1" x="-223.1" y="315.4" width="6.2" height="3.2"/>
  <rect class="fil0 str1" x="-203.1" y="315.4" width="6.2" height="3.2"/>
  <rect class="fil0 str1" x="-183.1" y="315.4" width="6.2" height="3.2"/>
  <rect class="fil0 str1" x="-163.1" y="315.4" width="6.2" height="3.2"/>
  <rect class="fil0 str1" x="-143.1" y="315.4" width="6.2" height="3.2"/>
  <rect class="fil0 str1" x="-123.1" y="315.4" width="6.2" height="3.2"/>
  <rect class="fil0 str1" x="-103.1" y="315.4" width="6.2" height="3.2"/>
  <rect class="fil0 str1" x="-83.1" y="315.4" width="6.2" height="3.2"/>
  <rect class="fil0 str1" x="-63.1" y="315.4" width="6.2" height="3.2"/>
  <rect class="fil0 str1" x="-43.1" y="315.4" width="6.2" height="3.2"/>
  <rect class="fil0 str1" x="-23.1" y="315.4" width="6.2" height="3.2"/>
  <rect class="fil0 str1" x="-3.1" y="315.4" width="6.2" height="3.2"/>
  <rect class="fil0 str1" x="16.9" y="315.4" width="6.2" height="3.2"/>
  <rect class="fil0 str1" x="36.9" y="315.4" width="6.2" height="3.2"/>
  <rect class="fil0 str1" x="56.9" y="315.4" width="6.2" height="3.2"/>
  <rect class="fil0 str1" x="76.9" y="315.4" width="6.2" height="3.2"/>
  <rect class="fil0 str1" x="96.9" y="315.4" width="6.2" height="3.2"/>
  <rect class="fil0 str1" x="116.9" y="315.4" width="6.2" height="3.2"/>
  <rect class="fil0 str1" x="136.9" y="315.4" width="6.2" height="3.2"/>
  <rect class="fil0 str1" x="156.9" y="315.4" width="6.2" height="3.2"/>
  <rect class="fil0 str1" x="176.9" y="315.4" width="6.2" height="3.2"/>
  <rect class="fil0 str1" x="196.9" y="315.4" width="6.2" height="3.2"/>
  <rect class="fil0 str1" x="216.9" y="315.4" width="6.2" height="3.2"/>
  <rect class="fil0 str1" x="236.9" y="315.4" width="6.2" height="3.2"/>
  <rect class="fil0 str1" x="256.9" y="315.4" width="6.2" height="3.2"/>
  <rect class="fil0 str1" x="276.9" y="315.4" width="6.2" height="3.2"/>
  <rect class="fil0 str1" x="-283.1" y="295.4" width="6.2" height="3.2"/>
  <rect class="fil0 str1" x="-263.1" y="295.4" width="6.2" height="3.2"/>
  <rect class="fil0 str1" x="-243.1" y="295.4" width="6.2" height="3.2"/>
  <rect class="fil0 str1" x="-223.1" y="295.4" width="6.2" height="3.2"/>
  <rect class="fil0 str1" x="-203.1" y="295.4" width="6.2" height="3.2"/>
  <rect class="fil0 str1" x="-183.1" y="295.4" width="6.2" height="3.2"/>
  <rect class="fil0 str1" x="-163.1" y="295.4" width="6.2" height="3.2"/>
  <rect class="fil0 str1" x="-143.1" y="295.4" width="6.2" height="3.2"/>
  <rect class="fil0 str1" x="-123.1" y="295.4" width="6.2" height="3.2"/>
  <rect class="fil0 str1" x="-103.1" y="295.4" width="6.2" height="3.2"/>
  <rect class="fil0 str1" x="-83.1" y="295.4" width="6.2" height="3.2"/>
  <rect class="fil0 str1" x="-63.1" y="295.4" width="6.2" height="3.2"/>
  <rect class="fil0 str1" x="-43.1" y="295.4" width="6.2" height="3.2"/>
  <rect class="fil0 str1" x="-23.1" y="295.4" width="6.2" height="3.2"/>
  <rect class="fil0 str1" x="-3.1" y="295.4" width="6.2" height="3.2"/>
  <rect class="fil0 str1" x="16.9" y="295.4" width="6.2" height="3.2"/>
  <rect class="fil0 str1" x="36.9" y="295.4" width="6.2" height="3.2"/>
  <rect class="fil0 str1" x="56.9" y="295.4" width="6.2" height="3.2"/>
  <rect class="fil0 str1" x="76.9" y="295.4" width="6.2" height="3.2"/>
  <rect class="fil0 str1" x="96.9" y="295.4" width="6.2" height="3.2"/>
  <rect class="fil0 str1" x="116.9" y="295.4" width="6.2" height="3.2"/>
  <rect class="fil0 str1" x="136.9" y="295.4" width="6.2" height="3.2"/>
  <rect class="fil0 str1" x="156.9" y="295.4" width="6.2" height="3.2"/>
  <rect class="fil0 str1" x="176.9" y="295.4" width="6.2" height="3.2"/>
  <rect class="fil0 str1" x="196.9" y="295.4" width="6.2" height="3.2"/>
  <rect class="fil0 str1" x="216.9" y="295.4" width="6.2" height="3.2"/>
  <rect class="fil0 str1" x="236.9" y="295.4" width="6.2" height="3.2"/>
  <rect class="fil0 str1" x="256.9" y="295.4" width="6.2" height="3.2"/>
  <rect class="fil0 str1" x="276.9" y="295.4" width="6.2" height="3.2"/>
  <rect class="fil0 str1" x="-283.1" y="275.4" width="6.2" height="3.2"/>
  <rect class="fil0 str1" x="-263.1" y="275.4" width="6.2" height="3.2"/>
  <rect class="fil0 str1" x="-243.1" y="275.4" width="6.2" height="3.2"/>
  <rect class="fil0 str1" x="-223.1" y="275.4" width="6.2" height="3.2"/>
  <rect class="fil0 str1" x="-203.1" y="275.4" width="6.2" height="3.2"/>
  <rect class="fil0 str1" x="-183.1" y="275.4" width="6.2" height="3.2"/>
  <rect class="fil0 str1" x="-163.1" y="275.4" width="6.2" height="3.2"/>
  <rect class="fil0 str1" x="-143.1" y="275.4" width="6.2" height="3.2"/>
  <rect class="fil0 str1" x="-123.1" y="275.4" width="6.2" height="3.2"/>
  <rect class="fil0 str1" x="-103.1" y="275.4" width="6.2" height="3.2"/>
  <rect class="fil0 str1" x="-83.1" y="275.4" width="6.2" height="3.2"/>
  <rect class="fil0 str1" x="-63.1" y="275.4" width="6.2" height="3.2"/>
  <rect class="fil0 str1" x="-43.1" y="275.4" width="6.2" height="3.2"/>
  <rect class="fil0 str1" x="-23.1" y="275.4" width="6.2" height="3.2"/>
  <rect class="fil0 str1" x="-3.1" y="275.4" width="6.2" height="3.2"/>
  <rect class="fil0 str1" x="16.9" y="275.4" width="6.2" height="3.2"/>
  <rect class="fil0 str1" x="36.9" y="275.4" width="6.2" height="3.2"/>
  <rect class="fil0 str1" x="56.9" y="275.4" width="6.2" height="3.2"/>
  <rect class="fil0 str1" x="76.9" y="275.4" width="6.2" height="3.2"/>
  <rect class="fil0 str1" x="96.9" y="275.4" width="6.2" height="3.2"/>
  <rect class="fil0 str1" x="116.9" y="275.4" width="6.2" height="3.2"/>
  <rect class="fil0 str1" x="136.9" y="275.4" width="6.2" height="3.2"/>
  <rect class="fil0 str1" x="156.9" y="275.4" width="6.2" height="3.2"/>
  <rect class="fil0 str1" x="176.9" y="275.4" width="6.2" height="3.2"/>
  <rect class="fil0 str1" x="196.9" y="275.4" width="6.2" height="3.2"/>
  <rect class="fil0 str1" x="216.9" y="275.4" width="6.2" height="3.2"/>
  <rect class="fil0 str1" x="236.9" y="275.4" width="6.2" height="3.2"/>
  <rect class="fil0 str1" x="256.9" y="275.4" width="6.2" height="3.2"/>
  <rect class="fil0 str1" x="276.9" y="275.4" width="6.2" height="3.2"/>
  <rect class="fil0 str1" x="-283.1" y="255.4" width="6.2" height="3.2"/>
  <rect class="fil0 str1" x="-263.1" y="255.4" width="6.2" height="3.2"/>
  <rect class="fil0 str1" x="-243.1" y="255.4" width="6.2" height="3.2"/>
  <rect class="fil0 str1" x="-223.1" y="255.4" width="6.2" height="3.2"/>
  <rect class="fil0 str1" x="-203.1" y="255.4" width="6.2" height="3.2"/>
  <rect class="fil0 str1" x="-183.1" y="255.4" width="6.2" height="3.2"/>
  <rect class="fil0 str1" x="-163.1" y="255.4" width="6.2" height="3.2"/>
  <rect class="fil0 str1" x="-143.1" y="255.4" width="6.2" height="3.2"/>
  <rect class="fil0 str1" x="-123.1" y="255.4" width="6.2" height="3.2"/>
  <rect class="fil0 str1" x="-103.1" y="255.4" width="6.2" height="3.2"/>
  <rect class="fil0 str1" x="-83.1" y="255.4" width="6.2" height="3.2"/>
  <rect class="fil0 str1" x="-63.1" y="255.4" width="6.2" height="3.2"/>
  <rect class="fil0 str1" x="-43.1" y="255.4" width="6.2" height="3.2"/>
  <rect class="fil0 str1" x="-23.1" y="255.4" width="6.2" height="3.2"/>
  <rect class="fil0 str1" x="-3.1" y="255.4" width="6.2" height="3.2"/>
  <rect class="fil0 str1" x="16.9" y="255.4" width="6.2" height="3.2"/>
  <rect class="fil0 str1" x="36.9" y="255.4" width="6.2" height="3.2"/>
  <rect class="fil0 str1" x="56.9" y="255.4" width="6.2" height="3.2"/>
  <rect class="fil0 str1" x="76.9" y="255.4" width="6.2" height="3.2"/>
  <rect class="fil0 str1" x="96.9" y="255.4" width="6.2" height="3.2"/>
  <rect class="fil0 str1" x="116.9" y="255.4" width="6.2" height="3.2"/>
  <rect class="fil0 str1" x="136.9" y="255.4" width="6.2" height="3.2"/>
  <rect class="fil0 str1" x="156.9" y="255.4" width="6.2" height="3.2"/>
  <rect class="fil0 str1" x="176.9" y="255.4" width="6.2" height="3.2"/>
  <rect class="fil0 str1" x="196.9" y="255.4" width="6.2" height="3.2"/>
  <rect class="fil0 str1" x="216.9" y="255.4" width="6.2" height="3.2"/>
  <rect class="fil0 str1" x="236.9" y="255.4" width="6.2" height="3.2"/>
  <rect class="fil0 str1" x="256.9" y="255.4" width="6.2" height="3.2"/>
  <rect class="fil0 str1" x="276.9" y="255.4" width="6.2" height="3.2"/>
  <path class="fil0 str2" d="M-296.5 338.5l0 -83c0,-2.7609 2.2391,-5 5,-5l583 0c2.7609,0 5,2.2391 5,5l0 83c0,2.7609 -2.2391,5 -5,5l-583 0c-2.7609,0 -5,-2.2391 -5,-5z"/>
 </g>
</svg>
