  0
SECTION
  2
BLOCKS
  0
ENDSEC
  0
SECTION
  2
ENTITIES
  0
LINE
  8
0
 10
91
 20
9.00986
 11
91.3139
 21
9.00986
  0
LINE
  8
0
 10
91.3139
 20
9.00986
 11
91.9369
 21
9.08856
  0
LINE
  8
0
 10
91.9369
 20
9.08856
 11
92.5451
 21
9.24471
  0
LINE
  8
0
 10
92.5451
 20
9.24471
 11
93.1289
 21
9.47586
  0
LINE
  8
0
 10
93.1289
 20
9.47586
 11
93.6791
 21
9.77835
  0
LINE
  8
0
 10
93.6791
 20
9.77835
 11
94.1871
 21
10.1474
  0
LINE
  8
0
 10
94.1871
 20
10.1474
 11
94.6448
 21
10.5773
  0
LINE
  8
0
 10
94.6448
 20
10.5773
 11
95.0451
 21
11.0611
  0
LINE
  8
0
 10
95.0451
 20
11.0611
 11
95.3815
 21
11.5912
  0
LINE
  8
0
 10
95.3815
 20
11.5912
 11
95.6489
 21
12.1594
  0
LINE
  8
0
 10
95.6489
 20
12.1594
 11
95.8429
 21
12.7565
  0
LINE
  8
0
 10
95.8429
 20
12.7565
 11
95.9606
 21
13.3733
  0
LINE
  8
0
 10
95.9606
 20
13.3733
 11
96
 21
14
  0
LINE
  8
0
 10
96
 20
14
 11
96
 21
46
  0
LINE
  8
0
 10
96
 20
46
 11
95.9606
 21
46.6267
  0
LINE
  8
0
 10
95.9606
 20
46.6267
 11
95.8429
 21
47.2434
  0
LINE
  8
0
 10
95.8429
 20
47.2434
 11
95.6489
 21
47.8406
  0
LINE
  8
0
 10
95.6489
 20
47.8406
 11
95.3815
 21
48.4088
  0
LINE
  8
0
 10
95.3815
 20
48.4088
 11
95.0451
 21
48.9389
  0
LINE
  8
0
 10
95.0451
 20
48.9389
 11
94.6448
 21
49.4227
  0
LINE
  8
0
 10
94.6448
 20
49.4227
 11
94.1871
 21
49.8526
  0
LINE
  8
0
 10
94.1871
 20
49.8526
 11
93.6791
 21
50.2216
  0
LINE
  8
0
 10
93.6791
 20
50.2216
 11
93.1289
 21
50.5241
  0
LINE
  8
0
 10
93.1289
 20
50.5241
 11
92.5451
 21
50.7553
  0
LINE
  8
0
 10
92.5451
 20
50.7553
 11
91.9369
 21
50.9114
  0
LINE
  8
0
 10
91.9369
 20
50.9114
 11
91.3139
 21
50.9901
  0
LINE
  8
0
 10
91.3139
 20
50.9901
 11
91
 21
50.9901
  0
LINE
  8
0
 10
91
 20
50.9901
 11
91
 21
51
  0
LINE
  8
0
 10
91
 20
51
 11
14
 21
51
  0
LINE
  8
0
 10
14
 20
51
 11
14
 21
50.9901
  0
LINE
  8
0
 10
14
 20
50.9901
 11
13.686
 21
50.9901
  0
LINE
  8
0
 10
13.686
 20
50.9901
 11
13.0631
 21
50.9114
  0
LINE
  8
0
 10
13.0631
 20
50.9114
 11
12.4549
 21
50.7553
  0
LINE
  8
0
 10
12.4549
 20
50.7553
 11
11.8711
 21
50.5241
  0
LINE
  8
0
 10
11.8711
 20
50.5241
 11
11.3209
 21
50.2216
  0
LINE
  8
0
 10
11.3209
 20
50.2216
 11
10.8129
 21
49.8526
  0
LINE
  8
0
 10
10.8129
 20
49.8526
 11
10.3551
 21
49.4227
  0
LINE
  8
0
 10
10.3551
 20
49.4227
 11
9.95491
 21
48.9389
  0
LINE
  8
0
 10
9.95491
 20
48.9389
 11
9.61845
 21
48.4088
  0
LINE
  8
0
 10
9.61845
 20
48.4088
 11
9.3511
 21
47.8406
  0
LINE
  8
0
 10
9.3511
 20
47.8406
 11
9.15707
 21
47.2434
  0
LINE
  8
0
 10
9.15707
 20
47.2434
 11
9.03941
 21
46.6267
  0
LINE
  8
0
 10
9.03941
 20
46.6267
 11
9
 21
46
  0
LINE
  8
0
 10
9
 20
46
 11
9
 21
14
  0
LINE
  8
0
 10
9
 20
14
 11
9.03941
 21
13.3733
  0
LINE
  8
0
 10
9.03941
 20
13.3733
 11
9.15707
 21
12.7565
  0
LINE
  8
0
 10
9.15707
 20
12.7565
 11
9.3511
 21
12.1594
  0
LINE
  8
0
 10
9.3511
 20
12.1594
 11
9.61845
 21
11.5912
  0
LINE
  8
0
 10
9.61845
 20
11.5912
 11
9.95491
 21
11.0611
  0
LINE
  8
0
 10
9.95491
 20
11.0611
 11
10.3551
 21
10.5773
  0
LINE
  8
0
 10
10.3551
 20
10.5773
 11
10.8129
 21
10.1474
  0
LINE
  8
0
 10
10.8129
 20
10.1474
 11
11.3209
 21
9.77835
  0
LINE
  8
0
 10
11.3209
 20
9.77835
 11
11.8711
 21
9.47586
  0
LINE
  8
0
 10
11.8711
 20
9.47586
 11
12.4549
 21
9.24471
  0
LINE
  8
0
 10
12.4549
 20
9.24471
 11
13.0631
 21
9.08856
  0
LINE
  8
0
 10
13.0631
 20
9.08856
 11
13.686
 21
9.00986
  0
LINE
  8
0
 10
13.686
 20
9.00986
 11
14
 21
9.00986
  0
LINE
  8
0
 10
14
 20
9.00986
 11
14
 21
9
  0
LINE
  8
0
 10
14
 20
9
 11
91
 21
9
  0
LINE
  8
0
 10
91
 20
9
 11
91
 21
9.00986
  0
ENDSEC
  0
SECTION
  2
OBJECTS
  0
DICTIONARY
  0
ENDSEC
  0
EOF
