<svg
xmlns:dc="http://purl.org/dc/elements/1.1/"
xmlns:cc="http://creativecommons.org/ns#"
xmlns:rdf="http://www.w3.org/1999/02/22-rdf-syntax-ns#"
xmlns:svg="http://www.w3.org/2000/svg"
xmlns="http://www.w3.org/2000/svg"
xmlns:xlink="http://www.w3.org/1999/xlink"
xmlns:sodipodi="http://sodipodi.sourceforge.net/DTD/sodipodi-0.dtd"
xmlns:inkscape="http://www.inkscape.org/namespaces/inkscape"
width="203mm"
height="83mm"
id="svg2"
version="1.1"
inkscape:version="0.48.1 "
sodipodi:docname="MultiLineTextINK.svg">
	<rect
		style="fill:none;stroke:#000000;stroke-width:2px " 
		x="5mm"
		y="5mm"
		rx="5mm"
		ry="5mm"
		width="193mm"
		height="73mm"
	/>
	<circle
		style="fill:none;stroke:#000000;stroke-width:2px " 
		cx="11.5mm"
		cy="71.5mm"
		r="3mm"
		id="oomID1502"
	/>
	<circle
		style="fill:none;stroke:#000000;stroke-width:2px " 
		cx="11.5mm"
		cy="51.5mm"
		r="3mm"
		id="oomID1503"
	/>
	<circle
		style="fill:none;stroke:#000000;stroke-width:2px " 
		cx="11.5mm"
		cy="31.5mm"
		r="3mm"
		id="oomID1504"
	/>
	<circle
		style="fill:none;stroke:#000000;stroke-width:2px " 
		cx="11.5mm"
		cy="11.5mm"
		r="3mm"
		id="oomID1505"
	/>
	<circle
		style="fill:none;stroke:#000000;stroke-width:2px " 
		cx="31.5mm"
		cy="71.5mm"
		r="3mm"
		id="oomID1506"
	/>
	<circle
		style="fill:none;stroke:#000000;stroke-width:2px " 
		cx="31.5mm"
		cy="51.5mm"
		r="3mm"
		id="oomID1507"
	/>
	<circle
		style="fill:none;stroke:#000000;stroke-width:2px " 
		cx="31.5mm"
		cy="31.5mm"
		r="3mm"
		id="oomID1508"
	/>
	<circle
		style="fill:none;stroke:#000000;stroke-width:2px " 
		cx="31.5mm"
		cy="11.5mm"
		r="3mm"
		id="oomID1509"
	/>
	<circle
		style="fill:none;stroke:#000000;stroke-width:2px " 
		cx="51.5mm"
		cy="71.5mm"
		r="3mm"
		id="oomID1510"
	/>
	<circle
		style="fill:none;stroke:#000000;stroke-width:2px " 
		cx="51.5mm"
		cy="51.5mm"
		r="3mm"
		id="oomID1511"
	/>
	<circle
		style="fill:none;stroke:#000000;stroke-width:2px " 
		cx="51.5mm"
		cy="31.5mm"
		r="3mm"
		id="oomID1512"
	/>
	<circle
		style="fill:none;stroke:#000000;stroke-width:2px " 
		cx="51.5mm"
		cy="11.5mm"
		r="3mm"
		id="oomID1513"
	/>
	<circle
		style="fill:none;stroke:#000000;stroke-width:2px " 
		cx="71.5mm"
		cy="71.5mm"
		r="3mm"
		id="oomID1514"
	/>
	<circle
		style="fill:none;stroke:#000000;stroke-width:2px " 
		cx="71.5mm"
		cy="51.5mm"
		r="3mm"
		id="oomID1515"
	/>
	<circle
		style="fill:none;stroke:#000000;stroke-width:2px " 
		cx="71.5mm"
		cy="31.5mm"
		r="3mm"
		id="oomID1516"
	/>
	<circle
		style="fill:none;stroke:#000000;stroke-width:2px " 
		cx="71.5mm"
		cy="11.5mm"
		r="3mm"
		id="oomID1517"
	/>
	<circle
		style="fill:none;stroke:#000000;stroke-width:2px " 
		cx="91.5mm"
		cy="71.5mm"
		r="3mm"
		id="oomID1518"
	/>
	<circle
		style="fill:none;stroke:#000000;stroke-width:2px " 
		cx="91.5mm"
		cy="51.5mm"
		r="3mm"
		id="oomID1519"
	/>
	<circle
		style="fill:none;stroke:#000000;stroke-width:2px " 
		cx="91.5mm"
		cy="31.5mm"
		r="3mm"
		id="oomID1520"
	/>
	<circle
		style="fill:none;stroke:#000000;stroke-width:2px " 
		cx="91.5mm"
		cy="11.5mm"
		r="3mm"
		id="oomID1521"
	/>
	<circle
		style="fill:none;stroke:#000000;stroke-width:2px " 
		cx="111.5mm"
		cy="71.5mm"
		r="3mm"
		id="oomID1522"
	/>
	<circle
		style="fill:none;stroke:#000000;stroke-width:2px " 
		cx="111.5mm"
		cy="51.5mm"
		r="3mm"
		id="oomID1523"
	/>
	<circle
		style="fill:none;stroke:#000000;stroke-width:2px " 
		cx="111.5mm"
		cy="31.5mm"
		r="3mm"
		id="oomID1524"
	/>
	<circle
		style="fill:none;stroke:#000000;stroke-width:2px " 
		cx="111.5mm"
		cy="11.5mm"
		r="3mm"
		id="oomID1525"
	/>
	<circle
		style="fill:none;stroke:#000000;stroke-width:2px " 
		cx="131.5mm"
		cy="71.5mm"
		r="3mm"
		id="oomID1526"
	/>
	<circle
		style="fill:none;stroke:#000000;stroke-width:2px " 
		cx="131.5mm"
		cy="51.5mm"
		r="3mm"
		id="oomID1527"
	/>
	<circle
		style="fill:none;stroke:#000000;stroke-width:2px " 
		cx="131.5mm"
		cy="31.5mm"
		r="3mm"
		id="oomID1528"
	/>
	<circle
		style="fill:none;stroke:#000000;stroke-width:2px " 
		cx="131.5mm"
		cy="11.5mm"
		r="3mm"
		id="oomID1529"
	/>
	<circle
		style="fill:none;stroke:#000000;stroke-width:2px " 
		cx="151.5mm"
		cy="71.5mm"
		r="3mm"
		id="oomID1530"
	/>
	<circle
		style="fill:none;stroke:#000000;stroke-width:2px " 
		cx="151.5mm"
		cy="51.5mm"
		r="3mm"
		id="oomID1531"
	/>
	<circle
		style="fill:none;stroke:#000000;stroke-width:2px " 
		cx="151.5mm"
		cy="31.5mm"
		r="3mm"
		id="oomID1532"
	/>
	<circle
		style="fill:none;stroke:#000000;stroke-width:2px " 
		cx="151.5mm"
		cy="11.5mm"
		r="3mm"
		id="oomID1533"
	/>
	<circle
		style="fill:none;stroke:#000000;stroke-width:2px " 
		cx="171.5mm"
		cy="71.5mm"
		r="3mm"
		id="oomID1534"
	/>
	<circle
		style="fill:none;stroke:#000000;stroke-width:2px " 
		cx="171.5mm"
		cy="51.5mm"
		r="3mm"
		id="oomID1535"
	/>
	<circle
		style="fill:none;stroke:#000000;stroke-width:2px " 
		cx="171.5mm"
		cy="31.5mm"
		r="3mm"
		id="oomID1536"
	/>
	<circle
		style="fill:none;stroke:#000000;stroke-width:2px " 
		cx="171.5mm"
		cy="11.5mm"
		r="3mm"
		id="oomID1537"
	/>
	<circle
		style="fill:none;stroke:#000000;stroke-width:2px " 
		cx="191.5mm"
		cy="71.5mm"
		r="3mm"
		id="oomID1538"
	/>
	<circle
		style="fill:none;stroke:#000000;stroke-width:2px " 
		cx="191.5mm"
		cy="51.5mm"
		r="3mm"
		id="oomID1539"
	/>
	<circle
		style="fill:none;stroke:#000000;stroke-width:2px " 
		cx="191.5mm"
		cy="31.5mm"
		r="3mm"
		id="oomID1540"
	/>
	<circle
		style="fill:none;stroke:#000000;stroke-width:2px " 
		cx="191.5mm"
		cy="11.5mm"
		r="3mm"
		id="oomID1541"
	/>
	<rect
		style="fill:none;stroke:#000000;stroke-width:2px " 
		x="10mm"
		y="58.5mm"
		width="3mm"
		height="6mm"
		id="oomID1542"
	/>
	<rect
		style="fill:none;stroke:#000000;stroke-width:2px " 
		x="10mm"
		y="38.5mm"
		width="3mm"
		height="6mm"
		id="oomID1543"
	/>
	<rect
		style="fill:none;stroke:#000000;stroke-width:2px " 
		x="10mm"
		y="18.5mm"
		width="3mm"
		height="6mm"
		id="oomID1544"
	/>
	<rect
		style="fill:none;stroke:#000000;stroke-width:2px " 
		x="30mm"
		y="58.5mm"
		width="3mm"
		height="6mm"
		id="oomID1545"
	/>
	<rect
		style="fill:none;stroke:#000000;stroke-width:2px " 
		x="30mm"
		y="38.5mm"
		width="3mm"
		height="6mm"
		id="oomID1546"
	/>
	<rect
		style="fill:none;stroke:#000000;stroke-width:2px " 
		x="30mm"
		y="18.5mm"
		width="3mm"
		height="6mm"
		id="oomID1547"
	/>
	<rect
		style="fill:none;stroke:#000000;stroke-width:2px " 
		x="50mm"
		y="58.5mm"
		width="3mm"
		height="6mm"
		id="oomID1548"
	/>
	<rect
		style="fill:none;stroke:#000000;stroke-width:2px " 
		x="50mm"
		y="38.5mm"
		width="3mm"
		height="6mm"
		id="oomID1549"
	/>
	<rect
		style="fill:none;stroke:#000000;stroke-width:2px " 
		x="50mm"
		y="18.5mm"
		width="3mm"
		height="6mm"
		id="oomID1550"
	/>
	<rect
		style="fill:none;stroke:#000000;stroke-width:2px " 
		x="70mm"
		y="58.5mm"
		width="3mm"
		height="6mm"
		id="oomID1551"
	/>
	<rect
		style="fill:none;stroke:#000000;stroke-width:2px " 
		x="70mm"
		y="38.5mm"
		width="3mm"
		height="6mm"
		id="oomID1552"
	/>
	<rect
		style="fill:none;stroke:#000000;stroke-width:2px " 
		x="70mm"
		y="18.5mm"
		width="3mm"
		height="6mm"
		id="oomID1553"
	/>
	<rect
		style="fill:none;stroke:#000000;stroke-width:2px " 
		x="90mm"
		y="58.5mm"
		width="3mm"
		height="6mm"
		id="oomID1554"
	/>
	<rect
		style="fill:none;stroke:#000000;stroke-width:2px " 
		x="90mm"
		y="38.5mm"
		width="3mm"
		height="6mm"
		id="oomID1555"
	/>
	<rect
		style="fill:none;stroke:#000000;stroke-width:2px " 
		x="90mm"
		y="18.5mm"
		width="3mm"
		height="6mm"
		id="oomID1556"
	/>
	<rect
		style="fill:none;stroke:#000000;stroke-width:2px " 
		x="110mm"
		y="58.5mm"
		width="3mm"
		height="6mm"
		id="oomID1557"
	/>
	<rect
		style="fill:none;stroke:#000000;stroke-width:2px " 
		x="110mm"
		y="38.5mm"
		width="3mm"
		height="6mm"
		id="oomID1558"
	/>
	<rect
		style="fill:none;stroke:#000000;stroke-width:2px " 
		x="110mm"
		y="18.5mm"
		width="3mm"
		height="6mm"
		id="oomID1559"
	/>
	<rect
		style="fill:none;stroke:#000000;stroke-width:2px " 
		x="130mm"
		y="58.5mm"
		width="3mm"
		height="6mm"
		id="oomID1560"
	/>
	<rect
		style="fill:none;stroke:#000000;stroke-width:2px " 
		x="130mm"
		y="38.5mm"
		width="3mm"
		height="6mm"
		id="oomID1561"
	/>
	<rect
		style="fill:none;stroke:#000000;stroke-width:2px " 
		x="130mm"
		y="18.5mm"
		width="3mm"
		height="6mm"
		id="oomID1562"
	/>
	<rect
		style="fill:none;stroke:#000000;stroke-width:2px " 
		x="150mm"
		y="58.5mm"
		width="3mm"
		height="6mm"
		id="oomID1563"
	/>
	<rect
		style="fill:none;stroke:#000000;stroke-width:2px " 
		x="150mm"
		y="38.5mm"
		width="3mm"
		height="6mm"
		id="oomID1564"
	/>
	<rect
		style="fill:none;stroke:#000000;stroke-width:2px " 
		x="150mm"
		y="18.5mm"
		width="3mm"
		height="6mm"
		id="oomID1565"
	/>
	<rect
		style="fill:none;stroke:#000000;stroke-width:2px " 
		x="170mm"
		y="58.5mm"
		width="3mm"
		height="6mm"
		id="oomID1566"
	/>
	<rect
		style="fill:none;stroke:#000000;stroke-width:2px " 
		x="170mm"
		y="38.5mm"
		width="3mm"
		height="6mm"
		id="oomID1567"
	/>
	<rect
		style="fill:none;stroke:#000000;stroke-width:2px " 
		x="170mm"
		y="18.5mm"
		width="3mm"
		height="6mm"
		id="oomID1568"
	/>
	<rect
		style="fill:none;stroke:#000000;stroke-width:2px " 
		x="190mm"
		y="58.5mm"
		width="3mm"
		height="6mm"
		id="oomID1569"
	/>
	<rect
		style="fill:none;stroke:#000000;stroke-width:2px " 
		x="190mm"
		y="38.5mm"
		width="3mm"
		height="6mm"
		id="oomID1570"
	/>
	<rect
		style="fill:none;stroke:#000000;stroke-width:2px " 
		x="190mm"
		y="18.5mm"
		width="3mm"
		height="6mm"
		id="oomID1571"
	/>
	<rect
		style="fill:none;stroke:#000000;stroke-width:2px " 
		x="18.5mm"
		y="70mm"
		width="6mm"
		height="3mm"
		id="oomID1572"
	/>
	<rect
		style="fill:none;stroke:#000000;stroke-width:2px " 
		x="18.5mm"
		y="50mm"
		width="6mm"
		height="3mm"
		id="oomID1573"
	/>
	<rect
		style="fill:none;stroke:#000000;stroke-width:2px " 
		x="18.5mm"
		y="30mm"
		width="6mm"
		height="3mm"
		id="oomID1574"
	/>
	<rect
		style="fill:none;stroke:#000000;stroke-width:2px " 
		x="18.5mm"
		y="10mm"
		width="6mm"
		height="3mm"
		id="oomID1575"
	/>
	<rect
		style="fill:none;stroke:#000000;stroke-width:2px " 
		x="38.5mm"
		y="70mm"
		width="6mm"
		height="3mm"
		id="oomID1576"
	/>
	<rect
		style="fill:none;stroke:#000000;stroke-width:2px " 
		x="38.5mm"
		y="50mm"
		width="6mm"
		height="3mm"
		id="oomID1577"
	/>
	<rect
		style="fill:none;stroke:#000000;stroke-width:2px " 
		x="38.5mm"
		y="30mm"
		width="6mm"
		height="3mm"
		id="oomID1578"
	/>
	<rect
		style="fill:none;stroke:#000000;stroke-width:2px " 
		x="38.5mm"
		y="10mm"
		width="6mm"
		height="3mm"
		id="oomID1579"
	/>
	<rect
		style="fill:none;stroke:#000000;stroke-width:2px " 
		x="58.5mm"
		y="70mm"
		width="6mm"
		height="3mm"
		id="oomID1580"
	/>
	<rect
		style="fill:none;stroke:#000000;stroke-width:2px " 
		x="58.5mm"
		y="50mm"
		width="6mm"
		height="3mm"
		id="oomID1581"
	/>
	<rect
		style="fill:none;stroke:#000000;stroke-width:2px " 
		x="58.5mm"
		y="30mm"
		width="6mm"
		height="3mm"
		id="oomID1582"
	/>
	<rect
		style="fill:none;stroke:#000000;stroke-width:2px " 
		x="58.5mm"
		y="10mm"
		width="6mm"
		height="3mm"
		id="oomID1583"
	/>
	<rect
		style="fill:none;stroke:#000000;stroke-width:2px " 
		x="78.5mm"
		y="70mm"
		width="6mm"
		height="3mm"
		id="oomID1584"
	/>
	<rect
		style="fill:none;stroke:#000000;stroke-width:2px " 
		x="78.5mm"
		y="50mm"
		width="6mm"
		height="3mm"
		id="oomID1585"
	/>
	<rect
		style="fill:none;stroke:#000000;stroke-width:2px " 
		x="78.5mm"
		y="30mm"
		width="6mm"
		height="3mm"
		id="oomID1586"
	/>
	<rect
		style="fill:none;stroke:#000000;stroke-width:2px " 
		x="78.5mm"
		y="10mm"
		width="6mm"
		height="3mm"
		id="oomID1587"
	/>
	<rect
		style="fill:none;stroke:#000000;stroke-width:2px " 
		x="98.5mm"
		y="70mm"
		width="6mm"
		height="3mm"
		id="oomID1588"
	/>
	<rect
		style="fill:none;stroke:#000000;stroke-width:2px " 
		x="98.5mm"
		y="50mm"
		width="6mm"
		height="3mm"
		id="oomID1589"
	/>
	<rect
		style="fill:none;stroke:#000000;stroke-width:2px " 
		x="98.5mm"
		y="30mm"
		width="6mm"
		height="3mm"
		id="oomID1590"
	/>
	<rect
		style="fill:none;stroke:#000000;stroke-width:2px " 
		x="98.5mm"
		y="10mm"
		width="6mm"
		height="3mm"
		id="oomID1591"
	/>
	<rect
		style="fill:none;stroke:#000000;stroke-width:2px " 
		x="118.5mm"
		y="70mm"
		width="6mm"
		height="3mm"
		id="oomID1592"
	/>
	<rect
		style="fill:none;stroke:#000000;stroke-width:2px " 
		x="118.5mm"
		y="50mm"
		width="6mm"
		height="3mm"
		id="oomID1593"
	/>
	<rect
		style="fill:none;stroke:#000000;stroke-width:2px " 
		x="118.5mm"
		y="30mm"
		width="6mm"
		height="3mm"
		id="oomID1594"
	/>
	<rect
		style="fill:none;stroke:#000000;stroke-width:2px " 
		x="118.5mm"
		y="10mm"
		width="6mm"
		height="3mm"
		id="oomID1595"
	/>
	<rect
		style="fill:none;stroke:#000000;stroke-width:2px " 
		x="138.5mm"
		y="70mm"
		width="6mm"
		height="3mm"
		id="oomID1596"
	/>
	<rect
		style="fill:none;stroke:#000000;stroke-width:2px " 
		x="138.5mm"
		y="50mm"
		width="6mm"
		height="3mm"
		id="oomID1597"
	/>
	<rect
		style="fill:none;stroke:#000000;stroke-width:2px " 
		x="138.5mm"
		y="30mm"
		width="6mm"
		height="3mm"
		id="oomID1598"
	/>
	<rect
		style="fill:none;stroke:#000000;stroke-width:2px " 
		x="138.5mm"
		y="10mm"
		width="6mm"
		height="3mm"
		id="oomID1599"
	/>
	<rect
		style="fill:none;stroke:#000000;stroke-width:2px " 
		x="158.5mm"
		y="70mm"
		width="6mm"
		height="3mm"
		id="oomID1600"
	/>
	<rect
		style="fill:none;stroke:#000000;stroke-width:2px " 
		x="158.5mm"
		y="50mm"
		width="6mm"
		height="3mm"
		id="oomID1601"
	/>
	<rect
		style="fill:none;stroke:#000000;stroke-width:2px " 
		x="158.5mm"
		y="30mm"
		width="6mm"
		height="3mm"
		id="oomID1602"
	/>
	<rect
		style="fill:none;stroke:#000000;stroke-width:2px " 
		x="158.5mm"
		y="10mm"
		width="6mm"
		height="3mm"
		id="oomID1603"
	/>
	<rect
		style="fill:none;stroke:#000000;stroke-width:2px " 
		x="178.5mm"
		y="70mm"
		width="6mm"
		height="3mm"
		id="oomID1604"
	/>
	<rect
		style="fill:none;stroke:#000000;stroke-width:2px " 
		x="178.5mm"
		y="50mm"
		width="6mm"
		height="3mm"
		id="oomID1605"
	/>
	<rect
		style="fill:none;stroke:#000000;stroke-width:2px " 
		x="178.5mm"
		y="30mm"
		width="6mm"
		height="3mm"
		id="oomID1606"
	/>
	<rect
		style="fill:none;stroke:#000000;stroke-width:2px " 
		x="178.5mm"
		y="10mm"
		width="6mm"
		height="3mm"
		id="oomID1607"
	/>
	<text x="21.5mm" y="61.5mm"
	style="text-anchor: middle; text-align: center; font-family: ENG_HelvLine; -inkscape-font-specification: ENG_HelvLine; font-size: 12pt; fill:none; font-style:normal;font-weight:normal;line-height:100%;letter-spacing:0px;word-spacing:0px;fill-opacity:1;stroke:#FFA500"
	><tspan sodipodi:role="line">PL</tspan><tspan sodipodi:role="line">10-04</tspan></text>
</svg>
