<?xml version="1.0" encoding="UTF-8"?>
<!DOCTYPE svg PUBLIC "-//W3C//DTD SVG 1.1//EN" "http://www.w3.org/Graphics/SVG/1.1/DTD/svg11.dtd">
<!-- Creator: CorelDRAW -->
<svg xmlns="http://www.w3.org/2000/svg" xml:space="preserve" width="210mm" height="297mm" style="shape-rendering:geometricPrecision; text-rendering:geometricPrecision; image-rendering:optimizeQuality; fill-rule:evenodd; clip-rule:evenodd"
viewBox="0 0 210 297"
 xmlns:xlink="http://www.w3.org/1999/xlink">
 <defs>
  <style type="text/css">
   <![CDATA[
    .str1 {stroke:orange;stroke-width:0.2822}
    .str0 {stroke:black;stroke-width:0.5644}
    .fil0 {fill:none;fill-rule:nonzero}
   ]]>
  </style>
 </defs>
 <g id="Layer_x0020_1">
  <metadata id="CorelCorpID_0Corel-Layer"/>
  <g id="OOBB-PL-10-04.pdf">
   <path id="_117718848" class="fil0 str0" d="M13.5003 112l182.999 0c2.77,0 5.001,2.2309 5.001,5.0009l0 62.9998c0,2.7697 -2.231,4.9996 -5.001,4.9996l-182.999 0c-2.77,0 -5.0009,-2.2299 -5.0009,-4.9996l0 -62.9998c0,-2.77 2.2309,-5.0009 5.0009,-5.0009zm0 0z"/>
   <path id="_117719568" class="fil0 str0" d="M17.9997 178.5c0,1.6577 -1.3423,3 -3.0001,3 -1.6566,0 -3,-1.3423 -3,-3 0,-1.6567 1.3434,-3 3,-3 1.6578,0 3.0001,1.3433 3.0001,3zm0 0z"/>
   <path id="_117720600" class="fil0 str0" d="M17.9997 158.5c0,1.6567 -1.3423,3 -3.0001,3 -1.6566,0 -3,-1.3433 -3,-3 0,-1.6563 1.3434,-3 3,-3 1.6578,0 3.0001,1.3437 3.0001,3zm0 0z"/>
   <path id="_117719136" class="fil0 str0" d="M17.9997 138.501c0,1.6563 -1.3423,3 -3.0001,3 -1.6566,0 -3,-1.3437 -3,-3 0,-1.6577 1.3434,-3 3,-3 1.6578,0 3.0001,1.3423 3.0001,3zm0 0z"/>
   <path id="_117720312" class="fil0 str0" d="M17.9997 118.5c0,1.6577 -1.3423,3 -3.0001,3 -1.6566,0 -3,-1.3423 -3,-3 0,-1.6567 1.3434,-3.0001 3,-3.0001 1.6578,0 3.0001,1.3434 3.0001,3.0001zm0 0z"/>
   <path id="_117719112" class="fil0 str0" d="M38.0004 178.5c0,1.6577 -1.3437,3 -3,3 -1.6577,0 -3,-1.3423 -3,-3 0,-1.6567 1.3423,-3 3,-3 1.6563,0 3,1.3433 3,3zm0 0z"/>
   <path id="_117719184" class="fil0 str0" d="M38.0004 158.5c0,1.6567 -1.3437,3 -3,3 -1.6577,0 -3,-1.3433 -3,-3 0,-1.6563 1.3423,-3 3,-3 1.6563,0 3,1.3437 3,3zm0 0z"/>
   <path id="_117718944" class="fil0 str0" d="M38.0004 138.501c0,1.6563 -1.3437,3 -3,3 -1.6577,0 -3,-1.3437 -3,-3 0,-1.6577 1.3423,-3 3,-3 1.6563,0 3,1.3423 3,3zm0 0z"/>
   <path id="_117718152" class="fil0 str0" d="M38.0004 118.5c0,1.6577 -1.3437,3 -3,3 -1.6577,0 -3,-1.3423 -3,-3 0,-1.6567 1.3423,-3.0001 3,-3.0001 1.6563,0 3,1.3434 3,3.0001zm0 0z"/>
   <path id="_117718008" class="fil0 str0" d="M57.9997 178.5c0,1.6577 -1.3433,3 -3,3 -1.6563,0 -3,-1.3423 -3,-3 0,-1.6567 1.3437,-3 3,-3 1.6567,0 3,1.3433 3,3zm0 0z"/>
   <path id="_117719304" class="fil0 str0" d="M57.9997 158.5c0,1.6567 -1.3433,3 -3,3 -1.6563,0 -3,-1.3433 -3,-3 0,-1.6563 1.3437,-3 3,-3 1.6567,0 3,1.3437 3,3zm0 0z"/>
   <path id="_117718080" class="fil0 str0" d="M57.9997 138.501c0,1.6563 -1.3433,3 -3,3 -1.6563,0 -3,-1.3437 -3,-3 0,-1.6577 1.3437,-3 3,-3 1.6567,0 3,1.3423 3,3zm0 0z"/>
   <path id="_117719376" class="fil0 str0" d="M57.9997 118.5c0,1.6577 -1.3433,3 -3,3 -1.6563,0 -3,-1.3423 -3,-3 0,-1.6567 1.3437,-3.0001 3,-3.0001 1.6567,0 3,1.3434 3,3.0001zm0 0z"/>
   <path id="_33084112" class="fil0 str0" d="M77.9994 178.5c0,1.6577 -1.3423,3 -3,3 -1.6567,0 -3,-1.3423 -3,-3 0,-1.6567 1.3433,-3 3,-3 1.6577,0 3,1.3433 3,3zm0 0z"/>
   <path id="_33082240" class="fil0 str0" d="M77.9994 158.5c0,1.6567 -1.3423,3 -3,3 -1.6567,0 -3,-1.3433 -3,-3 0,-1.6563 1.3433,-3 3,-3 1.6577,0 3,1.3437 3,3zm0 0z"/>
   <path id="_33082528" class="fil0 str0" d="M77.9994 138.501c0,1.6563 -1.3423,3 -3,3 -1.6567,0 -3,-1.3437 -3,-3 0,-1.6577 1.3433,-3 3,-3 1.6577,0 3,1.3423 3,3zm0 0z"/>
   <path id="_33084640" class="fil0 str0" d="M77.9994 118.5c0,1.6577 -1.3423,3 -3,3 -1.6567,0 -3,-1.3423 -3,-3 0,-1.6567 1.3433,-3.0001 3,-3.0001 1.6577,0 3,1.3434 3,3.0001zm0 0z"/>
   <path id="_33081856" class="fil0 str0" d="M98.0001 178.5c0,1.6577 -1.3437,3 -3,3 -1.6577,0 -3,-1.3423 -3,-3 0,-1.6567 1.3423,-3 3,-3 1.6563,0 3,1.3433 3,3zm0 0z"/>
   <path id="_33081448" class="fil0 str0" d="M98.0001 158.5c0,1.6567 -1.3437,3 -3,3 -1.6577,0 -3,-1.3433 -3,-3 0,-1.6563 1.3423,-3 3,-3 1.6563,0 3,1.3437 3,3zm0 0z"/>
   <path id="_33081760" class="fil0 str0" d="M98.0001 138.501c0,1.6563 -1.3437,3 -3,3 -1.6577,0 -3,-1.3437 -3,-3 0,-1.6577 1.3423,-3 3,-3 1.6563,0 3,1.3423 3,3zm0 0z"/>
   <path id="_33082288" class="fil0 str0" d="M98.0001 118.5c0,1.6577 -1.3437,3 -3,3 -1.6577,0 -3,-1.3423 -3,-3 0,-1.6567 1.3423,-3.0001 3,-3.0001 1.6563,0 3,1.3434 3,3.0001zm0 0z"/>
   <path id="_33082144" class="fil0 str0" d="M118 178.5c0,1.6577 -1.3434,3 -2.9997,3 -1.6566,0 -3,-1.3423 -3,-3 0,-1.6567 1.3434,-3 3,-3 1.6563,0 2.9997,1.3433 2.9997,3zm0 0z"/>
   <path id="_33080728" class="fil0 str0" d="M118 158.5c0,1.6567 -1.3434,3 -2.9997,3 -1.6566,0 -3,-1.3433 -3,-3 0,-1.6563 1.3434,-3 3,-3 1.6563,0 2.9997,1.3437 2.9997,3zm0 0z"/>
   <path id="_33083440" class="fil0 str0" d="M118 138.501c0,1.6563 -1.3434,3 -2.9997,3 -1.6566,0 -3,-1.3437 -3,-3 0,-1.6577 1.3434,-3 3,-3 1.6563,0 2.9997,1.3423 2.9997,3zm0 0z"/>
   <path id="_33082168" class="fil0 str0" d="M118 118.5c0,1.6577 -1.3434,3 -2.9997,3 -1.6566,0 -3,-1.3423 -3,-3 0,-1.6567 1.3434,-3.0001 3,-3.0001 1.6563,0 2.9997,1.3434 2.9997,3.0001zm0 0z"/>
   <path id="_33083944" class="fil0 str0" d="M138.001 178.5c0,1.6577 -1.3438,3 -3.0001,3 -1.6577,0 -3,-1.3423 -3,-3 0,-1.6567 1.3423,-3 3,-3 1.6563,0 3.0001,1.3433 3.0001,3zm0 0z"/>
   <path id="_33084304" class="fil0 str0" d="M138.001 158.5c0,1.6567 -1.3438,3 -3.0001,3 -1.6577,0 -3,-1.3433 -3,-3 0,-1.6563 1.3423,-3 3,-3 1.6563,0 3.0001,1.3437 3.0001,3zm0 0z"/>
   <path id="_33084328" class="fil0 str0" d="M138.001 138.501c0,1.6563 -1.3438,3 -3.0001,3 -1.6577,0 -3,-1.3437 -3,-3 0,-1.6577 1.3423,-3 3,-3 1.6563,0 3.0001,1.3423 3.0001,3zm0 0z"/>
   <path id="_33083920" class="fil0 str0" d="M138.001 118.5c0,1.6577 -1.3438,3 -3.0001,3 -1.6577,0 -3,-1.3423 -3,-3 0,-1.6567 1.3423,-3.0001 3,-3.0001 1.6563,0 3.0001,1.3434 3.0001,3.0001zm0 0z"/>
   <path id="_33083464" class="fil0 str0" d="M158 178.5c0,1.6577 -1.3434,3 -3,3 -1.6563,0 -3.0001,-1.3423 -3.0001,-3 0,-1.6567 1.3438,-3 3.0001,-3 1.6566,0 3,1.3433 3,3zm0 0z"/>
   <path id="_33083656" class="fil0 str0" d="M158 158.5c0,1.6567 -1.3434,3 -3,3 -1.6563,0 -3.0001,-1.3433 -3.0001,-3 0,-1.6563 1.3438,-3 3.0001,-3 1.6566,0 3,1.3437 3,3zm0 0z"/>
   <path id="_33081784" class="fil0 str0" d="M158 138.501c0,1.6563 -1.3434,3 -3,3 -1.6563,0 -3.0001,-1.3437 -3.0001,-3 0,-1.6577 1.3438,-3 3.0001,-3 1.6566,0 3,1.3423 3,3zm0 0z"/>
   <path id="_33084088" class="fil0 str0" d="M158 118.5c0,1.6577 -1.3434,3 -3,3 -1.6563,0 -3.0001,-1.3423 -3.0001,-3 0,-1.6567 1.3438,-3.0001 3.0001,-3.0001 1.6566,0 3,1.3434 3,3.0001zm0 0z"/>
   <path id="_33083632" class="fil0 str0" d="M178 178.5c0,1.6577 -1.3424,3 -3.0001,3 -1.6566,0 -3,-1.3423 -3,-3 0,-1.6567 1.3434,-3 3,-3 1.6577,0 3.0001,1.3433 3.0001,3zm0 0z"/>
   <path id="_33084208" class="fil0 str0" d="M178 158.5c0,1.6567 -1.3424,3 -3.0001,3 -1.6566,0 -3,-1.3433 -3,-3 0,-1.6563 1.3434,-3 3,-3 1.6577,0 3.0001,1.3437 3.0001,3zm0 0z"/>
   <path id="_33082792" class="fil0 str0" d="M178 138.501c0,1.6563 -1.3424,3 -3.0001,3 -1.6566,0 -3,-1.3437 -3,-3 0,-1.6577 1.3434,-3 3,-3 1.6577,0 3.0001,1.3423 3.0001,3zm0 0z"/>
   <path id="_33084448" class="fil0 str0" d="M178 118.5c0,1.6577 -1.3424,3 -3.0001,3 -1.6566,0 -3,-1.3423 -3,-3 0,-1.6567 1.3434,-3.0001 3,-3.0001 1.6577,0 3.0001,1.3434 3.0001,3.0001zm0 0z"/>
   <path id="_33080776" class="fil0 str0" d="M198 178.5c0,1.6577 -1.3437,3 -3,3 -1.6577,0 -3,-1.3423 -3,-3 0,-1.6567 1.3423,-3 3,-3 1.6563,0 3,1.3433 3,3zm0 0z"/>
   <path id="_33081424" class="fil0 str0" d="M198 158.5c0,1.6567 -1.3437,3 -3,3 -1.6577,0 -3,-1.3433 -3,-3 0,-1.6563 1.3423,-3 3,-3 1.6563,0 3,1.3437 3,3zm0 0z"/>
   <path id="_33081904" class="fil0 str0" d="M198 138.501c0,1.6563 -1.3437,3 -3,3 -1.6577,0 -3,-1.3437 -3,-3 0,-1.6577 1.3423,-3 3,-3 1.6563,0 3,1.3423 3,3zm0 0z"/>
   <path id="_33083176" class="fil0 str0" d="M198 118.5c0,1.6577 -1.3437,3 -3,3 -1.6577,0 -3,-1.3423 -3,-3 0,-1.6567 1.3423,-3.0001 3,-3.0001 1.6563,0 3,1.3434 3,3.0001zm0 0z"/>
   <polygon id="_33081712" class="fil0 str0" points="13.5003,165.501 16.5004,165.501 16.5004,171.501 13.5003,171.501 "/>
   <polygon id="_33083704" class="fil0 str0" points="13.5003,145.5 16.5004,145.5 16.5004,151.5 13.5003,151.5 "/>
   <polygon id="_33084016" class="fil0 str0" points="13.5003,125.5 16.5004,125.5 16.5004,131.5 13.5003,131.5 "/>
   <polygon id="_33082888" class="fil0 str0" points="33.4997,165.501 36.4997,165.501 36.4997,171.501 33.4997,171.501 "/>
   <polygon id="_33083608" class="fil0 str0" points="33.4997,145.5 36.4997,145.5 36.4997,151.5 33.4997,151.5 "/>
   <polygon id="_33083584" class="fil0 str0" points="33.4997,125.5 36.4997,125.5 36.4997,131.5 33.4997,131.5 "/>
   <polygon id="_33083056" class="fil0 str0" points="53.499,165.501 56.499,165.501 56.499,171.501 53.499,171.501 "/>
   <polygon id="_33084496" class="fil0 str0" points="53.499,145.5 56.499,145.5 56.499,151.5 53.499,151.5 "/>
   <polygon id="_33082024" class="fil0 str0" points="53.499,125.5 56.499,125.5 56.499,131.5 53.499,131.5 "/>
   <polygon id="_33084400" class="fil0 str0" points="73.5001,165.501 76.5001,165.501 76.5001,171.501 73.5001,171.501 "/>
   <polygon id="_33081328" class="fil0 str0" points="73.5001,145.5 76.5001,145.5 76.5001,151.5 73.5001,151.5 "/>
   <polygon id="_33082096" class="fil0 str0" points="73.5001,125.5 76.5001,125.5 76.5001,131.5 73.5001,131.5 "/>
   <polygon id="_33083392" class="fil0 str0" points="93.4994,165.501 96.4994,165.501 96.4994,171.501 93.4994,171.501 "/>
   <polygon id="_33084256" class="fil0 str0" points="93.4994,145.5 96.4994,145.5 96.4994,151.5 93.4994,151.5 "/>
   <polygon id="_33084232" class="fil0 str0" points="93.4994,125.5 96.4994,125.5 96.4994,131.5 93.4994,131.5 "/>
   <polygon id="_33082576" class="fil0 str0" points="113.501,165.501 116.501,165.501 116.501,171.501 113.501,171.501 "/>
   <polygon id="_33084664" class="fil0 str0" points="113.501,145.5 116.501,145.5 116.501,151.5 113.501,151.5 "/>
   <polygon id="_33083296" class="fil0 str0" points="113.501,125.5 116.501,125.5 116.501,131.5 113.501,131.5 "/>
   <polygon id="_33082648" class="fil0 str0" points="133.5,165.501 136.5,165.501 136.5,171.501 133.5,171.501 "/>
   <polygon id="_117644544" class="fil0 str0" points="133.5,145.5 136.5,145.5 136.5,151.5 133.5,151.5 "/>
   <polygon id="_117646800" class="fil0 str0" points="133.5,125.5 136.5,125.5 136.5,131.5 133.5,131.5 "/>
   <polygon id="_117644616" class="fil0 str0" points="153.499,165.501 156.499,165.501 156.499,171.501 153.499,171.501 "/>
   <polygon id="_117645288" class="fil0 str0" points="153.499,145.5 156.499,145.5 156.499,151.5 153.499,151.5 "/>
   <polygon id="_117647088" class="fil0 str0" points="153.499,125.5 156.499,125.5 156.499,131.5 153.499,131.5 "/>
   <polygon id="_117646920" class="fil0 str0" points="173.5,165.501 176.5,165.501 176.5,171.501 173.5,171.501 "/>
   <polygon id="_117646344" class="fil0 str0" points="173.5,145.5 176.5,145.5 176.5,151.5 173.5,151.5 "/>
   <polygon id="_117645672" class="fil0 str0" points="173.5,125.5 176.5,125.5 176.5,131.5 173.5,131.5 "/>
   <polygon id="_117645960" class="fil0 str0" points="193.5,165.501 196.5,165.501 196.5,171.501 193.5,171.501 "/>
   <polygon id="_117646056" class="fil0 str0" points="193.5,145.5 196.5,145.5 196.5,151.5 193.5,151.5 "/>
   <polygon id="_117647544" class="fil0 str0" points="193.5,125.5 196.5,125.5 196.5,131.5 193.5,131.5 "/>
   <polygon id="_117644136" class="fil0 str0" points="21.9998,177 27.9999,177 27.9999,180 21.9998,180 "/>
   <polygon id="_117643968" class="fil0 str0" points="21.9998,156.999 27.9999,156.999 27.9999,159.999 21.9998,159.999 "/>
   <polygon id="_117645168" class="fil0 str0" points="21.9998,137 27.9999,137 27.9999,140 21.9998,140 "/>
   <polygon id="_117645048" class="fil0 str0" points="21.9998,117.001 27.9999,117.001 27.9999,120.001 21.9998,120.001 "/>
   <polygon id="_117644952" class="fil0 str0" points="41.9995,177 47.9995,177 47.9995,180 41.9995,180 "/>
   <polygon id="_117644808" class="fil0 str0" points="41.9995,156.999 47.9995,156.999 47.9995,159.999 41.9995,159.999 "/>
   <polygon id="_117645456" class="fil0 str0" points="41.9995,137 47.9995,137 47.9995,140 41.9995,140 "/>
   <polygon id="_117645576" class="fil0 str0" points="41.9995,117.001 47.9995,117.001 47.9995,120.001 41.9995,120.001 "/>
   <polygon id="_117644256" class="fil0 str0" points="62.0002,177 68.0003,177 68.0003,180 62.0002,180 "/>
   <polygon id="_117644448" class="fil0 str0" points="62.0002,156.999 68.0003,156.999 68.0003,159.999 62.0002,159.999 "/>
   <polygon id="_117644640" class="fil0 str0" points="62.0002,137 68.0003,137 68.0003,140 62.0002,140 "/>
   <polygon id="_117646224" class="fil0 str0" points="62.0002,117.001 68.0003,117.001 68.0003,120.001 62.0002,120.001 "/>
   <polygon id="_117648000" class="fil0 str0" points="81.9999,177 88,177 88,180 81.9999,180 "/>
   <polygon id="_117647880" class="fil0 str0" points="81.9999,156.999 88,156.999 88,159.999 81.9999,159.999 "/>
   <polygon id="_117646536" class="fil0 str0" points="81.9999,137 88,137 88,140 81.9999,140 "/>
   <polygon id="_117645648" class="fil0 str0" points="81.9999,117.001 88,117.001 88,120.001 81.9999,120.001 "/>
   <polygon id="_117647232" class="fil0 str0" points="101.999,177 107.999,177 107.999,180 101.999,180 "/>
   <polygon id="_117645912" class="fil0 str0" points="101.999,156.999 107.999,156.999 107.999,159.999 101.999,159.999 "/>
   <polygon id="_117646104" class="fil0 str0" points="101.999,137 107.999,137 107.999,140 101.999,140 "/>
   <polygon id="_117645000" class="fil0 str0" points="101.999,117.001 107.999,117.001 107.999,120.001 101.999,120.001 "/>
   <polygon id="_117646296" class="fil0 str0" points="122,177 128,177 128,180 122,180 "/>
   <polygon id="_117647136" class="fil0 str0" points="122,156.999 128,156.999 128,159.999 122,159.999 "/>
   <polygon id="_117647688" class="fil0 str0" points="122,137 128,137 128,140 122,140 "/>
   <polygon id="_117647760" class="fil0 str0" points="122,117.001 128,117.001 128,120.001 122,120.001 "/>
   <polygon id="_117647208" class="fil0 str0" points="142,177 148,177 148,180 142,180 "/>
   <polygon id="_117644232" class="fil0 str0" points="142,156.999 148,156.999 148,159.999 142,159.999 "/>
   <polygon id="_117647352" class="fil0 str0" points="142,137 148,137 148,140 142,140 "/>
   <polygon id="_117646824" class="fil0 str0" points="142,117.001 148,117.001 148,120.001 142,120.001 "/>
   <polygon id="_117646200" class="fil0 str0" points="162,177 168,177 168,180 162,180 "/>
   <polygon id="_117647496" class="fil0 str0" points="162,156.999 168,156.999 168,159.999 162,159.999 "/>
   <polygon id="_117646152" class="fil0 str0" points="162,137 168,137 168,140 162,140 "/>
   <polygon id="_117647808" class="fil0 str0" points="162,117.001 168,117.001 168,120.001 162,120.001 "/>
   <polygon id="_117646752" class="fil0 str0" points="182,177 188,177 188,180 182,180 "/>
   <polygon id="_117644496" class="fil0 str0" points="182,156.999 188,156.999 188,159.999 182,159.999 "/>
   <polygon id="_117645600" class="fil0 str0" points="182,137 188,137 188,140 182,140 "/>
   <polygon id="_117644712" class="fil0 str0" points="182,117.001 188,117.001 188,120.001 182,120.001 "/>
   <path id="_117647904" class="fil0 str1" d="M22.554 168.501l0 -3.0523 0.973 0c0.2561,0.0028 0.4561,0.0399 0.598,0.1115 0.1389,0.073 0.237,0.1683 0.2935,0.2868 0.055,0.1185 0.0853,0.2466 0.091,0.3842 0.0067,0.1407 -0.0166,0.2744 -0.0716,0.4011 -0.0554,0.127 -0.1503,0.2314 -0.2826,0.3129 -0.1351,0.0811 -0.3172,0.1228 -0.5486,0.1252l-1.0527 0 1.0527 0c0.2276,-0.0024 0.4078,-0.0441 0.5429,-0.1252 0.1338,-0.0815 0.229,-0.1859 0.2854,-0.3129 0.0551,-0.1267 0.0798,-0.2604 0.0745,-0.4011 -0.0057,-0.1376 -0.036,-0.2657 -0.0924,-0.3842 -0.0579,-0.1185 -0.157,-0.2138 -0.2964,-0.2868 -0.1418,-0.0716 -0.3404,-0.1087 -0.5937,-0.1115l-0.973 0 0 3.0523zm5.2462 0l-1.7819 0 0 -3.0523 0 3.0523 1.7819 0zm0 0z"/>
   <path id="_117646248" class="fil0 str1" d="M19.6616 172.734l0 -3.0522c-0.0056,0.1721 -0.0511,0.3058 -0.1393,0.3997 -0.0882,0.0949 -0.1888,0.1612 -0.2992,0.1982 -0.1129,0.0385 -0.2067,0.0593 -0.2812,0.0621 0.0745,-0.0028 0.1683,-0.0236 0.2812,-0.0621 0.1104,-0.037 0.211,-0.1033 0.2992,-0.1982 0.0882,-0.0939 0.1337,-0.2276 0.1393,-0.3997l0 3.0522zm2.3439 0c0.2451,-0.0028 0.4353,-0.0716 0.5704,-0.2067 0.1337,-0.1352 0.2275,-0.3168 0.2798,-0.5472 0.0511,-0.2286 0.0758,-0.4851 0.073,-0.7701 0.0028,-0.2812 -0.0219,-0.5376 -0.073,-0.7677 -0.0523,-0.2275 -0.1461,-0.4092 -0.2798,-0.5471 -0.1351,-0.1351 -0.3253,-0.2053 -0.5704,-0.2096 -0.2466,0.0043 -0.4368,0.0745 -0.5705,0.2096 -0.1351,0.1379 -0.2275,0.3196 -0.2783,0.5471 -0.0526,0.2301 -0.0773,0.4865 -0.073,0.7677 -0.0043,0.285 0.0204,0.5415 0.073,0.7701 0.0508,0.2304 0.1432,0.412 0.2783,0.5472 0.1337,0.1351 0.3239,0.2039 0.5705,0.2067zm0 0c0.2451,-0.0028 0.4353,-0.0716 0.5704,-0.2067 0.1337,-0.1352 0.2275,-0.3168 0.2798,-0.5472 0.0511,-0.2286 0.0758,-0.4851 0.073,-0.7701 0.0028,-0.2812 -0.0219,-0.5376 -0.073,-0.7677 -0.0523,-0.2275 -0.1461,-0.4092 -0.2798,-0.5471 -0.1351,-0.1351 -0.3253,-0.2053 -0.5704,-0.2096 -0.2466,0.0043 -0.4368,0.0745 -0.5705,0.2096 -0.1351,0.1379 -0.2275,0.3196 -0.2783,0.5471 -0.0526,0.2301 -0.0773,0.4865 -0.073,0.7677 -0.0043,0.285 0.0204,0.5415 0.073,0.7701 0.0508,0.2304 0.1432,0.412 0.2783,0.5472 0.1337,0.1351 0.3239,0.2039 0.5705,0.2067zm1.9307 -1.5956l1.2319 0 -1.2319 0zm3.121 1.5956c0.2456,-0.0028 0.4357,-0.0716 0.5708,-0.2067 0.1334,-0.1352 0.2272,-0.3168 0.2798,-0.5472 0.0508,-0.2286 0.0755,-0.4851 0.073,-0.7701 0.0025,-0.2812 -0.0222,-0.5376 -0.073,-0.7677 -0.0526,-0.2275 -0.1464,-0.4092 -0.2798,-0.5471 -0.1351,-0.1351 -0.3252,-0.2053 -0.5708,-0.2096 -0.2466,0.0043 -0.4367,0.0745 -0.5704,0.2096 -0.1351,0.1379 -0.2272,0.3196 -0.2783,0.5471 -0.0523,0.2301 -0.0773,0.4865 -0.0731,0.7677 -0.0042,0.285 0.0208,0.5415 0.0731,0.7701 0.0511,0.2304 0.1432,0.412 0.2783,0.5472 0.1337,0.1351 0.3238,0.2039 0.5704,0.2067zm0 0c0.2456,-0.0028 0.4357,-0.0716 0.5708,-0.2067 0.1334,-0.1352 0.2272,-0.3168 0.2798,-0.5472 0.0508,-0.2286 0.0755,-0.4851 0.073,-0.7701 0.0025,-0.2812 -0.0222,-0.5376 -0.073,-0.7677 -0.0526,-0.2275 -0.1464,-0.4092 -0.2798,-0.5471 -0.1351,-0.1351 -0.3252,-0.2053 -0.5708,-0.2096 -0.2466,0.0043 -0.4367,0.0745 -0.5704,0.2096 -0.1351,0.1379 -0.2272,0.3196 -0.2783,0.5471 -0.0523,0.2301 -0.0773,0.4865 -0.0731,0.7677 -0.0042,0.285 0.0208,0.5415 0.0731,0.7701 0.0511,0.2304 0.1432,0.412 0.2783,0.5472 0.1337,0.1351 0.3238,0.2039 0.5704,0.2067zm3.3694 0l0 -3.0522 -1.4386 2.239 1.9801 0 -1.9801 0 1.4386 -2.239 0 3.0522zm0 0z"/>
  </g>
 </g>
</svg>
