  0
SECTION
  2
BLOCKS
  0
ENDSEC
  0
SECTION
  2
ENTITIES
  0
LINE
  8
0
 10
24.1576
 20
-50.9622
 11
24.7991
 21
-50.8346
  0
LINE
  8
0
 10
24.7991
 20
-50.8346
 11
25.4184
 21
-50.6244
  0
LINE
  8
0
 10
25.4184
 20
-50.6244
 11
26.005
 21
-50.3351
  0
LINE
  8
0
 10
26.005
 20
-50.3351
 11
26.5488
 21
-49.9718
  0
LINE
  8
0
 10
26.5488
 20
-49.9718
 11
27.0405
 21
-49.5405
  0
LINE
  8
0
 10
27.0405
 20
-49.5405
 11
27.4718
 21
-49.0488
  0
LINE
  8
0
 10
27.4718
 20
-49.0488
 11
27.8351
 21
-48.505
  0
LINE
  8
0
 10
27.8351
 20
-48.505
 11
28.1244
 21
-47.9184
  0
LINE
  8
0
 10
28.1244
 20
-47.9184
 11
28.3346
 21
-47.2991
  0
LINE
  8
0
 10
28.3346
 20
-47.2991
 11
28.4622
 21
-46.6576
  0
LINE
  8
0
 10
28.4622
 20
-46.6576
 11
28.505
 21
-46.005
  0
LINE
  8
0
 10
28.505
 20
-46.005
 11
28.505
 21
46.005
  0
LINE
  8
0
 10
28.505
 20
46.005
 11
28.4622
 21
46.6576
  0
LINE
  8
0
 10
28.4622
 20
46.6576
 11
28.3346
 21
47.2991
  0
LINE
  8
0
 10
28.3346
 20
47.2991
 11
28.1244
 21
47.9184
  0
LINE
  8
0
 10
28.1244
 20
47.9184
 11
27.8351
 21
48.505
  0
LINE
  8
0
 10
27.8351
 20
48.505
 11
27.4718
 21
49.0488
  0
LINE
  8
0
 10
27.4718
 20
49.0488
 11
27.0405
 21
49.5405
  0
LINE
  8
0
 10
27.0405
 20
49.5405
 11
26.5488
 21
49.9718
  0
LINE
  8
0
 10
26.5488
 20
49.9718
 11
26.005
 21
50.3351
  0
LINE
  8
0
 10
26.005
 20
50.3351
 11
25.4184
 21
50.6244
  0
LINE
  8
0
 10
25.4184
 20
50.6244
 11
24.7991
 21
50.8346
  0
LINE
  8
0
 10
24.7991
 20
50.8346
 11
24.1576
 21
50.9622
  0
LINE
  8
0
 10
24.1576
 20
50.9622
 11
23.505
 21
51.005
  0
LINE
  8
0
 10
23.505
 20
51.005
 11
-23.505
 21
51.005
  0
LINE
  8
0
 10
-23.505
 20
51.005
 11
-24.1576
 21
50.9622
  0
LINE
  8
0
 10
-24.1576
 20
50.9622
 11
-24.7991
 21
50.8346
  0
LINE
  8
0
 10
-24.7991
 20
50.8346
 11
-25.4184
 21
50.6244
  0
LINE
  8
0
 10
-25.4184
 20
50.6244
 11
-26.005
 21
50.3351
  0
LINE
  8
0
 10
-26.005
 20
50.3351
 11
-26.5488
 21
49.9718
  0
LINE
  8
0
 10
-26.5488
 20
49.9718
 11
-27.0405
 21
49.5405
  0
LINE
  8
0
 10
-27.0405
 20
49.5405
 11
-27.4718
 21
49.0488
  0
LINE
  8
0
 10
-27.4718
 20
49.0488
 11
-27.8351
 21
48.505
  0
LINE
  8
0
 10
-27.8351
 20
48.505
 11
-28.1244
 21
47.9184
  0
LINE
  8
0
 10
-28.1244
 20
47.9184
 11
-28.3346
 21
47.2991
  0
LINE
  8
0
 10
-28.3346
 20
47.2991
 11
-28.4622
 21
46.6576
  0
LINE
  8
0
 10
-28.4622
 20
46.6576
 11
-28.505
 21
46.005
  0
LINE
  8
0
 10
-28.505
 20
46.005
 11
-28.505
 21
-46.005
  0
LINE
  8
0
 10
-28.505
 20
-46.005
 11
-28.4622
 21
-46.6576
  0
LINE
  8
0
 10
-28.4622
 20
-46.6576
 11
-28.3346
 21
-47.2991
  0
LINE
  8
0
 10
-28.3346
 20
-47.2991
 11
-28.1244
 21
-47.9184
  0
LINE
  8
0
 10
-28.1244
 20
-47.9184
 11
-27.8351
 21
-48.505
  0
LINE
  8
0
 10
-27.8351
 20
-48.505
 11
-27.4718
 21
-49.0488
  0
LINE
  8
0
 10
-27.4718
 20
-49.0488
 11
-27.0405
 21
-49.5405
  0
LINE
  8
0
 10
-27.0405
 20
-49.5405
 11
-26.5488
 21
-49.9718
  0
LINE
  8
0
 10
-26.5488
 20
-49.9718
 11
-26.005
 21
-50.3351
  0
LINE
  8
0
 10
-26.005
 20
-50.3351
 11
-25.4184
 21
-50.6244
  0
LINE
  8
0
 10
-25.4184
 20
-50.6244
 11
-24.7991
 21
-50.8346
  0
LINE
  8
0
 10
-24.7991
 20
-50.8346
 11
-24.1576
 21
-50.9622
  0
LINE
  8
0
 10
-24.1576
 20
-50.9622
 11
-23.505
 21
-51.005
  0
LINE
  8
0
 10
-23.505
 20
-51.005
 11
23.505
 21
-51.005
  0
LINE
  8
0
 10
23.505
 20
-51.005
 11
24.1576
 21
-50.9622
  0
LINE
  8
0
 10
-22.8916
 20
42.0257
 11
-23.2764
 21
42.1022
  0
LINE
  8
0
 10
-23.2764
 20
42.1022
 11
-23.648
 21
42.2284
  0
LINE
  8
0
 10
-23.648
 20
42.2284
 11
-24
 21
42.4019
  0
LINE
  8
0
 10
-24
 20
42.4019
 11
-24.3263
 21
42.6199
  0
LINE
  8
0
 10
-24.3263
 20
42.6199
 11
-24.6213
 21
42.8787
  0
LINE
  8
0
 10
-24.6213
 20
42.8787
 11
-24.8801
 21
43.1737
  0
LINE
  8
0
 10
-24.8801
 20
43.1737
 11
-25.0981
 21
43.5
  0
LINE
  8
0
 10
-25.0981
 20
43.5
 11
-25.2716
 21
43.8519
  0
LINE
  8
0
 10
-25.2716
 20
43.8519
 11
-25.3978
 21
44.2235
  0
LINE
  8
0
 10
-25.3978
 20
44.2235
 11
-25.4743
 21
44.6084
  0
LINE
  8
0
 10
-25.4743
 20
44.6084
 11
-25.5
 21
45
  0
LINE
  8
0
 10
-25.5
 20
45
 11
-25.4743
 21
45.3916
  0
LINE
  8
0
 10
-25.4743
 20
45.3916
 11
-25.3978
 21
45.7765
  0
LINE
  8
0
 10
-25.3978
 20
45.7765
 11
-25.2716
 21
46.148
  0
LINE
  8
0
 10
-25.2716
 20
46.148
 11
-25.0981
 21
46.5
  0
LINE
  8
0
 10
-25.0981
 20
46.5
 11
-24.8801
 21
46.8263
  0
LINE
  8
0
 10
-24.8801
 20
46.8263
 11
-24.6213
 21
47.1213
  0
LINE
  8
0
 10
-24.6213
 20
47.1213
 11
-24.3263
 21
47.3801
  0
LINE
  8
0
 10
-24.3263
 20
47.3801
 11
-24
 21
47.5981
  0
LINE
  8
0
 10
-24
 20
47.5981
 11
-23.648
 21
47.7716
  0
LINE
  8
0
 10
-23.648
 20
47.7716
 11
-23.2764
 21
47.8978
  0
LINE
  8
0
 10
-23.2764
 20
47.8978
 11
-22.8916
 21
47.9743
  0
LINE
  8
0
 10
-22.8916
 20
47.9743
 11
-22.5
 21
48
  0
LINE
  8
0
 10
-22.5
 20
48
 11
-22.1084
 21
47.9743
  0
LINE
  8
0
 10
-22.1084
 20
47.9743
 11
-21.7235
 21
47.8978
  0
LINE
  8
0
 10
-21.7235
 20
47.8978
 11
-21.3519
 21
47.7716
  0
LINE
  8
0
 10
-21.3519
 20
47.7716
 11
-21
 21
47.5981
  0
LINE
  8
0
 10
-21
 20
47.5981
 11
-20.6737
 21
47.3801
  0
LINE
  8
0
 10
-20.6737
 20
47.3801
 11
-20.3787
 21
47.1213
  0
LINE
  8
0
 10
-20.3787
 20
47.1213
 11
-20.1199
 21
46.8263
  0
LINE
  8
0
 10
-20.1199
 20
46.8263
 11
-19.9019
 21
46.5
  0
LINE
  8
0
 10
-19.9019
 20
46.5
 11
-19.7283
 21
46.148
  0
LINE
  8
0
 10
-19.7283
 20
46.148
 11
-19.6022
 21
45.7765
  0
LINE
  8
0
 10
-19.6022
 20
45.7765
 11
-19.5257
 21
45.3916
  0
LINE
  8
0
 10
-19.5257
 20
45.3916
 11
-19.5
 21
45
  0
LINE
  8
0
 10
-19.5
 20
45
 11
-19.5257
 21
44.6084
  0
LINE
  8
0
 10
-19.5257
 20
44.6084
 11
-19.6022
 21
44.2235
  0
LINE
  8
0
 10
-19.6022
 20
44.2235
 11
-19.7283
 21
43.8519
  0
LINE
  8
0
 10
-19.7283
 20
43.8519
 11
-19.9019
 21
43.5
  0
LINE
  8
0
 10
-19.9019
 20
43.5
 11
-20.1199
 21
43.1737
  0
LINE
  8
0
 10
-20.1199
 20
43.1737
 11
-20.3787
 21
42.8787
  0
LINE
  8
0
 10
-20.3787
 20
42.8787
 11
-20.6737
 21
42.6199
  0
LINE
  8
0
 10
-20.6737
 20
42.6199
 11
-21
 21
42.4019
  0
LINE
  8
0
 10
-21
 20
42.4019
 11
-21.3519
 21
42.2284
  0
LINE
  8
0
 10
-21.3519
 20
42.2284
 11
-21.7235
 21
42.1022
  0
LINE
  8
0
 10
-21.7235
 20
42.1022
 11
-22.1084
 21
42.0257
  0
LINE
  8
0
 10
-22.1084
 20
42.0257
 11
-22.5
 21
42
  0
LINE
  8
0
 10
-22.5
 20
42
 11
-22.8916
 21
42.0257
  0
LINE
  8
0
 10
-7.89157
 20
42.0257
 11
-8.27644
 21
42.1022
  0
LINE
  8
0
 10
-8.27644
 20
42.1022
 11
-8.64804
 21
42.2284
  0
LINE
  8
0
 10
-8.64804
 20
42.2284
 11
-9
 21
42.4019
  0
LINE
  8
0
 10
-9
 20
42.4019
 11
-9.32628
 21
42.6199
  0
LINE
  8
0
 10
-9.32628
 20
42.6199
 11
-9.62131
 21
42.8787
  0
LINE
  8
0
 10
-9.62131
 20
42.8787
 11
-9.88005
 21
43.1737
  0
LINE
  8
0
 10
-9.88005
 20
43.1737
 11
-10.0981
 21
43.5
  0
LINE
  8
0
 10
-10.0981
 20
43.5
 11
-10.2716
 21
43.8519
  0
LINE
  8
0
 10
-10.2716
 20
43.8519
 11
-10.3978
 21
44.2235
  0
LINE
  8
0
 10
-10.3978
 20
44.2235
 11
-10.4743
 21
44.6084
  0
LINE
  8
0
 10
-10.4743
 20
44.6084
 11
-10.5
 21
45
  0
LINE
  8
0
 10
-10.5
 20
45
 11
-10.4743
 21
45.3916
  0
LINE
  8
0
 10
-10.4743
 20
45.3916
 11
-10.3978
 21
45.7765
  0
LINE
  8
0
 10
-10.3978
 20
45.7765
 11
-10.2716
 21
46.148
  0
LINE
  8
0
 10
-10.2716
 20
46.148
 11
-10.0981
 21
46.5
  0
LINE
  8
0
 10
-10.0981
 20
46.5
 11
-9.88005
 21
46.8263
  0
LINE
  8
0
 10
-9.88005
 20
46.8263
 11
-9.62131
 21
47.1213
  0
LINE
  8
0
 10
-9.62131
 20
47.1213
 11
-9.32628
 21
47.3801
  0
LINE
  8
0
 10
-9.32628
 20
47.3801
 11
-9
 21
47.5981
  0
LINE
  8
0
 10
-9
 20
47.5981
 11
-8.64804
 21
47.7716
  0
LINE
  8
0
 10
-8.64804
 20
47.7716
 11
-8.27644
 21
47.8978
  0
LINE
  8
0
 10
-8.27644
 20
47.8978
 11
-7.89157
 21
47.9743
  0
LINE
  8
0
 10
-7.89157
 20
47.9743
 11
-7.5
 21
48
  0
LINE
  8
0
 10
-7.5
 20
48
 11
-7.10841
 21
47.9743
  0
LINE
  8
0
 10
-7.10841
 20
47.9743
 11
-6.72354
 21
47.8978
  0
LINE
  8
0
 10
-6.72354
 20
47.8978
 11
-6.35194
 21
47.7716
  0
LINE
  8
0
 10
-6.35194
 20
47.7716
 11
-6
 21
47.5981
  0
LINE
  8
0
 10
-6
 20
47.5981
 11
-5.67371
 21
47.3801
  0
LINE
  8
0
 10
-5.67371
 20
47.3801
 11
-5.37868
 21
47.1213
  0
LINE
  8
0
 10
-5.37868
 20
47.1213
 11
-5.11993
 21
46.8263
  0
LINE
  8
0
 10
-5.11993
 20
46.8263
 11
-4.90192
 21
46.5
  0
LINE
  8
0
 10
-4.90192
 20
46.5
 11
-4.72835
 21
46.148
  0
LINE
  8
0
 10
-4.72835
 20
46.148
 11
-4.60222
 21
45.7765
  0
LINE
  8
0
 10
-4.60222
 20
45.7765
 11
-4.52567
 21
45.3916
  0
LINE
  8
0
 10
-4.52567
 20
45.3916
 11
-4.5
 21
45
  0
LINE
  8
0
 10
-4.5
 20
45
 11
-4.52567
 21
44.6084
  0
LINE
  8
0
 10
-4.52567
 20
44.6084
 11
-4.60222
 21
44.2235
  0
LINE
  8
0
 10
-4.60222
 20
44.2235
 11
-4.72835
 21
43.8519
  0
LINE
  8
0
 10
-4.72835
 20
43.8519
 11
-4.90192
 21
43.5
  0
LINE
  8
0
 10
-4.90192
 20
43.5
 11
-5.11993
 21
43.1737
  0
LINE
  8
0
 10
-5.11993
 20
43.1737
 11
-5.37868
 21
42.8787
  0
LINE
  8
0
 10
-5.37868
 20
42.8787
 11
-5.67371
 21
42.6199
  0
LINE
  8
0
 10
-5.67371
 20
42.6199
 11
-6
 21
42.4019
  0
LINE
  8
0
 10
-6
 20
42.4019
 11
-6.35194
 21
42.2284
  0
LINE
  8
0
 10
-6.35194
 20
42.2284
 11
-6.72354
 21
42.1022
  0
LINE
  8
0
 10
-6.72354
 20
42.1022
 11
-7.10841
 21
42.0257
  0
LINE
  8
0
 10
-7.10841
 20
42.0257
 11
-7.5
 21
42
  0
LINE
  8
0
 10
-7.5
 20
42
 11
-7.89157
 21
42.0257
  0
LINE
  8
0
 10
7.10841
 20
42.0257
 11
6.72354
 21
42.1022
  0
LINE
  8
0
 10
6.72354
 20
42.1022
 11
6.35194
 21
42.2284
  0
LINE
  8
0
 10
6.35194
 20
42.2284
 11
6
 21
42.4019
  0
LINE
  8
0
 10
6
 20
42.4019
 11
5.67371
 21
42.6199
  0
LINE
  8
0
 10
5.67371
 20
42.6199
 11
5.37868
 21
42.8787
  0
LINE
  8
0
 10
5.37868
 20
42.8787
 11
5.11993
 21
43.1737
  0
LINE
  8
0
 10
5.11993
 20
43.1737
 11
4.90192
 21
43.5
  0
LINE
  8
0
 10
4.90192
 20
43.5
 11
4.72835
 21
43.8519
  0
LINE
  8
0
 10
4.72835
 20
43.8519
 11
4.60222
 21
44.2235
  0
LINE
  8
0
 10
4.60222
 20
44.2235
 11
4.52567
 21
44.6084
  0
LINE
  8
0
 10
4.52567
 20
44.6084
 11
4.5
 21
45
  0
LINE
  8
0
 10
4.5
 20
45
 11
4.52567
 21
45.3916
  0
LINE
  8
0
 10
4.52567
 20
45.3916
 11
4.60222
 21
45.7765
  0
LINE
  8
0
 10
4.60222
 20
45.7765
 11
4.72835
 21
46.148
  0
LINE
  8
0
 10
4.72835
 20
46.148
 11
4.90192
 21
46.5
  0
LINE
  8
0
 10
4.90192
 20
46.5
 11
5.11993
 21
46.8263
  0
LINE
  8
0
 10
5.11993
 20
46.8263
 11
5.37868
 21
47.1213
  0
LINE
  8
0
 10
5.37868
 20
47.1213
 11
5.67371
 21
47.3801
  0
LINE
  8
0
 10
5.67371
 20
47.3801
 11
6
 21
47.5981
  0
LINE
  8
0
 10
6
 20
47.5981
 11
6.35194
 21
47.7716
  0
LINE
  8
0
 10
6.35194
 20
47.7716
 11
6.72354
 21
47.8978
  0
LINE
  8
0
 10
6.72354
 20
47.8978
 11
7.10841
 21
47.9743
  0
LINE
  8
0
 10
7.10841
 20
47.9743
 11
7.5
 21
48
  0
LINE
  8
0
 10
7.5
 20
48
 11
7.89157
 21
47.9743
  0
LINE
  8
0
 10
7.89157
 20
47.9743
 11
8.27644
 21
47.8978
  0
LINE
  8
0
 10
8.27644
 20
47.8978
 11
8.64804
 21
47.7716
  0
LINE
  8
0
 10
8.64804
 20
47.7716
 11
9
 21
47.5981
  0
LINE
  8
0
 10
9
 20
47.5981
 11
9.32628
 21
47.3801
  0
LINE
  8
0
 10
9.32628
 20
47.3801
 11
9.62131
 21
47.1213
  0
LINE
  8
0
 10
9.62131
 20
47.1213
 11
9.88005
 21
46.8263
  0
LINE
  8
0
 10
9.88005
 20
46.8263
 11
10.0981
 21
46.5
  0
LINE
  8
0
 10
10.0981
 20
46.5
 11
10.2716
 21
46.148
  0
LINE
  8
0
 10
10.2716
 20
46.148
 11
10.3978
 21
45.7765
  0
LINE
  8
0
 10
10.3978
 20
45.7765
 11
10.4743
 21
45.3916
  0
LINE
  8
0
 10
10.4743
 20
45.3916
 11
10.5
 21
45
  0
LINE
  8
0
 10
10.5
 20
45
 11
10.4743
 21
44.6084
  0
LINE
  8
0
 10
10.4743
 20
44.6084
 11
10.3978
 21
44.2235
  0
LINE
  8
0
 10
10.3978
 20
44.2235
 11
10.2716
 21
43.8519
  0
LINE
  8
0
 10
10.2716
 20
43.8519
 11
10.0981
 21
43.5
  0
LINE
  8
0
 10
10.0981
 20
43.5
 11
9.88005
 21
43.1737
  0
LINE
  8
0
 10
9.88005
 20
43.1737
 11
9.62131
 21
42.8787
  0
LINE
  8
0
 10
9.62131
 20
42.8787
 11
9.32628
 21
42.6199
  0
LINE
  8
0
 10
9.32628
 20
42.6199
 11
9
 21
42.4019
  0
LINE
  8
0
 10
9
 20
42.4019
 11
8.64804
 21
42.2284
  0
LINE
  8
0
 10
8.64804
 20
42.2284
 11
8.27644
 21
42.1022
  0
LINE
  8
0
 10
8.27644
 20
42.1022
 11
7.89157
 21
42.0257
  0
LINE
  8
0
 10
7.89157
 20
42.0257
 11
7.5
 21
42
  0
LINE
  8
0
 10
7.5
 20
42
 11
7.10841
 21
42.0257
  0
LINE
  8
0
 10
22.1084
 20
42.0257
 11
21.7235
 21
42.1022
  0
LINE
  8
0
 10
21.7235
 20
42.1022
 11
21.3519
 21
42.2284
  0
LINE
  8
0
 10
21.3519
 20
42.2284
 11
21
 21
42.4019
  0
LINE
  8
0
 10
21
 20
42.4019
 11
20.6737
 21
42.6199
  0
LINE
  8
0
 10
20.6737
 20
42.6199
 11
20.3787
 21
42.8787
  0
LINE
  8
0
 10
20.3787
 20
42.8787
 11
20.1199
 21
43.1737
  0
LINE
  8
0
 10
20.1199
 20
43.1737
 11
19.9019
 21
43.5
  0
LINE
  8
0
 10
19.9019
 20
43.5
 11
19.7283
 21
43.8519
  0
LINE
  8
0
 10
19.7283
 20
43.8519
 11
19.6022
 21
44.2235
  0
LINE
  8
0
 10
19.6022
 20
44.2235
 11
19.5257
 21
44.6084
  0
LINE
  8
0
 10
19.5257
 20
44.6084
 11
19.5
 21
45
  0
LINE
  8
0
 10
19.5
 20
45
 11
19.5257
 21
45.3916
  0
LINE
  8
0
 10
19.5257
 20
45.3916
 11
19.6022
 21
45.7765
  0
LINE
  8
0
 10
19.6022
 20
45.7765
 11
19.7283
 21
46.148
  0
LINE
  8
0
 10
19.7283
 20
46.148
 11
19.9019
 21
46.5
  0
LINE
  8
0
 10
19.9019
 20
46.5
 11
20.1199
 21
46.8263
  0
LINE
  8
0
 10
20.1199
 20
46.8263
 11
20.3787
 21
47.1213
  0
LINE
  8
0
 10
20.3787
 20
47.1213
 11
20.6737
 21
47.3801
  0
LINE
  8
0
 10
20.6737
 20
47.3801
 11
21
 21
47.5981
  0
LINE
  8
0
 10
21
 20
47.5981
 11
21.3519
 21
47.7716
  0
LINE
  8
0
 10
21.3519
 20
47.7716
 11
21.7235
 21
47.8978
  0
LINE
  8
0
 10
21.7235
 20
47.8978
 11
22.1084
 21
47.9743
  0
LINE
  8
0
 10
22.1084
 20
47.9743
 11
22.5
 21
48
  0
LINE
  8
0
 10
22.5
 20
48
 11
22.8916
 21
47.9743
  0
LINE
  8
0
 10
22.8916
 20
47.9743
 11
23.2764
 21
47.8978
  0
LINE
  8
0
 10
23.2764
 20
47.8978
 11
23.648
 21
47.7716
  0
LINE
  8
0
 10
23.648
 20
47.7716
 11
24
 21
47.5981
  0
LINE
  8
0
 10
24
 20
47.5981
 11
24.3263
 21
47.3801
  0
LINE
  8
0
 10
24.3263
 20
47.3801
 11
24.6213
 21
47.1213
  0
LINE
  8
0
 10
24.6213
 20
47.1213
 11
24.8801
 21
46.8263
  0
LINE
  8
0
 10
24.8801
 20
46.8263
 11
25.0981
 21
46.5
  0
LINE
  8
0
 10
25.0981
 20
46.5
 11
25.2716
 21
46.148
  0
LINE
  8
0
 10
25.2716
 20
46.148
 11
25.3978
 21
45.7765
  0
LINE
  8
0
 10
25.3978
 20
45.7765
 11
25.4743
 21
45.3916
  0
LINE
  8
0
 10
25.4743
 20
45.3916
 11
25.5
 21
45
  0
LINE
  8
0
 10
25.5
 20
45
 11
25.4743
 21
44.6084
  0
LINE
  8
0
 10
25.4743
 20
44.6084
 11
25.3978
 21
44.2235
  0
LINE
  8
0
 10
25.3978
 20
44.2235
 11
25.2716
 21
43.8519
  0
LINE
  8
0
 10
25.2716
 20
43.8519
 11
25.0981
 21
43.5
  0
LINE
  8
0
 10
25.0981
 20
43.5
 11
24.8801
 21
43.1737
  0
LINE
  8
0
 10
24.8801
 20
43.1737
 11
24.6213
 21
42.8787
  0
LINE
  8
0
 10
24.6213
 20
42.8787
 11
24.3263
 21
42.6199
  0
LINE
  8
0
 10
24.3263
 20
42.6199
 11
24
 21
42.4019
  0
LINE
  8
0
 10
24
 20
42.4019
 11
23.648
 21
42.2284
  0
LINE
  8
0
 10
23.648
 20
42.2284
 11
23.2764
 21
42.1022
  0
LINE
  8
0
 10
23.2764
 20
42.1022
 11
22.8916
 21
42.0257
  0
LINE
  8
0
 10
22.8916
 20
42.0257
 11
22.5
 21
42
  0
LINE
  8
0
 10
22.5
 20
42
 11
22.1084
 21
42.0257
  0
ENDSEC
  0
SECTION
  2
OBJECTS
  0
DICTIONARY
  0
ENDSEC
  0
EOF
