<?xml version="1.0" standalone="no"?>
<!DOCTYPE svg PUBLIC "-//W3C//DTD SVG 1.1//EN" "http://www.w3.org/Graphics/SVG/1.1/DTD/svg11.dtd">
<svg width="58mm" height="104mm" viewBox="-29 -52 58 104" xmlns="http://www.w3.org/2000/svg" version="1.1">
<title>OpenSCAD Model</title>
<path d="
M 24.1576,50.9622 L 24.7991,50.8346 L 25.4184,50.6244 L 26.005,50.3351 L 26.5488,49.9718 L 27.0405,49.5405
 L 27.4718,49.0488 L 27.8351,48.505 L 28.1244,47.9184 L 28.3346,47.2991 L 28.4622,46.6576 L 28.505,46.005
 L 28.505,-46.005 L 28.4622,-46.6576 L 28.3346,-47.2991 L 28.1244,-47.9184 L 27.8351,-48.505 L 27.4718,-49.0488
 L 27.0405,-49.5405 L 26.5488,-49.9718 L 26.005,-50.3351 L 25.4184,-50.6244 L 24.7991,-50.8346 L 24.1576,-50.9622
 L 23.505,-51.005 L -23.505,-51.005 L -24.1576,-50.9622 L -24.7991,-50.8346 L -25.4184,-50.6244 L -26.005,-50.3351
 L -26.5488,-49.9718 L -27.0405,-49.5405 L -27.4718,-49.0488 L -27.8351,-48.505 L -28.1244,-47.9184 L -28.3346,-47.2991
 L -28.4622,-46.6576 L -28.505,-46.005 L -28.505,46.005 L -28.4622,46.6576 L -28.3346,47.2991 L -28.1244,47.9184
 L -27.8351,48.505 L -27.4718,49.0488 L -27.0405,49.5405 L -26.5488,49.9718 L -26.005,50.3351 L -25.4184,50.6244
 L -24.7991,50.8346 L -24.1576,50.9622 L -23.505,51.005 L 23.505,51.005 z
M -22.9242,-41.7778 L -23.3412,-41.8607 L -23.7437,-41.9974 L -24.125,-42.1854 L -24.4785,-42.4216 L -24.7981,-42.7019
 L -25.0784,-43.0215 L -25.3146,-43.375 L -25.5026,-43.7563 L -25.6393,-44.1588 L -25.7222,-44.5758 L -25.75,-45
 L -25.7222,-45.4242 L -25.6393,-45.8412 L -25.5026,-46.2437 L -25.3146,-46.625 L -25.0784,-46.9785 L -24.7981,-47.2981
 L -24.4785,-47.5784 L -24.125,-47.8146 L -23.7437,-48.0026 L -23.3412,-48.1393 L -22.9242,-48.2222 L -22.5,-48.25
 L -22.0758,-48.2222 L -21.6588,-48.1393 L -21.2563,-48.0026 L -20.875,-47.8146 L -20.5215,-47.5784 L -20.2019,-47.2981
 L -19.9216,-46.9785 L -19.6854,-46.625 L -19.4974,-46.2437 L -19.3607,-45.8412 L -19.2778,-45.4242 L -19.25,-45
 L -19.2778,-44.5758 L -19.3607,-44.1588 L -19.4974,-43.7563 L -19.6854,-43.375 L -19.9216,-43.0215 L -20.2019,-42.7019
 L -20.5215,-42.4216 L -20.875,-42.1854 L -21.2563,-41.9974 L -21.6588,-41.8607 L -22.0758,-41.7778 L -22.5,-41.75
 z
M -7.92421,-41.7778 L -8.34116,-41.8607 L -8.74371,-41.9974 L -9.125,-42.1854 L -9.47847,-42.4216 L -9.7981,-42.7019
 L -10.0784,-43.0215 L -10.3146,-43.375 L -10.5026,-43.7563 L -10.6393,-44.1588 L -10.7222,-44.5758 L -10.75,-45
 L -10.7222,-45.4242 L -10.6393,-45.8412 L -10.5026,-46.2437 L -10.3146,-46.625 L -10.0784,-46.9785 L -9.7981,-47.2981
 L -9.47847,-47.5784 L -9.125,-47.8146 L -8.74371,-48.0026 L -8.34116,-48.1393 L -7.92421,-48.2222 L -7.5,-48.25
 L -7.07578,-48.2222 L -6.65883,-48.1393 L -6.25627,-48.0026 L -5.875,-47.8146 L -5.52151,-47.5784 L -5.20189,-47.2981
 L -4.9216,-46.9785 L -4.68541,-46.625 L -4.49739,-46.2437 L -4.36073,-45.8412 L -4.2778,-45.4242 L -4.25,-45
 L -4.2778,-44.5758 L -4.36073,-44.1588 L -4.49739,-43.7563 L -4.68541,-43.375 L -4.9216,-43.0215 L -5.20189,-42.7019
 L -5.52151,-42.4216 L -5.875,-42.1854 L -6.25627,-41.9974 L -6.65883,-41.8607 L -7.07578,-41.7778 L -7.5,-41.75
 z
M 7.07578,-41.7778 L 6.65883,-41.8607 L 6.25627,-41.9974 L 5.875,-42.1854 L 5.52151,-42.4216 L 5.20189,-42.7019
 L 4.9216,-43.0215 L 4.68541,-43.375 L 4.49739,-43.7563 L 4.36073,-44.1588 L 4.2778,-44.5758 L 4.25,-45
 L 4.2778,-45.4242 L 4.36073,-45.8412 L 4.49739,-46.2437 L 4.68541,-46.625 L 4.9216,-46.9785 L 5.20189,-47.2981
 L 5.52151,-47.5784 L 5.875,-47.8146 L 6.25627,-48.0026 L 6.65883,-48.1393 L 7.07578,-48.2222 L 7.5,-48.25
 L 7.92421,-48.2222 L 8.34116,-48.1393 L 8.74371,-48.0026 L 9.125,-47.8146 L 9.47847,-47.5784 L 9.7981,-47.2981
 L 10.0784,-46.9785 L 10.3146,-46.625 L 10.5026,-46.2437 L 10.6393,-45.8412 L 10.7222,-45.4242 L 10.75,-45
 L 10.7222,-44.5758 L 10.6393,-44.1588 L 10.5026,-43.7563 L 10.3146,-43.375 L 10.0784,-43.0215 L 9.7981,-42.7019
 L 9.47847,-42.4216 L 9.125,-42.1854 L 8.74371,-41.9974 L 8.34116,-41.8607 L 7.92421,-41.7778 L 7.5,-41.75
 z
M 22.0758,-41.7778 L 21.6588,-41.8607 L 21.2563,-41.9974 L 20.875,-42.1854 L 20.5215,-42.4216 L 20.2019,-42.7019
 L 19.9216,-43.0215 L 19.6854,-43.375 L 19.4974,-43.7563 L 19.3607,-44.1588 L 19.2778,-44.5758 L 19.25,-45
 L 19.2778,-45.4242 L 19.3607,-45.8412 L 19.4974,-46.2437 L 19.6854,-46.625 L 19.9216,-46.9785 L 20.2019,-47.2981
 L 20.5215,-47.5784 L 20.875,-47.8146 L 21.2563,-48.0026 L 21.6588,-48.1393 L 22.0758,-48.2222 L 22.5,-48.25
 L 22.9242,-48.2222 L 23.3412,-48.1393 L 23.7437,-48.0026 L 24.125,-47.8146 L 24.4785,-47.5784 L 24.7981,-47.2981
 L 25.0784,-46.9785 L 25.3146,-46.625 L 25.5026,-46.2437 L 25.6393,-45.8412 L 25.7222,-45.4242 L 25.75,-45
 L 25.7222,-44.5758 L 25.6393,-44.1588 L 25.5026,-43.7563 L 25.3146,-43.375 L 25.0784,-43.0215 L 24.7981,-42.7019
 L 24.4785,-42.4216 L 24.125,-42.1854 L 23.7437,-41.9974 L 23.3412,-41.8607 L 22.9242,-41.7778 L 22.5,-41.75
 z
" stroke="black" fill="lightgray" stroke-width="0.5"/>
</svg>
