<?xml version="1.0" standalone="no"?>
<!DOCTYPE svg PUBLIC "-//W3C//DTD SVG 1.1//EN" "http://www.w3.org/Graphics/SVG/1.1/DTD/svg11.dtd">
<svg width="58mm" height="104mm" viewBox="-29 -52 58 104" xmlns="http://www.w3.org/2000/svg" version="1.1">
<title>OpenSCAD Model</title>
<path d="
M 24.1576,50.9622 L 24.7991,50.8346 L 25.4184,50.6244 L 26.005,50.3351 L 26.5488,49.9718 L 27.0405,49.5405
 L 27.4718,49.0488 L 27.8351,48.505 L 28.1244,47.9184 L 28.3346,47.2991 L 28.4622,46.6576 L 28.505,46.005
 L 28.505,-46.005 L 28.4622,-46.6576 L 28.3346,-47.2991 L 28.1244,-47.9184 L 27.8351,-48.505 L 27.4718,-49.0488
 L 27.0405,-49.5405 L 26.5488,-49.9718 L 26.005,-50.3351 L 25.4184,-50.6244 L 24.7991,-50.8346 L 24.1576,-50.9622
 L 23.505,-51.005 L -23.505,-51.005 L -24.1576,-50.9622 L -24.7991,-50.8346 L -25.4184,-50.6244 L -26.005,-50.3351
 L -26.5488,-49.9718 L -27.0405,-49.5405 L -27.4718,-49.0488 L -27.8351,-48.505 L -28.1244,-47.9184 L -28.3346,-47.2991
 L -28.4622,-46.6576 L -28.505,-46.005 L -28.505,46.005 L -28.4622,46.6576 L -28.3346,47.2991 L -28.1244,47.9184
 L -27.8351,48.505 L -27.4718,49.0488 L -27.0405,49.5405 L -26.5488,49.9718 L -26.005,50.3351 L -25.4184,50.6244
 L -24.7991,50.8346 L -24.1576,50.9622 L -23.505,51.005 L 23.505,51.005 z
M -22.8916,-42.0257 L -23.2764,-42.1022 L -23.648,-42.2284 L -24,-42.4019 L -24.3263,-42.6199 L -24.6213,-42.8787
 L -24.8801,-43.1737 L -25.0981,-43.5 L -25.2716,-43.8519 L -25.3978,-44.2235 L -25.4743,-44.6084 L -25.5,-45
 L -25.4743,-45.3916 L -25.3978,-45.7765 L -25.2716,-46.148 L -25.0981,-46.5 L -24.8801,-46.8263 L -24.6213,-47.1213
 L -24.3263,-47.3801 L -24,-47.5981 L -23.648,-47.7716 L -23.2764,-47.8978 L -22.8916,-47.9743 L -22.5,-48
 L -22.1084,-47.9743 L -21.7235,-47.8978 L -21.3519,-47.7716 L -21,-47.5981 L -20.6737,-47.3801 L -20.3787,-47.1213
 L -20.1199,-46.8263 L -19.9019,-46.5 L -19.7283,-46.148 L -19.6022,-45.7765 L -19.5257,-45.3916 L -19.5,-45
 L -19.5257,-44.6084 L -19.6022,-44.2235 L -19.7283,-43.8519 L -19.9019,-43.5 L -20.1199,-43.1737 L -20.3787,-42.8787
 L -20.6737,-42.6199 L -21,-42.4019 L -21.3519,-42.2284 L -21.7235,-42.1022 L -22.1084,-42.0257 L -22.5,-42
 z
M -7.89157,-42.0257 L -8.27644,-42.1022 L -8.64804,-42.2284 L -9,-42.4019 L -9.32628,-42.6199 L -9.62131,-42.8787
 L -9.88005,-43.1737 L -10.0981,-43.5 L -10.2716,-43.8519 L -10.3978,-44.2235 L -10.4743,-44.6084 L -10.5,-45
 L -10.4743,-45.3916 L -10.3978,-45.7765 L -10.2716,-46.148 L -10.0981,-46.5 L -9.88005,-46.8263 L -9.62131,-47.1213
 L -9.32628,-47.3801 L -9,-47.5981 L -8.64804,-47.7716 L -8.27644,-47.8978 L -7.89157,-47.9743 L -7.5,-48
 L -7.10841,-47.9743 L -6.72354,-47.8978 L -6.35194,-47.7716 L -6,-47.5981 L -5.67371,-47.3801 L -5.37868,-47.1213
 L -5.11993,-46.8263 L -4.90192,-46.5 L -4.72835,-46.148 L -4.60222,-45.7765 L -4.52567,-45.3916 L -4.5,-45
 L -4.52567,-44.6084 L -4.60222,-44.2235 L -4.72835,-43.8519 L -4.90192,-43.5 L -5.11993,-43.1737 L -5.37868,-42.8787
 L -5.67371,-42.6199 L -6,-42.4019 L -6.35194,-42.2284 L -6.72354,-42.1022 L -7.10841,-42.0257 L -7.5,-42
 z
M 7.10841,-42.0257 L 6.72354,-42.1022 L 6.35194,-42.2284 L 6,-42.4019 L 5.67371,-42.6199 L 5.37868,-42.8787
 L 5.11993,-43.1737 L 4.90192,-43.5 L 4.72835,-43.8519 L 4.60222,-44.2235 L 4.52567,-44.6084 L 4.5,-45
 L 4.52567,-45.3916 L 4.60222,-45.7765 L 4.72835,-46.148 L 4.90192,-46.5 L 5.11993,-46.8263 L 5.37868,-47.1213
 L 5.67371,-47.3801 L 6,-47.5981 L 6.35194,-47.7716 L 6.72354,-47.8978 L 7.10841,-47.9743 L 7.5,-48
 L 7.89157,-47.9743 L 8.27644,-47.8978 L 8.64804,-47.7716 L 9,-47.5981 L 9.32628,-47.3801 L 9.62131,-47.1213
 L 9.88005,-46.8263 L 10.0981,-46.5 L 10.2716,-46.148 L 10.3978,-45.7765 L 10.4743,-45.3916 L 10.5,-45
 L 10.4743,-44.6084 L 10.3978,-44.2235 L 10.2716,-43.8519 L 10.0981,-43.5 L 9.88005,-43.1737 L 9.62131,-42.8787
 L 9.32628,-42.6199 L 9,-42.4019 L 8.64804,-42.2284 L 8.27644,-42.1022 L 7.89157,-42.0257 L 7.5,-42
 z
M 22.1084,-42.0257 L 21.7235,-42.1022 L 21.3519,-42.2284 L 21,-42.4019 L 20.6737,-42.6199 L 20.3787,-42.8787
 L 20.1199,-43.1737 L 19.9019,-43.5 L 19.7283,-43.8519 L 19.6022,-44.2235 L 19.5257,-44.6084 L 19.5,-45
 L 19.5257,-45.3916 L 19.6022,-45.7765 L 19.7283,-46.148 L 19.9019,-46.5 L 20.1199,-46.8263 L 20.3787,-47.1213
 L 20.6737,-47.3801 L 21,-47.5981 L 21.3519,-47.7716 L 21.7235,-47.8978 L 22.1084,-47.9743 L 22.5,-48
 L 22.8916,-47.9743 L 23.2764,-47.8978 L 23.648,-47.7716 L 24,-47.5981 L 24.3263,-47.3801 L 24.6213,-47.1213
 L 24.8801,-46.8263 L 25.0981,-46.5 L 25.2716,-46.148 L 25.3978,-45.7765 L 25.4743,-45.3916 L 25.5,-45
 L 25.4743,-44.6084 L 25.3978,-44.2235 L 25.2716,-43.8519 L 25.0981,-43.5 L 24.8801,-43.1737 L 24.6213,-42.8787
 L 24.3263,-42.6199 L 24,-42.4019 L 23.648,-42.2284 L 23.2764,-42.1022 L 22.8916,-42.0257 L 22.5,-42
 z
" stroke="black" fill="lightgray" stroke-width="0.5"/>
</svg>
