<?xml version="1.0" standalone="no"?>
<!DOCTYPE svg PUBLIC "-//W3C//DTD SVG 1.1//EN" "http://www.w3.org/Graphics/SVG/1.1/DTD/svg11.dtd">
<svg width="147mm" height="147mm" viewBox="9 -156 147 147" xmlns="http://www.w3.org/2000/svg" version="1.1">
<title>OpenSCAD Model</title>
<path d="
M 151,-9.02962 L 151.314,-9.00986 L 152.545,-9.24471 L 153.679,-9.77835 L 154.645,-10.5773 L 155.382,-11.5912
 L 155.843,-12.7565 L 156,-14 L 156,-151 L 155.843,-152.243 L 155.382,-153.409 L 154.645,-154.423
 L 153.679,-155.222 L 152.545,-155.755 L 151.314,-155.99 L 151,-155.97 L 151,-156 L 14,-156
 L 14,-155.97 L 13.0631,-155.911 L 11.8711,-155.524 L 10.8129,-154.853 L 9.95491,-153.939 L 9.3511,-152.841
 L 9.03941,-151.627 L 9.03941,-151 L 9,-151 L 9,-14 L 9.03941,-14 L 9.03941,-13.3733
 L 9.3511,-12.1594 L 9.95491,-11.0611 L 10.8129,-10.1474 L 11.8711,-9.47586 L 13.0631,-9.08856 L 14,-9.02962
 L 14,-9 L 151,-9 z
" stroke="black" fill="lightgray" stroke-width="0.5"/>
</svg>
