  0
SECTION
  2
BLOCKS
  0
ENDSEC
  0
SECTION
  2
ENTITIES
  0
LINE
  8
0
 10
151
 20
9.02962
 11
151.314
 21
9.00986
  0
LINE
  8
0
 10
151.314
 20
9.00986
 11
152.545
 21
9.24471
  0
LINE
  8
0
 10
152.545
 20
9.24471
 11
153.679
 21
9.77835
  0
LINE
  8
0
 10
153.679
 20
9.77835
 11
154.645
 21
10.5773
  0
LINE
  8
0
 10
154.645
 20
10.5773
 11
155.382
 21
11.5912
  0
LINE
  8
0
 10
155.382
 20
11.5912
 11
155.843
 21
12.7565
  0
LINE
  8
0
 10
155.843
 20
12.7565
 11
156
 21
14
  0
LINE
  8
0
 10
156
 20
14
 11
156
 21
151
  0
LINE
  8
0
 10
156
 20
151
 11
155.843
 21
152.243
  0
LINE
  8
0
 10
155.843
 20
152.243
 11
155.382
 21
153.409
  0
LINE
  8
0
 10
155.382
 20
153.409
 11
154.645
 21
154.423
  0
LINE
  8
0
 10
154.645
 20
154.423
 11
153.679
 21
155.222
  0
LINE
  8
0
 10
153.679
 20
155.222
 11
152.545
 21
155.755
  0
LINE
  8
0
 10
152.545
 20
155.755
 11
151.314
 21
155.99
  0
LINE
  8
0
 10
151.314
 20
155.99
 11
151
 21
155.97
  0
LINE
  8
0
 10
151
 20
155.97
 11
151
 21
156
  0
LINE
  8
0
 10
151
 20
156
 11
14
 21
156
  0
LINE
  8
0
 10
14
 20
156
 11
14
 21
155.97
  0
LINE
  8
0
 10
14
 20
155.97
 11
13.0631
 21
155.911
  0
LINE
  8
0
 10
13.0631
 20
155.911
 11
11.8711
 21
155.524
  0
LINE
  8
0
 10
11.8711
 20
155.524
 11
10.8129
 21
154.853
  0
LINE
  8
0
 10
10.8129
 20
154.853
 11
9.95491
 21
153.939
  0
LINE
  8
0
 10
9.95491
 20
153.939
 11
9.3511
 21
152.841
  0
LINE
  8
0
 10
9.3511
 20
152.841
 11
9.03941
 21
151.627
  0
LINE
  8
0
 10
9.03941
 20
151.627
 11
9.03941
 21
151
  0
LINE
  8
0
 10
9.03941
 20
151
 11
9
 21
151
  0
LINE
  8
0
 10
9
 20
151
 11
9
 21
14
  0
LINE
  8
0
 10
9
 20
14
 11
9.03941
 21
14
  0
LINE
  8
0
 10
9.03941
 20
14
 11
9.03941
 21
13.3733
  0
LINE
  8
0
 10
9.03941
 20
13.3733
 11
9.3511
 21
12.1594
  0
LINE
  8
0
 10
9.3511
 20
12.1594
 11
9.95491
 21
11.0611
  0
LINE
  8
0
 10
9.95491
 20
11.0611
 11
10.8129
 21
10.1474
  0
LINE
  8
0
 10
10.8129
 20
10.1474
 11
11.8711
 21
9.47586
  0
LINE
  8
0
 10
11.8711
 20
9.47586
 11
13.0631
 21
9.08856
  0
LINE
  8
0
 10
13.0631
 20
9.08856
 11
14
 21
9.02962
  0
LINE
  8
0
 10
14
 20
9.02962
 11
14
 21
9
  0
LINE
  8
0
 10
14
 20
9
 11
151
 21
9
  0
LINE
  8
0
 10
151
 20
9
 11
151
 21
9.02962
  0
ENDSEC
  0
SECTION
  2
OBJECTS
  0
DICTIONARY
  0
ENDSEC
  0
EOF
