<?xml version="1.0" encoding="UTF-8"?>
<!DOCTYPE svg PUBLIC "-//W3C//DTD SVG 1.1//EN" "http://www.w3.org/Graphics/SVG/1.1/DTD/svg11.dtd">
<!-- Creator: CorelDRAW -->
<svg xmlns="http://www.w3.org/2000/svg" xml:space="preserve" width="153.529mm" height="13.5292mm" style="shape-rendering:geometricPrecision; text-rendering:geometricPrecision; image-rendering:optimizeQuality; fill-rule:evenodd; clip-rule:evenodd"
viewBox="0 0 64.84 5.71378"
 xmlns:xlink="http://www.w3.org/1999/xlink">
 <defs>
  <style type="text/css">
   <![CDATA[
    .str2 {stroke:#1F1A17;stroke-width:0.223497}
    .str1 {stroke:#1F1A17;stroke-width:0.223497;stroke-linecap:round;stroke-linejoin:round}
    .str0 {stroke:black;stroke-width:0.223497;stroke-linecap:round;stroke-linejoin:round}
    .fil0 {fill:none}
   ]]>
  </style>
 </defs>
 <g id="Layer_x0020_1">
  <metadata id="CorelCorpID_0Corel-Layer"/>
  <path class="fil0 str0" d="M1.54767 2.20228l0.175225 0c0.115,-0.198706 0.28068,-0.364386 0.479387,-0.479387l0 -0.175225 0.654611 0 0.654611 0 0 0.175225c0.198706,0.115 0.364386,0.28068 0.479387,0.479387l0.175225 0 0 0.654611 0 0.654611 -0.175225 0c-0.115,0.198706 -0.28068,0.364386 -0.479387,0.479387l0 0.175225 -0.654611 0 -0.654611 0 0 -0.175225c-0.198706,-0.115 -0.364386,-0.28068 -0.479387,-0.479387l-0.175225 0 0 -0.654611 0 -0.654611z"/>
  <path class="fil0 str0" d="M9.99426 2.20228l0.175225 0c0.115,-0.198706 0.28068,-0.364386 0.479387,-0.479387l0 -0.175225 0.654611 0 0.654611 0 0 0.175225c0.198706,0.115 0.364386,0.28068 0.479387,0.479387l0.175225 0 0 0.654611 0 0.654611 -0.175225 0c-0.115,0.198706 -0.28068,0.364386 -0.479387,0.479387l0 0.175225 -0.654611 0 -0.654611 0 0 -0.175225c-0.198706,-0.115 -0.364386,-0.28068 -0.479387,-0.479387l-0.175225 0 0 -0.654611 0 -0.654611z"/>
  <path class="fil0 str0" d="M18.4409 2.20228l0.175225 0c0.115,-0.198706 0.28068,-0.364386 0.479387,-0.479387l0 -0.175225 0.654611 0 0.654611 0 0 0.175225c0.198706,0.115 0.364386,0.28068 0.479387,0.479387l0.175225 0 0 0.654611 0 0.654611 -0.175225 0c-0.115,0.198706 -0.28068,0.364386 -0.479387,0.479387l0 0.175225 -0.654611 0 -0.654611 0 0 -0.175225c-0.198706,-0.115 -0.364386,-0.28068 -0.479387,-0.479387l-0.175225 0 0 -0.654611 0 -0.654611z"/>
  <path class="fil0 str0" d="M26.8875 2.20228l0.175225 0c0.115,-0.198706 0.28068,-0.364386 0.479387,-0.479387l0 -0.175225 0.654611 0 0.654611 0 0 0.175225c0.198706,0.115 0.364386,0.28068 0.479387,0.479387l0.175225 0 0 0.654611 0 0.654611 -0.175225 0c-0.115,0.198706 -0.28068,0.364386 -0.479387,0.479387l0 0.175225 -0.654611 0 -0.654611 0 0 -0.175225c-0.198706,-0.115 -0.364386,-0.28068 -0.479387,-0.479387l-0.175225 0 0 -0.654611 0 -0.654611z"/>
  <path class="fil0 str0" d="M35.3341 2.20228l0.175225 0c0.115,-0.198706 0.28068,-0.364386 0.479387,-0.479387l0 -0.175225 0.654611 0 0.654611 0 0 0.175225c0.198706,0.115 0.364386,0.28068 0.479387,0.479387l0.175225 0 0 0.654611 0 0.654611 -0.175225 0c-0.115,0.198706 -0.28068,0.364386 -0.479387,0.479387l0 0.175225 -0.654611 0 -0.654611 0 0 -0.175225c-0.198706,-0.115 -0.364386,-0.28068 -0.479387,-0.479387l-0.175225 0 0 -0.654611 0 -0.654611z"/>
  <path class="fil0 str0" d="M43.7806 2.20228l0.175225 0c0.115,-0.198706 0.28068,-0.364386 0.479387,-0.479387l0 -0.175225 0.654611 0 0.654611 0 0 0.175225c0.198706,0.115 0.364386,0.28068 0.479387,0.479387l0.175225 0 0 0.654611 0 0.654611 -0.175225 0c-0.115,0.198706 -0.28068,0.364386 -0.479387,0.479387l0 0.175225 -0.654611 0 -0.654611 0 0 -0.175225c-0.198706,-0.115 -0.364386,-0.28068 -0.479387,-0.479387l-0.175225 0 0 -0.654611 0 -0.654611z"/>
  <path class="fil0 str0" d="M52.2272 2.20228l0.175225 0c0.115,-0.198706 0.28068,-0.364386 0.479387,-0.479387l0 -0.175225 0.654611 0 0.654611 0 0 0.175225c0.198706,0.115 0.364386,0.28068 0.479387,0.479387l0.175225 0 0 0.654611 0 0.654611 -0.175225 0c-0.115,0.198706 -0.28068,0.364386 -0.479387,0.479387l0 0.175225 -0.654611 0 -0.654611 0 0 -0.175225c-0.198706,-0.115 -0.364386,-0.28068 -0.479387,-0.479387l-0.175225 0 0 -0.654611 0 -0.654611z"/>
  <path class="fil0 str0" d="M60.6738 2.20228l0.175225 0c0.115,-0.198706 0.28068,-0.364386 0.479387,-0.479387l0 -0.175225 0.654611 0 0.654611 0 0 0.175225c0.198706,0.115 0.364386,0.28068 0.479387,0.479387l0.175225 0 0 0.654611 0 0.654611 -0.175225 0c-0.115,0.198706 -0.28068,0.364386 -0.479387,0.479387l0 0.175225 -0.654611 0 -0.654611 0 0 -0.175225c-0.198706,-0.115 -0.364386,-0.28068 -0.479387,-0.479387l-0.175225 0 0 -0.654611 0 -0.654611z"/>
  <rect class="fil0 str1" x="5.77097" y="2.18116" width="2.61844" height="1.35146"/>
  <rect class="fil0 str1" x="14.2176" y="2.18116" width="2.61844" height="1.35146"/>
  <rect class="fil0 str1" x="22.6642" y="2.18116" width="2.61844" height="1.35146"/>
  <rect class="fil0 str1" x="31.1108" y="2.18116" width="2.61844" height="1.35146"/>
  <rect class="fil0 str1" x="39.5573" y="2.18116" width="2.61844" height="1.35146"/>
  <rect class="fil0 str1" x="48.0039" y="2.18116" width="2.61844" height="1.35146"/>
  <rect class="fil0 str1" x="56.4505" y="2.18116" width="2.61844" height="1.35146"/>
  <path class="fil0 str2" d="M0.111748 3.49039l0 -1.26699c0,-1.16601 0.945639,-2.11165 2.11165,-2.11165l60.3932 0c1.16601,0 2.11165,0.945639 2.11165,2.11165l0 1.26699c0,1.16601 -0.945639,2.11165 -2.11165,2.11165l-60.3932 0c-1.16601,0 -2.11165,-0.945639 -2.11165,-2.11165z"/>
 </g>
</svg>
