solid OpenSCAD_Model
  facet normal -0.980738 -0.195327 0
    outer loop
      vertex 0 5 0
      vertex 0.381 3.087 0
      vertex 0 5 3
    endloop
  endfacet
  facet normal -0.980738 -0.195327 0
    outer loop
      vertex 0 5 3
      vertex 0.381 3.087 0
      vertex 0.381 3.087 3
    endloop
  endfacet
  facet normal 0 0 -1
    outer loop
      vertex 0 5 0
      vertex 0 8 0
      vertex 0.381 3.087 0
    endloop
  endfacet
  facet normal 0 0 -1
    outer loop
      vertex 0.381 3.087 0
      vertex 0 8 0
      vertex 0.381 9.913 0
    endloop
  endfacet
  facet normal 0 0 -1
    outer loop
      vertex 0.381 3.087 0
      vertex 0.381 9.913 0
      vertex 1.464 11.536 0
    endloop
  endfacet
  facet normal 0 0 -1
    outer loop
      vertex 0.381 3.087 0
      vertex 1.464 11.536 0
      vertex 3.087 12.619 0
    endloop
  endfacet
  facet normal 0 0 -1
    outer loop
      vertex 0.381 3.087 0
      vertex 3.087 12.619 0
      vertex 5 13 0
    endloop
  endfacet
  facet normal 0 0 -1
    outer loop
      vertex 8 9.5 0
      vertex 5 13 0
      vertex 108 13 0
    endloop
  endfacet
  facet normal 0 0 -1
    outer loop
      vertex 88 8.937 0
      vertex 111.536 11.536 0
      vertex 112.619 9.913 0
    endloop
  endfacet
  facet normal 0 0 -1
    outer loop
      vertex 105 8.937 0
      vertex 89.012 8 0
      vertex 88.927 8.263 0
    endloop
  endfacet
  facet normal 0 0 -1
    outer loop
      vertex 108 4.063 0
      vertex 113 5 0
      vertex 112.619 3.087 0
    endloop
  endfacet
  facet normal 0 0 -1
    outer loop
      vertex 0.381 3.087 0
      vertex 112.619 3.087 0
      vertex 111.536 1.464 0
    endloop
  endfacet
  facet normal 0 0 -1
    outer loop
      vertex 0.381 3.087 0
      vertex 111.536 1.464 0
      vertex 109.913 0.381 0
    endloop
  endfacet
  facet normal 0 0 -1
    outer loop
      vertex 0.381 3.087 0
      vertex 109.913 0.381 0
      vertex 108 0 0
    endloop
  endfacet
  facet normal 0 0 -1
    outer loop
      vertex 0.381 3.087 0
      vertex 108 0 0
      vertex 5 0 0
    endloop
  endfacet
  facet normal 0 0 -1
    outer loop
      vertex 0.381 3.087 0
      vertex 5 0 0
      vertex 3.087 0.381 0
    endloop
  endfacet
  facet normal 0 0 -1
    outer loop
      vertex 0.381 3.087 0
      vertex 3.087 0.381 0
      vertex 1.464 1.464 0
    endloop
  endfacet
  facet normal 0 0 -1
    outer loop
      vertex 0.381 3.087 0
      vertex 5 13 0
      vertex 3.5 8 0
    endloop
  endfacet
  facet normal 0 0 -1
    outer loop
      vertex 0.381 3.087 0
      vertex 3.5 8 0
      vertex 3.5 5 0
    endloop
  endfacet
  facet normal 0 0 -1
    outer loop
      vertex 65 9.5 0
      vertex 108 13 0
      vertex 68 9.5 0
    endloop
  endfacet
  facet normal 0 0 -1
    outer loop
      vertex 0.381 3.087 0
      vertex 3.5 5 0
      vertex 3.988 5 0
    endloop
  endfacet
  facet normal 0 0 -1
    outer loop
      vertex 64.073 8.263 0
      vertex 49.5 8 0
      vertex 65 8.937 0
    endloop
  endfacet
  facet normal 0 0 -1
    outer loop
      vertex 0.381 3.087 0
      vertex 3.988 5 0
      vertex 4.073 4.737 0
    endloop
  endfacet
  facet normal 0 0 -1
    outer loop
      vertex 24.073 8.263 0
      vertex 9.5 8 0
      vertex 9.012 8 0
    endloop
  endfacet
  facet normal 0 0 -1
    outer loop
      vertex 0.381 3.087 0
      vertex 4.073 4.737 0
      vertex 5 4.063 0
    endloop
  endfacet
  facet normal 0 0 -1
    outer loop
      vertex 29.5 8 0
      vertex 44.073 8.263 0
      vertex 43.5 8 0
    endloop
  endfacet
  facet normal 0 0 -1
    outer loop
      vertex 8 3.5 0
      vertex 0.381 3.087 0
      vertex 5 3.5 0
    endloop
  endfacet
  facet normal 0 0 -1
    outer loop
      vertex 63.988 8 0
      vertex 63.5 8 0
      vertex 64.073 8.263 0
    endloop
  endfacet
  facet normal 0 0 -1
    outer loop
      vertex 45 8.937 0
      vertex 28.927 8.263 0
      vertex 28 8.937 0
    endloop
  endfacet
  facet normal 0 0 -1
    outer loop
      vertex 8.927 4.737 0
      vertex 9.012 5 0
      vertex 9.5 5 0
    endloop
  endfacet
  facet normal 0 0 -1
    outer loop
      vertex 49.012 5 0
      vertex 49.5 5 0
      vertex 48.927 4.737 0
    endloop
  endfacet
  facet normal 0 0 -1
    outer loop
      vertex 69.5 8 0
      vertex 84.073 8.263 0
      vertex 83.5 8 0
    endloop
  endfacet
  facet normal 0 0 -1
    outer loop
      vertex 8 9.5 0
      vertex 8.927 8.263 0
      vertex 8 8.937 0
    endloop
  endfacet
  facet normal 0 0 -1
    outer loop
      vertex 3.988 8 0
      vertex 3.5 8 0
      vertex 4.073 8.263 0
    endloop
  endfacet
  facet normal 0 0 -1
    outer loop
      vertex 23.5 5 0
      vertex 8.927 4.737 0
      vertex 9.5 5 0
    endloop
  endfacet
  facet normal 0 0 -1
    outer loop
      vertex 5 9.5 0
      vertex 5 13 0
      vertex 8 9.5 0
    endloop
  endfacet
  facet normal 0 0 -1
    outer loop
      vertex 25 9.5 0
      vertex 8 9.5 0
      vertex 108 13 0
    endloop
  endfacet
  facet normal 0 0 -1
    outer loop
      vertex 3.5 8 0
      vertex 5 13 0
      vertex 5 9.5 0
    endloop
  endfacet
  facet normal 0 0 -1
    outer loop
      vertex 3.5 8 0
      vertex 5 9.5 0
      vertex 5 8.937 0
    endloop
  endfacet
  facet normal 0 0 -1
    outer loop
      vertex 3.5 8 0
      vertex 5 8.937 0
      vertex 4.073 8.263 0
    endloop
  endfacet
  facet normal 0 0 -1
    outer loop
      vertex 23.5 5 0
      vertex 9.5 5 0
      vertex 23.5 8 0
    endloop
  endfacet
  facet normal 0 0 -1
    outer loop
      vertex 68 8.937 0
      vertex 85 9.5 0
      vertex 68.927 8.263 0
    endloop
  endfacet
  facet normal 0 0 -1
    outer loop
      vertex 8 4.063 0
      vertex 23.988 5 0
      vertex 24.073 4.737 0
    endloop
  endfacet
  facet normal 0 0 -1
    outer loop
      vertex 63.5 5 0
      vertex 49.5 5 0
      vertex 63.5 8 0
    endloop
  endfacet
  facet normal 0 0 -1
    outer loop
      vertex 25 3.5 0
      vertex 0.381 3.087 0
      vertex 25 4.063 0
    endloop
  endfacet
  facet normal 0 0 -1
    outer loop
      vertex 63.5 5 0
      vertex 63.988 5 0
      vertex 48.927 4.737 0
    endloop
  endfacet
  facet normal 0 0 -1
    outer loop
      vertex 48 4.063 0
      vertex 65 4.063 0
      vertex 48 3.5 0
    endloop
  endfacet
  facet normal 0 0 -1
    outer loop
      vertex 0.381 3.087 0
      vertex 25 3.5 0
      vertex 112.619 3.087 0
    endloop
  endfacet
  facet normal 0 0 -1
    outer loop
      vertex 25 3.5 0
      vertex 28 3.5 0
      vertex 112.619 3.087 0
    endloop
  endfacet
  facet normal 0 0 -1
    outer loop
      vertex 103.5 5 0
      vertex 103.988 5 0
      vertex 88.927 4.737 0
    endloop
  endfacet
  facet normal 0 0 -1
    outer loop
      vertex 45 3.5 0
      vertex 28 3.5 0
      vertex 45 4.063 0
    endloop
  endfacet
  facet normal 0 0 -1
    outer loop
      vertex 48.927 4.737 0
      vertex 64.073 4.737 0
      vertex 48 4.063 0
    endloop
  endfacet
  facet normal 0 0 -1
    outer loop
      vertex 25 4.063 0
      vertex 0.381 3.087 0
      vertex 8 3.5 0
    endloop
  endfacet
  facet normal 0 0 -1
    outer loop
      vertex 25 4.063 0
      vertex 8 3.5 0
      vertex 24.073 4.737 0
    endloop
  endfacet
  facet normal 0 0 -1
    outer loop
      vertex 23.5 5 0
      vertex 8 4.063 0
      vertex 8.927 4.737 0
    endloop
  endfacet
  facet normal 0 0 -1
    outer loop
      vertex 43.5 5 0
      vertex 28.927 4.737 0
      vertex 29.5 5 0
    endloop
  endfacet
  facet normal 0 0 -1
    outer loop
      vertex 45 8.937 0
      vertex 28 8.937 0
      vertex 45 9.5 0
    endloop
  endfacet
  facet normal 0 0 -1
    outer loop
      vertex 23.988 8 0
      vertex 23.5 8 0
      vertex 24.073 8.263 0
    endloop
  endfacet
  facet normal 0 0 -1
    outer loop
      vertex 45 9.5 0
      vertex 28 8.937 0
      vertex 108 13 0
    endloop
  endfacet
  facet normal 0 0 -1
    outer loop
      vertex 25 9.5 0
      vertex 108 13 0
      vertex 28 9.5 0
    endloop
  endfacet
  facet normal 0 0 -1
    outer loop
      vertex 25 8.937 0
      vertex 8.927 8.263 0
      vertex 25 9.5 0
    endloop
  endfacet
  facet normal 0 0 -1
    outer loop
      vertex 8.927 8.263 0
      vertex 8 9.5 0
      vertex 25 9.5 0
    endloop
  endfacet
  facet normal 0 0 -1
    outer loop
      vertex 24.073 8.263 0
      vertex 9.012 8 0
      vertex 25 8.937 0
    endloop
  endfacet
  facet normal 0 0 -1
    outer loop
      vertex 48.927 8.263 0
      vertex 108 13 0
      vertex 65 9.5 0
    endloop
  endfacet
  facet normal 0 0 -1
    outer loop
      vertex 23.5 8 0
      vertex 9.5 8 0
      vertex 24.073 8.263 0
    endloop
  endfacet
  facet normal 0 0 -1
    outer loop
      vertex 8.927 8.263 0
      vertex 25 8.937 0
      vertex 9.012 8 0
    endloop
  endfacet
  facet normal 0 0 -1
    outer loop
      vertex 108 9.5 0
      vertex 112.619 9.913 0
      vertex 108 8.937 0
    endloop
  endfacet
  facet normal 0 0 -1
    outer loop
      vertex 45 8.937 0
      vertex 29.012 8 0
      vertex 28.927 8.263 0
    endloop
  endfacet
  facet normal 0 0 -1
    outer loop
      vertex 45 4.063 0
      vertex 28 4.063 0
      vertex 44.073 4.737 0
    endloop
  endfacet
  facet normal 0 0 -1
    outer loop
      vertex 69.5 8 0
      vertex 83.5 8 0
      vertex 69.5 5 0
    endloop
  endfacet
  facet normal 0 0 -1
    outer loop
      vertex 28 3.5 0
      vertex 45 3.5 0
      vertex 112.619 3.087 0
    endloop
  endfacet
  facet normal 0 0 -1
    outer loop
      vertex 45 3.5 0
      vertex 48 3.5 0
      vertex 112.619 3.087 0
    endloop
  endfacet
  facet normal 0 0 -1
    outer loop
      vertex 28 4.063 0
      vertex 45 4.063 0
      vertex 28 3.5 0
    endloop
  endfacet
  facet normal 0 0 -1
    outer loop
      vertex 105 8.937 0
      vertex 89.5 8 0
      vertex 89.012 8 0
    endloop
  endfacet
  facet normal 0 0 -1
    outer loop
      vertex 65 4.063 0
      vertex 48 4.063 0
      vertex 64.073 4.737 0
    endloop
  endfacet
  facet normal 0 0 -1
    outer loop
      vertex 49.5 8 0
      vertex 64.073 8.263 0
      vertex 63.5 8 0
    endloop
  endfacet
  facet normal 0 0 -1
    outer loop
      vertex 88 8.937 0
      vertex 105 9.5 0
      vertex 88.927 8.263 0
    endloop
  endfacet
  facet normal 0 0 -1
    outer loop
      vertex 43.988 8 0
      vertex 43.5 8 0
      vertex 44.073 8.263 0
    endloop
  endfacet
  facet normal 0 0 -1
    outer loop
      vertex 45 8.937 0
      vertex 29.5 8 0
      vertex 29.012 8 0
    endloop
  endfacet
  facet normal 0 0 -1
    outer loop
      vertex 29.012 5 0
      vertex 29.5 5 0
      vertex 28.927 4.737 0
    endloop
  endfacet
  facet normal 0 0 -1
    outer loop
      vertex 65 8.937 0
      vertex 49.012 8 0
      vertex 65 9.5 0
    endloop
  endfacet
  facet normal 0 0 -1
    outer loop
      vertex 43.5 5 0
      vertex 29.5 5 0
      vertex 43.5 8 0
    endloop
  endfacet
  facet normal 0 0 -1
    outer loop
      vertex 65 8.937 0
      vertex 49.5 8 0
      vertex 49.012 8 0
    endloop
  endfacet
  facet normal 0 0 -1
    outer loop
      vertex 48 9.5 0
      vertex 108 13 0
      vertex 48 8.937 0
    endloop
  endfacet
  facet normal 0 0 -1
    outer loop
      vertex 28 9.5 0
      vertex 108 13 0
      vertex 28 8.937 0
    endloop
  endfacet
  facet normal 0 0 -1
    outer loop
      vertex 48 9.5 0
      vertex 45 9.5 0
      vertex 108 13 0
    endloop
  endfacet
  facet normal 0 0 -1
    outer loop
      vertex 48.927 8.263 0
      vertex 65 9.5 0
      vertex 49.012 8 0
    endloop
  endfacet
  facet normal 0 0 -1
    outer loop
      vertex 68 9.5 0
      vertex 109.913 12.619 0
      vertex 68 8.937 0
    endloop
  endfacet
  facet normal 0 0 -1
    outer loop
      vertex 68 8.937 0
      vertex 111.536 11.536 0
      vertex 85 9.5 0
    endloop
  endfacet
  facet normal 0 0 -1
    outer loop
      vertex 88 8.937 0
      vertex 112.619 9.913 0
      vertex 105 9.5 0
    endloop
  endfacet
  facet normal 0 0 -1
    outer loop
      vertex 89.012 5 0
      vertex 89.5 5 0
      vertex 88.927 4.737 0
    endloop
  endfacet
  facet normal 0 0 -1
    outer loop
      vertex 48 3.5 0
      vertex 65 3.5 0
      vertex 112.619 3.087 0
    endloop
  endfacet
  facet normal 0 0 -1
    outer loop
      vertex 68.927 4.737 0
      vertex 84.073 4.737 0
      vertex 68 4.063 0
    endloop
  endfacet
  facet normal 0 0 -1
    outer loop
      vertex 65 3.5 0
      vertex 68 3.5 0
      vertex 112.619 3.087 0
    endloop
  endfacet
  facet normal 0 0 -1
    outer loop
      vertex 89.5 5 0
      vertex 103.5 5 0
      vertex 88.927 4.737 0
    endloop
  endfacet
  facet normal 0 0 -1
    outer loop
      vertex 85 8.937 0
      vertex 69.012 8 0
      vertex 68.927 8.263 0
    endloop
  endfacet
  facet normal 0 0 -1
    outer loop
      vertex 85 4.063 0
      vertex 68 3.5 0
      vertex 68 4.063 0
    endloop
  endfacet
  facet normal 0 0 -1
    outer loop
      vertex 84.073 4.737 0
      vertex 68.927 4.737 0
      vertex 83.988 5 0
    endloop
  endfacet
  facet normal 0 0 -1
    outer loop
      vertex 109.5 8 0
      vertex 113 8 0
      vertex 109.5 5 0
    endloop
  endfacet
  facet normal 0 0 -1
    outer loop
      vertex 85 8.937 0
      vertex 68.927 8.263 0
      vertex 85 9.5 0
    endloop
  endfacet
  facet normal 0 0 -1
    outer loop
      vertex 48 8.937 0
      vertex 108 13 0
      vertex 48.927 8.263 0
    endloop
  endfacet
  facet normal 0 0 -1
    outer loop
      vertex 85 8.937 0
      vertex 69.5 8 0
      vertex 69.012 8 0
    endloop
  endfacet
  facet normal 0 0 -1
    outer loop
      vertex 8 4.063 0
      vertex 23.5 5 0
      vertex 23.988 5 0
    endloop
  endfacet
  facet normal 0 0 -1
    outer loop
      vertex 68 9.5 0
      vertex 108 13 0
      vertex 109.913 12.619 0
    endloop
  endfacet
  facet normal 0 0 -1
    outer loop
      vertex 44.073 8.263 0
      vertex 29.5 8 0
      vertex 45 8.937 0
    endloop
  endfacet
  facet normal 0 0 -1
    outer loop
      vertex 44.073 4.737 0
      vertex 28.927 4.737 0
      vertex 43.988 5 0
    endloop
  endfacet
  facet normal 0 0 -1
    outer loop
      vertex 28.927 4.737 0
      vertex 44.073 4.737 0
      vertex 28 4.063 0
    endloop
  endfacet
  facet normal 0 0 -1
    outer loop
      vertex 28.927 4.737 0
      vertex 43.5 5 0
      vertex 43.988 5 0
    endloop
  endfacet
  facet normal 0 0 -1
    outer loop
      vertex 68 8.937 0
      vertex 109.913 12.619 0
      vertex 111.536 11.536 0
    endloop
  endfacet
  facet normal 0 0 -1
    outer loop
      vertex 83.5 5 0
      vertex 69.5 5 0
      vertex 83.5 8 0
    endloop
  endfacet
  facet normal 0 0 -1
    outer loop
      vertex 83.988 8 0
      vertex 83.5 8 0
      vertex 84.073 8.263 0
    endloop
  endfacet
  facet normal 0 0 -1
    outer loop
      vertex 69.012 5 0
      vertex 69.5 5 0
      vertex 68.927 4.737 0
    endloop
  endfacet
  facet normal 0 0 -1
    outer loop
      vertex 105 9.5 0
      vertex 112.619 9.913 0
      vertex 108 9.5 0
    endloop
  endfacet
  facet normal 0 0 -1
    outer loop
      vertex 88 4.063 0
      vertex 112.619 3.087 0
      vertex 88 3.5 0
    endloop
  endfacet
  facet normal 0 0 -1
    outer loop
      vertex 88.927 4.737 0
      vertex 104.073 4.737 0
      vertex 88 4.063 0
    endloop
  endfacet
  facet normal 0 0 -1
    outer loop
      vertex 68 3.5 0
      vertex 85 4.063 0
      vertex 85 3.5 0
    endloop
  endfacet
  facet normal 0 0 -1
    outer loop
      vertex 68 3.5 0
      vertex 85 3.5 0
      vertex 112.619 3.087 0
    endloop
  endfacet
  facet normal 0 0 -1
    outer loop
      vertex 85 3.5 0
      vertex 88 3.5 0
      vertex 112.619 3.087 0
    endloop
  endfacet
  facet normal 0 0 -1
    outer loop
      vertex 49.5 5 0
      vertex 63.5 5 0
      vertex 48.927 4.737 0
    endloop
  endfacet
  facet normal 0 0 -1
    outer loop
      vertex 65 3.5 0
      vertex 48 3.5 0
      vertex 65 4.063 0
    endloop
  endfacet
  facet normal 0 0 -1
    outer loop
      vertex 89.5 8 0
      vertex 103.5 8 0
      vertex 89.5 5 0
    endloop
  endfacet
  facet normal 0 0 -1
    outer loop
      vertex 104.073 4.737 0
      vertex 88.927 4.737 0
      vertex 103.988 5 0
    endloop
  endfacet
  facet normal 0 0 -1
    outer loop
      vertex 105 8.937 0
      vertex 88.927 8.263 0
      vertex 105 9.5 0
    endloop
  endfacet
  facet normal 0 0 -1
    outer loop
      vertex 108.927 8.263 0
      vertex 112.619 9.913 0
      vertex 109.012 8 0
    endloop
  endfacet
  facet normal 0 0 -1
    outer loop
      vertex 103.5 5 0
      vertex 89.5 5 0
      vertex 103.5 8 0
    endloop
  endfacet
  facet normal 0 0 -1
    outer loop
      vertex 88 9.5 0
      vertex 111.536 11.536 0
      vertex 88 8.937 0
    endloop
  endfacet
  facet normal 0 0 -1
    outer loop
      vertex 85 9.5 0
      vertex 111.536 11.536 0
      vertex 88 9.5 0
    endloop
  endfacet
  facet normal 0 0 -1
    outer loop
      vertex 84.073 8.263 0
      vertex 69.5 8 0
      vertex 85 8.937 0
    endloop
  endfacet
  facet normal 0 0 -1
    outer loop
      vertex 69.5 5 0
      vertex 83.5 5 0
      vertex 68.927 4.737 0
    endloop
  endfacet
  facet normal 0 0 -1
    outer loop
      vertex 83.5 5 0
      vertex 83.988 5 0
      vertex 68.927 4.737 0
    endloop
  endfacet
  facet normal 0 0 -1
    outer loop
      vertex 64.073 4.737 0
      vertex 48.927 4.737 0
      vertex 63.988 5 0
    endloop
  endfacet
  facet normal 0 0 -1
    outer loop
      vertex 109.5 8 0
      vertex 112.619 9.913 0
      vertex 113 8 0
    endloop
  endfacet
  facet normal 0 0 -1
    outer loop
      vertex 109.5 5 0
      vertex 113 5 0
      vertex 108.927 4.737 0
    endloop
  endfacet
  facet normal 0 0 -1
    outer loop
      vertex 88 4.063 0
      vertex 105 4.063 0
      vertex 105 3.5 0
    endloop
  endfacet
  facet normal 0 0 -1
    outer loop
      vertex 88 4.063 0
      vertex 105 3.5 0
      vertex 112.619 3.087 0
    endloop
  endfacet
  facet normal 0 0 -1
    outer loop
      vertex 105 3.5 0
      vertex 108 3.5 0
      vertex 112.619 3.087 0
    endloop
  endfacet
  facet normal 0 0 -1
    outer loop
      vertex 109.012 5 0
      vertex 109.5 5 0
      vertex 108.927 4.737 0
    endloop
  endfacet
  facet normal 0 0 -1
    outer loop
      vertex 108.927 4.737 0
      vertex 113 5 0
      vertex 108 4.063 0
    endloop
  endfacet
  facet normal 0 0 -1
    outer loop
      vertex 108 4.063 0
      vertex 112.619 3.087 0
      vertex 108 3.5 0
    endloop
  endfacet
  facet normal 0 0 -1
    outer loop
      vertex 49.5 8 0
      vertex 63.5 8 0
      vertex 49.5 5 0
    endloop
  endfacet
  facet normal 0 0 -1
    outer loop
      vertex 109.5 5 0
      vertex 113 8 0
      vertex 113 5 0
    endloop
  endfacet
  facet normal 0 0 -1
    outer loop
      vertex 109.012 8 0
      vertex 112.619 9.913 0
      vertex 109.5 8 0
    endloop
  endfacet
  facet normal 0 0 -1
    outer loop
      vertex 85 4.063 0
      vertex 68 4.063 0
      vertex 84.073 4.737 0
    endloop
  endfacet
  facet normal 0 0 -1
    outer loop
      vertex 108 8.937 0
      vertex 112.619 9.913 0
      vertex 108.927 8.263 0
    endloop
  endfacet
  facet normal 0 0 -1
    outer loop
      vertex 103.988 8 0
      vertex 103.5 8 0
      vertex 104.073 8.263 0
    endloop
  endfacet
  facet normal 0 0 -1
    outer loop
      vertex 89.5 8 0
      vertex 105 8.937 0
      vertex 103.5 8 0
    endloop
  endfacet
  facet normal 0 0 -1
    outer loop
      vertex 105 8.937 0
      vertex 104.073 8.263 0
      vertex 103.5 8 0
    endloop
  endfacet
  facet normal 0 0 -1
    outer loop
      vertex 105 4.063 0
      vertex 88 4.063 0
      vertex 104.073 4.737 0
    endloop
  endfacet
  facet normal 0 0 -1
    outer loop
      vertex 5 3.5 0
      vertex 0.381 3.087 0
      vertex 5 4.063 0
    endloop
  endfacet
  facet normal 0 0 -1
    outer loop
      vertex 29.5 8 0
      vertex 43.5 8 0
      vertex 29.5 5 0
    endloop
  endfacet
  facet normal 0 0 -1
    outer loop
      vertex 9.5 8 0
      vertex 23.5 8 0
      vertex 9.5 5 0
    endloop
  endfacet
  facet normal 0 0 -1
    outer loop
      vertex 8 4.063 0
      vertex 24.073 4.737 0
      vertex 8 3.5 0
    endloop
  endfacet
  facet normal -1 0 0
    outer loop
      vertex 0 5 0
      vertex 0 5 3
      vertex 0 8 0
    endloop
  endfacet
  facet normal -1 0 0
    outer loop
      vertex 0 8 0
      vertex 0 5 3
      vertex 0 8 3
    endloop
  endfacet
  facet normal 0 0 1
    outer loop
      vertex 0 8 3
      vertex 0 5 3
      vertex 0.381 3.087 3
    endloop
  endfacet
  facet normal 0 0 1
    outer loop
      vertex 3.087 0.381 3
      vertex 0 8 3
      vertex 1.464 1.464 3
    endloop
  endfacet
  facet normal 0 0 1
    outer loop
      vertex 1.464 1.464 3
      vertex 0 8 3
      vertex 0.381 3.087 3
    endloop
  endfacet
  facet normal 0 0 1
    outer loop
      vertex 5 0 3
      vertex 0 8 3
      vertex 3.087 0.381 3
    endloop
  endfacet
  facet normal 0 0 1
    outer loop
      vertex 3.5 5 3
      vertex 0 8 3
      vertex 5 0 3
    endloop
  endfacet
  facet normal 0 0 1
    outer loop
      vertex 24.073 8.263 3
      vertex 8.927 8.263 3
      vertex 9.012 8 3
    endloop
  endfacet
  facet normal 0 0 1
    outer loop
      vertex 113 8 3
      vertex 109.5 8 3
      vertex 113 5 3
    endloop
  endfacet
  facet normal 0 0 1
    outer loop
      vertex 48 9.5 3
      vertex 48 8.937 3
      vertex 65 9.5 3
    endloop
  endfacet
  facet normal 0 0 1
    outer loop
      vertex 28 9.5 3
      vertex 111.536 11.536 3
      vertex 109.913 12.619 3
    endloop
  endfacet
  facet normal 0 0 1
    outer loop
      vertex 8 9.5 3
      vertex 8 8.937 3
      vertex 108 13 3
    endloop
  endfacet
  facet normal 0 0 1
    outer loop
      vertex 3.087 12.619 3
      vertex 0 8 3
      vertex 5 13 3
    endloop
  endfacet
  facet normal 0 0 1
    outer loop
      vertex 1.464 11.536 3
      vertex 0 8 3
      vertex 3.087 12.619 3
    endloop
  endfacet
  facet normal 0 0 1
    outer loop
      vertex 0.381 9.913 3
      vertex 0 8 3
      vertex 1.464 11.536 3
    endloop
  endfacet
  facet normal 0 0 1
    outer loop
      vertex 5 3.5 3
      vertex 3.5 5 3
      vertex 5 0 3
    endloop
  endfacet
  facet normal 0 0 1
    outer loop
      vertex 43.988 8 3
      vertex 44.073 8.263 3
      vertex 43.5 8 3
    endloop
  endfacet
  facet normal 0 0 1
    outer loop
      vertex 5 13 3
      vertex 0 8 3
      vertex 4.073 8.263 3
    endloop
  endfacet
  facet normal 0 0 1
    outer loop
      vertex 5 13 3
      vertex 5 9.5 3
      vertex 108 13 3
    endloop
  endfacet
  facet normal 0 0 1
    outer loop
      vertex 5 9.5 3
      vertex 4.073 8.263 3
      vertex 5 8.937 3
    endloop
  endfacet
  facet normal 0 0 1
    outer loop
      vertex 5 13 3
      vertex 4.073 8.263 3
      vertex 5 9.5 3
    endloop
  endfacet
  facet normal 0 0 1
    outer loop
      vertex 108 13 3
      vertex 5 9.5 3
      vertex 8 9.5 3
    endloop
  endfacet
  facet normal 0 0 1
    outer loop
      vertex 44.073 8.263 3
      vertex 28.927 8.263 3
      vertex 29.012 8 3
    endloop
  endfacet
  facet normal 0 0 1
    outer loop
      vertex 8 3.5 3
      vertex 5 3.5 3
      vertex 5 0 3
    endloop
  endfacet
  facet normal 0 0 1
    outer loop
      vertex 108 0 3
      vertex 8 3.5 3
      vertex 5 0 3
    endloop
  endfacet
  facet normal 0 0 1
    outer loop
      vertex 25 3.5 3
      vertex 8.927 4.737 3
      vertex 8 3.5 3
    endloop
  endfacet
  facet normal 0 0 1
    outer loop
      vertex 5 4.063 3
      vertex 3.5 5 3
      vertex 5 3.5 3
    endloop
  endfacet
  facet normal 0 0 1
    outer loop
      vertex 4.073 4.737 3
      vertex 3.5 5 3
      vertex 5 4.063 3
    endloop
  endfacet
  facet normal 0 0 1
    outer loop
      vertex 43.5 5 3
      vertex 43.5 8 3
      vertex 29.5 8 3
    endloop
  endfacet
  facet normal 0 0 1
    outer loop
      vertex 8 4.063 3
      vertex 8 3.5 3
      vertex 8.927 4.737 3
    endloop
  endfacet
  facet normal 0 0 1
    outer loop
      vertex 24.073 4.737 3
      vertex 23.5 5 3
      vertex 9.5 5 3
    endloop
  endfacet
  facet normal 0 0 1
    outer loop
      vertex 24.073 8.263 3
      vertex 9.5 8 3
      vertex 23.5 8 3
    endloop
  endfacet
  facet normal 0 0 1
    outer loop
      vertex 48 9.5 3
      vertex 65 9.5 3
      vertex 111.536 11.536 3
    endloop
  endfacet
  facet normal 0 0 1
    outer loop
      vertex 44.073 8.263 3
      vertex 45 8.937 3
      vertex 28.927 8.263 3
    endloop
  endfacet
  facet normal 0 0 1
    outer loop
      vertex 28 9.5 3
      vertex 109.913 12.619 3
      vertex 108 13 3
    endloop
  endfacet
  facet normal 0 0 1
    outer loop
      vertex 8 8.937 3
      vertex 25 9.5 3
      vertex 108 13 3
    endloop
  endfacet
  facet normal 0 0 1
    outer loop
      vertex 25 9.5 3
      vertex 28 9.5 3
      vertex 108 13 3
    endloop
  endfacet
  facet normal 0 0 1
    outer loop
      vertex 23.988 8 3
      vertex 24.073 8.263 3
      vertex 23.5 8 3
    endloop
  endfacet
  facet normal 0 0 1
    outer loop
      vertex 45 9.5 3
      vertex 48 9.5 3
      vertex 111.536 11.536 3
    endloop
  endfacet
  facet normal 0 0 1
    outer loop
      vertex 68 9.5 3
      vertex 85 9.5 3
      vertex 112.619 9.913 3
    endloop
  endfacet
  facet normal 0 0 1
    outer loop
      vertex 9.5 8 3
      vertex 9.5 5 3
      vertex 23.5 5 3
    endloop
  endfacet
  facet normal 0 0 1
    outer loop
      vertex 45 3.5 3
      vertex 29.012 5 3
      vertex 28.927 4.737 3
    endloop
  endfacet
  facet normal 0 0 1
    outer loop
      vertex 45 3.5 3
      vertex 28.927 4.737 3
      vertex 28 4.063 3
    endloop
  endfacet
  facet normal 0 0 1
    outer loop
      vertex 108 0 3
      vertex 28 3.5 3
      vertex 25 3.5 3
    endloop
  endfacet
  facet normal 0 0 1
    outer loop
      vertex 108 0 3
      vertex 25 3.5 3
      vertex 8 3.5 3
    endloop
  endfacet
  facet normal 0 0 1
    outer loop
      vertex 25 4.063 3
      vertex 24.073 4.737 3
      vertex 9.5 5 3
    endloop
  endfacet
  facet normal 0 0 1
    outer loop
      vertex 4.073 4.737 3
      vertex 3.988 5 3
      vertex 3.5 5 3
    endloop
  endfacet
  facet normal 0 0 1
    outer loop
      vertex 24.073 4.737 3
      vertex 23.988 5 3
      vertex 23.5 5 3
    endloop
  endfacet
  facet normal 0 0 1
    outer loop
      vertex 63.5 5 3
      vertex 63.5 8 3
      vertex 49.5 8 3
    endloop
  endfacet
  facet normal 0 0 1
    outer loop
      vertex 84.073 4.737 3
      vertex 83.988 5 3
      vertex 83.5 5 3
    endloop
  endfacet
  facet normal 0 0 1
    outer loop
      vertex 44.073 8.263 3
      vertex 29.5 8 3
      vertex 43.5 8 3
    endloop
  endfacet
  facet normal 0 0 1
    outer loop
      vertex 83.988 8 3
      vertex 84.073 8.263 3
      vertex 83.5 8 3
    endloop
  endfacet
  facet normal 0 0 1
    outer loop
      vertex 84.073 8.263 3
      vertex 69.012 8 3
      vertex 69.5 8 3
    endloop
  endfacet
  facet normal 0 0 1
    outer loop
      vertex 85 9.5 3
      vertex 88 9.5 3
      vertex 112.619 9.913 3
    endloop
  endfacet
  facet normal 0 0 1
    outer loop
      vertex 28 9.5 3
      vertex 28 8.937 3
      vertex 45 9.5 3
    endloop
  endfacet
  facet normal 0 0 1
    outer loop
      vertex 45 8.937 3
      vertex 45 9.5 3
      vertex 28 8.937 3
    endloop
  endfacet
  facet normal 0 0 1
    outer loop
      vertex 64.073 8.263 3
      vertex 48.927 8.263 3
      vertex 49.012 8 3
    endloop
  endfacet
  facet normal 0 0 1
    outer loop
      vertex 28 9.5 3
      vertex 45 9.5 3
      vertex 111.536 11.536 3
    endloop
  endfacet
  facet normal 0 0 1
    outer loop
      vertex 28 8.937 3
      vertex 28.927 8.263 3
      vertex 45 8.937 3
    endloop
  endfacet
  facet normal 0 0 1
    outer loop
      vertex 69.5 8 3
      vertex 69.5 5 3
      vertex 83.5 5 3
    endloop
  endfacet
  facet normal 0 0 1
    outer loop
      vertex 65 4.063 3
      vertex 49.012 5 3
      vertex 48.927 4.737 3
    endloop
  endfacet
  facet normal 0 0 1
    outer loop
      vertex 29.5 8 3
      vertex 29.5 5 3
      vertex 44.073 4.737 3
    endloop
  endfacet
  facet normal 0 0 1
    outer loop
      vertex 68 4.063 3
      vertex 68 3.5 3
      vertex 111.536 1.464 3
    endloop
  endfacet
  facet normal 0 0 1
    outer loop
      vertex 25 4.063 3
      vertex 9.5 5 3
      vertex 9.012 5 3
    endloop
  endfacet
  facet normal 0 0 1
    outer loop
      vertex 108 0 3
      vertex 45 3.5 3
      vertex 28 4.063 3
    endloop
  endfacet
  facet normal 0 0 1
    outer loop
      vertex 108 0 3
      vertex 48 3.5 3
      vertex 45 3.5 3
    endloop
  endfacet
  facet normal 0 0 1
    outer loop
      vertex 45 3.5 3
      vertex 29.5 5 3
      vertex 29.012 5 3
    endloop
  endfacet
  facet normal 0 0 1
    outer loop
      vertex 45 3.5 3
      vertex 45 4.063 3
      vertex 29.5 5 3
    endloop
  endfacet
  facet normal 0 0 1
    outer loop
      vertex 45 4.063 3
      vertex 44.073 4.737 3
      vertex 29.5 5 3
    endloop
  endfacet
  facet normal 0 0 1
    outer loop
      vertex 29.5 8 3
      vertex 44.073 4.737 3
      vertex 43.5 5 3
    endloop
  endfacet
  facet normal 0 0 1
    outer loop
      vertex 83.5 5 3
      vertex 83.5 8 3
      vertex 69.5 8 3
    endloop
  endfacet
  facet normal 0 0 1
    outer loop
      vertex 49.5 8 3
      vertex 64.073 4.737 3
      vertex 63.5 5 3
    endloop
  endfacet
  facet normal 0 0 1
    outer loop
      vertex 65 4.063 3
      vertex 49.5 5 3
      vertex 49.012 5 3
    endloop
  endfacet
  facet normal 0 0 1
    outer loop
      vertex 84.073 8.263 3
      vertex 68.927 8.263 3
      vertex 69.012 8 3
    endloop
  endfacet
  facet normal 0 0 1
    outer loop
      vertex 64.073 8.263 3
      vertex 49.5 8 3
      vertex 63.5 8 3
    endloop
  endfacet
  facet normal 0 0 1
    outer loop
      vertex 64.073 8.263 3
      vertex 49.012 8 3
      vertex 49.5 8 3
    endloop
  endfacet
  facet normal 0 0 1
    outer loop
      vertex 85 8.937 3
      vertex 85 9.5 3
      vertex 68 8.937 3
    endloop
  endfacet
  facet normal 0 0 1
    outer loop
      vertex 65 8.937 3
      vertex 65 9.5 3
      vertex 48 8.937 3
    endloop
  endfacet
  facet normal 0 0 1
    outer loop
      vertex 68 9.5 3
      vertex 68 8.937 3
      vertex 85 9.5 3
    endloop
  endfacet
  facet normal 0 0 1
    outer loop
      vertex 88 9.5 3
      vertex 88 8.937 3
      vertex 112.619 9.913 3
    endloop
  endfacet
  facet normal 0 0 1
    outer loop
      vertex 111.536 11.536 3
      vertex 65 9.5 3
      vertex 112.619 9.913 3
    endloop
  endfacet
  facet normal 0 0 1
    outer loop
      vertex 63.988 8 3
      vertex 64.073 8.263 3
      vertex 63.5 8 3
    endloop
  endfacet
  facet normal 0 0 1
    outer loop
      vertex 65 9.5 3
      vertex 68 9.5 3
      vertex 112.619 9.913 3
    endloop
  endfacet
  facet normal 0 0 1
    outer loop
      vertex 48 8.937 3
      vertex 48.927 8.263 3
      vertex 65 8.937 3
    endloop
  endfacet
  facet normal 0 0 1
    outer loop
      vertex 64.073 8.263 3
      vertex 65 8.937 3
      vertex 48.927 8.263 3
    endloop
  endfacet
  facet normal 0 0 1
    outer loop
      vertex 113 5 3
      vertex 109.5 5 3
      vertex 112.619 3.087 3
    endloop
  endfacet
  facet normal 0 0 1
    outer loop
      vertex 3.988 8 3
      vertex 4.073 8.263 3
      vertex 3.5 8 3
    endloop
  endfacet
  facet normal 0 0 1
    outer loop
      vertex 24.073 8.263 3
      vertex 9.012 8 3
      vertex 9.5 8 3
    endloop
  endfacet
  facet normal 0 0 1
    outer loop
      vertex 85 3.5 3
      vertex 85 4.063 3
      vertex 68.927 4.737 3
    endloop
  endfacet
  facet normal 0 0 1
    outer loop
      vertex 89.5 8 3
      vertex 89.5 5 3
      vertex 103.5 5 3
    endloop
  endfacet
  facet normal 0 0 1
    outer loop
      vertex 111.536 1.464 3
      vertex 68 3.5 3
      vertex 109.913 0.381 3
    endloop
  endfacet
  facet normal 0 0 1
    outer loop
      vertex 85 4.063 3
      vertex 69.5 5 3
      vertex 69.012 5 3
    endloop
  endfacet
  facet normal 0 0 1
    outer loop
      vertex 48 4.063 3
      vertex 48 3.5 3
      vertex 108 0 3
    endloop
  endfacet
  facet normal 0 0 1
    outer loop
      vertex 49.5 8 3
      vertex 49.5 5 3
      vertex 64.073 4.737 3
    endloop
  endfacet
  facet normal 0 0 1
    outer loop
      vertex 68 3.5 3
      vertex 65 3.5 3
      vertex 109.913 0.381 3
    endloop
  endfacet
  facet normal 0 0 1
    outer loop
      vertex 64.073 4.737 3
      vertex 63.988 5 3
      vertex 63.5 5 3
    endloop
  endfacet
  facet normal 0 0 1
    outer loop
      vertex 84.073 8.263 3
      vertex 85 8.937 3
      vertex 68.927 8.263 3
    endloop
  endfacet
  facet normal 0 0 1
    outer loop
      vertex 85 3.5 3
      vertex 68 4.063 3
      vertex 111.536 1.464 3
    endloop
  endfacet
  facet normal 0 0 1
    outer loop
      vertex 84.073 4.737 3
      vertex 83.5 5 3
      vertex 69.5 5 3
    endloop
  endfacet
  facet normal 0 0 1
    outer loop
      vertex 3.5 8 3
      vertex 4.073 8.263 3
      vertex 0 8 3
    endloop
  endfacet
  facet normal 0 0 1
    outer loop
      vertex 105 3.5 3
      vertex 88 4.063 3
      vertex 112.619 3.087 3
    endloop
  endfacet
  facet normal 0 0 1
    outer loop
      vertex 84.073 8.263 3
      vertex 69.5 8 3
      vertex 83.5 8 3
    endloop
  endfacet
  facet normal 0 0 1
    outer loop
      vertex 88.927 4.737 3
      vertex 88 4.063 3
      vertex 105 3.5 3
    endloop
  endfacet
  facet normal 0 0 1
    outer loop
      vertex 88 8.937 3
      vertex 105 9.5 3
      vertex 112.619 9.913 3
    endloop
  endfacet
  facet normal 0 0 1
    outer loop
      vertex 68 8.937 3
      vertex 68.927 8.263 3
      vertex 85 8.937 3
    endloop
  endfacet
  facet normal 0 0 1
    outer loop
      vertex 8 8.937 3
      vertex 8.927 8.263 3
      vertex 25 8.937 3
    endloop
  endfacet
  facet normal 0 0 1
    outer loop
      vertex 88 8.937 3
      vertex 88.927 8.263 3
      vertex 105 9.5 3
    endloop
  endfacet
  facet normal 0 0 1
    outer loop
      vertex 105 9.5 3
      vertex 108 9.5 3
      vertex 112.619 9.913 3
    endloop
  endfacet
  facet normal 0 0 1
    outer loop
      vertex 88.927 8.263 3
      vertex 89.012 8 3
      vertex 89.5 8 3
    endloop
  endfacet
  facet normal 0 0 1
    outer loop
      vertex 105 3.5 3
      vertex 105 4.063 3
      vertex 89.5 5 3
    endloop
  endfacet
  facet normal 0 0 1
    outer loop
      vertex 68.927 4.737 3
      vertex 68 4.063 3
      vertex 85 3.5 3
    endloop
  endfacet
  facet normal 0 0 1
    outer loop
      vertex 24.073 8.263 3
      vertex 25 8.937 3
      vertex 8.927 8.263 3
    endloop
  endfacet
  facet normal 0 0 1
    outer loop
      vertex 112.619 3.087 3
      vertex 88 3.5 3
      vertex 111.536 1.464 3
    endloop
  endfacet
  facet normal 0 0 1
    outer loop
      vertex 85 4.063 3
      vertex 69.012 5 3
      vertex 68.927 4.737 3
    endloop
  endfacet
  facet normal 0 0 1
    outer loop
      vertex 88 3.5 3
      vertex 85 3.5 3
      vertex 111.536 1.464 3
    endloop
  endfacet
  facet normal 0 0 1
    outer loop
      vertex 85 4.063 3
      vertex 84.073 4.737 3
      vertex 69.5 5 3
    endloop
  endfacet
  facet normal 0 0 1
    outer loop
      vertex 105 4.063 3
      vertex 103.5 5 3
      vertex 89.5 5 3
    endloop
  endfacet
  facet normal 0 0 1
    outer loop
      vertex 108 4.063 3
      vertex 108 3.5 3
      vertex 112.619 3.087 3
    endloop
  endfacet
  facet normal 0 0 1
    outer loop
      vertex 88.927 8.263 3
      vertex 89.5 8 3
      vertex 103.5 8 3
    endloop
  endfacet
  facet normal 0 0 1
    outer loop
      vertex 88.927 8.263 3
      vertex 103.5 8 3
      vertex 103.988 8 3
    endloop
  endfacet
  facet normal 0 0 1
    outer loop
      vertex 105 8.937 3
      vertex 88.927 8.263 3
      vertex 104.073 8.263 3
    endloop
  endfacet
  facet normal 0 0 1
    outer loop
      vertex 108.927 8.263 3
      vertex 109.5 8 3
      vertex 113 8 3
    endloop
  endfacet
  facet normal 0 0 1
    outer loop
      vertex 108 9.5 3
      vertex 108 8.937 3
      vertex 112.619 9.913 3
    endloop
  endfacet
  facet normal 0 0 1
    outer loop
      vertex 103.988 8 3
      vertex 104.073 8.263 3
      vertex 88.927 8.263 3
    endloop
  endfacet
  facet normal 0 0 1
    outer loop
      vertex 108.927 8.263 3
      vertex 109.012 8 3
      vertex 109.5 8 3
    endloop
  endfacet
  facet normal 0 0 1
    outer loop
      vertex 112.619 9.913 3
      vertex 108 8.937 3
      vertex 113 8 3
    endloop
  endfacet
  facet normal 0 0 1
    outer loop
      vertex 108 8.937 3
      vertex 108.927 8.263 3
      vertex 113 8 3
    endloop
  endfacet
  facet normal 0 0 1
    outer loop
      vertex 108 3.5 3
      vertex 105 3.5 3
      vertex 112.619 3.087 3
    endloop
  endfacet
  facet normal 0 0 1
    outer loop
      vertex 109.5 8 3
      vertex 109.5 5 3
      vertex 113 5 3
    endloop
  endfacet
  facet normal 0 0 1
    outer loop
      vertex 105 8.937 3
      vertex 105 9.5 3
      vertex 88.927 8.263 3
    endloop
  endfacet
  facet normal 0 0 1
    outer loop
      vertex 112.619 3.087 3
      vertex 109.5 5 3
      vertex 109.012 5 3
    endloop
  endfacet
  facet normal 0 0 1
    outer loop
      vertex 44.073 8.263 3
      vertex 29.012 8 3
      vertex 29.5 8 3
    endloop
  endfacet
  facet normal 0 0 1
    outer loop
      vertex 112.619 3.087 3
      vertex 109.012 5 3
      vertex 108.927 4.737 3
    endloop
  endfacet
  facet normal 0 0 1
    outer loop
      vertex 105 3.5 3
      vertex 89.5 5 3
      vertex 89.012 5 3
    endloop
  endfacet
  facet normal 0 0 1
    outer loop
      vertex 112.619 3.087 3
      vertex 108.927 4.737 3
      vertex 108 4.063 3
    endloop
  endfacet
  facet normal 0 0 1
    outer loop
      vertex 104.073 4.737 3
      vertex 103.988 5 3
      vertex 103.5 5 3
    endloop
  endfacet
  facet normal 0 0 1
    outer loop
      vertex 105 3.5 3
      vertex 89.012 5 3
      vertex 88.927 4.737 3
    endloop
  endfacet
  facet normal 0 0 1
    outer loop
      vertex 88 4.063 3
      vertex 88 3.5 3
      vertex 112.619 3.087 3
    endloop
  endfacet
  facet normal 0 0 1
    outer loop
      vertex 103.5 5 3
      vertex 103.5 8 3
      vertex 89.5 8 3
    endloop
  endfacet
  facet normal 0 0 1
    outer loop
      vertex 104.073 4.737 3
      vertex 103.5 5 3
      vertex 105 4.063 3
    endloop
  endfacet
  facet normal 0 0 1
    outer loop
      vertex 25 8.937 3
      vertex 25 9.5 3
      vertex 8 8.937 3
    endloop
  endfacet
  facet normal 0 0 1
    outer loop
      vertex 23.5 5 3
      vertex 23.5 8 3
      vertex 9.5 8 3
    endloop
  endfacet
  facet normal 0 0 1
    outer loop
      vertex 28 4.063 3
      vertex 28 3.5 3
      vertex 108 0 3
    endloop
  endfacet
  facet normal 0 0 1
    outer loop
      vertex 48.927 4.737 3
      vertex 48 4.063 3
      vertex 108 0 3
    endloop
  endfacet
  facet normal 0 0 1
    outer loop
      vertex 48.927 4.737 3
      vertex 108 0 3
      vertex 65 3.5 3
    endloop
  endfacet
  facet normal 0 0 1
    outer loop
      vertex 65 3.5 3
      vertex 108 0 3
      vertex 109.913 0.381 3
    endloop
  endfacet
  facet normal 0 0 1
    outer loop
      vertex 65 3.5 3
      vertex 65 4.063 3
      vertex 48.927 4.737 3
    endloop
  endfacet
  facet normal 0 0 1
    outer loop
      vertex 65 4.063 3
      vertex 64.073 4.737 3
      vertex 49.5 5 3
    endloop
  endfacet
  facet normal 0 0 1
    outer loop
      vertex 44.073 4.737 3
      vertex 43.988 5 3
      vertex 43.5 5 3
    endloop
  endfacet
  facet normal 0 0 1
    outer loop
      vertex 9.012 5 3
      vertex 8.927 4.737 3
      vertex 25 4.063 3
    endloop
  endfacet
  facet normal 0 0 1
    outer loop
      vertex 25 3.5 3
      vertex 25 4.063 3
      vertex 8.927 4.737 3
    endloop
  endfacet
  facet normal 0 0 1
    outer loop
      vertex 3.5 5 3
      vertex 3.5 8 3
      vertex 0 8 3
    endloop
  endfacet
  facet normal -0.831814 -0.555055 0
    outer loop
      vertex 0.381 3.087 0
      vertex 1.464 1.464 0
      vertex 0.381 3.087 3
    endloop
  endfacet
  facet normal -0.831814 -0.555055 0
    outer loop
      vertex 0.381 3.087 3
      vertex 1.464 1.464 0
      vertex 1.464 1.464 3
    endloop
  endfacet
  facet normal -0.555055 -0.831814 0
    outer loop
      vertex 1.464 1.464 3
      vertex 1.464 1.464 0
      vertex 3.087 0.381 0
    endloop
  endfacet
  facet normal -0.555055 -0.831814 0
    outer loop
      vertex 3.087 0.381 3
      vertex 1.464 1.464 3
      vertex 3.087 0.381 0
    endloop
  endfacet
  facet normal -0.195327 -0.980738 0
    outer loop
      vertex 3.087 0.381 3
      vertex 3.087 0.381 0
      vertex 5 0 0
    endloop
  endfacet
  facet normal -0.195327 -0.980738 0
    outer loop
      vertex 5 0 3
      vertex 3.087 0.381 3
      vertex 5 0 0
    endloop
  endfacet
  facet normal 0 -1 0
    outer loop
      vertex 5 0 3
      vertex 5 0 0
      vertex 108 0 0
    endloop
  endfacet
  facet normal 0 -1 0
    outer loop
      vertex 108 0 3
      vertex 5 0 3
      vertex 108 0 0
    endloop
  endfacet
  facet normal 0.195327 -0.980738 0
    outer loop
      vertex 108 0 3
      vertex 108 0 0
      vertex 109.913 0.381 0
    endloop
  endfacet
  facet normal 0.195327 -0.980738 0
    outer loop
      vertex 109.913 0.381 3
      vertex 108 0 3
      vertex 109.913 0.381 0
    endloop
  endfacet
  facet normal 0.555055 -0.831814 0
    outer loop
      vertex 109.913 0.381 3
      vertex 109.913 0.381 0
      vertex 111.536 1.464 0
    endloop
  endfacet
  facet normal 0.555055 -0.831814 0
    outer loop
      vertex 111.536 1.464 3
      vertex 109.913 0.381 3
      vertex 111.536 1.464 0
    endloop
  endfacet
  facet normal 0.831814 -0.555055 0
    outer loop
      vertex 111.536 1.464 3
      vertex 111.536 1.464 0
      vertex 112.619 3.087 0
    endloop
  endfacet
  facet normal 0.831814 -0.555055 0
    outer loop
      vertex 112.619 3.087 3
      vertex 111.536 1.464 3
      vertex 112.619 3.087 0
    endloop
  endfacet
  facet normal 0.980738 -0.195327 0
    outer loop
      vertex 112.619 3.087 3
      vertex 112.619 3.087 0
      vertex 113 5 0
    endloop
  endfacet
  facet normal 0.980738 -0.195327 0
    outer loop
      vertex 113 5 3
      vertex 112.619 3.087 3
      vertex 113 5 0
    endloop
  endfacet
  facet normal 1 0 0
    outer loop
      vertex 113 5 3
      vertex 113 5 0
      vertex 113 8 0
    endloop
  endfacet
  facet normal 1 0 0
    outer loop
      vertex 113 8 3
      vertex 113 5 3
      vertex 113 8 0
    endloop
  endfacet
  facet normal 0.980738 0.195327 0
    outer loop
      vertex 113 8 0
      vertex 112.619 9.913 0
      vertex 112.619 9.913 3
    endloop
  endfacet
  facet normal 0.980738 0.195327 0
    outer loop
      vertex 113 8 3
      vertex 113 8 0
      vertex 112.619 9.913 3
    endloop
  endfacet
  facet normal 0.831814 0.555055 0
    outer loop
      vertex 112.619 9.913 0
      vertex 111.536 11.536 0
      vertex 111.536 11.536 3
    endloop
  endfacet
  facet normal 0.831814 0.555055 0
    outer loop
      vertex 112.619 9.913 3
      vertex 112.619 9.913 0
      vertex 111.536 11.536 3
    endloop
  endfacet
  facet normal 0.555055 0.831814 0
    outer loop
      vertex 109.913 12.619 0
      vertex 109.913 12.619 3
      vertex 111.536 11.536 0
    endloop
  endfacet
  facet normal 0.555055 0.831814 0
    outer loop
      vertex 111.536 11.536 0
      vertex 109.913 12.619 3
      vertex 111.536 11.536 3
    endloop
  endfacet
  facet normal 0.195327 0.980738 0
    outer loop
      vertex 108 13 0
      vertex 108 13 3
      vertex 109.913 12.619 0
    endloop
  endfacet
  facet normal 0.195327 0.980738 0
    outer loop
      vertex 109.913 12.619 0
      vertex 108 13 3
      vertex 109.913 12.619 3
    endloop
  endfacet
  facet normal 0 1 0
    outer loop
      vertex 5 13 0
      vertex 5 13 3
      vertex 108 13 0
    endloop
  endfacet
  facet normal 0 1 0
    outer loop
      vertex 108 13 0
      vertex 5 13 3
      vertex 108 13 3
    endloop
  endfacet
  facet normal -0.195327 0.980738 0
    outer loop
      vertex 3.087 12.619 0
      vertex 3.087 12.619 3
      vertex 5 13 0
    endloop
  endfacet
  facet normal -0.195327 0.980738 0
    outer loop
      vertex 5 13 0
      vertex 3.087 12.619 3
      vertex 5 13 3
    endloop
  endfacet
  facet normal -0.555055 0.831814 0
    outer loop
      vertex 1.464 11.536 0
      vertex 1.464 11.536 3
      vertex 3.087 12.619 0
    endloop
  endfacet
  facet normal -0.555055 0.831814 0
    outer loop
      vertex 3.087 12.619 0
      vertex 1.464 11.536 3
      vertex 3.087 12.619 3
    endloop
  endfacet
  facet normal -0.831814 0.555055 0
    outer loop
      vertex 0.381 9.913 0
      vertex 0.381 9.913 3
      vertex 1.464 11.536 0
    endloop
  endfacet
  facet normal -0.831814 0.555055 0
    outer loop
      vertex 1.464 11.536 0
      vertex 0.381 9.913 3
      vertex 1.464 11.536 3
    endloop
  endfacet
  facet normal -0.980738 0.195327 0
    outer loop
      vertex 0 8 0
      vertex 0 8 3
      vertex 0.381 9.913 0
    endloop
  endfacet
  facet normal -0.980738 0.195327 0
    outer loop
      vertex 0.381 9.913 0
      vertex 0 8 3
      vertex 0.381 9.913 3
    endloop
  endfacet
  facet normal 0 -1 0
    outer loop
      vertex 3.988 8 0
      vertex 3.988 8 3
      vertex 3.5 8 3
    endloop
  endfacet
  facet normal 0 -1 0
    outer loop
      vertex 3.5 8 0
      vertex 3.988 8 0
      vertex 3.5 8 3
    endloop
  endfacet
  facet normal 1 0 0
    outer loop
      vertex 3.5 8 0
      vertex 3.5 8 3
      vertex 3.5 5 3
    endloop
  endfacet
  facet normal 1 0 0
    outer loop
      vertex 3.5 5 0
      vertex 3.5 8 0
      vertex 3.5 5 3
    endloop
  endfacet
  facet normal 0.951538 -0.307531 0
    outer loop
      vertex 4.073 8.263 0
      vertex 4.073 8.263 3
      vertex 3.988 8 3
    endloop
  endfacet
  facet normal 0.951538 -0.307531 0
    outer loop
      vertex 3.988 8 0
      vertex 4.073 8.263 0
      vertex 3.988 8 3
    endloop
  endfacet
  facet normal 0.588068 -0.808812 0
    outer loop
      vertex 5 8.937 0
      vertex 5 8.937 3
      vertex 4.073 8.263 3
    endloop
  endfacet
  facet normal 0.588068 -0.808812 0
    outer loop
      vertex 4.073 8.263 0
      vertex 5 8.937 0
      vertex 4.073 8.263 3
    endloop
  endfacet
  facet normal 1 0 0
    outer loop
      vertex 5 9.5 0
      vertex 5 9.5 3
      vertex 5 8.937 3
    endloop
  endfacet
  facet normal 1 0 0
    outer loop
      vertex 5 8.937 0
      vertex 5 9.5 0
      vertex 5 8.937 3
    endloop
  endfacet
  facet normal 0 -1 0
    outer loop
      vertex 8 9.5 0
      vertex 8 9.5 3
      vertex 5 9.5 3
    endloop
  endfacet
  facet normal 0 -1 0
    outer loop
      vertex 5 9.5 0
      vertex 8 9.5 0
      vertex 5 9.5 3
    endloop
  endfacet
  facet normal -1 0 0
    outer loop
      vertex 8 9.5 3
      vertex 8 9.5 0
      vertex 8 8.937 3
    endloop
  endfacet
  facet normal -1 0 0
    outer loop
      vertex 8 8.937 3
      vertex 8 9.5 0
      vertex 8 8.937 0
    endloop
  endfacet
  facet normal -0.588068 -0.808812 0
    outer loop
      vertex 8.927 8.263 0
      vertex 8.927 8.263 3
      vertex 8 8.937 3
    endloop
  endfacet
  facet normal -0.588068 -0.808812 0
    outer loop
      vertex 8 8.937 0
      vertex 8.927 8.263 0
      vertex 8 8.937 3
    endloop
  endfacet
  facet normal -0.951538 -0.307531 0
    outer loop
      vertex 9.012 8 3
      vertex 8.927 8.263 3
      vertex 9.012 8 0
    endloop
  endfacet
  facet normal -0.951538 -0.307531 0
    outer loop
      vertex 9.012 8 0
      vertex 8.927 8.263 3
      vertex 8.927 8.263 0
    endloop
  endfacet
  facet normal 0 -1 0
    outer loop
      vertex 9.5 8 0
      vertex 9.5 8 3
      vertex 9.012 8 3
    endloop
  endfacet
  facet normal 0 -1 0
    outer loop
      vertex 9.012 8 0
      vertex 9.5 8 0
      vertex 9.012 8 3
    endloop
  endfacet
  facet normal -1 0 0
    outer loop
      vertex 9.5 8 3
      vertex 9.5 8 0
      vertex 9.5 5 3
    endloop
  endfacet
  facet normal -1 0 0
    outer loop
      vertex 9.5 5 3
      vertex 9.5 8 0
      vertex 9.5 5 0
    endloop
  endfacet
  facet normal 0 1 0
    outer loop
      vertex 9.5 5 3
      vertex 9.5 5 0
      vertex 9.012 5 3
    endloop
  endfacet
  facet normal 0 1 0
    outer loop
      vertex 9.012 5 3
      vertex 9.5 5 0
      vertex 9.012 5 0
    endloop
  endfacet
  facet normal -0.951538 0.307531 0
    outer loop
      vertex 9.012 5 3
      vertex 9.012 5 0
      vertex 8.927 4.737 3
    endloop
  endfacet
  facet normal -0.951538 0.307531 0
    outer loop
      vertex 8.927 4.737 3
      vertex 9.012 5 0
      vertex 8.927 4.737 0
    endloop
  endfacet
  facet normal -0.588068 0.808812 0
    outer loop
      vertex 8.927 4.737 3
      vertex 8.927 4.737 0
      vertex 8 4.063 3
    endloop
  endfacet
  facet normal -0.588068 0.808812 0
    outer loop
      vertex 8 4.063 3
      vertex 8.927 4.737 0
      vertex 8 4.063 0
    endloop
  endfacet
  facet normal -1 0 0
    outer loop
      vertex 8 4.063 3
      vertex 8 4.063 0
      vertex 8 3.5 3
    endloop
  endfacet
  facet normal -1 0 0
    outer loop
      vertex 8 3.5 3
      vertex 8 4.063 0
      vertex 8 3.5 0
    endloop
  endfacet
  facet normal 0 1 0
    outer loop
      vertex 8 3.5 3
      vertex 8 3.5 0
      vertex 5 3.5 3
    endloop
  endfacet
  facet normal 0 1 0
    outer loop
      vertex 5 3.5 3
      vertex 8 3.5 0
      vertex 5 3.5 0
    endloop
  endfacet
  facet normal 1 0 0
    outer loop
      vertex 5 4.063 0
      vertex 5 4.063 3
      vertex 5 3.5 3
    endloop
  endfacet
  facet normal 1 0 0
    outer loop
      vertex 5 3.5 0
      vertex 5 4.063 0
      vertex 5 3.5 3
    endloop
  endfacet
  facet normal 0.588068 0.808812 0
    outer loop
      vertex 5 4.063 3
      vertex 5 4.063 0
      vertex 4.073 4.737 3
    endloop
  endfacet
  facet normal 0.588068 0.808812 0
    outer loop
      vertex 4.073 4.737 3
      vertex 5 4.063 0
      vertex 4.073 4.737 0
    endloop
  endfacet
  facet normal 0.951538 0.307531 0
    outer loop
      vertex 3.988 5 3
      vertex 4.073 4.737 3
      vertex 4.073 4.737 0
    endloop
  endfacet
  facet normal 0.951538 0.307531 0
    outer loop
      vertex 3.988 5 0
      vertex 3.988 5 3
      vertex 4.073 4.737 0
    endloop
  endfacet
  facet normal 0 1 0
    outer loop
      vertex 3.988 5 3
      vertex 3.988 5 0
      vertex 3.5 5 3
    endloop
  endfacet
  facet normal 0 1 0
    outer loop
      vertex 3.5 5 3
      vertex 3.988 5 0
      vertex 3.5 5 0
    endloop
  endfacet
  facet normal 0 -1 0
    outer loop
      vertex 23.988 8 0
      vertex 23.988 8 3
      vertex 23.5 8 3
    endloop
  endfacet
  facet normal 0 -1 0
    outer loop
      vertex 23.5 8 0
      vertex 23.988 8 0
      vertex 23.5 8 3
    endloop
  endfacet
  facet normal 1 0 0
    outer loop
      vertex 23.5 8 0
      vertex 23.5 8 3
      vertex 23.5 5 3
    endloop
  endfacet
  facet normal 1 0 0
    outer loop
      vertex 23.5 5 0
      vertex 23.5 8 0
      vertex 23.5 5 3
    endloop
  endfacet
  facet normal 0.951538 -0.307531 0
    outer loop
      vertex 24.073 8.263 0
      vertex 24.073 8.263 3
      vertex 23.988 8 3
    endloop
  endfacet
  facet normal 0.951538 -0.307531 0
    outer loop
      vertex 23.988 8 0
      vertex 24.073 8.263 0
      vertex 23.988 8 3
    endloop
  endfacet
  facet normal 0.588068 -0.808812 0
    outer loop
      vertex 25 8.937 0
      vertex 25 8.937 3
      vertex 24.073 8.263 3
    endloop
  endfacet
  facet normal 0.588068 -0.808812 0
    outer loop
      vertex 24.073 8.263 0
      vertex 25 8.937 0
      vertex 24.073 8.263 3
    endloop
  endfacet
  facet normal 1 0 0
    outer loop
      vertex 25 9.5 0
      vertex 25 9.5 3
      vertex 25 8.937 3
    endloop
  endfacet
  facet normal 1 0 0
    outer loop
      vertex 25 8.937 0
      vertex 25 9.5 0
      vertex 25 8.937 3
    endloop
  endfacet
  facet normal 0 -1 0
    outer loop
      vertex 28 9.5 0
      vertex 28 9.5 3
      vertex 25 9.5 3
    endloop
  endfacet
  facet normal 0 -1 0
    outer loop
      vertex 25 9.5 0
      vertex 28 9.5 0
      vertex 25 9.5 3
    endloop
  endfacet
  facet normal -1 0 0
    outer loop
      vertex 28 9.5 3
      vertex 28 9.5 0
      vertex 28 8.937 3
    endloop
  endfacet
  facet normal -1 0 0
    outer loop
      vertex 28 8.937 3
      vertex 28 9.5 0
      vertex 28 8.937 0
    endloop
  endfacet
  facet normal -0.588068 -0.808812 0
    outer loop
      vertex 28.927 8.263 0
      vertex 28.927 8.263 3
      vertex 28 8.937 3
    endloop
  endfacet
  facet normal -0.588068 -0.808812 0
    outer loop
      vertex 28 8.937 0
      vertex 28.927 8.263 0
      vertex 28 8.937 3
    endloop
  endfacet
  facet normal -0.951538 -0.307531 0
    outer loop
      vertex 29.012 8 3
      vertex 28.927 8.263 3
      vertex 29.012 8 0
    endloop
  endfacet
  facet normal -0.951538 -0.307531 0
    outer loop
      vertex 29.012 8 0
      vertex 28.927 8.263 3
      vertex 28.927 8.263 0
    endloop
  endfacet
  facet normal 0 -1 0
    outer loop
      vertex 29.5 8 0
      vertex 29.5 8 3
      vertex 29.012 8 3
    endloop
  endfacet
  facet normal 0 -1 0
    outer loop
      vertex 29.012 8 0
      vertex 29.5 8 0
      vertex 29.012 8 3
    endloop
  endfacet
  facet normal -1 0 0
    outer loop
      vertex 29.5 8 3
      vertex 29.5 8 0
      vertex 29.5 5 3
    endloop
  endfacet
  facet normal -1 0 0
    outer loop
      vertex 29.5 5 3
      vertex 29.5 8 0
      vertex 29.5 5 0
    endloop
  endfacet
  facet normal 0 1 0
    outer loop
      vertex 29.5 5 3
      vertex 29.5 5 0
      vertex 29.012 5 3
    endloop
  endfacet
  facet normal 0 1 0
    outer loop
      vertex 29.012 5 3
      vertex 29.5 5 0
      vertex 29.012 5 0
    endloop
  endfacet
  facet normal -0.951538 0.307531 0
    outer loop
      vertex 29.012 5 3
      vertex 29.012 5 0
      vertex 28.927 4.737 3
    endloop
  endfacet
  facet normal -0.951538 0.307531 0
    outer loop
      vertex 28.927 4.737 3
      vertex 29.012 5 0
      vertex 28.927 4.737 0
    endloop
  endfacet
  facet normal -0.588068 0.808812 0
    outer loop
      vertex 28.927 4.737 3
      vertex 28.927 4.737 0
      vertex 28 4.063 3
    endloop
  endfacet
  facet normal -0.588068 0.808812 0
    outer loop
      vertex 28 4.063 3
      vertex 28.927 4.737 0
      vertex 28 4.063 0
    endloop
  endfacet
  facet normal -1 0 0
    outer loop
      vertex 28 4.063 3
      vertex 28 4.063 0
      vertex 28 3.5 3
    endloop
  endfacet
  facet normal -1 0 0
    outer loop
      vertex 28 3.5 3
      vertex 28 4.063 0
      vertex 28 3.5 0
    endloop
  endfacet
  facet normal 0 1 0
    outer loop
      vertex 28 3.5 3
      vertex 28 3.5 0
      vertex 25 3.5 3
    endloop
  endfacet
  facet normal 0 1 0
    outer loop
      vertex 25 3.5 3
      vertex 28 3.5 0
      vertex 25 3.5 0
    endloop
  endfacet
  facet normal 1 0 0
    outer loop
      vertex 25 4.063 0
      vertex 25 4.063 3
      vertex 25 3.5 3
    endloop
  endfacet
  facet normal 1 0 0
    outer loop
      vertex 25 3.5 0
      vertex 25 4.063 0
      vertex 25 3.5 3
    endloop
  endfacet
  facet normal 0.588068 0.808812 0
    outer loop
      vertex 25 4.063 3
      vertex 25 4.063 0
      vertex 24.073 4.737 3
    endloop
  endfacet
  facet normal 0.588068 0.808812 0
    outer loop
      vertex 24.073 4.737 3
      vertex 25 4.063 0
      vertex 24.073 4.737 0
    endloop
  endfacet
  facet normal 0.951538 0.307531 0
    outer loop
      vertex 23.988 5 3
      vertex 24.073 4.737 3
      vertex 24.073 4.737 0
    endloop
  endfacet
  facet normal 0.951538 0.307531 0
    outer loop
      vertex 23.988 5 0
      vertex 23.988 5 3
      vertex 24.073 4.737 0
    endloop
  endfacet
  facet normal 0 1 0
    outer loop
      vertex 23.988 5 3
      vertex 23.988 5 0
      vertex 23.5 5 3
    endloop
  endfacet
  facet normal 0 1 0
    outer loop
      vertex 23.5 5 3
      vertex 23.988 5 0
      vertex 23.5 5 0
    endloop
  endfacet
  facet normal 0 -1 0
    outer loop
      vertex 43.988 8 0
      vertex 43.988 8 3
      vertex 43.5 8 3
    endloop
  endfacet
  facet normal 0 -1 0
    outer loop
      vertex 43.5 8 0
      vertex 43.988 8 0
      vertex 43.5 8 3
    endloop
  endfacet
  facet normal 1 0 0
    outer loop
      vertex 43.5 8 0
      vertex 43.5 8 3
      vertex 43.5 5 3
    endloop
  endfacet
  facet normal 1 0 0
    outer loop
      vertex 43.5 5 0
      vertex 43.5 8 0
      vertex 43.5 5 3
    endloop
  endfacet
  facet normal 0.951538 -0.307531 0
    outer loop
      vertex 44.073 8.263 0
      vertex 44.073 8.263 3
      vertex 43.988 8 3
    endloop
  endfacet
  facet normal 0.951538 -0.307531 0
    outer loop
      vertex 43.988 8 0
      vertex 44.073 8.263 0
      vertex 43.988 8 3
    endloop
  endfacet
  facet normal 0.588068 -0.808812 0
    outer loop
      vertex 45 8.937 0
      vertex 45 8.937 3
      vertex 44.073 8.263 3
    endloop
  endfacet
  facet normal 0.588068 -0.808812 0
    outer loop
      vertex 44.073 8.263 0
      vertex 45 8.937 0
      vertex 44.073 8.263 3
    endloop
  endfacet
  facet normal 1 0 0
    outer loop
      vertex 45 9.5 0
      vertex 45 9.5 3
      vertex 45 8.937 3
    endloop
  endfacet
  facet normal 1 0 0
    outer loop
      vertex 45 8.937 0
      vertex 45 9.5 0
      vertex 45 8.937 3
    endloop
  endfacet
  facet normal 0 -1 0
    outer loop
      vertex 48 9.5 0
      vertex 48 9.5 3
      vertex 45 9.5 3
    endloop
  endfacet
  facet normal 0 -1 0
    outer loop
      vertex 45 9.5 0
      vertex 48 9.5 0
      vertex 45 9.5 3
    endloop
  endfacet
  facet normal -1 0 0
    outer loop
      vertex 48 9.5 3
      vertex 48 9.5 0
      vertex 48 8.937 3
    endloop
  endfacet
  facet normal -1 0 0
    outer loop
      vertex 48 8.937 3
      vertex 48 9.5 0
      vertex 48 8.937 0
    endloop
  endfacet
  facet normal -0.588068 -0.808812 0
    outer loop
      vertex 48.927 8.263 0
      vertex 48.927 8.263 3
      vertex 48 8.937 3
    endloop
  endfacet
  facet normal -0.588068 -0.808812 0
    outer loop
      vertex 48 8.937 0
      vertex 48.927 8.263 0
      vertex 48 8.937 3
    endloop
  endfacet
  facet normal -0.951538 -0.307531 0
    outer loop
      vertex 49.012 8 3
      vertex 48.927 8.263 3
      vertex 49.012 8 0
    endloop
  endfacet
  facet normal -0.951538 -0.307531 0
    outer loop
      vertex 49.012 8 0
      vertex 48.927 8.263 3
      vertex 48.927 8.263 0
    endloop
  endfacet
  facet normal 0 -1 0
    outer loop
      vertex 49.5 8 0
      vertex 49.5 8 3
      vertex 49.012 8 3
    endloop
  endfacet
  facet normal 0 -1 0
    outer loop
      vertex 49.012 8 0
      vertex 49.5 8 0
      vertex 49.012 8 3
    endloop
  endfacet
  facet normal -1 0 0
    outer loop
      vertex 49.5 8 3
      vertex 49.5 8 0
      vertex 49.5 5 3
    endloop
  endfacet
  facet normal -1 0 0
    outer loop
      vertex 49.5 5 3
      vertex 49.5 8 0
      vertex 49.5 5 0
    endloop
  endfacet
  facet normal 0 1 0
    outer loop
      vertex 49.5 5 3
      vertex 49.5 5 0
      vertex 49.012 5 3
    endloop
  endfacet
  facet normal 0 1 0
    outer loop
      vertex 49.012 5 3
      vertex 49.5 5 0
      vertex 49.012 5 0
    endloop
  endfacet
  facet normal -0.951538 0.307531 0
    outer loop
      vertex 49.012 5 3
      vertex 49.012 5 0
      vertex 48.927 4.737 3
    endloop
  endfacet
  facet normal -0.951538 0.307531 0
    outer loop
      vertex 48.927 4.737 3
      vertex 49.012 5 0
      vertex 48.927 4.737 0
    endloop
  endfacet
  facet normal -0.588068 0.808812 0
    outer loop
      vertex 48.927 4.737 3
      vertex 48.927 4.737 0
      vertex 48 4.063 3
    endloop
  endfacet
  facet normal -0.588068 0.808812 0
    outer loop
      vertex 48 4.063 3
      vertex 48.927 4.737 0
      vertex 48 4.063 0
    endloop
  endfacet
  facet normal -1 0 0
    outer loop
      vertex 48 4.063 3
      vertex 48 4.063 0
      vertex 48 3.5 3
    endloop
  endfacet
  facet normal -1 0 0
    outer loop
      vertex 48 3.5 3
      vertex 48 4.063 0
      vertex 48 3.5 0
    endloop
  endfacet
  facet normal 0 1 0
    outer loop
      vertex 48 3.5 3
      vertex 48 3.5 0
      vertex 45 3.5 3
    endloop
  endfacet
  facet normal 0 1 0
    outer loop
      vertex 45 3.5 3
      vertex 48 3.5 0
      vertex 45 3.5 0
    endloop
  endfacet
  facet normal 1 0 0
    outer loop
      vertex 45 4.063 0
      vertex 45 4.063 3
      vertex 45 3.5 3
    endloop
  endfacet
  facet normal 1 0 0
    outer loop
      vertex 45 3.5 0
      vertex 45 4.063 0
      vertex 45 3.5 3
    endloop
  endfacet
  facet normal 0.588068 0.808812 0
    outer loop
      vertex 45 4.063 3
      vertex 45 4.063 0
      vertex 44.073 4.737 3
    endloop
  endfacet
  facet normal 0.588068 0.808812 0
    outer loop
      vertex 44.073 4.737 3
      vertex 45 4.063 0
      vertex 44.073 4.737 0
    endloop
  endfacet
  facet normal 0.951538 0.307531 0
    outer loop
      vertex 43.988 5 3
      vertex 44.073 4.737 3
      vertex 44.073 4.737 0
    endloop
  endfacet
  facet normal 0.951538 0.307531 0
    outer loop
      vertex 43.988 5 0
      vertex 43.988 5 3
      vertex 44.073 4.737 0
    endloop
  endfacet
  facet normal 0 1 0
    outer loop
      vertex 43.988 5 3
      vertex 43.988 5 0
      vertex 43.5 5 3
    endloop
  endfacet
  facet normal 0 1 0
    outer loop
      vertex 43.5 5 3
      vertex 43.988 5 0
      vertex 43.5 5 0
    endloop
  endfacet
  facet normal 0 -1 0
    outer loop
      vertex 63.988 8 0
      vertex 63.988 8 3
      vertex 63.5 8 3
    endloop
  endfacet
  facet normal 0 -1 0
    outer loop
      vertex 63.5 8 0
      vertex 63.988 8 0
      vertex 63.5 8 3
    endloop
  endfacet
  facet normal 1 0 0
    outer loop
      vertex 63.5 8 0
      vertex 63.5 8 3
      vertex 63.5 5 3
    endloop
  endfacet
  facet normal 1 0 0
    outer loop
      vertex 63.5 5 0
      vertex 63.5 8 0
      vertex 63.5 5 3
    endloop
  endfacet
  facet normal 0.951538 -0.307531 0
    outer loop
      vertex 64.073 8.263 0
      vertex 64.073 8.263 3
      vertex 63.988 8 3
    endloop
  endfacet
  facet normal 0.951538 -0.307531 0
    outer loop
      vertex 63.988 8 0
      vertex 64.073 8.263 0
      vertex 63.988 8 3
    endloop
  endfacet
  facet normal 0.588068 -0.808812 0
    outer loop
      vertex 65 8.937 0
      vertex 65 8.937 3
      vertex 64.073 8.263 3
    endloop
  endfacet
  facet normal 0.588068 -0.808812 0
    outer loop
      vertex 64.073 8.263 0
      vertex 65 8.937 0
      vertex 64.073 8.263 3
    endloop
  endfacet
  facet normal 1 0 0
    outer loop
      vertex 65 9.5 0
      vertex 65 9.5 3
      vertex 65 8.937 3
    endloop
  endfacet
  facet normal 1 0 0
    outer loop
      vertex 65 8.937 0
      vertex 65 9.5 0
      vertex 65 8.937 3
    endloop
  endfacet
  facet normal 0 -1 0
    outer loop
      vertex 68 9.5 0
      vertex 68 9.5 3
      vertex 65 9.5 3
    endloop
  endfacet
  facet normal 0 -1 0
    outer loop
      vertex 65 9.5 0
      vertex 68 9.5 0
      vertex 65 9.5 3
    endloop
  endfacet
  facet normal -1 0 0
    outer loop
      vertex 68 9.5 3
      vertex 68 9.5 0
      vertex 68 8.937 3
    endloop
  endfacet
  facet normal -1 0 0
    outer loop
      vertex 68 8.937 3
      vertex 68 9.5 0
      vertex 68 8.937 0
    endloop
  endfacet
  facet normal -0.588068 -0.808812 0
    outer loop
      vertex 68.927 8.263 0
      vertex 68.927 8.263 3
      vertex 68 8.937 3
    endloop
  endfacet
  facet normal -0.588068 -0.808812 0
    outer loop
      vertex 68 8.937 0
      vertex 68.927 8.263 0
      vertex 68 8.937 3
    endloop
  endfacet
  facet normal -0.951538 -0.307531 0
    outer loop
      vertex 69.012 8 3
      vertex 68.927 8.263 3
      vertex 69.012 8 0
    endloop
  endfacet
  facet normal -0.951538 -0.307531 0
    outer loop
      vertex 69.012 8 0
      vertex 68.927 8.263 3
      vertex 68.927 8.263 0
    endloop
  endfacet
  facet normal 0 -1 0
    outer loop
      vertex 69.5 8 0
      vertex 69.5 8 3
      vertex 69.012 8 3
    endloop
  endfacet
  facet normal 0 -1 0
    outer loop
      vertex 69.012 8 0
      vertex 69.5 8 0
      vertex 69.012 8 3
    endloop
  endfacet
  facet normal -1 0 0
    outer loop
      vertex 69.5 8 3
      vertex 69.5 8 0
      vertex 69.5 5 3
    endloop
  endfacet
  facet normal -1 0 0
    outer loop
      vertex 69.5 5 3
      vertex 69.5 8 0
      vertex 69.5 5 0
    endloop
  endfacet
  facet normal 0 1 0
    outer loop
      vertex 69.5 5 3
      vertex 69.5 5 0
      vertex 69.012 5 3
    endloop
  endfacet
  facet normal 0 1 0
    outer loop
      vertex 69.012 5 3
      vertex 69.5 5 0
      vertex 69.012 5 0
    endloop
  endfacet
  facet normal -0.951538 0.307531 0
    outer loop
      vertex 69.012 5 3
      vertex 69.012 5 0
      vertex 68.927 4.737 3
    endloop
  endfacet
  facet normal -0.951538 0.307531 0
    outer loop
      vertex 68.927 4.737 3
      vertex 69.012 5 0
      vertex 68.927 4.737 0
    endloop
  endfacet
  facet normal -0.588068 0.808812 0
    outer loop
      vertex 68.927 4.737 3
      vertex 68.927 4.737 0
      vertex 68 4.063 3
    endloop
  endfacet
  facet normal -0.588068 0.808812 0
    outer loop
      vertex 68 4.063 3
      vertex 68.927 4.737 0
      vertex 68 4.063 0
    endloop
  endfacet
  facet normal -1 0 0
    outer loop
      vertex 68 4.063 3
      vertex 68 4.063 0
      vertex 68 3.5 3
    endloop
  endfacet
  facet normal -1 0 0
    outer loop
      vertex 68 3.5 3
      vertex 68 4.063 0
      vertex 68 3.5 0
    endloop
  endfacet
  facet normal 0 1 0
    outer loop
      vertex 68 3.5 3
      vertex 68 3.5 0
      vertex 65 3.5 3
    endloop
  endfacet
  facet normal 0 1 0
    outer loop
      vertex 65 3.5 3
      vertex 68 3.5 0
      vertex 65 3.5 0
    endloop
  endfacet
  facet normal 1 0 0
    outer loop
      vertex 65 4.063 0
      vertex 65 4.063 3
      vertex 65 3.5 3
    endloop
  endfacet
  facet normal 1 0 0
    outer loop
      vertex 65 3.5 0
      vertex 65 4.063 0
      vertex 65 3.5 3
    endloop
  endfacet
  facet normal 0.588068 0.808812 0
    outer loop
      vertex 65 4.063 3
      vertex 65 4.063 0
      vertex 64.073 4.737 3
    endloop
  endfacet
  facet normal 0.588068 0.808812 0
    outer loop
      vertex 64.073 4.737 3
      vertex 65 4.063 0
      vertex 64.073 4.737 0
    endloop
  endfacet
  facet normal 0.951538 0.307531 0
    outer loop
      vertex 63.988 5 3
      vertex 64.073 4.737 3
      vertex 64.073 4.737 0
    endloop
  endfacet
  facet normal 0.951538 0.307531 0
    outer loop
      vertex 63.988 5 0
      vertex 63.988 5 3
      vertex 64.073 4.737 0
    endloop
  endfacet
  facet normal 0 1 0
    outer loop
      vertex 63.988 5 3
      vertex 63.988 5 0
      vertex 63.5 5 3
    endloop
  endfacet
  facet normal 0 1 0
    outer loop
      vertex 63.5 5 3
      vertex 63.988 5 0
      vertex 63.5 5 0
    endloop
  endfacet
  facet normal 0 -1 0
    outer loop
      vertex 83.988 8 0
      vertex 83.988 8 3
      vertex 83.5 8 3
    endloop
  endfacet
  facet normal 0 -1 0
    outer loop
      vertex 83.5 8 0
      vertex 83.988 8 0
      vertex 83.5 8 3
    endloop
  endfacet
  facet normal 1 0 0
    outer loop
      vertex 83.5 8 0
      vertex 83.5 8 3
      vertex 83.5 5 3
    endloop
  endfacet
  facet normal 1 0 0
    outer loop
      vertex 83.5 5 0
      vertex 83.5 8 0
      vertex 83.5 5 3
    endloop
  endfacet
  facet normal 0.951538 -0.307531 0
    outer loop
      vertex 84.073 8.263 0
      vertex 84.073 8.263 3
      vertex 83.988 8 3
    endloop
  endfacet
  facet normal 0.951538 -0.307531 0
    outer loop
      vertex 83.988 8 0
      vertex 84.073 8.263 0
      vertex 83.988 8 3
    endloop
  endfacet
  facet normal 0.588068 -0.808812 0
    outer loop
      vertex 85 8.937 0
      vertex 85 8.937 3
      vertex 84.073 8.263 3
    endloop
  endfacet
  facet normal 0.588068 -0.808812 0
    outer loop
      vertex 84.073 8.263 0
      vertex 85 8.937 0
      vertex 84.073 8.263 3
    endloop
  endfacet
  facet normal 1 0 0
    outer loop
      vertex 85 9.5 0
      vertex 85 9.5 3
      vertex 85 8.937 3
    endloop
  endfacet
  facet normal 1 0 0
    outer loop
      vertex 85 8.937 0
      vertex 85 9.5 0
      vertex 85 8.937 3
    endloop
  endfacet
  facet normal 0 -1 0
    outer loop
      vertex 88 9.5 0
      vertex 88 9.5 3
      vertex 85 9.5 3
    endloop
  endfacet
  facet normal 0 -1 0
    outer loop
      vertex 85 9.5 0
      vertex 88 9.5 0
      vertex 85 9.5 3
    endloop
  endfacet
  facet normal -1 0 0
    outer loop
      vertex 88 9.5 3
      vertex 88 9.5 0
      vertex 88 8.937 3
    endloop
  endfacet
  facet normal -1 0 0
    outer loop
      vertex 88 8.937 3
      vertex 88 9.5 0
      vertex 88 8.937 0
    endloop
  endfacet
  facet normal -0.588068 -0.808812 0
    outer loop
      vertex 88.927 8.263 0
      vertex 88.927 8.263 3
      vertex 88 8.937 3
    endloop
  endfacet
  facet normal -0.588068 -0.808812 0
    outer loop
      vertex 88 8.937 0
      vertex 88.927 8.263 0
      vertex 88 8.937 3
    endloop
  endfacet
  facet normal -0.951538 -0.307531 0
    outer loop
      vertex 89.012 8 3
      vertex 88.927 8.263 3
      vertex 89.012 8 0
    endloop
  endfacet
  facet normal -0.951538 -0.307531 0
    outer loop
      vertex 89.012 8 0
      vertex 88.927 8.263 3
      vertex 88.927 8.263 0
    endloop
  endfacet
  facet normal 0 -1 0
    outer loop
      vertex 89.5 8 0
      vertex 89.5 8 3
      vertex 89.012 8 3
    endloop
  endfacet
  facet normal 0 -1 0
    outer loop
      vertex 89.012 8 0
      vertex 89.5 8 0
      vertex 89.012 8 3
    endloop
  endfacet
  facet normal -1 0 0
    outer loop
      vertex 89.5 8 3
      vertex 89.5 8 0
      vertex 89.5 5 3
    endloop
  endfacet
  facet normal -1 0 0
    outer loop
      vertex 89.5 5 3
      vertex 89.5 8 0
      vertex 89.5 5 0
    endloop
  endfacet
  facet normal 0 1 0
    outer loop
      vertex 89.5 5 3
      vertex 89.5 5 0
      vertex 89.012 5 3
    endloop
  endfacet
  facet normal 0 1 0
    outer loop
      vertex 89.012 5 3
      vertex 89.5 5 0
      vertex 89.012 5 0
    endloop
  endfacet
  facet normal -0.951538 0.307531 0
    outer loop
      vertex 89.012 5 3
      vertex 89.012 5 0
      vertex 88.927 4.737 3
    endloop
  endfacet
  facet normal -0.951538 0.307531 0
    outer loop
      vertex 88.927 4.737 3
      vertex 89.012 5 0
      vertex 88.927 4.737 0
    endloop
  endfacet
  facet normal -0.588068 0.808812 0
    outer loop
      vertex 88.927 4.737 3
      vertex 88.927 4.737 0
      vertex 88 4.063 3
    endloop
  endfacet
  facet normal -0.588068 0.808812 0
    outer loop
      vertex 88 4.063 3
      vertex 88.927 4.737 0
      vertex 88 4.063 0
    endloop
  endfacet
  facet normal -1 0 0
    outer loop
      vertex 88 4.063 3
      vertex 88 4.063 0
      vertex 88 3.5 3
    endloop
  endfacet
  facet normal -1 0 0
    outer loop
      vertex 88 3.5 3
      vertex 88 4.063 0
      vertex 88 3.5 0
    endloop
  endfacet
  facet normal 0 1 0
    outer loop
      vertex 88 3.5 3
      vertex 88 3.5 0
      vertex 85 3.5 3
    endloop
  endfacet
  facet normal 0 1 0
    outer loop
      vertex 85 3.5 3
      vertex 88 3.5 0
      vertex 85 3.5 0
    endloop
  endfacet
  facet normal 1 0 0
    outer loop
      vertex 85 4.063 0
      vertex 85 4.063 3
      vertex 85 3.5 3
    endloop
  endfacet
  facet normal 1 0 0
    outer loop
      vertex 85 3.5 0
      vertex 85 4.063 0
      vertex 85 3.5 3
    endloop
  endfacet
  facet normal 0.588068 0.808812 0
    outer loop
      vertex 85 4.063 3
      vertex 85 4.063 0
      vertex 84.073 4.737 3
    endloop
  endfacet
  facet normal 0.588068 0.808812 0
    outer loop
      vertex 84.073 4.737 3
      vertex 85 4.063 0
      vertex 84.073 4.737 0
    endloop
  endfacet
  facet normal 0.951538 0.307531 0
    outer loop
      vertex 83.988 5 3
      vertex 84.073 4.737 3
      vertex 84.073 4.737 0
    endloop
  endfacet
  facet normal 0.951538 0.307531 0
    outer loop
      vertex 83.988 5 0
      vertex 83.988 5 3
      vertex 84.073 4.737 0
    endloop
  endfacet
  facet normal 0 1 0
    outer loop
      vertex 83.988 5 3
      vertex 83.988 5 0
      vertex 83.5 5 3
    endloop
  endfacet
  facet normal 0 1 0
    outer loop
      vertex 83.5 5 3
      vertex 83.988 5 0
      vertex 83.5 5 0
    endloop
  endfacet
  facet normal 0 -1 0
    outer loop
      vertex 103.988 8 0
      vertex 103.988 8 3
      vertex 103.5 8 3
    endloop
  endfacet
  facet normal 0 -1 0
    outer loop
      vertex 103.5 8 0
      vertex 103.988 8 0
      vertex 103.5 8 3
    endloop
  endfacet
  facet normal 1 0 0
    outer loop
      vertex 103.5 8 0
      vertex 103.5 8 3
      vertex 103.5 5 3
    endloop
  endfacet
  facet normal 1 0 0
    outer loop
      vertex 103.5 5 0
      vertex 103.5 8 0
      vertex 103.5 5 3
    endloop
  endfacet
  facet normal 0.951538 -0.307531 0
    outer loop
      vertex 104.073 8.263 0
      vertex 104.073 8.263 3
      vertex 103.988 8 3
    endloop
  endfacet
  facet normal 0.951538 -0.307531 0
    outer loop
      vertex 103.988 8 0
      vertex 104.073 8.263 0
      vertex 103.988 8 3
    endloop
  endfacet
  facet normal 0.588068 -0.808812 0
    outer loop
      vertex 105 8.937 0
      vertex 105 8.937 3
      vertex 104.073 8.263 3
    endloop
  endfacet
  facet normal 0.588068 -0.808812 0
    outer loop
      vertex 104.073 8.263 0
      vertex 105 8.937 0
      vertex 104.073 8.263 3
    endloop
  endfacet
  facet normal 1 0 0
    outer loop
      vertex 105 9.5 0
      vertex 105 9.5 3
      vertex 105 8.937 3
    endloop
  endfacet
  facet normal 1 0 0
    outer loop
      vertex 105 8.937 0
      vertex 105 9.5 0
      vertex 105 8.937 3
    endloop
  endfacet
  facet normal 0 -1 0
    outer loop
      vertex 108 9.5 0
      vertex 108 9.5 3
      vertex 105 9.5 3
    endloop
  endfacet
  facet normal 0 -1 0
    outer loop
      vertex 105 9.5 0
      vertex 108 9.5 0
      vertex 105 9.5 3
    endloop
  endfacet
  facet normal -1 0 0
    outer loop
      vertex 108 9.5 3
      vertex 108 9.5 0
      vertex 108 8.937 3
    endloop
  endfacet
  facet normal -1 0 0
    outer loop
      vertex 108 8.937 3
      vertex 108 9.5 0
      vertex 108 8.937 0
    endloop
  endfacet
  facet normal -0.588068 -0.808812 0
    outer loop
      vertex 108.927 8.263 0
      vertex 108.927 8.263 3
      vertex 108 8.937 3
    endloop
  endfacet
  facet normal -0.588068 -0.808812 0
    outer loop
      vertex 108 8.937 0
      vertex 108.927 8.263 0
      vertex 108 8.937 3
    endloop
  endfacet
  facet normal -0.951538 -0.307531 0
    outer loop
      vertex 109.012 8 3
      vertex 108.927 8.263 3
      vertex 109.012 8 0
    endloop
  endfacet
  facet normal -0.951538 -0.307531 0
    outer loop
      vertex 109.012 8 0
      vertex 108.927 8.263 3
      vertex 108.927 8.263 0
    endloop
  endfacet
  facet normal 0 -1 0
    outer loop
      vertex 109.5 8 0
      vertex 109.5 8 3
      vertex 109.012 8 3
    endloop
  endfacet
  facet normal 0 -1 0
    outer loop
      vertex 109.012 8 0
      vertex 109.5 8 0
      vertex 109.012 8 3
    endloop
  endfacet
  facet normal -1 0 0
    outer loop
      vertex 109.5 8 3
      vertex 109.5 8 0
      vertex 109.5 5 3
    endloop
  endfacet
  facet normal -1 0 0
    outer loop
      vertex 109.5 5 3
      vertex 109.5 8 0
      vertex 109.5 5 0
    endloop
  endfacet
  facet normal 0 1 0
    outer loop
      vertex 109.5 5 3
      vertex 109.5 5 0
      vertex 109.012 5 3
    endloop
  endfacet
  facet normal 0 1 0
    outer loop
      vertex 109.012 5 3
      vertex 109.5 5 0
      vertex 109.012 5 0
    endloop
  endfacet
  facet normal -0.951538 0.307531 0
    outer loop
      vertex 109.012 5 3
      vertex 109.012 5 0
      vertex 108.927 4.737 3
    endloop
  endfacet
  facet normal -0.951538 0.307531 0
    outer loop
      vertex 108.927 4.737 3
      vertex 109.012 5 0
      vertex 108.927 4.737 0
    endloop
  endfacet
  facet normal -0.588068 0.808812 0
    outer loop
      vertex 108.927 4.737 3
      vertex 108.927 4.737 0
      vertex 108 4.063 3
    endloop
  endfacet
  facet normal -0.588068 0.808812 0
    outer loop
      vertex 108 4.063 3
      vertex 108.927 4.737 0
      vertex 108 4.063 0
    endloop
  endfacet
  facet normal -1 0 0
    outer loop
      vertex 108 4.063 3
      vertex 108 4.063 0
      vertex 108 3.5 3
    endloop
  endfacet
  facet normal -1 0 0
    outer loop
      vertex 108 3.5 3
      vertex 108 4.063 0
      vertex 108 3.5 0
    endloop
  endfacet
  facet normal 0 1 0
    outer loop
      vertex 108 3.5 3
      vertex 108 3.5 0
      vertex 105 3.5 3
    endloop
  endfacet
  facet normal 0 1 0
    outer loop
      vertex 105 3.5 3
      vertex 108 3.5 0
      vertex 105 3.5 0
    endloop
  endfacet
  facet normal 1 0 0
    outer loop
      vertex 105 4.063 0
      vertex 105 4.063 3
      vertex 105 3.5 3
    endloop
  endfacet
  facet normal 1 0 0
    outer loop
      vertex 105 3.5 0
      vertex 105 4.063 0
      vertex 105 3.5 3
    endloop
  endfacet
  facet normal 0.588068 0.808812 0
    outer loop
      vertex 105 4.063 3
      vertex 105 4.063 0
      vertex 104.073 4.737 3
    endloop
  endfacet
  facet normal 0.588068 0.808812 0
    outer loop
      vertex 104.073 4.737 3
      vertex 105 4.063 0
      vertex 104.073 4.737 0
    endloop
  endfacet
  facet normal 0.951538 0.307531 0
    outer loop
      vertex 103.988 5 3
      vertex 104.073 4.737 3
      vertex 104.073 4.737 0
    endloop
  endfacet
  facet normal 0.951538 0.307531 0
    outer loop
      vertex 103.988 5 0
      vertex 103.988 5 3
      vertex 104.073 4.737 0
    endloop
  endfacet
  facet normal 0 1 0
    outer loop
      vertex 103.988 5 3
      vertex 103.988 5 0
      vertex 103.5 5 3
    endloop
  endfacet
  facet normal 0 1 0
    outer loop
      vertex 103.5 5 3
      vertex 103.988 5 0
      vertex 103.5 5 0
    endloop
  endfacet
endsolid OpenSCAD_Model
