<?xml version="1.0" encoding="UTF-8"?>
<!DOCTYPE svg PUBLIC "-//W3C//DTD SVG 1.1//EN" "http://www.w3.org/Graphics/SVG/1.1/DTD/svg11.dtd">
<!-- Creator: CorelDRAW -->
<svg xmlns="http://www.w3.org/2000/svg" xml:space="preserve" width="210mm" height="297mm" style="shape-rendering:geometricPrecision; text-rendering:geometricPrecision; image-rendering:optimizeQuality; fill-rule:evenodd; clip-rule:evenodd"
viewBox="0 0 210 297"
 xmlns:xlink="http://www.w3.org/1999/xlink">
 <defs>
  <style type="text/css">
   <![CDATA[
    .str0 {stroke:black;stroke-width:0.5644}
    .fil0 {fill:none;fill-rule:nonzero}
   ]]>
  </style>
 </defs>
 <g id="Layer_x0020_1">
  <metadata id="CorelCorpID_0Corel-Layer"/>
  <g id="OOBB-PL-06-01.pdf">
   <path id="_119497664" class="fil0 str0" d="M-51.4992 290.5l103 0c2.77,0 4.9996,2.2309 4.9996,5.0009l0 3.0001c0,2.7696 -2.2296,4.9992 -4.9996,4.9992l-103 0c-2.77,0 -5.001,-2.2296 -5.001,-4.9992l0 -3.0001c0,-2.77 2.231,-5.0009 5.001,-5.0009zm0 0z"/>
   <path id="_119495552" class="fil0 str0" d="M-51.4992 300l0 -0.4011c-0.4561,-0.2632 -0.8354,-0.6435 -1.0986,-1.0982l-0.4021 0 0 -1.5008 0 -1.4993 0.4021 0c0.2632,-0.4561 0.6425,-0.8353 1.0986,-1.0985l0 -0.4022 1.4993 0 1.5007 0 0 0.4022c0.4547,0.2632 0.835,0.6424 1.0982,1.0985l0.4011 0 0 1.4993 0 1.5008 -0.4011 0c-0.2632,0.4547 -0.6435,0.835 -1.0982,1.0982l0 0.4011 -1.5007 0 -1.4993 0zm0 0z"/>
   <path id="_119498696" class="fil0 str0" d="M-31.4999 300l0 -0.4011c-0.4547,-0.2632 -0.835,-0.6435 -1.0982,-1.0982l-0.4011 0 0 -1.5008 0 -1.4993 0.4011 0c0.2632,-0.4561 0.6435,-0.8353 1.0982,-1.0985l0 -0.4022 1.5007 0 1.4993 0 0 0.4022c0.4548,0.2632 0.8351,0.6424 1.0982,1.0985l0.4026 0 0 1.4993 0 1.5008 -0.4026 0c-0.2631,0.4547 -0.6434,0.835 -1.0982,1.0982l0 0.4011 -1.4993 0 -1.5007 0zm0 0z"/>
   <path id="_119498168" class="fil0 str0" d="M-11.5006 300l0 -0.4011c-0.4547,-0.2632 -0.8336,-0.6435 -1.0982,-1.0982l-0.4011 0 0 -1.5008 0 -1.4993 0.4011 0c0.2646,-0.4561 0.6435,-0.8353 1.0982,-1.0985l0 -0.4022 1.5008 0 1.4993 0 0 0.4022c0.4561,0.2632 0.8353,0.6424 1.0985,1.0985l0.4022 0 0 1.4993 0 1.5008 -0.4022 0c-0.2632,0.4547 -0.6424,0.835 -1.0985,1.0982l0 0.4011 -1.4993 0 -1.5008 0zm0 0z"/>
   <path id="_119496032" class="fil0 str0" d="M8.5005 300l0 -0.4011c-0.4561,-0.2632 -0.835,-0.6435 -1.0982,-1.0982l-0.4025 0 0 -1.5008 0 -1.4993 0.4025 0c0.2632,-0.4561 0.6421,-0.8353 1.0982,-1.0985l0 -0.4022 1.4993 0 1.5008 0 0 0.4022c0.4547,0.2632 0.835,0.6424 1.0982,1.0985l0.4011 0 0 1.4993 0 1.5008 -0.4011 0c-0.2632,0.4547 -0.6435,0.835 -1.0982,1.0982l0 0.4011 -1.5008 0 -1.4993 0zm0 0z"/>
   <path id="_119495864" class="fil0 str0" d="M28.4999 300l0 -0.4011c-0.4548,-0.2632 -0.8351,-0.6435 -1.0982,-1.0982l-0.4011 0 0 -1.5008 0 -1.4993 0.4011 0c0.2631,-0.4561 0.6434,-0.8353 1.0982,-1.0985l0 -0.4022 1.5007 0 1.4993 0 0 0.4022c0.4561,0.2632 0.835,0.6424 1.0982,1.0985l0.4025 0 0 1.4993 0 1.5008 -0.4025 0c-0.2632,0.4547 -0.6421,0.835 -1.0982,1.0982l0 0.4011 -1.4993 0 -1.5007 0zm0 0z"/>
   <path id="_119498744" class="fil0 str0" d="M48.4995 300l0 -0.4011c-0.4547,-0.2632 -0.8339,-0.6435 -1.0985,-1.0982l-0.4008 0 0 -1.5008 0 -1.4993 0.4008 0c0.2646,-0.4561 0.6438,-0.8353 1.0985,-1.0985l0 -0.4022 1.5008 0 1.4993 0 0 0.4022c0.4557,0.2632 0.835,0.6424 1.0996,1.0985l0.4007 0 0 1.4993 0 1.5008 -0.4007 0c-0.2646,0.4547 -0.6439,0.835 -1.0996,1.0982l0 0.4011 -1.4993 0 -1.5008 0zm0 0z"/>
   <polygon id="_119499176" class="fil0 str0" points="-42.9997,295.501 -36.9997,295.501 -36.9997,298.501 -42.9997,298.501 "/>
   <polygon id="_119497352" class="fil0 str0" points="-23.0001,295.501 -17,295.501 -17,298.501 -23.0001,298.501 "/>
   <polygon id="_119496896" class="fil0 str0" points="-2.9993,295.501 3.0007,295.501 3.0007,298.501 -2.9993,298.501 "/>
   <polygon id="_119496824" class="fil0 str0" points="17.0004,295.501 23.0004,295.501 23.0004,298.501 17.0004,298.501 "/>
   <polygon id="_119495720" class="fil0 str0" points="36.9997,295.501 42.9997,295.501 42.9997,298.501 36.9997,298.501 "/>
  </g>
 </g>
</svg>
