<?xml version="1.0" standalone="no"?>
<!DOCTYPE svg PUBLIC "-//W3C//DTD SVG 1.1//EN" "http://www.w3.org/Graphics/SVG/1.1/DTD/svg11.dtd">
<svg width="117mm" height="117mm" viewBox="9 -126 117 117" xmlns="http://www.w3.org/2000/svg" version="1.1">
<title>OpenSCAD Model</title>
<path d="
M 121,-9.00986 L 121.314,-9.00986 L 121.937,-9.08856 L 122.545,-9.24471 L 123.129,-9.47586 L 123.679,-9.77835
 L 124.187,-10.1474 L 124.645,-10.5773 L 125.045,-11.0611 L 125.382,-11.5912 L 125.649,-12.1594 L 125.843,-12.7565
 L 125.961,-13.3733 L 126,-14 L 126,-121 L 125.961,-121.627 L 125.843,-122.243 L 125.649,-122.841
 L 125.382,-123.409 L 125.045,-123.939 L 124.645,-124.423 L 124.187,-124.853 L 123.679,-125.222 L 123.129,-125.524
 L 122.545,-125.755 L 121.937,-125.911 L 121.314,-125.99 L 121,-125.99 L 121,-126 L 14,-126
 L 14,-125.99 L 13.686,-125.99 L 13.0631,-125.911 L 12.4549,-125.755 L 11.8711,-125.524 L 11.3209,-125.222
 L 10.8129,-124.853 L 10.3551,-124.423 L 9.95491,-123.939 L 9.61845,-123.409 L 9.3511,-122.841 L 9.15707,-122.243
 L 9.03941,-121.627 L 9,-121 L 9,-14 L 9.03941,-13.3733 L 9.15707,-12.7565 L 9.3511,-12.1594
 L 9.61845,-11.5912 L 9.95491,-11.0611 L 10.3551,-10.5773 L 10.8129,-10.1474 L 11.3209,-9.77835 L 11.8711,-9.47586
 L 12.4549,-9.24471 L 13.0631,-9.08856 L 13.686,-9.00986 L 14,-9.00986 L 14,-9 L 121,-9
 z
M 14.7959,-116.756 L 14.391,-116.808 L 13.9957,-116.909 L 13.6162,-117.059 L 13.2586,-117.256 L 12.9284,-117.496
 L 12.6308,-117.775 L 12.3707,-118.09 L 12.152,-118.434 L 11.9782,-118.804 L 11.8521,-119.192 L 11.7756,-119.593
 L 11.75,-120 L 11.7756,-120.407 L 11.8521,-120.808 L 11.9782,-121.196 L 12.152,-121.566 L 12.3707,-121.91
 L 12.6308,-122.225 L 12.9284,-122.504 L 13.2586,-122.744 L 13.6162,-122.941 L 13.9957,-123.091 L 14.391,-123.192
 L 14.7959,-123.244 L 15.2041,-123.244 L 15.609,-123.192 L 16.0043,-123.091 L 16.3838,-122.941 L 16.7414,-122.744
 L 17.0716,-122.504 L 17.3691,-122.225 L 17.6293,-121.91 L 17.848,-121.566 L 18.0218,-121.196 L 18.1479,-120.808
 L 18.2244,-120.407 L 18.25,-120 L 18.2244,-119.593 L 18.1479,-119.192 L 18.0218,-118.804 L 17.848,-118.434
 L 17.6293,-118.09 L 17.3691,-117.775 L 17.0716,-117.496 L 16.7414,-117.256 L 16.3838,-117.059 L 16.0043,-116.909
 L 15.609,-116.808 L 15.2041,-116.756 z
M 44.7959,-116.756 L 44.391,-116.808 L 43.9957,-116.909 L 43.6162,-117.059 L 43.2586,-117.256 L 42.9284,-117.496
 L 42.6308,-117.775 L 42.3707,-118.09 L 42.152,-118.434 L 41.9782,-118.804 L 41.8521,-119.192 L 41.7756,-119.593
 L 41.75,-120 L 41.7756,-120.407 L 41.8521,-120.808 L 41.9782,-121.196 L 42.152,-121.566 L 42.3707,-121.91
 L 42.6308,-122.225 L 42.9284,-122.504 L 43.2586,-122.744 L 43.6162,-122.941 L 43.9957,-123.091 L 44.391,-123.192
 L 44.7959,-123.244 L 45.2041,-123.244 L 45.609,-123.192 L 46.0043,-123.091 L 46.3838,-122.941 L 46.7414,-122.744
 L 47.0716,-122.504 L 47.3691,-122.225 L 47.6293,-121.91 L 47.848,-121.566 L 48.0218,-121.196 L 48.1479,-120.808
 L 48.2244,-120.407 L 48.25,-120 L 48.2244,-119.593 L 48.1479,-119.192 L 48.0218,-118.804 L 47.848,-118.434
 L 47.6293,-118.09 L 47.3691,-117.775 L 47.0716,-117.496 L 46.7414,-117.256 L 46.3838,-117.059 L 46.0043,-116.909
 L 45.609,-116.808 L 45.2041,-116.756 z
M 59.7959,-116.756 L 59.391,-116.808 L 58.9957,-116.909 L 58.6162,-117.059 L 58.2586,-117.256 L 57.9284,-117.496
 L 57.6308,-117.775 L 57.3707,-118.09 L 57.152,-118.434 L 56.9782,-118.804 L 56.8521,-119.192 L 56.7756,-119.593
 L 56.75,-120 L 56.7756,-120.407 L 56.8521,-120.808 L 56.9782,-121.196 L 57.152,-121.566 L 57.3707,-121.91
 L 57.6308,-122.225 L 57.9284,-122.504 L 58.2586,-122.744 L 58.6162,-122.941 L 58.9957,-123.091 L 59.391,-123.192
 L 59.7959,-123.244 L 60.2041,-123.244 L 60.609,-123.192 L 61.0043,-123.091 L 61.3838,-122.941 L 61.7414,-122.744
 L 62.0716,-122.504 L 62.3691,-122.225 L 62.6293,-121.91 L 62.848,-121.566 L 63.0218,-121.196 L 63.1479,-120.808
 L 63.2244,-120.407 L 63.25,-120 L 63.2244,-119.593 L 63.1479,-119.192 L 63.0218,-118.804 L 62.848,-118.434
 L 62.6293,-118.09 L 62.3691,-117.775 L 62.0716,-117.496 L 61.7414,-117.256 L 61.3838,-117.059 L 61.0043,-116.909
 L 60.609,-116.808 L 60.2041,-116.756 z
M 74.7959,-116.756 L 74.391,-116.808 L 73.9957,-116.909 L 73.6162,-117.059 L 73.2586,-117.256 L 72.9284,-117.496
 L 72.6308,-117.775 L 72.3707,-118.09 L 72.152,-118.434 L 71.9782,-118.804 L 71.8521,-119.192 L 71.7756,-119.593
 L 71.75,-120 L 71.7756,-120.407 L 71.8521,-120.808 L 71.9782,-121.196 L 72.152,-121.566 L 72.3707,-121.91
 L 72.6308,-122.225 L 72.9284,-122.504 L 73.2586,-122.744 L 73.6162,-122.941 L 73.9957,-123.091 L 74.391,-123.192
 L 74.7959,-123.244 L 75.2041,-123.244 L 75.609,-123.192 L 76.0043,-123.091 L 76.3838,-122.941 L 76.7414,-122.744
 L 77.0716,-122.504 L 77.3691,-122.225 L 77.6293,-121.91 L 77.848,-121.566 L 78.0218,-121.196 L 78.1479,-120.808
 L 78.2244,-120.407 L 78.25,-120 L 78.2244,-119.593 L 78.1479,-119.192 L 78.0218,-118.804 L 77.848,-118.434
 L 77.6293,-118.09 L 77.3691,-117.775 L 77.0716,-117.496 L 76.7414,-117.256 L 76.3838,-117.059 L 76.0043,-116.909
 L 75.609,-116.808 L 75.2041,-116.756 z
M 29.7959,-116.756 L 29.391,-116.808 L 28.9957,-116.909 L 28.6162,-117.059 L 28.2586,-117.256 L 27.9284,-117.496
 L 27.6308,-117.775 L 27.3707,-118.09 L 27.152,-118.434 L 26.9782,-118.804 L 26.8521,-119.192 L 26.7756,-119.593
 L 26.75,-120 L 26.7756,-120.407 L 26.8521,-120.808 L 26.9782,-121.196 L 27.152,-121.566 L 27.3707,-121.91
 L 27.6308,-122.225 L 27.9284,-122.504 L 28.2586,-122.744 L 28.6162,-122.941 L 28.9957,-123.091 L 29.391,-123.192
 L 29.7959,-123.244 L 30.2041,-123.244 L 30.609,-123.192 L 31.0043,-123.091 L 31.3838,-122.941 L 31.7414,-122.744
 L 32.0716,-122.504 L 32.3691,-122.225 L 32.6293,-121.91 L 32.848,-121.566 L 33.0218,-121.196 L 33.1479,-120.808
 L 33.2244,-120.407 L 33.25,-120 L 33.2244,-119.593 L 33.1479,-119.192 L 33.0218,-118.804 L 32.848,-118.434
 L 32.6293,-118.09 L 32.3691,-117.775 L 32.0716,-117.496 L 31.7414,-117.256 L 31.3838,-117.059 L 31.0043,-116.909
 L 30.609,-116.808 L 30.2041,-116.756 z
M 89.7959,-116.756 L 89.391,-116.808 L 88.9957,-116.909 L 88.6162,-117.059 L 88.2586,-117.256 L 87.9284,-117.496
 L 87.6308,-117.775 L 87.3707,-118.09 L 87.152,-118.434 L 86.9782,-118.804 L 86.8521,-119.192 L 86.7756,-119.593
 L 86.75,-120 L 86.7756,-120.407 L 86.8521,-120.808 L 86.9782,-121.196 L 87.152,-121.566 L 87.3707,-121.91
 L 87.6308,-122.225 L 87.9284,-122.504 L 88.2586,-122.744 L 88.6162,-122.941 L 88.9957,-123.091 L 89.391,-123.192
 L 89.7959,-123.244 L 90.2041,-123.244 L 90.609,-123.192 L 91.0043,-123.091 L 91.3838,-122.941 L 91.7414,-122.744
 L 92.0716,-122.504 L 92.3691,-122.225 L 92.6293,-121.91 L 92.848,-121.566 L 93.0218,-121.196 L 93.1479,-120.808
 L 93.2244,-120.407 L 93.25,-120 L 93.2244,-119.593 L 93.1479,-119.192 L 93.0218,-118.804 L 92.848,-118.434
 L 92.6293,-118.09 L 92.3691,-117.775 L 92.0716,-117.496 L 91.7414,-117.256 L 91.3838,-117.059 L 91.0043,-116.909
 L 90.609,-116.808 L 90.2041,-116.756 z
M 104.796,-116.756 L 104.391,-116.808 L 103.996,-116.909 L 103.616,-117.059 L 103.259,-117.256 L 102.928,-117.496
 L 102.631,-117.775 L 102.371,-118.09 L 102.152,-118.434 L 101.978,-118.804 L 101.852,-119.192 L 101.776,-119.593
 L 101.75,-120 L 101.776,-120.407 L 101.852,-120.808 L 101.978,-121.196 L 102.152,-121.566 L 102.371,-121.91
 L 102.631,-122.225 L 102.928,-122.504 L 103.259,-122.744 L 103.616,-122.941 L 103.996,-123.091 L 104.391,-123.192
 L 104.796,-123.244 L 105.204,-123.244 L 105.609,-123.192 L 106.004,-123.091 L 106.384,-122.941 L 106.741,-122.744
 L 107.072,-122.504 L 107.369,-122.225 L 107.629,-121.91 L 107.848,-121.566 L 108.022,-121.196 L 108.148,-120.808
 L 108.224,-120.407 L 108.25,-120 L 108.224,-119.593 L 108.148,-119.192 L 108.022,-118.804 L 107.848,-118.434
 L 107.629,-118.09 L 107.369,-117.775 L 107.072,-117.496 L 106.741,-117.256 L 106.384,-117.059 L 106.004,-116.909
 L 105.609,-116.808 L 105.204,-116.756 z
M 119.796,-116.756 L 119.391,-116.808 L 118.996,-116.909 L 118.616,-117.059 L 118.259,-117.256 L 117.928,-117.496
 L 117.631,-117.775 L 117.371,-118.09 L 117.152,-118.434 L 116.978,-118.804 L 116.852,-119.192 L 116.776,-119.593
 L 116.75,-120 L 116.776,-120.407 L 116.852,-120.808 L 116.978,-121.196 L 117.152,-121.566 L 117.371,-121.91
 L 117.631,-122.225 L 117.928,-122.504 L 118.259,-122.744 L 118.616,-122.941 L 118.996,-123.091 L 119.391,-123.192
 L 119.796,-123.244 L 120.204,-123.244 L 120.609,-123.192 L 121.004,-123.091 L 121.384,-122.941 L 121.741,-122.744
 L 122.072,-122.504 L 122.369,-122.225 L 122.629,-121.91 L 122.848,-121.566 L 123.022,-121.196 L 123.148,-120.808
 L 123.224,-120.407 L 123.25,-120 L 123.224,-119.593 L 123.148,-119.192 L 123.022,-118.804 L 122.848,-118.434
 L 122.629,-118.09 L 122.369,-117.775 L 122.072,-117.496 L 121.741,-117.256 L 121.384,-117.059 L 121.004,-116.909
 L 120.609,-116.808 L 120.204,-116.756 z
M 59.7959,-101.756 L 59.391,-101.808 L 58.9957,-101.909 L 58.6162,-102.059 L 58.2586,-102.256 L 57.9284,-102.496
 L 57.6308,-102.775 L 57.3707,-103.09 L 57.152,-103.434 L 56.9782,-103.804 L 56.8521,-104.192 L 56.7756,-104.593
 L 56.75,-105 L 56.7756,-105.407 L 56.8521,-105.808 L 56.9782,-106.196 L 57.152,-106.566 L 57.3707,-106.91
 L 57.6308,-107.225 L 57.9284,-107.504 L 58.2586,-107.744 L 58.6162,-107.941 L 58.9957,-108.091 L 59.391,-108.192
 L 59.7959,-108.244 L 60.2041,-108.244 L 60.609,-108.192 L 61.0043,-108.091 L 61.3838,-107.941 L 61.7414,-107.744
 L 62.0716,-107.504 L 62.3691,-107.225 L 62.6293,-106.91 L 62.848,-106.566 L 63.0218,-106.196 L 63.1479,-105.808
 L 63.2244,-105.407 L 63.25,-105 L 63.2244,-104.593 L 63.1479,-104.192 L 63.0218,-103.804 L 62.848,-103.434
 L 62.6293,-103.09 L 62.3691,-102.775 L 62.0716,-102.496 L 61.7414,-102.256 L 61.3838,-102.059 L 61.0043,-101.909
 L 60.609,-101.808 L 60.2041,-101.756 z
M 29.7959,-101.756 L 29.391,-101.808 L 28.9957,-101.909 L 28.6162,-102.059 L 28.2586,-102.256 L 27.9284,-102.496
 L 27.6308,-102.775 L 27.3707,-103.09 L 27.152,-103.434 L 26.9782,-103.804 L 26.8521,-104.192 L 26.7756,-104.593
 L 26.75,-105 L 26.7756,-105.407 L 26.8521,-105.808 L 26.9782,-106.196 L 27.152,-106.566 L 27.3707,-106.91
 L 27.6308,-107.225 L 27.9284,-107.504 L 28.2586,-107.744 L 28.6162,-107.941 L 28.9957,-108.091 L 29.391,-108.192
 L 29.7959,-108.244 L 30.2041,-108.244 L 30.609,-108.192 L 31.0043,-108.091 L 31.3838,-107.941 L 31.7414,-107.744
 L 32.0716,-107.504 L 32.3691,-107.225 L 32.6293,-106.91 L 32.848,-106.566 L 33.0218,-106.196 L 33.1479,-105.808
 L 33.2244,-105.407 L 33.25,-105 L 33.2244,-104.593 L 33.1479,-104.192 L 33.0218,-103.804 L 32.848,-103.434
 L 32.6293,-103.09 L 32.3691,-102.775 L 32.0716,-102.496 L 31.7414,-102.256 L 31.3838,-102.059 L 31.0043,-101.909
 L 30.609,-101.808 L 30.2041,-101.756 z
M 74.7959,-101.756 L 74.391,-101.808 L 73.9957,-101.909 L 73.6162,-102.059 L 73.2586,-102.256 L 72.9284,-102.496
 L 72.6308,-102.775 L 72.3707,-103.09 L 72.152,-103.434 L 71.9782,-103.804 L 71.8521,-104.192 L 71.7756,-104.593
 L 71.75,-105 L 71.7756,-105.407 L 71.8521,-105.808 L 71.9782,-106.196 L 72.152,-106.566 L 72.3707,-106.91
 L 72.6308,-107.225 L 72.9284,-107.504 L 73.2586,-107.744 L 73.6162,-107.941 L 73.9957,-108.091 L 74.391,-108.192
 L 74.7959,-108.244 L 75.2041,-108.244 L 75.609,-108.192 L 76.0043,-108.091 L 76.3838,-107.941 L 76.7414,-107.744
 L 77.0716,-107.504 L 77.3691,-107.225 L 77.6293,-106.91 L 77.848,-106.566 L 78.0218,-106.196 L 78.1479,-105.808
 L 78.2244,-105.407 L 78.25,-105 L 78.2244,-104.593 L 78.1479,-104.192 L 78.0218,-103.804 L 77.848,-103.434
 L 77.6293,-103.09 L 77.3691,-102.775 L 77.0716,-102.496 L 76.7414,-102.256 L 76.3838,-102.059 L 76.0043,-101.909
 L 75.609,-101.808 L 75.2041,-101.756 z
M 14.7959,-101.756 L 14.391,-101.808 L 13.9957,-101.909 L 13.6162,-102.059 L 13.2586,-102.256 L 12.9284,-102.496
 L 12.6308,-102.775 L 12.3707,-103.09 L 12.152,-103.434 L 11.9782,-103.804 L 11.8521,-104.192 L 11.7756,-104.593
 L 11.75,-105 L 11.7756,-105.407 L 11.8521,-105.808 L 11.9782,-106.196 L 12.152,-106.566 L 12.3707,-106.91
 L 12.6308,-107.225 L 12.9284,-107.504 L 13.2586,-107.744 L 13.6162,-107.941 L 13.9957,-108.091 L 14.391,-108.192
 L 14.7959,-108.244 L 15.2041,-108.244 L 15.609,-108.192 L 16.0043,-108.091 L 16.3838,-107.941 L 16.7414,-107.744
 L 17.0716,-107.504 L 17.3691,-107.225 L 17.6293,-106.91 L 17.848,-106.566 L 18.0218,-106.196 L 18.1479,-105.808
 L 18.2244,-105.407 L 18.25,-105 L 18.2244,-104.593 L 18.1479,-104.192 L 18.0218,-103.804 L 17.848,-103.434
 L 17.6293,-103.09 L 17.3691,-102.775 L 17.0716,-102.496 L 16.7414,-102.256 L 16.3838,-102.059 L 16.0043,-101.909
 L 15.609,-101.808 L 15.2041,-101.756 z
M 119.796,-101.756 L 119.391,-101.808 L 118.996,-101.909 L 118.616,-102.059 L 118.259,-102.256 L 117.928,-102.496
 L 117.631,-102.775 L 117.371,-103.09 L 117.152,-103.434 L 116.978,-103.804 L 116.852,-104.192 L 116.776,-104.593
 L 116.75,-105 L 116.776,-105.407 L 116.852,-105.808 L 116.978,-106.196 L 117.152,-106.566 L 117.371,-106.91
 L 117.631,-107.225 L 117.928,-107.504 L 118.259,-107.744 L 118.616,-107.941 L 118.996,-108.091 L 119.391,-108.192
 L 119.796,-108.244 L 120.204,-108.244 L 120.609,-108.192 L 121.004,-108.091 L 121.384,-107.941 L 121.741,-107.744
 L 122.072,-107.504 L 122.369,-107.225 L 122.629,-106.91 L 122.848,-106.566 L 123.022,-106.196 L 123.148,-105.808
 L 123.224,-105.407 L 123.25,-105 L 123.224,-104.593 L 123.148,-104.192 L 123.022,-103.804 L 122.848,-103.434
 L 122.629,-103.09 L 122.369,-102.775 L 122.072,-102.496 L 121.741,-102.256 L 121.384,-102.059 L 121.004,-101.909
 L 120.609,-101.808 L 120.204,-101.756 z
M 104.796,-101.756 L 104.391,-101.808 L 103.996,-101.909 L 103.616,-102.059 L 103.259,-102.256 L 102.928,-102.496
 L 102.631,-102.775 L 102.371,-103.09 L 102.152,-103.434 L 101.978,-103.804 L 101.852,-104.192 L 101.776,-104.593
 L 101.75,-105 L 101.776,-105.407 L 101.852,-105.808 L 101.978,-106.196 L 102.152,-106.566 L 102.371,-106.91
 L 102.631,-107.225 L 102.928,-107.504 L 103.259,-107.744 L 103.616,-107.941 L 103.996,-108.091 L 104.391,-108.192
 L 104.796,-108.244 L 105.204,-108.244 L 105.609,-108.192 L 106.004,-108.091 L 106.384,-107.941 L 106.741,-107.744
 L 107.072,-107.504 L 107.369,-107.225 L 107.629,-106.91 L 107.848,-106.566 L 108.022,-106.196 L 108.148,-105.808
 L 108.224,-105.407 L 108.25,-105 L 108.224,-104.593 L 108.148,-104.192 L 108.022,-103.804 L 107.848,-103.434
 L 107.629,-103.09 L 107.369,-102.775 L 107.072,-102.496 L 106.741,-102.256 L 106.384,-102.059 L 106.004,-101.909
 L 105.609,-101.808 L 105.204,-101.756 z
M 89.7959,-101.756 L 89.391,-101.808 L 88.9957,-101.909 L 88.6162,-102.059 L 88.2586,-102.256 L 87.9284,-102.496
 L 87.6308,-102.775 L 87.3707,-103.09 L 87.152,-103.434 L 86.9782,-103.804 L 86.8521,-104.192 L 86.7756,-104.593
 L 86.75,-105 L 86.7756,-105.407 L 86.8521,-105.808 L 86.9782,-106.196 L 87.152,-106.566 L 87.3707,-106.91
 L 87.6308,-107.225 L 87.9284,-107.504 L 88.2586,-107.744 L 88.6162,-107.941 L 88.9957,-108.091 L 89.391,-108.192
 L 89.7959,-108.244 L 90.2041,-108.244 L 90.609,-108.192 L 91.0043,-108.091 L 91.3838,-107.941 L 91.7414,-107.744
 L 92.0716,-107.504 L 92.3691,-107.225 L 92.6293,-106.91 L 92.848,-106.566 L 93.0218,-106.196 L 93.1479,-105.808
 L 93.2244,-105.407 L 93.25,-105 L 93.2244,-104.593 L 93.1479,-104.192 L 93.0218,-103.804 L 92.848,-103.434
 L 92.6293,-103.09 L 92.3691,-102.775 L 92.0716,-102.496 L 91.7414,-102.256 L 91.3838,-102.059 L 91.0043,-101.909
 L 90.609,-101.808 L 90.2041,-101.756 z
M 44.7959,-101.756 L 44.391,-101.808 L 43.9957,-101.909 L 43.6162,-102.059 L 43.2586,-102.256 L 42.9284,-102.496
 L 42.6308,-102.775 L 42.3707,-103.09 L 42.152,-103.434 L 41.9782,-103.804 L 41.8521,-104.192 L 41.7756,-104.593
 L 41.75,-105 L 41.7756,-105.407 L 41.8521,-105.808 L 41.9782,-106.196 L 42.152,-106.566 L 42.3707,-106.91
 L 42.6308,-107.225 L 42.9284,-107.504 L 43.2586,-107.744 L 43.6162,-107.941 L 43.9957,-108.091 L 44.391,-108.192
 L 44.7959,-108.244 L 45.2041,-108.244 L 45.609,-108.192 L 46.0043,-108.091 L 46.3838,-107.941 L 46.7414,-107.744
 L 47.0716,-107.504 L 47.3691,-107.225 L 47.6293,-106.91 L 47.848,-106.566 L 48.0218,-106.196 L 48.1479,-105.808
 L 48.2244,-105.407 L 48.25,-105 L 48.2244,-104.593 L 48.1479,-104.192 L 48.0218,-103.804 L 47.848,-103.434
 L 47.6293,-103.09 L 47.3691,-102.775 L 47.0716,-102.496 L 46.7414,-102.256 L 46.3838,-102.059 L 46.0043,-101.909
 L 45.609,-101.808 L 45.2041,-101.756 z
M 89.7959,-86.7564 L 89.391,-86.8076 L 88.9957,-86.9091 L 88.6162,-87.0593 L 88.2586,-87.2559 L 87.9284,-87.4958
 L 87.6308,-87.7752 L 87.3707,-88.0897 L 87.152,-88.4343 L 86.9782,-88.8036 L 86.8521,-89.1918 L 86.7756,-89.5927
 L 86.75,-90 L 86.7756,-90.4073 L 86.8521,-90.8082 L 86.9782,-91.1964 L 87.152,-91.5657 L 87.3707,-91.9103
 L 87.6308,-92.2248 L 87.9284,-92.5042 L 88.2586,-92.7441 L 88.6162,-92.9407 L 88.9957,-93.0909 L 89.391,-93.1924
 L 89.7959,-93.2436 L 90.2041,-93.2436 L 90.609,-93.1924 L 91.0043,-93.0909 L 91.3838,-92.9407 L 91.7414,-92.7441
 L 92.0716,-92.5042 L 92.3691,-92.2248 L 92.6293,-91.9103 L 92.848,-91.5657 L 93.0218,-91.1964 L 93.1479,-90.8082
 L 93.2244,-90.4073 L 93.25,-90 L 93.2244,-89.5927 L 93.1479,-89.1918 L 93.0218,-88.8036 L 92.848,-88.4343
 L 92.6293,-88.0897 L 92.3691,-87.7752 L 92.0716,-87.4958 L 91.7414,-87.2559 L 91.3838,-87.0593 L 91.0043,-86.9091
 L 90.609,-86.8076 L 90.2041,-86.7564 z
M 14.7959,-86.7564 L 14.391,-86.8076 L 13.9957,-86.9091 L 13.6162,-87.0593 L 13.2586,-87.2559 L 12.9284,-87.4958
 L 12.6308,-87.7752 L 12.3707,-88.0897 L 12.152,-88.4343 L 11.9782,-88.8036 L 11.8521,-89.1918 L 11.7756,-89.5927
 L 11.75,-90 L 11.7756,-90.4073 L 11.8521,-90.8082 L 11.9782,-91.1964 L 12.152,-91.5657 L 12.3707,-91.9103
 L 12.6308,-92.2248 L 12.9284,-92.5042 L 13.2586,-92.7441 L 13.6162,-92.9407 L 13.9957,-93.0909 L 14.391,-93.1924
 L 14.7959,-93.2436 L 15.2041,-93.2436 L 15.609,-93.1924 L 16.0043,-93.0909 L 16.3838,-92.9407 L 16.7414,-92.7441
 L 17.0716,-92.5042 L 17.3691,-92.2248 L 17.6293,-91.9103 L 17.848,-91.5657 L 18.0218,-91.1964 L 18.1479,-90.8082
 L 18.2244,-90.4073 L 18.25,-90 L 18.2244,-89.5927 L 18.1479,-89.1918 L 18.0218,-88.8036 L 17.848,-88.4343
 L 17.6293,-88.0897 L 17.3691,-87.7752 L 17.0716,-87.4958 L 16.7414,-87.2559 L 16.3838,-87.0593 L 16.0043,-86.9091
 L 15.609,-86.8076 L 15.2041,-86.7564 z
M 74.7959,-86.7564 L 74.391,-86.8076 L 73.9957,-86.9091 L 73.6162,-87.0593 L 73.2586,-87.2559 L 72.9284,-87.4958
 L 72.6308,-87.7752 L 72.3707,-88.0897 L 72.152,-88.4343 L 71.9782,-88.8036 L 71.8521,-89.1918 L 71.7756,-89.5927
 L 71.75,-90 L 71.7756,-90.4073 L 71.8521,-90.8082 L 71.9782,-91.1964 L 72.152,-91.5657 L 72.3707,-91.9103
 L 72.6308,-92.2248 L 72.9284,-92.5042 L 73.2586,-92.7441 L 73.6162,-92.9407 L 73.9957,-93.0909 L 74.391,-93.1924
 L 74.7959,-93.2436 L 75.2041,-93.2436 L 75.609,-93.1924 L 76.0043,-93.0909 L 76.3838,-92.9407 L 76.7414,-92.7441
 L 77.0716,-92.5042 L 77.3691,-92.2248 L 77.6293,-91.9103 L 77.848,-91.5657 L 78.0218,-91.1964 L 78.1479,-90.8082
 L 78.2244,-90.4073 L 78.25,-90 L 78.2244,-89.5927 L 78.1479,-89.1918 L 78.0218,-88.8036 L 77.848,-88.4343
 L 77.6293,-88.0897 L 77.3691,-87.7752 L 77.0716,-87.4958 L 76.7414,-87.2559 L 76.3838,-87.0593 L 76.0043,-86.9091
 L 75.609,-86.8076 L 75.2041,-86.7564 z
M 29.7959,-86.7564 L 29.391,-86.8076 L 28.9957,-86.9091 L 28.6162,-87.0593 L 28.2586,-87.2559 L 27.9284,-87.4958
 L 27.6308,-87.7752 L 27.3707,-88.0897 L 27.152,-88.4343 L 26.9782,-88.8036 L 26.8521,-89.1918 L 26.7756,-89.5927
 L 26.75,-90 L 26.7756,-90.4073 L 26.8521,-90.8082 L 26.9782,-91.1964 L 27.152,-91.5657 L 27.3707,-91.9103
 L 27.6308,-92.2248 L 27.9284,-92.5042 L 28.2586,-92.7441 L 28.6162,-92.9407 L 28.9957,-93.0909 L 29.391,-93.1924
 L 29.7959,-93.2436 L 30.2041,-93.2436 L 30.609,-93.1924 L 31.0043,-93.0909 L 31.3838,-92.9407 L 31.7414,-92.7441
 L 32.0716,-92.5042 L 32.3691,-92.2248 L 32.6293,-91.9103 L 32.848,-91.5657 L 33.0218,-91.1964 L 33.1479,-90.8082
 L 33.2244,-90.4073 L 33.25,-90 L 33.2244,-89.5927 L 33.1479,-89.1918 L 33.0218,-88.8036 L 32.848,-88.4343
 L 32.6293,-88.0897 L 32.3691,-87.7752 L 32.0716,-87.4958 L 31.7414,-87.2559 L 31.3838,-87.0593 L 31.0043,-86.9091
 L 30.609,-86.8076 L 30.2041,-86.7564 z
M 59.7959,-86.7564 L 59.391,-86.8076 L 58.9957,-86.9091 L 58.6162,-87.0593 L 58.2586,-87.2559 L 57.9284,-87.4958
 L 57.6308,-87.7752 L 57.3707,-88.0897 L 57.152,-88.4343 L 56.9782,-88.8036 L 56.8521,-89.1918 L 56.7756,-89.5927
 L 56.75,-90 L 56.7756,-90.4073 L 56.8521,-90.8082 L 56.9782,-91.1964 L 57.152,-91.5657 L 57.3707,-91.9103
 L 57.6308,-92.2248 L 57.9284,-92.5042 L 58.2586,-92.7441 L 58.6162,-92.9407 L 58.9957,-93.0909 L 59.391,-93.1924
 L 59.7959,-93.2436 L 60.2041,-93.2436 L 60.609,-93.1924 L 61.0043,-93.0909 L 61.3838,-92.9407 L 61.7414,-92.7441
 L 62.0716,-92.5042 L 62.3691,-92.2248 L 62.6293,-91.9103 L 62.848,-91.5657 L 63.0218,-91.1964 L 63.1479,-90.8082
 L 63.2244,-90.4073 L 63.25,-90 L 63.2244,-89.5927 L 63.1479,-89.1918 L 63.0218,-88.8036 L 62.848,-88.4343
 L 62.6293,-88.0897 L 62.3691,-87.7752 L 62.0716,-87.4958 L 61.7414,-87.2559 L 61.3838,-87.0593 L 61.0043,-86.9091
 L 60.609,-86.8076 L 60.2041,-86.7564 z
M 104.796,-86.7564 L 104.391,-86.8076 L 103.996,-86.9091 L 103.616,-87.0593 L 103.259,-87.2559 L 102.928,-87.4958
 L 102.631,-87.7752 L 102.371,-88.0897 L 102.152,-88.4343 L 101.978,-88.8036 L 101.852,-89.1918 L 101.776,-89.5927
 L 101.75,-90 L 101.776,-90.4073 L 101.852,-90.8082 L 101.978,-91.1964 L 102.152,-91.5657 L 102.371,-91.9103
 L 102.631,-92.2248 L 102.928,-92.5042 L 103.259,-92.7441 L 103.616,-92.9407 L 103.996,-93.0909 L 104.391,-93.1924
 L 104.796,-93.2436 L 105.204,-93.2436 L 105.609,-93.1924 L 106.004,-93.0909 L 106.384,-92.9407 L 106.741,-92.7441
 L 107.072,-92.5042 L 107.369,-92.2248 L 107.629,-91.9103 L 107.848,-91.5657 L 108.022,-91.1964 L 108.148,-90.8082
 L 108.224,-90.4073 L 108.25,-90 L 108.224,-89.5927 L 108.148,-89.1918 L 108.022,-88.8036 L 107.848,-88.4343
 L 107.629,-88.0897 L 107.369,-87.7752 L 107.072,-87.4958 L 106.741,-87.2559 L 106.384,-87.0593 L 106.004,-86.9091
 L 105.609,-86.8076 L 105.204,-86.7564 z
M 119.796,-86.7564 L 119.391,-86.8076 L 118.996,-86.9091 L 118.616,-87.0593 L 118.259,-87.2559 L 117.928,-87.4958
 L 117.631,-87.7752 L 117.371,-88.0897 L 117.152,-88.4343 L 116.978,-88.8036 L 116.852,-89.1918 L 116.776,-89.5927
 L 116.75,-90 L 116.776,-90.4073 L 116.852,-90.8082 L 116.978,-91.1964 L 117.152,-91.5657 L 117.371,-91.9103
 L 117.631,-92.2248 L 117.928,-92.5042 L 118.259,-92.7441 L 118.616,-92.9407 L 118.996,-93.0909 L 119.391,-93.1924
 L 119.796,-93.2436 L 120.204,-93.2436 L 120.609,-93.1924 L 121.004,-93.0909 L 121.384,-92.9407 L 121.741,-92.7441
 L 122.072,-92.5042 L 122.369,-92.2248 L 122.629,-91.9103 L 122.848,-91.5657 L 123.022,-91.1964 L 123.148,-90.8082
 L 123.224,-90.4073 L 123.25,-90 L 123.224,-89.5927 L 123.148,-89.1918 L 123.022,-88.8036 L 122.848,-88.4343
 L 122.629,-88.0897 L 122.369,-87.7752 L 122.072,-87.4958 L 121.741,-87.2559 L 121.384,-87.0593 L 121.004,-86.9091
 L 120.609,-86.8076 L 120.204,-86.7564 z
M 44.7959,-86.7564 L 44.391,-86.8076 L 43.9957,-86.9091 L 43.6162,-87.0593 L 43.2586,-87.2559 L 42.9284,-87.4958
 L 42.6308,-87.7752 L 42.3707,-88.0897 L 42.152,-88.4343 L 41.9782,-88.8036 L 41.8521,-89.1918 L 41.7756,-89.5927
 L 41.75,-90 L 41.7756,-90.4073 L 41.8521,-90.8082 L 41.9782,-91.1964 L 42.152,-91.5657 L 42.3707,-91.9103
 L 42.6308,-92.2248 L 42.9284,-92.5042 L 43.2586,-92.7441 L 43.6162,-92.9407 L 43.9957,-93.0909 L 44.391,-93.1924
 L 44.7959,-93.2436 L 45.2041,-93.2436 L 45.609,-93.1924 L 46.0043,-93.0909 L 46.3838,-92.9407 L 46.7414,-92.7441
 L 47.0716,-92.5042 L 47.3691,-92.2248 L 47.6293,-91.9103 L 47.848,-91.5657 L 48.0218,-91.1964 L 48.1479,-90.8082
 L 48.2244,-90.4073 L 48.25,-90 L 48.2244,-89.5927 L 48.1479,-89.1918 L 48.0218,-88.8036 L 47.848,-88.4343
 L 47.6293,-88.0897 L 47.3691,-87.7752 L 47.0716,-87.4958 L 46.7414,-87.2559 L 46.3838,-87.0593 L 46.0043,-86.9091
 L 45.609,-86.8076 L 45.2041,-86.7564 z
M 74.7959,-71.7564 L 74.391,-71.8076 L 73.9957,-71.9091 L 73.6162,-72.0593 L 73.2586,-72.2559 L 72.9284,-72.4958
 L 72.6308,-72.7752 L 72.3707,-73.0897 L 72.152,-73.4343 L 71.9782,-73.8036 L 71.8521,-74.1918 L 71.7756,-74.5927
 L 71.75,-75 L 71.7756,-75.4073 L 71.8521,-75.8082 L 71.9782,-76.1964 L 72.152,-76.5657 L 72.3707,-76.9103
 L 72.6308,-77.2248 L 72.9284,-77.5042 L 73.2586,-77.7441 L 73.6162,-77.9407 L 73.9957,-78.0909 L 74.391,-78.1924
 L 74.7959,-78.2436 L 75.2041,-78.2436 L 75.609,-78.1924 L 76.0043,-78.0909 L 76.3838,-77.9407 L 76.7414,-77.7441
 L 77.0716,-77.5042 L 77.3691,-77.2248 L 77.6293,-76.9103 L 77.848,-76.5657 L 78.0218,-76.1964 L 78.1479,-75.8082
 L 78.2244,-75.4073 L 78.25,-75 L 78.2244,-74.5927 L 78.1479,-74.1918 L 78.0218,-73.8036 L 77.848,-73.4343
 L 77.6293,-73.0897 L 77.3691,-72.7752 L 77.0716,-72.4958 L 76.7414,-72.2559 L 76.3838,-72.0593 L 76.0043,-71.9091
 L 75.609,-71.8076 L 75.2041,-71.7564 z
M 14.7959,-71.7564 L 14.391,-71.8076 L 13.9957,-71.9091 L 13.6162,-72.0593 L 13.2586,-72.2559 L 12.9284,-72.4958
 L 12.6308,-72.7752 L 12.3707,-73.0897 L 12.152,-73.4343 L 11.9782,-73.8036 L 11.8521,-74.1918 L 11.7756,-74.5927
 L 11.75,-75 L 11.7756,-75.4073 L 11.8521,-75.8082 L 11.9782,-76.1964 L 12.152,-76.5657 L 12.3707,-76.9103
 L 12.6308,-77.2248 L 12.9284,-77.5042 L 13.2586,-77.7441 L 13.6162,-77.9407 L 13.9957,-78.0909 L 14.391,-78.1924
 L 14.7959,-78.2436 L 15.2041,-78.2436 L 15.609,-78.1924 L 16.0043,-78.0909 L 16.3838,-77.9407 L 16.7414,-77.7441
 L 17.0716,-77.5042 L 17.3691,-77.2248 L 17.6293,-76.9103 L 17.848,-76.5657 L 18.0218,-76.1964 L 18.1479,-75.8082
 L 18.2244,-75.4073 L 18.25,-75 L 18.2244,-74.5927 L 18.1479,-74.1918 L 18.0218,-73.8036 L 17.848,-73.4343
 L 17.6293,-73.0897 L 17.3691,-72.7752 L 17.0716,-72.4958 L 16.7414,-72.2559 L 16.3838,-72.0593 L 16.0043,-71.9091
 L 15.609,-71.8076 L 15.2041,-71.7564 z
M 44.7959,-71.7564 L 44.391,-71.8076 L 43.9957,-71.9091 L 43.6162,-72.0593 L 43.2586,-72.2559 L 42.9284,-72.4958
 L 42.6308,-72.7752 L 42.3707,-73.0897 L 42.152,-73.4343 L 41.9782,-73.8036 L 41.8521,-74.1918 L 41.7756,-74.5927
 L 41.75,-75 L 41.7756,-75.4073 L 41.8521,-75.8082 L 41.9782,-76.1964 L 42.152,-76.5657 L 42.3707,-76.9103
 L 42.6308,-77.2248 L 42.9284,-77.5042 L 43.2586,-77.7441 L 43.6162,-77.9407 L 43.9957,-78.0909 L 44.391,-78.1924
 L 44.7959,-78.2436 L 45.2041,-78.2436 L 45.609,-78.1924 L 46.0043,-78.0909 L 46.3838,-77.9407 L 46.7414,-77.7441
 L 47.0716,-77.5042 L 47.3691,-77.2248 L 47.6293,-76.9103 L 47.848,-76.5657 L 48.0218,-76.1964 L 48.1479,-75.8082
 L 48.2244,-75.4073 L 48.25,-75 L 48.2244,-74.5927 L 48.1479,-74.1918 L 48.0218,-73.8036 L 47.848,-73.4343
 L 47.6293,-73.0897 L 47.3691,-72.7752 L 47.0716,-72.4958 L 46.7414,-72.2559 L 46.3838,-72.0593 L 46.0043,-71.9091
 L 45.609,-71.8076 L 45.2041,-71.7564 z
M 89.7959,-71.7564 L 89.391,-71.8076 L 88.9957,-71.9091 L 88.6162,-72.0593 L 88.2586,-72.2559 L 87.9284,-72.4958
 L 87.6308,-72.7752 L 87.3707,-73.0897 L 87.152,-73.4343 L 86.9782,-73.8036 L 86.8521,-74.1918 L 86.7756,-74.5927
 L 86.75,-75 L 86.7756,-75.4073 L 86.8521,-75.8082 L 86.9782,-76.1964 L 87.152,-76.5657 L 87.3707,-76.9103
 L 87.6308,-77.2248 L 87.9284,-77.5042 L 88.2586,-77.7441 L 88.6162,-77.9407 L 88.9957,-78.0909 L 89.391,-78.1924
 L 89.7959,-78.2436 L 90.2041,-78.2436 L 90.609,-78.1924 L 91.0043,-78.0909 L 91.3838,-77.9407 L 91.7414,-77.7441
 L 92.0716,-77.5042 L 92.3691,-77.2248 L 92.6293,-76.9103 L 92.848,-76.5657 L 93.0218,-76.1964 L 93.1479,-75.8082
 L 93.2244,-75.4073 L 93.25,-75 L 93.2244,-74.5927 L 93.1479,-74.1918 L 93.0218,-73.8036 L 92.848,-73.4343
 L 92.6293,-73.0897 L 92.3691,-72.7752 L 92.0716,-72.4958 L 91.7414,-72.2559 L 91.3838,-72.0593 L 91.0043,-71.9091
 L 90.609,-71.8076 L 90.2041,-71.7564 z
M 29.7959,-71.7564 L 29.391,-71.8076 L 28.9957,-71.9091 L 28.6162,-72.0593 L 28.2586,-72.2559 L 27.9284,-72.4958
 L 27.6308,-72.7752 L 27.3707,-73.0897 L 27.152,-73.4343 L 26.9782,-73.8036 L 26.8521,-74.1918 L 26.7756,-74.5927
 L 26.75,-75 L 26.7756,-75.4073 L 26.8521,-75.8082 L 26.9782,-76.1964 L 27.152,-76.5657 L 27.3707,-76.9103
 L 27.6308,-77.2248 L 27.9284,-77.5042 L 28.2586,-77.7441 L 28.6162,-77.9407 L 28.9957,-78.0909 L 29.391,-78.1924
 L 29.7959,-78.2436 L 30.2041,-78.2436 L 30.609,-78.1924 L 31.0043,-78.0909 L 31.3838,-77.9407 L 31.7414,-77.7441
 L 32.0716,-77.5042 L 32.3691,-77.2248 L 32.6293,-76.9103 L 32.848,-76.5657 L 33.0218,-76.1964 L 33.1479,-75.8082
 L 33.2244,-75.4073 L 33.25,-75 L 33.2244,-74.5927 L 33.1479,-74.1918 L 33.0218,-73.8036 L 32.848,-73.4343
 L 32.6293,-73.0897 L 32.3691,-72.7752 L 32.0716,-72.4958 L 31.7414,-72.2559 L 31.3838,-72.0593 L 31.0043,-71.9091
 L 30.609,-71.8076 L 30.2041,-71.7564 z
M 59.7959,-71.7564 L 59.391,-71.8076 L 58.9957,-71.9091 L 58.6162,-72.0593 L 58.2586,-72.2559 L 57.9284,-72.4958
 L 57.6308,-72.7752 L 57.3707,-73.0897 L 57.152,-73.4343 L 56.9782,-73.8036 L 56.8521,-74.1918 L 56.7756,-74.5927
 L 56.75,-75 L 56.7756,-75.4073 L 56.8521,-75.8082 L 56.9782,-76.1964 L 57.152,-76.5657 L 57.3707,-76.9103
 L 57.6308,-77.2248 L 57.9284,-77.5042 L 58.2586,-77.7441 L 58.6162,-77.9407 L 58.9957,-78.0909 L 59.391,-78.1924
 L 59.7959,-78.2436 L 60.2041,-78.2436 L 60.609,-78.1924 L 61.0043,-78.0909 L 61.3838,-77.9407 L 61.7414,-77.7441
 L 62.0716,-77.5042 L 62.3691,-77.2248 L 62.6293,-76.9103 L 62.848,-76.5657 L 63.0218,-76.1964 L 63.1479,-75.8082
 L 63.2244,-75.4073 L 63.25,-75 L 63.2244,-74.5927 L 63.1479,-74.1918 L 63.0218,-73.8036 L 62.848,-73.4343
 L 62.6293,-73.0897 L 62.3691,-72.7752 L 62.0716,-72.4958 L 61.7414,-72.2559 L 61.3838,-72.0593 L 61.0043,-71.9091
 L 60.609,-71.8076 L 60.2041,-71.7564 z
M 104.796,-71.7564 L 104.391,-71.8076 L 103.996,-71.9091 L 103.616,-72.0593 L 103.259,-72.2559 L 102.928,-72.4958
 L 102.631,-72.7752 L 102.371,-73.0897 L 102.152,-73.4343 L 101.978,-73.8036 L 101.852,-74.1918 L 101.776,-74.5927
 L 101.75,-75 L 101.776,-75.4073 L 101.852,-75.8082 L 101.978,-76.1964 L 102.152,-76.5657 L 102.371,-76.9103
 L 102.631,-77.2248 L 102.928,-77.5042 L 103.259,-77.7441 L 103.616,-77.9407 L 103.996,-78.0909 L 104.391,-78.1924
 L 104.796,-78.2436 L 105.204,-78.2436 L 105.609,-78.1924 L 106.004,-78.0909 L 106.384,-77.9407 L 106.741,-77.7441
 L 107.072,-77.5042 L 107.369,-77.2248 L 107.629,-76.9103 L 107.848,-76.5657 L 108.022,-76.1964 L 108.148,-75.8082
 L 108.224,-75.4073 L 108.25,-75 L 108.224,-74.5927 L 108.148,-74.1918 L 108.022,-73.8036 L 107.848,-73.4343
 L 107.629,-73.0897 L 107.369,-72.7752 L 107.072,-72.4958 L 106.741,-72.2559 L 106.384,-72.0593 L 106.004,-71.9091
 L 105.609,-71.8076 L 105.204,-71.7564 z
M 119.796,-71.7564 L 119.391,-71.8076 L 118.996,-71.9091 L 118.616,-72.0593 L 118.259,-72.2559 L 117.928,-72.4958
 L 117.631,-72.7752 L 117.371,-73.0897 L 117.152,-73.4343 L 116.978,-73.8036 L 116.852,-74.1918 L 116.776,-74.5927
 L 116.75,-75 L 116.776,-75.4073 L 116.852,-75.8082 L 116.978,-76.1964 L 117.152,-76.5657 L 117.371,-76.9103
 L 117.631,-77.2248 L 117.928,-77.5042 L 118.259,-77.7441 L 118.616,-77.9407 L 118.996,-78.0909 L 119.391,-78.1924
 L 119.796,-78.2436 L 120.204,-78.2436 L 120.609,-78.1924 L 121.004,-78.0909 L 121.384,-77.9407 L 121.741,-77.7441
 L 122.072,-77.5042 L 122.369,-77.2248 L 122.629,-76.9103 L 122.848,-76.5657 L 123.022,-76.1964 L 123.148,-75.8082
 L 123.224,-75.4073 L 123.25,-75 L 123.224,-74.5927 L 123.148,-74.1918 L 123.022,-73.8036 L 122.848,-73.4343
 L 122.629,-73.0897 L 122.369,-72.7752 L 122.072,-72.4958 L 121.741,-72.2559 L 121.384,-72.0593 L 121.004,-71.9091
 L 120.609,-71.8076 L 120.204,-71.7564 z
M 29.7959,-56.7564 L 29.391,-56.8076 L 28.9957,-56.9091 L 28.6162,-57.0593 L 28.2586,-57.2559 L 27.9284,-57.4958
 L 27.6308,-57.7752 L 27.3707,-58.0897 L 27.152,-58.4343 L 26.9782,-58.8036 L 26.8521,-59.1918 L 26.7756,-59.5927
 L 26.75,-60 L 26.7756,-60.4073 L 26.8521,-60.8082 L 26.9782,-61.1964 L 27.152,-61.5657 L 27.3707,-61.9103
 L 27.6308,-62.2248 L 27.9284,-62.5042 L 28.2586,-62.7441 L 28.6162,-62.9407 L 28.9957,-63.0909 L 29.391,-63.1924
 L 29.7959,-63.2436 L 30.2041,-63.2436 L 30.609,-63.1924 L 31.0043,-63.0909 L 31.3838,-62.9407 L 31.7414,-62.7441
 L 32.0716,-62.5042 L 32.3691,-62.2248 L 32.6293,-61.9103 L 32.848,-61.5657 L 33.0218,-61.1964 L 33.1479,-60.8082
 L 33.2244,-60.4073 L 33.25,-60 L 33.2244,-59.5927 L 33.1479,-59.1918 L 33.0218,-58.8036 L 32.848,-58.4343
 L 32.6293,-58.0897 L 32.3691,-57.7752 L 32.0716,-57.4958 L 31.7414,-57.2559 L 31.3838,-57.0593 L 31.0043,-56.9091
 L 30.609,-56.8076 L 30.2041,-56.7564 z
M 104.796,-56.7564 L 104.391,-56.8076 L 103.996,-56.9091 L 103.616,-57.0593 L 103.259,-57.2559 L 102.928,-57.4958
 L 102.631,-57.7752 L 102.371,-58.0897 L 102.152,-58.4343 L 101.978,-58.8036 L 101.852,-59.1918 L 101.776,-59.5927
 L 101.75,-60 L 101.776,-60.4073 L 101.852,-60.8082 L 101.978,-61.1964 L 102.152,-61.5657 L 102.371,-61.9103
 L 102.631,-62.2248 L 102.928,-62.5042 L 103.259,-62.7441 L 103.616,-62.9407 L 103.996,-63.0909 L 104.391,-63.1924
 L 104.796,-63.2436 L 105.204,-63.2436 L 105.609,-63.1924 L 106.004,-63.0909 L 106.384,-62.9407 L 106.741,-62.7441
 L 107.072,-62.5042 L 107.369,-62.2248 L 107.629,-61.9103 L 107.848,-61.5657 L 108.022,-61.1964 L 108.148,-60.8082
 L 108.224,-60.4073 L 108.25,-60 L 108.224,-59.5927 L 108.148,-59.1918 L 108.022,-58.8036 L 107.848,-58.4343
 L 107.629,-58.0897 L 107.369,-57.7752 L 107.072,-57.4958 L 106.741,-57.2559 L 106.384,-57.0593 L 106.004,-56.9091
 L 105.609,-56.8076 L 105.204,-56.7564 z
M 14.7959,-56.7564 L 14.391,-56.8076 L 13.9957,-56.9091 L 13.6162,-57.0593 L 13.2586,-57.2559 L 12.9284,-57.4958
 L 12.6308,-57.7752 L 12.3707,-58.0897 L 12.152,-58.4343 L 11.9782,-58.8036 L 11.8521,-59.1918 L 11.7756,-59.5927
 L 11.75,-60 L 11.7756,-60.4073 L 11.8521,-60.8082 L 11.9782,-61.1964 L 12.152,-61.5657 L 12.3707,-61.9103
 L 12.6308,-62.2248 L 12.9284,-62.5042 L 13.2586,-62.7441 L 13.6162,-62.9407 L 13.9957,-63.0909 L 14.391,-63.1924
 L 14.7959,-63.2436 L 15.2041,-63.2436 L 15.609,-63.1924 L 16.0043,-63.0909 L 16.3838,-62.9407 L 16.7414,-62.7441
 L 17.0716,-62.5042 L 17.3691,-62.2248 L 17.6293,-61.9103 L 17.848,-61.5657 L 18.0218,-61.1964 L 18.1479,-60.8082
 L 18.2244,-60.4073 L 18.25,-60 L 18.2244,-59.5927 L 18.1479,-59.1918 L 18.0218,-58.8036 L 17.848,-58.4343
 L 17.6293,-58.0897 L 17.3691,-57.7752 L 17.0716,-57.4958 L 16.7414,-57.2559 L 16.3838,-57.0593 L 16.0043,-56.9091
 L 15.609,-56.8076 L 15.2041,-56.7564 z
M 89.7959,-56.7564 L 89.391,-56.8076 L 88.9957,-56.9091 L 88.6162,-57.0593 L 88.2586,-57.2559 L 87.9284,-57.4958
 L 87.6308,-57.7752 L 87.3707,-58.0897 L 87.152,-58.4343 L 86.9782,-58.8036 L 86.8521,-59.1918 L 86.7756,-59.5927
 L 86.75,-60 L 86.7756,-60.4073 L 86.8521,-60.8082 L 86.9782,-61.1964 L 87.152,-61.5657 L 87.3707,-61.9103
 L 87.6308,-62.2248 L 87.9284,-62.5042 L 88.2586,-62.7441 L 88.6162,-62.9407 L 88.9957,-63.0909 L 89.391,-63.1924
 L 89.7959,-63.2436 L 90.2041,-63.2436 L 90.609,-63.1924 L 91.0043,-63.0909 L 91.3838,-62.9407 L 91.7414,-62.7441
 L 92.0716,-62.5042 L 92.3691,-62.2248 L 92.6293,-61.9103 L 92.848,-61.5657 L 93.0218,-61.1964 L 93.1479,-60.8082
 L 93.2244,-60.4073 L 93.25,-60 L 93.2244,-59.5927 L 93.1479,-59.1918 L 93.0218,-58.8036 L 92.848,-58.4343
 L 92.6293,-58.0897 L 92.3691,-57.7752 L 92.0716,-57.4958 L 91.7414,-57.2559 L 91.3838,-57.0593 L 91.0043,-56.9091
 L 90.609,-56.8076 L 90.2041,-56.7564 z
M 74.7959,-56.7564 L 74.391,-56.8076 L 73.9957,-56.9091 L 73.6162,-57.0593 L 73.2586,-57.2559 L 72.9284,-57.4958
 L 72.6308,-57.7752 L 72.3707,-58.0897 L 72.152,-58.4343 L 71.9782,-58.8036 L 71.8521,-59.1918 L 71.7756,-59.5927
 L 71.75,-60 L 71.7756,-60.4073 L 71.8521,-60.8082 L 71.9782,-61.1964 L 72.152,-61.5657 L 72.3707,-61.9103
 L 72.6308,-62.2248 L 72.9284,-62.5042 L 73.2586,-62.7441 L 73.6162,-62.9407 L 73.9957,-63.0909 L 74.391,-63.1924
 L 74.7959,-63.2436 L 75.2041,-63.2436 L 75.609,-63.1924 L 76.0043,-63.0909 L 76.3838,-62.9407 L 76.7414,-62.7441
 L 77.0716,-62.5042 L 77.3691,-62.2248 L 77.6293,-61.9103 L 77.848,-61.5657 L 78.0218,-61.1964 L 78.1479,-60.8082
 L 78.2244,-60.4073 L 78.25,-60 L 78.2244,-59.5927 L 78.1479,-59.1918 L 78.0218,-58.8036 L 77.848,-58.4343
 L 77.6293,-58.0897 L 77.3691,-57.7752 L 77.0716,-57.4958 L 76.7414,-57.2559 L 76.3838,-57.0593 L 76.0043,-56.9091
 L 75.609,-56.8076 L 75.2041,-56.7564 z
M 119.796,-56.7564 L 119.391,-56.8076 L 118.996,-56.9091 L 118.616,-57.0593 L 118.259,-57.2559 L 117.928,-57.4958
 L 117.631,-57.7752 L 117.371,-58.0897 L 117.152,-58.4343 L 116.978,-58.8036 L 116.852,-59.1918 L 116.776,-59.5927
 L 116.75,-60 L 116.776,-60.4073 L 116.852,-60.8082 L 116.978,-61.1964 L 117.152,-61.5657 L 117.371,-61.9103
 L 117.631,-62.2248 L 117.928,-62.5042 L 118.259,-62.7441 L 118.616,-62.9407 L 118.996,-63.0909 L 119.391,-63.1924
 L 119.796,-63.2436 L 120.204,-63.2436 L 120.609,-63.1924 L 121.004,-63.0909 L 121.384,-62.9407 L 121.741,-62.7441
 L 122.072,-62.5042 L 122.369,-62.2248 L 122.629,-61.9103 L 122.848,-61.5657 L 123.022,-61.1964 L 123.148,-60.8082
 L 123.224,-60.4073 L 123.25,-60 L 123.224,-59.5927 L 123.148,-59.1918 L 123.022,-58.8036 L 122.848,-58.4343
 L 122.629,-58.0897 L 122.369,-57.7752 L 122.072,-57.4958 L 121.741,-57.2559 L 121.384,-57.0593 L 121.004,-56.9091
 L 120.609,-56.8076 L 120.204,-56.7564 z
M 44.7959,-56.7564 L 44.391,-56.8076 L 43.9957,-56.9091 L 43.6162,-57.0593 L 43.2586,-57.2559 L 42.9284,-57.4958
 L 42.6308,-57.7752 L 42.3707,-58.0897 L 42.152,-58.4343 L 41.9782,-58.8036 L 41.8521,-59.1918 L 41.7756,-59.5927
 L 41.75,-60 L 41.7756,-60.4073 L 41.8521,-60.8082 L 41.9782,-61.1964 L 42.152,-61.5657 L 42.3707,-61.9103
 L 42.6308,-62.2248 L 42.9284,-62.5042 L 43.2586,-62.7441 L 43.6162,-62.9407 L 43.9957,-63.0909 L 44.391,-63.1924
 L 44.7959,-63.2436 L 45.2041,-63.2436 L 45.609,-63.1924 L 46.0043,-63.0909 L 46.3838,-62.9407 L 46.7414,-62.7441
 L 47.0716,-62.5042 L 47.3691,-62.2248 L 47.6293,-61.9103 L 47.848,-61.5657 L 48.0218,-61.1964 L 48.1479,-60.8082
 L 48.2244,-60.4073 L 48.25,-60 L 48.2244,-59.5927 L 48.1479,-59.1918 L 48.0218,-58.8036 L 47.848,-58.4343
 L 47.6293,-58.0897 L 47.3691,-57.7752 L 47.0716,-57.4958 L 46.7414,-57.2559 L 46.3838,-57.0593 L 46.0043,-56.9091
 L 45.609,-56.8076 L 45.2041,-56.7564 z
M 59.7959,-56.7564 L 59.391,-56.8076 L 58.9957,-56.9091 L 58.6162,-57.0593 L 58.2586,-57.2559 L 57.9284,-57.4958
 L 57.6308,-57.7752 L 57.3707,-58.0897 L 57.152,-58.4343 L 56.9782,-58.8036 L 56.8521,-59.1918 L 56.7756,-59.5927
 L 56.75,-60 L 56.7756,-60.4073 L 56.8521,-60.8082 L 56.9782,-61.1964 L 57.152,-61.5657 L 57.3707,-61.9103
 L 57.6308,-62.2248 L 57.9284,-62.5042 L 58.2586,-62.7441 L 58.6162,-62.9407 L 58.9957,-63.0909 L 59.391,-63.1924
 L 59.7959,-63.2436 L 60.2041,-63.2436 L 60.609,-63.1924 L 61.0043,-63.0909 L 61.3838,-62.9407 L 61.7414,-62.7441
 L 62.0716,-62.5042 L 62.3691,-62.2248 L 62.6293,-61.9103 L 62.848,-61.5657 L 63.0218,-61.1964 L 63.1479,-60.8082
 L 63.2244,-60.4073 L 63.25,-60 L 63.2244,-59.5927 L 63.1479,-59.1918 L 63.0218,-58.8036 L 62.848,-58.4343
 L 62.6293,-58.0897 L 62.3691,-57.7752 L 62.0716,-57.4958 L 61.7414,-57.2559 L 61.3838,-57.0593 L 61.0043,-56.9091
 L 60.609,-56.8076 L 60.2041,-56.7564 z
M 59.7959,-41.7564 L 59.391,-41.8076 L 58.9957,-41.9091 L 58.6162,-42.0593 L 58.2586,-42.2559 L 57.9284,-42.4958
 L 57.6308,-42.7752 L 57.3707,-43.0897 L 57.152,-43.4343 L 56.9782,-43.8036 L 56.8521,-44.1918 L 56.7756,-44.5927
 L 56.75,-45 L 56.7756,-45.4073 L 56.8521,-45.8082 L 56.9782,-46.1964 L 57.152,-46.5657 L 57.3707,-46.9103
 L 57.6308,-47.2248 L 57.9284,-47.5042 L 58.2586,-47.7441 L 58.6162,-47.9407 L 58.9957,-48.0909 L 59.391,-48.1924
 L 59.7959,-48.2436 L 60.2041,-48.2436 L 60.609,-48.1924 L 61.0043,-48.0909 L 61.3838,-47.9407 L 61.7414,-47.7441
 L 62.0716,-47.5042 L 62.3691,-47.2248 L 62.6293,-46.9103 L 62.848,-46.5657 L 63.0218,-46.1964 L 63.1479,-45.8082
 L 63.2244,-45.4073 L 63.25,-45 L 63.2244,-44.5927 L 63.1479,-44.1918 L 63.0218,-43.8036 L 62.848,-43.4343
 L 62.6293,-43.0897 L 62.3691,-42.7752 L 62.0716,-42.4958 L 61.7414,-42.2559 L 61.3838,-42.0593 L 61.0043,-41.9091
 L 60.609,-41.8076 L 60.2041,-41.7564 z
M 89.7959,-41.7564 L 89.391,-41.8076 L 88.9957,-41.9091 L 88.6162,-42.0593 L 88.2586,-42.2559 L 87.9284,-42.4958
 L 87.6308,-42.7752 L 87.3707,-43.0897 L 87.152,-43.4343 L 86.9782,-43.8036 L 86.8521,-44.1918 L 86.7756,-44.5927
 L 86.75,-45 L 86.7756,-45.4073 L 86.8521,-45.8082 L 86.9782,-46.1964 L 87.152,-46.5657 L 87.3707,-46.9103
 L 87.6308,-47.2248 L 87.9284,-47.5042 L 88.2586,-47.7441 L 88.6162,-47.9407 L 88.9957,-48.0909 L 89.391,-48.1924
 L 89.7959,-48.2436 L 90.2041,-48.2436 L 90.609,-48.1924 L 91.0043,-48.0909 L 91.3838,-47.9407 L 91.7414,-47.7441
 L 92.0716,-47.5042 L 92.3691,-47.2248 L 92.6293,-46.9103 L 92.848,-46.5657 L 93.0218,-46.1964 L 93.1479,-45.8082
 L 93.2244,-45.4073 L 93.25,-45 L 93.2244,-44.5927 L 93.1479,-44.1918 L 93.0218,-43.8036 L 92.848,-43.4343
 L 92.6293,-43.0897 L 92.3691,-42.7752 L 92.0716,-42.4958 L 91.7414,-42.2559 L 91.3838,-42.0593 L 91.0043,-41.9091
 L 90.609,-41.8076 L 90.2041,-41.7564 z
M 14.7959,-41.7564 L 14.391,-41.8076 L 13.9957,-41.9091 L 13.6162,-42.0593 L 13.2586,-42.2559 L 12.9284,-42.4958
 L 12.6308,-42.7752 L 12.3707,-43.0897 L 12.152,-43.4343 L 11.9782,-43.8036 L 11.8521,-44.1918 L 11.7756,-44.5927
 L 11.75,-45 L 11.7756,-45.4073 L 11.8521,-45.8082 L 11.9782,-46.1964 L 12.152,-46.5657 L 12.3707,-46.9103
 L 12.6308,-47.2248 L 12.9284,-47.5042 L 13.2586,-47.7441 L 13.6162,-47.9407 L 13.9957,-48.0909 L 14.391,-48.1924
 L 14.7959,-48.2436 L 15.2041,-48.2436 L 15.609,-48.1924 L 16.0043,-48.0909 L 16.3838,-47.9407 L 16.7414,-47.7441
 L 17.0716,-47.5042 L 17.3691,-47.2248 L 17.6293,-46.9103 L 17.848,-46.5657 L 18.0218,-46.1964 L 18.1479,-45.8082
 L 18.2244,-45.4073 L 18.25,-45 L 18.2244,-44.5927 L 18.1479,-44.1918 L 18.0218,-43.8036 L 17.848,-43.4343
 L 17.6293,-43.0897 L 17.3691,-42.7752 L 17.0716,-42.4958 L 16.7414,-42.2559 L 16.3838,-42.0593 L 16.0043,-41.9091
 L 15.609,-41.8076 L 15.2041,-41.7564 z
M 44.7959,-41.7564 L 44.391,-41.8076 L 43.9957,-41.9091 L 43.6162,-42.0593 L 43.2586,-42.2559 L 42.9284,-42.4958
 L 42.6308,-42.7752 L 42.3707,-43.0897 L 42.152,-43.4343 L 41.9782,-43.8036 L 41.8521,-44.1918 L 41.7756,-44.5927
 L 41.75,-45 L 41.7756,-45.4073 L 41.8521,-45.8082 L 41.9782,-46.1964 L 42.152,-46.5657 L 42.3707,-46.9103
 L 42.6308,-47.2248 L 42.9284,-47.5042 L 43.2586,-47.7441 L 43.6162,-47.9407 L 43.9957,-48.0909 L 44.391,-48.1924
 L 44.7959,-48.2436 L 45.2041,-48.2436 L 45.609,-48.1924 L 46.0043,-48.0909 L 46.3838,-47.9407 L 46.7414,-47.7441
 L 47.0716,-47.5042 L 47.3691,-47.2248 L 47.6293,-46.9103 L 47.848,-46.5657 L 48.0218,-46.1964 L 48.1479,-45.8082
 L 48.2244,-45.4073 L 48.25,-45 L 48.2244,-44.5927 L 48.1479,-44.1918 L 48.0218,-43.8036 L 47.848,-43.4343
 L 47.6293,-43.0897 L 47.3691,-42.7752 L 47.0716,-42.4958 L 46.7414,-42.2559 L 46.3838,-42.0593 L 46.0043,-41.9091
 L 45.609,-41.8076 L 45.2041,-41.7564 z
M 104.796,-41.7564 L 104.391,-41.8076 L 103.996,-41.9091 L 103.616,-42.0593 L 103.259,-42.2559 L 102.928,-42.4958
 L 102.631,-42.7752 L 102.371,-43.0897 L 102.152,-43.4343 L 101.978,-43.8036 L 101.852,-44.1918 L 101.776,-44.5927
 L 101.75,-45 L 101.776,-45.4073 L 101.852,-45.8082 L 101.978,-46.1964 L 102.152,-46.5657 L 102.371,-46.9103
 L 102.631,-47.2248 L 102.928,-47.5042 L 103.259,-47.7441 L 103.616,-47.9407 L 103.996,-48.0909 L 104.391,-48.1924
 L 104.796,-48.2436 L 105.204,-48.2436 L 105.609,-48.1924 L 106.004,-48.0909 L 106.384,-47.9407 L 106.741,-47.7441
 L 107.072,-47.5042 L 107.369,-47.2248 L 107.629,-46.9103 L 107.848,-46.5657 L 108.022,-46.1964 L 108.148,-45.8082
 L 108.224,-45.4073 L 108.25,-45 L 108.224,-44.5927 L 108.148,-44.1918 L 108.022,-43.8036 L 107.848,-43.4343
 L 107.629,-43.0897 L 107.369,-42.7752 L 107.072,-42.4958 L 106.741,-42.2559 L 106.384,-42.0593 L 106.004,-41.9091
 L 105.609,-41.8076 L 105.204,-41.7564 z
M 74.7959,-41.7564 L 74.391,-41.8076 L 73.9957,-41.9091 L 73.6162,-42.0593 L 73.2586,-42.2559 L 72.9284,-42.4958
 L 72.6308,-42.7752 L 72.3707,-43.0897 L 72.152,-43.4343 L 71.9782,-43.8036 L 71.8521,-44.1918 L 71.7756,-44.5927
 L 71.75,-45 L 71.7756,-45.4073 L 71.8521,-45.8082 L 71.9782,-46.1964 L 72.152,-46.5657 L 72.3707,-46.9103
 L 72.6308,-47.2248 L 72.9284,-47.5042 L 73.2586,-47.7441 L 73.6162,-47.9407 L 73.9957,-48.0909 L 74.391,-48.1924
 L 74.7959,-48.2436 L 75.2041,-48.2436 L 75.609,-48.1924 L 76.0043,-48.0909 L 76.3838,-47.9407 L 76.7414,-47.7441
 L 77.0716,-47.5042 L 77.3691,-47.2248 L 77.6293,-46.9103 L 77.848,-46.5657 L 78.0218,-46.1964 L 78.1479,-45.8082
 L 78.2244,-45.4073 L 78.25,-45 L 78.2244,-44.5927 L 78.1479,-44.1918 L 78.0218,-43.8036 L 77.848,-43.4343
 L 77.6293,-43.0897 L 77.3691,-42.7752 L 77.0716,-42.4958 L 76.7414,-42.2559 L 76.3838,-42.0593 L 76.0043,-41.9091
 L 75.609,-41.8076 L 75.2041,-41.7564 z
M 119.796,-41.7564 L 119.391,-41.8076 L 118.996,-41.9091 L 118.616,-42.0593 L 118.259,-42.2559 L 117.928,-42.4958
 L 117.631,-42.7752 L 117.371,-43.0897 L 117.152,-43.4343 L 116.978,-43.8036 L 116.852,-44.1918 L 116.776,-44.5927
 L 116.75,-45 L 116.776,-45.4073 L 116.852,-45.8082 L 116.978,-46.1964 L 117.152,-46.5657 L 117.371,-46.9103
 L 117.631,-47.2248 L 117.928,-47.5042 L 118.259,-47.7441 L 118.616,-47.9407 L 118.996,-48.0909 L 119.391,-48.1924
 L 119.796,-48.2436 L 120.204,-48.2436 L 120.609,-48.1924 L 121.004,-48.0909 L 121.384,-47.9407 L 121.741,-47.7441
 L 122.072,-47.5042 L 122.369,-47.2248 L 122.629,-46.9103 L 122.848,-46.5657 L 123.022,-46.1964 L 123.148,-45.8082
 L 123.224,-45.4073 L 123.25,-45 L 123.224,-44.5927 L 123.148,-44.1918 L 123.022,-43.8036 L 122.848,-43.4343
 L 122.629,-43.0897 L 122.369,-42.7752 L 122.072,-42.4958 L 121.741,-42.2559 L 121.384,-42.0593 L 121.004,-41.9091
 L 120.609,-41.8076 L 120.204,-41.7564 z
M 29.7959,-41.7564 L 29.391,-41.8076 L 28.9957,-41.9091 L 28.6162,-42.0593 L 28.2586,-42.2559 L 27.9284,-42.4958
 L 27.6308,-42.7752 L 27.3707,-43.0897 L 27.152,-43.4343 L 26.9782,-43.8036 L 26.8521,-44.1918 L 26.7756,-44.5927
 L 26.75,-45 L 26.7756,-45.4073 L 26.8521,-45.8082 L 26.9782,-46.1964 L 27.152,-46.5657 L 27.3707,-46.9103
 L 27.6308,-47.2248 L 27.9284,-47.5042 L 28.2586,-47.7441 L 28.6162,-47.9407 L 28.9957,-48.0909 L 29.391,-48.1924
 L 29.7959,-48.2436 L 30.2041,-48.2436 L 30.609,-48.1924 L 31.0043,-48.0909 L 31.3838,-47.9407 L 31.7414,-47.7441
 L 32.0716,-47.5042 L 32.3691,-47.2248 L 32.6293,-46.9103 L 32.848,-46.5657 L 33.0218,-46.1964 L 33.1479,-45.8082
 L 33.2244,-45.4073 L 33.25,-45 L 33.2244,-44.5927 L 33.1479,-44.1918 L 33.0218,-43.8036 L 32.848,-43.4343
 L 32.6293,-43.0897 L 32.3691,-42.7752 L 32.0716,-42.4958 L 31.7414,-42.2559 L 31.3838,-42.0593 L 31.0043,-41.9091
 L 30.609,-41.8076 L 30.2041,-41.7564 z
M 14.7959,-26.7564 L 14.391,-26.8076 L 13.9957,-26.9091 L 13.6162,-27.0593 L 13.2586,-27.2559 L 12.9284,-27.4958
 L 12.6308,-27.7752 L 12.3707,-28.0897 L 12.152,-28.4343 L 11.9782,-28.8036 L 11.8521,-29.1918 L 11.7756,-29.5927
 L 11.75,-30 L 11.7756,-30.4073 L 11.8521,-30.8082 L 11.9782,-31.1964 L 12.152,-31.5657 L 12.3707,-31.9103
 L 12.6308,-32.2248 L 12.9284,-32.5042 L 13.2586,-32.7441 L 13.6162,-32.9407 L 13.9957,-33.0909 L 14.391,-33.1924
 L 14.7959,-33.2436 L 15.2041,-33.2436 L 15.609,-33.1924 L 16.0043,-33.0909 L 16.3838,-32.9407 L 16.7414,-32.7441
 L 17.0716,-32.5042 L 17.3691,-32.2248 L 17.6293,-31.9103 L 17.848,-31.5657 L 18.0218,-31.1964 L 18.1479,-30.8082
 L 18.2244,-30.4073 L 18.25,-30 L 18.2244,-29.5927 L 18.1479,-29.1918 L 18.0218,-28.8036 L 17.848,-28.4343
 L 17.6293,-28.0897 L 17.3691,-27.7752 L 17.0716,-27.4958 L 16.7414,-27.2559 L 16.3838,-27.0593 L 16.0043,-26.9091
 L 15.609,-26.8076 L 15.2041,-26.7564 z
M 74.7959,-26.7564 L 74.391,-26.8076 L 73.9957,-26.9091 L 73.6162,-27.0593 L 73.2586,-27.2559 L 72.9284,-27.4958
 L 72.6308,-27.7752 L 72.3707,-28.0897 L 72.152,-28.4343 L 71.9782,-28.8036 L 71.8521,-29.1918 L 71.7756,-29.5927
 L 71.75,-30 L 71.7756,-30.4073 L 71.8521,-30.8082 L 71.9782,-31.1964 L 72.152,-31.5657 L 72.3707,-31.9103
 L 72.6308,-32.2248 L 72.9284,-32.5042 L 73.2586,-32.7441 L 73.6162,-32.9407 L 73.9957,-33.0909 L 74.391,-33.1924
 L 74.7959,-33.2436 L 75.2041,-33.2436 L 75.609,-33.1924 L 76.0043,-33.0909 L 76.3838,-32.9407 L 76.7414,-32.7441
 L 77.0716,-32.5042 L 77.3691,-32.2248 L 77.6293,-31.9103 L 77.848,-31.5657 L 78.0218,-31.1964 L 78.1479,-30.8082
 L 78.2244,-30.4073 L 78.25,-30 L 78.2244,-29.5927 L 78.1479,-29.1918 L 78.0218,-28.8036 L 77.848,-28.4343
 L 77.6293,-28.0897 L 77.3691,-27.7752 L 77.0716,-27.4958 L 76.7414,-27.2559 L 76.3838,-27.0593 L 76.0043,-26.9091
 L 75.609,-26.8076 L 75.2041,-26.7564 z
M 119.796,-26.7564 L 119.391,-26.8076 L 118.996,-26.9091 L 118.616,-27.0593 L 118.259,-27.2559 L 117.928,-27.4958
 L 117.631,-27.7752 L 117.371,-28.0897 L 117.152,-28.4343 L 116.978,-28.8036 L 116.852,-29.1918 L 116.776,-29.5927
 L 116.75,-30 L 116.776,-30.4073 L 116.852,-30.8082 L 116.978,-31.1964 L 117.152,-31.5657 L 117.371,-31.9103
 L 117.631,-32.2248 L 117.928,-32.5042 L 118.259,-32.7441 L 118.616,-32.9407 L 118.996,-33.0909 L 119.391,-33.1924
 L 119.796,-33.2436 L 120.204,-33.2436 L 120.609,-33.1924 L 121.004,-33.0909 L 121.384,-32.9407 L 121.741,-32.7441
 L 122.072,-32.5042 L 122.369,-32.2248 L 122.629,-31.9103 L 122.848,-31.5657 L 123.022,-31.1964 L 123.148,-30.8082
 L 123.224,-30.4073 L 123.25,-30 L 123.224,-29.5927 L 123.148,-29.1918 L 123.022,-28.8036 L 122.848,-28.4343
 L 122.629,-28.0897 L 122.369,-27.7752 L 122.072,-27.4958 L 121.741,-27.2559 L 121.384,-27.0593 L 121.004,-26.9091
 L 120.609,-26.8076 L 120.204,-26.7564 z
M 59.7959,-26.7564 L 59.391,-26.8076 L 58.9957,-26.9091 L 58.6162,-27.0593 L 58.2586,-27.2559 L 57.9284,-27.4958
 L 57.6308,-27.7752 L 57.3707,-28.0897 L 57.152,-28.4343 L 56.9782,-28.8036 L 56.8521,-29.1918 L 56.7756,-29.5927
 L 56.75,-30 L 56.7756,-30.4073 L 56.8521,-30.8082 L 56.9782,-31.1964 L 57.152,-31.5657 L 57.3707,-31.9103
 L 57.6308,-32.2248 L 57.9284,-32.5042 L 58.2586,-32.7441 L 58.6162,-32.9407 L 58.9957,-33.0909 L 59.391,-33.1924
 L 59.7959,-33.2436 L 60.2041,-33.2436 L 60.609,-33.1924 L 61.0043,-33.0909 L 61.3838,-32.9407 L 61.7414,-32.7441
 L 62.0716,-32.5042 L 62.3691,-32.2248 L 62.6293,-31.9103 L 62.848,-31.5657 L 63.0218,-31.1964 L 63.1479,-30.8082
 L 63.2244,-30.4073 L 63.25,-30 L 63.2244,-29.5927 L 63.1479,-29.1918 L 63.0218,-28.8036 L 62.848,-28.4343
 L 62.6293,-28.0897 L 62.3691,-27.7752 L 62.0716,-27.4958 L 61.7414,-27.2559 L 61.3838,-27.0593 L 61.0043,-26.9091
 L 60.609,-26.8076 L 60.2041,-26.7564 z
M 89.7959,-26.7564 L 89.391,-26.8076 L 88.9957,-26.9091 L 88.6162,-27.0593 L 88.2586,-27.2559 L 87.9284,-27.4958
 L 87.6308,-27.7752 L 87.3707,-28.0897 L 87.152,-28.4343 L 86.9782,-28.8036 L 86.8521,-29.1918 L 86.7756,-29.5927
 L 86.75,-30 L 86.7756,-30.4073 L 86.8521,-30.8082 L 86.9782,-31.1964 L 87.152,-31.5657 L 87.3707,-31.9103
 L 87.6308,-32.2248 L 87.9284,-32.5042 L 88.2586,-32.7441 L 88.6162,-32.9407 L 88.9957,-33.0909 L 89.391,-33.1924
 L 89.7959,-33.2436 L 90.2041,-33.2436 L 90.609,-33.1924 L 91.0043,-33.0909 L 91.3838,-32.9407 L 91.7414,-32.7441
 L 92.0716,-32.5042 L 92.3691,-32.2248 L 92.6293,-31.9103 L 92.848,-31.5657 L 93.0218,-31.1964 L 93.1479,-30.8082
 L 93.2244,-30.4073 L 93.25,-30 L 93.2244,-29.5927 L 93.1479,-29.1918 L 93.0218,-28.8036 L 92.848,-28.4343
 L 92.6293,-28.0897 L 92.3691,-27.7752 L 92.0716,-27.4958 L 91.7414,-27.2559 L 91.3838,-27.0593 L 91.0043,-26.9091
 L 90.609,-26.8076 L 90.2041,-26.7564 z
M 44.7959,-26.7564 L 44.391,-26.8076 L 43.9957,-26.9091 L 43.6162,-27.0593 L 43.2586,-27.2559 L 42.9284,-27.4958
 L 42.6308,-27.7752 L 42.3707,-28.0897 L 42.152,-28.4343 L 41.9782,-28.8036 L 41.8521,-29.1918 L 41.7756,-29.5927
 L 41.75,-30 L 41.7756,-30.4073 L 41.8521,-30.8082 L 41.9782,-31.1964 L 42.152,-31.5657 L 42.3707,-31.9103
 L 42.6308,-32.2248 L 42.9284,-32.5042 L 43.2586,-32.7441 L 43.6162,-32.9407 L 43.9957,-33.0909 L 44.391,-33.1924
 L 44.7959,-33.2436 L 45.2041,-33.2436 L 45.609,-33.1924 L 46.0043,-33.0909 L 46.3838,-32.9407 L 46.7414,-32.7441
 L 47.0716,-32.5042 L 47.3691,-32.2248 L 47.6293,-31.9103 L 47.848,-31.5657 L 48.0218,-31.1964 L 48.1479,-30.8082
 L 48.2244,-30.4073 L 48.25,-30 L 48.2244,-29.5927 L 48.1479,-29.1918 L 48.0218,-28.8036 L 47.848,-28.4343
 L 47.6293,-28.0897 L 47.3691,-27.7752 L 47.0716,-27.4958 L 46.7414,-27.2559 L 46.3838,-27.0593 L 46.0043,-26.9091
 L 45.609,-26.8076 L 45.2041,-26.7564 z
M 104.796,-26.7564 L 104.391,-26.8076 L 103.996,-26.9091 L 103.616,-27.0593 L 103.259,-27.2559 L 102.928,-27.4958
 L 102.631,-27.7752 L 102.371,-28.0897 L 102.152,-28.4343 L 101.978,-28.8036 L 101.852,-29.1918 L 101.776,-29.5927
 L 101.75,-30 L 101.776,-30.4073 L 101.852,-30.8082 L 101.978,-31.1964 L 102.152,-31.5657 L 102.371,-31.9103
 L 102.631,-32.2248 L 102.928,-32.5042 L 103.259,-32.7441 L 103.616,-32.9407 L 103.996,-33.0909 L 104.391,-33.1924
 L 104.796,-33.2436 L 105.204,-33.2436 L 105.609,-33.1924 L 106.004,-33.0909 L 106.384,-32.9407 L 106.741,-32.7441
 L 107.072,-32.5042 L 107.369,-32.2248 L 107.629,-31.9103 L 107.848,-31.5657 L 108.022,-31.1964 L 108.148,-30.8082
 L 108.224,-30.4073 L 108.25,-30 L 108.224,-29.5927 L 108.148,-29.1918 L 108.022,-28.8036 L 107.848,-28.4343
 L 107.629,-28.0897 L 107.369,-27.7752 L 107.072,-27.4958 L 106.741,-27.2559 L 106.384,-27.0593 L 106.004,-26.9091
 L 105.609,-26.8076 L 105.204,-26.7564 z
M 29.7959,-26.7564 L 29.391,-26.8076 L 28.9957,-26.9091 L 28.6162,-27.0593 L 28.2586,-27.2559 L 27.9284,-27.4958
 L 27.6308,-27.7752 L 27.3707,-28.0897 L 27.152,-28.4343 L 26.9782,-28.8036 L 26.8521,-29.1918 L 26.7756,-29.5927
 L 26.75,-30 L 26.7756,-30.4073 L 26.8521,-30.8082 L 26.9782,-31.1964 L 27.152,-31.5657 L 27.3707,-31.9103
 L 27.6308,-32.2248 L 27.9284,-32.5042 L 28.2586,-32.7441 L 28.6162,-32.9407 L 28.9957,-33.0909 L 29.391,-33.1924
 L 29.7959,-33.2436 L 30.2041,-33.2436 L 30.609,-33.1924 L 31.0043,-33.0909 L 31.3838,-32.9407 L 31.7414,-32.7441
 L 32.0716,-32.5042 L 32.3691,-32.2248 L 32.6293,-31.9103 L 32.848,-31.5657 L 33.0218,-31.1964 L 33.1479,-30.8082
 L 33.2244,-30.4073 L 33.25,-30 L 33.2244,-29.5927 L 33.1479,-29.1918 L 33.0218,-28.8036 L 32.848,-28.4343
 L 32.6293,-28.0897 L 32.3691,-27.7752 L 32.0716,-27.4958 L 31.7414,-27.2559 L 31.3838,-27.0593 L 31.0043,-26.9091
 L 30.609,-26.8076 L 30.2041,-26.7564 z
M 59.7959,-11.7564 L 59.391,-11.8076 L 58.9957,-11.9091 L 58.6162,-12.0593 L 58.2586,-12.2559 L 57.9284,-12.4958
 L 57.6308,-12.7752 L 57.3707,-13.0897 L 57.152,-13.4343 L 56.9782,-13.8036 L 56.8521,-14.1918 L 56.7756,-14.5927
 L 56.75,-15 L 56.7756,-15.4073 L 56.8521,-15.8082 L 56.9782,-16.1964 L 57.152,-16.5657 L 57.3707,-16.9103
 L 57.6308,-17.2248 L 57.9284,-17.5042 L 58.2586,-17.7441 L 58.6162,-17.9407 L 58.9957,-18.0909 L 59.391,-18.1924
 L 59.7959,-18.2436 L 60.2041,-18.2436 L 60.609,-18.1924 L 61.0043,-18.0909 L 61.3838,-17.9407 L 61.7414,-17.7441
 L 62.0716,-17.5042 L 62.3691,-17.2248 L 62.6293,-16.9103 L 62.848,-16.5657 L 63.0218,-16.1964 L 63.1479,-15.8082
 L 63.2244,-15.4073 L 63.25,-15 L 63.2244,-14.5927 L 63.1479,-14.1918 L 63.0218,-13.8036 L 62.848,-13.4343
 L 62.6293,-13.0897 L 62.3691,-12.7752 L 62.0716,-12.4958 L 61.7414,-12.2559 L 61.3838,-12.0593 L 61.0043,-11.9091
 L 60.609,-11.8076 L 60.2041,-11.7564 z
M 29.7959,-11.7564 L 29.391,-11.8076 L 28.9957,-11.9091 L 28.6162,-12.0593 L 28.2586,-12.2559 L 27.9284,-12.4958
 L 27.6308,-12.7752 L 27.3707,-13.0897 L 27.152,-13.4343 L 26.9782,-13.8036 L 26.8521,-14.1918 L 26.7756,-14.5927
 L 26.75,-15 L 26.7756,-15.4073 L 26.8521,-15.8082 L 26.9782,-16.1964 L 27.152,-16.5657 L 27.3707,-16.9103
 L 27.6308,-17.2248 L 27.9284,-17.5042 L 28.2586,-17.7441 L 28.6162,-17.9407 L 28.9957,-18.0909 L 29.391,-18.1924
 L 29.7959,-18.2436 L 30.2041,-18.2436 L 30.609,-18.1924 L 31.0043,-18.0909 L 31.3838,-17.9407 L 31.7414,-17.7441
 L 32.0716,-17.5042 L 32.3691,-17.2248 L 32.6293,-16.9103 L 32.848,-16.5657 L 33.0218,-16.1964 L 33.1479,-15.8082
 L 33.2244,-15.4073 L 33.25,-15 L 33.2244,-14.5927 L 33.1479,-14.1918 L 33.0218,-13.8036 L 32.848,-13.4343
 L 32.6293,-13.0897 L 32.3691,-12.7752 L 32.0716,-12.4958 L 31.7414,-12.2559 L 31.3838,-12.0593 L 31.0043,-11.9091
 L 30.609,-11.8076 L 30.2041,-11.7564 z
M 119.796,-11.7564 L 119.391,-11.8076 L 118.996,-11.9091 L 118.616,-12.0593 L 118.259,-12.2559 L 117.928,-12.4958
 L 117.631,-12.7752 L 117.371,-13.0897 L 117.152,-13.4343 L 116.978,-13.8036 L 116.852,-14.1918 L 116.776,-14.5927
 L 116.75,-15 L 116.776,-15.4073 L 116.852,-15.8082 L 116.978,-16.1964 L 117.152,-16.5657 L 117.371,-16.9103
 L 117.631,-17.2248 L 117.928,-17.5042 L 118.259,-17.7441 L 118.616,-17.9407 L 118.996,-18.0909 L 119.391,-18.1924
 L 119.796,-18.2436 L 120.204,-18.2436 L 120.609,-18.1924 L 121.004,-18.0909 L 121.384,-17.9407 L 121.741,-17.7441
 L 122.072,-17.5042 L 122.369,-17.2248 L 122.629,-16.9103 L 122.848,-16.5657 L 123.022,-16.1964 L 123.148,-15.8082
 L 123.224,-15.4073 L 123.25,-15 L 123.224,-14.5927 L 123.148,-14.1918 L 123.022,-13.8036 L 122.848,-13.4343
 L 122.629,-13.0897 L 122.369,-12.7752 L 122.072,-12.4958 L 121.741,-12.2559 L 121.384,-12.0593 L 121.004,-11.9091
 L 120.609,-11.8076 L 120.204,-11.7564 z
M 104.796,-11.7564 L 104.391,-11.8076 L 103.996,-11.9091 L 103.616,-12.0593 L 103.259,-12.2559 L 102.928,-12.4958
 L 102.631,-12.7752 L 102.371,-13.0897 L 102.152,-13.4343 L 101.978,-13.8036 L 101.852,-14.1918 L 101.776,-14.5927
 L 101.75,-15 L 101.776,-15.4073 L 101.852,-15.8082 L 101.978,-16.1964 L 102.152,-16.5657 L 102.371,-16.9103
 L 102.631,-17.2248 L 102.928,-17.5042 L 103.259,-17.7441 L 103.616,-17.9407 L 103.996,-18.0909 L 104.391,-18.1924
 L 104.796,-18.2436 L 105.204,-18.2436 L 105.609,-18.1924 L 106.004,-18.0909 L 106.384,-17.9407 L 106.741,-17.7441
 L 107.072,-17.5042 L 107.369,-17.2248 L 107.629,-16.9103 L 107.848,-16.5657 L 108.022,-16.1964 L 108.148,-15.8082
 L 108.224,-15.4073 L 108.25,-15 L 108.224,-14.5927 L 108.148,-14.1918 L 108.022,-13.8036 L 107.848,-13.4343
 L 107.629,-13.0897 L 107.369,-12.7752 L 107.072,-12.4958 L 106.741,-12.2559 L 106.384,-12.0593 L 106.004,-11.9091
 L 105.609,-11.8076 L 105.204,-11.7564 z
M 89.7959,-11.7564 L 89.391,-11.8076 L 88.9957,-11.9091 L 88.6162,-12.0593 L 88.2586,-12.2559 L 87.9284,-12.4958
 L 87.6308,-12.7752 L 87.3707,-13.0897 L 87.152,-13.4343 L 86.9782,-13.8036 L 86.8521,-14.1918 L 86.7756,-14.5927
 L 86.75,-15 L 86.7756,-15.4073 L 86.8521,-15.8082 L 86.9782,-16.1964 L 87.152,-16.5657 L 87.3707,-16.9103
 L 87.6308,-17.2248 L 87.9284,-17.5042 L 88.2586,-17.7441 L 88.6162,-17.9407 L 88.9957,-18.0909 L 89.391,-18.1924
 L 89.7959,-18.2436 L 90.2041,-18.2436 L 90.609,-18.1924 L 91.0043,-18.0909 L 91.3838,-17.9407 L 91.7414,-17.7441
 L 92.0716,-17.5042 L 92.3691,-17.2248 L 92.6293,-16.9103 L 92.848,-16.5657 L 93.0218,-16.1964 L 93.1479,-15.8082
 L 93.2244,-15.4073 L 93.25,-15 L 93.2244,-14.5927 L 93.1479,-14.1918 L 93.0218,-13.8036 L 92.848,-13.4343
 L 92.6293,-13.0897 L 92.3691,-12.7752 L 92.0716,-12.4958 L 91.7414,-12.2559 L 91.3838,-12.0593 L 91.0043,-11.9091
 L 90.609,-11.8076 L 90.2041,-11.7564 z
M 14.7959,-11.7564 L 14.391,-11.8076 L 13.9957,-11.9091 L 13.6162,-12.0593 L 13.2586,-12.2559 L 12.9284,-12.4958
 L 12.6308,-12.7752 L 12.3707,-13.0897 L 12.152,-13.4343 L 11.9782,-13.8036 L 11.8521,-14.1918 L 11.7756,-14.5927
 L 11.75,-15 L 11.7756,-15.4073 L 11.8521,-15.8082 L 11.9782,-16.1964 L 12.152,-16.5657 L 12.3707,-16.9103
 L 12.6308,-17.2248 L 12.9284,-17.5042 L 13.2586,-17.7441 L 13.6162,-17.9407 L 13.9957,-18.0909 L 14.391,-18.1924
 L 14.7959,-18.2436 L 15.2041,-18.2436 L 15.609,-18.1924 L 16.0043,-18.0909 L 16.3838,-17.9407 L 16.7414,-17.7441
 L 17.0716,-17.5042 L 17.3691,-17.2248 L 17.6293,-16.9103 L 17.848,-16.5657 L 18.0218,-16.1964 L 18.1479,-15.8082
 L 18.2244,-15.4073 L 18.25,-15 L 18.2244,-14.5927 L 18.1479,-14.1918 L 18.0218,-13.8036 L 17.848,-13.4343
 L 17.6293,-13.0897 L 17.3691,-12.7752 L 17.0716,-12.4958 L 16.7414,-12.2559 L 16.3838,-12.0593 L 16.0043,-11.9091
 L 15.609,-11.8076 L 15.2041,-11.7564 z
M 74.7959,-11.7564 L 74.391,-11.8076 L 73.9957,-11.9091 L 73.6162,-12.0593 L 73.2586,-12.2559 L 72.9284,-12.4958
 L 72.6308,-12.7752 L 72.3707,-13.0897 L 72.152,-13.4343 L 71.9782,-13.8036 L 71.8521,-14.1918 L 71.7756,-14.5927
 L 71.75,-15 L 71.7756,-15.4073 L 71.8521,-15.8082 L 71.9782,-16.1964 L 72.152,-16.5657 L 72.3707,-16.9103
 L 72.6308,-17.2248 L 72.9284,-17.5042 L 73.2586,-17.7441 L 73.6162,-17.9407 L 73.9957,-18.0909 L 74.391,-18.1924
 L 74.7959,-18.2436 L 75.2041,-18.2436 L 75.609,-18.1924 L 76.0043,-18.0909 L 76.3838,-17.9407 L 76.7414,-17.7441
 L 77.0716,-17.5042 L 77.3691,-17.2248 L 77.6293,-16.9103 L 77.848,-16.5657 L 78.0218,-16.1964 L 78.1479,-15.8082
 L 78.2244,-15.4073 L 78.25,-15 L 78.2244,-14.5927 L 78.1479,-14.1918 L 78.0218,-13.8036 L 77.848,-13.4343
 L 77.6293,-13.0897 L 77.3691,-12.7752 L 77.0716,-12.4958 L 76.7414,-12.2559 L 76.3838,-12.0593 L 76.0043,-11.9091
 L 75.609,-11.8076 L 75.2041,-11.7564 z
M 44.7959,-11.7564 L 44.391,-11.8076 L 43.9957,-11.9091 L 43.6162,-12.0593 L 43.2586,-12.2559 L 42.9284,-12.4958
 L 42.6308,-12.7752 L 42.3707,-13.0897 L 42.152,-13.4343 L 41.9782,-13.8036 L 41.8521,-14.1918 L 41.7756,-14.5927
 L 41.75,-15 L 41.7756,-15.4073 L 41.8521,-15.8082 L 41.9782,-16.1964 L 42.152,-16.5657 L 42.3707,-16.9103
 L 42.6308,-17.2248 L 42.9284,-17.5042 L 43.2586,-17.7441 L 43.6162,-17.9407 L 43.9957,-18.0909 L 44.391,-18.1924
 L 44.7959,-18.2436 L 45.2041,-18.2436 L 45.609,-18.1924 L 46.0043,-18.0909 L 46.3838,-17.9407 L 46.7414,-17.7441
 L 47.0716,-17.5042 L 47.3691,-17.2248 L 47.6293,-16.9103 L 47.848,-16.5657 L 48.0218,-16.1964 L 48.1479,-15.8082
 L 48.2244,-15.4073 L 48.25,-15 L 48.2244,-14.5927 L 48.1479,-14.1918 L 48.0218,-13.8036 L 47.848,-13.4343
 L 47.6293,-13.0897 L 47.3691,-12.7752 L 47.0716,-12.4958 L 46.7414,-12.2559 L 46.3838,-12.0593 L 46.0043,-11.9091
 L 45.609,-11.8076 L 45.2041,-11.7564 z
" stroke="black" fill="lightgray" stroke-width="0.5"/>
</svg>
